{
  "track_name": "14 - Track 16",
  "duration_sec": 145.326,
  "sample_rate": 44100,
  "note_count": 2151,
  "unique_pitches": 36,
  "pitch_range": 67,
  "avg_note_duration": 0.2237,
  "reconstruction_stats": {
    "notes_reconstructed": 2151,
    "keyon_events": 2151,
    "keyoff_events": 2150,
    "orphan_keyons": 1,
    "unique_pitches": 36,
    "pitch_range": 67,
    "avg_duration_sec": 0.2237
  },
  "metadata": {
    "source": "T\\The Pirates of Dark Water\\14 - Track 16.vgz"
  },
  "notes": [
    {
      "channel": 5,
      "note": 69,
      "start": 0.0022,
      "duration": 1.5095,
      "velocity": 95,
      "chip": "ym2612"
    },
    {
      "channel": 0,
      "note": 69,
      "start": 0.01,
      "duration": 1.3679,
      "velocity": 93,
      "chip": "ym2612"
    },
    {
      "channel": 1,
      "note": 33,
      "start": 0.0166,
      "duration": 0.5115,
      "velocity": 99,
      "chip": "ym2612"
    },
    {
      "channel": 3,
      "note": 93,
      "start": 0.0225,
      "duration": 0.0557,
      "velocity": 83,
      "chip": "ym2612"
    },
    {
      "channel": 3,
      "note": 88,
      "start": 0.0984,
      "duration": 0.0632,
      "velocity": 83,
      "chip": "ym2612"
    },
    {
      "channel": 3,
      "note": 93,
      "start": 0.1821,
      "duration": 0.0795,
      "velocity": 83,
      "chip": "ym2612"
    },
    {
      "channel": 3,
      "note": 88,
      "start": 0.2817,
      "duration": 0.08,
      "velocity": 83,
      "chip": "ym2612"
    },
    {
      "channel": 3,
      "note": 100,
      "start": 0.3817,
      "duration": 0.0799,
      "velocity": 83,
      "chip": "ym2612"
    },
    {
      "channel": 3,
      "note": 88,
      "start": 0.4816,
      "duration": 0.0633,
      "velocity": 83,
      "chip": "ym2612"
    },
    {
      "channel": 1,
      "note": 45,
      "start": 0.5656,
      "duration": 1.9793,
      "velocity": 99,
      "chip": "ym2612"
    },
    {
      "channel": 3,
      "note": 93,
      "start": 0.5683,
      "duration": 0.0767,
      "velocity": 83,
      "chip": "ym2612"
    },
    {
      "channel": 3,
      "note": 88,
      "start": 0.665,
      "duration": 0.08,
      "velocity": 83,
      "chip": "ym2612"
    },
    {
      "channel": 3,
      "note": 98,
      "start": 0.765,
      "duration": 0.08,
      "velocity": 83,
      "chip": "ym2612"
    },
    {
      "channel": 3,
      "note": 88,
      "start": 0.865,
      "duration": 0.0633,
      "velocity": 83,
      "chip": "ym2612"
    },
    {
      "channel": 3,
      "note": 93,
      "start": 0.9483,
      "duration": 0.0799,
      "velocity": 83,
      "chip": "ym2612"
    },
    {
      "channel": 3,
      "note": 88,
      "start": 1.0484,
      "duration": 0.0799,
      "velocity": 83,
      "chip": "ym2612"
    },
    {
      "channel": 3,
      "note": 96,
      "start": 1.1483,
      "duration": 0.08,
      "velocity": 83,
      "chip": "ym2612"
    },
    {
      "channel": 3,
      "note": 88,
      "start": 1.2484,
      "duration": 0.0632,
      "velocity": 83,
      "chip": "ym2612"
    },
    {
      "channel": 3,
      "note": 95,
      "start": 1.3317,
      "duration": 0.0798,
      "velocity": 83,
      "chip": "ym2612"
    },
    {
      "channel": 3,
      "note": 88,
      "start": 1.4316,
      "duration": 0.0799,
      "velocity": 83,
      "chip": "ym2612"
    },
    {
      "channel": 5,
      "note": 76,
      "start": 1.5319,
      "duration": 1.313,
      "velocity": 95,
      "chip": "ym2612"
    },
    {
      "channel": 0,
      "note": 76,
      "start": 1.5356,
      "duration": 1.2924,
      "velocity": 93,
      "chip": "ym2612"
    },
    {
      "channel": 3,
      "note": 93,
      "start": 1.5385,
      "duration": 0.0731,
      "velocity": 83,
      "chip": "ym2612"
    },
    {
      "channel": 3,
      "note": 88,
      "start": 1.6317,
      "duration": 0.0663,
      "velocity": 83,
      "chip": "ym2612"
    },
    {
      "channel": 3,
      "note": 93,
      "start": 1.7154,
      "duration": 0.0795,
      "velocity": 83,
      "chip": "ym2612"
    },
    {
      "channel": 3,
      "note": 88,
      "start": 1.815,
      "duration": 0.08,
      "velocity": 83,
      "chip": "ym2612"
    },
    {
      "channel": 3,
      "note": 100,
      "start": 1.915,
      "duration": 0.08,
      "velocity": 83,
      "chip": "ym2612"
    },
    {
      "channel": 3,
      "note": 88,
      "start": 2.015,
      "duration": 0.0665,
      "velocity": 83,
      "chip": "ym2612"
    },
    {
      "channel": 3,
      "note": 93,
      "start": 2.0984,
      "duration": 0.0799,
      "velocity": 83,
      "chip": "ym2612"
    },
    {
      "channel": 3,
      "note": 88,
      "start": 2.1983,
      "duration": 0.08,
      "velocity": 83,
      "chip": "ym2612"
    },
    {
      "channel": 3,
      "note": 98,
      "start": 2.2983,
      "duration": 0.08,
      "velocity": 83,
      "chip": "ym2612"
    },
    {
      "channel": 3,
      "note": 88,
      "start": 2.3983,
      "duration": 0.0666,
      "velocity": 83,
      "chip": "ym2612"
    },
    {
      "channel": 3,
      "note": 93,
      "start": 2.4818,
      "duration": 0.0798,
      "velocity": 83,
      "chip": "ym2612"
    },
    {
      "channel": 3,
      "note": 88,
      "start": 2.5816,
      "duration": 0.08,
      "velocity": 83,
      "chip": "ym2612"
    },
    {
      "channel": 3,
      "note": 96,
      "start": 2.6818,
      "duration": 0.0798,
      "velocity": 83,
      "chip": "ym2612"
    },
    {
      "channel": 3,
      "note": 88,
      "start": 2.7817,
      "duration": 0.0664,
      "velocity": 83,
      "chip": "ym2612"
    },
    {
      "channel": 5,
      "note": 74,
      "start": 2.8652,
      "duration": 0.0466,
      "velocity": 95,
      "chip": "ym2612"
    },
    {
      "channel": 0,
      "note": 74,
      "start": 2.8685,
      "duration": 0.0429,
      "velocity": 93,
      "chip": "ym2612"
    },
    {
      "channel": 1,
      "note": 40,
      "start": 2.8713,
      "duration": 0.1569,
      "velocity": 99,
      "chip": "ym2612"
    },
    {
      "channel": 3,
      "note": 95,
      "start": 2.874,
      "duration": 0.0709,
      "velocity": 83,
      "chip": "ym2612"
    },
    {
      "channel": 5,
      "note": 72,
      "start": 2.9648,
      "duration": 0.0469,
      "velocity": 95,
      "chip": "ym2612"
    },
    {
      "channel": 0,
      "note": 72,
      "start": 2.9681,
      "duration": 0.0267,
      "velocity": 93,
      "chip": "ym2612"
    },
    {
      "channel": 3,
      "note": 88,
      "start": 2.9709,
      "duration": 0.0739,
      "velocity": 83,
      "chip": "ym2612"
    },
    {
      "channel": 5,
      "note": 74,
      "start": 3.0657,
      "duration": 2.0792,
      "velocity": 95,
      "chip": "ym2612"
    },
    {
      "channel": 0,
      "note": 74,
      "start": 3.0699,
      "duration": 2.058,
      "velocity": 93,
      "chip": "ym2612"
    },
    {
      "channel": 1,
      "note": 41,
      "start": 3.0729,
      "duration": 1.3386,
      "velocity": 99,
      "chip": "ym2612"
    },
    {
      "channel": 3,
      "note": 93,
      "start": 3.0756,
      "duration": 0.0693,
      "velocity": 83,
      "chip": "ym2612"
    },
    {
      "channel": 3,
      "note": 89,
      "start": 3.165,
      "duration": 0.08,
      "velocity": 83,
      "chip": "ym2612"
    },
    {
      "channel": 3,
      "note": 93,
      "start": 3.2519,
      "duration": 0.0763,
      "velocity": 83,
      "chip": "ym2612"
    },
    {
      "channel": 3,
      "note": 89,
      "start": 3.3483,
      "duration": 0.08,
      "velocity": 83,
      "chip": "ym2612"
    },
    {
      "channel": 3,
      "note": 100,
      "start": 3.4483,
      "duration": 0.0799,
      "velocity": 83,
      "chip": "ym2612"
    },
    {
      "channel": 3,
      "note": 89,
      "start": 3.5484,
      "duration": 0.08,
      "velocity": 83,
      "chip": "ym2612"
    },
    {
      "channel": 3,
      "note": 93,
      "start": 3.6351,
      "duration": 0.0765,
      "velocity": 83,
      "chip": "ym2612"
    },
    {
      "channel": 3,
      "note": 89,
      "start": 3.7317,
      "duration": 0.08,
      "velocity": 83,
      "chip": "ym2612"
    },
    {
      "channel": 3,
      "note": 98,
      "start": 3.8316,
      "duration": 0.0799,
      "velocity": 83,
      "chip": "ym2612"
    },
    {
      "channel": 3,
      "note": 89,
      "start": 3.9317,
      "duration": 0.0798,
      "velocity": 83,
      "chip": "ym2612"
    },
    {
      "channel": 3,
      "note": 93,
      "start": 4.0183,
      "duration": 0.0766,
      "velocity": 83,
      "chip": "ym2612"
    },
    {
      "channel": 3,
      "note": 89,
      "start": 4.115,
      "duration": 0.0799,
      "velocity": 83,
      "chip": "ym2612"
    },
    {
      "channel": 3,
      "note": 96,
      "start": 4.2151,
      "duration": 0.0798,
      "velocity": 83,
      "chip": "ym2612"
    },
    {
      "channel": 3,
      "note": 89,
      "start": 4.315,
      "duration": 0.0799,
      "velocity": 83,
      "chip": "ym2612"
    },
    {
      "channel": 3,
      "note": 95,
      "start": 4.415,
      "duration": 0.0632,
      "velocity": 83,
      "chip": "ym2612"
    },
    {
      "channel": 3,
      "note": 89,
      "start": 4.4983,
      "duration": 0.0799,
      "velocity": 83,
      "chip": "ym2612"
    },
    {
      "channel": 1,
      "note": 40,
      "start": 4.5982,
      "duration": 0.5133,
      "velocity": 99,
      "chip": "ym2612"
    },
    {
      "channel": 3,
      "note": 92,
      "start": 4.6009,
      "duration": 0.0773,
      "velocity": 83,
      "chip": "ym2612"
    },
    {
      "channel": 3,
      "note": 88,
      "start": 4.6983,
      "duration": 0.0799,
      "velocity": 83,
      "chip": "ym2612"
    },
    {
      "channel": 3,
      "note": 92,
      "start": 4.7987,
      "duration": 0.0629,
      "velocity": 83,
      "chip": "ym2612"
    },
    {
      "channel": 3,
      "note": 88,
      "start": 4.8816,
      "duration": 0.0799,
      "velocity": 83,
      "chip": "ym2612"
    },
    {
      "channel": 3,
      "note": 95,
      "start": 4.9816,
      "duration": 0.0798,
      "velocity": 83,
      "chip": "ym2612"
    },
    {
      "channel": 3,
      "note": 88,
      "start": 5.0816,
      "duration": 0.0798,
      "velocity": 83,
      "chip": "ym2612"
    },
    {
      "channel": 5,
      "note": 72,
      "start": 5.1817,
      "duration": 0.53,
      "velocity": 95,
      "chip": "ym2612"
    },
    {
      "channel": 0,
      "note": 72,
      "start": 5.1852,
      "duration": 0.5095,
      "velocity": 93,
      "chip": "ym2612"
    },
    {
      "channel": 1,
      "note": 44,
      "start": 5.1883,
      "duration": 0.8067,
      "velocity": 99,
      "chip": "ym2612"
    },
    {
      "channel": 3,
      "note": 92,
      "start": 5.191,
      "duration": 0.0539,
      "velocity": 83,
      "chip": "ym2612"
    },
    {
      "channel": 3,
      "note": 88,
      "start": 5.265,
      "duration": 0.0798,
      "velocity": 83,
      "chip": "ym2612"
    },
    {
      "channel": 3,
      "note": 98,
      "start": 5.365,
      "duration": 0.0801,
      "velocity": 83,
      "chip": "ym2612"
    },
    {
      "channel": 3,
      "note": 88,
      "start": 5.4651,
      "duration": 0.0798,
      "velocity": 83,
      "chip": "ym2612"
    },
    {
      "channel": 3,
      "note": 92,
      "start": 5.565,
      "duration": 0.0633,
      "velocity": 83,
      "chip": "ym2612"
    },
    {
      "channel": 3,
      "note": 88,
      "start": 5.6483,
      "duration": 0.0799,
      "velocity": 83,
      "chip": "ym2612"
    },
    {
      "channel": 5,
      "note": 71,
      "start": 5.7484,
      "duration": 0.3634,
      "velocity": 95,
      "chip": "ym2612"
    },
    {
      "channel": 0,
      "note": 71,
      "start": 5.7519,
      "duration": 0.343,
      "velocity": 93,
      "chip": "ym2612"
    },
    {
      "channel": 3,
      "note": 96,
      "start": 5.7547,
      "duration": 0.0737,
      "velocity": 83,
      "chip": "ym2612"
    },
    {
      "channel": 3,
      "note": 88,
      "start": 5.8484,
      "duration": 0.0798,
      "velocity": 83,
      "chip": "ym2612"
    },
    {
      "channel": 3,
      "note": 95,
      "start": 5.9483,
      "duration": 0.0634,
      "velocity": 83,
      "chip": "ym2612"
    },
    {
      "channel": 3,
      "note": 88,
      "start": 6.0318,
      "duration": 0.0798,
      "velocity": 83,
      "chip": "ym2612"
    },
    {
      "channel": 5,
      "note": 69,
      "start": 6.1321,
      "duration": 1.4962,
      "velocity": 95,
      "chip": "ym2612"
    },
    {
      "channel": 0,
      "note": 69,
      "start": 6.1358,
      "duration": 1.4756,
      "velocity": 93,
      "chip": "ym2612"
    },
    {
      "channel": 1,
      "note": 33,
      "start": 6.1385,
      "duration": 0.5231,
      "velocity": 99,
      "chip": "ym2612"
    },
    {
      "channel": 3,
      "note": 93,
      "start": 6.1412,
      "duration": 0.0703,
      "velocity": 83,
      "chip": "ym2612"
    },
    {
      "channel": 3,
      "note": 88,
      "start": 6.2316,
      "duration": 0.08,
      "velocity": 83,
      "chip": "ym2612"
    },
    {
      "channel": 3,
      "note": 93,
      "start": 6.332,
      "duration": 0.0629,
      "velocity": 83,
      "chip": "ym2612"
    },
    {
      "channel": 3,
      "note": 88,
      "start": 6.415,
      "duration": 0.08,
      "velocity": 83,
      "chip": "ym2612"
    },
    {
      "channel": 3,
      "note": 100,
      "start": 6.515,
      "duration": 0.0799,
      "velocity": 83,
      "chip": "ym2612"
    },
    {
      "channel": 3,
      "note": 88,
      "start": 6.615,
      "duration": 0.0799,
      "velocity": 83,
      "chip": "ym2612"
    },
    {
      "channel": 1,
      "note": 45,
      "start": 6.7152,
      "duration": 1.9797,
      "velocity": 99,
      "chip": "ym2612"
    },
    {
      "channel": 3,
      "note": 93,
      "start": 6.7179,
      "duration": 0.0603,
      "velocity": 83,
      "chip": "ym2612"
    },
    {
      "channel": 3,
      "note": 88,
      "start": 6.7984,
      "duration": 0.0799,
      "velocity": 83,
      "chip": "ym2612"
    },
    {
      "channel": 3,
      "note": 98,
      "start": 6.8983,
      "duration": 0.08,
      "velocity": 83,
      "chip": "ym2612"
    },
    {
      "channel": 3,
      "note": 88,
      "start": 6.9983,
      "duration": 0.08,
      "velocity": 83,
      "chip": "ym2612"
    },
    {
      "channel": 3,
      "note": 93,
      "start": 7.0984,
      "duration": 0.0632,
      "velocity": 83,
      "chip": "ym2612"
    },
    {
      "channel": 3,
      "note": 88,
      "start": 7.1818,
      "duration": 0.0798,
      "velocity": 83,
      "chip": "ym2612"
    },
    {
      "channel": 3,
      "note": 96,
      "start": 7.2816,
      "duration": 0.0799,
      "velocity": 83,
      "chip": "ym2612"
    },
    {
      "channel": 3,
      "note": 88,
      "start": 7.3817,
      "duration": 0.0799,
      "velocity": 83,
      "chip": "ym2612"
    },
    {
      "channel": 3,
      "note": 95,
      "start": 7.4817,
      "duration": 0.0632,
      "velocity": 83,
      "chip": "ym2612"
    },
    {
      "channel": 3,
      "note": 88,
      "start": 7.565,
      "duration": 0.0798,
      "velocity": 83,
      "chip": "ym2612"
    },
    {
      "channel": 5,
      "note": 76,
      "start": 7.6647,
      "duration": 1.4969,
      "velocity": 95,
      "chip": "ym2612"
    },
    {
      "channel": 0,
      "note": 76,
      "start": 7.668,
      "duration": 1.4768,
      "velocity": 93,
      "chip": "ym2612"
    },
    {
      "channel": 3,
      "note": 93,
      "start": 7.6708,
      "duration": 0.0741,
      "velocity": 83,
      "chip": "ym2612"
    },
    {
      "channel": 3,
      "note": 88,
      "start": 7.765,
      "duration": 0.08,
      "velocity": 83,
      "chip": "ym2612"
    },
    {
      "channel": 3,
      "note": 93,
      "start": 7.8654,
      "duration": 0.0629,
      "velocity": 83,
      "chip": "ym2612"
    },
    {
      "channel": 3,
      "note": 88,
      "start": 7.9484,
      "duration": 0.0798,
      "velocity": 83,
      "chip": "ym2612"
    },
    {
      "channel": 3,
      "note": 100,
      "start": 8.0484,
      "duration": 0.0799,
      "velocity": 83,
      "chip": "ym2612"
    },
    {
      "channel": 3,
      "note": 88,
      "start": 8.1484,
      "duration": 0.0798,
      "velocity": 83,
      "chip": "ym2612"
    },
    {
      "channel": 3,
      "note": 93,
      "start": 8.2484,
      "duration": 0.0632,
      "velocity": 83,
      "chip": "ym2612"
    },
    {
      "channel": 3,
      "note": 88,
      "start": 8.3317,
      "duration": 0.0799,
      "velocity": 83,
      "chip": "ym2612"
    },
    {
      "channel": 3,
      "note": 98,
      "start": 8.4318,
      "duration": 0.0798,
      "velocity": 83,
      "chip": "ym2612"
    },
    {
      "channel": 3,
      "note": 88,
      "start": 8.5317,
      "duration": 0.0798,
      "velocity": 83,
      "chip": "ym2612"
    },
    {
      "channel": 3,
      "note": 93,
      "start": 8.6317,
      "duration": 0.0633,
      "velocity": 83,
      "chip": "ym2612"
    },
    {
      "channel": 3,
      "note": 88,
      "start": 8.715,
      "duration": 0.0799,
      "velocity": 83,
      "chip": "ym2612"
    },
    {
      "channel": 3,
      "note": 96,
      "start": 8.815,
      "duration": 0.08,
      "velocity": 83,
      "chip": "ym2612"
    },
    {
      "channel": 3,
      "note": 88,
      "start": 8.915,
      "duration": 0.0799,
      "velocity": 83,
      "chip": "ym2612"
    },
    {
      "channel": 1,
      "note": 40,
      "start": 9.0149,
      "duration": 0.1466,
      "velocity": 99,
      "chip": "ym2612"
    },
    {
      "channel": 3,
      "note": 95,
      "start": 9.0176,
      "duration": 0.0606,
      "velocity": 83,
      "chip": "ym2612"
    },
    {
      "channel": 3,
      "note": 88,
      "start": 9.0983,
      "duration": 0.0799,
      "velocity": 83,
      "chip": "ym2612"
    },
    {
      "channel": 5,
      "note": 77,
      "start": 9.198,
      "duration": 1.4971,
      "velocity": 95,
      "chip": "ym2612"
    },
    {
      "channel": 0,
      "note": 77,
      "start": 9.2018,
      "duration": 1.4929,
      "velocity": 93,
      "chip": "ym2612"
    },
    {
      "channel": 1,
      "note": 41,
      "start": 9.2052,
      "duration": 1.3062,
      "velocity": 99,
      "chip": "ym2612"
    },
    {
      "channel": 3,
      "note": 93,
      "start": 9.2079,
      "duration": 0.0704,
      "velocity": 83,
      "chip": "ym2612"
    },
    {
      "channel": 3,
      "note": 89,
      "start": 9.2984,
      "duration": 0.08,
      "velocity": 83,
      "chip": "ym2612"
    },
    {
      "channel": 3,
      "note": 93,
      "start": 9.3988,
      "duration": 0.0629,
      "velocity": 83,
      "chip": "ym2612"
    },
    {
      "channel": 3,
      "note": 89,
      "start": 9.4818,
      "duration": 0.0798,
      "velocity": 83,
      "chip": "ym2612"
    },
    {
      "channel": 3,
      "note": 100,
      "start": 9.5816,
      "duration": 0.0799,
      "velocity": 83,
      "chip": "ym2612"
    },
    {
      "channel": 3,
      "note": 89,
      "start": 9.6818,
      "duration": 0.0798,
      "velocity": 83,
      "chip": "ym2612"
    },
    {
      "channel": 3,
      "note": 93,
      "start": 9.7817,
      "duration": 0.0632,
      "velocity": 83,
      "chip": "ym2612"
    },
    {
      "channel": 3,
      "note": 89,
      "start": 9.865,
      "duration": 0.0799,
      "velocity": 83,
      "chip": "ym2612"
    },
    {
      "channel": 3,
      "note": 98,
      "start": 9.965,
      "duration": 0.08,
      "velocity": 83,
      "chip": "ym2612"
    },
    {
      "channel": 3,
      "note": 89,
      "start": 10.065,
      "duration": 0.0799,
      "velocity": 83,
      "chip": "ym2612"
    },
    {
      "channel": 3,
      "note": 93,
      "start": 10.165,
      "duration": 0.0665,
      "velocity": 83,
      "chip": "ym2612"
    },
    {
      "channel": 3,
      "note": 89,
      "start": 10.2484,
      "duration": 0.0798,
      "velocity": 83,
      "chip": "ym2612"
    },
    {
      "channel": 3,
      "note": 96,
      "start": 10.3483,
      "duration": 0.0799,
      "velocity": 83,
      "chip": "ym2612"
    },
    {
      "channel": 3,
      "note": 89,
      "start": 10.4484,
      "duration": 0.0798,
      "velocity": 83,
      "chip": "ym2612"
    },
    {
      "channel": 3,
      "note": 95,
      "start": 10.5484,
      "duration": 0.0651,
      "velocity": 83,
      "chip": "ym2612"
    },
    {
      "channel": 3,
      "note": 89,
      "start": 10.6316,
      "duration": 0.0798,
      "velocity": 83,
      "chip": "ym2612"
    },
    {
      "channel": 5,
      "note": 76,
      "start": 10.732,
      "duration": 1.4296,
      "velocity": 95,
      "chip": "ym2612"
    },
    {
      "channel": 0,
      "note": 76,
      "start": 10.7355,
      "duration": 1.409,
      "velocity": 93,
      "chip": "ym2612"
    },
    {
      "channel": 1,
      "note": 40,
      "start": 10.7383,
      "duration": 0.5232,
      "velocity": 99,
      "chip": "ym2612"
    },
    {
      "channel": 3,
      "note": 92,
      "start": 10.7409,
      "duration": 0.0707,
      "velocity": 83,
      "chip": "ym2612"
    },
    {
      "channel": 3,
      "note": 88,
      "start": 10.8316,
      "duration": 0.08,
      "velocity": 83,
      "chip": "ym2612"
    },
    {
      "channel": 3,
      "note": 92,
      "start": 10.9321,
      "duration": 0.0662,
      "velocity": 83,
      "chip": "ym2612"
    },
    {
      "channel": 3,
      "note": 88,
      "start": 11.015,
      "duration": 0.0799,
      "velocity": 83,
      "chip": "ym2612"
    },
    {
      "channel": 3,
      "note": 95,
      "start": 11.115,
      "duration": 0.0799,
      "velocity": 83,
      "chip": "ym2612"
    },
    {
      "channel": 3,
      "note": 88,
      "start": 11.215,
      "duration": 0.08,
      "velocity": 83,
      "chip": "ym2612"
    },
    {
      "channel": 1,
      "note": 44,
      "start": 11.3149,
      "duration": 0.7632,
      "velocity": 99,
      "chip": "ym2612"
    },
    {
      "channel": 3,
      "note": 92,
      "start": 11.3176,
      "duration": 0.0639,
      "velocity": 83,
      "chip": "ym2612"
    },
    {
      "channel": 3,
      "note": 88,
      "start": 11.3984,
      "duration": 0.0799,
      "velocity": 83,
      "chip": "ym2612"
    },
    {
      "channel": 3,
      "note": 95,
      "start": 11.4983,
      "duration": 0.0799,
      "velocity": 83,
      "chip": "ym2612"
    },
    {
      "channel": 3,
      "note": 88,
      "start": 11.5984,
      "duration": 0.0799,
      "velocity": 83,
      "chip": "ym2612"
    },
    {
      "channel": 3,
      "note": 96,
      "start": 11.6983,
      "duration": 0.0799,
      "velocity": 83,
      "chip": "ym2612"
    },
    {
      "channel": 3,
      "note": 88,
      "start": 11.7849,
      "duration": 0.0767,
      "velocity": 83,
      "chip": "ym2612"
    },
    {
      "channel": 3,
      "note": 95,
      "start": 11.8816,
      "duration": 0.08,
      "velocity": 83,
      "chip": "ym2612"
    },
    {
      "channel": 3,
      "note": 88,
      "start": 11.9817,
      "duration": 0.0798,
      "velocity": 83,
      "chip": "ym2612"
    },
    {
      "channel": 3,
      "note": 93,
      "start": 12.0818,
      "duration": 0.0796,
      "velocity": 83,
      "chip": "ym2612"
    },
    {
      "channel": 3,
      "note": 88,
      "start": 12.167,
      "duration": 0.0778,
      "velocity": 83,
      "chip": "ym2612"
    },
    {
      "channel": 5,
      "note": 69,
      "start": 12.265,
      "duration": 0.53,
      "velocity": 95,
      "chip": "ym2612"
    },
    {
      "channel": 0,
      "note": 69,
      "start": 12.2685,
      "duration": 0.5095,
      "velocity": 93,
      "chip": "ym2612"
    },
    {
      "channel": 1,
      "note": 45,
      "start": 12.2713,
      "duration": 0.2903,
      "velocity": 99,
      "chip": "ym2612"
    },
    {
      "channel": 3,
      "note": 93,
      "start": 12.2741,
      "duration": 0.0707,
      "velocity": 83,
      "chip": "ym2612"
    },
    {
      "channel": 4,
      "note": 88,
      "start": 12.2774,
      "duration": 0.0676,
      "velocity": 83,
      "chip": "ym2612"
    },
    {
      "channel": 3,
      "note": 93,
      "start": 12.4652,
      "duration": 0.0798,
      "velocity": 83,
      "chip": "ym2612"
    },
    {
      "channel": 3,
      "note": 88,
      "start": 12.5517,
      "duration": 0.0766,
      "velocity": 83,
      "chip": "ym2612"
    },
    {
      "channel": 1,
      "note": 43,
      "start": 12.648,
      "duration": 0.3026,
      "velocity": 99,
      "chip": "ym2612"
    },
    {
      "channel": 3,
      "note": 100,
      "start": 12.6507,
      "duration": 0.0776,
      "velocity": 83,
      "chip": "ym2612"
    },
    {
      "channel": 3,
      "note": 88,
      "start": 12.7483,
      "duration": 0.08,
      "velocity": 83,
      "chip": "ym2612"
    },
    {
      "channel": 5,
      "note": 64,
      "start": 12.8482,
      "duration": 0.4802,
      "velocity": 95,
      "chip": "ym2612"
    },
    {
      "channel": 0,
      "note": 64,
      "start": 12.8515,
      "duration": 0.46,
      "velocity": 93,
      "chip": "ym2612"
    },
    {
      "channel": 3,
      "note": 93,
      "start": 12.8544,
      "duration": 0.0739,
      "velocity": 83,
      "chip": "ym2612"
    },
    {
      "channel": 3,
      "note": 88,
      "start": 12.9484,
      "duration": 0.0632,
      "velocity": 83,
      "chip": "ym2612"
    },
    {
      "channel": 1,
      "note": 40,
      "start": 13.0313,
      "duration": 0.3029,
      "velocity": 99,
      "chip": "ym2612"
    },
    {
      "channel": 3,
      "note": 98,
      "start": 13.0341,
      "duration": 0.0776,
      "velocity": 83,
      "chip": "ym2612"
    },
    {
      "channel": 3,
      "note": 88,
      "start": 13.1317,
      "duration": 0.0799,
      "velocity": 83,
      "chip": "ym2612"
    },
    {
      "channel": 3,
      "note": 93,
      "start": 13.2316,
      "duration": 0.08,
      "velocity": 83,
      "chip": "ym2612"
    },
    {
      "channel": 3,
      "note": 88,
      "start": 13.3318,
      "duration": 0.063,
      "velocity": 83,
      "chip": "ym2612"
    },
    {
      "channel": 5,
      "note": 76,
      "start": 13.4151,
      "duration": 0.88,
      "velocity": 95,
      "chip": "ym2612"
    },
    {
      "channel": 0,
      "note": 76,
      "start": 13.4185,
      "duration": 0.8597,
      "velocity": 93,
      "chip": "ym2612"
    },
    {
      "channel": 1,
      "note": 45,
      "start": 13.421,
      "duration": 0.2969,
      "velocity": 99,
      "chip": "ym2612"
    },
    {
      "channel": 3,
      "note": 96,
      "start": 13.4236,
      "duration": 0.0713,
      "velocity": 83,
      "chip": "ym2612"
    },
    {
      "channel": 3,
      "note": 88,
      "start": 13.515,
      "duration": 0.08,
      "velocity": 83,
      "chip": "ym2612"
    },
    {
      "channel": 3,
      "note": 95,
      "start": 13.615,
      "duration": 0.08,
      "velocity": 83,
      "chip": "ym2612"
    },
    {
      "channel": 3,
      "note": 88,
      "start": 13.7155,
      "duration": 0.0627,
      "velocity": 83,
      "chip": "ym2612"
    },
    {
      "channel": 1,
      "note": 33,
      "start": 13.798,
      "duration": 0.3027,
      "velocity": 99,
      "chip": "ym2612"
    },
    {
      "channel": 3,
      "note": 93,
      "start": 13.8007,
      "duration": 0.0776,
      "velocity": 83,
      "chip": "ym2612"
    },
    {
      "channel": 3,
      "note": 88,
      "start": 13.8983,
      "duration": 0.0799,
      "velocity": 83,
      "chip": "ym2612"
    },
    {
      "channel": 3,
      "note": 93,
      "start": 13.9984,
      "duration": 0.0798,
      "velocity": 83,
      "chip": "ym2612"
    },
    {
      "channel": 3,
      "note": 88,
      "start": 14.0984,
      "duration": 0.0632,
      "velocity": 83,
      "chip": "ym2612"
    },
    {
      "channel": 1,
      "note": 35,
      "start": 14.1813,
      "duration": 0.3136,
      "velocity": 99,
      "chip": "ym2612"
    },
    {
      "channel": 3,
      "note": 100,
      "start": 14.1841,
      "duration": 0.0776,
      "velocity": 83,
      "chip": "ym2612"
    },
    {
      "channel": 3,
      "note": 88,
      "start": 14.2818,
      "duration": 0.0798,
      "velocity": 83,
      "chip": "ym2612"
    },
    {
      "channel": 5,
      "note": 72,
      "start": 14.3818,
      "duration": 0.4966,
      "velocity": 95,
      "chip": "ym2612"
    },
    {
      "channel": 0,
      "note": 72,
      "start": 14.3855,
      "duration": 0.476,
      "velocity": 93,
      "chip": "ym2612"
    },
    {
      "channel": 3,
      "note": 93,
      "start": 14.3884,
      "duration": 0.0732,
      "velocity": 83,
      "chip": "ym2612"
    },
    {
      "channel": 3,
      "note": 88,
      "start": 14.4816,
      "duration": 0.0633,
      "velocity": 83,
      "chip": "ym2612"
    },
    {
      "channel": 1,
      "note": 36,
      "start": 14.565,
      "duration": 0.3132,
      "velocity": 99,
      "chip": "ym2612"
    },
    {
      "channel": 3,
      "note": 98,
      "start": 14.5677,
      "duration": 0.0773,
      "velocity": 83,
      "chip": "ym2612"
    },
    {
      "channel": 3,
      "note": 88,
      "start": 14.6651,
      "duration": 0.0798,
      "velocity": 83,
      "chip": "ym2612"
    },
    {
      "channel": 3,
      "note": 93,
      "start": 14.765,
      "duration": 0.0799,
      "velocity": 83,
      "chip": "ym2612"
    },
    {
      "channel": 3,
      "note": 88,
      "start": 14.8652,
      "duration": 0.0631,
      "velocity": 83,
      "chip": "ym2612"
    },
    {
      "channel": 5,
      "note": 69,
      "start": 14.9484,
      "duration": 0.3467,
      "velocity": 95,
      "chip": "ym2612"
    },
    {
      "channel": 0,
      "note": 69,
      "start": 14.9518,
      "duration": 0.4096,
      "velocity": 93,
      "chip": "ym2612"
    },
    {
      "channel": 1,
      "note": 40,
      "start": 14.9543,
      "duration": 0.3073,
      "velocity": 99,
      "chip": "ym2612"
    },
    {
      "channel": 3,
      "note": 96,
      "start": 14.957,
      "duration": 0.0712,
      "velocity": 83,
      "chip": "ym2612"
    },
    {
      "channel": 3,
      "note": 88,
      "start": 15.0483,
      "duration": 0.08,
      "velocity": 83,
      "chip": "ym2612"
    },
    {
      "channel": 3,
      "note": 95,
      "start": 15.1484,
      "duration": 0.08,
      "velocity": 83,
      "chip": "ym2612"
    },
    {
      "channel": 3,
      "note": 88,
      "start": 15.2487,
      "duration": 0.0629,
      "velocity": 83,
      "chip": "ym2612"
    },
    {
      "channel": 5,
      "note": 77,
      "start": 15.3321,
      "duration": 0.4796,
      "velocity": 95,
      "chip": "ym2612"
    },
    {
      "channel": 2,
      "note": 77,
      "start": 15.3358,
      "duration": 0.4593,
      "velocity": 93,
      "chip": "ym2612"
    },
    {
      "channel": 1,
      "note": 38,
      "start": 15.3383,
      "duration": 0.3066,
      "velocity": 99,
      "chip": "ym2612"
    },
    {
      "channel": 3,
      "note": 93,
      "start": 15.3409,
      "duration": 0.0707,
      "velocity": 83,
      "chip": "ym2612"
    },
    {
      "channel": 3,
      "note": 89,
      "start": 15.4318,
      "duration": 0.0798,
      "velocity": 83,
      "chip": "ym2612"
    },
    {
      "channel": 3,
      "note": 93,
      "start": 15.5318,
      "duration": 0.0799,
      "velocity": 83,
      "chip": "ym2612"
    },
    {
      "channel": 3,
      "note": 89,
      "start": 15.6318,
      "duration": 0.0632,
      "velocity": 83,
      "chip": "ym2612"
    },
    {
      "channel": 1,
      "note": 50,
      "start": 15.7146,
      "duration": 0.3136,
      "velocity": 99,
      "chip": "ym2612"
    },
    {
      "channel": 3,
      "note": 100,
      "start": 15.7174,
      "duration": 0.0775,
      "velocity": 83,
      "chip": "ym2612"
    },
    {
      "channel": 3,
      "note": 89,
      "start": 15.8151,
      "duration": 0.0798,
      "velocity": 83,
      "chip": "ym2612"
    },
    {
      "channel": 5,
      "note": 76,
      "start": 15.9147,
      "duration": 0.4803,
      "velocity": 95,
      "chip": "ym2612"
    },
    {
      "channel": 0,
      "note": 76,
      "start": 15.9179,
      "duration": 0.4603,
      "velocity": 93,
      "chip": "ym2612"
    },
    {
      "channel": 3,
      "note": 93,
      "start": 15.9207,
      "duration": 0.0742,
      "velocity": 83,
      "chip": "ym2612"
    },
    {
      "channel": 3,
      "note": 89,
      "start": 16.015,
      "duration": 0.0632,
      "velocity": 83,
      "chip": "ym2612"
    },
    {
      "channel": 1,
      "note": 38,
      "start": 16.0979,
      "duration": 0.3136,
      "velocity": 99,
      "chip": "ym2612"
    },
    {
      "channel": 3,
      "note": 98,
      "start": 16.1007,
      "duration": 0.0776,
      "velocity": 83,
      "chip": "ym2612"
    },
    {
      "channel": 3,
      "note": 89,
      "start": 16.1983,
      "duration": 0.0799,
      "velocity": 83,
      "chip": "ym2612"
    },
    {
      "channel": 3,
      "note": 93,
      "start": 16.2984,
      "duration": 0.08,
      "velocity": 83,
      "chip": "ym2612"
    },
    {
      "channel": 3,
      "note": 89,
      "start": 16.3985,
      "duration": 0.0631,
      "velocity": 83,
      "chip": "ym2612"
    },
    {
      "channel": 5,
      "note": 72,
      "start": 16.4817,
      "duration": 0.3467,
      "velocity": 95,
      "chip": "ym2612"
    },
    {
      "channel": 0,
      "note": 72,
      "start": 16.4851,
      "duration": 0.3431,
      "velocity": 93,
      "chip": "ym2612"
    },
    {
      "channel": 1,
      "note": 39,
      "start": 16.4876,
      "duration": 0.3073,
      "velocity": 99,
      "chip": "ym2612"
    },
    {
      "channel": 3,
      "note": 96,
      "start": 16.4902,
      "duration": 0.0713,
      "velocity": 83,
      "chip": "ym2612"
    },
    {
      "channel": 3,
      "note": 89,
      "start": 16.5818,
      "duration": 0.0798,
      "velocity": 83,
      "chip": "ym2612"
    },
    {
      "channel": 3,
      "note": 95,
      "start": 16.6817,
      "duration": 0.0799,
      "velocity": 83,
      "chip": "ym2612"
    },
    {
      "channel": 3,
      "note": 89,
      "start": 16.782,
      "duration": 0.0629,
      "velocity": 83,
      "chip": "ym2612"
    },
    {
      "channel": 5,
      "note": 68,
      "start": 16.865,
      "duration": 0.58,
      "velocity": 95,
      "chip": "ym2612"
    },
    {
      "channel": 0,
      "note": 68,
      "start": 16.8685,
      "duration": 0.5597,
      "velocity": 93,
      "chip": "ym2612"
    },
    {
      "channel": 1,
      "note": 40,
      "start": 16.8709,
      "duration": 0.3073,
      "velocity": 99,
      "chip": "ym2612"
    },
    {
      "channel": 3,
      "note": 92,
      "start": 16.8736,
      "duration": 0.0713,
      "velocity": 83,
      "chip": "ym2612"
    },
    {
      "channel": 3,
      "note": 88,
      "start": 16.965,
      "duration": 0.0799,
      "velocity": 83,
      "chip": "ym2612"
    },
    {
      "channel": 3,
      "note": 92,
      "start": 17.065,
      "duration": 0.0799,
      "velocity": 83,
      "chip": "ym2612"
    },
    {
      "channel": 3,
      "note": 88,
      "start": 17.165,
      "duration": 0.0632,
      "velocity": 83,
      "chip": "ym2612"
    },
    {
      "channel": 1,
      "note": 38,
      "start": 17.248,
      "duration": 0.3136,
      "velocity": 99,
      "chip": "ym2612"
    },
    {
      "channel": 3,
      "note": 95,
      "start": 17.2507,
      "duration": 0.0776,
      "velocity": 83,
      "chip": "ym2612"
    },
    {
      "channel": 3,
      "note": 88,
      "start": 17.3483,
      "duration": 0.08,
      "velocity": 83,
      "chip": "ym2612"
    },
    {
      "channel": 5,
      "note": 69,
      "start": 17.4484,
      "duration": 0.5134,
      "velocity": 95,
      "chip": "ym2612"
    },
    {
      "channel": 0,
      "note": 69,
      "start": 17.4516,
      "duration": 0.4932,
      "velocity": 93,
      "chip": "ym2612"
    },
    {
      "channel": 3,
      "note": 92,
      "start": 17.4545,
      "duration": 0.0738,
      "velocity": 83,
      "chip": "ym2612"
    },
    {
      "channel": 3,
      "note": 88,
      "start": 17.5484,
      "duration": 0.0632,
      "velocity": 83,
      "chip": "ym2612"
    },
    {
      "channel": 1,
      "note": 36,
      "start": 17.6314,
      "duration": 0.3136,
      "velocity": 99,
      "chip": "ym2612"
    },
    {
      "channel": 3,
      "note": 98,
      "start": 17.6341,
      "duration": 0.0776,
      "velocity": 83,
      "chip": "ym2612"
    },
    {
      "channel": 3,
      "note": 88,
      "start": 17.7317,
      "duration": 0.0799,
      "velocity": 83,
      "chip": "ym2612"
    },
    {
      "channel": 3,
      "note": 92,
      "start": 17.8317,
      "duration": 0.0798,
      "velocity": 83,
      "chip": "ym2612"
    },
    {
      "channel": 3,
      "note": 88,
      "start": 17.9318,
      "duration": 0.0631,
      "velocity": 83,
      "chip": "ym2612"
    },
    {
      "channel": 5,
      "note": 71,
      "start": 18.015,
      "duration": 0.3135,
      "velocity": 95,
      "chip": "ym2612"
    },
    {
      "channel": 0,
      "note": 71,
      "start": 18.0188,
      "duration": 0.3093,
      "velocity": 93,
      "chip": "ym2612"
    },
    {
      "channel": 1,
      "note": 35,
      "start": 18.0213,
      "duration": 0.3069,
      "velocity": 99,
      "chip": "ym2612"
    },
    {
      "channel": 3,
      "note": 96,
      "start": 18.0239,
      "duration": 0.071,
      "velocity": 83,
      "chip": "ym2612"
    },
    {
      "channel": 3,
      "note": 88,
      "start": 18.115,
      "duration": 0.0798,
      "velocity": 83,
      "chip": "ym2612"
    },
    {
      "channel": 3,
      "note": 95,
      "start": 18.215,
      "duration": 0.08,
      "velocity": 83,
      "chip": "ym2612"
    },
    {
      "channel": 3,
      "note": 88,
      "start": 18.3154,
      "duration": 0.0629,
      "velocity": 83,
      "chip": "ym2612"
    },
    {
      "channel": 5,
      "note": 69,
      "start": 18.3988,
      "duration": 0.4962,
      "velocity": 95,
      "chip": "ym2612"
    },
    {
      "channel": 0,
      "note": 69,
      "start": 18.4022,
      "duration": 0.476,
      "velocity": 93,
      "chip": "ym2612"
    },
    {
      "channel": 1,
      "note": 33,
      "start": 18.4046,
      "duration": 0.3069,
      "velocity": 99,
      "chip": "ym2612"
    },
    {
      "channel": 3,
      "note": 93,
      "start": 18.4073,
      "duration": 0.0709,
      "velocity": 83,
      "chip": "ym2612"
    },
    {
      "channel": 3,
      "note": 88,
      "start": 18.4983,
      "duration": 0.08,
      "velocity": 83,
      "chip": "ym2612"
    },
    {
      "channel": 3,
      "note": 93,
      "start": 18.5984,
      "duration": 0.0799,
      "velocity": 83,
      "chip": "ym2612"
    },
    {
      "channel": 3,
      "note": 88,
      "start": 18.6983,
      "duration": 0.067,
      "velocity": 83,
      "chip": "ym2612"
    },
    {
      "channel": 1,
      "note": 45,
      "start": 18.7813,
      "duration": 0.3136,
      "velocity": 99,
      "chip": "ym2612"
    },
    {
      "channel": 3,
      "note": 100,
      "start": 18.7841,
      "duration": 0.0775,
      "velocity": 83,
      "chip": "ym2612"
    },
    {
      "channel": 3,
      "note": 88,
      "start": 18.8818,
      "duration": 0.0798,
      "velocity": 83,
      "chip": "ym2612"
    },
    {
      "channel": 5,
      "note": 64,
      "start": 18.9815,
      "duration": 0.4801,
      "velocity": 95,
      "chip": "ym2612"
    },
    {
      "channel": 0,
      "note": 64,
      "start": 18.9848,
      "duration": 0.4599,
      "velocity": 93,
      "chip": "ym2612"
    },
    {
      "channel": 3,
      "note": 93,
      "start": 18.9876,
      "duration": 0.074,
      "velocity": 83,
      "chip": "ym2612"
    },
    {
      "channel": 3,
      "note": 88,
      "start": 19.0817,
      "duration": 0.0666,
      "velocity": 83,
      "chip": "ym2612"
    },
    {
      "channel": 1,
      "note": 33,
      "start": 19.1647,
      "duration": 0.3135,
      "velocity": 99,
      "chip": "ym2612"
    },
    {
      "channel": 3,
      "note": 98,
      "start": 19.1674,
      "duration": 0.0776,
      "velocity": 83,
      "chip": "ym2612"
    },
    {
      "channel": 3,
      "note": 88,
      "start": 19.265,
      "duration": 0.0799,
      "velocity": 83,
      "chip": "ym2612"
    },
    {
      "channel": 3,
      "note": 93,
      "start": 19.365,
      "duration": 0.08,
      "velocity": 83,
      "chip": "ym2612"
    },
    {
      "channel": 3,
      "note": 88,
      "start": 19.4651,
      "duration": 0.0668,
      "velocity": 83,
      "chip": "ym2612"
    },
    {
      "channel": 5,
      "note": 76,
      "start": 19.5484,
      "duration": 0.9132,
      "velocity": 95,
      "chip": "ym2612"
    },
    {
      "channel": 0,
      "note": 76,
      "start": 19.5518,
      "duration": 0.8931,
      "velocity": 93,
      "chip": "ym2612"
    },
    {
      "channel": 1,
      "note": 36,
      "start": 19.5543,
      "duration": 0.3072,
      "velocity": 99,
      "chip": "ym2612"
    },
    {
      "channel": 3,
      "note": 96,
      "start": 19.557,
      "duration": 0.0713,
      "velocity": 83,
      "chip": "ym2612"
    },
    {
      "channel": 3,
      "note": 88,
      "start": 19.6484,
      "duration": 0.0798,
      "velocity": 83,
      "chip": "ym2612"
    },
    {
      "channel": 3,
      "note": 95,
      "start": 19.7483,
      "duration": 0.08,
      "velocity": 83,
      "chip": "ym2612"
    },
    {
      "channel": 3,
      "note": 88,
      "start": 19.8488,
      "duration": 0.0665,
      "velocity": 83,
      "chip": "ym2612"
    },
    {
      "channel": 1,
      "note": 40,
      "start": 19.9313,
      "duration": 0.3136,
      "velocity": 99,
      "chip": "ym2612"
    },
    {
      "channel": 3,
      "note": 93,
      "start": 19.9341,
      "duration": 0.0775,
      "velocity": 83,
      "chip": "ym2612"
    },
    {
      "channel": 3,
      "note": 88,
      "start": 20.0317,
      "duration": 0.0799,
      "velocity": 83,
      "chip": "ym2612"
    },
    {
      "channel": 3,
      "note": 93,
      "start": 20.1317,
      "duration": 0.0799,
      "velocity": 83,
      "chip": "ym2612"
    },
    {
      "channel": 3,
      "note": 88,
      "start": 20.2317,
      "duration": 0.0799,
      "velocity": 83,
      "chip": "ym2612"
    },
    {
      "channel": 1,
      "note": 33,
      "start": 20.3183,
      "duration": 0.3099,
      "velocity": 99,
      "chip": "ym2612"
    },
    {
      "channel": 3,
      "note": 100,
      "start": 20.321,
      "duration": 0.0739,
      "velocity": 83,
      "chip": "ym2612"
    },
    {
      "channel": 3,
      "note": 88,
      "start": 20.415,
      "duration": 0.0799,
      "velocity": 83,
      "chip": "ym2612"
    },
    {
      "channel": 5,
      "note": 72,
      "start": 20.515,
      "duration": 0.4968,
      "velocity": 95,
      "chip": "ym2612"
    },
    {
      "channel": 0,
      "note": 72,
      "start": 20.5185,
      "duration": 0.493,
      "velocity": 93,
      "chip": "ym2612"
    },
    {
      "channel": 3,
      "note": 93,
      "start": 20.5213,
      "duration": 0.0737,
      "velocity": 83,
      "chip": "ym2612"
    },
    {
      "channel": 3,
      "note": 88,
      "start": 20.615,
      "duration": 0.0799,
      "velocity": 83,
      "chip": "ym2612"
    },
    {
      "channel": 1,
      "note": 39,
      "start": 20.7019,
      "duration": 0.3098,
      "velocity": 99,
      "chip": "ym2612"
    },
    {
      "channel": 3,
      "note": 98,
      "start": 20.7046,
      "duration": 0.0737,
      "velocity": 83,
      "chip": "ym2612"
    },
    {
      "channel": 3,
      "note": 88,
      "start": 20.7984,
      "duration": 0.0799,
      "velocity": 83,
      "chip": "ym2612"
    },
    {
      "channel": 3,
      "note": 93,
      "start": 20.8984,
      "duration": 0.0798,
      "velocity": 83,
      "chip": "ym2612"
    },
    {
      "channel": 3,
      "note": 88,
      "start": 20.9984,
      "duration": 0.0799,
      "velocity": 83,
      "chip": "ym2612"
    },
    {
      "channel": 5,
      "note": 69,
      "start": 21.0855,
      "duration": 0.3263,
      "velocity": 95,
      "chip": "ym2612"
    },
    {
      "channel": 0,
      "note": 69,
      "start": 21.0893,
      "duration": 0.3222,
      "velocity": 93,
      "chip": "ym2612"
    },
    {
      "channel": 1,
      "note": 40,
      "start": 21.0917,
      "duration": 0.3032,
      "velocity": 99,
      "chip": "ym2612"
    },
    {
      "channel": 3,
      "note": 96,
      "start": 21.0945,
      "duration": 0.0671,
      "velocity": 83,
      "chip": "ym2612"
    },
    {
      "channel": 3,
      "note": 88,
      "start": 21.1816,
      "duration": 0.08,
      "velocity": 83,
      "chip": "ym2612"
    },
    {
      "channel": 3,
      "note": 95,
      "start": 21.2817,
      "duration": 0.0799,
      "velocity": 83,
      "chip": "ym2612"
    },
    {
      "channel": 3,
      "note": 88,
      "start": 21.382,
      "duration": 0.0796,
      "velocity": 83,
      "chip": "ym2612"
    },
    {
      "channel": 5,
      "note": 77,
      "start": 21.4817,
      "duration": 0.5134,
      "velocity": 95,
      "chip": "ym2612"
    },
    {
      "channel": 0,
      "note": 77,
      "start": 21.4851,
      "duration": 0.5098,
      "velocity": 93,
      "chip": "ym2612"
    },
    {
      "channel": 1,
      "note": 38,
      "start": 21.4876,
      "duration": 0.2906,
      "velocity": 99,
      "chip": "ym2612"
    },
    {
      "channel": 3,
      "note": 93,
      "start": 21.4902,
      "duration": 0.0547,
      "velocity": 83,
      "chip": "ym2612"
    },
    {
      "channel": 3,
      "note": 89,
      "start": 21.565,
      "duration": 0.0799,
      "velocity": 83,
      "chip": "ym2612"
    },
    {
      "channel": 3,
      "note": 93,
      "start": 21.665,
      "duration": 0.0799,
      "velocity": 83,
      "chip": "ym2612"
    },
    {
      "channel": 3,
      "note": 89,
      "start": 21.765,
      "duration": 0.0799,
      "velocity": 83,
      "chip": "ym2612"
    },
    {
      "channel": 1,
      "note": 40,
      "start": 21.8647,
      "duration": 0.2968,
      "velocity": 99,
      "chip": "ym2612"
    },
    {
      "channel": 3,
      "note": 100,
      "start": 21.8674,
      "duration": 0.0608,
      "velocity": 83,
      "chip": "ym2612"
    },
    {
      "channel": 3,
      "note": 89,
      "start": 21.9484,
      "duration": 0.0798,
      "velocity": 83,
      "chip": "ym2612"
    },
    {
      "channel": 5,
      "note": 79,
      "start": 22.0486,
      "duration": 0.4797,
      "velocity": 95,
      "chip": "ym2612"
    },
    {
      "channel": 0,
      "note": 79,
      "start": 22.0519,
      "duration": 0.4596,
      "velocity": 93,
      "chip": "ym2612"
    },
    {
      "channel": 3,
      "note": 93,
      "start": 22.0547,
      "duration": 0.0735,
      "velocity": 83,
      "chip": "ym2612"
    },
    {
      "channel": 3,
      "note": 89,
      "start": 22.1483,
      "duration": 0.08,
      "velocity": 83,
      "chip": "ym2612"
    },
    {
      "channel": 1,
      "note": 41,
      "start": 22.248,
      "duration": 0.297,
      "velocity": 99,
      "chip": "ym2612"
    },
    {
      "channel": 3,
      "note": 98,
      "start": 22.2507,
      "duration": 0.0609,
      "velocity": 83,
      "chip": "ym2612"
    },
    {
      "channel": 3,
      "note": 89,
      "start": 22.3316,
      "duration": 0.0799,
      "velocity": 83,
      "chip": "ym2612"
    },
    {
      "channel": 3,
      "note": 93,
      "start": 22.4317,
      "duration": 0.0799,
      "velocity": 83,
      "chip": "ym2612"
    },
    {
      "channel": 3,
      "note": 89,
      "start": 22.5318,
      "duration": 0.0798,
      "velocity": 83,
      "chip": "ym2612"
    },
    {
      "channel": 5,
      "note": 77,
      "start": 22.6317,
      "duration": 0.3134,
      "velocity": 95,
      "chip": "ym2612"
    },
    {
      "channel": 0,
      "note": 77,
      "start": 22.6351,
      "duration": 0.2931,
      "velocity": 93,
      "chip": "ym2612"
    },
    {
      "channel": 1,
      "note": 45,
      "start": 22.6376,
      "duration": 0.2908,
      "velocity": 99,
      "chip": "ym2612"
    },
    {
      "channel": 3,
      "note": 96,
      "start": 22.6402,
      "duration": 0.0547,
      "velocity": 83,
      "chip": "ym2612"
    },
    {
      "channel": 3,
      "note": 89,
      "start": 22.715,
      "duration": 0.0799,
      "velocity": 83,
      "chip": "ym2612"
    },
    {
      "channel": 3,
      "note": 95,
      "start": 22.8151,
      "duration": 0.0798,
      "velocity": 83,
      "chip": "ym2612"
    },
    {
      "channel": 3,
      "note": 89,
      "start": 22.9154,
      "duration": 0.0795,
      "velocity": 83,
      "chip": "ym2612"
    },
    {
      "channel": 5,
      "note": 76,
      "start": 23.015,
      "duration": 0.5134,
      "velocity": 95,
      "chip": "ym2612"
    },
    {
      "channel": 0,
      "note": 76,
      "start": 23.0185,
      "duration": 0.4929,
      "velocity": 93,
      "chip": "ym2612"
    },
    {
      "channel": 1,
      "note": 40,
      "start": 23.021,
      "duration": 0.2906,
      "velocity": 99,
      "chip": "ym2612"
    },
    {
      "channel": 3,
      "note": 92,
      "start": 23.0236,
      "duration": 0.0546,
      "velocity": 83,
      "chip": "ym2612"
    },
    {
      "channel": 3,
      "note": 88,
      "start": 23.0984,
      "duration": 0.0799,
      "velocity": 83,
      "chip": "ym2612"
    },
    {
      "channel": 3,
      "note": 92,
      "start": 23.1984,
      "duration": 0.08,
      "velocity": 83,
      "chip": "ym2612"
    },
    {
      "channel": 3,
      "note": 88,
      "start": 23.2984,
      "duration": 0.0798,
      "velocity": 83,
      "chip": "ym2612"
    },
    {
      "channel": 1,
      "note": 43,
      "start": 23.398,
      "duration": 0.2968,
      "velocity": 99,
      "chip": "ym2612"
    },
    {
      "channel": 3,
      "note": 95,
      "start": 23.4007,
      "duration": 0.0609,
      "velocity": 83,
      "chip": "ym2612"
    },
    {
      "channel": 3,
      "note": 88,
      "start": 23.4816,
      "duration": 0.0799,
      "velocity": 83,
      "chip": "ym2612"
    },
    {
      "channel": 5,
      "note": 74,
      "start": 23.5816,
      "duration": 0.5468,
      "velocity": 95,
      "chip": "ym2612"
    },
    {
      "channel": 0,
      "note": 74,
      "start": 23.5849,
      "duration": 0.5433,
      "velocity": 93,
      "chip": "ym2612"
    },
    {
      "channel": 3,
      "note": 92,
      "start": 23.5878,
      "duration": 0.0739,
      "velocity": 83,
      "chip": "ym2612"
    },
    {
      "channel": 3,
      "note": 88,
      "start": 23.6818,
      "duration": 0.0798,
      "velocity": 83,
      "chip": "ym2612"
    },
    {
      "channel": 1,
      "note": 47,
      "start": 23.7814,
      "duration": 0.2968,
      "velocity": 99,
      "chip": "ym2612"
    },
    {
      "channel": 3,
      "note": 95,
      "start": 23.7841,
      "duration": 0.061,
      "velocity": 83,
      "chip": "ym2612"
    },
    {
      "channel": 3,
      "note": 88,
      "start": 23.865,
      "duration": 0.0799,
      "velocity": 83,
      "chip": "ym2612"
    },
    {
      "channel": 3,
      "note": 96,
      "start": 23.965,
      "duration": 0.0798,
      "velocity": 83,
      "chip": "ym2612"
    },
    {
      "channel": 3,
      "note": 88,
      "start": 24.0651,
      "duration": 0.0798,
      "velocity": 83,
      "chip": "ym2612"
    },
    {
      "channel": 5,
      "note": 72,
      "start": 24.1651,
      "duration": 0.3133,
      "velocity": 95,
      "chip": "ym2612"
    },
    {
      "channel": 0,
      "note": 72,
      "start": 24.1689,
      "duration": 0.3092,
      "velocity": 93,
      "chip": "ym2612"
    },
    {
      "channel": 1,
      "note": 43,
      "start": 24.1713,
      "duration": 0.2902,
      "velocity": 99,
      "chip": "ym2612"
    },
    {
      "channel": 3,
      "note": 95,
      "start": 24.1741,
      "duration": 0.0542,
      "velocity": 83,
      "chip": "ym2612"
    },
    {
      "channel": 3,
      "note": 88,
      "start": 24.2484,
      "duration": 0.0799,
      "velocity": 83,
      "chip": "ym2612"
    },
    {
      "channel": 3,
      "note": 93,
      "start": 24.3484,
      "duration": 0.0799,
      "velocity": 83,
      "chip": "ym2612"
    },
    {
      "channel": 3,
      "note": 88,
      "start": 24.4487,
      "duration": 0.0795,
      "velocity": 83,
      "chip": "ym2612"
    },
    {
      "channel": 5,
      "note": 69,
      "start": 24.5484,
      "duration": 0.5132,
      "velocity": 95,
      "chip": "ym2612"
    },
    {
      "channel": 0,
      "note": 69,
      "start": 24.5518,
      "duration": 0.493,
      "velocity": 93,
      "chip": "ym2612"
    },
    {
      "channel": 1,
      "note": 41,
      "start": 24.5543,
      "duration": 0.2906,
      "velocity": 99,
      "chip": "ym2612"
    },
    {
      "channel": 3,
      "note": 93,
      "start": 24.557,
      "duration": 0.0546,
      "velocity": 83,
      "chip": "ym2612"
    },
    {
      "channel": 3,
      "note": 84,
      "start": 24.6316,
      "duration": 0.0799,
      "velocity": 83,
      "chip": "ym2612"
    },
    {
      "channel": 3,
      "note": 89,
      "start": 24.7318,
      "duration": 0.0799,
      "velocity": 83,
      "chip": "ym2612"
    },
    {
      "channel": 3,
      "note": 84,
      "start": 24.8317,
      "duration": 0.0798,
      "velocity": 83,
      "chip": "ym2612"
    },
    {
      "channel": 1,
      "note": 41,
      "start": 24.9312,
      "duration": 0.297,
      "velocity": 99,
      "chip": "ym2612"
    },
    {
      "channel": 3,
      "note": 93,
      "start": 24.9339,
      "duration": 0.061,
      "velocity": 83,
      "chip": "ym2612"
    },
    {
      "channel": 3,
      "note": 84,
      "start": 25.015,
      "duration": 0.0799,
      "velocity": 83,
      "chip": "ym2612"
    },
    {
      "channel": 5,
      "note": 65,
      "start": 25.1153,
      "duration": 0.5632,
      "velocity": 95,
      "chip": "ym2612"
    },
    {
      "channel": 0,
      "note": 65,
      "start": 25.1185,
      "duration": 0.5429,
      "velocity": 93,
      "chip": "ym2612"
    },
    {
      "channel": 3,
      "note": 96,
      "start": 25.1214,
      "duration": 0.0735,
      "velocity": 83,
      "chip": "ym2612"
    },
    {
      "channel": 3,
      "note": 84,
      "start": 25.215,
      "duration": 0.0799,
      "velocity": 83,
      "chip": "ym2612"
    },
    {
      "channel": 1,
      "note": 41,
      "start": 25.3146,
      "duration": 0.2969,
      "velocity": 99,
      "chip": "ym2612"
    },
    {
      "channel": 3,
      "note": 93,
      "start": 25.3174,
      "duration": 0.0609,
      "velocity": 83,
      "chip": "ym2612"
    },
    {
      "channel": 3,
      "note": 84,
      "start": 25.3983,
      "duration": 0.0799,
      "velocity": 83,
      "chip": "ym2612"
    },
    {
      "channel": 3,
      "note": 89,
      "start": 25.4984,
      "duration": 0.0798,
      "velocity": 83,
      "chip": "ym2612"
    },
    {
      "channel": 3,
      "note": 84,
      "start": 25.5984,
      "duration": 0.0798,
      "velocity": 83,
      "chip": "ym2612"
    },
    {
      "channel": 5,
      "note": 74,
      "start": 25.6984,
      "duration": 0.28,
      "velocity": 95,
      "chip": "ym2612"
    },
    {
      "channel": 0,
      "note": 74,
      "start": 25.7019,
      "duration": 0.2596,
      "velocity": 93,
      "chip": "ym2612"
    },
    {
      "channel": 1,
      "note": 41,
      "start": 25.7043,
      "duration": 0.2906,
      "velocity": 99,
      "chip": "ym2612"
    },
    {
      "channel": 3,
      "note": 93,
      "start": 25.707,
      "duration": 0.0545,
      "velocity": 83,
      "chip": "ym2612"
    },
    {
      "channel": 3,
      "note": 84,
      "start": 25.7816,
      "duration": 0.0799,
      "velocity": 83,
      "chip": "ym2612"
    },
    {
      "channel": 3,
      "note": 96,
      "start": 25.8817,
      "duration": 0.08,
      "velocity": 83,
      "chip": "ym2612"
    },
    {
      "channel": 3,
      "note": 84,
      "start": 25.9822,
      "duration": 0.0795,
      "velocity": 83,
      "chip": "ym2612"
    },
    {
      "channel": 5,
      "note": 71,
      "start": 26.0816,
      "duration": 0.5468,
      "velocity": 95,
      "chip": "ym2612"
    },
    {
      "channel": 0,
      "note": 71,
      "start": 26.0851,
      "duration": 0.5265,
      "velocity": 93,
      "chip": "ym2612"
    },
    {
      "channel": 1,
      "note": 41,
      "start": 26.0876,
      "duration": 0.2907,
      "velocity": 99,
      "chip": "ym2612"
    },
    {
      "channel": 3,
      "note": 98,
      "start": 26.0902,
      "duration": 0.0546,
      "velocity": 83,
      "chip": "ym2612"
    },
    {
      "channel": 3,
      "note": 84,
      "start": 26.165,
      "duration": 0.0799,
      "velocity": 83,
      "chip": "ym2612"
    },
    {
      "channel": 3,
      "note": 95,
      "start": 26.265,
      "duration": 0.08,
      "velocity": 83,
      "chip": "ym2612"
    },
    {
      "channel": 3,
      "note": 84,
      "start": 26.365,
      "duration": 0.0798,
      "velocity": 83,
      "chip": "ym2612"
    },
    {
      "channel": 1,
      "note": 41,
      "start": 26.4647,
      "duration": 0.2968,
      "velocity": 99,
      "chip": "ym2612"
    },
    {
      "channel": 3,
      "note": 91,
      "start": 26.4674,
      "duration": 0.0608,
      "velocity": 83,
      "chip": "ym2612"
    },
    {
      "channel": 3,
      "note": 84,
      "start": 26.5484,
      "duration": 0.0798,
      "velocity": 83,
      "chip": "ym2612"
    },
    {
      "channel": 5,
      "note": 67,
      "start": 26.648,
      "duration": 0.5637,
      "velocity": 95,
      "chip": "ym2612"
    },
    {
      "channel": 0,
      "note": 67,
      "start": 26.6514,
      "duration": 0.5601,
      "velocity": 93,
      "chip": "ym2612"
    },
    {
      "channel": 3,
      "note": 98,
      "start": 26.6541,
      "duration": 0.0742,
      "velocity": 83,
      "chip": "ym2612"
    },
    {
      "channel": 3,
      "note": 84,
      "start": 26.7484,
      "duration": 0.0798,
      "velocity": 83,
      "chip": "ym2612"
    },
    {
      "channel": 1,
      "note": 41,
      "start": 26.8483,
      "duration": 0.2966,
      "velocity": 99,
      "chip": "ym2612"
    },
    {
      "channel": 3,
      "note": 95,
      "start": 26.851,
      "duration": 0.0606,
      "velocity": 83,
      "chip": "ym2612"
    },
    {
      "channel": 3,
      "note": 84,
      "start": 26.9316,
      "duration": 0.08,
      "velocity": 83,
      "chip": "ym2612"
    },
    {
      "channel": 3,
      "note": 91,
      "start": 27.0317,
      "duration": 0.0798,
      "velocity": 83,
      "chip": "ym2612"
    },
    {
      "channel": 3,
      "note": 84,
      "start": 27.1318,
      "duration": 0.0798,
      "velocity": 83,
      "chip": "ym2612"
    },
    {
      "channel": 5,
      "note": 76,
      "start": 27.2318,
      "duration": 0.3299,
      "velocity": 95,
      "chip": "ym2612"
    },
    {
      "channel": 0,
      "note": 76,
      "start": 27.2356,
      "duration": 0.3092,
      "velocity": 93,
      "chip": "ym2612"
    },
    {
      "channel": 1,
      "note": 41,
      "start": 27.2381,
      "duration": 0.2901,
      "velocity": 99,
      "chip": "ym2612"
    },
    {
      "channel": 3,
      "note": 98,
      "start": 27.2407,
      "duration": 0.0576,
      "velocity": 83,
      "chip": "ym2612"
    },
    {
      "channel": 3,
      "note": 84,
      "start": 27.3151,
      "duration": 0.0798,
      "velocity": 83,
      "chip": "ym2612"
    },
    {
      "channel": 3,
      "note": 91,
      "start": 27.415,
      "duration": 0.0799,
      "velocity": 83,
      "chip": "ym2612"
    },
    {
      "channel": 3,
      "note": 84,
      "start": 27.5154,
      "duration": 0.0795,
      "velocity": 83,
      "chip": "ym2612"
    },
    {
      "channel": 5,
      "note": 74,
      "start": 27.6151,
      "duration": 0.5132,
      "velocity": 95,
      "chip": "ym2612"
    },
    {
      "channel": 0,
      "note": 74,
      "start": 27.6185,
      "duration": 0.493,
      "velocity": 93,
      "chip": "ym2612"
    },
    {
      "channel": 1,
      "note": 40,
      "start": 27.621,
      "duration": 0.2905,
      "velocity": 99,
      "chip": "ym2612"
    },
    {
      "channel": 3,
      "note": 91,
      "start": 27.6236,
      "duration": 0.058,
      "velocity": 83,
      "chip": "ym2612"
    },
    {
      "channel": 3,
      "note": 83,
      "start": 27.6984,
      "duration": 0.0798,
      "velocity": 83,
      "chip": "ym2612"
    },
    {
      "channel": 3,
      "note": 88,
      "start": 27.7984,
      "duration": 0.0799,
      "velocity": 83,
      "chip": "ym2612"
    },
    {
      "channel": 3,
      "note": 83,
      "start": 27.8983,
      "duration": 0.08,
      "velocity": 83,
      "chip": "ym2612"
    },
    {
      "channel": 1,
      "note": 40,
      "start": 27.998,
      "duration": 0.2969,
      "velocity": 99,
      "chip": "ym2612"
    },
    {
      "channel": 3,
      "note": 91,
      "start": 28.0007,
      "duration": 0.0645,
      "velocity": 83,
      "chip": "ym2612"
    },
    {
      "channel": 3,
      "note": 83,
      "start": 28.0817,
      "duration": 0.0799,
      "velocity": 83,
      "chip": "ym2612"
    },
    {
      "channel": 5,
      "note": 72,
      "start": 28.1816,
      "duration": 0.497,
      "velocity": 95,
      "chip": "ym2612"
    },
    {
      "channel": 0,
      "note": 72,
      "start": 28.1848,
      "duration": 0.4933,
      "velocity": 93,
      "chip": "ym2612"
    },
    {
      "channel": 3,
      "note": 95,
      "start": 28.1877,
      "duration": 0.0739,
      "velocity": 83,
      "chip": "ym2612"
    },
    {
      "channel": 3,
      "note": 83,
      "start": 28.2817,
      "duration": 0.0799,
      "velocity": 83,
      "chip": "ym2612"
    },
    {
      "channel": 1,
      "note": 40,
      "start": 28.3813,
      "duration": 0.297,
      "velocity": 99,
      "chip": "ym2612"
    },
    {
      "channel": 3,
      "note": 91,
      "start": 28.3841,
      "duration": 0.0646,
      "velocity": 83,
      "chip": "ym2612"
    },
    {
      "channel": 3,
      "note": 83,
      "start": 28.4651,
      "duration": 0.0798,
      "velocity": 83,
      "chip": "ym2612"
    },
    {
      "channel": 3,
      "note": 88,
      "start": 28.565,
      "duration": 0.0798,
      "velocity": 83,
      "chip": "ym2612"
    },
    {
      "channel": 3,
      "note": 83,
      "start": 28.665,
      "duration": 0.0799,
      "velocity": 83,
      "chip": "ym2612"
    },
    {
      "channel": 5,
      "note": 76,
      "start": 28.7654,
      "duration": 0.3463,
      "velocity": 95,
      "chip": "ym2612"
    },
    {
      "channel": 0,
      "note": 76,
      "start": 28.7688,
      "duration": 0.326,
      "velocity": 93,
      "chip": "ym2612"
    },
    {
      "channel": 1,
      "note": 43,
      "start": 28.7713,
      "duration": 0.2903,
      "velocity": 99,
      "chip": "ym2612"
    },
    {
      "channel": 3,
      "note": 95,
      "start": 28.7739,
      "duration": 0.071,
      "velocity": 83,
      "chip": "ym2612"
    },
    {
      "channel": 3,
      "note": 83,
      "start": 28.8519,
      "duration": 0.0764,
      "velocity": 83,
      "chip": "ym2612"
    },
    {
      "channel": 3,
      "note": 91,
      "start": 28.9484,
      "duration": 0.0799,
      "velocity": 83,
      "chip": "ym2612"
    },
    {
      "channel": 3,
      "note": 83,
      "start": 29.0487,
      "duration": 0.0795,
      "velocity": 83,
      "chip": "ym2612"
    },
    {
      "channel": 5,
      "note": 77,
      "start": 29.1484,
      "duration": 0.4671,
      "velocity": 95,
      "chip": "ym2612"
    },
    {
      "channel": 0,
      "note": 77,
      "start": 29.1519,
      "duration": 0.4633,
      "velocity": 93,
      "chip": "ym2612"
    },
    {
      "channel": 1,
      "note": 45,
      "start": 29.1543,
      "duration": 0.2905,
      "velocity": 99,
      "chip": "ym2612"
    },
    {
      "channel": 3,
      "note": 96,
      "start": 29.157,
      "duration": 0.0713,
      "velocity": 83,
      "chip": "ym2612"
    },
    {
      "channel": 3,
      "note": 81,
      "start": 29.2353,
      "duration": 0.0763,
      "velocity": 83,
      "chip": "ym2612"
    },
    {
      "channel": 3,
      "note": 93,
      "start": 29.3318,
      "duration": 0.0798,
      "velocity": 83,
      "chip": "ym2612"
    },
    {
      "channel": 3,
      "note": 81,
      "start": 29.4316,
      "duration": 0.0799,
      "velocity": 83,
      "chip": "ym2612"
    },
    {
      "channel": 1,
      "note": 43,
      "start": 29.5314,
      "duration": 0.2968,
      "velocity": 99,
      "chip": "ym2612"
    },
    {
      "channel": 3,
      "note": 88,
      "start": 29.5341,
      "duration": 0.0775,
      "velocity": 83,
      "chip": "ym2612"
    },
    {
      "channel": 3,
      "note": 81,
      "start": 29.6189,
      "duration": 0.076,
      "velocity": 83,
      "chip": "ym2612"
    },
    {
      "channel": 5,
      "note": 76,
      "start": 29.7149,
      "duration": 0.5468,
      "velocity": 95,
      "chip": "ym2612"
    },
    {
      "channel": 0,
      "note": 76,
      "start": 29.7182,
      "duration": 0.5266,
      "velocity": 93,
      "chip": "ym2612"
    },
    {
      "channel": 3,
      "note": 96,
      "start": 29.721,
      "duration": 0.0739,
      "velocity": 83,
      "chip": "ym2612"
    },
    {
      "channel": 3,
      "note": 81,
      "start": 29.815,
      "duration": 0.0799,
      "velocity": 83,
      "chip": "ym2612"
    },
    {
      "channel": 1,
      "note": 40,
      "start": 29.9146,
      "duration": 0.2969,
      "velocity": 99,
      "chip": "ym2612"
    },
    {
      "channel": 3,
      "note": 93,
      "start": 29.9174,
      "duration": 0.0776,
      "velocity": 83,
      "chip": "ym2612"
    },
    {
      "channel": 3,
      "note": 81,
      "start": 30.015,
      "duration": 0.0632,
      "velocity": 83,
      "chip": "ym2612"
    },
    {
      "channel": 3,
      "note": 88,
      "start": 30.0984,
      "duration": 0.0798,
      "velocity": 83,
      "chip": "ym2612"
    },
    {
      "channel": 3,
      "note": 81,
      "start": 30.1984,
      "duration": 0.0798,
      "velocity": 83,
      "chip": "ym2612"
    },
    {
      "channel": 5,
      "note": 72,
      "start": 30.2984,
      "duration": 0.2966,
      "velocity": 95,
      "chip": "ym2612"
    },
    {
      "channel": 0,
      "note": 72,
      "start": 30.3022,
      "duration": 0.2759,
      "velocity": 93,
      "chip": "ym2612"
    },
    {
      "channel": 1,
      "note": 39,
      "start": 30.3047,
      "duration": 0.2901,
      "velocity": 99,
      "chip": "ym2612"
    },
    {
      "channel": 3,
      "note": 96,
      "start": 30.3074,
      "duration": 0.0709,
      "velocity": 83,
      "chip": "ym2612"
    },
    {
      "channel": 3,
      "note": 81,
      "start": 30.3984,
      "duration": 0.0632,
      "velocity": 83,
      "chip": "ym2612"
    },
    {
      "channel": 3,
      "note": 93,
      "start": 30.4817,
      "duration": 0.0799,
      "velocity": 83,
      "chip": "ym2612"
    },
    {
      "channel": 3,
      "note": 86,
      "start": 30.5822,
      "duration": 0.0795,
      "velocity": 83,
      "chip": "ym2612"
    },
    {
      "channel": 5,
      "note": 74,
      "start": 30.6817,
      "duration": 0.5134,
      "velocity": 95,
      "chip": "ym2612"
    },
    {
      "channel": 0,
      "note": 74,
      "start": 30.6851,
      "duration": 0.5097,
      "velocity": 93,
      "chip": "ym2612"
    },
    {
      "channel": 1,
      "note": 38,
      "start": 30.6876,
      "duration": 0.2905,
      "velocity": 99,
      "chip": "ym2612"
    },
    {
      "channel": 3,
      "note": 89,
      "start": 30.6903,
      "duration": 0.0713,
      "velocity": 83,
      "chip": "ym2612"
    },
    {
      "channel": 3,
      "note": 86,
      "start": 30.7817,
      "duration": 0.0633,
      "velocity": 83,
      "chip": "ym2612"
    },
    {
      "channel": 3,
      "note": 93,
      "start": 30.865,
      "duration": 0.0799,
      "velocity": 83,
      "chip": "ym2612"
    },
    {
      "channel": 3,
      "note": 86,
      "start": 30.965,
      "duration": 0.0799,
      "velocity": 83,
      "chip": "ym2612"
    },
    {
      "channel": 1,
      "note": 40,
      "start": 31.0647,
      "duration": 0.2969,
      "velocity": 99,
      "chip": "ym2612"
    },
    {
      "channel": 3,
      "note": 89,
      "start": 31.0674,
      "duration": 0.0775,
      "velocity": 83,
      "chip": "ym2612"
    },
    {
      "channel": 3,
      "note": 86,
      "start": 31.165,
      "duration": 0.0633,
      "velocity": 83,
      "chip": "ym2612"
    },
    {
      "channel": 5,
      "note": 76,
      "start": 31.2491,
      "duration": 1.9959,
      "velocity": 95,
      "chip": "ym2612"
    },
    {
      "channel": 0,
      "note": 76,
      "start": 31.2528,
      "duration": 1.9753,
      "velocity": 93,
      "chip": "ym2612"
    },
    {
      "channel": 3,
      "note": 93,
      "start": 31.2556,
      "duration": 0.0727,
      "velocity": 83,
      "chip": "ym2612"
    },
    {
      "channel": 3,
      "note": 86,
      "start": 31.3484,
      "duration": 0.0799,
      "velocity": 83,
      "chip": "ym2612"
    },
    {
      "channel": 1,
      "note": 41,
      "start": 31.448,
      "duration": 0.2969,
      "velocity": 99,
      "chip": "ym2612"
    },
    {
      "channel": 3,
      "note": 96,
      "start": 31.4507,
      "duration": 0.0776,
      "velocity": 83,
      "chip": "ym2612"
    },
    {
      "channel": 3,
      "note": 86,
      "start": 31.5484,
      "duration": 0.0632,
      "velocity": 83,
      "chip": "ym2612"
    },
    {
      "channel": 3,
      "note": 93,
      "start": 31.6317,
      "duration": 0.0798,
      "velocity": 83,
      "chip": "ym2612"
    },
    {
      "channel": 3,
      "note": 86,
      "start": 31.7318,
      "duration": 0.0798,
      "velocity": 83,
      "chip": "ym2612"
    },
    {
      "channel": 1,
      "note": 43,
      "start": 31.8313,
      "duration": 0.297,
      "velocity": 99,
      "chip": "ym2612"
    },
    {
      "channel": 3,
      "note": 89,
      "start": 31.8341,
      "duration": 0.0775,
      "velocity": 83,
      "chip": "ym2612"
    },
    {
      "channel": 3,
      "note": 86,
      "start": 31.9318,
      "duration": 0.0632,
      "velocity": 83,
      "chip": "ym2612"
    },
    {
      "channel": 3,
      "note": 100,
      "start": 32.015,
      "duration": 0.0799,
      "velocity": 83,
      "chip": "ym2612"
    },
    {
      "channel": 3,
      "note": 86,
      "start": 32.1154,
      "duration": 0.0796,
      "velocity": 83,
      "chip": "ym2612"
    },
    {
      "channel": 1,
      "note": 45,
      "start": 32.2146,
      "duration": 0.297,
      "velocity": 99,
      "chip": "ym2612"
    },
    {
      "channel": 3,
      "note": 98,
      "start": 32.2173,
      "duration": 0.0776,
      "velocity": 83,
      "chip": "ym2612"
    },
    {
      "channel": 3,
      "note": 86,
      "start": 32.315,
      "duration": 0.0633,
      "velocity": 83,
      "chip": "ym2612"
    },
    {
      "channel": 3,
      "note": 96,
      "start": 32.3984,
      "duration": 0.0799,
      "velocity": 83,
      "chip": "ym2612"
    },
    {
      "channel": 3,
      "note": 86,
      "start": 32.4984,
      "duration": 0.0799,
      "velocity": 83,
      "chip": "ym2612"
    },
    {
      "channel": 1,
      "note": 43,
      "start": 32.5979,
      "duration": 0.2969,
      "velocity": 99,
      "chip": "ym2612"
    },
    {
      "channel": 3,
      "note": 95,
      "start": 32.6007,
      "duration": 0.0776,
      "velocity": 83,
      "chip": "ym2612"
    },
    {
      "channel": 3,
      "note": 86,
      "start": 32.6983,
      "duration": 0.0632,
      "velocity": 83,
      "chip": "ym2612"
    },
    {
      "channel": 3,
      "note": 93,
      "start": 32.7816,
      "duration": 0.08,
      "velocity": 83,
      "chip": "ym2612"
    },
    {
      "channel": 3,
      "note": 86,
      "start": 32.8816,
      "duration": 0.0799,
      "velocity": 83,
      "chip": "ym2612"
    },
    {
      "channel": 1,
      "note": 40,
      "start": 32.9816,
      "duration": 0.2966,
      "velocity": 99,
      "chip": "ym2612"
    },
    {
      "channel": 3,
      "note": 91,
      "start": 32.9843,
      "duration": 0.0772,
      "velocity": 83,
      "chip": "ym2612"
    },
    {
      "channel": 3,
      "note": 86,
      "start": 33.0816,
      "duration": 0.0632,
      "velocity": 83,
      "chip": "ym2612"
    },
    {
      "channel": 3,
      "note": 89,
      "start": 33.1649,
      "duration": 0.0799,
      "velocity": 83,
      "chip": "ym2612"
    },
    {
      "channel": 3,
      "note": 86,
      "start": 33.265,
      "duration": 0.0798,
      "velocity": 83,
      "chip": "ym2612"
    },
    {
      "channel": 5,
      "note": 76,
      "start": 33.365,
      "duration": 0.18,
      "velocity": 95,
      "chip": "ym2612"
    },
    {
      "channel": 0,
      "note": 76,
      "start": 33.3685,
      "duration": 0.1596,
      "velocity": 93,
      "chip": "ym2612"
    },
    {
      "channel": 1,
      "note": 39,
      "start": 33.371,
      "duration": 0.2907,
      "velocity": 99,
      "chip": "ym2612"
    },
    {
      "channel": 3,
      "note": 88,
      "start": 33.3737,
      "duration": 0.0712,
      "velocity": 83,
      "chip": "ym2612"
    },
    {
      "channel": 3,
      "note": 86,
      "start": 33.4651,
      "duration": 0.0632,
      "velocity": 83,
      "chip": "ym2612"
    },
    {
      "channel": 5,
      "note": 79,
      "start": 33.5484,
      "duration": 0.1134,
      "velocity": 95,
      "chip": "ym2612"
    },
    {
      "channel": 0,
      "note": 79,
      "start": 33.5517,
      "duration": 0.1098,
      "velocity": 93,
      "chip": "ym2612"
    },
    {
      "channel": 3,
      "note": 89,
      "start": 33.5545,
      "duration": 0.0738,
      "velocity": 83,
      "chip": "ym2612"
    },
    {
      "channel": 3,
      "note": 86,
      "start": 33.6488,
      "duration": 0.0795,
      "velocity": 83,
      "chip": "ym2612"
    },
    {
      "channel": 5,
      "note": 81,
      "start": 33.7488,
      "duration": 2.4629,
      "velocity": 95,
      "chip": "ym2612"
    },
    {
      "channel": 0,
      "note": 81,
      "start": 33.7528,
      "duration": 2.4419,
      "velocity": 93,
      "chip": "ym2612"
    },
    {
      "channel": 1,
      "note": 40,
      "start": 33.7552,
      "duration": 0.2896,
      "velocity": 99,
      "chip": "ym2612"
    },
    {
      "channel": 3,
      "note": 95,
      "start": 33.758,
      "duration": 0.0702,
      "velocity": 83,
      "chip": "ym2612"
    },
    {
      "channel": 3,
      "note": 88,
      "start": 33.8483,
      "duration": 0.0633,
      "velocity": 83,
      "chip": "ym2612"
    },
    {
      "channel": 3,
      "note": 92,
      "start": 33.9317,
      "duration": 0.08,
      "velocity": 83,
      "chip": "ym2612"
    },
    {
      "channel": 3,
      "note": 88,
      "start": 34.0317,
      "duration": 0.0798,
      "velocity": 83,
      "chip": "ym2612"
    },
    {
      "channel": 1,
      "note": 40,
      "start": 34.1314,
      "duration": 0.2968,
      "velocity": 99,
      "chip": "ym2612"
    },
    {
      "channel": 3,
      "note": 95,
      "start": 34.1341,
      "duration": 0.0776,
      "velocity": 83,
      "chip": "ym2612"
    },
    {
      "channel": 3,
      "note": 88,
      "start": 34.2316,
      "duration": 0.0633,
      "velocity": 83,
      "chip": "ym2612"
    },
    {
      "channel": 3,
      "note": 98,
      "start": 34.315,
      "duration": 0.0799,
      "velocity": 83,
      "chip": "ym2612"
    },
    {
      "channel": 3,
      "note": 88,
      "start": 34.4151,
      "duration": 0.0799,
      "velocity": 83,
      "chip": "ym2612"
    },
    {
      "channel": 1,
      "note": 40,
      "start": 34.5146,
      "duration": 0.2969,
      "velocity": 99,
      "chip": "ym2612"
    },
    {
      "channel": 3,
      "note": 95,
      "start": 34.5174,
      "duration": 0.0776,
      "velocity": 83,
      "chip": "ym2612"
    },
    {
      "channel": 3,
      "note": 88,
      "start": 34.615,
      "duration": 0.0633,
      "velocity": 83,
      "chip": "ym2612"
    },
    {
      "channel": 3,
      "note": 95,
      "start": 34.6984,
      "duration": 0.0798,
      "velocity": 83,
      "chip": "ym2612"
    },
    {
      "channel": 3,
      "note": 88,
      "start": 34.7984,
      "duration": 0.0798,
      "velocity": 83,
      "chip": "ym2612"
    },
    {
      "channel": 1,
      "note": 38,
      "start": 34.898,
      "duration": 0.2968,
      "velocity": 99,
      "chip": "ym2612"
    },
    {
      "channel": 3,
      "note": 100,
      "start": 34.9007,
      "duration": 0.0776,
      "velocity": 83,
      "chip": "ym2612"
    },
    {
      "channel": 3,
      "note": 88,
      "start": 34.9984,
      "duration": 0.0632,
      "velocity": 83,
      "chip": "ym2612"
    },
    {
      "channel": 3,
      "note": 92,
      "start": 35.0816,
      "duration": 0.0799,
      "velocity": 83,
      "chip": "ym2612"
    },
    {
      "channel": 3,
      "note": 88,
      "start": 35.182,
      "duration": 0.0796,
      "velocity": 83,
      "chip": "ym2612"
    },
    {
      "channel": 1,
      "note": 40,
      "start": 35.2812,
      "duration": 0.2969,
      "velocity": 99,
      "chip": "ym2612"
    },
    {
      "channel": 3,
      "note": 98,
      "start": 35.2839,
      "duration": 0.0776,
      "velocity": 83,
      "chip": "ym2612"
    },
    {
      "channel": 3,
      "note": 88,
      "start": 35.3816,
      "duration": 0.0632,
      "velocity": 83,
      "chip": "ym2612"
    },
    {
      "channel": 3,
      "note": 95,
      "start": 35.4649,
      "duration": 0.08,
      "velocity": 83,
      "chip": "ym2612"
    },
    {
      "channel": 3,
      "note": 88,
      "start": 35.5649,
      "duration": 0.08,
      "velocity": 83,
      "chip": "ym2612"
    },
    {
      "channel": 1,
      "note": 38,
      "start": 35.6646,
      "duration": 0.2969,
      "velocity": 99,
      "chip": "ym2612"
    },
    {
      "channel": 3,
      "note": 92,
      "start": 35.6673,
      "duration": 0.0776,
      "velocity": 83,
      "chip": "ym2612"
    },
    {
      "channel": 3,
      "note": 88,
      "start": 35.765,
      "duration": 0.0653,
      "velocity": 83,
      "chip": "ym2612"
    },
    {
      "channel": 3,
      "note": 98,
      "start": 35.8482,
      "duration": 0.0799,
      "velocity": 83,
      "chip": "ym2612"
    },
    {
      "channel": 3,
      "note": 88,
      "start": 35.9483,
      "duration": 0.0799,
      "velocity": 83,
      "chip": "ym2612"
    },
    {
      "channel": 1,
      "note": 36,
      "start": 36.0479,
      "duration": 0.2969,
      "velocity": 99,
      "chip": "ym2612"
    },
    {
      "channel": 3,
      "note": 96,
      "start": 36.0506,
      "duration": 0.0776,
      "velocity": 83,
      "chip": "ym2612"
    },
    {
      "channel": 3,
      "note": 88,
      "start": 36.1483,
      "duration": 0.0653,
      "velocity": 83,
      "chip": "ym2612"
    },
    {
      "channel": 3,
      "note": 95,
      "start": 36.2316,
      "duration": 0.0798,
      "velocity": 83,
      "chip": "ym2612"
    },
    {
      "channel": 3,
      "note": 88,
      "start": 36.3316,
      "duration": 0.0798,
      "velocity": 83,
      "chip": "ym2612"
    },
    {
      "channel": 1,
      "note": 35,
      "start": 36.4312,
      "duration": 0.2967,
      "velocity": 99,
      "chip": "ym2612"
    },
    {
      "channel": 3,
      "note": 93,
      "start": 36.4339,
      "duration": 0.0776,
      "velocity": 83,
      "chip": "ym2612"
    },
    {
      "channel": 3,
      "note": 88,
      "start": 36.5316,
      "duration": 0.0651,
      "velocity": 83,
      "chip": "ym2612"
    },
    {
      "channel": 3,
      "note": 92,
      "start": 36.6149,
      "duration": 0.0799,
      "velocity": 83,
      "chip": "ym2612"
    },
    {
      "channel": 3,
      "note": 88,
      "start": 36.7154,
      "duration": 0.0795,
      "velocity": 83,
      "chip": "ym2612"
    },
    {
      "channel": 5,
      "note": 69,
      "start": 36.815,
      "duration": 0.53,
      "velocity": 95,
      "chip": "ym2612"
    },
    {
      "channel": 0,
      "note": 69,
      "start": 36.8185,
      "duration": 0.5097,
      "velocity": 93,
      "chip": "ym2612"
    },
    {
      "channel": 1,
      "note": 45,
      "start": 36.8209,
      "duration": 0.2907,
      "velocity": 99,
      "chip": "ym2612"
    },
    {
      "channel": 3,
      "note": 93,
      "start": 36.8237,
      "duration": 0.0712,
      "velocity": 83,
      "chip": "ym2612"
    },
    {
      "channel": 4,
      "note": 88,
      "start": 36.8265,
      "duration": 0.0686,
      "velocity": 83,
      "chip": "ym2612"
    },
    {
      "channel": 3,
      "note": 93,
      "start": 36.9985,
      "duration": 0.0798,
      "velocity": 83,
      "chip": "ym2612"
    },
    {
      "channel": 3,
      "note": 88,
      "start": 37.0983,
      "duration": 0.08,
      "velocity": 83,
      "chip": "ym2612"
    },
    {
      "channel": 1,
      "note": 43,
      "start": 37.1979,
      "duration": 0.2969,
      "velocity": 99,
      "chip": "ym2612"
    },
    {
      "channel": 3,
      "note": 100,
      "start": 37.2006,
      "duration": 0.0777,
      "velocity": 83,
      "chip": "ym2612"
    },
    {
      "channel": 3,
      "note": 88,
      "start": 37.2983,
      "duration": 0.08,
      "velocity": 83,
      "chip": "ym2612"
    },
    {
      "channel": 5,
      "note": 64,
      "start": 37.3857,
      "duration": 0.4759,
      "velocity": 95,
      "chip": "ym2612"
    },
    {
      "channel": 0,
      "note": 64,
      "start": 37.389,
      "duration": 0.4559,
      "velocity": 93,
      "chip": "ym2612"
    },
    {
      "channel": 3,
      "note": 93,
      "start": 37.3918,
      "duration": 0.0698,
      "velocity": 83,
      "chip": "ym2612"
    },
    {
      "channel": 3,
      "note": 88,
      "start": 37.4818,
      "duration": 0.0798,
      "velocity": 83,
      "chip": "ym2612"
    },
    {
      "channel": 1,
      "note": 40,
      "start": 37.5812,
      "duration": 0.297,
      "velocity": 99,
      "chip": "ym2612"
    },
    {
      "channel": 3,
      "note": 98,
      "start": 37.584,
      "duration": 0.0777,
      "velocity": 83,
      "chip": "ym2612"
    },
    {
      "channel": 3,
      "note": 88,
      "start": 37.6817,
      "duration": 0.08,
      "velocity": 83,
      "chip": "ym2612"
    },
    {
      "channel": 3,
      "note": 93,
      "start": 37.7688,
      "duration": 0.0763,
      "velocity": 83,
      "chip": "ym2612"
    },
    {
      "channel": 3,
      "note": 88,
      "start": 37.8651,
      "duration": 0.0798,
      "velocity": 83,
      "chip": "ym2612"
    },
    {
      "channel": 5,
      "note": 76,
      "start": 37.965,
      "duration": 0.88,
      "velocity": 95,
      "chip": "ym2612"
    },
    {
      "channel": 0,
      "note": 76,
      "start": 37.9684,
      "duration": 0.8597,
      "velocity": 93,
      "chip": "ym2612"
    },
    {
      "channel": 1,
      "note": 45,
      "start": 37.9709,
      "duration": 0.2907,
      "velocity": 99,
      "chip": "ym2612"
    },
    {
      "channel": 3,
      "note": 96,
      "start": 37.9739,
      "duration": 0.071,
      "velocity": 83,
      "chip": "ym2612"
    },
    {
      "channel": 3,
      "note": 88,
      "start": 38.065,
      "duration": 0.08,
      "velocity": 83,
      "chip": "ym2612"
    },
    {
      "channel": 3,
      "note": 95,
      "start": 38.1519,
      "duration": 0.0764,
      "velocity": 83,
      "chip": "ym2612"
    },
    {
      "channel": 3,
      "note": 88,
      "start": 38.2484,
      "duration": 0.0798,
      "velocity": 83,
      "chip": "ym2612"
    },
    {
      "channel": 1,
      "note": 33,
      "start": 38.348,
      "duration": 0.2968,
      "velocity": 99,
      "chip": "ym2612"
    },
    {
      "channel": 3,
      "note": 93,
      "start": 38.3507,
      "duration": 0.0775,
      "velocity": 83,
      "chip": "ym2612"
    },
    {
      "channel": 3,
      "note": 88,
      "start": 38.4484,
      "duration": 0.0798,
      "velocity": 83,
      "chip": "ym2612"
    },
    {
      "channel": 3,
      "note": 93,
      "start": 38.5484,
      "duration": 0.0632,
      "velocity": 83,
      "chip": "ym2612"
    },
    {
      "channel": 3,
      "note": 88,
      "start": 38.6317,
      "duration": 0.0799,
      "velocity": 83,
      "chip": "ym2612"
    },
    {
      "channel": 1,
      "note": 35,
      "start": 38.7313,
      "duration": 0.297,
      "velocity": 99,
      "chip": "ym2612"
    },
    {
      "channel": 3,
      "note": 100,
      "start": 38.734,
      "duration": 0.0777,
      "velocity": 83,
      "chip": "ym2612"
    },
    {
      "channel": 3,
      "note": 88,
      "start": 38.8318,
      "duration": 0.0798,
      "velocity": 83,
      "chip": "ym2612"
    },
    {
      "channel": 5,
      "note": 72,
      "start": 38.9317,
      "duration": 0.4801,
      "velocity": 95,
      "chip": "ym2612"
    },
    {
      "channel": 0,
      "note": 72,
      "start": 38.9351,
      "duration": 0.4597,
      "velocity": 93,
      "chip": "ym2612"
    },
    {
      "channel": 3,
      "note": 93,
      "start": 38.9379,
      "duration": 0.0571,
      "velocity": 83,
      "chip": "ym2612"
    },
    {
      "channel": 3,
      "note": 88,
      "start": 39.015,
      "duration": 0.0799,
      "velocity": 83,
      "chip": "ym2612"
    },
    {
      "channel": 1,
      "note": 36,
      "start": 39.115,
      "duration": 0.2966,
      "velocity": 99,
      "chip": "ym2612"
    },
    {
      "channel": 3,
      "note": 98,
      "start": 39.1178,
      "duration": 0.0772,
      "velocity": 83,
      "chip": "ym2612"
    },
    {
      "channel": 3,
      "note": 88,
      "start": 39.215,
      "duration": 0.0799,
      "velocity": 83,
      "chip": "ym2612"
    },
    {
      "channel": 3,
      "note": 93,
      "start": 39.315,
      "duration": 0.0632,
      "velocity": 83,
      "chip": "ym2612"
    },
    {
      "channel": 3,
      "note": 88,
      "start": 39.3984,
      "duration": 0.0798,
      "velocity": 83,
      "chip": "ym2612"
    },
    {
      "channel": 5,
      "note": 69,
      "start": 39.4984,
      "duration": 0.33,
      "velocity": 95,
      "chip": "ym2612"
    },
    {
      "channel": 0,
      "note": 69,
      "start": 39.5021,
      "duration": 0.4094,
      "velocity": 93,
      "chip": "ym2612"
    },
    {
      "channel": 1,
      "note": 40,
      "start": 39.5046,
      "duration": 0.2903,
      "velocity": 99,
      "chip": "ym2612"
    },
    {
      "channel": 3,
      "note": 96,
      "start": 39.5077,
      "duration": 0.0707,
      "velocity": 83,
      "chip": "ym2612"
    },
    {
      "channel": 3,
      "note": 88,
      "start": 39.5984,
      "duration": 0.08,
      "velocity": 83,
      "chip": "ym2612"
    },
    {
      "channel": 3,
      "note": 95,
      "start": 39.6984,
      "duration": 0.0632,
      "velocity": 83,
      "chip": "ym2612"
    },
    {
      "channel": 3,
      "note": 88,
      "start": 39.7818,
      "duration": 0.0799,
      "velocity": 83,
      "chip": "ym2612"
    },
    {
      "channel": 5,
      "note": 77,
      "start": 39.8818,
      "duration": 0.4799,
      "velocity": 95,
      "chip": "ym2612"
    },
    {
      "channel": 2,
      "note": 77,
      "start": 39.8855,
      "duration": 0.4596,
      "velocity": 93,
      "chip": "ym2612"
    },
    {
      "channel": 1,
      "note": 38,
      "start": 39.8879,
      "duration": 0.2903,
      "velocity": 99,
      "chip": "ym2612"
    },
    {
      "channel": 3,
      "note": 93,
      "start": 39.8906,
      "duration": 0.071,
      "velocity": 83,
      "chip": "ym2612"
    },
    {
      "channel": 3,
      "note": 89,
      "start": 39.9818,
      "duration": 0.0798,
      "velocity": 83,
      "chip": "ym2612"
    },
    {
      "channel": 3,
      "note": 93,
      "start": 40.0818,
      "duration": 0.0632,
      "velocity": 83,
      "chip": "ym2612"
    },
    {
      "channel": 3,
      "note": 89,
      "start": 40.165,
      "duration": 0.0799,
      "velocity": 83,
      "chip": "ym2612"
    },
    {
      "channel": 1,
      "note": 50,
      "start": 40.2646,
      "duration": 0.297,
      "velocity": 99,
      "chip": "ym2612"
    },
    {
      "channel": 3,
      "note": 100,
      "start": 40.2674,
      "duration": 0.0775,
      "velocity": 83,
      "chip": "ym2612"
    },
    {
      "channel": 3,
      "note": 89,
      "start": 40.3651,
      "duration": 0.0798,
      "velocity": 83,
      "chip": "ym2612"
    },
    {
      "channel": 5,
      "note": 76,
      "start": 40.4647,
      "duration": 0.4636,
      "velocity": 95,
      "chip": "ym2612"
    },
    {
      "channel": 0,
      "note": 76,
      "start": 40.4679,
      "duration": 0.4436,
      "velocity": 93,
      "chip": "ym2612"
    },
    {
      "channel": 3,
      "note": 93,
      "start": 40.4707,
      "duration": 0.0576,
      "velocity": 83,
      "chip": "ym2612"
    },
    {
      "channel": 3,
      "note": 89,
      "start": 40.5484,
      "duration": 0.0799,
      "velocity": 83,
      "chip": "ym2612"
    },
    {
      "channel": 1,
      "note": 38,
      "start": 40.648,
      "duration": 0.2968,
      "velocity": 99,
      "chip": "ym2612"
    },
    {
      "channel": 3,
      "note": 98,
      "start": 40.6507,
      "duration": 0.0776,
      "velocity": 83,
      "chip": "ym2612"
    },
    {
      "channel": 3,
      "note": 89,
      "start": 40.7484,
      "duration": 0.0799,
      "velocity": 83,
      "chip": "ym2612"
    },
    {
      "channel": 3,
      "note": 93,
      "start": 40.8484,
      "duration": 0.0633,
      "velocity": 83,
      "chip": "ym2612"
    },
    {
      "channel": 3,
      "note": 89,
      "start": 40.9318,
      "duration": 0.0798,
      "velocity": 83,
      "chip": "ym2612"
    },
    {
      "channel": 5,
      "note": 72,
      "start": 41.0321,
      "duration": 0.3464,
      "velocity": 95,
      "chip": "ym2612"
    },
    {
      "channel": 0,
      "note": 72,
      "start": 41.0355,
      "duration": 0.3427,
      "velocity": 93,
      "chip": "ym2612"
    },
    {
      "channel": 1,
      "note": 39,
      "start": 41.0379,
      "duration": 0.2902,
      "velocity": 99,
      "chip": "ym2612"
    },
    {
      "channel": 3,
      "note": 96,
      "start": 41.041,
      "duration": 0.0706,
      "velocity": 83,
      "chip": "ym2612"
    },
    {
      "channel": 3,
      "note": 89,
      "start": 41.1317,
      "duration": 0.0799,
      "velocity": 83,
      "chip": "ym2612"
    },
    {
      "channel": 3,
      "note": 95,
      "start": 41.2317,
      "duration": 0.0633,
      "velocity": 83,
      "chip": "ym2612"
    },
    {
      "channel": 3,
      "note": 89,
      "start": 41.315,
      "duration": 0.0799,
      "velocity": 83,
      "chip": "ym2612"
    },
    {
      "channel": 5,
      "note": 68,
      "start": 41.4151,
      "duration": 0.5798,
      "velocity": 95,
      "chip": "ym2612"
    },
    {
      "channel": 0,
      "note": 68,
      "start": 41.4185,
      "duration": 0.5595,
      "velocity": 93,
      "chip": "ym2612"
    },
    {
      "channel": 1,
      "note": 40,
      "start": 41.421,
      "duration": 0.2906,
      "velocity": 99,
      "chip": "ym2612"
    },
    {
      "channel": 3,
      "note": 92,
      "start": 41.4236,
      "duration": 0.0714,
      "velocity": 83,
      "chip": "ym2612"
    },
    {
      "channel": 3,
      "note": 88,
      "start": 41.5151,
      "duration": 0.0798,
      "velocity": 83,
      "chip": "ym2612"
    },
    {
      "channel": 3,
      "note": 92,
      "start": 41.6151,
      "duration": 0.0632,
      "velocity": 83,
      "chip": "ym2612"
    },
    {
      "channel": 3,
      "note": 88,
      "start": 41.6984,
      "duration": 0.0798,
      "velocity": 83,
      "chip": "ym2612"
    },
    {
      "channel": 1,
      "note": 38,
      "start": 41.7979,
      "duration": 0.297,
      "velocity": 99,
      "chip": "ym2612"
    },
    {
      "channel": 3,
      "note": 95,
      "start": 41.8006,
      "duration": 0.0777,
      "velocity": 83,
      "chip": "ym2612"
    },
    {
      "channel": 3,
      "note": 88,
      "start": 41.8983,
      "duration": 0.08,
      "velocity": 83,
      "chip": "ym2612"
    },
    {
      "channel": 5,
      "note": 69,
      "start": 41.9983,
      "duration": 0.4968,
      "velocity": 95,
      "chip": "ym2612"
    },
    {
      "channel": 0,
      "note": 69,
      "start": 42.0016,
      "duration": 0.4766,
      "velocity": 93,
      "chip": "ym2612"
    },
    {
      "channel": 3,
      "note": 92,
      "start": 42.0044,
      "duration": 0.0572,
      "velocity": 83,
      "chip": "ym2612"
    },
    {
      "channel": 3,
      "note": 88,
      "start": 42.0817,
      "duration": 0.0799,
      "velocity": 83,
      "chip": "ym2612"
    },
    {
      "channel": 1,
      "note": 36,
      "start": 42.1813,
      "duration": 0.297,
      "velocity": 99,
      "chip": "ym2612"
    },
    {
      "channel": 3,
      "note": 98,
      "start": 42.1841,
      "duration": 0.0776,
      "velocity": 83,
      "chip": "ym2612"
    },
    {
      "channel": 3,
      "note": 88,
      "start": 42.2817,
      "duration": 0.08,
      "velocity": 83,
      "chip": "ym2612"
    },
    {
      "channel": 3,
      "note": 92,
      "start": 42.3817,
      "duration": 0.0632,
      "velocity": 83,
      "chip": "ym2612"
    },
    {
      "channel": 3,
      "note": 88,
      "start": 42.465,
      "duration": 0.0798,
      "velocity": 83,
      "chip": "ym2612"
    },
    {
      "channel": 5,
      "note": 71,
      "start": 42.5651,
      "duration": 0.2968,
      "velocity": 95,
      "chip": "ym2612"
    },
    {
      "channel": 0,
      "note": 71,
      "start": 42.5685,
      "duration": 0.293,
      "velocity": 93,
      "chip": "ym2612"
    },
    {
      "channel": 1,
      "note": 35,
      "start": 42.571,
      "duration": 0.2907,
      "velocity": 99,
      "chip": "ym2612"
    },
    {
      "channel": 3,
      "note": 96,
      "start": 42.574,
      "duration": 0.0709,
      "velocity": 83,
      "chip": "ym2612"
    },
    {
      "channel": 3,
      "note": 88,
      "start": 42.665,
      "duration": 0.0798,
      "velocity": 83,
      "chip": "ym2612"
    },
    {
      "channel": 3,
      "note": 95,
      "start": 42.765,
      "duration": 0.0633,
      "velocity": 83,
      "chip": "ym2612"
    },
    {
      "channel": 3,
      "note": 88,
      "start": 42.8484,
      "duration": 0.0799,
      "velocity": 83,
      "chip": "ym2612"
    },
    {
      "channel": 5,
      "note": 69,
      "start": 42.9484,
      "duration": 0.5634,
      "velocity": 95,
      "chip": "ym2612"
    },
    {
      "channel": 0,
      "note": 69,
      "start": 42.9521,
      "duration": 0.5427,
      "velocity": 93,
      "chip": "ym2612"
    },
    {
      "channel": 1,
      "note": 33,
      "start": 42.9546,
      "duration": 0.2903,
      "velocity": 99,
      "chip": "ym2612"
    },
    {
      "channel": 3,
      "note": 93,
      "start": 42.9573,
      "duration": 0.071,
      "velocity": 83,
      "chip": "ym2612"
    },
    {
      "channel": 3,
      "note": 88,
      "start": 43.0484,
      "duration": 0.0799,
      "velocity": 83,
      "chip": "ym2612"
    },
    {
      "channel": 3,
      "note": 93,
      "start": 43.1484,
      "duration": 0.0633,
      "velocity": 83,
      "chip": "ym2612"
    },
    {
      "channel": 3,
      "note": 88,
      "start": 43.2317,
      "duration": 0.0798,
      "velocity": 83,
      "chip": "ym2612"
    },
    {
      "channel": 1,
      "note": 45,
      "start": 43.3313,
      "duration": 0.2969,
      "velocity": 99,
      "chip": "ym2612"
    },
    {
      "channel": 3,
      "note": 100,
      "start": 43.3341,
      "duration": 0.0775,
      "velocity": 83,
      "chip": "ym2612"
    },
    {
      "channel": 3,
      "note": 88,
      "start": 43.4317,
      "duration": 0.0798,
      "velocity": 83,
      "chip": "ym2612"
    },
    {
      "channel": 5,
      "note": 64,
      "start": 43.5316,
      "duration": 0.4635,
      "velocity": 95,
      "chip": "ym2612"
    },
    {
      "channel": 0,
      "note": 64,
      "start": 43.5349,
      "duration": 0.4433,
      "velocity": 93,
      "chip": "ym2612"
    },
    {
      "channel": 3,
      "note": 93,
      "start": 43.5377,
      "duration": 0.0573,
      "velocity": 83,
      "chip": "ym2612"
    },
    {
      "channel": 3,
      "note": 88,
      "start": 43.615,
      "duration": 0.0799,
      "velocity": 83,
      "chip": "ym2612"
    },
    {
      "channel": 1,
      "note": 33,
      "start": 43.7146,
      "duration": 0.2968,
      "velocity": 99,
      "chip": "ym2612"
    },
    {
      "channel": 3,
      "note": 98,
      "start": 43.7174,
      "duration": 0.0776,
      "velocity": 83,
      "chip": "ym2612"
    },
    {
      "channel": 3,
      "note": 88,
      "start": 43.815,
      "duration": 0.08,
      "velocity": 83,
      "chip": "ym2612"
    },
    {
      "channel": 3,
      "note": 93,
      "start": 43.915,
      "duration": 0.0633,
      "velocity": 83,
      "chip": "ym2612"
    },
    {
      "channel": 3,
      "note": 88,
      "start": 43.9985,
      "duration": 0.0798,
      "velocity": 83,
      "chip": "ym2612"
    },
    {
      "channel": 5,
      "note": 76,
      "start": 44.0988,
      "duration": 0.9464,
      "velocity": 95,
      "chip": "ym2612"
    },
    {
      "channel": 0,
      "note": 76,
      "start": 44.1021,
      "duration": 0.926,
      "velocity": 93,
      "chip": "ym2612"
    },
    {
      "channel": 1,
      "note": 36,
      "start": 44.1046,
      "duration": 0.2903,
      "velocity": 99,
      "chip": "ym2612"
    },
    {
      "channel": 3,
      "note": 96,
      "start": 44.1077,
      "duration": 0.0706,
      "velocity": 83,
      "chip": "ym2612"
    },
    {
      "channel": 3,
      "note": 88,
      "start": 44.1984,
      "duration": 0.0798,
      "velocity": 83,
      "chip": "ym2612"
    },
    {
      "channel": 3,
      "note": 95,
      "start": 44.2983,
      "duration": 0.0671,
      "velocity": 83,
      "chip": "ym2612"
    },
    {
      "channel": 3,
      "note": 88,
      "start": 44.3818,
      "duration": 0.0798,
      "velocity": 83,
      "chip": "ym2612"
    },
    {
      "channel": 1,
      "note": 40,
      "start": 44.4814,
      "duration": 0.2969,
      "velocity": 99,
      "chip": "ym2612"
    },
    {
      "channel": 3,
      "note": 93,
      "start": 44.4841,
      "duration": 0.0775,
      "velocity": 83,
      "chip": "ym2612"
    },
    {
      "channel": 3,
      "note": 88,
      "start": 44.5818,
      "duration": 0.0798,
      "velocity": 83,
      "chip": "ym2612"
    },
    {
      "channel": 3,
      "note": 93,
      "start": 44.6817,
      "duration": 0.0669,
      "velocity": 83,
      "chip": "ym2612"
    },
    {
      "channel": 3,
      "note": 88,
      "start": 44.765,
      "duration": 0.08,
      "velocity": 83,
      "chip": "ym2612"
    },
    {
      "channel": 1,
      "note": 33,
      "start": 44.8646,
      "duration": 0.2969,
      "velocity": 99,
      "chip": "ym2612"
    },
    {
      "channel": 3,
      "note": 100,
      "start": 44.8673,
      "duration": 0.0777,
      "velocity": 83,
      "chip": "ym2612"
    },
    {
      "channel": 3,
      "note": 88,
      "start": 44.965,
      "duration": 0.0799,
      "velocity": 83,
      "chip": "ym2612"
    },
    {
      "channel": 5,
      "note": 72,
      "start": 45.0651,
      "duration": 0.48,
      "velocity": 95,
      "chip": "ym2612"
    },
    {
      "channel": 0,
      "note": 72,
      "start": 45.0685,
      "duration": 0.4762,
      "velocity": 93,
      "chip": "ym2612"
    },
    {
      "channel": 3,
      "note": 93,
      "start": 45.0714,
      "duration": 0.0604,
      "velocity": 83,
      "chip": "ym2612"
    },
    {
      "channel": 3,
      "note": 88,
      "start": 45.1484,
      "duration": 0.0799,
      "velocity": 83,
      "chip": "ym2612"
    },
    {
      "channel": 1,
      "note": 39,
      "start": 45.2484,
      "duration": 0.2965,
      "velocity": 99,
      "chip": "ym2612"
    },
    {
      "channel": 3,
      "note": 98,
      "start": 45.2511,
      "duration": 0.0772,
      "velocity": 83,
      "chip": "ym2612"
    },
    {
      "channel": 3,
      "note": 88,
      "start": 45.3483,
      "duration": 0.0799,
      "velocity": 83,
      "chip": "ym2612"
    },
    {
      "channel": 3,
      "note": 93,
      "start": 45.4484,
      "duration": 0.0667,
      "velocity": 83,
      "chip": "ym2612"
    },
    {
      "channel": 3,
      "note": 88,
      "start": 45.5316,
      "duration": 0.08,
      "velocity": 83,
      "chip": "ym2612"
    },
    {
      "channel": 5,
      "note": 69,
      "start": 45.6317,
      "duration": 0.3134,
      "velocity": 95,
      "chip": "ym2612"
    },
    {
      "channel": 0,
      "note": 69,
      "start": 45.6351,
      "duration": 0.3098,
      "velocity": 93,
      "chip": "ym2612"
    },
    {
      "channel": 1,
      "note": 40,
      "start": 45.6376,
      "duration": 0.2906,
      "velocity": 99,
      "chip": "ym2612"
    },
    {
      "channel": 3,
      "note": 96,
      "start": 45.6406,
      "duration": 0.071,
      "velocity": 83,
      "chip": "ym2612"
    },
    {
      "channel": 3,
      "note": 88,
      "start": 45.7317,
      "duration": 0.0799,
      "velocity": 83,
      "chip": "ym2612"
    },
    {
      "channel": 3,
      "note": 95,
      "start": 45.8317,
      "duration": 0.0799,
      "velocity": 83,
      "chip": "ym2612"
    },
    {
      "channel": 3,
      "note": 88,
      "start": 45.9188,
      "duration": 0.0761,
      "velocity": 83,
      "chip": "ym2612"
    },
    {
      "channel": 5,
      "note": 77,
      "start": 46.0151,
      "duration": 0.53,
      "velocity": 95,
      "chip": "ym2612"
    },
    {
      "channel": 0,
      "note": 77,
      "start": 46.0188,
      "duration": 0.5259,
      "velocity": 93,
      "chip": "ym2612"
    },
    {
      "channel": 1,
      "note": 38,
      "start": 46.0213,
      "duration": 0.2901,
      "velocity": 99,
      "chip": "ym2612"
    },
    {
      "channel": 3,
      "note": 93,
      "start": 46.024,
      "duration": 0.0709,
      "velocity": 83,
      "chip": "ym2612"
    },
    {
      "channel": 3,
      "note": 89,
      "start": 46.115,
      "duration": 0.0799,
      "velocity": 83,
      "chip": "ym2612"
    },
    {
      "channel": 3,
      "note": 93,
      "start": 46.215,
      "duration": 0.08,
      "velocity": 83,
      "chip": "ym2612"
    },
    {
      "channel": 3,
      "note": 89,
      "start": 46.3021,
      "duration": 0.0761,
      "velocity": 83,
      "chip": "ym2612"
    },
    {
      "channel": 1,
      "note": 40,
      "start": 46.398,
      "duration": 0.2968,
      "velocity": 99,
      "chip": "ym2612"
    },
    {
      "channel": 3,
      "note": 100,
      "start": 46.4007,
      "duration": 0.0776,
      "velocity": 83,
      "chip": "ym2612"
    },
    {
      "channel": 3,
      "note": 89,
      "start": 46.4983,
      "duration": 0.0799,
      "velocity": 83,
      "chip": "ym2612"
    },
    {
      "channel": 5,
      "note": 79,
      "start": 46.5983,
      "duration": 0.48,
      "velocity": 95,
      "chip": "ym2612"
    },
    {
      "channel": 0,
      "note": 79,
      "start": 46.6015,
      "duration": 0.4599,
      "velocity": 93,
      "chip": "ym2612"
    },
    {
      "channel": 3,
      "note": 93,
      "start": 46.6044,
      "duration": 0.0739,
      "velocity": 83,
      "chip": "ym2612"
    },
    {
      "channel": 3,
      "note": 89,
      "start": 46.6853,
      "duration": 0.0763,
      "velocity": 83,
      "chip": "ym2612"
    },
    {
      "channel": 1,
      "note": 41,
      "start": 46.7812,
      "duration": 0.3033,
      "velocity": 99,
      "chip": "ym2612"
    },
    {
      "channel": 3,
      "note": 98,
      "start": 46.784,
      "duration": 0.0776,
      "velocity": 83,
      "chip": "ym2612"
    },
    {
      "channel": 3,
      "note": 89,
      "start": 46.8816,
      "duration": 0.0799,
      "velocity": 83,
      "chip": "ym2612"
    },
    {
      "channel": 3,
      "note": 93,
      "start": 46.9817,
      "duration": 0.0799,
      "velocity": 83,
      "chip": "ym2612"
    },
    {
      "channel": 3,
      "note": 89,
      "start": 47.0818,
      "duration": 0.0632,
      "velocity": 83,
      "chip": "ym2612"
    },
    {
      "channel": 5,
      "note": 77,
      "start": 47.165,
      "duration": 0.3132,
      "velocity": 95,
      "chip": "ym2612"
    },
    {
      "channel": 0,
      "note": 77,
      "start": 47.1685,
      "duration": 0.2993,
      "velocity": 93,
      "chip": "ym2612"
    },
    {
      "channel": 1,
      "note": 45,
      "start": 47.171,
      "duration": 0.2969,
      "velocity": 99,
      "chip": "ym2612"
    },
    {
      "channel": 3,
      "note": 96,
      "start": 47.174,
      "duration": 0.0709,
      "velocity": 83,
      "chip": "ym2612"
    },
    {
      "channel": 3,
      "note": 89,
      "start": 47.265,
      "duration": 0.0799,
      "velocity": 83,
      "chip": "ym2612"
    },
    {
      "channel": 3,
      "note": 95,
      "start": 47.365,
      "duration": 0.08,
      "velocity": 83,
      "chip": "ym2612"
    },
    {
      "channel": 3,
      "note": 89,
      "start": 47.465,
      "duration": 0.0632,
      "velocity": 83,
      "chip": "ym2612"
    },
    {
      "channel": 5,
      "note": 76,
      "start": 47.5488,
      "duration": 0.5295,
      "velocity": 95,
      "chip": "ym2612"
    },
    {
      "channel": 0,
      "note": 76,
      "start": 47.5522,
      "duration": 0.5094,
      "velocity": 93,
      "chip": "ym2612"
    },
    {
      "channel": 1,
      "note": 40,
      "start": 47.5547,
      "duration": 0.2965,
      "velocity": 99,
      "chip": "ym2612"
    },
    {
      "channel": 3,
      "note": 92,
      "start": 47.5573,
      "duration": 0.0709,
      "velocity": 83,
      "chip": "ym2612"
    },
    {
      "channel": 3,
      "note": 88,
      "start": 47.6484,
      "duration": 0.0798,
      "velocity": 83,
      "chip": "ym2612"
    },
    {
      "channel": 3,
      "note": 92,
      "start": 47.7483,
      "duration": 0.08,
      "velocity": 83,
      "chip": "ym2612"
    },
    {
      "channel": 3,
      "note": 88,
      "start": 47.8484,
      "duration": 0.0632,
      "velocity": 83,
      "chip": "ym2612"
    },
    {
      "channel": 1,
      "note": 43,
      "start": 47.9314,
      "duration": 0.3029,
      "velocity": 99,
      "chip": "ym2612"
    },
    {
      "channel": 3,
      "note": 95,
      "start": 47.9341,
      "duration": 0.0775,
      "velocity": 83,
      "chip": "ym2612"
    },
    {
      "channel": 3,
      "note": 88,
      "start": 48.0318,
      "duration": 0.0798,
      "velocity": 83,
      "chip": "ym2612"
    },
    {
      "channel": 5,
      "note": 74,
      "start": 48.1316,
      "duration": 0.5302,
      "velocity": 95,
      "chip": "ym2612"
    },
    {
      "channel": 0,
      "note": 74,
      "start": 48.1348,
      "duration": 0.5266,
      "velocity": 93,
      "chip": "ym2612"
    },
    {
      "channel": 3,
      "note": 92,
      "start": 48.1377,
      "duration": 0.0739,
      "velocity": 83,
      "chip": "ym2612"
    },
    {
      "channel": 3,
      "note": 88,
      "start": 48.2317,
      "duration": 0.0632,
      "velocity": 83,
      "chip": "ym2612"
    },
    {
      "channel": 1,
      "note": 47,
      "start": 48.3147,
      "duration": 0.3135,
      "velocity": 99,
      "chip": "ym2612"
    },
    {
      "channel": 3,
      "note": 95,
      "start": 48.3174,
      "duration": 0.0776,
      "velocity": 83,
      "chip": "ym2612"
    },
    {
      "channel": 3,
      "note": 88,
      "start": 48.415,
      "duration": 0.0799,
      "velocity": 83,
      "chip": "ym2612"
    },
    {
      "channel": 3,
      "note": 96,
      "start": 48.515,
      "duration": 0.0798,
      "velocity": 83,
      "chip": "ym2612"
    },
    {
      "channel": 3,
      "note": 88,
      "start": 48.615,
      "duration": 0.0632,
      "velocity": 83,
      "chip": "ym2612"
    },
    {
      "channel": 5,
      "note": 72,
      "start": 48.6984,
      "duration": 0.317,
      "velocity": 95,
      "chip": "ym2612"
    },
    {
      "channel": 0,
      "note": 72,
      "start": 48.7019,
      "duration": 0.3133,
      "velocity": 93,
      "chip": "ym2612"
    },
    {
      "channel": 1,
      "note": 43,
      "start": 48.7043,
      "duration": 0.3072,
      "velocity": 99,
      "chip": "ym2612"
    },
    {
      "channel": 3,
      "note": 95,
      "start": 48.7073,
      "duration": 0.0709,
      "velocity": 83,
      "chip": "ym2612"
    },
    {
      "channel": 3,
      "note": 88,
      "start": 48.7984,
      "duration": 0.0798,
      "velocity": 83,
      "chip": "ym2612"
    },
    {
      "channel": 3,
      "note": 93,
      "start": 48.8984,
      "duration": 0.0799,
      "velocity": 83,
      "chip": "ym2612"
    },
    {
      "channel": 3,
      "note": 88,
      "start": 48.9983,
      "duration": 0.0633,
      "velocity": 83,
      "chip": "ym2612"
    },
    {
      "channel": 5,
      "note": 69,
      "start": 49.0817,
      "duration": 0.53,
      "velocity": 95,
      "chip": "ym2612"
    },
    {
      "channel": 0,
      "note": 69,
      "start": 49.0855,
      "duration": 0.5093,
      "velocity": 93,
      "chip": "ym2612"
    },
    {
      "channel": 1,
      "note": 41,
      "start": 49.0879,
      "duration": 0.3069,
      "velocity": 99,
      "chip": "ym2612"
    },
    {
      "channel": 3,
      "note": 93,
      "start": 49.0906,
      "duration": 0.071,
      "velocity": 83,
      "chip": "ym2612"
    },
    {
      "channel": 3,
      "note": 84,
      "start": 49.1817,
      "duration": 0.0799,
      "velocity": 83,
      "chip": "ym2612"
    },
    {
      "channel": 3,
      "note": 89,
      "start": 49.2817,
      "duration": 0.0799,
      "velocity": 83,
      "chip": "ym2612"
    },
    {
      "channel": 3,
      "note": 84,
      "start": 49.3816,
      "duration": 0.0633,
      "velocity": 83,
      "chip": "ym2612"
    },
    {
      "channel": 1,
      "note": 41,
      "start": 49.4646,
      "duration": 0.3135,
      "velocity": 99,
      "chip": "ym2612"
    },
    {
      "channel": 3,
      "note": 93,
      "start": 49.4673,
      "duration": 0.0776,
      "velocity": 83,
      "chip": "ym2612"
    },
    {
      "channel": 3,
      "note": 84,
      "start": 49.565,
      "duration": 0.0798,
      "velocity": 83,
      "chip": "ym2612"
    },
    {
      "channel": 5,
      "note": 65,
      "start": 49.665,
      "duration": 0.5467,
      "velocity": 95,
      "chip": "ym2612"
    },
    {
      "channel": 0,
      "note": 65,
      "start": 49.6682,
      "duration": 0.5266,
      "velocity": 93,
      "chip": "ym2612"
    },
    {
      "channel": 3,
      "note": 96,
      "start": 49.6711,
      "duration": 0.0738,
      "velocity": 83,
      "chip": "ym2612"
    },
    {
      "channel": 3,
      "note": 84,
      "start": 49.765,
      "duration": 0.0633,
      "velocity": 83,
      "chip": "ym2612"
    },
    {
      "channel": 1,
      "note": 41,
      "start": 49.848,
      "duration": 0.3136,
      "velocity": 99,
      "chip": "ym2612"
    },
    {
      "channel": 3,
      "note": 93,
      "start": 49.8507,
      "duration": 0.0776,
      "velocity": 83,
      "chip": "ym2612"
    },
    {
      "channel": 3,
      "note": 84,
      "start": 49.9484,
      "duration": 0.08,
      "velocity": 83,
      "chip": "ym2612"
    },
    {
      "channel": 3,
      "note": 89,
      "start": 50.0484,
      "duration": 0.0798,
      "velocity": 83,
      "chip": "ym2612"
    },
    {
      "channel": 3,
      "note": 84,
      "start": 50.1484,
      "duration": 0.0631,
      "velocity": 83,
      "chip": "ym2612"
    },
    {
      "channel": 5,
      "note": 74,
      "start": 50.2317,
      "duration": 0.2967,
      "velocity": 95,
      "chip": "ym2612"
    },
    {
      "channel": 0,
      "note": 74,
      "start": 50.2351,
      "duration": 0.2763,
      "velocity": 93,
      "chip": "ym2612"
    },
    {
      "channel": 1,
      "note": 41,
      "start": 50.2376,
      "duration": 0.3073,
      "velocity": 99,
      "chip": "ym2612"
    },
    {
      "channel": 3,
      "note": 93,
      "start": 50.2406,
      "duration": 0.0709,
      "velocity": 83,
      "chip": "ym2612"
    },
    {
      "channel": 3,
      "note": 84,
      "start": 50.3318,
      "duration": 0.0798,
      "velocity": 83,
      "chip": "ym2612"
    },
    {
      "channel": 3,
      "note": 96,
      "start": 50.4317,
      "duration": 0.08,
      "velocity": 83,
      "chip": "ym2612"
    },
    {
      "channel": 3,
      "note": 84,
      "start": 50.5318,
      "duration": 0.063,
      "velocity": 83,
      "chip": "ym2612"
    },
    {
      "channel": 5,
      "note": 71,
      "start": 50.6155,
      "duration": 0.5629,
      "velocity": 95,
      "chip": "ym2612"
    },
    {
      "channel": 0,
      "note": 71,
      "start": 50.6188,
      "duration": 0.5427,
      "velocity": 93,
      "chip": "ym2612"
    },
    {
      "channel": 1,
      "note": 41,
      "start": 50.6213,
      "duration": 0.3069,
      "velocity": 99,
      "chip": "ym2612"
    },
    {
      "channel": 3,
      "note": 98,
      "start": 50.624,
      "duration": 0.0709,
      "velocity": 83,
      "chip": "ym2612"
    },
    {
      "channel": 3,
      "note": 84,
      "start": 50.715,
      "duration": 0.0798,
      "velocity": 83,
      "chip": "ym2612"
    },
    {
      "channel": 3,
      "note": 95,
      "start": 50.815,
      "duration": 0.08,
      "velocity": 83,
      "chip": "ym2612"
    },
    {
      "channel": 3,
      "note": 84,
      "start": 50.915,
      "duration": 0.0632,
      "velocity": 83,
      "chip": "ym2612"
    },
    {
      "channel": 1,
      "note": 41,
      "start": 50.998,
      "duration": 0.3134,
      "velocity": 99,
      "chip": "ym2612"
    },
    {
      "channel": 3,
      "note": 91,
      "start": 51.0007,
      "duration": 0.0775,
      "velocity": 83,
      "chip": "ym2612"
    },
    {
      "channel": 3,
      "note": 84,
      "start": 51.0984,
      "duration": 0.0798,
      "velocity": 83,
      "chip": "ym2612"
    },
    {
      "channel": 5,
      "note": 67,
      "start": 51.1981,
      "duration": 0.5471,
      "velocity": 95,
      "chip": "ym2612"
    },
    {
      "channel": 0,
      "note": 67,
      "start": 51.2014,
      "duration": 0.5435,
      "velocity": 93,
      "chip": "ym2612"
    },
    {
      "channel": 3,
      "note": 98,
      "start": 51.2042,
      "duration": 0.0741,
      "velocity": 83,
      "chip": "ym2612"
    },
    {
      "channel": 3,
      "note": 84,
      "start": 51.2984,
      "duration": 0.0632,
      "velocity": 83,
      "chip": "ym2612"
    },
    {
      "channel": 1,
      "note": 41,
      "start": 51.3816,
      "duration": 0.3132,
      "velocity": 99,
      "chip": "ym2612"
    },
    {
      "channel": 3,
      "note": 95,
      "start": 51.3844,
      "duration": 0.0772,
      "velocity": 83,
      "chip": "ym2612"
    },
    {
      "channel": 3,
      "note": 84,
      "start": 51.4816,
      "duration": 0.0799,
      "velocity": 83,
      "chip": "ym2612"
    },
    {
      "channel": 3,
      "note": 91,
      "start": 51.5818,
      "duration": 0.0798,
      "velocity": 83,
      "chip": "ym2612"
    },
    {
      "channel": 3,
      "note": 84,
      "start": 51.6817,
      "duration": 0.0634,
      "velocity": 83,
      "chip": "ym2612"
    },
    {
      "channel": 5,
      "note": 76,
      "start": 51.7651,
      "duration": 0.3465,
      "velocity": 95,
      "chip": "ym2612"
    },
    {
      "channel": 0,
      "note": 76,
      "start": 51.7685,
      "duration": 0.3263,
      "velocity": 93,
      "chip": "ym2612"
    },
    {
      "channel": 1,
      "note": 41,
      "start": 51.771,
      "duration": 0.3072,
      "velocity": 99,
      "chip": "ym2612"
    },
    {
      "channel": 3,
      "note": 98,
      "start": 51.774,
      "duration": 0.0709,
      "velocity": 83,
      "chip": "ym2612"
    },
    {
      "channel": 3,
      "note": 84,
      "start": 51.865,
      "duration": 0.0799,
      "velocity": 83,
      "chip": "ym2612"
    },
    {
      "channel": 3,
      "note": 91,
      "start": 51.9651,
      "duration": 0.0798,
      "velocity": 83,
      "chip": "ym2612"
    },
    {
      "channel": 3,
      "note": 84,
      "start": 52.065,
      "duration": 0.0633,
      "velocity": 83,
      "chip": "ym2612"
    },
    {
      "channel": 5,
      "note": 74,
      "start": 52.1484,
      "duration": 0.53,
      "velocity": 95,
      "chip": "ym2612"
    },
    {
      "channel": 0,
      "note": 74,
      "start": 52.1522,
      "duration": 0.5092,
      "velocity": 93,
      "chip": "ym2612"
    },
    {
      "channel": 1,
      "note": 40,
      "start": 52.1547,
      "duration": 0.3068,
      "velocity": 99,
      "chip": "ym2612"
    },
    {
      "channel": 3,
      "note": 91,
      "start": 52.1573,
      "duration": 0.0709,
      "velocity": 83,
      "chip": "ym2612"
    },
    {
      "channel": 3,
      "note": 83,
      "start": 52.2483,
      "duration": 0.0799,
      "velocity": 83,
      "chip": "ym2612"
    },
    {
      "channel": 3,
      "note": 88,
      "start": 52.3483,
      "duration": 0.08,
      "velocity": 83,
      "chip": "ym2612"
    },
    {
      "channel": 3,
      "note": 83,
      "start": 52.4484,
      "duration": 0.0632,
      "velocity": 83,
      "chip": "ym2612"
    },
    {
      "channel": 1,
      "note": 40,
      "start": 52.5313,
      "duration": 0.3136,
      "velocity": 99,
      "chip": "ym2612"
    },
    {
      "channel": 3,
      "note": 91,
      "start": 52.534,
      "duration": 0.0776,
      "velocity": 83,
      "chip": "ym2612"
    },
    {
      "channel": 3,
      "note": 83,
      "start": 52.6316,
      "duration": 0.0799,
      "velocity": 83,
      "chip": "ym2612"
    },
    {
      "channel": 5,
      "note": 72,
      "start": 52.7316,
      "duration": 0.4968,
      "velocity": 95,
      "chip": "ym2612"
    },
    {
      "channel": 0,
      "note": 72,
      "start": 52.7349,
      "duration": 0.4933,
      "velocity": 93,
      "chip": "ym2612"
    },
    {
      "channel": 3,
      "note": 95,
      "start": 52.7378,
      "duration": 0.0739,
      "velocity": 83,
      "chip": "ym2612"
    },
    {
      "channel": 3,
      "note": 83,
      "start": 52.8317,
      "duration": 0.0666,
      "velocity": 83,
      "chip": "ym2612"
    },
    {
      "channel": 1,
      "note": 40,
      "start": 52.9146,
      "duration": 0.3137,
      "velocity": 99,
      "chip": "ym2612"
    },
    {
      "channel": 3,
      "note": 91,
      "start": 52.9173,
      "duration": 0.0777,
      "velocity": 83,
      "chip": "ym2612"
    },
    {
      "channel": 3,
      "note": 83,
      "start": 53.015,
      "duration": 0.0799,
      "velocity": 83,
      "chip": "ym2612"
    },
    {
      "channel": 3,
      "note": 88,
      "start": 53.115,
      "duration": 0.0798,
      "velocity": 83,
      "chip": "ym2612"
    },
    {
      "channel": 3,
      "note": 83,
      "start": 53.215,
      "duration": 0.0669,
      "velocity": 83,
      "chip": "ym2612"
    },
    {
      "channel": 5,
      "note": 76,
      "start": 53.2984,
      "duration": 0.3634,
      "velocity": 95,
      "chip": "ym2612"
    },
    {
      "channel": 0,
      "note": 76,
      "start": 53.3018,
      "duration": 0.343,
      "velocity": 93,
      "chip": "ym2612"
    },
    {
      "channel": 1,
      "note": 43,
      "start": 53.3043,
      "duration": 0.3073,
      "velocity": 99,
      "chip": "ym2612"
    },
    {
      "channel": 3,
      "note": 95,
      "start": 53.3073,
      "duration": 0.0709,
      "velocity": 83,
      "chip": "ym2612"
    },
    {
      "channel": 3,
      "note": 83,
      "start": 53.3983,
      "duration": 0.0799,
      "velocity": 83,
      "chip": "ym2612"
    },
    {
      "channel": 3,
      "note": 91,
      "start": 53.4983,
      "duration": 0.08,
      "velocity": 83,
      "chip": "ym2612"
    },
    {
      "channel": 3,
      "note": 83,
      "start": 53.5984,
      "duration": 0.0669,
      "velocity": 83,
      "chip": "ym2612"
    },
    {
      "channel": 5,
      "note": 77,
      "start": 53.6822,
      "duration": 0.4796,
      "velocity": 95,
      "chip": "ym2612"
    },
    {
      "channel": 0,
      "note": 77,
      "start": 53.6856,
      "duration": 0.4758,
      "velocity": 93,
      "chip": "ym2612"
    },
    {
      "channel": 1,
      "note": 45,
      "start": 53.688,
      "duration": 0.3068,
      "velocity": 99,
      "chip": "ym2612"
    },
    {
      "channel": 3,
      "note": 96,
      "start": 53.6907,
      "duration": 0.0709,
      "velocity": 83,
      "chip": "ym2612"
    },
    {
      "channel": 3,
      "note": 81,
      "start": 53.7817,
      "duration": 0.0799,
      "velocity": 83,
      "chip": "ym2612"
    },
    {
      "channel": 3,
      "note": 93,
      "start": 53.8817,
      "duration": 0.0799,
      "velocity": 83,
      "chip": "ym2612"
    },
    {
      "channel": 3,
      "note": 81,
      "start": 53.9816,
      "duration": 0.067,
      "velocity": 83,
      "chip": "ym2612"
    },
    {
      "channel": 1,
      "note": 43,
      "start": 54.0646,
      "duration": 0.3136,
      "velocity": 99,
      "chip": "ym2612"
    },
    {
      "channel": 3,
      "note": 88,
      "start": 54.0674,
      "duration": 0.0776,
      "velocity": 83,
      "chip": "ym2612"
    },
    {
      "channel": 3,
      "note": 81,
      "start": 54.1652,
      "duration": 0.0798,
      "velocity": 83,
      "chip": "ym2612"
    },
    {
      "channel": 5,
      "note": 76,
      "start": 54.2649,
      "duration": 0.5467,
      "velocity": 95,
      "chip": "ym2612"
    },
    {
      "channel": 0,
      "note": 76,
      "start": 54.2682,
      "duration": 0.5267,
      "velocity": 93,
      "chip": "ym2612"
    },
    {
      "channel": 3,
      "note": 96,
      "start": 54.271,
      "duration": 0.0739,
      "velocity": 83,
      "chip": "ym2612"
    },
    {
      "channel": 3,
      "note": 81,
      "start": 54.365,
      "duration": 0.0799,
      "velocity": 83,
      "chip": "ym2612"
    },
    {
      "channel": 1,
      "note": 40,
      "start": 54.4515,
      "duration": 0.31,
      "velocity": 99,
      "chip": "ym2612"
    },
    {
      "channel": 3,
      "note": 93,
      "start": 54.4542,
      "duration": 0.0741,
      "velocity": 83,
      "chip": "ym2612"
    },
    {
      "channel": 3,
      "note": 81,
      "start": 54.5483,
      "duration": 0.0799,
      "velocity": 83,
      "chip": "ym2612"
    },
    {
      "channel": 3,
      "note": 88,
      "start": 54.6484,
      "duration": 0.0798,
      "velocity": 83,
      "chip": "ym2612"
    },
    {
      "channel": 3,
      "note": 81,
      "start": 54.7483,
      "duration": 0.08,
      "velocity": 83,
      "chip": "ym2612"
    },
    {
      "channel": 5,
      "note": 72,
      "start": 54.8355,
      "duration": 0.3095,
      "velocity": 95,
      "chip": "ym2612"
    },
    {
      "channel": 0,
      "note": 72,
      "start": 54.8389,
      "duration": 0.2892,
      "velocity": 93,
      "chip": "ym2612"
    },
    {
      "channel": 1,
      "note": 39,
      "start": 54.8414,
      "duration": 0.3035,
      "velocity": 99,
      "chip": "ym2612"
    },
    {
      "channel": 3,
      "note": 96,
      "start": 54.8445,
      "duration": 0.0671,
      "velocity": 83,
      "chip": "ym2612"
    },
    {
      "channel": 3,
      "note": 81,
      "start": 54.9317,
      "duration": 0.0798,
      "velocity": 83,
      "chip": "ym2612"
    },
    {
      "channel": 3,
      "note": 93,
      "start": 55.0317,
      "duration": 0.0799,
      "velocity": 83,
      "chip": "ym2612"
    },
    {
      "channel": 3,
      "note": 86,
      "start": 55.1318,
      "duration": 0.0797,
      "velocity": 83,
      "chip": "ym2612"
    },
    {
      "channel": 5,
      "note": 74,
      "start": 55.2187,
      "duration": 0.5263,
      "velocity": 95,
      "chip": "ym2612"
    },
    {
      "channel": 0,
      "note": 74,
      "start": 55.2225,
      "duration": 0.5223,
      "velocity": 93,
      "chip": "ym2612"
    },
    {
      "channel": 1,
      "note": 38,
      "start": 55.225,
      "duration": 0.3032,
      "velocity": 99,
      "chip": "ym2612"
    },
    {
      "channel": 3,
      "note": 89,
      "start": 55.2277,
      "duration": 0.0673,
      "velocity": 83,
      "chip": "ym2612"
    },
    {
      "channel": 3,
      "note": 86,
      "start": 55.315,
      "duration": 0.0799,
      "velocity": 83,
      "chip": "ym2612"
    },
    {
      "channel": 3,
      "note": 93,
      "start": 55.415,
      "duration": 0.0799,
      "velocity": 83,
      "chip": "ym2612"
    },
    {
      "channel": 3,
      "note": 86,
      "start": 55.515,
      "duration": 0.08,
      "velocity": 83,
      "chip": "ym2612"
    },
    {
      "channel": 1,
      "note": 40,
      "start": 55.6146,
      "duration": 0.297,
      "velocity": 99,
      "chip": "ym2612"
    },
    {
      "channel": 3,
      "note": 89,
      "start": 55.6173,
      "duration": 0.061,
      "velocity": 83,
      "chip": "ym2612"
    },
    {
      "channel": 3,
      "note": 86,
      "start": 55.6983,
      "duration": 0.0799,
      "velocity": 83,
      "chip": "ym2612"
    },
    {
      "channel": 5,
      "note": 76,
      "start": 55.7988,
      "duration": 1.9962,
      "velocity": 95,
      "chip": "ym2612"
    },
    {
      "channel": 0,
      "note": 76,
      "start": 55.8024,
      "duration": 1.9757,
      "velocity": 93,
      "chip": "ym2612"
    },
    {
      "channel": 3,
      "note": 93,
      "start": 55.8053,
      "duration": 0.0729,
      "velocity": 83,
      "chip": "ym2612"
    },
    {
      "channel": 3,
      "note": 86,
      "start": 55.8984,
      "duration": 0.0799,
      "velocity": 83,
      "chip": "ym2612"
    },
    {
      "channel": 1,
      "note": 41,
      "start": 55.998,
      "duration": 0.2968,
      "velocity": 99,
      "chip": "ym2612"
    },
    {
      "channel": 3,
      "note": 96,
      "start": 56.0007,
      "duration": 0.0609,
      "velocity": 83,
      "chip": "ym2612"
    },
    {
      "channel": 3,
      "note": 86,
      "start": 56.0816,
      "duration": 0.0799,
      "velocity": 83,
      "chip": "ym2612"
    },
    {
      "channel": 3,
      "note": 93,
      "start": 56.1818,
      "duration": 0.0798,
      "velocity": 83,
      "chip": "ym2612"
    },
    {
      "channel": 3,
      "note": 86,
      "start": 56.2816,
      "duration": 0.08,
      "velocity": 83,
      "chip": "ym2612"
    },
    {
      "channel": 1,
      "note": 43,
      "start": 56.3812,
      "duration": 0.297,
      "velocity": 99,
      "chip": "ym2612"
    },
    {
      "channel": 3,
      "note": 89,
      "start": 56.3844,
      "duration": 0.0606,
      "velocity": 83,
      "chip": "ym2612"
    },
    {
      "channel": 3,
      "note": 86,
      "start": 56.465,
      "duration": 0.08,
      "velocity": 83,
      "chip": "ym2612"
    },
    {
      "channel": 3,
      "note": 100,
      "start": 56.565,
      "duration": 0.0799,
      "velocity": 83,
      "chip": "ym2612"
    },
    {
      "channel": 3,
      "note": 86,
      "start": 56.665,
      "duration": 0.0798,
      "velocity": 83,
      "chip": "ym2612"
    },
    {
      "channel": 1,
      "note": 45,
      "start": 56.7646,
      "duration": 0.2968,
      "velocity": 99,
      "chip": "ym2612"
    },
    {
      "channel": 3,
      "note": 98,
      "start": 56.7674,
      "duration": 0.0609,
      "velocity": 83,
      "chip": "ym2612"
    },
    {
      "channel": 3,
      "note": 86,
      "start": 56.8484,
      "duration": 0.0799,
      "velocity": 83,
      "chip": "ym2612"
    },
    {
      "channel": 3,
      "note": 96,
      "start": 56.9483,
      "duration": 0.0799,
      "velocity": 83,
      "chip": "ym2612"
    },
    {
      "channel": 3,
      "note": 86,
      "start": 57.0484,
      "duration": 0.0799,
      "velocity": 83,
      "chip": "ym2612"
    },
    {
      "channel": 1,
      "note": 43,
      "start": 57.1479,
      "duration": 0.2968,
      "velocity": 99,
      "chip": "ym2612"
    },
    {
      "channel": 3,
      "note": 95,
      "start": 57.1507,
      "duration": 0.0608,
      "velocity": 83,
      "chip": "ym2612"
    },
    {
      "channel": 3,
      "note": 86,
      "start": 57.2315,
      "duration": 0.08,
      "velocity": 83,
      "chip": "ym2612"
    },
    {
      "channel": 3,
      "note": 93,
      "start": 57.3316,
      "duration": 0.0799,
      "velocity": 83,
      "chip": "ym2612"
    },
    {
      "channel": 3,
      "note": 86,
      "start": 57.4316,
      "duration": 0.08,
      "velocity": 83,
      "chip": "ym2612"
    },
    {
      "channel": 1,
      "note": 40,
      "start": 57.5316,
      "duration": 0.2965,
      "velocity": 99,
      "chip": "ym2612"
    },
    {
      "channel": 3,
      "note": 91,
      "start": 57.5343,
      "duration": 0.0606,
      "velocity": 83,
      "chip": "ym2612"
    },
    {
      "channel": 3,
      "note": 86,
      "start": 57.6149,
      "duration": 0.08,
      "velocity": 83,
      "chip": "ym2612"
    },
    {
      "channel": 3,
      "note": 89,
      "start": 57.7149,
      "duration": 0.08,
      "velocity": 83,
      "chip": "ym2612"
    },
    {
      "channel": 3,
      "note": 86,
      "start": 57.815,
      "duration": 0.0798,
      "velocity": 83,
      "chip": "ym2612"
    },
    {
      "channel": 5,
      "note": 76,
      "start": 57.9154,
      "duration": 0.1795,
      "velocity": 95,
      "chip": "ym2612"
    },
    {
      "channel": 0,
      "note": 76,
      "start": 57.9189,
      "duration": 0.1592,
      "velocity": 93,
      "chip": "ym2612"
    },
    {
      "channel": 1,
      "note": 39,
      "start": 57.9213,
      "duration": 0.2902,
      "velocity": 99,
      "chip": "ym2612"
    },
    {
      "channel": 3,
      "note": 88,
      "start": 57.9244,
      "duration": 0.0538,
      "velocity": 83,
      "chip": "ym2612"
    },
    {
      "channel": 3,
      "note": 86,
      "start": 57.9984,
      "duration": 0.0799,
      "velocity": 83,
      "chip": "ym2612"
    },
    {
      "channel": 5,
      "note": 79,
      "start": 58.0983,
      "duration": 0.1134,
      "velocity": 95,
      "chip": "ym2612"
    },
    {
      "channel": 0,
      "note": 79,
      "start": 58.1016,
      "duration": 0.1098,
      "velocity": 93,
      "chip": "ym2612"
    },
    {
      "channel": 3,
      "note": 89,
      "start": 58.1044,
      "duration": 0.0738,
      "velocity": 83,
      "chip": "ym2612"
    },
    {
      "channel": 3,
      "note": 86,
      "start": 58.1984,
      "duration": 0.0798,
      "velocity": 83,
      "chip": "ym2612"
    },
    {
      "channel": 5,
      "note": 81,
      "start": 58.2987,
      "duration": 2.4463,
      "velocity": 95,
      "chip": "ym2612"
    },
    {
      "channel": 0,
      "note": 81,
      "start": 58.3024,
      "duration": 2.4256,
      "velocity": 93,
      "chip": "ym2612"
    },
    {
      "channel": 1,
      "note": 40,
      "start": 58.3049,
      "duration": 0.29,
      "velocity": 99,
      "chip": "ym2612"
    },
    {
      "channel": 3,
      "note": 95,
      "start": 58.3075,
      "duration": 0.054,
      "velocity": 83,
      "chip": "ym2612"
    },
    {
      "channel": 3,
      "note": 88,
      "start": 58.3816,
      "duration": 0.0799,
      "velocity": 83,
      "chip": "ym2612"
    },
    {
      "channel": 3,
      "note": 92,
      "start": 58.4816,
      "duration": 0.08,
      "velocity": 83,
      "chip": "ym2612"
    },
    {
      "channel": 3,
      "note": 88,
      "start": 58.5817,
      "duration": 0.0798,
      "velocity": 83,
      "chip": "ym2612"
    },
    {
      "channel": 1,
      "note": 40,
      "start": 58.6814,
      "duration": 0.2968,
      "velocity": 99,
      "chip": "ym2612"
    },
    {
      "channel": 3,
      "note": 95,
      "start": 58.6841,
      "duration": 0.0609,
      "velocity": 83,
      "chip": "ym2612"
    },
    {
      "channel": 3,
      "note": 88,
      "start": 58.765,
      "duration": 0.08,
      "velocity": 83,
      "chip": "ym2612"
    },
    {
      "channel": 3,
      "note": 98,
      "start": 58.8651,
      "duration": 0.0799,
      "velocity": 83,
      "chip": "ym2612"
    },
    {
      "channel": 3,
      "note": 88,
      "start": 58.965,
      "duration": 0.0799,
      "velocity": 83,
      "chip": "ym2612"
    },
    {
      "channel": 1,
      "note": 40,
      "start": 59.0646,
      "duration": 0.297,
      "velocity": 99,
      "chip": "ym2612"
    },
    {
      "channel": 3,
      "note": 95,
      "start": 59.0673,
      "duration": 0.0609,
      "velocity": 83,
      "chip": "ym2612"
    },
    {
      "channel": 3,
      "note": 88,
      "start": 59.1484,
      "duration": 0.0799,
      "velocity": 83,
      "chip": "ym2612"
    },
    {
      "channel": 3,
      "note": 95,
      "start": 59.2484,
      "duration": 0.0799,
      "velocity": 83,
      "chip": "ym2612"
    },
    {
      "channel": 3,
      "note": 88,
      "start": 59.3483,
      "duration": 0.08,
      "velocity": 83,
      "chip": "ym2612"
    },
    {
      "channel": 1,
      "note": 38,
      "start": 59.448,
      "duration": 0.2966,
      "velocity": 99,
      "chip": "ym2612"
    },
    {
      "channel": 3,
      "note": 100,
      "start": 59.451,
      "duration": 0.0606,
      "velocity": 83,
      "chip": "ym2612"
    },
    {
      "channel": 3,
      "note": 88,
      "start": 59.5316,
      "duration": 0.08,
      "velocity": 83,
      "chip": "ym2612"
    },
    {
      "channel": 3,
      "note": 92,
      "start": 59.6317,
      "duration": 0.0798,
      "velocity": 83,
      "chip": "ym2612"
    },
    {
      "channel": 3,
      "note": 88,
      "start": 59.7316,
      "duration": 0.08,
      "velocity": 83,
      "chip": "ym2612"
    },
    {
      "channel": 1,
      "note": 40,
      "start": 59.8312,
      "duration": 0.2969,
      "velocity": 99,
      "chip": "ym2612"
    },
    {
      "channel": 3,
      "note": 98,
      "start": 59.8339,
      "duration": 0.061,
      "velocity": 83,
      "chip": "ym2612"
    },
    {
      "channel": 3,
      "note": 88,
      "start": 59.915,
      "duration": 0.0798,
      "velocity": 83,
      "chip": "ym2612"
    },
    {
      "channel": 3,
      "note": 95,
      "start": 60.015,
      "duration": 0.0799,
      "velocity": 83,
      "chip": "ym2612"
    },
    {
      "channel": 3,
      "note": 88,
      "start": 60.115,
      "duration": 0.0798,
      "velocity": 83,
      "chip": "ym2612"
    },
    {
      "channel": 1,
      "note": 38,
      "start": 60.2145,
      "duration": 0.2969,
      "velocity": 99,
      "chip": "ym2612"
    },
    {
      "channel": 3,
      "note": 92,
      "start": 60.2172,
      "duration": 0.061,
      "velocity": 83,
      "chip": "ym2612"
    },
    {
      "channel": 3,
      "note": 88,
      "start": 60.2982,
      "duration": 0.08,
      "velocity": 83,
      "chip": "ym2612"
    },
    {
      "channel": 3,
      "note": 98,
      "start": 60.3982,
      "duration": 0.08,
      "velocity": 83,
      "chip": "ym2612"
    },
    {
      "channel": 3,
      "note": 88,
      "start": 60.4982,
      "duration": 0.08,
      "velocity": 83,
      "chip": "ym2612"
    },
    {
      "channel": 1,
      "note": 36,
      "start": 60.5979,
      "duration": 0.2969,
      "velocity": 99,
      "chip": "ym2612"
    },
    {
      "channel": 3,
      "note": 96,
      "start": 60.6006,
      "duration": 0.0608,
      "velocity": 83,
      "chip": "ym2612"
    },
    {
      "channel": 3,
      "note": 88,
      "start": 60.6816,
      "duration": 0.0799,
      "velocity": 83,
      "chip": "ym2612"
    },
    {
      "channel": 3,
      "note": 95,
      "start": 60.7816,
      "duration": 0.0798,
      "velocity": 83,
      "chip": "ym2612"
    },
    {
      "channel": 3,
      "note": 88,
      "start": 60.8816,
      "duration": 0.0798,
      "velocity": 83,
      "chip": "ym2612"
    },
    {
      "channel": 1,
      "note": 35,
      "start": 60.9812,
      "duration": 0.2966,
      "velocity": 99,
      "chip": "ym2612"
    },
    {
      "channel": 3,
      "note": 93,
      "start": 60.9844,
      "duration": 0.0605,
      "velocity": 83,
      "chip": "ym2612"
    },
    {
      "channel": 3,
      "note": 88,
      "start": 61.0649,
      "duration": 0.0799,
      "velocity": 83,
      "chip": "ym2612"
    },
    {
      "channel": 3,
      "note": 92,
      "start": 61.165,
      "duration": 0.0799,
      "velocity": 83,
      "chip": "ym2612"
    },
    {
      "channel": 3,
      "note": 88,
      "start": 61.2649,
      "duration": 0.08,
      "velocity": 83,
      "chip": "ym2612"
    },
    {
      "channel": 5,
      "note": 72,
      "start": 61.367,
      "duration": 1.0115,
      "velocity": 116,
      "chip": "ym2612"
    },
    {
      "channel": 0,
      "note": 76,
      "start": 61.3724,
      "duration": 0.5057,
      "velocity": 93,
      "chip": "ym2612"
    },
    {
      "channel": 1,
      "note": 41,
      "start": 61.375,
      "duration": 0.3031,
      "velocity": 99,
      "chip": "ym2612"
    },
    {
      "channel": 3,
      "note": 88,
      "start": 61.3781,
      "duration": 0.0535,
      "velocity": 83,
      "chip": "ym2612"
    },
    {
      "channel": 3,
      "note": 93,
      "start": 61.5486,
      "duration": 0.0797,
      "velocity": 83,
      "chip": "ym2612"
    },
    {
      "channel": 3,
      "note": 100,
      "start": 61.732,
      "duration": 0.0831,
      "velocity": 83,
      "chip": "ym2612"
    },
    {
      "channel": 1,
      "note": 40,
      "start": 61.7482,
      "duration": 0.3634,
      "velocity": 99,
      "chip": "ym2612"
    },
    {
      "channel": 0,
      "note": 69,
      "start": 61.9322,
      "duration": 0.5598,
      "velocity": 93,
      "chip": "ym2612"
    },
    {
      "channel": 3,
      "note": 88,
      "start": 61.9488,
      "duration": 0.0795,
      "velocity": 83,
      "chip": "ym2612"
    },
    {
      "channel": 1,
      "note": 38,
      "start": 62.1315,
      "duration": 0.3302,
      "velocity": 99,
      "chip": "ym2612"
    },
    {
      "channel": 3,
      "note": 93,
      "start": 62.1651,
      "duration": 0.0632,
      "velocity": 83,
      "chip": "ym2612"
    },
    {
      "channel": 3,
      "note": 98,
      "start": 62.3322,
      "duration": 0.0793,
      "velocity": 83,
      "chip": "ym2612"
    },
    {
      "channel": 0,
      "note": 76,
      "start": 62.4988,
      "duration": 0.3793,
      "velocity": 93,
      "chip": "ym2612"
    },
    {
      "channel": 5,
      "note": 72,
      "start": 62.515,
      "duration": 0.3634,
      "velocity": 116,
      "chip": "ym2612"
    },
    {
      "channel": 1,
      "note": 36,
      "start": 62.5179,
      "duration": 0.3271,
      "velocity": 99,
      "chip": "ym2612"
    },
    {
      "channel": 3,
      "note": 88,
      "start": 62.5485,
      "duration": 0.0631,
      "velocity": 83,
      "chip": "ym2612"
    },
    {
      "channel": 3,
      "note": 93,
      "start": 62.6986,
      "duration": 0.0796,
      "velocity": 83,
      "chip": "ym2612"
    },
    {
      "channel": 3,
      "note": 100,
      "start": 62.882,
      "duration": 0.0797,
      "velocity": 83,
      "chip": "ym2612"
    },
    {
      "channel": 5,
      "note": 71,
      "start": 62.8984,
      "duration": 0.9967,
      "velocity": 116,
      "chip": "ym2612"
    },
    {
      "channel": 1,
      "note": 43,
      "start": 62.9011,
      "duration": 0.3604,
      "velocity": 99,
      "chip": "ym2612"
    },
    {
      "channel": 0,
      "note": 74,
      "start": 62.9158,
      "duration": 0.4791,
      "velocity": 93,
      "chip": "ym2612"
    },
    {
      "channel": 3,
      "note": 88,
      "start": 63.0818,
      "duration": 0.0797,
      "velocity": 83,
      "chip": "ym2612"
    },
    {
      "channel": 1,
      "note": 41,
      "start": 63.2815,
      "duration": 0.33,
      "velocity": 99,
      "chip": "ym2612"
    },
    {
      "channel": 3,
      "note": 93,
      "start": 63.2843,
      "duration": 0.0773,
      "velocity": 83,
      "chip": "ym2612"
    },
    {
      "channel": 0,
      "note": 67,
      "start": 63.4488,
      "duration": 0.546,
      "velocity": 93,
      "chip": "ym2612"
    },
    {
      "channel": 3,
      "note": 98,
      "start": 63.4518,
      "duration": 0.0765,
      "velocity": 83,
      "chip": "ym2612"
    },
    {
      "channel": 1,
      "note": 40,
      "start": 63.6649,
      "duration": 0.3634,
      "velocity": 99,
      "chip": "ym2612"
    },
    {
      "channel": 3,
      "note": 88,
      "start": 63.6677,
      "duration": 0.0772,
      "velocity": 83,
      "chip": "ym2612"
    },
    {
      "channel": 3,
      "note": 93,
      "start": 63.8488,
      "duration": 0.0796,
      "velocity": 83,
      "chip": "ym2612"
    },
    {
      "channel": 5,
      "note": 71,
      "start": 64.0483,
      "duration": 0.3468,
      "velocity": 116,
      "chip": "ym2612"
    },
    {
      "channel": 0,
      "note": 65,
      "start": 64.0517,
      "duration": 0.3264,
      "velocity": 93,
      "chip": "ym2612"
    },
    {
      "channel": 1,
      "note": 38,
      "start": 64.0544,
      "duration": 0.3073,
      "velocity": 99,
      "chip": "ym2612"
    },
    {
      "channel": 3,
      "note": 98,
      "start": 64.0572,
      "duration": 0.0711,
      "velocity": 83,
      "chip": "ym2612"
    },
    {
      "channel": 3,
      "note": 88,
      "start": 64.2486,
      "duration": 0.0796,
      "velocity": 83,
      "chip": "ym2612"
    },
    {
      "channel": 0,
      "note": 64,
      "start": 64.4155,
      "duration": 0.5626,
      "velocity": 93,
      "chip": "ym2612"
    },
    {
      "channel": 5,
      "note": 69,
      "start": 64.432,
      "duration": 0.4964,
      "velocity": 116,
      "chip": "ym2612"
    },
    {
      "channel": 1,
      "note": 33,
      "start": 64.4346,
      "duration": 0.3268,
      "velocity": 99,
      "chip": "ym2612"
    },
    {
      "channel": 3,
      "note": 88,
      "start": 64.4486,
      "duration": 0.0797,
      "velocity": 83,
      "chip": "ym2612"
    },
    {
      "channel": 3,
      "note": 93,
      "start": 64.6486,
      "duration": 0.0797,
      "velocity": 83,
      "chip": "ym2612"
    },
    {
      "channel": 1,
      "note": 35,
      "start": 64.8149,
      "duration": 0.3467,
      "velocity": 99,
      "chip": "ym2612"
    },
    {
      "channel": 3,
      "note": 100,
      "start": 64.8484,
      "duration": 0.0669,
      "velocity": 83,
      "chip": "ym2612"
    },
    {
      "channel": 5,
      "note": 64,
      "start": 64.9986,
      "duration": 2.4298,
      "velocity": 116,
      "chip": "ym2612"
    },
    {
      "channel": 0,
      "note": 69,
      "start": 65.0158,
      "duration": 1.879,
      "velocity": 93,
      "chip": "ym2612"
    },
    {
      "channel": 3,
      "note": 88,
      "start": 65.0318,
      "duration": 0.0798,
      "velocity": 83,
      "chip": "ym2612"
    },
    {
      "channel": 1,
      "note": 36,
      "start": 65.1982,
      "duration": 0.3134,
      "velocity": 99,
      "chip": "ym2612"
    },
    {
      "channel": 3,
      "note": 93,
      "start": 65.2318,
      "duration": 0.0668,
      "velocity": 83,
      "chip": "ym2612"
    },
    {
      "channel": 3,
      "note": 100,
      "start": 65.3986,
      "duration": 0.0796,
      "velocity": 83,
      "chip": "ym2612"
    },
    {
      "channel": 1,
      "note": 40,
      "start": 65.5818,
      "duration": 0.3631,
      "velocity": 99,
      "chip": "ym2612"
    },
    {
      "channel": 3,
      "note": 93,
      "start": 65.5984,
      "duration": 0.0799,
      "velocity": 83,
      "chip": "ym2612"
    },
    {
      "channel": 3,
      "note": 88,
      "start": 65.7821,
      "duration": 0.0795,
      "velocity": 83,
      "chip": "ym2612"
    },
    {
      "channel": 1,
      "note": 38,
      "start": 65.9646,
      "duration": 0.3635,
      "velocity": 99,
      "chip": "ym2612"
    },
    {
      "channel": 3,
      "note": 98,
      "start": 65.9818,
      "duration": 0.0798,
      "velocity": 83,
      "chip": "ym2612"
    },
    {
      "channel": 3,
      "note": 88,
      "start": 66.1818,
      "duration": 0.0798,
      "velocity": 83,
      "chip": "ym2612"
    },
    {
      "channel": 1,
      "note": 36,
      "start": 66.3482,
      "duration": 0.3133,
      "velocity": 99,
      "chip": "ym2612"
    },
    {
      "channel": 3,
      "note": 93,
      "start": 66.3819,
      "duration": 0.0796,
      "velocity": 83,
      "chip": "ym2612"
    },
    {
      "channel": 3,
      "note": 98,
      "start": 66.5485,
      "duration": 0.0797,
      "velocity": 83,
      "chip": "ym2612"
    },
    {
      "channel": 1,
      "note": 35,
      "start": 66.7313,
      "duration": 0.3469,
      "velocity": 99,
      "chip": "ym2612"
    },
    {
      "channel": 3,
      "note": 93,
      "start": 66.765,
      "duration": 0.0798,
      "velocity": 83,
      "chip": "ym2612"
    },
    {
      "channel": 0,
      "note": 71,
      "start": 66.9325,
      "duration": 0.1957,
      "velocity": 93,
      "chip": "ym2612"
    },
    {
      "channel": 3,
      "note": 88,
      "start": 66.9355,
      "duration": 0.0761,
      "velocity": 83,
      "chip": "ym2612"
    },
    {
      "channel": 1,
      "note": 33,
      "start": 67.1147,
      "duration": 0.3468,
      "velocity": 99,
      "chip": "ym2612"
    },
    {
      "channel": 3,
      "note": 93,
      "start": 67.1318,
      "duration": 0.0798,
      "velocity": 83,
      "chip": "ym2612"
    },
    {
      "channel": 0,
      "note": 72,
      "start": 67.1489,
      "duration": 0.1292,
      "velocity": 93,
      "chip": "ym2612"
    },
    {
      "channel": 0,
      "note": 74,
      "start": 67.2989,
      "duration": 0.2126,
      "velocity": 93,
      "chip": "ym2612"
    },
    {
      "channel": 3,
      "note": 100,
      "start": 67.3152,
      "duration": 0.0964,
      "velocity": 83,
      "chip": "ym2612"
    },
    {
      "channel": 5,
      "note": 72,
      "start": 67.4986,
      "duration": 1.0132,
      "velocity": 116,
      "chip": "ym2612"
    },
    {
      "channel": 1,
      "note": 41,
      "start": 67.5012,
      "duration": 0.3104,
      "velocity": 99,
      "chip": "ym2612"
    },
    {
      "channel": 0,
      "note": 76,
      "start": 67.5156,
      "duration": 0.4995,
      "velocity": 93,
      "chip": "ym2612"
    },
    {
      "channel": 3,
      "note": 88,
      "start": 67.519,
      "duration": 0.0759,
      "velocity": 83,
      "chip": "ym2612"
    },
    {
      "channel": 3,
      "note": 93,
      "start": 67.7152,
      "duration": 0.0796,
      "velocity": 83,
      "chip": "ym2612"
    },
    {
      "channel": 1,
      "note": 40,
      "start": 67.8815,
      "duration": 0.3467,
      "velocity": 99,
      "chip": "ym2612"
    },
    {
      "channel": 3,
      "note": 100,
      "start": 67.9152,
      "duration": 0.0798,
      "velocity": 83,
      "chip": "ym2612"
    },
    {
      "channel": 0,
      "note": 69,
      "start": 68.0655,
      "duration": 0.5461,
      "velocity": 93,
      "chip": "ym2612"
    },
    {
      "channel": 3,
      "note": 88,
      "start": 68.1152,
      "duration": 0.0797,
      "velocity": 83,
      "chip": "ym2612"
    },
    {
      "channel": 1,
      "note": 38,
      "start": 68.2648,
      "duration": 0.33,
      "velocity": 99,
      "chip": "ym2612"
    },
    {
      "channel": 3,
      "note": 93,
      "start": 68.3152,
      "duration": 0.0797,
      "velocity": 83,
      "chip": "ym2612"
    },
    {
      "channel": 3,
      "note": 100,
      "start": 68.4818,
      "duration": 0.0798,
      "velocity": 83,
      "chip": "ym2612"
    },
    {
      "channel": 5,
      "note": 72,
      "start": 68.6482,
      "duration": 0.3469,
      "velocity": 116,
      "chip": "ym2612"
    },
    {
      "channel": 0,
      "note": 76,
      "start": 68.6519,
      "duration": 0.3429,
      "velocity": 93,
      "chip": "ym2612"
    },
    {
      "channel": 1,
      "note": 36,
      "start": 68.6545,
      "duration": 0.307,
      "velocity": 99,
      "chip": "ym2612"
    },
    {
      "channel": 3,
      "note": 88,
      "start": 68.6984,
      "duration": 0.0798,
      "velocity": 83,
      "chip": "ym2612"
    },
    {
      "channel": 3,
      "note": 93,
      "start": 68.8655,
      "duration": 0.0795,
      "velocity": 83,
      "chip": "ym2612"
    },
    {
      "channel": 5,
      "note": 71,
      "start": 69.0323,
      "duration": 1.0795,
      "velocity": 116,
      "chip": "ym2612"
    },
    {
      "channel": 0,
      "note": 74,
      "start": 69.0357,
      "duration": 0.5591,
      "velocity": 93,
      "chip": "ym2612"
    },
    {
      "channel": 1,
      "note": 43,
      "start": 69.0386,
      "duration": 0.3562,
      "velocity": 99,
      "chip": "ym2612"
    },
    {
      "channel": 3,
      "note": 98,
      "start": 69.0416,
      "duration": 0.0866,
      "velocity": 83,
      "chip": "ym2612"
    },
    {
      "channel": 3,
      "note": 88,
      "start": 69.232,
      "duration": 0.0796,
      "velocity": 83,
      "chip": "ym2612"
    },
    {
      "channel": 1,
      "note": 41,
      "start": 69.4149,
      "duration": 0.3133,
      "velocity": 99,
      "chip": "ym2612"
    },
    {
      "channel": 3,
      "note": 93,
      "start": 69.4318,
      "duration": 0.0798,
      "velocity": 83,
      "chip": "ym2612"
    },
    {
      "channel": 3,
      "note": 98,
      "start": 69.5986,
      "duration": 0.0796,
      "velocity": 83,
      "chip": "ym2612"
    },
    {
      "channel": 0,
      "note": 67,
      "start": 69.6156,
      "duration": 0.5125,
      "velocity": 93,
      "chip": "ym2612"
    },
    {
      "channel": 1,
      "note": 40,
      "start": 69.798,
      "duration": 0.3302,
      "velocity": 99,
      "chip": "ym2612"
    },
    {
      "channel": 3,
      "note": 88,
      "start": 69.8152,
      "duration": 0.0798,
      "velocity": 83,
      "chip": "ym2612"
    },
    {
      "channel": 3,
      "note": 88,
      "start": 69.982,
      "duration": 0.0963,
      "velocity": 83,
      "chip": "ym2612"
    },
    {
      "channel": 5,
      "note": 71,
      "start": 70.1815,
      "duration": 0.3634,
      "velocity": 116,
      "chip": "ym2612"
    },
    {
      "channel": 0,
      "note": 77,
      "start": 70.1849,
      "duration": 0.3099,
      "velocity": 93,
      "chip": "ym2612"
    },
    {
      "channel": 1,
      "note": 43,
      "start": 70.1875,
      "duration": 0.2907,
      "velocity": 99,
      "chip": "ym2612"
    },
    {
      "channel": 3,
      "note": 93,
      "start": 70.1991,
      "duration": 0.0791,
      "velocity": 83,
      "chip": "ym2612"
    },
    {
      "channel": 3,
      "note": 98,
      "start": 70.3652,
      "duration": 0.0798,
      "velocity": 83,
      "chip": "ym2612"
    },
    {
      "channel": 5,
      "note": 69,
      "start": 70.5652,
      "duration": 2.9965,
      "velocity": 116,
      "chip": "ym2612"
    },
    {
      "channel": 0,
      "note": 76,
      "start": 70.5689,
      "duration": 2.2756,
      "velocity": 93,
      "chip": "ym2612"
    },
    {
      "channel": 1,
      "note": 45,
      "start": 70.5715,
      "duration": 0.3734,
      "velocity": 99,
      "chip": "ym2612"
    },
    {
      "channel": 3,
      "note": 88,
      "start": 70.5819,
      "duration": 0.0798,
      "velocity": 83,
      "chip": "ym2612"
    },
    {
      "channel": 3,
      "note": 93,
      "start": 70.7652,
      "duration": 0.0798,
      "velocity": 83,
      "chip": "ym2612"
    },
    {
      "channel": 1,
      "note": 43,
      "start": 70.9482,
      "duration": 0.3634,
      "velocity": 99,
      "chip": "ym2612"
    },
    {
      "channel": 3,
      "note": 100,
      "start": 70.951,
      "duration": 0.0772,
      "velocity": 83,
      "chip": "ym2612"
    },
    {
      "channel": 3,
      "note": 88,
      "start": 71.1486,
      "duration": 0.0797,
      "velocity": 83,
      "chip": "ym2612"
    },
    {
      "channel": 1,
      "note": 40,
      "start": 71.3315,
      "duration": 0.33,
      "velocity": 99,
      "chip": "ym2612"
    },
    {
      "channel": 3,
      "note": 93,
      "start": 71.3485,
      "duration": 0.0798,
      "velocity": 83,
      "chip": "ym2612"
    },
    {
      "channel": 3,
      "note": 100,
      "start": 71.5192,
      "duration": 0.0757,
      "velocity": 83,
      "chip": "ym2612"
    },
    {
      "channel": 1,
      "note": 39,
      "start": 71.7146,
      "duration": 0.3302,
      "velocity": 99,
      "chip": "ym2612"
    },
    {
      "channel": 3,
      "note": 88,
      "start": 71.7174,
      "duration": 0.0776,
      "velocity": 83,
      "chip": "ym2612"
    },
    {
      "channel": 3,
      "note": 93,
      "start": 71.9021,
      "duration": 0.0761,
      "velocity": 83,
      "chip": "ym2612"
    },
    {
      "channel": 3,
      "note": 98,
      "start": 72.0817,
      "duration": 0.0798,
      "velocity": 83,
      "chip": "ym2612"
    },
    {
      "channel": 1,
      "note": 38,
      "start": 72.098,
      "duration": 0.3468,
      "velocity": 99,
      "chip": "ym2612"
    },
    {
      "channel": 3,
      "note": 88,
      "start": 72.2984,
      "duration": 0.0798,
      "velocity": 83,
      "chip": "ym2612"
    },
    {
      "channel": 1,
      "note": 36,
      "start": 72.4818,
      "duration": 0.2964,
      "velocity": 99,
      "chip": "ym2612"
    },
    {
      "channel": 3,
      "note": 93,
      "start": 72.4984,
      "duration": 0.0798,
      "velocity": 83,
      "chip": "ym2612"
    },
    {
      "channel": 3,
      "note": 98,
      "start": 72.6818,
      "duration": 0.063,
      "velocity": 83,
      "chip": "ym2612"
    },
    {
      "channel": 0,
      "note": 69,
      "start": 72.8659,
      "duration": 0.1788,
      "velocity": 93,
      "chip": "ym2612"
    },
    {
      "channel": 1,
      "note": 33,
      "start": 72.8685,
      "duration": 0.3264,
      "velocity": 99,
      "chip": "ym2612"
    },
    {
      "channel": 3,
      "note": 88,
      "start": 72.8713,
      "duration": 0.0903,
      "velocity": 83,
      "chip": "ym2612"
    },
    {
      "channel": 0,
      "note": 71,
      "start": 73.0489,
      "duration": 0.1793,
      "velocity": 93,
      "chip": "ym2612"
    },
    {
      "channel": 3,
      "note": 88,
      "start": 73.0653,
      "duration": 0.063,
      "velocity": 83,
      "chip": "ym2612"
    },
    {
      "channel": 1,
      "note": 36,
      "start": 73.248,
      "duration": 0.3302,
      "velocity": 99,
      "chip": "ym2612"
    },
    {
      "channel": 3,
      "note": 93,
      "start": 73.2511,
      "duration": 0.0771,
      "velocity": 83,
      "chip": "ym2612"
    },
    {
      "channel": 0,
      "note": 72,
      "start": 73.2655,
      "duration": 0.1627,
      "velocity": 93,
      "chip": "ym2612"
    },
    {
      "channel": 0,
      "note": 69,
      "start": 73.4323,
      "duration": 0.1625,
      "velocity": 93,
      "chip": "ym2612"
    },
    {
      "channel": 3,
      "note": 98,
      "start": 73.4484,
      "duration": 0.0633,
      "velocity": 83,
      "chip": "ym2612"
    },
    {
      "channel": 5,
      "note": 72,
      "start": 73.6319,
      "duration": 1.0131,
      "velocity": 116,
      "chip": "ym2612"
    },
    {
      "channel": 0,
      "note": 76,
      "start": 73.6353,
      "duration": 0.5262,
      "velocity": 93,
      "chip": "ym2612"
    },
    {
      "channel": 1,
      "note": 41,
      "start": 73.6379,
      "duration": 0.3071,
      "velocity": 99,
      "chip": "ym2612"
    },
    {
      "channel": 3,
      "note": 88,
      "start": 73.6406,
      "duration": 0.071,
      "velocity": 83,
      "chip": "ym2612"
    },
    {
      "channel": 3,
      "note": 93,
      "start": 73.8318,
      "duration": 0.0632,
      "velocity": 83,
      "chip": "ym2612"
    },
    {
      "channel": 1,
      "note": 40,
      "start": 74.0148,
      "duration": 0.3467,
      "velocity": 99,
      "chip": "ym2612"
    },
    {
      "channel": 3,
      "note": 100,
      "start": 74.0175,
      "duration": 0.0774,
      "velocity": 83,
      "chip": "ym2612"
    },
    {
      "channel": 0,
      "note": 69,
      "start": 74.2157,
      "duration": 0.5125,
      "velocity": 93,
      "chip": "ym2612"
    },
    {
      "channel": 3,
      "note": 88,
      "start": 74.2187,
      "duration": 0.0762,
      "velocity": 83,
      "chip": "ym2612"
    },
    {
      "channel": 1,
      "note": 38,
      "start": 74.3981,
      "duration": 0.3134,
      "velocity": 99,
      "chip": "ym2612"
    },
    {
      "channel": 3,
      "note": 93,
      "start": 74.4012,
      "duration": 0.0771,
      "velocity": 83,
      "chip": "ym2612"
    },
    {
      "channel": 3,
      "note": 100,
      "start": 74.582,
      "duration": 0.0796,
      "velocity": 83,
      "chip": "ym2612"
    },
    {
      "channel": 0,
      "note": 76,
      "start": 74.7488,
      "duration": 0.346,
      "velocity": 93,
      "chip": "ym2612"
    },
    {
      "channel": 5,
      "note": 72,
      "start": 74.782,
      "duration": 0.3465,
      "velocity": 116,
      "chip": "ym2612"
    },
    {
      "channel": 1,
      "note": 36,
      "start": 74.7847,
      "duration": 0.3436,
      "velocity": 99,
      "chip": "ym2612"
    },
    {
      "channel": 3,
      "note": 88,
      "start": 74.7987,
      "duration": 0.0796,
      "velocity": 83,
      "chip": "ym2612"
    },
    {
      "channel": 3,
      "note": 93,
      "start": 74.9989,
      "duration": 0.0627,
      "velocity": 83,
      "chip": "ym2612"
    },
    {
      "channel": 0,
      "note": 74,
      "start": 75.1324,
      "duration": 0.5791,
      "velocity": 93,
      "chip": "ym2612"
    },
    {
      "channel": 3,
      "note": 100,
      "start": 75.1486,
      "duration": 0.0964,
      "velocity": 83,
      "chip": "ym2612"
    },
    {
      "channel": 5,
      "note": 71,
      "start": 75.1651,
      "duration": 0.98,
      "velocity": 116,
      "chip": "ym2612"
    },
    {
      "channel": 1,
      "note": 43,
      "start": 75.1678,
      "duration": 0.3272,
      "velocity": 99,
      "chip": "ym2612"
    },
    {
      "channel": 3,
      "note": 88,
      "start": 75.3653,
      "duration": 0.0629,
      "velocity": 83,
      "chip": "ym2612"
    },
    {
      "channel": 3,
      "note": 93,
      "start": 75.5318,
      "duration": 0.0798,
      "velocity": 83,
      "chip": "ym2612"
    },
    {
      "channel": 1,
      "note": 41,
      "start": 75.5484,
      "duration": 0.313,
      "velocity": 99,
      "chip": "ym2612"
    },
    {
      "channel": 3,
      "note": 98,
      "start": 75.7152,
      "duration": 0.0665,
      "velocity": 83,
      "chip": "ym2612"
    },
    {
      "channel": 0,
      "note": 67,
      "start": 75.7323,
      "duration": 0.4792,
      "velocity": 93,
      "chip": "ym2612"
    },
    {
      "channel": 3,
      "note": 88,
      "start": 75.8984,
      "duration": 0.0799,
      "velocity": 83,
      "chip": "ym2612"
    },
    {
      "channel": 1,
      "note": 40,
      "start": 75.9315,
      "duration": 0.2968,
      "velocity": 99,
      "chip": "ym2612"
    },
    {
      "channel": 3,
      "note": 88,
      "start": 76.0986,
      "duration": 0.0665,
      "velocity": 83,
      "chip": "ym2612"
    },
    {
      "channel": 0,
      "note": 65,
      "start": 76.2822,
      "duration": 0.3293,
      "velocity": 93,
      "chip": "ym2612"
    },
    {
      "channel": 3,
      "note": 93,
      "start": 76.2986,
      "duration": 0.0796,
      "velocity": 83,
      "chip": "ym2612"
    },
    {
      "channel": 5,
      "note": 71,
      "start": 76.3149,
      "duration": 0.3468,
      "velocity": 116,
      "chip": "ym2612"
    },
    {
      "channel": 1,
      "note": 43,
      "start": 76.3175,
      "duration": 0.2942,
      "velocity": 99,
      "chip": "ym2612"
    },
    {
      "channel": 3,
      "note": 98,
      "start": 76.4988,
      "duration": 0.0629,
      "velocity": 83,
      "chip": "ym2612"
    },
    {
      "channel": 0,
      "note": 64,
      "start": 76.6656,
      "duration": 0.5459,
      "velocity": 93,
      "chip": "ym2612"
    },
    {
      "channel": 3,
      "note": 88,
      "start": 76.6818,
      "duration": 0.0799,
      "velocity": 83,
      "chip": "ym2612"
    },
    {
      "channel": 5,
      "note": 69,
      "start": 76.6984,
      "duration": 2.8966,
      "velocity": 116,
      "chip": "ym2612"
    },
    {
      "channel": 1,
      "note": 45,
      "start": 76.7012,
      "duration": 0.327,
      "velocity": 99,
      "chip": "ym2612"
    },
    {
      "channel": 3,
      "note": 93,
      "start": 76.8818,
      "duration": 0.0668,
      "velocity": 83,
      "chip": "ym2612"
    },
    {
      "channel": 3,
      "note": 100,
      "start": 77.0487,
      "duration": 0.0962,
      "velocity": 83,
      "chip": "ym2612"
    },
    {
      "channel": 1,
      "note": 43,
      "start": 77.0812,
      "duration": 0.3302,
      "velocity": 99,
      "chip": "ym2612"
    },
    {
      "channel": 0,
      "note": 69,
      "start": 77.2492,
      "duration": 0.5623,
      "velocity": 93,
      "chip": "ym2612"
    },
    {
      "channel": 3,
      "note": 88,
      "start": 77.282,
      "duration": 0.0629,
      "velocity": 83,
      "chip": "ym2612"
    },
    {
      "channel": 1,
      "note": 40,
      "start": 77.4647,
      "duration": 0.3635,
      "velocity": 99,
      "chip": "ym2612"
    },
    {
      "channel": 3,
      "note": 93,
      "start": 77.4676,
      "duration": 0.0773,
      "velocity": 83,
      "chip": "ym2612"
    },
    {
      "channel": 3,
      "note": 100,
      "start": 77.6485,
      "duration": 0.0668,
      "velocity": 83,
      "chip": "ym2612"
    },
    {
      "channel": 0,
      "note": 76,
      "start": 77.8323,
      "duration": 0.3125,
      "velocity": 93,
      "chip": "ym2612"
    },
    {
      "channel": 1,
      "note": 39,
      "start": 77.8482,
      "duration": 0.2968,
      "velocity": 99,
      "chip": "ym2612"
    },
    {
      "channel": 3,
      "note": 88,
      "start": 77.851,
      "duration": 0.0772,
      "velocity": 83,
      "chip": "ym2612"
    },
    {
      "channel": 3,
      "note": 93,
      "start": 78.0489,
      "duration": 0.0628,
      "velocity": 83,
      "chip": "ym2612"
    },
    {
      "channel": 0,
      "note": 74,
      "start": 78.1988,
      "duration": 0.5961,
      "velocity": 93,
      "chip": "ym2612"
    },
    {
      "channel": 3,
      "note": 98,
      "start": 78.2154,
      "duration": 0.0962,
      "velocity": 83,
      "chip": "ym2612"
    },
    {
      "channel": 1,
      "note": 38,
      "start": 78.2315,
      "duration": 0.3468,
      "velocity": 99,
      "chip": "ym2612"
    },
    {
      "channel": 3,
      "note": 88,
      "start": 78.4487,
      "duration": 0.0629,
      "velocity": 83,
      "chip": "ym2612"
    },
    {
      "channel": 1,
      "note": 40,
      "start": 78.6147,
      "duration": 0.3635,
      "velocity": 99,
      "chip": "ym2612"
    },
    {
      "channel": 3,
      "note": 93,
      "start": 78.6175,
      "duration": 0.0775,
      "velocity": 83,
      "chip": "ym2612"
    },
    {
      "channel": 3,
      "note": 98,
      "start": 78.7987,
      "duration": 0.0795,
      "velocity": 83,
      "chip": "ym2612"
    },
    {
      "channel": 0,
      "note": 72,
      "start": 78.8155,
      "duration": 0.4793,
      "velocity": 93,
      "chip": "ym2612"
    },
    {
      "channel": 1,
      "note": 41,
      "start": 78.9985,
      "duration": 0.313,
      "velocity": 99,
      "chip": "ym2612"
    },
    {
      "channel": 3,
      "note": 88,
      "start": 79.0152,
      "duration": 0.0798,
      "velocity": 83,
      "chip": "ym2612"
    },
    {
      "channel": 3,
      "note": 93,
      "start": 79.2151,
      "duration": 0.0632,
      "velocity": 83,
      "chip": "ym2612"
    },
    {
      "channel": 0,
      "note": 71,
      "start": 79.3322,
      "duration": 0.3294,
      "velocity": 93,
      "chip": "ym2612"
    },
    {
      "channel": 1,
      "note": 40,
      "start": 79.3815,
      "duration": 0.3468,
      "velocity": 99,
      "chip": "ym2612"
    },
    {
      "channel": 3,
      "note": 98,
      "start": 79.3986,
      "duration": 0.0797,
      "velocity": 83,
      "chip": "ym2612"
    },
    {
      "channel": 3,
      "note": 93,
      "start": 79.6155,
      "duration": 0.0628,
      "velocity": 83,
      "chip": "ym2612"
    },
    {
      "channel": 0,
      "note": 69,
      "start": 79.7159,
      "duration": 0.5956,
      "velocity": 93,
      "chip": "ym2612"
    },
    {
      "channel": 5,
      "note": 72,
      "start": 79.7652,
      "duration": 2.7132,
      "velocity": 116,
      "chip": "ym2612"
    },
    {
      "channel": 1,
      "note": 41,
      "start": 79.7679,
      "duration": 0.3269,
      "velocity": 99,
      "chip": "ym2612"
    },
    {
      "channel": 3,
      "note": 88,
      "start": 79.8152,
      "duration": 0.0964,
      "velocity": 83,
      "chip": "ym2612"
    },
    {
      "channel": 3,
      "note": 93,
      "start": 80.032,
      "duration": 0.063,
      "velocity": 83,
      "chip": "ym2612"
    },
    {
      "channel": 1,
      "note": 40,
      "start": 80.1481,
      "duration": 0.3634,
      "velocity": 99,
      "chip": "ym2612"
    },
    {
      "channel": 3,
      "note": 100,
      "start": 80.1987,
      "duration": 0.0963,
      "velocity": 83,
      "chip": "ym2612"
    },
    {
      "channel": 0,
      "note": 76,
      "start": 80.3658,
      "duration": 1.4457,
      "velocity": 93,
      "chip": "ym2612"
    },
    {
      "channel": 3,
      "note": 88,
      "start": 80.3987,
      "duration": 0.0629,
      "velocity": 83,
      "chip": "ym2612"
    },
    {
      "channel": 1,
      "note": 38,
      "start": 80.5313,
      "duration": 0.3636,
      "velocity": 99,
      "chip": "ym2612"
    },
    {
      "channel": 3,
      "note": 93,
      "start": 80.5985,
      "duration": 0.0797,
      "velocity": 83,
      "chip": "ym2612"
    },
    {
      "channel": 3,
      "note": 100,
      "start": 80.7818,
      "duration": 0.0631,
      "velocity": 83,
      "chip": "ym2612"
    },
    {
      "channel": 1,
      "note": 36,
      "start": 80.9149,
      "duration": 0.3134,
      "velocity": 99,
      "chip": "ym2612"
    },
    {
      "channel": 3,
      "note": 88,
      "start": 80.9822,
      "duration": 0.0794,
      "velocity": 83,
      "chip": "ym2612"
    },
    {
      "channel": 3,
      "note": 93,
      "start": 81.1652,
      "duration": 0.0632,
      "velocity": 83,
      "chip": "ym2612"
    },
    {
      "channel": 1,
      "note": 40,
      "start": 81.2982,
      "duration": 0.3633,
      "velocity": 99,
      "chip": "ym2612"
    },
    {
      "channel": 3,
      "note": 100,
      "start": 81.3484,
      "duration": 0.0799,
      "velocity": 83,
      "chip": "ym2612"
    },
    {
      "channel": 3,
      "note": 88,
      "start": 81.5484,
      "duration": 0.0632,
      "velocity": 83,
      "chip": "ym2612"
    },
    {
      "channel": 1,
      "note": 38,
      "start": 81.6815,
      "duration": 0.3467,
      "velocity": 99,
      "chip": "ym2612"
    },
    {
      "channel": 3,
      "note": 93,
      "start": 81.7318,
      "duration": 0.0798,
      "velocity": 83,
      "chip": "ym2612"
    },
    {
      "channel": 0,
      "note": 74,
      "start": 81.8822,
      "duration": 0.5127,
      "velocity": 93,
      "chip": "ym2612"
    },
    {
      "channel": 3,
      "note": 98,
      "start": 81.8986,
      "duration": 0.083,
      "velocity": 83,
      "chip": "ym2612"
    },
    {
      "channel": 1,
      "note": 36,
      "start": 82.0647,
      "duration": 0.3005,
      "velocity": 99,
      "chip": "ym2612"
    },
    {
      "channel": 3,
      "note": 88,
      "start": 82.1154,
      "duration": 0.0796,
      "velocity": 83,
      "chip": "ym2612"
    },
    {
      "channel": 3,
      "note": 93,
      "start": 82.2984,
      "duration": 0.0669,
      "velocity": 83,
      "chip": "ym2612"
    },
    {
      "channel": 0,
      "note": 72,
      "start": 82.4489,
      "duration": 0.3625,
      "velocity": 93,
      "chip": "ym2612"
    },
    {
      "channel": 1,
      "note": 35,
      "start": 82.4517,
      "duration": 0.3098,
      "velocity": 99,
      "chip": "ym2612"
    },
    {
      "channel": 3,
      "note": 98,
      "start": 82.4657,
      "duration": 0.0959,
      "velocity": 83,
      "chip": "ym2612"
    },
    {
      "channel": 3,
      "note": 93,
      "start": 82.6652,
      "duration": 0.0965,
      "velocity": 83,
      "chip": "ym2612"
    },
    {
      "channel": 5,
      "note": 69,
      "start": 82.8329,
      "duration": 1.5122,
      "velocity": 116,
      "chip": "ym2612"
    },
    {
      "channel": 0,
      "note": 69,
      "start": 82.8377,
      "duration": 1.3904,
      "velocity": 93,
      "chip": "ym2612"
    },
    {
      "channel": 1,
      "note": 33,
      "start": 82.8414,
      "duration": 0.5202,
      "velocity": 99,
      "chip": "ym2612"
    },
    {
      "channel": 3,
      "note": 93,
      "start": 82.8458,
      "duration": 0.0658,
      "velocity": 83,
      "chip": "ym2612"
    },
    {
      "channel": 3,
      "note": 88,
      "start": 82.9318,
      "duration": 0.0798,
      "velocity": 83,
      "chip": "ym2612"
    },
    {
      "channel": 3,
      "note": 93,
      "start": 83.0317,
      "duration": 0.0799,
      "velocity": 83,
      "chip": "ym2612"
    },
    {
      "channel": 3,
      "note": 88,
      "start": 83.1316,
      "duration": 0.0633,
      "velocity": 83,
      "chip": "ym2612"
    },
    {
      "channel": 3,
      "note": 100,
      "start": 83.215,
      "duration": 0.0798,
      "velocity": 83,
      "chip": "ym2612"
    },
    {
      "channel": 3,
      "note": 88,
      "start": 83.3151,
      "duration": 0.0798,
      "velocity": 83,
      "chip": "ym2612"
    },
    {
      "channel": 1,
      "note": 45,
      "start": 83.4153,
      "duration": 1.9797,
      "velocity": 99,
      "chip": "ym2612"
    },
    {
      "channel": 3,
      "note": 93,
      "start": 83.418,
      "duration": 0.077,
      "velocity": 83,
      "chip": "ym2612"
    },
    {
      "channel": 3,
      "note": 88,
      "start": 83.515,
      "duration": 0.0632,
      "velocity": 83,
      "chip": "ym2612"
    },
    {
      "channel": 3,
      "note": 98,
      "start": 83.5984,
      "duration": 0.0798,
      "velocity": 83,
      "chip": "ym2612"
    },
    {
      "channel": 3,
      "note": 88,
      "start": 83.6984,
      "duration": 0.0799,
      "velocity": 83,
      "chip": "ym2612"
    },
    {
      "channel": 3,
      "note": 93,
      "start": 83.7984,
      "duration": 0.0799,
      "velocity": 83,
      "chip": "ym2612"
    },
    {
      "channel": 3,
      "note": 88,
      "start": 83.8984,
      "duration": 0.0632,
      "velocity": 83,
      "chip": "ym2612"
    },
    {
      "channel": 3,
      "note": 96,
      "start": 83.982,
      "duration": 0.0796,
      "velocity": 83,
      "chip": "ym2612"
    },
    {
      "channel": 3,
      "note": 88,
      "start": 84.0817,
      "duration": 0.0798,
      "velocity": 83,
      "chip": "ym2612"
    },
    {
      "channel": 3,
      "note": 95,
      "start": 84.1818,
      "duration": 0.0797,
      "velocity": 83,
      "chip": "ym2612"
    },
    {
      "channel": 3,
      "note": 88,
      "start": 84.2816,
      "duration": 0.0633,
      "velocity": 83,
      "chip": "ym2612"
    },
    {
      "channel": 5,
      "note": 76,
      "start": 84.3652,
      "duration": 1.3131,
      "velocity": 116,
      "chip": "ym2612"
    },
    {
      "channel": 0,
      "note": 76,
      "start": 84.369,
      "duration": 1.2925,
      "velocity": 93,
      "chip": "ym2612"
    },
    {
      "channel": 3,
      "note": 93,
      "start": 84.3718,
      "duration": 0.0732,
      "velocity": 83,
      "chip": "ym2612"
    },
    {
      "channel": 3,
      "note": 88,
      "start": 84.465,
      "duration": 0.0798,
      "velocity": 83,
      "chip": "ym2612"
    },
    {
      "channel": 3,
      "note": 93,
      "start": 84.565,
      "duration": 0.08,
      "velocity": 83,
      "chip": "ym2612"
    },
    {
      "channel": 3,
      "note": 88,
      "start": 84.665,
      "duration": 0.0632,
      "velocity": 83,
      "chip": "ym2612"
    },
    {
      "channel": 3,
      "note": 100,
      "start": 84.7484,
      "duration": 0.0798,
      "velocity": 83,
      "chip": "ym2612"
    },
    {
      "channel": 3,
      "note": 88,
      "start": 84.8483,
      "duration": 0.0799,
      "velocity": 83,
      "chip": "ym2612"
    },
    {
      "channel": 3,
      "note": 93,
      "start": 84.9484,
      "duration": 0.0799,
      "velocity": 83,
      "chip": "ym2612"
    },
    {
      "channel": 3,
      "note": 88,
      "start": 85.0483,
      "duration": 0.0633,
      "velocity": 83,
      "chip": "ym2612"
    },
    {
      "channel": 3,
      "note": 98,
      "start": 85.1317,
      "duration": 0.0799,
      "velocity": 83,
      "chip": "ym2612"
    },
    {
      "channel": 3,
      "note": 88,
      "start": 85.2317,
      "duration": 0.0799,
      "velocity": 83,
      "chip": "ym2612"
    },
    {
      "channel": 3,
      "note": 93,
      "start": 85.3316,
      "duration": 0.0799,
      "velocity": 83,
      "chip": "ym2612"
    },
    {
      "channel": 3,
      "note": 88,
      "start": 85.4318,
      "duration": 0.0632,
      "velocity": 83,
      "chip": "ym2612"
    },
    {
      "channel": 3,
      "note": 96,
      "start": 85.5154,
      "duration": 0.0796,
      "velocity": 83,
      "chip": "ym2612"
    },
    {
      "channel": 3,
      "note": 88,
      "start": 85.615,
      "duration": 0.0799,
      "velocity": 83,
      "chip": "ym2612"
    },
    {
      "channel": 5,
      "note": 74,
      "start": 85.7149,
      "duration": 0.0469,
      "velocity": 116,
      "chip": "ym2612"
    },
    {
      "channel": 0,
      "note": 74,
      "start": 85.7183,
      "duration": 0.0431,
      "velocity": 93,
      "chip": "ym2612"
    },
    {
      "channel": 1,
      "note": 40,
      "start": 85.7211,
      "duration": 0.1439,
      "velocity": 99,
      "chip": "ym2612"
    },
    {
      "channel": 3,
      "note": 95,
      "start": 85.7237,
      "duration": 0.0712,
      "velocity": 83,
      "chip": "ym2612"
    },
    {
      "channel": 5,
      "note": 72,
      "start": 85.8146,
      "duration": 0.0471,
      "velocity": 116,
      "chip": "ym2612"
    },
    {
      "channel": 0,
      "note": 72,
      "start": 85.8182,
      "duration": 0.0267,
      "velocity": 93,
      "chip": "ym2612"
    },
    {
      "channel": 3,
      "note": 88,
      "start": 85.821,
      "duration": 0.0573,
      "velocity": 83,
      "chip": "ym2612"
    },
    {
      "channel": 5,
      "note": 74,
      "start": 85.8989,
      "duration": 2.0793,
      "velocity": 116,
      "chip": "ym2612"
    },
    {
      "channel": 0,
      "note": 74,
      "start": 85.9026,
      "duration": 2.0587,
      "velocity": 93,
      "chip": "ym2612"
    },
    {
      "channel": 1,
      "note": 41,
      "start": 85.906,
      "duration": 1.3389,
      "velocity": 99,
      "chip": "ym2612"
    },
    {
      "channel": 3,
      "note": 93,
      "start": 85.9087,
      "duration": 0.0696,
      "velocity": 83,
      "chip": "ym2612"
    },
    {
      "channel": 3,
      "note": 89,
      "start": 85.9984,
      "duration": 0.0799,
      "velocity": 83,
      "chip": "ym2612"
    },
    {
      "channel": 3,
      "note": 93,
      "start": 86.0984,
      "duration": 0.0799,
      "velocity": 83,
      "chip": "ym2612"
    },
    {
      "channel": 3,
      "note": 89,
      "start": 86.1983,
      "duration": 0.0633,
      "velocity": 83,
      "chip": "ym2612"
    },
    {
      "channel": 3,
      "note": 100,
      "start": 86.2816,
      "duration": 0.0799,
      "velocity": 83,
      "chip": "ym2612"
    },
    {
      "channel": 3,
      "note": 89,
      "start": 86.3817,
      "duration": 0.0799,
      "velocity": 83,
      "chip": "ym2612"
    },
    {
      "channel": 3,
      "note": 93,
      "start": 86.4817,
      "duration": 0.0799,
      "velocity": 83,
      "chip": "ym2612"
    },
    {
      "channel": 3,
      "note": 89,
      "start": 86.5817,
      "duration": 0.0633,
      "velocity": 83,
      "chip": "ym2612"
    },
    {
      "channel": 3,
      "note": 98,
      "start": 86.665,
      "duration": 0.0799,
      "velocity": 83,
      "chip": "ym2612"
    },
    {
      "channel": 3,
      "note": 89,
      "start": 86.765,
      "duration": 0.0799,
      "velocity": 83,
      "chip": "ym2612"
    },
    {
      "channel": 3,
      "note": 93,
      "start": 86.865,
      "duration": 0.0799,
      "velocity": 83,
      "chip": "ym2612"
    },
    {
      "channel": 3,
      "note": 89,
      "start": 86.9651,
      "duration": 0.0668,
      "velocity": 83,
      "chip": "ym2612"
    },
    {
      "channel": 3,
      "note": 96,
      "start": 87.0488,
      "duration": 0.0795,
      "velocity": 83,
      "chip": "ym2612"
    },
    {
      "channel": 3,
      "note": 89,
      "start": 87.1483,
      "duration": 0.0799,
      "velocity": 83,
      "chip": "ym2612"
    },
    {
      "channel": 3,
      "note": 95,
      "start": 87.2485,
      "duration": 0.0796,
      "velocity": 83,
      "chip": "ym2612"
    },
    {
      "channel": 3,
      "note": 89,
      "start": 87.3482,
      "duration": 0.0653,
      "velocity": 83,
      "chip": "ym2612"
    },
    {
      "channel": 1,
      "note": 40,
      "start": 87.4315,
      "duration": 0.5133,
      "velocity": 99,
      "chip": "ym2612"
    },
    {
      "channel": 3,
      "note": 92,
      "start": 87.4342,
      "duration": 0.0773,
      "velocity": 83,
      "chip": "ym2612"
    },
    {
      "channel": 3,
      "note": 88,
      "start": 87.5316,
      "duration": 0.0798,
      "velocity": 83,
      "chip": "ym2612"
    },
    {
      "channel": 3,
      "note": 92,
      "start": 87.6316,
      "duration": 0.0799,
      "velocity": 83,
      "chip": "ym2612"
    },
    {
      "channel": 3,
      "note": 88,
      "start": 87.7316,
      "duration": 0.0653,
      "velocity": 83,
      "chip": "ym2612"
    },
    {
      "channel": 3,
      "note": 95,
      "start": 87.815,
      "duration": 0.0798,
      "velocity": 83,
      "chip": "ym2612"
    },
    {
      "channel": 3,
      "note": 88,
      "start": 87.9149,
      "duration": 0.08,
      "velocity": 83,
      "chip": "ym2612"
    },
    {
      "channel": 5,
      "note": 72,
      "start": 88.0148,
      "duration": 0.5469,
      "velocity": 116,
      "chip": "ym2612"
    },
    {
      "channel": 0,
      "note": 72,
      "start": 88.0183,
      "duration": 0.5266,
      "velocity": 93,
      "chip": "ym2612"
    },
    {
      "channel": 1,
      "note": 44,
      "start": 88.021,
      "duration": 0.8239,
      "velocity": 99,
      "chip": "ym2612"
    },
    {
      "channel": 3,
      "note": 92,
      "start": 88.0237,
      "duration": 0.0712,
      "velocity": 83,
      "chip": "ym2612"
    },
    {
      "channel": 3,
      "note": 88,
      "start": 88.115,
      "duration": 0.0666,
      "velocity": 83,
      "chip": "ym2612"
    },
    {
      "channel": 3,
      "note": 98,
      "start": 88.1984,
      "duration": 0.0799,
      "velocity": 83,
      "chip": "ym2612"
    },
    {
      "channel": 3,
      "note": 88,
      "start": 88.2983,
      "duration": 0.0799,
      "velocity": 83,
      "chip": "ym2612"
    },
    {
      "channel": 3,
      "note": 92,
      "start": 88.3984,
      "duration": 0.0798,
      "velocity": 83,
      "chip": "ym2612"
    },
    {
      "channel": 3,
      "note": 88,
      "start": 88.4984,
      "duration": 0.0799,
      "velocity": 83,
      "chip": "ym2612"
    },
    {
      "channel": 5,
      "note": 71,
      "start": 88.5853,
      "duration": 0.3764,
      "velocity": 116,
      "chip": "ym2612"
    },
    {
      "channel": 0,
      "note": 71,
      "start": 88.5888,
      "duration": 0.3561,
      "velocity": 93,
      "chip": "ym2612"
    },
    {
      "channel": 3,
      "note": 96,
      "start": 88.592,
      "duration": 0.0696,
      "velocity": 83,
      "chip": "ym2612"
    },
    {
      "channel": 3,
      "note": 88,
      "start": 88.6817,
      "duration": 0.0798,
      "velocity": 83,
      "chip": "ym2612"
    },
    {
      "channel": 3,
      "note": 95,
      "start": 88.7817,
      "duration": 0.0799,
      "velocity": 83,
      "chip": "ym2612"
    },
    {
      "channel": 3,
      "note": 88,
      "start": 88.8816,
      "duration": 0.0799,
      "velocity": 83,
      "chip": "ym2612"
    },
    {
      "channel": 5,
      "note": 69,
      "start": 88.969,
      "duration": 1.5093,
      "velocity": 116,
      "chip": "ym2612"
    },
    {
      "channel": 0,
      "note": 69,
      "start": 88.9731,
      "duration": 1.4883,
      "velocity": 93,
      "chip": "ym2612"
    },
    {
      "channel": 1,
      "note": 33,
      "start": 88.9758,
      "duration": 0.5192,
      "velocity": 99,
      "chip": "ym2612"
    },
    {
      "channel": 3,
      "note": 93,
      "start": 88.9787,
      "duration": 0.0662,
      "velocity": 83,
      "chip": "ym2612"
    },
    {
      "channel": 3,
      "note": 88,
      "start": 89.065,
      "duration": 0.0798,
      "velocity": 83,
      "chip": "ym2612"
    },
    {
      "channel": 3,
      "note": 93,
      "start": 89.165,
      "duration": 0.08,
      "velocity": 83,
      "chip": "ym2612"
    },
    {
      "channel": 3,
      "note": 88,
      "start": 89.265,
      "duration": 0.08,
      "velocity": 83,
      "chip": "ym2612"
    },
    {
      "channel": 3,
      "note": 100,
      "start": 89.3521,
      "duration": 0.0761,
      "velocity": 83,
      "chip": "ym2612"
    },
    {
      "channel": 3,
      "note": 88,
      "start": 89.4484,
      "duration": 0.0798,
      "velocity": 83,
      "chip": "ym2612"
    },
    {
      "channel": 1,
      "note": 45,
      "start": 89.5486,
      "duration": 1.9963,
      "velocity": 99,
      "chip": "ym2612"
    },
    {
      "channel": 3,
      "note": 93,
      "start": 89.5513,
      "duration": 0.077,
      "velocity": 83,
      "chip": "ym2612"
    },
    {
      "channel": 3,
      "note": 88,
      "start": 89.6484,
      "duration": 0.08,
      "velocity": 83,
      "chip": "ym2612"
    },
    {
      "channel": 3,
      "note": 98,
      "start": 89.7484,
      "duration": 0.0632,
      "velocity": 83,
      "chip": "ym2612"
    },
    {
      "channel": 3,
      "note": 88,
      "start": 89.8316,
      "duration": 0.0799,
      "velocity": 83,
      "chip": "ym2612"
    },
    {
      "channel": 3,
      "note": 93,
      "start": 89.9318,
      "duration": 0.0798,
      "velocity": 83,
      "chip": "ym2612"
    },
    {
      "channel": 3,
      "note": 88,
      "start": 90.0316,
      "duration": 0.08,
      "velocity": 83,
      "chip": "ym2612"
    },
    {
      "channel": 3,
      "note": 96,
      "start": 90.1321,
      "duration": 0.0629,
      "velocity": 83,
      "chip": "ym2612"
    },
    {
      "channel": 3,
      "note": 88,
      "start": 90.215,
      "duration": 0.08,
      "velocity": 83,
      "chip": "ym2612"
    },
    {
      "channel": 3,
      "note": 95,
      "start": 90.315,
      "duration": 0.0798,
      "velocity": 83,
      "chip": "ym2612"
    },
    {
      "channel": 3,
      "note": 88,
      "start": 90.415,
      "duration": 0.0799,
      "velocity": 83,
      "chip": "ym2612"
    },
    {
      "channel": 5,
      "note": 76,
      "start": 90.5149,
      "duration": 1.4967,
      "velocity": 116,
      "chip": "ym2612"
    },
    {
      "channel": 0,
      "note": 76,
      "start": 90.5181,
      "duration": 1.4765,
      "velocity": 93,
      "chip": "ym2612"
    },
    {
      "channel": 3,
      "note": 93,
      "start": 90.5209,
      "duration": 0.0574,
      "velocity": 83,
      "chip": "ym2612"
    },
    {
      "channel": 3,
      "note": 88,
      "start": 90.5984,
      "duration": 0.0799,
      "velocity": 83,
      "chip": "ym2612"
    },
    {
      "channel": 3,
      "note": 93,
      "start": 90.6984,
      "duration": 0.0799,
      "velocity": 83,
      "chip": "ym2612"
    },
    {
      "channel": 3,
      "note": 88,
      "start": 90.7983,
      "duration": 0.0799,
      "velocity": 83,
      "chip": "ym2612"
    },
    {
      "channel": 3,
      "note": 100,
      "start": 90.8984,
      "duration": 0.0632,
      "velocity": 83,
      "chip": "ym2612"
    },
    {
      "channel": 3,
      "note": 88,
      "start": 90.9816,
      "duration": 0.08,
      "velocity": 83,
      "chip": "ym2612"
    },
    {
      "channel": 3,
      "note": 93,
      "start": 91.0817,
      "duration": 0.0799,
      "velocity": 83,
      "chip": "ym2612"
    },
    {
      "channel": 3,
      "note": 88,
      "start": 91.1816,
      "duration": 0.08,
      "velocity": 83,
      "chip": "ym2612"
    },
    {
      "channel": 3,
      "note": 98,
      "start": 91.2818,
      "duration": 0.0631,
      "velocity": 83,
      "chip": "ym2612"
    },
    {
      "channel": 3,
      "note": 88,
      "start": 91.365,
      "duration": 0.0799,
      "velocity": 83,
      "chip": "ym2612"
    },
    {
      "channel": 3,
      "note": 93,
      "start": 91.465,
      "duration": 0.08,
      "velocity": 83,
      "chip": "ym2612"
    },
    {
      "channel": 3,
      "note": 88,
      "start": 91.5651,
      "duration": 0.0798,
      "velocity": 83,
      "chip": "ym2612"
    },
    {
      "channel": 3,
      "note": 96,
      "start": 91.6654,
      "duration": 0.0629,
      "velocity": 83,
      "chip": "ym2612"
    },
    {
      "channel": 3,
      "note": 88,
      "start": 91.7483,
      "duration": 0.08,
      "velocity": 83,
      "chip": "ym2612"
    },
    {
      "channel": 1,
      "note": 40,
      "start": 91.8486,
      "duration": 0.1626,
      "velocity": 99,
      "chip": "ym2612"
    },
    {
      "channel": 3,
      "note": 95,
      "start": 91.8514,
      "duration": 0.0768,
      "velocity": 83,
      "chip": "ym2612"
    },
    {
      "channel": 3,
      "note": 88,
      "start": 91.9482,
      "duration": 0.0799,
      "velocity": 83,
      "chip": "ym2612"
    },
    {
      "channel": 5,
      "note": 77,
      "start": 92.0479,
      "duration": 1.4971,
      "velocity": 116,
      "chip": "ym2612"
    },
    {
      "channel": 0,
      "note": 77,
      "start": 92.0514,
      "duration": 1.4931,
      "velocity": 93,
      "chip": "ym2612"
    },
    {
      "channel": 1,
      "note": 41,
      "start": 92.0544,
      "duration": 1.2905,
      "velocity": 99,
      "chip": "ym2612"
    },
    {
      "channel": 3,
      "note": 93,
      "start": 92.0571,
      "duration": 0.0544,
      "velocity": 83,
      "chip": "ym2612"
    },
    {
      "channel": 3,
      "note": 89,
      "start": 92.1317,
      "duration": 0.0798,
      "velocity": 83,
      "chip": "ym2612"
    },
    {
      "channel": 3,
      "note": 93,
      "start": 92.2316,
      "duration": 0.08,
      "velocity": 83,
      "chip": "ym2612"
    },
    {
      "channel": 3,
      "note": 89,
      "start": 92.3317,
      "duration": 0.0799,
      "velocity": 83,
      "chip": "ym2612"
    },
    {
      "channel": 3,
      "note": 100,
      "start": 92.4317,
      "duration": 0.0632,
      "velocity": 83,
      "chip": "ym2612"
    },
    {
      "channel": 3,
      "note": 89,
      "start": 92.515,
      "duration": 0.08,
      "velocity": 83,
      "chip": "ym2612"
    },
    {
      "channel": 3,
      "note": 93,
      "start": 92.615,
      "duration": 0.0799,
      "velocity": 83,
      "chip": "ym2612"
    },
    {
      "channel": 3,
      "note": 89,
      "start": 92.715,
      "duration": 0.08,
      "velocity": 83,
      "chip": "ym2612"
    },
    {
      "channel": 3,
      "note": 98,
      "start": 92.8151,
      "duration": 0.0631,
      "velocity": 83,
      "chip": "ym2612"
    },
    {
      "channel": 3,
      "note": 89,
      "start": 92.8984,
      "duration": 0.0799,
      "velocity": 83,
      "chip": "ym2612"
    },
    {
      "channel": 3,
      "note": 93,
      "start": 92.9984,
      "duration": 0.0799,
      "velocity": 83,
      "chip": "ym2612"
    },
    {
      "channel": 3,
      "note": 89,
      "start": 93.0984,
      "duration": 0.0799,
      "velocity": 83,
      "chip": "ym2612"
    },
    {
      "channel": 3,
      "note": 96,
      "start": 93.1988,
      "duration": 0.0629,
      "velocity": 83,
      "chip": "ym2612"
    },
    {
      "channel": 3,
      "note": 89,
      "start": 93.2817,
      "duration": 0.0799,
      "velocity": 83,
      "chip": "ym2612"
    },
    {
      "channel": 3,
      "note": 95,
      "start": 93.3817,
      "duration": 0.0798,
      "velocity": 83,
      "chip": "ym2612"
    },
    {
      "channel": 3,
      "note": 89,
      "start": 93.4816,
      "duration": 0.08,
      "velocity": 83,
      "chip": "ym2612"
    },
    {
      "channel": 5,
      "note": 76,
      "start": 93.5815,
      "duration": 1.4135,
      "velocity": 116,
      "chip": "ym2612"
    },
    {
      "channel": 0,
      "note": 76,
      "start": 93.5849,
      "duration": 1.3931,
      "velocity": 93,
      "chip": "ym2612"
    },
    {
      "channel": 1,
      "note": 40,
      "start": 93.5877,
      "duration": 0.5072,
      "velocity": 99,
      "chip": "ym2612"
    },
    {
      "channel": 3,
      "note": 92,
      "start": 93.5904,
      "duration": 0.0546,
      "velocity": 83,
      "chip": "ym2612"
    },
    {
      "channel": 3,
      "note": 88,
      "start": 93.665,
      "duration": 0.0799,
      "velocity": 83,
      "chip": "ym2612"
    },
    {
      "channel": 3,
      "note": 92,
      "start": 93.765,
      "duration": 0.0799,
      "velocity": 83,
      "chip": "ym2612"
    },
    {
      "channel": 3,
      "note": 88,
      "start": 93.865,
      "duration": 0.0799,
      "velocity": 83,
      "chip": "ym2612"
    },
    {
      "channel": 3,
      "note": 95,
      "start": 93.965,
      "duration": 0.0632,
      "velocity": 83,
      "chip": "ym2612"
    },
    {
      "channel": 3,
      "note": 88,
      "start": 94.0483,
      "duration": 0.0799,
      "velocity": 83,
      "chip": "ym2612"
    },
    {
      "channel": 1,
      "note": 44,
      "start": 94.1483,
      "duration": 0.7632,
      "velocity": 99,
      "chip": "ym2612"
    },
    {
      "channel": 3,
      "note": 92,
      "start": 94.151,
      "duration": 0.0772,
      "velocity": 83,
      "chip": "ym2612"
    },
    {
      "channel": 3,
      "note": 88,
      "start": 94.2483,
      "duration": 0.08,
      "velocity": 83,
      "chip": "ym2612"
    },
    {
      "channel": 3,
      "note": 95,
      "start": 94.3484,
      "duration": 0.0631,
      "velocity": 83,
      "chip": "ym2612"
    },
    {
      "channel": 3,
      "note": 88,
      "start": 94.4317,
      "duration": 0.0799,
      "velocity": 83,
      "chip": "ym2612"
    },
    {
      "channel": 3,
      "note": 96,
      "start": 94.5317,
      "duration": 0.0799,
      "velocity": 83,
      "chip": "ym2612"
    },
    {
      "channel": 3,
      "note": 88,
      "start": 94.6318,
      "duration": 0.0799,
      "velocity": 83,
      "chip": "ym2612"
    },
    {
      "channel": 3,
      "note": 95,
      "start": 94.732,
      "duration": 0.0629,
      "velocity": 83,
      "chip": "ym2612"
    },
    {
      "channel": 3,
      "note": 88,
      "start": 94.8151,
      "duration": 0.0798,
      "velocity": 83,
      "chip": "ym2612"
    },
    {
      "channel": 3,
      "note": 93,
      "start": 94.9151,
      "duration": 0.0797,
      "velocity": 83,
      "chip": "ym2612"
    },
    {
      "channel": 3,
      "note": 88,
      "start": 95.0149,
      "duration": 0.0799,
      "velocity": 83,
      "chip": "ym2612"
    },
    {
      "channel": 5,
      "note": 69,
      "start": 95.1149,
      "duration": 0.5135,
      "velocity": 116,
      "chip": "ym2612"
    },
    {
      "channel": 0,
      "note": 69,
      "start": 95.1183,
      "duration": 0.4932,
      "velocity": 93,
      "chip": "ym2612"
    },
    {
      "channel": 1,
      "note": 45,
      "start": 95.1215,
      "duration": 0.2901,
      "velocity": 99,
      "chip": "ym2612"
    },
    {
      "channel": 3,
      "note": 93,
      "start": 95.1243,
      "duration": 0.0539,
      "velocity": 83,
      "chip": "ym2612"
    },
    {
      "channel": 4,
      "note": 88,
      "start": 95.1271,
      "duration": 0.0513,
      "velocity": 83,
      "chip": "ym2612"
    },
    {
      "channel": 3,
      "note": 93,
      "start": 95.2984,
      "duration": 0.08,
      "velocity": 83,
      "chip": "ym2612"
    },
    {
      "channel": 3,
      "note": 88,
      "start": 95.3984,
      "duration": 0.0798,
      "velocity": 83,
      "chip": "ym2612"
    },
    {
      "channel": 1,
      "note": 43,
      "start": 95.4979,
      "duration": 0.297,
      "velocity": 99,
      "chip": "ym2612"
    },
    {
      "channel": 3,
      "note": 100,
      "start": 95.5006,
      "duration": 0.0645,
      "velocity": 83,
      "chip": "ym2612"
    },
    {
      "channel": 3,
      "note": 88,
      "start": 95.5817,
      "duration": 0.0799,
      "velocity": 83,
      "chip": "ym2612"
    },
    {
      "channel": 5,
      "note": 64,
      "start": 95.6814,
      "duration": 0.4803,
      "velocity": 116,
      "chip": "ym2612"
    },
    {
      "channel": 0,
      "note": 64,
      "start": 95.6846,
      "duration": 0.4602,
      "velocity": 93,
      "chip": "ym2612"
    },
    {
      "channel": 3,
      "note": 93,
      "start": 95.6875,
      "duration": 0.0741,
      "velocity": 83,
      "chip": "ym2612"
    },
    {
      "channel": 3,
      "note": 88,
      "start": 95.7817,
      "duration": 0.0799,
      "velocity": 83,
      "chip": "ym2612"
    },
    {
      "channel": 1,
      "note": 40,
      "start": 95.8814,
      "duration": 0.2968,
      "velocity": 99,
      "chip": "ym2612"
    },
    {
      "channel": 3,
      "note": 98,
      "start": 95.8841,
      "duration": 0.0646,
      "velocity": 83,
      "chip": "ym2612"
    },
    {
      "channel": 3,
      "note": 88,
      "start": 95.9654,
      "duration": 0.0795,
      "velocity": 83,
      "chip": "ym2612"
    },
    {
      "channel": 3,
      "note": 93,
      "start": 96.065,
      "duration": 0.08,
      "velocity": 83,
      "chip": "ym2612"
    },
    {
      "channel": 3,
      "note": 88,
      "start": 96.1652,
      "duration": 0.0798,
      "velocity": 83,
      "chip": "ym2612"
    },
    {
      "channel": 5,
      "note": 76,
      "start": 96.2649,
      "duration": 0.8635,
      "velocity": 116,
      "chip": "ym2612"
    },
    {
      "channel": 0,
      "note": 76,
      "start": 96.2683,
      "duration": 0.847,
      "velocity": 93,
      "chip": "ym2612"
    },
    {
      "channel": 1,
      "note": 45,
      "start": 96.2707,
      "duration": 0.2908,
      "velocity": 99,
      "chip": "ym2612"
    },
    {
      "channel": 3,
      "note": 96,
      "start": 96.2734,
      "duration": 0.0583,
      "velocity": 83,
      "chip": "ym2612"
    },
    {
      "channel": 3,
      "note": 88,
      "start": 96.3483,
      "duration": 0.08,
      "velocity": 83,
      "chip": "ym2612"
    },
    {
      "channel": 3,
      "note": 95,
      "start": 96.4484,
      "duration": 0.0799,
      "velocity": 83,
      "chip": "ym2612"
    },
    {
      "channel": 3,
      "note": 88,
      "start": 96.5483,
      "duration": 0.08,
      "velocity": 83,
      "chip": "ym2612"
    },
    {
      "channel": 1,
      "note": 33,
      "start": 96.648,
      "duration": 0.2969,
      "velocity": 99,
      "chip": "ym2612"
    },
    {
      "channel": 3,
      "note": 93,
      "start": 96.6507,
      "duration": 0.0645,
      "velocity": 83,
      "chip": "ym2612"
    },
    {
      "channel": 3,
      "note": 88,
      "start": 96.7317,
      "duration": 0.0799,
      "velocity": 83,
      "chip": "ym2612"
    },
    {
      "channel": 3,
      "note": 93,
      "start": 96.8318,
      "duration": 0.0799,
      "velocity": 83,
      "chip": "ym2612"
    },
    {
      "channel": 3,
      "note": 88,
      "start": 96.9317,
      "duration": 0.0799,
      "velocity": 83,
      "chip": "ym2612"
    },
    {
      "channel": 1,
      "note": 35,
      "start": 97.0313,
      "duration": 0.297,
      "velocity": 99,
      "chip": "ym2612"
    },
    {
      "channel": 3,
      "note": 100,
      "start": 97.034,
      "duration": 0.0777,
      "velocity": 83,
      "chip": "ym2612"
    },
    {
      "channel": 3,
      "note": 88,
      "start": 97.1189,
      "duration": 0.076,
      "velocity": 83,
      "chip": "ym2612"
    },
    {
      "channel": 5,
      "note": 72,
      "start": 97.2149,
      "duration": 0.4969,
      "velocity": 116,
      "chip": "ym2612"
    },
    {
      "channel": 0,
      "note": 72,
      "start": 97.2187,
      "duration": 0.4762,
      "velocity": 93,
      "chip": "ym2612"
    },
    {
      "channel": 3,
      "note": 93,
      "start": 97.2215,
      "duration": 0.0735,
      "velocity": 83,
      "chip": "ym2612"
    },
    {
      "channel": 3,
      "note": 88,
      "start": 97.315,
      "duration": 0.0798,
      "velocity": 83,
      "chip": "ym2612"
    },
    {
      "channel": 1,
      "note": 36,
      "start": 97.4147,
      "duration": 0.2968,
      "velocity": 99,
      "chip": "ym2612"
    },
    {
      "channel": 3,
      "note": 98,
      "start": 97.4174,
      "duration": 0.0776,
      "velocity": 83,
      "chip": "ym2612"
    },
    {
      "channel": 3,
      "note": 88,
      "start": 97.5026,
      "duration": 0.0757,
      "velocity": 83,
      "chip": "ym2612"
    },
    {
      "channel": 3,
      "note": 93,
      "start": 97.5984,
      "duration": 0.0798,
      "velocity": 83,
      "chip": "ym2612"
    },
    {
      "channel": 3,
      "note": 88,
      "start": 97.6985,
      "duration": 0.0798,
      "velocity": 83,
      "chip": "ym2612"
    },
    {
      "channel": 5,
      "note": 69,
      "start": 97.7986,
      "duration": 0.3464,
      "velocity": 116,
      "chip": "ym2612"
    },
    {
      "channel": 0,
      "note": 69,
      "start": 97.802,
      "duration": 0.4095,
      "velocity": 93,
      "chip": "ym2612"
    },
    {
      "channel": 1,
      "note": 40,
      "start": 97.8044,
      "duration": 0.2905,
      "velocity": 99,
      "chip": "ym2612"
    },
    {
      "channel": 3,
      "note": 96,
      "start": 97.8071,
      "duration": 0.0711,
      "velocity": 83,
      "chip": "ym2612"
    },
    {
      "channel": 3,
      "note": 88,
      "start": 97.8853,
      "duration": 0.0763,
      "velocity": 83,
      "chip": "ym2612"
    },
    {
      "channel": 3,
      "note": 95,
      "start": 97.9817,
      "duration": 0.08,
      "velocity": 83,
      "chip": "ym2612"
    },
    {
      "channel": 3,
      "note": 88,
      "start": 98.0818,
      "duration": 0.0798,
      "velocity": 83,
      "chip": "ym2612"
    },
    {
      "channel": 5,
      "note": 77,
      "start": 98.1816,
      "duration": 0.4802,
      "velocity": 116,
      "chip": "ym2612"
    },
    {
      "channel": 2,
      "note": 77,
      "start": 98.1853,
      "duration": 0.4599,
      "velocity": 93,
      "chip": "ym2612"
    },
    {
      "channel": 1,
      "note": 38,
      "start": 98.1878,
      "duration": 0.2905,
      "velocity": 99,
      "chip": "ym2612"
    },
    {
      "channel": 3,
      "note": 93,
      "start": 98.1904,
      "duration": 0.0711,
      "velocity": 83,
      "chip": "ym2612"
    },
    {
      "channel": 3,
      "note": 89,
      "start": 98.2817,
      "duration": 0.0632,
      "velocity": 83,
      "chip": "ym2612"
    },
    {
      "channel": 3,
      "note": 93,
      "start": 98.3651,
      "duration": 0.0799,
      "velocity": 83,
      "chip": "ym2612"
    },
    {
      "channel": 3,
      "note": 89,
      "start": 98.4651,
      "duration": 0.0798,
      "velocity": 83,
      "chip": "ym2612"
    },
    {
      "channel": 1,
      "note": 50,
      "start": 98.5646,
      "duration": 0.297,
      "velocity": 99,
      "chip": "ym2612"
    },
    {
      "channel": 3,
      "note": 100,
      "start": 98.5673,
      "duration": 0.0776,
      "velocity": 83,
      "chip": "ym2612"
    },
    {
      "channel": 3,
      "note": 89,
      "start": 98.6652,
      "duration": 0.0631,
      "velocity": 83,
      "chip": "ym2612"
    },
    {
      "channel": 5,
      "note": 76,
      "start": 98.7479,
      "duration": 0.4804,
      "velocity": 116,
      "chip": "ym2612"
    },
    {
      "channel": 0,
      "note": 76,
      "start": 98.751,
      "duration": 0.4604,
      "velocity": 93,
      "chip": "ym2612"
    },
    {
      "channel": 3,
      "note": 93,
      "start": 98.7538,
      "duration": 0.0745,
      "velocity": 83,
      "chip": "ym2612"
    },
    {
      "channel": 3,
      "note": 89,
      "start": 98.8484,
      "duration": 0.0798,
      "velocity": 83,
      "chip": "ym2612"
    },
    {
      "channel": 1,
      "note": 38,
      "start": 98.948,
      "duration": 0.2969,
      "velocity": 99,
      "chip": "ym2612"
    },
    {
      "channel": 3,
      "note": 98,
      "start": 98.9507,
      "duration": 0.0776,
      "velocity": 83,
      "chip": "ym2612"
    },
    {
      "channel": 3,
      "note": 89,
      "start": 99.0488,
      "duration": 0.0629,
      "velocity": 83,
      "chip": "ym2612"
    },
    {
      "channel": 3,
      "note": 93,
      "start": 99.1317,
      "duration": 0.0799,
      "velocity": 83,
      "chip": "ym2612"
    },
    {
      "channel": 3,
      "note": 89,
      "start": 99.2318,
      "duration": 0.0798,
      "velocity": 83,
      "chip": "ym2612"
    },
    {
      "channel": 5,
      "note": 72,
      "start": 99.3315,
      "duration": 0.3469,
      "velocity": 116,
      "chip": "ym2612"
    },
    {
      "channel": 0,
      "note": 72,
      "start": 99.3349,
      "duration": 0.3432,
      "velocity": 93,
      "chip": "ym2612"
    },
    {
      "channel": 1,
      "note": 39,
      "start": 99.3374,
      "duration": 0.2908,
      "velocity": 99,
      "chip": "ym2612"
    },
    {
      "channel": 3,
      "note": 96,
      "start": 99.3401,
      "duration": 0.0716,
      "velocity": 83,
      "chip": "ym2612"
    },
    {
      "channel": 3,
      "note": 89,
      "start": 99.4318,
      "duration": 0.0631,
      "velocity": 83,
      "chip": "ym2612"
    },
    {
      "channel": 3,
      "note": 95,
      "start": 99.515,
      "duration": 0.08,
      "velocity": 83,
      "chip": "ym2612"
    },
    {
      "channel": 3,
      "note": 89,
      "start": 99.615,
      "duration": 0.0798,
      "velocity": 83,
      "chip": "ym2612"
    },
    {
      "channel": 5,
      "note": 68,
      "start": 99.7149,
      "duration": 0.5635,
      "velocity": 116,
      "chip": "ym2612"
    },
    {
      "channel": 0,
      "note": 68,
      "start": 99.7183,
      "duration": 0.5432,
      "velocity": 93,
      "chip": "ym2612"
    },
    {
      "channel": 1,
      "note": 40,
      "start": 99.7207,
      "duration": 0.2908,
      "velocity": 99,
      "chip": "ym2612"
    },
    {
      "channel": 3,
      "note": 92,
      "start": 99.7234,
      "duration": 0.0716,
      "velocity": 83,
      "chip": "ym2612"
    },
    {
      "channel": 3,
      "note": 88,
      "start": 99.8151,
      "duration": 0.0631,
      "velocity": 83,
      "chip": "ym2612"
    },
    {
      "channel": 3,
      "note": 92,
      "start": 99.8983,
      "duration": 0.08,
      "velocity": 83,
      "chip": "ym2612"
    },
    {
      "channel": 3,
      "note": 88,
      "start": 99.9984,
      "duration": 0.0798,
      "velocity": 83,
      "chip": "ym2612"
    },
    {
      "channel": 1,
      "note": 38,
      "start": 100.098,
      "duration": 0.2969,
      "velocity": 99,
      "chip": "ym2612"
    },
    {
      "channel": 3,
      "note": 95,
      "start": 100.1007,
      "duration": 0.0775,
      "velocity": 83,
      "chip": "ym2612"
    },
    {
      "channel": 3,
      "note": 88,
      "start": 100.1983,
      "duration": 0.0634,
      "velocity": 83,
      "chip": "ym2612"
    },
    {
      "channel": 5,
      "note": 69,
      "start": 100.2815,
      "duration": 0.5135,
      "velocity": 116,
      "chip": "ym2612"
    },
    {
      "channel": 0,
      "note": 69,
      "start": 100.2851,
      "duration": 0.4931,
      "velocity": 93,
      "chip": "ym2612"
    },
    {
      "channel": 3,
      "note": 92,
      "start": 100.2879,
      "duration": 0.0737,
      "velocity": 83,
      "chip": "ym2612"
    },
    {
      "channel": 3,
      "note": 88,
      "start": 100.3817,
      "duration": 0.0798,
      "velocity": 83,
      "chip": "ym2612"
    },
    {
      "channel": 1,
      "note": 36,
      "start": 100.4814,
      "duration": 0.2969,
      "velocity": 99,
      "chip": "ym2612"
    },
    {
      "channel": 3,
      "note": 98,
      "start": 100.4841,
      "duration": 0.0776,
      "velocity": 83,
      "chip": "ym2612"
    },
    {
      "channel": 3,
      "note": 88,
      "start": 100.5821,
      "duration": 0.0629,
      "velocity": 83,
      "chip": "ym2612"
    },
    {
      "channel": 3,
      "note": 92,
      "start": 100.665,
      "duration": 0.0798,
      "velocity": 83,
      "chip": "ym2612"
    },
    {
      "channel": 3,
      "note": 88,
      "start": 100.765,
      "duration": 0.0799,
      "velocity": 83,
      "chip": "ym2612"
    },
    {
      "channel": 5,
      "note": 71,
      "start": 100.8653,
      "duration": 0.2965,
      "velocity": 116,
      "chip": "ym2612"
    },
    {
      "channel": 0,
      "note": 71,
      "start": 100.8687,
      "duration": 0.2927,
      "velocity": 93,
      "chip": "ym2612"
    },
    {
      "channel": 1,
      "note": 35,
      "start": 100.8711,
      "duration": 0.2904,
      "velocity": 99,
      "chip": "ym2612"
    },
    {
      "channel": 3,
      "note": 96,
      "start": 100.8739,
      "duration": 0.071,
      "velocity": 83,
      "chip": "ym2612"
    },
    {
      "channel": 3,
      "note": 88,
      "start": 100.965,
      "duration": 0.0632,
      "velocity": 83,
      "chip": "ym2612"
    },
    {
      "channel": 3,
      "note": 95,
      "start": 101.0484,
      "duration": 0.0799,
      "velocity": 83,
      "chip": "ym2612"
    },
    {
      "channel": 3,
      "note": 88,
      "start": 101.1483,
      "duration": 0.0799,
      "velocity": 83,
      "chip": "ym2612"
    },
    {
      "channel": 5,
      "note": 69,
      "start": 101.2482,
      "duration": 0.4968,
      "velocity": 116,
      "chip": "ym2612"
    },
    {
      "channel": 0,
      "note": 69,
      "start": 101.2517,
      "duration": 0.4764,
      "velocity": 93,
      "chip": "ym2612"
    },
    {
      "channel": 1,
      "note": 33,
      "start": 101.2545,
      "duration": 0.2904,
      "velocity": 99,
      "chip": "ym2612"
    },
    {
      "channel": 3,
      "note": 93,
      "start": 101.2572,
      "duration": 0.071,
      "velocity": 83,
      "chip": "ym2612"
    },
    {
      "channel": 3,
      "note": 88,
      "start": 101.3484,
      "duration": 0.0631,
      "velocity": 83,
      "chip": "ym2612"
    },
    {
      "channel": 3,
      "note": 93,
      "start": 101.4318,
      "duration": 0.0799,
      "velocity": 83,
      "chip": "ym2612"
    },
    {
      "channel": 3,
      "note": 88,
      "start": 101.5317,
      "duration": 0.0799,
      "velocity": 83,
      "chip": "ym2612"
    },
    {
      "channel": 1,
      "note": 45,
      "start": 101.6312,
      "duration": 0.297,
      "velocity": 99,
      "chip": "ym2612"
    },
    {
      "channel": 3,
      "note": 100,
      "start": 101.6339,
      "duration": 0.0776,
      "velocity": 83,
      "chip": "ym2612"
    },
    {
      "channel": 3,
      "note": 88,
      "start": 101.7317,
      "duration": 0.0632,
      "velocity": 83,
      "chip": "ym2612"
    },
    {
      "channel": 5,
      "note": 64,
      "start": 101.8147,
      "duration": 0.4803,
      "velocity": 116,
      "chip": "ym2612"
    },
    {
      "channel": 0,
      "note": 64,
      "start": 101.818,
      "duration": 0.4602,
      "velocity": 93,
      "chip": "ym2612"
    },
    {
      "channel": 3,
      "note": 93,
      "start": 101.8208,
      "duration": 0.0741,
      "velocity": 83,
      "chip": "ym2612"
    },
    {
      "channel": 3,
      "note": 88,
      "start": 101.915,
      "duration": 0.08,
      "velocity": 83,
      "chip": "ym2612"
    },
    {
      "channel": 1,
      "note": 33,
      "start": 102.0146,
      "duration": 0.297,
      "velocity": 99,
      "chip": "ym2612"
    },
    {
      "channel": 3,
      "note": 98,
      "start": 102.0174,
      "duration": 0.0776,
      "velocity": 83,
      "chip": "ym2612"
    },
    {
      "channel": 3,
      "note": 88,
      "start": 102.1154,
      "duration": 0.0629,
      "velocity": 83,
      "chip": "ym2612"
    },
    {
      "channel": 3,
      "note": 93,
      "start": 102.1984,
      "duration": 0.0799,
      "velocity": 83,
      "chip": "ym2612"
    },
    {
      "channel": 3,
      "note": 88,
      "start": 102.2984,
      "duration": 0.0798,
      "velocity": 83,
      "chip": "ym2612"
    },
    {
      "channel": 5,
      "note": 76,
      "start": 102.3982,
      "duration": 0.9135,
      "velocity": 116,
      "chip": "ym2612"
    },
    {
      "channel": 0,
      "note": 76,
      "start": 102.4017,
      "duration": 0.8931,
      "velocity": 93,
      "chip": "ym2612"
    },
    {
      "channel": 1,
      "note": 36,
      "start": 102.4041,
      "duration": 0.2907,
      "velocity": 99,
      "chip": "ym2612"
    },
    {
      "channel": 3,
      "note": 96,
      "start": 102.4068,
      "duration": 0.0715,
      "velocity": 83,
      "chip": "ym2612"
    },
    {
      "channel": 3,
      "note": 88,
      "start": 102.4984,
      "duration": 0.0632,
      "velocity": 83,
      "chip": "ym2612"
    },
    {
      "channel": 3,
      "note": 95,
      "start": 102.5817,
      "duration": 0.0799,
      "velocity": 83,
      "chip": "ym2612"
    },
    {
      "channel": 3,
      "note": 88,
      "start": 102.6816,
      "duration": 0.08,
      "velocity": 83,
      "chip": "ym2612"
    },
    {
      "channel": 1,
      "note": 40,
      "start": 102.7813,
      "duration": 0.2968,
      "velocity": 99,
      "chip": "ym2612"
    },
    {
      "channel": 3,
      "note": 93,
      "start": 102.784,
      "duration": 0.0776,
      "velocity": 83,
      "chip": "ym2612"
    },
    {
      "channel": 3,
      "note": 88,
      "start": 102.8817,
      "duration": 0.0632,
      "velocity": 83,
      "chip": "ym2612"
    },
    {
      "channel": 3,
      "note": 93,
      "start": 102.965,
      "duration": 0.08,
      "velocity": 83,
      "chip": "ym2612"
    },
    {
      "channel": 3,
      "note": 88,
      "start": 103.0651,
      "duration": 0.0799,
      "velocity": 83,
      "chip": "ym2612"
    },
    {
      "channel": 1,
      "note": 33,
      "start": 103.1646,
      "duration": 0.297,
      "velocity": 99,
      "chip": "ym2612"
    },
    {
      "channel": 3,
      "note": 100,
      "start": 103.1673,
      "duration": 0.0776,
      "velocity": 83,
      "chip": "ym2612"
    },
    {
      "channel": 3,
      "note": 88,
      "start": 103.265,
      "duration": 0.0632,
      "velocity": 83,
      "chip": "ym2612"
    },
    {
      "channel": 5,
      "note": 72,
      "start": 103.3483,
      "duration": 0.4968,
      "velocity": 116,
      "chip": "ym2612"
    },
    {
      "channel": 0,
      "note": 72,
      "start": 103.3517,
      "duration": 0.4931,
      "velocity": 93,
      "chip": "ym2612"
    },
    {
      "channel": 3,
      "note": 93,
      "start": 103.3545,
      "duration": 0.0738,
      "velocity": 83,
      "chip": "ym2612"
    },
    {
      "channel": 3,
      "note": 88,
      "start": 103.4484,
      "duration": 0.0798,
      "velocity": 83,
      "chip": "ym2612"
    },
    {
      "channel": 1,
      "note": 39,
      "start": 103.548,
      "duration": 0.2968,
      "velocity": 99,
      "chip": "ym2612"
    },
    {
      "channel": 3,
      "note": 98,
      "start": 103.5507,
      "duration": 0.0776,
      "velocity": 83,
      "chip": "ym2612"
    },
    {
      "channel": 3,
      "note": 88,
      "start": 103.6488,
      "duration": 0.0629,
      "velocity": 83,
      "chip": "ym2612"
    },
    {
      "channel": 3,
      "note": 93,
      "start": 103.7316,
      "duration": 0.08,
      "velocity": 83,
      "chip": "ym2612"
    },
    {
      "channel": 3,
      "note": 88,
      "start": 103.8316,
      "duration": 0.08,
      "velocity": 83,
      "chip": "ym2612"
    },
    {
      "channel": 5,
      "note": 69,
      "start": 103.9315,
      "duration": 0.3135,
      "velocity": 116,
      "chip": "ym2612"
    },
    {
      "channel": 0,
      "note": 69,
      "start": 103.9353,
      "duration": 0.3095,
      "velocity": 93,
      "chip": "ym2612"
    },
    {
      "channel": 1,
      "note": 40,
      "start": 103.9378,
      "duration": 0.2905,
      "velocity": 99,
      "chip": "ym2612"
    },
    {
      "channel": 3,
      "note": 96,
      "start": 103.9404,
      "duration": 0.0711,
      "velocity": 83,
      "chip": "ym2612"
    },
    {
      "channel": 3,
      "note": 88,
      "start": 104.0317,
      "duration": 0.0667,
      "velocity": 83,
      "chip": "ym2612"
    },
    {
      "channel": 3,
      "note": 95,
      "start": 104.115,
      "duration": 0.08,
      "velocity": 83,
      "chip": "ym2612"
    },
    {
      "channel": 3,
      "note": 88,
      "start": 104.215,
      "duration": 0.0798,
      "velocity": 83,
      "chip": "ym2612"
    },
    {
      "channel": 5,
      "note": 77,
      "start": 104.3153,
      "duration": 0.5298,
      "velocity": 116,
      "chip": "ym2612"
    },
    {
      "channel": 0,
      "note": 77,
      "start": 104.3187,
      "duration": 0.5261,
      "velocity": 93,
      "chip": "ym2612"
    },
    {
      "channel": 1,
      "note": 38,
      "start": 104.3211,
      "duration": 0.2904,
      "velocity": 99,
      "chip": "ym2612"
    },
    {
      "channel": 3,
      "note": 93,
      "start": 104.3239,
      "duration": 0.071,
      "velocity": 83,
      "chip": "ym2612"
    },
    {
      "channel": 3,
      "note": 89,
      "start": 104.415,
      "duration": 0.0667,
      "velocity": 83,
      "chip": "ym2612"
    },
    {
      "channel": 3,
      "note": 93,
      "start": 104.4984,
      "duration": 0.08,
      "velocity": 83,
      "chip": "ym2612"
    },
    {
      "channel": 3,
      "note": 89,
      "start": 104.5984,
      "duration": 0.0798,
      "velocity": 83,
      "chip": "ym2612"
    },
    {
      "channel": 1,
      "note": 40,
      "start": 104.698,
      "duration": 0.2968,
      "velocity": 99,
      "chip": "ym2612"
    },
    {
      "channel": 3,
      "note": 100,
      "start": 104.7007,
      "duration": 0.0775,
      "velocity": 83,
      "chip": "ym2612"
    },
    {
      "channel": 3,
      "note": 89,
      "start": 104.7984,
      "duration": 0.0669,
      "velocity": 83,
      "chip": "ym2612"
    },
    {
      "channel": 5,
      "note": 79,
      "start": 104.8814,
      "duration": 0.4803,
      "velocity": 116,
      "chip": "ym2612"
    },
    {
      "channel": 0,
      "note": 79,
      "start": 104.8847,
      "duration": 0.4601,
      "velocity": 93,
      "chip": "ym2612"
    },
    {
      "channel": 3,
      "note": 93,
      "start": 104.8875,
      "duration": 0.0741,
      "velocity": 83,
      "chip": "ym2612"
    },
    {
      "channel": 3,
      "note": 89,
      "start": 104.9816,
      "duration": 0.08,
      "velocity": 83,
      "chip": "ym2612"
    },
    {
      "channel": 1,
      "note": 41,
      "start": 105.0812,
      "duration": 0.297,
      "velocity": 99,
      "chip": "ym2612"
    },
    {
      "channel": 3,
      "note": 98,
      "start": 105.084,
      "duration": 0.0776,
      "velocity": 83,
      "chip": "ym2612"
    },
    {
      "channel": 3,
      "note": 89,
      "start": 105.182,
      "duration": 0.0666,
      "velocity": 83,
      "chip": "ym2612"
    },
    {
      "channel": 3,
      "note": 93,
      "start": 105.265,
      "duration": 0.0799,
      "velocity": 83,
      "chip": "ym2612"
    },
    {
      "channel": 3,
      "note": 89,
      "start": 105.3651,
      "duration": 0.0798,
      "velocity": 83,
      "chip": "ym2612"
    },
    {
      "channel": 5,
      "note": 77,
      "start": 105.4649,
      "duration": 0.3135,
      "velocity": 116,
      "chip": "ym2612"
    },
    {
      "channel": 0,
      "note": 77,
      "start": 105.4683,
      "duration": 0.2931,
      "velocity": 93,
      "chip": "ym2612"
    },
    {
      "channel": 1,
      "note": 45,
      "start": 105.4707,
      "duration": 0.2908,
      "velocity": 99,
      "chip": "ym2612"
    },
    {
      "channel": 3,
      "note": 96,
      "start": 105.4734,
      "duration": 0.0715,
      "velocity": 83,
      "chip": "ym2612"
    },
    {
      "channel": 3,
      "note": 89,
      "start": 105.565,
      "duration": 0.0799,
      "velocity": 83,
      "chip": "ym2612"
    },
    {
      "channel": 3,
      "note": 95,
      "start": 105.6519,
      "duration": 0.0764,
      "velocity": 83,
      "chip": "ym2612"
    },
    {
      "channel": 3,
      "note": 89,
      "start": 105.7483,
      "duration": 0.08,
      "velocity": 83,
      "chip": "ym2612"
    },
    {
      "channel": 5,
      "note": 76,
      "start": 105.8482,
      "duration": 0.5301,
      "velocity": 116,
      "chip": "ym2612"
    },
    {
      "channel": 0,
      "note": 76,
      "start": 105.8515,
      "duration": 0.51,
      "velocity": 93,
      "chip": "ym2612"
    },
    {
      "channel": 1,
      "note": 40,
      "start": 105.854,
      "duration": 0.2908,
      "velocity": 99,
      "chip": "ym2612"
    },
    {
      "channel": 3,
      "note": 92,
      "start": 105.8567,
      "duration": 0.0716,
      "velocity": 83,
      "chip": "ym2612"
    },
    {
      "channel": 3,
      "note": 88,
      "start": 105.9484,
      "duration": 0.0798,
      "velocity": 83,
      "chip": "ym2612"
    },
    {
      "channel": 3,
      "note": 92,
      "start": 106.0353,
      "duration": 0.0764,
      "velocity": 83,
      "chip": "ym2612"
    },
    {
      "channel": 3,
      "note": 88,
      "start": 106.1317,
      "duration": 0.0798,
      "velocity": 83,
      "chip": "ym2612"
    },
    {
      "channel": 1,
      "note": 43,
      "start": 106.2314,
      "duration": 0.2969,
      "velocity": 99,
      "chip": "ym2612"
    },
    {
      "channel": 3,
      "note": 95,
      "start": 106.2341,
      "duration": 0.0775,
      "velocity": 83,
      "chip": "ym2612"
    },
    {
      "channel": 3,
      "note": 88,
      "start": 106.3317,
      "duration": 0.0799,
      "velocity": 83,
      "chip": "ym2612"
    },
    {
      "channel": 5,
      "note": 74,
      "start": 106.4185,
      "duration": 0.5433,
      "velocity": 116,
      "chip": "ym2612"
    },
    {
      "channel": 0,
      "note": 74,
      "start": 106.4218,
      "duration": 0.5398,
      "velocity": 93,
      "chip": "ym2612"
    },
    {
      "channel": 3,
      "note": 92,
      "start": 106.4246,
      "duration": 0.0704,
      "velocity": 83,
      "chip": "ym2612"
    },
    {
      "channel": 3,
      "note": 88,
      "start": 106.515,
      "duration": 0.0798,
      "velocity": 83,
      "chip": "ym2612"
    },
    {
      "channel": 1,
      "note": 47,
      "start": 106.6147,
      "duration": 0.2968,
      "velocity": 99,
      "chip": "ym2612"
    },
    {
      "channel": 3,
      "note": 95,
      "start": 106.6174,
      "duration": 0.0776,
      "velocity": 83,
      "chip": "ym2612"
    },
    {
      "channel": 3,
      "note": 88,
      "start": 106.7154,
      "duration": 0.0795,
      "velocity": 83,
      "chip": "ym2612"
    },
    {
      "channel": 3,
      "note": 96,
      "start": 106.815,
      "duration": 0.0632,
      "velocity": 83,
      "chip": "ym2612"
    },
    {
      "channel": 3,
      "note": 88,
      "start": 106.8983,
      "duration": 0.08,
      "velocity": 83,
      "chip": "ym2612"
    },
    {
      "channel": 5,
      "note": 72,
      "start": 106.9982,
      "duration": 0.3136,
      "velocity": 116,
      "chip": "ym2612"
    },
    {
      "channel": 0,
      "note": 72,
      "start": 107.002,
      "duration": 0.3095,
      "velocity": 93,
      "chip": "ym2612"
    },
    {
      "channel": 1,
      "note": 43,
      "start": 107.0044,
      "duration": 0.2904,
      "velocity": 99,
      "chip": "ym2612"
    },
    {
      "channel": 3,
      "note": 95,
      "start": 107.0071,
      "duration": 0.0711,
      "velocity": 83,
      "chip": "ym2612"
    },
    {
      "channel": 3,
      "note": 88,
      "start": 107.0984,
      "duration": 0.0799,
      "velocity": 83,
      "chip": "ym2612"
    },
    {
      "channel": 3,
      "note": 93,
      "start": 107.1984,
      "duration": 0.0632,
      "velocity": 83,
      "chip": "ym2612"
    },
    {
      "channel": 3,
      "note": 88,
      "start": 107.2816,
      "duration": 0.08,
      "velocity": 83,
      "chip": "ym2612"
    },
    {
      "channel": 5,
      "note": 69,
      "start": 107.3818,
      "duration": 0.5298,
      "velocity": 116,
      "chip": "ym2612"
    },
    {
      "channel": 0,
      "note": 69,
      "start": 107.3853,
      "duration": 0.5096,
      "velocity": 93,
      "chip": "ym2612"
    },
    {
      "channel": 1,
      "note": 41,
      "start": 107.3881,
      "duration": 0.2901,
      "velocity": 99,
      "chip": "ym2612"
    },
    {
      "channel": 3,
      "note": 93,
      "start": 107.3908,
      "duration": 0.0709,
      "velocity": 83,
      "chip": "ym2612"
    },
    {
      "channel": 3,
      "note": 84,
      "start": 107.4818,
      "duration": 0.0798,
      "velocity": 83,
      "chip": "ym2612"
    },
    {
      "channel": 3,
      "note": 89,
      "start": 107.5817,
      "duration": 0.0633,
      "velocity": 83,
      "chip": "ym2612"
    },
    {
      "channel": 3,
      "note": 84,
      "start": 107.665,
      "duration": 0.0799,
      "velocity": 83,
      "chip": "ym2612"
    },
    {
      "channel": 1,
      "note": 41,
      "start": 107.7646,
      "duration": 0.297,
      "velocity": 99,
      "chip": "ym2612"
    },
    {
      "channel": 3,
      "note": 93,
      "start": 107.7673,
      "duration": 0.0776,
      "velocity": 83,
      "chip": "ym2612"
    },
    {
      "channel": 3,
      "note": 84,
      "start": 107.8651,
      "duration": 0.0798,
      "velocity": 83,
      "chip": "ym2612"
    },
    {
      "channel": 5,
      "note": 65,
      "start": 107.9647,
      "duration": 0.547,
      "velocity": 116,
      "chip": "ym2612"
    },
    {
      "channel": 0,
      "note": 65,
      "start": 107.968,
      "duration": 0.5269,
      "velocity": 93,
      "chip": "ym2612"
    },
    {
      "channel": 3,
      "note": 96,
      "start": 107.9708,
      "duration": 0.0575,
      "velocity": 83,
      "chip": "ym2612"
    },
    {
      "channel": 3,
      "note": 84,
      "start": 108.0484,
      "duration": 0.0798,
      "velocity": 83,
      "chip": "ym2612"
    },
    {
      "channel": 1,
      "note": 41,
      "start": 108.1479,
      "duration": 0.2969,
      "velocity": 99,
      "chip": "ym2612"
    },
    {
      "channel": 3,
      "note": 93,
      "start": 108.1506,
      "duration": 0.0777,
      "velocity": 83,
      "chip": "ym2612"
    },
    {
      "channel": 3,
      "note": 84,
      "start": 108.2487,
      "duration": 0.0795,
      "velocity": 83,
      "chip": "ym2612"
    },
    {
      "channel": 3,
      "note": 89,
      "start": 108.3484,
      "duration": 0.0632,
      "velocity": 83,
      "chip": "ym2612"
    },
    {
      "channel": 3,
      "note": 84,
      "start": 108.4317,
      "duration": 0.0798,
      "velocity": 83,
      "chip": "ym2612"
    },
    {
      "channel": 5,
      "note": 74,
      "start": 108.5316,
      "duration": 0.28,
      "velocity": 116,
      "chip": "ym2612"
    },
    {
      "channel": 0,
      "note": 74,
      "start": 108.535,
      "duration": 0.2599,
      "velocity": 93,
      "chip": "ym2612"
    },
    {
      "channel": 1,
      "note": 41,
      "start": 108.5374,
      "duration": 0.2908,
      "velocity": 99,
      "chip": "ym2612"
    },
    {
      "channel": 3,
      "note": 93,
      "start": 108.5402,
      "duration": 0.0714,
      "velocity": 83,
      "chip": "ym2612"
    },
    {
      "channel": 3,
      "note": 84,
      "start": 108.6317,
      "duration": 0.0799,
      "velocity": 83,
      "chip": "ym2612"
    },
    {
      "channel": 3,
      "note": 96,
      "start": 108.7317,
      "duration": 0.0634,
      "velocity": 83,
      "chip": "ym2612"
    },
    {
      "channel": 3,
      "note": 84,
      "start": 108.815,
      "duration": 0.0799,
      "velocity": 83,
      "chip": "ym2612"
    },
    {
      "channel": 5,
      "note": 71,
      "start": 108.9149,
      "duration": 0.5635,
      "velocity": 116,
      "chip": "ym2612"
    },
    {
      "channel": 0,
      "note": 71,
      "start": 108.9182,
      "duration": 0.5433,
      "velocity": 93,
      "chip": "ym2612"
    },
    {
      "channel": 1,
      "note": 41,
      "start": 108.9207,
      "duration": 0.2908,
      "velocity": 99,
      "chip": "ym2612"
    },
    {
      "channel": 3,
      "note": 98,
      "start": 108.9234,
      "duration": 0.0716,
      "velocity": 83,
      "chip": "ym2612"
    },
    {
      "channel": 3,
      "note": 84,
      "start": 109.0151,
      "duration": 0.0798,
      "velocity": 83,
      "chip": "ym2612"
    },
    {
      "channel": 3,
      "note": 95,
      "start": 109.115,
      "duration": 0.0633,
      "velocity": 83,
      "chip": "ym2612"
    },
    {
      "channel": 3,
      "note": 84,
      "start": 109.1984,
      "duration": 0.0799,
      "velocity": 83,
      "chip": "ym2612"
    },
    {
      "channel": 1,
      "note": 41,
      "start": 109.298,
      "duration": 0.297,
      "velocity": 99,
      "chip": "ym2612"
    },
    {
      "channel": 3,
      "note": 91,
      "start": 109.3007,
      "duration": 0.0776,
      "velocity": 83,
      "chip": "ym2612"
    },
    {
      "channel": 3,
      "note": 84,
      "start": 109.3983,
      "duration": 0.0799,
      "velocity": 83,
      "chip": "ym2612"
    },
    {
      "channel": 5,
      "note": 67,
      "start": 109.4979,
      "duration": 0.5473,
      "velocity": 116,
      "chip": "ym2612"
    },
    {
      "channel": 0,
      "note": 67,
      "start": 109.5012,
      "duration": 0.5437,
      "velocity": 93,
      "chip": "ym2612"
    },
    {
      "channel": 3,
      "note": 98,
      "start": 109.504,
      "duration": 0.0576,
      "velocity": 83,
      "chip": "ym2612"
    },
    {
      "channel": 3,
      "note": 84,
      "start": 109.5817,
      "duration": 0.0798,
      "velocity": 83,
      "chip": "ym2612"
    },
    {
      "channel": 1,
      "note": 41,
      "start": 109.6812,
      "duration": 0.2969,
      "velocity": 99,
      "chip": "ym2612"
    },
    {
      "channel": 3,
      "note": 95,
      "start": 109.6839,
      "duration": 0.0777,
      "velocity": 83,
      "chip": "ym2612"
    },
    {
      "channel": 3,
      "note": 84,
      "start": 109.7821,
      "duration": 0.0795,
      "velocity": 83,
      "chip": "ym2612"
    },
    {
      "channel": 3,
      "note": 91,
      "start": 109.8817,
      "duration": 0.0632,
      "velocity": 83,
      "chip": "ym2612"
    },
    {
      "channel": 3,
      "note": 84,
      "start": 109.965,
      "duration": 0.08,
      "velocity": 83,
      "chip": "ym2612"
    },
    {
      "channel": 5,
      "note": 76,
      "start": 110.0649,
      "duration": 0.3301,
      "velocity": 116,
      "chip": "ym2612"
    },
    {
      "channel": 0,
      "note": 76,
      "start": 110.0687,
      "duration": 0.3095,
      "velocity": 93,
      "chip": "ym2612"
    },
    {
      "channel": 1,
      "note": 41,
      "start": 110.0711,
      "duration": 0.2903,
      "velocity": 99,
      "chip": "ym2612"
    },
    {
      "channel": 3,
      "note": 98,
      "start": 110.0739,
      "duration": 0.071,
      "velocity": 83,
      "chip": "ym2612"
    },
    {
      "channel": 3,
      "note": 84,
      "start": 110.165,
      "duration": 0.0799,
      "velocity": 83,
      "chip": "ym2612"
    },
    {
      "channel": 3,
      "note": 91,
      "start": 110.265,
      "duration": 0.0632,
      "velocity": 83,
      "chip": "ym2612"
    },
    {
      "channel": 3,
      "note": 84,
      "start": 110.3483,
      "duration": 0.08,
      "velocity": 83,
      "chip": "ym2612"
    },
    {
      "channel": 5,
      "note": 74,
      "start": 110.4485,
      "duration": 0.5298,
      "velocity": 116,
      "chip": "ym2612"
    },
    {
      "channel": 0,
      "note": 74,
      "start": 110.4519,
      "duration": 0.5096,
      "velocity": 93,
      "chip": "ym2612"
    },
    {
      "channel": 1,
      "note": 40,
      "start": 110.4544,
      "duration": 0.2905,
      "velocity": 99,
      "chip": "ym2612"
    },
    {
      "channel": 3,
      "note": 91,
      "start": 110.4571,
      "duration": 0.0712,
      "velocity": 83,
      "chip": "ym2612"
    },
    {
      "channel": 3,
      "note": 83,
      "start": 110.5484,
      "duration": 0.0798,
      "velocity": 83,
      "chip": "ym2612"
    },
    {
      "channel": 3,
      "note": 88,
      "start": 110.6484,
      "duration": 0.0633,
      "velocity": 83,
      "chip": "ym2612"
    },
    {
      "channel": 3,
      "note": 83,
      "start": 110.7317,
      "duration": 0.0798,
      "velocity": 83,
      "chip": "ym2612"
    },
    {
      "channel": 1,
      "note": 40,
      "start": 110.8314,
      "duration": 0.2968,
      "velocity": 99,
      "chip": "ym2612"
    },
    {
      "channel": 3,
      "note": 91,
      "start": 110.8341,
      "duration": 0.0775,
      "velocity": 83,
      "chip": "ym2612"
    },
    {
      "channel": 3,
      "note": 83,
      "start": 110.9317,
      "duration": 0.0799,
      "velocity": 83,
      "chip": "ym2612"
    },
    {
      "channel": 5,
      "note": 72,
      "start": 111.0314,
      "duration": 0.4805,
      "velocity": 116,
      "chip": "ym2612"
    },
    {
      "channel": 0,
      "note": 72,
      "start": 111.0346,
      "duration": 0.4769,
      "velocity": 93,
      "chip": "ym2612"
    },
    {
      "channel": 3,
      "note": 95,
      "start": 111.0375,
      "duration": 0.0575,
      "velocity": 83,
      "chip": "ym2612"
    },
    {
      "channel": 3,
      "note": 83,
      "start": 111.115,
      "duration": 0.0799,
      "velocity": 83,
      "chip": "ym2612"
    },
    {
      "channel": 1,
      "note": 40,
      "start": 111.2146,
      "duration": 0.297,
      "velocity": 99,
      "chip": "ym2612"
    },
    {
      "channel": 3,
      "note": 91,
      "start": 111.2174,
      "duration": 0.0776,
      "velocity": 83,
      "chip": "ym2612"
    },
    {
      "channel": 3,
      "note": 83,
      "start": 111.3154,
      "duration": 0.0795,
      "velocity": 83,
      "chip": "ym2612"
    },
    {
      "channel": 3,
      "note": 88,
      "start": 111.415,
      "duration": 0.0632,
      "velocity": 83,
      "chip": "ym2612"
    },
    {
      "channel": 3,
      "note": 83,
      "start": 111.4983,
      "duration": 0.08,
      "velocity": 83,
      "chip": "ym2612"
    },
    {
      "channel": 5,
      "note": 76,
      "start": 111.5982,
      "duration": 0.3468,
      "velocity": 116,
      "chip": "ym2612"
    },
    {
      "channel": 0,
      "note": 76,
      "start": 111.6016,
      "duration": 0.3265,
      "velocity": 93,
      "chip": "ym2612"
    },
    {
      "channel": 1,
      "note": 43,
      "start": 111.604,
      "duration": 0.2908,
      "velocity": 99,
      "chip": "ym2612"
    },
    {
      "channel": 3,
      "note": 95,
      "start": 111.6068,
      "duration": 0.0715,
      "velocity": 83,
      "chip": "ym2612"
    },
    {
      "channel": 3,
      "note": 83,
      "start": 111.6984,
      "duration": 0.0799,
      "velocity": 83,
      "chip": "ym2612"
    },
    {
      "channel": 3,
      "note": 91,
      "start": 111.7984,
      "duration": 0.0632,
      "velocity": 83,
      "chip": "ym2612"
    },
    {
      "channel": 3,
      "note": 83,
      "start": 111.8818,
      "duration": 0.0798,
      "velocity": 83,
      "chip": "ym2612"
    },
    {
      "channel": 5,
      "note": 77,
      "start": 111.9816,
      "duration": 0.4802,
      "velocity": 116,
      "chip": "ym2612"
    },
    {
      "channel": 0,
      "note": 77,
      "start": 111.985,
      "duration": 0.4765,
      "velocity": 93,
      "chip": "ym2612"
    },
    {
      "channel": 1,
      "note": 45,
      "start": 111.9874,
      "duration": 0.2908,
      "velocity": 99,
      "chip": "ym2612"
    },
    {
      "channel": 3,
      "note": 96,
      "start": 111.9902,
      "duration": 0.0715,
      "velocity": 83,
      "chip": "ym2612"
    },
    {
      "channel": 3,
      "note": 81,
      "start": 112.0818,
      "duration": 0.0798,
      "velocity": 83,
      "chip": "ym2612"
    },
    {
      "channel": 3,
      "note": 93,
      "start": 112.1817,
      "duration": 0.0633,
      "velocity": 83,
      "chip": "ym2612"
    },
    {
      "channel": 3,
      "note": 81,
      "start": 112.265,
      "duration": 0.0798,
      "velocity": 83,
      "chip": "ym2612"
    },
    {
      "channel": 1,
      "note": 43,
      "start": 112.3647,
      "duration": 0.2968,
      "velocity": 99,
      "chip": "ym2612"
    },
    {
      "channel": 3,
      "note": 88,
      "start": 112.3674,
      "duration": 0.0775,
      "velocity": 83,
      "chip": "ym2612"
    },
    {
      "channel": 3,
      "note": 81,
      "start": 112.4652,
      "duration": 0.0797,
      "velocity": 83,
      "chip": "ym2612"
    },
    {
      "channel": 5,
      "note": 76,
      "start": 112.5648,
      "duration": 0.5302,
      "velocity": 116,
      "chip": "ym2612"
    },
    {
      "channel": 0,
      "note": 76,
      "start": 112.5681,
      "duration": 0.5101,
      "velocity": 93,
      "chip": "ym2612"
    },
    {
      "channel": 3,
      "note": 96,
      "start": 112.5709,
      "duration": 0.0607,
      "velocity": 83,
      "chip": "ym2612"
    },
    {
      "channel": 3,
      "note": 81,
      "start": 112.6484,
      "duration": 0.0798,
      "velocity": 83,
      "chip": "ym2612"
    },
    {
      "channel": 1,
      "note": 40,
      "start": 112.748,
      "duration": 0.2968,
      "velocity": 99,
      "chip": "ym2612"
    },
    {
      "channel": 3,
      "note": 93,
      "start": 112.7507,
      "duration": 0.0776,
      "velocity": 83,
      "chip": "ym2612"
    },
    {
      "channel": 3,
      "note": 81,
      "start": 112.8488,
      "duration": 0.0795,
      "velocity": 83,
      "chip": "ym2612"
    },
    {
      "channel": 3,
      "note": 88,
      "start": 112.9484,
      "duration": 0.0667,
      "velocity": 83,
      "chip": "ym2612"
    },
    {
      "channel": 3,
      "note": 81,
      "start": 113.0316,
      "duration": 0.08,
      "velocity": 83,
      "chip": "ym2612"
    },
    {
      "channel": 5,
      "note": 72,
      "start": 113.1315,
      "duration": 0.2969,
      "velocity": 116,
      "chip": "ym2612"
    },
    {
      "channel": 0,
      "note": 72,
      "start": 113.1353,
      "duration": 0.2762,
      "velocity": 93,
      "chip": "ym2612"
    },
    {
      "channel": 1,
      "note": 39,
      "start": 113.1378,
      "duration": 0.2905,
      "velocity": 99,
      "chip": "ym2612"
    },
    {
      "channel": 3,
      "note": 96,
      "start": 113.1405,
      "duration": 0.0711,
      "velocity": 83,
      "chip": "ym2612"
    },
    {
      "channel": 3,
      "note": 81,
      "start": 113.2317,
      "duration": 0.0799,
      "velocity": 83,
      "chip": "ym2612"
    },
    {
      "channel": 3,
      "note": 93,
      "start": 113.3317,
      "duration": 0.067,
      "velocity": 83,
      "chip": "ym2612"
    },
    {
      "channel": 3,
      "note": 86,
      "start": 113.4152,
      "duration": 0.0797,
      "velocity": 83,
      "chip": "ym2612"
    },
    {
      "channel": 5,
      "note": 74,
      "start": 113.5153,
      "duration": 0.5298,
      "velocity": 116,
      "chip": "ym2612"
    },
    {
      "channel": 0,
      "note": 74,
      "start": 113.5187,
      "duration": 0.5261,
      "velocity": 93,
      "chip": "ym2612"
    },
    {
      "channel": 1,
      "note": 38,
      "start": 113.5215,
      "duration": 0.29,
      "velocity": 99,
      "chip": "ym2612"
    },
    {
      "channel": 3,
      "note": 89,
      "start": 113.5242,
      "duration": 0.0707,
      "velocity": 83,
      "chip": "ym2612"
    },
    {
      "channel": 3,
      "note": 86,
      "start": 113.6151,
      "duration": 0.0798,
      "velocity": 83,
      "chip": "ym2612"
    },
    {
      "channel": 3,
      "note": 93,
      "start": 113.715,
      "duration": 0.0669,
      "velocity": 83,
      "chip": "ym2612"
    },
    {
      "channel": 3,
      "note": 86,
      "start": 113.7984,
      "duration": 0.0799,
      "velocity": 83,
      "chip": "ym2612"
    },
    {
      "channel": 1,
      "note": 40,
      "start": 113.898,
      "duration": 0.297,
      "velocity": 99,
      "chip": "ym2612"
    },
    {
      "channel": 3,
      "note": 89,
      "start": 113.9007,
      "duration": 0.0776,
      "velocity": 83,
      "chip": "ym2612"
    },
    {
      "channel": 3,
      "note": 86,
      "start": 113.9983,
      "duration": 0.08,
      "velocity": 83,
      "chip": "ym2612"
    },
    {
      "channel": 5,
      "note": 76,
      "start": 114.0985,
      "duration": 1.9965,
      "velocity": 116,
      "chip": "ym2612"
    },
    {
      "channel": 0,
      "note": 76,
      "start": 114.1022,
      "duration": 1.976,
      "velocity": 93,
      "chip": "ym2612"
    },
    {
      "channel": 3,
      "note": 93,
      "start": 114.1051,
      "duration": 0.0732,
      "velocity": 83,
      "chip": "ym2612"
    },
    {
      "channel": 3,
      "note": 86,
      "start": 114.1852,
      "duration": 0.0763,
      "velocity": 83,
      "chip": "ym2612"
    },
    {
      "channel": 1,
      "note": 41,
      "start": 114.2814,
      "duration": 0.2969,
      "velocity": 99,
      "chip": "ym2612"
    },
    {
      "channel": 3,
      "note": 96,
      "start": 114.2841,
      "duration": 0.0776,
      "velocity": 83,
      "chip": "ym2612"
    },
    {
      "channel": 3,
      "note": 86,
      "start": 114.3821,
      "duration": 0.0795,
      "velocity": 83,
      "chip": "ym2612"
    },
    {
      "channel": 3,
      "note": 93,
      "start": 114.4817,
      "duration": 0.0798,
      "velocity": 83,
      "chip": "ym2612"
    },
    {
      "channel": 3,
      "note": 86,
      "start": 114.5687,
      "duration": 0.0761,
      "velocity": 83,
      "chip": "ym2612"
    },
    {
      "channel": 1,
      "note": 43,
      "start": 114.6647,
      "duration": 0.2969,
      "velocity": 99,
      "chip": "ym2612"
    },
    {
      "channel": 3,
      "note": 89,
      "start": 114.6674,
      "duration": 0.0775,
      "velocity": 83,
      "chip": "ym2612"
    },
    {
      "channel": 3,
      "note": 86,
      "start": 114.7651,
      "duration": 0.0798,
      "velocity": 83,
      "chip": "ym2612"
    },
    {
      "channel": 3,
      "note": 100,
      "start": 114.865,
      "duration": 0.0798,
      "velocity": 83,
      "chip": "ym2612"
    },
    {
      "channel": 3,
      "note": 86,
      "start": 114.9521,
      "duration": 0.0762,
      "velocity": 83,
      "chip": "ym2612"
    },
    {
      "channel": 1,
      "note": 45,
      "start": 115.0479,
      "duration": 0.3031,
      "velocity": 99,
      "chip": "ym2612"
    },
    {
      "channel": 3,
      "note": 98,
      "start": 115.0507,
      "duration": 0.0776,
      "velocity": 83,
      "chip": "ym2612"
    },
    {
      "channel": 3,
      "note": 86,
      "start": 115.1484,
      "duration": 0.0799,
      "velocity": 83,
      "chip": "ym2612"
    },
    {
      "channel": 3,
      "note": 96,
      "start": 115.2483,
      "duration": 0.08,
      "velocity": 83,
      "chip": "ym2612"
    },
    {
      "channel": 3,
      "note": 86,
      "start": 115.3484,
      "duration": 0.0632,
      "velocity": 83,
      "chip": "ym2612"
    },
    {
      "channel": 1,
      "note": 43,
      "start": 115.4313,
      "duration": 0.3014,
      "velocity": 99,
      "chip": "ym2612"
    },
    {
      "channel": 3,
      "note": 95,
      "start": 115.4341,
      "duration": 0.0775,
      "velocity": 83,
      "chip": "ym2612"
    },
    {
      "channel": 3,
      "note": 86,
      "start": 115.5316,
      "duration": 0.08,
      "velocity": 83,
      "chip": "ym2612"
    },
    {
      "channel": 3,
      "note": 93,
      "start": 115.6316,
      "duration": 0.0799,
      "velocity": 83,
      "chip": "ym2612"
    },
    {
      "channel": 3,
      "note": 86,
      "start": 115.7316,
      "duration": 0.0632,
      "velocity": 83,
      "chip": "ym2612"
    },
    {
      "channel": 1,
      "note": 40,
      "start": 115.8145,
      "duration": 0.3016,
      "velocity": 99,
      "chip": "ym2612"
    },
    {
      "channel": 3,
      "note": 91,
      "start": 115.8173,
      "duration": 0.0776,
      "velocity": 83,
      "chip": "ym2612"
    },
    {
      "channel": 3,
      "note": 86,
      "start": 115.9154,
      "duration": 0.0795,
      "velocity": 83,
      "chip": "ym2612"
    },
    {
      "channel": 3,
      "note": 89,
      "start": 116.015,
      "duration": 0.0799,
      "velocity": 83,
      "chip": "ym2612"
    },
    {
      "channel": 3,
      "note": 86,
      "start": 116.115,
      "duration": 0.0632,
      "velocity": 83,
      "chip": "ym2612"
    },
    {
      "channel": 5,
      "note": 76,
      "start": 116.1981,
      "duration": 0.1969,
      "velocity": 116,
      "chip": "ym2612"
    },
    {
      "channel": 0,
      "note": 76,
      "start": 116.2016,
      "duration": 0.1765,
      "velocity": 93,
      "chip": "ym2612"
    },
    {
      "channel": 1,
      "note": 39,
      "start": 116.204,
      "duration": 0.2969,
      "velocity": 99,
      "chip": "ym2612"
    },
    {
      "channel": 3,
      "note": 88,
      "start": 116.2068,
      "duration": 0.0715,
      "velocity": 83,
      "chip": "ym2612"
    },
    {
      "channel": 3,
      "note": 86,
      "start": 116.2984,
      "duration": 0.08,
      "velocity": 83,
      "chip": "ym2612"
    },
    {
      "channel": 5,
      "note": 79,
      "start": 116.3982,
      "duration": 0.103,
      "velocity": 116,
      "chip": "ym2612"
    },
    {
      "channel": 0,
      "note": 79,
      "start": 116.4015,
      "duration": 0.0994,
      "velocity": 93,
      "chip": "ym2612"
    },
    {
      "channel": 3,
      "note": 89,
      "start": 116.4043,
      "duration": 0.0739,
      "velocity": 83,
      "chip": "ym2612"
    },
    {
      "channel": 3,
      "note": 86,
      "start": 116.4984,
      "duration": 0.0632,
      "velocity": 83,
      "chip": "ym2612"
    },
    {
      "channel": 5,
      "note": 81,
      "start": 116.5822,
      "duration": 2.4627,
      "velocity": 116,
      "chip": "ym2612"
    },
    {
      "channel": 0,
      "note": 81,
      "start": 116.5863,
      "duration": 2.4418,
      "velocity": 93,
      "chip": "ym2612"
    },
    {
      "channel": 1,
      "note": 40,
      "start": 116.5887,
      "duration": 0.3061,
      "velocity": 99,
      "chip": "ym2612"
    },
    {
      "channel": 3,
      "note": 95,
      "start": 116.5914,
      "duration": 0.0702,
      "velocity": 83,
      "chip": "ym2612"
    },
    {
      "channel": 3,
      "note": 88,
      "start": 116.6818,
      "duration": 0.0798,
      "velocity": 83,
      "chip": "ym2612"
    },
    {
      "channel": 3,
      "note": 92,
      "start": 116.7817,
      "duration": 0.0799,
      "velocity": 83,
      "chip": "ym2612"
    },
    {
      "channel": 3,
      "note": 88,
      "start": 116.8816,
      "duration": 0.0633,
      "velocity": 83,
      "chip": "ym2612"
    },
    {
      "channel": 1,
      "note": 40,
      "start": 116.9646,
      "duration": 0.3135,
      "velocity": 99,
      "chip": "ym2612"
    },
    {
      "channel": 3,
      "note": 95,
      "start": 116.9673,
      "duration": 0.0776,
      "velocity": 83,
      "chip": "ym2612"
    },
    {
      "channel": 3,
      "note": 88,
      "start": 117.065,
      "duration": 0.0799,
      "velocity": 83,
      "chip": "ym2612"
    },
    {
      "channel": 3,
      "note": 98,
      "start": 117.165,
      "duration": 0.08,
      "velocity": 83,
      "chip": "ym2612"
    },
    {
      "channel": 3,
      "note": 88,
      "start": 117.2651,
      "duration": 0.0632,
      "velocity": 83,
      "chip": "ym2612"
    },
    {
      "channel": 1,
      "note": 40,
      "start": 117.348,
      "duration": 0.3136,
      "velocity": 99,
      "chip": "ym2612"
    },
    {
      "channel": 3,
      "note": 95,
      "start": 117.3507,
      "duration": 0.0776,
      "velocity": 83,
      "chip": "ym2612"
    },
    {
      "channel": 3,
      "note": 88,
      "start": 117.4487,
      "duration": 0.0796,
      "velocity": 83,
      "chip": "ym2612"
    },
    {
      "channel": 3,
      "note": 95,
      "start": 117.5484,
      "duration": 0.0799,
      "velocity": 83,
      "chip": "ym2612"
    },
    {
      "channel": 3,
      "note": 88,
      "start": 117.6483,
      "duration": 0.0634,
      "velocity": 83,
      "chip": "ym2612"
    },
    {
      "channel": 1,
      "note": 38,
      "start": 117.7313,
      "duration": 0.3135,
      "velocity": 99,
      "chip": "ym2612"
    },
    {
      "channel": 3,
      "note": 100,
      "start": 117.7341,
      "duration": 0.0776,
      "velocity": 83,
      "chip": "ym2612"
    },
    {
      "channel": 3,
      "note": 88,
      "start": 117.8317,
      "duration": 0.0798,
      "velocity": 83,
      "chip": "ym2612"
    },
    {
      "channel": 3,
      "note": 92,
      "start": 117.9318,
      "duration": 0.0798,
      "velocity": 83,
      "chip": "ym2612"
    },
    {
      "channel": 3,
      "note": 88,
      "start": 118.0316,
      "duration": 0.0632,
      "velocity": 83,
      "chip": "ym2612"
    },
    {
      "channel": 1,
      "note": 40,
      "start": 118.1145,
      "duration": 0.3135,
      "velocity": 99,
      "chip": "ym2612"
    },
    {
      "channel": 3,
      "note": 98,
      "start": 118.1173,
      "duration": 0.0776,
      "velocity": 83,
      "chip": "ym2612"
    },
    {
      "channel": 3,
      "note": 88,
      "start": 118.2149,
      "duration": 0.08,
      "velocity": 83,
      "chip": "ym2612"
    },
    {
      "channel": 3,
      "note": 95,
      "start": 118.3149,
      "duration": 0.08,
      "velocity": 83,
      "chip": "ym2612"
    },
    {
      "channel": 3,
      "note": 88,
      "start": 118.415,
      "duration": 0.0632,
      "velocity": 83,
      "chip": "ym2612"
    },
    {
      "channel": 1,
      "note": 38,
      "start": 118.4979,
      "duration": 0.3136,
      "velocity": 99,
      "chip": "ym2612"
    },
    {
      "channel": 3,
      "note": 92,
      "start": 118.5006,
      "duration": 0.0776,
      "velocity": 83,
      "chip": "ym2612"
    },
    {
      "channel": 3,
      "note": 88,
      "start": 118.5982,
      "duration": 0.08,
      "velocity": 83,
      "chip": "ym2612"
    },
    {
      "channel": 3,
      "note": 98,
      "start": 118.6983,
      "duration": 0.0799,
      "velocity": 83,
      "chip": "ym2612"
    },
    {
      "channel": 3,
      "note": 88,
      "start": 118.7983,
      "duration": 0.0632,
      "velocity": 83,
      "chip": "ym2612"
    },
    {
      "channel": 1,
      "note": 36,
      "start": 118.8812,
      "duration": 0.3136,
      "velocity": 99,
      "chip": "ym2612"
    },
    {
      "channel": 3,
      "note": 96,
      "start": 118.8839,
      "duration": 0.0776,
      "velocity": 83,
      "chip": "ym2612"
    },
    {
      "channel": 3,
      "note": 88,
      "start": 118.982,
      "duration": 0.0795,
      "velocity": 83,
      "chip": "ym2612"
    },
    {
      "channel": 3,
      "note": 95,
      "start": 119.0816,
      "duration": 0.0799,
      "velocity": 83,
      "chip": "ym2612"
    },
    {
      "channel": 3,
      "note": 88,
      "start": 119.1816,
      "duration": 0.0632,
      "velocity": 83,
      "chip": "ym2612"
    },
    {
      "channel": 1,
      "note": 35,
      "start": 119.2645,
      "duration": 0.3134,
      "velocity": 99,
      "chip": "ym2612"
    },
    {
      "channel": 3,
      "note": 93,
      "start": 119.2672,
      "duration": 0.0777,
      "velocity": 83,
      "chip": "ym2612"
    },
    {
      "channel": 3,
      "note": 88,
      "start": 119.3649,
      "duration": 0.0799,
      "velocity": 83,
      "chip": "ym2612"
    },
    {
      "channel": 3,
      "note": 92,
      "start": 119.465,
      "duration": 0.0799,
      "velocity": 83,
      "chip": "ym2612"
    },
    {
      "channel": 3,
      "note": 88,
      "start": 119.5649,
      "duration": 0.0632,
      "velocity": 83,
      "chip": "ym2612"
    },
    {
      "channel": 5,
      "note": 69,
      "start": 119.6481,
      "duration": 0.5302,
      "velocity": 116,
      "chip": "ym2612"
    },
    {
      "channel": 0,
      "note": 69,
      "start": 119.6516,
      "duration": 0.5099,
      "velocity": 93,
      "chip": "ym2612"
    },
    {
      "channel": 1,
      "note": 45,
      "start": 119.6544,
      "duration": 0.3071,
      "velocity": 99,
      "chip": "ym2612"
    },
    {
      "channel": 3,
      "note": 93,
      "start": 119.6573,
      "duration": 0.071,
      "velocity": 83,
      "chip": "ym2612"
    },
    {
      "channel": 4,
      "note": 88,
      "start": 119.66,
      "duration": 0.0684,
      "velocity": 83,
      "chip": "ym2612"
    },
    {
      "channel": 3,
      "note": 93,
      "start": 119.8485,
      "duration": 0.0798,
      "velocity": 83,
      "chip": "ym2612"
    },
    {
      "channel": 3,
      "note": 88,
      "start": 119.9483,
      "duration": 0.0632,
      "velocity": 83,
      "chip": "ym2612"
    },
    {
      "channel": 1,
      "note": 43,
      "start": 120.0313,
      "duration": 0.3135,
      "velocity": 99,
      "chip": "ym2612"
    },
    {
      "channel": 3,
      "note": 100,
      "start": 120.0341,
      "duration": 0.0775,
      "velocity": 83,
      "chip": "ym2612"
    },
    {
      "channel": 3,
      "note": 88,
      "start": 120.1316,
      "duration": 0.0799,
      "velocity": 83,
      "chip": "ym2612"
    },
    {
      "channel": 5,
      "note": 64,
      "start": 120.2315,
      "duration": 0.4803,
      "velocity": 116,
      "chip": "ym2612"
    },
    {
      "channel": 0,
      "note": 64,
      "start": 120.2348,
      "duration": 0.46,
      "velocity": 93,
      "chip": "ym2612"
    },
    {
      "channel": 3,
      "note": 93,
      "start": 120.2379,
      "duration": 0.0737,
      "velocity": 83,
      "chip": "ym2612"
    },
    {
      "channel": 3,
      "note": 88,
      "start": 120.3318,
      "duration": 0.0632,
      "velocity": 83,
      "chip": "ym2612"
    },
    {
      "channel": 1,
      "note": 40,
      "start": 120.4146,
      "duration": 0.3135,
      "velocity": 99,
      "chip": "ym2612"
    },
    {
      "channel": 3,
      "note": 98,
      "start": 120.4173,
      "duration": 0.0777,
      "velocity": 83,
      "chip": "ym2612"
    },
    {
      "channel": 3,
      "note": 88,
      "start": 120.5151,
      "duration": 0.0798,
      "velocity": 83,
      "chip": "ym2612"
    },
    {
      "channel": 3,
      "note": 93,
      "start": 120.615,
      "duration": 0.08,
      "velocity": 83,
      "chip": "ym2612"
    },
    {
      "channel": 3,
      "note": 88,
      "start": 120.7152,
      "duration": 0.0631,
      "velocity": 83,
      "chip": "ym2612"
    },
    {
      "channel": 5,
      "note": 76,
      "start": 120.7982,
      "duration": 0.8801,
      "velocity": 116,
      "chip": "ym2612"
    },
    {
      "channel": 0,
      "note": 76,
      "start": 120.8016,
      "duration": 0.8599,
      "velocity": 93,
      "chip": "ym2612"
    },
    {
      "channel": 1,
      "note": 45,
      "start": 120.804,
      "duration": 0.3074,
      "velocity": 99,
      "chip": "ym2612"
    },
    {
      "channel": 3,
      "note": 96,
      "start": 120.8068,
      "duration": 0.0715,
      "velocity": 83,
      "chip": "ym2612"
    },
    {
      "channel": 3,
      "note": 88,
      "start": 120.8984,
      "duration": 0.0799,
      "velocity": 83,
      "chip": "ym2612"
    },
    {
      "channel": 3,
      "note": 95,
      "start": 120.9984,
      "duration": 0.0799,
      "velocity": 83,
      "chip": "ym2612"
    },
    {
      "channel": 3,
      "note": 88,
      "start": 121.0983,
      "duration": 0.0669,
      "velocity": 83,
      "chip": "ym2612"
    },
    {
      "channel": 1,
      "note": 33,
      "start": 121.1813,
      "duration": 0.3136,
      "velocity": 99,
      "chip": "ym2612"
    },
    {
      "channel": 3,
      "note": 93,
      "start": 121.184,
      "duration": 0.0776,
      "velocity": 83,
      "chip": "ym2612"
    },
    {
      "channel": 3,
      "note": 88,
      "start": 121.2817,
      "duration": 0.0798,
      "velocity": 83,
      "chip": "ym2612"
    },
    {
      "channel": 3,
      "note": 93,
      "start": 121.3818,
      "duration": 0.0799,
      "velocity": 83,
      "chip": "ym2612"
    },
    {
      "channel": 3,
      "note": 88,
      "start": 121.4817,
      "duration": 0.0669,
      "velocity": 83,
      "chip": "ym2612"
    },
    {
      "channel": 1,
      "note": 35,
      "start": 121.5646,
      "duration": 0.3136,
      "velocity": 99,
      "chip": "ym2612"
    },
    {
      "channel": 3,
      "note": 100,
      "start": 121.5674,
      "duration": 0.0775,
      "velocity": 83,
      "chip": "ym2612"
    },
    {
      "channel": 3,
      "note": 88,
      "start": 121.6652,
      "duration": 0.0797,
      "velocity": 83,
      "chip": "ym2612"
    },
    {
      "channel": 5,
      "note": 72,
      "start": 121.7649,
      "duration": 0.4969,
      "velocity": 116,
      "chip": "ym2612"
    },
    {
      "channel": 0,
      "note": 72,
      "start": 121.7683,
      "duration": 0.4765,
      "velocity": 93,
      "chip": "ym2612"
    },
    {
      "channel": 3,
      "note": 93,
      "start": 121.7715,
      "duration": 0.0734,
      "velocity": 83,
      "chip": "ym2612"
    },
    {
      "channel": 3,
      "note": 88,
      "start": 121.865,
      "duration": 0.0667,
      "velocity": 83,
      "chip": "ym2612"
    },
    {
      "channel": 1,
      "note": 36,
      "start": 121.9479,
      "duration": 0.3136,
      "velocity": 99,
      "chip": "ym2612"
    },
    {
      "channel": 3,
      "note": 98,
      "start": 121.9507,
      "duration": 0.0776,
      "velocity": 83,
      "chip": "ym2612"
    },
    {
      "channel": 3,
      "note": 88,
      "start": 122.0484,
      "duration": 0.0798,
      "velocity": 83,
      "chip": "ym2612"
    },
    {
      "channel": 3,
      "note": 93,
      "start": 122.1484,
      "duration": 0.0798,
      "velocity": 83,
      "chip": "ym2612"
    },
    {
      "channel": 3,
      "note": 88,
      "start": 122.2484,
      "duration": 0.0668,
      "velocity": 83,
      "chip": "ym2612"
    },
    {
      "channel": 5,
      "note": 69,
      "start": 122.3315,
      "duration": 0.3468,
      "velocity": 116,
      "chip": "ym2612"
    },
    {
      "channel": 0,
      "note": 69,
      "start": 122.3353,
      "duration": 0.4095,
      "velocity": 93,
      "chip": "ym2612"
    },
    {
      "channel": 1,
      "note": 40,
      "start": 122.3377,
      "duration": 0.3072,
      "velocity": 99,
      "chip": "ym2612"
    },
    {
      "channel": 3,
      "note": 96,
      "start": 122.3404,
      "duration": 0.0712,
      "velocity": 83,
      "chip": "ym2612"
    },
    {
      "channel": 3,
      "note": 88,
      "start": 122.4318,
      "duration": 0.0799,
      "velocity": 83,
      "chip": "ym2612"
    },
    {
      "channel": 3,
      "note": 95,
      "start": 122.5317,
      "duration": 0.08,
      "velocity": 83,
      "chip": "ym2612"
    },
    {
      "channel": 3,
      "note": 88,
      "start": 122.6317,
      "duration": 0.08,
      "velocity": 83,
      "chip": "ym2612"
    },
    {
      "channel": 5,
      "note": 77,
      "start": 122.719,
      "duration": 0.4759,
      "velocity": 116,
      "chip": "ym2612"
    },
    {
      "channel": 2,
      "note": 77,
      "start": 122.7227,
      "duration": 0.4556,
      "velocity": 93,
      "chip": "ym2612"
    },
    {
      "channel": 1,
      "note": 38,
      "start": 122.7252,
      "duration": 0.303,
      "velocity": 99,
      "chip": "ym2612"
    },
    {
      "channel": 3,
      "note": 93,
      "start": 122.7281,
      "duration": 0.0667,
      "velocity": 83,
      "chip": "ym2612"
    },
    {
      "channel": 3,
      "note": 89,
      "start": 122.815,
      "duration": 0.0798,
      "velocity": 83,
      "chip": "ym2612"
    },
    {
      "channel": 3,
      "note": 93,
      "start": 122.915,
      "duration": 0.08,
      "velocity": 83,
      "chip": "ym2612"
    },
    {
      "channel": 3,
      "note": 89,
      "start": 123.0151,
      "duration": 0.0798,
      "velocity": 83,
      "chip": "ym2612"
    },
    {
      "channel": 1,
      "note": 50,
      "start": 123.1017,
      "duration": 0.3099,
      "velocity": 99,
      "chip": "ym2612"
    },
    {
      "channel": 3,
      "note": 100,
      "start": 123.1044,
      "duration": 0.0738,
      "velocity": 83,
      "chip": "ym2612"
    },
    {
      "channel": 3,
      "note": 89,
      "start": 123.1984,
      "duration": 0.0798,
      "velocity": 83,
      "chip": "ym2612"
    },
    {
      "channel": 5,
      "note": 76,
      "start": 123.2979,
      "duration": 0.4804,
      "velocity": 116,
      "chip": "ym2612"
    },
    {
      "channel": 0,
      "note": 76,
      "start": 123.301,
      "duration": 0.4604,
      "velocity": 93,
      "chip": "ym2612"
    },
    {
      "channel": 3,
      "note": 93,
      "start": 123.3042,
      "duration": 0.0741,
      "velocity": 83,
      "chip": "ym2612"
    },
    {
      "channel": 3,
      "note": 89,
      "start": 123.3984,
      "duration": 0.0799,
      "velocity": 83,
      "chip": "ym2612"
    },
    {
      "channel": 1,
      "note": 38,
      "start": 123.4849,
      "duration": 0.3101,
      "velocity": 99,
      "chip": "ym2612"
    },
    {
      "channel": 3,
      "note": 98,
      "start": 123.4876,
      "duration": 0.0741,
      "velocity": 83,
      "chip": "ym2612"
    },
    {
      "channel": 3,
      "note": 89,
      "start": 123.5816,
      "duration": 0.08,
      "velocity": 83,
      "chip": "ym2612"
    },
    {
      "channel": 3,
      "note": 93,
      "start": 123.6817,
      "duration": 0.08,
      "velocity": 83,
      "chip": "ym2612"
    },
    {
      "channel": 3,
      "note": 89,
      "start": 123.7818,
      "duration": 0.0798,
      "velocity": 83,
      "chip": "ym2612"
    },
    {
      "channel": 5,
      "note": 72,
      "start": 123.8815,
      "duration": 0.3469,
      "velocity": 116,
      "chip": "ym2612"
    },
    {
      "channel": 0,
      "note": 72,
      "start": 123.8849,
      "duration": 0.3432,
      "velocity": 93,
      "chip": "ym2612"
    },
    {
      "channel": 1,
      "note": 39,
      "start": 123.8874,
      "duration": 0.2908,
      "velocity": 99,
      "chip": "ym2612"
    },
    {
      "channel": 3,
      "note": 96,
      "start": 123.8901,
      "duration": 0.0549,
      "velocity": 83,
      "chip": "ym2612"
    },
    {
      "channel": 3,
      "note": 89,
      "start": 123.965,
      "duration": 0.0798,
      "velocity": 83,
      "chip": "ym2612"
    },
    {
      "channel": 3,
      "note": 95,
      "start": 124.065,
      "duration": 0.0799,
      "velocity": 83,
      "chip": "ym2612"
    },
    {
      "channel": 3,
      "note": 89,
      "start": 124.165,
      "duration": 0.0799,
      "velocity": 83,
      "chip": "ym2612"
    },
    {
      "channel": 5,
      "note": 68,
      "start": 124.2649,
      "duration": 0.5635,
      "velocity": 116,
      "chip": "ym2612"
    },
    {
      "channel": 0,
      "note": 68,
      "start": 124.2683,
      "duration": 0.5433,
      "velocity": 93,
      "chip": "ym2612"
    },
    {
      "channel": 1,
      "note": 40,
      "start": 124.2707,
      "duration": 0.2908,
      "velocity": 99,
      "chip": "ym2612"
    },
    {
      "channel": 3,
      "note": 92,
      "start": 124.2734,
      "duration": 0.0549,
      "velocity": 83,
      "chip": "ym2612"
    },
    {
      "channel": 3,
      "note": 88,
      "start": 124.3484,
      "duration": 0.0799,
      "velocity": 83,
      "chip": "ym2612"
    },
    {
      "channel": 3,
      "note": 92,
      "start": 124.4484,
      "duration": 0.0799,
      "velocity": 83,
      "chip": "ym2612"
    },
    {
      "channel": 3,
      "note": 88,
      "start": 124.5483,
      "duration": 0.08,
      "velocity": 83,
      "chip": "ym2612"
    },
    {
      "channel": 1,
      "note": 38,
      "start": 124.648,
      "duration": 0.297,
      "velocity": 99,
      "chip": "ym2612"
    },
    {
      "channel": 3,
      "note": 95,
      "start": 124.6507,
      "duration": 0.0609,
      "velocity": 83,
      "chip": "ym2612"
    },
    {
      "channel": 3,
      "note": 88,
      "start": 124.7317,
      "duration": 0.08,
      "velocity": 83,
      "chip": "ym2612"
    },
    {
      "channel": 5,
      "note": 69,
      "start": 124.8315,
      "duration": 0.5135,
      "velocity": 116,
      "chip": "ym2612"
    },
    {
      "channel": 0,
      "note": 69,
      "start": 124.8348,
      "duration": 0.4933,
      "velocity": 93,
      "chip": "ym2612"
    },
    {
      "channel": 3,
      "note": 92,
      "start": 124.838,
      "duration": 0.0737,
      "velocity": 83,
      "chip": "ym2612"
    },
    {
      "channel": 3,
      "note": 88,
      "start": 124.9317,
      "duration": 0.0798,
      "velocity": 83,
      "chip": "ym2612"
    },
    {
      "channel": 1,
      "note": 36,
      "start": 125.0314,
      "duration": 0.2969,
      "velocity": 99,
      "chip": "ym2612"
    },
    {
      "channel": 3,
      "note": 98,
      "start": 125.0341,
      "duration": 0.0609,
      "velocity": 83,
      "chip": "ym2612"
    },
    {
      "channel": 3,
      "note": 88,
      "start": 125.115,
      "duration": 0.08,
      "velocity": 83,
      "chip": "ym2612"
    },
    {
      "channel": 3,
      "note": 92,
      "start": 125.215,
      "duration": 0.0798,
      "velocity": 83,
      "chip": "ym2612"
    },
    {
      "channel": 3,
      "note": 88,
      "start": 125.3151,
      "duration": 0.0797,
      "velocity": 83,
      "chip": "ym2612"
    },
    {
      "channel": 5,
      "note": 71,
      "start": 125.4149,
      "duration": 0.2968,
      "velocity": 116,
      "chip": "ym2612"
    },
    {
      "channel": 0,
      "note": 71,
      "start": 125.4187,
      "duration": 0.2927,
      "velocity": 93,
      "chip": "ym2612"
    },
    {
      "channel": 1,
      "note": 35,
      "start": 125.4211,
      "duration": 0.2904,
      "velocity": 99,
      "chip": "ym2612"
    },
    {
      "channel": 3,
      "note": 96,
      "start": 125.4238,
      "duration": 0.0544,
      "velocity": 83,
      "chip": "ym2612"
    },
    {
      "channel": 3,
      "note": 88,
      "start": 125.4983,
      "duration": 0.0799,
      "velocity": 83,
      "chip": "ym2612"
    },
    {
      "channel": 3,
      "note": 95,
      "start": 125.5984,
      "duration": 0.0798,
      "velocity": 83,
      "chip": "ym2612"
    },
    {
      "channel": 3,
      "note": 88,
      "start": 125.6983,
      "duration": 0.0799,
      "velocity": 83,
      "chip": "ym2612"
    },
    {
      "channel": 5,
      "note": 69,
      "start": 125.7986,
      "duration": 0.5465,
      "velocity": 116,
      "chip": "ym2612"
    },
    {
      "channel": 0,
      "note": 69,
      "start": 125.802,
      "duration": 0.5261,
      "velocity": 93,
      "chip": "ym2612"
    },
    {
      "channel": 1,
      "note": 33,
      "start": 125.8048,
      "duration": 0.2901,
      "velocity": 99,
      "chip": "ym2612"
    },
    {
      "channel": 3,
      "note": 93,
      "start": 125.8075,
      "duration": 0.054,
      "velocity": 83,
      "chip": "ym2612"
    },
    {
      "channel": 3,
      "note": 88,
      "start": 125.8818,
      "duration": 0.0798,
      "velocity": 83,
      "chip": "ym2612"
    },
    {
      "channel": 3,
      "note": 93,
      "start": 125.9817,
      "duration": 0.08,
      "velocity": 83,
      "chip": "ym2612"
    },
    {
      "channel": 3,
      "note": 88,
      "start": 126.0817,
      "duration": 0.0798,
      "velocity": 83,
      "chip": "ym2612"
    },
    {
      "channel": 1,
      "note": 45,
      "start": 126.1814,
      "duration": 0.2968,
      "velocity": 99,
      "chip": "ym2612"
    },
    {
      "channel": 3,
      "note": 100,
      "start": 126.1841,
      "duration": 0.0609,
      "velocity": 83,
      "chip": "ym2612"
    },
    {
      "channel": 3,
      "note": 88,
      "start": 126.265,
      "duration": 0.08,
      "velocity": 83,
      "chip": "ym2612"
    },
    {
      "channel": 5,
      "note": 64,
      "start": 126.3648,
      "duration": 0.4802,
      "velocity": 116,
      "chip": "ym2612"
    },
    {
      "channel": 0,
      "note": 64,
      "start": 126.368,
      "duration": 0.4601,
      "velocity": 93,
      "chip": "ym2612"
    },
    {
      "channel": 3,
      "note": 93,
      "start": 126.3712,
      "duration": 0.0737,
      "velocity": 83,
      "chip": "ym2612"
    },
    {
      "channel": 3,
      "note": 88,
      "start": 126.465,
      "duration": 0.0799,
      "velocity": 83,
      "chip": "ym2612"
    },
    {
      "channel": 1,
      "note": 33,
      "start": 126.5646,
      "duration": 0.297,
      "velocity": 99,
      "chip": "ym2612"
    },
    {
      "channel": 3,
      "note": 98,
      "start": 126.5674,
      "duration": 0.0609,
      "velocity": 83,
      "chip": "ym2612"
    },
    {
      "channel": 3,
      "note": 88,
      "start": 126.6483,
      "duration": 0.0799,
      "velocity": 83,
      "chip": "ym2612"
    },
    {
      "channel": 3,
      "note": 93,
      "start": 126.7484,
      "duration": 0.08,
      "velocity": 83,
      "chip": "ym2612"
    },
    {
      "channel": 3,
      "note": 88,
      "start": 126.8484,
      "duration": 0.0798,
      "velocity": 83,
      "chip": "ym2612"
    },
    {
      "channel": 5,
      "note": 76,
      "start": 126.9482,
      "duration": 0.9302,
      "velocity": 116,
      "chip": "ym2612"
    },
    {
      "channel": 0,
      "note": 76,
      "start": 126.9517,
      "duration": 0.9098,
      "velocity": 93,
      "chip": "ym2612"
    },
    {
      "channel": 1,
      "note": 36,
      "start": 126.9541,
      "duration": 0.2907,
      "velocity": 99,
      "chip": "ym2612"
    },
    {
      "channel": 3,
      "note": 96,
      "start": 126.9568,
      "duration": 0.0548,
      "velocity": 83,
      "chip": "ym2612"
    },
    {
      "channel": 3,
      "note": 88,
      "start": 127.0317,
      "duration": 0.0799,
      "velocity": 83,
      "chip": "ym2612"
    },
    {
      "channel": 3,
      "note": 95,
      "start": 127.1317,
      "duration": 0.0799,
      "velocity": 83,
      "chip": "ym2612"
    },
    {
      "channel": 3,
      "note": 88,
      "start": 127.2316,
      "duration": 0.08,
      "velocity": 83,
      "chip": "ym2612"
    },
    {
      "channel": 1,
      "note": 40,
      "start": 127.3313,
      "duration": 0.2969,
      "velocity": 99,
      "chip": "ym2612"
    },
    {
      "channel": 3,
      "note": 93,
      "start": 127.334,
      "duration": 0.061,
      "velocity": 83,
      "chip": "ym2612"
    },
    {
      "channel": 3,
      "note": 88,
      "start": 127.415,
      "duration": 0.0798,
      "velocity": 83,
      "chip": "ym2612"
    },
    {
      "channel": 3,
      "note": 93,
      "start": 127.5151,
      "duration": 0.0798,
      "velocity": 83,
      "chip": "ym2612"
    },
    {
      "channel": 3,
      "note": 88,
      "start": 127.615,
      "duration": 0.0798,
      "velocity": 83,
      "chip": "ym2612"
    },
    {
      "channel": 1,
      "note": 33,
      "start": 127.7147,
      "duration": 0.2969,
      "velocity": 99,
      "chip": "ym2612"
    },
    {
      "channel": 3,
      "note": 100,
      "start": 127.7174,
      "duration": 0.0609,
      "velocity": 83,
      "chip": "ym2612"
    },
    {
      "channel": 3,
      "note": 88,
      "start": 127.7984,
      "duration": 0.0799,
      "velocity": 83,
      "chip": "ym2612"
    },
    {
      "channel": 5,
      "note": 72,
      "start": 127.8983,
      "duration": 0.4968,
      "velocity": 116,
      "chip": "ym2612"
    },
    {
      "channel": 0,
      "note": 72,
      "start": 127.9017,
      "duration": 0.4931,
      "velocity": 93,
      "chip": "ym2612"
    },
    {
      "channel": 3,
      "note": 93,
      "start": 127.9049,
      "duration": 0.0734,
      "velocity": 83,
      "chip": "ym2612"
    },
    {
      "channel": 3,
      "note": 88,
      "start": 127.9984,
      "duration": 0.0798,
      "velocity": 83,
      "chip": "ym2612"
    },
    {
      "channel": 1,
      "note": 39,
      "start": 128.098,
      "duration": 0.2969,
      "velocity": 99,
      "chip": "ym2612"
    },
    {
      "channel": 3,
      "note": 98,
      "start": 128.1007,
      "duration": 0.0609,
      "velocity": 83,
      "chip": "ym2612"
    },
    {
      "channel": 3,
      "note": 88,
      "start": 128.1818,
      "duration": 0.0798,
      "velocity": 83,
      "chip": "ym2612"
    },
    {
      "channel": 3,
      "note": 93,
      "start": 128.2817,
      "duration": 0.0798,
      "velocity": 83,
      "chip": "ym2612"
    },
    {
      "channel": 3,
      "note": 88,
      "start": 128.3817,
      "duration": 0.0799,
      "velocity": 83,
      "chip": "ym2612"
    },
    {
      "channel": 5,
      "note": 69,
      "start": 128.4815,
      "duration": 0.3135,
      "velocity": 116,
      "chip": "ym2612"
    },
    {
      "channel": 0,
      "note": 69,
      "start": 128.4849,
      "duration": 0.3099,
      "velocity": 93,
      "chip": "ym2612"
    },
    {
      "channel": 1,
      "note": 40,
      "start": 128.4874,
      "duration": 0.2908,
      "velocity": 99,
      "chip": "ym2612"
    },
    {
      "channel": 3,
      "note": 96,
      "start": 128.4901,
      "duration": 0.0548,
      "velocity": 83,
      "chip": "ym2612"
    },
    {
      "channel": 3,
      "note": 88,
      "start": 128.565,
      "duration": 0.0799,
      "velocity": 83,
      "chip": "ym2612"
    },
    {
      "channel": 3,
      "note": 95,
      "start": 128.6651,
      "duration": 0.0799,
      "velocity": 83,
      "chip": "ym2612"
    },
    {
      "channel": 3,
      "note": 88,
      "start": 128.765,
      "duration": 0.0798,
      "velocity": 83,
      "chip": "ym2612"
    },
    {
      "channel": 5,
      "note": 77,
      "start": 128.8649,
      "duration": 0.5135,
      "velocity": 116,
      "chip": "ym2612"
    },
    {
      "channel": 0,
      "note": 77,
      "start": 128.8687,
      "duration": 0.5095,
      "velocity": 93,
      "chip": "ym2612"
    },
    {
      "channel": 1,
      "note": 38,
      "start": 128.8711,
      "duration": 0.2903,
      "velocity": 99,
      "chip": "ym2612"
    },
    {
      "channel": 3,
      "note": 93,
      "start": 128.8738,
      "duration": 0.0545,
      "velocity": 83,
      "chip": "ym2612"
    },
    {
      "channel": 3,
      "note": 89,
      "start": 128.9484,
      "duration": 0.0799,
      "velocity": 83,
      "chip": "ym2612"
    },
    {
      "channel": 3,
      "note": 93,
      "start": 129.0484,
      "duration": 0.0799,
      "velocity": 83,
      "chip": "ym2612"
    },
    {
      "channel": 3,
      "note": 89,
      "start": 129.1483,
      "duration": 0.08,
      "velocity": 83,
      "chip": "ym2612"
    },
    {
      "channel": 1,
      "note": 40,
      "start": 129.248,
      "duration": 0.2968,
      "velocity": 99,
      "chip": "ym2612"
    },
    {
      "channel": 3,
      "note": 100,
      "start": 129.2507,
      "duration": 0.061,
      "velocity": 83,
      "chip": "ym2612"
    },
    {
      "channel": 3,
      "note": 89,
      "start": 129.3317,
      "duration": 0.0799,
      "velocity": 83,
      "chip": "ym2612"
    },
    {
      "channel": 5,
      "note": 79,
      "start": 129.4318,
      "duration": 0.4798,
      "velocity": 116,
      "chip": "ym2612"
    },
    {
      "channel": 0,
      "note": 79,
      "start": 129.4351,
      "duration": 0.4597,
      "velocity": 93,
      "chip": "ym2612"
    },
    {
      "channel": 3,
      "note": 93,
      "start": 129.4383,
      "duration": 0.0733,
      "velocity": 83,
      "chip": "ym2612"
    },
    {
      "channel": 3,
      "note": 89,
      "start": 129.5318,
      "duration": 0.0798,
      "velocity": 83,
      "chip": "ym2612"
    },
    {
      "channel": 1,
      "note": 41,
      "start": 129.6313,
      "duration": 0.297,
      "velocity": 99,
      "chip": "ym2612"
    },
    {
      "channel": 3,
      "note": 98,
      "start": 129.6341,
      "duration": 0.0646,
      "velocity": 83,
      "chip": "ym2612"
    },
    {
      "channel": 3,
      "note": 89,
      "start": 129.7151,
      "duration": 0.0798,
      "velocity": 83,
      "chip": "ym2612"
    },
    {
      "channel": 3,
      "note": 93,
      "start": 129.815,
      "duration": 0.0799,
      "velocity": 83,
      "chip": "ym2612"
    },
    {
      "channel": 3,
      "note": 89,
      "start": 129.9151,
      "duration": 0.0798,
      "velocity": 83,
      "chip": "ym2612"
    },
    {
      "channel": 5,
      "note": 77,
      "start": 130.0149,
      "duration": 0.3134,
      "velocity": 116,
      "chip": "ym2612"
    },
    {
      "channel": 0,
      "note": 77,
      "start": 130.0183,
      "duration": 0.2931,
      "velocity": 93,
      "chip": "ym2612"
    },
    {
      "channel": 1,
      "note": 45,
      "start": 130.0207,
      "duration": 0.2908,
      "velocity": 99,
      "chip": "ym2612"
    },
    {
      "channel": 3,
      "note": 96,
      "start": 130.0234,
      "duration": 0.0583,
      "velocity": 83,
      "chip": "ym2612"
    },
    {
      "channel": 3,
      "note": 89,
      "start": 130.0983,
      "duration": 0.08,
      "velocity": 83,
      "chip": "ym2612"
    },
    {
      "channel": 3,
      "note": 95,
      "start": 130.1984,
      "duration": 0.0799,
      "velocity": 83,
      "chip": "ym2612"
    },
    {
      "channel": 3,
      "note": 89,
      "start": 130.2983,
      "duration": 0.08,
      "velocity": 83,
      "chip": "ym2612"
    },
    {
      "channel": 5,
      "note": 76,
      "start": 130.3982,
      "duration": 0.5135,
      "velocity": 116,
      "chip": "ym2612"
    },
    {
      "channel": 0,
      "note": 76,
      "start": 130.4016,
      "duration": 0.4932,
      "velocity": 93,
      "chip": "ym2612"
    },
    {
      "channel": 1,
      "note": 40,
      "start": 130.404,
      "duration": 0.2908,
      "velocity": 99,
      "chip": "ym2612"
    },
    {
      "channel": 3,
      "note": 92,
      "start": 130.4068,
      "duration": 0.0583,
      "velocity": 83,
      "chip": "ym2612"
    },
    {
      "channel": 3,
      "note": 88,
      "start": 130.4816,
      "duration": 0.08,
      "velocity": 83,
      "chip": "ym2612"
    },
    {
      "channel": 3,
      "note": 92,
      "start": 130.5817,
      "duration": 0.0799,
      "velocity": 83,
      "chip": "ym2612"
    },
    {
      "channel": 3,
      "note": 88,
      "start": 130.6816,
      "duration": 0.08,
      "velocity": 83,
      "chip": "ym2612"
    },
    {
      "channel": 1,
      "note": 43,
      "start": 130.7813,
      "duration": 0.297,
      "velocity": 99,
      "chip": "ym2612"
    },
    {
      "channel": 3,
      "note": 95,
      "start": 130.784,
      "duration": 0.0645,
      "velocity": 83,
      "chip": "ym2612"
    },
    {
      "channel": 3,
      "note": 88,
      "start": 130.865,
      "duration": 0.0799,
      "velocity": 83,
      "chip": "ym2612"
    },
    {
      "channel": 5,
      "note": 74,
      "start": 130.9647,
      "duration": 0.547,
      "velocity": 116,
      "chip": "ym2612"
    },
    {
      "channel": 0,
      "note": 74,
      "start": 130.968,
      "duration": 0.5435,
      "velocity": 93,
      "chip": "ym2612"
    },
    {
      "channel": 3,
      "note": 92,
      "start": 130.9711,
      "duration": 0.0739,
      "velocity": 83,
      "chip": "ym2612"
    },
    {
      "channel": 3,
      "note": 88,
      "start": 131.065,
      "duration": 0.0799,
      "velocity": 83,
      "chip": "ym2612"
    },
    {
      "channel": 1,
      "note": 47,
      "start": 131.1646,
      "duration": 0.2969,
      "velocity": 99,
      "chip": "ym2612"
    },
    {
      "channel": 3,
      "note": 95,
      "start": 131.1674,
      "duration": 0.0776,
      "velocity": 83,
      "chip": "ym2612"
    },
    {
      "channel": 3,
      "note": 88,
      "start": 131.2522,
      "duration": 0.0761,
      "velocity": 83,
      "chip": "ym2612"
    },
    {
      "channel": 3,
      "note": 96,
      "start": 131.3484,
      "duration": 0.0798,
      "velocity": 83,
      "chip": "ym2612"
    },
    {
      "channel": 3,
      "note": 88,
      "start": 131.4484,
      "duration": 0.0798,
      "velocity": 83,
      "chip": "ym2612"
    },
    {
      "channel": 5,
      "note": 72,
      "start": 131.5482,
      "duration": 0.3136,
      "velocity": 116,
      "chip": "ym2612"
    },
    {
      "channel": 0,
      "note": 72,
      "start": 131.5517,
      "duration": 0.3098,
      "velocity": 93,
      "chip": "ym2612"
    },
    {
      "channel": 1,
      "note": 43,
      "start": 131.5541,
      "duration": 0.2907,
      "velocity": 99,
      "chip": "ym2612"
    },
    {
      "channel": 3,
      "note": 95,
      "start": 131.5568,
      "duration": 0.0715,
      "velocity": 83,
      "chip": "ym2612"
    },
    {
      "channel": 3,
      "note": 88,
      "start": 131.6352,
      "duration": 0.0764,
      "velocity": 83,
      "chip": "ym2612"
    },
    {
      "channel": 3,
      "note": 93,
      "start": 131.7317,
      "duration": 0.0799,
      "velocity": 83,
      "chip": "ym2612"
    },
    {
      "channel": 3,
      "note": 88,
      "start": 131.8316,
      "duration": 0.0799,
      "velocity": 83,
      "chip": "ym2612"
    },
    {
      "channel": 5,
      "note": 69,
      "start": 131.9316,
      "duration": 0.5134,
      "velocity": 116,
      "chip": "ym2612"
    },
    {
      "channel": 0,
      "note": 69,
      "start": 131.9354,
      "duration": 0.4928,
      "velocity": 93,
      "chip": "ym2612"
    },
    {
      "channel": 1,
      "note": 41,
      "start": 131.9382,
      "duration": 0.29,
      "velocity": 99,
      "chip": "ym2612"
    },
    {
      "channel": 3,
      "note": 93,
      "start": 131.9409,
      "duration": 0.0707,
      "velocity": 83,
      "chip": "ym2612"
    },
    {
      "channel": 3,
      "note": 84,
      "start": 132.0186,
      "duration": 0.0764,
      "velocity": 83,
      "chip": "ym2612"
    },
    {
      "channel": 3,
      "note": 89,
      "start": 132.115,
      "duration": 0.08,
      "velocity": 83,
      "chip": "ym2612"
    },
    {
      "channel": 3,
      "note": 84,
      "start": 132.215,
      "duration": 0.0798,
      "velocity": 83,
      "chip": "ym2612"
    },
    {
      "channel": 1,
      "note": 41,
      "start": 132.3147,
      "duration": 0.2968,
      "velocity": 99,
      "chip": "ym2612"
    },
    {
      "channel": 3,
      "note": 93,
      "start": 132.3174,
      "duration": 0.0776,
      "velocity": 83,
      "chip": "ym2612"
    },
    {
      "channel": 3,
      "note": 84,
      "start": 132.415,
      "duration": 0.0632,
      "velocity": 83,
      "chip": "ym2612"
    },
    {
      "channel": 5,
      "note": 65,
      "start": 132.4984,
      "duration": 0.5634,
      "velocity": 116,
      "chip": "ym2612"
    },
    {
      "channel": 0,
      "note": 65,
      "start": 132.5017,
      "duration": 0.5431,
      "velocity": 93,
      "chip": "ym2612"
    },
    {
      "channel": 3,
      "note": 96,
      "start": 132.5049,
      "duration": 0.0734,
      "velocity": 83,
      "chip": "ym2612"
    },
    {
      "channel": 3,
      "note": 84,
      "start": 132.5983,
      "duration": 0.08,
      "velocity": 83,
      "chip": "ym2612"
    },
    {
      "channel": 1,
      "note": 41,
      "start": 132.698,
      "duration": 0.2969,
      "velocity": 99,
      "chip": "ym2612"
    },
    {
      "channel": 3,
      "note": 93,
      "start": 132.7007,
      "duration": 0.0777,
      "velocity": 83,
      "chip": "ym2612"
    },
    {
      "channel": 3,
      "note": 84,
      "start": 132.7984,
      "duration": 0.0632,
      "velocity": 83,
      "chip": "ym2612"
    },
    {
      "channel": 3,
      "note": 89,
      "start": 132.8816,
      "duration": 0.0799,
      "velocity": 83,
      "chip": "ym2612"
    },
    {
      "channel": 3,
      "note": 84,
      "start": 132.9817,
      "duration": 0.0799,
      "velocity": 83,
      "chip": "ym2612"
    },
    {
      "channel": 5,
      "note": 74,
      "start": 133.0816,
      "duration": 0.2802,
      "velocity": 116,
      "chip": "ym2612"
    },
    {
      "channel": 0,
      "note": 74,
      "start": 133.085,
      "duration": 0.2599,
      "velocity": 93,
      "chip": "ym2612"
    },
    {
      "channel": 1,
      "note": 41,
      "start": 133.0874,
      "duration": 0.2907,
      "velocity": 99,
      "chip": "ym2612"
    },
    {
      "channel": 3,
      "note": 93,
      "start": 133.0902,
      "duration": 0.0715,
      "velocity": 83,
      "chip": "ym2612"
    },
    {
      "channel": 3,
      "note": 84,
      "start": 133.1817,
      "duration": 0.0632,
      "velocity": 83,
      "chip": "ym2612"
    },
    {
      "channel": 3,
      "note": 96,
      "start": 133.265,
      "duration": 0.08,
      "velocity": 83,
      "chip": "ym2612"
    },
    {
      "channel": 3,
      "note": 84,
      "start": 133.3652,
      "duration": 0.0796,
      "velocity": 83,
      "chip": "ym2612"
    },
    {
      "channel": 5,
      "note": 71,
      "start": 133.4649,
      "duration": 0.5469,
      "velocity": 116,
      "chip": "ym2612"
    },
    {
      "channel": 0,
      "note": 71,
      "start": 133.4683,
      "duration": 0.5266,
      "velocity": 93,
      "chip": "ym2612"
    },
    {
      "channel": 1,
      "note": 41,
      "start": 133.4708,
      "duration": 0.2908,
      "velocity": 99,
      "chip": "ym2612"
    },
    {
      "channel": 3,
      "note": 98,
      "start": 133.4734,
      "duration": 0.0715,
      "velocity": 83,
      "chip": "ym2612"
    },
    {
      "channel": 3,
      "note": 84,
      "start": 133.565,
      "duration": 0.0632,
      "velocity": 83,
      "chip": "ym2612"
    },
    {
      "channel": 3,
      "note": 95,
      "start": 133.6483,
      "duration": 0.08,
      "velocity": 83,
      "chip": "ym2612"
    },
    {
      "channel": 3,
      "note": 84,
      "start": 133.7484,
      "duration": 0.0798,
      "velocity": 83,
      "chip": "ym2612"
    },
    {
      "channel": 1,
      "note": 41,
      "start": 133.848,
      "duration": 0.2969,
      "velocity": 99,
      "chip": "ym2612"
    },
    {
      "channel": 3,
      "note": 91,
      "start": 133.8507,
      "duration": 0.0775,
      "velocity": 83,
      "chip": "ym2612"
    },
    {
      "channel": 3,
      "note": 84,
      "start": 133.9484,
      "duration": 0.0632,
      "velocity": 83,
      "chip": "ym2612"
    },
    {
      "channel": 5,
      "note": 67,
      "start": 134.0313,
      "duration": 0.5639,
      "velocity": 116,
      "chip": "ym2612"
    },
    {
      "channel": 0,
      "note": 67,
      "start": 134.0346,
      "duration": 0.5603,
      "velocity": 93,
      "chip": "ym2612"
    },
    {
      "channel": 3,
      "note": 98,
      "start": 134.0378,
      "duration": 0.0739,
      "velocity": 83,
      "chip": "ym2612"
    },
    {
      "channel": 3,
      "note": 84,
      "start": 134.1317,
      "duration": 0.0798,
      "velocity": 83,
      "chip": "ym2612"
    },
    {
      "channel": 1,
      "note": 41,
      "start": 134.2312,
      "duration": 0.2969,
      "velocity": 99,
      "chip": "ym2612"
    },
    {
      "channel": 3,
      "note": 95,
      "start": 134.234,
      "duration": 0.0777,
      "velocity": 83,
      "chip": "ym2612"
    },
    {
      "channel": 3,
      "note": 84,
      "start": 134.3317,
      "duration": 0.0633,
      "velocity": 83,
      "chip": "ym2612"
    },
    {
      "channel": 3,
      "note": 91,
      "start": 134.415,
      "duration": 0.0799,
      "velocity": 83,
      "chip": "ym2612"
    },
    {
      "channel": 3,
      "note": 84,
      "start": 134.515,
      "duration": 0.08,
      "velocity": 83,
      "chip": "ym2612"
    },
    {
      "channel": 5,
      "note": 76,
      "start": 134.6149,
      "duration": 0.33,
      "velocity": 116,
      "chip": "ym2612"
    },
    {
      "channel": 0,
      "note": 76,
      "start": 134.6183,
      "duration": 0.3099,
      "velocity": 93,
      "chip": "ym2612"
    },
    {
      "channel": 1,
      "note": 41,
      "start": 134.6208,
      "duration": 0.2907,
      "velocity": 99,
      "chip": "ym2612"
    },
    {
      "channel": 3,
      "note": 98,
      "start": 134.6235,
      "duration": 0.0715,
      "velocity": 83,
      "chip": "ym2612"
    },
    {
      "channel": 3,
      "note": 84,
      "start": 134.715,
      "duration": 0.0632,
      "velocity": 83,
      "chip": "ym2612"
    },
    {
      "channel": 3,
      "note": 91,
      "start": 134.7984,
      "duration": 0.0799,
      "velocity": 83,
      "chip": "ym2612"
    },
    {
      "channel": 3,
      "note": 84,
      "start": 134.8983,
      "duration": 0.08,
      "velocity": 83,
      "chip": "ym2612"
    },
    {
      "channel": 5,
      "note": 74,
      "start": 134.9982,
      "duration": 0.5171,
      "velocity": 116,
      "chip": "ym2612"
    },
    {
      "channel": 0,
      "note": 74,
      "start": 135.0019,
      "duration": 0.5095,
      "velocity": 93,
      "chip": "ym2612"
    },
    {
      "channel": 1,
      "note": 40,
      "start": 135.0044,
      "duration": 0.2904,
      "velocity": 99,
      "chip": "ym2612"
    },
    {
      "channel": 3,
      "note": 91,
      "start": 135.0071,
      "duration": 0.0712,
      "velocity": 83,
      "chip": "ym2612"
    },
    {
      "channel": 3,
      "note": 83,
      "start": 135.0984,
      "duration": 0.0632,
      "velocity": 83,
      "chip": "ym2612"
    },
    {
      "channel": 3,
      "note": 88,
      "start": 135.1817,
      "duration": 0.0799,
      "velocity": 83,
      "chip": "ym2612"
    },
    {
      "channel": 3,
      "note": 83,
      "start": 135.2816,
      "duration": 0.08,
      "velocity": 83,
      "chip": "ym2612"
    },
    {
      "channel": 1,
      "note": 40,
      "start": 135.3813,
      "duration": 0.2969,
      "velocity": 99,
      "chip": "ym2612"
    },
    {
      "channel": 3,
      "note": 91,
      "start": 135.384,
      "duration": 0.0776,
      "velocity": 83,
      "chip": "ym2612"
    },
    {
      "channel": 3,
      "note": 83,
      "start": 135.4816,
      "duration": 0.0632,
      "velocity": 83,
      "chip": "ym2612"
    },
    {
      "channel": 5,
      "note": 72,
      "start": 135.5648,
      "duration": 0.4969,
      "velocity": 116,
      "chip": "ym2612"
    },
    {
      "channel": 0,
      "note": 72,
      "start": 135.568,
      "duration": 0.4934,
      "velocity": 93,
      "chip": "ym2612"
    },
    {
      "channel": 3,
      "note": 95,
      "start": 135.5712,
      "duration": 0.0737,
      "velocity": 83,
      "chip": "ym2612"
    },
    {
      "channel": 3,
      "note": 83,
      "start": 135.665,
      "duration": 0.0799,
      "velocity": 83,
      "chip": "ym2612"
    },
    {
      "channel": 1,
      "note": 40,
      "start": 135.7646,
      "duration": 0.2969,
      "velocity": 99,
      "chip": "ym2612"
    },
    {
      "channel": 3,
      "note": 91,
      "start": 135.7674,
      "duration": 0.0776,
      "velocity": 83,
      "chip": "ym2612"
    },
    {
      "channel": 3,
      "note": 83,
      "start": 135.865,
      "duration": 0.0632,
      "velocity": 83,
      "chip": "ym2612"
    },
    {
      "channel": 3,
      "note": 88,
      "start": 135.9484,
      "duration": 0.0798,
      "velocity": 83,
      "chip": "ym2612"
    },
    {
      "channel": 3,
      "note": 83,
      "start": 136.0483,
      "duration": 0.08,
      "velocity": 83,
      "chip": "ym2612"
    },
    {
      "channel": 5,
      "note": 76,
      "start": 136.1486,
      "duration": 0.3464,
      "velocity": 116,
      "chip": "ym2612"
    },
    {
      "channel": 0,
      "note": 76,
      "start": 136.152,
      "duration": 0.3262,
      "velocity": 93,
      "chip": "ym2612"
    },
    {
      "channel": 1,
      "note": 43,
      "start": 136.1544,
      "duration": 0.2904,
      "velocity": 99,
      "chip": "ym2612"
    },
    {
      "channel": 3,
      "note": 95,
      "start": 136.1571,
      "duration": 0.0712,
      "velocity": 83,
      "chip": "ym2612"
    },
    {
      "channel": 3,
      "note": 83,
      "start": 136.2484,
      "duration": 0.0632,
      "velocity": 83,
      "chip": "ym2612"
    },
    {
      "channel": 3,
      "note": 91,
      "start": 136.3317,
      "duration": 0.0799,
      "velocity": 83,
      "chip": "ym2612"
    },
    {
      "channel": 3,
      "note": 83,
      "start": 136.4316,
      "duration": 0.08,
      "velocity": 83,
      "chip": "ym2612"
    },
    {
      "channel": 5,
      "note": 77,
      "start": 136.5315,
      "duration": 0.4803,
      "velocity": 116,
      "chip": "ym2612"
    },
    {
      "channel": 0,
      "note": 77,
      "start": 136.5349,
      "duration": 0.4766,
      "velocity": 93,
      "chip": "ym2612"
    },
    {
      "channel": 1,
      "note": 45,
      "start": 136.5374,
      "duration": 0.2908,
      "velocity": 99,
      "chip": "ym2612"
    },
    {
      "channel": 3,
      "note": 96,
      "start": 136.5401,
      "duration": 0.0715,
      "velocity": 83,
      "chip": "ym2612"
    },
    {
      "channel": 3,
      "note": 81,
      "start": 136.6318,
      "duration": 0.0631,
      "velocity": 83,
      "chip": "ym2612"
    },
    {
      "channel": 3,
      "note": 93,
      "start": 136.715,
      "duration": 0.08,
      "velocity": 83,
      "chip": "ym2612"
    },
    {
      "channel": 3,
      "note": 81,
      "start": 136.815,
      "duration": 0.0799,
      "velocity": 83,
      "chip": "ym2612"
    },
    {
      "channel": 1,
      "note": 43,
      "start": 136.9147,
      "duration": 0.2968,
      "velocity": 99,
      "chip": "ym2612"
    },
    {
      "channel": 3,
      "note": 88,
      "start": 136.9174,
      "duration": 0.0775,
      "velocity": 83,
      "chip": "ym2612"
    },
    {
      "channel": 3,
      "note": 81,
      "start": 137.0152,
      "duration": 0.063,
      "velocity": 83,
      "chip": "ym2612"
    },
    {
      "channel": 5,
      "note": 76,
      "start": 137.098,
      "duration": 0.547,
      "velocity": 116,
      "chip": "ym2612"
    },
    {
      "channel": 0,
      "note": 76,
      "start": 137.1014,
      "duration": 0.5268,
      "velocity": 93,
      "chip": "ym2612"
    },
    {
      "channel": 3,
      "note": 96,
      "start": 137.1045,
      "duration": 0.0737,
      "velocity": 83,
      "chip": "ym2612"
    },
    {
      "channel": 3,
      "note": 81,
      "start": 137.1984,
      "duration": 0.0798,
      "velocity": 83,
      "chip": "ym2612"
    },
    {
      "channel": 1,
      "note": 40,
      "start": 137.298,
      "duration": 0.2969,
      "velocity": 99,
      "chip": "ym2612"
    },
    {
      "channel": 3,
      "note": 93,
      "start": 137.3007,
      "duration": 0.0776,
      "velocity": 83,
      "chip": "ym2612"
    },
    {
      "channel": 3,
      "note": 81,
      "start": 137.3984,
      "duration": 0.0632,
      "velocity": 83,
      "chip": "ym2612"
    },
    {
      "channel": 3,
      "note": 88,
      "start": 137.4817,
      "duration": 0.0799,
      "velocity": 83,
      "chip": "ym2612"
    },
    {
      "channel": 3,
      "note": 81,
      "start": 137.5816,
      "duration": 0.0799,
      "velocity": 83,
      "chip": "ym2612"
    },
    {
      "channel": 5,
      "note": 72,
      "start": 137.6816,
      "duration": 0.2969,
      "velocity": 116,
      "chip": "ym2612"
    },
    {
      "channel": 0,
      "note": 72,
      "start": 137.685,
      "duration": 0.2764,
      "velocity": 93,
      "chip": "ym2612"
    },
    {
      "channel": 1,
      "note": 39,
      "start": 137.6874,
      "duration": 0.2908,
      "velocity": 99,
      "chip": "ym2612"
    },
    {
      "channel": 3,
      "note": 96,
      "start": 137.6902,
      "duration": 0.0715,
      "velocity": 83,
      "chip": "ym2612"
    },
    {
      "channel": 3,
      "note": 81,
      "start": 137.7817,
      "duration": 0.0632,
      "velocity": 83,
      "chip": "ym2612"
    },
    {
      "channel": 3,
      "note": 93,
      "start": 137.865,
      "duration": 0.0799,
      "velocity": 83,
      "chip": "ym2612"
    },
    {
      "channel": 3,
      "note": 86,
      "start": 137.9651,
      "duration": 0.0798,
      "velocity": 83,
      "chip": "ym2612"
    },
    {
      "channel": 5,
      "note": 74,
      "start": 138.0649,
      "duration": 0.5302,
      "velocity": 116,
      "chip": "ym2612"
    },
    {
      "channel": 0,
      "note": 74,
      "start": 138.0687,
      "duration": 0.5261,
      "velocity": 93,
      "chip": "ym2612"
    },
    {
      "channel": 1,
      "note": 38,
      "start": 138.0715,
      "duration": 0.29,
      "velocity": 99,
      "chip": "ym2612"
    },
    {
      "channel": 3,
      "note": 89,
      "start": 138.0742,
      "duration": 0.0707,
      "velocity": 83,
      "chip": "ym2612"
    },
    {
      "channel": 3,
      "note": 86,
      "start": 138.165,
      "duration": 0.0667,
      "velocity": 83,
      "chip": "ym2612"
    },
    {
      "channel": 3,
      "note": 93,
      "start": 138.2484,
      "duration": 0.0799,
      "velocity": 83,
      "chip": "ym2612"
    },
    {
      "channel": 3,
      "note": 86,
      "start": 138.3483,
      "duration": 0.08,
      "velocity": 83,
      "chip": "ym2612"
    },
    {
      "channel": 1,
      "note": 40,
      "start": 138.448,
      "duration": 0.2969,
      "velocity": 99,
      "chip": "ym2612"
    },
    {
      "channel": 3,
      "note": 89,
      "start": 138.4507,
      "duration": 0.0776,
      "velocity": 83,
      "chip": "ym2612"
    },
    {
      "channel": 3,
      "note": 86,
      "start": 138.5483,
      "duration": 0.0669,
      "velocity": 83,
      "chip": "ym2612"
    },
    {
      "channel": 5,
      "note": 76,
      "start": 138.6322,
      "duration": 1.9961,
      "velocity": 116,
      "chip": "ym2612"
    },
    {
      "channel": 0,
      "note": 76,
      "start": 138.6358,
      "duration": 1.9753,
      "velocity": 93,
      "chip": "ym2612"
    },
    {
      "channel": 3,
      "note": 93,
      "start": 138.639,
      "duration": 0.0726,
      "velocity": 83,
      "chip": "ym2612"
    },
    {
      "channel": 3,
      "note": 86,
      "start": 138.7317,
      "duration": 0.0799,
      "velocity": 83,
      "chip": "ym2612"
    },
    {
      "channel": 1,
      "note": 41,
      "start": 138.8313,
      "duration": 0.2968,
      "velocity": 99,
      "chip": "ym2612"
    },
    {
      "channel": 3,
      "note": 96,
      "start": 138.834,
      "duration": 0.0776,
      "velocity": 83,
      "chip": "ym2612"
    },
    {
      "channel": 3,
      "note": 86,
      "start": 138.9316,
      "duration": 0.0669,
      "velocity": 83,
      "chip": "ym2612"
    },
    {
      "channel": 3,
      "note": 93,
      "start": 139.015,
      "duration": 0.08,
      "velocity": 83,
      "chip": "ym2612"
    },
    {
      "channel": 3,
      "note": 86,
      "start": 139.115,
      "duration": 0.08,
      "velocity": 83,
      "chip": "ym2612"
    },
    {
      "channel": 1,
      "note": 43,
      "start": 139.2146,
      "duration": 0.297,
      "velocity": 99,
      "chip": "ym2612"
    },
    {
      "channel": 3,
      "note": 89,
      "start": 139.2173,
      "duration": 0.0776,
      "velocity": 83,
      "chip": "ym2612"
    },
    {
      "channel": 3,
      "note": 86,
      "start": 139.3151,
      "duration": 0.0668,
      "velocity": 83,
      "chip": "ym2612"
    },
    {
      "channel": 3,
      "note": 100,
      "start": 139.3984,
      "duration": 0.0799,
      "velocity": 83,
      "chip": "ym2612"
    },
    {
      "channel": 3,
      "note": 86,
      "start": 139.4984,
      "duration": 0.0798,
      "velocity": 83,
      "chip": "ym2612"
    },
    {
      "channel": 1,
      "note": 45,
      "start": 139.598,
      "duration": 0.2968,
      "velocity": 99,
      "chip": "ym2612"
    },
    {
      "channel": 3,
      "note": 98,
      "start": 139.6007,
      "duration": 0.0775,
      "velocity": 83,
      "chip": "ym2612"
    },
    {
      "channel": 3,
      "note": 86,
      "start": 139.6984,
      "duration": 0.0799,
      "velocity": 83,
      "chip": "ym2612"
    },
    {
      "channel": 3,
      "note": 96,
      "start": 139.7855,
      "duration": 0.0761,
      "velocity": 83,
      "chip": "ym2612"
    },
    {
      "channel": 3,
      "note": 86,
      "start": 139.8817,
      "duration": 0.0798,
      "velocity": 83,
      "chip": "ym2612"
    },
    {
      "channel": 1,
      "note": 43,
      "start": 139.9812,
      "duration": 0.2969,
      "velocity": 99,
      "chip": "ym2612"
    },
    {
      "channel": 3,
      "note": 95,
      "start": 139.984,
      "duration": 0.0775,
      "velocity": 83,
      "chip": "ym2612"
    },
    {
      "channel": 3,
      "note": 86,
      "start": 140.0816,
      "duration": 0.0798,
      "velocity": 83,
      "chip": "ym2612"
    },
    {
      "channel": 3,
      "note": 93,
      "start": 140.1674,
      "duration": 0.0775,
      "velocity": 83,
      "chip": "ym2612"
    },
    {
      "channel": 3,
      "note": 86,
      "start": 140.265,
      "duration": 0.0799,
      "velocity": 83,
      "chip": "ym2612"
    },
    {
      "channel": 1,
      "note": 40,
      "start": 140.3645,
      "duration": 0.2967,
      "velocity": 99,
      "chip": "ym2612"
    },
    {
      "channel": 3,
      "note": 91,
      "start": 140.3673,
      "duration": 0.0776,
      "velocity": 83,
      "chip": "ym2612"
    },
    {
      "channel": 3,
      "note": 86,
      "start": 140.4649,
      "duration": 0.08,
      "velocity": 83,
      "chip": "ym2612"
    },
    {
      "channel": 3,
      "note": 89,
      "start": 140.5504,
      "duration": 0.0777,
      "velocity": 83,
      "chip": "ym2612"
    },
    {
      "channel": 3,
      "note": 86,
      "start": 140.6482,
      "duration": 0.08,
      "velocity": 83,
      "chip": "ym2612"
    },
    {
      "channel": 5,
      "note": 76,
      "start": 140.7481,
      "duration": 0.1969,
      "velocity": 116,
      "chip": "ym2612"
    },
    {
      "channel": 0,
      "note": 76,
      "start": 140.7516,
      "duration": 0.1765,
      "velocity": 93,
      "chip": "ym2612"
    },
    {
      "channel": 1,
      "note": 39,
      "start": 140.754,
      "duration": 0.2909,
      "velocity": 99,
      "chip": "ym2612"
    },
    {
      "channel": 3,
      "note": 88,
      "start": 140.7568,
      "duration": 0.0715,
      "velocity": 83,
      "chip": "ym2612"
    },
    {
      "channel": 3,
      "note": 86,
      "start": 140.8484,
      "duration": 0.08,
      "velocity": 83,
      "chip": "ym2612"
    },
    {
      "channel": 5,
      "note": 79,
      "start": 140.9482,
      "duration": 0.097,
      "velocity": 116,
      "chip": "ym2612"
    },
    {
      "channel": 0,
      "note": 79,
      "start": 140.9515,
      "duration": 0.0933,
      "velocity": 93,
      "chip": "ym2612"
    },
    {
      "channel": 3,
      "note": 89,
      "start": 140.9543,
      "duration": 0.0573,
      "velocity": 83,
      "chip": "ym2612"
    },
    {
      "channel": 3,
      "note": 86,
      "start": 141.0317,
      "duration": 0.0798,
      "velocity": 83,
      "chip": "ym2612"
    },
    {
      "channel": 5,
      "note": 81,
      "start": 141.1318,
      "duration": 2.4631,
      "velocity": 116,
      "chip": "ym2612"
    },
    {
      "channel": 0,
      "note": 81,
      "start": 141.1359,
      "duration": 2.442,
      "velocity": 93,
      "chip": "ym2612"
    },
    {
      "channel": 1,
      "note": 40,
      "start": 141.1383,
      "duration": 0.2899,
      "velocity": 99,
      "chip": "ym2612"
    },
    {
      "channel": 3,
      "note": 95,
      "start": 141.141,
      "duration": 0.0705,
      "velocity": 83,
      "chip": "ym2612"
    },
    {
      "channel": 3,
      "note": 88,
      "start": 141.2318,
      "duration": 0.0798,
      "velocity": 83,
      "chip": "ym2612"
    },
    {
      "channel": 3,
      "note": 92,
      "start": 141.3317,
      "duration": 0.0633,
      "velocity": 83,
      "chip": "ym2612"
    },
    {
      "channel": 3,
      "note": 88,
      "start": 141.415,
      "duration": 0.0798,
      "velocity": 83,
      "chip": "ym2612"
    },
    {
      "channel": 1,
      "note": 40,
      "start": 141.5147,
      "duration": 0.2968,
      "velocity": 99,
      "chip": "ym2612"
    },
    {
      "channel": 3,
      "note": 95,
      "start": 141.5174,
      "duration": 0.0776,
      "velocity": 83,
      "chip": "ym2612"
    },
    {
      "channel": 3,
      "note": 88,
      "start": 141.615,
      "duration": 0.0799,
      "velocity": 83,
      "chip": "ym2612"
    },
    {
      "channel": 3,
      "note": 98,
      "start": 141.7155,
      "duration": 0.0628,
      "velocity": 83,
      "chip": "ym2612"
    },
    {
      "channel": 3,
      "note": 88,
      "start": 141.7984,
      "duration": 0.0799,
      "velocity": 83,
      "chip": "ym2612"
    },
    {
      "channel": 1,
      "note": 40,
      "start": 141.8979,
      "duration": 0.297,
      "velocity": 99,
      "chip": "ym2612"
    },
    {
      "channel": 3,
      "note": 95,
      "start": 141.9007,
      "duration": 0.0776,
      "velocity": 83,
      "chip": "ym2612"
    },
    {
      "channel": 3,
      "note": 88,
      "start": 141.9984,
      "duration": 0.0798,
      "velocity": 83,
      "chip": "ym2612"
    },
    {
      "channel": 3,
      "note": 95,
      "start": 142.0983,
      "duration": 0.0632,
      "velocity": 83,
      "chip": "ym2612"
    },
    {
      "channel": 3,
      "note": 88,
      "start": 142.1818,
      "duration": 0.0798,
      "velocity": 83,
      "chip": "ym2612"
    },
    {
      "channel": 1,
      "note": 38,
      "start": 142.2813,
      "duration": 0.2968,
      "velocity": 99,
      "chip": "ym2612"
    },
    {
      "channel": 3,
      "note": 100,
      "start": 142.2841,
      "duration": 0.0776,
      "velocity": 83,
      "chip": "ym2612"
    },
    {
      "channel": 3,
      "note": 88,
      "start": 142.3816,
      "duration": 0.08,
      "velocity": 83,
      "chip": "ym2612"
    },
    {
      "channel": 3,
      "note": 92,
      "start": 142.4817,
      "duration": 0.0632,
      "velocity": 83,
      "chip": "ym2612"
    },
    {
      "channel": 3,
      "note": 88,
      "start": 142.565,
      "duration": 0.0799,
      "velocity": 83,
      "chip": "ym2612"
    },
    {
      "channel": 1,
      "note": 40,
      "start": 142.6645,
      "duration": 0.2969,
      "velocity": 99,
      "chip": "ym2612"
    },
    {
      "channel": 3,
      "note": 98,
      "start": 142.6673,
      "duration": 0.0776,
      "velocity": 83,
      "chip": "ym2612"
    },
    {
      "channel": 3,
      "note": 88,
      "start": 142.7649,
      "duration": 0.08,
      "velocity": 83,
      "chip": "ym2612"
    },
    {
      "channel": 3,
      "note": 95,
      "start": 142.8649,
      "duration": 0.0632,
      "velocity": 83,
      "chip": "ym2612"
    },
    {
      "channel": 3,
      "note": 88,
      "start": 142.9483,
      "duration": 0.0799,
      "velocity": 83,
      "chip": "ym2612"
    },
    {
      "channel": 1,
      "note": 38,
      "start": 143.0479,
      "duration": 0.2969,
      "velocity": 99,
      "chip": "ym2612"
    },
    {
      "channel": 3,
      "note": 92,
      "start": 143.0506,
      "duration": 0.0776,
      "velocity": 83,
      "chip": "ym2612"
    },
    {
      "channel": 3,
      "note": 88,
      "start": 143.1482,
      "duration": 0.0799,
      "velocity": 83,
      "chip": "ym2612"
    },
    {
      "channel": 3,
      "note": 98,
      "start": 143.2487,
      "duration": 0.0629,
      "velocity": 83,
      "chip": "ym2612"
    },
    {
      "channel": 3,
      "note": 88,
      "start": 143.3316,
      "duration": 0.0799,
      "velocity": 83,
      "chip": "ym2612"
    },
    {
      "channel": 1,
      "note": 36,
      "start": 143.4312,
      "duration": 0.2967,
      "velocity": 99,
      "chip": "ym2612"
    },
    {
      "channel": 3,
      "note": 96,
      "start": 143.4339,
      "duration": 0.0776,
      "velocity": 83,
      "chip": "ym2612"
    },
    {
      "channel": 3,
      "note": 88,
      "start": 143.5316,
      "duration": 0.08,
      "velocity": 83,
      "chip": "ym2612"
    },
    {
      "channel": 3,
      "note": 95,
      "start": 143.6316,
      "duration": 0.0633,
      "velocity": 83,
      "chip": "ym2612"
    },
    {
      "channel": 3,
      "note": 88,
      "start": 143.7149,
      "duration": 0.08,
      "velocity": 83,
      "chip": "ym2612"
    },
    {
      "channel": 1,
      "note": 35,
      "start": 143.8145,
      "duration": 0.2969,
      "velocity": 99,
      "chip": "ym2612"
    },
    {
      "channel": 3,
      "note": 93,
      "start": 143.8173,
      "duration": 0.0776,
      "velocity": 83,
      "chip": "ym2612"
    },
    {
      "channel": 3,
      "note": 88,
      "start": 143.9149,
      "duration": 0.0799,
      "velocity": 83,
      "chip": "ym2612"
    },
    {
      "channel": 3,
      "note": 92,
      "start": 144.015,
      "duration": 0.0632,
      "velocity": 83,
      "chip": "ym2612"
    },
    {
      "channel": 3,
      "note": 88,
      "start": 144.0983,
      "duration": 0.0798,
      "velocity": 83,
      "chip": "ym2612"
    },
    {
      "channel": 5,
      "note": 72,
      "start": 144.2004,
      "duration": 1.0148,
      "velocity": 116,
      "chip": "ym2612"
    },
    {
      "channel": 0,
      "note": 76,
      "start": 144.2055,
      "duration": 0.5226,
      "velocity": 93,
      "chip": "ym2612"
    },
    {
      "channel": 1,
      "note": 41,
      "start": 144.2084,
      "duration": 0.3032,
      "velocity": 99,
      "chip": "ym2612"
    },
    {
      "channel": 3,
      "note": 88,
      "start": 144.2115,
      "duration": 0.0668,
      "velocity": 83,
      "chip": "ym2612"
    },
    {
      "channel": 3,
      "note": 93,
      "start": 144.3986,
      "duration": 0.0631,
      "velocity": 83,
      "chip": "ym2612"
    },
    {
      "channel": 3,
      "note": 100,
      "start": 144.5657,
      "duration": 0.0959,
      "velocity": 83,
      "chip": "ym2612"
    },
    {
      "channel": 1,
      "note": 40,
      "start": 144.5815,
      "duration": 0.3634,
      "velocity": 99,
      "chip": "ym2612"
    },
    {
      "channel": 0,
      "note": 69,
      "start": 144.7822,
      "duration": 0.5436,
      "velocity": 93,
      "chip": "ym2612"
    },
    {
      "channel": 3,
      "note": 88,
      "start": 144.7988,
      "duration": 0.0629,
      "velocity": 83,
      "chip": "ym2612"
    },
    {
      "channel": 1,
      "note": 38,
      "start": 144.9649,
      "duration": 0.33,
      "velocity": 99,
      "chip": "ym2612"
    },
    {
      "channel": 3,
      "note": 93,
      "start": 144.9985,
      "duration": 0.0798,
      "velocity": 83,
      "chip": "ym2612"
    },
    {
      "channel": 3,
      "note": 98,
      "start": 145.1819,
      "duration": 0.063,
      "velocity": 83,
      "chip": "ym2612"
    }
  ]
}