{
  "track_name": "14 - Lavapit Combat",
  "duration_sec": 46.186,
  "sample_rate": 44100,
  "note_count": 759,
  "unique_pitches": 33,
  "pitch_range": 44,
  "avg_note_duration": 0.0913,
  "reconstruction_stats": {
    "notes_reconstructed": 759,
    "keyon_events": 759,
    "keyoff_events": 758,
    "orphan_keyons": 1,
    "unique_pitches": 33,
    "pitch_range": 44,
    "avg_duration_sec": 0.0913
  },
  "metadata": {
    "source": "D\\Dungeons & Dragons - Warriors of the Eternal Sun\\14 - Lavapit Combat.vgz"
  },
  "notes": [
    {
      "channel": 0,
      "note": 93,
      "start": 0.0227,
      "duration": 0.0517,
      "velocity": 111,
      "chip": "ym2612"
    },
    {
      "channel": 3,
      "note": 88,
      "start": 0.0278,
      "duration": 0.0466,
      "velocity": 111,
      "chip": "ym2612"
    },
    {
      "channel": 1,
      "note": 57,
      "start": 0.0329,
      "duration": 0.0415,
      "velocity": 93,
      "chip": "ym2612"
    },
    {
      "channel": 0,
      "note": 93,
      "start": 0.0767,
      "duration": 0.0371,
      "velocity": 111,
      "chip": "ym2612"
    },
    {
      "channel": 3,
      "note": 88,
      "start": 0.0789,
      "duration": 0.0351,
      "velocity": 111,
      "chip": "ym2612"
    },
    {
      "channel": 1,
      "note": 57,
      "start": 0.0818,
      "duration": 0.032,
      "velocity": 93,
      "chip": "ym2612"
    },
    {
      "channel": 0,
      "note": 93,
      "start": 0.1161,
      "duration": 0.0442,
      "velocity": 111,
      "chip": "ym2612"
    },
    {
      "channel": 3,
      "note": 88,
      "start": 0.1181,
      "duration": 0.0424,
      "velocity": 111,
      "chip": "ym2612"
    },
    {
      "channel": 1,
      "note": 57,
      "start": 0.1211,
      "duration": 0.0392,
      "velocity": 93,
      "chip": "ym2612"
    },
    {
      "channel": 0,
      "note": 93,
      "start": 0.1633,
      "duration": 0.0361,
      "velocity": 111,
      "chip": "ym2612"
    },
    {
      "channel": 3,
      "note": 88,
      "start": 0.1654,
      "duration": 0.0341,
      "velocity": 111,
      "chip": "ym2612"
    },
    {
      "channel": 1,
      "note": 57,
      "start": 0.1675,
      "duration": 0.032,
      "velocity": 93,
      "chip": "ym2612"
    },
    {
      "channel": 0,
      "note": 93,
      "start": 0.2022,
      "duration": 0.1787,
      "velocity": 111,
      "chip": "ym2612"
    },
    {
      "channel": 3,
      "note": 88,
      "start": 0.2056,
      "duration": 0.1754,
      "velocity": 111,
      "chip": "ym2612"
    },
    {
      "channel": 1,
      "note": 57,
      "start": 0.2078,
      "duration": 0.0323,
      "velocity": 93,
      "chip": "ym2612"
    },
    {
      "channel": 1,
      "note": 57,
      "start": 0.2864,
      "duration": 0.0331,
      "velocity": 93,
      "chip": "ym2612"
    },
    {
      "channel": 1,
      "note": 57,
      "start": 0.3838,
      "duration": 0.0806,
      "velocity": 93,
      "chip": "ym2612"
    },
    {
      "channel": 1,
      "note": 57,
      "start": 0.5502,
      "duration": 0.0973,
      "velocity": 93,
      "chip": "ym2612"
    },
    {
      "channel": 1,
      "note": 57,
      "start": 0.7337,
      "duration": 0.0973,
      "velocity": 93,
      "chip": "ym2612"
    },
    {
      "channel": 1,
      "note": 55,
      "start": 0.9169,
      "duration": 0.0828,
      "velocity": 93,
      "chip": "ym2612"
    },
    {
      "channel": 1,
      "note": 55,
      "start": 1.1003,
      "duration": 0.0807,
      "velocity": 93,
      "chip": "ym2612"
    },
    {
      "channel": 1,
      "note": 60,
      "start": 1.2836,
      "duration": 0.0806,
      "velocity": 93,
      "chip": "ym2612"
    },
    {
      "channel": 1,
      "note": 55,
      "start": 1.4523,
      "duration": 0.0955,
      "velocity": 93,
      "chip": "ym2612"
    },
    {
      "channel": 1,
      "note": 57,
      "start": 1.6336,
      "duration": 0.0973,
      "velocity": 93,
      "chip": "ym2612"
    },
    {
      "channel": 1,
      "note": 57,
      "start": 1.8172,
      "duration": 0.0971,
      "velocity": 93,
      "chip": "ym2612"
    },
    {
      "channel": 1,
      "note": 57,
      "start": 1.917,
      "duration": 0.0807,
      "velocity": 93,
      "chip": "ym2612"
    },
    {
      "channel": 1,
      "note": 57,
      "start": 2.0004,
      "duration": 0.0385,
      "velocity": 93,
      "chip": "ym2612"
    },
    {
      "channel": 1,
      "note": 57,
      "start": 2.0413,
      "duration": 0.0413,
      "velocity": 93,
      "chip": "ym2612"
    },
    {
      "channel": 1,
      "note": 57,
      "start": 2.087,
      "duration": 0.0349,
      "velocity": 93,
      "chip": "ym2612"
    },
    {
      "channel": 1,
      "note": 57,
      "start": 2.1255,
      "duration": 0.0412,
      "velocity": 93,
      "chip": "ym2612"
    },
    {
      "channel": 0,
      "note": 67,
      "start": 2.169,
      "duration": 0.1872,
      "velocity": 111,
      "chip": "ym2612"
    },
    {
      "channel": 3,
      "note": 72,
      "start": 2.1712,
      "duration": 0.1854,
      "velocity": 111,
      "chip": "ym2612"
    },
    {
      "channel": 1,
      "note": 60,
      "start": 2.1735,
      "duration": 0.069,
      "velocity": 93,
      "chip": "ym2612"
    },
    {
      "channel": 1,
      "note": 60,
      "start": 2.2448,
      "duration": 0.1116,
      "velocity": 93,
      "chip": "ym2612"
    },
    {
      "channel": 0,
      "note": 67,
      "start": 2.3593,
      "duration": 0.0838,
      "velocity": 111,
      "chip": "ym2612"
    },
    {
      "channel": 3,
      "note": 72,
      "start": 2.3617,
      "duration": 0.0815,
      "velocity": 111,
      "chip": "ym2612"
    },
    {
      "channel": 1,
      "note": 60,
      "start": 2.3639,
      "duration": 0.0793,
      "velocity": 93,
      "chip": "ym2612"
    },
    {
      "channel": 0,
      "note": 67,
      "start": 2.4455,
      "duration": 0.0812,
      "velocity": 111,
      "chip": "ym2612"
    },
    {
      "channel": 3,
      "note": 72,
      "start": 2.4474,
      "duration": 0.0794,
      "velocity": 111,
      "chip": "ym2612"
    },
    {
      "channel": 1,
      "note": 67,
      "start": 2.4494,
      "duration": 0.0774,
      "velocity": 93,
      "chip": "ym2612"
    },
    {
      "channel": 0,
      "note": 67,
      "start": 2.5299,
      "duration": 0.093,
      "velocity": 111,
      "chip": "ym2612"
    },
    {
      "channel": 3,
      "note": 72,
      "start": 2.5321,
      "duration": 0.0911,
      "velocity": 111,
      "chip": "ym2612"
    },
    {
      "channel": 1,
      "note": 60,
      "start": 2.5339,
      "duration": 0.0891,
      "velocity": 93,
      "chip": "ym2612"
    },
    {
      "channel": 0,
      "note": 67,
      "start": 2.6256,
      "duration": 0.1659,
      "velocity": 111,
      "chip": "ym2612"
    },
    {
      "channel": 3,
      "note": 72,
      "start": 2.6279,
      "duration": 0.1639,
      "velocity": 111,
      "chip": "ym2612"
    },
    {
      "channel": 1,
      "note": 68,
      "start": 2.63,
      "duration": 0.1616,
      "velocity": 93,
      "chip": "ym2612"
    },
    {
      "channel": 0,
      "note": 67,
      "start": 2.7947,
      "duration": 0.0832,
      "velocity": 111,
      "chip": "ym2612"
    },
    {
      "channel": 3,
      "note": 72,
      "start": 2.797,
      "duration": 0.0811,
      "velocity": 111,
      "chip": "ym2612"
    },
    {
      "channel": 1,
      "note": 60,
      "start": 2.7991,
      "duration": 0.0788,
      "velocity": 93,
      "chip": "ym2612"
    },
    {
      "channel": 0,
      "note": 67,
      "start": 2.8802,
      "duration": 0.0815,
      "velocity": 111,
      "chip": "ym2612"
    },
    {
      "channel": 3,
      "note": 72,
      "start": 2.8822,
      "duration": 0.0796,
      "velocity": 111,
      "chip": "ym2612"
    },
    {
      "channel": 1,
      "note": 67,
      "start": 2.8842,
      "duration": 0.0776,
      "velocity": 93,
      "chip": "ym2612"
    },
    {
      "channel": 0,
      "note": 69,
      "start": 2.9643,
      "duration": 0.2025,
      "velocity": 111,
      "chip": "ym2612"
    },
    {
      "channel": 3,
      "note": 74,
      "start": 2.967,
      "duration": 0.2001,
      "velocity": 111,
      "chip": "ym2612"
    },
    {
      "channel": 1,
      "note": 62,
      "start": 2.9688,
      "duration": 0.0748,
      "velocity": 93,
      "chip": "ym2612"
    },
    {
      "channel": 1,
      "note": 62,
      "start": 3.046,
      "duration": 0.121,
      "velocity": 93,
      "chip": "ym2612"
    },
    {
      "channel": 0,
      "note": 69,
      "start": 3.1699,
      "duration": 0.0829,
      "velocity": 111,
      "chip": "ym2612"
    },
    {
      "channel": 3,
      "note": 74,
      "start": 3.1723,
      "duration": 0.0805,
      "velocity": 111,
      "chip": "ym2612"
    },
    {
      "channel": 1,
      "note": 62,
      "start": 3.1745,
      "duration": 0.0783,
      "velocity": 93,
      "chip": "ym2612"
    },
    {
      "channel": 0,
      "note": 69,
      "start": 3.2552,
      "duration": 0.0736,
      "velocity": 111,
      "chip": "ym2612"
    },
    {
      "channel": 3,
      "note": 74,
      "start": 3.2571,
      "duration": 0.0718,
      "velocity": 111,
      "chip": "ym2612"
    },
    {
      "channel": 1,
      "note": 69,
      "start": 3.259,
      "duration": 0.0698,
      "velocity": 93,
      "chip": "ym2612"
    },
    {
      "channel": 0,
      "note": 69,
      "start": 3.331,
      "duration": 0.0845,
      "velocity": 111,
      "chip": "ym2612"
    },
    {
      "channel": 3,
      "note": 74,
      "start": 3.333,
      "duration": 0.0827,
      "velocity": 111,
      "chip": "ym2612"
    },
    {
      "channel": 1,
      "note": 62,
      "start": 3.3361,
      "duration": 0.0795,
      "velocity": 93,
      "chip": "ym2612"
    },
    {
      "channel": 0,
      "note": 69,
      "start": 3.4182,
      "duration": 0.1806,
      "velocity": 111,
      "chip": "ym2612"
    },
    {
      "channel": 3,
      "note": 74,
      "start": 3.4204,
      "duration": 0.1787,
      "velocity": 111,
      "chip": "ym2612"
    },
    {
      "channel": 1,
      "note": 70,
      "start": 3.4225,
      "duration": 0.1764,
      "velocity": 93,
      "chip": "ym2612"
    },
    {
      "channel": 0,
      "note": 69,
      "start": 3.6015,
      "duration": 0.0836,
      "velocity": 111,
      "chip": "ym2612"
    },
    {
      "channel": 3,
      "note": 74,
      "start": 3.6037,
      "duration": 0.0816,
      "velocity": 111,
      "chip": "ym2612"
    },
    {
      "channel": 1,
      "note": 62,
      "start": 3.6059,
      "duration": 0.0794,
      "velocity": 93,
      "chip": "ym2612"
    },
    {
      "channel": 0,
      "note": 69,
      "start": 3.6874,
      "duration": 0.0811,
      "velocity": 111,
      "chip": "ym2612"
    },
    {
      "channel": 3,
      "note": 74,
      "start": 3.6893,
      "duration": 0.0794,
      "velocity": 111,
      "chip": "ym2612"
    },
    {
      "channel": 1,
      "note": 69,
      "start": 3.6912,
      "duration": 0.0774,
      "velocity": 93,
      "chip": "ym2612"
    },
    {
      "channel": 0,
      "note": 69,
      "start": 3.772,
      "duration": 0.1634,
      "velocity": 111,
      "chip": "ym2612"
    },
    {
      "channel": 3,
      "note": 64,
      "start": 3.7744,
      "duration": 0.1611,
      "velocity": 111,
      "chip": "ym2612"
    },
    {
      "channel": 1,
      "note": 62,
      "start": 3.7763,
      "duration": 0.0729,
      "velocity": 93,
      "chip": "ym2612"
    },
    {
      "channel": 1,
      "note": 57,
      "start": 3.8525,
      "duration": 0.1678,
      "velocity": 93,
      "chip": "ym2612"
    },
    {
      "channel": 0,
      "note": 67,
      "start": 5.1009,
      "duration": 0.1911,
      "velocity": 111,
      "chip": "ym2612"
    },
    {
      "channel": 3,
      "note": 72,
      "start": 5.1031,
      "duration": 0.1892,
      "velocity": 111,
      "chip": "ym2612"
    },
    {
      "channel": 1,
      "note": 60,
      "start": 5.1053,
      "duration": 0.0765,
      "velocity": 93,
      "chip": "ym2612"
    },
    {
      "channel": 1,
      "note": 60,
      "start": 5.1851,
      "duration": 0.107,
      "velocity": 93,
      "chip": "ym2612"
    },
    {
      "channel": 0,
      "note": 67,
      "start": 5.295,
      "duration": 0.0836,
      "velocity": 111,
      "chip": "ym2612"
    },
    {
      "channel": 3,
      "note": 72,
      "start": 5.2975,
      "duration": 0.0813,
      "velocity": 111,
      "chip": "ym2612"
    },
    {
      "channel": 1,
      "note": 60,
      "start": 5.2996,
      "duration": 0.079,
      "velocity": 93,
      "chip": "ym2612"
    },
    {
      "channel": 0,
      "note": 67,
      "start": 5.3809,
      "duration": 0.0811,
      "velocity": 111,
      "chip": "ym2612"
    },
    {
      "channel": 3,
      "note": 72,
      "start": 5.3828,
      "duration": 0.0794,
      "velocity": 111,
      "chip": "ym2612"
    },
    {
      "channel": 1,
      "note": 67,
      "start": 5.3847,
      "duration": 0.0773,
      "velocity": 93,
      "chip": "ym2612"
    },
    {
      "channel": 0,
      "note": 67,
      "start": 5.4652,
      "duration": 0.0923,
      "velocity": 111,
      "chip": "ym2612"
    },
    {
      "channel": 3,
      "note": 72,
      "start": 5.4675,
      "duration": 0.0903,
      "velocity": 111,
      "chip": "ym2612"
    },
    {
      "channel": 1,
      "note": 60,
      "start": 5.4693,
      "duration": 0.0883,
      "velocity": 93,
      "chip": "ym2612"
    },
    {
      "channel": 0,
      "note": 67,
      "start": 5.5602,
      "duration": 0.1806,
      "velocity": 111,
      "chip": "ym2612"
    },
    {
      "channel": 3,
      "note": 72,
      "start": 5.5625,
      "duration": 0.1786,
      "velocity": 111,
      "chip": "ym2612"
    },
    {
      "channel": 1,
      "note": 68,
      "start": 5.5651,
      "duration": 0.1758,
      "velocity": 93,
      "chip": "ym2612"
    },
    {
      "channel": 0,
      "note": 67,
      "start": 5.7436,
      "duration": 0.0786,
      "velocity": 111,
      "chip": "ym2612"
    },
    {
      "channel": 3,
      "note": 72,
      "start": 5.7457,
      "duration": 0.0766,
      "velocity": 111,
      "chip": "ym2612"
    },
    {
      "channel": 1,
      "note": 60,
      "start": 5.7479,
      "duration": 0.0744,
      "velocity": 93,
      "chip": "ym2612"
    },
    {
      "channel": 0,
      "note": 67,
      "start": 5.8246,
      "duration": 0.0792,
      "velocity": 111,
      "chip": "ym2612"
    },
    {
      "channel": 3,
      "note": 72,
      "start": 5.8267,
      "duration": 0.0771,
      "velocity": 111,
      "chip": "ym2612"
    },
    {
      "channel": 1,
      "note": 67,
      "start": 5.8299,
      "duration": 0.0739,
      "velocity": 93,
      "chip": "ym2612"
    },
    {
      "channel": 0,
      "note": 69,
      "start": 5.9064,
      "duration": 0.2072,
      "velocity": 111,
      "chip": "ym2612"
    },
    {
      "channel": 3,
      "note": 74,
      "start": 5.9085,
      "duration": 0.2053,
      "velocity": 111,
      "chip": "ym2612"
    },
    {
      "channel": 1,
      "note": 62,
      "start": 5.9105,
      "duration": 0.077,
      "velocity": 93,
      "chip": "ym2612"
    },
    {
      "channel": 1,
      "note": 62,
      "start": 5.9909,
      "duration": 0.1228,
      "velocity": 93,
      "chip": "ym2612"
    },
    {
      "channel": 0,
      "note": 69,
      "start": 6.1171,
      "duration": 0.0833,
      "velocity": 111,
      "chip": "ym2612"
    },
    {
      "channel": 3,
      "note": 74,
      "start": 6.1196,
      "duration": 0.081,
      "velocity": 111,
      "chip": "ym2612"
    },
    {
      "channel": 1,
      "note": 62,
      "start": 6.1217,
      "duration": 0.0787,
      "velocity": 93,
      "chip": "ym2612"
    },
    {
      "channel": 0,
      "note": 69,
      "start": 6.2028,
      "duration": 0.0764,
      "velocity": 111,
      "chip": "ym2612"
    },
    {
      "channel": 3,
      "note": 74,
      "start": 6.2047,
      "duration": 0.0747,
      "velocity": 111,
      "chip": "ym2612"
    },
    {
      "channel": 1,
      "note": 69,
      "start": 6.2067,
      "duration": 0.0727,
      "velocity": 93,
      "chip": "ym2612"
    },
    {
      "channel": 0,
      "note": 69,
      "start": 6.2827,
      "duration": 0.0837,
      "velocity": 111,
      "chip": "ym2612"
    },
    {
      "channel": 3,
      "note": 74,
      "start": 6.2847,
      "duration": 0.082,
      "velocity": 111,
      "chip": "ym2612"
    },
    {
      "channel": 1,
      "note": 62,
      "start": 6.2868,
      "duration": 0.0798,
      "velocity": 93,
      "chip": "ym2612"
    },
    {
      "channel": 0,
      "note": 69,
      "start": 6.3692,
      "duration": 0.1807,
      "velocity": 111,
      "chip": "ym2612"
    },
    {
      "channel": 3,
      "note": 74,
      "start": 6.3714,
      "duration": 0.1787,
      "velocity": 111,
      "chip": "ym2612"
    },
    {
      "channel": 1,
      "note": 70,
      "start": 6.3735,
      "duration": 0.1765,
      "velocity": 93,
      "chip": "ym2612"
    },
    {
      "channel": 0,
      "note": 69,
      "start": 6.5526,
      "duration": 0.0846,
      "velocity": 111,
      "chip": "ym2612"
    },
    {
      "channel": 3,
      "note": 74,
      "start": 6.5553,
      "duration": 0.082,
      "velocity": 111,
      "chip": "ym2612"
    },
    {
      "channel": 1,
      "note": 62,
      "start": 6.5575,
      "duration": 0.0797,
      "velocity": 93,
      "chip": "ym2612"
    },
    {
      "channel": 0,
      "note": 69,
      "start": 6.6396,
      "duration": 0.0808,
      "velocity": 111,
      "chip": "ym2612"
    },
    {
      "channel": 3,
      "note": 74,
      "start": 6.6415,
      "duration": 0.0791,
      "velocity": 111,
      "chip": "ym2612"
    },
    {
      "channel": 1,
      "note": 69,
      "start": 6.6434,
      "duration": 0.077,
      "velocity": 93,
      "chip": "ym2612"
    },
    {
      "channel": 0,
      "note": 76,
      "start": 6.7243,
      "duration": 0.2921,
      "velocity": 111,
      "chip": "ym2612"
    },
    {
      "channel": 3,
      "note": 69,
      "start": 6.7263,
      "duration": 0.0907,
      "velocity": 111,
      "chip": "ym2612"
    },
    {
      "channel": 1,
      "note": 62,
      "start": 6.7283,
      "duration": 0.0885,
      "velocity": 93,
      "chip": "ym2612"
    },
    {
      "channel": 3,
      "note": 69,
      "start": 6.82,
      "duration": 0.0389,
      "velocity": 111,
      "chip": "ym2612"
    },
    {
      "channel": 1,
      "note": 57,
      "start": 6.8224,
      "duration": 0.0364,
      "velocity": 93,
      "chip": "ym2612"
    },
    {
      "channel": 3,
      "note": 69,
      "start": 6.8612,
      "duration": 0.0354,
      "velocity": 111,
      "chip": "ym2612"
    },
    {
      "channel": 1,
      "note": 57,
      "start": 6.8632,
      "duration": 0.0332,
      "velocity": 93,
      "chip": "ym2612"
    },
    {
      "channel": 3,
      "note": 69,
      "start": 6.8998,
      "duration": 0.042,
      "velocity": 111,
      "chip": "ym2612"
    },
    {
      "channel": 1,
      "note": 57,
      "start": 6.9017,
      "duration": 0.04,
      "velocity": 93,
      "chip": "ym2612"
    },
    {
      "channel": 3,
      "note": 69,
      "start": 6.9442,
      "duration": 0.0724,
      "velocity": 111,
      "chip": "ym2612"
    },
    {
      "channel": 1,
      "note": 57,
      "start": 6.9461,
      "duration": 0.0705,
      "velocity": 93,
      "chip": "ym2612"
    },
    {
      "channel": 3,
      "note": 76,
      "start": 7.0194,
      "duration": 0.0463,
      "velocity": 111,
      "chip": "ym2612"
    },
    {
      "channel": 1,
      "note": 64,
      "start": 7.0215,
      "duration": 0.0441,
      "velocity": 93,
      "chip": "ym2612"
    },
    {
      "channel": 3,
      "note": 69,
      "start": 7.068,
      "duration": 0.0352,
      "velocity": 111,
      "chip": "ym2612"
    },
    {
      "channel": 1,
      "note": 57,
      "start": 7.0712,
      "duration": 0.032,
      "velocity": 93,
      "chip": "ym2612"
    },
    {
      "channel": 3,
      "note": 69,
      "start": 7.1056,
      "duration": 0.0376,
      "velocity": 111,
      "chip": "ym2612"
    },
    {
      "channel": 1,
      "note": 57,
      "start": 7.1077,
      "duration": 0.0354,
      "velocity": 93,
      "chip": "ym2612"
    },
    {
      "channel": 3,
      "note": 69,
      "start": 7.1454,
      "duration": 0.0606,
      "velocity": 111,
      "chip": "ym2612"
    },
    {
      "channel": 1,
      "note": 57,
      "start": 7.1475,
      "duration": 0.0584,
      "velocity": 93,
      "chip": "ym2612"
    },
    {
      "channel": 3,
      "note": 77,
      "start": 7.2087,
      "duration": 0.0807,
      "velocity": 111,
      "chip": "ym2612"
    },
    {
      "channel": 1,
      "note": 65,
      "start": 7.2109,
      "duration": 0.0784,
      "velocity": 93,
      "chip": "ym2612"
    },
    {
      "channel": 3,
      "note": 69,
      "start": 7.2921,
      "duration": 0.0974,
      "velocity": 111,
      "chip": "ym2612"
    },
    {
      "channel": 1,
      "note": 57,
      "start": 7.2942,
      "duration": 0.0951,
      "velocity": 93,
      "chip": "ym2612"
    },
    {
      "channel": 3,
      "note": 69,
      "start": 7.3921,
      "duration": 0.0399,
      "velocity": 111,
      "chip": "ym2612"
    },
    {
      "channel": 1,
      "note": 57,
      "start": 7.3943,
      "duration": 0.0376,
      "velocity": 93,
      "chip": "ym2612"
    },
    {
      "channel": 3,
      "note": 69,
      "start": 7.4344,
      "duration": 0.0374,
      "velocity": 111,
      "chip": "ym2612"
    },
    {
      "channel": 1,
      "note": 57,
      "start": 7.4363,
      "duration": 0.0354,
      "velocity": 93,
      "chip": "ym2612"
    },
    {
      "channel": 3,
      "note": 69,
      "start": 7.4741,
      "duration": 0.0425,
      "velocity": 111,
      "chip": "ym2612"
    },
    {
      "channel": 1,
      "note": 57,
      "start": 7.4761,
      "duration": 0.0404,
      "velocity": 93,
      "chip": "ym2612"
    },
    {
      "channel": 3,
      "note": 69,
      "start": 7.5189,
      "duration": 0.0349,
      "velocity": 111,
      "chip": "ym2612"
    },
    {
      "channel": 1,
      "note": 57,
      "start": 7.522,
      "duration": 0.0317,
      "velocity": 93,
      "chip": "ym2612"
    },
    {
      "channel": 3,
      "note": 74,
      "start": 7.5562,
      "duration": 0.0447,
      "velocity": 111,
      "chip": "ym2612"
    },
    {
      "channel": 1,
      "note": 62,
      "start": 7.5582,
      "duration": 0.0427,
      "velocity": 93,
      "chip": "ym2612"
    },
    {
      "channel": 3,
      "note": 69,
      "start": 7.6032,
      "duration": 0.0341,
      "velocity": 111,
      "chip": "ym2612"
    },
    {
      "channel": 1,
      "note": 57,
      "start": 7.6053,
      "duration": 0.032,
      "velocity": 93,
      "chip": "ym2612"
    },
    {
      "channel": 3,
      "note": 69,
      "start": 7.6407,
      "duration": 0.0412,
      "velocity": 111,
      "chip": "ym2612"
    },
    {
      "channel": 1,
      "note": 57,
      "start": 7.6427,
      "duration": 0.0392,
      "velocity": 93,
      "chip": "ym2612"
    },
    {
      "channel": 3,
      "note": 69,
      "start": 7.6852,
      "duration": 0.0768,
      "velocity": 111,
      "chip": "ym2612"
    },
    {
      "channel": 1,
      "note": 57,
      "start": 7.6873,
      "duration": 0.0746,
      "velocity": 93,
      "chip": "ym2612"
    },
    {
      "channel": 3,
      "note": 76,
      "start": 7.7647,
      "duration": 0.0402,
      "velocity": 111,
      "chip": "ym2612"
    },
    {
      "channel": 1,
      "note": 64,
      "start": 7.7675,
      "duration": 0.0373,
      "velocity": 93,
      "chip": "ym2612"
    },
    {
      "channel": 3,
      "note": 69,
      "start": 7.8072,
      "duration": 0.042,
      "velocity": 111,
      "chip": "ym2612"
    },
    {
      "channel": 1,
      "note": 57,
      "start": 7.8092,
      "duration": 0.04,
      "velocity": 93,
      "chip": "ym2612"
    },
    {
      "channel": 3,
      "note": 69,
      "start": 7.8516,
      "duration": 0.0366,
      "velocity": 111,
      "chip": "ym2612"
    },
    {
      "channel": 1,
      "note": 57,
      "start": 7.8538,
      "duration": 0.0344,
      "velocity": 93,
      "chip": "ym2612"
    },
    {
      "channel": 3,
      "note": 69,
      "start": 7.8915,
      "duration": 0.0423,
      "velocity": 111,
      "chip": "ym2612"
    },
    {
      "channel": 1,
      "note": 57,
      "start": 7.8934,
      "duration": 0.0403,
      "velocity": 93,
      "chip": "ym2612"
    },
    {
      "channel": 3,
      "note": 77,
      "start": 7.9362,
      "duration": 0.0342,
      "velocity": 111,
      "chip": "ym2612"
    },
    {
      "channel": 1,
      "note": 65,
      "start": 7.9383,
      "duration": 0.032,
      "velocity": 93,
      "chip": "ym2612"
    },
    {
      "channel": 3,
      "note": 69,
      "start": 7.9738,
      "duration": 0.0422,
      "velocity": 111,
      "chip": "ym2612"
    },
    {
      "channel": 1,
      "note": 57,
      "start": 7.9757,
      "duration": 0.0401,
      "velocity": 93,
      "chip": "ym2612"
    },
    {
      "channel": 3,
      "note": 69,
      "start": 8.0187,
      "duration": 0.0973,
      "velocity": 111,
      "chip": "ym2612"
    },
    {
      "channel": 1,
      "note": 57,
      "start": 8.0208,
      "duration": 0.095,
      "velocity": 93,
      "chip": "ym2612"
    },
    {
      "channel": 3,
      "note": 69,
      "start": 8.1185,
      "duration": 0.0807,
      "velocity": 111,
      "chip": "ym2612"
    },
    {
      "channel": 1,
      "note": 57,
      "start": 8.1207,
      "duration": 0.0784,
      "velocity": 93,
      "chip": "ym2612"
    },
    {
      "channel": 3,
      "note": 76,
      "start": 8.2019,
      "duration": 0.0468,
      "velocity": 111,
      "chip": "ym2612"
    },
    {
      "channel": 1,
      "note": 64,
      "start": 8.204,
      "duration": 0.0445,
      "velocity": 93,
      "chip": "ym2612"
    },
    {
      "channel": 3,
      "note": 69,
      "start": 8.2514,
      "duration": 0.0349,
      "velocity": 111,
      "chip": "ym2612"
    },
    {
      "channel": 1,
      "note": 57,
      "start": 8.2543,
      "duration": 0.0319,
      "velocity": 93,
      "chip": "ym2612"
    },
    {
      "channel": 3,
      "note": 69,
      "start": 8.2887,
      "duration": 0.0389,
      "velocity": 111,
      "chip": "ym2612"
    },
    {
      "channel": 1,
      "note": 57,
      "start": 8.2908,
      "duration": 0.0367,
      "velocity": 93,
      "chip": "ym2612"
    },
    {
      "channel": 3,
      "note": 69,
      "start": 8.3299,
      "duration": 0.0403,
      "velocity": 111,
      "chip": "ym2612"
    },
    {
      "channel": 1,
      "note": 57,
      "start": 8.332,
      "duration": 0.0382,
      "velocity": 93,
      "chip": "ym2612"
    },
    {
      "channel": 3,
      "note": 72,
      "start": 8.3727,
      "duration": 0.192,
      "velocity": 111,
      "chip": "ym2612"
    },
    {
      "channel": 1,
      "note": 60,
      "start": 8.3749,
      "duration": 0.0775,
      "velocity": 93,
      "chip": "ym2612"
    },
    {
      "channel": 1,
      "note": 60,
      "start": 8.4549,
      "duration": 0.1098,
      "velocity": 93,
      "chip": "ym2612"
    },
    {
      "channel": 3,
      "note": 72,
      "start": 8.5678,
      "duration": 0.0821,
      "velocity": 111,
      "chip": "ym2612"
    },
    {
      "channel": 1,
      "note": 60,
      "start": 8.57,
      "duration": 0.0799,
      "velocity": 93,
      "chip": "ym2612"
    },
    {
      "channel": 3,
      "note": 79,
      "start": 8.6523,
      "duration": 0.0802,
      "velocity": 111,
      "chip": "ym2612"
    },
    {
      "channel": 1,
      "note": 67,
      "start": 8.6545,
      "duration": 0.078,
      "velocity": 93,
      "chip": "ym2612"
    },
    {
      "channel": 3,
      "note": 72,
      "start": 8.7349,
      "duration": 0.1003,
      "velocity": 111,
      "chip": "ym2612"
    },
    {
      "channel": 1,
      "note": 60,
      "start": 8.737,
      "duration": 0.098,
      "velocity": 93,
      "chip": "ym2612"
    },
    {
      "channel": 3,
      "note": 80,
      "start": 8.8378,
      "duration": 0.1807,
      "velocity": 111,
      "chip": "ym2612"
    },
    {
      "channel": 1,
      "note": 68,
      "start": 8.84,
      "duration": 0.1784,
      "velocity": 93,
      "chip": "ym2612"
    },
    {
      "channel": 3,
      "note": 72,
      "start": 9.0211,
      "duration": 0.0826,
      "velocity": 111,
      "chip": "ym2612"
    },
    {
      "channel": 1,
      "note": 60,
      "start": 9.0233,
      "duration": 0.0804,
      "velocity": 93,
      "chip": "ym2612"
    },
    {
      "channel": 3,
      "note": 79,
      "start": 9.106,
      "duration": 0.0732,
      "velocity": 111,
      "chip": "ym2612"
    },
    {
      "channel": 1,
      "note": 67,
      "start": 9.1093,
      "duration": 0.0698,
      "velocity": 93,
      "chip": "ym2612"
    },
    {
      "channel": 3,
      "note": 74,
      "start": 9.1828,
      "duration": 0.2051,
      "velocity": 111,
      "chip": "ym2612"
    },
    {
      "channel": 1,
      "note": 62,
      "start": 9.1848,
      "duration": 0.0759,
      "velocity": 93,
      "chip": "ym2612"
    },
    {
      "channel": 1,
      "note": 62,
      "start": 9.2641,
      "duration": 0.1237,
      "velocity": 93,
      "chip": "ym2612"
    },
    {
      "channel": 3,
      "note": 74,
      "start": 9.391,
      "duration": 0.0816,
      "velocity": 111,
      "chip": "ym2612"
    },
    {
      "channel": 1,
      "note": 62,
      "start": 9.3931,
      "duration": 0.0794,
      "velocity": 93,
      "chip": "ym2612"
    },
    {
      "channel": 3,
      "note": 81,
      "start": 9.475,
      "duration": 0.0815,
      "velocity": 111,
      "chip": "ym2612"
    },
    {
      "channel": 1,
      "note": 69,
      "start": 9.4769,
      "duration": 0.0795,
      "velocity": 93,
      "chip": "ym2612"
    },
    {
      "channel": 3,
      "note": 74,
      "start": 9.5589,
      "duration": 0.0822,
      "velocity": 111,
      "chip": "ym2612"
    },
    {
      "channel": 1,
      "note": 62,
      "start": 9.5609,
      "duration": 0.08,
      "velocity": 93,
      "chip": "ym2612"
    },
    {
      "channel": 3,
      "note": 82,
      "start": 9.6438,
      "duration": 0.1786,
      "velocity": 111,
      "chip": "ym2612"
    },
    {
      "channel": 1,
      "note": 70,
      "start": 9.6459,
      "duration": 0.1763,
      "velocity": 93,
      "chip": "ym2612"
    },
    {
      "channel": 3,
      "note": 74,
      "start": 9.8251,
      "duration": 0.0827,
      "velocity": 111,
      "chip": "ym2612"
    },
    {
      "channel": 1,
      "note": 62,
      "start": 9.8273,
      "duration": 0.0805,
      "velocity": 93,
      "chip": "ym2612"
    },
    {
      "channel": 3,
      "note": 81,
      "start": 9.9102,
      "duration": 0.0819,
      "velocity": 111,
      "chip": "ym2612"
    },
    {
      "channel": 1,
      "note": 69,
      "start": 9.9134,
      "duration": 0.0785,
      "velocity": 93,
      "chip": "ym2612"
    },
    {
      "channel": 3,
      "note": 74,
      "start": 9.9942,
      "duration": 0.0965,
      "velocity": 111,
      "chip": "ym2612"
    },
    {
      "channel": 1,
      "note": 62,
      "start": 9.9962,
      "duration": 0.0944,
      "velocity": 93,
      "chip": "ym2612"
    },
    {
      "channel": 0,
      "note": 64,
      "start": 10.0936,
      "duration": 0.0416,
      "velocity": 111,
      "chip": "ym2612"
    },
    {
      "channel": 3,
      "note": 69,
      "start": 10.096,
      "duration": 0.0393,
      "velocity": 111,
      "chip": "ym2612"
    },
    {
      "channel": 1,
      "note": 57,
      "start": 10.099,
      "duration": 0.0362,
      "velocity": 93,
      "chip": "ym2612"
    },
    {
      "channel": 0,
      "note": 64,
      "start": 10.1387,
      "duration": 0.0418,
      "velocity": 111,
      "chip": "ym2612"
    },
    {
      "channel": 3,
      "note": 69,
      "start": 10.1407,
      "duration": 0.0399,
      "velocity": 111,
      "chip": "ym2612"
    },
    {
      "channel": 1,
      "note": 57,
      "start": 10.1428,
      "duration": 0.0378,
      "velocity": 93,
      "chip": "ym2612"
    },
    {
      "channel": 0,
      "note": 64,
      "start": 10.1839,
      "duration": 0.0348,
      "velocity": 111,
      "chip": "ym2612"
    },
    {
      "channel": 3,
      "note": 69,
      "start": 10.1861,
      "duration": 0.0328,
      "velocity": 111,
      "chip": "ym2612"
    },
    {
      "channel": 1,
      "note": 57,
      "start": 10.188,
      "duration": 0.0309,
      "velocity": 93,
      "chip": "ym2612"
    },
    {
      "channel": 0,
      "note": 64,
      "start": 10.2211,
      "duration": 0.0698,
      "velocity": 111,
      "chip": "ym2612"
    },
    {
      "channel": 3,
      "note": 69,
      "start": 10.2232,
      "duration": 0.068,
      "velocity": 111,
      "chip": "ym2612"
    },
    {
      "channel": 1,
      "note": 57,
      "start": 10.2262,
      "duration": 0.0648,
      "velocity": 93,
      "chip": "ym2612"
    },
    {
      "channel": 0,
      "note": 64,
      "start": 10.2937,
      "duration": 0.0473,
      "velocity": 111,
      "chip": "ym2612"
    },
    {
      "channel": 3,
      "note": 76,
      "start": 10.2964,
      "duration": 0.0447,
      "velocity": 111,
      "chip": "ym2612"
    },
    {
      "channel": 1,
      "note": 64,
      "start": 10.2985,
      "duration": 0.0425,
      "velocity": 93,
      "chip": "ym2612"
    },
    {
      "channel": 0,
      "note": 64,
      "start": 10.3432,
      "duration": 0.0366,
      "velocity": 111,
      "chip": "ym2612"
    },
    {
      "channel": 3,
      "note": 69,
      "start": 10.3451,
      "duration": 0.0348,
      "velocity": 111,
      "chip": "ym2612"
    },
    {
      "channel": 1,
      "note": 57,
      "start": 10.3472,
      "duration": 0.0327,
      "velocity": 93,
      "chip": "ym2612"
    },
    {
      "channel": 0,
      "note": 64,
      "start": 10.3822,
      "duration": 0.0433,
      "velocity": 111,
      "chip": "ym2612"
    },
    {
      "channel": 3,
      "note": 69,
      "start": 10.3844,
      "duration": 0.0413,
      "velocity": 111,
      "chip": "ym2612"
    },
    {
      "channel": 1,
      "note": 57,
      "start": 10.3863,
      "duration": 0.0393,
      "velocity": 93,
      "chip": "ym2612"
    },
    {
      "channel": 0,
      "note": 64,
      "start": 10.4278,
      "duration": 0.049,
      "velocity": 111,
      "chip": "ym2612"
    },
    {
      "channel": 3,
      "note": 69,
      "start": 10.4297,
      "duration": 0.0473,
      "velocity": 111,
      "chip": "ym2612"
    },
    {
      "channel": 1,
      "note": 57,
      "start": 10.4316,
      "duration": 0.0453,
      "velocity": 93,
      "chip": "ym2612"
    },
    {
      "channel": 0,
      "note": 64,
      "start": 10.4795,
      "duration": 0.0807,
      "velocity": 111,
      "chip": "ym2612"
    },
    {
      "channel": 3,
      "note": 77,
      "start": 10.4817,
      "duration": 0.0788,
      "velocity": 111,
      "chip": "ym2612"
    },
    {
      "channel": 1,
      "note": 65,
      "start": 10.4839,
      "duration": 0.0765,
      "velocity": 93,
      "chip": "ym2612"
    },
    {
      "channel": 0,
      "note": 64,
      "start": 10.5629,
      "duration": 0.0972,
      "velocity": 111,
      "chip": "ym2612"
    },
    {
      "channel": 3,
      "note": 69,
      "start": 10.5651,
      "duration": 0.0953,
      "velocity": 111,
      "chip": "ym2612"
    },
    {
      "channel": 1,
      "note": 57,
      "start": 10.5673,
      "duration": 0.0929,
      "velocity": 93,
      "chip": "ym2612"
    },
    {
      "channel": 0,
      "note": 64,
      "start": 10.6629,
      "duration": 0.0412,
      "velocity": 111,
      "chip": "ym2612"
    },
    {
      "channel": 3,
      "note": 69,
      "start": 10.6651,
      "duration": 0.0391,
      "velocity": 111,
      "chip": "ym2612"
    },
    {
      "channel": 1,
      "note": 57,
      "start": 10.6673,
      "duration": 0.0368,
      "velocity": 93,
      "chip": "ym2612"
    },
    {
      "channel": 0,
      "note": 64,
      "start": 10.7065,
      "duration": 0.0431,
      "velocity": 111,
      "chip": "ym2612"
    },
    {
      "channel": 3,
      "note": 69,
      "start": 10.7087,
      "duration": 0.0411,
      "velocity": 111,
      "chip": "ym2612"
    },
    {
      "channel": 1,
      "note": 57,
      "start": 10.7105,
      "duration": 0.0392,
      "velocity": 93,
      "chip": "ym2612"
    },
    {
      "channel": 0,
      "note": 64,
      "start": 10.752,
      "duration": 0.0366,
      "velocity": 111,
      "chip": "ym2612"
    },
    {
      "channel": 3,
      "note": 69,
      "start": 10.7542,
      "duration": 0.0346,
      "velocity": 111,
      "chip": "ym2612"
    },
    {
      "channel": 1,
      "note": 57,
      "start": 10.756,
      "duration": 0.0327,
      "velocity": 93,
      "chip": "ym2612"
    },
    {
      "channel": 0,
      "note": 64,
      "start": 10.791,
      "duration": 0.038,
      "velocity": 111,
      "chip": "ym2612"
    },
    {
      "channel": 3,
      "note": 69,
      "start": 10.7932,
      "duration": 0.0361,
      "velocity": 111,
      "chip": "ym2612"
    },
    {
      "channel": 1,
      "note": 57,
      "start": 10.7962,
      "duration": 0.0329,
      "velocity": 93,
      "chip": "ym2612"
    },
    {
      "channel": 0,
      "note": 64,
      "start": 10.8314,
      "duration": 0.043,
      "velocity": 111,
      "chip": "ym2612"
    },
    {
      "channel": 3,
      "note": 74,
      "start": 10.8334,
      "duration": 0.0412,
      "velocity": 111,
      "chip": "ym2612"
    },
    {
      "channel": 1,
      "note": 62,
      "start": 10.8364,
      "duration": 0.0381,
      "velocity": 93,
      "chip": "ym2612"
    },
    {
      "channel": 0,
      "note": 64,
      "start": 10.8766,
      "duration": 0.0363,
      "velocity": 111,
      "chip": "ym2612"
    },
    {
      "channel": 3,
      "note": 69,
      "start": 10.8787,
      "duration": 0.0345,
      "velocity": 111,
      "chip": "ym2612"
    },
    {
      "channel": 1,
      "note": 57,
      "start": 10.8816,
      "duration": 0.0315,
      "velocity": 93,
      "chip": "ym2612"
    },
    {
      "channel": 0,
      "note": 64,
      "start": 10.9152,
      "duration": 0.0431,
      "velocity": 111,
      "chip": "ym2612"
    },
    {
      "channel": 3,
      "note": 69,
      "start": 10.9173,
      "duration": 0.0412,
      "velocity": 111,
      "chip": "ym2612"
    },
    {
      "channel": 1,
      "note": 57,
      "start": 10.9193,
      "duration": 0.039,
      "velocity": 93,
      "chip": "ym2612"
    },
    {
      "channel": 0,
      "note": 64,
      "start": 10.9605,
      "duration": 0.0737,
      "velocity": 111,
      "chip": "ym2612"
    },
    {
      "channel": 3,
      "note": 69,
      "start": 10.9625,
      "duration": 0.0719,
      "velocity": 111,
      "chip": "ym2612"
    },
    {
      "channel": 1,
      "note": 57,
      "start": 10.9645,
      "duration": 0.0698,
      "velocity": 93,
      "chip": "ym2612"
    },
    {
      "channel": 0,
      "note": 64,
      "start": 11.0369,
      "duration": 0.043,
      "velocity": 111,
      "chip": "ym2612"
    },
    {
      "channel": 3,
      "note": 76,
      "start": 11.0392,
      "duration": 0.0409,
      "velocity": 111,
      "chip": "ym2612"
    },
    {
      "channel": 1,
      "note": 64,
      "start": 11.0413,
      "duration": 0.0387,
      "velocity": 93,
      "chip": "ym2612"
    },
    {
      "channel": 0,
      "note": 64,
      "start": 11.0822,
      "duration": 0.0417,
      "velocity": 111,
      "chip": "ym2612"
    },
    {
      "channel": 3,
      "note": 69,
      "start": 11.0843,
      "duration": 0.0397,
      "velocity": 111,
      "chip": "ym2612"
    },
    {
      "channel": 1,
      "note": 57,
      "start": 11.0876,
      "duration": 0.0364,
      "velocity": 93,
      "chip": "ym2612"
    },
    {
      "channel": 0,
      "note": 64,
      "start": 11.1268,
      "duration": 0.0365,
      "velocity": 111,
      "chip": "ym2612"
    },
    {
      "channel": 3,
      "note": 69,
      "start": 11.1288,
      "duration": 0.0346,
      "velocity": 111,
      "chip": "ym2612"
    },
    {
      "channel": 1,
      "note": 57,
      "start": 11.1307,
      "duration": 0.0326,
      "velocity": 93,
      "chip": "ym2612"
    },
    {
      "channel": 0,
      "note": 64,
      "start": 11.1655,
      "duration": 0.0434,
      "velocity": 111,
      "chip": "ym2612"
    },
    {
      "channel": 3,
      "note": 69,
      "start": 11.1676,
      "duration": 0.0415,
      "velocity": 111,
      "chip": "ym2612"
    },
    {
      "channel": 1,
      "note": 57,
      "start": 11.1697,
      "duration": 0.0393,
      "velocity": 93,
      "chip": "ym2612"
    },
    {
      "channel": 0,
      "note": 64,
      "start": 11.2112,
      "duration": 0.0359,
      "velocity": 111,
      "chip": "ym2612"
    },
    {
      "channel": 3,
      "note": 77,
      "start": 11.2133,
      "duration": 0.034,
      "velocity": 111,
      "chip": "ym2612"
    },
    {
      "channel": 1,
      "note": 65,
      "start": 11.2151,
      "duration": 0.032,
      "velocity": 93,
      "chip": "ym2612"
    },
    {
      "channel": 0,
      "note": 64,
      "start": 11.2503,
      "duration": 0.0536,
      "velocity": 111,
      "chip": "ym2612"
    },
    {
      "channel": 3,
      "note": 69,
      "start": 11.2524,
      "duration": 0.0517,
      "velocity": 111,
      "chip": "ym2612"
    },
    {
      "channel": 1,
      "note": 57,
      "start": 11.2546,
      "duration": 0.0495,
      "velocity": 93,
      "chip": "ym2612"
    },
    {
      "channel": 0,
      "note": 64,
      "start": 11.3067,
      "duration": 0.0807,
      "velocity": 111,
      "chip": "ym2612"
    },
    {
      "channel": 3,
      "note": 69,
      "start": 11.3089,
      "duration": 0.0788,
      "velocity": 111,
      "chip": "ym2612"
    },
    {
      "channel": 1,
      "note": 57,
      "start": 11.311,
      "duration": 0.0765,
      "velocity": 93,
      "chip": "ym2612"
    },
    {
      "channel": 0,
      "note": 64,
      "start": 11.39,
      "duration": 0.0807,
      "velocity": 111,
      "chip": "ym2612"
    },
    {
      "channel": 3,
      "note": 69,
      "start": 11.3923,
      "duration": 0.0787,
      "velocity": 111,
      "chip": "ym2612"
    },
    {
      "channel": 1,
      "note": 57,
      "start": 11.3944,
      "duration": 0.0764,
      "velocity": 93,
      "chip": "ym2612"
    },
    {
      "channel": 0,
      "note": 64,
      "start": 11.4734,
      "duration": 0.0479,
      "velocity": 111,
      "chip": "ym2612"
    },
    {
      "channel": 3,
      "note": 76,
      "start": 11.4757,
      "duration": 0.0458,
      "velocity": 111,
      "chip": "ym2612"
    },
    {
      "channel": 1,
      "note": 64,
      "start": 11.4778,
      "duration": 0.0436,
      "velocity": 93,
      "chip": "ym2612"
    },
    {
      "channel": 0,
      "note": 64,
      "start": 11.5235,
      "duration": 0.0362,
      "velocity": 111,
      "chip": "ym2612"
    },
    {
      "channel": 3,
      "note": 69,
      "start": 11.5256,
      "duration": 0.0343,
      "velocity": 111,
      "chip": "ym2612"
    },
    {
      "channel": 1,
      "note": 57,
      "start": 11.5286,
      "duration": 0.0312,
      "velocity": 93,
      "chip": "ym2612"
    },
    {
      "channel": 0,
      "note": 64,
      "start": 11.5622,
      "duration": 0.0436,
      "velocity": 111,
      "chip": "ym2612"
    },
    {
      "channel": 3,
      "note": 69,
      "start": 11.5643,
      "duration": 0.0417,
      "velocity": 111,
      "chip": "ym2612"
    },
    {
      "channel": 1,
      "note": 57,
      "start": 11.5663,
      "duration": 0.0396,
      "velocity": 93,
      "chip": "ym2612"
    },
    {
      "channel": 0,
      "note": 64,
      "start": 11.6089,
      "duration": 0.0352,
      "velocity": 111,
      "chip": "ym2612"
    },
    {
      "channel": 3,
      "note": 69,
      "start": 11.611,
      "duration": 0.0332,
      "velocity": 111,
      "chip": "ym2612"
    },
    {
      "channel": 1,
      "note": 57,
      "start": 11.613,
      "duration": 0.0311,
      "velocity": 93,
      "chip": "ym2612"
    },
    {
      "channel": 0,
      "note": 67,
      "start": 11.6465,
      "duration": 0.2046,
      "velocity": 111,
      "chip": "ym2612"
    },
    {
      "channel": 3,
      "note": 72,
      "start": 11.6497,
      "duration": 0.2016,
      "velocity": 111,
      "chip": "ym2612"
    },
    {
      "channel": 1,
      "note": 60,
      "start": 11.6523,
      "duration": 0.0759,
      "velocity": 93,
      "chip": "ym2612"
    },
    {
      "channel": 1,
      "note": 60,
      "start": 11.7304,
      "duration": 0.1207,
      "velocity": 93,
      "chip": "ym2612"
    },
    {
      "channel": 0,
      "note": 67,
      "start": 11.8541,
      "duration": 0.0782,
      "velocity": 111,
      "chip": "ym2612"
    },
    {
      "channel": 3,
      "note": 72,
      "start": 11.8566,
      "duration": 0.0759,
      "velocity": 111,
      "chip": "ym2612"
    },
    {
      "channel": 1,
      "note": 60,
      "start": 11.8587,
      "duration": 0.0737,
      "velocity": 93,
      "chip": "ym2612"
    },
    {
      "channel": 0,
      "note": 67,
      "start": 11.9347,
      "duration": 0.0784,
      "velocity": 111,
      "chip": "ym2612"
    },
    {
      "channel": 3,
      "note": 79,
      "start": 11.9371,
      "duration": 0.0761,
      "velocity": 111,
      "chip": "ym2612"
    },
    {
      "channel": 1,
      "note": 67,
      "start": 11.9404,
      "duration": 0.0727,
      "velocity": 93,
      "chip": "ym2612"
    },
    {
      "channel": 0,
      "note": 67,
      "start": 12.0153,
      "duration": 0.0924,
      "velocity": 111,
      "chip": "ym2612"
    },
    {
      "channel": 3,
      "note": 72,
      "start": 12.0173,
      "duration": 0.0907,
      "velocity": 111,
      "chip": "ym2612"
    },
    {
      "channel": 1,
      "note": 60,
      "start": 12.0193,
      "duration": 0.0885,
      "velocity": 93,
      "chip": "ym2612"
    },
    {
      "channel": 0,
      "note": 67,
      "start": 12.1105,
      "duration": 0.1806,
      "velocity": 111,
      "chip": "ym2612"
    },
    {
      "channel": 3,
      "note": 80,
      "start": 12.1127,
      "duration": 0.1787,
      "velocity": 111,
      "chip": "ym2612"
    },
    {
      "channel": 1,
      "note": 68,
      "start": 12.1149,
      "duration": 0.1763,
      "velocity": 93,
      "chip": "ym2612"
    },
    {
      "channel": 0,
      "note": 67,
      "start": 12.2939,
      "duration": 0.0838,
      "velocity": 111,
      "chip": "ym2612"
    },
    {
      "channel": 3,
      "note": 72,
      "start": 12.2961,
      "duration": 0.0817,
      "velocity": 111,
      "chip": "ym2612"
    },
    {
      "channel": 1,
      "note": 60,
      "start": 12.2983,
      "duration": 0.0794,
      "velocity": 93,
      "chip": "ym2612"
    },
    {
      "channel": 0,
      "note": 67,
      "start": 12.3799,
      "duration": 0.0817,
      "velocity": 111,
      "chip": "ym2612"
    },
    {
      "channel": 3,
      "note": 79,
      "start": 12.3818,
      "duration": 0.08,
      "velocity": 111,
      "chip": "ym2612"
    },
    {
      "channel": 1,
      "note": 67,
      "start": 12.3837,
      "duration": 0.0779,
      "velocity": 93,
      "chip": "ym2612"
    },
    {
      "channel": 0,
      "note": 69,
      "start": 12.465,
      "duration": 0.1911,
      "velocity": 111,
      "chip": "ym2612"
    },
    {
      "channel": 3,
      "note": 74,
      "start": 12.4673,
      "duration": 0.1891,
      "velocity": 111,
      "chip": "ym2612"
    },
    {
      "channel": 1,
      "note": 62,
      "start": 12.4692,
      "duration": 0.0702,
      "velocity": 93,
      "chip": "ym2612"
    },
    {
      "channel": 1,
      "note": 62,
      "start": 12.5418,
      "duration": 0.1145,
      "velocity": 93,
      "chip": "ym2612"
    },
    {
      "channel": 0,
      "note": 69,
      "start": 12.6592,
      "duration": 0.0832,
      "velocity": 111,
      "chip": "ym2612"
    },
    {
      "channel": 3,
      "note": 74,
      "start": 12.6617,
      "duration": 0.0809,
      "velocity": 111,
      "chip": "ym2612"
    },
    {
      "channel": 1,
      "note": 62,
      "start": 12.6639,
      "duration": 0.0786,
      "velocity": 93,
      "chip": "ym2612"
    },
    {
      "channel": 0,
      "note": 69,
      "start": 12.7449,
      "duration": 0.0824,
      "velocity": 111,
      "chip": "ym2612"
    },
    {
      "channel": 3,
      "note": 81,
      "start": 12.7468,
      "duration": 0.0806,
      "velocity": 111,
      "chip": "ym2612"
    },
    {
      "channel": 1,
      "note": 69,
      "start": 12.7488,
      "duration": 0.0785,
      "velocity": 93,
      "chip": "ym2612"
    },
    {
      "channel": 0,
      "note": 69,
      "start": 12.8306,
      "duration": 0.0955,
      "velocity": 111,
      "chip": "ym2612"
    },
    {
      "channel": 3,
      "note": 74,
      "start": 12.8328,
      "duration": 0.0935,
      "velocity": 111,
      "chip": "ym2612"
    },
    {
      "channel": 1,
      "note": 62,
      "start": 12.8347,
      "duration": 0.0915,
      "velocity": 93,
      "chip": "ym2612"
    },
    {
      "channel": 0,
      "note": 69,
      "start": 12.9289,
      "duration": 0.166,
      "velocity": 111,
      "chip": "ym2612"
    },
    {
      "channel": 3,
      "note": 82,
      "start": 12.931,
      "duration": 0.1641,
      "velocity": 111,
      "chip": "ym2612"
    },
    {
      "channel": 1,
      "note": 70,
      "start": 12.9332,
      "duration": 0.1618,
      "velocity": 93,
      "chip": "ym2612"
    },
    {
      "channel": 0,
      "note": 69,
      "start": 13.0976,
      "duration": 0.0826,
      "velocity": 111,
      "chip": "ym2612"
    },
    {
      "channel": 3,
      "note": 74,
      "start": 13.0998,
      "duration": 0.0805,
      "velocity": 111,
      "chip": "ym2612"
    },
    {
      "channel": 1,
      "note": 62,
      "start": 13.102,
      "duration": 0.0782,
      "velocity": 93,
      "chip": "ym2612"
    },
    {
      "channel": 0,
      "note": 69,
      "start": 13.1824,
      "duration": 0.082,
      "velocity": 111,
      "chip": "ym2612"
    },
    {
      "channel": 3,
      "note": 81,
      "start": 13.1843,
      "duration": 0.0802,
      "velocity": 111,
      "chip": "ym2612"
    },
    {
      "channel": 1,
      "note": 69,
      "start": 13.1862,
      "duration": 0.0782,
      "velocity": 93,
      "chip": "ym2612"
    },
    {
      "channel": 0,
      "note": 69,
      "start": 13.2672,
      "duration": 0.0959,
      "velocity": 111,
      "chip": "ym2612"
    },
    {
      "channel": 3,
      "note": 74,
      "start": 13.2692,
      "duration": 0.0941,
      "velocity": 111,
      "chip": "ym2612"
    },
    {
      "channel": 1,
      "note": 62,
      "start": 13.2711,
      "duration": 0.0921,
      "velocity": 93,
      "chip": "ym2612"
    },
    {
      "channel": 0,
      "note": 64,
      "start": 13.3661,
      "duration": 0.0402,
      "velocity": 111,
      "chip": "ym2612"
    },
    {
      "channel": 3,
      "note": 93,
      "start": 13.3686,
      "duration": 0.0379,
      "velocity": 111,
      "chip": "ym2612"
    },
    {
      "channel": 1,
      "note": 57,
      "start": 13.3711,
      "duration": 0.0354,
      "velocity": 93,
      "chip": "ym2612"
    },
    {
      "channel": 0,
      "note": 64,
      "start": 13.4088,
      "duration": 0.043,
      "velocity": 111,
      "chip": "ym2612"
    },
    {
      "channel": 3,
      "note": 91,
      "start": 13.4109,
      "duration": 0.041,
      "velocity": 111,
      "chip": "ym2612"
    },
    {
      "channel": 1,
      "note": 57,
      "start": 13.4128,
      "duration": 0.039,
      "velocity": 93,
      "chip": "ym2612"
    },
    {
      "channel": 0,
      "note": 64,
      "start": 13.4542,
      "duration": 0.0347,
      "velocity": 111,
      "chip": "ym2612"
    },
    {
      "channel": 3,
      "note": 89,
      "start": 13.4563,
      "duration": 0.0327,
      "velocity": 111,
      "chip": "ym2612"
    },
    {
      "channel": 1,
      "note": 57,
      "start": 13.4582,
      "duration": 0.0307,
      "velocity": 93,
      "chip": "ym2612"
    },
    {
      "channel": 0,
      "note": 64,
      "start": 13.4911,
      "duration": 0.0726,
      "velocity": 111,
      "chip": "ym2612"
    },
    {
      "channel": 3,
      "note": 88,
      "start": 13.4941,
      "duration": 0.0699,
      "velocity": 111,
      "chip": "ym2612"
    },
    {
      "channel": 1,
      "note": 57,
      "start": 13.4959,
      "duration": 0.0679,
      "velocity": 93,
      "chip": "ym2612"
    },
    {
      "channel": 0,
      "note": 64,
      "start": 13.5665,
      "duration": 0.0459,
      "velocity": 111,
      "chip": "ym2612"
    },
    {
      "channel": 3,
      "note": 91,
      "start": 13.5687,
      "duration": 0.0439,
      "velocity": 111,
      "chip": "ym2612"
    },
    {
      "channel": 1,
      "note": 64,
      "start": 13.5709,
      "duration": 0.0416,
      "velocity": 93,
      "chip": "ym2612"
    },
    {
      "channel": 0,
      "note": 64,
      "start": 13.6146,
      "duration": 0.0364,
      "velocity": 111,
      "chip": "ym2612"
    },
    {
      "channel": 3,
      "note": 89,
      "start": 13.6166,
      "duration": 0.0346,
      "velocity": 111,
      "chip": "ym2612"
    },
    {
      "channel": 1,
      "note": 57,
      "start": 13.6187,
      "duration": 0.0324,
      "velocity": 93,
      "chip": "ym2612"
    },
    {
      "channel": 0,
      "note": 64,
      "start": 13.6544,
      "duration": 0.042,
      "velocity": 111,
      "chip": "ym2612"
    },
    {
      "channel": 3,
      "note": 88,
      "start": 13.6566,
      "duration": 0.0401,
      "velocity": 111,
      "chip": "ym2612"
    },
    {
      "channel": 1,
      "note": 57,
      "start": 13.6585,
      "duration": 0.0381,
      "velocity": 93,
      "chip": "ym2612"
    },
    {
      "channel": 0,
      "note": 64,
      "start": 13.6997,
      "duration": 0.0497,
      "velocity": 111,
      "chip": "ym2612"
    },
    {
      "channel": 3,
      "note": 86,
      "start": 13.7018,
      "duration": 0.0478,
      "velocity": 111,
      "chip": "ym2612"
    },
    {
      "channel": 1,
      "note": 57,
      "start": 13.7038,
      "duration": 0.0457,
      "velocity": 93,
      "chip": "ym2612"
    },
    {
      "channel": 0,
      "note": 64,
      "start": 13.7521,
      "duration": 0.0973,
      "velocity": 111,
      "chip": "ym2612"
    },
    {
      "channel": 3,
      "note": 89,
      "start": 13.7543,
      "duration": 0.0954,
      "velocity": 111,
      "chip": "ym2612"
    },
    {
      "channel": 1,
      "note": 65,
      "start": 13.7565,
      "duration": 0.0931,
      "velocity": 93,
      "chip": "ym2612"
    },
    {
      "channel": 0,
      "note": 64,
      "start": 13.8522,
      "duration": 0.0806,
      "velocity": 111,
      "chip": "ym2612"
    },
    {
      "channel": 3,
      "note": 88,
      "start": 13.8544,
      "duration": 0.0786,
      "velocity": 111,
      "chip": "ym2612"
    },
    {
      "channel": 1,
      "note": 57,
      "start": 13.8566,
      "duration": 0.0763,
      "velocity": 93,
      "chip": "ym2612"
    },
    {
      "channel": 0,
      "note": 64,
      "start": 13.9355,
      "duration": 0.0407,
      "velocity": 111,
      "chip": "ym2612"
    },
    {
      "channel": 3,
      "note": 86,
      "start": 13.9377,
      "duration": 0.0386,
      "velocity": 111,
      "chip": "ym2612"
    },
    {
      "channel": 1,
      "note": 57,
      "start": 13.9399,
      "duration": 0.0363,
      "velocity": 93,
      "chip": "ym2612"
    },
    {
      "channel": 0,
      "note": 64,
      "start": 13.9784,
      "duration": 0.0427,
      "velocity": 111,
      "chip": "ym2612"
    },
    {
      "channel": 3,
      "note": 84,
      "start": 13.9804,
      "duration": 0.0409,
      "velocity": 111,
      "chip": "ym2612"
    },
    {
      "channel": 1,
      "note": 57,
      "start": 13.9824,
      "duration": 0.0388,
      "velocity": 93,
      "chip": "ym2612"
    },
    {
      "channel": 0,
      "note": 64,
      "start": 14.0235,
      "duration": 0.0365,
      "velocity": 111,
      "chip": "ym2612"
    },
    {
      "channel": 3,
      "note": 88,
      "start": 14.0257,
      "duration": 0.0344,
      "velocity": 111,
      "chip": "ym2612"
    },
    {
      "channel": 1,
      "note": 57,
      "start": 14.0281,
      "duration": 0.032,
      "velocity": 93,
      "chip": "ym2612"
    },
    {
      "channel": 0,
      "note": 64,
      "start": 14.0622,
      "duration": 0.043,
      "velocity": 111,
      "chip": "ym2612"
    },
    {
      "channel": 3,
      "note": 86,
      "start": 14.0647,
      "duration": 0.0406,
      "velocity": 111,
      "chip": "ym2612"
    },
    {
      "channel": 1,
      "note": 57,
      "start": 14.0668,
      "duration": 0.0384,
      "velocity": 93,
      "chip": "ym2612"
    },
    {
      "channel": 0,
      "note": 64,
      "start": 14.1074,
      "duration": 0.0388,
      "velocity": 111,
      "chip": "ym2612"
    },
    {
      "channel": 3,
      "note": 84,
      "start": 14.1095,
      "duration": 0.0369,
      "velocity": 111,
      "chip": "ym2612"
    },
    {
      "channel": 1,
      "note": 62,
      "start": 14.1114,
      "duration": 0.0349,
      "velocity": 93,
      "chip": "ym2612"
    },
    {
      "channel": 0,
      "note": 64,
      "start": 14.1487,
      "duration": 0.0363,
      "velocity": 111,
      "chip": "ym2612"
    },
    {
      "channel": 3,
      "note": 83,
      "start": 14.1508,
      "duration": 0.0344,
      "velocity": 111,
      "chip": "ym2612"
    },
    {
      "channel": 1,
      "note": 57,
      "start": 14.1539,
      "duration": 0.0313,
      "velocity": 93,
      "chip": "ym2612"
    },
    {
      "channel": 0,
      "note": 64,
      "start": 14.1873,
      "duration": 0.0433,
      "velocity": 111,
      "chip": "ym2612"
    },
    {
      "channel": 3,
      "note": 91,
      "start": 14.1894,
      "duration": 0.0413,
      "velocity": 111,
      "chip": "ym2612"
    },
    {
      "channel": 1,
      "note": 57,
      "start": 14.1915,
      "duration": 0.0392,
      "velocity": 93,
      "chip": "ym2612"
    },
    {
      "channel": 0,
      "note": 64,
      "start": 14.2329,
      "duration": 0.0663,
      "velocity": 111,
      "chip": "ym2612"
    },
    {
      "channel": 3,
      "note": 89,
      "start": 14.2349,
      "duration": 0.0645,
      "velocity": 111,
      "chip": "ym2612"
    },
    {
      "channel": 1,
      "note": 57,
      "start": 14.2369,
      "duration": 0.0624,
      "velocity": 93,
      "chip": "ym2612"
    },
    {
      "channel": 0,
      "note": 64,
      "start": 14.302,
      "duration": 0.0479,
      "velocity": 111,
      "chip": "ym2612"
    },
    {
      "channel": 3,
      "note": 88,
      "start": 14.3042,
      "duration": 0.0459,
      "velocity": 111,
      "chip": "ym2612"
    },
    {
      "channel": 1,
      "note": 64,
      "start": 14.3063,
      "duration": 0.0436,
      "velocity": 93,
      "chip": "ym2612"
    },
    {
      "channel": 0,
      "note": 64,
      "start": 14.3522,
      "duration": 0.0368,
      "velocity": 111,
      "chip": "ym2612"
    },
    {
      "channel": 3,
      "note": 86,
      "start": 14.3543,
      "duration": 0.0349,
      "velocity": 111,
      "chip": "ym2612"
    },
    {
      "channel": 1,
      "note": 57,
      "start": 14.3573,
      "duration": 0.0318,
      "velocity": 93,
      "chip": "ym2612"
    },
    {
      "channel": 0,
      "note": 64,
      "start": 14.3913,
      "duration": 0.0391,
      "velocity": 111,
      "chip": "ym2612"
    },
    {
      "channel": 3,
      "note": 89,
      "start": 14.3932,
      "duration": 0.0373,
      "velocity": 111,
      "chip": "ym2612"
    },
    {
      "channel": 1,
      "note": 57,
      "start": 14.3951,
      "duration": 0.0354,
      "velocity": 93,
      "chip": "ym2612"
    },
    {
      "channel": 0,
      "note": 64,
      "start": 14.4339,
      "duration": 0.0405,
      "velocity": 111,
      "chip": "ym2612"
    },
    {
      "channel": 3,
      "note": 88,
      "start": 14.4358,
      "duration": 0.0388,
      "velocity": 111,
      "chip": "ym2612"
    },
    {
      "channel": 1,
      "note": 57,
      "start": 14.4378,
      "duration": 0.0367,
      "velocity": 93,
      "chip": "ym2612"
    },
    {
      "channel": 0,
      "note": 64,
      "start": 14.4767,
      "duration": 0.0365,
      "velocity": 111,
      "chip": "ym2612"
    },
    {
      "channel": 3,
      "note": 86,
      "start": 14.4788,
      "duration": 0.0346,
      "velocity": 111,
      "chip": "ym2612"
    },
    {
      "channel": 1,
      "note": 65,
      "start": 14.4818,
      "duration": 0.0315,
      "velocity": 93,
      "chip": "ym2612"
    },
    {
      "channel": 0,
      "note": 64,
      "start": 14.5155,
      "duration": 0.0558,
      "velocity": 111,
      "chip": "ym2612"
    },
    {
      "channel": 3,
      "note": 84,
      "start": 14.5176,
      "duration": 0.0539,
      "velocity": 111,
      "chip": "ym2612"
    },
    {
      "channel": 1,
      "note": 57,
      "start": 14.5197,
      "duration": 0.0517,
      "velocity": 93,
      "chip": "ym2612"
    },
    {
      "channel": 0,
      "note": 64,
      "start": 14.574,
      "duration": 0.0806,
      "velocity": 111,
      "chip": "ym2612"
    },
    {
      "channel": 3,
      "note": 88,
      "start": 14.5762,
      "duration": 0.0786,
      "velocity": 111,
      "chip": "ym2612"
    },
    {
      "channel": 1,
      "note": 57,
      "start": 14.5784,
      "duration": 0.0763,
      "velocity": 93,
      "chip": "ym2612"
    },
    {
      "channel": 0,
      "note": 64,
      "start": 14.6573,
      "duration": 0.0825,
      "velocity": 111,
      "chip": "ym2612"
    },
    {
      "channel": 3,
      "note": 86,
      "start": 14.6595,
      "duration": 0.0806,
      "velocity": 111,
      "chip": "ym2612"
    },
    {
      "channel": 1,
      "note": 57,
      "start": 14.6617,
      "duration": 0.0782,
      "velocity": 93,
      "chip": "ym2612"
    },
    {
      "channel": 0,
      "note": 64,
      "start": 14.7426,
      "duration": 0.0468,
      "velocity": 111,
      "chip": "ym2612"
    },
    {
      "channel": 3,
      "note": 84,
      "start": 14.7449,
      "duration": 0.0447,
      "velocity": 111,
      "chip": "ym2612"
    },
    {
      "channel": 1,
      "note": 64,
      "start": 14.747,
      "duration": 0.0424,
      "velocity": 93,
      "chip": "ym2612"
    },
    {
      "channel": 0,
      "note": 64,
      "start": 14.7917,
      "duration": 0.0357,
      "velocity": 111,
      "chip": "ym2612"
    },
    {
      "channel": 3,
      "note": 83,
      "start": 14.7936,
      "duration": 0.034,
      "velocity": 111,
      "chip": "ym2612"
    },
    {
      "channel": 1,
      "note": 57,
      "start": 14.7957,
      "duration": 0.0318,
      "velocity": 93,
      "chip": "ym2612"
    },
    {
      "channel": 0,
      "note": 64,
      "start": 14.8311,
      "duration": 0.0438,
      "velocity": 111,
      "chip": "ym2612"
    },
    {
      "channel": 3,
      "note": 86,
      "start": 14.8331,
      "duration": 0.042,
      "velocity": 111,
      "chip": "ym2612"
    },
    {
      "channel": 1,
      "note": 57,
      "start": 14.835,
      "duration": 0.04,
      "velocity": 93,
      "chip": "ym2612"
    },
    {
      "channel": 0,
      "note": 64,
      "start": 14.8788,
      "duration": 0.034,
      "velocity": 111,
      "chip": "ym2612"
    },
    {
      "channel": 3,
      "note": 84,
      "start": 14.8808,
      "duration": 0.0321,
      "velocity": 111,
      "chip": "ym2612"
    },
    {
      "channel": 1,
      "note": 57,
      "start": 14.8829,
      "duration": 0.0299,
      "velocity": 93,
      "chip": "ym2612"
    },
    {
      "channel": 0,
      "note": 67,
      "start": 14.9152,
      "duration": 0.2064,
      "velocity": 111,
      "chip": "ym2612"
    },
    {
      "channel": 3,
      "note": 83,
      "start": 14.9173,
      "duration": 0.0429,
      "velocity": 111,
      "chip": "ym2612"
    },
    {
      "channel": 1,
      "note": 60,
      "start": 14.9206,
      "duration": 0.0763,
      "velocity": 93,
      "chip": "ym2612"
    },
    {
      "channel": 3,
      "note": 84,
      "start": 14.9635,
      "duration": 0.0335,
      "velocity": 111,
      "chip": "ym2612"
    },
    {
      "channel": 3,
      "note": 84,
      "start": 14.9993,
      "duration": 0.0347,
      "velocity": 111,
      "chip": "ym2612"
    },
    {
      "channel": 1,
      "note": 60,
      "start": 15.0022,
      "duration": 0.1195,
      "velocity": 93,
      "chip": "ym2612"
    },
    {
      "channel": 3,
      "note": 86,
      "start": 15.0363,
      "duration": 0.0856,
      "velocity": 111,
      "chip": "ym2612"
    },
    {
      "channel": 0,
      "note": 67,
      "start": 15.1248,
      "duration": 0.0832,
      "velocity": 111,
      "chip": "ym2612"
    },
    {
      "channel": 3,
      "note": 87,
      "start": 15.1269,
      "duration": 0.0383,
      "velocity": 111,
      "chip": "ym2612"
    },
    {
      "channel": 1,
      "note": 60,
      "start": 15.1291,
      "duration": 0.079,
      "velocity": 93,
      "chip": "ym2612"
    },
    {
      "channel": 3,
      "note": 89,
      "start": 15.1677,
      "duration": 0.0404,
      "velocity": 111,
      "chip": "ym2612"
    },
    {
      "channel": 0,
      "note": 67,
      "start": 15.2103,
      "duration": 0.0745,
      "velocity": 111,
      "chip": "ym2612"
    },
    {
      "channel": 3,
      "note": 91,
      "start": 15.2122,
      "duration": 0.0359,
      "velocity": 111,
      "chip": "ym2612"
    },
    {
      "channel": 1,
      "note": 67,
      "start": 15.2141,
      "duration": 0.0707,
      "velocity": 93,
      "chip": "ym2612"
    },
    {
      "channel": 3,
      "note": 89,
      "start": 15.2505,
      "duration": 0.0344,
      "velocity": 111,
      "chip": "ym2612"
    },
    {
      "channel": 0,
      "note": 67,
      "start": 15.287,
      "duration": 0.0852,
      "velocity": 111,
      "chip": "ym2612"
    },
    {
      "channel": 3,
      "note": 87,
      "start": 15.289,
      "duration": 0.041,
      "velocity": 111,
      "chip": "ym2612"
    },
    {
      "channel": 1,
      "note": 60,
      "start": 15.2921,
      "duration": 0.0803,
      "velocity": 93,
      "chip": "ym2612"
    },
    {
      "channel": 3,
      "note": 89,
      "start": 15.3324,
      "duration": 0.0401,
      "velocity": 111,
      "chip": "ym2612"
    },
    {
      "channel": 0,
      "note": 67,
      "start": 15.375,
      "duration": 0.1806,
      "velocity": 111,
      "chip": "ym2612"
    },
    {
      "channel": 3,
      "note": 86,
      "start": 15.3772,
      "duration": 0.0952,
      "velocity": 111,
      "chip": "ym2612"
    },
    {
      "channel": 1,
      "note": 68,
      "start": 15.3794,
      "duration": 0.1763,
      "velocity": 93,
      "chip": "ym2612"
    },
    {
      "channel": 3,
      "note": 87,
      "start": 15.4751,
      "duration": 0.0807,
      "velocity": 111,
      "chip": "ym2612"
    },
    {
      "channel": 0,
      "note": 67,
      "start": 15.5583,
      "duration": 0.0835,
      "velocity": 111,
      "chip": "ym2612"
    },
    {
      "channel": 3,
      "note": 84,
      "start": 15.5605,
      "duration": 0.0403,
      "velocity": 111,
      "chip": "ym2612"
    },
    {
      "channel": 1,
      "note": 60,
      "start": 15.5627,
      "duration": 0.0792,
      "velocity": 93,
      "chip": "ym2612"
    },
    {
      "channel": 3,
      "note": 79,
      "start": 15.603,
      "duration": 0.039,
      "velocity": 111,
      "chip": "ym2612"
    },
    {
      "channel": 0,
      "note": 67,
      "start": 15.6442,
      "duration": 0.0817,
      "velocity": 111,
      "chip": "ym2612"
    },
    {
      "channel": 3,
      "note": 84,
      "start": 15.6463,
      "duration": 0.0359,
      "velocity": 111,
      "chip": "ym2612"
    },
    {
      "channel": 1,
      "note": 67,
      "start": 15.6484,
      "duration": 0.0775,
      "velocity": 93,
      "chip": "ym2612"
    },
    {
      "channel": 3,
      "note": 86,
      "start": 15.6859,
      "duration": 0.0401,
      "velocity": 111,
      "chip": "ym2612"
    },
    {
      "channel": 0,
      "note": 69,
      "start": 15.7293,
      "duration": 0.1583,
      "velocity": 111,
      "chip": "ym2612"
    },
    {
      "channel": 3,
      "note": 87,
      "start": 15.7314,
      "duration": 0.0356,
      "velocity": 111,
      "chip": "ym2612"
    },
    {
      "channel": 1,
      "note": 62,
      "start": 15.7333,
      "duration": 0.0718,
      "velocity": 93,
      "chip": "ym2612"
    },
    {
      "channel": 3,
      "note": 89,
      "start": 15.7694,
      "duration": 0.0359,
      "velocity": 111,
      "chip": "ym2612"
    },
    {
      "channel": 3,
      "note": 86,
      "start": 15.8077,
      "duration": 0.0432,
      "velocity": 111,
      "chip": "ym2612"
    },
    {
      "channel": 1,
      "note": 62,
      "start": 15.8107,
      "duration": 0.077,
      "velocity": 93,
      "chip": "ym2612"
    },
    {
      "channel": 3,
      "note": 88,
      "start": 15.8541,
      "duration": 0.0337,
      "velocity": 111,
      "chip": "ym2612"
    },
    {
      "channel": 0,
      "note": 69,
      "start": 15.8912,
      "duration": 0.08,
      "velocity": 111,
      "chip": "ym2612"
    },
    {
      "channel": 3,
      "note": 89,
      "start": 15.8932,
      "duration": 0.0418,
      "velocity": 111,
      "chip": "ym2612"
    },
    {
      "channel": 1,
      "note": 62,
      "start": 15.8954,
      "duration": 0.0759,
      "velocity": 93,
      "chip": "ym2612"
    },
    {
      "channel": 3,
      "note": 91,
      "start": 15.9382,
      "duration": 0.0331,
      "velocity": 111,
      "chip": "ym2612"
    },
    {
      "channel": 0,
      "note": 69,
      "start": 15.9748,
      "duration": 0.0794,
      "velocity": 111,
      "chip": "ym2612"
    },
    {
      "channel": 3,
      "note": 93,
      "start": 15.9768,
      "duration": 0.0412,
      "velocity": 111,
      "chip": "ym2612"
    },
    {
      "channel": 1,
      "note": 69,
      "start": 15.9786,
      "duration": 0.0757,
      "velocity": 93,
      "chip": "ym2612"
    },
    {
      "channel": 3,
      "note": 91,
      "start": 16.0211,
      "duration": 0.0333,
      "velocity": 111,
      "chip": "ym2612"
    },
    {
      "channel": 0,
      "note": 69,
      "start": 16.0578,
      "duration": 0.0812,
      "velocity": 111,
      "chip": "ym2612"
    },
    {
      "channel": 3,
      "note": 89,
      "start": 16.0598,
      "duration": 0.0352,
      "velocity": 111,
      "chip": "ym2612"
    },
    {
      "channel": 1,
      "note": 62,
      "start": 16.0621,
      "duration": 0.077,
      "velocity": 93,
      "chip": "ym2612"
    },
    {
      "channel": 3,
      "note": 88,
      "start": 16.0974,
      "duration": 0.0418,
      "velocity": 111,
      "chip": "ym2612"
    },
    {
      "channel": 0,
      "note": 69,
      "start": 16.1426,
      "duration": 0.081,
      "velocity": 111,
      "chip": "ym2612"
    },
    {
      "channel": 3,
      "note": 89,
      "start": 16.1446,
      "duration": 0.0351,
      "velocity": 111,
      "chip": "ym2612"
    },
    {
      "channel": 1,
      "note": 70,
      "start": 16.1474,
      "duration": 0.0763,
      "velocity": 93,
      "chip": "ym2612"
    },
    {
      "channel": 3,
      "note": 91,
      "start": 16.1822,
      "duration": 0.0416,
      "velocity": 111,
      "chip": "ym2612"
    },
    {
      "channel": 0,
      "note": 69,
      "start": 16.2272,
      "duration": 0.0739,
      "velocity": 111,
      "chip": "ym2612"
    },
    {
      "channel": 3,
      "note": 93,
      "start": 16.2292,
      "duration": 0.035,
      "velocity": 111,
      "chip": "ym2612"
    },
    {
      "channel": 1,
      "note": 62,
      "start": 16.232,
      "duration": 0.0692,
      "velocity": 93,
      "chip": "ym2612"
    },
    {
      "channel": 3,
      "note": 94,
      "start": 16.2666,
      "duration": 0.0346,
      "velocity": 111,
      "chip": "ym2612"
    },
    {
      "channel": 0,
      "note": 69,
      "start": 16.3034,
      "duration": 0.0817,
      "velocity": 111,
      "chip": "ym2612"
    },
    {
      "channel": 3,
      "note": 93,
      "start": 16.3055,
      "duration": 0.0432,
      "velocity": 111,
      "chip": "ym2612"
    },
    {
      "channel": 1,
      "note": 69,
      "start": 16.3075,
      "duration": 0.0778,
      "velocity": 93,
      "chip": "ym2612"
    },
    {
      "channel": 3,
      "note": 91,
      "start": 16.3519,
      "duration": 0.0334,
      "velocity": 111,
      "chip": "ym2612"
    },
    {
      "channel": 0,
      "note": 69,
      "start": 16.3888,
      "duration": 0.0794,
      "velocity": 111,
      "chip": "ym2612"
    },
    {
      "channel": 3,
      "note": 89,
      "start": 16.3908,
      "duration": 0.0411,
      "velocity": 111,
      "chip": "ym2612"
    },
    {
      "channel": 1,
      "note": 62,
      "start": 16.3927,
      "duration": 0.0756,
      "velocity": 93,
      "chip": "ym2612"
    },
    {
      "channel": 3,
      "note": 91,
      "start": 16.435,
      "duration": 0.0333,
      "velocity": 111,
      "chip": "ym2612"
    },
    {
      "channel": 0,
      "note": 96,
      "start": 16.4718,
      "duration": 0.0381,
      "velocity": 111,
      "chip": "ym2612"
    },
    {
      "channel": 3,
      "note": 93,
      "start": 16.4738,
      "duration": 0.0362,
      "velocity": 111,
      "chip": "ym2612"
    },
    {
      "channel": 1,
      "note": 57,
      "start": 16.476,
      "duration": 0.034,
      "velocity": 93,
      "chip": "ym2612"
    },
    {
      "channel": 0,
      "note": 95,
      "start": 16.5131,
      "duration": 0.0402,
      "velocity": 111,
      "chip": "ym2612"
    },
    {
      "channel": 3,
      "note": 91,
      "start": 16.5153,
      "duration": 0.0382,
      "velocity": 111,
      "chip": "ym2612"
    },
    {
      "channel": 1,
      "note": 57,
      "start": 16.5172,
      "duration": 0.0362,
      "velocity": 93,
      "chip": "ym2612"
    },
    {
      "channel": 0,
      "note": 93,
      "start": 16.5556,
      "duration": 0.0366,
      "velocity": 111,
      "chip": "ym2612"
    },
    {
      "channel": 3,
      "note": 89,
      "start": 16.5575,
      "duration": 0.0348,
      "velocity": 111,
      "chip": "ym2612"
    },
    {
      "channel": 1,
      "note": 57,
      "start": 16.5606,
      "duration": 0.0316,
      "velocity": 93,
      "chip": "ym2612"
    },
    {
      "channel": 0,
      "note": 91,
      "start": 16.5944,
      "duration": 0.0827,
      "velocity": 111,
      "chip": "ym2612"
    },
    {
      "channel": 3,
      "note": 88,
      "start": 16.5963,
      "duration": 0.081,
      "velocity": 111,
      "chip": "ym2612"
    },
    {
      "channel": 1,
      "note": 57,
      "start": 16.5983,
      "duration": 0.0789,
      "velocity": 93,
      "chip": "ym2612"
    },
    {
      "channel": 0,
      "note": 95,
      "start": 16.6798,
      "duration": 0.0401,
      "velocity": 111,
      "chip": "ym2612"
    },
    {
      "channel": 3,
      "note": 91,
      "start": 16.682,
      "duration": 0.038,
      "velocity": 111,
      "chip": "ym2612"
    },
    {
      "channel": 1,
      "note": 64,
      "start": 16.6842,
      "duration": 0.0358,
      "velocity": 93,
      "chip": "ym2612"
    },
    {
      "channel": 0,
      "note": 93,
      "start": 16.7221,
      "duration": 0.0376,
      "velocity": 111,
      "chip": "ym2612"
    },
    {
      "channel": 3,
      "note": 89,
      "start": 16.7242,
      "duration": 0.0356,
      "velocity": 111,
      "chip": "ym2612"
    },
    {
      "channel": 1,
      "note": 57,
      "start": 16.7262,
      "duration": 0.0336,
      "velocity": 93,
      "chip": "ym2612"
    },
    {
      "channel": 0,
      "note": 91,
      "start": 16.7624,
      "duration": 0.0402,
      "velocity": 111,
      "chip": "ym2612"
    },
    {
      "channel": 3,
      "note": 88,
      "start": 16.7645,
      "duration": 0.0383,
      "velocity": 111,
      "chip": "ym2612"
    },
    {
      "channel": 1,
      "note": 57,
      "start": 16.7666,
      "duration": 0.0362,
      "velocity": 93,
      "chip": "ym2612"
    },
    {
      "channel": 0,
      "note": 89,
      "start": 16.8051,
      "duration": 0.0407,
      "velocity": 111,
      "chip": "ym2612"
    },
    {
      "channel": 3,
      "note": 86,
      "start": 16.8082,
      "duration": 0.0378,
      "velocity": 111,
      "chip": "ym2612"
    },
    {
      "channel": 1,
      "note": 57,
      "start": 16.8102,
      "duration": 0.0356,
      "velocity": 93,
      "chip": "ym2612"
    },
    {
      "channel": 0,
      "note": 93,
      "start": 16.8485,
      "duration": 0.0972,
      "velocity": 111,
      "chip": "ym2612"
    },
    {
      "channel": 3,
      "note": 89,
      "start": 16.8507,
      "duration": 0.0952,
      "velocity": 111,
      "chip": "ym2612"
    },
    {
      "channel": 1,
      "note": 65,
      "start": 16.8529,
      "duration": 0.0929,
      "velocity": 93,
      "chip": "ym2612"
    },
    {
      "channel": 0,
      "note": 91,
      "start": 16.9484,
      "duration": 0.0807,
      "velocity": 111,
      "chip": "ym2612"
    },
    {
      "channel": 3,
      "note": 88,
      "start": 16.9507,
      "duration": 0.0788,
      "velocity": 111,
      "chip": "ym2612"
    },
    {
      "channel": 1,
      "note": 57,
      "start": 16.9528,
      "duration": 0.0765,
      "velocity": 93,
      "chip": "ym2612"
    },
    {
      "channel": 0,
      "note": 89,
      "start": 17.0319,
      "duration": 0.0422,
      "velocity": 111,
      "chip": "ym2612"
    },
    {
      "channel": 3,
      "note": 86,
      "start": 17.0341,
      "duration": 0.0401,
      "velocity": 111,
      "chip": "ym2612"
    },
    {
      "channel": 1,
      "note": 57,
      "start": 17.0363,
      "duration": 0.0379,
      "velocity": 93,
      "chip": "ym2612"
    },
    {
      "channel": 0,
      "note": 88,
      "start": 17.0764,
      "duration": 0.0418,
      "velocity": 111,
      "chip": "ym2612"
    },
    {
      "channel": 3,
      "note": 84,
      "start": 17.0785,
      "duration": 0.0399,
      "velocity": 111,
      "chip": "ym2612"
    },
    {
      "channel": 1,
      "note": 57,
      "start": 17.0818,
      "duration": 0.0365,
      "velocity": 93,
      "chip": "ym2612"
    },
    {
      "channel": 0,
      "note": 91,
      "start": 17.1206,
      "duration": 0.0371,
      "velocity": 111,
      "chip": "ym2612"
    },
    {
      "channel": 3,
      "note": 88,
      "start": 17.1228,
      "duration": 0.0351,
      "velocity": 111,
      "chip": "ym2612"
    },
    {
      "channel": 1,
      "note": 57,
      "start": 17.1247,
      "duration": 0.0332,
      "velocity": 93,
      "chip": "ym2612"
    },
    {
      "channel": 0,
      "note": 89,
      "start": 17.1602,
      "duration": 0.0434,
      "velocity": 111,
      "chip": "ym2612"
    },
    {
      "channel": 3,
      "note": 86,
      "start": 17.1637,
      "duration": 0.0401,
      "velocity": 111,
      "chip": "ym2612"
    },
    {
      "channel": 1,
      "note": 57,
      "start": 17.1657,
      "duration": 0.038,
      "velocity": 93,
      "chip": "ym2612"
    },
    {
      "channel": 0,
      "note": 88,
      "start": 17.206,
      "duration": 0.0379,
      "velocity": 111,
      "chip": "ym2612"
    },
    {
      "channel": 3,
      "note": 84,
      "start": 17.208,
      "duration": 0.036,
      "velocity": 111,
      "chip": "ym2612"
    },
    {
      "channel": 1,
      "note": 62,
      "start": 17.211,
      "duration": 0.0329,
      "velocity": 93,
      "chip": "ym2612"
    },
    {
      "channel": 0,
      "note": 86,
      "start": 17.2463,
      "duration": 0.0433,
      "velocity": 111,
      "chip": "ym2612"
    },
    {
      "channel": 3,
      "note": 83,
      "start": 17.2484,
      "duration": 0.0413,
      "velocity": 111,
      "chip": "ym2612"
    },
    {
      "channel": 1,
      "note": 57,
      "start": 17.2515,
      "duration": 0.0382,
      "velocity": 93,
      "chip": "ym2612"
    },
    {
      "channel": 0,
      "note": 95,
      "start": 17.2919,
      "duration": 0.0365,
      "velocity": 111,
      "chip": "ym2612"
    },
    {
      "channel": 3,
      "note": 91,
      "start": 17.2938,
      "duration": 0.0348,
      "velocity": 111,
      "chip": "ym2612"
    },
    {
      "channel": 1,
      "note": 57,
      "start": 17.2967,
      "duration": 0.0318,
      "velocity": 93,
      "chip": "ym2612"
    },
    {
      "channel": 0,
      "note": 93,
      "start": 17.3307,
      "duration": 0.0665,
      "velocity": 111,
      "chip": "ym2612"
    },
    {
      "channel": 3,
      "note": 89,
      "start": 17.3327,
      "duration": 0.0648,
      "velocity": 111,
      "chip": "ym2612"
    },
    {
      "channel": 1,
      "note": 57,
      "start": 17.3347,
      "duration": 0.0627,
      "velocity": 93,
      "chip": "ym2612"
    },
    {
      "channel": 0,
      "note": 91,
      "start": 17.4,
      "duration": 0.048,
      "velocity": 111,
      "chip": "ym2612"
    },
    {
      "channel": 3,
      "note": 88,
      "start": 17.4022,
      "duration": 0.046,
      "velocity": 111,
      "chip": "ym2612"
    },
    {
      "channel": 1,
      "note": 64,
      "start": 17.4044,
      "duration": 0.0437,
      "velocity": 93,
      "chip": "ym2612"
    },
    {
      "channel": 0,
      "note": 89,
      "start": 17.4503,
      "duration": 0.0368,
      "velocity": 111,
      "chip": "ym2612"
    },
    {
      "channel": 3,
      "note": 86,
      "start": 17.4524,
      "duration": 0.0348,
      "velocity": 111,
      "chip": "ym2612"
    },
    {
      "channel": 1,
      "note": 57,
      "start": 17.4554,
      "duration": 0.0317,
      "velocity": 93,
      "chip": "ym2612"
    },
    {
      "channel": 0,
      "note": 93,
      "start": 17.4893,
      "duration": 0.0449,
      "velocity": 111,
      "chip": "ym2612"
    },
    {
      "channel": 3,
      "note": 89,
      "start": 17.4913,
      "duration": 0.0432,
      "velocity": 111,
      "chip": "ym2612"
    },
    {
      "channel": 1,
      "note": 57,
      "start": 17.4932,
      "duration": 0.0412,
      "velocity": 93,
      "chip": "ym2612"
    },
    {
      "channel": 0,
      "note": 91,
      "start": 17.5377,
      "duration": 0.0342,
      "velocity": 111,
      "chip": "ym2612"
    },
    {
      "channel": 3,
      "note": 88,
      "start": 17.5396,
      "duration": 0.0324,
      "velocity": 111,
      "chip": "ym2612"
    },
    {
      "channel": 1,
      "note": 57,
      "start": 17.5415,
      "duration": 0.0304,
      "velocity": 93,
      "chip": "ym2612"
    },
    {
      "channel": 0,
      "note": 90,
      "start": 17.5742,
      "duration": 0.0366,
      "velocity": 111,
      "chip": "ym2612"
    },
    {
      "channel": 3,
      "note": 86,
      "start": 17.5761,
      "duration": 0.0348,
      "velocity": 111,
      "chip": "ym2612"
    },
    {
      "channel": 1,
      "note": 65,
      "start": 17.579,
      "duration": 0.0318,
      "velocity": 93,
      "chip": "ym2612"
    },
    {
      "channel": 0,
      "note": 88,
      "start": 17.6131,
      "duration": 0.0551,
      "velocity": 111,
      "chip": "ym2612"
    },
    {
      "channel": 3,
      "note": 84,
      "start": 17.6151,
      "duration": 0.0533,
      "velocity": 111,
      "chip": "ym2612"
    },
    {
      "channel": 1,
      "note": 57,
      "start": 17.6171,
      "duration": 0.0512,
      "velocity": 93,
      "chip": "ym2612"
    },
    {
      "channel": 0,
      "note": 91,
      "start": 17.671,
      "duration": 0.0805,
      "velocity": 111,
      "chip": "ym2612"
    },
    {
      "channel": 3,
      "note": 88,
      "start": 17.6732,
      "duration": 0.0786,
      "velocity": 111,
      "chip": "ym2612"
    },
    {
      "channel": 1,
      "note": 57,
      "start": 17.6753,
      "duration": 0.0763,
      "velocity": 93,
      "chip": "ym2612"
    },
    {
      "channel": 0,
      "note": 89,
      "start": 17.7542,
      "duration": 0.0973,
      "velocity": 111,
      "chip": "ym2612"
    },
    {
      "channel": 3,
      "note": 86,
      "start": 17.7565,
      "duration": 0.0954,
      "velocity": 111,
      "chip": "ym2612"
    },
    {
      "channel": 1,
      "note": 57,
      "start": 17.7591,
      "duration": 0.0926,
      "velocity": 93,
      "chip": "ym2612"
    },
    {
      "channel": 0,
      "note": 88,
      "start": 17.8543,
      "duration": 0.0417,
      "velocity": 111,
      "chip": "ym2612"
    },
    {
      "channel": 3,
      "note": 84,
      "start": 17.8565,
      "duration": 0.0397,
      "velocity": 111,
      "chip": "ym2612"
    },
    {
      "channel": 1,
      "note": 64,
      "start": 17.8587,
      "duration": 0.0374,
      "velocity": 93,
      "chip": "ym2612"
    },
    {
      "channel": 0,
      "note": 86,
      "start": 17.8985,
      "duration": 0.0375,
      "velocity": 111,
      "chip": "ym2612"
    },
    {
      "channel": 3,
      "note": 83,
      "start": 17.9007,
      "duration": 0.0355,
      "velocity": 111,
      "chip": "ym2612"
    },
    {
      "channel": 1,
      "note": 57,
      "start": 17.9025,
      "duration": 0.0335,
      "velocity": 93,
      "chip": "ym2612"
    },
    {
      "channel": 0,
      "note": 89,
      "start": 17.9383,
      "duration": 0.0426,
      "velocity": 111,
      "chip": "ym2612"
    },
    {
      "channel": 3,
      "note": 86,
      "start": 17.9402,
      "duration": 0.0409,
      "velocity": 111,
      "chip": "ym2612"
    },
    {
      "channel": 1,
      "note": 57,
      "start": 17.9421,
      "duration": 0.0389,
      "velocity": 93,
      "chip": "ym2612"
    },
    {
      "channel": 0,
      "note": 87,
      "start": 17.9833,
      "duration": 0.0359,
      "velocity": 111,
      "chip": "ym2612"
    },
    {
      "channel": 3,
      "note": 84,
      "start": 17.9866,
      "duration": 0.0327,
      "velocity": 111,
      "chip": "ym2612"
    },
    {
      "channel": 1,
      "note": 57,
      "start": 17.9887,
      "duration": 0.0306,
      "velocity": 93,
      "chip": "ym2612"
    },
    {
      "channel": 0,
      "note": 86,
      "start": 18.0215,
      "duration": 0.0456,
      "velocity": 111,
      "chip": "ym2612"
    },
    {
      "channel": 3,
      "note": 83,
      "start": 18.0236,
      "duration": 0.0437,
      "velocity": 111,
      "chip": "ym2612"
    },
    {
      "channel": 1,
      "note": 60,
      "start": 18.0257,
      "duration": 0.0789,
      "velocity": 93,
      "chip": "ym2612"
    },
    {
      "channel": 0,
      "note": 87,
      "start": 18.0703,
      "duration": 0.0343,
      "velocity": 111,
      "chip": "ym2612"
    },
    {
      "channel": 3,
      "note": 84,
      "start": 18.0724,
      "duration": 0.0324,
      "velocity": 111,
      "chip": "ym2612"
    },
    {
      "channel": 0,
      "note": 67,
      "start": 18.1073,
      "duration": 0.1229,
      "velocity": 111,
      "chip": "ym2612"
    },
    {
      "channel": 3,
      "note": 84,
      "start": 18.1104,
      "duration": 0.0345,
      "velocity": 111,
      "chip": "ym2612"
    },
    {
      "channel": 1,
      "note": 60,
      "start": 18.1125,
      "duration": 0.1178,
      "velocity": 93,
      "chip": "ym2612"
    },
    {
      "channel": 3,
      "note": 86,
      "start": 18.1471,
      "duration": 0.0833,
      "velocity": 111,
      "chip": "ym2612"
    },
    {
      "channel": 0,
      "note": 67,
      "start": 18.233,
      "duration": 0.084,
      "velocity": 111,
      "chip": "ym2612"
    },
    {
      "channel": 3,
      "note": 87,
      "start": 18.2351,
      "duration": 0.0391,
      "velocity": 111,
      "chip": "ym2612"
    },
    {
      "channel": 1,
      "note": 60,
      "start": 18.2373,
      "duration": 0.0798,
      "velocity": 93,
      "chip": "ym2612"
    },
    {
      "channel": 3,
      "note": 89,
      "start": 18.2767,
      "duration": 0.0405,
      "velocity": 111,
      "chip": "ym2612"
    },
    {
      "channel": 0,
      "note": 67,
      "start": 18.3193,
      "duration": 0.0828,
      "velocity": 111,
      "chip": "ym2612"
    },
    {
      "channel": 3,
      "note": 91,
      "start": 18.3214,
      "duration": 0.0366,
      "velocity": 111,
      "chip": "ym2612"
    },
    {
      "channel": 1,
      "note": 67,
      "start": 18.3234,
      "duration": 0.0788,
      "velocity": 93,
      "chip": "ym2612"
    },
    {
      "channel": 3,
      "note": 89,
      "start": 18.3605,
      "duration": 0.0418,
      "velocity": 111,
      "chip": "ym2612"
    },
    {
      "channel": 0,
      "note": 67,
      "start": 18.4055,
      "duration": 0.0773,
      "velocity": 111,
      "chip": "ym2612"
    },
    {
      "channel": 3,
      "note": 87,
      "start": 18.4077,
      "duration": 0.0328,
      "velocity": 111,
      "chip": "ym2612"
    },
    {
      "channel": 1,
      "note": 60,
      "start": 18.4096,
      "duration": 0.0733,
      "velocity": 93,
      "chip": "ym2612"
    },
    {
      "channel": 3,
      "note": 89,
      "start": 18.443,
      "duration": 0.04,
      "velocity": 111,
      "chip": "ym2612"
    },
    {
      "channel": 0,
      "note": 67,
      "start": 18.4861,
      "duration": 0.1801,
      "velocity": 111,
      "chip": "ym2612"
    },
    {
      "channel": 3,
      "note": 86,
      "start": 18.4883,
      "duration": 0.0946,
      "velocity": 111,
      "chip": "ym2612"
    },
    {
      "channel": 1,
      "note": 68,
      "start": 18.4904,
      "duration": 0.1758,
      "velocity": 93,
      "chip": "ym2612"
    },
    {
      "channel": 3,
      "note": 87,
      "start": 18.5857,
      "duration": 0.0807,
      "velocity": 111,
      "chip": "ym2612"
    },
    {
      "channel": 0,
      "note": 67,
      "start": 18.6689,
      "duration": 0.0841,
      "velocity": 111,
      "chip": "ym2612"
    },
    {
      "channel": 3,
      "note": 84,
      "start": 18.6711,
      "duration": 0.0457,
      "velocity": 111,
      "chip": "ym2612"
    },
    {
      "channel": 1,
      "note": 60,
      "start": 18.6733,
      "duration": 0.0799,
      "velocity": 93,
      "chip": "ym2612"
    },
    {
      "channel": 3,
      "note": 79,
      "start": 18.7191,
      "duration": 0.0341,
      "velocity": 111,
      "chip": "ym2612"
    },
    {
      "channel": 0,
      "note": 67,
      "start": 18.7554,
      "duration": 0.0816,
      "velocity": 111,
      "chip": "ym2612"
    },
    {
      "channel": 3,
      "note": 84,
      "start": 18.7575,
      "duration": 0.0359,
      "velocity": 111,
      "chip": "ym2612"
    },
    {
      "channel": 1,
      "note": 67,
      "start": 18.7596,
      "duration": 0.0775,
      "velocity": 93,
      "chip": "ym2612"
    },
    {
      "channel": 3,
      "note": 86,
      "start": 18.7971,
      "duration": 0.04,
      "velocity": 111,
      "chip": "ym2612"
    },
    {
      "channel": 0,
      "note": 69,
      "start": 18.8404,
      "duration": 0.1622,
      "velocity": 111,
      "chip": "ym2612"
    },
    {
      "channel": 3,
      "note": 87,
      "start": 18.8425,
      "duration": 0.0355,
      "velocity": 111,
      "chip": "ym2612"
    },
    {
      "channel": 1,
      "note": 62,
      "start": 18.8445,
      "duration": 0.0777,
      "velocity": 93,
      "chip": "ym2612"
    },
    {
      "channel": 3,
      "note": 89,
      "start": 18.8805,
      "duration": 0.0418,
      "velocity": 111,
      "chip": "ym2612"
    },
    {
      "channel": 3,
      "note": 86,
      "start": 18.9257,
      "duration": 0.0355,
      "velocity": 111,
      "chip": "ym2612"
    },
    {
      "channel": 1,
      "note": 62,
      "start": 18.9278,
      "duration": 0.075,
      "velocity": 93,
      "chip": "ym2612"
    },
    {
      "channel": 3,
      "note": 88,
      "start": 18.9635,
      "duration": 0.0393,
      "velocity": 111,
      "chip": "ym2612"
    },
    {
      "channel": 0,
      "note": 69,
      "start": 19.0055,
      "duration": 0.0813,
      "velocity": 111,
      "chip": "ym2612"
    },
    {
      "channel": 3,
      "note": 89,
      "start": 19.0076,
      "duration": 0.04,
      "velocity": 111,
      "chip": "ym2612"
    },
    {
      "channel": 1,
      "note": 62,
      "start": 19.0108,
      "duration": 0.076,
      "velocity": 93,
      "chip": "ym2612"
    },
    {
      "channel": 3,
      "note": 91,
      "start": 19.0505,
      "duration": 0.0365,
      "velocity": 111,
      "chip": "ym2612"
    },
    {
      "channel": 0,
      "note": 69,
      "start": 19.0891,
      "duration": 0.0843,
      "velocity": 111,
      "chip": "ym2612"
    },
    {
      "channel": 3,
      "note": 93,
      "start": 19.0911,
      "duration": 0.0434,
      "velocity": 111,
      "chip": "ym2612"
    },
    {
      "channel": 1,
      "note": 69,
      "start": 19.0931,
      "duration": 0.0804,
      "velocity": 93,
      "chip": "ym2612"
    },
    {
      "channel": 3,
      "note": 91,
      "start": 19.1366,
      "duration": 0.0369,
      "velocity": 111,
      "chip": "ym2612"
    },
    {
      "channel": 0,
      "note": 69,
      "start": 19.1757,
      "duration": 0.0825,
      "velocity": 111,
      "chip": "ym2612"
    },
    {
      "channel": 3,
      "note": 89,
      "start": 19.1778,
      "duration": 0.037,
      "velocity": 111,
      "chip": "ym2612"
    },
    {
      "channel": 1,
      "note": 62,
      "start": 19.1799,
      "duration": 0.0784,
      "velocity": 93,
      "chip": "ym2612"
    },
    {
      "channel": 3,
      "note": 88,
      "start": 19.2173,
      "duration": 0.041,
      "velocity": 111,
      "chip": "ym2612"
    },
    {
      "channel": 0,
      "note": 69,
      "start": 19.2605,
      "duration": 0.0816,
      "velocity": 111,
      "chip": "ym2612"
    },
    {
      "channel": 3,
      "note": 89,
      "start": 19.2626,
      "duration": 0.0338,
      "velocity": 111,
      "chip": "ym2612"
    },
    {
      "channel": 1,
      "note": 70,
      "start": 19.2647,
      "duration": 0.0775,
      "velocity": 93,
      "chip": "ym2612"
    },
    {
      "channel": 3,
      "note": 91,
      "start": 19.2987,
      "duration": 0.0436,
      "velocity": 111,
      "chip": "ym2612"
    },
    {
      "channel": 0,
      "note": 69,
      "start": 19.3444,
      "duration": 0.0834,
      "velocity": 111,
      "chip": "ym2612"
    },
    {
      "channel": 3,
      "note": 93,
      "start": 19.3465,
      "duration": 0.0354,
      "velocity": 111,
      "chip": "ym2612"
    },
    {
      "channel": 1,
      "note": 62,
      "start": 19.3486,
      "duration": 0.0793,
      "velocity": 93,
      "chip": "ym2612"
    },
    {
      "channel": 3,
      "note": 94,
      "start": 19.3844,
      "duration": 0.0435,
      "velocity": 111,
      "chip": "ym2612"
    },
    {
      "channel": 0,
      "note": 69,
      "start": 19.4301,
      "duration": 0.0778,
      "velocity": 111,
      "chip": "ym2612"
    },
    {
      "channel": 3,
      "note": 93,
      "start": 19.4333,
      "duration": 0.0348,
      "velocity": 111,
      "chip": "ym2612"
    },
    {
      "channel": 1,
      "note": 69,
      "start": 19.4352,
      "duration": 0.0727,
      "velocity": 93,
      "chip": "ym2612"
    },
    {
      "channel": 3,
      "note": 91,
      "start": 19.4706,
      "duration": 0.0374,
      "velocity": 111,
      "chip": "ym2612"
    },
    {
      "channel": 0,
      "note": 69,
      "start": 19.5103,
      "duration": 0.0844,
      "velocity": 111,
      "chip": "ym2612"
    },
    {
      "channel": 3,
      "note": 89,
      "start": 19.5124,
      "duration": 0.043,
      "velocity": 111,
      "chip": "ym2612"
    },
    {
      "channel": 1,
      "note": 62,
      "start": 19.5143,
      "duration": 0.0805,
      "velocity": 93,
      "chip": "ym2612"
    },
    {
      "channel": 3,
      "note": 91,
      "start": 19.5578,
      "duration": 0.0371,
      "velocity": 111,
      "chip": "ym2612"
    },
    {
      "channel": 0,
      "note": 69,
      "start": 19.5974,
      "duration": 0.1618,
      "velocity": 111,
      "chip": "ym2612"
    },
    {
      "channel": 3,
      "note": 93,
      "start": 19.5999,
      "duration": 0.1596,
      "velocity": 111,
      "chip": "ym2612"
    },
    {
      "channel": 1,
      "note": 57,
      "start": 19.602,
      "duration": 0.0397,
      "velocity": 93,
      "chip": "ym2612"
    },
    {
      "channel": 1,
      "note": 57,
      "start": 19.6799,
      "duration": 0.0378,
      "velocity": 93,
      "chip": "ym2612"
    },
    {
      "channel": 1,
      "note": 57,
      "start": 19.7623,
      "duration": 0.0364,
      "velocity": 93,
      "chip": "ym2612"
    },
    {
      "channel": 1,
      "note": 57,
      "start": 20.0151,
      "duration": 0.0428,
      "velocity": 93,
      "chip": "ym2612"
    },
    {
      "channel": 1,
      "note": 57,
      "start": 20.0603,
      "duration": 0.0343,
      "velocity": 93,
      "chip": "ym2612"
    },
    {
      "channel": 1,
      "note": 57,
      "start": 20.0977,
      "duration": 0.0374,
      "velocity": 93,
      "chip": "ym2612"
    },
    {
      "channel": 1,
      "note": 57,
      "start": 20.1786,
      "duration": 0.0359,
      "velocity": 93,
      "chip": "ym2612"
    },
    {
      "channel": 1,
      "note": 57,
      "start": 20.2595,
      "duration": 0.034,
      "velocity": 93,
      "chip": "ym2612"
    },
    {
      "channel": 1,
      "note": 58,
      "start": 20.5394,
      "duration": 0.041,
      "velocity": 93,
      "chip": "ym2612"
    },
    {
      "channel": 1,
      "note": 58,
      "start": 20.7258,
      "duration": 0.0358,
      "velocity": 93,
      "chip": "ym2612"
    },
    {
      "channel": 1,
      "note": 57,
      "start": 20.8057,
      "duration": 0.0358,
      "velocity": 93,
      "chip": "ym2612"
    },
    {
      "channel": 1,
      "note": 57,
      "start": 20.8802,
      "duration": 0.0409,
      "velocity": 93,
      "chip": "ym2612"
    },
    {
      "channel": 1,
      "note": 57,
      "start": 20.9237,
      "duration": 0.0478,
      "velocity": 93,
      "chip": "ym2612"
    },
    {
      "channel": 1,
      "note": 58,
      "start": 20.9743,
      "duration": 0.0447,
      "velocity": 93,
      "chip": "ym2612"
    },
    {
      "channel": 1,
      "note": 58,
      "start": 21.058,
      "duration": 0.0375,
      "velocity": 93,
      "chip": "ym2612"
    },
    {
      "channel": 1,
      "note": 57,
      "start": 21.1393,
      "duration": 0.0366,
      "velocity": 93,
      "chip": "ym2612"
    },
    {
      "channel": 1,
      "note": 57,
      "start": 21.3929,
      "duration": 0.0427,
      "velocity": 93,
      "chip": "ym2612"
    },
    {
      "channel": 1,
      "note": 57,
      "start": 21.4381,
      "duration": 0.0338,
      "velocity": 93,
      "chip": "ym2612"
    },
    {
      "channel": 1,
      "note": 57,
      "start": 21.4744,
      "duration": 0.0436,
      "velocity": 93,
      "chip": "ym2612"
    },
    {
      "channel": 1,
      "note": 57,
      "start": 21.5557,
      "duration": 0.0378,
      "velocity": 93,
      "chip": "ym2612"
    },
    {
      "channel": 1,
      "note": 57,
      "start": 21.6378,
      "duration": 0.0345,
      "velocity": 93,
      "chip": "ym2612"
    },
    {
      "channel": 1,
      "note": 57,
      "start": 21.9261,
      "duration": 0.0415,
      "velocity": 93,
      "chip": "ym2612"
    },
    {
      "channel": 1,
      "note": 57,
      "start": 22.1122,
      "duration": 0.0349,
      "velocity": 93,
      "chip": "ym2612"
    },
    {
      "channel": 1,
      "note": 57,
      "start": 22.2688,
      "duration": 0.0387,
      "velocity": 93,
      "chip": "ym2612"
    },
    {
      "channel": 1,
      "note": 57,
      "start": 22.3099,
      "duration": 0.0492,
      "velocity": 93,
      "chip": "ym2612"
    },
    {
      "channel": 1,
      "note": 58,
      "start": 22.3624,
      "duration": 0.0443,
      "velocity": 93,
      "chip": "ym2612"
    },
    {
      "channel": 1,
      "note": 58,
      "start": 22.4458,
      "duration": 0.0421,
      "velocity": 93,
      "chip": "ym2612"
    },
    {
      "channel": 1,
      "note": 57,
      "start": 22.5275,
      "duration": 0.0367,
      "velocity": 93,
      "chip": "ym2612"
    },
    {
      "channel": 1,
      "note": 57,
      "start": 22.7885,
      "duration": 0.0432,
      "velocity": 93,
      "chip": "ym2612"
    },
    {
      "channel": 1,
      "note": 57,
      "start": 22.8341,
      "duration": 0.0346,
      "velocity": 93,
      "chip": "ym2612"
    },
    {
      "channel": 1,
      "note": 57,
      "start": 22.8712,
      "duration": 0.0425,
      "velocity": 93,
      "chip": "ym2612"
    },
    {
      "channel": 1,
      "note": 57,
      "start": 22.9518,
      "duration": 0.0389,
      "velocity": 93,
      "chip": "ym2612"
    },
    {
      "channel": 1,
      "note": 57,
      "start": 23.0339,
      "duration": 0.0338,
      "velocity": 93,
      "chip": "ym2612"
    },
    {
      "channel": 1,
      "note": 57,
      "start": 23.3219,
      "duration": 0.0415,
      "velocity": 93,
      "chip": "ym2612"
    },
    {
      "channel": 1,
      "note": 57,
      "start": 23.5068,
      "duration": 0.0357,
      "velocity": 93,
      "chip": "ym2612"
    },
    {
      "channel": 1,
      "note": 57,
      "start": 23.6692,
      "duration": 0.0335,
      "velocity": 93,
      "chip": "ym2612"
    },
    {
      "channel": 1,
      "note": 57,
      "start": 23.7051,
      "duration": 0.0498,
      "velocity": 93,
      "chip": "ym2612"
    },
    {
      "channel": 1,
      "note": 57,
      "start": 23.7577,
      "duration": 0.045,
      "velocity": 93,
      "chip": "ym2612"
    },
    {
      "channel": 1,
      "note": 57,
      "start": 23.8416,
      "duration": 0.0421,
      "velocity": 93,
      "chip": "ym2612"
    },
    {
      "channel": 1,
      "note": 57,
      "start": 23.9232,
      "duration": 0.0363,
      "velocity": 93,
      "chip": "ym2612"
    },
    {
      "channel": 0,
      "note": 59,
      "start": 24.824,
      "duration": 0.0411,
      "velocity": 111,
      "chip": "ym2612"
    },
    {
      "channel": 3,
      "note": 64,
      "start": 24.8265,
      "duration": 0.0388,
      "velocity": 111,
      "chip": "ym2612"
    },
    {
      "channel": 1,
      "note": 52,
      "start": 24.8288,
      "duration": 0.0364,
      "velocity": 93,
      "chip": "ym2612"
    },
    {
      "channel": 0,
      "note": 59,
      "start": 24.8675,
      "duration": 0.0436,
      "velocity": 111,
      "chip": "ym2612"
    },
    {
      "channel": 3,
      "note": 64,
      "start": 24.8696,
      "duration": 0.0416,
      "velocity": 111,
      "chip": "ym2612"
    },
    {
      "channel": 1,
      "note": 52,
      "start": 24.8716,
      "duration": 0.0395,
      "velocity": 93,
      "chip": "ym2612"
    },
    {
      "channel": 0,
      "note": 59,
      "start": 24.9141,
      "duration": 0.0364,
      "velocity": 111,
      "chip": "ym2612"
    },
    {
      "channel": 3,
      "note": 64,
      "start": 24.9162,
      "duration": 0.0344,
      "velocity": 111,
      "chip": "ym2612"
    },
    {
      "channel": 1,
      "note": 52,
      "start": 24.9183,
      "duration": 0.0322,
      "velocity": 93,
      "chip": "ym2612"
    },
    {
      "channel": 0,
      "note": 59,
      "start": 24.9527,
      "duration": 0.0444,
      "velocity": 111,
      "chip": "ym2612"
    },
    {
      "channel": 3,
      "note": 64,
      "start": 24.9547,
      "duration": 0.0426,
      "velocity": 111,
      "chip": "ym2612"
    },
    {
      "channel": 1,
      "note": 52,
      "start": 24.9578,
      "duration": 0.0394,
      "velocity": 93,
      "chip": "ym2612"
    },
    {
      "channel": 0,
      "note": 59,
      "start": 25.0001,
      "duration": 0.0362,
      "velocity": 111,
      "chip": "ym2612"
    },
    {
      "channel": 3,
      "note": 64,
      "start": 25.0022,
      "duration": 0.0343,
      "velocity": 111,
      "chip": "ym2612"
    },
    {
      "channel": 1,
      "note": 52,
      "start": 25.0043,
      "duration": 0.0321,
      "velocity": 93,
      "chip": "ym2612"
    },
    {
      "channel": 0,
      "note": 59,
      "start": 25.0386,
      "duration": 0.037,
      "velocity": 111,
      "chip": "ym2612"
    },
    {
      "channel": 3,
      "note": 64,
      "start": 25.0406,
      "duration": 0.0351,
      "velocity": 111,
      "chip": "ym2612"
    },
    {
      "channel": 1,
      "note": 52,
      "start": 25.0437,
      "duration": 0.032,
      "velocity": 93,
      "chip": "ym2612"
    },
    {
      "channel": 0,
      "note": 59,
      "start": 25.0779,
      "duration": 0.0459,
      "velocity": 111,
      "chip": "ym2612"
    },
    {
      "channel": 3,
      "note": 64,
      "start": 25.0799,
      "duration": 0.044,
      "velocity": 111,
      "chip": "ym2612"
    },
    {
      "channel": 1,
      "note": 52,
      "start": 25.0834,
      "duration": 0.0405,
      "velocity": 93,
      "chip": "ym2612"
    },
    {
      "channel": 0,
      "note": 59,
      "start": 25.1267,
      "duration": 0.0372,
      "velocity": 111,
      "chip": "ym2612"
    },
    {
      "channel": 3,
      "note": 64,
      "start": 25.1292,
      "duration": 0.0349,
      "velocity": 111,
      "chip": "ym2612"
    },
    {
      "channel": 1,
      "note": 52,
      "start": 25.1315,
      "duration": 0.0326,
      "velocity": 93,
      "chip": "ym2612"
    },
    {
      "channel": 0,
      "note": 59,
      "start": 25.1663,
      "duration": 0.0446,
      "velocity": 111,
      "chip": "ym2612"
    },
    {
      "channel": 3,
      "note": 64,
      "start": 25.1683,
      "duration": 0.0427,
      "velocity": 111,
      "chip": "ym2612"
    },
    {
      "channel": 1,
      "note": 52,
      "start": 25.1713,
      "duration": 0.0396,
      "velocity": 93,
      "chip": "ym2612"
    },
    {
      "channel": 0,
      "note": 59,
      "start": 25.2138,
      "duration": 0.0363,
      "velocity": 111,
      "chip": "ym2612"
    },
    {
      "channel": 3,
      "note": 64,
      "start": 25.2159,
      "duration": 0.0343,
      "velocity": 111,
      "chip": "ym2612"
    },
    {
      "channel": 1,
      "note": 52,
      "start": 25.218,
      "duration": 0.0321,
      "velocity": 93,
      "chip": "ym2612"
    },
    {
      "channel": 0,
      "note": 59,
      "start": 25.2523,
      "duration": 0.0369,
      "velocity": 111,
      "chip": "ym2612"
    },
    {
      "channel": 3,
      "note": 64,
      "start": 25.2543,
      "duration": 0.0351,
      "velocity": 111,
      "chip": "ym2612"
    },
    {
      "channel": 1,
      "note": 52,
      "start": 25.2574,
      "duration": 0.0319,
      "velocity": 93,
      "chip": "ym2612"
    },
    {
      "channel": 0,
      "note": 59,
      "start": 25.2919,
      "duration": 0.0461,
      "velocity": 111,
      "chip": "ym2612"
    },
    {
      "channel": 3,
      "note": 64,
      "start": 25.295,
      "duration": 0.0431,
      "velocity": 111,
      "chip": "ym2612"
    },
    {
      "channel": 1,
      "note": 52,
      "start": 25.2971,
      "duration": 0.0409,
      "velocity": 93,
      "chip": "ym2612"
    },
    {
      "channel": 0,
      "note": 59,
      "start": 25.3414,
      "duration": 0.0363,
      "velocity": 111,
      "chip": "ym2612"
    },
    {
      "channel": 3,
      "note": 64,
      "start": 25.3435,
      "duration": 0.0344,
      "velocity": 111,
      "chip": "ym2612"
    },
    {
      "channel": 1,
      "note": 52,
      "start": 25.3457,
      "duration": 0.0321,
      "velocity": 93,
      "chip": "ym2612"
    },
    {
      "channel": 0,
      "note": 59,
      "start": 25.38,
      "duration": 0.0444,
      "velocity": 111,
      "chip": "ym2612"
    },
    {
      "channel": 3,
      "note": 64,
      "start": 25.382,
      "duration": 0.0426,
      "velocity": 111,
      "chip": "ym2612"
    },
    {
      "channel": 1,
      "note": 52,
      "start": 25.385,
      "duration": 0.0395,
      "velocity": 93,
      "chip": "ym2612"
    },
    {
      "channel": 0,
      "note": 59,
      "start": 25.4274,
      "duration": 0.0363,
      "velocity": 111,
      "chip": "ym2612"
    },
    {
      "channel": 3,
      "note": 64,
      "start": 25.4295,
      "duration": 0.0343,
      "velocity": 111,
      "chip": "ym2612"
    },
    {
      "channel": 1,
      "note": 52,
      "start": 25.4316,
      "duration": 0.0321,
      "velocity": 93,
      "chip": "ym2612"
    },
    {
      "channel": 0,
      "note": 59,
      "start": 25.4659,
      "duration": 0.0387,
      "velocity": 111,
      "chip": "ym2612"
    },
    {
      "channel": 3,
      "note": 64,
      "start": 25.4679,
      "duration": 0.0369,
      "velocity": 111,
      "chip": "ym2612"
    },
    {
      "channel": 1,
      "note": 52,
      "start": 25.471,
      "duration": 0.0338,
      "velocity": 93,
      "chip": "ym2612"
    },
    {
      "channel": 0,
      "note": 93,
      "start": 25.5106,
      "duration": 20.6757,
      "velocity": 111,
      "chip": "ym2612"
    }
  ]
}