{
  "track_name": "14 - The Island",
  "duration_sec": 53.559,
  "sample_rate": 44100,
  "note_count": 1637,
  "unique_pitches": 35,
  "pitch_range": 78,
  "avg_note_duration": 0.1276,
  "reconstruction_stats": {
    "notes_reconstructed": 1637,
    "keyon_events": 1637,
    "keyoff_events": 1633,
    "orphan_keyons": 4,
    "unique_pitches": 35,
    "pitch_range": 78,
    "avg_duration_sec": 0.1276
  },
  "metadata": {
    "source": "Q\\QuackShot\\14 - The Island.vgz"
  },
  "notes": [
    {
      "channel": 0,
      "note": 57,
      "start": 0.0145,
      "duration": 0.2449,
      "velocity": 98,
      "chip": "ym2612"
    },
    {
      "channel": 1,
      "note": 38,
      "start": 0.019,
      "duration": 0.1173,
      "velocity": 127,
      "chip": "ym2612"
    },
    {
      "channel": 3,
      "note": 69,
      "start": 0.024,
      "duration": 0.1131,
      "velocity": 127,
      "chip": "ym2612"
    },
    {
      "channel": 4,
      "note": 69,
      "start": 0.0284,
      "duration": 0.0886,
      "velocity": 90,
      "chip": "ym2612"
    },
    {
      "channel": 5,
      "note": 57,
      "start": 0.033,
      "duration": 0.0843,
      "velocity": 90,
      "chip": "ym2612"
    },
    {
      "channel": 1,
      "note": 38,
      "start": 0.1369,
      "duration": 0.1267,
      "velocity": 126,
      "chip": "ym2612"
    },
    {
      "channel": 3,
      "note": 69,
      "start": 0.1377,
      "duration": 0.1297,
      "velocity": 98,
      "chip": "ym2612"
    },
    {
      "channel": 0,
      "note": 81,
      "start": 0.26,
      "duration": 0.2343,
      "velocity": 98,
      "chip": "ym2612"
    },
    {
      "channel": 1,
      "note": 76,
      "start": 0.2642,
      "duration": 0.0114,
      "velocity": 126,
      "chip": "ym2612"
    },
    {
      "channel": 4,
      "note": 76,
      "start": 0.2683,
      "duration": 0.0871,
      "velocity": 90,
      "chip": "ym2612"
    },
    {
      "channel": 5,
      "note": 64,
      "start": 0.269,
      "duration": 0.0866,
      "velocity": 90,
      "chip": "ym2612"
    },
    {
      "channel": 1,
      "note": 76,
      "start": 0.3755,
      "duration": 0.0194,
      "velocity": 126,
      "chip": "ym2612"
    },
    {
      "channel": 1,
      "note": 76,
      "start": 0.495,
      "duration": 0.0191,
      "velocity": 126,
      "chip": "ym2612"
    },
    {
      "channel": 3,
      "note": 88,
      "start": 0.4967,
      "duration": 0.248,
      "velocity": 127,
      "chip": "ym2612"
    },
    {
      "channel": 4,
      "note": 74,
      "start": 0.4975,
      "duration": 0.0966,
      "velocity": 90,
      "chip": "ym2612"
    },
    {
      "channel": 5,
      "note": 62,
      "start": 0.4983,
      "duration": 0.0962,
      "velocity": 90,
      "chip": "ym2612"
    },
    {
      "channel": 0,
      "note": 57,
      "start": 0.7366,
      "duration": 0.2354,
      "velocity": 93,
      "chip": "ym2612"
    },
    {
      "channel": 1,
      "note": 38,
      "start": 0.7413,
      "duration": 0.1114,
      "velocity": 127,
      "chip": "ym2612"
    },
    {
      "channel": 3,
      "note": 69,
      "start": 0.7454,
      "duration": 0.108,
      "velocity": 127,
      "chip": "ym2612"
    },
    {
      "channel": 4,
      "note": 69,
      "start": 0.7461,
      "duration": 0.108,
      "velocity": 90,
      "chip": "ym2612"
    },
    {
      "channel": 5,
      "note": 57,
      "start": 0.7469,
      "duration": 0.108,
      "velocity": 90,
      "chip": "ym2612"
    },
    {
      "channel": 1,
      "note": 38,
      "start": 0.8532,
      "duration": 0.1228,
      "velocity": 126,
      "chip": "ym2612"
    },
    {
      "channel": 3,
      "note": 69,
      "start": 0.854,
      "duration": 0.1227,
      "velocity": 127,
      "chip": "ym2612"
    },
    {
      "channel": 4,
      "note": 76,
      "start": 0.8548,
      "duration": 0.098,
      "velocity": 90,
      "chip": "ym2612"
    },
    {
      "channel": 5,
      "note": 64,
      "start": 0.8555,
      "duration": 0.0976,
      "velocity": 90,
      "chip": "ym2612"
    },
    {
      "channel": 1,
      "note": 76,
      "start": 0.9766,
      "duration": 0.0152,
      "velocity": 126,
      "chip": "ym2612"
    },
    {
      "channel": 1,
      "note": 76,
      "start": 1.0918,
      "duration": 0.0194,
      "velocity": 126,
      "chip": "ym2612"
    },
    {
      "channel": 4,
      "note": 76,
      "start": 1.0924,
      "duration": 0.1188,
      "velocity": 90,
      "chip": "ym2612"
    },
    {
      "channel": 5,
      "note": 64,
      "start": 1.093,
      "duration": 0.119,
      "velocity": 90,
      "chip": "ym2612"
    },
    {
      "channel": 1,
      "note": 76,
      "start": 1.211,
      "duration": 0.0195,
      "velocity": 126,
      "chip": "ym2612"
    },
    {
      "channel": 4,
      "note": 74,
      "start": 1.2118,
      "duration": 0.1191,
      "velocity": 90,
      "chip": "ym2612"
    },
    {
      "channel": 5,
      "note": 62,
      "start": 1.2126,
      "duration": 0.1191,
      "velocity": 90,
      "chip": "ym2612"
    },
    {
      "channel": 4,
      "note": 69,
      "start": 1.3315,
      "duration": 0.1227,
      "velocity": 90,
      "chip": "ym2612"
    },
    {
      "channel": 5,
      "note": 57,
      "start": 1.3322,
      "duration": 0.1236,
      "velocity": 90,
      "chip": "ym2612"
    },
    {
      "channel": 3,
      "note": 48,
      "start": 1.4541,
      "duration": 0.075,
      "velocity": 127,
      "chip": "ym2612"
    },
    {
      "channel": 4,
      "note": 72,
      "start": 1.4548,
      "duration": 0.1144,
      "velocity": 90,
      "chip": "ym2612"
    },
    {
      "channel": 5,
      "note": 60,
      "start": 1.4564,
      "duration": 0.1135,
      "velocity": 90,
      "chip": "ym2612"
    },
    {
      "channel": 3,
      "note": 43,
      "start": 1.5297,
      "duration": 0.079,
      "velocity": 127,
      "chip": "ym2612"
    },
    {
      "channel": 4,
      "note": 72,
      "start": 1.5698,
      "duration": 0.1205,
      "velocity": 90,
      "chip": "ym2612"
    },
    {
      "channel": 5,
      "note": 60,
      "start": 1.5705,
      "duration": 0.1206,
      "velocity": 90,
      "chip": "ym2612"
    },
    {
      "channel": 3,
      "note": 48,
      "start": 1.6093,
      "duration": 0.0803,
      "velocity": 127,
      "chip": "ym2612"
    },
    {
      "channel": 1,
      "note": 76,
      "start": 1.6895,
      "duration": 0.0189,
      "velocity": 126,
      "chip": "ym2612"
    },
    {
      "channel": 3,
      "note": 38,
      "start": 1.6902,
      "duration": 0.1182,
      "velocity": 127,
      "chip": "ym2612"
    },
    {
      "channel": 4,
      "note": 69,
      "start": 1.691,
      "duration": 0.0972,
      "velocity": 90,
      "chip": "ym2612"
    },
    {
      "channel": 5,
      "note": 57,
      "start": 1.692,
      "duration": 0.0965,
      "velocity": 90,
      "chip": "ym2612"
    },
    {
      "channel": 1,
      "note": 76,
      "start": 1.808,
      "duration": 0.0195,
      "velocity": 126,
      "chip": "ym2612"
    },
    {
      "channel": 3,
      "note": 38,
      "start": 1.809,
      "duration": 0.1308,
      "velocity": 127,
      "chip": "ym2612"
    },
    {
      "channel": 0,
      "note": 57,
      "start": 1.9314,
      "duration": 0.2381,
      "velocity": 98,
      "chip": "ym2612"
    },
    {
      "channel": 1,
      "note": 38,
      "start": 1.9358,
      "duration": 0.1109,
      "velocity": 127,
      "chip": "ym2612"
    },
    {
      "channel": 3,
      "note": 69,
      "start": 1.9404,
      "duration": 0.107,
      "velocity": 127,
      "chip": "ym2612"
    },
    {
      "channel": 4,
      "note": 69,
      "start": 1.9422,
      "duration": 0.0851,
      "velocity": 90,
      "chip": "ym2612"
    },
    {
      "channel": 5,
      "note": 57,
      "start": 1.9439,
      "duration": 0.0838,
      "velocity": 90,
      "chip": "ym2612"
    },
    {
      "channel": 1,
      "note": 38,
      "start": 2.0472,
      "duration": 0.1265,
      "velocity": 126,
      "chip": "ym2612"
    },
    {
      "channel": 3,
      "note": 69,
      "start": 2.048,
      "duration": 0.1306,
      "velocity": 98,
      "chip": "ym2612"
    },
    {
      "channel": 0,
      "note": 81,
      "start": 2.1701,
      "duration": 0.2346,
      "velocity": 98,
      "chip": "ym2612"
    },
    {
      "channel": 1,
      "note": 76,
      "start": 2.1744,
      "duration": 0.0117,
      "velocity": 126,
      "chip": "ym2612"
    },
    {
      "channel": 3,
      "note": 88,
      "start": 2.1793,
      "duration": 0.2264,
      "velocity": 98,
      "chip": "ym2612"
    },
    {
      "channel": 4,
      "note": 76,
      "start": 2.18,
      "duration": 0.0859,
      "velocity": 90,
      "chip": "ym2612"
    },
    {
      "channel": 5,
      "note": 64,
      "start": 2.1808,
      "duration": 0.0854,
      "velocity": 90,
      "chip": "ym2612"
    },
    {
      "channel": 1,
      "note": 76,
      "start": 2.2859,
      "duration": 0.0194,
      "velocity": 126,
      "chip": "ym2612"
    },
    {
      "channel": 1,
      "note": 76,
      "start": 2.4054,
      "duration": 0.0191,
      "velocity": 126,
      "chip": "ym2612"
    },
    {
      "channel": 4,
      "note": 74,
      "start": 2.4066,
      "duration": 0.0976,
      "velocity": 90,
      "chip": "ym2612"
    },
    {
      "channel": 5,
      "note": 62,
      "start": 2.4073,
      "duration": 0.0971,
      "velocity": 90,
      "chip": "ym2612"
    },
    {
      "channel": 0,
      "note": 57,
      "start": 2.6469,
      "duration": 0.2392,
      "velocity": 98,
      "chip": "ym2612"
    },
    {
      "channel": 1,
      "note": 38,
      "start": 2.6514,
      "duration": 0.1117,
      "velocity": 127,
      "chip": "ym2612"
    },
    {
      "channel": 3,
      "note": 69,
      "start": 2.6553,
      "duration": 0.1085,
      "velocity": 127,
      "chip": "ym2612"
    },
    {
      "channel": 4,
      "note": 69,
      "start": 2.6561,
      "duration": 0.1085,
      "velocity": 90,
      "chip": "ym2612"
    },
    {
      "channel": 5,
      "note": 57,
      "start": 2.6569,
      "duration": 0.1085,
      "velocity": 90,
      "chip": "ym2612"
    },
    {
      "channel": 1,
      "note": 38,
      "start": 2.7637,
      "duration": 0.1267,
      "velocity": 126,
      "chip": "ym2612"
    },
    {
      "channel": 3,
      "note": 69,
      "start": 2.7644,
      "duration": 0.1308,
      "velocity": 98,
      "chip": "ym2612"
    },
    {
      "channel": 4,
      "note": 76,
      "start": 2.7652,
      "duration": 0.098,
      "velocity": 90,
      "chip": "ym2612"
    },
    {
      "channel": 5,
      "note": 64,
      "start": 2.766,
      "duration": 0.0975,
      "velocity": 90,
      "chip": "ym2612"
    },
    {
      "channel": 0,
      "note": 81,
      "start": 2.8867,
      "duration": 0.2373,
      "velocity": 93,
      "chip": "ym2612"
    },
    {
      "channel": 1,
      "note": 76,
      "start": 2.891,
      "duration": 0.0114,
      "velocity": 126,
      "chip": "ym2612"
    },
    {
      "channel": 3,
      "note": 88,
      "start": 2.8959,
      "duration": 0.2296,
      "velocity": 98,
      "chip": "ym2612"
    },
    {
      "channel": 1,
      "note": 76,
      "start": 3.0026,
      "duration": 0.0192,
      "velocity": 126,
      "chip": "ym2612"
    },
    {
      "channel": 4,
      "note": 76,
      "start": 3.0035,
      "duration": 0.1222,
      "velocity": 90,
      "chip": "ym2612"
    },
    {
      "channel": 5,
      "note": 64,
      "start": 3.0041,
      "duration": 0.1226,
      "velocity": 90,
      "chip": "ym2612"
    },
    {
      "channel": 0,
      "note": 55,
      "start": 3.1246,
      "duration": 0.1157,
      "velocity": 93,
      "chip": "ym2612"
    },
    {
      "channel": 1,
      "note": 76,
      "start": 3.1252,
      "duration": 0.016,
      "velocity": 126,
      "chip": "ym2612"
    },
    {
      "channel": 4,
      "note": 74,
      "start": 3.1263,
      "duration": 0.1153,
      "velocity": 90,
      "chip": "ym2612"
    },
    {
      "channel": 5,
      "note": 62,
      "start": 3.1273,
      "duration": 0.1149,
      "velocity": 90,
      "chip": "ym2612"
    },
    {
      "channel": 0,
      "note": 57,
      "start": 3.2409,
      "duration": 0.1198,
      "velocity": 93,
      "chip": "ym2612"
    },
    {
      "channel": 4,
      "note": 74,
      "start": 3.2421,
      "duration": 0.1237,
      "velocity": 90,
      "chip": "ym2612"
    },
    {
      "channel": 5,
      "note": 57,
      "start": 3.2428,
      "duration": 0.1241,
      "velocity": 90,
      "chip": "ym2612"
    },
    {
      "channel": 0,
      "note": 60,
      "start": 3.3612,
      "duration": 0.1185,
      "velocity": 93,
      "chip": "ym2612"
    },
    {
      "channel": 1,
      "note": 94,
      "start": 3.3656,
      "duration": 0.0548,
      "velocity": 126,
      "chip": "ym2612"
    },
    {
      "channel": 4,
      "note": 67,
      "start": 3.3664,
      "duration": 0.0736,
      "velocity": 90,
      "chip": "ym2612"
    },
    {
      "channel": 5,
      "note": 59,
      "start": 3.3675,
      "duration": 0.0733,
      "velocity": 90,
      "chip": "ym2612"
    },
    {
      "channel": 1,
      "note": 94,
      "start": 3.421,
      "duration": 0.0602,
      "velocity": 126,
      "chip": "ym2612"
    },
    {
      "channel": 4,
      "note": 79,
      "start": 3.4406,
      "duration": 0.079,
      "velocity": 90,
      "chip": "ym2612"
    },
    {
      "channel": 5,
      "note": 71,
      "start": 3.4414,
      "duration": 0.079,
      "velocity": 90,
      "chip": "ym2612"
    },
    {
      "channel": 0,
      "note": 62,
      "start": 3.4804,
      "duration": 0.1182,
      "velocity": 93,
      "chip": "ym2612"
    },
    {
      "channel": 1,
      "note": 94,
      "start": 3.4818,
      "duration": 0.058,
      "velocity": 126,
      "chip": "ym2612"
    },
    {
      "channel": 4,
      "note": 67,
      "start": 3.5202,
      "duration": 0.0841,
      "velocity": 90,
      "chip": "ym2612"
    },
    {
      "channel": 5,
      "note": 59,
      "start": 3.521,
      "duration": 0.0841,
      "velocity": 90,
      "chip": "ym2612"
    },
    {
      "channel": 1,
      "note": 94,
      "start": 3.5404,
      "duration": 0.0595,
      "velocity": 126,
      "chip": "ym2612"
    },
    {
      "channel": 0,
      "note": 64,
      "start": 3.5991,
      "duration": 0.1188,
      "velocity": 93,
      "chip": "ym2612"
    },
    {
      "channel": 1,
      "note": 94,
      "start": 3.6005,
      "duration": 0.0586,
      "velocity": 126,
      "chip": "ym2612"
    },
    {
      "channel": 3,
      "note": 76,
      "start": 3.6042,
      "duration": 0.1159,
      "velocity": 67,
      "chip": "ym2612"
    },
    {
      "channel": 4,
      "note": 79,
      "start": 3.6049,
      "duration": 0.0742,
      "velocity": 90,
      "chip": "ym2612"
    },
    {
      "channel": 5,
      "note": 71,
      "start": 3.6057,
      "duration": 0.0742,
      "velocity": 90,
      "chip": "ym2612"
    },
    {
      "channel": 1,
      "note": 94,
      "start": 3.6598,
      "duration": 0.0595,
      "velocity": 126,
      "chip": "ym2612"
    },
    {
      "channel": 4,
      "note": 91,
      "start": 3.6797,
      "duration": 0.0789,
      "velocity": 90,
      "chip": "ym2612"
    },
    {
      "channel": 5,
      "note": 83,
      "start": 3.6805,
      "duration": 0.0789,
      "velocity": 90,
      "chip": "ym2612"
    },
    {
      "channel": 0,
      "note": 67,
      "start": 3.7185,
      "duration": 0.1201,
      "velocity": 93,
      "chip": "ym2612"
    },
    {
      "channel": 1,
      "note": 94,
      "start": 3.7199,
      "duration": 0.0584,
      "velocity": 126,
      "chip": "ym2612"
    },
    {
      "channel": 3,
      "note": 79,
      "start": 3.7207,
      "duration": 0.1263,
      "velocity": 67,
      "chip": "ym2612"
    },
    {
      "channel": 4,
      "note": 103,
      "start": 3.7593,
      "duration": 0.0922,
      "velocity": 90,
      "chip": "ym2612"
    },
    {
      "channel": 5,
      "note": 95,
      "start": 3.76,
      "duration": 0.0951,
      "velocity": 67,
      "chip": "ym2612"
    },
    {
      "channel": 1,
      "note": 94,
      "start": 3.7789,
      "duration": 0.0642,
      "velocity": 105,
      "chip": "ym2612"
    },
    {
      "channel": 0,
      "note": 57,
      "start": 3.8392,
      "duration": 0.2476,
      "velocity": 93,
      "chip": "ym2612"
    },
    {
      "channel": 1,
      "note": 39,
      "start": 3.8437,
      "duration": 0.2444,
      "velocity": 105,
      "chip": "ym2612"
    },
    {
      "channel": 3,
      "note": 81,
      "start": 3.8476,
      "duration": 0.1197,
      "velocity": 67,
      "chip": "ym2612"
    },
    {
      "channel": 4,
      "note": 69,
      "start": 3.8521,
      "duration": 0.0957,
      "velocity": 90,
      "chip": "ym2612"
    },
    {
      "channel": 5,
      "note": 84,
      "start": 3.8558,
      "duration": 0.1119,
      "velocity": 67,
      "chip": "ym2612"
    },
    {
      "channel": 0,
      "note": 57,
      "start": 4.0871,
      "duration": 0.119,
      "velocity": 93,
      "chip": "ym2612"
    },
    {
      "channel": 1,
      "note": 39,
      "start": 4.0885,
      "duration": 0.1192,
      "velocity": 105,
      "chip": "ym2612"
    },
    {
      "channel": 4,
      "note": 76,
      "start": 4.0893,
      "duration": 0.0969,
      "velocity": 90,
      "chip": "ym2612"
    },
    {
      "channel": 0,
      "note": 67,
      "start": 4.2067,
      "duration": 0.1586,
      "velocity": 93,
      "chip": "ym2612"
    },
    {
      "channel": 1,
      "note": 39,
      "start": 4.2081,
      "duration": 0.2375,
      "velocity": 105,
      "chip": "ym2612"
    },
    {
      "channel": 3,
      "note": 88,
      "start": 4.2095,
      "duration": 0.6035,
      "velocity": 98,
      "chip": "ym2612"
    },
    {
      "channel": 5,
      "note": 79,
      "start": 4.2104,
      "duration": 0.6074,
      "velocity": 98,
      "chip": "ym2612"
    },
    {
      "channel": 4,
      "note": 74,
      "start": 4.3265,
      "duration": 0.0989,
      "velocity": 90,
      "chip": "ym2612"
    },
    {
      "channel": 0,
      "note": 57,
      "start": 4.3659,
      "duration": 0.0983,
      "velocity": 93,
      "chip": "ym2612"
    },
    {
      "channel": 1,
      "note": 39,
      "start": 4.446,
      "duration": 0.1227,
      "velocity": 126,
      "chip": "ym2612"
    },
    {
      "channel": 0,
      "note": 57,
      "start": 4.4648,
      "duration": 0.0997,
      "velocity": 93,
      "chip": "ym2612"
    },
    {
      "channel": 0,
      "note": 62,
      "start": 4.5651,
      "duration": 0.2383,
      "velocity": 93,
      "chip": "ym2612"
    },
    {
      "channel": 1,
      "note": 76,
      "start": 4.5693,
      "duration": 0.0146,
      "velocity": 126,
      "chip": "ym2612"
    },
    {
      "channel": 4,
      "note": 69,
      "start": 4.5704,
      "duration": 0.1149,
      "velocity": 90,
      "chip": "ym2612"
    },
    {
      "channel": 1,
      "note": 76,
      "start": 4.6849,
      "duration": 0.0184,
      "velocity": 126,
      "chip": "ym2612"
    },
    {
      "channel": 4,
      "note": 76,
      "start": 4.6859,
      "duration": 0.0974,
      "velocity": 90,
      "chip": "ym2612"
    },
    {
      "channel": 0,
      "note": 57,
      "start": 4.804,
      "duration": 0.238,
      "velocity": 93,
      "chip": "ym2612"
    },
    {
      "channel": 1,
      "note": 39,
      "start": 4.8088,
      "duration": 0.2346,
      "velocity": 105,
      "chip": "ym2612"
    },
    {
      "channel": 3,
      "note": 88,
      "start": 4.8137,
      "duration": 0.2303,
      "velocity": 98,
      "chip": "ym2612"
    },
    {
      "channel": 5,
      "note": 89,
      "start": 4.8184,
      "duration": 0.2268,
      "velocity": 98,
      "chip": "ym2612"
    },
    {
      "channel": 4,
      "note": 76,
      "start": 4.9232,
      "duration": 0.1211,
      "velocity": 90,
      "chip": "ym2612"
    },
    {
      "channel": 0,
      "note": 57,
      "start": 5.0424,
      "duration": 0.119,
      "velocity": 93,
      "chip": "ym2612"
    },
    {
      "channel": 1,
      "note": 39,
      "start": 5.0437,
      "duration": 0.1194,
      "velocity": 105,
      "chip": "ym2612"
    },
    {
      "channel": 4,
      "note": 74,
      "start": 5.0449,
      "duration": 0.1206,
      "velocity": 90,
      "chip": "ym2612"
    },
    {
      "channel": 0,
      "note": 67,
      "start": 5.162,
      "duration": 0.1585,
      "velocity": 93,
      "chip": "ym2612"
    },
    {
      "channel": 1,
      "note": 39,
      "start": 5.1636,
      "duration": 0.2369,
      "velocity": 105,
      "chip": "ym2612"
    },
    {
      "channel": 3,
      "note": 88,
      "start": 5.1653,
      "duration": 0.2359,
      "velocity": 98,
      "chip": "ym2612"
    },
    {
      "channel": 4,
      "note": 69,
      "start": 5.1661,
      "duration": 0.095,
      "velocity": 90,
      "chip": "ym2612"
    },
    {
      "channel": 5,
      "note": 89,
      "start": 5.1678,
      "duration": 0.2345,
      "velocity": 98,
      "chip": "ym2612"
    },
    {
      "channel": 4,
      "note": 83,
      "start": 5.2618,
      "duration": 0.0392,
      "velocity": 90,
      "chip": "ym2612"
    },
    {
      "channel": 4,
      "note": 84,
      "start": 5.3016,
      "duration": 0.0999,
      "velocity": 90,
      "chip": "ym2612"
    },
    {
      "channel": 0,
      "note": 57,
      "start": 5.3211,
      "duration": 0.0983,
      "velocity": 93,
      "chip": "ym2612"
    },
    {
      "channel": 1,
      "note": 39,
      "start": 5.4009,
      "duration": 0.1228,
      "velocity": 126,
      "chip": "ym2612"
    },
    {
      "channel": 4,
      "note": 84,
      "start": 5.4021,
      "duration": 0.1267,
      "velocity": 90,
      "chip": "ym2612"
    },
    {
      "channel": 0,
      "note": 57,
      "start": 5.4199,
      "duration": 0.0996,
      "velocity": 93,
      "chip": "ym2612"
    },
    {
      "channel": 0,
      "note": 62,
      "start": 5.5201,
      "duration": 0.2387,
      "velocity": 93,
      "chip": "ym2612"
    },
    {
      "channel": 1,
      "note": 76,
      "start": 5.5243,
      "duration": 0.0147,
      "velocity": 126,
      "chip": "ym2612"
    },
    {
      "channel": 3,
      "note": 86,
      "start": 5.5286,
      "duration": 0.1116,
      "velocity": 67,
      "chip": "ym2612"
    },
    {
      "channel": 4,
      "note": 103,
      "start": 5.5294,
      "duration": 0.0896,
      "velocity": 90,
      "chip": "ym2612"
    },
    {
      "channel": 5,
      "note": 77,
      "start": 5.5334,
      "duration": 0.1076,
      "velocity": 67,
      "chip": "ym2612"
    },
    {
      "channel": 1,
      "note": 76,
      "start": 5.6401,
      "duration": 0.0184,
      "velocity": 126,
      "chip": "ym2612"
    },
    {
      "channel": 3,
      "note": 88,
      "start": 5.6408,
      "duration": 0.1244,
      "velocity": 67,
      "chip": "ym2612"
    },
    {
      "channel": 5,
      "note": 79,
      "start": 5.6417,
      "duration": 0.1259,
      "velocity": 67,
      "chip": "ym2612"
    },
    {
      "channel": 0,
      "note": 57,
      "start": 5.7594,
      "duration": 0.2379,
      "velocity": 93,
      "chip": "ym2612"
    },
    {
      "channel": 1,
      "note": 39,
      "start": 5.7644,
      "duration": 0.2342,
      "velocity": 105,
      "chip": "ym2612"
    },
    {
      "channel": 3,
      "note": 89,
      "start": 5.7659,
      "duration": 0.1118,
      "velocity": 67,
      "chip": "ym2612"
    },
    {
      "channel": 4,
      "note": 69,
      "start": 5.7674,
      "duration": 0.0907,
      "velocity": 90,
      "chip": "ym2612"
    },
    {
      "channel": 5,
      "note": 81,
      "start": 5.7682,
      "duration": 0.1103,
      "velocity": 67,
      "chip": "ym2612"
    },
    {
      "channel": 3,
      "note": 89,
      "start": 5.8783,
      "duration": 0.0988,
      "velocity": 67,
      "chip": "ym2612"
    },
    {
      "channel": 5,
      "note": 81,
      "start": 5.8792,
      "duration": 0.0984,
      "velocity": 67,
      "chip": "ym2612"
    },
    {
      "channel": 0,
      "note": 57,
      "start": 5.9978,
      "duration": 0.1187,
      "velocity": 93,
      "chip": "ym2612"
    },
    {
      "channel": 1,
      "note": 39,
      "start": 5.9991,
      "duration": 0.1189,
      "velocity": 105,
      "chip": "ym2612"
    },
    {
      "channel": 4,
      "note": 76,
      "start": 5.9999,
      "duration": 0.0967,
      "velocity": 90,
      "chip": "ym2612"
    },
    {
      "channel": 0,
      "note": 67,
      "start": 6.1171,
      "duration": 0.1586,
      "velocity": 93,
      "chip": "ym2612"
    },
    {
      "channel": 1,
      "note": 39,
      "start": 6.1184,
      "duration": 0.2373,
      "velocity": 105,
      "chip": "ym2612"
    },
    {
      "channel": 3,
      "note": 89,
      "start": 6.119,
      "duration": 0.097,
      "velocity": 67,
      "chip": "ym2612"
    },
    {
      "channel": 5,
      "note": 81,
      "start": 6.1196,
      "duration": 0.0967,
      "velocity": 67,
      "chip": "ym2612"
    },
    {
      "channel": 4,
      "note": 74,
      "start": 6.2366,
      "duration": 0.0989,
      "velocity": 90,
      "chip": "ym2612"
    },
    {
      "channel": 0,
      "note": 57,
      "start": 6.2763,
      "duration": 0.0982,
      "velocity": 93,
      "chip": "ym2612"
    },
    {
      "channel": 1,
      "note": 39,
      "start": 6.3562,
      "duration": 0.1227,
      "velocity": 126,
      "chip": "ym2612"
    },
    {
      "channel": 3,
      "note": 89,
      "start": 6.3568,
      "duration": 0.1229,
      "velocity": 67,
      "chip": "ym2612"
    },
    {
      "channel": 5,
      "note": 81,
      "start": 6.3574,
      "duration": 0.124,
      "velocity": 67,
      "chip": "ym2612"
    },
    {
      "channel": 0,
      "note": 57,
      "start": 6.3751,
      "duration": 0.0995,
      "velocity": 93,
      "chip": "ym2612"
    },
    {
      "channel": 0,
      "note": 62,
      "start": 6.4752,
      "duration": 0.2384,
      "velocity": 93,
      "chip": "ym2612"
    },
    {
      "channel": 1,
      "note": 76,
      "start": 6.4795,
      "duration": 0.0147,
      "velocity": 126,
      "chip": "ym2612"
    },
    {
      "channel": 3,
      "note": 88,
      "start": 6.4802,
      "duration": 0.0937,
      "velocity": 67,
      "chip": "ym2612"
    },
    {
      "channel": 4,
      "note": 69,
      "start": 6.4813,
      "duration": 0.1142,
      "velocity": 90,
      "chip": "ym2612"
    },
    {
      "channel": 5,
      "note": 79,
      "start": 6.482,
      "duration": 0.0925,
      "velocity": 67,
      "chip": "ym2612"
    },
    {
      "channel": 1,
      "note": 76,
      "start": 6.5953,
      "duration": 0.0184,
      "velocity": 126,
      "chip": "ym2612"
    },
    {
      "channel": 4,
      "note": 76,
      "start": 6.5961,
      "duration": 0.0973,
      "velocity": 90,
      "chip": "ym2612"
    },
    {
      "channel": 0,
      "note": 57,
      "start": 6.7143,
      "duration": 0.238,
      "velocity": 93,
      "chip": "ym2612"
    },
    {
      "channel": 1,
      "note": 39,
      "start": 6.7193,
      "duration": 0.2344,
      "velocity": 105,
      "chip": "ym2612"
    },
    {
      "channel": 3,
      "note": 86,
      "start": 6.7201,
      "duration": 0.0929,
      "velocity": 67,
      "chip": "ym2612"
    },
    {
      "channel": 5,
      "note": 77,
      "start": 6.7209,
      "duration": 0.0924,
      "velocity": 67,
      "chip": "ym2612"
    },
    {
      "channel": 4,
      "note": 76,
      "start": 6.8333,
      "duration": 0.1217,
      "velocity": 90,
      "chip": "ym2612"
    },
    {
      "channel": 0,
      "note": 57,
      "start": 6.9527,
      "duration": 0.1189,
      "velocity": 93,
      "chip": "ym2612"
    },
    {
      "channel": 1,
      "note": 39,
      "start": 6.9541,
      "duration": 0.1191,
      "velocity": 105,
      "chip": "ym2612"
    },
    {
      "channel": 3,
      "note": 88,
      "start": 6.9549,
      "duration": 0.0969,
      "velocity": 67,
      "chip": "ym2612"
    },
    {
      "channel": 4,
      "note": 74,
      "start": 6.9556,
      "duration": 0.1183,
      "velocity": 90,
      "chip": "ym2612"
    },
    {
      "channel": 5,
      "note": 79,
      "start": 6.9564,
      "duration": 0.096,
      "velocity": 67,
      "chip": "ym2612"
    },
    {
      "channel": 0,
      "note": 69,
      "start": 7.0722,
      "duration": 0.1587,
      "velocity": 93,
      "chip": "ym2612"
    },
    {
      "channel": 1,
      "note": 39,
      "start": 7.0736,
      "duration": 0.2374,
      "velocity": 105,
      "chip": "ym2612"
    },
    {
      "channel": 4,
      "note": 76,
      "start": 7.0745,
      "duration": 0.1175,
      "velocity": 90,
      "chip": "ym2612"
    },
    {
      "channel": 3,
      "note": 86,
      "start": 7.1917,
      "duration": 0.079,
      "velocity": 67,
      "chip": "ym2612"
    },
    {
      "channel": 4,
      "note": 79,
      "start": 7.1926,
      "duration": 0.0588,
      "velocity": 90,
      "chip": "ym2612"
    },
    {
      "channel": 5,
      "note": 77,
      "start": 7.1934,
      "duration": 0.0784,
      "velocity": 67,
      "chip": "ym2612"
    },
    {
      "channel": 0,
      "note": 57,
      "start": 7.2315,
      "duration": 0.0982,
      "velocity": 93,
      "chip": "ym2612"
    },
    {
      "channel": 4,
      "note": 91,
      "start": 7.2521,
      "duration": 0.0599,
      "velocity": 90,
      "chip": "ym2612"
    },
    {
      "channel": 3,
      "note": 88,
      "start": 7.2713,
      "duration": 0.079,
      "velocity": 67,
      "chip": "ym2612"
    },
    {
      "channel": 5,
      "note": 79,
      "start": 7.2724,
      "duration": 0.079,
      "velocity": 67,
      "chip": "ym2612"
    },
    {
      "channel": 1,
      "note": 39,
      "start": 7.3114,
      "duration": 0.123,
      "velocity": 126,
      "chip": "ym2612"
    },
    {
      "channel": 4,
      "note": 76,
      "start": 7.3126,
      "duration": 0.058,
      "velocity": 90,
      "chip": "ym2612"
    },
    {
      "channel": 0,
      "note": 57,
      "start": 7.3303,
      "duration": 0.0996,
      "velocity": 93,
      "chip": "ym2612"
    },
    {
      "channel": 3,
      "note": 86,
      "start": 7.3509,
      "duration": 0.0842,
      "velocity": 67,
      "chip": "ym2612"
    },
    {
      "channel": 5,
      "note": 77,
      "start": 7.352,
      "duration": 0.0848,
      "velocity": 67,
      "chip": "ym2612"
    },
    {
      "channel": 4,
      "note": 88,
      "start": 7.3713,
      "duration": 0.0648,
      "velocity": 90,
      "chip": "ym2612"
    },
    {
      "channel": 0,
      "note": 62,
      "start": 7.4305,
      "duration": 0.2385,
      "velocity": 93,
      "chip": "ym2612"
    },
    {
      "channel": 1,
      "note": 76,
      "start": 7.435,
      "duration": 0.0148,
      "velocity": 126,
      "chip": "ym2612"
    },
    {
      "channel": 3,
      "note": 84,
      "start": 7.4358,
      "duration": 0.1151,
      "velocity": 67,
      "chip": "ym2612"
    },
    {
      "channel": 4,
      "note": 79,
      "start": 7.4367,
      "duration": 0.0531,
      "velocity": 90,
      "chip": "ym2612"
    },
    {
      "channel": 5,
      "note": 76,
      "start": 7.4374,
      "duration": 0.1151,
      "velocity": 67,
      "chip": "ym2612"
    },
    {
      "channel": 4,
      "note": 91,
      "start": 7.4904,
      "duration": 0.0614,
      "velocity": 90,
      "chip": "ym2612"
    },
    {
      "channel": 1,
      "note": 76,
      "start": 7.5507,
      "duration": 0.0181,
      "velocity": 126,
      "chip": "ym2612"
    },
    {
      "channel": 3,
      "note": 83,
      "start": 7.5515,
      "duration": 0.1231,
      "velocity": 67,
      "chip": "ym2612"
    },
    {
      "channel": 4,
      "note": 81,
      "start": 7.5524,
      "duration": 0.0567,
      "velocity": 90,
      "chip": "ym2612"
    },
    {
      "channel": 5,
      "note": 74,
      "start": 7.5532,
      "duration": 0.1239,
      "velocity": 67,
      "chip": "ym2612"
    },
    {
      "channel": 4,
      "note": 93,
      "start": 7.6098,
      "duration": 0.0665,
      "velocity": 90,
      "chip": "ym2612"
    },
    {
      "channel": 0,
      "note": 57,
      "start": 7.6696,
      "duration": 0.2378,
      "velocity": 93,
      "chip": "ym2612"
    },
    {
      "channel": 1,
      "note": 39,
      "start": 7.6744,
      "duration": 0.2344,
      "velocity": 105,
      "chip": "ym2612"
    },
    {
      "channel": 3,
      "note": 81,
      "start": 7.6752,
      "duration": 0.1128,
      "velocity": 67,
      "chip": "ym2612"
    },
    {
      "channel": 4,
      "note": 69,
      "start": 7.6768,
      "duration": 0.0917,
      "velocity": 90,
      "chip": "ym2612"
    },
    {
      "channel": 5,
      "note": 72,
      "start": 7.6776,
      "duration": 0.1112,
      "velocity": 67,
      "chip": "ym2612"
    },
    {
      "channel": 3,
      "note": 81,
      "start": 7.7886,
      "duration": 0.1214,
      "velocity": 67,
      "chip": "ym2612"
    },
    {
      "channel": 5,
      "note": 72,
      "start": 7.7894,
      "duration": 0.1228,
      "velocity": 67,
      "chip": "ym2612"
    },
    {
      "channel": 0,
      "note": 57,
      "start": 7.9078,
      "duration": 0.119,
      "velocity": 93,
      "chip": "ym2612"
    },
    {
      "channel": 1,
      "note": 39,
      "start": 7.9092,
      "duration": 0.1192,
      "velocity": 105,
      "chip": "ym2612"
    },
    {
      "channel": 3,
      "note": 76,
      "start": 7.9106,
      "duration": 0.119,
      "velocity": 67,
      "chip": "ym2612"
    },
    {
      "channel": 4,
      "note": 76,
      "start": 7.9114,
      "duration": 0.0959,
      "velocity": 90,
      "chip": "ym2612"
    },
    {
      "channel": 5,
      "note": 67,
      "start": 7.9128,
      "duration": 0.1183,
      "velocity": 67,
      "chip": "ym2612"
    },
    {
      "channel": 0,
      "note": 67,
      "start": 8.0274,
      "duration": 0.1587,
      "velocity": 93,
      "chip": "ym2612"
    },
    {
      "channel": 1,
      "note": 39,
      "start": 8.0288,
      "duration": 0.2373,
      "velocity": 105,
      "chip": "ym2612"
    },
    {
      "channel": 3,
      "note": 81,
      "start": 8.0302,
      "duration": 0.116,
      "velocity": 67,
      "chip": "ym2612"
    },
    {
      "channel": 5,
      "note": 72,
      "start": 8.0317,
      "duration": 0.116,
      "velocity": 67,
      "chip": "ym2612"
    },
    {
      "channel": 3,
      "note": 81,
      "start": 8.1468,
      "duration": 0.1201,
      "velocity": 67,
      "chip": "ym2612"
    },
    {
      "channel": 4,
      "note": 74,
      "start": 8.1476,
      "duration": 0.0984,
      "velocity": 90,
      "chip": "ym2612"
    },
    {
      "channel": 5,
      "note": 72,
      "start": 8.1484,
      "duration": 0.1194,
      "velocity": 67,
      "chip": "ym2612"
    },
    {
      "channel": 0,
      "note": 57,
      "start": 8.1867,
      "duration": 0.0982,
      "velocity": 93,
      "chip": "ym2612"
    },
    {
      "channel": 1,
      "note": 39,
      "start": 8.2667,
      "duration": 0.1225,
      "velocity": 126,
      "chip": "ym2612"
    },
    {
      "channel": 3,
      "note": 79,
      "start": 8.2675,
      "duration": 0.1225,
      "velocity": 67,
      "chip": "ym2612"
    },
    {
      "channel": 5,
      "note": 71,
      "start": 8.2683,
      "duration": 0.1232,
      "velocity": 67,
      "chip": "ym2612"
    },
    {
      "channel": 0,
      "note": 57,
      "start": 8.2855,
      "duration": 0.0995,
      "velocity": 93,
      "chip": "ym2612"
    },
    {
      "channel": 0,
      "note": 62,
      "start": 8.3856,
      "duration": 0.2385,
      "velocity": 93,
      "chip": "ym2612"
    },
    {
      "channel": 1,
      "note": 76,
      "start": 8.3899,
      "duration": 0.0147,
      "velocity": 126,
      "chip": "ym2612"
    },
    {
      "channel": 3,
      "note": 76,
      "start": 8.3906,
      "duration": 0.2391,
      "velocity": 67,
      "chip": "ym2612"
    },
    {
      "channel": 4,
      "note": 69,
      "start": 8.3914,
      "duration": 0.1146,
      "velocity": 90,
      "chip": "ym2612"
    },
    {
      "channel": 5,
      "note": 67,
      "start": 8.3922,
      "duration": 0.2384,
      "velocity": 67,
      "chip": "ym2612"
    },
    {
      "channel": 1,
      "note": 76,
      "start": 8.5056,
      "duration": 0.0185,
      "velocity": 126,
      "chip": "ym2612"
    },
    {
      "channel": 4,
      "note": 76,
      "start": 8.5066,
      "duration": 0.0973,
      "velocity": 90,
      "chip": "ym2612"
    },
    {
      "channel": 0,
      "note": 57,
      "start": 8.6248,
      "duration": 0.2379,
      "velocity": 93,
      "chip": "ym2612"
    },
    {
      "channel": 1,
      "note": 39,
      "start": 8.6295,
      "duration": 0.2345,
      "velocity": 105,
      "chip": "ym2612"
    },
    {
      "channel": 3,
      "note": 81,
      "start": 8.6303,
      "duration": 0.1136,
      "velocity": 67,
      "chip": "ym2612"
    },
    {
      "channel": 5,
      "note": 72,
      "start": 8.6312,
      "duration": 0.1148,
      "velocity": 67,
      "chip": "ym2612"
    },
    {
      "channel": 3,
      "note": 76,
      "start": 8.7446,
      "duration": 0.1207,
      "velocity": 67,
      "chip": "ym2612"
    },
    {
      "channel": 4,
      "note": 76,
      "start": 8.7451,
      "duration": 0.1209,
      "velocity": 90,
      "chip": "ym2612"
    },
    {
      "channel": 5,
      "note": 67,
      "start": 8.7466,
      "duration": 0.1212,
      "velocity": 67,
      "chip": "ym2612"
    },
    {
      "channel": 0,
      "note": 57,
      "start": 8.8631,
      "duration": 0.119,
      "velocity": 93,
      "chip": "ym2612"
    },
    {
      "channel": 1,
      "note": 39,
      "start": 8.8645,
      "duration": 0.1192,
      "velocity": 105,
      "chip": "ym2612"
    },
    {
      "channel": 3,
      "note": 83,
      "start": 8.8659,
      "duration": 0.1193,
      "velocity": 67,
      "chip": "ym2612"
    },
    {
      "channel": 4,
      "note": 74,
      "start": 8.8666,
      "duration": 0.1194,
      "velocity": 90,
      "chip": "ym2612"
    },
    {
      "channel": 5,
      "note": 74,
      "start": 8.8683,
      "duration": 0.1191,
      "velocity": 67,
      "chip": "ym2612"
    },
    {
      "channel": 0,
      "note": 67,
      "start": 8.9827,
      "duration": 0.1585,
      "velocity": 93,
      "chip": "ym2612"
    },
    {
      "channel": 1,
      "note": 39,
      "start": 8.9843,
      "duration": 0.237,
      "velocity": 105,
      "chip": "ym2612"
    },
    {
      "channel": 3,
      "note": 76,
      "start": 8.9858,
      "duration": 0.1166,
      "velocity": 67,
      "chip": "ym2612"
    },
    {
      "channel": 4,
      "note": 69,
      "start": 8.9866,
      "duration": 0.1165,
      "velocity": 90,
      "chip": "ym2612"
    },
    {
      "channel": 5,
      "note": 67,
      "start": 8.988,
      "duration": 0.1165,
      "velocity": 67,
      "chip": "ym2612"
    },
    {
      "channel": 3,
      "note": 84,
      "start": 9.103,
      "duration": 0.2422,
      "velocity": 67,
      "chip": "ym2612"
    },
    {
      "channel": 4,
      "note": 72,
      "start": 9.1037,
      "duration": 0.1185,
      "velocity": 90,
      "chip": "ym2612"
    },
    {
      "channel": 5,
      "note": 76,
      "start": 9.1052,
      "duration": 0.2417,
      "velocity": 67,
      "chip": "ym2612"
    },
    {
      "channel": 0,
      "note": 57,
      "start": 9.1418,
      "duration": 0.0983,
      "velocity": 93,
      "chip": "ym2612"
    },
    {
      "channel": 1,
      "note": 39,
      "start": 9.2217,
      "duration": 0.1227,
      "velocity": 126,
      "chip": "ym2612"
    },
    {
      "channel": 4,
      "note": 72,
      "start": 9.2228,
      "duration": 0.1233,
      "velocity": 90,
      "chip": "ym2612"
    },
    {
      "channel": 0,
      "note": 57,
      "start": 9.2407,
      "duration": 0.0995,
      "velocity": 93,
      "chip": "ym2612"
    },
    {
      "channel": 0,
      "note": 62,
      "start": 9.3408,
      "duration": 0.2387,
      "velocity": 93,
      "chip": "ym2612"
    },
    {
      "channel": 1,
      "note": 76,
      "start": 9.3451,
      "duration": 0.0148,
      "velocity": 126,
      "chip": "ym2612"
    },
    {
      "channel": 3,
      "note": 88,
      "start": 9.3459,
      "duration": 0.1151,
      "velocity": 67,
      "chip": "ym2612"
    },
    {
      "channel": 4,
      "note": 93,
      "start": 9.3468,
      "duration": 0.0534,
      "velocity": 90,
      "chip": "ym2612"
    },
    {
      "channel": 5,
      "note": 79,
      "start": 9.3475,
      "duration": 0.1151,
      "velocity": 67,
      "chip": "ym2612"
    },
    {
      "channel": 4,
      "note": 105,
      "start": 9.4008,
      "duration": 0.061,
      "velocity": 90,
      "chip": "ym2612"
    },
    {
      "channel": 1,
      "note": 76,
      "start": 9.4607,
      "duration": 0.0185,
      "velocity": 126,
      "chip": "ym2612"
    },
    {
      "channel": 3,
      "note": 88,
      "start": 9.4615,
      "duration": 0.1238,
      "velocity": 67,
      "chip": "ym2612"
    },
    {
      "channel": 4,
      "note": 93,
      "start": 9.4624,
      "duration": 0.0571,
      "velocity": 90,
      "chip": "ym2612"
    },
    {
      "channel": 5,
      "note": 79,
      "start": 9.4632,
      "duration": 0.1248,
      "velocity": 67,
      "chip": "ym2612"
    },
    {
      "channel": 4,
      "note": 105,
      "start": 9.5202,
      "duration": 0.0669,
      "velocity": 90,
      "chip": "ym2612"
    },
    {
      "channel": 0,
      "note": 57,
      "start": 9.5802,
      "duration": 0.2377,
      "velocity": 93,
      "chip": "ym2612"
    },
    {
      "channel": 1,
      "note": 39,
      "start": 9.5852,
      "duration": 0.2343,
      "velocity": 105,
      "chip": "ym2612"
    },
    {
      "channel": 3,
      "note": 91,
      "start": 9.586,
      "duration": 0.1125,
      "velocity": 67,
      "chip": "ym2612"
    },
    {
      "channel": 4,
      "note": 69,
      "start": 9.5877,
      "duration": 0.0911,
      "velocity": 90,
      "chip": "ym2612"
    },
    {
      "channel": 5,
      "note": 83,
      "start": 9.5886,
      "duration": 0.1107,
      "velocity": 67,
      "chip": "ym2612"
    },
    {
      "channel": 3,
      "note": 91,
      "start": 9.6991,
      "duration": 0.0989,
      "velocity": 67,
      "chip": "ym2612"
    },
    {
      "channel": 5,
      "note": 83,
      "start": 9.6999,
      "duration": 0.0984,
      "velocity": 67,
      "chip": "ym2612"
    },
    {
      "channel": 0,
      "note": 57,
      "start": 9.8182,
      "duration": 0.1193,
      "velocity": 93,
      "chip": "ym2612"
    },
    {
      "channel": 1,
      "note": 39,
      "start": 9.8199,
      "duration": 0.1192,
      "velocity": 105,
      "chip": "ym2612"
    },
    {
      "channel": 4,
      "note": 76,
      "start": 9.8207,
      "duration": 0.0967,
      "velocity": 90,
      "chip": "ym2612"
    },
    {
      "channel": 0,
      "note": 67,
      "start": 9.9381,
      "duration": 0.1584,
      "velocity": 93,
      "chip": "ym2612"
    },
    {
      "channel": 1,
      "note": 39,
      "start": 9.9395,
      "duration": 0.2371,
      "velocity": 105,
      "chip": "ym2612"
    },
    {
      "channel": 3,
      "note": 91,
      "start": 9.94,
      "duration": 0.0967,
      "velocity": 67,
      "chip": "ym2612"
    },
    {
      "channel": 5,
      "note": 83,
      "start": 9.9407,
      "duration": 0.0964,
      "velocity": 67,
      "chip": "ym2612"
    },
    {
      "channel": 4,
      "note": 74,
      "start": 10.0573,
      "duration": 0.0989,
      "velocity": 90,
      "chip": "ym2612"
    },
    {
      "channel": 0,
      "note": 57,
      "start": 10.0971,
      "duration": 0.0982,
      "velocity": 93,
      "chip": "ym2612"
    },
    {
      "channel": 1,
      "note": 39,
      "start": 10.1769,
      "duration": 0.1228,
      "velocity": 126,
      "chip": "ym2612"
    },
    {
      "channel": 3,
      "note": 91,
      "start": 10.1775,
      "duration": 0.1229,
      "velocity": 67,
      "chip": "ym2612"
    },
    {
      "channel": 5,
      "note": 83,
      "start": 10.1782,
      "duration": 0.1238,
      "velocity": 67,
      "chip": "ym2612"
    },
    {
      "channel": 0,
      "note": 57,
      "start": 10.1959,
      "duration": 0.0996,
      "velocity": 93,
      "chip": "ym2612"
    },
    {
      "channel": 0,
      "note": 62,
      "start": 10.2961,
      "duration": 0.2384,
      "velocity": 93,
      "chip": "ym2612"
    },
    {
      "channel": 1,
      "note": 76,
      "start": 10.3003,
      "duration": 0.0147,
      "velocity": 126,
      "chip": "ym2612"
    },
    {
      "channel": 3,
      "note": 91,
      "start": 10.3011,
      "duration": 0.2385,
      "velocity": 67,
      "chip": "ym2612"
    },
    {
      "channel": 4,
      "note": 69,
      "start": 10.3018,
      "duration": 0.115,
      "velocity": 90,
      "chip": "ym2612"
    },
    {
      "channel": 5,
      "note": 83,
      "start": 10.3029,
      "duration": 0.2375,
      "velocity": 67,
      "chip": "ym2612"
    },
    {
      "channel": 1,
      "note": 76,
      "start": 10.416,
      "duration": 0.0184,
      "velocity": 126,
      "chip": "ym2612"
    },
    {
      "channel": 4,
      "note": 76,
      "start": 10.4175,
      "duration": 0.0969,
      "velocity": 90,
      "chip": "ym2612"
    },
    {
      "channel": 0,
      "note": 57,
      "start": 10.5351,
      "duration": 0.2381,
      "velocity": 93,
      "chip": "ym2612"
    },
    {
      "channel": 1,
      "note": 39,
      "start": 10.5393,
      "duration": 0.2351,
      "velocity": 105,
      "chip": "ym2612"
    },
    {
      "channel": 3,
      "note": 88,
      "start": 10.5402,
      "duration": 0.7126,
      "velocity": 67,
      "chip": "ym2612"
    },
    {
      "channel": 5,
      "note": 79,
      "start": 10.541,
      "duration": 0.7137,
      "velocity": 67,
      "chip": "ym2612"
    },
    {
      "channel": 4,
      "note": 76,
      "start": 10.6547,
      "duration": 0.1206,
      "velocity": 90,
      "chip": "ym2612"
    },
    {
      "channel": 0,
      "note": 57,
      "start": 10.7736,
      "duration": 0.1188,
      "velocity": 93,
      "chip": "ym2612"
    },
    {
      "channel": 1,
      "note": 39,
      "start": 10.7748,
      "duration": 0.119,
      "velocity": 105,
      "chip": "ym2612"
    },
    {
      "channel": 4,
      "note": 74,
      "start": 10.7759,
      "duration": 0.1191,
      "velocity": 90,
      "chip": "ym2612"
    },
    {
      "channel": 0,
      "note": 67,
      "start": 10.893,
      "duration": 0.1586,
      "velocity": 93,
      "chip": "ym2612"
    },
    {
      "channel": 1,
      "note": 39,
      "start": 10.8944,
      "duration": 0.1207,
      "velocity": 127,
      "chip": "ym2612"
    },
    {
      "channel": 4,
      "note": 76,
      "start": 10.8956,
      "duration": 0.1207,
      "velocity": 90,
      "chip": "ym2612"
    },
    {
      "channel": 1,
      "note": 69,
      "start": 11.0157,
      "duration": 0.0562,
      "velocity": 127,
      "chip": "ym2612"
    },
    {
      "channel": 4,
      "note": 72,
      "start": 11.0169,
      "duration": 0.0562,
      "velocity": 90,
      "chip": "ym2612"
    },
    {
      "channel": 0,
      "note": 60,
      "start": 11.0522,
      "duration": 0.0983,
      "velocity": 93,
      "chip": "ym2612"
    },
    {
      "channel": 1,
      "note": 69,
      "start": 11.0725,
      "duration": 0.0585,
      "velocity": 127,
      "chip": "ym2612"
    },
    {
      "channel": 4,
      "note": 84,
      "start": 11.0737,
      "duration": 0.0584,
      "velocity": 90,
      "chip": "ym2612"
    },
    {
      "channel": 1,
      "note": 69,
      "start": 11.1315,
      "duration": 0.0598,
      "velocity": 127,
      "chip": "ym2612"
    },
    {
      "channel": 4,
      "note": 72,
      "start": 11.1327,
      "duration": 0.0598,
      "velocity": 90,
      "chip": "ym2612"
    },
    {
      "channel": 0,
      "note": 60,
      "start": 11.1511,
      "duration": 0.0996,
      "velocity": 93,
      "chip": "ym2612"
    },
    {
      "channel": 1,
      "note": 69,
      "start": 11.1919,
      "duration": 0.0602,
      "velocity": 127,
      "chip": "ym2612"
    },
    {
      "channel": 4,
      "note": 84,
      "start": 11.1931,
      "duration": 0.0609,
      "velocity": 90,
      "chip": "ym2612"
    },
    {
      "channel": 0,
      "note": 62,
      "start": 11.2512,
      "duration": 0.2386,
      "velocity": 93,
      "chip": "ym2612"
    },
    {
      "channel": 1,
      "note": 69,
      "start": 11.2527,
      "duration": 0.058,
      "velocity": 127,
      "chip": "ym2612"
    },
    {
      "channel": 3,
      "note": 84,
      "start": 11.2534,
      "duration": 0.1183,
      "velocity": 67,
      "chip": "ym2612"
    },
    {
      "channel": 4,
      "note": 69,
      "start": 11.2546,
      "duration": 0.0572,
      "velocity": 90,
      "chip": "ym2612"
    },
    {
      "channel": 5,
      "note": 88,
      "start": 11.2554,
      "duration": 0.118,
      "velocity": 67,
      "chip": "ym2612"
    },
    {
      "channel": 1,
      "note": 69,
      "start": 11.3112,
      "duration": 0.0598,
      "velocity": 127,
      "chip": "ym2612"
    },
    {
      "channel": 4,
      "note": 81,
      "start": 11.3124,
      "duration": 0.0602,
      "velocity": 90,
      "chip": "ym2612"
    },
    {
      "channel": 1,
      "note": 69,
      "start": 11.3716,
      "duration": 0.0585,
      "velocity": 127,
      "chip": "ym2612"
    },
    {
      "channel": 3,
      "note": 83,
      "start": 11.3723,
      "duration": 0.1231,
      "velocity": 67,
      "chip": "ym2612"
    },
    {
      "channel": 4,
      "note": 69,
      "start": 11.3732,
      "duration": 0.0587,
      "velocity": 90,
      "chip": "ym2612"
    },
    {
      "channel": 5,
      "note": 86,
      "start": 11.374,
      "duration": 0.1239,
      "velocity": 67,
      "chip": "ym2612"
    },
    {
      "channel": 1,
      "note": 69,
      "start": 11.4306,
      "duration": 0.0639,
      "velocity": 105,
      "chip": "ym2612"
    },
    {
      "channel": 4,
      "note": 81,
      "start": 11.4325,
      "duration": 0.0645,
      "velocity": 90,
      "chip": "ym2612"
    },
    {
      "channel": 0,
      "note": 57,
      "start": 11.4905,
      "duration": 0.2378,
      "velocity": 93,
      "chip": "ym2612"
    },
    {
      "channel": 1,
      "note": 39,
      "start": 11.4951,
      "duration": 0.2344,
      "velocity": 105,
      "chip": "ym2612"
    },
    {
      "channel": 3,
      "note": 81,
      "start": 11.496,
      "duration": 0.1128,
      "velocity": 67,
      "chip": "ym2612"
    },
    {
      "channel": 4,
      "note": 69,
      "start": 11.4977,
      "duration": 0.0916,
      "velocity": 90,
      "chip": "ym2612"
    },
    {
      "channel": 5,
      "note": 84,
      "start": 11.4985,
      "duration": 0.1106,
      "velocity": 67,
      "chip": "ym2612"
    },
    {
      "channel": 0,
      "note": 57,
      "start": 11.7286,
      "duration": 0.119,
      "velocity": 93,
      "chip": "ym2612"
    },
    {
      "channel": 1,
      "note": 39,
      "start": 11.73,
      "duration": 0.1192,
      "velocity": 105,
      "chip": "ym2612"
    },
    {
      "channel": 4,
      "note": 76,
      "start": 11.7308,
      "duration": 0.097,
      "velocity": 90,
      "chip": "ym2612"
    },
    {
      "channel": 0,
      "note": 67,
      "start": 11.8483,
      "duration": 0.1588,
      "velocity": 93,
      "chip": "ym2612"
    },
    {
      "channel": 1,
      "note": 39,
      "start": 11.8496,
      "duration": 0.2373,
      "velocity": 105,
      "chip": "ym2612"
    },
    {
      "channel": 3,
      "note": 88,
      "start": 11.8511,
      "duration": 0.6033,
      "velocity": 98,
      "chip": "ym2612"
    },
    {
      "channel": 5,
      "note": 79,
      "start": 11.8519,
      "duration": 0.6074,
      "velocity": 98,
      "chip": "ym2612"
    },
    {
      "channel": 4,
      "note": 74,
      "start": 11.968,
      "duration": 0.0989,
      "velocity": 90,
      "chip": "ym2612"
    },
    {
      "channel": 0,
      "note": 57,
      "start": 12.0077,
      "duration": 0.098,
      "velocity": 93,
      "chip": "ym2612"
    },
    {
      "channel": 1,
      "note": 39,
      "start": 12.0873,
      "duration": 0.123,
      "velocity": 126,
      "chip": "ym2612"
    },
    {
      "channel": 0,
      "note": 57,
      "start": 12.1062,
      "duration": 0.0998,
      "velocity": 93,
      "chip": "ym2612"
    },
    {
      "channel": 0,
      "note": 62,
      "start": 12.2067,
      "duration": 0.2383,
      "velocity": 93,
      "chip": "ym2612"
    },
    {
      "channel": 1,
      "note": 76,
      "start": 12.2109,
      "duration": 0.0146,
      "velocity": 126,
      "chip": "ym2612"
    },
    {
      "channel": 4,
      "note": 69,
      "start": 12.212,
      "duration": 0.1148,
      "velocity": 90,
      "chip": "ym2612"
    },
    {
      "channel": 1,
      "note": 76,
      "start": 12.3263,
      "duration": 0.0185,
      "velocity": 126,
      "chip": "ym2612"
    },
    {
      "channel": 4,
      "note": 76,
      "start": 12.3274,
      "duration": 0.0973,
      "velocity": 90,
      "chip": "ym2612"
    },
    {
      "channel": 0,
      "note": 57,
      "start": 12.4456,
      "duration": 0.2379,
      "velocity": 93,
      "chip": "ym2612"
    },
    {
      "channel": 1,
      "note": 39,
      "start": 12.4503,
      "duration": 0.2345,
      "velocity": 105,
      "chip": "ym2612"
    },
    {
      "channel": 3,
      "note": 88,
      "start": 12.455,
      "duration": 0.2305,
      "velocity": 98,
      "chip": "ym2612"
    },
    {
      "channel": 5,
      "note": 89,
      "start": 12.46,
      "duration": 0.2267,
      "velocity": 98,
      "chip": "ym2612"
    },
    {
      "channel": 4,
      "note": 76,
      "start": 12.5648,
      "duration": 0.121,
      "velocity": 90,
      "chip": "ym2612"
    },
    {
      "channel": 0,
      "note": 57,
      "start": 12.6839,
      "duration": 0.119,
      "velocity": 93,
      "chip": "ym2612"
    },
    {
      "channel": 1,
      "note": 39,
      "start": 12.6852,
      "duration": 0.1191,
      "velocity": 105,
      "chip": "ym2612"
    },
    {
      "channel": 4,
      "note": 74,
      "start": 12.6864,
      "duration": 0.1206,
      "velocity": 90,
      "chip": "ym2612"
    },
    {
      "channel": 0,
      "note": 67,
      "start": 12.8034,
      "duration": 0.1585,
      "velocity": 93,
      "chip": "ym2612"
    },
    {
      "channel": 1,
      "note": 39,
      "start": 12.8048,
      "duration": 0.2373,
      "velocity": 105,
      "chip": "ym2612"
    },
    {
      "channel": 3,
      "note": 88,
      "start": 12.8068,
      "duration": 0.236,
      "velocity": 98,
      "chip": "ym2612"
    },
    {
      "channel": 4,
      "note": 69,
      "start": 12.8076,
      "duration": 0.095,
      "velocity": 90,
      "chip": "ym2612"
    },
    {
      "channel": 5,
      "note": 89,
      "start": 12.8093,
      "duration": 0.2346,
      "velocity": 98,
      "chip": "ym2612"
    },
    {
      "channel": 4,
      "note": 83,
      "start": 12.9032,
      "duration": 0.0392,
      "velocity": 90,
      "chip": "ym2612"
    },
    {
      "channel": 4,
      "note": 84,
      "start": 12.9431,
      "duration": 0.1,
      "velocity": 90,
      "chip": "ym2612"
    },
    {
      "channel": 0,
      "note": 57,
      "start": 12.9626,
      "duration": 0.0983,
      "velocity": 93,
      "chip": "ym2612"
    },
    {
      "channel": 1,
      "note": 39,
      "start": 13.0425,
      "duration": 0.1227,
      "velocity": 126,
      "chip": "ym2612"
    },
    {
      "channel": 4,
      "note": 84,
      "start": 13.0437,
      "duration": 0.1266,
      "velocity": 90,
      "chip": "ym2612"
    },
    {
      "channel": 0,
      "note": 57,
      "start": 13.0615,
      "duration": 0.0995,
      "velocity": 93,
      "chip": "ym2612"
    },
    {
      "channel": 0,
      "note": 62,
      "start": 13.1616,
      "duration": 0.2387,
      "velocity": 93,
      "chip": "ym2612"
    },
    {
      "channel": 1,
      "note": 76,
      "start": 13.1658,
      "duration": 0.0148,
      "velocity": 126,
      "chip": "ym2612"
    },
    {
      "channel": 3,
      "note": 86,
      "start": 13.1701,
      "duration": 0.1115,
      "velocity": 67,
      "chip": "ym2612"
    },
    {
      "channel": 4,
      "note": 103,
      "start": 13.1709,
      "duration": 0.0897,
      "velocity": 90,
      "chip": "ym2612"
    },
    {
      "channel": 5,
      "note": 77,
      "start": 13.1749,
      "duration": 0.1076,
      "velocity": 67,
      "chip": "ym2612"
    },
    {
      "channel": 1,
      "note": 76,
      "start": 13.2815,
      "duration": 0.0185,
      "velocity": 126,
      "chip": "ym2612"
    },
    {
      "channel": 3,
      "note": 88,
      "start": 13.2823,
      "duration": 0.1245,
      "velocity": 67,
      "chip": "ym2612"
    },
    {
      "channel": 5,
      "note": 79,
      "start": 13.2831,
      "duration": 0.126,
      "velocity": 67,
      "chip": "ym2612"
    },
    {
      "channel": 0,
      "note": 57,
      "start": 13.4009,
      "duration": 0.2377,
      "velocity": 93,
      "chip": "ym2612"
    },
    {
      "channel": 1,
      "note": 39,
      "start": 13.4057,
      "duration": 0.2343,
      "velocity": 105,
      "chip": "ym2612"
    },
    {
      "channel": 3,
      "note": 89,
      "start": 13.4074,
      "duration": 0.1117,
      "velocity": 67,
      "chip": "ym2612"
    },
    {
      "channel": 4,
      "note": 69,
      "start": 13.4089,
      "duration": 0.0907,
      "velocity": 90,
      "chip": "ym2612"
    },
    {
      "channel": 5,
      "note": 81,
      "start": 13.4097,
      "duration": 0.1103,
      "velocity": 67,
      "chip": "ym2612"
    },
    {
      "channel": 3,
      "note": 89,
      "start": 13.5198,
      "duration": 0.099,
      "velocity": 67,
      "chip": "ym2612"
    },
    {
      "channel": 5,
      "note": 81,
      "start": 13.5206,
      "duration": 0.0985,
      "velocity": 67,
      "chip": "ym2612"
    },
    {
      "channel": 0,
      "note": 57,
      "start": 13.639,
      "duration": 0.1192,
      "velocity": 93,
      "chip": "ym2612"
    },
    {
      "channel": 1,
      "note": 39,
      "start": 13.6406,
      "duration": 0.1191,
      "velocity": 105,
      "chip": "ym2612"
    },
    {
      "channel": 4,
      "note": 76,
      "start": 13.6415,
      "duration": 0.0967,
      "velocity": 90,
      "chip": "ym2612"
    },
    {
      "channel": 0,
      "note": 67,
      "start": 13.7588,
      "duration": 0.1584,
      "velocity": 93,
      "chip": "ym2612"
    },
    {
      "channel": 1,
      "note": 39,
      "start": 13.7602,
      "duration": 0.2371,
      "velocity": 105,
      "chip": "ym2612"
    },
    {
      "channel": 3,
      "note": 89,
      "start": 13.7608,
      "duration": 0.097,
      "velocity": 67,
      "chip": "ym2612"
    },
    {
      "channel": 5,
      "note": 81,
      "start": 13.7614,
      "duration": 0.0967,
      "velocity": 67,
      "chip": "ym2612"
    },
    {
      "channel": 4,
      "note": 74,
      "start": 13.878,
      "duration": 0.0989,
      "velocity": 90,
      "chip": "ym2612"
    },
    {
      "channel": 0,
      "note": 57,
      "start": 13.9178,
      "duration": 0.0982,
      "velocity": 93,
      "chip": "ym2612"
    },
    {
      "channel": 1,
      "note": 39,
      "start": 13.9977,
      "duration": 0.1227,
      "velocity": 126,
      "chip": "ym2612"
    },
    {
      "channel": 3,
      "note": 89,
      "start": 13.9983,
      "duration": 0.1229,
      "velocity": 67,
      "chip": "ym2612"
    },
    {
      "channel": 5,
      "note": 81,
      "start": 13.9989,
      "duration": 0.1238,
      "velocity": 67,
      "chip": "ym2612"
    },
    {
      "channel": 0,
      "note": 57,
      "start": 14.0166,
      "duration": 0.0995,
      "velocity": 93,
      "chip": "ym2612"
    },
    {
      "channel": 0,
      "note": 62,
      "start": 14.1168,
      "duration": 0.2384,
      "velocity": 93,
      "chip": "ym2612"
    },
    {
      "channel": 1,
      "note": 76,
      "start": 14.121,
      "duration": 0.0147,
      "velocity": 126,
      "chip": "ym2612"
    },
    {
      "channel": 3,
      "note": 88,
      "start": 14.1218,
      "duration": 0.0936,
      "velocity": 67,
      "chip": "ym2612"
    },
    {
      "channel": 4,
      "note": 69,
      "start": 14.1225,
      "duration": 0.1143,
      "velocity": 90,
      "chip": "ym2612"
    },
    {
      "channel": 5,
      "note": 79,
      "start": 14.1233,
      "duration": 0.0927,
      "velocity": 67,
      "chip": "ym2612"
    },
    {
      "channel": 1,
      "note": 76,
      "start": 14.2367,
      "duration": 0.0185,
      "velocity": 126,
      "chip": "ym2612"
    },
    {
      "channel": 4,
      "note": 76,
      "start": 14.2375,
      "duration": 0.0975,
      "velocity": 90,
      "chip": "ym2612"
    },
    {
      "channel": 0,
      "note": 57,
      "start": 14.3558,
      "duration": 0.238,
      "velocity": 93,
      "chip": "ym2612"
    },
    {
      "channel": 1,
      "note": 39,
      "start": 14.3608,
      "duration": 0.2344,
      "velocity": 105,
      "chip": "ym2612"
    },
    {
      "channel": 3,
      "note": 86,
      "start": 14.3616,
      "duration": 0.0929,
      "velocity": 67,
      "chip": "ym2612"
    },
    {
      "channel": 5,
      "note": 77,
      "start": 14.3624,
      "duration": 0.0924,
      "velocity": 67,
      "chip": "ym2612"
    },
    {
      "channel": 4,
      "note": 76,
      "start": 14.4752,
      "duration": 0.1214,
      "velocity": 90,
      "chip": "ym2612"
    },
    {
      "channel": 0,
      "note": 57,
      "start": 14.5942,
      "duration": 0.1189,
      "velocity": 93,
      "chip": "ym2612"
    },
    {
      "channel": 1,
      "note": 39,
      "start": 14.5956,
      "duration": 0.1191,
      "velocity": 105,
      "chip": "ym2612"
    },
    {
      "channel": 3,
      "note": 88,
      "start": 14.5964,
      "duration": 0.0972,
      "velocity": 67,
      "chip": "ym2612"
    },
    {
      "channel": 4,
      "note": 74,
      "start": 14.5971,
      "duration": 0.1183,
      "velocity": 90,
      "chip": "ym2612"
    },
    {
      "channel": 5,
      "note": 79,
      "start": 14.5979,
      "duration": 0.0963,
      "velocity": 67,
      "chip": "ym2612"
    },
    {
      "channel": 0,
      "note": 69,
      "start": 14.7138,
      "duration": 0.1586,
      "velocity": 93,
      "chip": "ym2612"
    },
    {
      "channel": 1,
      "note": 39,
      "start": 14.7151,
      "duration": 0.2373,
      "velocity": 105,
      "chip": "ym2612"
    },
    {
      "channel": 4,
      "note": 76,
      "start": 14.7161,
      "duration": 0.1174,
      "velocity": 90,
      "chip": "ym2612"
    },
    {
      "channel": 3,
      "note": 86,
      "start": 14.8332,
      "duration": 0.0791,
      "velocity": 67,
      "chip": "ym2612"
    },
    {
      "channel": 4,
      "note": 79,
      "start": 14.8341,
      "duration": 0.0588,
      "velocity": 90,
      "chip": "ym2612"
    },
    {
      "channel": 5,
      "note": 77,
      "start": 14.8349,
      "duration": 0.0785,
      "velocity": 67,
      "chip": "ym2612"
    },
    {
      "channel": 0,
      "note": 57,
      "start": 14.873,
      "duration": 0.0982,
      "velocity": 93,
      "chip": "ym2612"
    },
    {
      "channel": 4,
      "note": 91,
      "start": 14.8936,
      "duration": 0.06,
      "velocity": 90,
      "chip": "ym2612"
    },
    {
      "channel": 3,
      "note": 88,
      "start": 14.9129,
      "duration": 0.0791,
      "velocity": 67,
      "chip": "ym2612"
    },
    {
      "channel": 5,
      "note": 79,
      "start": 14.914,
      "duration": 0.0791,
      "velocity": 67,
      "chip": "ym2612"
    },
    {
      "channel": 1,
      "note": 39,
      "start": 14.9529,
      "duration": 0.123,
      "velocity": 126,
      "chip": "ym2612"
    },
    {
      "channel": 4,
      "note": 76,
      "start": 14.9541,
      "duration": 0.058,
      "velocity": 90,
      "chip": "ym2612"
    },
    {
      "channel": 0,
      "note": 57,
      "start": 14.9718,
      "duration": 0.0996,
      "velocity": 93,
      "chip": "ym2612"
    },
    {
      "channel": 3,
      "note": 86,
      "start": 14.9926,
      "duration": 0.084,
      "velocity": 67,
      "chip": "ym2612"
    },
    {
      "channel": 5,
      "note": 77,
      "start": 14.9937,
      "duration": 0.0846,
      "velocity": 67,
      "chip": "ym2612"
    },
    {
      "channel": 4,
      "note": 88,
      "start": 15.0127,
      "duration": 0.0648,
      "velocity": 90,
      "chip": "ym2612"
    },
    {
      "channel": 0,
      "note": 62,
      "start": 15.072,
      "duration": 0.2386,
      "velocity": 93,
      "chip": "ym2612"
    },
    {
      "channel": 1,
      "note": 76,
      "start": 15.0765,
      "duration": 0.0145,
      "velocity": 126,
      "chip": "ym2612"
    },
    {
      "channel": 3,
      "note": 84,
      "start": 15.0773,
      "duration": 0.115,
      "velocity": 67,
      "chip": "ym2612"
    },
    {
      "channel": 4,
      "note": 79,
      "start": 15.0782,
      "duration": 0.0531,
      "velocity": 90,
      "chip": "ym2612"
    },
    {
      "channel": 5,
      "note": 76,
      "start": 15.079,
      "duration": 0.115,
      "velocity": 67,
      "chip": "ym2612"
    },
    {
      "channel": 4,
      "note": 91,
      "start": 15.1319,
      "duration": 0.0613,
      "velocity": 90,
      "chip": "ym2612"
    },
    {
      "channel": 1,
      "note": 76,
      "start": 15.1919,
      "duration": 0.0185,
      "velocity": 126,
      "chip": "ym2612"
    },
    {
      "channel": 3,
      "note": 83,
      "start": 15.1929,
      "duration": 0.1232,
      "velocity": 67,
      "chip": "ym2612"
    },
    {
      "channel": 4,
      "note": 81,
      "start": 15.1938,
      "duration": 0.0569,
      "velocity": 90,
      "chip": "ym2612"
    },
    {
      "channel": 5,
      "note": 74,
      "start": 15.1946,
      "duration": 0.124,
      "velocity": 67,
      "chip": "ym2612"
    },
    {
      "channel": 4,
      "note": 93,
      "start": 15.2513,
      "duration": 0.0665,
      "velocity": 90,
      "chip": "ym2612"
    },
    {
      "channel": 0,
      "note": 57,
      "start": 15.3112,
      "duration": 0.2378,
      "velocity": 93,
      "chip": "ym2612"
    },
    {
      "channel": 1,
      "note": 39,
      "start": 15.316,
      "duration": 0.2344,
      "velocity": 105,
      "chip": "ym2612"
    },
    {
      "channel": 3,
      "note": 81,
      "start": 15.3168,
      "duration": 0.1129,
      "velocity": 67,
      "chip": "ym2612"
    },
    {
      "channel": 4,
      "note": 69,
      "start": 15.3184,
      "duration": 0.0918,
      "velocity": 90,
      "chip": "ym2612"
    },
    {
      "channel": 5,
      "note": 72,
      "start": 15.3192,
      "duration": 0.1113,
      "velocity": 67,
      "chip": "ym2612"
    },
    {
      "channel": 3,
      "note": 81,
      "start": 15.4302,
      "duration": 0.1214,
      "velocity": 67,
      "chip": "ym2612"
    },
    {
      "channel": 5,
      "note": 72,
      "start": 15.431,
      "duration": 0.1227,
      "velocity": 67,
      "chip": "ym2612"
    },
    {
      "channel": 0,
      "note": 57,
      "start": 15.5494,
      "duration": 0.1189,
      "velocity": 93,
      "chip": "ym2612"
    },
    {
      "channel": 1,
      "note": 39,
      "start": 15.5508,
      "duration": 0.1191,
      "velocity": 105,
      "chip": "ym2612"
    },
    {
      "channel": 3,
      "note": 76,
      "start": 15.5522,
      "duration": 0.1189,
      "velocity": 67,
      "chip": "ym2612"
    },
    {
      "channel": 4,
      "note": 76,
      "start": 15.553,
      "duration": 0.0958,
      "velocity": 90,
      "chip": "ym2612"
    },
    {
      "channel": 5,
      "note": 67,
      "start": 15.5544,
      "duration": 0.1183,
      "velocity": 67,
      "chip": "ym2612"
    },
    {
      "channel": 0,
      "note": 67,
      "start": 15.669,
      "duration": 0.1586,
      "velocity": 93,
      "chip": "ym2612"
    },
    {
      "channel": 1,
      "note": 39,
      "start": 15.6703,
      "duration": 0.2373,
      "velocity": 105,
      "chip": "ym2612"
    },
    {
      "channel": 3,
      "note": 81,
      "start": 15.6717,
      "duration": 0.1161,
      "velocity": 67,
      "chip": "ym2612"
    },
    {
      "channel": 5,
      "note": 72,
      "start": 15.6732,
      "duration": 0.1161,
      "velocity": 67,
      "chip": "ym2612"
    },
    {
      "channel": 3,
      "note": 81,
      "start": 15.7884,
      "duration": 0.1198,
      "velocity": 67,
      "chip": "ym2612"
    },
    {
      "channel": 4,
      "note": 74,
      "start": 15.7892,
      "duration": 0.0984,
      "velocity": 90,
      "chip": "ym2612"
    },
    {
      "channel": 5,
      "note": 72,
      "start": 15.7899,
      "duration": 0.1191,
      "velocity": 67,
      "chip": "ym2612"
    },
    {
      "channel": 0,
      "note": 57,
      "start": 15.8282,
      "duration": 0.0985,
      "velocity": 93,
      "chip": "ym2612"
    },
    {
      "channel": 1,
      "note": 39,
      "start": 15.908,
      "duration": 0.1231,
      "velocity": 126,
      "chip": "ym2612"
    },
    {
      "channel": 3,
      "note": 79,
      "start": 15.9088,
      "duration": 0.1231,
      "velocity": 67,
      "chip": "ym2612"
    },
    {
      "channel": 5,
      "note": 71,
      "start": 15.9098,
      "duration": 0.1236,
      "velocity": 67,
      "chip": "ym2612"
    },
    {
      "channel": 0,
      "note": 57,
      "start": 15.9273,
      "duration": 0.0996,
      "velocity": 93,
      "chip": "ym2612"
    },
    {
      "channel": 0,
      "note": 62,
      "start": 16.0275,
      "duration": 0.2382,
      "velocity": 93,
      "chip": "ym2612"
    },
    {
      "channel": 1,
      "note": 76,
      "start": 16.0317,
      "duration": 0.0144,
      "velocity": 126,
      "chip": "ym2612"
    },
    {
      "channel": 3,
      "note": 76,
      "start": 16.0325,
      "duration": 0.2387,
      "velocity": 67,
      "chip": "ym2612"
    },
    {
      "channel": 4,
      "note": 69,
      "start": 16.0332,
      "duration": 0.1146,
      "velocity": 90,
      "chip": "ym2612"
    },
    {
      "channel": 5,
      "note": 67,
      "start": 16.034,
      "duration": 0.238,
      "velocity": 67,
      "chip": "ym2612"
    },
    {
      "channel": 1,
      "note": 76,
      "start": 16.1473,
      "duration": 0.0182,
      "velocity": 126,
      "chip": "ym2612"
    },
    {
      "channel": 4,
      "note": 76,
      "start": 16.1484,
      "duration": 0.0971,
      "velocity": 90,
      "chip": "ym2612"
    },
    {
      "channel": 0,
      "note": 57,
      "start": 16.2663,
      "duration": 0.2379,
      "velocity": 93,
      "chip": "ym2612"
    },
    {
      "channel": 1,
      "note": 39,
      "start": 16.2711,
      "duration": 0.2345,
      "velocity": 105,
      "chip": "ym2612"
    },
    {
      "channel": 3,
      "note": 81,
      "start": 16.2718,
      "duration": 0.1136,
      "velocity": 67,
      "chip": "ym2612"
    },
    {
      "channel": 5,
      "note": 72,
      "start": 16.2727,
      "duration": 0.1148,
      "velocity": 67,
      "chip": "ym2612"
    },
    {
      "channel": 3,
      "note": 76,
      "start": 16.3861,
      "duration": 0.1208,
      "velocity": 67,
      "chip": "ym2612"
    },
    {
      "channel": 4,
      "note": 76,
      "start": 16.3866,
      "duration": 0.121,
      "velocity": 90,
      "chip": "ym2612"
    },
    {
      "channel": 5,
      "note": 67,
      "start": 16.3881,
      "duration": 0.121,
      "velocity": 67,
      "chip": "ym2612"
    },
    {
      "channel": 0,
      "note": 57,
      "start": 16.5046,
      "duration": 0.1189,
      "velocity": 93,
      "chip": "ym2612"
    },
    {
      "channel": 1,
      "note": 39,
      "start": 16.506,
      "duration": 0.119,
      "velocity": 105,
      "chip": "ym2612"
    },
    {
      "channel": 3,
      "note": 83,
      "start": 16.5074,
      "duration": 0.1189,
      "velocity": 67,
      "chip": "ym2612"
    },
    {
      "channel": 4,
      "note": 74,
      "start": 16.5082,
      "duration": 0.1192,
      "velocity": 90,
      "chip": "ym2612"
    },
    {
      "channel": 5,
      "note": 74,
      "start": 16.5096,
      "duration": 0.1192,
      "velocity": 67,
      "chip": "ym2612"
    },
    {
      "channel": 0,
      "note": 67,
      "start": 16.6241,
      "duration": 0.1587,
      "velocity": 93,
      "chip": "ym2612"
    },
    {
      "channel": 1,
      "note": 39,
      "start": 16.6255,
      "duration": 0.2373,
      "velocity": 105,
      "chip": "ym2612"
    },
    {
      "channel": 3,
      "note": 76,
      "start": 16.6269,
      "duration": 0.1167,
      "velocity": 67,
      "chip": "ym2612"
    },
    {
      "channel": 4,
      "note": 69,
      "start": 16.628,
      "duration": 0.1166,
      "velocity": 90,
      "chip": "ym2612"
    },
    {
      "channel": 5,
      "note": 67,
      "start": 16.6295,
      "duration": 0.1166,
      "velocity": 67,
      "chip": "ym2612"
    },
    {
      "channel": 3,
      "note": 84,
      "start": 16.7445,
      "duration": 0.2423,
      "velocity": 67,
      "chip": "ym2612"
    },
    {
      "channel": 4,
      "note": 72,
      "start": 16.7453,
      "duration": 0.1184,
      "velocity": 90,
      "chip": "ym2612"
    },
    {
      "channel": 5,
      "note": 76,
      "start": 16.7467,
      "duration": 0.2418,
      "velocity": 67,
      "chip": "ym2612"
    },
    {
      "channel": 0,
      "note": 57,
      "start": 16.7834,
      "duration": 0.0982,
      "velocity": 93,
      "chip": "ym2612"
    },
    {
      "channel": 1,
      "note": 39,
      "start": 16.8632,
      "duration": 0.1228,
      "velocity": 126,
      "chip": "ym2612"
    },
    {
      "channel": 4,
      "note": 72,
      "start": 16.8643,
      "duration": 0.1234,
      "velocity": 90,
      "chip": "ym2612"
    },
    {
      "channel": 0,
      "note": 57,
      "start": 16.8822,
      "duration": 0.0997,
      "velocity": 93,
      "chip": "ym2612"
    },
    {
      "channel": 0,
      "note": 62,
      "start": 16.9824,
      "duration": 0.2386,
      "velocity": 93,
      "chip": "ym2612"
    },
    {
      "channel": 1,
      "note": 76,
      "start": 16.9867,
      "duration": 0.0147,
      "velocity": 126,
      "chip": "ym2612"
    },
    {
      "channel": 3,
      "note": 88,
      "start": 16.9874,
      "duration": 0.115,
      "velocity": 67,
      "chip": "ym2612"
    },
    {
      "channel": 4,
      "note": 93,
      "start": 16.9884,
      "duration": 0.0533,
      "velocity": 90,
      "chip": "ym2612"
    },
    {
      "channel": 5,
      "note": 79,
      "start": 16.9891,
      "duration": 0.115,
      "velocity": 67,
      "chip": "ym2612"
    },
    {
      "channel": 4,
      "note": 105,
      "start": 17.0423,
      "duration": 0.061,
      "velocity": 90,
      "chip": "ym2612"
    },
    {
      "channel": 1,
      "note": 76,
      "start": 17.1023,
      "duration": 0.0184,
      "velocity": 126,
      "chip": "ym2612"
    },
    {
      "channel": 3,
      "note": 88,
      "start": 17.1031,
      "duration": 0.1235,
      "velocity": 67,
      "chip": "ym2612"
    },
    {
      "channel": 4,
      "note": 93,
      "start": 17.104,
      "duration": 0.0571,
      "velocity": 90,
      "chip": "ym2612"
    },
    {
      "channel": 5,
      "note": 79,
      "start": 17.1047,
      "duration": 0.1249,
      "velocity": 67,
      "chip": "ym2612"
    },
    {
      "channel": 4,
      "note": 105,
      "start": 17.162,
      "duration": 0.0668,
      "velocity": 90,
      "chip": "ym2612"
    },
    {
      "channel": 0,
      "note": 57,
      "start": 17.2217,
      "duration": 0.2376,
      "velocity": 93,
      "chip": "ym2612"
    },
    {
      "channel": 1,
      "note": 39,
      "start": 17.2265,
      "duration": 0.2342,
      "velocity": 105,
      "chip": "ym2612"
    },
    {
      "channel": 3,
      "note": 91,
      "start": 17.2272,
      "duration": 0.1127,
      "velocity": 67,
      "chip": "ym2612"
    },
    {
      "channel": 4,
      "note": 69,
      "start": 17.2294,
      "duration": 0.091,
      "velocity": 90,
      "chip": "ym2612"
    },
    {
      "channel": 5,
      "note": 83,
      "start": 17.2303,
      "duration": 0.1105,
      "velocity": 67,
      "chip": "ym2612"
    },
    {
      "channel": 3,
      "note": 91,
      "start": 17.3406,
      "duration": 0.0988,
      "velocity": 67,
      "chip": "ym2612"
    },
    {
      "channel": 5,
      "note": 83,
      "start": 17.3412,
      "duration": 0.0986,
      "velocity": 67,
      "chip": "ym2612"
    },
    {
      "channel": 0,
      "note": 57,
      "start": 17.4598,
      "duration": 0.1193,
      "velocity": 93,
      "chip": "ym2612"
    },
    {
      "channel": 1,
      "note": 39,
      "start": 17.4611,
      "duration": 0.1195,
      "velocity": 105,
      "chip": "ym2612"
    },
    {
      "channel": 4,
      "note": 76,
      "start": 17.4622,
      "duration": 0.0967,
      "velocity": 90,
      "chip": "ym2612"
    },
    {
      "channel": 0,
      "note": 67,
      "start": 17.5796,
      "duration": 0.1583,
      "velocity": 93,
      "chip": "ym2612"
    },
    {
      "channel": 1,
      "note": 39,
      "start": 17.581,
      "duration": 0.2371,
      "velocity": 105,
      "chip": "ym2612"
    },
    {
      "channel": 3,
      "note": 91,
      "start": 17.5816,
      "duration": 0.0967,
      "velocity": 67,
      "chip": "ym2612"
    },
    {
      "channel": 5,
      "note": 83,
      "start": 17.5822,
      "duration": 0.0966,
      "velocity": 67,
      "chip": "ym2612"
    },
    {
      "channel": 4,
      "note": 74,
      "start": 17.6988,
      "duration": 0.0989,
      "velocity": 90,
      "chip": "ym2612"
    },
    {
      "channel": 0,
      "note": 57,
      "start": 17.7385,
      "duration": 0.0982,
      "velocity": 93,
      "chip": "ym2612"
    },
    {
      "channel": 1,
      "note": 39,
      "start": 17.8184,
      "duration": 0.1227,
      "velocity": 126,
      "chip": "ym2612"
    },
    {
      "channel": 3,
      "note": 91,
      "start": 17.819,
      "duration": 0.1229,
      "velocity": 67,
      "chip": "ym2612"
    },
    {
      "channel": 5,
      "note": 83,
      "start": 17.8197,
      "duration": 0.1238,
      "velocity": 67,
      "chip": "ym2612"
    },
    {
      "channel": 0,
      "note": 57,
      "start": 17.8373,
      "duration": 0.0996,
      "velocity": 93,
      "chip": "ym2612"
    },
    {
      "channel": 0,
      "note": 62,
      "start": 17.9375,
      "duration": 0.2384,
      "velocity": 93,
      "chip": "ym2612"
    },
    {
      "channel": 1,
      "note": 76,
      "start": 17.9418,
      "duration": 0.0147,
      "velocity": 126,
      "chip": "ym2612"
    },
    {
      "channel": 3,
      "note": 91,
      "start": 17.9425,
      "duration": 0.2385,
      "velocity": 67,
      "chip": "ym2612"
    },
    {
      "channel": 4,
      "note": 69,
      "start": 17.9433,
      "duration": 0.1151,
      "velocity": 90,
      "chip": "ym2612"
    },
    {
      "channel": 5,
      "note": 83,
      "start": 17.9441,
      "duration": 0.2378,
      "velocity": 67,
      "chip": "ym2612"
    },
    {
      "channel": 1,
      "note": 76,
      "start": 18.0575,
      "duration": 0.0184,
      "velocity": 126,
      "chip": "ym2612"
    },
    {
      "channel": 4,
      "note": 76,
      "start": 18.059,
      "duration": 0.0969,
      "velocity": 90,
      "chip": "ym2612"
    },
    {
      "channel": 0,
      "note": 57,
      "start": 18.1765,
      "duration": 0.238,
      "velocity": 93,
      "chip": "ym2612"
    },
    {
      "channel": 1,
      "note": 39,
      "start": 18.1808,
      "duration": 0.235,
      "velocity": 105,
      "chip": "ym2612"
    },
    {
      "channel": 3,
      "note": 88,
      "start": 18.1817,
      "duration": 0.4768,
      "velocity": 67,
      "chip": "ym2612"
    },
    {
      "channel": 5,
      "note": 79,
      "start": 18.1825,
      "duration": 0.4782,
      "velocity": 67,
      "chip": "ym2612"
    },
    {
      "channel": 4,
      "note": 76,
      "start": 18.2958,
      "duration": 0.1208,
      "velocity": 90,
      "chip": "ym2612"
    },
    {
      "channel": 0,
      "note": 57,
      "start": 18.4149,
      "duration": 0.119,
      "velocity": 93,
      "chip": "ym2612"
    },
    {
      "channel": 1,
      "note": 39,
      "start": 18.4162,
      "duration": 0.1192,
      "velocity": 105,
      "chip": "ym2612"
    },
    {
      "channel": 4,
      "note": 74,
      "start": 18.4173,
      "duration": 0.1192,
      "velocity": 90,
      "chip": "ym2612"
    },
    {
      "channel": 0,
      "note": 67,
      "start": 18.5345,
      "duration": 0.1189,
      "velocity": 93,
      "chip": "ym2612"
    },
    {
      "channel": 1,
      "note": 39,
      "start": 18.5359,
      "duration": 0.1218,
      "velocity": 127,
      "chip": "ym2612"
    },
    {
      "channel": 0,
      "note": 52,
      "start": 18.654,
      "duration": 0.2375,
      "velocity": 93,
      "chip": "ym2612"
    },
    {
      "channel": 1,
      "note": 69,
      "start": 18.6583,
      "duration": 0.0553,
      "velocity": 127,
      "chip": "ym2612"
    },
    {
      "channel": 3,
      "note": 91,
      "start": 18.6591,
      "duration": 0.4806,
      "velocity": 99,
      "chip": "ym2612"
    },
    {
      "channel": 4,
      "note": 72,
      "start": 18.6605,
      "duration": 0.0546,
      "velocity": 90,
      "chip": "ym2612"
    },
    {
      "channel": 5,
      "note": 83,
      "start": 18.6613,
      "duration": 0.483,
      "velocity": 99,
      "chip": "ym2612"
    },
    {
      "channel": 1,
      "note": 69,
      "start": 18.7142,
      "duration": 0.0582,
      "velocity": 127,
      "chip": "ym2612"
    },
    {
      "channel": 4,
      "note": 84,
      "start": 18.7157,
      "duration": 0.0581,
      "velocity": 90,
      "chip": "ym2612"
    },
    {
      "channel": 1,
      "note": 69,
      "start": 18.773,
      "duration": 0.0602,
      "velocity": 127,
      "chip": "ym2612"
    },
    {
      "channel": 4,
      "note": 74,
      "start": 18.7745,
      "duration": 0.0603,
      "velocity": 90,
      "chip": "ym2612"
    },
    {
      "channel": 1,
      "note": 69,
      "start": 18.8337,
      "duration": 0.0591,
      "velocity": 127,
      "chip": "ym2612"
    },
    {
      "channel": 4,
      "note": 86,
      "start": 18.8354,
      "duration": 0.059,
      "velocity": 90,
      "chip": "ym2612"
    },
    {
      "channel": 0,
      "note": 64,
      "start": 18.892,
      "duration": 0.1195,
      "velocity": 93,
      "chip": "ym2612"
    },
    {
      "channel": 1,
      "note": 69,
      "start": 18.8934,
      "duration": 0.0588,
      "velocity": 127,
      "chip": "ym2612"
    },
    {
      "channel": 4,
      "note": 76,
      "start": 18.8949,
      "duration": 0.0589,
      "velocity": 90,
      "chip": "ym2612"
    },
    {
      "channel": 1,
      "note": 69,
      "start": 18.9528,
      "duration": 0.0602,
      "velocity": 127,
      "chip": "ym2612"
    },
    {
      "channel": 4,
      "note": 88,
      "start": 18.9544,
      "duration": 0.0603,
      "velocity": 90,
      "chip": "ym2612"
    },
    {
      "channel": 0,
      "note": 67,
      "start": 19.0122,
      "duration": 0.1193,
      "velocity": 93,
      "chip": "ym2612"
    },
    {
      "channel": 1,
      "note": 69,
      "start": 19.0138,
      "duration": 0.0577,
      "velocity": 127,
      "chip": "ym2612"
    },
    {
      "channel": 4,
      "note": 79,
      "start": 19.0153,
      "duration": 0.0584,
      "velocity": 90,
      "chip": "ym2612"
    },
    {
      "channel": 1,
      "note": 69,
      "start": 19.0721,
      "duration": 0.064,
      "velocity": 105,
      "chip": "ym2612"
    },
    {
      "channel": 4,
      "note": 91,
      "start": 19.0744,
      "duration": 0.0663,
      "velocity": 90,
      "chip": "ym2612"
    },
    {
      "channel": 0,
      "note": 57,
      "start": 19.132,
      "duration": 0.2377,
      "velocity": 93,
      "chip": "ym2612"
    },
    {
      "channel": 1,
      "note": 39,
      "start": 19.1367,
      "duration": 0.2346,
      "velocity": 105,
      "chip": "ym2612"
    },
    {
      "channel": 3,
      "note": 84,
      "start": 19.1403,
      "duration": 0.0502,
      "velocity": 99,
      "chip": "ym2612"
    },
    {
      "channel": 4,
      "note": 81,
      "start": 19.1412,
      "duration": 0.232,
      "velocity": 90,
      "chip": "ym2612"
    },
    {
      "channel": 5,
      "note": 81,
      "start": 19.1449,
      "duration": 0.0463,
      "velocity": 99,
      "chip": "ym2612"
    },
    {
      "channel": 0,
      "note": 69,
      "start": 19.3703,
      "duration": 0.1188,
      "velocity": 93,
      "chip": "ym2612"
    },
    {
      "channel": 1,
      "note": 39,
      "start": 19.3717,
      "duration": 0.1189,
      "velocity": 105,
      "chip": "ym2612"
    },
    {
      "channel": 3,
      "note": 83,
      "start": 19.3724,
      "duration": 0.1188,
      "velocity": 99,
      "chip": "ym2612"
    },
    {
      "channel": 4,
      "note": 79,
      "start": 19.3739,
      "duration": 0.1188,
      "velocity": 90,
      "chip": "ym2612"
    },
    {
      "channel": 5,
      "note": 79,
      "start": 19.3747,
      "duration": 0.1188,
      "velocity": 99,
      "chip": "ym2612"
    },
    {
      "channel": 0,
      "note": 57,
      "start": 19.4897,
      "duration": 0.3577,
      "velocity": 93,
      "chip": "ym2612"
    },
    {
      "channel": 1,
      "note": 39,
      "start": 19.491,
      "duration": 0.2373,
      "velocity": 105,
      "chip": "ym2612"
    },
    {
      "channel": 3,
      "note": 84,
      "start": 19.4918,
      "duration": 0.0571,
      "velocity": 99,
      "chip": "ym2612"
    },
    {
      "channel": 4,
      "note": 81,
      "start": 19.4933,
      "duration": 0.2371,
      "velocity": 90,
      "chip": "ym2612"
    },
    {
      "channel": 5,
      "note": 81,
      "start": 19.494,
      "duration": 0.0556,
      "velocity": 99,
      "chip": "ym2612"
    },
    {
      "channel": 1,
      "note": 39,
      "start": 19.7288,
      "duration": 0.1229,
      "velocity": 126,
      "chip": "ym2612"
    },
    {
      "channel": 3,
      "note": 83,
      "start": 19.7295,
      "duration": 0.3623,
      "velocity": 99,
      "chip": "ym2612"
    },
    {
      "channel": 4,
      "note": 67,
      "start": 19.731,
      "duration": 0.057,
      "velocity": 90,
      "chip": "ym2612"
    },
    {
      "channel": 5,
      "note": 79,
      "start": 19.732,
      "duration": 0.3617,
      "velocity": 99,
      "chip": "ym2612"
    },
    {
      "channel": 4,
      "note": 79,
      "start": 19.7885,
      "duration": 0.0642,
      "velocity": 90,
      "chip": "ym2612"
    },
    {
      "channel": 0,
      "note": 57,
      "start": 19.8478,
      "duration": 0.1183,
      "velocity": 93,
      "chip": "ym2612"
    },
    {
      "channel": 1,
      "note": 76,
      "start": 19.8523,
      "duration": 0.0146,
      "velocity": 126,
      "chip": "ym2612"
    },
    {
      "channel": 4,
      "note": 67,
      "start": 19.8533,
      "duration": 0.0537,
      "velocity": 90,
      "chip": "ym2612"
    },
    {
      "channel": 4,
      "note": 79,
      "start": 19.9077,
      "duration": 0.0614,
      "velocity": 90,
      "chip": "ym2612"
    },
    {
      "channel": 0,
      "note": 69,
      "start": 19.9667,
      "duration": 0.1197,
      "velocity": 93,
      "chip": "ym2612"
    },
    {
      "channel": 1,
      "note": 76,
      "start": 19.9679,
      "duration": 0.0184,
      "velocity": 126,
      "chip": "ym2612"
    },
    {
      "channel": 4,
      "note": 67,
      "start": 19.9696,
      "duration": 0.0568,
      "velocity": 90,
      "chip": "ym2612"
    },
    {
      "channel": 4,
      "note": 79,
      "start": 20.0271,
      "duration": 0.0658,
      "velocity": 90,
      "chip": "ym2612"
    },
    {
      "channel": 0,
      "note": 57,
      "start": 20.0869,
      "duration": 0.238,
      "velocity": 93,
      "chip": "ym2612"
    },
    {
      "channel": 1,
      "note": 39,
      "start": 20.0916,
      "duration": 0.2349,
      "velocity": 105,
      "chip": "ym2612"
    },
    {
      "channel": 3,
      "note": 84,
      "start": 20.0925,
      "duration": 0.0533,
      "velocity": 99,
      "chip": "ym2612"
    },
    {
      "channel": 4,
      "note": 81,
      "start": 20.0935,
      "duration": 0.235,
      "velocity": 90,
      "chip": "ym2612"
    },
    {
      "channel": 5,
      "note": 81,
      "start": 20.0944,
      "duration": 0.052,
      "velocity": 99,
      "chip": "ym2612"
    },
    {
      "channel": 0,
      "note": 69,
      "start": 20.3256,
      "duration": 0.1187,
      "velocity": 93,
      "chip": "ym2612"
    },
    {
      "channel": 1,
      "note": 39,
      "start": 20.3269,
      "duration": 0.1189,
      "velocity": 105,
      "chip": "ym2612"
    },
    {
      "channel": 3,
      "note": 83,
      "start": 20.3277,
      "duration": 0.1187,
      "velocity": 99,
      "chip": "ym2612"
    },
    {
      "channel": 4,
      "note": 79,
      "start": 20.3291,
      "duration": 0.1187,
      "velocity": 90,
      "chip": "ym2612"
    },
    {
      "channel": 5,
      "note": 79,
      "start": 20.3299,
      "duration": 0.1187,
      "velocity": 99,
      "chip": "ym2612"
    },
    {
      "channel": 0,
      "note": 57,
      "start": 20.4449,
      "duration": 0.3576,
      "velocity": 93,
      "chip": "ym2612"
    },
    {
      "channel": 1,
      "note": 39,
      "start": 20.4462,
      "duration": 0.2376,
      "velocity": 105,
      "chip": "ym2612"
    },
    {
      "channel": 3,
      "note": 84,
      "start": 20.447,
      "duration": 0.0571,
      "velocity": 99,
      "chip": "ym2612"
    },
    {
      "channel": 4,
      "note": 81,
      "start": 20.4485,
      "duration": 0.2374,
      "velocity": 90,
      "chip": "ym2612"
    },
    {
      "channel": 5,
      "note": 81,
      "start": 20.4495,
      "duration": 0.0552,
      "velocity": 99,
      "chip": "ym2612"
    },
    {
      "channel": 1,
      "note": 39,
      "start": 20.6843,
      "duration": 0.1222,
      "velocity": 126,
      "chip": "ym2612"
    },
    {
      "channel": 3,
      "note": 83,
      "start": 20.685,
      "duration": 0.3622,
      "velocity": 99,
      "chip": "ym2612"
    },
    {
      "channel": 4,
      "note": 67,
      "start": 20.6865,
      "duration": 0.0567,
      "velocity": 90,
      "chip": "ym2612"
    },
    {
      "channel": 5,
      "note": 79,
      "start": 20.6872,
      "duration": 0.362,
      "velocity": 99,
      "chip": "ym2612"
    },
    {
      "channel": 4,
      "note": 79,
      "start": 20.7438,
      "duration": 0.0638,
      "velocity": 90,
      "chip": "ym2612"
    },
    {
      "channel": 0,
      "note": 57,
      "start": 20.8029,
      "duration": 0.1184,
      "velocity": 93,
      "chip": "ym2612"
    },
    {
      "channel": 1,
      "note": 76,
      "start": 20.8071,
      "duration": 0.015,
      "velocity": 126,
      "chip": "ym2612"
    },
    {
      "channel": 4,
      "note": 67,
      "start": 20.8082,
      "duration": 0.0541,
      "velocity": 90,
      "chip": "ym2612"
    },
    {
      "channel": 4,
      "note": 79,
      "start": 20.8629,
      "duration": 0.0613,
      "velocity": 90,
      "chip": "ym2612"
    },
    {
      "channel": 0,
      "note": 69,
      "start": 20.9219,
      "duration": 0.1199,
      "velocity": 93,
      "chip": "ym2612"
    },
    {
      "channel": 1,
      "note": 76,
      "start": 20.9231,
      "duration": 0.0184,
      "velocity": 126,
      "chip": "ym2612"
    },
    {
      "channel": 4,
      "note": 67,
      "start": 20.9248,
      "duration": 0.0568,
      "velocity": 90,
      "chip": "ym2612"
    },
    {
      "channel": 4,
      "note": 79,
      "start": 20.9822,
      "duration": 0.066,
      "velocity": 90,
      "chip": "ym2612"
    },
    {
      "channel": 0,
      "note": 48,
      "start": 21.0424,
      "duration": 0.1176,
      "velocity": 93,
      "chip": "ym2612"
    },
    {
      "channel": 1,
      "note": 69,
      "start": 21.047,
      "duration": 0.1144,
      "velocity": 127,
      "chip": "ym2612"
    },
    {
      "channel": 3,
      "note": 88,
      "start": 21.0479,
      "duration": 0.1142,
      "velocity": 99,
      "chip": "ym2612"
    },
    {
      "channel": 4,
      "note": 84,
      "start": 21.0488,
      "duration": 0.1141,
      "velocity": 90,
      "chip": "ym2612"
    },
    {
      "channel": 5,
      "note": 84,
      "start": 21.0501,
      "duration": 0.1134,
      "velocity": 99,
      "chip": "ym2612"
    },
    {
      "channel": 0,
      "note": 50,
      "start": 21.1606,
      "duration": 0.1188,
      "velocity": 93,
      "chip": "ym2612"
    },
    {
      "channel": 1,
      "note": 69,
      "start": 21.162,
      "duration": 0.122,
      "velocity": 121,
      "chip": "ym2612"
    },
    {
      "channel": 3,
      "note": 86,
      "start": 21.1628,
      "duration": 0.122,
      "velocity": 99,
      "chip": "ym2612"
    },
    {
      "channel": 4,
      "note": 84,
      "start": 21.1634,
      "duration": 0.0573,
      "velocity": 90,
      "chip": "ym2612"
    },
    {
      "channel": 5,
      "note": 83,
      "start": 21.1641,
      "duration": 0.1215,
      "velocity": 99,
      "chip": "ym2612"
    },
    {
      "channel": 0,
      "note": 52,
      "start": 21.28,
      "duration": 0.1189,
      "velocity": 93,
      "chip": "ym2612"
    },
    {
      "channel": 1,
      "note": 27,
      "start": 21.2846,
      "duration": 0.1181,
      "velocity": 126,
      "chip": "ym2612"
    },
    {
      "channel": 3,
      "note": 84,
      "start": 21.2854,
      "duration": 0.1181,
      "velocity": 99,
      "chip": "ym2612"
    },
    {
      "channel": 5,
      "note": 81,
      "start": 21.2862,
      "duration": 0.1187,
      "velocity": 99,
      "chip": "ym2612"
    },
    {
      "channel": 0,
      "note": 57,
      "start": 21.3995,
      "duration": 0.1188,
      "velocity": 93,
      "chip": "ym2612"
    },
    {
      "channel": 1,
      "note": 76,
      "start": 21.4033,
      "duration": 0.1194,
      "velocity": 105,
      "chip": "ym2612"
    },
    {
      "channel": 3,
      "note": 83,
      "start": 21.4041,
      "duration": 0.1194,
      "velocity": 99,
      "chip": "ym2612"
    },
    {
      "channel": 4,
      "note": 84,
      "start": 21.4047,
      "duration": 0.1196,
      "velocity": 90,
      "chip": "ym2612"
    },
    {
      "channel": 5,
      "note": 79,
      "start": 21.4054,
      "duration": 0.1196,
      "velocity": 99,
      "chip": "ym2612"
    },
    {
      "channel": 0,
      "note": 60,
      "start": 21.5188,
      "duration": 0.2388,
      "velocity": 93,
      "chip": "ym2612"
    },
    {
      "channel": 1,
      "note": 39,
      "start": 21.5233,
      "duration": 0.2356,
      "velocity": 105,
      "chip": "ym2612"
    },
    {
      "channel": 3,
      "note": 79,
      "start": 21.5241,
      "duration": 0.2354,
      "velocity": 99,
      "chip": "ym2612"
    },
    {
      "channel": 4,
      "note": 79,
      "start": 21.5249,
      "duration": 0.0541,
      "velocity": 90,
      "chip": "ym2612"
    },
    {
      "channel": 5,
      "note": 76,
      "start": 21.5256,
      "duration": 0.2352,
      "velocity": 99,
      "chip": "ym2612"
    },
    {
      "channel": 0,
      "note": 60,
      "start": 21.7581,
      "duration": 0.119,
      "velocity": 93,
      "chip": "ym2612"
    },
    {
      "channel": 1,
      "note": 39,
      "start": 21.7593,
      "duration": 0.1192,
      "velocity": 105,
      "chip": "ym2612"
    },
    {
      "channel": 3,
      "note": 86,
      "start": 21.7601,
      "duration": 0.1191,
      "velocity": 99,
      "chip": "ym2612"
    },
    {
      "channel": 4,
      "note": 79,
      "start": 21.7607,
      "duration": 0.1193,
      "velocity": 90,
      "chip": "ym2612"
    },
    {
      "channel": 5,
      "note": 84,
      "start": 21.7614,
      "duration": 0.1193,
      "velocity": 99,
      "chip": "ym2612"
    },
    {
      "channel": 0,
      "note": 57,
      "start": 21.8777,
      "duration": 0.2376,
      "velocity": 93,
      "chip": "ym2612"
    },
    {
      "channel": 1,
      "note": 39,
      "start": 21.879,
      "duration": 0.1172,
      "velocity": 105,
      "chip": "ym2612"
    },
    {
      "channel": 3,
      "note": 84,
      "start": 21.8798,
      "duration": 0.057,
      "velocity": 99,
      "chip": "ym2612"
    },
    {
      "channel": 4,
      "note": 81,
      "start": 21.8806,
      "duration": 0.0565,
      "velocity": 90,
      "chip": "ym2612"
    },
    {
      "channel": 5,
      "note": 81,
      "start": 21.8814,
      "duration": 0.056,
      "velocity": 99,
      "chip": "ym2612"
    },
    {
      "channel": 1,
      "note": 39,
      "start": 21.9968,
      "duration": 0.2417,
      "velocity": 126,
      "chip": "ym2612"
    },
    {
      "channel": 0,
      "note": 57,
      "start": 22.1156,
      "duration": 0.0593,
      "velocity": 93,
      "chip": "ym2612"
    },
    {
      "channel": 4,
      "note": 93,
      "start": 22.1169,
      "duration": 0.0598,
      "velocity": 90,
      "chip": "ym2612"
    },
    {
      "channel": 0,
      "note": 55,
      "start": 22.1755,
      "duration": 0.0595,
      "velocity": 93,
      "chip": "ym2612"
    },
    {
      "channel": 4,
      "note": 91,
      "start": 22.1773,
      "duration": 0.0627,
      "velocity": 90,
      "chip": "ym2612"
    },
    {
      "channel": 0,
      "note": 57,
      "start": 22.2355,
      "duration": 0.1188,
      "velocity": 93,
      "chip": "ym2612"
    },
    {
      "channel": 1,
      "note": 76,
      "start": 22.2391,
      "duration": 0.2388,
      "velocity": 105,
      "chip": "ym2612"
    },
    {
      "channel": 4,
      "note": 93,
      "start": 22.2406,
      "duration": 0.0544,
      "velocity": 90,
      "chip": "ym2612"
    },
    {
      "channel": 0,
      "note": 52,
      "start": 22.474,
      "duration": 0.2383,
      "velocity": 93,
      "chip": "ym2612"
    },
    {
      "channel": 1,
      "note": 39,
      "start": 22.4785,
      "duration": 0.1146,
      "velocity": 105,
      "chip": "ym2612"
    },
    {
      "channel": 3,
      "note": 76,
      "start": 22.4792,
      "duration": 0.1146,
      "velocity": 99,
      "chip": "ym2612"
    },
    {
      "channel": 4,
      "note": 76,
      "start": 22.4808,
      "duration": 0.0534,
      "velocity": 90,
      "chip": "ym2612"
    },
    {
      "channel": 5,
      "note": 81,
      "start": 22.4814,
      "duration": 0.1141,
      "velocity": 99,
      "chip": "ym2612"
    },
    {
      "channel": 4,
      "note": 88,
      "start": 22.535,
      "duration": 0.0597,
      "velocity": 90,
      "chip": "ym2612"
    },
    {
      "channel": 1,
      "note": 39,
      "start": 22.5937,
      "duration": 0.1228,
      "velocity": 126,
      "chip": "ym2612"
    },
    {
      "channel": 3,
      "note": 79,
      "start": 22.5944,
      "duration": 0.1228,
      "velocity": 99,
      "chip": "ym2612"
    },
    {
      "channel": 4,
      "note": 76,
      "start": 22.5953,
      "duration": 0.0583,
      "velocity": 90,
      "chip": "ym2612"
    },
    {
      "channel": 5,
      "note": 79,
      "start": 22.5961,
      "duration": 0.1231,
      "velocity": 99,
      "chip": "ym2612"
    },
    {
      "channel": 4,
      "note": 88,
      "start": 22.6543,
      "duration": 0.0639,
      "velocity": 90,
      "chip": "ym2612"
    },
    {
      "channel": 0,
      "note": 50,
      "start": 22.7129,
      "duration": 0.2394,
      "velocity": 93,
      "chip": "ym2612"
    },
    {
      "channel": 1,
      "note": 76,
      "start": 22.7171,
      "duration": 0.0153,
      "velocity": 126,
      "chip": "ym2612"
    },
    {
      "channel": 3,
      "note": 81,
      "start": 22.7179,
      "duration": 0.1153,
      "velocity": 99,
      "chip": "ym2612"
    },
    {
      "channel": 4,
      "note": 79,
      "start": 22.719,
      "duration": 0.0538,
      "velocity": 90,
      "chip": "ym2612"
    },
    {
      "channel": 5,
      "note": 76,
      "start": 22.7198,
      "duration": 0.116,
      "velocity": 99,
      "chip": "ym2612"
    },
    {
      "channel": 4,
      "note": 91,
      "start": 22.7734,
      "duration": 0.0613,
      "velocity": 90,
      "chip": "ym2612"
    },
    {
      "channel": 1,
      "note": 76,
      "start": 22.833,
      "duration": 0.0191,
      "velocity": 126,
      "chip": "ym2612"
    },
    {
      "channel": 3,
      "note": 79,
      "start": 22.8337,
      "duration": 0.124,
      "velocity": 99,
      "chip": "ym2612"
    },
    {
      "channel": 4,
      "note": 79,
      "start": 22.8356,
      "duration": 0.0566,
      "velocity": 90,
      "chip": "ym2612"
    },
    {
      "channel": 5,
      "note": 74,
      "start": 22.8363,
      "duration": 0.1233,
      "velocity": 99,
      "chip": "ym2612"
    },
    {
      "channel": 4,
      "note": 79,
      "start": 22.8928,
      "duration": 0.0659,
      "velocity": 90,
      "chip": "ym2612"
    },
    {
      "channel": 0,
      "note": 57,
      "start": 22.9529,
      "duration": 0.2377,
      "velocity": 93,
      "chip": "ym2612"
    },
    {
      "channel": 1,
      "note": 39,
      "start": 22.9575,
      "duration": 0.2346,
      "velocity": 105,
      "chip": "ym2612"
    },
    {
      "channel": 3,
      "note": 84,
      "start": 22.9583,
      "duration": 0.053,
      "velocity": 99,
      "chip": "ym2612"
    },
    {
      "channel": 4,
      "note": 81,
      "start": 22.9594,
      "duration": 0.2348,
      "velocity": 90,
      "chip": "ym2612"
    },
    {
      "channel": 5,
      "note": 81,
      "start": 22.9602,
      "duration": 0.0517,
      "velocity": 99,
      "chip": "ym2612"
    },
    {
      "channel": 0,
      "note": 69,
      "start": 23.1912,
      "duration": 0.1187,
      "velocity": 93,
      "chip": "ym2612"
    },
    {
      "channel": 1,
      "note": 39,
      "start": 23.1926,
      "duration": 0.1189,
      "velocity": 105,
      "chip": "ym2612"
    },
    {
      "channel": 3,
      "note": 83,
      "start": 23.1933,
      "duration": 0.1187,
      "velocity": 99,
      "chip": "ym2612"
    },
    {
      "channel": 4,
      "note": 79,
      "start": 23.1948,
      "duration": 0.1187,
      "velocity": 90,
      "chip": "ym2612"
    },
    {
      "channel": 5,
      "note": 79,
      "start": 23.1955,
      "duration": 0.1187,
      "velocity": 99,
      "chip": "ym2612"
    },
    {
      "channel": 0,
      "note": 57,
      "start": 23.3105,
      "duration": 0.3575,
      "velocity": 93,
      "chip": "ym2612"
    },
    {
      "channel": 1,
      "note": 39,
      "start": 23.3119,
      "duration": 0.2373,
      "velocity": 105,
      "chip": "ym2612"
    },
    {
      "channel": 3,
      "note": 84,
      "start": 23.3127,
      "duration": 0.0571,
      "velocity": 99,
      "chip": "ym2612"
    },
    {
      "channel": 4,
      "note": 81,
      "start": 23.3141,
      "duration": 0.2371,
      "velocity": 90,
      "chip": "ym2612"
    },
    {
      "channel": 5,
      "note": 81,
      "start": 23.3149,
      "duration": 0.0555,
      "velocity": 99,
      "chip": "ym2612"
    },
    {
      "channel": 1,
      "note": 39,
      "start": 23.5496,
      "duration": 0.1227,
      "velocity": 126,
      "chip": "ym2612"
    },
    {
      "channel": 3,
      "note": 83,
      "start": 23.5504,
      "duration": 0.3623,
      "velocity": 99,
      "chip": "ym2612"
    },
    {
      "channel": 4,
      "note": 67,
      "start": 23.5518,
      "duration": 0.0568,
      "velocity": 90,
      "chip": "ym2612"
    },
    {
      "channel": 5,
      "note": 79,
      "start": 23.5526,
      "duration": 0.362,
      "velocity": 99,
      "chip": "ym2612"
    },
    {
      "channel": 4,
      "note": 79,
      "start": 23.6092,
      "duration": 0.0642,
      "velocity": 90,
      "chip": "ym2612"
    },
    {
      "channel": 0,
      "note": 57,
      "start": 23.6685,
      "duration": 0.1186,
      "velocity": 93,
      "chip": "ym2612"
    },
    {
      "channel": 1,
      "note": 76,
      "start": 23.6729,
      "duration": 0.0147,
      "velocity": 126,
      "chip": "ym2612"
    },
    {
      "channel": 4,
      "note": 67,
      "start": 23.674,
      "duration": 0.0538,
      "velocity": 90,
      "chip": "ym2612"
    },
    {
      "channel": 4,
      "note": 79,
      "start": 23.7284,
      "duration": 0.0616,
      "velocity": 90,
      "chip": "ym2612"
    },
    {
      "channel": 0,
      "note": 69,
      "start": 23.7876,
      "duration": 0.1195,
      "velocity": 93,
      "chip": "ym2612"
    },
    {
      "channel": 1,
      "note": 76,
      "start": 23.7889,
      "duration": 0.0183,
      "velocity": 126,
      "chip": "ym2612"
    },
    {
      "channel": 4,
      "note": 67,
      "start": 23.7906,
      "duration": 0.0566,
      "velocity": 90,
      "chip": "ym2612"
    },
    {
      "channel": 4,
      "note": 79,
      "start": 23.8478,
      "duration": 0.0658,
      "velocity": 90,
      "chip": "ym2612"
    },
    {
      "channel": 0,
      "note": 57,
      "start": 23.9077,
      "duration": 0.238,
      "velocity": 93,
      "chip": "ym2612"
    },
    {
      "channel": 1,
      "note": 39,
      "start": 23.9124,
      "duration": 0.2349,
      "velocity": 105,
      "chip": "ym2612"
    },
    {
      "channel": 3,
      "note": 84,
      "start": 23.9132,
      "duration": 0.0534,
      "velocity": 99,
      "chip": "ym2612"
    },
    {
      "channel": 4,
      "note": 81,
      "start": 23.9143,
      "duration": 0.235,
      "velocity": 90,
      "chip": "ym2612"
    },
    {
      "channel": 5,
      "note": 81,
      "start": 23.9151,
      "duration": 0.0521,
      "velocity": 99,
      "chip": "ym2612"
    },
    {
      "channel": 0,
      "note": 69,
      "start": 24.1463,
      "duration": 0.1187,
      "velocity": 93,
      "chip": "ym2612"
    },
    {
      "channel": 1,
      "note": 39,
      "start": 24.1477,
      "duration": 0.1189,
      "velocity": 105,
      "chip": "ym2612"
    },
    {
      "channel": 3,
      "note": 83,
      "start": 24.1485,
      "duration": 0.1187,
      "velocity": 99,
      "chip": "ym2612"
    },
    {
      "channel": 4,
      "note": 79,
      "start": 24.1499,
      "duration": 0.1187,
      "velocity": 90,
      "chip": "ym2612"
    },
    {
      "channel": 5,
      "note": 79,
      "start": 24.1507,
      "duration": 0.1187,
      "velocity": 99,
      "chip": "ym2612"
    },
    {
      "channel": 0,
      "note": 57,
      "start": 24.2656,
      "duration": 0.3576,
      "velocity": 93,
      "chip": "ym2612"
    },
    {
      "channel": 1,
      "note": 39,
      "start": 24.267,
      "duration": 0.2375,
      "velocity": 105,
      "chip": "ym2612"
    },
    {
      "channel": 3,
      "note": 84,
      "start": 24.2678,
      "duration": 0.057,
      "velocity": 99,
      "chip": "ym2612"
    },
    {
      "channel": 4,
      "note": 81,
      "start": 24.2692,
      "duration": 0.2373,
      "velocity": 90,
      "chip": "ym2612"
    },
    {
      "channel": 5,
      "note": 81,
      "start": 24.27,
      "duration": 0.0554,
      "velocity": 99,
      "chip": "ym2612"
    },
    {
      "channel": 1,
      "note": 39,
      "start": 24.505,
      "duration": 0.1223,
      "velocity": 126,
      "chip": "ym2612"
    },
    {
      "channel": 3,
      "note": 83,
      "start": 24.5057,
      "duration": 0.3607,
      "velocity": 99,
      "chip": "ym2612"
    },
    {
      "channel": 4,
      "note": 67,
      "start": 24.5072,
      "duration": 0.0567,
      "velocity": 90,
      "chip": "ym2612"
    },
    {
      "channel": 5,
      "note": 79,
      "start": 24.5079,
      "duration": 0.3612,
      "velocity": 99,
      "chip": "ym2612"
    },
    {
      "channel": 4,
      "note": 79,
      "start": 24.5645,
      "duration": 0.0638,
      "velocity": 90,
      "chip": "ym2612"
    },
    {
      "channel": 0,
      "note": 57,
      "start": 24.6237,
      "duration": 0.1183,
      "velocity": 93,
      "chip": "ym2612"
    },
    {
      "channel": 1,
      "note": 76,
      "start": 24.6279,
      "duration": 0.015,
      "velocity": 126,
      "chip": "ym2612"
    },
    {
      "channel": 4,
      "note": 67,
      "start": 24.6289,
      "duration": 0.054,
      "velocity": 90,
      "chip": "ym2612"
    },
    {
      "channel": 4,
      "note": 79,
      "start": 24.6836,
      "duration": 0.0614,
      "velocity": 90,
      "chip": "ym2612"
    },
    {
      "channel": 0,
      "note": 69,
      "start": 24.7426,
      "duration": 0.1193,
      "velocity": 93,
      "chip": "ym2612"
    },
    {
      "channel": 1,
      "note": 76,
      "start": 24.7438,
      "duration": 0.0185,
      "velocity": 126,
      "chip": "ym2612"
    },
    {
      "channel": 4,
      "note": 67,
      "start": 24.7456,
      "duration": 0.0568,
      "velocity": 90,
      "chip": "ym2612"
    },
    {
      "channel": 4,
      "note": 79,
      "start": 24.803,
      "duration": 0.0652,
      "velocity": 90,
      "chip": "ym2612"
    },
    {
      "channel": 0,
      "note": 60,
      "start": 24.8624,
      "duration": 0.1184,
      "velocity": 93,
      "chip": "ym2612"
    },
    {
      "channel": 1,
      "note": 76,
      "start": 24.8661,
      "duration": 0.1161,
      "velocity": 126,
      "chip": "ym2612"
    },
    {
      "channel": 3,
      "note": 79,
      "start": 24.8671,
      "duration": 0.1159,
      "velocity": 99,
      "chip": "ym2612"
    },
    {
      "channel": 4,
      "note": 84,
      "start": 24.8688,
      "duration": 0.1149,
      "velocity": 90,
      "chip": "ym2612"
    },
    {
      "channel": 5,
      "note": 88,
      "start": 24.8698,
      "duration": 0.1146,
      "velocity": 99,
      "chip": "ym2612"
    },
    {
      "channel": 0,
      "note": 59,
      "start": 24.9814,
      "duration": 0.1188,
      "velocity": 93,
      "chip": "ym2612"
    },
    {
      "channel": 1,
      "note": 76,
      "start": 24.9828,
      "duration": 0.1221,
      "velocity": 121,
      "chip": "ym2612"
    },
    {
      "channel": 3,
      "note": 78,
      "start": 24.9836,
      "duration": 0.1221,
      "velocity": 99,
      "chip": "ym2612"
    },
    {
      "channel": 4,
      "note": 84,
      "start": 24.9842,
      "duration": 0.0577,
      "velocity": 90,
      "chip": "ym2612"
    },
    {
      "channel": 5,
      "note": 86,
      "start": 24.9849,
      "duration": 0.1216,
      "velocity": 99,
      "chip": "ym2612"
    },
    {
      "channel": 0,
      "note": 57,
      "start": 25.1008,
      "duration": 0.1188,
      "velocity": 93,
      "chip": "ym2612"
    },
    {
      "channel": 1,
      "note": 27,
      "start": 25.1056,
      "duration": 0.1179,
      "velocity": 126,
      "chip": "ym2612"
    },
    {
      "channel": 3,
      "note": 76,
      "start": 25.1063,
      "duration": 0.1179,
      "velocity": 99,
      "chip": "ym2612"
    },
    {
      "channel": 5,
      "note": 84,
      "start": 25.1072,
      "duration": 0.1184,
      "velocity": 99,
      "chip": "ym2612"
    },
    {
      "channel": 0,
      "note": 52,
      "start": 25.2202,
      "duration": 0.1189,
      "velocity": 93,
      "chip": "ym2612"
    },
    {
      "channel": 1,
      "note": 76,
      "start": 25.2241,
      "duration": 0.1195,
      "velocity": 105,
      "chip": "ym2612"
    },
    {
      "channel": 3,
      "note": 74,
      "start": 25.2248,
      "duration": 0.1195,
      "velocity": 99,
      "chip": "ym2612"
    },
    {
      "channel": 4,
      "note": 84,
      "start": 25.2254,
      "duration": 0.1197,
      "velocity": 90,
      "chip": "ym2612"
    },
    {
      "channel": 5,
      "note": 83,
      "start": 25.2262,
      "duration": 0.1197,
      "velocity": 99,
      "chip": "ym2612"
    },
    {
      "channel": 0,
      "note": 62,
      "start": 25.3397,
      "duration": 0.2381,
      "velocity": 93,
      "chip": "ym2612"
    },
    {
      "channel": 1,
      "note": 39,
      "start": 25.3442,
      "duration": 0.2349,
      "velocity": 105,
      "chip": "ym2612"
    },
    {
      "channel": 3,
      "note": 81,
      "start": 25.345,
      "duration": 0.2347,
      "velocity": 99,
      "chip": "ym2612"
    },
    {
      "channel": 4,
      "note": 79,
      "start": 25.3457,
      "duration": 0.0539,
      "velocity": 90,
      "chip": "ym2612"
    },
    {
      "channel": 5,
      "note": 89,
      "start": 25.3465,
      "duration": 0.234,
      "velocity": 99,
      "chip": "ym2612"
    },
    {
      "channel": 0,
      "note": 62,
      "start": 25.5783,
      "duration": 0.119,
      "velocity": 93,
      "chip": "ym2612"
    },
    {
      "channel": 1,
      "note": 39,
      "start": 25.5795,
      "duration": 0.1191,
      "velocity": 105,
      "chip": "ym2612"
    },
    {
      "channel": 3,
      "note": 69,
      "start": 25.5802,
      "duration": 0.1191,
      "velocity": 99,
      "chip": "ym2612"
    },
    {
      "channel": 5,
      "note": 77,
      "start": 25.5811,
      "duration": 0.1198,
      "velocity": 99,
      "chip": "ym2612"
    },
    {
      "channel": 0,
      "note": 62,
      "start": 25.6978,
      "duration": 0.1196,
      "velocity": 93,
      "chip": "ym2612"
    },
    {
      "channel": 1,
      "note": 39,
      "start": 25.6992,
      "duration": 0.119,
      "velocity": 105,
      "chip": "ym2612"
    },
    {
      "channel": 3,
      "note": 81,
      "start": 25.7,
      "duration": 0.1189,
      "velocity": 99,
      "chip": "ym2612"
    },
    {
      "channel": 4,
      "note": 86,
      "start": 25.7007,
      "duration": 0.1189,
      "velocity": 90,
      "chip": "ym2612"
    },
    {
      "channel": 5,
      "note": 89,
      "start": 25.7015,
      "duration": 0.1189,
      "velocity": 99,
      "chip": "ym2612"
    },
    {
      "channel": 0,
      "note": 60,
      "start": 25.818,
      "duration": 0.1388,
      "velocity": 93,
      "chip": "ym2612"
    },
    {
      "channel": 1,
      "note": 39,
      "start": 25.8187,
      "duration": 0.2414,
      "velocity": 127,
      "chip": "ym2612"
    },
    {
      "channel": 3,
      "note": 79,
      "start": 25.8195,
      "duration": 0.0973,
      "velocity": 99,
      "chip": "ym2612"
    },
    {
      "channel": 4,
      "note": 84,
      "start": 25.8203,
      "duration": 0.0572,
      "velocity": 90,
      "chip": "ym2612"
    },
    {
      "channel": 5,
      "note": 88,
      "start": 25.8211,
      "duration": 0.0961,
      "velocity": 99,
      "chip": "ym2612"
    },
    {
      "channel": 0,
      "note": 72,
      "start": 25.9574,
      "duration": 0.0988,
      "velocity": 93,
      "chip": "ym2612"
    },
    {
      "channel": 0,
      "note": 62,
      "start": 26.0569,
      "duration": 0.1384,
      "velocity": 93,
      "chip": "ym2612"
    },
    {
      "channel": 1,
      "note": 69,
      "start": 26.0607,
      "duration": 0.2355,
      "velocity": 127,
      "chip": "ym2612"
    },
    {
      "channel": 3,
      "note": 78,
      "start": 26.0615,
      "duration": 0.0941,
      "velocity": 99,
      "chip": "ym2612"
    },
    {
      "channel": 4,
      "note": 83,
      "start": 26.0623,
      "duration": 0.0538,
      "velocity": 90,
      "chip": "ym2612"
    },
    {
      "channel": 5,
      "note": 86,
      "start": 26.063,
      "duration": 0.0929,
      "velocity": 99,
      "chip": "ym2612"
    },
    {
      "channel": 0,
      "note": 74,
      "start": 26.1959,
      "duration": 0.099,
      "velocity": 93,
      "chip": "ym2612"
    },
    {
      "channel": 0,
      "note": 64,
      "start": 26.2954,
      "duration": 0.1181,
      "velocity": 93,
      "chip": "ym2612"
    },
    {
      "channel": 1,
      "note": 69,
      "start": 26.2969,
      "duration": 0.1174,
      "velocity": 127,
      "chip": "ym2612"
    },
    {
      "channel": 3,
      "note": 76,
      "start": 26.2976,
      "duration": 0.1174,
      "velocity": 99,
      "chip": "ym2612"
    },
    {
      "channel": 4,
      "note": 53,
      "start": 26.3019,
      "duration": 0.0735,
      "velocity": 127,
      "chip": "ym2612"
    },
    {
      "channel": 5,
      "note": 84,
      "start": 26.3027,
      "duration": 0.1134,
      "velocity": 99,
      "chip": "ym2612"
    },
    {
      "channel": 4,
      "note": 48,
      "start": 26.376,
      "duration": 0.079,
      "velocity": 127,
      "chip": "ym2612"
    },
    {
      "channel": 0,
      "note": 67,
      "start": 26.4141,
      "duration": 0.3588,
      "velocity": 93,
      "chip": "ym2612"
    },
    {
      "channel": 1,
      "note": 69,
      "start": 26.4149,
      "duration": 0.119,
      "velocity": 127,
      "chip": "ym2612"
    },
    {
      "channel": 3,
      "note": 74,
      "start": 26.4157,
      "duration": 0.3659,
      "velocity": 67,
      "chip": "ym2612"
    },
    {
      "channel": 5,
      "note": 83,
      "start": 26.4168,
      "duration": 0.373,
      "velocity": 67,
      "chip": "ym2612"
    },
    {
      "channel": 4,
      "note": 53,
      "start": 26.4556,
      "duration": 0.0801,
      "velocity": 127,
      "chip": "ym2612"
    },
    {
      "channel": 1,
      "note": 69,
      "start": 26.5345,
      "duration": 0.1188,
      "velocity": 127,
      "chip": "ym2612"
    },
    {
      "channel": 4,
      "note": 48,
      "start": 26.5362,
      "duration": 0.078,
      "velocity": 127,
      "chip": "ym2612"
    },
    {
      "channel": 4,
      "note": 53,
      "start": 26.6148,
      "duration": 0.079,
      "velocity": 127,
      "chip": "ym2612"
    },
    {
      "channel": 1,
      "note": 69,
      "start": 26.6539,
      "duration": 0.124,
      "velocity": 105,
      "chip": "ym2612"
    },
    {
      "channel": 4,
      "note": 48,
      "start": 26.6944,
      "duration": 0.0916,
      "velocity": 90,
      "chip": "ym2612"
    },
    {
      "channel": 0,
      "note": 57,
      "start": 26.7735,
      "duration": 0.2476,
      "velocity": 93,
      "chip": "ym2612"
    },
    {
      "channel": 1,
      "note": 39,
      "start": 26.7785,
      "duration": 0.2441,
      "velocity": 105,
      "chip": "ym2612"
    },
    {
      "channel": 3,
      "note": 81,
      "start": 26.7822,
      "duration": 0.1196,
      "velocity": 67,
      "chip": "ym2612"
    },
    {
      "channel": 4,
      "note": 69,
      "start": 26.7867,
      "duration": 0.0955,
      "velocity": 90,
      "chip": "ym2612"
    },
    {
      "channel": 5,
      "note": 84,
      "start": 26.7907,
      "duration": 0.1115,
      "velocity": 67,
      "chip": "ym2612"
    },
    {
      "channel": 0,
      "note": 57,
      "start": 27.0216,
      "duration": 0.119,
      "velocity": 93,
      "chip": "ym2612"
    },
    {
      "channel": 1,
      "note": 39,
      "start": 27.023,
      "duration": 0.1194,
      "velocity": 105,
      "chip": "ym2612"
    },
    {
      "channel": 4,
      "note": 76,
      "start": 27.0238,
      "duration": 0.0969,
      "velocity": 90,
      "chip": "ym2612"
    },
    {
      "channel": 0,
      "note": 67,
      "start": 27.1415,
      "duration": 0.1583,
      "velocity": 93,
      "chip": "ym2612"
    },
    {
      "channel": 1,
      "note": 39,
      "start": 27.1428,
      "duration": 0.237,
      "velocity": 105,
      "chip": "ym2612"
    },
    {
      "channel": 3,
      "note": 88,
      "start": 27.1443,
      "duration": 0.6033,
      "velocity": 98,
      "chip": "ym2612"
    },
    {
      "channel": 5,
      "note": 79,
      "start": 27.1451,
      "duration": 0.6071,
      "velocity": 98,
      "chip": "ym2612"
    },
    {
      "channel": 4,
      "note": 74,
      "start": 27.2609,
      "duration": 0.0989,
      "velocity": 90,
      "chip": "ym2612"
    },
    {
      "channel": 0,
      "note": 57,
      "start": 27.3003,
      "duration": 0.0983,
      "velocity": 93,
      "chip": "ym2612"
    },
    {
      "channel": 1,
      "note": 39,
      "start": 27.3802,
      "duration": 0.1228,
      "velocity": 126,
      "chip": "ym2612"
    },
    {
      "channel": 0,
      "note": 57,
      "start": 27.3993,
      "duration": 0.0996,
      "velocity": 93,
      "chip": "ym2612"
    },
    {
      "channel": 0,
      "note": 62,
      "start": 27.4994,
      "duration": 0.2385,
      "velocity": 93,
      "chip": "ym2612"
    },
    {
      "channel": 1,
      "note": 76,
      "start": 27.5037,
      "duration": 0.0146,
      "velocity": 126,
      "chip": "ym2612"
    },
    {
      "channel": 4,
      "note": 69,
      "start": 27.5047,
      "duration": 0.1151,
      "velocity": 90,
      "chip": "ym2612"
    },
    {
      "channel": 1,
      "note": 76,
      "start": 27.6193,
      "duration": 0.0184,
      "velocity": 126,
      "chip": "ym2612"
    },
    {
      "channel": 4,
      "note": 76,
      "start": 27.6204,
      "duration": 0.0973,
      "velocity": 90,
      "chip": "ym2612"
    },
    {
      "channel": 0,
      "note": 57,
      "start": 27.7385,
      "duration": 0.2381,
      "velocity": 93,
      "chip": "ym2612"
    },
    {
      "channel": 1,
      "note": 39,
      "start": 27.7435,
      "duration": 0.2344,
      "velocity": 105,
      "chip": "ym2612"
    },
    {
      "channel": 3,
      "note": 88,
      "start": 27.7482,
      "duration": 0.2304,
      "velocity": 98,
      "chip": "ym2612"
    },
    {
      "channel": 5,
      "note": 89,
      "start": 27.7529,
      "duration": 0.2268,
      "velocity": 98,
      "chip": "ym2612"
    },
    {
      "channel": 4,
      "note": 76,
      "start": 27.8577,
      "duration": 0.1212,
      "velocity": 90,
      "chip": "ym2612"
    },
    {
      "channel": 0,
      "note": 57,
      "start": 27.977,
      "duration": 0.1188,
      "velocity": 93,
      "chip": "ym2612"
    },
    {
      "channel": 1,
      "note": 39,
      "start": 27.9783,
      "duration": 0.119,
      "velocity": 105,
      "chip": "ym2612"
    },
    {
      "channel": 4,
      "note": 74,
      "start": 27.9795,
      "duration": 0.1202,
      "velocity": 90,
      "chip": "ym2612"
    },
    {
      "channel": 0,
      "note": 67,
      "start": 28.0964,
      "duration": 0.1585,
      "velocity": 93,
      "chip": "ym2612"
    },
    {
      "channel": 1,
      "note": 39,
      "start": 28.0978,
      "duration": 0.2373,
      "velocity": 105,
      "chip": "ym2612"
    },
    {
      "channel": 3,
      "note": 88,
      "start": 28.0995,
      "duration": 0.2363,
      "velocity": 98,
      "chip": "ym2612"
    },
    {
      "channel": 4,
      "note": 69,
      "start": 28.1003,
      "duration": 0.0952,
      "velocity": 90,
      "chip": "ym2612"
    },
    {
      "channel": 5,
      "note": 89,
      "start": 28.102,
      "duration": 0.2349,
      "velocity": 98,
      "chip": "ym2612"
    },
    {
      "channel": 4,
      "note": 83,
      "start": 28.1961,
      "duration": 0.0392,
      "velocity": 90,
      "chip": "ym2612"
    },
    {
      "channel": 4,
      "note": 84,
      "start": 28.236,
      "duration": 0.1,
      "velocity": 90,
      "chip": "ym2612"
    },
    {
      "channel": 0,
      "note": 57,
      "start": 28.2555,
      "duration": 0.0983,
      "velocity": 93,
      "chip": "ym2612"
    },
    {
      "channel": 1,
      "note": 39,
      "start": 28.3355,
      "duration": 0.1231,
      "velocity": 126,
      "chip": "ym2612"
    },
    {
      "channel": 4,
      "note": 84,
      "start": 28.3366,
      "duration": 0.1272,
      "velocity": 90,
      "chip": "ym2612"
    },
    {
      "channel": 0,
      "note": 57,
      "start": 28.3544,
      "duration": 0.0999,
      "velocity": 93,
      "chip": "ym2612"
    },
    {
      "channel": 0,
      "note": 62,
      "start": 28.4549,
      "duration": 0.2386,
      "velocity": 93,
      "chip": "ym2612"
    },
    {
      "channel": 1,
      "note": 76,
      "start": 28.4594,
      "duration": 0.0142,
      "velocity": 126,
      "chip": "ym2612"
    },
    {
      "channel": 3,
      "note": 86,
      "start": 28.4637,
      "duration": 0.1109,
      "velocity": 67,
      "chip": "ym2612"
    },
    {
      "channel": 4,
      "note": 103,
      "start": 28.4645,
      "duration": 0.089,
      "velocity": 90,
      "chip": "ym2612"
    },
    {
      "channel": 5,
      "note": 77,
      "start": 28.4683,
      "duration": 0.1072,
      "velocity": 67,
      "chip": "ym2612"
    },
    {
      "channel": 1,
      "note": 76,
      "start": 28.5744,
      "duration": 0.0187,
      "velocity": 126,
      "chip": "ym2612"
    },
    {
      "channel": 3,
      "note": 88,
      "start": 28.5752,
      "duration": 0.1245,
      "velocity": 67,
      "chip": "ym2612"
    },
    {
      "channel": 5,
      "note": 79,
      "start": 28.5763,
      "duration": 0.1257,
      "velocity": 67,
      "chip": "ym2612"
    },
    {
      "channel": 0,
      "note": 57,
      "start": 28.6941,
      "duration": 0.2374,
      "velocity": 93,
      "chip": "ym2612"
    },
    {
      "channel": 1,
      "note": 39,
      "start": 28.6989,
      "duration": 0.234,
      "velocity": 105,
      "chip": "ym2612"
    },
    {
      "channel": 3,
      "note": 89,
      "start": 28.7003,
      "duration": 0.1118,
      "velocity": 67,
      "chip": "ym2612"
    },
    {
      "channel": 4,
      "note": 69,
      "start": 28.7019,
      "duration": 0.0907,
      "velocity": 90,
      "chip": "ym2612"
    },
    {
      "channel": 5,
      "note": 81,
      "start": 28.7027,
      "duration": 0.1103,
      "velocity": 67,
      "chip": "ym2612"
    },
    {
      "channel": 3,
      "note": 89,
      "start": 28.8127,
      "duration": 0.0988,
      "velocity": 67,
      "chip": "ym2612"
    },
    {
      "channel": 5,
      "note": 81,
      "start": 28.8136,
      "duration": 0.0984,
      "velocity": 67,
      "chip": "ym2612"
    },
    {
      "channel": 0,
      "note": 57,
      "start": 28.932,
      "duration": 0.119,
      "velocity": 93,
      "chip": "ym2612"
    },
    {
      "channel": 1,
      "note": 39,
      "start": 28.9333,
      "duration": 0.1191,
      "velocity": 105,
      "chip": "ym2612"
    },
    {
      "channel": 4,
      "note": 76,
      "start": 28.9342,
      "duration": 0.097,
      "velocity": 90,
      "chip": "ym2612"
    },
    {
      "channel": 0,
      "note": 67,
      "start": 29.0515,
      "duration": 0.1588,
      "velocity": 93,
      "chip": "ym2612"
    },
    {
      "channel": 1,
      "note": 39,
      "start": 29.0529,
      "duration": 0.2376,
      "velocity": 105,
      "chip": "ym2612"
    },
    {
      "channel": 3,
      "note": 89,
      "start": 29.0535,
      "duration": 0.097,
      "velocity": 67,
      "chip": "ym2612"
    },
    {
      "channel": 5,
      "note": 81,
      "start": 29.0541,
      "duration": 0.0967,
      "velocity": 67,
      "chip": "ym2612"
    },
    {
      "channel": 4,
      "note": 74,
      "start": 29.171,
      "duration": 0.0989,
      "velocity": 90,
      "chip": "ym2612"
    },
    {
      "channel": 0,
      "note": 57,
      "start": 29.211,
      "duration": 0.098,
      "velocity": 93,
      "chip": "ym2612"
    },
    {
      "channel": 1,
      "note": 39,
      "start": 29.2909,
      "duration": 0.1227,
      "velocity": 126,
      "chip": "ym2612"
    },
    {
      "channel": 3,
      "note": 89,
      "start": 29.2915,
      "duration": 0.1229,
      "velocity": 67,
      "chip": "ym2612"
    },
    {
      "channel": 5,
      "note": 81,
      "start": 29.2921,
      "duration": 0.1238,
      "velocity": 67,
      "chip": "ym2612"
    },
    {
      "channel": 0,
      "note": 57,
      "start": 29.3096,
      "duration": 0.0995,
      "velocity": 93,
      "chip": "ym2612"
    },
    {
      "channel": 0,
      "note": 62,
      "start": 29.4097,
      "duration": 0.2385,
      "velocity": 93,
      "chip": "ym2612"
    },
    {
      "channel": 1,
      "note": 76,
      "start": 29.4142,
      "duration": 0.0145,
      "velocity": 126,
      "chip": "ym2612"
    },
    {
      "channel": 3,
      "note": 88,
      "start": 29.415,
      "duration": 0.0935,
      "velocity": 67,
      "chip": "ym2612"
    },
    {
      "channel": 4,
      "note": 69,
      "start": 29.4157,
      "duration": 0.1142,
      "velocity": 90,
      "chip": "ym2612"
    },
    {
      "channel": 5,
      "note": 79,
      "start": 29.4165,
      "duration": 0.0925,
      "velocity": 67,
      "chip": "ym2612"
    },
    {
      "channel": 1,
      "note": 76,
      "start": 29.5297,
      "duration": 0.0185,
      "velocity": 126,
      "chip": "ym2612"
    },
    {
      "channel": 4,
      "note": 76,
      "start": 29.5305,
      "duration": 0.0975,
      "velocity": 90,
      "chip": "ym2612"
    },
    {
      "channel": 0,
      "note": 57,
      "start": 29.6488,
      "duration": 0.238,
      "velocity": 93,
      "chip": "ym2612"
    },
    {
      "channel": 1,
      "note": 39,
      "start": 29.6535,
      "duration": 0.2346,
      "velocity": 105,
      "chip": "ym2612"
    },
    {
      "channel": 3,
      "note": 86,
      "start": 29.6543,
      "duration": 0.0932,
      "velocity": 67,
      "chip": "ym2612"
    },
    {
      "channel": 5,
      "note": 77,
      "start": 29.6551,
      "duration": 0.0927,
      "velocity": 67,
      "chip": "ym2612"
    },
    {
      "channel": 4,
      "note": 76,
      "start": 29.7678,
      "duration": 0.1217,
      "velocity": 90,
      "chip": "ym2612"
    },
    {
      "channel": 0,
      "note": 57,
      "start": 29.8871,
      "duration": 0.119,
      "velocity": 93,
      "chip": "ym2612"
    },
    {
      "channel": 1,
      "note": 39,
      "start": 29.8885,
      "duration": 0.1192,
      "velocity": 105,
      "chip": "ym2612"
    },
    {
      "channel": 3,
      "note": 88,
      "start": 29.8893,
      "duration": 0.0969,
      "velocity": 67,
      "chip": "ym2612"
    },
    {
      "channel": 4,
      "note": 74,
      "start": 29.89,
      "duration": 0.1183,
      "velocity": 90,
      "chip": "ym2612"
    },
    {
      "channel": 5,
      "note": 79,
      "start": 29.8908,
      "duration": 0.096,
      "velocity": 67,
      "chip": "ym2612"
    },
    {
      "channel": 0,
      "note": 69,
      "start": 30.0067,
      "duration": 0.1587,
      "velocity": 93,
      "chip": "ym2612"
    },
    {
      "channel": 1,
      "note": 39,
      "start": 30.0081,
      "duration": 0.2375,
      "velocity": 105,
      "chip": "ym2612"
    },
    {
      "channel": 4,
      "note": 76,
      "start": 30.009,
      "duration": 0.1176,
      "velocity": 90,
      "chip": "ym2612"
    },
    {
      "channel": 3,
      "note": 86,
      "start": 30.1263,
      "duration": 0.0788,
      "velocity": 67,
      "chip": "ym2612"
    },
    {
      "channel": 4,
      "note": 79,
      "start": 30.1272,
      "duration": 0.0585,
      "velocity": 90,
      "chip": "ym2612"
    },
    {
      "channel": 5,
      "note": 77,
      "start": 30.1282,
      "duration": 0.078,
      "velocity": 67,
      "chip": "ym2612"
    },
    {
      "channel": 0,
      "note": 57,
      "start": 30.166,
      "duration": 0.0983,
      "velocity": 93,
      "chip": "ym2612"
    },
    {
      "channel": 4,
      "note": 91,
      "start": 30.1863,
      "duration": 0.0603,
      "velocity": 90,
      "chip": "ym2612"
    },
    {
      "channel": 3,
      "note": 88,
      "start": 30.2057,
      "duration": 0.079,
      "velocity": 67,
      "chip": "ym2612"
    },
    {
      "channel": 5,
      "note": 79,
      "start": 30.2068,
      "duration": 0.079,
      "velocity": 67,
      "chip": "ym2612"
    },
    {
      "channel": 1,
      "note": 39,
      "start": 30.246,
      "duration": 0.1225,
      "velocity": 126,
      "chip": "ym2612"
    },
    {
      "channel": 4,
      "note": 76,
      "start": 30.2473,
      "duration": 0.0578,
      "velocity": 90,
      "chip": "ym2612"
    },
    {
      "channel": 0,
      "note": 57,
      "start": 30.2648,
      "duration": 0.0995,
      "velocity": 93,
      "chip": "ym2612"
    },
    {
      "channel": 3,
      "note": 86,
      "start": 30.2854,
      "duration": 0.084,
      "velocity": 67,
      "chip": "ym2612"
    },
    {
      "channel": 5,
      "note": 77,
      "start": 30.2864,
      "duration": 0.0846,
      "velocity": 67,
      "chip": "ym2612"
    },
    {
      "channel": 4,
      "note": 88,
      "start": 30.3056,
      "duration": 0.0646,
      "velocity": 90,
      "chip": "ym2612"
    },
    {
      "channel": 0,
      "note": 62,
      "start": 30.3649,
      "duration": 0.2385,
      "velocity": 93,
      "chip": "ym2612"
    },
    {
      "channel": 1,
      "note": 76,
      "start": 30.3692,
      "duration": 0.0147,
      "velocity": 126,
      "chip": "ym2612"
    },
    {
      "channel": 3,
      "note": 84,
      "start": 30.37,
      "duration": 0.115,
      "velocity": 67,
      "chip": "ym2612"
    },
    {
      "channel": 4,
      "note": 79,
      "start": 30.3709,
      "duration": 0.0534,
      "velocity": 90,
      "chip": "ym2612"
    },
    {
      "channel": 5,
      "note": 76,
      "start": 30.3716,
      "duration": 0.115,
      "velocity": 67,
      "chip": "ym2612"
    },
    {
      "channel": 4,
      "note": 91,
      "start": 30.4249,
      "duration": 0.061,
      "velocity": 90,
      "chip": "ym2612"
    },
    {
      "channel": 1,
      "note": 76,
      "start": 30.4848,
      "duration": 0.0185,
      "velocity": 126,
      "chip": "ym2612"
    },
    {
      "channel": 3,
      "note": 83,
      "start": 30.4856,
      "duration": 0.1234,
      "velocity": 67,
      "chip": "ym2612"
    },
    {
      "channel": 4,
      "note": 81,
      "start": 30.4865,
      "duration": 0.0572,
      "velocity": 90,
      "chip": "ym2612"
    },
    {
      "channel": 5,
      "note": 74,
      "start": 30.4873,
      "duration": 0.1242,
      "velocity": 67,
      "chip": "ym2612"
    },
    {
      "channel": 4,
      "note": 93,
      "start": 30.5443,
      "duration": 0.0664,
      "velocity": 90,
      "chip": "ym2612"
    },
    {
      "channel": 0,
      "note": 57,
      "start": 30.6041,
      "duration": 0.2379,
      "velocity": 93,
      "chip": "ym2612"
    },
    {
      "channel": 1,
      "note": 39,
      "start": 30.6088,
      "duration": 0.2345,
      "velocity": 105,
      "chip": "ym2612"
    },
    {
      "channel": 3,
      "note": 81,
      "start": 30.6096,
      "duration": 0.1129,
      "velocity": 67,
      "chip": "ym2612"
    },
    {
      "channel": 4,
      "note": 69,
      "start": 30.6113,
      "duration": 0.0917,
      "velocity": 90,
      "chip": "ym2612"
    },
    {
      "channel": 5,
      "note": 72,
      "start": 30.6123,
      "duration": 0.111,
      "velocity": 67,
      "chip": "ym2612"
    },
    {
      "channel": 3,
      "note": 81,
      "start": 30.7231,
      "duration": 0.1215,
      "velocity": 67,
      "chip": "ym2612"
    },
    {
      "channel": 5,
      "note": 72,
      "start": 30.7239,
      "duration": 0.1231,
      "velocity": 67,
      "chip": "ym2612"
    },
    {
      "channel": 0,
      "note": 57,
      "start": 30.8424,
      "duration": 0.119,
      "velocity": 93,
      "chip": "ym2612"
    },
    {
      "channel": 1,
      "note": 39,
      "start": 30.8437,
      "duration": 0.1194,
      "velocity": 105,
      "chip": "ym2612"
    },
    {
      "channel": 3,
      "note": 76,
      "start": 30.8451,
      "duration": 0.1193,
      "velocity": 67,
      "chip": "ym2612"
    },
    {
      "channel": 4,
      "note": 76,
      "start": 30.8462,
      "duration": 0.0955,
      "velocity": 90,
      "chip": "ym2612"
    },
    {
      "channel": 5,
      "note": 67,
      "start": 30.8476,
      "duration": 0.1183,
      "velocity": 67,
      "chip": "ym2612"
    },
    {
      "channel": 0,
      "note": 67,
      "start": 30.962,
      "duration": 0.1585,
      "velocity": 93,
      "chip": "ym2612"
    },
    {
      "channel": 1,
      "note": 39,
      "start": 30.9636,
      "duration": 0.237,
      "velocity": 105,
      "chip": "ym2612"
    },
    {
      "channel": 3,
      "note": 81,
      "start": 30.965,
      "duration": 0.1157,
      "velocity": 67,
      "chip": "ym2612"
    },
    {
      "channel": 5,
      "note": 72,
      "start": 30.9665,
      "duration": 0.1157,
      "velocity": 67,
      "chip": "ym2612"
    },
    {
      "channel": 3,
      "note": 81,
      "start": 31.0813,
      "duration": 0.1198,
      "velocity": 67,
      "chip": "ym2612"
    },
    {
      "channel": 4,
      "note": 74,
      "start": 31.0821,
      "duration": 0.0987,
      "velocity": 90,
      "chip": "ym2612"
    },
    {
      "channel": 5,
      "note": 72,
      "start": 31.0828,
      "duration": 0.1191,
      "velocity": 67,
      "chip": "ym2612"
    },
    {
      "channel": 0,
      "note": 57,
      "start": 31.1211,
      "duration": 0.0983,
      "velocity": 93,
      "chip": "ym2612"
    },
    {
      "channel": 1,
      "note": 39,
      "start": 31.201,
      "duration": 0.1228,
      "velocity": 126,
      "chip": "ym2612"
    },
    {
      "channel": 3,
      "note": 79,
      "start": 31.2017,
      "duration": 0.1228,
      "velocity": 67,
      "chip": "ym2612"
    },
    {
      "channel": 5,
      "note": 71,
      "start": 31.2026,
      "duration": 0.1235,
      "velocity": 67,
      "chip": "ym2612"
    },
    {
      "channel": 0,
      "note": 57,
      "start": 31.22,
      "duration": 0.0996,
      "velocity": 93,
      "chip": "ym2612"
    },
    {
      "channel": 0,
      "note": 62,
      "start": 31.3202,
      "duration": 0.2385,
      "velocity": 93,
      "chip": "ym2612"
    },
    {
      "channel": 1,
      "note": 76,
      "start": 31.3244,
      "duration": 0.0147,
      "velocity": 126,
      "chip": "ym2612"
    },
    {
      "channel": 3,
      "note": 76,
      "start": 31.3252,
      "duration": 0.2393,
      "velocity": 67,
      "chip": "ym2612"
    },
    {
      "channel": 4,
      "note": 69,
      "start": 31.3259,
      "duration": 0.1146,
      "velocity": 90,
      "chip": "ym2612"
    },
    {
      "channel": 5,
      "note": 67,
      "start": 31.3267,
      "duration": 0.2386,
      "velocity": 67,
      "chip": "ym2612"
    },
    {
      "channel": 1,
      "note": 76,
      "start": 31.44,
      "duration": 0.0185,
      "velocity": 126,
      "chip": "ym2612"
    },
    {
      "channel": 4,
      "note": 76,
      "start": 31.4411,
      "duration": 0.0974,
      "velocity": 90,
      "chip": "ym2612"
    },
    {
      "channel": 0,
      "note": 57,
      "start": 31.5593,
      "duration": 0.2382,
      "velocity": 93,
      "chip": "ym2612"
    },
    {
      "channel": 1,
      "note": 39,
      "start": 31.5643,
      "duration": 0.2345,
      "velocity": 105,
      "chip": "ym2612"
    },
    {
      "channel": 3,
      "note": 81,
      "start": 31.5651,
      "duration": 0.1133,
      "velocity": 67,
      "chip": "ym2612"
    },
    {
      "channel": 5,
      "note": 72,
      "start": 31.5659,
      "duration": 0.1147,
      "velocity": 67,
      "chip": "ym2612"
    },
    {
      "channel": 3,
      "note": 76,
      "start": 31.679,
      "duration": 0.1211,
      "velocity": 67,
      "chip": "ym2612"
    },
    {
      "channel": 4,
      "note": 76,
      "start": 31.6795,
      "duration": 0.1213,
      "velocity": 90,
      "chip": "ym2612"
    },
    {
      "channel": 5,
      "note": 67,
      "start": 31.6812,
      "duration": 0.121,
      "velocity": 67,
      "chip": "ym2612"
    },
    {
      "channel": 0,
      "note": 57,
      "start": 31.7979,
      "duration": 0.1186,
      "velocity": 93,
      "chip": "ym2612"
    },
    {
      "channel": 1,
      "note": 39,
      "start": 31.7992,
      "duration": 0.1188,
      "velocity": 105,
      "chip": "ym2612"
    },
    {
      "channel": 3,
      "note": 83,
      "start": 31.8007,
      "duration": 0.1186,
      "velocity": 67,
      "chip": "ym2612"
    },
    {
      "channel": 4,
      "note": 74,
      "start": 31.8014,
      "duration": 0.1188,
      "velocity": 90,
      "chip": "ym2612"
    },
    {
      "channel": 5,
      "note": 74,
      "start": 31.8028,
      "duration": 0.1188,
      "velocity": 67,
      "chip": "ym2612"
    },
    {
      "channel": 0,
      "note": 67,
      "start": 31.9171,
      "duration": 0.1586,
      "velocity": 93,
      "chip": "ym2612"
    },
    {
      "channel": 1,
      "note": 39,
      "start": 31.9185,
      "duration": 0.2373,
      "velocity": 105,
      "chip": "ym2612"
    },
    {
      "channel": 3,
      "note": 76,
      "start": 31.9199,
      "duration": 0.1166,
      "velocity": 67,
      "chip": "ym2612"
    },
    {
      "channel": 4,
      "note": 69,
      "start": 31.9208,
      "duration": 0.1165,
      "velocity": 90,
      "chip": "ym2612"
    },
    {
      "channel": 5,
      "note": 67,
      "start": 31.9222,
      "duration": 0.1166,
      "velocity": 67,
      "chip": "ym2612"
    },
    {
      "channel": 3,
      "note": 84,
      "start": 32.0372,
      "duration": 0.2426,
      "velocity": 67,
      "chip": "ym2612"
    },
    {
      "channel": 4,
      "note": 72,
      "start": 32.0379,
      "duration": 0.1188,
      "velocity": 90,
      "chip": "ym2612"
    },
    {
      "channel": 5,
      "note": 76,
      "start": 32.0393,
      "duration": 0.2423,
      "velocity": 67,
      "chip": "ym2612"
    },
    {
      "channel": 0,
      "note": 57,
      "start": 32.0763,
      "duration": 0.0983,
      "velocity": 93,
      "chip": "ym2612"
    },
    {
      "channel": 1,
      "note": 39,
      "start": 32.1562,
      "duration": 0.1228,
      "velocity": 126,
      "chip": "ym2612"
    },
    {
      "channel": 4,
      "note": 72,
      "start": 32.1573,
      "duration": 0.1236,
      "velocity": 90,
      "chip": "ym2612"
    },
    {
      "channel": 0,
      "note": 57,
      "start": 32.1751,
      "duration": 0.0996,
      "velocity": 93,
      "chip": "ym2612"
    },
    {
      "channel": 0,
      "note": 62,
      "start": 32.2754,
      "duration": 0.2388,
      "velocity": 93,
      "chip": "ym2612"
    },
    {
      "channel": 1,
      "note": 76,
      "start": 32.2796,
      "duration": 0.0147,
      "velocity": 126,
      "chip": "ym2612"
    },
    {
      "channel": 3,
      "note": 88,
      "start": 32.2803,
      "duration": 0.115,
      "velocity": 67,
      "chip": "ym2612"
    },
    {
      "channel": 4,
      "note": 93,
      "start": 32.2815,
      "duration": 0.0531,
      "velocity": 90,
      "chip": "ym2612"
    },
    {
      "channel": 5,
      "note": 79,
      "start": 32.2823,
      "duration": 0.1148,
      "velocity": 67,
      "chip": "ym2612"
    },
    {
      "channel": 4,
      "note": 105,
      "start": 32.3353,
      "duration": 0.061,
      "velocity": 90,
      "chip": "ym2612"
    },
    {
      "channel": 1,
      "note": 76,
      "start": 32.3952,
      "duration": 0.0184,
      "velocity": 126,
      "chip": "ym2612"
    },
    {
      "channel": 3,
      "note": 88,
      "start": 32.396,
      "duration": 0.1239,
      "velocity": 67,
      "chip": "ym2612"
    },
    {
      "channel": 4,
      "note": 93,
      "start": 32.3969,
      "duration": 0.057,
      "velocity": 90,
      "chip": "ym2612"
    },
    {
      "channel": 5,
      "note": 79,
      "start": 32.3979,
      "duration": 0.1246,
      "velocity": 67,
      "chip": "ym2612"
    },
    {
      "channel": 4,
      "note": 105,
      "start": 32.4546,
      "duration": 0.0671,
      "velocity": 90,
      "chip": "ym2612"
    },
    {
      "channel": 0,
      "note": 57,
      "start": 32.515,
      "duration": 0.2373,
      "velocity": 93,
      "chip": "ym2612"
    },
    {
      "channel": 1,
      "note": 39,
      "start": 32.5198,
      "duration": 0.2339,
      "velocity": 105,
      "chip": "ym2612"
    },
    {
      "channel": 3,
      "note": 91,
      "start": 32.5205,
      "duration": 0.1123,
      "velocity": 67,
      "chip": "ym2612"
    },
    {
      "channel": 4,
      "note": 69,
      "start": 32.5223,
      "duration": 0.0911,
      "velocity": 90,
      "chip": "ym2612"
    },
    {
      "channel": 5,
      "note": 83,
      "start": 32.5231,
      "duration": 0.1106,
      "velocity": 67,
      "chip": "ym2612"
    },
    {
      "channel": 3,
      "note": 91,
      "start": 32.6335,
      "duration": 0.0992,
      "velocity": 67,
      "chip": "ym2612"
    },
    {
      "channel": 5,
      "note": 83,
      "start": 32.6343,
      "duration": 0.0987,
      "velocity": 67,
      "chip": "ym2612"
    },
    {
      "channel": 0,
      "note": 57,
      "start": 32.7527,
      "duration": 0.119,
      "velocity": 93,
      "chip": "ym2612"
    },
    {
      "channel": 1,
      "note": 39,
      "start": 32.7541,
      "duration": 0.1192,
      "velocity": 105,
      "chip": "ym2612"
    },
    {
      "channel": 4,
      "note": 76,
      "start": 32.7549,
      "duration": 0.0969,
      "velocity": 90,
      "chip": "ym2612"
    },
    {
      "channel": 0,
      "note": 67,
      "start": 32.8723,
      "duration": 0.1586,
      "velocity": 93,
      "chip": "ym2612"
    },
    {
      "channel": 1,
      "note": 39,
      "start": 32.8737,
      "duration": 0.2373,
      "velocity": 105,
      "chip": "ym2612"
    },
    {
      "channel": 3,
      "note": 91,
      "start": 32.8743,
      "duration": 0.0969,
      "velocity": 67,
      "chip": "ym2612"
    },
    {
      "channel": 5,
      "note": 83,
      "start": 32.8749,
      "duration": 0.0966,
      "velocity": 67,
      "chip": "ym2612"
    },
    {
      "channel": 4,
      "note": 74,
      "start": 32.9918,
      "duration": 0.0988,
      "velocity": 90,
      "chip": "ym2612"
    },
    {
      "channel": 0,
      "note": 57,
      "start": 33.0315,
      "duration": 0.0982,
      "velocity": 93,
      "chip": "ym2612"
    },
    {
      "channel": 1,
      "note": 39,
      "start": 33.1114,
      "duration": 0.1229,
      "velocity": 126,
      "chip": "ym2612"
    },
    {
      "channel": 3,
      "note": 91,
      "start": 33.112,
      "duration": 0.1231,
      "velocity": 67,
      "chip": "ym2612"
    },
    {
      "channel": 5,
      "note": 83,
      "start": 33.1126,
      "duration": 0.124,
      "velocity": 67,
      "chip": "ym2612"
    },
    {
      "channel": 0,
      "note": 57,
      "start": 33.1303,
      "duration": 0.0995,
      "velocity": 93,
      "chip": "ym2612"
    },
    {
      "channel": 0,
      "note": 62,
      "start": 33.2305,
      "duration": 0.2385,
      "velocity": 93,
      "chip": "ym2612"
    },
    {
      "channel": 1,
      "note": 76,
      "start": 33.2349,
      "duration": 0.0147,
      "velocity": 126,
      "chip": "ym2612"
    },
    {
      "channel": 3,
      "note": 91,
      "start": 33.2357,
      "duration": 0.238,
      "velocity": 67,
      "chip": "ym2612"
    },
    {
      "channel": 4,
      "note": 69,
      "start": 33.2365,
      "duration": 0.1151,
      "velocity": 90,
      "chip": "ym2612"
    },
    {
      "channel": 5,
      "note": 83,
      "start": 33.2373,
      "duration": 0.2373,
      "velocity": 67,
      "chip": "ym2612"
    },
    {
      "channel": 1,
      "note": 76,
      "start": 33.3507,
      "duration": 0.0181,
      "velocity": 126,
      "chip": "ym2612"
    },
    {
      "channel": 4,
      "note": 76,
      "start": 33.3522,
      "duration": 0.0969,
      "velocity": 90,
      "chip": "ym2612"
    },
    {
      "channel": 0,
      "note": 57,
      "start": 33.4695,
      "duration": 0.2379,
      "velocity": 93,
      "chip": "ym2612"
    },
    {
      "channel": 1,
      "note": 39,
      "start": 33.4735,
      "duration": 0.2351,
      "velocity": 105,
      "chip": "ym2612"
    },
    {
      "channel": 3,
      "note": 88,
      "start": 33.4744,
      "duration": 0.7129,
      "velocity": 67,
      "chip": "ym2612"
    },
    {
      "channel": 5,
      "note": 79,
      "start": 33.4752,
      "duration": 0.7137,
      "velocity": 67,
      "chip": "ym2612"
    },
    {
      "channel": 4,
      "note": 76,
      "start": 33.5888,
      "duration": 0.1207,
      "velocity": 90,
      "chip": "ym2612"
    },
    {
      "channel": 0,
      "note": 57,
      "start": 33.7079,
      "duration": 0.1191,
      "velocity": 93,
      "chip": "ym2612"
    },
    {
      "channel": 1,
      "note": 39,
      "start": 33.7091,
      "duration": 0.1193,
      "velocity": 105,
      "chip": "ym2612"
    },
    {
      "channel": 4,
      "note": 74,
      "start": 33.7102,
      "duration": 0.1193,
      "velocity": 90,
      "chip": "ym2612"
    },
    {
      "channel": 0,
      "note": 67,
      "start": 33.8275,
      "duration": 0.1585,
      "velocity": 93,
      "chip": "ym2612"
    },
    {
      "channel": 1,
      "note": 39,
      "start": 33.8289,
      "duration": 0.1209,
      "velocity": 127,
      "chip": "ym2612"
    },
    {
      "channel": 4,
      "note": 76,
      "start": 33.8301,
      "duration": 0.121,
      "velocity": 90,
      "chip": "ym2612"
    },
    {
      "channel": 1,
      "note": 69,
      "start": 33.9505,
      "duration": 0.0559,
      "velocity": 127,
      "chip": "ym2612"
    },
    {
      "channel": 4,
      "note": 72,
      "start": 33.9517,
      "duration": 0.0559,
      "velocity": 90,
      "chip": "ym2612"
    },
    {
      "channel": 0,
      "note": 60,
      "start": 33.9866,
      "duration": 0.0982,
      "velocity": 93,
      "chip": "ym2612"
    },
    {
      "channel": 1,
      "note": 69,
      "start": 34.007,
      "duration": 0.0584,
      "velocity": 127,
      "chip": "ym2612"
    },
    {
      "channel": 4,
      "note": 84,
      "start": 34.0082,
      "duration": 0.0586,
      "velocity": 90,
      "chip": "ym2612"
    },
    {
      "channel": 1,
      "note": 69,
      "start": 34.0659,
      "duration": 0.0598,
      "velocity": 127,
      "chip": "ym2612"
    },
    {
      "channel": 4,
      "note": 72,
      "start": 34.0674,
      "duration": 0.0595,
      "velocity": 90,
      "chip": "ym2612"
    },
    {
      "channel": 0,
      "note": 60,
      "start": 34.0855,
      "duration": 0.0996,
      "velocity": 93,
      "chip": "ym2612"
    },
    {
      "channel": 1,
      "note": 69,
      "start": 34.1263,
      "duration": 0.0602,
      "velocity": 127,
      "chip": "ym2612"
    },
    {
      "channel": 4,
      "note": 84,
      "start": 34.1275,
      "duration": 0.0606,
      "velocity": 90,
      "chip": "ym2612"
    },
    {
      "channel": 0,
      "note": 62,
      "start": 34.1857,
      "duration": 0.2386,
      "velocity": 93,
      "chip": "ym2612"
    },
    {
      "channel": 1,
      "note": 69,
      "start": 34.1871,
      "duration": 0.058,
      "velocity": 127,
      "chip": "ym2612"
    },
    {
      "channel": 3,
      "note": 84,
      "start": 34.1879,
      "duration": 0.118,
      "velocity": 67,
      "chip": "ym2612"
    },
    {
      "channel": 4,
      "note": 69,
      "start": 34.1888,
      "duration": 0.0575,
      "velocity": 90,
      "chip": "ym2612"
    },
    {
      "channel": 5,
      "note": 88,
      "start": 34.1895,
      "duration": 0.118,
      "velocity": 67,
      "chip": "ym2612"
    },
    {
      "channel": 1,
      "note": 69,
      "start": 34.2457,
      "duration": 0.0595,
      "velocity": 127,
      "chip": "ym2612"
    },
    {
      "channel": 4,
      "note": 81,
      "start": 34.2469,
      "duration": 0.0599,
      "velocity": 90,
      "chip": "ym2612"
    },
    {
      "channel": 1,
      "note": 69,
      "start": 34.3058,
      "duration": 0.0587,
      "velocity": 127,
      "chip": "ym2612"
    },
    {
      "channel": 3,
      "note": 83,
      "start": 34.3066,
      "duration": 0.1233,
      "velocity": 67,
      "chip": "ym2612"
    },
    {
      "channel": 4,
      "note": 69,
      "start": 34.3074,
      "duration": 0.0589,
      "velocity": 90,
      "chip": "ym2612"
    },
    {
      "channel": 5,
      "note": 86,
      "start": 34.3082,
      "duration": 0.1241,
      "velocity": 67,
      "chip": "ym2612"
    },
    {
      "channel": 1,
      "note": 69,
      "start": 34.3651,
      "duration": 0.0639,
      "velocity": 105,
      "chip": "ym2612"
    },
    {
      "channel": 4,
      "note": 81,
      "start": 34.3673,
      "duration": 0.0642,
      "velocity": 90,
      "chip": "ym2612"
    },
    {
      "channel": 0,
      "note": 57,
      "start": 34.4249,
      "duration": 0.2377,
      "velocity": 93,
      "chip": "ym2612"
    },
    {
      "channel": 1,
      "note": 39,
      "start": 34.4296,
      "duration": 0.2344,
      "velocity": 105,
      "chip": "ym2612"
    },
    {
      "channel": 3,
      "note": 81,
      "start": 34.4305,
      "duration": 0.1127,
      "velocity": 67,
      "chip": "ym2612"
    },
    {
      "channel": 4,
      "note": 69,
      "start": 34.4321,
      "duration": 0.0916,
      "velocity": 90,
      "chip": "ym2612"
    },
    {
      "channel": 5,
      "note": 84,
      "start": 34.433,
      "duration": 0.1106,
      "velocity": 67,
      "chip": "ym2612"
    },
    {
      "channel": 0,
      "note": 57,
      "start": 34.6631,
      "duration": 0.1191,
      "velocity": 93,
      "chip": "ym2612"
    },
    {
      "channel": 1,
      "note": 39,
      "start": 34.6644,
      "duration": 0.1193,
      "velocity": 105,
      "chip": "ym2612"
    },
    {
      "channel": 4,
      "note": 76,
      "start": 34.6652,
      "duration": 0.097,
      "velocity": 90,
      "chip": "ym2612"
    },
    {
      "channel": 0,
      "note": 67,
      "start": 34.7827,
      "duration": 0.1586,
      "velocity": 93,
      "chip": "ym2612"
    },
    {
      "channel": 1,
      "note": 39,
      "start": 34.7844,
      "duration": 0.237,
      "velocity": 105,
      "chip": "ym2612"
    },
    {
      "channel": 3,
      "note": 88,
      "start": 34.7858,
      "duration": 0.6032,
      "velocity": 98,
      "chip": "ym2612"
    },
    {
      "channel": 5,
      "note": 79,
      "start": 34.7866,
      "duration": 0.607,
      "velocity": 98,
      "chip": "ym2612"
    },
    {
      "channel": 4,
      "note": 74,
      "start": 34.9027,
      "duration": 0.0989,
      "velocity": 90,
      "chip": "ym2612"
    },
    {
      "channel": 0,
      "note": 57,
      "start": 34.9419,
      "duration": 0.0983,
      "velocity": 93,
      "chip": "ym2612"
    },
    {
      "channel": 1,
      "note": 39,
      "start": 35.0217,
      "duration": 0.1227,
      "velocity": 126,
      "chip": "ym2612"
    },
    {
      "channel": 0,
      "note": 57,
      "start": 35.0407,
      "duration": 0.0995,
      "velocity": 93,
      "chip": "ym2612"
    },
    {
      "channel": 0,
      "note": 62,
      "start": 35.1409,
      "duration": 0.2385,
      "velocity": 93,
      "chip": "ym2612"
    },
    {
      "channel": 1,
      "note": 76,
      "start": 35.1451,
      "duration": 0.0147,
      "velocity": 126,
      "chip": "ym2612"
    },
    {
      "channel": 4,
      "note": 69,
      "start": 35.1462,
      "duration": 0.1151,
      "velocity": 90,
      "chip": "ym2612"
    },
    {
      "channel": 1,
      "note": 76,
      "start": 35.2608,
      "duration": 0.0184,
      "velocity": 126,
      "chip": "ym2612"
    },
    {
      "channel": 4,
      "note": 76,
      "start": 35.2619,
      "duration": 0.0973,
      "velocity": 90,
      "chip": "ym2612"
    },
    {
      "channel": 0,
      "note": 57,
      "start": 35.3799,
      "duration": 0.2379,
      "velocity": 93,
      "chip": "ym2612"
    },
    {
      "channel": 1,
      "note": 39,
      "start": 35.3849,
      "duration": 0.2346,
      "velocity": 105,
      "chip": "ym2612"
    },
    {
      "channel": 3,
      "note": 88,
      "start": 35.3896,
      "duration": 0.2305,
      "velocity": 98,
      "chip": "ym2612"
    },
    {
      "channel": 5,
      "note": 89,
      "start": 35.3943,
      "duration": 0.227,
      "velocity": 98,
      "chip": "ym2612"
    },
    {
      "channel": 4,
      "note": 76,
      "start": 35.4995,
      "duration": 0.121,
      "velocity": 90,
      "chip": "ym2612"
    },
    {
      "channel": 0,
      "note": 57,
      "start": 35.6183,
      "duration": 0.119,
      "velocity": 93,
      "chip": "ym2612"
    },
    {
      "channel": 1,
      "note": 39,
      "start": 35.6199,
      "duration": 0.1189,
      "velocity": 105,
      "chip": "ym2612"
    },
    {
      "channel": 4,
      "note": 74,
      "start": 35.621,
      "duration": 0.1201,
      "velocity": 90,
      "chip": "ym2612"
    },
    {
      "channel": 0,
      "note": 67,
      "start": 35.7379,
      "duration": 0.1586,
      "velocity": 93,
      "chip": "ym2612"
    },
    {
      "channel": 1,
      "note": 39,
      "start": 35.7393,
      "duration": 0.2373,
      "velocity": 105,
      "chip": "ym2612"
    },
    {
      "channel": 3,
      "note": 88,
      "start": 35.7409,
      "duration": 0.2363,
      "velocity": 98,
      "chip": "ym2612"
    },
    {
      "channel": 4,
      "note": 69,
      "start": 35.7418,
      "duration": 0.0953,
      "velocity": 90,
      "chip": "ym2612"
    },
    {
      "channel": 5,
      "note": 89,
      "start": 35.7435,
      "duration": 0.2349,
      "velocity": 98,
      "chip": "ym2612"
    },
    {
      "channel": 4,
      "note": 83,
      "start": 35.8377,
      "duration": 0.0391,
      "velocity": 90,
      "chip": "ym2612"
    },
    {
      "channel": 4,
      "note": 84,
      "start": 35.8775,
      "duration": 0.1,
      "velocity": 90,
      "chip": "ym2612"
    },
    {
      "channel": 0,
      "note": 57,
      "start": 35.8971,
      "duration": 0.0983,
      "velocity": 93,
      "chip": "ym2612"
    },
    {
      "channel": 1,
      "note": 39,
      "start": 35.9769,
      "duration": 0.1227,
      "velocity": 126,
      "chip": "ym2612"
    },
    {
      "channel": 4,
      "note": 84,
      "start": 35.9781,
      "duration": 0.1269,
      "velocity": 90,
      "chip": "ym2612"
    },
    {
      "channel": 0,
      "note": 57,
      "start": 35.9959,
      "duration": 0.0995,
      "velocity": 93,
      "chip": "ym2612"
    },
    {
      "channel": 0,
      "note": 62,
      "start": 36.0961,
      "duration": 0.2388,
      "velocity": 93,
      "chip": "ym2612"
    },
    {
      "channel": 1,
      "note": 76,
      "start": 36.1003,
      "duration": 0.0151,
      "velocity": 126,
      "chip": "ym2612"
    },
    {
      "channel": 3,
      "note": 86,
      "start": 36.1048,
      "duration": 0.1113,
      "velocity": 67,
      "chip": "ym2612"
    },
    {
      "channel": 4,
      "note": 103,
      "start": 36.1056,
      "duration": 0.0894,
      "velocity": 90,
      "chip": "ym2612"
    },
    {
      "channel": 5,
      "note": 77,
      "start": 36.1094,
      "duration": 0.1076,
      "velocity": 67,
      "chip": "ym2612"
    },
    {
      "channel": 1,
      "note": 76,
      "start": 36.216,
      "duration": 0.0185,
      "velocity": 126,
      "chip": "ym2612"
    },
    {
      "channel": 3,
      "note": 88,
      "start": 36.2167,
      "duration": 0.1246,
      "velocity": 67,
      "chip": "ym2612"
    },
    {
      "channel": 5,
      "note": 79,
      "start": 36.2176,
      "duration": 0.1261,
      "velocity": 67,
      "chip": "ym2612"
    },
    {
      "channel": 0,
      "note": 57,
      "start": 36.3355,
      "duration": 0.2375,
      "velocity": 93,
      "chip": "ym2612"
    },
    {
      "channel": 1,
      "note": 39,
      "start": 36.3405,
      "duration": 0.2339,
      "velocity": 105,
      "chip": "ym2612"
    },
    {
      "channel": 3,
      "note": 89,
      "start": 36.3419,
      "duration": 0.1119,
      "velocity": 67,
      "chip": "ym2612"
    },
    {
      "channel": 4,
      "note": 69,
      "start": 36.3435,
      "duration": 0.0905,
      "velocity": 90,
      "chip": "ym2612"
    },
    {
      "channel": 5,
      "note": 81,
      "start": 36.3442,
      "duration": 0.1104,
      "velocity": 67,
      "chip": "ym2612"
    },
    {
      "channel": 3,
      "note": 89,
      "start": 36.4545,
      "duration": 0.0989,
      "velocity": 67,
      "chip": "ym2612"
    },
    {
      "channel": 5,
      "note": 81,
      "start": 36.4553,
      "duration": 0.0984,
      "velocity": 67,
      "chip": "ym2612"
    },
    {
      "channel": 0,
      "note": 57,
      "start": 36.5734,
      "duration": 0.119,
      "velocity": 93,
      "chip": "ym2612"
    },
    {
      "channel": 1,
      "note": 39,
      "start": 36.5748,
      "duration": 0.1192,
      "velocity": 105,
      "chip": "ym2612"
    },
    {
      "channel": 4,
      "note": 76,
      "start": 36.5756,
      "duration": 0.097,
      "velocity": 90,
      "chip": "ym2612"
    },
    {
      "channel": 0,
      "note": 67,
      "start": 36.693,
      "duration": 0.1586,
      "velocity": 93,
      "chip": "ym2612"
    },
    {
      "channel": 1,
      "note": 39,
      "start": 36.6944,
      "duration": 0.2373,
      "velocity": 105,
      "chip": "ym2612"
    },
    {
      "channel": 3,
      "note": 89,
      "start": 36.695,
      "duration": 0.0969,
      "velocity": 67,
      "chip": "ym2612"
    },
    {
      "channel": 5,
      "note": 81,
      "start": 36.6956,
      "duration": 0.0966,
      "velocity": 67,
      "chip": "ym2612"
    },
    {
      "channel": 4,
      "note": 74,
      "start": 36.8125,
      "duration": 0.099,
      "velocity": 90,
      "chip": "ym2612"
    },
    {
      "channel": 0,
      "note": 57,
      "start": 36.8522,
      "duration": 0.0984,
      "velocity": 93,
      "chip": "ym2612"
    },
    {
      "channel": 1,
      "note": 39,
      "start": 36.9321,
      "duration": 0.123,
      "velocity": 126,
      "chip": "ym2612"
    },
    {
      "channel": 3,
      "note": 89,
      "start": 36.9327,
      "duration": 0.1232,
      "velocity": 67,
      "chip": "ym2612"
    },
    {
      "channel": 5,
      "note": 81,
      "start": 36.9334,
      "duration": 0.1241,
      "velocity": 67,
      "chip": "ym2612"
    },
    {
      "channel": 0,
      "note": 57,
      "start": 36.9512,
      "duration": 0.0994,
      "velocity": 93,
      "chip": "ym2612"
    },
    {
      "channel": 0,
      "note": 62,
      "start": 37.0512,
      "duration": 0.2385,
      "velocity": 93,
      "chip": "ym2612"
    },
    {
      "channel": 1,
      "note": 76,
      "start": 37.0557,
      "duration": 0.0147,
      "velocity": 126,
      "chip": "ym2612"
    },
    {
      "channel": 3,
      "note": 88,
      "start": 37.0565,
      "duration": 0.0934,
      "velocity": 67,
      "chip": "ym2612"
    },
    {
      "channel": 4,
      "note": 69,
      "start": 37.0573,
      "duration": 0.1143,
      "velocity": 90,
      "chip": "ym2612"
    },
    {
      "channel": 5,
      "note": 79,
      "start": 37.058,
      "duration": 0.0924,
      "velocity": 67,
      "chip": "ym2612"
    },
    {
      "channel": 1,
      "note": 76,
      "start": 37.1714,
      "duration": 0.0182,
      "velocity": 126,
      "chip": "ym2612"
    },
    {
      "channel": 4,
      "note": 76,
      "start": 37.1722,
      "duration": 0.0971,
      "velocity": 90,
      "chip": "ym2612"
    },
    {
      "channel": 0,
      "note": 57,
      "start": 37.2903,
      "duration": 0.238,
      "velocity": 93,
      "chip": "ym2612"
    },
    {
      "channel": 1,
      "note": 39,
      "start": 37.2951,
      "duration": 0.2346,
      "velocity": 105,
      "chip": "ym2612"
    },
    {
      "channel": 3,
      "note": 86,
      "start": 37.2958,
      "duration": 0.0931,
      "velocity": 67,
      "chip": "ym2612"
    },
    {
      "channel": 5,
      "note": 77,
      "start": 37.2967,
      "duration": 0.0926,
      "velocity": 67,
      "chip": "ym2612"
    },
    {
      "channel": 4,
      "note": 76,
      "start": 37.4093,
      "duration": 0.1217,
      "velocity": 90,
      "chip": "ym2612"
    },
    {
      "channel": 0,
      "note": 57,
      "start": 37.5287,
      "duration": 0.1189,
      "velocity": 93,
      "chip": "ym2612"
    },
    {
      "channel": 1,
      "note": 39,
      "start": 37.53,
      "duration": 0.1191,
      "velocity": 105,
      "chip": "ym2612"
    },
    {
      "channel": 3,
      "note": 88,
      "start": 37.5308,
      "duration": 0.0969,
      "velocity": 67,
      "chip": "ym2612"
    },
    {
      "channel": 4,
      "note": 74,
      "start": 37.5316,
      "duration": 0.1183,
      "velocity": 90,
      "chip": "ym2612"
    },
    {
      "channel": 5,
      "note": 79,
      "start": 37.5323,
      "duration": 0.096,
      "velocity": 67,
      "chip": "ym2612"
    },
    {
      "channel": 0,
      "note": 69,
      "start": 37.6482,
      "duration": 0.1586,
      "velocity": 93,
      "chip": "ym2612"
    },
    {
      "channel": 1,
      "note": 39,
      "start": 37.6496,
      "duration": 0.2373,
      "velocity": 105,
      "chip": "ym2612"
    },
    {
      "channel": 4,
      "note": 76,
      "start": 37.6505,
      "duration": 0.1174,
      "velocity": 90,
      "chip": "ym2612"
    },
    {
      "channel": 3,
      "note": 86,
      "start": 37.7676,
      "duration": 0.079,
      "velocity": 67,
      "chip": "ym2612"
    },
    {
      "channel": 4,
      "note": 79,
      "start": 37.7685,
      "duration": 0.0586,
      "velocity": 90,
      "chip": "ym2612"
    },
    {
      "channel": 5,
      "note": 77,
      "start": 37.7693,
      "duration": 0.0784,
      "velocity": 67,
      "chip": "ym2612"
    },
    {
      "channel": 0,
      "note": 57,
      "start": 37.8074,
      "duration": 0.0982,
      "velocity": 93,
      "chip": "ym2612"
    },
    {
      "channel": 4,
      "note": 91,
      "start": 37.8278,
      "duration": 0.0604,
      "velocity": 90,
      "chip": "ym2612"
    },
    {
      "channel": 3,
      "note": 88,
      "start": 37.8472,
      "duration": 0.079,
      "velocity": 67,
      "chip": "ym2612"
    },
    {
      "channel": 5,
      "note": 79,
      "start": 37.8483,
      "duration": 0.079,
      "velocity": 67,
      "chip": "ym2612"
    },
    {
      "channel": 1,
      "note": 39,
      "start": 37.8873,
      "duration": 0.123,
      "velocity": 126,
      "chip": "ym2612"
    },
    {
      "channel": 4,
      "note": 76,
      "start": 37.8888,
      "duration": 0.0578,
      "velocity": 90,
      "chip": "ym2612"
    },
    {
      "channel": 0,
      "note": 57,
      "start": 37.9062,
      "duration": 0.0998,
      "velocity": 93,
      "chip": "ym2612"
    },
    {
      "channel": 3,
      "note": 86,
      "start": 37.9268,
      "duration": 0.0842,
      "velocity": 67,
      "chip": "ym2612"
    },
    {
      "channel": 5,
      "note": 77,
      "start": 37.9279,
      "duration": 0.0848,
      "velocity": 67,
      "chip": "ym2612"
    },
    {
      "channel": 4,
      "note": 88,
      "start": 37.9472,
      "duration": 0.0648,
      "velocity": 90,
      "chip": "ym2612"
    },
    {
      "channel": 0,
      "note": 62,
      "start": 38.0067,
      "duration": 0.2384,
      "velocity": 93,
      "chip": "ym2612"
    },
    {
      "channel": 1,
      "note": 76,
      "start": 38.0109,
      "duration": 0.0146,
      "velocity": 126,
      "chip": "ym2612"
    },
    {
      "channel": 3,
      "note": 84,
      "start": 38.0117,
      "duration": 0.1149,
      "velocity": 67,
      "chip": "ym2612"
    },
    {
      "channel": 4,
      "note": 79,
      "start": 38.0126,
      "duration": 0.0531,
      "velocity": 90,
      "chip": "ym2612"
    },
    {
      "channel": 5,
      "note": 76,
      "start": 38.0133,
      "duration": 0.1149,
      "velocity": 67,
      "chip": "ym2612"
    },
    {
      "channel": 4,
      "note": 91,
      "start": 38.0663,
      "duration": 0.0611,
      "velocity": 90,
      "chip": "ym2612"
    },
    {
      "channel": 1,
      "note": 76,
      "start": 38.1264,
      "duration": 0.0184,
      "velocity": 126,
      "chip": "ym2612"
    },
    {
      "channel": 3,
      "note": 83,
      "start": 38.1271,
      "duration": 0.1234,
      "velocity": 67,
      "chip": "ym2612"
    },
    {
      "channel": 4,
      "note": 81,
      "start": 38.128,
      "duration": 0.0573,
      "velocity": 90,
      "chip": "ym2612"
    },
    {
      "channel": 5,
      "note": 74,
      "start": 38.1288,
      "duration": 0.1242,
      "velocity": 67,
      "chip": "ym2612"
    },
    {
      "channel": 4,
      "note": 93,
      "start": 38.186,
      "duration": 0.0662,
      "velocity": 90,
      "chip": "ym2612"
    },
    {
      "channel": 0,
      "note": 57,
      "start": 38.2456,
      "duration": 0.2378,
      "velocity": 93,
      "chip": "ym2612"
    },
    {
      "channel": 1,
      "note": 39,
      "start": 38.2504,
      "duration": 0.2344,
      "velocity": 105,
      "chip": "ym2612"
    },
    {
      "channel": 3,
      "note": 81,
      "start": 38.2512,
      "duration": 0.1129,
      "velocity": 67,
      "chip": "ym2612"
    },
    {
      "channel": 4,
      "note": 69,
      "start": 38.2528,
      "duration": 0.0916,
      "velocity": 90,
      "chip": "ym2612"
    },
    {
      "channel": 5,
      "note": 72,
      "start": 38.2536,
      "duration": 0.1112,
      "velocity": 67,
      "chip": "ym2612"
    },
    {
      "channel": 3,
      "note": 81,
      "start": 38.3646,
      "duration": 0.1214,
      "velocity": 67,
      "chip": "ym2612"
    },
    {
      "channel": 5,
      "note": 72,
      "start": 38.3654,
      "duration": 0.1228,
      "velocity": 67,
      "chip": "ym2612"
    },
    {
      "channel": 0,
      "note": 57,
      "start": 38.4839,
      "duration": 0.119,
      "velocity": 93,
      "chip": "ym2612"
    },
    {
      "channel": 1,
      "note": 39,
      "start": 38.4852,
      "duration": 0.1192,
      "velocity": 105,
      "chip": "ym2612"
    },
    {
      "channel": 3,
      "note": 76,
      "start": 38.4866,
      "duration": 0.1193,
      "velocity": 67,
      "chip": "ym2612"
    },
    {
      "channel": 4,
      "note": 76,
      "start": 38.4874,
      "duration": 0.0958,
      "velocity": 90,
      "chip": "ym2612"
    },
    {
      "channel": 5,
      "note": 67,
      "start": 38.4891,
      "duration": 0.1183,
      "velocity": 67,
      "chip": "ym2612"
    },
    {
      "channel": 0,
      "note": 67,
      "start": 38.6034,
      "duration": 0.1585,
      "velocity": 93,
      "chip": "ym2612"
    },
    {
      "channel": 1,
      "note": 39,
      "start": 38.6048,
      "duration": 0.2373,
      "velocity": 105,
      "chip": "ym2612"
    },
    {
      "channel": 3,
      "note": 81,
      "start": 38.6065,
      "duration": 0.1157,
      "velocity": 67,
      "chip": "ym2612"
    },
    {
      "channel": 5,
      "note": 72,
      "start": 38.608,
      "duration": 0.116,
      "velocity": 67,
      "chip": "ym2612"
    },
    {
      "channel": 3,
      "note": 81,
      "start": 38.7231,
      "duration": 0.1196,
      "velocity": 67,
      "chip": "ym2612"
    },
    {
      "channel": 4,
      "note": 74,
      "start": 38.7239,
      "duration": 0.0981,
      "velocity": 90,
      "chip": "ym2612"
    },
    {
      "channel": 5,
      "note": 72,
      "start": 38.7246,
      "duration": 0.1189,
      "velocity": 67,
      "chip": "ym2612"
    },
    {
      "channel": 0,
      "note": 57,
      "start": 38.7626,
      "duration": 0.0983,
      "velocity": 93,
      "chip": "ym2612"
    },
    {
      "channel": 1,
      "note": 39,
      "start": 38.8425,
      "duration": 0.1227,
      "velocity": 126,
      "chip": "ym2612"
    },
    {
      "channel": 3,
      "note": 79,
      "start": 38.8433,
      "duration": 0.1227,
      "velocity": 67,
      "chip": "ym2612"
    },
    {
      "channel": 5,
      "note": 71,
      "start": 38.8441,
      "duration": 0.1235,
      "velocity": 67,
      "chip": "ym2612"
    },
    {
      "channel": 0,
      "note": 57,
      "start": 38.8615,
      "duration": 0.0995,
      "velocity": 93,
      "chip": "ym2612"
    },
    {
      "channel": 0,
      "note": 62,
      "start": 38.9617,
      "duration": 0.2385,
      "velocity": 93,
      "chip": "ym2612"
    },
    {
      "channel": 1,
      "note": 76,
      "start": 38.9659,
      "duration": 0.0147,
      "velocity": 126,
      "chip": "ym2612"
    },
    {
      "channel": 3,
      "note": 76,
      "start": 38.9666,
      "duration": 0.239,
      "velocity": 67,
      "chip": "ym2612"
    },
    {
      "channel": 4,
      "note": 69,
      "start": 38.9674,
      "duration": 0.1145,
      "velocity": 90,
      "chip": "ym2612"
    },
    {
      "channel": 5,
      "note": 67,
      "start": 38.9682,
      "duration": 0.2386,
      "velocity": 67,
      "chip": "ym2612"
    },
    {
      "channel": 1,
      "note": 76,
      "start": 39.0815,
      "duration": 0.0185,
      "velocity": 126,
      "chip": "ym2612"
    },
    {
      "channel": 4,
      "note": 76,
      "start": 39.0826,
      "duration": 0.0974,
      "velocity": 90,
      "chip": "ym2612"
    },
    {
      "channel": 0,
      "note": 57,
      "start": 39.2007,
      "duration": 0.2379,
      "velocity": 93,
      "chip": "ym2612"
    },
    {
      "channel": 1,
      "note": 39,
      "start": 39.2055,
      "duration": 0.2348,
      "velocity": 105,
      "chip": "ym2612"
    },
    {
      "channel": 3,
      "note": 81,
      "start": 39.2065,
      "duration": 0.1134,
      "velocity": 67,
      "chip": "ym2612"
    },
    {
      "channel": 5,
      "note": 72,
      "start": 39.2073,
      "duration": 0.1145,
      "velocity": 67,
      "chip": "ym2612"
    },
    {
      "channel": 3,
      "note": 76,
      "start": 39.3205,
      "duration": 0.121,
      "velocity": 67,
      "chip": "ym2612"
    },
    {
      "channel": 4,
      "note": 76,
      "start": 39.3211,
      "duration": 0.1212,
      "velocity": 90,
      "chip": "ym2612"
    },
    {
      "channel": 5,
      "note": 67,
      "start": 39.3225,
      "duration": 0.1212,
      "velocity": 67,
      "chip": "ym2612"
    },
    {
      "channel": 0,
      "note": 57,
      "start": 39.439,
      "duration": 0.119,
      "velocity": 93,
      "chip": "ym2612"
    },
    {
      "channel": 1,
      "note": 39,
      "start": 39.4407,
      "duration": 0.1189,
      "velocity": 105,
      "chip": "ym2612"
    },
    {
      "channel": 3,
      "note": 83,
      "start": 39.4421,
      "duration": 0.1187,
      "velocity": 67,
      "chip": "ym2612"
    },
    {
      "channel": 4,
      "note": 74,
      "start": 39.4429,
      "duration": 0.1188,
      "velocity": 90,
      "chip": "ym2612"
    },
    {
      "channel": 5,
      "note": 74,
      "start": 39.4443,
      "duration": 0.1188,
      "velocity": 67,
      "chip": "ym2612"
    },
    {
      "channel": 0,
      "note": 67,
      "start": 39.5587,
      "duration": 0.1585,
      "velocity": 93,
      "chip": "ym2612"
    },
    {
      "channel": 1,
      "note": 39,
      "start": 39.56,
      "duration": 0.2372,
      "velocity": 105,
      "chip": "ym2612"
    },
    {
      "channel": 3,
      "note": 76,
      "start": 39.5615,
      "duration": 0.1166,
      "velocity": 67,
      "chip": "ym2612"
    },
    {
      "channel": 4,
      "note": 69,
      "start": 39.5623,
      "duration": 0.1165,
      "velocity": 90,
      "chip": "ym2612"
    },
    {
      "channel": 5,
      "note": 67,
      "start": 39.5637,
      "duration": 0.1165,
      "velocity": 67,
      "chip": "ym2612"
    },
    {
      "channel": 3,
      "note": 84,
      "start": 39.6787,
      "duration": 0.2425,
      "velocity": 67,
      "chip": "ym2612"
    },
    {
      "channel": 4,
      "note": 72,
      "start": 39.6794,
      "duration": 0.1188,
      "velocity": 90,
      "chip": "ym2612"
    },
    {
      "channel": 5,
      "note": 76,
      "start": 39.6809,
      "duration": 0.242,
      "velocity": 67,
      "chip": "ym2612"
    },
    {
      "channel": 0,
      "note": 57,
      "start": 39.7178,
      "duration": 0.0983,
      "velocity": 93,
      "chip": "ym2612"
    },
    {
      "channel": 1,
      "note": 39,
      "start": 39.7977,
      "duration": 0.1227,
      "velocity": 126,
      "chip": "ym2612"
    },
    {
      "channel": 4,
      "note": 72,
      "start": 39.7988,
      "duration": 0.1233,
      "velocity": 90,
      "chip": "ym2612"
    },
    {
      "channel": 0,
      "note": 57,
      "start": 39.8167,
      "duration": 0.0995,
      "velocity": 93,
      "chip": "ym2612"
    },
    {
      "channel": 0,
      "note": 62,
      "start": 39.9168,
      "duration": 0.2387,
      "velocity": 93,
      "chip": "ym2612"
    },
    {
      "channel": 1,
      "note": 76,
      "start": 39.921,
      "duration": 0.0147,
      "velocity": 126,
      "chip": "ym2612"
    },
    {
      "channel": 3,
      "note": 88,
      "start": 39.9218,
      "duration": 0.115,
      "velocity": 67,
      "chip": "ym2612"
    },
    {
      "channel": 4,
      "note": 93,
      "start": 39.9227,
      "duration": 0.0533,
      "velocity": 90,
      "chip": "ym2612"
    },
    {
      "channel": 5,
      "note": 79,
      "start": 39.9235,
      "duration": 0.115,
      "velocity": 67,
      "chip": "ym2612"
    },
    {
      "channel": 4,
      "note": 105,
      "start": 39.9767,
      "duration": 0.0611,
      "velocity": 90,
      "chip": "ym2612"
    },
    {
      "channel": 1,
      "note": 76,
      "start": 40.0367,
      "duration": 0.0185,
      "velocity": 126,
      "chip": "ym2612"
    },
    {
      "channel": 3,
      "note": 88,
      "start": 40.0375,
      "duration": 0.1239,
      "velocity": 67,
      "chip": "ym2612"
    },
    {
      "channel": 4,
      "note": 93,
      "start": 40.0384,
      "duration": 0.0571,
      "velocity": 90,
      "chip": "ym2612"
    },
    {
      "channel": 5,
      "note": 79,
      "start": 40.0391,
      "duration": 0.125,
      "velocity": 67,
      "chip": "ym2612"
    },
    {
      "channel": 4,
      "note": 105,
      "start": 40.0961,
      "duration": 0.0672,
      "velocity": 90,
      "chip": "ym2612"
    },
    {
      "channel": 0,
      "note": 57,
      "start": 40.1561,
      "duration": 0.2376,
      "velocity": 93,
      "chip": "ym2612"
    },
    {
      "channel": 1,
      "note": 39,
      "start": 40.1612,
      "duration": 0.2339,
      "velocity": 105,
      "chip": "ym2612"
    },
    {
      "channel": 3,
      "note": 91,
      "start": 40.162,
      "duration": 0.1126,
      "velocity": 67,
      "chip": "ym2612"
    },
    {
      "channel": 4,
      "note": 69,
      "start": 40.1639,
      "duration": 0.0913,
      "velocity": 90,
      "chip": "ym2612"
    },
    {
      "channel": 5,
      "note": 83,
      "start": 40.1647,
      "duration": 0.1107,
      "velocity": 67,
      "chip": "ym2612"
    },
    {
      "channel": 3,
      "note": 91,
      "start": 40.2752,
      "duration": 0.0986,
      "velocity": 67,
      "chip": "ym2612"
    },
    {
      "channel": 5,
      "note": 83,
      "start": 40.2759,
      "duration": 0.0983,
      "velocity": 67,
      "chip": "ym2612"
    },
    {
      "channel": 0,
      "note": 57,
      "start": 40.3942,
      "duration": 0.119,
      "velocity": 93,
      "chip": "ym2612"
    },
    {
      "channel": 1,
      "note": 39,
      "start": 40.3956,
      "duration": 0.1191,
      "velocity": 105,
      "chip": "ym2612"
    },
    {
      "channel": 4,
      "note": 76,
      "start": 40.3964,
      "duration": 0.0969,
      "velocity": 90,
      "chip": "ym2612"
    },
    {
      "channel": 0,
      "note": 67,
      "start": 40.5138,
      "duration": 0.1586,
      "velocity": 93,
      "chip": "ym2612"
    },
    {
      "channel": 1,
      "note": 39,
      "start": 40.5151,
      "duration": 0.2373,
      "velocity": 105,
      "chip": "ym2612"
    },
    {
      "channel": 3,
      "note": 91,
      "start": 40.5157,
      "duration": 0.097,
      "velocity": 67,
      "chip": "ym2612"
    },
    {
      "channel": 5,
      "note": 83,
      "start": 40.5163,
      "duration": 0.0967,
      "velocity": 67,
      "chip": "ym2612"
    },
    {
      "channel": 4,
      "note": 74,
      "start": 40.6332,
      "duration": 0.0989,
      "velocity": 90,
      "chip": "ym2612"
    },
    {
      "channel": 0,
      "note": 57,
      "start": 40.6729,
      "duration": 0.0983,
      "velocity": 93,
      "chip": "ym2612"
    },
    {
      "channel": 1,
      "note": 39,
      "start": 40.7528,
      "duration": 0.1234,
      "velocity": 126,
      "chip": "ym2612"
    },
    {
      "channel": 3,
      "note": 91,
      "start": 40.7534,
      "duration": 0.1236,
      "velocity": 67,
      "chip": "ym2612"
    },
    {
      "channel": 5,
      "note": 83,
      "start": 40.7541,
      "duration": 0.1245,
      "velocity": 67,
      "chip": "ym2612"
    },
    {
      "channel": 0,
      "note": 57,
      "start": 40.7718,
      "duration": 0.1,
      "velocity": 93,
      "chip": "ym2612"
    },
    {
      "channel": 0,
      "note": 62,
      "start": 40.8724,
      "duration": 0.238,
      "velocity": 93,
      "chip": "ym2612"
    },
    {
      "channel": 1,
      "note": 76,
      "start": 40.8768,
      "duration": 0.0141,
      "velocity": 126,
      "chip": "ym2612"
    },
    {
      "channel": 3,
      "note": 91,
      "start": 40.8776,
      "duration": 0.2376,
      "velocity": 67,
      "chip": "ym2612"
    },
    {
      "channel": 4,
      "note": 69,
      "start": 40.8784,
      "duration": 0.1147,
      "velocity": 90,
      "chip": "ym2612"
    },
    {
      "channel": 5,
      "note": 83,
      "start": 40.8792,
      "duration": 0.2369,
      "velocity": 67,
      "chip": "ym2612"
    },
    {
      "channel": 1,
      "note": 76,
      "start": 40.9922,
      "duration": 0.0181,
      "velocity": 126,
      "chip": "ym2612"
    },
    {
      "channel": 4,
      "note": 76,
      "start": 40.9937,
      "duration": 0.0968,
      "velocity": 90,
      "chip": "ym2612"
    },
    {
      "channel": 0,
      "note": 57,
      "start": 41.111,
      "duration": 0.238,
      "velocity": 93,
      "chip": "ym2612"
    },
    {
      "channel": 1,
      "note": 39,
      "start": 41.115,
      "duration": 0.2352,
      "velocity": 105,
      "chip": "ym2612"
    },
    {
      "channel": 3,
      "note": 88,
      "start": 41.1159,
      "duration": 0.4773,
      "velocity": 67,
      "chip": "ym2612"
    },
    {
      "channel": 5,
      "note": 79,
      "start": 41.1167,
      "duration": 0.4787,
      "velocity": 67,
      "chip": "ym2612"
    },
    {
      "channel": 4,
      "note": 76,
      "start": 41.2304,
      "duration": 0.1207,
      "velocity": 90,
      "chip": "ym2612"
    },
    {
      "channel": 0,
      "note": 57,
      "start": 41.3494,
      "duration": 0.119,
      "velocity": 93,
      "chip": "ym2612"
    },
    {
      "channel": 1,
      "note": 39,
      "start": 41.3506,
      "duration": 0.1192,
      "velocity": 105,
      "chip": "ym2612"
    },
    {
      "channel": 4,
      "note": 74,
      "start": 41.3517,
      "duration": 0.1192,
      "velocity": 90,
      "chip": "ym2612"
    },
    {
      "channel": 0,
      "note": 67,
      "start": 41.469,
      "duration": 0.1188,
      "velocity": 93,
      "chip": "ym2612"
    },
    {
      "channel": 1,
      "note": 39,
      "start": 41.4704,
      "duration": 0.1218,
      "velocity": 127,
      "chip": "ym2612"
    },
    {
      "channel": 0,
      "note": 52,
      "start": 41.5884,
      "duration": 0.2376,
      "velocity": 93,
      "chip": "ym2612"
    },
    {
      "channel": 1,
      "note": 69,
      "start": 41.593,
      "duration": 0.0547,
      "velocity": 127,
      "chip": "ym2612"
    },
    {
      "channel": 3,
      "note": 91,
      "start": 41.5938,
      "duration": 0.4801,
      "velocity": 99,
      "chip": "ym2612"
    },
    {
      "channel": 4,
      "note": 72,
      "start": 41.5953,
      "duration": 0.054,
      "velocity": 90,
      "chip": "ym2612"
    },
    {
      "channel": 5,
      "note": 83,
      "start": 41.596,
      "duration": 0.4828,
      "velocity": 99,
      "chip": "ym2612"
    },
    {
      "channel": 1,
      "note": 69,
      "start": 41.6484,
      "duration": 0.0588,
      "velocity": 127,
      "chip": "ym2612"
    },
    {
      "channel": 4,
      "note": 84,
      "start": 41.6499,
      "duration": 0.0588,
      "velocity": 90,
      "chip": "ym2612"
    },
    {
      "channel": 1,
      "note": 69,
      "start": 41.7077,
      "duration": 0.0595,
      "velocity": 127,
      "chip": "ym2612"
    },
    {
      "channel": 4,
      "note": 74,
      "start": 41.7092,
      "duration": 0.0596,
      "velocity": 90,
      "chip": "ym2612"
    },
    {
      "channel": 1,
      "note": 69,
      "start": 41.7678,
      "duration": 0.0598,
      "velocity": 127,
      "chip": "ym2612"
    },
    {
      "channel": 4,
      "note": 86,
      "start": 41.7695,
      "duration": 0.0597,
      "velocity": 90,
      "chip": "ym2612"
    },
    {
      "channel": 0,
      "note": 64,
      "start": 41.8268,
      "duration": 0.1192,
      "velocity": 93,
      "chip": "ym2612"
    },
    {
      "channel": 1,
      "note": 69,
      "start": 41.8283,
      "duration": 0.0584,
      "velocity": 127,
      "chip": "ym2612"
    },
    {
      "channel": 4,
      "note": 76,
      "start": 41.8297,
      "duration": 0.0585,
      "velocity": 90,
      "chip": "ym2612"
    },
    {
      "channel": 1,
      "note": 69,
      "start": 41.8872,
      "duration": 0.0602,
      "velocity": 127,
      "chip": "ym2612"
    },
    {
      "channel": 4,
      "note": 88,
      "start": 41.8888,
      "duration": 0.0601,
      "velocity": 90,
      "chip": "ym2612"
    },
    {
      "channel": 0,
      "note": 67,
      "start": 41.9466,
      "duration": 0.1191,
      "velocity": 93,
      "chip": "ym2612"
    },
    {
      "channel": 1,
      "note": 69,
      "start": 41.948,
      "duration": 0.0579,
      "velocity": 127,
      "chip": "ym2612"
    },
    {
      "channel": 4,
      "note": 79,
      "start": 41.9495,
      "duration": 0.0587,
      "velocity": 90,
      "chip": "ym2612"
    },
    {
      "channel": 1,
      "note": 69,
      "start": 42.0066,
      "duration": 0.0638,
      "velocity": 105,
      "chip": "ym2612"
    },
    {
      "channel": 4,
      "note": 91,
      "start": 42.0088,
      "duration": 0.0661,
      "velocity": 90,
      "chip": "ym2612"
    },
    {
      "channel": 0,
      "note": 57,
      "start": 42.0663,
      "duration": 0.2379,
      "velocity": 93,
      "chip": "ym2612"
    },
    {
      "channel": 1,
      "note": 39,
      "start": 42.0709,
      "duration": 0.2348,
      "velocity": 105,
      "chip": "ym2612"
    },
    {
      "channel": 3,
      "note": 84,
      "start": 42.0746,
      "duration": 0.0504,
      "velocity": 99,
      "chip": "ym2612"
    },
    {
      "channel": 4,
      "note": 81,
      "start": 42.0755,
      "duration": 0.2322,
      "velocity": 90,
      "chip": "ym2612"
    },
    {
      "channel": 5,
      "note": 81,
      "start": 42.0794,
      "duration": 0.0462,
      "velocity": 99,
      "chip": "ym2612"
    },
    {
      "channel": 0,
      "note": 69,
      "start": 42.3048,
      "duration": 0.1188,
      "velocity": 93,
      "chip": "ym2612"
    },
    {
      "channel": 1,
      "note": 39,
      "start": 42.3061,
      "duration": 0.119,
      "velocity": 105,
      "chip": "ym2612"
    },
    {
      "channel": 3,
      "note": 83,
      "start": 42.3069,
      "duration": 0.1188,
      "velocity": 99,
      "chip": "ym2612"
    },
    {
      "channel": 4,
      "note": 79,
      "start": 42.3083,
      "duration": 0.119,
      "velocity": 90,
      "chip": "ym2612"
    },
    {
      "channel": 5,
      "note": 79,
      "start": 42.3091,
      "duration": 0.119,
      "velocity": 99,
      "chip": "ym2612"
    },
    {
      "channel": 0,
      "note": 57,
      "start": 42.4241,
      "duration": 0.3576,
      "velocity": 93,
      "chip": "ym2612"
    },
    {
      "channel": 1,
      "note": 39,
      "start": 42.4255,
      "duration": 0.2373,
      "velocity": 105,
      "chip": "ym2612"
    },
    {
      "channel": 3,
      "note": 84,
      "start": 42.4263,
      "duration": 0.057,
      "velocity": 99,
      "chip": "ym2612"
    },
    {
      "channel": 4,
      "note": 81,
      "start": 42.428,
      "duration": 0.2369,
      "velocity": 90,
      "chip": "ym2612"
    },
    {
      "channel": 5,
      "note": 81,
      "start": 42.4288,
      "duration": 0.0551,
      "velocity": 99,
      "chip": "ym2612"
    },
    {
      "channel": 1,
      "note": 39,
      "start": 42.6633,
      "duration": 0.1225,
      "velocity": 126,
      "chip": "ym2612"
    },
    {
      "channel": 3,
      "note": 83,
      "start": 42.6641,
      "duration": 0.3622,
      "velocity": 99,
      "chip": "ym2612"
    },
    {
      "channel": 4,
      "note": 67,
      "start": 42.6655,
      "duration": 0.0569,
      "velocity": 90,
      "chip": "ym2612"
    },
    {
      "channel": 5,
      "note": 79,
      "start": 42.6663,
      "duration": 0.3622,
      "velocity": 99,
      "chip": "ym2612"
    },
    {
      "channel": 4,
      "note": 79,
      "start": 42.723,
      "duration": 0.0638,
      "velocity": 90,
      "chip": "ym2612"
    },
    {
      "channel": 0,
      "note": 57,
      "start": 42.7822,
      "duration": 0.1183,
      "velocity": 93,
      "chip": "ym2612"
    },
    {
      "channel": 1,
      "note": 76,
      "start": 42.7864,
      "duration": 0.0149,
      "velocity": 126,
      "chip": "ym2612"
    },
    {
      "channel": 4,
      "note": 67,
      "start": 42.7874,
      "duration": 0.0541,
      "velocity": 90,
      "chip": "ym2612"
    },
    {
      "channel": 4,
      "note": 79,
      "start": 42.8422,
      "duration": 0.0613,
      "velocity": 90,
      "chip": "ym2612"
    },
    {
      "channel": 0,
      "note": 69,
      "start": 42.9011,
      "duration": 0.1197,
      "velocity": 93,
      "chip": "ym2612"
    },
    {
      "channel": 1,
      "note": 76,
      "start": 42.9023,
      "duration": 0.0184,
      "velocity": 126,
      "chip": "ym2612"
    },
    {
      "channel": 4,
      "note": 67,
      "start": 42.9041,
      "duration": 0.0568,
      "velocity": 90,
      "chip": "ym2612"
    },
    {
      "channel": 4,
      "note": 79,
      "start": 42.9617,
      "duration": 0.0656,
      "velocity": 90,
      "chip": "ym2612"
    },
    {
      "channel": 0,
      "note": 57,
      "start": 43.0214,
      "duration": 0.238,
      "velocity": 93,
      "chip": "ym2612"
    },
    {
      "channel": 1,
      "note": 39,
      "start": 43.0261,
      "duration": 0.2349,
      "velocity": 105,
      "chip": "ym2612"
    },
    {
      "channel": 3,
      "note": 84,
      "start": 43.0269,
      "duration": 0.0533,
      "velocity": 99,
      "chip": "ym2612"
    },
    {
      "channel": 4,
      "note": 81,
      "start": 43.0282,
      "duration": 0.2351,
      "velocity": 90,
      "chip": "ym2612"
    },
    {
      "channel": 5,
      "note": 81,
      "start": 43.0291,
      "duration": 0.0518,
      "velocity": 99,
      "chip": "ym2612"
    },
    {
      "channel": 0,
      "note": 69,
      "start": 43.26,
      "duration": 0.119,
      "velocity": 93,
      "chip": "ym2612"
    },
    {
      "channel": 1,
      "note": 39,
      "start": 43.2614,
      "duration": 0.1192,
      "velocity": 105,
      "chip": "ym2612"
    },
    {
      "channel": 3,
      "note": 83,
      "start": 43.2624,
      "duration": 0.1187,
      "velocity": 99,
      "chip": "ym2612"
    },
    {
      "channel": 4,
      "note": 79,
      "start": 43.2638,
      "duration": 0.1187,
      "velocity": 90,
      "chip": "ym2612"
    },
    {
      "channel": 5,
      "note": 79,
      "start": 43.2646,
      "duration": 0.1187,
      "velocity": 99,
      "chip": "ym2612"
    },
    {
      "channel": 0,
      "note": 57,
      "start": 43.3796,
      "duration": 0.3574,
      "velocity": 93,
      "chip": "ym2612"
    },
    {
      "channel": 1,
      "note": 39,
      "start": 43.381,
      "duration": 0.237,
      "velocity": 105,
      "chip": "ym2612"
    },
    {
      "channel": 3,
      "note": 84,
      "start": 43.3817,
      "duration": 0.0567,
      "velocity": 99,
      "chip": "ym2612"
    },
    {
      "channel": 4,
      "note": 81,
      "start": 43.3832,
      "duration": 0.2368,
      "velocity": 90,
      "chip": "ym2612"
    },
    {
      "channel": 5,
      "note": 81,
      "start": 43.3839,
      "duration": 0.0551,
      "velocity": 99,
      "chip": "ym2612"
    },
    {
      "channel": 1,
      "note": 39,
      "start": 43.6184,
      "duration": 0.1227,
      "velocity": 126,
      "chip": "ym2612"
    },
    {
      "channel": 3,
      "note": 83,
      "start": 43.6192,
      "duration": 0.3628,
      "velocity": 99,
      "chip": "ym2612"
    },
    {
      "channel": 4,
      "note": 67,
      "start": 43.6206,
      "duration": 0.057,
      "velocity": 90,
      "chip": "ym2612"
    },
    {
      "channel": 5,
      "note": 79,
      "start": 43.6214,
      "duration": 0.3625,
      "velocity": 99,
      "chip": "ym2612"
    },
    {
      "channel": 4,
      "note": 79,
      "start": 43.6782,
      "duration": 0.0639,
      "velocity": 90,
      "chip": "ym2612"
    },
    {
      "channel": 0,
      "note": 57,
      "start": 43.7374,
      "duration": 0.1183,
      "velocity": 93,
      "chip": "ym2612"
    },
    {
      "channel": 1,
      "note": 76,
      "start": 43.7417,
      "duration": 0.0149,
      "velocity": 126,
      "chip": "ym2612"
    },
    {
      "channel": 4,
      "note": 67,
      "start": 43.7427,
      "duration": 0.0542,
      "velocity": 90,
      "chip": "ym2612"
    },
    {
      "channel": 4,
      "note": 79,
      "start": 43.7976,
      "duration": 0.0611,
      "velocity": 90,
      "chip": "ym2612"
    },
    {
      "channel": 0,
      "note": 69,
      "start": 43.8563,
      "duration": 0.1199,
      "velocity": 93,
      "chip": "ym2612"
    },
    {
      "channel": 1,
      "note": 76,
      "start": 43.8576,
      "duration": 0.0184,
      "velocity": 126,
      "chip": "ym2612"
    },
    {
      "channel": 4,
      "note": 67,
      "start": 43.8593,
      "duration": 0.0568,
      "velocity": 90,
      "chip": "ym2612"
    },
    {
      "channel": 4,
      "note": 79,
      "start": 43.9167,
      "duration": 0.0662,
      "velocity": 90,
      "chip": "ym2612"
    },
    {
      "channel": 0,
      "note": 48,
      "start": 43.9768,
      "duration": 0.1177,
      "velocity": 93,
      "chip": "ym2612"
    },
    {
      "channel": 1,
      "note": 69,
      "start": 43.9817,
      "duration": 0.1144,
      "velocity": 127,
      "chip": "ym2612"
    },
    {
      "channel": 3,
      "note": 88,
      "start": 43.9826,
      "duration": 0.1143,
      "velocity": 99,
      "chip": "ym2612"
    },
    {
      "channel": 4,
      "note": 84,
      "start": 43.9835,
      "duration": 0.1141,
      "velocity": 90,
      "chip": "ym2612"
    },
    {
      "channel": 5,
      "note": 84,
      "start": 43.9845,
      "duration": 0.1137,
      "velocity": 99,
      "chip": "ym2612"
    },
    {
      "channel": 0,
      "note": 50,
      "start": 44.0951,
      "duration": 0.1188,
      "velocity": 93,
      "chip": "ym2612"
    },
    {
      "channel": 1,
      "note": 69,
      "start": 44.0967,
      "duration": 0.1215,
      "velocity": 121,
      "chip": "ym2612"
    },
    {
      "channel": 3,
      "note": 86,
      "start": 44.0975,
      "duration": 0.1214,
      "velocity": 99,
      "chip": "ym2612"
    },
    {
      "channel": 4,
      "note": 84,
      "start": 44.0981,
      "duration": 0.0571,
      "velocity": 90,
      "chip": "ym2612"
    },
    {
      "channel": 5,
      "note": 83,
      "start": 44.0988,
      "duration": 0.1209,
      "velocity": 99,
      "chip": "ym2612"
    },
    {
      "channel": 0,
      "note": 52,
      "start": 44.2145,
      "duration": 0.1188,
      "velocity": 93,
      "chip": "ym2612"
    },
    {
      "channel": 1,
      "note": 27,
      "start": 44.2188,
      "duration": 0.1181,
      "velocity": 126,
      "chip": "ym2612"
    },
    {
      "channel": 3,
      "note": 84,
      "start": 44.2195,
      "duration": 0.118,
      "velocity": 99,
      "chip": "ym2612"
    },
    {
      "channel": 5,
      "note": 81,
      "start": 44.2204,
      "duration": 0.1186,
      "velocity": 99,
      "chip": "ym2612"
    },
    {
      "channel": 0,
      "note": 57,
      "start": 44.3339,
      "duration": 0.1188,
      "velocity": 93,
      "chip": "ym2612"
    },
    {
      "channel": 1,
      "note": 76,
      "start": 44.3375,
      "duration": 0.1197,
      "velocity": 105,
      "chip": "ym2612"
    },
    {
      "channel": 3,
      "note": 83,
      "start": 44.3382,
      "duration": 0.1196,
      "velocity": 99,
      "chip": "ym2612"
    },
    {
      "channel": 4,
      "note": 84,
      "start": 44.3388,
      "duration": 0.1198,
      "velocity": 90,
      "chip": "ym2612"
    },
    {
      "channel": 5,
      "note": 79,
      "start": 44.3396,
      "duration": 0.1198,
      "velocity": 99,
      "chip": "ym2612"
    },
    {
      "channel": 0,
      "note": 60,
      "start": 44.4532,
      "duration": 0.2389,
      "velocity": 93,
      "chip": "ym2612"
    },
    {
      "channel": 1,
      "note": 39,
      "start": 44.4577,
      "duration": 0.2356,
      "velocity": 105,
      "chip": "ym2612"
    },
    {
      "channel": 3,
      "note": 79,
      "start": 44.4585,
      "duration": 0.2354,
      "velocity": 99,
      "chip": "ym2612"
    },
    {
      "channel": 4,
      "note": 79,
      "start": 44.4593,
      "duration": 0.0544,
      "velocity": 90,
      "chip": "ym2612"
    },
    {
      "channel": 5,
      "note": 76,
      "start": 44.46,
      "duration": 0.2353,
      "velocity": 99,
      "chip": "ym2612"
    },
    {
      "channel": 0,
      "note": 60,
      "start": 44.6925,
      "duration": 0.119,
      "velocity": 93,
      "chip": "ym2612"
    },
    {
      "channel": 1,
      "note": 39,
      "start": 44.6938,
      "duration": 0.1192,
      "velocity": 105,
      "chip": "ym2612"
    },
    {
      "channel": 3,
      "note": 86,
      "start": 44.6945,
      "duration": 0.1194,
      "velocity": 99,
      "chip": "ym2612"
    },
    {
      "channel": 4,
      "note": 79,
      "start": 44.6951,
      "duration": 0.1196,
      "velocity": 90,
      "chip": "ym2612"
    },
    {
      "channel": 5,
      "note": 84,
      "start": 44.6959,
      "duration": 0.1196,
      "velocity": 99,
      "chip": "ym2612"
    },
    {
      "channel": 0,
      "note": 57,
      "start": 44.8122,
      "duration": 0.2375,
      "velocity": 93,
      "chip": "ym2612"
    },
    {
      "channel": 1,
      "note": 39,
      "start": 44.8138,
      "duration": 0.1173,
      "velocity": 105,
      "chip": "ym2612"
    },
    {
      "channel": 3,
      "note": 84,
      "start": 44.8146,
      "duration": 0.0566,
      "velocity": 99,
      "chip": "ym2612"
    },
    {
      "channel": 4,
      "note": 81,
      "start": 44.8154,
      "duration": 0.0561,
      "velocity": 90,
      "chip": "ym2612"
    },
    {
      "channel": 5,
      "note": 81,
      "start": 44.8161,
      "duration": 0.0556,
      "velocity": 99,
      "chip": "ym2612"
    },
    {
      "channel": 1,
      "note": 39,
      "start": 44.9316,
      "duration": 0.241,
      "velocity": 126,
      "chip": "ym2612"
    },
    {
      "channel": 0,
      "note": 57,
      "start": 45.0501,
      "duration": 0.0593,
      "velocity": 93,
      "chip": "ym2612"
    },
    {
      "channel": 4,
      "note": 93,
      "start": 45.0514,
      "duration": 0.0598,
      "velocity": 90,
      "chip": "ym2612"
    },
    {
      "channel": 0,
      "note": 55,
      "start": 45.11,
      "duration": 0.059,
      "velocity": 93,
      "chip": "ym2612"
    },
    {
      "channel": 4,
      "note": 91,
      "start": 45.1118,
      "duration": 0.0623,
      "velocity": 90,
      "chip": "ym2612"
    },
    {
      "channel": 0,
      "note": 57,
      "start": 45.1696,
      "duration": 0.1189,
      "velocity": 93,
      "chip": "ym2612"
    },
    {
      "channel": 1,
      "note": 76,
      "start": 45.1732,
      "duration": 0.2392,
      "velocity": 105,
      "chip": "ym2612"
    },
    {
      "channel": 4,
      "note": 93,
      "start": 45.1747,
      "duration": 0.0549,
      "velocity": 90,
      "chip": "ym2612"
    },
    {
      "channel": 0,
      "note": 52,
      "start": 45.4085,
      "duration": 0.2382,
      "velocity": 93,
      "chip": "ym2612"
    },
    {
      "channel": 1,
      "note": 39,
      "start": 45.413,
      "duration": 0.1146,
      "velocity": 105,
      "chip": "ym2612"
    },
    {
      "channel": 3,
      "note": 76,
      "start": 45.4137,
      "duration": 0.1146,
      "velocity": 99,
      "chip": "ym2612"
    },
    {
      "channel": 4,
      "note": 76,
      "start": 45.4156,
      "duration": 0.0531,
      "velocity": 90,
      "chip": "ym2612"
    },
    {
      "channel": 5,
      "note": 81,
      "start": 45.4162,
      "duration": 0.1138,
      "velocity": 99,
      "chip": "ym2612"
    },
    {
      "channel": 4,
      "note": 88,
      "start": 45.4693,
      "duration": 0.0599,
      "velocity": 90,
      "chip": "ym2612"
    },
    {
      "channel": 1,
      "note": 39,
      "start": 45.5282,
      "duration": 0.123,
      "velocity": 126,
      "chip": "ym2612"
    },
    {
      "channel": 3,
      "note": 79,
      "start": 45.5289,
      "duration": 0.123,
      "velocity": 99,
      "chip": "ym2612"
    },
    {
      "channel": 4,
      "note": 76,
      "start": 45.5298,
      "duration": 0.0582,
      "velocity": 90,
      "chip": "ym2612"
    },
    {
      "channel": 5,
      "note": 79,
      "start": 45.5306,
      "duration": 0.123,
      "velocity": 99,
      "chip": "ym2612"
    },
    {
      "channel": 4,
      "note": 88,
      "start": 45.5886,
      "duration": 0.0642,
      "velocity": 90,
      "chip": "ym2612"
    },
    {
      "channel": 0,
      "note": 50,
      "start": 45.6473,
      "duration": 0.2392,
      "velocity": 93,
      "chip": "ym2612"
    },
    {
      "channel": 1,
      "note": 76,
      "start": 45.6518,
      "duration": 0.0151,
      "velocity": 126,
      "chip": "ym2612"
    },
    {
      "channel": 3,
      "note": 81,
      "start": 45.6525,
      "duration": 0.115,
      "velocity": 99,
      "chip": "ym2612"
    },
    {
      "channel": 4,
      "note": 79,
      "start": 45.6534,
      "duration": 0.0538,
      "velocity": 90,
      "chip": "ym2612"
    },
    {
      "channel": 5,
      "note": 76,
      "start": 45.6542,
      "duration": 0.1157,
      "velocity": 99,
      "chip": "ym2612"
    },
    {
      "channel": 4,
      "note": 91,
      "start": 45.7078,
      "duration": 0.0613,
      "velocity": 90,
      "chip": "ym2612"
    },
    {
      "channel": 1,
      "note": 76,
      "start": 45.7674,
      "duration": 0.0188,
      "velocity": 126,
      "chip": "ym2612"
    },
    {
      "channel": 3,
      "note": 79,
      "start": 45.7682,
      "duration": 0.1237,
      "velocity": 99,
      "chip": "ym2612"
    },
    {
      "channel": 4,
      "note": 79,
      "start": 45.7698,
      "duration": 0.0569,
      "velocity": 90,
      "chip": "ym2612"
    },
    {
      "channel": 5,
      "note": 74,
      "start": 45.7705,
      "duration": 0.1233,
      "velocity": 99,
      "chip": "ym2612"
    },
    {
      "channel": 4,
      "note": 79,
      "start": 45.8273,
      "duration": 0.0656,
      "velocity": 90,
      "chip": "ym2612"
    },
    {
      "channel": 0,
      "note": 57,
      "start": 45.8871,
      "duration": 0.2379,
      "velocity": 93,
      "chip": "ym2612"
    },
    {
      "channel": 1,
      "note": 39,
      "start": 45.8916,
      "duration": 0.2348,
      "velocity": 105,
      "chip": "ym2612"
    },
    {
      "channel": 3,
      "note": 84,
      "start": 45.8925,
      "duration": 0.0533,
      "velocity": 99,
      "chip": "ym2612"
    },
    {
      "channel": 4,
      "note": 81,
      "start": 45.8935,
      "duration": 0.235,
      "velocity": 90,
      "chip": "ym2612"
    },
    {
      "channel": 5,
      "note": 81,
      "start": 45.8944,
      "duration": 0.0521,
      "velocity": 99,
      "chip": "ym2612"
    },
    {
      "channel": 0,
      "note": 69,
      "start": 46.1255,
      "duration": 0.1188,
      "velocity": 93,
      "chip": "ym2612"
    },
    {
      "channel": 1,
      "note": 39,
      "start": 46.1269,
      "duration": 0.119,
      "velocity": 105,
      "chip": "ym2612"
    },
    {
      "channel": 3,
      "note": 83,
      "start": 46.1277,
      "duration": 0.1188,
      "velocity": 99,
      "chip": "ym2612"
    },
    {
      "channel": 4,
      "note": 79,
      "start": 46.1291,
      "duration": 0.1188,
      "velocity": 90,
      "chip": "ym2612"
    },
    {
      "channel": 5,
      "note": 79,
      "start": 46.1299,
      "duration": 0.119,
      "velocity": 99,
      "chip": "ym2612"
    },
    {
      "channel": 0,
      "note": 57,
      "start": 46.2449,
      "duration": 0.3576,
      "velocity": 93,
      "chip": "ym2612"
    },
    {
      "channel": 1,
      "note": 39,
      "start": 46.2463,
      "duration": 0.2376,
      "velocity": 105,
      "chip": "ym2612"
    },
    {
      "channel": 3,
      "note": 84,
      "start": 46.2471,
      "duration": 0.057,
      "velocity": 99,
      "chip": "ym2612"
    },
    {
      "channel": 4,
      "note": 81,
      "start": 46.2485,
      "duration": 0.2374,
      "velocity": 90,
      "chip": "ym2612"
    },
    {
      "channel": 5,
      "note": 81,
      "start": 46.2496,
      "duration": 0.0551,
      "velocity": 99,
      "chip": "ym2612"
    },
    {
      "channel": 1,
      "note": 39,
      "start": 46.4843,
      "duration": 0.1223,
      "velocity": 126,
      "chip": "ym2612"
    },
    {
      "channel": 3,
      "note": 83,
      "start": 46.4851,
      "duration": 0.362,
      "velocity": 99,
      "chip": "ym2612"
    },
    {
      "channel": 4,
      "note": 67,
      "start": 46.4865,
      "duration": 0.0566,
      "velocity": 90,
      "chip": "ym2612"
    },
    {
      "channel": 5,
      "note": 79,
      "start": 46.4873,
      "duration": 0.3617,
      "velocity": 99,
      "chip": "ym2612"
    },
    {
      "channel": 4,
      "note": 79,
      "start": 46.5437,
      "duration": 0.0639,
      "velocity": 90,
      "chip": "ym2612"
    },
    {
      "channel": 0,
      "note": 57,
      "start": 46.6029,
      "duration": 0.1183,
      "velocity": 93,
      "chip": "ym2612"
    },
    {
      "channel": 1,
      "note": 76,
      "start": 46.6072,
      "duration": 0.0149,
      "velocity": 126,
      "chip": "ym2612"
    },
    {
      "channel": 4,
      "note": 67,
      "start": 46.6083,
      "duration": 0.054,
      "velocity": 90,
      "chip": "ym2612"
    },
    {
      "channel": 4,
      "note": 79,
      "start": 46.6629,
      "duration": 0.0613,
      "velocity": 90,
      "chip": "ym2612"
    },
    {
      "channel": 0,
      "note": 69,
      "start": 46.7218,
      "duration": 0.1198,
      "velocity": 93,
      "chip": "ym2612"
    },
    {
      "channel": 1,
      "note": 76,
      "start": 46.723,
      "duration": 0.0185,
      "velocity": 126,
      "chip": "ym2612"
    },
    {
      "channel": 4,
      "note": 67,
      "start": 46.7248,
      "duration": 0.0568,
      "velocity": 90,
      "chip": "ym2612"
    },
    {
      "channel": 4,
      "note": 79,
      "start": 46.7822,
      "duration": 0.0659,
      "velocity": 90,
      "chip": "ym2612"
    },
    {
      "channel": 0,
      "note": 57,
      "start": 46.8422,
      "duration": 0.2383,
      "velocity": 93,
      "chip": "ym2612"
    },
    {
      "channel": 1,
      "note": 39,
      "start": 46.8468,
      "duration": 0.2352,
      "velocity": 105,
      "chip": "ym2612"
    },
    {
      "channel": 3,
      "note": 84,
      "start": 46.8477,
      "duration": 0.0534,
      "velocity": 99,
      "chip": "ym2612"
    },
    {
      "channel": 4,
      "note": 81,
      "start": 46.8487,
      "duration": 0.2356,
      "velocity": 90,
      "chip": "ym2612"
    },
    {
      "channel": 5,
      "note": 81,
      "start": 46.8498,
      "duration": 0.0519,
      "velocity": 99,
      "chip": "ym2612"
    },
    {
      "channel": 0,
      "note": 69,
      "start": 47.0811,
      "duration": 0.1184,
      "velocity": 93,
      "chip": "ym2612"
    },
    {
      "channel": 1,
      "note": 39,
      "start": 47.0825,
      "duration": 0.1188,
      "velocity": 105,
      "chip": "ym2612"
    },
    {
      "channel": 3,
      "note": 83,
      "start": 47.0835,
      "duration": 0.1183,
      "velocity": 99,
      "chip": "ym2612"
    },
    {
      "channel": 4,
      "note": 79,
      "start": 47.0849,
      "duration": 0.1184,
      "velocity": 90,
      "chip": "ym2612"
    },
    {
      "channel": 5,
      "note": 79,
      "start": 47.0857,
      "duration": 0.1184,
      "velocity": 99,
      "chip": "ym2612"
    },
    {
      "channel": 0,
      "note": 57,
      "start": 47.2004,
      "duration": 0.3574,
      "velocity": 93,
      "chip": "ym2612"
    },
    {
      "channel": 1,
      "note": 39,
      "start": 47.2017,
      "duration": 0.2371,
      "velocity": 105,
      "chip": "ym2612"
    },
    {
      "channel": 3,
      "note": 84,
      "start": 47.2025,
      "duration": 0.0566,
      "velocity": 99,
      "chip": "ym2612"
    },
    {
      "channel": 4,
      "note": 81,
      "start": 47.2039,
      "duration": 0.2369,
      "velocity": 90,
      "chip": "ym2612"
    },
    {
      "channel": 5,
      "note": 81,
      "start": 47.2047,
      "duration": 0.0551,
      "velocity": 99,
      "chip": "ym2612"
    },
    {
      "channel": 1,
      "note": 39,
      "start": 47.4392,
      "duration": 0.1225,
      "velocity": 126,
      "chip": "ym2612"
    },
    {
      "channel": 3,
      "note": 83,
      "start": 47.44,
      "duration": 0.3612,
      "velocity": 99,
      "chip": "ym2612"
    },
    {
      "channel": 4,
      "note": 67,
      "start": 47.4414,
      "duration": 0.0568,
      "velocity": 90,
      "chip": "ym2612"
    },
    {
      "channel": 5,
      "note": 79,
      "start": 47.4422,
      "duration": 0.3617,
      "velocity": 99,
      "chip": "ym2612"
    },
    {
      "channel": 4,
      "note": 79,
      "start": 47.4989,
      "duration": 0.064,
      "velocity": 90,
      "chip": "ym2612"
    },
    {
      "channel": 0,
      "note": 57,
      "start": 47.5581,
      "duration": 0.1183,
      "velocity": 93,
      "chip": "ym2612"
    },
    {
      "channel": 1,
      "note": 76,
      "start": 47.5624,
      "duration": 0.0149,
      "velocity": 126,
      "chip": "ym2612"
    },
    {
      "channel": 4,
      "note": 67,
      "start": 47.5634,
      "duration": 0.0543,
      "velocity": 90,
      "chip": "ym2612"
    },
    {
      "channel": 4,
      "note": 79,
      "start": 47.6183,
      "duration": 0.0611,
      "velocity": 90,
      "chip": "ym2612"
    },
    {
      "channel": 0,
      "note": 69,
      "start": 47.6771,
      "duration": 0.1193,
      "velocity": 93,
      "chip": "ym2612"
    },
    {
      "channel": 1,
      "note": 76,
      "start": 47.6783,
      "duration": 0.0184,
      "velocity": 126,
      "chip": "ym2612"
    },
    {
      "channel": 4,
      "note": 67,
      "start": 47.68,
      "duration": 0.0568,
      "velocity": 90,
      "chip": "ym2612"
    },
    {
      "channel": 4,
      "note": 79,
      "start": 47.7374,
      "duration": 0.0655,
      "velocity": 90,
      "chip": "ym2612"
    },
    {
      "channel": 0,
      "note": 60,
      "start": 47.7969,
      "duration": 0.1185,
      "velocity": 93,
      "chip": "ym2612"
    },
    {
      "channel": 1,
      "note": 76,
      "start": 47.8006,
      "duration": 0.1162,
      "velocity": 126,
      "chip": "ym2612"
    },
    {
      "channel": 3,
      "note": 79,
      "start": 47.8018,
      "duration": 0.116,
      "velocity": 99,
      "chip": "ym2612"
    },
    {
      "channel": 4,
      "note": 84,
      "start": 47.8036,
      "duration": 0.115,
      "velocity": 90,
      "chip": "ym2612"
    },
    {
      "channel": 5,
      "note": 88,
      "start": 47.8046,
      "duration": 0.1146,
      "velocity": 99,
      "chip": "ym2612"
    },
    {
      "channel": 0,
      "note": 59,
      "start": 47.916,
      "duration": 0.1189,
      "velocity": 93,
      "chip": "ym2612"
    },
    {
      "channel": 1,
      "note": 76,
      "start": 47.9177,
      "duration": 0.1217,
      "velocity": 121,
      "chip": "ym2612"
    },
    {
      "channel": 3,
      "note": 78,
      "start": 47.9185,
      "duration": 0.1216,
      "velocity": 99,
      "chip": "ym2612"
    },
    {
      "channel": 4,
      "note": 84,
      "start": 47.919,
      "duration": 0.0568,
      "velocity": 90,
      "chip": "ym2612"
    },
    {
      "channel": 5,
      "note": 86,
      "start": 47.9198,
      "duration": 0.1211,
      "velocity": 99,
      "chip": "ym2612"
    },
    {
      "channel": 0,
      "note": 57,
      "start": 48.0355,
      "duration": 0.1186,
      "velocity": 93,
      "chip": "ym2612"
    },
    {
      "channel": 1,
      "note": 27,
      "start": 48.04,
      "duration": 0.1177,
      "velocity": 126,
      "chip": "ym2612"
    },
    {
      "channel": 3,
      "note": 76,
      "start": 48.0407,
      "duration": 0.1177,
      "velocity": 99,
      "chip": "ym2612"
    },
    {
      "channel": 5,
      "note": 84,
      "start": 48.0415,
      "duration": 0.1182,
      "velocity": 99,
      "chip": "ym2612"
    },
    {
      "channel": 0,
      "note": 52,
      "start": 48.1547,
      "duration": 0.1188,
      "velocity": 93,
      "chip": "ym2612"
    },
    {
      "channel": 1,
      "note": 76,
      "start": 48.1582,
      "duration": 0.1197,
      "velocity": 105,
      "chip": "ym2612"
    },
    {
      "channel": 3,
      "note": 74,
      "start": 48.159,
      "duration": 0.1197,
      "velocity": 99,
      "chip": "ym2612"
    },
    {
      "channel": 4,
      "note": 84,
      "start": 48.1596,
      "duration": 0.1199,
      "velocity": 90,
      "chip": "ym2612"
    },
    {
      "channel": 5,
      "note": 83,
      "start": 48.1603,
      "duration": 0.1199,
      "velocity": 99,
      "chip": "ym2612"
    },
    {
      "channel": 0,
      "note": 62,
      "start": 48.274,
      "duration": 0.2382,
      "velocity": 93,
      "chip": "ym2612"
    },
    {
      "channel": 1,
      "note": 39,
      "start": 48.2785,
      "duration": 0.235,
      "velocity": 105,
      "chip": "ym2612"
    },
    {
      "channel": 3,
      "note": 81,
      "start": 48.2793,
      "duration": 0.2347,
      "velocity": 99,
      "chip": "ym2612"
    },
    {
      "channel": 4,
      "note": 79,
      "start": 48.28,
      "duration": 0.054,
      "velocity": 90,
      "chip": "ym2612"
    },
    {
      "channel": 5,
      "note": 89,
      "start": 48.2808,
      "duration": 0.234,
      "velocity": 99,
      "chip": "ym2612"
    },
    {
      "channel": 0,
      "note": 62,
      "start": 48.5127,
      "duration": 0.119,
      "velocity": 93,
      "chip": "ym2612"
    },
    {
      "channel": 1,
      "note": 39,
      "start": 48.5139,
      "duration": 0.1191,
      "velocity": 105,
      "chip": "ym2612"
    },
    {
      "channel": 3,
      "note": 69,
      "start": 48.5146,
      "duration": 0.1191,
      "velocity": 99,
      "chip": "ym2612"
    },
    {
      "channel": 5,
      "note": 77,
      "start": 48.5155,
      "duration": 0.1201,
      "velocity": 99,
      "chip": "ym2612"
    },
    {
      "channel": 0,
      "note": 62,
      "start": 48.6322,
      "duration": 0.1199,
      "velocity": 93,
      "chip": "ym2612"
    },
    {
      "channel": 1,
      "note": 39,
      "start": 48.6336,
      "duration": 0.1193,
      "velocity": 105,
      "chip": "ym2612"
    },
    {
      "channel": 3,
      "note": 81,
      "start": 48.6344,
      "duration": 0.1193,
      "velocity": 99,
      "chip": "ym2612"
    },
    {
      "channel": 4,
      "note": 86,
      "start": 48.6354,
      "duration": 0.1191,
      "velocity": 90,
      "chip": "ym2612"
    },
    {
      "channel": 5,
      "note": 89,
      "start": 48.6362,
      "duration": 0.119,
      "velocity": 99,
      "chip": "ym2612"
    },
    {
      "channel": 0,
      "note": 60,
      "start": 48.7528,
      "duration": 0.1382,
      "velocity": 93,
      "chip": "ym2612"
    },
    {
      "channel": 1,
      "note": 39,
      "start": 48.7535,
      "duration": 0.2408,
      "velocity": 127,
      "chip": "ym2612"
    },
    {
      "channel": 3,
      "note": 79,
      "start": 48.7543,
      "duration": 0.0969,
      "velocity": 99,
      "chip": "ym2612"
    },
    {
      "channel": 4,
      "note": 84,
      "start": 48.7551,
      "duration": 0.0566,
      "velocity": 90,
      "chip": "ym2612"
    },
    {
      "channel": 5,
      "note": 88,
      "start": 48.7558,
      "duration": 0.0957,
      "velocity": 99,
      "chip": "ym2612"
    },
    {
      "channel": 0,
      "note": 72,
      "start": 48.8916,
      "duration": 0.0989,
      "velocity": 93,
      "chip": "ym2612"
    },
    {
      "channel": 0,
      "note": 62,
      "start": 48.9911,
      "duration": 0.1387,
      "velocity": 93,
      "chip": "ym2612"
    },
    {
      "channel": 1,
      "note": 69,
      "start": 48.9949,
      "duration": 0.2357,
      "velocity": 127,
      "chip": "ym2612"
    },
    {
      "channel": 3,
      "note": 78,
      "start": 48.9957,
      "duration": 0.0943,
      "velocity": 99,
      "chip": "ym2612"
    },
    {
      "channel": 4,
      "note": 83,
      "start": 48.9965,
      "duration": 0.054,
      "velocity": 90,
      "chip": "ym2612"
    },
    {
      "channel": 5,
      "note": 86,
      "start": 48.9973,
      "duration": 0.0931,
      "velocity": 99,
      "chip": "ym2612"
    },
    {
      "channel": 0,
      "note": 74,
      "start": 49.1304,
      "duration": 0.0988,
      "velocity": 93,
      "chip": "ym2612"
    },
    {
      "channel": 0,
      "note": 64,
      "start": 49.2298,
      "duration": 0.1182,
      "velocity": 93,
      "chip": "ym2612"
    },
    {
      "channel": 1,
      "note": 69,
      "start": 49.2312,
      "duration": 0.1176,
      "velocity": 127,
      "chip": "ym2612"
    },
    {
      "channel": 3,
      "note": 76,
      "start": 49.232,
      "duration": 0.1175,
      "velocity": 99,
      "chip": "ym2612"
    },
    {
      "channel": 4,
      "note": 53,
      "start": 49.2366,
      "duration": 0.0733,
      "velocity": 127,
      "chip": "ym2612"
    },
    {
      "channel": 5,
      "note": 84,
      "start": 49.2373,
      "duration": 0.1133,
      "velocity": 99,
      "chip": "ym2612"
    },
    {
      "channel": 4,
      "note": 48,
      "start": 49.3105,
      "duration": 0.079,
      "velocity": 127,
      "chip": "ym2612"
    },
    {
      "channel": 0,
      "note": 67,
      "start": 49.3486,
      "duration": 0.3586,
      "velocity": 93,
      "chip": "ym2612"
    },
    {
      "channel": 1,
      "note": 69,
      "start": 49.3494,
      "duration": 0.119,
      "velocity": 127,
      "chip": "ym2612"
    },
    {
      "channel": 3,
      "note": 74,
      "start": 49.3502,
      "duration": 0.3664,
      "velocity": 127,
      "chip": "ym2612"
    },
    {
      "channel": 5,
      "note": 83,
      "start": 49.3513,
      "duration": 0.3746,
      "velocity": 90,
      "chip": "ym2612"
    },
    {
      "channel": 4,
      "note": 53,
      "start": 49.39,
      "duration": 0.0804,
      "velocity": 127,
      "chip": "ym2612"
    },
    {
      "channel": 1,
      "note": 69,
      "start": 49.469,
      "duration": 0.119,
      "velocity": 127,
      "chip": "ym2612"
    },
    {
      "channel": 4,
      "note": 48,
      "start": 49.471,
      "duration": 0.0776,
      "velocity": 127,
      "chip": "ym2612"
    },
    {
      "channel": 4,
      "note": 53,
      "start": 49.5492,
      "duration": 0.0791,
      "velocity": 127,
      "chip": "ym2612"
    },
    {
      "channel": 1,
      "note": 69,
      "start": 49.5886,
      "duration": 0.1233,
      "velocity": 105,
      "chip": "ym2612"
    },
    {
      "channel": 4,
      "note": 48,
      "start": 49.6289,
      "duration": 0.0924,
      "velocity": 90,
      "chip": "ym2612"
    },
    {
      "channel": 0,
      "note": 57,
      "start": 49.7078,
      "duration": 0.2472,
      "velocity": 93,
      "chip": "ym2612"
    },
    {
      "channel": 1,
      "note": 39,
      "start": 49.7125,
      "duration": 0.2436,
      "velocity": 105,
      "chip": "ym2612"
    },
    {
      "channel": 3,
      "note": 69,
      "start": 49.7172,
      "duration": 0.119,
      "velocity": 127,
      "chip": "ym2612"
    },
    {
      "channel": 4,
      "note": 69,
      "start": 49.7219,
      "duration": 0.0947,
      "velocity": 90,
      "chip": "ym2612"
    },
    {
      "channel": 5,
      "note": 57,
      "start": 49.7265,
      "duration": 0.0904,
      "velocity": 90,
      "chip": "ym2612"
    },
    {
      "channel": 3,
      "note": 69,
      "start": 49.8371,
      "duration": 0.1196,
      "velocity": 127,
      "chip": "ym2612"
    },
    {
      "channel": 1,
      "note": 39,
      "start": 49.9565,
      "duration": 0.1187,
      "velocity": 105,
      "chip": "ym2612"
    },
    {
      "channel": 4,
      "note": 76,
      "start": 49.9576,
      "duration": 0.0973,
      "velocity": 90,
      "chip": "ym2612"
    },
    {
      "channel": 5,
      "note": 64,
      "start": 49.9584,
      "duration": 0.0968,
      "velocity": 90,
      "chip": "ym2612"
    },
    {
      "channel": 1,
      "note": 39,
      "start": 50.0756,
      "duration": 0.2385,
      "velocity": 105,
      "chip": "ym2612"
    },
    {
      "channel": 4,
      "note": 74,
      "start": 50.1949,
      "duration": 0.0989,
      "velocity": 90,
      "chip": "ym2612"
    },
    {
      "channel": 5,
      "note": 62,
      "start": 50.1956,
      "duration": 0.0984,
      "velocity": 90,
      "chip": "ym2612"
    },
    {
      "channel": 1,
      "note": 39,
      "start": 50.3145,
      "duration": 0.1221,
      "velocity": 126,
      "chip": "ym2612"
    },
    {
      "channel": 0,
      "note": 57,
      "start": 50.4329,
      "duration": 0.2389,
      "velocity": 93,
      "chip": "ym2612"
    },
    {
      "channel": 1,
      "note": 76,
      "start": 50.4372,
      "duration": 0.0156,
      "velocity": 126,
      "chip": "ym2612"
    },
    {
      "channel": 3,
      "note": 69,
      "start": 50.439,
      "duration": 0.1145,
      "velocity": 127,
      "chip": "ym2612"
    },
    {
      "channel": 4,
      "note": 69,
      "start": 50.4398,
      "duration": 0.1147,
      "velocity": 90,
      "chip": "ym2612"
    },
    {
      "channel": 5,
      "note": 57,
      "start": 50.4405,
      "duration": 0.1148,
      "velocity": 90,
      "chip": "ym2612"
    },
    {
      "channel": 1,
      "note": 76,
      "start": 50.5534,
      "duration": 0.0188,
      "velocity": 126,
      "chip": "ym2612"
    },
    {
      "channel": 3,
      "note": 69,
      "start": 50.5541,
      "duration": 0.1228,
      "velocity": 127,
      "chip": "ym2612"
    },
    {
      "channel": 4,
      "note": 76,
      "start": 50.5551,
      "duration": 0.097,
      "velocity": 90,
      "chip": "ym2612"
    },
    {
      "channel": 5,
      "note": 64,
      "start": 50.5559,
      "duration": 0.0965,
      "velocity": 90,
      "chip": "ym2612"
    },
    {
      "channel": 1,
      "note": 39,
      "start": 50.6768,
      "duration": 0.2342,
      "velocity": 105,
      "chip": "ym2612"
    },
    {
      "channel": 4,
      "note": 76,
      "start": 50.7917,
      "duration": 0.1199,
      "velocity": 90,
      "chip": "ym2612"
    },
    {
      "channel": 5,
      "note": 64,
      "start": 50.7922,
      "duration": 0.1201,
      "velocity": 90,
      "chip": "ym2612"
    },
    {
      "channel": 1,
      "note": 39,
      "start": 50.9114,
      "duration": 0.119,
      "velocity": 105,
      "chip": "ym2612"
    },
    {
      "channel": 4,
      "note": 74,
      "start": 50.9122,
      "duration": 0.1189,
      "velocity": 90,
      "chip": "ym2612"
    },
    {
      "channel": 5,
      "note": 62,
      "start": 50.913,
      "duration": 0.1189,
      "velocity": 90,
      "chip": "ym2612"
    },
    {
      "channel": 1,
      "note": 39,
      "start": 51.0308,
      "duration": 0.2384,
      "velocity": 105,
      "chip": "ym2612"
    },
    {
      "channel": 4,
      "note": 69,
      "start": 51.0317,
      "duration": 0.1223,
      "velocity": 90,
      "chip": "ym2612"
    },
    {
      "channel": 5,
      "note": 57,
      "start": 51.0325,
      "duration": 0.1227,
      "velocity": 90,
      "chip": "ym2612"
    },
    {
      "channel": 3,
      "note": 48,
      "start": 51.1539,
      "duration": 0.075,
      "velocity": 127,
      "chip": "ym2612"
    },
    {
      "channel": 4,
      "note": 72,
      "start": 51.1547,
      "duration": 0.1154,
      "velocity": 90,
      "chip": "ym2612"
    },
    {
      "channel": 5,
      "note": 60,
      "start": 51.1558,
      "duration": 0.1151,
      "velocity": 90,
      "chip": "ym2612"
    },
    {
      "channel": 3,
      "note": 43,
      "start": 51.2295,
      "duration": 0.079,
      "velocity": 127,
      "chip": "ym2612"
    },
    {
      "channel": 1,
      "note": 39,
      "start": 51.2697,
      "duration": 0.1219,
      "velocity": 126,
      "chip": "ym2612"
    },
    {
      "channel": 4,
      "note": 72,
      "start": 51.2707,
      "duration": 0.1223,
      "velocity": 90,
      "chip": "ym2612"
    },
    {
      "channel": 5,
      "note": 60,
      "start": 51.2715,
      "duration": 0.1223,
      "velocity": 90,
      "chip": "ym2612"
    },
    {
      "channel": 3,
      "note": 48,
      "start": 51.3091,
      "duration": 0.0832,
      "velocity": 127,
      "chip": "ym2612"
    },
    {
      "channel": 1,
      "note": 76,
      "start": 51.3921,
      "duration": 0.0156,
      "velocity": 126,
      "chip": "ym2612"
    },
    {
      "channel": 3,
      "note": 38,
      "start": 51.3929,
      "duration": 0.1156,
      "velocity": 127,
      "chip": "ym2612"
    },
    {
      "channel": 4,
      "note": 69,
      "start": 51.3936,
      "duration": 0.094,
      "velocity": 90,
      "chip": "ym2612"
    },
    {
      "channel": 5,
      "note": 57,
      "start": 51.3944,
      "duration": 0.0936,
      "velocity": 90,
      "chip": "ym2612"
    },
    {
      "channel": 1,
      "note": 76,
      "start": 51.5083,
      "duration": 0.0188,
      "velocity": 126,
      "chip": "ym2612"
    },
    {
      "channel": 3,
      "note": 38,
      "start": 51.509,
      "duration": 0.128,
      "velocity": 127,
      "chip": "ym2612"
    },
    {
      "channel": 0,
      "note": 57,
      "start": 51.6282,
      "duration": 0.2372,
      "velocity": 93,
      "chip": "ym2612"
    },
    {
      "channel": 1,
      "note": 39,
      "start": 51.6329,
      "duration": 0.2335,
      "velocity": 105,
      "chip": "ym2612"
    },
    {
      "channel": 3,
      "note": 69,
      "start": 51.6377,
      "duration": 0.1089,
      "velocity": 127,
      "chip": "ym2612"
    },
    {
      "channel": 4,
      "note": 69,
      "start": 51.6395,
      "duration": 0.0876,
      "velocity": 90,
      "chip": "ym2612"
    },
    {
      "channel": 5,
      "note": 57,
      "start": 51.6411,
      "duration": 0.0862,
      "velocity": 90,
      "chip": "ym2612"
    },
    {
      "channel": 3,
      "note": 69,
      "start": 51.7472,
      "duration": 0.1198,
      "velocity": 127,
      "chip": "ym2612"
    },
    {
      "channel": 1,
      "note": 39,
      "start": 51.8668,
      "duration": 0.1188,
      "velocity": 105,
      "chip": "ym2612"
    },
    {
      "channel": 4,
      "note": 76,
      "start": 51.8679,
      "duration": 0.0973,
      "velocity": 90,
      "chip": "ym2612"
    },
    {
      "channel": 5,
      "note": 64,
      "start": 51.8687,
      "duration": 0.0969,
      "velocity": 90,
      "chip": "ym2612"
    },
    {
      "channel": 1,
      "note": 39,
      "start": 51.986,
      "duration": 0.2386,
      "velocity": 105,
      "chip": "ym2612"
    },
    {
      "channel": 4,
      "note": 74,
      "start": 52.1052,
      "duration": 0.0989,
      "velocity": 90,
      "chip": "ym2612"
    },
    {
      "channel": 5,
      "note": 62,
      "start": 52.1059,
      "duration": 0.0985,
      "velocity": 90,
      "chip": "ym2612"
    },
    {
      "channel": 1,
      "note": 39,
      "start": 52.225,
      "duration": 0.1219,
      "velocity": 126,
      "chip": "ym2612"
    },
    {
      "channel": 0,
      "note": 57,
      "start": 52.3433,
      "duration": 0.2385,
      "velocity": 93,
      "chip": "ym2612"
    },
    {
      "channel": 1,
      "note": 76,
      "start": 52.3476,
      "duration": 0.0156,
      "velocity": 126,
      "chip": "ym2612"
    },
    {
      "channel": 3,
      "note": 69,
      "start": 52.3491,
      "duration": 0.1148,
      "velocity": 127,
      "chip": "ym2612"
    },
    {
      "channel": 4,
      "note": 69,
      "start": 52.3498,
      "duration": 0.1149,
      "velocity": 90,
      "chip": "ym2612"
    },
    {
      "channel": 5,
      "note": 57,
      "start": 52.3506,
      "duration": 0.1149,
      "velocity": 90,
      "chip": "ym2612"
    },
    {
      "channel": 1,
      "note": 76,
      "start": 52.4638,
      "duration": 0.0188,
      "velocity": 126,
      "chip": "ym2612"
    },
    {
      "channel": 3,
      "note": 69,
      "start": 52.4645,
      "duration": 0.1223,
      "velocity": 127,
      "chip": "ym2612"
    },
    {
      "channel": 4,
      "note": 76,
      "start": 52.4653,
      "duration": 0.0972,
      "velocity": 90,
      "chip": "ym2612"
    },
    {
      "channel": 5,
      "note": 64,
      "start": 52.4661,
      "duration": 0.0968,
      "velocity": 90,
      "chip": "ym2612"
    },
    {
      "channel": 1,
      "note": 39,
      "start": 52.5866,
      "duration": 0.2346,
      "velocity": 105,
      "chip": "ym2612"
    },
    {
      "channel": 4,
      "note": 76,
      "start": 52.702,
      "duration": 0.12,
      "velocity": 90,
      "chip": "ym2612"
    },
    {
      "channel": 5,
      "note": 64,
      "start": 52.7025,
      "duration": 0.1201,
      "velocity": 90,
      "chip": "ym2612"
    },
    {
      "channel": 1,
      "note": 39,
      "start": 52.8217,
      "duration": 0.1192,
      "velocity": 105,
      "chip": "ym2612"
    },
    {
      "channel": 4,
      "note": 74,
      "start": 52.8225,
      "duration": 0.1193,
      "velocity": 90,
      "chip": "ym2612"
    },
    {
      "channel": 5,
      "note": 62,
      "start": 52.8233,
      "duration": 0.1191,
      "velocity": 90,
      "chip": "ym2612"
    },
    {
      "channel": 1,
      "note": 39,
      "start": 52.9415,
      "duration": 0.1219,
      "velocity": 127,
      "chip": "ym2612"
    },
    {
      "channel": 4,
      "note": 74,
      "start": 52.9422,
      "duration": 0.1263,
      "velocity": 90,
      "chip": "ym2612"
    },
    {
      "channel": 5,
      "note": 57,
      "start": 52.943,
      "duration": 0.1264,
      "velocity": 90,
      "chip": "ym2612"
    },
    {
      "channel": 1,
      "note": 39,
      "start": 53.0639,
      "duration": 0.0559,
      "velocity": 127,
      "chip": "ym2612"
    },
    {
      "channel": 3,
      "note": 48,
      "start": 53.0684,
      "duration": 0.0709,
      "velocity": 127,
      "chip": "ym2612"
    },
    {
      "channel": 4,
      "note": 67,
      "start": 53.0692,
      "duration": 0.0708,
      "velocity": 90,
      "chip": "ym2612"
    },
    {
      "channel": 5,
      "note": 60,
      "start": 53.07,
      "duration": 0.1102,
      "velocity": 90,
      "chip": "ym2612"
    },
    {
      "channel": 1,
      "note": 39,
      "start": 53.1203,
      "duration": 0.0585,
      "velocity": 127,
      "chip": "ym2612"
    },
    {
      "channel": 3,
      "note": 43,
      "start": 53.1399,
      "duration": 0.0791,
      "velocity": 127,
      "chip": "ym2612"
    },
    {
      "channel": 4,
      "note": 79,
      "start": 53.1406,
      "duration": 0.0791,
      "velocity": 90,
      "chip": "ym2612"
    },
    {
      "channel": 1,
      "note": 39,
      "start": 53.1794,
      "duration": 0.0598,
      "velocity": 127,
      "chip": "ym2612"
    },
    {
      "channel": 5,
      "note": 60,
      "start": 53.1808,
      "duration": 0.1202,
      "velocity": 90,
      "chip": "ym2612"
    },
    {
      "channel": 3,
      "note": 48,
      "start": 53.2195,
      "duration": 0.08,
      "velocity": 127,
      "chip": "ym2612"
    },
    {
      "channel": 4,
      "note": 67,
      "start": 53.2203,
      "duration": 0.08,
      "velocity": 90,
      "chip": "ym2612"
    },
    {
      "channel": 1,
      "note": 39,
      "start": 53.2398,
      "duration": 0.0591,
      "velocity": 127,
      "chip": "ym2612"
    },
    {
      "channel": 1,
      "note": 39,
      "start": 53.2994,
      "duration": 0.0594,
      "velocity": 127,
      "chip": "ym2612"
    },
    {
      "channel": 3,
      "note": 38,
      "start": 53.3001,
      "duration": 0.1189,
      "velocity": 127,
      "chip": "ym2612"
    },
    {
      "channel": 4,
      "note": 79,
      "start": 53.3009,
      "duration": 0.0775,
      "velocity": 90,
      "chip": "ym2612"
    },
    {
      "channel": 5,
      "note": 57,
      "start": 53.3017,
      "duration": 0.0973,
      "velocity": 90,
      "chip": "ym2612"
    },
    {
      "channel": 1,
      "note": 39,
      "start": 53.3594,
      "duration": 0.0589,
      "velocity": 127,
      "chip": "ym2612"
    },
    {
      "channel": 4,
      "note": 91,
      "start": 53.379,
      "duration": 0.0793,
      "velocity": 90,
      "chip": "ym2612"
    },
    {
      "channel": 1,
      "note": 39,
      "start": 53.4189,
      "duration": 0.059,
      "velocity": 127,
      "chip": "ym2612"
    },
    {
      "channel": 3,
      "note": 38,
      "start": 53.4196,
      "duration": 0.1306,
      "velocity": 127,
      "chip": "ym2612"
    },
    {
      "channel": 4,
      "note": 103,
      "start": 53.4589,
      "duration": 0.0957,
      "velocity": 90,
      "chip": "ym2612"
    },
    {
      "channel": 1,
      "note": 39,
      "start": 53.4785,
      "duration": 0.0671,
      "velocity": 127,
      "chip": "ym2612"
    },
    {
      "channel": 0,
      "note": 57,
      "start": 53.5417,
      "duration": 0.0173,
      "velocity": 93,
      "chip": "ym2612"
    },
    {
      "channel": 1,
      "note": 38,
      "start": 53.5462,
      "duration": 0.0128,
      "velocity": 127,
      "chip": "ym2612"
    },
    {
      "channel": 3,
      "note": 69,
      "start": 53.5508,
      "duration": 0.0081,
      "velocity": 127,
      "chip": "ym2612"
    },
    {
      "channel": 4,
      "note": 69,
      "start": 53.5552,
      "duration": 0.0037,
      "velocity": 90,
      "chip": "ym2612"
    }
  ]
}