{
  "track_name": "14 - The Chase (HEX War)",
  "duration_sec": 43.927,
  "sample_rate": 44100,
  "note_count": 734,
  "unique_pitches": 36,
  "pitch_range": 46,
  "avg_note_duration": 0.2868,
  "reconstruction_stats": {
    "notes_reconstructed": 734,
    "keyon_events": 734,
    "keyoff_events": 730,
    "orphan_keyons": 4,
    "unique_pitches": 36,
    "pitch_range": 46,
    "avg_duration_sec": 0.2868
  },
  "metadata": {
    "source": "D\\Daikoukai Jidai II\\14 - The Chase (HEX War).vgz"
  },
  "notes": [
    {
      "channel": 0,
      "note": 73,
      "start": 0.0115,
      "duration": 0.0723,
      "velocity": 103,
      "chip": "ym2612"
    },
    {
      "channel": 3,
      "note": 80,
      "start": 0.0156,
      "duration": 0.0684,
      "velocity": 107,
      "chip": "ym2612"
    },
    {
      "channel": 4,
      "note": 46,
      "start": 0.0175,
      "duration": 0.2921,
      "velocity": 98,
      "chip": "ym2612"
    },
    {
      "channel": 5,
      "note": 68,
      "start": 0.0193,
      "duration": 0.0727,
      "velocity": 120,
      "chip": "ym2612"
    },
    {
      "channel": 1,
      "note": 73,
      "start": 0.0199,
      "duration": 0.0681,
      "velocity": 103,
      "chip": "ym2612"
    },
    {
      "channel": 2,
      "note": 73,
      "start": 0.072,
      "duration": 0.3977,
      "velocity": 103,
      "chip": "ym2612"
    },
    {
      "channel": 5,
      "note": 68,
      "start": 0.2033,
      "duration": 0.0858,
      "velocity": 120,
      "chip": "ym2612"
    },
    {
      "channel": 5,
      "note": 69,
      "start": 0.3059,
      "duration": 0.0817,
      "velocity": 120,
      "chip": "ym2612"
    },
    {
      "channel": 0,
      "note": 73,
      "start": 0.4044,
      "duration": 0.488,
      "velocity": 103,
      "chip": "ym2612"
    },
    {
      "channel": 3,
      "note": 80,
      "start": 0.4048,
      "duration": 0.4876,
      "velocity": 107,
      "chip": "ym2612"
    },
    {
      "channel": 4,
      "note": 51,
      "start": 0.4054,
      "duration": 0.5612,
      "velocity": 98,
      "chip": "ym2612"
    },
    {
      "channel": 5,
      "note": 68,
      "start": 0.4058,
      "duration": 0.0805,
      "velocity": 120,
      "chip": "ym2612"
    },
    {
      "channel": 1,
      "note": 73,
      "start": 0.4129,
      "duration": 0.4877,
      "velocity": 103,
      "chip": "ym2612"
    },
    {
      "channel": 2,
      "note": 73,
      "start": 0.4701,
      "duration": 0.6111,
      "velocity": 103,
      "chip": "ym2612"
    },
    {
      "channel": 5,
      "note": 68,
      "start": 0.6013,
      "duration": 0.0817,
      "velocity": 120,
      "chip": "ym2612"
    },
    {
      "channel": 5,
      "note": 69,
      "start": 0.6998,
      "duration": 0.0817,
      "velocity": 120,
      "chip": "ym2612"
    },
    {
      "channel": 5,
      "note": 68,
      "start": 0.7983,
      "duration": 0.0858,
      "velocity": 120,
      "chip": "ym2612"
    },
    {
      "channel": 4,
      "note": 53,
      "start": 0.9995,
      "duration": 0.7917,
      "velocity": 98,
      "chip": "ym2612"
    },
    {
      "channel": 5,
      "note": 68,
      "start": 1.0,
      "duration": 0.0812,
      "velocity": 120,
      "chip": "ym2612"
    },
    {
      "channel": 0,
      "note": 75,
      "start": 1.0159,
      "duration": 0.5865,
      "velocity": 103,
      "chip": "ym2612"
    },
    {
      "channel": 3,
      "note": 82,
      "start": 1.0167,
      "duration": 0.5858,
      "velocity": 107,
      "chip": "ym2612"
    },
    {
      "channel": 1,
      "note": 75,
      "start": 1.0241,
      "duration": 0.5865,
      "velocity": 103,
      "chip": "ym2612"
    },
    {
      "channel": 2,
      "note": 75,
      "start": 1.0817,
      "duration": 0.775,
      "velocity": 103,
      "chip": "ym2612"
    },
    {
      "channel": 5,
      "note": 69,
      "start": 1.0983,
      "duration": 0.0814,
      "velocity": 120,
      "chip": "ym2612"
    },
    {
      "channel": 5,
      "note": 68,
      "start": 1.1967,
      "duration": 0.0815,
      "velocity": 120,
      "chip": "ym2612"
    },
    {
      "channel": 5,
      "note": 68,
      "start": 1.3934,
      "duration": 0.0858,
      "velocity": 120,
      "chip": "ym2612"
    },
    {
      "channel": 5,
      "note": 69,
      "start": 1.4963,
      "duration": 0.0815,
      "velocity": 120,
      "chip": "ym2612"
    },
    {
      "channel": 5,
      "note": 68,
      "start": 1.5945,
      "duration": 0.082,
      "velocity": 120,
      "chip": "ym2612"
    },
    {
      "channel": 0,
      "note": 77,
      "start": 1.7916,
      "duration": 0.7957,
      "velocity": 103,
      "chip": "ym2612"
    },
    {
      "channel": 3,
      "note": 84,
      "start": 1.7921,
      "duration": 0.7953,
      "velocity": 107,
      "chip": "ym2612"
    },
    {
      "channel": 4,
      "note": 54,
      "start": 1.7926,
      "duration": 0.569,
      "velocity": 98,
      "chip": "ym2612"
    },
    {
      "channel": 5,
      "note": 68,
      "start": 1.7932,
      "duration": 0.08,
      "velocity": 120,
      "chip": "ym2612"
    },
    {
      "channel": 1,
      "note": 77,
      "start": 1.7998,
      "duration": 0.7958,
      "velocity": 103,
      "chip": "ym2612"
    },
    {
      "channel": 2,
      "note": 77,
      "start": 1.8573,
      "duration": 0.9927,
      "velocity": 103,
      "chip": "ym2612"
    },
    {
      "channel": 5,
      "note": 69,
      "start": 1.89,
      "duration": 0.0817,
      "velocity": 120,
      "chip": "ym2612"
    },
    {
      "channel": 5,
      "note": 68,
      "start": 1.9885,
      "duration": 0.0858,
      "velocity": 120,
      "chip": "ym2612"
    },
    {
      "channel": 5,
      "note": 68,
      "start": 2.1896,
      "duration": 0.0817,
      "velocity": 120,
      "chip": "ym2612"
    },
    {
      "channel": 5,
      "note": 69,
      "start": 2.2881,
      "duration": 0.0817,
      "velocity": 120,
      "chip": "ym2612"
    },
    {
      "channel": 4,
      "note": 56,
      "start": 2.3869,
      "duration": 0.1799,
      "velocity": 98,
      "chip": "ym2612"
    },
    {
      "channel": 5,
      "note": 68,
      "start": 2.3873,
      "duration": 0.0814,
      "velocity": 120,
      "chip": "ym2612"
    },
    {
      "channel": 4,
      "note": 58,
      "start": 2.5879,
      "duration": 0.1718,
      "velocity": 98,
      "chip": "ym2612"
    },
    {
      "channel": 5,
      "note": 68,
      "start": 2.5884,
      "duration": 0.081,
      "velocity": 120,
      "chip": "ym2612"
    },
    {
      "channel": 5,
      "note": 69,
      "start": 2.6864,
      "duration": 0.0815,
      "velocity": 120,
      "chip": "ym2612"
    },
    {
      "channel": 0,
      "note": 73,
      "start": 2.7847,
      "duration": 0.0818,
      "velocity": 103,
      "chip": "ym2612"
    },
    {
      "channel": 3,
      "note": 80,
      "start": 2.7851,
      "duration": 0.0814,
      "velocity": 107,
      "chip": "ym2612"
    },
    {
      "channel": 4,
      "note": 46,
      "start": 2.7857,
      "duration": 0.1628,
      "velocity": 98,
      "chip": "ym2612"
    },
    {
      "channel": 5,
      "note": 68,
      "start": 2.7864,
      "duration": 0.0802,
      "velocity": 120,
      "chip": "ym2612"
    },
    {
      "channel": 1,
      "note": 73,
      "start": 2.7929,
      "duration": 0.0817,
      "velocity": 103,
      "chip": "ym2612"
    },
    {
      "channel": 2,
      "note": 73,
      "start": 2.8505,
      "duration": 0.3976,
      "velocity": 103,
      "chip": "ym2612"
    },
    {
      "channel": 5,
      "note": 68,
      "start": 2.9817,
      "duration": 0.0818,
      "velocity": 120,
      "chip": "ym2612"
    },
    {
      "channel": 5,
      "note": 69,
      "start": 3.0802,
      "duration": 0.0858,
      "velocity": 120,
      "chip": "ym2612"
    },
    {
      "channel": 0,
      "note": 73,
      "start": 3.1828,
      "duration": 0.4018,
      "velocity": 103,
      "chip": "ym2612"
    },
    {
      "channel": 3,
      "note": 80,
      "start": 3.1832,
      "duration": 0.4014,
      "velocity": 107,
      "chip": "ym2612"
    },
    {
      "channel": 4,
      "note": 51,
      "start": 3.1839,
      "duration": 0.569,
      "velocity": 98,
      "chip": "ym2612"
    },
    {
      "channel": 5,
      "note": 68,
      "start": 3.1843,
      "duration": 0.0802,
      "velocity": 120,
      "chip": "ym2612"
    },
    {
      "channel": 1,
      "note": 73,
      "start": 3.191,
      "duration": 0.4018,
      "velocity": 103,
      "chip": "ym2612"
    },
    {
      "channel": 2,
      "note": 73,
      "start": 3.2485,
      "duration": 0.5617,
      "velocity": 103,
      "chip": "ym2612"
    },
    {
      "channel": 5,
      "note": 68,
      "start": 3.3798,
      "duration": 0.0817,
      "velocity": 120,
      "chip": "ym2612"
    },
    {
      "channel": 5,
      "note": 69,
      "start": 3.4783,
      "duration": 0.0817,
      "velocity": 120,
      "chip": "ym2612"
    },
    {
      "channel": 5,
      "note": 68,
      "start": 3.577,
      "duration": 0.0814,
      "velocity": 120,
      "chip": "ym2612"
    },
    {
      "channel": 0,
      "note": 75,
      "start": 3.745,
      "duration": 0.6603,
      "velocity": 103,
      "chip": "ym2612"
    },
    {
      "channel": 3,
      "note": 82,
      "start": 3.7455,
      "duration": 0.66,
      "velocity": 107,
      "chip": "ym2612"
    },
    {
      "channel": 1,
      "note": 75,
      "start": 3.7533,
      "duration": 0.6604,
      "velocity": 103,
      "chip": "ym2612"
    },
    {
      "channel": 4,
      "note": 53,
      "start": 3.7779,
      "duration": 0.7588,
      "velocity": 98,
      "chip": "ym2612"
    },
    {
      "channel": 5,
      "note": 68,
      "start": 3.7784,
      "duration": 0.0814,
      "velocity": 120,
      "chip": "ym2612"
    },
    {
      "channel": 2,
      "note": 75,
      "start": 3.8108,
      "duration": 0.7916,
      "velocity": 103,
      "chip": "ym2612"
    },
    {
      "channel": 5,
      "note": 69,
      "start": 3.8766,
      "duration": 0.0815,
      "velocity": 120,
      "chip": "ym2612"
    },
    {
      "channel": 5,
      "note": 68,
      "start": 3.9748,
      "duration": 0.0817,
      "velocity": 120,
      "chip": "ym2612"
    },
    {
      "channel": 5,
      "note": 68,
      "start": 4.1719,
      "duration": 0.0816,
      "velocity": 120,
      "chip": "ym2612"
    },
    {
      "channel": 5,
      "note": 69,
      "start": 4.2703,
      "duration": 0.0861,
      "velocity": 120,
      "chip": "ym2612"
    },
    {
      "channel": 5,
      "note": 68,
      "start": 4.3729,
      "duration": 0.0817,
      "velocity": 120,
      "chip": "ym2612"
    },
    {
      "channel": 0,
      "note": 77,
      "start": 4.5372,
      "duration": 0.7916,
      "velocity": 103,
      "chip": "ym2612"
    },
    {
      "channel": 3,
      "note": 84,
      "start": 4.5377,
      "duration": 0.7912,
      "velocity": 107,
      "chip": "ym2612"
    },
    {
      "channel": 1,
      "note": 77,
      "start": 4.5453,
      "duration": 0.7917,
      "velocity": 103,
      "chip": "ym2612"
    },
    {
      "channel": 4,
      "note": 54,
      "start": 4.5699,
      "duration": 0.5701,
      "velocity": 98,
      "chip": "ym2612"
    },
    {
      "channel": 5,
      "note": 68,
      "start": 4.5704,
      "duration": 0.0812,
      "velocity": 120,
      "chip": "ym2612"
    },
    {
      "channel": 2,
      "note": 77,
      "start": 4.6029,
      "duration": 1.0255,
      "velocity": 103,
      "chip": "ym2612"
    },
    {
      "channel": 5,
      "note": 69,
      "start": 4.6684,
      "duration": 0.0817,
      "velocity": 120,
      "chip": "ym2612"
    },
    {
      "channel": 5,
      "note": 68,
      "start": 4.767,
      "duration": 0.0816,
      "velocity": 120,
      "chip": "ym2612"
    },
    {
      "channel": 5,
      "note": 68,
      "start": 4.9681,
      "duration": 0.0816,
      "velocity": 120,
      "chip": "ym2612"
    },
    {
      "channel": 5,
      "note": 69,
      "start": 5.0667,
      "duration": 0.0815,
      "velocity": 120,
      "chip": "ym2612"
    },
    {
      "channel": 4,
      "note": 56,
      "start": 5.165,
      "duration": 0.1802,
      "velocity": 98,
      "chip": "ym2612"
    },
    {
      "channel": 5,
      "note": 68,
      "start": 5.1655,
      "duration": 0.0812,
      "velocity": 120,
      "chip": "ym2612"
    },
    {
      "channel": 4,
      "note": 58,
      "start": 5.3621,
      "duration": 0.1844,
      "velocity": 98,
      "chip": "ym2612"
    },
    {
      "channel": 5,
      "note": 68,
      "start": 5.3626,
      "duration": 0.0811,
      "velocity": 120,
      "chip": "ym2612"
    },
    {
      "channel": 5,
      "note": 69,
      "start": 5.4646,
      "duration": 0.082,
      "velocity": 120,
      "chip": "ym2612"
    },
    {
      "channel": 0,
      "note": 73,
      "start": 5.5632,
      "duration": 0.0734,
      "velocity": 103,
      "chip": "ym2612"
    },
    {
      "channel": 3,
      "note": 80,
      "start": 5.5637,
      "duration": 0.073,
      "velocity": 107,
      "chip": "ym2612"
    },
    {
      "channel": 4,
      "note": 46,
      "start": 5.5642,
      "duration": 0.1463,
      "velocity": 98,
      "chip": "ym2612"
    },
    {
      "channel": 5,
      "note": 68,
      "start": 5.5647,
      "duration": 0.0801,
      "velocity": 120,
      "chip": "ym2612"
    },
    {
      "channel": 1,
      "note": 73,
      "start": 5.5713,
      "duration": 0.0736,
      "velocity": 103,
      "chip": "ym2612"
    },
    {
      "channel": 2,
      "note": 73,
      "start": 5.6289,
      "duration": 0.3935,
      "velocity": 103,
      "chip": "ym2612"
    },
    {
      "channel": 5,
      "note": 68,
      "start": 5.7601,
      "duration": 0.0817,
      "velocity": 120,
      "chip": "ym2612"
    },
    {
      "channel": 5,
      "note": 69,
      "start": 5.8586,
      "duration": 0.0817,
      "velocity": 120,
      "chip": "ym2612"
    },
    {
      "channel": 0,
      "note": 73,
      "start": 5.9571,
      "duration": 0.3854,
      "velocity": 103,
      "chip": "ym2612"
    },
    {
      "channel": 3,
      "note": 80,
      "start": 5.9576,
      "duration": 0.385,
      "velocity": 107,
      "chip": "ym2612"
    },
    {
      "channel": 4,
      "note": 51,
      "start": 5.958,
      "duration": 0.5732,
      "velocity": 98,
      "chip": "ym2612"
    },
    {
      "channel": 5,
      "note": 68,
      "start": 5.9585,
      "duration": 0.0802,
      "velocity": 120,
      "chip": "ym2612"
    },
    {
      "channel": 1,
      "note": 73,
      "start": 5.9653,
      "duration": 0.3854,
      "velocity": 103,
      "chip": "ym2612"
    },
    {
      "channel": 2,
      "note": 73,
      "start": 6.0229,
      "duration": 0.5946,
      "velocity": 103,
      "chip": "ym2612"
    },
    {
      "channel": 5,
      "note": 68,
      "start": 6.1541,
      "duration": 0.0817,
      "velocity": 120,
      "chip": "ym2612"
    },
    {
      "channel": 5,
      "note": 69,
      "start": 6.2526,
      "duration": 0.0817,
      "velocity": 120,
      "chip": "ym2612"
    },
    {
      "channel": 5,
      "note": 68,
      "start": 6.3511,
      "duration": 0.0816,
      "velocity": 120,
      "chip": "ym2612"
    },
    {
      "channel": 0,
      "note": 75,
      "start": 6.5481,
      "duration": 0.6644,
      "velocity": 103,
      "chip": "ym2612"
    },
    {
      "channel": 3,
      "note": 82,
      "start": 6.5485,
      "duration": 0.6641,
      "velocity": 107,
      "chip": "ym2612"
    },
    {
      "channel": 4,
      "note": 53,
      "start": 6.549,
      "duration": 0.762,
      "velocity": 98,
      "chip": "ym2612"
    },
    {
      "channel": 5,
      "note": 68,
      "start": 6.5495,
      "duration": 0.0843,
      "velocity": 120,
      "chip": "ym2612"
    },
    {
      "channel": 1,
      "note": 75,
      "start": 6.5565,
      "duration": 0.6642,
      "velocity": 103,
      "chip": "ym2612"
    },
    {
      "channel": 2,
      "note": 75,
      "start": 6.6179,
      "duration": 0.7916,
      "velocity": 103,
      "chip": "ym2612"
    },
    {
      "channel": 5,
      "note": 69,
      "start": 6.6506,
      "duration": 0.0817,
      "velocity": 120,
      "chip": "ym2612"
    },
    {
      "channel": 5,
      "note": 68,
      "start": 6.7491,
      "duration": 0.0817,
      "velocity": 120,
      "chip": "ym2612"
    },
    {
      "channel": 5,
      "note": 68,
      "start": 6.9464,
      "duration": 0.0815,
      "velocity": 120,
      "chip": "ym2612"
    },
    {
      "channel": 5,
      "note": 69,
      "start": 7.0447,
      "duration": 0.0817,
      "velocity": 120,
      "chip": "ym2612"
    },
    {
      "channel": 5,
      "note": 68,
      "start": 7.1431,
      "duration": 0.0858,
      "velocity": 120,
      "chip": "ym2612"
    },
    {
      "channel": 0,
      "note": 77,
      "start": 7.3442,
      "duration": 0.726,
      "velocity": 103,
      "chip": "ym2612"
    },
    {
      "channel": 3,
      "note": 84,
      "start": 7.3447,
      "duration": 0.7256,
      "velocity": 107,
      "chip": "ym2612"
    },
    {
      "channel": 4,
      "note": 54,
      "start": 7.3452,
      "duration": 0.5691,
      "velocity": 98,
      "chip": "ym2612"
    },
    {
      "channel": 5,
      "note": 68,
      "start": 7.3457,
      "duration": 0.0802,
      "velocity": 120,
      "chip": "ym2612"
    },
    {
      "channel": 1,
      "note": 77,
      "start": 7.3524,
      "duration": 0.726,
      "velocity": 103,
      "chip": "ym2612"
    },
    {
      "channel": 2,
      "note": 77,
      "start": 7.41,
      "duration": 0.7916,
      "velocity": 103,
      "chip": "ym2612"
    },
    {
      "channel": 5,
      "note": 69,
      "start": 7.4427,
      "duration": 0.0817,
      "velocity": 120,
      "chip": "ym2612"
    },
    {
      "channel": 5,
      "note": 68,
      "start": 7.5412,
      "duration": 0.0817,
      "velocity": 120,
      "chip": "ym2612"
    },
    {
      "channel": 5,
      "note": 68,
      "start": 7.7382,
      "duration": 0.0858,
      "velocity": 120,
      "chip": "ym2612"
    },
    {
      "channel": 5,
      "note": 69,
      "start": 7.8409,
      "duration": 0.0816,
      "velocity": 120,
      "chip": "ym2612"
    },
    {
      "channel": 4,
      "note": 56,
      "start": 7.9393,
      "duration": 0.1802,
      "velocity": 98,
      "chip": "ym2612"
    },
    {
      "channel": 5,
      "note": 68,
      "start": 7.9398,
      "duration": 0.0812,
      "velocity": 120,
      "chip": "ym2612"
    },
    {
      "channel": 0,
      "note": 73,
      "start": 8.1366,
      "duration": 0.0814,
      "velocity": 103,
      "chip": "ym2612"
    },
    {
      "channel": 3,
      "note": 80,
      "start": 8.137,
      "duration": 0.0811,
      "velocity": 107,
      "chip": "ym2612"
    },
    {
      "channel": 4,
      "note": 58,
      "start": 8.1375,
      "duration": 0.1379,
      "velocity": 98,
      "chip": "ym2612"
    },
    {
      "channel": 5,
      "note": 68,
      "start": 8.138,
      "duration": 0.0802,
      "velocity": 120,
      "chip": "ym2612"
    },
    {
      "channel": 1,
      "note": 73,
      "start": 8.1445,
      "duration": 0.0819,
      "velocity": 103,
      "chip": "ym2612"
    },
    {
      "channel": 2,
      "note": 73,
      "start": 8.2021,
      "duration": 0.2006,
      "velocity": 103,
      "chip": "ym2612"
    },
    {
      "channel": 5,
      "note": 69,
      "start": 8.2348,
      "duration": 0.0817,
      "velocity": 120,
      "chip": "ym2612"
    },
    {
      "channel": 0,
      "note": 73,
      "start": 8.3374,
      "duration": 0.0817,
      "velocity": 103,
      "chip": "ym2612"
    },
    {
      "channel": 3,
      "note": 80,
      "start": 8.3379,
      "duration": 0.0813,
      "velocity": 107,
      "chip": "ym2612"
    },
    {
      "channel": 4,
      "note": 46,
      "start": 8.3384,
      "duration": 0.1464,
      "velocity": 98,
      "chip": "ym2612"
    },
    {
      "channel": 5,
      "note": 68,
      "start": 8.3389,
      "duration": 0.0804,
      "velocity": 120,
      "chip": "ym2612"
    },
    {
      "channel": 1,
      "note": 73,
      "start": 8.3458,
      "duration": 0.0815,
      "velocity": 103,
      "chip": "ym2612"
    },
    {
      "channel": 2,
      "note": 73,
      "start": 8.4032,
      "duration": 0.3935,
      "velocity": 103,
      "chip": "ym2612"
    },
    {
      "channel": 5,
      "note": 68,
      "start": 8.5344,
      "duration": 0.082,
      "velocity": 120,
      "chip": "ym2612"
    },
    {
      "channel": 5,
      "note": 69,
      "start": 8.6329,
      "duration": 0.0817,
      "velocity": 120,
      "chip": "ym2612"
    },
    {
      "channel": 0,
      "note": 73,
      "start": 8.7314,
      "duration": 0.4223,
      "velocity": 103,
      "chip": "ym2612"
    },
    {
      "channel": 3,
      "note": 80,
      "start": 8.7318,
      "duration": 0.422,
      "velocity": 107,
      "chip": "ym2612"
    },
    {
      "channel": 4,
      "note": 51,
      "start": 8.7324,
      "duration": 0.594,
      "velocity": 98,
      "chip": "ym2612"
    },
    {
      "channel": 5,
      "note": 68,
      "start": 8.7329,
      "duration": 0.0802,
      "velocity": 120,
      "chip": "ym2612"
    },
    {
      "channel": 1,
      "note": 73,
      "start": 8.7396,
      "duration": 0.4223,
      "velocity": 103,
      "chip": "ym2612"
    },
    {
      "channel": 2,
      "note": 73,
      "start": 8.7972,
      "duration": 0.5946,
      "velocity": 103,
      "chip": "ym2612"
    },
    {
      "channel": 5,
      "note": 68,
      "start": 8.9325,
      "duration": 0.0817,
      "velocity": 120,
      "chip": "ym2612"
    },
    {
      "channel": 5,
      "note": 69,
      "start": 9.031,
      "duration": 0.0817,
      "velocity": 120,
      "chip": "ym2612"
    },
    {
      "channel": 5,
      "note": 68,
      "start": 9.1295,
      "duration": 0.0817,
      "velocity": 120,
      "chip": "ym2612"
    },
    {
      "channel": 0,
      "note": 75,
      "start": 9.3268,
      "duration": 0.6272,
      "velocity": 103,
      "chip": "ym2612"
    },
    {
      "channel": 3,
      "note": 82,
      "start": 9.3273,
      "duration": 0.6268,
      "velocity": 107,
      "chip": "ym2612"
    },
    {
      "channel": 4,
      "note": 53,
      "start": 9.3278,
      "duration": 0.7616,
      "velocity": 98,
      "chip": "ym2612"
    },
    {
      "channel": 5,
      "note": 68,
      "start": 9.3283,
      "duration": 0.0799,
      "velocity": 120,
      "chip": "ym2612"
    },
    {
      "channel": 1,
      "note": 75,
      "start": 9.3347,
      "duration": 0.6275,
      "velocity": 103,
      "chip": "ym2612"
    },
    {
      "channel": 2,
      "note": 75,
      "start": 9.3922,
      "duration": 0.7628,
      "velocity": 103,
      "chip": "ym2612"
    },
    {
      "channel": 5,
      "note": 69,
      "start": 9.4249,
      "duration": 0.0858,
      "velocity": 120,
      "chip": "ym2612"
    },
    {
      "channel": 5,
      "note": 68,
      "start": 9.5276,
      "duration": 0.0817,
      "velocity": 120,
      "chip": "ym2612"
    },
    {
      "channel": 5,
      "note": 68,
      "start": 9.7245,
      "duration": 0.082,
      "velocity": 120,
      "chip": "ym2612"
    },
    {
      "channel": 5,
      "note": 69,
      "start": 9.823,
      "duration": 0.0817,
      "velocity": 120,
      "chip": "ym2612"
    },
    {
      "channel": 5,
      "note": 68,
      "start": 9.9215,
      "duration": 0.0817,
      "velocity": 120,
      "chip": "ym2612"
    },
    {
      "channel": 0,
      "note": 77,
      "start": 10.0899,
      "duration": 0.9804,
      "velocity": 103,
      "chip": "ym2612"
    },
    {
      "channel": 3,
      "note": 84,
      "start": 10.0904,
      "duration": 0.98,
      "velocity": 107,
      "chip": "ym2612"
    },
    {
      "channel": 1,
      "note": 77,
      "start": 10.098,
      "duration": 0.9805,
      "velocity": 103,
      "chip": "ym2612"
    },
    {
      "channel": 4,
      "note": 54,
      "start": 10.1227,
      "duration": 0.5618,
      "velocity": 98,
      "chip": "ym2612"
    },
    {
      "channel": 5,
      "note": 68,
      "start": 10.1232,
      "duration": 0.0812,
      "velocity": 120,
      "chip": "ym2612"
    },
    {
      "channel": 2,
      "note": 77,
      "start": 10.1556,
      "duration": 1.4195,
      "velocity": 103,
      "chip": "ym2612"
    },
    {
      "channel": 5,
      "note": 69,
      "start": 10.2211,
      "duration": 0.0817,
      "velocity": 120,
      "chip": "ym2612"
    },
    {
      "channel": 5,
      "note": 68,
      "start": 10.3196,
      "duration": 0.0821,
      "velocity": 120,
      "chip": "ym2612"
    },
    {
      "channel": 5,
      "note": 68,
      "start": 10.5168,
      "duration": 0.0815,
      "velocity": 120,
      "chip": "ym2612"
    },
    {
      "channel": 5,
      "note": 69,
      "start": 10.6151,
      "duration": 0.0858,
      "velocity": 120,
      "chip": "ym2612"
    },
    {
      "channel": 4,
      "note": 56,
      "start": 10.7177,
      "duration": 0.1886,
      "velocity": 98,
      "chip": "ym2612"
    },
    {
      "channel": 5,
      "note": 68,
      "start": 10.7182,
      "duration": 0.0812,
      "velocity": 120,
      "chip": "ym2612"
    },
    {
      "channel": 4,
      "note": 58,
      "start": 10.9147,
      "duration": 0.172,
      "velocity": 98,
      "chip": "ym2612"
    },
    {
      "channel": 5,
      "note": 68,
      "start": 10.9153,
      "duration": 0.0811,
      "velocity": 120,
      "chip": "ym2612"
    },
    {
      "channel": 5,
      "note": 69,
      "start": 11.0132,
      "duration": 0.0817,
      "velocity": 120,
      "chip": "ym2612"
    },
    {
      "channel": 4,
      "note": 46,
      "start": 11.1117,
      "duration": 0.135,
      "velocity": 98,
      "chip": "ym2612"
    },
    {
      "channel": 5,
      "note": 68,
      "start": 11.1122,
      "duration": 0.0812,
      "velocity": 120,
      "chip": "ym2612"
    },
    {
      "channel": 5,
      "note": 68,
      "start": 11.3128,
      "duration": 0.0817,
      "velocity": 120,
      "chip": "ym2612"
    },
    {
      "channel": 5,
      "note": 69,
      "start": 11.4113,
      "duration": 0.0817,
      "velocity": 120,
      "chip": "ym2612"
    },
    {
      "channel": 0,
      "note": 73,
      "start": 11.5099,
      "duration": 0.1883,
      "velocity": 103,
      "chip": "ym2612"
    },
    {
      "channel": 3,
      "note": 80,
      "start": 11.5104,
      "duration": 0.1879,
      "velocity": 107,
      "chip": "ym2612"
    },
    {
      "channel": 4,
      "note": 51,
      "start": 11.5109,
      "duration": 0.5608,
      "velocity": 98,
      "chip": "ym2612"
    },
    {
      "channel": 5,
      "note": 68,
      "start": 11.5114,
      "duration": 0.0801,
      "velocity": 120,
      "chip": "ym2612"
    },
    {
      "channel": 1,
      "note": 73,
      "start": 11.518,
      "duration": 0.1884,
      "velocity": 103,
      "chip": "ym2612"
    },
    {
      "channel": 2,
      "note": 73,
      "start": 11.5756,
      "duration": 0.2008,
      "velocity": 103,
      "chip": "ym2612"
    },
    {
      "channel": 0,
      "note": 72,
      "start": 11.707,
      "duration": 0.1841,
      "velocity": 103,
      "chip": "ym2612"
    },
    {
      "channel": 3,
      "note": 79,
      "start": 11.7074,
      "duration": 0.1837,
      "velocity": 107,
      "chip": "ym2612"
    },
    {
      "channel": 5,
      "note": 68,
      "start": 11.7079,
      "duration": 0.0847,
      "velocity": 120,
      "chip": "ym2612"
    },
    {
      "channel": 1,
      "note": 72,
      "start": 11.715,
      "duration": 0.1843,
      "velocity": 103,
      "chip": "ym2612"
    },
    {
      "channel": 2,
      "note": 72,
      "start": 11.7769,
      "duration": 0.1962,
      "velocity": 103,
      "chip": "ym2612"
    },
    {
      "channel": 5,
      "note": 69,
      "start": 11.8094,
      "duration": 0.0819,
      "velocity": 120,
      "chip": "ym2612"
    },
    {
      "channel": 0,
      "note": 70,
      "start": 11.9079,
      "duration": 0.1066,
      "velocity": 103,
      "chip": "ym2612"
    },
    {
      "channel": 3,
      "note": 77,
      "start": 11.9083,
      "duration": 0.1063,
      "velocity": 107,
      "chip": "ym2612"
    },
    {
      "channel": 5,
      "note": 68,
      "start": 11.9088,
      "duration": 0.0807,
      "velocity": 120,
      "chip": "ym2612"
    },
    {
      "channel": 1,
      "note": 70,
      "start": 11.9163,
      "duration": 0.1061,
      "velocity": 103,
      "chip": "ym2612"
    },
    {
      "channel": 2,
      "note": 70,
      "start": 11.9738,
      "duration": 0.1964,
      "velocity": 103,
      "chip": "ym2612"
    },
    {
      "channel": 0,
      "note": 75,
      "start": 12.105,
      "duration": 0.2991,
      "velocity": 103,
      "chip": "ym2612"
    },
    {
      "channel": 3,
      "note": 82,
      "start": 12.1054,
      "duration": 0.2987,
      "velocity": 107,
      "chip": "ym2612"
    },
    {
      "channel": 4,
      "note": 53,
      "start": 12.106,
      "duration": 0.7742,
      "velocity": 98,
      "chip": "ym2612"
    },
    {
      "channel": 5,
      "note": 68,
      "start": 12.1067,
      "duration": 0.0799,
      "velocity": 120,
      "chip": "ym2612"
    },
    {
      "channel": 1,
      "note": 75,
      "start": 12.1131,
      "duration": 0.2992,
      "velocity": 103,
      "chip": "ym2612"
    },
    {
      "channel": 2,
      "note": 75,
      "start": 12.1707,
      "duration": 0.3977,
      "velocity": 103,
      "chip": "ym2612"
    },
    {
      "channel": 5,
      "note": 69,
      "start": 12.2034,
      "duration": 0.0817,
      "velocity": 120,
      "chip": "ym2612"
    },
    {
      "channel": 5,
      "note": 68,
      "start": 12.3019,
      "duration": 0.0858,
      "velocity": 120,
      "chip": "ym2612"
    },
    {
      "channel": 0,
      "note": 72,
      "start": 12.503,
      "duration": 0.2951,
      "velocity": 103,
      "chip": "ym2612"
    },
    {
      "channel": 3,
      "note": 79,
      "start": 12.5034,
      "duration": 0.2947,
      "velocity": 107,
      "chip": "ym2612"
    },
    {
      "channel": 5,
      "note": 68,
      "start": 12.5039,
      "duration": 0.0807,
      "velocity": 120,
      "chip": "ym2612"
    },
    {
      "channel": 1,
      "note": 72,
      "start": 12.5112,
      "duration": 0.2953,
      "velocity": 103,
      "chip": "ym2612"
    },
    {
      "channel": 2,
      "note": 72,
      "start": 12.5688,
      "duration": 0.3976,
      "velocity": 103,
      "chip": "ym2612"
    },
    {
      "channel": 5,
      "note": 69,
      "start": 12.6015,
      "duration": 0.0817,
      "velocity": 120,
      "chip": "ym2612"
    },
    {
      "channel": 5,
      "note": 68,
      "start": 12.7,
      "duration": 0.0817,
      "velocity": 120,
      "chip": "ym2612"
    },
    {
      "channel": 0,
      "note": 68,
      "start": 12.897,
      "duration": 0.3567,
      "velocity": 103,
      "chip": "ym2612"
    },
    {
      "channel": 3,
      "note": 75,
      "start": 12.8974,
      "duration": 0.3564,
      "velocity": 107,
      "chip": "ym2612"
    },
    {
      "channel": 4,
      "note": 54,
      "start": 12.8979,
      "duration": 0.5609,
      "velocity": 98,
      "chip": "ym2612"
    },
    {
      "channel": 5,
      "note": 68,
      "start": 12.8984,
      "duration": 0.0843,
      "velocity": 120,
      "chip": "ym2612"
    },
    {
      "channel": 1,
      "note": 68,
      "start": 12.9052,
      "duration": 0.3566,
      "velocity": 103,
      "chip": "ym2612"
    },
    {
      "channel": 2,
      "note": 68,
      "start": 12.967,
      "duration": 0.3933,
      "velocity": 103,
      "chip": "ym2612"
    },
    {
      "channel": 5,
      "note": 69,
      "start": 12.9995,
      "duration": 0.0817,
      "velocity": 120,
      "chip": "ym2612"
    },
    {
      "channel": 5,
      "note": 68,
      "start": 13.098,
      "duration": 0.0817,
      "velocity": 120,
      "chip": "ym2612"
    },
    {
      "channel": 0,
      "note": 70,
      "start": 13.295,
      "duration": 0.0817,
      "velocity": 103,
      "chip": "ym2612"
    },
    {
      "channel": 3,
      "note": 77,
      "start": 13.2955,
      "duration": 0.0813,
      "velocity": 107,
      "chip": "ym2612"
    },
    {
      "channel": 5,
      "note": 68,
      "start": 13.296,
      "duration": 0.0809,
      "velocity": 120,
      "chip": "ym2612"
    },
    {
      "channel": 1,
      "note": 70,
      "start": 13.3033,
      "duration": 0.0821,
      "velocity": 103,
      "chip": "ym2612"
    },
    {
      "channel": 2,
      "note": 70,
      "start": 13.3608,
      "duration": 0.2006,
      "velocity": 103,
      "chip": "ym2612"
    },
    {
      "channel": 5,
      "note": 69,
      "start": 13.3935,
      "duration": 0.0817,
      "velocity": 120,
      "chip": "ym2612"
    },
    {
      "channel": 0,
      "note": 70,
      "start": 13.492,
      "duration": 0.373,
      "velocity": 103,
      "chip": "ym2612"
    },
    {
      "channel": 3,
      "note": 77,
      "start": 13.4925,
      "duration": 0.3727,
      "velocity": 107,
      "chip": "ym2612"
    },
    {
      "channel": 4,
      "note": 56,
      "start": 13.493,
      "duration": 0.1835,
      "velocity": 98,
      "chip": "ym2612"
    },
    {
      "channel": 5,
      "note": 68,
      "start": 13.4935,
      "duration": 0.0843,
      "velocity": 120,
      "chip": "ym2612"
    },
    {
      "channel": 1,
      "note": 70,
      "start": 13.5044,
      "duration": 0.369,
      "velocity": 103,
      "chip": "ym2612"
    },
    {
      "channel": 2,
      "note": 70,
      "start": 13.5619,
      "duration": 0.7916,
      "velocity": 103,
      "chip": "ym2612"
    },
    {
      "channel": 4,
      "note": 58,
      "start": 13.6931,
      "duration": 0.1391,
      "velocity": 98,
      "chip": "ym2612"
    },
    {
      "channel": 5,
      "note": 68,
      "start": 13.6936,
      "duration": 0.0812,
      "velocity": 120,
      "chip": "ym2612"
    },
    {
      "channel": 5,
      "note": 69,
      "start": 13.7916,
      "duration": 0.0817,
      "velocity": 120,
      "chip": "ym2612"
    },
    {
      "channel": 4,
      "note": 46,
      "start": 13.8901,
      "duration": 0.1473,
      "velocity": 98,
      "chip": "ym2612"
    },
    {
      "channel": 5,
      "note": 68,
      "start": 13.8906,
      "duration": 0.0812,
      "velocity": 120,
      "chip": "ym2612"
    },
    {
      "channel": 5,
      "note": 68,
      "start": 14.0914,
      "duration": 0.0815,
      "velocity": 120,
      "chip": "ym2612"
    },
    {
      "channel": 5,
      "note": 69,
      "start": 14.1897,
      "duration": 0.0817,
      "velocity": 120,
      "chip": "ym2612"
    },
    {
      "channel": 0,
      "note": 73,
      "start": 14.2882,
      "duration": 0.1638,
      "velocity": 103,
      "chip": "ym2612"
    },
    {
      "channel": 3,
      "note": 80,
      "start": 14.2887,
      "duration": 0.1634,
      "velocity": 107,
      "chip": "ym2612"
    },
    {
      "channel": 4,
      "note": 51,
      "start": 14.2892,
      "duration": 0.5609,
      "velocity": 98,
      "chip": "ym2612"
    },
    {
      "channel": 5,
      "note": 68,
      "start": 14.2897,
      "duration": 0.0802,
      "velocity": 120,
      "chip": "ym2612"
    },
    {
      "channel": 1,
      "note": 73,
      "start": 14.2967,
      "duration": 0.1635,
      "velocity": 103,
      "chip": "ym2612"
    },
    {
      "channel": 2,
      "note": 73,
      "start": 14.354,
      "duration": 0.1965,
      "velocity": 103,
      "chip": "ym2612"
    },
    {
      "channel": 0,
      "note": 72,
      "start": 14.4852,
      "duration": 0.1391,
      "velocity": 103,
      "chip": "ym2612"
    },
    {
      "channel": 3,
      "note": 79,
      "start": 14.4857,
      "duration": 0.1388,
      "velocity": 107,
      "chip": "ym2612"
    },
    {
      "channel": 5,
      "note": 68,
      "start": 14.4864,
      "duration": 0.0805,
      "velocity": 120,
      "chip": "ym2612"
    },
    {
      "channel": 1,
      "note": 72,
      "start": 14.4934,
      "duration": 0.1391,
      "velocity": 103,
      "chip": "ym2612"
    },
    {
      "channel": 2,
      "note": 72,
      "start": 14.551,
      "duration": 0.2006,
      "velocity": 103,
      "chip": "ym2612"
    },
    {
      "channel": 5,
      "note": 69,
      "start": 14.5837,
      "duration": 0.0858,
      "velocity": 120,
      "chip": "ym2612"
    },
    {
      "channel": 0,
      "note": 70,
      "start": 14.6866,
      "duration": 0.1224,
      "velocity": 103,
      "chip": "ym2612"
    },
    {
      "channel": 3,
      "note": 77,
      "start": 14.687,
      "duration": 0.1221,
      "velocity": 107,
      "chip": "ym2612"
    },
    {
      "channel": 5,
      "note": 68,
      "start": 14.6875,
      "duration": 0.0805,
      "velocity": 120,
      "chip": "ym2612"
    },
    {
      "channel": 1,
      "note": 70,
      "start": 14.6945,
      "duration": 0.1227,
      "velocity": 103,
      "chip": "ym2612"
    },
    {
      "channel": 2,
      "note": 70,
      "start": 14.7521,
      "duration": 0.1965,
      "velocity": 103,
      "chip": "ym2612"
    },
    {
      "channel": 0,
      "note": 75,
      "start": 14.8833,
      "duration": 0.254,
      "velocity": 103,
      "chip": "ym2612"
    },
    {
      "channel": 3,
      "note": 82,
      "start": 14.8837,
      "duration": 0.2537,
      "velocity": 107,
      "chip": "ym2612"
    },
    {
      "channel": 4,
      "note": 53,
      "start": 14.8843,
      "duration": 0.7579,
      "velocity": 98,
      "chip": "ym2612"
    },
    {
      "channel": 5,
      "note": 68,
      "start": 14.8847,
      "duration": 0.0802,
      "velocity": 120,
      "chip": "ym2612"
    },
    {
      "channel": 1,
      "note": 75,
      "start": 14.8915,
      "duration": 0.2541,
      "velocity": 103,
      "chip": "ym2612"
    },
    {
      "channel": 2,
      "note": 75,
      "start": 14.949,
      "duration": 0.3976,
      "velocity": 103,
      "chip": "ym2612"
    },
    {
      "channel": 5,
      "note": 69,
      "start": 14.9818,
      "duration": 0.0817,
      "velocity": 120,
      "chip": "ym2612"
    },
    {
      "channel": 5,
      "note": 68,
      "start": 15.0802,
      "duration": 0.0817,
      "velocity": 120,
      "chip": "ym2612"
    },
    {
      "channel": 0,
      "note": 72,
      "start": 15.2814,
      "duration": 0.2294,
      "velocity": 103,
      "chip": "ym2612"
    },
    {
      "channel": 3,
      "note": 79,
      "start": 15.2818,
      "duration": 0.229,
      "velocity": 107,
      "chip": "ym2612"
    },
    {
      "channel": 5,
      "note": 68,
      "start": 15.2823,
      "duration": 0.0807,
      "velocity": 120,
      "chip": "ym2612"
    },
    {
      "channel": 1,
      "note": 72,
      "start": 15.2896,
      "duration": 0.2294,
      "velocity": 103,
      "chip": "ym2612"
    },
    {
      "channel": 2,
      "note": 72,
      "start": 15.3471,
      "duration": 0.3935,
      "velocity": 103,
      "chip": "ym2612"
    },
    {
      "channel": 5,
      "note": 69,
      "start": 15.3799,
      "duration": 0.082,
      "velocity": 120,
      "chip": "ym2612"
    },
    {
      "channel": 5,
      "note": 68,
      "start": 15.4783,
      "duration": 0.0817,
      "velocity": 120,
      "chip": "ym2612"
    },
    {
      "channel": 0,
      "note": 68,
      "start": 15.6754,
      "duration": 0.3731,
      "velocity": 103,
      "chip": "ym2612"
    },
    {
      "channel": 3,
      "note": 75,
      "start": 15.6758,
      "duration": 0.3727,
      "velocity": 107,
      "chip": "ym2612"
    },
    {
      "channel": 4,
      "note": 54,
      "start": 15.6766,
      "duration": 0.5853,
      "velocity": 98,
      "chip": "ym2612"
    },
    {
      "channel": 5,
      "note": 68,
      "start": 15.6771,
      "duration": 0.08,
      "velocity": 120,
      "chip": "ym2612"
    },
    {
      "channel": 1,
      "note": 68,
      "start": 15.6836,
      "duration": 0.373,
      "velocity": 103,
      "chip": "ym2612"
    },
    {
      "channel": 2,
      "note": 68,
      "start": 15.7411,
      "duration": 0.3976,
      "velocity": 103,
      "chip": "ym2612"
    },
    {
      "channel": 5,
      "note": 69,
      "start": 15.7739,
      "duration": 0.0857,
      "velocity": 120,
      "chip": "ym2612"
    },
    {
      "channel": 5,
      "note": 68,
      "start": 15.8767,
      "duration": 0.0815,
      "velocity": 120,
      "chip": "ym2612"
    },
    {
      "channel": 0,
      "note": 70,
      "start": 16.0734,
      "duration": 0.0817,
      "velocity": 103,
      "chip": "ym2612"
    },
    {
      "channel": 3,
      "note": 77,
      "start": 16.0739,
      "duration": 0.0813,
      "velocity": 107,
      "chip": "ym2612"
    },
    {
      "channel": 5,
      "note": 68,
      "start": 16.0744,
      "duration": 0.0809,
      "velocity": 120,
      "chip": "ym2612"
    },
    {
      "channel": 1,
      "note": 70,
      "start": 16.0817,
      "duration": 0.0817,
      "velocity": 103,
      "chip": "ym2612"
    },
    {
      "channel": 2,
      "note": 70,
      "start": 16.1392,
      "duration": 0.1965,
      "velocity": 103,
      "chip": "ym2612"
    },
    {
      "channel": 5,
      "note": 69,
      "start": 16.1719,
      "duration": 0.0817,
      "velocity": 120,
      "chip": "ym2612"
    },
    {
      "channel": 0,
      "note": 77,
      "start": 16.2704,
      "duration": 0.3731,
      "velocity": 103,
      "chip": "ym2612"
    },
    {
      "channel": 3,
      "note": 84,
      "start": 16.2709,
      "duration": 0.3727,
      "velocity": 107,
      "chip": "ym2612"
    },
    {
      "channel": 4,
      "note": 56,
      "start": 16.2714,
      "duration": 0.1751,
      "velocity": 98,
      "chip": "ym2612"
    },
    {
      "channel": 5,
      "note": 68,
      "start": 16.2719,
      "duration": 0.0802,
      "velocity": 120,
      "chip": "ym2612"
    },
    {
      "channel": 1,
      "note": 77,
      "start": 16.2788,
      "duration": 0.373,
      "velocity": 103,
      "chip": "ym2612"
    },
    {
      "channel": 2,
      "note": 77,
      "start": 16.3365,
      "duration": 0.7954,
      "velocity": 103,
      "chip": "ym2612"
    },
    {
      "channel": 4,
      "note": 58,
      "start": 16.4715,
      "duration": 0.1556,
      "velocity": 98,
      "chip": "ym2612"
    },
    {
      "channel": 5,
      "note": 68,
      "start": 16.472,
      "duration": 0.0812,
      "velocity": 120,
      "chip": "ym2612"
    },
    {
      "channel": 5,
      "note": 69,
      "start": 16.5701,
      "duration": 0.0816,
      "velocity": 120,
      "chip": "ym2612"
    },
    {
      "channel": 4,
      "note": 46,
      "start": 16.6685,
      "duration": 0.1473,
      "velocity": 98,
      "chip": "ym2612"
    },
    {
      "channel": 5,
      "note": 68,
      "start": 16.669,
      "duration": 0.0812,
      "velocity": 120,
      "chip": "ym2612"
    },
    {
      "channel": 5,
      "note": 68,
      "start": 16.8655,
      "duration": 0.0858,
      "velocity": 120,
      "chip": "ym2612"
    },
    {
      "channel": 5,
      "note": 69,
      "start": 16.9681,
      "duration": 0.0817,
      "velocity": 120,
      "chip": "ym2612"
    },
    {
      "channel": 0,
      "note": 73,
      "start": 17.0669,
      "duration": 0.1553,
      "velocity": 103,
      "chip": "ym2612"
    },
    {
      "channel": 3,
      "note": 80,
      "start": 17.0673,
      "duration": 0.1549,
      "velocity": 107,
      "chip": "ym2612"
    },
    {
      "channel": 4,
      "note": 51,
      "start": 17.0678,
      "duration": 0.577,
      "velocity": 98,
      "chip": "ym2612"
    },
    {
      "channel": 5,
      "note": 68,
      "start": 17.0683,
      "duration": 0.08,
      "velocity": 120,
      "chip": "ym2612"
    },
    {
      "channel": 1,
      "note": 73,
      "start": 17.0751,
      "duration": 0.1553,
      "velocity": 103,
      "chip": "ym2612"
    },
    {
      "channel": 2,
      "note": 73,
      "start": 17.1324,
      "duration": 0.1965,
      "velocity": 103,
      "chip": "ym2612"
    },
    {
      "channel": 0,
      "note": 72,
      "start": 17.2636,
      "duration": 0.1391,
      "velocity": 103,
      "chip": "ym2612"
    },
    {
      "channel": 3,
      "note": 79,
      "start": 17.2641,
      "duration": 0.1388,
      "velocity": 107,
      "chip": "ym2612"
    },
    {
      "channel": 5,
      "note": 68,
      "start": 17.2646,
      "duration": 0.0807,
      "velocity": 120,
      "chip": "ym2612"
    },
    {
      "channel": 1,
      "note": 72,
      "start": 17.2718,
      "duration": 0.1391,
      "velocity": 103,
      "chip": "ym2612"
    },
    {
      "channel": 2,
      "note": 72,
      "start": 17.3294,
      "duration": 0.2006,
      "velocity": 103,
      "chip": "ym2612"
    },
    {
      "channel": 5,
      "note": 69,
      "start": 17.3621,
      "duration": 0.0817,
      "velocity": 120,
      "chip": "ym2612"
    },
    {
      "channel": 0,
      "note": 70,
      "start": 17.4606,
      "duration": 0.0859,
      "velocity": 103,
      "chip": "ym2612"
    },
    {
      "channel": 3,
      "note": 77,
      "start": 17.4611,
      "duration": 0.0855,
      "velocity": 107,
      "chip": "ym2612"
    },
    {
      "channel": 5,
      "note": 68,
      "start": 17.4615,
      "duration": 0.0851,
      "velocity": 120,
      "chip": "ym2612"
    },
    {
      "channel": 1,
      "note": 70,
      "start": 17.4688,
      "duration": 0.0858,
      "velocity": 103,
      "chip": "ym2612"
    },
    {
      "channel": 2,
      "note": 70,
      "start": 17.5305,
      "duration": 0.1965,
      "velocity": 103,
      "chip": "ym2612"
    },
    {
      "channel": 0,
      "note": 75,
      "start": 17.6617,
      "duration": 0.2294,
      "velocity": 103,
      "chip": "ym2612"
    },
    {
      "channel": 3,
      "note": 82,
      "start": 17.6622,
      "duration": 0.229,
      "velocity": 107,
      "chip": "ym2612"
    },
    {
      "channel": 4,
      "note": 53,
      "start": 17.6627,
      "duration": 0.7579,
      "velocity": 98,
      "chip": "ym2612"
    },
    {
      "channel": 5,
      "note": 68,
      "start": 17.6632,
      "duration": 0.0802,
      "velocity": 120,
      "chip": "ym2612"
    },
    {
      "channel": 1,
      "note": 75,
      "start": 17.6699,
      "duration": 0.2294,
      "velocity": 103,
      "chip": "ym2612"
    },
    {
      "channel": 2,
      "note": 75,
      "start": 17.7275,
      "duration": 0.3976,
      "velocity": 103,
      "chip": "ym2612"
    },
    {
      "channel": 5,
      "note": 69,
      "start": 17.7602,
      "duration": 0.0817,
      "velocity": 120,
      "chip": "ym2612"
    },
    {
      "channel": 5,
      "note": 68,
      "start": 17.8587,
      "duration": 0.0817,
      "velocity": 120,
      "chip": "ym2612"
    },
    {
      "channel": 0,
      "note": 72,
      "start": 18.0557,
      "duration": 0.2583,
      "velocity": 103,
      "chip": "ym2612"
    },
    {
      "channel": 3,
      "note": 79,
      "start": 18.0564,
      "duration": 0.2576,
      "velocity": 107,
      "chip": "ym2612"
    },
    {
      "channel": 5,
      "note": 68,
      "start": 18.0569,
      "duration": 0.0846,
      "velocity": 120,
      "chip": "ym2612"
    },
    {
      "channel": 1,
      "note": 72,
      "start": 18.0639,
      "duration": 0.2581,
      "velocity": 103,
      "chip": "ym2612"
    },
    {
      "channel": 2,
      "note": 72,
      "start": 18.1256,
      "duration": 0.3935,
      "velocity": 103,
      "chip": "ym2612"
    },
    {
      "channel": 5,
      "note": 69,
      "start": 18.1583,
      "duration": 0.0817,
      "velocity": 120,
      "chip": "ym2612"
    },
    {
      "channel": 5,
      "note": 68,
      "start": 18.2568,
      "duration": 0.0816,
      "velocity": 120,
      "chip": "ym2612"
    },
    {
      "channel": 0,
      "note": 68,
      "start": 18.4538,
      "duration": 0.3649,
      "velocity": 103,
      "chip": "ym2612"
    },
    {
      "channel": 3,
      "note": 75,
      "start": 18.4542,
      "duration": 0.3645,
      "velocity": 107,
      "chip": "ym2612"
    },
    {
      "channel": 4,
      "note": 54,
      "start": 18.4547,
      "duration": 0.5609,
      "velocity": 98,
      "chip": "ym2612"
    },
    {
      "channel": 5,
      "note": 68,
      "start": 18.4553,
      "duration": 0.0801,
      "velocity": 120,
      "chip": "ym2612"
    },
    {
      "channel": 1,
      "note": 68,
      "start": 18.462,
      "duration": 0.3648,
      "velocity": 103,
      "chip": "ym2612"
    },
    {
      "channel": 2,
      "note": 68,
      "start": 18.5195,
      "duration": 0.3976,
      "velocity": 103,
      "chip": "ym2612"
    },
    {
      "channel": 5,
      "note": 69,
      "start": 18.5522,
      "duration": 0.0817,
      "velocity": 120,
      "chip": "ym2612"
    },
    {
      "channel": 5,
      "note": 68,
      "start": 18.6507,
      "duration": 0.0858,
      "velocity": 120,
      "chip": "ym2612"
    },
    {
      "channel": 0,
      "note": 70,
      "start": 18.8519,
      "duration": 0.0899,
      "velocity": 103,
      "chip": "ym2612"
    },
    {
      "channel": 3,
      "note": 77,
      "start": 18.8523,
      "duration": 0.0895,
      "velocity": 107,
      "chip": "ym2612"
    },
    {
      "channel": 5,
      "note": 68,
      "start": 18.8528,
      "duration": 0.0807,
      "velocity": 120,
      "chip": "ym2612"
    },
    {
      "channel": 1,
      "note": 70,
      "start": 18.8601,
      "duration": 0.0899,
      "velocity": 103,
      "chip": "ym2612"
    },
    {
      "channel": 2,
      "note": 70,
      "start": 18.9176,
      "duration": 0.1965,
      "velocity": 103,
      "chip": "ym2612"
    },
    {
      "channel": 5,
      "note": 69,
      "start": 18.9504,
      "duration": 0.0816,
      "velocity": 120,
      "chip": "ym2612"
    },
    {
      "channel": 0,
      "note": 70,
      "start": 19.0488,
      "duration": 0.2992,
      "velocity": 103,
      "chip": "ym2612"
    },
    {
      "channel": 3,
      "note": 77,
      "start": 19.0493,
      "duration": 0.2988,
      "velocity": 107,
      "chip": "ym2612"
    },
    {
      "channel": 4,
      "note": 56,
      "start": 19.0499,
      "duration": 0.1791,
      "velocity": 98,
      "chip": "ym2612"
    },
    {
      "channel": 5,
      "note": 68,
      "start": 19.0504,
      "duration": 0.0806,
      "velocity": 120,
      "chip": "ym2612"
    },
    {
      "channel": 1,
      "note": 70,
      "start": 19.0571,
      "duration": 0.2994,
      "velocity": 103,
      "chip": "ym2612"
    },
    {
      "channel": 2,
      "note": 70,
      "start": 19.1146,
      "duration": 0.3976,
      "velocity": 103,
      "chip": "ym2612"
    },
    {
      "channel": 4,
      "note": 58,
      "start": 19.25,
      "duration": 0.1309,
      "velocity": 98,
      "chip": "ym2612"
    },
    {
      "channel": 5,
      "note": 68,
      "start": 19.2504,
      "duration": 0.0812,
      "velocity": 120,
      "chip": "ym2612"
    },
    {
      "channel": 5,
      "note": 69,
      "start": 19.3486,
      "duration": 0.0815,
      "velocity": 120,
      "chip": "ym2612"
    },
    {
      "channel": 0,
      "note": 77,
      "start": 19.4469,
      "duration": 1.0502,
      "velocity": 103,
      "chip": "ym2612"
    },
    {
      "channel": 3,
      "note": 84,
      "start": 19.4474,
      "duration": 1.0499,
      "velocity": 107,
      "chip": "ym2612"
    },
    {
      "channel": 5,
      "note": 80,
      "start": 19.4487,
      "duration": 0.5929,
      "velocity": 120,
      "chip": "ym2612"
    },
    {
      "channel": 1,
      "note": 77,
      "start": 19.4551,
      "duration": 1.0502,
      "velocity": 103,
      "chip": "ym2612"
    },
    {
      "channel": 2,
      "note": 77,
      "start": 19.5127,
      "duration": 1.1897,
      "velocity": 103,
      "chip": "ym2612"
    },
    {
      "channel": 4,
      "note": 51,
      "start": 19.6439,
      "duration": 0.0981,
      "velocity": 98,
      "chip": "ym2612"
    },
    {
      "channel": 4,
      "note": 51,
      "start": 19.845,
      "duration": 0.3115,
      "velocity": 98,
      "chip": "ym2612"
    },
    {
      "channel": 5,
      "note": 44,
      "start": 20.0429,
      "duration": 0.1957,
      "velocity": 86,
      "chip": "ym2612"
    },
    {
      "channel": 4,
      "note": 51,
      "start": 20.2392,
      "duration": 0.1061,
      "velocity": 98,
      "chip": "ym2612"
    },
    {
      "channel": 5,
      "note": 68,
      "start": 20.2405,
      "duration": 0.3961,
      "velocity": 127,
      "chip": "ym2612"
    },
    {
      "channel": 4,
      "note": 51,
      "start": 20.4401,
      "duration": 0.1884,
      "velocity": 98,
      "chip": "ym2612"
    },
    {
      "channel": 0,
      "note": 77,
      "start": 20.6372,
      "duration": 0.3976,
      "velocity": 103,
      "chip": "ym2612"
    },
    {
      "channel": 3,
      "note": 84,
      "start": 20.6376,
      "duration": 0.3972,
      "velocity": 107,
      "chip": "ym2612"
    },
    {
      "channel": 5,
      "note": 44,
      "start": 20.639,
      "duration": 0.1947,
      "velocity": 86,
      "chip": "ym2612"
    },
    {
      "channel": 1,
      "note": 77,
      "start": 20.6453,
      "duration": 0.3977,
      "velocity": 103,
      "chip": "ym2612"
    },
    {
      "channel": 2,
      "note": 77,
      "start": 20.703,
      "duration": 0.3975,
      "velocity": 103,
      "chip": "ym2612"
    },
    {
      "channel": 4,
      "note": 48,
      "start": 20.8343,
      "duration": 0.3732,
      "velocity": 98,
      "chip": "ym2612"
    },
    {
      "channel": 5,
      "note": 68,
      "start": 20.8356,
      "duration": 0.1994,
      "velocity": 120,
      "chip": "ym2612"
    },
    {
      "channel": 0,
      "note": 79,
      "start": 21.0356,
      "duration": 0.1962,
      "velocity": 103,
      "chip": "ym2612"
    },
    {
      "channel": 3,
      "note": 86,
      "start": 21.0363,
      "duration": 0.1956,
      "velocity": 107,
      "chip": "ym2612"
    },
    {
      "channel": 5,
      "note": 68,
      "start": 21.0368,
      "duration": 0.1952,
      "velocity": 120,
      "chip": "ym2612"
    },
    {
      "channel": 1,
      "note": 79,
      "start": 21.0435,
      "duration": 0.1965,
      "velocity": 103,
      "chip": "ym2612"
    },
    {
      "channel": 2,
      "note": 79,
      "start": 21.101,
      "duration": 0.1966,
      "velocity": 103,
      "chip": "ym2612"
    },
    {
      "channel": 0,
      "note": 80,
      "start": 21.2325,
      "duration": 0.0978,
      "velocity": 103,
      "chip": "ym2612"
    },
    {
      "channel": 3,
      "note": 87,
      "start": 21.2329,
      "duration": 0.0974,
      "velocity": 107,
      "chip": "ym2612"
    },
    {
      "channel": 4,
      "note": 49,
      "start": 21.2334,
      "duration": 0.5936,
      "velocity": 98,
      "chip": "ym2612"
    },
    {
      "channel": 5,
      "note": 68,
      "start": 21.2348,
      "duration": 0.1941,
      "velocity": 127,
      "chip": "ym2612"
    },
    {
      "channel": 1,
      "note": 80,
      "start": 21.2405,
      "duration": 0.098,
      "velocity": 103,
      "chip": "ym2612"
    },
    {
      "channel": 2,
      "note": 80,
      "start": 21.298,
      "duration": 0.3975,
      "velocity": 103,
      "chip": "ym2612"
    },
    {
      "channel": 5,
      "note": 44,
      "start": 21.4301,
      "duration": 0.1997,
      "velocity": 86,
      "chip": "ym2612"
    },
    {
      "channel": 0,
      "note": 79,
      "start": 21.6305,
      "duration": 0.1964,
      "velocity": 103,
      "chip": "ym2612"
    },
    {
      "channel": 3,
      "note": 86,
      "start": 21.6309,
      "duration": 0.196,
      "velocity": 107,
      "chip": "ym2612"
    },
    {
      "channel": 5,
      "note": 44,
      "start": 21.6314,
      "duration": 0.1957,
      "velocity": 86,
      "chip": "ym2612"
    },
    {
      "channel": 1,
      "note": 79,
      "start": 21.6385,
      "duration": 0.1966,
      "velocity": 103,
      "chip": "ym2612"
    },
    {
      "channel": 2,
      "note": 79,
      "start": 21.6963,
      "duration": 0.1963,
      "velocity": 103,
      "chip": "ym2612"
    },
    {
      "channel": 0,
      "note": 77,
      "start": 21.8276,
      "duration": 0.976,
      "velocity": 103,
      "chip": "ym2612"
    },
    {
      "channel": 3,
      "note": 84,
      "start": 21.8281,
      "duration": 0.9756,
      "velocity": 107,
      "chip": "ym2612"
    },
    {
      "channel": 5,
      "note": 68,
      "start": 21.8294,
      "duration": 0.1946,
      "velocity": 120,
      "chip": "ym2612"
    },
    {
      "channel": 1,
      "note": 77,
      "start": 21.8356,
      "duration": 0.9762,
      "velocity": 103,
      "chip": "ym2612"
    },
    {
      "channel": 2,
      "note": 77,
      "start": 21.893,
      "duration": 1.1896,
      "velocity": 103,
      "chip": "ym2612"
    },
    {
      "channel": 4,
      "note": 51,
      "start": 22.0245,
      "duration": 0.1102,
      "velocity": 98,
      "chip": "ym2612"
    },
    {
      "channel": 5,
      "note": 68,
      "start": 22.0249,
      "duration": 0.2001,
      "velocity": 120,
      "chip": "ym2612"
    },
    {
      "channel": 4,
      "note": 51,
      "start": 22.2256,
      "duration": 0.3031,
      "velocity": 98,
      "chip": "ym2612"
    },
    {
      "channel": 5,
      "note": 68,
      "start": 22.2263,
      "duration": 0.1957,
      "velocity": 120,
      "chip": "ym2612"
    },
    {
      "channel": 5,
      "note": 68,
      "start": 22.4232,
      "duration": 0.1957,
      "velocity": 127,
      "chip": "ym2612"
    },
    {
      "channel": 4,
      "note": 51,
      "start": 22.6194,
      "duration": 0.1349,
      "velocity": 98,
      "chip": "ym2612"
    },
    {
      "channel": 5,
      "note": 68,
      "start": 22.6207,
      "duration": 0.1993,
      "velocity": 120,
      "chip": "ym2612"
    },
    {
      "channel": 4,
      "note": 51,
      "start": 22.8205,
      "duration": 0.1472,
      "velocity": 98,
      "chip": "ym2612"
    },
    {
      "channel": 5,
      "note": 68,
      "start": 22.821,
      "duration": 0.1796,
      "velocity": 120,
      "chip": "ym2612"
    },
    {
      "channel": 0,
      "note": 77,
      "start": 23.0174,
      "duration": 0.3977,
      "velocity": 103,
      "chip": "ym2612"
    },
    {
      "channel": 3,
      "note": 84,
      "start": 23.0179,
      "duration": 0.3973,
      "velocity": 107,
      "chip": "ym2612"
    },
    {
      "channel": 5,
      "note": 44,
      "start": 23.0192,
      "duration": 0.1948,
      "velocity": 86,
      "chip": "ym2612"
    },
    {
      "channel": 1,
      "note": 77,
      "start": 23.0256,
      "duration": 0.3977,
      "velocity": 103,
      "chip": "ym2612"
    },
    {
      "channel": 2,
      "note": 77,
      "start": 23.0832,
      "duration": 0.3976,
      "velocity": 103,
      "chip": "ym2612"
    },
    {
      "channel": 4,
      "note": 48,
      "start": 23.2145,
      "duration": 0.373,
      "velocity": 98,
      "chip": "ym2612"
    },
    {
      "channel": 5,
      "note": 68,
      "start": 23.2158,
      "duration": 0.1995,
      "velocity": 120,
      "chip": "ym2612"
    },
    {
      "channel": 0,
      "note": 79,
      "start": 23.4158,
      "duration": 0.1963,
      "velocity": 103,
      "chip": "ym2612"
    },
    {
      "channel": 3,
      "note": 86,
      "start": 23.4165,
      "duration": 0.1957,
      "velocity": 107,
      "chip": "ym2612"
    },
    {
      "channel": 5,
      "note": 68,
      "start": 23.417,
      "duration": 0.1953,
      "velocity": 120,
      "chip": "ym2612"
    },
    {
      "channel": 1,
      "note": 79,
      "start": 23.4238,
      "duration": 0.1965,
      "velocity": 103,
      "chip": "ym2612"
    },
    {
      "channel": 2,
      "note": 79,
      "start": 23.4813,
      "duration": 0.1965,
      "velocity": 103,
      "chip": "ym2612"
    },
    {
      "channel": 0,
      "note": 80,
      "start": 23.6128,
      "duration": 0.0978,
      "velocity": 103,
      "chip": "ym2612"
    },
    {
      "channel": 3,
      "note": 87,
      "start": 23.6132,
      "duration": 0.0974,
      "velocity": 107,
      "chip": "ym2612"
    },
    {
      "channel": 4,
      "note": 49,
      "start": 23.6138,
      "duration": 0.6262,
      "velocity": 98,
      "chip": "ym2612"
    },
    {
      "channel": 5,
      "note": 68,
      "start": 23.6151,
      "duration": 0.194,
      "velocity": 127,
      "chip": "ym2612"
    },
    {
      "channel": 1,
      "note": 80,
      "start": 23.6208,
      "duration": 0.098,
      "velocity": 103,
      "chip": "ym2612"
    },
    {
      "channel": 2,
      "note": 80,
      "start": 23.6783,
      "duration": 0.3976,
      "velocity": 103,
      "chip": "ym2612"
    },
    {
      "channel": 5,
      "note": 68,
      "start": 23.8104,
      "duration": 0.1998,
      "velocity": 120,
      "chip": "ym2612"
    },
    {
      "channel": 0,
      "note": 79,
      "start": 24.0107,
      "duration": 0.1965,
      "velocity": 103,
      "chip": "ym2612"
    },
    {
      "channel": 3,
      "note": 86,
      "start": 24.0111,
      "duration": 0.1961,
      "velocity": 107,
      "chip": "ym2612"
    },
    {
      "channel": 5,
      "note": 68,
      "start": 24.0116,
      "duration": 0.1957,
      "velocity": 120,
      "chip": "ym2612"
    },
    {
      "channel": 1,
      "note": 79,
      "start": 24.0188,
      "duration": 0.1966,
      "velocity": 103,
      "chip": "ym2612"
    },
    {
      "channel": 2,
      "note": 79,
      "start": 24.0766,
      "duration": 0.1962,
      "velocity": 103,
      "chip": "ym2612"
    },
    {
      "channel": 0,
      "note": 75,
      "start": 24.2079,
      "duration": 0.894,
      "velocity": 103,
      "chip": "ym2612"
    },
    {
      "channel": 3,
      "note": 82,
      "start": 24.2083,
      "duration": 0.8936,
      "velocity": 107,
      "chip": "ym2612"
    },
    {
      "channel": 5,
      "note": 44,
      "start": 24.2096,
      "duration": 0.1945,
      "velocity": 86,
      "chip": "ym2612"
    },
    {
      "channel": 1,
      "note": 75,
      "start": 24.2159,
      "duration": 0.8942,
      "velocity": 103,
      "chip": "ym2612"
    },
    {
      "channel": 2,
      "note": 75,
      "start": 24.2733,
      "duration": 1.1897,
      "velocity": 103,
      "chip": "ym2612"
    },
    {
      "channel": 4,
      "note": 49,
      "start": 24.4047,
      "duration": 0.176,
      "velocity": 98,
      "chip": "ym2612"
    },
    {
      "channel": 5,
      "note": 68,
      "start": 24.406,
      "duration": 0.1993,
      "velocity": 120,
      "chip": "ym2612"
    },
    {
      "channel": 4,
      "note": 56,
      "start": 24.6058,
      "duration": 0.1637,
      "velocity": 98,
      "chip": "ym2612"
    },
    {
      "channel": 5,
      "note": 68,
      "start": 24.6065,
      "duration": 0.1958,
      "velocity": 120,
      "chip": "ym2612"
    },
    {
      "channel": 4,
      "note": 61,
      "start": 24.8028,
      "duration": 0.1637,
      "velocity": 98,
      "chip": "ym2612"
    },
    {
      "channel": 5,
      "note": 68,
      "start": 24.8041,
      "duration": 0.1993,
      "velocity": 127,
      "chip": "ym2612"
    },
    {
      "channel": 5,
      "note": 68,
      "start": 25.0047,
      "duration": 0.0974,
      "velocity": 120,
      "chip": "ym2612"
    },
    {
      "channel": 5,
      "note": 68,
      "start": 25.1025,
      "duration": 0.0978,
      "velocity": 120,
      "chip": "ym2612"
    },
    {
      "channel": 4,
      "note": 49,
      "start": 25.2008,
      "duration": 0.1226,
      "velocity": 98,
      "chip": "ym2612"
    },
    {
      "channel": 5,
      "note": 68,
      "start": 25.2013,
      "duration": 0.0975,
      "velocity": 120,
      "chip": "ym2612"
    },
    {
      "channel": 5,
      "note": 68,
      "start": 25.2994,
      "duration": 0.0979,
      "velocity": 120,
      "chip": "ym2612"
    },
    {
      "channel": 0,
      "note": 75,
      "start": 25.3978,
      "duration": 0.3319,
      "velocity": 103,
      "chip": "ym2612"
    },
    {
      "channel": 3,
      "note": 82,
      "start": 25.3983,
      "duration": 0.3316,
      "velocity": 107,
      "chip": "ym2612"
    },
    {
      "channel": 5,
      "note": 44,
      "start": 25.3996,
      "duration": 0.1988,
      "velocity": 86,
      "chip": "ym2612"
    },
    {
      "channel": 1,
      "note": 75,
      "start": 25.4059,
      "duration": 0.332,
      "velocity": 103,
      "chip": "ym2612"
    },
    {
      "channel": 2,
      "note": 75,
      "start": 25.4635,
      "duration": 0.3976,
      "velocity": 103,
      "chip": "ym2612"
    },
    {
      "channel": 4,
      "note": 49,
      "start": 25.5989,
      "duration": 0.1475,
      "velocity": 98,
      "chip": "ym2612"
    },
    {
      "channel": 5,
      "note": 68,
      "start": 25.6002,
      "duration": 0.1952,
      "velocity": 120,
      "chip": "ym2612"
    },
    {
      "channel": 0,
      "note": 77,
      "start": 25.7959,
      "duration": 0.1965,
      "velocity": 103,
      "chip": "ym2612"
    },
    {
      "channel": 3,
      "note": 84,
      "start": 25.7966,
      "duration": 0.1959,
      "velocity": 107,
      "chip": "ym2612"
    },
    {
      "channel": 4,
      "note": 61,
      "start": 25.7971,
      "duration": 0.3553,
      "velocity": 98,
      "chip": "ym2612"
    },
    {
      "channel": 5,
      "note": 68,
      "start": 25.7976,
      "duration": 0.195,
      "velocity": 120,
      "chip": "ym2612"
    },
    {
      "channel": 1,
      "note": 77,
      "start": 25.804,
      "duration": 0.1966,
      "velocity": 103,
      "chip": "ym2612"
    },
    {
      "channel": 2,
      "note": 77,
      "start": 25.8616,
      "duration": 0.1965,
      "velocity": 103,
      "chip": "ym2612"
    },
    {
      "channel": 0,
      "note": 78,
      "start": 25.9931,
      "duration": 0.0978,
      "velocity": 103,
      "chip": "ym2612"
    },
    {
      "channel": 3,
      "note": 85,
      "start": 25.9936,
      "duration": 0.0974,
      "velocity": 107,
      "chip": "ym2612"
    },
    {
      "channel": 5,
      "note": 68,
      "start": 25.995,
      "duration": 0.1985,
      "velocity": 127,
      "chip": "ym2612"
    },
    {
      "channel": 1,
      "note": 78,
      "start": 26.0011,
      "duration": 0.098,
      "velocity": 103,
      "chip": "ym2612"
    },
    {
      "channel": 2,
      "note": 78,
      "start": 26.0586,
      "duration": 0.3978,
      "velocity": 103,
      "chip": "ym2612"
    },
    {
      "channel": 4,
      "note": 49,
      "start": 26.194,
      "duration": 0.0816,
      "velocity": 98,
      "chip": "ym2612"
    },
    {
      "channel": 5,
      "note": 68,
      "start": 26.1953,
      "duration": 0.1952,
      "velocity": 120,
      "chip": "ym2612"
    },
    {
      "channel": 0,
      "note": 77,
      "start": 26.391,
      "duration": 0.1144,
      "velocity": 103,
      "chip": "ym2612"
    },
    {
      "channel": 3,
      "note": 84,
      "start": 26.3915,
      "duration": 0.1141,
      "velocity": 107,
      "chip": "ym2612"
    },
    {
      "channel": 4,
      "note": 49,
      "start": 26.392,
      "duration": 0.1381,
      "velocity": 98,
      "chip": "ym2612"
    },
    {
      "channel": 5,
      "note": 68,
      "start": 26.3924,
      "duration": 0.1951,
      "velocity": 120,
      "chip": "ym2612"
    },
    {
      "channel": 1,
      "note": 77,
      "start": 26.3991,
      "duration": 0.1145,
      "velocity": 103,
      "chip": "ym2612"
    },
    {
      "channel": 2,
      "note": 77,
      "start": 26.4569,
      "duration": 0.1962,
      "velocity": 103,
      "chip": "ym2612"
    },
    {
      "channel": 0,
      "note": 73,
      "start": 26.588,
      "duration": 0.4468,
      "velocity": 103,
      "chip": "ym2612"
    },
    {
      "channel": 3,
      "note": 80,
      "start": 26.5885,
      "duration": 0.4465,
      "velocity": 107,
      "chip": "ym2612"
    },
    {
      "channel": 4,
      "note": 51,
      "start": 26.589,
      "duration": 0.5859,
      "velocity": 98,
      "chip": "ym2612"
    },
    {
      "channel": 5,
      "note": 44,
      "start": 26.5904,
      "duration": 0.1982,
      "velocity": 86,
      "chip": "ym2612"
    },
    {
      "channel": 1,
      "note": 73,
      "start": 26.5964,
      "duration": 0.4468,
      "velocity": 103,
      "chip": "ym2612"
    },
    {
      "channel": 2,
      "note": 73,
      "start": 26.6537,
      "duration": 0.5946,
      "velocity": 103,
      "chip": "ym2612"
    },
    {
      "channel": 5,
      "note": 68,
      "start": 26.7899,
      "duration": 0.1957,
      "velocity": 120,
      "chip": "ym2612"
    },
    {
      "channel": 5,
      "note": 68,
      "start": 26.9863,
      "duration": 0.1963,
      "velocity": 120,
      "chip": "ym2612"
    },
    {
      "channel": 0,
      "note": 75,
      "start": 27.1831,
      "duration": 0.2006,
      "velocity": 103,
      "chip": "ym2612"
    },
    {
      "channel": 3,
      "note": 82,
      "start": 27.1835,
      "duration": 0.2002,
      "velocity": 107,
      "chip": "ym2612"
    },
    {
      "channel": 4,
      "note": 53,
      "start": 27.184,
      "duration": 0.5936,
      "velocity": 98,
      "chip": "ym2612"
    },
    {
      "channel": 5,
      "note": 68,
      "start": 27.1855,
      "duration": 0.1984,
      "velocity": 127,
      "chip": "ym2612"
    },
    {
      "channel": 1,
      "note": 75,
      "start": 27.1912,
      "duration": 0.2007,
      "velocity": 103,
      "chip": "ym2612"
    },
    {
      "channel": 2,
      "note": 75,
      "start": 27.2488,
      "duration": 0.2006,
      "velocity": 103,
      "chip": "ym2612"
    },
    {
      "channel": 0,
      "note": 72,
      "start": 27.3844,
      "duration": 0.1306,
      "velocity": 103,
      "chip": "ym2612"
    },
    {
      "channel": 3,
      "note": 79,
      "start": 27.3848,
      "duration": 0.1303,
      "velocity": 107,
      "chip": "ym2612"
    },
    {
      "channel": 5,
      "note": 68,
      "start": 27.3865,
      "duration": 0.1942,
      "velocity": 120,
      "chip": "ym2612"
    },
    {
      "channel": 1,
      "note": 72,
      "start": 27.3924,
      "duration": 0.1308,
      "velocity": 103,
      "chip": "ym2612"
    },
    {
      "channel": 2,
      "note": 72,
      "start": 27.4498,
      "duration": 0.1966,
      "velocity": 103,
      "chip": "ym2612"
    },
    {
      "channel": 0,
      "note": 68,
      "start": 27.5812,
      "duration": 0.1144,
      "velocity": 103,
      "chip": "ym2612"
    },
    {
      "channel": 3,
      "note": 75,
      "start": 27.5816,
      "duration": 0.1141,
      "velocity": 107,
      "chip": "ym2612"
    },
    {
      "channel": 5,
      "note": 68,
      "start": 27.5821,
      "duration": 0.1956,
      "velocity": 120,
      "chip": "ym2612"
    },
    {
      "channel": 1,
      "note": 68,
      "start": 27.5893,
      "duration": 0.1145,
      "velocity": 103,
      "chip": "ym2612"
    },
    {
      "channel": 2,
      "note": 68,
      "start": 27.647,
      "duration": 0.1963,
      "velocity": 103,
      "chip": "ym2612"
    },
    {
      "channel": 0,
      "note": 80,
      "start": 27.7783,
      "duration": 0.9105,
      "velocity": 103,
      "chip": "ym2612"
    },
    {
      "channel": 3,
      "note": 87,
      "start": 27.7787,
      "duration": 0.9101,
      "velocity": 107,
      "chip": "ym2612"
    },
    {
      "channel": 5,
      "note": 68,
      "start": 27.7801,
      "duration": 0.1986,
      "velocity": 120,
      "chip": "ym2612"
    },
    {
      "channel": 1,
      "note": 80,
      "start": 27.7865,
      "duration": 0.9105,
      "velocity": 103,
      "chip": "ym2612"
    },
    {
      "channel": 2,
      "note": 80,
      "start": 27.8438,
      "duration": 0.9927,
      "velocity": 103,
      "chip": "ym2612"
    },
    {
      "channel": 4,
      "note": 49,
      "start": 27.9793,
      "duration": 0.1637,
      "velocity": 98,
      "chip": "ym2612"
    },
    {
      "channel": 5,
      "note": 44,
      "start": 27.9807,
      "duration": 0.1951,
      "velocity": 86,
      "chip": "ym2612"
    },
    {
      "channel": 4,
      "note": 56,
      "start": 28.1765,
      "duration": 0.1716,
      "velocity": 98,
      "chip": "ym2612"
    },
    {
      "channel": 5,
      "note": 44,
      "start": 28.177,
      "duration": 0.1958,
      "velocity": 86,
      "chip": "ym2612"
    },
    {
      "channel": 4,
      "note": 61,
      "start": 28.3732,
      "duration": 0.1513,
      "velocity": 98,
      "chip": "ym2612"
    },
    {
      "channel": 5,
      "note": 68,
      "start": 28.3747,
      "duration": 0.1992,
      "velocity": 127,
      "chip": "ym2612"
    },
    {
      "channel": 5,
      "note": 68,
      "start": 28.5751,
      "duration": 0.0972,
      "velocity": 120,
      "chip": "ym2612"
    },
    {
      "channel": 5,
      "note": 68,
      "start": 28.6728,
      "duration": 0.098,
      "velocity": 120,
      "chip": "ym2612"
    },
    {
      "channel": 0,
      "note": 80,
      "start": 28.7713,
      "duration": 0.098,
      "velocity": 103,
      "chip": "ym2612"
    },
    {
      "channel": 3,
      "note": 87,
      "start": 28.7718,
      "duration": 0.0976,
      "velocity": 107,
      "chip": "ym2612"
    },
    {
      "channel": 5,
      "note": 68,
      "start": 28.7723,
      "duration": 0.0972,
      "velocity": 120,
      "chip": "ym2612"
    },
    {
      "channel": 1,
      "note": 80,
      "start": 28.7794,
      "duration": 0.0981,
      "velocity": 103,
      "chip": "ym2612"
    },
    {
      "channel": 2,
      "note": 80,
      "start": 28.837,
      "duration": 0.2006,
      "velocity": 103,
      "chip": "ym2612"
    },
    {
      "channel": 5,
      "note": 68,
      "start": 28.87,
      "duration": 0.0978,
      "velocity": 120,
      "chip": "ym2612"
    },
    {
      "channel": 0,
      "note": 80,
      "start": 28.9684,
      "duration": 0.3975,
      "velocity": 103,
      "chip": "ym2612"
    },
    {
      "channel": 3,
      "note": 87,
      "start": 28.9689,
      "duration": 0.3971,
      "velocity": 107,
      "chip": "ym2612"
    },
    {
      "channel": 5,
      "note": 44,
      "start": 28.9702,
      "duration": 0.1987,
      "velocity": 86,
      "chip": "ym2612"
    },
    {
      "channel": 1,
      "note": 80,
      "start": 28.9767,
      "duration": 0.3974,
      "velocity": 103,
      "chip": "ym2612"
    },
    {
      "channel": 2,
      "note": 80,
      "start": 29.0381,
      "duration": 0.3935,
      "velocity": 103,
      "chip": "ym2612"
    },
    {
      "channel": 4,
      "note": 49,
      "start": 29.1694,
      "duration": 0.1637,
      "velocity": 98,
      "chip": "ym2612"
    },
    {
      "channel": 5,
      "note": 68,
      "start": 29.1708,
      "duration": 0.1955,
      "velocity": 120,
      "chip": "ym2612"
    },
    {
      "channel": 0,
      "note": 82,
      "start": 29.3668,
      "duration": 0.196,
      "velocity": 103,
      "chip": "ym2612"
    },
    {
      "channel": 3,
      "note": 89,
      "start": 29.3673,
      "duration": 0.1957,
      "velocity": 107,
      "chip": "ym2612"
    },
    {
      "channel": 4,
      "note": 61,
      "start": 29.3678,
      "duration": 0.3387,
      "velocity": 98,
      "chip": "ym2612"
    },
    {
      "channel": 5,
      "note": 68,
      "start": 29.3683,
      "duration": 0.1949,
      "velocity": 120,
      "chip": "ym2612"
    },
    {
      "channel": 1,
      "note": 82,
      "start": 29.3746,
      "duration": 0.1965,
      "velocity": 103,
      "chip": "ym2612"
    },
    {
      "channel": 2,
      "note": 82,
      "start": 29.4322,
      "duration": 0.2005,
      "velocity": 103,
      "chip": "ym2612"
    },
    {
      "channel": 0,
      "note": 83,
      "start": 29.5637,
      "duration": 0.1018,
      "velocity": 103,
      "chip": "ym2612"
    },
    {
      "channel": 3,
      "note": 90,
      "start": 29.5641,
      "duration": 0.1014,
      "velocity": 107,
      "chip": "ym2612"
    },
    {
      "channel": 5,
      "note": 68,
      "start": 29.5655,
      "duration": 0.1985,
      "velocity": 127,
      "chip": "ym2612"
    },
    {
      "channel": 1,
      "note": 83,
      "start": 29.5716,
      "duration": 0.1021,
      "velocity": 103,
      "chip": "ym2612"
    },
    {
      "channel": 2,
      "note": 83,
      "start": 29.6332,
      "duration": 0.3935,
      "velocity": 103,
      "chip": "ym2612"
    },
    {
      "channel": 4,
      "note": 49,
      "start": 29.7645,
      "duration": 0.098,
      "velocity": 98,
      "chip": "ym2612"
    },
    {
      "channel": 5,
      "note": 68,
      "start": 29.7659,
      "duration": 0.1951,
      "velocity": 120,
      "chip": "ym2612"
    },
    {
      "channel": 0,
      "note": 82,
      "start": 29.9615,
      "duration": 0.2006,
      "velocity": 103,
      "chip": "ym2612"
    },
    {
      "channel": 3,
      "note": 89,
      "start": 29.9619,
      "duration": 0.2002,
      "velocity": 107,
      "chip": "ym2612"
    },
    {
      "channel": 4,
      "note": 49,
      "start": 29.9624,
      "duration": 0.1299,
      "velocity": 98,
      "chip": "ym2612"
    },
    {
      "channel": 5,
      "note": 68,
      "start": 29.9629,
      "duration": 0.1993,
      "velocity": 120,
      "chip": "ym2612"
    },
    {
      "channel": 1,
      "note": 82,
      "start": 29.9696,
      "duration": 0.2007,
      "velocity": 103,
      "chip": "ym2612"
    },
    {
      "channel": 2,
      "note": 82,
      "start": 30.0273,
      "duration": 0.2005,
      "velocity": 103,
      "chip": "ym2612"
    },
    {
      "channel": 0,
      "note": 80,
      "start": 30.1628,
      "duration": 0.8324,
      "velocity": 103,
      "chip": "ym2612"
    },
    {
      "channel": 3,
      "note": 87,
      "start": 30.1632,
      "duration": 0.8321,
      "velocity": 107,
      "chip": "ym2612"
    },
    {
      "channel": 5,
      "note": 44,
      "start": 30.1645,
      "duration": 0.1945,
      "velocity": 86,
      "chip": "ym2612"
    },
    {
      "channel": 1,
      "note": 80,
      "start": 30.1708,
      "duration": 0.8326,
      "velocity": 103,
      "chip": "ym2612"
    },
    {
      "channel": 2,
      "note": 80,
      "start": 30.2283,
      "duration": 0.9885,
      "velocity": 103,
      "chip": "ym2612"
    },
    {
      "channel": 4,
      "note": 49,
      "start": 30.3597,
      "duration": 0.1882,
      "velocity": 98,
      "chip": "ym2612"
    },
    {
      "channel": 5,
      "note": 68,
      "start": 30.361,
      "duration": 0.1953,
      "velocity": 120,
      "chip": "ym2612"
    },
    {
      "channel": 4,
      "note": 56,
      "start": 30.5568,
      "duration": 0.147,
      "velocity": 98,
      "chip": "ym2612"
    },
    {
      "channel": 5,
      "note": 68,
      "start": 30.5573,
      "duration": 0.1999,
      "velocity": 120,
      "chip": "ym2612"
    },
    {
      "channel": 4,
      "note": 61,
      "start": 30.7577,
      "duration": 0.1472,
      "velocity": 98,
      "chip": "ym2612"
    },
    {
      "channel": 5,
      "note": 68,
      "start": 30.759,
      "duration": 0.1953,
      "velocity": 127,
      "chip": "ym2612"
    },
    {
      "channel": 5,
      "note": 68,
      "start": 30.9556,
      "duration": 0.1956,
      "velocity": 120,
      "chip": "ym2612"
    },
    {
      "channel": 0,
      "note": 80,
      "start": 31.1516,
      "duration": 0.0898,
      "velocity": 103,
      "chip": "ym2612"
    },
    {
      "channel": 3,
      "note": 87,
      "start": 31.1521,
      "duration": 0.0894,
      "velocity": 107,
      "chip": "ym2612"
    },
    {
      "channel": 5,
      "note": 68,
      "start": 31.1526,
      "duration": 0.1997,
      "velocity": 120,
      "chip": "ym2612"
    },
    {
      "channel": 1,
      "note": 80,
      "start": 31.1598,
      "duration": 0.0899,
      "velocity": 103,
      "chip": "ym2612"
    },
    {
      "channel": 2,
      "note": 80,
      "start": 31.2173,
      "duration": 0.2007,
      "velocity": 103,
      "chip": "ym2612"
    },
    {
      "channel": 0,
      "note": 80,
      "start": 31.3527,
      "duration": 0.3688,
      "velocity": 103,
      "chip": "ym2612"
    },
    {
      "channel": 3,
      "note": 87,
      "start": 31.3532,
      "duration": 0.3685,
      "velocity": 107,
      "chip": "ym2612"
    },
    {
      "channel": 5,
      "note": 44,
      "start": 31.3545,
      "duration": 0.195,
      "velocity": 86,
      "chip": "ym2612"
    },
    {
      "channel": 1,
      "note": 80,
      "start": 31.3609,
      "duration": 0.369,
      "velocity": 103,
      "chip": "ym2612"
    },
    {
      "channel": 2,
      "note": 80,
      "start": 31.4185,
      "duration": 0.3934,
      "velocity": 103,
      "chip": "ym2612"
    },
    {
      "channel": 4,
      "note": 49,
      "start": 31.5501,
      "duration": 0.1879,
      "velocity": 98,
      "chip": "ym2612"
    },
    {
      "channel": 5,
      "note": 68,
      "start": 31.5514,
      "duration": 0.1951,
      "velocity": 120,
      "chip": "ym2612"
    },
    {
      "channel": 0,
      "note": 82,
      "start": 31.747,
      "duration": 0.2004,
      "velocity": 103,
      "chip": "ym2612"
    },
    {
      "channel": 3,
      "note": 89,
      "start": 31.7474,
      "duration": 0.2,
      "velocity": 107,
      "chip": "ym2612"
    },
    {
      "channel": 4,
      "note": 61,
      "start": 31.7479,
      "duration": 0.3554,
      "velocity": 98,
      "chip": "ym2612"
    },
    {
      "channel": 5,
      "note": 68,
      "start": 31.7484,
      "duration": 0.1991,
      "velocity": 120,
      "chip": "ym2612"
    },
    {
      "channel": 1,
      "note": 82,
      "start": 31.7548,
      "duration": 0.2007,
      "velocity": 103,
      "chip": "ym2612"
    },
    {
      "channel": 2,
      "note": 82,
      "start": 31.8124,
      "duration": 0.2008,
      "velocity": 103,
      "chip": "ym2612"
    },
    {
      "channel": 0,
      "note": 83,
      "start": 31.948,
      "duration": 0.0978,
      "velocity": 103,
      "chip": "ym2612"
    },
    {
      "channel": 3,
      "note": 90,
      "start": 31.9485,
      "duration": 0.0975,
      "velocity": 107,
      "chip": "ym2612"
    },
    {
      "channel": 5,
      "note": 68,
      "start": 31.9498,
      "duration": 0.1945,
      "velocity": 127,
      "chip": "ym2612"
    },
    {
      "channel": 1,
      "note": 83,
      "start": 31.9563,
      "duration": 0.0978,
      "velocity": 103,
      "chip": "ym2612"
    },
    {
      "channel": 2,
      "note": 83,
      "start": 32.0137,
      "duration": 0.3768,
      "velocity": 103,
      "chip": "ym2612"
    },
    {
      "channel": 4,
      "note": 49,
      "start": 32.1448,
      "duration": 0.098,
      "velocity": 98,
      "chip": "ym2612"
    },
    {
      "channel": 5,
      "note": 68,
      "start": 32.1464,
      "duration": 0.1949,
      "velocity": 120,
      "chip": "ym2612"
    },
    {
      "channel": 0,
      "note": 82,
      "start": 32.3254,
      "duration": 0.1226,
      "velocity": 103,
      "chip": "ym2612"
    },
    {
      "channel": 3,
      "note": 89,
      "start": 32.3259,
      "duration": 0.1222,
      "velocity": 107,
      "chip": "ym2612"
    },
    {
      "channel": 1,
      "note": 82,
      "start": 32.3335,
      "duration": 0.1268,
      "velocity": 103,
      "chip": "ym2612"
    },
    {
      "channel": 4,
      "note": 49,
      "start": 32.3418,
      "duration": 0.1678,
      "velocity": 98,
      "chip": "ym2612"
    },
    {
      "channel": 5,
      "note": 68,
      "start": 32.3423,
      "duration": 0.1837,
      "velocity": 120,
      "chip": "ym2612"
    },
    {
      "channel": 2,
      "note": 82,
      "start": 32.3911,
      "duration": 0.2006,
      "velocity": 103,
      "chip": "ym2612"
    },
    {
      "channel": 0,
      "note": 78,
      "start": 32.5268,
      "duration": 0.9718,
      "velocity": 103,
      "chip": "ym2612"
    },
    {
      "channel": 3,
      "note": 85,
      "start": 32.5273,
      "duration": 0.9714,
      "velocity": 107,
      "chip": "ym2612"
    },
    {
      "channel": 1,
      "note": 78,
      "start": 32.5346,
      "duration": 0.9722,
      "velocity": 103,
      "chip": "ym2612"
    },
    {
      "channel": 5,
      "note": 44,
      "start": 32.5436,
      "duration": 0.1958,
      "velocity": 86,
      "chip": "ym2612"
    },
    {
      "channel": 2,
      "note": 78,
      "start": 32.5922,
      "duration": 1.2061,
      "velocity": 103,
      "chip": "ym2612"
    },
    {
      "channel": 4,
      "note": 50,
      "start": 32.7399,
      "duration": 0.1801,
      "velocity": 98,
      "chip": "ym2612"
    },
    {
      "channel": 5,
      "note": 68,
      "start": 32.7412,
      "duration": 0.1952,
      "velocity": 120,
      "chip": "ym2612"
    },
    {
      "channel": 4,
      "note": 49,
      "start": 32.937,
      "duration": 0.2005,
      "velocity": 98,
      "chip": "ym2612"
    },
    {
      "channel": 5,
      "note": 68,
      "start": 32.9375,
      "duration": 0.2001,
      "velocity": 120,
      "chip": "ym2612"
    },
    {
      "channel": 4,
      "note": 47,
      "start": 33.1381,
      "duration": 0.3934,
      "velocity": 98,
      "chip": "ym2612"
    },
    {
      "channel": 5,
      "note": 68,
      "start": 33.1394,
      "duration": 0.1951,
      "velocity": 127,
      "chip": "ym2612"
    },
    {
      "channel": 5,
      "note": 68,
      "start": 33.3358,
      "duration": 0.1958,
      "velocity": 120,
      "chip": "ym2612"
    },
    {
      "channel": 5,
      "note": 68,
      "start": 33.532,
      "duration": 0.2005,
      "velocity": 120,
      "chip": "ym2612"
    },
    {
      "channel": 0,
      "note": 78,
      "start": 33.7331,
      "duration": 0.3114,
      "velocity": 103,
      "chip": "ym2612"
    },
    {
      "channel": 3,
      "note": 85,
      "start": 33.7335,
      "duration": 0.311,
      "velocity": 107,
      "chip": "ym2612"
    },
    {
      "channel": 5,
      "note": 44,
      "start": 33.7348,
      "duration": 0.1947,
      "velocity": 86,
      "chip": "ym2612"
    },
    {
      "channel": 1,
      "note": 78,
      "start": 33.7412,
      "duration": 0.3115,
      "velocity": 103,
      "chip": "ym2612"
    },
    {
      "channel": 2,
      "note": 78,
      "start": 33.7987,
      "duration": 0.3977,
      "velocity": 103,
      "chip": "ym2612"
    },
    {
      "channel": 4,
      "note": 50,
      "start": 33.93,
      "duration": 0.1801,
      "velocity": 98,
      "chip": "ym2612"
    },
    {
      "channel": 5,
      "note": 68,
      "start": 33.9314,
      "duration": 0.1952,
      "velocity": 120,
      "chip": "ym2612"
    },
    {
      "channel": 0,
      "note": 80,
      "start": 34.1271,
      "duration": 0.2006,
      "velocity": 103,
      "chip": "ym2612"
    },
    {
      "channel": 3,
      "note": 87,
      "start": 34.1275,
      "duration": 0.2002,
      "velocity": 107,
      "chip": "ym2612"
    },
    {
      "channel": 4,
      "note": 62,
      "start": 34.128,
      "duration": 0.372,
      "velocity": 98,
      "chip": "ym2612"
    },
    {
      "channel": 5,
      "note": 68,
      "start": 34.1285,
      "duration": 0.1993,
      "velocity": 120,
      "chip": "ym2612"
    },
    {
      "channel": 1,
      "note": 80,
      "start": 34.1352,
      "duration": 0.2007,
      "velocity": 103,
      "chip": "ym2612"
    },
    {
      "channel": 2,
      "note": 80,
      "start": 34.197,
      "duration": 0.1963,
      "velocity": 103,
      "chip": "ym2612"
    },
    {
      "channel": 0,
      "note": 81,
      "start": 34.3283,
      "duration": 0.106,
      "velocity": 103,
      "chip": "ym2612"
    },
    {
      "channel": 3,
      "note": 88,
      "start": 34.3288,
      "duration": 0.1056,
      "velocity": 107,
      "chip": "ym2612"
    },
    {
      "channel": 5,
      "note": 68,
      "start": 34.3301,
      "duration": 0.1945,
      "velocity": 127,
      "chip": "ym2612"
    },
    {
      "channel": 1,
      "note": 81,
      "start": 34.3366,
      "duration": 0.106,
      "velocity": 103,
      "chip": "ym2612"
    },
    {
      "channel": 2,
      "note": 81,
      "start": 34.3938,
      "duration": 0.3976,
      "velocity": 103,
      "chip": "ym2612"
    },
    {
      "channel": 4,
      "note": 50,
      "start": 34.5251,
      "duration": 0.1144,
      "velocity": 98,
      "chip": "ym2612"
    },
    {
      "channel": 5,
      "note": 68,
      "start": 34.5267,
      "duration": 0.0964,
      "velocity": 120,
      "chip": "ym2612"
    },
    {
      "channel": 5,
      "note": 68,
      "start": 34.6237,
      "duration": 0.0979,
      "velocity": 120,
      "chip": "ym2612"
    },
    {
      "channel": 0,
      "note": 80,
      "start": 34.7221,
      "duration": 0.1432,
      "velocity": 103,
      "chip": "ym2612"
    },
    {
      "channel": 3,
      "note": 87,
      "start": 34.7226,
      "duration": 0.1429,
      "velocity": 107,
      "chip": "ym2612"
    },
    {
      "channel": 4,
      "note": 50,
      "start": 34.7231,
      "duration": 0.1668,
      "velocity": 98,
      "chip": "ym2612"
    },
    {
      "channel": 5,
      "note": 68,
      "start": 34.7236,
      "duration": 0.1006,
      "velocity": 120,
      "chip": "ym2612"
    },
    {
      "channel": 1,
      "note": 80,
      "start": 34.7302,
      "duration": 0.1432,
      "velocity": 103,
      "chip": "ym2612"
    },
    {
      "channel": 2,
      "note": 80,
      "start": 34.7919,
      "duration": 0.1965,
      "velocity": 103,
      "chip": "ym2612"
    },
    {
      "channel": 5,
      "note": 68,
      "start": 34.8247,
      "duration": 0.098,
      "velocity": 120,
      "chip": "ym2612"
    },
    {
      "channel": 0,
      "note": 76,
      "start": 34.9232,
      "duration": 0.4797,
      "velocity": 103,
      "chip": "ym2612"
    },
    {
      "channel": 3,
      "note": 83,
      "start": 34.9237,
      "duration": 0.4793,
      "velocity": 107,
      "chip": "ym2612"
    },
    {
      "channel": 4,
      "note": 45,
      "start": 34.9242,
      "duration": 0.5608,
      "velocity": 98,
      "chip": "ym2612"
    },
    {
      "channel": 5,
      "note": 44,
      "start": 34.9255,
      "duration": 0.1942,
      "velocity": 86,
      "chip": "ym2612"
    },
    {
      "channel": 1,
      "note": 76,
      "start": 34.9313,
      "duration": 0.4798,
      "velocity": 103,
      "chip": "ym2612"
    },
    {
      "channel": 2,
      "note": 76,
      "start": 34.9889,
      "duration": 0.5946,
      "velocity": 103,
      "chip": "ym2612"
    },
    {
      "channel": 5,
      "note": 68,
      "start": 35.121,
      "duration": 0.1957,
      "velocity": 120,
      "chip": "ym2612"
    },
    {
      "channel": 5,
      "note": 68,
      "start": 35.3172,
      "duration": 0.2006,
      "velocity": 120,
      "chip": "ym2612"
    },
    {
      "channel": 0,
      "note": 78,
      "start": 35.5183,
      "duration": 0.1965,
      "velocity": 103,
      "chip": "ym2612"
    },
    {
      "channel": 3,
      "note": 85,
      "start": 35.5188,
      "duration": 0.1961,
      "velocity": 107,
      "chip": "ym2612"
    },
    {
      "channel": 4,
      "note": 44,
      "start": 35.5193,
      "duration": 0.5608,
      "velocity": 98,
      "chip": "ym2612"
    },
    {
      "channel": 5,
      "note": 68,
      "start": 35.5207,
      "duration": 0.1943,
      "velocity": 127,
      "chip": "ym2612"
    },
    {
      "channel": 1,
      "note": 78,
      "start": 35.5267,
      "duration": 0.1963,
      "velocity": 103,
      "chip": "ym2612"
    },
    {
      "channel": 2,
      "note": 78,
      "start": 35.584,
      "duration": 0.1965,
      "velocity": 103,
      "chip": "ym2612"
    },
    {
      "channel": 0,
      "note": 75,
      "start": 35.7155,
      "duration": 0.1635,
      "velocity": 103,
      "chip": "ym2612"
    },
    {
      "channel": 3,
      "note": 82,
      "start": 35.7159,
      "duration": 0.1631,
      "velocity": 107,
      "chip": "ym2612"
    },
    {
      "channel": 5,
      "note": 68,
      "start": 35.7175,
      "duration": 0.1984,
      "velocity": 120,
      "chip": "ym2612"
    },
    {
      "channel": 1,
      "note": 75,
      "start": 35.7235,
      "duration": 0.1637,
      "velocity": 103,
      "chip": "ym2612"
    },
    {
      "channel": 2,
      "note": 75,
      "start": 35.781,
      "duration": 0.2006,
      "velocity": 103,
      "chip": "ym2612"
    },
    {
      "channel": 0,
      "note": 71,
      "start": 35.9166,
      "duration": 0.0813,
      "velocity": 103,
      "chip": "ym2612"
    },
    {
      "channel": 3,
      "note": 78,
      "start": 35.9171,
      "duration": 0.081,
      "velocity": 107,
      "chip": "ym2612"
    },
    {
      "channel": 5,
      "note": 68,
      "start": 35.9176,
      "duration": 0.1953,
      "velocity": 120,
      "chip": "ym2612"
    },
    {
      "channel": 1,
      "note": 71,
      "start": 35.9247,
      "duration": 0.0817,
      "velocity": 103,
      "chip": "ym2612"
    },
    {
      "channel": 2,
      "note": 71,
      "start": 35.9821,
      "duration": 0.1965,
      "velocity": 103,
      "chip": "ym2612"
    },
    {
      "channel": 0,
      "note": 80,
      "start": 36.1134,
      "duration": 0.3976,
      "velocity": 103,
      "chip": "ym2612"
    },
    {
      "channel": 3,
      "note": 87,
      "start": 36.1138,
      "duration": 0.3972,
      "velocity": 107,
      "chip": "ym2612"
    },
    {
      "channel": 4,
      "note": 49,
      "start": 36.1144,
      "duration": 0.5772,
      "velocity": 98,
      "chip": "ym2612"
    },
    {
      "channel": 5,
      "note": 80,
      "start": 36.1158,
      "duration": 0.3954,
      "velocity": 120,
      "chip": "ym2612"
    },
    {
      "channel": 1,
      "note": 80,
      "start": 36.1215,
      "duration": 0.3977,
      "velocity": 103,
      "chip": "ym2612"
    },
    {
      "channel": 2,
      "note": 80,
      "start": 36.179,
      "duration": 0.5946,
      "velocity": 103,
      "chip": "ym2612"
    },
    {
      "channel": 0,
      "note": 73,
      "start": 36.7084,
      "duration": 0.3979,
      "velocity": 103,
      "chip": "ym2612"
    },
    {
      "channel": 3,
      "note": 80,
      "start": 36.7088,
      "duration": 0.3976,
      "velocity": 107,
      "chip": "ym2612"
    },
    {
      "channel": 4,
      "note": 51,
      "start": 36.7093,
      "duration": 0.5609,
      "velocity": 98,
      "chip": "ym2612"
    },
    {
      "channel": 5,
      "note": 80,
      "start": 36.7099,
      "duration": 0.3966,
      "velocity": 120,
      "chip": "ym2612"
    },
    {
      "channel": 1,
      "note": 73,
      "start": 36.7168,
      "duration": 0.3974,
      "velocity": 103,
      "chip": "ym2612"
    },
    {
      "channel": 2,
      "note": 73,
      "start": 36.7741,
      "duration": 0.3976,
      "velocity": 103,
      "chip": "ym2612"
    },
    {
      "channel": 0,
      "note": 75,
      "start": 37.107,
      "duration": 0.0811,
      "velocity": 103,
      "chip": "ym2612"
    },
    {
      "channel": 3,
      "note": 82,
      "start": 37.1074,
      "duration": 0.0808,
      "velocity": 107,
      "chip": "ym2612"
    },
    {
      "channel": 1,
      "note": 75,
      "start": 37.1148,
      "duration": 0.0817,
      "velocity": 103,
      "chip": "ym2612"
    },
    {
      "channel": 2,
      "note": 75,
      "start": 37.1722,
      "duration": 0.1965,
      "velocity": 103,
      "chip": "ym2612"
    },
    {
      "channel": 0,
      "note": 75,
      "start": 37.3034,
      "duration": 5.5539,
      "velocity": 103,
      "chip": "ym2612"
    },
    {
      "channel": 3,
      "note": 82,
      "start": 37.3039,
      "duration": 5.5578,
      "velocity": 107,
      "chip": "ym2612"
    },
    {
      "channel": 4,
      "note": 53,
      "start": 37.3044,
      "duration": 0.3557,
      "velocity": 98,
      "chip": "ym2612"
    },
    {
      "channel": 5,
      "note": 80,
      "start": 37.305,
      "duration": 0.3961,
      "velocity": 120,
      "chip": "ym2612"
    },
    {
      "channel": 1,
      "note": 75,
      "start": 37.3117,
      "duration": 5.5359,
      "velocity": 103,
      "chip": "ym2612"
    },
    {
      "channel": 2,
      "note": 75,
      "start": 37.3692,
      "duration": 5.4965,
      "velocity": 103,
      "chip": "ym2612"
    },
    {
      "channel": 4,
      "note": 46,
      "start": 37.7016,
      "duration": 0.3689,
      "velocity": 98,
      "chip": "ym2612"
    },
    {
      "channel": 4,
      "note": 51,
      "start": 38.0955,
      "duration": 0.5454,
      "velocity": 98,
      "chip": "ym2612"
    },
    {
      "channel": 5,
      "note": 68,
      "start": 38.0971,
      "duration": 0.0801,
      "velocity": 120,
      "chip": "ym2612"
    },
    {
      "channel": 5,
      "note": 68,
      "start": 38.2968,
      "duration": 0.0815,
      "velocity": 120,
      "chip": "ym2612"
    },
    {
      "channel": 5,
      "note": 69,
      "start": 38.3951,
      "duration": 0.0817,
      "velocity": 120,
      "chip": "ym2612"
    },
    {
      "channel": 5,
      "note": 68,
      "start": 38.4936,
      "duration": 0.0817,
      "velocity": 120,
      "chip": "ym2612"
    },
    {
      "channel": 4,
      "note": 53,
      "start": 38.6906,
      "duration": 0.7588,
      "velocity": 98,
      "chip": "ym2612"
    },
    {
      "channel": 5,
      "note": 68,
      "start": 38.6911,
      "duration": 0.0812,
      "velocity": 120,
      "chip": "ym2612"
    },
    {
      "channel": 5,
      "note": 69,
      "start": 38.7891,
      "duration": 0.0817,
      "velocity": 120,
      "chip": "ym2612"
    },
    {
      "channel": 5,
      "note": 68,
      "start": 38.8877,
      "duration": 0.0816,
      "velocity": 120,
      "chip": "ym2612"
    },
    {
      "channel": 5,
      "note": 68,
      "start": 39.0846,
      "duration": 0.0819,
      "velocity": 120,
      "chip": "ym2612"
    },
    {
      "channel": 5,
      "note": 69,
      "start": 39.1831,
      "duration": 0.0817,
      "velocity": 120,
      "chip": "ym2612"
    },
    {
      "channel": 5,
      "note": 68,
      "start": 39.2815,
      "duration": 0.0858,
      "velocity": 120,
      "chip": "ym2612"
    },
    {
      "channel": 4,
      "note": 54,
      "start": 39.4829,
      "duration": 0.5452,
      "velocity": 98,
      "chip": "ym2612"
    },
    {
      "channel": 5,
      "note": 68,
      "start": 39.4834,
      "duration": 0.0809,
      "velocity": 120,
      "chip": "ym2612"
    },
    {
      "channel": 5,
      "note": 69,
      "start": 39.5811,
      "duration": 0.0817,
      "velocity": 120,
      "chip": "ym2612"
    },
    {
      "channel": 5,
      "note": 68,
      "start": 39.6796,
      "duration": 0.0817,
      "velocity": 120,
      "chip": "ym2612"
    },
    {
      "channel": 5,
      "note": 68,
      "start": 39.8768,
      "duration": 0.0856,
      "velocity": 120,
      "chip": "ym2612"
    },
    {
      "channel": 5,
      "note": 69,
      "start": 39.9792,
      "duration": 0.0817,
      "velocity": 120,
      "chip": "ym2612"
    },
    {
      "channel": 4,
      "note": 56,
      "start": 40.0778,
      "duration": 0.1886,
      "velocity": 98,
      "chip": "ym2612"
    },
    {
      "channel": 5,
      "note": 68,
      "start": 40.0782,
      "duration": 0.0812,
      "velocity": 120,
      "chip": "ym2612"
    },
    {
      "channel": 4,
      "note": 58,
      "start": 40.2747,
      "duration": 0.1309,
      "velocity": 98,
      "chip": "ym2612"
    },
    {
      "channel": 5,
      "note": 68,
      "start": 40.2752,
      "duration": 0.0812,
      "velocity": 120,
      "chip": "ym2612"
    },
    {
      "channel": 5,
      "note": 68,
      "start": 40.3732,
      "duration": 0.0817,
      "velocity": 120,
      "chip": "ym2612"
    },
    {
      "channel": 4,
      "note": 46,
      "start": 40.4717,
      "duration": 0.1925,
      "velocity": 98,
      "chip": "ym2612"
    },
    {
      "channel": 5,
      "note": 68,
      "start": 40.6728,
      "duration": 0.0817,
      "velocity": 120,
      "chip": "ym2612"
    },
    {
      "channel": 5,
      "note": 69,
      "start": 40.7713,
      "duration": 0.0817,
      "velocity": 120,
      "chip": "ym2612"
    },
    {
      "channel": 4,
      "note": 51,
      "start": 40.8698,
      "duration": 0.5783,
      "velocity": 98,
      "chip": "ym2612"
    },
    {
      "channel": 5,
      "note": 68,
      "start": 40.8703,
      "duration": 0.0812,
      "velocity": 120,
      "chip": "ym2612"
    },
    {
      "channel": 5,
      "note": 68,
      "start": 41.0668,
      "duration": 0.0857,
      "velocity": 120,
      "chip": "ym2612"
    },
    {
      "channel": 5,
      "note": 69,
      "start": 41.1694,
      "duration": 0.0817,
      "velocity": 120,
      "chip": "ym2612"
    },
    {
      "channel": 5,
      "note": 68,
      "start": 41.2679,
      "duration": 0.0817,
      "velocity": 120,
      "chip": "ym2612"
    },
    {
      "channel": 4,
      "note": 53,
      "start": 41.4649,
      "duration": 0.7794,
      "velocity": 98,
      "chip": "ym2612"
    },
    {
      "channel": 5,
      "note": 68,
      "start": 41.4654,
      "duration": 0.0812,
      "velocity": 120,
      "chip": "ym2612"
    },
    {
      "channel": 5,
      "note": 69,
      "start": 41.5634,
      "duration": 0.0817,
      "velocity": 120,
      "chip": "ym2612"
    },
    {
      "channel": 5,
      "note": 68,
      "start": 41.666,
      "duration": 0.0817,
      "velocity": 120,
      "chip": "ym2612"
    },
    {
      "channel": 5,
      "note": 68,
      "start": 41.863,
      "duration": 0.0817,
      "velocity": 120,
      "chip": "ym2612"
    },
    {
      "channel": 5,
      "note": 69,
      "start": 41.9616,
      "duration": 0.0816,
      "velocity": 120,
      "chip": "ym2612"
    },
    {
      "channel": 5,
      "note": 68,
      "start": 42.06,
      "duration": 0.0817,
      "velocity": 120,
      "chip": "ym2612"
    },
    {
      "channel": 4,
      "note": 54,
      "start": 42.2611,
      "duration": 0.5947,
      "velocity": 98,
      "chip": "ym2612"
    },
    {
      "channel": 5,
      "note": 68,
      "start": 42.2616,
      "duration": 0.0812,
      "velocity": 120,
      "chip": "ym2612"
    },
    {
      "channel": 5,
      "note": 69,
      "start": 42.3595,
      "duration": 0.0817,
      "velocity": 120,
      "chip": "ym2612"
    },
    {
      "channel": 5,
      "note": 68,
      "start": 42.458,
      "duration": 0.0817,
      "velocity": 120,
      "chip": "ym2612"
    },
    {
      "channel": 5,
      "note": 68,
      "start": 42.655,
      "duration": 0.0817,
      "velocity": 120,
      "chip": "ym2612"
    },
    {
      "channel": 5,
      "note": 69,
      "start": 42.7535,
      "duration": 0.0858,
      "velocity": 120,
      "chip": "ym2612"
    },
    {
      "channel": 0,
      "note": 73,
      "start": 42.8578,
      "duration": 0.0721,
      "velocity": 103,
      "chip": "ym2612"
    },
    {
      "channel": 3,
      "note": 80,
      "start": 42.862,
      "duration": 0.0679,
      "velocity": 107,
      "chip": "ym2612"
    },
    {
      "channel": 4,
      "note": 46,
      "start": 42.8637,
      "duration": 0.2879,
      "velocity": 98,
      "chip": "ym2612"
    },
    {
      "channel": 5,
      "note": 68,
      "start": 42.8655,
      "duration": 0.0725,
      "velocity": 120,
      "chip": "ym2612"
    },
    {
      "channel": 1,
      "note": 73,
      "start": 42.8665,
      "duration": 0.0713,
      "velocity": 103,
      "chip": "ym2612"
    },
    {
      "channel": 2,
      "note": 73,
      "start": 42.9218,
      "duration": 0.3936,
      "velocity": 103,
      "chip": "ym2612"
    },
    {
      "channel": 5,
      "note": 68,
      "start": 43.0531,
      "duration": 0.0817,
      "velocity": 120,
      "chip": "ym2612"
    },
    {
      "channel": 5,
      "note": 69,
      "start": 43.1521,
      "duration": 0.0812,
      "velocity": 120,
      "chip": "ym2612"
    },
    {
      "channel": 0,
      "note": 73,
      "start": 43.2501,
      "duration": 0.488,
      "velocity": 103,
      "chip": "ym2612"
    },
    {
      "channel": 3,
      "note": 80,
      "start": 43.2506,
      "duration": 0.4876,
      "velocity": 107,
      "chip": "ym2612"
    },
    {
      "channel": 4,
      "note": 51,
      "start": 43.2511,
      "duration": 0.5609,
      "velocity": 98,
      "chip": "ym2612"
    },
    {
      "channel": 5,
      "note": 68,
      "start": 43.2516,
      "duration": 0.0802,
      "velocity": 120,
      "chip": "ym2612"
    },
    {
      "channel": 1,
      "note": 73,
      "start": 43.2583,
      "duration": 0.4881,
      "velocity": 103,
      "chip": "ym2612"
    },
    {
      "channel": 2,
      "note": 73,
      "start": 43.3159,
      "duration": 0.611,
      "velocity": 103,
      "chip": "ym2612"
    },
    {
      "channel": 5,
      "note": 68,
      "start": 43.4512,
      "duration": 0.0817,
      "velocity": 120,
      "chip": "ym2612"
    },
    {
      "channel": 5,
      "note": 69,
      "start": 43.5497,
      "duration": 0.0817,
      "velocity": 120,
      "chip": "ym2612"
    },
    {
      "channel": 5,
      "note": 68,
      "start": 43.6482,
      "duration": 0.0817,
      "velocity": 120,
      "chip": "ym2612"
    },
    {
      "channel": 4,
      "note": 53,
      "start": 43.8452,
      "duration": 0.082,
      "velocity": 98,
      "chip": "ym2612"
    },
    {
      "channel": 5,
      "note": 68,
      "start": 43.8457,
      "duration": 0.0813,
      "velocity": 120,
      "chip": "ym2612"
    },
    {
      "channel": 0,
      "note": 75,
      "start": 43.8616,
      "duration": 0.0656,
      "velocity": 103,
      "chip": "ym2612"
    },
    {
      "channel": 3,
      "note": 82,
      "start": 43.8621,
      "duration": 0.0651,
      "velocity": 107,
      "chip": "ym2612"
    },
    {
      "channel": 1,
      "note": 75,
      "start": 43.8698,
      "duration": 0.0574,
      "velocity": 103,
      "chip": "ym2612"
    }
  ]
}