{
  "track_name": "14 - Convergence",
  "duration_sec": 94.579,
  "sample_rate": 44100,
  "note_count": 1428,
  "unique_pitches": 35,
  "pitch_range": 60,
  "avg_note_duration": 0.2458,
  "reconstruction_stats": {
    "notes_reconstructed": 1428,
    "keyon_events": 1428,
    "keyoff_events": 1427,
    "orphan_keyons": 1,
    "unique_pitches": 35,
    "pitch_range": 60,
    "avg_duration_sec": 0.2458
  },
  "metadata": {
    "source": "E\\Ecco - The Tides of Time\\14 - Convergence.vgz"
  },
  "notes": [
    {
      "channel": 0,
      "note": 56,
      "start": 0.0,
      "duration": 0.1999,
      "velocity": 88,
      "chip": "ym2612"
    },
    {
      "channel": 1,
      "note": 32,
      "start": 0.0053,
      "duration": 0.4206,
      "velocity": 92,
      "chip": "ym2612"
    },
    {
      "channel": 0,
      "note": 59,
      "start": 0.2251,
      "duration": 0.2,
      "velocity": 88,
      "chip": "ym2612"
    },
    {
      "channel": 3,
      "note": 76,
      "start": 0.2305,
      "duration": 0.0822,
      "velocity": 88,
      "chip": "ym2612"
    },
    {
      "channel": 0,
      "note": 63,
      "start": 0.4501,
      "duration": 0.2001,
      "velocity": 88,
      "chip": "ym2612"
    },
    {
      "channel": 1,
      "note": 44,
      "start": 0.4555,
      "duration": 0.3994,
      "velocity": 92,
      "chip": "ym2612"
    },
    {
      "channel": 3,
      "note": 73,
      "start": 0.4609,
      "duration": 0.0769,
      "velocity": 88,
      "chip": "ym2612"
    },
    {
      "channel": 0,
      "note": 56,
      "start": 0.6752,
      "duration": 0.2001,
      "velocity": 88,
      "chip": "ym2612"
    },
    {
      "channel": 3,
      "note": 78,
      "start": 0.6807,
      "duration": 0.0823,
      "velocity": 88,
      "chip": "ym2612"
    },
    {
      "channel": 3,
      "note": 73,
      "start": 0.7881,
      "duration": 0.0882,
      "velocity": 88,
      "chip": "ym2612"
    },
    {
      "channel": 0,
      "note": 64,
      "start": 0.9004,
      "duration": 0.2001,
      "velocity": 88,
      "chip": "ym2612"
    },
    {
      "channel": 1,
      "note": 44,
      "start": 0.9057,
      "duration": 0.4308,
      "velocity": 92,
      "chip": "ym2612"
    },
    {
      "channel": 3,
      "note": 73,
      "start": 1.0132,
      "duration": 0.0882,
      "velocity": 88,
      "chip": "ym2612"
    },
    {
      "channel": 0,
      "note": 61,
      "start": 1.1358,
      "duration": 0.1999,
      "velocity": 88,
      "chip": "ym2612"
    },
    {
      "channel": 3,
      "note": 80,
      "start": 1.1413,
      "duration": 0.0822,
      "velocity": 88,
      "chip": "ym2612"
    },
    {
      "channel": 0,
      "note": 56,
      "start": 1.3609,
      "duration": 0.2,
      "velocity": 88,
      "chip": "ym2612"
    },
    {
      "channel": 1,
      "note": 32,
      "start": 1.3661,
      "duration": 0.4207,
      "velocity": 92,
      "chip": "ym2612"
    },
    {
      "channel": 3,
      "note": 83,
      "start": 1.3716,
      "duration": 0.0769,
      "velocity": 88,
      "chip": "ym2612"
    },
    {
      "channel": 0,
      "note": 66,
      "start": 1.5861,
      "duration": 0.1999,
      "velocity": 88,
      "chip": "ym2612"
    },
    {
      "channel": 3,
      "note": 80,
      "start": 1.5915,
      "duration": 0.0822,
      "velocity": 88,
      "chip": "ym2612"
    },
    {
      "channel": 0,
      "note": 63,
      "start": 1.811,
      "duration": 0.2001,
      "velocity": 88,
      "chip": "ym2612"
    },
    {
      "channel": 1,
      "note": 32,
      "start": 1.8163,
      "duration": 0.4309,
      "velocity": 92,
      "chip": "ym2612"
    },
    {
      "channel": 0,
      "note": 56,
      "start": 2.0362,
      "duration": 0.2102,
      "velocity": 88,
      "chip": "ym2612"
    },
    {
      "channel": 3,
      "note": 76,
      "start": 2.0417,
      "duration": 0.0821,
      "velocity": 88,
      "chip": "ym2612"
    },
    {
      "channel": 0,
      "note": 64,
      "start": 2.2716,
      "duration": 0.1999,
      "velocity": 88,
      "chip": "ym2612"
    },
    {
      "channel": 1,
      "note": 44,
      "start": 2.2769,
      "duration": 0.3891,
      "velocity": 92,
      "chip": "ym2612"
    },
    {
      "channel": 3,
      "note": 73,
      "start": 2.2824,
      "duration": 0.0768,
      "velocity": 88,
      "chip": "ym2612"
    },
    {
      "channel": 0,
      "note": 61,
      "start": 2.4966,
      "duration": 0.2,
      "velocity": 88,
      "chip": "ym2612"
    },
    {
      "channel": 3,
      "note": 78,
      "start": 2.5022,
      "duration": 0.0822,
      "velocity": 88,
      "chip": "ym2612"
    },
    {
      "channel": 3,
      "note": 73,
      "start": 2.6094,
      "duration": 0.0882,
      "velocity": 88,
      "chip": "ym2612"
    },
    {
      "channel": 0,
      "note": 56,
      "start": 2.7219,
      "duration": 0.1999,
      "velocity": 88,
      "chip": "ym2612"
    },
    {
      "channel": 1,
      "note": 44,
      "start": 2.7271,
      "duration": 0.4205,
      "velocity": 92,
      "chip": "ym2612"
    },
    {
      "channel": 3,
      "note": 73,
      "start": 2.8345,
      "duration": 0.0882,
      "velocity": 88,
      "chip": "ym2612"
    },
    {
      "channel": 0,
      "note": 61,
      "start": 2.9469,
      "duration": 0.2,
      "velocity": 88,
      "chip": "ym2612"
    },
    {
      "channel": 3,
      "note": 80,
      "start": 2.9524,
      "duration": 0.0822,
      "velocity": 88,
      "chip": "ym2612"
    },
    {
      "channel": 0,
      "note": 58,
      "start": 3.1822,
      "duration": 0.2,
      "velocity": 88,
      "chip": "ym2612"
    },
    {
      "channel": 1,
      "note": 32,
      "start": 3.1876,
      "duration": 0.4206,
      "velocity": 92,
      "chip": "ym2612"
    },
    {
      "channel": 3,
      "note": 83,
      "start": 3.1931,
      "duration": 0.0768,
      "velocity": 88,
      "chip": "ym2612"
    },
    {
      "channel": 0,
      "note": 59,
      "start": 3.4073,
      "duration": 0.2001,
      "velocity": 88,
      "chip": "ym2612"
    },
    {
      "channel": 3,
      "note": 80,
      "start": 3.4128,
      "duration": 0.0823,
      "velocity": 88,
      "chip": "ym2612"
    },
    {
      "channel": 0,
      "note": 56,
      "start": 3.6324,
      "duration": 0.2,
      "velocity": 88,
      "chip": "ym2612"
    },
    {
      "channel": 1,
      "note": 32,
      "start": 3.6378,
      "duration": 0.4206,
      "velocity": 92,
      "chip": "ym2612"
    },
    {
      "channel": 0,
      "note": 59,
      "start": 3.8576,
      "duration": 0.2,
      "velocity": 88,
      "chip": "ym2612"
    },
    {
      "channel": 3,
      "note": 76,
      "start": 3.863,
      "duration": 0.0822,
      "velocity": 88,
      "chip": "ym2612"
    },
    {
      "channel": 0,
      "note": 63,
      "start": 4.0827,
      "duration": 0.2102,
      "velocity": 88,
      "chip": "ym2612"
    },
    {
      "channel": 1,
      "note": 44,
      "start": 4.088,
      "duration": 0.3994,
      "velocity": 92,
      "chip": "ym2612"
    },
    {
      "channel": 3,
      "note": 73,
      "start": 4.0935,
      "duration": 0.0769,
      "velocity": 88,
      "chip": "ym2612"
    },
    {
      "channel": 0,
      "note": 56,
      "start": 4.318,
      "duration": 0.2001,
      "velocity": 88,
      "chip": "ym2612"
    },
    {
      "channel": 3,
      "note": 78,
      "start": 4.3235,
      "duration": 0.0822,
      "velocity": 88,
      "chip": "ym2612"
    },
    {
      "channel": 3,
      "note": 73,
      "start": 4.4308,
      "duration": 0.0884,
      "velocity": 88,
      "chip": "ym2612"
    },
    {
      "channel": 0,
      "note": 64,
      "start": 4.5431,
      "duration": 0.2001,
      "velocity": 88,
      "chip": "ym2612"
    },
    {
      "channel": 1,
      "note": 44,
      "start": 4.5484,
      "duration": 0.4208,
      "velocity": 92,
      "chip": "ym2612"
    },
    {
      "channel": 3,
      "note": 73,
      "start": 4.656,
      "duration": 0.0881,
      "velocity": 88,
      "chip": "ym2612"
    },
    {
      "channel": 0,
      "note": 61,
      "start": 4.7683,
      "duration": 0.2001,
      "velocity": 88,
      "chip": "ym2612"
    },
    {
      "channel": 3,
      "note": 80,
      "start": 4.7738,
      "duration": 0.0822,
      "velocity": 88,
      "chip": "ym2612"
    },
    {
      "channel": 0,
      "note": 56,
      "start": 4.9934,
      "duration": 0.2,
      "velocity": 88,
      "chip": "ym2612"
    },
    {
      "channel": 1,
      "note": 32,
      "start": 4.9986,
      "duration": 0.4309,
      "velocity": 92,
      "chip": "ym2612"
    },
    {
      "channel": 3,
      "note": 83,
      "start": 5.0041,
      "duration": 0.077,
      "velocity": 88,
      "chip": "ym2612"
    },
    {
      "channel": 0,
      "note": 66,
      "start": 5.2287,
      "duration": 0.2,
      "velocity": 88,
      "chip": "ym2612"
    },
    {
      "channel": 3,
      "note": 80,
      "start": 5.2341,
      "duration": 0.0822,
      "velocity": 88,
      "chip": "ym2612"
    },
    {
      "channel": 0,
      "note": 63,
      "start": 5.4539,
      "duration": 0.1999,
      "velocity": 88,
      "chip": "ym2612"
    },
    {
      "channel": 1,
      "note": 32,
      "start": 5.4592,
      "duration": 0.4205,
      "velocity": 92,
      "chip": "ym2612"
    },
    {
      "channel": 0,
      "note": 56,
      "start": 5.6789,
      "duration": 0.2,
      "velocity": 88,
      "chip": "ym2612"
    },
    {
      "channel": 3,
      "note": 76,
      "start": 5.6843,
      "duration": 0.0823,
      "velocity": 88,
      "chip": "ym2612"
    },
    {
      "channel": 0,
      "note": 64,
      "start": 5.9041,
      "duration": 0.1999,
      "velocity": 88,
      "chip": "ym2612"
    },
    {
      "channel": 1,
      "note": 44,
      "start": 5.9094,
      "duration": 0.3994,
      "velocity": 92,
      "chip": "ym2612"
    },
    {
      "channel": 3,
      "note": 73,
      "start": 5.9149,
      "duration": 0.0768,
      "velocity": 88,
      "chip": "ym2612"
    },
    {
      "channel": 0,
      "note": 61,
      "start": 6.1292,
      "duration": 0.2102,
      "velocity": 88,
      "chip": "ym2612"
    },
    {
      "channel": 3,
      "note": 78,
      "start": 6.1346,
      "duration": 0.0823,
      "velocity": 88,
      "chip": "ym2612"
    },
    {
      "channel": 3,
      "note": 73,
      "start": 6.2523,
      "duration": 0.0881,
      "velocity": 88,
      "chip": "ym2612"
    },
    {
      "channel": 0,
      "note": 56,
      "start": 6.3645,
      "duration": 0.2001,
      "velocity": 88,
      "chip": "ym2612"
    },
    {
      "channel": 1,
      "note": 44,
      "start": 6.3699,
      "duration": 0.4206,
      "velocity": 92,
      "chip": "ym2612"
    },
    {
      "channel": 3,
      "note": 73,
      "start": 6.4773,
      "duration": 0.0882,
      "velocity": 88,
      "chip": "ym2612"
    },
    {
      "channel": 0,
      "note": 64,
      "start": 6.5898,
      "duration": 0.1999,
      "velocity": 88,
      "chip": "ym2612"
    },
    {
      "channel": 3,
      "note": 80,
      "start": 6.5951,
      "duration": 0.0821,
      "velocity": 88,
      "chip": "ym2612"
    },
    {
      "channel": 0,
      "note": 66,
      "start": 6.8147,
      "duration": 0.2,
      "velocity": 88,
      "chip": "ym2612"
    },
    {
      "channel": 1,
      "note": 32,
      "start": 6.8201,
      "duration": 0.4308,
      "velocity": 92,
      "chip": "ym2612"
    },
    {
      "channel": 3,
      "note": 83,
      "start": 6.8256,
      "duration": 0.077,
      "velocity": 88,
      "chip": "ym2612"
    },
    {
      "channel": 4,
      "note": 68,
      "start": 6.8308,
      "duration": 0.1851,
      "velocity": 92,
      "chip": "ym2612"
    },
    {
      "channel": 0,
      "note": 63,
      "start": 7.0399,
      "duration": 0.2102,
      "velocity": 88,
      "chip": "ym2612"
    },
    {
      "channel": 3,
      "note": 80,
      "start": 7.0454,
      "duration": 0.0822,
      "velocity": 88,
      "chip": "ym2612"
    },
    {
      "channel": 4,
      "note": 68,
      "start": 7.0507,
      "duration": 0.2013,
      "velocity": 92,
      "chip": "ym2612"
    },
    {
      "channel": 0,
      "note": 32,
      "start": 7.2752,
      "duration": 0.4252,
      "velocity": 92,
      "chip": "ym2612"
    },
    {
      "channel": 2,
      "note": 32,
      "start": 7.2815,
      "duration": 0.0711,
      "velocity": 106,
      "chip": "ym2612"
    },
    {
      "channel": 3,
      "note": 56,
      "start": 7.2869,
      "duration": 0.1893,
      "velocity": 88,
      "chip": "ym2612"
    },
    {
      "channel": 4,
      "note": 56,
      "start": 7.2922,
      "duration": 0.0816,
      "velocity": 106,
      "chip": "ym2612"
    },
    {
      "channel": 1,
      "note": 75,
      "start": 7.2992,
      "duration": 0.6583,
      "velocity": 111,
      "chip": "ym2612"
    },
    {
      "channel": 2,
      "note": 35,
      "start": 7.388,
      "duration": 0.0873,
      "velocity": 106,
      "chip": "ym2612"
    },
    {
      "channel": 4,
      "note": 59,
      "start": 7.3934,
      "duration": 0.094,
      "velocity": 106,
      "chip": "ym2612"
    },
    {
      "channel": 2,
      "note": 39,
      "start": 7.5004,
      "duration": 0.0875,
      "velocity": 106,
      "chip": "ym2612"
    },
    {
      "channel": 3,
      "note": 59,
      "start": 7.5058,
      "duration": 0.1963,
      "velocity": 88,
      "chip": "ym2612"
    },
    {
      "channel": 4,
      "note": 63,
      "start": 7.5112,
      "duration": 0.652,
      "velocity": 106,
      "chip": "ym2612"
    },
    {
      "channel": 2,
      "note": 42,
      "start": 7.613,
      "duration": 0.0882,
      "velocity": 106,
      "chip": "ym2612"
    },
    {
      "channel": 0,
      "note": 44,
      "start": 7.7254,
      "duration": 0.4047,
      "velocity": 92,
      "chip": "ym2612"
    },
    {
      "channel": 2,
      "note": 44,
      "start": 7.7308,
      "duration": 0.0822,
      "velocity": 106,
      "chip": "ym2612"
    },
    {
      "channel": 3,
      "note": 63,
      "start": 7.7362,
      "duration": 0.1902,
      "velocity": 88,
      "chip": "ym2612"
    },
    {
      "channel": 2,
      "note": 47,
      "start": 7.8382,
      "duration": 0.0874,
      "velocity": 106,
      "chip": "ym2612"
    },
    {
      "channel": 2,
      "note": 51,
      "start": 7.9507,
      "duration": 0.0875,
      "velocity": 106,
      "chip": "ym2612"
    },
    {
      "channel": 3,
      "note": 56,
      "start": 7.9561,
      "duration": 0.1954,
      "velocity": 88,
      "chip": "ym2612"
    },
    {
      "channel": 1,
      "note": 76,
      "start": 7.9813,
      "duration": 0.6305,
      "velocity": 111,
      "chip": "ym2612"
    },
    {
      "channel": 2,
      "note": 54,
      "start": 8.0632,
      "duration": 0.0875,
      "velocity": 106,
      "chip": "ym2612"
    },
    {
      "channel": 0,
      "note": 44,
      "start": 8.1756,
      "duration": 0.4354,
      "velocity": 92,
      "chip": "ym2612"
    },
    {
      "channel": 2,
      "note": 56,
      "start": 8.181,
      "duration": 0.0823,
      "velocity": 106,
      "chip": "ym2612"
    },
    {
      "channel": 3,
      "note": 64,
      "start": 8.1864,
      "duration": 0.1902,
      "velocity": 88,
      "chip": "ym2612"
    },
    {
      "channel": 2,
      "note": 59,
      "start": 8.2885,
      "duration": 0.0873,
      "velocity": 106,
      "chip": "ym2612"
    },
    {
      "channel": 2,
      "note": 63,
      "start": 8.4111,
      "duration": 0.0875,
      "velocity": 106,
      "chip": "ym2612"
    },
    {
      "channel": 3,
      "note": 61,
      "start": 8.4165,
      "duration": 0.197,
      "velocity": 88,
      "chip": "ym2612"
    },
    {
      "channel": 2,
      "note": 66,
      "start": 8.5238,
      "duration": 0.0889,
      "velocity": 106,
      "chip": "ym2612"
    },
    {
      "channel": 0,
      "note": 32,
      "start": 8.6362,
      "duration": 0.1618,
      "velocity": 92,
      "chip": "ym2612"
    },
    {
      "channel": 1,
      "note": 78,
      "start": 8.6415,
      "duration": 0.1629,
      "velocity": 111,
      "chip": "ym2612"
    },
    {
      "channel": 2,
      "note": 68,
      "start": 8.6468,
      "duration": 0.0283,
      "velocity": 106,
      "chip": "ym2612"
    },
    {
      "channel": 3,
      "note": 56,
      "start": 8.6522,
      "duration": 0.062,
      "velocity": 88,
      "chip": "ym2612"
    },
    {
      "channel": 2,
      "note": 71,
      "start": 8.6864,
      "duration": 0.0275,
      "velocity": 106,
      "chip": "ym2612"
    },
    {
      "channel": 2,
      "note": 75,
      "start": 8.7275,
      "duration": 0.0322,
      "velocity": 106,
      "chip": "ym2612"
    },
    {
      "channel": 3,
      "note": 66,
      "start": 8.7328,
      "duration": 0.0658,
      "velocity": 88,
      "chip": "ym2612"
    },
    {
      "channel": 2,
      "note": 78,
      "start": 8.771,
      "duration": 0.0273,
      "velocity": 106,
      "chip": "ym2612"
    },
    {
      "channel": 0,
      "note": 32,
      "start": 8.8185,
      "duration": 0.4352,
      "velocity": 92,
      "chip": "ym2612"
    },
    {
      "channel": 1,
      "note": 80,
      "start": 8.8238,
      "duration": 0.7165,
      "velocity": 111,
      "chip": "ym2612"
    },
    {
      "channel": 2,
      "note": 32,
      "start": 8.8291,
      "duration": 0.0769,
      "velocity": 106,
      "chip": "ym2612"
    },
    {
      "channel": 3,
      "note": 63,
      "start": 8.8345,
      "duration": 0.1849,
      "velocity": 88,
      "chip": "ym2612"
    },
    {
      "channel": 2,
      "note": 35,
      "start": 8.9311,
      "duration": 0.0875,
      "velocity": 106,
      "chip": "ym2612"
    },
    {
      "channel": 2,
      "note": 39,
      "start": 9.0437,
      "duration": 0.0875,
      "velocity": 106,
      "chip": "ym2612"
    },
    {
      "channel": 3,
      "note": 56,
      "start": 9.049,
      "duration": 0.2065,
      "velocity": 88,
      "chip": "ym2612"
    },
    {
      "channel": 2,
      "note": 42,
      "start": 9.1664,
      "duration": 0.0882,
      "velocity": 106,
      "chip": "ym2612"
    },
    {
      "channel": 0,
      "note": 44,
      "start": 9.2788,
      "duration": 0.3945,
      "velocity": 92,
      "chip": "ym2612"
    },
    {
      "channel": 2,
      "note": 44,
      "start": 9.2843,
      "duration": 0.0822,
      "velocity": 106,
      "chip": "ym2612"
    },
    {
      "channel": 3,
      "note": 64,
      "start": 9.2896,
      "duration": 0.1902,
      "velocity": 88,
      "chip": "ym2612"
    },
    {
      "channel": 2,
      "note": 47,
      "start": 9.3916,
      "duration": 0.0875,
      "velocity": 106,
      "chip": "ym2612"
    },
    {
      "channel": 2,
      "note": 51,
      "start": 9.5042,
      "duration": 0.0926,
      "velocity": 106,
      "chip": "ym2612"
    },
    {
      "channel": 3,
      "note": 61,
      "start": 9.5095,
      "duration": 0.1954,
      "velocity": 88,
      "chip": "ym2612"
    },
    {
      "channel": 1,
      "note": 78,
      "start": 9.5961,
      "duration": 0.5589,
      "velocity": 111,
      "chip": "ym2612"
    },
    {
      "channel": 2,
      "note": 54,
      "start": 9.6167,
      "duration": 0.0874,
      "velocity": 106,
      "chip": "ym2612"
    },
    {
      "channel": 0,
      "note": 44,
      "start": 9.729,
      "duration": 0.4252,
      "velocity": 92,
      "chip": "ym2612"
    },
    {
      "channel": 2,
      "note": 56,
      "start": 9.7345,
      "duration": 0.0822,
      "velocity": 106,
      "chip": "ym2612"
    },
    {
      "channel": 3,
      "note": 66,
      "start": 9.7398,
      "duration": 0.1902,
      "velocity": 88,
      "chip": "ym2612"
    },
    {
      "channel": 2,
      "note": 59,
      "start": 9.8418,
      "duration": 0.0875,
      "velocity": 106,
      "chip": "ym2612"
    },
    {
      "channel": 2,
      "note": 63,
      "start": 9.9544,
      "duration": 0.0874,
      "velocity": 106,
      "chip": "ym2612"
    },
    {
      "channel": 3,
      "note": 64,
      "start": 9.9597,
      "duration": 0.1969,
      "velocity": 88,
      "chip": "ym2612"
    },
    {
      "channel": 2,
      "note": 66,
      "start": 10.0669,
      "duration": 0.0889,
      "velocity": 106,
      "chip": "ym2612"
    },
    {
      "channel": 0,
      "note": 32,
      "start": 10.1895,
      "duration": 0.1621,
      "velocity": 92,
      "chip": "ym2612"
    },
    {
      "channel": 1,
      "note": 76,
      "start": 10.1948,
      "duration": 0.1537,
      "velocity": 111,
      "chip": "ym2612"
    },
    {
      "channel": 2,
      "note": 68,
      "start": 10.2002,
      "duration": 0.0282,
      "velocity": 106,
      "chip": "ym2612"
    },
    {
      "channel": 3,
      "note": 63,
      "start": 10.2056,
      "duration": 0.0613,
      "velocity": 88,
      "chip": "ym2612"
    },
    {
      "channel": 2,
      "note": 71,
      "start": 10.2398,
      "duration": 0.0269,
      "velocity": 106,
      "chip": "ym2612"
    },
    {
      "channel": 2,
      "note": 75,
      "start": 10.2805,
      "duration": 0.0325,
      "velocity": 106,
      "chip": "ym2612"
    },
    {
      "channel": 3,
      "note": 61,
      "start": 10.2859,
      "duration": 0.0663,
      "velocity": 88,
      "chip": "ym2612"
    },
    {
      "channel": 2,
      "note": 78,
      "start": 10.3246,
      "duration": 0.0273,
      "velocity": 106,
      "chip": "ym2612"
    },
    {
      "channel": 0,
      "note": 32,
      "start": 10.3714,
      "duration": 0.4252,
      "velocity": 92,
      "chip": "ym2612"
    },
    {
      "channel": 2,
      "note": 35,
      "start": 10.3774,
      "duration": 0.0817,
      "velocity": 106,
      "chip": "ym2612"
    },
    {
      "channel": 3,
      "note": 56,
      "start": 10.3828,
      "duration": 0.1896,
      "velocity": 88,
      "chip": "ym2612"
    },
    {
      "channel": 4,
      "note": 54,
      "start": 10.3881,
      "duration": 0.0821,
      "velocity": 106,
      "chip": "ym2612"
    },
    {
      "channel": 1,
      "note": 75,
      "start": 10.3943,
      "duration": 0.607,
      "velocity": 111,
      "chip": "ym2612"
    },
    {
      "channel": 2,
      "note": 39,
      "start": 10.4843,
      "duration": 0.0874,
      "velocity": 106,
      "chip": "ym2612"
    },
    {
      "channel": 4,
      "note": 58,
      "start": 10.4896,
      "duration": 0.094,
      "velocity": 106,
      "chip": "ym2612"
    },
    {
      "channel": 2,
      "note": 42,
      "start": 10.5967,
      "duration": 0.0875,
      "velocity": 106,
      "chip": "ym2612"
    },
    {
      "channel": 3,
      "note": 59,
      "start": 10.6022,
      "duration": 0.1961,
      "velocity": 88,
      "chip": "ym2612"
    },
    {
      "channel": 4,
      "note": 63,
      "start": 10.6074,
      "duration": 0.6623,
      "velocity": 106,
      "chip": "ym2612"
    },
    {
      "channel": 2,
      "note": 44,
      "start": 10.7093,
      "duration": 0.0882,
      "velocity": 106,
      "chip": "ym2612"
    },
    {
      "channel": 0,
      "note": 44,
      "start": 10.8217,
      "duration": 0.4047,
      "velocity": 92,
      "chip": "ym2612"
    },
    {
      "channel": 2,
      "note": 47,
      "start": 10.827,
      "duration": 0.0822,
      "velocity": 106,
      "chip": "ym2612"
    },
    {
      "channel": 3,
      "note": 63,
      "start": 10.8325,
      "duration": 0.2005,
      "velocity": 88,
      "chip": "ym2612"
    },
    {
      "channel": 2,
      "note": 49,
      "start": 10.9446,
      "duration": 0.0875,
      "velocity": 106,
      "chip": "ym2612"
    },
    {
      "channel": 1,
      "note": 78,
      "start": 11.0163,
      "duration": 0.6706,
      "velocity": 111,
      "chip": "ym2612"
    },
    {
      "channel": 2,
      "note": 51,
      "start": 11.0572,
      "duration": 0.0875,
      "velocity": 106,
      "chip": "ym2612"
    },
    {
      "channel": 3,
      "note": 56,
      "start": 11.0624,
      "duration": 0.1956,
      "velocity": 88,
      "chip": "ym2612"
    },
    {
      "channel": 2,
      "note": 54,
      "start": 11.1698,
      "duration": 0.0874,
      "velocity": 106,
      "chip": "ym2612"
    },
    {
      "channel": 0,
      "note": 44,
      "start": 11.2822,
      "duration": 0.4251,
      "velocity": 92,
      "chip": "ym2612"
    },
    {
      "channel": 2,
      "note": 56,
      "start": 11.2876,
      "duration": 0.0822,
      "velocity": 106,
      "chip": "ym2612"
    },
    {
      "channel": 3,
      "note": 64,
      "start": 11.2929,
      "duration": 0.1903,
      "velocity": 88,
      "chip": "ym2612"
    },
    {
      "channel": 2,
      "note": 59,
      "start": 11.3948,
      "duration": 0.0876,
      "velocity": 106,
      "chip": "ym2612"
    },
    {
      "channel": 2,
      "note": 61,
      "start": 11.5074,
      "duration": 0.0875,
      "velocity": 106,
      "chip": "ym2612"
    },
    {
      "channel": 3,
      "note": 61,
      "start": 11.5127,
      "duration": 0.1963,
      "velocity": 88,
      "chip": "ym2612"
    },
    {
      "channel": 2,
      "note": 63,
      "start": 11.6201,
      "duration": 0.0881,
      "velocity": 106,
      "chip": "ym2612"
    },
    {
      "channel": 0,
      "note": 32,
      "start": 11.7325,
      "duration": 0.1719,
      "velocity": 92,
      "chip": "ym2612"
    },
    {
      "channel": 1,
      "note": 80,
      "start": 11.7378,
      "duration": 0.1732,
      "velocity": 111,
      "chip": "ym2612"
    },
    {
      "channel": 2,
      "note": 66,
      "start": 11.7431,
      "duration": 0.0287,
      "velocity": 106,
      "chip": "ym2612"
    },
    {
      "channel": 3,
      "note": 56,
      "start": 11.7484,
      "duration": 0.0622,
      "velocity": 88,
      "chip": "ym2612"
    },
    {
      "channel": 2,
      "note": 68,
      "start": 11.7828,
      "duration": 0.0276,
      "velocity": 106,
      "chip": "ym2612"
    },
    {
      "channel": 2,
      "note": 71,
      "start": 11.8333,
      "duration": 0.0326,
      "velocity": 106,
      "chip": "ym2612"
    },
    {
      "channel": 3,
      "note": 66,
      "start": 11.8386,
      "duration": 0.0664,
      "velocity": 88,
      "chip": "ym2612"
    },
    {
      "channel": 2,
      "note": 73,
      "start": 11.8773,
      "duration": 0.0275,
      "velocity": 106,
      "chip": "ym2612"
    },
    {
      "channel": 0,
      "note": 32,
      "start": 11.9249,
      "duration": 0.4252,
      "velocity": 92,
      "chip": "ym2612"
    },
    {
      "channel": 1,
      "note": 78,
      "start": 11.9302,
      "duration": 0.6553,
      "velocity": 111,
      "chip": "ym2612"
    },
    {
      "channel": 2,
      "note": 35,
      "start": 11.9356,
      "duration": 0.0769,
      "velocity": 106,
      "chip": "ym2612"
    },
    {
      "channel": 3,
      "note": 63,
      "start": 11.9409,
      "duration": 0.185,
      "velocity": 88,
      "chip": "ym2612"
    },
    {
      "channel": 2,
      "note": 39,
      "start": 12.0376,
      "duration": 0.0875,
      "velocity": 106,
      "chip": "ym2612"
    },
    {
      "channel": 2,
      "note": 42,
      "start": 12.1503,
      "duration": 0.0874,
      "velocity": 106,
      "chip": "ym2612"
    },
    {
      "channel": 3,
      "note": 56,
      "start": 12.1556,
      "duration": 0.1962,
      "velocity": 88,
      "chip": "ym2612"
    },
    {
      "channel": 2,
      "note": 44,
      "start": 12.2627,
      "duration": 0.0882,
      "velocity": 106,
      "chip": "ym2612"
    },
    {
      "channel": 0,
      "note": 44,
      "start": 12.3751,
      "duration": 0.4047,
      "velocity": 92,
      "chip": "ym2612"
    },
    {
      "channel": 2,
      "note": 47,
      "start": 12.3805,
      "duration": 0.0823,
      "velocity": 106,
      "chip": "ym2612"
    },
    {
      "channel": 3,
      "note": 64,
      "start": 12.386,
      "duration": 0.1902,
      "velocity": 88,
      "chip": "ym2612"
    },
    {
      "channel": 2,
      "note": 49,
      "start": 12.4879,
      "duration": 0.0875,
      "velocity": 106,
      "chip": "ym2612"
    },
    {
      "channel": 2,
      "note": 51,
      "start": 12.6007,
      "duration": 0.0872,
      "velocity": 106,
      "chip": "ym2612"
    },
    {
      "channel": 3,
      "note": 59,
      "start": 12.606,
      "duration": 0.2055,
      "velocity": 88,
      "chip": "ym2612"
    },
    {
      "channel": 1,
      "note": 76,
      "start": 12.6516,
      "duration": 0.5785,
      "velocity": 111,
      "chip": "ym2612"
    },
    {
      "channel": 2,
      "note": 54,
      "start": 12.7232,
      "duration": 0.0875,
      "velocity": 106,
      "chip": "ym2612"
    },
    {
      "channel": 0,
      "note": 44,
      "start": 12.8357,
      "duration": 0.4251,
      "velocity": 92,
      "chip": "ym2612"
    },
    {
      "channel": 2,
      "note": 56,
      "start": 12.841,
      "duration": 0.0822,
      "velocity": 106,
      "chip": "ym2612"
    },
    {
      "channel": 3,
      "note": 63,
      "start": 12.8464,
      "duration": 0.1902,
      "velocity": 88,
      "chip": "ym2612"
    },
    {
      "channel": 2,
      "note": 59,
      "start": 12.9484,
      "duration": 0.0873,
      "velocity": 106,
      "chip": "ym2612"
    },
    {
      "channel": 2,
      "note": 61,
      "start": 13.0609,
      "duration": 0.0875,
      "velocity": 106,
      "chip": "ym2612"
    },
    {
      "channel": 3,
      "note": 58,
      "start": 13.0662,
      "duration": 0.1962,
      "velocity": 88,
      "chip": "ym2612"
    },
    {
      "channel": 2,
      "note": 63,
      "start": 13.1734,
      "duration": 0.0882,
      "velocity": 106,
      "chip": "ym2612"
    },
    {
      "channel": 0,
      "note": 32,
      "start": 13.2859,
      "duration": 0.1619,
      "velocity": 92,
      "chip": "ym2612"
    },
    {
      "channel": 1,
      "note": 75,
      "start": 13.2912,
      "duration": 0.1728,
      "velocity": 111,
      "chip": "ym2612"
    },
    {
      "channel": 2,
      "note": 66,
      "start": 13.2965,
      "duration": 0.0286,
      "velocity": 106,
      "chip": "ym2612"
    },
    {
      "channel": 3,
      "note": 61,
      "start": 13.3019,
      "duration": 0.0626,
      "velocity": 88,
      "chip": "ym2612"
    },
    {
      "channel": 2,
      "note": 68,
      "start": 13.3368,
      "duration": 0.0274,
      "velocity": 106,
      "chip": "ym2612"
    },
    {
      "channel": 2,
      "note": 71,
      "start": 13.3775,
      "duration": 0.032,
      "velocity": 106,
      "chip": "ym2612"
    },
    {
      "channel": 3,
      "note": 59,
      "start": 13.3829,
      "duration": 0.0654,
      "velocity": 88,
      "chip": "ym2612"
    },
    {
      "channel": 2,
      "note": 73,
      "start": 13.421,
      "duration": 0.0271,
      "velocity": 106,
      "chip": "ym2612"
    },
    {
      "channel": 0,
      "note": 32,
      "start": 13.4781,
      "duration": 0.4252,
      "velocity": 92,
      "chip": "ym2612"
    },
    {
      "channel": 1,
      "note": 73,
      "start": 13.4835,
      "duration": 0.6963,
      "velocity": 111,
      "chip": "ym2612"
    },
    {
      "channel": 2,
      "note": 33,
      "start": 13.4889,
      "duration": 0.0769,
      "velocity": 106,
      "chip": "ym2612"
    },
    {
      "channel": 3,
      "note": 56,
      "start": 13.4941,
      "duration": 0.185,
      "velocity": 88,
      "chip": "ym2612"
    },
    {
      "channel": 4,
      "note": 52,
      "start": 13.4995,
      "duration": 0.0774,
      "velocity": 106,
      "chip": "ym2612"
    },
    {
      "channel": 2,
      "note": 37,
      "start": 13.5908,
      "duration": 0.0875,
      "velocity": 106,
      "chip": "ym2612"
    },
    {
      "channel": 4,
      "note": 56,
      "start": 13.5963,
      "duration": 0.094,
      "velocity": 106,
      "chip": "ym2612"
    },
    {
      "channel": 2,
      "note": 40,
      "start": 13.7034,
      "duration": 0.0875,
      "velocity": 106,
      "chip": "ym2612"
    },
    {
      "channel": 3,
      "note": 59,
      "start": 13.7087,
      "duration": 0.1963,
      "velocity": 88,
      "chip": "ym2612"
    },
    {
      "channel": 4,
      "note": 61,
      "start": 13.7141,
      "duration": 1.3,
      "velocity": 106,
      "chip": "ym2612"
    },
    {
      "channel": 2,
      "note": 44,
      "start": 13.8161,
      "duration": 0.0881,
      "velocity": 106,
      "chip": "ym2612"
    },
    {
      "channel": 0,
      "note": 44,
      "start": 13.9284,
      "duration": 0.4047,
      "velocity": 92,
      "chip": "ym2612"
    },
    {
      "channel": 2,
      "note": 47,
      "start": 13.9338,
      "duration": 0.0822,
      "velocity": 106,
      "chip": "ym2612"
    },
    {
      "channel": 3,
      "note": 63,
      "start": 13.9392,
      "duration": 0.1903,
      "velocity": 88,
      "chip": "ym2612"
    },
    {
      "channel": 2,
      "note": 52,
      "start": 14.0411,
      "duration": 0.0875,
      "velocity": 106,
      "chip": "ym2612"
    },
    {
      "channel": 2,
      "note": 56,
      "start": 14.1536,
      "duration": 0.0875,
      "velocity": 106,
      "chip": "ym2612"
    },
    {
      "channel": 3,
      "note": 56,
      "start": 14.1589,
      "duration": 0.1956,
      "velocity": 88,
      "chip": "ym2612"
    },
    {
      "channel": 1,
      "note": 75,
      "start": 14.2047,
      "duration": 0.6203,
      "velocity": 111,
      "chip": "ym2612"
    },
    {
      "channel": 2,
      "note": 59,
      "start": 14.2663,
      "duration": 0.0874,
      "velocity": 106,
      "chip": "ym2612"
    },
    {
      "channel": 0,
      "note": 44,
      "start": 14.3786,
      "duration": 0.4354,
      "velocity": 92,
      "chip": "ym2612"
    },
    {
      "channel": 2,
      "note": 64,
      "start": 14.3841,
      "duration": 0.0821,
      "velocity": 106,
      "chip": "ym2612"
    },
    {
      "channel": 3,
      "note": 64,
      "start": 14.3894,
      "duration": 0.2004,
      "velocity": 88,
      "chip": "ym2612"
    },
    {
      "channel": 2,
      "note": 68,
      "start": 14.5015,
      "duration": 0.0875,
      "velocity": 106,
      "chip": "ym2612"
    },
    {
      "channel": 2,
      "note": 71,
      "start": 14.6142,
      "duration": 0.0874,
      "velocity": 106,
      "chip": "ym2612"
    },
    {
      "channel": 3,
      "note": 61,
      "start": 14.6195,
      "duration": 0.1962,
      "velocity": 88,
      "chip": "ym2612"
    },
    {
      "channel": 2,
      "note": 73,
      "start": 14.7266,
      "duration": 0.0882,
      "velocity": 106,
      "chip": "ym2612"
    },
    {
      "channel": 0,
      "note": 32,
      "start": 14.8391,
      "duration": 0.1605,
      "velocity": 92,
      "chip": "ym2612"
    },
    {
      "channel": 1,
      "note": 76,
      "start": 14.8443,
      "duration": 0.1662,
      "velocity": 111,
      "chip": "ym2612"
    },
    {
      "channel": 2,
      "note": 76,
      "start": 14.8498,
      "duration": 0.0291,
      "velocity": 106,
      "chip": "ym2612"
    },
    {
      "channel": 3,
      "note": 56,
      "start": 14.8551,
      "duration": 0.0588,
      "velocity": 88,
      "chip": "ym2612"
    },
    {
      "channel": 3,
      "note": 66,
      "start": 14.9315,
      "duration": 0.069,
      "velocity": 88,
      "chip": "ym2612"
    },
    {
      "channel": 0,
      "note": 32,
      "start": 15.0246,
      "duration": 0.4354,
      "velocity": 92,
      "chip": "ym2612"
    },
    {
      "channel": 1,
      "note": 75,
      "start": 15.0299,
      "duration": 0.8606,
      "velocity": 111,
      "chip": "ym2612"
    },
    {
      "channel": 2,
      "note": 33,
      "start": 15.0353,
      "duration": 0.0769,
      "velocity": 106,
      "chip": "ym2612"
    },
    {
      "channel": 3,
      "note": 63,
      "start": 15.0406,
      "duration": 0.1851,
      "velocity": 88,
      "chip": "ym2612"
    },
    {
      "channel": 4,
      "note": 59,
      "start": 15.0495,
      "duration": 0.8739,
      "velocity": 106,
      "chip": "ym2612"
    },
    {
      "channel": 2,
      "note": 37,
      "start": 15.1373,
      "duration": 0.0875,
      "velocity": 106,
      "chip": "ym2612"
    },
    {
      "channel": 2,
      "note": 40,
      "start": 15.2601,
      "duration": 0.0875,
      "velocity": 106,
      "chip": "ym2612"
    },
    {
      "channel": 3,
      "note": 56,
      "start": 15.2655,
      "duration": 0.1961,
      "velocity": 88,
      "chip": "ym2612"
    },
    {
      "channel": 2,
      "note": 44,
      "start": 15.3727,
      "duration": 0.0882,
      "velocity": 106,
      "chip": "ym2612"
    },
    {
      "channel": 0,
      "note": 44,
      "start": 15.4852,
      "duration": 0.4046,
      "velocity": 92,
      "chip": "ym2612"
    },
    {
      "channel": 2,
      "note": 47,
      "start": 15.4905,
      "duration": 0.0822,
      "velocity": 106,
      "chip": "ym2612"
    },
    {
      "channel": 3,
      "note": 64,
      "start": 15.4959,
      "duration": 0.1902,
      "velocity": 88,
      "chip": "ym2612"
    },
    {
      "channel": 2,
      "note": 52,
      "start": 15.5978,
      "duration": 0.0875,
      "velocity": 106,
      "chip": "ym2612"
    },
    {
      "channel": 2,
      "note": 56,
      "start": 15.7104,
      "duration": 0.0875,
      "velocity": 106,
      "chip": "ym2612"
    },
    {
      "channel": 3,
      "note": 61,
      "start": 15.7157,
      "duration": 0.1955,
      "velocity": 88,
      "chip": "ym2612"
    },
    {
      "channel": 2,
      "note": 59,
      "start": 15.8229,
      "duration": 0.0875,
      "velocity": 106,
      "chip": "ym2612"
    },
    {
      "channel": 0,
      "note": 44,
      "start": 15.9354,
      "duration": 0.4353,
      "velocity": 92,
      "chip": "ym2612"
    },
    {
      "channel": 1,
      "note": 71,
      "start": 15.9407,
      "duration": 0.6263,
      "velocity": 111,
      "chip": "ym2612"
    },
    {
      "channel": 2,
      "note": 64,
      "start": 15.946,
      "duration": 0.0769,
      "velocity": 106,
      "chip": "ym2612"
    },
    {
      "channel": 3,
      "note": 56,
      "start": 15.9514,
      "duration": 0.1849,
      "velocity": 88,
      "chip": "ym2612"
    },
    {
      "channel": 4,
      "note": 54,
      "start": 15.9567,
      "duration": 0.5631,
      "velocity": 106,
      "chip": "ym2612"
    },
    {
      "channel": 2,
      "note": 68,
      "start": 16.0481,
      "duration": 0.0874,
      "velocity": 106,
      "chip": "ym2612"
    },
    {
      "channel": 2,
      "note": 71,
      "start": 16.1606,
      "duration": 0.0876,
      "velocity": 106,
      "chip": "ym2612"
    },
    {
      "channel": 3,
      "note": 61,
      "start": 16.166,
      "duration": 0.2064,
      "velocity": 88,
      "chip": "ym2612"
    },
    {
      "channel": 2,
      "note": 73,
      "start": 16.2835,
      "duration": 0.0881,
      "velocity": 106,
      "chip": "ym2612"
    },
    {
      "channel": 0,
      "note": 32,
      "start": 16.3957,
      "duration": 0.1601,
      "velocity": 92,
      "chip": "ym2612"
    },
    {
      "channel": 2,
      "note": 76,
      "start": 16.4012,
      "duration": 0.0305,
      "velocity": 106,
      "chip": "ym2612"
    },
    {
      "channel": 3,
      "note": 58,
      "start": 16.4066,
      "duration": 0.0602,
      "velocity": 88,
      "chip": "ym2612"
    },
    {
      "channel": 3,
      "note": 59,
      "start": 16.488,
      "duration": 0.0688,
      "velocity": 88,
      "chip": "ym2612"
    },
    {
      "channel": 0,
      "note": 32,
      "start": 16.5808,
      "duration": 0.4252,
      "velocity": 92,
      "chip": "ym2612"
    },
    {
      "channel": 1,
      "note": 75,
      "start": 16.5862,
      "duration": 2.9679,
      "velocity": 111,
      "chip": "ym2612"
    },
    {
      "channel": 2,
      "note": 32,
      "start": 16.5916,
      "duration": 0.0769,
      "velocity": 106,
      "chip": "ym2612"
    },
    {
      "channel": 3,
      "note": 56,
      "start": 16.5968,
      "duration": 0.1851,
      "velocity": 88,
      "chip": "ym2612"
    },
    {
      "channel": 4,
      "note": 47,
      "start": 16.6023,
      "duration": 0.0773,
      "velocity": 106,
      "chip": "ym2612"
    },
    {
      "channel": 2,
      "note": 35,
      "start": 16.6935,
      "duration": 0.0875,
      "velocity": 106,
      "chip": "ym2612"
    },
    {
      "channel": 4,
      "note": 51,
      "start": 16.6989,
      "duration": 0.094,
      "velocity": 106,
      "chip": "ym2612"
    },
    {
      "channel": 2,
      "note": 39,
      "start": 16.8061,
      "duration": 0.0875,
      "velocity": 106,
      "chip": "ym2612"
    },
    {
      "channel": 3,
      "note": 59,
      "start": 16.8114,
      "duration": 0.1962,
      "velocity": 88,
      "chip": "ym2612"
    },
    {
      "channel": 4,
      "note": 56,
      "start": 16.8169,
      "duration": 0.6623,
      "velocity": 106,
      "chip": "ym2612"
    },
    {
      "channel": 2,
      "note": 42,
      "start": 16.9188,
      "duration": 0.0881,
      "velocity": 106,
      "chip": "ym2612"
    },
    {
      "channel": 0,
      "note": 44,
      "start": 17.0413,
      "duration": 0.3945,
      "velocity": 92,
      "chip": "ym2612"
    },
    {
      "channel": 2,
      "note": 44,
      "start": 17.0466,
      "duration": 0.0823,
      "velocity": 106,
      "chip": "ym2612"
    },
    {
      "channel": 3,
      "note": 63,
      "start": 17.0521,
      "duration": 0.1902,
      "velocity": 88,
      "chip": "ym2612"
    },
    {
      "channel": 2,
      "note": 47,
      "start": 17.1541,
      "duration": 0.0873,
      "velocity": 106,
      "chip": "ym2612"
    },
    {
      "channel": 2,
      "note": 51,
      "start": 17.2667,
      "duration": 0.0874,
      "velocity": 106,
      "chip": "ym2612"
    },
    {
      "channel": 3,
      "note": 56,
      "start": 17.272,
      "duration": 0.1956,
      "velocity": 88,
      "chip": "ym2612"
    },
    {
      "channel": 2,
      "note": 54,
      "start": 17.3792,
      "duration": 0.0876,
      "velocity": 106,
      "chip": "ym2612"
    },
    {
      "channel": 0,
      "note": 44,
      "start": 17.4915,
      "duration": 0.4253,
      "velocity": 92,
      "chip": "ym2612"
    },
    {
      "channel": 2,
      "note": 56,
      "start": 17.4969,
      "duration": 0.0823,
      "velocity": 106,
      "chip": "ym2612"
    },
    {
      "channel": 3,
      "note": 64,
      "start": 17.5023,
      "duration": 0.1902,
      "velocity": 88,
      "chip": "ym2612"
    },
    {
      "channel": 2,
      "note": 59,
      "start": 17.6044,
      "duration": 0.0874,
      "velocity": 106,
      "chip": "ym2612"
    },
    {
      "channel": 2,
      "note": 61,
      "start": 17.7169,
      "duration": 0.0874,
      "velocity": 106,
      "chip": "ym2612"
    },
    {
      "channel": 3,
      "note": 61,
      "start": 17.7222,
      "duration": 0.1962,
      "velocity": 88,
      "chip": "ym2612"
    },
    {
      "channel": 2,
      "note": 63,
      "start": 17.8294,
      "duration": 0.0883,
      "velocity": 106,
      "chip": "ym2612"
    },
    {
      "channel": 0,
      "note": 32,
      "start": 17.9417,
      "duration": 0.1726,
      "velocity": 92,
      "chip": "ym2612"
    },
    {
      "channel": 2,
      "note": 66,
      "start": 17.9472,
      "duration": 0.0302,
      "velocity": 106,
      "chip": "ym2612"
    },
    {
      "channel": 3,
      "note": 56,
      "start": 17.9526,
      "duration": 0.0669,
      "velocity": 88,
      "chip": "ym2612"
    },
    {
      "channel": 2,
      "note": 68,
      "start": 17.9916,
      "duration": 0.0272,
      "velocity": 106,
      "chip": "ym2612"
    },
    {
      "channel": 2,
      "note": 71,
      "start": 18.0433,
      "duration": 0.0322,
      "velocity": 106,
      "chip": "ym2612"
    },
    {
      "channel": 3,
      "note": 66,
      "start": 18.0486,
      "duration": 0.0663,
      "velocity": 88,
      "chip": "ym2612"
    },
    {
      "channel": 2,
      "note": 75,
      "start": 18.0872,
      "duration": 0.0274,
      "velocity": 106,
      "chip": "ym2612"
    },
    {
      "channel": 0,
      "note": 32,
      "start": 18.135,
      "duration": 0.4251,
      "velocity": 92,
      "chip": "ym2612"
    },
    {
      "channel": 2,
      "note": 32,
      "start": 18.1404,
      "duration": 0.0821,
      "velocity": 106,
      "chip": "ym2612"
    },
    {
      "channel": 3,
      "note": 63,
      "start": 18.1458,
      "duration": 0.1901,
      "velocity": 88,
      "chip": "ym2612"
    },
    {
      "channel": 2,
      "note": 35,
      "start": 18.2477,
      "duration": 0.0875,
      "velocity": 106,
      "chip": "ym2612"
    },
    {
      "channel": 2,
      "note": 39,
      "start": 18.3602,
      "duration": 0.0875,
      "velocity": 106,
      "chip": "ym2612"
    },
    {
      "channel": 3,
      "note": 56,
      "start": 18.3655,
      "duration": 0.1963,
      "velocity": 88,
      "chip": "ym2612"
    },
    {
      "channel": 2,
      "note": 42,
      "start": 18.4727,
      "duration": 0.0882,
      "velocity": 106,
      "chip": "ym2612"
    },
    {
      "channel": 0,
      "note": 44,
      "start": 18.5853,
      "duration": 0.4046,
      "velocity": 92,
      "chip": "ym2612"
    },
    {
      "channel": 2,
      "note": 44,
      "start": 18.5906,
      "duration": 0.0822,
      "velocity": 106,
      "chip": "ym2612"
    },
    {
      "channel": 3,
      "note": 64,
      "start": 18.5959,
      "duration": 0.1902,
      "velocity": 88,
      "chip": "ym2612"
    },
    {
      "channel": 2,
      "note": 47,
      "start": 18.6978,
      "duration": 0.0875,
      "velocity": 106,
      "chip": "ym2612"
    },
    {
      "channel": 2,
      "note": 51,
      "start": 18.8207,
      "duration": 0.0874,
      "velocity": 106,
      "chip": "ym2612"
    },
    {
      "channel": 3,
      "note": 61,
      "start": 18.826,
      "duration": 0.1955,
      "velocity": 88,
      "chip": "ym2612"
    },
    {
      "channel": 2,
      "note": 54,
      "start": 18.9333,
      "duration": 0.0874,
      "velocity": 106,
      "chip": "ym2612"
    },
    {
      "channel": 0,
      "note": 44,
      "start": 19.0456,
      "duration": 0.4251,
      "velocity": 92,
      "chip": "ym2612"
    },
    {
      "channel": 2,
      "note": 56,
      "start": 19.0511,
      "duration": 0.0821,
      "velocity": 106,
      "chip": "ym2612"
    },
    {
      "channel": 3,
      "note": 56,
      "start": 19.0564,
      "duration": 0.1901,
      "velocity": 88,
      "chip": "ym2612"
    },
    {
      "channel": 2,
      "note": 59,
      "start": 19.1583,
      "duration": 0.0875,
      "velocity": 106,
      "chip": "ym2612"
    },
    {
      "channel": 2,
      "note": 61,
      "start": 19.271,
      "duration": 0.0873,
      "velocity": 106,
      "chip": "ym2612"
    },
    {
      "channel": 3,
      "note": 64,
      "start": 19.2763,
      "duration": 0.1962,
      "velocity": 88,
      "chip": "ym2612"
    },
    {
      "channel": 2,
      "note": 63,
      "start": 19.3835,
      "duration": 0.0881,
      "velocity": 106,
      "chip": "ym2612"
    },
    {
      "channel": 0,
      "note": 32,
      "start": 19.4958,
      "duration": 0.17,
      "velocity": 92,
      "chip": "ym2612"
    },
    {
      "channel": 2,
      "note": 66,
      "start": 19.5013,
      "duration": 0.0301,
      "velocity": 106,
      "chip": "ym2612"
    },
    {
      "channel": 3,
      "note": 66,
      "start": 19.5066,
      "duration": 0.0639,
      "velocity": 88,
      "chip": "ym2612"
    },
    {
      "channel": 2,
      "note": 68,
      "start": 19.5428,
      "duration": 0.0275,
      "velocity": 106,
      "chip": "ym2612"
    },
    {
      "channel": 2,
      "note": 71,
      "start": 19.5873,
      "duration": 0.0331,
      "velocity": 106,
      "chip": "ym2612"
    },
    {
      "channel": 3,
      "note": 63,
      "start": 19.5927,
      "duration": 0.075,
      "velocity": 88,
      "chip": "ym2612"
    },
    {
      "channel": 2,
      "note": 75,
      "start": 19.6344,
      "duration": 0.0324,
      "velocity": 106,
      "chip": "ym2612"
    },
    {
      "channel": 0,
      "note": 32,
      "start": 19.691,
      "duration": 0.4251,
      "velocity": 92,
      "chip": "ym2612"
    },
    {
      "channel": 1,
      "note": 75,
      "start": 19.6962,
      "duration": 0.6043,
      "velocity": 111,
      "chip": "ym2612"
    },
    {
      "channel": 2,
      "note": 32,
      "start": 19.7017,
      "duration": 0.0768,
      "velocity": 106,
      "chip": "ym2612"
    },
    {
      "channel": 3,
      "note": 56,
      "start": 19.707,
      "duration": 0.185,
      "velocity": 88,
      "chip": "ym2612"
    },
    {
      "channel": 4,
      "note": 56,
      "start": 19.7123,
      "duration": 0.0774,
      "velocity": 106,
      "chip": "ym2612"
    },
    {
      "channel": 2,
      "note": 35,
      "start": 19.8037,
      "duration": 0.0874,
      "velocity": 106,
      "chip": "ym2612"
    },
    {
      "channel": 4,
      "note": 59,
      "start": 19.8091,
      "duration": 0.0939,
      "velocity": 106,
      "chip": "ym2612"
    },
    {
      "channel": 2,
      "note": 39,
      "start": 19.9162,
      "duration": 0.0875,
      "velocity": 106,
      "chip": "ym2612"
    },
    {
      "channel": 3,
      "note": 59,
      "start": 19.9216,
      "duration": 0.1962,
      "velocity": 88,
      "chip": "ym2612"
    },
    {
      "channel": 4,
      "note": 63,
      "start": 19.9269,
      "duration": 0.662,
      "velocity": 106,
      "chip": "ym2612"
    },
    {
      "channel": 2,
      "note": 42,
      "start": 20.0288,
      "duration": 0.0883,
      "velocity": 106,
      "chip": "ym2612"
    },
    {
      "channel": 0,
      "note": 44,
      "start": 20.1411,
      "duration": 0.4047,
      "velocity": 92,
      "chip": "ym2612"
    },
    {
      "channel": 2,
      "note": 44,
      "start": 20.1465,
      "duration": 0.0823,
      "velocity": 106,
      "chip": "ym2612"
    },
    {
      "channel": 3,
      "note": 63,
      "start": 20.152,
      "duration": 0.1902,
      "velocity": 88,
      "chip": "ym2612"
    },
    {
      "channel": 2,
      "note": 47,
      "start": 20.254,
      "duration": 0.0873,
      "velocity": 106,
      "chip": "ym2612"
    },
    {
      "channel": 1,
      "note": 76,
      "start": 20.3254,
      "duration": 0.7124,
      "velocity": 111,
      "chip": "ym2612"
    },
    {
      "channel": 2,
      "note": 51,
      "start": 20.3664,
      "duration": 0.0875,
      "velocity": 106,
      "chip": "ym2612"
    },
    {
      "channel": 3,
      "note": 56,
      "start": 20.3718,
      "duration": 0.1956,
      "velocity": 88,
      "chip": "ym2612"
    },
    {
      "channel": 2,
      "note": 54,
      "start": 20.479,
      "duration": 0.0875,
      "velocity": 106,
      "chip": "ym2612"
    },
    {
      "channel": 0,
      "note": 44,
      "start": 20.6017,
      "duration": 0.4251,
      "velocity": 92,
      "chip": "ym2612"
    },
    {
      "channel": 2,
      "note": 56,
      "start": 20.6071,
      "duration": 0.0821,
      "velocity": 106,
      "chip": "ym2612"
    },
    {
      "channel": 3,
      "note": 64,
      "start": 20.6124,
      "duration": 0.1902,
      "velocity": 88,
      "chip": "ym2612"
    },
    {
      "channel": 2,
      "note": 59,
      "start": 20.7144,
      "duration": 0.0875,
      "velocity": 106,
      "chip": "ym2612"
    },
    {
      "channel": 2,
      "note": 63,
      "start": 20.8269,
      "duration": 0.0875,
      "velocity": 106,
      "chip": "ym2612"
    },
    {
      "channel": 3,
      "note": 61,
      "start": 20.8322,
      "duration": 0.1963,
      "velocity": 88,
      "chip": "ym2612"
    },
    {
      "channel": 2,
      "note": 66,
      "start": 20.9395,
      "duration": 0.0882,
      "velocity": 106,
      "chip": "ym2612"
    },
    {
      "channel": 0,
      "note": 32,
      "start": 21.052,
      "duration": 0.1612,
      "velocity": 92,
      "chip": "ym2612"
    },
    {
      "channel": 1,
      "note": 78,
      "start": 21.0572,
      "duration": 0.1627,
      "velocity": 111,
      "chip": "ym2612"
    },
    {
      "channel": 2,
      "note": 68,
      "start": 21.0626,
      "duration": 0.0287,
      "velocity": 106,
      "chip": "ym2612"
    },
    {
      "channel": 3,
      "note": 56,
      "start": 21.068,
      "duration": 0.0626,
      "velocity": 88,
      "chip": "ym2612"
    },
    {
      "channel": 2,
      "note": 71,
      "start": 21.1023,
      "duration": 0.028,
      "velocity": 106,
      "chip": "ym2612"
    },
    {
      "channel": 2,
      "note": 75,
      "start": 21.1436,
      "duration": 0.0317,
      "velocity": 106,
      "chip": "ym2612"
    },
    {
      "channel": 3,
      "note": 66,
      "start": 21.1489,
      "duration": 0.0648,
      "velocity": 88,
      "chip": "ym2612"
    },
    {
      "channel": 2,
      "note": 78,
      "start": 21.1864,
      "duration": 0.027,
      "velocity": 106,
      "chip": "ym2612"
    },
    {
      "channel": 0,
      "note": 32,
      "start": 21.234,
      "duration": 0.4352,
      "velocity": 92,
      "chip": "ym2612"
    },
    {
      "channel": 1,
      "note": 80,
      "start": 21.2393,
      "duration": 0.6654,
      "velocity": 111,
      "chip": "ym2612"
    },
    {
      "channel": 2,
      "note": 32,
      "start": 21.2446,
      "duration": 0.0768,
      "velocity": 106,
      "chip": "ym2612"
    },
    {
      "channel": 3,
      "note": 63,
      "start": 21.25,
      "duration": 0.1951,
      "velocity": 88,
      "chip": "ym2612"
    },
    {
      "channel": 2,
      "note": 35,
      "start": 21.3568,
      "duration": 0.0875,
      "velocity": 106,
      "chip": "ym2612"
    },
    {
      "channel": 2,
      "note": 39,
      "start": 21.4695,
      "duration": 0.0873,
      "velocity": 106,
      "chip": "ym2612"
    },
    {
      "channel": 3,
      "note": 56,
      "start": 21.4748,
      "duration": 0.1962,
      "velocity": 88,
      "chip": "ym2612"
    },
    {
      "channel": 2,
      "note": 42,
      "start": 21.582,
      "duration": 0.0881,
      "velocity": 106,
      "chip": "ym2612"
    },
    {
      "channel": 0,
      "note": 44,
      "start": 21.6943,
      "duration": 0.4048,
      "velocity": 92,
      "chip": "ym2612"
    },
    {
      "channel": 2,
      "note": 44,
      "start": 21.6998,
      "duration": 0.0823,
      "velocity": 106,
      "chip": "ym2612"
    },
    {
      "channel": 3,
      "note": 64,
      "start": 21.7051,
      "duration": 0.1902,
      "velocity": 88,
      "chip": "ym2612"
    },
    {
      "channel": 2,
      "note": 47,
      "start": 21.807,
      "duration": 0.0875,
      "velocity": 106,
      "chip": "ym2612"
    },
    {
      "channel": 2,
      "note": 51,
      "start": 21.9205,
      "duration": 0.0866,
      "velocity": 106,
      "chip": "ym2612"
    },
    {
      "channel": 3,
      "note": 61,
      "start": 21.9258,
      "duration": 0.1947,
      "velocity": 88,
      "chip": "ym2612"
    },
    {
      "channel": 1,
      "note": 78,
      "start": 21.9318,
      "duration": 0.6277,
      "velocity": 111,
      "chip": "ym2612"
    },
    {
      "channel": 2,
      "note": 54,
      "start": 22.0323,
      "duration": 0.0873,
      "velocity": 106,
      "chip": "ym2612"
    },
    {
      "channel": 0,
      "note": 44,
      "start": 22.1446,
      "duration": 0.4354,
      "velocity": 92,
      "chip": "ym2612"
    },
    {
      "channel": 2,
      "note": 56,
      "start": 22.15,
      "duration": 0.0822,
      "velocity": 106,
      "chip": "ym2612"
    },
    {
      "channel": 3,
      "note": 66,
      "start": 22.1554,
      "duration": 0.1902,
      "velocity": 88,
      "chip": "ym2612"
    },
    {
      "channel": 2,
      "note": 59,
      "start": 22.2573,
      "duration": 0.0875,
      "velocity": 106,
      "chip": "ym2612"
    },
    {
      "channel": 2,
      "note": 63,
      "start": 22.38,
      "duration": 0.0875,
      "velocity": 106,
      "chip": "ym2612"
    },
    {
      "channel": 3,
      "note": 64,
      "start": 22.3855,
      "duration": 0.1969,
      "velocity": 88,
      "chip": "ym2612"
    },
    {
      "channel": 2,
      "note": 66,
      "start": 22.4927,
      "duration": 0.0887,
      "velocity": 106,
      "chip": "ym2612"
    },
    {
      "channel": 1,
      "note": 76,
      "start": 22.5956,
      "duration": 0.1692,
      "velocity": 111,
      "chip": "ym2612"
    },
    {
      "channel": 0,
      "note": 32,
      "start": 22.605,
      "duration": 0.163,
      "velocity": 92,
      "chip": "ym2612"
    },
    {
      "channel": 2,
      "note": 68,
      "start": 22.6105,
      "duration": 0.0299,
      "velocity": 106,
      "chip": "ym2612"
    },
    {
      "channel": 3,
      "note": 63,
      "start": 22.616,
      "duration": 0.0642,
      "velocity": 88,
      "chip": "ym2612"
    },
    {
      "channel": 2,
      "note": 71,
      "start": 22.6522,
      "duration": 0.0275,
      "velocity": 106,
      "chip": "ym2612"
    },
    {
      "channel": 2,
      "note": 75,
      "start": 22.6972,
      "duration": 0.032,
      "velocity": 106,
      "chip": "ym2612"
    },
    {
      "channel": 3,
      "note": 61,
      "start": 22.7026,
      "duration": 0.0665,
      "velocity": 88,
      "chip": "ym2612"
    },
    {
      "channel": 2,
      "note": 78,
      "start": 22.7404,
      "duration": 0.0283,
      "velocity": 106,
      "chip": "ym2612"
    },
    {
      "channel": 0,
      "note": 32,
      "start": 22.7882,
      "duration": 0.4354,
      "velocity": 92,
      "chip": "ym2612"
    },
    {
      "channel": 1,
      "note": 75,
      "start": 22.7935,
      "duration": 0.6041,
      "velocity": 111,
      "chip": "ym2612"
    },
    {
      "channel": 2,
      "note": 35,
      "start": 22.799,
      "duration": 0.0769,
      "velocity": 106,
      "chip": "ym2612"
    },
    {
      "channel": 3,
      "note": 56,
      "start": 22.8042,
      "duration": 0.185,
      "velocity": 88,
      "chip": "ym2612"
    },
    {
      "channel": 4,
      "note": 54,
      "start": 22.8095,
      "duration": 0.0775,
      "velocity": 106,
      "chip": "ym2612"
    },
    {
      "channel": 2,
      "note": 39,
      "start": 22.9011,
      "duration": 0.0873,
      "velocity": 106,
      "chip": "ym2612"
    },
    {
      "channel": 4,
      "note": 58,
      "start": 22.9064,
      "duration": 0.094,
      "velocity": 106,
      "chip": "ym2612"
    },
    {
      "channel": 2,
      "note": 42,
      "start": 23.0135,
      "duration": 0.0875,
      "velocity": 106,
      "chip": "ym2612"
    },
    {
      "channel": 3,
      "note": 59,
      "start": 23.0189,
      "duration": 0.2064,
      "velocity": 88,
      "chip": "ym2612"
    },
    {
      "channel": 4,
      "note": 63,
      "start": 23.0242,
      "duration": 0.6623,
      "velocity": 106,
      "chip": "ym2612"
    },
    {
      "channel": 2,
      "note": 44,
      "start": 23.1364,
      "duration": 0.0881,
      "velocity": 106,
      "chip": "ym2612"
    },
    {
      "channel": 0,
      "note": 44,
      "start": 23.2488,
      "duration": 0.3943,
      "velocity": 92,
      "chip": "ym2612"
    },
    {
      "channel": 2,
      "note": 47,
      "start": 23.2542,
      "duration": 0.0821,
      "velocity": 106,
      "chip": "ym2612"
    },
    {
      "channel": 3,
      "note": 63,
      "start": 23.2595,
      "duration": 0.1903,
      "velocity": 88,
      "chip": "ym2612"
    },
    {
      "channel": 2,
      "note": 49,
      "start": 23.3614,
      "duration": 0.0876,
      "velocity": 106,
      "chip": "ym2612"
    },
    {
      "channel": 1,
      "note": 78,
      "start": 23.4125,
      "duration": 0.7326,
      "velocity": 111,
      "chip": "ym2612"
    },
    {
      "channel": 2,
      "note": 51,
      "start": 23.474,
      "duration": 0.0875,
      "velocity": 106,
      "chip": "ym2612"
    },
    {
      "channel": 3,
      "note": 56,
      "start": 23.4793,
      "duration": 0.1955,
      "velocity": 88,
      "chip": "ym2612"
    },
    {
      "channel": 2,
      "note": 54,
      "start": 23.5866,
      "duration": 0.0873,
      "velocity": 106,
      "chip": "ym2612"
    },
    {
      "channel": 0,
      "note": 44,
      "start": 23.699,
      "duration": 0.4251,
      "velocity": 92,
      "chip": "ym2612"
    },
    {
      "channel": 2,
      "note": 56,
      "start": 23.7044,
      "duration": 0.0822,
      "velocity": 106,
      "chip": "ym2612"
    },
    {
      "channel": 3,
      "note": 64,
      "start": 23.7097,
      "duration": 0.1902,
      "velocity": 88,
      "chip": "ym2612"
    },
    {
      "channel": 2,
      "note": 59,
      "start": 23.8116,
      "duration": 0.0875,
      "velocity": 106,
      "chip": "ym2612"
    },
    {
      "channel": 2,
      "note": 61,
      "start": 23.9242,
      "duration": 0.0875,
      "velocity": 106,
      "chip": "ym2612"
    },
    {
      "channel": 3,
      "note": 61,
      "start": 23.9295,
      "duration": 0.1962,
      "velocity": 88,
      "chip": "ym2612"
    },
    {
      "channel": 2,
      "note": 63,
      "start": 24.0368,
      "duration": 0.0881,
      "velocity": 106,
      "chip": "ym2612"
    },
    {
      "channel": 0,
      "note": 32,
      "start": 24.1593,
      "duration": 0.1623,
      "velocity": 92,
      "chip": "ym2612"
    },
    {
      "channel": 1,
      "note": 80,
      "start": 24.1647,
      "duration": 0.1631,
      "velocity": 111,
      "chip": "ym2612"
    },
    {
      "channel": 2,
      "note": 66,
      "start": 24.1701,
      "duration": 0.0292,
      "velocity": 106,
      "chip": "ym2612"
    },
    {
      "channel": 3,
      "note": 56,
      "start": 24.1754,
      "duration": 0.0626,
      "velocity": 88,
      "chip": "ym2612"
    },
    {
      "channel": 2,
      "note": 68,
      "start": 24.2105,
      "duration": 0.0271,
      "velocity": 106,
      "chip": "ym2612"
    },
    {
      "channel": 2,
      "note": 71,
      "start": 24.2519,
      "duration": 0.0319,
      "velocity": 106,
      "chip": "ym2612"
    },
    {
      "channel": 3,
      "note": 66,
      "start": 24.2571,
      "duration": 0.0651,
      "velocity": 88,
      "chip": "ym2612"
    },
    {
      "channel": 2,
      "note": 73,
      "start": 24.295,
      "duration": 0.0269,
      "velocity": 106,
      "chip": "ym2612"
    },
    {
      "channel": 0,
      "note": 32,
      "start": 24.3417,
      "duration": 0.4252,
      "velocity": 92,
      "chip": "ym2612"
    },
    {
      "channel": 1,
      "note": 78,
      "start": 24.347,
      "duration": 0.6873,
      "velocity": 111,
      "chip": "ym2612"
    },
    {
      "channel": 2,
      "note": 35,
      "start": 24.3525,
      "duration": 0.0769,
      "velocity": 106,
      "chip": "ym2612"
    },
    {
      "channel": 3,
      "note": 63,
      "start": 24.3578,
      "duration": 0.185,
      "velocity": 88,
      "chip": "ym2612"
    },
    {
      "channel": 2,
      "note": 39,
      "start": 24.4544,
      "duration": 0.0875,
      "velocity": 106,
      "chip": "ym2612"
    },
    {
      "channel": 2,
      "note": 42,
      "start": 24.5671,
      "duration": 0.0873,
      "velocity": 106,
      "chip": "ym2612"
    },
    {
      "channel": 3,
      "note": 56,
      "start": 24.5724,
      "duration": 0.1962,
      "velocity": 88,
      "chip": "ym2612"
    },
    {
      "channel": 2,
      "note": 44,
      "start": 24.6796,
      "duration": 0.0882,
      "velocity": 106,
      "chip": "ym2612"
    },
    {
      "channel": 0,
      "note": 44,
      "start": 24.7919,
      "duration": 0.4047,
      "velocity": 92,
      "chip": "ym2612"
    },
    {
      "channel": 2,
      "note": 47,
      "start": 24.7974,
      "duration": 0.0822,
      "velocity": 106,
      "chip": "ym2612"
    },
    {
      "channel": 3,
      "note": 64,
      "start": 24.8027,
      "duration": 0.2005,
      "velocity": 88,
      "chip": "ym2612"
    },
    {
      "channel": 2,
      "note": 49,
      "start": 24.915,
      "duration": 0.0874,
      "velocity": 106,
      "chip": "ym2612"
    },
    {
      "channel": 2,
      "note": 51,
      "start": 25.0275,
      "duration": 0.0875,
      "velocity": 106,
      "chip": "ym2612"
    },
    {
      "channel": 3,
      "note": 59,
      "start": 25.0329,
      "duration": 0.1954,
      "velocity": 88,
      "chip": "ym2612"
    },
    {
      "channel": 1,
      "note": 76,
      "start": 25.048,
      "duration": 0.6304,
      "velocity": 111,
      "chip": "ym2612"
    },
    {
      "channel": 2,
      "note": 54,
      "start": 25.14,
      "duration": 0.0875,
      "velocity": 106,
      "chip": "ym2612"
    },
    {
      "channel": 0,
      "note": 44,
      "start": 25.2524,
      "duration": 0.4251,
      "velocity": 92,
      "chip": "ym2612"
    },
    {
      "channel": 2,
      "note": 56,
      "start": 25.2578,
      "duration": 0.0823,
      "velocity": 106,
      "chip": "ym2612"
    },
    {
      "channel": 3,
      "note": 63,
      "start": 25.2631,
      "duration": 0.1903,
      "velocity": 88,
      "chip": "ym2612"
    },
    {
      "channel": 2,
      "note": 59,
      "start": 25.3653,
      "duration": 0.0873,
      "velocity": 106,
      "chip": "ym2612"
    },
    {
      "channel": 2,
      "note": 61,
      "start": 25.4777,
      "duration": 0.0874,
      "velocity": 106,
      "chip": "ym2612"
    },
    {
      "channel": 3,
      "note": 58,
      "start": 25.4831,
      "duration": 0.1969,
      "velocity": 88,
      "chip": "ym2612"
    },
    {
      "channel": 2,
      "note": 63,
      "start": 25.5902,
      "duration": 0.0889,
      "velocity": 106,
      "chip": "ym2612"
    },
    {
      "channel": 0,
      "note": 32,
      "start": 25.7027,
      "duration": 0.1724,
      "velocity": 92,
      "chip": "ym2612"
    },
    {
      "channel": 1,
      "note": 75,
      "start": 25.7079,
      "duration": 0.1734,
      "velocity": 111,
      "chip": "ym2612"
    },
    {
      "channel": 2,
      "note": 66,
      "start": 25.7133,
      "duration": 0.0285,
      "velocity": 106,
      "chip": "ym2612"
    },
    {
      "channel": 3,
      "note": 61,
      "start": 25.7187,
      "duration": 0.0624,
      "velocity": 88,
      "chip": "ym2612"
    },
    {
      "channel": 2,
      "note": 68,
      "start": 25.7534,
      "duration": 0.0274,
      "velocity": 106,
      "chip": "ym2612"
    },
    {
      "channel": 2,
      "note": 71,
      "start": 25.8045,
      "duration": 0.0322,
      "velocity": 106,
      "chip": "ym2612"
    },
    {
      "channel": 3,
      "note": 59,
      "start": 25.8098,
      "duration": 0.0659,
      "velocity": 88,
      "chip": "ym2612"
    },
    {
      "channel": 2,
      "note": 73,
      "start": 25.8482,
      "duration": 0.0273,
      "velocity": 106,
      "chip": "ym2612"
    },
    {
      "channel": 0,
      "note": 32,
      "start": 25.8953,
      "duration": 0.4252,
      "velocity": 92,
      "chip": "ym2612"
    },
    {
      "channel": 2,
      "note": 33,
      "start": 25.9015,
      "duration": 0.0814,
      "velocity": 106,
      "chip": "ym2612"
    },
    {
      "channel": 3,
      "note": 56,
      "start": 25.9069,
      "duration": 0.1895,
      "velocity": 88,
      "chip": "ym2612"
    },
    {
      "channel": 4,
      "note": 52,
      "start": 25.9122,
      "duration": 0.0819,
      "velocity": 106,
      "chip": "ym2612"
    },
    {
      "channel": 1,
      "note": 73,
      "start": 25.9184,
      "duration": 0.6591,
      "velocity": 111,
      "chip": "ym2612"
    },
    {
      "channel": 2,
      "note": 37,
      "start": 26.008,
      "duration": 0.0875,
      "velocity": 106,
      "chip": "ym2612"
    },
    {
      "channel": 4,
      "note": 56,
      "start": 26.0135,
      "duration": 0.0939,
      "velocity": 106,
      "chip": "ym2612"
    },
    {
      "channel": 2,
      "note": 40,
      "start": 26.1205,
      "duration": 0.0875,
      "velocity": 106,
      "chip": "ym2612"
    },
    {
      "channel": 3,
      "note": 59,
      "start": 26.1258,
      "duration": 0.1963,
      "velocity": 88,
      "chip": "ym2612"
    },
    {
      "channel": 4,
      "note": 61,
      "start": 26.1313,
      "duration": 1.3081,
      "velocity": 106,
      "chip": "ym2612"
    },
    {
      "channel": 2,
      "note": 44,
      "start": 26.2332,
      "duration": 0.0882,
      "velocity": 106,
      "chip": "ym2612"
    },
    {
      "channel": 0,
      "note": 44,
      "start": 26.3455,
      "duration": 0.4047,
      "velocity": 92,
      "chip": "ym2612"
    },
    {
      "channel": 2,
      "note": 47,
      "start": 26.351,
      "duration": 0.0822,
      "velocity": 106,
      "chip": "ym2612"
    },
    {
      "channel": 3,
      "note": 63,
      "start": 26.3563,
      "duration": 0.1903,
      "velocity": 88,
      "chip": "ym2612"
    },
    {
      "channel": 2,
      "note": 52,
      "start": 26.4582,
      "duration": 0.0875,
      "velocity": 106,
      "chip": "ym2612"
    },
    {
      "channel": 2,
      "note": 56,
      "start": 26.5708,
      "duration": 0.0875,
      "velocity": 106,
      "chip": "ym2612"
    },
    {
      "channel": 3,
      "note": 56,
      "start": 26.5761,
      "duration": 0.2058,
      "velocity": 88,
      "chip": "ym2612"
    },
    {
      "channel": 1,
      "note": 75,
      "start": 26.6014,
      "duration": 0.6408,
      "velocity": 111,
      "chip": "ym2612"
    },
    {
      "channel": 2,
      "note": 59,
      "start": 26.6936,
      "duration": 0.0875,
      "velocity": 106,
      "chip": "ym2612"
    },
    {
      "channel": 0,
      "note": 44,
      "start": 26.806,
      "duration": 0.4252,
      "velocity": 92,
      "chip": "ym2612"
    },
    {
      "channel": 2,
      "note": 64,
      "start": 26.8113,
      "duration": 0.0823,
      "velocity": 106,
      "chip": "ym2612"
    },
    {
      "channel": 3,
      "note": 64,
      "start": 26.8168,
      "duration": 0.1902,
      "velocity": 88,
      "chip": "ym2612"
    },
    {
      "channel": 2,
      "note": 68,
      "start": 26.9187,
      "duration": 0.0875,
      "velocity": 106,
      "chip": "ym2612"
    },
    {
      "channel": 2,
      "note": 71,
      "start": 27.0314,
      "duration": 0.0874,
      "velocity": 106,
      "chip": "ym2612"
    },
    {
      "channel": 3,
      "note": 61,
      "start": 27.0366,
      "duration": 0.1962,
      "velocity": 88,
      "chip": "ym2612"
    },
    {
      "channel": 2,
      "note": 73,
      "start": 27.1438,
      "duration": 0.0882,
      "velocity": 106,
      "chip": "ym2612"
    },
    {
      "channel": 0,
      "note": 32,
      "start": 27.2562,
      "duration": 0.1588,
      "velocity": 92,
      "chip": "ym2612"
    },
    {
      "channel": 1,
      "note": 76,
      "start": 27.2615,
      "duration": 0.1745,
      "velocity": 111,
      "chip": "ym2612"
    },
    {
      "channel": 2,
      "note": 76,
      "start": 27.2669,
      "duration": 0.0286,
      "velocity": 106,
      "chip": "ym2612"
    },
    {
      "channel": 3,
      "note": 56,
      "start": 27.2722,
      "duration": 0.0583,
      "velocity": 88,
      "chip": "ym2612"
    },
    {
      "channel": 3,
      "note": 66,
      "start": 27.3479,
      "duration": 0.068,
      "velocity": 88,
      "chip": "ym2612"
    },
    {
      "channel": 0,
      "note": 32,
      "start": 27.4503,
      "duration": 0.4251,
      "velocity": 92,
      "chip": "ym2612"
    },
    {
      "channel": 1,
      "note": 75,
      "start": 27.4556,
      "duration": 0.7678,
      "velocity": 111,
      "chip": "ym2612"
    },
    {
      "channel": 2,
      "note": 33,
      "start": 27.461,
      "duration": 0.0769,
      "velocity": 106,
      "chip": "ym2612"
    },
    {
      "channel": 3,
      "note": 63,
      "start": 27.4664,
      "duration": 0.1849,
      "velocity": 88,
      "chip": "ym2612"
    },
    {
      "channel": 4,
      "note": 59,
      "start": 27.4742,
      "duration": 0.8641,
      "velocity": 106,
      "chip": "ym2612"
    },
    {
      "channel": 2,
      "note": 37,
      "start": 27.5631,
      "duration": 0.0873,
      "velocity": 106,
      "chip": "ym2612"
    },
    {
      "channel": 2,
      "note": 40,
      "start": 27.6755,
      "duration": 0.0876,
      "velocity": 106,
      "chip": "ym2612"
    },
    {
      "channel": 3,
      "note": 56,
      "start": 27.6809,
      "duration": 0.1962,
      "velocity": 88,
      "chip": "ym2612"
    },
    {
      "channel": 2,
      "note": 44,
      "start": 27.7881,
      "duration": 0.0882,
      "velocity": 106,
      "chip": "ym2612"
    },
    {
      "channel": 0,
      "note": 44,
      "start": 27.9005,
      "duration": 0.4046,
      "velocity": 92,
      "chip": "ym2612"
    },
    {
      "channel": 2,
      "note": 47,
      "start": 27.9059,
      "duration": 0.0821,
      "velocity": 106,
      "chip": "ym2612"
    },
    {
      "channel": 3,
      "note": 64,
      "start": 27.9113,
      "duration": 0.1901,
      "velocity": 88,
      "chip": "ym2612"
    },
    {
      "channel": 2,
      "note": 52,
      "start": 28.0133,
      "duration": 0.0874,
      "velocity": 106,
      "chip": "ym2612"
    },
    {
      "channel": 2,
      "note": 56,
      "start": 28.1257,
      "duration": 0.0876,
      "velocity": 106,
      "chip": "ym2612"
    },
    {
      "channel": 3,
      "note": 61,
      "start": 28.1311,
      "duration": 0.1954,
      "velocity": 88,
      "chip": "ym2612"
    },
    {
      "channel": 1,
      "note": 71,
      "start": 28.2382,
      "duration": 0.5487,
      "velocity": 111,
      "chip": "ym2612"
    },
    {
      "channel": 2,
      "note": 59,
      "start": 28.2435,
      "duration": 0.0823,
      "velocity": 106,
      "chip": "ym2612"
    },
    {
      "channel": 0,
      "note": 44,
      "start": 28.3507,
      "duration": 0.4354,
      "velocity": 92,
      "chip": "ym2612"
    },
    {
      "channel": 2,
      "note": 64,
      "start": 28.3561,
      "duration": 0.0822,
      "velocity": 106,
      "chip": "ym2612"
    },
    {
      "channel": 3,
      "note": 56,
      "start": 28.3615,
      "duration": 0.2005,
      "velocity": 88,
      "chip": "ym2612"
    },
    {
      "channel": 4,
      "note": 54,
      "start": 28.3668,
      "duration": 0.5682,
      "velocity": 106,
      "chip": "ym2612"
    },
    {
      "channel": 2,
      "note": 68,
      "start": 28.4736,
      "duration": 0.0875,
      "velocity": 106,
      "chip": "ym2612"
    },
    {
      "channel": 2,
      "note": 71,
      "start": 28.5862,
      "duration": 0.0875,
      "velocity": 106,
      "chip": "ym2612"
    },
    {
      "channel": 3,
      "note": 61,
      "start": 28.5915,
      "duration": 0.197,
      "velocity": 88,
      "chip": "ym2612"
    },
    {
      "channel": 2,
      "note": 73,
      "start": 28.6989,
      "duration": 0.0888,
      "velocity": 106,
      "chip": "ym2612"
    },
    {
      "channel": 0,
      "note": 32,
      "start": 28.8111,
      "duration": 0.1594,
      "velocity": 92,
      "chip": "ym2612"
    },
    {
      "channel": 1,
      "note": 66,
      "start": 28.8165,
      "duration": 0.1652,
      "velocity": 111,
      "chip": "ym2612"
    },
    {
      "channel": 2,
      "note": 76,
      "start": 28.8219,
      "duration": 0.0284,
      "velocity": 106,
      "chip": "ym2612"
    },
    {
      "channel": 3,
      "note": 58,
      "start": 28.8271,
      "duration": 0.0584,
      "velocity": 88,
      "chip": "ym2612"
    },
    {
      "channel": 3,
      "note": 59,
      "start": 28.9028,
      "duration": 0.0687,
      "velocity": 88,
      "chip": "ym2612"
    },
    {
      "channel": 0,
      "note": 32,
      "start": 28.9956,
      "duration": 0.4355,
      "velocity": 92,
      "chip": "ym2612"
    },
    {
      "channel": 1,
      "note": 68,
      "start": 29.001,
      "duration": 2.7525,
      "velocity": 111,
      "chip": "ym2612"
    },
    {
      "channel": 2,
      "note": 32,
      "start": 29.0063,
      "duration": 0.0769,
      "velocity": 106,
      "chip": "ym2612"
    },
    {
      "channel": 3,
      "note": 56,
      "start": 29.0116,
      "duration": 0.185,
      "velocity": 88,
      "chip": "ym2612"
    },
    {
      "channel": 4,
      "note": 47,
      "start": 29.0171,
      "duration": 0.0773,
      "velocity": 106,
      "chip": "ym2612"
    },
    {
      "channel": 2,
      "note": 35,
      "start": 29.1083,
      "duration": 0.0875,
      "velocity": 106,
      "chip": "ym2612"
    },
    {
      "channel": 4,
      "note": 51,
      "start": 29.1137,
      "duration": 0.1038,
      "velocity": 106,
      "chip": "ym2612"
    },
    {
      "channel": 2,
      "note": 39,
      "start": 29.2312,
      "duration": 0.0874,
      "velocity": 106,
      "chip": "ym2612"
    },
    {
      "channel": 3,
      "note": 59,
      "start": 29.2365,
      "duration": 0.1962,
      "velocity": 88,
      "chip": "ym2612"
    },
    {
      "channel": 4,
      "note": 56,
      "start": 29.2418,
      "duration": 0.652,
      "velocity": 106,
      "chip": "ym2612"
    },
    {
      "channel": 2,
      "note": 42,
      "start": 29.3437,
      "duration": 0.0883,
      "velocity": 106,
      "chip": "ym2612"
    },
    {
      "channel": 0,
      "note": 44,
      "start": 29.456,
      "duration": 0.4047,
      "velocity": 92,
      "chip": "ym2612"
    },
    {
      "channel": 2,
      "note": 44,
      "start": 29.4614,
      "duration": 0.0823,
      "velocity": 106,
      "chip": "ym2612"
    },
    {
      "channel": 3,
      "note": 63,
      "start": 29.4668,
      "duration": 0.1902,
      "velocity": 88,
      "chip": "ym2612"
    },
    {
      "channel": 2,
      "note": 47,
      "start": 29.5688,
      "duration": 0.0874,
      "velocity": 106,
      "chip": "ym2612"
    },
    {
      "channel": 2,
      "note": 51,
      "start": 29.6814,
      "duration": 0.0873,
      "velocity": 106,
      "chip": "ym2612"
    },
    {
      "channel": 3,
      "note": 56,
      "start": 29.6867,
      "duration": 0.1954,
      "velocity": 88,
      "chip": "ym2612"
    },
    {
      "channel": 2,
      "note": 54,
      "start": 29.7939,
      "duration": 0.0875,
      "velocity": 106,
      "chip": "ym2612"
    },
    {
      "channel": 0,
      "note": 44,
      "start": 29.9062,
      "duration": 0.4354,
      "velocity": 92,
      "chip": "ym2612"
    },
    {
      "channel": 2,
      "note": 56,
      "start": 29.9117,
      "duration": 0.0822,
      "velocity": 106,
      "chip": "ym2612"
    },
    {
      "channel": 3,
      "note": 64,
      "start": 29.9171,
      "duration": 0.1902,
      "velocity": 88,
      "chip": "ym2612"
    },
    {
      "channel": 2,
      "note": 59,
      "start": 30.0191,
      "duration": 0.0873,
      "velocity": 106,
      "chip": "ym2612"
    },
    {
      "channel": 2,
      "note": 61,
      "start": 30.1316,
      "duration": 0.0874,
      "velocity": 106,
      "chip": "ym2612"
    },
    {
      "channel": 3,
      "note": 61,
      "start": 30.1369,
      "duration": 0.2064,
      "velocity": 88,
      "chip": "ym2612"
    },
    {
      "channel": 2,
      "note": 63,
      "start": 30.2543,
      "duration": 0.0882,
      "velocity": 106,
      "chip": "ym2612"
    },
    {
      "channel": 0,
      "note": 32,
      "start": 30.3668,
      "duration": 0.1636,
      "velocity": 92,
      "chip": "ym2612"
    },
    {
      "channel": 2,
      "note": 66,
      "start": 30.3722,
      "duration": 0.031,
      "velocity": 106,
      "chip": "ym2612"
    },
    {
      "channel": 3,
      "note": 56,
      "start": 30.3776,
      "duration": 0.0643,
      "velocity": 88,
      "chip": "ym2612"
    },
    {
      "channel": 2,
      "note": 68,
      "start": 30.4146,
      "duration": 0.027,
      "velocity": 106,
      "chip": "ym2612"
    },
    {
      "channel": 2,
      "note": 71,
      "start": 30.4592,
      "duration": 0.0328,
      "velocity": 106,
      "chip": "ym2612"
    },
    {
      "channel": 3,
      "note": 66,
      "start": 30.4646,
      "duration": 0.0664,
      "velocity": 88,
      "chip": "ym2612"
    },
    {
      "channel": 2,
      "note": 75,
      "start": 30.5034,
      "duration": 0.0273,
      "velocity": 106,
      "chip": "ym2612"
    },
    {
      "channel": 0,
      "note": 32,
      "start": 30.5507,
      "duration": 0.4251,
      "velocity": 92,
      "chip": "ym2612"
    },
    {
      "channel": 2,
      "note": 32,
      "start": 30.556,
      "duration": 0.0822,
      "velocity": 106,
      "chip": "ym2612"
    },
    {
      "channel": 3,
      "note": 63,
      "start": 30.5614,
      "duration": 0.1902,
      "velocity": 88,
      "chip": "ym2612"
    },
    {
      "channel": 2,
      "note": 35,
      "start": 30.6633,
      "duration": 0.0875,
      "velocity": 106,
      "chip": "ym2612"
    },
    {
      "channel": 2,
      "note": 39,
      "start": 30.7759,
      "duration": 0.0875,
      "velocity": 106,
      "chip": "ym2612"
    },
    {
      "channel": 3,
      "note": 56,
      "start": 30.7812,
      "duration": 0.1962,
      "velocity": 88,
      "chip": "ym2612"
    },
    {
      "channel": 2,
      "note": 42,
      "start": 30.8884,
      "duration": 0.0882,
      "velocity": 106,
      "chip": "ym2612"
    },
    {
      "channel": 0,
      "note": 44,
      "start": 31.011,
      "duration": 0.3945,
      "velocity": 92,
      "chip": "ym2612"
    },
    {
      "channel": 2,
      "note": 44,
      "start": 31.0165,
      "duration": 0.0821,
      "velocity": 106,
      "chip": "ym2612"
    },
    {
      "channel": 3,
      "note": 64,
      "start": 31.0219,
      "duration": 0.1902,
      "velocity": 88,
      "chip": "ym2612"
    },
    {
      "channel": 2,
      "note": 47,
      "start": 31.1238,
      "duration": 0.0875,
      "velocity": 106,
      "chip": "ym2612"
    },
    {
      "channel": 2,
      "note": 51,
      "start": 31.2363,
      "duration": 0.0875,
      "velocity": 106,
      "chip": "ym2612"
    },
    {
      "channel": 3,
      "note": 61,
      "start": 31.2416,
      "duration": 0.1955,
      "velocity": 88,
      "chip": "ym2612"
    },
    {
      "channel": 2,
      "note": 54,
      "start": 31.349,
      "duration": 0.0874,
      "velocity": 106,
      "chip": "ym2612"
    },
    {
      "channel": 0,
      "note": 44,
      "start": 31.4612,
      "duration": 0.4252,
      "velocity": 92,
      "chip": "ym2612"
    },
    {
      "channel": 2,
      "note": 56,
      "start": 31.4667,
      "duration": 0.0822,
      "velocity": 106,
      "chip": "ym2612"
    },
    {
      "channel": 3,
      "note": 56,
      "start": 31.4721,
      "duration": 0.1902,
      "velocity": 88,
      "chip": "ym2612"
    },
    {
      "channel": 2,
      "note": 59,
      "start": 31.574,
      "duration": 0.0875,
      "velocity": 106,
      "chip": "ym2612"
    },
    {
      "channel": 2,
      "note": 61,
      "start": 31.6866,
      "duration": 0.0875,
      "velocity": 106,
      "chip": "ym2612"
    },
    {
      "channel": 3,
      "note": 64,
      "start": 31.6918,
      "duration": 0.1963,
      "velocity": 88,
      "chip": "ym2612"
    },
    {
      "channel": 2,
      "note": 63,
      "start": 31.7992,
      "duration": 0.0881,
      "velocity": 106,
      "chip": "ym2612"
    },
    {
      "channel": 0,
      "note": 32,
      "start": 31.9115,
      "duration": 0.1777,
      "velocity": 92,
      "chip": "ym2612"
    },
    {
      "channel": 2,
      "note": 66,
      "start": 31.917,
      "duration": 0.0301,
      "velocity": 106,
      "chip": "ym2612"
    },
    {
      "channel": 3,
      "note": 66,
      "start": 31.9223,
      "duration": 0.0664,
      "velocity": 88,
      "chip": "ym2612"
    },
    {
      "channel": 2,
      "note": 68,
      "start": 31.9613,
      "duration": 0.0271,
      "velocity": 106,
      "chip": "ym2612"
    },
    {
      "channel": 2,
      "note": 71,
      "start": 32.0122,
      "duration": 0.0323,
      "velocity": 106,
      "chip": "ym2612"
    },
    {
      "channel": 3,
      "note": 63,
      "start": 32.0177,
      "duration": 0.0771,
      "velocity": 88,
      "chip": "ym2612"
    },
    {
      "channel": 2,
      "note": 75,
      "start": 32.0555,
      "duration": 0.0373,
      "velocity": 106,
      "chip": "ym2612"
    },
    {
      "channel": 3,
      "note": 80,
      "start": 32.1083,
      "duration": 3.5931,
      "velocity": 108,
      "chip": "ym2612"
    },
    {
      "channel": 4,
      "note": 32,
      "start": 32.1137,
      "duration": 0.4159,
      "velocity": 92,
      "chip": "ym2612"
    },
    {
      "channel": 5,
      "note": 44,
      "start": 32.119,
      "duration": 0.3286,
      "velocity": 115,
      "chip": "ym2612"
    },
    {
      "channel": 4,
      "note": 44,
      "start": 32.5545,
      "duration": 0.4048,
      "velocity": 92,
      "chip": "ym2612"
    },
    {
      "channel": 5,
      "note": 44,
      "start": 32.5598,
      "duration": 0.42,
      "velocity": 115,
      "chip": "ym2612"
    },
    {
      "channel": 4,
      "note": 44,
      "start": 33.0047,
      "duration": 0.4354,
      "velocity": 92,
      "chip": "ym2612"
    },
    {
      "channel": 5,
      "note": 56,
      "start": 33.01,
      "duration": 0.1949,
      "velocity": 115,
      "chip": "ym2612"
    },
    {
      "channel": 5,
      "note": 44,
      "start": 33.2402,
      "duration": 0.4149,
      "velocity": 115,
      "chip": "ym2612"
    },
    {
      "channel": 4,
      "note": 32,
      "start": 33.4653,
      "duration": 0.4251,
      "velocity": 92,
      "chip": "ym2612"
    },
    {
      "channel": 5,
      "note": 54,
      "start": 33.6904,
      "duration": 0.2008,
      "velocity": 115,
      "chip": "ym2612"
    },
    {
      "channel": 4,
      "note": 32,
      "start": 33.9156,
      "duration": 0.4353,
      "velocity": 92,
      "chip": "ym2612"
    },
    {
      "channel": 5,
      "note": 44,
      "start": 33.9208,
      "duration": 0.1947,
      "velocity": 115,
      "chip": "ym2612"
    },
    {
      "channel": 5,
      "note": 54,
      "start": 34.1406,
      "duration": 0.2111,
      "velocity": 115,
      "chip": "ym2612"
    },
    {
      "channel": 4,
      "note": 44,
      "start": 34.3759,
      "duration": 0.3945,
      "velocity": 92,
      "chip": "ym2612"
    },
    {
      "channel": 5,
      "note": 44,
      "start": 34.3812,
      "duration": 0.1948,
      "velocity": 115,
      "chip": "ym2612"
    },
    {
      "channel": 5,
      "note": 54,
      "start": 34.6012,
      "duration": 0.1999,
      "velocity": 115,
      "chip": "ym2612"
    },
    {
      "channel": 4,
      "note": 44,
      "start": 34.8261,
      "duration": 0.4252,
      "velocity": 92,
      "chip": "ym2612"
    },
    {
      "channel": 5,
      "note": 49,
      "start": 34.8315,
      "duration": 0.1947,
      "velocity": 115,
      "chip": "ym2612"
    },
    {
      "channel": 5,
      "note": 51,
      "start": 35.0514,
      "duration": 0.2007,
      "velocity": 115,
      "chip": "ym2612"
    },
    {
      "channel": 4,
      "note": 32,
      "start": 35.2865,
      "duration": 0.4254,
      "velocity": 92,
      "chip": "ym2612"
    },
    {
      "channel": 5,
      "note": 52,
      "start": 35.2919,
      "duration": 0.1949,
      "velocity": 115,
      "chip": "ym2612"
    },
    {
      "channel": 5,
      "note": 51,
      "start": 35.5118,
      "duration": 0.2011,
      "velocity": 115,
      "chip": "ym2612"
    },
    {
      "channel": 3,
      "note": 82,
      "start": 35.7367,
      "duration": 3.6074,
      "velocity": 108,
      "chip": "ym2612"
    },
    {
      "channel": 4,
      "note": 32,
      "start": 35.742,
      "duration": 0.42,
      "velocity": 92,
      "chip": "ym2612"
    },
    {
      "channel": 5,
      "note": 44,
      "start": 35.7475,
      "duration": 0.3429,
      "velocity": 115,
      "chip": "ym2612"
    },
    {
      "channel": 4,
      "note": 44,
      "start": 36.1871,
      "duration": 0.4047,
      "velocity": 92,
      "chip": "ym2612"
    },
    {
      "channel": 5,
      "note": 44,
      "start": 36.1923,
      "duration": 0.4301,
      "velocity": 115,
      "chip": "ym2612"
    },
    {
      "channel": 4,
      "note": 44,
      "start": 36.6476,
      "duration": 0.4251,
      "velocity": 92,
      "chip": "ym2612"
    },
    {
      "channel": 5,
      "note": 56,
      "start": 36.6529,
      "duration": 0.1947,
      "velocity": 115,
      "chip": "ym2612"
    },
    {
      "channel": 5,
      "note": 44,
      "start": 36.8727,
      "duration": 0.4252,
      "velocity": 115,
      "chip": "ym2612"
    },
    {
      "channel": 4,
      "note": 32,
      "start": 37.0978,
      "duration": 0.4353,
      "velocity": 92,
      "chip": "ym2612"
    },
    {
      "channel": 5,
      "note": 54,
      "start": 37.3332,
      "duration": 0.2007,
      "velocity": 115,
      "chip": "ym2612"
    },
    {
      "channel": 4,
      "note": 32,
      "start": 37.5582,
      "duration": 0.4252,
      "velocity": 92,
      "chip": "ym2612"
    },
    {
      "channel": 5,
      "note": 44,
      "start": 37.5636,
      "duration": 0.1845,
      "velocity": 115,
      "chip": "ym2612"
    },
    {
      "channel": 5,
      "note": 54,
      "start": 37.7835,
      "duration": 0.2007,
      "velocity": 115,
      "chip": "ym2612"
    },
    {
      "channel": 4,
      "note": 44,
      "start": 38.0084,
      "duration": 0.4048,
      "velocity": 92,
      "chip": "ym2612"
    },
    {
      "channel": 5,
      "note": 44,
      "start": 38.0138,
      "duration": 0.1947,
      "velocity": 115,
      "chip": "ym2612"
    },
    {
      "channel": 5,
      "note": 54,
      "start": 38.2337,
      "duration": 0.2102,
      "velocity": 115,
      "chip": "ym2612"
    },
    {
      "channel": 4,
      "note": 44,
      "start": 38.4688,
      "duration": 0.4252,
      "velocity": 92,
      "chip": "ym2612"
    },
    {
      "channel": 5,
      "note": 49,
      "start": 38.4742,
      "duration": 0.1948,
      "velocity": 115,
      "chip": "ym2612"
    },
    {
      "channel": 5,
      "note": 51,
      "start": 38.6941,
      "duration": 0.2008,
      "velocity": 115,
      "chip": "ym2612"
    },
    {
      "channel": 4,
      "note": 32,
      "start": 38.9191,
      "duration": 0.4259,
      "velocity": 92,
      "chip": "ym2612"
    },
    {
      "channel": 5,
      "note": 52,
      "start": 38.9244,
      "duration": 0.1949,
      "velocity": 115,
      "chip": "ym2612"
    },
    {
      "channel": 5,
      "note": 51,
      "start": 39.1443,
      "duration": 0.2015,
      "velocity": 115,
      "chip": "ym2612"
    },
    {
      "channel": 0,
      "note": 68,
      "start": 39.3793,
      "duration": 0.2001,
      "velocity": 88,
      "chip": "ym2612"
    },
    {
      "channel": 3,
      "note": 87,
      "start": 39.3848,
      "duration": 3.592,
      "velocity": 108,
      "chip": "ym2612"
    },
    {
      "channel": 4,
      "note": 32,
      "start": 39.3901,
      "duration": 0.4153,
      "velocity": 92,
      "chip": "ym2612"
    },
    {
      "channel": 5,
      "note": 44,
      "start": 39.3954,
      "duration": 0.3378,
      "velocity": 115,
      "chip": "ym2612"
    },
    {
      "channel": 0,
      "note": 71,
      "start": 39.6044,
      "duration": 0.2,
      "velocity": 88,
      "chip": "ym2612"
    },
    {
      "channel": 0,
      "note": 68,
      "start": 39.8296,
      "duration": 0.2,
      "velocity": 88,
      "chip": "ym2612"
    },
    {
      "channel": 4,
      "note": 44,
      "start": 39.8351,
      "duration": 0.3994,
      "velocity": 92,
      "chip": "ym2612"
    },
    {
      "channel": 5,
      "note": 44,
      "start": 39.8404,
      "duration": 0.4154,
      "velocity": 115,
      "chip": "ym2612"
    },
    {
      "channel": 0,
      "note": 75,
      "start": 40.0546,
      "duration": 0.2001,
      "velocity": 88,
      "chip": "ym2612"
    },
    {
      "channel": 0,
      "note": 78,
      "start": 40.2799,
      "duration": 0.2102,
      "velocity": 88,
      "chip": "ym2612"
    },
    {
      "channel": 4,
      "note": 44,
      "start": 40.2853,
      "duration": 0.4308,
      "velocity": 92,
      "chip": "ym2612"
    },
    {
      "channel": 5,
      "note": 56,
      "start": 40.2907,
      "duration": 0.2004,
      "velocity": 115,
      "chip": "ym2612"
    },
    {
      "channel": 0,
      "note": 75,
      "start": 40.5152,
      "duration": 0.1999,
      "velocity": 88,
      "chip": "ym2612"
    },
    {
      "channel": 5,
      "note": 44,
      "start": 40.5208,
      "duration": 0.4097,
      "velocity": 115,
      "chip": "ym2612"
    },
    {
      "channel": 0,
      "note": 70,
      "start": 40.7402,
      "duration": 0.2,
      "velocity": 88,
      "chip": "ym2612"
    },
    {
      "channel": 4,
      "note": 32,
      "start": 40.7457,
      "duration": 0.4207,
      "velocity": 92,
      "chip": "ym2612"
    },
    {
      "channel": 0,
      "note": 71,
      "start": 40.9654,
      "duration": 0.1999,
      "velocity": 88,
      "chip": "ym2612"
    },
    {
      "channel": 5,
      "note": 54,
      "start": 40.971,
      "duration": 0.1962,
      "velocity": 115,
      "chip": "ym2612"
    },
    {
      "channel": 0,
      "note": 68,
      "start": 41.1904,
      "duration": 0.2001,
      "velocity": 88,
      "chip": "ym2612"
    },
    {
      "channel": 4,
      "note": 32,
      "start": 41.1959,
      "duration": 0.431,
      "velocity": 92,
      "chip": "ym2612"
    },
    {
      "channel": 5,
      "note": 44,
      "start": 41.2014,
      "duration": 0.1902,
      "velocity": 115,
      "chip": "ym2612"
    },
    {
      "channel": 0,
      "note": 71,
      "start": 41.4258,
      "duration": 0.2,
      "velocity": 88,
      "chip": "ym2612"
    },
    {
      "channel": 5,
      "note": 54,
      "start": 41.4315,
      "duration": 0.1962,
      "velocity": 115,
      "chip": "ym2612"
    },
    {
      "channel": 0,
      "note": 68,
      "start": 41.651,
      "duration": 0.1999,
      "velocity": 88,
      "chip": "ym2612"
    },
    {
      "channel": 4,
      "note": 44,
      "start": 41.6565,
      "duration": 0.3994,
      "velocity": 92,
      "chip": "ym2612"
    },
    {
      "channel": 5,
      "note": 44,
      "start": 41.6619,
      "duration": 0.1902,
      "velocity": 115,
      "chip": "ym2612"
    },
    {
      "channel": 0,
      "note": 75,
      "start": 41.876,
      "duration": 0.2,
      "velocity": 88,
      "chip": "ym2612"
    },
    {
      "channel": 5,
      "note": 54,
      "start": 41.8816,
      "duration": 0.1956,
      "velocity": 115,
      "chip": "ym2612"
    },
    {
      "channel": 0,
      "note": 78,
      "start": 42.1012,
      "duration": 0.2,
      "velocity": 88,
      "chip": "ym2612"
    },
    {
      "channel": 4,
      "note": 44,
      "start": 42.1067,
      "duration": 0.4308,
      "velocity": 92,
      "chip": "ym2612"
    },
    {
      "channel": 5,
      "note": 49,
      "start": 42.112,
      "duration": 0.1902,
      "velocity": 115,
      "chip": "ym2612"
    },
    {
      "channel": 0,
      "note": 75,
      "start": 42.3262,
      "duration": 0.2102,
      "velocity": 88,
      "chip": "ym2612"
    },
    {
      "channel": 5,
      "note": 51,
      "start": 42.3319,
      "duration": 0.2064,
      "velocity": 115,
      "chip": "ym2612"
    },
    {
      "channel": 0,
      "note": 70,
      "start": 42.5615,
      "duration": 0.2001,
      "velocity": 88,
      "chip": "ym2612"
    },
    {
      "channel": 4,
      "note": 32,
      "start": 42.5671,
      "duration": 0.4208,
      "velocity": 92,
      "chip": "ym2612"
    },
    {
      "channel": 5,
      "note": 52,
      "start": 42.5725,
      "duration": 0.1903,
      "velocity": 115,
      "chip": "ym2612"
    },
    {
      "channel": 0,
      "note": 71,
      "start": 42.7867,
      "duration": 0.2001,
      "velocity": 88,
      "chip": "ym2612"
    },
    {
      "channel": 5,
      "note": 51,
      "start": 42.7923,
      "duration": 0.1965,
      "velocity": 115,
      "chip": "ym2612"
    },
    {
      "channel": 0,
      "note": 70,
      "start": 43.0118,
      "duration": 0.2001,
      "velocity": 88,
      "chip": "ym2612"
    },
    {
      "channel": 3,
      "note": 82,
      "start": 43.0173,
      "duration": 3.6132,
      "velocity": 108,
      "chip": "ym2612"
    },
    {
      "channel": 4,
      "note": 32,
      "start": 43.0226,
      "duration": 0.4154,
      "velocity": 92,
      "chip": "ym2612"
    },
    {
      "channel": 5,
      "note": 44,
      "start": 43.028,
      "duration": 0.3378,
      "velocity": 115,
      "chip": "ym2612"
    },
    {
      "channel": 0,
      "note": 71,
      "start": 43.2369,
      "duration": 0.2001,
      "velocity": 88,
      "chip": "ym2612"
    },
    {
      "channel": 0,
      "note": 70,
      "start": 43.4722,
      "duration": 0.2001,
      "velocity": 88,
      "chip": "ym2612"
    },
    {
      "channel": 4,
      "note": 44,
      "start": 43.4777,
      "duration": 0.3893,
      "velocity": 92,
      "chip": "ym2612"
    },
    {
      "channel": 5,
      "note": 44,
      "start": 43.4832,
      "duration": 0.4153,
      "velocity": 115,
      "chip": "ym2612"
    },
    {
      "channel": 0,
      "note": 73,
      "start": 43.6975,
      "duration": 0.1999,
      "velocity": 88,
      "chip": "ym2612"
    },
    {
      "channel": 0,
      "note": 76,
      "start": 43.9225,
      "duration": 0.2001,
      "velocity": 88,
      "chip": "ym2612"
    },
    {
      "channel": 4,
      "note": 44,
      "start": 43.928,
      "duration": 0.4207,
      "velocity": 92,
      "chip": "ym2612"
    },
    {
      "channel": 5,
      "note": 56,
      "start": 43.9334,
      "duration": 0.1902,
      "velocity": 115,
      "chip": "ym2612"
    },
    {
      "channel": 0,
      "note": 75,
      "start": 44.1477,
      "duration": 0.1999,
      "velocity": 88,
      "chip": "ym2612"
    },
    {
      "channel": 5,
      "note": 44,
      "start": 44.1533,
      "duration": 0.4198,
      "velocity": 115,
      "chip": "ym2612"
    },
    {
      "channel": 0,
      "note": 73,
      "start": 44.3727,
      "duration": 0.2102,
      "velocity": 88,
      "chip": "ym2612"
    },
    {
      "channel": 4,
      "note": 32,
      "start": 44.3782,
      "duration": 0.4309,
      "velocity": 92,
      "chip": "ym2612"
    },
    {
      "channel": 0,
      "note": 75,
      "start": 44.6081,
      "duration": 0.2,
      "velocity": 88,
      "chip": "ym2612"
    },
    {
      "channel": 5,
      "note": 54,
      "start": 44.6138,
      "duration": 0.1962,
      "velocity": 115,
      "chip": "ym2612"
    },
    {
      "channel": 0,
      "note": 70,
      "start": 44.8333,
      "duration": 0.1999,
      "velocity": 88,
      "chip": "ym2612"
    },
    {
      "channel": 4,
      "note": 32,
      "start": 44.8388,
      "duration": 0.4206,
      "velocity": 92,
      "chip": "ym2612"
    },
    {
      "channel": 5,
      "note": 44,
      "start": 44.8441,
      "duration": 0.1793,
      "velocity": 115,
      "chip": "ym2612"
    },
    {
      "channel": 0,
      "note": 71,
      "start": 45.0583,
      "duration": 0.2,
      "velocity": 88,
      "chip": "ym2612"
    },
    {
      "channel": 5,
      "note": 54,
      "start": 45.0639,
      "duration": 0.1962,
      "velocity": 115,
      "chip": "ym2612"
    },
    {
      "channel": 0,
      "note": 70,
      "start": 45.2835,
      "duration": 0.1999,
      "velocity": 88,
      "chip": "ym2612"
    },
    {
      "channel": 4,
      "note": 44,
      "start": 45.289,
      "duration": 0.3994,
      "velocity": 92,
      "chip": "ym2612"
    },
    {
      "channel": 5,
      "note": 44,
      "start": 45.2944,
      "duration": 0.1902,
      "velocity": 115,
      "chip": "ym2612"
    },
    {
      "channel": 0,
      "note": 76,
      "start": 45.5187,
      "duration": 0.2001,
      "velocity": 88,
      "chip": "ym2612"
    },
    {
      "channel": 5,
      "note": 54,
      "start": 45.5243,
      "duration": 0.1956,
      "velocity": 115,
      "chip": "ym2612"
    },
    {
      "channel": 0,
      "note": 75,
      "start": 45.7439,
      "duration": 0.2001,
      "velocity": 88,
      "chip": "ym2612"
    },
    {
      "channel": 4,
      "note": 44,
      "start": 45.7495,
      "duration": 0.4206,
      "velocity": 92,
      "chip": "ym2612"
    },
    {
      "channel": 5,
      "note": 49,
      "start": 45.7548,
      "duration": 0.1902,
      "velocity": 115,
      "chip": "ym2612"
    },
    {
      "channel": 0,
      "note": 73,
      "start": 45.969,
      "duration": 0.2001,
      "velocity": 88,
      "chip": "ym2612"
    },
    {
      "channel": 5,
      "note": 51,
      "start": 45.9746,
      "duration": 0.1963,
      "velocity": 115,
      "chip": "ym2612"
    },
    {
      "channel": 0,
      "note": 71,
      "start": 46.1941,
      "duration": 0.2,
      "velocity": 88,
      "chip": "ym2612"
    },
    {
      "channel": 4,
      "note": 32,
      "start": 46.1997,
      "duration": 0.4316,
      "velocity": 92,
      "chip": "ym2612"
    },
    {
      "channel": 5,
      "note": 52,
      "start": 46.2051,
      "duration": 0.1902,
      "velocity": 115,
      "chip": "ym2612"
    },
    {
      "channel": 0,
      "note": 70,
      "start": 46.4192,
      "duration": 0.2104,
      "velocity": 88,
      "chip": "ym2612"
    },
    {
      "channel": 5,
      "note": 51,
      "start": 46.4248,
      "duration": 0.2073,
      "velocity": 115,
      "chip": "ym2612"
    },
    {
      "channel": 0,
      "note": 68,
      "start": 46.6545,
      "duration": 0.2001,
      "velocity": 88,
      "chip": "ym2612"
    },
    {
      "channel": 3,
      "note": 87,
      "start": 46.66,
      "duration": 3.592,
      "velocity": 108,
      "chip": "ym2612"
    },
    {
      "channel": 4,
      "note": 32,
      "start": 46.6654,
      "duration": 0.4154,
      "velocity": 92,
      "chip": "ym2612"
    },
    {
      "channel": 5,
      "note": 44,
      "start": 46.6707,
      "duration": 0.3378,
      "velocity": 115,
      "chip": "ym2612"
    },
    {
      "channel": 0,
      "note": 71,
      "start": 46.8798,
      "duration": 0.2,
      "velocity": 88,
      "chip": "ym2612"
    },
    {
      "channel": 0,
      "note": 68,
      "start": 47.1048,
      "duration": 0.2001,
      "velocity": 88,
      "chip": "ym2612"
    },
    {
      "channel": 4,
      "note": 44,
      "start": 47.1103,
      "duration": 0.3995,
      "velocity": 92,
      "chip": "ym2612"
    },
    {
      "channel": 5,
      "note": 44,
      "start": 47.1157,
      "duration": 0.4154,
      "velocity": 115,
      "chip": "ym2612"
    },
    {
      "channel": 0,
      "note": 75,
      "start": 47.33,
      "duration": 0.2001,
      "velocity": 88,
      "chip": "ym2612"
    },
    {
      "channel": 0,
      "note": 78,
      "start": 47.5654,
      "duration": 0.1999,
      "velocity": 88,
      "chip": "ym2612"
    },
    {
      "channel": 4,
      "note": 44,
      "start": 47.5708,
      "duration": 0.4206,
      "velocity": 92,
      "chip": "ym2612"
    },
    {
      "channel": 5,
      "note": 56,
      "start": 47.5762,
      "duration": 0.1903,
      "velocity": 115,
      "chip": "ym2612"
    },
    {
      "channel": 0,
      "note": 75,
      "start": 47.7904,
      "duration": 0.2,
      "velocity": 88,
      "chip": "ym2612"
    },
    {
      "channel": 5,
      "note": 44,
      "start": 47.796,
      "duration": 0.4097,
      "velocity": 115,
      "chip": "ym2612"
    },
    {
      "channel": 0,
      "note": 70,
      "start": 48.0156,
      "duration": 0.1999,
      "velocity": 88,
      "chip": "ym2612"
    },
    {
      "channel": 4,
      "note": 32,
      "start": 48.0211,
      "duration": 0.4205,
      "velocity": 92,
      "chip": "ym2612"
    },
    {
      "channel": 0,
      "note": 71,
      "start": 48.2406,
      "duration": 0.2,
      "velocity": 88,
      "chip": "ym2612"
    },
    {
      "channel": 5,
      "note": 54,
      "start": 48.2463,
      "duration": 0.1962,
      "velocity": 115,
      "chip": "ym2612"
    },
    {
      "channel": 0,
      "note": 68,
      "start": 48.4658,
      "duration": 0.2102,
      "velocity": 88,
      "chip": "ym2612"
    },
    {
      "channel": 4,
      "note": 32,
      "start": 48.4713,
      "duration": 0.4309,
      "velocity": 92,
      "chip": "ym2612"
    },
    {
      "channel": 5,
      "note": 44,
      "start": 48.4766,
      "duration": 0.1895,
      "velocity": 115,
      "chip": "ym2612"
    },
    {
      "channel": 0,
      "note": 71,
      "start": 48.7012,
      "duration": 0.1999,
      "velocity": 88,
      "chip": "ym2612"
    },
    {
      "channel": 5,
      "note": 54,
      "start": 48.7068,
      "duration": 0.1962,
      "velocity": 115,
      "chip": "ym2612"
    },
    {
      "channel": 0,
      "note": 68,
      "start": 48.9262,
      "duration": 0.2,
      "velocity": 88,
      "chip": "ym2612"
    },
    {
      "channel": 4,
      "note": 44,
      "start": 48.9318,
      "duration": 0.3994,
      "velocity": 92,
      "chip": "ym2612"
    },
    {
      "channel": 5,
      "note": 44,
      "start": 48.9371,
      "duration": 0.1902,
      "velocity": 115,
      "chip": "ym2612"
    },
    {
      "channel": 0,
      "note": 75,
      "start": 49.1513,
      "duration": 0.2,
      "velocity": 88,
      "chip": "ym2612"
    },
    {
      "channel": 5,
      "note": 54,
      "start": 49.1569,
      "duration": 0.1956,
      "velocity": 115,
      "chip": "ym2612"
    },
    {
      "channel": 0,
      "note": 78,
      "start": 49.3764,
      "duration": 0.2,
      "velocity": 88,
      "chip": "ym2612"
    },
    {
      "channel": 4,
      "note": 44,
      "start": 49.382,
      "duration": 0.4309,
      "velocity": 92,
      "chip": "ym2612"
    },
    {
      "channel": 5,
      "note": 49,
      "start": 49.3874,
      "duration": 0.1902,
      "velocity": 115,
      "chip": "ym2612"
    },
    {
      "channel": 0,
      "note": 75,
      "start": 49.6117,
      "duration": 0.2001,
      "velocity": 88,
      "chip": "ym2612"
    },
    {
      "channel": 5,
      "note": 51,
      "start": 49.6175,
      "duration": 0.1962,
      "velocity": 115,
      "chip": "ym2612"
    },
    {
      "channel": 0,
      "note": 70,
      "start": 49.8368,
      "duration": 0.2001,
      "velocity": 88,
      "chip": "ym2612"
    },
    {
      "channel": 4,
      "note": 32,
      "start": 49.8423,
      "duration": 0.421,
      "velocity": 92,
      "chip": "ym2612"
    },
    {
      "channel": 5,
      "note": 52,
      "start": 49.8478,
      "duration": 0.1902,
      "velocity": 115,
      "chip": "ym2612"
    },
    {
      "channel": 0,
      "note": 71,
      "start": 50.062,
      "duration": 0.2,
      "velocity": 88,
      "chip": "ym2612"
    },
    {
      "channel": 5,
      "note": 51,
      "start": 50.0676,
      "duration": 0.1965,
      "velocity": 115,
      "chip": "ym2612"
    },
    {
      "channel": 0,
      "note": 70,
      "start": 50.2871,
      "duration": 0.2,
      "velocity": 88,
      "chip": "ym2612"
    },
    {
      "channel": 3,
      "note": 82,
      "start": 50.2925,
      "duration": 3.6132,
      "velocity": 108,
      "chip": "ym2612"
    },
    {
      "channel": 4,
      "note": 32,
      "start": 50.2979,
      "duration": 0.4256,
      "velocity": 92,
      "chip": "ym2612"
    },
    {
      "channel": 5,
      "note": 44,
      "start": 50.3032,
      "duration": 0.3378,
      "velocity": 115,
      "chip": "ym2612"
    },
    {
      "channel": 0,
      "note": 71,
      "start": 50.5122,
      "duration": 0.2103,
      "velocity": 88,
      "chip": "ym2612"
    },
    {
      "channel": 0,
      "note": 70,
      "start": 50.7476,
      "duration": 0.2,
      "velocity": 88,
      "chip": "ym2612"
    },
    {
      "channel": 4,
      "note": 44,
      "start": 50.7532,
      "duration": 0.3892,
      "velocity": 92,
      "chip": "ym2612"
    },
    {
      "channel": 5,
      "note": 44,
      "start": 50.7585,
      "duration": 0.4153,
      "velocity": 115,
      "chip": "ym2612"
    },
    {
      "channel": 0,
      "note": 73,
      "start": 50.9727,
      "duration": 0.2,
      "velocity": 88,
      "chip": "ym2612"
    },
    {
      "channel": 0,
      "note": 76,
      "start": 51.1979,
      "duration": 0.1999,
      "velocity": 88,
      "chip": "ym2612"
    },
    {
      "channel": 4,
      "note": 44,
      "start": 51.2034,
      "duration": 0.4205,
      "velocity": 92,
      "chip": "ym2612"
    },
    {
      "channel": 5,
      "note": 56,
      "start": 51.2087,
      "duration": 0.1902,
      "velocity": 115,
      "chip": "ym2612"
    },
    {
      "channel": 0,
      "note": 75,
      "start": 51.4229,
      "duration": 0.2001,
      "velocity": 88,
      "chip": "ym2612"
    },
    {
      "channel": 5,
      "note": 44,
      "start": 51.4285,
      "duration": 0.42,
      "velocity": 115,
      "chip": "ym2612"
    },
    {
      "channel": 0,
      "note": 73,
      "start": 51.6582,
      "duration": 0.2,
      "velocity": 88,
      "chip": "ym2612"
    },
    {
      "channel": 4,
      "note": 32,
      "start": 51.6638,
      "duration": 0.4205,
      "velocity": 92,
      "chip": "ym2612"
    },
    {
      "channel": 0,
      "note": 75,
      "start": 51.8834,
      "duration": 0.1999,
      "velocity": 88,
      "chip": "ym2612"
    },
    {
      "channel": 5,
      "note": 54,
      "start": 51.889,
      "duration": 0.1962,
      "velocity": 115,
      "chip": "ym2612"
    },
    {
      "channel": 0,
      "note": 70,
      "start": 52.1085,
      "duration": 0.2,
      "velocity": 88,
      "chip": "ym2612"
    },
    {
      "channel": 4,
      "note": 32,
      "start": 52.1141,
      "duration": 0.4205,
      "velocity": 92,
      "chip": "ym2612"
    },
    {
      "channel": 5,
      "note": 44,
      "start": 52.1194,
      "duration": 0.1792,
      "velocity": 115,
      "chip": "ym2612"
    },
    {
      "channel": 0,
      "note": 71,
      "start": 52.3337,
      "duration": 0.1999,
      "velocity": 88,
      "chip": "ym2612"
    },
    {
      "channel": 5,
      "note": 54,
      "start": 52.3393,
      "duration": 0.1962,
      "velocity": 115,
      "chip": "ym2612"
    },
    {
      "channel": 0,
      "note": 70,
      "start": 52.5587,
      "duration": 0.2103,
      "velocity": 88,
      "chip": "ym2612"
    },
    {
      "channel": 4,
      "note": 44,
      "start": 52.5643,
      "duration": 0.3994,
      "velocity": 92,
      "chip": "ym2612"
    },
    {
      "channel": 5,
      "note": 44,
      "start": 52.5696,
      "duration": 0.2005,
      "velocity": 115,
      "chip": "ym2612"
    },
    {
      "channel": 0,
      "note": 76,
      "start": 52.794,
      "duration": 0.2,
      "velocity": 88,
      "chip": "ym2612"
    },
    {
      "channel": 5,
      "note": 54,
      "start": 52.7997,
      "duration": 0.1955,
      "velocity": 115,
      "chip": "ym2612"
    },
    {
      "channel": 0,
      "note": 75,
      "start": 53.0191,
      "duration": 0.2,
      "velocity": 88,
      "chip": "ym2612"
    },
    {
      "channel": 4,
      "note": 44,
      "start": 53.0246,
      "duration": 0.4207,
      "velocity": 92,
      "chip": "ym2612"
    },
    {
      "channel": 5,
      "note": 49,
      "start": 53.03,
      "duration": 0.1902,
      "velocity": 115,
      "chip": "ym2612"
    },
    {
      "channel": 0,
      "note": 73,
      "start": 53.2443,
      "duration": 0.2,
      "velocity": 88,
      "chip": "ym2612"
    },
    {
      "channel": 5,
      "note": 51,
      "start": 53.25,
      "duration": 0.1963,
      "velocity": 115,
      "chip": "ym2612"
    },
    {
      "channel": 0,
      "note": 71,
      "start": 53.4694,
      "duration": 0.2001,
      "velocity": 88,
      "chip": "ym2612"
    },
    {
      "channel": 4,
      "note": 32,
      "start": 53.4748,
      "duration": 0.4317,
      "velocity": 92,
      "chip": "ym2612"
    },
    {
      "channel": 5,
      "note": 52,
      "start": 53.4803,
      "duration": 0.1902,
      "velocity": 115,
      "chip": "ym2612"
    },
    {
      "channel": 0,
      "note": 70,
      "start": 53.7047,
      "duration": 0.2,
      "velocity": 88,
      "chip": "ym2612"
    },
    {
      "channel": 5,
      "note": 51,
      "start": 53.7103,
      "duration": 0.197,
      "velocity": 115,
      "chip": "ym2612"
    },
    {
      "channel": 1,
      "note": 71,
      "start": 53.93,
      "duration": 0.8854,
      "velocity": 113,
      "chip": "ym2612"
    },
    {
      "channel": 2,
      "note": 44,
      "start": 53.9353,
      "duration": 0.0821,
      "velocity": 106,
      "chip": "ym2612"
    },
    {
      "channel": 3,
      "note": 87,
      "start": 53.9406,
      "duration": 3.5983,
      "velocity": 108,
      "chip": "ym2612"
    },
    {
      "channel": 4,
      "note": 32,
      "start": 53.9459,
      "duration": 0.4101,
      "velocity": 92,
      "chip": "ym2612"
    },
    {
      "channel": 5,
      "note": 44,
      "start": 53.9514,
      "duration": 0.3324,
      "velocity": 115,
      "chip": "ym2612"
    },
    {
      "channel": 2,
      "note": 47,
      "start": 54.0426,
      "duration": 0.0875,
      "velocity": 106,
      "chip": "ym2612"
    },
    {
      "channel": 2,
      "note": 49,
      "start": 54.1551,
      "duration": 0.0875,
      "velocity": 106,
      "chip": "ym2612"
    },
    {
      "channel": 2,
      "note": 51,
      "start": 54.2678,
      "duration": 0.0873,
      "velocity": 106,
      "chip": "ym2612"
    },
    {
      "channel": 2,
      "note": 54,
      "start": 54.3803,
      "duration": 0.0874,
      "velocity": 106,
      "chip": "ym2612"
    },
    {
      "channel": 4,
      "note": 44,
      "start": 54.3856,
      "duration": 0.3994,
      "velocity": 92,
      "chip": "ym2612"
    },
    {
      "channel": 5,
      "note": 44,
      "start": 54.391,
      "duration": 0.4263,
      "velocity": 115,
      "chip": "ym2612"
    },
    {
      "channel": 2,
      "note": 56,
      "start": 54.4928,
      "duration": 0.0875,
      "velocity": 106,
      "chip": "ym2612"
    },
    {
      "channel": 2,
      "note": 59,
      "start": 54.6053,
      "duration": 0.0875,
      "velocity": 106,
      "chip": "ym2612"
    },
    {
      "channel": 2,
      "note": 61,
      "start": 54.7281,
      "duration": 0.0882,
      "velocity": 106,
      "chip": "ym2612"
    },
    {
      "channel": 1,
      "note": 68,
      "start": 54.8406,
      "duration": 2.2465,
      "velocity": 113,
      "chip": "ym2612"
    },
    {
      "channel": 2,
      "note": 63,
      "start": 54.8459,
      "duration": 0.0822,
      "velocity": 106,
      "chip": "ym2612"
    },
    {
      "channel": 4,
      "note": 44,
      "start": 54.8514,
      "duration": 0.4153,
      "velocity": 92,
      "chip": "ym2612"
    },
    {
      "channel": 5,
      "note": 56,
      "start": 54.8567,
      "duration": 0.1849,
      "velocity": 115,
      "chip": "ym2612"
    },
    {
      "channel": 2,
      "note": 66,
      "start": 54.9532,
      "duration": 0.0875,
      "velocity": 106,
      "chip": "ym2612"
    },
    {
      "channel": 2,
      "note": 68,
      "start": 55.0659,
      "duration": 0.0874,
      "velocity": 106,
      "chip": "ym2612"
    },
    {
      "channel": 5,
      "note": 44,
      "start": 55.0713,
      "duration": 0.4205,
      "velocity": 115,
      "chip": "ym2612"
    },
    {
      "channel": 2,
      "note": 71,
      "start": 55.1783,
      "duration": 0.0875,
      "velocity": 106,
      "chip": "ym2612"
    },
    {
      "channel": 2,
      "note": 73,
      "start": 55.2909,
      "duration": 0.0875,
      "velocity": 106,
      "chip": "ym2612"
    },
    {
      "channel": 4,
      "note": 32,
      "start": 55.2964,
      "duration": 0.4205,
      "velocity": 92,
      "chip": "ym2612"
    },
    {
      "channel": 2,
      "note": 75,
      "start": 55.4035,
      "duration": 0.0875,
      "velocity": 106,
      "chip": "ym2612"
    },
    {
      "channel": 2,
      "note": 78,
      "start": 55.5161,
      "duration": 0.0874,
      "velocity": 106,
      "chip": "ym2612"
    },
    {
      "channel": 5,
      "note": 54,
      "start": 55.5216,
      "duration": 0.1962,
      "velocity": 115,
      "chip": "ym2612"
    },
    {
      "channel": 2,
      "note": 80,
      "start": 55.6286,
      "duration": 0.0875,
      "velocity": 106,
      "chip": "ym2612"
    },
    {
      "channel": 2,
      "note": 83,
      "start": 55.7515,
      "duration": 0.0873,
      "velocity": 106,
      "chip": "ym2612"
    },
    {
      "channel": 4,
      "note": 32,
      "start": 55.7568,
      "duration": 0.4205,
      "velocity": 92,
      "chip": "ym2612"
    },
    {
      "channel": 5,
      "note": 44,
      "start": 55.7622,
      "duration": 0.1792,
      "velocity": 115,
      "chip": "ym2612"
    },
    {
      "channel": 2,
      "note": 85,
      "start": 55.864,
      "duration": 0.0874,
      "velocity": 106,
      "chip": "ym2612"
    },
    {
      "channel": 2,
      "note": 87,
      "start": 55.9765,
      "duration": 0.0875,
      "velocity": 106,
      "chip": "ym2612"
    },
    {
      "channel": 5,
      "note": 54,
      "start": 55.982,
      "duration": 0.1962,
      "velocity": 115,
      "chip": "ym2612"
    },
    {
      "channel": 2,
      "note": 90,
      "start": 56.089,
      "duration": 0.0875,
      "velocity": 106,
      "chip": "ym2612"
    },
    {
      "channel": 2,
      "note": 92,
      "start": 56.2016,
      "duration": 0.0875,
      "velocity": 106,
      "chip": "ym2612"
    },
    {
      "channel": 4,
      "note": 44,
      "start": 56.207,
      "duration": 0.3995,
      "velocity": 92,
      "chip": "ym2612"
    },
    {
      "channel": 5,
      "note": 44,
      "start": 56.2123,
      "duration": 0.1903,
      "velocity": 115,
      "chip": "ym2612"
    },
    {
      "channel": 2,
      "note": 90,
      "start": 56.3143,
      "duration": 0.0873,
      "velocity": 106,
      "chip": "ym2612"
    },
    {
      "channel": 2,
      "note": 87,
      "start": 56.4267,
      "duration": 0.0875,
      "velocity": 106,
      "chip": "ym2612"
    },
    {
      "channel": 5,
      "note": 54,
      "start": 56.4323,
      "duration": 0.1954,
      "velocity": 115,
      "chip": "ym2612"
    },
    {
      "channel": 2,
      "note": 85,
      "start": 56.5393,
      "duration": 0.0875,
      "velocity": 106,
      "chip": "ym2612"
    },
    {
      "channel": 2,
      "note": 83,
      "start": 56.6518,
      "duration": 0.0875,
      "velocity": 106,
      "chip": "ym2612"
    },
    {
      "channel": 4,
      "note": 44,
      "start": 56.6571,
      "duration": 0.4317,
      "velocity": 92,
      "chip": "ym2612"
    },
    {
      "channel": 5,
      "note": 49,
      "start": 56.6625,
      "duration": 0.2006,
      "velocity": 115,
      "chip": "ym2612"
    },
    {
      "channel": 2,
      "note": 80,
      "start": 56.7746,
      "duration": 0.0874,
      "velocity": 106,
      "chip": "ym2612"
    },
    {
      "channel": 2,
      "note": 78,
      "start": 56.8872,
      "duration": 0.0875,
      "velocity": 106,
      "chip": "ym2612"
    },
    {
      "channel": 5,
      "note": 51,
      "start": 56.8926,
      "duration": 0.197,
      "velocity": 115,
      "chip": "ym2612"
    },
    {
      "channel": 2,
      "note": 75,
      "start": 56.9998,
      "duration": 0.0881,
      "velocity": 106,
      "chip": "ym2612"
    },
    {
      "channel": 1,
      "note": 71,
      "start": 57.1122,
      "duration": 0.4252,
      "velocity": 113,
      "chip": "ym2612"
    },
    {
      "channel": 2,
      "note": 73,
      "start": 57.1176,
      "duration": 0.0822,
      "velocity": 106,
      "chip": "ym2612"
    },
    {
      "channel": 4,
      "note": 32,
      "start": 57.123,
      "duration": 0.4168,
      "velocity": 92,
      "chip": "ym2612"
    },
    {
      "channel": 5,
      "note": 52,
      "start": 57.1283,
      "duration": 0.1851,
      "velocity": 115,
      "chip": "ym2612"
    },
    {
      "channel": 2,
      "note": 71,
      "start": 57.2248,
      "duration": 0.0875,
      "velocity": 106,
      "chip": "ym2612"
    },
    {
      "channel": 2,
      "note": 68,
      "start": 57.3374,
      "duration": 0.0874,
      "velocity": 106,
      "chip": "ym2612"
    },
    {
      "channel": 5,
      "note": 51,
      "start": 57.3428,
      "duration": 0.1978,
      "velocity": 115,
      "chip": "ym2612"
    },
    {
      "channel": 2,
      "note": 71,
      "start": 57.45,
      "duration": 0.0882,
      "velocity": 106,
      "chip": "ym2612"
    },
    {
      "channel": 1,
      "note": 76,
      "start": 57.5624,
      "duration": 1.3461,
      "velocity": 113,
      "chip": "ym2612"
    },
    {
      "channel": 2,
      "note": 44,
      "start": 57.5678,
      "duration": 0.0821,
      "velocity": 106,
      "chip": "ym2612"
    },
    {
      "channel": 3,
      "note": 82,
      "start": 57.5732,
      "duration": 3.5968,
      "velocity": 108,
      "chip": "ym2612"
    },
    {
      "channel": 4,
      "note": 32,
      "start": 57.5785,
      "duration": 0.4203,
      "velocity": 92,
      "chip": "ym2612"
    },
    {
      "channel": 5,
      "note": 44,
      "start": 57.5839,
      "duration": 0.3326,
      "velocity": 115,
      "chip": "ym2612"
    },
    {
      "channel": 2,
      "note": 46,
      "start": 57.6751,
      "duration": 0.0875,
      "velocity": 106,
      "chip": "ym2612"
    },
    {
      "channel": 2,
      "note": 49,
      "start": 57.798,
      "duration": 0.0873,
      "velocity": 106,
      "chip": "ym2612"
    },
    {
      "channel": 2,
      "note": 51,
      "start": 57.9104,
      "duration": 0.0875,
      "velocity": 106,
      "chip": "ym2612"
    },
    {
      "channel": 2,
      "note": 54,
      "start": 58.023,
      "duration": 0.0875,
      "velocity": 106,
      "chip": "ym2612"
    },
    {
      "channel": 4,
      "note": 44,
      "start": 58.0283,
      "duration": 0.3994,
      "velocity": 92,
      "chip": "ym2612"
    },
    {
      "channel": 5,
      "note": 44,
      "start": 58.0337,
      "duration": 0.4153,
      "velocity": 115,
      "chip": "ym2612"
    },
    {
      "channel": 2,
      "note": 56,
      "start": 58.1355,
      "duration": 0.0875,
      "velocity": 106,
      "chip": "ym2612"
    },
    {
      "channel": 2,
      "note": 58,
      "start": 58.2482,
      "duration": 0.0874,
      "velocity": 106,
      "chip": "ym2612"
    },
    {
      "channel": 2,
      "note": 61,
      "start": 58.3607,
      "duration": 0.0875,
      "velocity": 106,
      "chip": "ym2612"
    },
    {
      "channel": 2,
      "note": 63,
      "start": 58.4732,
      "duration": 0.0875,
      "velocity": 106,
      "chip": "ym2612"
    },
    {
      "channel": 4,
      "note": 44,
      "start": 58.4785,
      "duration": 0.4317,
      "velocity": 92,
      "chip": "ym2612"
    },
    {
      "channel": 5,
      "note": 56,
      "start": 58.484,
      "duration": 0.1902,
      "velocity": 115,
      "chip": "ym2612"
    },
    {
      "channel": 2,
      "note": 66,
      "start": 58.5858,
      "duration": 0.0875,
      "velocity": 106,
      "chip": "ym2612"
    },
    {
      "channel": 2,
      "note": 68,
      "start": 58.6984,
      "duration": 0.0873,
      "velocity": 106,
      "chip": "ym2612"
    },
    {
      "channel": 5,
      "note": 44,
      "start": 58.7038,
      "duration": 0.4199,
      "velocity": 115,
      "chip": "ym2612"
    },
    {
      "channel": 2,
      "note": 70,
      "start": 58.8211,
      "duration": 0.0882,
      "velocity": 106,
      "chip": "ym2612"
    },
    {
      "channel": 1,
      "note": 75,
      "start": 58.9337,
      "duration": 0.4251,
      "velocity": 113,
      "chip": "ym2612"
    },
    {
      "channel": 2,
      "note": 73,
      "start": 58.939,
      "duration": 0.0822,
      "velocity": 106,
      "chip": "ym2612"
    },
    {
      "channel": 4,
      "note": 32,
      "start": 58.9444,
      "duration": 0.416,
      "velocity": 92,
      "chip": "ym2612"
    },
    {
      "channel": 2,
      "note": 75,
      "start": 59.0463,
      "duration": 0.0873,
      "velocity": 106,
      "chip": "ym2612"
    },
    {
      "channel": 2,
      "note": 78,
      "start": 59.1588,
      "duration": 0.0875,
      "velocity": 106,
      "chip": "ym2612"
    },
    {
      "channel": 5,
      "note": 54,
      "start": 59.1643,
      "duration": 0.1969,
      "velocity": 115,
      "chip": "ym2612"
    },
    {
      "channel": 2,
      "note": 80,
      "start": 59.2713,
      "duration": 0.0882,
      "velocity": 106,
      "chip": "ym2612"
    },
    {
      "channel": 1,
      "note": 70,
      "start": 59.3839,
      "duration": 1.7962,
      "velocity": 113,
      "chip": "ym2612"
    },
    {
      "channel": 2,
      "note": 70,
      "start": 59.3892,
      "duration": 0.0821,
      "velocity": 106,
      "chip": "ym2612"
    },
    {
      "channel": 4,
      "note": 32,
      "start": 59.3946,
      "duration": 0.4153,
      "velocity": 92,
      "chip": "ym2612"
    },
    {
      "channel": 5,
      "note": 44,
      "start": 59.4,
      "duration": 0.1849,
      "velocity": 115,
      "chip": "ym2612"
    },
    {
      "channel": 2,
      "note": 73,
      "start": 59.4965,
      "duration": 0.0874,
      "velocity": 106,
      "chip": "ym2612"
    },
    {
      "channel": 2,
      "note": 75,
      "start": 59.609,
      "duration": 0.0876,
      "velocity": 106,
      "chip": "ym2612"
    },
    {
      "channel": 5,
      "note": 54,
      "start": 59.6145,
      "duration": 0.1962,
      "velocity": 115,
      "chip": "ym2612"
    },
    {
      "channel": 2,
      "note": 78,
      "start": 59.7216,
      "duration": 0.0874,
      "velocity": 106,
      "chip": "ym2612"
    },
    {
      "channel": 2,
      "note": 75,
      "start": 59.8444,
      "duration": 0.0875,
      "velocity": 106,
      "chip": "ym2612"
    },
    {
      "channel": 4,
      "note": 44,
      "start": 59.8498,
      "duration": 0.3892,
      "velocity": 92,
      "chip": "ym2612"
    },
    {
      "channel": 5,
      "note": 44,
      "start": 59.8551,
      "duration": 0.1902,
      "velocity": 115,
      "chip": "ym2612"
    },
    {
      "channel": 2,
      "note": 73,
      "start": 59.9569,
      "duration": 0.0875,
      "velocity": 106,
      "chip": "ym2612"
    },
    {
      "channel": 2,
      "note": 70,
      "start": 60.0695,
      "duration": 0.0875,
      "velocity": 106,
      "chip": "ym2612"
    },
    {
      "channel": 5,
      "note": 54,
      "start": 60.0749,
      "duration": 0.1956,
      "velocity": 115,
      "chip": "ym2612"
    },
    {
      "channel": 2,
      "note": 68,
      "start": 60.1821,
      "duration": 0.0874,
      "velocity": 106,
      "chip": "ym2612"
    },
    {
      "channel": 2,
      "note": 66,
      "start": 60.2946,
      "duration": 0.0875,
      "velocity": 106,
      "chip": "ym2612"
    },
    {
      "channel": 4,
      "note": 44,
      "start": 60.3,
      "duration": 0.4206,
      "velocity": 92,
      "chip": "ym2612"
    },
    {
      "channel": 5,
      "note": 49,
      "start": 60.3054,
      "duration": 0.1902,
      "velocity": 115,
      "chip": "ym2612"
    },
    {
      "channel": 2,
      "note": 63,
      "start": 60.4071,
      "duration": 0.0875,
      "velocity": 106,
      "chip": "ym2612"
    },
    {
      "channel": 2,
      "note": 61,
      "start": 60.5197,
      "duration": 0.0875,
      "velocity": 106,
      "chip": "ym2612"
    },
    {
      "channel": 5,
      "note": 51,
      "start": 60.5251,
      "duration": 0.1963,
      "velocity": 115,
      "chip": "ym2612"
    },
    {
      "channel": 2,
      "note": 58,
      "start": 60.6323,
      "duration": 0.0874,
      "velocity": 106,
      "chip": "ym2612"
    },
    {
      "channel": 2,
      "note": 56,
      "start": 60.7448,
      "duration": 0.0875,
      "velocity": 106,
      "chip": "ym2612"
    },
    {
      "channel": 4,
      "note": 32,
      "start": 60.7503,
      "duration": 0.4317,
      "velocity": 92,
      "chip": "ym2612"
    },
    {
      "channel": 5,
      "note": 52,
      "start": 60.7556,
      "duration": 0.2004,
      "velocity": 115,
      "chip": "ym2612"
    },
    {
      "channel": 2,
      "note": 54,
      "start": 60.8677,
      "duration": 0.0873,
      "velocity": 106,
      "chip": "ym2612"
    },
    {
      "channel": 2,
      "note": 51,
      "start": 60.9802,
      "duration": 0.0874,
      "velocity": 106,
      "chip": "ym2612"
    },
    {
      "channel": 5,
      "note": 51,
      "start": 60.9857,
      "duration": 0.1971,
      "velocity": 115,
      "chip": "ym2612"
    },
    {
      "channel": 2,
      "note": 49,
      "start": 61.0927,
      "duration": 0.0882,
      "velocity": 106,
      "chip": "ym2612"
    },
    {
      "channel": 0,
      "note": 68,
      "start": 61.2051,
      "duration": 0.2001,
      "velocity": 88,
      "chip": "ym2612"
    },
    {
      "channel": 1,
      "note": 71,
      "start": 61.2104,
      "duration": 0.8812,
      "velocity": 113,
      "chip": "ym2612"
    },
    {
      "channel": 2,
      "note": 44,
      "start": 61.2158,
      "duration": 0.0769,
      "velocity": 106,
      "chip": "ym2612"
    },
    {
      "channel": 3,
      "note": 87,
      "start": 61.2211,
      "duration": 3.5932,
      "velocity": 108,
      "chip": "ym2612"
    },
    {
      "channel": 4,
      "note": 32,
      "start": 61.2264,
      "duration": 0.4056,
      "velocity": 92,
      "chip": "ym2612"
    },
    {
      "channel": 5,
      "note": 44,
      "start": 61.2318,
      "duration": 0.3272,
      "velocity": 115,
      "chip": "ym2612"
    },
    {
      "channel": 2,
      "note": 47,
      "start": 61.3179,
      "duration": 0.0882,
      "velocity": 106,
      "chip": "ym2612"
    },
    {
      "channel": 0,
      "note": 71,
      "start": 61.4303,
      "duration": 0.2,
      "velocity": 88,
      "chip": "ym2612"
    },
    {
      "channel": 2,
      "note": 49,
      "start": 61.4357,
      "duration": 0.0821,
      "velocity": 106,
      "chip": "ym2612"
    },
    {
      "channel": 2,
      "note": 51,
      "start": 61.543,
      "duration": 0.0882,
      "velocity": 106,
      "chip": "ym2612"
    },
    {
      "channel": 0,
      "note": 68,
      "start": 61.6554,
      "duration": 0.2,
      "velocity": 88,
      "chip": "ym2612"
    },
    {
      "channel": 2,
      "note": 54,
      "start": 61.6607,
      "duration": 0.0823,
      "velocity": 106,
      "chip": "ym2612"
    },
    {
      "channel": 4,
      "note": 44,
      "start": 61.6662,
      "duration": 0.3941,
      "velocity": 92,
      "chip": "ym2612"
    },
    {
      "channel": 5,
      "note": 44,
      "start": 61.6715,
      "duration": 0.4218,
      "velocity": 115,
      "chip": "ym2612"
    },
    {
      "channel": 2,
      "note": 56,
      "start": 61.7682,
      "duration": 0.0881,
      "velocity": 106,
      "chip": "ym2612"
    },
    {
      "channel": 0,
      "note": 75,
      "start": 61.8907,
      "duration": 0.2,
      "velocity": 88,
      "chip": "ym2612"
    },
    {
      "channel": 2,
      "note": 59,
      "start": 61.8961,
      "duration": 0.0822,
      "velocity": 106,
      "chip": "ym2612"
    },
    {
      "channel": 2,
      "note": 61,
      "start": 62.0034,
      "duration": 0.0889,
      "velocity": 106,
      "chip": "ym2612"
    },
    {
      "channel": 0,
      "note": 78,
      "start": 62.1159,
      "duration": 0.2,
      "velocity": 88,
      "chip": "ym2612"
    },
    {
      "channel": 1,
      "note": 68,
      "start": 62.1211,
      "duration": 2.4671,
      "velocity": 113,
      "chip": "ym2612"
    },
    {
      "channel": 2,
      "note": 63,
      "start": 62.1265,
      "duration": 0.0769,
      "velocity": 106,
      "chip": "ym2612"
    },
    {
      "channel": 4,
      "note": 44,
      "start": 62.132,
      "duration": 0.4107,
      "velocity": 92,
      "chip": "ym2612"
    },
    {
      "channel": 5,
      "note": 56,
      "start": 62.1373,
      "duration": 0.1804,
      "velocity": 115,
      "chip": "ym2612"
    },
    {
      "channel": 2,
      "note": 66,
      "start": 62.2285,
      "duration": 0.0882,
      "velocity": 106,
      "chip": "ym2612"
    },
    {
      "channel": 0,
      "note": 75,
      "start": 62.3409,
      "duration": 0.2,
      "velocity": 88,
      "chip": "ym2612"
    },
    {
      "channel": 2,
      "note": 68,
      "start": 62.3464,
      "duration": 0.0821,
      "velocity": 106,
      "chip": "ym2612"
    },
    {
      "channel": 5,
      "note": 44,
      "start": 62.3519,
      "duration": 0.416,
      "velocity": 115,
      "chip": "ym2612"
    },
    {
      "channel": 2,
      "note": 71,
      "start": 62.4536,
      "duration": 0.0882,
      "velocity": 106,
      "chip": "ym2612"
    },
    {
      "channel": 0,
      "note": 70,
      "start": 62.5661,
      "duration": 0.1999,
      "velocity": 88,
      "chip": "ym2612"
    },
    {
      "channel": 2,
      "note": 73,
      "start": 62.5715,
      "duration": 0.0821,
      "velocity": 106,
      "chip": "ym2612"
    },
    {
      "channel": 4,
      "note": 32,
      "start": 62.5769,
      "duration": 0.4263,
      "velocity": 92,
      "chip": "ym2612"
    },
    {
      "channel": 2,
      "note": 75,
      "start": 62.6787,
      "duration": 0.0882,
      "velocity": 106,
      "chip": "ym2612"
    },
    {
      "channel": 0,
      "note": 71,
      "start": 62.7911,
      "duration": 0.2103,
      "velocity": 88,
      "chip": "ym2612"
    },
    {
      "channel": 2,
      "note": 78,
      "start": 62.7966,
      "duration": 0.0822,
      "velocity": 106,
      "chip": "ym2612"
    },
    {
      "channel": 5,
      "note": 54,
      "start": 62.8021,
      "duration": 0.2019,
      "velocity": 115,
      "chip": "ym2612"
    },
    {
      "channel": 2,
      "note": 80,
      "start": 62.9142,
      "duration": 0.0881,
      "velocity": 106,
      "chip": "ym2612"
    },
    {
      "channel": 0,
      "note": 68,
      "start": 63.0265,
      "duration": 0.2,
      "velocity": 88,
      "chip": "ym2612"
    },
    {
      "channel": 2,
      "note": 71,
      "start": 63.032,
      "duration": 0.0822,
      "velocity": 106,
      "chip": "ym2612"
    },
    {
      "channel": 4,
      "note": 32,
      "start": 63.0373,
      "duration": 0.4161,
      "velocity": 92,
      "chip": "ym2612"
    },
    {
      "channel": 5,
      "note": 44,
      "start": 63.0427,
      "duration": 0.174,
      "velocity": 115,
      "chip": "ym2612"
    },
    {
      "channel": 2,
      "note": 73,
      "start": 63.1392,
      "duration": 0.0882,
      "velocity": 106,
      "chip": "ym2612"
    },
    {
      "channel": 0,
      "note": 71,
      "start": 63.2516,
      "duration": 0.2,
      "velocity": 88,
      "chip": "ym2612"
    },
    {
      "channel": 2,
      "note": 75,
      "start": 63.257,
      "duration": 0.0822,
      "velocity": 106,
      "chip": "ym2612"
    },
    {
      "channel": 5,
      "note": 54,
      "start": 63.2624,
      "duration": 0.1917,
      "velocity": 115,
      "chip": "ym2612"
    },
    {
      "channel": 2,
      "note": 78,
      "start": 63.3644,
      "duration": 0.0881,
      "velocity": 106,
      "chip": "ym2612"
    },
    {
      "channel": 0,
      "note": 68,
      "start": 63.4767,
      "duration": 0.2,
      "velocity": 88,
      "chip": "ym2612"
    },
    {
      "channel": 2,
      "note": 80,
      "start": 63.4822,
      "duration": 0.0821,
      "velocity": 106,
      "chip": "ym2612"
    },
    {
      "channel": 4,
      "note": 44,
      "start": 63.4876,
      "duration": 0.3941,
      "velocity": 92,
      "chip": "ym2612"
    },
    {
      "channel": 5,
      "note": 44,
      "start": 63.4929,
      "duration": 0.1857,
      "velocity": 115,
      "chip": "ym2612"
    },
    {
      "channel": 2,
      "note": 78,
      "start": 63.5894,
      "duration": 0.0882,
      "velocity": 106,
      "chip": "ym2612"
    },
    {
      "channel": 0,
      "note": 75,
      "start": 63.7018,
      "duration": 0.2,
      "velocity": 88,
      "chip": "ym2612"
    },
    {
      "channel": 2,
      "note": 75,
      "start": 63.7071,
      "duration": 0.0823,
      "velocity": 106,
      "chip": "ym2612"
    },
    {
      "channel": 5,
      "note": 54,
      "start": 63.7127,
      "duration": 0.191,
      "velocity": 115,
      "chip": "ym2612"
    },
    {
      "channel": 2,
      "note": 73,
      "start": 63.8146,
      "duration": 0.0881,
      "velocity": 106,
      "chip": "ym2612"
    },
    {
      "channel": 0,
      "note": 78,
      "start": 63.9372,
      "duration": 0.2001,
      "velocity": 88,
      "chip": "ym2612"
    },
    {
      "channel": 2,
      "note": 71,
      "start": 63.9425,
      "duration": 0.0822,
      "velocity": 106,
      "chip": "ym2612"
    },
    {
      "channel": 4,
      "note": 44,
      "start": 63.948,
      "duration": 0.4162,
      "velocity": 92,
      "chip": "ym2612"
    },
    {
      "channel": 5,
      "note": 49,
      "start": 63.9533,
      "duration": 0.1858,
      "velocity": 115,
      "chip": "ym2612"
    },
    {
      "channel": 2,
      "note": 68,
      "start": 64.05,
      "duration": 0.0882,
      "velocity": 106,
      "chip": "ym2612"
    },
    {
      "channel": 0,
      "note": 75,
      "start": 64.1623,
      "duration": 0.2,
      "velocity": 88,
      "chip": "ym2612"
    },
    {
      "channel": 2,
      "note": 66,
      "start": 64.1678,
      "duration": 0.0821,
      "velocity": 106,
      "chip": "ym2612"
    },
    {
      "channel": 5,
      "note": 51,
      "start": 64.1732,
      "duration": 0.1917,
      "velocity": 115,
      "chip": "ym2612"
    },
    {
      "channel": 2,
      "note": 63,
      "start": 64.275,
      "duration": 0.0883,
      "velocity": 106,
      "chip": "ym2612"
    },
    {
      "channel": 0,
      "note": 70,
      "start": 64.3874,
      "duration": 0.2001,
      "velocity": 88,
      "chip": "ym2612"
    },
    {
      "channel": 2,
      "note": 61,
      "start": 64.3927,
      "duration": 0.0823,
      "velocity": 106,
      "chip": "ym2612"
    },
    {
      "channel": 4,
      "note": 32,
      "start": 64.3982,
      "duration": 0.4169,
      "velocity": 92,
      "chip": "ym2612"
    },
    {
      "channel": 5,
      "note": 52,
      "start": 64.4035,
      "duration": 0.1865,
      "velocity": 115,
      "chip": "ym2612"
    },
    {
      "channel": 2,
      "note": 59,
      "start": 64.5002,
      "duration": 0.0889,
      "velocity": 106,
      "chip": "ym2612"
    },
    {
      "channel": 0,
      "note": 71,
      "start": 64.6126,
      "duration": 0.2,
      "velocity": 88,
      "chip": "ym2612"
    },
    {
      "channel": 2,
      "note": 58,
      "start": 64.618,
      "duration": 0.0821,
      "velocity": 106,
      "chip": "ym2612"
    },
    {
      "channel": 5,
      "note": 51,
      "start": 64.6235,
      "duration": 0.1925,
      "velocity": 115,
      "chip": "ym2612"
    },
    {
      "channel": 2,
      "note": 56,
      "start": 64.7252,
      "duration": 0.0884,
      "velocity": 106,
      "chip": "ym2612"
    },
    {
      "channel": 0,
      "note": 70,
      "start": 64.8376,
      "duration": 0.2102,
      "velocity": 88,
      "chip": "ym2612"
    },
    {
      "channel": 1,
      "note": 66,
      "start": 64.8429,
      "duration": 2.7025,
      "velocity": 113,
      "chip": "ym2612"
    },
    {
      "channel": 2,
      "note": 44,
      "start": 64.8484,
      "duration": 0.0769,
      "velocity": 106,
      "chip": "ym2612"
    },
    {
      "channel": 3,
      "note": 82,
      "start": 64.8537,
      "duration": 3.6034,
      "velocity": 108,
      "chip": "ym2612"
    },
    {
      "channel": 4,
      "note": 32,
      "start": 64.8589,
      "duration": 0.4158,
      "velocity": 92,
      "chip": "ym2612"
    },
    {
      "channel": 5,
      "note": 44,
      "start": 64.8643,
      "duration": 0.3274,
      "velocity": 115,
      "chip": "ym2612"
    },
    {
      "channel": 2,
      "note": 46,
      "start": 64.9606,
      "duration": 0.0882,
      "velocity": 106,
      "chip": "ym2612"
    },
    {
      "channel": 0,
      "note": 71,
      "start": 65.073,
      "duration": 0.2,
      "velocity": 88,
      "chip": "ym2612"
    },
    {
      "channel": 2,
      "note": 49,
      "start": 65.0783,
      "duration": 0.0823,
      "velocity": 106,
      "chip": "ym2612"
    },
    {
      "channel": 2,
      "note": 51,
      "start": 65.1857,
      "duration": 0.0882,
      "velocity": 106,
      "chip": "ym2612"
    },
    {
      "channel": 0,
      "note": 70,
      "start": 65.2982,
      "duration": 0.1999,
      "velocity": 88,
      "chip": "ym2612"
    },
    {
      "channel": 2,
      "note": 54,
      "start": 65.3035,
      "duration": 0.0822,
      "velocity": 106,
      "chip": "ym2612"
    },
    {
      "channel": 4,
      "note": 44,
      "start": 65.3089,
      "duration": 0.3941,
      "velocity": 92,
      "chip": "ym2612"
    },
    {
      "channel": 5,
      "note": 44,
      "start": 65.3143,
      "duration": 0.4107,
      "velocity": 115,
      "chip": "ym2612"
    },
    {
      "channel": 2,
      "note": 56,
      "start": 65.4108,
      "duration": 0.0882,
      "velocity": 106,
      "chip": "ym2612"
    },
    {
      "channel": 0,
      "note": 73,
      "start": 65.5232,
      "duration": 0.2,
      "velocity": 88,
      "chip": "ym2612"
    },
    {
      "channel": 2,
      "note": 58,
      "start": 65.5286,
      "duration": 0.0822,
      "velocity": 106,
      "chip": "ym2612"
    },
    {
      "channel": 2,
      "note": 61,
      "start": 65.6359,
      "duration": 0.0882,
      "velocity": 106,
      "chip": "ym2612"
    },
    {
      "channel": 0,
      "note": 76,
      "start": 65.7484,
      "duration": 0.1999,
      "velocity": 88,
      "chip": "ym2612"
    },
    {
      "channel": 2,
      "note": 63,
      "start": 65.7538,
      "duration": 0.0822,
      "velocity": 106,
      "chip": "ym2612"
    },
    {
      "channel": 4,
      "note": 44,
      "start": 65.7592,
      "duration": 0.4263,
      "velocity": 92,
      "chip": "ym2612"
    },
    {
      "channel": 5,
      "note": 56,
      "start": 65.7646,
      "duration": 0.1856,
      "velocity": 115,
      "chip": "ym2612"
    },
    {
      "channel": 2,
      "note": 66,
      "start": 65.861,
      "duration": 0.0882,
      "velocity": 106,
      "chip": "ym2612"
    },
    {
      "channel": 0,
      "note": 75,
      "start": 65.9837,
      "duration": 0.2,
      "velocity": 88,
      "chip": "ym2612"
    },
    {
      "channel": 2,
      "note": 68,
      "start": 65.9891,
      "duration": 0.0822,
      "velocity": 106,
      "chip": "ym2612"
    },
    {
      "channel": 5,
      "note": 44,
      "start": 65.9946,
      "duration": 0.4043,
      "velocity": 115,
      "chip": "ym2612"
    },
    {
      "channel": 2,
      "note": 70,
      "start": 66.0965,
      "duration": 0.0882,
      "velocity": 106,
      "chip": "ym2612"
    },
    {
      "channel": 0,
      "note": 73,
      "start": 66.2088,
      "duration": 0.2,
      "velocity": 88,
      "chip": "ym2612"
    },
    {
      "channel": 2,
      "note": 73,
      "start": 66.2143,
      "duration": 0.0823,
      "velocity": 106,
      "chip": "ym2612"
    },
    {
      "channel": 4,
      "note": 32,
      "start": 66.2196,
      "duration": 0.4161,
      "velocity": 92,
      "chip": "ym2612"
    },
    {
      "channel": 2,
      "note": 75,
      "start": 66.3215,
      "duration": 0.0882,
      "velocity": 106,
      "chip": "ym2612"
    },
    {
      "channel": 0,
      "note": 75,
      "start": 66.434,
      "duration": 0.1999,
      "velocity": 88,
      "chip": "ym2612"
    },
    {
      "channel": 2,
      "note": 78,
      "start": 66.4393,
      "duration": 0.0822,
      "velocity": 106,
      "chip": "ym2612"
    },
    {
      "channel": 5,
      "note": 54,
      "start": 66.4448,
      "duration": 0.1917,
      "velocity": 115,
      "chip": "ym2612"
    },
    {
      "channel": 2,
      "note": 80,
      "start": 66.5467,
      "duration": 0.0881,
      "velocity": 106,
      "chip": "ym2612"
    },
    {
      "channel": 0,
      "note": 70,
      "start": 66.659,
      "duration": 0.2,
      "velocity": 88,
      "chip": "ym2612"
    },
    {
      "channel": 2,
      "note": 70,
      "start": 66.6645,
      "duration": 0.0823,
      "velocity": 106,
      "chip": "ym2612"
    },
    {
      "channel": 4,
      "note": 32,
      "start": 66.6699,
      "duration": 0.4264,
      "velocity": 92,
      "chip": "ym2612"
    },
    {
      "channel": 5,
      "note": 44,
      "start": 66.6751,
      "duration": 0.1858,
      "velocity": 115,
      "chip": "ym2612"
    },
    {
      "channel": 2,
      "note": 73,
      "start": 66.7717,
      "duration": 0.0882,
      "velocity": 106,
      "chip": "ym2612"
    },
    {
      "channel": 0,
      "note": 71,
      "start": 66.8842,
      "duration": 0.2101,
      "velocity": 88,
      "chip": "ym2612"
    },
    {
      "channel": 2,
      "note": 75,
      "start": 66.8896,
      "duration": 0.0822,
      "velocity": 106,
      "chip": "ym2612"
    },
    {
      "channel": 5,
      "note": 54,
      "start": 66.8951,
      "duration": 0.202,
      "velocity": 115,
      "chip": "ym2612"
    },
    {
      "channel": 2,
      "note": 78,
      "start": 67.0071,
      "duration": 0.0882,
      "velocity": 106,
      "chip": "ym2612"
    },
    {
      "channel": 0,
      "note": 70,
      "start": 67.1195,
      "duration": 0.2,
      "velocity": 88,
      "chip": "ym2612"
    },
    {
      "channel": 2,
      "note": 80,
      "start": 67.1248,
      "duration": 0.0822,
      "velocity": 106,
      "chip": "ym2612"
    },
    {
      "channel": 4,
      "note": 44,
      "start": 67.1303,
      "duration": 0.3839,
      "velocity": 92,
      "chip": "ym2612"
    },
    {
      "channel": 5,
      "note": 44,
      "start": 67.1356,
      "duration": 0.1857,
      "velocity": 115,
      "chip": "ym2612"
    },
    {
      "channel": 2,
      "note": 78,
      "start": 67.2323,
      "duration": 0.0881,
      "velocity": 106,
      "chip": "ym2612"
    },
    {
      "channel": 0,
      "note": 76,
      "start": 67.3446,
      "duration": 0.2001,
      "velocity": 88,
      "chip": "ym2612"
    },
    {
      "channel": 2,
      "note": 75,
      "start": 67.35,
      "duration": 0.0822,
      "velocity": 106,
      "chip": "ym2612"
    },
    {
      "channel": 5,
      "note": 54,
      "start": 67.3555,
      "duration": 0.1918,
      "velocity": 115,
      "chip": "ym2612"
    },
    {
      "channel": 2,
      "note": 73,
      "start": 67.4573,
      "duration": 0.089,
      "velocity": 106,
      "chip": "ym2612"
    },
    {
      "channel": 0,
      "note": 75,
      "start": 67.5697,
      "duration": 0.2001,
      "velocity": 88,
      "chip": "ym2612"
    },
    {
      "channel": 1,
      "note": 64,
      "start": 67.575,
      "duration": 0.4207,
      "velocity": 113,
      "chip": "ym2612"
    },
    {
      "channel": 2,
      "note": 70,
      "start": 67.5804,
      "duration": 0.0769,
      "velocity": 106,
      "chip": "ym2612"
    },
    {
      "channel": 4,
      "note": 44,
      "start": 67.5858,
      "duration": 0.4116,
      "velocity": 92,
      "chip": "ym2612"
    },
    {
      "channel": 5,
      "note": 49,
      "start": 67.5911,
      "duration": 0.1805,
      "velocity": 115,
      "chip": "ym2612"
    },
    {
      "channel": 2,
      "note": 68,
      "start": 67.6825,
      "duration": 0.0882,
      "velocity": 106,
      "chip": "ym2612"
    },
    {
      "channel": 0,
      "note": 73,
      "start": 67.7948,
      "duration": 0.2,
      "velocity": 88,
      "chip": "ym2612"
    },
    {
      "channel": 2,
      "note": 66,
      "start": 67.8003,
      "duration": 0.0822,
      "velocity": 106,
      "chip": "ym2612"
    },
    {
      "channel": 5,
      "note": 51,
      "start": 67.8058,
      "duration": 0.1925,
      "velocity": 115,
      "chip": "ym2612"
    },
    {
      "channel": 2,
      "note": 63,
      "start": 67.9075,
      "duration": 0.089,
      "velocity": 106,
      "chip": "ym2612"
    },
    {
      "channel": 0,
      "note": 71,
      "start": 68.0302,
      "duration": 0.1999,
      "velocity": 88,
      "chip": "ym2612"
    },
    {
      "channel": 1,
      "note": 63,
      "start": 68.0355,
      "duration": 0.431,
      "velocity": 113,
      "chip": "ym2612"
    },
    {
      "channel": 2,
      "note": 61,
      "start": 68.0409,
      "duration": 0.0769,
      "velocity": 106,
      "chip": "ym2612"
    },
    {
      "channel": 4,
      "note": 32,
      "start": 68.0463,
      "duration": 0.4115,
      "velocity": 92,
      "chip": "ym2612"
    },
    {
      "channel": 5,
      "note": 52,
      "start": 68.0517,
      "duration": 0.1803,
      "velocity": 115,
      "chip": "ym2612"
    },
    {
      "channel": 2,
      "note": 59,
      "start": 68.1428,
      "duration": 0.0882,
      "velocity": 106,
      "chip": "ym2612"
    },
    {
      "channel": 0,
      "note": 70,
      "start": 68.2552,
      "duration": 0.2001,
      "velocity": 88,
      "chip": "ym2612"
    },
    {
      "channel": 2,
      "note": 58,
      "start": 68.2606,
      "duration": 0.0823,
      "velocity": 106,
      "chip": "ym2612"
    },
    {
      "channel": 5,
      "note": 51,
      "start": 68.2662,
      "duration": 0.1924,
      "velocity": 115,
      "chip": "ym2612"
    },
    {
      "channel": 2,
      "note": 56,
      "start": 68.3681,
      "duration": 0.0881,
      "velocity": 106,
      "chip": "ym2612"
    },
    {
      "channel": 1,
      "note": 71,
      "start": 68.4806,
      "duration": 0.8855,
      "velocity": 113,
      "chip": "ym2612"
    },
    {
      "channel": 2,
      "note": 44,
      "start": 68.4858,
      "duration": 0.0822,
      "velocity": 106,
      "chip": "ym2612"
    },
    {
      "channel": 3,
      "note": 87,
      "start": 68.4912,
      "duration": 3.5983,
      "velocity": 108,
      "chip": "ym2612"
    },
    {
      "channel": 4,
      "note": 32,
      "start": 68.4966,
      "duration": 0.41,
      "velocity": 92,
      "chip": "ym2612"
    },
    {
      "channel": 5,
      "note": 44,
      "start": 68.5019,
      "duration": 0.3324,
      "velocity": 115,
      "chip": "ym2612"
    },
    {
      "channel": 2,
      "note": 47,
      "start": 68.5931,
      "duration": 0.0875,
      "velocity": 106,
      "chip": "ym2612"
    },
    {
      "channel": 2,
      "note": 49,
      "start": 68.7056,
      "duration": 0.0875,
      "velocity": 106,
      "chip": "ym2612"
    },
    {
      "channel": 2,
      "note": 51,
      "start": 68.8182,
      "duration": 0.0875,
      "velocity": 106,
      "chip": "ym2612"
    },
    {
      "channel": 2,
      "note": 54,
      "start": 68.9309,
      "duration": 0.0874,
      "velocity": 106,
      "chip": "ym2612"
    },
    {
      "channel": 4,
      "note": 44,
      "start": 68.9362,
      "duration": 0.3994,
      "velocity": 92,
      "chip": "ym2612"
    },
    {
      "channel": 5,
      "note": 44,
      "start": 68.9416,
      "duration": 0.4263,
      "velocity": 115,
      "chip": "ym2612"
    },
    {
      "channel": 2,
      "note": 56,
      "start": 69.0536,
      "duration": 0.0875,
      "velocity": 106,
      "chip": "ym2612"
    },
    {
      "channel": 2,
      "note": 59,
      "start": 69.1662,
      "duration": 0.0873,
      "velocity": 106,
      "chip": "ym2612"
    },
    {
      "channel": 2,
      "note": 61,
      "start": 69.2786,
      "duration": 0.0882,
      "velocity": 106,
      "chip": "ym2612"
    },
    {
      "channel": 1,
      "note": 68,
      "start": 69.3911,
      "duration": 2.0215,
      "velocity": 113,
      "chip": "ym2612"
    },
    {
      "channel": 2,
      "note": 63,
      "start": 69.3965,
      "duration": 0.0822,
      "velocity": 106,
      "chip": "ym2612"
    },
    {
      "channel": 4,
      "note": 44,
      "start": 69.4019,
      "duration": 0.4153,
      "velocity": 92,
      "chip": "ym2612"
    },
    {
      "channel": 5,
      "note": 56,
      "start": 69.4072,
      "duration": 0.185,
      "velocity": 115,
      "chip": "ym2612"
    },
    {
      "channel": 2,
      "note": 66,
      "start": 69.5038,
      "duration": 0.0875,
      "velocity": 106,
      "chip": "ym2612"
    },
    {
      "channel": 2,
      "note": 68,
      "start": 69.6164,
      "duration": 0.0874,
      "velocity": 106,
      "chip": "ym2612"
    },
    {
      "channel": 5,
      "note": 44,
      "start": 69.6219,
      "duration": 0.4205,
      "velocity": 115,
      "chip": "ym2612"
    },
    {
      "channel": 2,
      "note": 71,
      "start": 69.7289,
      "duration": 0.0875,
      "velocity": 106,
      "chip": "ym2612"
    },
    {
      "channel": 2,
      "note": 73,
      "start": 69.8414,
      "duration": 0.0875,
      "velocity": 106,
      "chip": "ym2612"
    },
    {
      "channel": 4,
      "note": 32,
      "start": 69.8469,
      "duration": 0.4308,
      "velocity": 92,
      "chip": "ym2612"
    },
    {
      "channel": 2,
      "note": 75,
      "start": 69.954,
      "duration": 0.0875,
      "velocity": 106,
      "chip": "ym2612"
    },
    {
      "channel": 2,
      "note": 78,
      "start": 70.0768,
      "duration": 0.0875,
      "velocity": 106,
      "chip": "ym2612"
    },
    {
      "channel": 5,
      "note": 54,
      "start": 70.0823,
      "duration": 0.1962,
      "velocity": 115,
      "chip": "ym2612"
    },
    {
      "channel": 2,
      "note": 80,
      "start": 70.1894,
      "duration": 0.0874,
      "velocity": 106,
      "chip": "ym2612"
    },
    {
      "channel": 2,
      "note": 71,
      "start": 70.3019,
      "duration": 0.0875,
      "velocity": 106,
      "chip": "ym2612"
    },
    {
      "channel": 4,
      "note": 32,
      "start": 70.3073,
      "duration": 0.4207,
      "velocity": 92,
      "chip": "ym2612"
    },
    {
      "channel": 5,
      "note": 44,
      "start": 70.3126,
      "duration": 0.1793,
      "velocity": 115,
      "chip": "ym2612"
    },
    {
      "channel": 2,
      "note": 73,
      "start": 70.4146,
      "duration": 0.0874,
      "velocity": 106,
      "chip": "ym2612"
    },
    {
      "channel": 2,
      "note": 75,
      "start": 70.5271,
      "duration": 0.0875,
      "velocity": 106,
      "chip": "ym2612"
    },
    {
      "channel": 5,
      "note": 54,
      "start": 70.5326,
      "duration": 0.1962,
      "velocity": 115,
      "chip": "ym2612"
    },
    {
      "channel": 2,
      "note": 78,
      "start": 70.6396,
      "duration": 0.0875,
      "velocity": 106,
      "chip": "ym2612"
    },
    {
      "channel": 2,
      "note": 80,
      "start": 70.7521,
      "duration": 0.0875,
      "velocity": 106,
      "chip": "ym2612"
    },
    {
      "channel": 4,
      "note": 44,
      "start": 70.7575,
      "duration": 0.3995,
      "velocity": 92,
      "chip": "ym2612"
    },
    {
      "channel": 5,
      "note": 44,
      "start": 70.7629,
      "duration": 0.1902,
      "velocity": 115,
      "chip": "ym2612"
    },
    {
      "channel": 2,
      "note": 78,
      "start": 70.8648,
      "duration": 0.0874,
      "velocity": 106,
      "chip": "ym2612"
    },
    {
      "channel": 2,
      "note": 75,
      "start": 70.9773,
      "duration": 0.0875,
      "velocity": 106,
      "chip": "ym2612"
    },
    {
      "channel": 5,
      "note": 54,
      "start": 70.9828,
      "duration": 0.2057,
      "velocity": 115,
      "chip": "ym2612"
    },
    {
      "channel": 2,
      "note": 73,
      "start": 71.1002,
      "duration": 0.0874,
      "velocity": 106,
      "chip": "ym2612"
    },
    {
      "channel": 2,
      "note": 71,
      "start": 71.2126,
      "duration": 0.0875,
      "velocity": 106,
      "chip": "ym2612"
    },
    {
      "channel": 4,
      "note": 44,
      "start": 71.218,
      "duration": 0.4206,
      "velocity": 92,
      "chip": "ym2612"
    },
    {
      "channel": 5,
      "note": 49,
      "start": 71.2234,
      "duration": 0.1911,
      "velocity": 115,
      "chip": "ym2612"
    },
    {
      "channel": 2,
      "note": 68,
      "start": 71.3251,
      "duration": 0.0884,
      "velocity": 106,
      "chip": "ym2612"
    },
    {
      "channel": 2,
      "note": 66,
      "start": 71.4378,
      "duration": 0.0875,
      "velocity": 106,
      "chip": "ym2612"
    },
    {
      "channel": 5,
      "note": 51,
      "start": 71.4432,
      "duration": 0.1963,
      "velocity": 115,
      "chip": "ym2612"
    },
    {
      "channel": 2,
      "note": 63,
      "start": 71.5503,
      "duration": 0.0874,
      "velocity": 106,
      "chip": "ym2612"
    },
    {
      "channel": 1,
      "note": 73,
      "start": 71.6629,
      "duration": 0.425,
      "velocity": 113,
      "chip": "ym2612"
    },
    {
      "channel": 2,
      "note": 61,
      "start": 71.6682,
      "duration": 0.0821,
      "velocity": 106,
      "chip": "ym2612"
    },
    {
      "channel": 4,
      "note": 32,
      "start": 71.6736,
      "duration": 0.4167,
      "velocity": 92,
      "chip": "ym2612"
    },
    {
      "channel": 5,
      "note": 52,
      "start": 71.6788,
      "duration": 0.1851,
      "velocity": 115,
      "chip": "ym2612"
    },
    {
      "channel": 2,
      "note": 59,
      "start": 71.7754,
      "duration": 0.0876,
      "velocity": 106,
      "chip": "ym2612"
    },
    {
      "channel": 2,
      "note": 56,
      "start": 71.8879,
      "duration": 0.0875,
      "velocity": 106,
      "chip": "ym2612"
    },
    {
      "channel": 5,
      "note": 51,
      "start": 71.8934,
      "duration": 0.1977,
      "velocity": 115,
      "chip": "ym2612"
    },
    {
      "channel": 2,
      "note": 59,
      "start": 72.0006,
      "duration": 0.0881,
      "velocity": 106,
      "chip": "ym2612"
    },
    {
      "channel": 1,
      "note": 76,
      "start": 72.1232,
      "duration": 1.3359,
      "velocity": 113,
      "chip": "ym2612"
    },
    {
      "channel": 2,
      "note": 44,
      "start": 72.1285,
      "duration": 0.0822,
      "velocity": 106,
      "chip": "ym2612"
    },
    {
      "channel": 3,
      "note": 82,
      "start": 72.1339,
      "duration": 3.5866,
      "velocity": 108,
      "chip": "ym2612"
    },
    {
      "channel": 4,
      "note": 32,
      "start": 72.1392,
      "duration": 0.4101,
      "velocity": 92,
      "chip": "ym2612"
    },
    {
      "channel": 5,
      "note": 44,
      "start": 72.1446,
      "duration": 0.3325,
      "velocity": 115,
      "chip": "ym2612"
    },
    {
      "channel": 2,
      "note": 46,
      "start": 72.2358,
      "duration": 0.0875,
      "velocity": 106,
      "chip": "ym2612"
    },
    {
      "channel": 2,
      "note": 49,
      "start": 72.3485,
      "duration": 0.0874,
      "velocity": 106,
      "chip": "ym2612"
    },
    {
      "channel": 2,
      "note": 51,
      "start": 72.461,
      "duration": 0.0875,
      "velocity": 106,
      "chip": "ym2612"
    },
    {
      "channel": 2,
      "note": 54,
      "start": 72.5735,
      "duration": 0.0875,
      "velocity": 106,
      "chip": "ym2612"
    },
    {
      "channel": 4,
      "note": 44,
      "start": 72.5788,
      "duration": 0.3995,
      "velocity": 92,
      "chip": "ym2612"
    },
    {
      "channel": 5,
      "note": 44,
      "start": 72.5843,
      "duration": 0.4153,
      "velocity": 115,
      "chip": "ym2612"
    },
    {
      "channel": 2,
      "note": 56,
      "start": 72.6861,
      "duration": 0.0875,
      "velocity": 106,
      "chip": "ym2612"
    },
    {
      "channel": 2,
      "note": 58,
      "start": 72.7988,
      "duration": 0.0873,
      "velocity": 106,
      "chip": "ym2612"
    },
    {
      "channel": 2,
      "note": 61,
      "start": 72.9112,
      "duration": 0.0875,
      "velocity": 106,
      "chip": "ym2612"
    },
    {
      "channel": 2,
      "note": 63,
      "start": 73.0237,
      "duration": 0.0875,
      "velocity": 106,
      "chip": "ym2612"
    },
    {
      "channel": 4,
      "note": 44,
      "start": 73.0291,
      "duration": 0.4317,
      "velocity": 92,
      "chip": "ym2612"
    },
    {
      "channel": 5,
      "note": 56,
      "start": 73.0346,
      "duration": 0.2004,
      "velocity": 115,
      "chip": "ym2612"
    },
    {
      "channel": 2,
      "note": 66,
      "start": 73.1466,
      "duration": 0.0873,
      "velocity": 106,
      "chip": "ym2612"
    },
    {
      "channel": 2,
      "note": 68,
      "start": 73.2591,
      "duration": 0.0875,
      "velocity": 106,
      "chip": "ym2612"
    },
    {
      "channel": 5,
      "note": 44,
      "start": 73.2646,
      "duration": 0.4096,
      "velocity": 115,
      "chip": "ym2612"
    },
    {
      "channel": 2,
      "note": 70,
      "start": 73.3717,
      "duration": 0.0882,
      "velocity": 106,
      "chip": "ym2612"
    },
    {
      "channel": 1,
      "note": 75,
      "start": 73.4842,
      "duration": 0.4251,
      "velocity": 113,
      "chip": "ym2612"
    },
    {
      "channel": 2,
      "note": 73,
      "start": 73.4895,
      "duration": 0.0822,
      "velocity": 106,
      "chip": "ym2612"
    },
    {
      "channel": 4,
      "note": 32,
      "start": 73.4949,
      "duration": 0.416,
      "velocity": 92,
      "chip": "ym2612"
    },
    {
      "channel": 2,
      "note": 75,
      "start": 73.5968,
      "duration": 0.0874,
      "velocity": 106,
      "chip": "ym2612"
    },
    {
      "channel": 2,
      "note": 78,
      "start": 73.7093,
      "duration": 0.0875,
      "velocity": 106,
      "chip": "ym2612"
    },
    {
      "channel": 5,
      "note": 54,
      "start": 73.7149,
      "duration": 0.1969,
      "velocity": 115,
      "chip": "ym2612"
    },
    {
      "channel": 2,
      "note": 80,
      "start": 73.8219,
      "duration": 0.0882,
      "velocity": 106,
      "chip": "ym2612"
    },
    {
      "channel": 1,
      "note": 70,
      "start": 73.9345,
      "duration": 1.3459,
      "velocity": 113,
      "chip": "ym2612"
    },
    {
      "channel": 2,
      "note": 70,
      "start": 73.9398,
      "duration": 0.0821,
      "velocity": 106,
      "chip": "ym2612"
    },
    {
      "channel": 4,
      "note": 32,
      "start": 73.9451,
      "duration": 0.4256,
      "velocity": 92,
      "chip": "ym2612"
    },
    {
      "channel": 5,
      "note": 44,
      "start": 73.9505,
      "duration": 0.1849,
      "velocity": 115,
      "chip": "ym2612"
    },
    {
      "channel": 2,
      "note": 73,
      "start": 74.0471,
      "duration": 0.0874,
      "velocity": 106,
      "chip": "ym2612"
    },
    {
      "channel": 2,
      "note": 75,
      "start": 74.1698,
      "duration": 0.0875,
      "velocity": 106,
      "chip": "ym2612"
    },
    {
      "channel": 5,
      "note": 54,
      "start": 74.1752,
      "duration": 0.1962,
      "velocity": 115,
      "chip": "ym2612"
    },
    {
      "channel": 2,
      "note": 78,
      "start": 74.2825,
      "duration": 0.0873,
      "velocity": 106,
      "chip": "ym2612"
    },
    {
      "channel": 2,
      "note": 75,
      "start": 74.3949,
      "duration": 0.0875,
      "velocity": 106,
      "chip": "ym2612"
    },
    {
      "channel": 4,
      "note": 44,
      "start": 74.4003,
      "duration": 0.3994,
      "velocity": 92,
      "chip": "ym2612"
    },
    {
      "channel": 5,
      "note": 44,
      "start": 74.4057,
      "duration": 0.1902,
      "velocity": 115,
      "chip": "ym2612"
    },
    {
      "channel": 2,
      "note": 73,
      "start": 74.5075,
      "duration": 0.0875,
      "velocity": 106,
      "chip": "ym2612"
    },
    {
      "channel": 2,
      "note": 70,
      "start": 74.62,
      "duration": 0.0875,
      "velocity": 106,
      "chip": "ym2612"
    },
    {
      "channel": 5,
      "note": 54,
      "start": 74.6255,
      "duration": 0.1956,
      "velocity": 115,
      "chip": "ym2612"
    },
    {
      "channel": 2,
      "note": 68,
      "start": 74.7327,
      "duration": 0.0874,
      "velocity": 106,
      "chip": "ym2612"
    },
    {
      "channel": 2,
      "note": 66,
      "start": 74.8451,
      "duration": 0.0875,
      "velocity": 106,
      "chip": "ym2612"
    },
    {
      "channel": 4,
      "note": 44,
      "start": 74.8506,
      "duration": 0.4316,
      "velocity": 92,
      "chip": "ym2612"
    },
    {
      "channel": 5,
      "note": 49,
      "start": 74.8559,
      "duration": 0.1903,
      "velocity": 115,
      "chip": "ym2612"
    },
    {
      "channel": 2,
      "note": 63,
      "start": 74.9577,
      "duration": 0.0874,
      "velocity": 106,
      "chip": "ym2612"
    },
    {
      "channel": 2,
      "note": 61,
      "start": 75.0702,
      "duration": 0.0875,
      "velocity": 106,
      "chip": "ym2612"
    },
    {
      "channel": 5,
      "note": 51,
      "start": 75.0757,
      "duration": 0.2072,
      "velocity": 115,
      "chip": "ym2612"
    },
    {
      "channel": 2,
      "note": 58,
      "start": 75.193,
      "duration": 0.0882,
      "velocity": 106,
      "chip": "ym2612"
    },
    {
      "channel": 1,
      "note": 70,
      "start": 75.3055,
      "duration": 0.4251,
      "velocity": 113,
      "chip": "ym2612"
    },
    {
      "channel": 2,
      "note": 56,
      "start": 75.3108,
      "duration": 0.0822,
      "velocity": 106,
      "chip": "ym2612"
    },
    {
      "channel": 4,
      "note": 32,
      "start": 75.3162,
      "duration": 0.4163,
      "velocity": 92,
      "chip": "ym2612"
    },
    {
      "channel": 5,
      "note": 52,
      "start": 75.3216,
      "duration": 0.185,
      "velocity": 115,
      "chip": "ym2612"
    },
    {
      "channel": 2,
      "note": 54,
      "start": 75.4182,
      "duration": 0.0875,
      "velocity": 106,
      "chip": "ym2612"
    },
    {
      "channel": 2,
      "note": 51,
      "start": 75.5308,
      "duration": 0.0873,
      "velocity": 106,
      "chip": "ym2612"
    },
    {
      "channel": 5,
      "note": 51,
      "start": 75.5363,
      "duration": 0.1971,
      "velocity": 115,
      "chip": "ym2612"
    },
    {
      "channel": 2,
      "note": 49,
      "start": 75.6433,
      "duration": 0.0882,
      "velocity": 106,
      "chip": "ym2612"
    },
    {
      "channel": 0,
      "note": 68,
      "start": 75.7557,
      "duration": 0.2,
      "velocity": 88,
      "chip": "ym2612"
    },
    {
      "channel": 1,
      "note": 71,
      "start": 75.761,
      "duration": 0.8811,
      "velocity": 113,
      "chip": "ym2612"
    },
    {
      "channel": 2,
      "note": 44,
      "start": 75.7664,
      "duration": 0.0769,
      "velocity": 106,
      "chip": "ym2612"
    },
    {
      "channel": 3,
      "note": 87,
      "start": 75.7717,
      "duration": 3.5918,
      "velocity": 108,
      "chip": "ym2612"
    },
    {
      "channel": 4,
      "note": 32,
      "start": 75.777,
      "duration": 0.4056,
      "velocity": 92,
      "chip": "ym2612"
    },
    {
      "channel": 5,
      "note": 44,
      "start": 75.7824,
      "duration": 0.3272,
      "velocity": 115,
      "chip": "ym2612"
    },
    {
      "channel": 2,
      "note": 47,
      "start": 75.8683,
      "duration": 0.0882,
      "velocity": 106,
      "chip": "ym2612"
    },
    {
      "channel": 0,
      "note": 71,
      "start": 75.9809,
      "duration": 0.1999,
      "velocity": 88,
      "chip": "ym2612"
    },
    {
      "channel": 2,
      "note": 49,
      "start": 75.9862,
      "duration": 0.0822,
      "velocity": 106,
      "chip": "ym2612"
    },
    {
      "channel": 2,
      "note": 51,
      "start": 76.0935,
      "duration": 0.0882,
      "velocity": 106,
      "chip": "ym2612"
    },
    {
      "channel": 0,
      "note": 68,
      "start": 76.2162,
      "duration": 0.2,
      "velocity": 88,
      "chip": "ym2612"
    },
    {
      "channel": 2,
      "note": 54,
      "start": 76.2216,
      "duration": 0.0822,
      "velocity": 106,
      "chip": "ym2612"
    },
    {
      "channel": 4,
      "note": 44,
      "start": 76.227,
      "duration": 0.3838,
      "velocity": 92,
      "chip": "ym2612"
    },
    {
      "channel": 5,
      "note": 44,
      "start": 76.2324,
      "duration": 0.4115,
      "velocity": 115,
      "chip": "ym2612"
    },
    {
      "channel": 2,
      "note": 56,
      "start": 76.3288,
      "duration": 0.0882,
      "velocity": 106,
      "chip": "ym2612"
    },
    {
      "channel": 0,
      "note": 75,
      "start": 76.4412,
      "duration": 0.2,
      "velocity": 88,
      "chip": "ym2612"
    },
    {
      "channel": 2,
      "note": 59,
      "start": 76.4467,
      "duration": 0.0821,
      "velocity": 106,
      "chip": "ym2612"
    },
    {
      "channel": 2,
      "note": 61,
      "start": 76.554,
      "duration": 0.0889,
      "velocity": 106,
      "chip": "ym2612"
    },
    {
      "channel": 0,
      "note": 78,
      "start": 76.6664,
      "duration": 0.1999,
      "velocity": 88,
      "chip": "ym2612"
    },
    {
      "channel": 1,
      "note": 75,
      "start": 76.6717,
      "duration": 2.467,
      "velocity": 113,
      "chip": "ym2612"
    },
    {
      "channel": 2,
      "note": 63,
      "start": 76.6771,
      "duration": 0.0769,
      "velocity": 106,
      "chip": "ym2612"
    },
    {
      "channel": 4,
      "note": 44,
      "start": 76.6825,
      "duration": 0.4107,
      "velocity": 92,
      "chip": "ym2612"
    },
    {
      "channel": 5,
      "note": 56,
      "start": 76.6879,
      "duration": 0.1803,
      "velocity": 115,
      "chip": "ym2612"
    },
    {
      "channel": 2,
      "note": 66,
      "start": 76.779,
      "duration": 0.0882,
      "velocity": 106,
      "chip": "ym2612"
    },
    {
      "channel": 0,
      "note": 75,
      "start": 76.8915,
      "duration": 0.2,
      "velocity": 88,
      "chip": "ym2612"
    },
    {
      "channel": 2,
      "note": 68,
      "start": 76.897,
      "duration": 0.0821,
      "velocity": 106,
      "chip": "ym2612"
    },
    {
      "channel": 5,
      "note": 44,
      "start": 76.9024,
      "duration": 0.4146,
      "velocity": 115,
      "chip": "ym2612"
    },
    {
      "channel": 2,
      "note": 71,
      "start": 77.0041,
      "duration": 0.0882,
      "velocity": 106,
      "chip": "ym2612"
    },
    {
      "channel": 0,
      "note": 70,
      "start": 77.1167,
      "duration": 0.2101,
      "velocity": 88,
      "chip": "ym2612"
    },
    {
      "channel": 2,
      "note": 73,
      "start": 77.122,
      "duration": 0.0822,
      "velocity": 106,
      "chip": "ym2612"
    },
    {
      "channel": 4,
      "note": 32,
      "start": 77.1274,
      "duration": 0.4263,
      "velocity": 92,
      "chip": "ym2612"
    },
    {
      "channel": 2,
      "note": 75,
      "start": 77.2395,
      "duration": 0.0882,
      "velocity": 106,
      "chip": "ym2612"
    },
    {
      "channel": 0,
      "note": 71,
      "start": 77.3519,
      "duration": 0.2001,
      "velocity": 88,
      "chip": "ym2612"
    },
    {
      "channel": 2,
      "note": 78,
      "start": 77.3573,
      "duration": 0.0822,
      "velocity": 106,
      "chip": "ym2612"
    },
    {
      "channel": 5,
      "note": 54,
      "start": 77.3629,
      "duration": 0.1917,
      "velocity": 115,
      "chip": "ym2612"
    },
    {
      "channel": 2,
      "note": 80,
      "start": 77.4647,
      "duration": 0.0882,
      "velocity": 106,
      "chip": "ym2612"
    },
    {
      "channel": 0,
      "note": 68,
      "start": 77.5771,
      "duration": 0.2,
      "velocity": 88,
      "chip": "ym2612"
    },
    {
      "channel": 2,
      "note": 71,
      "start": 77.5825,
      "duration": 0.0821,
      "velocity": 106,
      "chip": "ym2612"
    },
    {
      "channel": 4,
      "note": 32,
      "start": 77.5879,
      "duration": 0.4161,
      "velocity": 92,
      "chip": "ym2612"
    },
    {
      "channel": 5,
      "note": 44,
      "start": 77.5932,
      "duration": 0.174,
      "velocity": 115,
      "chip": "ym2612"
    },
    {
      "channel": 2,
      "note": 73,
      "start": 77.6898,
      "duration": 0.0882,
      "velocity": 106,
      "chip": "ym2612"
    },
    {
      "channel": 0,
      "note": 71,
      "start": 77.8022,
      "duration": 0.2,
      "velocity": 88,
      "chip": "ym2612"
    },
    {
      "channel": 2,
      "note": 75,
      "start": 77.8075,
      "duration": 0.0822,
      "velocity": 106,
      "chip": "ym2612"
    },
    {
      "channel": 5,
      "note": 54,
      "start": 77.8131,
      "duration": 0.1916,
      "velocity": 115,
      "chip": "ym2612"
    },
    {
      "channel": 2,
      "note": 78,
      "start": 77.915,
      "duration": 0.0881,
      "velocity": 106,
      "chip": "ym2612"
    },
    {
      "channel": 0,
      "note": 68,
      "start": 78.0273,
      "duration": 0.2001,
      "velocity": 88,
      "chip": "ym2612"
    },
    {
      "channel": 2,
      "note": 80,
      "start": 78.0327,
      "duration": 0.0822,
      "velocity": 106,
      "chip": "ym2612"
    },
    {
      "channel": 4,
      "note": 44,
      "start": 78.0381,
      "duration": 0.3941,
      "velocity": 92,
      "chip": "ym2612"
    },
    {
      "channel": 5,
      "note": 44,
      "start": 78.0434,
      "duration": 0.1858,
      "velocity": 115,
      "chip": "ym2612"
    },
    {
      "channel": 2,
      "note": 78,
      "start": 78.14,
      "duration": 0.0882,
      "velocity": 106,
      "chip": "ym2612"
    },
    {
      "channel": 0,
      "note": 75,
      "start": 78.2626,
      "duration": 0.2001,
      "velocity": 88,
      "chip": "ym2612"
    },
    {
      "channel": 2,
      "note": 75,
      "start": 78.2681,
      "duration": 0.0821,
      "velocity": 106,
      "chip": "ym2612"
    },
    {
      "channel": 5,
      "note": 54,
      "start": 78.2736,
      "duration": 0.191,
      "velocity": 115,
      "chip": "ym2612"
    },
    {
      "channel": 2,
      "note": 73,
      "start": 78.3754,
      "duration": 0.0883,
      "velocity": 106,
      "chip": "ym2612"
    },
    {
      "channel": 0,
      "note": 78,
      "start": 78.4878,
      "duration": 0.2,
      "velocity": 88,
      "chip": "ym2612"
    },
    {
      "channel": 2,
      "note": 71,
      "start": 78.4931,
      "duration": 0.0823,
      "velocity": 106,
      "chip": "ym2612"
    },
    {
      "channel": 4,
      "note": 44,
      "start": 78.4986,
      "duration": 0.4162,
      "velocity": 92,
      "chip": "ym2612"
    },
    {
      "channel": 5,
      "note": 49,
      "start": 78.5039,
      "duration": 0.1857,
      "velocity": 115,
      "chip": "ym2612"
    },
    {
      "channel": 2,
      "note": 68,
      "start": 78.6005,
      "duration": 0.0881,
      "velocity": 106,
      "chip": "ym2612"
    },
    {
      "channel": 0,
      "note": 75,
      "start": 78.7129,
      "duration": 0.2,
      "velocity": 88,
      "chip": "ym2612"
    },
    {
      "channel": 2,
      "note": 66,
      "start": 78.7183,
      "duration": 0.0822,
      "velocity": 106,
      "chip": "ym2612"
    },
    {
      "channel": 5,
      "note": 51,
      "start": 78.7237,
      "duration": 0.1918,
      "velocity": 115,
      "chip": "ym2612"
    },
    {
      "channel": 2,
      "note": 63,
      "start": 78.8255,
      "duration": 0.0884,
      "velocity": 106,
      "chip": "ym2612"
    },
    {
      "channel": 0,
      "note": 70,
      "start": 78.9379,
      "duration": 0.2001,
      "velocity": 88,
      "chip": "ym2612"
    },
    {
      "channel": 2,
      "note": 61,
      "start": 78.9433,
      "duration": 0.0823,
      "velocity": 106,
      "chip": "ym2612"
    },
    {
      "channel": 4,
      "note": 32,
      "start": 78.9488,
      "duration": 0.4265,
      "velocity": 92,
      "chip": "ym2612"
    },
    {
      "channel": 5,
      "note": 52,
      "start": 78.9541,
      "duration": 0.1864,
      "velocity": 115,
      "chip": "ym2612"
    },
    {
      "channel": 2,
      "note": 59,
      "start": 79.0508,
      "duration": 0.0888,
      "velocity": 106,
      "chip": "ym2612"
    },
    {
      "channel": 0,
      "note": 71,
      "start": 79.1632,
      "duration": 0.2102,
      "velocity": 88,
      "chip": "ym2612"
    },
    {
      "channel": 2,
      "note": 58,
      "start": 79.1685,
      "duration": 0.0822,
      "velocity": 106,
      "chip": "ym2612"
    },
    {
      "channel": 5,
      "note": 51,
      "start": 79.174,
      "duration": 0.2021,
      "velocity": 115,
      "chip": "ym2612"
    },
    {
      "channel": 2,
      "note": 56,
      "start": 79.286,
      "duration": 0.0882,
      "velocity": 106,
      "chip": "ym2612"
    },
    {
      "channel": 0,
      "note": 70,
      "start": 79.3985,
      "duration": 0.1999,
      "velocity": 88,
      "chip": "ym2612"
    },
    {
      "channel": 1,
      "note": 66,
      "start": 79.4038,
      "duration": 1.7814,
      "velocity": 113,
      "chip": "ym2612"
    },
    {
      "channel": 2,
      "note": 44,
      "start": 79.4091,
      "duration": 0.0769,
      "velocity": 106,
      "chip": "ym2612"
    },
    {
      "channel": 3,
      "note": 82,
      "start": 79.4145,
      "duration": 3.6073,
      "velocity": 108,
      "chip": "ym2612"
    },
    {
      "channel": 4,
      "note": 32,
      "start": 79.4198,
      "duration": 0.4055,
      "velocity": 92,
      "chip": "ym2612"
    },
    {
      "channel": 5,
      "note": 44,
      "start": 79.4251,
      "duration": 0.3272,
      "velocity": 115,
      "chip": "ym2612"
    },
    {
      "channel": 2,
      "note": 46,
      "start": 79.5112,
      "duration": 0.0882,
      "velocity": 106,
      "chip": "ym2612"
    },
    {
      "channel": 0,
      "note": 71,
      "start": 79.6235,
      "duration": 0.2001,
      "velocity": 88,
      "chip": "ym2612"
    },
    {
      "channel": 2,
      "note": 49,
      "start": 79.6288,
      "duration": 0.0823,
      "velocity": 106,
      "chip": "ym2612"
    },
    {
      "channel": 2,
      "note": 51,
      "start": 79.7362,
      "duration": 0.0882,
      "velocity": 106,
      "chip": "ym2612"
    },
    {
      "channel": 0,
      "note": 70,
      "start": 79.8488,
      "duration": 0.1999,
      "velocity": 88,
      "chip": "ym2612"
    },
    {
      "channel": 2,
      "note": 54,
      "start": 79.8541,
      "duration": 0.0822,
      "velocity": 106,
      "chip": "ym2612"
    },
    {
      "channel": 4,
      "note": 44,
      "start": 79.8595,
      "duration": 0.3941,
      "velocity": 92,
      "chip": "ym2612"
    },
    {
      "channel": 5,
      "note": 44,
      "start": 79.8649,
      "duration": 0.4108,
      "velocity": 115,
      "chip": "ym2612"
    },
    {
      "channel": 2,
      "note": 56,
      "start": 79.9613,
      "duration": 0.0882,
      "velocity": 106,
      "chip": "ym2612"
    },
    {
      "channel": 0,
      "note": 73,
      "start": 80.0737,
      "duration": 0.2001,
      "velocity": 88,
      "chip": "ym2612"
    },
    {
      "channel": 2,
      "note": 58,
      "start": 80.0791,
      "duration": 0.0823,
      "velocity": 106,
      "chip": "ym2612"
    },
    {
      "channel": 2,
      "note": 61,
      "start": 80.1865,
      "duration": 0.0882,
      "velocity": 106,
      "chip": "ym2612"
    },
    {
      "channel": 0,
      "note": 76,
      "start": 80.3091,
      "duration": 0.2,
      "velocity": 88,
      "chip": "ym2612"
    },
    {
      "channel": 2,
      "note": 63,
      "start": 80.3146,
      "duration": 0.0823,
      "velocity": 106,
      "chip": "ym2612"
    },
    {
      "channel": 4,
      "note": 44,
      "start": 80.3199,
      "duration": 0.4161,
      "velocity": 92,
      "chip": "ym2612"
    },
    {
      "channel": 5,
      "note": 56,
      "start": 80.3253,
      "duration": 0.1857,
      "velocity": 115,
      "chip": "ym2612"
    },
    {
      "channel": 2,
      "note": 66,
      "start": 80.4218,
      "duration": 0.0882,
      "velocity": 106,
      "chip": "ym2612"
    },
    {
      "channel": 0,
      "note": 75,
      "start": 80.5343,
      "duration": 0.1999,
      "velocity": 88,
      "chip": "ym2612"
    },
    {
      "channel": 2,
      "note": 68,
      "start": 80.5397,
      "duration": 0.0822,
      "velocity": 106,
      "chip": "ym2612"
    },
    {
      "channel": 5,
      "note": 44,
      "start": 80.5452,
      "duration": 0.4043,
      "velocity": 115,
      "chip": "ym2612"
    },
    {
      "channel": 2,
      "note": 70,
      "start": 80.647,
      "duration": 0.0881,
      "velocity": 106,
      "chip": "ym2612"
    },
    {
      "channel": 0,
      "note": 73,
      "start": 80.7593,
      "duration": 0.2,
      "velocity": 88,
      "chip": "ym2612"
    },
    {
      "channel": 2,
      "note": 73,
      "start": 80.7648,
      "duration": 0.0822,
      "velocity": 106,
      "chip": "ym2612"
    },
    {
      "channel": 4,
      "note": 32,
      "start": 80.7702,
      "duration": 0.4168,
      "velocity": 92,
      "chip": "ym2612"
    },
    {
      "channel": 2,
      "note": 75,
      "start": 80.872,
      "duration": 0.0882,
      "velocity": 106,
      "chip": "ym2612"
    },
    {
      "channel": 0,
      "note": 75,
      "start": 80.9846,
      "duration": 0.2,
      "velocity": 88,
      "chip": "ym2612"
    },
    {
      "channel": 2,
      "note": 78,
      "start": 80.9899,
      "duration": 0.0822,
      "velocity": 106,
      "chip": "ym2612"
    },
    {
      "channel": 5,
      "note": 54,
      "start": 80.9954,
      "duration": 0.1924,
      "velocity": 115,
      "chip": "ym2612"
    },
    {
      "channel": 2,
      "note": 80,
      "start": 81.0972,
      "duration": 0.0889,
      "velocity": 106,
      "chip": "ym2612"
    },
    {
      "channel": 0,
      "note": 70,
      "start": 81.2096,
      "duration": 0.2102,
      "velocity": 88,
      "chip": "ym2612"
    },
    {
      "channel": 1,
      "note": 71,
      "start": 81.215,
      "duration": 0.881,
      "velocity": 113,
      "chip": "ym2612"
    },
    {
      "channel": 2,
      "note": 70,
      "start": 81.2203,
      "duration": 0.0768,
      "velocity": 106,
      "chip": "ym2612"
    },
    {
      "channel": 4,
      "note": 32,
      "start": 81.2257,
      "duration": 0.4211,
      "velocity": 92,
      "chip": "ym2612"
    },
    {
      "channel": 5,
      "note": 44,
      "start": 81.2311,
      "duration": 0.1789,
      "velocity": 115,
      "chip": "ym2612"
    },
    {
      "channel": 2,
      "note": 73,
      "start": 81.3326,
      "duration": 0.0881,
      "velocity": 106,
      "chip": "ym2612"
    },
    {
      "channel": 0,
      "note": 71,
      "start": 81.4449,
      "duration": 0.2001,
      "velocity": 88,
      "chip": "ym2612"
    },
    {
      "channel": 2,
      "note": 75,
      "start": 81.4503,
      "duration": 0.0822,
      "velocity": 106,
      "chip": "ym2612"
    },
    {
      "channel": 5,
      "note": 54,
      "start": 81.4558,
      "duration": 0.1918,
      "velocity": 115,
      "chip": "ym2612"
    },
    {
      "channel": 2,
      "note": 78,
      "start": 81.5576,
      "duration": 0.0882,
      "velocity": 106,
      "chip": "ym2612"
    },
    {
      "channel": 0,
      "note": 70,
      "start": 81.67,
      "duration": 0.2001,
      "velocity": 88,
      "chip": "ym2612"
    },
    {
      "channel": 2,
      "note": 80,
      "start": 81.6754,
      "duration": 0.0823,
      "velocity": 106,
      "chip": "ym2612"
    },
    {
      "channel": 4,
      "note": 44,
      "start": 81.6809,
      "duration": 0.3941,
      "velocity": 92,
      "chip": "ym2612"
    },
    {
      "channel": 5,
      "note": 44,
      "start": 81.6861,
      "duration": 0.1858,
      "velocity": 115,
      "chip": "ym2612"
    },
    {
      "channel": 2,
      "note": 78,
      "start": 81.7829,
      "duration": 0.0881,
      "velocity": 106,
      "chip": "ym2612"
    },
    {
      "channel": 0,
      "note": 76,
      "start": 81.8951,
      "duration": 0.2001,
      "velocity": 88,
      "chip": "ym2612"
    },
    {
      "channel": 2,
      "note": 75,
      "start": 81.9006,
      "duration": 0.0822,
      "velocity": 106,
      "chip": "ym2612"
    },
    {
      "channel": 5,
      "note": 54,
      "start": 81.9061,
      "duration": 0.1918,
      "velocity": 115,
      "chip": "ym2612"
    },
    {
      "channel": 2,
      "note": 73,
      "start": 82.0078,
      "duration": 0.0891,
      "velocity": 106,
      "chip": "ym2612"
    },
    {
      "channel": 0,
      "note": 75,
      "start": 82.1202,
      "duration": 0.2001,
      "velocity": 88,
      "chip": "ym2612"
    },
    {
      "channel": 1,
      "note": 70,
      "start": 82.1255,
      "duration": 0.8928,
      "velocity": 113,
      "chip": "ym2612"
    },
    {
      "channel": 2,
      "note": 70,
      "start": 82.1309,
      "duration": 0.0769,
      "velocity": 106,
      "chip": "ym2612"
    },
    {
      "channel": 4,
      "note": 44,
      "start": 82.1363,
      "duration": 0.4211,
      "velocity": 92,
      "chip": "ym2612"
    },
    {
      "channel": 5,
      "note": 49,
      "start": 82.1416,
      "duration": 0.1805,
      "velocity": 115,
      "chip": "ym2612"
    },
    {
      "channel": 2,
      "note": 68,
      "start": 82.233,
      "duration": 0.0882,
      "velocity": 106,
      "chip": "ym2612"
    },
    {
      "channel": 0,
      "note": 73,
      "start": 82.3556,
      "duration": 0.2,
      "velocity": 88,
      "chip": "ym2612"
    },
    {
      "channel": 2,
      "note": 66,
      "start": 82.361,
      "duration": 0.0822,
      "velocity": 106,
      "chip": "ym2612"
    },
    {
      "channel": 5,
      "note": 51,
      "start": 82.3666,
      "duration": 0.1916,
      "velocity": 115,
      "chip": "ym2612"
    },
    {
      "channel": 2,
      "note": 63,
      "start": 82.4683,
      "duration": 0.0882,
      "velocity": 106,
      "chip": "ym2612"
    },
    {
      "channel": 0,
      "note": 71,
      "start": 82.5808,
      "duration": 0.1999,
      "velocity": 88,
      "chip": "ym2612"
    },
    {
      "channel": 2,
      "note": 61,
      "start": 82.5861,
      "duration": 0.0822,
      "velocity": 106,
      "chip": "ym2612"
    },
    {
      "channel": 4,
      "note": 32,
      "start": 82.5916,
      "duration": 0.4329,
      "velocity": 92,
      "chip": "ym2612"
    },
    {
      "channel": 5,
      "note": 52,
      "start": 82.597,
      "duration": 0.1856,
      "velocity": 115,
      "chip": "ym2612"
    },
    {
      "channel": 2,
      "note": 59,
      "start": 82.6934,
      "duration": 0.0882,
      "velocity": 106,
      "chip": "ym2612"
    },
    {
      "channel": 0,
      "note": 70,
      "start": 82.8058,
      "duration": 0.2103,
      "velocity": 88,
      "chip": "ym2612"
    },
    {
      "channel": 2,
      "note": 58,
      "start": 82.8112,
      "duration": 0.0823,
      "velocity": 106,
      "chip": "ym2612"
    },
    {
      "channel": 5,
      "note": 51,
      "start": 82.8168,
      "duration": 0.2104,
      "velocity": 115,
      "chip": "ym2612"
    },
    {
      "channel": 2,
      "note": 56,
      "start": 82.9185,
      "duration": 0.1013,
      "velocity": 106,
      "chip": "ym2612"
    },
    {
      "channel": 0,
      "note": 68,
      "start": 83.0385,
      "duration": 6.0759,
      "velocity": 113,
      "chip": "ym2612"
    },
    {
      "channel": 3,
      "note": 56,
      "start": 83.044,
      "duration": 0.1872,
      "velocity": 88,
      "chip": "ym2612"
    },
    {
      "channel": 4,
      "note": 32,
      "start": 83.0494,
      "duration": 0.0591,
      "velocity": 106,
      "chip": "ym2612"
    },
    {
      "channel": 4,
      "note": 35,
      "start": 83.1438,
      "duration": 0.0882,
      "velocity": 106,
      "chip": "ym2612"
    },
    {
      "channel": 1,
      "note": 76,
      "start": 83.2561,
      "duration": 0.0875,
      "velocity": 88,
      "chip": "ym2612"
    },
    {
      "channel": 3,
      "note": 59,
      "start": 83.2615,
      "duration": 0.1949,
      "velocity": 88,
      "chip": "ym2612"
    },
    {
      "channel": 4,
      "note": 39,
      "start": 83.2669,
      "duration": 0.0776,
      "velocity": 106,
      "chip": "ym2612"
    },
    {
      "channel": 4,
      "note": 42,
      "start": 83.3689,
      "duration": 0.0882,
      "velocity": 106,
      "chip": "ym2612"
    },
    {
      "channel": 1,
      "note": 73,
      "start": 83.4813,
      "duration": 0.0874,
      "velocity": 88,
      "chip": "ym2612"
    },
    {
      "channel": 3,
      "note": 63,
      "start": 83.4867,
      "duration": 0.1947,
      "velocity": 88,
      "chip": "ym2612"
    },
    {
      "channel": 4,
      "note": 44,
      "start": 83.492,
      "duration": 0.0777,
      "velocity": 106,
      "chip": "ym2612"
    },
    {
      "channel": 4,
      "note": 47,
      "start": 83.594,
      "duration": 0.0882,
      "velocity": 106,
      "chip": "ym2612"
    },
    {
      "channel": 1,
      "note": 78,
      "start": 83.7064,
      "duration": 0.0875,
      "velocity": 88,
      "chip": "ym2612"
    },
    {
      "channel": 3,
      "note": 56,
      "start": 83.7117,
      "duration": 0.1956,
      "velocity": 88,
      "chip": "ym2612"
    },
    {
      "channel": 4,
      "note": 51,
      "start": 83.7171,
      "duration": 0.0777,
      "velocity": 106,
      "chip": "ym2612"
    },
    {
      "channel": 1,
      "note": 73,
      "start": 83.8189,
      "duration": 0.0875,
      "velocity": 88,
      "chip": "ym2612"
    },
    {
      "channel": 4,
      "note": 54,
      "start": 83.8243,
      "duration": 0.0837,
      "velocity": 106,
      "chip": "ym2612"
    },
    {
      "channel": 3,
      "note": 64,
      "start": 83.9317,
      "duration": 0.2007,
      "velocity": 88,
      "chip": "ym2612"
    },
    {
      "channel": 4,
      "note": 56,
      "start": 83.937,
      "duration": 0.0822,
      "velocity": 106,
      "chip": "ym2612"
    },
    {
      "channel": 1,
      "note": 73,
      "start": 84.044,
      "duration": 0.0875,
      "velocity": 88,
      "chip": "ym2612"
    },
    {
      "channel": 4,
      "note": 59,
      "start": 84.0496,
      "duration": 0.0836,
      "velocity": 106,
      "chip": "ym2612"
    },
    {
      "channel": 1,
      "note": 80,
      "start": 84.1669,
      "duration": 0.0873,
      "velocity": 88,
      "chip": "ym2612"
    },
    {
      "channel": 3,
      "note": 61,
      "start": 84.1723,
      "duration": 0.1947,
      "velocity": 88,
      "chip": "ym2612"
    },
    {
      "channel": 4,
      "note": 63,
      "start": 84.1776,
      "duration": 0.0776,
      "velocity": 106,
      "chip": "ym2612"
    },
    {
      "channel": 4,
      "note": 66,
      "start": 84.2797,
      "duration": 0.088,
      "velocity": 106,
      "chip": "ym2612"
    },
    {
      "channel": 1,
      "note": 83,
      "start": 84.392,
      "duration": 0.0363,
      "velocity": 88,
      "chip": "ym2612"
    },
    {
      "channel": 3,
      "note": 56,
      "start": 84.3974,
      "duration": 0.0695,
      "velocity": 88,
      "chip": "ym2612"
    },
    {
      "channel": 4,
      "note": 68,
      "start": 84.4028,
      "duration": 0.0257,
      "velocity": 106,
      "chip": "ym2612"
    },
    {
      "channel": 4,
      "note": 71,
      "start": 84.4395,
      "duration": 0.0282,
      "velocity": 106,
      "chip": "ym2612"
    },
    {
      "channel": 1,
      "note": 80,
      "start": 84.4848,
      "duration": 0.0351,
      "velocity": 88,
      "chip": "ym2612"
    },
    {
      "channel": 3,
      "note": 66,
      "start": 84.4902,
      "duration": 0.0681,
      "velocity": 88,
      "chip": "ym2612"
    },
    {
      "channel": 4,
      "note": 75,
      "start": 84.4955,
      "duration": 0.0247,
      "velocity": 106,
      "chip": "ym2612"
    },
    {
      "channel": 4,
      "note": 78,
      "start": 84.5309,
      "duration": 0.028,
      "velocity": 106,
      "chip": "ym2612"
    },
    {
      "channel": 3,
      "note": 63,
      "start": 84.5756,
      "duration": 0.2,
      "velocity": 88,
      "chip": "ym2612"
    },
    {
      "channel": 4,
      "note": 32,
      "start": 84.5809,
      "duration": 0.0823,
      "velocity": 106,
      "chip": "ym2612"
    },
    {
      "channel": 4,
      "note": 35,
      "start": 84.6882,
      "duration": 0.0882,
      "velocity": 106,
      "chip": "ym2612"
    },
    {
      "channel": 1,
      "note": 76,
      "start": 84.8007,
      "duration": 0.0873,
      "velocity": 88,
      "chip": "ym2612"
    },
    {
      "channel": 3,
      "note": 56,
      "start": 84.806,
      "duration": 0.2049,
      "velocity": 88,
      "chip": "ym2612"
    },
    {
      "channel": 4,
      "note": 39,
      "start": 84.8113,
      "duration": 0.0776,
      "velocity": 106,
      "chip": "ym2612"
    },
    {
      "channel": 4,
      "note": 42,
      "start": 84.9236,
      "duration": 0.0882,
      "velocity": 106,
      "chip": "ym2612"
    },
    {
      "channel": 1,
      "note": 73,
      "start": 85.0359,
      "duration": 0.0875,
      "velocity": 88,
      "chip": "ym2612"
    },
    {
      "channel": 3,
      "note": 64,
      "start": 85.0412,
      "duration": 0.1948,
      "velocity": 88,
      "chip": "ym2612"
    },
    {
      "channel": 4,
      "note": 44,
      "start": 85.0466,
      "duration": 0.0777,
      "velocity": 106,
      "chip": "ym2612"
    },
    {
      "channel": 4,
      "note": 47,
      "start": 85.1488,
      "duration": 0.0882,
      "velocity": 106,
      "chip": "ym2612"
    },
    {
      "channel": 1,
      "note": 78,
      "start": 85.261,
      "duration": 0.0875,
      "velocity": 88,
      "chip": "ym2612"
    },
    {
      "channel": 3,
      "note": 61,
      "start": 85.2665,
      "duration": 0.1954,
      "velocity": 88,
      "chip": "ym2612"
    },
    {
      "channel": 4,
      "note": 51,
      "start": 85.2718,
      "duration": 0.0777,
      "velocity": 106,
      "chip": "ym2612"
    },
    {
      "channel": 1,
      "note": 73,
      "start": 85.3736,
      "duration": 0.0875,
      "velocity": 88,
      "chip": "ym2612"
    },
    {
      "channel": 4,
      "note": 54,
      "start": 85.379,
      "duration": 0.0839,
      "velocity": 106,
      "chip": "ym2612"
    },
    {
      "channel": 3,
      "note": 56,
      "start": 85.4863,
      "duration": 0.2008,
      "velocity": 88,
      "chip": "ym2612"
    },
    {
      "channel": 4,
      "note": 56,
      "start": 85.4916,
      "duration": 0.0822,
      "velocity": 106,
      "chip": "ym2612"
    },
    {
      "channel": 1,
      "note": 73,
      "start": 85.5988,
      "duration": 0.0874,
      "velocity": 88,
      "chip": "ym2612"
    },
    {
      "channel": 4,
      "note": 59,
      "start": 85.6042,
      "duration": 0.0836,
      "velocity": 106,
      "chip": "ym2612"
    },
    {
      "channel": 1,
      "note": 80,
      "start": 85.7112,
      "duration": 0.0875,
      "velocity": 88,
      "chip": "ym2612"
    },
    {
      "channel": 3,
      "note": 61,
      "start": 85.7167,
      "duration": 0.1947,
      "velocity": 88,
      "chip": "ym2612"
    },
    {
      "channel": 4,
      "note": 63,
      "start": 85.722,
      "duration": 0.0776,
      "velocity": 106,
      "chip": "ym2612"
    },
    {
      "channel": 4,
      "note": 66,
      "start": 85.824,
      "duration": 0.0882,
      "velocity": 106,
      "chip": "ym2612"
    },
    {
      "channel": 1,
      "note": 83,
      "start": 85.9466,
      "duration": 0.0354,
      "velocity": 88,
      "chip": "ym2612"
    },
    {
      "channel": 3,
      "note": 58,
      "start": 85.9521,
      "duration": 0.0699,
      "velocity": 88,
      "chip": "ym2612"
    },
    {
      "channel": 4,
      "note": 68,
      "start": 85.9573,
      "duration": 0.0256,
      "velocity": 106,
      "chip": "ym2612"
    },
    {
      "channel": 4,
      "note": 71,
      "start": 85.9946,
      "duration": 0.0277,
      "velocity": 106,
      "chip": "ym2612"
    },
    {
      "channel": 1,
      "note": 80,
      "start": 86.0391,
      "duration": 0.0358,
      "velocity": 88,
      "chip": "ym2612"
    },
    {
      "channel": 3,
      "note": 59,
      "start": 86.0444,
      "duration": 0.0687,
      "velocity": 88,
      "chip": "ym2612"
    },
    {
      "channel": 4,
      "note": 75,
      "start": 86.0499,
      "duration": 0.0253,
      "velocity": 106,
      "chip": "ym2612"
    },
    {
      "channel": 4,
      "note": 78,
      "start": 86.0859,
      "duration": 0.028,
      "velocity": 106,
      "chip": "ym2612"
    },
    {
      "channel": 3,
      "note": 56,
      "start": 86.1307,
      "duration": 0.1999,
      "velocity": 88,
      "chip": "ym2612"
    },
    {
      "channel": 4,
      "note": 32,
      "start": 86.136,
      "duration": 0.0822,
      "velocity": 106,
      "chip": "ym2612"
    },
    {
      "channel": 4,
      "note": 35,
      "start": 86.2433,
      "duration": 0.0882,
      "velocity": 106,
      "chip": "ym2612"
    },
    {
      "channel": 1,
      "note": 76,
      "start": 86.3556,
      "duration": 0.0875,
      "velocity": 88,
      "chip": "ym2612"
    },
    {
      "channel": 3,
      "note": 59,
      "start": 86.361,
      "duration": 0.1948,
      "velocity": 88,
      "chip": "ym2612"
    },
    {
      "channel": 4,
      "note": 39,
      "start": 86.3664,
      "duration": 0.0776,
      "velocity": 106,
      "chip": "ym2612"
    },
    {
      "channel": 4,
      "note": 42,
      "start": 86.4685,
      "duration": 0.0881,
      "velocity": 106,
      "chip": "ym2612"
    },
    {
      "channel": 1,
      "note": 73,
      "start": 86.5809,
      "duration": 0.0873,
      "velocity": 88,
      "chip": "ym2612"
    },
    {
      "channel": 3,
      "note": 63,
      "start": 86.5862,
      "duration": 0.205,
      "velocity": 88,
      "chip": "ym2612"
    },
    {
      "channel": 4,
      "note": 44,
      "start": 86.5916,
      "duration": 0.0776,
      "velocity": 106,
      "chip": "ym2612"
    },
    {
      "channel": 4,
      "note": 47,
      "start": 86.7038,
      "duration": 0.0882,
      "velocity": 106,
      "chip": "ym2612"
    },
    {
      "channel": 1,
      "note": 78,
      "start": 86.8162,
      "duration": 0.0874,
      "velocity": 88,
      "chip": "ym2612"
    },
    {
      "channel": 3,
      "note": 56,
      "start": 86.8215,
      "duration": 0.1955,
      "velocity": 88,
      "chip": "ym2612"
    },
    {
      "channel": 4,
      "note": 51,
      "start": 86.8269,
      "duration": 0.0777,
      "velocity": 106,
      "chip": "ym2612"
    },
    {
      "channel": 1,
      "note": 73,
      "start": 86.9286,
      "duration": 0.0875,
      "velocity": 88,
      "chip": "ym2612"
    },
    {
      "channel": 4,
      "note": 54,
      "start": 86.9342,
      "duration": 0.0837,
      "velocity": 106,
      "chip": "ym2612"
    },
    {
      "channel": 3,
      "note": 64,
      "start": 87.0414,
      "duration": 0.2008,
      "velocity": 88,
      "chip": "ym2612"
    },
    {
      "channel": 4,
      "note": 56,
      "start": 87.0467,
      "duration": 0.0822,
      "velocity": 106,
      "chip": "ym2612"
    },
    {
      "channel": 1,
      "note": 73,
      "start": 87.1538,
      "duration": 0.0875,
      "velocity": 88,
      "chip": "ym2612"
    },
    {
      "channel": 4,
      "note": 59,
      "start": 87.1592,
      "duration": 0.0837,
      "velocity": 106,
      "chip": "ym2612"
    },
    {
      "channel": 1,
      "note": 80,
      "start": 87.2664,
      "duration": 0.0873,
      "velocity": 88,
      "chip": "ym2612"
    },
    {
      "channel": 3,
      "note": 61,
      "start": 87.2718,
      "duration": 0.1947,
      "velocity": 88,
      "chip": "ym2612"
    },
    {
      "channel": 4,
      "note": 63,
      "start": 87.2771,
      "duration": 0.0776,
      "velocity": 106,
      "chip": "ym2612"
    },
    {
      "channel": 4,
      "note": 66,
      "start": 87.3791,
      "duration": 0.0882,
      "velocity": 106,
      "chip": "ym2612"
    },
    {
      "channel": 1,
      "note": 83,
      "start": 87.4914,
      "duration": 0.0358,
      "velocity": 88,
      "chip": "ym2612"
    },
    {
      "channel": 3,
      "note": 56,
      "start": 87.4969,
      "duration": 0.0693,
      "velocity": 88,
      "chip": "ym2612"
    },
    {
      "channel": 4,
      "note": 68,
      "start": 87.5022,
      "duration": 0.0254,
      "velocity": 106,
      "chip": "ym2612"
    },
    {
      "channel": 4,
      "note": 71,
      "start": 87.539,
      "duration": 0.0277,
      "velocity": 106,
      "chip": "ym2612"
    },
    {
      "channel": 1,
      "note": 80,
      "start": 87.5929,
      "duration": 0.036,
      "velocity": 88,
      "chip": "ym2612"
    },
    {
      "channel": 3,
      "note": 66,
      "start": 87.5984,
      "duration": 0.0695,
      "velocity": 88,
      "chip": "ym2612"
    },
    {
      "channel": 4,
      "note": 75,
      "start": 87.6037,
      "duration": 0.0255,
      "velocity": 106,
      "chip": "ym2612"
    },
    {
      "channel": 4,
      "note": 78,
      "start": 87.6408,
      "duration": 0.0275,
      "velocity": 106,
      "chip": "ym2612"
    },
    {
      "channel": 3,
      "note": 63,
      "start": 87.6853,
      "duration": 0.2,
      "velocity": 88,
      "chip": "ym2612"
    },
    {
      "channel": 4,
      "note": 32,
      "start": 87.6906,
      "duration": 0.0822,
      "velocity": 106,
      "chip": "ym2612"
    },
    {
      "channel": 4,
      "note": 35,
      "start": 87.798,
      "duration": 0.0881,
      "velocity": 106,
      "chip": "ym2612"
    },
    {
      "channel": 1,
      "note": 76,
      "start": 87.9102,
      "duration": 0.0875,
      "velocity": 88,
      "chip": "ym2612"
    },
    {
      "channel": 3,
      "note": 56,
      "start": 87.9157,
      "duration": 0.1947,
      "velocity": 88,
      "chip": "ym2612"
    },
    {
      "channel": 4,
      "note": 39,
      "start": 87.9211,
      "duration": 0.0776,
      "velocity": 106,
      "chip": "ym2612"
    },
    {
      "channel": 4,
      "note": 42,
      "start": 88.023,
      "duration": 0.0882,
      "velocity": 106,
      "chip": "ym2612"
    },
    {
      "channel": 1,
      "note": 73,
      "start": 88.1354,
      "duration": 0.0875,
      "velocity": 88,
      "chip": "ym2612"
    },
    {
      "channel": 3,
      "note": 64,
      "start": 88.1407,
      "duration": 0.1949,
      "velocity": 88,
      "chip": "ym2612"
    },
    {
      "channel": 4,
      "note": 44,
      "start": 88.1461,
      "duration": 0.0777,
      "velocity": 106,
      "chip": "ym2612"
    },
    {
      "channel": 4,
      "note": 47,
      "start": 88.2483,
      "duration": 0.0881,
      "velocity": 106,
      "chip": "ym2612"
    },
    {
      "channel": 1,
      "note": 78,
      "start": 88.3605,
      "duration": 0.0875,
      "velocity": 88,
      "chip": "ym2612"
    },
    {
      "channel": 3,
      "note": 61,
      "start": 88.366,
      "duration": 0.2057,
      "velocity": 88,
      "chip": "ym2612"
    },
    {
      "channel": 4,
      "note": 51,
      "start": 88.3713,
      "duration": 0.0777,
      "velocity": 106,
      "chip": "ym2612"
    },
    {
      "channel": 1,
      "note": 73,
      "start": 88.4834,
      "duration": 0.0873,
      "velocity": 88,
      "chip": "ym2612"
    },
    {
      "channel": 4,
      "note": 54,
      "start": 88.4888,
      "duration": 0.0837,
      "velocity": 106,
      "chip": "ym2612"
    },
    {
      "channel": 3,
      "note": 56,
      "start": 88.596,
      "duration": 0.2008,
      "velocity": 88,
      "chip": "ym2612"
    },
    {
      "channel": 4,
      "note": 56,
      "start": 88.6014,
      "duration": 0.0822,
      "velocity": 106,
      "chip": "ym2612"
    },
    {
      "channel": 1,
      "note": 73,
      "start": 88.7084,
      "duration": 0.0875,
      "velocity": 88,
      "chip": "ym2612"
    },
    {
      "channel": 4,
      "note": 59,
      "start": 88.7139,
      "duration": 0.0837,
      "velocity": 106,
      "chip": "ym2612"
    },
    {
      "channel": 1,
      "note": 80,
      "start": 88.821,
      "duration": 0.0875,
      "velocity": 88,
      "chip": "ym2612"
    },
    {
      "channel": 3,
      "note": 64,
      "start": 88.8263,
      "duration": 0.1948,
      "velocity": 88,
      "chip": "ym2612"
    },
    {
      "channel": 4,
      "note": 63,
      "start": 88.8318,
      "duration": 0.0776,
      "velocity": 106,
      "chip": "ym2612"
    },
    {
      "channel": 4,
      "note": 66,
      "start": 88.9339,
      "duration": 0.0881,
      "velocity": 106,
      "chip": "ym2612"
    },
    {
      "channel": 1,
      "note": 83,
      "start": 89.0461,
      "duration": 0.0358,
      "velocity": 88,
      "chip": "ym2612"
    },
    {
      "channel": 3,
      "note": 66,
      "start": 89.0515,
      "duration": 0.0695,
      "velocity": 88,
      "chip": "ym2612"
    },
    {
      "channel": 4,
      "note": 68,
      "start": 89.0569,
      "duration": 0.0253,
      "velocity": 106,
      "chip": "ym2612"
    },
    {
      "channel": 4,
      "note": 71,
      "start": 89.0936,
      "duration": 0.0278,
      "velocity": 106,
      "chip": "ym2612"
    },
    {
      "channel": 1,
      "note": 80,
      "start": 89.138,
      "duration": 0.0354,
      "velocity": 88,
      "chip": "ym2612"
    },
    {
      "channel": 3,
      "note": 63,
      "start": 89.1434,
      "duration": 0.0715,
      "velocity": 88,
      "chip": "ym2612"
    },
    {
      "channel": 4,
      "note": 75,
      "start": 89.1489,
      "duration": 0.025,
      "velocity": 106,
      "chip": "ym2612"
    },
    {
      "channel": 4,
      "note": 78,
      "start": 89.1851,
      "duration": 0.0301,
      "velocity": 106,
      "chip": "ym2612"
    },
    {
      "channel": 0,
      "note": 32,
      "start": 89.2384,
      "duration": 5.3402,
      "velocity": 92,
      "chip": "ym2612"
    }
  ]
}