{
  "track_name": "14 BGM 2 [Muddy Rescue Operation]",
  "duration_sec": 61.267,
  "sample_rate": 44100,
  "note_count": 468,
  "unique_pitches": 24,
  "pitch_range": 59,
  "avg_note_duration": 0.7227,
  "reconstruction_stats": {
    "notes_reconstructed": 468,
    "keyon_events": 468,
    "keyoff_events": 464,
    "orphan_keyons": 4,
    "unique_pitches": 24,
    "pitch_range": 59,
    "avg_duration_sec": 0.7227
  },
  "metadata": {
    "source": "I\\If\\14 BGM 2 [Muddy Rescue Operation].vgz"
  },
  "notes": [
    {
      "channel": 3,
      "note": -1,
      "start": 0.188,
      "duration": 61.0786,
      "velocity": 98,
      "chip": "ym2612"
    },
    {
      "channel": 4,
      "note": -1,
      "start": 0.188,
      "duration": 61.0786,
      "velocity": 98,
      "chip": "ym2612"
    },
    {
      "channel": 5,
      "note": -1,
      "start": 0.188,
      "duration": 61.0786,
      "velocity": 127,
      "chip": "ym2612"
    },
    {
      "channel": 0,
      "note": 80,
      "start": 0.21,
      "duration": 5.2537,
      "velocity": 103,
      "chip": "ym2612"
    },
    {
      "channel": 1,
      "note": 30,
      "start": 0.2104,
      "duration": 0.1653,
      "velocity": 123,
      "chip": "ym2612"
    },
    {
      "channel": 2,
      "note": 60,
      "start": 0.2107,
      "duration": 1.0499,
      "velocity": 82,
      "chip": "ym2612"
    },
    {
      "channel": 1,
      "note": 30,
      "start": 0.4313,
      "duration": 0.1656,
      "velocity": 123,
      "chip": "ym2612"
    },
    {
      "channel": 1,
      "note": 78,
      "start": 0.6525,
      "duration": 0.1656,
      "velocity": 127,
      "chip": "ym2612"
    },
    {
      "channel": 1,
      "note": 47,
      "start": 0.8737,
      "duration": 0.1657,
      "velocity": 120,
      "chip": "ym2612"
    },
    {
      "channel": 1,
      "note": 30,
      "start": 1.0951,
      "duration": 0.1655,
      "velocity": 123,
      "chip": "ym2612"
    },
    {
      "channel": 1,
      "note": 30,
      "start": 1.3162,
      "duration": 0.1656,
      "velocity": 123,
      "chip": "ym2612"
    },
    {
      "channel": 2,
      "note": 60,
      "start": 1.3162,
      "duration": 0.1656,
      "velocity": 82,
      "chip": "ym2612"
    },
    {
      "channel": 1,
      "note": 30,
      "start": 1.5374,
      "duration": 0.1656,
      "velocity": 123,
      "chip": "ym2612"
    },
    {
      "channel": 2,
      "note": 60,
      "start": 1.5375,
      "duration": 1.0505,
      "velocity": 82,
      "chip": "ym2612"
    },
    {
      "channel": 1,
      "note": 30,
      "start": 1.7586,
      "duration": 0.1656,
      "velocity": 123,
      "chip": "ym2612"
    },
    {
      "channel": 1,
      "note": 78,
      "start": 1.9798,
      "duration": 0.1659,
      "velocity": 127,
      "chip": "ym2612"
    },
    {
      "channel": 1,
      "note": 47,
      "start": 2.2011,
      "duration": 0.1656,
      "velocity": 120,
      "chip": "ym2612"
    },
    {
      "channel": 1,
      "note": 30,
      "start": 2.4223,
      "duration": 0.1657,
      "velocity": 123,
      "chip": "ym2612"
    },
    {
      "channel": 1,
      "note": 30,
      "start": 2.6435,
      "duration": 0.1656,
      "velocity": 123,
      "chip": "ym2612"
    },
    {
      "channel": 2,
      "note": 63,
      "start": 2.6436,
      "duration": 0.1656,
      "velocity": 82,
      "chip": "ym2612"
    },
    {
      "channel": 1,
      "note": 30,
      "start": 2.8648,
      "duration": 0.1656,
      "velocity": 123,
      "chip": "ym2612"
    },
    {
      "channel": 2,
      "note": 61,
      "start": 2.8648,
      "duration": 1.0504,
      "velocity": 82,
      "chip": "ym2612"
    },
    {
      "channel": 1,
      "note": 30,
      "start": 3.0861,
      "duration": 0.1654,
      "velocity": 123,
      "chip": "ym2612"
    },
    {
      "channel": 1,
      "note": 78,
      "start": 3.3071,
      "duration": 0.1656,
      "velocity": 127,
      "chip": "ym2612"
    },
    {
      "channel": 1,
      "note": 47,
      "start": 3.5283,
      "duration": 0.1656,
      "velocity": 120,
      "chip": "ym2612"
    },
    {
      "channel": 1,
      "note": 30,
      "start": 3.7496,
      "duration": 0.1656,
      "velocity": 123,
      "chip": "ym2612"
    },
    {
      "channel": 1,
      "note": 30,
      "start": 3.9708,
      "duration": 0.1656,
      "velocity": 123,
      "chip": "ym2612"
    },
    {
      "channel": 2,
      "note": 61,
      "start": 3.9708,
      "duration": 0.1656,
      "velocity": 82,
      "chip": "ym2612"
    },
    {
      "channel": 1,
      "note": 30,
      "start": 4.192,
      "duration": 0.1656,
      "velocity": 123,
      "chip": "ym2612"
    },
    {
      "channel": 2,
      "note": 56,
      "start": 4.1921,
      "duration": 0.8292,
      "velocity": 82,
      "chip": "ym2612"
    },
    {
      "channel": 1,
      "note": 30,
      "start": 4.4132,
      "duration": 0.1656,
      "velocity": 123,
      "chip": "ym2612"
    },
    {
      "channel": 1,
      "note": 78,
      "start": 4.6345,
      "duration": 0.1656,
      "velocity": 127,
      "chip": "ym2612"
    },
    {
      "channel": 1,
      "note": 47,
      "start": 4.8557,
      "duration": 0.1656,
      "velocity": 120,
      "chip": "ym2612"
    },
    {
      "channel": 1,
      "note": 30,
      "start": 5.0769,
      "duration": 0.1656,
      "velocity": 123,
      "chip": "ym2612"
    },
    {
      "channel": 2,
      "note": 58,
      "start": 5.077,
      "duration": 0.3867,
      "velocity": 82,
      "chip": "ym2612"
    },
    {
      "channel": 1,
      "note": 30,
      "start": 5.2981,
      "duration": 0.1656,
      "velocity": 123,
      "chip": "ym2612"
    },
    {
      "channel": 0,
      "note": 80,
      "start": 5.519,
      "duration": 4.6456,
      "velocity": 103,
      "chip": "ym2612"
    },
    {
      "channel": 1,
      "note": 30,
      "start": 5.5194,
      "duration": 0.1656,
      "velocity": 123,
      "chip": "ym2612"
    },
    {
      "channel": 2,
      "note": 60,
      "start": 5.5194,
      "duration": 1.0504,
      "velocity": 82,
      "chip": "ym2612"
    },
    {
      "channel": 1,
      "note": 30,
      "start": 5.7406,
      "duration": 0.1656,
      "velocity": 123,
      "chip": "ym2612"
    },
    {
      "channel": 1,
      "note": 78,
      "start": 5.9617,
      "duration": 0.1656,
      "velocity": 127,
      "chip": "ym2612"
    },
    {
      "channel": 1,
      "note": 47,
      "start": 6.1829,
      "duration": 0.1656,
      "velocity": 120,
      "chip": "ym2612"
    },
    {
      "channel": 1,
      "note": 30,
      "start": 6.4042,
      "duration": 0.1656,
      "velocity": 123,
      "chip": "ym2612"
    },
    {
      "channel": 1,
      "note": 30,
      "start": 6.6254,
      "duration": 0.1656,
      "velocity": 123,
      "chip": "ym2612"
    },
    {
      "channel": 2,
      "note": 60,
      "start": 6.6255,
      "duration": 0.1656,
      "velocity": 82,
      "chip": "ym2612"
    },
    {
      "channel": 1,
      "note": 30,
      "start": 6.8466,
      "duration": 0.1656,
      "velocity": 123,
      "chip": "ym2612"
    },
    {
      "channel": 2,
      "note": 60,
      "start": 6.8467,
      "duration": 1.0505,
      "velocity": 82,
      "chip": "ym2612"
    },
    {
      "channel": 1,
      "note": 30,
      "start": 7.068,
      "duration": 0.1655,
      "velocity": 123,
      "chip": "ym2612"
    },
    {
      "channel": 1,
      "note": 78,
      "start": 7.289,
      "duration": 0.1656,
      "velocity": 127,
      "chip": "ym2612"
    },
    {
      "channel": 1,
      "note": 47,
      "start": 7.5103,
      "duration": 0.1656,
      "velocity": 120,
      "chip": "ym2612"
    },
    {
      "channel": 1,
      "note": 30,
      "start": 7.7316,
      "duration": 0.1656,
      "velocity": 123,
      "chip": "ym2612"
    },
    {
      "channel": 1,
      "note": 30,
      "start": 7.9527,
      "duration": 0.1656,
      "velocity": 123,
      "chip": "ym2612"
    },
    {
      "channel": 2,
      "note": 63,
      "start": 7.9528,
      "duration": 0.1655,
      "velocity": 82,
      "chip": "ym2612"
    },
    {
      "channel": 1,
      "note": 30,
      "start": 8.174,
      "duration": 0.1656,
      "velocity": 123,
      "chip": "ym2612"
    },
    {
      "channel": 2,
      "note": 61,
      "start": 8.174,
      "duration": 1.0504,
      "velocity": 82,
      "chip": "ym2612"
    },
    {
      "channel": 1,
      "note": 30,
      "start": 8.3951,
      "duration": 0.1658,
      "velocity": 123,
      "chip": "ym2612"
    },
    {
      "channel": 1,
      "note": 78,
      "start": 8.6164,
      "duration": 0.1656,
      "velocity": 127,
      "chip": "ym2612"
    },
    {
      "channel": 1,
      "note": 47,
      "start": 8.8376,
      "duration": 0.1656,
      "velocity": 120,
      "chip": "ym2612"
    },
    {
      "channel": 1,
      "note": 30,
      "start": 9.0588,
      "duration": 0.1656,
      "velocity": 123,
      "chip": "ym2612"
    },
    {
      "channel": 1,
      "note": 30,
      "start": 9.28,
      "duration": 0.1657,
      "velocity": 123,
      "chip": "ym2612"
    },
    {
      "channel": 2,
      "note": 61,
      "start": 9.2801,
      "duration": 0.1656,
      "velocity": 82,
      "chip": "ym2612"
    },
    {
      "channel": 1,
      "note": 30,
      "start": 9.5013,
      "duration": 0.1656,
      "velocity": 123,
      "chip": "ym2612"
    },
    {
      "channel": 2,
      "note": 61,
      "start": 9.5014,
      "duration": 0.8292,
      "velocity": 82,
      "chip": "ym2612"
    },
    {
      "channel": 1,
      "note": 30,
      "start": 9.7227,
      "duration": 0.1654,
      "velocity": 123,
      "chip": "ym2612"
    },
    {
      "channel": 1,
      "note": 78,
      "start": 9.9437,
      "duration": 0.1656,
      "velocity": 127,
      "chip": "ym2612"
    },
    {
      "channel": 1,
      "note": 47,
      "start": 10.1649,
      "duration": 0.1656,
      "velocity": 120,
      "chip": "ym2612"
    },
    {
      "channel": 0,
      "note": 72,
      "start": 10.3861,
      "duration": 0.1656,
      "velocity": 99,
      "chip": "ym2612"
    },
    {
      "channel": 1,
      "note": 30,
      "start": 10.3865,
      "duration": 0.1653,
      "velocity": 123,
      "chip": "ym2612"
    },
    {
      "channel": 2,
      "note": 57,
      "start": 10.3865,
      "duration": 0.3864,
      "velocity": 82,
      "chip": "ym2612"
    },
    {
      "channel": 0,
      "note": 73,
      "start": 10.607,
      "duration": 0.1659,
      "velocity": 99,
      "chip": "ym2612"
    },
    {
      "channel": 1,
      "note": 47,
      "start": 10.6074,
      "duration": 0.1656,
      "velocity": 120,
      "chip": "ym2612"
    },
    {
      "channel": 0,
      "note": 75,
      "start": 10.8283,
      "duration": 1.0508,
      "velocity": 99,
      "chip": "ym2612"
    },
    {
      "channel": 1,
      "note": 30,
      "start": 10.8286,
      "duration": 0.1656,
      "velocity": 123,
      "chip": "ym2612"
    },
    {
      "channel": 2,
      "note": 56,
      "start": 10.8287,
      "duration": 1.0504,
      "velocity": 82,
      "chip": "ym2612"
    },
    {
      "channel": 1,
      "note": 30,
      "start": 11.0498,
      "duration": 0.1656,
      "velocity": 123,
      "chip": "ym2612"
    },
    {
      "channel": 1,
      "note": 78,
      "start": 11.271,
      "duration": 0.1656,
      "velocity": 127,
      "chip": "ym2612"
    },
    {
      "channel": 1,
      "note": 47,
      "start": 11.4929,
      "duration": 0.1649,
      "velocity": 120,
      "chip": "ym2612"
    },
    {
      "channel": 1,
      "note": 30,
      "start": 11.7134,
      "duration": 0.1656,
      "velocity": 123,
      "chip": "ym2612"
    },
    {
      "channel": 0,
      "note": 79,
      "start": 11.9344,
      "duration": 0.1659,
      "velocity": 99,
      "chip": "ym2612"
    },
    {
      "channel": 1,
      "note": 30,
      "start": 11.9349,
      "duration": 0.1654,
      "velocity": 123,
      "chip": "ym2612"
    },
    {
      "channel": 2,
      "note": 56,
      "start": 11.935,
      "duration": 0.1653,
      "velocity": 82,
      "chip": "ym2612"
    },
    {
      "channel": 0,
      "note": 80,
      "start": 12.1556,
      "duration": 0.6083,
      "velocity": 99,
      "chip": "ym2612"
    },
    {
      "channel": 1,
      "note": 30,
      "start": 12.1559,
      "duration": 0.1656,
      "velocity": 123,
      "chip": "ym2612"
    },
    {
      "channel": 2,
      "note": 56,
      "start": 12.156,
      "duration": 1.0503,
      "velocity": 82,
      "chip": "ym2612"
    },
    {
      "channel": 1,
      "note": 30,
      "start": 12.3771,
      "duration": 0.1656,
      "velocity": 123,
      "chip": "ym2612"
    },
    {
      "channel": 1,
      "note": 78,
      "start": 12.5983,
      "duration": 0.1656,
      "velocity": 127,
      "chip": "ym2612"
    },
    {
      "channel": 0,
      "note": 82,
      "start": 12.8193,
      "duration": 0.1659,
      "velocity": 99,
      "chip": "ym2612"
    },
    {
      "channel": 1,
      "note": 47,
      "start": 12.8196,
      "duration": 0.1656,
      "velocity": 120,
      "chip": "ym2612"
    },
    {
      "channel": 0,
      "note": 80,
      "start": 13.0405,
      "duration": 0.1658,
      "velocity": 99,
      "chip": "ym2612"
    },
    {
      "channel": 1,
      "note": 30,
      "start": 13.0408,
      "duration": 0.1655,
      "velocity": 123,
      "chip": "ym2612"
    },
    {
      "channel": 0,
      "note": 79,
      "start": 13.2617,
      "duration": 0.1661,
      "velocity": 99,
      "chip": "ym2612"
    },
    {
      "channel": 1,
      "note": 30,
      "start": 13.262,
      "duration": 0.1658,
      "velocity": 123,
      "chip": "ym2612"
    },
    {
      "channel": 2,
      "note": 56,
      "start": 13.2621,
      "duration": 0.1658,
      "velocity": 82,
      "chip": "ym2612"
    },
    {
      "channel": 0,
      "note": 80,
      "start": 13.4831,
      "duration": 1.0505,
      "velocity": 99,
      "chip": "ym2612"
    },
    {
      "channel": 1,
      "note": 30,
      "start": 13.4834,
      "duration": 0.1653,
      "velocity": 123,
      "chip": "ym2612"
    },
    {
      "channel": 2,
      "note": 61,
      "start": 13.4837,
      "duration": 1.0499,
      "velocity": 82,
      "chip": "ym2612"
    },
    {
      "channel": 1,
      "note": 30,
      "start": 13.7044,
      "duration": 0.1658,
      "velocity": 123,
      "chip": "ym2612"
    },
    {
      "channel": 1,
      "note": 78,
      "start": 13.9255,
      "duration": 0.1657,
      "velocity": 127,
      "chip": "ym2612"
    },
    {
      "channel": 1,
      "note": 47,
      "start": 14.1468,
      "duration": 0.1656,
      "velocity": 120,
      "chip": "ym2612"
    },
    {
      "channel": 1,
      "note": 30,
      "start": 14.368,
      "duration": 0.1656,
      "velocity": 123,
      "chip": "ym2612"
    },
    {
      "channel": 0,
      "note": 76,
      "start": 14.5889,
      "duration": 0.1659,
      "velocity": 99,
      "chip": "ym2612"
    },
    {
      "channel": 1,
      "note": 30,
      "start": 14.5896,
      "duration": 0.1653,
      "velocity": 123,
      "chip": "ym2612"
    },
    {
      "channel": 2,
      "note": 61,
      "start": 14.5897,
      "duration": 0.1652,
      "velocity": 82,
      "chip": "ym2612"
    },
    {
      "channel": 0,
      "note": 76,
      "start": 14.8102,
      "duration": 1.0508,
      "velocity": 99,
      "chip": "ym2612"
    },
    {
      "channel": 1,
      "note": 30,
      "start": 14.8108,
      "duration": 0.1653,
      "velocity": 123,
      "chip": "ym2612"
    },
    {
      "channel": 2,
      "note": 61,
      "start": 14.8109,
      "duration": 1.0501,
      "velocity": 82,
      "chip": "ym2612"
    },
    {
      "channel": 1,
      "note": 30,
      "start": 15.032,
      "duration": 0.1653,
      "velocity": 123,
      "chip": "ym2612"
    },
    {
      "channel": 1,
      "note": 78,
      "start": 15.2531,
      "duration": 0.1654,
      "velocity": 127,
      "chip": "ym2612"
    },
    {
      "channel": 1,
      "note": 47,
      "start": 15.4745,
      "duration": 0.1653,
      "velocity": 120,
      "chip": "ym2612"
    },
    {
      "channel": 1,
      "note": 30,
      "start": 15.6954,
      "duration": 0.1655,
      "velocity": 123,
      "chip": "ym2612"
    },
    {
      "channel": 0,
      "note": 76,
      "start": 15.9163,
      "duration": 0.1659,
      "velocity": 99,
      "chip": "ym2612"
    },
    {
      "channel": 1,
      "note": 30,
      "start": 15.9166,
      "duration": 0.1655,
      "velocity": 123,
      "chip": "ym2612"
    },
    {
      "channel": 2,
      "note": 61,
      "start": 15.9167,
      "duration": 0.1655,
      "velocity": 82,
      "chip": "ym2612"
    },
    {
      "channel": 0,
      "note": 75,
      "start": 16.1375,
      "duration": 1.0508,
      "velocity": 99,
      "chip": "ym2612"
    },
    {
      "channel": 1,
      "note": 30,
      "start": 16.1378,
      "duration": 0.1658,
      "velocity": 123,
      "chip": "ym2612"
    },
    {
      "channel": 2,
      "note": 56,
      "start": 16.1379,
      "duration": 1.0504,
      "velocity": 82,
      "chip": "ym2612"
    },
    {
      "channel": 1,
      "note": 30,
      "start": 16.359,
      "duration": 0.1656,
      "velocity": 123,
      "chip": "ym2612"
    },
    {
      "channel": 1,
      "note": 78,
      "start": 16.5802,
      "duration": 0.1657,
      "velocity": 127,
      "chip": "ym2612"
    },
    {
      "channel": 1,
      "note": 47,
      "start": 16.8015,
      "duration": 0.1656,
      "velocity": 120,
      "chip": "ym2612"
    },
    {
      "channel": 1,
      "note": 30,
      "start": 17.0227,
      "duration": 0.1655,
      "velocity": 123,
      "chip": "ym2612"
    },
    {
      "channel": 0,
      "note": 79,
      "start": 17.2436,
      "duration": 0.1659,
      "velocity": 99,
      "chip": "ym2612"
    },
    {
      "channel": 1,
      "note": 30,
      "start": 17.244,
      "duration": 0.1655,
      "velocity": 123,
      "chip": "ym2612"
    },
    {
      "channel": 2,
      "note": 56,
      "start": 17.2441,
      "duration": 0.1654,
      "velocity": 82,
      "chip": "ym2612"
    },
    {
      "channel": 0,
      "note": 80,
      "start": 17.4649,
      "duration": 0.6083,
      "velocity": 99,
      "chip": "ym2612"
    },
    {
      "channel": 1,
      "note": 30,
      "start": 17.4653,
      "duration": 0.1654,
      "velocity": 123,
      "chip": "ym2612"
    },
    {
      "channel": 2,
      "note": 56,
      "start": 17.4654,
      "duration": 1.0503,
      "velocity": 82,
      "chip": "ym2612"
    },
    {
      "channel": 1,
      "note": 30,
      "start": 17.6863,
      "duration": 0.1656,
      "velocity": 123,
      "chip": "ym2612"
    },
    {
      "channel": 1,
      "note": 78,
      "start": 17.9076,
      "duration": 0.1656,
      "velocity": 127,
      "chip": "ym2612"
    },
    {
      "channel": 0,
      "note": 80,
      "start": 18.1285,
      "duration": 0.1659,
      "velocity": 99,
      "chip": "ym2612"
    },
    {
      "channel": 1,
      "note": 47,
      "start": 18.1288,
      "duration": 0.1656,
      "velocity": 120,
      "chip": "ym2612"
    },
    {
      "channel": 0,
      "note": 82,
      "start": 18.3497,
      "duration": 0.1659,
      "velocity": 99,
      "chip": "ym2612"
    },
    {
      "channel": 1,
      "note": 30,
      "start": 18.3501,
      "duration": 0.1656,
      "velocity": 123,
      "chip": "ym2612"
    },
    {
      "channel": 0,
      "note": 84,
      "start": 18.571,
      "duration": 0.1662,
      "velocity": 99,
      "chip": "ym2612"
    },
    {
      "channel": 1,
      "note": 30,
      "start": 18.5713,
      "duration": 0.1659,
      "velocity": 123,
      "chip": "ym2612"
    },
    {
      "channel": 2,
      "note": 56,
      "start": 18.5714,
      "duration": 0.1658,
      "velocity": 82,
      "chip": "ym2612"
    },
    {
      "channel": 0,
      "note": 85,
      "start": 18.7922,
      "duration": 0.6083,
      "velocity": 99,
      "chip": "ym2612"
    },
    {
      "channel": 1,
      "note": 30,
      "start": 18.7925,
      "duration": 0.1656,
      "velocity": 123,
      "chip": "ym2612"
    },
    {
      "channel": 2,
      "note": 61,
      "start": 18.7926,
      "duration": 1.0504,
      "velocity": 82,
      "chip": "ym2612"
    },
    {
      "channel": 1,
      "note": 30,
      "start": 19.0137,
      "duration": 0.1658,
      "velocity": 123,
      "chip": "ym2612"
    },
    {
      "channel": 1,
      "note": 78,
      "start": 19.2349,
      "duration": 0.1656,
      "velocity": 127,
      "chip": "ym2612"
    },
    {
      "channel": 0,
      "note": 84,
      "start": 19.4558,
      "duration": 0.3871,
      "velocity": 99,
      "chip": "ym2612"
    },
    {
      "channel": 1,
      "note": 47,
      "start": 19.4564,
      "duration": 0.1656,
      "velocity": 120,
      "chip": "ym2612"
    },
    {
      "channel": 1,
      "note": 30,
      "start": 19.6774,
      "duration": 0.1655,
      "velocity": 123,
      "chip": "ym2612"
    },
    {
      "channel": 0,
      "note": 82,
      "start": 19.8983,
      "duration": 0.1659,
      "velocity": 99,
      "chip": "ym2612"
    },
    {
      "channel": 1,
      "note": 30,
      "start": 19.8988,
      "duration": 0.1654,
      "velocity": 123,
      "chip": "ym2612"
    },
    {
      "channel": 2,
      "note": 61,
      "start": 19.8989,
      "duration": 0.1653,
      "velocity": 82,
      "chip": "ym2612"
    },
    {
      "channel": 0,
      "note": 80,
      "start": 20.1195,
      "duration": 0.8295,
      "velocity": 99,
      "chip": "ym2612"
    },
    {
      "channel": 1,
      "note": 30,
      "start": 20.1199,
      "duration": 0.1655,
      "velocity": 123,
      "chip": "ym2612"
    },
    {
      "channel": 2,
      "note": 61,
      "start": 20.1199,
      "duration": 1.0507,
      "velocity": 82,
      "chip": "ym2612"
    },
    {
      "channel": 1,
      "note": 47,
      "start": 20.3414,
      "duration": 0.1652,
      "velocity": 120,
      "chip": "ym2612"
    },
    {
      "channel": 1,
      "note": 78,
      "start": 20.5622,
      "duration": 0.1656,
      "velocity": 127,
      "chip": "ym2612"
    },
    {
      "channel": 1,
      "note": 47,
      "start": 20.7835,
      "duration": 0.1655,
      "velocity": 120,
      "chip": "ym2612"
    },
    {
      "channel": 0,
      "note": 79,
      "start": 21.0044,
      "duration": 0.1661,
      "velocity": 99,
      "chip": "ym2612"
    },
    {
      "channel": 1,
      "note": 30,
      "start": 21.0047,
      "duration": 0.1659,
      "velocity": 123,
      "chip": "ym2612"
    },
    {
      "channel": 0,
      "note": 80,
      "start": 21.2256,
      "duration": 0.1661,
      "velocity": 99,
      "chip": "ym2612"
    },
    {
      "channel": 1,
      "note": 30,
      "start": 21.2259,
      "duration": 0.1658,
      "velocity": 123,
      "chip": "ym2612"
    },
    {
      "channel": 2,
      "note": 61,
      "start": 21.226,
      "duration": 0.1658,
      "velocity": 82,
      "chip": "ym2612"
    },
    {
      "channel": 0,
      "note": 82,
      "start": 21.4468,
      "duration": 0.6083,
      "velocity": 99,
      "chip": "ym2612"
    },
    {
      "channel": 1,
      "note": 30,
      "start": 21.4471,
      "duration": 0.1655,
      "velocity": 123,
      "chip": "ym2612"
    },
    {
      "channel": 2,
      "note": 60,
      "start": 21.4472,
      "duration": 1.0504,
      "velocity": 82,
      "chip": "ym2612"
    },
    {
      "channel": 1,
      "note": 30,
      "start": 21.6683,
      "duration": 0.1657,
      "velocity": 123,
      "chip": "ym2612"
    },
    {
      "channel": 1,
      "note": 78,
      "start": 21.8895,
      "duration": 0.1656,
      "velocity": 127,
      "chip": "ym2612"
    },
    {
      "channel": 0,
      "note": 79,
      "start": 22.1105,
      "duration": 0.6083,
      "velocity": 99,
      "chip": "ym2612"
    },
    {
      "channel": 1,
      "note": 47,
      "start": 22.1108,
      "duration": 0.1656,
      "velocity": 120,
      "chip": "ym2612"
    },
    {
      "channel": 1,
      "note": 30,
      "start": 22.332,
      "duration": 0.1656,
      "velocity": 123,
      "chip": "ym2612"
    },
    {
      "channel": 1,
      "note": 30,
      "start": 22.5533,
      "duration": 0.1655,
      "velocity": 123,
      "chip": "ym2612"
    },
    {
      "channel": 2,
      "note": 60,
      "start": 22.5534,
      "duration": 0.1654,
      "velocity": 82,
      "chip": "ym2612"
    },
    {
      "channel": 0,
      "note": 75,
      "start": 22.7742,
      "duration": 0.6083,
      "velocity": 99,
      "chip": "ym2612"
    },
    {
      "channel": 1,
      "note": 30,
      "start": 22.7745,
      "duration": 0.1655,
      "velocity": 123,
      "chip": "ym2612"
    },
    {
      "channel": 2,
      "note": 60,
      "start": 22.7746,
      "duration": 1.0503,
      "velocity": 82,
      "chip": "ym2612"
    },
    {
      "channel": 1,
      "note": 30,
      "start": 22.9956,
      "duration": 0.1656,
      "velocity": 123,
      "chip": "ym2612"
    },
    {
      "channel": 1,
      "note": 78,
      "start": 23.2168,
      "duration": 0.1656,
      "velocity": 127,
      "chip": "ym2612"
    },
    {
      "channel": 0,
      "note": 85,
      "start": 23.4378,
      "duration": 0.6085,
      "velocity": 99,
      "chip": "ym2612"
    },
    {
      "channel": 1,
      "note": 47,
      "start": 23.4381,
      "duration": 0.1656,
      "velocity": 120,
      "chip": "ym2612"
    },
    {
      "channel": 1,
      "note": 30,
      "start": 23.6593,
      "duration": 0.1656,
      "velocity": 123,
      "chip": "ym2612"
    },
    {
      "channel": 1,
      "note": 30,
      "start": 23.8805,
      "duration": 0.1657,
      "velocity": 123,
      "chip": "ym2612"
    },
    {
      "channel": 2,
      "note": 60,
      "start": 23.8806,
      "duration": 0.1657,
      "velocity": 82,
      "chip": "ym2612"
    },
    {
      "channel": 0,
      "note": 84,
      "start": 24.1015,
      "duration": 1.0508,
      "velocity": 99,
      "chip": "ym2612"
    },
    {
      "channel": 1,
      "note": 30,
      "start": 24.1018,
      "duration": 0.1656,
      "velocity": 123,
      "chip": "ym2612"
    },
    {
      "channel": 2,
      "note": 65,
      "start": 24.1019,
      "duration": 1.0504,
      "velocity": 82,
      "chip": "ym2612"
    },
    {
      "channel": 1,
      "note": 30,
      "start": 24.323,
      "duration": 0.1656,
      "velocity": 123,
      "chip": "ym2612"
    },
    {
      "channel": 1,
      "note": 78,
      "start": 24.5442,
      "duration": 0.1662,
      "velocity": 127,
      "chip": "ym2612"
    },
    {
      "channel": 1,
      "note": 47,
      "start": 24.7655,
      "duration": 0.1656,
      "velocity": 120,
      "chip": "ym2612"
    },
    {
      "channel": 1,
      "note": 30,
      "start": 24.9868,
      "duration": 0.1654,
      "velocity": 123,
      "chip": "ym2612"
    },
    {
      "channel": 0,
      "note": 82,
      "start": 25.2076,
      "duration": 0.1659,
      "velocity": 99,
      "chip": "ym2612"
    },
    {
      "channel": 1,
      "note": 30,
      "start": 25.2079,
      "duration": 0.1656,
      "velocity": 123,
      "chip": "ym2612"
    },
    {
      "channel": 2,
      "note": 65,
      "start": 25.208,
      "duration": 0.1655,
      "velocity": 82,
      "chip": "ym2612"
    },
    {
      "channel": 0,
      "note": 80,
      "start": 25.4288,
      "duration": 1.0507,
      "velocity": 99,
      "chip": "ym2612"
    },
    {
      "channel": 1,
      "note": 30,
      "start": 25.4292,
      "duration": 0.1656,
      "velocity": 123,
      "chip": "ym2612"
    },
    {
      "channel": 2,
      "note": 65,
      "start": 25.4293,
      "duration": 1.0503,
      "velocity": 82,
      "chip": "ym2612"
    },
    {
      "channel": 1,
      "note": 30,
      "start": 25.6503,
      "duration": 0.1656,
      "velocity": 123,
      "chip": "ym2612"
    },
    {
      "channel": 1,
      "note": 78,
      "start": 25.8715,
      "duration": 0.166,
      "velocity": 127,
      "chip": "ym2612"
    },
    {
      "channel": 1,
      "note": 47,
      "start": 26.0928,
      "duration": 0.1656,
      "velocity": 120,
      "chip": "ym2612"
    },
    {
      "channel": 1,
      "note": 30,
      "start": 26.314,
      "duration": 0.1656,
      "velocity": 123,
      "chip": "ym2612"
    },
    {
      "channel": 0,
      "note": 79,
      "start": 26.5349,
      "duration": 0.1659,
      "velocity": 99,
      "chip": "ym2612"
    },
    {
      "channel": 1,
      "note": 30,
      "start": 26.5353,
      "duration": 0.1656,
      "velocity": 123,
      "chip": "ym2612"
    },
    {
      "channel": 2,
      "note": 65,
      "start": 26.5354,
      "duration": 0.1655,
      "velocity": 82,
      "chip": "ym2612"
    },
    {
      "channel": 0,
      "note": 80,
      "start": 26.7561,
      "duration": 0.6083,
      "velocity": 99,
      "chip": "ym2612"
    },
    {
      "channel": 1,
      "note": 30,
      "start": 26.7568,
      "duration": 0.1653,
      "velocity": 123,
      "chip": "ym2612"
    },
    {
      "channel": 2,
      "note": 58,
      "start": 26.7568,
      "duration": 1.0501,
      "velocity": 82,
      "chip": "ym2612"
    },
    {
      "channel": 1,
      "note": 30,
      "start": 26.9776,
      "duration": 0.1656,
      "velocity": 123,
      "chip": "ym2612"
    },
    {
      "channel": 1,
      "note": 78,
      "start": 27.1988,
      "duration": 0.1656,
      "velocity": 127,
      "chip": "ym2612"
    },
    {
      "channel": 0,
      "note": 77,
      "start": 27.4199,
      "duration": 0.6083,
      "velocity": 99,
      "chip": "ym2612"
    },
    {
      "channel": 1,
      "note": 47,
      "start": 27.4203,
      "duration": 0.1654,
      "velocity": 120,
      "chip": "ym2612"
    },
    {
      "channel": 1,
      "note": 30,
      "start": 27.6417,
      "duration": 0.1653,
      "velocity": 123,
      "chip": "ym2612"
    },
    {
      "channel": 1,
      "note": 30,
      "start": 27.8626,
      "duration": 0.1656,
      "velocity": 123,
      "chip": "ym2612"
    },
    {
      "channel": 2,
      "note": 58,
      "start": 27.8627,
      "duration": 0.1655,
      "velocity": 82,
      "chip": "ym2612"
    },
    {
      "channel": 0,
      "note": 73,
      "start": 28.0835,
      "duration": 0.6083,
      "velocity": 99,
      "chip": "ym2612"
    },
    {
      "channel": 1,
      "note": 30,
      "start": 28.0839,
      "duration": 0.1655,
      "velocity": 123,
      "chip": "ym2612"
    },
    {
      "channel": 2,
      "note": 58,
      "start": 28.0839,
      "duration": 1.0503,
      "velocity": 82,
      "chip": "ym2612"
    },
    {
      "channel": 1,
      "note": 30,
      "start": 28.305,
      "duration": 0.1656,
      "velocity": 123,
      "chip": "ym2612"
    },
    {
      "channel": 1,
      "note": 78,
      "start": 28.5262,
      "duration": 0.1656,
      "velocity": 127,
      "chip": "ym2612"
    },
    {
      "channel": 0,
      "note": 80,
      "start": 28.7472,
      "duration": 0.6083,
      "velocity": 99,
      "chip": "ym2612"
    },
    {
      "channel": 1,
      "note": 47,
      "start": 28.7475,
      "duration": 0.1655,
      "velocity": 120,
      "chip": "ym2612"
    },
    {
      "channel": 1,
      "note": 30,
      "start": 28.9687,
      "duration": 0.1656,
      "velocity": 123,
      "chip": "ym2612"
    },
    {
      "channel": 1,
      "note": 30,
      "start": 29.1899,
      "duration": 0.1656,
      "velocity": 123,
      "chip": "ym2612"
    },
    {
      "channel": 2,
      "note": 58,
      "start": 29.19,
      "duration": 0.1656,
      "velocity": 82,
      "chip": "ym2612"
    },
    {
      "channel": 0,
      "note": 79,
      "start": 29.4108,
      "duration": 0.1659,
      "velocity": 99,
      "chip": "ym2612"
    },
    {
      "channel": 1,
      "note": 30,
      "start": 29.4112,
      "duration": 0.1656,
      "velocity": 123,
      "chip": "ym2612"
    },
    {
      "channel": 2,
      "note": 63,
      "start": 29.4113,
      "duration": 1.0504,
      "velocity": 82,
      "chip": "ym2612"
    },
    {
      "channel": 0,
      "note": 77,
      "start": 29.632,
      "duration": 0.1659,
      "velocity": 99,
      "chip": "ym2612"
    },
    {
      "channel": 1,
      "note": 47,
      "start": 29.6328,
      "duration": 0.1652,
      "velocity": 120,
      "chip": "ym2612"
    },
    {
      "channel": 0,
      "note": 79,
      "start": 29.8533,
      "duration": 0.6084,
      "velocity": 99,
      "chip": "ym2612"
    },
    {
      "channel": 1,
      "note": 78,
      "start": 29.8538,
      "duration": 0.1653,
      "velocity": 127,
      "chip": "ym2612"
    },
    {
      "channel": 1,
      "note": 47,
      "start": 30.0748,
      "duration": 0.1656,
      "velocity": 120,
      "chip": "ym2612"
    },
    {
      "channel": 1,
      "note": 30,
      "start": 30.2963,
      "duration": 0.1654,
      "velocity": 123,
      "chip": "ym2612"
    },
    {
      "channel": 0,
      "note": 75,
      "start": 30.5169,
      "duration": 0.1659,
      "velocity": 99,
      "chip": "ym2612"
    },
    {
      "channel": 1,
      "note": 30,
      "start": 30.5176,
      "duration": 0.1652,
      "velocity": 123,
      "chip": "ym2612"
    },
    {
      "channel": 2,
      "note": 63,
      "start": 30.5177,
      "duration": 0.1651,
      "velocity": 82,
      "chip": "ym2612"
    },
    {
      "channel": 0,
      "note": 75,
      "start": 30.7382,
      "duration": 0.8296,
      "velocity": 99,
      "chip": "ym2612"
    },
    {
      "channel": 1,
      "note": 30,
      "start": 30.7385,
      "duration": 0.1656,
      "velocity": 123,
      "chip": "ym2612"
    },
    {
      "channel": 2,
      "note": 63,
      "start": 30.7386,
      "duration": 1.0506,
      "velocity": 82,
      "chip": "ym2612"
    },
    {
      "channel": 1,
      "note": 30,
      "start": 30.9599,
      "duration": 0.1654,
      "velocity": 123,
      "chip": "ym2612"
    },
    {
      "channel": 1,
      "note": 78,
      "start": 31.1809,
      "duration": 0.1658,
      "velocity": 127,
      "chip": "ym2612"
    },
    {
      "channel": 1,
      "note": 47,
      "start": 31.4022,
      "duration": 0.1656,
      "velocity": 120,
      "chip": "ym2612"
    },
    {
      "channel": 0,
      "note": 79,
      "start": 31.6233,
      "duration": 0.1659,
      "velocity": 103,
      "chip": "ym2612"
    },
    {
      "channel": 1,
      "note": 30,
      "start": 31.6237,
      "duration": 0.1655,
      "velocity": 123,
      "chip": "ym2612"
    },
    {
      "channel": 0,
      "note": 80,
      "start": 31.8443,
      "duration": 0.1659,
      "velocity": 103,
      "chip": "ym2612"
    },
    {
      "channel": 1,
      "note": 30,
      "start": 31.8446,
      "duration": 0.1656,
      "velocity": 123,
      "chip": "ym2612"
    },
    {
      "channel": 2,
      "note": 61,
      "start": 31.8447,
      "duration": 0.1655,
      "velocity": 82,
      "chip": "ym2612"
    },
    {
      "channel": 0,
      "note": 82,
      "start": 32.0655,
      "duration": 0.6084,
      "velocity": 103,
      "chip": "ym2612"
    },
    {
      "channel": 1,
      "note": 30,
      "start": 32.066,
      "duration": 0.1653,
      "velocity": 123,
      "chip": "ym2612"
    },
    {
      "channel": 2,
      "note": 60,
      "start": 32.0662,
      "duration": 1.05,
      "velocity": 82,
      "chip": "ym2612"
    },
    {
      "channel": 1,
      "note": 30,
      "start": 32.2869,
      "duration": 0.1656,
      "velocity": 123,
      "chip": "ym2612"
    },
    {
      "channel": 1,
      "note": 78,
      "start": 32.5082,
      "duration": 0.1657,
      "velocity": 127,
      "chip": "ym2612"
    },
    {
      "channel": 0,
      "note": 89,
      "start": 32.7291,
      "duration": 0.6083,
      "velocity": 103,
      "chip": "ym2612"
    },
    {
      "channel": 1,
      "note": 47,
      "start": 32.7295,
      "duration": 0.1655,
      "velocity": 120,
      "chip": "ym2612"
    },
    {
      "channel": 1,
      "note": 30,
      "start": 32.9506,
      "duration": 0.1656,
      "velocity": 123,
      "chip": "ym2612"
    },
    {
      "channel": 1,
      "note": 30,
      "start": 33.1718,
      "duration": 0.1656,
      "velocity": 123,
      "chip": "ym2612"
    },
    {
      "channel": 2,
      "note": 60,
      "start": 33.1719,
      "duration": 0.1656,
      "velocity": 82,
      "chip": "ym2612"
    },
    {
      "channel": 0,
      "note": 87,
      "start": 33.3928,
      "duration": 1.0508,
      "velocity": 103,
      "chip": "ym2612"
    },
    {
      "channel": 1,
      "note": 30,
      "start": 33.3931,
      "duration": 0.1656,
      "velocity": 123,
      "chip": "ym2612"
    },
    {
      "channel": 2,
      "note": 60,
      "start": 33.3932,
      "duration": 1.0504,
      "velocity": 82,
      "chip": "ym2612"
    },
    {
      "channel": 1,
      "note": 30,
      "start": 33.6143,
      "duration": 0.1656,
      "velocity": 123,
      "chip": "ym2612"
    },
    {
      "channel": 1,
      "note": 78,
      "start": 33.8356,
      "duration": 0.1657,
      "velocity": 127,
      "chip": "ym2612"
    },
    {
      "channel": 1,
      "note": 47,
      "start": 34.0568,
      "duration": 0.1656,
      "velocity": 120,
      "chip": "ym2612"
    },
    {
      "channel": 1,
      "note": 30,
      "start": 34.278,
      "duration": 0.1656,
      "velocity": 123,
      "chip": "ym2612"
    },
    {
      "channel": 0,
      "note": 85,
      "start": 34.4989,
      "duration": 0.1659,
      "velocity": 103,
      "chip": "ym2612"
    },
    {
      "channel": 1,
      "note": 30,
      "start": 34.4993,
      "duration": 0.1656,
      "velocity": 123,
      "chip": "ym2612"
    },
    {
      "channel": 2,
      "note": 60,
      "start": 34.4993,
      "duration": 0.1655,
      "velocity": 82,
      "chip": "ym2612"
    },
    {
      "channel": 0,
      "note": 85,
      "start": 34.7202,
      "duration": 0.1659,
      "velocity": 103,
      "chip": "ym2612"
    },
    {
      "channel": 1,
      "note": 30,
      "start": 34.7205,
      "duration": 0.1655,
      "velocity": 123,
      "chip": "ym2612"
    },
    {
      "channel": 2,
      "note": 65,
      "start": 34.7206,
      "duration": 1.0503,
      "velocity": 82,
      "chip": "ym2612"
    },
    {
      "channel": 0,
      "note": 84,
      "start": 34.9414,
      "duration": 0.1659,
      "velocity": 103,
      "chip": "ym2612"
    },
    {
      "channel": 1,
      "note": 30,
      "start": 34.9417,
      "duration": 0.1656,
      "velocity": 123,
      "chip": "ym2612"
    },
    {
      "channel": 0,
      "note": 84,
      "start": 35.1626,
      "duration": 1.9356,
      "velocity": 103,
      "chip": "ym2612"
    },
    {
      "channel": 1,
      "note": 78,
      "start": 35.1629,
      "duration": 0.1656,
      "velocity": 127,
      "chip": "ym2612"
    },
    {
      "channel": 1,
      "note": 47,
      "start": 35.3841,
      "duration": 0.1656,
      "velocity": 120,
      "chip": "ym2612"
    },
    {
      "channel": 1,
      "note": 30,
      "start": 35.6053,
      "duration": 0.1656,
      "velocity": 123,
      "chip": "ym2612"
    },
    {
      "channel": 1,
      "note": 30,
      "start": 35.8268,
      "duration": 0.1654,
      "velocity": 123,
      "chip": "ym2612"
    },
    {
      "channel": 2,
      "note": 65,
      "start": 35.8268,
      "duration": 0.1653,
      "velocity": 82,
      "chip": "ym2612"
    },
    {
      "channel": 1,
      "note": 30,
      "start": 36.0477,
      "duration": 0.1656,
      "velocity": 123,
      "chip": "ym2612"
    },
    {
      "channel": 2,
      "note": 65,
      "start": 36.0478,
      "duration": 1.0504,
      "velocity": 82,
      "chip": "ym2612"
    },
    {
      "channel": 1,
      "note": 30,
      "start": 36.269,
      "duration": 0.1656,
      "velocity": 123,
      "chip": "ym2612"
    },
    {
      "channel": 1,
      "note": 78,
      "start": 36.4905,
      "duration": 0.1653,
      "velocity": 127,
      "chip": "ym2612"
    },
    {
      "channel": 1,
      "note": 47,
      "start": 36.7114,
      "duration": 0.1656,
      "velocity": 120,
      "chip": "ym2612"
    },
    {
      "channel": 1,
      "note": 30,
      "start": 36.9326,
      "duration": 0.1656,
      "velocity": 123,
      "chip": "ym2612"
    },
    {
      "channel": 0,
      "note": 84,
      "start": 37.1536,
      "duration": 0.1658,
      "velocity": 103,
      "chip": "ym2612"
    },
    {
      "channel": 1,
      "note": 30,
      "start": 37.1539,
      "duration": 0.1655,
      "velocity": 123,
      "chip": "ym2612"
    },
    {
      "channel": 2,
      "note": 65,
      "start": 37.154,
      "duration": 0.1654,
      "velocity": 82,
      "chip": "ym2612"
    },
    {
      "channel": 0,
      "note": 85,
      "start": 37.3748,
      "duration": 0.1659,
      "velocity": 103,
      "chip": "ym2612"
    },
    {
      "channel": 1,
      "note": 30,
      "start": 37.3751,
      "duration": 0.1656,
      "velocity": 123,
      "chip": "ym2612"
    },
    {
      "channel": 2,
      "note": 58,
      "start": 37.3752,
      "duration": 1.0504,
      "velocity": 82,
      "chip": "ym2612"
    },
    {
      "channel": 0,
      "note": 84,
      "start": 37.596,
      "duration": 0.1659,
      "velocity": 103,
      "chip": "ym2612"
    },
    {
      "channel": 1,
      "note": 30,
      "start": 37.5963,
      "duration": 0.1656,
      "velocity": 123,
      "chip": "ym2612"
    },
    {
      "channel": 0,
      "note": 82,
      "start": 37.8172,
      "duration": 0.1659,
      "velocity": 103,
      "chip": "ym2612"
    },
    {
      "channel": 1,
      "note": 78,
      "start": 37.8176,
      "duration": 0.1656,
      "velocity": 127,
      "chip": "ym2612"
    },
    {
      "channel": 0,
      "note": 80,
      "start": 38.0385,
      "duration": 0.1658,
      "velocity": 103,
      "chip": "ym2612"
    },
    {
      "channel": 1,
      "note": 47,
      "start": 38.0389,
      "duration": 0.1654,
      "velocity": 120,
      "chip": "ym2612"
    },
    {
      "channel": 0,
      "note": 79,
      "start": 38.2596,
      "duration": 0.1659,
      "velocity": 103,
      "chip": "ym2612"
    },
    {
      "channel": 1,
      "note": 30,
      "start": 38.26,
      "duration": 0.1656,
      "velocity": 123,
      "chip": "ym2612"
    },
    {
      "channel": 0,
      "note": 80,
      "start": 38.4809,
      "duration": 0.1659,
      "velocity": 103,
      "chip": "ym2612"
    },
    {
      "channel": 1,
      "note": 30,
      "start": 38.4815,
      "duration": 0.1653,
      "velocity": 123,
      "chip": "ym2612"
    },
    {
      "channel": 2,
      "note": 58,
      "start": 38.4815,
      "duration": 0.1652,
      "velocity": 82,
      "chip": "ym2612"
    },
    {
      "channel": 0,
      "note": 82,
      "start": 38.7021,
      "duration": 0.6083,
      "velocity": 103,
      "chip": "ym2612"
    },
    {
      "channel": 1,
      "note": 30,
      "start": 38.7025,
      "duration": 0.1655,
      "velocity": 123,
      "chip": "ym2612"
    },
    {
      "channel": 2,
      "note": 63,
      "start": 38.7025,
      "duration": 1.0503,
      "velocity": 82,
      "chip": "ym2612"
    },
    {
      "channel": 1,
      "note": 30,
      "start": 38.9236,
      "duration": 0.1656,
      "velocity": 123,
      "chip": "ym2612"
    },
    {
      "channel": 1,
      "note": 78,
      "start": 39.1448,
      "duration": 0.1656,
      "velocity": 127,
      "chip": "ym2612"
    },
    {
      "channel": 0,
      "note": 79,
      "start": 39.3657,
      "duration": 0.3871,
      "velocity": 103,
      "chip": "ym2612"
    },
    {
      "channel": 1,
      "note": 47,
      "start": 39.3661,
      "duration": 0.1656,
      "velocity": 120,
      "chip": "ym2612"
    },
    {
      "channel": 1,
      "note": 30,
      "start": 39.5872,
      "duration": 0.1657,
      "velocity": 123,
      "chip": "ym2612"
    },
    {
      "channel": 0,
      "note": 82,
      "start": 39.8082,
      "duration": 0.1659,
      "velocity": 103,
      "chip": "ym2612"
    },
    {
      "channel": 1,
      "note": 30,
      "start": 39.8085,
      "duration": 0.1656,
      "velocity": 123,
      "chip": "ym2612"
    },
    {
      "channel": 2,
      "note": 63,
      "start": 39.8086,
      "duration": 0.1655,
      "velocity": 82,
      "chip": "ym2612"
    },
    {
      "channel": 0,
      "note": 82,
      "start": 40.0294,
      "duration": 0.1661,
      "velocity": 103,
      "chip": "ym2612"
    },
    {
      "channel": 1,
      "note": 30,
      "start": 40.0297,
      "duration": 0.1657,
      "velocity": 123,
      "chip": "ym2612"
    },
    {
      "channel": 2,
      "note": 56,
      "start": 40.0298,
      "duration": 1.0504,
      "velocity": 82,
      "chip": "ym2612"
    },
    {
      "channel": 0,
      "note": 80,
      "start": 40.2506,
      "duration": 0.1659,
      "velocity": 103,
      "chip": "ym2612"
    },
    {
      "channel": 1,
      "note": 47,
      "start": 40.2509,
      "duration": 0.1656,
      "velocity": 120,
      "chip": "ym2612"
    },
    {
      "channel": 0,
      "note": 80,
      "start": 40.4718,
      "duration": 2.1569,
      "velocity": 103,
      "chip": "ym2612"
    },
    {
      "channel": 1,
      "note": 78,
      "start": 40.4722,
      "duration": 0.1656,
      "velocity": 127,
      "chip": "ym2612"
    },
    {
      "channel": 1,
      "note": 47,
      "start": 40.6934,
      "duration": 0.1659,
      "velocity": 120,
      "chip": "ym2612"
    },
    {
      "channel": 1,
      "note": 30,
      "start": 40.9146,
      "duration": 0.1656,
      "velocity": 123,
      "chip": "ym2612"
    },
    {
      "channel": 1,
      "note": 30,
      "start": 41.1358,
      "duration": 0.1656,
      "velocity": 123,
      "chip": "ym2612"
    },
    {
      "channel": 2,
      "note": 56,
      "start": 41.1358,
      "duration": 0.1656,
      "velocity": 82,
      "chip": "ym2612"
    },
    {
      "channel": 1,
      "note": 30,
      "start": 41.3571,
      "duration": 0.1656,
      "velocity": 123,
      "chip": "ym2612"
    },
    {
      "channel": 2,
      "note": 56,
      "start": 41.3571,
      "duration": 1.0504,
      "velocity": 82,
      "chip": "ym2612"
    },
    {
      "channel": 1,
      "note": 47,
      "start": 41.5783,
      "duration": 0.1656,
      "velocity": 120,
      "chip": "ym2612"
    },
    {
      "channel": 1,
      "note": 78,
      "start": 41.7994,
      "duration": 0.1656,
      "velocity": 127,
      "chip": "ym2612"
    },
    {
      "channel": 1,
      "note": 47,
      "start": 42.0207,
      "duration": 0.1656,
      "velocity": 120,
      "chip": "ym2612"
    },
    {
      "channel": 1,
      "note": 78,
      "start": 42.2419,
      "duration": 0.1656,
      "velocity": 127,
      "chip": "ym2612"
    },
    {
      "channel": 1,
      "note": 78,
      "start": 42.4631,
      "duration": 0.1656,
      "velocity": 127,
      "chip": "ym2612"
    },
    {
      "channel": 2,
      "note": 56,
      "start": 42.4632,
      "duration": 0.1656,
      "velocity": 82,
      "chip": "ym2612"
    },
    {
      "channel": 1,
      "note": 30,
      "start": 42.6843,
      "duration": 0.1656,
      "velocity": 123,
      "chip": "ym2612"
    },
    {
      "channel": 2,
      "note": 61,
      "start": 42.6844,
      "duration": 0.387,
      "velocity": 82,
      "chip": "ym2612"
    },
    {
      "channel": 1,
      "note": 30,
      "start": 42.9056,
      "duration": 0.1658,
      "velocity": 123,
      "chip": "ym2612"
    },
    {
      "channel": 1,
      "note": 78,
      "start": 43.1267,
      "duration": 0.1656,
      "velocity": 127,
      "chip": "ym2612"
    },
    {
      "channel": 2,
      "note": 72,
      "start": 43.1268,
      "duration": 0.1656,
      "velocity": 82,
      "chip": "ym2612"
    },
    {
      "channel": 0,
      "note": 84,
      "start": 43.3477,
      "duration": 0.6083,
      "velocity": 103,
      "chip": "ym2612"
    },
    {
      "channel": 1,
      "note": 47,
      "start": 43.348,
      "duration": 0.1655,
      "velocity": 120,
      "chip": "ym2612"
    },
    {
      "channel": 1,
      "note": 30,
      "start": 43.5692,
      "duration": 0.1656,
      "velocity": 123,
      "chip": "ym2612"
    },
    {
      "channel": 2,
      "note": 73,
      "start": 43.5692,
      "duration": 0.1656,
      "velocity": 82,
      "chip": "ym2612"
    },
    {
      "channel": 1,
      "note": 30,
      "start": 43.7904,
      "duration": 0.1656,
      "velocity": 123,
      "chip": "ym2612"
    },
    {
      "channel": 2,
      "note": 61,
      "start": 43.7905,
      "duration": 0.1655,
      "velocity": 82,
      "chip": "ym2612"
    },
    {
      "channel": 0,
      "note": 87,
      "start": 44.0113,
      "duration": 0.6083,
      "velocity": 103,
      "chip": "ym2612"
    },
    {
      "channel": 1,
      "note": 30,
      "start": 44.0117,
      "duration": 0.1655,
      "velocity": 123,
      "chip": "ym2612"
    },
    {
      "channel": 2,
      "note": 61,
      "start": 44.0117,
      "duration": 1.0504,
      "velocity": 82,
      "chip": "ym2612"
    },
    {
      "channel": 1,
      "note": 30,
      "start": 44.2328,
      "duration": 0.1656,
      "velocity": 123,
      "chip": "ym2612"
    },
    {
      "channel": 1,
      "note": 78,
      "start": 44.454,
      "duration": 0.1656,
      "velocity": 127,
      "chip": "ym2612"
    },
    {
      "channel": 0,
      "note": 89,
      "start": 44.675,
      "duration": 0.6085,
      "velocity": 103,
      "chip": "ym2612"
    },
    {
      "channel": 1,
      "note": 47,
      "start": 44.6753,
      "duration": 0.1656,
      "velocity": 120,
      "chip": "ym2612"
    },
    {
      "channel": 1,
      "note": 30,
      "start": 44.8965,
      "duration": 0.1656,
      "velocity": 123,
      "chip": "ym2612"
    },
    {
      "channel": 1,
      "note": 30,
      "start": 45.1177,
      "duration": 0.1659,
      "velocity": 123,
      "chip": "ym2612"
    },
    {
      "channel": 2,
      "note": 61,
      "start": 45.1178,
      "duration": 0.1659,
      "velocity": 82,
      "chip": "ym2612"
    },
    {
      "channel": 0,
      "note": 87,
      "start": 45.3386,
      "duration": 1.0507,
      "velocity": 103,
      "chip": "ym2612"
    },
    {
      "channel": 1,
      "note": 30,
      "start": 45.339,
      "duration": 0.1656,
      "velocity": 123,
      "chip": "ym2612"
    },
    {
      "channel": 2,
      "note": 60,
      "start": 45.339,
      "duration": 0.3868,
      "velocity": 82,
      "chip": "ym2612"
    },
    {
      "channel": 1,
      "note": 30,
      "start": 45.5601,
      "duration": 0.1657,
      "velocity": 123,
      "chip": "ym2612"
    },
    {
      "channel": 1,
      "note": 78,
      "start": 45.7814,
      "duration": 0.1656,
      "velocity": 127,
      "chip": "ym2612"
    },
    {
      "channel": 2,
      "note": 70,
      "start": 45.7814,
      "duration": 0.1656,
      "velocity": 82,
      "chip": "ym2612"
    },
    {
      "channel": 1,
      "note": 47,
      "start": 46.0026,
      "duration": 0.1659,
      "velocity": 120,
      "chip": "ym2612"
    },
    {
      "channel": 1,
      "note": 30,
      "start": 46.2238,
      "duration": 0.1656,
      "velocity": 123,
      "chip": "ym2612"
    },
    {
      "channel": 2,
      "note": 72,
      "start": 46.2239,
      "duration": 0.1655,
      "velocity": 82,
      "chip": "ym2612"
    },
    {
      "channel": 0,
      "note": 85,
      "start": 46.4447,
      "duration": 0.1659,
      "velocity": 103,
      "chip": "ym2612"
    },
    {
      "channel": 1,
      "note": 30,
      "start": 46.4451,
      "duration": 0.1656,
      "velocity": 123,
      "chip": "ym2612"
    },
    {
      "channel": 2,
      "note": 60,
      "start": 46.4451,
      "duration": 0.1655,
      "velocity": 82,
      "chip": "ym2612"
    },
    {
      "channel": 0,
      "note": 84,
      "start": 46.6659,
      "duration": 1.2722,
      "velocity": 103,
      "chip": "ym2612"
    },
    {
      "channel": 1,
      "note": 30,
      "start": 46.6664,
      "duration": 0.1655,
      "velocity": 123,
      "chip": "ym2612"
    },
    {
      "channel": 2,
      "note": 65,
      "start": 46.6665,
      "duration": 1.0503,
      "velocity": 82,
      "chip": "ym2612"
    },
    {
      "channel": 1,
      "note": 30,
      "start": 46.8877,
      "duration": 0.1654,
      "velocity": 123,
      "chip": "ym2612"
    },
    {
      "channel": 1,
      "note": 78,
      "start": 47.109,
      "duration": 0.1653,
      "velocity": 127,
      "chip": "ym2612"
    },
    {
      "channel": 1,
      "note": 47,
      "start": 47.33,
      "duration": 0.1656,
      "velocity": 120,
      "chip": "ym2612"
    },
    {
      "channel": 1,
      "note": 30,
      "start": 47.5513,
      "duration": 0.1655,
      "velocity": 123,
      "chip": "ym2612"
    },
    {
      "channel": 1,
      "note": 30,
      "start": 47.7724,
      "duration": 0.1657,
      "velocity": 123,
      "chip": "ym2612"
    },
    {
      "channel": 2,
      "note": 65,
      "start": 47.7724,
      "duration": 0.1657,
      "velocity": 82,
      "chip": "ym2612"
    },
    {
      "channel": 1,
      "note": 30,
      "start": 47.9937,
      "duration": 0.1656,
      "velocity": 123,
      "chip": "ym2612"
    },
    {
      "channel": 2,
      "note": 61,
      "start": 47.9937,
      "duration": 0.3867,
      "velocity": 82,
      "chip": "ym2612"
    },
    {
      "channel": 1,
      "note": 30,
      "start": 48.2148,
      "duration": 0.1656,
      "velocity": 123,
      "chip": "ym2612"
    },
    {
      "channel": 1,
      "note": 78,
      "start": 48.4362,
      "duration": 0.1654,
      "velocity": 127,
      "chip": "ym2612"
    },
    {
      "channel": 2,
      "note": 72,
      "start": 48.4363,
      "duration": 0.1654,
      "velocity": 82,
      "chip": "ym2612"
    },
    {
      "channel": 0,
      "note": 84,
      "start": 48.657,
      "duration": 0.6083,
      "velocity": 103,
      "chip": "ym2612"
    },
    {
      "channel": 1,
      "note": 47,
      "start": 48.6573,
      "duration": 0.1655,
      "velocity": 120,
      "chip": "ym2612"
    },
    {
      "channel": 1,
      "note": 30,
      "start": 48.8785,
      "duration": 0.1656,
      "velocity": 123,
      "chip": "ym2612"
    },
    {
      "channel": 2,
      "note": 73,
      "start": 48.8786,
      "duration": 0.1655,
      "velocity": 82,
      "chip": "ym2612"
    },
    {
      "channel": 1,
      "note": 30,
      "start": 49.0997,
      "duration": 0.1656,
      "velocity": 123,
      "chip": "ym2612"
    },
    {
      "channel": 2,
      "note": 61,
      "start": 49.0998,
      "duration": 0.1655,
      "velocity": 82,
      "chip": "ym2612"
    },
    {
      "channel": 0,
      "note": 87,
      "start": 49.3211,
      "duration": 0.6079,
      "velocity": 103,
      "chip": "ym2612"
    },
    {
      "channel": 1,
      "note": 30,
      "start": 49.3214,
      "duration": 0.1651,
      "velocity": 123,
      "chip": "ym2612"
    },
    {
      "channel": 2,
      "note": 61,
      "start": 49.3215,
      "duration": 1.0499,
      "velocity": 82,
      "chip": "ym2612"
    },
    {
      "channel": 1,
      "note": 30,
      "start": 49.5421,
      "duration": 0.1657,
      "velocity": 123,
      "chip": "ym2612"
    },
    {
      "channel": 1,
      "note": 78,
      "start": 49.7635,
      "duration": 0.1655,
      "velocity": 127,
      "chip": "ym2612"
    },
    {
      "channel": 0,
      "note": 85,
      "start": 49.9843,
      "duration": 0.6083,
      "velocity": 103,
      "chip": "ym2612"
    },
    {
      "channel": 1,
      "note": 47,
      "start": 49.9847,
      "duration": 0.1655,
      "velocity": 120,
      "chip": "ym2612"
    },
    {
      "channel": 1,
      "note": 30,
      "start": 50.2058,
      "duration": 0.1656,
      "velocity": 123,
      "chip": "ym2612"
    },
    {
      "channel": 1,
      "note": 30,
      "start": 50.4275,
      "duration": 0.1652,
      "velocity": 123,
      "chip": "ym2612"
    },
    {
      "channel": 2,
      "note": 61,
      "start": 50.428,
      "duration": 0.1647,
      "velocity": 82,
      "chip": "ym2612"
    },
    {
      "channel": 0,
      "note": 84,
      "start": 50.6483,
      "duration": 1.0506,
      "velocity": 103,
      "chip": "ym2612"
    },
    {
      "channel": 1,
      "note": 30,
      "start": 50.6486,
      "duration": 0.1653,
      "velocity": 123,
      "chip": "ym2612"
    },
    {
      "channel": 2,
      "note": 60,
      "start": 50.6487,
      "duration": 0.3864,
      "velocity": 82,
      "chip": "ym2612"
    },
    {
      "channel": 1,
      "note": 30,
      "start": 50.8695,
      "duration": 0.1656,
      "velocity": 123,
      "chip": "ym2612"
    },
    {
      "channel": 1,
      "note": 78,
      "start": 51.0908,
      "duration": 0.1655,
      "velocity": 127,
      "chip": "ym2612"
    },
    {
      "channel": 2,
      "note": 70,
      "start": 51.0919,
      "duration": 0.1645,
      "velocity": 82,
      "chip": "ym2612"
    },
    {
      "channel": 1,
      "note": 47,
      "start": 51.3123,
      "duration": 0.1653,
      "velocity": 120,
      "chip": "ym2612"
    },
    {
      "channel": 1,
      "note": 30,
      "start": 51.5337,
      "duration": 0.1651,
      "velocity": 123,
      "chip": "ym2612"
    },
    {
      "channel": 2,
      "note": 72,
      "start": 51.5338,
      "duration": 0.1651,
      "velocity": 82,
      "chip": "ym2612"
    },
    {
      "channel": 0,
      "note": 89,
      "start": 51.7542,
      "duration": 0.1658,
      "velocity": 103,
      "chip": "ym2612"
    },
    {
      "channel": 1,
      "note": 30,
      "start": 51.7548,
      "duration": 0.1652,
      "velocity": 123,
      "chip": "ym2612"
    },
    {
      "channel": 2,
      "note": 60,
      "start": 51.7549,
      "duration": 0.1651,
      "velocity": 82,
      "chip": "ym2612"
    },
    {
      "channel": 0,
      "note": 89,
      "start": 51.9755,
      "duration": 1.0506,
      "velocity": 103,
      "chip": "ym2612"
    },
    {
      "channel": 1,
      "note": 30,
      "start": 51.9758,
      "duration": 0.1654,
      "velocity": 123,
      "chip": "ym2612"
    },
    {
      "channel": 2,
      "note": 65,
      "start": 51.9759,
      "duration": 1.0502,
      "velocity": 82,
      "chip": "ym2612"
    },
    {
      "channel": 1,
      "note": 30,
      "start": 52.1968,
      "duration": 0.1656,
      "velocity": 123,
      "chip": "ym2612"
    },
    {
      "channel": 1,
      "note": 78,
      "start": 52.4181,
      "duration": 0.1656,
      "velocity": 127,
      "chip": "ym2612"
    },
    {
      "channel": 1,
      "note": 47,
      "start": 52.6393,
      "duration": 0.1661,
      "velocity": 120,
      "chip": "ym2612"
    },
    {
      "channel": 1,
      "note": 30,
      "start": 52.8605,
      "duration": 0.1655,
      "velocity": 123,
      "chip": "ym2612"
    },
    {
      "channel": 0,
      "note": 84,
      "start": 53.0814,
      "duration": 0.1659,
      "velocity": 103,
      "chip": "ym2612"
    },
    {
      "channel": 1,
      "note": 30,
      "start": 53.0817,
      "duration": 0.1656,
      "velocity": 123,
      "chip": "ym2612"
    },
    {
      "channel": 2,
      "note": 65,
      "start": 53.0818,
      "duration": 0.1655,
      "velocity": 82,
      "chip": "ym2612"
    },
    {
      "channel": 0,
      "note": 84,
      "start": 53.3026,
      "duration": 0.1661,
      "velocity": 103,
      "chip": "ym2612"
    },
    {
      "channel": 1,
      "note": 30,
      "start": 53.3029,
      "duration": 0.1658,
      "velocity": 123,
      "chip": "ym2612"
    },
    {
      "channel": 2,
      "note": 61,
      "start": 53.303,
      "duration": 1.0504,
      "velocity": 82,
      "chip": "ym2612"
    },
    {
      "channel": 0,
      "note": 80,
      "start": 53.5239,
      "duration": 0.1659,
      "velocity": 103,
      "chip": "ym2612"
    },
    {
      "channel": 1,
      "note": 30,
      "start": 53.5242,
      "duration": 0.1656,
      "velocity": 123,
      "chip": "ym2612"
    },
    {
      "channel": 0,
      "note": 77,
      "start": 53.7451,
      "duration": 0.1659,
      "velocity": 103,
      "chip": "ym2612"
    },
    {
      "channel": 1,
      "note": 78,
      "start": 53.7454,
      "duration": 0.1655,
      "velocity": 127,
      "chip": "ym2612"
    },
    {
      "channel": 0,
      "note": 80,
      "start": 53.9663,
      "duration": 1.7144,
      "velocity": 103,
      "chip": "ym2612"
    },
    {
      "channel": 1,
      "note": 47,
      "start": 53.9668,
      "duration": 0.1653,
      "velocity": 120,
      "chip": "ym2612"
    },
    {
      "channel": 1,
      "note": 30,
      "start": 54.1878,
      "duration": 0.1657,
      "velocity": 123,
      "chip": "ym2612"
    },
    {
      "channel": 1,
      "note": 30,
      "start": 54.4095,
      "duration": 0.1652,
      "velocity": 123,
      "chip": "ym2612"
    },
    {
      "channel": 2,
      "note": 61,
      "start": 54.4095,
      "duration": 0.1652,
      "velocity": 82,
      "chip": "ym2612"
    },
    {
      "channel": 1,
      "note": 30,
      "start": 54.6303,
      "duration": 0.1656,
      "velocity": 123,
      "chip": "ym2612"
    },
    {
      "channel": 2,
      "note": 61,
      "start": 54.6304,
      "duration": 1.0504,
      "velocity": 82,
      "chip": "ym2612"
    },
    {
      "channel": 1,
      "note": 30,
      "start": 54.8515,
      "duration": 0.1656,
      "velocity": 123,
      "chip": "ym2612"
    },
    {
      "channel": 1,
      "note": 78,
      "start": 55.0728,
      "duration": 0.1658,
      "velocity": 127,
      "chip": "ym2612"
    },
    {
      "channel": 1,
      "note": 47,
      "start": 55.294,
      "duration": 0.1656,
      "velocity": 120,
      "chip": "ym2612"
    },
    {
      "channel": 1,
      "note": 30,
      "start": 55.5151,
      "duration": 0.1656,
      "velocity": 123,
      "chip": "ym2612"
    },
    {
      "channel": 0,
      "note": 82,
      "start": 55.7361,
      "duration": 0.1659,
      "velocity": 103,
      "chip": "ym2612"
    },
    {
      "channel": 1,
      "note": 30,
      "start": 55.7364,
      "duration": 0.1656,
      "velocity": 123,
      "chip": "ym2612"
    },
    {
      "channel": 2,
      "note": 61,
      "start": 55.7367,
      "duration": 0.1653,
      "velocity": 82,
      "chip": "ym2612"
    },
    {
      "channel": 0,
      "note": 83,
      "start": 55.9573,
      "duration": 0.1659,
      "velocity": 103,
      "chip": "ym2612"
    },
    {
      "channel": 1,
      "note": 30,
      "start": 55.9577,
      "duration": 0.1655,
      "velocity": 123,
      "chip": "ym2612"
    },
    {
      "channel": 2,
      "note": 61,
      "start": 55.9578,
      "duration": 1.0504,
      "velocity": 82,
      "chip": "ym2612"
    },
    {
      "channel": 0,
      "note": 80,
      "start": 56.1785,
      "duration": 0.1659,
      "velocity": 103,
      "chip": "ym2612"
    },
    {
      "channel": 1,
      "note": 30,
      "start": 56.1789,
      "duration": 0.1656,
      "velocity": 123,
      "chip": "ym2612"
    },
    {
      "channel": 0,
      "note": 76,
      "start": 56.3998,
      "duration": 0.1659,
      "velocity": 103,
      "chip": "ym2612"
    },
    {
      "channel": 1,
      "note": 78,
      "start": 56.4001,
      "duration": 0.1656,
      "velocity": 127,
      "chip": "ym2612"
    },
    {
      "channel": 0,
      "note": 87,
      "start": 56.621,
      "duration": 1.272,
      "velocity": 103,
      "chip": "ym2612"
    },
    {
      "channel": 1,
      "note": 47,
      "start": 56.6214,
      "duration": 0.1654,
      "velocity": 120,
      "chip": "ym2612"
    },
    {
      "channel": 1,
      "note": 30,
      "start": 56.8424,
      "duration": 0.1657,
      "velocity": 123,
      "chip": "ym2612"
    },
    {
      "channel": 1,
      "note": 30,
      "start": 57.0637,
      "duration": 0.1657,
      "velocity": 123,
      "chip": "ym2612"
    },
    {
      "channel": 2,
      "note": 61,
      "start": 57.0639,
      "duration": 0.1655,
      "velocity": 82,
      "chip": "ym2612"
    },
    {
      "channel": 1,
      "note": 30,
      "start": 57.285,
      "duration": 0.1657,
      "velocity": 123,
      "chip": "ym2612"
    },
    {
      "channel": 2,
      "note": 61,
      "start": 57.2851,
      "duration": 1.0504,
      "velocity": 82,
      "chip": "ym2612"
    },
    {
      "channel": 1,
      "note": 30,
      "start": 57.5062,
      "duration": 0.1656,
      "velocity": 123,
      "chip": "ym2612"
    },
    {
      "channel": 1,
      "note": 78,
      "start": 57.7274,
      "duration": 0.1656,
      "velocity": 127,
      "chip": "ym2612"
    },
    {
      "channel": 0,
      "note": 80,
      "start": 57.9483,
      "duration": 0.6083,
      "velocity": 103,
      "chip": "ym2612"
    },
    {
      "channel": 1,
      "note": 47,
      "start": 57.9487,
      "duration": 0.1656,
      "velocity": 120,
      "chip": "ym2612"
    },
    {
      "channel": 1,
      "note": 30,
      "start": 58.1698,
      "duration": 0.1656,
      "velocity": 123,
      "chip": "ym2612"
    },
    {
      "channel": 1,
      "note": 30,
      "start": 58.391,
      "duration": 0.1656,
      "velocity": 123,
      "chip": "ym2612"
    },
    {
      "channel": 2,
      "note": 61,
      "start": 58.3911,
      "duration": 0.1656,
      "velocity": 82,
      "chip": "ym2612"
    },
    {
      "channel": 0,
      "note": 80,
      "start": 58.612,
      "duration": 2.6546,
      "velocity": 103,
      "chip": "ym2612"
    },
    {
      "channel": 1,
      "note": 30,
      "start": 58.6123,
      "duration": 0.1656,
      "velocity": 123,
      "chip": "ym2612"
    },
    {
      "channel": 2,
      "note": 60,
      "start": 58.6124,
      "duration": 1.0504,
      "velocity": 82,
      "chip": "ym2612"
    },
    {
      "channel": 1,
      "note": 30,
      "start": 58.8334,
      "duration": 0.1656,
      "velocity": 123,
      "chip": "ym2612"
    },
    {
      "channel": 1,
      "note": 78,
      "start": 59.0547,
      "duration": 0.1657,
      "velocity": 127,
      "chip": "ym2612"
    },
    {
      "channel": 1,
      "note": 47,
      "start": 59.2759,
      "duration": 0.1656,
      "velocity": 120,
      "chip": "ym2612"
    },
    {
      "channel": 1,
      "note": 30,
      "start": 59.4974,
      "duration": 0.1653,
      "velocity": 123,
      "chip": "ym2612"
    },
    {
      "channel": 1,
      "note": 30,
      "start": 59.7184,
      "duration": 0.1657,
      "velocity": 123,
      "chip": "ym2612"
    },
    {
      "channel": 2,
      "note": 60,
      "start": 59.7185,
      "duration": 0.1656,
      "velocity": 82,
      "chip": "ym2612"
    },
    {
      "channel": 1,
      "note": 30,
      "start": 59.9396,
      "duration": 0.1656,
      "velocity": 123,
      "chip": "ym2612"
    },
    {
      "channel": 2,
      "note": 60,
      "start": 59.9397,
      "duration": 1.0505,
      "velocity": 82,
      "chip": "ym2612"
    },
    {
      "channel": 1,
      "note": 30,
      "start": 60.1608,
      "duration": 0.1658,
      "velocity": 123,
      "chip": "ym2612"
    },
    {
      "channel": 1,
      "note": 78,
      "start": 60.382,
      "duration": 0.166,
      "velocity": 127,
      "chip": "ym2612"
    },
    {
      "channel": 1,
      "note": 47,
      "start": 60.6033,
      "duration": 0.1656,
      "velocity": 120,
      "chip": "ym2612"
    },
    {
      "channel": 1,
      "note": 30,
      "start": 60.8245,
      "duration": 0.1656,
      "velocity": 123,
      "chip": "ym2612"
    },
    {
      "channel": 1,
      "note": 30,
      "start": 61.0457,
      "duration": 0.1656,
      "velocity": 123,
      "chip": "ym2612"
    },
    {
      "channel": 2,
      "note": 63,
      "start": 61.0458,
      "duration": 0.1656,
      "velocity": 82,
      "chip": "ym2612"
    }
  ]
}