{
  "track_name": "15 - Stage 4 - Deep Sea Cave",
  "duration_sec": 25.952,
  "sample_rate": 44100,
  "note_count": 455,
  "unique_pitches": 30,
  "pitch_range": 43,
  "avg_note_duration": 0.1728,
  "reconstruction_stats": {
    "notes_reconstructed": 455,
    "keyon_events": 455,
    "keyoff_events": 452,
    "orphan_keyons": 3,
    "unique_pitches": 30,
    "pitch_range": 43,
    "avg_duration_sec": 0.1728
  },
  "metadata": {
    "source": "P\\Panorama Cotton\\15 - Stage 4 - Deep Sea Cave.vgm"
  },
  "notes": [
    {
      "channel": 3,
      "note": 52,
      "start": 0.0017,
      "duration": 0.0477,
      "velocity": 100,
      "chip": "ym2612"
    },
    {
      "channel": 4,
      "note": 57,
      "start": 0.0024,
      "duration": 0.004,
      "velocity": 116,
      "chip": "ym2612"
    },
    {
      "channel": 2,
      "note": 69,
      "start": 0.0089,
      "duration": 0.0474,
      "velocity": 100,
      "chip": "ym2612"
    },
    {
      "channel": 0,
      "note": 50,
      "start": 0.0106,
      "duration": 0.0041,
      "velocity": 107,
      "chip": "ym2612"
    },
    {
      "channel": 1,
      "note": 69,
      "start": 0.0111,
      "duration": 0.0038,
      "velocity": 107,
      "chip": "ym2612"
    },
    {
      "channel": 4,
      "note": 50,
      "start": 0.0114,
      "duration": 0.0039,
      "velocity": 116,
      "chip": "ym2612"
    },
    {
      "channel": 0,
      "note": 45,
      "start": 0.0147,
      "duration": 0.004,
      "velocity": 107,
      "chip": "ym2612"
    },
    {
      "channel": 1,
      "note": 50,
      "start": 0.0148,
      "duration": 0.004,
      "velocity": 107,
      "chip": "ym2612"
    },
    {
      "channel": 4,
      "note": 50,
      "start": 0.0192,
      "duration": 0.0044,
      "velocity": 116,
      "chip": "ym2612"
    },
    {
      "channel": 0,
      "note": 45,
      "start": 0.0294,
      "duration": 0.0046,
      "velocity": 107,
      "chip": "ym2612"
    },
    {
      "channel": 1,
      "note": 50,
      "start": 0.0296,
      "duration": 0.0047,
      "velocity": 107,
      "chip": "ym2612"
    },
    {
      "channel": 4,
      "note": 62,
      "start": 0.03,
      "duration": 0.0048,
      "velocity": 116,
      "chip": "ym2612"
    },
    {
      "channel": 0,
      "note": 45,
      "start": 0.034,
      "duration": 0.0046,
      "velocity": 107,
      "chip": "ym2612"
    },
    {
      "channel": 1,
      "note": 50,
      "start": 0.0343,
      "duration": 0.0046,
      "velocity": 107,
      "chip": "ym2612"
    },
    {
      "channel": 4,
      "note": 62,
      "start": 0.0347,
      "duration": 0.0045,
      "velocity": 116,
      "chip": "ym2612"
    },
    {
      "channel": 4,
      "note": 62,
      "start": 0.0433,
      "duration": 0.0064,
      "velocity": 116,
      "chip": "ym2612"
    },
    {
      "channel": 0,
      "note": 45,
      "start": 0.0489,
      "duration": 0.0043,
      "velocity": 107,
      "chip": "ym2612"
    },
    {
      "channel": 1,
      "note": 50,
      "start": 0.0491,
      "duration": 0.0043,
      "velocity": 107,
      "chip": "ym2612"
    },
    {
      "channel": 3,
      "note": 78,
      "start": 0.0494,
      "duration": 0.0082,
      "velocity": 100,
      "chip": "ym2612"
    },
    {
      "channel": 0,
      "note": 45,
      "start": 0.0533,
      "duration": 0.0047,
      "velocity": 107,
      "chip": "ym2612"
    },
    {
      "channel": 1,
      "note": 50,
      "start": 0.0534,
      "duration": 0.0047,
      "velocity": 107,
      "chip": "ym2612"
    },
    {
      "channel": 4,
      "note": 62,
      "start": 0.0539,
      "duration": 0.0048,
      "velocity": 116,
      "chip": "ym2612"
    },
    {
      "channel": 2,
      "note": 78,
      "start": 0.0563,
      "duration": 0.008,
      "velocity": 100,
      "chip": "ym2612"
    },
    {
      "channel": 3,
      "note": 83,
      "start": 0.0584,
      "duration": 0.008,
      "velocity": 100,
      "chip": "ym2612"
    },
    {
      "channel": 4,
      "note": 62,
      "start": 0.0587,
      "duration": 0.0079,
      "velocity": 116,
      "chip": "ym2612"
    },
    {
      "channel": 2,
      "note": 83,
      "start": 0.065,
      "duration": 0.0085,
      "velocity": 100,
      "chip": "ym2612"
    },
    {
      "channel": 0,
      "note": 45,
      "start": 0.0669,
      "duration": 0.0045,
      "velocity": 107,
      "chip": "ym2612"
    },
    {
      "channel": 1,
      "note": 50,
      "start": 0.0671,
      "duration": 0.0045,
      "velocity": 107,
      "chip": "ym2612"
    },
    {
      "channel": 3,
      "note": 81,
      "start": 0.0673,
      "duration": 0.0079,
      "velocity": 100,
      "chip": "ym2612"
    },
    {
      "channel": 4,
      "note": 57,
      "start": 0.0676,
      "duration": 0.0079,
      "velocity": 116,
      "chip": "ym2612"
    },
    {
      "channel": 0,
      "note": 45,
      "start": 0.0714,
      "duration": 0.0045,
      "velocity": 107,
      "chip": "ym2612"
    },
    {
      "channel": 1,
      "note": 50,
      "start": 0.0716,
      "duration": 0.0045,
      "velocity": 107,
      "chip": "ym2612"
    },
    {
      "channel": 2,
      "note": 81,
      "start": 0.0741,
      "duration": 0.0087,
      "velocity": 100,
      "chip": "ym2612"
    },
    {
      "channel": 3,
      "note": 83,
      "start": 0.0764,
      "duration": 0.0506,
      "velocity": 100,
      "chip": "ym2612"
    },
    {
      "channel": 4,
      "note": 50,
      "start": 0.0766,
      "duration": 0.0039,
      "velocity": 116,
      "chip": "ym2612"
    },
    {
      "channel": 2,
      "note": 83,
      "start": 0.0834,
      "duration": 0.0503,
      "velocity": 100,
      "chip": "ym2612"
    },
    {
      "channel": 0,
      "note": 45,
      "start": 0.0865,
      "duration": 0.0043,
      "velocity": 107,
      "chip": "ym2612"
    },
    {
      "channel": 1,
      "note": 50,
      "start": 0.0867,
      "duration": 0.0043,
      "velocity": 107,
      "chip": "ym2612"
    },
    {
      "channel": 4,
      "note": 57,
      "start": 0.0871,
      "duration": 0.0043,
      "velocity": 116,
      "chip": "ym2612"
    },
    {
      "channel": 0,
      "note": 45,
      "start": 0.0908,
      "duration": 0.0046,
      "velocity": 107,
      "chip": "ym2612"
    },
    {
      "channel": 1,
      "note": 49,
      "start": 0.091,
      "duration": 0.0045,
      "velocity": 107,
      "chip": "ym2612"
    },
    {
      "channel": 4,
      "note": 57,
      "start": 0.0959,
      "duration": 0.0042,
      "velocity": 116,
      "chip": "ym2612"
    },
    {
      "channel": 0,
      "note": 45,
      "start": 0.106,
      "duration": 0.0046,
      "velocity": 107,
      "chip": "ym2612"
    },
    {
      "channel": 1,
      "note": 49,
      "start": 0.1062,
      "duration": 0.0046,
      "velocity": 107,
      "chip": "ym2612"
    },
    {
      "channel": 4,
      "note": 69,
      "start": 0.1066,
      "duration": 0.0047,
      "velocity": 116,
      "chip": "ym2612"
    },
    {
      "channel": 0,
      "note": 45,
      "start": 0.1107,
      "duration": 0.0049,
      "velocity": 107,
      "chip": "ym2612"
    },
    {
      "channel": 1,
      "note": 49,
      "start": 0.1109,
      "duration": 0.0049,
      "velocity": 107,
      "chip": "ym2612"
    },
    {
      "channel": 4,
      "note": 69,
      "start": 0.1114,
      "duration": 0.0047,
      "velocity": 116,
      "chip": "ym2612"
    },
    {
      "channel": 4,
      "note": 69,
      "start": 0.1211,
      "duration": 0.0061,
      "velocity": 116,
      "chip": "ym2612"
    },
    {
      "channel": 0,
      "note": 45,
      "start": 0.1265,
      "duration": 0.0044,
      "velocity": 107,
      "chip": "ym2612"
    },
    {
      "channel": 1,
      "note": 49,
      "start": 0.1267,
      "duration": 0.0043,
      "velocity": 107,
      "chip": "ym2612"
    },
    {
      "channel": 3,
      "note": 81,
      "start": 0.127,
      "duration": 0.0079,
      "velocity": 100,
      "chip": "ym2612"
    },
    {
      "channel": 0,
      "note": 45,
      "start": 0.1308,
      "duration": 0.0045,
      "velocity": 107,
      "chip": "ym2612"
    },
    {
      "channel": 1,
      "note": 49,
      "start": 0.131,
      "duration": 0.0045,
      "velocity": 107,
      "chip": "ym2612"
    },
    {
      "channel": 4,
      "note": 69,
      "start": 0.1314,
      "duration": 0.0046,
      "velocity": 116,
      "chip": "ym2612"
    },
    {
      "channel": 2,
      "note": 81,
      "start": 0.1338,
      "duration": 0.0076,
      "velocity": 100,
      "chip": "ym2612"
    },
    {
      "channel": 3,
      "note": 78,
      "start": 0.1357,
      "duration": 0.0073,
      "velocity": 100,
      "chip": "ym2612"
    },
    {
      "channel": 4,
      "note": 69,
      "start": 0.136,
      "duration": 0.0072,
      "velocity": 116,
      "chip": "ym2612"
    },
    {
      "channel": 2,
      "note": 78,
      "start": 0.1418,
      "duration": 0.0081,
      "velocity": 100,
      "chip": "ym2612"
    },
    {
      "channel": 0,
      "note": 45,
      "start": 0.1435,
      "duration": 0.0046,
      "velocity": 107,
      "chip": "ym2612"
    },
    {
      "channel": 1,
      "note": 49,
      "start": 0.1437,
      "duration": 0.0046,
      "velocity": 107,
      "chip": "ym2612"
    },
    {
      "channel": 3,
      "note": 76,
      "start": 0.144,
      "duration": 0.0079,
      "velocity": 100,
      "chip": "ym2612"
    },
    {
      "channel": 4,
      "note": 64,
      "start": 0.1442,
      "duration": 0.0079,
      "velocity": 116,
      "chip": "ym2612"
    },
    {
      "channel": 0,
      "note": 45,
      "start": 0.1482,
      "duration": 0.0043,
      "velocity": 107,
      "chip": "ym2612"
    },
    {
      "channel": 1,
      "note": 49,
      "start": 0.1483,
      "duration": 0.0044,
      "velocity": 107,
      "chip": "ym2612"
    },
    {
      "channel": 2,
      "note": 76,
      "start": 0.1506,
      "duration": 0.0092,
      "velocity": 100,
      "chip": "ym2612"
    },
    {
      "channel": 3,
      "note": 74,
      "start": 0.1529,
      "duration": 0.0351,
      "velocity": 100,
      "chip": "ym2612"
    },
    {
      "channel": 4,
      "note": 57,
      "start": 0.1532,
      "duration": 0.0043,
      "velocity": 116,
      "chip": "ym2612"
    },
    {
      "channel": 2,
      "note": 74,
      "start": 0.1604,
      "duration": 0.0346,
      "velocity": 100,
      "chip": "ym2612"
    },
    {
      "channel": 0,
      "note": 45,
      "start": 0.1629,
      "duration": 0.0043,
      "velocity": 107,
      "chip": "ym2612"
    },
    {
      "channel": 1,
      "note": 49,
      "start": 0.1632,
      "duration": 0.0042,
      "velocity": 107,
      "chip": "ym2612"
    },
    {
      "channel": 4,
      "note": 59,
      "start": 0.1637,
      "duration": 0.0041,
      "velocity": 116,
      "chip": "ym2612"
    },
    {
      "channel": 0,
      "note": 47,
      "start": 0.1672,
      "duration": 0.0046,
      "velocity": 107,
      "chip": "ym2612"
    },
    {
      "channel": 1,
      "note": 50,
      "start": 0.1674,
      "duration": 0.0046,
      "velocity": 107,
      "chip": "ym2612"
    },
    {
      "channel": 4,
      "note": 59,
      "start": 0.1678,
      "duration": 0.0046,
      "velocity": 116,
      "chip": "ym2612"
    },
    {
      "channel": 4,
      "note": 61,
      "start": 0.1724,
      "duration": 0.0046,
      "velocity": 116,
      "chip": "ym2612"
    },
    {
      "channel": 0,
      "note": 47,
      "start": 0.1828,
      "duration": 0.0047,
      "velocity": 107,
      "chip": "ym2612"
    },
    {
      "channel": 1,
      "note": 50,
      "start": 0.183,
      "duration": 0.0047,
      "velocity": 107,
      "chip": "ym2612"
    },
    {
      "channel": 4,
      "note": 71,
      "start": 0.1834,
      "duration": 0.0047,
      "velocity": 116,
      "chip": "ym2612"
    },
    {
      "channel": 0,
      "note": 47,
      "start": 0.1876,
      "duration": 0.0049,
      "velocity": 107,
      "chip": "ym2612"
    },
    {
      "channel": 1,
      "note": 50,
      "start": 0.1878,
      "duration": 0.0048,
      "velocity": 107,
      "chip": "ym2612"
    },
    {
      "channel": 4,
      "note": 71,
      "start": 0.1882,
      "duration": 0.0048,
      "velocity": 116,
      "chip": "ym2612"
    },
    {
      "channel": 3,
      "note": 71,
      "start": 0.1928,
      "duration": 0.0084,
      "velocity": 100,
      "chip": "ym2612"
    },
    {
      "channel": 4,
      "note": 71,
      "start": 0.197,
      "duration": 0.0067,
      "velocity": 116,
      "chip": "ym2612"
    },
    {
      "channel": 2,
      "note": 71,
      "start": 0.2001,
      "duration": 0.0096,
      "velocity": 100,
      "chip": "ym2612"
    },
    {
      "channel": 0,
      "note": 47,
      "start": 0.2029,
      "duration": 0.0043,
      "velocity": 107,
      "chip": "ym2612"
    },
    {
      "channel": 1,
      "note": 50,
      "start": 0.2031,
      "duration": 0.0044,
      "velocity": 107,
      "chip": "ym2612"
    },
    {
      "channel": 3,
      "note": 74,
      "start": 0.2034,
      "duration": 0.0082,
      "velocity": 100,
      "chip": "ym2612"
    },
    {
      "channel": 0,
      "note": 47,
      "start": 0.2073,
      "duration": 0.0046,
      "velocity": 107,
      "chip": "ym2612"
    },
    {
      "channel": 1,
      "note": 50,
      "start": 0.2075,
      "duration": 0.0046,
      "velocity": 107,
      "chip": "ym2612"
    },
    {
      "channel": 4,
      "note": 71,
      "start": 0.2079,
      "duration": 0.0046,
      "velocity": 116,
      "chip": "ym2612"
    },
    {
      "channel": 2,
      "note": 74,
      "start": 0.2103,
      "duration": 0.0077,
      "velocity": 100,
      "chip": "ym2612"
    },
    {
      "channel": 3,
      "note": 71,
      "start": 0.2123,
      "duration": 0.0076,
      "velocity": 100,
      "chip": "ym2612"
    },
    {
      "channel": 4,
      "note": 71,
      "start": 0.2126,
      "duration": 0.0076,
      "velocity": 116,
      "chip": "ym2612"
    },
    {
      "channel": 2,
      "note": 71,
      "start": 0.2186,
      "duration": 0.0082,
      "velocity": 100,
      "chip": "ym2612"
    },
    {
      "channel": 0,
      "note": 47,
      "start": 0.2205,
      "duration": 0.0046,
      "velocity": 107,
      "chip": "ym2612"
    },
    {
      "channel": 1,
      "note": 50,
      "start": 0.2207,
      "duration": 0.0046,
      "velocity": 107,
      "chip": "ym2612"
    },
    {
      "channel": 3,
      "note": 74,
      "start": 0.2209,
      "duration": 0.0862,
      "velocity": 100,
      "chip": "ym2612"
    },
    {
      "channel": 4,
      "note": 66,
      "start": 0.2211,
      "duration": 0.0075,
      "velocity": 116,
      "chip": "ym2612"
    },
    {
      "channel": 0,
      "note": 47,
      "start": 0.2251,
      "duration": 0.0039,
      "velocity": 107,
      "chip": "ym2612"
    },
    {
      "channel": 1,
      "note": 50,
      "start": 0.2253,
      "duration": 0.0039,
      "velocity": 107,
      "chip": "ym2612"
    },
    {
      "channel": 2,
      "note": 74,
      "start": 0.2275,
      "duration": 0.0872,
      "velocity": 100,
      "chip": "ym2612"
    },
    {
      "channel": 4,
      "note": 59,
      "start": 0.2296,
      "duration": 0.0046,
      "velocity": 116,
      "chip": "ym2612"
    },
    {
      "channel": 0,
      "note": 47,
      "start": 0.2395,
      "duration": 0.0041,
      "velocity": 107,
      "chip": "ym2612"
    },
    {
      "channel": 1,
      "note": 50,
      "start": 0.2396,
      "duration": 0.0041,
      "velocity": 107,
      "chip": "ym2612"
    },
    {
      "channel": 4,
      "note": 52,
      "start": 0.2401,
      "duration": 0.0041,
      "velocity": 116,
      "chip": "ym2612"
    },
    {
      "channel": 0,
      "note": 47,
      "start": 0.2436,
      "duration": 0.0048,
      "velocity": 107,
      "chip": "ym2612"
    },
    {
      "channel": 1,
      "note": 52,
      "start": 0.2437,
      "duration": 0.0048,
      "velocity": 107,
      "chip": "ym2612"
    },
    {
      "channel": 4,
      "note": 52,
      "start": 0.2489,
      "duration": 0.0042,
      "velocity": 116,
      "chip": "ym2612"
    },
    {
      "channel": 0,
      "note": 47,
      "start": 0.2589,
      "duration": 0.0044,
      "velocity": 107,
      "chip": "ym2612"
    },
    {
      "channel": 1,
      "note": 52,
      "start": 0.2591,
      "duration": 0.0044,
      "velocity": 107,
      "chip": "ym2612"
    },
    {
      "channel": 4,
      "note": 64,
      "start": 0.2595,
      "duration": 0.0044,
      "velocity": 116,
      "chip": "ym2612"
    },
    {
      "channel": 0,
      "note": 47,
      "start": 0.2634,
      "duration": 0.0048,
      "velocity": 107,
      "chip": "ym2612"
    },
    {
      "channel": 1,
      "note": 52,
      "start": 0.2636,
      "duration": 0.0048,
      "velocity": 107,
      "chip": "ym2612"
    },
    {
      "channel": 4,
      "note": 64,
      "start": 0.264,
      "duration": 0.0047,
      "velocity": 116,
      "chip": "ym2612"
    },
    {
      "channel": 4,
      "note": 64,
      "start": 0.2731,
      "duration": 0.0066,
      "velocity": 116,
      "chip": "ym2612"
    },
    {
      "channel": 0,
      "note": 47,
      "start": 0.2791,
      "duration": 0.0045,
      "velocity": 107,
      "chip": "ym2612"
    },
    {
      "channel": 1,
      "note": 52,
      "start": 0.2793,
      "duration": 0.0046,
      "velocity": 107,
      "chip": "ym2612"
    },
    {
      "channel": 0,
      "note": 47,
      "start": 0.2837,
      "duration": 0.0049,
      "velocity": 107,
      "chip": "ym2612"
    },
    {
      "channel": 1,
      "note": 52,
      "start": 0.2839,
      "duration": 0.0048,
      "velocity": 107,
      "chip": "ym2612"
    },
    {
      "channel": 4,
      "note": 64,
      "start": 0.2843,
      "duration": 0.0048,
      "velocity": 116,
      "chip": "ym2612"
    },
    {
      "channel": 4,
      "note": 64,
      "start": 0.2891,
      "duration": 0.0083,
      "velocity": 116,
      "chip": "ym2612"
    },
    {
      "channel": 0,
      "note": 47,
      "start": 0.2977,
      "duration": 0.005,
      "velocity": 107,
      "chip": "ym2612"
    },
    {
      "channel": 1,
      "note": 52,
      "start": 0.2979,
      "duration": 0.0049,
      "velocity": 107,
      "chip": "ym2612"
    },
    {
      "channel": 4,
      "note": 59,
      "start": 0.2983,
      "duration": 0.008,
      "velocity": 116,
      "chip": "ym2612"
    },
    {
      "channel": 0,
      "note": 47,
      "start": 0.3027,
      "duration": 0.0041,
      "velocity": 107,
      "chip": "ym2612"
    },
    {
      "channel": 1,
      "note": 52,
      "start": 0.3029,
      "duration": 0.004,
      "velocity": 107,
      "chip": "ym2612"
    },
    {
      "channel": 3,
      "note": 76,
      "start": 0.3072,
      "duration": 0.0499,
      "velocity": 100,
      "chip": "ym2612"
    },
    {
      "channel": 4,
      "note": 52,
      "start": 0.3074,
      "duration": 0.0046,
      "velocity": 116,
      "chip": "ym2612"
    },
    {
      "channel": 2,
      "note": 76,
      "start": 0.3148,
      "duration": 0.0491,
      "velocity": 100,
      "chip": "ym2612"
    },
    {
      "channel": 0,
      "note": 47,
      "start": 0.3174,
      "duration": 0.0043,
      "velocity": 107,
      "chip": "ym2612"
    },
    {
      "channel": 1,
      "note": 52,
      "start": 0.3176,
      "duration": 0.0042,
      "velocity": 107,
      "chip": "ym2612"
    },
    {
      "channel": 4,
      "note": 59,
      "start": 0.318,
      "duration": 0.0042,
      "velocity": 116,
      "chip": "ym2612"
    },
    {
      "channel": 0,
      "note": 47,
      "start": 0.3217,
      "duration": 0.0044,
      "velocity": 107,
      "chip": "ym2612"
    },
    {
      "channel": 1,
      "note": 50,
      "start": 0.3218,
      "duration": 0.0044,
      "velocity": 107,
      "chip": "ym2612"
    },
    {
      "channel": 4,
      "note": 59,
      "start": 0.3266,
      "duration": 0.0043,
      "velocity": 116,
      "chip": "ym2612"
    },
    {
      "channel": 0,
      "note": 47,
      "start": 0.3368,
      "duration": 0.0047,
      "velocity": 107,
      "chip": "ym2612"
    },
    {
      "channel": 1,
      "note": 50,
      "start": 0.337,
      "duration": 0.0047,
      "velocity": 107,
      "chip": "ym2612"
    },
    {
      "channel": 4,
      "note": 71,
      "start": 0.3375,
      "duration": 0.0047,
      "velocity": 116,
      "chip": "ym2612"
    },
    {
      "channel": 0,
      "note": 47,
      "start": 0.3415,
      "duration": 0.0046,
      "velocity": 107,
      "chip": "ym2612"
    },
    {
      "channel": 1,
      "note": 50,
      "start": 0.3418,
      "duration": 0.0045,
      "velocity": 107,
      "chip": "ym2612"
    },
    {
      "channel": 4,
      "note": 71,
      "start": 0.3422,
      "duration": 0.0044,
      "velocity": 116,
      "chip": "ym2612"
    },
    {
      "channel": 4,
      "note": 71,
      "start": 0.351,
      "duration": 0.0064,
      "velocity": 116,
      "chip": "ym2612"
    },
    {
      "channel": 0,
      "note": 47,
      "start": 0.3567,
      "duration": 0.0043,
      "velocity": 107,
      "chip": "ym2612"
    },
    {
      "channel": 1,
      "note": 50,
      "start": 0.3568,
      "duration": 0.0043,
      "velocity": 107,
      "chip": "ym2612"
    },
    {
      "channel": 3,
      "note": 74,
      "start": 0.3572,
      "duration": 0.0078,
      "velocity": 100,
      "chip": "ym2612"
    },
    {
      "channel": 0,
      "note": 47,
      "start": 0.361,
      "duration": 0.0045,
      "velocity": 107,
      "chip": "ym2612"
    },
    {
      "channel": 1,
      "note": 50,
      "start": 0.3612,
      "duration": 0.0045,
      "velocity": 107,
      "chip": "ym2612"
    },
    {
      "channel": 4,
      "note": 71,
      "start": 0.3616,
      "duration": 0.0046,
      "velocity": 116,
      "chip": "ym2612"
    },
    {
      "channel": 2,
      "note": 74,
      "start": 0.3639,
      "duration": 0.008,
      "velocity": 100,
      "chip": "ym2612"
    },
    {
      "channel": 3,
      "note": 83,
      "start": 0.366,
      "duration": 0.0078,
      "velocity": 100,
      "chip": "ym2612"
    },
    {
      "channel": 4,
      "note": 71,
      "start": 0.3662,
      "duration": 0.0078,
      "velocity": 116,
      "chip": "ym2612"
    },
    {
      "channel": 2,
      "note": 83,
      "start": 0.3725,
      "duration": 0.008,
      "velocity": 100,
      "chip": "ym2612"
    },
    {
      "channel": 0,
      "note": 47,
      "start": 0.3743,
      "duration": 0.0042,
      "velocity": 107,
      "chip": "ym2612"
    },
    {
      "channel": 1,
      "note": 50,
      "start": 0.3744,
      "duration": 0.0042,
      "velocity": 107,
      "chip": "ym2612"
    },
    {
      "channel": 3,
      "note": 81,
      "start": 0.3747,
      "duration": 0.0076,
      "velocity": 100,
      "chip": "ym2612"
    },
    {
      "channel": 4,
      "note": 66,
      "start": 0.3749,
      "duration": 0.0076,
      "velocity": 116,
      "chip": "ym2612"
    },
    {
      "channel": 0,
      "note": 47,
      "start": 0.3785,
      "duration": 0.0043,
      "velocity": 107,
      "chip": "ym2612"
    },
    {
      "channel": 1,
      "note": 50,
      "start": 0.3787,
      "duration": 0.0043,
      "velocity": 107,
      "chip": "ym2612"
    },
    {
      "channel": 2,
      "note": 81,
      "start": 0.3811,
      "duration": 0.009,
      "velocity": 100,
      "chip": "ym2612"
    },
    {
      "channel": 3,
      "note": 83,
      "start": 0.3832,
      "duration": 0.0595,
      "velocity": 100,
      "chip": "ym2612"
    },
    {
      "channel": 4,
      "note": 59,
      "start": 0.3834,
      "duration": 0.0044,
      "velocity": 116,
      "chip": "ym2612"
    },
    {
      "channel": 2,
      "note": 83,
      "start": 0.3907,
      "duration": 0.0583,
      "velocity": 100,
      "chip": "ym2612"
    },
    {
      "channel": 0,
      "note": 47,
      "start": 0.3935,
      "duration": 0.0043,
      "velocity": 107,
      "chip": "ym2612"
    },
    {
      "channel": 1,
      "note": 50,
      "start": 0.3937,
      "duration": 0.0043,
      "velocity": 107,
      "chip": "ym2612"
    },
    {
      "channel": 4,
      "note": 54,
      "start": 0.3942,
      "duration": 0.0042,
      "velocity": 116,
      "chip": "ym2612"
    },
    {
      "channel": 0,
      "note": 42,
      "start": 0.3979,
      "duration": 0.0044,
      "velocity": 107,
      "chip": "ym2612"
    },
    {
      "channel": 1,
      "note": 45,
      "start": 0.3981,
      "duration": 0.0044,
      "velocity": 107,
      "chip": "ym2612"
    },
    {
      "channel": 4,
      "note": 54,
      "start": 0.4028,
      "duration": 0.0045,
      "velocity": 116,
      "chip": "ym2612"
    },
    {
      "channel": 0,
      "note": 42,
      "start": 0.4133,
      "duration": 0.0044,
      "velocity": 107,
      "chip": "ym2612"
    },
    {
      "channel": 1,
      "note": 45,
      "start": 0.4134,
      "duration": 0.0044,
      "velocity": 107,
      "chip": "ym2612"
    },
    {
      "channel": 4,
      "note": 66,
      "start": 0.4138,
      "duration": 0.0045,
      "velocity": 116,
      "chip": "ym2612"
    },
    {
      "channel": 0,
      "note": 42,
      "start": 0.4177,
      "duration": 0.0045,
      "velocity": 107,
      "chip": "ym2612"
    },
    {
      "channel": 1,
      "note": 45,
      "start": 0.418,
      "duration": 0.0044,
      "velocity": 107,
      "chip": "ym2612"
    },
    {
      "channel": 4,
      "note": 66,
      "start": 0.4184,
      "duration": 0.0044,
      "velocity": 116,
      "chip": "ym2612"
    },
    {
      "channel": 4,
      "note": 66,
      "start": 0.427,
      "duration": 0.0065,
      "velocity": 116,
      "chip": "ym2612"
    },
    {
      "channel": 0,
      "note": 42,
      "start": 0.4328,
      "duration": 0.0048,
      "velocity": 107,
      "chip": "ym2612"
    },
    {
      "channel": 1,
      "note": 45,
      "start": 0.433,
      "duration": 0.0048,
      "velocity": 107,
      "chip": "ym2612"
    },
    {
      "channel": 0,
      "note": 42,
      "start": 0.4377,
      "duration": 0.0045,
      "velocity": 107,
      "chip": "ym2612"
    },
    {
      "channel": 1,
      "note": 45,
      "start": 0.4378,
      "duration": 0.0045,
      "velocity": 107,
      "chip": "ym2612"
    },
    {
      "channel": 4,
      "note": 66,
      "start": 0.4382,
      "duration": 0.0046,
      "velocity": 116,
      "chip": "ym2612"
    },
    {
      "channel": 3,
      "note": 78,
      "start": 0.4427,
      "duration": 0.0148,
      "velocity": 100,
      "chip": "ym2612"
    },
    {
      "channel": 4,
      "note": 66,
      "start": 0.4429,
      "duration": 0.0073,
      "velocity": 116,
      "chip": "ym2612"
    },
    {
      "channel": 2,
      "note": 78,
      "start": 0.449,
      "duration": 0.0149,
      "velocity": 100,
      "chip": "ym2612"
    },
    {
      "channel": 0,
      "note": 42,
      "start": 0.4506,
      "duration": 0.0043,
      "velocity": 107,
      "chip": "ym2612"
    },
    {
      "channel": 1,
      "note": 45,
      "start": 0.4508,
      "duration": 0.0043,
      "velocity": 107,
      "chip": "ym2612"
    },
    {
      "channel": 4,
      "note": 61,
      "start": 0.4511,
      "duration": 0.0076,
      "velocity": 116,
      "chip": "ym2612"
    },
    {
      "channel": 0,
      "note": 42,
      "start": 0.4549,
      "duration": 0.0042,
      "velocity": 107,
      "chip": "ym2612"
    },
    {
      "channel": 1,
      "note": 45,
      "start": 0.4551,
      "duration": 0.0042,
      "velocity": 107,
      "chip": "ym2612"
    },
    {
      "channel": 3,
      "note": 76,
      "start": 0.4596,
      "duration": 0.0591,
      "velocity": 100,
      "chip": "ym2612"
    },
    {
      "channel": 4,
      "note": 54,
      "start": 0.4597,
      "duration": 0.0045,
      "velocity": 116,
      "chip": "ym2612"
    },
    {
      "channel": 2,
      "note": 76,
      "start": 0.4673,
      "duration": 0.0575,
      "velocity": 100,
      "chip": "ym2612"
    },
    {
      "channel": 0,
      "note": 42,
      "start": 0.4701,
      "duration": 0.0044,
      "velocity": 107,
      "chip": "ym2612"
    },
    {
      "channel": 1,
      "note": 45,
      "start": 0.4702,
      "duration": 0.0044,
      "velocity": 107,
      "chip": "ym2612"
    },
    {
      "channel": 4,
      "note": 55,
      "start": 0.4707,
      "duration": 0.0043,
      "velocity": 116,
      "chip": "ym2612"
    },
    {
      "channel": 0,
      "note": 43,
      "start": 0.4744,
      "duration": 0.0044,
      "velocity": 107,
      "chip": "ym2612"
    },
    {
      "channel": 1,
      "note": 47,
      "start": 0.4747,
      "duration": 0.0044,
      "velocity": 107,
      "chip": "ym2612"
    },
    {
      "channel": 4,
      "note": 55,
      "start": 0.4794,
      "duration": 0.0038,
      "velocity": 116,
      "chip": "ym2612"
    },
    {
      "channel": 0,
      "note": 43,
      "start": 0.489,
      "duration": 0.0045,
      "velocity": 107,
      "chip": "ym2612"
    },
    {
      "channel": 1,
      "note": 47,
      "start": 0.4892,
      "duration": 0.0045,
      "velocity": 107,
      "chip": "ym2612"
    },
    {
      "channel": 4,
      "note": 67,
      "start": 0.4896,
      "duration": 0.0045,
      "velocity": 116,
      "chip": "ym2612"
    },
    {
      "channel": 0,
      "note": 43,
      "start": 0.4935,
      "duration": 0.0049,
      "velocity": 107,
      "chip": "ym2612"
    },
    {
      "channel": 1,
      "note": 47,
      "start": 0.4937,
      "duration": 0.0048,
      "velocity": 107,
      "chip": "ym2612"
    },
    {
      "channel": 4,
      "note": 67,
      "start": 0.4942,
      "duration": 0.0048,
      "velocity": 116,
      "chip": "ym2612"
    },
    {
      "channel": 4,
      "note": 67,
      "start": 0.5034,
      "duration": 0.0064,
      "velocity": 116,
      "chip": "ym2612"
    },
    {
      "channel": 0,
      "note": 43,
      "start": 0.5092,
      "duration": 0.0042,
      "velocity": 107,
      "chip": "ym2612"
    },
    {
      "channel": 1,
      "note": 47,
      "start": 0.5094,
      "duration": 0.0043,
      "velocity": 107,
      "chip": "ym2612"
    },
    {
      "channel": 0,
      "note": 43,
      "start": 0.5135,
      "duration": 0.0048,
      "velocity": 107,
      "chip": "ym2612"
    },
    {
      "channel": 1,
      "note": 47,
      "start": 0.5137,
      "duration": 0.0047,
      "velocity": 107,
      "chip": "ym2612"
    },
    {
      "channel": 4,
      "note": 67,
      "start": 0.5141,
      "duration": 0.0048,
      "velocity": 116,
      "chip": "ym2612"
    },
    {
      "channel": 3,
      "note": 74,
      "start": 0.5187,
      "duration": 0.0154,
      "velocity": 100,
      "chip": "ym2612"
    },
    {
      "channel": 4,
      "note": 67,
      "start": 0.5189,
      "duration": 0.0071,
      "velocity": 116,
      "chip": "ym2612"
    },
    {
      "channel": 2,
      "note": 74,
      "start": 0.5249,
      "duration": 0.0151,
      "velocity": 100,
      "chip": "ym2612"
    },
    {
      "channel": 0,
      "note": 43,
      "start": 0.5264,
      "duration": 0.005,
      "velocity": 107,
      "chip": "ym2612"
    },
    {
      "channel": 1,
      "note": 47,
      "start": 0.5266,
      "duration": 0.005,
      "velocity": 107,
      "chip": "ym2612"
    },
    {
      "channel": 4,
      "note": 62,
      "start": 0.5269,
      "duration": 0.0081,
      "velocity": 116,
      "chip": "ym2612"
    },
    {
      "channel": 0,
      "note": 43,
      "start": 0.5315,
      "duration": 0.0039,
      "velocity": 107,
      "chip": "ym2612"
    },
    {
      "channel": 1,
      "note": 47,
      "start": 0.5316,
      "duration": 0.0039,
      "velocity": 107,
      "chip": "ym2612"
    },
    {
      "channel": 3,
      "note": 83,
      "start": 0.5358,
      "duration": 0.0678,
      "velocity": 100,
      "chip": "ym2612"
    },
    {
      "channel": 4,
      "note": 55,
      "start": 0.536,
      "duration": 0.0042,
      "velocity": 116,
      "chip": "ym2612"
    },
    {
      "channel": 2,
      "note": 83,
      "start": 0.5432,
      "duration": 0.0675,
      "velocity": 100,
      "chip": "ym2612"
    },
    {
      "channel": 0,
      "note": 43,
      "start": 0.546,
      "duration": 0.0044,
      "velocity": 107,
      "chip": "ym2612"
    },
    {
      "channel": 1,
      "note": 47,
      "start": 0.5462,
      "duration": 0.0044,
      "velocity": 107,
      "chip": "ym2612"
    },
    {
      "channel": 4,
      "note": 50,
      "start": 0.5466,
      "duration": 0.0043,
      "velocity": 116,
      "chip": "ym2612"
    },
    {
      "channel": 0,
      "note": 45,
      "start": 0.5504,
      "duration": 0.0042,
      "velocity": 107,
      "chip": "ym2612"
    },
    {
      "channel": 1,
      "note": 50,
      "start": 0.5507,
      "duration": 0.0041,
      "velocity": 107,
      "chip": "ym2612"
    },
    {
      "channel": 4,
      "note": 50,
      "start": 0.5551,
      "duration": 0.0039,
      "velocity": 116,
      "chip": "ym2612"
    },
    {
      "channel": 0,
      "note": 45,
      "start": 0.5649,
      "duration": 0.0046,
      "velocity": 107,
      "chip": "ym2612"
    },
    {
      "channel": 1,
      "note": 50,
      "start": 0.5651,
      "duration": 0.0047,
      "velocity": 107,
      "chip": "ym2612"
    },
    {
      "channel": 4,
      "note": 62,
      "start": 0.5656,
      "duration": 0.0047,
      "velocity": 116,
      "chip": "ym2612"
    },
    {
      "channel": 0,
      "note": 45,
      "start": 0.5696,
      "duration": 0.0046,
      "velocity": 107,
      "chip": "ym2612"
    },
    {
      "channel": 1,
      "note": 50,
      "start": 0.5699,
      "duration": 0.0045,
      "velocity": 107,
      "chip": "ym2612"
    },
    {
      "channel": 4,
      "note": 62,
      "start": 0.5703,
      "duration": 0.0044,
      "velocity": 116,
      "chip": "ym2612"
    },
    {
      "channel": 4,
      "note": 62,
      "start": 0.5789,
      "duration": 0.0065,
      "velocity": 116,
      "chip": "ym2612"
    },
    {
      "channel": 0,
      "note": 45,
      "start": 0.5848,
      "duration": 0.0054,
      "velocity": 107,
      "chip": "ym2612"
    },
    {
      "channel": 1,
      "note": 50,
      "start": 0.585,
      "duration": 0.0054,
      "velocity": 107,
      "chip": "ym2612"
    },
    {
      "channel": 0,
      "note": 45,
      "start": 0.5902,
      "duration": 0.004,
      "velocity": 107,
      "chip": "ym2612"
    },
    {
      "channel": 1,
      "note": 50,
      "start": 0.5904,
      "duration": 0.0039,
      "velocity": 107,
      "chip": "ym2612"
    },
    {
      "channel": 4,
      "note": 62,
      "start": 0.5908,
      "duration": 0.004,
      "velocity": 116,
      "chip": "ym2612"
    },
    {
      "channel": 4,
      "note": 62,
      "start": 0.5948,
      "duration": 0.0079,
      "velocity": 116,
      "chip": "ym2612"
    },
    {
      "channel": 0,
      "note": 45,
      "start": 0.6032,
      "duration": 0.0049,
      "velocity": 107,
      "chip": "ym2612"
    },
    {
      "channel": 1,
      "note": 50,
      "start": 0.6033,
      "duration": 0.0049,
      "velocity": 107,
      "chip": "ym2612"
    },
    {
      "channel": 4,
      "note": 57,
      "start": 0.6038,
      "duration": 0.0082,
      "velocity": 116,
      "chip": "ym2612"
    },
    {
      "channel": 0,
      "note": 45,
      "start": 0.6081,
      "duration": 0.0043,
      "velocity": 107,
      "chip": "ym2612"
    },
    {
      "channel": 1,
      "note": 50,
      "start": 0.6083,
      "duration": 0.0042,
      "velocity": 107,
      "chip": "ym2612"
    },
    {
      "channel": 0,
      "note": 45,
      "start": 0.6124,
      "duration": 0.0344,
      "velocity": 107,
      "chip": "ym2612"
    },
    {
      "channel": 1,
      "note": 50,
      "start": 0.6127,
      "duration": 0.0342,
      "velocity": 107,
      "chip": "ym2612"
    },
    {
      "channel": 3,
      "note": 81,
      "start": 0.6128,
      "duration": 0.0047,
      "velocity": 100,
      "chip": "ym2612"
    },
    {
      "channel": 4,
      "note": 50,
      "start": 0.613,
      "duration": 0.0047,
      "velocity": 116,
      "chip": "ym2612"
    },
    {
      "channel": 2,
      "note": 81,
      "start": 0.6207,
      "duration": 0.0047,
      "velocity": 100,
      "chip": "ym2612"
    },
    {
      "channel": 3,
      "note": 83,
      "start": 0.6234,
      "duration": 0.0039,
      "velocity": 100,
      "chip": "ym2612"
    },
    {
      "channel": 4,
      "note": 55,
      "start": 0.6236,
      "duration": 0.0038,
      "velocity": 116,
      "chip": "ym2612"
    },
    {
      "channel": 2,
      "note": 83,
      "start": 0.6298,
      "duration": 0.0047,
      "velocity": 100,
      "chip": "ym2612"
    },
    {
      "channel": 3,
      "note": 83,
      "start": 0.6317,
      "duration": 0.0051,
      "velocity": 100,
      "chip": "ym2612"
    },
    {
      "channel": 4,
      "note": 55,
      "start": 0.6318,
      "duration": 0.0095,
      "velocity": 116,
      "chip": "ym2612"
    },
    {
      "channel": 2,
      "note": 83,
      "start": 0.64,
      "duration": 0.0041,
      "velocity": 100,
      "chip": "ym2612"
    },
    {
      "channel": 3,
      "note": 83,
      "start": 0.642,
      "duration": 0.0051,
      "velocity": 100,
      "chip": "ym2612"
    },
    {
      "channel": 4,
      "note": 62,
      "start": 0.6473,
      "duration": 0.0049,
      "velocity": 116,
      "chip": "ym2612"
    },
    {
      "channel": 2,
      "note": 83,
      "start": 0.6499,
      "duration": 0.0048,
      "velocity": 100,
      "chip": "ym2612"
    },
    {
      "channel": 0,
      "note": 47,
      "start": 0.6516,
      "duration": 0.0323,
      "velocity": 107,
      "chip": "ym2612"
    },
    {
      "channel": 1,
      "note": 50,
      "start": 0.6518,
      "duration": 0.0322,
      "velocity": 107,
      "chip": "ym2612"
    },
    {
      "channel": 3,
      "note": 83,
      "start": 0.652,
      "duration": 0.0045,
      "velocity": 100,
      "chip": "ym2612"
    },
    {
      "channel": 4,
      "note": 62,
      "start": 0.6522,
      "duration": 0.0045,
      "velocity": 116,
      "chip": "ym2612"
    },
    {
      "channel": 3,
      "note": 81,
      "start": 0.6565,
      "duration": 0.0063,
      "velocity": 100,
      "chip": "ym2612"
    },
    {
      "channel": 2,
      "note": 83,
      "start": 0.6597,
      "duration": 0.005,
      "velocity": 100,
      "chip": "ym2612"
    },
    {
      "channel": 4,
      "note": 50,
      "start": 0.6631,
      "duration": 0.0035,
      "velocity": 116,
      "chip": "ym2612"
    },
    {
      "channel": 2,
      "note": 81,
      "start": 0.6647,
      "duration": 0.0039,
      "velocity": 100,
      "chip": "ym2612"
    },
    {
      "channel": 3,
      "note": 78,
      "start": 0.6663,
      "duration": 0.0231,
      "velocity": 100,
      "chip": "ym2612"
    },
    {
      "channel": 4,
      "note": 50,
      "start": 0.6703,
      "duration": 0.0049,
      "velocity": 116,
      "chip": "ym2612"
    },
    {
      "channel": 2,
      "note": 78,
      "start": 0.673,
      "duration": 0.0242,
      "velocity": 100,
      "chip": "ym2612"
    },
    {
      "channel": 4,
      "note": 57,
      "start": 0.6799,
      "duration": 0.0045,
      "velocity": 116,
      "chip": "ym2612"
    },
    {
      "channel": 0,
      "note": 45,
      "start": 0.6889,
      "duration": 0.0343,
      "velocity": 107,
      "chip": "ym2612"
    },
    {
      "channel": 1,
      "note": 50,
      "start": 0.6891,
      "duration": 0.0342,
      "velocity": 107,
      "chip": "ym2612"
    },
    {
      "channel": 3,
      "note": 78,
      "start": 0.6895,
      "duration": 0.0046,
      "velocity": 100,
      "chip": "ym2612"
    },
    {
      "channel": 4,
      "note": 57,
      "start": 0.6897,
      "duration": 0.0045,
      "velocity": 116,
      "chip": "ym2612"
    },
    {
      "channel": 2,
      "note": 77,
      "start": 0.6972,
      "duration": 0.005,
      "velocity": 100,
      "chip": "ym2612"
    },
    {
      "channel": 3,
      "note": 83,
      "start": 0.7003,
      "duration": 0.0045,
      "velocity": 100,
      "chip": "ym2612"
    },
    {
      "channel": 4,
      "note": 55,
      "start": 0.7005,
      "duration": 0.0045,
      "velocity": 116,
      "chip": "ym2612"
    },
    {
      "channel": 2,
      "note": 83,
      "start": 0.7069,
      "duration": 0.0043,
      "velocity": 100,
      "chip": "ym2612"
    },
    {
      "channel": 3,
      "note": 83,
      "start": 0.7085,
      "duration": 0.0048,
      "velocity": 100,
      "chip": "ym2612"
    },
    {
      "channel": 4,
      "note": 55,
      "start": 0.7087,
      "duration": 0.0098,
      "velocity": 116,
      "chip": "ym2612"
    },
    {
      "channel": 2,
      "note": 83,
      "start": 0.7168,
      "duration": 0.0046,
      "velocity": 100,
      "chip": "ym2612"
    },
    {
      "channel": 3,
      "note": 83,
      "start": 0.719,
      "duration": 0.0045,
      "velocity": 100,
      "chip": "ym2612"
    },
    {
      "channel": 4,
      "note": 62,
      "start": 0.7237,
      "duration": 0.0051,
      "velocity": 116,
      "chip": "ym2612"
    },
    {
      "channel": 2,
      "note": 83,
      "start": 0.7263,
      "duration": 0.0047,
      "velocity": 100,
      "chip": "ym2612"
    },
    {
      "channel": 0,
      "note": 47,
      "start": 0.7282,
      "duration": 0.0324,
      "velocity": 107,
      "chip": "ym2612"
    },
    {
      "channel": 1,
      "note": 50,
      "start": 0.7283,
      "duration": 0.0323,
      "velocity": 107,
      "chip": "ym2612"
    },
    {
      "channel": 3,
      "note": 83,
      "start": 0.7285,
      "duration": 0.0042,
      "velocity": 100,
      "chip": "ym2612"
    },
    {
      "channel": 4,
      "note": 62,
      "start": 0.7288,
      "duration": 0.0041,
      "velocity": 116,
      "chip": "ym2612"
    },
    {
      "channel": 3,
      "note": 81,
      "start": 0.7327,
      "duration": 0.0062,
      "velocity": 100,
      "chip": "ym2612"
    },
    {
      "channel": 2,
      "note": 83,
      "start": 0.7357,
      "duration": 0.0053,
      "velocity": 100,
      "chip": "ym2612"
    },
    {
      "channel": 4,
      "note": 50,
      "start": 0.7391,
      "duration": 0.0038,
      "velocity": 116,
      "chip": "ym2612"
    },
    {
      "channel": 2,
      "note": 81,
      "start": 0.741,
      "duration": 0.0042,
      "velocity": 100,
      "chip": "ym2612"
    },
    {
      "channel": 3,
      "note": 78,
      "start": 0.7427,
      "duration": 0.0241,
      "velocity": 100,
      "chip": "ym2612"
    },
    {
      "channel": 4,
      "note": 50,
      "start": 0.7471,
      "duration": 0.0045,
      "velocity": 116,
      "chip": "ym2612"
    },
    {
      "channel": 2,
      "note": 78,
      "start": 0.7495,
      "duration": 0.025,
      "velocity": 100,
      "chip": "ym2612"
    },
    {
      "channel": 4,
      "note": 57,
      "start": 0.7563,
      "duration": 0.0047,
      "velocity": 116,
      "chip": "ym2612"
    },
    {
      "channel": 0,
      "note": 45,
      "start": 0.7663,
      "duration": 0.0326,
      "velocity": 107,
      "chip": "ym2612"
    },
    {
      "channel": 1,
      "note": 50,
      "start": 0.7666,
      "duration": 0.0325,
      "velocity": 107,
      "chip": "ym2612"
    },
    {
      "channel": 3,
      "note": 78,
      "start": 0.7668,
      "duration": 0.0043,
      "velocity": 100,
      "chip": "ym2612"
    },
    {
      "channel": 4,
      "note": 57,
      "start": 0.7671,
      "duration": 0.0043,
      "velocity": 116,
      "chip": "ym2612"
    },
    {
      "channel": 2,
      "note": 78,
      "start": 0.7744,
      "duration": 0.0047,
      "velocity": 100,
      "chip": "ym2612"
    },
    {
      "channel": 3,
      "note": 83,
      "start": 0.7773,
      "duration": 0.0034,
      "velocity": 100,
      "chip": "ym2612"
    },
    {
      "channel": 4,
      "note": 55,
      "start": 0.7775,
      "duration": 0.0034,
      "velocity": 116,
      "chip": "ym2612"
    },
    {
      "channel": 2,
      "note": 83,
      "start": 0.7832,
      "duration": 0.0046,
      "velocity": 100,
      "chip": "ym2612"
    },
    {
      "channel": 3,
      "note": 83,
      "start": 0.785,
      "duration": 0.0046,
      "velocity": 100,
      "chip": "ym2612"
    },
    {
      "channel": 4,
      "note": 55,
      "start": 0.7851,
      "duration": 0.0095,
      "velocity": 116,
      "chip": "ym2612"
    },
    {
      "channel": 2,
      "note": 83,
      "start": 0.7931,
      "duration": 0.0041,
      "velocity": 100,
      "chip": "ym2612"
    },
    {
      "channel": 3,
      "note": 83,
      "start": 0.7954,
      "duration": 0.004,
      "velocity": 100,
      "chip": "ym2612"
    },
    {
      "channel": 4,
      "note": 62,
      "start": 0.7995,
      "duration": 0.005,
      "velocity": 116,
      "chip": "ym2612"
    },
    {
      "channel": 2,
      "note": 83,
      "start": 0.8022,
      "duration": 0.0047,
      "velocity": 100,
      "chip": "ym2612"
    },
    {
      "channel": 0,
      "note": 47,
      "start": 0.8039,
      "duration": 0.0322,
      "velocity": 107,
      "chip": "ym2612"
    },
    {
      "channel": 1,
      "note": 50,
      "start": 0.8041,
      "duration": 0.0322,
      "velocity": 107,
      "chip": "ym2612"
    },
    {
      "channel": 3,
      "note": 83,
      "start": 0.8043,
      "duration": 0.0103,
      "velocity": 100,
      "chip": "ym2612"
    },
    {
      "channel": 4,
      "note": 62,
      "start": 0.8045,
      "duration": 0.0041,
      "velocity": 116,
      "chip": "ym2612"
    },
    {
      "channel": 2,
      "note": 83,
      "start": 0.8114,
      "duration": 0.0096,
      "velocity": 100,
      "chip": "ym2612"
    },
    {
      "channel": 3,
      "note": 81,
      "start": 0.8147,
      "duration": 0.0034,
      "velocity": 100,
      "chip": "ym2612"
    },
    {
      "channel": 4,
      "note": 50,
      "start": 0.8149,
      "duration": 0.0033,
      "velocity": 116,
      "chip": "ym2612"
    },
    {
      "channel": 2,
      "note": 81,
      "start": 0.821,
      "duration": 0.0047,
      "velocity": 100,
      "chip": "ym2612"
    },
    {
      "channel": 3,
      "note": 78,
      "start": 0.8229,
      "duration": 0.0092,
      "velocity": 100,
      "chip": "ym2612"
    },
    {
      "channel": 4,
      "note": 50,
      "start": 0.8231,
      "duration": 0.0047,
      "velocity": 116,
      "chip": "ym2612"
    },
    {
      "channel": 2,
      "note": 78,
      "start": 0.8302,
      "duration": 0.0087,
      "velocity": 100,
      "chip": "ym2612"
    },
    {
      "channel": 3,
      "note": 78,
      "start": 0.8322,
      "duration": 0.009,
      "velocity": 100,
      "chip": "ym2612"
    },
    {
      "channel": 4,
      "note": 57,
      "start": 0.8324,
      "duration": 0.0042,
      "velocity": 116,
      "chip": "ym2612"
    },
    {
      "channel": 2,
      "note": 78,
      "start": 0.8389,
      "duration": 0.0102,
      "velocity": 100,
      "chip": "ym2612"
    },
    {
      "channel": 3,
      "note": 76,
      "start": 0.8413,
      "duration": 0.036,
      "velocity": 100,
      "chip": "ym2612"
    },
    {
      "channel": 4,
      "note": 57,
      "start": 0.8414,
      "duration": 0.0046,
      "velocity": 116,
      "chip": "ym2612"
    },
    {
      "channel": 2,
      "note": 76,
      "start": 0.8492,
      "duration": 0.036,
      "velocity": 100,
      "chip": "ym2612"
    },
    {
      "channel": 0,
      "note": 45,
      "start": 0.8522,
      "duration": 0.0044,
      "velocity": 107,
      "chip": "ym2612"
    },
    {
      "channel": 1,
      "note": 50,
      "start": 0.8524,
      "duration": 0.0044,
      "velocity": 107,
      "chip": "ym2612"
    },
    {
      "channel": 4,
      "note": 54,
      "start": 0.8528,
      "duration": 0.0043,
      "velocity": 116,
      "chip": "ym2612"
    },
    {
      "channel": 0,
      "note": 42,
      "start": 0.8566,
      "duration": 0.0047,
      "velocity": 107,
      "chip": "ym2612"
    },
    {
      "channel": 1,
      "note": 46,
      "start": 0.8568,
      "duration": 0.0046,
      "velocity": 107,
      "chip": "ym2612"
    },
    {
      "channel": 4,
      "note": 54,
      "start": 0.8572,
      "duration": 0.0046,
      "velocity": 116,
      "chip": "ym2612"
    },
    {
      "channel": 4,
      "note": 54,
      "start": 0.8618,
      "duration": 0.0045,
      "velocity": 116,
      "chip": "ym2612"
    },
    {
      "channel": 0,
      "note": 42,
      "start": 0.8724,
      "duration": 0.0044,
      "velocity": 107,
      "chip": "ym2612"
    },
    {
      "channel": 1,
      "note": 46,
      "start": 0.8726,
      "duration": 0.0044,
      "velocity": 107,
      "chip": "ym2612"
    },
    {
      "channel": 4,
      "note": 54,
      "start": 0.873,
      "duration": 0.0045,
      "velocity": 116,
      "chip": "ym2612"
    },
    {
      "channel": 0,
      "note": 42,
      "start": 0.8768,
      "duration": 0.0056,
      "velocity": 107,
      "chip": "ym2612"
    },
    {
      "channel": 1,
      "note": 46,
      "start": 0.8771,
      "duration": 0.0056,
      "velocity": 107,
      "chip": "ym2612"
    },
    {
      "channel": 4,
      "note": 54,
      "start": 0.8775,
      "duration": 0.0056,
      "velocity": 116,
      "chip": "ym2612"
    },
    {
      "channel": 3,
      "note": 78,
      "start": 0.8829,
      "duration": 0.0324,
      "velocity": 100,
      "chip": "ym2612"
    },
    {
      "channel": 4,
      "note": 54,
      "start": 0.8832,
      "duration": 0.0039,
      "velocity": 116,
      "chip": "ym2612"
    },
    {
      "channel": 2,
      "note": 78,
      "start": 0.8901,
      "duration": 0.0322,
      "velocity": 100,
      "chip": "ym2612"
    },
    {
      "channel": 0,
      "note": 42,
      "start": 0.893,
      "duration": 0.0039,
      "velocity": 107,
      "chip": "ym2612"
    },
    {
      "channel": 1,
      "note": 46,
      "start": 0.8932,
      "duration": 0.0039,
      "velocity": 107,
      "chip": "ym2612"
    },
    {
      "channel": 4,
      "note": 54,
      "start": 0.8935,
      "duration": 0.004,
      "velocity": 116,
      "chip": "ym2612"
    },
    {
      "channel": 0,
      "note": 42,
      "start": 0.897,
      "duration": 0.0047,
      "velocity": 107,
      "chip": "ym2612"
    },
    {
      "channel": 1,
      "note": 46,
      "start": 0.8972,
      "duration": 0.0047,
      "velocity": 107,
      "chip": "ym2612"
    },
    {
      "channel": 4,
      "note": 54,
      "start": 0.8976,
      "duration": 0.0046,
      "velocity": 116,
      "chip": "ym2612"
    },
    {
      "channel": 4,
      "note": 54,
      "start": 0.9022,
      "duration": 0.0043,
      "velocity": 116,
      "chip": "ym2612"
    },
    {
      "channel": 0,
      "note": 42,
      "start": 0.9102,
      "duration": 0.0046,
      "velocity": 107,
      "chip": "ym2612"
    },
    {
      "channel": 1,
      "note": 46,
      "start": 0.9104,
      "duration": 0.0046,
      "velocity": 107,
      "chip": "ym2612"
    },
    {
      "channel": 4,
      "note": 54,
      "start": 0.9107,
      "duration": 0.0049,
      "velocity": 116,
      "chip": "ym2612"
    },
    {
      "channel": 0,
      "note": 42,
      "start": 0.9149,
      "duration": 0.0045,
      "velocity": 107,
      "chip": "ym2612"
    },
    {
      "channel": 1,
      "note": 46,
      "start": 0.9151,
      "duration": 0.0044,
      "velocity": 107,
      "chip": "ym2612"
    },
    {
      "channel": 4,
      "note": 54,
      "start": 0.9156,
      "duration": 0.0045,
      "velocity": 116,
      "chip": "ym2612"
    },
    {
      "channel": 0,
      "note": 42,
      "start": 0.9194,
      "duration": 0.0351,
      "velocity": 107,
      "chip": "ym2612"
    },
    {
      "channel": 1,
      "note": 46,
      "start": 0.9195,
      "duration": 0.0351,
      "velocity": 107,
      "chip": "ym2612"
    },
    {
      "channel": 3,
      "note": 82,
      "start": 0.9199,
      "duration": 0.1613,
      "velocity": 100,
      "chip": "ym2612"
    },
    {
      "channel": 4,
      "note": 54,
      "start": 0.9202,
      "duration": 0.0348,
      "velocity": 116,
      "chip": "ym2612"
    },
    {
      "channel": 2,
      "note": 82,
      "start": 0.9271,
      "duration": 0.1618,
      "velocity": 100,
      "chip": "ym2612"
    },
    {
      "channel": 0,
      "note": 47,
      "start": 0.9599,
      "duration": 0.0335,
      "velocity": 107,
      "chip": "ym2612"
    },
    {
      "channel": 1,
      "note": 50,
      "start": 0.9601,
      "duration": 0.0334,
      "velocity": 107,
      "chip": "ym2612"
    },
    {
      "channel": 4,
      "note": 59,
      "start": 0.9605,
      "duration": 0.0334,
      "velocity": 116,
      "chip": "ym2612"
    },
    {
      "channel": 0,
      "note": 46,
      "start": 0.9984,
      "duration": 0.0363,
      "velocity": 107,
      "chip": "ym2612"
    },
    {
      "channel": 1,
      "note": 50,
      "start": 0.9986,
      "duration": 0.0362,
      "velocity": 107,
      "chip": "ym2612"
    },
    {
      "channel": 4,
      "note": 58,
      "start": 0.9991,
      "duration": 0.0048,
      "velocity": 116,
      "chip": "ym2612"
    },
    {
      "channel": 4,
      "note": 52,
      "start": 1.0095,
      "duration": 0.0041,
      "velocity": 116,
      "chip": "ym2612"
    },
    {
      "channel": 4,
      "note": 52,
      "start": 1.0137,
      "duration": 0.0046,
      "velocity": 116,
      "chip": "ym2612"
    },
    {
      "channel": 4,
      "note": 52,
      "start": 1.0183,
      "duration": 0.0051,
      "velocity": 116,
      "chip": "ym2612"
    },
    {
      "channel": 4,
      "note": 52,
      "start": 1.0304,
      "duration": 0.0048,
      "velocity": 116,
      "chip": "ym2612"
    },
    {
      "channel": 4,
      "note": 52,
      "start": 1.0352,
      "duration": 0.0054,
      "velocity": 116,
      "chip": "ym2612"
    },
    {
      "channel": 0,
      "note": 45,
      "start": 1.0402,
      "duration": 0.0353,
      "velocity": 107,
      "chip": "ym2612"
    },
    {
      "channel": 1,
      "note": 47,
      "start": 1.0403,
      "duration": 0.0353,
      "velocity": 107,
      "chip": "ym2612"
    },
    {
      "channel": 4,
      "note": 52,
      "start": 1.0407,
      "duration": 0.0045,
      "velocity": 116,
      "chip": "ym2612"
    },
    {
      "channel": 4,
      "note": 52,
      "start": 1.0517,
      "duration": 0.0039,
      "velocity": 116,
      "chip": "ym2612"
    },
    {
      "channel": 4,
      "note": 52,
      "start": 1.0556,
      "duration": 0.0043,
      "velocity": 116,
      "chip": "ym2612"
    },
    {
      "channel": 4,
      "note": 52,
      "start": 1.0599,
      "duration": 0.006,
      "velocity": 116,
      "chip": "ym2612"
    },
    {
      "channel": 4,
      "note": 52,
      "start": 1.071,
      "duration": 0.0049,
      "velocity": 116,
      "chip": "ym2612"
    },
    {
      "channel": 4,
      "note": 52,
      "start": 1.076,
      "duration": 0.0054,
      "velocity": 116,
      "chip": "ym2612"
    },
    {
      "channel": 3,
      "note": 83,
      "start": 1.0812,
      "duration": 0.0178,
      "velocity": 100,
      "chip": "ym2612"
    },
    {
      "channel": 4,
      "note": 52,
      "start": 1.0815,
      "duration": 0.0043,
      "velocity": 116,
      "chip": "ym2612"
    },
    {
      "channel": 2,
      "note": 83,
      "start": 1.0889,
      "duration": 0.0161,
      "velocity": 100,
      "chip": "ym2612"
    },
    {
      "channel": 0,
      "note": 44,
      "start": 1.0915,
      "duration": 0.0043,
      "velocity": 107,
      "chip": "ym2612"
    },
    {
      "channel": 1,
      "note": 47,
      "start": 1.0917,
      "duration": 0.0044,
      "velocity": 107,
      "chip": "ym2612"
    },
    {
      "channel": 4,
      "note": 55,
      "start": 1.0921,
      "duration": 0.0044,
      "velocity": 116,
      "chip": "ym2612"
    },
    {
      "channel": 0,
      "note": 43,
      "start": 1.0958,
      "duration": 0.0046,
      "velocity": 107,
      "chip": "ym2612"
    },
    {
      "channel": 1,
      "note": 47,
      "start": 1.0961,
      "duration": 0.0044,
      "velocity": 107,
      "chip": "ym2612"
    },
    {
      "channel": 4,
      "note": 55,
      "start": 1.0964,
      "duration": 0.0046,
      "velocity": 116,
      "chip": "ym2612"
    },
    {
      "channel": 3,
      "note": 79,
      "start": 1.1008,
      "duration": 0.0177,
      "velocity": 100,
      "chip": "ym2612"
    },
    {
      "channel": 4,
      "note": 55,
      "start": 1.101,
      "duration": 0.0043,
      "velocity": 116,
      "chip": "ym2612"
    },
    {
      "channel": 2,
      "note": 79,
      "start": 1.1084,
      "duration": 0.017,
      "velocity": 100,
      "chip": "ym2612"
    },
    {
      "channel": 0,
      "note": 43,
      "start": 1.1112,
      "duration": 0.0042,
      "velocity": 107,
      "chip": "ym2612"
    },
    {
      "channel": 1,
      "note": 47,
      "start": 1.1113,
      "duration": 0.0042,
      "velocity": 107,
      "chip": "ym2612"
    },
    {
      "channel": 4,
      "note": 55,
      "start": 1.1117,
      "duration": 0.0043,
      "velocity": 116,
      "chip": "ym2612"
    },
    {
      "channel": 0,
      "note": 43,
      "start": 1.1154,
      "duration": 0.0047,
      "velocity": 107,
      "chip": "ym2612"
    },
    {
      "channel": 1,
      "note": 47,
      "start": 1.1156,
      "duration": 0.0046,
      "velocity": 107,
      "chip": "ym2612"
    },
    {
      "channel": 4,
      "note": 55,
      "start": 1.116,
      "duration": 0.0049,
      "velocity": 116,
      "chip": "ym2612"
    },
    {
      "channel": 3,
      "note": 79,
      "start": 1.1205,
      "duration": 0.0178,
      "velocity": 100,
      "chip": "ym2612"
    },
    {
      "channel": 4,
      "note": 55,
      "start": 1.1209,
      "duration": 0.0048,
      "velocity": 116,
      "chip": "ym2612"
    },
    {
      "channel": 2,
      "note": 79,
      "start": 1.1285,
      "duration": 0.0158,
      "velocity": 100,
      "chip": "ym2612"
    },
    {
      "channel": 0,
      "note": 43,
      "start": 1.131,
      "duration": 0.0043,
      "velocity": 107,
      "chip": "ym2612"
    },
    {
      "channel": 1,
      "note": 47,
      "start": 1.1311,
      "duration": 0.0043,
      "velocity": 107,
      "chip": "ym2612"
    },
    {
      "channel": 4,
      "note": 55,
      "start": 1.1315,
      "duration": 0.0042,
      "velocity": 116,
      "chip": "ym2612"
    },
    {
      "channel": 0,
      "note": 43,
      "start": 1.1352,
      "duration": 0.0046,
      "velocity": 107,
      "chip": "ym2612"
    },
    {
      "channel": 1,
      "note": 47,
      "start": 1.1355,
      "duration": 0.0044,
      "velocity": 107,
      "chip": "ym2612"
    },
    {
      "channel": 4,
      "note": 55,
      "start": 1.1358,
      "duration": 0.0046,
      "velocity": 116,
      "chip": "ym2612"
    },
    {
      "channel": 3,
      "note": 81,
      "start": 1.1402,
      "duration": 0.0149,
      "velocity": 100,
      "chip": "ym2612"
    },
    {
      "channel": 4,
      "note": 55,
      "start": 1.1404,
      "duration": 0.0042,
      "velocity": 116,
      "chip": "ym2612"
    },
    {
      "channel": 2,
      "note": 81,
      "start": 1.1466,
      "duration": 0.0147,
      "velocity": 100,
      "chip": "ym2612"
    },
    {
      "channel": 0,
      "note": 43,
      "start": 1.1478,
      "duration": 0.0043,
      "velocity": 107,
      "chip": "ym2612"
    },
    {
      "channel": 1,
      "note": 47,
      "start": 1.148,
      "duration": 0.0043,
      "velocity": 107,
      "chip": "ym2612"
    },
    {
      "channel": 4,
      "note": 55,
      "start": 1.1484,
      "duration": 0.0044,
      "velocity": 116,
      "chip": "ym2612"
    },
    {
      "channel": 0,
      "note": 43,
      "start": 1.1522,
      "duration": 0.0045,
      "velocity": 107,
      "chip": "ym2612"
    },
    {
      "channel": 1,
      "note": 47,
      "start": 1.1523,
      "duration": 0.0045,
      "velocity": 107,
      "chip": "ym2612"
    },
    {
      "channel": 4,
      "note": 55,
      "start": 1.1527,
      "duration": 0.0046,
      "velocity": 116,
      "chip": "ym2612"
    },
    {
      "channel": 3,
      "note": 83,
      "start": 1.1571,
      "duration": 0.0174,
      "velocity": 100,
      "chip": "ym2612"
    },
    {
      "channel": 4,
      "note": 55,
      "start": 1.1573,
      "duration": 0.0043,
      "velocity": 116,
      "chip": "ym2612"
    },
    {
      "channel": 2,
      "note": 83,
      "start": 1.1646,
      "duration": 0.0166,
      "velocity": 100,
      "chip": "ym2612"
    },
    {
      "channel": 0,
      "note": 43,
      "start": 1.1672,
      "duration": 0.004,
      "velocity": 107,
      "chip": "ym2612"
    },
    {
      "channel": 1,
      "note": 47,
      "start": 1.1674,
      "duration": 0.0041,
      "velocity": 107,
      "chip": "ym2612"
    },
    {
      "channel": 4,
      "note": 57,
      "start": 1.1679,
      "duration": 0.0041,
      "velocity": 116,
      "chip": "ym2612"
    },
    {
      "channel": 0,
      "note": 45,
      "start": 1.1713,
      "duration": 0.0046,
      "velocity": 107,
      "chip": "ym2612"
    },
    {
      "channel": 1,
      "note": 49,
      "start": 1.1715,
      "duration": 0.0046,
      "velocity": 107,
      "chip": "ym2612"
    },
    {
      "channel": 4,
      "note": 57,
      "start": 1.1719,
      "duration": 0.0047,
      "velocity": 116,
      "chip": "ym2612"
    },
    {
      "channel": 3,
      "note": 85,
      "start": 1.1764,
      "duration": 0.0176,
      "velocity": 100,
      "chip": "ym2612"
    },
    {
      "channel": 4,
      "note": 57,
      "start": 1.1766,
      "duration": 0.0049,
      "velocity": 116,
      "chip": "ym2612"
    },
    {
      "channel": 2,
      "note": 85,
      "start": 1.1844,
      "duration": 0.0157,
      "velocity": 100,
      "chip": "ym2612"
    },
    {
      "channel": 0,
      "note": 45,
      "start": 1.1868,
      "duration": 0.0039,
      "velocity": 107,
      "chip": "ym2612"
    },
    {
      "channel": 1,
      "note": 49,
      "start": 1.187,
      "duration": 0.0039,
      "velocity": 107,
      "chip": "ym2612"
    },
    {
      "channel": 4,
      "note": 57,
      "start": 1.1873,
      "duration": 0.004,
      "velocity": 116,
      "chip": "ym2612"
    },
    {
      "channel": 0,
      "note": 45,
      "start": 1.1907,
      "duration": 0.0048,
      "velocity": 107,
      "chip": "ym2612"
    },
    {
      "channel": 1,
      "note": 49,
      "start": 1.1909,
      "duration": 0.0048,
      "velocity": 107,
      "chip": "ym2612"
    },
    {
      "channel": 4,
      "note": 57,
      "start": 1.1913,
      "duration": 0.0048,
      "velocity": 116,
      "chip": "ym2612"
    },
    {
      "channel": 3,
      "note": 81,
      "start": 1.196,
      "duration": 0.0176,
      "velocity": 100,
      "chip": "ym2612"
    },
    {
      "channel": 4,
      "note": 57,
      "start": 1.1962,
      "duration": 0.0042,
      "velocity": 116,
      "chip": "ym2612"
    },
    {
      "channel": 2,
      "note": 81,
      "start": 1.2033,
      "duration": 0.0164,
      "velocity": 100,
      "chip": "ym2612"
    },
    {
      "channel": 0,
      "note": 45,
      "start": 1.2063,
      "duration": 0.0042,
      "velocity": 107,
      "chip": "ym2612"
    },
    {
      "channel": 1,
      "note": 49,
      "start": 1.2065,
      "duration": 0.0042,
      "velocity": 107,
      "chip": "ym2612"
    },
    {
      "channel": 4,
      "note": 57,
      "start": 1.2068,
      "duration": 0.0042,
      "velocity": 116,
      "chip": "ym2612"
    },
    {
      "channel": 0,
      "note": 45,
      "start": 1.2105,
      "duration": 0.0045,
      "velocity": 107,
      "chip": "ym2612"
    },
    {
      "channel": 1,
      "note": 49,
      "start": 1.2107,
      "duration": 0.0045,
      "velocity": 107,
      "chip": "ym2612"
    },
    {
      "channel": 4,
      "note": 57,
      "start": 1.211,
      "duration": 0.0047,
      "velocity": 116,
      "chip": "ym2612"
    },
    {
      "channel": 3,
      "note": 83,
      "start": 1.2155,
      "duration": 0.0153,
      "velocity": 100,
      "chip": "ym2612"
    },
    {
      "channel": 4,
      "note": 57,
      "start": 1.2158,
      "duration": 0.0042,
      "velocity": 116,
      "chip": "ym2612"
    },
    {
      "channel": 2,
      "note": 83,
      "start": 1.2222,
      "duration": 24.7294,
      "velocity": 100,
      "chip": "ym2612"
    },
    {
      "channel": 0,
      "note": 45,
      "start": 1.2238,
      "duration": 0.0042,
      "velocity": 107,
      "chip": "ym2612"
    },
    {
      "channel": 1,
      "note": 49,
      "start": 1.2239,
      "duration": 0.0042,
      "velocity": 107,
      "chip": "ym2612"
    },
    {
      "channel": 4,
      "note": 57,
      "start": 1.2243,
      "duration": 0.0043,
      "velocity": 116,
      "chip": "ym2612"
    },
    {
      "channel": 0,
      "note": 45,
      "start": 1.228,
      "duration": 0.0044,
      "velocity": 107,
      "chip": "ym2612"
    },
    {
      "channel": 1,
      "note": 49,
      "start": 1.2283,
      "duration": 0.0043,
      "velocity": 107,
      "chip": "ym2612"
    },
    {
      "channel": 4,
      "note": 57,
      "start": 1.2285,
      "duration": 0.0045,
      "velocity": 116,
      "chip": "ym2612"
    },
    {
      "channel": 3,
      "note": 85,
      "start": 1.2329,
      "duration": 24.7188,
      "velocity": 100,
      "chip": "ym2612"
    },
    {
      "channel": 4,
      "note": 57,
      "start": 1.2331,
      "duration": 24.7186,
      "velocity": 116,
      "chip": "ym2612"
    }
  ]
}