{
  "track_name": "15 - China Village",
  "duration_sec": 84.291,
  "sample_rate": 44100,
  "note_count": 1774,
  "unique_pitches": 54,
  "pitch_range": 72,
  "avg_note_duration": 0.259,
  "reconstruction_stats": {
    "notes_reconstructed": 1774,
    "keyon_events": 1774,
    "keyoff_events": 1769,
    "orphan_keyons": 5,
    "unique_pitches": 54,
    "pitch_range": 72,
    "avg_duration_sec": 0.259
  },
  "metadata": {
    "source": "S\\Sorcerian (Genesis)\\15 - China Village.vgz"
  },
  "notes": [
    {
      "channel": 1,
      "note": 50,
      "start": 0.0,
      "duration": 0.1451,
      "velocity": 99,
      "chip": "ym2612"
    },
    {
      "channel": 3,
      "note": 69,
      "start": 0.0036,
      "duration": 2.4588,
      "velocity": 92,
      "chip": "ym2612"
    },
    {
      "channel": 4,
      "note": 65,
      "start": 0.0085,
      "duration": 2.4542,
      "velocity": 92,
      "chip": "ym2612"
    },
    {
      "channel": 2,
      "note": 68,
      "start": 0.0124,
      "duration": 0.1299,
      "velocity": 127,
      "chip": "ym2612"
    },
    {
      "channel": 2,
      "note": 68,
      "start": 0.1472,
      "duration": 0.1498,
      "velocity": 127,
      "chip": "ym2612"
    },
    {
      "channel": 1,
      "note": 50,
      "start": 0.3005,
      "duration": 0.4622,
      "velocity": 99,
      "chip": "ym2612"
    },
    {
      "channel": 2,
      "note": 75,
      "start": 0.3024,
      "duration": 0.1486,
      "velocity": 120,
      "chip": "ym2612"
    },
    {
      "channel": 2,
      "note": 68,
      "start": 0.4573,
      "duration": 0.1498,
      "velocity": 127,
      "chip": "ym2612"
    },
    {
      "channel": 2,
      "note": 68,
      "start": 0.6121,
      "duration": 0.1476,
      "velocity": 127,
      "chip": "ym2612"
    },
    {
      "channel": 1,
      "note": 53,
      "start": 0.7632,
      "duration": 0.1539,
      "velocity": 99,
      "chip": "ym2612"
    },
    {
      "channel": 2,
      "note": 68,
      "start": 0.7651,
      "duration": 0.1491,
      "velocity": 127,
      "chip": "ym2612"
    },
    {
      "channel": 1,
      "note": 50,
      "start": 0.9177,
      "duration": 0.1537,
      "velocity": 99,
      "chip": "ym2612"
    },
    {
      "channel": 2,
      "note": 75,
      "start": 0.9196,
      "duration": 0.149,
      "velocity": 120,
      "chip": "ym2612"
    },
    {
      "channel": 1,
      "note": 55,
      "start": 1.0734,
      "duration": 0.3068,
      "velocity": 99,
      "chip": "ym2612"
    },
    {
      "channel": 2,
      "note": 68,
      "start": 1.0753,
      "duration": 0.1484,
      "velocity": 127,
      "chip": "ym2612"
    },
    {
      "channel": 2,
      "note": 68,
      "start": 1.2287,
      "duration": 0.1486,
      "velocity": 127,
      "chip": "ym2612"
    },
    {
      "channel": 1,
      "note": 50,
      "start": 1.3807,
      "duration": 0.1539,
      "velocity": 99,
      "chip": "ym2612"
    },
    {
      "channel": 2,
      "note": 68,
      "start": 1.3824,
      "duration": 0.1494,
      "velocity": 127,
      "chip": "ym2612"
    },
    {
      "channel": 1,
      "note": 57,
      "start": 1.5352,
      "duration": 0.3085,
      "velocity": 99,
      "chip": "ym2612"
    },
    {
      "channel": 2,
      "note": 75,
      "start": 1.5366,
      "duration": 0.1496,
      "velocity": 120,
      "chip": "ym2612"
    },
    {
      "channel": 2,
      "note": 68,
      "start": 1.6919,
      "duration": 0.1489,
      "velocity": 127,
      "chip": "ym2612"
    },
    {
      "channel": 1,
      "note": 55,
      "start": 1.8442,
      "duration": 0.1536,
      "velocity": 99,
      "chip": "ym2612"
    },
    {
      "channel": 2,
      "note": 68,
      "start": 1.8455,
      "duration": 0.1495,
      "velocity": 127,
      "chip": "ym2612"
    },
    {
      "channel": 1,
      "note": 53,
      "start": 1.9984,
      "duration": 0.1538,
      "velocity": 99,
      "chip": "ym2612"
    },
    {
      "channel": 2,
      "note": 68,
      "start": 1.9998,
      "duration": 0.1496,
      "velocity": 127,
      "chip": "ym2612"
    },
    {
      "channel": 1,
      "note": 50,
      "start": 2.1528,
      "duration": 0.1551,
      "velocity": 99,
      "chip": "ym2612"
    },
    {
      "channel": 2,
      "note": 75,
      "start": 2.1541,
      "duration": 0.1495,
      "velocity": 120,
      "chip": "ym2612"
    },
    {
      "channel": 1,
      "note": 48,
      "start": 2.3085,
      "duration": 0.1532,
      "velocity": 99,
      "chip": "ym2612"
    },
    {
      "channel": 2,
      "note": 68,
      "start": 2.3098,
      "duration": 0.1486,
      "velocity": 127,
      "chip": "ym2612"
    },
    {
      "channel": 1,
      "note": 45,
      "start": 2.4623,
      "duration": 0.4634,
      "velocity": 99,
      "chip": "ym2612"
    },
    {
      "channel": 2,
      "note": 68,
      "start": 2.4644,
      "duration": 0.1481,
      "velocity": 127,
      "chip": "ym2612"
    },
    {
      "channel": 2,
      "note": 68,
      "start": 2.6172,
      "duration": 0.1496,
      "velocity": 127,
      "chip": "ym2612"
    },
    {
      "channel": 2,
      "note": 75,
      "start": 2.7716,
      "duration": 0.1497,
      "velocity": 120,
      "chip": "ym2612"
    },
    {
      "channel": 1,
      "note": 45,
      "start": 2.9262,
      "duration": 0.307,
      "velocity": 99,
      "chip": "ym2612"
    },
    {
      "channel": 2,
      "note": 68,
      "start": 2.9275,
      "duration": 0.1484,
      "velocity": 127,
      "chip": "ym2612"
    },
    {
      "channel": 2,
      "note": 68,
      "start": 3.0806,
      "duration": 0.1494,
      "velocity": 127,
      "chip": "ym2612"
    },
    {
      "channel": 1,
      "note": 45,
      "start": 3.2336,
      "duration": 0.1539,
      "velocity": 99,
      "chip": "ym2612"
    },
    {
      "channel": 2,
      "note": 68,
      "start": 3.235,
      "duration": 0.1494,
      "velocity": 127,
      "chip": "ym2612"
    },
    {
      "channel": 1,
      "note": 52,
      "start": 3.3881,
      "duration": 0.1551,
      "velocity": 99,
      "chip": "ym2612"
    },
    {
      "channel": 2,
      "note": 75,
      "start": 3.3908,
      "duration": 0.1493,
      "velocity": 120,
      "chip": "ym2612"
    },
    {
      "channel": 1,
      "note": 45,
      "start": 3.5438,
      "duration": 0.1527,
      "velocity": 99,
      "chip": "ym2612"
    },
    {
      "channel": 2,
      "note": 68,
      "start": 3.5452,
      "duration": 0.1482,
      "velocity": 127,
      "chip": "ym2612"
    },
    {
      "channel": 1,
      "note": 55,
      "start": 3.6971,
      "duration": 0.4628,
      "velocity": 99,
      "chip": "ym2612"
    },
    {
      "channel": 2,
      "note": 79,
      "start": 3.6986,
      "duration": 0.149,
      "velocity": 120,
      "chip": "ym2612"
    },
    {
      "channel": 2,
      "note": 79,
      "start": 3.8524,
      "duration": 0.1495,
      "velocity": 120,
      "chip": "ym2612"
    },
    {
      "channel": 2,
      "note": 79,
      "start": 4.0082,
      "duration": 0.1485,
      "velocity": 120,
      "chip": "ym2612"
    },
    {
      "channel": 1,
      "note": 57,
      "start": 4.1604,
      "duration": 0.7768,
      "velocity": 99,
      "chip": "ym2612"
    },
    {
      "channel": 2,
      "note": 74,
      "start": 4.1618,
      "duration": 0.1493,
      "velocity": 120,
      "chip": "ym2612"
    },
    {
      "channel": 2,
      "note": 74,
      "start": 4.3159,
      "duration": 0.1492,
      "velocity": 120,
      "chip": "ym2612"
    },
    {
      "channel": 2,
      "note": 74,
      "start": 4.4699,
      "duration": 0.1497,
      "velocity": 120,
      "chip": "ym2612"
    },
    {
      "channel": 2,
      "note": 69,
      "start": 4.6257,
      "duration": 0.1481,
      "velocity": 120,
      "chip": "ym2612"
    },
    {
      "channel": 2,
      "note": 69,
      "start": 4.7788,
      "duration": 0.1497,
      "velocity": 120,
      "chip": "ym2612"
    },
    {
      "channel": 0,
      "note": 62,
      "start": 4.9346,
      "duration": 0.6144,
      "velocity": 105,
      "chip": "ym2612"
    },
    {
      "channel": 1,
      "note": 50,
      "start": 4.9378,
      "duration": 0.148,
      "velocity": 99,
      "chip": "ym2612"
    },
    {
      "channel": 3,
      "note": 53,
      "start": 4.9427,
      "duration": 1.2255,
      "velocity": 92,
      "chip": "ym2612"
    },
    {
      "channel": 4,
      "note": 50,
      "start": 4.9461,
      "duration": 1.2228,
      "velocity": 92,
      "chip": "ym2612"
    },
    {
      "channel": 2,
      "note": 68,
      "start": 4.95,
      "duration": 0.1327,
      "velocity": 127,
      "chip": "ym2612"
    },
    {
      "channel": 2,
      "note": 68,
      "start": 5.0874,
      "duration": 0.1498,
      "velocity": 127,
      "chip": "ym2612"
    },
    {
      "channel": 1,
      "note": 50,
      "start": 5.2422,
      "duration": 0.3076,
      "velocity": 99,
      "chip": "ym2612"
    },
    {
      "channel": 2,
      "note": 75,
      "start": 5.2435,
      "duration": 0.1479,
      "velocity": 120,
      "chip": "ym2612"
    },
    {
      "channel": 2,
      "note": 68,
      "start": 5.3961,
      "duration": 0.15,
      "velocity": 127,
      "chip": "ym2612"
    },
    {
      "channel": 0,
      "note": 74,
      "start": 5.5497,
      "duration": 0.6168,
      "velocity": 105,
      "chip": "ym2612"
    },
    {
      "channel": 1,
      "note": 53,
      "start": 5.5504,
      "duration": 0.153,
      "velocity": 99,
      "chip": "ym2612"
    },
    {
      "channel": 2,
      "note": 68,
      "start": 5.5517,
      "duration": 0.1485,
      "velocity": 127,
      "chip": "ym2612"
    },
    {
      "channel": 1,
      "note": 55,
      "start": 5.7039,
      "duration": 0.1551,
      "velocity": 99,
      "chip": "ym2612"
    },
    {
      "channel": 2,
      "note": 68,
      "start": 5.7066,
      "duration": 0.148,
      "velocity": 127,
      "chip": "ym2612"
    },
    {
      "channel": 1,
      "note": 57,
      "start": 5.8597,
      "duration": 0.1525,
      "velocity": 99,
      "chip": "ym2612"
    },
    {
      "channel": 2,
      "note": 75,
      "start": 5.861,
      "duration": 0.1481,
      "velocity": 120,
      "chip": "ym2612"
    },
    {
      "channel": 1,
      "note": 45,
      "start": 6.0128,
      "duration": 0.1546,
      "velocity": 99,
      "chip": "ym2612"
    },
    {
      "channel": 2,
      "note": 68,
      "start": 6.0141,
      "duration": 0.1496,
      "velocity": 127,
      "chip": "ym2612"
    },
    {
      "channel": 0,
      "note": 72,
      "start": 6.1672,
      "duration": 0.771,
      "velocity": 105,
      "chip": "ym2612"
    },
    {
      "channel": 1,
      "note": 50,
      "start": 6.168,
      "duration": 0.1529,
      "velocity": 99,
      "chip": "ym2612"
    },
    {
      "channel": 3,
      "note": 57,
      "start": 6.1687,
      "duration": 1.234,
      "velocity": 92,
      "chip": "ym2612"
    },
    {
      "channel": 4,
      "note": 53,
      "start": 6.1695,
      "duration": 1.234,
      "velocity": 92,
      "chip": "ym2612"
    },
    {
      "channel": 2,
      "note": 68,
      "start": 6.1705,
      "duration": 0.1474,
      "velocity": 127,
      "chip": "ym2612"
    },
    {
      "channel": 2,
      "note": 68,
      "start": 6.3238,
      "duration": 0.1497,
      "velocity": 127,
      "chip": "ym2612"
    },
    {
      "channel": 1,
      "note": 50,
      "start": 6.4772,
      "duration": 0.3073,
      "velocity": 99,
      "chip": "ym2612"
    },
    {
      "channel": 2,
      "note": 75,
      "start": 6.4785,
      "duration": 0.1481,
      "velocity": 120,
      "chip": "ym2612"
    },
    {
      "channel": 2,
      "note": 68,
      "start": 6.6313,
      "duration": 0.1499,
      "velocity": 127,
      "chip": "ym2612"
    },
    {
      "channel": 1,
      "note": 53,
      "start": 6.7851,
      "duration": 0.1553,
      "velocity": 99,
      "chip": "ym2612"
    },
    {
      "channel": 2,
      "note": 68,
      "start": 6.7864,
      "duration": 0.149,
      "velocity": 127,
      "chip": "ym2612"
    },
    {
      "channel": 0,
      "note": 62,
      "start": 6.9402,
      "duration": 0.1529,
      "velocity": 105,
      "chip": "ym2612"
    },
    {
      "channel": 1,
      "note": 55,
      "start": 6.9409,
      "duration": 0.1529,
      "velocity": 99,
      "chip": "ym2612"
    },
    {
      "channel": 2,
      "note": 68,
      "start": 6.9423,
      "duration": 0.148,
      "velocity": 127,
      "chip": "ym2612"
    },
    {
      "channel": 0,
      "note": 65,
      "start": 7.0937,
      "duration": 0.1532,
      "velocity": 105,
      "chip": "ym2612"
    },
    {
      "channel": 1,
      "note": 57,
      "start": 7.0944,
      "duration": 0.1534,
      "velocity": 99,
      "chip": "ym2612"
    },
    {
      "channel": 2,
      "note": 75,
      "start": 7.0958,
      "duration": 0.1484,
      "velocity": 120,
      "chip": "ym2612"
    },
    {
      "channel": 0,
      "note": 67,
      "start": 7.2477,
      "duration": 1.389,
      "velocity": 105,
      "chip": "ym2612"
    },
    {
      "channel": 1,
      "note": 45,
      "start": 7.2484,
      "duration": 0.1537,
      "velocity": 99,
      "chip": "ym2612"
    },
    {
      "channel": 2,
      "note": 68,
      "start": 7.2497,
      "duration": 0.1491,
      "velocity": 127,
      "chip": "ym2612"
    },
    {
      "channel": 1,
      "note": 50,
      "start": 7.4027,
      "duration": 0.1547,
      "velocity": 99,
      "chip": "ym2612"
    },
    {
      "channel": 3,
      "note": 60,
      "start": 7.4034,
      "duration": 1.2364,
      "velocity": 92,
      "chip": "ym2612"
    },
    {
      "channel": 4,
      "note": 57,
      "start": 7.4041,
      "duration": 1.2364,
      "velocity": 92,
      "chip": "ym2612"
    },
    {
      "channel": 5,
      "note": 69,
      "start": 7.4049,
      "duration": 0.1532,
      "velocity": 100,
      "chip": "ym2612"
    },
    {
      "channel": 2,
      "note": 68,
      "start": 7.4071,
      "duration": 0.1458,
      "velocity": 127,
      "chip": "ym2612"
    },
    {
      "channel": 5,
      "note": 72,
      "start": 7.5587,
      "duration": 0.1529,
      "velocity": 100,
      "chip": "ym2612"
    },
    {
      "channel": 2,
      "note": 68,
      "start": 7.5595,
      "duration": 0.1478,
      "velocity": 127,
      "chip": "ym2612"
    },
    {
      "channel": 1,
      "note": 50,
      "start": 7.7111,
      "duration": 0.3086,
      "velocity": 99,
      "chip": "ym2612"
    },
    {
      "channel": 5,
      "note": 74,
      "start": 7.7122,
      "duration": 0.1535,
      "velocity": 100,
      "chip": "ym2612"
    },
    {
      "channel": 2,
      "note": 75,
      "start": 7.7131,
      "duration": 0.1487,
      "velocity": 120,
      "chip": "ym2612"
    },
    {
      "channel": 5,
      "note": 77,
      "start": 7.8663,
      "duration": 0.1545,
      "velocity": 100,
      "chip": "ym2612"
    },
    {
      "channel": 2,
      "note": 68,
      "start": 7.8671,
      "duration": 0.1493,
      "velocity": 127,
      "chip": "ym2612"
    },
    {
      "channel": 1,
      "note": 53,
      "start": 8.0203,
      "duration": 0.1549,
      "velocity": 99,
      "chip": "ym2612"
    },
    {
      "channel": 5,
      "note": 79,
      "start": 8.0214,
      "duration": 0.1548,
      "velocity": 100,
      "chip": "ym2612"
    },
    {
      "channel": 2,
      "note": 68,
      "start": 8.0236,
      "duration": 0.147,
      "velocity": 127,
      "chip": "ym2612"
    },
    {
      "channel": 1,
      "note": 55,
      "start": 8.1757,
      "duration": 0.1528,
      "velocity": 99,
      "chip": "ym2612"
    },
    {
      "channel": 5,
      "note": 81,
      "start": 8.1769,
      "duration": 0.1528,
      "velocity": 100,
      "chip": "ym2612"
    },
    {
      "channel": 2,
      "note": 68,
      "start": 8.1777,
      "duration": 0.1476,
      "velocity": 127,
      "chip": "ym2612"
    },
    {
      "channel": 1,
      "note": 57,
      "start": 8.3291,
      "duration": 0.1534,
      "velocity": 99,
      "chip": "ym2612"
    },
    {
      "channel": 5,
      "note": 84,
      "start": 8.3302,
      "duration": 0.1533,
      "velocity": 100,
      "chip": "ym2612"
    },
    {
      "channel": 2,
      "note": 75,
      "start": 8.3311,
      "duration": 0.1481,
      "velocity": 120,
      "chip": "ym2612"
    },
    {
      "channel": 1,
      "note": 45,
      "start": 8.483,
      "duration": 0.1546,
      "velocity": 99,
      "chip": "ym2612"
    },
    {
      "channel": 5,
      "note": 86,
      "start": 8.4842,
      "duration": 0.1571,
      "velocity": 100,
      "chip": "ym2612"
    },
    {
      "channel": 2,
      "note": 68,
      "start": 8.485,
      "duration": 0.1489,
      "velocity": 127,
      "chip": "ym2612"
    },
    {
      "channel": 0,
      "note": 69,
      "start": 8.6374,
      "duration": 0.3078,
      "velocity": 105,
      "chip": "ym2612"
    },
    {
      "channel": 1,
      "note": 50,
      "start": 8.6383,
      "duration": 0.1542,
      "velocity": 99,
      "chip": "ym2612"
    },
    {
      "channel": 3,
      "note": 59,
      "start": 8.6404,
      "duration": 0.6168,
      "velocity": 92,
      "chip": "ym2612"
    },
    {
      "channel": 4,
      "note": 55,
      "start": 8.6411,
      "duration": 0.6168,
      "velocity": 92,
      "chip": "ym2612"
    },
    {
      "channel": 5,
      "note": 89,
      "start": 8.6419,
      "duration": 0.1513,
      "velocity": 100,
      "chip": "ym2612"
    },
    {
      "channel": 2,
      "note": 68,
      "start": 8.6427,
      "duration": 0.1454,
      "velocity": 127,
      "chip": "ym2612"
    },
    {
      "channel": 5,
      "note": 91,
      "start": 8.7939,
      "duration": 0.1533,
      "velocity": 100,
      "chip": "ym2612"
    },
    {
      "channel": 2,
      "note": 68,
      "start": 8.7947,
      "duration": 0.1477,
      "velocity": 127,
      "chip": "ym2612"
    },
    {
      "channel": 0,
      "note": 67,
      "start": 8.9459,
      "duration": 0.1538,
      "velocity": 105,
      "chip": "ym2612"
    },
    {
      "channel": 1,
      "note": 50,
      "start": 8.9466,
      "duration": 0.3099,
      "velocity": 99,
      "chip": "ym2612"
    },
    {
      "channel": 5,
      "note": 93,
      "start": 8.9477,
      "duration": 0.1534,
      "velocity": 100,
      "chip": "ym2612"
    },
    {
      "channel": 2,
      "note": 75,
      "start": 8.9486,
      "duration": 0.1482,
      "velocity": 120,
      "chip": "ym2612"
    },
    {
      "channel": 0,
      "note": 65,
      "start": 9.1003,
      "duration": 0.154,
      "velocity": 105,
      "chip": "ym2612"
    },
    {
      "channel": 5,
      "note": 91,
      "start": 9.1018,
      "duration": 0.4629,
      "velocity": 100,
      "chip": "ym2612"
    },
    {
      "channel": 2,
      "note": 68,
      "start": 9.1027,
      "duration": 0.1488,
      "velocity": 127,
      "chip": "ym2612"
    },
    {
      "channel": 0,
      "note": 67,
      "start": 9.2563,
      "duration": 0.3066,
      "velocity": 105,
      "chip": "ym2612"
    },
    {
      "channel": 1,
      "note": 53,
      "start": 9.257,
      "duration": 0.1529,
      "velocity": 99,
      "chip": "ym2612"
    },
    {
      "channel": 3,
      "note": 60,
      "start": 9.2577,
      "duration": 0.6172,
      "velocity": 92,
      "chip": "ym2612"
    },
    {
      "channel": 4,
      "note": 57,
      "start": 9.2585,
      "duration": 0.6172,
      "velocity": 92,
      "chip": "ym2612"
    },
    {
      "channel": 2,
      "note": 68,
      "start": 9.2597,
      "duration": 0.1471,
      "velocity": 127,
      "chip": "ym2612"
    },
    {
      "channel": 1,
      "note": 55,
      "start": 9.4105,
      "duration": 0.1531,
      "velocity": 99,
      "chip": "ym2612"
    },
    {
      "channel": 2,
      "note": 68,
      "start": 9.4121,
      "duration": 0.1479,
      "velocity": 127,
      "chip": "ym2612"
    },
    {
      "channel": 0,
      "note": 65,
      "start": 9.5634,
      "duration": 0.1537,
      "velocity": 105,
      "chip": "ym2612"
    },
    {
      "channel": 1,
      "note": 57,
      "start": 9.5642,
      "duration": 0.1538,
      "velocity": 99,
      "chip": "ym2612"
    },
    {
      "channel": 5,
      "note": 89,
      "start": 9.5654,
      "duration": 0.1537,
      "velocity": 100,
      "chip": "ym2612"
    },
    {
      "channel": 2,
      "note": 75,
      "start": 9.5662,
      "duration": 0.1482,
      "velocity": 120,
      "chip": "ym2612"
    },
    {
      "channel": 0,
      "note": 62,
      "start": 9.7178,
      "duration": 0.1554,
      "velocity": 105,
      "chip": "ym2612"
    },
    {
      "channel": 1,
      "note": 45,
      "start": 9.7185,
      "duration": 0.1556,
      "velocity": 99,
      "chip": "ym2612"
    },
    {
      "channel": 5,
      "note": 86,
      "start": 9.7197,
      "duration": 0.1567,
      "velocity": 100,
      "chip": "ym2612"
    },
    {
      "channel": 2,
      "note": 68,
      "start": 9.7205,
      "duration": 0.1485,
      "velocity": 127,
      "chip": "ym2612"
    },
    {
      "channel": 0,
      "note": 65,
      "start": 9.8739,
      "duration": 0.3064,
      "velocity": 105,
      "chip": "ym2612"
    },
    {
      "channel": 1,
      "note": 50,
      "start": 9.8748,
      "duration": 0.1521,
      "velocity": 99,
      "chip": "ym2612"
    },
    {
      "channel": 3,
      "note": 53,
      "start": 9.8755,
      "duration": 1.2345,
      "velocity": 92,
      "chip": "ym2612"
    },
    {
      "channel": 4,
      "note": 50,
      "start": 9.8762,
      "duration": 1.2345,
      "velocity": 92,
      "chip": "ym2612"
    },
    {
      "channel": 5,
      "note": 89,
      "start": 9.877,
      "duration": 0.3054,
      "velocity": 100,
      "chip": "ym2612"
    },
    {
      "channel": 2,
      "note": 68,
      "start": 9.8778,
      "duration": 0.1459,
      "velocity": 127,
      "chip": "ym2612"
    },
    {
      "channel": 2,
      "note": 68,
      "start": 10.0287,
      "duration": 0.1489,
      "velocity": 127,
      "chip": "ym2612"
    },
    {
      "channel": 0,
      "note": 62,
      "start": 10.1811,
      "duration": 0.1537,
      "velocity": 105,
      "chip": "ym2612"
    },
    {
      "channel": 1,
      "note": 50,
      "start": 10.1818,
      "duration": 0.3098,
      "velocity": 99,
      "chip": "ym2612"
    },
    {
      "channel": 5,
      "note": 86,
      "start": 10.1829,
      "duration": 0.3098,
      "velocity": 100,
      "chip": "ym2612"
    },
    {
      "channel": 2,
      "note": 75,
      "start": 10.1838,
      "duration": 0.1482,
      "velocity": 120,
      "chip": "ym2612"
    },
    {
      "channel": 0,
      "note": 60,
      "start": 10.3355,
      "duration": 0.1554,
      "velocity": 105,
      "chip": "ym2612"
    },
    {
      "channel": 2,
      "note": 68,
      "start": 10.3374,
      "duration": 0.1493,
      "velocity": 127,
      "chip": "ym2612"
    },
    {
      "channel": 0,
      "note": 62,
      "start": 10.4915,
      "duration": 0.1521,
      "velocity": 105,
      "chip": "ym2612"
    },
    {
      "channel": 1,
      "note": 53,
      "start": 10.4922,
      "duration": 0.1522,
      "velocity": 99,
      "chip": "ym2612"
    },
    {
      "channel": 5,
      "note": 91,
      "start": 10.4933,
      "duration": 0.3066,
      "velocity": 100,
      "chip": "ym2612"
    },
    {
      "channel": 2,
      "note": 68,
      "start": 10.4942,
      "duration": 0.1466,
      "velocity": 127,
      "chip": "ym2612"
    },
    {
      "channel": 0,
      "note": 57,
      "start": 10.6442,
      "duration": 0.1538,
      "velocity": 105,
      "chip": "ym2612"
    },
    {
      "channel": 1,
      "note": 55,
      "start": 10.6449,
      "duration": 0.1539,
      "velocity": 99,
      "chip": "ym2612"
    },
    {
      "channel": 2,
      "note": 68,
      "start": 10.6465,
      "duration": 0.1487,
      "velocity": 127,
      "chip": "ym2612"
    },
    {
      "channel": 0,
      "note": 60,
      "start": 10.7986,
      "duration": 0.1537,
      "velocity": 105,
      "chip": "ym2612"
    },
    {
      "channel": 1,
      "note": 57,
      "start": 10.7993,
      "duration": 0.1538,
      "velocity": 99,
      "chip": "ym2612"
    },
    {
      "channel": 5,
      "note": 88,
      "start": 10.8005,
      "duration": 0.311,
      "velocity": 100,
      "chip": "ym2612"
    },
    {
      "channel": 2,
      "note": 75,
      "start": 10.8013,
      "duration": 0.1482,
      "velocity": 120,
      "chip": "ym2612"
    },
    {
      "channel": 0,
      "note": 62,
      "start": 10.953,
      "duration": 0.1554,
      "velocity": 105,
      "chip": "ym2612"
    },
    {
      "channel": 1,
      "note": 45,
      "start": 10.9537,
      "duration": 0.1555,
      "velocity": 99,
      "chip": "ym2612"
    },
    {
      "channel": 2,
      "note": 68,
      "start": 10.9566,
      "duration": 0.1476,
      "velocity": 127,
      "chip": "ym2612"
    },
    {
      "channel": 0,
      "note": 65,
      "start": 11.109,
      "duration": 0.152,
      "velocity": 105,
      "chip": "ym2612"
    },
    {
      "channel": 1,
      "note": 50,
      "start": 11.1098,
      "duration": 0.152,
      "velocity": 99,
      "chip": "ym2612"
    },
    {
      "channel": 3,
      "note": 65,
      "start": 11.1106,
      "duration": 0.6163,
      "velocity": 92,
      "chip": "ym2612"
    },
    {
      "channel": 4,
      "note": 62,
      "start": 11.1113,
      "duration": 0.6164,
      "velocity": 92,
      "chip": "ym2612"
    },
    {
      "channel": 5,
      "note": 89,
      "start": 11.1121,
      "duration": 0.3053,
      "velocity": 100,
      "chip": "ym2612"
    },
    {
      "channel": 2,
      "note": 68,
      "start": 11.1129,
      "duration": 0.1453,
      "velocity": 127,
      "chip": "ym2612"
    },
    {
      "channel": 0,
      "note": 67,
      "start": 11.2617,
      "duration": 0.1538,
      "velocity": 105,
      "chip": "ym2612"
    },
    {
      "channel": 2,
      "note": 68,
      "start": 11.2636,
      "duration": 0.1491,
      "velocity": 127,
      "chip": "ym2612"
    },
    {
      "channel": 0,
      "note": 69,
      "start": 11.4161,
      "duration": 0.1537,
      "velocity": 105,
      "chip": "ym2612"
    },
    {
      "channel": 1,
      "note": 50,
      "start": 11.4169,
      "duration": 0.3093,
      "velocity": 99,
      "chip": "ym2612"
    },
    {
      "channel": 5,
      "note": 86,
      "start": 11.418,
      "duration": 0.3104,
      "velocity": 100,
      "chip": "ym2612"
    },
    {
      "channel": 2,
      "note": 75,
      "start": 11.4189,
      "duration": 0.1482,
      "velocity": 120,
      "chip": "ym2612"
    },
    {
      "channel": 0,
      "note": 67,
      "start": 11.5705,
      "duration": 0.4625,
      "velocity": 105,
      "chip": "ym2612"
    },
    {
      "channel": 2,
      "note": 68,
      "start": 11.5738,
      "duration": 0.1492,
      "velocity": 127,
      "chip": "ym2612"
    },
    {
      "channel": 1,
      "note": 53,
      "start": 11.7268,
      "duration": 0.1522,
      "velocity": 99,
      "chip": "ym2612"
    },
    {
      "channel": 3,
      "note": 57,
      "start": 11.7276,
      "duration": 0.6172,
      "velocity": 92,
      "chip": "ym2612"
    },
    {
      "channel": 4,
      "note": 53,
      "start": 11.7283,
      "duration": 0.6172,
      "velocity": 92,
      "chip": "ym2612"
    },
    {
      "channel": 5,
      "note": 91,
      "start": 11.729,
      "duration": 0.3059,
      "velocity": 100,
      "chip": "ym2612"
    },
    {
      "channel": 2,
      "note": 68,
      "start": 11.7299,
      "duration": 0.1459,
      "velocity": 127,
      "chip": "ym2612"
    },
    {
      "channel": 1,
      "note": 55,
      "start": 11.8795,
      "duration": 0.1543,
      "velocity": 99,
      "chip": "ym2612"
    },
    {
      "channel": 2,
      "note": 68,
      "start": 11.8811,
      "duration": 0.1491,
      "velocity": 127,
      "chip": "ym2612"
    },
    {
      "channel": 0,
      "note": 65,
      "start": 12.0337,
      "duration": 0.1537,
      "velocity": 105,
      "chip": "ym2612"
    },
    {
      "channel": 1,
      "note": 57,
      "start": 12.0344,
      "duration": 0.1538,
      "velocity": 99,
      "chip": "ym2612"
    },
    {
      "channel": 5,
      "note": 88,
      "start": 12.0356,
      "duration": 0.3106,
      "velocity": 100,
      "chip": "ym2612"
    },
    {
      "channel": 2,
      "note": 75,
      "start": 12.0364,
      "duration": 0.1482,
      "velocity": 120,
      "chip": "ym2612"
    },
    {
      "channel": 0,
      "note": 64,
      "start": 12.1881,
      "duration": 0.7717,
      "velocity": 105,
      "chip": "ym2612"
    },
    {
      "channel": 1,
      "note": 45,
      "start": 12.1901,
      "duration": 0.1539,
      "velocity": 99,
      "chip": "ym2612"
    },
    {
      "channel": 2,
      "note": 68,
      "start": 12.1917,
      "duration": 0.149,
      "velocity": 127,
      "chip": "ym2612"
    },
    {
      "channel": 1,
      "note": 50,
      "start": 12.3446,
      "duration": 0.1519,
      "velocity": 99,
      "chip": "ym2612"
    },
    {
      "channel": 3,
      "note": 53,
      "start": 12.3453,
      "duration": 1.2336,
      "velocity": 92,
      "chip": "ym2612"
    },
    {
      "channel": 4,
      "note": 50,
      "start": 12.3461,
      "duration": 1.2336,
      "velocity": 92,
      "chip": "ym2612"
    },
    {
      "channel": 5,
      "note": 89,
      "start": 12.3468,
      "duration": 0.3051,
      "velocity": 100,
      "chip": "ym2612"
    },
    {
      "channel": 2,
      "note": 68,
      "start": 12.3477,
      "duration": 0.1457,
      "velocity": 127,
      "chip": "ym2612"
    },
    {
      "channel": 2,
      "note": 68,
      "start": 12.4983,
      "duration": 0.1494,
      "velocity": 127,
      "chip": "ym2612"
    },
    {
      "channel": 1,
      "note": 50,
      "start": 12.6515,
      "duration": 0.3091,
      "velocity": 99,
      "chip": "ym2612"
    },
    {
      "channel": 5,
      "note": 86,
      "start": 12.6527,
      "duration": 0.3091,
      "velocity": 100,
      "chip": "ym2612"
    },
    {
      "channel": 2,
      "note": 75,
      "start": 12.6535,
      "duration": 0.1487,
      "velocity": 120,
      "chip": "ym2612"
    },
    {
      "channel": 2,
      "note": 68,
      "start": 12.8085,
      "duration": 0.1484,
      "velocity": 127,
      "chip": "ym2612"
    },
    {
      "channel": 0,
      "note": 67,
      "start": 12.9605,
      "duration": 0.1532,
      "velocity": 105,
      "chip": "ym2612"
    },
    {
      "channel": 1,
      "note": 53,
      "start": 12.9612,
      "duration": 0.1534,
      "velocity": 99,
      "chip": "ym2612"
    },
    {
      "channel": 5,
      "note": 88,
      "start": 12.9623,
      "duration": 0.1533,
      "velocity": 100,
      "chip": "ym2612"
    },
    {
      "channel": 2,
      "note": 68,
      "start": 12.9632,
      "duration": 0.1477,
      "velocity": 127,
      "chip": "ym2612"
    },
    {
      "channel": 0,
      "note": 64,
      "start": 13.1144,
      "duration": 0.1537,
      "velocity": 105,
      "chip": "ym2612"
    },
    {
      "channel": 1,
      "note": 55,
      "start": 13.1151,
      "duration": 0.1538,
      "velocity": 99,
      "chip": "ym2612"
    },
    {
      "channel": 5,
      "note": 84,
      "start": 13.1163,
      "duration": 0.1538,
      "velocity": 100,
      "chip": "ym2612"
    },
    {
      "channel": 2,
      "note": 68,
      "start": 13.1171,
      "duration": 0.1482,
      "velocity": 127,
      "chip": "ym2612"
    },
    {
      "channel": 0,
      "note": 65,
      "start": 13.2688,
      "duration": 0.1551,
      "velocity": 105,
      "chip": "ym2612"
    },
    {
      "channel": 1,
      "note": 57,
      "start": 13.2695,
      "duration": 0.1552,
      "velocity": 99,
      "chip": "ym2612"
    },
    {
      "channel": 5,
      "note": 86,
      "start": 13.2706,
      "duration": 0.1552,
      "velocity": 100,
      "chip": "ym2612"
    },
    {
      "channel": 2,
      "note": 75,
      "start": 13.2715,
      "duration": 0.1482,
      "velocity": 120,
      "chip": "ym2612"
    },
    {
      "channel": 0,
      "note": 67,
      "start": 13.4245,
      "duration": 0.1527,
      "velocity": 105,
      "chip": "ym2612"
    },
    {
      "channel": 1,
      "note": 45,
      "start": 13.4253,
      "duration": 0.1529,
      "velocity": 99,
      "chip": "ym2612"
    },
    {
      "channel": 5,
      "note": 88,
      "start": 13.4264,
      "duration": 0.154,
      "velocity": 100,
      "chip": "ym2612"
    },
    {
      "channel": 2,
      "note": 68,
      "start": 13.4273,
      "duration": 0.1472,
      "velocity": 127,
      "chip": "ym2612"
    },
    {
      "channel": 0,
      "note": 69,
      "start": 13.578,
      "duration": 0.6168,
      "velocity": 105,
      "chip": "ym2612"
    },
    {
      "channel": 1,
      "note": 50,
      "start": 13.5788,
      "duration": 0.1529,
      "velocity": 99,
      "chip": "ym2612"
    },
    {
      "channel": 3,
      "note": 57,
      "start": 13.5795,
      "duration": 0.7704,
      "velocity": 92,
      "chip": "ym2612"
    },
    {
      "channel": 4,
      "note": 53,
      "start": 13.5802,
      "duration": 0.7704,
      "velocity": 92,
      "chip": "ym2612"
    },
    {
      "channel": 5,
      "note": 89,
      "start": 13.581,
      "duration": 0.3062,
      "velocity": 100,
      "chip": "ym2612"
    },
    {
      "channel": 2,
      "note": 68,
      "start": 13.5819,
      "duration": 0.1466,
      "velocity": 127,
      "chip": "ym2612"
    },
    {
      "channel": 2,
      "note": 68,
      "start": 13.7335,
      "duration": 0.1494,
      "velocity": 127,
      "chip": "ym2612"
    },
    {
      "channel": 1,
      "note": 50,
      "start": 13.8867,
      "duration": 0.309,
      "velocity": 99,
      "chip": "ym2612"
    },
    {
      "channel": 5,
      "note": 86,
      "start": 13.8878,
      "duration": 0.3089,
      "velocity": 100,
      "chip": "ym2612"
    },
    {
      "channel": 2,
      "note": 75,
      "start": 13.89,
      "duration": 0.1474,
      "velocity": 120,
      "chip": "ym2612"
    },
    {
      "channel": 2,
      "note": 68,
      "start": 14.0437,
      "duration": 0.1483,
      "velocity": 127,
      "chip": "ym2612"
    },
    {
      "channel": 0,
      "note": 65,
      "start": 14.1955,
      "duration": 0.6168,
      "velocity": 105,
      "chip": "ym2612"
    },
    {
      "channel": 1,
      "note": 53,
      "start": 14.1962,
      "duration": 0.153,
      "velocity": 99,
      "chip": "ym2612"
    },
    {
      "channel": 5,
      "note": 91,
      "start": 14.1974,
      "duration": 0.3098,
      "velocity": 100,
      "chip": "ym2612"
    },
    {
      "channel": 2,
      "note": 68,
      "start": 14.1982,
      "duration": 0.1478,
      "velocity": 127,
      "chip": "ym2612"
    },
    {
      "channel": 1,
      "note": 55,
      "start": 14.3498,
      "duration": 0.1538,
      "velocity": 99,
      "chip": "ym2612"
    },
    {
      "channel": 3,
      "note": 57,
      "start": 14.3505,
      "duration": 0.1538,
      "velocity": 92,
      "chip": "ym2612"
    },
    {
      "channel": 4,
      "note": 65,
      "start": 14.3512,
      "duration": 0.1552,
      "velocity": 92,
      "chip": "ym2612"
    },
    {
      "channel": 2,
      "note": 68,
      "start": 14.3524,
      "duration": 0.148,
      "velocity": 127,
      "chip": "ym2612"
    },
    {
      "channel": 1,
      "note": 57,
      "start": 14.5042,
      "duration": 0.1551,
      "velocity": 99,
      "chip": "ym2612"
    },
    {
      "channel": 3,
      "note": 55,
      "start": 14.5063,
      "duration": 0.1537,
      "velocity": 92,
      "chip": "ym2612"
    },
    {
      "channel": 4,
      "note": 52,
      "start": 14.507,
      "duration": 0.1538,
      "velocity": 92,
      "chip": "ym2612"
    },
    {
      "channel": 5,
      "note": 88,
      "start": 14.5078,
      "duration": 0.3066,
      "velocity": 100,
      "chip": "ym2612"
    },
    {
      "channel": 2,
      "note": 75,
      "start": 14.5087,
      "duration": 0.1462,
      "velocity": 120,
      "chip": "ym2612"
    },
    {
      "channel": 1,
      "note": 45,
      "start": 14.6599,
      "duration": 0.1533,
      "velocity": 99,
      "chip": "ym2612"
    },
    {
      "channel": 3,
      "note": 53,
      "start": 14.6607,
      "duration": 0.7704,
      "velocity": 92,
      "chip": "ym2612"
    },
    {
      "channel": 4,
      "note": 50,
      "start": 14.6614,
      "duration": 0.7705,
      "velocity": 92,
      "chip": "ym2612"
    },
    {
      "channel": 2,
      "note": 68,
      "start": 14.6626,
      "duration": 0.1469,
      "velocity": 127,
      "chip": "ym2612"
    },
    {
      "channel": 0,
      "note": 62,
      "start": 14.813,
      "duration": 1.2345,
      "velocity": 105,
      "chip": "ym2612"
    },
    {
      "channel": 1,
      "note": 46,
      "start": 14.8138,
      "duration": 0.1529,
      "velocity": 99,
      "chip": "ym2612"
    },
    {
      "channel": 5,
      "note": 91,
      "start": 14.815,
      "duration": 0.1525,
      "velocity": 100,
      "chip": "ym2612"
    },
    {
      "channel": 2,
      "note": 68,
      "start": 14.8158,
      "duration": 0.1478,
      "velocity": 127,
      "chip": "ym2612"
    },
    {
      "channel": 5,
      "note": 92,
      "start": 14.9681,
      "duration": 0.1555,
      "velocity": 100,
      "chip": "ym2612"
    },
    {
      "channel": 2,
      "note": 68,
      "start": 14.9689,
      "duration": 0.1491,
      "velocity": 127,
      "chip": "ym2612"
    },
    {
      "channel": 1,
      "note": 46,
      "start": 15.1231,
      "duration": 0.3072,
      "velocity": 99,
      "chip": "ym2612"
    },
    {
      "channel": 5,
      "note": 91,
      "start": 15.1243,
      "duration": 0.1534,
      "velocity": 100,
      "chip": "ym2612"
    },
    {
      "channel": 2,
      "note": 75,
      "start": 15.1251,
      "duration": 0.1487,
      "velocity": 120,
      "chip": "ym2612"
    },
    {
      "channel": 5,
      "note": 89,
      "start": 15.2783,
      "duration": 0.1543,
      "velocity": 100,
      "chip": "ym2612"
    },
    {
      "channel": 2,
      "note": 68,
      "start": 15.2791,
      "duration": 0.148,
      "velocity": 127,
      "chip": "ym2612"
    },
    {
      "channel": 1,
      "note": 53,
      "start": 15.4309,
      "duration": 0.1536,
      "velocity": 99,
      "chip": "ym2612"
    },
    {
      "channel": 3,
      "note": 65,
      "start": 15.4317,
      "duration": 0.617,
      "velocity": 92,
      "chip": "ym2612"
    },
    {
      "channel": 4,
      "note": 62,
      "start": 15.4324,
      "duration": 0.617,
      "velocity": 92,
      "chip": "ym2612"
    },
    {
      "channel": 5,
      "note": 86,
      "start": 15.4332,
      "duration": 0.1524,
      "velocity": 100,
      "chip": "ym2612"
    },
    {
      "channel": 2,
      "note": 68,
      "start": 15.434,
      "duration": 0.1472,
      "velocity": 127,
      "chip": "ym2612"
    },
    {
      "channel": 1,
      "note": 56,
      "start": 15.585,
      "duration": 0.1552,
      "velocity": 99,
      "chip": "ym2612"
    },
    {
      "channel": 5,
      "note": 86,
      "start": 15.5862,
      "duration": 0.1552,
      "velocity": 100,
      "chip": "ym2612"
    },
    {
      "channel": 2,
      "note": 68,
      "start": 15.5871,
      "duration": 0.1485,
      "velocity": 127,
      "chip": "ym2612"
    },
    {
      "channel": 1,
      "note": 58,
      "start": 15.7408,
      "duration": 0.1525,
      "velocity": 99,
      "chip": "ym2612"
    },
    {
      "channel": 5,
      "note": 84,
      "start": 15.742,
      "duration": 0.1525,
      "velocity": 100,
      "chip": "ym2612"
    },
    {
      "channel": 2,
      "note": 75,
      "start": 15.7428,
      "duration": 0.1472,
      "velocity": 120,
      "chip": "ym2612"
    },
    {
      "channel": 1,
      "note": 56,
      "start": 15.8939,
      "duration": 0.308,
      "velocity": 99,
      "chip": "ym2612"
    },
    {
      "channel": 5,
      "note": 80,
      "start": 15.895,
      "duration": 0.1551,
      "velocity": 100,
      "chip": "ym2612"
    },
    {
      "channel": 2,
      "note": 68,
      "start": 15.8958,
      "duration": 0.1489,
      "velocity": 127,
      "chip": "ym2612"
    },
    {
      "channel": 0,
      "note": 74,
      "start": 16.0482,
      "duration": 1.2344,
      "velocity": 105,
      "chip": "ym2612"
    },
    {
      "channel": 3,
      "note": 62,
      "start": 16.0493,
      "duration": 0.6169,
      "velocity": 92,
      "chip": "ym2612"
    },
    {
      "channel": 4,
      "note": 56,
      "start": 16.05,
      "duration": 0.6169,
      "velocity": 92,
      "chip": "ym2612"
    },
    {
      "channel": 5,
      "note": 86,
      "start": 16.0507,
      "duration": 0.1523,
      "velocity": 100,
      "chip": "ym2612"
    },
    {
      "channel": 2,
      "note": 68,
      "start": 16.0516,
      "duration": 0.1471,
      "velocity": 127,
      "chip": "ym2612"
    },
    {
      "channel": 1,
      "note": 58,
      "start": 16.2025,
      "duration": 0.1555,
      "velocity": 99,
      "chip": "ym2612"
    },
    {
      "channel": 5,
      "note": 86,
      "start": 16.2037,
      "duration": 0.1554,
      "velocity": 100,
      "chip": "ym2612"
    },
    {
      "channel": 2,
      "note": 68,
      "start": 16.2045,
      "duration": 0.149,
      "velocity": 127,
      "chip": "ym2612"
    },
    {
      "channel": 1,
      "note": 53,
      "start": 16.3585,
      "duration": 0.1521,
      "velocity": 99,
      "chip": "ym2612"
    },
    {
      "channel": 5,
      "note": 84,
      "start": 16.3597,
      "duration": 0.1521,
      "velocity": 100,
      "chip": "ym2612"
    },
    {
      "channel": 2,
      "note": 75,
      "start": 16.3606,
      "duration": 0.147,
      "velocity": 120,
      "chip": "ym2612"
    },
    {
      "channel": 1,
      "note": 56,
      "start": 16.5112,
      "duration": 0.1542,
      "velocity": 99,
      "chip": "ym2612"
    },
    {
      "channel": 5,
      "note": 80,
      "start": 16.5124,
      "duration": 0.1552,
      "velocity": 100,
      "chip": "ym2612"
    },
    {
      "channel": 2,
      "note": 68,
      "start": 16.5133,
      "duration": 0.1489,
      "velocity": 127,
      "chip": "ym2612"
    },
    {
      "channel": 1,
      "note": 51,
      "start": 16.666,
      "duration": 0.1536,
      "velocity": 99,
      "chip": "ym2612"
    },
    {
      "channel": 3,
      "note": 56,
      "start": 16.6668,
      "duration": 0.6174,
      "velocity": 92,
      "chip": "ym2612"
    },
    {
      "channel": 4,
      "note": 53,
      "start": 16.6675,
      "duration": 0.6175,
      "velocity": 92,
      "chip": "ym2612"
    },
    {
      "channel": 5,
      "note": 86,
      "start": 16.6682,
      "duration": 0.6174,
      "velocity": 100,
      "chip": "ym2612"
    },
    {
      "channel": 2,
      "note": 68,
      "start": 16.669,
      "duration": 0.1473,
      "velocity": 127,
      "chip": "ym2612"
    },
    {
      "channel": 1,
      "note": 53,
      "start": 16.8202,
      "duration": 0.1551,
      "velocity": 99,
      "chip": "ym2612"
    },
    {
      "channel": 2,
      "note": 68,
      "start": 16.8231,
      "duration": 0.1476,
      "velocity": 127,
      "chip": "ym2612"
    },
    {
      "channel": 1,
      "note": 48,
      "start": 16.9759,
      "duration": 0.1525,
      "velocity": 99,
      "chip": "ym2612"
    },
    {
      "channel": 2,
      "note": 75,
      "start": 16.9775,
      "duration": 0.1476,
      "velocity": 120,
      "chip": "ym2612"
    },
    {
      "channel": 1,
      "note": 44,
      "start": 17.1289,
      "duration": 0.1545,
      "velocity": 99,
      "chip": "ym2612"
    },
    {
      "channel": 2,
      "note": 68,
      "start": 17.1305,
      "duration": 0.1493,
      "velocity": 127,
      "chip": "ym2612"
    },
    {
      "channel": 0,
      "note": 68,
      "start": 17.2832,
      "duration": 0.1534,
      "velocity": 105,
      "chip": "ym2612"
    },
    {
      "channel": 1,
      "note": 46,
      "start": 17.2841,
      "duration": 0.1534,
      "velocity": 99,
      "chip": "ym2612"
    },
    {
      "channel": 3,
      "note": 53,
      "start": 17.2848,
      "duration": 0.6165,
      "velocity": 92,
      "chip": "ym2612"
    },
    {
      "channel": 4,
      "note": 50,
      "start": 17.2855,
      "duration": 0.6165,
      "velocity": 92,
      "chip": "ym2612"
    },
    {
      "channel": 5,
      "note": 91,
      "start": 17.2863,
      "duration": 0.1519,
      "velocity": 100,
      "chip": "ym2612"
    },
    {
      "channel": 2,
      "note": 68,
      "start": 17.2871,
      "duration": 0.1468,
      "velocity": 127,
      "chip": "ym2612"
    },
    {
      "channel": 0,
      "note": 70,
      "start": 17.4374,
      "duration": 0.155,
      "velocity": 105,
      "chip": "ym2612"
    },
    {
      "channel": 5,
      "note": 92,
      "start": 17.4402,
      "duration": 0.1541,
      "velocity": 100,
      "chip": "ym2612"
    },
    {
      "channel": 2,
      "note": 68,
      "start": 17.441,
      "duration": 0.1486,
      "velocity": 127,
      "chip": "ym2612"
    },
    {
      "channel": 0,
      "note": 72,
      "start": 17.593,
      "duration": 0.1524,
      "velocity": 105,
      "chip": "ym2612"
    },
    {
      "channel": 1,
      "note": 46,
      "start": 17.5938,
      "duration": 0.3067,
      "velocity": 99,
      "chip": "ym2612"
    },
    {
      "channel": 5,
      "note": 91,
      "start": 17.5949,
      "duration": 0.1521,
      "velocity": 100,
      "chip": "ym2612"
    },
    {
      "channel": 2,
      "note": 75,
      "start": 17.5958,
      "duration": 0.1469,
      "velocity": 120,
      "chip": "ym2612"
    },
    {
      "channel": 0,
      "note": 74,
      "start": 17.7461,
      "duration": 0.3081,
      "velocity": 105,
      "chip": "ym2612"
    },
    {
      "channel": 5,
      "note": 89,
      "start": 17.7476,
      "duration": 0.1551,
      "velocity": 100,
      "chip": "ym2612"
    },
    {
      "channel": 2,
      "note": 68,
      "start": 17.7485,
      "duration": 0.1489,
      "velocity": 127,
      "chip": "ym2612"
    },
    {
      "channel": 1,
      "note": 53,
      "start": 17.9011,
      "duration": 0.1554,
      "velocity": 99,
      "chip": "ym2612"
    },
    {
      "channel": 3,
      "note": 65,
      "start": 17.9018,
      "duration": 0.6165,
      "velocity": 92,
      "chip": "ym2612"
    },
    {
      "channel": 4,
      "note": 62,
      "start": 17.9026,
      "duration": 0.6165,
      "velocity": 92,
      "chip": "ym2612"
    },
    {
      "channel": 5,
      "note": 86,
      "start": 17.9033,
      "duration": 0.1542,
      "velocity": 100,
      "chip": "ym2612"
    },
    {
      "channel": 2,
      "note": 68,
      "start": 17.9042,
      "duration": 0.1473,
      "velocity": 127,
      "chip": "ym2612"
    },
    {
      "channel": 0,
      "note": 72,
      "start": 18.0563,
      "duration": 0.1532,
      "velocity": 105,
      "chip": "ym2612"
    },
    {
      "channel": 1,
      "note": 56,
      "start": 18.057,
      "duration": 0.1533,
      "velocity": 99,
      "chip": "ym2612"
    },
    {
      "channel": 5,
      "note": 86,
      "start": 18.0582,
      "duration": 0.1533,
      "velocity": 100,
      "chip": "ym2612"
    },
    {
      "channel": 2,
      "note": 68,
      "start": 18.059,
      "duration": 0.1477,
      "velocity": 127,
      "chip": "ym2612"
    },
    {
      "channel": 0,
      "note": 70,
      "start": 18.2102,
      "duration": 0.1527,
      "velocity": 105,
      "chip": "ym2612"
    },
    {
      "channel": 1,
      "note": 58,
      "start": 18.2109,
      "duration": 0.1529,
      "velocity": 99,
      "chip": "ym2612"
    },
    {
      "channel": 5,
      "note": 84,
      "start": 18.2121,
      "duration": 0.1528,
      "velocity": 100,
      "chip": "ym2612"
    },
    {
      "channel": 2,
      "note": 75,
      "start": 18.2129,
      "duration": 0.1472,
      "velocity": 120,
      "chip": "ym2612"
    },
    {
      "channel": 0,
      "note": 68,
      "start": 18.3637,
      "duration": 0.4626,
      "velocity": 105,
      "chip": "ym2612"
    },
    {
      "channel": 1,
      "note": 56,
      "start": 18.3644,
      "duration": 0.3092,
      "velocity": 99,
      "chip": "ym2612"
    },
    {
      "channel": 5,
      "note": 80,
      "start": 18.3655,
      "duration": 0.1543,
      "velocity": 100,
      "chip": "ym2612"
    },
    {
      "channel": 2,
      "note": 68,
      "start": 18.3663,
      "duration": 0.1485,
      "velocity": 127,
      "chip": "ym2612"
    },
    {
      "channel": 3,
      "note": 62,
      "start": 18.5189,
      "duration": 0.6179,
      "velocity": 92,
      "chip": "ym2612"
    },
    {
      "channel": 4,
      "note": 56,
      "start": 18.5197,
      "duration": 0.6179,
      "velocity": 92,
      "chip": "ym2612"
    },
    {
      "channel": 5,
      "note": 86,
      "start": 18.5205,
      "duration": 0.1541,
      "velocity": 100,
      "chip": "ym2612"
    },
    {
      "channel": 2,
      "note": 68,
      "start": 18.5213,
      "duration": 0.1477,
      "velocity": 127,
      "chip": "ym2612"
    },
    {
      "channel": 1,
      "note": 58,
      "start": 18.6741,
      "duration": 0.153,
      "velocity": 99,
      "chip": "ym2612"
    },
    {
      "channel": 5,
      "note": 86,
      "start": 18.6752,
      "duration": 0.1529,
      "velocity": 100,
      "chip": "ym2612"
    },
    {
      "channel": 2,
      "note": 68,
      "start": 18.6761,
      "duration": 0.1474,
      "velocity": 127,
      "chip": "ym2612"
    },
    {
      "channel": 0,
      "note": 70,
      "start": 18.8269,
      "duration": 0.1537,
      "velocity": 105,
      "chip": "ym2612"
    },
    {
      "channel": 1,
      "note": 53,
      "start": 18.8276,
      "duration": 0.1538,
      "velocity": 99,
      "chip": "ym2612"
    },
    {
      "channel": 5,
      "note": 84,
      "start": 18.8288,
      "duration": 0.1537,
      "velocity": 100,
      "chip": "ym2612"
    },
    {
      "channel": 2,
      "note": 75,
      "start": 18.8296,
      "duration": 0.1482,
      "velocity": 120,
      "chip": "ym2612"
    },
    {
      "channel": 0,
      "note": 65,
      "start": 18.9812,
      "duration": 0.1541,
      "velocity": 105,
      "chip": "ym2612"
    },
    {
      "channel": 1,
      "note": 56,
      "start": 18.982,
      "duration": 0.1541,
      "velocity": 99,
      "chip": "ym2612"
    },
    {
      "channel": 5,
      "note": 80,
      "start": 18.983,
      "duration": 0.1566,
      "velocity": 100,
      "chip": "ym2612"
    },
    {
      "channel": 2,
      "note": 68,
      "start": 18.9839,
      "duration": 0.1485,
      "velocity": 127,
      "chip": "ym2612"
    },
    {
      "channel": 0,
      "note": 68,
      "start": 19.136,
      "duration": 0.1547,
      "velocity": 105,
      "chip": "ym2612"
    },
    {
      "channel": 1,
      "note": 51,
      "start": 19.1367,
      "duration": 0.1549,
      "velocity": 99,
      "chip": "ym2612"
    },
    {
      "channel": 3,
      "note": 56,
      "start": 19.1374,
      "duration": 0.6171,
      "velocity": 92,
      "chip": "ym2612"
    },
    {
      "channel": 4,
      "note": 53,
      "start": 19.1381,
      "duration": 0.6183,
      "velocity": 92,
      "chip": "ym2612"
    },
    {
      "channel": 5,
      "note": 86,
      "start": 19.1403,
      "duration": 0.6169,
      "velocity": 100,
      "chip": "ym2612"
    },
    {
      "channel": 2,
      "note": 68,
      "start": 19.1411,
      "duration": 0.1454,
      "velocity": 127,
      "chip": "ym2612"
    },
    {
      "channel": 0,
      "note": 72,
      "start": 19.2913,
      "duration": 0.1524,
      "velocity": 105,
      "chip": "ym2612"
    },
    {
      "channel": 1,
      "note": 53,
      "start": 19.2921,
      "duration": 0.1525,
      "velocity": 99,
      "chip": "ym2612"
    },
    {
      "channel": 2,
      "note": 68,
      "start": 19.2937,
      "duration": 0.1473,
      "velocity": 127,
      "chip": "ym2612"
    },
    {
      "channel": 0,
      "note": 70,
      "start": 19.4444,
      "duration": 0.1537,
      "velocity": 105,
      "chip": "ym2612"
    },
    {
      "channel": 1,
      "note": 48,
      "start": 19.4451,
      "duration": 0.1538,
      "velocity": 99,
      "chip": "ym2612"
    },
    {
      "channel": 2,
      "note": 75,
      "start": 19.4467,
      "duration": 0.1486,
      "velocity": 120,
      "chip": "ym2612"
    },
    {
      "channel": 0,
      "note": 68,
      "start": 19.5988,
      "duration": 0.1539,
      "velocity": 105,
      "chip": "ym2612"
    },
    {
      "channel": 1,
      "note": 44,
      "start": 19.5995,
      "duration": 0.1542,
      "velocity": 99,
      "chip": "ym2612"
    },
    {
      "channel": 2,
      "note": 68,
      "start": 19.6011,
      "duration": 0.1489,
      "velocity": 127,
      "chip": "ym2612"
    },
    {
      "channel": 0,
      "note": 69,
      "start": 19.7535,
      "duration": 0.1548,
      "velocity": 105,
      "chip": "ym2612"
    },
    {
      "channel": 1,
      "note": 45,
      "start": 19.7543,
      "duration": 0.1548,
      "velocity": 99,
      "chip": "ym2612"
    },
    {
      "channel": 3,
      "note": 52,
      "start": 19.7563,
      "duration": 1.2338,
      "velocity": 92,
      "chip": "ym2612"
    },
    {
      "channel": 4,
      "note": 49,
      "start": 19.7571,
      "duration": 1.2338,
      "velocity": 92,
      "chip": "ym2612"
    },
    {
      "channel": 5,
      "note": 93,
      "start": 19.7579,
      "duration": 0.3053,
      "velocity": 100,
      "chip": "ym2612"
    },
    {
      "channel": 2,
      "note": 68,
      "start": 19.7587,
      "duration": 0.1454,
      "velocity": 127,
      "chip": "ym2612"
    },
    {
      "channel": 0,
      "note": 68,
      "start": 19.9089,
      "duration": 0.1524,
      "velocity": 105,
      "chip": "ym2612"
    },
    {
      "channel": 2,
      "note": 68,
      "start": 19.9108,
      "duration": 0.1477,
      "velocity": 127,
      "chip": "ym2612"
    },
    {
      "channel": 0,
      "note": 69,
      "start": 20.0619,
      "duration": 0.1537,
      "velocity": 105,
      "chip": "ym2612"
    },
    {
      "channel": 1,
      "note": 45,
      "start": 20.0627,
      "duration": 0.3084,
      "velocity": 99,
      "chip": "ym2612"
    },
    {
      "channel": 5,
      "note": 91,
      "start": 20.0638,
      "duration": 0.1534,
      "velocity": 100,
      "chip": "ym2612"
    },
    {
      "channel": 2,
      "note": 75,
      "start": 20.0647,
      "duration": 0.1481,
      "velocity": 120,
      "chip": "ym2612"
    },
    {
      "channel": 0,
      "note": 81,
      "start": 20.2163,
      "duration": 1.0801,
      "velocity": 105,
      "chip": "ym2612"
    },
    {
      "channel": 5,
      "note": 93,
      "start": 20.2178,
      "duration": 0.1558,
      "velocity": 100,
      "chip": "ym2612"
    },
    {
      "channel": 2,
      "note": 68,
      "start": 20.2187,
      "duration": 0.1493,
      "velocity": 127,
      "chip": "ym2612"
    },
    {
      "channel": 1,
      "note": 57,
      "start": 20.3731,
      "duration": 0.1531,
      "velocity": 99,
      "chip": "ym2612"
    },
    {
      "channel": 5,
      "note": 88,
      "start": 20.3742,
      "duration": 0.153,
      "velocity": 100,
      "chip": "ym2612"
    },
    {
      "channel": 2,
      "note": 68,
      "start": 20.375,
      "duration": 0.1479,
      "velocity": 127,
      "chip": "ym2612"
    },
    {
      "channel": 1,
      "note": 52,
      "start": 20.5267,
      "duration": 0.1525,
      "velocity": 99,
      "chip": "ym2612"
    },
    {
      "channel": 5,
      "note": 91,
      "start": 20.5278,
      "duration": 0.1526,
      "velocity": 100,
      "chip": "ym2612"
    },
    {
      "channel": 2,
      "note": 68,
      "start": 20.5287,
      "duration": 0.1475,
      "velocity": 127,
      "chip": "ym2612"
    },
    {
      "channel": 1,
      "note": 55,
      "start": 20.6798,
      "duration": 0.1539,
      "velocity": 99,
      "chip": "ym2612"
    },
    {
      "channel": 5,
      "note": 86,
      "start": 20.681,
      "duration": 0.1539,
      "velocity": 100,
      "chip": "ym2612"
    },
    {
      "channel": 2,
      "note": 75,
      "start": 20.6818,
      "duration": 0.1486,
      "velocity": 120,
      "chip": "ym2612"
    },
    {
      "channel": 1,
      "note": 57,
      "start": 20.8343,
      "duration": 0.3091,
      "velocity": 99,
      "chip": "ym2612"
    },
    {
      "channel": 5,
      "note": 88,
      "start": 20.8354,
      "duration": 0.1562,
      "velocity": 100,
      "chip": "ym2612"
    },
    {
      "channel": 2,
      "note": 68,
      "start": 20.8363,
      "duration": 0.1488,
      "velocity": 127,
      "chip": "ym2612"
    },
    {
      "channel": 3,
      "note": 64,
      "start": 20.9907,
      "duration": 1.2354,
      "velocity": 92,
      "chip": "ym2612"
    },
    {
      "channel": 4,
      "note": 61,
      "start": 20.9915,
      "duration": 1.2354,
      "velocity": 92,
      "chip": "ym2612"
    },
    {
      "channel": 5,
      "note": 85,
      "start": 20.9922,
      "duration": 0.1523,
      "velocity": 100,
      "chip": "ym2612"
    },
    {
      "channel": 2,
      "note": 68,
      "start": 20.993,
      "duration": 0.1471,
      "velocity": 127,
      "chip": "ym2612"
    },
    {
      "channel": 1,
      "note": 52,
      "start": 21.1439,
      "duration": 0.1533,
      "velocity": 99,
      "chip": "ym2612"
    },
    {
      "channel": 5,
      "note": 88,
      "start": 21.1451,
      "duration": 0.1533,
      "velocity": 100,
      "chip": "ym2612"
    },
    {
      "channel": 2,
      "note": 68,
      "start": 21.146,
      "duration": 0.1476,
      "velocity": 127,
      "chip": "ym2612"
    },
    {
      "channel": 0,
      "note": 79,
      "start": 21.2971,
      "duration": 0.1538,
      "velocity": 105,
      "chip": "ym2612"
    },
    {
      "channel": 1,
      "note": 55,
      "start": 21.2978,
      "duration": 0.1539,
      "velocity": 99,
      "chip": "ym2612"
    },
    {
      "channel": 5,
      "note": 81,
      "start": 21.299,
      "duration": 0.1538,
      "velocity": 100,
      "chip": "ym2612"
    },
    {
      "channel": 2,
      "note": 75,
      "start": 21.2998,
      "duration": 0.1482,
      "velocity": 120,
      "chip": "ym2612"
    },
    {
      "channel": 0,
      "note": 81,
      "start": 21.4515,
      "duration": 0.1554,
      "velocity": 105,
      "chip": "ym2612"
    },
    {
      "channel": 1,
      "note": 57,
      "start": 21.4523,
      "duration": 0.7731,
      "velocity": 99,
      "chip": "ym2612"
    },
    {
      "channel": 5,
      "note": 85,
      "start": 21.4534,
      "duration": 0.155,
      "velocity": 100,
      "chip": "ym2612"
    },
    {
      "channel": 2,
      "note": 68,
      "start": 21.4542,
      "duration": 0.1485,
      "velocity": 127,
      "chip": "ym2612"
    },
    {
      "channel": 0,
      "note": 76,
      "start": 21.6076,
      "duration": 0.152,
      "velocity": 105,
      "chip": "ym2612"
    },
    {
      "channel": 5,
      "note": 79,
      "start": 21.6091,
      "duration": 0.152,
      "velocity": 100,
      "chip": "ym2612"
    },
    {
      "channel": 2,
      "note": 68,
      "start": 21.6099,
      "duration": 0.1469,
      "velocity": 127,
      "chip": "ym2612"
    },
    {
      "channel": 0,
      "note": 79,
      "start": 21.7602,
      "duration": 0.1538,
      "velocity": 105,
      "chip": "ym2612"
    },
    {
      "channel": 5,
      "note": 81,
      "start": 21.7617,
      "duration": 0.1538,
      "velocity": 100,
      "chip": "ym2612"
    },
    {
      "channel": 2,
      "note": 68,
      "start": 21.7626,
      "duration": 0.1486,
      "velocity": 127,
      "chip": "ym2612"
    },
    {
      "channel": 0,
      "note": 73,
      "start": 21.9147,
      "duration": 0.3097,
      "velocity": 105,
      "chip": "ym2612"
    },
    {
      "channel": 5,
      "note": 76,
      "start": 21.9161,
      "duration": 0.1533,
      "velocity": 100,
      "chip": "ym2612"
    },
    {
      "channel": 2,
      "note": 75,
      "start": 21.917,
      "duration": 0.1485,
      "velocity": 120,
      "chip": "ym2612"
    },
    {
      "channel": 5,
      "note": 79,
      "start": 22.0701,
      "duration": 0.1574,
      "velocity": 100,
      "chip": "ym2612"
    },
    {
      "channel": 2,
      "note": 68,
      "start": 22.0709,
      "duration": 0.1494,
      "velocity": 127,
      "chip": "ym2612"
    },
    {
      "channel": 0,
      "note": 69,
      "start": 22.2251,
      "duration": 0.152,
      "velocity": 105,
      "chip": "ym2612"
    },
    {
      "channel": 1,
      "note": 45,
      "start": 22.2259,
      "duration": 0.152,
      "velocity": 99,
      "chip": "ym2612"
    },
    {
      "channel": 3,
      "note": 52,
      "start": 22.2266,
      "duration": 1.2336,
      "velocity": 92,
      "chip": "ym2612"
    },
    {
      "channel": 4,
      "note": 49,
      "start": 22.2274,
      "duration": 1.2335,
      "velocity": 92,
      "chip": "ym2612"
    },
    {
      "channel": 5,
      "note": 93,
      "start": 22.2281,
      "duration": 0.3053,
      "velocity": 100,
      "chip": "ym2612"
    },
    {
      "channel": 2,
      "note": 68,
      "start": 22.229,
      "duration": 0.1454,
      "velocity": 127,
      "chip": "ym2612"
    },
    {
      "channel": 0,
      "note": 68,
      "start": 22.3778,
      "duration": 0.1537,
      "velocity": 105,
      "chip": "ym2612"
    },
    {
      "channel": 2,
      "note": 68,
      "start": 22.3798,
      "duration": 0.149,
      "velocity": 127,
      "chip": "ym2612"
    },
    {
      "channel": 0,
      "note": 69,
      "start": 22.5322,
      "duration": 0.1538,
      "velocity": 105,
      "chip": "ym2612"
    },
    {
      "channel": 1,
      "note": 45,
      "start": 22.5329,
      "duration": 0.3094,
      "velocity": 99,
      "chip": "ym2612"
    },
    {
      "channel": 5,
      "note": 91,
      "start": 22.5341,
      "duration": 0.1534,
      "velocity": 100,
      "chip": "ym2612"
    },
    {
      "channel": 2,
      "note": 75,
      "start": 22.535,
      "duration": 0.1482,
      "velocity": 120,
      "chip": "ym2612"
    },
    {
      "channel": 0,
      "note": 81,
      "start": 22.6866,
      "duration": 1.08,
      "velocity": 105,
      "chip": "ym2612"
    },
    {
      "channel": 5,
      "note": 93,
      "start": 22.6881,
      "duration": 0.1554,
      "velocity": 100,
      "chip": "ym2612"
    },
    {
      "channel": 2,
      "note": 68,
      "start": 22.6903,
      "duration": 0.1475,
      "velocity": 127,
      "chip": "ym2612"
    },
    {
      "channel": 1,
      "note": 57,
      "start": 22.843,
      "duration": 0.1521,
      "velocity": 99,
      "chip": "ym2612"
    },
    {
      "channel": 5,
      "note": 88,
      "start": 22.8441,
      "duration": 0.1521,
      "velocity": 100,
      "chip": "ym2612"
    },
    {
      "channel": 2,
      "note": 68,
      "start": 22.8449,
      "duration": 0.147,
      "velocity": 127,
      "chip": "ym2612"
    },
    {
      "channel": 1,
      "note": 52,
      "start": 22.9956,
      "duration": 0.1537,
      "velocity": 99,
      "chip": "ym2612"
    },
    {
      "channel": 5,
      "note": 91,
      "start": 22.9968,
      "duration": 0.1537,
      "velocity": 100,
      "chip": "ym2612"
    },
    {
      "channel": 2,
      "note": 68,
      "start": 22.9977,
      "duration": 0.1485,
      "velocity": 127,
      "chip": "ym2612"
    },
    {
      "channel": 1,
      "note": 55,
      "start": 23.15,
      "duration": 0.1539,
      "velocity": 99,
      "chip": "ym2612"
    },
    {
      "channel": 5,
      "note": 86,
      "start": 23.1511,
      "duration": 0.1553,
      "velocity": 100,
      "chip": "ym2612"
    },
    {
      "channel": 2,
      "note": 75,
      "start": 23.152,
      "duration": 0.1487,
      "velocity": 120,
      "chip": "ym2612"
    },
    {
      "channel": 1,
      "note": 57,
      "start": 23.3045,
      "duration": 0.3083,
      "velocity": 99,
      "chip": "ym2612"
    },
    {
      "channel": 5,
      "note": 88,
      "start": 23.307,
      "duration": 0.1546,
      "velocity": 100,
      "chip": "ym2612"
    },
    {
      "channel": 2,
      "note": 68,
      "start": 23.3079,
      "duration": 0.1487,
      "velocity": 127,
      "chip": "ym2612"
    },
    {
      "channel": 3,
      "note": 64,
      "start": 23.4608,
      "duration": 1.2347,
      "velocity": 92,
      "chip": "ym2612"
    },
    {
      "channel": 4,
      "note": 61,
      "start": 23.4615,
      "duration": 1.235,
      "velocity": 92,
      "chip": "ym2612"
    },
    {
      "channel": 5,
      "note": 85,
      "start": 23.4622,
      "duration": 0.1516,
      "velocity": 100,
      "chip": "ym2612"
    },
    {
      "channel": 2,
      "note": 68,
      "start": 23.4631,
      "duration": 0.1464,
      "velocity": 127,
      "chip": "ym2612"
    },
    {
      "channel": 1,
      "note": 52,
      "start": 23.6133,
      "duration": 0.1541,
      "velocity": 99,
      "chip": "ym2612"
    },
    {
      "channel": 5,
      "note": 88,
      "start": 23.6145,
      "duration": 0.1541,
      "velocity": 100,
      "chip": "ym2612"
    },
    {
      "channel": 2,
      "note": 79,
      "start": 23.6155,
      "duration": 0.1483,
      "velocity": 120,
      "chip": "ym2612"
    },
    {
      "channel": 0,
      "note": 79,
      "start": 23.7673,
      "duration": 0.1538,
      "velocity": 105,
      "chip": "ym2612"
    },
    {
      "channel": 1,
      "note": 55,
      "start": 23.768,
      "duration": 0.1552,
      "velocity": 99,
      "chip": "ym2612"
    },
    {
      "channel": 5,
      "note": 81,
      "start": 23.7692,
      "duration": 0.1551,
      "velocity": 100,
      "chip": "ym2612"
    },
    {
      "channel": 2,
      "note": 79,
      "start": 23.7701,
      "duration": 0.1482,
      "velocity": 120,
      "chip": "ym2612"
    },
    {
      "channel": 0,
      "note": 81,
      "start": 23.9231,
      "duration": 0.1532,
      "velocity": 105,
      "chip": "ym2612"
    },
    {
      "channel": 1,
      "note": 57,
      "start": 23.9238,
      "duration": 0.7707,
      "velocity": 99,
      "chip": "ym2612"
    },
    {
      "channel": 5,
      "note": 85,
      "start": 23.925,
      "duration": 0.1529,
      "velocity": 100,
      "chip": "ym2612"
    },
    {
      "channel": 2,
      "note": 74,
      "start": 23.9258,
      "duration": 0.1477,
      "velocity": 120,
      "chip": "ym2612"
    },
    {
      "channel": 0,
      "note": 76,
      "start": 24.0769,
      "duration": 0.1529,
      "velocity": 105,
      "chip": "ym2612"
    },
    {
      "channel": 5,
      "note": 79,
      "start": 24.0784,
      "duration": 0.1529,
      "velocity": 100,
      "chip": "ym2612"
    },
    {
      "channel": 2,
      "note": 74,
      "start": 24.0793,
      "duration": 0.1477,
      "velocity": 120,
      "chip": "ym2612"
    },
    {
      "channel": 0,
      "note": 79,
      "start": 24.2304,
      "duration": 0.1541,
      "velocity": 105,
      "chip": "ym2612"
    },
    {
      "channel": 5,
      "note": 81,
      "start": 24.232,
      "duration": 0.1541,
      "velocity": 100,
      "chip": "ym2612"
    },
    {
      "channel": 2,
      "note": 74,
      "start": 24.2328,
      "duration": 0.149,
      "velocity": 120,
      "chip": "ym2612"
    },
    {
      "channel": 0,
      "note": 73,
      "start": 24.3852,
      "duration": 0.3083,
      "velocity": 105,
      "chip": "ym2612"
    },
    {
      "channel": 5,
      "note": 76,
      "start": 24.3867,
      "duration": 0.1544,
      "velocity": 100,
      "chip": "ym2612"
    },
    {
      "channel": 2,
      "note": 69,
      "start": 24.3877,
      "duration": 0.1481,
      "velocity": 120,
      "chip": "ym2612"
    },
    {
      "channel": 5,
      "note": 79,
      "start": 24.5416,
      "duration": 0.1557,
      "velocity": 100,
      "chip": "ym2612"
    },
    {
      "channel": 2,
      "note": 69,
      "start": 24.5427,
      "duration": 0.1478,
      "velocity": 120,
      "chip": "ym2612"
    },
    {
      "channel": 0,
      "note": 62,
      "start": 24.6942,
      "duration": 0.6167,
      "velocity": 105,
      "chip": "ym2612"
    },
    {
      "channel": 1,
      "note": 50,
      "start": 24.6952,
      "duration": 0.1525,
      "velocity": 99,
      "chip": "ym2612"
    },
    {
      "channel": 3,
      "note": 53,
      "start": 24.6961,
      "duration": 1.234,
      "velocity": 92,
      "chip": "ym2612"
    },
    {
      "channel": 4,
      "note": 50,
      "start": 24.6971,
      "duration": 1.2338,
      "velocity": 92,
      "chip": "ym2612"
    },
    {
      "channel": 2,
      "note": 68,
      "start": 24.6984,
      "duration": 0.1461,
      "velocity": 127,
      "chip": "ym2612"
    },
    {
      "channel": 2,
      "note": 68,
      "start": 24.8492,
      "duration": 0.1498,
      "velocity": 127,
      "chip": "ym2612"
    },
    {
      "channel": 1,
      "note": 50,
      "start": 25.0027,
      "duration": 0.309,
      "velocity": 99,
      "chip": "ym2612"
    },
    {
      "channel": 2,
      "note": 75,
      "start": 25.004,
      "duration": 0.1493,
      "velocity": 120,
      "chip": "ym2612"
    },
    {
      "channel": 2,
      "note": 68,
      "start": 25.1593,
      "duration": 0.1487,
      "velocity": 127,
      "chip": "ym2612"
    },
    {
      "channel": 0,
      "note": 74,
      "start": 25.3115,
      "duration": 0.6169,
      "velocity": 105,
      "chip": "ym2612"
    },
    {
      "channel": 1,
      "note": 53,
      "start": 25.3122,
      "duration": 0.1531,
      "velocity": 99,
      "chip": "ym2612"
    },
    {
      "channel": 2,
      "note": 68,
      "start": 25.3136,
      "duration": 0.1485,
      "velocity": 127,
      "chip": "ym2612"
    },
    {
      "channel": 1,
      "note": 55,
      "start": 25.4659,
      "duration": 0.1538,
      "velocity": 99,
      "chip": "ym2612"
    },
    {
      "channel": 2,
      "note": 68,
      "start": 25.4672,
      "duration": 0.1493,
      "velocity": 127,
      "chip": "ym2612"
    },
    {
      "channel": 1,
      "note": 57,
      "start": 25.6202,
      "duration": 0.1553,
      "velocity": 99,
      "chip": "ym2612"
    },
    {
      "channel": 2,
      "note": 75,
      "start": 25.6215,
      "duration": 0.1494,
      "velocity": 120,
      "chip": "ym2612"
    },
    {
      "channel": 1,
      "note": 45,
      "start": 25.7761,
      "duration": 0.1533,
      "velocity": 99,
      "chip": "ym2612"
    },
    {
      "channel": 2,
      "note": 68,
      "start": 25.7774,
      "duration": 0.1482,
      "velocity": 127,
      "chip": "ym2612"
    },
    {
      "channel": 0,
      "note": 72,
      "start": 25.9291,
      "duration": 0.771,
      "velocity": 105,
      "chip": "ym2612"
    },
    {
      "channel": 1,
      "note": 50,
      "start": 25.9299,
      "duration": 0.1529,
      "velocity": 99,
      "chip": "ym2612"
    },
    {
      "channel": 3,
      "note": 57,
      "start": 25.9306,
      "duration": 1.234,
      "velocity": 92,
      "chip": "ym2612"
    },
    {
      "channel": 4,
      "note": 53,
      "start": 25.9314,
      "duration": 1.234,
      "velocity": 92,
      "chip": "ym2612"
    },
    {
      "channel": 2,
      "note": 68,
      "start": 25.9324,
      "duration": 0.1474,
      "velocity": 127,
      "chip": "ym2612"
    },
    {
      "channel": 2,
      "note": 68,
      "start": 26.0844,
      "duration": 0.1497,
      "velocity": 127,
      "chip": "ym2612"
    },
    {
      "channel": 1,
      "note": 50,
      "start": 26.2378,
      "duration": 0.3086,
      "velocity": 99,
      "chip": "ym2612"
    },
    {
      "channel": 2,
      "note": 75,
      "start": 26.2405,
      "duration": 0.1493,
      "velocity": 120,
      "chip": "ym2612"
    },
    {
      "channel": 2,
      "note": 68,
      "start": 26.3945,
      "duration": 0.1487,
      "velocity": 127,
      "chip": "ym2612"
    },
    {
      "channel": 1,
      "note": 53,
      "start": 26.547,
      "duration": 0.1539,
      "velocity": 99,
      "chip": "ym2612"
    },
    {
      "channel": 2,
      "note": 68,
      "start": 26.5483,
      "duration": 0.149,
      "velocity": 127,
      "chip": "ym2612"
    },
    {
      "channel": 0,
      "note": 62,
      "start": 26.7008,
      "duration": 0.1536,
      "velocity": 105,
      "chip": "ym2612"
    },
    {
      "channel": 1,
      "note": 55,
      "start": 26.7015,
      "duration": 0.155,
      "velocity": 99,
      "chip": "ym2612"
    },
    {
      "channel": 2,
      "note": 68,
      "start": 26.7028,
      "duration": 0.1488,
      "velocity": 127,
      "chip": "ym2612"
    },
    {
      "channel": 0,
      "note": 65,
      "start": 26.8564,
      "duration": 0.1532,
      "velocity": 105,
      "chip": "ym2612"
    },
    {
      "channel": 1,
      "note": 57,
      "start": 26.8572,
      "duration": 0.1532,
      "velocity": 99,
      "chip": "ym2612"
    },
    {
      "channel": 2,
      "note": 75,
      "start": 26.8585,
      "duration": 0.1483,
      "velocity": 120,
      "chip": "ym2612"
    },
    {
      "channel": 0,
      "note": 67,
      "start": 27.0102,
      "duration": 1.3888,
      "velocity": 105,
      "chip": "ym2612"
    },
    {
      "channel": 1,
      "note": 45,
      "start": 27.0109,
      "duration": 0.1531,
      "velocity": 99,
      "chip": "ym2612"
    },
    {
      "channel": 2,
      "note": 68,
      "start": 27.0122,
      "duration": 0.1484,
      "velocity": 127,
      "chip": "ym2612"
    },
    {
      "channel": 1,
      "note": 50,
      "start": 27.1645,
      "duration": 0.1535,
      "velocity": 99,
      "chip": "ym2612"
    },
    {
      "channel": 3,
      "note": 60,
      "start": 27.1652,
      "duration": 1.2354,
      "velocity": 92,
      "chip": "ym2612"
    },
    {
      "channel": 4,
      "note": 57,
      "start": 27.166,
      "duration": 1.2354,
      "velocity": 92,
      "chip": "ym2612"
    },
    {
      "channel": 5,
      "note": 69,
      "start": 27.1668,
      "duration": 0.152,
      "velocity": 100,
      "chip": "ym2612"
    },
    {
      "channel": 2,
      "note": 68,
      "start": 27.1676,
      "duration": 0.1473,
      "velocity": 127,
      "chip": "ym2612"
    },
    {
      "channel": 5,
      "note": 72,
      "start": 27.3193,
      "duration": 0.1555,
      "velocity": 100,
      "chip": "ym2612"
    },
    {
      "channel": 2,
      "note": 68,
      "start": 27.3201,
      "duration": 0.149,
      "velocity": 127,
      "chip": "ym2612"
    },
    {
      "channel": 1,
      "note": 50,
      "start": 27.4743,
      "duration": 0.3073,
      "velocity": 99,
      "chip": "ym2612"
    },
    {
      "channel": 5,
      "note": 74,
      "start": 27.4754,
      "duration": 0.1522,
      "velocity": 100,
      "chip": "ym2612"
    },
    {
      "channel": 2,
      "note": 75,
      "start": 27.4763,
      "duration": 0.1473,
      "velocity": 120,
      "chip": "ym2612"
    },
    {
      "channel": 5,
      "note": 77,
      "start": 27.6281,
      "duration": 0.1545,
      "velocity": 100,
      "chip": "ym2612"
    },
    {
      "channel": 2,
      "note": 68,
      "start": 27.629,
      "duration": 0.1493,
      "velocity": 127,
      "chip": "ym2612"
    },
    {
      "channel": 1,
      "note": 53,
      "start": 27.7821,
      "duration": 0.1536,
      "velocity": 99,
      "chip": "ym2612"
    },
    {
      "channel": 5,
      "note": 79,
      "start": 27.7832,
      "duration": 0.1535,
      "velocity": 100,
      "chip": "ym2612"
    },
    {
      "channel": 2,
      "note": 68,
      "start": 27.7841,
      "duration": 0.1483,
      "velocity": 127,
      "chip": "ym2612"
    },
    {
      "channel": 1,
      "note": 55,
      "start": 27.9362,
      "duration": 0.1551,
      "velocity": 99,
      "chip": "ym2612"
    },
    {
      "channel": 5,
      "note": 81,
      "start": 27.9374,
      "duration": 0.1551,
      "velocity": 100,
      "chip": "ym2612"
    },
    {
      "channel": 2,
      "note": 68,
      "start": 27.9382,
      "duration": 0.1486,
      "velocity": 127,
      "chip": "ym2612"
    },
    {
      "channel": 1,
      "note": 57,
      "start": 28.092,
      "duration": 0.1525,
      "velocity": 99,
      "chip": "ym2612"
    },
    {
      "channel": 5,
      "note": 84,
      "start": 28.0931,
      "duration": 0.1524,
      "velocity": 100,
      "chip": "ym2612"
    },
    {
      "channel": 2,
      "note": 75,
      "start": 28.094,
      "duration": 0.1472,
      "velocity": 120,
      "chip": "ym2612"
    },
    {
      "channel": 1,
      "note": 45,
      "start": 28.245,
      "duration": 0.1549,
      "velocity": 99,
      "chip": "ym2612"
    },
    {
      "channel": 5,
      "note": 86,
      "start": 28.2461,
      "duration": 0.156,
      "velocity": 100,
      "chip": "ym2612"
    },
    {
      "channel": 2,
      "note": 68,
      "start": 28.247,
      "duration": 0.1492,
      "velocity": 127,
      "chip": "ym2612"
    },
    {
      "channel": 0,
      "note": 69,
      "start": 28.3997,
      "duration": 0.3088,
      "velocity": 105,
      "chip": "ym2612"
    },
    {
      "channel": 1,
      "note": 50,
      "start": 28.4005,
      "duration": 0.1526,
      "velocity": 99,
      "chip": "ym2612"
    },
    {
      "channel": 3,
      "note": 59,
      "start": 28.4012,
      "duration": 0.6165,
      "velocity": 92,
      "chip": "ym2612"
    },
    {
      "channel": 4,
      "note": 55,
      "start": 28.402,
      "duration": 0.6165,
      "velocity": 92,
      "chip": "ym2612"
    },
    {
      "channel": 5,
      "note": 89,
      "start": 28.4027,
      "duration": 0.1511,
      "velocity": 100,
      "chip": "ym2612"
    },
    {
      "channel": 2,
      "note": 68,
      "start": 28.4036,
      "duration": 0.1463,
      "velocity": 127,
      "chip": "ym2612"
    },
    {
      "channel": 5,
      "note": 91,
      "start": 28.5544,
      "duration": 0.1561,
      "velocity": 100,
      "chip": "ym2612"
    },
    {
      "channel": 2,
      "note": 68,
      "start": 28.5566,
      "duration": 0.1478,
      "velocity": 127,
      "chip": "ym2612"
    },
    {
      "channel": 0,
      "note": 67,
      "start": 28.7092,
      "duration": 0.1523,
      "velocity": 105,
      "chip": "ym2612"
    },
    {
      "channel": 1,
      "note": 50,
      "start": 28.7099,
      "duration": 0.3071,
      "velocity": 99,
      "chip": "ym2612"
    },
    {
      "channel": 5,
      "note": 93,
      "start": 28.711,
      "duration": 0.152,
      "velocity": 100,
      "chip": "ym2612"
    },
    {
      "channel": 2,
      "note": 75,
      "start": 28.7119,
      "duration": 0.1468,
      "velocity": 120,
      "chip": "ym2612"
    },
    {
      "channel": 0,
      "note": 65,
      "start": 28.8621,
      "duration": 0.1541,
      "velocity": 105,
      "chip": "ym2612"
    },
    {
      "channel": 5,
      "note": 91,
      "start": 28.8637,
      "duration": 0.4642,
      "velocity": 100,
      "chip": "ym2612"
    },
    {
      "channel": 2,
      "note": 68,
      "start": 28.8645,
      "duration": 0.1489,
      "velocity": 127,
      "chip": "ym2612"
    },
    {
      "channel": 0,
      "note": 67,
      "start": 29.0169,
      "duration": 0.3091,
      "velocity": 105,
      "chip": "ym2612"
    },
    {
      "channel": 1,
      "note": 53,
      "start": 29.0176,
      "duration": 0.153,
      "velocity": 99,
      "chip": "ym2612"
    },
    {
      "channel": 3,
      "note": 60,
      "start": 29.0183,
      "duration": 0.617,
      "velocity": 92,
      "chip": "ym2612"
    },
    {
      "channel": 4,
      "note": 57,
      "start": 29.019,
      "duration": 0.6171,
      "velocity": 92,
      "chip": "ym2612"
    },
    {
      "channel": 2,
      "note": 68,
      "start": 29.0203,
      "duration": 0.1472,
      "velocity": 127,
      "chip": "ym2612"
    },
    {
      "channel": 1,
      "note": 55,
      "start": 29.1712,
      "duration": 0.1555,
      "velocity": 99,
      "chip": "ym2612"
    },
    {
      "channel": 2,
      "note": 68,
      "start": 29.1742,
      "duration": 0.149,
      "velocity": 127,
      "chip": "ym2612"
    },
    {
      "channel": 0,
      "note": 65,
      "start": 29.3266,
      "duration": 0.1525,
      "velocity": 105,
      "chip": "ym2612"
    },
    {
      "channel": 1,
      "note": 57,
      "start": 29.3274,
      "duration": 0.1525,
      "velocity": 99,
      "chip": "ym2612"
    },
    {
      "channel": 5,
      "note": 89,
      "start": 29.3285,
      "duration": 0.1525,
      "velocity": 100,
      "chip": "ym2612"
    },
    {
      "channel": 2,
      "note": 75,
      "start": 29.3294,
      "duration": 0.1469,
      "velocity": 120,
      "chip": "ym2612"
    },
    {
      "channel": 0,
      "note": 62,
      "start": 29.4798,
      "duration": 0.1539,
      "velocity": 105,
      "chip": "ym2612"
    },
    {
      "channel": 1,
      "note": 45,
      "start": 29.4805,
      "duration": 0.1541,
      "velocity": 99,
      "chip": "ym2612"
    },
    {
      "channel": 5,
      "note": 86,
      "start": 29.4817,
      "duration": 0.1551,
      "velocity": 100,
      "chip": "ym2612"
    },
    {
      "channel": 2,
      "note": 68,
      "start": 29.4825,
      "duration": 0.1484,
      "velocity": 127,
      "chip": "ym2612"
    },
    {
      "channel": 0,
      "note": 65,
      "start": 29.6344,
      "duration": 0.3085,
      "velocity": 105,
      "chip": "ym2612"
    },
    {
      "channel": 1,
      "note": 50,
      "start": 29.6352,
      "duration": 0.153,
      "velocity": 99,
      "chip": "ym2612"
    },
    {
      "channel": 3,
      "note": 53,
      "start": 29.6359,
      "duration": 1.2346,
      "velocity": 92,
      "chip": "ym2612"
    },
    {
      "channel": 4,
      "note": 50,
      "start": 29.6367,
      "duration": 1.2346,
      "velocity": 92,
      "chip": "ym2612"
    },
    {
      "channel": 5,
      "note": 89,
      "start": 29.6374,
      "duration": 0.3074,
      "velocity": 100,
      "chip": "ym2612"
    },
    {
      "channel": 2,
      "note": 68,
      "start": 29.6397,
      "duration": 0.1454,
      "velocity": 127,
      "chip": "ym2612"
    },
    {
      "channel": 2,
      "note": 68,
      "start": 29.7912,
      "duration": 0.1489,
      "velocity": 127,
      "chip": "ym2612"
    },
    {
      "channel": 0,
      "note": 62,
      "start": 29.9435,
      "duration": 0.1531,
      "velocity": 105,
      "chip": "ym2612"
    },
    {
      "channel": 1,
      "note": 50,
      "start": 29.9443,
      "duration": 0.3078,
      "velocity": 99,
      "chip": "ym2612"
    },
    {
      "channel": 5,
      "note": 86,
      "start": 29.9455,
      "duration": 0.3078,
      "velocity": 100,
      "chip": "ym2612"
    },
    {
      "channel": 2,
      "note": 75,
      "start": 29.9463,
      "duration": 0.1476,
      "velocity": 120,
      "chip": "ym2612"
    },
    {
      "channel": 0,
      "note": 60,
      "start": 30.0973,
      "duration": 0.154,
      "velocity": 105,
      "chip": "ym2612"
    },
    {
      "channel": 2,
      "note": 68,
      "start": 30.0993,
      "duration": 0.1492,
      "velocity": 127,
      "chip": "ym2612"
    },
    {
      "channel": 0,
      "note": 62,
      "start": 30.252,
      "duration": 0.1548,
      "velocity": 105,
      "chip": "ym2612"
    },
    {
      "channel": 1,
      "note": 53,
      "start": 30.2527,
      "duration": 0.1549,
      "velocity": 99,
      "chip": "ym2612"
    },
    {
      "channel": 5,
      "note": 91,
      "start": 30.2539,
      "duration": 0.3079,
      "velocity": 100,
      "chip": "ym2612"
    },
    {
      "channel": 2,
      "note": 68,
      "start": 30.2547,
      "duration": 0.148,
      "velocity": 127,
      "chip": "ym2612"
    },
    {
      "channel": 0,
      "note": 57,
      "start": 30.4074,
      "duration": 0.1524,
      "velocity": 105,
      "chip": "ym2612"
    },
    {
      "channel": 1,
      "note": 55,
      "start": 30.4081,
      "duration": 0.1525,
      "velocity": 99,
      "chip": "ym2612"
    },
    {
      "channel": 2,
      "note": 68,
      "start": 30.4097,
      "duration": 0.1473,
      "velocity": 127,
      "chip": "ym2612"
    },
    {
      "channel": 0,
      "note": 60,
      "start": 30.5605,
      "duration": 0.1537,
      "velocity": 105,
      "chip": "ym2612"
    },
    {
      "channel": 1,
      "note": 57,
      "start": 30.5612,
      "duration": 0.1539,
      "velocity": 99,
      "chip": "ym2612"
    },
    {
      "channel": 5,
      "note": 88,
      "start": 30.5623,
      "duration": 0.3111,
      "velocity": 100,
      "chip": "ym2612"
    },
    {
      "channel": 2,
      "note": 75,
      "start": 30.5632,
      "duration": 0.1482,
      "velocity": 120,
      "chip": "ym2612"
    },
    {
      "channel": 0,
      "note": 62,
      "start": 30.7149,
      "duration": 0.1541,
      "velocity": 105,
      "chip": "ym2612"
    },
    {
      "channel": 1,
      "note": 45,
      "start": 30.7156,
      "duration": 0.1542,
      "velocity": 99,
      "chip": "ym2612"
    },
    {
      "channel": 2,
      "note": 68,
      "start": 30.7172,
      "duration": 0.1489,
      "velocity": 127,
      "chip": "ym2612"
    },
    {
      "channel": 0,
      "note": 65,
      "start": 30.8696,
      "duration": 0.1548,
      "velocity": 105,
      "chip": "ym2612"
    },
    {
      "channel": 1,
      "note": 50,
      "start": 30.8704,
      "duration": 0.1547,
      "velocity": 99,
      "chip": "ym2612"
    },
    {
      "channel": 3,
      "note": 65,
      "start": 30.8712,
      "duration": 0.6163,
      "velocity": 92,
      "chip": "ym2612"
    },
    {
      "channel": 4,
      "note": 62,
      "start": 30.8732,
      "duration": 0.6163,
      "velocity": 92,
      "chip": "ym2612"
    },
    {
      "channel": 5,
      "note": 89,
      "start": 30.874,
      "duration": 0.3053,
      "velocity": 100,
      "chip": "ym2612"
    },
    {
      "channel": 2,
      "note": 68,
      "start": 30.8749,
      "duration": 0.1453,
      "velocity": 127,
      "chip": "ym2612"
    },
    {
      "channel": 0,
      "note": 67,
      "start": 31.025,
      "duration": 0.1524,
      "velocity": 105,
      "chip": "ym2612"
    },
    {
      "channel": 2,
      "note": 68,
      "start": 31.0269,
      "duration": 0.1477,
      "velocity": 127,
      "chip": "ym2612"
    },
    {
      "channel": 0,
      "note": 69,
      "start": 31.178,
      "duration": 0.1537,
      "velocity": 105,
      "chip": "ym2612"
    },
    {
      "channel": 1,
      "note": 50,
      "start": 31.1788,
      "duration": 0.308,
      "velocity": 99,
      "chip": "ym2612"
    },
    {
      "channel": 5,
      "note": 86,
      "start": 31.1799,
      "duration": 0.3104,
      "velocity": 100,
      "chip": "ym2612"
    },
    {
      "channel": 2,
      "note": 75,
      "start": 31.1807,
      "duration": 0.1482,
      "velocity": 120,
      "chip": "ym2612"
    },
    {
      "channel": 0,
      "note": 67,
      "start": 31.3324,
      "duration": 0.4625,
      "velocity": 105,
      "chip": "ym2612"
    },
    {
      "channel": 2,
      "note": 68,
      "start": 31.3344,
      "duration": 0.1493,
      "velocity": 127,
      "chip": "ym2612"
    },
    {
      "channel": 1,
      "note": 53,
      "start": 31.4874,
      "duration": 0.1549,
      "velocity": 99,
      "chip": "ym2612"
    },
    {
      "channel": 3,
      "note": 57,
      "start": 31.4881,
      "duration": 0.6184,
      "velocity": 92,
      "chip": "ym2612"
    },
    {
      "channel": 4,
      "note": 53,
      "start": 31.4902,
      "duration": 0.6171,
      "velocity": 92,
      "chip": "ym2612"
    },
    {
      "channel": 5,
      "note": 91,
      "start": 31.4909,
      "duration": 0.3059,
      "velocity": 100,
      "chip": "ym2612"
    },
    {
      "channel": 2,
      "note": 68,
      "start": 31.4918,
      "duration": 0.146,
      "velocity": 127,
      "chip": "ym2612"
    },
    {
      "channel": 1,
      "note": 55,
      "start": 31.6428,
      "duration": 0.1529,
      "velocity": 99,
      "chip": "ym2612"
    },
    {
      "channel": 2,
      "note": 68,
      "start": 31.6444,
      "duration": 0.1477,
      "velocity": 127,
      "chip": "ym2612"
    },
    {
      "channel": 0,
      "note": 65,
      "start": 31.7956,
      "duration": 0.1538,
      "velocity": 105,
      "chip": "ym2612"
    },
    {
      "channel": 1,
      "note": 57,
      "start": 31.7963,
      "duration": 0.1538,
      "velocity": 99,
      "chip": "ym2612"
    },
    {
      "channel": 5,
      "note": 88,
      "start": 31.7975,
      "duration": 0.3106,
      "velocity": 100,
      "chip": "ym2612"
    },
    {
      "channel": 2,
      "note": 75,
      "start": 31.7983,
      "duration": 0.1482,
      "velocity": 120,
      "chip": "ym2612"
    },
    {
      "channel": 0,
      "note": 64,
      "start": 31.95,
      "duration": 0.7716,
      "velocity": 105,
      "chip": "ym2612"
    },
    {
      "channel": 1,
      "note": 45,
      "start": 31.9507,
      "duration": 0.1537,
      "velocity": 99,
      "chip": "ym2612"
    },
    {
      "channel": 2,
      "note": 68,
      "start": 31.9523,
      "duration": 0.1489,
      "velocity": 127,
      "chip": "ym2612"
    },
    {
      "channel": 1,
      "note": 50,
      "start": 32.1064,
      "duration": 0.1533,
      "velocity": 99,
      "chip": "ym2612"
    },
    {
      "channel": 3,
      "note": 53,
      "start": 32.1072,
      "duration": 1.235,
      "velocity": 92,
      "chip": "ym2612"
    },
    {
      "channel": 4,
      "note": 50,
      "start": 32.1079,
      "duration": 1.235,
      "velocity": 92,
      "chip": "ym2612"
    },
    {
      "channel": 5,
      "note": 89,
      "start": 32.1086,
      "duration": 0.3057,
      "velocity": 100,
      "chip": "ym2612"
    },
    {
      "channel": 2,
      "note": 68,
      "start": 32.1095,
      "duration": 0.1471,
      "velocity": 127,
      "chip": "ym2612"
    },
    {
      "channel": 2,
      "note": 68,
      "start": 32.2615,
      "duration": 0.1485,
      "velocity": 127,
      "chip": "ym2612"
    },
    {
      "channel": 1,
      "note": 50,
      "start": 32.4138,
      "duration": 0.3099,
      "velocity": 99,
      "chip": "ym2612"
    },
    {
      "channel": 5,
      "note": 86,
      "start": 32.4149,
      "duration": 0.3099,
      "velocity": 100,
      "chip": "ym2612"
    },
    {
      "channel": 2,
      "note": 75,
      "start": 32.4158,
      "duration": 0.1482,
      "velocity": 120,
      "chip": "ym2612"
    },
    {
      "channel": 2,
      "note": 68,
      "start": 32.5691,
      "duration": 0.1496,
      "velocity": 127,
      "chip": "ym2612"
    },
    {
      "channel": 0,
      "note": 67,
      "start": 32.7235,
      "duration": 0.1527,
      "velocity": 105,
      "chip": "ym2612"
    },
    {
      "channel": 1,
      "note": 53,
      "start": 32.7242,
      "duration": 0.1529,
      "velocity": 99,
      "chip": "ym2612"
    },
    {
      "channel": 5,
      "note": 88,
      "start": 32.7254,
      "duration": 0.1528,
      "velocity": 100,
      "chip": "ym2612"
    },
    {
      "channel": 2,
      "note": 68,
      "start": 32.7262,
      "duration": 0.1472,
      "velocity": 127,
      "chip": "ym2612"
    },
    {
      "channel": 0,
      "note": 64,
      "start": 32.8769,
      "duration": 0.1532,
      "velocity": 105,
      "chip": "ym2612"
    },
    {
      "channel": 1,
      "note": 55,
      "start": 32.8776,
      "duration": 0.1532,
      "velocity": 99,
      "chip": "ym2612"
    },
    {
      "channel": 5,
      "note": 84,
      "start": 32.8788,
      "duration": 0.1532,
      "velocity": 100,
      "chip": "ym2612"
    },
    {
      "channel": 2,
      "note": 68,
      "start": 32.8796,
      "duration": 0.1476,
      "velocity": 127,
      "chip": "ym2612"
    },
    {
      "channel": 0,
      "note": 65,
      "start": 33.0307,
      "duration": 0.1536,
      "velocity": 105,
      "chip": "ym2612"
    },
    {
      "channel": 1,
      "note": 57,
      "start": 33.0315,
      "duration": 0.1538,
      "velocity": 99,
      "chip": "ym2612"
    },
    {
      "channel": 5,
      "note": 86,
      "start": 33.0326,
      "duration": 0.1537,
      "velocity": 100,
      "chip": "ym2612"
    },
    {
      "channel": 2,
      "note": 75,
      "start": 33.0335,
      "duration": 0.1481,
      "velocity": 120,
      "chip": "ym2612"
    },
    {
      "channel": 0,
      "note": 67,
      "start": 33.1851,
      "duration": 0.1554,
      "velocity": 105,
      "chip": "ym2612"
    },
    {
      "channel": 1,
      "note": 45,
      "start": 33.1858,
      "duration": 0.1557,
      "velocity": 99,
      "chip": "ym2612"
    },
    {
      "channel": 5,
      "note": 88,
      "start": 33.1869,
      "duration": 0.1567,
      "velocity": 100,
      "chip": "ym2612"
    },
    {
      "channel": 2,
      "note": 68,
      "start": 33.1878,
      "duration": 0.1486,
      "velocity": 127,
      "chip": "ym2612"
    },
    {
      "channel": 0,
      "note": 69,
      "start": 33.3412,
      "duration": 0.6168,
      "velocity": 105,
      "chip": "ym2612"
    },
    {
      "channel": 1,
      "note": 50,
      "start": 33.342,
      "duration": 0.1515,
      "velocity": 99,
      "chip": "ym2612"
    },
    {
      "channel": 3,
      "note": 57,
      "start": 33.3428,
      "duration": 0.7691,
      "velocity": 92,
      "chip": "ym2612"
    },
    {
      "channel": 4,
      "note": 53,
      "start": 33.3435,
      "duration": 0.7691,
      "velocity": 92,
      "chip": "ym2612"
    },
    {
      "channel": 5,
      "note": 89,
      "start": 33.3442,
      "duration": 0.3048,
      "velocity": 100,
      "chip": "ym2612"
    },
    {
      "channel": 2,
      "note": 68,
      "start": 33.3451,
      "duration": 0.1453,
      "velocity": 127,
      "chip": "ym2612"
    },
    {
      "channel": 2,
      "note": 68,
      "start": 33.4953,
      "duration": 0.1494,
      "velocity": 127,
      "chip": "ym2612"
    },
    {
      "channel": 1,
      "note": 50,
      "start": 33.6485,
      "duration": 0.3103,
      "velocity": 99,
      "chip": "ym2612"
    },
    {
      "channel": 5,
      "note": 86,
      "start": 33.6497,
      "duration": 0.3102,
      "velocity": 100,
      "chip": "ym2612"
    },
    {
      "channel": 2,
      "note": 75,
      "start": 33.6505,
      "duration": 0.1487,
      "velocity": 120,
      "chip": "ym2612"
    },
    {
      "channel": 2,
      "note": 68,
      "start": 33.8042,
      "duration": 0.1497,
      "velocity": 127,
      "chip": "ym2612"
    },
    {
      "channel": 0,
      "note": 65,
      "start": 33.9586,
      "duration": 0.617,
      "velocity": 105,
      "chip": "ym2612"
    },
    {
      "channel": 1,
      "note": 53,
      "start": 33.9594,
      "duration": 0.1518,
      "velocity": 99,
      "chip": "ym2612"
    },
    {
      "channel": 5,
      "note": 91,
      "start": 33.9605,
      "duration": 0.3072,
      "velocity": 100,
      "chip": "ym2612"
    },
    {
      "channel": 2,
      "note": 68,
      "start": 33.9614,
      "duration": 0.1467,
      "velocity": 127,
      "chip": "ym2612"
    },
    {
      "channel": 1,
      "note": 55,
      "start": 34.1117,
      "duration": 0.1537,
      "velocity": 99,
      "chip": "ym2612"
    },
    {
      "channel": 3,
      "note": 57,
      "start": 34.1125,
      "duration": 0.1538,
      "velocity": 92,
      "chip": "ym2612"
    },
    {
      "channel": 4,
      "note": 65,
      "start": 34.1133,
      "duration": 0.1537,
      "velocity": 92,
      "chip": "ym2612"
    },
    {
      "channel": 2,
      "note": 68,
      "start": 34.1145,
      "duration": 0.1479,
      "velocity": 127,
      "chip": "ym2612"
    },
    {
      "channel": 1,
      "note": 57,
      "start": 34.2661,
      "duration": 0.1538,
      "velocity": 99,
      "chip": "ym2612"
    },
    {
      "channel": 3,
      "note": 55,
      "start": 34.2668,
      "duration": 0.1538,
      "velocity": 92,
      "chip": "ym2612"
    },
    {
      "channel": 4,
      "note": 52,
      "start": 34.2675,
      "duration": 0.1539,
      "velocity": 92,
      "chip": "ym2612"
    },
    {
      "channel": 5,
      "note": 88,
      "start": 34.2683,
      "duration": 0.3093,
      "velocity": 100,
      "chip": "ym2612"
    },
    {
      "channel": 2,
      "note": 75,
      "start": 34.2692,
      "duration": 0.1476,
      "velocity": 120,
      "chip": "ym2612"
    },
    {
      "channel": 1,
      "note": 45,
      "start": 34.4205,
      "duration": 0.1561,
      "velocity": 99,
      "chip": "ym2612"
    },
    {
      "channel": 3,
      "note": 53,
      "start": 34.4212,
      "duration": 0.7731,
      "velocity": 92,
      "chip": "ym2612"
    },
    {
      "channel": 4,
      "note": 50,
      "start": 34.4233,
      "duration": 0.7718,
      "velocity": 92,
      "chip": "ym2612"
    },
    {
      "channel": 2,
      "note": 68,
      "start": 34.4245,
      "duration": 0.1469,
      "velocity": 127,
      "chip": "ym2612"
    },
    {
      "channel": 0,
      "note": 62,
      "start": 34.5762,
      "duration": 1.234,
      "velocity": 105,
      "chip": "ym2612"
    },
    {
      "channel": 1,
      "note": 46,
      "start": 34.5771,
      "duration": 0.1517,
      "velocity": 99,
      "chip": "ym2612"
    },
    {
      "channel": 5,
      "note": 91,
      "start": 34.5782,
      "duration": 0.1512,
      "velocity": 100,
      "chip": "ym2612"
    },
    {
      "channel": 2,
      "note": 68,
      "start": 34.5791,
      "duration": 0.1464,
      "velocity": 127,
      "chip": "ym2612"
    },
    {
      "channel": 5,
      "note": 92,
      "start": 34.73,
      "duration": 0.1542,
      "velocity": 100,
      "chip": "ym2612"
    },
    {
      "channel": 2,
      "note": 68,
      "start": 34.7309,
      "duration": 0.149,
      "velocity": 127,
      "chip": "ym2612"
    },
    {
      "channel": 1,
      "note": 46,
      "start": 34.8837,
      "duration": 0.3099,
      "velocity": 99,
      "chip": "ym2612"
    },
    {
      "channel": 5,
      "note": 91,
      "start": 34.8848,
      "duration": 0.1534,
      "velocity": 100,
      "chip": "ym2612"
    },
    {
      "channel": 2,
      "note": 75,
      "start": 34.8857,
      "duration": 0.1486,
      "velocity": 120,
      "chip": "ym2612"
    },
    {
      "channel": 5,
      "note": 89,
      "start": 35.0402,
      "duration": 0.1556,
      "velocity": 100,
      "chip": "ym2612"
    },
    {
      "channel": 2,
      "note": 68,
      "start": 35.0411,
      "duration": 0.1493,
      "velocity": 127,
      "chip": "ym2612"
    },
    {
      "channel": 1,
      "note": 53,
      "start": 35.1942,
      "duration": 0.1522,
      "velocity": 99,
      "chip": "ym2612"
    },
    {
      "channel": 3,
      "note": 65,
      "start": 35.1949,
      "duration": 0.6165,
      "velocity": 92,
      "chip": "ym2612"
    },
    {
      "channel": 4,
      "note": 62,
      "start": 35.1957,
      "duration": 0.6165,
      "velocity": 92,
      "chip": "ym2612"
    },
    {
      "channel": 5,
      "note": 86,
      "start": 35.1965,
      "duration": 0.151,
      "velocity": 100,
      "chip": "ym2612"
    },
    {
      "channel": 2,
      "note": 68,
      "start": 35.1973,
      "duration": 0.1458,
      "velocity": 127,
      "chip": "ym2612"
    },
    {
      "channel": 1,
      "note": 56,
      "start": 35.3469,
      "duration": 0.1538,
      "velocity": 99,
      "chip": "ym2612"
    },
    {
      "channel": 5,
      "note": 86,
      "start": 35.3481,
      "duration": 0.1538,
      "velocity": 100,
      "chip": "ym2612"
    },
    {
      "channel": 2,
      "note": 68,
      "start": 35.349,
      "duration": 0.1485,
      "velocity": 127,
      "chip": "ym2612"
    },
    {
      "channel": 1,
      "note": 58,
      "start": 35.5014,
      "duration": 0.1551,
      "velocity": 99,
      "chip": "ym2612"
    },
    {
      "channel": 5,
      "note": 84,
      "start": 35.5025,
      "duration": 0.155,
      "velocity": 100,
      "chip": "ym2612"
    },
    {
      "channel": 2,
      "note": 75,
      "start": 35.5033,
      "duration": 0.1485,
      "velocity": 120,
      "chip": "ym2612"
    },
    {
      "channel": 1,
      "note": 56,
      "start": 35.657,
      "duration": 0.3067,
      "velocity": 99,
      "chip": "ym2612"
    },
    {
      "channel": 5,
      "note": 80,
      "start": 35.6582,
      "duration": 0.1547,
      "velocity": 100,
      "chip": "ym2612"
    },
    {
      "channel": 2,
      "note": 68,
      "start": 35.659,
      "duration": 0.1485,
      "velocity": 127,
      "chip": "ym2612"
    },
    {
      "channel": 0,
      "note": 74,
      "start": 35.8109,
      "duration": 1.2335,
      "velocity": 105,
      "chip": "ym2612"
    },
    {
      "channel": 3,
      "note": 62,
      "start": 35.812,
      "duration": 0.6165,
      "velocity": 92,
      "chip": "ym2612"
    },
    {
      "channel": 4,
      "note": 56,
      "start": 35.8128,
      "duration": 0.6164,
      "velocity": 92,
      "chip": "ym2612"
    },
    {
      "channel": 5,
      "note": 86,
      "start": 35.8135,
      "duration": 0.1514,
      "velocity": 100,
      "chip": "ym2612"
    },
    {
      "channel": 2,
      "note": 68,
      "start": 35.8144,
      "duration": 0.1462,
      "velocity": 127,
      "chip": "ym2612"
    },
    {
      "channel": 1,
      "note": 58,
      "start": 35.9644,
      "duration": 0.1538,
      "velocity": 99,
      "chip": "ym2612"
    },
    {
      "channel": 5,
      "note": 86,
      "start": 35.9655,
      "duration": 0.1538,
      "velocity": 100,
      "chip": "ym2612"
    },
    {
      "channel": 2,
      "note": 68,
      "start": 35.9664,
      "duration": 0.1487,
      "velocity": 127,
      "chip": "ym2612"
    },
    {
      "channel": 1,
      "note": 53,
      "start": 36.1187,
      "duration": 0.1553,
      "velocity": 99,
      "chip": "ym2612"
    },
    {
      "channel": 5,
      "note": 84,
      "start": 36.1199,
      "duration": 0.1552,
      "velocity": 100,
      "chip": "ym2612"
    },
    {
      "channel": 2,
      "note": 75,
      "start": 36.1208,
      "duration": 0.1487,
      "velocity": 120,
      "chip": "ym2612"
    },
    {
      "channel": 1,
      "note": 56,
      "start": 36.2746,
      "duration": 0.1531,
      "velocity": 99,
      "chip": "ym2612"
    },
    {
      "channel": 5,
      "note": 80,
      "start": 36.2757,
      "duration": 0.1542,
      "velocity": 100,
      "chip": "ym2612"
    },
    {
      "channel": 2,
      "note": 68,
      "start": 36.2766,
      "duration": 0.1479,
      "velocity": 127,
      "chip": "ym2612"
    },
    {
      "channel": 1,
      "note": 51,
      "start": 36.4283,
      "duration": 0.1532,
      "velocity": 99,
      "chip": "ym2612"
    },
    {
      "channel": 3,
      "note": 56,
      "start": 36.429,
      "duration": 0.6171,
      "velocity": 92,
      "chip": "ym2612"
    },
    {
      "channel": 4,
      "note": 53,
      "start": 36.4298,
      "duration": 0.6171,
      "velocity": 92,
      "chip": "ym2612"
    },
    {
      "channel": 5,
      "note": 86,
      "start": 36.4305,
      "duration": 0.6171,
      "velocity": 100,
      "chip": "ym2612"
    },
    {
      "channel": 2,
      "note": 68,
      "start": 36.4313,
      "duration": 0.1469,
      "velocity": 127,
      "chip": "ym2612"
    },
    {
      "channel": 1,
      "note": 53,
      "start": 36.5821,
      "duration": 0.1538,
      "velocity": 99,
      "chip": "ym2612"
    },
    {
      "channel": 2,
      "note": 68,
      "start": 36.5837,
      "duration": 0.1489,
      "velocity": 127,
      "chip": "ym2612"
    },
    {
      "channel": 1,
      "note": 48,
      "start": 36.7364,
      "duration": 0.1551,
      "velocity": 99,
      "chip": "ym2612"
    },
    {
      "channel": 2,
      "note": 75,
      "start": 36.738,
      "duration": 0.1489,
      "velocity": 120,
      "chip": "ym2612"
    },
    {
      "channel": 1,
      "note": 44,
      "start": 36.8921,
      "duration": 0.1533,
      "velocity": 99,
      "chip": "ym2612"
    },
    {
      "channel": 2,
      "note": 68,
      "start": 36.8937,
      "duration": 0.148,
      "velocity": 127,
      "chip": "ym2612"
    },
    {
      "channel": 0,
      "note": 68,
      "start": 37.0451,
      "duration": 0.1534,
      "velocity": 105,
      "chip": "ym2612"
    },
    {
      "channel": 1,
      "note": 46,
      "start": 37.046,
      "duration": 0.1534,
      "velocity": 99,
      "chip": "ym2612"
    },
    {
      "channel": 3,
      "note": 53,
      "start": 37.0467,
      "duration": 0.6165,
      "velocity": 92,
      "chip": "ym2612"
    },
    {
      "channel": 4,
      "note": 50,
      "start": 37.0474,
      "duration": 0.6164,
      "velocity": 92,
      "chip": "ym2612"
    },
    {
      "channel": 5,
      "note": 91,
      "start": 37.0482,
      "duration": 0.1518,
      "velocity": 100,
      "chip": "ym2612"
    },
    {
      "channel": 2,
      "note": 68,
      "start": 37.049,
      "duration": 0.1467,
      "velocity": 127,
      "chip": "ym2612"
    },
    {
      "channel": 0,
      "note": 70,
      "start": 37.1992,
      "duration": 0.1537,
      "velocity": 105,
      "chip": "ym2612"
    },
    {
      "channel": 5,
      "note": 92,
      "start": 37.2006,
      "duration": 0.1542,
      "velocity": 100,
      "chip": "ym2612"
    },
    {
      "channel": 2,
      "note": 68,
      "start": 37.2015,
      "duration": 0.1486,
      "velocity": 127,
      "chip": "ym2612"
    },
    {
      "channel": 0,
      "note": 72,
      "start": 37.3536,
      "duration": 0.1551,
      "velocity": 105,
      "chip": "ym2612"
    },
    {
      "channel": 1,
      "note": 46,
      "start": 37.3543,
      "duration": 0.3081,
      "velocity": 99,
      "chip": "ym2612"
    },
    {
      "channel": 5,
      "note": 91,
      "start": 37.3568,
      "duration": 0.1534,
      "velocity": 100,
      "chip": "ym2612"
    },
    {
      "channel": 2,
      "note": 75,
      "start": 37.3576,
      "duration": 0.1469,
      "velocity": 120,
      "chip": "ym2612"
    },
    {
      "channel": 0,
      "note": 74,
      "start": 37.5094,
      "duration": 0.3067,
      "velocity": 105,
      "chip": "ym2612"
    },
    {
      "channel": 5,
      "note": 89,
      "start": 37.5108,
      "duration": 0.1538,
      "velocity": 100,
      "chip": "ym2612"
    },
    {
      "channel": 2,
      "note": 68,
      "start": 37.5117,
      "duration": 0.1475,
      "velocity": 127,
      "chip": "ym2612"
    },
    {
      "channel": 1,
      "note": 53,
      "start": 37.6629,
      "duration": 0.1539,
      "velocity": 99,
      "chip": "ym2612"
    },
    {
      "channel": 3,
      "note": 65,
      "start": 37.6637,
      "duration": 0.6165,
      "velocity": 92,
      "chip": "ym2612"
    },
    {
      "channel": 4,
      "note": 62,
      "start": 37.6644,
      "duration": 0.6166,
      "velocity": 92,
      "chip": "ym2612"
    },
    {
      "channel": 5,
      "note": 86,
      "start": 37.6652,
      "duration": 0.1529,
      "velocity": 100,
      "chip": "ym2612"
    },
    {
      "channel": 2,
      "note": 68,
      "start": 37.6661,
      "duration": 0.1472,
      "velocity": 127,
      "chip": "ym2612"
    },
    {
      "channel": 0,
      "note": 72,
      "start": 37.8168,
      "duration": 0.1538,
      "velocity": 105,
      "chip": "ym2612"
    },
    {
      "channel": 1,
      "note": 56,
      "start": 37.8175,
      "duration": 0.1539,
      "velocity": 99,
      "chip": "ym2612"
    },
    {
      "channel": 5,
      "note": 86,
      "start": 37.8186,
      "duration": 0.1552,
      "velocity": 100,
      "chip": "ym2612"
    },
    {
      "channel": 2,
      "note": 68,
      "start": 37.8195,
      "duration": 0.1482,
      "velocity": 127,
      "chip": "ym2612"
    },
    {
      "channel": 0,
      "note": 70,
      "start": 37.9712,
      "duration": 0.1551,
      "velocity": 105,
      "chip": "ym2612"
    },
    {
      "channel": 1,
      "note": 58,
      "start": 37.9732,
      "duration": 0.1539,
      "velocity": 99,
      "chip": "ym2612"
    },
    {
      "channel": 5,
      "note": 84,
      "start": 37.9744,
      "duration": 0.1538,
      "velocity": 100,
      "chip": "ym2612"
    },
    {
      "channel": 2,
      "note": 75,
      "start": 37.9753,
      "duration": 0.1482,
      "velocity": 120,
      "chip": "ym2612"
    },
    {
      "channel": 0,
      "note": 68,
      "start": 38.127,
      "duration": 0.4611,
      "velocity": 105,
      "chip": "ym2612"
    },
    {
      "channel": 1,
      "note": 56,
      "start": 38.1277,
      "duration": 0.3063,
      "velocity": 99,
      "chip": "ym2612"
    },
    {
      "channel": 5,
      "note": 80,
      "start": 38.1288,
      "duration": 0.1529,
      "velocity": 100,
      "chip": "ym2612"
    },
    {
      "channel": 2,
      "note": 68,
      "start": 38.1297,
      "duration": 0.1471,
      "velocity": 127,
      "chip": "ym2612"
    },
    {
      "channel": 3,
      "note": 62,
      "start": 38.2808,
      "duration": 0.6178,
      "velocity": 92,
      "chip": "ym2612"
    },
    {
      "channel": 4,
      "note": 56,
      "start": 38.2816,
      "duration": 0.6178,
      "velocity": 92,
      "chip": "ym2612"
    },
    {
      "channel": 5,
      "note": 86,
      "start": 38.2824,
      "duration": 0.1527,
      "velocity": 100,
      "chip": "ym2612"
    },
    {
      "channel": 2,
      "note": 68,
      "start": 38.2832,
      "duration": 0.1476,
      "velocity": 127,
      "chip": "ym2612"
    },
    {
      "channel": 1,
      "note": 58,
      "start": 38.4346,
      "duration": 0.1556,
      "velocity": 99,
      "chip": "ym2612"
    },
    {
      "channel": 5,
      "note": 86,
      "start": 38.4357,
      "duration": 0.1556,
      "velocity": 100,
      "chip": "ym2612"
    },
    {
      "channel": 2,
      "note": 68,
      "start": 38.4366,
      "duration": 0.1487,
      "velocity": 127,
      "chip": "ym2612"
    },
    {
      "channel": 0,
      "note": 70,
      "start": 38.5901,
      "duration": 0.1531,
      "velocity": 105,
      "chip": "ym2612"
    },
    {
      "channel": 1,
      "note": 53,
      "start": 38.5908,
      "duration": 0.1532,
      "velocity": 99,
      "chip": "ym2612"
    },
    {
      "channel": 5,
      "note": 84,
      "start": 38.592,
      "duration": 0.1532,
      "velocity": 100,
      "chip": "ym2612"
    },
    {
      "channel": 2,
      "note": 75,
      "start": 38.5928,
      "duration": 0.1476,
      "velocity": 120,
      "chip": "ym2612"
    },
    {
      "channel": 0,
      "note": 65,
      "start": 38.7439,
      "duration": 0.1532,
      "velocity": 105,
      "chip": "ym2612"
    },
    {
      "channel": 1,
      "note": 56,
      "start": 38.7446,
      "duration": 0.1533,
      "velocity": 99,
      "chip": "ym2612"
    },
    {
      "channel": 5,
      "note": 80,
      "start": 38.7457,
      "duration": 0.1544,
      "velocity": 100,
      "chip": "ym2612"
    },
    {
      "channel": 2,
      "note": 68,
      "start": 38.7466,
      "duration": 0.1477,
      "velocity": 127,
      "chip": "ym2612"
    },
    {
      "channel": 0,
      "note": 68,
      "start": 38.8977,
      "duration": 0.1535,
      "velocity": 105,
      "chip": "ym2612"
    },
    {
      "channel": 1,
      "note": 51,
      "start": 38.8985,
      "duration": 0.1536,
      "velocity": 99,
      "chip": "ym2612"
    },
    {
      "channel": 3,
      "note": 56,
      "start": 38.8992,
      "duration": 0.6171,
      "velocity": 92,
      "chip": "ym2612"
    },
    {
      "channel": 4,
      "note": 53,
      "start": 38.9,
      "duration": 0.6171,
      "velocity": 92,
      "chip": "ym2612"
    },
    {
      "channel": 5,
      "note": 86,
      "start": 38.9007,
      "duration": 0.6171,
      "velocity": 100,
      "chip": "ym2612"
    },
    {
      "channel": 2,
      "note": 68,
      "start": 38.9016,
      "duration": 0.1469,
      "velocity": 127,
      "chip": "ym2612"
    },
    {
      "channel": 0,
      "note": 72,
      "start": 39.0519,
      "duration": 0.1551,
      "velocity": 105,
      "chip": "ym2612"
    },
    {
      "channel": 1,
      "note": 53,
      "start": 39.0527,
      "duration": 0.1551,
      "velocity": 99,
      "chip": "ym2612"
    },
    {
      "channel": 2,
      "note": 68,
      "start": 39.0542,
      "duration": 0.1485,
      "velocity": 127,
      "chip": "ym2612"
    },
    {
      "channel": 0,
      "note": 70,
      "start": 39.2077,
      "duration": 0.1524,
      "velocity": 105,
      "chip": "ym2612"
    },
    {
      "channel": 1,
      "note": 48,
      "start": 39.2084,
      "duration": 0.1525,
      "velocity": 99,
      "chip": "ym2612"
    },
    {
      "channel": 2,
      "note": 75,
      "start": 39.21,
      "duration": 0.1473,
      "velocity": 120,
      "chip": "ym2612"
    },
    {
      "channel": 0,
      "note": 68,
      "start": 39.3607,
      "duration": 0.1539,
      "velocity": 105,
      "chip": "ym2612"
    },
    {
      "channel": 1,
      "note": 44,
      "start": 39.3614,
      "duration": 0.1542,
      "velocity": 99,
      "chip": "ym2612"
    },
    {
      "channel": 2,
      "note": 68,
      "start": 39.363,
      "duration": 0.1488,
      "velocity": 127,
      "chip": "ym2612"
    },
    {
      "channel": 0,
      "note": 69,
      "start": 39.5154,
      "duration": 0.1534,
      "velocity": 105,
      "chip": "ym2612"
    },
    {
      "channel": 1,
      "note": 45,
      "start": 39.5162,
      "duration": 0.1534,
      "velocity": 99,
      "chip": "ym2612"
    },
    {
      "channel": 3,
      "note": 52,
      "start": 39.5169,
      "duration": 1.2338,
      "velocity": 92,
      "chip": "ym2612"
    },
    {
      "channel": 4,
      "note": 49,
      "start": 39.5177,
      "duration": 1.2338,
      "velocity": 92,
      "chip": "ym2612"
    },
    {
      "channel": 5,
      "note": 93,
      "start": 39.5184,
      "duration": 0.308,
      "velocity": 100,
      "chip": "ym2612"
    },
    {
      "channel": 2,
      "note": 68,
      "start": 39.5193,
      "duration": 0.1466,
      "velocity": 127,
      "chip": "ym2612"
    },
    {
      "channel": 0,
      "note": 68,
      "start": 39.6694,
      "duration": 0.1551,
      "velocity": 105,
      "chip": "ym2612"
    },
    {
      "channel": 2,
      "note": 68,
      "start": 39.6713,
      "duration": 0.149,
      "velocity": 127,
      "chip": "ym2612"
    },
    {
      "channel": 0,
      "note": 69,
      "start": 39.8252,
      "duration": 0.1524,
      "velocity": 105,
      "chip": "ym2612"
    },
    {
      "channel": 1,
      "note": 45,
      "start": 39.8259,
      "duration": 0.3067,
      "velocity": 99,
      "chip": "ym2612"
    },
    {
      "channel": 5,
      "note": 91,
      "start": 39.8271,
      "duration": 0.152,
      "velocity": 100,
      "chip": "ym2612"
    },
    {
      "channel": 2,
      "note": 75,
      "start": 39.828,
      "duration": 0.1468,
      "velocity": 120,
      "chip": "ym2612"
    },
    {
      "channel": 0,
      "note": 81,
      "start": 39.9783,
      "duration": 1.0816,
      "velocity": 105,
      "chip": "ym2612"
    },
    {
      "channel": 5,
      "note": 93,
      "start": 39.9798,
      "duration": 0.154,
      "velocity": 100,
      "chip": "ym2612"
    },
    {
      "channel": 2,
      "note": 68,
      "start": 39.9806,
      "duration": 0.1488,
      "velocity": 127,
      "chip": "ym2612"
    },
    {
      "channel": 1,
      "note": 57,
      "start": 40.1332,
      "duration": 0.1535,
      "velocity": 99,
      "chip": "ym2612"
    },
    {
      "channel": 5,
      "note": 88,
      "start": 40.1343,
      "duration": 0.1534,
      "velocity": 100,
      "chip": "ym2612"
    },
    {
      "channel": 2,
      "note": 68,
      "start": 40.1352,
      "duration": 0.1483,
      "velocity": 127,
      "chip": "ym2612"
    },
    {
      "channel": 1,
      "note": 52,
      "start": 40.2873,
      "duration": 0.1556,
      "velocity": 99,
      "chip": "ym2612"
    },
    {
      "channel": 5,
      "note": 91,
      "start": 40.2897,
      "duration": 0.1543,
      "velocity": 100,
      "chip": "ym2612"
    },
    {
      "channel": 2,
      "note": 68,
      "start": 40.2905,
      "duration": 0.1491,
      "velocity": 127,
      "chip": "ym2612"
    },
    {
      "channel": 1,
      "note": 55,
      "start": 40.4434,
      "duration": 0.1522,
      "velocity": 99,
      "chip": "ym2612"
    },
    {
      "channel": 5,
      "note": 86,
      "start": 40.4446,
      "duration": 0.1522,
      "velocity": 100,
      "chip": "ym2612"
    },
    {
      "channel": 2,
      "note": 75,
      "start": 40.4454,
      "duration": 0.1469,
      "velocity": 120,
      "chip": "ym2612"
    },
    {
      "channel": 1,
      "note": 57,
      "start": 40.5961,
      "duration": 0.3082,
      "velocity": 99,
      "chip": "ym2612"
    },
    {
      "channel": 5,
      "note": 88,
      "start": 40.5973,
      "duration": 0.1548,
      "velocity": 100,
      "chip": "ym2612"
    },
    {
      "channel": 2,
      "note": 68,
      "start": 40.5982,
      "duration": 0.1489,
      "velocity": 127,
      "chip": "ym2612"
    },
    {
      "channel": 3,
      "note": 64,
      "start": 40.7512,
      "duration": 1.2354,
      "velocity": 92,
      "chip": "ym2612"
    },
    {
      "channel": 4,
      "note": 61,
      "start": 40.752,
      "duration": 1.2354,
      "velocity": 92,
      "chip": "ym2612"
    },
    {
      "channel": 5,
      "note": 85,
      "start": 40.7528,
      "duration": 0.1541,
      "velocity": 100,
      "chip": "ym2612"
    },
    {
      "channel": 2,
      "note": 68,
      "start": 40.7536,
      "duration": 0.1475,
      "velocity": 127,
      "chip": "ym2612"
    },
    {
      "channel": 1,
      "note": 52,
      "start": 40.9049,
      "duration": 0.1558,
      "velocity": 99,
      "chip": "ym2612"
    },
    {
      "channel": 5,
      "note": 88,
      "start": 40.9074,
      "duration": 0.1544,
      "velocity": 100,
      "chip": "ym2612"
    },
    {
      "channel": 2,
      "note": 68,
      "start": 40.9083,
      "duration": 0.1488,
      "velocity": 127,
      "chip": "ym2612"
    },
    {
      "channel": 0,
      "note": 79,
      "start": 41.0606,
      "duration": 0.1521,
      "velocity": 105,
      "chip": "ym2612"
    },
    {
      "channel": 1,
      "note": 55,
      "start": 41.0613,
      "duration": 0.1522,
      "velocity": 99,
      "chip": "ym2612"
    },
    {
      "channel": 5,
      "note": 81,
      "start": 41.0624,
      "duration": 0.1522,
      "velocity": 100,
      "chip": "ym2612"
    },
    {
      "channel": 2,
      "note": 75,
      "start": 41.0633,
      "duration": 0.1466,
      "velocity": 120,
      "chip": "ym2612"
    },
    {
      "channel": 0,
      "note": 81,
      "start": 41.2134,
      "duration": 0.154,
      "velocity": 105,
      "chip": "ym2612"
    },
    {
      "channel": 1,
      "note": 57,
      "start": 41.2141,
      "duration": 0.7718,
      "velocity": 99,
      "chip": "ym2612"
    },
    {
      "channel": 5,
      "note": 85,
      "start": 41.2152,
      "duration": 0.1537,
      "velocity": 100,
      "chip": "ym2612"
    },
    {
      "channel": 2,
      "note": 68,
      "start": 41.2161,
      "duration": 0.1485,
      "velocity": 127,
      "chip": "ym2612"
    },
    {
      "channel": 0,
      "note": 76,
      "start": 41.368,
      "duration": 0.1534,
      "velocity": 105,
      "chip": "ym2612"
    },
    {
      "channel": 5,
      "note": 79,
      "start": 41.3695,
      "duration": 0.1548,
      "velocity": 100,
      "chip": "ym2612"
    },
    {
      "channel": 2,
      "note": 68,
      "start": 41.3704,
      "duration": 0.1483,
      "velocity": 127,
      "chip": "ym2612"
    },
    {
      "channel": 0,
      "note": 79,
      "start": 41.5234,
      "duration": 0.1528,
      "velocity": 105,
      "chip": "ym2612"
    },
    {
      "channel": 5,
      "note": 81,
      "start": 41.525,
      "duration": 0.1529,
      "velocity": 100,
      "chip": "ym2612"
    },
    {
      "channel": 2,
      "note": 68,
      "start": 41.5258,
      "duration": 0.1476,
      "velocity": 127,
      "chip": "ym2612"
    },
    {
      "channel": 0,
      "note": 73,
      "start": 41.6769,
      "duration": 0.308,
      "velocity": 105,
      "chip": "ym2612"
    },
    {
      "channel": 5,
      "note": 76,
      "start": 41.6784,
      "duration": 0.1529,
      "velocity": 100,
      "chip": "ym2612"
    },
    {
      "channel": 2,
      "note": 75,
      "start": 41.6793,
      "duration": 0.1481,
      "velocity": 120,
      "chip": "ym2612"
    },
    {
      "channel": 5,
      "note": 79,
      "start": 41.8319,
      "duration": 0.1562,
      "velocity": 100,
      "chip": "ym2612"
    },
    {
      "channel": 2,
      "note": 68,
      "start": 41.8327,
      "duration": 0.1494,
      "velocity": 127,
      "chip": "ym2612"
    },
    {
      "channel": 0,
      "note": 69,
      "start": 41.9856,
      "duration": 0.1548,
      "velocity": 105,
      "chip": "ym2612"
    },
    {
      "channel": 1,
      "note": 45,
      "start": 41.9865,
      "duration": 0.1548,
      "velocity": 99,
      "chip": "ym2612"
    },
    {
      "channel": 3,
      "note": 52,
      "start": 41.9872,
      "duration": 1.2335,
      "velocity": 92,
      "chip": "ym2612"
    },
    {
      "channel": 4,
      "note": 49,
      "start": 41.9879,
      "duration": 1.2335,
      "velocity": 92,
      "chip": "ym2612"
    },
    {
      "channel": 5,
      "note": 93,
      "start": 41.99,
      "duration": 0.3053,
      "velocity": 100,
      "chip": "ym2612"
    },
    {
      "channel": 2,
      "note": 68,
      "start": 41.9909,
      "duration": 0.1454,
      "velocity": 127,
      "chip": "ym2612"
    },
    {
      "channel": 0,
      "note": 68,
      "start": 42.1411,
      "duration": 0.1524,
      "velocity": 105,
      "chip": "ym2612"
    },
    {
      "channel": 2,
      "note": 68,
      "start": 42.143,
      "duration": 0.1476,
      "velocity": 127,
      "chip": "ym2612"
    },
    {
      "channel": 0,
      "note": 69,
      "start": 42.2941,
      "duration": 0.1537,
      "velocity": 105,
      "chip": "ym2612"
    },
    {
      "channel": 1,
      "note": 45,
      "start": 42.2948,
      "duration": 0.308,
      "velocity": 99,
      "chip": "ym2612"
    },
    {
      "channel": 5,
      "note": 91,
      "start": 42.296,
      "duration": 0.1534,
      "velocity": 100,
      "chip": "ym2612"
    },
    {
      "channel": 2,
      "note": 75,
      "start": 42.2968,
      "duration": 0.1482,
      "velocity": 120,
      "chip": "ym2612"
    },
    {
      "channel": 0,
      "note": 81,
      "start": 42.4485,
      "duration": 1.08,
      "velocity": 105,
      "chip": "ym2612"
    },
    {
      "channel": 5,
      "note": 93,
      "start": 42.45,
      "duration": 0.154,
      "velocity": 100,
      "chip": "ym2612"
    },
    {
      "channel": 2,
      "note": 68,
      "start": 42.4509,
      "duration": 0.1488,
      "velocity": 127,
      "chip": "ym2612"
    },
    {
      "channel": 1,
      "note": 57,
      "start": 42.6034,
      "duration": 0.1548,
      "velocity": 99,
      "chip": "ym2612"
    },
    {
      "channel": 5,
      "note": 88,
      "start": 42.6046,
      "duration": 0.1548,
      "velocity": 100,
      "chip": "ym2612"
    },
    {
      "channel": 2,
      "note": 68,
      "start": 42.6068,
      "duration": 0.147,
      "velocity": 127,
      "chip": "ym2612"
    },
    {
      "channel": 1,
      "note": 52,
      "start": 42.7588,
      "duration": 0.1525,
      "velocity": 99,
      "chip": "ym2612"
    },
    {
      "channel": 5,
      "note": 91,
      "start": 42.76,
      "duration": 0.1525,
      "velocity": 100,
      "chip": "ym2612"
    },
    {
      "channel": 2,
      "note": 68,
      "start": 42.7608,
      "duration": 0.1474,
      "velocity": 127,
      "chip": "ym2612"
    },
    {
      "channel": 1,
      "note": 55,
      "start": 42.9119,
      "duration": 0.1539,
      "velocity": 99,
      "chip": "ym2612"
    },
    {
      "channel": 5,
      "note": 86,
      "start": 42.9131,
      "duration": 0.1539,
      "velocity": 100,
      "chip": "ym2612"
    },
    {
      "channel": 2,
      "note": 75,
      "start": 42.914,
      "duration": 0.1486,
      "velocity": 120,
      "chip": "ym2612"
    },
    {
      "channel": 1,
      "note": 57,
      "start": 43.0664,
      "duration": 0.3095,
      "velocity": 99,
      "chip": "ym2612"
    },
    {
      "channel": 5,
      "note": 88,
      "start": 43.0675,
      "duration": 0.156,
      "velocity": 100,
      "chip": "ym2612"
    },
    {
      "channel": 2,
      "note": 68,
      "start": 43.0684,
      "duration": 0.1487,
      "velocity": 127,
      "chip": "ym2612"
    },
    {
      "channel": 3,
      "note": 64,
      "start": 43.2213,
      "duration": 1.2453,
      "velocity": 100,
      "chip": "ym2612"
    },
    {
      "channel": 4,
      "note": 61,
      "start": 43.2234,
      "duration": 1.2466,
      "velocity": 92,
      "chip": "ym2612"
    },
    {
      "channel": 5,
      "note": 85,
      "start": 43.2241,
      "duration": 0.1529,
      "velocity": 100,
      "chip": "ym2612"
    },
    {
      "channel": 2,
      "note": 68,
      "start": 43.225,
      "duration": 0.1464,
      "velocity": 127,
      "chip": "ym2612"
    },
    {
      "channel": 1,
      "note": 52,
      "start": 43.3766,
      "duration": 0.1528,
      "velocity": 99,
      "chip": "ym2612"
    },
    {
      "channel": 5,
      "note": 88,
      "start": 43.3777,
      "duration": 0.1528,
      "velocity": 100,
      "chip": "ym2612"
    },
    {
      "channel": 2,
      "note": 79,
      "start": 43.3787,
      "duration": 0.1471,
      "velocity": 120,
      "chip": "ym2612"
    },
    {
      "channel": 0,
      "note": 79,
      "start": 43.5292,
      "duration": 0.1536,
      "velocity": 105,
      "chip": "ym2612"
    },
    {
      "channel": 1,
      "note": 55,
      "start": 43.5299,
      "duration": 0.1538,
      "velocity": 99,
      "chip": "ym2612"
    },
    {
      "channel": 5,
      "note": 81,
      "start": 43.5311,
      "duration": 0.1538,
      "velocity": 100,
      "chip": "ym2612"
    },
    {
      "channel": 2,
      "note": 79,
      "start": 43.5321,
      "duration": 0.148,
      "velocity": 120,
      "chip": "ym2612"
    },
    {
      "channel": 0,
      "note": 81,
      "start": 43.6836,
      "duration": 0.1537,
      "velocity": 105,
      "chip": "ym2612"
    },
    {
      "channel": 1,
      "note": 57,
      "start": 43.6843,
      "duration": 0.7784,
      "velocity": 99,
      "chip": "ym2612"
    },
    {
      "channel": 5,
      "note": 85,
      "start": 43.6855,
      "duration": 0.1547,
      "velocity": 100,
      "chip": "ym2612"
    },
    {
      "channel": 2,
      "note": 74,
      "start": 43.6863,
      "duration": 0.1481,
      "velocity": 120,
      "chip": "ym2612"
    },
    {
      "channel": 0,
      "note": 76,
      "start": 43.8379,
      "duration": 0.1549,
      "velocity": 105,
      "chip": "ym2612"
    },
    {
      "channel": 5,
      "note": 79,
      "start": 43.8408,
      "duration": 0.1536,
      "velocity": 100,
      "chip": "ym2612"
    },
    {
      "channel": 2,
      "note": 74,
      "start": 43.8416,
      "duration": 0.1484,
      "velocity": 120,
      "chip": "ym2612"
    },
    {
      "channel": 0,
      "note": 79,
      "start": 43.9935,
      "duration": 0.1526,
      "velocity": 105,
      "chip": "ym2612"
    },
    {
      "channel": 5,
      "note": 81,
      "start": 43.995,
      "duration": 0.1527,
      "velocity": 100,
      "chip": "ym2612"
    },
    {
      "channel": 2,
      "note": 74,
      "start": 43.9959,
      "duration": 0.1474,
      "velocity": 120,
      "chip": "ym2612"
    },
    {
      "channel": 0,
      "note": 73,
      "start": 44.1468,
      "duration": 0.3125,
      "velocity": 105,
      "chip": "ym2612"
    },
    {
      "channel": 5,
      "note": 76,
      "start": 44.1483,
      "duration": 0.1533,
      "velocity": 100,
      "chip": "ym2612"
    },
    {
      "channel": 2,
      "note": 69,
      "start": 44.1493,
      "duration": 0.1483,
      "velocity": 120,
      "chip": "ym2612"
    },
    {
      "channel": 5,
      "note": 79,
      "start": 44.3021,
      "duration": 0.1731,
      "velocity": 105,
      "chip": "ym2612"
    },
    {
      "channel": 2,
      "note": 69,
      "start": 44.3032,
      "duration": 0.1494,
      "velocity": 120,
      "chip": "ym2612"
    },
    {
      "channel": 0,
      "note": 62,
      "start": 44.4599,
      "duration": 0.1497,
      "velocity": 105,
      "chip": "ym2612"
    },
    {
      "channel": 1,
      "note": 50,
      "start": 44.4633,
      "duration": 0.1471,
      "velocity": 99,
      "chip": "ym2612"
    },
    {
      "channel": 3,
      "note": 77,
      "start": 44.4672,
      "duration": 0.1434,
      "velocity": 100,
      "chip": "ym2612"
    },
    {
      "channel": 4,
      "note": 65,
      "start": 44.4706,
      "duration": 2.4577,
      "velocity": 92,
      "chip": "ym2612"
    },
    {
      "channel": 5,
      "note": 57,
      "start": 44.4759,
      "duration": 0.1358,
      "velocity": 105,
      "chip": "ym2612"
    },
    {
      "channel": 2,
      "note": 68,
      "start": 44.4767,
      "duration": 0.1301,
      "velocity": 127,
      "chip": "ym2612"
    },
    {
      "channel": 0,
      "note": 64,
      "start": 44.6102,
      "duration": 0.1534,
      "velocity": 105,
      "chip": "ym2612"
    },
    {
      "channel": 3,
      "note": 81,
      "start": 44.6113,
      "duration": 0.1539,
      "velocity": 100,
      "chip": "ym2612"
    },
    {
      "channel": 5,
      "note": 60,
      "start": 44.6122,
      "duration": 0.1539,
      "velocity": 105,
      "chip": "ym2612"
    },
    {
      "channel": 2,
      "note": 68,
      "start": 44.6131,
      "duration": 0.1477,
      "velocity": 127,
      "chip": "ym2612"
    },
    {
      "channel": 0,
      "note": 65,
      "start": 44.7643,
      "duration": 0.1537,
      "velocity": 105,
      "chip": "ym2612"
    },
    {
      "channel": 1,
      "note": 50,
      "start": 44.765,
      "duration": 0.3094,
      "velocity": 99,
      "chip": "ym2612"
    },
    {
      "channel": 3,
      "note": 76,
      "start": 44.7657,
      "duration": 0.1534,
      "velocity": 100,
      "chip": "ym2612"
    },
    {
      "channel": 5,
      "note": 62,
      "start": 44.7666,
      "duration": 0.1534,
      "velocity": 105,
      "chip": "ym2612"
    },
    {
      "channel": 2,
      "note": 75,
      "start": 44.7675,
      "duration": 0.1476,
      "velocity": 120,
      "chip": "ym2612"
    },
    {
      "channel": 0,
      "note": 67,
      "start": 44.9187,
      "duration": 0.3082,
      "velocity": 105,
      "chip": "ym2612"
    },
    {
      "channel": 3,
      "note": 81,
      "start": 44.9198,
      "duration": 0.1554,
      "velocity": 100,
      "chip": "ym2612"
    },
    {
      "channel": 5,
      "note": 64,
      "start": 44.9207,
      "duration": 0.3086,
      "velocity": 105,
      "chip": "ym2612"
    },
    {
      "channel": 2,
      "note": 68,
      "start": 44.9215,
      "duration": 0.1483,
      "velocity": 127,
      "chip": "ym2612"
    },
    {
      "channel": 1,
      "note": 53,
      "start": 45.075,
      "duration": 0.1526,
      "velocity": 99,
      "chip": "ym2612"
    },
    {
      "channel": 3,
      "note": 74,
      "start": 45.0757,
      "duration": 0.1526,
      "velocity": 100,
      "chip": "ym2612"
    },
    {
      "channel": 2,
      "note": 68,
      "start": 45.0771,
      "duration": 0.1469,
      "velocity": 127,
      "chip": "ym2612"
    },
    {
      "channel": 0,
      "note": 69,
      "start": 45.2275,
      "duration": 0.1537,
      "velocity": 105,
      "chip": "ym2612"
    },
    {
      "channel": 1,
      "note": 55,
      "start": 45.2282,
      "duration": 0.1538,
      "velocity": 99,
      "chip": "ym2612"
    },
    {
      "channel": 3,
      "note": 81,
      "start": 45.229,
      "duration": 0.1537,
      "velocity": 100,
      "chip": "ym2612"
    },
    {
      "channel": 5,
      "note": 65,
      "start": 45.2299,
      "duration": 0.1538,
      "velocity": 105,
      "chip": "ym2612"
    },
    {
      "channel": 2,
      "note": 68,
      "start": 45.2307,
      "duration": 0.1477,
      "velocity": 127,
      "chip": "ym2612"
    },
    {
      "channel": 0,
      "note": 72,
      "start": 45.3818,
      "duration": 0.1538,
      "velocity": 105,
      "chip": "ym2612"
    },
    {
      "channel": 1,
      "note": 57,
      "start": 45.3826,
      "duration": 0.1538,
      "velocity": 99,
      "chip": "ym2612"
    },
    {
      "channel": 3,
      "note": 76,
      "start": 45.3834,
      "duration": 0.1538,
      "velocity": 100,
      "chip": "ym2612"
    },
    {
      "channel": 5,
      "note": 69,
      "start": 45.3843,
      "duration": 0.1538,
      "velocity": 105,
      "chip": "ym2612"
    },
    {
      "channel": 2,
      "note": 75,
      "start": 45.3851,
      "duration": 0.1476,
      "velocity": 120,
      "chip": "ym2612"
    },
    {
      "channel": 0,
      "note": 74,
      "start": 45.5362,
      "duration": 0.3081,
      "velocity": 105,
      "chip": "ym2612"
    },
    {
      "channel": 1,
      "note": 45,
      "start": 45.537,
      "duration": 0.1549,
      "velocity": 99,
      "chip": "ym2612"
    },
    {
      "channel": 3,
      "note": 81,
      "start": 45.5378,
      "duration": 0.1549,
      "velocity": 100,
      "chip": "ym2612"
    },
    {
      "channel": 5,
      "note": 69,
      "start": 45.54,
      "duration": 0.3064,
      "velocity": 105,
      "chip": "ym2612"
    },
    {
      "channel": 2,
      "note": 68,
      "start": 45.5409,
      "duration": 0.1465,
      "velocity": 127,
      "chip": "ym2612"
    },
    {
      "channel": 1,
      "note": 50,
      "start": 45.6925,
      "duration": 0.1526,
      "velocity": 99,
      "chip": "ym2612"
    },
    {
      "channel": 3,
      "note": 77,
      "start": 45.6933,
      "duration": 0.1522,
      "velocity": 100,
      "chip": "ym2612"
    },
    {
      "channel": 2,
      "note": 68,
      "start": 45.6947,
      "duration": 0.1468,
      "velocity": 127,
      "chip": "ym2612"
    },
    {
      "channel": 0,
      "note": 76,
      "start": 45.845,
      "duration": 0.1537,
      "velocity": 105,
      "chip": "ym2612"
    },
    {
      "channel": 3,
      "note": 81,
      "start": 45.8461,
      "duration": 0.1543,
      "velocity": 100,
      "chip": "ym2612"
    },
    {
      "channel": 5,
      "note": 72,
      "start": 45.8471,
      "duration": 0.1542,
      "velocity": 105,
      "chip": "ym2612"
    },
    {
      "channel": 2,
      "note": 68,
      "start": 45.8479,
      "duration": 0.1481,
      "velocity": 127,
      "chip": "ym2612"
    },
    {
      "channel": 0,
      "note": 77,
      "start": 45.9995,
      "duration": 0.1538,
      "velocity": 105,
      "chip": "ym2612"
    },
    {
      "channel": 1,
      "note": 50,
      "start": 46.0002,
      "duration": 0.3094,
      "velocity": 99,
      "chip": "ym2612"
    },
    {
      "channel": 3,
      "note": 76,
      "start": 46.0009,
      "duration": 0.1534,
      "velocity": 100,
      "chip": "ym2612"
    },
    {
      "channel": 5,
      "note": 74,
      "start": 46.0019,
      "duration": 0.1548,
      "velocity": 105,
      "chip": "ym2612"
    },
    {
      "channel": 2,
      "note": 75,
      "start": 46.0027,
      "duration": 0.1477,
      "velocity": 120,
      "chip": "ym2612"
    },
    {
      "channel": 0,
      "note": 76,
      "start": 46.1539,
      "duration": 0.3081,
      "velocity": 105,
      "chip": "ym2612"
    },
    {
      "channel": 3,
      "note": 81,
      "start": 46.1563,
      "duration": 0.154,
      "velocity": 100,
      "chip": "ym2612"
    },
    {
      "channel": 5,
      "note": 72,
      "start": 46.1573,
      "duration": 0.3072,
      "velocity": 105,
      "chip": "ym2612"
    },
    {
      "channel": 2,
      "note": 68,
      "start": 46.1581,
      "duration": 0.1483,
      "velocity": 127,
      "chip": "ym2612"
    },
    {
      "channel": 1,
      "note": 53,
      "start": 46.3102,
      "duration": 0.1526,
      "velocity": 99,
      "chip": "ym2612"
    },
    {
      "channel": 3,
      "note": 74,
      "start": 46.3109,
      "duration": 0.1526,
      "velocity": 100,
      "chip": "ym2612"
    },
    {
      "channel": 2,
      "note": 68,
      "start": 46.3123,
      "duration": 0.1469,
      "velocity": 127,
      "chip": "ym2612"
    },
    {
      "channel": 0,
      "note": 74,
      "start": 46.4626,
      "duration": 0.1537,
      "velocity": 105,
      "chip": "ym2612"
    },
    {
      "channel": 1,
      "note": 55,
      "start": 46.4634,
      "duration": 0.1537,
      "velocity": 99,
      "chip": "ym2612"
    },
    {
      "channel": 3,
      "note": 81,
      "start": 46.4641,
      "duration": 0.1538,
      "velocity": 100,
      "chip": "ym2612"
    },
    {
      "channel": 5,
      "note": 69,
      "start": 46.4651,
      "duration": 0.1537,
      "velocity": 105,
      "chip": "ym2612"
    },
    {
      "channel": 2,
      "note": 68,
      "start": 46.4659,
      "duration": 0.1476,
      "velocity": 127,
      "chip": "ym2612"
    },
    {
      "channel": 0,
      "note": 72,
      "start": 46.617,
      "duration": 0.1537,
      "velocity": 105,
      "chip": "ym2612"
    },
    {
      "channel": 1,
      "note": 57,
      "start": 46.6177,
      "duration": 0.1538,
      "velocity": 99,
      "chip": "ym2612"
    },
    {
      "channel": 3,
      "note": 76,
      "start": 46.6185,
      "duration": 0.1551,
      "velocity": 100,
      "chip": "ym2612"
    },
    {
      "channel": 5,
      "note": 68,
      "start": 46.6194,
      "duration": 0.1552,
      "velocity": 105,
      "chip": "ym2612"
    },
    {
      "channel": 2,
      "note": 75,
      "start": 46.6203,
      "duration": 0.1476,
      "velocity": 120,
      "chip": "ym2612"
    },
    {
      "channel": 0,
      "note": 73,
      "start": 46.7714,
      "duration": 0.7718,
      "velocity": 105,
      "chip": "ym2612"
    },
    {
      "channel": 1,
      "note": 45,
      "start": 46.7735,
      "duration": 0.1533,
      "velocity": 99,
      "chip": "ym2612"
    },
    {
      "channel": 3,
      "note": 81,
      "start": 46.7743,
      "duration": 0.1532,
      "velocity": 100,
      "chip": "ym2612"
    },
    {
      "channel": 5,
      "note": 69,
      "start": 46.7752,
      "duration": 0.7705,
      "velocity": 105,
      "chip": "ym2612"
    },
    {
      "channel": 2,
      "note": 68,
      "start": 46.7761,
      "duration": 0.1476,
      "velocity": 127,
      "chip": "ym2612"
    },
    {
      "channel": 1,
      "note": 45,
      "start": 46.9274,
      "duration": 0.1524,
      "velocity": 99,
      "chip": "ym2612"
    },
    {
      "channel": 3,
      "note": 73,
      "start": 46.9281,
      "duration": 0.152,
      "velocity": 100,
      "chip": "ym2612"
    },
    {
      "channel": 4,
      "note": 61,
      "start": 46.9288,
      "duration": 2.4691,
      "velocity": 92,
      "chip": "ym2612"
    },
    {
      "channel": 2,
      "note": 68,
      "start": 46.9301,
      "duration": 0.1466,
      "velocity": 127,
      "chip": "ym2612"
    },
    {
      "channel": 3,
      "note": 81,
      "start": 47.0807,
      "duration": 0.1542,
      "velocity": 100,
      "chip": "ym2612"
    },
    {
      "channel": 2,
      "note": 68,
      "start": 47.0822,
      "duration": 0.1489,
      "velocity": 127,
      "chip": "ym2612"
    },
    {
      "channel": 1,
      "note": 45,
      "start": 47.2348,
      "duration": 0.3092,
      "velocity": 99,
      "chip": "ym2612"
    },
    {
      "channel": 3,
      "note": 79,
      "start": 47.2355,
      "duration": 0.1548,
      "velocity": 100,
      "chip": "ym2612"
    },
    {
      "channel": 2,
      "note": 75,
      "start": 47.237,
      "duration": 0.1484,
      "velocity": 120,
      "chip": "ym2612"
    },
    {
      "channel": 3,
      "note": 81,
      "start": 47.3909,
      "duration": 0.1539,
      "velocity": 100,
      "chip": "ym2612"
    },
    {
      "channel": 2,
      "note": 68,
      "start": 47.3923,
      "duration": 0.1481,
      "velocity": 127,
      "chip": "ym2612"
    },
    {
      "channel": 0,
      "note": 76,
      "start": 47.5439,
      "duration": 0.6166,
      "velocity": 105,
      "chip": "ym2612"
    },
    {
      "channel": 1,
      "note": 52,
      "start": 47.5446,
      "duration": 0.1528,
      "velocity": 99,
      "chip": "ym2612"
    },
    {
      "channel": 3,
      "note": 76,
      "start": 47.5454,
      "duration": 0.1528,
      "velocity": 100,
      "chip": "ym2612"
    },
    {
      "channel": 5,
      "note": 73,
      "start": 47.5463,
      "duration": 0.6167,
      "velocity": 105,
      "chip": "ym2612"
    },
    {
      "channel": 2,
      "note": 68,
      "start": 47.5472,
      "duration": 0.1471,
      "velocity": 127,
      "chip": "ym2612"
    },
    {
      "channel": 1,
      "note": 55,
      "start": 47.698,
      "duration": 0.1537,
      "velocity": 99,
      "chip": "ym2612"
    },
    {
      "channel": 3,
      "note": 81,
      "start": 47.6988,
      "duration": 0.1538,
      "velocity": 100,
      "chip": "ym2612"
    },
    {
      "channel": 2,
      "note": 68,
      "start": 47.7002,
      "duration": 0.1485,
      "velocity": 127,
      "chip": "ym2612"
    },
    {
      "channel": 1,
      "note": 57,
      "start": 47.8524,
      "duration": 0.1552,
      "velocity": 99,
      "chip": "ym2612"
    },
    {
      "channel": 3,
      "note": 74,
      "start": 47.8531,
      "duration": 0.1552,
      "velocity": 100,
      "chip": "ym2612"
    },
    {
      "channel": 2,
      "note": 75,
      "start": 47.8546,
      "duration": 0.1485,
      "velocity": 120,
      "chip": "ym2612"
    },
    {
      "channel": 1,
      "note": 43,
      "start": 48.0081,
      "duration": 0.1532,
      "velocity": 99,
      "chip": "ym2612"
    },
    {
      "channel": 3,
      "note": 81,
      "start": 48.0089,
      "duration": 0.1532,
      "velocity": 100,
      "chip": "ym2612"
    },
    {
      "channel": 2,
      "note": 68,
      "start": 48.0103,
      "duration": 0.1474,
      "velocity": 127,
      "chip": "ym2612"
    },
    {
      "channel": 0,
      "note": 81,
      "start": 48.1612,
      "duration": 1.2345,
      "velocity": 105,
      "chip": "ym2612"
    },
    {
      "channel": 1,
      "note": 45,
      "start": 48.1619,
      "duration": 0.1531,
      "velocity": 99,
      "chip": "ym2612"
    },
    {
      "channel": 3,
      "note": 73,
      "start": 48.1626,
      "duration": 0.1527,
      "velocity": 100,
      "chip": "ym2612"
    },
    {
      "channel": 5,
      "note": 76,
      "start": 48.1636,
      "duration": 1.2351,
      "velocity": 105,
      "chip": "ym2612"
    },
    {
      "channel": 2,
      "note": 68,
      "start": 48.1645,
      "duration": 0.1473,
      "velocity": 127,
      "chip": "ym2612"
    },
    {
      "channel": 3,
      "note": 81,
      "start": 48.3159,
      "duration": 0.1546,
      "velocity": 100,
      "chip": "ym2612"
    },
    {
      "channel": 2,
      "note": 68,
      "start": 48.3173,
      "duration": 0.1493,
      "velocity": 127,
      "chip": "ym2612"
    },
    {
      "channel": 1,
      "note": 45,
      "start": 48.4703,
      "duration": 0.3083,
      "velocity": 99,
      "chip": "ym2612"
    },
    {
      "channel": 3,
      "note": 79,
      "start": 48.471,
      "duration": 0.1544,
      "velocity": 100,
      "chip": "ym2612"
    },
    {
      "channel": 2,
      "note": 75,
      "start": 48.4738,
      "duration": 0.1468,
      "velocity": 120,
      "chip": "ym2612"
    },
    {
      "channel": 3,
      "note": 81,
      "start": 48.6261,
      "duration": 0.1532,
      "velocity": 100,
      "chip": "ym2612"
    },
    {
      "channel": 2,
      "note": 68,
      "start": 48.6275,
      "duration": 0.1478,
      "velocity": 127,
      "chip": "ym2612"
    },
    {
      "channel": 1,
      "note": 52,
      "start": 48.7791,
      "duration": 0.1535,
      "velocity": 99,
      "chip": "ym2612"
    },
    {
      "channel": 3,
      "note": 76,
      "start": 48.7799,
      "duration": 0.1535,
      "velocity": 100,
      "chip": "ym2612"
    },
    {
      "channel": 2,
      "note": 68,
      "start": 48.7813,
      "duration": 0.1481,
      "velocity": 127,
      "chip": "ym2612"
    },
    {
      "channel": 1,
      "note": 55,
      "start": 48.9332,
      "duration": 0.1538,
      "velocity": 99,
      "chip": "ym2612"
    },
    {
      "channel": 3,
      "note": 81,
      "start": 48.9339,
      "duration": 0.1537,
      "velocity": 100,
      "chip": "ym2612"
    },
    {
      "channel": 2,
      "note": 68,
      "start": 48.9353,
      "duration": 0.1484,
      "velocity": 127,
      "chip": "ym2612"
    },
    {
      "channel": 1,
      "note": 57,
      "start": 49.0876,
      "duration": 0.1552,
      "velocity": 99,
      "chip": "ym2612"
    },
    {
      "channel": 3,
      "note": 74,
      "start": 49.0896,
      "duration": 0.1539,
      "velocity": 100,
      "chip": "ym2612"
    },
    {
      "channel": 2,
      "note": 75,
      "start": 49.0911,
      "duration": 0.1471,
      "velocity": 120,
      "chip": "ym2612"
    },
    {
      "channel": 1,
      "note": 43,
      "start": 49.2434,
      "duration": 0.1531,
      "velocity": 99,
      "chip": "ym2612"
    },
    {
      "channel": 3,
      "note": 81,
      "start": 49.2441,
      "duration": 0.153,
      "velocity": 100,
      "chip": "ym2612"
    },
    {
      "channel": 2,
      "note": 68,
      "start": 49.2455,
      "duration": 0.1473,
      "velocity": 127,
      "chip": "ym2612"
    },
    {
      "channel": 0,
      "note": 79,
      "start": 49.3963,
      "duration": 0.6169,
      "velocity": 105,
      "chip": "ym2612"
    },
    {
      "channel": 1,
      "note": 55,
      "start": 49.3971,
      "duration": 0.153,
      "velocity": 99,
      "chip": "ym2612"
    },
    {
      "channel": 3,
      "note": 77,
      "start": 49.3978,
      "duration": 0.1526,
      "velocity": 100,
      "chip": "ym2612"
    },
    {
      "channel": 4,
      "note": 58,
      "start": 49.3985,
      "duration": 2.4697,
      "velocity": 92,
      "chip": "ym2612"
    },
    {
      "channel": 5,
      "note": 74,
      "start": 49.3993,
      "duration": 0.6163,
      "velocity": 105,
      "chip": "ym2612"
    },
    {
      "channel": 2,
      "note": 68,
      "start": 49.4002,
      "duration": 0.1468,
      "velocity": 127,
      "chip": "ym2612"
    },
    {
      "channel": 3,
      "note": 81,
      "start": 49.551,
      "duration": 0.1556,
      "velocity": 100,
      "chip": "ym2612"
    },
    {
      "channel": 2,
      "note": 68,
      "start": 49.5524,
      "duration": 0.1489,
      "velocity": 127,
      "chip": "ym2612"
    },
    {
      "channel": 1,
      "note": 55,
      "start": 49.7065,
      "duration": 0.3074,
      "velocity": 99,
      "chip": "ym2612"
    },
    {
      "channel": 3,
      "note": 76,
      "start": 49.7072,
      "duration": 0.153,
      "velocity": 100,
      "chip": "ym2612"
    },
    {
      "channel": 2,
      "note": 75,
      "start": 49.7086,
      "duration": 0.1481,
      "velocity": 120,
      "chip": "ym2612"
    },
    {
      "channel": 3,
      "note": 81,
      "start": 49.8608,
      "duration": 0.1538,
      "velocity": 100,
      "chip": "ym2612"
    },
    {
      "channel": 2,
      "note": 68,
      "start": 49.8622,
      "duration": 0.1482,
      "velocity": 127,
      "chip": "ym2612"
    },
    {
      "channel": 0,
      "note": 79,
      "start": 50.0137,
      "duration": 0.3093,
      "velocity": 105,
      "chip": "ym2612"
    },
    {
      "channel": 1,
      "note": 58,
      "start": 50.0145,
      "duration": 0.1532,
      "velocity": 99,
      "chip": "ym2612"
    },
    {
      "channel": 3,
      "note": 74,
      "start": 50.0152,
      "duration": 0.1532,
      "velocity": 100,
      "chip": "ym2612"
    },
    {
      "channel": 5,
      "note": 74,
      "start": 50.016,
      "duration": 0.3095,
      "velocity": 105,
      "chip": "ym2612"
    },
    {
      "channel": 2,
      "note": 68,
      "start": 50.0168,
      "duration": 0.1477,
      "velocity": 127,
      "chip": "ym2612"
    },
    {
      "channel": 1,
      "note": 60,
      "start": 50.1682,
      "duration": 0.1556,
      "velocity": 99,
      "chip": "ym2612"
    },
    {
      "channel": 3,
      "note": 81,
      "start": 50.169,
      "duration": 0.1556,
      "velocity": 100,
      "chip": "ym2612"
    },
    {
      "channel": 2,
      "note": 68,
      "start": 50.1704,
      "duration": 0.1485,
      "velocity": 127,
      "chip": "ym2612"
    },
    {
      "channel": 0,
      "note": 81,
      "start": 50.3237,
      "duration": 0.1526,
      "velocity": 105,
      "chip": "ym2612"
    },
    {
      "channel": 1,
      "note": 62,
      "start": 50.3244,
      "duration": 0.1527,
      "velocity": 99,
      "chip": "ym2612"
    },
    {
      "channel": 3,
      "note": 76,
      "start": 50.3252,
      "duration": 0.1527,
      "velocity": 100,
      "chip": "ym2612"
    },
    {
      "channel": 5,
      "note": 77,
      "start": 50.3261,
      "duration": 0.1527,
      "velocity": 105,
      "chip": "ym2612"
    },
    {
      "channel": 2,
      "note": 75,
      "start": 50.3269,
      "duration": 0.1466,
      "velocity": 120,
      "chip": "ym2612"
    },
    {
      "channel": 0,
      "note": 79,
      "start": 50.4769,
      "duration": 0.308,
      "velocity": 105,
      "chip": "ym2612"
    },
    {
      "channel": 1,
      "note": 50,
      "start": 50.4777,
      "duration": 0.1534,
      "velocity": 99,
      "chip": "ym2612"
    },
    {
      "channel": 3,
      "note": 81,
      "start": 50.4785,
      "duration": 0.1534,
      "velocity": 100,
      "chip": "ym2612"
    },
    {
      "channel": 5,
      "note": 74,
      "start": 50.4794,
      "duration": 0.3076,
      "velocity": 105,
      "chip": "ym2612"
    },
    {
      "channel": 2,
      "note": 68,
      "start": 50.4802,
      "duration": 0.1477,
      "velocity": 127,
      "chip": "ym2612"
    },
    {
      "channel": 1,
      "note": 55,
      "start": 50.6317,
      "duration": 0.154,
      "velocity": 99,
      "chip": "ym2612"
    },
    {
      "channel": 3,
      "note": 77,
      "start": 50.6325,
      "duration": 0.1536,
      "velocity": 100,
      "chip": "ym2612"
    },
    {
      "channel": 2,
      "note": 68,
      "start": 50.6339,
      "duration": 0.1482,
      "velocity": 127,
      "chip": "ym2612"
    },
    {
      "channel": 0,
      "note": 77,
      "start": 50.7855,
      "duration": 0.1551,
      "velocity": 105,
      "chip": "ym2612"
    },
    {
      "channel": 3,
      "note": 81,
      "start": 50.7866,
      "duration": 0.1555,
      "velocity": 100,
      "chip": "ym2612"
    },
    {
      "channel": 5,
      "note": 74,
      "start": 50.7876,
      "duration": 0.1555,
      "velocity": 105,
      "chip": "ym2612"
    },
    {
      "channel": 2,
      "note": 68,
      "start": 50.7897,
      "duration": 0.1467,
      "velocity": 127,
      "chip": "ym2612"
    },
    {
      "channel": 0,
      "note": 74,
      "start": 50.9413,
      "duration": 0.1523,
      "velocity": 105,
      "chip": "ym2612"
    },
    {
      "channel": 1,
      "note": 55,
      "start": 50.942,
      "duration": 0.3071,
      "velocity": 99,
      "chip": "ym2612"
    },
    {
      "channel": 3,
      "note": 76,
      "start": 50.9428,
      "duration": 0.152,
      "velocity": 100,
      "chip": "ym2612"
    },
    {
      "channel": 5,
      "note": 70,
      "start": 50.9437,
      "duration": 0.152,
      "velocity": 105,
      "chip": "ym2612"
    },
    {
      "channel": 2,
      "note": 75,
      "start": 50.9446,
      "duration": 0.1463,
      "velocity": 120,
      "chip": "ym2612"
    },
    {
      "channel": 0,
      "note": 72,
      "start": 51.0942,
      "duration": 0.1541,
      "velocity": 105,
      "chip": "ym2612"
    },
    {
      "channel": 3,
      "note": 81,
      "start": 51.0954,
      "duration": 0.1545,
      "velocity": 100,
      "chip": "ym2612"
    },
    {
      "channel": 5,
      "note": 69,
      "start": 51.0963,
      "duration": 0.1545,
      "velocity": 105,
      "chip": "ym2612"
    },
    {
      "channel": 2,
      "note": 68,
      "start": 51.0972,
      "duration": 0.1483,
      "velocity": 127,
      "chip": "ym2612"
    },
    {
      "channel": 0,
      "note": 70,
      "start": 51.249,
      "duration": 0.1534,
      "velocity": 105,
      "chip": "ym2612"
    },
    {
      "channel": 1,
      "note": 58,
      "start": 51.2497,
      "duration": 0.1536,
      "velocity": 99,
      "chip": "ym2612"
    },
    {
      "channel": 3,
      "note": 74,
      "start": 51.2505,
      "duration": 0.1535,
      "velocity": 100,
      "chip": "ym2612"
    },
    {
      "channel": 5,
      "note": 67,
      "start": 51.2514,
      "duration": 0.1536,
      "velocity": 105,
      "chip": "ym2612"
    },
    {
      "channel": 2,
      "note": 68,
      "start": 51.2523,
      "duration": 0.1474,
      "velocity": 127,
      "chip": "ym2612"
    },
    {
      "channel": 0,
      "note": 67,
      "start": 51.4031,
      "duration": 0.155,
      "velocity": 105,
      "chip": "ym2612"
    },
    {
      "channel": 1,
      "note": 60,
      "start": 51.4039,
      "duration": 0.1551,
      "velocity": 99,
      "chip": "ym2612"
    },
    {
      "channel": 3,
      "note": 81,
      "start": 51.4046,
      "duration": 0.1551,
      "velocity": 100,
      "chip": "ym2612"
    },
    {
      "channel": 5,
      "note": 62,
      "start": 51.4069,
      "duration": 0.1537,
      "velocity": 105,
      "chip": "ym2612"
    },
    {
      "channel": 2,
      "note": 68,
      "start": 51.4077,
      "duration": 0.1462,
      "velocity": 127,
      "chip": "ym2612"
    },
    {
      "channel": 0,
      "note": 72,
      "start": 51.5588,
      "duration": 0.1523,
      "velocity": 105,
      "chip": "ym2612"
    },
    {
      "channel": 1,
      "note": 62,
      "start": 51.5595,
      "duration": 0.1525,
      "velocity": 99,
      "chip": "ym2612"
    },
    {
      "channel": 3,
      "note": 76,
      "start": 51.5603,
      "duration": 0.1524,
      "velocity": 100,
      "chip": "ym2612"
    },
    {
      "channel": 5,
      "note": 69,
      "start": 51.5612,
      "duration": 0.1524,
      "velocity": 105,
      "chip": "ym2612"
    },
    {
      "channel": 2,
      "note": 75,
      "start": 51.5621,
      "duration": 0.1463,
      "velocity": 120,
      "chip": "ym2612"
    },
    {
      "channel": 0,
      "note": 70,
      "start": 51.7118,
      "duration": 0.154,
      "velocity": 105,
      "chip": "ym2612"
    },
    {
      "channel": 1,
      "note": 50,
      "start": 51.7126,
      "duration": 0.1541,
      "velocity": 99,
      "chip": "ym2612"
    },
    {
      "channel": 3,
      "note": 81,
      "start": 51.7133,
      "duration": 0.1541,
      "velocity": 100,
      "chip": "ym2612"
    },
    {
      "channel": 5,
      "note": 67,
      "start": 51.7142,
      "duration": 0.1546,
      "velocity": 105,
      "chip": "ym2612"
    },
    {
      "channel": 2,
      "note": 68,
      "start": 51.7151,
      "duration": 0.1479,
      "velocity": 127,
      "chip": "ym2612"
    },
    {
      "channel": 0,
      "note": 69,
      "start": 51.8665,
      "duration": 1.2344,
      "velocity": 105,
      "chip": "ym2612"
    },
    {
      "channel": 1,
      "note": 45,
      "start": 51.8672,
      "duration": 0.1531,
      "velocity": 99,
      "chip": "ym2612"
    },
    {
      "channel": 3,
      "note": 74,
      "start": 51.868,
      "duration": 0.1527,
      "velocity": 100,
      "chip": "ym2612"
    },
    {
      "channel": 4,
      "note": 62,
      "start": 51.8687,
      "duration": 1.2345,
      "velocity": 92,
      "chip": "ym2612"
    },
    {
      "channel": 5,
      "note": 64,
      "start": 51.8695,
      "duration": 1.2345,
      "velocity": 105,
      "chip": "ym2612"
    },
    {
      "channel": 2,
      "note": 68,
      "start": 51.8703,
      "duration": 0.1468,
      "velocity": 127,
      "chip": "ym2612"
    },
    {
      "channel": 3,
      "note": 81,
      "start": 52.0212,
      "duration": 0.1556,
      "velocity": 100,
      "chip": "ym2612"
    },
    {
      "channel": 2,
      "note": 68,
      "start": 52.0239,
      "duration": 0.1476,
      "velocity": 127,
      "chip": "ym2612"
    },
    {
      "channel": 1,
      "note": 45,
      "start": 52.1767,
      "duration": 0.3075,
      "velocity": 99,
      "chip": "ym2612"
    },
    {
      "channel": 3,
      "note": 79,
      "start": 52.1774,
      "duration": 0.152,
      "velocity": 100,
      "chip": "ym2612"
    },
    {
      "channel": 2,
      "note": 75,
      "start": 52.1788,
      "duration": 0.1471,
      "velocity": 120,
      "chip": "ym2612"
    },
    {
      "channel": 3,
      "note": 81,
      "start": 52.3301,
      "duration": 0.1549,
      "velocity": 100,
      "chip": "ym2612"
    },
    {
      "channel": 2,
      "note": 68,
      "start": 52.3315,
      "duration": 0.1495,
      "velocity": 127,
      "chip": "ym2612"
    },
    {
      "channel": 1,
      "note": 52,
      "start": 52.4848,
      "duration": 0.1532,
      "velocity": 99,
      "chip": "ym2612"
    },
    {
      "channel": 3,
      "note": 76,
      "start": 52.4855,
      "duration": 0.1546,
      "velocity": 100,
      "chip": "ym2612"
    },
    {
      "channel": 2,
      "note": 68,
      "start": 52.4869,
      "duration": 0.1478,
      "velocity": 127,
      "chip": "ym2612"
    },
    {
      "channel": 1,
      "note": 55,
      "start": 52.6399,
      "duration": 0.1534,
      "velocity": 99,
      "chip": "ym2612"
    },
    {
      "channel": 3,
      "note": 81,
      "start": 52.6407,
      "duration": 0.1534,
      "velocity": 100,
      "chip": "ym2612"
    },
    {
      "channel": 2,
      "note": 68,
      "start": 52.6421,
      "duration": 0.148,
      "velocity": 127,
      "chip": "ym2612"
    },
    {
      "channel": 1,
      "note": 57,
      "start": 52.7939,
      "duration": 0.1529,
      "velocity": 99,
      "chip": "ym2612"
    },
    {
      "channel": 3,
      "note": 74,
      "start": 52.7946,
      "duration": 0.1529,
      "velocity": 100,
      "chip": "ym2612"
    },
    {
      "channel": 2,
      "note": 75,
      "start": 52.7961,
      "duration": 0.1474,
      "velocity": 120,
      "chip": "ym2612"
    },
    {
      "channel": 1,
      "note": 52,
      "start": 52.9474,
      "duration": 0.1544,
      "velocity": 99,
      "chip": "ym2612"
    },
    {
      "channel": 3,
      "note": 81,
      "start": 52.9481,
      "duration": 0.1543,
      "velocity": 100,
      "chip": "ym2612"
    },
    {
      "channel": 2,
      "note": 68,
      "start": 52.9495,
      "duration": 0.1486,
      "velocity": 127,
      "chip": "ym2612"
    },
    {
      "channel": 0,
      "note": 85,
      "start": 53.1016,
      "duration": 0.6167,
      "velocity": 105,
      "chip": "ym2612"
    },
    {
      "channel": 1,
      "note": 57,
      "start": 53.1023,
      "duration": 0.1544,
      "velocity": 99,
      "chip": "ym2612"
    },
    {
      "channel": 3,
      "note": 73,
      "start": 53.1031,
      "duration": 0.1544,
      "velocity": 100,
      "chip": "ym2612"
    },
    {
      "channel": 4,
      "note": 61,
      "start": 53.1038,
      "duration": 1.2474,
      "velocity": 100,
      "chip": "ym2612"
    },
    {
      "channel": 5,
      "note": 81,
      "start": 53.1046,
      "duration": 0.6158,
      "velocity": 105,
      "chip": "ym2612"
    },
    {
      "channel": 2,
      "note": 79,
      "start": 53.107,
      "duration": 0.1453,
      "velocity": 120,
      "chip": "ym2612"
    },
    {
      "channel": 1,
      "note": 52,
      "start": 53.2573,
      "duration": 0.1527,
      "velocity": 99,
      "chip": "ym2612"
    },
    {
      "channel": 3,
      "note": 81,
      "start": 53.258,
      "duration": 0.1526,
      "velocity": 100,
      "chip": "ym2612"
    },
    {
      "channel": 2,
      "note": 79,
      "start": 53.2596,
      "duration": 0.1471,
      "velocity": 120,
      "chip": "ym2612"
    },
    {
      "channel": 1,
      "note": 55,
      "start": 53.4105,
      "duration": 0.1537,
      "velocity": 99,
      "chip": "ym2612"
    },
    {
      "channel": 3,
      "note": 79,
      "start": 53.4113,
      "duration": 0.1537,
      "velocity": 100,
      "chip": "ym2612"
    },
    {
      "channel": 2,
      "note": 79,
      "start": 53.4128,
      "duration": 0.1483,
      "velocity": 120,
      "chip": "ym2612"
    },
    {
      "channel": 1,
      "note": 57,
      "start": 53.5649,
      "duration": 0.3095,
      "velocity": 99,
      "chip": "ym2612"
    },
    {
      "channel": 3,
      "note": 81,
      "start": 53.5656,
      "duration": 0.1538,
      "velocity": 100,
      "chip": "ym2612"
    },
    {
      "channel": 2,
      "note": 79,
      "start": 53.5671,
      "duration": 0.1483,
      "velocity": 120,
      "chip": "ym2612"
    },
    {
      "channel": 0,
      "note": 81,
      "start": 53.719,
      "duration": 0.621,
      "velocity": 105,
      "chip": "ym2612"
    },
    {
      "channel": 3,
      "note": 76,
      "start": 53.7201,
      "duration": 0.1551,
      "velocity": 100,
      "chip": "ym2612"
    },
    {
      "channel": 5,
      "note": 76,
      "start": 53.721,
      "duration": 0.6354,
      "velocity": 105,
      "chip": "ym2612"
    },
    {
      "channel": 2,
      "note": 79,
      "start": 53.7233,
      "duration": 0.1466,
      "velocity": 120,
      "chip": "ym2612"
    },
    {
      "channel": 1,
      "note": 59,
      "start": 53.875,
      "duration": 0.1524,
      "velocity": 99,
      "chip": "ym2612"
    },
    {
      "channel": 3,
      "note": 81,
      "start": 53.8758,
      "duration": 0.1523,
      "velocity": 100,
      "chip": "ym2612"
    },
    {
      "channel": 2,
      "note": 74,
      "start": 53.8772,
      "duration": 0.147,
      "velocity": 120,
      "chip": "ym2612"
    },
    {
      "channel": 1,
      "note": 61,
      "start": 54.028,
      "duration": 0.1539,
      "velocity": 99,
      "chip": "ym2612"
    },
    {
      "channel": 3,
      "note": 73,
      "start": 54.0287,
      "duration": 0.1539,
      "velocity": 100,
      "chip": "ym2612"
    },
    {
      "channel": 2,
      "note": 74,
      "start": 54.0301,
      "duration": 0.1486,
      "velocity": 120,
      "chip": "ym2612"
    },
    {
      "channel": 1,
      "note": 57,
      "start": 54.1825,
      "duration": 0.1609,
      "velocity": 99,
      "chip": "ym2612"
    },
    {
      "channel": 3,
      "note": 81,
      "start": 54.1832,
      "duration": 0.1645,
      "velocity": 100,
      "chip": "ym2612"
    },
    {
      "channel": 2,
      "note": 69,
      "start": 54.1848,
      "duration": 0.1485,
      "velocity": 120,
      "chip": "ym2612"
    },
    {
      "channel": 0,
      "note": 65,
      "start": 54.3406,
      "duration": 0.1509,
      "velocity": 105,
      "chip": "ym2612"
    },
    {
      "channel": 1,
      "note": 50,
      "start": 54.3439,
      "duration": 0.1484,
      "velocity": 99,
      "chip": "ym2612"
    },
    {
      "channel": 5,
      "note": 62,
      "start": 54.3571,
      "duration": 0.1357,
      "velocity": 105,
      "chip": "ym2612"
    },
    {
      "channel": 2,
      "note": 68,
      "start": 54.3579,
      "duration": 0.1295,
      "velocity": 127,
      "chip": "ym2612"
    },
    {
      "channel": 0,
      "note": 62,
      "start": 54.4922,
      "duration": 0.1524,
      "velocity": 105,
      "chip": "ym2612"
    },
    {
      "channel": 5,
      "note": 57,
      "start": 54.4934,
      "duration": 0.1543,
      "velocity": 105,
      "chip": "ym2612"
    },
    {
      "channel": 2,
      "note": 68,
      "start": 54.4942,
      "duration": 0.1476,
      "velocity": 127,
      "chip": "ym2612"
    },
    {
      "channel": 0,
      "note": 64,
      "start": 54.6453,
      "duration": 0.1536,
      "velocity": 105,
      "chip": "ym2612"
    },
    {
      "channel": 1,
      "note": 50,
      "start": 54.646,
      "duration": 0.308,
      "velocity": 99,
      "chip": "ym2612"
    },
    {
      "channel": 3,
      "note": 77,
      "start": 54.6468,
      "duration": 0.9273,
      "velocity": 100,
      "chip": "ym2612"
    },
    {
      "channel": 4,
      "note": 74,
      "start": 54.6476,
      "duration": 0.9268,
      "velocity": 100,
      "chip": "ym2612"
    },
    {
      "channel": 5,
      "note": 60,
      "start": 54.6483,
      "duration": 0.1522,
      "velocity": 105,
      "chip": "ym2612"
    },
    {
      "channel": 2,
      "note": 75,
      "start": 54.6491,
      "duration": 0.147,
      "velocity": 120,
      "chip": "ym2612"
    },
    {
      "channel": 0,
      "note": 65,
      "start": 54.7996,
      "duration": 0.3095,
      "velocity": 105,
      "chip": "ym2612"
    },
    {
      "channel": 5,
      "note": 62,
      "start": 54.8011,
      "duration": 0.3099,
      "velocity": 105,
      "chip": "ym2612"
    },
    {
      "channel": 2,
      "note": 68,
      "start": 54.802,
      "duration": 0.1489,
      "velocity": 127,
      "chip": "ym2612"
    },
    {
      "channel": 1,
      "note": 53,
      "start": 54.9546,
      "duration": 0.1554,
      "velocity": 99,
      "chip": "ym2612"
    },
    {
      "channel": 2,
      "note": 68,
      "start": 54.9576,
      "duration": 0.1488,
      "velocity": 127,
      "chip": "ym2612"
    },
    {
      "channel": 0,
      "note": 62,
      "start": 55.1098,
      "duration": 0.1524,
      "velocity": 105,
      "chip": "ym2612"
    },
    {
      "channel": 1,
      "note": 55,
      "start": 55.1105,
      "duration": 0.1524,
      "velocity": 99,
      "chip": "ym2612"
    },
    {
      "channel": 5,
      "note": 57,
      "start": 55.1116,
      "duration": 0.1524,
      "velocity": 105,
      "chip": "ym2612"
    },
    {
      "channel": 2,
      "note": 68,
      "start": 55.1125,
      "duration": 0.1468,
      "velocity": 127,
      "chip": "ym2612"
    },
    {
      "channel": 0,
      "note": 64,
      "start": 55.2628,
      "duration": 0.1538,
      "velocity": 105,
      "chip": "ym2612"
    },
    {
      "channel": 1,
      "note": 57,
      "start": 55.2635,
      "duration": 0.1539,
      "velocity": 99,
      "chip": "ym2612"
    },
    {
      "channel": 5,
      "note": 60,
      "start": 55.2646,
      "duration": 0.1539,
      "velocity": 105,
      "chip": "ym2612"
    },
    {
      "channel": 2,
      "note": 75,
      "start": 55.2655,
      "duration": 0.1483,
      "velocity": 120,
      "chip": "ym2612"
    },
    {
      "channel": 0,
      "note": 65,
      "start": 55.4172,
      "duration": 0.1539,
      "velocity": 105,
      "chip": "ym2612"
    },
    {
      "channel": 1,
      "note": 45,
      "start": 55.418,
      "duration": 0.1553,
      "velocity": 99,
      "chip": "ym2612"
    },
    {
      "channel": 5,
      "note": 62,
      "start": 55.419,
      "duration": 0.1557,
      "velocity": 105,
      "chip": "ym2612"
    },
    {
      "channel": 2,
      "note": 68,
      "start": 55.42,
      "duration": 0.1484,
      "velocity": 127,
      "chip": "ym2612"
    },
    {
      "channel": 0,
      "note": 67,
      "start": 55.5732,
      "duration": 0.153,
      "velocity": 105,
      "chip": "ym2612"
    },
    {
      "channel": 1,
      "note": 55,
      "start": 55.5739,
      "duration": 0.1531,
      "velocity": 99,
      "chip": "ym2612"
    },
    {
      "channel": 5,
      "note": 64,
      "start": 55.5753,
      "duration": 0.1522,
      "velocity": 105,
      "chip": "ym2612"
    },
    {
      "channel": 2,
      "note": 68,
      "start": 55.5762,
      "duration": 0.1472,
      "velocity": 127,
      "chip": "ym2612"
    },
    {
      "channel": 0,
      "note": 64,
      "start": 55.7268,
      "duration": 0.1529,
      "velocity": 105,
      "chip": "ym2612"
    },
    {
      "channel": 5,
      "note": 60,
      "start": 55.728,
      "duration": 0.1548,
      "velocity": 105,
      "chip": "ym2612"
    },
    {
      "channel": 2,
      "note": 68,
      "start": 55.7289,
      "duration": 0.148,
      "velocity": 127,
      "chip": "ym2612"
    },
    {
      "channel": 0,
      "note": 65,
      "start": 55.8804,
      "duration": 0.1536,
      "velocity": 105,
      "chip": "ym2612"
    },
    {
      "channel": 1,
      "note": 55,
      "start": 55.8811,
      "duration": 0.3093,
      "velocity": 99,
      "chip": "ym2612"
    },
    {
      "channel": 3,
      "note": 74,
      "start": 55.8819,
      "duration": 0.9274,
      "velocity": 100,
      "chip": "ym2612"
    },
    {
      "channel": 4,
      "note": 70,
      "start": 55.8827,
      "duration": 0.9274,
      "velocity": 100,
      "chip": "ym2612"
    },
    {
      "channel": 5,
      "note": 62,
      "start": 55.8834,
      "duration": 0.1523,
      "velocity": 105,
      "chip": "ym2612"
    },
    {
      "channel": 2,
      "note": 75,
      "start": 55.8843,
      "duration": 0.147,
      "velocity": 120,
      "chip": "ym2612"
    },
    {
      "channel": 0,
      "note": 67,
      "start": 56.0348,
      "duration": 0.3081,
      "velocity": 105,
      "chip": "ym2612"
    },
    {
      "channel": 5,
      "note": 64,
      "start": 56.0362,
      "duration": 0.3086,
      "velocity": 105,
      "chip": "ym2612"
    },
    {
      "channel": 2,
      "note": 68,
      "start": 56.0371,
      "duration": 0.1489,
      "velocity": 127,
      "chip": "ym2612"
    },
    {
      "channel": 1,
      "note": 58,
      "start": 56.1911,
      "duration": 0.1526,
      "velocity": 99,
      "chip": "ym2612"
    },
    {
      "channel": 2,
      "note": 68,
      "start": 56.1927,
      "duration": 0.1474,
      "velocity": 127,
      "chip": "ym2612"
    },
    {
      "channel": 0,
      "note": 64,
      "start": 56.3435,
      "duration": 0.1541,
      "velocity": 105,
      "chip": "ym2612"
    },
    {
      "channel": 1,
      "note": 60,
      "start": 56.3442,
      "duration": 0.1542,
      "velocity": 99,
      "chip": "ym2612"
    },
    {
      "channel": 5,
      "note": 60,
      "start": 56.3454,
      "duration": 0.1542,
      "velocity": 105,
      "chip": "ym2612"
    },
    {
      "channel": 2,
      "note": 68,
      "start": 56.3462,
      "duration": 0.1487,
      "velocity": 127,
      "chip": "ym2612"
    },
    {
      "channel": 0,
      "note": 65,
      "start": 56.4983,
      "duration": 0.1534,
      "velocity": 105,
      "chip": "ym2612"
    },
    {
      "channel": 1,
      "note": 62,
      "start": 56.499,
      "duration": 0.1535,
      "velocity": 99,
      "chip": "ym2612"
    },
    {
      "channel": 5,
      "note": 62,
      "start": 56.5002,
      "duration": 0.1534,
      "velocity": 105,
      "chip": "ym2612"
    },
    {
      "channel": 2,
      "note": 75,
      "start": 56.501,
      "duration": 0.1479,
      "velocity": 120,
      "chip": "ym2612"
    },
    {
      "channel": 0,
      "note": 67,
      "start": 56.6523,
      "duration": 0.1554,
      "velocity": 105,
      "chip": "ym2612"
    },
    {
      "channel": 1,
      "note": 50,
      "start": 56.6531,
      "duration": 0.1555,
      "velocity": 99,
      "chip": "ym2612"
    },
    {
      "channel": 5,
      "note": 64,
      "start": 56.6542,
      "duration": 0.1567,
      "velocity": 105,
      "chip": "ym2612"
    },
    {
      "channel": 2,
      "note": 68,
      "start": 56.6563,
      "duration": 0.1473,
      "velocity": 127,
      "chip": "ym2612"
    },
    {
      "channel": 0,
      "note": 69,
      "start": 56.8084,
      "duration": 0.6168,
      "velocity": 105,
      "chip": "ym2612"
    },
    {
      "channel": 1,
      "note": 45,
      "start": 56.8091,
      "duration": 0.1517,
      "velocity": 99,
      "chip": "ym2612"
    },
    {
      "channel": 3,
      "note": 76,
      "start": 56.8099,
      "duration": 1.234,
      "velocity": 100,
      "chip": "ym2612"
    },
    {
      "channel": 4,
      "note": 73,
      "start": 56.8107,
      "duration": 1.234,
      "velocity": 100,
      "chip": "ym2612"
    },
    {
      "channel": 5,
      "note": 64,
      "start": 56.8114,
      "duration": 0.6158,
      "velocity": 105,
      "chip": "ym2612"
    },
    {
      "channel": 2,
      "note": 68,
      "start": 56.8122,
      "duration": 0.1454,
      "velocity": 127,
      "chip": "ym2612"
    },
    {
      "channel": 2,
      "note": 68,
      "start": 56.9626,
      "duration": 0.1495,
      "velocity": 127,
      "chip": "ym2612"
    },
    {
      "channel": 1,
      "note": 45,
      "start": 57.1157,
      "duration": 0.3103,
      "velocity": 99,
      "chip": "ym2612"
    },
    {
      "channel": 2,
      "note": 75,
      "start": 57.1173,
      "duration": 0.149,
      "velocity": 120,
      "chip": "ym2612"
    },
    {
      "channel": 2,
      "note": 68,
      "start": 57.2713,
      "duration": 0.1498,
      "velocity": 127,
      "chip": "ym2612"
    },
    {
      "channel": 0,
      "note": 81,
      "start": 57.4259,
      "duration": 0.6168,
      "velocity": 105,
      "chip": "ym2612"
    },
    {
      "channel": 1,
      "note": 57,
      "start": 57.4267,
      "duration": 0.1517,
      "velocity": 99,
      "chip": "ym2612"
    },
    {
      "channel": 5,
      "note": 76,
      "start": 57.4278,
      "duration": 0.6177,
      "velocity": 105,
      "chip": "ym2612"
    },
    {
      "channel": 2,
      "note": 68,
      "start": 57.4287,
      "duration": 0.1466,
      "velocity": 127,
      "chip": "ym2612"
    },
    {
      "channel": 1,
      "note": 52,
      "start": 57.5789,
      "duration": 0.1538,
      "velocity": 99,
      "chip": "ym2612"
    },
    {
      "channel": 2,
      "note": 68,
      "start": 57.5805,
      "duration": 0.1491,
      "velocity": 127,
      "chip": "ym2612"
    },
    {
      "channel": 1,
      "note": 67,
      "start": 57.7333,
      "duration": 0.1538,
      "velocity": 99,
      "chip": "ym2612"
    },
    {
      "channel": 2,
      "note": 75,
      "start": 57.7349,
      "duration": 0.149,
      "velocity": 120,
      "chip": "ym2612"
    },
    {
      "channel": 1,
      "note": 57,
      "start": 57.8877,
      "duration": 0.3082,
      "velocity": 99,
      "chip": "ym2612"
    },
    {
      "channel": 2,
      "note": 68,
      "start": 57.8906,
      "duration": 0.1493,
      "velocity": 127,
      "chip": "ym2612"
    },
    {
      "channel": 0,
      "note": 76,
      "start": 58.0434,
      "duration": 0.616,
      "velocity": 105,
      "chip": "ym2612"
    },
    {
      "channel": 3,
      "note": 81,
      "start": 58.0445,
      "duration": 0.6166,
      "velocity": 100,
      "chip": "ym2612"
    },
    {
      "channel": 4,
      "note": 76,
      "start": 58.0453,
      "duration": 0.6165,
      "velocity": 100,
      "chip": "ym2612"
    },
    {
      "channel": 5,
      "note": 73,
      "start": 58.046,
      "duration": 0.6165,
      "velocity": 105,
      "chip": "ym2612"
    },
    {
      "channel": 2,
      "note": 68,
      "start": 58.0468,
      "duration": 0.1459,
      "velocity": 127,
      "chip": "ym2612"
    },
    {
      "channel": 1,
      "note": 59,
      "start": 58.1965,
      "duration": 0.1538,
      "velocity": 99,
      "chip": "ym2612"
    },
    {
      "channel": 2,
      "note": 68,
      "start": 58.1981,
      "duration": 0.149,
      "velocity": 127,
      "chip": "ym2612"
    },
    {
      "channel": 1,
      "note": 61,
      "start": 58.3509,
      "duration": 0.1537,
      "velocity": 99,
      "chip": "ym2612"
    },
    {
      "channel": 2,
      "note": 75,
      "start": 58.3525,
      "duration": 0.149,
      "velocity": 120,
      "chip": "ym2612"
    },
    {
      "channel": 1,
      "note": 57,
      "start": 58.5066,
      "duration": 0.1536,
      "velocity": 99,
      "chip": "ym2612"
    },
    {
      "channel": 2,
      "note": 79,
      "start": 58.5084,
      "duration": 0.1483,
      "velocity": 120,
      "chip": "ym2612"
    },
    {
      "channel": 0,
      "note": 73,
      "start": 58.6602,
      "duration": 0.6196,
      "velocity": 87,
      "chip": "ym2612"
    },
    {
      "channel": 1,
      "note": 69,
      "start": 58.6609,
      "duration": 0.1525,
      "velocity": 99,
      "chip": "ym2612"
    },
    {
      "channel": 3,
      "note": 85,
      "start": 58.6617,
      "duration": 0.6259,
      "velocity": 100,
      "chip": "ym2612"
    },
    {
      "channel": 4,
      "note": 81,
      "start": 58.6624,
      "duration": 0.6306,
      "velocity": 100,
      "chip": "ym2612"
    },
    {
      "channel": 5,
      "note": 69,
      "start": 58.6631,
      "duration": 0.6339,
      "velocity": 87,
      "chip": "ym2612"
    },
    {
      "channel": 2,
      "note": 79,
      "start": 58.6641,
      "duration": 0.1462,
      "velocity": 120,
      "chip": "ym2612"
    },
    {
      "channel": 1,
      "note": 57,
      "start": 58.8141,
      "duration": 0.1538,
      "velocity": 99,
      "chip": "ym2612"
    },
    {
      "channel": 2,
      "note": 74,
      "start": 58.8157,
      "duration": 0.149,
      "velocity": 120,
      "chip": "ym2612"
    },
    {
      "channel": 1,
      "note": 59,
      "start": 58.9685,
      "duration": 0.1551,
      "velocity": 99,
      "chip": "ym2612"
    },
    {
      "channel": 2,
      "note": 74,
      "start": 58.9701,
      "duration": 0.149,
      "velocity": 120,
      "chip": "ym2612"
    },
    {
      "channel": 1,
      "note": 61,
      "start": 59.1241,
      "duration": 0.159,
      "velocity": 99,
      "chip": "ym2612"
    },
    {
      "channel": 2,
      "note": 69,
      "start": 59.1259,
      "duration": 0.148,
      "velocity": 120,
      "chip": "ym2612"
    },
    {
      "channel": 0,
      "note": 86,
      "start": 59.2804,
      "duration": 0.6135,
      "velocity": 87,
      "chip": "ym2612"
    },
    {
      "channel": 1,
      "note": 62,
      "start": 59.2837,
      "duration": 0.611,
      "velocity": 99,
      "chip": "ym2612"
    },
    {
      "channel": 2,
      "note": 69,
      "start": 59.2981,
      "duration": 0.1298,
      "velocity": 120,
      "chip": "ym2612"
    },
    {
      "channel": 5,
      "note": 86,
      "start": 59.4323,
      "duration": 0.6143,
      "velocity": 87,
      "chip": "ym2612"
    },
    {
      "channel": 2,
      "note": 68,
      "start": 59.4331,
      "duration": 0.458,
      "velocity": 127,
      "chip": "ym2612"
    },
    {
      "channel": 0,
      "note": 96,
      "start": 59.8946,
      "duration": 1.2316,
      "velocity": 87,
      "chip": "ym2612"
    },
    {
      "channel": 1,
      "note": 50,
      "start": 59.8953,
      "duration": 1.3884,
      "velocity": 99,
      "chip": "ym2612"
    },
    {
      "channel": 3,
      "note": 81,
      "start": 59.8961,
      "duration": 0.0986,
      "velocity": 100,
      "chip": "ym2612"
    },
    {
      "channel": 2,
      "note": 79,
      "start": 59.8976,
      "duration": 0.2524,
      "velocity": 120,
      "chip": "ym2612"
    },
    {
      "channel": 3,
      "note": 84,
      "start": 59.9953,
      "duration": 0.1024,
      "velocity": 100,
      "chip": "ym2612"
    },
    {
      "channel": 4,
      "note": 81,
      "start": 59.9961,
      "duration": 0.1023,
      "velocity": 100,
      "chip": "ym2612"
    },
    {
      "channel": 5,
      "note": 96,
      "start": 60.0472,
      "duration": 1.2375,
      "velocity": 87,
      "chip": "ym2612"
    },
    {
      "channel": 3,
      "note": 86,
      "start": 60.0983,
      "duration": 0.1022,
      "velocity": 100,
      "chip": "ym2612"
    },
    {
      "channel": 4,
      "note": 84,
      "start": 60.0991,
      "duration": 0.1022,
      "velocity": 100,
      "chip": "ym2612"
    },
    {
      "channel": 3,
      "note": 89,
      "start": 60.2012,
      "duration": 0.1023,
      "velocity": 100,
      "chip": "ym2612"
    },
    {
      "channel": 4,
      "note": 86,
      "start": 60.202,
      "duration": 0.1023,
      "velocity": 100,
      "chip": "ym2612"
    },
    {
      "channel": 3,
      "note": 91,
      "start": 60.3041,
      "duration": 0.1034,
      "velocity": 100,
      "chip": "ym2612"
    },
    {
      "channel": 4,
      "note": 89,
      "start": 60.3049,
      "duration": 0.1034,
      "velocity": 100,
      "chip": "ym2612"
    },
    {
      "channel": 3,
      "note": 93,
      "start": 60.408,
      "duration": 0.1017,
      "velocity": 100,
      "chip": "ym2612"
    },
    {
      "channel": 4,
      "note": 91,
      "start": 60.4088,
      "duration": 0.1017,
      "velocity": 100,
      "chip": "ym2612"
    },
    {
      "channel": 3,
      "note": 96,
      "start": 60.5104,
      "duration": 0.102,
      "velocity": 100,
      "chip": "ym2612"
    },
    {
      "channel": 4,
      "note": 93,
      "start": 60.5112,
      "duration": 0.102,
      "velocity": 100,
      "chip": "ym2612"
    },
    {
      "channel": 3,
      "note": 98,
      "start": 60.613,
      "duration": 0.1023,
      "velocity": 100,
      "chip": "ym2612"
    },
    {
      "channel": 4,
      "note": 96,
      "start": 60.6138,
      "duration": 0.1023,
      "velocity": 100,
      "chip": "ym2612"
    },
    {
      "channel": 3,
      "note": 101,
      "start": 60.7159,
      "duration": 0.1023,
      "velocity": 100,
      "chip": "ym2612"
    },
    {
      "channel": 4,
      "note": 98,
      "start": 60.7167,
      "duration": 0.1023,
      "velocity": 100,
      "chip": "ym2612"
    },
    {
      "channel": 3,
      "note": 103,
      "start": 60.8188,
      "duration": 0.1024,
      "velocity": 100,
      "chip": "ym2612"
    },
    {
      "channel": 4,
      "note": 101,
      "start": 60.8196,
      "duration": 0.1037,
      "velocity": 100,
      "chip": "ym2612"
    },
    {
      "channel": 3,
      "note": 105,
      "start": 60.9231,
      "duration": 0.1011,
      "velocity": 100,
      "chip": "ym2612"
    },
    {
      "channel": 4,
      "note": 103,
      "start": 60.9239,
      "duration": 0.1011,
      "velocity": 100,
      "chip": "ym2612"
    },
    {
      "channel": 3,
      "note": 108,
      "start": 61.0249,
      "duration": 0.1026,
      "velocity": 100,
      "chip": "ym2612"
    },
    {
      "channel": 4,
      "note": 105,
      "start": 61.0256,
      "duration": 0.1026,
      "velocity": 100,
      "chip": "ym2612"
    },
    {
      "channel": 0,
      "note": 95,
      "start": 61.1269,
      "duration": 0.3108,
      "velocity": 87,
      "chip": "ym2612"
    },
    {
      "channel": 3,
      "note": 110,
      "start": 61.1281,
      "duration": 1.2368,
      "velocity": 100,
      "chip": "ym2612"
    },
    {
      "channel": 4,
      "note": 108,
      "start": 61.1288,
      "duration": 0.1012,
      "velocity": 100,
      "chip": "ym2612"
    },
    {
      "channel": 4,
      "note": 110,
      "start": 61.2307,
      "duration": 1.135,
      "velocity": 100,
      "chip": "ym2612"
    },
    {
      "channel": 1,
      "note": 50,
      "start": 61.2843,
      "duration": 0.1556,
      "velocity": 99,
      "chip": "ym2612"
    },
    {
      "channel": 5,
      "note": 95,
      "start": 61.2854,
      "duration": 0.3095,
      "velocity": 87,
      "chip": "ym2612"
    },
    {
      "channel": 2,
      "note": 68,
      "start": 61.2863,
      "duration": 0.1487,
      "velocity": 127,
      "chip": "ym2612"
    },
    {
      "channel": 0,
      "note": 96,
      "start": 61.4398,
      "duration": 0.1531,
      "velocity": 87,
      "chip": "ym2612"
    },
    {
      "channel": 1,
      "note": 53,
      "start": 61.4405,
      "duration": 0.1532,
      "velocity": 99,
      "chip": "ym2612"
    },
    {
      "channel": 2,
      "note": 68,
      "start": 61.4422,
      "duration": 0.148,
      "velocity": 127,
      "chip": "ym2612"
    },
    {
      "channel": 0,
      "note": 93,
      "start": 61.5936,
      "duration": 2.6232,
      "velocity": 87,
      "chip": "ym2612"
    },
    {
      "channel": 1,
      "note": 55,
      "start": 61.5943,
      "duration": 0.1526,
      "velocity": 99,
      "chip": "ym2612"
    },
    {
      "channel": 5,
      "note": 96,
      "start": 61.5955,
      "duration": 0.1526,
      "velocity": 87,
      "chip": "ym2612"
    },
    {
      "channel": 2,
      "note": 68,
      "start": 61.5963,
      "duration": 0.1475,
      "velocity": 127,
      "chip": "ym2612"
    },
    {
      "channel": 1,
      "note": 57,
      "start": 61.7475,
      "duration": 0.1538,
      "velocity": 99,
      "chip": "ym2612"
    },
    {
      "channel": 5,
      "note": 93,
      "start": 61.7486,
      "duration": 2.6247,
      "velocity": 87,
      "chip": "ym2612"
    },
    {
      "channel": 2,
      "note": 69,
      "start": 61.7497,
      "duration": 0.1484,
      "velocity": 120,
      "chip": "ym2612"
    },
    {
      "channel": 1,
      "note": 60,
      "start": 61.9018,
      "duration": 0.1512,
      "velocity": 99,
      "chip": "ym2612"
    },
    {
      "channel": 2,
      "note": 68,
      "start": 61.9034,
      "duration": 0.4578,
      "velocity": 127,
      "chip": "ym2612"
    },
    {
      "channel": 1,
      "note": 62,
      "start": 62.0535,
      "duration": 0.1541,
      "velocity": 99,
      "chip": "ym2612"
    },
    {
      "channel": 1,
      "note": 64,
      "start": 62.2082,
      "duration": 0.308,
      "velocity": 99,
      "chip": "ym2612"
    },
    {
      "channel": 3,
      "note": 110,
      "start": 62.3656,
      "duration": 0.0995,
      "velocity": 100,
      "chip": "ym2612"
    },
    {
      "channel": 4,
      "note": 108,
      "start": 62.3663,
      "duration": 0.0474,
      "velocity": 100,
      "chip": "ym2612"
    },
    {
      "channel": 2,
      "note": 79,
      "start": 62.3677,
      "duration": 0.2531,
      "velocity": 120,
      "chip": "ym2612"
    },
    {
      "channel": 4,
      "note": 113,
      "start": 62.4144,
      "duration": 0.0515,
      "velocity": 100,
      "chip": "ym2612"
    },
    {
      "channel": 3,
      "note": 115,
      "start": 62.4657,
      "duration": 0.1022,
      "velocity": 100,
      "chip": "ym2612"
    },
    {
      "channel": 4,
      "note": 108,
      "start": 62.4665,
      "duration": 0.0505,
      "velocity": 100,
      "chip": "ym2612"
    },
    {
      "channel": 1,
      "note": 64,
      "start": 62.5166,
      "duration": 0.1539,
      "velocity": 99,
      "chip": "ym2612"
    },
    {
      "channel": 4,
      "note": 103,
      "start": 62.5176,
      "duration": 0.0511,
      "velocity": 100,
      "chip": "ym2612"
    },
    {
      "channel": 3,
      "note": 110,
      "start": 62.5686,
      "duration": 0.1027,
      "velocity": 100,
      "chip": "ym2612"
    },
    {
      "channel": 4,
      "note": 98,
      "start": 62.5694,
      "duration": 0.0503,
      "velocity": 100,
      "chip": "ym2612"
    },
    {
      "channel": 4,
      "note": 103,
      "start": 62.6202,
      "duration": 0.0532,
      "velocity": 100,
      "chip": "ym2612"
    },
    {
      "channel": 1,
      "note": 62,
      "start": 62.6712,
      "duration": 0.1538,
      "velocity": 99,
      "chip": "ym2612"
    },
    {
      "channel": 3,
      "note": 105,
      "start": 62.6733,
      "duration": 0.101,
      "velocity": 100,
      "chip": "ym2612"
    },
    {
      "channel": 4,
      "note": 108,
      "start": 62.6741,
      "duration": 0.0498,
      "velocity": 100,
      "chip": "ym2612"
    },
    {
      "channel": 4,
      "note": 113,
      "start": 62.7245,
      "duration": 0.0506,
      "velocity": 100,
      "chip": "ym2612"
    },
    {
      "channel": 3,
      "note": 100,
      "start": 62.775,
      "duration": 0.1019,
      "velocity": 100,
      "chip": "ym2612"
    },
    {
      "channel": 4,
      "note": 108,
      "start": 62.7757,
      "duration": 0.0501,
      "velocity": 100,
      "chip": "ym2612"
    },
    {
      "channel": 1,
      "note": 60,
      "start": 62.8255,
      "duration": 0.1538,
      "velocity": 99,
      "chip": "ym2612"
    },
    {
      "channel": 4,
      "note": 103,
      "start": 62.8265,
      "duration": 0.0511,
      "velocity": 100,
      "chip": "ym2612"
    },
    {
      "channel": 3,
      "note": 105,
      "start": 62.8775,
      "duration": 0.1031,
      "velocity": 100,
      "chip": "ym2612"
    },
    {
      "channel": 4,
      "note": 98,
      "start": 62.8782,
      "duration": 0.0502,
      "velocity": 100,
      "chip": "ym2612"
    },
    {
      "channel": 4,
      "note": 103,
      "start": 62.929,
      "duration": 0.0529,
      "velocity": 100,
      "chip": "ym2612"
    },
    {
      "channel": 1,
      "note": 62,
      "start": 62.9799,
      "duration": 0.1538,
      "velocity": 99,
      "chip": "ym2612"
    },
    {
      "channel": 3,
      "note": 110,
      "start": 62.9812,
      "duration": 0.1014,
      "velocity": 100,
      "chip": "ym2612"
    },
    {
      "channel": 4,
      "note": 108,
      "start": 62.9825,
      "duration": 0.0488,
      "velocity": 100,
      "chip": "ym2612"
    },
    {
      "channel": 4,
      "note": 113,
      "start": 63.0319,
      "duration": 0.0515,
      "velocity": 100,
      "chip": "ym2612"
    },
    {
      "channel": 3,
      "note": 115,
      "start": 63.0832,
      "duration": 0.1027,
      "velocity": 100,
      "chip": "ym2612"
    },
    {
      "channel": 4,
      "note": 108,
      "start": 63.084,
      "duration": 0.0506,
      "velocity": 100,
      "chip": "ym2612"
    },
    {
      "channel": 1,
      "note": 62,
      "start": 63.1343,
      "duration": 0.1539,
      "velocity": 99,
      "chip": "ym2612"
    },
    {
      "channel": 4,
      "note": 103,
      "start": 63.1352,
      "duration": 0.0515,
      "velocity": 100,
      "chip": "ym2612"
    },
    {
      "channel": 3,
      "note": 110,
      "start": 63.1866,
      "duration": 0.1037,
      "velocity": 100,
      "chip": "ym2612"
    },
    {
      "channel": 4,
      "note": 98,
      "start": 63.1873,
      "duration": 0.0499,
      "velocity": 100,
      "chip": "ym2612"
    },
    {
      "channel": 4,
      "note": 103,
      "start": 63.2378,
      "duration": 0.0532,
      "velocity": 100,
      "chip": "ym2612"
    },
    {
      "channel": 1,
      "note": 60,
      "start": 63.2901,
      "duration": 0.1524,
      "velocity": 99,
      "chip": "ym2612"
    },
    {
      "channel": 3,
      "note": 105,
      "start": 63.2909,
      "duration": 0.1006,
      "velocity": 100,
      "chip": "ym2612"
    },
    {
      "channel": 4,
      "note": 108,
      "start": 63.2916,
      "duration": 0.0495,
      "velocity": 100,
      "chip": "ym2612"
    },
    {
      "channel": 4,
      "note": 113,
      "start": 63.3418,
      "duration": 0.0504,
      "velocity": 100,
      "chip": "ym2612"
    },
    {
      "channel": 3,
      "note": 100,
      "start": 63.392,
      "duration": 0.1024,
      "velocity": 100,
      "chip": "ym2612"
    },
    {
      "channel": 4,
      "note": 108,
      "start": 63.3928,
      "duration": 0.0506,
      "velocity": 100,
      "chip": "ym2612"
    },
    {
      "channel": 1,
      "note": 57,
      "start": 63.443,
      "duration": 0.1539,
      "velocity": 99,
      "chip": "ym2612"
    },
    {
      "channel": 4,
      "note": 103,
      "start": 63.444,
      "duration": 0.0511,
      "velocity": 100,
      "chip": "ym2612"
    },
    {
      "channel": 3,
      "note": 105,
      "start": 63.495,
      "duration": 0.1031,
      "velocity": 100,
      "chip": "ym2612"
    },
    {
      "channel": 4,
      "note": 98,
      "start": 63.4958,
      "duration": 0.0502,
      "velocity": 100,
      "chip": "ym2612"
    },
    {
      "channel": 4,
      "note": 103,
      "start": 63.5467,
      "duration": 0.0528,
      "velocity": 100,
      "chip": "ym2612"
    },
    {
      "channel": 1,
      "note": 60,
      "start": 63.5975,
      "duration": 0.1566,
      "velocity": 99,
      "chip": "ym2612"
    },
    {
      "channel": 3,
      "note": 110,
      "start": 63.5988,
      "duration": 0.1013,
      "velocity": 100,
      "chip": "ym2612"
    },
    {
      "channel": 4,
      "note": 108,
      "start": 63.6001,
      "duration": 0.0488,
      "velocity": 100,
      "chip": "ym2612"
    },
    {
      "channel": 4,
      "note": 113,
      "start": 63.6495,
      "duration": 0.0514,
      "velocity": 100,
      "chip": "ym2612"
    },
    {
      "channel": 3,
      "note": 115,
      "start": 63.7008,
      "duration": 0.1023,
      "velocity": 100,
      "chip": "ym2612"
    },
    {
      "channel": 4,
      "note": 108,
      "start": 63.7016,
      "duration": 0.0547,
      "velocity": 100,
      "chip": "ym2612"
    },
    {
      "channel": 1,
      "note": 60,
      "start": 63.7546,
      "duration": 0.1552,
      "velocity": 99,
      "chip": "ym2612"
    },
    {
      "channel": 4,
      "note": 103,
      "start": 63.7569,
      "duration": 0.047,
      "velocity": 100,
      "chip": "ym2612"
    },
    {
      "channel": 2,
      "note": 68,
      "start": 63.7581,
      "duration": 0.1484,
      "velocity": 127,
      "chip": "ym2612"
    },
    {
      "channel": 3,
      "note": 110,
      "start": 63.8037,
      "duration": 0.1068,
      "velocity": 100,
      "chip": "ym2612"
    },
    {
      "channel": 4,
      "note": 98,
      "start": 63.8045,
      "duration": 0.0503,
      "velocity": 100,
      "chip": "ym2612"
    },
    {
      "channel": 4,
      "note": 103,
      "start": 63.8567,
      "duration": 0.0546,
      "velocity": 100,
      "chip": "ym2612"
    },
    {
      "channel": 1,
      "note": 57,
      "start": 63.9104,
      "duration": 0.1524,
      "velocity": 99,
      "chip": "ym2612"
    },
    {
      "channel": 3,
      "note": 105,
      "start": 63.9112,
      "duration": 0.0978,
      "velocity": 100,
      "chip": "ym2612"
    },
    {
      "channel": 4,
      "note": 108,
      "start": 63.9119,
      "duration": 0.0458,
      "velocity": 100,
      "chip": "ym2612"
    },
    {
      "channel": 2,
      "note": 68,
      "start": 63.9131,
      "duration": 0.1464,
      "velocity": 127,
      "chip": "ym2612"
    },
    {
      "channel": 4,
      "note": 113,
      "start": 63.9584,
      "duration": 0.0513,
      "velocity": 100,
      "chip": "ym2612"
    },
    {
      "channel": 3,
      "note": 100,
      "start": 64.0095,
      "duration": 0.1024,
      "velocity": 100,
      "chip": "ym2612"
    },
    {
      "channel": 4,
      "note": 108,
      "start": 64.0103,
      "duration": 0.0534,
      "velocity": 100,
      "chip": "ym2612"
    },
    {
      "channel": 1,
      "note": 55,
      "start": 64.0634,
      "duration": 0.1543,
      "velocity": 99,
      "chip": "ym2612"
    },
    {
      "channel": 4,
      "note": 103,
      "start": 64.0644,
      "duration": 0.0483,
      "velocity": 100,
      "chip": "ym2612"
    },
    {
      "channel": 2,
      "note": 68,
      "start": 64.0656,
      "duration": 0.1485,
      "velocity": 127,
      "chip": "ym2612"
    },
    {
      "channel": 3,
      "note": 105,
      "start": 64.1126,
      "duration": 0.1068,
      "velocity": 100,
      "chip": "ym2612"
    },
    {
      "channel": 4,
      "note": 98,
      "start": 64.1133,
      "duration": 0.0502,
      "velocity": 100,
      "chip": "ym2612"
    },
    {
      "channel": 4,
      "note": 103,
      "start": 64.1641,
      "duration": 0.0566,
      "velocity": 100,
      "chip": "ym2612"
    },
    {
      "channel": 0,
      "note": 88,
      "start": 64.2175,
      "duration": 0.6168,
      "velocity": 87,
      "chip": "ym2612"
    },
    {
      "channel": 1,
      "note": 60,
      "start": 64.2182,
      "duration": 0.617,
      "velocity": 99,
      "chip": "ym2612"
    },
    {
      "channel": 2,
      "note": 69,
      "start": 64.2236,
      "duration": 0.1447,
      "velocity": 120,
      "chip": "ym2612"
    },
    {
      "channel": 5,
      "note": 88,
      "start": 64.3739,
      "duration": 0.6131,
      "velocity": 87,
      "chip": "ym2612"
    },
    {
      "channel": 2,
      "note": 68,
      "start": 64.3749,
      "duration": 0.4567,
      "velocity": 127,
      "chip": "ym2612"
    },
    {
      "channel": 0,
      "note": 100,
      "start": 64.835,
      "duration": 1.2317,
      "velocity": 87,
      "chip": "ym2612"
    },
    {
      "channel": 1,
      "note": 48,
      "start": 64.8358,
      "duration": 1.3902,
      "velocity": 99,
      "chip": "ym2612"
    },
    {
      "channel": 3,
      "note": 81,
      "start": 64.8366,
      "duration": 0.0986,
      "velocity": 100,
      "chip": "ym2612"
    },
    {
      "channel": 2,
      "note": 79,
      "start": 64.8379,
      "duration": 0.2536,
      "velocity": 120,
      "chip": "ym2612"
    },
    {
      "channel": 3,
      "note": 84,
      "start": 64.9358,
      "duration": 0.1024,
      "velocity": 100,
      "chip": "ym2612"
    },
    {
      "channel": 4,
      "note": 81,
      "start": 64.9366,
      "duration": 0.1037,
      "velocity": 100,
      "chip": "ym2612"
    },
    {
      "channel": 5,
      "note": 100,
      "start": 64.9877,
      "duration": 1.2395,
      "velocity": 87,
      "chip": "ym2612"
    },
    {
      "channel": 3,
      "note": 86,
      "start": 65.0401,
      "duration": 0.1009,
      "velocity": 100,
      "chip": "ym2612"
    },
    {
      "channel": 4,
      "note": 84,
      "start": 65.0409,
      "duration": 0.1009,
      "velocity": 100,
      "chip": "ym2612"
    },
    {
      "channel": 3,
      "note": 88,
      "start": 65.1416,
      "duration": 0.1024,
      "velocity": 100,
      "chip": "ym2612"
    },
    {
      "channel": 4,
      "note": 86,
      "start": 65.1424,
      "duration": 0.1024,
      "velocity": 100,
      "chip": "ym2612"
    },
    {
      "channel": 3,
      "note": 91,
      "start": 65.2446,
      "duration": 0.1023,
      "velocity": 100,
      "chip": "ym2612"
    },
    {
      "channel": 4,
      "note": 88,
      "start": 65.2454,
      "duration": 0.1023,
      "velocity": 100,
      "chip": "ym2612"
    },
    {
      "channel": 3,
      "note": 93,
      "start": 65.3476,
      "duration": 0.1024,
      "velocity": 100,
      "chip": "ym2612"
    },
    {
      "channel": 4,
      "note": 91,
      "start": 65.3483,
      "duration": 0.1024,
      "velocity": 100,
      "chip": "ym2612"
    },
    {
      "channel": 3,
      "note": 96,
      "start": 65.4505,
      "duration": 0.1024,
      "velocity": 100,
      "chip": "ym2612"
    },
    {
      "channel": 4,
      "note": 93,
      "start": 65.4512,
      "duration": 0.1024,
      "velocity": 100,
      "chip": "ym2612"
    },
    {
      "channel": 3,
      "note": 98,
      "start": 65.5535,
      "duration": 0.1036,
      "velocity": 100,
      "chip": "ym2612"
    },
    {
      "channel": 4,
      "note": 96,
      "start": 65.5542,
      "duration": 0.1036,
      "velocity": 100,
      "chip": "ym2612"
    },
    {
      "channel": 3,
      "note": 100,
      "start": 65.6577,
      "duration": 0.1011,
      "velocity": 100,
      "chip": "ym2612"
    },
    {
      "channel": 4,
      "note": 98,
      "start": 65.6584,
      "duration": 0.1011,
      "velocity": 100,
      "chip": "ym2612"
    },
    {
      "channel": 3,
      "note": 103,
      "start": 65.7593,
      "duration": 0.1027,
      "velocity": 100,
      "chip": "ym2612"
    },
    {
      "channel": 4,
      "note": 100,
      "start": 65.7601,
      "duration": 0.1027,
      "velocity": 100,
      "chip": "ym2612"
    },
    {
      "channel": 3,
      "note": 105,
      "start": 65.8626,
      "duration": 0.102,
      "velocity": 100,
      "chip": "ym2612"
    },
    {
      "channel": 4,
      "note": 103,
      "start": 65.8634,
      "duration": 0.102,
      "velocity": 100,
      "chip": "ym2612"
    },
    {
      "channel": 3,
      "note": 108,
      "start": 65.9652,
      "duration": 0.1027,
      "velocity": 100,
      "chip": "ym2612"
    },
    {
      "channel": 4,
      "note": 105,
      "start": 65.966,
      "duration": 0.1027,
      "velocity": 100,
      "chip": "ym2612"
    },
    {
      "channel": 0,
      "note": 98,
      "start": 66.0674,
      "duration": 0.1578,
      "velocity": 87,
      "chip": "ym2612"
    },
    {
      "channel": 3,
      "note": 112,
      "start": 66.0685,
      "duration": 1.2386,
      "velocity": 100,
      "chip": "ym2612"
    },
    {
      "channel": 4,
      "note": 108,
      "start": 66.0693,
      "duration": 0.1011,
      "velocity": 100,
      "chip": "ym2612"
    },
    {
      "channel": 4,
      "note": 112,
      "start": 66.1711,
      "duration": 1.1368,
      "velocity": 100,
      "chip": "ym2612"
    },
    {
      "channel": 0,
      "note": 96,
      "start": 66.2259,
      "duration": 0.1524,
      "velocity": 87,
      "chip": "ym2612"
    },
    {
      "channel": 1,
      "note": 48,
      "start": 66.2266,
      "duration": 0.1525,
      "velocity": 99,
      "chip": "ym2612"
    },
    {
      "channel": 5,
      "note": 98,
      "start": 66.2278,
      "duration": 0.1524,
      "velocity": 87,
      "chip": "ym2612"
    },
    {
      "channel": 2,
      "note": 68,
      "start": 66.2286,
      "duration": 0.1469,
      "velocity": 127,
      "chip": "ym2612"
    },
    {
      "channel": 0,
      "note": 93,
      "start": 66.3789,
      "duration": 0.1536,
      "velocity": 87,
      "chip": "ym2612"
    },
    {
      "channel": 1,
      "note": 50,
      "start": 66.3797,
      "duration": 0.1537,
      "velocity": 99,
      "chip": "ym2612"
    },
    {
      "channel": 5,
      "note": 96,
      "start": 66.3808,
      "duration": 0.1537,
      "velocity": 87,
      "chip": "ym2612"
    },
    {
      "channel": 2,
      "note": 68,
      "start": 66.3817,
      "duration": 0.1481,
      "velocity": 127,
      "chip": "ym2612"
    },
    {
      "channel": 0,
      "note": 98,
      "start": 66.5332,
      "duration": 0.1538,
      "velocity": 87,
      "chip": "ym2612"
    },
    {
      "channel": 1,
      "note": 52,
      "start": 66.5339,
      "duration": 0.1539,
      "velocity": 99,
      "chip": "ym2612"
    },
    {
      "channel": 5,
      "note": 93,
      "start": 66.5351,
      "duration": 0.1552,
      "velocity": 87,
      "chip": "ym2612"
    },
    {
      "channel": 2,
      "note": 68,
      "start": 66.536,
      "duration": 0.1483,
      "velocity": 127,
      "chip": "ym2612"
    },
    {
      "channel": 0,
      "note": 96,
      "start": 66.6878,
      "duration": 2.4709,
      "velocity": 87,
      "chip": "ym2612"
    },
    {
      "channel": 1,
      "note": 55,
      "start": 66.6898,
      "duration": 0.1534,
      "velocity": 99,
      "chip": "ym2612"
    },
    {
      "channel": 5,
      "note": 98,
      "start": 66.6909,
      "duration": 0.1533,
      "velocity": 87,
      "chip": "ym2612"
    },
    {
      "channel": 2,
      "note": 69,
      "start": 66.6919,
      "duration": 0.1481,
      "velocity": 120,
      "chip": "ym2612"
    },
    {
      "channel": 1,
      "note": 57,
      "start": 66.8437,
      "duration": 0.1496,
      "velocity": 99,
      "chip": "ym2612"
    },
    {
      "channel": 5,
      "note": 96,
      "start": 66.8449,
      "duration": 2.4676,
      "velocity": 87,
      "chip": "ym2612"
    },
    {
      "channel": 2,
      "note": 68,
      "start": 66.8458,
      "duration": 0.456,
      "velocity": 127,
      "chip": "ym2612"
    },
    {
      "channel": 1,
      "note": 60,
      "start": 66.994,
      "duration": 0.1537,
      "velocity": 99,
      "chip": "ym2612"
    },
    {
      "channel": 1,
      "note": 62,
      "start": 67.1483,
      "duration": 0.1581,
      "velocity": 99,
      "chip": "ym2612"
    },
    {
      "channel": 1,
      "note": 64,
      "start": 67.307,
      "duration": 0.3041,
      "velocity": 99,
      "chip": "ym2612"
    },
    {
      "channel": 3,
      "note": 112,
      "start": 67.3078,
      "duration": 0.099,
      "velocity": 100,
      "chip": "ym2612"
    },
    {
      "channel": 4,
      "note": 112,
      "start": 67.3085,
      "duration": 0.1493,
      "velocity": 100,
      "chip": "ym2612"
    },
    {
      "channel": 2,
      "note": 79,
      "start": 67.3099,
      "duration": 0.2509,
      "velocity": 120,
      "chip": "ym2612"
    },
    {
      "channel": 3,
      "note": 110,
      "start": 67.4075,
      "duration": 0.101,
      "velocity": 100,
      "chip": "ym2612"
    },
    {
      "channel": 4,
      "note": 110,
      "start": 67.4584,
      "duration": 0.1541,
      "velocity": 100,
      "chip": "ym2612"
    },
    {
      "channel": 3,
      "note": 108,
      "start": 67.5091,
      "duration": 0.1027,
      "velocity": 100,
      "chip": "ym2612"
    },
    {
      "channel": 1,
      "note": 62,
      "start": 67.6117,
      "duration": 0.1537,
      "velocity": 99,
      "chip": "ym2612"
    },
    {
      "channel": 3,
      "note": 105,
      "start": 67.6124,
      "duration": 0.1019,
      "velocity": 100,
      "chip": "ym2612"
    },
    {
      "channel": 4,
      "note": 108,
      "start": 67.6132,
      "duration": 0.1531,
      "velocity": 100,
      "chip": "ym2612"
    },
    {
      "channel": 3,
      "note": 103,
      "start": 67.7149,
      "duration": 0.1024,
      "velocity": 100,
      "chip": "ym2612"
    },
    {
      "channel": 1,
      "note": 60,
      "start": 67.766,
      "duration": 0.1537,
      "velocity": 99,
      "chip": "ym2612"
    },
    {
      "channel": 4,
      "note": 105,
      "start": 67.767,
      "duration": 0.1543,
      "velocity": 100,
      "chip": "ym2612"
    },
    {
      "channel": 3,
      "note": 100,
      "start": 67.8178,
      "duration": 0.1027,
      "velocity": 100,
      "chip": "ym2612"
    },
    {
      "channel": 1,
      "note": 62,
      "start": 67.9203,
      "duration": 0.3082,
      "velocity": 99,
      "chip": "ym2612"
    },
    {
      "channel": 3,
      "note": 98,
      "start": 67.9212,
      "duration": 0.1031,
      "velocity": 100,
      "chip": "ym2612"
    },
    {
      "channel": 4,
      "note": 103,
      "start": 67.9232,
      "duration": 0.1516,
      "velocity": 100,
      "chip": "ym2612"
    },
    {
      "channel": 3,
      "note": 96,
      "start": 68.0248,
      "duration": 0.1012,
      "velocity": 100,
      "chip": "ym2612"
    },
    {
      "channel": 4,
      "note": 100,
      "start": 68.0754,
      "duration": 0.1546,
      "velocity": 100,
      "chip": "ym2612"
    },
    {
      "channel": 3,
      "note": 93,
      "start": 68.1266,
      "duration": 0.1027,
      "velocity": 100,
      "chip": "ym2612"
    },
    {
      "channel": 1,
      "note": 60,
      "start": 68.2292,
      "duration": 0.1538,
      "velocity": 99,
      "chip": "ym2612"
    },
    {
      "channel": 3,
      "note": 91,
      "start": 68.2299,
      "duration": 0.102,
      "velocity": 100,
      "chip": "ym2612"
    },
    {
      "channel": 4,
      "note": 98,
      "start": 68.2307,
      "duration": 0.1532,
      "velocity": 100,
      "chip": "ym2612"
    },
    {
      "channel": 3,
      "note": 88,
      "start": 68.3325,
      "duration": 0.1023,
      "velocity": 100,
      "chip": "ym2612"
    },
    {
      "channel": 1,
      "note": 57,
      "start": 68.3836,
      "duration": 0.1541,
      "velocity": 99,
      "chip": "ym2612"
    },
    {
      "channel": 4,
      "note": 96,
      "start": 68.3846,
      "duration": 0.156,
      "velocity": 100,
      "chip": "ym2612"
    },
    {
      "channel": 3,
      "note": 86,
      "start": 68.4354,
      "duration": 0.1045,
      "velocity": 100,
      "chip": "ym2612"
    },
    {
      "channel": 1,
      "note": 60,
      "start": 68.5397,
      "duration": 0.1548,
      "velocity": 99,
      "chip": "ym2612"
    },
    {
      "channel": 3,
      "note": 84,
      "start": 68.5405,
      "duration": 0.1006,
      "velocity": 100,
      "chip": "ym2612"
    },
    {
      "channel": 4,
      "note": 98,
      "start": 68.5412,
      "duration": 0.1542,
      "velocity": 100,
      "chip": "ym2612"
    },
    {
      "channel": 3,
      "note": 81,
      "start": 68.6418,
      "duration": 0.1018,
      "velocity": 100,
      "chip": "ym2612"
    },
    {
      "channel": 1,
      "note": 55,
      "start": 68.6951,
      "duration": 0.1537,
      "velocity": 99,
      "chip": "ym2612"
    },
    {
      "channel": 4,
      "note": 96,
      "start": 68.696,
      "duration": 0.1543,
      "velocity": 100,
      "chip": "ym2612"
    },
    {
      "channel": 2,
      "note": 68,
      "start": 68.6972,
      "duration": 0.1483,
      "velocity": 127,
      "chip": "ym2612"
    },
    {
      "channel": 3,
      "note": 79,
      "start": 68.7442,
      "duration": 0.1054,
      "velocity": 100,
      "chip": "ym2612"
    },
    {
      "channel": 1,
      "note": 57,
      "start": 68.8495,
      "duration": 0.1538,
      "velocity": 99,
      "chip": "ym2612"
    },
    {
      "channel": 3,
      "note": 76,
      "start": 68.8502,
      "duration": 0.0993,
      "velocity": 100,
      "chip": "ym2612"
    },
    {
      "channel": 4,
      "note": 93,
      "start": 68.8509,
      "duration": 0.1533,
      "velocity": 100,
      "chip": "ym2612"
    },
    {
      "channel": 2,
      "note": 68,
      "start": 68.8521,
      "duration": 0.1479,
      "velocity": 127,
      "chip": "ym2612"
    },
    {
      "channel": 3,
      "note": 74,
      "start": 68.95,
      "duration": 0.1024,
      "velocity": 100,
      "chip": "ym2612"
    },
    {
      "channel": 1,
      "note": 60,
      "start": 69.0039,
      "duration": 0.1556,
      "velocity": 99,
      "chip": "ym2612"
    },
    {
      "channel": 4,
      "note": 91,
      "start": 69.0048,
      "duration": 0.156,
      "velocity": 100,
      "chip": "ym2612"
    },
    {
      "channel": 2,
      "note": 68,
      "start": 69.0074,
      "duration": 0.1471,
      "velocity": 127,
      "chip": "ym2612"
    },
    {
      "channel": 3,
      "note": 72,
      "start": 69.053,
      "duration": 0.1074,
      "velocity": 100,
      "chip": "ym2612"
    },
    {
      "channel": 0,
      "note": 86,
      "start": 69.1594,
      "duration": 0.6172,
      "velocity": 87,
      "chip": "ym2612"
    },
    {
      "channel": 1,
      "note": 62,
      "start": 69.1601,
      "duration": 0.6174,
      "velocity": 99,
      "chip": "ym2612"
    },
    {
      "channel": 2,
      "note": 69,
      "start": 69.1623,
      "duration": 0.1464,
      "velocity": 120,
      "chip": "ym2612"
    },
    {
      "channel": 5,
      "note": 86,
      "start": 69.3131,
      "duration": 0.6144,
      "velocity": 87,
      "chip": "ym2612"
    },
    {
      "channel": 2,
      "note": 68,
      "start": 69.3139,
      "duration": 0.4599,
      "velocity": 127,
      "chip": "ym2612"
    },
    {
      "channel": 0,
      "note": 96,
      "start": 69.7773,
      "duration": 1.2298,
      "velocity": 87,
      "chip": "ym2612"
    },
    {
      "channel": 1,
      "note": 50,
      "start": 69.778,
      "duration": 1.3866,
      "velocity": 99,
      "chip": "ym2612"
    },
    {
      "channel": 3,
      "note": 81,
      "start": 69.7788,
      "duration": 0.0973,
      "velocity": 100,
      "chip": "ym2612"
    },
    {
      "channel": 2,
      "note": 79,
      "start": 69.7802,
      "duration": 0.2506,
      "velocity": 120,
      "chip": "ym2612"
    },
    {
      "channel": 3,
      "note": 84,
      "start": 69.8766,
      "duration": 0.102,
      "velocity": 100,
      "chip": "ym2612"
    },
    {
      "channel": 4,
      "note": 81,
      "start": 69.8774,
      "duration": 0.102,
      "velocity": 100,
      "chip": "ym2612"
    },
    {
      "channel": 5,
      "note": 96,
      "start": 69.9281,
      "duration": 1.2376,
      "velocity": 87,
      "chip": "ym2612"
    },
    {
      "channel": 3,
      "note": 86,
      "start": 69.9792,
      "duration": 0.1022,
      "velocity": 100,
      "chip": "ym2612"
    },
    {
      "channel": 4,
      "note": 84,
      "start": 69.98,
      "duration": 0.1022,
      "velocity": 100,
      "chip": "ym2612"
    },
    {
      "channel": 3,
      "note": 89,
      "start": 70.0821,
      "duration": 0.1024,
      "velocity": 100,
      "chip": "ym2612"
    },
    {
      "channel": 4,
      "note": 86,
      "start": 70.0829,
      "duration": 0.1024,
      "velocity": 100,
      "chip": "ym2612"
    },
    {
      "channel": 3,
      "note": 91,
      "start": 70.1851,
      "duration": 0.1022,
      "velocity": 100,
      "chip": "ym2612"
    },
    {
      "channel": 4,
      "note": 89,
      "start": 70.1859,
      "duration": 0.1022,
      "velocity": 100,
      "chip": "ym2612"
    },
    {
      "channel": 3,
      "note": 93,
      "start": 70.2879,
      "duration": 0.1029,
      "velocity": 100,
      "chip": "ym2612"
    },
    {
      "channel": 4,
      "note": 91,
      "start": 70.29,
      "duration": 0.1017,
      "velocity": 100,
      "chip": "ym2612"
    },
    {
      "channel": 3,
      "note": 96,
      "start": 70.3915,
      "duration": 0.1018,
      "velocity": 100,
      "chip": "ym2612"
    },
    {
      "channel": 4,
      "note": 93,
      "start": 70.3923,
      "duration": 0.1019,
      "velocity": 100,
      "chip": "ym2612"
    },
    {
      "channel": 3,
      "note": 98,
      "start": 70.4939,
      "duration": 0.1024,
      "velocity": 100,
      "chip": "ym2612"
    },
    {
      "channel": 4,
      "note": 96,
      "start": 70.4947,
      "duration": 0.1024,
      "velocity": 100,
      "chip": "ym2612"
    },
    {
      "channel": 3,
      "note": 101,
      "start": 70.5969,
      "duration": 0.1023,
      "velocity": 100,
      "chip": "ym2612"
    },
    {
      "channel": 4,
      "note": 98,
      "start": 70.5977,
      "duration": 0.1023,
      "velocity": 100,
      "chip": "ym2612"
    },
    {
      "channel": 3,
      "note": 103,
      "start": 70.6998,
      "duration": 0.1023,
      "velocity": 100,
      "chip": "ym2612"
    },
    {
      "channel": 4,
      "note": 101,
      "start": 70.7005,
      "duration": 0.1023,
      "velocity": 100,
      "chip": "ym2612"
    },
    {
      "channel": 3,
      "note": 105,
      "start": 70.8027,
      "duration": 0.1037,
      "velocity": 100,
      "chip": "ym2612"
    },
    {
      "channel": 4,
      "note": 103,
      "start": 70.8035,
      "duration": 0.1037,
      "velocity": 100,
      "chip": "ym2612"
    },
    {
      "channel": 3,
      "note": 108,
      "start": 70.907,
      "duration": 0.1013,
      "velocity": 100,
      "chip": "ym2612"
    },
    {
      "channel": 4,
      "note": 105,
      "start": 70.9079,
      "duration": 0.1013,
      "velocity": 100,
      "chip": "ym2612"
    },
    {
      "channel": 0,
      "note": 95,
      "start": 71.0079,
      "duration": 0.3107,
      "velocity": 87,
      "chip": "ym2612"
    },
    {
      "channel": 3,
      "note": 110,
      "start": 71.009,
      "duration": 1.2369,
      "velocity": 100,
      "chip": "ym2612"
    },
    {
      "channel": 4,
      "note": 108,
      "start": 71.0098,
      "duration": 0.1011,
      "velocity": 100,
      "chip": "ym2612"
    },
    {
      "channel": 4,
      "note": 110,
      "start": 71.1115,
      "duration": 1.1351,
      "velocity": 100,
      "chip": "ym2612"
    },
    {
      "channel": 1,
      "note": 50,
      "start": 71.1652,
      "duration": 0.1543,
      "velocity": 99,
      "chip": "ym2612"
    },
    {
      "channel": 5,
      "note": 95,
      "start": 71.1664,
      "duration": 0.3101,
      "velocity": 87,
      "chip": "ym2612"
    },
    {
      "channel": 2,
      "note": 68,
      "start": 71.1673,
      "duration": 0.1485,
      "velocity": 127,
      "chip": "ym2612"
    },
    {
      "channel": 0,
      "note": 96,
      "start": 71.3193,
      "duration": 0.1551,
      "velocity": 87,
      "chip": "ym2612"
    },
    {
      "channel": 1,
      "note": 53,
      "start": 71.3201,
      "duration": 0.1553,
      "velocity": 99,
      "chip": "ym2612"
    },
    {
      "channel": 2,
      "note": 68,
      "start": 71.3229,
      "duration": 0.1474,
      "velocity": 127,
      "chip": "ym2612"
    },
    {
      "channel": 0,
      "note": 93,
      "start": 71.4752,
      "duration": 2.6226,
      "velocity": 87,
      "chip": "ym2612"
    },
    {
      "channel": 1,
      "note": 55,
      "start": 71.4759,
      "duration": 0.152,
      "velocity": 99,
      "chip": "ym2612"
    },
    {
      "channel": 5,
      "note": 96,
      "start": 71.4771,
      "duration": 0.152,
      "velocity": 87,
      "chip": "ym2612"
    },
    {
      "channel": 2,
      "note": 68,
      "start": 71.4779,
      "duration": 0.1469,
      "velocity": 127,
      "chip": "ym2612"
    },
    {
      "channel": 1,
      "note": 57,
      "start": 71.6285,
      "duration": 0.1537,
      "velocity": 99,
      "chip": "ym2612"
    },
    {
      "channel": 5,
      "note": 93,
      "start": 71.6297,
      "duration": 2.6233,
      "velocity": 87,
      "chip": "ym2612"
    },
    {
      "channel": 2,
      "note": 69,
      "start": 71.6307,
      "duration": 0.1484,
      "velocity": 120,
      "chip": "ym2612"
    },
    {
      "channel": 1,
      "note": 60,
      "start": 71.7829,
      "duration": 0.151,
      "velocity": 99,
      "chip": "ym2612"
    },
    {
      "channel": 2,
      "note": 68,
      "start": 71.7844,
      "duration": 0.4578,
      "velocity": 127,
      "chip": "ym2612"
    },
    {
      "channel": 1,
      "note": 62,
      "start": 71.9344,
      "duration": 0.1552,
      "velocity": 99,
      "chip": "ym2612"
    },
    {
      "channel": 1,
      "note": 64,
      "start": 72.0902,
      "duration": 0.3069,
      "velocity": 99,
      "chip": "ym2612"
    },
    {
      "channel": 3,
      "note": 110,
      "start": 72.2465,
      "duration": 0.0995,
      "velocity": 100,
      "chip": "ym2612"
    },
    {
      "channel": 4,
      "note": 108,
      "start": 72.2473,
      "duration": 0.0474,
      "velocity": 100,
      "chip": "ym2612"
    },
    {
      "channel": 2,
      "note": 79,
      "start": 72.2486,
      "duration": 0.2531,
      "velocity": 120,
      "chip": "ym2612"
    },
    {
      "channel": 4,
      "note": 113,
      "start": 72.2953,
      "duration": 0.0515,
      "velocity": 100,
      "chip": "ym2612"
    },
    {
      "channel": 3,
      "note": 115,
      "start": 72.3467,
      "duration": 0.1022,
      "velocity": 100,
      "chip": "ym2612"
    },
    {
      "channel": 4,
      "note": 108,
      "start": 72.3474,
      "duration": 0.0505,
      "velocity": 100,
      "chip": "ym2612"
    },
    {
      "channel": 1,
      "note": 64,
      "start": 72.3976,
      "duration": 0.1543,
      "velocity": 99,
      "chip": "ym2612"
    },
    {
      "channel": 4,
      "note": 103,
      "start": 72.3985,
      "duration": 0.0512,
      "velocity": 100,
      "chip": "ym2612"
    },
    {
      "channel": 3,
      "note": 110,
      "start": 72.4495,
      "duration": 0.1031,
      "velocity": 100,
      "chip": "ym2612"
    },
    {
      "channel": 4,
      "note": 98,
      "start": 72.4503,
      "duration": 0.0503,
      "velocity": 100,
      "chip": "ym2612"
    },
    {
      "channel": 4,
      "note": 103,
      "start": 72.5012,
      "duration": 0.0522,
      "velocity": 100,
      "chip": "ym2612"
    },
    {
      "channel": 1,
      "note": 62,
      "start": 72.5524,
      "duration": 0.1548,
      "velocity": 99,
      "chip": "ym2612"
    },
    {
      "channel": 3,
      "note": 105,
      "start": 72.5532,
      "duration": 0.1016,
      "velocity": 100,
      "chip": "ym2612"
    },
    {
      "channel": 4,
      "note": 108,
      "start": 72.554,
      "duration": 0.0496,
      "velocity": 100,
      "chip": "ym2612"
    },
    {
      "channel": 4,
      "note": 113,
      "start": 72.6041,
      "duration": 0.0527,
      "velocity": 100,
      "chip": "ym2612"
    },
    {
      "channel": 3,
      "note": 100,
      "start": 72.6567,
      "duration": 0.101,
      "velocity": 100,
      "chip": "ym2612"
    },
    {
      "channel": 4,
      "note": 108,
      "start": 72.6575,
      "duration": 0.0507,
      "velocity": 100,
      "chip": "ym2612"
    },
    {
      "channel": 1,
      "note": 60,
      "start": 72.7078,
      "duration": 0.1525,
      "velocity": 99,
      "chip": "ym2612"
    },
    {
      "channel": 4,
      "note": 103,
      "start": 72.7088,
      "duration": 0.0498,
      "velocity": 100,
      "chip": "ym2612"
    },
    {
      "channel": 3,
      "note": 105,
      "start": 72.7584,
      "duration": 0.1031,
      "velocity": 100,
      "chip": "ym2612"
    },
    {
      "channel": 4,
      "note": 98,
      "start": 72.7591,
      "duration": 0.0502,
      "velocity": 100,
      "chip": "ym2612"
    },
    {
      "channel": 4,
      "note": 103,
      "start": 72.81,
      "duration": 0.0529,
      "velocity": 100,
      "chip": "ym2612"
    },
    {
      "channel": 1,
      "note": 62,
      "start": 72.8608,
      "duration": 0.1538,
      "velocity": 99,
      "chip": "ym2612"
    },
    {
      "channel": 3,
      "note": 110,
      "start": 72.8621,
      "duration": 0.1015,
      "velocity": 100,
      "chip": "ym2612"
    },
    {
      "channel": 4,
      "note": 108,
      "start": 72.8634,
      "duration": 0.0489,
      "velocity": 100,
      "chip": "ym2612"
    },
    {
      "channel": 4,
      "note": 113,
      "start": 72.9129,
      "duration": 0.0514,
      "velocity": 100,
      "chip": "ym2612"
    },
    {
      "channel": 3,
      "note": 115,
      "start": 72.9642,
      "duration": 0.1024,
      "velocity": 100,
      "chip": "ym2612"
    },
    {
      "channel": 4,
      "note": 108,
      "start": 72.965,
      "duration": 0.0506,
      "velocity": 100,
      "chip": "ym2612"
    },
    {
      "channel": 1,
      "note": 62,
      "start": 73.0152,
      "duration": 0.1539,
      "velocity": 99,
      "chip": "ym2612"
    },
    {
      "channel": 4,
      "note": 103,
      "start": 73.0162,
      "duration": 0.0512,
      "velocity": 100,
      "chip": "ym2612"
    },
    {
      "channel": 3,
      "note": 110,
      "start": 73.0672,
      "duration": 0.1027,
      "velocity": 100,
      "chip": "ym2612"
    },
    {
      "channel": 4,
      "note": 98,
      "start": 73.068,
      "duration": 0.0502,
      "velocity": 100,
      "chip": "ym2612"
    },
    {
      "channel": 4,
      "note": 103,
      "start": 73.1187,
      "duration": 0.0519,
      "velocity": 100,
      "chip": "ym2612"
    },
    {
      "channel": 1,
      "note": 60,
      "start": 73.1697,
      "duration": 0.1542,
      "velocity": 99,
      "chip": "ym2612"
    },
    {
      "channel": 3,
      "note": 105,
      "start": 73.1705,
      "duration": 0.1032,
      "velocity": 100,
      "chip": "ym2612"
    },
    {
      "channel": 4,
      "note": 108,
      "start": 73.1713,
      "duration": 0.0498,
      "velocity": 100,
      "chip": "ym2612"
    },
    {
      "channel": 4,
      "note": 113,
      "start": 73.223,
      "duration": 0.0515,
      "velocity": 100,
      "chip": "ym2612"
    },
    {
      "channel": 3,
      "note": 100,
      "start": 73.2744,
      "duration": 0.1009,
      "velocity": 100,
      "chip": "ym2612"
    },
    {
      "channel": 4,
      "note": 108,
      "start": 73.2752,
      "duration": 0.0496,
      "velocity": 100,
      "chip": "ym2612"
    },
    {
      "channel": 1,
      "note": 57,
      "start": 73.3245,
      "duration": 0.1534,
      "velocity": 99,
      "chip": "ym2612"
    },
    {
      "channel": 4,
      "note": 103,
      "start": 73.3254,
      "duration": 0.0506,
      "velocity": 100,
      "chip": "ym2612"
    },
    {
      "channel": 3,
      "note": 105,
      "start": 73.3759,
      "duration": 0.1032,
      "velocity": 100,
      "chip": "ym2612"
    },
    {
      "channel": 4,
      "note": 98,
      "start": 73.3767,
      "duration": 0.0502,
      "velocity": 100,
      "chip": "ym2612"
    },
    {
      "channel": 4,
      "note": 103,
      "start": 73.4276,
      "duration": 0.0528,
      "velocity": 100,
      "chip": "ym2612"
    },
    {
      "channel": 1,
      "note": 60,
      "start": 73.4785,
      "duration": 0.1566,
      "velocity": 99,
      "chip": "ym2612"
    },
    {
      "channel": 3,
      "note": 110,
      "start": 73.4798,
      "duration": 0.1014,
      "velocity": 100,
      "chip": "ym2612"
    },
    {
      "channel": 4,
      "note": 108,
      "start": 73.4811,
      "duration": 0.0488,
      "velocity": 100,
      "chip": "ym2612"
    },
    {
      "channel": 4,
      "note": 113,
      "start": 73.5304,
      "duration": 0.0515,
      "velocity": 100,
      "chip": "ym2612"
    },
    {
      "channel": 3,
      "note": 115,
      "start": 73.5818,
      "duration": 0.1023,
      "velocity": 100,
      "chip": "ym2612"
    },
    {
      "channel": 4,
      "note": 108,
      "start": 73.5825,
      "duration": 0.0534,
      "velocity": 100,
      "chip": "ym2612"
    },
    {
      "channel": 1,
      "note": 60,
      "start": 73.6356,
      "duration": 0.1551,
      "velocity": 99,
      "chip": "ym2612"
    },
    {
      "channel": 4,
      "note": 103,
      "start": 73.6366,
      "duration": 0.0483,
      "velocity": 100,
      "chip": "ym2612"
    },
    {
      "channel": 2,
      "note": 68,
      "start": 73.6378,
      "duration": 0.1483,
      "velocity": 127,
      "chip": "ym2612"
    },
    {
      "channel": 3,
      "note": 110,
      "start": 73.6847,
      "duration": 0.1068,
      "velocity": 100,
      "chip": "ym2612"
    },
    {
      "channel": 4,
      "note": 98,
      "start": 73.6855,
      "duration": 0.0502,
      "velocity": 100,
      "chip": "ym2612"
    },
    {
      "channel": 4,
      "note": 103,
      "start": 73.7363,
      "duration": 0.0559,
      "velocity": 100,
      "chip": "ym2612"
    },
    {
      "channel": 1,
      "note": 57,
      "start": 73.7913,
      "duration": 0.1524,
      "velocity": 99,
      "chip": "ym2612"
    },
    {
      "channel": 3,
      "note": 105,
      "start": 73.7921,
      "duration": 0.0992,
      "velocity": 100,
      "chip": "ym2612"
    },
    {
      "channel": 4,
      "note": 108,
      "start": 73.7928,
      "duration": 0.0471,
      "velocity": 100,
      "chip": "ym2612"
    },
    {
      "channel": 2,
      "note": 68,
      "start": 73.7941,
      "duration": 0.1464,
      "velocity": 127,
      "chip": "ym2612"
    },
    {
      "channel": 4,
      "note": 113,
      "start": 73.8405,
      "duration": 0.0515,
      "velocity": 100,
      "chip": "ym2612"
    },
    {
      "channel": 3,
      "note": 100,
      "start": 73.8919,
      "duration": 0.101,
      "velocity": 100,
      "chip": "ym2612"
    },
    {
      "channel": 4,
      "note": 108,
      "start": 73.8927,
      "duration": 0.052,
      "velocity": 100,
      "chip": "ym2612"
    },
    {
      "channel": 1,
      "note": 55,
      "start": 73.9443,
      "duration": 0.1543,
      "velocity": 99,
      "chip": "ym2612"
    },
    {
      "channel": 4,
      "note": 103,
      "start": 73.9453,
      "duration": 0.0483,
      "velocity": 100,
      "chip": "ym2612"
    },
    {
      "channel": 2,
      "note": 68,
      "start": 73.9465,
      "duration": 0.1485,
      "velocity": 127,
      "chip": "ym2612"
    },
    {
      "channel": 3,
      "note": 105,
      "start": 73.9935,
      "duration": 0.1069,
      "velocity": 100,
      "chip": "ym2612"
    },
    {
      "channel": 4,
      "note": 98,
      "start": 73.9942,
      "duration": 0.0502,
      "velocity": 100,
      "chip": "ym2612"
    },
    {
      "channel": 4,
      "note": 103,
      "start": 74.045,
      "duration": 0.0567,
      "velocity": 100,
      "chip": "ym2612"
    },
    {
      "channel": 0,
      "note": 88,
      "start": 74.0985,
      "duration": 0.6168,
      "velocity": 87,
      "chip": "ym2612"
    },
    {
      "channel": 1,
      "note": 60,
      "start": 74.0993,
      "duration": 0.6168,
      "velocity": 99,
      "chip": "ym2612"
    },
    {
      "channel": 2,
      "note": 69,
      "start": 74.1033,
      "duration": 0.1461,
      "velocity": 120,
      "chip": "ym2612"
    },
    {
      "channel": 5,
      "note": 88,
      "start": 74.2536,
      "duration": 0.6144,
      "velocity": 87,
      "chip": "ym2612"
    },
    {
      "channel": 2,
      "note": 68,
      "start": 74.2545,
      "duration": 0.458,
      "velocity": 127,
      "chip": "ym2612"
    },
    {
      "channel": 0,
      "note": 100,
      "start": 74.716,
      "duration": 1.2317,
      "velocity": 87,
      "chip": "ym2612"
    },
    {
      "channel": 1,
      "note": 48,
      "start": 74.7167,
      "duration": 1.3903,
      "velocity": 99,
      "chip": "ym2612"
    },
    {
      "channel": 3,
      "note": 81,
      "start": 74.7175,
      "duration": 0.0987,
      "velocity": 100,
      "chip": "ym2612"
    },
    {
      "channel": 2,
      "note": 79,
      "start": 74.7189,
      "duration": 0.2523,
      "velocity": 120,
      "chip": "ym2612"
    },
    {
      "channel": 3,
      "note": 84,
      "start": 74.8168,
      "duration": 0.1023,
      "velocity": 100,
      "chip": "ym2612"
    },
    {
      "channel": 4,
      "note": 81,
      "start": 74.8175,
      "duration": 0.1023,
      "velocity": 100,
      "chip": "ym2612"
    },
    {
      "channel": 5,
      "note": 100,
      "start": 74.8686,
      "duration": 1.2395,
      "velocity": 87,
      "chip": "ym2612"
    },
    {
      "channel": 3,
      "note": 86,
      "start": 74.9197,
      "duration": 0.1036,
      "velocity": 100,
      "chip": "ym2612"
    },
    {
      "channel": 4,
      "note": 84,
      "start": 74.9205,
      "duration": 0.1036,
      "velocity": 100,
      "chip": "ym2612"
    },
    {
      "channel": 3,
      "note": 88,
      "start": 75.0239,
      "duration": 0.101,
      "velocity": 100,
      "chip": "ym2612"
    },
    {
      "channel": 4,
      "note": 86,
      "start": 75.0247,
      "duration": 0.101,
      "velocity": 100,
      "chip": "ym2612"
    },
    {
      "channel": 3,
      "note": 91,
      "start": 75.1255,
      "duration": 0.1027,
      "velocity": 100,
      "chip": "ym2612"
    },
    {
      "channel": 4,
      "note": 88,
      "start": 75.1262,
      "duration": 0.1027,
      "velocity": 100,
      "chip": "ym2612"
    },
    {
      "channel": 3,
      "note": 93,
      "start": 75.2288,
      "duration": 0.102,
      "velocity": 100,
      "chip": "ym2612"
    },
    {
      "channel": 4,
      "note": 91,
      "start": 75.2295,
      "duration": 0.102,
      "velocity": 100,
      "chip": "ym2612"
    },
    {
      "channel": 3,
      "note": 96,
      "start": 75.3314,
      "duration": 0.1023,
      "velocity": 100,
      "chip": "ym2612"
    },
    {
      "channel": 4,
      "note": 93,
      "start": 75.3322,
      "duration": 0.1024,
      "velocity": 100,
      "chip": "ym2612"
    },
    {
      "channel": 3,
      "note": 98,
      "start": 75.4344,
      "duration": 0.1024,
      "velocity": 100,
      "chip": "ym2612"
    },
    {
      "channel": 4,
      "note": 96,
      "start": 75.4351,
      "duration": 0.1024,
      "velocity": 100,
      "chip": "ym2612"
    },
    {
      "channel": 3,
      "note": 100,
      "start": 75.5373,
      "duration": 0.1036,
      "velocity": 100,
      "chip": "ym2612"
    },
    {
      "channel": 4,
      "note": 98,
      "start": 75.5381,
      "duration": 0.1036,
      "velocity": 100,
      "chip": "ym2612"
    },
    {
      "channel": 3,
      "note": 103,
      "start": 75.6415,
      "duration": 0.1011,
      "velocity": 100,
      "chip": "ym2612"
    },
    {
      "channel": 4,
      "note": 100,
      "start": 75.6423,
      "duration": 0.1011,
      "velocity": 100,
      "chip": "ym2612"
    },
    {
      "channel": 3,
      "note": 105,
      "start": 75.7432,
      "duration": 0.1023,
      "velocity": 100,
      "chip": "ym2612"
    },
    {
      "channel": 4,
      "note": 103,
      "start": 75.744,
      "duration": 0.1023,
      "velocity": 100,
      "chip": "ym2612"
    },
    {
      "channel": 3,
      "note": 108,
      "start": 75.8461,
      "duration": 0.1027,
      "velocity": 100,
      "chip": "ym2612"
    },
    {
      "channel": 4,
      "note": 105,
      "start": 75.8469,
      "duration": 0.1027,
      "velocity": 100,
      "chip": "ym2612"
    },
    {
      "channel": 0,
      "note": 98,
      "start": 75.9484,
      "duration": 0.1564,
      "velocity": 87,
      "chip": "ym2612"
    },
    {
      "channel": 3,
      "note": 112,
      "start": 75.9495,
      "duration": 0.6205,
      "velocity": 100,
      "chip": "ym2612"
    },
    {
      "channel": 4,
      "note": 108,
      "start": 75.9503,
      "duration": 0.1011,
      "velocity": 100,
      "chip": "ym2612"
    },
    {
      "channel": 4,
      "note": 112,
      "start": 76.0521,
      "duration": 0.5188,
      "velocity": 100,
      "chip": "ym2612"
    },
    {
      "channel": 0,
      "note": 96,
      "start": 76.1069,
      "duration": 0.1526,
      "velocity": 87,
      "chip": "ym2612"
    },
    {
      "channel": 1,
      "note": 48,
      "start": 76.1076,
      "duration": 0.1527,
      "velocity": 99,
      "chip": "ym2612"
    },
    {
      "channel": 5,
      "note": 98,
      "start": 76.1088,
      "duration": 0.1527,
      "velocity": 87,
      "chip": "ym2612"
    },
    {
      "channel": 2,
      "note": 68,
      "start": 76.1096,
      "duration": 0.1471,
      "velocity": 127,
      "chip": "ym2612"
    },
    {
      "channel": 0,
      "note": 93,
      "start": 76.2602,
      "duration": 0.1533,
      "velocity": 87,
      "chip": "ym2612"
    },
    {
      "channel": 1,
      "note": 50,
      "start": 76.2609,
      "duration": 0.1534,
      "velocity": 99,
      "chip": "ym2612"
    },
    {
      "channel": 5,
      "note": 96,
      "start": 76.2621,
      "duration": 0.1534,
      "velocity": 87,
      "chip": "ym2612"
    },
    {
      "channel": 2,
      "note": 68,
      "start": 76.2629,
      "duration": 0.1478,
      "velocity": 127,
      "chip": "ym2612"
    },
    {
      "channel": 0,
      "note": 96,
      "start": 76.4142,
      "duration": 0.1541,
      "velocity": 87,
      "chip": "ym2612"
    },
    {
      "channel": 1,
      "note": 52,
      "start": 76.4149,
      "duration": 0.1543,
      "velocity": 99,
      "chip": "ym2612"
    },
    {
      "channel": 5,
      "note": 93,
      "start": 76.4161,
      "duration": 0.1556,
      "velocity": 87,
      "chip": "ym2612"
    },
    {
      "channel": 2,
      "note": 68,
      "start": 76.417,
      "duration": 0.1486,
      "velocity": 127,
      "chip": "ym2612"
    },
    {
      "channel": 0,
      "note": 94,
      "start": 76.569,
      "duration": 0.4593,
      "velocity": 87,
      "chip": "ym2612"
    },
    {
      "channel": 1,
      "note": 46,
      "start": 76.5698,
      "duration": 0.6161,
      "velocity": 99,
      "chip": "ym2612"
    },
    {
      "channel": 3,
      "note": 74,
      "start": 76.5706,
      "duration": 1.234,
      "velocity": 100,
      "chip": "ym2612"
    },
    {
      "channel": 4,
      "note": 70,
      "start": 76.5714,
      "duration": 1.2353,
      "velocity": 100,
      "chip": "ym2612"
    },
    {
      "channel": 5,
      "note": 96,
      "start": 76.5736,
      "duration": 0.1512,
      "velocity": 87,
      "chip": "ym2612"
    },
    {
      "channel": 2,
      "note": 68,
      "start": 76.5744,
      "duration": 0.1451,
      "velocity": 127,
      "chip": "ym2612"
    },
    {
      "channel": 5,
      "note": 94,
      "start": 76.7254,
      "duration": 0.4616,
      "velocity": 87,
      "chip": "ym2612"
    },
    {
      "channel": 2,
      "note": 68,
      "start": 76.7262,
      "duration": 0.4565,
      "velocity": 127,
      "chip": "ym2612"
    },
    {
      "channel": 0,
      "note": 98,
      "start": 77.029,
      "duration": 0.4625,
      "velocity": 87,
      "chip": "ym2612"
    },
    {
      "channel": 1,
      "note": 58,
      "start": 77.1864,
      "duration": 0.3059,
      "velocity": 99,
      "chip": "ym2612"
    },
    {
      "channel": 5,
      "note": 98,
      "start": 77.1876,
      "duration": 0.4594,
      "velocity": 87,
      "chip": "ym2612"
    },
    {
      "channel": 2,
      "note": 75,
      "start": 77.1898,
      "duration": 0.4061,
      "velocity": 120,
      "chip": "ym2612"
    },
    {
      "channel": 0,
      "note": 101,
      "start": 77.4922,
      "duration": 0.3108,
      "velocity": 87,
      "chip": "ym2612"
    },
    {
      "channel": 1,
      "note": 46,
      "start": 77.4929,
      "duration": 0.311,
      "velocity": 99,
      "chip": "ym2612"
    },
    {
      "channel": 5,
      "note": 101,
      "start": 77.6476,
      "duration": 0.3095,
      "velocity": 87,
      "chip": "ym2612"
    },
    {
      "channel": 0,
      "note": 96,
      "start": 77.8037,
      "duration": 0.4598,
      "velocity": 87,
      "chip": "ym2612"
    },
    {
      "channel": 1,
      "note": 48,
      "start": 77.8044,
      "duration": 0.6165,
      "velocity": 99,
      "chip": "ym2612"
    },
    {
      "channel": 3,
      "note": 76,
      "start": 77.8066,
      "duration": 1.2439,
      "velocity": 100,
      "chip": "ym2612"
    },
    {
      "channel": 4,
      "note": 72,
      "start": 77.8073,
      "duration": 1.2472,
      "velocity": 100,
      "chip": "ym2612"
    },
    {
      "channel": 2,
      "note": 69,
      "start": 77.8087,
      "duration": 0.0948,
      "velocity": 120,
      "chip": "ym2612"
    },
    {
      "channel": 2,
      "note": 74,
      "start": 77.9098,
      "duration": 0.0969,
      "velocity": 120,
      "chip": "ym2612"
    },
    {
      "channel": 5,
      "note": 96,
      "start": 77.9577,
      "duration": 0.4657,
      "velocity": 87,
      "chip": "ym2612"
    },
    {
      "channel": 2,
      "note": 79,
      "start": 78.0119,
      "duration": 0.0971,
      "velocity": 120,
      "chip": "ym2612"
    },
    {
      "channel": 2,
      "note": 79,
      "start": 78.1141,
      "duration": 0.0978,
      "velocity": 120,
      "chip": "ym2612"
    },
    {
      "channel": 2,
      "note": 79,
      "start": 78.217,
      "duration": 0.0978,
      "velocity": 120,
      "chip": "ym2612"
    },
    {
      "channel": 0,
      "note": 100,
      "start": 78.2642,
      "duration": 0.4652,
      "velocity": 87,
      "chip": "ym2612"
    },
    {
      "channel": 2,
      "note": 79,
      "start": 78.32,
      "duration": 0.0978,
      "velocity": 120,
      "chip": "ym2612"
    },
    {
      "channel": 1,
      "note": 60,
      "start": 78.4216,
      "duration": 0.3087,
      "velocity": 99,
      "chip": "ym2612"
    },
    {
      "channel": 5,
      "note": 100,
      "start": 78.424,
      "duration": 0.461,
      "velocity": 87,
      "chip": "ym2612"
    },
    {
      "channel": 2,
      "note": 79,
      "start": 78.425,
      "duration": 0.1483,
      "velocity": 120,
      "chip": "ym2612"
    },
    {
      "channel": 2,
      "note": 74,
      "start": 78.5783,
      "duration": 0.1482,
      "velocity": 120,
      "chip": "ym2612"
    },
    {
      "channel": 0,
      "note": 103,
      "start": 78.7301,
      "duration": 0.3126,
      "velocity": 105,
      "chip": "ym2612"
    },
    {
      "channel": 1,
      "note": 48,
      "start": 78.7309,
      "duration": 0.3152,
      "velocity": 99,
      "chip": "ym2612"
    },
    {
      "channel": 2,
      "note": 74,
      "start": 78.7325,
      "duration": 0.1485,
      "velocity": 120,
      "chip": "ym2612"
    },
    {
      "channel": 2,
      "note": 69,
      "start": 78.8862,
      "duration": 0.1494,
      "velocity": 120,
      "chip": "ym2612"
    },
    {
      "channel": 0,
      "note": 65,
      "start": 79.0434,
      "duration": 0.1494,
      "velocity": 105,
      "chip": "ym2612"
    },
    {
      "channel": 1,
      "note": 50,
      "start": 79.0467,
      "duration": 0.1469,
      "velocity": 99,
      "chip": "ym2612"
    },
    {
      "channel": 5,
      "note": 62,
      "start": 79.0603,
      "duration": 0.1339,
      "velocity": 105,
      "chip": "ym2612"
    },
    {
      "channel": 2,
      "note": 68,
      "start": 79.0611,
      "duration": 0.1289,
      "velocity": 127,
      "chip": "ym2612"
    },
    {
      "channel": 0,
      "note": 62,
      "start": 79.1935,
      "duration": 0.1534,
      "velocity": 105,
      "chip": "ym2612"
    },
    {
      "channel": 5,
      "note": 57,
      "start": 79.1947,
      "duration": 0.1553,
      "velocity": 105,
      "chip": "ym2612"
    },
    {
      "channel": 2,
      "note": 68,
      "start": 79.1955,
      "duration": 0.1486,
      "velocity": 127,
      "chip": "ym2612"
    },
    {
      "channel": 0,
      "note": 64,
      "start": 79.3476,
      "duration": 0.1537,
      "velocity": 105,
      "chip": "ym2612"
    },
    {
      "channel": 1,
      "note": 50,
      "start": 79.3483,
      "duration": 0.3094,
      "velocity": 99,
      "chip": "ym2612"
    },
    {
      "channel": 3,
      "note": 77,
      "start": 79.3491,
      "duration": 0.9274,
      "velocity": 100,
      "chip": "ym2612"
    },
    {
      "channel": 4,
      "note": 74,
      "start": 79.3498,
      "duration": 0.927,
      "velocity": 100,
      "chip": "ym2612"
    },
    {
      "channel": 5,
      "note": 60,
      "start": 79.3505,
      "duration": 0.1524,
      "velocity": 105,
      "chip": "ym2612"
    },
    {
      "channel": 2,
      "note": 75,
      "start": 79.3514,
      "duration": 0.1471,
      "velocity": 120,
      "chip": "ym2612"
    },
    {
      "channel": 0,
      "note": 65,
      "start": 79.502,
      "duration": 0.3082,
      "velocity": 105,
      "chip": "ym2612"
    },
    {
      "channel": 5,
      "note": 62,
      "start": 79.5035,
      "duration": 0.3086,
      "velocity": 105,
      "chip": "ym2612"
    },
    {
      "channel": 2,
      "note": 68,
      "start": 79.5044,
      "duration": 0.1489,
      "velocity": 127,
      "chip": "ym2612"
    },
    {
      "channel": 1,
      "note": 53,
      "start": 79.6583,
      "duration": 0.1527,
      "velocity": 99,
      "chip": "ym2612"
    },
    {
      "channel": 2,
      "note": 68,
      "start": 79.6599,
      "duration": 0.1475,
      "velocity": 127,
      "chip": "ym2612"
    },
    {
      "channel": 0,
      "note": 62,
      "start": 79.8108,
      "duration": 0.1537,
      "velocity": 105,
      "chip": "ym2612"
    },
    {
      "channel": 1,
      "note": 55,
      "start": 79.8115,
      "duration": 0.1538,
      "velocity": 99,
      "chip": "ym2612"
    },
    {
      "channel": 5,
      "note": 57,
      "start": 79.8126,
      "duration": 0.1539,
      "velocity": 105,
      "chip": "ym2612"
    },
    {
      "channel": 2,
      "note": 68,
      "start": 79.8135,
      "duration": 0.1482,
      "velocity": 127,
      "chip": "ym2612"
    },
    {
      "channel": 0,
      "note": 64,
      "start": 79.9652,
      "duration": 0.1536,
      "velocity": 105,
      "chip": "ym2612"
    },
    {
      "channel": 1,
      "note": 57,
      "start": 79.9659,
      "duration": 0.1537,
      "velocity": 99,
      "chip": "ym2612"
    },
    {
      "channel": 5,
      "note": 60,
      "start": 79.9671,
      "duration": 0.1537,
      "velocity": 105,
      "chip": "ym2612"
    },
    {
      "channel": 2,
      "note": 75,
      "start": 79.9679,
      "duration": 0.1481,
      "velocity": 120,
      "chip": "ym2612"
    },
    {
      "channel": 0,
      "note": 65,
      "start": 80.1196,
      "duration": 0.1554,
      "velocity": 105,
      "chip": "ym2612"
    },
    {
      "channel": 1,
      "note": 45,
      "start": 80.1203,
      "duration": 0.1555,
      "velocity": 99,
      "chip": "ym2612"
    },
    {
      "channel": 5,
      "note": 62,
      "start": 80.1214,
      "duration": 0.1557,
      "velocity": 105,
      "chip": "ym2612"
    },
    {
      "channel": 2,
      "note": 68,
      "start": 80.1236,
      "duration": 0.1472,
      "velocity": 127,
      "chip": "ym2612"
    },
    {
      "channel": 0,
      "note": 67,
      "start": 80.2756,
      "duration": 0.152,
      "velocity": 105,
      "chip": "ym2612"
    },
    {
      "channel": 1,
      "note": 55,
      "start": 80.2764,
      "duration": 0.1521,
      "velocity": 99,
      "chip": "ym2612"
    },
    {
      "channel": 5,
      "note": 64,
      "start": 80.2777,
      "duration": 0.1512,
      "velocity": 105,
      "chip": "ym2612"
    },
    {
      "channel": 2,
      "note": 68,
      "start": 80.2786,
      "duration": 0.1463,
      "velocity": 127,
      "chip": "ym2612"
    },
    {
      "channel": 0,
      "note": 64,
      "start": 80.4283,
      "duration": 0.1541,
      "velocity": 105,
      "chip": "ym2612"
    },
    {
      "channel": 5,
      "note": 60,
      "start": 80.4295,
      "duration": 0.156,
      "velocity": 105,
      "chip": "ym2612"
    },
    {
      "channel": 2,
      "note": 68,
      "start": 80.4304,
      "duration": 0.1492,
      "velocity": 127,
      "chip": "ym2612"
    },
    {
      "channel": 0,
      "note": 65,
      "start": 80.583,
      "duration": 0.1534,
      "velocity": 105,
      "chip": "ym2612"
    },
    {
      "channel": 1,
      "note": 55,
      "start": 80.5837,
      "duration": 0.309,
      "velocity": 99,
      "chip": "ym2612"
    },
    {
      "channel": 3,
      "note": 74,
      "start": 80.5845,
      "duration": 0.9269,
      "velocity": 100,
      "chip": "ym2612"
    },
    {
      "channel": 4,
      "note": 70,
      "start": 80.5853,
      "duration": 0.9269,
      "velocity": 100,
      "chip": "ym2612"
    },
    {
      "channel": 5,
      "note": 62,
      "start": 80.586,
      "duration": 0.1519,
      "velocity": 105,
      "chip": "ym2612"
    },
    {
      "channel": 2,
      "note": 75,
      "start": 80.5869,
      "duration": 0.1468,
      "velocity": 120,
      "chip": "ym2612"
    },
    {
      "channel": 0,
      "note": 67,
      "start": 80.7371,
      "duration": 0.3081,
      "velocity": 105,
      "chip": "ym2612"
    },
    {
      "channel": 5,
      "note": 64,
      "start": 80.74,
      "duration": 0.3072,
      "velocity": 105,
      "chip": "ym2612"
    },
    {
      "channel": 2,
      "note": 68,
      "start": 80.7408,
      "duration": 0.1488,
      "velocity": 127,
      "chip": "ym2612"
    },
    {
      "channel": 1,
      "note": 58,
      "start": 80.8934,
      "duration": 0.1527,
      "velocity": 99,
      "chip": "ym2612"
    },
    {
      "channel": 2,
      "note": 68,
      "start": 80.895,
      "duration": 0.1475,
      "velocity": 127,
      "chip": "ym2612"
    },
    {
      "channel": 0,
      "note": 64,
      "start": 81.0459,
      "duration": 0.1537,
      "velocity": 105,
      "chip": "ym2612"
    },
    {
      "channel": 1,
      "note": 60,
      "start": 81.0467,
      "duration": 0.1537,
      "velocity": 99,
      "chip": "ym2612"
    },
    {
      "channel": 5,
      "note": 60,
      "start": 81.0478,
      "duration": 0.1537,
      "velocity": 105,
      "chip": "ym2612"
    },
    {
      "channel": 2,
      "note": 68,
      "start": 81.0486,
      "duration": 0.1481,
      "velocity": 127,
      "chip": "ym2612"
    },
    {
      "channel": 0,
      "note": 65,
      "start": 81.2002,
      "duration": 0.1537,
      "velocity": 105,
      "chip": "ym2612"
    },
    {
      "channel": 1,
      "note": 62,
      "start": 81.201,
      "duration": 0.1538,
      "velocity": 99,
      "chip": "ym2612"
    },
    {
      "channel": 5,
      "note": 62,
      "start": 81.2021,
      "duration": 0.1551,
      "velocity": 105,
      "chip": "ym2612"
    },
    {
      "channel": 2,
      "note": 75,
      "start": 81.203,
      "duration": 0.1482,
      "velocity": 120,
      "chip": "ym2612"
    },
    {
      "channel": 0,
      "note": 67,
      "start": 81.3546,
      "duration": 0.1552,
      "velocity": 105,
      "chip": "ym2612"
    },
    {
      "channel": 1,
      "note": 50,
      "start": 81.3566,
      "duration": 0.154,
      "velocity": 99,
      "chip": "ym2612"
    },
    {
      "channel": 5,
      "note": 64,
      "start": 81.3578,
      "duration": 0.1551,
      "velocity": 105,
      "chip": "ym2612"
    },
    {
      "channel": 2,
      "note": 68,
      "start": 81.3586,
      "duration": 0.1484,
      "velocity": 127,
      "chip": "ym2612"
    },
    {
      "channel": 0,
      "note": 69,
      "start": 81.5105,
      "duration": 0.6159,
      "velocity": 105,
      "chip": "ym2612"
    },
    {
      "channel": 1,
      "note": 45,
      "start": 81.5112,
      "duration": 0.1519,
      "velocity": 99,
      "chip": "ym2612"
    },
    {
      "channel": 3,
      "note": 76,
      "start": 81.512,
      "duration": 1.2329,
      "velocity": 100,
      "chip": "ym2612"
    },
    {
      "channel": 4,
      "note": 73,
      "start": 81.5128,
      "duration": 1.2329,
      "velocity": 100,
      "chip": "ym2612"
    },
    {
      "channel": 5,
      "note": 64,
      "start": 81.5135,
      "duration": 0.6149,
      "velocity": 105,
      "chip": "ym2612"
    },
    {
      "channel": 2,
      "note": 68,
      "start": 81.5144,
      "duration": 0.1457,
      "velocity": 127,
      "chip": "ym2612"
    },
    {
      "channel": 2,
      "note": 68,
      "start": 81.6649,
      "duration": 0.1494,
      "velocity": 127,
      "chip": "ym2612"
    },
    {
      "channel": 1,
      "note": 45,
      "start": 81.8181,
      "duration": 0.3092,
      "velocity": 99,
      "chip": "ym2612"
    },
    {
      "channel": 2,
      "note": 75,
      "start": 81.8197,
      "duration": 0.1491,
      "velocity": 120,
      "chip": "ym2612"
    },
    {
      "channel": 2,
      "note": 68,
      "start": 81.9751,
      "duration": 0.1485,
      "velocity": 127,
      "chip": "ym2612"
    },
    {
      "channel": 0,
      "note": 81,
      "start": 82.1271,
      "duration": 0.6166,
      "velocity": 105,
      "chip": "ym2612"
    },
    {
      "channel": 1,
      "note": 57,
      "start": 82.1279,
      "duration": 0.1529,
      "velocity": 99,
      "chip": "ym2612"
    },
    {
      "channel": 5,
      "note": 76,
      "start": 82.129,
      "duration": 0.6174,
      "velocity": 105,
      "chip": "ym2612"
    },
    {
      "channel": 2,
      "note": 68,
      "start": 82.1299,
      "duration": 0.1478,
      "velocity": 127,
      "chip": "ym2612"
    },
    {
      "channel": 1,
      "note": 52,
      "start": 82.2813,
      "duration": 0.1537,
      "velocity": 99,
      "chip": "ym2612"
    },
    {
      "channel": 2,
      "note": 68,
      "start": 82.283,
      "duration": 0.1489,
      "velocity": 127,
      "chip": "ym2612"
    },
    {
      "channel": 1,
      "note": 67,
      "start": 82.4356,
      "duration": 0.1551,
      "velocity": 99,
      "chip": "ym2612"
    },
    {
      "channel": 2,
      "note": 75,
      "start": 82.4373,
      "duration": 0.149,
      "velocity": 120,
      "chip": "ym2612"
    },
    {
      "channel": 1,
      "note": 57,
      "start": 82.5913,
      "duration": 0.3069,
      "velocity": 99,
      "chip": "ym2612"
    },
    {
      "channel": 2,
      "note": 68,
      "start": 82.593,
      "duration": 0.148,
      "velocity": 127,
      "chip": "ym2612"
    },
    {
      "channel": 0,
      "note": 76,
      "start": 82.7444,
      "duration": 0.6167,
      "velocity": 105,
      "chip": "ym2612"
    },
    {
      "channel": 3,
      "note": 81,
      "start": 82.7455,
      "duration": 0.6171,
      "velocity": 100,
      "chip": "ym2612"
    },
    {
      "channel": 4,
      "note": 76,
      "start": 82.7463,
      "duration": 0.6171,
      "velocity": 100,
      "chip": "ym2612"
    },
    {
      "channel": 5,
      "note": 73,
      "start": 82.747,
      "duration": 0.6172,
      "velocity": 105,
      "chip": "ym2612"
    },
    {
      "channel": 2,
      "note": 68,
      "start": 82.7479,
      "duration": 0.1472,
      "velocity": 127,
      "chip": "ym2612"
    },
    {
      "channel": 1,
      "note": 59,
      "start": 82.8988,
      "duration": 0.1538,
      "velocity": 99,
      "chip": "ym2612"
    },
    {
      "channel": 2,
      "note": 68,
      "start": 82.9004,
      "duration": 0.149,
      "velocity": 127,
      "chip": "ym2612"
    },
    {
      "channel": 1,
      "note": 61,
      "start": 83.0532,
      "duration": 0.1552,
      "velocity": 99,
      "chip": "ym2612"
    },
    {
      "channel": 2,
      "note": 75,
      "start": 83.0548,
      "duration": 0.1491,
      "velocity": 120,
      "chip": "ym2612"
    },
    {
      "channel": 1,
      "note": 57,
      "start": 83.209,
      "duration": 0.1529,
      "velocity": 99,
      "chip": "ym2612"
    },
    {
      "channel": 2,
      "note": 79,
      "start": 83.2107,
      "duration": 0.1475,
      "velocity": 120,
      "chip": "ym2612"
    },
    {
      "channel": 0,
      "note": 73,
      "start": 83.3617,
      "duration": 0.62,
      "velocity": 105,
      "chip": "ym2612"
    },
    {
      "channel": 1,
      "note": 69,
      "start": 83.3624,
      "duration": 0.1534,
      "velocity": 99,
      "chip": "ym2612"
    },
    {
      "channel": 3,
      "note": 85,
      "start": 83.3632,
      "duration": 0.6275,
      "velocity": 92,
      "chip": "ym2612"
    },
    {
      "channel": 4,
      "note": 81,
      "start": 83.364,
      "duration": 0.6308,
      "velocity": 92,
      "chip": "ym2612"
    },
    {
      "channel": 5,
      "note": 69,
      "start": 83.3647,
      "duration": 0.6341,
      "velocity": 100,
      "chip": "ym2612"
    },
    {
      "channel": 2,
      "note": 79,
      "start": 83.3657,
      "duration": 0.147,
      "velocity": 120,
      "chip": "ym2612"
    },
    {
      "channel": 1,
      "note": 57,
      "start": 83.5164,
      "duration": 0.1539,
      "velocity": 99,
      "chip": "ym2612"
    },
    {
      "channel": 2,
      "note": 74,
      "start": 83.518,
      "duration": 0.1491,
      "velocity": 120,
      "chip": "ym2612"
    },
    {
      "channel": 1,
      "note": 59,
      "start": 83.6708,
      "duration": 0.1551,
      "velocity": 99,
      "chip": "ym2612"
    },
    {
      "channel": 2,
      "note": 74,
      "start": 83.6738,
      "duration": 0.1476,
      "velocity": 120,
      "chip": "ym2612"
    },
    {
      "channel": 1,
      "note": 61,
      "start": 83.8265,
      "duration": 0.1588,
      "velocity": 99,
      "chip": "ym2612"
    },
    {
      "channel": 2,
      "note": 69,
      "start": 83.8282,
      "duration": 0.148,
      "velocity": 120,
      "chip": "ym2612"
    },
    {
      "channel": 0,
      "note": 62,
      "start": 83.9824,
      "duration": 0.3088,
      "velocity": 105,
      "chip": "ym2612"
    },
    {
      "channel": 1,
      "note": 50,
      "start": 83.9859,
      "duration": 0.1475,
      "velocity": 99,
      "chip": "ym2612"
    },
    {
      "channel": 3,
      "note": 53,
      "start": 83.9913,
      "duration": 0.2999,
      "velocity": 92,
      "chip": "ym2612"
    },
    {
      "channel": 4,
      "note": 50,
      "start": 83.9954,
      "duration": 0.2958,
      "velocity": 92,
      "chip": "ym2612"
    },
    {
      "channel": 2,
      "note": 68,
      "start": 83.9999,
      "duration": 0.1303,
      "velocity": 127,
      "chip": "ym2612"
    },
    {
      "channel": 2,
      "note": 68,
      "start": 84.1349,
      "duration": 0.1498,
      "velocity": 127,
      "chip": "ym2612"
    },
    {
      "channel": 1,
      "note": 50,
      "start": 84.2897,
      "duration": 0.0015,
      "velocity": 99,
      "chip": "ym2612"
    },
    {
      "channel": 2,
      "note": 75,
      "start": 84.2911,
      "duration": 0.0002,
      "velocity": 120,
      "chip": "ym2612"
    }
  ]
}