{
  "track_name": "15 - Stage Theme 14 ~ London Bridge Is Falling Down",
  "duration_sec": 52.338,
  "sample_rate": 44100,
  "note_count": 13110,
  "unique_pitches": 35,
  "pitch_range": 48,
  "avg_note_duration": 0.0161,
  "reconstruction_stats": {
    "notes_reconstructed": 13110,
    "keyon_events": 13110,
    "keyoff_events": 433,
    "orphan_keyons": 4,
    "unique_pitches": 35,
    "pitch_range": 48,
    "avg_duration_sec": 0.0161
  },
  "metadata": {
    "source": "L\\Lemmings\\15 - Stage Theme 14 ~ London Bridge Is Falling Down.vgz"
  },
  "notes": [
    {
      "channel": 0,
      "note": 36,
      "start": 0.0513,
      "duration": 0.0193,
      "velocity": 115,
      "chip": "ym2612"
    },
    {
      "channel": 4,
      "note": 61,
      "start": 0.0542,
      "duration": 0.0176,
      "velocity": 101,
      "chip": "ym2612"
    },
    {
      "channel": 3,
      "note": 64,
      "start": 0.0571,
      "duration": 0.0159,
      "velocity": 101,
      "chip": "ym2612"
    },
    {
      "channel": 1,
      "note": 69,
      "start": 0.0652,
      "duration": 0.0109,
      "velocity": 101,
      "chip": "ym2612"
    },
    {
      "channel": 0,
      "note": 36,
      "start": 0.0706,
      "duration": 0.0095,
      "velocity": 115,
      "chip": "ym2612"
    },
    {
      "channel": 4,
      "note": 61,
      "start": 0.0718,
      "duration": 0.0094,
      "velocity": 101,
      "chip": "ym2612"
    },
    {
      "channel": 3,
      "note": 64,
      "start": 0.073,
      "duration": 0.0093,
      "velocity": 101,
      "chip": "ym2612"
    },
    {
      "channel": 1,
      "note": 69,
      "start": 0.0761,
      "duration": 0.0085,
      "velocity": 101,
      "chip": "ym2612"
    },
    {
      "channel": 0,
      "note": 37,
      "start": 0.08,
      "duration": 0.0107,
      "velocity": 115,
      "chip": "ym2612"
    },
    {
      "channel": 4,
      "note": 61,
      "start": 0.0812,
      "duration": 0.0134,
      "velocity": 101,
      "chip": "ym2612"
    },
    {
      "channel": 3,
      "note": 64,
      "start": 0.0823,
      "duration": 0.0134,
      "velocity": 101,
      "chip": "ym2612"
    },
    {
      "channel": 1,
      "note": 69,
      "start": 0.0846,
      "duration": 0.0134,
      "velocity": 101,
      "chip": "ym2612"
    },
    {
      "channel": 0,
      "note": 37,
      "start": 0.0907,
      "duration": 0.0161,
      "velocity": 115,
      "chip": "ym2612"
    },
    {
      "channel": 4,
      "note": 61,
      "start": 0.0946,
      "duration": 0.0161,
      "velocity": 101,
      "chip": "ym2612"
    },
    {
      "channel": 3,
      "note": 64,
      "start": 0.0958,
      "duration": 0.0162,
      "velocity": 101,
      "chip": "ym2612"
    },
    {
      "channel": 1,
      "note": 69,
      "start": 0.098,
      "duration": 0.0161,
      "velocity": 101,
      "chip": "ym2612"
    },
    {
      "channel": 0,
      "note": 38,
      "start": 0.1068,
      "duration": 0.0161,
      "velocity": 115,
      "chip": "ym2612"
    },
    {
      "channel": 4,
      "note": 61,
      "start": 0.1108,
      "duration": 0.0133,
      "velocity": 101,
      "chip": "ym2612"
    },
    {
      "channel": 3,
      "note": 64,
      "start": 0.1119,
      "duration": 0.0157,
      "velocity": 101,
      "chip": "ym2612"
    },
    {
      "channel": 1,
      "note": 69,
      "start": 0.1141,
      "duration": 0.0157,
      "velocity": 101,
      "chip": "ym2612"
    },
    {
      "channel": 0,
      "note": 38,
      "start": 0.1229,
      "duration": 0.0161,
      "velocity": 115,
      "chip": "ym2612"
    },
    {
      "channel": 4,
      "note": 61,
      "start": 0.1241,
      "duration": 0.0161,
      "velocity": 101,
      "chip": "ym2612"
    },
    {
      "channel": 3,
      "note": 64,
      "start": 0.1276,
      "duration": 0.0141,
      "velocity": 101,
      "chip": "ym2612"
    },
    {
      "channel": 1,
      "note": 69,
      "start": 0.1299,
      "duration": 0.0144,
      "velocity": 101,
      "chip": "ym2612"
    },
    {
      "channel": 0,
      "note": 39,
      "start": 0.139,
      "duration": 0.0161,
      "velocity": 115,
      "chip": "ym2612"
    },
    {
      "channel": 4,
      "note": 61,
      "start": 0.1402,
      "duration": 0.0161,
      "velocity": 101,
      "chip": "ym2612"
    },
    {
      "channel": 3,
      "note": 64,
      "start": 0.1417,
      "duration": 0.0156,
      "velocity": 101,
      "chip": "ym2612"
    },
    {
      "channel": 1,
      "note": 69,
      "start": 0.1443,
      "duration": 0.0181,
      "velocity": 101,
      "chip": "ym2612"
    },
    {
      "channel": 0,
      "note": 39,
      "start": 0.1551,
      "duration": 0.0161,
      "velocity": 115,
      "chip": "ym2612"
    },
    {
      "channel": 4,
      "note": 61,
      "start": 0.1563,
      "duration": 0.0161,
      "velocity": 101,
      "chip": "ym2612"
    },
    {
      "channel": 3,
      "note": 64,
      "start": 0.1574,
      "duration": 0.0162,
      "velocity": 101,
      "chip": "ym2612"
    },
    {
      "channel": 1,
      "note": 69,
      "start": 0.1624,
      "duration": 0.0162,
      "velocity": 101,
      "chip": "ym2612"
    },
    {
      "channel": 0,
      "note": 40,
      "start": 0.1712,
      "duration": 0.0161,
      "velocity": 115,
      "chip": "ym2612"
    },
    {
      "channel": 4,
      "note": 61,
      "start": 0.1724,
      "duration": 0.0161,
      "velocity": 101,
      "chip": "ym2612"
    },
    {
      "channel": 3,
      "note": 64,
      "start": 0.1736,
      "duration": 0.0161,
      "velocity": 101,
      "chip": "ym2612"
    },
    {
      "channel": 1,
      "note": 69,
      "start": 0.1786,
      "duration": 0.0157,
      "velocity": 101,
      "chip": "ym2612"
    },
    {
      "channel": 0,
      "note": 40,
      "start": 0.1873,
      "duration": 0.0161,
      "velocity": 115,
      "chip": "ym2612"
    },
    {
      "channel": 4,
      "note": 61,
      "start": 0.1885,
      "duration": 0.0161,
      "velocity": 101,
      "chip": "ym2612"
    },
    {
      "channel": 3,
      "note": 64,
      "start": 0.1897,
      "duration": 0.0161,
      "velocity": 101,
      "chip": "ym2612"
    },
    {
      "channel": 1,
      "note": 69,
      "start": 0.1943,
      "duration": 0.0142,
      "velocity": 101,
      "chip": "ym2612"
    },
    {
      "channel": 0,
      "note": 40,
      "start": 0.2034,
      "duration": 0.0161,
      "velocity": 115,
      "chip": "ym2612"
    },
    {
      "channel": 4,
      "note": 61,
      "start": 0.2046,
      "duration": 0.0161,
      "velocity": 101,
      "chip": "ym2612"
    },
    {
      "channel": 3,
      "note": 64,
      "start": 0.2057,
      "duration": 0.0161,
      "velocity": 101,
      "chip": "ym2612"
    },
    {
      "channel": 1,
      "note": 69,
      "start": 0.2085,
      "duration": 0.0156,
      "velocity": 101,
      "chip": "ym2612"
    },
    {
      "channel": 0,
      "note": 41,
      "start": 0.2195,
      "duration": 0.0161,
      "velocity": 115,
      "chip": "ym2612"
    },
    {
      "channel": 4,
      "note": 61,
      "start": 0.2207,
      "duration": 0.0161,
      "velocity": 101,
      "chip": "ym2612"
    },
    {
      "channel": 3,
      "note": 64,
      "start": 0.2218,
      "duration": 0.0161,
      "velocity": 101,
      "chip": "ym2612"
    },
    {
      "channel": 1,
      "note": 69,
      "start": 0.2241,
      "duration": 0.0161,
      "velocity": 101,
      "chip": "ym2612"
    },
    {
      "channel": 0,
      "note": 41,
      "start": 0.2356,
      "duration": 0.0161,
      "velocity": 115,
      "chip": "ym2612"
    },
    {
      "channel": 4,
      "note": 61,
      "start": 0.2368,
      "duration": 0.0161,
      "velocity": 101,
      "chip": "ym2612"
    },
    {
      "channel": 3,
      "note": 64,
      "start": 0.2379,
      "duration": 0.0161,
      "velocity": 101,
      "chip": "ym2612"
    },
    {
      "channel": 1,
      "note": 69,
      "start": 0.2402,
      "duration": 0.0161,
      "velocity": 101,
      "chip": "ym2612"
    },
    {
      "channel": 0,
      "note": 42,
      "start": 0.2517,
      "duration": 0.0161,
      "velocity": 115,
      "chip": "ym2612"
    },
    {
      "channel": 4,
      "note": 61,
      "start": 0.2529,
      "duration": 0.0161,
      "velocity": 101,
      "chip": "ym2612"
    },
    {
      "channel": 3,
      "note": 64,
      "start": 0.254,
      "duration": 0.0161,
      "velocity": 101,
      "chip": "ym2612"
    },
    {
      "channel": 1,
      "note": 69,
      "start": 0.2563,
      "duration": 0.0161,
      "velocity": 101,
      "chip": "ym2612"
    },
    {
      "channel": 0,
      "note": 42,
      "start": 0.2678,
      "duration": 0.0161,
      "velocity": 115,
      "chip": "ym2612"
    },
    {
      "channel": 4,
      "note": 61,
      "start": 0.269,
      "duration": 0.0161,
      "velocity": 101,
      "chip": "ym2612"
    },
    {
      "channel": 3,
      "note": 64,
      "start": 0.2701,
      "duration": 0.0161,
      "velocity": 101,
      "chip": "ym2612"
    },
    {
      "channel": 1,
      "note": 69,
      "start": 0.2724,
      "duration": 0.0161,
      "velocity": 101,
      "chip": "ym2612"
    },
    {
      "channel": 0,
      "note": 43,
      "start": 0.2839,
      "duration": 0.0161,
      "velocity": 115,
      "chip": "ym2612"
    },
    {
      "channel": 4,
      "note": 61,
      "start": 0.2851,
      "duration": 0.0161,
      "velocity": 101,
      "chip": "ym2612"
    },
    {
      "channel": 3,
      "note": 64,
      "start": 0.2862,
      "duration": 0.0161,
      "velocity": 101,
      "chip": "ym2612"
    },
    {
      "channel": 1,
      "note": 69,
      "start": 0.2885,
      "duration": 0.0161,
      "velocity": 101,
      "chip": "ym2612"
    },
    {
      "channel": 0,
      "note": 43,
      "start": 0.3,
      "duration": 0.0161,
      "velocity": 115,
      "chip": "ym2612"
    },
    {
      "channel": 4,
      "note": 61,
      "start": 0.3012,
      "duration": 0.0162,
      "velocity": 101,
      "chip": "ym2612"
    },
    {
      "channel": 3,
      "note": 64,
      "start": 0.3023,
      "duration": 0.0162,
      "velocity": 101,
      "chip": "ym2612"
    },
    {
      "channel": 1,
      "note": 69,
      "start": 0.3046,
      "duration": 0.0161,
      "velocity": 101,
      "chip": "ym2612"
    },
    {
      "channel": 0,
      "note": 44,
      "start": 0.3161,
      "duration": 0.0161,
      "velocity": 115,
      "chip": "ym2612"
    },
    {
      "channel": 4,
      "note": 61,
      "start": 0.3173,
      "duration": 0.0161,
      "velocity": 101,
      "chip": "ym2612"
    },
    {
      "channel": 3,
      "note": 64,
      "start": 0.3185,
      "duration": 0.0161,
      "velocity": 101,
      "chip": "ym2612"
    },
    {
      "channel": 1,
      "note": 69,
      "start": 0.3207,
      "duration": 0.0161,
      "velocity": 101,
      "chip": "ym2612"
    },
    {
      "channel": 0,
      "note": 44,
      "start": 0.3322,
      "duration": 0.0162,
      "velocity": 115,
      "chip": "ym2612"
    },
    {
      "channel": 4,
      "note": 61,
      "start": 0.3334,
      "duration": 0.0161,
      "velocity": 101,
      "chip": "ym2612"
    },
    {
      "channel": 3,
      "note": 64,
      "start": 0.3346,
      "duration": 0.0161,
      "velocity": 101,
      "chip": "ym2612"
    },
    {
      "channel": 1,
      "note": 69,
      "start": 0.3368,
      "duration": 0.0161,
      "velocity": 101,
      "chip": "ym2612"
    },
    {
      "channel": 0,
      "note": 44,
      "start": 0.3484,
      "duration": 0.0161,
      "velocity": 115,
      "chip": "ym2612"
    },
    {
      "channel": 4,
      "note": 61,
      "start": 0.3495,
      "duration": 0.0161,
      "velocity": 101,
      "chip": "ym2612"
    },
    {
      "channel": 3,
      "note": 64,
      "start": 0.3507,
      "duration": 0.0161,
      "velocity": 101,
      "chip": "ym2612"
    },
    {
      "channel": 1,
      "note": 69,
      "start": 0.3529,
      "duration": 0.0161,
      "velocity": 101,
      "chip": "ym2612"
    },
    {
      "channel": 0,
      "note": 45,
      "start": 0.3645,
      "duration": 0.0161,
      "velocity": 115,
      "chip": "ym2612"
    },
    {
      "channel": 4,
      "note": 61,
      "start": 0.3656,
      "duration": 0.0161,
      "velocity": 101,
      "chip": "ym2612"
    },
    {
      "channel": 3,
      "note": 64,
      "start": 0.3668,
      "duration": 0.0161,
      "velocity": 101,
      "chip": "ym2612"
    },
    {
      "channel": 1,
      "note": 69,
      "start": 0.369,
      "duration": 0.0161,
      "velocity": 101,
      "chip": "ym2612"
    },
    {
      "channel": 0,
      "note": 45,
      "start": 0.3806,
      "duration": 0.0161,
      "velocity": 115,
      "chip": "ym2612"
    },
    {
      "channel": 4,
      "note": 61,
      "start": 0.3817,
      "duration": 0.0161,
      "velocity": 101,
      "chip": "ym2612"
    },
    {
      "channel": 3,
      "note": 64,
      "start": 0.3829,
      "duration": 0.0161,
      "velocity": 101,
      "chip": "ym2612"
    },
    {
      "channel": 1,
      "note": 69,
      "start": 0.3851,
      "duration": 0.0161,
      "velocity": 101,
      "chip": "ym2612"
    },
    {
      "channel": 0,
      "note": 46,
      "start": 0.3966,
      "duration": 0.0161,
      "velocity": 115,
      "chip": "ym2612"
    },
    {
      "channel": 4,
      "note": 61,
      "start": 0.3978,
      "duration": 0.0161,
      "velocity": 101,
      "chip": "ym2612"
    },
    {
      "channel": 3,
      "note": 64,
      "start": 0.3989,
      "duration": 0.0161,
      "velocity": 101,
      "chip": "ym2612"
    },
    {
      "channel": 1,
      "note": 69,
      "start": 0.4012,
      "duration": 0.0161,
      "velocity": 101,
      "chip": "ym2612"
    },
    {
      "channel": 0,
      "note": 46,
      "start": 0.4127,
      "duration": 0.0164,
      "velocity": 115,
      "chip": "ym2612"
    },
    {
      "channel": 4,
      "note": 61,
      "start": 0.4139,
      "duration": 0.0164,
      "velocity": 101,
      "chip": "ym2612"
    },
    {
      "channel": 3,
      "note": 64,
      "start": 0.415,
      "duration": 0.0164,
      "velocity": 101,
      "chip": "ym2612"
    },
    {
      "channel": 1,
      "note": 69,
      "start": 0.4173,
      "duration": 0.0164,
      "velocity": 101,
      "chip": "ym2612"
    },
    {
      "channel": 0,
      "note": 47,
      "start": 0.4292,
      "duration": 0.0167,
      "velocity": 115,
      "chip": "ym2612"
    },
    {
      "channel": 4,
      "note": 61,
      "start": 0.4303,
      "duration": 0.0167,
      "velocity": 101,
      "chip": "ym2612"
    },
    {
      "channel": 3,
      "note": 64,
      "start": 0.4315,
      "duration": 0.0167,
      "velocity": 101,
      "chip": "ym2612"
    },
    {
      "channel": 1,
      "note": 69,
      "start": 0.4337,
      "duration": 0.0167,
      "velocity": 101,
      "chip": "ym2612"
    },
    {
      "channel": 0,
      "note": 47,
      "start": 0.4458,
      "duration": 0.0163,
      "velocity": 115,
      "chip": "ym2612"
    },
    {
      "channel": 4,
      "note": 61,
      "start": 0.447,
      "duration": 0.0163,
      "velocity": 101,
      "chip": "ym2612"
    },
    {
      "channel": 3,
      "note": 64,
      "start": 0.4481,
      "duration": 0.0163,
      "velocity": 101,
      "chip": "ym2612"
    },
    {
      "channel": 1,
      "note": 69,
      "start": 0.4504,
      "duration": 0.0163,
      "velocity": 101,
      "chip": "ym2612"
    },
    {
      "channel": 0,
      "note": 47,
      "start": 0.4621,
      "duration": 0.0153,
      "velocity": 115,
      "chip": "ym2612"
    },
    {
      "channel": 4,
      "note": 61,
      "start": 0.4632,
      "duration": 0.0154,
      "velocity": 101,
      "chip": "ym2612"
    },
    {
      "channel": 3,
      "note": 64,
      "start": 0.4644,
      "duration": 0.0153,
      "velocity": 101,
      "chip": "ym2612"
    },
    {
      "channel": 1,
      "note": 69,
      "start": 0.4667,
      "duration": 0.0153,
      "velocity": 101,
      "chip": "ym2612"
    },
    {
      "channel": 0,
      "note": 48,
      "start": 0.4774,
      "duration": 0.0201,
      "velocity": 124,
      "chip": "ym2612"
    },
    {
      "channel": 4,
      "note": 61,
      "start": 0.4786,
      "duration": 0.0202,
      "velocity": 101,
      "chip": "ym2612"
    },
    {
      "channel": 3,
      "note": 64,
      "start": 0.4797,
      "duration": 0.0202,
      "velocity": 101,
      "chip": "ym2612"
    },
    {
      "channel": 1,
      "note": 69,
      "start": 0.482,
      "duration": 0.0202,
      "velocity": 101,
      "chip": "ym2612"
    },
    {
      "channel": 0,
      "note": 84,
      "start": 0.4976,
      "duration": 0.0146,
      "velocity": 124,
      "chip": "ym2612"
    },
    {
      "channel": 4,
      "note": 61,
      "start": 0.4988,
      "duration": 0.0146,
      "velocity": 101,
      "chip": "ym2612"
    },
    {
      "channel": 3,
      "note": 64,
      "start": 0.4999,
      "duration": 0.0146,
      "velocity": 101,
      "chip": "ym2612"
    },
    {
      "channel": 1,
      "note": 69,
      "start": 0.5022,
      "duration": 0.0146,
      "velocity": 101,
      "chip": "ym2612"
    },
    {
      "channel": 0,
      "note": 82,
      "start": 0.5122,
      "duration": 0.0156,
      "velocity": 124,
      "chip": "ym2612"
    },
    {
      "channel": 4,
      "note": 61,
      "start": 0.5133,
      "duration": 0.0157,
      "velocity": 101,
      "chip": "ym2612"
    },
    {
      "channel": 3,
      "note": 64,
      "start": 0.5145,
      "duration": 0.0157,
      "velocity": 101,
      "chip": "ym2612"
    },
    {
      "channel": 1,
      "note": 69,
      "start": 0.5168,
      "duration": 0.0157,
      "velocity": 101,
      "chip": "ym2612"
    },
    {
      "channel": 0,
      "note": 80,
      "start": 0.5278,
      "duration": 0.0144,
      "velocity": 124,
      "chip": "ym2612"
    },
    {
      "channel": 4,
      "note": 61,
      "start": 0.529,
      "duration": 0.0144,
      "velocity": 101,
      "chip": "ym2612"
    },
    {
      "channel": 3,
      "note": 64,
      "start": 0.5302,
      "duration": 0.0144,
      "velocity": 101,
      "chip": "ym2612"
    },
    {
      "channel": 1,
      "note": 69,
      "start": 0.5325,
      "duration": 0.0144,
      "velocity": 101,
      "chip": "ym2612"
    },
    {
      "channel": 0,
      "note": 77,
      "start": 0.5423,
      "duration": 0.0154,
      "velocity": 124,
      "chip": "ym2612"
    },
    {
      "channel": 4,
      "note": 61,
      "start": 0.5435,
      "duration": 0.0181,
      "velocity": 101,
      "chip": "ym2612"
    },
    {
      "channel": 3,
      "note": 64,
      "start": 0.5446,
      "duration": 0.0181,
      "velocity": 101,
      "chip": "ym2612"
    },
    {
      "channel": 1,
      "note": 69,
      "start": 0.5468,
      "duration": 0.0181,
      "velocity": 101,
      "chip": "ym2612"
    },
    {
      "channel": 0,
      "note": 75,
      "start": 0.5577,
      "duration": 0.0161,
      "velocity": 124,
      "chip": "ym2612"
    },
    {
      "channel": 4,
      "note": 61,
      "start": 0.5616,
      "duration": 0.0161,
      "velocity": 101,
      "chip": "ym2612"
    },
    {
      "channel": 3,
      "note": 64,
      "start": 0.5627,
      "duration": 0.0161,
      "velocity": 101,
      "chip": "ym2612"
    },
    {
      "channel": 1,
      "note": 69,
      "start": 0.565,
      "duration": 0.0161,
      "velocity": 101,
      "chip": "ym2612"
    },
    {
      "channel": 0,
      "note": 72,
      "start": 0.5737,
      "duration": 0.0161,
      "velocity": 124,
      "chip": "ym2612"
    },
    {
      "channel": 4,
      "note": 61,
      "start": 0.5777,
      "duration": 0.0134,
      "velocity": 101,
      "chip": "ym2612"
    },
    {
      "channel": 3,
      "note": 64,
      "start": 0.5788,
      "duration": 0.0157,
      "velocity": 101,
      "chip": "ym2612"
    },
    {
      "channel": 1,
      "note": 69,
      "start": 0.5811,
      "duration": 0.0158,
      "velocity": 101,
      "chip": "ym2612"
    },
    {
      "channel": 0,
      "note": 70,
      "start": 0.5898,
      "duration": 0.0161,
      "velocity": 124,
      "chip": "ym2612"
    },
    {
      "channel": 4,
      "note": 61,
      "start": 0.591,
      "duration": 0.0161,
      "velocity": 101,
      "chip": "ym2612"
    },
    {
      "channel": 3,
      "note": 64,
      "start": 0.5946,
      "duration": 0.0144,
      "velocity": 101,
      "chip": "ym2612"
    },
    {
      "channel": 1,
      "note": 69,
      "start": 0.5968,
      "duration": 0.0144,
      "velocity": 101,
      "chip": "ym2612"
    },
    {
      "channel": 0,
      "note": 68,
      "start": 0.6059,
      "duration": 0.0161,
      "velocity": 124,
      "chip": "ym2612"
    },
    {
      "channel": 4,
      "note": 61,
      "start": 0.6071,
      "duration": 0.0161,
      "velocity": 101,
      "chip": "ym2612"
    },
    {
      "channel": 3,
      "note": 64,
      "start": 0.609,
      "duration": 0.0154,
      "velocity": 101,
      "chip": "ym2612"
    },
    {
      "channel": 1,
      "note": 69,
      "start": 0.6113,
      "duration": 0.0181,
      "velocity": 101,
      "chip": "ym2612"
    },
    {
      "channel": 0,
      "note": 65,
      "start": 0.6221,
      "duration": 0.0161,
      "velocity": 124,
      "chip": "ym2612"
    },
    {
      "channel": 4,
      "note": 61,
      "start": 0.6232,
      "duration": 0.0161,
      "velocity": 101,
      "chip": "ym2612"
    },
    {
      "channel": 3,
      "note": 64,
      "start": 0.6244,
      "duration": 0.0161,
      "velocity": 101,
      "chip": "ym2612"
    },
    {
      "channel": 1,
      "note": 69,
      "start": 0.6294,
      "duration": 0.0161,
      "velocity": 101,
      "chip": "ym2612"
    },
    {
      "channel": 0,
      "note": 63,
      "start": 0.6382,
      "duration": 0.0153,
      "velocity": 1,
      "chip": "ym2612"
    },
    {
      "channel": 4,
      "note": 61,
      "start": 0.6393,
      "duration": 0.0153,
      "velocity": 101,
      "chip": "ym2612"
    },
    {
      "channel": 3,
      "note": 64,
      "start": 0.6405,
      "duration": 0.0153,
      "velocity": 101,
      "chip": "ym2612"
    },
    {
      "channel": 1,
      "note": 69,
      "start": 0.6455,
      "duration": 0.0149,
      "velocity": 101,
      "chip": "ym2612"
    },
    {
      "channel": 4,
      "note": 61,
      "start": 0.6546,
      "duration": 0.0153,
      "velocity": 101,
      "chip": "ym2612"
    },
    {
      "channel": 3,
      "note": 64,
      "start": 0.6557,
      "duration": 0.0153,
      "velocity": 101,
      "chip": "ym2612"
    },
    {
      "channel": 1,
      "note": 69,
      "start": 0.6604,
      "duration": 0.0129,
      "velocity": 101,
      "chip": "ym2612"
    },
    {
      "channel": 4,
      "note": 61,
      "start": 0.6699,
      "duration": 0.0161,
      "velocity": 101,
      "chip": "ym2612"
    },
    {
      "channel": 3,
      "note": 64,
      "start": 0.671,
      "duration": 0.0161,
      "velocity": 101,
      "chip": "ym2612"
    },
    {
      "channel": 1,
      "note": 69,
      "start": 0.6733,
      "duration": 0.0161,
      "velocity": 101,
      "chip": "ym2612"
    },
    {
      "channel": 4,
      "note": 61,
      "start": 0.686,
      "duration": 0.0161,
      "velocity": 101,
      "chip": "ym2612"
    },
    {
      "channel": 3,
      "note": 64,
      "start": 0.6871,
      "duration": 0.0161,
      "velocity": 101,
      "chip": "ym2612"
    },
    {
      "channel": 1,
      "note": 69,
      "start": 0.6894,
      "duration": 0.0161,
      "velocity": 101,
      "chip": "ym2612"
    },
    {
      "channel": 4,
      "note": 61,
      "start": 0.7021,
      "duration": 0.0198,
      "velocity": 101,
      "chip": "ym2612"
    },
    {
      "channel": 3,
      "note": 64,
      "start": 0.7032,
      "duration": 0.02,
      "velocity": 101,
      "chip": "ym2612"
    },
    {
      "channel": 1,
      "note": 69,
      "start": 0.7055,
      "duration": 0.0227,
      "velocity": 101,
      "chip": "ym2612"
    },
    {
      "channel": 0,
      "note": 36,
      "start": 0.7204,
      "duration": 0.0144,
      "velocity": 115,
      "chip": "ym2612"
    },
    {
      "channel": 4,
      "note": 61,
      "start": 0.7219,
      "duration": 0.0141,
      "velocity": 101,
      "chip": "ym2612"
    },
    {
      "channel": 3,
      "note": 64,
      "start": 0.7233,
      "duration": 0.0139,
      "velocity": 101,
      "chip": "ym2612"
    },
    {
      "channel": 1,
      "note": 69,
      "start": 0.7282,
      "duration": 0.0114,
      "velocity": 101,
      "chip": "ym2612"
    },
    {
      "channel": 0,
      "note": 36,
      "start": 0.7348,
      "duration": 0.016,
      "velocity": 115,
      "chip": "ym2612"
    },
    {
      "channel": 4,
      "note": 61,
      "start": 0.736,
      "duration": 0.016,
      "velocity": 101,
      "chip": "ym2612"
    },
    {
      "channel": 3,
      "note": 64,
      "start": 0.7372,
      "duration": 0.016,
      "velocity": 101,
      "chip": "ym2612"
    },
    {
      "channel": 1,
      "note": 69,
      "start": 0.7396,
      "duration": 0.0158,
      "velocity": 101,
      "chip": "ym2612"
    },
    {
      "channel": 0,
      "note": 37,
      "start": 0.7508,
      "duration": 0.0161,
      "velocity": 115,
      "chip": "ym2612"
    },
    {
      "channel": 4,
      "note": 61,
      "start": 0.7521,
      "duration": 0.0161,
      "velocity": 101,
      "chip": "ym2612"
    },
    {
      "channel": 3,
      "note": 64,
      "start": 0.7532,
      "duration": 0.0161,
      "velocity": 101,
      "chip": "ym2612"
    },
    {
      "channel": 1,
      "note": 69,
      "start": 0.7554,
      "duration": 0.0161,
      "velocity": 101,
      "chip": "ym2612"
    },
    {
      "channel": 0,
      "note": 37,
      "start": 0.7669,
      "duration": 0.0162,
      "velocity": 115,
      "chip": "ym2612"
    },
    {
      "channel": 4,
      "note": 61,
      "start": 0.7681,
      "duration": 0.0161,
      "velocity": 101,
      "chip": "ym2612"
    },
    {
      "channel": 3,
      "note": 64,
      "start": 0.7693,
      "duration": 0.0161,
      "velocity": 101,
      "chip": "ym2612"
    },
    {
      "channel": 1,
      "note": 69,
      "start": 0.7715,
      "duration": 0.0162,
      "velocity": 101,
      "chip": "ym2612"
    },
    {
      "channel": 0,
      "note": 38,
      "start": 0.7831,
      "duration": 0.0161,
      "velocity": 115,
      "chip": "ym2612"
    },
    {
      "channel": 4,
      "note": 61,
      "start": 0.7842,
      "duration": 0.0161,
      "velocity": 101,
      "chip": "ym2612"
    },
    {
      "channel": 3,
      "note": 64,
      "start": 0.7854,
      "duration": 0.0161,
      "velocity": 101,
      "chip": "ym2612"
    },
    {
      "channel": 1,
      "note": 69,
      "start": 0.7877,
      "duration": 0.0161,
      "velocity": 101,
      "chip": "ym2612"
    },
    {
      "channel": 0,
      "note": 38,
      "start": 0.7992,
      "duration": 0.0161,
      "velocity": 115,
      "chip": "ym2612"
    },
    {
      "channel": 4,
      "note": 61,
      "start": 0.8003,
      "duration": 0.0161,
      "velocity": 101,
      "chip": "ym2612"
    },
    {
      "channel": 3,
      "note": 64,
      "start": 0.8015,
      "duration": 0.0161,
      "velocity": 101,
      "chip": "ym2612"
    },
    {
      "channel": 1,
      "note": 69,
      "start": 0.8038,
      "duration": 0.0161,
      "velocity": 101,
      "chip": "ym2612"
    },
    {
      "channel": 0,
      "note": 39,
      "start": 0.8153,
      "duration": 0.0161,
      "velocity": 115,
      "chip": "ym2612"
    },
    {
      "channel": 4,
      "note": 61,
      "start": 0.8164,
      "duration": 0.0161,
      "velocity": 101,
      "chip": "ym2612"
    },
    {
      "channel": 3,
      "note": 64,
      "start": 0.8176,
      "duration": 0.0161,
      "velocity": 101,
      "chip": "ym2612"
    },
    {
      "channel": 1,
      "note": 69,
      "start": 0.8199,
      "duration": 0.0161,
      "velocity": 101,
      "chip": "ym2612"
    },
    {
      "channel": 0,
      "note": 39,
      "start": 0.8314,
      "duration": 0.0161,
      "velocity": 115,
      "chip": "ym2612"
    },
    {
      "channel": 4,
      "note": 61,
      "start": 0.8325,
      "duration": 0.0161,
      "velocity": 101,
      "chip": "ym2612"
    },
    {
      "channel": 3,
      "note": 64,
      "start": 0.8337,
      "duration": 0.0161,
      "velocity": 101,
      "chip": "ym2612"
    },
    {
      "channel": 1,
      "note": 69,
      "start": 0.836,
      "duration": 0.0161,
      "velocity": 101,
      "chip": "ym2612"
    },
    {
      "channel": 0,
      "note": 40,
      "start": 0.8475,
      "duration": 0.0161,
      "velocity": 115,
      "chip": "ym2612"
    },
    {
      "channel": 4,
      "note": 61,
      "start": 0.8486,
      "duration": 0.0161,
      "velocity": 101,
      "chip": "ym2612"
    },
    {
      "channel": 3,
      "note": 64,
      "start": 0.8498,
      "duration": 0.0161,
      "velocity": 101,
      "chip": "ym2612"
    },
    {
      "channel": 1,
      "note": 69,
      "start": 0.8521,
      "duration": 0.0161,
      "velocity": 101,
      "chip": "ym2612"
    },
    {
      "channel": 0,
      "note": 40,
      "start": 0.8636,
      "duration": 0.0161,
      "velocity": 115,
      "chip": "ym2612"
    },
    {
      "channel": 4,
      "note": 61,
      "start": 0.8647,
      "duration": 0.0161,
      "velocity": 101,
      "chip": "ym2612"
    },
    {
      "channel": 3,
      "note": 64,
      "start": 0.8659,
      "duration": 0.0161,
      "velocity": 101,
      "chip": "ym2612"
    },
    {
      "channel": 1,
      "note": 69,
      "start": 0.8681,
      "duration": 0.0161,
      "velocity": 101,
      "chip": "ym2612"
    },
    {
      "channel": 0,
      "note": 40,
      "start": 0.8797,
      "duration": 0.0162,
      "velocity": 115,
      "chip": "ym2612"
    },
    {
      "channel": 4,
      "note": 61,
      "start": 0.8808,
      "duration": 0.0161,
      "velocity": 101,
      "chip": "ym2612"
    },
    {
      "channel": 3,
      "note": 64,
      "start": 0.882,
      "duration": 0.0162,
      "velocity": 101,
      "chip": "ym2612"
    },
    {
      "channel": 1,
      "note": 69,
      "start": 0.8842,
      "duration": 0.0162,
      "velocity": 101,
      "chip": "ym2612"
    },
    {
      "channel": 0,
      "note": 41,
      "start": 0.8958,
      "duration": 0.0167,
      "velocity": 115,
      "chip": "ym2612"
    },
    {
      "channel": 4,
      "note": 61,
      "start": 0.897,
      "duration": 0.0167,
      "velocity": 101,
      "chip": "ym2612"
    },
    {
      "channel": 3,
      "note": 64,
      "start": 0.8981,
      "duration": 0.0167,
      "velocity": 101,
      "chip": "ym2612"
    },
    {
      "channel": 1,
      "note": 69,
      "start": 0.9004,
      "duration": 0.0167,
      "velocity": 101,
      "chip": "ym2612"
    },
    {
      "channel": 0,
      "note": 41,
      "start": 0.9125,
      "duration": 0.0163,
      "velocity": 115,
      "chip": "ym2612"
    },
    {
      "channel": 4,
      "note": 61,
      "start": 0.9136,
      "duration": 0.0163,
      "velocity": 101,
      "chip": "ym2612"
    },
    {
      "channel": 3,
      "note": 64,
      "start": 0.9148,
      "duration": 0.0163,
      "velocity": 101,
      "chip": "ym2612"
    },
    {
      "channel": 1,
      "note": 69,
      "start": 0.9171,
      "duration": 0.0163,
      "velocity": 101,
      "chip": "ym2612"
    },
    {
      "channel": 0,
      "note": 42,
      "start": 0.9288,
      "duration": 0.0153,
      "velocity": 115,
      "chip": "ym2612"
    },
    {
      "channel": 4,
      "note": 61,
      "start": 0.9299,
      "duration": 0.0154,
      "velocity": 101,
      "chip": "ym2612"
    },
    {
      "channel": 3,
      "note": 64,
      "start": 0.9311,
      "duration": 0.0153,
      "velocity": 101,
      "chip": "ym2612"
    },
    {
      "channel": 1,
      "note": 69,
      "start": 0.9334,
      "duration": 0.0153,
      "velocity": 101,
      "chip": "ym2612"
    },
    {
      "channel": 0,
      "note": 42,
      "start": 0.9441,
      "duration": 0.0184,
      "velocity": 115,
      "chip": "ym2612"
    },
    {
      "channel": 4,
      "note": 61,
      "start": 0.9453,
      "duration": 0.0184,
      "velocity": 101,
      "chip": "ym2612"
    },
    {
      "channel": 3,
      "note": 64,
      "start": 0.9464,
      "duration": 0.0184,
      "velocity": 101,
      "chip": "ym2612"
    },
    {
      "channel": 1,
      "note": 69,
      "start": 0.9487,
      "duration": 0.0184,
      "velocity": 101,
      "chip": "ym2612"
    },
    {
      "channel": 0,
      "note": 43,
      "start": 0.9625,
      "duration": 0.0165,
      "velocity": 115,
      "chip": "ym2612"
    },
    {
      "channel": 4,
      "note": 61,
      "start": 0.9636,
      "duration": 0.0166,
      "velocity": 101,
      "chip": "ym2612"
    },
    {
      "channel": 3,
      "note": 64,
      "start": 0.9648,
      "duration": 0.0165,
      "velocity": 101,
      "chip": "ym2612"
    },
    {
      "channel": 1,
      "note": 69,
      "start": 0.9671,
      "duration": 0.0165,
      "velocity": 101,
      "chip": "ym2612"
    },
    {
      "channel": 0,
      "note": 43,
      "start": 0.979,
      "duration": 0.0158,
      "velocity": 115,
      "chip": "ym2612"
    },
    {
      "channel": 4,
      "note": 61,
      "start": 0.9802,
      "duration": 0.0158,
      "velocity": 101,
      "chip": "ym2612"
    },
    {
      "channel": 3,
      "note": 64,
      "start": 0.9813,
      "duration": 0.0158,
      "velocity": 101,
      "chip": "ym2612"
    },
    {
      "channel": 1,
      "note": 69,
      "start": 0.9836,
      "duration": 0.0158,
      "velocity": 101,
      "chip": "ym2612"
    },
    {
      "channel": 0,
      "note": 44,
      "start": 0.9948,
      "duration": 0.014,
      "velocity": 115,
      "chip": "ym2612"
    },
    {
      "channel": 4,
      "note": 61,
      "start": 0.9959,
      "duration": 0.014,
      "velocity": 101,
      "chip": "ym2612"
    },
    {
      "channel": 3,
      "note": 64,
      "start": 0.9971,
      "duration": 0.014,
      "velocity": 101,
      "chip": "ym2612"
    },
    {
      "channel": 1,
      "note": 69,
      "start": 0.9994,
      "duration": 0.014,
      "velocity": 101,
      "chip": "ym2612"
    },
    {
      "channel": 0,
      "note": 44,
      "start": 1.0088,
      "duration": 0.0185,
      "velocity": 115,
      "chip": "ym2612"
    },
    {
      "channel": 4,
      "note": 61,
      "start": 1.01,
      "duration": 0.0186,
      "velocity": 101,
      "chip": "ym2612"
    },
    {
      "channel": 3,
      "note": 64,
      "start": 1.0111,
      "duration": 0.0186,
      "velocity": 101,
      "chip": "ym2612"
    },
    {
      "channel": 1,
      "note": 69,
      "start": 1.0134,
      "duration": 0.0185,
      "velocity": 101,
      "chip": "ym2612"
    },
    {
      "channel": 0,
      "note": 44,
      "start": 1.0273,
      "duration": 0.0134,
      "velocity": 115,
      "chip": "ym2612"
    },
    {
      "channel": 4,
      "note": 61,
      "start": 1.0285,
      "duration": 0.0161,
      "velocity": 101,
      "chip": "ym2612"
    },
    {
      "channel": 3,
      "note": 64,
      "start": 1.0297,
      "duration": 0.0161,
      "velocity": 101,
      "chip": "ym2612"
    },
    {
      "channel": 1,
      "note": 69,
      "start": 1.0319,
      "duration": 0.0162,
      "velocity": 101,
      "chip": "ym2612"
    },
    {
      "channel": 0,
      "note": 45,
      "start": 1.0407,
      "duration": 0.0161,
      "velocity": 115,
      "chip": "ym2612"
    },
    {
      "channel": 4,
      "note": 61,
      "start": 1.0446,
      "duration": 0.0157,
      "velocity": 101,
      "chip": "ym2612"
    },
    {
      "channel": 3,
      "note": 64,
      "start": 1.0458,
      "duration": 0.0157,
      "velocity": 101,
      "chip": "ym2612"
    },
    {
      "channel": 1,
      "note": 69,
      "start": 1.048,
      "duration": 0.0157,
      "velocity": 101,
      "chip": "ym2612"
    },
    {
      "channel": 0,
      "note": 45,
      "start": 1.0568,
      "duration": 0.0161,
      "velocity": 115,
      "chip": "ym2612"
    },
    {
      "channel": 4,
      "note": 61,
      "start": 1.0603,
      "duration": 0.0137,
      "velocity": 101,
      "chip": "ym2612"
    },
    {
      "channel": 3,
      "note": 64,
      "start": 1.0615,
      "duration": 0.0141,
      "velocity": 101,
      "chip": "ym2612"
    },
    {
      "channel": 1,
      "note": 69,
      "start": 1.0638,
      "duration": 0.0141,
      "velocity": 101,
      "chip": "ym2612"
    },
    {
      "channel": 0,
      "note": 46,
      "start": 1.0729,
      "duration": 0.0162,
      "velocity": 115,
      "chip": "ym2612"
    },
    {
      "channel": 4,
      "note": 61,
      "start": 1.0741,
      "duration": 0.0161,
      "velocity": 101,
      "chip": "ym2612"
    },
    {
      "channel": 3,
      "note": 64,
      "start": 1.0755,
      "duration": 0.0185,
      "velocity": 101,
      "chip": "ym2612"
    },
    {
      "channel": 1,
      "note": 69,
      "start": 1.0778,
      "duration": 0.0185,
      "velocity": 101,
      "chip": "ym2612"
    },
    {
      "channel": 0,
      "note": 46,
      "start": 1.089,
      "duration": 0.0161,
      "velocity": 115,
      "chip": "ym2612"
    },
    {
      "channel": 4,
      "note": 61,
      "start": 1.0902,
      "duration": 0.0161,
      "velocity": 101,
      "chip": "ym2612"
    },
    {
      "channel": 3,
      "note": 64,
      "start": 1.094,
      "duration": 0.0134,
      "velocity": 101,
      "chip": "ym2612"
    },
    {
      "channel": 1,
      "note": 69,
      "start": 1.0963,
      "duration": 0.0161,
      "velocity": 101,
      "chip": "ym2612"
    },
    {
      "channel": 0,
      "note": 47,
      "start": 1.1051,
      "duration": 0.0161,
      "velocity": 115,
      "chip": "ym2612"
    },
    {
      "channel": 4,
      "note": 61,
      "start": 1.1063,
      "duration": 0.0161,
      "velocity": 101,
      "chip": "ym2612"
    },
    {
      "channel": 3,
      "note": 64,
      "start": 1.1074,
      "duration": 0.0161,
      "velocity": 101,
      "chip": "ym2612"
    },
    {
      "channel": 1,
      "note": 69,
      "start": 1.1124,
      "duration": 0.0157,
      "velocity": 101,
      "chip": "ym2612"
    },
    {
      "channel": 0,
      "note": 47,
      "start": 1.1212,
      "duration": 0.0161,
      "velocity": 115,
      "chip": "ym2612"
    },
    {
      "channel": 4,
      "note": 61,
      "start": 1.1224,
      "duration": 0.0161,
      "velocity": 101,
      "chip": "ym2612"
    },
    {
      "channel": 3,
      "note": 64,
      "start": 1.1235,
      "duration": 0.0161,
      "velocity": 101,
      "chip": "ym2612"
    },
    {
      "channel": 1,
      "note": 69,
      "start": 1.1281,
      "duration": 0.0141,
      "velocity": 101,
      "chip": "ym2612"
    },
    {
      "channel": 0,
      "note": 47,
      "start": 1.1373,
      "duration": 0.0161,
      "velocity": 115,
      "chip": "ym2612"
    },
    {
      "channel": 4,
      "note": 61,
      "start": 1.1384,
      "duration": 0.0161,
      "velocity": 101,
      "chip": "ym2612"
    },
    {
      "channel": 3,
      "note": 64,
      "start": 1.1396,
      "duration": 0.0161,
      "velocity": 101,
      "chip": "ym2612"
    },
    {
      "channel": 1,
      "note": 69,
      "start": 1.1422,
      "duration": 0.0185,
      "velocity": 101,
      "chip": "ym2612"
    },
    {
      "channel": 0,
      "note": 48,
      "start": 1.1534,
      "duration": 0.0179,
      "velocity": 115,
      "chip": "ym2612"
    },
    {
      "channel": 4,
      "note": 61,
      "start": 1.1545,
      "duration": 0.0179,
      "velocity": 101,
      "chip": "ym2612"
    },
    {
      "channel": 3,
      "note": 64,
      "start": 1.1557,
      "duration": 0.0179,
      "velocity": 101,
      "chip": "ym2612"
    },
    {
      "channel": 1,
      "note": 69,
      "start": 1.1607,
      "duration": 0.0179,
      "velocity": 101,
      "chip": "ym2612"
    },
    {
      "channel": 0,
      "note": 36,
      "start": 1.1713,
      "duration": 0.0144,
      "velocity": 115,
      "chip": "ym2612"
    },
    {
      "channel": 4,
      "note": 61,
      "start": 1.1725,
      "duration": 0.0143,
      "velocity": 101,
      "chip": "ym2612"
    },
    {
      "channel": 3,
      "note": 64,
      "start": 1.1736,
      "duration": 0.0143,
      "velocity": 101,
      "chip": "ym2612"
    },
    {
      "channel": 1,
      "note": 69,
      "start": 1.1786,
      "duration": 0.0116,
      "velocity": 101,
      "chip": "ym2612"
    },
    {
      "channel": 0,
      "note": 36,
      "start": 1.1856,
      "duration": 0.016,
      "velocity": 115,
      "chip": "ym2612"
    },
    {
      "channel": 4,
      "note": 61,
      "start": 1.1868,
      "duration": 0.0161,
      "velocity": 101,
      "chip": "ym2612"
    },
    {
      "channel": 3,
      "note": 64,
      "start": 1.1879,
      "duration": 0.0161,
      "velocity": 101,
      "chip": "ym2612"
    },
    {
      "channel": 1,
      "note": 69,
      "start": 1.1902,
      "duration": 0.016,
      "velocity": 101,
      "chip": "ym2612"
    },
    {
      "channel": 0,
      "note": 37,
      "start": 1.2017,
      "duration": 0.0161,
      "velocity": 115,
      "chip": "ym2612"
    },
    {
      "channel": 4,
      "note": 61,
      "start": 1.2029,
      "duration": 0.0161,
      "velocity": 101,
      "chip": "ym2612"
    },
    {
      "channel": 3,
      "note": 64,
      "start": 1.204,
      "duration": 0.0161,
      "velocity": 101,
      "chip": "ym2612"
    },
    {
      "channel": 1,
      "note": 69,
      "start": 1.2063,
      "duration": 0.0161,
      "velocity": 101,
      "chip": "ym2612"
    },
    {
      "channel": 0,
      "note": 37,
      "start": 1.2178,
      "duration": 0.0161,
      "velocity": 115,
      "chip": "ym2612"
    },
    {
      "channel": 4,
      "note": 61,
      "start": 1.219,
      "duration": 0.0161,
      "velocity": 101,
      "chip": "ym2612"
    },
    {
      "channel": 3,
      "note": 64,
      "start": 1.2201,
      "duration": 0.0161,
      "velocity": 101,
      "chip": "ym2612"
    },
    {
      "channel": 1,
      "note": 69,
      "start": 1.2224,
      "duration": 0.0161,
      "velocity": 101,
      "chip": "ym2612"
    },
    {
      "channel": 0,
      "note": 38,
      "start": 1.2339,
      "duration": 0.0161,
      "velocity": 115,
      "chip": "ym2612"
    },
    {
      "channel": 4,
      "note": 61,
      "start": 1.2351,
      "duration": 0.0161,
      "velocity": 101,
      "chip": "ym2612"
    },
    {
      "channel": 3,
      "note": 64,
      "start": 1.2362,
      "duration": 0.0161,
      "velocity": 101,
      "chip": "ym2612"
    },
    {
      "channel": 1,
      "note": 69,
      "start": 1.2385,
      "duration": 0.0161,
      "velocity": 101,
      "chip": "ym2612"
    },
    {
      "channel": 0,
      "note": 38,
      "start": 1.25,
      "duration": 0.0161,
      "velocity": 115,
      "chip": "ym2612"
    },
    {
      "channel": 4,
      "note": 61,
      "start": 1.2512,
      "duration": 0.0161,
      "velocity": 101,
      "chip": "ym2612"
    },
    {
      "channel": 3,
      "note": 64,
      "start": 1.2523,
      "duration": 0.0161,
      "velocity": 101,
      "chip": "ym2612"
    },
    {
      "channel": 1,
      "note": 69,
      "start": 1.2546,
      "duration": 0.0161,
      "velocity": 101,
      "chip": "ym2612"
    },
    {
      "channel": 0,
      "note": 39,
      "start": 1.2661,
      "duration": 0.0161,
      "velocity": 115,
      "chip": "ym2612"
    },
    {
      "channel": 4,
      "note": 61,
      "start": 1.2673,
      "duration": 0.0161,
      "velocity": 101,
      "chip": "ym2612"
    },
    {
      "channel": 3,
      "note": 64,
      "start": 1.2684,
      "duration": 0.0161,
      "velocity": 101,
      "chip": "ym2612"
    },
    {
      "channel": 1,
      "note": 69,
      "start": 1.2707,
      "duration": 0.0161,
      "velocity": 101,
      "chip": "ym2612"
    },
    {
      "channel": 0,
      "note": 39,
      "start": 1.2822,
      "duration": 0.0161,
      "velocity": 115,
      "chip": "ym2612"
    },
    {
      "channel": 4,
      "note": 61,
      "start": 1.2834,
      "duration": 0.0161,
      "velocity": 101,
      "chip": "ym2612"
    },
    {
      "channel": 3,
      "note": 64,
      "start": 1.2845,
      "duration": 0.0161,
      "velocity": 101,
      "chip": "ym2612"
    },
    {
      "channel": 1,
      "note": 69,
      "start": 1.2868,
      "duration": 0.0161,
      "velocity": 101,
      "chip": "ym2612"
    },
    {
      "channel": 0,
      "note": 40,
      "start": 1.2983,
      "duration": 0.0161,
      "velocity": 115,
      "chip": "ym2612"
    },
    {
      "channel": 4,
      "note": 61,
      "start": 1.2995,
      "duration": 0.0161,
      "velocity": 101,
      "chip": "ym2612"
    },
    {
      "channel": 3,
      "note": 64,
      "start": 1.3006,
      "duration": 0.0161,
      "velocity": 101,
      "chip": "ym2612"
    },
    {
      "channel": 1,
      "note": 69,
      "start": 1.3029,
      "duration": 0.0161,
      "velocity": 101,
      "chip": "ym2612"
    },
    {
      "channel": 0,
      "note": 40,
      "start": 1.3144,
      "duration": 0.0161,
      "velocity": 115,
      "chip": "ym2612"
    },
    {
      "channel": 4,
      "note": 61,
      "start": 1.3155,
      "duration": 0.0161,
      "velocity": 101,
      "chip": "ym2612"
    },
    {
      "channel": 3,
      "note": 64,
      "start": 1.3167,
      "duration": 0.0161,
      "velocity": 101,
      "chip": "ym2612"
    },
    {
      "channel": 1,
      "note": 69,
      "start": 1.319,
      "duration": 0.0161,
      "velocity": 101,
      "chip": "ym2612"
    },
    {
      "channel": 0,
      "note": 40,
      "start": 1.3305,
      "duration": 0.0161,
      "velocity": 115,
      "chip": "ym2612"
    },
    {
      "channel": 4,
      "note": 61,
      "start": 1.3316,
      "duration": 0.0162,
      "velocity": 101,
      "chip": "ym2612"
    },
    {
      "channel": 3,
      "note": 64,
      "start": 1.3328,
      "duration": 0.0161,
      "velocity": 101,
      "chip": "ym2612"
    },
    {
      "channel": 1,
      "note": 69,
      "start": 1.3351,
      "duration": 0.0161,
      "velocity": 101,
      "chip": "ym2612"
    },
    {
      "channel": 0,
      "note": 41,
      "start": 1.3466,
      "duration": 0.0161,
      "velocity": 115,
      "chip": "ym2612"
    },
    {
      "channel": 4,
      "note": 61,
      "start": 1.3478,
      "duration": 0.0161,
      "velocity": 101,
      "chip": "ym2612"
    },
    {
      "channel": 3,
      "note": 64,
      "start": 1.3489,
      "duration": 0.0161,
      "velocity": 101,
      "chip": "ym2612"
    },
    {
      "channel": 1,
      "note": 69,
      "start": 1.3512,
      "duration": 0.0161,
      "velocity": 101,
      "chip": "ym2612"
    },
    {
      "channel": 0,
      "note": 41,
      "start": 1.3627,
      "duration": 0.0165,
      "velocity": 115,
      "chip": "ym2612"
    },
    {
      "channel": 4,
      "note": 61,
      "start": 1.3639,
      "duration": 0.0164,
      "velocity": 101,
      "chip": "ym2612"
    },
    {
      "channel": 3,
      "note": 64,
      "start": 1.365,
      "duration": 0.0164,
      "velocity": 101,
      "chip": "ym2612"
    },
    {
      "channel": 1,
      "note": 69,
      "start": 1.3673,
      "duration": 0.0165,
      "velocity": 101,
      "chip": "ym2612"
    },
    {
      "channel": 0,
      "note": 42,
      "start": 1.3792,
      "duration": 0.018,
      "velocity": 124,
      "chip": "ym2612"
    },
    {
      "channel": 4,
      "note": 61,
      "start": 1.3803,
      "duration": 0.0181,
      "velocity": 101,
      "chip": "ym2612"
    },
    {
      "channel": 3,
      "note": 64,
      "start": 1.3815,
      "duration": 0.0181,
      "velocity": 101,
      "chip": "ym2612"
    },
    {
      "channel": 1,
      "note": 69,
      "start": 1.3837,
      "duration": 0.0181,
      "velocity": 101,
      "chip": "ym2612"
    },
    {
      "channel": 0,
      "note": 84,
      "start": 1.3972,
      "duration": 0.0139,
      "velocity": 124,
      "chip": "ym2612"
    },
    {
      "channel": 4,
      "note": 61,
      "start": 1.3984,
      "duration": 0.0139,
      "velocity": 101,
      "chip": "ym2612"
    },
    {
      "channel": 3,
      "note": 64,
      "start": 1.3995,
      "duration": 0.0139,
      "velocity": 101,
      "chip": "ym2612"
    },
    {
      "channel": 1,
      "note": 69,
      "start": 1.4018,
      "duration": 0.0139,
      "velocity": 101,
      "chip": "ym2612"
    },
    {
      "channel": 0,
      "note": 82,
      "start": 1.4111,
      "duration": 0.0181,
      "velocity": 124,
      "chip": "ym2612"
    },
    {
      "channel": 4,
      "note": 61,
      "start": 1.4122,
      "duration": 0.018,
      "velocity": 101,
      "chip": "ym2612"
    },
    {
      "channel": 3,
      "note": 64,
      "start": 1.4134,
      "duration": 0.0181,
      "velocity": 101,
      "chip": "ym2612"
    },
    {
      "channel": 1,
      "note": 69,
      "start": 1.4157,
      "duration": 0.0181,
      "velocity": 101,
      "chip": "ym2612"
    },
    {
      "channel": 0,
      "note": 80,
      "start": 1.4292,
      "duration": 0.0167,
      "velocity": 124,
      "chip": "ym2612"
    },
    {
      "channel": 4,
      "note": 61,
      "start": 1.4303,
      "duration": 0.0167,
      "velocity": 101,
      "chip": "ym2612"
    },
    {
      "channel": 3,
      "note": 64,
      "start": 1.4315,
      "duration": 0.0167,
      "velocity": 101,
      "chip": "ym2612"
    },
    {
      "channel": 1,
      "note": 69,
      "start": 1.4337,
      "duration": 0.0167,
      "velocity": 101,
      "chip": "ym2612"
    },
    {
      "channel": 0,
      "note": 77,
      "start": 1.4458,
      "duration": 0.0159,
      "velocity": 124,
      "chip": "ym2612"
    },
    {
      "channel": 4,
      "note": 61,
      "start": 1.447,
      "duration": 0.0159,
      "velocity": 101,
      "chip": "ym2612"
    },
    {
      "channel": 3,
      "note": 64,
      "start": 1.4481,
      "duration": 0.0159,
      "velocity": 101,
      "chip": "ym2612"
    },
    {
      "channel": 1,
      "note": 69,
      "start": 1.4504,
      "duration": 0.0159,
      "velocity": 101,
      "chip": "ym2612"
    },
    {
      "channel": 0,
      "note": 75,
      "start": 1.4617,
      "duration": 0.014,
      "velocity": 124,
      "chip": "ym2612"
    },
    {
      "channel": 4,
      "note": 61,
      "start": 1.4629,
      "duration": 0.0141,
      "velocity": 101,
      "chip": "ym2612"
    },
    {
      "channel": 3,
      "note": 64,
      "start": 1.464,
      "duration": 0.0141,
      "velocity": 101,
      "chip": "ym2612"
    },
    {
      "channel": 1,
      "note": 69,
      "start": 1.4663,
      "duration": 0.014,
      "velocity": 101,
      "chip": "ym2612"
    },
    {
      "channel": 0,
      "note": 72,
      "start": 1.4757,
      "duration": 0.0186,
      "velocity": 124,
      "chip": "ym2612"
    },
    {
      "channel": 4,
      "note": 61,
      "start": 1.4769,
      "duration": 0.0185,
      "velocity": 101,
      "chip": "ym2612"
    },
    {
      "channel": 3,
      "note": 64,
      "start": 1.4781,
      "duration": 0.0185,
      "velocity": 101,
      "chip": "ym2612"
    },
    {
      "channel": 1,
      "note": 69,
      "start": 1.4803,
      "duration": 0.0186,
      "velocity": 101,
      "chip": "ym2612"
    },
    {
      "channel": 0,
      "note": 70,
      "start": 1.4943,
      "duration": 0.0133,
      "velocity": 124,
      "chip": "ym2612"
    },
    {
      "channel": 4,
      "note": 61,
      "start": 1.4954,
      "duration": 0.0161,
      "velocity": 101,
      "chip": "ym2612"
    },
    {
      "channel": 3,
      "note": 64,
      "start": 1.4966,
      "duration": 0.0161,
      "velocity": 101,
      "chip": "ym2612"
    },
    {
      "channel": 1,
      "note": 69,
      "start": 1.4989,
      "duration": 0.0161,
      "velocity": 101,
      "chip": "ym2612"
    },
    {
      "channel": 0,
      "note": 68,
      "start": 1.5076,
      "duration": 0.0161,
      "velocity": 124,
      "chip": "ym2612"
    },
    {
      "channel": 4,
      "note": 61,
      "start": 1.5115,
      "duration": 0.0158,
      "velocity": 101,
      "chip": "ym2612"
    },
    {
      "channel": 3,
      "note": 64,
      "start": 1.5127,
      "duration": 0.0158,
      "velocity": 101,
      "chip": "ym2612"
    },
    {
      "channel": 1,
      "note": 69,
      "start": 1.515,
      "duration": 0.0157,
      "velocity": 101,
      "chip": "ym2612"
    },
    {
      "channel": 0,
      "note": 65,
      "start": 1.5237,
      "duration": 0.0161,
      "velocity": 124,
      "chip": "ym2612"
    },
    {
      "channel": 4,
      "note": 61,
      "start": 1.5273,
      "duration": 0.0137,
      "velocity": 101,
      "chip": "ym2612"
    },
    {
      "channel": 3,
      "note": 64,
      "start": 1.5285,
      "duration": 0.014,
      "velocity": 101,
      "chip": "ym2612"
    },
    {
      "channel": 1,
      "note": 69,
      "start": 1.5307,
      "duration": 0.0141,
      "velocity": 101,
      "chip": "ym2612"
    },
    {
      "channel": 0,
      "note": 63,
      "start": 1.5398,
      "duration": 0.0153,
      "velocity": 1,
      "chip": "ym2612"
    },
    {
      "channel": 4,
      "note": 61,
      "start": 1.541,
      "duration": 0.0153,
      "velocity": 101,
      "chip": "ym2612"
    },
    {
      "channel": 3,
      "note": 64,
      "start": 1.5424,
      "duration": 0.0149,
      "velocity": 101,
      "chip": "ym2612"
    },
    {
      "channel": 1,
      "note": 69,
      "start": 1.5447,
      "duration": 0.0177,
      "velocity": 101,
      "chip": "ym2612"
    },
    {
      "channel": 4,
      "note": 61,
      "start": 1.5563,
      "duration": 0.0153,
      "velocity": 101,
      "chip": "ym2612"
    },
    {
      "channel": 3,
      "note": 64,
      "start": 1.5574,
      "duration": 0.0153,
      "velocity": 101,
      "chip": "ym2612"
    },
    {
      "channel": 1,
      "note": 69,
      "start": 1.5624,
      "duration": 0.0153,
      "velocity": 101,
      "chip": "ym2612"
    },
    {
      "channel": 4,
      "note": 61,
      "start": 1.5715,
      "duration": 0.0161,
      "velocity": 101,
      "chip": "ym2612"
    },
    {
      "channel": 3,
      "note": 64,
      "start": 1.5727,
      "duration": 0.0161,
      "velocity": 101,
      "chip": "ym2612"
    },
    {
      "channel": 1,
      "note": 69,
      "start": 1.5777,
      "duration": 0.0134,
      "velocity": 101,
      "chip": "ym2612"
    },
    {
      "channel": 4,
      "note": 61,
      "start": 1.5876,
      "duration": 0.0161,
      "velocity": 101,
      "chip": "ym2612"
    },
    {
      "channel": 3,
      "note": 64,
      "start": 1.5888,
      "duration": 0.0161,
      "velocity": 101,
      "chip": "ym2612"
    },
    {
      "channel": 1,
      "note": 69,
      "start": 1.591,
      "duration": 0.0161,
      "velocity": 101,
      "chip": "ym2612"
    },
    {
      "channel": 4,
      "note": 61,
      "start": 1.6037,
      "duration": 0.0196,
      "velocity": 101,
      "chip": "ym2612"
    },
    {
      "channel": 3,
      "note": 64,
      "start": 1.6049,
      "duration": 0.0223,
      "velocity": 101,
      "chip": "ym2612"
    },
    {
      "channel": 1,
      "note": 69,
      "start": 1.6071,
      "duration": 0.0223,
      "velocity": 101,
      "chip": "ym2612"
    },
    {
      "channel": 0,
      "note": 36,
      "start": 1.6221,
      "duration": 0.0144,
      "velocity": 115,
      "chip": "ym2612"
    },
    {
      "channel": 4,
      "note": 61,
      "start": 1.6233,
      "duration": 0.0143,
      "velocity": 101,
      "chip": "ym2612"
    },
    {
      "channel": 3,
      "note": 64,
      "start": 1.6272,
      "duration": 0.0116,
      "velocity": 101,
      "chip": "ym2612"
    },
    {
      "channel": 1,
      "note": 69,
      "start": 1.6295,
      "duration": 0.0116,
      "velocity": 101,
      "chip": "ym2612"
    },
    {
      "channel": 0,
      "note": 36,
      "start": 1.6365,
      "duration": 0.016,
      "velocity": 115,
      "chip": "ym2612"
    },
    {
      "channel": 4,
      "note": 61,
      "start": 1.6376,
      "duration": 0.0161,
      "velocity": 101,
      "chip": "ym2612"
    },
    {
      "channel": 3,
      "note": 64,
      "start": 1.6388,
      "duration": 0.0161,
      "velocity": 101,
      "chip": "ym2612"
    },
    {
      "channel": 1,
      "note": 69,
      "start": 1.641,
      "duration": 0.016,
      "velocity": 101,
      "chip": "ym2612"
    },
    {
      "channel": 0,
      "note": 37,
      "start": 1.6525,
      "duration": 0.0162,
      "velocity": 115,
      "chip": "ym2612"
    },
    {
      "channel": 4,
      "note": 61,
      "start": 1.6537,
      "duration": 0.0161,
      "velocity": 101,
      "chip": "ym2612"
    },
    {
      "channel": 3,
      "note": 64,
      "start": 1.6549,
      "duration": 0.0161,
      "velocity": 101,
      "chip": "ym2612"
    },
    {
      "channel": 1,
      "note": 69,
      "start": 1.6571,
      "duration": 0.0162,
      "velocity": 101,
      "chip": "ym2612"
    },
    {
      "channel": 0,
      "note": 37,
      "start": 1.6687,
      "duration": 0.0161,
      "velocity": 115,
      "chip": "ym2612"
    },
    {
      "channel": 4,
      "note": 61,
      "start": 1.6698,
      "duration": 0.0161,
      "velocity": 101,
      "chip": "ym2612"
    },
    {
      "channel": 3,
      "note": 64,
      "start": 1.671,
      "duration": 0.0161,
      "velocity": 101,
      "chip": "ym2612"
    },
    {
      "channel": 1,
      "note": 69,
      "start": 1.6732,
      "duration": 0.0161,
      "velocity": 101,
      "chip": "ym2612"
    },
    {
      "channel": 0,
      "note": 38,
      "start": 1.6848,
      "duration": 0.0161,
      "velocity": 115,
      "chip": "ym2612"
    },
    {
      "channel": 4,
      "note": 61,
      "start": 1.6859,
      "duration": 0.0161,
      "velocity": 101,
      "chip": "ym2612"
    },
    {
      "channel": 3,
      "note": 64,
      "start": 1.6871,
      "duration": 0.0161,
      "velocity": 101,
      "chip": "ym2612"
    },
    {
      "channel": 1,
      "note": 69,
      "start": 1.6893,
      "duration": 0.0161,
      "velocity": 101,
      "chip": "ym2612"
    },
    {
      "channel": 0,
      "note": 38,
      "start": 1.7008,
      "duration": 0.0161,
      "velocity": 115,
      "chip": "ym2612"
    },
    {
      "channel": 4,
      "note": 61,
      "start": 1.702,
      "duration": 0.0161,
      "velocity": 101,
      "chip": "ym2612"
    },
    {
      "channel": 3,
      "note": 64,
      "start": 1.7031,
      "duration": 0.0161,
      "velocity": 101,
      "chip": "ym2612"
    },
    {
      "channel": 1,
      "note": 69,
      "start": 1.7054,
      "duration": 0.0161,
      "velocity": 101,
      "chip": "ym2612"
    },
    {
      "channel": 0,
      "note": 39,
      "start": 1.7169,
      "duration": 0.0161,
      "velocity": 115,
      "chip": "ym2612"
    },
    {
      "channel": 4,
      "note": 61,
      "start": 1.7181,
      "duration": 0.0161,
      "velocity": 101,
      "chip": "ym2612"
    },
    {
      "channel": 3,
      "note": 64,
      "start": 1.7192,
      "duration": 0.0161,
      "velocity": 101,
      "chip": "ym2612"
    },
    {
      "channel": 1,
      "note": 69,
      "start": 1.7215,
      "duration": 0.0161,
      "velocity": 101,
      "chip": "ym2612"
    },
    {
      "channel": 0,
      "note": 39,
      "start": 1.733,
      "duration": 0.0161,
      "velocity": 115,
      "chip": "ym2612"
    },
    {
      "channel": 4,
      "note": 61,
      "start": 1.7342,
      "duration": 0.0161,
      "velocity": 101,
      "chip": "ym2612"
    },
    {
      "channel": 3,
      "note": 64,
      "start": 1.7353,
      "duration": 0.0161,
      "velocity": 101,
      "chip": "ym2612"
    },
    {
      "channel": 1,
      "note": 69,
      "start": 1.7376,
      "duration": 0.0161,
      "velocity": 101,
      "chip": "ym2612"
    },
    {
      "channel": 0,
      "note": 40,
      "start": 1.7491,
      "duration": 0.0161,
      "velocity": 115,
      "chip": "ym2612"
    },
    {
      "channel": 4,
      "note": 61,
      "start": 1.7503,
      "duration": 0.0161,
      "velocity": 101,
      "chip": "ym2612"
    },
    {
      "channel": 3,
      "note": 64,
      "start": 1.7514,
      "duration": 0.0161,
      "velocity": 101,
      "chip": "ym2612"
    },
    {
      "channel": 1,
      "note": 69,
      "start": 1.7537,
      "duration": 0.0161,
      "velocity": 101,
      "chip": "ym2612"
    },
    {
      "channel": 0,
      "note": 40,
      "start": 1.7652,
      "duration": 0.0161,
      "velocity": 115,
      "chip": "ym2612"
    },
    {
      "channel": 4,
      "note": 61,
      "start": 1.7664,
      "duration": 0.0161,
      "velocity": 101,
      "chip": "ym2612"
    },
    {
      "channel": 3,
      "note": 64,
      "start": 1.7675,
      "duration": 0.0161,
      "velocity": 101,
      "chip": "ym2612"
    },
    {
      "channel": 1,
      "note": 69,
      "start": 1.7698,
      "duration": 0.0161,
      "velocity": 101,
      "chip": "ym2612"
    },
    {
      "channel": 0,
      "note": 40,
      "start": 1.7813,
      "duration": 0.0161,
      "velocity": 115,
      "chip": "ym2612"
    },
    {
      "channel": 4,
      "note": 61,
      "start": 1.7825,
      "duration": 0.0161,
      "velocity": 101,
      "chip": "ym2612"
    },
    {
      "channel": 3,
      "note": 64,
      "start": 1.7836,
      "duration": 0.0162,
      "velocity": 101,
      "chip": "ym2612"
    },
    {
      "channel": 1,
      "note": 69,
      "start": 1.7859,
      "duration": 0.0161,
      "velocity": 101,
      "chip": "ym2612"
    },
    {
      "channel": 0,
      "note": 41,
      "start": 1.7974,
      "duration": 0.0161,
      "velocity": 115,
      "chip": "ym2612"
    },
    {
      "channel": 4,
      "note": 61,
      "start": 1.7986,
      "duration": 0.0161,
      "velocity": 101,
      "chip": "ym2612"
    },
    {
      "channel": 3,
      "note": 64,
      "start": 1.7998,
      "duration": 0.0161,
      "velocity": 101,
      "chip": "ym2612"
    },
    {
      "channel": 1,
      "note": 69,
      "start": 1.802,
      "duration": 0.0161,
      "velocity": 101,
      "chip": "ym2612"
    },
    {
      "channel": 0,
      "note": 41,
      "start": 1.8135,
      "duration": 0.0161,
      "velocity": 115,
      "chip": "ym2612"
    },
    {
      "channel": 4,
      "note": 61,
      "start": 1.8147,
      "duration": 0.0161,
      "velocity": 101,
      "chip": "ym2612"
    },
    {
      "channel": 3,
      "note": 64,
      "start": 1.8159,
      "duration": 0.0161,
      "velocity": 101,
      "chip": "ym2612"
    },
    {
      "channel": 1,
      "note": 69,
      "start": 1.8181,
      "duration": 0.0161,
      "velocity": 101,
      "chip": "ym2612"
    },
    {
      "channel": 0,
      "note": 42,
      "start": 1.8297,
      "duration": 0.0179,
      "velocity": 115,
      "chip": "ym2612"
    },
    {
      "channel": 4,
      "note": 61,
      "start": 1.8308,
      "duration": 0.0182,
      "velocity": 101,
      "chip": "ym2612"
    },
    {
      "channel": 3,
      "note": 64,
      "start": 1.832,
      "duration": 0.0185,
      "velocity": 101,
      "chip": "ym2612"
    },
    {
      "channel": 1,
      "note": 69,
      "start": 1.8342,
      "duration": 0.0189,
      "velocity": 101,
      "chip": "ym2612"
    },
    {
      "channel": 0,
      "note": 36,
      "start": 1.8476,
      "duration": 0.0146,
      "velocity": 115,
      "chip": "ym2612"
    },
    {
      "channel": 4,
      "note": 54,
      "start": 1.849,
      "duration": 0.0144,
      "velocity": 101,
      "chip": "ym2612"
    },
    {
      "channel": 3,
      "note": 57,
      "start": 1.8505,
      "duration": 0.0141,
      "velocity": 101,
      "chip": "ym2612"
    },
    {
      "channel": 1,
      "note": 62,
      "start": 1.8531,
      "duration": 0.0138,
      "velocity": 101,
      "chip": "ym2612"
    },
    {
      "channel": 0,
      "note": 36,
      "start": 1.8622,
      "duration": 0.0158,
      "velocity": 115,
      "chip": "ym2612"
    },
    {
      "channel": 4,
      "note": 54,
      "start": 1.8634,
      "duration": 0.0157,
      "velocity": 101,
      "chip": "ym2612"
    },
    {
      "channel": 3,
      "note": 57,
      "start": 1.8646,
      "duration": 0.0157,
      "velocity": 101,
      "chip": "ym2612"
    },
    {
      "channel": 1,
      "note": 62,
      "start": 1.8669,
      "duration": 0.0156,
      "velocity": 101,
      "chip": "ym2612"
    },
    {
      "channel": 0,
      "note": 37,
      "start": 1.878,
      "duration": 0.0179,
      "velocity": 115,
      "chip": "ym2612"
    },
    {
      "channel": 4,
      "note": 54,
      "start": 1.8791,
      "duration": 0.0179,
      "velocity": 101,
      "chip": "ym2612"
    },
    {
      "channel": 3,
      "note": 57,
      "start": 1.8802,
      "duration": 0.0179,
      "velocity": 101,
      "chip": "ym2612"
    },
    {
      "channel": 1,
      "note": 62,
      "start": 1.8825,
      "duration": 0.0179,
      "velocity": 101,
      "chip": "ym2612"
    },
    {
      "channel": 0,
      "note": 37,
      "start": 1.8958,
      "duration": 0.0167,
      "velocity": 115,
      "chip": "ym2612"
    },
    {
      "channel": 4,
      "note": 54,
      "start": 1.897,
      "duration": 0.0167,
      "velocity": 101,
      "chip": "ym2612"
    },
    {
      "channel": 3,
      "note": 57,
      "start": 1.8981,
      "duration": 0.0167,
      "velocity": 101,
      "chip": "ym2612"
    },
    {
      "channel": 1,
      "note": 62,
      "start": 1.9004,
      "duration": 0.0167,
      "velocity": 101,
      "chip": "ym2612"
    },
    {
      "channel": 0,
      "note": 38,
      "start": 1.9125,
      "duration": 0.0161,
      "velocity": 115,
      "chip": "ym2612"
    },
    {
      "channel": 4,
      "note": 54,
      "start": 1.9136,
      "duration": 0.0162,
      "velocity": 101,
      "chip": "ym2612"
    },
    {
      "channel": 3,
      "note": 57,
      "start": 1.9148,
      "duration": 0.0161,
      "velocity": 101,
      "chip": "ym2612"
    },
    {
      "channel": 1,
      "note": 62,
      "start": 1.9171,
      "duration": 0.0161,
      "velocity": 101,
      "chip": "ym2612"
    },
    {
      "channel": 0,
      "note": 38,
      "start": 1.9286,
      "duration": 0.014,
      "velocity": 115,
      "chip": "ym2612"
    },
    {
      "channel": 4,
      "note": 54,
      "start": 1.9298,
      "duration": 0.0141,
      "velocity": 101,
      "chip": "ym2612"
    },
    {
      "channel": 3,
      "note": 57,
      "start": 1.9309,
      "duration": 0.0141,
      "velocity": 101,
      "chip": "ym2612"
    },
    {
      "channel": 1,
      "note": 62,
      "start": 1.9332,
      "duration": 0.014,
      "velocity": 101,
      "chip": "ym2612"
    },
    {
      "channel": 0,
      "note": 39,
      "start": 1.9427,
      "duration": 0.0186,
      "velocity": 115,
      "chip": "ym2612"
    },
    {
      "channel": 4,
      "note": 54,
      "start": 1.9439,
      "duration": 0.0185,
      "velocity": 101,
      "chip": "ym2612"
    },
    {
      "channel": 3,
      "note": 57,
      "start": 1.945,
      "duration": 0.0185,
      "velocity": 101,
      "chip": "ym2612"
    },
    {
      "channel": 1,
      "note": 62,
      "start": 1.9472,
      "duration": 0.0186,
      "velocity": 101,
      "chip": "ym2612"
    },
    {
      "channel": 0,
      "note": 39,
      "start": 1.9612,
      "duration": 0.0161,
      "velocity": 115,
      "chip": "ym2612"
    },
    {
      "channel": 4,
      "note": 54,
      "start": 1.9624,
      "duration": 0.0161,
      "velocity": 101,
      "chip": "ym2612"
    },
    {
      "channel": 3,
      "note": 57,
      "start": 1.9635,
      "duration": 0.0161,
      "velocity": 101,
      "chip": "ym2612"
    },
    {
      "channel": 1,
      "note": 62,
      "start": 1.9658,
      "duration": 0.0161,
      "velocity": 101,
      "chip": "ym2612"
    },
    {
      "channel": 0,
      "note": 40,
      "start": 1.9773,
      "duration": 0.0134,
      "velocity": 115,
      "chip": "ym2612"
    },
    {
      "channel": 4,
      "note": 54,
      "start": 1.9785,
      "duration": 0.0158,
      "velocity": 101,
      "chip": "ym2612"
    },
    {
      "channel": 3,
      "note": 57,
      "start": 1.9796,
      "duration": 0.0158,
      "velocity": 101,
      "chip": "ym2612"
    },
    {
      "channel": 1,
      "note": 62,
      "start": 1.9819,
      "duration": 0.0157,
      "velocity": 101,
      "chip": "ym2612"
    },
    {
      "channel": 0,
      "note": 40,
      "start": 1.9907,
      "duration": 0.0161,
      "velocity": 115,
      "chip": "ym2612"
    },
    {
      "channel": 4,
      "note": 54,
      "start": 1.9942,
      "duration": 0.014,
      "velocity": 101,
      "chip": "ym2612"
    },
    {
      "channel": 3,
      "note": 57,
      "start": 1.9954,
      "duration": 0.014,
      "velocity": 101,
      "chip": "ym2612"
    },
    {
      "channel": 1,
      "note": 62,
      "start": 1.9976,
      "duration": 0.0141,
      "velocity": 101,
      "chip": "ym2612"
    },
    {
      "channel": 0,
      "note": 40,
      "start": 2.0068,
      "duration": 0.0161,
      "velocity": 115,
      "chip": "ym2612"
    },
    {
      "channel": 4,
      "note": 54,
      "start": 2.0082,
      "duration": 0.0158,
      "velocity": 101,
      "chip": "ym2612"
    },
    {
      "channel": 3,
      "note": 57,
      "start": 2.0094,
      "duration": 0.0186,
      "velocity": 101,
      "chip": "ym2612"
    },
    {
      "channel": 1,
      "note": 62,
      "start": 2.0117,
      "duration": 0.0185,
      "velocity": 101,
      "chip": "ym2612"
    },
    {
      "channel": 0,
      "note": 41,
      "start": 2.0229,
      "duration": 0.0161,
      "velocity": 115,
      "chip": "ym2612"
    },
    {
      "channel": 4,
      "note": 54,
      "start": 2.024,
      "duration": 0.0161,
      "velocity": 101,
      "chip": "ym2612"
    },
    {
      "channel": 3,
      "note": 57,
      "start": 2.028,
      "duration": 0.0161,
      "velocity": 101,
      "chip": "ym2612"
    },
    {
      "channel": 1,
      "note": 62,
      "start": 2.0302,
      "duration": 0.0161,
      "velocity": 101,
      "chip": "ym2612"
    },
    {
      "channel": 0,
      "note": 41,
      "start": 2.039,
      "duration": 0.0161,
      "velocity": 115,
      "chip": "ym2612"
    },
    {
      "channel": 4,
      "note": 54,
      "start": 2.0401,
      "duration": 0.0162,
      "velocity": 101,
      "chip": "ym2612"
    },
    {
      "channel": 3,
      "note": 57,
      "start": 2.044,
      "duration": 0.0134,
      "velocity": 101,
      "chip": "ym2612"
    },
    {
      "channel": 1,
      "note": 62,
      "start": 2.0463,
      "duration": 0.0158,
      "velocity": 101,
      "chip": "ym2612"
    },
    {
      "channel": 0,
      "note": 42,
      "start": 2.0551,
      "duration": 0.0161,
      "velocity": 115,
      "chip": "ym2612"
    },
    {
      "channel": 4,
      "note": 54,
      "start": 2.0563,
      "duration": 0.0161,
      "velocity": 101,
      "chip": "ym2612"
    },
    {
      "channel": 3,
      "note": 57,
      "start": 2.0574,
      "duration": 0.0161,
      "velocity": 101,
      "chip": "ym2612"
    },
    {
      "channel": 1,
      "note": 62,
      "start": 2.062,
      "duration": 0.014,
      "velocity": 101,
      "chip": "ym2612"
    },
    {
      "channel": 0,
      "note": 42,
      "start": 2.0711,
      "duration": 0.0161,
      "velocity": 115,
      "chip": "ym2612"
    },
    {
      "channel": 4,
      "note": 54,
      "start": 2.0724,
      "duration": 0.0161,
      "velocity": 101,
      "chip": "ym2612"
    },
    {
      "channel": 3,
      "note": 57,
      "start": 2.0735,
      "duration": 0.0161,
      "velocity": 101,
      "chip": "ym2612"
    },
    {
      "channel": 1,
      "note": 62,
      "start": 2.076,
      "duration": 0.0185,
      "velocity": 101,
      "chip": "ym2612"
    },
    {
      "channel": 0,
      "note": 43,
      "start": 2.0872,
      "duration": 0.0161,
      "velocity": 115,
      "chip": "ym2612"
    },
    {
      "channel": 4,
      "note": 54,
      "start": 2.0884,
      "duration": 0.0161,
      "velocity": 101,
      "chip": "ym2612"
    },
    {
      "channel": 3,
      "note": 57,
      "start": 2.0896,
      "duration": 0.0161,
      "velocity": 101,
      "chip": "ym2612"
    },
    {
      "channel": 1,
      "note": 62,
      "start": 2.0946,
      "duration": 0.0161,
      "velocity": 101,
      "chip": "ym2612"
    },
    {
      "channel": 0,
      "note": 43,
      "start": 2.1033,
      "duration": 0.0161,
      "velocity": 115,
      "chip": "ym2612"
    },
    {
      "channel": 4,
      "note": 54,
      "start": 2.1045,
      "duration": 0.0161,
      "velocity": 101,
      "chip": "ym2612"
    },
    {
      "channel": 3,
      "note": 57,
      "start": 2.1057,
      "duration": 0.0161,
      "velocity": 101,
      "chip": "ym2612"
    },
    {
      "channel": 1,
      "note": 62,
      "start": 2.1107,
      "duration": 0.0134,
      "velocity": 101,
      "chip": "ym2612"
    },
    {
      "channel": 0,
      "note": 44,
      "start": 2.1195,
      "duration": 0.0161,
      "velocity": 115,
      "chip": "ym2612"
    },
    {
      "channel": 4,
      "note": 54,
      "start": 2.1206,
      "duration": 0.0161,
      "velocity": 101,
      "chip": "ym2612"
    },
    {
      "channel": 3,
      "note": 57,
      "start": 2.1218,
      "duration": 0.0161,
      "velocity": 101,
      "chip": "ym2612"
    },
    {
      "channel": 1,
      "note": 62,
      "start": 2.1241,
      "duration": 0.0161,
      "velocity": 101,
      "chip": "ym2612"
    },
    {
      "channel": 0,
      "note": 44,
      "start": 2.1356,
      "duration": 0.0161,
      "velocity": 115,
      "chip": "ym2612"
    },
    {
      "channel": 4,
      "note": 54,
      "start": 2.1367,
      "duration": 0.0161,
      "velocity": 101,
      "chip": "ym2612"
    },
    {
      "channel": 3,
      "note": 57,
      "start": 2.1379,
      "duration": 0.0161,
      "velocity": 101,
      "chip": "ym2612"
    },
    {
      "channel": 1,
      "note": 62,
      "start": 2.1402,
      "duration": 0.0161,
      "velocity": 101,
      "chip": "ym2612"
    },
    {
      "channel": 0,
      "note": 44,
      "start": 2.1517,
      "duration": 0.0161,
      "velocity": 115,
      "chip": "ym2612"
    },
    {
      "channel": 4,
      "note": 54,
      "start": 2.1528,
      "duration": 0.0161,
      "velocity": 101,
      "chip": "ym2612"
    },
    {
      "channel": 3,
      "note": 57,
      "start": 2.154,
      "duration": 0.0161,
      "velocity": 101,
      "chip": "ym2612"
    },
    {
      "channel": 1,
      "note": 62,
      "start": 2.1563,
      "duration": 0.0161,
      "velocity": 101,
      "chip": "ym2612"
    },
    {
      "channel": 0,
      "note": 45,
      "start": 2.1678,
      "duration": 0.0161,
      "velocity": 115,
      "chip": "ym2612"
    },
    {
      "channel": 4,
      "note": 54,
      "start": 2.1689,
      "duration": 0.0161,
      "velocity": 101,
      "chip": "ym2612"
    },
    {
      "channel": 3,
      "note": 57,
      "start": 2.1701,
      "duration": 0.0161,
      "velocity": 101,
      "chip": "ym2612"
    },
    {
      "channel": 1,
      "note": 62,
      "start": 2.1724,
      "duration": 0.0161,
      "velocity": 101,
      "chip": "ym2612"
    },
    {
      "channel": 0,
      "note": 45,
      "start": 2.1839,
      "duration": 0.0161,
      "velocity": 115,
      "chip": "ym2612"
    },
    {
      "channel": 4,
      "note": 54,
      "start": 2.185,
      "duration": 0.0161,
      "velocity": 101,
      "chip": "ym2612"
    },
    {
      "channel": 3,
      "note": 57,
      "start": 2.1861,
      "duration": 0.0161,
      "velocity": 101,
      "chip": "ym2612"
    },
    {
      "channel": 1,
      "note": 62,
      "start": 2.1884,
      "duration": 0.0161,
      "velocity": 101,
      "chip": "ym2612"
    },
    {
      "channel": 0,
      "note": 46,
      "start": 2.2,
      "duration": 0.0161,
      "velocity": 115,
      "chip": "ym2612"
    },
    {
      "channel": 4,
      "note": 54,
      "start": 2.2011,
      "duration": 0.0161,
      "velocity": 101,
      "chip": "ym2612"
    },
    {
      "channel": 3,
      "note": 57,
      "start": 2.2022,
      "duration": 0.0162,
      "velocity": 101,
      "chip": "ym2612"
    },
    {
      "channel": 1,
      "note": 62,
      "start": 2.2045,
      "duration": 0.0161,
      "velocity": 101,
      "chip": "ym2612"
    },
    {
      "channel": 0,
      "note": 46,
      "start": 2.2161,
      "duration": 0.0161,
      "velocity": 115,
      "chip": "ym2612"
    },
    {
      "channel": 4,
      "note": 54,
      "start": 2.2173,
      "duration": 0.0161,
      "velocity": 101,
      "chip": "ym2612"
    },
    {
      "channel": 3,
      "note": 57,
      "start": 2.2184,
      "duration": 0.0161,
      "velocity": 101,
      "chip": "ym2612"
    },
    {
      "channel": 1,
      "note": 62,
      "start": 2.2206,
      "duration": 0.0161,
      "velocity": 101,
      "chip": "ym2612"
    },
    {
      "channel": 0,
      "note": 47,
      "start": 2.2322,
      "duration": 0.0161,
      "velocity": 115,
      "chip": "ym2612"
    },
    {
      "channel": 4,
      "note": 54,
      "start": 2.2334,
      "duration": 0.0161,
      "velocity": 101,
      "chip": "ym2612"
    },
    {
      "channel": 3,
      "note": 57,
      "start": 2.2345,
      "duration": 0.0161,
      "velocity": 101,
      "chip": "ym2612"
    },
    {
      "channel": 1,
      "note": 62,
      "start": 2.2367,
      "duration": 0.0161,
      "velocity": 101,
      "chip": "ym2612"
    },
    {
      "channel": 0,
      "note": 47,
      "start": 2.2483,
      "duration": 0.016,
      "velocity": 115,
      "chip": "ym2612"
    },
    {
      "channel": 4,
      "note": 54,
      "start": 2.2495,
      "duration": 0.0161,
      "velocity": 101,
      "chip": "ym2612"
    },
    {
      "channel": 3,
      "note": 57,
      "start": 2.2506,
      "duration": 0.0161,
      "velocity": 101,
      "chip": "ym2612"
    },
    {
      "channel": 1,
      "note": 62,
      "start": 2.2529,
      "duration": 0.0161,
      "velocity": 101,
      "chip": "ym2612"
    },
    {
      "channel": 0,
      "note": 47,
      "start": 2.2643,
      "duration": 0.0162,
      "velocity": 115,
      "chip": "ym2612"
    },
    {
      "channel": 4,
      "note": 54,
      "start": 2.2655,
      "duration": 0.0161,
      "velocity": 101,
      "chip": "ym2612"
    },
    {
      "channel": 3,
      "note": 57,
      "start": 2.2667,
      "duration": 0.0161,
      "velocity": 101,
      "chip": "ym2612"
    },
    {
      "channel": 1,
      "note": 62,
      "start": 2.269,
      "duration": 0.0161,
      "velocity": 101,
      "chip": "ym2612"
    },
    {
      "channel": 0,
      "note": 48,
      "start": 2.2805,
      "duration": 0.0178,
      "velocity": 124,
      "chip": "ym2612"
    },
    {
      "channel": 4,
      "note": 54,
      "start": 2.2816,
      "duration": 0.0179,
      "velocity": 101,
      "chip": "ym2612"
    },
    {
      "channel": 3,
      "note": 57,
      "start": 2.2828,
      "duration": 0.0179,
      "velocity": 101,
      "chip": "ym2612"
    },
    {
      "channel": 1,
      "note": 62,
      "start": 2.2851,
      "duration": 0.0179,
      "velocity": 101,
      "chip": "ym2612"
    },
    {
      "channel": 0,
      "note": 84,
      "start": 2.2984,
      "duration": 0.0144,
      "velocity": 124,
      "chip": "ym2612"
    },
    {
      "channel": 4,
      "note": 54,
      "start": 2.2995,
      "duration": 0.0144,
      "velocity": 101,
      "chip": "ym2612"
    },
    {
      "channel": 3,
      "note": 57,
      "start": 2.3007,
      "duration": 0.0144,
      "velocity": 101,
      "chip": "ym2612"
    },
    {
      "channel": 1,
      "note": 62,
      "start": 2.3029,
      "duration": 0.0144,
      "velocity": 101,
      "chip": "ym2612"
    },
    {
      "channel": 0,
      "note": 82,
      "start": 2.3127,
      "duration": 0.0161,
      "velocity": 124,
      "chip": "ym2612"
    },
    {
      "channel": 4,
      "note": 54,
      "start": 2.3139,
      "duration": 0.0161,
      "velocity": 101,
      "chip": "ym2612"
    },
    {
      "channel": 3,
      "note": 57,
      "start": 2.315,
      "duration": 0.0161,
      "velocity": 101,
      "chip": "ym2612"
    },
    {
      "channel": 1,
      "note": 62,
      "start": 2.3173,
      "duration": 0.0161,
      "velocity": 101,
      "chip": "ym2612"
    },
    {
      "channel": 0,
      "note": 80,
      "start": 2.3288,
      "duration": 0.016,
      "velocity": 124,
      "chip": "ym2612"
    },
    {
      "channel": 4,
      "note": 54,
      "start": 2.33,
      "duration": 0.0161,
      "velocity": 101,
      "chip": "ym2612"
    },
    {
      "channel": 3,
      "note": 57,
      "start": 2.3311,
      "duration": 0.0161,
      "velocity": 101,
      "chip": "ym2612"
    },
    {
      "channel": 1,
      "note": 62,
      "start": 2.3334,
      "duration": 0.016,
      "velocity": 101,
      "chip": "ym2612"
    },
    {
      "channel": 0,
      "note": 77,
      "start": 2.3449,
      "duration": 0.0176,
      "velocity": 124,
      "chip": "ym2612"
    },
    {
      "channel": 4,
      "note": 54,
      "start": 2.3461,
      "duration": 0.0176,
      "velocity": 101,
      "chip": "ym2612"
    },
    {
      "channel": 3,
      "note": 57,
      "start": 2.3472,
      "duration": 0.0176,
      "velocity": 101,
      "chip": "ym2612"
    },
    {
      "channel": 1,
      "note": 62,
      "start": 2.3495,
      "duration": 0.0176,
      "velocity": 101,
      "chip": "ym2612"
    },
    {
      "channel": 0,
      "note": 75,
      "start": 2.3625,
      "duration": 0.0167,
      "velocity": 124,
      "chip": "ym2612"
    },
    {
      "channel": 4,
      "note": 54,
      "start": 2.3636,
      "duration": 0.0167,
      "velocity": 101,
      "chip": "ym2612"
    },
    {
      "channel": 3,
      "note": 57,
      "start": 2.3648,
      "duration": 0.0167,
      "velocity": 101,
      "chip": "ym2612"
    },
    {
      "channel": 1,
      "note": 62,
      "start": 2.3671,
      "duration": 0.0167,
      "velocity": 101,
      "chip": "ym2612"
    },
    {
      "channel": 0,
      "note": 72,
      "start": 2.3792,
      "duration": 0.0163,
      "velocity": 124,
      "chip": "ym2612"
    },
    {
      "channel": 4,
      "note": 54,
      "start": 2.3803,
      "duration": 0.0163,
      "velocity": 101,
      "chip": "ym2612"
    },
    {
      "channel": 3,
      "note": 57,
      "start": 2.3815,
      "duration": 0.0163,
      "velocity": 101,
      "chip": "ym2612"
    },
    {
      "channel": 1,
      "note": 62,
      "start": 2.3837,
      "duration": 0.0163,
      "velocity": 101,
      "chip": "ym2612"
    },
    {
      "channel": 0,
      "note": 70,
      "start": 2.3954,
      "duration": 0.0142,
      "velocity": 124,
      "chip": "ym2612"
    },
    {
      "channel": 4,
      "note": 54,
      "start": 2.3966,
      "duration": 0.0142,
      "velocity": 101,
      "chip": "ym2612"
    },
    {
      "channel": 3,
      "note": 57,
      "start": 2.3977,
      "duration": 0.0142,
      "velocity": 101,
      "chip": "ym2612"
    },
    {
      "channel": 1,
      "note": 62,
      "start": 2.4,
      "duration": 0.0142,
      "velocity": 101,
      "chip": "ym2612"
    },
    {
      "channel": 0,
      "note": 68,
      "start": 2.4096,
      "duration": 0.0185,
      "velocity": 124,
      "chip": "ym2612"
    },
    {
      "channel": 4,
      "note": 54,
      "start": 2.4108,
      "duration": 0.0185,
      "velocity": 101,
      "chip": "ym2612"
    },
    {
      "channel": 3,
      "note": 57,
      "start": 2.4119,
      "duration": 0.0185,
      "velocity": 101,
      "chip": "ym2612"
    },
    {
      "channel": 1,
      "note": 62,
      "start": 2.4142,
      "duration": 0.0185,
      "velocity": 101,
      "chip": "ym2612"
    },
    {
      "channel": 0,
      "note": 65,
      "start": 2.4281,
      "duration": 0.0161,
      "velocity": 124,
      "chip": "ym2612"
    },
    {
      "channel": 4,
      "note": 54,
      "start": 2.4293,
      "duration": 0.0161,
      "velocity": 101,
      "chip": "ym2612"
    },
    {
      "channel": 3,
      "note": 57,
      "start": 2.4304,
      "duration": 0.0161,
      "velocity": 101,
      "chip": "ym2612"
    },
    {
      "channel": 1,
      "note": 62,
      "start": 2.4327,
      "duration": 0.0161,
      "velocity": 101,
      "chip": "ym2612"
    },
    {
      "channel": 0,
      "note": 63,
      "start": 2.4442,
      "duration": 0.0125,
      "velocity": 1,
      "chip": "ym2612"
    },
    {
      "channel": 4,
      "note": 54,
      "start": 2.4454,
      "duration": 0.0149,
      "velocity": 101,
      "chip": "ym2612"
    },
    {
      "channel": 3,
      "note": 57,
      "start": 2.4465,
      "duration": 0.0149,
      "velocity": 101,
      "chip": "ym2612"
    },
    {
      "channel": 1,
      "note": 62,
      "start": 2.4488,
      "duration": 0.0149,
      "velocity": 101,
      "chip": "ym2612"
    },
    {
      "channel": 4,
      "note": 54,
      "start": 2.4603,
      "duration": 0.0129,
      "velocity": 101,
      "chip": "ym2612"
    },
    {
      "channel": 3,
      "note": 57,
      "start": 2.4615,
      "duration": 0.0129,
      "velocity": 101,
      "chip": "ym2612"
    },
    {
      "channel": 1,
      "note": 62,
      "start": 2.4638,
      "duration": 0.0132,
      "velocity": 101,
      "chip": "ym2612"
    },
    {
      "channel": 4,
      "note": 54,
      "start": 2.4732,
      "duration": 0.0162,
      "velocity": 101,
      "chip": "ym2612"
    },
    {
      "channel": 3,
      "note": 57,
      "start": 2.4743,
      "duration": 0.0161,
      "velocity": 101,
      "chip": "ym2612"
    },
    {
      "channel": 1,
      "note": 62,
      "start": 2.4769,
      "duration": 0.0186,
      "velocity": 101,
      "chip": "ym2612"
    },
    {
      "channel": 4,
      "note": 54,
      "start": 2.4893,
      "duration": 0.0161,
      "velocity": 101,
      "chip": "ym2612"
    },
    {
      "channel": 3,
      "note": 57,
      "start": 2.4905,
      "duration": 0.0161,
      "velocity": 101,
      "chip": "ym2612"
    },
    {
      "channel": 1,
      "note": 62,
      "start": 2.4955,
      "duration": 0.0161,
      "velocity": 101,
      "chip": "ym2612"
    },
    {
      "channel": 4,
      "note": 54,
      "start": 2.5054,
      "duration": 0.0222,
      "velocity": 101,
      "chip": "ym2612"
    },
    {
      "channel": 3,
      "note": 57,
      "start": 2.5066,
      "duration": 0.0224,
      "velocity": 101,
      "chip": "ym2612"
    },
    {
      "channel": 1,
      "note": 62,
      "start": 2.5116,
      "duration": 0.0199,
      "velocity": 101,
      "chip": "ym2612"
    },
    {
      "channel": 0,
      "note": 36,
      "start": 2.5237,
      "duration": 0.0144,
      "velocity": 115,
      "chip": "ym2612"
    },
    {
      "channel": 4,
      "note": 56,
      "start": 2.5276,
      "duration": 0.0118,
      "velocity": 101,
      "chip": "ym2612"
    },
    {
      "channel": 3,
      "note": 59,
      "start": 2.529,
      "duration": 0.0115,
      "velocity": 101,
      "chip": "ym2612"
    },
    {
      "channel": 1,
      "note": 64,
      "start": 2.5315,
      "duration": 0.0117,
      "velocity": 101,
      "chip": "ym2612"
    },
    {
      "channel": 0,
      "note": 36,
      "start": 2.5381,
      "duration": 0.016,
      "velocity": 115,
      "chip": "ym2612"
    },
    {
      "channel": 4,
      "note": 56,
      "start": 2.5394,
      "duration": 0.016,
      "velocity": 101,
      "chip": "ym2612"
    },
    {
      "channel": 3,
      "note": 59,
      "start": 2.5405,
      "duration": 0.016,
      "velocity": 101,
      "chip": "ym2612"
    },
    {
      "channel": 1,
      "note": 64,
      "start": 2.5432,
      "duration": 0.0183,
      "velocity": 101,
      "chip": "ym2612"
    },
    {
      "channel": 0,
      "note": 37,
      "start": 2.5541,
      "duration": 0.0162,
      "velocity": 115,
      "chip": "ym2612"
    },
    {
      "channel": 4,
      "note": 56,
      "start": 2.5554,
      "duration": 0.0161,
      "velocity": 101,
      "chip": "ym2612"
    },
    {
      "channel": 3,
      "note": 59,
      "start": 2.5565,
      "duration": 0.0161,
      "velocity": 101,
      "chip": "ym2612"
    },
    {
      "channel": 1,
      "note": 64,
      "start": 2.5615,
      "duration": 0.0161,
      "velocity": 101,
      "chip": "ym2612"
    },
    {
      "channel": 0,
      "note": 37,
      "start": 2.5703,
      "duration": 0.0161,
      "velocity": 115,
      "chip": "ym2612"
    },
    {
      "channel": 4,
      "note": 56,
      "start": 2.5715,
      "duration": 0.0161,
      "velocity": 101,
      "chip": "ym2612"
    },
    {
      "channel": 3,
      "note": 59,
      "start": 2.5726,
      "duration": 0.0161,
      "velocity": 101,
      "chip": "ym2612"
    },
    {
      "channel": 1,
      "note": 64,
      "start": 2.5776,
      "duration": 0.0134,
      "velocity": 101,
      "chip": "ym2612"
    },
    {
      "channel": 0,
      "note": 38,
      "start": 2.5864,
      "duration": 0.0161,
      "velocity": 115,
      "chip": "ym2612"
    },
    {
      "channel": 4,
      "note": 56,
      "start": 2.5876,
      "duration": 0.0161,
      "velocity": 101,
      "chip": "ym2612"
    },
    {
      "channel": 3,
      "note": 59,
      "start": 2.5887,
      "duration": 0.0161,
      "velocity": 101,
      "chip": "ym2612"
    },
    {
      "channel": 1,
      "note": 64,
      "start": 2.591,
      "duration": 0.0161,
      "velocity": 101,
      "chip": "ym2612"
    },
    {
      "channel": 0,
      "note": 38,
      "start": 2.6025,
      "duration": 0.0161,
      "velocity": 115,
      "chip": "ym2612"
    },
    {
      "channel": 4,
      "note": 56,
      "start": 2.6037,
      "duration": 0.0161,
      "velocity": 101,
      "chip": "ym2612"
    },
    {
      "channel": 3,
      "note": 59,
      "start": 2.6048,
      "duration": 0.0161,
      "velocity": 101,
      "chip": "ym2612"
    },
    {
      "channel": 1,
      "note": 64,
      "start": 2.6071,
      "duration": 0.0161,
      "velocity": 101,
      "chip": "ym2612"
    },
    {
      "channel": 0,
      "note": 39,
      "start": 2.6186,
      "duration": 0.0161,
      "velocity": 115,
      "chip": "ym2612"
    },
    {
      "channel": 4,
      "note": 56,
      "start": 2.6198,
      "duration": 0.0161,
      "velocity": 101,
      "chip": "ym2612"
    },
    {
      "channel": 3,
      "note": 59,
      "start": 2.6209,
      "duration": 0.0161,
      "velocity": 101,
      "chip": "ym2612"
    },
    {
      "channel": 1,
      "note": 64,
      "start": 2.6232,
      "duration": 0.0161,
      "velocity": 101,
      "chip": "ym2612"
    },
    {
      "channel": 0,
      "note": 39,
      "start": 2.6347,
      "duration": 0.0161,
      "velocity": 115,
      "chip": "ym2612"
    },
    {
      "channel": 4,
      "note": 56,
      "start": 2.6358,
      "duration": 0.0162,
      "velocity": 101,
      "chip": "ym2612"
    },
    {
      "channel": 3,
      "note": 59,
      "start": 2.637,
      "duration": 0.0161,
      "velocity": 101,
      "chip": "ym2612"
    },
    {
      "channel": 1,
      "note": 64,
      "start": 2.6393,
      "duration": 0.0161,
      "velocity": 101,
      "chip": "ym2612"
    },
    {
      "channel": 0,
      "note": 40,
      "start": 2.6508,
      "duration": 0.0161,
      "velocity": 115,
      "chip": "ym2612"
    },
    {
      "channel": 4,
      "note": 56,
      "start": 2.652,
      "duration": 0.0161,
      "velocity": 101,
      "chip": "ym2612"
    },
    {
      "channel": 3,
      "note": 59,
      "start": 2.6531,
      "duration": 0.0161,
      "velocity": 101,
      "chip": "ym2612"
    },
    {
      "channel": 1,
      "note": 64,
      "start": 2.6554,
      "duration": 0.0161,
      "velocity": 101,
      "chip": "ym2612"
    },
    {
      "channel": 0,
      "note": 40,
      "start": 2.6669,
      "duration": 0.0161,
      "velocity": 115,
      "chip": "ym2612"
    },
    {
      "channel": 4,
      "note": 56,
      "start": 2.6681,
      "duration": 0.0161,
      "velocity": 101,
      "chip": "ym2612"
    },
    {
      "channel": 3,
      "note": 59,
      "start": 2.6692,
      "duration": 0.0161,
      "velocity": 101,
      "chip": "ym2612"
    },
    {
      "channel": 1,
      "note": 64,
      "start": 2.6715,
      "duration": 0.0161,
      "velocity": 101,
      "chip": "ym2612"
    },
    {
      "channel": 0,
      "note": 40,
      "start": 2.683,
      "duration": 0.0162,
      "velocity": 115,
      "chip": "ym2612"
    },
    {
      "channel": 4,
      "note": 56,
      "start": 2.6842,
      "duration": 0.0161,
      "velocity": 101,
      "chip": "ym2612"
    },
    {
      "channel": 3,
      "note": 59,
      "start": 2.6853,
      "duration": 0.0161,
      "velocity": 101,
      "chip": "ym2612"
    },
    {
      "channel": 1,
      "note": 64,
      "start": 2.6876,
      "duration": 0.0162,
      "velocity": 101,
      "chip": "ym2612"
    },
    {
      "channel": 0,
      "note": 41,
      "start": 2.6991,
      "duration": 0.0161,
      "velocity": 115,
      "chip": "ym2612"
    },
    {
      "channel": 4,
      "note": 56,
      "start": 2.7003,
      "duration": 0.0161,
      "velocity": 101,
      "chip": "ym2612"
    },
    {
      "channel": 3,
      "note": 59,
      "start": 2.7014,
      "duration": 0.0161,
      "velocity": 101,
      "chip": "ym2612"
    },
    {
      "channel": 1,
      "note": 64,
      "start": 2.7037,
      "duration": 0.0161,
      "velocity": 101,
      "chip": "ym2612"
    },
    {
      "channel": 0,
      "note": 41,
      "start": 2.7152,
      "duration": 0.0161,
      "velocity": 115,
      "chip": "ym2612"
    },
    {
      "channel": 4,
      "note": 56,
      "start": 2.7164,
      "duration": 0.0161,
      "velocity": 101,
      "chip": "ym2612"
    },
    {
      "channel": 3,
      "note": 59,
      "start": 2.7175,
      "duration": 0.0161,
      "velocity": 101,
      "chip": "ym2612"
    },
    {
      "channel": 1,
      "note": 64,
      "start": 2.7198,
      "duration": 0.0161,
      "velocity": 101,
      "chip": "ym2612"
    },
    {
      "channel": 0,
      "note": 42,
      "start": 2.7313,
      "duration": 0.0178,
      "velocity": 115,
      "chip": "ym2612"
    },
    {
      "channel": 4,
      "note": 56,
      "start": 2.7325,
      "duration": 0.0179,
      "velocity": 101,
      "chip": "ym2612"
    },
    {
      "channel": 3,
      "note": 59,
      "start": 2.7336,
      "duration": 0.0179,
      "velocity": 101,
      "chip": "ym2612"
    },
    {
      "channel": 1,
      "note": 64,
      "start": 2.7359,
      "duration": 0.0179,
      "velocity": 101,
      "chip": "ym2612"
    },
    {
      "channel": 0,
      "note": 36,
      "start": 2.7492,
      "duration": 0.0144,
      "velocity": 115,
      "chip": "ym2612"
    },
    {
      "channel": 4,
      "note": 56,
      "start": 2.7503,
      "duration": 0.0144,
      "velocity": 101,
      "chip": "ym2612"
    },
    {
      "channel": 3,
      "note": 59,
      "start": 2.7515,
      "duration": 0.0144,
      "velocity": 101,
      "chip": "ym2612"
    },
    {
      "channel": 1,
      "note": 64,
      "start": 2.7538,
      "duration": 0.0144,
      "velocity": 101,
      "chip": "ym2612"
    },
    {
      "channel": 0,
      "note": 36,
      "start": 2.7636,
      "duration": 0.016,
      "velocity": 115,
      "chip": "ym2612"
    },
    {
      "channel": 4,
      "note": 56,
      "start": 2.7647,
      "duration": 0.016,
      "velocity": 101,
      "chip": "ym2612"
    },
    {
      "channel": 3,
      "note": 59,
      "start": 2.7659,
      "duration": 0.016,
      "velocity": 101,
      "chip": "ym2612"
    },
    {
      "channel": 1,
      "note": 64,
      "start": 2.7681,
      "duration": 0.016,
      "velocity": 101,
      "chip": "ym2612"
    },
    {
      "channel": 0,
      "note": 37,
      "start": 2.7796,
      "duration": 0.0161,
      "velocity": 115,
      "chip": "ym2612"
    },
    {
      "channel": 4,
      "note": 56,
      "start": 2.7807,
      "duration": 0.0162,
      "velocity": 101,
      "chip": "ym2612"
    },
    {
      "channel": 3,
      "note": 59,
      "start": 2.7819,
      "duration": 0.0162,
      "velocity": 101,
      "chip": "ym2612"
    },
    {
      "channel": 1,
      "note": 64,
      "start": 2.7842,
      "duration": 0.0161,
      "velocity": 101,
      "chip": "ym2612"
    },
    {
      "channel": 0,
      "note": 37,
      "start": 2.7957,
      "duration": 0.0161,
      "velocity": 115,
      "chip": "ym2612"
    },
    {
      "channel": 4,
      "note": 56,
      "start": 2.7969,
      "duration": 0.0161,
      "velocity": 101,
      "chip": "ym2612"
    },
    {
      "channel": 3,
      "note": 59,
      "start": 2.798,
      "duration": 0.0161,
      "velocity": 101,
      "chip": "ym2612"
    },
    {
      "channel": 1,
      "note": 64,
      "start": 2.8003,
      "duration": 0.0161,
      "velocity": 101,
      "chip": "ym2612"
    },
    {
      "channel": 0,
      "note": 38,
      "start": 2.8118,
      "duration": 0.0174,
      "velocity": 115,
      "chip": "ym2612"
    },
    {
      "channel": 4,
      "note": 56,
      "start": 2.813,
      "duration": 0.0173,
      "velocity": 101,
      "chip": "ym2612"
    },
    {
      "channel": 3,
      "note": 59,
      "start": 2.8141,
      "duration": 0.0173,
      "velocity": 101,
      "chip": "ym2612"
    },
    {
      "channel": 1,
      "note": 64,
      "start": 2.8164,
      "duration": 0.0174,
      "velocity": 101,
      "chip": "ym2612"
    },
    {
      "channel": 0,
      "note": 38,
      "start": 2.8292,
      "duration": 0.0167,
      "velocity": 115,
      "chip": "ym2612"
    },
    {
      "channel": 4,
      "note": 56,
      "start": 2.8303,
      "duration": 0.0167,
      "velocity": 101,
      "chip": "ym2612"
    },
    {
      "channel": 3,
      "note": 59,
      "start": 2.8315,
      "duration": 0.0167,
      "velocity": 101,
      "chip": "ym2612"
    },
    {
      "channel": 1,
      "note": 64,
      "start": 2.8337,
      "duration": 0.0167,
      "velocity": 101,
      "chip": "ym2612"
    },
    {
      "channel": 0,
      "note": 39,
      "start": 2.8458,
      "duration": 0.0163,
      "velocity": 115,
      "chip": "ym2612"
    },
    {
      "channel": 4,
      "note": 56,
      "start": 2.847,
      "duration": 0.0163,
      "velocity": 101,
      "chip": "ym2612"
    },
    {
      "channel": 3,
      "note": 59,
      "start": 2.8481,
      "duration": 0.0163,
      "velocity": 101,
      "chip": "ym2612"
    },
    {
      "channel": 1,
      "note": 64,
      "start": 2.8504,
      "duration": 0.0163,
      "velocity": 101,
      "chip": "ym2612"
    },
    {
      "channel": 0,
      "note": 39,
      "start": 2.8621,
      "duration": 0.0144,
      "velocity": 115,
      "chip": "ym2612"
    },
    {
      "channel": 4,
      "note": 56,
      "start": 2.8632,
      "duration": 0.0144,
      "velocity": 101,
      "chip": "ym2612"
    },
    {
      "channel": 3,
      "note": 59,
      "start": 2.8644,
      "duration": 0.0144,
      "velocity": 101,
      "chip": "ym2612"
    },
    {
      "channel": 1,
      "note": 64,
      "start": 2.8667,
      "duration": 0.0144,
      "velocity": 101,
      "chip": "ym2612"
    },
    {
      "channel": 0,
      "note": 40,
      "start": 2.8766,
      "duration": 0.0185,
      "velocity": 115,
      "chip": "ym2612"
    },
    {
      "channel": 4,
      "note": 56,
      "start": 2.8777,
      "duration": 0.0185,
      "velocity": 101,
      "chip": "ym2612"
    },
    {
      "channel": 3,
      "note": 59,
      "start": 2.8788,
      "duration": 0.0185,
      "velocity": 101,
      "chip": "ym2612"
    },
    {
      "channel": 1,
      "note": 64,
      "start": 2.8811,
      "duration": 0.0185,
      "velocity": 101,
      "chip": "ym2612"
    },
    {
      "channel": 0,
      "note": 40,
      "start": 2.8951,
      "duration": 0.0161,
      "velocity": 115,
      "chip": "ym2612"
    },
    {
      "channel": 4,
      "note": 56,
      "start": 2.8962,
      "duration": 0.0161,
      "velocity": 101,
      "chip": "ym2612"
    },
    {
      "channel": 3,
      "note": 59,
      "start": 2.8973,
      "duration": 0.0162,
      "velocity": 101,
      "chip": "ym2612"
    },
    {
      "channel": 1,
      "note": 64,
      "start": 2.8996,
      "duration": 0.0161,
      "velocity": 101,
      "chip": "ym2612"
    },
    {
      "channel": 0,
      "note": 40,
      "start": 2.9112,
      "duration": 0.0157,
      "velocity": 115,
      "chip": "ym2612"
    },
    {
      "channel": 4,
      "note": 56,
      "start": 2.9124,
      "duration": 0.0157,
      "velocity": 101,
      "chip": "ym2612"
    },
    {
      "channel": 3,
      "note": 59,
      "start": 2.9135,
      "duration": 0.0157,
      "velocity": 101,
      "chip": "ym2612"
    },
    {
      "channel": 1,
      "note": 64,
      "start": 2.9157,
      "duration": 0.0158,
      "velocity": 101,
      "chip": "ym2612"
    },
    {
      "channel": 0,
      "note": 41,
      "start": 2.9269,
      "duration": 0.0137,
      "velocity": 115,
      "chip": "ym2612"
    },
    {
      "channel": 4,
      "note": 56,
      "start": 2.9281,
      "duration": 0.0141,
      "velocity": 101,
      "chip": "ym2612"
    },
    {
      "channel": 3,
      "note": 59,
      "start": 2.9292,
      "duration": 0.0141,
      "velocity": 101,
      "chip": "ym2612"
    },
    {
      "channel": 1,
      "note": 64,
      "start": 2.9315,
      "duration": 0.014,
      "velocity": 101,
      "chip": "ym2612"
    },
    {
      "channel": 0,
      "note": 41,
      "start": 2.9406,
      "duration": 0.0161,
      "velocity": 115,
      "chip": "ym2612"
    },
    {
      "channel": 4,
      "note": 56,
      "start": 2.9421,
      "duration": 0.0185,
      "velocity": 101,
      "chip": "ym2612"
    },
    {
      "channel": 3,
      "note": 59,
      "start": 2.9433,
      "duration": 0.0185,
      "velocity": 101,
      "chip": "ym2612"
    },
    {
      "channel": 1,
      "note": 64,
      "start": 2.9455,
      "duration": 0.0186,
      "velocity": 101,
      "chip": "ym2612"
    },
    {
      "channel": 0,
      "note": 42,
      "start": 2.9567,
      "duration": 0.0206,
      "velocity": 115,
      "chip": "ym2612"
    },
    {
      "channel": 4,
      "note": 56,
      "start": 2.9606,
      "duration": 0.0179,
      "velocity": 101,
      "chip": "ym2612"
    },
    {
      "channel": 3,
      "note": 59,
      "start": 2.9618,
      "duration": 0.0179,
      "velocity": 101,
      "chip": "ym2612"
    },
    {
      "channel": 1,
      "note": 64,
      "start": 2.9641,
      "duration": 0.0179,
      "velocity": 101,
      "chip": "ym2612"
    },
    {
      "channel": 0,
      "note": 36,
      "start": 2.9774,
      "duration": 0.0117,
      "velocity": 115,
      "chip": "ym2612"
    },
    {
      "channel": 4,
      "note": 56,
      "start": 2.9785,
      "duration": 0.0116,
      "velocity": 101,
      "chip": "ym2612"
    },
    {
      "channel": 3,
      "note": 59,
      "start": 2.9797,
      "duration": 0.014,
      "velocity": 101,
      "chip": "ym2612"
    },
    {
      "channel": 1,
      "note": 64,
      "start": 2.982,
      "duration": 0.014,
      "velocity": 101,
      "chip": "ym2612"
    },
    {
      "channel": 0,
      "note": 36,
      "start": 2.989,
      "duration": 0.016,
      "velocity": 115,
      "chip": "ym2612"
    },
    {
      "channel": 4,
      "note": 56,
      "start": 2.9902,
      "duration": 0.016,
      "velocity": 101,
      "chip": "ym2612"
    },
    {
      "channel": 3,
      "note": 59,
      "start": 2.9937,
      "duration": 0.0137,
      "velocity": 101,
      "chip": "ym2612"
    },
    {
      "channel": 1,
      "note": 64,
      "start": 2.9959,
      "duration": 0.014,
      "velocity": 101,
      "chip": "ym2612"
    },
    {
      "channel": 0,
      "note": 37,
      "start": 3.0051,
      "duration": 0.0161,
      "velocity": 115,
      "chip": "ym2612"
    },
    {
      "channel": 4,
      "note": 56,
      "start": 3.0062,
      "duration": 0.0161,
      "velocity": 101,
      "chip": "ym2612"
    },
    {
      "channel": 3,
      "note": 59,
      "start": 3.0073,
      "duration": 0.0161,
      "velocity": 101,
      "chip": "ym2612"
    },
    {
      "channel": 1,
      "note": 64,
      "start": 3.01,
      "duration": 0.0185,
      "velocity": 101,
      "chip": "ym2612"
    },
    {
      "channel": 0,
      "note": 37,
      "start": 3.0211,
      "duration": 0.0161,
      "velocity": 115,
      "chip": "ym2612"
    },
    {
      "channel": 4,
      "note": 56,
      "start": 3.0223,
      "duration": 0.0161,
      "velocity": 101,
      "chip": "ym2612"
    },
    {
      "channel": 3,
      "note": 59,
      "start": 3.0234,
      "duration": 0.0161,
      "velocity": 101,
      "chip": "ym2612"
    },
    {
      "channel": 1,
      "note": 64,
      "start": 3.0285,
      "duration": 0.0161,
      "velocity": 101,
      "chip": "ym2612"
    },
    {
      "channel": 0,
      "note": 38,
      "start": 3.0372,
      "duration": 0.0161,
      "velocity": 115,
      "chip": "ym2612"
    },
    {
      "channel": 4,
      "note": 56,
      "start": 3.0384,
      "duration": 0.0161,
      "velocity": 101,
      "chip": "ym2612"
    },
    {
      "channel": 3,
      "note": 59,
      "start": 3.0395,
      "duration": 0.0161,
      "velocity": 101,
      "chip": "ym2612"
    },
    {
      "channel": 1,
      "note": 64,
      "start": 3.0446,
      "duration": 0.0157,
      "velocity": 101,
      "chip": "ym2612"
    },
    {
      "channel": 0,
      "note": 38,
      "start": 3.0533,
      "duration": 0.0161,
      "velocity": 115,
      "chip": "ym2612"
    },
    {
      "channel": 4,
      "note": 56,
      "start": 3.0545,
      "duration": 0.0161,
      "velocity": 101,
      "chip": "ym2612"
    },
    {
      "channel": 3,
      "note": 59,
      "start": 3.0556,
      "duration": 0.0161,
      "velocity": 101,
      "chip": "ym2612"
    },
    {
      "channel": 1,
      "note": 64,
      "start": 3.0603,
      "duration": 0.0137,
      "velocity": 101,
      "chip": "ym2612"
    },
    {
      "channel": 0,
      "note": 39,
      "start": 3.0694,
      "duration": 0.0161,
      "velocity": 115,
      "chip": "ym2612"
    },
    {
      "channel": 4,
      "note": 56,
      "start": 3.0706,
      "duration": 0.0161,
      "velocity": 101,
      "chip": "ym2612"
    },
    {
      "channel": 3,
      "note": 59,
      "start": 3.0717,
      "duration": 0.0161,
      "velocity": 101,
      "chip": "ym2612"
    },
    {
      "channel": 1,
      "note": 64,
      "start": 3.074,
      "duration": 0.0161,
      "velocity": 101,
      "chip": "ym2612"
    },
    {
      "channel": 0,
      "note": 39,
      "start": 3.0855,
      "duration": 0.0161,
      "velocity": 115,
      "chip": "ym2612"
    },
    {
      "channel": 4,
      "note": 56,
      "start": 3.0867,
      "duration": 0.0161,
      "velocity": 101,
      "chip": "ym2612"
    },
    {
      "channel": 3,
      "note": 59,
      "start": 3.0878,
      "duration": 0.0162,
      "velocity": 101,
      "chip": "ym2612"
    },
    {
      "channel": 1,
      "note": 64,
      "start": 3.0901,
      "duration": 0.0161,
      "velocity": 101,
      "chip": "ym2612"
    },
    {
      "channel": 0,
      "note": 40,
      "start": 3.1016,
      "duration": 0.0161,
      "velocity": 115,
      "chip": "ym2612"
    },
    {
      "channel": 4,
      "note": 56,
      "start": 3.1028,
      "duration": 0.0161,
      "velocity": 101,
      "chip": "ym2612"
    },
    {
      "channel": 3,
      "note": 59,
      "start": 3.104,
      "duration": 0.0161,
      "velocity": 101,
      "chip": "ym2612"
    },
    {
      "channel": 1,
      "note": 64,
      "start": 3.1062,
      "duration": 0.0161,
      "velocity": 101,
      "chip": "ym2612"
    },
    {
      "channel": 0,
      "note": 40,
      "start": 3.1177,
      "duration": 0.0161,
      "velocity": 115,
      "chip": "ym2612"
    },
    {
      "channel": 4,
      "note": 56,
      "start": 3.1189,
      "duration": 0.0161,
      "velocity": 101,
      "chip": "ym2612"
    },
    {
      "channel": 3,
      "note": 59,
      "start": 3.1201,
      "duration": 0.0161,
      "velocity": 101,
      "chip": "ym2612"
    },
    {
      "channel": 1,
      "note": 64,
      "start": 3.1223,
      "duration": 0.0161,
      "velocity": 101,
      "chip": "ym2612"
    },
    {
      "channel": 0,
      "note": 40,
      "start": 3.1338,
      "duration": 0.0161,
      "velocity": 115,
      "chip": "ym2612"
    },
    {
      "channel": 4,
      "note": 56,
      "start": 3.135,
      "duration": 0.0161,
      "velocity": 101,
      "chip": "ym2612"
    },
    {
      "channel": 3,
      "note": 59,
      "start": 3.1361,
      "duration": 0.0161,
      "velocity": 101,
      "chip": "ym2612"
    },
    {
      "channel": 1,
      "note": 64,
      "start": 3.1384,
      "duration": 0.0161,
      "velocity": 101,
      "chip": "ym2612"
    },
    {
      "channel": 0,
      "note": 41,
      "start": 3.15,
      "duration": 0.0161,
      "velocity": 115,
      "chip": "ym2612"
    },
    {
      "channel": 4,
      "note": 56,
      "start": 3.1511,
      "duration": 0.0161,
      "velocity": 101,
      "chip": "ym2612"
    },
    {
      "channel": 3,
      "note": 59,
      "start": 3.1522,
      "duration": 0.0161,
      "velocity": 101,
      "chip": "ym2612"
    },
    {
      "channel": 1,
      "note": 64,
      "start": 3.1545,
      "duration": 0.0161,
      "velocity": 101,
      "chip": "ym2612"
    },
    {
      "channel": 0,
      "note": 41,
      "start": 3.1661,
      "duration": 0.0161,
      "velocity": 115,
      "chip": "ym2612"
    },
    {
      "channel": 4,
      "note": 56,
      "start": 3.1672,
      "duration": 0.0161,
      "velocity": 101,
      "chip": "ym2612"
    },
    {
      "channel": 3,
      "note": 59,
      "start": 3.1683,
      "duration": 0.0161,
      "velocity": 101,
      "chip": "ym2612"
    },
    {
      "channel": 1,
      "note": 64,
      "start": 3.1706,
      "duration": 0.0161,
      "velocity": 101,
      "chip": "ym2612"
    },
    {
      "channel": 0,
      "note": 42,
      "start": 3.1822,
      "duration": 0.0178,
      "velocity": 124,
      "chip": "ym2612"
    },
    {
      "channel": 4,
      "note": 56,
      "start": 3.1833,
      "duration": 0.0179,
      "velocity": 101,
      "chip": "ym2612"
    },
    {
      "channel": 3,
      "note": 59,
      "start": 3.1844,
      "duration": 0.0179,
      "velocity": 101,
      "chip": "ym2612"
    },
    {
      "channel": 1,
      "note": 64,
      "start": 3.1867,
      "duration": 0.0179,
      "velocity": 101,
      "chip": "ym2612"
    },
    {
      "channel": 0,
      "note": 84,
      "start": 3.2,
      "duration": 0.0144,
      "velocity": 124,
      "chip": "ym2612"
    },
    {
      "channel": 4,
      "note": 56,
      "start": 3.2012,
      "duration": 0.0143,
      "velocity": 101,
      "chip": "ym2612"
    },
    {
      "channel": 3,
      "note": 59,
      "start": 3.2024,
      "duration": 0.0143,
      "velocity": 101,
      "chip": "ym2612"
    },
    {
      "channel": 1,
      "note": 64,
      "start": 3.2046,
      "duration": 0.0144,
      "velocity": 101,
      "chip": "ym2612"
    },
    {
      "channel": 0,
      "note": 82,
      "start": 3.2144,
      "duration": 0.016,
      "velocity": 124,
      "chip": "ym2612"
    },
    {
      "channel": 4,
      "note": 56,
      "start": 3.2155,
      "duration": 0.0161,
      "velocity": 101,
      "chip": "ym2612"
    },
    {
      "channel": 3,
      "note": 59,
      "start": 3.2167,
      "duration": 0.0161,
      "velocity": 101,
      "chip": "ym2612"
    },
    {
      "channel": 1,
      "note": 64,
      "start": 3.219,
      "duration": 0.016,
      "velocity": 101,
      "chip": "ym2612"
    },
    {
      "channel": 0,
      "note": 80,
      "start": 3.2304,
      "duration": 0.0161,
      "velocity": 124,
      "chip": "ym2612"
    },
    {
      "channel": 4,
      "note": 56,
      "start": 3.2316,
      "duration": 0.0161,
      "velocity": 101,
      "chip": "ym2612"
    },
    {
      "channel": 3,
      "note": 59,
      "start": 3.2328,
      "duration": 0.0161,
      "velocity": 101,
      "chip": "ym2612"
    },
    {
      "channel": 1,
      "note": 64,
      "start": 3.235,
      "duration": 0.0161,
      "velocity": 101,
      "chip": "ym2612"
    },
    {
      "channel": 0,
      "note": 77,
      "start": 3.2465,
      "duration": 0.0161,
      "velocity": 124,
      "chip": "ym2612"
    },
    {
      "channel": 4,
      "note": 56,
      "start": 3.2477,
      "duration": 0.0161,
      "velocity": 101,
      "chip": "ym2612"
    },
    {
      "channel": 3,
      "note": 59,
      "start": 3.2489,
      "duration": 0.0161,
      "velocity": 101,
      "chip": "ym2612"
    },
    {
      "channel": 1,
      "note": 64,
      "start": 3.2511,
      "duration": 0.0161,
      "velocity": 101,
      "chip": "ym2612"
    },
    {
      "channel": 0,
      "note": 75,
      "start": 3.2626,
      "duration": 0.0161,
      "velocity": 124,
      "chip": "ym2612"
    },
    {
      "channel": 4,
      "note": 56,
      "start": 3.2638,
      "duration": 0.0161,
      "velocity": 101,
      "chip": "ym2612"
    },
    {
      "channel": 3,
      "note": 59,
      "start": 3.265,
      "duration": 0.0161,
      "velocity": 101,
      "chip": "ym2612"
    },
    {
      "channel": 1,
      "note": 64,
      "start": 3.2672,
      "duration": 0.0161,
      "velocity": 101,
      "chip": "ym2612"
    },
    {
      "channel": 0,
      "note": 72,
      "start": 3.2787,
      "duration": 0.0171,
      "velocity": 124,
      "chip": "ym2612"
    },
    {
      "channel": 4,
      "note": 56,
      "start": 3.2799,
      "duration": 0.0171,
      "velocity": 101,
      "chip": "ym2612"
    },
    {
      "channel": 3,
      "note": 59,
      "start": 3.2811,
      "duration": 0.0171,
      "velocity": 101,
      "chip": "ym2612"
    },
    {
      "channel": 1,
      "note": 64,
      "start": 3.2833,
      "duration": 0.0171,
      "velocity": 101,
      "chip": "ym2612"
    },
    {
      "channel": 0,
      "note": 70,
      "start": 3.2958,
      "duration": 0.0167,
      "velocity": 124,
      "chip": "ym2612"
    },
    {
      "channel": 4,
      "note": 56,
      "start": 3.297,
      "duration": 0.0167,
      "velocity": 101,
      "chip": "ym2612"
    },
    {
      "channel": 3,
      "note": 59,
      "start": 3.2981,
      "duration": 0.0167,
      "velocity": 101,
      "chip": "ym2612"
    },
    {
      "channel": 1,
      "note": 64,
      "start": 3.3004,
      "duration": 0.0167,
      "velocity": 101,
      "chip": "ym2612"
    },
    {
      "channel": 0,
      "note": 68,
      "start": 3.3125,
      "duration": 0.0163,
      "velocity": 124,
      "chip": "ym2612"
    },
    {
      "channel": 4,
      "note": 56,
      "start": 3.3136,
      "duration": 0.0163,
      "velocity": 101,
      "chip": "ym2612"
    },
    {
      "channel": 3,
      "note": 59,
      "start": 3.3148,
      "duration": 0.0163,
      "velocity": 101,
      "chip": "ym2612"
    },
    {
      "channel": 1,
      "note": 64,
      "start": 3.3171,
      "duration": 0.0163,
      "velocity": 101,
      "chip": "ym2612"
    },
    {
      "channel": 0,
      "note": 65,
      "start": 3.3288,
      "duration": 0.0146,
      "velocity": 124,
      "chip": "ym2612"
    },
    {
      "channel": 4,
      "note": 56,
      "start": 3.3299,
      "duration": 0.0146,
      "velocity": 101,
      "chip": "ym2612"
    },
    {
      "channel": 3,
      "note": 59,
      "start": 3.3311,
      "duration": 0.0146,
      "velocity": 101,
      "chip": "ym2612"
    },
    {
      "channel": 1,
      "note": 64,
      "start": 3.3334,
      "duration": 0.0146,
      "velocity": 101,
      "chip": "ym2612"
    },
    {
      "channel": 0,
      "note": 63,
      "start": 3.3434,
      "duration": 0.0178,
      "velocity": 1,
      "chip": "ym2612"
    },
    {
      "channel": 4,
      "note": 56,
      "start": 3.3446,
      "duration": 0.0178,
      "velocity": 101,
      "chip": "ym2612"
    },
    {
      "channel": 3,
      "note": 59,
      "start": 3.3457,
      "duration": 0.0178,
      "velocity": 101,
      "chip": "ym2612"
    },
    {
      "channel": 1,
      "note": 64,
      "start": 3.348,
      "duration": 0.0178,
      "velocity": 101,
      "chip": "ym2612"
    },
    {
      "channel": 4,
      "note": 56,
      "start": 3.3624,
      "duration": 0.0153,
      "velocity": 101,
      "chip": "ym2612"
    },
    {
      "channel": 3,
      "note": 59,
      "start": 3.3635,
      "duration": 0.0153,
      "velocity": 101,
      "chip": "ym2612"
    },
    {
      "channel": 1,
      "note": 64,
      "start": 3.3658,
      "duration": 0.0152,
      "velocity": 101,
      "chip": "ym2612"
    },
    {
      "channel": 4,
      "note": 56,
      "start": 3.3776,
      "duration": 0.0134,
      "velocity": 101,
      "chip": "ym2612"
    },
    {
      "channel": 3,
      "note": 59,
      "start": 3.3788,
      "duration": 0.0157,
      "velocity": 101,
      "chip": "ym2612"
    },
    {
      "channel": 1,
      "note": 64,
      "start": 3.381,
      "duration": 0.0158,
      "velocity": 101,
      "chip": "ym2612"
    },
    {
      "channel": 4,
      "note": 56,
      "start": 3.391,
      "duration": 0.0161,
      "velocity": 101,
      "chip": "ym2612"
    },
    {
      "channel": 3,
      "note": 59,
      "start": 3.3945,
      "duration": 0.0141,
      "velocity": 101,
      "chip": "ym2612"
    },
    {
      "channel": 1,
      "note": 64,
      "start": 3.3968,
      "duration": 0.014,
      "velocity": 101,
      "chip": "ym2612"
    },
    {
      "channel": 4,
      "note": 56,
      "start": 3.4071,
      "duration": 0.0161,
      "velocity": 101,
      "chip": "ym2612"
    },
    {
      "channel": 3,
      "note": 59,
      "start": 3.4085,
      "duration": 0.0158,
      "velocity": 101,
      "chip": "ym2612"
    },
    {
      "channel": 1,
      "note": 64,
      "start": 3.4108,
      "duration": 0.0186,
      "velocity": 101,
      "chip": "ym2612"
    },
    {
      "channel": 4,
      "note": 56,
      "start": 3.4232,
      "duration": 0.0161,
      "velocity": 101,
      "chip": "ym2612"
    },
    {
      "channel": 3,
      "note": 59,
      "start": 3.4243,
      "duration": 0.0161,
      "velocity": 101,
      "chip": "ym2612"
    },
    {
      "channel": 1,
      "note": 64,
      "start": 3.4293,
      "duration": 0.0161,
      "velocity": 101,
      "chip": "ym2612"
    },
    {
      "channel": 4,
      "note": 56,
      "start": 3.4393,
      "duration": 0.0161,
      "velocity": 101,
      "chip": "ym2612"
    },
    {
      "channel": 3,
      "note": 59,
      "start": 3.4404,
      "duration": 0.0161,
      "velocity": 101,
      "chip": "ym2612"
    },
    {
      "channel": 1,
      "note": 64,
      "start": 3.4454,
      "duration": 0.0157,
      "velocity": 101,
      "chip": "ym2612"
    },
    {
      "channel": 4,
      "note": 56,
      "start": 3.4554,
      "duration": 0.0161,
      "velocity": 101,
      "chip": "ym2612"
    },
    {
      "channel": 3,
      "note": 59,
      "start": 3.4565,
      "duration": 0.0161,
      "velocity": 101,
      "chip": "ym2612"
    },
    {
      "channel": 1,
      "note": 64,
      "start": 3.4612,
      "duration": 0.0141,
      "velocity": 101,
      "chip": "ym2612"
    },
    {
      "channel": 4,
      "note": 56,
      "start": 3.4715,
      "duration": 0.0161,
      "velocity": 101,
      "chip": "ym2612"
    },
    {
      "channel": 3,
      "note": 59,
      "start": 3.4726,
      "duration": 0.0161,
      "velocity": 101,
      "chip": "ym2612"
    },
    {
      "channel": 1,
      "note": 64,
      "start": 3.4752,
      "duration": 0.0158,
      "velocity": 101,
      "chip": "ym2612"
    },
    {
      "channel": 4,
      "note": 56,
      "start": 3.4876,
      "duration": 0.0161,
      "velocity": 101,
      "chip": "ym2612"
    },
    {
      "channel": 3,
      "note": 59,
      "start": 3.4887,
      "duration": 0.0161,
      "velocity": 101,
      "chip": "ym2612"
    },
    {
      "channel": 1,
      "note": 64,
      "start": 3.491,
      "duration": 0.0161,
      "velocity": 101,
      "chip": "ym2612"
    },
    {
      "channel": 4,
      "note": 56,
      "start": 3.5037,
      "duration": 0.0161,
      "velocity": 101,
      "chip": "ym2612"
    },
    {
      "channel": 3,
      "note": 59,
      "start": 3.5048,
      "duration": 0.0162,
      "velocity": 101,
      "chip": "ym2612"
    },
    {
      "channel": 1,
      "note": 64,
      "start": 3.5071,
      "duration": 0.0161,
      "velocity": 101,
      "chip": "ym2612"
    },
    {
      "channel": 4,
      "note": 56,
      "start": 3.5198,
      "duration": 0.0161,
      "velocity": 101,
      "chip": "ym2612"
    },
    {
      "channel": 3,
      "note": 59,
      "start": 3.521,
      "duration": 0.0161,
      "velocity": 101,
      "chip": "ym2612"
    },
    {
      "channel": 1,
      "note": 64,
      "start": 3.5232,
      "duration": 0.0162,
      "velocity": 101,
      "chip": "ym2612"
    },
    {
      "channel": 4,
      "note": 56,
      "start": 3.5359,
      "duration": 0.0161,
      "velocity": 101,
      "chip": "ym2612"
    },
    {
      "channel": 3,
      "note": 59,
      "start": 3.5371,
      "duration": 0.0161,
      "velocity": 101,
      "chip": "ym2612"
    },
    {
      "channel": 1,
      "note": 64,
      "start": 3.5393,
      "duration": 0.0161,
      "velocity": 101,
      "chip": "ym2612"
    },
    {
      "channel": 4,
      "note": 56,
      "start": 3.552,
      "duration": 0.0161,
      "velocity": 101,
      "chip": "ym2612"
    },
    {
      "channel": 3,
      "note": 59,
      "start": 3.5531,
      "duration": 0.0161,
      "velocity": 101,
      "chip": "ym2612"
    },
    {
      "channel": 1,
      "note": 64,
      "start": 3.5554,
      "duration": 0.0161,
      "velocity": 101,
      "chip": "ym2612"
    },
    {
      "channel": 4,
      "note": 56,
      "start": 3.5681,
      "duration": 0.0161,
      "velocity": 101,
      "chip": "ym2612"
    },
    {
      "channel": 3,
      "note": 59,
      "start": 3.5692,
      "duration": 0.0161,
      "velocity": 101,
      "chip": "ym2612"
    },
    {
      "channel": 1,
      "note": 64,
      "start": 3.5715,
      "duration": 0.0161,
      "velocity": 101,
      "chip": "ym2612"
    },
    {
      "channel": 4,
      "note": 56,
      "start": 3.5842,
      "duration": 0.0161,
      "velocity": 101,
      "chip": "ym2612"
    },
    {
      "channel": 3,
      "note": 59,
      "start": 3.5853,
      "duration": 0.0161,
      "velocity": 101,
      "chip": "ym2612"
    },
    {
      "channel": 1,
      "note": 64,
      "start": 3.5876,
      "duration": 0.0161,
      "velocity": 101,
      "chip": "ym2612"
    },
    {
      "channel": 4,
      "note": 56,
      "start": 3.6003,
      "duration": 0.0161,
      "velocity": 101,
      "chip": "ym2612"
    },
    {
      "channel": 3,
      "note": 59,
      "start": 3.6014,
      "duration": 0.0161,
      "velocity": 101,
      "chip": "ym2612"
    },
    {
      "channel": 1,
      "note": 64,
      "start": 3.6037,
      "duration": 0.0161,
      "velocity": 101,
      "chip": "ym2612"
    },
    {
      "channel": 4,
      "note": 56,
      "start": 3.6164,
      "duration": 0.0161,
      "velocity": 101,
      "chip": "ym2612"
    },
    {
      "channel": 3,
      "note": 59,
      "start": 3.6175,
      "duration": 0.0161,
      "velocity": 101,
      "chip": "ym2612"
    },
    {
      "channel": 1,
      "note": 64,
      "start": 3.6198,
      "duration": 0.0161,
      "velocity": 101,
      "chip": "ym2612"
    },
    {
      "channel": 4,
      "note": 56,
      "start": 3.6325,
      "duration": 0.0198,
      "velocity": 101,
      "chip": "ym2612"
    },
    {
      "channel": 3,
      "note": 59,
      "start": 3.6336,
      "duration": 0.02,
      "velocity": 101,
      "chip": "ym2612"
    },
    {
      "channel": 1,
      "note": 64,
      "start": 3.6359,
      "duration": 0.0205,
      "velocity": 101,
      "chip": "ym2612"
    },
    {
      "channel": 0,
      "note": 36,
      "start": 3.6508,
      "duration": 0.0144,
      "velocity": 115,
      "chip": "ym2612"
    },
    {
      "channel": 4,
      "note": 61,
      "start": 3.6523,
      "duration": 0.0141,
      "velocity": 101,
      "chip": "ym2612"
    },
    {
      "channel": 3,
      "note": 64,
      "start": 3.6537,
      "duration": 0.0139,
      "velocity": 101,
      "chip": "ym2612"
    },
    {
      "channel": 1,
      "note": 69,
      "start": 3.6564,
      "duration": 0.0137,
      "velocity": 101,
      "chip": "ym2612"
    },
    {
      "channel": 0,
      "note": 36,
      "start": 3.6652,
      "duration": 0.016,
      "velocity": 115,
      "chip": "ym2612"
    },
    {
      "channel": 4,
      "note": 61,
      "start": 3.6664,
      "duration": 0.016,
      "velocity": 101,
      "chip": "ym2612"
    },
    {
      "channel": 3,
      "note": 64,
      "start": 3.6676,
      "duration": 0.0159,
      "velocity": 101,
      "chip": "ym2612"
    },
    {
      "channel": 1,
      "note": 69,
      "start": 3.6701,
      "duration": 0.0158,
      "velocity": 101,
      "chip": "ym2612"
    },
    {
      "channel": 0,
      "note": 37,
      "start": 3.6812,
      "duration": 0.0161,
      "velocity": 115,
      "chip": "ym2612"
    },
    {
      "channel": 4,
      "note": 61,
      "start": 3.6824,
      "duration": 0.0161,
      "velocity": 101,
      "chip": "ym2612"
    },
    {
      "channel": 3,
      "note": 64,
      "start": 3.6835,
      "duration": 0.0161,
      "velocity": 101,
      "chip": "ym2612"
    },
    {
      "channel": 1,
      "note": 69,
      "start": 3.6858,
      "duration": 0.0161,
      "velocity": 101,
      "chip": "ym2612"
    },
    {
      "channel": 0,
      "note": 37,
      "start": 3.6973,
      "duration": 0.0161,
      "velocity": 115,
      "chip": "ym2612"
    },
    {
      "channel": 4,
      "note": 61,
      "start": 3.6985,
      "duration": 0.0161,
      "velocity": 101,
      "chip": "ym2612"
    },
    {
      "channel": 3,
      "note": 64,
      "start": 3.6996,
      "duration": 0.0162,
      "velocity": 101,
      "chip": "ym2612"
    },
    {
      "channel": 1,
      "note": 69,
      "start": 3.7019,
      "duration": 0.0161,
      "velocity": 101,
      "chip": "ym2612"
    },
    {
      "channel": 0,
      "note": 38,
      "start": 3.7134,
      "duration": 0.0161,
      "velocity": 115,
      "chip": "ym2612"
    },
    {
      "channel": 4,
      "note": 61,
      "start": 3.7146,
      "duration": 0.0161,
      "velocity": 101,
      "chip": "ym2612"
    },
    {
      "channel": 3,
      "note": 64,
      "start": 3.7158,
      "duration": 0.0161,
      "velocity": 101,
      "chip": "ym2612"
    },
    {
      "channel": 1,
      "note": 69,
      "start": 3.718,
      "duration": 0.0161,
      "velocity": 101,
      "chip": "ym2612"
    },
    {
      "channel": 0,
      "note": 38,
      "start": 3.7295,
      "duration": 0.0161,
      "velocity": 115,
      "chip": "ym2612"
    },
    {
      "channel": 4,
      "note": 61,
      "start": 3.7307,
      "duration": 0.0161,
      "velocity": 101,
      "chip": "ym2612"
    },
    {
      "channel": 3,
      "note": 64,
      "start": 3.7319,
      "duration": 0.0161,
      "velocity": 101,
      "chip": "ym2612"
    },
    {
      "channel": 1,
      "note": 69,
      "start": 3.7341,
      "duration": 0.0161,
      "velocity": 101,
      "chip": "ym2612"
    },
    {
      "channel": 0,
      "note": 39,
      "start": 3.7456,
      "duration": 0.0169,
      "velocity": 115,
      "chip": "ym2612"
    },
    {
      "channel": 4,
      "note": 61,
      "start": 3.7468,
      "duration": 0.0168,
      "velocity": 101,
      "chip": "ym2612"
    },
    {
      "channel": 3,
      "note": 64,
      "start": 3.748,
      "duration": 0.0168,
      "velocity": 101,
      "chip": "ym2612"
    },
    {
      "channel": 1,
      "note": 69,
      "start": 3.7503,
      "duration": 0.0168,
      "velocity": 101,
      "chip": "ym2612"
    },
    {
      "channel": 0,
      "note": 39,
      "start": 3.7625,
      "duration": 0.0167,
      "velocity": 115,
      "chip": "ym2612"
    },
    {
      "channel": 4,
      "note": 61,
      "start": 3.7636,
      "duration": 0.0167,
      "velocity": 101,
      "chip": "ym2612"
    },
    {
      "channel": 3,
      "note": 64,
      "start": 3.7648,
      "duration": 0.0167,
      "velocity": 101,
      "chip": "ym2612"
    },
    {
      "channel": 1,
      "note": 69,
      "start": 3.7671,
      "duration": 0.0167,
      "velocity": 101,
      "chip": "ym2612"
    },
    {
      "channel": 0,
      "note": 40,
      "start": 3.7792,
      "duration": 0.0163,
      "velocity": 115,
      "chip": "ym2612"
    },
    {
      "channel": 4,
      "note": 61,
      "start": 3.7803,
      "duration": 0.0163,
      "velocity": 101,
      "chip": "ym2612"
    },
    {
      "channel": 3,
      "note": 64,
      "start": 3.7815,
      "duration": 0.0163,
      "velocity": 101,
      "chip": "ym2612"
    },
    {
      "channel": 1,
      "note": 69,
      "start": 3.7837,
      "duration": 0.0163,
      "velocity": 101,
      "chip": "ym2612"
    },
    {
      "channel": 0,
      "note": 40,
      "start": 3.7954,
      "duration": 0.0147,
      "velocity": 115,
      "chip": "ym2612"
    },
    {
      "channel": 4,
      "note": 61,
      "start": 3.7966,
      "duration": 0.0147,
      "velocity": 101,
      "chip": "ym2612"
    },
    {
      "channel": 3,
      "note": 64,
      "start": 3.7977,
      "duration": 0.0147,
      "velocity": 101,
      "chip": "ym2612"
    },
    {
      "channel": 1,
      "note": 69,
      "start": 3.8,
      "duration": 0.0147,
      "velocity": 101,
      "chip": "ym2612"
    },
    {
      "channel": 0,
      "note": 40,
      "start": 3.8101,
      "duration": 0.0188,
      "velocity": 115,
      "chip": "ym2612"
    },
    {
      "channel": 4,
      "note": 61,
      "start": 3.8113,
      "duration": 0.0188,
      "velocity": 101,
      "chip": "ym2612"
    },
    {
      "channel": 3,
      "note": 64,
      "start": 3.8124,
      "duration": 0.0188,
      "velocity": 101,
      "chip": "ym2612"
    },
    {
      "channel": 1,
      "note": 69,
      "start": 3.8147,
      "duration": 0.0188,
      "velocity": 101,
      "chip": "ym2612"
    },
    {
      "channel": 0,
      "note": 41,
      "start": 3.8289,
      "duration": 0.0161,
      "velocity": 115,
      "chip": "ym2612"
    },
    {
      "channel": 4,
      "note": 61,
      "start": 3.8301,
      "duration": 0.0161,
      "velocity": 101,
      "chip": "ym2612"
    },
    {
      "channel": 3,
      "note": 64,
      "start": 3.8312,
      "duration": 0.0161,
      "velocity": 101,
      "chip": "ym2612"
    },
    {
      "channel": 1,
      "note": 69,
      "start": 3.8335,
      "duration": 0.0161,
      "velocity": 101,
      "chip": "ym2612"
    },
    {
      "channel": 0,
      "note": 41,
      "start": 3.845,
      "duration": 0.0158,
      "velocity": 115,
      "chip": "ym2612"
    },
    {
      "channel": 4,
      "note": 61,
      "start": 3.8462,
      "duration": 0.0157,
      "velocity": 101,
      "chip": "ym2612"
    },
    {
      "channel": 3,
      "note": 64,
      "start": 3.8473,
      "duration": 0.0157,
      "velocity": 101,
      "chip": "ym2612"
    },
    {
      "channel": 1,
      "note": 69,
      "start": 3.8496,
      "duration": 0.0158,
      "velocity": 101,
      "chip": "ym2612"
    },
    {
      "channel": 0,
      "note": 42,
      "start": 3.8608,
      "duration": 0.0139,
      "velocity": 115,
      "chip": "ym2612"
    },
    {
      "channel": 4,
      "note": 61,
      "start": 3.8619,
      "duration": 0.0141,
      "velocity": 101,
      "chip": "ym2612"
    },
    {
      "channel": 3,
      "note": 64,
      "start": 3.8631,
      "duration": 0.0141,
      "velocity": 101,
      "chip": "ym2612"
    },
    {
      "channel": 1,
      "note": 69,
      "start": 3.8654,
      "duration": 0.0141,
      "velocity": 101,
      "chip": "ym2612"
    },
    {
      "channel": 0,
      "note": 42,
      "start": 3.8746,
      "duration": 0.016,
      "velocity": 115,
      "chip": "ym2612"
    },
    {
      "channel": 4,
      "note": 61,
      "start": 3.876,
      "duration": 0.0185,
      "velocity": 101,
      "chip": "ym2612"
    },
    {
      "channel": 3,
      "note": 64,
      "start": 3.8771,
      "duration": 0.0185,
      "velocity": 101,
      "chip": "ym2612"
    },
    {
      "channel": 1,
      "note": 69,
      "start": 3.8794,
      "duration": 0.0185,
      "velocity": 101,
      "chip": "ym2612"
    },
    {
      "channel": 0,
      "note": 43,
      "start": 3.8906,
      "duration": 0.0161,
      "velocity": 115,
      "chip": "ym2612"
    },
    {
      "channel": 4,
      "note": 61,
      "start": 3.8945,
      "duration": 0.0161,
      "velocity": 101,
      "chip": "ym2612"
    },
    {
      "channel": 3,
      "note": 64,
      "start": 3.8956,
      "duration": 0.0161,
      "velocity": 101,
      "chip": "ym2612"
    },
    {
      "channel": 1,
      "note": 69,
      "start": 3.8979,
      "duration": 0.0161,
      "velocity": 101,
      "chip": "ym2612"
    },
    {
      "channel": 0,
      "note": 43,
      "start": 3.9067,
      "duration": 0.0161,
      "velocity": 115,
      "chip": "ym2612"
    },
    {
      "channel": 4,
      "note": 61,
      "start": 3.9106,
      "duration": 0.0134,
      "velocity": 101,
      "chip": "ym2612"
    },
    {
      "channel": 3,
      "note": 64,
      "start": 3.9117,
      "duration": 0.0157,
      "velocity": 101,
      "chip": "ym2612"
    },
    {
      "channel": 1,
      "note": 69,
      "start": 3.914,
      "duration": 0.0157,
      "velocity": 101,
      "chip": "ym2612"
    },
    {
      "channel": 0,
      "note": 44,
      "start": 3.9228,
      "duration": 0.0161,
      "velocity": 115,
      "chip": "ym2612"
    },
    {
      "channel": 4,
      "note": 61,
      "start": 3.9239,
      "duration": 0.0161,
      "velocity": 101,
      "chip": "ym2612"
    },
    {
      "channel": 3,
      "note": 64,
      "start": 3.9274,
      "duration": 0.0141,
      "velocity": 101,
      "chip": "ym2612"
    },
    {
      "channel": 1,
      "note": 69,
      "start": 3.9297,
      "duration": 0.0141,
      "velocity": 101,
      "chip": "ym2612"
    },
    {
      "channel": 0,
      "note": 44,
      "start": 3.9389,
      "duration": 0.0161,
      "velocity": 115,
      "chip": "ym2612"
    },
    {
      "channel": 4,
      "note": 61,
      "start": 3.94,
      "duration": 0.0161,
      "velocity": 101,
      "chip": "ym2612"
    },
    {
      "channel": 3,
      "note": 64,
      "start": 3.9415,
      "duration": 0.0158,
      "velocity": 101,
      "chip": "ym2612"
    },
    {
      "channel": 1,
      "note": 69,
      "start": 3.9438,
      "duration": 0.0185,
      "velocity": 101,
      "chip": "ym2612"
    },
    {
      "channel": 0,
      "note": 44,
      "start": 3.955,
      "duration": 0.0161,
      "velocity": 115,
      "chip": "ym2612"
    },
    {
      "channel": 4,
      "note": 61,
      "start": 3.9561,
      "duration": 0.0161,
      "velocity": 101,
      "chip": "ym2612"
    },
    {
      "channel": 3,
      "note": 64,
      "start": 3.9573,
      "duration": 0.0161,
      "velocity": 101,
      "chip": "ym2612"
    },
    {
      "channel": 1,
      "note": 69,
      "start": 3.9623,
      "duration": 0.0161,
      "velocity": 101,
      "chip": "ym2612"
    },
    {
      "channel": 0,
      "note": 45,
      "start": 3.9711,
      "duration": 0.0161,
      "velocity": 115,
      "chip": "ym2612"
    },
    {
      "channel": 4,
      "note": 61,
      "start": 3.9722,
      "duration": 0.0161,
      "velocity": 101,
      "chip": "ym2612"
    },
    {
      "channel": 3,
      "note": 64,
      "start": 3.9734,
      "duration": 0.0161,
      "velocity": 101,
      "chip": "ym2612"
    },
    {
      "channel": 1,
      "note": 69,
      "start": 3.9784,
      "duration": 0.0157,
      "velocity": 101,
      "chip": "ym2612"
    },
    {
      "channel": 0,
      "note": 45,
      "start": 3.9872,
      "duration": 0.0161,
      "velocity": 115,
      "chip": "ym2612"
    },
    {
      "channel": 4,
      "note": 61,
      "start": 3.9883,
      "duration": 0.0161,
      "velocity": 101,
      "chip": "ym2612"
    },
    {
      "channel": 3,
      "note": 64,
      "start": 3.9895,
      "duration": 0.0162,
      "velocity": 101,
      "chip": "ym2612"
    },
    {
      "channel": 1,
      "note": 69,
      "start": 3.9941,
      "duration": 0.0141,
      "velocity": 101,
      "chip": "ym2612"
    },
    {
      "channel": 0,
      "note": 46,
      "start": 4.0033,
      "duration": 0.0161,
      "velocity": 115,
      "chip": "ym2612"
    },
    {
      "channel": 4,
      "note": 61,
      "start": 4.0045,
      "duration": 0.0161,
      "velocity": 101,
      "chip": "ym2612"
    },
    {
      "channel": 3,
      "note": 64,
      "start": 4.0056,
      "duration": 0.0161,
      "velocity": 101,
      "chip": "ym2612"
    },
    {
      "channel": 1,
      "note": 69,
      "start": 4.0082,
      "duration": 0.0158,
      "velocity": 101,
      "chip": "ym2612"
    },
    {
      "channel": 0,
      "note": 46,
      "start": 4.0194,
      "duration": 0.0161,
      "velocity": 115,
      "chip": "ym2612"
    },
    {
      "channel": 4,
      "note": 61,
      "start": 4.0206,
      "duration": 0.0161,
      "velocity": 101,
      "chip": "ym2612"
    },
    {
      "channel": 3,
      "note": 64,
      "start": 4.0217,
      "duration": 0.0161,
      "velocity": 101,
      "chip": "ym2612"
    },
    {
      "channel": 1,
      "note": 69,
      "start": 4.0239,
      "duration": 0.0161,
      "velocity": 101,
      "chip": "ym2612"
    },
    {
      "channel": 0,
      "note": 47,
      "start": 4.0355,
      "duration": 0.0161,
      "velocity": 115,
      "chip": "ym2612"
    },
    {
      "channel": 4,
      "note": 61,
      "start": 4.0367,
      "duration": 0.0161,
      "velocity": 101,
      "chip": "ym2612"
    },
    {
      "channel": 3,
      "note": 64,
      "start": 4.0378,
      "duration": 0.0161,
      "velocity": 101,
      "chip": "ym2612"
    },
    {
      "channel": 1,
      "note": 69,
      "start": 4.04,
      "duration": 0.0161,
      "velocity": 101,
      "chip": "ym2612"
    },
    {
      "channel": 0,
      "note": 47,
      "start": 4.0516,
      "duration": 0.0161,
      "velocity": 115,
      "chip": "ym2612"
    },
    {
      "channel": 4,
      "note": 61,
      "start": 4.0528,
      "duration": 0.0161,
      "velocity": 101,
      "chip": "ym2612"
    },
    {
      "channel": 3,
      "note": 64,
      "start": 4.0539,
      "duration": 0.0161,
      "velocity": 101,
      "chip": "ym2612"
    },
    {
      "channel": 1,
      "note": 69,
      "start": 4.0562,
      "duration": 0.0161,
      "velocity": 101,
      "chip": "ym2612"
    },
    {
      "channel": 0,
      "note": 47,
      "start": 4.0677,
      "duration": 0.0161,
      "velocity": 115,
      "chip": "ym2612"
    },
    {
      "channel": 4,
      "note": 61,
      "start": 4.0688,
      "duration": 0.0161,
      "velocity": 101,
      "chip": "ym2612"
    },
    {
      "channel": 3,
      "note": 64,
      "start": 4.07,
      "duration": 0.0161,
      "velocity": 101,
      "chip": "ym2612"
    },
    {
      "channel": 1,
      "note": 69,
      "start": 4.0723,
      "duration": 0.0161,
      "velocity": 101,
      "chip": "ym2612"
    },
    {
      "channel": 0,
      "note": 48,
      "start": 4.0838,
      "duration": 0.0178,
      "velocity": 124,
      "chip": "ym2612"
    },
    {
      "channel": 4,
      "note": 61,
      "start": 4.0849,
      "duration": 0.0179,
      "velocity": 101,
      "chip": "ym2612"
    },
    {
      "channel": 3,
      "note": 64,
      "start": 4.0861,
      "duration": 0.0179,
      "velocity": 101,
      "chip": "ym2612"
    },
    {
      "channel": 1,
      "note": 69,
      "start": 4.0884,
      "duration": 0.0179,
      "velocity": 101,
      "chip": "ym2612"
    },
    {
      "channel": 0,
      "note": 84,
      "start": 4.1017,
      "duration": 0.0144,
      "velocity": 124,
      "chip": "ym2612"
    },
    {
      "channel": 4,
      "note": 61,
      "start": 4.1028,
      "duration": 0.0144,
      "velocity": 101,
      "chip": "ym2612"
    },
    {
      "channel": 3,
      "note": 64,
      "start": 4.104,
      "duration": 0.0144,
      "velocity": 101,
      "chip": "ym2612"
    },
    {
      "channel": 1,
      "note": 69,
      "start": 4.1063,
      "duration": 0.0144,
      "velocity": 101,
      "chip": "ym2612"
    },
    {
      "channel": 0,
      "note": 82,
      "start": 4.1161,
      "duration": 0.016,
      "velocity": 124,
      "chip": "ym2612"
    },
    {
      "channel": 4,
      "note": 61,
      "start": 4.1172,
      "duration": 0.0161,
      "velocity": 101,
      "chip": "ym2612"
    },
    {
      "channel": 3,
      "note": 64,
      "start": 4.1183,
      "duration": 0.0161,
      "velocity": 101,
      "chip": "ym2612"
    },
    {
      "channel": 1,
      "note": 69,
      "start": 4.1206,
      "duration": 0.016,
      "velocity": 101,
      "chip": "ym2612"
    },
    {
      "channel": 0,
      "note": 80,
      "start": 4.1321,
      "duration": 0.0161,
      "velocity": 124,
      "chip": "ym2612"
    },
    {
      "channel": 4,
      "note": 61,
      "start": 4.1333,
      "duration": 0.0161,
      "velocity": 101,
      "chip": "ym2612"
    },
    {
      "channel": 3,
      "note": 64,
      "start": 4.1344,
      "duration": 0.0161,
      "velocity": 101,
      "chip": "ym2612"
    },
    {
      "channel": 1,
      "note": 69,
      "start": 4.1367,
      "duration": 0.0161,
      "velocity": 101,
      "chip": "ym2612"
    },
    {
      "channel": 0,
      "note": 77,
      "start": 4.1482,
      "duration": 0.0161,
      "velocity": 124,
      "chip": "ym2612"
    },
    {
      "channel": 4,
      "note": 61,
      "start": 4.1494,
      "duration": 0.0161,
      "velocity": 101,
      "chip": "ym2612"
    },
    {
      "channel": 3,
      "note": 64,
      "start": 4.1505,
      "duration": 0.0161,
      "velocity": 101,
      "chip": "ym2612"
    },
    {
      "channel": 1,
      "note": 69,
      "start": 4.1528,
      "duration": 0.0161,
      "velocity": 101,
      "chip": "ym2612"
    },
    {
      "channel": 0,
      "note": 75,
      "start": 4.1643,
      "duration": 0.0162,
      "velocity": 124,
      "chip": "ym2612"
    },
    {
      "channel": 4,
      "note": 61,
      "start": 4.1655,
      "duration": 0.0161,
      "velocity": 101,
      "chip": "ym2612"
    },
    {
      "channel": 3,
      "note": 64,
      "start": 4.1666,
      "duration": 0.0161,
      "velocity": 101,
      "chip": "ym2612"
    },
    {
      "channel": 1,
      "note": 69,
      "start": 4.1688,
      "duration": 0.0162,
      "velocity": 101,
      "chip": "ym2612"
    },
    {
      "channel": 0,
      "note": 72,
      "start": 4.1804,
      "duration": 0.0161,
      "velocity": 124,
      "chip": "ym2612"
    },
    {
      "channel": 4,
      "note": 61,
      "start": 4.1816,
      "duration": 0.0161,
      "velocity": 101,
      "chip": "ym2612"
    },
    {
      "channel": 3,
      "note": 64,
      "start": 4.1827,
      "duration": 0.0161,
      "velocity": 101,
      "chip": "ym2612"
    },
    {
      "channel": 1,
      "note": 69,
      "start": 4.185,
      "duration": 0.0161,
      "velocity": 101,
      "chip": "ym2612"
    },
    {
      "channel": 0,
      "note": 70,
      "start": 4.1965,
      "duration": 0.0161,
      "velocity": 124,
      "chip": "ym2612"
    },
    {
      "channel": 4,
      "note": 61,
      "start": 4.1977,
      "duration": 0.0161,
      "velocity": 101,
      "chip": "ym2612"
    },
    {
      "channel": 3,
      "note": 64,
      "start": 4.1988,
      "duration": 0.0161,
      "velocity": 101,
      "chip": "ym2612"
    },
    {
      "channel": 1,
      "note": 69,
      "start": 4.2011,
      "duration": 0.0161,
      "velocity": 101,
      "chip": "ym2612"
    },
    {
      "channel": 0,
      "note": 68,
      "start": 4.2126,
      "duration": 0.0166,
      "velocity": 124,
      "chip": "ym2612"
    },
    {
      "channel": 4,
      "note": 61,
      "start": 4.2138,
      "duration": 0.0165,
      "velocity": 101,
      "chip": "ym2612"
    },
    {
      "channel": 3,
      "note": 64,
      "start": 4.2149,
      "duration": 0.0166,
      "velocity": 101,
      "chip": "ym2612"
    },
    {
      "channel": 1,
      "note": 69,
      "start": 4.2172,
      "duration": 0.0166,
      "velocity": 101,
      "chip": "ym2612"
    },
    {
      "channel": 0,
      "note": 65,
      "start": 4.2292,
      "duration": 0.0167,
      "velocity": 124,
      "chip": "ym2612"
    },
    {
      "channel": 4,
      "note": 61,
      "start": 4.2303,
      "duration": 0.0167,
      "velocity": 101,
      "chip": "ym2612"
    },
    {
      "channel": 3,
      "note": 64,
      "start": 4.2315,
      "duration": 0.0167,
      "velocity": 101,
      "chip": "ym2612"
    },
    {
      "channel": 1,
      "note": 69,
      "start": 4.2337,
      "duration": 0.0167,
      "velocity": 101,
      "chip": "ym2612"
    },
    {
      "channel": 0,
      "note": 63,
      "start": 4.2458,
      "duration": 0.0155,
      "velocity": 1,
      "chip": "ym2612"
    },
    {
      "channel": 4,
      "note": 61,
      "start": 4.247,
      "duration": 0.0155,
      "velocity": 101,
      "chip": "ym2612"
    },
    {
      "channel": 3,
      "note": 64,
      "start": 4.2481,
      "duration": 0.0155,
      "velocity": 101,
      "chip": "ym2612"
    },
    {
      "channel": 1,
      "note": 69,
      "start": 4.2504,
      "duration": 0.0155,
      "velocity": 101,
      "chip": "ym2612"
    },
    {
      "channel": 4,
      "note": 61,
      "start": 4.2625,
      "duration": 0.014,
      "velocity": 101,
      "chip": "ym2612"
    },
    {
      "channel": 3,
      "note": 64,
      "start": 4.2636,
      "duration": 0.014,
      "velocity": 101,
      "chip": "ym2612"
    },
    {
      "channel": 1,
      "note": 69,
      "start": 4.2659,
      "duration": 0.014,
      "velocity": 101,
      "chip": "ym2612"
    },
    {
      "channel": 4,
      "note": 61,
      "start": 4.2765,
      "duration": 0.0188,
      "velocity": 101,
      "chip": "ym2612"
    },
    {
      "channel": 3,
      "note": 64,
      "start": 4.2776,
      "duration": 0.0188,
      "velocity": 101,
      "chip": "ym2612"
    },
    {
      "channel": 1,
      "note": 69,
      "start": 4.2799,
      "duration": 0.0188,
      "velocity": 101,
      "chip": "ym2612"
    },
    {
      "channel": 4,
      "note": 61,
      "start": 4.2953,
      "duration": 0.0162,
      "velocity": 101,
      "chip": "ym2612"
    },
    {
      "channel": 3,
      "note": 64,
      "start": 4.2965,
      "duration": 0.0161,
      "velocity": 101,
      "chip": "ym2612"
    },
    {
      "channel": 1,
      "note": 69,
      "start": 4.2988,
      "duration": 0.0161,
      "velocity": 101,
      "chip": "ym2612"
    },
    {
      "channel": 4,
      "note": 61,
      "start": 4.3115,
      "duration": 0.0194,
      "velocity": 101,
      "chip": "ym2612"
    },
    {
      "channel": 3,
      "note": 64,
      "start": 4.3126,
      "duration": 0.0197,
      "velocity": 101,
      "chip": "ym2612"
    },
    {
      "channel": 1,
      "note": 69,
      "start": 4.3149,
      "duration": 0.0199,
      "velocity": 101,
      "chip": "ym2612"
    },
    {
      "channel": 0,
      "note": 36,
      "start": 4.3295,
      "duration": 0.0123,
      "velocity": 115,
      "chip": "ym2612"
    },
    {
      "channel": 4,
      "note": 61,
      "start": 4.3309,
      "duration": 0.0121,
      "velocity": 101,
      "chip": "ym2612"
    },
    {
      "channel": 3,
      "note": 64,
      "start": 4.3323,
      "duration": 0.0119,
      "velocity": 101,
      "chip": "ym2612"
    },
    {
      "channel": 1,
      "note": 69,
      "start": 4.3348,
      "duration": 0.0117,
      "velocity": 101,
      "chip": "ym2612"
    },
    {
      "channel": 0,
      "note": 36,
      "start": 4.3418,
      "duration": 0.0157,
      "velocity": 115,
      "chip": "ym2612"
    },
    {
      "channel": 4,
      "note": 61,
      "start": 4.343,
      "duration": 0.0184,
      "velocity": 101,
      "chip": "ym2612"
    },
    {
      "channel": 3,
      "note": 64,
      "start": 4.3442,
      "duration": 0.0183,
      "velocity": 101,
      "chip": "ym2612"
    },
    {
      "channel": 1,
      "note": 69,
      "start": 4.3465,
      "duration": 0.0183,
      "velocity": 101,
      "chip": "ym2612"
    },
    {
      "channel": 0,
      "note": 37,
      "start": 4.3575,
      "duration": 0.0161,
      "velocity": 115,
      "chip": "ym2612"
    },
    {
      "channel": 4,
      "note": 61,
      "start": 4.3614,
      "duration": 0.0161,
      "velocity": 101,
      "chip": "ym2612"
    },
    {
      "channel": 3,
      "note": 64,
      "start": 4.3626,
      "duration": 0.0161,
      "velocity": 101,
      "chip": "ym2612"
    },
    {
      "channel": 1,
      "note": 69,
      "start": 4.3649,
      "duration": 0.0161,
      "velocity": 101,
      "chip": "ym2612"
    },
    {
      "channel": 0,
      "note": 37,
      "start": 4.3736,
      "duration": 0.0161,
      "velocity": 115,
      "chip": "ym2612"
    },
    {
      "channel": 4,
      "note": 61,
      "start": 4.3775,
      "duration": 0.0134,
      "velocity": 101,
      "chip": "ym2612"
    },
    {
      "channel": 3,
      "note": 64,
      "start": 4.3786,
      "duration": 0.0158,
      "velocity": 101,
      "chip": "ym2612"
    },
    {
      "channel": 1,
      "note": 69,
      "start": 4.3809,
      "duration": 0.0158,
      "velocity": 101,
      "chip": "ym2612"
    },
    {
      "channel": 0,
      "note": 38,
      "start": 4.3897,
      "duration": 0.0161,
      "velocity": 115,
      "chip": "ym2612"
    },
    {
      "channel": 4,
      "note": 61,
      "start": 4.3909,
      "duration": 0.0161,
      "velocity": 101,
      "chip": "ym2612"
    },
    {
      "channel": 3,
      "note": 64,
      "start": 4.3944,
      "duration": 0.014,
      "velocity": 101,
      "chip": "ym2612"
    },
    {
      "channel": 1,
      "note": 69,
      "start": 4.3967,
      "duration": 0.014,
      "velocity": 101,
      "chip": "ym2612"
    },
    {
      "channel": 0,
      "note": 38,
      "start": 4.4058,
      "duration": 0.0161,
      "velocity": 115,
      "chip": "ym2612"
    },
    {
      "channel": 4,
      "note": 61,
      "start": 4.407,
      "duration": 0.0161,
      "velocity": 101,
      "chip": "ym2612"
    },
    {
      "channel": 3,
      "note": 64,
      "start": 4.4084,
      "duration": 0.0158,
      "velocity": 101,
      "chip": "ym2612"
    },
    {
      "channel": 1,
      "note": 69,
      "start": 4.4107,
      "duration": 0.0185,
      "velocity": 101,
      "chip": "ym2612"
    },
    {
      "channel": 0,
      "note": 39,
      "start": 4.4219,
      "duration": 0.0161,
      "velocity": 115,
      "chip": "ym2612"
    },
    {
      "channel": 4,
      "note": 61,
      "start": 4.4231,
      "duration": 0.0161,
      "velocity": 101,
      "chip": "ym2612"
    },
    {
      "channel": 3,
      "note": 64,
      "start": 4.4242,
      "duration": 0.0161,
      "velocity": 101,
      "chip": "ym2612"
    },
    {
      "channel": 1,
      "note": 69,
      "start": 4.4292,
      "duration": 0.0161,
      "velocity": 101,
      "chip": "ym2612"
    },
    {
      "channel": 0,
      "note": 39,
      "start": 4.438,
      "duration": 0.0161,
      "velocity": 115,
      "chip": "ym2612"
    },
    {
      "channel": 4,
      "note": 61,
      "start": 4.4391,
      "duration": 0.0162,
      "velocity": 101,
      "chip": "ym2612"
    },
    {
      "channel": 3,
      "note": 64,
      "start": 4.4403,
      "duration": 0.0161,
      "velocity": 101,
      "chip": "ym2612"
    },
    {
      "channel": 1,
      "note": 69,
      "start": 4.4453,
      "duration": 0.0158,
      "velocity": 101,
      "chip": "ym2612"
    },
    {
      "channel": 0,
      "note": 40,
      "start": 4.4541,
      "duration": 0.0161,
      "velocity": 115,
      "chip": "ym2612"
    },
    {
      "channel": 4,
      "note": 61,
      "start": 4.4553,
      "duration": 0.0161,
      "velocity": 101,
      "chip": "ym2612"
    },
    {
      "channel": 3,
      "note": 64,
      "start": 4.4564,
      "duration": 0.0161,
      "velocity": 101,
      "chip": "ym2612"
    },
    {
      "channel": 1,
      "note": 69,
      "start": 4.4611,
      "duration": 0.0141,
      "velocity": 101,
      "chip": "ym2612"
    },
    {
      "channel": 0,
      "note": 40,
      "start": 4.4702,
      "duration": 0.016,
      "velocity": 115,
      "chip": "ym2612"
    },
    {
      "channel": 4,
      "note": 61,
      "start": 4.4714,
      "duration": 0.0161,
      "velocity": 101,
      "chip": "ym2612"
    },
    {
      "channel": 3,
      "note": 64,
      "start": 4.4725,
      "duration": 0.0161,
      "velocity": 101,
      "chip": "ym2612"
    },
    {
      "channel": 1,
      "note": 69,
      "start": 4.4751,
      "duration": 0.0158,
      "velocity": 101,
      "chip": "ym2612"
    },
    {
      "channel": 0,
      "note": 40,
      "start": 4.4863,
      "duration": 0.0162,
      "velocity": 115,
      "chip": "ym2612"
    },
    {
      "channel": 4,
      "note": 61,
      "start": 4.4875,
      "duration": 0.0161,
      "velocity": 101,
      "chip": "ym2612"
    },
    {
      "channel": 3,
      "note": 64,
      "start": 4.4886,
      "duration": 0.0161,
      "velocity": 101,
      "chip": "ym2612"
    },
    {
      "channel": 1,
      "note": 69,
      "start": 4.4909,
      "duration": 0.0161,
      "velocity": 101,
      "chip": "ym2612"
    },
    {
      "channel": 0,
      "note": 41,
      "start": 4.5024,
      "duration": 0.0161,
      "velocity": 115,
      "chip": "ym2612"
    },
    {
      "channel": 4,
      "note": 61,
      "start": 4.5036,
      "duration": 0.0161,
      "velocity": 101,
      "chip": "ym2612"
    },
    {
      "channel": 3,
      "note": 64,
      "start": 4.5047,
      "duration": 0.0161,
      "velocity": 101,
      "chip": "ym2612"
    },
    {
      "channel": 1,
      "note": 69,
      "start": 4.507,
      "duration": 0.0161,
      "velocity": 101,
      "chip": "ym2612"
    },
    {
      "channel": 0,
      "note": 41,
      "start": 4.5185,
      "duration": 0.0161,
      "velocity": 115,
      "chip": "ym2612"
    },
    {
      "channel": 4,
      "note": 61,
      "start": 4.5197,
      "duration": 0.0161,
      "velocity": 101,
      "chip": "ym2612"
    },
    {
      "channel": 3,
      "note": 64,
      "start": 4.5208,
      "duration": 0.0161,
      "velocity": 101,
      "chip": "ym2612"
    },
    {
      "channel": 1,
      "note": 69,
      "start": 4.5231,
      "duration": 0.0161,
      "velocity": 101,
      "chip": "ym2612"
    },
    {
      "channel": 0,
      "note": 42,
      "start": 4.5346,
      "duration": 0.0161,
      "velocity": 115,
      "chip": "ym2612"
    },
    {
      "channel": 4,
      "note": 61,
      "start": 4.5358,
      "duration": 0.0161,
      "velocity": 101,
      "chip": "ym2612"
    },
    {
      "channel": 3,
      "note": 64,
      "start": 4.5369,
      "duration": 0.0161,
      "velocity": 101,
      "chip": "ym2612"
    },
    {
      "channel": 1,
      "note": 69,
      "start": 4.5392,
      "duration": 0.0161,
      "velocity": 101,
      "chip": "ym2612"
    },
    {
      "channel": 0,
      "note": 42,
      "start": 4.5507,
      "duration": 0.0161,
      "velocity": 115,
      "chip": "ym2612"
    },
    {
      "channel": 4,
      "note": 61,
      "start": 4.5519,
      "duration": 0.0161,
      "velocity": 101,
      "chip": "ym2612"
    },
    {
      "channel": 3,
      "note": 64,
      "start": 4.553,
      "duration": 0.0161,
      "velocity": 101,
      "chip": "ym2612"
    },
    {
      "channel": 1,
      "note": 69,
      "start": 4.5553,
      "duration": 0.0161,
      "velocity": 101,
      "chip": "ym2612"
    },
    {
      "channel": 0,
      "note": 43,
      "start": 4.5668,
      "duration": 0.0161,
      "velocity": 115,
      "chip": "ym2612"
    },
    {
      "channel": 4,
      "note": 61,
      "start": 4.568,
      "duration": 0.0161,
      "velocity": 101,
      "chip": "ym2612"
    },
    {
      "channel": 3,
      "note": 64,
      "start": 4.5691,
      "duration": 0.0161,
      "velocity": 101,
      "chip": "ym2612"
    },
    {
      "channel": 1,
      "note": 69,
      "start": 4.5714,
      "duration": 0.0161,
      "velocity": 101,
      "chip": "ym2612"
    },
    {
      "channel": 0,
      "note": 43,
      "start": 4.5829,
      "duration": 0.0161,
      "velocity": 115,
      "chip": "ym2612"
    },
    {
      "channel": 4,
      "note": 61,
      "start": 4.5841,
      "duration": 0.0161,
      "velocity": 101,
      "chip": "ym2612"
    },
    {
      "channel": 3,
      "note": 64,
      "start": 4.5852,
      "duration": 0.0162,
      "velocity": 101,
      "chip": "ym2612"
    },
    {
      "channel": 1,
      "note": 69,
      "start": 4.5875,
      "duration": 0.0161,
      "velocity": 101,
      "chip": "ym2612"
    },
    {
      "channel": 0,
      "note": 44,
      "start": 4.599,
      "duration": 0.0161,
      "velocity": 115,
      "chip": "ym2612"
    },
    {
      "channel": 4,
      "note": 61,
      "start": 4.6002,
      "duration": 0.0161,
      "velocity": 101,
      "chip": "ym2612"
    },
    {
      "channel": 3,
      "note": 64,
      "start": 4.6014,
      "duration": 0.0161,
      "velocity": 101,
      "chip": "ym2612"
    },
    {
      "channel": 1,
      "note": 69,
      "start": 4.6036,
      "duration": 0.0161,
      "velocity": 101,
      "chip": "ym2612"
    },
    {
      "channel": 0,
      "note": 44,
      "start": 4.6151,
      "duration": 0.0161,
      "velocity": 115,
      "chip": "ym2612"
    },
    {
      "channel": 4,
      "note": 61,
      "start": 4.6163,
      "duration": 0.0161,
      "velocity": 101,
      "chip": "ym2612"
    },
    {
      "channel": 3,
      "note": 64,
      "start": 4.6175,
      "duration": 0.0161,
      "velocity": 101,
      "chip": "ym2612"
    },
    {
      "channel": 1,
      "note": 69,
      "start": 4.6197,
      "duration": 0.0161,
      "velocity": 101,
      "chip": "ym2612"
    },
    {
      "channel": 0,
      "note": 44,
      "start": 4.6312,
      "duration": 0.0161,
      "velocity": 115,
      "chip": "ym2612"
    },
    {
      "channel": 4,
      "note": 61,
      "start": 4.6324,
      "duration": 0.0161,
      "velocity": 101,
      "chip": "ym2612"
    },
    {
      "channel": 3,
      "note": 64,
      "start": 4.6335,
      "duration": 0.0161,
      "velocity": 101,
      "chip": "ym2612"
    },
    {
      "channel": 1,
      "note": 69,
      "start": 4.6358,
      "duration": 0.0161,
      "velocity": 101,
      "chip": "ym2612"
    },
    {
      "channel": 0,
      "note": 45,
      "start": 4.6473,
      "duration": 0.0161,
      "velocity": 115,
      "chip": "ym2612"
    },
    {
      "channel": 4,
      "note": 61,
      "start": 4.6485,
      "duration": 0.0161,
      "velocity": 101,
      "chip": "ym2612"
    },
    {
      "channel": 3,
      "note": 64,
      "start": 4.6496,
      "duration": 0.0161,
      "velocity": 101,
      "chip": "ym2612"
    },
    {
      "channel": 1,
      "note": 69,
      "start": 4.6519,
      "duration": 0.0161,
      "velocity": 101,
      "chip": "ym2612"
    },
    {
      "channel": 0,
      "note": 45,
      "start": 4.6634,
      "duration": 0.0161,
      "velocity": 115,
      "chip": "ym2612"
    },
    {
      "channel": 4,
      "note": 61,
      "start": 4.6646,
      "duration": 0.0161,
      "velocity": 101,
      "chip": "ym2612"
    },
    {
      "channel": 3,
      "note": 64,
      "start": 4.6657,
      "duration": 0.0161,
      "velocity": 101,
      "chip": "ym2612"
    },
    {
      "channel": 1,
      "note": 69,
      "start": 4.668,
      "duration": 0.0161,
      "velocity": 101,
      "chip": "ym2612"
    },
    {
      "channel": 0,
      "note": 46,
      "start": 4.6795,
      "duration": 0.0163,
      "velocity": 115,
      "chip": "ym2612"
    },
    {
      "channel": 4,
      "note": 61,
      "start": 4.6807,
      "duration": 0.0163,
      "velocity": 101,
      "chip": "ym2612"
    },
    {
      "channel": 3,
      "note": 64,
      "start": 4.6818,
      "duration": 0.0163,
      "velocity": 101,
      "chip": "ym2612"
    },
    {
      "channel": 1,
      "note": 69,
      "start": 4.6841,
      "duration": 0.0163,
      "velocity": 101,
      "chip": "ym2612"
    },
    {
      "channel": 0,
      "note": 46,
      "start": 4.6958,
      "duration": 0.0167,
      "velocity": 115,
      "chip": "ym2612"
    },
    {
      "channel": 4,
      "note": 61,
      "start": 4.697,
      "duration": 0.0167,
      "velocity": 101,
      "chip": "ym2612"
    },
    {
      "channel": 3,
      "note": 64,
      "start": 4.6981,
      "duration": 0.0167,
      "velocity": 101,
      "chip": "ym2612"
    },
    {
      "channel": 1,
      "note": 69,
      "start": 4.7004,
      "duration": 0.0167,
      "velocity": 101,
      "chip": "ym2612"
    },
    {
      "channel": 0,
      "note": 47,
      "start": 4.7125,
      "duration": 0.0163,
      "velocity": 115,
      "chip": "ym2612"
    },
    {
      "channel": 4,
      "note": 61,
      "start": 4.7136,
      "duration": 0.0163,
      "velocity": 101,
      "chip": "ym2612"
    },
    {
      "channel": 3,
      "note": 64,
      "start": 4.7148,
      "duration": 0.0163,
      "velocity": 101,
      "chip": "ym2612"
    },
    {
      "channel": 1,
      "note": 69,
      "start": 4.7171,
      "duration": 0.0163,
      "velocity": 101,
      "chip": "ym2612"
    },
    {
      "channel": 0,
      "note": 47,
      "start": 4.7288,
      "duration": 0.0151,
      "velocity": 115,
      "chip": "ym2612"
    },
    {
      "channel": 4,
      "note": 61,
      "start": 4.7299,
      "duration": 0.0152,
      "velocity": 101,
      "chip": "ym2612"
    },
    {
      "channel": 3,
      "note": 64,
      "start": 4.7311,
      "duration": 0.0152,
      "velocity": 101,
      "chip": "ym2612"
    },
    {
      "channel": 1,
      "note": 69,
      "start": 4.7334,
      "duration": 0.0151,
      "velocity": 101,
      "chip": "ym2612"
    },
    {
      "channel": 0,
      "note": 47,
      "start": 4.7439,
      "duration": 0.0186,
      "velocity": 115,
      "chip": "ym2612"
    },
    {
      "channel": 4,
      "note": 61,
      "start": 4.7451,
      "duration": 0.0185,
      "velocity": 101,
      "chip": "ym2612"
    },
    {
      "channel": 3,
      "note": 64,
      "start": 4.7463,
      "duration": 0.0185,
      "velocity": 101,
      "chip": "ym2612"
    },
    {
      "channel": 1,
      "note": 69,
      "start": 4.7485,
      "duration": 0.0186,
      "velocity": 101,
      "chip": "ym2612"
    },
    {
      "channel": 0,
      "note": 48,
      "start": 4.7625,
      "duration": 0.0181,
      "velocity": 115,
      "chip": "ym2612"
    },
    {
      "channel": 4,
      "note": 61,
      "start": 4.7636,
      "duration": 0.0182,
      "velocity": 101,
      "chip": "ym2612"
    },
    {
      "channel": 3,
      "note": 64,
      "start": 4.7648,
      "duration": 0.0182,
      "velocity": 101,
      "chip": "ym2612"
    },
    {
      "channel": 1,
      "note": 69,
      "start": 4.7671,
      "duration": 0.0182,
      "velocity": 101,
      "chip": "ym2612"
    },
    {
      "channel": 0,
      "note": 36,
      "start": 4.7807,
      "duration": 0.014,
      "velocity": 115,
      "chip": "ym2612"
    },
    {
      "channel": 4,
      "note": 61,
      "start": 4.7818,
      "duration": 0.014,
      "velocity": 101,
      "chip": "ym2612"
    },
    {
      "channel": 3,
      "note": 64,
      "start": 4.783,
      "duration": 0.014,
      "velocity": 101,
      "chip": "ym2612"
    },
    {
      "channel": 1,
      "note": 69,
      "start": 4.7853,
      "duration": 0.014,
      "velocity": 101,
      "chip": "ym2612"
    },
    {
      "channel": 0,
      "note": 36,
      "start": 4.7947,
      "duration": 0.014,
      "velocity": 115,
      "chip": "ym2612"
    },
    {
      "channel": 4,
      "note": 61,
      "start": 4.7958,
      "duration": 0.014,
      "velocity": 101,
      "chip": "ym2612"
    },
    {
      "channel": 3,
      "note": 64,
      "start": 4.797,
      "duration": 0.014,
      "velocity": 101,
      "chip": "ym2612"
    },
    {
      "channel": 1,
      "note": 69,
      "start": 4.7993,
      "duration": 0.014,
      "velocity": 101,
      "chip": "ym2612"
    },
    {
      "channel": 0,
      "note": 37,
      "start": 4.8087,
      "duration": 0.0185,
      "velocity": 115,
      "chip": "ym2612"
    },
    {
      "channel": 4,
      "note": 61,
      "start": 4.8098,
      "duration": 0.0185,
      "velocity": 101,
      "chip": "ym2612"
    },
    {
      "channel": 3,
      "note": 64,
      "start": 4.811,
      "duration": 0.0185,
      "velocity": 101,
      "chip": "ym2612"
    },
    {
      "channel": 1,
      "note": 69,
      "start": 4.8132,
      "duration": 0.0185,
      "velocity": 101,
      "chip": "ym2612"
    },
    {
      "channel": 0,
      "note": 37,
      "start": 4.8272,
      "duration": 0.0134,
      "velocity": 115,
      "chip": "ym2612"
    },
    {
      "channel": 4,
      "note": 61,
      "start": 4.8283,
      "duration": 0.0162,
      "velocity": 101,
      "chip": "ym2612"
    },
    {
      "channel": 3,
      "note": 64,
      "start": 4.8295,
      "duration": 0.0161,
      "velocity": 101,
      "chip": "ym2612"
    },
    {
      "channel": 1,
      "note": 69,
      "start": 4.8318,
      "duration": 0.0161,
      "velocity": 101,
      "chip": "ym2612"
    },
    {
      "channel": 0,
      "note": 38,
      "start": 4.8405,
      "duration": 0.0161,
      "velocity": 115,
      "chip": "ym2612"
    },
    {
      "channel": 4,
      "note": 61,
      "start": 4.8445,
      "duration": 0.0156,
      "velocity": 101,
      "chip": "ym2612"
    },
    {
      "channel": 3,
      "note": 64,
      "start": 4.8456,
      "duration": 0.0157,
      "velocity": 101,
      "chip": "ym2612"
    },
    {
      "channel": 1,
      "note": 69,
      "start": 4.8479,
      "duration": 0.0158,
      "velocity": 101,
      "chip": "ym2612"
    },
    {
      "channel": 0,
      "note": 38,
      "start": 4.8566,
      "duration": 0.0161,
      "velocity": 115,
      "chip": "ym2612"
    },
    {
      "channel": 4,
      "note": 61,
      "start": 4.8601,
      "duration": 0.0137,
      "velocity": 101,
      "chip": "ym2612"
    },
    {
      "channel": 3,
      "note": 64,
      "start": 4.8613,
      "duration": 0.014,
      "velocity": 101,
      "chip": "ym2612"
    },
    {
      "channel": 1,
      "note": 69,
      "start": 4.8636,
      "duration": 0.014,
      "velocity": 101,
      "chip": "ym2612"
    },
    {
      "channel": 0,
      "note": 39,
      "start": 4.8727,
      "duration": 0.0161,
      "velocity": 115,
      "chip": "ym2612"
    },
    {
      "channel": 4,
      "note": 61,
      "start": 4.8739,
      "duration": 0.0162,
      "velocity": 101,
      "chip": "ym2612"
    },
    {
      "channel": 3,
      "note": 64,
      "start": 4.8754,
      "duration": 0.0186,
      "velocity": 101,
      "chip": "ym2612"
    },
    {
      "channel": 1,
      "note": 69,
      "start": 4.8776,
      "duration": 0.0186,
      "velocity": 101,
      "chip": "ym2612"
    },
    {
      "channel": 0,
      "note": 39,
      "start": 4.8888,
      "duration": 0.0161,
      "velocity": 115,
      "chip": "ym2612"
    },
    {
      "channel": 4,
      "note": 61,
      "start": 4.89,
      "duration": 0.0161,
      "velocity": 101,
      "chip": "ym2612"
    },
    {
      "channel": 3,
      "note": 64,
      "start": 4.8939,
      "duration": 0.0134,
      "velocity": 101,
      "chip": "ym2612"
    },
    {
      "channel": 1,
      "note": 69,
      "start": 4.8962,
      "duration": 0.0161,
      "velocity": 101,
      "chip": "ym2612"
    },
    {
      "channel": 0,
      "note": 40,
      "start": 4.9049,
      "duration": 0.0162,
      "velocity": 115,
      "chip": "ym2612"
    },
    {
      "channel": 4,
      "note": 61,
      "start": 4.9061,
      "duration": 0.0161,
      "velocity": 101,
      "chip": "ym2612"
    },
    {
      "channel": 3,
      "note": 64,
      "start": 4.9073,
      "duration": 0.0161,
      "velocity": 101,
      "chip": "ym2612"
    },
    {
      "channel": 1,
      "note": 69,
      "start": 4.9123,
      "duration": 0.0157,
      "velocity": 101,
      "chip": "ym2612"
    },
    {
      "channel": 0,
      "note": 40,
      "start": 4.9211,
      "duration": 0.0161,
      "velocity": 115,
      "chip": "ym2612"
    },
    {
      "channel": 4,
      "note": 61,
      "start": 4.9222,
      "duration": 0.0161,
      "velocity": 101,
      "chip": "ym2612"
    },
    {
      "channel": 3,
      "note": 64,
      "start": 4.9234,
      "duration": 0.0161,
      "velocity": 101,
      "chip": "ym2612"
    },
    {
      "channel": 1,
      "note": 69,
      "start": 4.928,
      "duration": 0.0141,
      "velocity": 101,
      "chip": "ym2612"
    },
    {
      "channel": 0,
      "note": 40,
      "start": 4.9372,
      "duration": 0.0161,
      "velocity": 115,
      "chip": "ym2612"
    },
    {
      "channel": 4,
      "note": 61,
      "start": 4.9383,
      "duration": 0.0161,
      "velocity": 101,
      "chip": "ym2612"
    },
    {
      "channel": 3,
      "note": 64,
      "start": 4.9395,
      "duration": 0.0161,
      "velocity": 101,
      "chip": "ym2612"
    },
    {
      "channel": 1,
      "note": 69,
      "start": 4.9421,
      "duration": 0.0185,
      "velocity": 101,
      "chip": "ym2612"
    },
    {
      "channel": 0,
      "note": 41,
      "start": 4.9533,
      "duration": 0.0161,
      "velocity": 115,
      "chip": "ym2612"
    },
    {
      "channel": 4,
      "note": 61,
      "start": 4.9544,
      "duration": 0.0161,
      "velocity": 101,
      "chip": "ym2612"
    },
    {
      "channel": 3,
      "note": 64,
      "start": 4.9556,
      "duration": 0.0161,
      "velocity": 101,
      "chip": "ym2612"
    },
    {
      "channel": 1,
      "note": 69,
      "start": 4.9606,
      "duration": 0.0134,
      "velocity": 101,
      "chip": "ym2612"
    },
    {
      "channel": 0,
      "note": 41,
      "start": 4.9694,
      "duration": 0.0161,
      "velocity": 115,
      "chip": "ym2612"
    },
    {
      "channel": 4,
      "note": 61,
      "start": 4.9705,
      "duration": 0.0161,
      "velocity": 101,
      "chip": "ym2612"
    },
    {
      "channel": 3,
      "note": 64,
      "start": 4.9717,
      "duration": 0.0161,
      "velocity": 101,
      "chip": "ym2612"
    },
    {
      "channel": 1,
      "note": 69,
      "start": 4.9739,
      "duration": 0.0161,
      "velocity": 101,
      "chip": "ym2612"
    },
    {
      "channel": 0,
      "note": 42,
      "start": 4.9855,
      "duration": 0.0179,
      "velocity": 124,
      "chip": "ym2612"
    },
    {
      "channel": 4,
      "note": 61,
      "start": 4.9866,
      "duration": 0.0179,
      "velocity": 101,
      "chip": "ym2612"
    },
    {
      "channel": 3,
      "note": 64,
      "start": 4.9878,
      "duration": 0.0179,
      "velocity": 101,
      "chip": "ym2612"
    },
    {
      "channel": 1,
      "note": 69,
      "start": 4.99,
      "duration": 0.0182,
      "velocity": 101,
      "chip": "ym2612"
    },
    {
      "channel": 0,
      "note": 84,
      "start": 5.0033,
      "duration": 0.0144,
      "velocity": 124,
      "chip": "ym2612"
    },
    {
      "channel": 4,
      "note": 61,
      "start": 5.0045,
      "duration": 0.0144,
      "velocity": 101,
      "chip": "ym2612"
    },
    {
      "channel": 3,
      "note": 64,
      "start": 5.0057,
      "duration": 0.0144,
      "velocity": 101,
      "chip": "ym2612"
    },
    {
      "channel": 1,
      "note": 69,
      "start": 5.0082,
      "duration": 0.0141,
      "velocity": 101,
      "chip": "ym2612"
    },
    {
      "channel": 0,
      "note": 82,
      "start": 5.0177,
      "duration": 0.016,
      "velocity": 124,
      "chip": "ym2612"
    },
    {
      "channel": 4,
      "note": 61,
      "start": 5.0189,
      "duration": 0.016,
      "velocity": 101,
      "chip": "ym2612"
    },
    {
      "channel": 3,
      "note": 64,
      "start": 5.0201,
      "duration": 0.016,
      "velocity": 101,
      "chip": "ym2612"
    },
    {
      "channel": 1,
      "note": 69,
      "start": 5.0223,
      "duration": 0.016,
      "velocity": 101,
      "chip": "ym2612"
    },
    {
      "channel": 0,
      "note": 80,
      "start": 5.0337,
      "duration": 0.0161,
      "velocity": 124,
      "chip": "ym2612"
    },
    {
      "channel": 4,
      "note": 61,
      "start": 5.0349,
      "duration": 0.0161,
      "velocity": 101,
      "chip": "ym2612"
    },
    {
      "channel": 3,
      "note": 64,
      "start": 5.0361,
      "duration": 0.0161,
      "velocity": 101,
      "chip": "ym2612"
    },
    {
      "channel": 1,
      "note": 69,
      "start": 5.0383,
      "duration": 0.0161,
      "velocity": 101,
      "chip": "ym2612"
    },
    {
      "channel": 0,
      "note": 77,
      "start": 5.0498,
      "duration": 0.0161,
      "velocity": 124,
      "chip": "ym2612"
    },
    {
      "channel": 4,
      "note": 61,
      "start": 5.051,
      "duration": 0.0161,
      "velocity": 101,
      "chip": "ym2612"
    },
    {
      "channel": 3,
      "note": 64,
      "start": 5.0522,
      "duration": 0.0161,
      "velocity": 101,
      "chip": "ym2612"
    },
    {
      "channel": 1,
      "note": 69,
      "start": 5.0544,
      "duration": 0.0161,
      "velocity": 101,
      "chip": "ym2612"
    },
    {
      "channel": 0,
      "note": 75,
      "start": 5.066,
      "duration": 0.0161,
      "velocity": 124,
      "chip": "ym2612"
    },
    {
      "channel": 4,
      "note": 61,
      "start": 5.0671,
      "duration": 0.0161,
      "velocity": 101,
      "chip": "ym2612"
    },
    {
      "channel": 3,
      "note": 64,
      "start": 5.0683,
      "duration": 0.0161,
      "velocity": 101,
      "chip": "ym2612"
    },
    {
      "channel": 1,
      "note": 69,
      "start": 5.0706,
      "duration": 0.0161,
      "velocity": 101,
      "chip": "ym2612"
    },
    {
      "channel": 0,
      "note": 72,
      "start": 5.0821,
      "duration": 0.0161,
      "velocity": 124,
      "chip": "ym2612"
    },
    {
      "channel": 4,
      "note": 61,
      "start": 5.0832,
      "duration": 0.0161,
      "velocity": 101,
      "chip": "ym2612"
    },
    {
      "channel": 3,
      "note": 64,
      "start": 5.0844,
      "duration": 0.0161,
      "velocity": 101,
      "chip": "ym2612"
    },
    {
      "channel": 1,
      "note": 69,
      "start": 5.0867,
      "duration": 0.0161,
      "velocity": 101,
      "chip": "ym2612"
    },
    {
      "channel": 0,
      "note": 70,
      "start": 5.0982,
      "duration": 0.0161,
      "velocity": 124,
      "chip": "ym2612"
    },
    {
      "channel": 4,
      "note": 61,
      "start": 5.0993,
      "duration": 0.0161,
      "velocity": 101,
      "chip": "ym2612"
    },
    {
      "channel": 3,
      "note": 64,
      "start": 5.1005,
      "duration": 0.0161,
      "velocity": 101,
      "chip": "ym2612"
    },
    {
      "channel": 1,
      "note": 69,
      "start": 5.1028,
      "duration": 0.0161,
      "velocity": 101,
      "chip": "ym2612"
    },
    {
      "channel": 0,
      "note": 68,
      "start": 5.1143,
      "duration": 0.0161,
      "velocity": 124,
      "chip": "ym2612"
    },
    {
      "channel": 4,
      "note": 61,
      "start": 5.1154,
      "duration": 0.0161,
      "velocity": 101,
      "chip": "ym2612"
    },
    {
      "channel": 3,
      "note": 64,
      "start": 5.1166,
      "duration": 0.0161,
      "velocity": 101,
      "chip": "ym2612"
    },
    {
      "channel": 1,
      "note": 69,
      "start": 5.1188,
      "duration": 0.0161,
      "velocity": 101,
      "chip": "ym2612"
    },
    {
      "channel": 0,
      "note": 65,
      "start": 5.1304,
      "duration": 0.0161,
      "velocity": 124,
      "chip": "ym2612"
    },
    {
      "channel": 4,
      "note": 61,
      "start": 5.1315,
      "duration": 0.0161,
      "velocity": 101,
      "chip": "ym2612"
    },
    {
      "channel": 3,
      "note": 64,
      "start": 5.1327,
      "duration": 0.0161,
      "velocity": 101,
      "chip": "ym2612"
    },
    {
      "channel": 1,
      "note": 69,
      "start": 5.1349,
      "duration": 0.0161,
      "velocity": 101,
      "chip": "ym2612"
    },
    {
      "channel": 0,
      "note": 63,
      "start": 5.1465,
      "duration": 0.0153,
      "velocity": 1,
      "chip": "ym2612"
    },
    {
      "channel": 4,
      "note": 61,
      "start": 5.1476,
      "duration": 0.0153,
      "velocity": 101,
      "chip": "ym2612"
    },
    {
      "channel": 3,
      "note": 64,
      "start": 5.1488,
      "duration": 0.0153,
      "velocity": 101,
      "chip": "ym2612"
    },
    {
      "channel": 1,
      "note": 69,
      "start": 5.151,
      "duration": 0.0153,
      "velocity": 101,
      "chip": "ym2612"
    },
    {
      "channel": 4,
      "note": 61,
      "start": 5.1629,
      "duration": 0.0157,
      "velocity": 101,
      "chip": "ym2612"
    },
    {
      "channel": 3,
      "note": 64,
      "start": 5.1641,
      "duration": 0.0157,
      "velocity": 101,
      "chip": "ym2612"
    },
    {
      "channel": 1,
      "note": 69,
      "start": 5.1664,
      "duration": 0.0157,
      "velocity": 101,
      "chip": "ym2612"
    },
    {
      "channel": 4,
      "note": 61,
      "start": 5.1786,
      "duration": 0.0163,
      "velocity": 101,
      "chip": "ym2612"
    },
    {
      "channel": 3,
      "note": 64,
      "start": 5.1798,
      "duration": 0.0163,
      "velocity": 101,
      "chip": "ym2612"
    },
    {
      "channel": 1,
      "note": 69,
      "start": 5.1821,
      "duration": 0.0163,
      "velocity": 101,
      "chip": "ym2612"
    },
    {
      "channel": 4,
      "note": 61,
      "start": 5.1949,
      "duration": 0.0154,
      "velocity": 101,
      "chip": "ym2612"
    },
    {
      "channel": 3,
      "note": 64,
      "start": 5.1961,
      "duration": 0.0155,
      "velocity": 101,
      "chip": "ym2612"
    },
    {
      "channel": 1,
      "note": 69,
      "start": 5.1984,
      "duration": 0.0155,
      "velocity": 101,
      "chip": "ym2612"
    },
    {
      "channel": 4,
      "note": 61,
      "start": 5.2104,
      "duration": 0.0217,
      "velocity": 101,
      "chip": "ym2612"
    },
    {
      "channel": 3,
      "note": 64,
      "start": 5.2115,
      "duration": 0.0217,
      "velocity": 101,
      "chip": "ym2612"
    },
    {
      "channel": 1,
      "note": 69,
      "start": 5.2138,
      "duration": 0.0217,
      "velocity": 101,
      "chip": "ym2612"
    },
    {
      "channel": 0,
      "note": 36,
      "start": 5.2309,
      "duration": 0.015,
      "velocity": 115,
      "chip": "ym2612"
    },
    {
      "channel": 4,
      "note": 61,
      "start": 5.2321,
      "duration": 0.0149,
      "velocity": 101,
      "chip": "ym2612"
    },
    {
      "channel": 3,
      "note": 64,
      "start": 5.2332,
      "duration": 0.015,
      "velocity": 101,
      "chip": "ym2612"
    },
    {
      "channel": 1,
      "note": 69,
      "start": 5.2355,
      "duration": 0.015,
      "velocity": 101,
      "chip": "ym2612"
    },
    {
      "channel": 0,
      "note": 36,
      "start": 5.2459,
      "duration": 0.0156,
      "velocity": 115,
      "chip": "ym2612"
    },
    {
      "channel": 4,
      "note": 61,
      "start": 5.247,
      "duration": 0.0156,
      "velocity": 101,
      "chip": "ym2612"
    },
    {
      "channel": 3,
      "note": 64,
      "start": 5.2482,
      "duration": 0.0156,
      "velocity": 101,
      "chip": "ym2612"
    },
    {
      "channel": 1,
      "note": 69,
      "start": 5.2505,
      "duration": 0.0156,
      "velocity": 101,
      "chip": "ym2612"
    },
    {
      "channel": 0,
      "note": 37,
      "start": 5.2615,
      "duration": 0.0141,
      "velocity": 115,
      "chip": "ym2612"
    },
    {
      "channel": 4,
      "note": 61,
      "start": 5.2627,
      "duration": 0.0141,
      "velocity": 101,
      "chip": "ym2612"
    },
    {
      "channel": 3,
      "note": 64,
      "start": 5.2638,
      "duration": 0.0141,
      "velocity": 101,
      "chip": "ym2612"
    },
    {
      "channel": 1,
      "note": 69,
      "start": 5.2661,
      "duration": 0.0141,
      "velocity": 101,
      "chip": "ym2612"
    },
    {
      "channel": 0,
      "note": 37,
      "start": 5.2756,
      "duration": 0.0185,
      "velocity": 115,
      "chip": "ym2612"
    },
    {
      "channel": 4,
      "note": 61,
      "start": 5.2767,
      "duration": 0.0186,
      "velocity": 101,
      "chip": "ym2612"
    },
    {
      "channel": 3,
      "note": 64,
      "start": 5.2779,
      "duration": 0.0186,
      "velocity": 101,
      "chip": "ym2612"
    },
    {
      "channel": 1,
      "note": 69,
      "start": 5.2802,
      "duration": 0.0185,
      "velocity": 101,
      "chip": "ym2612"
    },
    {
      "channel": 0,
      "note": 38,
      "start": 5.2941,
      "duration": 0.0134,
      "velocity": 115,
      "chip": "ym2612"
    },
    {
      "channel": 4,
      "note": 61,
      "start": 5.2953,
      "duration": 0.0161,
      "velocity": 101,
      "chip": "ym2612"
    },
    {
      "channel": 3,
      "note": 64,
      "start": 5.2965,
      "duration": 0.0161,
      "velocity": 101,
      "chip": "ym2612"
    },
    {
      "channel": 1,
      "note": 69,
      "start": 5.2987,
      "duration": 0.0161,
      "velocity": 101,
      "chip": "ym2612"
    },
    {
      "channel": 0,
      "note": 38,
      "start": 5.3075,
      "duration": 0.0161,
      "velocity": 115,
      "chip": "ym2612"
    },
    {
      "channel": 4,
      "note": 61,
      "start": 5.3114,
      "duration": 0.0157,
      "velocity": 101,
      "chip": "ym2612"
    },
    {
      "channel": 3,
      "note": 64,
      "start": 5.3126,
      "duration": 0.0157,
      "velocity": 101,
      "chip": "ym2612"
    },
    {
      "channel": 1,
      "note": 69,
      "start": 5.3148,
      "duration": 0.0158,
      "velocity": 101,
      "chip": "ym2612"
    },
    {
      "channel": 0,
      "note": 39,
      "start": 5.3236,
      "duration": 0.0161,
      "velocity": 115,
      "chip": "ym2612"
    },
    {
      "channel": 4,
      "note": 61,
      "start": 5.3271,
      "duration": 0.0137,
      "velocity": 101,
      "chip": "ym2612"
    },
    {
      "channel": 3,
      "note": 64,
      "start": 5.3283,
      "duration": 0.0141,
      "velocity": 101,
      "chip": "ym2612"
    },
    {
      "channel": 1,
      "note": 69,
      "start": 5.3306,
      "duration": 0.0141,
      "velocity": 101,
      "chip": "ym2612"
    },
    {
      "channel": 0,
      "note": 39,
      "start": 5.3397,
      "duration": 0.0161,
      "velocity": 115,
      "chip": "ym2612"
    },
    {
      "channel": 4,
      "note": 61,
      "start": 5.3409,
      "duration": 0.0161,
      "velocity": 101,
      "chip": "ym2612"
    },
    {
      "channel": 3,
      "note": 64,
      "start": 5.3423,
      "duration": 0.0185,
      "velocity": 101,
      "chip": "ym2612"
    },
    {
      "channel": 1,
      "note": 69,
      "start": 5.3446,
      "duration": 0.0185,
      "velocity": 101,
      "chip": "ym2612"
    },
    {
      "channel": 0,
      "note": 40,
      "start": 5.3557,
      "duration": 0.0162,
      "velocity": 115,
      "chip": "ym2612"
    },
    {
      "channel": 4,
      "note": 61,
      "start": 5.357,
      "duration": 0.0161,
      "velocity": 101,
      "chip": "ym2612"
    },
    {
      "channel": 3,
      "note": 64,
      "start": 5.3608,
      "duration": 0.0134,
      "velocity": 101,
      "chip": "ym2612"
    },
    {
      "channel": 1,
      "note": 69,
      "start": 5.3631,
      "duration": 0.0161,
      "velocity": 101,
      "chip": "ym2612"
    },
    {
      "channel": 0,
      "note": 40,
      "start": 5.3719,
      "duration": 0.0161,
      "velocity": 115,
      "chip": "ym2612"
    },
    {
      "channel": 4,
      "note": 61,
      "start": 5.3731,
      "duration": 0.0161,
      "velocity": 101,
      "chip": "ym2612"
    },
    {
      "channel": 3,
      "note": 64,
      "start": 5.3742,
      "duration": 0.0161,
      "velocity": 101,
      "chip": "ym2612"
    },
    {
      "channel": 1,
      "note": 69,
      "start": 5.3792,
      "duration": 0.0157,
      "velocity": 101,
      "chip": "ym2612"
    },
    {
      "channel": 0,
      "note": 40,
      "start": 5.388,
      "duration": 0.0161,
      "velocity": 115,
      "chip": "ym2612"
    },
    {
      "channel": 4,
      "note": 61,
      "start": 5.3891,
      "duration": 0.0161,
      "velocity": 101,
      "chip": "ym2612"
    },
    {
      "channel": 3,
      "note": 64,
      "start": 5.3903,
      "duration": 0.0161,
      "velocity": 101,
      "chip": "ym2612"
    },
    {
      "channel": 1,
      "note": 69,
      "start": 5.3949,
      "duration": 0.0141,
      "velocity": 101,
      "chip": "ym2612"
    },
    {
      "channel": 0,
      "note": 41,
      "start": 5.4041,
      "duration": 0.0161,
      "velocity": 115,
      "chip": "ym2612"
    },
    {
      "channel": 4,
      "note": 61,
      "start": 5.4052,
      "duration": 0.0161,
      "velocity": 101,
      "chip": "ym2612"
    },
    {
      "channel": 3,
      "note": 64,
      "start": 5.4064,
      "duration": 0.0161,
      "velocity": 101,
      "chip": "ym2612"
    },
    {
      "channel": 1,
      "note": 69,
      "start": 5.409,
      "duration": 0.0185,
      "velocity": 101,
      "chip": "ym2612"
    },
    {
      "channel": 0,
      "note": 41,
      "start": 5.4202,
      "duration": 0.0161,
      "velocity": 115,
      "chip": "ym2612"
    },
    {
      "channel": 4,
      "note": 61,
      "start": 5.4213,
      "duration": 0.0161,
      "velocity": 101,
      "chip": "ym2612"
    },
    {
      "channel": 3,
      "note": 64,
      "start": 5.4225,
      "duration": 0.0161,
      "velocity": 101,
      "chip": "ym2612"
    },
    {
      "channel": 1,
      "note": 69,
      "start": 5.4275,
      "duration": 0.0134,
      "velocity": 101,
      "chip": "ym2612"
    },
    {
      "channel": 0,
      "note": 42,
      "start": 5.4363,
      "duration": 0.0179,
      "velocity": 115,
      "chip": "ym2612"
    },
    {
      "channel": 4,
      "note": 61,
      "start": 5.4374,
      "duration": 0.0181,
      "velocity": 101,
      "chip": "ym2612"
    },
    {
      "channel": 3,
      "note": 64,
      "start": 5.4386,
      "duration": 0.0184,
      "velocity": 101,
      "chip": "ym2612"
    },
    {
      "channel": 1,
      "note": 69,
      "start": 5.4409,
      "duration": 0.0212,
      "velocity": 101,
      "chip": "ym2612"
    },
    {
      "channel": 0,
      "note": 36,
      "start": 5.4541,
      "duration": 0.0144,
      "velocity": 115,
      "chip": "ym2612"
    },
    {
      "channel": 4,
      "note": 54,
      "start": 5.4556,
      "duration": 0.0141,
      "velocity": 101,
      "chip": "ym2612"
    },
    {
      "channel": 3,
      "note": 57,
      "start": 5.457,
      "duration": 0.0139,
      "velocity": 101,
      "chip": "ym2612"
    },
    {
      "channel": 1,
      "note": 62,
      "start": 5.4621,
      "duration": 0.0113,
      "velocity": 101,
      "chip": "ym2612"
    },
    {
      "channel": 0,
      "note": 36,
      "start": 5.4685,
      "duration": 0.016,
      "velocity": 115,
      "chip": "ym2612"
    },
    {
      "channel": 4,
      "note": 54,
      "start": 5.4698,
      "duration": 0.016,
      "velocity": 101,
      "chip": "ym2612"
    },
    {
      "channel": 3,
      "note": 57,
      "start": 5.471,
      "duration": 0.016,
      "velocity": 101,
      "chip": "ym2612"
    },
    {
      "channel": 1,
      "note": 62,
      "start": 5.4734,
      "duration": 0.0158,
      "velocity": 101,
      "chip": "ym2612"
    },
    {
      "channel": 0,
      "note": 37,
      "start": 5.4846,
      "duration": 0.0161,
      "velocity": 115,
      "chip": "ym2612"
    },
    {
      "channel": 4,
      "note": 54,
      "start": 5.4858,
      "duration": 0.0161,
      "velocity": 101,
      "chip": "ym2612"
    },
    {
      "channel": 3,
      "note": 57,
      "start": 5.4869,
      "duration": 0.0161,
      "velocity": 101,
      "chip": "ym2612"
    },
    {
      "channel": 1,
      "note": 62,
      "start": 5.4891,
      "duration": 0.0161,
      "velocity": 101,
      "chip": "ym2612"
    },
    {
      "channel": 0,
      "note": 37,
      "start": 5.5007,
      "duration": 0.0161,
      "velocity": 115,
      "chip": "ym2612"
    },
    {
      "channel": 4,
      "note": 54,
      "start": 5.5019,
      "duration": 0.0161,
      "velocity": 101,
      "chip": "ym2612"
    },
    {
      "channel": 3,
      "note": 57,
      "start": 5.503,
      "duration": 0.0161,
      "velocity": 101,
      "chip": "ym2612"
    },
    {
      "channel": 1,
      "note": 62,
      "start": 5.5052,
      "duration": 0.0162,
      "velocity": 101,
      "chip": "ym2612"
    },
    {
      "channel": 0,
      "note": 38,
      "start": 5.5168,
      "duration": 0.0161,
      "velocity": 115,
      "chip": "ym2612"
    },
    {
      "channel": 4,
      "note": 54,
      "start": 5.518,
      "duration": 0.0161,
      "velocity": 101,
      "chip": "ym2612"
    },
    {
      "channel": 3,
      "note": 57,
      "start": 5.5191,
      "duration": 0.0161,
      "velocity": 101,
      "chip": "ym2612"
    },
    {
      "channel": 1,
      "note": 62,
      "start": 5.5214,
      "duration": 0.0161,
      "velocity": 101,
      "chip": "ym2612"
    },
    {
      "channel": 0,
      "note": 38,
      "start": 5.5329,
      "duration": 0.0161,
      "velocity": 115,
      "chip": "ym2612"
    },
    {
      "channel": 4,
      "note": 54,
      "start": 5.5341,
      "duration": 0.0161,
      "velocity": 101,
      "chip": "ym2612"
    },
    {
      "channel": 3,
      "note": 57,
      "start": 5.5352,
      "duration": 0.0161,
      "velocity": 101,
      "chip": "ym2612"
    },
    {
      "channel": 1,
      "note": 62,
      "start": 5.5375,
      "duration": 0.0161,
      "velocity": 101,
      "chip": "ym2612"
    },
    {
      "channel": 0,
      "note": 39,
      "start": 5.549,
      "duration": 0.0161,
      "velocity": 115,
      "chip": "ym2612"
    },
    {
      "channel": 4,
      "note": 54,
      "start": 5.5502,
      "duration": 0.0161,
      "velocity": 101,
      "chip": "ym2612"
    },
    {
      "channel": 3,
      "note": 57,
      "start": 5.5513,
      "duration": 0.0161,
      "velocity": 101,
      "chip": "ym2612"
    },
    {
      "channel": 1,
      "note": 62,
      "start": 5.5536,
      "duration": 0.0161,
      "velocity": 101,
      "chip": "ym2612"
    },
    {
      "channel": 0,
      "note": 39,
      "start": 5.5651,
      "duration": 0.0161,
      "velocity": 115,
      "chip": "ym2612"
    },
    {
      "channel": 4,
      "note": 54,
      "start": 5.5662,
      "duration": 0.0161,
      "velocity": 101,
      "chip": "ym2612"
    },
    {
      "channel": 3,
      "note": 57,
      "start": 5.5674,
      "duration": 0.0161,
      "velocity": 101,
      "chip": "ym2612"
    },
    {
      "channel": 1,
      "note": 62,
      "start": 5.5697,
      "duration": 0.0161,
      "velocity": 101,
      "chip": "ym2612"
    },
    {
      "channel": 0,
      "note": 40,
      "start": 5.5812,
      "duration": 0.0161,
      "velocity": 115,
      "chip": "ym2612"
    },
    {
      "channel": 4,
      "note": 54,
      "start": 5.5823,
      "duration": 0.0161,
      "velocity": 101,
      "chip": "ym2612"
    },
    {
      "channel": 3,
      "note": 57,
      "start": 5.5835,
      "duration": 0.0161,
      "velocity": 101,
      "chip": "ym2612"
    },
    {
      "channel": 1,
      "note": 62,
      "start": 5.5858,
      "duration": 0.0161,
      "velocity": 101,
      "chip": "ym2612"
    },
    {
      "channel": 0,
      "note": 40,
      "start": 5.5973,
      "duration": 0.0161,
      "velocity": 115,
      "chip": "ym2612"
    },
    {
      "channel": 4,
      "note": 54,
      "start": 5.5984,
      "duration": 0.0161,
      "velocity": 101,
      "chip": "ym2612"
    },
    {
      "channel": 3,
      "note": 57,
      "start": 5.5996,
      "duration": 0.0161,
      "velocity": 101,
      "chip": "ym2612"
    },
    {
      "channel": 1,
      "note": 62,
      "start": 5.6019,
      "duration": 0.0161,
      "velocity": 101,
      "chip": "ym2612"
    },
    {
      "channel": 0,
      "note": 40,
      "start": 5.6134,
      "duration": 0.0161,
      "velocity": 115,
      "chip": "ym2612"
    },
    {
      "channel": 4,
      "note": 54,
      "start": 5.6145,
      "duration": 0.0161,
      "velocity": 101,
      "chip": "ym2612"
    },
    {
      "channel": 3,
      "note": 57,
      "start": 5.6157,
      "duration": 0.0162,
      "velocity": 101,
      "chip": "ym2612"
    },
    {
      "channel": 1,
      "note": 62,
      "start": 5.618,
      "duration": 0.0161,
      "velocity": 101,
      "chip": "ym2612"
    },
    {
      "channel": 0,
      "note": 41,
      "start": 5.6295,
      "duration": 0.0163,
      "velocity": 115,
      "chip": "ym2612"
    },
    {
      "channel": 4,
      "note": 54,
      "start": 5.6307,
      "duration": 0.0163,
      "velocity": 101,
      "chip": "ym2612"
    },
    {
      "channel": 3,
      "note": 57,
      "start": 5.6318,
      "duration": 0.0163,
      "velocity": 101,
      "chip": "ym2612"
    },
    {
      "channel": 1,
      "note": 62,
      "start": 5.6341,
      "duration": 0.0163,
      "velocity": 101,
      "chip": "ym2612"
    },
    {
      "channel": 0,
      "note": 41,
      "start": 5.6458,
      "duration": 0.0163,
      "velocity": 115,
      "chip": "ym2612"
    },
    {
      "channel": 4,
      "note": 54,
      "start": 5.647,
      "duration": 0.0163,
      "velocity": 101,
      "chip": "ym2612"
    },
    {
      "channel": 3,
      "note": 57,
      "start": 5.6481,
      "duration": 0.0163,
      "velocity": 101,
      "chip": "ym2612"
    },
    {
      "channel": 1,
      "note": 62,
      "start": 5.6504,
      "duration": 0.0163,
      "velocity": 101,
      "chip": "ym2612"
    },
    {
      "channel": 0,
      "note": 42,
      "start": 5.6621,
      "duration": 0.0157,
      "velocity": 115,
      "chip": "ym2612"
    },
    {
      "channel": 4,
      "note": 54,
      "start": 5.6632,
      "duration": 0.0157,
      "velocity": 101,
      "chip": "ym2612"
    },
    {
      "channel": 3,
      "note": 57,
      "start": 5.6644,
      "duration": 0.0157,
      "velocity": 101,
      "chip": "ym2612"
    },
    {
      "channel": 1,
      "note": 62,
      "start": 5.6667,
      "duration": 0.0157,
      "velocity": 101,
      "chip": "ym2612"
    },
    {
      "channel": 0,
      "note": 42,
      "start": 5.6778,
      "duration": 0.018,
      "velocity": 115,
      "chip": "ym2612"
    },
    {
      "channel": 4,
      "note": 54,
      "start": 5.679,
      "duration": 0.018,
      "velocity": 101,
      "chip": "ym2612"
    },
    {
      "channel": 3,
      "note": 57,
      "start": 5.6801,
      "duration": 0.018,
      "velocity": 101,
      "chip": "ym2612"
    },
    {
      "channel": 1,
      "note": 62,
      "start": 5.6824,
      "duration": 0.018,
      "velocity": 101,
      "chip": "ym2612"
    },
    {
      "channel": 0,
      "note": 43,
      "start": 5.6958,
      "duration": 0.0167,
      "velocity": 115,
      "chip": "ym2612"
    },
    {
      "channel": 4,
      "note": 54,
      "start": 5.697,
      "duration": 0.0167,
      "velocity": 101,
      "chip": "ym2612"
    },
    {
      "channel": 3,
      "note": 57,
      "start": 5.6981,
      "duration": 0.0167,
      "velocity": 101,
      "chip": "ym2612"
    },
    {
      "channel": 1,
      "note": 62,
      "start": 5.7004,
      "duration": 0.0167,
      "velocity": 101,
      "chip": "ym2612"
    },
    {
      "channel": 0,
      "note": 43,
      "start": 5.7125,
      "duration": 0.016,
      "velocity": 115,
      "chip": "ym2612"
    },
    {
      "channel": 4,
      "note": 54,
      "start": 5.7136,
      "duration": 0.016,
      "velocity": 101,
      "chip": "ym2612"
    },
    {
      "channel": 3,
      "note": 57,
      "start": 5.7148,
      "duration": 0.016,
      "velocity": 101,
      "chip": "ym2612"
    },
    {
      "channel": 1,
      "note": 62,
      "start": 5.7171,
      "duration": 0.016,
      "velocity": 101,
      "chip": "ym2612"
    },
    {
      "channel": 0,
      "note": 44,
      "start": 5.7285,
      "duration": 0.0141,
      "velocity": 115,
      "chip": "ym2612"
    },
    {
      "channel": 4,
      "note": 54,
      "start": 5.7297,
      "duration": 0.014,
      "velocity": 101,
      "chip": "ym2612"
    },
    {
      "channel": 3,
      "note": 57,
      "start": 5.7308,
      "duration": 0.014,
      "velocity": 101,
      "chip": "ym2612"
    },
    {
      "channel": 1,
      "note": 62,
      "start": 5.7331,
      "duration": 0.014,
      "velocity": 101,
      "chip": "ym2612"
    },
    {
      "channel": 0,
      "note": 44,
      "start": 5.7425,
      "duration": 0.0185,
      "velocity": 115,
      "chip": "ym2612"
    },
    {
      "channel": 4,
      "note": 54,
      "start": 5.7437,
      "duration": 0.0186,
      "velocity": 101,
      "chip": "ym2612"
    },
    {
      "channel": 3,
      "note": 57,
      "start": 5.7448,
      "duration": 0.0186,
      "velocity": 101,
      "chip": "ym2612"
    },
    {
      "channel": 1,
      "note": 62,
      "start": 5.7471,
      "duration": 0.0186,
      "velocity": 101,
      "chip": "ym2612"
    },
    {
      "channel": 0,
      "note": 44,
      "start": 5.761,
      "duration": 0.0134,
      "velocity": 115,
      "chip": "ym2612"
    },
    {
      "channel": 4,
      "note": 54,
      "start": 5.7622,
      "duration": 0.0161,
      "velocity": 101,
      "chip": "ym2612"
    },
    {
      "channel": 3,
      "note": 57,
      "start": 5.7634,
      "duration": 0.0161,
      "velocity": 101,
      "chip": "ym2612"
    },
    {
      "channel": 1,
      "note": 62,
      "start": 5.7657,
      "duration": 0.016,
      "velocity": 101,
      "chip": "ym2612"
    },
    {
      "channel": 0,
      "note": 45,
      "start": 5.7744,
      "duration": 0.0161,
      "velocity": 115,
      "chip": "ym2612"
    },
    {
      "channel": 4,
      "note": 54,
      "start": 5.7783,
      "duration": 0.0157,
      "velocity": 101,
      "chip": "ym2612"
    },
    {
      "channel": 3,
      "note": 57,
      "start": 5.7795,
      "duration": 0.0157,
      "velocity": 101,
      "chip": "ym2612"
    },
    {
      "channel": 1,
      "note": 62,
      "start": 5.7817,
      "duration": 0.0158,
      "velocity": 101,
      "chip": "ym2612"
    },
    {
      "channel": 0,
      "note": 45,
      "start": 5.7905,
      "duration": 0.0161,
      "velocity": 115,
      "chip": "ym2612"
    },
    {
      "channel": 4,
      "note": 54,
      "start": 5.794,
      "duration": 0.0139,
      "velocity": 101,
      "chip": "ym2612"
    },
    {
      "channel": 3,
      "note": 57,
      "start": 5.7952,
      "duration": 0.0141,
      "velocity": 101,
      "chip": "ym2612"
    },
    {
      "channel": 1,
      "note": 62,
      "start": 5.7975,
      "duration": 0.0141,
      "velocity": 101,
      "chip": "ym2612"
    },
    {
      "channel": 0,
      "note": 46,
      "start": 5.8066,
      "duration": 0.0161,
      "velocity": 115,
      "chip": "ym2612"
    },
    {
      "channel": 4,
      "note": 54,
      "start": 5.8079,
      "duration": 0.016,
      "velocity": 101,
      "chip": "ym2612"
    },
    {
      "channel": 3,
      "note": 57,
      "start": 5.8093,
      "duration": 0.0185,
      "velocity": 101,
      "chip": "ym2612"
    },
    {
      "channel": 1,
      "note": 62,
      "start": 5.8115,
      "duration": 0.0185,
      "velocity": 101,
      "chip": "ym2612"
    },
    {
      "channel": 0,
      "note": 46,
      "start": 5.8227,
      "duration": 0.0161,
      "velocity": 115,
      "chip": "ym2612"
    },
    {
      "channel": 4,
      "note": 54,
      "start": 5.8239,
      "duration": 0.0161,
      "velocity": 101,
      "chip": "ym2612"
    },
    {
      "channel": 3,
      "note": 57,
      "start": 5.8278,
      "duration": 0.0161,
      "velocity": 101,
      "chip": "ym2612"
    },
    {
      "channel": 1,
      "note": 62,
      "start": 5.83,
      "duration": 0.0161,
      "velocity": 101,
      "chip": "ym2612"
    },
    {
      "channel": 0,
      "note": 47,
      "start": 5.8388,
      "duration": 0.0161,
      "velocity": 115,
      "chip": "ym2612"
    },
    {
      "channel": 4,
      "note": 54,
      "start": 5.84,
      "duration": 0.0161,
      "velocity": 101,
      "chip": "ym2612"
    },
    {
      "channel": 3,
      "note": 57,
      "start": 5.8439,
      "duration": 0.0134,
      "velocity": 101,
      "chip": "ym2612"
    },
    {
      "channel": 1,
      "note": 62,
      "start": 5.8461,
      "duration": 0.0158,
      "velocity": 101,
      "chip": "ym2612"
    },
    {
      "channel": 0,
      "note": 47,
      "start": 5.8549,
      "duration": 0.0161,
      "velocity": 115,
      "chip": "ym2612"
    },
    {
      "channel": 4,
      "note": 54,
      "start": 5.8561,
      "duration": 0.0161,
      "velocity": 101,
      "chip": "ym2612"
    },
    {
      "channel": 3,
      "note": 57,
      "start": 5.8572,
      "duration": 0.0161,
      "velocity": 101,
      "chip": "ym2612"
    },
    {
      "channel": 1,
      "note": 62,
      "start": 5.8619,
      "duration": 0.014,
      "velocity": 101,
      "chip": "ym2612"
    },
    {
      "channel": 0,
      "note": 47,
      "start": 5.871,
      "duration": 0.0161,
      "velocity": 115,
      "chip": "ym2612"
    },
    {
      "channel": 4,
      "note": 54,
      "start": 5.8722,
      "duration": 0.0161,
      "velocity": 101,
      "chip": "ym2612"
    },
    {
      "channel": 3,
      "note": 57,
      "start": 5.8733,
      "duration": 0.0161,
      "velocity": 101,
      "chip": "ym2612"
    },
    {
      "channel": 1,
      "note": 62,
      "start": 5.8759,
      "duration": 0.0185,
      "velocity": 101,
      "chip": "ym2612"
    },
    {
      "channel": 0,
      "note": 48,
      "start": 5.8871,
      "duration": 0.0179,
      "velocity": 124,
      "chip": "ym2612"
    },
    {
      "channel": 4,
      "note": 54,
      "start": 5.8883,
      "duration": 0.0179,
      "velocity": 101,
      "chip": "ym2612"
    },
    {
      "channel": 3,
      "note": 57,
      "start": 5.8894,
      "duration": 0.018,
      "velocity": 101,
      "chip": "ym2612"
    },
    {
      "channel": 1,
      "note": 62,
      "start": 5.8944,
      "duration": 0.0179,
      "velocity": 101,
      "chip": "ym2612"
    },
    {
      "channel": 0,
      "note": 84,
      "start": 5.905,
      "duration": 0.0144,
      "velocity": 124,
      "chip": "ym2612"
    },
    {
      "channel": 4,
      "note": 54,
      "start": 5.9062,
      "duration": 0.0144,
      "velocity": 101,
      "chip": "ym2612"
    },
    {
      "channel": 3,
      "note": 57,
      "start": 5.9073,
      "duration": 0.0144,
      "velocity": 101,
      "chip": "ym2612"
    },
    {
      "channel": 1,
      "note": 62,
      "start": 5.9124,
      "duration": 0.0116,
      "velocity": 101,
      "chip": "ym2612"
    },
    {
      "channel": 0,
      "note": 82,
      "start": 5.9194,
      "duration": 0.016,
      "velocity": 124,
      "chip": "ym2612"
    },
    {
      "channel": 4,
      "note": 54,
      "start": 5.9206,
      "duration": 0.016,
      "velocity": 101,
      "chip": "ym2612"
    },
    {
      "channel": 3,
      "note": 57,
      "start": 5.9217,
      "duration": 0.016,
      "velocity": 101,
      "chip": "ym2612"
    },
    {
      "channel": 1,
      "note": 62,
      "start": 5.9239,
      "duration": 0.016,
      "velocity": 101,
      "chip": "ym2612"
    },
    {
      "channel": 0,
      "note": 80,
      "start": 5.9354,
      "duration": 0.0161,
      "velocity": 124,
      "chip": "ym2612"
    },
    {
      "channel": 4,
      "note": 54,
      "start": 5.9366,
      "duration": 0.0161,
      "velocity": 101,
      "chip": "ym2612"
    },
    {
      "channel": 3,
      "note": 57,
      "start": 5.9378,
      "duration": 0.0161,
      "velocity": 101,
      "chip": "ym2612"
    },
    {
      "channel": 1,
      "note": 62,
      "start": 5.94,
      "duration": 0.0161,
      "velocity": 101,
      "chip": "ym2612"
    },
    {
      "channel": 0,
      "note": 77,
      "start": 5.9515,
      "duration": 0.0162,
      "velocity": 124,
      "chip": "ym2612"
    },
    {
      "channel": 4,
      "note": 54,
      "start": 5.9527,
      "duration": 0.0161,
      "velocity": 101,
      "chip": "ym2612"
    },
    {
      "channel": 3,
      "note": 57,
      "start": 5.9538,
      "duration": 0.0161,
      "velocity": 101,
      "chip": "ym2612"
    },
    {
      "channel": 1,
      "note": 62,
      "start": 5.9561,
      "duration": 0.0161,
      "velocity": 101,
      "chip": "ym2612"
    },
    {
      "channel": 0,
      "note": 75,
      "start": 5.9676,
      "duration": 0.0161,
      "velocity": 124,
      "chip": "ym2612"
    },
    {
      "channel": 4,
      "note": 54,
      "start": 5.9688,
      "duration": 0.0161,
      "velocity": 101,
      "chip": "ym2612"
    },
    {
      "channel": 3,
      "note": 57,
      "start": 5.9699,
      "duration": 0.0161,
      "velocity": 101,
      "chip": "ym2612"
    },
    {
      "channel": 1,
      "note": 62,
      "start": 5.9722,
      "duration": 0.0161,
      "velocity": 101,
      "chip": "ym2612"
    },
    {
      "channel": 0,
      "note": 72,
      "start": 5.9837,
      "duration": 0.0161,
      "velocity": 124,
      "chip": "ym2612"
    },
    {
      "channel": 4,
      "note": 54,
      "start": 5.9849,
      "duration": 0.0161,
      "velocity": 101,
      "chip": "ym2612"
    },
    {
      "channel": 3,
      "note": 57,
      "start": 5.986,
      "duration": 0.0161,
      "velocity": 101,
      "chip": "ym2612"
    },
    {
      "channel": 1,
      "note": 62,
      "start": 5.9883,
      "duration": 0.0161,
      "velocity": 101,
      "chip": "ym2612"
    },
    {
      "channel": 0,
      "note": 70,
      "start": 5.9998,
      "duration": 0.0161,
      "velocity": 124,
      "chip": "ym2612"
    },
    {
      "channel": 4,
      "note": 54,
      "start": 6.001,
      "duration": 0.0161,
      "velocity": 101,
      "chip": "ym2612"
    },
    {
      "channel": 3,
      "note": 57,
      "start": 6.0021,
      "duration": 0.0161,
      "velocity": 101,
      "chip": "ym2612"
    },
    {
      "channel": 1,
      "note": 62,
      "start": 6.0044,
      "duration": 0.0161,
      "velocity": 101,
      "chip": "ym2612"
    },
    {
      "channel": 0,
      "note": 68,
      "start": 6.0159,
      "duration": 0.0161,
      "velocity": 124,
      "chip": "ym2612"
    },
    {
      "channel": 4,
      "note": 54,
      "start": 6.0171,
      "duration": 0.0161,
      "velocity": 101,
      "chip": "ym2612"
    },
    {
      "channel": 3,
      "note": 57,
      "start": 6.0182,
      "duration": 0.0161,
      "velocity": 101,
      "chip": "ym2612"
    },
    {
      "channel": 1,
      "note": 62,
      "start": 6.0205,
      "duration": 0.0161,
      "velocity": 101,
      "chip": "ym2612"
    },
    {
      "channel": 0,
      "note": 65,
      "start": 6.032,
      "duration": 0.0161,
      "velocity": 124,
      "chip": "ym2612"
    },
    {
      "channel": 4,
      "note": 54,
      "start": 6.0332,
      "duration": 0.0161,
      "velocity": 101,
      "chip": "ym2612"
    },
    {
      "channel": 3,
      "note": 57,
      "start": 6.0343,
      "duration": 0.0162,
      "velocity": 101,
      "chip": "ym2612"
    },
    {
      "channel": 1,
      "note": 62,
      "start": 6.0366,
      "duration": 0.0161,
      "velocity": 101,
      "chip": "ym2612"
    },
    {
      "channel": 0,
      "note": 63,
      "start": 6.0481,
      "duration": 0.0153,
      "velocity": 1,
      "chip": "ym2612"
    },
    {
      "channel": 4,
      "note": 54,
      "start": 6.0493,
      "duration": 0.0153,
      "velocity": 101,
      "chip": "ym2612"
    },
    {
      "channel": 3,
      "note": 57,
      "start": 6.0505,
      "duration": 0.0153,
      "velocity": 101,
      "chip": "ym2612"
    },
    {
      "channel": 1,
      "note": 62,
      "start": 6.0527,
      "duration": 0.0153,
      "velocity": 101,
      "chip": "ym2612"
    },
    {
      "channel": 4,
      "note": 54,
      "start": 6.0646,
      "duration": 0.0153,
      "velocity": 101,
      "chip": "ym2612"
    },
    {
      "channel": 3,
      "note": 57,
      "start": 6.0657,
      "duration": 0.0153,
      "velocity": 101,
      "chip": "ym2612"
    },
    {
      "channel": 1,
      "note": 62,
      "start": 6.068,
      "duration": 0.0153,
      "velocity": 101,
      "chip": "ym2612"
    },
    {
      "channel": 4,
      "note": 54,
      "start": 6.0799,
      "duration": 0.0161,
      "velocity": 101,
      "chip": "ym2612"
    },
    {
      "channel": 3,
      "note": 57,
      "start": 6.081,
      "duration": 0.0161,
      "velocity": 101,
      "chip": "ym2612"
    },
    {
      "channel": 1,
      "note": 62,
      "start": 6.0833,
      "duration": 0.0161,
      "velocity": 101,
      "chip": "ym2612"
    },
    {
      "channel": 4,
      "note": 54,
      "start": 6.0959,
      "duration": 0.0161,
      "velocity": 101,
      "chip": "ym2612"
    },
    {
      "channel": 3,
      "note": 57,
      "start": 6.0971,
      "duration": 0.0161,
      "velocity": 101,
      "chip": "ym2612"
    },
    {
      "channel": 1,
      "note": 62,
      "start": 6.0994,
      "duration": 0.0161,
      "velocity": 101,
      "chip": "ym2612"
    },
    {
      "channel": 4,
      "note": 54,
      "start": 6.112,
      "duration": 0.0162,
      "velocity": 101,
      "chip": "ym2612"
    },
    {
      "channel": 3,
      "note": 57,
      "start": 6.1132,
      "duration": 0.0162,
      "velocity": 101,
      "chip": "ym2612"
    },
    {
      "channel": 1,
      "note": 62,
      "start": 6.1155,
      "duration": 0.0162,
      "velocity": 101,
      "chip": "ym2612"
    },
    {
      "channel": 4,
      "note": 54,
      "start": 6.1283,
      "duration": 0.016,
      "velocity": 101,
      "chip": "ym2612"
    },
    {
      "channel": 3,
      "note": 57,
      "start": 6.1294,
      "duration": 0.016,
      "velocity": 101,
      "chip": "ym2612"
    },
    {
      "channel": 1,
      "note": 62,
      "start": 6.1317,
      "duration": 0.016,
      "velocity": 101,
      "chip": "ym2612"
    },
    {
      "channel": 4,
      "note": 54,
      "start": 6.1442,
      "duration": 0.0177,
      "velocity": 101,
      "chip": "ym2612"
    },
    {
      "channel": 3,
      "note": 57,
      "start": 6.1454,
      "duration": 0.0178,
      "velocity": 101,
      "chip": "ym2612"
    },
    {
      "channel": 1,
      "note": 62,
      "start": 6.1477,
      "duration": 0.0178,
      "velocity": 101,
      "chip": "ym2612"
    },
    {
      "channel": 4,
      "note": 54,
      "start": 6.162,
      "duration": 0.0167,
      "velocity": 101,
      "chip": "ym2612"
    },
    {
      "channel": 3,
      "note": 57,
      "start": 6.1631,
      "duration": 0.0167,
      "velocity": 101,
      "chip": "ym2612"
    },
    {
      "channel": 1,
      "note": 62,
      "start": 6.1654,
      "duration": 0.0167,
      "velocity": 101,
      "chip": "ym2612"
    },
    {
      "channel": 4,
      "note": 54,
      "start": 6.1786,
      "duration": 0.0163,
      "velocity": 101,
      "chip": "ym2612"
    },
    {
      "channel": 3,
      "note": 57,
      "start": 6.1798,
      "duration": 0.0163,
      "velocity": 101,
      "chip": "ym2612"
    },
    {
      "channel": 1,
      "note": 62,
      "start": 6.1821,
      "duration": 0.0163,
      "velocity": 101,
      "chip": "ym2612"
    },
    {
      "channel": 4,
      "note": 54,
      "start": 6.1949,
      "duration": 0.0141,
      "velocity": 101,
      "chip": "ym2612"
    },
    {
      "channel": 3,
      "note": 57,
      "start": 6.1961,
      "duration": 0.0141,
      "velocity": 101,
      "chip": "ym2612"
    },
    {
      "channel": 1,
      "note": 62,
      "start": 6.1984,
      "duration": 0.0141,
      "velocity": 101,
      "chip": "ym2612"
    },
    {
      "channel": 4,
      "note": 54,
      "start": 6.209,
      "duration": 0.0185,
      "velocity": 101,
      "chip": "ym2612"
    },
    {
      "channel": 3,
      "note": 57,
      "start": 6.2101,
      "duration": 0.0185,
      "velocity": 101,
      "chip": "ym2612"
    },
    {
      "channel": 1,
      "note": 62,
      "start": 6.2124,
      "duration": 0.0185,
      "velocity": 101,
      "chip": "ym2612"
    },
    {
      "channel": 4,
      "note": 54,
      "start": 6.2275,
      "duration": 0.0134,
      "velocity": 101,
      "chip": "ym2612"
    },
    {
      "channel": 3,
      "note": 57,
      "start": 6.2286,
      "duration": 0.0161,
      "velocity": 101,
      "chip": "ym2612"
    },
    {
      "channel": 1,
      "note": 62,
      "start": 6.2309,
      "duration": 0.0161,
      "velocity": 101,
      "chip": "ym2612"
    },
    {
      "channel": 4,
      "note": 54,
      "start": 6.2409,
      "duration": 0.0161,
      "velocity": 101,
      "chip": "ym2612"
    },
    {
      "channel": 3,
      "note": 57,
      "start": 6.2447,
      "duration": 0.0158,
      "velocity": 101,
      "chip": "ym2612"
    },
    {
      "channel": 1,
      "note": 62,
      "start": 6.247,
      "duration": 0.0157,
      "velocity": 101,
      "chip": "ym2612"
    },
    {
      "channel": 4,
      "note": 54,
      "start": 6.257,
      "duration": 0.0161,
      "velocity": 101,
      "chip": "ym2612"
    },
    {
      "channel": 3,
      "note": 57,
      "start": 6.2605,
      "duration": 0.0137,
      "velocity": 101,
      "chip": "ym2612"
    },
    {
      "channel": 1,
      "note": 62,
      "start": 6.2627,
      "duration": 0.0141,
      "velocity": 101,
      "chip": "ym2612"
    },
    {
      "channel": 4,
      "note": 54,
      "start": 6.2731,
      "duration": 0.0161,
      "velocity": 101,
      "chip": "ym2612"
    },
    {
      "channel": 3,
      "note": 57,
      "start": 6.2742,
      "duration": 0.0161,
      "velocity": 101,
      "chip": "ym2612"
    },
    {
      "channel": 1,
      "note": 62,
      "start": 6.2768,
      "duration": 0.0185,
      "velocity": 101,
      "chip": "ym2612"
    },
    {
      "channel": 4,
      "note": 54,
      "start": 6.2891,
      "duration": 0.0161,
      "velocity": 101,
      "chip": "ym2612"
    },
    {
      "channel": 3,
      "note": 57,
      "start": 6.2903,
      "duration": 0.0161,
      "velocity": 101,
      "chip": "ym2612"
    },
    {
      "channel": 1,
      "note": 62,
      "start": 6.2953,
      "duration": 0.0161,
      "velocity": 101,
      "chip": "ym2612"
    },
    {
      "channel": 4,
      "note": 54,
      "start": 6.3052,
      "duration": 0.0161,
      "velocity": 101,
      "chip": "ym2612"
    },
    {
      "channel": 3,
      "note": 57,
      "start": 6.3064,
      "duration": 0.0161,
      "velocity": 101,
      "chip": "ym2612"
    },
    {
      "channel": 1,
      "note": 62,
      "start": 6.3114,
      "duration": 0.0158,
      "velocity": 101,
      "chip": "ym2612"
    },
    {
      "channel": 4,
      "note": 54,
      "start": 6.3213,
      "duration": 0.0161,
      "velocity": 101,
      "chip": "ym2612"
    },
    {
      "channel": 3,
      "note": 57,
      "start": 6.3225,
      "duration": 0.0162,
      "velocity": 101,
      "chip": "ym2612"
    },
    {
      "channel": 1,
      "note": 62,
      "start": 6.3272,
      "duration": 0.0137,
      "velocity": 101,
      "chip": "ym2612"
    },
    {
      "channel": 4,
      "note": 54,
      "start": 6.3375,
      "duration": 0.0163,
      "velocity": 101,
      "chip": "ym2612"
    },
    {
      "channel": 3,
      "note": 57,
      "start": 6.3386,
      "duration": 0.0165,
      "velocity": 101,
      "chip": "ym2612"
    },
    {
      "channel": 1,
      "note": 62,
      "start": 6.3409,
      "duration": 0.0168,
      "velocity": 101,
      "chip": "ym2612"
    },
    {
      "channel": 4,
      "note": 56,
      "start": 6.3538,
      "duration": 0.0159,
      "velocity": 101,
      "chip": "ym2612"
    },
    {
      "channel": 3,
      "note": 59,
      "start": 6.3552,
      "duration": 0.0156,
      "velocity": 101,
      "chip": "ym2612"
    },
    {
      "channel": 1,
      "note": 64,
      "start": 6.3605,
      "duration": 0.0127,
      "velocity": 101,
      "chip": "ym2612"
    },
    {
      "channel": 4,
      "note": 56,
      "start": 6.3698,
      "duration": 0.016,
      "velocity": 101,
      "chip": "ym2612"
    },
    {
      "channel": 3,
      "note": 59,
      "start": 6.3709,
      "duration": 0.016,
      "velocity": 101,
      "chip": "ym2612"
    },
    {
      "channel": 1,
      "note": 64,
      "start": 6.3732,
      "duration": 0.016,
      "velocity": 101,
      "chip": "ym2612"
    },
    {
      "channel": 4,
      "note": 56,
      "start": 6.3858,
      "duration": 0.0161,
      "velocity": 101,
      "chip": "ym2612"
    },
    {
      "channel": 3,
      "note": 59,
      "start": 6.3869,
      "duration": 0.0161,
      "velocity": 101,
      "chip": "ym2612"
    },
    {
      "channel": 1,
      "note": 64,
      "start": 6.3892,
      "duration": 0.0161,
      "velocity": 101,
      "chip": "ym2612"
    },
    {
      "channel": 4,
      "note": 56,
      "start": 6.4019,
      "duration": 0.0161,
      "velocity": 101,
      "chip": "ym2612"
    },
    {
      "channel": 3,
      "note": 59,
      "start": 6.403,
      "duration": 0.0161,
      "velocity": 101,
      "chip": "ym2612"
    },
    {
      "channel": 1,
      "note": 64,
      "start": 6.4053,
      "duration": 0.0161,
      "velocity": 101,
      "chip": "ym2612"
    },
    {
      "channel": 4,
      "note": 56,
      "start": 6.418,
      "duration": 0.0161,
      "velocity": 101,
      "chip": "ym2612"
    },
    {
      "channel": 3,
      "note": 59,
      "start": 6.4191,
      "duration": 0.0161,
      "velocity": 101,
      "chip": "ym2612"
    },
    {
      "channel": 1,
      "note": 64,
      "start": 6.4214,
      "duration": 0.0161,
      "velocity": 101,
      "chip": "ym2612"
    },
    {
      "channel": 4,
      "note": 56,
      "start": 6.4341,
      "duration": 0.0161,
      "velocity": 101,
      "chip": "ym2612"
    },
    {
      "channel": 3,
      "note": 59,
      "start": 6.4352,
      "duration": 0.0161,
      "velocity": 101,
      "chip": "ym2612"
    },
    {
      "channel": 1,
      "note": 64,
      "start": 6.4375,
      "duration": 0.0161,
      "velocity": 101,
      "chip": "ym2612"
    },
    {
      "channel": 4,
      "note": 56,
      "start": 6.4502,
      "duration": 0.0161,
      "velocity": 101,
      "chip": "ym2612"
    },
    {
      "channel": 3,
      "note": 59,
      "start": 6.4513,
      "duration": 0.0161,
      "velocity": 101,
      "chip": "ym2612"
    },
    {
      "channel": 1,
      "note": 64,
      "start": 6.4536,
      "duration": 0.0161,
      "velocity": 101,
      "chip": "ym2612"
    },
    {
      "channel": 4,
      "note": 56,
      "start": 6.4662,
      "duration": 0.0162,
      "velocity": 101,
      "chip": "ym2612"
    },
    {
      "channel": 3,
      "note": 59,
      "start": 6.4674,
      "duration": 0.0161,
      "velocity": 101,
      "chip": "ym2612"
    },
    {
      "channel": 1,
      "note": 64,
      "start": 6.4697,
      "duration": 0.0161,
      "velocity": 101,
      "chip": "ym2612"
    },
    {
      "channel": 4,
      "note": 56,
      "start": 6.4824,
      "duration": 0.0161,
      "velocity": 101,
      "chip": "ym2612"
    },
    {
      "channel": 3,
      "note": 59,
      "start": 6.4835,
      "duration": 0.0161,
      "velocity": 101,
      "chip": "ym2612"
    },
    {
      "channel": 1,
      "note": 64,
      "start": 6.4858,
      "duration": 0.0161,
      "velocity": 101,
      "chip": "ym2612"
    },
    {
      "channel": 4,
      "note": 56,
      "start": 6.4985,
      "duration": 0.0161,
      "velocity": 101,
      "chip": "ym2612"
    },
    {
      "channel": 3,
      "note": 59,
      "start": 6.4996,
      "duration": 0.0161,
      "velocity": 101,
      "chip": "ym2612"
    },
    {
      "channel": 1,
      "note": 64,
      "start": 6.5019,
      "duration": 0.0161,
      "velocity": 101,
      "chip": "ym2612"
    },
    {
      "channel": 4,
      "note": 56,
      "start": 6.5146,
      "duration": 0.0161,
      "velocity": 101,
      "chip": "ym2612"
    },
    {
      "channel": 3,
      "note": 59,
      "start": 6.5157,
      "duration": 0.0161,
      "velocity": 101,
      "chip": "ym2612"
    },
    {
      "channel": 1,
      "note": 64,
      "start": 6.518,
      "duration": 0.0162,
      "velocity": 101,
      "chip": "ym2612"
    },
    {
      "channel": 4,
      "note": 56,
      "start": 6.5307,
      "duration": 0.0161,
      "velocity": 101,
      "chip": "ym2612"
    },
    {
      "channel": 3,
      "note": 59,
      "start": 6.5318,
      "duration": 0.0161,
      "velocity": 101,
      "chip": "ym2612"
    },
    {
      "channel": 1,
      "note": 64,
      "start": 6.5341,
      "duration": 0.0161,
      "velocity": 101,
      "chip": "ym2612"
    },
    {
      "channel": 4,
      "note": 56,
      "start": 6.5468,
      "duration": 0.0161,
      "velocity": 101,
      "chip": "ym2612"
    },
    {
      "channel": 3,
      "note": 59,
      "start": 6.5479,
      "duration": 0.0161,
      "velocity": 101,
      "chip": "ym2612"
    },
    {
      "channel": 1,
      "note": 64,
      "start": 6.5502,
      "duration": 0.0161,
      "velocity": 101,
      "chip": "ym2612"
    },
    {
      "channel": 4,
      "note": 56,
      "start": 6.5629,
      "duration": 0.0195,
      "velocity": 101,
      "chip": "ym2612"
    },
    {
      "channel": 3,
      "note": 59,
      "start": 6.564,
      "duration": 0.0195,
      "velocity": 101,
      "chip": "ym2612"
    },
    {
      "channel": 1,
      "note": 64,
      "start": 6.5663,
      "duration": 0.0195,
      "velocity": 101,
      "chip": "ym2612"
    },
    {
      "channel": 0,
      "note": 36,
      "start": 6.5812,
      "duration": 0.0144,
      "velocity": 115,
      "chip": "ym2612"
    },
    {
      "channel": 4,
      "note": 56,
      "start": 6.5824,
      "duration": 0.0144,
      "velocity": 101,
      "chip": "ym2612"
    },
    {
      "channel": 3,
      "note": 59,
      "start": 6.5835,
      "duration": 0.0144,
      "velocity": 101,
      "chip": "ym2612"
    },
    {
      "channel": 1,
      "note": 64,
      "start": 6.5858,
      "duration": 0.0144,
      "velocity": 101,
      "chip": "ym2612"
    },
    {
      "channel": 0,
      "note": 36,
      "start": 6.5956,
      "duration": 0.016,
      "velocity": 115,
      "chip": "ym2612"
    },
    {
      "channel": 4,
      "note": 56,
      "start": 6.5968,
      "duration": 0.016,
      "velocity": 101,
      "chip": "ym2612"
    },
    {
      "channel": 3,
      "note": 59,
      "start": 6.5979,
      "duration": 0.016,
      "velocity": 101,
      "chip": "ym2612"
    },
    {
      "channel": 1,
      "note": 64,
      "start": 6.6002,
      "duration": 0.016,
      "velocity": 101,
      "chip": "ym2612"
    },
    {
      "channel": 0,
      "note": 37,
      "start": 6.6117,
      "duration": 0.0175,
      "velocity": 115,
      "chip": "ym2612"
    },
    {
      "channel": 4,
      "note": 56,
      "start": 6.6128,
      "duration": 0.0175,
      "velocity": 101,
      "chip": "ym2612"
    },
    {
      "channel": 3,
      "note": 59,
      "start": 6.6139,
      "duration": 0.0175,
      "velocity": 101,
      "chip": "ym2612"
    },
    {
      "channel": 1,
      "note": 64,
      "start": 6.6162,
      "duration": 0.0175,
      "velocity": 101,
      "chip": "ym2612"
    },
    {
      "channel": 0,
      "note": 37,
      "start": 6.6292,
      "duration": 0.0167,
      "velocity": 115,
      "chip": "ym2612"
    },
    {
      "channel": 4,
      "note": 56,
      "start": 6.6303,
      "duration": 0.0167,
      "velocity": 101,
      "chip": "ym2612"
    },
    {
      "channel": 3,
      "note": 59,
      "start": 6.6315,
      "duration": 0.0167,
      "velocity": 101,
      "chip": "ym2612"
    },
    {
      "channel": 1,
      "note": 64,
      "start": 6.6337,
      "duration": 0.0167,
      "velocity": 101,
      "chip": "ym2612"
    },
    {
      "channel": 0,
      "note": 38,
      "start": 6.6458,
      "duration": 0.0163,
      "velocity": 115,
      "chip": "ym2612"
    },
    {
      "channel": 4,
      "note": 56,
      "start": 6.647,
      "duration": 0.0163,
      "velocity": 101,
      "chip": "ym2612"
    },
    {
      "channel": 3,
      "note": 59,
      "start": 6.6481,
      "duration": 0.0163,
      "velocity": 101,
      "chip": "ym2612"
    },
    {
      "channel": 1,
      "note": 64,
      "start": 6.6504,
      "duration": 0.0163,
      "velocity": 101,
      "chip": "ym2612"
    },
    {
      "channel": 0,
      "note": 38,
      "start": 6.6621,
      "duration": 0.0142,
      "velocity": 115,
      "chip": "ym2612"
    },
    {
      "channel": 4,
      "note": 56,
      "start": 6.6632,
      "duration": 0.0143,
      "velocity": 101,
      "chip": "ym2612"
    },
    {
      "channel": 3,
      "note": 59,
      "start": 6.6644,
      "duration": 0.0143,
      "velocity": 101,
      "chip": "ym2612"
    },
    {
      "channel": 1,
      "note": 64,
      "start": 6.6667,
      "duration": 0.0142,
      "velocity": 101,
      "chip": "ym2612"
    },
    {
      "channel": 0,
      "note": 39,
      "start": 6.6763,
      "duration": 0.0186,
      "velocity": 115,
      "chip": "ym2612"
    },
    {
      "channel": 4,
      "note": 56,
      "start": 6.6776,
      "duration": 0.0185,
      "velocity": 101,
      "chip": "ym2612"
    },
    {
      "channel": 3,
      "note": 59,
      "start": 6.6787,
      "duration": 0.0185,
      "velocity": 101,
      "chip": "ym2612"
    },
    {
      "channel": 1,
      "note": 64,
      "start": 6.6809,
      "duration": 0.0186,
      "velocity": 101,
      "chip": "ym2612"
    },
    {
      "channel": 0,
      "note": 39,
      "start": 6.6949,
      "duration": 0.0161,
      "velocity": 115,
      "chip": "ym2612"
    },
    {
      "channel": 4,
      "note": 56,
      "start": 6.6961,
      "duration": 0.0161,
      "velocity": 101,
      "chip": "ym2612"
    },
    {
      "channel": 3,
      "note": 59,
      "start": 6.6972,
      "duration": 0.0161,
      "velocity": 101,
      "chip": "ym2612"
    },
    {
      "channel": 1,
      "note": 64,
      "start": 6.6995,
      "duration": 0.0161,
      "velocity": 101,
      "chip": "ym2612"
    },
    {
      "channel": 0,
      "note": 40,
      "start": 6.711,
      "duration": 0.0134,
      "velocity": 115,
      "chip": "ym2612"
    },
    {
      "channel": 4,
      "note": 56,
      "start": 6.7122,
      "duration": 0.0158,
      "velocity": 101,
      "chip": "ym2612"
    },
    {
      "channel": 3,
      "note": 59,
      "start": 6.7133,
      "duration": 0.0158,
      "velocity": 101,
      "chip": "ym2612"
    },
    {
      "channel": 1,
      "note": 64,
      "start": 6.7156,
      "duration": 0.0157,
      "velocity": 101,
      "chip": "ym2612"
    },
    {
      "channel": 0,
      "note": 40,
      "start": 6.7244,
      "duration": 0.0161,
      "velocity": 115,
      "chip": "ym2612"
    },
    {
      "channel": 4,
      "note": 56,
      "start": 6.728,
      "duration": 0.014,
      "velocity": 101,
      "chip": "ym2612"
    },
    {
      "channel": 3,
      "note": 59,
      "start": 6.7291,
      "duration": 0.014,
      "velocity": 101,
      "chip": "ym2612"
    },
    {
      "channel": 1,
      "note": 64,
      "start": 6.7313,
      "duration": 0.0141,
      "velocity": 101,
      "chip": "ym2612"
    },
    {
      "channel": 0,
      "note": 40,
      "start": 6.7405,
      "duration": 0.0161,
      "velocity": 115,
      "chip": "ym2612"
    },
    {
      "channel": 4,
      "note": 56,
      "start": 6.742,
      "duration": 0.0185,
      "velocity": 101,
      "chip": "ym2612"
    },
    {
      "channel": 3,
      "note": 59,
      "start": 6.7431,
      "duration": 0.0186,
      "velocity": 101,
      "chip": "ym2612"
    },
    {
      "channel": 1,
      "note": 64,
      "start": 6.7454,
      "duration": 0.0185,
      "velocity": 101,
      "chip": "ym2612"
    },
    {
      "channel": 0,
      "note": 41,
      "start": 6.7566,
      "duration": 0.0161,
      "velocity": 115,
      "chip": "ym2612"
    },
    {
      "channel": 4,
      "note": 56,
      "start": 6.7605,
      "duration": 0.0134,
      "velocity": 101,
      "chip": "ym2612"
    },
    {
      "channel": 3,
      "note": 59,
      "start": 6.7617,
      "duration": 0.0161,
      "velocity": 101,
      "chip": "ym2612"
    },
    {
      "channel": 1,
      "note": 64,
      "start": 6.7639,
      "duration": 0.0161,
      "velocity": 101,
      "chip": "ym2612"
    },
    {
      "channel": 0,
      "note": 41,
      "start": 6.7727,
      "duration": 0.0161,
      "velocity": 115,
      "chip": "ym2612"
    },
    {
      "channel": 4,
      "note": 56,
      "start": 6.7738,
      "duration": 0.0162,
      "velocity": 101,
      "chip": "ym2612"
    },
    {
      "channel": 3,
      "note": 59,
      "start": 6.7778,
      "duration": 0.0157,
      "velocity": 101,
      "chip": "ym2612"
    },
    {
      "channel": 1,
      "note": 64,
      "start": 6.78,
      "duration": 0.0158,
      "velocity": 101,
      "chip": "ym2612"
    },
    {
      "channel": 0,
      "note": 42,
      "start": 6.7888,
      "duration": 0.0179,
      "velocity": 124,
      "chip": "ym2612"
    },
    {
      "channel": 4,
      "note": 56,
      "start": 6.79,
      "duration": 0.0182,
      "velocity": 101,
      "chip": "ym2612"
    },
    {
      "channel": 3,
      "note": 59,
      "start": 6.7935,
      "duration": 0.0159,
      "velocity": 101,
      "chip": "ym2612"
    },
    {
      "channel": 1,
      "note": 64,
      "start": 6.7958,
      "duration": 0.0159,
      "velocity": 101,
      "chip": "ym2612"
    },
    {
      "channel": 0,
      "note": 84,
      "start": 6.8066,
      "duration": 0.0144,
      "velocity": 124,
      "chip": "ym2612"
    },
    {
      "channel": 4,
      "note": 56,
      "start": 6.8082,
      "duration": 0.0141,
      "velocity": 101,
      "chip": "ym2612"
    },
    {
      "channel": 3,
      "note": 59,
      "start": 6.8093,
      "duration": 0.0141,
      "velocity": 101,
      "chip": "ym2612"
    },
    {
      "channel": 1,
      "note": 64,
      "start": 6.8116,
      "duration": 0.0168,
      "velocity": 101,
      "chip": "ym2612"
    },
    {
      "channel": 0,
      "note": 82,
      "start": 6.821,
      "duration": 0.0161,
      "velocity": 124,
      "chip": "ym2612"
    },
    {
      "channel": 4,
      "note": 56,
      "start": 6.8222,
      "duration": 0.016,
      "velocity": 101,
      "chip": "ym2612"
    },
    {
      "channel": 3,
      "note": 59,
      "start": 6.8234,
      "duration": 0.016,
      "velocity": 101,
      "chip": "ym2612"
    },
    {
      "channel": 1,
      "note": 64,
      "start": 6.8284,
      "duration": 0.016,
      "velocity": 101,
      "chip": "ym2612"
    },
    {
      "channel": 0,
      "note": 80,
      "start": 6.8371,
      "duration": 0.0161,
      "velocity": 124,
      "chip": "ym2612"
    },
    {
      "channel": 4,
      "note": 56,
      "start": 6.8383,
      "duration": 0.0161,
      "velocity": 101,
      "chip": "ym2612"
    },
    {
      "channel": 3,
      "note": 59,
      "start": 6.8394,
      "duration": 0.0161,
      "velocity": 101,
      "chip": "ym2612"
    },
    {
      "channel": 1,
      "note": 64,
      "start": 6.8444,
      "duration": 0.0157,
      "velocity": 101,
      "chip": "ym2612"
    },
    {
      "channel": 0,
      "note": 77,
      "start": 6.8532,
      "duration": 0.0161,
      "velocity": 124,
      "chip": "ym2612"
    },
    {
      "channel": 4,
      "note": 56,
      "start": 6.8544,
      "duration": 0.0161,
      "velocity": 101,
      "chip": "ym2612"
    },
    {
      "channel": 3,
      "note": 59,
      "start": 6.8555,
      "duration": 0.0161,
      "velocity": 101,
      "chip": "ym2612"
    },
    {
      "channel": 1,
      "note": 64,
      "start": 6.8601,
      "duration": 0.0137,
      "velocity": 101,
      "chip": "ym2612"
    },
    {
      "channel": 0,
      "note": 75,
      "start": 6.8693,
      "duration": 0.0161,
      "velocity": 124,
      "chip": "ym2612"
    },
    {
      "channel": 4,
      "note": 56,
      "start": 6.8704,
      "duration": 0.0161,
      "velocity": 101,
      "chip": "ym2612"
    },
    {
      "channel": 3,
      "note": 59,
      "start": 6.8716,
      "duration": 0.0161,
      "velocity": 101,
      "chip": "ym2612"
    },
    {
      "channel": 1,
      "note": 64,
      "start": 6.8739,
      "duration": 0.0161,
      "velocity": 101,
      "chip": "ym2612"
    },
    {
      "channel": 0,
      "note": 72,
      "start": 6.8854,
      "duration": 0.0161,
      "velocity": 124,
      "chip": "ym2612"
    },
    {
      "channel": 4,
      "note": 56,
      "start": 6.8865,
      "duration": 0.0161,
      "velocity": 101,
      "chip": "ym2612"
    },
    {
      "channel": 3,
      "note": 59,
      "start": 6.8877,
      "duration": 0.0161,
      "velocity": 101,
      "chip": "ym2612"
    },
    {
      "channel": 1,
      "note": 64,
      "start": 6.89,
      "duration": 0.0161,
      "velocity": 101,
      "chip": "ym2612"
    },
    {
      "channel": 0,
      "note": 70,
      "start": 6.9015,
      "duration": 0.0161,
      "velocity": 124,
      "chip": "ym2612"
    },
    {
      "channel": 4,
      "note": 56,
      "start": 6.9026,
      "duration": 0.0161,
      "velocity": 101,
      "chip": "ym2612"
    },
    {
      "channel": 3,
      "note": 59,
      "start": 6.9038,
      "duration": 0.0161,
      "velocity": 101,
      "chip": "ym2612"
    },
    {
      "channel": 1,
      "note": 64,
      "start": 6.9061,
      "duration": 0.0161,
      "velocity": 101,
      "chip": "ym2612"
    },
    {
      "channel": 0,
      "note": 68,
      "start": 6.9176,
      "duration": 0.0161,
      "velocity": 124,
      "chip": "ym2612"
    },
    {
      "channel": 4,
      "note": 56,
      "start": 6.9187,
      "duration": 0.0161,
      "velocity": 101,
      "chip": "ym2612"
    },
    {
      "channel": 3,
      "note": 59,
      "start": 6.9199,
      "duration": 0.0161,
      "velocity": 101,
      "chip": "ym2612"
    },
    {
      "channel": 1,
      "note": 64,
      "start": 6.9222,
      "duration": 0.0161,
      "velocity": 101,
      "chip": "ym2612"
    },
    {
      "channel": 0,
      "note": 65,
      "start": 6.9337,
      "duration": 0.0161,
      "velocity": 124,
      "chip": "ym2612"
    },
    {
      "channel": 4,
      "note": 56,
      "start": 6.9348,
      "duration": 0.0162,
      "velocity": 101,
      "chip": "ym2612"
    },
    {
      "channel": 3,
      "note": 59,
      "start": 6.936,
      "duration": 0.0162,
      "velocity": 101,
      "chip": "ym2612"
    },
    {
      "channel": 1,
      "note": 64,
      "start": 6.9383,
      "duration": 0.0161,
      "velocity": 101,
      "chip": "ym2612"
    },
    {
      "channel": 0,
      "note": 63,
      "start": 6.9498,
      "duration": 0.0153,
      "velocity": 1,
      "chip": "ym2612"
    },
    {
      "channel": 4,
      "note": 56,
      "start": 6.951,
      "duration": 0.0153,
      "velocity": 101,
      "chip": "ym2612"
    },
    {
      "channel": 3,
      "note": 59,
      "start": 6.9521,
      "duration": 0.0153,
      "velocity": 101,
      "chip": "ym2612"
    },
    {
      "channel": 1,
      "note": 64,
      "start": 6.9544,
      "duration": 0.0153,
      "velocity": 101,
      "chip": "ym2612"
    },
    {
      "channel": 4,
      "note": 56,
      "start": 6.9662,
      "duration": 0.0153,
      "velocity": 101,
      "chip": "ym2612"
    },
    {
      "channel": 3,
      "note": 59,
      "start": 6.9674,
      "duration": 0.0153,
      "velocity": 101,
      "chip": "ym2612"
    },
    {
      "channel": 1,
      "note": 64,
      "start": 6.9697,
      "duration": 0.0153,
      "velocity": 101,
      "chip": "ym2612"
    },
    {
      "channel": 4,
      "note": 56,
      "start": 6.9815,
      "duration": 0.0161,
      "velocity": 101,
      "chip": "ym2612"
    },
    {
      "channel": 3,
      "note": 59,
      "start": 6.9827,
      "duration": 0.0161,
      "velocity": 101,
      "chip": "ym2612"
    },
    {
      "channel": 1,
      "note": 64,
      "start": 6.9849,
      "duration": 0.0161,
      "velocity": 101,
      "chip": "ym2612"
    },
    {
      "channel": 4,
      "note": 56,
      "start": 6.9976,
      "duration": 0.0161,
      "velocity": 101,
      "chip": "ym2612"
    },
    {
      "channel": 3,
      "note": 59,
      "start": 6.9988,
      "duration": 0.0161,
      "velocity": 101,
      "chip": "ym2612"
    },
    {
      "channel": 1,
      "note": 64,
      "start": 7.001,
      "duration": 0.0161,
      "velocity": 101,
      "chip": "ym2612"
    },
    {
      "channel": 4,
      "note": 56,
      "start": 7.0137,
      "duration": 0.0195,
      "velocity": 101,
      "chip": "ym2612"
    },
    {
      "channel": 3,
      "note": 59,
      "start": 7.0149,
      "duration": 0.0195,
      "velocity": 101,
      "chip": "ym2612"
    },
    {
      "channel": 1,
      "note": 64,
      "start": 7.0171,
      "duration": 0.0195,
      "velocity": 101,
      "chip": "ym2612"
    },
    {
      "channel": 0,
      "note": 84,
      "start": 7.0321,
      "duration": 0.0144,
      "velocity": 124,
      "chip": "ym2612"
    },
    {
      "channel": 4,
      "note": 56,
      "start": 7.0332,
      "duration": 0.0144,
      "velocity": 101,
      "chip": "ym2612"
    },
    {
      "channel": 3,
      "note": 59,
      "start": 7.0344,
      "duration": 0.0144,
      "velocity": 101,
      "chip": "ym2612"
    },
    {
      "channel": 1,
      "note": 64,
      "start": 7.0367,
      "duration": 0.0144,
      "velocity": 101,
      "chip": "ym2612"
    },
    {
      "channel": 0,
      "note": 82,
      "start": 7.0465,
      "duration": 0.016,
      "velocity": 124,
      "chip": "ym2612"
    },
    {
      "channel": 4,
      "note": 56,
      "start": 7.0476,
      "duration": 0.016,
      "velocity": 101,
      "chip": "ym2612"
    },
    {
      "channel": 3,
      "note": 59,
      "start": 7.0488,
      "duration": 0.016,
      "velocity": 101,
      "chip": "ym2612"
    },
    {
      "channel": 1,
      "note": 64,
      "start": 7.051,
      "duration": 0.016,
      "velocity": 101,
      "chip": "ym2612"
    },
    {
      "channel": 0,
      "note": 80,
      "start": 7.0625,
      "duration": 0.0161,
      "velocity": 124,
      "chip": "ym2612"
    },
    {
      "channel": 4,
      "note": 56,
      "start": 7.0636,
      "duration": 0.0162,
      "velocity": 101,
      "chip": "ym2612"
    },
    {
      "channel": 3,
      "note": 59,
      "start": 7.0648,
      "duration": 0.0161,
      "velocity": 101,
      "chip": "ym2612"
    },
    {
      "channel": 1,
      "note": 64,
      "start": 7.0671,
      "duration": 0.0161,
      "velocity": 101,
      "chip": "ym2612"
    },
    {
      "channel": 0,
      "note": 77,
      "start": 7.0786,
      "duration": 0.0172,
      "velocity": 124,
      "chip": "ym2612"
    },
    {
      "channel": 4,
      "note": 56,
      "start": 7.0798,
      "duration": 0.0172,
      "velocity": 101,
      "chip": "ym2612"
    },
    {
      "channel": 3,
      "note": 59,
      "start": 7.0809,
      "duration": 0.0172,
      "velocity": 101,
      "chip": "ym2612"
    },
    {
      "channel": 1,
      "note": 64,
      "start": 7.0832,
      "duration": 0.0172,
      "velocity": 101,
      "chip": "ym2612"
    },
    {
      "channel": 0,
      "note": 75,
      "start": 7.0958,
      "duration": 0.0167,
      "velocity": 124,
      "chip": "ym2612"
    },
    {
      "channel": 4,
      "note": 56,
      "start": 7.097,
      "duration": 0.0167,
      "velocity": 101,
      "chip": "ym2612"
    },
    {
      "channel": 3,
      "note": 59,
      "start": 7.0981,
      "duration": 0.0167,
      "velocity": 101,
      "chip": "ym2612"
    },
    {
      "channel": 1,
      "note": 64,
      "start": 7.1004,
      "duration": 0.0167,
      "velocity": 101,
      "chip": "ym2612"
    },
    {
      "channel": 0,
      "note": 72,
      "start": 7.1125,
      "duration": 0.0163,
      "velocity": 124,
      "chip": "ym2612"
    },
    {
      "channel": 4,
      "note": 56,
      "start": 7.1136,
      "duration": 0.0163,
      "velocity": 101,
      "chip": "ym2612"
    },
    {
      "channel": 3,
      "note": 59,
      "start": 7.1148,
      "duration": 0.0163,
      "velocity": 101,
      "chip": "ym2612"
    },
    {
      "channel": 1,
      "note": 64,
      "start": 7.1171,
      "duration": 0.0163,
      "velocity": 101,
      "chip": "ym2612"
    },
    {
      "channel": 0,
      "note": 70,
      "start": 7.1288,
      "duration": 0.0146,
      "velocity": 124,
      "chip": "ym2612"
    },
    {
      "channel": 4,
      "note": 56,
      "start": 7.1299,
      "duration": 0.0146,
      "velocity": 101,
      "chip": "ym2612"
    },
    {
      "channel": 3,
      "note": 59,
      "start": 7.1311,
      "duration": 0.0146,
      "velocity": 101,
      "chip": "ym2612"
    },
    {
      "channel": 1,
      "note": 64,
      "start": 7.1334,
      "duration": 0.0146,
      "velocity": 101,
      "chip": "ym2612"
    },
    {
      "channel": 0,
      "note": 68,
      "start": 7.1433,
      "duration": 0.0185,
      "velocity": 124,
      "chip": "ym2612"
    },
    {
      "channel": 4,
      "note": 56,
      "start": 7.1445,
      "duration": 0.0185,
      "velocity": 101,
      "chip": "ym2612"
    },
    {
      "channel": 3,
      "note": 59,
      "start": 7.1456,
      "duration": 0.0185,
      "velocity": 101,
      "chip": "ym2612"
    },
    {
      "channel": 1,
      "note": 64,
      "start": 7.1479,
      "duration": 0.0185,
      "velocity": 101,
      "chip": "ym2612"
    },
    {
      "channel": 0,
      "note": 65,
      "start": 7.1619,
      "duration": 0.0161,
      "velocity": 124,
      "chip": "ym2612"
    },
    {
      "channel": 4,
      "note": 56,
      "start": 7.163,
      "duration": 0.0161,
      "velocity": 101,
      "chip": "ym2612"
    },
    {
      "channel": 3,
      "note": 59,
      "start": 7.1641,
      "duration": 0.0161,
      "velocity": 101,
      "chip": "ym2612"
    },
    {
      "channel": 1,
      "note": 64,
      "start": 7.1664,
      "duration": 0.0161,
      "velocity": 101,
      "chip": "ym2612"
    },
    {
      "channel": 0,
      "note": 63,
      "start": 7.178,
      "duration": 0.0125,
      "velocity": 1,
      "chip": "ym2612"
    },
    {
      "channel": 4,
      "note": 56,
      "start": 7.1791,
      "duration": 0.0149,
      "velocity": 101,
      "chip": "ym2612"
    },
    {
      "channel": 3,
      "note": 59,
      "start": 7.1802,
      "duration": 0.0149,
      "velocity": 101,
      "chip": "ym2612"
    },
    {
      "channel": 1,
      "note": 64,
      "start": 7.1825,
      "duration": 0.0149,
      "velocity": 101,
      "chip": "ym2612"
    },
    {
      "channel": 4,
      "note": 56,
      "start": 7.194,
      "duration": 0.0129,
      "velocity": 101,
      "chip": "ym2612"
    },
    {
      "channel": 3,
      "note": 59,
      "start": 7.1952,
      "duration": 0.0132,
      "velocity": 101,
      "chip": "ym2612"
    },
    {
      "channel": 1,
      "note": 64,
      "start": 7.1975,
      "duration": 0.0132,
      "velocity": 101,
      "chip": "ym2612"
    },
    {
      "channel": 4,
      "note": 56,
      "start": 7.2069,
      "duration": 0.0162,
      "velocity": 101,
      "chip": "ym2612"
    },
    {
      "channel": 3,
      "note": 59,
      "start": 7.2083,
      "duration": 0.0159,
      "velocity": 101,
      "chip": "ym2612"
    },
    {
      "channel": 1,
      "note": 64,
      "start": 7.2106,
      "duration": 0.0186,
      "velocity": 101,
      "chip": "ym2612"
    },
    {
      "channel": 4,
      "note": 56,
      "start": 7.2231,
      "duration": 0.0161,
      "velocity": 101,
      "chip": "ym2612"
    },
    {
      "channel": 3,
      "note": 59,
      "start": 7.2242,
      "duration": 0.0161,
      "velocity": 101,
      "chip": "ym2612"
    },
    {
      "channel": 1,
      "note": 64,
      "start": 7.2292,
      "duration": 0.016,
      "velocity": 101,
      "chip": "ym2612"
    },
    {
      "channel": 4,
      "note": 56,
      "start": 7.2391,
      "duration": 0.0222,
      "velocity": 101,
      "chip": "ym2612"
    },
    {
      "channel": 3,
      "note": 59,
      "start": 7.2403,
      "duration": 0.0226,
      "velocity": 101,
      "chip": "ym2612"
    },
    {
      "channel": 1,
      "note": 64,
      "start": 7.2453,
      "duration": 0.0205,
      "velocity": 101,
      "chip": "ym2612"
    },
    {
      "channel": 0,
      "note": 36,
      "start": 7.2575,
      "duration": 0.0144,
      "velocity": 115,
      "chip": "ym2612"
    },
    {
      "channel": 4,
      "note": 61,
      "start": 7.2614,
      "duration": 0.0117,
      "velocity": 101,
      "chip": "ym2612"
    },
    {
      "channel": 3,
      "note": 64,
      "start": 7.2629,
      "duration": 0.0114,
      "velocity": 101,
      "chip": "ym2612"
    },
    {
      "channel": 1,
      "note": 69,
      "start": 7.2658,
      "duration": 0.0112,
      "velocity": 101,
      "chip": "ym2612"
    },
    {
      "channel": 0,
      "note": 36,
      "start": 7.2718,
      "duration": 0.016,
      "velocity": 115,
      "chip": "ym2612"
    },
    {
      "channel": 4,
      "note": 61,
      "start": 7.2731,
      "duration": 0.016,
      "velocity": 101,
      "chip": "ym2612"
    },
    {
      "channel": 3,
      "note": 64,
      "start": 7.2743,
      "duration": 0.016,
      "velocity": 101,
      "chip": "ym2612"
    },
    {
      "channel": 1,
      "note": 69,
      "start": 7.277,
      "duration": 0.0182,
      "velocity": 101,
      "chip": "ym2612"
    },
    {
      "channel": 0,
      "note": 37,
      "start": 7.2879,
      "duration": 0.0162,
      "velocity": 115,
      "chip": "ym2612"
    },
    {
      "channel": 4,
      "note": 61,
      "start": 7.2891,
      "duration": 0.0161,
      "velocity": 101,
      "chip": "ym2612"
    },
    {
      "channel": 3,
      "note": 64,
      "start": 7.2902,
      "duration": 0.0161,
      "velocity": 101,
      "chip": "ym2612"
    },
    {
      "channel": 1,
      "note": 69,
      "start": 7.2952,
      "duration": 0.0161,
      "velocity": 101,
      "chip": "ym2612"
    },
    {
      "channel": 0,
      "note": 37,
      "start": 7.304,
      "duration": 0.0161,
      "velocity": 115,
      "chip": "ym2612"
    },
    {
      "channel": 4,
      "note": 61,
      "start": 7.3052,
      "duration": 0.0161,
      "velocity": 101,
      "chip": "ym2612"
    },
    {
      "channel": 3,
      "note": 64,
      "start": 7.3063,
      "duration": 0.0161,
      "velocity": 101,
      "chip": "ym2612"
    },
    {
      "channel": 1,
      "note": 69,
      "start": 7.3113,
      "duration": 0.0157,
      "velocity": 101,
      "chip": "ym2612"
    },
    {
      "channel": 0,
      "note": 38,
      "start": 7.3201,
      "duration": 0.0161,
      "velocity": 115,
      "chip": "ym2612"
    },
    {
      "channel": 4,
      "note": 61,
      "start": 7.3213,
      "duration": 0.0161,
      "velocity": 101,
      "chip": "ym2612"
    },
    {
      "channel": 3,
      "note": 64,
      "start": 7.3224,
      "duration": 0.0161,
      "velocity": 101,
      "chip": "ym2612"
    },
    {
      "channel": 1,
      "note": 69,
      "start": 7.3271,
      "duration": 0.0137,
      "velocity": 101,
      "chip": "ym2612"
    },
    {
      "channel": 0,
      "note": 38,
      "start": 7.3362,
      "duration": 0.0161,
      "velocity": 115,
      "chip": "ym2612"
    },
    {
      "channel": 4,
      "note": 61,
      "start": 7.3374,
      "duration": 0.0161,
      "velocity": 101,
      "chip": "ym2612"
    },
    {
      "channel": 3,
      "note": 64,
      "start": 7.3385,
      "duration": 0.0161,
      "velocity": 101,
      "chip": "ym2612"
    },
    {
      "channel": 1,
      "note": 69,
      "start": 7.3408,
      "duration": 0.0161,
      "velocity": 101,
      "chip": "ym2612"
    },
    {
      "channel": 0,
      "note": 39,
      "start": 7.3523,
      "duration": 0.0161,
      "velocity": 115,
      "chip": "ym2612"
    },
    {
      "channel": 4,
      "note": 61,
      "start": 7.3534,
      "duration": 0.0161,
      "velocity": 101,
      "chip": "ym2612"
    },
    {
      "channel": 3,
      "note": 64,
      "start": 7.3546,
      "duration": 0.0161,
      "velocity": 101,
      "chip": "ym2612"
    },
    {
      "channel": 1,
      "note": 69,
      "start": 7.3569,
      "duration": 0.0161,
      "velocity": 101,
      "chip": "ym2612"
    },
    {
      "channel": 0,
      "note": 39,
      "start": 7.3684,
      "duration": 0.0161,
      "velocity": 115,
      "chip": "ym2612"
    },
    {
      "channel": 4,
      "note": 61,
      "start": 7.3695,
      "duration": 0.0161,
      "velocity": 101,
      "chip": "ym2612"
    },
    {
      "channel": 3,
      "note": 64,
      "start": 7.3707,
      "duration": 0.0161,
      "velocity": 101,
      "chip": "ym2612"
    },
    {
      "channel": 1,
      "note": 69,
      "start": 7.373,
      "duration": 0.0161,
      "velocity": 101,
      "chip": "ym2612"
    },
    {
      "channel": 0,
      "note": 40,
      "start": 7.3845,
      "duration": 0.0161,
      "velocity": 115,
      "chip": "ym2612"
    },
    {
      "channel": 4,
      "note": 61,
      "start": 7.3856,
      "duration": 0.0162,
      "velocity": 101,
      "chip": "ym2612"
    },
    {
      "channel": 3,
      "note": 64,
      "start": 7.3868,
      "duration": 0.0162,
      "velocity": 101,
      "chip": "ym2612"
    },
    {
      "channel": 1,
      "note": 69,
      "start": 7.3891,
      "duration": 0.0161,
      "velocity": 101,
      "chip": "ym2612"
    },
    {
      "channel": 0,
      "note": 40,
      "start": 7.4006,
      "duration": 0.0161,
      "velocity": 115,
      "chip": "ym2612"
    },
    {
      "channel": 4,
      "note": 61,
      "start": 7.4018,
      "duration": 0.0161,
      "velocity": 101,
      "chip": "ym2612"
    },
    {
      "channel": 3,
      "note": 64,
      "start": 7.4029,
      "duration": 0.0161,
      "velocity": 101,
      "chip": "ym2612"
    },
    {
      "channel": 1,
      "note": 69,
      "start": 7.4052,
      "duration": 0.0161,
      "velocity": 101,
      "chip": "ym2612"
    },
    {
      "channel": 0,
      "note": 40,
      "start": 7.4167,
      "duration": 0.0161,
      "velocity": 115,
      "chip": "ym2612"
    },
    {
      "channel": 4,
      "note": 61,
      "start": 7.4179,
      "duration": 0.0161,
      "velocity": 101,
      "chip": "ym2612"
    },
    {
      "channel": 3,
      "note": 64,
      "start": 7.419,
      "duration": 0.0161,
      "velocity": 101,
      "chip": "ym2612"
    },
    {
      "channel": 1,
      "note": 69,
      "start": 7.4213,
      "duration": 0.0161,
      "velocity": 101,
      "chip": "ym2612"
    },
    {
      "channel": 0,
      "note": 41,
      "start": 7.4328,
      "duration": 0.0161,
      "velocity": 115,
      "chip": "ym2612"
    },
    {
      "channel": 4,
      "note": 61,
      "start": 7.434,
      "duration": 0.0161,
      "velocity": 101,
      "chip": "ym2612"
    },
    {
      "channel": 3,
      "note": 64,
      "start": 7.4351,
      "duration": 0.0161,
      "velocity": 101,
      "chip": "ym2612"
    },
    {
      "channel": 1,
      "note": 69,
      "start": 7.4374,
      "duration": 0.0161,
      "velocity": 101,
      "chip": "ym2612"
    },
    {
      "channel": 0,
      "note": 41,
      "start": 7.4489,
      "duration": 0.0161,
      "velocity": 115,
      "chip": "ym2612"
    },
    {
      "channel": 4,
      "note": 61,
      "start": 7.4501,
      "duration": 0.0161,
      "velocity": 101,
      "chip": "ym2612"
    },
    {
      "channel": 3,
      "note": 64,
      "start": 7.4512,
      "duration": 0.0161,
      "velocity": 101,
      "chip": "ym2612"
    },
    {
      "channel": 1,
      "note": 69,
      "start": 7.4535,
      "duration": 0.0161,
      "velocity": 101,
      "chip": "ym2612"
    },
    {
      "channel": 0,
      "note": 42,
      "start": 7.465,
      "duration": 0.0161,
      "velocity": 115,
      "chip": "ym2612"
    },
    {
      "channel": 4,
      "note": 61,
      "start": 7.4662,
      "duration": 0.0161,
      "velocity": 101,
      "chip": "ym2612"
    },
    {
      "channel": 3,
      "note": 64,
      "start": 7.4673,
      "duration": 0.0161,
      "velocity": 101,
      "chip": "ym2612"
    },
    {
      "channel": 1,
      "note": 69,
      "start": 7.4696,
      "duration": 0.0161,
      "velocity": 101,
      "chip": "ym2612"
    },
    {
      "channel": 0,
      "note": 42,
      "start": 7.4811,
      "duration": 0.0161,
      "velocity": 115,
      "chip": "ym2612"
    },
    {
      "channel": 4,
      "note": 61,
      "start": 7.4823,
      "duration": 0.0161,
      "velocity": 101,
      "chip": "ym2612"
    },
    {
      "channel": 3,
      "note": 64,
      "start": 7.4834,
      "duration": 0.0161,
      "velocity": 101,
      "chip": "ym2612"
    },
    {
      "channel": 1,
      "note": 69,
      "start": 7.4857,
      "duration": 0.0161,
      "velocity": 101,
      "chip": "ym2612"
    },
    {
      "channel": 0,
      "note": 43,
      "start": 7.4972,
      "duration": 0.0161,
      "velocity": 115,
      "chip": "ym2612"
    },
    {
      "channel": 4,
      "note": 61,
      "start": 7.4984,
      "duration": 0.0161,
      "velocity": 101,
      "chip": "ym2612"
    },
    {
      "channel": 3,
      "note": 64,
      "start": 7.4995,
      "duration": 0.0161,
      "velocity": 101,
      "chip": "ym2612"
    },
    {
      "channel": 1,
      "note": 69,
      "start": 7.5018,
      "duration": 0.0161,
      "velocity": 101,
      "chip": "ym2612"
    },
    {
      "channel": 0,
      "note": 43,
      "start": 7.5133,
      "duration": 0.0161,
      "velocity": 115,
      "chip": "ym2612"
    },
    {
      "channel": 4,
      "note": 61,
      "start": 7.5145,
      "duration": 0.0161,
      "velocity": 101,
      "chip": "ym2612"
    },
    {
      "channel": 3,
      "note": 64,
      "start": 7.5156,
      "duration": 0.0161,
      "velocity": 101,
      "chip": "ym2612"
    },
    {
      "channel": 1,
      "note": 69,
      "start": 7.5179,
      "duration": 0.0161,
      "velocity": 101,
      "chip": "ym2612"
    },
    {
      "channel": 0,
      "note": 44,
      "start": 7.5294,
      "duration": 0.0161,
      "velocity": 115,
      "chip": "ym2612"
    },
    {
      "channel": 4,
      "note": 61,
      "start": 7.5306,
      "duration": 0.0161,
      "velocity": 101,
      "chip": "ym2612"
    },
    {
      "channel": 3,
      "note": 64,
      "start": 7.5317,
      "duration": 0.0161,
      "velocity": 101,
      "chip": "ym2612"
    },
    {
      "channel": 1,
      "note": 69,
      "start": 7.534,
      "duration": 0.0161,
      "velocity": 101,
      "chip": "ym2612"
    },
    {
      "channel": 0,
      "note": 44,
      "start": 7.5455,
      "duration": 0.017,
      "velocity": 115,
      "chip": "ym2612"
    },
    {
      "channel": 4,
      "note": 61,
      "start": 7.5466,
      "duration": 0.017,
      "velocity": 101,
      "chip": "ym2612"
    },
    {
      "channel": 3,
      "note": 64,
      "start": 7.5478,
      "duration": 0.017,
      "velocity": 101,
      "chip": "ym2612"
    },
    {
      "channel": 1,
      "note": 69,
      "start": 7.5501,
      "duration": 0.017,
      "velocity": 101,
      "chip": "ym2612"
    },
    {
      "channel": 0,
      "note": 44,
      "start": 7.5625,
      "duration": 0.0167,
      "velocity": 115,
      "chip": "ym2612"
    },
    {
      "channel": 4,
      "note": 61,
      "start": 7.5636,
      "duration": 0.0167,
      "velocity": 101,
      "chip": "ym2612"
    },
    {
      "channel": 3,
      "note": 64,
      "start": 7.5648,
      "duration": 0.0167,
      "velocity": 101,
      "chip": "ym2612"
    },
    {
      "channel": 1,
      "note": 69,
      "start": 7.5671,
      "duration": 0.0167,
      "velocity": 101,
      "chip": "ym2612"
    },
    {
      "channel": 0,
      "note": 45,
      "start": 7.5792,
      "duration": 0.0163,
      "velocity": 115,
      "chip": "ym2612"
    },
    {
      "channel": 4,
      "note": 61,
      "start": 7.5803,
      "duration": 0.0163,
      "velocity": 101,
      "chip": "ym2612"
    },
    {
      "channel": 3,
      "note": 64,
      "start": 7.5815,
      "duration": 0.0163,
      "velocity": 101,
      "chip": "ym2612"
    },
    {
      "channel": 1,
      "note": 69,
      "start": 7.5837,
      "duration": 0.0163,
      "velocity": 101,
      "chip": "ym2612"
    },
    {
      "channel": 0,
      "note": 45,
      "start": 7.5954,
      "duration": 0.0147,
      "velocity": 115,
      "chip": "ym2612"
    },
    {
      "channel": 4,
      "note": 61,
      "start": 7.5966,
      "duration": 0.0147,
      "velocity": 101,
      "chip": "ym2612"
    },
    {
      "channel": 3,
      "note": 64,
      "start": 7.5977,
      "duration": 0.0147,
      "velocity": 101,
      "chip": "ym2612"
    },
    {
      "channel": 1,
      "note": 69,
      "start": 7.6,
      "duration": 0.0147,
      "velocity": 101,
      "chip": "ym2612"
    },
    {
      "channel": 0,
      "note": 46,
      "start": 7.6101,
      "duration": 0.0186,
      "velocity": 115,
      "chip": "ym2612"
    },
    {
      "channel": 4,
      "note": 61,
      "start": 7.6113,
      "duration": 0.0186,
      "velocity": 101,
      "chip": "ym2612"
    },
    {
      "channel": 3,
      "note": 64,
      "start": 7.6124,
      "duration": 0.0186,
      "velocity": 101,
      "chip": "ym2612"
    },
    {
      "channel": 1,
      "note": 69,
      "start": 7.6147,
      "duration": 0.0186,
      "velocity": 101,
      "chip": "ym2612"
    },
    {
      "channel": 0,
      "note": 46,
      "start": 7.6288,
      "duration": 0.0161,
      "velocity": 115,
      "chip": "ym2612"
    },
    {
      "channel": 4,
      "note": 61,
      "start": 7.6299,
      "duration": 0.0161,
      "velocity": 101,
      "chip": "ym2612"
    },
    {
      "channel": 3,
      "note": 64,
      "start": 7.6311,
      "duration": 0.0161,
      "velocity": 101,
      "chip": "ym2612"
    },
    {
      "channel": 1,
      "note": 69,
      "start": 7.6334,
      "duration": 0.0161,
      "velocity": 101,
      "chip": "ym2612"
    },
    {
      "channel": 0,
      "note": 47,
      "start": 7.6449,
      "duration": 0.0158,
      "velocity": 115,
      "chip": "ym2612"
    },
    {
      "channel": 4,
      "note": 61,
      "start": 7.646,
      "duration": 0.0158,
      "velocity": 101,
      "chip": "ym2612"
    },
    {
      "channel": 3,
      "note": 64,
      "start": 7.6472,
      "duration": 0.0158,
      "velocity": 101,
      "chip": "ym2612"
    },
    {
      "channel": 1,
      "note": 69,
      "start": 7.6495,
      "duration": 0.0158,
      "velocity": 101,
      "chip": "ym2612"
    },
    {
      "channel": 0,
      "note": 47,
      "start": 7.6606,
      "duration": 0.0137,
      "velocity": 115,
      "chip": "ym2612"
    },
    {
      "channel": 4,
      "note": 61,
      "start": 7.6618,
      "duration": 0.0141,
      "velocity": 101,
      "chip": "ym2612"
    },
    {
      "channel": 3,
      "note": 64,
      "start": 7.6629,
      "duration": 0.0141,
      "velocity": 101,
      "chip": "ym2612"
    },
    {
      "channel": 1,
      "note": 69,
      "start": 7.6652,
      "duration": 0.014,
      "velocity": 101,
      "chip": "ym2612"
    },
    {
      "channel": 0,
      "note": 47,
      "start": 7.6743,
      "duration": 0.0161,
      "velocity": 115,
      "chip": "ym2612"
    },
    {
      "channel": 4,
      "note": 61,
      "start": 7.6759,
      "duration": 0.0185,
      "velocity": 101,
      "chip": "ym2612"
    },
    {
      "channel": 3,
      "note": 64,
      "start": 7.677,
      "duration": 0.0185,
      "velocity": 101,
      "chip": "ym2612"
    },
    {
      "channel": 1,
      "note": 69,
      "start": 7.6792,
      "duration": 0.0185,
      "velocity": 101,
      "chip": "ym2612"
    },
    {
      "channel": 0,
      "note": 48,
      "start": 7.6904,
      "duration": 0.0206,
      "velocity": 124,
      "chip": "ym2612"
    },
    {
      "channel": 4,
      "note": 61,
      "start": 7.6944,
      "duration": 0.0179,
      "velocity": 101,
      "chip": "ym2612"
    },
    {
      "channel": 3,
      "note": 64,
      "start": 7.6955,
      "duration": 0.0179,
      "velocity": 101,
      "chip": "ym2612"
    },
    {
      "channel": 1,
      "note": 69,
      "start": 7.6977,
      "duration": 0.0179,
      "velocity": 101,
      "chip": "ym2612"
    },
    {
      "channel": 0,
      "note": 84,
      "start": 7.7111,
      "duration": 0.0116,
      "velocity": 124,
      "chip": "ym2612"
    },
    {
      "channel": 4,
      "note": 61,
      "start": 7.7122,
      "duration": 0.0116,
      "velocity": 101,
      "chip": "ym2612"
    },
    {
      "channel": 3,
      "note": 64,
      "start": 7.7134,
      "duration": 0.014,
      "velocity": 101,
      "chip": "ym2612"
    },
    {
      "channel": 1,
      "note": 69,
      "start": 7.7157,
      "duration": 0.014,
      "velocity": 101,
      "chip": "ym2612"
    },
    {
      "channel": 0,
      "note": 82,
      "start": 7.7227,
      "duration": 0.0161,
      "velocity": 124,
      "chip": "ym2612"
    },
    {
      "channel": 4,
      "note": 61,
      "start": 7.7239,
      "duration": 0.016,
      "velocity": 101,
      "chip": "ym2612"
    },
    {
      "channel": 3,
      "note": 64,
      "start": 7.7274,
      "duration": 0.0137,
      "velocity": 101,
      "chip": "ym2612"
    },
    {
      "channel": 1,
      "note": 69,
      "start": 7.7297,
      "duration": 0.014,
      "velocity": 101,
      "chip": "ym2612"
    },
    {
      "channel": 0,
      "note": 80,
      "start": 7.7388,
      "duration": 0.0161,
      "velocity": 124,
      "chip": "ym2612"
    },
    {
      "channel": 4,
      "note": 61,
      "start": 7.7399,
      "duration": 0.0161,
      "velocity": 101,
      "chip": "ym2612"
    },
    {
      "channel": 3,
      "note": 64,
      "start": 7.741,
      "duration": 0.0161,
      "velocity": 101,
      "chip": "ym2612"
    },
    {
      "channel": 1,
      "note": 69,
      "start": 7.7437,
      "duration": 0.0185,
      "velocity": 101,
      "chip": "ym2612"
    },
    {
      "channel": 0,
      "note": 77,
      "start": 7.7549,
      "duration": 0.0161,
      "velocity": 124,
      "chip": "ym2612"
    },
    {
      "channel": 4,
      "note": 61,
      "start": 7.756,
      "duration": 0.0161,
      "velocity": 101,
      "chip": "ym2612"
    },
    {
      "channel": 3,
      "note": 64,
      "start": 7.7571,
      "duration": 0.0161,
      "velocity": 101,
      "chip": "ym2612"
    },
    {
      "channel": 1,
      "note": 69,
      "start": 7.7622,
      "duration": 0.0161,
      "velocity": 101,
      "chip": "ym2612"
    },
    {
      "channel": 0,
      "note": 75,
      "start": 7.771,
      "duration": 0.0161,
      "velocity": 124,
      "chip": "ym2612"
    },
    {
      "channel": 4,
      "note": 61,
      "start": 7.7721,
      "duration": 0.0161,
      "velocity": 101,
      "chip": "ym2612"
    },
    {
      "channel": 3,
      "note": 64,
      "start": 7.7732,
      "duration": 0.0161,
      "velocity": 101,
      "chip": "ym2612"
    },
    {
      "channel": 1,
      "note": 69,
      "start": 7.7783,
      "duration": 0.0158,
      "velocity": 101,
      "chip": "ym2612"
    },
    {
      "channel": 0,
      "note": 72,
      "start": 7.7871,
      "duration": 0.0161,
      "velocity": 124,
      "chip": "ym2612"
    },
    {
      "channel": 4,
      "note": 61,
      "start": 7.7882,
      "duration": 0.0161,
      "velocity": 101,
      "chip": "ym2612"
    },
    {
      "channel": 3,
      "note": 64,
      "start": 7.7893,
      "duration": 0.0161,
      "velocity": 101,
      "chip": "ym2612"
    },
    {
      "channel": 1,
      "note": 69,
      "start": 7.794,
      "duration": 0.0137,
      "velocity": 101,
      "chip": "ym2612"
    },
    {
      "channel": 0,
      "note": 70,
      "start": 7.8031,
      "duration": 0.0161,
      "velocity": 124,
      "chip": "ym2612"
    },
    {
      "channel": 4,
      "note": 61,
      "start": 7.8043,
      "duration": 0.0161,
      "velocity": 101,
      "chip": "ym2612"
    },
    {
      "channel": 3,
      "note": 64,
      "start": 7.8054,
      "duration": 0.0161,
      "velocity": 101,
      "chip": "ym2612"
    },
    {
      "channel": 1,
      "note": 69,
      "start": 7.8077,
      "duration": 0.0161,
      "velocity": 101,
      "chip": "ym2612"
    },
    {
      "channel": 0,
      "note": 68,
      "start": 7.8192,
      "duration": 0.0161,
      "velocity": 124,
      "chip": "ym2612"
    },
    {
      "channel": 4,
      "note": 61,
      "start": 7.8204,
      "duration": 0.0161,
      "velocity": 101,
      "chip": "ym2612"
    },
    {
      "channel": 3,
      "note": 64,
      "start": 7.8215,
      "duration": 0.0162,
      "velocity": 101,
      "chip": "ym2612"
    },
    {
      "channel": 1,
      "note": 69,
      "start": 7.8238,
      "duration": 0.0161,
      "velocity": 101,
      "chip": "ym2612"
    },
    {
      "channel": 0,
      "note": 65,
      "start": 7.8353,
      "duration": 0.0161,
      "velocity": 124,
      "chip": "ym2612"
    },
    {
      "channel": 4,
      "note": 61,
      "start": 7.8365,
      "duration": 0.0161,
      "velocity": 101,
      "chip": "ym2612"
    },
    {
      "channel": 3,
      "note": 64,
      "start": 7.8377,
      "duration": 0.0161,
      "velocity": 101,
      "chip": "ym2612"
    },
    {
      "channel": 1,
      "note": 69,
      "start": 7.8399,
      "duration": 0.0161,
      "velocity": 101,
      "chip": "ym2612"
    },
    {
      "channel": 0,
      "note": 63,
      "start": 7.8514,
      "duration": 0.0153,
      "velocity": 1,
      "chip": "ym2612"
    },
    {
      "channel": 4,
      "note": 61,
      "start": 7.8526,
      "duration": 0.0153,
      "velocity": 101,
      "chip": "ym2612"
    },
    {
      "channel": 3,
      "note": 64,
      "start": 7.8538,
      "duration": 0.0153,
      "velocity": 101,
      "chip": "ym2612"
    },
    {
      "channel": 1,
      "note": 69,
      "start": 7.856,
      "duration": 0.0153,
      "velocity": 101,
      "chip": "ym2612"
    },
    {
      "channel": 4,
      "note": 61,
      "start": 7.8679,
      "duration": 0.0153,
      "velocity": 101,
      "chip": "ym2612"
    },
    {
      "channel": 3,
      "note": 64,
      "start": 7.869,
      "duration": 0.0153,
      "velocity": 101,
      "chip": "ym2612"
    },
    {
      "channel": 1,
      "note": 69,
      "start": 7.8713,
      "duration": 0.0153,
      "velocity": 101,
      "chip": "ym2612"
    },
    {
      "channel": 4,
      "note": 61,
      "start": 7.8832,
      "duration": 0.0161,
      "velocity": 101,
      "chip": "ym2612"
    },
    {
      "channel": 3,
      "note": 64,
      "start": 7.8843,
      "duration": 0.0161,
      "velocity": 101,
      "chip": "ym2612"
    },
    {
      "channel": 1,
      "note": 69,
      "start": 7.8866,
      "duration": 0.0161,
      "velocity": 101,
      "chip": "ym2612"
    },
    {
      "channel": 4,
      "note": 61,
      "start": 7.8993,
      "duration": 0.0161,
      "velocity": 101,
      "chip": "ym2612"
    },
    {
      "channel": 3,
      "note": 64,
      "start": 7.9004,
      "duration": 0.0161,
      "velocity": 101,
      "chip": "ym2612"
    },
    {
      "channel": 1,
      "note": 69,
      "start": 7.9027,
      "duration": 0.0161,
      "velocity": 101,
      "chip": "ym2612"
    },
    {
      "channel": 4,
      "note": 61,
      "start": 7.9154,
      "duration": 0.0198,
      "velocity": 101,
      "chip": "ym2612"
    },
    {
      "channel": 3,
      "note": 64,
      "start": 7.9165,
      "duration": 0.02,
      "velocity": 101,
      "chip": "ym2612"
    },
    {
      "channel": 1,
      "note": 69,
      "start": 7.9188,
      "duration": 0.0203,
      "velocity": 101,
      "chip": "ym2612"
    },
    {
      "channel": 0,
      "note": 36,
      "start": 7.9337,
      "duration": 0.0144,
      "velocity": 115,
      "chip": "ym2612"
    },
    {
      "channel": 4,
      "note": 61,
      "start": 7.9352,
      "duration": 0.0141,
      "velocity": 101,
      "chip": "ym2612"
    },
    {
      "channel": 3,
      "note": 64,
      "start": 7.9366,
      "duration": 0.0139,
      "velocity": 101,
      "chip": "ym2612"
    },
    {
      "channel": 1,
      "note": 69,
      "start": 7.9391,
      "duration": 0.0137,
      "velocity": 101,
      "chip": "ym2612"
    },
    {
      "channel": 0,
      "note": 36,
      "start": 7.9481,
      "duration": 0.016,
      "velocity": 115,
      "chip": "ym2612"
    },
    {
      "channel": 4,
      "note": 61,
      "start": 7.9493,
      "duration": 0.016,
      "velocity": 101,
      "chip": "ym2612"
    },
    {
      "channel": 3,
      "note": 64,
      "start": 7.9505,
      "duration": 0.0159,
      "velocity": 101,
      "chip": "ym2612"
    },
    {
      "channel": 1,
      "note": 69,
      "start": 7.9528,
      "duration": 0.0159,
      "velocity": 101,
      "chip": "ym2612"
    },
    {
      "channel": 0,
      "note": 37,
      "start": 7.9641,
      "duration": 0.0161,
      "velocity": 115,
      "chip": "ym2612"
    },
    {
      "channel": 4,
      "note": 61,
      "start": 7.9653,
      "duration": 0.0161,
      "velocity": 101,
      "chip": "ym2612"
    },
    {
      "channel": 3,
      "note": 64,
      "start": 7.9664,
      "duration": 0.0161,
      "velocity": 101,
      "chip": "ym2612"
    },
    {
      "channel": 1,
      "note": 69,
      "start": 7.9687,
      "duration": 0.0161,
      "velocity": 101,
      "chip": "ym2612"
    },
    {
      "channel": 0,
      "note": 37,
      "start": 7.9802,
      "duration": 0.0161,
      "velocity": 115,
      "chip": "ym2612"
    },
    {
      "channel": 4,
      "note": 61,
      "start": 7.9814,
      "duration": 0.0161,
      "velocity": 101,
      "chip": "ym2612"
    },
    {
      "channel": 3,
      "note": 64,
      "start": 7.9825,
      "duration": 0.0161,
      "velocity": 101,
      "chip": "ym2612"
    },
    {
      "channel": 1,
      "note": 69,
      "start": 7.9848,
      "duration": 0.0161,
      "velocity": 101,
      "chip": "ym2612"
    },
    {
      "channel": 0,
      "note": 38,
      "start": 7.9963,
      "duration": 0.0161,
      "velocity": 115,
      "chip": "ym2612"
    },
    {
      "channel": 4,
      "note": 61,
      "start": 7.9975,
      "duration": 0.0161,
      "velocity": 101,
      "chip": "ym2612"
    },
    {
      "channel": 3,
      "note": 64,
      "start": 7.9986,
      "duration": 0.0162,
      "velocity": 101,
      "chip": "ym2612"
    },
    {
      "channel": 1,
      "note": 69,
      "start": 8.0009,
      "duration": 0.0161,
      "velocity": 101,
      "chip": "ym2612"
    },
    {
      "channel": 0,
      "note": 38,
      "start": 8.0124,
      "duration": 0.0167,
      "velocity": 115,
      "chip": "ym2612"
    },
    {
      "channel": 4,
      "note": 61,
      "start": 8.0136,
      "duration": 0.0167,
      "velocity": 101,
      "chip": "ym2612"
    },
    {
      "channel": 3,
      "note": 64,
      "start": 8.0148,
      "duration": 0.0167,
      "velocity": 101,
      "chip": "ym2612"
    },
    {
      "channel": 1,
      "note": 69,
      "start": 8.017,
      "duration": 0.0167,
      "velocity": 101,
      "chip": "ym2612"
    },
    {
      "channel": 0,
      "note": 39,
      "start": 8.0292,
      "duration": 0.0167,
      "velocity": 115,
      "chip": "ym2612"
    },
    {
      "channel": 4,
      "note": 61,
      "start": 8.0303,
      "duration": 0.0167,
      "velocity": 101,
      "chip": "ym2612"
    },
    {
      "channel": 3,
      "note": 64,
      "start": 8.0315,
      "duration": 0.0167,
      "velocity": 101,
      "chip": "ym2612"
    },
    {
      "channel": 1,
      "note": 69,
      "start": 8.0337,
      "duration": 0.0167,
      "velocity": 101,
      "chip": "ym2612"
    },
    {
      "channel": 0,
      "note": 39,
      "start": 8.0458,
      "duration": 0.0163,
      "velocity": 115,
      "chip": "ym2612"
    },
    {
      "channel": 4,
      "note": 61,
      "start": 8.047,
      "duration": 0.0163,
      "velocity": 101,
      "chip": "ym2612"
    },
    {
      "channel": 3,
      "note": 64,
      "start": 8.0481,
      "duration": 0.0163,
      "velocity": 101,
      "chip": "ym2612"
    },
    {
      "channel": 1,
      "note": 69,
      "start": 8.0504,
      "duration": 0.0163,
      "velocity": 101,
      "chip": "ym2612"
    },
    {
      "channel": 0,
      "note": 40,
      "start": 8.0621,
      "duration": 0.0148,
      "velocity": 115,
      "chip": "ym2612"
    },
    {
      "channel": 4,
      "note": 61,
      "start": 8.0632,
      "duration": 0.0148,
      "velocity": 101,
      "chip": "ym2612"
    },
    {
      "channel": 3,
      "note": 64,
      "start": 8.0644,
      "duration": 0.0148,
      "velocity": 101,
      "chip": "ym2612"
    },
    {
      "channel": 1,
      "note": 69,
      "start": 8.0667,
      "duration": 0.0148,
      "velocity": 101,
      "chip": "ym2612"
    },
    {
      "channel": 0,
      "note": 40,
      "start": 8.0769,
      "duration": 0.0188,
      "velocity": 115,
      "chip": "ym2612"
    },
    {
      "channel": 4,
      "note": 61,
      "start": 8.078,
      "duration": 0.0188,
      "velocity": 101,
      "chip": "ym2612"
    },
    {
      "channel": 3,
      "note": 64,
      "start": 8.0792,
      "duration": 0.0188,
      "velocity": 101,
      "chip": "ym2612"
    },
    {
      "channel": 1,
      "note": 69,
      "start": 8.0815,
      "duration": 0.0188,
      "velocity": 101,
      "chip": "ym2612"
    },
    {
      "channel": 0,
      "note": 40,
      "start": 8.0957,
      "duration": 0.0161,
      "velocity": 115,
      "chip": "ym2612"
    },
    {
      "channel": 4,
      "note": 61,
      "start": 8.0968,
      "duration": 0.0161,
      "velocity": 101,
      "chip": "ym2612"
    },
    {
      "channel": 3,
      "note": 64,
      "start": 8.098,
      "duration": 0.0162,
      "velocity": 101,
      "chip": "ym2612"
    },
    {
      "channel": 1,
      "note": 69,
      "start": 8.1003,
      "duration": 0.0161,
      "velocity": 101,
      "chip": "ym2612"
    },
    {
      "channel": 0,
      "note": 41,
      "start": 8.1118,
      "duration": 0.0158,
      "velocity": 115,
      "chip": "ym2612"
    },
    {
      "channel": 4,
      "note": 61,
      "start": 8.113,
      "duration": 0.0157,
      "velocity": 101,
      "chip": "ym2612"
    },
    {
      "channel": 3,
      "note": 64,
      "start": 8.1141,
      "duration": 0.0157,
      "velocity": 101,
      "chip": "ym2612"
    },
    {
      "channel": 1,
      "note": 69,
      "start": 8.1164,
      "duration": 0.0158,
      "velocity": 101,
      "chip": "ym2612"
    },
    {
      "channel": 0,
      "note": 41,
      "start": 8.1276,
      "duration": 0.014,
      "velocity": 115,
      "chip": "ym2612"
    },
    {
      "channel": 4,
      "note": 61,
      "start": 8.1287,
      "duration": 0.0141,
      "velocity": 101,
      "chip": "ym2612"
    },
    {
      "channel": 3,
      "note": 64,
      "start": 8.1299,
      "duration": 0.0141,
      "velocity": 101,
      "chip": "ym2612"
    },
    {
      "channel": 1,
      "note": 69,
      "start": 8.1322,
      "duration": 0.014,
      "velocity": 101,
      "chip": "ym2612"
    },
    {
      "channel": 0,
      "note": 42,
      "start": 8.1416,
      "duration": 0.0158,
      "velocity": 115,
      "chip": "ym2612"
    },
    {
      "channel": 4,
      "note": 61,
      "start": 8.1428,
      "duration": 0.0185,
      "velocity": 101,
      "chip": "ym2612"
    },
    {
      "channel": 3,
      "note": 64,
      "start": 8.1439,
      "duration": 0.0185,
      "velocity": 101,
      "chip": "ym2612"
    },
    {
      "channel": 1,
      "note": 69,
      "start": 8.1461,
      "duration": 0.0186,
      "velocity": 101,
      "chip": "ym2612"
    },
    {
      "channel": 0,
      "note": 42,
      "start": 8.1573,
      "duration": 0.0161,
      "velocity": 115,
      "chip": "ym2612"
    },
    {
      "channel": 4,
      "note": 61,
      "start": 8.1613,
      "duration": 0.0161,
      "velocity": 101,
      "chip": "ym2612"
    },
    {
      "channel": 3,
      "note": 64,
      "start": 8.1624,
      "duration": 0.0161,
      "velocity": 101,
      "chip": "ym2612"
    },
    {
      "channel": 1,
      "note": 69,
      "start": 8.1647,
      "duration": 0.0161,
      "velocity": 101,
      "chip": "ym2612"
    },
    {
      "channel": 0,
      "note": 43,
      "start": 8.1734,
      "duration": 0.0162,
      "velocity": 115,
      "chip": "ym2612"
    },
    {
      "channel": 4,
      "note": 61,
      "start": 8.1774,
      "duration": 0.0134,
      "velocity": 101,
      "chip": "ym2612"
    },
    {
      "channel": 3,
      "note": 64,
      "start": 8.1785,
      "duration": 0.0158,
      "velocity": 101,
      "chip": "ym2612"
    },
    {
      "channel": 1,
      "note": 69,
      "start": 8.1808,
      "duration": 0.0157,
      "velocity": 101,
      "chip": "ym2612"
    },
    {
      "channel": 0,
      "note": 43,
      "start": 8.1896,
      "duration": 0.0161,
      "velocity": 115,
      "chip": "ym2612"
    },
    {
      "channel": 4,
      "note": 61,
      "start": 8.1907,
      "duration": 0.0161,
      "velocity": 101,
      "chip": "ym2612"
    },
    {
      "channel": 3,
      "note": 64,
      "start": 8.1943,
      "duration": 0.014,
      "velocity": 101,
      "chip": "ym2612"
    },
    {
      "channel": 1,
      "note": 69,
      "start": 8.1965,
      "duration": 0.0141,
      "velocity": 101,
      "chip": "ym2612"
    },
    {
      "channel": 0,
      "note": 44,
      "start": 8.2057,
      "duration": 0.0161,
      "velocity": 115,
      "chip": "ym2612"
    },
    {
      "channel": 4,
      "note": 61,
      "start": 8.2068,
      "duration": 0.0161,
      "velocity": 101,
      "chip": "ym2612"
    },
    {
      "channel": 3,
      "note": 64,
      "start": 8.2083,
      "duration": 0.0158,
      "velocity": 101,
      "chip": "ym2612"
    },
    {
      "channel": 1,
      "note": 69,
      "start": 8.2106,
      "duration": 0.0185,
      "velocity": 101,
      "chip": "ym2612"
    },
    {
      "channel": 0,
      "note": 44,
      "start": 8.2218,
      "duration": 0.0161,
      "velocity": 115,
      "chip": "ym2612"
    },
    {
      "channel": 4,
      "note": 61,
      "start": 8.2229,
      "duration": 0.0161,
      "velocity": 101,
      "chip": "ym2612"
    },
    {
      "channel": 3,
      "note": 64,
      "start": 8.2241,
      "duration": 0.0161,
      "velocity": 101,
      "chip": "ym2612"
    },
    {
      "channel": 1,
      "note": 69,
      "start": 8.2291,
      "duration": 0.0161,
      "velocity": 101,
      "chip": "ym2612"
    },
    {
      "channel": 0,
      "note": 44,
      "start": 8.2379,
      "duration": 0.0161,
      "velocity": 115,
      "chip": "ym2612"
    },
    {
      "channel": 4,
      "note": 61,
      "start": 8.239,
      "duration": 0.0161,
      "velocity": 101,
      "chip": "ym2612"
    },
    {
      "channel": 3,
      "note": 64,
      "start": 8.2402,
      "duration": 0.0161,
      "velocity": 101,
      "chip": "ym2612"
    },
    {
      "channel": 1,
      "note": 69,
      "start": 8.2452,
      "duration": 0.0158,
      "velocity": 101,
      "chip": "ym2612"
    },
    {
      "channel": 0,
      "note": 45,
      "start": 8.254,
      "duration": 0.0161,
      "velocity": 115,
      "chip": "ym2612"
    },
    {
      "channel": 4,
      "note": 61,
      "start": 8.2551,
      "duration": 0.0161,
      "velocity": 101,
      "chip": "ym2612"
    },
    {
      "channel": 3,
      "note": 64,
      "start": 8.2563,
      "duration": 0.0161,
      "velocity": 101,
      "chip": "ym2612"
    },
    {
      "channel": 1,
      "note": 69,
      "start": 8.261,
      "duration": 0.014,
      "velocity": 101,
      "chip": "ym2612"
    },
    {
      "channel": 0,
      "note": 45,
      "start": 8.2701,
      "duration": 0.0161,
      "velocity": 115,
      "chip": "ym2612"
    },
    {
      "channel": 4,
      "note": 61,
      "start": 8.2712,
      "duration": 0.0162,
      "velocity": 101,
      "chip": "ym2612"
    },
    {
      "channel": 3,
      "note": 64,
      "start": 8.2724,
      "duration": 0.0161,
      "velocity": 101,
      "chip": "ym2612"
    },
    {
      "channel": 1,
      "note": 69,
      "start": 8.275,
      "duration": 0.0158,
      "velocity": 101,
      "chip": "ym2612"
    },
    {
      "channel": 0,
      "note": 46,
      "start": 8.2861,
      "duration": 0.0161,
      "velocity": 115,
      "chip": "ym2612"
    },
    {
      "channel": 4,
      "note": 61,
      "start": 8.2874,
      "duration": 0.0161,
      "velocity": 101,
      "chip": "ym2612"
    },
    {
      "channel": 3,
      "note": 64,
      "start": 8.2885,
      "duration": 0.0161,
      "velocity": 101,
      "chip": "ym2612"
    },
    {
      "channel": 1,
      "note": 69,
      "start": 8.2907,
      "duration": 0.0161,
      "velocity": 101,
      "chip": "ym2612"
    },
    {
      "channel": 0,
      "note": 46,
      "start": 8.3022,
      "duration": 0.0161,
      "velocity": 115,
      "chip": "ym2612"
    },
    {
      "channel": 4,
      "note": 61,
      "start": 8.3034,
      "duration": 0.0161,
      "velocity": 101,
      "chip": "ym2612"
    },
    {
      "channel": 3,
      "note": 64,
      "start": 8.3046,
      "duration": 0.0161,
      "velocity": 101,
      "chip": "ym2612"
    },
    {
      "channel": 1,
      "note": 69,
      "start": 8.3068,
      "duration": 0.0161,
      "velocity": 101,
      "chip": "ym2612"
    },
    {
      "channel": 0,
      "note": 47,
      "start": 8.3183,
      "duration": 0.0161,
      "velocity": 115,
      "chip": "ym2612"
    },
    {
      "channel": 4,
      "note": 61,
      "start": 8.3195,
      "duration": 0.0161,
      "velocity": 101,
      "chip": "ym2612"
    },
    {
      "channel": 3,
      "note": 64,
      "start": 8.3207,
      "duration": 0.0161,
      "velocity": 101,
      "chip": "ym2612"
    },
    {
      "channel": 1,
      "note": 69,
      "start": 8.3229,
      "duration": 0.0161,
      "velocity": 101,
      "chip": "ym2612"
    },
    {
      "channel": 0,
      "note": 47,
      "start": 8.3345,
      "duration": 0.0161,
      "velocity": 115,
      "chip": "ym2612"
    },
    {
      "channel": 4,
      "note": 61,
      "start": 8.3356,
      "duration": 0.0161,
      "velocity": 101,
      "chip": "ym2612"
    },
    {
      "channel": 3,
      "note": 64,
      "start": 8.3368,
      "duration": 0.0161,
      "velocity": 101,
      "chip": "ym2612"
    },
    {
      "channel": 1,
      "note": 69,
      "start": 8.3391,
      "duration": 0.0161,
      "velocity": 101,
      "chip": "ym2612"
    },
    {
      "channel": 0,
      "note": 47,
      "start": 8.3506,
      "duration": 0.0161,
      "velocity": 115,
      "chip": "ym2612"
    },
    {
      "channel": 4,
      "note": 61,
      "start": 8.3517,
      "duration": 0.0161,
      "velocity": 101,
      "chip": "ym2612"
    },
    {
      "channel": 3,
      "note": 64,
      "start": 8.3529,
      "duration": 0.0161,
      "velocity": 101,
      "chip": "ym2612"
    },
    {
      "channel": 1,
      "note": 69,
      "start": 8.3552,
      "duration": 0.0161,
      "velocity": 101,
      "chip": "ym2612"
    },
    {
      "channel": 0,
      "note": 48,
      "start": 8.3667,
      "duration": 0.0179,
      "velocity": 115,
      "chip": "ym2612"
    },
    {
      "channel": 4,
      "note": 61,
      "start": 8.3678,
      "duration": 0.018,
      "velocity": 101,
      "chip": "ym2612"
    },
    {
      "channel": 3,
      "note": 64,
      "start": 8.369,
      "duration": 0.0179,
      "velocity": 101,
      "chip": "ym2612"
    },
    {
      "channel": 1,
      "note": 69,
      "start": 8.3713,
      "duration": 0.0179,
      "velocity": 101,
      "chip": "ym2612"
    },
    {
      "channel": 0,
      "note": 36,
      "start": 8.3846,
      "duration": 0.0144,
      "velocity": 115,
      "chip": "ym2612"
    },
    {
      "channel": 4,
      "note": 61,
      "start": 8.3858,
      "duration": 0.0143,
      "velocity": 101,
      "chip": "ym2612"
    },
    {
      "channel": 3,
      "note": 64,
      "start": 8.3869,
      "duration": 0.0143,
      "velocity": 101,
      "chip": "ym2612"
    },
    {
      "channel": 1,
      "note": 69,
      "start": 8.3891,
      "duration": 0.0144,
      "velocity": 101,
      "chip": "ym2612"
    },
    {
      "channel": 0,
      "note": 36,
      "start": 8.3989,
      "duration": 0.016,
      "velocity": 115,
      "chip": "ym2612"
    },
    {
      "channel": 4,
      "note": 61,
      "start": 8.4001,
      "duration": 0.016,
      "velocity": 101,
      "chip": "ym2612"
    },
    {
      "channel": 3,
      "note": 64,
      "start": 8.4012,
      "duration": 0.016,
      "velocity": 101,
      "chip": "ym2612"
    },
    {
      "channel": 1,
      "note": 69,
      "start": 8.4035,
      "duration": 0.016,
      "velocity": 101,
      "chip": "ym2612"
    },
    {
      "channel": 0,
      "note": 37,
      "start": 8.415,
      "duration": 0.0161,
      "velocity": 115,
      "chip": "ym2612"
    },
    {
      "channel": 4,
      "note": 61,
      "start": 8.4161,
      "duration": 0.0161,
      "velocity": 101,
      "chip": "ym2612"
    },
    {
      "channel": 3,
      "note": 64,
      "start": 8.4173,
      "duration": 0.0161,
      "velocity": 101,
      "chip": "ym2612"
    },
    {
      "channel": 1,
      "note": 69,
      "start": 8.4195,
      "duration": 0.0161,
      "velocity": 101,
      "chip": "ym2612"
    },
    {
      "channel": 0,
      "note": 37,
      "start": 8.4311,
      "duration": 0.0161,
      "velocity": 115,
      "chip": "ym2612"
    },
    {
      "channel": 4,
      "note": 61,
      "start": 8.4322,
      "duration": 0.0162,
      "velocity": 101,
      "chip": "ym2612"
    },
    {
      "channel": 3,
      "note": 64,
      "start": 8.4334,
      "duration": 0.0162,
      "velocity": 101,
      "chip": "ym2612"
    },
    {
      "channel": 1,
      "note": 69,
      "start": 8.4356,
      "duration": 0.0161,
      "velocity": 101,
      "chip": "ym2612"
    },
    {
      "channel": 0,
      "note": 38,
      "start": 8.4472,
      "duration": 0.0161,
      "velocity": 115,
      "chip": "ym2612"
    },
    {
      "channel": 4,
      "note": 61,
      "start": 8.4484,
      "duration": 0.0161,
      "velocity": 101,
      "chip": "ym2612"
    },
    {
      "channel": 3,
      "note": 64,
      "start": 8.4495,
      "duration": 0.0161,
      "velocity": 101,
      "chip": "ym2612"
    },
    {
      "channel": 1,
      "note": 69,
      "start": 8.4517,
      "duration": 0.0161,
      "velocity": 101,
      "chip": "ym2612"
    },
    {
      "channel": 0,
      "note": 38,
      "start": 8.4633,
      "duration": 0.016,
      "velocity": 115,
      "chip": "ym2612"
    },
    {
      "channel": 4,
      "note": 61,
      "start": 8.4645,
      "duration": 0.0161,
      "velocity": 101,
      "chip": "ym2612"
    },
    {
      "channel": 3,
      "note": 64,
      "start": 8.4656,
      "duration": 0.0161,
      "velocity": 101,
      "chip": "ym2612"
    },
    {
      "channel": 1,
      "note": 69,
      "start": 8.4679,
      "duration": 0.0161,
      "velocity": 101,
      "chip": "ym2612"
    },
    {
      "channel": 0,
      "note": 39,
      "start": 8.4793,
      "duration": 0.0165,
      "velocity": 115,
      "chip": "ym2612"
    },
    {
      "channel": 4,
      "note": 61,
      "start": 8.4806,
      "duration": 0.0164,
      "velocity": 101,
      "chip": "ym2612"
    },
    {
      "channel": 3,
      "note": 64,
      "start": 8.4817,
      "duration": 0.0164,
      "velocity": 101,
      "chip": "ym2612"
    },
    {
      "channel": 1,
      "note": 69,
      "start": 8.484,
      "duration": 0.0164,
      "velocity": 101,
      "chip": "ym2612"
    },
    {
      "channel": 0,
      "note": 39,
      "start": 8.4958,
      "duration": 0.0167,
      "velocity": 115,
      "chip": "ym2612"
    },
    {
      "channel": 4,
      "note": 61,
      "start": 8.497,
      "duration": 0.0167,
      "velocity": 101,
      "chip": "ym2612"
    },
    {
      "channel": 3,
      "note": 64,
      "start": 8.4981,
      "duration": 0.0167,
      "velocity": 101,
      "chip": "ym2612"
    },
    {
      "channel": 1,
      "note": 69,
      "start": 8.5004,
      "duration": 0.0167,
      "velocity": 101,
      "chip": "ym2612"
    },
    {
      "channel": 0,
      "note": 40,
      "start": 8.5125,
      "duration": 0.0163,
      "velocity": 115,
      "chip": "ym2612"
    },
    {
      "channel": 4,
      "note": 61,
      "start": 8.5136,
      "duration": 0.0163,
      "velocity": 101,
      "chip": "ym2612"
    },
    {
      "channel": 3,
      "note": 64,
      "start": 8.5148,
      "duration": 0.0163,
      "velocity": 101,
      "chip": "ym2612"
    },
    {
      "channel": 1,
      "note": 69,
      "start": 8.5171,
      "duration": 0.0163,
      "velocity": 101,
      "chip": "ym2612"
    },
    {
      "channel": 0,
      "note": 40,
      "start": 8.5288,
      "duration": 0.015,
      "velocity": 115,
      "chip": "ym2612"
    },
    {
      "channel": 4,
      "note": 61,
      "start": 8.5299,
      "duration": 0.015,
      "velocity": 101,
      "chip": "ym2612"
    },
    {
      "channel": 3,
      "note": 64,
      "start": 8.5311,
      "duration": 0.015,
      "velocity": 101,
      "chip": "ym2612"
    },
    {
      "channel": 1,
      "note": 69,
      "start": 8.5334,
      "duration": 0.015,
      "velocity": 101,
      "chip": "ym2612"
    },
    {
      "channel": 0,
      "note": 40,
      "start": 8.5438,
      "duration": 0.0187,
      "velocity": 115,
      "chip": "ym2612"
    },
    {
      "channel": 4,
      "note": 61,
      "start": 8.5449,
      "duration": 0.0187,
      "velocity": 101,
      "chip": "ym2612"
    },
    {
      "channel": 3,
      "note": 64,
      "start": 8.5461,
      "duration": 0.0187,
      "velocity": 101,
      "chip": "ym2612"
    },
    {
      "channel": 1,
      "note": 69,
      "start": 8.5484,
      "duration": 0.0187,
      "velocity": 101,
      "chip": "ym2612"
    },
    {
      "channel": 0,
      "note": 41,
      "start": 8.5625,
      "duration": 0.0162,
      "velocity": 115,
      "chip": "ym2612"
    },
    {
      "channel": 4,
      "note": 61,
      "start": 8.5636,
      "duration": 0.0163,
      "velocity": 101,
      "chip": "ym2612"
    },
    {
      "channel": 3,
      "note": 64,
      "start": 8.5648,
      "duration": 0.0163,
      "velocity": 101,
      "chip": "ym2612"
    },
    {
      "channel": 1,
      "note": 69,
      "start": 8.5671,
      "duration": 0.0162,
      "velocity": 101,
      "chip": "ym2612"
    },
    {
      "channel": 0,
      "note": 41,
      "start": 8.5787,
      "duration": 0.0158,
      "velocity": 115,
      "chip": "ym2612"
    },
    {
      "channel": 4,
      "note": 61,
      "start": 8.5799,
      "duration": 0.0157,
      "velocity": 101,
      "chip": "ym2612"
    },
    {
      "channel": 3,
      "note": 64,
      "start": 8.5811,
      "duration": 0.0157,
      "velocity": 101,
      "chip": "ym2612"
    },
    {
      "channel": 1,
      "note": 69,
      "start": 8.5833,
      "duration": 0.0158,
      "velocity": 101,
      "chip": "ym2612"
    },
    {
      "channel": 0,
      "note": 42,
      "start": 8.5945,
      "duration": 0.0158,
      "velocity": 124,
      "chip": "ym2612"
    },
    {
      "channel": 4,
      "note": 61,
      "start": 8.5956,
      "duration": 0.0159,
      "velocity": 101,
      "chip": "ym2612"
    },
    {
      "channel": 3,
      "note": 64,
      "start": 8.5968,
      "duration": 0.0158,
      "velocity": 101,
      "chip": "ym2612"
    },
    {
      "channel": 1,
      "note": 69,
      "start": 8.5991,
      "duration": 0.0158,
      "velocity": 101,
      "chip": "ym2612"
    },
    {
      "channel": 0,
      "note": 84,
      "start": 8.6103,
      "duration": 0.0141,
      "velocity": 124,
      "chip": "ym2612"
    },
    {
      "channel": 4,
      "note": 61,
      "start": 8.6115,
      "duration": 0.0168,
      "velocity": 101,
      "chip": "ym2612"
    },
    {
      "channel": 3,
      "note": 64,
      "start": 8.6126,
      "duration": 0.0168,
      "velocity": 101,
      "chip": "ym2612"
    },
    {
      "channel": 1,
      "note": 69,
      "start": 8.6149,
      "duration": 0.0168,
      "velocity": 101,
      "chip": "ym2612"
    },
    {
      "channel": 0,
      "note": 82,
      "start": 8.6244,
      "duration": 0.016,
      "velocity": 124,
      "chip": "ym2612"
    },
    {
      "channel": 4,
      "note": 61,
      "start": 8.6283,
      "duration": 0.016,
      "velocity": 101,
      "chip": "ym2612"
    },
    {
      "channel": 3,
      "note": 64,
      "start": 8.6294,
      "duration": 0.016,
      "velocity": 101,
      "chip": "ym2612"
    },
    {
      "channel": 1,
      "note": 69,
      "start": 8.6317,
      "duration": 0.016,
      "velocity": 101,
      "chip": "ym2612"
    },
    {
      "channel": 0,
      "note": 80,
      "start": 8.6404,
      "duration": 0.0161,
      "velocity": 124,
      "chip": "ym2612"
    },
    {
      "channel": 4,
      "note": 61,
      "start": 8.6443,
      "duration": 0.0134,
      "velocity": 101,
      "chip": "ym2612"
    },
    {
      "channel": 3,
      "note": 64,
      "start": 8.6454,
      "duration": 0.0158,
      "velocity": 101,
      "chip": "ym2612"
    },
    {
      "channel": 1,
      "note": 69,
      "start": 8.6477,
      "duration": 0.0157,
      "velocity": 101,
      "chip": "ym2612"
    },
    {
      "channel": 0,
      "note": 77,
      "start": 8.6565,
      "duration": 0.0161,
      "velocity": 124,
      "chip": "ym2612"
    },
    {
      "channel": 4,
      "note": 61,
      "start": 8.6577,
      "duration": 0.0161,
      "velocity": 101,
      "chip": "ym2612"
    },
    {
      "channel": 3,
      "note": 64,
      "start": 8.6612,
      "duration": 0.014,
      "velocity": 101,
      "chip": "ym2612"
    },
    {
      "channel": 1,
      "note": 69,
      "start": 8.6634,
      "duration": 0.0141,
      "velocity": 101,
      "chip": "ym2612"
    },
    {
      "channel": 0,
      "note": 75,
      "start": 8.6726,
      "duration": 0.0161,
      "velocity": 124,
      "chip": "ym2612"
    },
    {
      "channel": 4,
      "note": 61,
      "start": 8.6737,
      "duration": 0.0161,
      "velocity": 101,
      "chip": "ym2612"
    },
    {
      "channel": 3,
      "note": 64,
      "start": 8.6752,
      "duration": 0.0158,
      "velocity": 101,
      "chip": "ym2612"
    },
    {
      "channel": 1,
      "note": 69,
      "start": 8.6775,
      "duration": 0.0185,
      "velocity": 101,
      "chip": "ym2612"
    },
    {
      "channel": 0,
      "note": 72,
      "start": 8.6887,
      "duration": 0.0161,
      "velocity": 124,
      "chip": "ym2612"
    },
    {
      "channel": 4,
      "note": 61,
      "start": 8.6898,
      "duration": 0.0161,
      "velocity": 101,
      "chip": "ym2612"
    },
    {
      "channel": 3,
      "note": 64,
      "start": 8.691,
      "duration": 0.0161,
      "velocity": 101,
      "chip": "ym2612"
    },
    {
      "channel": 1,
      "note": 69,
      "start": 8.696,
      "duration": 0.0161,
      "velocity": 101,
      "chip": "ym2612"
    },
    {
      "channel": 0,
      "note": 70,
      "start": 8.7048,
      "duration": 0.0161,
      "velocity": 124,
      "chip": "ym2612"
    },
    {
      "channel": 4,
      "note": 61,
      "start": 8.7059,
      "duration": 0.0161,
      "velocity": 101,
      "chip": "ym2612"
    },
    {
      "channel": 3,
      "note": 64,
      "start": 8.7071,
      "duration": 0.0162,
      "velocity": 101,
      "chip": "ym2612"
    },
    {
      "channel": 1,
      "note": 69,
      "start": 8.7121,
      "duration": 0.0158,
      "velocity": 101,
      "chip": "ym2612"
    },
    {
      "channel": 0,
      "note": 68,
      "start": 8.7209,
      "duration": 0.0161,
      "velocity": 124,
      "chip": "ym2612"
    },
    {
      "channel": 4,
      "note": 61,
      "start": 8.7221,
      "duration": 0.0161,
      "velocity": 101,
      "chip": "ym2612"
    },
    {
      "channel": 3,
      "note": 64,
      "start": 8.7232,
      "duration": 0.0161,
      "velocity": 101,
      "chip": "ym2612"
    },
    {
      "channel": 1,
      "note": 69,
      "start": 8.7279,
      "duration": 0.014,
      "velocity": 101,
      "chip": "ym2612"
    },
    {
      "channel": 0,
      "note": 65,
      "start": 8.737,
      "duration": 0.0161,
      "velocity": 124,
      "chip": "ym2612"
    },
    {
      "channel": 4,
      "note": 61,
      "start": 8.7382,
      "duration": 0.0161,
      "velocity": 101,
      "chip": "ym2612"
    },
    {
      "channel": 3,
      "note": 64,
      "start": 8.7393,
      "duration": 0.0161,
      "velocity": 101,
      "chip": "ym2612"
    },
    {
      "channel": 1,
      "note": 69,
      "start": 8.7419,
      "duration": 0.0158,
      "velocity": 101,
      "chip": "ym2612"
    },
    {
      "channel": 0,
      "note": 63,
      "start": 8.7531,
      "duration": 0.0153,
      "velocity": 1,
      "chip": "ym2612"
    },
    {
      "channel": 4,
      "note": 61,
      "start": 8.7543,
      "duration": 0.0153,
      "velocity": 101,
      "chip": "ym2612"
    },
    {
      "channel": 3,
      "note": 64,
      "start": 8.7554,
      "duration": 0.0153,
      "velocity": 101,
      "chip": "ym2612"
    },
    {
      "channel": 1,
      "note": 69,
      "start": 8.7577,
      "duration": 0.0153,
      "velocity": 101,
      "chip": "ym2612"
    },
    {
      "channel": 4,
      "note": 61,
      "start": 8.7695,
      "duration": 0.0153,
      "velocity": 101,
      "chip": "ym2612"
    },
    {
      "channel": 3,
      "note": 64,
      "start": 8.7707,
      "duration": 0.0153,
      "velocity": 101,
      "chip": "ym2612"
    },
    {
      "channel": 1,
      "note": 69,
      "start": 8.773,
      "duration": 0.0153,
      "velocity": 101,
      "chip": "ym2612"
    },
    {
      "channel": 4,
      "note": 61,
      "start": 8.7848,
      "duration": 0.0161,
      "velocity": 101,
      "chip": "ym2612"
    },
    {
      "channel": 3,
      "note": 64,
      "start": 8.786,
      "duration": 0.0161,
      "velocity": 101,
      "chip": "ym2612"
    },
    {
      "channel": 1,
      "note": 69,
      "start": 8.7883,
      "duration": 0.0161,
      "velocity": 101,
      "chip": "ym2612"
    },
    {
      "channel": 4,
      "note": 61,
      "start": 8.8009,
      "duration": 0.0161,
      "velocity": 101,
      "chip": "ym2612"
    },
    {
      "channel": 3,
      "note": 64,
      "start": 8.8021,
      "duration": 0.0161,
      "velocity": 101,
      "chip": "ym2612"
    },
    {
      "channel": 1,
      "note": 69,
      "start": 8.8044,
      "duration": 0.0161,
      "velocity": 101,
      "chip": "ym2612"
    },
    {
      "channel": 4,
      "note": 61,
      "start": 8.817,
      "duration": 0.0196,
      "velocity": 101,
      "chip": "ym2612"
    },
    {
      "channel": 3,
      "note": 64,
      "start": 8.8181,
      "duration": 0.0196,
      "velocity": 101,
      "chip": "ym2612"
    },
    {
      "channel": 1,
      "note": 69,
      "start": 8.8204,
      "duration": 0.0195,
      "velocity": 101,
      "chip": "ym2612"
    },
    {
      "channel": 0,
      "note": 36,
      "start": 8.8354,
      "duration": 0.0144,
      "velocity": 115,
      "chip": "ym2612"
    },
    {
      "channel": 4,
      "note": 61,
      "start": 8.8366,
      "duration": 0.0143,
      "velocity": 101,
      "chip": "ym2612"
    },
    {
      "channel": 3,
      "note": 64,
      "start": 8.8378,
      "duration": 0.0143,
      "velocity": 101,
      "chip": "ym2612"
    },
    {
      "channel": 1,
      "note": 69,
      "start": 8.84,
      "duration": 0.0144,
      "velocity": 101,
      "chip": "ym2612"
    },
    {
      "channel": 0,
      "note": 36,
      "start": 8.8498,
      "duration": 0.016,
      "velocity": 115,
      "chip": "ym2612"
    },
    {
      "channel": 4,
      "note": 61,
      "start": 8.8509,
      "duration": 0.016,
      "velocity": 101,
      "chip": "ym2612"
    },
    {
      "channel": 3,
      "note": 64,
      "start": 8.8521,
      "duration": 0.016,
      "velocity": 101,
      "chip": "ym2612"
    },
    {
      "channel": 1,
      "note": 69,
      "start": 8.8544,
      "duration": 0.016,
      "velocity": 101,
      "chip": "ym2612"
    },
    {
      "channel": 0,
      "note": 37,
      "start": 8.8658,
      "duration": 0.0161,
      "velocity": 115,
      "chip": "ym2612"
    },
    {
      "channel": 4,
      "note": 61,
      "start": 8.8669,
      "duration": 0.0162,
      "velocity": 101,
      "chip": "ym2612"
    },
    {
      "channel": 3,
      "note": 64,
      "start": 8.8681,
      "duration": 0.0161,
      "velocity": 101,
      "chip": "ym2612"
    },
    {
      "channel": 1,
      "note": 69,
      "start": 8.8704,
      "duration": 0.0161,
      "velocity": 101,
      "chip": "ym2612"
    },
    {
      "channel": 0,
      "note": 37,
      "start": 8.8819,
      "duration": 0.0161,
      "velocity": 115,
      "chip": "ym2612"
    },
    {
      "channel": 4,
      "note": 61,
      "start": 8.8831,
      "duration": 0.0161,
      "velocity": 101,
      "chip": "ym2612"
    },
    {
      "channel": 3,
      "note": 64,
      "start": 8.8842,
      "duration": 0.0161,
      "velocity": 101,
      "chip": "ym2612"
    },
    {
      "channel": 1,
      "note": 69,
      "start": 8.8865,
      "duration": 0.0161,
      "velocity": 101,
      "chip": "ym2612"
    },
    {
      "channel": 0,
      "note": 38,
      "start": 8.898,
      "duration": 0.0162,
      "velocity": 115,
      "chip": "ym2612"
    },
    {
      "channel": 4,
      "note": 61,
      "start": 8.8992,
      "duration": 0.0161,
      "velocity": 101,
      "chip": "ym2612"
    },
    {
      "channel": 3,
      "note": 64,
      "start": 8.9003,
      "duration": 0.0161,
      "velocity": 101,
      "chip": "ym2612"
    },
    {
      "channel": 1,
      "note": 69,
      "start": 8.9026,
      "duration": 0.0162,
      "velocity": 101,
      "chip": "ym2612"
    },
    {
      "channel": 0,
      "note": 38,
      "start": 8.9141,
      "duration": 0.0161,
      "velocity": 115,
      "chip": "ym2612"
    },
    {
      "channel": 4,
      "note": 61,
      "start": 8.9153,
      "duration": 0.0161,
      "velocity": 101,
      "chip": "ym2612"
    },
    {
      "channel": 3,
      "note": 64,
      "start": 8.9164,
      "duration": 0.0161,
      "velocity": 101,
      "chip": "ym2612"
    },
    {
      "channel": 1,
      "note": 69,
      "start": 8.9187,
      "duration": 0.0161,
      "velocity": 101,
      "chip": "ym2612"
    },
    {
      "channel": 0,
      "note": 39,
      "start": 8.9302,
      "duration": 0.0161,
      "velocity": 115,
      "chip": "ym2612"
    },
    {
      "channel": 4,
      "note": 61,
      "start": 8.9314,
      "duration": 0.0161,
      "velocity": 101,
      "chip": "ym2612"
    },
    {
      "channel": 3,
      "note": 64,
      "start": 8.9325,
      "duration": 0.0161,
      "velocity": 101,
      "chip": "ym2612"
    },
    {
      "channel": 1,
      "note": 69,
      "start": 8.9348,
      "duration": 0.0161,
      "velocity": 101,
      "chip": "ym2612"
    },
    {
      "channel": 0,
      "note": 39,
      "start": 8.9463,
      "duration": 0.0161,
      "velocity": 115,
      "chip": "ym2612"
    },
    {
      "channel": 4,
      "note": 61,
      "start": 8.9475,
      "duration": 0.0161,
      "velocity": 101,
      "chip": "ym2612"
    },
    {
      "channel": 3,
      "note": 64,
      "start": 8.9486,
      "duration": 0.0162,
      "velocity": 101,
      "chip": "ym2612"
    },
    {
      "channel": 1,
      "note": 69,
      "start": 8.9509,
      "duration": 0.0162,
      "velocity": 101,
      "chip": "ym2612"
    },
    {
      "channel": 0,
      "note": 40,
      "start": 8.9624,
      "duration": 0.0167,
      "velocity": 115,
      "chip": "ym2612"
    },
    {
      "channel": 4,
      "note": 61,
      "start": 8.9636,
      "duration": 0.0167,
      "velocity": 101,
      "chip": "ym2612"
    },
    {
      "channel": 3,
      "note": 64,
      "start": 8.9648,
      "duration": 0.0167,
      "velocity": 101,
      "chip": "ym2612"
    },
    {
      "channel": 1,
      "note": 69,
      "start": 8.9671,
      "duration": 0.0167,
      "velocity": 101,
      "chip": "ym2612"
    },
    {
      "channel": 0,
      "note": 40,
      "start": 8.9792,
      "duration": 0.0163,
      "velocity": 115,
      "chip": "ym2612"
    },
    {
      "channel": 4,
      "note": 61,
      "start": 8.9803,
      "duration": 0.0163,
      "velocity": 101,
      "chip": "ym2612"
    },
    {
      "channel": 3,
      "note": 64,
      "start": 8.9815,
      "duration": 0.0163,
      "velocity": 101,
      "chip": "ym2612"
    },
    {
      "channel": 1,
      "note": 69,
      "start": 8.9837,
      "duration": 0.0163,
      "velocity": 101,
      "chip": "ym2612"
    },
    {
      "channel": 0,
      "note": 40,
      "start": 8.9954,
      "duration": 0.0153,
      "velocity": 115,
      "chip": "ym2612"
    },
    {
      "channel": 4,
      "note": 61,
      "start": 8.9966,
      "duration": 0.0153,
      "velocity": 101,
      "chip": "ym2612"
    },
    {
      "channel": 3,
      "note": 64,
      "start": 8.9977,
      "duration": 0.0153,
      "velocity": 101,
      "chip": "ym2612"
    },
    {
      "channel": 1,
      "note": 69,
      "start": 9.0,
      "duration": 0.0153,
      "velocity": 101,
      "chip": "ym2612"
    },
    {
      "channel": 0,
      "note": 41,
      "start": 9.0107,
      "duration": 0.0184,
      "velocity": 115,
      "chip": "ym2612"
    },
    {
      "channel": 4,
      "note": 61,
      "start": 9.0119,
      "duration": 0.0184,
      "velocity": 101,
      "chip": "ym2612"
    },
    {
      "channel": 3,
      "note": 64,
      "start": 9.013,
      "duration": 0.0185,
      "velocity": 101,
      "chip": "ym2612"
    },
    {
      "channel": 1,
      "note": 69,
      "start": 9.0153,
      "duration": 0.0185,
      "velocity": 101,
      "chip": "ym2612"
    },
    {
      "channel": 0,
      "note": 41,
      "start": 9.0291,
      "duration": 0.0165,
      "velocity": 115,
      "chip": "ym2612"
    },
    {
      "channel": 4,
      "note": 61,
      "start": 9.0303,
      "duration": 0.0166,
      "velocity": 101,
      "chip": "ym2612"
    },
    {
      "channel": 3,
      "note": 64,
      "start": 9.0315,
      "duration": 0.0165,
      "velocity": 101,
      "chip": "ym2612"
    },
    {
      "channel": 1,
      "note": 69,
      "start": 9.0337,
      "duration": 0.0165,
      "velocity": 101,
      "chip": "ym2612"
    },
    {
      "channel": 0,
      "note": 42,
      "start": 9.0456,
      "duration": 0.0176,
      "velocity": 115,
      "chip": "ym2612"
    },
    {
      "channel": 4,
      "note": 61,
      "start": 9.0468,
      "duration": 0.0177,
      "velocity": 101,
      "chip": "ym2612"
    },
    {
      "channel": 3,
      "note": 64,
      "start": 9.048,
      "duration": 0.018,
      "velocity": 101,
      "chip": "ym2612"
    },
    {
      "channel": 1,
      "note": 69,
      "start": 9.0503,
      "duration": 0.0185,
      "velocity": 101,
      "chip": "ym2612"
    },
    {
      "channel": 0,
      "note": 36,
      "start": 9.0632,
      "duration": 0.0123,
      "velocity": 115,
      "chip": "ym2612"
    },
    {
      "channel": 4,
      "note": 54,
      "start": 9.0646,
      "duration": 0.0121,
      "velocity": 101,
      "chip": "ym2612"
    },
    {
      "channel": 3,
      "note": 57,
      "start": 9.0661,
      "duration": 0.0119,
      "velocity": 101,
      "chip": "ym2612"
    },
    {
      "channel": 1,
      "note": 62,
      "start": 9.0688,
      "duration": 0.0115,
      "velocity": 101,
      "chip": "ym2612"
    },
    {
      "channel": 0,
      "note": 36,
      "start": 9.0755,
      "duration": 0.0184,
      "velocity": 115,
      "chip": "ym2612"
    },
    {
      "channel": 4,
      "note": 54,
      "start": 9.0767,
      "duration": 0.0184,
      "velocity": 101,
      "chip": "ym2612"
    },
    {
      "channel": 3,
      "note": 57,
      "start": 9.078,
      "duration": 0.0183,
      "velocity": 101,
      "chip": "ym2612"
    },
    {
      "channel": 1,
      "note": 62,
      "start": 9.0803,
      "duration": 0.0183,
      "velocity": 101,
      "chip": "ym2612"
    },
    {
      "channel": 0,
      "note": 37,
      "start": 9.094,
      "duration": 0.0134,
      "velocity": 115,
      "chip": "ym2612"
    },
    {
      "channel": 4,
      "note": 54,
      "start": 9.0951,
      "duration": 0.0162,
      "velocity": 101,
      "chip": "ym2612"
    },
    {
      "channel": 3,
      "note": 57,
      "start": 9.0963,
      "duration": 0.0162,
      "velocity": 101,
      "chip": "ym2612"
    },
    {
      "channel": 1,
      "note": 62,
      "start": 9.0985,
      "duration": 0.0161,
      "velocity": 101,
      "chip": "ym2612"
    },
    {
      "channel": 0,
      "note": 37,
      "start": 9.1073,
      "duration": 0.0161,
      "velocity": 115,
      "chip": "ym2612"
    },
    {
      "channel": 4,
      "note": 54,
      "start": 9.1113,
      "duration": 0.0157,
      "velocity": 101,
      "chip": "ym2612"
    },
    {
      "channel": 3,
      "note": 57,
      "start": 9.1124,
      "duration": 0.0157,
      "velocity": 101,
      "chip": "ym2612"
    },
    {
      "channel": 1,
      "note": 62,
      "start": 9.1146,
      "duration": 0.0158,
      "velocity": 101,
      "chip": "ym2612"
    },
    {
      "channel": 0,
      "note": 38,
      "start": 9.1234,
      "duration": 0.0161,
      "velocity": 115,
      "chip": "ym2612"
    },
    {
      "channel": 4,
      "note": 54,
      "start": 9.127,
      "duration": 0.0137,
      "velocity": 101,
      "chip": "ym2612"
    },
    {
      "channel": 3,
      "note": 57,
      "start": 9.1281,
      "duration": 0.014,
      "velocity": 101,
      "chip": "ym2612"
    },
    {
      "channel": 1,
      "note": 62,
      "start": 9.1304,
      "duration": 0.014,
      "velocity": 101,
      "chip": "ym2612"
    },
    {
      "channel": 0,
      "note": 38,
      "start": 9.1395,
      "duration": 0.0161,
      "velocity": 115,
      "chip": "ym2612"
    },
    {
      "channel": 4,
      "note": 54,
      "start": 9.1407,
      "duration": 0.0161,
      "velocity": 101,
      "chip": "ym2612"
    },
    {
      "channel": 3,
      "note": 57,
      "start": 9.1421,
      "duration": 0.0186,
      "velocity": 101,
      "chip": "ym2612"
    },
    {
      "channel": 1,
      "note": 62,
      "start": 9.1444,
      "duration": 0.0185,
      "velocity": 101,
      "chip": "ym2612"
    },
    {
      "channel": 0,
      "note": 39,
      "start": 9.1556,
      "duration": 0.0161,
      "velocity": 115,
      "chip": "ym2612"
    },
    {
      "channel": 4,
      "note": 54,
      "start": 9.1568,
      "duration": 0.0161,
      "velocity": 101,
      "chip": "ym2612"
    },
    {
      "channel": 3,
      "note": 57,
      "start": 9.1607,
      "duration": 0.0134,
      "velocity": 101,
      "chip": "ym2612"
    },
    {
      "channel": 1,
      "note": 62,
      "start": 9.1629,
      "duration": 0.0162,
      "velocity": 101,
      "chip": "ym2612"
    },
    {
      "channel": 0,
      "note": 39,
      "start": 9.1717,
      "duration": 0.0161,
      "velocity": 115,
      "chip": "ym2612"
    },
    {
      "channel": 4,
      "note": 54,
      "start": 9.1729,
      "duration": 0.0161,
      "velocity": 101,
      "chip": "ym2612"
    },
    {
      "channel": 3,
      "note": 57,
      "start": 9.1741,
      "duration": 0.0161,
      "velocity": 101,
      "chip": "ym2612"
    },
    {
      "channel": 1,
      "note": 62,
      "start": 9.1791,
      "duration": 0.0157,
      "velocity": 101,
      "chip": "ym2612"
    },
    {
      "channel": 0,
      "note": 40,
      "start": 9.1878,
      "duration": 0.0162,
      "velocity": 115,
      "chip": "ym2612"
    },
    {
      "channel": 4,
      "note": 54,
      "start": 9.189,
      "duration": 0.0161,
      "velocity": 101,
      "chip": "ym2612"
    },
    {
      "channel": 3,
      "note": 57,
      "start": 9.1902,
      "duration": 0.0161,
      "velocity": 101,
      "chip": "ym2612"
    },
    {
      "channel": 1,
      "note": 62,
      "start": 9.1948,
      "duration": 0.0141,
      "velocity": 101,
      "chip": "ym2612"
    },
    {
      "channel": 0,
      "note": 40,
      "start": 9.204,
      "duration": 0.016,
      "velocity": 115,
      "chip": "ym2612"
    },
    {
      "channel": 4,
      "note": 54,
      "start": 9.2051,
      "duration": 0.0161,
      "velocity": 101,
      "chip": "ym2612"
    },
    {
      "channel": 3,
      "note": 57,
      "start": 9.2063,
      "duration": 0.0161,
      "velocity": 101,
      "chip": "ym2612"
    },
    {
      "channel": 1,
      "note": 62,
      "start": 9.2089,
      "duration": 0.0185,
      "velocity": 101,
      "chip": "ym2612"
    },
    {
      "channel": 0,
      "note": 40,
      "start": 9.22,
      "duration": 0.0161,
      "velocity": 115,
      "chip": "ym2612"
    },
    {
      "channel": 4,
      "note": 54,
      "start": 9.2212,
      "duration": 0.0161,
      "velocity": 101,
      "chip": "ym2612"
    },
    {
      "channel": 3,
      "note": 57,
      "start": 9.2224,
      "duration": 0.0161,
      "velocity": 101,
      "chip": "ym2612"
    },
    {
      "channel": 1,
      "note": 62,
      "start": 9.2274,
      "duration": 0.0134,
      "velocity": 101,
      "chip": "ym2612"
    },
    {
      "channel": 0,
      "note": 41,
      "start": 9.2361,
      "duration": 0.0161,
      "velocity": 115,
      "chip": "ym2612"
    },
    {
      "channel": 4,
      "note": 54,
      "start": 9.2373,
      "duration": 0.0161,
      "velocity": 101,
      "chip": "ym2612"
    },
    {
      "channel": 3,
      "note": 57,
      "start": 9.2384,
      "duration": 0.0161,
      "velocity": 101,
      "chip": "ym2612"
    },
    {
      "channel": 1,
      "note": 62,
      "start": 9.2407,
      "duration": 0.0161,
      "velocity": 101,
      "chip": "ym2612"
    },
    {
      "channel": 0,
      "note": 41,
      "start": 9.2522,
      "duration": 0.0161,
      "velocity": 115,
      "chip": "ym2612"
    },
    {
      "channel": 4,
      "note": 54,
      "start": 9.2534,
      "duration": 0.0161,
      "velocity": 101,
      "chip": "ym2612"
    },
    {
      "channel": 3,
      "note": 57,
      "start": 9.2545,
      "duration": 0.0161,
      "velocity": 101,
      "chip": "ym2612"
    },
    {
      "channel": 1,
      "note": 62,
      "start": 9.2568,
      "duration": 0.0161,
      "velocity": 101,
      "chip": "ym2612"
    },
    {
      "channel": 0,
      "note": 42,
      "start": 9.2683,
      "duration": 0.0161,
      "velocity": 115,
      "chip": "ym2612"
    },
    {
      "channel": 4,
      "note": 54,
      "start": 9.2695,
      "duration": 0.0161,
      "velocity": 101,
      "chip": "ym2612"
    },
    {
      "channel": 3,
      "note": 57,
      "start": 9.2706,
      "duration": 0.0161,
      "velocity": 101,
      "chip": "ym2612"
    },
    {
      "channel": 1,
      "note": 62,
      "start": 9.2729,
      "duration": 0.0161,
      "velocity": 101,
      "chip": "ym2612"
    },
    {
      "channel": 0,
      "note": 42,
      "start": 9.2844,
      "duration": 0.0161,
      "velocity": 115,
      "chip": "ym2612"
    },
    {
      "channel": 4,
      "note": 54,
      "start": 9.2856,
      "duration": 0.0161,
      "velocity": 101,
      "chip": "ym2612"
    },
    {
      "channel": 3,
      "note": 57,
      "start": 9.2867,
      "duration": 0.0161,
      "velocity": 101,
      "chip": "ym2612"
    },
    {
      "channel": 1,
      "note": 62,
      "start": 9.289,
      "duration": 0.0161,
      "velocity": 101,
      "chip": "ym2612"
    },
    {
      "channel": 0,
      "note": 43,
      "start": 9.3005,
      "duration": 0.0161,
      "velocity": 115,
      "chip": "ym2612"
    },
    {
      "channel": 4,
      "note": 54,
      "start": 9.3017,
      "duration": 0.0161,
      "velocity": 101,
      "chip": "ym2612"
    },
    {
      "channel": 3,
      "note": 57,
      "start": 9.3028,
      "duration": 0.0162,
      "velocity": 101,
      "chip": "ym2612"
    },
    {
      "channel": 1,
      "note": 62,
      "start": 9.3051,
      "duration": 0.0161,
      "velocity": 101,
      "chip": "ym2612"
    },
    {
      "channel": 0,
      "note": 43,
      "start": 9.3166,
      "duration": 0.0161,
      "velocity": 115,
      "chip": "ym2612"
    },
    {
      "channel": 4,
      "note": 54,
      "start": 9.3178,
      "duration": 0.0161,
      "velocity": 101,
      "chip": "ym2612"
    },
    {
      "channel": 3,
      "note": 57,
      "start": 9.319,
      "duration": 0.0161,
      "velocity": 101,
      "chip": "ym2612"
    },
    {
      "channel": 1,
      "note": 62,
      "start": 9.3212,
      "duration": 0.0161,
      "velocity": 101,
      "chip": "ym2612"
    },
    {
      "channel": 0,
      "note": 44,
      "start": 9.3327,
      "duration": 0.0161,
      "velocity": 115,
      "chip": "ym2612"
    },
    {
      "channel": 4,
      "note": 54,
      "start": 9.3339,
      "duration": 0.0161,
      "velocity": 101,
      "chip": "ym2612"
    },
    {
      "channel": 3,
      "note": 57,
      "start": 9.3351,
      "duration": 0.0161,
      "velocity": 101,
      "chip": "ym2612"
    },
    {
      "channel": 1,
      "note": 62,
      "start": 9.3373,
      "duration": 0.0161,
      "velocity": 101,
      "chip": "ym2612"
    },
    {
      "channel": 0,
      "note": 44,
      "start": 9.3488,
      "duration": 0.0161,
      "velocity": 115,
      "chip": "ym2612"
    },
    {
      "channel": 4,
      "note": 54,
      "start": 9.35,
      "duration": 0.0161,
      "velocity": 101,
      "chip": "ym2612"
    },
    {
      "channel": 3,
      "note": 57,
      "start": 9.3512,
      "duration": 0.0161,
      "velocity": 101,
      "chip": "ym2612"
    },
    {
      "channel": 1,
      "note": 62,
      "start": 9.3534,
      "duration": 0.0161,
      "velocity": 101,
      "chip": "ym2612"
    },
    {
      "channel": 0,
      "note": 44,
      "start": 9.365,
      "duration": 0.0161,
      "velocity": 115,
      "chip": "ym2612"
    },
    {
      "channel": 4,
      "note": 54,
      "start": 9.3661,
      "duration": 0.0161,
      "velocity": 101,
      "chip": "ym2612"
    },
    {
      "channel": 3,
      "note": 57,
      "start": 9.3673,
      "duration": 0.0161,
      "velocity": 101,
      "chip": "ym2612"
    },
    {
      "channel": 1,
      "note": 62,
      "start": 9.3695,
      "duration": 0.0161,
      "velocity": 101,
      "chip": "ym2612"
    },
    {
      "channel": 0,
      "note": 45,
      "start": 9.3811,
      "duration": 0.0161,
      "velocity": 115,
      "chip": "ym2612"
    },
    {
      "channel": 4,
      "note": 54,
      "start": 9.3822,
      "duration": 0.0161,
      "velocity": 101,
      "chip": "ym2612"
    },
    {
      "channel": 3,
      "note": 57,
      "start": 9.3834,
      "duration": 0.0161,
      "velocity": 101,
      "chip": "ym2612"
    },
    {
      "channel": 1,
      "note": 62,
      "start": 9.3856,
      "duration": 0.0161,
      "velocity": 101,
      "chip": "ym2612"
    },
    {
      "channel": 0,
      "note": 45,
      "start": 9.3972,
      "duration": 0.0161,
      "velocity": 115,
      "chip": "ym2612"
    },
    {
      "channel": 4,
      "note": 54,
      "start": 9.3983,
      "duration": 0.0161,
      "velocity": 101,
      "chip": "ym2612"
    },
    {
      "channel": 3,
      "note": 57,
      "start": 9.3995,
      "duration": 0.0161,
      "velocity": 101,
      "chip": "ym2612"
    },
    {
      "channel": 1,
      "note": 62,
      "start": 9.4017,
      "duration": 0.0161,
      "velocity": 101,
      "chip": "ym2612"
    },
    {
      "channel": 0,
      "note": 46,
      "start": 9.4132,
      "duration": 0.0161,
      "velocity": 115,
      "chip": "ym2612"
    },
    {
      "channel": 4,
      "note": 54,
      "start": 9.4144,
      "duration": 0.0161,
      "velocity": 101,
      "chip": "ym2612"
    },
    {
      "channel": 3,
      "note": 57,
      "start": 9.4155,
      "duration": 0.0161,
      "velocity": 101,
      "chip": "ym2612"
    },
    {
      "channel": 1,
      "note": 62,
      "start": 9.4178,
      "duration": 0.0161,
      "velocity": 101,
      "chip": "ym2612"
    },
    {
      "channel": 0,
      "note": 46,
      "start": 9.4293,
      "duration": 0.0165,
      "velocity": 115,
      "chip": "ym2612"
    },
    {
      "channel": 4,
      "note": 54,
      "start": 9.4305,
      "duration": 0.0165,
      "velocity": 101,
      "chip": "ym2612"
    },
    {
      "channel": 3,
      "note": 57,
      "start": 9.4316,
      "duration": 0.0165,
      "velocity": 101,
      "chip": "ym2612"
    },
    {
      "channel": 1,
      "note": 62,
      "start": 9.4339,
      "duration": 0.0165,
      "velocity": 101,
      "chip": "ym2612"
    },
    {
      "channel": 0,
      "note": 47,
      "start": 9.4458,
      "duration": 0.0163,
      "velocity": 115,
      "chip": "ym2612"
    },
    {
      "channel": 4,
      "note": 54,
      "start": 9.447,
      "duration": 0.0163,
      "velocity": 101,
      "chip": "ym2612"
    },
    {
      "channel": 3,
      "note": 57,
      "start": 9.4481,
      "duration": 0.0163,
      "velocity": 101,
      "chip": "ym2612"
    },
    {
      "channel": 1,
      "note": 62,
      "start": 9.4504,
      "duration": 0.0163,
      "velocity": 101,
      "chip": "ym2612"
    },
    {
      "channel": 0,
      "note": 47,
      "start": 9.4621,
      "duration": 0.0155,
      "velocity": 115,
      "chip": "ym2612"
    },
    {
      "channel": 4,
      "note": 54,
      "start": 9.4632,
      "duration": 0.0156,
      "velocity": 101,
      "chip": "ym2612"
    },
    {
      "channel": 3,
      "note": 57,
      "start": 9.4644,
      "duration": 0.0156,
      "velocity": 101,
      "chip": "ym2612"
    },
    {
      "channel": 1,
      "note": 62,
      "start": 9.4667,
      "duration": 0.0155,
      "velocity": 101,
      "chip": "ym2612"
    },
    {
      "channel": 0,
      "note": 47,
      "start": 9.4776,
      "duration": 0.0182,
      "velocity": 115,
      "chip": "ym2612"
    },
    {
      "channel": 4,
      "note": 54,
      "start": 9.4788,
      "duration": 0.0181,
      "velocity": 101,
      "chip": "ym2612"
    },
    {
      "channel": 3,
      "note": 57,
      "start": 9.48,
      "duration": 0.0181,
      "velocity": 101,
      "chip": "ym2612"
    },
    {
      "channel": 1,
      "note": 62,
      "start": 9.4822,
      "duration": 0.0182,
      "velocity": 101,
      "chip": "ym2612"
    },
    {
      "channel": 0,
      "note": 48,
      "start": 9.4958,
      "duration": 0.0184,
      "velocity": 124,
      "chip": "ym2612"
    },
    {
      "channel": 4,
      "note": 54,
      "start": 9.497,
      "duration": 0.0185,
      "velocity": 101,
      "chip": "ym2612"
    },
    {
      "channel": 3,
      "note": 57,
      "start": 9.4981,
      "duration": 0.0184,
      "velocity": 101,
      "chip": "ym2612"
    },
    {
      "channel": 1,
      "note": 62,
      "start": 9.5004,
      "duration": 0.0184,
      "velocity": 101,
      "chip": "ym2612"
    },
    {
      "channel": 0,
      "note": 84,
      "start": 9.5143,
      "duration": 0.0141,
      "velocity": 124,
      "chip": "ym2612"
    },
    {
      "channel": 4,
      "note": 54,
      "start": 9.5154,
      "duration": 0.0141,
      "velocity": 101,
      "chip": "ym2612"
    },
    {
      "channel": 3,
      "note": 57,
      "start": 9.5166,
      "duration": 0.0141,
      "velocity": 101,
      "chip": "ym2612"
    },
    {
      "channel": 1,
      "note": 62,
      "start": 9.5188,
      "duration": 0.0141,
      "velocity": 101,
      "chip": "ym2612"
    },
    {
      "channel": 0,
      "note": 82,
      "start": 9.5284,
      "duration": 0.014,
      "velocity": 124,
      "chip": "ym2612"
    },
    {
      "channel": 4,
      "note": 54,
      "start": 9.5295,
      "duration": 0.014,
      "velocity": 101,
      "chip": "ym2612"
    },
    {
      "channel": 3,
      "note": 57,
      "start": 9.5307,
      "duration": 0.014,
      "velocity": 101,
      "chip": "ym2612"
    },
    {
      "channel": 1,
      "note": 62,
      "start": 9.533,
      "duration": 0.014,
      "velocity": 101,
      "chip": "ym2612"
    },
    {
      "channel": 0,
      "note": 80,
      "start": 9.5424,
      "duration": 0.0185,
      "velocity": 124,
      "chip": "ym2612"
    },
    {
      "channel": 4,
      "note": 54,
      "start": 9.5435,
      "duration": 0.0185,
      "velocity": 101,
      "chip": "ym2612"
    },
    {
      "channel": 3,
      "note": 57,
      "start": 9.5447,
      "duration": 0.0185,
      "velocity": 101,
      "chip": "ym2612"
    },
    {
      "channel": 1,
      "note": 62,
      "start": 9.547,
      "duration": 0.0185,
      "velocity": 101,
      "chip": "ym2612"
    },
    {
      "channel": 0,
      "note": 77,
      "start": 9.5609,
      "duration": 0.0134,
      "velocity": 124,
      "chip": "ym2612"
    },
    {
      "channel": 4,
      "note": 54,
      "start": 9.562,
      "duration": 0.0162,
      "velocity": 101,
      "chip": "ym2612"
    },
    {
      "channel": 3,
      "note": 57,
      "start": 9.5632,
      "duration": 0.0161,
      "velocity": 101,
      "chip": "ym2612"
    },
    {
      "channel": 1,
      "note": 62,
      "start": 9.5655,
      "duration": 0.0161,
      "velocity": 101,
      "chip": "ym2612"
    },
    {
      "channel": 0,
      "note": 75,
      "start": 9.5743,
      "duration": 0.0161,
      "velocity": 124,
      "chip": "ym2612"
    },
    {
      "channel": 4,
      "note": 54,
      "start": 9.5782,
      "duration": 0.0157,
      "velocity": 101,
      "chip": "ym2612"
    },
    {
      "channel": 3,
      "note": 57,
      "start": 9.5793,
      "duration": 0.0157,
      "velocity": 101,
      "chip": "ym2612"
    },
    {
      "channel": 1,
      "note": 62,
      "start": 9.5816,
      "duration": 0.0158,
      "velocity": 101,
      "chip": "ym2612"
    },
    {
      "channel": 0,
      "note": 72,
      "start": 9.5904,
      "duration": 0.0161,
      "velocity": 124,
      "chip": "ym2612"
    },
    {
      "channel": 4,
      "note": 54,
      "start": 9.5939,
      "duration": 0.0137,
      "velocity": 101,
      "chip": "ym2612"
    },
    {
      "channel": 3,
      "note": 57,
      "start": 9.5951,
      "duration": 0.0141,
      "velocity": 101,
      "chip": "ym2612"
    },
    {
      "channel": 1,
      "note": 62,
      "start": 9.5973,
      "duration": 0.0141,
      "velocity": 101,
      "chip": "ym2612"
    },
    {
      "channel": 0,
      "note": 70,
      "start": 9.6064,
      "duration": 0.0161,
      "velocity": 124,
      "chip": "ym2612"
    },
    {
      "channel": 4,
      "note": 54,
      "start": 9.6077,
      "duration": 0.0161,
      "velocity": 101,
      "chip": "ym2612"
    },
    {
      "channel": 3,
      "note": 57,
      "start": 9.6091,
      "duration": 0.0185,
      "velocity": 101,
      "chip": "ym2612"
    },
    {
      "channel": 1,
      "note": 62,
      "start": 9.6114,
      "duration": 0.0185,
      "velocity": 101,
      "chip": "ym2612"
    },
    {
      "channel": 0,
      "note": 68,
      "start": 9.6225,
      "duration": 0.0161,
      "velocity": 124,
      "chip": "ym2612"
    },
    {
      "channel": 4,
      "note": 54,
      "start": 9.6237,
      "duration": 0.0161,
      "velocity": 101,
      "chip": "ym2612"
    },
    {
      "channel": 3,
      "note": 57,
      "start": 9.6276,
      "duration": 0.0134,
      "velocity": 101,
      "chip": "ym2612"
    },
    {
      "channel": 1,
      "note": 62,
      "start": 9.6299,
      "duration": 0.0161,
      "velocity": 101,
      "chip": "ym2612"
    },
    {
      "channel": 0,
      "note": 65,
      "start": 9.6386,
      "duration": 0.0161,
      "velocity": 124,
      "chip": "ym2612"
    },
    {
      "channel": 4,
      "note": 54,
      "start": 9.6398,
      "duration": 0.0161,
      "velocity": 101,
      "chip": "ym2612"
    },
    {
      "channel": 3,
      "note": 57,
      "start": 9.641,
      "duration": 0.0161,
      "velocity": 101,
      "chip": "ym2612"
    },
    {
      "channel": 1,
      "note": 62,
      "start": 9.646,
      "duration": 0.0157,
      "velocity": 101,
      "chip": "ym2612"
    },
    {
      "channel": 0,
      "note": 63,
      "start": 9.6548,
      "duration": 0.0153,
      "velocity": 1,
      "chip": "ym2612"
    },
    {
      "channel": 4,
      "note": 54,
      "start": 9.6559,
      "duration": 0.0153,
      "velocity": 101,
      "chip": "ym2612"
    },
    {
      "channel": 3,
      "note": 57,
      "start": 9.6571,
      "duration": 0.0153,
      "velocity": 101,
      "chip": "ym2612"
    },
    {
      "channel": 1,
      "note": 62,
      "start": 9.6617,
      "duration": 0.0132,
      "velocity": 101,
      "chip": "ym2612"
    },
    {
      "channel": 4,
      "note": 54,
      "start": 9.6712,
      "duration": 0.0153,
      "velocity": 101,
      "chip": "ym2612"
    },
    {
      "channel": 3,
      "note": 57,
      "start": 9.6724,
      "duration": 0.0153,
      "velocity": 101,
      "chip": "ym2612"
    },
    {
      "channel": 1,
      "note": 62,
      "start": 9.675,
      "duration": 0.0149,
      "velocity": 101,
      "chip": "ym2612"
    },
    {
      "channel": 4,
      "note": 54,
      "start": 9.6865,
      "duration": 0.0161,
      "velocity": 101,
      "chip": "ym2612"
    },
    {
      "channel": 3,
      "note": 57,
      "start": 9.6876,
      "duration": 0.0161,
      "velocity": 101,
      "chip": "ym2612"
    },
    {
      "channel": 1,
      "note": 62,
      "start": 9.6899,
      "duration": 0.0161,
      "velocity": 101,
      "chip": "ym2612"
    },
    {
      "channel": 4,
      "note": 54,
      "start": 9.7026,
      "duration": 0.0161,
      "velocity": 101,
      "chip": "ym2612"
    },
    {
      "channel": 3,
      "note": 57,
      "start": 9.7037,
      "duration": 0.0161,
      "velocity": 101,
      "chip": "ym2612"
    },
    {
      "channel": 1,
      "note": 62,
      "start": 9.706,
      "duration": 0.0161,
      "velocity": 101,
      "chip": "ym2612"
    },
    {
      "channel": 4,
      "note": 54,
      "start": 9.7187,
      "duration": 0.0198,
      "velocity": 101,
      "chip": "ym2612"
    },
    {
      "channel": 3,
      "note": 57,
      "start": 9.7198,
      "duration": 0.02,
      "velocity": 101,
      "chip": "ym2612"
    },
    {
      "channel": 1,
      "note": 62,
      "start": 9.7221,
      "duration": 0.0206,
      "velocity": 101,
      "chip": "ym2612"
    },
    {
      "channel": 0,
      "note": 36,
      "start": 9.7371,
      "duration": 0.0144,
      "velocity": 115,
      "chip": "ym2612"
    },
    {
      "channel": 4,
      "note": 56,
      "start": 9.7385,
      "duration": 0.0141,
      "velocity": 101,
      "chip": "ym2612"
    },
    {
      "channel": 3,
      "note": 59,
      "start": 9.7399,
      "duration": 0.0139,
      "velocity": 101,
      "chip": "ym2612"
    },
    {
      "channel": 1,
      "note": 64,
      "start": 9.7428,
      "duration": 0.0134,
      "velocity": 101,
      "chip": "ym2612"
    },
    {
      "channel": 0,
      "note": 36,
      "start": 9.7514,
      "duration": 0.016,
      "velocity": 115,
      "chip": "ym2612"
    },
    {
      "channel": 4,
      "note": 56,
      "start": 9.7526,
      "duration": 0.016,
      "velocity": 101,
      "chip": "ym2612"
    },
    {
      "channel": 3,
      "note": 59,
      "start": 9.7538,
      "duration": 0.016,
      "velocity": 101,
      "chip": "ym2612"
    },
    {
      "channel": 1,
      "note": 64,
      "start": 9.7562,
      "duration": 0.0159,
      "velocity": 101,
      "chip": "ym2612"
    },
    {
      "channel": 0,
      "note": 37,
      "start": 9.7675,
      "duration": 0.0161,
      "velocity": 115,
      "chip": "ym2612"
    },
    {
      "channel": 4,
      "note": 56,
      "start": 9.7687,
      "duration": 0.0161,
      "velocity": 101,
      "chip": "ym2612"
    },
    {
      "channel": 3,
      "note": 59,
      "start": 9.7698,
      "duration": 0.0161,
      "velocity": 101,
      "chip": "ym2612"
    },
    {
      "channel": 1,
      "note": 64,
      "start": 9.772,
      "duration": 0.0161,
      "velocity": 101,
      "chip": "ym2612"
    },
    {
      "channel": 0,
      "note": 37,
      "start": 9.7835,
      "duration": 0.0161,
      "velocity": 115,
      "chip": "ym2612"
    },
    {
      "channel": 4,
      "note": 56,
      "start": 9.7848,
      "duration": 0.0161,
      "velocity": 101,
      "chip": "ym2612"
    },
    {
      "channel": 3,
      "note": 59,
      "start": 9.7859,
      "duration": 0.0161,
      "velocity": 101,
      "chip": "ym2612"
    },
    {
      "channel": 1,
      "note": 64,
      "start": 9.7881,
      "duration": 0.0162,
      "velocity": 101,
      "chip": "ym2612"
    },
    {
      "channel": 0,
      "note": 38,
      "start": 9.7996,
      "duration": 0.0162,
      "velocity": 115,
      "chip": "ym2612"
    },
    {
      "channel": 4,
      "note": 56,
      "start": 9.8008,
      "duration": 0.0161,
      "velocity": 101,
      "chip": "ym2612"
    },
    {
      "channel": 3,
      "note": 59,
      "start": 9.802,
      "duration": 0.0161,
      "velocity": 101,
      "chip": "ym2612"
    },
    {
      "channel": 1,
      "note": 64,
      "start": 9.8043,
      "duration": 0.0161,
      "velocity": 101,
      "chip": "ym2612"
    },
    {
      "channel": 0,
      "note": 38,
      "start": 9.8158,
      "duration": 0.0161,
      "velocity": 115,
      "chip": "ym2612"
    },
    {
      "channel": 4,
      "note": 56,
      "start": 9.8169,
      "duration": 0.0161,
      "velocity": 101,
      "chip": "ym2612"
    },
    {
      "channel": 3,
      "note": 59,
      "start": 9.8181,
      "duration": 0.0161,
      "velocity": 101,
      "chip": "ym2612"
    },
    {
      "channel": 1,
      "note": 64,
      "start": 9.8204,
      "duration": 0.0161,
      "velocity": 101,
      "chip": "ym2612"
    },
    {
      "channel": 0,
      "note": 39,
      "start": 9.8319,
      "duration": 0.0161,
      "velocity": 115,
      "chip": "ym2612"
    },
    {
      "channel": 4,
      "note": 56,
      "start": 9.833,
      "duration": 0.0161,
      "velocity": 101,
      "chip": "ym2612"
    },
    {
      "channel": 3,
      "note": 59,
      "start": 9.8342,
      "duration": 0.0161,
      "velocity": 101,
      "chip": "ym2612"
    },
    {
      "channel": 1,
      "note": 64,
      "start": 9.8365,
      "duration": 0.0161,
      "velocity": 101,
      "chip": "ym2612"
    },
    {
      "channel": 0,
      "note": 39,
      "start": 9.848,
      "duration": 0.0161,
      "velocity": 115,
      "chip": "ym2612"
    },
    {
      "channel": 4,
      "note": 56,
      "start": 9.8491,
      "duration": 0.0161,
      "velocity": 101,
      "chip": "ym2612"
    },
    {
      "channel": 3,
      "note": 59,
      "start": 9.8503,
      "duration": 0.0161,
      "velocity": 101,
      "chip": "ym2612"
    },
    {
      "channel": 1,
      "note": 64,
      "start": 9.8526,
      "duration": 0.0161,
      "velocity": 101,
      "chip": "ym2612"
    },
    {
      "channel": 0,
      "note": 40,
      "start": 9.8641,
      "duration": 0.0161,
      "velocity": 115,
      "chip": "ym2612"
    },
    {
      "channel": 4,
      "note": 56,
      "start": 9.8652,
      "duration": 0.0161,
      "velocity": 101,
      "chip": "ym2612"
    },
    {
      "channel": 3,
      "note": 59,
      "start": 9.8664,
      "duration": 0.0161,
      "velocity": 101,
      "chip": "ym2612"
    },
    {
      "channel": 1,
      "note": 64,
      "start": 9.8687,
      "duration": 0.0161,
      "velocity": 101,
      "chip": "ym2612"
    },
    {
      "channel": 0,
      "note": 40,
      "start": 9.8802,
      "duration": 0.0161,
      "velocity": 115,
      "chip": "ym2612"
    },
    {
      "channel": 4,
      "note": 56,
      "start": 9.8813,
      "duration": 0.0161,
      "velocity": 101,
      "chip": "ym2612"
    },
    {
      "channel": 3,
      "note": 59,
      "start": 9.8825,
      "duration": 0.0161,
      "velocity": 101,
      "chip": "ym2612"
    },
    {
      "channel": 1,
      "note": 64,
      "start": 9.8848,
      "duration": 0.0161,
      "velocity": 101,
      "chip": "ym2612"
    },
    {
      "channel": 0,
      "note": 40,
      "start": 9.8963,
      "duration": 0.0162,
      "velocity": 115,
      "chip": "ym2612"
    },
    {
      "channel": 4,
      "note": 56,
      "start": 9.8974,
      "duration": 0.0162,
      "velocity": 101,
      "chip": "ym2612"
    },
    {
      "channel": 3,
      "note": 59,
      "start": 9.8985,
      "duration": 0.0162,
      "velocity": 101,
      "chip": "ym2612"
    },
    {
      "channel": 1,
      "note": 64,
      "start": 9.9008,
      "duration": 0.0162,
      "velocity": 101,
      "chip": "ym2612"
    },
    {
      "channel": 0,
      "note": 41,
      "start": 9.9125,
      "duration": 0.0163,
      "velocity": 115,
      "chip": "ym2612"
    },
    {
      "channel": 4,
      "note": 56,
      "start": 9.9136,
      "duration": 0.0163,
      "velocity": 101,
      "chip": "ym2612"
    },
    {
      "channel": 3,
      "note": 59,
      "start": 9.9148,
      "duration": 0.0163,
      "velocity": 101,
      "chip": "ym2612"
    },
    {
      "channel": 1,
      "note": 64,
      "start": 9.9171,
      "duration": 0.0163,
      "velocity": 101,
      "chip": "ym2612"
    },
    {
      "channel": 0,
      "note": 41,
      "start": 9.9288,
      "duration": 0.0158,
      "velocity": 115,
      "chip": "ym2612"
    },
    {
      "channel": 4,
      "note": 56,
      "start": 9.9299,
      "duration": 0.0159,
      "velocity": 101,
      "chip": "ym2612"
    },
    {
      "channel": 3,
      "note": 59,
      "start": 9.9311,
      "duration": 0.0159,
      "velocity": 101,
      "chip": "ym2612"
    },
    {
      "channel": 1,
      "note": 64,
      "start": 9.9334,
      "duration": 0.0158,
      "velocity": 101,
      "chip": "ym2612"
    },
    {
      "channel": 0,
      "note": 42,
      "start": 9.9446,
      "duration": 0.0197,
      "velocity": 115,
      "chip": "ym2612"
    },
    {
      "channel": 4,
      "note": 56,
      "start": 9.9458,
      "duration": 0.0197,
      "velocity": 101,
      "chip": "ym2612"
    },
    {
      "channel": 3,
      "note": 59,
      "start": 9.9469,
      "duration": 0.0196,
      "velocity": 101,
      "chip": "ym2612"
    },
    {
      "channel": 1,
      "note": 64,
      "start": 9.9491,
      "duration": 0.0197,
      "velocity": 101,
      "chip": "ym2612"
    },
    {
      "channel": 0,
      "note": 36,
      "start": 9.9643,
      "duration": 0.015,
      "velocity": 115,
      "chip": "ym2612"
    },
    {
      "channel": 4,
      "note": 56,
      "start": 9.9654,
      "duration": 0.0149,
      "velocity": 101,
      "chip": "ym2612"
    },
    {
      "channel": 3,
      "note": 59,
      "start": 9.9666,
      "duration": 0.015,
      "velocity": 101,
      "chip": "ym2612"
    },
    {
      "channel": 1,
      "note": 64,
      "start": 9.9688,
      "duration": 0.015,
      "velocity": 101,
      "chip": "ym2612"
    },
    {
      "channel": 0,
      "note": 36,
      "start": 9.9792,
      "duration": 0.016,
      "velocity": 115,
      "chip": "ym2612"
    },
    {
      "channel": 4,
      "note": 56,
      "start": 9.9804,
      "duration": 0.0161,
      "velocity": 101,
      "chip": "ym2612"
    },
    {
      "channel": 3,
      "note": 59,
      "start": 9.9815,
      "duration": 0.0161,
      "velocity": 101,
      "chip": "ym2612"
    },
    {
      "channel": 1,
      "note": 64,
      "start": 9.9838,
      "duration": 0.016,
      "velocity": 101,
      "chip": "ym2612"
    },
    {
      "channel": 0,
      "note": 37,
      "start": 9.9953,
      "duration": 0.0141,
      "velocity": 115,
      "chip": "ym2612"
    },
    {
      "channel": 4,
      "note": 56,
      "start": 9.9965,
      "duration": 0.014,
      "velocity": 101,
      "chip": "ym2612"
    },
    {
      "channel": 3,
      "note": 59,
      "start": 9.9976,
      "duration": 0.014,
      "velocity": 101,
      "chip": "ym2612"
    },
    {
      "channel": 1,
      "note": 64,
      "start": 9.9998,
      "duration": 0.0141,
      "velocity": 101,
      "chip": "ym2612"
    },
    {
      "channel": 0,
      "note": 37,
      "start": 10.0093,
      "duration": 0.0185,
      "velocity": 115,
      "chip": "ym2612"
    },
    {
      "channel": 4,
      "note": 56,
      "start": 10.0105,
      "duration": 0.0185,
      "velocity": 101,
      "chip": "ym2612"
    },
    {
      "channel": 3,
      "note": 59,
      "start": 10.0116,
      "duration": 0.0185,
      "velocity": 101,
      "chip": "ym2612"
    },
    {
      "channel": 1,
      "note": 64,
      "start": 10.0139,
      "duration": 0.0185,
      "velocity": 101,
      "chip": "ym2612"
    },
    {
      "channel": 0,
      "note": 38,
      "start": 10.0278,
      "duration": 0.0161,
      "velocity": 115,
      "chip": "ym2612"
    },
    {
      "channel": 4,
      "note": 56,
      "start": 10.029,
      "duration": 0.0162,
      "velocity": 101,
      "chip": "ym2612"
    },
    {
      "channel": 3,
      "note": 59,
      "start": 10.0301,
      "duration": 0.0161,
      "velocity": 101,
      "chip": "ym2612"
    },
    {
      "channel": 1,
      "note": 64,
      "start": 10.0324,
      "duration": 0.0161,
      "velocity": 101,
      "chip": "ym2612"
    },
    {
      "channel": 0,
      "note": 38,
      "start": 10.0439,
      "duration": 0.0134,
      "velocity": 115,
      "chip": "ym2612"
    },
    {
      "channel": 4,
      "note": 56,
      "start": 10.0451,
      "duration": 0.0157,
      "velocity": 101,
      "chip": "ym2612"
    },
    {
      "channel": 3,
      "note": 59,
      "start": 10.0463,
      "duration": 0.0157,
      "velocity": 101,
      "chip": "ym2612"
    },
    {
      "channel": 1,
      "note": 64,
      "start": 10.0485,
      "duration": 0.0158,
      "velocity": 101,
      "chip": "ym2612"
    },
    {
      "channel": 0,
      "note": 39,
      "start": 10.0573,
      "duration": 0.0161,
      "velocity": 115,
      "chip": "ym2612"
    },
    {
      "channel": 4,
      "note": 56,
      "start": 10.0608,
      "duration": 0.0141,
      "velocity": 101,
      "chip": "ym2612"
    },
    {
      "channel": 3,
      "note": 59,
      "start": 10.062,
      "duration": 0.0141,
      "velocity": 101,
      "chip": "ym2612"
    },
    {
      "channel": 1,
      "note": 64,
      "start": 10.0643,
      "duration": 0.0141,
      "velocity": 101,
      "chip": "ym2612"
    },
    {
      "channel": 0,
      "note": 39,
      "start": 10.0734,
      "duration": 0.0161,
      "velocity": 115,
      "chip": "ym2612"
    },
    {
      "channel": 4,
      "note": 56,
      "start": 10.0749,
      "duration": 0.0158,
      "velocity": 101,
      "chip": "ym2612"
    },
    {
      "channel": 3,
      "note": 59,
      "start": 10.076,
      "duration": 0.0185,
      "velocity": 101,
      "chip": "ym2612"
    },
    {
      "channel": 1,
      "note": 64,
      "start": 10.0783,
      "duration": 0.0185,
      "velocity": 101,
      "chip": "ym2612"
    },
    {
      "channel": 0,
      "note": 40,
      "start": 10.0895,
      "duration": 0.0162,
      "velocity": 115,
      "chip": "ym2612"
    },
    {
      "channel": 4,
      "note": 56,
      "start": 10.0907,
      "duration": 0.0161,
      "velocity": 101,
      "chip": "ym2612"
    },
    {
      "channel": 3,
      "note": 59,
      "start": 10.0946,
      "duration": 0.0161,
      "velocity": 101,
      "chip": "ym2612"
    },
    {
      "channel": 1,
      "note": 64,
      "start": 10.0968,
      "duration": 0.0161,
      "velocity": 101,
      "chip": "ym2612"
    },
    {
      "channel": 0,
      "note": 40,
      "start": 10.1056,
      "duration": 0.0161,
      "velocity": 115,
      "chip": "ym2612"
    },
    {
      "channel": 4,
      "note": 56,
      "start": 10.1068,
      "duration": 0.0161,
      "velocity": 101,
      "chip": "ym2612"
    },
    {
      "channel": 3,
      "note": 59,
      "start": 10.1106,
      "duration": 0.0134,
      "velocity": 101,
      "chip": "ym2612"
    },
    {
      "channel": 1,
      "note": 64,
      "start": 10.1129,
      "duration": 0.0157,
      "velocity": 101,
      "chip": "ym2612"
    },
    {
      "channel": 0,
      "note": 40,
      "start": 10.1217,
      "duration": 0.0161,
      "velocity": 115,
      "chip": "ym2612"
    },
    {
      "channel": 4,
      "note": 56,
      "start": 10.1229,
      "duration": 0.0161,
      "velocity": 101,
      "chip": "ym2612"
    },
    {
      "channel": 3,
      "note": 59,
      "start": 10.124,
      "duration": 0.0161,
      "velocity": 101,
      "chip": "ym2612"
    },
    {
      "channel": 1,
      "note": 64,
      "start": 10.1286,
      "duration": 0.0141,
      "velocity": 101,
      "chip": "ym2612"
    },
    {
      "channel": 0,
      "note": 41,
      "start": 10.1378,
      "duration": 0.0161,
      "velocity": 115,
      "chip": "ym2612"
    },
    {
      "channel": 4,
      "note": 56,
      "start": 10.139,
      "duration": 0.0161,
      "velocity": 101,
      "chip": "ym2612"
    },
    {
      "channel": 3,
      "note": 59,
      "start": 10.1401,
      "duration": 0.0161,
      "velocity": 101,
      "chip": "ym2612"
    },
    {
      "channel": 1,
      "note": 64,
      "start": 10.1427,
      "duration": 0.0185,
      "velocity": 101,
      "chip": "ym2612"
    },
    {
      "channel": 0,
      "note": 41,
      "start": 10.1539,
      "duration": 0.0161,
      "velocity": 115,
      "chip": "ym2612"
    },
    {
      "channel": 4,
      "note": 56,
      "start": 10.1551,
      "duration": 0.0161,
      "velocity": 101,
      "chip": "ym2612"
    },
    {
      "channel": 3,
      "note": 59,
      "start": 10.1562,
      "duration": 0.0161,
      "velocity": 101,
      "chip": "ym2612"
    },
    {
      "channel": 1,
      "note": 64,
      "start": 10.1612,
      "duration": 0.0161,
      "velocity": 101,
      "chip": "ym2612"
    },
    {
      "channel": 0,
      "note": 42,
      "start": 10.17,
      "duration": 0.0179,
      "velocity": 115,
      "chip": "ym2612"
    },
    {
      "channel": 4,
      "note": 56,
      "start": 10.1711,
      "duration": 0.0179,
      "velocity": 101,
      "chip": "ym2612"
    },
    {
      "channel": 3,
      "note": 59,
      "start": 10.1723,
      "duration": 0.0179,
      "velocity": 101,
      "chip": "ym2612"
    },
    {
      "channel": 1,
      "note": 64,
      "start": 10.1773,
      "duration": 0.0176,
      "velocity": 101,
      "chip": "ym2612"
    },
    {
      "channel": 0,
      "note": 36,
      "start": 10.1879,
      "duration": 0.0144,
      "velocity": 115,
      "chip": "ym2612"
    },
    {
      "channel": 4,
      "note": 56,
      "start": 10.1891,
      "duration": 0.0143,
      "velocity": 101,
      "chip": "ym2612"
    },
    {
      "channel": 3,
      "note": 59,
      "start": 10.1902,
      "duration": 0.0143,
      "velocity": 101,
      "chip": "ym2612"
    },
    {
      "channel": 1,
      "note": 64,
      "start": 10.1949,
      "duration": 0.012,
      "velocity": 101,
      "chip": "ym2612"
    },
    {
      "channel": 0,
      "note": 36,
      "start": 10.2022,
      "duration": 0.016,
      "velocity": 115,
      "chip": "ym2612"
    },
    {
      "channel": 4,
      "note": 56,
      "start": 10.2034,
      "duration": 0.0161,
      "velocity": 101,
      "chip": "ym2612"
    },
    {
      "channel": 3,
      "note": 59,
      "start": 10.2045,
      "duration": 0.0161,
      "velocity": 101,
      "chip": "ym2612"
    },
    {
      "channel": 1,
      "note": 64,
      "start": 10.2068,
      "duration": 0.016,
      "velocity": 101,
      "chip": "ym2612"
    },
    {
      "channel": 0,
      "note": 37,
      "start": 10.2183,
      "duration": 0.0161,
      "velocity": 115,
      "chip": "ym2612"
    },
    {
      "channel": 4,
      "note": 56,
      "start": 10.2195,
      "duration": 0.0161,
      "velocity": 101,
      "chip": "ym2612"
    },
    {
      "channel": 3,
      "note": 59,
      "start": 10.2206,
      "duration": 0.0161,
      "velocity": 101,
      "chip": "ym2612"
    },
    {
      "channel": 1,
      "note": 64,
      "start": 10.2229,
      "duration": 0.0161,
      "velocity": 101,
      "chip": "ym2612"
    },
    {
      "channel": 0,
      "note": 37,
      "start": 10.2344,
      "duration": 0.0161,
      "velocity": 115,
      "chip": "ym2612"
    },
    {
      "channel": 4,
      "note": 56,
      "start": 10.2356,
      "duration": 0.0161,
      "velocity": 101,
      "chip": "ym2612"
    },
    {
      "channel": 3,
      "note": 59,
      "start": 10.2367,
      "duration": 0.0161,
      "velocity": 101,
      "chip": "ym2612"
    },
    {
      "channel": 1,
      "note": 64,
      "start": 10.239,
      "duration": 0.0161,
      "velocity": 101,
      "chip": "ym2612"
    },
    {
      "channel": 0,
      "note": 38,
      "start": 10.2505,
      "duration": 0.0161,
      "velocity": 115,
      "chip": "ym2612"
    },
    {
      "channel": 4,
      "note": 56,
      "start": 10.2517,
      "duration": 0.0161,
      "velocity": 101,
      "chip": "ym2612"
    },
    {
      "channel": 3,
      "note": 59,
      "start": 10.2528,
      "duration": 0.0161,
      "velocity": 101,
      "chip": "ym2612"
    },
    {
      "channel": 1,
      "note": 64,
      "start": 10.2551,
      "duration": 0.0161,
      "velocity": 101,
      "chip": "ym2612"
    },
    {
      "channel": 0,
      "note": 38,
      "start": 10.2666,
      "duration": 0.0161,
      "velocity": 115,
      "chip": "ym2612"
    },
    {
      "channel": 4,
      "note": 56,
      "start": 10.2678,
      "duration": 0.0161,
      "velocity": 101,
      "chip": "ym2612"
    },
    {
      "channel": 3,
      "note": 59,
      "start": 10.2689,
      "duration": 0.0161,
      "velocity": 101,
      "chip": "ym2612"
    },
    {
      "channel": 1,
      "note": 64,
      "start": 10.2712,
      "duration": 0.0161,
      "velocity": 101,
      "chip": "ym2612"
    },
    {
      "channel": 0,
      "note": 39,
      "start": 10.2827,
      "duration": 0.0161,
      "velocity": 115,
      "chip": "ym2612"
    },
    {
      "channel": 4,
      "note": 56,
      "start": 10.2839,
      "duration": 0.0161,
      "velocity": 101,
      "chip": "ym2612"
    },
    {
      "channel": 3,
      "note": 59,
      "start": 10.285,
      "duration": 0.0161,
      "velocity": 101,
      "chip": "ym2612"
    },
    {
      "channel": 1,
      "note": 64,
      "start": 10.2873,
      "duration": 0.0161,
      "velocity": 101,
      "chip": "ym2612"
    },
    {
      "channel": 0,
      "note": 39,
      "start": 10.2988,
      "duration": 0.0161,
      "velocity": 115,
      "chip": "ym2612"
    },
    {
      "channel": 4,
      "note": 56,
      "start": 10.3,
      "duration": 0.0161,
      "velocity": 101,
      "chip": "ym2612"
    },
    {
      "channel": 3,
      "note": 59,
      "start": 10.3011,
      "duration": 0.0161,
      "velocity": 101,
      "chip": "ym2612"
    },
    {
      "channel": 1,
      "note": 64,
      "start": 10.3034,
      "duration": 0.0161,
      "velocity": 101,
      "chip": "ym2612"
    },
    {
      "channel": 0,
      "note": 40,
      "start": 10.3149,
      "duration": 0.0161,
      "velocity": 115,
      "chip": "ym2612"
    },
    {
      "channel": 4,
      "note": 56,
      "start": 10.3161,
      "duration": 0.0161,
      "velocity": 101,
      "chip": "ym2612"
    },
    {
      "channel": 3,
      "note": 59,
      "start": 10.3172,
      "duration": 0.0161,
      "velocity": 101,
      "chip": "ym2612"
    },
    {
      "channel": 1,
      "note": 64,
      "start": 10.3195,
      "duration": 0.0161,
      "velocity": 101,
      "chip": "ym2612"
    },
    {
      "channel": 0,
      "note": 40,
      "start": 10.331,
      "duration": 0.0161,
      "velocity": 115,
      "chip": "ym2612"
    },
    {
      "channel": 4,
      "note": 56,
      "start": 10.3322,
      "duration": 0.0161,
      "velocity": 101,
      "chip": "ym2612"
    },
    {
      "channel": 3,
      "note": 59,
      "start": 10.3333,
      "duration": 0.0161,
      "velocity": 101,
      "chip": "ym2612"
    },
    {
      "channel": 1,
      "note": 64,
      "start": 10.3356,
      "duration": 0.0161,
      "velocity": 101,
      "chip": "ym2612"
    },
    {
      "channel": 0,
      "note": 40,
      "start": 10.3471,
      "duration": 0.0161,
      "velocity": 115,
      "chip": "ym2612"
    },
    {
      "channel": 4,
      "note": 56,
      "start": 10.3482,
      "duration": 0.0162,
      "velocity": 101,
      "chip": "ym2612"
    },
    {
      "channel": 3,
      "note": 59,
      "start": 10.3494,
      "duration": 0.0161,
      "velocity": 101,
      "chip": "ym2612"
    },
    {
      "channel": 1,
      "note": 64,
      "start": 10.3517,
      "duration": 0.0161,
      "velocity": 101,
      "chip": "ym2612"
    },
    {
      "channel": 0,
      "note": 41,
      "start": 10.3632,
      "duration": 0.0161,
      "velocity": 115,
      "chip": "ym2612"
    },
    {
      "channel": 4,
      "note": 56,
      "start": 10.3644,
      "duration": 0.0161,
      "velocity": 101,
      "chip": "ym2612"
    },
    {
      "channel": 3,
      "note": 59,
      "start": 10.3655,
      "duration": 0.0161,
      "velocity": 101,
      "chip": "ym2612"
    },
    {
      "channel": 1,
      "note": 64,
      "start": 10.3678,
      "duration": 0.0161,
      "velocity": 101,
      "chip": "ym2612"
    },
    {
      "channel": 0,
      "note": 41,
      "start": 10.3793,
      "duration": 0.0162,
      "velocity": 115,
      "chip": "ym2612"
    },
    {
      "channel": 4,
      "note": 56,
      "start": 10.3805,
      "duration": 0.0161,
      "velocity": 101,
      "chip": "ym2612"
    },
    {
      "channel": 3,
      "note": 59,
      "start": 10.3816,
      "duration": 0.0162,
      "velocity": 101,
      "chip": "ym2612"
    },
    {
      "channel": 1,
      "note": 64,
      "start": 10.3839,
      "duration": 0.0162,
      "velocity": 101,
      "chip": "ym2612"
    },
    {
      "channel": 0,
      "note": 42,
      "start": 10.3954,
      "duration": 0.0178,
      "velocity": 124,
      "chip": "ym2612"
    },
    {
      "channel": 4,
      "note": 56,
      "start": 10.3966,
      "duration": 0.0178,
      "velocity": 101,
      "chip": "ym2612"
    },
    {
      "channel": 3,
      "note": 59,
      "start": 10.3978,
      "duration": 0.0178,
      "velocity": 101,
      "chip": "ym2612"
    },
    {
      "channel": 1,
      "note": 64,
      "start": 10.4,
      "duration": 0.0179,
      "velocity": 101,
      "chip": "ym2612"
    },
    {
      "channel": 0,
      "note": 84,
      "start": 10.4133,
      "duration": 0.0159,
      "velocity": 124,
      "chip": "ym2612"
    },
    {
      "channel": 4,
      "note": 56,
      "start": 10.4145,
      "duration": 0.0159,
      "velocity": 101,
      "chip": "ym2612"
    },
    {
      "channel": 3,
      "note": 59,
      "start": 10.4156,
      "duration": 0.0159,
      "velocity": 101,
      "chip": "ym2612"
    },
    {
      "channel": 1,
      "note": 64,
      "start": 10.4179,
      "duration": 0.0159,
      "velocity": 101,
      "chip": "ym2612"
    },
    {
      "channel": 0,
      "note": 82,
      "start": 10.4292,
      "duration": 0.0166,
      "velocity": 124,
      "chip": "ym2612"
    },
    {
      "channel": 4,
      "note": 56,
      "start": 10.4304,
      "duration": 0.0166,
      "velocity": 101,
      "chip": "ym2612"
    },
    {
      "channel": 3,
      "note": 59,
      "start": 10.4315,
      "duration": 0.0166,
      "velocity": 101,
      "chip": "ym2612"
    },
    {
      "channel": 1,
      "note": 64,
      "start": 10.4338,
      "duration": 0.0166,
      "velocity": 101,
      "chip": "ym2612"
    },
    {
      "channel": 0,
      "note": 80,
      "start": 10.4458,
      "duration": 0.0163,
      "velocity": 124,
      "chip": "ym2612"
    },
    {
      "channel": 4,
      "note": 56,
      "start": 10.447,
      "duration": 0.0163,
      "velocity": 101,
      "chip": "ym2612"
    },
    {
      "channel": 3,
      "note": 59,
      "start": 10.4481,
      "duration": 0.0163,
      "velocity": 101,
      "chip": "ym2612"
    },
    {
      "channel": 1,
      "note": 64,
      "start": 10.4504,
      "duration": 0.0163,
      "velocity": 101,
      "chip": "ym2612"
    },
    {
      "channel": 0,
      "note": 77,
      "start": 10.4621,
      "duration": 0.0141,
      "velocity": 124,
      "chip": "ym2612"
    },
    {
      "channel": 4,
      "note": 56,
      "start": 10.4632,
      "duration": 0.0142,
      "velocity": 101,
      "chip": "ym2612"
    },
    {
      "channel": 3,
      "note": 59,
      "start": 10.4644,
      "duration": 0.0142,
      "velocity": 101,
      "chip": "ym2612"
    },
    {
      "channel": 1,
      "note": 64,
      "start": 10.4667,
      "duration": 0.0141,
      "velocity": 101,
      "chip": "ym2612"
    },
    {
      "channel": 0,
      "note": 75,
      "start": 10.4762,
      "duration": 0.0186,
      "velocity": 124,
      "chip": "ym2612"
    },
    {
      "channel": 4,
      "note": 56,
      "start": 10.4774,
      "duration": 0.0185,
      "velocity": 101,
      "chip": "ym2612"
    },
    {
      "channel": 3,
      "note": 59,
      "start": 10.4786,
      "duration": 0.0185,
      "velocity": 101,
      "chip": "ym2612"
    },
    {
      "channel": 1,
      "note": 64,
      "start": 10.4808,
      "duration": 0.0186,
      "velocity": 101,
      "chip": "ym2612"
    },
    {
      "channel": 0,
      "note": 72,
      "start": 10.4948,
      "duration": 0.016,
      "velocity": 124,
      "chip": "ym2612"
    },
    {
      "channel": 4,
      "note": 56,
      "start": 10.4959,
      "duration": 0.0161,
      "velocity": 101,
      "chip": "ym2612"
    },
    {
      "channel": 3,
      "note": 59,
      "start": 10.4971,
      "duration": 0.0161,
      "velocity": 101,
      "chip": "ym2612"
    },
    {
      "channel": 1,
      "note": 64,
      "start": 10.4994,
      "duration": 0.0161,
      "velocity": 101,
      "chip": "ym2612"
    },
    {
      "channel": 0,
      "note": 70,
      "start": 10.5108,
      "duration": 0.0134,
      "velocity": 124,
      "chip": "ym2612"
    },
    {
      "channel": 4,
      "note": 56,
      "start": 10.512,
      "duration": 0.0157,
      "velocity": 101,
      "chip": "ym2612"
    },
    {
      "channel": 3,
      "note": 59,
      "start": 10.5132,
      "duration": 0.0157,
      "velocity": 101,
      "chip": "ym2612"
    },
    {
      "channel": 1,
      "note": 64,
      "start": 10.5155,
      "duration": 0.0157,
      "velocity": 101,
      "chip": "ym2612"
    },
    {
      "channel": 0,
      "note": 68,
      "start": 10.5242,
      "duration": 0.0162,
      "velocity": 124,
      "chip": "ym2612"
    },
    {
      "channel": 4,
      "note": 56,
      "start": 10.5278,
      "duration": 0.0141,
      "velocity": 101,
      "chip": "ym2612"
    },
    {
      "channel": 3,
      "note": 59,
      "start": 10.5289,
      "duration": 0.0141,
      "velocity": 101,
      "chip": "ym2612"
    },
    {
      "channel": 1,
      "note": 64,
      "start": 10.5312,
      "duration": 0.0141,
      "velocity": 101,
      "chip": "ym2612"
    },
    {
      "channel": 0,
      "note": 65,
      "start": 10.5404,
      "duration": 0.0161,
      "velocity": 124,
      "chip": "ym2612"
    },
    {
      "channel": 4,
      "note": 56,
      "start": 10.5418,
      "duration": 0.0158,
      "velocity": 101,
      "chip": "ym2612"
    },
    {
      "channel": 3,
      "note": 59,
      "start": 10.543,
      "duration": 0.0185,
      "velocity": 101,
      "chip": "ym2612"
    },
    {
      "channel": 1,
      "note": 64,
      "start": 10.5453,
      "duration": 0.0185,
      "velocity": 101,
      "chip": "ym2612"
    },
    {
      "channel": 0,
      "note": 63,
      "start": 10.5564,
      "duration": 0.0153,
      "velocity": 1,
      "chip": "ym2612"
    },
    {
      "channel": 4,
      "note": 56,
      "start": 10.5576,
      "duration": 0.0153,
      "velocity": 101,
      "chip": "ym2612"
    },
    {
      "channel": 3,
      "note": 59,
      "start": 10.5615,
      "duration": 0.0125,
      "velocity": 101,
      "chip": "ym2612"
    },
    {
      "channel": 1,
      "note": 64,
      "start": 10.5638,
      "duration": 0.0153,
      "velocity": 101,
      "chip": "ym2612"
    },
    {
      "channel": 4,
      "note": 56,
      "start": 10.5729,
      "duration": 0.0153,
      "velocity": 101,
      "chip": "ym2612"
    },
    {
      "channel": 3,
      "note": 59,
      "start": 10.574,
      "duration": 0.0153,
      "velocity": 101,
      "chip": "ym2612"
    },
    {
      "channel": 1,
      "note": 64,
      "start": 10.579,
      "duration": 0.0149,
      "velocity": 101,
      "chip": "ym2612"
    },
    {
      "channel": 4,
      "note": 56,
      "start": 10.5881,
      "duration": 0.0161,
      "velocity": 101,
      "chip": "ym2612"
    },
    {
      "channel": 3,
      "note": 59,
      "start": 10.5893,
      "duration": 0.0161,
      "velocity": 101,
      "chip": "ym2612"
    },
    {
      "channel": 1,
      "note": 64,
      "start": 10.5939,
      "duration": 0.0137,
      "velocity": 101,
      "chip": "ym2612"
    },
    {
      "channel": 4,
      "note": 56,
      "start": 10.6042,
      "duration": 0.0162,
      "velocity": 101,
      "chip": "ym2612"
    },
    {
      "channel": 3,
      "note": 59,
      "start": 10.6054,
      "duration": 0.0161,
      "velocity": 101,
      "chip": "ym2612"
    },
    {
      "channel": 1,
      "note": 64,
      "start": 10.6077,
      "duration": 0.0161,
      "velocity": 101,
      "chip": "ym2612"
    },
    {
      "channel": 4,
      "note": 56,
      "start": 10.6204,
      "duration": 0.0161,
      "velocity": 101,
      "chip": "ym2612"
    },
    {
      "channel": 3,
      "note": 59,
      "start": 10.6215,
      "duration": 0.0161,
      "velocity": 101,
      "chip": "ym2612"
    },
    {
      "channel": 1,
      "note": 64,
      "start": 10.6237,
      "duration": 0.0161,
      "velocity": 101,
      "chip": "ym2612"
    },
    {
      "channel": 4,
      "note": 56,
      "start": 10.6365,
      "duration": 0.0161,
      "velocity": 101,
      "chip": "ym2612"
    },
    {
      "channel": 3,
      "note": 59,
      "start": 10.6376,
      "duration": 0.0161,
      "velocity": 101,
      "chip": "ym2612"
    },
    {
      "channel": 1,
      "note": 64,
      "start": 10.6398,
      "duration": 0.0162,
      "velocity": 101,
      "chip": "ym2612"
    },
    {
      "channel": 4,
      "note": 56,
      "start": 10.6526,
      "duration": 0.0161,
      "velocity": 101,
      "chip": "ym2612"
    },
    {
      "channel": 3,
      "note": 59,
      "start": 10.6537,
      "duration": 0.0161,
      "velocity": 101,
      "chip": "ym2612"
    },
    {
      "channel": 1,
      "note": 64,
      "start": 10.656,
      "duration": 0.0161,
      "velocity": 101,
      "chip": "ym2612"
    },
    {
      "channel": 4,
      "note": 56,
      "start": 10.6687,
      "duration": 0.0161,
      "velocity": 101,
      "chip": "ym2612"
    },
    {
      "channel": 3,
      "note": 59,
      "start": 10.6698,
      "duration": 0.0161,
      "velocity": 101,
      "chip": "ym2612"
    },
    {
      "channel": 1,
      "note": 64,
      "start": 10.6721,
      "duration": 0.0161,
      "velocity": 101,
      "chip": "ym2612"
    },
    {
      "channel": 4,
      "note": 56,
      "start": 10.6848,
      "duration": 0.0161,
      "velocity": 101,
      "chip": "ym2612"
    },
    {
      "channel": 3,
      "note": 59,
      "start": 10.6859,
      "duration": 0.0161,
      "velocity": 101,
      "chip": "ym2612"
    },
    {
      "channel": 1,
      "note": 64,
      "start": 10.6882,
      "duration": 0.0161,
      "velocity": 101,
      "chip": "ym2612"
    },
    {
      "channel": 4,
      "note": 56,
      "start": 10.7008,
      "duration": 0.0161,
      "velocity": 101,
      "chip": "ym2612"
    },
    {
      "channel": 3,
      "note": 59,
      "start": 10.702,
      "duration": 0.0161,
      "velocity": 101,
      "chip": "ym2612"
    },
    {
      "channel": 1,
      "note": 64,
      "start": 10.7043,
      "duration": 0.0161,
      "velocity": 101,
      "chip": "ym2612"
    },
    {
      "channel": 4,
      "note": 56,
      "start": 10.7169,
      "duration": 0.0161,
      "velocity": 101,
      "chip": "ym2612"
    },
    {
      "channel": 3,
      "note": 59,
      "start": 10.7181,
      "duration": 0.0161,
      "velocity": 101,
      "chip": "ym2612"
    },
    {
      "channel": 1,
      "note": 64,
      "start": 10.7204,
      "duration": 0.0161,
      "velocity": 101,
      "chip": "ym2612"
    },
    {
      "channel": 4,
      "note": 56,
      "start": 10.733,
      "duration": 0.0161,
      "velocity": 101,
      "chip": "ym2612"
    },
    {
      "channel": 3,
      "note": 59,
      "start": 10.7342,
      "duration": 0.0161,
      "velocity": 101,
      "chip": "ym2612"
    },
    {
      "channel": 1,
      "note": 64,
      "start": 10.7365,
      "duration": 0.0161,
      "velocity": 101,
      "chip": "ym2612"
    },
    {
      "channel": 4,
      "note": 56,
      "start": 10.7491,
      "duration": 0.0161,
      "velocity": 101,
      "chip": "ym2612"
    },
    {
      "channel": 3,
      "note": 59,
      "start": 10.7503,
      "duration": 0.0161,
      "velocity": 101,
      "chip": "ym2612"
    },
    {
      "channel": 1,
      "note": 64,
      "start": 10.7526,
      "duration": 0.0161,
      "velocity": 101,
      "chip": "ym2612"
    },
    {
      "channel": 4,
      "note": 56,
      "start": 10.7652,
      "duration": 0.0162,
      "velocity": 101,
      "chip": "ym2612"
    },
    {
      "channel": 3,
      "note": 59,
      "start": 10.7664,
      "duration": 0.0162,
      "velocity": 101,
      "chip": "ym2612"
    },
    {
      "channel": 1,
      "note": 64,
      "start": 10.7687,
      "duration": 0.0161,
      "velocity": 101,
      "chip": "ym2612"
    },
    {
      "channel": 4,
      "note": 56,
      "start": 10.7814,
      "duration": 0.0161,
      "velocity": 101,
      "chip": "ym2612"
    },
    {
      "channel": 3,
      "note": 59,
      "start": 10.7825,
      "duration": 0.0161,
      "velocity": 101,
      "chip": "ym2612"
    },
    {
      "channel": 1,
      "note": 64,
      "start": 10.7848,
      "duration": 0.0161,
      "velocity": 101,
      "chip": "ym2612"
    },
    {
      "channel": 4,
      "note": 56,
      "start": 10.7975,
      "duration": 0.0161,
      "velocity": 101,
      "chip": "ym2612"
    },
    {
      "channel": 3,
      "note": 59,
      "start": 10.7986,
      "duration": 0.0161,
      "velocity": 101,
      "chip": "ym2612"
    },
    {
      "channel": 1,
      "note": 64,
      "start": 10.8008,
      "duration": 0.0162,
      "velocity": 101,
      "chip": "ym2612"
    },
    {
      "channel": 4,
      "note": 56,
      "start": 10.8136,
      "duration": 0.0161,
      "velocity": 101,
      "chip": "ym2612"
    },
    {
      "channel": 3,
      "note": 59,
      "start": 10.8147,
      "duration": 0.0161,
      "velocity": 101,
      "chip": "ym2612"
    },
    {
      "channel": 1,
      "note": 64,
      "start": 10.817,
      "duration": 0.0161,
      "velocity": 101,
      "chip": "ym2612"
    },
    {
      "channel": 4,
      "note": 56,
      "start": 10.8297,
      "duration": 0.0161,
      "velocity": 101,
      "chip": "ym2612"
    },
    {
      "channel": 3,
      "note": 59,
      "start": 10.8308,
      "duration": 0.0161,
      "velocity": 101,
      "chip": "ym2612"
    },
    {
      "channel": 1,
      "note": 64,
      "start": 10.8331,
      "duration": 0.0161,
      "velocity": 101,
      "chip": "ym2612"
    },
    {
      "channel": 4,
      "note": 56,
      "start": 10.8458,
      "duration": 0.0198,
      "velocity": 101,
      "chip": "ym2612"
    },
    {
      "channel": 3,
      "note": 59,
      "start": 10.8469,
      "duration": 0.02,
      "velocity": 101,
      "chip": "ym2612"
    },
    {
      "channel": 1,
      "note": 64,
      "start": 10.8492,
      "duration": 0.0205,
      "velocity": 101,
      "chip": "ym2612"
    },
    {
      "channel": 0,
      "note": 36,
      "start": 10.8641,
      "duration": 0.0144,
      "velocity": 115,
      "chip": "ym2612"
    },
    {
      "channel": 4,
      "note": 61,
      "start": 10.8656,
      "duration": 0.0141,
      "velocity": 101,
      "chip": "ym2612"
    },
    {
      "channel": 3,
      "note": 64,
      "start": 10.867,
      "duration": 0.0139,
      "velocity": 101,
      "chip": "ym2612"
    },
    {
      "channel": 1,
      "note": 69,
      "start": 10.8697,
      "duration": 0.0136,
      "velocity": 101,
      "chip": "ym2612"
    },
    {
      "channel": 0,
      "note": 36,
      "start": 10.8785,
      "duration": 0.0173,
      "velocity": 115,
      "chip": "ym2612"
    },
    {
      "channel": 4,
      "note": 61,
      "start": 10.8797,
      "duration": 0.0172,
      "velocity": 101,
      "chip": "ym2612"
    },
    {
      "channel": 3,
      "note": 64,
      "start": 10.8809,
      "duration": 0.0172,
      "velocity": 101,
      "chip": "ym2612"
    },
    {
      "channel": 1,
      "note": 69,
      "start": 10.8833,
      "duration": 0.0171,
      "velocity": 101,
      "chip": "ym2612"
    },
    {
      "channel": 0,
      "note": 37,
      "start": 10.8958,
      "duration": 0.0167,
      "velocity": 115,
      "chip": "ym2612"
    },
    {
      "channel": 4,
      "note": 61,
      "start": 10.897,
      "duration": 0.0167,
      "velocity": 101,
      "chip": "ym2612"
    },
    {
      "channel": 3,
      "note": 64,
      "start": 10.8981,
      "duration": 0.0167,
      "velocity": 101,
      "chip": "ym2612"
    },
    {
      "channel": 1,
      "note": 69,
      "start": 10.9004,
      "duration": 0.0167,
      "velocity": 101,
      "chip": "ym2612"
    },
    {
      "channel": 0,
      "note": 37,
      "start": 10.9125,
      "duration": 0.0163,
      "velocity": 115,
      "chip": "ym2612"
    },
    {
      "channel": 4,
      "note": 61,
      "start": 10.9136,
      "duration": 0.0163,
      "velocity": 101,
      "chip": "ym2612"
    },
    {
      "channel": 3,
      "note": 64,
      "start": 10.9148,
      "duration": 0.0163,
      "velocity": 101,
      "chip": "ym2612"
    },
    {
      "channel": 1,
      "note": 69,
      "start": 10.9171,
      "duration": 0.0163,
      "velocity": 101,
      "chip": "ym2612"
    },
    {
      "channel": 0,
      "note": 38,
      "start": 10.9288,
      "duration": 0.0144,
      "velocity": 115,
      "chip": "ym2612"
    },
    {
      "channel": 4,
      "note": 61,
      "start": 10.9299,
      "duration": 0.0144,
      "velocity": 101,
      "chip": "ym2612"
    },
    {
      "channel": 3,
      "note": 64,
      "start": 10.9311,
      "duration": 0.0144,
      "velocity": 101,
      "chip": "ym2612"
    },
    {
      "channel": 1,
      "note": 69,
      "start": 10.9334,
      "duration": 0.0144,
      "velocity": 101,
      "chip": "ym2612"
    },
    {
      "channel": 0,
      "note": 38,
      "start": 10.9432,
      "duration": 0.0185,
      "velocity": 115,
      "chip": "ym2612"
    },
    {
      "channel": 4,
      "note": 61,
      "start": 10.9444,
      "duration": 0.0185,
      "velocity": 101,
      "chip": "ym2612"
    },
    {
      "channel": 3,
      "note": 64,
      "start": 10.9455,
      "duration": 0.0185,
      "velocity": 101,
      "chip": "ym2612"
    },
    {
      "channel": 1,
      "note": 69,
      "start": 10.9477,
      "duration": 0.0186,
      "velocity": 101,
      "chip": "ym2612"
    },
    {
      "channel": 0,
      "note": 39,
      "start": 10.9617,
      "duration": 0.0162,
      "velocity": 115,
      "chip": "ym2612"
    },
    {
      "channel": 4,
      "note": 61,
      "start": 10.9629,
      "duration": 0.0161,
      "velocity": 101,
      "chip": "ym2612"
    },
    {
      "channel": 3,
      "note": 64,
      "start": 10.964,
      "duration": 0.0161,
      "velocity": 101,
      "chip": "ym2612"
    },
    {
      "channel": 1,
      "note": 69,
      "start": 10.9663,
      "duration": 0.0161,
      "velocity": 101,
      "chip": "ym2612"
    },
    {
      "channel": 0,
      "note": 39,
      "start": 10.9778,
      "duration": 0.0157,
      "velocity": 115,
      "chip": "ym2612"
    },
    {
      "channel": 4,
      "note": 61,
      "start": 10.979,
      "duration": 0.0157,
      "velocity": 101,
      "chip": "ym2612"
    },
    {
      "channel": 3,
      "note": 64,
      "start": 10.9801,
      "duration": 0.0157,
      "velocity": 101,
      "chip": "ym2612"
    },
    {
      "channel": 1,
      "note": 69,
      "start": 10.9824,
      "duration": 0.0157,
      "velocity": 101,
      "chip": "ym2612"
    },
    {
      "channel": 0,
      "note": 40,
      "start": 10.9935,
      "duration": 0.0137,
      "velocity": 115,
      "chip": "ym2612"
    },
    {
      "channel": 4,
      "note": 61,
      "start": 10.9947,
      "duration": 0.0141,
      "velocity": 101,
      "chip": "ym2612"
    },
    {
      "channel": 3,
      "note": 64,
      "start": 10.9958,
      "duration": 0.0141,
      "velocity": 101,
      "chip": "ym2612"
    },
    {
      "channel": 1,
      "note": 69,
      "start": 10.9981,
      "duration": 0.0141,
      "velocity": 101,
      "chip": "ym2612"
    },
    {
      "channel": 0,
      "note": 40,
      "start": 11.0073,
      "duration": 0.0161,
      "velocity": 115,
      "chip": "ym2612"
    },
    {
      "channel": 4,
      "note": 61,
      "start": 11.0087,
      "duration": 0.0185,
      "velocity": 101,
      "chip": "ym2612"
    },
    {
      "channel": 3,
      "note": 64,
      "start": 11.0099,
      "duration": 0.0185,
      "velocity": 101,
      "chip": "ym2612"
    },
    {
      "channel": 1,
      "note": 69,
      "start": 11.0122,
      "duration": 0.0185,
      "velocity": 101,
      "chip": "ym2612"
    },
    {
      "channel": 0,
      "note": 40,
      "start": 11.0234,
      "duration": 0.0161,
      "velocity": 115,
      "chip": "ym2612"
    },
    {
      "channel": 4,
      "note": 61,
      "start": 11.0273,
      "duration": 0.0134,
      "velocity": 101,
      "chip": "ym2612"
    },
    {
      "channel": 3,
      "note": 64,
      "start": 11.0284,
      "duration": 0.0162,
      "velocity": 101,
      "chip": "ym2612"
    },
    {
      "channel": 1,
      "note": 69,
      "start": 11.0307,
      "duration": 0.0161,
      "velocity": 101,
      "chip": "ym2612"
    },
    {
      "channel": 0,
      "note": 41,
      "start": 11.0395,
      "duration": 0.0161,
      "velocity": 115,
      "chip": "ym2612"
    },
    {
      "channel": 4,
      "note": 61,
      "start": 11.0406,
      "duration": 0.0161,
      "velocity": 101,
      "chip": "ym2612"
    },
    {
      "channel": 3,
      "note": 64,
      "start": 11.0446,
      "duration": 0.0157,
      "velocity": 101,
      "chip": "ym2612"
    },
    {
      "channel": 1,
      "note": 69,
      "start": 11.0468,
      "duration": 0.0158,
      "velocity": 101,
      "chip": "ym2612"
    },
    {
      "channel": 0,
      "note": 41,
      "start": 11.0556,
      "duration": 0.0161,
      "velocity": 115,
      "chip": "ym2612"
    },
    {
      "channel": 4,
      "note": 61,
      "start": 11.0567,
      "duration": 0.0161,
      "velocity": 101,
      "chip": "ym2612"
    },
    {
      "channel": 3,
      "note": 64,
      "start": 11.0603,
      "duration": 0.0137,
      "velocity": 101,
      "chip": "ym2612"
    },
    {
      "channel": 1,
      "note": 69,
      "start": 11.0626,
      "duration": 0.014,
      "velocity": 101,
      "chip": "ym2612"
    },
    {
      "channel": 0,
      "note": 42,
      "start": 11.0717,
      "duration": 0.0161,
      "velocity": 115,
      "chip": "ym2612"
    },
    {
      "channel": 4,
      "note": 61,
      "start": 11.0728,
      "duration": 0.0161,
      "velocity": 101,
      "chip": "ym2612"
    },
    {
      "channel": 3,
      "note": 64,
      "start": 11.0739,
      "duration": 0.0161,
      "velocity": 101,
      "chip": "ym2612"
    },
    {
      "channel": 1,
      "note": 69,
      "start": 11.0766,
      "duration": 0.0185,
      "velocity": 101,
      "chip": "ym2612"
    },
    {
      "channel": 0,
      "note": 42,
      "start": 11.0878,
      "duration": 0.0161,
      "velocity": 115,
      "chip": "ym2612"
    },
    {
      "channel": 4,
      "note": 61,
      "start": 11.0889,
      "duration": 0.0161,
      "velocity": 101,
      "chip": "ym2612"
    },
    {
      "channel": 3,
      "note": 64,
      "start": 11.09,
      "duration": 0.0161,
      "velocity": 101,
      "chip": "ym2612"
    },
    {
      "channel": 1,
      "note": 69,
      "start": 11.0951,
      "duration": 0.0161,
      "velocity": 101,
      "chip": "ym2612"
    },
    {
      "channel": 0,
      "note": 43,
      "start": 11.1038,
      "duration": 0.0161,
      "velocity": 115,
      "chip": "ym2612"
    },
    {
      "channel": 4,
      "note": 61,
      "start": 11.105,
      "duration": 0.0161,
      "velocity": 101,
      "chip": "ym2612"
    },
    {
      "channel": 3,
      "note": 64,
      "start": 11.1061,
      "duration": 0.0162,
      "velocity": 101,
      "chip": "ym2612"
    },
    {
      "channel": 1,
      "note": 69,
      "start": 11.1112,
      "duration": 0.0157,
      "velocity": 101,
      "chip": "ym2612"
    },
    {
      "channel": 0,
      "note": 43,
      "start": 11.1199,
      "duration": 0.0161,
      "velocity": 115,
      "chip": "ym2612"
    },
    {
      "channel": 4,
      "note": 61,
      "start": 11.1211,
      "duration": 0.0161,
      "velocity": 101,
      "chip": "ym2612"
    },
    {
      "channel": 3,
      "note": 64,
      "start": 11.1223,
      "duration": 0.0161,
      "velocity": 101,
      "chip": "ym2612"
    },
    {
      "channel": 1,
      "note": 69,
      "start": 11.1269,
      "duration": 0.0137,
      "velocity": 101,
      "chip": "ym2612"
    },
    {
      "channel": 0,
      "note": 44,
      "start": 11.136,
      "duration": 0.0161,
      "velocity": 115,
      "chip": "ym2612"
    },
    {
      "channel": 4,
      "note": 61,
      "start": 11.1372,
      "duration": 0.0161,
      "velocity": 101,
      "chip": "ym2612"
    },
    {
      "channel": 3,
      "note": 64,
      "start": 11.1384,
      "duration": 0.0161,
      "velocity": 101,
      "chip": "ym2612"
    },
    {
      "channel": 1,
      "note": 69,
      "start": 11.1406,
      "duration": 0.0161,
      "velocity": 101,
      "chip": "ym2612"
    },
    {
      "channel": 0,
      "note": 44,
      "start": 11.1522,
      "duration": 0.0161,
      "velocity": 115,
      "chip": "ym2612"
    },
    {
      "channel": 4,
      "note": 61,
      "start": 11.1533,
      "duration": 0.0161,
      "velocity": 101,
      "chip": "ym2612"
    },
    {
      "channel": 3,
      "note": 64,
      "start": 11.1545,
      "duration": 0.0161,
      "velocity": 101,
      "chip": "ym2612"
    },
    {
      "channel": 1,
      "note": 69,
      "start": 11.1568,
      "duration": 0.0161,
      "velocity": 101,
      "chip": "ym2612"
    },
    {
      "channel": 0,
      "note": 44,
      "start": 11.1683,
      "duration": 0.0161,
      "velocity": 115,
      "chip": "ym2612"
    },
    {
      "channel": 4,
      "note": 61,
      "start": 11.1694,
      "duration": 0.0161,
      "velocity": 101,
      "chip": "ym2612"
    },
    {
      "channel": 3,
      "note": 64,
      "start": 11.1706,
      "duration": 0.0161,
      "velocity": 101,
      "chip": "ym2612"
    },
    {
      "channel": 1,
      "note": 69,
      "start": 11.1729,
      "duration": 0.0161,
      "velocity": 101,
      "chip": "ym2612"
    },
    {
      "channel": 0,
      "note": 45,
      "start": 11.1844,
      "duration": 0.0161,
      "velocity": 115,
      "chip": "ym2612"
    },
    {
      "channel": 4,
      "note": 61,
      "start": 11.1855,
      "duration": 0.0161,
      "velocity": 101,
      "chip": "ym2612"
    },
    {
      "channel": 3,
      "note": 64,
      "start": 11.1867,
      "duration": 0.0161,
      "velocity": 101,
      "chip": "ym2612"
    },
    {
      "channel": 1,
      "note": 69,
      "start": 11.189,
      "duration": 0.0161,
      "velocity": 101,
      "chip": "ym2612"
    },
    {
      "channel": 0,
      "note": 45,
      "start": 11.2005,
      "duration": 0.0161,
      "velocity": 115,
      "chip": "ym2612"
    },
    {
      "channel": 4,
      "note": 61,
      "start": 11.2016,
      "duration": 0.0161,
      "velocity": 101,
      "chip": "ym2612"
    },
    {
      "channel": 3,
      "note": 64,
      "start": 11.2028,
      "duration": 0.0161,
      "velocity": 101,
      "chip": "ym2612"
    },
    {
      "channel": 1,
      "note": 69,
      "start": 11.2051,
      "duration": 0.0161,
      "velocity": 101,
      "chip": "ym2612"
    },
    {
      "channel": 0,
      "note": 46,
      "start": 11.2166,
      "duration": 0.0161,
      "velocity": 115,
      "chip": "ym2612"
    },
    {
      "channel": 4,
      "note": 61,
      "start": 11.2177,
      "duration": 0.0161,
      "velocity": 101,
      "chip": "ym2612"
    },
    {
      "channel": 3,
      "note": 64,
      "start": 11.2188,
      "duration": 0.0161,
      "velocity": 101,
      "chip": "ym2612"
    },
    {
      "channel": 1,
      "note": 69,
      "start": 11.2211,
      "duration": 0.0161,
      "velocity": 101,
      "chip": "ym2612"
    },
    {
      "channel": 0,
      "note": 46,
      "start": 11.2327,
      "duration": 0.0161,
      "velocity": 115,
      "chip": "ym2612"
    },
    {
      "channel": 4,
      "note": 61,
      "start": 11.2338,
      "duration": 0.0161,
      "velocity": 101,
      "chip": "ym2612"
    },
    {
      "channel": 3,
      "note": 64,
      "start": 11.2349,
      "duration": 0.0161,
      "velocity": 101,
      "chip": "ym2612"
    },
    {
      "channel": 1,
      "note": 69,
      "start": 11.2372,
      "duration": 0.0161,
      "velocity": 101,
      "chip": "ym2612"
    },
    {
      "channel": 0,
      "note": 47,
      "start": 11.2488,
      "duration": 0.0161,
      "velocity": 115,
      "chip": "ym2612"
    },
    {
      "channel": 4,
      "note": 61,
      "start": 11.2499,
      "duration": 0.0162,
      "velocity": 101,
      "chip": "ym2612"
    },
    {
      "channel": 3,
      "note": 64,
      "start": 11.251,
      "duration": 0.0161,
      "velocity": 101,
      "chip": "ym2612"
    },
    {
      "channel": 1,
      "note": 69,
      "start": 11.2533,
      "duration": 0.0161,
      "velocity": 101,
      "chip": "ym2612"
    },
    {
      "channel": 0,
      "note": 47,
      "start": 11.2649,
      "duration": 0.0161,
      "velocity": 115,
      "chip": "ym2612"
    },
    {
      "channel": 4,
      "note": 61,
      "start": 11.2661,
      "duration": 0.0161,
      "velocity": 101,
      "chip": "ym2612"
    },
    {
      "channel": 3,
      "note": 64,
      "start": 11.2672,
      "duration": 0.0161,
      "velocity": 101,
      "chip": "ym2612"
    },
    {
      "channel": 1,
      "note": 69,
      "start": 11.2694,
      "duration": 0.0161,
      "velocity": 101,
      "chip": "ym2612"
    },
    {
      "channel": 0,
      "note": 47,
      "start": 11.2809,
      "duration": 0.0162,
      "velocity": 115,
      "chip": "ym2612"
    },
    {
      "channel": 4,
      "note": 61,
      "start": 11.2822,
      "duration": 0.0161,
      "velocity": 101,
      "chip": "ym2612"
    },
    {
      "channel": 3,
      "note": 64,
      "start": 11.2833,
      "duration": 0.0161,
      "velocity": 101,
      "chip": "ym2612"
    },
    {
      "channel": 1,
      "note": 69,
      "start": 11.2855,
      "duration": 0.0162,
      "velocity": 101,
      "chip": "ym2612"
    },
    {
      "channel": 0,
      "note": 48,
      "start": 11.2971,
      "duration": 0.0178,
      "velocity": 124,
      "chip": "ym2612"
    },
    {
      "channel": 4,
      "note": 61,
      "start": 11.2982,
      "duration": 0.0179,
      "velocity": 101,
      "chip": "ym2612"
    },
    {
      "channel": 3,
      "note": 64,
      "start": 11.2994,
      "duration": 0.0179,
      "velocity": 101,
      "chip": "ym2612"
    },
    {
      "channel": 1,
      "note": 69,
      "start": 11.3017,
      "duration": 0.0179,
      "velocity": 101,
      "chip": "ym2612"
    },
    {
      "channel": 0,
      "note": 84,
      "start": 11.315,
      "duration": 0.0144,
      "velocity": 124,
      "chip": "ym2612"
    },
    {
      "channel": 4,
      "note": 61,
      "start": 11.3161,
      "duration": 0.0144,
      "velocity": 101,
      "chip": "ym2612"
    },
    {
      "channel": 3,
      "note": 64,
      "start": 11.3173,
      "duration": 0.0144,
      "velocity": 101,
      "chip": "ym2612"
    },
    {
      "channel": 1,
      "note": 69,
      "start": 11.3195,
      "duration": 0.0144,
      "velocity": 101,
      "chip": "ym2612"
    },
    {
      "channel": 0,
      "note": 82,
      "start": 11.3293,
      "duration": 0.016,
      "velocity": 124,
      "chip": "ym2612"
    },
    {
      "channel": 4,
      "note": 61,
      "start": 11.3305,
      "duration": 0.016,
      "velocity": 101,
      "chip": "ym2612"
    },
    {
      "channel": 3,
      "note": 64,
      "start": 11.3316,
      "duration": 0.016,
      "velocity": 101,
      "chip": "ym2612"
    },
    {
      "channel": 1,
      "note": 69,
      "start": 11.3339,
      "duration": 0.016,
      "velocity": 101,
      "chip": "ym2612"
    },
    {
      "channel": 0,
      "note": 80,
      "start": 11.3454,
      "duration": 0.0171,
      "velocity": 124,
      "chip": "ym2612"
    },
    {
      "channel": 4,
      "note": 61,
      "start": 11.3465,
      "duration": 0.0171,
      "velocity": 101,
      "chip": "ym2612"
    },
    {
      "channel": 3,
      "note": 64,
      "start": 11.3477,
      "duration": 0.0171,
      "velocity": 101,
      "chip": "ym2612"
    },
    {
      "channel": 1,
      "note": 69,
      "start": 11.35,
      "duration": 0.0171,
      "velocity": 101,
      "chip": "ym2612"
    },
    {
      "channel": 0,
      "note": 77,
      "start": 11.3625,
      "duration": 0.0167,
      "velocity": 124,
      "chip": "ym2612"
    },
    {
      "channel": 4,
      "note": 61,
      "start": 11.3636,
      "duration": 0.0167,
      "velocity": 101,
      "chip": "ym2612"
    },
    {
      "channel": 3,
      "note": 64,
      "start": 11.3648,
      "duration": 0.0167,
      "velocity": 101,
      "chip": "ym2612"
    },
    {
      "channel": 1,
      "note": 69,
      "start": 11.3671,
      "duration": 0.0167,
      "velocity": 101,
      "chip": "ym2612"
    },
    {
      "channel": 0,
      "note": 75,
      "start": 11.3792,
      "duration": 0.0163,
      "velocity": 124,
      "chip": "ym2612"
    },
    {
      "channel": 4,
      "note": 61,
      "start": 11.3803,
      "duration": 0.0163,
      "velocity": 101,
      "chip": "ym2612"
    },
    {
      "channel": 3,
      "note": 64,
      "start": 11.3815,
      "duration": 0.0163,
      "velocity": 101,
      "chip": "ym2612"
    },
    {
      "channel": 1,
      "note": 69,
      "start": 11.3837,
      "duration": 0.0163,
      "velocity": 101,
      "chip": "ym2612"
    },
    {
      "channel": 0,
      "note": 72,
      "start": 11.3954,
      "duration": 0.0146,
      "velocity": 124,
      "chip": "ym2612"
    },
    {
      "channel": 4,
      "note": 61,
      "start": 11.3966,
      "duration": 0.0146,
      "velocity": 101,
      "chip": "ym2612"
    },
    {
      "channel": 3,
      "note": 64,
      "start": 11.3977,
      "duration": 0.0146,
      "velocity": 101,
      "chip": "ym2612"
    },
    {
      "channel": 1,
      "note": 69,
      "start": 11.4,
      "duration": 0.0146,
      "velocity": 101,
      "chip": "ym2612"
    },
    {
      "channel": 0,
      "note": 70,
      "start": 11.4101,
      "duration": 0.0186,
      "velocity": 124,
      "chip": "ym2612"
    },
    {
      "channel": 4,
      "note": 61,
      "start": 11.4112,
      "duration": 0.0186,
      "velocity": 101,
      "chip": "ym2612"
    },
    {
      "channel": 3,
      "note": 64,
      "start": 11.4124,
      "duration": 0.0186,
      "velocity": 101,
      "chip": "ym2612"
    },
    {
      "channel": 1,
      "note": 69,
      "start": 11.4146,
      "duration": 0.0186,
      "velocity": 101,
      "chip": "ym2612"
    },
    {
      "channel": 0,
      "note": 68,
      "start": 11.4286,
      "duration": 0.0161,
      "velocity": 124,
      "chip": "ym2612"
    },
    {
      "channel": 4,
      "note": 61,
      "start": 11.4298,
      "duration": 0.0161,
      "velocity": 101,
      "chip": "ym2612"
    },
    {
      "channel": 3,
      "note": 64,
      "start": 11.4309,
      "duration": 0.0161,
      "velocity": 101,
      "chip": "ym2612"
    },
    {
      "channel": 1,
      "note": 69,
      "start": 11.4332,
      "duration": 0.0161,
      "velocity": 101,
      "chip": "ym2612"
    },
    {
      "channel": 0,
      "note": 65,
      "start": 11.4447,
      "duration": 0.0157,
      "velocity": 124,
      "chip": "ym2612"
    },
    {
      "channel": 4,
      "note": 61,
      "start": 11.4459,
      "duration": 0.0157,
      "velocity": 101,
      "chip": "ym2612"
    },
    {
      "channel": 3,
      "note": 64,
      "start": 11.447,
      "duration": 0.0157,
      "velocity": 101,
      "chip": "ym2612"
    },
    {
      "channel": 1,
      "note": 69,
      "start": 11.4493,
      "duration": 0.0157,
      "velocity": 101,
      "chip": "ym2612"
    },
    {
      "channel": 0,
      "note": 63,
      "start": 11.4605,
      "duration": 0.0129,
      "velocity": 1,
      "chip": "ym2612"
    },
    {
      "channel": 4,
      "note": 61,
      "start": 11.4616,
      "duration": 0.0132,
      "velocity": 101,
      "chip": "ym2612"
    },
    {
      "channel": 3,
      "note": 64,
      "start": 11.4627,
      "duration": 0.0132,
      "velocity": 101,
      "chip": "ym2612"
    },
    {
      "channel": 1,
      "note": 69,
      "start": 11.465,
      "duration": 0.0132,
      "velocity": 101,
      "chip": "ym2612"
    },
    {
      "channel": 4,
      "note": 61,
      "start": 11.4748,
      "duration": 0.0149,
      "velocity": 101,
      "chip": "ym2612"
    },
    {
      "channel": 3,
      "note": 64,
      "start": 11.476,
      "duration": 0.0149,
      "velocity": 101,
      "chip": "ym2612"
    },
    {
      "channel": 1,
      "note": 69,
      "start": 11.4783,
      "duration": 0.0177,
      "velocity": 101,
      "chip": "ym2612"
    },
    {
      "channel": 4,
      "note": 61,
      "start": 11.4898,
      "duration": 0.0161,
      "velocity": 101,
      "chip": "ym2612"
    },
    {
      "channel": 3,
      "note": 64,
      "start": 11.4909,
      "duration": 0.0161,
      "velocity": 101,
      "chip": "ym2612"
    },
    {
      "channel": 1,
      "note": 69,
      "start": 11.4959,
      "duration": 0.0161,
      "velocity": 101,
      "chip": "ym2612"
    },
    {
      "channel": 4,
      "note": 61,
      "start": 11.5059,
      "duration": 0.0161,
      "velocity": 101,
      "chip": "ym2612"
    },
    {
      "channel": 3,
      "note": 64,
      "start": 11.507,
      "duration": 0.0161,
      "velocity": 101,
      "chip": "ym2612"
    },
    {
      "channel": 1,
      "note": 69,
      "start": 11.512,
      "duration": 0.0158,
      "velocity": 101,
      "chip": "ym2612"
    },
    {
      "channel": 4,
      "note": 61,
      "start": 11.522,
      "duration": 0.0201,
      "velocity": 101,
      "chip": "ym2612"
    },
    {
      "channel": 3,
      "note": 64,
      "start": 11.5231,
      "duration": 0.0204,
      "velocity": 101,
      "chip": "ym2612"
    },
    {
      "channel": 1,
      "note": 69,
      "start": 11.5278,
      "duration": 0.0182,
      "velocity": 101,
      "chip": "ym2612"
    },
    {
      "channel": 0,
      "note": 36,
      "start": 11.5404,
      "duration": 0.0144,
      "velocity": 115,
      "chip": "ym2612"
    },
    {
      "channel": 4,
      "note": 61,
      "start": 11.5421,
      "duration": 0.0139,
      "velocity": 101,
      "chip": "ym2612"
    },
    {
      "channel": 3,
      "note": 64,
      "start": 11.5435,
      "duration": 0.0136,
      "velocity": 101,
      "chip": "ym2612"
    },
    {
      "channel": 1,
      "note": 69,
      "start": 11.5461,
      "duration": 0.0162,
      "velocity": 101,
      "chip": "ym2612"
    },
    {
      "channel": 0,
      "note": 36,
      "start": 11.5547,
      "duration": 0.016,
      "velocity": 115,
      "chip": "ym2612"
    },
    {
      "channel": 4,
      "note": 61,
      "start": 11.556,
      "duration": 0.016,
      "velocity": 101,
      "chip": "ym2612"
    },
    {
      "channel": 3,
      "note": 64,
      "start": 11.5571,
      "duration": 0.016,
      "velocity": 101,
      "chip": "ym2612"
    },
    {
      "channel": 1,
      "note": 69,
      "start": 11.5622,
      "duration": 0.0159,
      "velocity": 101,
      "chip": "ym2612"
    },
    {
      "channel": 0,
      "note": 37,
      "start": 11.5708,
      "duration": 0.0161,
      "velocity": 115,
      "chip": "ym2612"
    },
    {
      "channel": 4,
      "note": 61,
      "start": 11.572,
      "duration": 0.0161,
      "velocity": 101,
      "chip": "ym2612"
    },
    {
      "channel": 3,
      "note": 64,
      "start": 11.5731,
      "duration": 0.0161,
      "velocity": 101,
      "chip": "ym2612"
    },
    {
      "channel": 1,
      "note": 69,
      "start": 11.5781,
      "duration": 0.0157,
      "velocity": 101,
      "chip": "ym2612"
    },
    {
      "channel": 0,
      "note": 37,
      "start": 11.5869,
      "duration": 0.0161,
      "velocity": 115,
      "chip": "ym2612"
    },
    {
      "channel": 4,
      "note": 61,
      "start": 11.5881,
      "duration": 0.0161,
      "velocity": 101,
      "chip": "ym2612"
    },
    {
      "channel": 3,
      "note": 64,
      "start": 11.5892,
      "duration": 0.0161,
      "velocity": 101,
      "chip": "ym2612"
    },
    {
      "channel": 1,
      "note": 69,
      "start": 11.5939,
      "duration": 0.0137,
      "velocity": 101,
      "chip": "ym2612"
    },
    {
      "channel": 0,
      "note": 38,
      "start": 11.603,
      "duration": 0.0161,
      "velocity": 115,
      "chip": "ym2612"
    },
    {
      "channel": 4,
      "note": 61,
      "start": 11.6041,
      "duration": 0.0161,
      "velocity": 101,
      "chip": "ym2612"
    },
    {
      "channel": 3,
      "note": 64,
      "start": 11.6053,
      "duration": 0.0161,
      "velocity": 101,
      "chip": "ym2612"
    },
    {
      "channel": 1,
      "note": 69,
      "start": 11.6076,
      "duration": 0.0161,
      "velocity": 101,
      "chip": "ym2612"
    },
    {
      "channel": 0,
      "note": 38,
      "start": 11.6191,
      "duration": 0.0161,
      "velocity": 115,
      "chip": "ym2612"
    },
    {
      "channel": 4,
      "note": 61,
      "start": 11.6202,
      "duration": 0.0161,
      "velocity": 101,
      "chip": "ym2612"
    },
    {
      "channel": 3,
      "note": 64,
      "start": 11.6214,
      "duration": 0.0161,
      "velocity": 101,
      "chip": "ym2612"
    },
    {
      "channel": 1,
      "note": 69,
      "start": 11.6237,
      "duration": 0.0161,
      "velocity": 101,
      "chip": "ym2612"
    },
    {
      "channel": 0,
      "note": 39,
      "start": 11.6352,
      "duration": 0.0161,
      "velocity": 115,
      "chip": "ym2612"
    },
    {
      "channel": 4,
      "note": 61,
      "start": 11.6363,
      "duration": 0.0161,
      "velocity": 101,
      "chip": "ym2612"
    },
    {
      "channel": 3,
      "note": 64,
      "start": 11.6375,
      "duration": 0.0161,
      "velocity": 101,
      "chip": "ym2612"
    },
    {
      "channel": 1,
      "note": 69,
      "start": 11.6398,
      "duration": 0.0161,
      "velocity": 101,
      "chip": "ym2612"
    },
    {
      "channel": 0,
      "note": 39,
      "start": 11.6513,
      "duration": 0.0161,
      "velocity": 115,
      "chip": "ym2612"
    },
    {
      "channel": 4,
      "note": 61,
      "start": 11.6524,
      "duration": 0.0161,
      "velocity": 101,
      "chip": "ym2612"
    },
    {
      "channel": 3,
      "note": 64,
      "start": 11.6536,
      "duration": 0.0161,
      "velocity": 101,
      "chip": "ym2612"
    },
    {
      "channel": 1,
      "note": 69,
      "start": 11.6559,
      "duration": 0.0161,
      "velocity": 101,
      "chip": "ym2612"
    },
    {
      "channel": 0,
      "note": 40,
      "start": 11.6674,
      "duration": 0.0161,
      "velocity": 115,
      "chip": "ym2612"
    },
    {
      "channel": 4,
      "note": 61,
      "start": 11.6685,
      "duration": 0.0161,
      "velocity": 101,
      "chip": "ym2612"
    },
    {
      "channel": 3,
      "note": 64,
      "start": 11.6697,
      "duration": 0.0161,
      "velocity": 101,
      "chip": "ym2612"
    },
    {
      "channel": 1,
      "note": 69,
      "start": 11.672,
      "duration": 0.0161,
      "velocity": 101,
      "chip": "ym2612"
    },
    {
      "channel": 0,
      "note": 40,
      "start": 11.6835,
      "duration": 0.0161,
      "velocity": 115,
      "chip": "ym2612"
    },
    {
      "channel": 4,
      "note": 61,
      "start": 11.6846,
      "duration": 0.0162,
      "velocity": 101,
      "chip": "ym2612"
    },
    {
      "channel": 3,
      "note": 64,
      "start": 11.6858,
      "duration": 0.0161,
      "velocity": 101,
      "chip": "ym2612"
    },
    {
      "channel": 1,
      "note": 69,
      "start": 11.6881,
      "duration": 0.0161,
      "velocity": 101,
      "chip": "ym2612"
    },
    {
      "channel": 0,
      "note": 40,
      "start": 11.6996,
      "duration": 0.0161,
      "velocity": 115,
      "chip": "ym2612"
    },
    {
      "channel": 4,
      "note": 61,
      "start": 11.7008,
      "duration": 0.0161,
      "velocity": 101,
      "chip": "ym2612"
    },
    {
      "channel": 3,
      "note": 64,
      "start": 11.7019,
      "duration": 0.0161,
      "velocity": 101,
      "chip": "ym2612"
    },
    {
      "channel": 1,
      "note": 69,
      "start": 11.7041,
      "duration": 0.0161,
      "velocity": 101,
      "chip": "ym2612"
    },
    {
      "channel": 0,
      "note": 41,
      "start": 11.7157,
      "duration": 0.0161,
      "velocity": 115,
      "chip": "ym2612"
    },
    {
      "channel": 4,
      "note": 61,
      "start": 11.7169,
      "duration": 0.0161,
      "velocity": 101,
      "chip": "ym2612"
    },
    {
      "channel": 3,
      "note": 64,
      "start": 11.718,
      "duration": 0.0161,
      "velocity": 101,
      "chip": "ym2612"
    },
    {
      "channel": 1,
      "note": 69,
      "start": 11.7202,
      "duration": 0.0162,
      "velocity": 101,
      "chip": "ym2612"
    },
    {
      "channel": 0,
      "note": 41,
      "start": 11.7318,
      "duration": 0.0161,
      "velocity": 115,
      "chip": "ym2612"
    },
    {
      "channel": 4,
      "note": 61,
      "start": 11.733,
      "duration": 0.0161,
      "velocity": 101,
      "chip": "ym2612"
    },
    {
      "channel": 3,
      "note": 64,
      "start": 11.7341,
      "duration": 0.0161,
      "velocity": 101,
      "chip": "ym2612"
    },
    {
      "channel": 1,
      "note": 69,
      "start": 11.7364,
      "duration": 0.0161,
      "velocity": 101,
      "chip": "ym2612"
    },
    {
      "channel": 0,
      "note": 42,
      "start": 11.7479,
      "duration": 0.0161,
      "velocity": 115,
      "chip": "ym2612"
    },
    {
      "channel": 4,
      "note": 61,
      "start": 11.7491,
      "duration": 0.0161,
      "velocity": 101,
      "chip": "ym2612"
    },
    {
      "channel": 3,
      "note": 64,
      "start": 11.7502,
      "duration": 0.0161,
      "velocity": 101,
      "chip": "ym2612"
    },
    {
      "channel": 1,
      "note": 69,
      "start": 11.7525,
      "duration": 0.0161,
      "velocity": 101,
      "chip": "ym2612"
    },
    {
      "channel": 0,
      "note": 42,
      "start": 11.764,
      "duration": 0.0161,
      "velocity": 115,
      "chip": "ym2612"
    },
    {
      "channel": 4,
      "note": 61,
      "start": 11.7652,
      "duration": 0.0161,
      "velocity": 101,
      "chip": "ym2612"
    },
    {
      "channel": 3,
      "note": 64,
      "start": 11.7663,
      "duration": 0.0161,
      "velocity": 101,
      "chip": "ym2612"
    },
    {
      "channel": 1,
      "note": 69,
      "start": 11.7686,
      "duration": 0.0161,
      "velocity": 101,
      "chip": "ym2612"
    },
    {
      "channel": 0,
      "note": 43,
      "start": 11.7801,
      "duration": 0.0161,
      "velocity": 115,
      "chip": "ym2612"
    },
    {
      "channel": 4,
      "note": 61,
      "start": 11.7812,
      "duration": 0.0161,
      "velocity": 101,
      "chip": "ym2612"
    },
    {
      "channel": 3,
      "note": 64,
      "start": 11.7824,
      "duration": 0.0161,
      "velocity": 101,
      "chip": "ym2612"
    },
    {
      "channel": 1,
      "note": 69,
      "start": 11.7847,
      "duration": 0.0161,
      "velocity": 101,
      "chip": "ym2612"
    },
    {
      "channel": 0,
      "note": 43,
      "start": 11.7962,
      "duration": 0.0161,
      "velocity": 115,
      "chip": "ym2612"
    },
    {
      "channel": 4,
      "note": 61,
      "start": 11.7973,
      "duration": 0.0161,
      "velocity": 101,
      "chip": "ym2612"
    },
    {
      "channel": 3,
      "note": 64,
      "start": 11.7985,
      "duration": 0.0161,
      "velocity": 101,
      "chip": "ym2612"
    },
    {
      "channel": 1,
      "note": 69,
      "start": 11.8008,
      "duration": 0.0161,
      "velocity": 101,
      "chip": "ym2612"
    },
    {
      "channel": 0,
      "note": 44,
      "start": 11.8123,
      "duration": 0.0169,
      "velocity": 115,
      "chip": "ym2612"
    },
    {
      "channel": 4,
      "note": 61,
      "start": 11.8134,
      "duration": 0.0168,
      "velocity": 101,
      "chip": "ym2612"
    },
    {
      "channel": 3,
      "note": 64,
      "start": 11.8146,
      "duration": 0.0169,
      "velocity": 101,
      "chip": "ym2612"
    },
    {
      "channel": 1,
      "note": 69,
      "start": 11.8169,
      "duration": 0.0169,
      "velocity": 101,
      "chip": "ym2612"
    },
    {
      "channel": 0,
      "note": 44,
      "start": 11.8292,
      "duration": 0.0167,
      "velocity": 115,
      "chip": "ym2612"
    },
    {
      "channel": 4,
      "note": 61,
      "start": 11.8303,
      "duration": 0.0167,
      "velocity": 101,
      "chip": "ym2612"
    },
    {
      "channel": 3,
      "note": 64,
      "start": 11.8315,
      "duration": 0.0167,
      "velocity": 101,
      "chip": "ym2612"
    },
    {
      "channel": 1,
      "note": 69,
      "start": 11.8337,
      "duration": 0.0167,
      "velocity": 101,
      "chip": "ym2612"
    },
    {
      "channel": 0,
      "note": 44,
      "start": 11.8458,
      "duration": 0.0163,
      "velocity": 115,
      "chip": "ym2612"
    },
    {
      "channel": 4,
      "note": 61,
      "start": 11.847,
      "duration": 0.0163,
      "velocity": 101,
      "chip": "ym2612"
    },
    {
      "channel": 3,
      "note": 64,
      "start": 11.8481,
      "duration": 0.0163,
      "velocity": 101,
      "chip": "ym2612"
    },
    {
      "channel": 1,
      "note": 69,
      "start": 11.8504,
      "duration": 0.0163,
      "velocity": 101,
      "chip": "ym2612"
    },
    {
      "channel": 0,
      "note": 45,
      "start": 11.8621,
      "duration": 0.0147,
      "velocity": 115,
      "chip": "ym2612"
    },
    {
      "channel": 4,
      "note": 61,
      "start": 11.8632,
      "duration": 0.0147,
      "velocity": 101,
      "chip": "ym2612"
    },
    {
      "channel": 3,
      "note": 64,
      "start": 11.8644,
      "duration": 0.0147,
      "velocity": 101,
      "chip": "ym2612"
    },
    {
      "channel": 1,
      "note": 69,
      "start": 11.8667,
      "duration": 0.0147,
      "velocity": 101,
      "chip": "ym2612"
    },
    {
      "channel": 0,
      "note": 45,
      "start": 11.8768,
      "duration": 0.0188,
      "velocity": 115,
      "chip": "ym2612"
    },
    {
      "channel": 4,
      "note": 61,
      "start": 11.878,
      "duration": 0.0188,
      "velocity": 101,
      "chip": "ym2612"
    },
    {
      "channel": 3,
      "note": 64,
      "start": 11.8791,
      "duration": 0.0188,
      "velocity": 101,
      "chip": "ym2612"
    },
    {
      "channel": 1,
      "note": 69,
      "start": 11.8814,
      "duration": 0.0188,
      "velocity": 101,
      "chip": "ym2612"
    },
    {
      "channel": 0,
      "note": 46,
      "start": 11.8956,
      "duration": 0.0161,
      "velocity": 115,
      "chip": "ym2612"
    },
    {
      "channel": 4,
      "note": 61,
      "start": 11.8967,
      "duration": 0.0161,
      "velocity": 101,
      "chip": "ym2612"
    },
    {
      "channel": 3,
      "note": 64,
      "start": 11.8979,
      "duration": 0.0161,
      "velocity": 101,
      "chip": "ym2612"
    },
    {
      "channel": 1,
      "note": 69,
      "start": 11.9002,
      "duration": 0.0161,
      "velocity": 101,
      "chip": "ym2612"
    },
    {
      "channel": 0,
      "note": 46,
      "start": 11.9117,
      "duration": 0.0157,
      "velocity": 115,
      "chip": "ym2612"
    },
    {
      "channel": 4,
      "note": 61,
      "start": 11.9128,
      "duration": 0.0158,
      "velocity": 101,
      "chip": "ym2612"
    },
    {
      "channel": 3,
      "note": 64,
      "start": 11.9139,
      "duration": 0.0158,
      "velocity": 101,
      "chip": "ym2612"
    },
    {
      "channel": 1,
      "note": 69,
      "start": 11.9162,
      "duration": 0.0158,
      "velocity": 101,
      "chip": "ym2612"
    },
    {
      "channel": 0,
      "note": 47,
      "start": 11.9274,
      "duration": 0.0139,
      "velocity": 115,
      "chip": "ym2612"
    },
    {
      "channel": 4,
      "note": 61,
      "start": 11.9286,
      "duration": 0.014,
      "velocity": 101,
      "chip": "ym2612"
    },
    {
      "channel": 3,
      "note": 64,
      "start": 11.9297,
      "duration": 0.014,
      "velocity": 101,
      "chip": "ym2612"
    },
    {
      "channel": 1,
      "note": 69,
      "start": 11.932,
      "duration": 0.014,
      "velocity": 101,
      "chip": "ym2612"
    },
    {
      "channel": 0,
      "note": 47,
      "start": 11.9412,
      "duration": 0.016,
      "velocity": 115,
      "chip": "ym2612"
    },
    {
      "channel": 4,
      "note": 61,
      "start": 11.9426,
      "duration": 0.0186,
      "velocity": 101,
      "chip": "ym2612"
    },
    {
      "channel": 3,
      "note": 64,
      "start": 11.9437,
      "duration": 0.0186,
      "velocity": 101,
      "chip": "ym2612"
    },
    {
      "channel": 1,
      "note": 69,
      "start": 11.946,
      "duration": 0.0185,
      "velocity": 101,
      "chip": "ym2612"
    },
    {
      "channel": 0,
      "note": 47,
      "start": 11.9572,
      "duration": 0.0161,
      "velocity": 115,
      "chip": "ym2612"
    },
    {
      "channel": 4,
      "note": 61,
      "start": 11.9612,
      "duration": 0.0161,
      "velocity": 101,
      "chip": "ym2612"
    },
    {
      "channel": 3,
      "note": 64,
      "start": 11.9623,
      "duration": 0.0161,
      "velocity": 101,
      "chip": "ym2612"
    },
    {
      "channel": 1,
      "note": 69,
      "start": 11.9645,
      "duration": 0.0161,
      "velocity": 101,
      "chip": "ym2612"
    },
    {
      "channel": 0,
      "note": 48,
      "start": 11.9733,
      "duration": 0.0202,
      "velocity": 115,
      "chip": "ym2612"
    },
    {
      "channel": 4,
      "note": 61,
      "start": 11.9773,
      "duration": 0.0175,
      "velocity": 101,
      "chip": "ym2612"
    },
    {
      "channel": 3,
      "note": 64,
      "start": 11.9784,
      "duration": 0.0175,
      "velocity": 101,
      "chip": "ym2612"
    },
    {
      "channel": 1,
      "note": 69,
      "start": 11.9806,
      "duration": 0.0176,
      "velocity": 101,
      "chip": "ym2612"
    },
    {
      "channel": 0,
      "note": 36,
      "start": 11.9935,
      "duration": 0.012,
      "velocity": 115,
      "chip": "ym2612"
    },
    {
      "channel": 4,
      "note": 61,
      "start": 11.9947,
      "duration": 0.012,
      "velocity": 101,
      "chip": "ym2612"
    },
    {
      "channel": 3,
      "note": 64,
      "start": 11.9959,
      "duration": 0.0123,
      "velocity": 101,
      "chip": "ym2612"
    },
    {
      "channel": 1,
      "note": 69,
      "start": 11.9982,
      "duration": 0.0123,
      "velocity": 101,
      "chip": "ym2612"
    },
    {
      "channel": 0,
      "note": 36,
      "start": 12.0056,
      "duration": 0.016,
      "velocity": 115,
      "chip": "ym2612"
    },
    {
      "channel": 4,
      "note": 61,
      "start": 12.0068,
      "duration": 0.016,
      "velocity": 101,
      "chip": "ym2612"
    },
    {
      "channel": 3,
      "note": 64,
      "start": 12.0082,
      "duration": 0.0157,
      "velocity": 101,
      "chip": "ym2612"
    },
    {
      "channel": 1,
      "note": 69,
      "start": 12.0105,
      "duration": 0.0184,
      "velocity": 101,
      "chip": "ym2612"
    },
    {
      "channel": 0,
      "note": 37,
      "start": 12.0216,
      "duration": 0.0162,
      "velocity": 115,
      "chip": "ym2612"
    },
    {
      "channel": 4,
      "note": 61,
      "start": 12.0228,
      "duration": 0.0161,
      "velocity": 101,
      "chip": "ym2612"
    },
    {
      "channel": 3,
      "note": 64,
      "start": 12.0239,
      "duration": 0.0161,
      "velocity": 101,
      "chip": "ym2612"
    },
    {
      "channel": 1,
      "note": 69,
      "start": 12.029,
      "duration": 0.0161,
      "velocity": 101,
      "chip": "ym2612"
    },
    {
      "channel": 0,
      "note": 37,
      "start": 12.0378,
      "duration": 0.0161,
      "velocity": 115,
      "chip": "ym2612"
    },
    {
      "channel": 4,
      "note": 61,
      "start": 12.0389,
      "duration": 0.0161,
      "velocity": 101,
      "chip": "ym2612"
    },
    {
      "channel": 3,
      "note": 64,
      "start": 12.04,
      "duration": 0.0161,
      "velocity": 101,
      "chip": "ym2612"
    },
    {
      "channel": 1,
      "note": 69,
      "start": 12.0451,
      "duration": 0.0157,
      "velocity": 101,
      "chip": "ym2612"
    },
    {
      "channel": 0,
      "note": 38,
      "start": 12.0538,
      "duration": 0.0161,
      "velocity": 115,
      "chip": "ym2612"
    },
    {
      "channel": 4,
      "note": 61,
      "start": 12.055,
      "duration": 0.0161,
      "velocity": 101,
      "chip": "ym2612"
    },
    {
      "channel": 3,
      "note": 64,
      "start": 12.0561,
      "duration": 0.0161,
      "velocity": 101,
      "chip": "ym2612"
    },
    {
      "channel": 1,
      "note": 69,
      "start": 12.0608,
      "duration": 0.0141,
      "velocity": 101,
      "chip": "ym2612"
    },
    {
      "channel": 0,
      "note": 38,
      "start": 12.0699,
      "duration": 0.0161,
      "velocity": 115,
      "chip": "ym2612"
    },
    {
      "channel": 4,
      "note": 61,
      "start": 12.0711,
      "duration": 0.0161,
      "velocity": 101,
      "chip": "ym2612"
    },
    {
      "channel": 3,
      "note": 64,
      "start": 12.0722,
      "duration": 0.0161,
      "velocity": 101,
      "chip": "ym2612"
    },
    {
      "channel": 1,
      "note": 69,
      "start": 12.0748,
      "duration": 0.0158,
      "velocity": 101,
      "chip": "ym2612"
    },
    {
      "channel": 0,
      "note": 39,
      "start": 12.086,
      "duration": 0.0161,
      "velocity": 115,
      "chip": "ym2612"
    },
    {
      "channel": 4,
      "note": 61,
      "start": 12.0872,
      "duration": 0.0161,
      "velocity": 101,
      "chip": "ym2612"
    },
    {
      "channel": 3,
      "note": 64,
      "start": 12.0883,
      "duration": 0.0161,
      "velocity": 101,
      "chip": "ym2612"
    },
    {
      "channel": 1,
      "note": 69,
      "start": 12.0906,
      "duration": 0.0161,
      "velocity": 101,
      "chip": "ym2612"
    },
    {
      "channel": 0,
      "note": 39,
      "start": 12.1021,
      "duration": 0.0161,
      "velocity": 115,
      "chip": "ym2612"
    },
    {
      "channel": 4,
      "note": 61,
      "start": 12.1033,
      "duration": 0.0161,
      "velocity": 101,
      "chip": "ym2612"
    },
    {
      "channel": 3,
      "note": 64,
      "start": 12.1044,
      "duration": 0.0161,
      "velocity": 101,
      "chip": "ym2612"
    },
    {
      "channel": 1,
      "note": 69,
      "start": 12.1067,
      "duration": 0.0161,
      "velocity": 101,
      "chip": "ym2612"
    },
    {
      "channel": 0,
      "note": 40,
      "start": 12.1182,
      "duration": 0.0161,
      "velocity": 115,
      "chip": "ym2612"
    },
    {
      "channel": 4,
      "note": 61,
      "start": 12.1194,
      "duration": 0.0161,
      "velocity": 101,
      "chip": "ym2612"
    },
    {
      "channel": 3,
      "note": 64,
      "start": 12.1205,
      "duration": 0.0161,
      "velocity": 101,
      "chip": "ym2612"
    },
    {
      "channel": 1,
      "note": 69,
      "start": 12.1228,
      "duration": 0.0161,
      "velocity": 101,
      "chip": "ym2612"
    },
    {
      "channel": 0,
      "note": 40,
      "start": 12.1343,
      "duration": 0.0161,
      "velocity": 115,
      "chip": "ym2612"
    },
    {
      "channel": 4,
      "note": 61,
      "start": 12.1355,
      "duration": 0.0161,
      "velocity": 101,
      "chip": "ym2612"
    },
    {
      "channel": 3,
      "note": 64,
      "start": 12.1366,
      "duration": 0.0162,
      "velocity": 101,
      "chip": "ym2612"
    },
    {
      "channel": 1,
      "note": 69,
      "start": 12.1389,
      "duration": 0.0161,
      "velocity": 101,
      "chip": "ym2612"
    },
    {
      "channel": 0,
      "note": 40,
      "start": 12.1504,
      "duration": 0.0161,
      "velocity": 115,
      "chip": "ym2612"
    },
    {
      "channel": 4,
      "note": 61,
      "start": 12.1516,
      "duration": 0.0161,
      "velocity": 101,
      "chip": "ym2612"
    },
    {
      "channel": 3,
      "note": 64,
      "start": 12.1528,
      "duration": 0.0161,
      "velocity": 101,
      "chip": "ym2612"
    },
    {
      "channel": 1,
      "note": 69,
      "start": 12.155,
      "duration": 0.0161,
      "velocity": 101,
      "chip": "ym2612"
    },
    {
      "channel": 0,
      "note": 41,
      "start": 12.1665,
      "duration": 0.0161,
      "velocity": 115,
      "chip": "ym2612"
    },
    {
      "channel": 4,
      "note": 61,
      "start": 12.1677,
      "duration": 0.0161,
      "velocity": 101,
      "chip": "ym2612"
    },
    {
      "channel": 3,
      "note": 64,
      "start": 12.1688,
      "duration": 0.0161,
      "velocity": 101,
      "chip": "ym2612"
    },
    {
      "channel": 1,
      "note": 69,
      "start": 12.1711,
      "duration": 0.0161,
      "velocity": 101,
      "chip": "ym2612"
    },
    {
      "channel": 0,
      "note": 41,
      "start": 12.1827,
      "duration": 0.0161,
      "velocity": 115,
      "chip": "ym2612"
    },
    {
      "channel": 4,
      "note": 61,
      "start": 12.1838,
      "duration": 0.0161,
      "velocity": 101,
      "chip": "ym2612"
    },
    {
      "channel": 3,
      "note": 64,
      "start": 12.1849,
      "duration": 0.0161,
      "velocity": 101,
      "chip": "ym2612"
    },
    {
      "channel": 1,
      "note": 69,
      "start": 12.1872,
      "duration": 0.0161,
      "velocity": 101,
      "chip": "ym2612"
    },
    {
      "channel": 0,
      "note": 42,
      "start": 12.1988,
      "duration": 0.0178,
      "velocity": 124,
      "chip": "ym2612"
    },
    {
      "channel": 4,
      "note": 61,
      "start": 12.1999,
      "duration": 0.0179,
      "velocity": 101,
      "chip": "ym2612"
    },
    {
      "channel": 3,
      "note": 64,
      "start": 12.201,
      "duration": 0.0179,
      "velocity": 101,
      "chip": "ym2612"
    },
    {
      "channel": 1,
      "note": 69,
      "start": 12.2033,
      "duration": 0.0179,
      "velocity": 101,
      "chip": "ym2612"
    },
    {
      "channel": 0,
      "note": 84,
      "start": 12.2166,
      "duration": 0.0144,
      "velocity": 124,
      "chip": "ym2612"
    },
    {
      "channel": 4,
      "note": 61,
      "start": 12.2178,
      "duration": 0.0144,
      "velocity": 101,
      "chip": "ym2612"
    },
    {
      "channel": 3,
      "note": 64,
      "start": 12.2189,
      "duration": 0.0144,
      "velocity": 101,
      "chip": "ym2612"
    },
    {
      "channel": 1,
      "note": 69,
      "start": 12.2212,
      "duration": 0.0144,
      "velocity": 101,
      "chip": "ym2612"
    },
    {
      "channel": 0,
      "note": 82,
      "start": 12.231,
      "duration": 0.016,
      "velocity": 124,
      "chip": "ym2612"
    },
    {
      "channel": 4,
      "note": 61,
      "start": 12.2322,
      "duration": 0.016,
      "velocity": 101,
      "chip": "ym2612"
    },
    {
      "channel": 3,
      "note": 64,
      "start": 12.2333,
      "duration": 0.016,
      "velocity": 101,
      "chip": "ym2612"
    },
    {
      "channel": 1,
      "note": 69,
      "start": 12.2356,
      "duration": 0.016,
      "velocity": 101,
      "chip": "ym2612"
    },
    {
      "channel": 0,
      "note": 80,
      "start": 12.247,
      "duration": 0.0161,
      "velocity": 124,
      "chip": "ym2612"
    },
    {
      "channel": 4,
      "note": 61,
      "start": 12.2482,
      "duration": 0.0161,
      "velocity": 101,
      "chip": "ym2612"
    },
    {
      "channel": 3,
      "note": 64,
      "start": 12.2493,
      "duration": 0.0162,
      "velocity": 101,
      "chip": "ym2612"
    },
    {
      "channel": 1,
      "note": 69,
      "start": 12.2516,
      "duration": 0.0161,
      "velocity": 101,
      "chip": "ym2612"
    },
    {
      "channel": 0,
      "note": 77,
      "start": 12.2631,
      "duration": 0.0161,
      "velocity": 124,
      "chip": "ym2612"
    },
    {
      "channel": 4,
      "note": 61,
      "start": 12.2643,
      "duration": 0.0161,
      "velocity": 101,
      "chip": "ym2612"
    },
    {
      "channel": 3,
      "note": 64,
      "start": 12.2655,
      "duration": 0.0161,
      "velocity": 101,
      "chip": "ym2612"
    },
    {
      "channel": 1,
      "note": 69,
      "start": 12.2677,
      "duration": 0.0161,
      "velocity": 101,
      "chip": "ym2612"
    },
    {
      "channel": 0,
      "note": 75,
      "start": 12.2792,
      "duration": 0.0166,
      "velocity": 124,
      "chip": "ym2612"
    },
    {
      "channel": 4,
      "note": 61,
      "start": 12.2804,
      "duration": 0.0165,
      "velocity": 101,
      "chip": "ym2612"
    },
    {
      "channel": 3,
      "note": 64,
      "start": 12.2816,
      "duration": 0.0166,
      "velocity": 101,
      "chip": "ym2612"
    },
    {
      "channel": 1,
      "note": 69,
      "start": 12.2838,
      "duration": 0.0166,
      "velocity": 101,
      "chip": "ym2612"
    },
    {
      "channel": 0,
      "note": 72,
      "start": 12.2958,
      "duration": 0.0167,
      "velocity": 124,
      "chip": "ym2612"
    },
    {
      "channel": 4,
      "note": 61,
      "start": 12.297,
      "duration": 0.0167,
      "velocity": 101,
      "chip": "ym2612"
    },
    {
      "channel": 3,
      "note": 64,
      "start": 12.2981,
      "duration": 0.0167,
      "velocity": 101,
      "chip": "ym2612"
    },
    {
      "channel": 1,
      "note": 69,
      "start": 12.3004,
      "duration": 0.0167,
      "velocity": 101,
      "chip": "ym2612"
    },
    {
      "channel": 0,
      "note": 70,
      "start": 12.3125,
      "duration": 0.0163,
      "velocity": 124,
      "chip": "ym2612"
    },
    {
      "channel": 4,
      "note": 61,
      "start": 12.3136,
      "duration": 0.0163,
      "velocity": 101,
      "chip": "ym2612"
    },
    {
      "channel": 3,
      "note": 64,
      "start": 12.3148,
      "duration": 0.0163,
      "velocity": 101,
      "chip": "ym2612"
    },
    {
      "channel": 1,
      "note": 69,
      "start": 12.3171,
      "duration": 0.0163,
      "velocity": 101,
      "chip": "ym2612"
    },
    {
      "channel": 0,
      "note": 68,
      "start": 12.3288,
      "duration": 0.0149,
      "velocity": 124,
      "chip": "ym2612"
    },
    {
      "channel": 4,
      "note": 61,
      "start": 12.3299,
      "duration": 0.0149,
      "velocity": 101,
      "chip": "ym2612"
    },
    {
      "channel": 3,
      "note": 64,
      "start": 12.3311,
      "duration": 0.0149,
      "velocity": 101,
      "chip": "ym2612"
    },
    {
      "channel": 1,
      "note": 69,
      "start": 12.3334,
      "duration": 0.0149,
      "velocity": 101,
      "chip": "ym2612"
    },
    {
      "channel": 0,
      "note": 65,
      "start": 12.3437,
      "duration": 0.0188,
      "velocity": 124,
      "chip": "ym2612"
    },
    {
      "channel": 4,
      "note": 61,
      "start": 12.3448,
      "duration": 0.0188,
      "velocity": 101,
      "chip": "ym2612"
    },
    {
      "channel": 3,
      "note": 64,
      "start": 12.3459,
      "duration": 0.0188,
      "velocity": 101,
      "chip": "ym2612"
    },
    {
      "channel": 1,
      "note": 69,
      "start": 12.3482,
      "duration": 0.0188,
      "velocity": 101,
      "chip": "ym2612"
    },
    {
      "channel": 0,
      "note": 63,
      "start": 12.3625,
      "duration": 0.0153,
      "velocity": 1,
      "chip": "ym2612"
    },
    {
      "channel": 4,
      "note": 61,
      "start": 12.3636,
      "duration": 0.0153,
      "velocity": 101,
      "chip": "ym2612"
    },
    {
      "channel": 3,
      "note": 64,
      "start": 12.3648,
      "duration": 0.0153,
      "velocity": 101,
      "chip": "ym2612"
    },
    {
      "channel": 1,
      "note": 69,
      "start": 12.3671,
      "duration": 0.0153,
      "velocity": 101,
      "chip": "ym2612"
    },
    {
      "channel": 4,
      "note": 61,
      "start": 12.379,
      "duration": 0.0149,
      "velocity": 101,
      "chip": "ym2612"
    },
    {
      "channel": 3,
      "note": 64,
      "start": 12.3801,
      "duration": 0.0149,
      "velocity": 101,
      "chip": "ym2612"
    },
    {
      "channel": 1,
      "note": 69,
      "start": 12.3824,
      "duration": 0.0149,
      "velocity": 101,
      "chip": "ym2612"
    },
    {
      "channel": 4,
      "note": 61,
      "start": 12.3939,
      "duration": 0.0137,
      "velocity": 101,
      "chip": "ym2612"
    },
    {
      "channel": 3,
      "note": 64,
      "start": 12.395,
      "duration": 0.014,
      "velocity": 101,
      "chip": "ym2612"
    },
    {
      "channel": 1,
      "note": 69,
      "start": 12.3973,
      "duration": 0.014,
      "velocity": 101,
      "chip": "ym2612"
    },
    {
      "channel": 4,
      "note": 61,
      "start": 12.4075,
      "duration": 0.0162,
      "velocity": 101,
      "chip": "ym2612"
    },
    {
      "channel": 3,
      "note": 64,
      "start": 12.409,
      "duration": 0.0186,
      "velocity": 101,
      "chip": "ym2612"
    },
    {
      "channel": 1,
      "note": 69,
      "start": 12.4113,
      "duration": 0.0185,
      "velocity": 101,
      "chip": "ym2612"
    },
    {
      "channel": 4,
      "note": 61,
      "start": 12.4237,
      "duration": 0.0222,
      "velocity": 101,
      "chip": "ym2612"
    },
    {
      "channel": 3,
      "note": 64,
      "start": 12.4276,
      "duration": 0.0195,
      "velocity": 101,
      "chip": "ym2612"
    },
    {
      "channel": 1,
      "note": 69,
      "start": 12.4298,
      "duration": 0.0196,
      "velocity": 101,
      "chip": "ym2612"
    },
    {
      "channel": 0,
      "note": 36,
      "start": 12.4448,
      "duration": 0.0116,
      "velocity": 115,
      "chip": "ym2612"
    },
    {
      "channel": 4,
      "note": 61,
      "start": 12.4459,
      "duration": 0.0117,
      "velocity": 101,
      "chip": "ym2612"
    },
    {
      "channel": 3,
      "note": 64,
      "start": 12.4471,
      "duration": 0.014,
      "velocity": 101,
      "chip": "ym2612"
    },
    {
      "channel": 1,
      "note": 69,
      "start": 12.4494,
      "duration": 0.014,
      "velocity": 101,
      "chip": "ym2612"
    },
    {
      "channel": 0,
      "note": 36,
      "start": 12.4564,
      "duration": 0.016,
      "velocity": 115,
      "chip": "ym2612"
    },
    {
      "channel": 4,
      "note": 61,
      "start": 12.4576,
      "duration": 0.016,
      "velocity": 101,
      "chip": "ym2612"
    },
    {
      "channel": 3,
      "note": 64,
      "start": 12.4611,
      "duration": 0.014,
      "velocity": 101,
      "chip": "ym2612"
    },
    {
      "channel": 1,
      "note": 69,
      "start": 12.4634,
      "duration": 0.014,
      "velocity": 101,
      "chip": "ym2612"
    },
    {
      "channel": 0,
      "note": 37,
      "start": 12.4724,
      "duration": 0.0162,
      "velocity": 115,
      "chip": "ym2612"
    },
    {
      "channel": 4,
      "note": 61,
      "start": 12.4736,
      "duration": 0.0161,
      "velocity": 101,
      "chip": "ym2612"
    },
    {
      "channel": 3,
      "note": 64,
      "start": 12.4751,
      "duration": 0.0158,
      "velocity": 101,
      "chip": "ym2612"
    },
    {
      "channel": 1,
      "note": 69,
      "start": 12.4774,
      "duration": 0.0185,
      "velocity": 101,
      "chip": "ym2612"
    },
    {
      "channel": 0,
      "note": 37,
      "start": 12.4886,
      "duration": 0.0161,
      "velocity": 115,
      "chip": "ym2612"
    },
    {
      "channel": 4,
      "note": 61,
      "start": 12.4897,
      "duration": 0.0161,
      "velocity": 101,
      "chip": "ym2612"
    },
    {
      "channel": 3,
      "note": 64,
      "start": 12.4909,
      "duration": 0.0161,
      "velocity": 101,
      "chip": "ym2612"
    },
    {
      "channel": 1,
      "note": 69,
      "start": 12.4959,
      "duration": 0.0161,
      "velocity": 101,
      "chip": "ym2612"
    },
    {
      "channel": 0,
      "note": 38,
      "start": 12.5047,
      "duration": 0.0161,
      "velocity": 115,
      "chip": "ym2612"
    },
    {
      "channel": 4,
      "note": 61,
      "start": 12.5058,
      "duration": 0.0161,
      "velocity": 101,
      "chip": "ym2612"
    },
    {
      "channel": 3,
      "note": 64,
      "start": 12.507,
      "duration": 0.0161,
      "velocity": 101,
      "chip": "ym2612"
    },
    {
      "channel": 1,
      "note": 69,
      "start": 12.512,
      "duration": 0.0158,
      "velocity": 101,
      "chip": "ym2612"
    },
    {
      "channel": 0,
      "note": 38,
      "start": 12.5208,
      "duration": 0.0161,
      "velocity": 115,
      "chip": "ym2612"
    },
    {
      "channel": 4,
      "note": 61,
      "start": 12.5219,
      "duration": 0.0161,
      "velocity": 101,
      "chip": "ym2612"
    },
    {
      "channel": 3,
      "note": 64,
      "start": 12.5231,
      "duration": 0.0161,
      "velocity": 101,
      "chip": "ym2612"
    },
    {
      "channel": 1,
      "note": 69,
      "start": 12.5278,
      "duration": 0.014,
      "velocity": 101,
      "chip": "ym2612"
    },
    {
      "channel": 0,
      "note": 39,
      "start": 12.5368,
      "duration": 0.0161,
      "velocity": 115,
      "chip": "ym2612"
    },
    {
      "channel": 4,
      "note": 61,
      "start": 12.538,
      "duration": 0.0161,
      "velocity": 101,
      "chip": "ym2612"
    },
    {
      "channel": 3,
      "note": 64,
      "start": 12.5391,
      "duration": 0.0161,
      "velocity": 101,
      "chip": "ym2612"
    },
    {
      "channel": 1,
      "note": 69,
      "start": 12.5417,
      "duration": 0.0158,
      "velocity": 101,
      "chip": "ym2612"
    },
    {
      "channel": 0,
      "note": 39,
      "start": 12.5529,
      "duration": 0.0161,
      "velocity": 115,
      "chip": "ym2612"
    },
    {
      "channel": 4,
      "note": 61,
      "start": 12.5541,
      "duration": 0.0161,
      "velocity": 101,
      "chip": "ym2612"
    },
    {
      "channel": 3,
      "note": 64,
      "start": 12.5552,
      "duration": 0.0161,
      "velocity": 101,
      "chip": "ym2612"
    },
    {
      "channel": 1,
      "note": 69,
      "start": 12.5575,
      "duration": 0.0161,
      "velocity": 101,
      "chip": "ym2612"
    },
    {
      "channel": 0,
      "note": 40,
      "start": 12.569,
      "duration": 0.0161,
      "velocity": 115,
      "chip": "ym2612"
    },
    {
      "channel": 4,
      "note": 61,
      "start": 12.5702,
      "duration": 0.0162,
      "velocity": 101,
      "chip": "ym2612"
    },
    {
      "channel": 3,
      "note": 64,
      "start": 12.5713,
      "duration": 0.0161,
      "velocity": 101,
      "chip": "ym2612"
    },
    {
      "channel": 1,
      "note": 69,
      "start": 12.5736,
      "duration": 0.0161,
      "velocity": 101,
      "chip": "ym2612"
    },
    {
      "channel": 0,
      "note": 40,
      "start": 12.5851,
      "duration": 0.0161,
      "velocity": 115,
      "chip": "ym2612"
    },
    {
      "channel": 4,
      "note": 61,
      "start": 12.5863,
      "duration": 0.0161,
      "velocity": 101,
      "chip": "ym2612"
    },
    {
      "channel": 3,
      "note": 64,
      "start": 12.5875,
      "duration": 0.0161,
      "velocity": 101,
      "chip": "ym2612"
    },
    {
      "channel": 1,
      "note": 69,
      "start": 12.5897,
      "duration": 0.0161,
      "velocity": 101,
      "chip": "ym2612"
    },
    {
      "channel": 0,
      "note": 40,
      "start": 12.6012,
      "duration": 0.0162,
      "velocity": 115,
      "chip": "ym2612"
    },
    {
      "channel": 4,
      "note": 61,
      "start": 12.6024,
      "duration": 0.0161,
      "velocity": 101,
      "chip": "ym2612"
    },
    {
      "channel": 3,
      "note": 64,
      "start": 12.6036,
      "duration": 0.0161,
      "velocity": 101,
      "chip": "ym2612"
    },
    {
      "channel": 1,
      "note": 69,
      "start": 12.6058,
      "duration": 0.0162,
      "velocity": 101,
      "chip": "ym2612"
    },
    {
      "channel": 0,
      "note": 41,
      "start": 12.6174,
      "duration": 0.0161,
      "velocity": 115,
      "chip": "ym2612"
    },
    {
      "channel": 4,
      "note": 61,
      "start": 12.6185,
      "duration": 0.0161,
      "velocity": 101,
      "chip": "ym2612"
    },
    {
      "channel": 3,
      "note": 64,
      "start": 12.6197,
      "duration": 0.0161,
      "velocity": 101,
      "chip": "ym2612"
    },
    {
      "channel": 1,
      "note": 69,
      "start": 12.622,
      "duration": 0.0161,
      "velocity": 101,
      "chip": "ym2612"
    },
    {
      "channel": 0,
      "note": 41,
      "start": 12.6335,
      "duration": 0.0161,
      "velocity": 115,
      "chip": "ym2612"
    },
    {
      "channel": 4,
      "note": 61,
      "start": 12.6346,
      "duration": 0.0161,
      "velocity": 101,
      "chip": "ym2612"
    },
    {
      "channel": 3,
      "note": 64,
      "start": 12.6358,
      "duration": 0.0161,
      "velocity": 101,
      "chip": "ym2612"
    },
    {
      "channel": 1,
      "note": 69,
      "start": 12.6381,
      "duration": 0.0161,
      "velocity": 101,
      "chip": "ym2612"
    },
    {
      "channel": 0,
      "note": 42,
      "start": 12.6496,
      "duration": 0.0179,
      "velocity": 115,
      "chip": "ym2612"
    },
    {
      "channel": 4,
      "note": 61,
      "start": 12.6507,
      "duration": 0.0181,
      "velocity": 101,
      "chip": "ym2612"
    },
    {
      "channel": 3,
      "note": 64,
      "start": 12.6519,
      "duration": 0.0184,
      "velocity": 101,
      "chip": "ym2612"
    },
    {
      "channel": 1,
      "note": 69,
      "start": 12.6541,
      "duration": 0.0188,
      "velocity": 101,
      "chip": "ym2612"
    },
    {
      "channel": 0,
      "note": 36,
      "start": 12.6675,
      "duration": 0.0144,
      "velocity": 115,
      "chip": "ym2612"
    },
    {
      "channel": 4,
      "note": 54,
      "start": 12.6689,
      "duration": 0.0141,
      "velocity": 101,
      "chip": "ym2612"
    },
    {
      "channel": 3,
      "note": 57,
      "start": 12.6703,
      "duration": 0.0139,
      "velocity": 101,
      "chip": "ym2612"
    },
    {
      "channel": 1,
      "note": 62,
      "start": 12.6731,
      "duration": 0.0135,
      "velocity": 101,
      "chip": "ym2612"
    },
    {
      "channel": 0,
      "note": 36,
      "start": 12.6818,
      "duration": 0.016,
      "velocity": 115,
      "chip": "ym2612"
    },
    {
      "channel": 4,
      "note": 54,
      "start": 12.683,
      "duration": 0.016,
      "velocity": 101,
      "chip": "ym2612"
    },
    {
      "channel": 3,
      "note": 57,
      "start": 12.6842,
      "duration": 0.0159,
      "velocity": 101,
      "chip": "ym2612"
    },
    {
      "channel": 1,
      "note": 62,
      "start": 12.6866,
      "duration": 0.0159,
      "velocity": 101,
      "chip": "ym2612"
    },
    {
      "channel": 0,
      "note": 37,
      "start": 12.6979,
      "duration": 0.0161,
      "velocity": 115,
      "chip": "ym2612"
    },
    {
      "channel": 4,
      "note": 54,
      "start": 12.699,
      "duration": 0.0162,
      "velocity": 101,
      "chip": "ym2612"
    },
    {
      "channel": 3,
      "note": 57,
      "start": 12.7002,
      "duration": 0.0161,
      "velocity": 101,
      "chip": "ym2612"
    },
    {
      "channel": 1,
      "note": 62,
      "start": 12.7024,
      "duration": 0.0161,
      "velocity": 101,
      "chip": "ym2612"
    },
    {
      "channel": 0,
      "note": 37,
      "start": 12.7139,
      "duration": 0.0161,
      "velocity": 115,
      "chip": "ym2612"
    },
    {
      "channel": 4,
      "note": 54,
      "start": 12.7152,
      "duration": 0.0161,
      "velocity": 101,
      "chip": "ym2612"
    },
    {
      "channel": 3,
      "note": 57,
      "start": 12.7163,
      "duration": 0.0161,
      "velocity": 101,
      "chip": "ym2612"
    },
    {
      "channel": 1,
      "note": 62,
      "start": 12.7185,
      "duration": 0.0161,
      "velocity": 101,
      "chip": "ym2612"
    },
    {
      "channel": 0,
      "note": 38,
      "start": 12.73,
      "duration": 0.0161,
      "velocity": 115,
      "chip": "ym2612"
    },
    {
      "channel": 4,
      "note": 54,
      "start": 12.7312,
      "duration": 0.0161,
      "velocity": 101,
      "chip": "ym2612"
    },
    {
      "channel": 3,
      "note": 57,
      "start": 12.7324,
      "duration": 0.0161,
      "velocity": 101,
      "chip": "ym2612"
    },
    {
      "channel": 1,
      "note": 62,
      "start": 12.7346,
      "duration": 0.0161,
      "velocity": 101,
      "chip": "ym2612"
    },
    {
      "channel": 0,
      "note": 38,
      "start": 12.7461,
      "duration": 0.0163,
      "velocity": 115,
      "chip": "ym2612"
    },
    {
      "channel": 4,
      "note": 54,
      "start": 12.7473,
      "duration": 0.0163,
      "velocity": 101,
      "chip": "ym2612"
    },
    {
      "channel": 3,
      "note": 57,
      "start": 12.7485,
      "duration": 0.0163,
      "velocity": 101,
      "chip": "ym2612"
    },
    {
      "channel": 1,
      "note": 62,
      "start": 12.7507,
      "duration": 0.0163,
      "velocity": 101,
      "chip": "ym2612"
    },
    {
      "channel": 0,
      "note": 39,
      "start": 12.7625,
      "duration": 0.0167,
      "velocity": 115,
      "chip": "ym2612"
    },
    {
      "channel": 4,
      "note": 54,
      "start": 12.7636,
      "duration": 0.0167,
      "velocity": 101,
      "chip": "ym2612"
    },
    {
      "channel": 3,
      "note": 57,
      "start": 12.7648,
      "duration": 0.0167,
      "velocity": 101,
      "chip": "ym2612"
    },
    {
      "channel": 1,
      "note": 62,
      "start": 12.7671,
      "duration": 0.0167,
      "velocity": 101,
      "chip": "ym2612"
    },
    {
      "channel": 0,
      "note": 39,
      "start": 12.7792,
      "duration": 0.0163,
      "velocity": 115,
      "chip": "ym2612"
    },
    {
      "channel": 4,
      "note": 54,
      "start": 12.7803,
      "duration": 0.0163,
      "velocity": 101,
      "chip": "ym2612"
    },
    {
      "channel": 3,
      "note": 57,
      "start": 12.7815,
      "duration": 0.0163,
      "velocity": 101,
      "chip": "ym2612"
    },
    {
      "channel": 1,
      "note": 62,
      "start": 12.7837,
      "duration": 0.0163,
      "velocity": 101,
      "chip": "ym2612"
    },
    {
      "channel": 0,
      "note": 40,
      "start": 12.7954,
      "duration": 0.0151,
      "velocity": 115,
      "chip": "ym2612"
    },
    {
      "channel": 4,
      "note": 54,
      "start": 12.7966,
      "duration": 0.0151,
      "velocity": 101,
      "chip": "ym2612"
    },
    {
      "channel": 3,
      "note": 57,
      "start": 12.7977,
      "duration": 0.0151,
      "velocity": 101,
      "chip": "ym2612"
    },
    {
      "channel": 1,
      "note": 62,
      "start": 12.8,
      "duration": 0.0151,
      "velocity": 101,
      "chip": "ym2612"
    },
    {
      "channel": 0,
      "note": 40,
      "start": 12.8106,
      "duration": 0.0186,
      "velocity": 115,
      "chip": "ym2612"
    },
    {
      "channel": 4,
      "note": 54,
      "start": 12.8117,
      "duration": 0.0186,
      "velocity": 101,
      "chip": "ym2612"
    },
    {
      "channel": 3,
      "note": 57,
      "start": 12.8129,
      "duration": 0.0186,
      "velocity": 101,
      "chip": "ym2612"
    },
    {
      "channel": 1,
      "note": 62,
      "start": 12.8152,
      "duration": 0.0186,
      "velocity": 101,
      "chip": "ym2612"
    },
    {
      "channel": 0,
      "note": 40,
      "start": 12.8292,
      "duration": 0.0163,
      "velocity": 115,
      "chip": "ym2612"
    },
    {
      "channel": 4,
      "note": 54,
      "start": 12.8303,
      "duration": 0.0164,
      "velocity": 101,
      "chip": "ym2612"
    },
    {
      "channel": 3,
      "note": 57,
      "start": 12.8315,
      "duration": 0.0164,
      "velocity": 101,
      "chip": "ym2612"
    },
    {
      "channel": 1,
      "note": 62,
      "start": 12.8337,
      "duration": 0.0163,
      "velocity": 101,
      "chip": "ym2612"
    },
    {
      "channel": 0,
      "note": 41,
      "start": 12.8455,
      "duration": 0.0157,
      "velocity": 115,
      "chip": "ym2612"
    },
    {
      "channel": 4,
      "note": 54,
      "start": 12.8467,
      "duration": 0.0157,
      "velocity": 101,
      "chip": "ym2612"
    },
    {
      "channel": 3,
      "note": 57,
      "start": 12.8479,
      "duration": 0.0157,
      "velocity": 101,
      "chip": "ym2612"
    },
    {
      "channel": 1,
      "note": 62,
      "start": 12.8501,
      "duration": 0.0158,
      "velocity": 101,
      "chip": "ym2612"
    },
    {
      "channel": 0,
      "note": 41,
      "start": 12.8612,
      "duration": 0.0141,
      "velocity": 115,
      "chip": "ym2612"
    },
    {
      "channel": 4,
      "note": 54,
      "start": 12.8624,
      "duration": 0.0141,
      "velocity": 101,
      "chip": "ym2612"
    },
    {
      "channel": 3,
      "note": 57,
      "start": 12.8636,
      "duration": 0.014,
      "velocity": 101,
      "chip": "ym2612"
    },
    {
      "channel": 1,
      "note": 62,
      "start": 12.8659,
      "duration": 0.014,
      "velocity": 101,
      "chip": "ym2612"
    },
    {
      "channel": 0,
      "note": 42,
      "start": 12.8753,
      "duration": 0.0185,
      "velocity": 115,
      "chip": "ym2612"
    },
    {
      "channel": 4,
      "note": 54,
      "start": 12.8765,
      "duration": 0.0185,
      "velocity": 101,
      "chip": "ym2612"
    },
    {
      "channel": 3,
      "note": 57,
      "start": 12.8776,
      "duration": 0.0185,
      "velocity": 101,
      "chip": "ym2612"
    },
    {
      "channel": 1,
      "note": 62,
      "start": 12.8799,
      "duration": 0.0186,
      "velocity": 101,
      "chip": "ym2612"
    },
    {
      "channel": 0,
      "note": 42,
      "start": 12.8938,
      "duration": 0.0134,
      "velocity": 115,
      "chip": "ym2612"
    },
    {
      "channel": 4,
      "note": 54,
      "start": 12.895,
      "duration": 0.0161,
      "velocity": 101,
      "chip": "ym2612"
    },
    {
      "channel": 3,
      "note": 57,
      "start": 12.8961,
      "duration": 0.0161,
      "velocity": 101,
      "chip": "ym2612"
    },
    {
      "channel": 1,
      "note": 62,
      "start": 12.8984,
      "duration": 0.0161,
      "velocity": 101,
      "chip": "ym2612"
    },
    {
      "channel": 0,
      "note": 43,
      "start": 12.9072,
      "duration": 0.0161,
      "velocity": 115,
      "chip": "ym2612"
    },
    {
      "channel": 4,
      "note": 54,
      "start": 12.9111,
      "duration": 0.0157,
      "velocity": 101,
      "chip": "ym2612"
    },
    {
      "channel": 3,
      "note": 57,
      "start": 12.9122,
      "duration": 0.0158,
      "velocity": 101,
      "chip": "ym2612"
    },
    {
      "channel": 1,
      "note": 62,
      "start": 12.9145,
      "duration": 0.0157,
      "velocity": 101,
      "chip": "ym2612"
    },
    {
      "channel": 0,
      "note": 43,
      "start": 12.9233,
      "duration": 0.0161,
      "velocity": 115,
      "chip": "ym2612"
    },
    {
      "channel": 4,
      "note": 54,
      "start": 12.9268,
      "duration": 0.0137,
      "velocity": 101,
      "chip": "ym2612"
    },
    {
      "channel": 3,
      "note": 57,
      "start": 12.928,
      "duration": 0.014,
      "velocity": 101,
      "chip": "ym2612"
    },
    {
      "channel": 1,
      "note": 62,
      "start": 12.9302,
      "duration": 0.014,
      "velocity": 101,
      "chip": "ym2612"
    },
    {
      "channel": 0,
      "note": 44,
      "start": 12.9394,
      "duration": 0.0161,
      "velocity": 115,
      "chip": "ym2612"
    },
    {
      "channel": 4,
      "note": 54,
      "start": 12.9405,
      "duration": 0.0161,
      "velocity": 101,
      "chip": "ym2612"
    },
    {
      "channel": 3,
      "note": 57,
      "start": 12.942,
      "duration": 0.0185,
      "velocity": 101,
      "chip": "ym2612"
    },
    {
      "channel": 1,
      "note": 62,
      "start": 12.9443,
      "duration": 0.0185,
      "velocity": 101,
      "chip": "ym2612"
    },
    {
      "channel": 0,
      "note": 44,
      "start": 12.9555,
      "duration": 0.0161,
      "velocity": 115,
      "chip": "ym2612"
    },
    {
      "channel": 4,
      "note": 54,
      "start": 12.9566,
      "duration": 0.0161,
      "velocity": 101,
      "chip": "ym2612"
    },
    {
      "channel": 3,
      "note": 57,
      "start": 12.9605,
      "duration": 0.0134,
      "velocity": 101,
      "chip": "ym2612"
    },
    {
      "channel": 1,
      "note": 62,
      "start": 12.9628,
      "duration": 0.0161,
      "velocity": 101,
      "chip": "ym2612"
    },
    {
      "channel": 0,
      "note": 44,
      "start": 12.9716,
      "duration": 0.0161,
      "velocity": 115,
      "chip": "ym2612"
    },
    {
      "channel": 4,
      "note": 54,
      "start": 12.9727,
      "duration": 0.0161,
      "velocity": 101,
      "chip": "ym2612"
    },
    {
      "channel": 3,
      "note": 57,
      "start": 12.9739,
      "duration": 0.0161,
      "velocity": 101,
      "chip": "ym2612"
    },
    {
      "channel": 1,
      "note": 62,
      "start": 12.9789,
      "duration": 0.0157,
      "velocity": 101,
      "chip": "ym2612"
    },
    {
      "channel": 0,
      "note": 45,
      "start": 12.9877,
      "duration": 0.0161,
      "velocity": 115,
      "chip": "ym2612"
    },
    {
      "channel": 4,
      "note": 54,
      "start": 12.9888,
      "duration": 0.0161,
      "velocity": 101,
      "chip": "ym2612"
    },
    {
      "channel": 3,
      "note": 57,
      "start": 12.99,
      "duration": 0.0161,
      "velocity": 101,
      "chip": "ym2612"
    },
    {
      "channel": 1,
      "note": 62,
      "start": 12.9946,
      "duration": 0.0141,
      "velocity": 101,
      "chip": "ym2612"
    },
    {
      "channel": 0,
      "note": 45,
      "start": 13.0038,
      "duration": 0.0161,
      "velocity": 115,
      "chip": "ym2612"
    },
    {
      "channel": 4,
      "note": 54,
      "start": 13.0049,
      "duration": 0.0162,
      "velocity": 101,
      "chip": "ym2612"
    },
    {
      "channel": 3,
      "note": 57,
      "start": 13.0061,
      "duration": 0.0162,
      "velocity": 101,
      "chip": "ym2612"
    },
    {
      "channel": 1,
      "note": 62,
      "start": 13.0087,
      "duration": 0.0185,
      "velocity": 101,
      "chip": "ym2612"
    },
    {
      "channel": 0,
      "note": 46,
      "start": 13.0199,
      "duration": 0.0161,
      "velocity": 115,
      "chip": "ym2612"
    },
    {
      "channel": 4,
      "note": 54,
      "start": 13.0211,
      "duration": 0.0161,
      "velocity": 101,
      "chip": "ym2612"
    },
    {
      "channel": 3,
      "note": 57,
      "start": 13.0222,
      "duration": 0.0161,
      "velocity": 101,
      "chip": "ym2612"
    },
    {
      "channel": 1,
      "note": 62,
      "start": 13.0272,
      "duration": 0.0134,
      "velocity": 101,
      "chip": "ym2612"
    },
    {
      "channel": 0,
      "note": 46,
      "start": 13.036,
      "duration": 0.0161,
      "velocity": 115,
      "chip": "ym2612"
    },
    {
      "channel": 4,
      "note": 54,
      "start": 13.0372,
      "duration": 0.0161,
      "velocity": 101,
      "chip": "ym2612"
    },
    {
      "channel": 3,
      "note": 57,
      "start": 13.0383,
      "duration": 0.0161,
      "velocity": 101,
      "chip": "ym2612"
    },
    {
      "channel": 1,
      "note": 62,
      "start": 13.0405,
      "duration": 0.0161,
      "velocity": 101,
      "chip": "ym2612"
    },
    {
      "channel": 0,
      "note": 47,
      "start": 13.0521,
      "duration": 0.0161,
      "velocity": 115,
      "chip": "ym2612"
    },
    {
      "channel": 4,
      "note": 54,
      "start": 13.0533,
      "duration": 0.0161,
      "velocity": 101,
      "chip": "ym2612"
    },
    {
      "channel": 3,
      "note": 57,
      "start": 13.0544,
      "duration": 0.0161,
      "velocity": 101,
      "chip": "ym2612"
    },
    {
      "channel": 1,
      "note": 62,
      "start": 13.0566,
      "duration": 0.0161,
      "velocity": 101,
      "chip": "ym2612"
    },
    {
      "channel": 0,
      "note": 47,
      "start": 13.0682,
      "duration": 0.0161,
      "velocity": 115,
      "chip": "ym2612"
    },
    {
      "channel": 4,
      "note": 54,
      "start": 13.0694,
      "duration": 0.0161,
      "velocity": 101,
      "chip": "ym2612"
    },
    {
      "channel": 3,
      "note": 57,
      "start": 13.0705,
      "duration": 0.0161,
      "velocity": 101,
      "chip": "ym2612"
    },
    {
      "channel": 1,
      "note": 62,
      "start": 13.0728,
      "duration": 0.0161,
      "velocity": 101,
      "chip": "ym2612"
    },
    {
      "channel": 0,
      "note": 47,
      "start": 13.0843,
      "duration": 0.0161,
      "velocity": 115,
      "chip": "ym2612"
    },
    {
      "channel": 4,
      "note": 54,
      "start": 13.0855,
      "duration": 0.0161,
      "velocity": 101,
      "chip": "ym2612"
    },
    {
      "channel": 3,
      "note": 57,
      "start": 13.0866,
      "duration": 0.0161,
      "velocity": 101,
      "chip": "ym2612"
    },
    {
      "channel": 1,
      "note": 62,
      "start": 13.0889,
      "duration": 0.0161,
      "velocity": 101,
      "chip": "ym2612"
    },
    {
      "channel": 0,
      "note": 48,
      "start": 13.1004,
      "duration": 0.0178,
      "velocity": 124,
      "chip": "ym2612"
    },
    {
      "channel": 4,
      "note": 54,
      "start": 13.1015,
      "duration": 0.0179,
      "velocity": 101,
      "chip": "ym2612"
    },
    {
      "channel": 3,
      "note": 57,
      "start": 13.1027,
      "duration": 0.0179,
      "velocity": 101,
      "chip": "ym2612"
    },
    {
      "channel": 1,
      "note": 62,
      "start": 13.105,
      "duration": 0.0179,
      "velocity": 101,
      "chip": "ym2612"
    },
    {
      "channel": 0,
      "note": 84,
      "start": 13.1183,
      "duration": 0.0144,
      "velocity": 124,
      "chip": "ym2612"
    },
    {
      "channel": 4,
      "note": 54,
      "start": 13.1195,
      "duration": 0.0143,
      "velocity": 101,
      "chip": "ym2612"
    },
    {
      "channel": 3,
      "note": 57,
      "start": 13.1206,
      "duration": 0.0143,
      "velocity": 101,
      "chip": "ym2612"
    },
    {
      "channel": 1,
      "note": 62,
      "start": 13.1229,
      "duration": 0.0144,
      "velocity": 101,
      "chip": "ym2612"
    },
    {
      "channel": 0,
      "note": 82,
      "start": 13.1327,
      "duration": 0.016,
      "velocity": 124,
      "chip": "ym2612"
    },
    {
      "channel": 4,
      "note": 54,
      "start": 13.1338,
      "duration": 0.0161,
      "velocity": 101,
      "chip": "ym2612"
    },
    {
      "channel": 3,
      "note": 57,
      "start": 13.1349,
      "duration": 0.0161,
      "velocity": 101,
      "chip": "ym2612"
    },
    {
      "channel": 1,
      "note": 62,
      "start": 13.1372,
      "duration": 0.016,
      "velocity": 101,
      "chip": "ym2612"
    },
    {
      "channel": 0,
      "note": 80,
      "start": 13.1487,
      "duration": 0.0161,
      "velocity": 124,
      "chip": "ym2612"
    },
    {
      "channel": 4,
      "note": 54,
      "start": 13.1499,
      "duration": 0.0161,
      "velocity": 101,
      "chip": "ym2612"
    },
    {
      "channel": 3,
      "note": 57,
      "start": 13.151,
      "duration": 0.0161,
      "velocity": 101,
      "chip": "ym2612"
    },
    {
      "channel": 1,
      "note": 62,
      "start": 13.1533,
      "duration": 0.0161,
      "velocity": 101,
      "chip": "ym2612"
    },
    {
      "channel": 0,
      "note": 77,
      "start": 13.1648,
      "duration": 0.0161,
      "velocity": 124,
      "chip": "ym2612"
    },
    {
      "channel": 4,
      "note": 54,
      "start": 13.166,
      "duration": 0.0161,
      "velocity": 101,
      "chip": "ym2612"
    },
    {
      "channel": 3,
      "note": 57,
      "start": 13.1671,
      "duration": 0.0161,
      "velocity": 101,
      "chip": "ym2612"
    },
    {
      "channel": 1,
      "note": 62,
      "start": 13.1694,
      "duration": 0.0161,
      "velocity": 101,
      "chip": "ym2612"
    },
    {
      "channel": 0,
      "note": 75,
      "start": 13.1809,
      "duration": 0.0161,
      "velocity": 124,
      "chip": "ym2612"
    },
    {
      "channel": 4,
      "note": 54,
      "start": 13.1821,
      "duration": 0.0161,
      "velocity": 101,
      "chip": "ym2612"
    },
    {
      "channel": 3,
      "note": 57,
      "start": 13.1832,
      "duration": 0.0161,
      "velocity": 101,
      "chip": "ym2612"
    },
    {
      "channel": 1,
      "note": 62,
      "start": 13.1855,
      "duration": 0.0161,
      "velocity": 101,
      "chip": "ym2612"
    },
    {
      "channel": 0,
      "note": 72,
      "start": 13.197,
      "duration": 0.0161,
      "velocity": 124,
      "chip": "ym2612"
    },
    {
      "channel": 4,
      "note": 54,
      "start": 13.1982,
      "duration": 0.0161,
      "velocity": 101,
      "chip": "ym2612"
    },
    {
      "channel": 3,
      "note": 57,
      "start": 13.1993,
      "duration": 0.0161,
      "velocity": 101,
      "chip": "ym2612"
    },
    {
      "channel": 1,
      "note": 62,
      "start": 13.2016,
      "duration": 0.0161,
      "velocity": 101,
      "chip": "ym2612"
    },
    {
      "channel": 0,
      "note": 70,
      "start": 13.2131,
      "duration": 0.0161,
      "velocity": 124,
      "chip": "ym2612"
    },
    {
      "channel": 4,
      "note": 54,
      "start": 13.2143,
      "duration": 0.0161,
      "velocity": 101,
      "chip": "ym2612"
    },
    {
      "channel": 3,
      "note": 57,
      "start": 13.2154,
      "duration": 0.0161,
      "velocity": 101,
      "chip": "ym2612"
    },
    {
      "channel": 1,
      "note": 62,
      "start": 13.2177,
      "duration": 0.0161,
      "velocity": 101,
      "chip": "ym2612"
    },
    {
      "channel": 0,
      "note": 68,
      "start": 13.2292,
      "duration": 0.0166,
      "velocity": 124,
      "chip": "ym2612"
    },
    {
      "channel": 4,
      "note": 54,
      "start": 13.2304,
      "duration": 0.0166,
      "velocity": 101,
      "chip": "ym2612"
    },
    {
      "channel": 3,
      "note": 57,
      "start": 13.2315,
      "duration": 0.0166,
      "velocity": 101,
      "chip": "ym2612"
    },
    {
      "channel": 1,
      "note": 62,
      "start": 13.2338,
      "duration": 0.0166,
      "velocity": 101,
      "chip": "ym2612"
    },
    {
      "channel": 0,
      "note": 65,
      "start": 13.2458,
      "duration": 0.0163,
      "velocity": 124,
      "chip": "ym2612"
    },
    {
      "channel": 4,
      "note": 54,
      "start": 13.247,
      "duration": 0.0163,
      "velocity": 101,
      "chip": "ym2612"
    },
    {
      "channel": 3,
      "note": 57,
      "start": 13.2481,
      "duration": 0.0163,
      "velocity": 101,
      "chip": "ym2612"
    },
    {
      "channel": 1,
      "note": 62,
      "start": 13.2504,
      "duration": 0.0163,
      "velocity": 101,
      "chip": "ym2612"
    },
    {
      "channel": 0,
      "note": 63,
      "start": 13.2621,
      "duration": 0.0146,
      "velocity": 1,
      "chip": "ym2612"
    },
    {
      "channel": 4,
      "note": 54,
      "start": 13.2632,
      "duration": 0.0146,
      "velocity": 101,
      "chip": "ym2612"
    },
    {
      "channel": 3,
      "note": 57,
      "start": 13.2644,
      "duration": 0.0146,
      "velocity": 101,
      "chip": "ym2612"
    },
    {
      "channel": 1,
      "note": 62,
      "start": 13.2667,
      "duration": 0.0146,
      "velocity": 101,
      "chip": "ym2612"
    },
    {
      "channel": 4,
      "note": 54,
      "start": 13.2779,
      "duration": 0.0174,
      "velocity": 101,
      "chip": "ym2612"
    },
    {
      "channel": 3,
      "note": 57,
      "start": 13.279,
      "duration": 0.0174,
      "velocity": 101,
      "chip": "ym2612"
    },
    {
      "channel": 1,
      "note": 62,
      "start": 13.2813,
      "duration": 0.0174,
      "velocity": 101,
      "chip": "ym2612"
    },
    {
      "channel": 4,
      "note": 54,
      "start": 13.2953,
      "duration": 0.0167,
      "velocity": 101,
      "chip": "ym2612"
    },
    {
      "channel": 3,
      "note": 57,
      "start": 13.2965,
      "duration": 0.0167,
      "velocity": 101,
      "chip": "ym2612"
    },
    {
      "channel": 1,
      "note": 62,
      "start": 13.2988,
      "duration": 0.0167,
      "velocity": 101,
      "chip": "ym2612"
    },
    {
      "channel": 4,
      "note": 54,
      "start": 13.312,
      "duration": 0.0157,
      "velocity": 101,
      "chip": "ym2612"
    },
    {
      "channel": 3,
      "note": 57,
      "start": 13.3131,
      "duration": 0.0157,
      "velocity": 101,
      "chip": "ym2612"
    },
    {
      "channel": 1,
      "note": 62,
      "start": 13.3154,
      "duration": 0.0157,
      "velocity": 101,
      "chip": "ym2612"
    },
    {
      "channel": 4,
      "note": 54,
      "start": 13.3277,
      "duration": 0.0141,
      "velocity": 101,
      "chip": "ym2612"
    },
    {
      "channel": 3,
      "note": 57,
      "start": 13.3288,
      "duration": 0.0141,
      "velocity": 101,
      "chip": "ym2612"
    },
    {
      "channel": 1,
      "note": 62,
      "start": 13.3311,
      "duration": 0.0141,
      "velocity": 101,
      "chip": "ym2612"
    },
    {
      "channel": 4,
      "note": 54,
      "start": 13.3417,
      "duration": 0.0158,
      "velocity": 101,
      "chip": "ym2612"
    },
    {
      "channel": 3,
      "note": 57,
      "start": 13.3429,
      "duration": 0.0185,
      "velocity": 101,
      "chip": "ym2612"
    },
    {
      "channel": 1,
      "note": 62,
      "start": 13.3452,
      "duration": 0.0185,
      "velocity": 101,
      "chip": "ym2612"
    },
    {
      "channel": 4,
      "note": 54,
      "start": 13.3575,
      "duration": 0.0161,
      "velocity": 101,
      "chip": "ym2612"
    },
    {
      "channel": 3,
      "note": 57,
      "start": 13.3614,
      "duration": 0.0161,
      "velocity": 101,
      "chip": "ym2612"
    },
    {
      "channel": 1,
      "note": 62,
      "start": 13.3637,
      "duration": 0.0161,
      "velocity": 101,
      "chip": "ym2612"
    },
    {
      "channel": 4,
      "note": 54,
      "start": 13.3736,
      "duration": 0.0161,
      "velocity": 101,
      "chip": "ym2612"
    },
    {
      "channel": 3,
      "note": 57,
      "start": 13.3775,
      "duration": 0.0134,
      "velocity": 101,
      "chip": "ym2612"
    },
    {
      "channel": 1,
      "note": 62,
      "start": 13.3798,
      "duration": 0.0157,
      "velocity": 101,
      "chip": "ym2612"
    },
    {
      "channel": 4,
      "note": 54,
      "start": 13.3897,
      "duration": 0.0161,
      "velocity": 101,
      "chip": "ym2612"
    },
    {
      "channel": 3,
      "note": 57,
      "start": 13.3909,
      "duration": 0.0161,
      "velocity": 101,
      "chip": "ym2612"
    },
    {
      "channel": 1,
      "note": 62,
      "start": 13.3955,
      "duration": 0.0141,
      "velocity": 101,
      "chip": "ym2612"
    },
    {
      "channel": 4,
      "note": 54,
      "start": 13.4058,
      "duration": 0.0162,
      "velocity": 101,
      "chip": "ym2612"
    },
    {
      "channel": 3,
      "note": 57,
      "start": 13.407,
      "duration": 0.0161,
      "velocity": 101,
      "chip": "ym2612"
    },
    {
      "channel": 1,
      "note": 62,
      "start": 13.4096,
      "duration": 0.0185,
      "velocity": 101,
      "chip": "ym2612"
    },
    {
      "channel": 4,
      "note": 54,
      "start": 13.422,
      "duration": 0.0161,
      "velocity": 101,
      "chip": "ym2612"
    },
    {
      "channel": 3,
      "note": 57,
      "start": 13.4231,
      "duration": 0.0161,
      "velocity": 101,
      "chip": "ym2612"
    },
    {
      "channel": 1,
      "note": 62,
      "start": 13.4281,
      "duration": 0.0161,
      "velocity": 101,
      "chip": "ym2612"
    },
    {
      "channel": 4,
      "note": 54,
      "start": 13.4381,
      "duration": 0.0161,
      "velocity": 101,
      "chip": "ym2612"
    },
    {
      "channel": 3,
      "note": 57,
      "start": 13.4392,
      "duration": 0.0161,
      "velocity": 101,
      "chip": "ym2612"
    },
    {
      "channel": 1,
      "note": 62,
      "start": 13.4442,
      "duration": 0.0134,
      "velocity": 101,
      "chip": "ym2612"
    },
    {
      "channel": 4,
      "note": 54,
      "start": 13.4541,
      "duration": 0.0161,
      "velocity": 101,
      "chip": "ym2612"
    },
    {
      "channel": 3,
      "note": 57,
      "start": 13.4553,
      "duration": 0.0161,
      "velocity": 101,
      "chip": "ym2612"
    },
    {
      "channel": 1,
      "note": 62,
      "start": 13.4575,
      "duration": 0.0162,
      "velocity": 101,
      "chip": "ym2612"
    },
    {
      "channel": 4,
      "note": 54,
      "start": 13.4702,
      "duration": 0.0161,
      "velocity": 101,
      "chip": "ym2612"
    },
    {
      "channel": 3,
      "note": 57,
      "start": 13.4714,
      "duration": 0.0161,
      "velocity": 101,
      "chip": "ym2612"
    },
    {
      "channel": 1,
      "note": 62,
      "start": 13.4737,
      "duration": 0.0161,
      "velocity": 101,
      "chip": "ym2612"
    },
    {
      "channel": 4,
      "note": 54,
      "start": 13.4863,
      "duration": 0.0161,
      "velocity": 101,
      "chip": "ym2612"
    },
    {
      "channel": 3,
      "note": 57,
      "start": 13.4875,
      "duration": 0.0161,
      "velocity": 101,
      "chip": "ym2612"
    },
    {
      "channel": 1,
      "note": 62,
      "start": 13.4898,
      "duration": 0.0161,
      "velocity": 101,
      "chip": "ym2612"
    },
    {
      "channel": 4,
      "note": 54,
      "start": 13.5024,
      "duration": 0.0161,
      "velocity": 101,
      "chip": "ym2612"
    },
    {
      "channel": 3,
      "note": 57,
      "start": 13.5036,
      "duration": 0.0161,
      "velocity": 101,
      "chip": "ym2612"
    },
    {
      "channel": 1,
      "note": 62,
      "start": 13.5059,
      "duration": 0.0161,
      "velocity": 101,
      "chip": "ym2612"
    },
    {
      "channel": 4,
      "note": 54,
      "start": 13.5185,
      "duration": 0.0161,
      "velocity": 101,
      "chip": "ym2612"
    },
    {
      "channel": 3,
      "note": 57,
      "start": 13.5197,
      "duration": 0.0161,
      "velocity": 101,
      "chip": "ym2612"
    },
    {
      "channel": 1,
      "note": 62,
      "start": 13.522,
      "duration": 0.0161,
      "velocity": 101,
      "chip": "ym2612"
    },
    {
      "channel": 4,
      "note": 54,
      "start": 13.5346,
      "duration": 0.0161,
      "velocity": 101,
      "chip": "ym2612"
    },
    {
      "channel": 3,
      "note": 57,
      "start": 13.5358,
      "duration": 0.0161,
      "velocity": 101,
      "chip": "ym2612"
    },
    {
      "channel": 1,
      "note": 62,
      "start": 13.5381,
      "duration": 0.0161,
      "velocity": 101,
      "chip": "ym2612"
    },
    {
      "channel": 4,
      "note": 54,
      "start": 13.5507,
      "duration": 0.0163,
      "velocity": 101,
      "chip": "ym2612"
    },
    {
      "channel": 3,
      "note": 57,
      "start": 13.5519,
      "duration": 0.0166,
      "velocity": 101,
      "chip": "ym2612"
    },
    {
      "channel": 1,
      "note": 62,
      "start": 13.5541,
      "duration": 0.0169,
      "velocity": 101,
      "chip": "ym2612"
    },
    {
      "channel": 4,
      "note": 56,
      "start": 13.5671,
      "duration": 0.0158,
      "velocity": 101,
      "chip": "ym2612"
    },
    {
      "channel": 3,
      "note": 59,
      "start": 13.5685,
      "duration": 0.0156,
      "velocity": 101,
      "chip": "ym2612"
    },
    {
      "channel": 1,
      "note": 64,
      "start": 13.571,
      "duration": 0.0155,
      "velocity": 101,
      "chip": "ym2612"
    },
    {
      "channel": 4,
      "note": 56,
      "start": 13.583,
      "duration": 0.0161,
      "velocity": 101,
      "chip": "ym2612"
    },
    {
      "channel": 3,
      "note": 59,
      "start": 13.5842,
      "duration": 0.016,
      "velocity": 101,
      "chip": "ym2612"
    },
    {
      "channel": 1,
      "note": 64,
      "start": 13.5865,
      "duration": 0.0159,
      "velocity": 101,
      "chip": "ym2612"
    },
    {
      "channel": 4,
      "note": 56,
      "start": 13.5991,
      "duration": 0.0161,
      "velocity": 101,
      "chip": "ym2612"
    },
    {
      "channel": 3,
      "note": 59,
      "start": 13.6002,
      "duration": 0.0161,
      "velocity": 101,
      "chip": "ym2612"
    },
    {
      "channel": 1,
      "note": 64,
      "start": 13.6024,
      "duration": 0.0161,
      "velocity": 101,
      "chip": "ym2612"
    },
    {
      "channel": 4,
      "note": 56,
      "start": 13.6152,
      "duration": 0.0161,
      "velocity": 101,
      "chip": "ym2612"
    },
    {
      "channel": 3,
      "note": 59,
      "start": 13.6163,
      "duration": 0.0161,
      "velocity": 101,
      "chip": "ym2612"
    },
    {
      "channel": 1,
      "note": 64,
      "start": 13.6186,
      "duration": 0.0161,
      "velocity": 101,
      "chip": "ym2612"
    },
    {
      "channel": 4,
      "note": 56,
      "start": 13.6312,
      "duration": 0.0161,
      "velocity": 101,
      "chip": "ym2612"
    },
    {
      "channel": 3,
      "note": 59,
      "start": 13.6324,
      "duration": 0.0161,
      "velocity": 101,
      "chip": "ym2612"
    },
    {
      "channel": 1,
      "note": 64,
      "start": 13.6347,
      "duration": 0.0161,
      "velocity": 101,
      "chip": "ym2612"
    },
    {
      "channel": 4,
      "note": 56,
      "start": 13.6473,
      "duration": 0.0161,
      "velocity": 101,
      "chip": "ym2612"
    },
    {
      "channel": 3,
      "note": 59,
      "start": 13.6485,
      "duration": 0.0161,
      "velocity": 101,
      "chip": "ym2612"
    },
    {
      "channel": 1,
      "note": 64,
      "start": 13.6508,
      "duration": 0.0161,
      "velocity": 101,
      "chip": "ym2612"
    },
    {
      "channel": 4,
      "note": 56,
      "start": 13.6634,
      "duration": 0.0161,
      "velocity": 101,
      "chip": "ym2612"
    },
    {
      "channel": 3,
      "note": 59,
      "start": 13.6646,
      "duration": 0.0161,
      "velocity": 101,
      "chip": "ym2612"
    },
    {
      "channel": 1,
      "note": 64,
      "start": 13.6669,
      "duration": 0.0161,
      "velocity": 101,
      "chip": "ym2612"
    },
    {
      "channel": 4,
      "note": 56,
      "start": 13.6795,
      "duration": 0.0161,
      "velocity": 101,
      "chip": "ym2612"
    },
    {
      "channel": 3,
      "note": 59,
      "start": 13.6807,
      "duration": 0.0161,
      "velocity": 101,
      "chip": "ym2612"
    },
    {
      "channel": 1,
      "note": 64,
      "start": 13.683,
      "duration": 0.0161,
      "velocity": 101,
      "chip": "ym2612"
    },
    {
      "channel": 4,
      "note": 56,
      "start": 13.6956,
      "duration": 0.0163,
      "velocity": 101,
      "chip": "ym2612"
    },
    {
      "channel": 3,
      "note": 59,
      "start": 13.6968,
      "duration": 0.0163,
      "velocity": 101,
      "chip": "ym2612"
    },
    {
      "channel": 1,
      "note": 64,
      "start": 13.6991,
      "duration": 0.0163,
      "velocity": 101,
      "chip": "ym2612"
    },
    {
      "channel": 4,
      "note": 56,
      "start": 13.712,
      "duration": 0.0163,
      "velocity": 101,
      "chip": "ym2612"
    },
    {
      "channel": 3,
      "note": 59,
      "start": 13.7131,
      "duration": 0.0163,
      "velocity": 101,
      "chip": "ym2612"
    },
    {
      "channel": 1,
      "note": 64,
      "start": 13.7154,
      "duration": 0.0163,
      "velocity": 101,
      "chip": "ym2612"
    },
    {
      "channel": 4,
      "note": 56,
      "start": 13.7283,
      "duration": 0.0157,
      "velocity": 101,
      "chip": "ym2612"
    },
    {
      "channel": 3,
      "note": 59,
      "start": 13.7294,
      "duration": 0.0157,
      "velocity": 101,
      "chip": "ym2612"
    },
    {
      "channel": 1,
      "note": 64,
      "start": 13.7317,
      "duration": 0.0156,
      "velocity": 101,
      "chip": "ym2612"
    },
    {
      "channel": 4,
      "note": 56,
      "start": 13.744,
      "duration": 0.018,
      "velocity": 101,
      "chip": "ym2612"
    },
    {
      "channel": 3,
      "note": 59,
      "start": 13.7451,
      "duration": 0.018,
      "velocity": 101,
      "chip": "ym2612"
    },
    {
      "channel": 1,
      "note": 64,
      "start": 13.7473,
      "duration": 0.0181,
      "velocity": 101,
      "chip": "ym2612"
    },
    {
      "channel": 4,
      "note": 56,
      "start": 13.762,
      "duration": 0.0167,
      "velocity": 101,
      "chip": "ym2612"
    },
    {
      "channel": 3,
      "note": 59,
      "start": 13.7631,
      "duration": 0.0167,
      "velocity": 101,
      "chip": "ym2612"
    },
    {
      "channel": 1,
      "note": 64,
      "start": 13.7654,
      "duration": 0.0167,
      "velocity": 101,
      "chip": "ym2612"
    },
    {
      "channel": 4,
      "note": 56,
      "start": 13.7786,
      "duration": 0.0195,
      "velocity": 101,
      "chip": "ym2612"
    },
    {
      "channel": 3,
      "note": 59,
      "start": 13.7798,
      "duration": 0.0195,
      "velocity": 101,
      "chip": "ym2612"
    },
    {
      "channel": 1,
      "note": 64,
      "start": 13.7821,
      "duration": 0.0194,
      "velocity": 101,
      "chip": "ym2612"
    },
    {
      "channel": 0,
      "note": 36,
      "start": 13.7969,
      "duration": 0.0123,
      "velocity": 115,
      "chip": "ym2612"
    },
    {
      "channel": 4,
      "note": 56,
      "start": 13.7981,
      "duration": 0.0123,
      "velocity": 101,
      "chip": "ym2612"
    },
    {
      "channel": 3,
      "note": 59,
      "start": 13.7993,
      "duration": 0.0123,
      "velocity": 101,
      "chip": "ym2612"
    },
    {
      "channel": 1,
      "note": 64,
      "start": 13.8015,
      "duration": 0.0124,
      "velocity": 101,
      "chip": "ym2612"
    },
    {
      "channel": 0,
      "note": 36,
      "start": 13.8093,
      "duration": 0.0184,
      "velocity": 115,
      "chip": "ym2612"
    },
    {
      "channel": 4,
      "note": 56,
      "start": 13.8104,
      "duration": 0.0185,
      "velocity": 101,
      "chip": "ym2612"
    },
    {
      "channel": 3,
      "note": 59,
      "start": 13.8115,
      "duration": 0.0184,
      "velocity": 101,
      "chip": "ym2612"
    },
    {
      "channel": 1,
      "note": 64,
      "start": 13.8138,
      "duration": 0.0184,
      "velocity": 101,
      "chip": "ym2612"
    },
    {
      "channel": 0,
      "note": 37,
      "start": 13.8277,
      "duration": 0.0134,
      "velocity": 115,
      "chip": "ym2612"
    },
    {
      "channel": 4,
      "note": 56,
      "start": 13.8288,
      "duration": 0.0161,
      "velocity": 101,
      "chip": "ym2612"
    },
    {
      "channel": 3,
      "note": 59,
      "start": 13.83,
      "duration": 0.0161,
      "velocity": 101,
      "chip": "ym2612"
    },
    {
      "channel": 1,
      "note": 64,
      "start": 13.8323,
      "duration": 0.0161,
      "velocity": 101,
      "chip": "ym2612"
    },
    {
      "channel": 0,
      "note": 37,
      "start": 13.841,
      "duration": 0.0161,
      "velocity": 115,
      "chip": "ym2612"
    },
    {
      "channel": 4,
      "note": 56,
      "start": 13.8449,
      "duration": 0.0158,
      "velocity": 101,
      "chip": "ym2612"
    },
    {
      "channel": 3,
      "note": 59,
      "start": 13.8461,
      "duration": 0.0158,
      "velocity": 101,
      "chip": "ym2612"
    },
    {
      "channel": 1,
      "note": 64,
      "start": 13.8484,
      "duration": 0.0158,
      "velocity": 101,
      "chip": "ym2612"
    },
    {
      "channel": 0,
      "note": 38,
      "start": 13.8571,
      "duration": 0.0161,
      "velocity": 115,
      "chip": "ym2612"
    },
    {
      "channel": 4,
      "note": 56,
      "start": 13.8607,
      "duration": 0.0138,
      "velocity": 101,
      "chip": "ym2612"
    },
    {
      "channel": 3,
      "note": 59,
      "start": 13.8619,
      "duration": 0.0141,
      "velocity": 101,
      "chip": "ym2612"
    },
    {
      "channel": 1,
      "note": 64,
      "start": 13.8641,
      "duration": 0.014,
      "velocity": 101,
      "chip": "ym2612"
    },
    {
      "channel": 0,
      "note": 38,
      "start": 13.8732,
      "duration": 0.0161,
      "velocity": 115,
      "chip": "ym2612"
    },
    {
      "channel": 4,
      "note": 56,
      "start": 13.8745,
      "duration": 0.016,
      "velocity": 101,
      "chip": "ym2612"
    },
    {
      "channel": 3,
      "note": 59,
      "start": 13.8759,
      "duration": 0.0185,
      "velocity": 101,
      "chip": "ym2612"
    },
    {
      "channel": 1,
      "note": 64,
      "start": 13.8781,
      "duration": 0.0185,
      "velocity": 101,
      "chip": "ym2612"
    },
    {
      "channel": 0,
      "note": 39,
      "start": 13.8893,
      "duration": 0.0161,
      "velocity": 115,
      "chip": "ym2612"
    },
    {
      "channel": 4,
      "note": 56,
      "start": 13.8905,
      "duration": 0.0162,
      "velocity": 101,
      "chip": "ym2612"
    },
    {
      "channel": 3,
      "note": 59,
      "start": 13.8944,
      "duration": 0.0161,
      "velocity": 101,
      "chip": "ym2612"
    },
    {
      "channel": 1,
      "note": 64,
      "start": 13.8966,
      "duration": 0.0161,
      "velocity": 101,
      "chip": "ym2612"
    },
    {
      "channel": 0,
      "note": 39,
      "start": 13.9054,
      "duration": 0.0161,
      "velocity": 115,
      "chip": "ym2612"
    },
    {
      "channel": 4,
      "note": 56,
      "start": 13.9066,
      "duration": 0.0161,
      "velocity": 101,
      "chip": "ym2612"
    },
    {
      "channel": 3,
      "note": 59,
      "start": 13.9105,
      "duration": 0.0134,
      "velocity": 101,
      "chip": "ym2612"
    },
    {
      "channel": 1,
      "note": 64,
      "start": 13.9127,
      "duration": 0.0158,
      "velocity": 101,
      "chip": "ym2612"
    },
    {
      "channel": 0,
      "note": 40,
      "start": 13.9215,
      "duration": 0.0162,
      "velocity": 115,
      "chip": "ym2612"
    },
    {
      "channel": 4,
      "note": 56,
      "start": 13.9227,
      "duration": 0.0161,
      "velocity": 101,
      "chip": "ym2612"
    },
    {
      "channel": 3,
      "note": 59,
      "start": 13.9239,
      "duration": 0.0161,
      "velocity": 101,
      "chip": "ym2612"
    },
    {
      "channel": 1,
      "note": 64,
      "start": 13.9285,
      "duration": 0.0141,
      "velocity": 101,
      "chip": "ym2612"
    },
    {
      "channel": 0,
      "note": 40,
      "start": 13.9377,
      "duration": 0.016,
      "velocity": 115,
      "chip": "ym2612"
    },
    {
      "channel": 4,
      "note": 56,
      "start": 13.9388,
      "duration": 0.0161,
      "velocity": 101,
      "chip": "ym2612"
    },
    {
      "channel": 3,
      "note": 59,
      "start": 13.94,
      "duration": 0.0161,
      "velocity": 101,
      "chip": "ym2612"
    },
    {
      "channel": 1,
      "note": 64,
      "start": 13.9426,
      "duration": 0.0185,
      "velocity": 101,
      "chip": "ym2612"
    },
    {
      "channel": 0,
      "note": 40,
      "start": 13.9537,
      "duration": 0.0161,
      "velocity": 115,
      "chip": "ym2612"
    },
    {
      "channel": 4,
      "note": 56,
      "start": 13.9549,
      "duration": 0.0161,
      "velocity": 101,
      "chip": "ym2612"
    },
    {
      "channel": 3,
      "note": 59,
      "start": 13.9561,
      "duration": 0.0161,
      "velocity": 101,
      "chip": "ym2612"
    },
    {
      "channel": 1,
      "note": 64,
      "start": 13.9611,
      "duration": 0.0161,
      "velocity": 101,
      "chip": "ym2612"
    },
    {
      "channel": 0,
      "note": 41,
      "start": 13.9699,
      "duration": 0.0161,
      "velocity": 115,
      "chip": "ym2612"
    },
    {
      "channel": 4,
      "note": 56,
      "start": 13.971,
      "duration": 0.0161,
      "velocity": 101,
      "chip": "ym2612"
    },
    {
      "channel": 3,
      "note": 59,
      "start": 13.9722,
      "duration": 0.0161,
      "velocity": 101,
      "chip": "ym2612"
    },
    {
      "channel": 1,
      "note": 64,
      "start": 13.9772,
      "duration": 0.0134,
      "velocity": 101,
      "chip": "ym2612"
    },
    {
      "channel": 0,
      "note": 41,
      "start": 13.986,
      "duration": 0.0161,
      "velocity": 115,
      "chip": "ym2612"
    },
    {
      "channel": 4,
      "note": 56,
      "start": 13.9871,
      "duration": 0.0161,
      "velocity": 101,
      "chip": "ym2612"
    },
    {
      "channel": 3,
      "note": 59,
      "start": 13.9883,
      "duration": 0.0161,
      "velocity": 101,
      "chip": "ym2612"
    },
    {
      "channel": 1,
      "note": 64,
      "start": 13.9905,
      "duration": 0.0161,
      "velocity": 101,
      "chip": "ym2612"
    },
    {
      "channel": 0,
      "note": 42,
      "start": 14.0021,
      "duration": 0.0178,
      "velocity": 124,
      "chip": "ym2612"
    },
    {
      "channel": 4,
      "note": 56,
      "start": 14.0032,
      "duration": 0.0179,
      "velocity": 101,
      "chip": "ym2612"
    },
    {
      "channel": 3,
      "note": 59,
      "start": 14.0044,
      "duration": 0.0179,
      "velocity": 101,
      "chip": "ym2612"
    },
    {
      "channel": 1,
      "note": 64,
      "start": 14.0066,
      "duration": 0.0206,
      "velocity": 101,
      "chip": "ym2612"
    },
    {
      "channel": 0,
      "note": 84,
      "start": 14.0199,
      "duration": 0.0144,
      "velocity": 124,
      "chip": "ym2612"
    },
    {
      "channel": 4,
      "note": 56,
      "start": 14.0211,
      "duration": 0.0143,
      "velocity": 101,
      "chip": "ym2612"
    },
    {
      "channel": 3,
      "note": 59,
      "start": 14.0223,
      "duration": 0.0143,
      "velocity": 101,
      "chip": "ym2612"
    },
    {
      "channel": 1,
      "note": 64,
      "start": 14.0273,
      "duration": 0.0116,
      "velocity": 101,
      "chip": "ym2612"
    },
    {
      "channel": 0,
      "note": 82,
      "start": 14.0343,
      "duration": 0.016,
      "velocity": 124,
      "chip": "ym2612"
    },
    {
      "channel": 4,
      "note": 56,
      "start": 14.0355,
      "duration": 0.0161,
      "velocity": 101,
      "chip": "ym2612"
    },
    {
      "channel": 3,
      "note": 59,
      "start": 14.0366,
      "duration": 0.0161,
      "velocity": 101,
      "chip": "ym2612"
    },
    {
      "channel": 1,
      "note": 64,
      "start": 14.0389,
      "duration": 0.016,
      "velocity": 101,
      "chip": "ym2612"
    },
    {
      "channel": 0,
      "note": 80,
      "start": 14.0503,
      "duration": 0.0161,
      "velocity": 124,
      "chip": "ym2612"
    },
    {
      "channel": 4,
      "note": 56,
      "start": 14.0515,
      "duration": 0.0161,
      "velocity": 101,
      "chip": "ym2612"
    },
    {
      "channel": 3,
      "note": 59,
      "start": 14.0527,
      "duration": 0.0161,
      "velocity": 101,
      "chip": "ym2612"
    },
    {
      "channel": 1,
      "note": 64,
      "start": 14.0549,
      "duration": 0.0161,
      "velocity": 101,
      "chip": "ym2612"
    },
    {
      "channel": 0,
      "note": 77,
      "start": 14.0664,
      "duration": 0.0161,
      "velocity": 124,
      "chip": "ym2612"
    },
    {
      "channel": 4,
      "note": 56,
      "start": 14.0676,
      "duration": 0.0161,
      "velocity": 101,
      "chip": "ym2612"
    },
    {
      "channel": 3,
      "note": 59,
      "start": 14.0688,
      "duration": 0.0161,
      "velocity": 101,
      "chip": "ym2612"
    },
    {
      "channel": 1,
      "note": 64,
      "start": 14.071,
      "duration": 0.0161,
      "velocity": 101,
      "chip": "ym2612"
    },
    {
      "channel": 0,
      "note": 75,
      "start": 14.0825,
      "duration": 0.0161,
      "velocity": 124,
      "chip": "ym2612"
    },
    {
      "channel": 4,
      "note": 56,
      "start": 14.0837,
      "duration": 0.0161,
      "velocity": 101,
      "chip": "ym2612"
    },
    {
      "channel": 3,
      "note": 59,
      "start": 14.0849,
      "duration": 0.0161,
      "velocity": 101,
      "chip": "ym2612"
    },
    {
      "channel": 1,
      "note": 64,
      "start": 14.0871,
      "duration": 0.0162,
      "velocity": 101,
      "chip": "ym2612"
    },
    {
      "channel": 0,
      "note": 72,
      "start": 14.0987,
      "duration": 0.0161,
      "velocity": 124,
      "chip": "ym2612"
    },
    {
      "channel": 4,
      "note": 56,
      "start": 14.0998,
      "duration": 0.0161,
      "velocity": 101,
      "chip": "ym2612"
    },
    {
      "channel": 3,
      "note": 59,
      "start": 14.101,
      "duration": 0.0161,
      "velocity": 101,
      "chip": "ym2612"
    },
    {
      "channel": 1,
      "note": 64,
      "start": 14.1033,
      "duration": 0.0161,
      "velocity": 101,
      "chip": "ym2612"
    },
    {
      "channel": 0,
      "note": 70,
      "start": 14.1148,
      "duration": 0.0161,
      "velocity": 124,
      "chip": "ym2612"
    },
    {
      "channel": 4,
      "note": 56,
      "start": 14.1159,
      "duration": 0.0161,
      "velocity": 101,
      "chip": "ym2612"
    },
    {
      "channel": 3,
      "note": 59,
      "start": 14.1171,
      "duration": 0.0161,
      "velocity": 101,
      "chip": "ym2612"
    },
    {
      "channel": 1,
      "note": 64,
      "start": 14.1194,
      "duration": 0.0161,
      "velocity": 101,
      "chip": "ym2612"
    },
    {
      "channel": 0,
      "note": 68,
      "start": 14.1309,
      "duration": 0.0161,
      "velocity": 124,
      "chip": "ym2612"
    },
    {
      "channel": 4,
      "note": 56,
      "start": 14.132,
      "duration": 0.0161,
      "velocity": 101,
      "chip": "ym2612"
    },
    {
      "channel": 3,
      "note": 59,
      "start": 14.1332,
      "duration": 0.0161,
      "velocity": 101,
      "chip": "ym2612"
    },
    {
      "channel": 1,
      "note": 64,
      "start": 14.1355,
      "duration": 0.0161,
      "velocity": 101,
      "chip": "ym2612"
    },
    {
      "channel": 0,
      "note": 65,
      "start": 14.147,
      "duration": 0.0161,
      "velocity": 124,
      "chip": "ym2612"
    },
    {
      "channel": 4,
      "note": 56,
      "start": 14.1481,
      "duration": 0.0161,
      "velocity": 101,
      "chip": "ym2612"
    },
    {
      "channel": 3,
      "note": 59,
      "start": 14.1493,
      "duration": 0.0161,
      "velocity": 101,
      "chip": "ym2612"
    },
    {
      "channel": 1,
      "note": 64,
      "start": 14.1515,
      "duration": 0.0161,
      "velocity": 101,
      "chip": "ym2612"
    },
    {
      "channel": 0,
      "note": 63,
      "start": 14.1631,
      "duration": 0.0153,
      "velocity": 1,
      "chip": "ym2612"
    },
    {
      "channel": 4,
      "note": 56,
      "start": 14.1642,
      "duration": 0.0153,
      "velocity": 101,
      "chip": "ym2612"
    },
    {
      "channel": 3,
      "note": 59,
      "start": 14.1654,
      "duration": 0.0153,
      "velocity": 101,
      "chip": "ym2612"
    },
    {
      "channel": 1,
      "note": 64,
      "start": 14.1676,
      "duration": 0.0153,
      "velocity": 101,
      "chip": "ym2612"
    },
    {
      "channel": 4,
      "note": 56,
      "start": 14.1795,
      "duration": 0.0154,
      "velocity": 101,
      "chip": "ym2612"
    },
    {
      "channel": 3,
      "note": 59,
      "start": 14.1807,
      "duration": 0.0154,
      "velocity": 101,
      "chip": "ym2612"
    },
    {
      "channel": 1,
      "note": 64,
      "start": 14.183,
      "duration": 0.0154,
      "velocity": 101,
      "chip": "ym2612"
    },
    {
      "channel": 4,
      "note": 56,
      "start": 14.1949,
      "duration": 0.016,
      "velocity": 101,
      "chip": "ym2612"
    },
    {
      "channel": 3,
      "note": 59,
      "start": 14.1961,
      "duration": 0.016,
      "velocity": 101,
      "chip": "ym2612"
    },
    {
      "channel": 1,
      "note": 64,
      "start": 14.1984,
      "duration": 0.016,
      "velocity": 101,
      "chip": "ym2612"
    },
    {
      "channel": 4,
      "note": 56,
      "start": 14.2109,
      "duration": 0.0177,
      "velocity": 101,
      "chip": "ym2612"
    },
    {
      "channel": 3,
      "note": 59,
      "start": 14.212,
      "duration": 0.0178,
      "velocity": 101,
      "chip": "ym2612"
    },
    {
      "channel": 1,
      "note": 64,
      "start": 14.2143,
      "duration": 0.0178,
      "velocity": 101,
      "chip": "ym2612"
    },
    {
      "channel": 4,
      "note": 56,
      "start": 14.2286,
      "duration": 0.0201,
      "velocity": 101,
      "chip": "ym2612"
    },
    {
      "channel": 3,
      "note": 59,
      "start": 14.2298,
      "duration": 0.0201,
      "velocity": 101,
      "chip": "ym2612"
    },
    {
      "channel": 1,
      "note": 64,
      "start": 14.2321,
      "duration": 0.0201,
      "velocity": 101,
      "chip": "ym2612"
    },
    {
      "channel": 0,
      "note": 84,
      "start": 14.2476,
      "duration": 0.0145,
      "velocity": 124,
      "chip": "ym2612"
    },
    {
      "channel": 4,
      "note": 56,
      "start": 14.2488,
      "duration": 0.0146,
      "velocity": 101,
      "chip": "ym2612"
    },
    {
      "channel": 3,
      "note": 59,
      "start": 14.2499,
      "duration": 0.0146,
      "velocity": 101,
      "chip": "ym2612"
    },
    {
      "channel": 1,
      "note": 64,
      "start": 14.2522,
      "duration": 0.0145,
      "velocity": 101,
      "chip": "ym2612"
    },
    {
      "channel": 0,
      "note": 82,
      "start": 14.2621,
      "duration": 0.014,
      "velocity": 124,
      "chip": "ym2612"
    },
    {
      "channel": 4,
      "note": 56,
      "start": 14.2633,
      "duration": 0.0139,
      "velocity": 101,
      "chip": "ym2612"
    },
    {
      "channel": 3,
      "note": 59,
      "start": 14.2645,
      "duration": 0.0139,
      "velocity": 101,
      "chip": "ym2612"
    },
    {
      "channel": 1,
      "note": 64,
      "start": 14.2667,
      "duration": 0.014,
      "velocity": 101,
      "chip": "ym2612"
    },
    {
      "channel": 0,
      "note": 80,
      "start": 14.2761,
      "duration": 0.0185,
      "velocity": 124,
      "chip": "ym2612"
    },
    {
      "channel": 4,
      "note": 56,
      "start": 14.2773,
      "duration": 0.0186,
      "velocity": 101,
      "chip": "ym2612"
    },
    {
      "channel": 3,
      "note": 59,
      "start": 14.2784,
      "duration": 0.0186,
      "velocity": 101,
      "chip": "ym2612"
    },
    {
      "channel": 1,
      "note": 64,
      "start": 14.2807,
      "duration": 0.0185,
      "velocity": 101,
      "chip": "ym2612"
    },
    {
      "channel": 0,
      "note": 77,
      "start": 14.2946,
      "duration": 0.0161,
      "velocity": 124,
      "chip": "ym2612"
    },
    {
      "channel": 4,
      "note": 56,
      "start": 14.2958,
      "duration": 0.0161,
      "velocity": 101,
      "chip": "ym2612"
    },
    {
      "channel": 3,
      "note": 59,
      "start": 14.297,
      "duration": 0.0161,
      "velocity": 101,
      "chip": "ym2612"
    },
    {
      "channel": 1,
      "note": 64,
      "start": 14.2992,
      "duration": 0.0161,
      "velocity": 101,
      "chip": "ym2612"
    },
    {
      "channel": 0,
      "note": 75,
      "start": 14.3107,
      "duration": 0.0134,
      "velocity": 124,
      "chip": "ym2612"
    },
    {
      "channel": 4,
      "note": 56,
      "start": 14.3119,
      "duration": 0.0157,
      "velocity": 101,
      "chip": "ym2612"
    },
    {
      "channel": 3,
      "note": 59,
      "start": 14.3131,
      "duration": 0.0157,
      "velocity": 101,
      "chip": "ym2612"
    },
    {
      "channel": 1,
      "note": 64,
      "start": 14.3153,
      "duration": 0.0158,
      "velocity": 101,
      "chip": "ym2612"
    },
    {
      "channel": 0,
      "note": 72,
      "start": 14.3241,
      "duration": 0.0161,
      "velocity": 124,
      "chip": "ym2612"
    },
    {
      "channel": 4,
      "note": 56,
      "start": 14.3276,
      "duration": 0.0141,
      "velocity": 101,
      "chip": "ym2612"
    },
    {
      "channel": 3,
      "note": 59,
      "start": 14.3288,
      "duration": 0.0141,
      "velocity": 101,
      "chip": "ym2612"
    },
    {
      "channel": 1,
      "note": 64,
      "start": 14.3311,
      "duration": 0.0141,
      "velocity": 101,
      "chip": "ym2612"
    },
    {
      "channel": 0,
      "note": 70,
      "start": 14.3402,
      "duration": 0.0161,
      "velocity": 124,
      "chip": "ym2612"
    },
    {
      "channel": 4,
      "note": 56,
      "start": 14.3417,
      "duration": 0.0158,
      "velocity": 101,
      "chip": "ym2612"
    },
    {
      "channel": 3,
      "note": 59,
      "start": 14.3428,
      "duration": 0.0185,
      "velocity": 101,
      "chip": "ym2612"
    },
    {
      "channel": 1,
      "note": 64,
      "start": 14.3451,
      "duration": 0.0185,
      "velocity": 101,
      "chip": "ym2612"
    },
    {
      "channel": 0,
      "note": 68,
      "start": 14.3563,
      "duration": 0.0161,
      "velocity": 124,
      "chip": "ym2612"
    },
    {
      "channel": 4,
      "note": 56,
      "start": 14.3575,
      "duration": 0.0161,
      "velocity": 101,
      "chip": "ym2612"
    },
    {
      "channel": 3,
      "note": 59,
      "start": 14.3613,
      "duration": 0.0161,
      "velocity": 101,
      "chip": "ym2612"
    },
    {
      "channel": 1,
      "note": 64,
      "start": 14.3636,
      "duration": 0.0161,
      "velocity": 101,
      "chip": "ym2612"
    },
    {
      "channel": 0,
      "note": 65,
      "start": 14.3724,
      "duration": 0.0161,
      "velocity": 124,
      "chip": "ym2612"
    },
    {
      "channel": 4,
      "note": 56,
      "start": 14.3736,
      "duration": 0.0161,
      "velocity": 101,
      "chip": "ym2612"
    },
    {
      "channel": 3,
      "note": 59,
      "start": 14.3774,
      "duration": 0.0134,
      "velocity": 101,
      "chip": "ym2612"
    },
    {
      "channel": 1,
      "note": 64,
      "start": 14.3797,
      "duration": 0.0157,
      "velocity": 101,
      "chip": "ym2612"
    },
    {
      "channel": 0,
      "note": 63,
      "start": 14.3885,
      "duration": 0.0153,
      "velocity": 1,
      "chip": "ym2612"
    },
    {
      "channel": 4,
      "note": 56,
      "start": 14.3897,
      "duration": 0.0153,
      "velocity": 101,
      "chip": "ym2612"
    },
    {
      "channel": 3,
      "note": 59,
      "start": 14.3908,
      "duration": 0.0153,
      "velocity": 101,
      "chip": "ym2612"
    },
    {
      "channel": 1,
      "note": 64,
      "start": 14.3954,
      "duration": 0.0132,
      "velocity": 101,
      "chip": "ym2612"
    },
    {
      "channel": 4,
      "note": 56,
      "start": 14.4049,
      "duration": 0.0153,
      "velocity": 101,
      "chip": "ym2612"
    },
    {
      "channel": 3,
      "note": 59,
      "start": 14.4061,
      "duration": 0.0153,
      "velocity": 101,
      "chip": "ym2612"
    },
    {
      "channel": 1,
      "note": 64,
      "start": 14.4087,
      "duration": 0.0149,
      "velocity": 101,
      "chip": "ym2612"
    },
    {
      "channel": 4,
      "note": 56,
      "start": 14.4202,
      "duration": 0.0161,
      "velocity": 101,
      "chip": "ym2612"
    },
    {
      "channel": 3,
      "note": 59,
      "start": 14.4213,
      "duration": 0.0161,
      "velocity": 101,
      "chip": "ym2612"
    },
    {
      "channel": 1,
      "note": 64,
      "start": 14.4236,
      "duration": 0.0161,
      "velocity": 101,
      "chip": "ym2612"
    },
    {
      "channel": 4,
      "note": 56,
      "start": 14.4363,
      "duration": 0.0161,
      "velocity": 101,
      "chip": "ym2612"
    },
    {
      "channel": 3,
      "note": 59,
      "start": 14.4374,
      "duration": 0.0161,
      "velocity": 101,
      "chip": "ym2612"
    },
    {
      "channel": 1,
      "note": 64,
      "start": 14.4397,
      "duration": 0.0161,
      "velocity": 101,
      "chip": "ym2612"
    },
    {
      "channel": 4,
      "note": 56,
      "start": 14.4524,
      "duration": 0.0199,
      "velocity": 101,
      "chip": "ym2612"
    },
    {
      "channel": 3,
      "note": 59,
      "start": 14.4535,
      "duration": 0.0202,
      "velocity": 101,
      "chip": "ym2612"
    },
    {
      "channel": 1,
      "note": 64,
      "start": 14.4558,
      "duration": 0.0212,
      "velocity": 101,
      "chip": "ym2612"
    },
    {
      "channel": 0,
      "note": 36,
      "start": 14.4708,
      "duration": 0.0144,
      "velocity": 115,
      "chip": "ym2612"
    },
    {
      "channel": 4,
      "note": 61,
      "start": 14.4723,
      "duration": 0.0141,
      "velocity": 101,
      "chip": "ym2612"
    },
    {
      "channel": 3,
      "note": 64,
      "start": 14.4738,
      "duration": 0.0137,
      "velocity": 101,
      "chip": "ym2612"
    },
    {
      "channel": 1,
      "note": 69,
      "start": 14.4771,
      "duration": 0.0129,
      "velocity": 101,
      "chip": "ym2612"
    },
    {
      "channel": 0,
      "note": 36,
      "start": 14.4851,
      "duration": 0.016,
      "velocity": 115,
      "chip": "ym2612"
    },
    {
      "channel": 4,
      "note": 61,
      "start": 14.4863,
      "duration": 0.016,
      "velocity": 101,
      "chip": "ym2612"
    },
    {
      "channel": 3,
      "note": 64,
      "start": 14.4876,
      "duration": 0.0159,
      "velocity": 101,
      "chip": "ym2612"
    },
    {
      "channel": 1,
      "note": 69,
      "start": 14.49,
      "duration": 0.0158,
      "velocity": 101,
      "chip": "ym2612"
    },
    {
      "channel": 0,
      "note": 37,
      "start": 14.5012,
      "duration": 0.0161,
      "velocity": 115,
      "chip": "ym2612"
    },
    {
      "channel": 4,
      "note": 61,
      "start": 14.5023,
      "duration": 0.0162,
      "velocity": 101,
      "chip": "ym2612"
    },
    {
      "channel": 3,
      "note": 64,
      "start": 14.5034,
      "duration": 0.0162,
      "velocity": 101,
      "chip": "ym2612"
    },
    {
      "channel": 1,
      "note": 69,
      "start": 14.5057,
      "duration": 0.0161,
      "velocity": 101,
      "chip": "ym2612"
    },
    {
      "channel": 0,
      "note": 37,
      "start": 14.5173,
      "duration": 0.0161,
      "velocity": 115,
      "chip": "ym2612"
    },
    {
      "channel": 4,
      "note": 61,
      "start": 14.5185,
      "duration": 0.0161,
      "velocity": 101,
      "chip": "ym2612"
    },
    {
      "channel": 3,
      "note": 64,
      "start": 14.5196,
      "duration": 0.0161,
      "velocity": 101,
      "chip": "ym2612"
    },
    {
      "channel": 1,
      "note": 69,
      "start": 14.5218,
      "duration": 0.0162,
      "velocity": 101,
      "chip": "ym2612"
    },
    {
      "channel": 0,
      "note": 38,
      "start": 14.5334,
      "duration": 0.0162,
      "velocity": 115,
      "chip": "ym2612"
    },
    {
      "channel": 4,
      "note": 61,
      "start": 14.5346,
      "duration": 0.0161,
      "velocity": 101,
      "chip": "ym2612"
    },
    {
      "channel": 3,
      "note": 64,
      "start": 14.5357,
      "duration": 0.0161,
      "velocity": 101,
      "chip": "ym2612"
    },
    {
      "channel": 1,
      "note": 69,
      "start": 14.538,
      "duration": 0.0161,
      "velocity": 101,
      "chip": "ym2612"
    },
    {
      "channel": 0,
      "note": 38,
      "start": 14.5495,
      "duration": 0.0161,
      "velocity": 115,
      "chip": "ym2612"
    },
    {
      "channel": 4,
      "note": 61,
      "start": 14.5507,
      "duration": 0.0161,
      "velocity": 101,
      "chip": "ym2612"
    },
    {
      "channel": 3,
      "note": 64,
      "start": 14.5518,
      "duration": 0.0161,
      "velocity": 101,
      "chip": "ym2612"
    },
    {
      "channel": 1,
      "note": 69,
      "start": 14.5541,
      "duration": 0.0161,
      "velocity": 101,
      "chip": "ym2612"
    },
    {
      "channel": 0,
      "note": 39,
      "start": 14.5656,
      "duration": 0.0161,
      "velocity": 115,
      "chip": "ym2612"
    },
    {
      "channel": 4,
      "note": 61,
      "start": 14.5668,
      "duration": 0.0161,
      "velocity": 101,
      "chip": "ym2612"
    },
    {
      "channel": 3,
      "note": 64,
      "start": 14.5679,
      "duration": 0.0161,
      "velocity": 101,
      "chip": "ym2612"
    },
    {
      "channel": 1,
      "note": 69,
      "start": 14.5702,
      "duration": 0.0161,
      "velocity": 101,
      "chip": "ym2612"
    },
    {
      "channel": 0,
      "note": 39,
      "start": 14.5817,
      "duration": 0.0161,
      "velocity": 115,
      "chip": "ym2612"
    },
    {
      "channel": 4,
      "note": 61,
      "start": 14.5829,
      "duration": 0.0161,
      "velocity": 101,
      "chip": "ym2612"
    },
    {
      "channel": 3,
      "note": 64,
      "start": 14.584,
      "duration": 0.0161,
      "velocity": 101,
      "chip": "ym2612"
    },
    {
      "channel": 1,
      "note": 69,
      "start": 14.5863,
      "duration": 0.0161,
      "velocity": 101,
      "chip": "ym2612"
    },
    {
      "channel": 0,
      "note": 40,
      "start": 14.5978,
      "duration": 0.0161,
      "velocity": 115,
      "chip": "ym2612"
    },
    {
      "channel": 4,
      "note": 61,
      "start": 14.5989,
      "duration": 0.0161,
      "velocity": 101,
      "chip": "ym2612"
    },
    {
      "channel": 3,
      "note": 64,
      "start": 14.6001,
      "duration": 0.0161,
      "velocity": 101,
      "chip": "ym2612"
    },
    {
      "channel": 1,
      "note": 69,
      "start": 14.6024,
      "duration": 0.0161,
      "velocity": 101,
      "chip": "ym2612"
    },
    {
      "channel": 0,
      "note": 40,
      "start": 14.6139,
      "duration": 0.0161,
      "velocity": 115,
      "chip": "ym2612"
    },
    {
      "channel": 4,
      "note": 61,
      "start": 14.615,
      "duration": 0.0161,
      "velocity": 101,
      "chip": "ym2612"
    },
    {
      "channel": 3,
      "note": 64,
      "start": 14.6162,
      "duration": 0.0161,
      "velocity": 101,
      "chip": "ym2612"
    },
    {
      "channel": 1,
      "note": 69,
      "start": 14.6185,
      "duration": 0.0161,
      "velocity": 101,
      "chip": "ym2612"
    },
    {
      "channel": 0,
      "note": 40,
      "start": 14.63,
      "duration": 0.0161,
      "velocity": 115,
      "chip": "ym2612"
    },
    {
      "channel": 4,
      "note": 61,
      "start": 14.6311,
      "duration": 0.0161,
      "velocity": 101,
      "chip": "ym2612"
    },
    {
      "channel": 3,
      "note": 64,
      "start": 14.6323,
      "duration": 0.0161,
      "velocity": 101,
      "chip": "ym2612"
    },
    {
      "channel": 1,
      "note": 69,
      "start": 14.6346,
      "duration": 0.0161,
      "velocity": 101,
      "chip": "ym2612"
    },
    {
      "channel": 0,
      "note": 41,
      "start": 14.6461,
      "duration": 0.0162,
      "velocity": 115,
      "chip": "ym2612"
    },
    {
      "channel": 4,
      "note": 61,
      "start": 14.6472,
      "duration": 0.0161,
      "velocity": 101,
      "chip": "ym2612"
    },
    {
      "channel": 3,
      "note": 64,
      "start": 14.6484,
      "duration": 0.0162,
      "velocity": 101,
      "chip": "ym2612"
    },
    {
      "channel": 1,
      "note": 69,
      "start": 14.6507,
      "duration": 0.0162,
      "velocity": 101,
      "chip": "ym2612"
    },
    {
      "channel": 0,
      "note": 41,
      "start": 14.6622,
      "duration": 0.016,
      "velocity": 115,
      "chip": "ym2612"
    },
    {
      "channel": 4,
      "note": 61,
      "start": 14.6634,
      "duration": 0.0161,
      "velocity": 101,
      "chip": "ym2612"
    },
    {
      "channel": 3,
      "note": 64,
      "start": 14.6645,
      "duration": 0.0161,
      "velocity": 101,
      "chip": "ym2612"
    },
    {
      "channel": 1,
      "note": 69,
      "start": 14.6668,
      "duration": 0.016,
      "velocity": 101,
      "chip": "ym2612"
    },
    {
      "channel": 0,
      "note": 42,
      "start": 14.6783,
      "duration": 0.0175,
      "velocity": 115,
      "chip": "ym2612"
    },
    {
      "channel": 4,
      "note": 61,
      "start": 14.6795,
      "duration": 0.0175,
      "velocity": 101,
      "chip": "ym2612"
    },
    {
      "channel": 3,
      "note": 64,
      "start": 14.6806,
      "duration": 0.0175,
      "velocity": 101,
      "chip": "ym2612"
    },
    {
      "channel": 1,
      "note": 69,
      "start": 14.6829,
      "duration": 0.0176,
      "velocity": 101,
      "chip": "ym2612"
    },
    {
      "channel": 0,
      "note": 42,
      "start": 14.6958,
      "duration": 0.0167,
      "velocity": 115,
      "chip": "ym2612"
    },
    {
      "channel": 4,
      "note": 61,
      "start": 14.697,
      "duration": 0.0167,
      "velocity": 101,
      "chip": "ym2612"
    },
    {
      "channel": 3,
      "note": 64,
      "start": 14.6981,
      "duration": 0.0167,
      "velocity": 101,
      "chip": "ym2612"
    },
    {
      "channel": 1,
      "note": 69,
      "start": 14.7004,
      "duration": 0.0167,
      "velocity": 101,
      "chip": "ym2612"
    },
    {
      "channel": 0,
      "note": 43,
      "start": 14.7125,
      "duration": 0.0163,
      "velocity": 115,
      "chip": "ym2612"
    },
    {
      "channel": 4,
      "note": 61,
      "start": 14.7136,
      "duration": 0.0163,
      "velocity": 101,
      "chip": "ym2612"
    },
    {
      "channel": 3,
      "note": 64,
      "start": 14.7148,
      "duration": 0.0163,
      "velocity": 101,
      "chip": "ym2612"
    },
    {
      "channel": 1,
      "note": 69,
      "start": 14.7171,
      "duration": 0.0163,
      "velocity": 101,
      "chip": "ym2612"
    },
    {
      "channel": 0,
      "note": 43,
      "start": 14.7288,
      "duration": 0.0142,
      "velocity": 115,
      "chip": "ym2612"
    },
    {
      "channel": 4,
      "note": 61,
      "start": 14.7299,
      "duration": 0.0143,
      "velocity": 101,
      "chip": "ym2612"
    },
    {
      "channel": 3,
      "note": 64,
      "start": 14.7311,
      "duration": 0.0142,
      "velocity": 101,
      "chip": "ym2612"
    },
    {
      "channel": 1,
      "note": 69,
      "start": 14.7334,
      "duration": 0.0142,
      "velocity": 101,
      "chip": "ym2612"
    },
    {
      "channel": 0,
      "note": 44,
      "start": 14.743,
      "duration": 0.0185,
      "velocity": 115,
      "chip": "ym2612"
    },
    {
      "channel": 4,
      "note": 61,
      "start": 14.7442,
      "duration": 0.0185,
      "velocity": 101,
      "chip": "ym2612"
    },
    {
      "channel": 3,
      "note": 64,
      "start": 14.7453,
      "duration": 0.0185,
      "velocity": 101,
      "chip": "ym2612"
    },
    {
      "channel": 1,
      "note": 69,
      "start": 14.7476,
      "duration": 0.0185,
      "velocity": 101,
      "chip": "ym2612"
    },
    {
      "channel": 0,
      "note": 44,
      "start": 14.7615,
      "duration": 0.0161,
      "velocity": 115,
      "chip": "ym2612"
    },
    {
      "channel": 4,
      "note": 61,
      "start": 14.7627,
      "duration": 0.0162,
      "velocity": 101,
      "chip": "ym2612"
    },
    {
      "channel": 3,
      "note": 64,
      "start": 14.7638,
      "duration": 0.0161,
      "velocity": 101,
      "chip": "ym2612"
    },
    {
      "channel": 1,
      "note": 69,
      "start": 14.7661,
      "duration": 0.0161,
      "velocity": 101,
      "chip": "ym2612"
    },
    {
      "channel": 0,
      "note": 44,
      "start": 14.7776,
      "duration": 0.0134,
      "velocity": 115,
      "chip": "ym2612"
    },
    {
      "channel": 4,
      "note": 61,
      "start": 14.7788,
      "duration": 0.0157,
      "velocity": 101,
      "chip": "ym2612"
    },
    {
      "channel": 3,
      "note": 64,
      "start": 14.78,
      "duration": 0.0157,
      "velocity": 101,
      "chip": "ym2612"
    },
    {
      "channel": 1,
      "note": 69,
      "start": 14.7822,
      "duration": 0.0158,
      "velocity": 101,
      "chip": "ym2612"
    },
    {
      "channel": 0,
      "note": 45,
      "start": 14.791,
      "duration": 0.0161,
      "velocity": 115,
      "chip": "ym2612"
    },
    {
      "channel": 4,
      "note": 61,
      "start": 14.7946,
      "duration": 0.014,
      "velocity": 101,
      "chip": "ym2612"
    },
    {
      "channel": 3,
      "note": 64,
      "start": 14.7957,
      "duration": 0.014,
      "velocity": 101,
      "chip": "ym2612"
    },
    {
      "channel": 1,
      "note": 69,
      "start": 14.798,
      "duration": 0.014,
      "velocity": 101,
      "chip": "ym2612"
    },
    {
      "channel": 0,
      "note": 45,
      "start": 14.8071,
      "duration": 0.0161,
      "velocity": 115,
      "chip": "ym2612"
    },
    {
      "channel": 4,
      "note": 61,
      "start": 14.8085,
      "duration": 0.0158,
      "velocity": 101,
      "chip": "ym2612"
    },
    {
      "channel": 3,
      "note": 64,
      "start": 14.8097,
      "duration": 0.0186,
      "velocity": 101,
      "chip": "ym2612"
    },
    {
      "channel": 1,
      "note": 69,
      "start": 14.812,
      "duration": 0.0186,
      "velocity": 101,
      "chip": "ym2612"
    },
    {
      "channel": 0,
      "note": 46,
      "start": 14.8232,
      "duration": 0.0162,
      "velocity": 115,
      "chip": "ym2612"
    },
    {
      "channel": 4,
      "note": 61,
      "start": 14.8244,
      "duration": 0.0161,
      "velocity": 101,
      "chip": "ym2612"
    },
    {
      "channel": 3,
      "note": 64,
      "start": 14.8283,
      "duration": 0.0161,
      "velocity": 101,
      "chip": "ym2612"
    },
    {
      "channel": 1,
      "note": 69,
      "start": 14.8306,
      "duration": 0.0161,
      "velocity": 101,
      "chip": "ym2612"
    },
    {
      "channel": 0,
      "note": 46,
      "start": 14.8393,
      "duration": 0.0161,
      "velocity": 115,
      "chip": "ym2612"
    },
    {
      "channel": 4,
      "note": 61,
      "start": 14.8405,
      "duration": 0.0161,
      "velocity": 101,
      "chip": "ym2612"
    },
    {
      "channel": 3,
      "note": 64,
      "start": 14.8444,
      "duration": 0.0134,
      "velocity": 101,
      "chip": "ym2612"
    },
    {
      "channel": 1,
      "note": 69,
      "start": 14.8466,
      "duration": 0.0157,
      "velocity": 101,
      "chip": "ym2612"
    },
    {
      "channel": 0,
      "note": 47,
      "start": 14.8554,
      "duration": 0.0161,
      "velocity": 115,
      "chip": "ym2612"
    },
    {
      "channel": 4,
      "note": 61,
      "start": 14.8566,
      "duration": 0.0161,
      "velocity": 101,
      "chip": "ym2612"
    },
    {
      "channel": 3,
      "note": 64,
      "start": 14.8577,
      "duration": 0.0161,
      "velocity": 101,
      "chip": "ym2612"
    },
    {
      "channel": 1,
      "note": 69,
      "start": 14.8624,
      "duration": 0.0141,
      "velocity": 101,
      "chip": "ym2612"
    },
    {
      "channel": 0,
      "note": 47,
      "start": 14.8715,
      "duration": 0.0161,
      "velocity": 115,
      "chip": "ym2612"
    },
    {
      "channel": 4,
      "note": 61,
      "start": 14.8727,
      "duration": 0.0161,
      "velocity": 101,
      "chip": "ym2612"
    },
    {
      "channel": 3,
      "note": 64,
      "start": 14.8738,
      "duration": 0.0161,
      "velocity": 101,
      "chip": "ym2612"
    },
    {
      "channel": 1,
      "note": 69,
      "start": 14.8764,
      "duration": 0.0185,
      "velocity": 101,
      "chip": "ym2612"
    },
    {
      "channel": 0,
      "note": 47,
      "start": 14.8876,
      "duration": 0.0161,
      "velocity": 115,
      "chip": "ym2612"
    },
    {
      "channel": 4,
      "note": 61,
      "start": 14.8888,
      "duration": 0.0161,
      "velocity": 101,
      "chip": "ym2612"
    },
    {
      "channel": 3,
      "note": 64,
      "start": 14.8899,
      "duration": 0.0161,
      "velocity": 101,
      "chip": "ym2612"
    },
    {
      "channel": 1,
      "note": 69,
      "start": 14.8949,
      "duration": 0.0161,
      "velocity": 101,
      "chip": "ym2612"
    },
    {
      "channel": 0,
      "note": 48,
      "start": 14.9037,
      "duration": 0.0179,
      "velocity": 124,
      "chip": "ym2612"
    },
    {
      "channel": 4,
      "note": 61,
      "start": 14.9049,
      "duration": 0.0179,
      "velocity": 101,
      "chip": "ym2612"
    },
    {
      "channel": 3,
      "note": 64,
      "start": 14.906,
      "duration": 0.0179,
      "velocity": 101,
      "chip": "ym2612"
    },
    {
      "channel": 1,
      "note": 69,
      "start": 14.911,
      "duration": 0.0176,
      "velocity": 101,
      "chip": "ym2612"
    },
    {
      "channel": 0,
      "note": 84,
      "start": 14.9216,
      "duration": 0.0144,
      "velocity": 124,
      "chip": "ym2612"
    },
    {
      "channel": 4,
      "note": 61,
      "start": 14.9228,
      "duration": 0.0144,
      "velocity": 101,
      "chip": "ym2612"
    },
    {
      "channel": 3,
      "note": 64,
      "start": 14.9239,
      "duration": 0.0144,
      "velocity": 101,
      "chip": "ym2612"
    },
    {
      "channel": 1,
      "note": 69,
      "start": 14.9286,
      "duration": 0.012,
      "velocity": 101,
      "chip": "ym2612"
    },
    {
      "channel": 0,
      "note": 82,
      "start": 14.936,
      "duration": 0.016,
      "velocity": 124,
      "chip": "ym2612"
    },
    {
      "channel": 4,
      "note": 61,
      "start": 14.9372,
      "duration": 0.016,
      "velocity": 101,
      "chip": "ym2612"
    },
    {
      "channel": 3,
      "note": 64,
      "start": 14.9383,
      "duration": 0.016,
      "velocity": 101,
      "chip": "ym2612"
    },
    {
      "channel": 1,
      "note": 69,
      "start": 14.9405,
      "duration": 0.016,
      "velocity": 101,
      "chip": "ym2612"
    },
    {
      "channel": 0,
      "note": 80,
      "start": 14.952,
      "duration": 0.0161,
      "velocity": 124,
      "chip": "ym2612"
    },
    {
      "channel": 4,
      "note": 61,
      "start": 14.9532,
      "duration": 0.0161,
      "velocity": 101,
      "chip": "ym2612"
    },
    {
      "channel": 3,
      "note": 64,
      "start": 14.9544,
      "duration": 0.0161,
      "velocity": 101,
      "chip": "ym2612"
    },
    {
      "channel": 1,
      "note": 69,
      "start": 14.9566,
      "duration": 0.0161,
      "velocity": 101,
      "chip": "ym2612"
    },
    {
      "channel": 0,
      "note": 77,
      "start": 14.9681,
      "duration": 0.0161,
      "velocity": 124,
      "chip": "ym2612"
    },
    {
      "channel": 4,
      "note": 61,
      "start": 14.9693,
      "duration": 0.0161,
      "velocity": 101,
      "chip": "ym2612"
    },
    {
      "channel": 3,
      "note": 64,
      "start": 14.9704,
      "duration": 0.0161,
      "velocity": 101,
      "chip": "ym2612"
    },
    {
      "channel": 1,
      "note": 69,
      "start": 14.9727,
      "duration": 0.0161,
      "velocity": 101,
      "chip": "ym2612"
    },
    {
      "channel": 0,
      "note": 75,
      "start": 14.9842,
      "duration": 0.0162,
      "velocity": 124,
      "chip": "ym2612"
    },
    {
      "channel": 4,
      "note": 61,
      "start": 14.9854,
      "duration": 0.0161,
      "velocity": 101,
      "chip": "ym2612"
    },
    {
      "channel": 3,
      "note": 64,
      "start": 14.9865,
      "duration": 0.0161,
      "velocity": 101,
      "chip": "ym2612"
    },
    {
      "channel": 1,
      "note": 69,
      "start": 14.9888,
      "duration": 0.0161,
      "velocity": 101,
      "chip": "ym2612"
    },
    {
      "channel": 0,
      "note": 72,
      "start": 15.0003,
      "duration": 0.0161,
      "velocity": 124,
      "chip": "ym2612"
    },
    {
      "channel": 4,
      "note": 61,
      "start": 15.0015,
      "duration": 0.0161,
      "velocity": 101,
      "chip": "ym2612"
    },
    {
      "channel": 3,
      "note": 64,
      "start": 15.0026,
      "duration": 0.0161,
      "velocity": 101,
      "chip": "ym2612"
    },
    {
      "channel": 1,
      "note": 69,
      "start": 15.0049,
      "duration": 0.0161,
      "velocity": 101,
      "chip": "ym2612"
    },
    {
      "channel": 0,
      "note": 70,
      "start": 15.0164,
      "duration": 0.0161,
      "velocity": 124,
      "chip": "ym2612"
    },
    {
      "channel": 4,
      "note": 61,
      "start": 15.0176,
      "duration": 0.0161,
      "velocity": 101,
      "chip": "ym2612"
    },
    {
      "channel": 3,
      "note": 64,
      "start": 15.0187,
      "duration": 0.0161,
      "velocity": 101,
      "chip": "ym2612"
    },
    {
      "channel": 1,
      "note": 69,
      "start": 15.021,
      "duration": 0.0161,
      "velocity": 101,
      "chip": "ym2612"
    },
    {
      "channel": 0,
      "note": 68,
      "start": 15.0325,
      "duration": 0.0161,
      "velocity": 124,
      "chip": "ym2612"
    },
    {
      "channel": 4,
      "note": 61,
      "start": 15.0337,
      "duration": 0.0161,
      "velocity": 101,
      "chip": "ym2612"
    },
    {
      "channel": 3,
      "note": 64,
      "start": 15.0348,
      "duration": 0.0161,
      "velocity": 101,
      "chip": "ym2612"
    },
    {
      "channel": 1,
      "note": 69,
      "start": 15.0371,
      "duration": 0.0161,
      "velocity": 101,
      "chip": "ym2612"
    },
    {
      "channel": 0,
      "note": 65,
      "start": 15.0486,
      "duration": 0.0161,
      "velocity": 124,
      "chip": "ym2612"
    },
    {
      "channel": 4,
      "note": 61,
      "start": 15.0498,
      "duration": 0.0161,
      "velocity": 101,
      "chip": "ym2612"
    },
    {
      "channel": 3,
      "note": 64,
      "start": 15.0509,
      "duration": 0.0161,
      "velocity": 101,
      "chip": "ym2612"
    },
    {
      "channel": 1,
      "note": 69,
      "start": 15.0532,
      "duration": 0.0161,
      "velocity": 101,
      "chip": "ym2612"
    },
    {
      "channel": 0,
      "note": 63,
      "start": 15.0647,
      "duration": 0.0153,
      "velocity": 1,
      "chip": "ym2612"
    },
    {
      "channel": 4,
      "note": 61,
      "start": 15.0659,
      "duration": 0.0153,
      "velocity": 101,
      "chip": "ym2612"
    },
    {
      "channel": 3,
      "note": 64,
      "start": 15.067,
      "duration": 0.0153,
      "velocity": 101,
      "chip": "ym2612"
    },
    {
      "channel": 1,
      "note": 69,
      "start": 15.0693,
      "duration": 0.0153,
      "velocity": 101,
      "chip": "ym2612"
    },
    {
      "channel": 4,
      "note": 61,
      "start": 15.0812,
      "duration": 0.0153,
      "velocity": 101,
      "chip": "ym2612"
    },
    {
      "channel": 3,
      "note": 64,
      "start": 15.0823,
      "duration": 0.0153,
      "velocity": 101,
      "chip": "ym2612"
    },
    {
      "channel": 1,
      "note": 69,
      "start": 15.0846,
      "duration": 0.0153,
      "velocity": 101,
      "chip": "ym2612"
    },
    {
      "channel": 4,
      "note": 61,
      "start": 15.0965,
      "duration": 0.0161,
      "velocity": 101,
      "chip": "ym2612"
    },
    {
      "channel": 3,
      "note": 64,
      "start": 15.0976,
      "duration": 0.0161,
      "velocity": 101,
      "chip": "ym2612"
    },
    {
      "channel": 1,
      "note": 69,
      "start": 15.0999,
      "duration": 0.0161,
      "velocity": 101,
      "chip": "ym2612"
    },
    {
      "channel": 4,
      "note": 61,
      "start": 15.1126,
      "duration": 0.0161,
      "velocity": 101,
      "chip": "ym2612"
    },
    {
      "channel": 3,
      "note": 64,
      "start": 15.1137,
      "duration": 0.0161,
      "velocity": 101,
      "chip": "ym2612"
    },
    {
      "channel": 1,
      "note": 69,
      "start": 15.116,
      "duration": 0.0161,
      "velocity": 101,
      "chip": "ym2612"
    },
    {
      "channel": 4,
      "note": 61,
      "start": 15.1286,
      "duration": 0.0198,
      "velocity": 101,
      "chip": "ym2612"
    },
    {
      "channel": 3,
      "note": 64,
      "start": 15.1298,
      "duration": 0.02,
      "velocity": 101,
      "chip": "ym2612"
    },
    {
      "channel": 1,
      "note": 69,
      "start": 15.1321,
      "duration": 0.0203,
      "velocity": 101,
      "chip": "ym2612"
    },
    {
      "channel": 0,
      "note": 36,
      "start": 15.147,
      "duration": 0.0155,
      "velocity": 115,
      "chip": "ym2612"
    },
    {
      "channel": 4,
      "note": 61,
      "start": 15.1484,
      "duration": 0.0153,
      "velocity": 101,
      "chip": "ym2612"
    },
    {
      "channel": 3,
      "note": 64,
      "start": 15.1498,
      "duration": 0.0151,
      "velocity": 101,
      "chip": "ym2612"
    },
    {
      "channel": 1,
      "note": 69,
      "start": 15.1524,
      "duration": 0.0149,
      "velocity": 101,
      "chip": "ym2612"
    },
    {
      "channel": 0,
      "note": 36,
      "start": 15.1626,
      "duration": 0.0166,
      "velocity": 115,
      "chip": "ym2612"
    },
    {
      "channel": 4,
      "note": 61,
      "start": 15.1638,
      "duration": 0.0165,
      "velocity": 101,
      "chip": "ym2612"
    },
    {
      "channel": 3,
      "note": 64,
      "start": 15.165,
      "duration": 0.0165,
      "velocity": 101,
      "chip": "ym2612"
    },
    {
      "channel": 1,
      "note": 69,
      "start": 15.1673,
      "duration": 0.0165,
      "velocity": 101,
      "chip": "ym2612"
    },
    {
      "channel": 0,
      "note": 37,
      "start": 15.1792,
      "duration": 0.0163,
      "velocity": 115,
      "chip": "ym2612"
    },
    {
      "channel": 4,
      "note": 61,
      "start": 15.1803,
      "duration": 0.0163,
      "velocity": 101,
      "chip": "ym2612"
    },
    {
      "channel": 3,
      "note": 64,
      "start": 15.1815,
      "duration": 0.0163,
      "velocity": 101,
      "chip": "ym2612"
    },
    {
      "channel": 1,
      "note": 69,
      "start": 15.1837,
      "duration": 0.0163,
      "velocity": 101,
      "chip": "ym2612"
    },
    {
      "channel": 0,
      "note": 37,
      "start": 15.1954,
      "duration": 0.0145,
      "velocity": 115,
      "chip": "ym2612"
    },
    {
      "channel": 4,
      "note": 61,
      "start": 15.1966,
      "duration": 0.0145,
      "velocity": 101,
      "chip": "ym2612"
    },
    {
      "channel": 3,
      "note": 64,
      "start": 15.1977,
      "duration": 0.0145,
      "velocity": 101,
      "chip": "ym2612"
    },
    {
      "channel": 1,
      "note": 69,
      "start": 15.2,
      "duration": 0.0145,
      "velocity": 101,
      "chip": "ym2612"
    },
    {
      "channel": 0,
      "note": 38,
      "start": 15.21,
      "duration": 0.0185,
      "velocity": 115,
      "chip": "ym2612"
    },
    {
      "channel": 4,
      "note": 61,
      "start": 15.2111,
      "duration": 0.0186,
      "velocity": 101,
      "chip": "ym2612"
    },
    {
      "channel": 3,
      "note": 64,
      "start": 15.2122,
      "duration": 0.0186,
      "velocity": 101,
      "chip": "ym2612"
    },
    {
      "channel": 1,
      "note": 69,
      "start": 15.2145,
      "duration": 0.0185,
      "velocity": 101,
      "chip": "ym2612"
    },
    {
      "channel": 0,
      "note": 38,
      "start": 15.2285,
      "duration": 0.0161,
      "velocity": 115,
      "chip": "ym2612"
    },
    {
      "channel": 4,
      "note": 61,
      "start": 15.2297,
      "duration": 0.0161,
      "velocity": 101,
      "chip": "ym2612"
    },
    {
      "channel": 3,
      "note": 64,
      "start": 15.2308,
      "duration": 0.0161,
      "velocity": 101,
      "chip": "ym2612"
    },
    {
      "channel": 1,
      "note": 69,
      "start": 15.233,
      "duration": 0.0162,
      "velocity": 101,
      "chip": "ym2612"
    },
    {
      "channel": 0,
      "note": 39,
      "start": 15.2446,
      "duration": 0.0157,
      "velocity": 115,
      "chip": "ym2612"
    },
    {
      "channel": 4,
      "note": 61,
      "start": 15.2458,
      "duration": 0.0157,
      "velocity": 101,
      "chip": "ym2612"
    },
    {
      "channel": 3,
      "note": 64,
      "start": 15.2469,
      "duration": 0.0157,
      "velocity": 101,
      "chip": "ym2612"
    },
    {
      "channel": 1,
      "note": 69,
      "start": 15.2492,
      "duration": 0.0157,
      "velocity": 101,
      "chip": "ym2612"
    },
    {
      "channel": 0,
      "note": 39,
      "start": 15.2603,
      "duration": 0.0137,
      "velocity": 115,
      "chip": "ym2612"
    },
    {
      "channel": 4,
      "note": 61,
      "start": 15.2615,
      "duration": 0.0141,
      "velocity": 101,
      "chip": "ym2612"
    },
    {
      "channel": 3,
      "note": 64,
      "start": 15.2626,
      "duration": 0.0141,
      "velocity": 101,
      "chip": "ym2612"
    },
    {
      "channel": 1,
      "note": 69,
      "start": 15.2649,
      "duration": 0.0141,
      "velocity": 101,
      "chip": "ym2612"
    },
    {
      "channel": 0,
      "note": 40,
      "start": 15.274,
      "duration": 0.0161,
      "velocity": 115,
      "chip": "ym2612"
    },
    {
      "channel": 4,
      "note": 61,
      "start": 15.2755,
      "duration": 0.0185,
      "velocity": 101,
      "chip": "ym2612"
    },
    {
      "channel": 3,
      "note": 64,
      "start": 15.2767,
      "duration": 0.0185,
      "velocity": 101,
      "chip": "ym2612"
    },
    {
      "channel": 1,
      "note": 69,
      "start": 15.279,
      "duration": 0.0185,
      "velocity": 101,
      "chip": "ym2612"
    },
    {
      "channel": 0,
      "note": 40,
      "start": 15.2902,
      "duration": 0.0161,
      "velocity": 115,
      "chip": "ym2612"
    },
    {
      "channel": 4,
      "note": 61,
      "start": 15.294,
      "duration": 0.0134,
      "velocity": 101,
      "chip": "ym2612"
    },
    {
      "channel": 3,
      "note": 64,
      "start": 15.2952,
      "duration": 0.0161,
      "velocity": 101,
      "chip": "ym2612"
    },
    {
      "channel": 1,
      "note": 69,
      "start": 15.2975,
      "duration": 0.0161,
      "velocity": 101,
      "chip": "ym2612"
    },
    {
      "channel": 0,
      "note": 40,
      "start": 15.3063,
      "duration": 0.0161,
      "velocity": 115,
      "chip": "ym2612"
    },
    {
      "channel": 4,
      "note": 61,
      "start": 15.3074,
      "duration": 0.0161,
      "velocity": 101,
      "chip": "ym2612"
    },
    {
      "channel": 3,
      "note": 64,
      "start": 15.3113,
      "duration": 0.0157,
      "velocity": 101,
      "chip": "ym2612"
    },
    {
      "channel": 1,
      "note": 69,
      "start": 15.3136,
      "duration": 0.0157,
      "velocity": 101,
      "chip": "ym2612"
    },
    {
      "channel": 0,
      "note": 41,
      "start": 15.3224,
      "duration": 0.0161,
      "velocity": 115,
      "chip": "ym2612"
    },
    {
      "channel": 4,
      "note": 61,
      "start": 15.3235,
      "duration": 0.0161,
      "velocity": 101,
      "chip": "ym2612"
    },
    {
      "channel": 3,
      "note": 64,
      "start": 15.327,
      "duration": 0.0137,
      "velocity": 101,
      "chip": "ym2612"
    },
    {
      "channel": 1,
      "note": 69,
      "start": 15.3293,
      "duration": 0.0141,
      "velocity": 101,
      "chip": "ym2612"
    },
    {
      "channel": 0,
      "note": 41,
      "start": 15.3384,
      "duration": 0.0161,
      "velocity": 115,
      "chip": "ym2612"
    },
    {
      "channel": 4,
      "note": 61,
      "start": 15.3396,
      "duration": 0.0161,
      "velocity": 101,
      "chip": "ym2612"
    },
    {
      "channel": 3,
      "note": 64,
      "start": 15.3407,
      "duration": 0.0161,
      "velocity": 101,
      "chip": "ym2612"
    },
    {
      "channel": 1,
      "note": 69,
      "start": 15.3433,
      "duration": 0.0185,
      "velocity": 101,
      "chip": "ym2612"
    },
    {
      "channel": 0,
      "note": 42,
      "start": 15.3545,
      "duration": 0.0161,
      "velocity": 115,
      "chip": "ym2612"
    },
    {
      "channel": 4,
      "note": 61,
      "start": 15.3557,
      "duration": 0.0161,
      "velocity": 101,
      "chip": "ym2612"
    },
    {
      "channel": 3,
      "note": 64,
      "start": 15.3568,
      "duration": 0.0161,
      "velocity": 101,
      "chip": "ym2612"
    },
    {
      "channel": 1,
      "note": 69,
      "start": 15.3619,
      "duration": 0.0161,
      "velocity": 101,
      "chip": "ym2612"
    },
    {
      "channel": 0,
      "note": 42,
      "start": 15.3706,
      "duration": 0.0161,
      "velocity": 115,
      "chip": "ym2612"
    },
    {
      "channel": 4,
      "note": 61,
      "start": 15.3718,
      "duration": 0.0161,
      "velocity": 101,
      "chip": "ym2612"
    },
    {
      "channel": 3,
      "note": 64,
      "start": 15.3729,
      "duration": 0.0161,
      "velocity": 101,
      "chip": "ym2612"
    },
    {
      "channel": 1,
      "note": 69,
      "start": 15.378,
      "duration": 0.0157,
      "velocity": 101,
      "chip": "ym2612"
    },
    {
      "channel": 0,
      "note": 43,
      "start": 15.3867,
      "duration": 0.0161,
      "velocity": 115,
      "chip": "ym2612"
    },
    {
      "channel": 4,
      "note": 61,
      "start": 15.3879,
      "duration": 0.0162,
      "velocity": 101,
      "chip": "ym2612"
    },
    {
      "channel": 3,
      "note": 64,
      "start": 15.389,
      "duration": 0.0161,
      "velocity": 101,
      "chip": "ym2612"
    },
    {
      "channel": 1,
      "note": 69,
      "start": 15.3937,
      "duration": 0.0137,
      "velocity": 101,
      "chip": "ym2612"
    },
    {
      "channel": 0,
      "note": 43,
      "start": 15.4028,
      "duration": 0.0162,
      "velocity": 115,
      "chip": "ym2612"
    },
    {
      "channel": 4,
      "note": 61,
      "start": 15.404,
      "duration": 0.0161,
      "velocity": 101,
      "chip": "ym2612"
    },
    {
      "channel": 3,
      "note": 64,
      "start": 15.4052,
      "duration": 0.0161,
      "velocity": 101,
      "chip": "ym2612"
    },
    {
      "channel": 1,
      "note": 69,
      "start": 15.4074,
      "duration": 0.0162,
      "velocity": 101,
      "chip": "ym2612"
    },
    {
      "channel": 0,
      "note": 44,
      "start": 15.419,
      "duration": 0.0161,
      "velocity": 115,
      "chip": "ym2612"
    },
    {
      "channel": 4,
      "note": 61,
      "start": 15.4201,
      "duration": 0.0161,
      "velocity": 101,
      "chip": "ym2612"
    },
    {
      "channel": 3,
      "note": 64,
      "start": 15.4213,
      "duration": 0.0161,
      "velocity": 101,
      "chip": "ym2612"
    },
    {
      "channel": 1,
      "note": 69,
      "start": 15.4236,
      "duration": 0.0161,
      "velocity": 101,
      "chip": "ym2612"
    },
    {
      "channel": 0,
      "note": 44,
      "start": 15.4351,
      "duration": 0.0161,
      "velocity": 115,
      "chip": "ym2612"
    },
    {
      "channel": 4,
      "note": 61,
      "start": 15.4362,
      "duration": 0.0161,
      "velocity": 101,
      "chip": "ym2612"
    },
    {
      "channel": 3,
      "note": 64,
      "start": 15.4374,
      "duration": 0.0161,
      "velocity": 101,
      "chip": "ym2612"
    },
    {
      "channel": 1,
      "note": 69,
      "start": 15.4397,
      "duration": 0.0161,
      "velocity": 101,
      "chip": "ym2612"
    },
    {
      "channel": 0,
      "note": 44,
      "start": 15.4512,
      "duration": 0.0161,
      "velocity": 115,
      "chip": "ym2612"
    },
    {
      "channel": 4,
      "note": 61,
      "start": 15.4523,
      "duration": 0.0161,
      "velocity": 101,
      "chip": "ym2612"
    },
    {
      "channel": 3,
      "note": 64,
      "start": 15.4534,
      "duration": 0.0161,
      "velocity": 101,
      "chip": "ym2612"
    },
    {
      "channel": 1,
      "note": 69,
      "start": 15.4557,
      "duration": 0.0161,
      "velocity": 101,
      "chip": "ym2612"
    },
    {
      "channel": 0,
      "note": 45,
      "start": 15.4673,
      "duration": 0.0161,
      "velocity": 115,
      "chip": "ym2612"
    },
    {
      "channel": 4,
      "note": 61,
      "start": 15.4684,
      "duration": 0.0161,
      "velocity": 101,
      "chip": "ym2612"
    },
    {
      "channel": 3,
      "note": 64,
      "start": 15.4695,
      "duration": 0.0161,
      "velocity": 101,
      "chip": "ym2612"
    },
    {
      "channel": 1,
      "note": 69,
      "start": 15.4718,
      "duration": 0.0161,
      "velocity": 101,
      "chip": "ym2612"
    },
    {
      "channel": 0,
      "note": 45,
      "start": 15.4834,
      "duration": 0.0161,
      "velocity": 115,
      "chip": "ym2612"
    },
    {
      "channel": 4,
      "note": 61,
      "start": 15.4845,
      "duration": 0.0161,
      "velocity": 101,
      "chip": "ym2612"
    },
    {
      "channel": 3,
      "note": 64,
      "start": 15.4856,
      "duration": 0.0161,
      "velocity": 101,
      "chip": "ym2612"
    },
    {
      "channel": 1,
      "note": 69,
      "start": 15.4879,
      "duration": 0.0161,
      "velocity": 101,
      "chip": "ym2612"
    },
    {
      "channel": 0,
      "note": 46,
      "start": 15.4995,
      "duration": 0.0161,
      "velocity": 115,
      "chip": "ym2612"
    },
    {
      "channel": 4,
      "note": 61,
      "start": 15.5006,
      "duration": 0.0161,
      "velocity": 101,
      "chip": "ym2612"
    },
    {
      "channel": 3,
      "note": 64,
      "start": 15.5017,
      "duration": 0.0161,
      "velocity": 101,
      "chip": "ym2612"
    },
    {
      "channel": 1,
      "note": 69,
      "start": 15.504,
      "duration": 0.0161,
      "velocity": 101,
      "chip": "ym2612"
    },
    {
      "channel": 0,
      "note": 46,
      "start": 15.5155,
      "duration": 0.0161,
      "velocity": 115,
      "chip": "ym2612"
    },
    {
      "channel": 4,
      "note": 61,
      "start": 15.5167,
      "duration": 0.0161,
      "velocity": 101,
      "chip": "ym2612"
    },
    {
      "channel": 3,
      "note": 64,
      "start": 15.5178,
      "duration": 0.0161,
      "velocity": 101,
      "chip": "ym2612"
    },
    {
      "channel": 1,
      "note": 69,
      "start": 15.5201,
      "duration": 0.0161,
      "velocity": 101,
      "chip": "ym2612"
    },
    {
      "channel": 0,
      "note": 47,
      "start": 15.5316,
      "duration": 0.0161,
      "velocity": 115,
      "chip": "ym2612"
    },
    {
      "channel": 4,
      "note": 61,
      "start": 15.5328,
      "duration": 0.0161,
      "velocity": 101,
      "chip": "ym2612"
    },
    {
      "channel": 3,
      "note": 64,
      "start": 15.5339,
      "duration": 0.0162,
      "velocity": 101,
      "chip": "ym2612"
    },
    {
      "channel": 1,
      "note": 69,
      "start": 15.5362,
      "duration": 0.0161,
      "velocity": 101,
      "chip": "ym2612"
    },
    {
      "channel": 0,
      "note": 47,
      "start": 15.5477,
      "duration": 0.0161,
      "velocity": 115,
      "chip": "ym2612"
    },
    {
      "channel": 4,
      "note": 61,
      "start": 15.5489,
      "duration": 0.0161,
      "velocity": 101,
      "chip": "ym2612"
    },
    {
      "channel": 3,
      "note": 64,
      "start": 15.5501,
      "duration": 0.0161,
      "velocity": 101,
      "chip": "ym2612"
    },
    {
      "channel": 1,
      "note": 69,
      "start": 15.5523,
      "duration": 0.0161,
      "velocity": 101,
      "chip": "ym2612"
    },
    {
      "channel": 0,
      "note": 47,
      "start": 15.5638,
      "duration": 0.0161,
      "velocity": 115,
      "chip": "ym2612"
    },
    {
      "channel": 4,
      "note": 61,
      "start": 15.565,
      "duration": 0.0161,
      "velocity": 101,
      "chip": "ym2612"
    },
    {
      "channel": 3,
      "note": 64,
      "start": 15.5662,
      "duration": 0.0161,
      "velocity": 101,
      "chip": "ym2612"
    },
    {
      "channel": 1,
      "note": 69,
      "start": 15.5684,
      "duration": 0.0161,
      "velocity": 101,
      "chip": "ym2612"
    },
    {
      "channel": 0,
      "note": 48,
      "start": 15.58,
      "duration": 0.0178,
      "velocity": 115,
      "chip": "ym2612"
    },
    {
      "channel": 4,
      "note": 61,
      "start": 15.5811,
      "duration": 0.0179,
      "velocity": 101,
      "chip": "ym2612"
    },
    {
      "channel": 3,
      "note": 64,
      "start": 15.5823,
      "duration": 0.0179,
      "velocity": 101,
      "chip": "ym2612"
    },
    {
      "channel": 1,
      "note": 69,
      "start": 15.5846,
      "duration": 0.0179,
      "velocity": 101,
      "chip": "ym2612"
    },
    {
      "channel": 0,
      "note": 36,
      "start": 15.5979,
      "duration": 0.0144,
      "velocity": 115,
      "chip": "ym2612"
    },
    {
      "channel": 4,
      "note": 61,
      "start": 15.599,
      "duration": 0.0144,
      "velocity": 101,
      "chip": "ym2612"
    },
    {
      "channel": 3,
      "note": 64,
      "start": 15.6002,
      "duration": 0.0144,
      "velocity": 101,
      "chip": "ym2612"
    },
    {
      "channel": 1,
      "note": 69,
      "start": 15.6024,
      "duration": 0.0144,
      "velocity": 101,
      "chip": "ym2612"
    },
    {
      "channel": 0,
      "note": 36,
      "start": 15.6122,
      "duration": 0.0169,
      "velocity": 115,
      "chip": "ym2612"
    },
    {
      "channel": 4,
      "note": 61,
      "start": 15.6134,
      "duration": 0.0169,
      "velocity": 101,
      "chip": "ym2612"
    },
    {
      "channel": 3,
      "note": 64,
      "start": 15.6145,
      "duration": 0.0169,
      "velocity": 101,
      "chip": "ym2612"
    },
    {
      "channel": 1,
      "note": 69,
      "start": 15.6168,
      "duration": 0.0169,
      "velocity": 101,
      "chip": "ym2612"
    },
    {
      "channel": 0,
      "note": 37,
      "start": 15.6292,
      "duration": 0.0167,
      "velocity": 115,
      "chip": "ym2612"
    },
    {
      "channel": 4,
      "note": 61,
      "start": 15.6303,
      "duration": 0.0167,
      "velocity": 101,
      "chip": "ym2612"
    },
    {
      "channel": 3,
      "note": 64,
      "start": 15.6315,
      "duration": 0.0167,
      "velocity": 101,
      "chip": "ym2612"
    },
    {
      "channel": 1,
      "note": 69,
      "start": 15.6337,
      "duration": 0.0167,
      "velocity": 101,
      "chip": "ym2612"
    },
    {
      "channel": 0,
      "note": 37,
      "start": 15.6458,
      "duration": 0.0163,
      "velocity": 115,
      "chip": "ym2612"
    },
    {
      "channel": 4,
      "note": 61,
      "start": 15.647,
      "duration": 0.0163,
      "velocity": 101,
      "chip": "ym2612"
    },
    {
      "channel": 3,
      "note": 64,
      "start": 15.6481,
      "duration": 0.0163,
      "velocity": 101,
      "chip": "ym2612"
    },
    {
      "channel": 1,
      "note": 69,
      "start": 15.6504,
      "duration": 0.0163,
      "velocity": 101,
      "chip": "ym2612"
    },
    {
      "channel": 0,
      "note": 38,
      "start": 15.6621,
      "duration": 0.0146,
      "velocity": 115,
      "chip": "ym2612"
    },
    {
      "channel": 4,
      "note": 61,
      "start": 15.6632,
      "duration": 0.0147,
      "velocity": 101,
      "chip": "ym2612"
    },
    {
      "channel": 3,
      "note": 64,
      "start": 15.6644,
      "duration": 0.0147,
      "velocity": 101,
      "chip": "ym2612"
    },
    {
      "channel": 1,
      "note": 69,
      "start": 15.6667,
      "duration": 0.0146,
      "velocity": 101,
      "chip": "ym2612"
    },
    {
      "channel": 0,
      "note": 38,
      "start": 15.6767,
      "duration": 0.0186,
      "velocity": 115,
      "chip": "ym2612"
    },
    {
      "channel": 4,
      "note": 61,
      "start": 15.678,
      "duration": 0.0186,
      "velocity": 101,
      "chip": "ym2612"
    },
    {
      "channel": 3,
      "note": 64,
      "start": 15.6791,
      "duration": 0.0186,
      "velocity": 101,
      "chip": "ym2612"
    },
    {
      "channel": 1,
      "note": 69,
      "start": 15.6813,
      "duration": 0.0186,
      "velocity": 101,
      "chip": "ym2612"
    },
    {
      "channel": 0,
      "note": 39,
      "start": 15.6954,
      "duration": 0.0161,
      "velocity": 115,
      "chip": "ym2612"
    },
    {
      "channel": 4,
      "note": 61,
      "start": 15.6966,
      "duration": 0.0161,
      "velocity": 101,
      "chip": "ym2612"
    },
    {
      "channel": 3,
      "note": 64,
      "start": 15.6977,
      "duration": 0.0161,
      "velocity": 101,
      "chip": "ym2612"
    },
    {
      "channel": 1,
      "note": 69,
      "start": 15.7,
      "duration": 0.0162,
      "velocity": 101,
      "chip": "ym2612"
    },
    {
      "channel": 0,
      "note": 39,
      "start": 15.7115,
      "duration": 0.0158,
      "velocity": 115,
      "chip": "ym2612"
    },
    {
      "channel": 4,
      "note": 61,
      "start": 15.7127,
      "duration": 0.0157,
      "velocity": 101,
      "chip": "ym2612"
    },
    {
      "channel": 3,
      "note": 64,
      "start": 15.7138,
      "duration": 0.0157,
      "velocity": 101,
      "chip": "ym2612"
    },
    {
      "channel": 1,
      "note": 69,
      "start": 15.7161,
      "duration": 0.0157,
      "velocity": 101,
      "chip": "ym2612"
    },
    {
      "channel": 0,
      "note": 40,
      "start": 15.7273,
      "duration": 0.0137,
      "velocity": 115,
      "chip": "ym2612"
    },
    {
      "channel": 4,
      "note": 61,
      "start": 15.7284,
      "duration": 0.0141,
      "velocity": 101,
      "chip": "ym2612"
    },
    {
      "channel": 3,
      "note": 64,
      "start": 15.7295,
      "duration": 0.0141,
      "velocity": 101,
      "chip": "ym2612"
    },
    {
      "channel": 1,
      "note": 69,
      "start": 15.7318,
      "duration": 0.0141,
      "velocity": 101,
      "chip": "ym2612"
    },
    {
      "channel": 0,
      "note": 40,
      "start": 15.741,
      "duration": 0.0161,
      "velocity": 115,
      "chip": "ym2612"
    },
    {
      "channel": 4,
      "note": 61,
      "start": 15.7424,
      "duration": 0.0185,
      "velocity": 101,
      "chip": "ym2612"
    },
    {
      "channel": 3,
      "note": 64,
      "start": 15.7436,
      "duration": 0.0185,
      "velocity": 101,
      "chip": "ym2612"
    },
    {
      "channel": 1,
      "note": 69,
      "start": 15.7459,
      "duration": 0.0185,
      "velocity": 101,
      "chip": "ym2612"
    },
    {
      "channel": 0,
      "note": 40,
      "start": 15.7571,
      "duration": 0.0161,
      "velocity": 115,
      "chip": "ym2612"
    },
    {
      "channel": 4,
      "note": 61,
      "start": 15.761,
      "duration": 0.0134,
      "velocity": 101,
      "chip": "ym2612"
    },
    {
      "channel": 3,
      "note": 64,
      "start": 15.7621,
      "duration": 0.0162,
      "velocity": 101,
      "chip": "ym2612"
    },
    {
      "channel": 1,
      "note": 69,
      "start": 15.7644,
      "duration": 0.0161,
      "velocity": 101,
      "chip": "ym2612"
    },
    {
      "channel": 0,
      "note": 41,
      "start": 15.7732,
      "duration": 0.0161,
      "velocity": 115,
      "chip": "ym2612"
    },
    {
      "channel": 4,
      "note": 61,
      "start": 15.7743,
      "duration": 0.0161,
      "velocity": 101,
      "chip": "ym2612"
    },
    {
      "channel": 3,
      "note": 64,
      "start": 15.7783,
      "duration": 0.0157,
      "velocity": 101,
      "chip": "ym2612"
    },
    {
      "channel": 1,
      "note": 69,
      "start": 15.7805,
      "duration": 0.0158,
      "velocity": 101,
      "chip": "ym2612"
    },
    {
      "channel": 0,
      "note": 41,
      "start": 15.7893,
      "duration": 0.0161,
      "velocity": 115,
      "chip": "ym2612"
    },
    {
      "channel": 4,
      "note": 61,
      "start": 15.7904,
      "duration": 0.0161,
      "velocity": 101,
      "chip": "ym2612"
    },
    {
      "channel": 3,
      "note": 64,
      "start": 15.794,
      "duration": 0.0137,
      "velocity": 101,
      "chip": "ym2612"
    },
    {
      "channel": 1,
      "note": 69,
      "start": 15.7963,
      "duration": 0.014,
      "velocity": 101,
      "chip": "ym2612"
    },
    {
      "channel": 0,
      "note": 42,
      "start": 15.8054,
      "duration": 0.0179,
      "velocity": 124,
      "chip": "ym2612"
    },
    {
      "channel": 4,
      "note": 61,
      "start": 15.8065,
      "duration": 0.0207,
      "velocity": 101,
      "chip": "ym2612"
    },
    {
      "channel": 3,
      "note": 64,
      "start": 15.8077,
      "duration": 0.0207,
      "velocity": 101,
      "chip": "ym2612"
    },
    {
      "channel": 1,
      "note": 69,
      "start": 15.8103,
      "duration": 0.0203,
      "velocity": 101,
      "chip": "ym2612"
    },
    {
      "channel": 0,
      "note": 84,
      "start": 15.8232,
      "duration": 0.0144,
      "velocity": 124,
      "chip": "ym2612"
    },
    {
      "channel": 4,
      "note": 61,
      "start": 15.8272,
      "duration": 0.0116,
      "velocity": 101,
      "chip": "ym2612"
    },
    {
      "channel": 3,
      "note": 64,
      "start": 15.8283,
      "duration": 0.0117,
      "velocity": 101,
      "chip": "ym2612"
    },
    {
      "channel": 1,
      "note": 69,
      "start": 15.8306,
      "duration": 0.0144,
      "velocity": 101,
      "chip": "ym2612"
    },
    {
      "channel": 0,
      "note": 82,
      "start": 15.8376,
      "duration": 0.016,
      "velocity": 124,
      "chip": "ym2612"
    },
    {
      "channel": 4,
      "note": 61,
      "start": 15.8388,
      "duration": 0.016,
      "velocity": 101,
      "chip": "ym2612"
    },
    {
      "channel": 3,
      "note": 64,
      "start": 15.84,
      "duration": 0.016,
      "velocity": 101,
      "chip": "ym2612"
    },
    {
      "channel": 1,
      "note": 69,
      "start": 15.845,
      "duration": 0.0156,
      "velocity": 101,
      "chip": "ym2612"
    },
    {
      "channel": 0,
      "note": 80,
      "start": 15.8537,
      "duration": 0.0161,
      "velocity": 124,
      "chip": "ym2612"
    },
    {
      "channel": 4,
      "note": 61,
      "start": 15.8549,
      "duration": 0.0161,
      "velocity": 101,
      "chip": "ym2612"
    },
    {
      "channel": 3,
      "note": 64,
      "start": 15.856,
      "duration": 0.0161,
      "velocity": 101,
      "chip": "ym2612"
    },
    {
      "channel": 1,
      "note": 69,
      "start": 15.8606,
      "duration": 0.0137,
      "velocity": 101,
      "chip": "ym2612"
    },
    {
      "channel": 0,
      "note": 77,
      "start": 15.8698,
      "duration": 0.0161,
      "velocity": 124,
      "chip": "ym2612"
    },
    {
      "channel": 4,
      "note": 61,
      "start": 15.871,
      "duration": 0.0161,
      "velocity": 101,
      "chip": "ym2612"
    },
    {
      "channel": 3,
      "note": 64,
      "start": 15.8721,
      "duration": 0.0161,
      "velocity": 101,
      "chip": "ym2612"
    },
    {
      "channel": 1,
      "note": 69,
      "start": 15.8744,
      "duration": 0.0161,
      "velocity": 101,
      "chip": "ym2612"
    },
    {
      "channel": 0,
      "note": 75,
      "start": 15.8859,
      "duration": 0.0161,
      "velocity": 124,
      "chip": "ym2612"
    },
    {
      "channel": 4,
      "note": 61,
      "start": 15.8871,
      "duration": 0.0161,
      "velocity": 101,
      "chip": "ym2612"
    },
    {
      "channel": 3,
      "note": 64,
      "start": 15.8882,
      "duration": 0.0161,
      "velocity": 101,
      "chip": "ym2612"
    },
    {
      "channel": 1,
      "note": 69,
      "start": 15.8905,
      "duration": 0.0161,
      "velocity": 101,
      "chip": "ym2612"
    },
    {
      "channel": 0,
      "note": 72,
      "start": 15.902,
      "duration": 0.0161,
      "velocity": 124,
      "chip": "ym2612"
    },
    {
      "channel": 4,
      "note": 61,
      "start": 15.9031,
      "duration": 0.0161,
      "velocity": 101,
      "chip": "ym2612"
    },
    {
      "channel": 3,
      "note": 64,
      "start": 15.9043,
      "duration": 0.0161,
      "velocity": 101,
      "chip": "ym2612"
    },
    {
      "channel": 1,
      "note": 69,
      "start": 15.9066,
      "duration": 0.0161,
      "velocity": 101,
      "chip": "ym2612"
    },
    {
      "channel": 0,
      "note": 70,
      "start": 15.9181,
      "duration": 0.0161,
      "velocity": 124,
      "chip": "ym2612"
    },
    {
      "channel": 4,
      "note": 61,
      "start": 15.9192,
      "duration": 0.0161,
      "velocity": 101,
      "chip": "ym2612"
    },
    {
      "channel": 3,
      "note": 64,
      "start": 15.9204,
      "duration": 0.0161,
      "velocity": 101,
      "chip": "ym2612"
    },
    {
      "channel": 1,
      "note": 69,
      "start": 15.9227,
      "duration": 0.0161,
      "velocity": 101,
      "chip": "ym2612"
    },
    {
      "channel": 0,
      "note": 68,
      "start": 15.9342,
      "duration": 0.0161,
      "velocity": 124,
      "chip": "ym2612"
    },
    {
      "channel": 4,
      "note": 61,
      "start": 15.9353,
      "duration": 0.0161,
      "velocity": 101,
      "chip": "ym2612"
    },
    {
      "channel": 3,
      "note": 64,
      "start": 15.9365,
      "duration": 0.0161,
      "velocity": 101,
      "chip": "ym2612"
    },
    {
      "channel": 1,
      "note": 69,
      "start": 15.9388,
      "duration": 0.0161,
      "velocity": 101,
      "chip": "ym2612"
    },
    {
      "channel": 0,
      "note": 65,
      "start": 15.9503,
      "duration": 0.0161,
      "velocity": 124,
      "chip": "ym2612"
    },
    {
      "channel": 4,
      "note": 61,
      "start": 15.9514,
      "duration": 0.0161,
      "velocity": 101,
      "chip": "ym2612"
    },
    {
      "channel": 3,
      "note": 64,
      "start": 15.9526,
      "duration": 0.0162,
      "velocity": 101,
      "chip": "ym2612"
    },
    {
      "channel": 1,
      "note": 69,
      "start": 15.9549,
      "duration": 0.0161,
      "velocity": 101,
      "chip": "ym2612"
    },
    {
      "channel": 0,
      "note": 63,
      "start": 15.9664,
      "duration": 0.0153,
      "velocity": 1,
      "chip": "ym2612"
    },
    {
      "channel": 4,
      "note": 61,
      "start": 15.9676,
      "duration": 0.0153,
      "velocity": 101,
      "chip": "ym2612"
    },
    {
      "channel": 3,
      "note": 64,
      "start": 15.9687,
      "duration": 0.0153,
      "velocity": 101,
      "chip": "ym2612"
    },
    {
      "channel": 1,
      "note": 69,
      "start": 15.971,
      "duration": 0.0153,
      "velocity": 101,
      "chip": "ym2612"
    },
    {
      "channel": 4,
      "note": 61,
      "start": 15.9829,
      "duration": 0.0153,
      "velocity": 101,
      "chip": "ym2612"
    },
    {
      "channel": 3,
      "note": 64,
      "start": 15.984,
      "duration": 0.0153,
      "velocity": 101,
      "chip": "ym2612"
    },
    {
      "channel": 1,
      "note": 69,
      "start": 15.9863,
      "duration": 0.0153,
      "velocity": 101,
      "chip": "ym2612"
    },
    {
      "channel": 4,
      "note": 61,
      "start": 15.9981,
      "duration": 0.0161,
      "velocity": 101,
      "chip": "ym2612"
    },
    {
      "channel": 3,
      "note": 64,
      "start": 15.9993,
      "duration": 0.0161,
      "velocity": 101,
      "chip": "ym2612"
    },
    {
      "channel": 1,
      "note": 69,
      "start": 16.0015,
      "duration": 0.0161,
      "velocity": 101,
      "chip": "ym2612"
    },
    {
      "channel": 4,
      "note": 61,
      "start": 16.0142,
      "duration": 0.0161,
      "velocity": 101,
      "chip": "ym2612"
    },
    {
      "channel": 3,
      "note": 64,
      "start": 16.0154,
      "duration": 0.0161,
      "velocity": 101,
      "chip": "ym2612"
    },
    {
      "channel": 1,
      "note": 69,
      "start": 16.0176,
      "duration": 0.0161,
      "velocity": 101,
      "chip": "ym2612"
    },
    {
      "channel": 4,
      "note": 61,
      "start": 16.0303,
      "duration": 0.0195,
      "velocity": 101,
      "chip": "ym2612"
    },
    {
      "channel": 3,
      "note": 64,
      "start": 16.0315,
      "duration": 0.0195,
      "velocity": 101,
      "chip": "ym2612"
    },
    {
      "channel": 1,
      "note": 69,
      "start": 16.0337,
      "duration": 0.0195,
      "velocity": 101,
      "chip": "ym2612"
    },
    {
      "channel": 0,
      "note": 36,
      "start": 16.0487,
      "duration": 0.0144,
      "velocity": 115,
      "chip": "ym2612"
    },
    {
      "channel": 4,
      "note": 61,
      "start": 16.0498,
      "duration": 0.0144,
      "velocity": 101,
      "chip": "ym2612"
    },
    {
      "channel": 3,
      "note": 64,
      "start": 16.051,
      "duration": 0.0144,
      "velocity": 101,
      "chip": "ym2612"
    },
    {
      "channel": 1,
      "note": 69,
      "start": 16.0533,
      "duration": 0.0144,
      "velocity": 101,
      "chip": "ym2612"
    },
    {
      "channel": 0,
      "note": 36,
      "start": 16.0631,
      "duration": 0.016,
      "velocity": 115,
      "chip": "ym2612"
    },
    {
      "channel": 4,
      "note": 61,
      "start": 16.0642,
      "duration": 0.016,
      "velocity": 101,
      "chip": "ym2612"
    },
    {
      "channel": 3,
      "note": 64,
      "start": 16.0654,
      "duration": 0.016,
      "velocity": 101,
      "chip": "ym2612"
    },
    {
      "channel": 1,
      "note": 69,
      "start": 16.0676,
      "duration": 0.016,
      "velocity": 101,
      "chip": "ym2612"
    },
    {
      "channel": 0,
      "note": 37,
      "start": 16.0791,
      "duration": 0.0167,
      "velocity": 115,
      "chip": "ym2612"
    },
    {
      "channel": 4,
      "note": 61,
      "start": 16.0802,
      "duration": 0.0167,
      "velocity": 101,
      "chip": "ym2612"
    },
    {
      "channel": 3,
      "note": 64,
      "start": 16.0814,
      "duration": 0.0167,
      "velocity": 101,
      "chip": "ym2612"
    },
    {
      "channel": 1,
      "note": 69,
      "start": 16.0837,
      "duration": 0.0167,
      "velocity": 101,
      "chip": "ym2612"
    },
    {
      "channel": 0,
      "note": 37,
      "start": 16.0958,
      "duration": 0.0167,
      "velocity": 115,
      "chip": "ym2612"
    },
    {
      "channel": 4,
      "note": 61,
      "start": 16.097,
      "duration": 0.0167,
      "velocity": 101,
      "chip": "ym2612"
    },
    {
      "channel": 3,
      "note": 64,
      "start": 16.0981,
      "duration": 0.0167,
      "velocity": 101,
      "chip": "ym2612"
    },
    {
      "channel": 1,
      "note": 69,
      "start": 16.1004,
      "duration": 0.0167,
      "velocity": 101,
      "chip": "ym2612"
    },
    {
      "channel": 0,
      "note": 38,
      "start": 16.1125,
      "duration": 0.0163,
      "velocity": 115,
      "chip": "ym2612"
    },
    {
      "channel": 4,
      "note": 61,
      "start": 16.1136,
      "duration": 0.0163,
      "velocity": 101,
      "chip": "ym2612"
    },
    {
      "channel": 3,
      "note": 64,
      "start": 16.1148,
      "duration": 0.0163,
      "velocity": 101,
      "chip": "ym2612"
    },
    {
      "channel": 1,
      "note": 69,
      "start": 16.1171,
      "duration": 0.0163,
      "velocity": 101,
      "chip": "ym2612"
    },
    {
      "channel": 0,
      "note": 38,
      "start": 16.1288,
      "duration": 0.0147,
      "velocity": 115,
      "chip": "ym2612"
    },
    {
      "channel": 4,
      "note": 61,
      "start": 16.1299,
      "duration": 0.0148,
      "velocity": 101,
      "chip": "ym2612"
    },
    {
      "channel": 3,
      "note": 64,
      "start": 16.1311,
      "duration": 0.0148,
      "velocity": 101,
      "chip": "ym2612"
    },
    {
      "channel": 1,
      "note": 69,
      "start": 16.1334,
      "duration": 0.0148,
      "velocity": 101,
      "chip": "ym2612"
    },
    {
      "channel": 0,
      "note": 39,
      "start": 16.1435,
      "duration": 0.0189,
      "velocity": 115,
      "chip": "ym2612"
    },
    {
      "channel": 4,
      "note": 61,
      "start": 16.1447,
      "duration": 0.0188,
      "velocity": 101,
      "chip": "ym2612"
    },
    {
      "channel": 3,
      "note": 64,
      "start": 16.1458,
      "duration": 0.0188,
      "velocity": 101,
      "chip": "ym2612"
    },
    {
      "channel": 1,
      "note": 69,
      "start": 16.1481,
      "duration": 0.0188,
      "velocity": 101,
      "chip": "ym2612"
    },
    {
      "channel": 0,
      "note": 39,
      "start": 16.1624,
      "duration": 0.0161,
      "velocity": 115,
      "chip": "ym2612"
    },
    {
      "channel": 4,
      "note": 61,
      "start": 16.1635,
      "duration": 0.0161,
      "velocity": 101,
      "chip": "ym2612"
    },
    {
      "channel": 3,
      "note": 64,
      "start": 16.1646,
      "duration": 0.0161,
      "velocity": 101,
      "chip": "ym2612"
    },
    {
      "channel": 1,
      "note": 69,
      "start": 16.1669,
      "duration": 0.0161,
      "velocity": 101,
      "chip": "ym2612"
    },
    {
      "channel": 0,
      "note": 40,
      "start": 16.1785,
      "duration": 0.0157,
      "velocity": 115,
      "chip": "ym2612"
    },
    {
      "channel": 4,
      "note": 61,
      "start": 16.1796,
      "duration": 0.0158,
      "velocity": 101,
      "chip": "ym2612"
    },
    {
      "channel": 3,
      "note": 64,
      "start": 16.1807,
      "duration": 0.0158,
      "velocity": 101,
      "chip": "ym2612"
    },
    {
      "channel": 1,
      "note": 69,
      "start": 16.183,
      "duration": 0.0157,
      "velocity": 101,
      "chip": "ym2612"
    },
    {
      "channel": 0,
      "note": 40,
      "start": 16.1942,
      "duration": 0.014,
      "velocity": 115,
      "chip": "ym2612"
    },
    {
      "channel": 4,
      "note": 61,
      "start": 16.1954,
      "duration": 0.014,
      "velocity": 101,
      "chip": "ym2612"
    },
    {
      "channel": 3,
      "note": 64,
      "start": 16.1965,
      "duration": 0.014,
      "velocity": 101,
      "chip": "ym2612"
    },
    {
      "channel": 1,
      "note": 69,
      "start": 16.1988,
      "duration": 0.0141,
      "velocity": 101,
      "chip": "ym2612"
    },
    {
      "channel": 0,
      "note": 40,
      "start": 16.2082,
      "duration": 0.0159,
      "velocity": 115,
      "chip": "ym2612"
    },
    {
      "channel": 4,
      "note": 61,
      "start": 16.2094,
      "duration": 0.0186,
      "velocity": 101,
      "chip": "ym2612"
    },
    {
      "channel": 3,
      "note": 64,
      "start": 16.2105,
      "duration": 0.0186,
      "velocity": 101,
      "chip": "ym2612"
    },
    {
      "channel": 1,
      "note": 69,
      "start": 16.2128,
      "duration": 0.0185,
      "velocity": 101,
      "chip": "ym2612"
    },
    {
      "channel": 0,
      "note": 41,
      "start": 16.224,
      "duration": 0.0161,
      "velocity": 115,
      "chip": "ym2612"
    },
    {
      "channel": 4,
      "note": 61,
      "start": 16.228,
      "duration": 0.0161,
      "velocity": 101,
      "chip": "ym2612"
    },
    {
      "channel": 3,
      "note": 64,
      "start": 16.2291,
      "duration": 0.0161,
      "velocity": 101,
      "chip": "ym2612"
    },
    {
      "channel": 1,
      "note": 69,
      "start": 16.2313,
      "duration": 0.0161,
      "velocity": 101,
      "chip": "ym2612"
    },
    {
      "channel": 0,
      "note": 41,
      "start": 16.2401,
      "duration": 0.0161,
      "velocity": 115,
      "chip": "ym2612"
    },
    {
      "channel": 4,
      "note": 61,
      "start": 16.244,
      "duration": 0.0133,
      "velocity": 101,
      "chip": "ym2612"
    },
    {
      "channel": 3,
      "note": 64,
      "start": 16.2452,
      "duration": 0.0157,
      "velocity": 101,
      "chip": "ym2612"
    },
    {
      "channel": 1,
      "note": 69,
      "start": 16.2474,
      "duration": 0.0158,
      "velocity": 101,
      "chip": "ym2612"
    },
    {
      "channel": 0,
      "note": 42,
      "start": 16.2562,
      "duration": 0.0179,
      "velocity": 115,
      "chip": "ym2612"
    },
    {
      "channel": 4,
      "note": 61,
      "start": 16.2573,
      "duration": 0.0184,
      "velocity": 101,
      "chip": "ym2612"
    },
    {
      "channel": 3,
      "note": 64,
      "start": 16.2609,
      "duration": 0.0163,
      "velocity": 101,
      "chip": "ym2612"
    },
    {
      "channel": 1,
      "note": 69,
      "start": 16.2632,
      "duration": 0.0167,
      "velocity": 101,
      "chip": "ym2612"
    },
    {
      "channel": 0,
      "note": 36,
      "start": 16.2741,
      "duration": 0.0144,
      "velocity": 115,
      "chip": "ym2612"
    },
    {
      "channel": 4,
      "note": 54,
      "start": 16.2759,
      "duration": 0.0139,
      "velocity": 101,
      "chip": "ym2612"
    },
    {
      "channel": 3,
      "note": 57,
      "start": 16.2773,
      "duration": 0.0136,
      "velocity": 101,
      "chip": "ym2612"
    },
    {
      "channel": 1,
      "note": 62,
      "start": 16.28,
      "duration": 0.016,
      "velocity": 101,
      "chip": "ym2612"
    },
    {
      "channel": 0,
      "note": 36,
      "start": 16.2884,
      "duration": 0.016,
      "velocity": 115,
      "chip": "ym2612"
    },
    {
      "channel": 4,
      "note": 54,
      "start": 16.2897,
      "duration": 0.016,
      "velocity": 101,
      "chip": "ym2612"
    },
    {
      "channel": 3,
      "note": 57,
      "start": 16.2909,
      "duration": 0.016,
      "velocity": 101,
      "chip": "ym2612"
    },
    {
      "channel": 1,
      "note": 62,
      "start": 16.296,
      "duration": 0.0158,
      "velocity": 101,
      "chip": "ym2612"
    },
    {
      "channel": 0,
      "note": 37,
      "start": 16.3045,
      "duration": 0.0162,
      "velocity": 115,
      "chip": "ym2612"
    },
    {
      "channel": 4,
      "note": 54,
      "start": 16.3057,
      "duration": 0.0161,
      "velocity": 101,
      "chip": "ym2612"
    },
    {
      "channel": 3,
      "note": 57,
      "start": 16.3068,
      "duration": 0.0161,
      "velocity": 101,
      "chip": "ym2612"
    },
    {
      "channel": 1,
      "note": 62,
      "start": 16.3118,
      "duration": 0.0158,
      "velocity": 101,
      "chip": "ym2612"
    },
    {
      "channel": 0,
      "note": 37,
      "start": 16.3206,
      "duration": 0.0161,
      "velocity": 115,
      "chip": "ym2612"
    },
    {
      "channel": 4,
      "note": 54,
      "start": 16.3218,
      "duration": 0.0161,
      "velocity": 101,
      "chip": "ym2612"
    },
    {
      "channel": 3,
      "note": 57,
      "start": 16.3229,
      "duration": 0.0161,
      "velocity": 101,
      "chip": "ym2612"
    },
    {
      "channel": 1,
      "note": 62,
      "start": 16.3276,
      "duration": 0.0141,
      "velocity": 101,
      "chip": "ym2612"
    },
    {
      "channel": 0,
      "note": 38,
      "start": 16.3367,
      "duration": 0.0161,
      "velocity": 115,
      "chip": "ym2612"
    },
    {
      "channel": 4,
      "note": 54,
      "start": 16.3379,
      "duration": 0.0161,
      "velocity": 101,
      "chip": "ym2612"
    },
    {
      "channel": 3,
      "note": 57,
      "start": 16.339,
      "duration": 0.0161,
      "velocity": 101,
      "chip": "ym2612"
    },
    {
      "channel": 1,
      "note": 62,
      "start": 16.3416,
      "duration": 0.0158,
      "velocity": 101,
      "chip": "ym2612"
    },
    {
      "channel": 0,
      "note": 38,
      "start": 16.3528,
      "duration": 0.0161,
      "velocity": 115,
      "chip": "ym2612"
    },
    {
      "channel": 4,
      "note": 54,
      "start": 16.354,
      "duration": 0.0161,
      "velocity": 101,
      "chip": "ym2612"
    },
    {
      "channel": 3,
      "note": 57,
      "start": 16.3551,
      "duration": 0.0161,
      "velocity": 101,
      "chip": "ym2612"
    },
    {
      "channel": 1,
      "note": 62,
      "start": 16.3574,
      "duration": 0.0161,
      "velocity": 101,
      "chip": "ym2612"
    },
    {
      "channel": 0,
      "note": 39,
      "start": 16.3689,
      "duration": 0.0161,
      "velocity": 115,
      "chip": "ym2612"
    },
    {
      "channel": 4,
      "note": 54,
      "start": 16.3701,
      "duration": 0.0161,
      "velocity": 101,
      "chip": "ym2612"
    },
    {
      "channel": 3,
      "note": 57,
      "start": 16.3712,
      "duration": 0.0161,
      "velocity": 101,
      "chip": "ym2612"
    },
    {
      "channel": 1,
      "note": 62,
      "start": 16.3735,
      "duration": 0.0161,
      "velocity": 101,
      "chip": "ym2612"
    },
    {
      "channel": 0,
      "note": 39,
      "start": 16.385,
      "duration": 0.0161,
      "velocity": 115,
      "chip": "ym2612"
    },
    {
      "channel": 4,
      "note": 54,
      "start": 16.3861,
      "duration": 0.0161,
      "velocity": 101,
      "chip": "ym2612"
    },
    {
      "channel": 3,
      "note": 57,
      "start": 16.3873,
      "duration": 0.0161,
      "velocity": 101,
      "chip": "ym2612"
    },
    {
      "channel": 1,
      "note": 62,
      "start": 16.3896,
      "duration": 0.0161,
      "velocity": 101,
      "chip": "ym2612"
    },
    {
      "channel": 0,
      "note": 40,
      "start": 16.4011,
      "duration": 0.0161,
      "velocity": 115,
      "chip": "ym2612"
    },
    {
      "channel": 4,
      "note": 54,
      "start": 16.4022,
      "duration": 0.0162,
      "velocity": 101,
      "chip": "ym2612"
    },
    {
      "channel": 3,
      "note": 57,
      "start": 16.4034,
      "duration": 0.0161,
      "velocity": 101,
      "chip": "ym2612"
    },
    {
      "channel": 1,
      "note": 62,
      "start": 16.4057,
      "duration": 0.0161,
      "velocity": 101,
      "chip": "ym2612"
    },
    {
      "channel": 0,
      "note": 40,
      "start": 16.4172,
      "duration": 0.0161,
      "velocity": 115,
      "chip": "ym2612"
    },
    {
      "channel": 4,
      "note": 54,
      "start": 16.4184,
      "duration": 0.0161,
      "velocity": 101,
      "chip": "ym2612"
    },
    {
      "channel": 3,
      "note": 57,
      "start": 16.4195,
      "duration": 0.0161,
      "velocity": 101,
      "chip": "ym2612"
    },
    {
      "channel": 1,
      "note": 62,
      "start": 16.4218,
      "duration": 0.0161,
      "velocity": 101,
      "chip": "ym2612"
    },
    {
      "channel": 0,
      "note": 40,
      "start": 16.4333,
      "duration": 0.0161,
      "velocity": 115,
      "chip": "ym2612"
    },
    {
      "channel": 4,
      "note": 54,
      "start": 16.4345,
      "duration": 0.0161,
      "velocity": 101,
      "chip": "ym2612"
    },
    {
      "channel": 3,
      "note": 57,
      "start": 16.4356,
      "duration": 0.0161,
      "velocity": 101,
      "chip": "ym2612"
    },
    {
      "channel": 1,
      "note": 62,
      "start": 16.4379,
      "duration": 0.0161,
      "velocity": 101,
      "chip": "ym2612"
    },
    {
      "channel": 0,
      "note": 41,
      "start": 16.4494,
      "duration": 0.0161,
      "velocity": 115,
      "chip": "ym2612"
    },
    {
      "channel": 4,
      "note": 54,
      "start": 16.4506,
      "duration": 0.0161,
      "velocity": 101,
      "chip": "ym2612"
    },
    {
      "channel": 3,
      "note": 57,
      "start": 16.4517,
      "duration": 0.0161,
      "velocity": 101,
      "chip": "ym2612"
    },
    {
      "channel": 1,
      "note": 62,
      "start": 16.454,
      "duration": 0.0161,
      "velocity": 101,
      "chip": "ym2612"
    },
    {
      "channel": 0,
      "note": 41,
      "start": 16.4655,
      "duration": 0.0161,
      "velocity": 115,
      "chip": "ym2612"
    },
    {
      "channel": 4,
      "note": 54,
      "start": 16.4667,
      "duration": 0.0161,
      "velocity": 101,
      "chip": "ym2612"
    },
    {
      "channel": 3,
      "note": 57,
      "start": 16.4678,
      "duration": 0.0161,
      "velocity": 101,
      "chip": "ym2612"
    },
    {
      "channel": 1,
      "note": 62,
      "start": 16.4701,
      "duration": 0.0161,
      "velocity": 101,
      "chip": "ym2612"
    },
    {
      "channel": 0,
      "note": 42,
      "start": 16.4816,
      "duration": 0.0161,
      "velocity": 115,
      "chip": "ym2612"
    },
    {
      "channel": 4,
      "note": 54,
      "start": 16.4828,
      "duration": 0.0161,
      "velocity": 101,
      "chip": "ym2612"
    },
    {
      "channel": 3,
      "note": 57,
      "start": 16.4839,
      "duration": 0.0161,
      "velocity": 101,
      "chip": "ym2612"
    },
    {
      "channel": 1,
      "note": 62,
      "start": 16.4862,
      "duration": 0.0161,
      "velocity": 101,
      "chip": "ym2612"
    },
    {
      "channel": 0,
      "note": 42,
      "start": 16.4977,
      "duration": 0.0161,
      "velocity": 115,
      "chip": "ym2612"
    },
    {
      "channel": 4,
      "note": 54,
      "start": 16.4989,
      "duration": 0.0161,
      "velocity": 101,
      "chip": "ym2612"
    },
    {
      "channel": 3,
      "note": 57,
      "start": 16.5,
      "duration": 0.0161,
      "velocity": 101,
      "chip": "ym2612"
    },
    {
      "channel": 1,
      "note": 62,
      "start": 16.5023,
      "duration": 0.0161,
      "velocity": 101,
      "chip": "ym2612"
    },
    {
      "channel": 0,
      "note": 43,
      "start": 16.5138,
      "duration": 0.0161,
      "velocity": 115,
      "chip": "ym2612"
    },
    {
      "channel": 4,
      "note": 54,
      "start": 16.515,
      "duration": 0.0161,
      "velocity": 101,
      "chip": "ym2612"
    },
    {
      "channel": 3,
      "note": 57,
      "start": 16.5161,
      "duration": 0.0161,
      "velocity": 101,
      "chip": "ym2612"
    },
    {
      "channel": 1,
      "note": 62,
      "start": 16.5184,
      "duration": 0.0161,
      "velocity": 101,
      "chip": "ym2612"
    },
    {
      "channel": 0,
      "note": 43,
      "start": 16.5299,
      "duration": 0.0161,
      "velocity": 115,
      "chip": "ym2612"
    },
    {
      "channel": 4,
      "note": 54,
      "start": 16.5311,
      "duration": 0.0161,
      "velocity": 101,
      "chip": "ym2612"
    },
    {
      "channel": 3,
      "note": 57,
      "start": 16.5322,
      "duration": 0.0161,
      "velocity": 101,
      "chip": "ym2612"
    },
    {
      "channel": 1,
      "note": 62,
      "start": 16.5345,
      "duration": 0.0161,
      "velocity": 101,
      "chip": "ym2612"
    },
    {
      "channel": 0,
      "note": 44,
      "start": 16.546,
      "duration": 0.0164,
      "velocity": 115,
      "chip": "ym2612"
    },
    {
      "channel": 4,
      "note": 54,
      "start": 16.5472,
      "duration": 0.0165,
      "velocity": 101,
      "chip": "ym2612"
    },
    {
      "channel": 3,
      "note": 57,
      "start": 16.5483,
      "duration": 0.0165,
      "velocity": 101,
      "chip": "ym2612"
    },
    {
      "channel": 1,
      "note": 62,
      "start": 16.5506,
      "duration": 0.0165,
      "velocity": 101,
      "chip": "ym2612"
    },
    {
      "channel": 0,
      "note": 44,
      "start": 16.5624,
      "duration": 0.0167,
      "velocity": 115,
      "chip": "ym2612"
    },
    {
      "channel": 4,
      "note": 54,
      "start": 16.5636,
      "duration": 0.0167,
      "velocity": 101,
      "chip": "ym2612"
    },
    {
      "channel": 3,
      "note": 57,
      "start": 16.5648,
      "duration": 0.0167,
      "velocity": 101,
      "chip": "ym2612"
    },
    {
      "channel": 1,
      "note": 62,
      "start": 16.5671,
      "duration": 0.0167,
      "velocity": 101,
      "chip": "ym2612"
    },
    {
      "channel": 0,
      "note": 44,
      "start": 16.5792,
      "duration": 0.0163,
      "velocity": 115,
      "chip": "ym2612"
    },
    {
      "channel": 4,
      "note": 54,
      "start": 16.5803,
      "duration": 0.0163,
      "velocity": 101,
      "chip": "ym2612"
    },
    {
      "channel": 3,
      "note": 57,
      "start": 16.5815,
      "duration": 0.0163,
      "velocity": 101,
      "chip": "ym2612"
    },
    {
      "channel": 1,
      "note": 62,
      "start": 16.5837,
      "duration": 0.0163,
      "velocity": 101,
      "chip": "ym2612"
    },
    {
      "channel": 0,
      "note": 45,
      "start": 16.5954,
      "duration": 0.015,
      "velocity": 115,
      "chip": "ym2612"
    },
    {
      "channel": 4,
      "note": 54,
      "start": 16.5966,
      "duration": 0.015,
      "velocity": 101,
      "chip": "ym2612"
    },
    {
      "channel": 3,
      "note": 57,
      "start": 16.5977,
      "duration": 0.015,
      "velocity": 101,
      "chip": "ym2612"
    },
    {
      "channel": 1,
      "note": 62,
      "start": 16.6,
      "duration": 0.015,
      "velocity": 101,
      "chip": "ym2612"
    },
    {
      "channel": 0,
      "note": 45,
      "start": 16.6105,
      "duration": 0.0186,
      "velocity": 115,
      "chip": "ym2612"
    },
    {
      "channel": 4,
      "note": 54,
      "start": 16.6116,
      "duration": 0.0187,
      "velocity": 101,
      "chip": "ym2612"
    },
    {
      "channel": 3,
      "note": 57,
      "start": 16.6127,
      "duration": 0.0187,
      "velocity": 101,
      "chip": "ym2612"
    },
    {
      "channel": 1,
      "note": 62,
      "start": 16.615,
      "duration": 0.0187,
      "velocity": 101,
      "chip": "ym2612"
    },
    {
      "channel": 0,
      "note": 46,
      "start": 16.6291,
      "duration": 0.0163,
      "velocity": 115,
      "chip": "ym2612"
    },
    {
      "channel": 4,
      "note": 54,
      "start": 16.6303,
      "duration": 0.0162,
      "velocity": 101,
      "chip": "ym2612"
    },
    {
      "channel": 3,
      "note": 57,
      "start": 16.6315,
      "duration": 0.0162,
      "velocity": 101,
      "chip": "ym2612"
    },
    {
      "channel": 1,
      "note": 62,
      "start": 16.6337,
      "duration": 0.0162,
      "velocity": 101,
      "chip": "ym2612"
    },
    {
      "channel": 0,
      "note": 46,
      "start": 16.6454,
      "duration": 0.0157,
      "velocity": 115,
      "chip": "ym2612"
    },
    {
      "channel": 4,
      "note": 54,
      "start": 16.6465,
      "duration": 0.0158,
      "velocity": 101,
      "chip": "ym2612"
    },
    {
      "channel": 3,
      "note": 57,
      "start": 16.6477,
      "duration": 0.0158,
      "velocity": 101,
      "chip": "ym2612"
    },
    {
      "channel": 1,
      "note": 62,
      "start": 16.65,
      "duration": 0.0158,
      "velocity": 101,
      "chip": "ym2612"
    },
    {
      "channel": 0,
      "note": 47,
      "start": 16.6611,
      "duration": 0.0141,
      "velocity": 115,
      "chip": "ym2612"
    },
    {
      "channel": 4,
      "note": 54,
      "start": 16.6623,
      "duration": 0.014,
      "velocity": 101,
      "chip": "ym2612"
    },
    {
      "channel": 3,
      "note": 57,
      "start": 16.6634,
      "duration": 0.014,
      "velocity": 101,
      "chip": "ym2612"
    },
    {
      "channel": 1,
      "note": 62,
      "start": 16.6657,
      "duration": 0.014,
      "velocity": 101,
      "chip": "ym2612"
    },
    {
      "channel": 0,
      "note": 47,
      "start": 16.6751,
      "duration": 0.0158,
      "velocity": 115,
      "chip": "ym2612"
    },
    {
      "channel": 4,
      "note": 54,
      "start": 16.6763,
      "duration": 0.0186,
      "velocity": 101,
      "chip": "ym2612"
    },
    {
      "channel": 3,
      "note": 57,
      "start": 16.6774,
      "duration": 0.0186,
      "velocity": 101,
      "chip": "ym2612"
    },
    {
      "channel": 1,
      "note": 62,
      "start": 16.6797,
      "duration": 0.0185,
      "velocity": 101,
      "chip": "ym2612"
    },
    {
      "channel": 0,
      "note": 47,
      "start": 16.6909,
      "duration": 0.0161,
      "velocity": 115,
      "chip": "ym2612"
    },
    {
      "channel": 4,
      "note": 54,
      "start": 16.6949,
      "duration": 0.0161,
      "velocity": 101,
      "chip": "ym2612"
    },
    {
      "channel": 3,
      "note": 57,
      "start": 16.696,
      "duration": 0.0161,
      "velocity": 101,
      "chip": "ym2612"
    },
    {
      "channel": 1,
      "note": 62,
      "start": 16.6982,
      "duration": 0.0161,
      "velocity": 101,
      "chip": "ym2612"
    },
    {
      "channel": 0,
      "note": 48,
      "start": 16.707,
      "duration": 0.0202,
      "velocity": 124,
      "chip": "ym2612"
    },
    {
      "channel": 4,
      "note": 54,
      "start": 16.711,
      "duration": 0.0175,
      "velocity": 101,
      "chip": "ym2612"
    },
    {
      "channel": 3,
      "note": 57,
      "start": 16.7121,
      "duration": 0.0175,
      "velocity": 101,
      "chip": "ym2612"
    },
    {
      "channel": 1,
      "note": 62,
      "start": 16.7143,
      "duration": 0.0176,
      "velocity": 101,
      "chip": "ym2612"
    },
    {
      "channel": 0,
      "note": 84,
      "start": 16.7273,
      "duration": 0.012,
      "velocity": 124,
      "chip": "ym2612"
    },
    {
      "channel": 4,
      "note": 54,
      "start": 16.7285,
      "duration": 0.012,
      "velocity": 101,
      "chip": "ym2612"
    },
    {
      "channel": 3,
      "note": 57,
      "start": 16.7296,
      "duration": 0.0124,
      "velocity": 101,
      "chip": "ym2612"
    },
    {
      "channel": 1,
      "note": 62,
      "start": 16.7319,
      "duration": 0.0124,
      "velocity": 101,
      "chip": "ym2612"
    },
    {
      "channel": 0,
      "note": 82,
      "start": 16.7393,
      "duration": 0.016,
      "velocity": 124,
      "chip": "ym2612"
    },
    {
      "channel": 4,
      "note": 54,
      "start": 16.7405,
      "duration": 0.016,
      "velocity": 101,
      "chip": "ym2612"
    },
    {
      "channel": 3,
      "note": 57,
      "start": 16.742,
      "duration": 0.0157,
      "velocity": 101,
      "chip": "ym2612"
    },
    {
      "channel": 1,
      "note": 62,
      "start": 16.7442,
      "duration": 0.0184,
      "velocity": 101,
      "chip": "ym2612"
    },
    {
      "channel": 0,
      "note": 80,
      "start": 16.7553,
      "duration": 0.0161,
      "velocity": 124,
      "chip": "ym2612"
    },
    {
      "channel": 4,
      "note": 54,
      "start": 16.7565,
      "duration": 0.0161,
      "velocity": 101,
      "chip": "ym2612"
    },
    {
      "channel": 3,
      "note": 57,
      "start": 16.7577,
      "duration": 0.0161,
      "velocity": 101,
      "chip": "ym2612"
    },
    {
      "channel": 1,
      "note": 62,
      "start": 16.7627,
      "duration": 0.0161,
      "velocity": 101,
      "chip": "ym2612"
    },
    {
      "channel": 0,
      "note": 77,
      "start": 16.7715,
      "duration": 0.0161,
      "velocity": 124,
      "chip": "ym2612"
    },
    {
      "channel": 4,
      "note": 54,
      "start": 16.7726,
      "duration": 0.0161,
      "velocity": 101,
      "chip": "ym2612"
    },
    {
      "channel": 3,
      "note": 57,
      "start": 16.7737,
      "duration": 0.0161,
      "velocity": 101,
      "chip": "ym2612"
    },
    {
      "channel": 1,
      "note": 62,
      "start": 16.7788,
      "duration": 0.0157,
      "velocity": 101,
      "chip": "ym2612"
    },
    {
      "channel": 0,
      "note": 75,
      "start": 16.7876,
      "duration": 0.0161,
      "velocity": 124,
      "chip": "ym2612"
    },
    {
      "channel": 4,
      "note": 54,
      "start": 16.7887,
      "duration": 0.0161,
      "velocity": 101,
      "chip": "ym2612"
    },
    {
      "channel": 3,
      "note": 57,
      "start": 16.7898,
      "duration": 0.0161,
      "velocity": 101,
      "chip": "ym2612"
    },
    {
      "channel": 1,
      "note": 62,
      "start": 16.7945,
      "duration": 0.0141,
      "velocity": 101,
      "chip": "ym2612"
    },
    {
      "channel": 0,
      "note": 72,
      "start": 16.8037,
      "duration": 0.0161,
      "velocity": 124,
      "chip": "ym2612"
    },
    {
      "channel": 4,
      "note": 54,
      "start": 16.8048,
      "duration": 0.0161,
      "velocity": 101,
      "chip": "ym2612"
    },
    {
      "channel": 3,
      "note": 57,
      "start": 16.8059,
      "duration": 0.0161,
      "velocity": 101,
      "chip": "ym2612"
    },
    {
      "channel": 1,
      "note": 62,
      "start": 16.8085,
      "duration": 0.0158,
      "velocity": 101,
      "chip": "ym2612"
    },
    {
      "channel": 0,
      "note": 70,
      "start": 16.8198,
      "duration": 0.0161,
      "velocity": 124,
      "chip": "ym2612"
    },
    {
      "channel": 4,
      "note": 54,
      "start": 16.8209,
      "duration": 0.0161,
      "velocity": 101,
      "chip": "ym2612"
    },
    {
      "channel": 3,
      "note": 57,
      "start": 16.822,
      "duration": 0.0161,
      "velocity": 101,
      "chip": "ym2612"
    },
    {
      "channel": 1,
      "note": 62,
      "start": 16.8243,
      "duration": 0.0161,
      "velocity": 101,
      "chip": "ym2612"
    },
    {
      "channel": 0,
      "note": 68,
      "start": 16.8358,
      "duration": 0.0161,
      "velocity": 124,
      "chip": "ym2612"
    },
    {
      "channel": 4,
      "note": 54,
      "start": 16.837,
      "duration": 0.0161,
      "velocity": 101,
      "chip": "ym2612"
    },
    {
      "channel": 3,
      "note": 57,
      "start": 16.8381,
      "duration": 0.0161,
      "velocity": 101,
      "chip": "ym2612"
    },
    {
      "channel": 1,
      "note": 62,
      "start": 16.8404,
      "duration": 0.0161,
      "velocity": 101,
      "chip": "ym2612"
    },
    {
      "channel": 0,
      "note": 65,
      "start": 16.8519,
      "duration": 0.0161,
      "velocity": 124,
      "chip": "ym2612"
    },
    {
      "channel": 4,
      "note": 54,
      "start": 16.8531,
      "duration": 0.0161,
      "velocity": 101,
      "chip": "ym2612"
    },
    {
      "channel": 3,
      "note": 57,
      "start": 16.8542,
      "duration": 0.0162,
      "velocity": 101,
      "chip": "ym2612"
    },
    {
      "channel": 1,
      "note": 62,
      "start": 16.8565,
      "duration": 0.0161,
      "velocity": 101,
      "chip": "ym2612"
    },
    {
      "channel": 0,
      "note": 63,
      "start": 16.868,
      "duration": 0.0153,
      "velocity": 1,
      "chip": "ym2612"
    },
    {
      "channel": 4,
      "note": 54,
      "start": 16.8692,
      "duration": 0.0153,
      "velocity": 101,
      "chip": "ym2612"
    },
    {
      "channel": 3,
      "note": 57,
      "start": 16.8704,
      "duration": 0.0153,
      "velocity": 101,
      "chip": "ym2612"
    },
    {
      "channel": 1,
      "note": 62,
      "start": 16.8726,
      "duration": 0.0153,
      "velocity": 101,
      "chip": "ym2612"
    },
    {
      "channel": 4,
      "note": 54,
      "start": 16.8845,
      "duration": 0.0153,
      "velocity": 101,
      "chip": "ym2612"
    },
    {
      "channel": 3,
      "note": 57,
      "start": 16.8856,
      "duration": 0.0153,
      "velocity": 101,
      "chip": "ym2612"
    },
    {
      "channel": 1,
      "note": 62,
      "start": 16.8879,
      "duration": 0.0153,
      "velocity": 101,
      "chip": "ym2612"
    },
    {
      "channel": 4,
      "note": 54,
      "start": 16.8998,
      "duration": 0.0161,
      "velocity": 101,
      "chip": "ym2612"
    },
    {
      "channel": 3,
      "note": 57,
      "start": 16.9009,
      "duration": 0.0161,
      "velocity": 101,
      "chip": "ym2612"
    },
    {
      "channel": 1,
      "note": 62,
      "start": 16.9032,
      "duration": 0.0161,
      "velocity": 101,
      "chip": "ym2612"
    },
    {
      "channel": 4,
      "note": 54,
      "start": 16.9159,
      "duration": 0.0161,
      "velocity": 101,
      "chip": "ym2612"
    },
    {
      "channel": 3,
      "note": 57,
      "start": 16.917,
      "duration": 0.0161,
      "velocity": 101,
      "chip": "ym2612"
    },
    {
      "channel": 1,
      "note": 62,
      "start": 16.9193,
      "duration": 0.0161,
      "velocity": 101,
      "chip": "ym2612"
    },
    {
      "channel": 4,
      "note": 54,
      "start": 16.932,
      "duration": 0.0198,
      "velocity": 101,
      "chip": "ym2612"
    },
    {
      "channel": 3,
      "note": 57,
      "start": 16.9331,
      "duration": 0.02,
      "velocity": 101,
      "chip": "ym2612"
    },
    {
      "channel": 1,
      "note": 62,
      "start": 16.9354,
      "duration": 0.0203,
      "velocity": 101,
      "chip": "ym2612"
    },
    {
      "channel": 0,
      "note": 36,
      "start": 16.9503,
      "duration": 0.0144,
      "velocity": 115,
      "chip": "ym2612"
    },
    {
      "channel": 4,
      "note": 56,
      "start": 16.9518,
      "duration": 0.0141,
      "velocity": 101,
      "chip": "ym2612"
    },
    {
      "channel": 3,
      "note": 59,
      "start": 16.9532,
      "duration": 0.0139,
      "velocity": 101,
      "chip": "ym2612"
    },
    {
      "channel": 1,
      "note": 64,
      "start": 16.9557,
      "duration": 0.0137,
      "velocity": 101,
      "chip": "ym2612"
    },
    {
      "channel": 0,
      "note": 36,
      "start": 16.9647,
      "duration": 0.016,
      "velocity": 115,
      "chip": "ym2612"
    },
    {
      "channel": 4,
      "note": 56,
      "start": 16.9659,
      "duration": 0.016,
      "velocity": 101,
      "chip": "ym2612"
    },
    {
      "channel": 3,
      "note": 59,
      "start": 16.9671,
      "duration": 0.0159,
      "velocity": 101,
      "chip": "ym2612"
    },
    {
      "channel": 1,
      "note": 64,
      "start": 16.9694,
      "duration": 0.0159,
      "velocity": 101,
      "chip": "ym2612"
    },
    {
      "channel": 0,
      "note": 37,
      "start": 16.9807,
      "duration": 0.0161,
      "velocity": 115,
      "chip": "ym2612"
    },
    {
      "channel": 4,
      "note": 56,
      "start": 16.9819,
      "duration": 0.0161,
      "velocity": 101,
      "chip": "ym2612"
    },
    {
      "channel": 3,
      "note": 59,
      "start": 16.983,
      "duration": 0.0161,
      "velocity": 101,
      "chip": "ym2612"
    },
    {
      "channel": 1,
      "note": 64,
      "start": 16.9853,
      "duration": 0.0161,
      "velocity": 101,
      "chip": "ym2612"
    },
    {
      "channel": 0,
      "note": 37,
      "start": 16.9968,
      "duration": 0.0161,
      "velocity": 115,
      "chip": "ym2612"
    },
    {
      "channel": 4,
      "note": 56,
      "start": 16.998,
      "duration": 0.0162,
      "velocity": 101,
      "chip": "ym2612"
    },
    {
      "channel": 3,
      "note": 59,
      "start": 16.9991,
      "duration": 0.0161,
      "velocity": 101,
      "chip": "ym2612"
    },
    {
      "channel": 1,
      "note": 64,
      "start": 17.0014,
      "duration": 0.0161,
      "velocity": 101,
      "chip": "ym2612"
    },
    {
      "channel": 0,
      "note": 38,
      "start": 17.0129,
      "duration": 0.0162,
      "velocity": 115,
      "chip": "ym2612"
    },
    {
      "channel": 4,
      "note": 56,
      "start": 17.0141,
      "duration": 0.0161,
      "velocity": 101,
      "chip": "ym2612"
    },
    {
      "channel": 3,
      "note": 59,
      "start": 17.0153,
      "duration": 0.0162,
      "velocity": 101,
      "chip": "ym2612"
    },
    {
      "channel": 1,
      "note": 64,
      "start": 17.0175,
      "duration": 0.0162,
      "velocity": 101,
      "chip": "ym2612"
    },
    {
      "channel": 0,
      "note": 38,
      "start": 17.0292,
      "duration": 0.0167,
      "velocity": 115,
      "chip": "ym2612"
    },
    {
      "channel": 4,
      "note": 56,
      "start": 17.0303,
      "duration": 0.0167,
      "velocity": 101,
      "chip": "ym2612"
    },
    {
      "channel": 3,
      "note": 59,
      "start": 17.0315,
      "duration": 0.0167,
      "velocity": 101,
      "chip": "ym2612"
    },
    {
      "channel": 1,
      "note": 64,
      "start": 17.0337,
      "duration": 0.0167,
      "velocity": 101,
      "chip": "ym2612"
    },
    {
      "channel": 0,
      "note": 39,
      "start": 17.0458,
      "duration": 0.0163,
      "velocity": 115,
      "chip": "ym2612"
    },
    {
      "channel": 4,
      "note": 56,
      "start": 17.047,
      "duration": 0.0163,
      "velocity": 101,
      "chip": "ym2612"
    },
    {
      "channel": 3,
      "note": 59,
      "start": 17.0481,
      "duration": 0.0163,
      "velocity": 101,
      "chip": "ym2612"
    },
    {
      "channel": 1,
      "note": 64,
      "start": 17.0504,
      "duration": 0.0163,
      "velocity": 101,
      "chip": "ym2612"
    },
    {
      "channel": 0,
      "note": 39,
      "start": 17.0621,
      "duration": 0.0153,
      "velocity": 115,
      "chip": "ym2612"
    },
    {
      "channel": 4,
      "note": 56,
      "start": 17.0632,
      "duration": 0.0153,
      "velocity": 101,
      "chip": "ym2612"
    },
    {
      "channel": 3,
      "note": 59,
      "start": 17.0644,
      "duration": 0.0153,
      "velocity": 101,
      "chip": "ym2612"
    },
    {
      "channel": 1,
      "note": 64,
      "start": 17.0667,
      "duration": 0.0153,
      "velocity": 101,
      "chip": "ym2612"
    },
    {
      "channel": 0,
      "note": 40,
      "start": 17.0774,
      "duration": 0.0185,
      "velocity": 115,
      "chip": "ym2612"
    },
    {
      "channel": 4,
      "note": 56,
      "start": 17.0785,
      "duration": 0.0184,
      "velocity": 101,
      "chip": "ym2612"
    },
    {
      "channel": 3,
      "note": 59,
      "start": 17.0797,
      "duration": 0.0185,
      "velocity": 101,
      "chip": "ym2612"
    },
    {
      "channel": 1,
      "note": 64,
      "start": 17.082,
      "duration": 0.0185,
      "velocity": 101,
      "chip": "ym2612"
    },
    {
      "channel": 0,
      "note": 40,
      "start": 17.0958,
      "duration": 0.0165,
      "velocity": 115,
      "chip": "ym2612"
    },
    {
      "channel": 4,
      "note": 56,
      "start": 17.097,
      "duration": 0.0165,
      "velocity": 101,
      "chip": "ym2612"
    },
    {
      "channel": 3,
      "note": 59,
      "start": 17.0981,
      "duration": 0.0165,
      "velocity": 101,
      "chip": "ym2612"
    },
    {
      "channel": 1,
      "note": 64,
      "start": 17.1004,
      "duration": 0.0165,
      "velocity": 101,
      "chip": "ym2612"
    },
    {
      "channel": 0,
      "note": 40,
      "start": 17.1123,
      "duration": 0.0158,
      "velocity": 115,
      "chip": "ym2612"
    },
    {
      "channel": 4,
      "note": 56,
      "start": 17.1134,
      "duration": 0.0158,
      "velocity": 101,
      "chip": "ym2612"
    },
    {
      "channel": 3,
      "note": 59,
      "start": 17.1146,
      "duration": 0.0158,
      "velocity": 101,
      "chip": "ym2612"
    },
    {
      "channel": 1,
      "note": 64,
      "start": 17.1169,
      "duration": 0.0158,
      "velocity": 101,
      "chip": "ym2612"
    },
    {
      "channel": 0,
      "note": 41,
      "start": 17.1281,
      "duration": 0.014,
      "velocity": 115,
      "chip": "ym2612"
    },
    {
      "channel": 4,
      "note": 56,
      "start": 17.1292,
      "duration": 0.0141,
      "velocity": 101,
      "chip": "ym2612"
    },
    {
      "channel": 3,
      "note": 59,
      "start": 17.1304,
      "duration": 0.0141,
      "velocity": 101,
      "chip": "ym2612"
    },
    {
      "channel": 1,
      "note": 64,
      "start": 17.1327,
      "duration": 0.014,
      "velocity": 101,
      "chip": "ym2612"
    },
    {
      "channel": 0,
      "note": 41,
      "start": 17.1421,
      "duration": 0.0185,
      "velocity": 115,
      "chip": "ym2612"
    },
    {
      "channel": 4,
      "note": 56,
      "start": 17.1433,
      "duration": 0.0185,
      "velocity": 101,
      "chip": "ym2612"
    },
    {
      "channel": 3,
      "note": 59,
      "start": 17.1444,
      "duration": 0.0185,
      "velocity": 101,
      "chip": "ym2612"
    },
    {
      "channel": 1,
      "note": 64,
      "start": 17.1466,
      "duration": 0.0185,
      "velocity": 101,
      "chip": "ym2612"
    },
    {
      "channel": 0,
      "note": 42,
      "start": 17.1606,
      "duration": 0.0179,
      "velocity": 115,
      "chip": "ym2612"
    },
    {
      "channel": 4,
      "note": 56,
      "start": 17.1618,
      "duration": 0.0179,
      "velocity": 101,
      "chip": "ym2612"
    },
    {
      "channel": 3,
      "note": 59,
      "start": 17.1629,
      "duration": 0.0179,
      "velocity": 101,
      "chip": "ym2612"
    },
    {
      "channel": 1,
      "note": 64,
      "start": 17.1652,
      "duration": 0.0179,
      "velocity": 101,
      "chip": "ym2612"
    },
    {
      "channel": 0,
      "note": 36,
      "start": 17.1785,
      "duration": 0.0116,
      "velocity": 115,
      "chip": "ym2612"
    },
    {
      "channel": 4,
      "note": 56,
      "start": 17.1797,
      "duration": 0.014,
      "velocity": 101,
      "chip": "ym2612"
    },
    {
      "channel": 3,
      "note": 59,
      "start": 17.1808,
      "duration": 0.014,
      "velocity": 101,
      "chip": "ym2612"
    },
    {
      "channel": 1,
      "note": 64,
      "start": 17.1831,
      "duration": 0.014,
      "velocity": 101,
      "chip": "ym2612"
    },
    {
      "channel": 0,
      "note": 36,
      "start": 17.1901,
      "duration": 0.016,
      "velocity": 115,
      "chip": "ym2612"
    },
    {
      "channel": 4,
      "note": 56,
      "start": 17.1937,
      "duration": 0.0137,
      "velocity": 101,
      "chip": "ym2612"
    },
    {
      "channel": 3,
      "note": 59,
      "start": 17.1948,
      "duration": 0.014,
      "velocity": 101,
      "chip": "ym2612"
    },
    {
      "channel": 1,
      "note": 64,
      "start": 17.1971,
      "duration": 0.014,
      "velocity": 101,
      "chip": "ym2612"
    },
    {
      "channel": 0,
      "note": 37,
      "start": 17.2061,
      "duration": 0.0162,
      "velocity": 115,
      "chip": "ym2612"
    },
    {
      "channel": 4,
      "note": 56,
      "start": 17.2073,
      "duration": 0.0161,
      "velocity": 101,
      "chip": "ym2612"
    },
    {
      "channel": 3,
      "note": 59,
      "start": 17.2088,
      "duration": 0.0185,
      "velocity": 101,
      "chip": "ym2612"
    },
    {
      "channel": 1,
      "note": 64,
      "start": 17.2111,
      "duration": 0.0185,
      "velocity": 101,
      "chip": "ym2612"
    },
    {
      "channel": 0,
      "note": 37,
      "start": 17.2223,
      "duration": 0.0161,
      "velocity": 115,
      "chip": "ym2612"
    },
    {
      "channel": 4,
      "note": 56,
      "start": 17.2234,
      "duration": 0.0161,
      "velocity": 101,
      "chip": "ym2612"
    },
    {
      "channel": 3,
      "note": 59,
      "start": 17.2273,
      "duration": 0.0134,
      "velocity": 101,
      "chip": "ym2612"
    },
    {
      "channel": 1,
      "note": 64,
      "start": 17.2296,
      "duration": 0.0161,
      "velocity": 101,
      "chip": "ym2612"
    },
    {
      "channel": 0,
      "note": 38,
      "start": 17.2384,
      "duration": 0.0161,
      "velocity": 115,
      "chip": "ym2612"
    },
    {
      "channel": 4,
      "note": 56,
      "start": 17.2395,
      "duration": 0.0161,
      "velocity": 101,
      "chip": "ym2612"
    },
    {
      "channel": 3,
      "note": 59,
      "start": 17.2407,
      "duration": 0.0161,
      "velocity": 101,
      "chip": "ym2612"
    },
    {
      "channel": 1,
      "note": 64,
      "start": 17.2457,
      "duration": 0.0158,
      "velocity": 101,
      "chip": "ym2612"
    },
    {
      "channel": 0,
      "note": 38,
      "start": 17.2545,
      "duration": 0.0161,
      "velocity": 115,
      "chip": "ym2612"
    },
    {
      "channel": 4,
      "note": 56,
      "start": 17.2556,
      "duration": 0.0161,
      "velocity": 101,
      "chip": "ym2612"
    },
    {
      "channel": 3,
      "note": 59,
      "start": 17.2568,
      "duration": 0.0161,
      "velocity": 101,
      "chip": "ym2612"
    },
    {
      "channel": 1,
      "note": 64,
      "start": 17.2615,
      "duration": 0.014,
      "velocity": 101,
      "chip": "ym2612"
    },
    {
      "channel": 0,
      "note": 39,
      "start": 17.2706,
      "duration": 0.0161,
      "velocity": 115,
      "chip": "ym2612"
    },
    {
      "channel": 4,
      "note": 56,
      "start": 17.2717,
      "duration": 0.0161,
      "velocity": 101,
      "chip": "ym2612"
    },
    {
      "channel": 3,
      "note": 59,
      "start": 17.2729,
      "duration": 0.0161,
      "velocity": 101,
      "chip": "ym2612"
    },
    {
      "channel": 1,
      "note": 64,
      "start": 17.2755,
      "duration": 0.0185,
      "velocity": 101,
      "chip": "ym2612"
    },
    {
      "channel": 0,
      "note": 39,
      "start": 17.2867,
      "duration": 0.0161,
      "velocity": 115,
      "chip": "ym2612"
    },
    {
      "channel": 4,
      "note": 56,
      "start": 17.2878,
      "duration": 0.0162,
      "velocity": 101,
      "chip": "ym2612"
    },
    {
      "channel": 3,
      "note": 59,
      "start": 17.289,
      "duration": 0.0161,
      "velocity": 101,
      "chip": "ym2612"
    },
    {
      "channel": 1,
      "note": 64,
      "start": 17.294,
      "duration": 0.0134,
      "velocity": 101,
      "chip": "ym2612"
    },
    {
      "channel": 0,
      "note": 40,
      "start": 17.3028,
      "duration": 0.0161,
      "velocity": 115,
      "chip": "ym2612"
    },
    {
      "channel": 4,
      "note": 56,
      "start": 17.304,
      "duration": 0.0161,
      "velocity": 101,
      "chip": "ym2612"
    },
    {
      "channel": 3,
      "note": 59,
      "start": 17.3051,
      "duration": 0.0161,
      "velocity": 101,
      "chip": "ym2612"
    },
    {
      "channel": 1,
      "note": 64,
      "start": 17.3073,
      "duration": 0.0161,
      "velocity": 101,
      "chip": "ym2612"
    },
    {
      "channel": 0,
      "note": 40,
      "start": 17.3188,
      "duration": 0.0161,
      "velocity": 115,
      "chip": "ym2612"
    },
    {
      "channel": 4,
      "note": 56,
      "start": 17.3201,
      "duration": 0.0161,
      "velocity": 101,
      "chip": "ym2612"
    },
    {
      "channel": 3,
      "note": 59,
      "start": 17.3212,
      "duration": 0.0161,
      "velocity": 101,
      "chip": "ym2612"
    },
    {
      "channel": 1,
      "note": 64,
      "start": 17.3234,
      "duration": 0.0161,
      "velocity": 101,
      "chip": "ym2612"
    },
    {
      "channel": 0,
      "note": 40,
      "start": 17.3349,
      "duration": 0.0162,
      "velocity": 115,
      "chip": "ym2612"
    },
    {
      "channel": 4,
      "note": 56,
      "start": 17.3361,
      "duration": 0.0161,
      "velocity": 101,
      "chip": "ym2612"
    },
    {
      "channel": 3,
      "note": 59,
      "start": 17.3373,
      "duration": 0.0161,
      "velocity": 101,
      "chip": "ym2612"
    },
    {
      "channel": 1,
      "note": 64,
      "start": 17.3395,
      "duration": 0.0162,
      "velocity": 101,
      "chip": "ym2612"
    },
    {
      "channel": 0,
      "note": 41,
      "start": 17.3511,
      "duration": 0.0161,
      "velocity": 115,
      "chip": "ym2612"
    },
    {
      "channel": 4,
      "note": 56,
      "start": 17.3522,
      "duration": 0.0161,
      "velocity": 101,
      "chip": "ym2612"
    },
    {
      "channel": 3,
      "note": 59,
      "start": 17.3534,
      "duration": 0.0161,
      "velocity": 101,
      "chip": "ym2612"
    },
    {
      "channel": 1,
      "note": 64,
      "start": 17.3557,
      "duration": 0.0161,
      "velocity": 101,
      "chip": "ym2612"
    },
    {
      "channel": 0,
      "note": 41,
      "start": 17.3672,
      "duration": 0.0161,
      "velocity": 115,
      "chip": "ym2612"
    },
    {
      "channel": 4,
      "note": 56,
      "start": 17.3683,
      "duration": 0.0161,
      "velocity": 101,
      "chip": "ym2612"
    },
    {
      "channel": 3,
      "note": 59,
      "start": 17.3695,
      "duration": 0.0161,
      "velocity": 101,
      "chip": "ym2612"
    },
    {
      "channel": 1,
      "note": 64,
      "start": 17.3718,
      "duration": 0.0161,
      "velocity": 101,
      "chip": "ym2612"
    },
    {
      "channel": 0,
      "note": 42,
      "start": 17.3833,
      "duration": 0.0178,
      "velocity": 115,
      "chip": "ym2612"
    },
    {
      "channel": 4,
      "note": 56,
      "start": 17.3844,
      "duration": 0.0179,
      "velocity": 101,
      "chip": "ym2612"
    },
    {
      "channel": 3,
      "note": 59,
      "start": 17.3856,
      "duration": 0.0179,
      "velocity": 101,
      "chip": "ym2612"
    },
    {
      "channel": 1,
      "note": 64,
      "start": 17.3879,
      "duration": 0.0179,
      "velocity": 101,
      "chip": "ym2612"
    },
    {
      "channel": 0,
      "note": 36,
      "start": 17.4012,
      "duration": 0.0144,
      "velocity": 115,
      "chip": "ym2612"
    },
    {
      "channel": 4,
      "note": 56,
      "start": 17.4024,
      "duration": 0.0143,
      "velocity": 101,
      "chip": "ym2612"
    },
    {
      "channel": 3,
      "note": 59,
      "start": 17.4035,
      "duration": 0.0143,
      "velocity": 101,
      "chip": "ym2612"
    },
    {
      "channel": 1,
      "note": 64,
      "start": 17.4057,
      "duration": 0.0144,
      "velocity": 101,
      "chip": "ym2612"
    },
    {
      "channel": 0,
      "note": 36,
      "start": 17.4155,
      "duration": 0.016,
      "velocity": 115,
      "chip": "ym2612"
    },
    {
      "channel": 4,
      "note": 56,
      "start": 17.4167,
      "duration": 0.016,
      "velocity": 101,
      "chip": "ym2612"
    },
    {
      "channel": 3,
      "note": 59,
      "start": 17.4178,
      "duration": 0.016,
      "velocity": 101,
      "chip": "ym2612"
    },
    {
      "channel": 1,
      "note": 64,
      "start": 17.4201,
      "duration": 0.016,
      "velocity": 101,
      "chip": "ym2612"
    },
    {
      "channel": 0,
      "note": 37,
      "start": 17.4316,
      "duration": 0.0161,
      "velocity": 115,
      "chip": "ym2612"
    },
    {
      "channel": 4,
      "note": 56,
      "start": 17.4327,
      "duration": 0.0161,
      "velocity": 101,
      "chip": "ym2612"
    },
    {
      "channel": 3,
      "note": 59,
      "start": 17.4339,
      "duration": 0.0162,
      "velocity": 101,
      "chip": "ym2612"
    },
    {
      "channel": 1,
      "note": 64,
      "start": 17.4361,
      "duration": 0.0161,
      "velocity": 101,
      "chip": "ym2612"
    },
    {
      "channel": 0,
      "note": 37,
      "start": 17.4477,
      "duration": 0.0161,
      "velocity": 115,
      "chip": "ym2612"
    },
    {
      "channel": 4,
      "note": 56,
      "start": 17.4489,
      "duration": 0.0161,
      "velocity": 101,
      "chip": "ym2612"
    },
    {
      "channel": 3,
      "note": 59,
      "start": 17.45,
      "duration": 0.0161,
      "velocity": 101,
      "chip": "ym2612"
    },
    {
      "channel": 1,
      "note": 64,
      "start": 17.4522,
      "duration": 0.0161,
      "velocity": 101,
      "chip": "ym2612"
    },
    {
      "channel": 0,
      "note": 38,
      "start": 17.4638,
      "duration": 0.0161,
      "velocity": 115,
      "chip": "ym2612"
    },
    {
      "channel": 4,
      "note": 56,
      "start": 17.465,
      "duration": 0.0161,
      "velocity": 101,
      "chip": "ym2612"
    },
    {
      "channel": 3,
      "note": 59,
      "start": 17.4661,
      "duration": 0.0161,
      "velocity": 101,
      "chip": "ym2612"
    },
    {
      "channel": 1,
      "note": 64,
      "start": 17.4683,
      "duration": 0.0161,
      "velocity": 101,
      "chip": "ym2612"
    },
    {
      "channel": 0,
      "note": 38,
      "start": 17.4799,
      "duration": 0.0161,
      "velocity": 115,
      "chip": "ym2612"
    },
    {
      "channel": 4,
      "note": 56,
      "start": 17.4811,
      "duration": 0.0161,
      "velocity": 101,
      "chip": "ym2612"
    },
    {
      "channel": 3,
      "note": 59,
      "start": 17.4822,
      "duration": 0.0161,
      "velocity": 101,
      "chip": "ym2612"
    },
    {
      "channel": 1,
      "note": 64,
      "start": 17.4844,
      "duration": 0.0161,
      "velocity": 101,
      "chip": "ym2612"
    },
    {
      "channel": 0,
      "note": 39,
      "start": 17.4959,
      "duration": 0.0166,
      "velocity": 115,
      "chip": "ym2612"
    },
    {
      "channel": 4,
      "note": 56,
      "start": 17.4972,
      "duration": 0.0165,
      "velocity": 101,
      "chip": "ym2612"
    },
    {
      "channel": 3,
      "note": 59,
      "start": 17.4983,
      "duration": 0.0165,
      "velocity": 101,
      "chip": "ym2612"
    },
    {
      "channel": 1,
      "note": 64,
      "start": 17.5005,
      "duration": 0.0166,
      "velocity": 101,
      "chip": "ym2612"
    },
    {
      "channel": 0,
      "note": 39,
      "start": 17.5125,
      "duration": 0.0163,
      "velocity": 115,
      "chip": "ym2612"
    },
    {
      "channel": 4,
      "note": 56,
      "start": 17.5136,
      "duration": 0.0163,
      "velocity": 101,
      "chip": "ym2612"
    },
    {
      "channel": 3,
      "note": 59,
      "start": 17.5148,
      "duration": 0.0163,
      "velocity": 101,
      "chip": "ym2612"
    },
    {
      "channel": 1,
      "note": 64,
      "start": 17.5171,
      "duration": 0.0163,
      "velocity": 101,
      "chip": "ym2612"
    },
    {
      "channel": 0,
      "note": 40,
      "start": 17.5288,
      "duration": 0.0155,
      "velocity": 115,
      "chip": "ym2612"
    },
    {
      "channel": 4,
      "note": 56,
      "start": 17.5299,
      "duration": 0.0155,
      "velocity": 101,
      "chip": "ym2612"
    },
    {
      "channel": 3,
      "note": 59,
      "start": 17.5311,
      "duration": 0.0155,
      "velocity": 101,
      "chip": "ym2612"
    },
    {
      "channel": 1,
      "note": 64,
      "start": 17.5334,
      "duration": 0.0155,
      "velocity": 101,
      "chip": "ym2612"
    },
    {
      "channel": 0,
      "note": 40,
      "start": 17.5443,
      "duration": 0.0182,
      "velocity": 115,
      "chip": "ym2612"
    },
    {
      "channel": 4,
      "note": 56,
      "start": 17.5454,
      "duration": 0.0182,
      "velocity": 101,
      "chip": "ym2612"
    },
    {
      "channel": 3,
      "note": 59,
      "start": 17.5466,
      "duration": 0.0182,
      "velocity": 101,
      "chip": "ym2612"
    },
    {
      "channel": 1,
      "note": 64,
      "start": 17.5489,
      "duration": 0.0182,
      "velocity": 101,
      "chip": "ym2612"
    },
    {
      "channel": 0,
      "note": 40,
      "start": 17.5625,
      "duration": 0.0167,
      "velocity": 115,
      "chip": "ym2612"
    },
    {
      "channel": 4,
      "note": 56,
      "start": 17.5636,
      "duration": 0.0167,
      "velocity": 101,
      "chip": "ym2612"
    },
    {
      "channel": 3,
      "note": 59,
      "start": 17.5648,
      "duration": 0.0167,
      "velocity": 101,
      "chip": "ym2612"
    },
    {
      "channel": 1,
      "note": 64,
      "start": 17.5671,
      "duration": 0.0167,
      "velocity": 101,
      "chip": "ym2612"
    },
    {
      "channel": 0,
      "note": 41,
      "start": 17.5792,
      "duration": 0.0158,
      "velocity": 115,
      "chip": "ym2612"
    },
    {
      "channel": 4,
      "note": 56,
      "start": 17.5803,
      "duration": 0.0159,
      "velocity": 101,
      "chip": "ym2612"
    },
    {
      "channel": 3,
      "note": 59,
      "start": 17.5815,
      "duration": 0.0158,
      "velocity": 101,
      "chip": "ym2612"
    },
    {
      "channel": 1,
      "note": 64,
      "start": 17.5837,
      "duration": 0.0158,
      "velocity": 101,
      "chip": "ym2612"
    },
    {
      "channel": 0,
      "note": 41,
      "start": 17.5949,
      "duration": 0.0141,
      "velocity": 115,
      "chip": "ym2612"
    },
    {
      "channel": 4,
      "note": 56,
      "start": 17.5961,
      "duration": 0.0141,
      "velocity": 101,
      "chip": "ym2612"
    },
    {
      "channel": 3,
      "note": 59,
      "start": 17.5973,
      "duration": 0.0141,
      "velocity": 101,
      "chip": "ym2612"
    },
    {
      "channel": 1,
      "note": 64,
      "start": 17.5996,
      "duration": 0.014,
      "velocity": 101,
      "chip": "ym2612"
    },
    {
      "channel": 0,
      "note": 42,
      "start": 17.609,
      "duration": 0.0203,
      "velocity": 124,
      "chip": "ym2612"
    },
    {
      "channel": 4,
      "note": 56,
      "start": 17.6102,
      "duration": 0.0203,
      "velocity": 101,
      "chip": "ym2612"
    },
    {
      "channel": 3,
      "note": 59,
      "start": 17.6113,
      "duration": 0.0203,
      "velocity": 101,
      "chip": "ym2612"
    },
    {
      "channel": 1,
      "note": 64,
      "start": 17.6136,
      "duration": 0.0203,
      "velocity": 101,
      "chip": "ym2612"
    },
    {
      "channel": 0,
      "note": 84,
      "start": 17.6293,
      "duration": 0.0116,
      "velocity": 124,
      "chip": "ym2612"
    },
    {
      "channel": 4,
      "note": 56,
      "start": 17.6305,
      "duration": 0.0144,
      "velocity": 101,
      "chip": "ym2612"
    },
    {
      "channel": 3,
      "note": 59,
      "start": 17.6316,
      "duration": 0.0144,
      "velocity": 101,
      "chip": "ym2612"
    },
    {
      "channel": 1,
      "note": 64,
      "start": 17.6339,
      "duration": 0.0144,
      "velocity": 101,
      "chip": "ym2612"
    },
    {
      "channel": 0,
      "note": 82,
      "start": 17.6409,
      "duration": 0.0161,
      "velocity": 124,
      "chip": "ym2612"
    },
    {
      "channel": 4,
      "note": 56,
      "start": 17.6449,
      "duration": 0.0157,
      "velocity": 101,
      "chip": "ym2612"
    },
    {
      "channel": 3,
      "note": 59,
      "start": 17.646,
      "duration": 0.0157,
      "velocity": 101,
      "chip": "ym2612"
    },
    {
      "channel": 1,
      "note": 64,
      "start": 17.6483,
      "duration": 0.0156,
      "velocity": 101,
      "chip": "ym2612"
    },
    {
      "channel": 0,
      "note": 80,
      "start": 17.657,
      "duration": 0.0161,
      "velocity": 124,
      "chip": "ym2612"
    },
    {
      "channel": 4,
      "note": 56,
      "start": 17.6606,
      "duration": 0.0137,
      "velocity": 101,
      "chip": "ym2612"
    },
    {
      "channel": 3,
      "note": 59,
      "start": 17.6617,
      "duration": 0.014,
      "velocity": 101,
      "chip": "ym2612"
    },
    {
      "channel": 1,
      "note": 64,
      "start": 17.6639,
      "duration": 0.0141,
      "velocity": 101,
      "chip": "ym2612"
    },
    {
      "channel": 0,
      "note": 77,
      "start": 17.6731,
      "duration": 0.0161,
      "velocity": 124,
      "chip": "ym2612"
    },
    {
      "channel": 4,
      "note": 56,
      "start": 17.6743,
      "duration": 0.0161,
      "velocity": 101,
      "chip": "ym2612"
    },
    {
      "channel": 3,
      "note": 59,
      "start": 17.6757,
      "duration": 0.0185,
      "velocity": 101,
      "chip": "ym2612"
    },
    {
      "channel": 1,
      "note": 64,
      "start": 17.678,
      "duration": 0.0185,
      "velocity": 101,
      "chip": "ym2612"
    },
    {
      "channel": 0,
      "note": 75,
      "start": 17.6892,
      "duration": 0.0161,
      "velocity": 124,
      "chip": "ym2612"
    },
    {
      "channel": 4,
      "note": 56,
      "start": 17.6904,
      "duration": 0.0161,
      "velocity": 101,
      "chip": "ym2612"
    },
    {
      "channel": 3,
      "note": 59,
      "start": 17.6942,
      "duration": 0.0134,
      "velocity": 101,
      "chip": "ym2612"
    },
    {
      "channel": 1,
      "note": 64,
      "start": 17.6965,
      "duration": 0.0161,
      "velocity": 101,
      "chip": "ym2612"
    },
    {
      "channel": 0,
      "note": 72,
      "start": 17.7053,
      "duration": 0.0161,
      "velocity": 124,
      "chip": "ym2612"
    },
    {
      "channel": 4,
      "note": 56,
      "start": 17.7064,
      "duration": 0.0161,
      "velocity": 101,
      "chip": "ym2612"
    },
    {
      "channel": 3,
      "note": 59,
      "start": 17.7076,
      "duration": 0.0161,
      "velocity": 101,
      "chip": "ym2612"
    },
    {
      "channel": 1,
      "note": 64,
      "start": 17.7126,
      "duration": 0.0157,
      "velocity": 101,
      "chip": "ym2612"
    },
    {
      "channel": 0,
      "note": 70,
      "start": 17.7214,
      "duration": 0.0161,
      "velocity": 124,
      "chip": "ym2612"
    },
    {
      "channel": 4,
      "note": 56,
      "start": 17.7225,
      "duration": 0.0161,
      "velocity": 101,
      "chip": "ym2612"
    },
    {
      "channel": 3,
      "note": 59,
      "start": 17.7237,
      "duration": 0.0161,
      "velocity": 101,
      "chip": "ym2612"
    },
    {
      "channel": 1,
      "note": 64,
      "start": 17.7283,
      "duration": 0.0141,
      "velocity": 101,
      "chip": "ym2612"
    },
    {
      "channel": 0,
      "note": 68,
      "start": 17.7375,
      "duration": 0.0161,
      "velocity": 124,
      "chip": "ym2612"
    },
    {
      "channel": 4,
      "note": 56,
      "start": 17.7386,
      "duration": 0.0161,
      "velocity": 101,
      "chip": "ym2612"
    },
    {
      "channel": 3,
      "note": 59,
      "start": 17.7398,
      "duration": 0.0162,
      "velocity": 101,
      "chip": "ym2612"
    },
    {
      "channel": 1,
      "note": 64,
      "start": 17.7424,
      "duration": 0.0185,
      "velocity": 101,
      "chip": "ym2612"
    },
    {
      "channel": 0,
      "note": 65,
      "start": 17.7536,
      "duration": 0.0161,
      "velocity": 124,
      "chip": "ym2612"
    },
    {
      "channel": 4,
      "note": 56,
      "start": 17.7548,
      "duration": 0.0161,
      "velocity": 101,
      "chip": "ym2612"
    },
    {
      "channel": 3,
      "note": 59,
      "start": 17.7559,
      "duration": 0.0161,
      "velocity": 101,
      "chip": "ym2612"
    },
    {
      "channel": 1,
      "note": 64,
      "start": 17.7609,
      "duration": 0.0134,
      "velocity": 101,
      "chip": "ym2612"
    },
    {
      "channel": 0,
      "note": 63,
      "start": 17.7697,
      "duration": 0.0153,
      "velocity": 1,
      "chip": "ym2612"
    },
    {
      "channel": 4,
      "note": 56,
      "start": 17.7709,
      "duration": 0.0153,
      "velocity": 101,
      "chip": "ym2612"
    },
    {
      "channel": 3,
      "note": 59,
      "start": 17.772,
      "duration": 0.0153,
      "velocity": 101,
      "chip": "ym2612"
    },
    {
      "channel": 1,
      "note": 64,
      "start": 17.7743,
      "duration": 0.0153,
      "velocity": 101,
      "chip": "ym2612"
    },
    {
      "channel": 4,
      "note": 56,
      "start": 17.7861,
      "duration": 0.0153,
      "velocity": 101,
      "chip": "ym2612"
    },
    {
      "channel": 3,
      "note": 59,
      "start": 17.7873,
      "duration": 0.0153,
      "velocity": 101,
      "chip": "ym2612"
    },
    {
      "channel": 1,
      "note": 64,
      "start": 17.7896,
      "duration": 0.0153,
      "velocity": 101,
      "chip": "ym2612"
    },
    {
      "channel": 4,
      "note": 56,
      "start": 17.8014,
      "duration": 0.0161,
      "velocity": 101,
      "chip": "ym2612"
    },
    {
      "channel": 3,
      "note": 59,
      "start": 17.8026,
      "duration": 0.0161,
      "velocity": 101,
      "chip": "ym2612"
    },
    {
      "channel": 1,
      "note": 64,
      "start": 17.8049,
      "duration": 0.0161,
      "velocity": 101,
      "chip": "ym2612"
    },
    {
      "channel": 4,
      "note": 56,
      "start": 17.8175,
      "duration": 0.0161,
      "velocity": 101,
      "chip": "ym2612"
    },
    {
      "channel": 3,
      "note": 59,
      "start": 17.8187,
      "duration": 0.0161,
      "velocity": 101,
      "chip": "ym2612"
    },
    {
      "channel": 1,
      "note": 64,
      "start": 17.821,
      "duration": 0.0161,
      "velocity": 101,
      "chip": "ym2612"
    },
    {
      "channel": 4,
      "note": 56,
      "start": 17.8336,
      "duration": 0.0161,
      "velocity": 101,
      "chip": "ym2612"
    },
    {
      "channel": 3,
      "note": 59,
      "start": 17.8348,
      "duration": 0.0161,
      "velocity": 101,
      "chip": "ym2612"
    },
    {
      "channel": 1,
      "note": 64,
      "start": 17.8371,
      "duration": 0.0161,
      "velocity": 101,
      "chip": "ym2612"
    },
    {
      "channel": 4,
      "note": 56,
      "start": 17.8497,
      "duration": 0.0162,
      "velocity": 101,
      "chip": "ym2612"
    },
    {
      "channel": 3,
      "note": 59,
      "start": 17.8508,
      "duration": 0.0162,
      "velocity": 101,
      "chip": "ym2612"
    },
    {
      "channel": 1,
      "note": 64,
      "start": 17.8531,
      "duration": 0.0161,
      "velocity": 101,
      "chip": "ym2612"
    },
    {
      "channel": 4,
      "note": 56,
      "start": 17.8659,
      "duration": 0.0161,
      "velocity": 101,
      "chip": "ym2612"
    },
    {
      "channel": 3,
      "note": 59,
      "start": 17.867,
      "duration": 0.0161,
      "velocity": 101,
      "chip": "ym2612"
    },
    {
      "channel": 1,
      "note": 64,
      "start": 17.8692,
      "duration": 0.0161,
      "velocity": 101,
      "chip": "ym2612"
    },
    {
      "channel": 4,
      "note": 56,
      "start": 17.882,
      "duration": 0.0161,
      "velocity": 101,
      "chip": "ym2612"
    },
    {
      "channel": 3,
      "note": 59,
      "start": 17.8831,
      "duration": 0.0161,
      "velocity": 101,
      "chip": "ym2612"
    },
    {
      "channel": 1,
      "note": 64,
      "start": 17.8853,
      "duration": 0.0161,
      "velocity": 101,
      "chip": "ym2612"
    },
    {
      "channel": 4,
      "note": 56,
      "start": 17.898,
      "duration": 0.0161,
      "velocity": 101,
      "chip": "ym2612"
    },
    {
      "channel": 3,
      "note": 59,
      "start": 17.8992,
      "duration": 0.0161,
      "velocity": 101,
      "chip": "ym2612"
    },
    {
      "channel": 1,
      "note": 64,
      "start": 17.9014,
      "duration": 0.0161,
      "velocity": 101,
      "chip": "ym2612"
    },
    {
      "channel": 4,
      "note": 56,
      "start": 17.9141,
      "duration": 0.0161,
      "velocity": 101,
      "chip": "ym2612"
    },
    {
      "channel": 3,
      "note": 59,
      "start": 17.9153,
      "duration": 0.0161,
      "velocity": 101,
      "chip": "ym2612"
    },
    {
      "channel": 1,
      "note": 64,
      "start": 17.9176,
      "duration": 0.0161,
      "velocity": 101,
      "chip": "ym2612"
    },
    {
      "channel": 4,
      "note": 56,
      "start": 17.9302,
      "duration": 0.0161,
      "velocity": 101,
      "chip": "ym2612"
    },
    {
      "channel": 3,
      "note": 59,
      "start": 17.9314,
      "duration": 0.0161,
      "velocity": 101,
      "chip": "ym2612"
    },
    {
      "channel": 1,
      "note": 64,
      "start": 17.9337,
      "duration": 0.0161,
      "velocity": 101,
      "chip": "ym2612"
    },
    {
      "channel": 4,
      "note": 56,
      "start": 17.9463,
      "duration": 0.0161,
      "velocity": 101,
      "chip": "ym2612"
    },
    {
      "channel": 3,
      "note": 59,
      "start": 17.9475,
      "duration": 0.0161,
      "velocity": 101,
      "chip": "ym2612"
    },
    {
      "channel": 1,
      "note": 64,
      "start": 17.9498,
      "duration": 0.0161,
      "velocity": 101,
      "chip": "ym2612"
    },
    {
      "channel": 4,
      "note": 56,
      "start": 17.9624,
      "duration": 0.0162,
      "velocity": 101,
      "chip": "ym2612"
    },
    {
      "channel": 3,
      "note": 59,
      "start": 17.9636,
      "duration": 0.0162,
      "velocity": 101,
      "chip": "ym2612"
    },
    {
      "channel": 1,
      "note": 64,
      "start": 17.9659,
      "duration": 0.0162,
      "velocity": 101,
      "chip": "ym2612"
    },
    {
      "channel": 4,
      "note": 56,
      "start": 17.9786,
      "duration": 0.0163,
      "velocity": 101,
      "chip": "ym2612"
    },
    {
      "channel": 3,
      "note": 59,
      "start": 17.9798,
      "duration": 0.0163,
      "velocity": 101,
      "chip": "ym2612"
    },
    {
      "channel": 1,
      "note": 64,
      "start": 17.9821,
      "duration": 0.0163,
      "velocity": 101,
      "chip": "ym2612"
    },
    {
      "channel": 4,
      "note": 56,
      "start": 17.9949,
      "duration": 0.0158,
      "velocity": 101,
      "chip": "ym2612"
    },
    {
      "channel": 3,
      "note": 59,
      "start": 17.9961,
      "duration": 0.0159,
      "velocity": 101,
      "chip": "ym2612"
    },
    {
      "channel": 1,
      "note": 64,
      "start": 17.9984,
      "duration": 0.0158,
      "velocity": 101,
      "chip": "ym2612"
    },
    {
      "channel": 4,
      "note": 56,
      "start": 18.0108,
      "duration": 0.0179,
      "velocity": 101,
      "chip": "ym2612"
    },
    {
      "channel": 3,
      "note": 59,
      "start": 18.0119,
      "duration": 0.0179,
      "velocity": 101,
      "chip": "ym2612"
    },
    {
      "channel": 1,
      "note": 64,
      "start": 18.0141,
      "duration": 0.0179,
      "velocity": 101,
      "chip": "ym2612"
    },
    {
      "channel": 4,
      "note": 56,
      "start": 18.0286,
      "duration": 0.0167,
      "velocity": 101,
      "chip": "ym2612"
    },
    {
      "channel": 3,
      "note": 59,
      "start": 18.0298,
      "duration": 0.0167,
      "velocity": 101,
      "chip": "ym2612"
    },
    {
      "channel": 1,
      "note": 64,
      "start": 18.0321,
      "duration": 0.0167,
      "velocity": 101,
      "chip": "ym2612"
    },
    {
      "channel": 4,
      "note": 56,
      "start": 18.0453,
      "duration": 0.0161,
      "velocity": 101,
      "chip": "ym2612"
    },
    {
      "channel": 3,
      "note": 59,
      "start": 18.0465,
      "duration": 0.0161,
      "velocity": 101,
      "chip": "ym2612"
    },
    {
      "channel": 1,
      "note": 64,
      "start": 18.0488,
      "duration": 0.0161,
      "velocity": 101,
      "chip": "ym2612"
    },
    {
      "channel": 4,
      "note": 56,
      "start": 18.0614,
      "duration": 0.0177,
      "velocity": 101,
      "chip": "ym2612"
    },
    {
      "channel": 3,
      "note": 59,
      "start": 18.0626,
      "duration": 0.0179,
      "velocity": 101,
      "chip": "ym2612"
    },
    {
      "channel": 1,
      "note": 64,
      "start": 18.0649,
      "duration": 0.0184,
      "velocity": 101,
      "chip": "ym2612"
    },
    {
      "channel": 0,
      "note": 36,
      "start": 18.0777,
      "duration": 0.0169,
      "velocity": 115,
      "chip": "ym2612"
    },
    {
      "channel": 4,
      "note": 61,
      "start": 18.0792,
      "duration": 0.0166,
      "velocity": 101,
      "chip": "ym2612"
    },
    {
      "channel": 3,
      "note": 64,
      "start": 18.0806,
      "duration": 0.0164,
      "velocity": 101,
      "chip": "ym2612"
    },
    {
      "channel": 1,
      "note": 69,
      "start": 18.0833,
      "duration": 0.0161,
      "velocity": 101,
      "chip": "ym2612"
    },
    {
      "channel": 0,
      "note": 36,
      "start": 18.0946,
      "duration": 0.016,
      "velocity": 115,
      "chip": "ym2612"
    },
    {
      "channel": 4,
      "note": 61,
      "start": 18.0958,
      "duration": 0.016,
      "velocity": 101,
      "chip": "ym2612"
    },
    {
      "channel": 3,
      "note": 64,
      "start": 18.097,
      "duration": 0.0159,
      "velocity": 101,
      "chip": "ym2612"
    },
    {
      "channel": 1,
      "note": 69,
      "start": 18.0994,
      "duration": 0.0158,
      "velocity": 101,
      "chip": "ym2612"
    },
    {
      "channel": 0,
      "note": 37,
      "start": 18.1106,
      "duration": 0.0134,
      "velocity": 115,
      "chip": "ym2612"
    },
    {
      "channel": 4,
      "note": 61,
      "start": 18.1117,
      "duration": 0.0158,
      "velocity": 101,
      "chip": "ym2612"
    },
    {
      "channel": 3,
      "note": 64,
      "start": 18.1129,
      "duration": 0.0158,
      "velocity": 101,
      "chip": "ym2612"
    },
    {
      "channel": 1,
      "note": 69,
      "start": 18.1152,
      "duration": 0.0158,
      "velocity": 101,
      "chip": "ym2612"
    },
    {
      "channel": 0,
      "note": 37,
      "start": 18.1239,
      "duration": 0.0161,
      "velocity": 115,
      "chip": "ym2612"
    },
    {
      "channel": 4,
      "note": 61,
      "start": 18.1275,
      "duration": 0.014,
      "velocity": 101,
      "chip": "ym2612"
    },
    {
      "channel": 3,
      "note": 64,
      "start": 18.1286,
      "duration": 0.014,
      "velocity": 101,
      "chip": "ym2612"
    },
    {
      "channel": 1,
      "note": 69,
      "start": 18.1309,
      "duration": 0.014,
      "velocity": 101,
      "chip": "ym2612"
    },
    {
      "channel": 0,
      "note": 38,
      "start": 18.14,
      "duration": 0.0161,
      "velocity": 115,
      "chip": "ym2612"
    },
    {
      "channel": 4,
      "note": 61,
      "start": 18.1415,
      "duration": 0.0158,
      "velocity": 101,
      "chip": "ym2612"
    },
    {
      "channel": 3,
      "note": 64,
      "start": 18.1427,
      "duration": 0.0186,
      "velocity": 101,
      "chip": "ym2612"
    },
    {
      "channel": 1,
      "note": 69,
      "start": 18.1449,
      "duration": 0.0185,
      "velocity": 101,
      "chip": "ym2612"
    },
    {
      "channel": 0,
      "note": 38,
      "start": 18.1561,
      "duration": 0.0161,
      "velocity": 115,
      "chip": "ym2612"
    },
    {
      "channel": 4,
      "note": 61,
      "start": 18.1573,
      "duration": 0.0161,
      "velocity": 101,
      "chip": "ym2612"
    },
    {
      "channel": 3,
      "note": 64,
      "start": 18.1612,
      "duration": 0.0161,
      "velocity": 101,
      "chip": "ym2612"
    },
    {
      "channel": 1,
      "note": 69,
      "start": 18.1634,
      "duration": 0.0161,
      "velocity": 101,
      "chip": "ym2612"
    },
    {
      "channel": 0,
      "note": 39,
      "start": 18.1722,
      "duration": 0.0161,
      "velocity": 115,
      "chip": "ym2612"
    },
    {
      "channel": 4,
      "note": 61,
      "start": 18.1734,
      "duration": 0.0161,
      "velocity": 101,
      "chip": "ym2612"
    },
    {
      "channel": 3,
      "note": 64,
      "start": 18.1773,
      "duration": 0.0133,
      "velocity": 101,
      "chip": "ym2612"
    },
    {
      "channel": 1,
      "note": 69,
      "start": 18.1795,
      "duration": 0.0158,
      "velocity": 101,
      "chip": "ym2612"
    },
    {
      "channel": 0,
      "note": 39,
      "start": 18.1883,
      "duration": 0.0161,
      "velocity": 115,
      "chip": "ym2612"
    },
    {
      "channel": 4,
      "note": 61,
      "start": 18.1895,
      "duration": 0.0161,
      "velocity": 101,
      "chip": "ym2612"
    },
    {
      "channel": 3,
      "note": 64,
      "start": 18.1906,
      "duration": 0.0161,
      "velocity": 101,
      "chip": "ym2612"
    },
    {
      "channel": 1,
      "note": 69,
      "start": 18.1953,
      "duration": 0.014,
      "velocity": 101,
      "chip": "ym2612"
    },
    {
      "channel": 0,
      "note": 40,
      "start": 18.2044,
      "duration": 0.0161,
      "velocity": 115,
      "chip": "ym2612"
    },
    {
      "channel": 4,
      "note": 61,
      "start": 18.2056,
      "duration": 0.0162,
      "velocity": 101,
      "chip": "ym2612"
    },
    {
      "channel": 3,
      "note": 64,
      "start": 18.2067,
      "duration": 0.0161,
      "velocity": 101,
      "chip": "ym2612"
    },
    {
      "channel": 1,
      "note": 69,
      "start": 18.2093,
      "duration": 0.0186,
      "velocity": 101,
      "chip": "ym2612"
    },
    {
      "channel": 0,
      "note": 40,
      "start": 18.2205,
      "duration": 0.0161,
      "velocity": 115,
      "chip": "ym2612"
    },
    {
      "channel": 4,
      "note": 61,
      "start": 18.2217,
      "duration": 0.0161,
      "velocity": 101,
      "chip": "ym2612"
    },
    {
      "channel": 3,
      "note": 64,
      "start": 18.2229,
      "duration": 0.0161,
      "velocity": 101,
      "chip": "ym2612"
    },
    {
      "channel": 1,
      "note": 69,
      "start": 18.2279,
      "duration": 0.0161,
      "velocity": 101,
      "chip": "ym2612"
    },
    {
      "channel": 0,
      "note": 40,
      "start": 18.2366,
      "duration": 0.0162,
      "velocity": 115,
      "chip": "ym2612"
    },
    {
      "channel": 4,
      "note": 61,
      "start": 18.2378,
      "duration": 0.0161,
      "velocity": 101,
      "chip": "ym2612"
    },
    {
      "channel": 3,
      "note": 64,
      "start": 18.239,
      "duration": 0.0161,
      "velocity": 101,
      "chip": "ym2612"
    },
    {
      "channel": 1,
      "note": 69,
      "start": 18.244,
      "duration": 0.0134,
      "velocity": 101,
      "chip": "ym2612"
    },
    {
      "channel": 0,
      "note": 41,
      "start": 18.2528,
      "duration": 0.0161,
      "velocity": 115,
      "chip": "ym2612"
    },
    {
      "channel": 4,
      "note": 61,
      "start": 18.2539,
      "duration": 0.0161,
      "velocity": 101,
      "chip": "ym2612"
    },
    {
      "channel": 3,
      "note": 64,
      "start": 18.2551,
      "duration": 0.0161,
      "velocity": 101,
      "chip": "ym2612"
    },
    {
      "channel": 1,
      "note": 69,
      "start": 18.2573,
      "duration": 0.0161,
      "velocity": 101,
      "chip": "ym2612"
    },
    {
      "channel": 0,
      "note": 41,
      "start": 18.2688,
      "duration": 0.0161,
      "velocity": 115,
      "chip": "ym2612"
    },
    {
      "channel": 4,
      "note": 61,
      "start": 18.27,
      "duration": 0.0161,
      "velocity": 101,
      "chip": "ym2612"
    },
    {
      "channel": 3,
      "note": 64,
      "start": 18.2711,
      "duration": 0.0161,
      "velocity": 101,
      "chip": "ym2612"
    },
    {
      "channel": 1,
      "note": 69,
      "start": 18.2734,
      "duration": 0.0161,
      "velocity": 101,
      "chip": "ym2612"
    },
    {
      "channel": 0,
      "note": 42,
      "start": 18.2849,
      "duration": 0.0161,
      "velocity": 115,
      "chip": "ym2612"
    },
    {
      "channel": 4,
      "note": 61,
      "start": 18.2861,
      "duration": 0.0161,
      "velocity": 101,
      "chip": "ym2612"
    },
    {
      "channel": 3,
      "note": 64,
      "start": 18.2872,
      "duration": 0.0161,
      "velocity": 101,
      "chip": "ym2612"
    },
    {
      "channel": 1,
      "note": 69,
      "start": 18.2895,
      "duration": 0.0161,
      "velocity": 101,
      "chip": "ym2612"
    },
    {
      "channel": 0,
      "note": 42,
      "start": 18.301,
      "duration": 0.0161,
      "velocity": 115,
      "chip": "ym2612"
    },
    {
      "channel": 4,
      "note": 61,
      "start": 18.3022,
      "duration": 0.0161,
      "velocity": 101,
      "chip": "ym2612"
    },
    {
      "channel": 3,
      "note": 64,
      "start": 18.3033,
      "duration": 0.0161,
      "velocity": 101,
      "chip": "ym2612"
    },
    {
      "channel": 1,
      "note": 69,
      "start": 18.3056,
      "duration": 0.0161,
      "velocity": 101,
      "chip": "ym2612"
    },
    {
      "channel": 0,
      "note": 43,
      "start": 18.3171,
      "duration": 0.0161,
      "velocity": 115,
      "chip": "ym2612"
    },
    {
      "channel": 4,
      "note": 61,
      "start": 18.3183,
      "duration": 0.0161,
      "velocity": 101,
      "chip": "ym2612"
    },
    {
      "channel": 3,
      "note": 64,
      "start": 18.3194,
      "duration": 0.0161,
      "velocity": 101,
      "chip": "ym2612"
    },
    {
      "channel": 1,
      "note": 69,
      "start": 18.3217,
      "duration": 0.0161,
      "velocity": 101,
      "chip": "ym2612"
    },
    {
      "channel": 0,
      "note": 43,
      "start": 18.3332,
      "duration": 0.0161,
      "velocity": 115,
      "chip": "ym2612"
    },
    {
      "channel": 4,
      "note": 61,
      "start": 18.3344,
      "duration": 0.0161,
      "velocity": 101,
      "chip": "ym2612"
    },
    {
      "channel": 3,
      "note": 64,
      "start": 18.3355,
      "duration": 0.0162,
      "velocity": 101,
      "chip": "ym2612"
    },
    {
      "channel": 1,
      "note": 69,
      "start": 18.3378,
      "duration": 0.0161,
      "velocity": 101,
      "chip": "ym2612"
    },
    {
      "channel": 0,
      "note": 44,
      "start": 18.3493,
      "duration": 0.0161,
      "velocity": 115,
      "chip": "ym2612"
    },
    {
      "channel": 4,
      "note": 61,
      "start": 18.3505,
      "duration": 0.0161,
      "velocity": 101,
      "chip": "ym2612"
    },
    {
      "channel": 3,
      "note": 64,
      "start": 18.3517,
      "duration": 0.0161,
      "velocity": 101,
      "chip": "ym2612"
    },
    {
      "channel": 1,
      "note": 69,
      "start": 18.3539,
      "duration": 0.0161,
      "velocity": 101,
      "chip": "ym2612"
    },
    {
      "channel": 0,
      "note": 44,
      "start": 18.3654,
      "duration": 0.0161,
      "velocity": 115,
      "chip": "ym2612"
    },
    {
      "channel": 4,
      "note": 61,
      "start": 18.3666,
      "duration": 0.0161,
      "velocity": 101,
      "chip": "ym2612"
    },
    {
      "channel": 3,
      "note": 64,
      "start": 18.3678,
      "duration": 0.0161,
      "velocity": 101,
      "chip": "ym2612"
    },
    {
      "channel": 1,
      "note": 69,
      "start": 18.37,
      "duration": 0.0161,
      "velocity": 101,
      "chip": "ym2612"
    },
    {
      "channel": 0,
      "note": 44,
      "start": 18.3816,
      "duration": 0.0161,
      "velocity": 115,
      "chip": "ym2612"
    },
    {
      "channel": 4,
      "note": 61,
      "start": 18.3827,
      "duration": 0.0161,
      "velocity": 101,
      "chip": "ym2612"
    },
    {
      "channel": 3,
      "note": 64,
      "start": 18.3839,
      "duration": 0.0161,
      "velocity": 101,
      "chip": "ym2612"
    },
    {
      "channel": 1,
      "note": 69,
      "start": 18.3861,
      "duration": 0.0161,
      "velocity": 101,
      "chip": "ym2612"
    },
    {
      "channel": 0,
      "note": 45,
      "start": 18.3977,
      "duration": 0.0161,
      "velocity": 115,
      "chip": "ym2612"
    },
    {
      "channel": 4,
      "note": 61,
      "start": 18.3988,
      "duration": 0.0161,
      "velocity": 101,
      "chip": "ym2612"
    },
    {
      "channel": 3,
      "note": 64,
      "start": 18.4,
      "duration": 0.0161,
      "velocity": 101,
      "chip": "ym2612"
    },
    {
      "channel": 1,
      "note": 69,
      "start": 18.4022,
      "duration": 0.0161,
      "velocity": 101,
      "chip": "ym2612"
    },
    {
      "channel": 0,
      "note": 45,
      "start": 18.4138,
      "duration": 0.0161,
      "velocity": 115,
      "chip": "ym2612"
    },
    {
      "channel": 4,
      "note": 61,
      "start": 18.4149,
      "duration": 0.0161,
      "velocity": 101,
      "chip": "ym2612"
    },
    {
      "channel": 3,
      "note": 64,
      "start": 18.4161,
      "duration": 0.0161,
      "velocity": 101,
      "chip": "ym2612"
    },
    {
      "channel": 1,
      "note": 69,
      "start": 18.4183,
      "duration": 0.0161,
      "velocity": 101,
      "chip": "ym2612"
    },
    {
      "channel": 0,
      "note": 46,
      "start": 18.4299,
      "duration": 0.0161,
      "velocity": 115,
      "chip": "ym2612"
    },
    {
      "channel": 4,
      "note": 61,
      "start": 18.431,
      "duration": 0.0161,
      "velocity": 101,
      "chip": "ym2612"
    },
    {
      "channel": 3,
      "note": 64,
      "start": 18.4322,
      "duration": 0.0161,
      "velocity": 101,
      "chip": "ym2612"
    },
    {
      "channel": 1,
      "note": 69,
      "start": 18.4344,
      "duration": 0.0161,
      "velocity": 101,
      "chip": "ym2612"
    },
    {
      "channel": 0,
      "note": 46,
      "start": 18.4459,
      "duration": 0.0162,
      "velocity": 115,
      "chip": "ym2612"
    },
    {
      "channel": 4,
      "note": 61,
      "start": 18.4471,
      "duration": 0.0161,
      "velocity": 101,
      "chip": "ym2612"
    },
    {
      "channel": 3,
      "note": 64,
      "start": 18.4482,
      "duration": 0.0162,
      "velocity": 101,
      "chip": "ym2612"
    },
    {
      "channel": 1,
      "note": 69,
      "start": 18.4505,
      "duration": 0.0162,
      "velocity": 101,
      "chip": "ym2612"
    },
    {
      "channel": 0,
      "note": 47,
      "start": 18.4621,
      "duration": 0.016,
      "velocity": 115,
      "chip": "ym2612"
    },
    {
      "channel": 4,
      "note": 61,
      "start": 18.4632,
      "duration": 0.016,
      "velocity": 101,
      "chip": "ym2612"
    },
    {
      "channel": 3,
      "note": 64,
      "start": 18.4644,
      "duration": 0.016,
      "velocity": 101,
      "chip": "ym2612"
    },
    {
      "channel": 1,
      "note": 69,
      "start": 18.4667,
      "duration": 0.016,
      "velocity": 101,
      "chip": "ym2612"
    },
    {
      "channel": 0,
      "note": 47,
      "start": 18.4781,
      "duration": 0.0176,
      "velocity": 115,
      "chip": "ym2612"
    },
    {
      "channel": 4,
      "note": 61,
      "start": 18.4793,
      "duration": 0.0177,
      "velocity": 101,
      "chip": "ym2612"
    },
    {
      "channel": 3,
      "note": 64,
      "start": 18.4804,
      "duration": 0.0177,
      "velocity": 101,
      "chip": "ym2612"
    },
    {
      "channel": 1,
      "note": 69,
      "start": 18.4827,
      "duration": 0.0177,
      "velocity": 101,
      "chip": "ym2612"
    },
    {
      "channel": 0,
      "note": 47,
      "start": 18.4958,
      "duration": 0.0167,
      "velocity": 115,
      "chip": "ym2612"
    },
    {
      "channel": 4,
      "note": 61,
      "start": 18.497,
      "duration": 0.0167,
      "velocity": 101,
      "chip": "ym2612"
    },
    {
      "channel": 3,
      "note": 64,
      "start": 18.4981,
      "duration": 0.0167,
      "velocity": 101,
      "chip": "ym2612"
    },
    {
      "channel": 1,
      "note": 69,
      "start": 18.5004,
      "duration": 0.0167,
      "velocity": 101,
      "chip": "ym2612"
    },
    {
      "channel": 0,
      "note": 48,
      "start": 18.5125,
      "duration": 0.018,
      "velocity": 124,
      "chip": "ym2612"
    },
    {
      "channel": 4,
      "note": 61,
      "start": 18.5136,
      "duration": 0.0181,
      "velocity": 101,
      "chip": "ym2612"
    },
    {
      "channel": 3,
      "note": 64,
      "start": 18.5148,
      "duration": 0.0181,
      "velocity": 101,
      "chip": "ym2612"
    },
    {
      "channel": 1,
      "note": 69,
      "start": 18.5171,
      "duration": 0.0181,
      "velocity": 101,
      "chip": "ym2612"
    },
    {
      "channel": 0,
      "note": 84,
      "start": 18.5306,
      "duration": 0.0124,
      "velocity": 124,
      "chip": "ym2612"
    },
    {
      "channel": 4,
      "note": 61,
      "start": 18.5317,
      "duration": 0.0124,
      "velocity": 101,
      "chip": "ym2612"
    },
    {
      "channel": 3,
      "note": 64,
      "start": 18.5329,
      "duration": 0.0124,
      "velocity": 101,
      "chip": "ym2612"
    },
    {
      "channel": 1,
      "note": 69,
      "start": 18.5351,
      "duration": 0.0124,
      "velocity": 101,
      "chip": "ym2612"
    },
    {
      "channel": 0,
      "note": 82,
      "start": 18.543,
      "duration": 0.0184,
      "velocity": 124,
      "chip": "ym2612"
    },
    {
      "channel": 4,
      "note": 61,
      "start": 18.5441,
      "duration": 0.0185,
      "velocity": 101,
      "chip": "ym2612"
    },
    {
      "channel": 3,
      "note": 64,
      "start": 18.5453,
      "duration": 0.0184,
      "velocity": 101,
      "chip": "ym2612"
    },
    {
      "channel": 1,
      "note": 69,
      "start": 18.5476,
      "duration": 0.0184,
      "velocity": 101,
      "chip": "ym2612"
    },
    {
      "channel": 0,
      "note": 80,
      "start": 18.5614,
      "duration": 0.0161,
      "velocity": 124,
      "chip": "ym2612"
    },
    {
      "channel": 4,
      "note": 61,
      "start": 18.5626,
      "duration": 0.0161,
      "velocity": 101,
      "chip": "ym2612"
    },
    {
      "channel": 3,
      "note": 64,
      "start": 18.5637,
      "duration": 0.0161,
      "velocity": 101,
      "chip": "ym2612"
    },
    {
      "channel": 1,
      "note": 69,
      "start": 18.566,
      "duration": 0.0161,
      "velocity": 101,
      "chip": "ym2612"
    },
    {
      "channel": 0,
      "note": 77,
      "start": 18.5775,
      "duration": 0.0134,
      "velocity": 124,
      "chip": "ym2612"
    },
    {
      "channel": 4,
      "note": 61,
      "start": 18.5786,
      "duration": 0.0158,
      "velocity": 101,
      "chip": "ym2612"
    },
    {
      "channel": 3,
      "note": 64,
      "start": 18.5798,
      "duration": 0.0158,
      "velocity": 101,
      "chip": "ym2612"
    },
    {
      "channel": 1,
      "note": 69,
      "start": 18.5821,
      "duration": 0.0158,
      "velocity": 101,
      "chip": "ym2612"
    },
    {
      "channel": 0,
      "note": 75,
      "start": 18.5909,
      "duration": 0.0161,
      "velocity": 124,
      "chip": "ym2612"
    },
    {
      "channel": 4,
      "note": 61,
      "start": 18.5944,
      "duration": 0.0141,
      "velocity": 101,
      "chip": "ym2612"
    },
    {
      "channel": 3,
      "note": 64,
      "start": 18.5956,
      "duration": 0.0141,
      "velocity": 101,
      "chip": "ym2612"
    },
    {
      "channel": 1,
      "note": 69,
      "start": 18.5979,
      "duration": 0.014,
      "velocity": 101,
      "chip": "ym2612"
    },
    {
      "channel": 0,
      "note": 72,
      "start": 18.607,
      "duration": 0.0161,
      "velocity": 124,
      "chip": "ym2612"
    },
    {
      "channel": 4,
      "note": 61,
      "start": 18.6085,
      "duration": 0.0157,
      "velocity": 101,
      "chip": "ym2612"
    },
    {
      "channel": 3,
      "note": 64,
      "start": 18.6096,
      "duration": 0.0185,
      "velocity": 101,
      "chip": "ym2612"
    },
    {
      "channel": 1,
      "note": 69,
      "start": 18.6119,
      "duration": 0.0185,
      "velocity": 101,
      "chip": "ym2612"
    },
    {
      "channel": 0,
      "note": 70,
      "start": 18.6231,
      "duration": 0.0161,
      "velocity": 124,
      "chip": "ym2612"
    },
    {
      "channel": 4,
      "note": 61,
      "start": 18.6242,
      "duration": 0.0162,
      "velocity": 101,
      "chip": "ym2612"
    },
    {
      "channel": 3,
      "note": 64,
      "start": 18.6281,
      "duration": 0.0161,
      "velocity": 101,
      "chip": "ym2612"
    },
    {
      "channel": 1,
      "note": 69,
      "start": 18.6304,
      "duration": 0.0162,
      "velocity": 101,
      "chip": "ym2612"
    },
    {
      "channel": 0,
      "note": 68,
      "start": 18.6391,
      "duration": 0.0161,
      "velocity": 124,
      "chip": "ym2612"
    },
    {
      "channel": 4,
      "note": 61,
      "start": 18.6404,
      "duration": 0.0161,
      "velocity": 101,
      "chip": "ym2612"
    },
    {
      "channel": 3,
      "note": 64,
      "start": 18.6442,
      "duration": 0.0134,
      "velocity": 101,
      "chip": "ym2612"
    },
    {
      "channel": 1,
      "note": 69,
      "start": 18.6465,
      "duration": 0.0157,
      "velocity": 101,
      "chip": "ym2612"
    },
    {
      "channel": 0,
      "note": 65,
      "start": 18.6552,
      "duration": 0.0162,
      "velocity": 124,
      "chip": "ym2612"
    },
    {
      "channel": 4,
      "note": 61,
      "start": 18.6564,
      "duration": 0.0161,
      "velocity": 101,
      "chip": "ym2612"
    },
    {
      "channel": 3,
      "note": 64,
      "start": 18.6576,
      "duration": 0.0161,
      "velocity": 101,
      "chip": "ym2612"
    },
    {
      "channel": 1,
      "note": 69,
      "start": 18.6622,
      "duration": 0.0141,
      "velocity": 101,
      "chip": "ym2612"
    },
    {
      "channel": 0,
      "note": 63,
      "start": 18.6714,
      "duration": 0.0153,
      "velocity": 1,
      "chip": "ym2612"
    },
    {
      "channel": 4,
      "note": 61,
      "start": 18.6725,
      "duration": 0.0153,
      "velocity": 101,
      "chip": "ym2612"
    },
    {
      "channel": 3,
      "note": 64,
      "start": 18.6737,
      "duration": 0.0153,
      "velocity": 101,
      "chip": "ym2612"
    },
    {
      "channel": 1,
      "note": 69,
      "start": 18.6763,
      "duration": 0.0177,
      "velocity": 101,
      "chip": "ym2612"
    },
    {
      "channel": 4,
      "note": 61,
      "start": 18.6878,
      "duration": 0.0153,
      "velocity": 101,
      "chip": "ym2612"
    },
    {
      "channel": 3,
      "note": 64,
      "start": 18.689,
      "duration": 0.0153,
      "velocity": 101,
      "chip": "ym2612"
    },
    {
      "channel": 1,
      "note": 69,
      "start": 18.694,
      "duration": 0.0125,
      "velocity": 101,
      "chip": "ym2612"
    },
    {
      "channel": 4,
      "note": 61,
      "start": 18.7031,
      "duration": 0.0161,
      "velocity": 101,
      "chip": "ym2612"
    },
    {
      "channel": 3,
      "note": 64,
      "start": 18.7042,
      "duration": 0.0161,
      "velocity": 101,
      "chip": "ym2612"
    },
    {
      "channel": 1,
      "note": 69,
      "start": 18.7065,
      "duration": 0.0161,
      "velocity": 101,
      "chip": "ym2612"
    },
    {
      "channel": 4,
      "note": 61,
      "start": 18.7192,
      "duration": 0.0161,
      "velocity": 101,
      "chip": "ym2612"
    },
    {
      "channel": 3,
      "note": 64,
      "start": 18.7203,
      "duration": 0.0161,
      "velocity": 101,
      "chip": "ym2612"
    },
    {
      "channel": 1,
      "note": 69,
      "start": 18.7226,
      "duration": 0.0161,
      "velocity": 101,
      "chip": "ym2612"
    },
    {
      "channel": 4,
      "note": 61,
      "start": 18.7353,
      "duration": 0.0198,
      "velocity": 101,
      "chip": "ym2612"
    },
    {
      "channel": 3,
      "note": 64,
      "start": 18.7364,
      "duration": 0.02,
      "velocity": 101,
      "chip": "ym2612"
    },
    {
      "channel": 1,
      "note": 69,
      "start": 18.7387,
      "duration": 0.023,
      "velocity": 101,
      "chip": "ym2612"
    },
    {
      "channel": 0,
      "note": 36,
      "start": 18.7537,
      "duration": 0.0144,
      "velocity": 115,
      "chip": "ym2612"
    },
    {
      "channel": 4,
      "note": 61,
      "start": 18.7551,
      "duration": 0.0141,
      "velocity": 101,
      "chip": "ym2612"
    },
    {
      "channel": 3,
      "note": 64,
      "start": 18.7565,
      "duration": 0.0139,
      "velocity": 101,
      "chip": "ym2612"
    },
    {
      "channel": 1,
      "note": 69,
      "start": 18.7618,
      "duration": 0.011,
      "velocity": 101,
      "chip": "ym2612"
    },
    {
      "channel": 0,
      "note": 36,
      "start": 18.768,
      "duration": 0.016,
      "velocity": 115,
      "chip": "ym2612"
    },
    {
      "channel": 4,
      "note": 61,
      "start": 18.7692,
      "duration": 0.016,
      "velocity": 101,
      "chip": "ym2612"
    },
    {
      "channel": 3,
      "note": 64,
      "start": 18.7704,
      "duration": 0.0159,
      "velocity": 101,
      "chip": "ym2612"
    },
    {
      "channel": 1,
      "note": 69,
      "start": 18.7728,
      "duration": 0.0159,
      "velocity": 101,
      "chip": "ym2612"
    },
    {
      "channel": 0,
      "note": 37,
      "start": 18.7841,
      "duration": 0.0161,
      "velocity": 115,
      "chip": "ym2612"
    },
    {
      "channel": 4,
      "note": 61,
      "start": 18.7852,
      "duration": 0.0162,
      "velocity": 101,
      "chip": "ym2612"
    },
    {
      "channel": 3,
      "note": 64,
      "start": 18.7863,
      "duration": 0.0161,
      "velocity": 101,
      "chip": "ym2612"
    },
    {
      "channel": 1,
      "note": 69,
      "start": 18.7886,
      "duration": 0.0161,
      "velocity": 101,
      "chip": "ym2612"
    },
    {
      "channel": 0,
      "note": 37,
      "start": 18.8002,
      "duration": 0.0161,
      "velocity": 115,
      "chip": "ym2612"
    },
    {
      "channel": 4,
      "note": 61,
      "start": 18.8014,
      "duration": 0.0161,
      "velocity": 101,
      "chip": "ym2612"
    },
    {
      "channel": 3,
      "note": 64,
      "start": 18.8025,
      "duration": 0.0161,
      "velocity": 101,
      "chip": "ym2612"
    },
    {
      "channel": 1,
      "note": 69,
      "start": 18.8047,
      "duration": 0.0161,
      "velocity": 101,
      "chip": "ym2612"
    },
    {
      "channel": 0,
      "note": 38,
      "start": 18.8162,
      "duration": 0.0162,
      "velocity": 115,
      "chip": "ym2612"
    },
    {
      "channel": 4,
      "note": 61,
      "start": 18.8175,
      "duration": 0.0161,
      "velocity": 101,
      "chip": "ym2612"
    },
    {
      "channel": 3,
      "note": 64,
      "start": 18.8186,
      "duration": 0.0161,
      "velocity": 101,
      "chip": "ym2612"
    },
    {
      "channel": 1,
      "note": 69,
      "start": 18.8208,
      "duration": 0.0162,
      "velocity": 101,
      "chip": "ym2612"
    },
    {
      "channel": 0,
      "note": 38,
      "start": 18.8324,
      "duration": 0.0161,
      "velocity": 115,
      "chip": "ym2612"
    },
    {
      "channel": 4,
      "note": 61,
      "start": 18.8335,
      "duration": 0.0161,
      "velocity": 101,
      "chip": "ym2612"
    },
    {
      "channel": 3,
      "note": 64,
      "start": 18.8347,
      "duration": 0.0161,
      "velocity": 101,
      "chip": "ym2612"
    },
    {
      "channel": 1,
      "note": 69,
      "start": 18.837,
      "duration": 0.0161,
      "velocity": 101,
      "chip": "ym2612"
    },
    {
      "channel": 0,
      "note": 39,
      "start": 18.8485,
      "duration": 0.0161,
      "velocity": 115,
      "chip": "ym2612"
    },
    {
      "channel": 4,
      "note": 61,
      "start": 18.8496,
      "duration": 0.0161,
      "velocity": 101,
      "chip": "ym2612"
    },
    {
      "channel": 3,
      "note": 64,
      "start": 18.8508,
      "duration": 0.0161,
      "velocity": 101,
      "chip": "ym2612"
    },
    {
      "channel": 1,
      "note": 69,
      "start": 18.8531,
      "duration": 0.0161,
      "velocity": 101,
      "chip": "ym2612"
    },
    {
      "channel": 0,
      "note": 39,
      "start": 18.8646,
      "duration": 0.0161,
      "velocity": 115,
      "chip": "ym2612"
    },
    {
      "channel": 4,
      "note": 61,
      "start": 18.8657,
      "duration": 0.0161,
      "velocity": 101,
      "chip": "ym2612"
    },
    {
      "channel": 3,
      "note": 64,
      "start": 18.8669,
      "duration": 0.0161,
      "velocity": 101,
      "chip": "ym2612"
    },
    {
      "channel": 1,
      "note": 69,
      "start": 18.8692,
      "duration": 0.0161,
      "velocity": 101,
      "chip": "ym2612"
    },
    {
      "channel": 0,
      "note": 40,
      "start": 18.8807,
      "duration": 0.0161,
      "velocity": 115,
      "chip": "ym2612"
    },
    {
      "channel": 4,
      "note": 61,
      "start": 18.8818,
      "duration": 0.0161,
      "velocity": 101,
      "chip": "ym2612"
    },
    {
      "channel": 3,
      "note": 64,
      "start": 18.883,
      "duration": 0.0161,
      "velocity": 101,
      "chip": "ym2612"
    },
    {
      "channel": 1,
      "note": 69,
      "start": 18.8853,
      "duration": 0.0161,
      "velocity": 101,
      "chip": "ym2612"
    },
    {
      "channel": 0,
      "note": 40,
      "start": 18.8968,
      "duration": 0.0161,
      "velocity": 115,
      "chip": "ym2612"
    },
    {
      "channel": 4,
      "note": 61,
      "start": 18.8979,
      "duration": 0.0161,
      "velocity": 101,
      "chip": "ym2612"
    },
    {
      "channel": 3,
      "note": 64,
      "start": 18.8991,
      "duration": 0.0161,
      "velocity": 101,
      "chip": "ym2612"
    },
    {
      "channel": 1,
      "note": 69,
      "start": 18.9014,
      "duration": 0.0161,
      "velocity": 101,
      "chip": "ym2612"
    },
    {
      "channel": 0,
      "note": 40,
      "start": 18.9129,
      "duration": 0.0161,
      "velocity": 115,
      "chip": "ym2612"
    },
    {
      "channel": 4,
      "note": 61,
      "start": 18.914,
      "duration": 0.0162,
      "velocity": 101,
      "chip": "ym2612"
    },
    {
      "channel": 3,
      "note": 64,
      "start": 18.9152,
      "duration": 0.0161,
      "velocity": 101,
      "chip": "ym2612"
    },
    {
      "channel": 1,
      "note": 69,
      "start": 18.9175,
      "duration": 0.0161,
      "velocity": 101,
      "chip": "ym2612"
    },
    {
      "channel": 0,
      "note": 41,
      "start": 18.929,
      "duration": 0.016,
      "velocity": 115,
      "chip": "ym2612"
    },
    {
      "channel": 4,
      "note": 61,
      "start": 18.9302,
      "duration": 0.016,
      "velocity": 101,
      "chip": "ym2612"
    },
    {
      "channel": 3,
      "note": 64,
      "start": 18.9313,
      "duration": 0.016,
      "velocity": 101,
      "chip": "ym2612"
    },
    {
      "channel": 1,
      "note": 69,
      "start": 18.9336,
      "duration": 0.016,
      "velocity": 101,
      "chip": "ym2612"
    },
    {
      "channel": 0,
      "note": 41,
      "start": 18.9451,
      "duration": 0.0174,
      "velocity": 115,
      "chip": "ym2612"
    },
    {
      "channel": 4,
      "note": 61,
      "start": 18.9462,
      "duration": 0.0174,
      "velocity": 101,
      "chip": "ym2612"
    },
    {
      "channel": 3,
      "note": 64,
      "start": 18.9473,
      "duration": 0.0174,
      "velocity": 101,
      "chip": "ym2612"
    },
    {
      "channel": 1,
      "note": 69,
      "start": 18.9496,
      "duration": 0.0174,
      "velocity": 101,
      "chip": "ym2612"
    },
    {
      "channel": 0,
      "note": 42,
      "start": 18.9625,
      "duration": 0.0167,
      "velocity": 115,
      "chip": "ym2612"
    },
    {
      "channel": 4,
      "note": 61,
      "start": 18.9636,
      "duration": 0.0167,
      "velocity": 101,
      "chip": "ym2612"
    },
    {
      "channel": 3,
      "note": 64,
      "start": 18.9648,
      "duration": 0.0167,
      "velocity": 101,
      "chip": "ym2612"
    },
    {
      "channel": 1,
      "note": 69,
      "start": 18.9671,
      "duration": 0.0167,
      "velocity": 101,
      "chip": "ym2612"
    },
    {
      "channel": 0,
      "note": 42,
      "start": 18.9792,
      "duration": 0.0163,
      "velocity": 115,
      "chip": "ym2612"
    },
    {
      "channel": 4,
      "note": 61,
      "start": 18.9803,
      "duration": 0.0163,
      "velocity": 101,
      "chip": "ym2612"
    },
    {
      "channel": 3,
      "note": 64,
      "start": 18.9815,
      "duration": 0.0163,
      "velocity": 101,
      "chip": "ym2612"
    },
    {
      "channel": 1,
      "note": 69,
      "start": 18.9837,
      "duration": 0.0163,
      "velocity": 101,
      "chip": "ym2612"
    },
    {
      "channel": 0,
      "note": 43,
      "start": 18.9954,
      "duration": 0.0144,
      "velocity": 115,
      "chip": "ym2612"
    },
    {
      "channel": 4,
      "note": 61,
      "start": 18.9966,
      "duration": 0.0144,
      "velocity": 101,
      "chip": "ym2612"
    },
    {
      "channel": 3,
      "note": 64,
      "start": 18.9977,
      "duration": 0.0144,
      "velocity": 101,
      "chip": "ym2612"
    },
    {
      "channel": 1,
      "note": 69,
      "start": 19.0,
      "duration": 0.0144,
      "velocity": 101,
      "chip": "ym2612"
    },
    {
      "channel": 0,
      "note": 43,
      "start": 19.0098,
      "duration": 0.0185,
      "velocity": 115,
      "chip": "ym2612"
    },
    {
      "channel": 4,
      "note": 61,
      "start": 19.011,
      "duration": 0.0185,
      "velocity": 101,
      "chip": "ym2612"
    },
    {
      "channel": 3,
      "note": 64,
      "start": 19.0121,
      "duration": 0.0185,
      "velocity": 101,
      "chip": "ym2612"
    },
    {
      "channel": 1,
      "note": 69,
      "start": 19.0144,
      "duration": 0.0185,
      "velocity": 101,
      "chip": "ym2612"
    },
    {
      "channel": 0,
      "note": 44,
      "start": 19.0283,
      "duration": 0.0161,
      "velocity": 115,
      "chip": "ym2612"
    },
    {
      "channel": 4,
      "note": 61,
      "start": 19.0295,
      "duration": 0.0161,
      "velocity": 101,
      "chip": "ym2612"
    },
    {
      "channel": 3,
      "note": 64,
      "start": 19.0306,
      "duration": 0.0161,
      "velocity": 101,
      "chip": "ym2612"
    },
    {
      "channel": 1,
      "note": 69,
      "start": 19.0329,
      "duration": 0.0161,
      "velocity": 101,
      "chip": "ym2612"
    },
    {
      "channel": 0,
      "note": 44,
      "start": 19.0444,
      "duration": 0.0157,
      "velocity": 115,
      "chip": "ym2612"
    },
    {
      "channel": 4,
      "note": 61,
      "start": 19.0456,
      "duration": 0.0158,
      "velocity": 101,
      "chip": "ym2612"
    },
    {
      "channel": 3,
      "note": 64,
      "start": 19.0467,
      "duration": 0.0158,
      "velocity": 101,
      "chip": "ym2612"
    },
    {
      "channel": 1,
      "note": 69,
      "start": 19.049,
      "duration": 0.0158,
      "velocity": 101,
      "chip": "ym2612"
    },
    {
      "channel": 0,
      "note": 44,
      "start": 19.0601,
      "duration": 0.0137,
      "velocity": 115,
      "chip": "ym2612"
    },
    {
      "channel": 4,
      "note": 61,
      "start": 19.0613,
      "duration": 0.014,
      "velocity": 101,
      "chip": "ym2612"
    },
    {
      "channel": 3,
      "note": 64,
      "start": 19.0625,
      "duration": 0.014,
      "velocity": 101,
      "chip": "ym2612"
    },
    {
      "channel": 1,
      "note": 69,
      "start": 19.0648,
      "duration": 0.014,
      "velocity": 101,
      "chip": "ym2612"
    },
    {
      "channel": 0,
      "note": 45,
      "start": 19.0739,
      "duration": 0.0161,
      "velocity": 115,
      "chip": "ym2612"
    },
    {
      "channel": 4,
      "note": 61,
      "start": 19.0754,
      "duration": 0.0186,
      "velocity": 101,
      "chip": "ym2612"
    },
    {
      "channel": 3,
      "note": 64,
      "start": 19.0765,
      "duration": 0.0186,
      "velocity": 101,
      "chip": "ym2612"
    },
    {
      "channel": 1,
      "note": 69,
      "start": 19.0788,
      "duration": 0.0185,
      "velocity": 101,
      "chip": "ym2612"
    },
    {
      "channel": 0,
      "note": 45,
      "start": 19.09,
      "duration": 0.0161,
      "velocity": 115,
      "chip": "ym2612"
    },
    {
      "channel": 4,
      "note": 61,
      "start": 19.0939,
      "duration": 0.0134,
      "velocity": 101,
      "chip": "ym2612"
    },
    {
      "channel": 3,
      "note": 64,
      "start": 19.0951,
      "duration": 0.0161,
      "velocity": 101,
      "chip": "ym2612"
    },
    {
      "channel": 1,
      "note": 69,
      "start": 19.0973,
      "duration": 0.0162,
      "velocity": 101,
      "chip": "ym2612"
    },
    {
      "channel": 0,
      "note": 46,
      "start": 19.1061,
      "duration": 0.0162,
      "velocity": 115,
      "chip": "ym2612"
    },
    {
      "channel": 4,
      "note": 61,
      "start": 19.1073,
      "duration": 0.0161,
      "velocity": 101,
      "chip": "ym2612"
    },
    {
      "channel": 3,
      "note": 64,
      "start": 19.1112,
      "duration": 0.0157,
      "velocity": 101,
      "chip": "ym2612"
    },
    {
      "channel": 1,
      "note": 69,
      "start": 19.1134,
      "duration": 0.0157,
      "velocity": 101,
      "chip": "ym2612"
    },
    {
      "channel": 0,
      "note": 46,
      "start": 19.1222,
      "duration": 0.0161,
      "velocity": 115,
      "chip": "ym2612"
    },
    {
      "channel": 4,
      "note": 61,
      "start": 19.1234,
      "duration": 0.0161,
      "velocity": 101,
      "chip": "ym2612"
    },
    {
      "channel": 3,
      "note": 64,
      "start": 19.1269,
      "duration": 0.0137,
      "velocity": 101,
      "chip": "ym2612"
    },
    {
      "channel": 1,
      "note": 69,
      "start": 19.1292,
      "duration": 0.0141,
      "velocity": 101,
      "chip": "ym2612"
    },
    {
      "channel": 0,
      "note": 47,
      "start": 19.1383,
      "duration": 0.0161,
      "velocity": 115,
      "chip": "ym2612"
    },
    {
      "channel": 4,
      "note": 61,
      "start": 19.1395,
      "duration": 0.0161,
      "velocity": 101,
      "chip": "ym2612"
    },
    {
      "channel": 3,
      "note": 64,
      "start": 19.1406,
      "duration": 0.0161,
      "velocity": 101,
      "chip": "ym2612"
    },
    {
      "channel": 1,
      "note": 69,
      "start": 19.1432,
      "duration": 0.0185,
      "velocity": 101,
      "chip": "ym2612"
    },
    {
      "channel": 0,
      "note": 47,
      "start": 19.1544,
      "duration": 0.0161,
      "velocity": 115,
      "chip": "ym2612"
    },
    {
      "channel": 4,
      "note": 61,
      "start": 19.1556,
      "duration": 0.0161,
      "velocity": 101,
      "chip": "ym2612"
    },
    {
      "channel": 3,
      "note": 64,
      "start": 19.1567,
      "duration": 0.0161,
      "velocity": 101,
      "chip": "ym2612"
    },
    {
      "channel": 1,
      "note": 69,
      "start": 19.1617,
      "duration": 0.0161,
      "velocity": 101,
      "chip": "ym2612"
    },
    {
      "channel": 0,
      "note": 47,
      "start": 19.1705,
      "duration": 0.0161,
      "velocity": 115,
      "chip": "ym2612"
    },
    {
      "channel": 4,
      "note": 61,
      "start": 19.1717,
      "duration": 0.0161,
      "velocity": 101,
      "chip": "ym2612"
    },
    {
      "channel": 3,
      "note": 64,
      "start": 19.1728,
      "duration": 0.0161,
      "velocity": 101,
      "chip": "ym2612"
    },
    {
      "channel": 1,
      "note": 69,
      "start": 19.1778,
      "duration": 0.0157,
      "velocity": 101,
      "chip": "ym2612"
    },
    {
      "channel": 0,
      "note": 48,
      "start": 19.1866,
      "duration": 0.0179,
      "velocity": 115,
      "chip": "ym2612"
    },
    {
      "channel": 4,
      "note": 61,
      "start": 19.1878,
      "duration": 0.0179,
      "velocity": 101,
      "chip": "ym2612"
    },
    {
      "channel": 3,
      "note": 64,
      "start": 19.1889,
      "duration": 0.0179,
      "velocity": 101,
      "chip": "ym2612"
    },
    {
      "channel": 1,
      "note": 69,
      "start": 19.1935,
      "duration": 0.0158,
      "velocity": 101,
      "chip": "ym2612"
    },
    {
      "channel": 0,
      "note": 36,
      "start": 19.2045,
      "duration": 0.0144,
      "velocity": 115,
      "chip": "ym2612"
    },
    {
      "channel": 4,
      "note": 61,
      "start": 19.2057,
      "duration": 0.0143,
      "velocity": 101,
      "chip": "ym2612"
    },
    {
      "channel": 3,
      "note": 64,
      "start": 19.2068,
      "duration": 0.0143,
      "velocity": 101,
      "chip": "ym2612"
    },
    {
      "channel": 1,
      "note": 69,
      "start": 19.2094,
      "duration": 0.0141,
      "velocity": 101,
      "chip": "ym2612"
    },
    {
      "channel": 0,
      "note": 36,
      "start": 19.2188,
      "duration": 0.016,
      "velocity": 115,
      "chip": "ym2612"
    },
    {
      "channel": 4,
      "note": 61,
      "start": 19.22,
      "duration": 0.0161,
      "velocity": 101,
      "chip": "ym2612"
    },
    {
      "channel": 3,
      "note": 64,
      "start": 19.2211,
      "duration": 0.0161,
      "velocity": 101,
      "chip": "ym2612"
    },
    {
      "channel": 1,
      "note": 69,
      "start": 19.2234,
      "duration": 0.016,
      "velocity": 101,
      "chip": "ym2612"
    },
    {
      "channel": 0,
      "note": 37,
      "start": 19.2349,
      "duration": 0.0161,
      "velocity": 115,
      "chip": "ym2612"
    },
    {
      "channel": 4,
      "note": 61,
      "start": 19.2361,
      "duration": 0.0161,
      "velocity": 101,
      "chip": "ym2612"
    },
    {
      "channel": 3,
      "note": 64,
      "start": 19.2372,
      "duration": 0.0161,
      "velocity": 101,
      "chip": "ym2612"
    },
    {
      "channel": 1,
      "note": 69,
      "start": 19.2395,
      "duration": 0.0161,
      "velocity": 101,
      "chip": "ym2612"
    },
    {
      "channel": 0,
      "note": 37,
      "start": 19.251,
      "duration": 0.0161,
      "velocity": 115,
      "chip": "ym2612"
    },
    {
      "channel": 4,
      "note": 61,
      "start": 19.2522,
      "duration": 0.0161,
      "velocity": 101,
      "chip": "ym2612"
    },
    {
      "channel": 3,
      "note": 64,
      "start": 19.2533,
      "duration": 0.0161,
      "velocity": 101,
      "chip": "ym2612"
    },
    {
      "channel": 1,
      "note": 69,
      "start": 19.2556,
      "duration": 0.0162,
      "velocity": 101,
      "chip": "ym2612"
    },
    {
      "channel": 0,
      "note": 38,
      "start": 19.2671,
      "duration": 0.0161,
      "velocity": 115,
      "chip": "ym2612"
    },
    {
      "channel": 4,
      "note": 61,
      "start": 19.2683,
      "duration": 0.0161,
      "velocity": 101,
      "chip": "ym2612"
    },
    {
      "channel": 3,
      "note": 64,
      "start": 19.2694,
      "duration": 0.0161,
      "velocity": 101,
      "chip": "ym2612"
    },
    {
      "channel": 1,
      "note": 69,
      "start": 19.2717,
      "duration": 0.0161,
      "velocity": 101,
      "chip": "ym2612"
    },
    {
      "channel": 0,
      "note": 38,
      "start": 19.2832,
      "duration": 0.0161,
      "velocity": 115,
      "chip": "ym2612"
    },
    {
      "channel": 4,
      "note": 61,
      "start": 19.2844,
      "duration": 0.0161,
      "velocity": 101,
      "chip": "ym2612"
    },
    {
      "channel": 3,
      "note": 64,
      "start": 19.2855,
      "duration": 0.0161,
      "velocity": 101,
      "chip": "ym2612"
    },
    {
      "channel": 1,
      "note": 69,
      "start": 19.2878,
      "duration": 0.0161,
      "velocity": 101,
      "chip": "ym2612"
    },
    {
      "channel": 0,
      "note": 39,
      "start": 19.2993,
      "duration": 0.0161,
      "velocity": 115,
      "chip": "ym2612"
    },
    {
      "channel": 4,
      "note": 61,
      "start": 19.3005,
      "duration": 0.0161,
      "velocity": 101,
      "chip": "ym2612"
    },
    {
      "channel": 3,
      "note": 64,
      "start": 19.3016,
      "duration": 0.0161,
      "velocity": 101,
      "chip": "ym2612"
    },
    {
      "channel": 1,
      "note": 69,
      "start": 19.3039,
      "duration": 0.0161,
      "velocity": 101,
      "chip": "ym2612"
    },
    {
      "channel": 0,
      "note": 39,
      "start": 19.3154,
      "duration": 0.0161,
      "velocity": 115,
      "chip": "ym2612"
    },
    {
      "channel": 4,
      "note": 61,
      "start": 19.3166,
      "duration": 0.0161,
      "velocity": 101,
      "chip": "ym2612"
    },
    {
      "channel": 3,
      "note": 64,
      "start": 19.3177,
      "duration": 0.0161,
      "velocity": 101,
      "chip": "ym2612"
    },
    {
      "channel": 1,
      "note": 69,
      "start": 19.32,
      "duration": 0.0161,
      "velocity": 101,
      "chip": "ym2612"
    },
    {
      "channel": 0,
      "note": 40,
      "start": 19.3315,
      "duration": 0.0161,
      "velocity": 115,
      "chip": "ym2612"
    },
    {
      "channel": 4,
      "note": 61,
      "start": 19.3327,
      "duration": 0.0161,
      "velocity": 101,
      "chip": "ym2612"
    },
    {
      "channel": 3,
      "note": 64,
      "start": 19.3338,
      "duration": 0.0161,
      "velocity": 101,
      "chip": "ym2612"
    },
    {
      "channel": 1,
      "note": 69,
      "start": 19.3361,
      "duration": 0.0161,
      "velocity": 101,
      "chip": "ym2612"
    },
    {
      "channel": 0,
      "note": 40,
      "start": 19.3476,
      "duration": 0.0161,
      "velocity": 115,
      "chip": "ym2612"
    },
    {
      "channel": 4,
      "note": 61,
      "start": 19.3488,
      "duration": 0.0161,
      "velocity": 101,
      "chip": "ym2612"
    },
    {
      "channel": 3,
      "note": 64,
      "start": 19.3499,
      "duration": 0.0161,
      "velocity": 101,
      "chip": "ym2612"
    },
    {
      "channel": 1,
      "note": 69,
      "start": 19.3522,
      "duration": 0.0161,
      "velocity": 101,
      "chip": "ym2612"
    },
    {
      "channel": 0,
      "note": 40,
      "start": 19.3637,
      "duration": 0.0161,
      "velocity": 115,
      "chip": "ym2612"
    },
    {
      "channel": 4,
      "note": 61,
      "start": 19.3649,
      "duration": 0.0161,
      "velocity": 101,
      "chip": "ym2612"
    },
    {
      "channel": 3,
      "note": 64,
      "start": 19.366,
      "duration": 0.0161,
      "velocity": 101,
      "chip": "ym2612"
    },
    {
      "channel": 1,
      "note": 69,
      "start": 19.3683,
      "duration": 0.0161,
      "velocity": 101,
      "chip": "ym2612"
    },
    {
      "channel": 0,
      "note": 41,
      "start": 19.3798,
      "duration": 0.0161,
      "velocity": 115,
      "chip": "ym2612"
    },
    {
      "channel": 4,
      "note": 61,
      "start": 19.3809,
      "duration": 0.0162,
      "velocity": 101,
      "chip": "ym2612"
    },
    {
      "channel": 3,
      "note": 64,
      "start": 19.3821,
      "duration": 0.0161,
      "velocity": 101,
      "chip": "ym2612"
    },
    {
      "channel": 1,
      "note": 69,
      "start": 19.3844,
      "duration": 0.0161,
      "velocity": 101,
      "chip": "ym2612"
    },
    {
      "channel": 0,
      "note": 41,
      "start": 19.3959,
      "duration": 0.0161,
      "velocity": 115,
      "chip": "ym2612"
    },
    {
      "channel": 4,
      "note": 61,
      "start": 19.3971,
      "duration": 0.0161,
      "velocity": 101,
      "chip": "ym2612"
    },
    {
      "channel": 3,
      "note": 64,
      "start": 19.3982,
      "duration": 0.0161,
      "velocity": 101,
      "chip": "ym2612"
    },
    {
      "channel": 1,
      "note": 69,
      "start": 19.4005,
      "duration": 0.0161,
      "velocity": 101,
      "chip": "ym2612"
    },
    {
      "channel": 0,
      "note": 42,
      "start": 19.412,
      "duration": 0.0189,
      "velocity": 124,
      "chip": "ym2612"
    },
    {
      "channel": 4,
      "note": 61,
      "start": 19.4132,
      "duration": 0.0189,
      "velocity": 101,
      "chip": "ym2612"
    },
    {
      "channel": 3,
      "note": 64,
      "start": 19.4143,
      "duration": 0.0189,
      "velocity": 101,
      "chip": "ym2612"
    },
    {
      "channel": 1,
      "note": 69,
      "start": 19.4166,
      "duration": 0.019,
      "velocity": 101,
      "chip": "ym2612"
    },
    {
      "channel": 0,
      "note": 84,
      "start": 19.4309,
      "duration": 0.015,
      "velocity": 124,
      "chip": "ym2612"
    },
    {
      "channel": 4,
      "note": 61,
      "start": 19.4321,
      "duration": 0.0149,
      "velocity": 101,
      "chip": "ym2612"
    },
    {
      "channel": 3,
      "note": 64,
      "start": 19.4332,
      "duration": 0.015,
      "velocity": 101,
      "chip": "ym2612"
    },
    {
      "channel": 1,
      "note": 69,
      "start": 19.4355,
      "duration": 0.015,
      "velocity": 101,
      "chip": "ym2612"
    },
    {
      "channel": 0,
      "note": 82,
      "start": 19.4459,
      "duration": 0.0162,
      "velocity": 124,
      "chip": "ym2612"
    },
    {
      "channel": 4,
      "note": 61,
      "start": 19.447,
      "duration": 0.0162,
      "velocity": 101,
      "chip": "ym2612"
    },
    {
      "channel": 3,
      "note": 64,
      "start": 19.4482,
      "duration": 0.0162,
      "velocity": 101,
      "chip": "ym2612"
    },
    {
      "channel": 1,
      "note": 69,
      "start": 19.4505,
      "duration": 0.0162,
      "velocity": 101,
      "chip": "ym2612"
    },
    {
      "channel": 0,
      "note": 80,
      "start": 19.4621,
      "duration": 0.0146,
      "velocity": 124,
      "chip": "ym2612"
    },
    {
      "channel": 4,
      "note": 61,
      "start": 19.4632,
      "duration": 0.0146,
      "velocity": 101,
      "chip": "ym2612"
    },
    {
      "channel": 3,
      "note": 64,
      "start": 19.4644,
      "duration": 0.0146,
      "velocity": 101,
      "chip": "ym2612"
    },
    {
      "channel": 1,
      "note": 69,
      "start": 19.4667,
      "duration": 0.0146,
      "velocity": 101,
      "chip": "ym2612"
    },
    {
      "channel": 0,
      "note": 77,
      "start": 19.4767,
      "duration": 0.0185,
      "velocity": 124,
      "chip": "ym2612"
    },
    {
      "channel": 4,
      "note": 61,
      "start": 19.4779,
      "duration": 0.0185,
      "velocity": 101,
      "chip": "ym2612"
    },
    {
      "channel": 3,
      "note": 64,
      "start": 19.479,
      "duration": 0.0185,
      "velocity": 101,
      "chip": "ym2612"
    },
    {
      "channel": 1,
      "note": 69,
      "start": 19.4813,
      "duration": 0.0185,
      "velocity": 101,
      "chip": "ym2612"
    },
    {
      "channel": 0,
      "note": 75,
      "start": 19.4953,
      "duration": 0.0161,
      "velocity": 124,
      "chip": "ym2612"
    },
    {
      "channel": 4,
      "note": 61,
      "start": 19.4964,
      "duration": 0.0162,
      "velocity": 101,
      "chip": "ym2612"
    },
    {
      "channel": 3,
      "note": 64,
      "start": 19.4976,
      "duration": 0.0161,
      "velocity": 101,
      "chip": "ym2612"
    },
    {
      "channel": 1,
      "note": 69,
      "start": 19.4998,
      "duration": 0.0161,
      "velocity": 101,
      "chip": "ym2612"
    },
    {
      "channel": 0,
      "note": 72,
      "start": 19.5113,
      "duration": 0.0158,
      "velocity": 124,
      "chip": "ym2612"
    },
    {
      "channel": 4,
      "note": 61,
      "start": 19.5126,
      "duration": 0.0157,
      "velocity": 101,
      "chip": "ym2612"
    },
    {
      "channel": 3,
      "note": 64,
      "start": 19.5137,
      "duration": 0.0157,
      "velocity": 101,
      "chip": "ym2612"
    },
    {
      "channel": 1,
      "note": 69,
      "start": 19.516,
      "duration": 0.0157,
      "velocity": 101,
      "chip": "ym2612"
    },
    {
      "channel": 0,
      "note": 70,
      "start": 19.5271,
      "duration": 0.0137,
      "velocity": 124,
      "chip": "ym2612"
    },
    {
      "channel": 4,
      "note": 61,
      "start": 19.5283,
      "duration": 0.0141,
      "velocity": 101,
      "chip": "ym2612"
    },
    {
      "channel": 3,
      "note": 64,
      "start": 19.5294,
      "duration": 0.0141,
      "velocity": 101,
      "chip": "ym2612"
    },
    {
      "channel": 1,
      "note": 69,
      "start": 19.5317,
      "duration": 0.014,
      "velocity": 101,
      "chip": "ym2612"
    },
    {
      "channel": 0,
      "note": 68,
      "start": 19.5408,
      "duration": 0.0161,
      "velocity": 124,
      "chip": "ym2612"
    },
    {
      "channel": 4,
      "note": 61,
      "start": 19.5423,
      "duration": 0.0185,
      "velocity": 101,
      "chip": "ym2612"
    },
    {
      "channel": 3,
      "note": 64,
      "start": 19.5435,
      "duration": 0.0185,
      "velocity": 101,
      "chip": "ym2612"
    },
    {
      "channel": 1,
      "note": 69,
      "start": 19.5457,
      "duration": 0.0186,
      "velocity": 101,
      "chip": "ym2612"
    },
    {
      "channel": 0,
      "note": 65,
      "start": 19.5569,
      "duration": 0.0162,
      "velocity": 124,
      "chip": "ym2612"
    },
    {
      "channel": 4,
      "note": 61,
      "start": 19.5608,
      "duration": 0.0134,
      "velocity": 101,
      "chip": "ym2612"
    },
    {
      "channel": 3,
      "note": 64,
      "start": 19.562,
      "duration": 0.0161,
      "velocity": 101,
      "chip": "ym2612"
    },
    {
      "channel": 1,
      "note": 69,
      "start": 19.5643,
      "duration": 0.0161,
      "velocity": 101,
      "chip": "ym2612"
    },
    {
      "channel": 0,
      "note": 63,
      "start": 19.5731,
      "duration": 0.0153,
      "velocity": 1,
      "chip": "ym2612"
    },
    {
      "channel": 4,
      "note": 61,
      "start": 19.5742,
      "duration": 0.0153,
      "velocity": 101,
      "chip": "ym2612"
    },
    {
      "channel": 3,
      "note": 64,
      "start": 19.5781,
      "duration": 0.0125,
      "velocity": 101,
      "chip": "ym2612"
    },
    {
      "channel": 1,
      "note": 69,
      "start": 19.5804,
      "duration": 0.0149,
      "velocity": 101,
      "chip": "ym2612"
    },
    {
      "channel": 4,
      "note": 61,
      "start": 19.5895,
      "duration": 0.0153,
      "velocity": 101,
      "chip": "ym2612"
    },
    {
      "channel": 3,
      "note": 64,
      "start": 19.5906,
      "duration": 0.0153,
      "velocity": 101,
      "chip": "ym2612"
    },
    {
      "channel": 1,
      "note": 69,
      "start": 19.5953,
      "duration": 0.0132,
      "velocity": 101,
      "chip": "ym2612"
    },
    {
      "channel": 4,
      "note": 61,
      "start": 19.6047,
      "duration": 0.0161,
      "velocity": 101,
      "chip": "ym2612"
    },
    {
      "channel": 3,
      "note": 64,
      "start": 19.6059,
      "duration": 0.0161,
      "velocity": 101,
      "chip": "ym2612"
    },
    {
      "channel": 1,
      "note": 69,
      "start": 19.6085,
      "duration": 0.0158,
      "velocity": 101,
      "chip": "ym2612"
    },
    {
      "channel": 4,
      "note": 61,
      "start": 19.6208,
      "duration": 0.0161,
      "velocity": 101,
      "chip": "ym2612"
    },
    {
      "channel": 3,
      "note": 64,
      "start": 19.622,
      "duration": 0.0161,
      "velocity": 101,
      "chip": "ym2612"
    },
    {
      "channel": 1,
      "note": 69,
      "start": 19.6243,
      "duration": 0.0161,
      "velocity": 101,
      "chip": "ym2612"
    },
    {
      "channel": 4,
      "note": 61,
      "start": 19.6369,
      "duration": 0.0196,
      "velocity": 101,
      "chip": "ym2612"
    },
    {
      "channel": 3,
      "note": 64,
      "start": 19.6381,
      "duration": 0.0196,
      "velocity": 101,
      "chip": "ym2612"
    },
    {
      "channel": 1,
      "note": 69,
      "start": 19.6404,
      "duration": 0.0219,
      "velocity": 101,
      "chip": "ym2612"
    },
    {
      "channel": 0,
      "note": 36,
      "start": 19.6553,
      "duration": 0.0144,
      "velocity": 115,
      "chip": "ym2612"
    },
    {
      "channel": 4,
      "note": 61,
      "start": 19.6565,
      "duration": 0.0143,
      "velocity": 101,
      "chip": "ym2612"
    },
    {
      "channel": 3,
      "note": 64,
      "start": 19.6577,
      "duration": 0.0143,
      "velocity": 101,
      "chip": "ym2612"
    },
    {
      "channel": 1,
      "note": 69,
      "start": 19.6623,
      "duration": 0.012,
      "velocity": 101,
      "chip": "ym2612"
    },
    {
      "channel": 0,
      "note": 36,
      "start": 19.6697,
      "duration": 0.016,
      "velocity": 115,
      "chip": "ym2612"
    },
    {
      "channel": 4,
      "note": 61,
      "start": 19.6708,
      "duration": 0.016,
      "velocity": 101,
      "chip": "ym2612"
    },
    {
      "channel": 3,
      "note": 64,
      "start": 19.672,
      "duration": 0.016,
      "velocity": 101,
      "chip": "ym2612"
    },
    {
      "channel": 1,
      "note": 69,
      "start": 19.6743,
      "duration": 0.016,
      "velocity": 101,
      "chip": "ym2612"
    },
    {
      "channel": 0,
      "note": 37,
      "start": 19.6857,
      "duration": 0.0161,
      "velocity": 115,
      "chip": "ym2612"
    },
    {
      "channel": 4,
      "note": 61,
      "start": 19.6868,
      "duration": 0.0162,
      "velocity": 101,
      "chip": "ym2612"
    },
    {
      "channel": 3,
      "note": 64,
      "start": 19.688,
      "duration": 0.0161,
      "velocity": 101,
      "chip": "ym2612"
    },
    {
      "channel": 1,
      "note": 69,
      "start": 19.6903,
      "duration": 0.0161,
      "velocity": 101,
      "chip": "ym2612"
    },
    {
      "channel": 0,
      "note": 37,
      "start": 19.7018,
      "duration": 0.0161,
      "velocity": 115,
      "chip": "ym2612"
    },
    {
      "channel": 4,
      "note": 61,
      "start": 19.703,
      "duration": 0.0161,
      "velocity": 101,
      "chip": "ym2612"
    },
    {
      "channel": 3,
      "note": 64,
      "start": 19.7041,
      "duration": 0.0161,
      "velocity": 101,
      "chip": "ym2612"
    },
    {
      "channel": 1,
      "note": 69,
      "start": 19.7064,
      "duration": 0.0161,
      "velocity": 101,
      "chip": "ym2612"
    },
    {
      "channel": 0,
      "note": 38,
      "start": 19.7179,
      "duration": 0.0162,
      "velocity": 115,
      "chip": "ym2612"
    },
    {
      "channel": 4,
      "note": 61,
      "start": 19.7191,
      "duration": 0.0161,
      "velocity": 101,
      "chip": "ym2612"
    },
    {
      "channel": 3,
      "note": 64,
      "start": 19.7202,
      "duration": 0.0161,
      "velocity": 101,
      "chip": "ym2612"
    },
    {
      "channel": 1,
      "note": 69,
      "start": 19.7225,
      "duration": 0.0162,
      "velocity": 101,
      "chip": "ym2612"
    },
    {
      "channel": 0,
      "note": 38,
      "start": 19.7341,
      "duration": 0.0161,
      "velocity": 115,
      "chip": "ym2612"
    },
    {
      "channel": 4,
      "note": 61,
      "start": 19.7352,
      "duration": 0.0161,
      "velocity": 101,
      "chip": "ym2612"
    },
    {
      "channel": 3,
      "note": 64,
      "start": 19.7363,
      "duration": 0.0161,
      "velocity": 101,
      "chip": "ym2612"
    },
    {
      "channel": 1,
      "note": 69,
      "start": 19.7386,
      "duration": 0.0161,
      "velocity": 101,
      "chip": "ym2612"
    },
    {
      "channel": 0,
      "note": 39,
      "start": 19.7502,
      "duration": 0.0161,
      "velocity": 115,
      "chip": "ym2612"
    },
    {
      "channel": 4,
      "note": 61,
      "start": 19.7513,
      "duration": 0.0161,
      "velocity": 101,
      "chip": "ym2612"
    },
    {
      "channel": 3,
      "note": 64,
      "start": 19.7524,
      "duration": 0.0161,
      "velocity": 101,
      "chip": "ym2612"
    },
    {
      "channel": 1,
      "note": 69,
      "start": 19.7547,
      "duration": 0.0161,
      "velocity": 101,
      "chip": "ym2612"
    },
    {
      "channel": 0,
      "note": 39,
      "start": 19.7662,
      "duration": 0.0161,
      "velocity": 115,
      "chip": "ym2612"
    },
    {
      "channel": 4,
      "note": 61,
      "start": 19.7674,
      "duration": 0.0161,
      "velocity": 101,
      "chip": "ym2612"
    },
    {
      "channel": 3,
      "note": 64,
      "start": 19.7685,
      "duration": 0.0161,
      "velocity": 101,
      "chip": "ym2612"
    },
    {
      "channel": 1,
      "note": 69,
      "start": 19.7708,
      "duration": 0.0161,
      "velocity": 101,
      "chip": "ym2612"
    },
    {
      "channel": 0,
      "note": 40,
      "start": 19.7823,
      "duration": 0.0161,
      "velocity": 115,
      "chip": "ym2612"
    },
    {
      "channel": 4,
      "note": 61,
      "start": 19.7835,
      "duration": 0.0161,
      "velocity": 101,
      "chip": "ym2612"
    },
    {
      "channel": 3,
      "note": 64,
      "start": 19.7846,
      "duration": 0.0161,
      "velocity": 101,
      "chip": "ym2612"
    },
    {
      "channel": 1,
      "note": 69,
      "start": 19.7869,
      "duration": 0.0161,
      "velocity": 101,
      "chip": "ym2612"
    },
    {
      "channel": 0,
      "note": 40,
      "start": 19.7984,
      "duration": 0.0161,
      "velocity": 115,
      "chip": "ym2612"
    },
    {
      "channel": 4,
      "note": 61,
      "start": 19.7996,
      "duration": 0.0161,
      "velocity": 101,
      "chip": "ym2612"
    },
    {
      "channel": 3,
      "note": 64,
      "start": 19.8007,
      "duration": 0.0161,
      "velocity": 101,
      "chip": "ym2612"
    },
    {
      "channel": 1,
      "note": 69,
      "start": 19.803,
      "duration": 0.0161,
      "velocity": 101,
      "chip": "ym2612"
    },
    {
      "channel": 0,
      "note": 40,
      "start": 19.8145,
      "duration": 0.0161,
      "velocity": 115,
      "chip": "ym2612"
    },
    {
      "channel": 4,
      "note": 61,
      "start": 19.8157,
      "duration": 0.0162,
      "velocity": 101,
      "chip": "ym2612"
    },
    {
      "channel": 3,
      "note": 64,
      "start": 19.8168,
      "duration": 0.0161,
      "velocity": 101,
      "chip": "ym2612"
    },
    {
      "channel": 1,
      "note": 69,
      "start": 19.8191,
      "duration": 0.0161,
      "velocity": 101,
      "chip": "ym2612"
    },
    {
      "channel": 0,
      "note": 41,
      "start": 19.8306,
      "duration": 0.0161,
      "velocity": 115,
      "chip": "ym2612"
    },
    {
      "channel": 4,
      "note": 61,
      "start": 19.8318,
      "duration": 0.0161,
      "velocity": 101,
      "chip": "ym2612"
    },
    {
      "channel": 3,
      "note": 64,
      "start": 19.833,
      "duration": 0.0161,
      "velocity": 101,
      "chip": "ym2612"
    },
    {
      "channel": 1,
      "note": 69,
      "start": 19.8352,
      "duration": 0.0161,
      "velocity": 101,
      "chip": "ym2612"
    },
    {
      "channel": 0,
      "note": 41,
      "start": 19.8467,
      "duration": 0.0162,
      "velocity": 115,
      "chip": "ym2612"
    },
    {
      "channel": 4,
      "note": 61,
      "start": 19.8479,
      "duration": 0.0161,
      "velocity": 101,
      "chip": "ym2612"
    },
    {
      "channel": 3,
      "note": 64,
      "start": 19.8491,
      "duration": 0.0161,
      "velocity": 101,
      "chip": "ym2612"
    },
    {
      "channel": 1,
      "note": 69,
      "start": 19.8513,
      "duration": 0.0162,
      "velocity": 101,
      "chip": "ym2612"
    },
    {
      "channel": 0,
      "note": 42,
      "start": 19.8629,
      "duration": 0.0178,
      "velocity": 115,
      "chip": "ym2612"
    },
    {
      "channel": 4,
      "note": 61,
      "start": 19.864,
      "duration": 0.0181,
      "velocity": 101,
      "chip": "ym2612"
    },
    {
      "channel": 3,
      "note": 64,
      "start": 19.8652,
      "duration": 0.0184,
      "velocity": 101,
      "chip": "ym2612"
    },
    {
      "channel": 1,
      "note": 69,
      "start": 19.8675,
      "duration": 0.0188,
      "velocity": 101,
      "chip": "ym2612"
    },
    {
      "channel": 0,
      "note": 36,
      "start": 19.8807,
      "duration": 0.0151,
      "velocity": 115,
      "chip": "ym2612"
    },
    {
      "channel": 4,
      "note": 54,
      "start": 19.8822,
      "duration": 0.0149,
      "velocity": 101,
      "chip": "ym2612"
    },
    {
      "channel": 3,
      "note": 57,
      "start": 19.8835,
      "duration": 0.0148,
      "velocity": 101,
      "chip": "ym2612"
    },
    {
      "channel": 1,
      "note": 62,
      "start": 19.8863,
      "duration": 0.0144,
      "velocity": 101,
      "chip": "ym2612"
    },
    {
      "channel": 0,
      "note": 36,
      "start": 19.8959,
      "duration": 0.0166,
      "velocity": 115,
      "chip": "ym2612"
    },
    {
      "channel": 4,
      "note": 54,
      "start": 19.8971,
      "duration": 0.0165,
      "velocity": 101,
      "chip": "ym2612"
    },
    {
      "channel": 3,
      "note": 57,
      "start": 19.8983,
      "duration": 0.0165,
      "velocity": 101,
      "chip": "ym2612"
    },
    {
      "channel": 1,
      "note": 62,
      "start": 19.9007,
      "duration": 0.0164,
      "velocity": 101,
      "chip": "ym2612"
    },
    {
      "channel": 0,
      "note": 37,
      "start": 19.9125,
      "duration": 0.0163,
      "velocity": 115,
      "chip": "ym2612"
    },
    {
      "channel": 4,
      "note": 54,
      "start": 19.9136,
      "duration": 0.0163,
      "velocity": 101,
      "chip": "ym2612"
    },
    {
      "channel": 3,
      "note": 57,
      "start": 19.9148,
      "duration": 0.0163,
      "velocity": 101,
      "chip": "ym2612"
    },
    {
      "channel": 1,
      "note": 62,
      "start": 19.9171,
      "duration": 0.0163,
      "velocity": 101,
      "chip": "ym2612"
    },
    {
      "channel": 0,
      "note": 37,
      "start": 19.9288,
      "duration": 0.0147,
      "velocity": 115,
      "chip": "ym2612"
    },
    {
      "channel": 4,
      "note": 54,
      "start": 19.9299,
      "duration": 0.0147,
      "velocity": 101,
      "chip": "ym2612"
    },
    {
      "channel": 3,
      "note": 57,
      "start": 19.9311,
      "duration": 0.0147,
      "velocity": 101,
      "chip": "ym2612"
    },
    {
      "channel": 1,
      "note": 62,
      "start": 19.9334,
      "duration": 0.0147,
      "velocity": 101,
      "chip": "ym2612"
    },
    {
      "channel": 0,
      "note": 38,
      "start": 19.9435,
      "duration": 0.0187,
      "velocity": 115,
      "chip": "ym2612"
    },
    {
      "channel": 4,
      "note": 54,
      "start": 19.9446,
      "duration": 0.0188,
      "velocity": 101,
      "chip": "ym2612"
    },
    {
      "channel": 3,
      "note": 57,
      "start": 19.9458,
      "duration": 0.0188,
      "velocity": 101,
      "chip": "ym2612"
    },
    {
      "channel": 1,
      "note": 62,
      "start": 19.948,
      "duration": 0.0187,
      "velocity": 101,
      "chip": "ym2612"
    },
    {
      "channel": 0,
      "note": 38,
      "start": 19.9622,
      "duration": 0.0161,
      "velocity": 115,
      "chip": "ym2612"
    },
    {
      "channel": 4,
      "note": 54,
      "start": 19.9634,
      "duration": 0.0161,
      "velocity": 101,
      "chip": "ym2612"
    },
    {
      "channel": 3,
      "note": 57,
      "start": 19.9645,
      "duration": 0.0161,
      "velocity": 101,
      "chip": "ym2612"
    },
    {
      "channel": 1,
      "note": 62,
      "start": 19.9668,
      "duration": 0.0161,
      "velocity": 101,
      "chip": "ym2612"
    },
    {
      "channel": 0,
      "note": 39,
      "start": 19.9783,
      "duration": 0.0158,
      "velocity": 115,
      "chip": "ym2612"
    },
    {
      "channel": 4,
      "note": 54,
      "start": 19.9795,
      "duration": 0.0157,
      "velocity": 101,
      "chip": "ym2612"
    },
    {
      "channel": 3,
      "note": 57,
      "start": 19.9806,
      "duration": 0.0157,
      "velocity": 101,
      "chip": "ym2612"
    },
    {
      "channel": 1,
      "note": 62,
      "start": 19.9829,
      "duration": 0.0157,
      "velocity": 101,
      "chip": "ym2612"
    },
    {
      "channel": 0,
      "note": 39,
      "start": 19.994,
      "duration": 0.0138,
      "velocity": 115,
      "chip": "ym2612"
    },
    {
      "channel": 4,
      "note": 54,
      "start": 19.9952,
      "duration": 0.0141,
      "velocity": 101,
      "chip": "ym2612"
    },
    {
      "channel": 3,
      "note": 57,
      "start": 19.9963,
      "duration": 0.0141,
      "velocity": 101,
      "chip": "ym2612"
    },
    {
      "channel": 1,
      "note": 62,
      "start": 19.9986,
      "duration": 0.0141,
      "velocity": 101,
      "chip": "ym2612"
    },
    {
      "channel": 0,
      "note": 40,
      "start": 20.0078,
      "duration": 0.016,
      "velocity": 115,
      "chip": "ym2612"
    },
    {
      "channel": 4,
      "note": 54,
      "start": 20.0093,
      "duration": 0.0185,
      "velocity": 101,
      "chip": "ym2612"
    },
    {
      "channel": 3,
      "note": 57,
      "start": 20.0104,
      "duration": 0.0185,
      "velocity": 101,
      "chip": "ym2612"
    },
    {
      "channel": 1,
      "note": 62,
      "start": 20.0127,
      "duration": 0.0185,
      "velocity": 101,
      "chip": "ym2612"
    },
    {
      "channel": 0,
      "note": 40,
      "start": 20.0239,
      "duration": 0.0161,
      "velocity": 115,
      "chip": "ym2612"
    },
    {
      "channel": 4,
      "note": 54,
      "start": 20.0278,
      "duration": 0.0161,
      "velocity": 101,
      "chip": "ym2612"
    },
    {
      "channel": 3,
      "note": 57,
      "start": 20.0289,
      "duration": 0.0161,
      "velocity": 101,
      "chip": "ym2612"
    },
    {
      "channel": 1,
      "note": 62,
      "start": 20.0312,
      "duration": 0.0161,
      "velocity": 101,
      "chip": "ym2612"
    },
    {
      "channel": 0,
      "note": 40,
      "start": 20.04,
      "duration": 0.0161,
      "velocity": 115,
      "chip": "ym2612"
    },
    {
      "channel": 4,
      "note": 54,
      "start": 20.0439,
      "duration": 0.0134,
      "velocity": 101,
      "chip": "ym2612"
    },
    {
      "channel": 3,
      "note": 57,
      "start": 20.045,
      "duration": 0.0158,
      "velocity": 101,
      "chip": "ym2612"
    },
    {
      "channel": 1,
      "note": 62,
      "start": 20.0473,
      "duration": 0.0157,
      "velocity": 101,
      "chip": "ym2612"
    },
    {
      "channel": 0,
      "note": 41,
      "start": 20.0561,
      "duration": 0.0161,
      "velocity": 115,
      "chip": "ym2612"
    },
    {
      "channel": 4,
      "note": 54,
      "start": 20.0572,
      "duration": 0.0161,
      "velocity": 101,
      "chip": "ym2612"
    },
    {
      "channel": 3,
      "note": 57,
      "start": 20.0608,
      "duration": 0.0139,
      "velocity": 101,
      "chip": "ym2612"
    },
    {
      "channel": 1,
      "note": 62,
      "start": 20.063,
      "duration": 0.0141,
      "velocity": 101,
      "chip": "ym2612"
    },
    {
      "channel": 0,
      "note": 41,
      "start": 20.0722,
      "duration": 0.0161,
      "velocity": 115,
      "chip": "ym2612"
    },
    {
      "channel": 4,
      "note": 54,
      "start": 20.0733,
      "duration": 0.0161,
      "velocity": 101,
      "chip": "ym2612"
    },
    {
      "channel": 3,
      "note": 57,
      "start": 20.0746,
      "duration": 0.0159,
      "velocity": 101,
      "chip": "ym2612"
    },
    {
      "channel": 1,
      "note": 62,
      "start": 20.0771,
      "duration": 0.0185,
      "velocity": 101,
      "chip": "ym2612"
    },
    {
      "channel": 0,
      "note": 42,
      "start": 20.0883,
      "duration": 0.0161,
      "velocity": 115,
      "chip": "ym2612"
    },
    {
      "channel": 4,
      "note": 54,
      "start": 20.0894,
      "duration": 0.0162,
      "velocity": 101,
      "chip": "ym2612"
    },
    {
      "channel": 3,
      "note": 57,
      "start": 20.0905,
      "duration": 0.0162,
      "velocity": 101,
      "chip": "ym2612"
    },
    {
      "channel": 1,
      "note": 62,
      "start": 20.0956,
      "duration": 0.0161,
      "velocity": 101,
      "chip": "ym2612"
    },
    {
      "channel": 0,
      "note": 42,
      "start": 20.1044,
      "duration": 0.0161,
      "velocity": 115,
      "chip": "ym2612"
    },
    {
      "channel": 4,
      "note": 54,
      "start": 20.1056,
      "duration": 0.0161,
      "velocity": 101,
      "chip": "ym2612"
    },
    {
      "channel": 3,
      "note": 57,
      "start": 20.1067,
      "duration": 0.0161,
      "velocity": 101,
      "chip": "ym2612"
    },
    {
      "channel": 1,
      "note": 62,
      "start": 20.1117,
      "duration": 0.0157,
      "velocity": 101,
      "chip": "ym2612"
    },
    {
      "channel": 0,
      "note": 43,
      "start": 20.1204,
      "duration": 0.0161,
      "velocity": 115,
      "chip": "ym2612"
    },
    {
      "channel": 4,
      "note": 54,
      "start": 20.1217,
      "duration": 0.0161,
      "velocity": 101,
      "chip": "ym2612"
    },
    {
      "channel": 3,
      "note": 57,
      "start": 20.1228,
      "duration": 0.0161,
      "velocity": 101,
      "chip": "ym2612"
    },
    {
      "channel": 1,
      "note": 62,
      "start": 20.1274,
      "duration": 0.0138,
      "velocity": 101,
      "chip": "ym2612"
    },
    {
      "channel": 0,
      "note": 43,
      "start": 20.1365,
      "duration": 0.0162,
      "velocity": 115,
      "chip": "ym2612"
    },
    {
      "channel": 4,
      "note": 54,
      "start": 20.1378,
      "duration": 0.0161,
      "velocity": 101,
      "chip": "ym2612"
    },
    {
      "channel": 3,
      "note": 57,
      "start": 20.1389,
      "duration": 0.0161,
      "velocity": 101,
      "chip": "ym2612"
    },
    {
      "channel": 1,
      "note": 62,
      "start": 20.1412,
      "duration": 0.016,
      "velocity": 101,
      "chip": "ym2612"
    },
    {
      "channel": 0,
      "note": 44,
      "start": 20.1527,
      "duration": 0.016,
      "velocity": 115,
      "chip": "ym2612"
    },
    {
      "channel": 4,
      "note": 54,
      "start": 20.1538,
      "duration": 0.0161,
      "velocity": 101,
      "chip": "ym2612"
    },
    {
      "channel": 3,
      "note": 57,
      "start": 20.155,
      "duration": 0.0161,
      "velocity": 101,
      "chip": "ym2612"
    },
    {
      "channel": 1,
      "note": 62,
      "start": 20.1573,
      "duration": 0.0161,
      "velocity": 101,
      "chip": "ym2612"
    },
    {
      "channel": 0,
      "note": 44,
      "start": 20.1687,
      "duration": 0.0161,
      "velocity": 115,
      "chip": "ym2612"
    },
    {
      "channel": 4,
      "note": 54,
      "start": 20.1699,
      "duration": 0.0161,
      "velocity": 101,
      "chip": "ym2612"
    },
    {
      "channel": 3,
      "note": 57,
      "start": 20.1711,
      "duration": 0.0161,
      "velocity": 101,
      "chip": "ym2612"
    },
    {
      "channel": 1,
      "note": 62,
      "start": 20.1734,
      "duration": 0.0161,
      "velocity": 101,
      "chip": "ym2612"
    },
    {
      "channel": 0,
      "note": 44,
      "start": 20.1849,
      "duration": 0.0161,
      "velocity": 115,
      "chip": "ym2612"
    },
    {
      "channel": 4,
      "note": 54,
      "start": 20.186,
      "duration": 0.0161,
      "velocity": 101,
      "chip": "ym2612"
    },
    {
      "channel": 3,
      "note": 57,
      "start": 20.1872,
      "duration": 0.0161,
      "velocity": 101,
      "chip": "ym2612"
    },
    {
      "channel": 1,
      "note": 62,
      "start": 20.1895,
      "duration": 0.0161,
      "velocity": 101,
      "chip": "ym2612"
    },
    {
      "channel": 0,
      "note": 45,
      "start": 20.201,
      "duration": 0.0161,
      "velocity": 115,
      "chip": "ym2612"
    },
    {
      "channel": 4,
      "note": 54,
      "start": 20.2021,
      "duration": 0.0161,
      "velocity": 101,
      "chip": "ym2612"
    },
    {
      "channel": 3,
      "note": 57,
      "start": 20.2033,
      "duration": 0.0161,
      "velocity": 101,
      "chip": "ym2612"
    },
    {
      "channel": 1,
      "note": 62,
      "start": 20.2056,
      "duration": 0.0161,
      "velocity": 101,
      "chip": "ym2612"
    },
    {
      "channel": 0,
      "note": 45,
      "start": 20.2171,
      "duration": 0.0161,
      "velocity": 115,
      "chip": "ym2612"
    },
    {
      "channel": 4,
      "note": 54,
      "start": 20.2182,
      "duration": 0.0161,
      "velocity": 101,
      "chip": "ym2612"
    },
    {
      "channel": 3,
      "note": 57,
      "start": 20.2194,
      "duration": 0.0161,
      "velocity": 101,
      "chip": "ym2612"
    },
    {
      "channel": 1,
      "note": 62,
      "start": 20.2217,
      "duration": 0.0161,
      "velocity": 101,
      "chip": "ym2612"
    },
    {
      "channel": 0,
      "note": 46,
      "start": 20.2332,
      "duration": 0.0161,
      "velocity": 115,
      "chip": "ym2612"
    },
    {
      "channel": 4,
      "note": 54,
      "start": 20.2343,
      "duration": 0.0161,
      "velocity": 101,
      "chip": "ym2612"
    },
    {
      "channel": 3,
      "note": 57,
      "start": 20.2355,
      "duration": 0.0161,
      "velocity": 101,
      "chip": "ym2612"
    },
    {
      "channel": 1,
      "note": 62,
      "start": 20.2378,
      "duration": 0.0161,
      "velocity": 101,
      "chip": "ym2612"
    },
    {
      "channel": 0,
      "note": 46,
      "start": 20.2493,
      "duration": 0.0161,
      "velocity": 115,
      "chip": "ym2612"
    },
    {
      "channel": 4,
      "note": 54,
      "start": 20.2504,
      "duration": 0.0161,
      "velocity": 101,
      "chip": "ym2612"
    },
    {
      "channel": 3,
      "note": 57,
      "start": 20.2515,
      "duration": 0.0162,
      "velocity": 101,
      "chip": "ym2612"
    },
    {
      "channel": 1,
      "note": 62,
      "start": 20.2538,
      "duration": 0.0161,
      "velocity": 101,
      "chip": "ym2612"
    },
    {
      "channel": 0,
      "note": 47,
      "start": 20.2654,
      "duration": 0.0161,
      "velocity": 115,
      "chip": "ym2612"
    },
    {
      "channel": 4,
      "note": 54,
      "start": 20.2666,
      "duration": 0.0161,
      "velocity": 101,
      "chip": "ym2612"
    },
    {
      "channel": 3,
      "note": 57,
      "start": 20.2677,
      "duration": 0.0161,
      "velocity": 101,
      "chip": "ym2612"
    },
    {
      "channel": 1,
      "note": 62,
      "start": 20.2699,
      "duration": 0.0161,
      "velocity": 101,
      "chip": "ym2612"
    },
    {
      "channel": 0,
      "note": 47,
      "start": 20.2815,
      "duration": 0.0161,
      "velocity": 115,
      "chip": "ym2612"
    },
    {
      "channel": 4,
      "note": 54,
      "start": 20.2827,
      "duration": 0.0161,
      "velocity": 101,
      "chip": "ym2612"
    },
    {
      "channel": 3,
      "note": 57,
      "start": 20.2838,
      "duration": 0.0161,
      "velocity": 101,
      "chip": "ym2612"
    },
    {
      "channel": 1,
      "note": 62,
      "start": 20.286,
      "duration": 0.0161,
      "velocity": 101,
      "chip": "ym2612"
    },
    {
      "channel": 0,
      "note": 47,
      "start": 20.2976,
      "duration": 0.0161,
      "velocity": 115,
      "chip": "ym2612"
    },
    {
      "channel": 4,
      "note": 54,
      "start": 20.2988,
      "duration": 0.0161,
      "velocity": 101,
      "chip": "ym2612"
    },
    {
      "channel": 3,
      "note": 57,
      "start": 20.2999,
      "duration": 0.0161,
      "velocity": 101,
      "chip": "ym2612"
    },
    {
      "channel": 1,
      "note": 62,
      "start": 20.3021,
      "duration": 0.0161,
      "velocity": 101,
      "chip": "ym2612"
    },
    {
      "channel": 0,
      "note": 48,
      "start": 20.3137,
      "duration": 0.0178,
      "velocity": 124,
      "chip": "ym2612"
    },
    {
      "channel": 4,
      "note": 54,
      "start": 20.3149,
      "duration": 0.0179,
      "velocity": 101,
      "chip": "ym2612"
    },
    {
      "channel": 3,
      "note": 57,
      "start": 20.316,
      "duration": 0.0179,
      "velocity": 101,
      "chip": "ym2612"
    },
    {
      "channel": 1,
      "note": 62,
      "start": 20.3183,
      "duration": 0.0179,
      "velocity": 101,
      "chip": "ym2612"
    },
    {
      "channel": 0,
      "note": 84,
      "start": 20.3316,
      "duration": 0.0144,
      "velocity": 124,
      "chip": "ym2612"
    },
    {
      "channel": 4,
      "note": 54,
      "start": 20.3327,
      "duration": 0.0144,
      "velocity": 101,
      "chip": "ym2612"
    },
    {
      "channel": 3,
      "note": 57,
      "start": 20.3339,
      "duration": 0.0144,
      "velocity": 101,
      "chip": "ym2612"
    },
    {
      "channel": 1,
      "note": 62,
      "start": 20.3361,
      "duration": 0.0144,
      "velocity": 101,
      "chip": "ym2612"
    },
    {
      "channel": 0,
      "note": 82,
      "start": 20.3459,
      "duration": 0.0166,
      "velocity": 124,
      "chip": "ym2612"
    },
    {
      "channel": 4,
      "note": 54,
      "start": 20.3471,
      "duration": 0.0165,
      "velocity": 101,
      "chip": "ym2612"
    },
    {
      "channel": 3,
      "note": 57,
      "start": 20.3482,
      "duration": 0.0166,
      "velocity": 101,
      "chip": "ym2612"
    },
    {
      "channel": 1,
      "note": 62,
      "start": 20.3505,
      "duration": 0.0166,
      "velocity": 101,
      "chip": "ym2612"
    },
    {
      "channel": 0,
      "note": 80,
      "start": 20.3625,
      "duration": 0.0167,
      "velocity": 124,
      "chip": "ym2612"
    },
    {
      "channel": 4,
      "note": 54,
      "start": 20.3636,
      "duration": 0.0167,
      "velocity": 101,
      "chip": "ym2612"
    },
    {
      "channel": 3,
      "note": 57,
      "start": 20.3648,
      "duration": 0.0167,
      "velocity": 101,
      "chip": "ym2612"
    },
    {
      "channel": 1,
      "note": 62,
      "start": 20.3671,
      "duration": 0.0167,
      "velocity": 101,
      "chip": "ym2612"
    },
    {
      "channel": 0,
      "note": 77,
      "start": 20.3792,
      "duration": 0.0163,
      "velocity": 124,
      "chip": "ym2612"
    },
    {
      "channel": 4,
      "note": 54,
      "start": 20.3803,
      "duration": 0.0163,
      "velocity": 101,
      "chip": "ym2612"
    },
    {
      "channel": 3,
      "note": 57,
      "start": 20.3815,
      "duration": 0.0163,
      "velocity": 101,
      "chip": "ym2612"
    },
    {
      "channel": 1,
      "note": 62,
      "start": 20.3837,
      "duration": 0.0163,
      "velocity": 101,
      "chip": "ym2612"
    },
    {
      "channel": 0,
      "note": 75,
      "start": 20.3954,
      "duration": 0.0148,
      "velocity": 124,
      "chip": "ym2612"
    },
    {
      "channel": 4,
      "note": 54,
      "start": 20.3966,
      "duration": 0.0149,
      "velocity": 101,
      "chip": "ym2612"
    },
    {
      "channel": 3,
      "note": 57,
      "start": 20.3977,
      "duration": 0.0149,
      "velocity": 101,
      "chip": "ym2612"
    },
    {
      "channel": 1,
      "note": 62,
      "start": 20.4,
      "duration": 0.0148,
      "velocity": 101,
      "chip": "ym2612"
    },
    {
      "channel": 0,
      "note": 72,
      "start": 20.4103,
      "duration": 0.0188,
      "velocity": 124,
      "chip": "ym2612"
    },
    {
      "channel": 4,
      "note": 54,
      "start": 20.4115,
      "duration": 0.0188,
      "velocity": 101,
      "chip": "ym2612"
    },
    {
      "channel": 3,
      "note": 57,
      "start": 20.4126,
      "duration": 0.0188,
      "velocity": 101,
      "chip": "ym2612"
    },
    {
      "channel": 1,
      "note": 62,
      "start": 20.4149,
      "duration": 0.0188,
      "velocity": 101,
      "chip": "ym2612"
    },
    {
      "channel": 0,
      "note": 70,
      "start": 20.4291,
      "duration": 0.0162,
      "velocity": 124,
      "chip": "ym2612"
    },
    {
      "channel": 4,
      "note": 54,
      "start": 20.4303,
      "duration": 0.0161,
      "velocity": 101,
      "chip": "ym2612"
    },
    {
      "channel": 3,
      "note": 57,
      "start": 20.4315,
      "duration": 0.0161,
      "velocity": 101,
      "chip": "ym2612"
    },
    {
      "channel": 1,
      "note": 62,
      "start": 20.4337,
      "duration": 0.0162,
      "velocity": 101,
      "chip": "ym2612"
    },
    {
      "channel": 0,
      "note": 68,
      "start": 20.4453,
      "duration": 0.0157,
      "velocity": 124,
      "chip": "ym2612"
    },
    {
      "channel": 4,
      "note": 54,
      "start": 20.4464,
      "duration": 0.0157,
      "velocity": 101,
      "chip": "ym2612"
    },
    {
      "channel": 3,
      "note": 57,
      "start": 20.4476,
      "duration": 0.0157,
      "velocity": 101,
      "chip": "ym2612"
    },
    {
      "channel": 1,
      "note": 62,
      "start": 20.4498,
      "duration": 0.0157,
      "velocity": 101,
      "chip": "ym2612"
    },
    {
      "channel": 0,
      "note": 65,
      "start": 20.461,
      "duration": 0.0141,
      "velocity": 124,
      "chip": "ym2612"
    },
    {
      "channel": 4,
      "note": 54,
      "start": 20.4621,
      "duration": 0.0141,
      "velocity": 101,
      "chip": "ym2612"
    },
    {
      "channel": 3,
      "note": 57,
      "start": 20.4632,
      "duration": 0.0141,
      "velocity": 101,
      "chip": "ym2612"
    },
    {
      "channel": 1,
      "note": 62,
      "start": 20.4655,
      "duration": 0.0141,
      "velocity": 101,
      "chip": "ym2612"
    },
    {
      "channel": 0,
      "note": 63,
      "start": 20.475,
      "duration": 0.015,
      "velocity": 1,
      "chip": "ym2612"
    },
    {
      "channel": 4,
      "note": 54,
      "start": 20.4762,
      "duration": 0.0178,
      "velocity": 101,
      "chip": "ym2612"
    },
    {
      "channel": 3,
      "note": 57,
      "start": 20.4773,
      "duration": 0.0177,
      "velocity": 101,
      "chip": "ym2612"
    },
    {
      "channel": 1,
      "note": 62,
      "start": 20.4796,
      "duration": 0.0177,
      "velocity": 101,
      "chip": "ym2612"
    },
    {
      "channel": 4,
      "note": 54,
      "start": 20.4939,
      "duration": 0.0125,
      "velocity": 101,
      "chip": "ym2612"
    },
    {
      "channel": 3,
      "note": 57,
      "start": 20.495,
      "duration": 0.0125,
      "velocity": 101,
      "chip": "ym2612"
    },
    {
      "channel": 1,
      "note": 62,
      "start": 20.4973,
      "duration": 0.0153,
      "velocity": 101,
      "chip": "ym2612"
    },
    {
      "channel": 4,
      "note": 54,
      "start": 20.5064,
      "duration": 0.0161,
      "velocity": 101,
      "chip": "ym2612"
    },
    {
      "channel": 3,
      "note": 57,
      "start": 20.5075,
      "duration": 0.0161,
      "velocity": 101,
      "chip": "ym2612"
    },
    {
      "channel": 1,
      "note": 62,
      "start": 20.5126,
      "duration": 0.0157,
      "velocity": 101,
      "chip": "ym2612"
    },
    {
      "channel": 4,
      "note": 54,
      "start": 20.5225,
      "duration": 0.0162,
      "velocity": 101,
      "chip": "ym2612"
    },
    {
      "channel": 3,
      "note": 57,
      "start": 20.5236,
      "duration": 0.0161,
      "velocity": 101,
      "chip": "ym2612"
    },
    {
      "channel": 1,
      "note": 62,
      "start": 20.5283,
      "duration": 0.0141,
      "velocity": 101,
      "chip": "ym2612"
    },
    {
      "channel": 4,
      "note": 54,
      "start": 20.5386,
      "duration": 0.0161,
      "velocity": 101,
      "chip": "ym2612"
    },
    {
      "channel": 3,
      "note": 57,
      "start": 20.5398,
      "duration": 0.0161,
      "velocity": 101,
      "chip": "ym2612"
    },
    {
      "channel": 1,
      "note": 62,
      "start": 20.5423,
      "duration": 0.0185,
      "velocity": 101,
      "chip": "ym2612"
    },
    {
      "channel": 4,
      "note": 54,
      "start": 20.5547,
      "duration": 0.0161,
      "velocity": 101,
      "chip": "ym2612"
    },
    {
      "channel": 3,
      "note": 57,
      "start": 20.5559,
      "duration": 0.0161,
      "velocity": 101,
      "chip": "ym2612"
    },
    {
      "channel": 1,
      "note": 62,
      "start": 20.5608,
      "duration": 0.0134,
      "velocity": 101,
      "chip": "ym2612"
    },
    {
      "channel": 4,
      "note": 54,
      "start": 20.5708,
      "duration": 0.0161,
      "velocity": 101,
      "chip": "ym2612"
    },
    {
      "channel": 3,
      "note": 57,
      "start": 20.572,
      "duration": 0.0161,
      "velocity": 101,
      "chip": "ym2612"
    },
    {
      "channel": 1,
      "note": 62,
      "start": 20.5742,
      "duration": 0.0162,
      "velocity": 101,
      "chip": "ym2612"
    },
    {
      "channel": 4,
      "note": 54,
      "start": 20.5869,
      "duration": 0.0161,
      "velocity": 101,
      "chip": "ym2612"
    },
    {
      "channel": 3,
      "note": 57,
      "start": 20.5881,
      "duration": 0.0161,
      "velocity": 101,
      "chip": "ym2612"
    },
    {
      "channel": 1,
      "note": 62,
      "start": 20.5904,
      "duration": 0.0161,
      "velocity": 101,
      "chip": "ym2612"
    },
    {
      "channel": 4,
      "note": 54,
      "start": 20.603,
      "duration": 0.0161,
      "velocity": 101,
      "chip": "ym2612"
    },
    {
      "channel": 3,
      "note": 57,
      "start": 20.6041,
      "duration": 0.0161,
      "velocity": 101,
      "chip": "ym2612"
    },
    {
      "channel": 1,
      "note": 62,
      "start": 20.6064,
      "duration": 0.0161,
      "velocity": 101,
      "chip": "ym2612"
    },
    {
      "channel": 4,
      "note": 54,
      "start": 20.6191,
      "duration": 0.0161,
      "velocity": 101,
      "chip": "ym2612"
    },
    {
      "channel": 3,
      "note": 57,
      "start": 20.6202,
      "duration": 0.0161,
      "velocity": 101,
      "chip": "ym2612"
    },
    {
      "channel": 1,
      "note": 62,
      "start": 20.6225,
      "duration": 0.0161,
      "velocity": 101,
      "chip": "ym2612"
    },
    {
      "channel": 4,
      "note": 54,
      "start": 20.6352,
      "duration": 0.0161,
      "velocity": 101,
      "chip": "ym2612"
    },
    {
      "channel": 3,
      "note": 57,
      "start": 20.6363,
      "duration": 0.0161,
      "velocity": 101,
      "chip": "ym2612"
    },
    {
      "channel": 1,
      "note": 62,
      "start": 20.6386,
      "duration": 0.0161,
      "velocity": 101,
      "chip": "ym2612"
    },
    {
      "channel": 4,
      "note": 54,
      "start": 20.6513,
      "duration": 0.0161,
      "velocity": 101,
      "chip": "ym2612"
    },
    {
      "channel": 3,
      "note": 57,
      "start": 20.6524,
      "duration": 0.0161,
      "velocity": 101,
      "chip": "ym2612"
    },
    {
      "channel": 1,
      "note": 62,
      "start": 20.6547,
      "duration": 0.0161,
      "velocity": 101,
      "chip": "ym2612"
    },
    {
      "channel": 4,
      "note": 54,
      "start": 20.6674,
      "duration": 0.0161,
      "velocity": 101,
      "chip": "ym2612"
    },
    {
      "channel": 3,
      "note": 57,
      "start": 20.6685,
      "duration": 0.0162,
      "velocity": 101,
      "chip": "ym2612"
    },
    {
      "channel": 1,
      "note": 62,
      "start": 20.6708,
      "duration": 0.0161,
      "velocity": 101,
      "chip": "ym2612"
    },
    {
      "channel": 4,
      "note": 54,
      "start": 20.6835,
      "duration": 0.0161,
      "velocity": 101,
      "chip": "ym2612"
    },
    {
      "channel": 3,
      "note": 57,
      "start": 20.6847,
      "duration": 0.0161,
      "velocity": 101,
      "chip": "ym2612"
    },
    {
      "channel": 1,
      "note": 62,
      "start": 20.6869,
      "duration": 0.0161,
      "velocity": 101,
      "chip": "ym2612"
    },
    {
      "channel": 4,
      "note": 54,
      "start": 20.6996,
      "duration": 0.0161,
      "velocity": 101,
      "chip": "ym2612"
    },
    {
      "channel": 3,
      "note": 57,
      "start": 20.7008,
      "duration": 0.0161,
      "velocity": 101,
      "chip": "ym2612"
    },
    {
      "channel": 1,
      "note": 62,
      "start": 20.703,
      "duration": 0.0161,
      "velocity": 101,
      "chip": "ym2612"
    },
    {
      "channel": 4,
      "note": 54,
      "start": 20.7157,
      "duration": 0.0161,
      "velocity": 101,
      "chip": "ym2612"
    },
    {
      "channel": 3,
      "note": 57,
      "start": 20.7169,
      "duration": 0.0161,
      "velocity": 101,
      "chip": "ym2612"
    },
    {
      "channel": 1,
      "note": 62,
      "start": 20.7191,
      "duration": 0.0161,
      "velocity": 101,
      "chip": "ym2612"
    },
    {
      "channel": 4,
      "note": 54,
      "start": 20.7318,
      "duration": 0.0161,
      "velocity": 101,
      "chip": "ym2612"
    },
    {
      "channel": 3,
      "note": 57,
      "start": 20.733,
      "duration": 0.0161,
      "velocity": 101,
      "chip": "ym2612"
    },
    {
      "channel": 1,
      "note": 62,
      "start": 20.7353,
      "duration": 0.0161,
      "velocity": 101,
      "chip": "ym2612"
    },
    {
      "channel": 4,
      "note": 54,
      "start": 20.7479,
      "duration": 0.0161,
      "velocity": 101,
      "chip": "ym2612"
    },
    {
      "channel": 3,
      "note": 57,
      "start": 20.7491,
      "duration": 0.0161,
      "velocity": 101,
      "chip": "ym2612"
    },
    {
      "channel": 1,
      "note": 62,
      "start": 20.7514,
      "duration": 0.0161,
      "velocity": 101,
      "chip": "ym2612"
    },
    {
      "channel": 4,
      "note": 54,
      "start": 20.764,
      "duration": 0.0163,
      "velocity": 101,
      "chip": "ym2612"
    },
    {
      "channel": 3,
      "note": 57,
      "start": 20.7652,
      "duration": 0.0166,
      "velocity": 101,
      "chip": "ym2612"
    },
    {
      "channel": 1,
      "note": 62,
      "start": 20.7675,
      "duration": 0.0168,
      "velocity": 101,
      "chip": "ym2612"
    },
    {
      "channel": 4,
      "note": 56,
      "start": 20.7804,
      "duration": 0.0159,
      "velocity": 101,
      "chip": "ym2612"
    },
    {
      "channel": 3,
      "note": 59,
      "start": 20.7818,
      "duration": 0.0157,
      "velocity": 101,
      "chip": "ym2612"
    },
    {
      "channel": 1,
      "note": 64,
      "start": 20.7843,
      "duration": 0.0155,
      "velocity": 101,
      "chip": "ym2612"
    },
    {
      "channel": 4,
      "note": 56,
      "start": 20.7963,
      "duration": 0.016,
      "velocity": 101,
      "chip": "ym2612"
    },
    {
      "channel": 3,
      "note": 59,
      "start": 20.7975,
      "duration": 0.016,
      "velocity": 101,
      "chip": "ym2612"
    },
    {
      "channel": 1,
      "note": 64,
      "start": 20.7998,
      "duration": 0.016,
      "velocity": 101,
      "chip": "ym2612"
    },
    {
      "channel": 4,
      "note": 56,
      "start": 20.8123,
      "duration": 0.0163,
      "velocity": 101,
      "chip": "ym2612"
    },
    {
      "channel": 3,
      "note": 59,
      "start": 20.8134,
      "duration": 0.0163,
      "velocity": 101,
      "chip": "ym2612"
    },
    {
      "channel": 1,
      "note": 64,
      "start": 20.8157,
      "duration": 0.0163,
      "velocity": 101,
      "chip": "ym2612"
    },
    {
      "channel": 4,
      "note": 56,
      "start": 20.8286,
      "duration": 0.0167,
      "velocity": 101,
      "chip": "ym2612"
    },
    {
      "channel": 3,
      "note": 59,
      "start": 20.8298,
      "duration": 0.0167,
      "velocity": 101,
      "chip": "ym2612"
    },
    {
      "channel": 1,
      "note": 64,
      "start": 20.8321,
      "duration": 0.0167,
      "velocity": 101,
      "chip": "ym2612"
    },
    {
      "channel": 4,
      "note": 56,
      "start": 20.8453,
      "duration": 0.0163,
      "velocity": 101,
      "chip": "ym2612"
    },
    {
      "channel": 3,
      "note": 59,
      "start": 20.8465,
      "duration": 0.0163,
      "velocity": 101,
      "chip": "ym2612"
    },
    {
      "channel": 1,
      "note": 64,
      "start": 20.8488,
      "duration": 0.0163,
      "velocity": 101,
      "chip": "ym2612"
    },
    {
      "channel": 4,
      "note": 56,
      "start": 20.8616,
      "duration": 0.0151,
      "velocity": 101,
      "chip": "ym2612"
    },
    {
      "channel": 3,
      "note": 59,
      "start": 20.8627,
      "duration": 0.0151,
      "velocity": 101,
      "chip": "ym2612"
    },
    {
      "channel": 1,
      "note": 64,
      "start": 20.865,
      "duration": 0.0151,
      "velocity": 101,
      "chip": "ym2612"
    },
    {
      "channel": 4,
      "note": 56,
      "start": 20.8767,
      "duration": 0.0186,
      "velocity": 101,
      "chip": "ym2612"
    },
    {
      "channel": 3,
      "note": 59,
      "start": 20.8779,
      "duration": 0.0186,
      "velocity": 101,
      "chip": "ym2612"
    },
    {
      "channel": 1,
      "note": 64,
      "start": 20.8802,
      "duration": 0.0186,
      "velocity": 101,
      "chip": "ym2612"
    },
    {
      "channel": 4,
      "note": 56,
      "start": 20.8953,
      "duration": 0.0163,
      "velocity": 101,
      "chip": "ym2612"
    },
    {
      "channel": 3,
      "note": 59,
      "start": 20.8965,
      "duration": 0.0163,
      "velocity": 101,
      "chip": "ym2612"
    },
    {
      "channel": 1,
      "note": 64,
      "start": 20.8988,
      "duration": 0.0163,
      "velocity": 101,
      "chip": "ym2612"
    },
    {
      "channel": 4,
      "note": 56,
      "start": 20.9117,
      "duration": 0.0158,
      "velocity": 101,
      "chip": "ym2612"
    },
    {
      "channel": 3,
      "note": 59,
      "start": 20.9128,
      "duration": 0.0158,
      "velocity": 101,
      "chip": "ym2612"
    },
    {
      "channel": 1,
      "note": 64,
      "start": 20.9151,
      "duration": 0.0157,
      "velocity": 101,
      "chip": "ym2612"
    },
    {
      "channel": 4,
      "note": 56,
      "start": 20.9274,
      "duration": 0.0138,
      "velocity": 101,
      "chip": "ym2612"
    },
    {
      "channel": 3,
      "note": 59,
      "start": 20.9286,
      "duration": 0.014,
      "velocity": 101,
      "chip": "ym2612"
    },
    {
      "channel": 1,
      "note": 64,
      "start": 20.9308,
      "duration": 0.0141,
      "velocity": 101,
      "chip": "ym2612"
    },
    {
      "channel": 4,
      "note": 56,
      "start": 20.9412,
      "duration": 0.016,
      "velocity": 101,
      "chip": "ym2612"
    },
    {
      "channel": 3,
      "note": 59,
      "start": 20.9426,
      "duration": 0.0185,
      "velocity": 101,
      "chip": "ym2612"
    },
    {
      "channel": 1,
      "note": 64,
      "start": 20.9449,
      "duration": 0.0185,
      "velocity": 101,
      "chip": "ym2612"
    },
    {
      "channel": 4,
      "note": 56,
      "start": 20.9572,
      "duration": 0.0161,
      "velocity": 101,
      "chip": "ym2612"
    },
    {
      "channel": 3,
      "note": 59,
      "start": 20.9611,
      "duration": 0.0162,
      "velocity": 101,
      "chip": "ym2612"
    },
    {
      "channel": 1,
      "note": 64,
      "start": 20.9634,
      "duration": 0.0161,
      "velocity": 101,
      "chip": "ym2612"
    },
    {
      "channel": 4,
      "note": 56,
      "start": 20.9733,
      "duration": 0.0161,
      "velocity": 101,
      "chip": "ym2612"
    },
    {
      "channel": 3,
      "note": 59,
      "start": 20.9773,
      "duration": 0.0134,
      "velocity": 101,
      "chip": "ym2612"
    },
    {
      "channel": 1,
      "note": 64,
      "start": 20.9795,
      "duration": 0.0158,
      "velocity": 101,
      "chip": "ym2612"
    },
    {
      "channel": 4,
      "note": 56,
      "start": 20.9895,
      "duration": 0.0199,
      "velocity": 101,
      "chip": "ym2612"
    },
    {
      "channel": 3,
      "note": 59,
      "start": 20.9906,
      "duration": 0.0198,
      "velocity": 101,
      "chip": "ym2612"
    },
    {
      "channel": 1,
      "note": 64,
      "start": 20.9953,
      "duration": 0.0174,
      "velocity": 101,
      "chip": "ym2612"
    },
    {
      "channel": 0,
      "note": 36,
      "start": 21.0079,
      "duration": 0.0142,
      "velocity": 115,
      "chip": "ym2612"
    },
    {
      "channel": 4,
      "note": 56,
      "start": 21.0093,
      "duration": 0.0141,
      "velocity": 101,
      "chip": "ym2612"
    },
    {
      "channel": 3,
      "note": 59,
      "start": 21.0105,
      "duration": 0.0168,
      "velocity": 101,
      "chip": "ym2612"
    },
    {
      "channel": 1,
      "note": 64,
      "start": 21.0127,
      "duration": 0.0169,
      "velocity": 101,
      "chip": "ym2612"
    },
    {
      "channel": 0,
      "note": 36,
      "start": 21.0222,
      "duration": 0.016,
      "velocity": 115,
      "chip": "ym2612"
    },
    {
      "channel": 4,
      "note": 56,
      "start": 21.0234,
      "duration": 0.016,
      "velocity": 101,
      "chip": "ym2612"
    },
    {
      "channel": 3,
      "note": 59,
      "start": 21.0273,
      "duration": 0.0133,
      "velocity": 101,
      "chip": "ym2612"
    },
    {
      "channel": 1,
      "note": 64,
      "start": 21.0295,
      "duration": 0.016,
      "velocity": 101,
      "chip": "ym2612"
    },
    {
      "channel": 0,
      "note": 37,
      "start": 21.0382,
      "duration": 0.0162,
      "velocity": 115,
      "chip": "ym2612"
    },
    {
      "channel": 4,
      "note": 56,
      "start": 21.0394,
      "duration": 0.0161,
      "velocity": 101,
      "chip": "ym2612"
    },
    {
      "channel": 3,
      "note": 59,
      "start": 21.0405,
      "duration": 0.0161,
      "velocity": 101,
      "chip": "ym2612"
    },
    {
      "channel": 1,
      "note": 64,
      "start": 21.0456,
      "duration": 0.0157,
      "velocity": 101,
      "chip": "ym2612"
    },
    {
      "channel": 0,
      "note": 37,
      "start": 21.0544,
      "duration": 0.0161,
      "velocity": 115,
      "chip": "ym2612"
    },
    {
      "channel": 4,
      "note": 56,
      "start": 21.0555,
      "duration": 0.0161,
      "velocity": 101,
      "chip": "ym2612"
    },
    {
      "channel": 3,
      "note": 59,
      "start": 21.0566,
      "duration": 0.0161,
      "velocity": 101,
      "chip": "ym2612"
    },
    {
      "channel": 1,
      "note": 64,
      "start": 21.0613,
      "duration": 0.0141,
      "velocity": 101,
      "chip": "ym2612"
    },
    {
      "channel": 0,
      "note": 38,
      "start": 21.0704,
      "duration": 0.0161,
      "velocity": 115,
      "chip": "ym2612"
    },
    {
      "channel": 4,
      "note": 56,
      "start": 21.0716,
      "duration": 0.0161,
      "velocity": 101,
      "chip": "ym2612"
    },
    {
      "channel": 3,
      "note": 59,
      "start": 21.0727,
      "duration": 0.0161,
      "velocity": 101,
      "chip": "ym2612"
    },
    {
      "channel": 1,
      "note": 64,
      "start": 21.0754,
      "duration": 0.0185,
      "velocity": 101,
      "chip": "ym2612"
    },
    {
      "channel": 0,
      "note": 38,
      "start": 21.0865,
      "duration": 0.0161,
      "velocity": 115,
      "chip": "ym2612"
    },
    {
      "channel": 4,
      "note": 56,
      "start": 21.0877,
      "duration": 0.0161,
      "velocity": 101,
      "chip": "ym2612"
    },
    {
      "channel": 3,
      "note": 59,
      "start": 21.0888,
      "duration": 0.0161,
      "velocity": 101,
      "chip": "ym2612"
    },
    {
      "channel": 1,
      "note": 64,
      "start": 21.0939,
      "duration": 0.0134,
      "velocity": 101,
      "chip": "ym2612"
    },
    {
      "channel": 0,
      "note": 39,
      "start": 21.1026,
      "duration": 0.0161,
      "velocity": 115,
      "chip": "ym2612"
    },
    {
      "channel": 4,
      "note": 56,
      "start": 21.1038,
      "duration": 0.0161,
      "velocity": 101,
      "chip": "ym2612"
    },
    {
      "channel": 3,
      "note": 59,
      "start": 21.1049,
      "duration": 0.0161,
      "velocity": 101,
      "chip": "ym2612"
    },
    {
      "channel": 1,
      "note": 64,
      "start": 21.1072,
      "duration": 0.0161,
      "velocity": 101,
      "chip": "ym2612"
    },
    {
      "channel": 0,
      "note": 39,
      "start": 21.1187,
      "duration": 0.0161,
      "velocity": 115,
      "chip": "ym2612"
    },
    {
      "channel": 4,
      "note": 56,
      "start": 21.1199,
      "duration": 0.0161,
      "velocity": 101,
      "chip": "ym2612"
    },
    {
      "channel": 3,
      "note": 59,
      "start": 21.121,
      "duration": 0.0161,
      "velocity": 101,
      "chip": "ym2612"
    },
    {
      "channel": 1,
      "note": 64,
      "start": 21.1233,
      "duration": 0.0161,
      "velocity": 101,
      "chip": "ym2612"
    },
    {
      "channel": 0,
      "note": 40,
      "start": 21.1348,
      "duration": 0.0161,
      "velocity": 115,
      "chip": "ym2612"
    },
    {
      "channel": 4,
      "note": 56,
      "start": 21.136,
      "duration": 0.0162,
      "velocity": 101,
      "chip": "ym2612"
    },
    {
      "channel": 3,
      "note": 59,
      "start": 21.1371,
      "duration": 0.0162,
      "velocity": 101,
      "chip": "ym2612"
    },
    {
      "channel": 1,
      "note": 64,
      "start": 21.1394,
      "duration": 0.0161,
      "velocity": 101,
      "chip": "ym2612"
    },
    {
      "channel": 0,
      "note": 40,
      "start": 21.1509,
      "duration": 0.0161,
      "velocity": 115,
      "chip": "ym2612"
    },
    {
      "channel": 4,
      "note": 56,
      "start": 21.1521,
      "duration": 0.0161,
      "velocity": 101,
      "chip": "ym2612"
    },
    {
      "channel": 3,
      "note": 59,
      "start": 21.1533,
      "duration": 0.0161,
      "velocity": 101,
      "chip": "ym2612"
    },
    {
      "channel": 1,
      "note": 64,
      "start": 21.1555,
      "duration": 0.0161,
      "velocity": 101,
      "chip": "ym2612"
    },
    {
      "channel": 0,
      "note": 40,
      "start": 21.167,
      "duration": 0.0161,
      "velocity": 115,
      "chip": "ym2612"
    },
    {
      "channel": 4,
      "note": 56,
      "start": 21.1682,
      "duration": 0.0161,
      "velocity": 101,
      "chip": "ym2612"
    },
    {
      "channel": 3,
      "note": 59,
      "start": 21.1694,
      "duration": 0.0161,
      "velocity": 101,
      "chip": "ym2612"
    },
    {
      "channel": 1,
      "note": 64,
      "start": 21.1716,
      "duration": 0.0161,
      "velocity": 101,
      "chip": "ym2612"
    },
    {
      "channel": 0,
      "note": 41,
      "start": 21.1831,
      "duration": 0.0161,
      "velocity": 115,
      "chip": "ym2612"
    },
    {
      "channel": 4,
      "note": 56,
      "start": 21.1843,
      "duration": 0.0161,
      "velocity": 101,
      "chip": "ym2612"
    },
    {
      "channel": 3,
      "note": 59,
      "start": 21.1855,
      "duration": 0.0161,
      "velocity": 101,
      "chip": "ym2612"
    },
    {
      "channel": 1,
      "note": 64,
      "start": 21.1877,
      "duration": 0.0161,
      "velocity": 101,
      "chip": "ym2612"
    },
    {
      "channel": 0,
      "note": 41,
      "start": 21.1992,
      "duration": 0.0161,
      "velocity": 115,
      "chip": "ym2612"
    },
    {
      "channel": 4,
      "note": 56,
      "start": 21.2004,
      "duration": 0.0161,
      "velocity": 101,
      "chip": "ym2612"
    },
    {
      "channel": 3,
      "note": 59,
      "start": 21.2015,
      "duration": 0.0161,
      "velocity": 101,
      "chip": "ym2612"
    },
    {
      "channel": 1,
      "note": 64,
      "start": 21.2038,
      "duration": 0.0161,
      "velocity": 101,
      "chip": "ym2612"
    },
    {
      "channel": 0,
      "note": 42,
      "start": 21.2154,
      "duration": 0.0178,
      "velocity": 124,
      "chip": "ym2612"
    },
    {
      "channel": 4,
      "note": 56,
      "start": 21.2165,
      "duration": 0.0179,
      "velocity": 101,
      "chip": "ym2612"
    },
    {
      "channel": 3,
      "note": 59,
      "start": 21.2176,
      "duration": 0.0179,
      "velocity": 101,
      "chip": "ym2612"
    },
    {
      "channel": 1,
      "note": 64,
      "start": 21.2199,
      "duration": 0.0179,
      "velocity": 101,
      "chip": "ym2612"
    },
    {
      "channel": 0,
      "note": 84,
      "start": 21.2332,
      "duration": 0.0144,
      "velocity": 124,
      "chip": "ym2612"
    },
    {
      "channel": 4,
      "note": 56,
      "start": 21.2344,
      "duration": 0.0144,
      "velocity": 101,
      "chip": "ym2612"
    },
    {
      "channel": 3,
      "note": 59,
      "start": 21.2355,
      "duration": 0.0144,
      "velocity": 101,
      "chip": "ym2612"
    },
    {
      "channel": 1,
      "note": 64,
      "start": 21.2378,
      "duration": 0.0144,
      "velocity": 101,
      "chip": "ym2612"
    },
    {
      "channel": 0,
      "note": 82,
      "start": 21.2476,
      "duration": 0.016,
      "velocity": 124,
      "chip": "ym2612"
    },
    {
      "channel": 4,
      "note": 56,
      "start": 21.2488,
      "duration": 0.016,
      "velocity": 101,
      "chip": "ym2612"
    },
    {
      "channel": 3,
      "note": 59,
      "start": 21.2499,
      "duration": 0.016,
      "velocity": 101,
      "chip": "ym2612"
    },
    {
      "channel": 1,
      "note": 64,
      "start": 21.2522,
      "duration": 0.016,
      "velocity": 101,
      "chip": "ym2612"
    },
    {
      "channel": 0,
      "note": 80,
      "start": 21.2636,
      "duration": 0.0161,
      "velocity": 124,
      "chip": "ym2612"
    },
    {
      "channel": 4,
      "note": 56,
      "start": 21.2648,
      "duration": 0.0161,
      "velocity": 101,
      "chip": "ym2612"
    },
    {
      "channel": 3,
      "note": 59,
      "start": 21.2659,
      "duration": 0.0162,
      "velocity": 101,
      "chip": "ym2612"
    },
    {
      "channel": 1,
      "note": 64,
      "start": 21.2682,
      "duration": 0.0161,
      "velocity": 101,
      "chip": "ym2612"
    },
    {
      "channel": 0,
      "note": 77,
      "start": 21.2797,
      "duration": 0.0161,
      "velocity": 124,
      "chip": "ym2612"
    },
    {
      "channel": 4,
      "note": 56,
      "start": 21.2809,
      "duration": 0.0161,
      "velocity": 101,
      "chip": "ym2612"
    },
    {
      "channel": 3,
      "note": 59,
      "start": 21.2821,
      "duration": 0.0161,
      "velocity": 101,
      "chip": "ym2612"
    },
    {
      "channel": 1,
      "note": 64,
      "start": 21.2843,
      "duration": 0.0161,
      "velocity": 101,
      "chip": "ym2612"
    },
    {
      "channel": 0,
      "note": 75,
      "start": 21.2958,
      "duration": 0.0167,
      "velocity": 124,
      "chip": "ym2612"
    },
    {
      "channel": 4,
      "note": 56,
      "start": 21.297,
      "duration": 0.0166,
      "velocity": 101,
      "chip": "ym2612"
    },
    {
      "channel": 3,
      "note": 59,
      "start": 21.2982,
      "duration": 0.0166,
      "velocity": 101,
      "chip": "ym2612"
    },
    {
      "channel": 1,
      "note": 64,
      "start": 21.3004,
      "duration": 0.0167,
      "velocity": 101,
      "chip": "ym2612"
    },
    {
      "channel": 0,
      "note": 72,
      "start": 21.3125,
      "duration": 0.0163,
      "velocity": 124,
      "chip": "ym2612"
    },
    {
      "channel": 4,
      "note": 56,
      "start": 21.3136,
      "duration": 0.0163,
      "velocity": 101,
      "chip": "ym2612"
    },
    {
      "channel": 3,
      "note": 59,
      "start": 21.3148,
      "duration": 0.0163,
      "velocity": 101,
      "chip": "ym2612"
    },
    {
      "channel": 1,
      "note": 64,
      "start": 21.3171,
      "duration": 0.0163,
      "velocity": 101,
      "chip": "ym2612"
    },
    {
      "channel": 0,
      "note": 70,
      "start": 21.3288,
      "duration": 0.0154,
      "velocity": 124,
      "chip": "ym2612"
    },
    {
      "channel": 4,
      "note": 56,
      "start": 21.3299,
      "duration": 0.0154,
      "velocity": 101,
      "chip": "ym2612"
    },
    {
      "channel": 3,
      "note": 59,
      "start": 21.3311,
      "duration": 0.0154,
      "velocity": 101,
      "chip": "ym2612"
    },
    {
      "channel": 1,
      "note": 64,
      "start": 21.3334,
      "duration": 0.0154,
      "velocity": 101,
      "chip": "ym2612"
    },
    {
      "channel": 0,
      "note": 68,
      "start": 21.3442,
      "duration": 0.0183,
      "velocity": 124,
      "chip": "ym2612"
    },
    {
      "channel": 4,
      "note": 56,
      "start": 21.3453,
      "duration": 0.0183,
      "velocity": 101,
      "chip": "ym2612"
    },
    {
      "channel": 3,
      "note": 59,
      "start": 21.3465,
      "duration": 0.0183,
      "velocity": 101,
      "chip": "ym2612"
    },
    {
      "channel": 1,
      "note": 64,
      "start": 21.3488,
      "duration": 0.0183,
      "velocity": 101,
      "chip": "ym2612"
    },
    {
      "channel": 0,
      "note": 65,
      "start": 21.3625,
      "duration": 0.0166,
      "velocity": 124,
      "chip": "ym2612"
    },
    {
      "channel": 4,
      "note": 56,
      "start": 21.3636,
      "duration": 0.0166,
      "velocity": 101,
      "chip": "ym2612"
    },
    {
      "channel": 3,
      "note": 59,
      "start": 21.3648,
      "duration": 0.0166,
      "velocity": 101,
      "chip": "ym2612"
    },
    {
      "channel": 1,
      "note": 64,
      "start": 21.3671,
      "duration": 0.0166,
      "velocity": 101,
      "chip": "ym2612"
    },
    {
      "channel": 0,
      "note": 63,
      "start": 21.3791,
      "duration": 0.0149,
      "velocity": 1,
      "chip": "ym2612"
    },
    {
      "channel": 4,
      "note": 56,
      "start": 21.3802,
      "duration": 0.0149,
      "velocity": 101,
      "chip": "ym2612"
    },
    {
      "channel": 3,
      "note": 59,
      "start": 21.3814,
      "duration": 0.0149,
      "velocity": 101,
      "chip": "ym2612"
    },
    {
      "channel": 1,
      "note": 64,
      "start": 21.3837,
      "duration": 0.0149,
      "velocity": 101,
      "chip": "ym2612"
    },
    {
      "channel": 4,
      "note": 56,
      "start": 21.3952,
      "duration": 0.0132,
      "velocity": 101,
      "chip": "ym2612"
    },
    {
      "channel": 3,
      "note": 59,
      "start": 21.3963,
      "duration": 0.0132,
      "velocity": 101,
      "chip": "ym2612"
    },
    {
      "channel": 1,
      "note": 64,
      "start": 21.3986,
      "duration": 0.0132,
      "velocity": 101,
      "chip": "ym2612"
    },
    {
      "channel": 4,
      "note": 56,
      "start": 21.4084,
      "duration": 0.0158,
      "velocity": 101,
      "chip": "ym2612"
    },
    {
      "channel": 3,
      "note": 59,
      "start": 21.4096,
      "duration": 0.0185,
      "velocity": 101,
      "chip": "ym2612"
    },
    {
      "channel": 1,
      "note": 64,
      "start": 21.4118,
      "duration": 0.0186,
      "velocity": 101,
      "chip": "ym2612"
    },
    {
      "channel": 4,
      "note": 56,
      "start": 21.4242,
      "duration": 0.0161,
      "velocity": 101,
      "chip": "ym2612"
    },
    {
      "channel": 3,
      "note": 59,
      "start": 21.4281,
      "duration": 0.0161,
      "velocity": 101,
      "chip": "ym2612"
    },
    {
      "channel": 1,
      "note": 64,
      "start": 21.4304,
      "duration": 0.016,
      "velocity": 101,
      "chip": "ym2612"
    },
    {
      "channel": 4,
      "note": 56,
      "start": 21.4403,
      "duration": 0.0219,
      "velocity": 101,
      "chip": "ym2612"
    },
    {
      "channel": 3,
      "note": 59,
      "start": 21.4442,
      "duration": 0.0191,
      "velocity": 101,
      "chip": "ym2612"
    },
    {
      "channel": 1,
      "note": 64,
      "start": 21.4464,
      "duration": 0.0192,
      "velocity": 101,
      "chip": "ym2612"
    },
    {
      "channel": 0,
      "note": 84,
      "start": 21.461,
      "duration": 0.012,
      "velocity": 124,
      "chip": "ym2612"
    },
    {
      "channel": 4,
      "note": 56,
      "start": 21.4622,
      "duration": 0.012,
      "velocity": 101,
      "chip": "ym2612"
    },
    {
      "channel": 3,
      "note": 59,
      "start": 21.4633,
      "duration": 0.0124,
      "velocity": 101,
      "chip": "ym2612"
    },
    {
      "channel": 1,
      "note": 64,
      "start": 21.4656,
      "duration": 0.0123,
      "velocity": 101,
      "chip": "ym2612"
    },
    {
      "channel": 0,
      "note": 82,
      "start": 21.473,
      "duration": 0.0161,
      "velocity": 124,
      "chip": "ym2612"
    },
    {
      "channel": 4,
      "note": 56,
      "start": 21.4742,
      "duration": 0.016,
      "velocity": 101,
      "chip": "ym2612"
    },
    {
      "channel": 3,
      "note": 59,
      "start": 21.4757,
      "duration": 0.0184,
      "velocity": 101,
      "chip": "ym2612"
    },
    {
      "channel": 1,
      "note": 64,
      "start": 21.4779,
      "duration": 0.0185,
      "velocity": 101,
      "chip": "ym2612"
    },
    {
      "channel": 0,
      "note": 80,
      "start": 21.4891,
      "duration": 0.0161,
      "velocity": 124,
      "chip": "ym2612"
    },
    {
      "channel": 4,
      "note": 56,
      "start": 21.4902,
      "duration": 0.0161,
      "velocity": 101,
      "chip": "ym2612"
    },
    {
      "channel": 3,
      "note": 59,
      "start": 21.4941,
      "duration": 0.0134,
      "velocity": 101,
      "chip": "ym2612"
    },
    {
      "channel": 1,
      "note": 64,
      "start": 21.4964,
      "duration": 0.0161,
      "velocity": 101,
      "chip": "ym2612"
    },
    {
      "channel": 0,
      "note": 77,
      "start": 21.5052,
      "duration": 0.0161,
      "velocity": 124,
      "chip": "ym2612"
    },
    {
      "channel": 4,
      "note": 56,
      "start": 21.5063,
      "duration": 0.0161,
      "velocity": 101,
      "chip": "ym2612"
    },
    {
      "channel": 3,
      "note": 59,
      "start": 21.5075,
      "duration": 0.0161,
      "velocity": 101,
      "chip": "ym2612"
    },
    {
      "channel": 1,
      "note": 64,
      "start": 21.5125,
      "duration": 0.0157,
      "velocity": 101,
      "chip": "ym2612"
    },
    {
      "channel": 0,
      "note": 75,
      "start": 21.5213,
      "duration": 0.0161,
      "velocity": 124,
      "chip": "ym2612"
    },
    {
      "channel": 4,
      "note": 56,
      "start": 21.5224,
      "duration": 0.0161,
      "velocity": 101,
      "chip": "ym2612"
    },
    {
      "channel": 3,
      "note": 59,
      "start": 21.5236,
      "duration": 0.0161,
      "velocity": 101,
      "chip": "ym2612"
    },
    {
      "channel": 1,
      "note": 64,
      "start": 21.5282,
      "duration": 0.0141,
      "velocity": 101,
      "chip": "ym2612"
    },
    {
      "channel": 0,
      "note": 72,
      "start": 21.5374,
      "duration": 0.0161,
      "velocity": 124,
      "chip": "ym2612"
    },
    {
      "channel": 4,
      "note": 56,
      "start": 21.5385,
      "duration": 0.0161,
      "velocity": 101,
      "chip": "ym2612"
    },
    {
      "channel": 3,
      "note": 59,
      "start": 21.5397,
      "duration": 0.0161,
      "velocity": 101,
      "chip": "ym2612"
    },
    {
      "channel": 1,
      "note": 64,
      "start": 21.5423,
      "duration": 0.0185,
      "velocity": 101,
      "chip": "ym2612"
    },
    {
      "channel": 0,
      "note": 70,
      "start": 21.5534,
      "duration": 0.0161,
      "velocity": 124,
      "chip": "ym2612"
    },
    {
      "channel": 4,
      "note": 56,
      "start": 21.5546,
      "duration": 0.0161,
      "velocity": 101,
      "chip": "ym2612"
    },
    {
      "channel": 3,
      "note": 59,
      "start": 21.5557,
      "duration": 0.0161,
      "velocity": 101,
      "chip": "ym2612"
    },
    {
      "channel": 1,
      "note": 64,
      "start": 21.5608,
      "duration": 0.0134,
      "velocity": 101,
      "chip": "ym2612"
    },
    {
      "channel": 0,
      "note": 68,
      "start": 21.5695,
      "duration": 0.0161,
      "velocity": 124,
      "chip": "ym2612"
    },
    {
      "channel": 4,
      "note": 56,
      "start": 21.5707,
      "duration": 0.0161,
      "velocity": 101,
      "chip": "ym2612"
    },
    {
      "channel": 3,
      "note": 59,
      "start": 21.5718,
      "duration": 0.0161,
      "velocity": 101,
      "chip": "ym2612"
    },
    {
      "channel": 1,
      "note": 64,
      "start": 21.5741,
      "duration": 0.0161,
      "velocity": 101,
      "chip": "ym2612"
    },
    {
      "channel": 0,
      "note": 65,
      "start": 21.5856,
      "duration": 0.0161,
      "velocity": 124,
      "chip": "ym2612"
    },
    {
      "channel": 4,
      "note": 56,
      "start": 21.5868,
      "duration": 0.0162,
      "velocity": 101,
      "chip": "ym2612"
    },
    {
      "channel": 3,
      "note": 59,
      "start": 21.5879,
      "duration": 0.0162,
      "velocity": 101,
      "chip": "ym2612"
    },
    {
      "channel": 1,
      "note": 64,
      "start": 21.5902,
      "duration": 0.0161,
      "velocity": 101,
      "chip": "ym2612"
    },
    {
      "channel": 0,
      "note": 63,
      "start": 21.6017,
      "duration": 0.0153,
      "velocity": 1,
      "chip": "ym2612"
    },
    {
      "channel": 4,
      "note": 56,
      "start": 21.6029,
      "duration": 0.0153,
      "velocity": 101,
      "chip": "ym2612"
    },
    {
      "channel": 3,
      "note": 59,
      "start": 21.6041,
      "duration": 0.0153,
      "velocity": 101,
      "chip": "ym2612"
    },
    {
      "channel": 1,
      "note": 64,
      "start": 21.6063,
      "duration": 0.0153,
      "velocity": 101,
      "chip": "ym2612"
    },
    {
      "channel": 4,
      "note": 56,
      "start": 21.6182,
      "duration": 0.0153,
      "velocity": 101,
      "chip": "ym2612"
    },
    {
      "channel": 3,
      "note": 59,
      "start": 21.6194,
      "duration": 0.0153,
      "velocity": 101,
      "chip": "ym2612"
    },
    {
      "channel": 1,
      "note": 64,
      "start": 21.6217,
      "duration": 0.0153,
      "velocity": 101,
      "chip": "ym2612"
    },
    {
      "channel": 4,
      "note": 56,
      "start": 21.6335,
      "duration": 0.0161,
      "velocity": 101,
      "chip": "ym2612"
    },
    {
      "channel": 3,
      "note": 59,
      "start": 21.6346,
      "duration": 0.0161,
      "velocity": 101,
      "chip": "ym2612"
    },
    {
      "channel": 1,
      "note": 64,
      "start": 21.6369,
      "duration": 0.0161,
      "velocity": 101,
      "chip": "ym2612"
    },
    {
      "channel": 4,
      "note": 56,
      "start": 21.6496,
      "duration": 0.0161,
      "velocity": 101,
      "chip": "ym2612"
    },
    {
      "channel": 3,
      "note": 59,
      "start": 21.6507,
      "duration": 0.0161,
      "velocity": 101,
      "chip": "ym2612"
    },
    {
      "channel": 1,
      "note": 64,
      "start": 21.653,
      "duration": 0.0161,
      "velocity": 101,
      "chip": "ym2612"
    },
    {
      "channel": 4,
      "note": 56,
      "start": 21.6657,
      "duration": 0.0199,
      "velocity": 101,
      "chip": "ym2612"
    },
    {
      "channel": 3,
      "note": 59,
      "start": 21.6668,
      "duration": 0.0203,
      "velocity": 101,
      "chip": "ym2612"
    },
    {
      "channel": 1,
      "note": 64,
      "start": 21.6691,
      "duration": 0.021,
      "velocity": 101,
      "chip": "ym2612"
    },
    {
      "channel": 0,
      "note": 36,
      "start": 21.6841,
      "duration": 0.0144,
      "velocity": 115,
      "chip": "ym2612"
    },
    {
      "channel": 4,
      "note": 63,
      "start": 21.6856,
      "duration": 0.014,
      "velocity": 101,
      "chip": "ym2612"
    },
    {
      "channel": 3,
      "note": 66,
      "start": 21.6872,
      "duration": 0.0137,
      "velocity": 101,
      "chip": "ym2612"
    },
    {
      "channel": 1,
      "note": 71,
      "start": 21.6901,
      "duration": 0.0131,
      "velocity": 101,
      "chip": "ym2612"
    },
    {
      "channel": 0,
      "note": 36,
      "start": 21.6984,
      "duration": 0.016,
      "velocity": 115,
      "chip": "ym2612"
    },
    {
      "channel": 4,
      "note": 63,
      "start": 21.6996,
      "duration": 0.016,
      "velocity": 101,
      "chip": "ym2612"
    },
    {
      "channel": 3,
      "note": 66,
      "start": 21.7008,
      "duration": 0.0159,
      "velocity": 101,
      "chip": "ym2612"
    },
    {
      "channel": 1,
      "note": 71,
      "start": 21.7032,
      "duration": 0.0159,
      "velocity": 101,
      "chip": "ym2612"
    },
    {
      "channel": 0,
      "note": 37,
      "start": 21.7145,
      "duration": 0.0161,
      "velocity": 115,
      "chip": "ym2612"
    },
    {
      "channel": 4,
      "note": 63,
      "start": 21.7156,
      "duration": 0.0161,
      "velocity": 101,
      "chip": "ym2612"
    },
    {
      "channel": 3,
      "note": 66,
      "start": 21.7168,
      "duration": 0.0161,
      "velocity": 101,
      "chip": "ym2612"
    },
    {
      "channel": 1,
      "note": 71,
      "start": 21.719,
      "duration": 0.0161,
      "velocity": 101,
      "chip": "ym2612"
    },
    {
      "channel": 0,
      "note": 37,
      "start": 21.7306,
      "duration": 0.0161,
      "velocity": 115,
      "chip": "ym2612"
    },
    {
      "channel": 4,
      "note": 63,
      "start": 21.7317,
      "duration": 0.0161,
      "velocity": 101,
      "chip": "ym2612"
    },
    {
      "channel": 3,
      "note": 66,
      "start": 21.7329,
      "duration": 0.0161,
      "velocity": 101,
      "chip": "ym2612"
    },
    {
      "channel": 1,
      "note": 71,
      "start": 21.7351,
      "duration": 0.0161,
      "velocity": 101,
      "chip": "ym2612"
    },
    {
      "channel": 0,
      "note": 38,
      "start": 21.7466,
      "duration": 0.0161,
      "velocity": 115,
      "chip": "ym2612"
    },
    {
      "channel": 4,
      "note": 63,
      "start": 21.7478,
      "duration": 0.0161,
      "velocity": 101,
      "chip": "ym2612"
    },
    {
      "channel": 3,
      "note": 66,
      "start": 21.7489,
      "duration": 0.0162,
      "velocity": 101,
      "chip": "ym2612"
    },
    {
      "channel": 1,
      "note": 71,
      "start": 21.7512,
      "duration": 0.0161,
      "velocity": 101,
      "chip": "ym2612"
    },
    {
      "channel": 0,
      "note": 38,
      "start": 21.7627,
      "duration": 0.0164,
      "velocity": 115,
      "chip": "ym2612"
    },
    {
      "channel": 4,
      "note": 63,
      "start": 21.7639,
      "duration": 0.0163,
      "velocity": 101,
      "chip": "ym2612"
    },
    {
      "channel": 3,
      "note": 66,
      "start": 21.7651,
      "duration": 0.0163,
      "velocity": 101,
      "chip": "ym2612"
    },
    {
      "channel": 1,
      "note": 71,
      "start": 21.7673,
      "duration": 0.0164,
      "velocity": 101,
      "chip": "ym2612"
    },
    {
      "channel": 0,
      "note": 39,
      "start": 21.7792,
      "duration": 0.0163,
      "velocity": 115,
      "chip": "ym2612"
    },
    {
      "channel": 4,
      "note": 63,
      "start": 21.7803,
      "duration": 0.0163,
      "velocity": 101,
      "chip": "ym2612"
    },
    {
      "channel": 3,
      "note": 66,
      "start": 21.7815,
      "duration": 0.0163,
      "velocity": 101,
      "chip": "ym2612"
    },
    {
      "channel": 1,
      "note": 71,
      "start": 21.7837,
      "duration": 0.0163,
      "velocity": 101,
      "chip": "ym2612"
    },
    {
      "channel": 0,
      "note": 39,
      "start": 21.7954,
      "duration": 0.0156,
      "velocity": 115,
      "chip": "ym2612"
    },
    {
      "channel": 4,
      "note": 63,
      "start": 21.7966,
      "duration": 0.0157,
      "velocity": 101,
      "chip": "ym2612"
    },
    {
      "channel": 3,
      "note": 66,
      "start": 21.7977,
      "duration": 0.0156,
      "velocity": 101,
      "chip": "ym2612"
    },
    {
      "channel": 1,
      "note": 71,
      "start": 21.8,
      "duration": 0.0156,
      "velocity": 101,
      "chip": "ym2612"
    },
    {
      "channel": 0,
      "note": 40,
      "start": 21.8111,
      "duration": 0.0181,
      "velocity": 115,
      "chip": "ym2612"
    },
    {
      "channel": 4,
      "note": 63,
      "start": 21.8122,
      "duration": 0.018,
      "velocity": 101,
      "chip": "ym2612"
    },
    {
      "channel": 3,
      "note": 66,
      "start": 21.8134,
      "duration": 0.0181,
      "velocity": 101,
      "chip": "ym2612"
    },
    {
      "channel": 1,
      "note": 71,
      "start": 21.8157,
      "duration": 0.0181,
      "velocity": 101,
      "chip": "ym2612"
    },
    {
      "channel": 0,
      "note": 40,
      "start": 21.8292,
      "duration": 0.0167,
      "velocity": 115,
      "chip": "ym2612"
    },
    {
      "channel": 4,
      "note": 63,
      "start": 21.8303,
      "duration": 0.0167,
      "velocity": 101,
      "chip": "ym2612"
    },
    {
      "channel": 3,
      "note": 66,
      "start": 21.8315,
      "duration": 0.0167,
      "velocity": 101,
      "chip": "ym2612"
    },
    {
      "channel": 1,
      "note": 71,
      "start": 21.8337,
      "duration": 0.0167,
      "velocity": 101,
      "chip": "ym2612"
    },
    {
      "channel": 0,
      "note": 40,
      "start": 21.8458,
      "duration": 0.0159,
      "velocity": 115,
      "chip": "ym2612"
    },
    {
      "channel": 4,
      "note": 63,
      "start": 21.847,
      "duration": 0.016,
      "velocity": 101,
      "chip": "ym2612"
    },
    {
      "channel": 3,
      "note": 66,
      "start": 21.8481,
      "duration": 0.016,
      "velocity": 101,
      "chip": "ym2612"
    },
    {
      "channel": 1,
      "note": 71,
      "start": 21.8504,
      "duration": 0.0159,
      "velocity": 101,
      "chip": "ym2612"
    },
    {
      "channel": 0,
      "note": 41,
      "start": 21.8617,
      "duration": 0.0141,
      "velocity": 115,
      "chip": "ym2612"
    },
    {
      "channel": 4,
      "note": 63,
      "start": 21.8629,
      "duration": 0.014,
      "velocity": 101,
      "chip": "ym2612"
    },
    {
      "channel": 3,
      "note": 66,
      "start": 21.8641,
      "duration": 0.014,
      "velocity": 101,
      "chip": "ym2612"
    },
    {
      "channel": 1,
      "note": 71,
      "start": 21.8663,
      "duration": 0.0141,
      "velocity": 101,
      "chip": "ym2612"
    },
    {
      "channel": 0,
      "note": 41,
      "start": 21.8758,
      "duration": 0.0185,
      "velocity": 115,
      "chip": "ym2612"
    },
    {
      "channel": 4,
      "note": 63,
      "start": 21.8769,
      "duration": 0.0186,
      "velocity": 101,
      "chip": "ym2612"
    },
    {
      "channel": 3,
      "note": 66,
      "start": 21.8781,
      "duration": 0.0186,
      "velocity": 101,
      "chip": "ym2612"
    },
    {
      "channel": 1,
      "note": 71,
      "start": 21.8804,
      "duration": 0.0186,
      "velocity": 101,
      "chip": "ym2612"
    },
    {
      "channel": 0,
      "note": 42,
      "start": 21.8943,
      "duration": 0.0134,
      "velocity": 115,
      "chip": "ym2612"
    },
    {
      "channel": 4,
      "note": 63,
      "start": 21.8955,
      "duration": 0.0161,
      "velocity": 101,
      "chip": "ym2612"
    },
    {
      "channel": 3,
      "note": 66,
      "start": 21.8966,
      "duration": 0.0161,
      "velocity": 101,
      "chip": "ym2612"
    },
    {
      "channel": 1,
      "note": 71,
      "start": 21.8989,
      "duration": 0.0161,
      "velocity": 101,
      "chip": "ym2612"
    },
    {
      "channel": 0,
      "note": 42,
      "start": 21.9077,
      "duration": 0.0161,
      "velocity": 115,
      "chip": "ym2612"
    },
    {
      "channel": 4,
      "note": 63,
      "start": 21.9116,
      "duration": 0.0157,
      "velocity": 101,
      "chip": "ym2612"
    },
    {
      "channel": 3,
      "note": 66,
      "start": 21.9127,
      "duration": 0.0157,
      "velocity": 101,
      "chip": "ym2612"
    },
    {
      "channel": 1,
      "note": 71,
      "start": 21.915,
      "duration": 0.0157,
      "velocity": 101,
      "chip": "ym2612"
    },
    {
      "channel": 0,
      "note": 43,
      "start": 21.9237,
      "duration": 0.0161,
      "velocity": 115,
      "chip": "ym2612"
    },
    {
      "channel": 4,
      "note": 63,
      "start": 21.9273,
      "duration": 0.0137,
      "velocity": 101,
      "chip": "ym2612"
    },
    {
      "channel": 3,
      "note": 66,
      "start": 21.9285,
      "duration": 0.0141,
      "velocity": 101,
      "chip": "ym2612"
    },
    {
      "channel": 1,
      "note": 71,
      "start": 21.9307,
      "duration": 0.0141,
      "velocity": 101,
      "chip": "ym2612"
    },
    {
      "channel": 0,
      "note": 43,
      "start": 21.9398,
      "duration": 0.0162,
      "velocity": 115,
      "chip": "ym2612"
    },
    {
      "channel": 4,
      "note": 63,
      "start": 21.941,
      "duration": 0.0161,
      "velocity": 101,
      "chip": "ym2612"
    },
    {
      "channel": 3,
      "note": 66,
      "start": 21.9425,
      "duration": 0.0185,
      "velocity": 101,
      "chip": "ym2612"
    },
    {
      "channel": 1,
      "note": 71,
      "start": 21.9448,
      "duration": 0.0185,
      "velocity": 101,
      "chip": "ym2612"
    },
    {
      "channel": 0,
      "note": 44,
      "start": 21.956,
      "duration": 0.0161,
      "velocity": 115,
      "chip": "ym2612"
    },
    {
      "channel": 4,
      "note": 63,
      "start": 21.9571,
      "duration": 0.0161,
      "velocity": 101,
      "chip": "ym2612"
    },
    {
      "channel": 3,
      "note": 66,
      "start": 21.961,
      "duration": 0.0134,
      "velocity": 101,
      "chip": "ym2612"
    },
    {
      "channel": 1,
      "note": 71,
      "start": 21.9633,
      "duration": 0.0161,
      "velocity": 101,
      "chip": "ym2612"
    },
    {
      "channel": 0,
      "note": 44,
      "start": 21.9721,
      "duration": 0.0161,
      "velocity": 115,
      "chip": "ym2612"
    },
    {
      "channel": 4,
      "note": 63,
      "start": 21.9732,
      "duration": 0.0161,
      "velocity": 101,
      "chip": "ym2612"
    },
    {
      "channel": 3,
      "note": 66,
      "start": 21.9744,
      "duration": 0.0161,
      "velocity": 101,
      "chip": "ym2612"
    },
    {
      "channel": 1,
      "note": 71,
      "start": 21.9794,
      "duration": 0.0157,
      "velocity": 101,
      "chip": "ym2612"
    },
    {
      "channel": 0,
      "note": 44,
      "start": 21.9882,
      "duration": 0.0161,
      "velocity": 115,
      "chip": "ym2612"
    },
    {
      "channel": 4,
      "note": 63,
      "start": 21.9893,
      "duration": 0.0161,
      "velocity": 101,
      "chip": "ym2612"
    },
    {
      "channel": 3,
      "note": 66,
      "start": 21.9905,
      "duration": 0.0161,
      "velocity": 101,
      "chip": "ym2612"
    },
    {
      "channel": 1,
      "note": 71,
      "start": 21.9951,
      "duration": 0.0141,
      "velocity": 101,
      "chip": "ym2612"
    },
    {
      "channel": 0,
      "note": 45,
      "start": 22.0043,
      "duration": 0.0161,
      "velocity": 115,
      "chip": "ym2612"
    },
    {
      "channel": 4,
      "note": 63,
      "start": 22.0054,
      "duration": 0.0161,
      "velocity": 101,
      "chip": "ym2612"
    },
    {
      "channel": 3,
      "note": 66,
      "start": 22.0066,
      "duration": 0.0161,
      "velocity": 101,
      "chip": "ym2612"
    },
    {
      "channel": 1,
      "note": 71,
      "start": 22.0092,
      "duration": 0.0185,
      "velocity": 101,
      "chip": "ym2612"
    },
    {
      "channel": 0,
      "note": 45,
      "start": 22.0204,
      "duration": 0.0161,
      "velocity": 115,
      "chip": "ym2612"
    },
    {
      "channel": 4,
      "note": 63,
      "start": 22.0215,
      "duration": 0.0161,
      "velocity": 101,
      "chip": "ym2612"
    },
    {
      "channel": 3,
      "note": 66,
      "start": 22.0227,
      "duration": 0.0161,
      "velocity": 101,
      "chip": "ym2612"
    },
    {
      "channel": 1,
      "note": 71,
      "start": 22.0277,
      "duration": 0.0134,
      "velocity": 101,
      "chip": "ym2612"
    },
    {
      "channel": 0,
      "note": 46,
      "start": 22.0365,
      "duration": 0.0161,
      "velocity": 115,
      "chip": "ym2612"
    },
    {
      "channel": 4,
      "note": 63,
      "start": 22.0376,
      "duration": 0.0161,
      "velocity": 101,
      "chip": "ym2612"
    },
    {
      "channel": 3,
      "note": 66,
      "start": 22.0388,
      "duration": 0.0162,
      "velocity": 101,
      "chip": "ym2612"
    },
    {
      "channel": 1,
      "note": 71,
      "start": 22.041,
      "duration": 0.0161,
      "velocity": 101,
      "chip": "ym2612"
    },
    {
      "channel": 0,
      "note": 46,
      "start": 22.0526,
      "duration": 0.0161,
      "velocity": 115,
      "chip": "ym2612"
    },
    {
      "channel": 4,
      "note": 63,
      "start": 22.0538,
      "duration": 0.0161,
      "velocity": 101,
      "chip": "ym2612"
    },
    {
      "channel": 3,
      "note": 66,
      "start": 22.0549,
      "duration": 0.0161,
      "velocity": 101,
      "chip": "ym2612"
    },
    {
      "channel": 1,
      "note": 71,
      "start": 22.0571,
      "duration": 0.0161,
      "velocity": 101,
      "chip": "ym2612"
    },
    {
      "channel": 0,
      "note": 47,
      "start": 22.0687,
      "duration": 0.0161,
      "velocity": 115,
      "chip": "ym2612"
    },
    {
      "channel": 4,
      "note": 63,
      "start": 22.0699,
      "duration": 0.0161,
      "velocity": 101,
      "chip": "ym2612"
    },
    {
      "channel": 3,
      "note": 66,
      "start": 22.071,
      "duration": 0.0161,
      "velocity": 101,
      "chip": "ym2612"
    },
    {
      "channel": 1,
      "note": 71,
      "start": 22.0732,
      "duration": 0.0161,
      "velocity": 101,
      "chip": "ym2612"
    },
    {
      "channel": 0,
      "note": 47,
      "start": 22.0848,
      "duration": 0.0161,
      "velocity": 115,
      "chip": "ym2612"
    },
    {
      "channel": 4,
      "note": 63,
      "start": 22.086,
      "duration": 0.0161,
      "velocity": 101,
      "chip": "ym2612"
    },
    {
      "channel": 3,
      "note": 66,
      "start": 22.0871,
      "duration": 0.0161,
      "velocity": 101,
      "chip": "ym2612"
    },
    {
      "channel": 1,
      "note": 71,
      "start": 22.0894,
      "duration": 0.0161,
      "velocity": 101,
      "chip": "ym2612"
    },
    {
      "channel": 0,
      "note": 47,
      "start": 22.1009,
      "duration": 0.0161,
      "velocity": 115,
      "chip": "ym2612"
    },
    {
      "channel": 4,
      "note": 63,
      "start": 22.1021,
      "duration": 0.0161,
      "velocity": 101,
      "chip": "ym2612"
    },
    {
      "channel": 3,
      "note": 66,
      "start": 22.1032,
      "duration": 0.0161,
      "velocity": 101,
      "chip": "ym2612"
    },
    {
      "channel": 1,
      "note": 71,
      "start": 22.1055,
      "duration": 0.0161,
      "velocity": 101,
      "chip": "ym2612"
    },
    {
      "channel": 0,
      "note": 48,
      "start": 22.117,
      "duration": 0.0178,
      "velocity": 124,
      "chip": "ym2612"
    },
    {
      "channel": 4,
      "note": 63,
      "start": 22.1181,
      "duration": 0.0179,
      "velocity": 101,
      "chip": "ym2612"
    },
    {
      "channel": 3,
      "note": 66,
      "start": 22.1193,
      "duration": 0.0179,
      "velocity": 101,
      "chip": "ym2612"
    },
    {
      "channel": 1,
      "note": 71,
      "start": 22.1216,
      "duration": 0.0179,
      "velocity": 101,
      "chip": "ym2612"
    },
    {
      "channel": 0,
      "note": 84,
      "start": 22.1349,
      "duration": 0.0144,
      "velocity": 124,
      "chip": "ym2612"
    },
    {
      "channel": 4,
      "note": 63,
      "start": 22.136,
      "duration": 0.0144,
      "velocity": 101,
      "chip": "ym2612"
    },
    {
      "channel": 3,
      "note": 66,
      "start": 22.1372,
      "duration": 0.0144,
      "velocity": 101,
      "chip": "ym2612"
    },
    {
      "channel": 1,
      "note": 71,
      "start": 22.1395,
      "duration": 0.0144,
      "velocity": 101,
      "chip": "ym2612"
    },
    {
      "channel": 0,
      "note": 82,
      "start": 22.1493,
      "duration": 0.016,
      "velocity": 124,
      "chip": "ym2612"
    },
    {
      "channel": 4,
      "note": 63,
      "start": 22.1504,
      "duration": 0.016,
      "velocity": 101,
      "chip": "ym2612"
    },
    {
      "channel": 3,
      "note": 66,
      "start": 22.1515,
      "duration": 0.016,
      "velocity": 101,
      "chip": "ym2612"
    },
    {
      "channel": 1,
      "note": 71,
      "start": 22.1538,
      "duration": 0.016,
      "velocity": 101,
      "chip": "ym2612"
    },
    {
      "channel": 0,
      "note": 80,
      "start": 22.1653,
      "duration": 0.0161,
      "velocity": 124,
      "chip": "ym2612"
    },
    {
      "channel": 4,
      "note": 63,
      "start": 22.1664,
      "duration": 0.0161,
      "velocity": 101,
      "chip": "ym2612"
    },
    {
      "channel": 3,
      "note": 66,
      "start": 22.1676,
      "duration": 0.0162,
      "velocity": 101,
      "chip": "ym2612"
    },
    {
      "channel": 1,
      "note": 71,
      "start": 22.1699,
      "duration": 0.0161,
      "velocity": 101,
      "chip": "ym2612"
    },
    {
      "channel": 0,
      "note": 77,
      "start": 22.1814,
      "duration": 0.0161,
      "velocity": 124,
      "chip": "ym2612"
    },
    {
      "channel": 4,
      "note": 63,
      "start": 22.1826,
      "duration": 0.0161,
      "velocity": 101,
      "chip": "ym2612"
    },
    {
      "channel": 3,
      "note": 66,
      "start": 22.1837,
      "duration": 0.0161,
      "velocity": 101,
      "chip": "ym2612"
    },
    {
      "channel": 1,
      "note": 71,
      "start": 22.186,
      "duration": 0.0161,
      "velocity": 101,
      "chip": "ym2612"
    },
    {
      "channel": 0,
      "note": 75,
      "start": 22.1975,
      "duration": 0.0161,
      "velocity": 124,
      "chip": "ym2612"
    },
    {
      "channel": 4,
      "note": 63,
      "start": 22.1987,
      "duration": 0.0161,
      "velocity": 101,
      "chip": "ym2612"
    },
    {
      "channel": 3,
      "note": 66,
      "start": 22.1998,
      "duration": 0.0161,
      "velocity": 101,
      "chip": "ym2612"
    },
    {
      "channel": 1,
      "note": 71,
      "start": 22.2021,
      "duration": 0.0161,
      "velocity": 101,
      "chip": "ym2612"
    },
    {
      "channel": 0,
      "note": 72,
      "start": 22.2136,
      "duration": 0.0161,
      "velocity": 124,
      "chip": "ym2612"
    },
    {
      "channel": 4,
      "note": 63,
      "start": 22.2148,
      "duration": 0.0161,
      "velocity": 101,
      "chip": "ym2612"
    },
    {
      "channel": 3,
      "note": 66,
      "start": 22.2159,
      "duration": 0.0161,
      "velocity": 101,
      "chip": "ym2612"
    },
    {
      "channel": 1,
      "note": 71,
      "start": 22.2181,
      "duration": 0.0161,
      "velocity": 101,
      "chip": "ym2612"
    },
    {
      "channel": 0,
      "note": 70,
      "start": 22.2297,
      "duration": 0.0162,
      "velocity": 124,
      "chip": "ym2612"
    },
    {
      "channel": 4,
      "note": 63,
      "start": 22.2309,
      "duration": 0.0161,
      "velocity": 101,
      "chip": "ym2612"
    },
    {
      "channel": 3,
      "note": 66,
      "start": 22.232,
      "duration": 0.0161,
      "velocity": 101,
      "chip": "ym2612"
    },
    {
      "channel": 1,
      "note": 71,
      "start": 22.2342,
      "duration": 0.0162,
      "velocity": 101,
      "chip": "ym2612"
    },
    {
      "channel": 0,
      "note": 68,
      "start": 22.2458,
      "duration": 0.0163,
      "velocity": 124,
      "chip": "ym2612"
    },
    {
      "channel": 4,
      "note": 63,
      "start": 22.247,
      "duration": 0.0163,
      "velocity": 101,
      "chip": "ym2612"
    },
    {
      "channel": 3,
      "note": 66,
      "start": 22.2481,
      "duration": 0.0163,
      "velocity": 101,
      "chip": "ym2612"
    },
    {
      "channel": 1,
      "note": 71,
      "start": 22.2504,
      "duration": 0.0163,
      "velocity": 101,
      "chip": "ym2612"
    },
    {
      "channel": 0,
      "note": 65,
      "start": 22.2621,
      "duration": 0.0159,
      "velocity": 124,
      "chip": "ym2612"
    },
    {
      "channel": 4,
      "note": 63,
      "start": 22.2632,
      "duration": 0.0159,
      "velocity": 101,
      "chip": "ym2612"
    },
    {
      "channel": 3,
      "note": 66,
      "start": 22.2644,
      "duration": 0.0159,
      "velocity": 101,
      "chip": "ym2612"
    },
    {
      "channel": 1,
      "note": 71,
      "start": 22.2667,
      "duration": 0.0159,
      "velocity": 101,
      "chip": "ym2612"
    },
    {
      "channel": 0,
      "note": 63,
      "start": 22.278,
      "duration": 0.017,
      "velocity": 1,
      "chip": "ym2612"
    },
    {
      "channel": 4,
      "note": 63,
      "start": 22.2792,
      "duration": 0.017,
      "velocity": 101,
      "chip": "ym2612"
    },
    {
      "channel": 3,
      "note": 66,
      "start": 22.2803,
      "duration": 0.017,
      "velocity": 101,
      "chip": "ym2612"
    },
    {
      "channel": 1,
      "note": 71,
      "start": 22.2826,
      "duration": 0.017,
      "velocity": 101,
      "chip": "ym2612"
    },
    {
      "channel": 4,
      "note": 63,
      "start": 22.2961,
      "duration": 0.0158,
      "velocity": 101,
      "chip": "ym2612"
    },
    {
      "channel": 3,
      "note": 66,
      "start": 22.2973,
      "duration": 0.0159,
      "velocity": 101,
      "chip": "ym2612"
    },
    {
      "channel": 1,
      "note": 71,
      "start": 22.2996,
      "duration": 0.0159,
      "velocity": 101,
      "chip": "ym2612"
    },
    {
      "channel": 4,
      "note": 63,
      "start": 22.312,
      "duration": 0.0162,
      "velocity": 101,
      "chip": "ym2612"
    },
    {
      "channel": 3,
      "note": 66,
      "start": 22.3131,
      "duration": 0.0162,
      "velocity": 101,
      "chip": "ym2612"
    },
    {
      "channel": 1,
      "note": 71,
      "start": 22.3154,
      "duration": 0.0162,
      "velocity": 101,
      "chip": "ym2612"
    },
    {
      "channel": 4,
      "note": 63,
      "start": 22.3282,
      "duration": 0.0141,
      "velocity": 101,
      "chip": "ym2612"
    },
    {
      "channel": 3,
      "note": 66,
      "start": 22.3293,
      "duration": 0.0141,
      "velocity": 101,
      "chip": "ym2612"
    },
    {
      "channel": 1,
      "note": 71,
      "start": 22.3316,
      "duration": 0.014,
      "velocity": 101,
      "chip": "ym2612"
    },
    {
      "channel": 4,
      "note": 63,
      "start": 22.3423,
      "duration": 0.0222,
      "velocity": 101,
      "chip": "ym2612"
    },
    {
      "channel": 3,
      "note": 66,
      "start": 22.3434,
      "duration": 0.0225,
      "velocity": 101,
      "chip": "ym2612"
    },
    {
      "channel": 1,
      "note": 71,
      "start": 22.3456,
      "duration": 0.0228,
      "velocity": 101,
      "chip": "ym2612"
    },
    {
      "channel": 0,
      "note": 36,
      "start": 22.3631,
      "duration": 0.0143,
      "velocity": 115,
      "chip": "ym2612"
    },
    {
      "channel": 4,
      "note": 63,
      "start": 22.3645,
      "duration": 0.0142,
      "velocity": 101,
      "chip": "ym2612"
    },
    {
      "channel": 3,
      "note": 66,
      "start": 22.3659,
      "duration": 0.0139,
      "velocity": 101,
      "chip": "ym2612"
    },
    {
      "channel": 1,
      "note": 71,
      "start": 22.3684,
      "duration": 0.0137,
      "velocity": 101,
      "chip": "ym2612"
    },
    {
      "channel": 0,
      "note": 36,
      "start": 22.3774,
      "duration": 0.0133,
      "velocity": 115,
      "chip": "ym2612"
    },
    {
      "channel": 4,
      "note": 63,
      "start": 22.3786,
      "duration": 0.0156,
      "velocity": 101,
      "chip": "ym2612"
    },
    {
      "channel": 3,
      "note": 66,
      "start": 22.3799,
      "duration": 0.0155,
      "velocity": 101,
      "chip": "ym2612"
    },
    {
      "channel": 1,
      "note": 71,
      "start": 22.3822,
      "duration": 0.0155,
      "velocity": 101,
      "chip": "ym2612"
    },
    {
      "channel": 0,
      "note": 37,
      "start": 22.3907,
      "duration": 0.0161,
      "velocity": 115,
      "chip": "ym2612"
    },
    {
      "channel": 4,
      "note": 63,
      "start": 22.3942,
      "duration": 0.0141,
      "velocity": 101,
      "chip": "ym2612"
    },
    {
      "channel": 3,
      "note": 66,
      "start": 22.3954,
      "duration": 0.0141,
      "velocity": 101,
      "chip": "ym2612"
    },
    {
      "channel": 1,
      "note": 71,
      "start": 22.3977,
      "duration": 0.0141,
      "velocity": 101,
      "chip": "ym2612"
    },
    {
      "channel": 0,
      "note": 37,
      "start": 22.4068,
      "duration": 0.0161,
      "velocity": 115,
      "chip": "ym2612"
    },
    {
      "channel": 4,
      "note": 63,
      "start": 22.4083,
      "duration": 0.0158,
      "velocity": 101,
      "chip": "ym2612"
    },
    {
      "channel": 3,
      "note": 66,
      "start": 22.4094,
      "duration": 0.0185,
      "velocity": 101,
      "chip": "ym2612"
    },
    {
      "channel": 1,
      "note": 71,
      "start": 22.4117,
      "duration": 0.0185,
      "velocity": 101,
      "chip": "ym2612"
    },
    {
      "channel": 0,
      "note": 38,
      "start": 22.4229,
      "duration": 0.0161,
      "velocity": 115,
      "chip": "ym2612"
    },
    {
      "channel": 4,
      "note": 63,
      "start": 22.4241,
      "duration": 0.0161,
      "velocity": 101,
      "chip": "ym2612"
    },
    {
      "channel": 3,
      "note": 66,
      "start": 22.428,
      "duration": 0.0161,
      "velocity": 101,
      "chip": "ym2612"
    },
    {
      "channel": 1,
      "note": 71,
      "start": 22.4302,
      "duration": 0.0161,
      "velocity": 101,
      "chip": "ym2612"
    },
    {
      "channel": 0,
      "note": 38,
      "start": 22.439,
      "duration": 0.0161,
      "velocity": 115,
      "chip": "ym2612"
    },
    {
      "channel": 4,
      "note": 63,
      "start": 22.4402,
      "duration": 0.0161,
      "velocity": 101,
      "chip": "ym2612"
    },
    {
      "channel": 3,
      "note": 66,
      "start": 22.4441,
      "duration": 0.0133,
      "velocity": 101,
      "chip": "ym2612"
    },
    {
      "channel": 1,
      "note": 71,
      "start": 22.4463,
      "duration": 0.0157,
      "velocity": 101,
      "chip": "ym2612"
    },
    {
      "channel": 0,
      "note": 39,
      "start": 22.4551,
      "duration": 0.0161,
      "velocity": 115,
      "chip": "ym2612"
    },
    {
      "channel": 4,
      "note": 63,
      "start": 22.4563,
      "duration": 0.0161,
      "velocity": 101,
      "chip": "ym2612"
    },
    {
      "channel": 3,
      "note": 66,
      "start": 22.4574,
      "duration": 0.0161,
      "velocity": 101,
      "chip": "ym2612"
    },
    {
      "channel": 1,
      "note": 71,
      "start": 22.462,
      "duration": 0.0141,
      "velocity": 101,
      "chip": "ym2612"
    },
    {
      "channel": 0,
      "note": 39,
      "start": 22.4712,
      "duration": 0.0161,
      "velocity": 115,
      "chip": "ym2612"
    },
    {
      "channel": 4,
      "note": 63,
      "start": 22.4724,
      "duration": 0.0161,
      "velocity": 101,
      "chip": "ym2612"
    },
    {
      "channel": 3,
      "note": 66,
      "start": 22.4735,
      "duration": 0.0161,
      "velocity": 101,
      "chip": "ym2612"
    },
    {
      "channel": 1,
      "note": 71,
      "start": 22.4761,
      "duration": 0.0185,
      "velocity": 101,
      "chip": "ym2612"
    },
    {
      "channel": 0,
      "note": 40,
      "start": 22.4873,
      "duration": 0.0161,
      "velocity": 115,
      "chip": "ym2612"
    },
    {
      "channel": 4,
      "note": 63,
      "start": 22.4884,
      "duration": 0.0162,
      "velocity": 101,
      "chip": "ym2612"
    },
    {
      "channel": 3,
      "note": 66,
      "start": 22.4896,
      "duration": 0.0161,
      "velocity": 101,
      "chip": "ym2612"
    },
    {
      "channel": 1,
      "note": 71,
      "start": 22.4946,
      "duration": 0.0161,
      "velocity": 101,
      "chip": "ym2612"
    },
    {
      "channel": 0,
      "note": 40,
      "start": 22.5034,
      "duration": 0.0161,
      "velocity": 115,
      "chip": "ym2612"
    },
    {
      "channel": 4,
      "note": 63,
      "start": 22.5046,
      "duration": 0.0161,
      "velocity": 101,
      "chip": "ym2612"
    },
    {
      "channel": 3,
      "note": 66,
      "start": 22.5057,
      "duration": 0.0161,
      "velocity": 101,
      "chip": "ym2612"
    },
    {
      "channel": 1,
      "note": 71,
      "start": 22.5108,
      "duration": 0.0134,
      "velocity": 101,
      "chip": "ym2612"
    },
    {
      "channel": 0,
      "note": 40,
      "start": 22.5195,
      "duration": 0.0162,
      "velocity": 115,
      "chip": "ym2612"
    },
    {
      "channel": 4,
      "note": 63,
      "start": 22.5207,
      "duration": 0.0161,
      "velocity": 101,
      "chip": "ym2612"
    },
    {
      "channel": 3,
      "note": 66,
      "start": 22.5218,
      "duration": 0.0161,
      "velocity": 101,
      "chip": "ym2612"
    },
    {
      "channel": 1,
      "note": 71,
      "start": 22.5241,
      "duration": 0.0161,
      "velocity": 101,
      "chip": "ym2612"
    },
    {
      "channel": 0,
      "note": 41,
      "start": 22.5356,
      "duration": 0.0161,
      "velocity": 115,
      "chip": "ym2612"
    },
    {
      "channel": 4,
      "note": 63,
      "start": 22.5368,
      "duration": 0.0161,
      "velocity": 101,
      "chip": "ym2612"
    },
    {
      "channel": 3,
      "note": 66,
      "start": 22.5379,
      "duration": 0.0161,
      "velocity": 101,
      "chip": "ym2612"
    },
    {
      "channel": 1,
      "note": 71,
      "start": 22.5402,
      "duration": 0.0161,
      "velocity": 101,
      "chip": "ym2612"
    },
    {
      "channel": 0,
      "note": 41,
      "start": 22.5517,
      "duration": 0.0161,
      "velocity": 115,
      "chip": "ym2612"
    },
    {
      "channel": 4,
      "note": 63,
      "start": 22.5529,
      "duration": 0.0161,
      "velocity": 101,
      "chip": "ym2612"
    },
    {
      "channel": 3,
      "note": 66,
      "start": 22.554,
      "duration": 0.0161,
      "velocity": 101,
      "chip": "ym2612"
    },
    {
      "channel": 1,
      "note": 71,
      "start": 22.5563,
      "duration": 0.0161,
      "velocity": 101,
      "chip": "ym2612"
    },
    {
      "channel": 0,
      "note": 42,
      "start": 22.5678,
      "duration": 0.0161,
      "velocity": 115,
      "chip": "ym2612"
    },
    {
      "channel": 4,
      "note": 63,
      "start": 22.569,
      "duration": 0.0161,
      "velocity": 101,
      "chip": "ym2612"
    },
    {
      "channel": 3,
      "note": 66,
      "start": 22.5701,
      "duration": 0.0161,
      "velocity": 101,
      "chip": "ym2612"
    },
    {
      "channel": 1,
      "note": 71,
      "start": 22.5724,
      "duration": 0.0161,
      "velocity": 101,
      "chip": "ym2612"
    },
    {
      "channel": 0,
      "note": 42,
      "start": 22.5839,
      "duration": 0.0161,
      "velocity": 115,
      "chip": "ym2612"
    },
    {
      "channel": 4,
      "note": 63,
      "start": 22.5851,
      "duration": 0.0161,
      "velocity": 101,
      "chip": "ym2612"
    },
    {
      "channel": 3,
      "note": 66,
      "start": 22.5862,
      "duration": 0.0161,
      "velocity": 101,
      "chip": "ym2612"
    },
    {
      "channel": 1,
      "note": 71,
      "start": 22.5885,
      "duration": 0.0161,
      "velocity": 101,
      "chip": "ym2612"
    },
    {
      "channel": 0,
      "note": 43,
      "start": 22.6,
      "duration": 0.0161,
      "velocity": 115,
      "chip": "ym2612"
    },
    {
      "channel": 4,
      "note": 63,
      "start": 22.6012,
      "duration": 0.0161,
      "velocity": 101,
      "chip": "ym2612"
    },
    {
      "channel": 3,
      "note": 66,
      "start": 22.6023,
      "duration": 0.0161,
      "velocity": 101,
      "chip": "ym2612"
    },
    {
      "channel": 1,
      "note": 71,
      "start": 22.6046,
      "duration": 0.0161,
      "velocity": 101,
      "chip": "ym2612"
    },
    {
      "channel": 0,
      "note": 43,
      "start": 22.6161,
      "duration": 0.0161,
      "velocity": 115,
      "chip": "ym2612"
    },
    {
      "channel": 4,
      "note": 63,
      "start": 22.6173,
      "duration": 0.0161,
      "velocity": 101,
      "chip": "ym2612"
    },
    {
      "channel": 3,
      "note": 66,
      "start": 22.6184,
      "duration": 0.0161,
      "velocity": 101,
      "chip": "ym2612"
    },
    {
      "channel": 1,
      "note": 71,
      "start": 22.6207,
      "duration": 0.0161,
      "velocity": 101,
      "chip": "ym2612"
    },
    {
      "channel": 0,
      "note": 44,
      "start": 22.6322,
      "duration": 0.0161,
      "velocity": 115,
      "chip": "ym2612"
    },
    {
      "channel": 4,
      "note": 63,
      "start": 22.6334,
      "duration": 0.0162,
      "velocity": 101,
      "chip": "ym2612"
    },
    {
      "channel": 3,
      "note": 66,
      "start": 22.6345,
      "duration": 0.0162,
      "velocity": 101,
      "chip": "ym2612"
    },
    {
      "channel": 1,
      "note": 71,
      "start": 22.6368,
      "duration": 0.0161,
      "velocity": 101,
      "chip": "ym2612"
    },
    {
      "channel": 0,
      "note": 44,
      "start": 22.6483,
      "duration": 0.0161,
      "velocity": 115,
      "chip": "ym2612"
    },
    {
      "channel": 4,
      "note": 63,
      "start": 22.6495,
      "duration": 0.0161,
      "velocity": 101,
      "chip": "ym2612"
    },
    {
      "channel": 3,
      "note": 66,
      "start": 22.6507,
      "duration": 0.0161,
      "velocity": 101,
      "chip": "ym2612"
    },
    {
      "channel": 1,
      "note": 71,
      "start": 22.6529,
      "duration": 0.0161,
      "velocity": 101,
      "chip": "ym2612"
    },
    {
      "channel": 0,
      "note": 44,
      "start": 22.6644,
      "duration": 0.0161,
      "velocity": 115,
      "chip": "ym2612"
    },
    {
      "channel": 4,
      "note": 63,
      "start": 22.6656,
      "duration": 0.0161,
      "velocity": 101,
      "chip": "ym2612"
    },
    {
      "channel": 3,
      "note": 66,
      "start": 22.6668,
      "duration": 0.0161,
      "velocity": 101,
      "chip": "ym2612"
    },
    {
      "channel": 1,
      "note": 71,
      "start": 22.669,
      "duration": 0.0162,
      "velocity": 101,
      "chip": "ym2612"
    },
    {
      "channel": 0,
      "note": 45,
      "start": 22.6805,
      "duration": 0.0161,
      "velocity": 115,
      "chip": "ym2612"
    },
    {
      "channel": 4,
      "note": 63,
      "start": 22.6817,
      "duration": 0.0161,
      "velocity": 101,
      "chip": "ym2612"
    },
    {
      "channel": 3,
      "note": 66,
      "start": 22.6829,
      "duration": 0.0161,
      "velocity": 101,
      "chip": "ym2612"
    },
    {
      "channel": 1,
      "note": 71,
      "start": 22.6851,
      "duration": 0.0161,
      "velocity": 101,
      "chip": "ym2612"
    },
    {
      "channel": 0,
      "note": 45,
      "start": 22.6966,
      "duration": 0.0161,
      "velocity": 115,
      "chip": "ym2612"
    },
    {
      "channel": 4,
      "note": 63,
      "start": 22.6978,
      "duration": 0.0161,
      "velocity": 101,
      "chip": "ym2612"
    },
    {
      "channel": 3,
      "note": 66,
      "start": 22.6989,
      "duration": 0.0161,
      "velocity": 101,
      "chip": "ym2612"
    },
    {
      "channel": 1,
      "note": 71,
      "start": 22.7012,
      "duration": 0.0161,
      "velocity": 101,
      "chip": "ym2612"
    },
    {
      "channel": 0,
      "note": 46,
      "start": 22.7127,
      "duration": 0.0161,
      "velocity": 115,
      "chip": "ym2612"
    },
    {
      "channel": 4,
      "note": 63,
      "start": 22.7139,
      "duration": 0.0161,
      "velocity": 101,
      "chip": "ym2612"
    },
    {
      "channel": 3,
      "note": 66,
      "start": 22.715,
      "duration": 0.0161,
      "velocity": 101,
      "chip": "ym2612"
    },
    {
      "channel": 1,
      "note": 71,
      "start": 22.7173,
      "duration": 0.0161,
      "velocity": 101,
      "chip": "ym2612"
    },
    {
      "channel": 0,
      "note": 46,
      "start": 22.7288,
      "duration": 0.0161,
      "velocity": 115,
      "chip": "ym2612"
    },
    {
      "channel": 4,
      "note": 63,
      "start": 22.73,
      "duration": 0.0161,
      "velocity": 101,
      "chip": "ym2612"
    },
    {
      "channel": 3,
      "note": 66,
      "start": 22.7311,
      "duration": 0.0161,
      "velocity": 101,
      "chip": "ym2612"
    },
    {
      "channel": 1,
      "note": 71,
      "start": 22.7334,
      "duration": 0.0161,
      "velocity": 101,
      "chip": "ym2612"
    },
    {
      "channel": 0,
      "note": 47,
      "start": 22.7449,
      "duration": 0.0176,
      "velocity": 115,
      "chip": "ym2612"
    },
    {
      "channel": 4,
      "note": 63,
      "start": 22.7461,
      "duration": 0.0176,
      "velocity": 101,
      "chip": "ym2612"
    },
    {
      "channel": 3,
      "note": 66,
      "start": 22.7472,
      "duration": 0.0176,
      "velocity": 101,
      "chip": "ym2612"
    },
    {
      "channel": 1,
      "note": 71,
      "start": 22.7495,
      "duration": 0.0176,
      "velocity": 101,
      "chip": "ym2612"
    },
    {
      "channel": 0,
      "note": 47,
      "start": 22.7625,
      "duration": 0.0167,
      "velocity": 115,
      "chip": "ym2612"
    },
    {
      "channel": 4,
      "note": 63,
      "start": 22.7636,
      "duration": 0.0167,
      "velocity": 101,
      "chip": "ym2612"
    },
    {
      "channel": 3,
      "note": 66,
      "start": 22.7648,
      "duration": 0.0167,
      "velocity": 101,
      "chip": "ym2612"
    },
    {
      "channel": 1,
      "note": 71,
      "start": 22.7671,
      "duration": 0.0167,
      "velocity": 101,
      "chip": "ym2612"
    },
    {
      "channel": 0,
      "note": 47,
      "start": 22.7792,
      "duration": 0.0163,
      "velocity": 115,
      "chip": "ym2612"
    },
    {
      "channel": 4,
      "note": 63,
      "start": 22.7803,
      "duration": 0.0163,
      "velocity": 101,
      "chip": "ym2612"
    },
    {
      "channel": 3,
      "note": 66,
      "start": 22.7815,
      "duration": 0.0163,
      "velocity": 101,
      "chip": "ym2612"
    },
    {
      "channel": 1,
      "note": 71,
      "start": 22.7837,
      "duration": 0.0163,
      "velocity": 101,
      "chip": "ym2612"
    },
    {
      "channel": 0,
      "note": 48,
      "start": 22.7954,
      "duration": 0.016,
      "velocity": 115,
      "chip": "ym2612"
    },
    {
      "channel": 4,
      "note": 63,
      "start": 22.7966,
      "duration": 0.016,
      "velocity": 101,
      "chip": "ym2612"
    },
    {
      "channel": 3,
      "note": 66,
      "start": 22.7977,
      "duration": 0.016,
      "velocity": 101,
      "chip": "ym2612"
    },
    {
      "channel": 1,
      "note": 71,
      "start": 22.8,
      "duration": 0.016,
      "velocity": 101,
      "chip": "ym2612"
    },
    {
      "channel": 0,
      "note": 36,
      "start": 22.8115,
      "duration": 0.0168,
      "velocity": 115,
      "chip": "ym2612"
    },
    {
      "channel": 4,
      "note": 63,
      "start": 22.8126,
      "duration": 0.0168,
      "velocity": 101,
      "chip": "ym2612"
    },
    {
      "channel": 3,
      "note": 66,
      "start": 22.8138,
      "duration": 0.0168,
      "velocity": 101,
      "chip": "ym2612"
    },
    {
      "channel": 1,
      "note": 71,
      "start": 22.8161,
      "duration": 0.0168,
      "velocity": 101,
      "chip": "ym2612"
    },
    {
      "channel": 0,
      "note": 36,
      "start": 22.8283,
      "duration": 0.016,
      "velocity": 115,
      "chip": "ym2612"
    },
    {
      "channel": 4,
      "note": 63,
      "start": 22.8294,
      "duration": 0.016,
      "velocity": 101,
      "chip": "ym2612"
    },
    {
      "channel": 3,
      "note": 66,
      "start": 22.8306,
      "duration": 0.016,
      "velocity": 101,
      "chip": "ym2612"
    },
    {
      "channel": 1,
      "note": 71,
      "start": 22.8329,
      "duration": 0.016,
      "velocity": 101,
      "chip": "ym2612"
    },
    {
      "channel": 0,
      "note": 37,
      "start": 22.8443,
      "duration": 0.0134,
      "velocity": 115,
      "chip": "ym2612"
    },
    {
      "channel": 4,
      "note": 63,
      "start": 22.8454,
      "duration": 0.0158,
      "velocity": 101,
      "chip": "ym2612"
    },
    {
      "channel": 3,
      "note": 66,
      "start": 22.8466,
      "duration": 0.0158,
      "velocity": 101,
      "chip": "ym2612"
    },
    {
      "channel": 1,
      "note": 71,
      "start": 22.8489,
      "duration": 0.0158,
      "velocity": 101,
      "chip": "ym2612"
    },
    {
      "channel": 0,
      "note": 37,
      "start": 22.8577,
      "duration": 0.0161,
      "velocity": 115,
      "chip": "ym2612"
    },
    {
      "channel": 4,
      "note": 63,
      "start": 22.8612,
      "duration": 0.014,
      "velocity": 101,
      "chip": "ym2612"
    },
    {
      "channel": 3,
      "note": 66,
      "start": 22.8624,
      "duration": 0.014,
      "velocity": 101,
      "chip": "ym2612"
    },
    {
      "channel": 1,
      "note": 71,
      "start": 22.8646,
      "duration": 0.014,
      "velocity": 101,
      "chip": "ym2612"
    },
    {
      "channel": 0,
      "note": 38,
      "start": 22.8737,
      "duration": 0.0161,
      "velocity": 115,
      "chip": "ym2612"
    },
    {
      "channel": 4,
      "note": 63,
      "start": 22.8752,
      "duration": 0.0158,
      "velocity": 101,
      "chip": "ym2612"
    },
    {
      "channel": 3,
      "note": 66,
      "start": 22.8763,
      "duration": 0.0186,
      "velocity": 101,
      "chip": "ym2612"
    },
    {
      "channel": 1,
      "note": 71,
      "start": 22.8786,
      "duration": 0.0185,
      "velocity": 101,
      "chip": "ym2612"
    },
    {
      "channel": 0,
      "note": 38,
      "start": 22.8898,
      "duration": 0.0161,
      "velocity": 115,
      "chip": "ym2612"
    },
    {
      "channel": 4,
      "note": 63,
      "start": 22.891,
      "duration": 0.0161,
      "velocity": 101,
      "chip": "ym2612"
    },
    {
      "channel": 3,
      "note": 66,
      "start": 22.8949,
      "duration": 0.0161,
      "velocity": 101,
      "chip": "ym2612"
    },
    {
      "channel": 1,
      "note": 71,
      "start": 22.8972,
      "duration": 0.0161,
      "velocity": 101,
      "chip": "ym2612"
    },
    {
      "channel": 0,
      "note": 39,
      "start": 22.9059,
      "duration": 0.0161,
      "velocity": 115,
      "chip": "ym2612"
    },
    {
      "channel": 4,
      "note": 63,
      "start": 22.9071,
      "duration": 0.0161,
      "velocity": 101,
      "chip": "ym2612"
    },
    {
      "channel": 3,
      "note": 66,
      "start": 22.911,
      "duration": 0.0133,
      "velocity": 101,
      "chip": "ym2612"
    },
    {
      "channel": 1,
      "note": 71,
      "start": 22.9132,
      "duration": 0.0158,
      "velocity": 101,
      "chip": "ym2612"
    },
    {
      "channel": 0,
      "note": 39,
      "start": 22.922,
      "duration": 0.0161,
      "velocity": 115,
      "chip": "ym2612"
    },
    {
      "channel": 4,
      "note": 63,
      "start": 22.9232,
      "duration": 0.0161,
      "velocity": 101,
      "chip": "ym2612"
    },
    {
      "channel": 3,
      "note": 66,
      "start": 22.9243,
      "duration": 0.0161,
      "velocity": 101,
      "chip": "ym2612"
    },
    {
      "channel": 1,
      "note": 71,
      "start": 22.929,
      "duration": 0.014,
      "velocity": 101,
      "chip": "ym2612"
    },
    {
      "channel": 0,
      "note": 40,
      "start": 22.9381,
      "duration": 0.0161,
      "velocity": 115,
      "chip": "ym2612"
    },
    {
      "channel": 4,
      "note": 63,
      "start": 22.9393,
      "duration": 0.0161,
      "velocity": 101,
      "chip": "ym2612"
    },
    {
      "channel": 3,
      "note": 66,
      "start": 22.9404,
      "duration": 0.0162,
      "velocity": 101,
      "chip": "ym2612"
    },
    {
      "channel": 1,
      "note": 71,
      "start": 22.943,
      "duration": 0.0186,
      "velocity": 101,
      "chip": "ym2612"
    },
    {
      "channel": 0,
      "note": 40,
      "start": 22.9542,
      "duration": 0.0161,
      "velocity": 115,
      "chip": "ym2612"
    },
    {
      "channel": 4,
      "note": 63,
      "start": 22.9554,
      "duration": 0.0161,
      "velocity": 101,
      "chip": "ym2612"
    },
    {
      "channel": 3,
      "note": 66,
      "start": 22.9566,
      "duration": 0.0161,
      "velocity": 101,
      "chip": "ym2612"
    },
    {
      "channel": 1,
      "note": 71,
      "start": 22.9616,
      "duration": 0.0161,
      "velocity": 101,
      "chip": "ym2612"
    },
    {
      "channel": 0,
      "note": 40,
      "start": 22.9703,
      "duration": 0.0161,
      "velocity": 115,
      "chip": "ym2612"
    },
    {
      "channel": 4,
      "note": 63,
      "start": 22.9715,
      "duration": 0.0161,
      "velocity": 101,
      "chip": "ym2612"
    },
    {
      "channel": 3,
      "note": 66,
      "start": 22.9727,
      "duration": 0.0161,
      "velocity": 101,
      "chip": "ym2612"
    },
    {
      "channel": 1,
      "note": 71,
      "start": 22.9777,
      "duration": 0.0134,
      "velocity": 101,
      "chip": "ym2612"
    },
    {
      "channel": 0,
      "note": 41,
      "start": 22.9865,
      "duration": 0.0161,
      "velocity": 115,
      "chip": "ym2612"
    },
    {
      "channel": 4,
      "note": 63,
      "start": 22.9876,
      "duration": 0.0161,
      "velocity": 101,
      "chip": "ym2612"
    },
    {
      "channel": 3,
      "note": 66,
      "start": 22.9888,
      "duration": 0.0161,
      "velocity": 101,
      "chip": "ym2612"
    },
    {
      "channel": 1,
      "note": 71,
      "start": 22.991,
      "duration": 0.0161,
      "velocity": 101,
      "chip": "ym2612"
    },
    {
      "channel": 0,
      "note": 41,
      "start": 23.0026,
      "duration": 0.0161,
      "velocity": 115,
      "chip": "ym2612"
    },
    {
      "channel": 4,
      "note": 63,
      "start": 23.0037,
      "duration": 0.0161,
      "velocity": 101,
      "chip": "ym2612"
    },
    {
      "channel": 3,
      "note": 66,
      "start": 23.0049,
      "duration": 0.0161,
      "velocity": 101,
      "chip": "ym2612"
    },
    {
      "channel": 1,
      "note": 71,
      "start": 23.0071,
      "duration": 0.0161,
      "velocity": 101,
      "chip": "ym2612"
    },
    {
      "channel": 0,
      "note": 42,
      "start": 23.0187,
      "duration": 0.0178,
      "velocity": 124,
      "chip": "ym2612"
    },
    {
      "channel": 4,
      "note": 63,
      "start": 23.0198,
      "duration": 0.0179,
      "velocity": 101,
      "chip": "ym2612"
    },
    {
      "channel": 3,
      "note": 66,
      "start": 23.021,
      "duration": 0.0179,
      "velocity": 101,
      "chip": "ym2612"
    },
    {
      "channel": 1,
      "note": 71,
      "start": 23.0232,
      "duration": 0.0206,
      "velocity": 101,
      "chip": "ym2612"
    },
    {
      "channel": 0,
      "note": 84,
      "start": 23.0365,
      "duration": 0.0144,
      "velocity": 124,
      "chip": "ym2612"
    },
    {
      "channel": 4,
      "note": 63,
      "start": 23.0377,
      "duration": 0.0144,
      "velocity": 101,
      "chip": "ym2612"
    },
    {
      "channel": 3,
      "note": 66,
      "start": 23.0388,
      "duration": 0.0144,
      "velocity": 101,
      "chip": "ym2612"
    },
    {
      "channel": 1,
      "note": 71,
      "start": 23.0439,
      "duration": 0.0116,
      "velocity": 101,
      "chip": "ym2612"
    },
    {
      "channel": 0,
      "note": 82,
      "start": 23.0509,
      "duration": 0.016,
      "velocity": 124,
      "chip": "ym2612"
    },
    {
      "channel": 4,
      "note": 63,
      "start": 23.0521,
      "duration": 0.016,
      "velocity": 101,
      "chip": "ym2612"
    },
    {
      "channel": 3,
      "note": 66,
      "start": 23.0532,
      "duration": 0.016,
      "velocity": 101,
      "chip": "ym2612"
    },
    {
      "channel": 1,
      "note": 71,
      "start": 23.0555,
      "duration": 0.016,
      "velocity": 101,
      "chip": "ym2612"
    },
    {
      "channel": 0,
      "note": 80,
      "start": 23.0669,
      "duration": 0.0161,
      "velocity": 124,
      "chip": "ym2612"
    },
    {
      "channel": 4,
      "note": 63,
      "start": 23.0681,
      "duration": 0.0161,
      "velocity": 101,
      "chip": "ym2612"
    },
    {
      "channel": 3,
      "note": 66,
      "start": 23.0692,
      "duration": 0.0162,
      "velocity": 101,
      "chip": "ym2612"
    },
    {
      "channel": 1,
      "note": 71,
      "start": 23.0715,
      "duration": 0.0161,
      "velocity": 101,
      "chip": "ym2612"
    },
    {
      "channel": 0,
      "note": 77,
      "start": 23.083,
      "duration": 0.0161,
      "velocity": 124,
      "chip": "ym2612"
    },
    {
      "channel": 4,
      "note": 63,
      "start": 23.0842,
      "duration": 0.0161,
      "velocity": 101,
      "chip": "ym2612"
    },
    {
      "channel": 3,
      "note": 66,
      "start": 23.0854,
      "duration": 0.0161,
      "velocity": 101,
      "chip": "ym2612"
    },
    {
      "channel": 1,
      "note": 71,
      "start": 23.0876,
      "duration": 0.0161,
      "velocity": 101,
      "chip": "ym2612"
    },
    {
      "channel": 0,
      "note": 75,
      "start": 23.0991,
      "duration": 0.0161,
      "velocity": 124,
      "chip": "ym2612"
    },
    {
      "channel": 4,
      "note": 63,
      "start": 23.1003,
      "duration": 0.0161,
      "velocity": 101,
      "chip": "ym2612"
    },
    {
      "channel": 3,
      "note": 66,
      "start": 23.1015,
      "duration": 0.0161,
      "velocity": 101,
      "chip": "ym2612"
    },
    {
      "channel": 1,
      "note": 71,
      "start": 23.1037,
      "duration": 0.0161,
      "velocity": 101,
      "chip": "ym2612"
    },
    {
      "channel": 0,
      "note": 72,
      "start": 23.1153,
      "duration": 0.0161,
      "velocity": 124,
      "chip": "ym2612"
    },
    {
      "channel": 4,
      "note": 63,
      "start": 23.1164,
      "duration": 0.0161,
      "velocity": 101,
      "chip": "ym2612"
    },
    {
      "channel": 3,
      "note": 66,
      "start": 23.1176,
      "duration": 0.0161,
      "velocity": 101,
      "chip": "ym2612"
    },
    {
      "channel": 1,
      "note": 71,
      "start": 23.1199,
      "duration": 0.0161,
      "velocity": 101,
      "chip": "ym2612"
    },
    {
      "channel": 0,
      "note": 70,
      "start": 23.1314,
      "duration": 0.0161,
      "velocity": 124,
      "chip": "ym2612"
    },
    {
      "channel": 4,
      "note": 63,
      "start": 23.1325,
      "duration": 0.0161,
      "velocity": 101,
      "chip": "ym2612"
    },
    {
      "channel": 3,
      "note": 66,
      "start": 23.1337,
      "duration": 0.0161,
      "velocity": 101,
      "chip": "ym2612"
    },
    {
      "channel": 1,
      "note": 71,
      "start": 23.136,
      "duration": 0.0161,
      "velocity": 101,
      "chip": "ym2612"
    },
    {
      "channel": 0,
      "note": 68,
      "start": 23.1475,
      "duration": 0.0161,
      "velocity": 124,
      "chip": "ym2612"
    },
    {
      "channel": 4,
      "note": 63,
      "start": 23.1486,
      "duration": 0.0161,
      "velocity": 101,
      "chip": "ym2612"
    },
    {
      "channel": 3,
      "note": 66,
      "start": 23.1498,
      "duration": 0.0161,
      "velocity": 101,
      "chip": "ym2612"
    },
    {
      "channel": 1,
      "note": 71,
      "start": 23.1521,
      "duration": 0.0161,
      "velocity": 101,
      "chip": "ym2612"
    },
    {
      "channel": 0,
      "note": 65,
      "start": 23.1636,
      "duration": 0.0161,
      "velocity": 124,
      "chip": "ym2612"
    },
    {
      "channel": 4,
      "note": 63,
      "start": 23.1647,
      "duration": 0.0161,
      "velocity": 101,
      "chip": "ym2612"
    },
    {
      "channel": 3,
      "note": 66,
      "start": 23.1659,
      "duration": 0.0161,
      "velocity": 101,
      "chip": "ym2612"
    },
    {
      "channel": 1,
      "note": 71,
      "start": 23.1681,
      "duration": 0.0161,
      "velocity": 101,
      "chip": "ym2612"
    },
    {
      "channel": 0,
      "note": 63,
      "start": 23.1797,
      "duration": 0.0153,
      "velocity": 1,
      "chip": "ym2612"
    },
    {
      "channel": 4,
      "note": 63,
      "start": 23.1808,
      "duration": 0.0153,
      "velocity": 101,
      "chip": "ym2612"
    },
    {
      "channel": 3,
      "note": 66,
      "start": 23.182,
      "duration": 0.0153,
      "velocity": 101,
      "chip": "ym2612"
    },
    {
      "channel": 1,
      "note": 71,
      "start": 23.1842,
      "duration": 0.0153,
      "velocity": 101,
      "chip": "ym2612"
    },
    {
      "channel": 4,
      "note": 63,
      "start": 23.1961,
      "duration": 0.0152,
      "velocity": 101,
      "chip": "ym2612"
    },
    {
      "channel": 3,
      "note": 66,
      "start": 23.1973,
      "duration": 0.0152,
      "velocity": 101,
      "chip": "ym2612"
    },
    {
      "channel": 1,
      "note": 71,
      "start": 23.1995,
      "duration": 0.0153,
      "velocity": 101,
      "chip": "ym2612"
    },
    {
      "channel": 4,
      "note": 63,
      "start": 23.2113,
      "duration": 0.0173,
      "velocity": 101,
      "chip": "ym2612"
    },
    {
      "channel": 3,
      "note": 66,
      "start": 23.2125,
      "duration": 0.0173,
      "velocity": 101,
      "chip": "ym2612"
    },
    {
      "channel": 1,
      "note": 71,
      "start": 23.2148,
      "duration": 0.0173,
      "velocity": 101,
      "chip": "ym2612"
    },
    {
      "channel": 4,
      "note": 63,
      "start": 23.2286,
      "duration": 0.0167,
      "velocity": 101,
      "chip": "ym2612"
    },
    {
      "channel": 3,
      "note": 66,
      "start": 23.2298,
      "duration": 0.0167,
      "velocity": 101,
      "chip": "ym2612"
    },
    {
      "channel": 1,
      "note": 71,
      "start": 23.2321,
      "duration": 0.0167,
      "velocity": 101,
      "chip": "ym2612"
    },
    {
      "channel": 4,
      "note": 63,
      "start": 23.2453,
      "duration": 0.0198,
      "velocity": 101,
      "chip": "ym2612"
    },
    {
      "channel": 3,
      "note": 66,
      "start": 23.2465,
      "duration": 0.0198,
      "velocity": 101,
      "chip": "ym2612"
    },
    {
      "channel": 1,
      "note": 71,
      "start": 23.2488,
      "duration": 0.0197,
      "velocity": 101,
      "chip": "ym2612"
    },
    {
      "channel": 0,
      "note": 36,
      "start": 23.2639,
      "duration": 0.0128,
      "velocity": 115,
      "chip": "ym2612"
    },
    {
      "channel": 4,
      "note": 63,
      "start": 23.2651,
      "duration": 0.0127,
      "velocity": 101,
      "chip": "ym2612"
    },
    {
      "channel": 3,
      "note": 66,
      "start": 23.2662,
      "duration": 0.0127,
      "velocity": 101,
      "chip": "ym2612"
    },
    {
      "channel": 1,
      "note": 71,
      "start": 23.2685,
      "duration": 0.0128,
      "velocity": 101,
      "chip": "ym2612"
    },
    {
      "channel": 0,
      "note": 36,
      "start": 23.2767,
      "duration": 0.0185,
      "velocity": 115,
      "chip": "ym2612"
    },
    {
      "channel": 4,
      "note": 63,
      "start": 23.2778,
      "duration": 0.0184,
      "velocity": 101,
      "chip": "ym2612"
    },
    {
      "channel": 3,
      "note": 66,
      "start": 23.279,
      "duration": 0.0185,
      "velocity": 101,
      "chip": "ym2612"
    },
    {
      "channel": 1,
      "note": 71,
      "start": 23.2812,
      "duration": 0.0185,
      "velocity": 101,
      "chip": "ym2612"
    },
    {
      "channel": 0,
      "note": 37,
      "start": 23.2951,
      "duration": 0.0161,
      "velocity": 115,
      "chip": "ym2612"
    },
    {
      "channel": 4,
      "note": 63,
      "start": 23.2963,
      "duration": 0.0161,
      "velocity": 101,
      "chip": "ym2612"
    },
    {
      "channel": 3,
      "note": 66,
      "start": 23.2974,
      "duration": 0.0161,
      "velocity": 101,
      "chip": "ym2612"
    },
    {
      "channel": 1,
      "note": 71,
      "start": 23.2997,
      "duration": 0.0161,
      "velocity": 101,
      "chip": "ym2612"
    },
    {
      "channel": 0,
      "note": 37,
      "start": 23.3112,
      "duration": 0.0157,
      "velocity": 115,
      "chip": "ym2612"
    },
    {
      "channel": 4,
      "note": 63,
      "start": 23.3124,
      "duration": 0.0158,
      "velocity": 101,
      "chip": "ym2612"
    },
    {
      "channel": 3,
      "note": 66,
      "start": 23.3135,
      "duration": 0.0158,
      "velocity": 101,
      "chip": "ym2612"
    },
    {
      "channel": 1,
      "note": 71,
      "start": 23.3158,
      "duration": 0.0158,
      "velocity": 101,
      "chip": "ym2612"
    },
    {
      "channel": 0,
      "note": 38,
      "start": 23.3269,
      "duration": 0.0137,
      "velocity": 115,
      "chip": "ym2612"
    },
    {
      "channel": 4,
      "note": 63,
      "start": 23.3281,
      "duration": 0.014,
      "velocity": 101,
      "chip": "ym2612"
    },
    {
      "channel": 3,
      "note": 66,
      "start": 23.3293,
      "duration": 0.014,
      "velocity": 101,
      "chip": "ym2612"
    },
    {
      "channel": 1,
      "note": 71,
      "start": 23.3316,
      "duration": 0.014,
      "velocity": 101,
      "chip": "ym2612"
    },
    {
      "channel": 0,
      "note": 38,
      "start": 23.3407,
      "duration": 0.0161,
      "velocity": 115,
      "chip": "ym2612"
    },
    {
      "channel": 4,
      "note": 63,
      "start": 23.3421,
      "duration": 0.0186,
      "velocity": 101,
      "chip": "ym2612"
    },
    {
      "channel": 3,
      "note": 66,
      "start": 23.3433,
      "duration": 0.0186,
      "velocity": 101,
      "chip": "ym2612"
    },
    {
      "channel": 1,
      "note": 71,
      "start": 23.3456,
      "duration": 0.0185,
      "velocity": 101,
      "chip": "ym2612"
    },
    {
      "channel": 0,
      "note": 39,
      "start": 23.3568,
      "duration": 0.0161,
      "velocity": 115,
      "chip": "ym2612"
    },
    {
      "channel": 4,
      "note": 63,
      "start": 23.3607,
      "duration": 0.0133,
      "velocity": 101,
      "chip": "ym2612"
    },
    {
      "channel": 3,
      "note": 66,
      "start": 23.3619,
      "duration": 0.0161,
      "velocity": 101,
      "chip": "ym2612"
    },
    {
      "channel": 1,
      "note": 71,
      "start": 23.3641,
      "duration": 0.0161,
      "velocity": 101,
      "chip": "ym2612"
    },
    {
      "channel": 0,
      "note": 39,
      "start": 23.3729,
      "duration": 0.0161,
      "velocity": 115,
      "chip": "ym2612"
    },
    {
      "channel": 4,
      "note": 63,
      "start": 23.374,
      "duration": 0.0161,
      "velocity": 101,
      "chip": "ym2612"
    },
    {
      "channel": 3,
      "note": 66,
      "start": 23.378,
      "duration": 0.0157,
      "velocity": 101,
      "chip": "ym2612"
    },
    {
      "channel": 1,
      "note": 71,
      "start": 23.3802,
      "duration": 0.0158,
      "velocity": 101,
      "chip": "ym2612"
    },
    {
      "channel": 0,
      "note": 40,
      "start": 23.389,
      "duration": 0.0161,
      "velocity": 115,
      "chip": "ym2612"
    },
    {
      "channel": 4,
      "note": 63,
      "start": 23.3902,
      "duration": 0.0161,
      "velocity": 101,
      "chip": "ym2612"
    },
    {
      "channel": 3,
      "note": 66,
      "start": 23.3937,
      "duration": 0.0137,
      "velocity": 101,
      "chip": "ym2612"
    },
    {
      "channel": 1,
      "note": 71,
      "start": 23.3959,
      "duration": 0.0141,
      "velocity": 101,
      "chip": "ym2612"
    },
    {
      "channel": 0,
      "note": 40,
      "start": 23.4051,
      "duration": 0.016,
      "velocity": 115,
      "chip": "ym2612"
    },
    {
      "channel": 4,
      "note": 63,
      "start": 23.4063,
      "duration": 0.0161,
      "velocity": 101,
      "chip": "ym2612"
    },
    {
      "channel": 3,
      "note": 66,
      "start": 23.4074,
      "duration": 0.0161,
      "velocity": 101,
      "chip": "ym2612"
    },
    {
      "channel": 1,
      "note": 71,
      "start": 23.41,
      "duration": 0.0185,
      "velocity": 101,
      "chip": "ym2612"
    },
    {
      "channel": 0,
      "note": 40,
      "start": 23.4211,
      "duration": 0.0162,
      "velocity": 115,
      "chip": "ym2612"
    },
    {
      "channel": 4,
      "note": 63,
      "start": 23.4224,
      "duration": 0.0161,
      "velocity": 101,
      "chip": "ym2612"
    },
    {
      "channel": 3,
      "note": 66,
      "start": 23.4235,
      "duration": 0.0161,
      "velocity": 101,
      "chip": "ym2612"
    },
    {
      "channel": 1,
      "note": 71,
      "start": 23.4285,
      "duration": 0.0161,
      "velocity": 101,
      "chip": "ym2612"
    },
    {
      "channel": 0,
      "note": 41,
      "start": 23.4373,
      "duration": 0.0161,
      "velocity": 115,
      "chip": "ym2612"
    },
    {
      "channel": 4,
      "note": 63,
      "start": 23.4384,
      "duration": 0.0161,
      "velocity": 101,
      "chip": "ym2612"
    },
    {
      "channel": 3,
      "note": 66,
      "start": 23.4396,
      "duration": 0.0161,
      "velocity": 101,
      "chip": "ym2612"
    },
    {
      "channel": 1,
      "note": 71,
      "start": 23.4446,
      "duration": 0.0157,
      "velocity": 101,
      "chip": "ym2612"
    },
    {
      "channel": 0,
      "note": 41,
      "start": 23.4534,
      "duration": 0.0161,
      "velocity": 115,
      "chip": "ym2612"
    },
    {
      "channel": 4,
      "note": 63,
      "start": 23.4545,
      "duration": 0.0161,
      "velocity": 101,
      "chip": "ym2612"
    },
    {
      "channel": 3,
      "note": 66,
      "start": 23.4557,
      "duration": 0.0161,
      "velocity": 101,
      "chip": "ym2612"
    },
    {
      "channel": 1,
      "note": 71,
      "start": 23.4603,
      "duration": 0.0137,
      "velocity": 101,
      "chip": "ym2612"
    },
    {
      "channel": 0,
      "note": 42,
      "start": 23.4695,
      "duration": 0.0179,
      "velocity": 115,
      "chip": "ym2612"
    },
    {
      "channel": 4,
      "note": 63,
      "start": 23.4706,
      "duration": 0.0181,
      "velocity": 101,
      "chip": "ym2612"
    },
    {
      "channel": 3,
      "note": 66,
      "start": 23.4718,
      "duration": 0.0184,
      "velocity": 101,
      "chip": "ym2612"
    },
    {
      "channel": 1,
      "note": 71,
      "start": 23.4741,
      "duration": 0.0216,
      "velocity": 101,
      "chip": "ym2612"
    },
    {
      "channel": 0,
      "note": 36,
      "start": 23.4874,
      "duration": 0.0144,
      "velocity": 115,
      "chip": "ym2612"
    },
    {
      "channel": 4,
      "note": 56,
      "start": 23.4888,
      "duration": 0.0141,
      "velocity": 101,
      "chip": "ym2612"
    },
    {
      "channel": 3,
      "note": 59,
      "start": 23.4902,
      "duration": 0.0139,
      "velocity": 101,
      "chip": "ym2612"
    },
    {
      "channel": 1,
      "note": 64,
      "start": 23.4957,
      "duration": 0.0109,
      "velocity": 101,
      "chip": "ym2612"
    },
    {
      "channel": 0,
      "note": 36,
      "start": 23.5017,
      "duration": 0.016,
      "velocity": 115,
      "chip": "ym2612"
    },
    {
      "channel": 4,
      "note": 56,
      "start": 23.5029,
      "duration": 0.016,
      "velocity": 101,
      "chip": "ym2612"
    },
    {
      "channel": 3,
      "note": 59,
      "start": 23.5041,
      "duration": 0.016,
      "velocity": 101,
      "chip": "ym2612"
    },
    {
      "channel": 1,
      "note": 64,
      "start": 23.5066,
      "duration": 0.0158,
      "velocity": 101,
      "chip": "ym2612"
    },
    {
      "channel": 0,
      "note": 37,
      "start": 23.5178,
      "duration": 0.0161,
      "velocity": 115,
      "chip": "ym2612"
    },
    {
      "channel": 4,
      "note": 56,
      "start": 23.519,
      "duration": 0.0161,
      "velocity": 101,
      "chip": "ym2612"
    },
    {
      "channel": 3,
      "note": 59,
      "start": 23.5201,
      "duration": 0.0161,
      "velocity": 101,
      "chip": "ym2612"
    },
    {
      "channel": 1,
      "note": 64,
      "start": 23.5224,
      "duration": 0.0161,
      "velocity": 101,
      "chip": "ym2612"
    },
    {
      "channel": 0,
      "note": 37,
      "start": 23.5339,
      "duration": 0.0161,
      "velocity": 115,
      "chip": "ym2612"
    },
    {
      "channel": 4,
      "note": 56,
      "start": 23.5351,
      "duration": 0.0161,
      "velocity": 101,
      "chip": "ym2612"
    },
    {
      "channel": 3,
      "note": 59,
      "start": 23.5362,
      "duration": 0.0161,
      "velocity": 101,
      "chip": "ym2612"
    },
    {
      "channel": 1,
      "note": 64,
      "start": 23.5384,
      "duration": 0.0161,
      "velocity": 101,
      "chip": "ym2612"
    },
    {
      "channel": 0,
      "note": 38,
      "start": 23.55,
      "duration": 0.0162,
      "velocity": 115,
      "chip": "ym2612"
    },
    {
      "channel": 4,
      "note": 56,
      "start": 23.5512,
      "duration": 0.0161,
      "velocity": 101,
      "chip": "ym2612"
    },
    {
      "channel": 3,
      "note": 59,
      "start": 23.5523,
      "duration": 0.0161,
      "velocity": 101,
      "chip": "ym2612"
    },
    {
      "channel": 1,
      "note": 64,
      "start": 23.5545,
      "duration": 0.0162,
      "velocity": 101,
      "chip": "ym2612"
    },
    {
      "channel": 0,
      "note": 38,
      "start": 23.5661,
      "duration": 0.0161,
      "velocity": 115,
      "chip": "ym2612"
    },
    {
      "channel": 4,
      "note": 56,
      "start": 23.5673,
      "duration": 0.0161,
      "velocity": 101,
      "chip": "ym2612"
    },
    {
      "channel": 3,
      "note": 59,
      "start": 23.5684,
      "duration": 0.0161,
      "velocity": 101,
      "chip": "ym2612"
    },
    {
      "channel": 1,
      "note": 64,
      "start": 23.5707,
      "duration": 0.0161,
      "velocity": 101,
      "chip": "ym2612"
    },
    {
      "channel": 0,
      "note": 39,
      "start": 23.5822,
      "duration": 0.0161,
      "velocity": 115,
      "chip": "ym2612"
    },
    {
      "channel": 4,
      "note": 56,
      "start": 23.5834,
      "duration": 0.0161,
      "velocity": 101,
      "chip": "ym2612"
    },
    {
      "channel": 3,
      "note": 59,
      "start": 23.5845,
      "duration": 0.0161,
      "velocity": 101,
      "chip": "ym2612"
    },
    {
      "channel": 1,
      "note": 64,
      "start": 23.5868,
      "duration": 0.0161,
      "velocity": 101,
      "chip": "ym2612"
    },
    {
      "channel": 0,
      "note": 39,
      "start": 23.5983,
      "duration": 0.0161,
      "velocity": 115,
      "chip": "ym2612"
    },
    {
      "channel": 4,
      "note": 56,
      "start": 23.5995,
      "duration": 0.0161,
      "velocity": 101,
      "chip": "ym2612"
    },
    {
      "channel": 3,
      "note": 59,
      "start": 23.6006,
      "duration": 0.0161,
      "velocity": 101,
      "chip": "ym2612"
    },
    {
      "channel": 1,
      "note": 64,
      "start": 23.6029,
      "duration": 0.0161,
      "velocity": 101,
      "chip": "ym2612"
    },
    {
      "channel": 0,
      "note": 40,
      "start": 23.6144,
      "duration": 0.0161,
      "velocity": 115,
      "chip": "ym2612"
    },
    {
      "channel": 4,
      "note": 56,
      "start": 23.6155,
      "duration": 0.0161,
      "velocity": 101,
      "chip": "ym2612"
    },
    {
      "channel": 3,
      "note": 59,
      "start": 23.6167,
      "duration": 0.0161,
      "velocity": 101,
      "chip": "ym2612"
    },
    {
      "channel": 1,
      "note": 64,
      "start": 23.619,
      "duration": 0.0161,
      "velocity": 101,
      "chip": "ym2612"
    },
    {
      "channel": 0,
      "note": 40,
      "start": 23.6305,
      "duration": 0.0161,
      "velocity": 115,
      "chip": "ym2612"
    },
    {
      "channel": 4,
      "note": 56,
      "start": 23.6316,
      "duration": 0.0161,
      "velocity": 101,
      "chip": "ym2612"
    },
    {
      "channel": 3,
      "note": 59,
      "start": 23.6328,
      "duration": 0.0161,
      "velocity": 101,
      "chip": "ym2612"
    },
    {
      "channel": 1,
      "note": 64,
      "start": 23.6351,
      "duration": 0.0161,
      "velocity": 101,
      "chip": "ym2612"
    },
    {
      "channel": 0,
      "note": 40,
      "start": 23.6466,
      "duration": 0.0161,
      "velocity": 115,
      "chip": "ym2612"
    },
    {
      "channel": 4,
      "note": 56,
      "start": 23.6477,
      "duration": 0.0162,
      "velocity": 101,
      "chip": "ym2612"
    },
    {
      "channel": 3,
      "note": 59,
      "start": 23.6489,
      "duration": 0.0162,
      "velocity": 101,
      "chip": "ym2612"
    },
    {
      "channel": 1,
      "note": 64,
      "start": 23.6512,
      "duration": 0.0161,
      "velocity": 101,
      "chip": "ym2612"
    },
    {
      "channel": 0,
      "note": 41,
      "start": 23.6627,
      "duration": 0.0161,
      "velocity": 115,
      "chip": "ym2612"
    },
    {
      "channel": 4,
      "note": 56,
      "start": 23.6639,
      "duration": 0.0161,
      "velocity": 101,
      "chip": "ym2612"
    },
    {
      "channel": 3,
      "note": 59,
      "start": 23.665,
      "duration": 0.0161,
      "velocity": 101,
      "chip": "ym2612"
    },
    {
      "channel": 1,
      "note": 64,
      "start": 23.6673,
      "duration": 0.0161,
      "velocity": 101,
      "chip": "ym2612"
    },
    {
      "channel": 0,
      "note": 41,
      "start": 23.6788,
      "duration": 0.0171,
      "velocity": 115,
      "chip": "ym2612"
    },
    {
      "channel": 4,
      "note": 56,
      "start": 23.68,
      "duration": 0.017,
      "velocity": 101,
      "chip": "ym2612"
    },
    {
      "channel": 3,
      "note": 59,
      "start": 23.6811,
      "duration": 0.017,
      "velocity": 101,
      "chip": "ym2612"
    },
    {
      "channel": 1,
      "note": 64,
      "start": 23.6834,
      "duration": 0.0171,
      "velocity": 101,
      "chip": "ym2612"
    },
    {
      "channel": 0,
      "note": 42,
      "start": 23.6958,
      "duration": 0.0167,
      "velocity": 115,
      "chip": "ym2612"
    },
    {
      "channel": 4,
      "note": 56,
      "start": 23.697,
      "duration": 0.0167,
      "velocity": 101,
      "chip": "ym2612"
    },
    {
      "channel": 3,
      "note": 59,
      "start": 23.6981,
      "duration": 0.0167,
      "velocity": 101,
      "chip": "ym2612"
    },
    {
      "channel": 1,
      "note": 64,
      "start": 23.7004,
      "duration": 0.0167,
      "velocity": 101,
      "chip": "ym2612"
    },
    {
      "channel": 0,
      "note": 42,
      "start": 23.7125,
      "duration": 0.0163,
      "velocity": 115,
      "chip": "ym2612"
    },
    {
      "channel": 4,
      "note": 56,
      "start": 23.7136,
      "duration": 0.0163,
      "velocity": 101,
      "chip": "ym2612"
    },
    {
      "channel": 3,
      "note": 59,
      "start": 23.7148,
      "duration": 0.0163,
      "velocity": 101,
      "chip": "ym2612"
    },
    {
      "channel": 1,
      "note": 64,
      "start": 23.7171,
      "duration": 0.0163,
      "velocity": 101,
      "chip": "ym2612"
    },
    {
      "channel": 0,
      "note": 43,
      "start": 23.7288,
      "duration": 0.0146,
      "velocity": 115,
      "chip": "ym2612"
    },
    {
      "channel": 4,
      "note": 56,
      "start": 23.7299,
      "duration": 0.0146,
      "velocity": 101,
      "chip": "ym2612"
    },
    {
      "channel": 3,
      "note": 59,
      "start": 23.7311,
      "duration": 0.0146,
      "velocity": 101,
      "chip": "ym2612"
    },
    {
      "channel": 1,
      "note": 64,
      "start": 23.7334,
      "duration": 0.0146,
      "velocity": 101,
      "chip": "ym2612"
    },
    {
      "channel": 0,
      "note": 43,
      "start": 23.7434,
      "duration": 0.0186,
      "velocity": 115,
      "chip": "ym2612"
    },
    {
      "channel": 4,
      "note": 56,
      "start": 23.7446,
      "duration": 0.0186,
      "velocity": 101,
      "chip": "ym2612"
    },
    {
      "channel": 3,
      "note": 59,
      "start": 23.7457,
      "duration": 0.0186,
      "velocity": 101,
      "chip": "ym2612"
    },
    {
      "channel": 1,
      "note": 64,
      "start": 23.748,
      "duration": 0.0186,
      "velocity": 101,
      "chip": "ym2612"
    },
    {
      "channel": 0,
      "note": 44,
      "start": 23.762,
      "duration": 0.0161,
      "velocity": 115,
      "chip": "ym2612"
    },
    {
      "channel": 4,
      "note": 56,
      "start": 23.7632,
      "duration": 0.0161,
      "velocity": 101,
      "chip": "ym2612"
    },
    {
      "channel": 3,
      "note": 59,
      "start": 23.7643,
      "duration": 0.0162,
      "velocity": 101,
      "chip": "ym2612"
    },
    {
      "channel": 1,
      "note": 64,
      "start": 23.7666,
      "duration": 0.0161,
      "velocity": 101,
      "chip": "ym2612"
    },
    {
      "channel": 0,
      "note": 44,
      "start": 23.7781,
      "duration": 0.0158,
      "velocity": 115,
      "chip": "ym2612"
    },
    {
      "channel": 4,
      "note": 56,
      "start": 23.7793,
      "duration": 0.0157,
      "velocity": 101,
      "chip": "ym2612"
    },
    {
      "channel": 3,
      "note": 59,
      "start": 23.7805,
      "duration": 0.0157,
      "velocity": 101,
      "chip": "ym2612"
    },
    {
      "channel": 1,
      "note": 64,
      "start": 23.7827,
      "duration": 0.0158,
      "velocity": 101,
      "chip": "ym2612"
    },
    {
      "channel": 0,
      "note": 44,
      "start": 23.7939,
      "duration": 0.0137,
      "velocity": 115,
      "chip": "ym2612"
    },
    {
      "channel": 4,
      "note": 56,
      "start": 23.7951,
      "duration": 0.0141,
      "velocity": 101,
      "chip": "ym2612"
    },
    {
      "channel": 3,
      "note": 59,
      "start": 23.7962,
      "duration": 0.0141,
      "velocity": 101,
      "chip": "ym2612"
    },
    {
      "channel": 1,
      "note": 64,
      "start": 23.7985,
      "duration": 0.014,
      "velocity": 101,
      "chip": "ym2612"
    },
    {
      "channel": 0,
      "note": 45,
      "start": 23.8076,
      "duration": 0.0161,
      "velocity": 115,
      "chip": "ym2612"
    },
    {
      "channel": 4,
      "note": 56,
      "start": 23.8091,
      "duration": 0.0185,
      "velocity": 101,
      "chip": "ym2612"
    },
    {
      "channel": 3,
      "note": 59,
      "start": 23.8103,
      "duration": 0.0185,
      "velocity": 101,
      "chip": "ym2612"
    },
    {
      "channel": 1,
      "note": 64,
      "start": 23.8125,
      "duration": 0.0185,
      "velocity": 101,
      "chip": "ym2612"
    },
    {
      "channel": 0,
      "note": 45,
      "start": 23.8237,
      "duration": 0.0161,
      "velocity": 115,
      "chip": "ym2612"
    },
    {
      "channel": 4,
      "note": 56,
      "start": 23.8276,
      "duration": 0.0134,
      "velocity": 101,
      "chip": "ym2612"
    },
    {
      "channel": 3,
      "note": 59,
      "start": 23.8288,
      "duration": 0.0161,
      "velocity": 101,
      "chip": "ym2612"
    },
    {
      "channel": 1,
      "note": 64,
      "start": 23.831,
      "duration": 0.0162,
      "velocity": 101,
      "chip": "ym2612"
    },
    {
      "channel": 0,
      "note": 46,
      "start": 23.8398,
      "duration": 0.0162,
      "velocity": 115,
      "chip": "ym2612"
    },
    {
      "channel": 4,
      "note": 56,
      "start": 23.841,
      "duration": 0.0161,
      "velocity": 101,
      "chip": "ym2612"
    },
    {
      "channel": 3,
      "note": 59,
      "start": 23.8449,
      "duration": 0.0158,
      "velocity": 101,
      "chip": "ym2612"
    },
    {
      "channel": 1,
      "note": 64,
      "start": 23.8472,
      "duration": 0.0157,
      "velocity": 101,
      "chip": "ym2612"
    },
    {
      "channel": 0,
      "note": 46,
      "start": 23.8559,
      "duration": 0.0161,
      "velocity": 115,
      "chip": "ym2612"
    },
    {
      "channel": 4,
      "note": 56,
      "start": 23.8571,
      "duration": 0.0161,
      "velocity": 101,
      "chip": "ym2612"
    },
    {
      "channel": 3,
      "note": 59,
      "start": 23.8606,
      "duration": 0.0137,
      "velocity": 101,
      "chip": "ym2612"
    },
    {
      "channel": 1,
      "note": 64,
      "start": 23.8629,
      "duration": 0.0141,
      "velocity": 101,
      "chip": "ym2612"
    },
    {
      "channel": 0,
      "note": 47,
      "start": 23.872,
      "duration": 0.0161,
      "velocity": 115,
      "chip": "ym2612"
    },
    {
      "channel": 4,
      "note": 56,
      "start": 23.8732,
      "duration": 0.0161,
      "velocity": 101,
      "chip": "ym2612"
    },
    {
      "channel": 3,
      "note": 59,
      "start": 23.8743,
      "duration": 0.0161,
      "velocity": 101,
      "chip": "ym2612"
    },
    {
      "channel": 1,
      "note": 64,
      "start": 23.8769,
      "duration": 0.0185,
      "velocity": 101,
      "chip": "ym2612"
    },
    {
      "channel": 0,
      "note": 47,
      "start": 23.8881,
      "duration": 0.0161,
      "velocity": 115,
      "chip": "ym2612"
    },
    {
      "channel": 4,
      "note": 56,
      "start": 23.8893,
      "duration": 0.0161,
      "velocity": 101,
      "chip": "ym2612"
    },
    {
      "channel": 3,
      "note": 59,
      "start": 23.8904,
      "duration": 0.0161,
      "velocity": 101,
      "chip": "ym2612"
    },
    {
      "channel": 1,
      "note": 64,
      "start": 23.8954,
      "duration": 0.0161,
      "velocity": 101,
      "chip": "ym2612"
    },
    {
      "channel": 0,
      "note": 47,
      "start": 23.9042,
      "duration": 0.0161,
      "velocity": 115,
      "chip": "ym2612"
    },
    {
      "channel": 4,
      "note": 56,
      "start": 23.9054,
      "duration": 0.0161,
      "velocity": 101,
      "chip": "ym2612"
    },
    {
      "channel": 3,
      "note": 59,
      "start": 23.9065,
      "duration": 0.0161,
      "velocity": 101,
      "chip": "ym2612"
    },
    {
      "channel": 1,
      "note": 64,
      "start": 23.9115,
      "duration": 0.0158,
      "velocity": 101,
      "chip": "ym2612"
    },
    {
      "channel": 0,
      "note": 48,
      "start": 23.9203,
      "duration": 0.0179,
      "velocity": 124,
      "chip": "ym2612"
    },
    {
      "channel": 4,
      "note": 56,
      "start": 23.9215,
      "duration": 0.0179,
      "velocity": 101,
      "chip": "ym2612"
    },
    {
      "channel": 3,
      "note": 59,
      "start": 23.9226,
      "duration": 0.0179,
      "velocity": 101,
      "chip": "ym2612"
    },
    {
      "channel": 1,
      "note": 64,
      "start": 23.9273,
      "duration": 0.0158,
      "velocity": 101,
      "chip": "ym2612"
    },
    {
      "channel": 0,
      "note": 84,
      "start": 23.9382,
      "duration": 0.0144,
      "velocity": 124,
      "chip": "ym2612"
    },
    {
      "channel": 4,
      "note": 56,
      "start": 23.9394,
      "duration": 0.0144,
      "velocity": 101,
      "chip": "ym2612"
    },
    {
      "channel": 3,
      "note": 59,
      "start": 23.9405,
      "duration": 0.0144,
      "velocity": 101,
      "chip": "ym2612"
    },
    {
      "channel": 1,
      "note": 64,
      "start": 23.9431,
      "duration": 0.0141,
      "velocity": 101,
      "chip": "ym2612"
    },
    {
      "channel": 0,
      "note": 82,
      "start": 23.9526,
      "duration": 0.016,
      "velocity": 124,
      "chip": "ym2612"
    },
    {
      "channel": 4,
      "note": 56,
      "start": 23.9538,
      "duration": 0.016,
      "velocity": 101,
      "chip": "ym2612"
    },
    {
      "channel": 3,
      "note": 59,
      "start": 23.9549,
      "duration": 0.016,
      "velocity": 101,
      "chip": "ym2612"
    },
    {
      "channel": 1,
      "note": 64,
      "start": 23.9571,
      "duration": 0.016,
      "velocity": 101,
      "chip": "ym2612"
    },
    {
      "channel": 0,
      "note": 80,
      "start": 23.9686,
      "duration": 0.0161,
      "velocity": 124,
      "chip": "ym2612"
    },
    {
      "channel": 4,
      "note": 56,
      "start": 23.9698,
      "duration": 0.0161,
      "velocity": 101,
      "chip": "ym2612"
    },
    {
      "channel": 3,
      "note": 59,
      "start": 23.971,
      "duration": 0.0161,
      "velocity": 101,
      "chip": "ym2612"
    },
    {
      "channel": 1,
      "note": 64,
      "start": 23.9732,
      "duration": 0.0161,
      "velocity": 101,
      "chip": "ym2612"
    },
    {
      "channel": 0,
      "note": 77,
      "start": 23.9847,
      "duration": 0.0161,
      "velocity": 124,
      "chip": "ym2612"
    },
    {
      "channel": 4,
      "note": 56,
      "start": 23.9859,
      "duration": 0.0161,
      "velocity": 101,
      "chip": "ym2612"
    },
    {
      "channel": 3,
      "note": 59,
      "start": 23.9871,
      "duration": 0.0161,
      "velocity": 101,
      "chip": "ym2612"
    },
    {
      "channel": 1,
      "note": 64,
      "start": 23.9893,
      "duration": 0.0161,
      "velocity": 101,
      "chip": "ym2612"
    },
    {
      "channel": 0,
      "note": 75,
      "start": 24.0008,
      "duration": 0.0161,
      "velocity": 124,
      "chip": "ym2612"
    },
    {
      "channel": 4,
      "note": 56,
      "start": 24.002,
      "duration": 0.0161,
      "velocity": 101,
      "chip": "ym2612"
    },
    {
      "channel": 3,
      "note": 59,
      "start": 24.0031,
      "duration": 0.0161,
      "velocity": 101,
      "chip": "ym2612"
    },
    {
      "channel": 1,
      "note": 64,
      "start": 24.0054,
      "duration": 0.0161,
      "velocity": 101,
      "chip": "ym2612"
    },
    {
      "channel": 0,
      "note": 72,
      "start": 24.0169,
      "duration": 0.0161,
      "velocity": 124,
      "chip": "ym2612"
    },
    {
      "channel": 4,
      "note": 56,
      "start": 24.0181,
      "duration": 0.0161,
      "velocity": 101,
      "chip": "ym2612"
    },
    {
      "channel": 3,
      "note": 59,
      "start": 24.0192,
      "duration": 0.0161,
      "velocity": 101,
      "chip": "ym2612"
    },
    {
      "channel": 1,
      "note": 64,
      "start": 24.0215,
      "duration": 0.0161,
      "velocity": 101,
      "chip": "ym2612"
    },
    {
      "channel": 0,
      "note": 70,
      "start": 24.033,
      "duration": 0.0161,
      "velocity": 124,
      "chip": "ym2612"
    },
    {
      "channel": 4,
      "note": 56,
      "start": 24.0342,
      "duration": 0.0161,
      "velocity": 101,
      "chip": "ym2612"
    },
    {
      "channel": 3,
      "note": 59,
      "start": 24.0353,
      "duration": 0.0161,
      "velocity": 101,
      "chip": "ym2612"
    },
    {
      "channel": 1,
      "note": 64,
      "start": 24.0376,
      "duration": 0.0161,
      "velocity": 101,
      "chip": "ym2612"
    },
    {
      "channel": 0,
      "note": 68,
      "start": 24.0491,
      "duration": 0.0161,
      "velocity": 124,
      "chip": "ym2612"
    },
    {
      "channel": 4,
      "note": 56,
      "start": 24.0503,
      "duration": 0.0161,
      "velocity": 101,
      "chip": "ym2612"
    },
    {
      "channel": 3,
      "note": 59,
      "start": 24.0514,
      "duration": 0.0161,
      "velocity": 101,
      "chip": "ym2612"
    },
    {
      "channel": 1,
      "note": 64,
      "start": 24.0537,
      "duration": 0.0161,
      "velocity": 101,
      "chip": "ym2612"
    },
    {
      "channel": 0,
      "note": 65,
      "start": 24.0652,
      "duration": 0.0161,
      "velocity": 124,
      "chip": "ym2612"
    },
    {
      "channel": 4,
      "note": 56,
      "start": 24.0664,
      "duration": 0.0161,
      "velocity": 101,
      "chip": "ym2612"
    },
    {
      "channel": 3,
      "note": 59,
      "start": 24.0675,
      "duration": 0.0161,
      "velocity": 101,
      "chip": "ym2612"
    },
    {
      "channel": 1,
      "note": 64,
      "start": 24.0698,
      "duration": 0.0161,
      "velocity": 101,
      "chip": "ym2612"
    },
    {
      "channel": 0,
      "note": 63,
      "start": 24.0813,
      "duration": 0.0153,
      "velocity": 1,
      "chip": "ym2612"
    },
    {
      "channel": 4,
      "note": 56,
      "start": 24.0825,
      "duration": 0.0153,
      "velocity": 101,
      "chip": "ym2612"
    },
    {
      "channel": 3,
      "note": 59,
      "start": 24.0836,
      "duration": 0.0153,
      "velocity": 101,
      "chip": "ym2612"
    },
    {
      "channel": 1,
      "note": 64,
      "start": 24.0859,
      "duration": 0.0153,
      "velocity": 101,
      "chip": "ym2612"
    },
    {
      "channel": 4,
      "note": 56,
      "start": 24.0978,
      "duration": 0.0153,
      "velocity": 101,
      "chip": "ym2612"
    },
    {
      "channel": 3,
      "note": 59,
      "start": 24.0989,
      "duration": 0.0153,
      "velocity": 101,
      "chip": "ym2612"
    },
    {
      "channel": 1,
      "note": 64,
      "start": 24.1012,
      "duration": 0.0152,
      "velocity": 101,
      "chip": "ym2612"
    },
    {
      "channel": 4,
      "note": 56,
      "start": 24.1131,
      "duration": 0.0161,
      "velocity": 101,
      "chip": "ym2612"
    },
    {
      "channel": 3,
      "note": 59,
      "start": 24.1142,
      "duration": 0.0161,
      "velocity": 101,
      "chip": "ym2612"
    },
    {
      "channel": 1,
      "note": 64,
      "start": 24.1164,
      "duration": 0.0161,
      "velocity": 101,
      "chip": "ym2612"
    },
    {
      "channel": 4,
      "note": 56,
      "start": 24.1292,
      "duration": 0.0161,
      "velocity": 101,
      "chip": "ym2612"
    },
    {
      "channel": 3,
      "note": 59,
      "start": 24.1303,
      "duration": 0.0161,
      "velocity": 101,
      "chip": "ym2612"
    },
    {
      "channel": 1,
      "note": 64,
      "start": 24.1326,
      "duration": 0.0161,
      "velocity": 101,
      "chip": "ym2612"
    },
    {
      "channel": 4,
      "note": 56,
      "start": 24.1453,
      "duration": 0.0204,
      "velocity": 101,
      "chip": "ym2612"
    },
    {
      "channel": 3,
      "note": 59,
      "start": 24.1464,
      "duration": 0.0207,
      "velocity": 101,
      "chip": "ym2612"
    },
    {
      "channel": 1,
      "note": 64,
      "start": 24.1487,
      "duration": 0.0209,
      "velocity": 101,
      "chip": "ym2612"
    },
    {
      "channel": 0,
      "note": 36,
      "start": 24.1643,
      "duration": 0.015,
      "velocity": 115,
      "chip": "ym2612"
    },
    {
      "channel": 4,
      "note": 58,
      "start": 24.1657,
      "duration": 0.0148,
      "velocity": 101,
      "chip": "ym2612"
    },
    {
      "channel": 3,
      "note": 61,
      "start": 24.1671,
      "duration": 0.0146,
      "velocity": 101,
      "chip": "ym2612"
    },
    {
      "channel": 1,
      "note": 66,
      "start": 24.1696,
      "duration": 0.0143,
      "velocity": 101,
      "chip": "ym2612"
    },
    {
      "channel": 0,
      "note": 36,
      "start": 24.1792,
      "duration": 0.0162,
      "velocity": 115,
      "chip": "ym2612"
    },
    {
      "channel": 4,
      "note": 58,
      "start": 24.1804,
      "duration": 0.0161,
      "velocity": 101,
      "chip": "ym2612"
    },
    {
      "channel": 3,
      "note": 61,
      "start": 24.1816,
      "duration": 0.0161,
      "velocity": 101,
      "chip": "ym2612"
    },
    {
      "channel": 1,
      "note": 66,
      "start": 24.1839,
      "duration": 0.0161,
      "velocity": 101,
      "chip": "ym2612"
    },
    {
      "channel": 0,
      "note": 37,
      "start": 24.1954,
      "duration": 0.0147,
      "velocity": 115,
      "chip": "ym2612"
    },
    {
      "channel": 4,
      "note": 58,
      "start": 24.1966,
      "duration": 0.0147,
      "velocity": 101,
      "chip": "ym2612"
    },
    {
      "channel": 3,
      "note": 61,
      "start": 24.1977,
      "duration": 0.0147,
      "velocity": 101,
      "chip": "ym2612"
    },
    {
      "channel": 1,
      "note": 66,
      "start": 24.2,
      "duration": 0.0147,
      "velocity": 101,
      "chip": "ym2612"
    },
    {
      "channel": 0,
      "note": 37,
      "start": 24.2101,
      "duration": 0.0188,
      "velocity": 115,
      "chip": "ym2612"
    },
    {
      "channel": 4,
      "note": 58,
      "start": 24.2113,
      "duration": 0.0188,
      "velocity": 101,
      "chip": "ym2612"
    },
    {
      "channel": 3,
      "note": 61,
      "start": 24.2124,
      "duration": 0.0188,
      "velocity": 101,
      "chip": "ym2612"
    },
    {
      "channel": 1,
      "note": 66,
      "start": 24.2147,
      "duration": 0.0188,
      "velocity": 101,
      "chip": "ym2612"
    },
    {
      "channel": 0,
      "note": 38,
      "start": 24.229,
      "duration": 0.0161,
      "velocity": 115,
      "chip": "ym2612"
    },
    {
      "channel": 4,
      "note": 58,
      "start": 24.2301,
      "duration": 0.0161,
      "velocity": 101,
      "chip": "ym2612"
    },
    {
      "channel": 3,
      "note": 61,
      "start": 24.2312,
      "duration": 0.0162,
      "velocity": 101,
      "chip": "ym2612"
    },
    {
      "channel": 1,
      "note": 66,
      "start": 24.2335,
      "duration": 0.0161,
      "velocity": 101,
      "chip": "ym2612"
    },
    {
      "channel": 0,
      "note": 38,
      "start": 24.2451,
      "duration": 0.0158,
      "velocity": 115,
      "chip": "ym2612"
    },
    {
      "channel": 4,
      "note": 58,
      "start": 24.2463,
      "duration": 0.0157,
      "velocity": 101,
      "chip": "ym2612"
    },
    {
      "channel": 3,
      "note": 61,
      "start": 24.2474,
      "duration": 0.0157,
      "velocity": 101,
      "chip": "ym2612"
    },
    {
      "channel": 1,
      "note": 66,
      "start": 24.2496,
      "duration": 0.0158,
      "velocity": 101,
      "chip": "ym2612"
    },
    {
      "channel": 0,
      "note": 39,
      "start": 24.2608,
      "duration": 0.014,
      "velocity": 115,
      "chip": "ym2612"
    },
    {
      "channel": 4,
      "note": 58,
      "start": 24.262,
      "duration": 0.014,
      "velocity": 101,
      "chip": "ym2612"
    },
    {
      "channel": 3,
      "note": 61,
      "start": 24.2631,
      "duration": 0.014,
      "velocity": 101,
      "chip": "ym2612"
    },
    {
      "channel": 1,
      "note": 66,
      "start": 24.2654,
      "duration": 0.014,
      "velocity": 101,
      "chip": "ym2612"
    },
    {
      "channel": 0,
      "note": 39,
      "start": 24.2748,
      "duration": 0.0158,
      "velocity": 115,
      "chip": "ym2612"
    },
    {
      "channel": 4,
      "note": 58,
      "start": 24.276,
      "duration": 0.0186,
      "velocity": 101,
      "chip": "ym2612"
    },
    {
      "channel": 3,
      "note": 61,
      "start": 24.2771,
      "duration": 0.0186,
      "velocity": 101,
      "chip": "ym2612"
    },
    {
      "channel": 1,
      "note": 66,
      "start": 24.2794,
      "duration": 0.0186,
      "velocity": 101,
      "chip": "ym2612"
    },
    {
      "channel": 0,
      "note": 40,
      "start": 24.2906,
      "duration": 0.0161,
      "velocity": 115,
      "chip": "ym2612"
    },
    {
      "channel": 4,
      "note": 58,
      "start": 24.2946,
      "duration": 0.0161,
      "velocity": 101,
      "chip": "ym2612"
    },
    {
      "channel": 3,
      "note": 61,
      "start": 24.2957,
      "duration": 0.0161,
      "velocity": 101,
      "chip": "ym2612"
    },
    {
      "channel": 1,
      "note": 66,
      "start": 24.298,
      "duration": 0.0161,
      "velocity": 101,
      "chip": "ym2612"
    },
    {
      "channel": 0,
      "note": 40,
      "start": 24.3068,
      "duration": 0.0161,
      "velocity": 115,
      "chip": "ym2612"
    },
    {
      "channel": 4,
      "note": 58,
      "start": 24.3106,
      "duration": 0.0134,
      "velocity": 101,
      "chip": "ym2612"
    },
    {
      "channel": 3,
      "note": 61,
      "start": 24.3118,
      "duration": 0.0158,
      "velocity": 101,
      "chip": "ym2612"
    },
    {
      "channel": 1,
      "note": 66,
      "start": 24.3141,
      "duration": 0.0157,
      "velocity": 101,
      "chip": "ym2612"
    },
    {
      "channel": 0,
      "note": 40,
      "start": 24.3229,
      "duration": 0.0161,
      "velocity": 115,
      "chip": "ym2612"
    },
    {
      "channel": 4,
      "note": 58,
      "start": 24.324,
      "duration": 0.0161,
      "velocity": 101,
      "chip": "ym2612"
    },
    {
      "channel": 3,
      "note": 61,
      "start": 24.3276,
      "duration": 0.014,
      "velocity": 101,
      "chip": "ym2612"
    },
    {
      "channel": 1,
      "note": 66,
      "start": 24.3298,
      "duration": 0.0141,
      "velocity": 101,
      "chip": "ym2612"
    },
    {
      "channel": 0,
      "note": 41,
      "start": 24.339,
      "duration": 0.0161,
      "velocity": 115,
      "chip": "ym2612"
    },
    {
      "channel": 4,
      "note": 58,
      "start": 24.3401,
      "duration": 0.0161,
      "velocity": 101,
      "chip": "ym2612"
    },
    {
      "channel": 3,
      "note": 61,
      "start": 24.3416,
      "duration": 0.0158,
      "velocity": 101,
      "chip": "ym2612"
    },
    {
      "channel": 1,
      "note": 66,
      "start": 24.3439,
      "duration": 0.0185,
      "velocity": 101,
      "chip": "ym2612"
    },
    {
      "channel": 0,
      "note": 41,
      "start": 24.3551,
      "duration": 0.0161,
      "velocity": 115,
      "chip": "ym2612"
    },
    {
      "channel": 4,
      "note": 58,
      "start": 24.3562,
      "duration": 0.0161,
      "velocity": 101,
      "chip": "ym2612"
    },
    {
      "channel": 3,
      "note": 61,
      "start": 24.3573,
      "duration": 0.0161,
      "velocity": 101,
      "chip": "ym2612"
    },
    {
      "channel": 1,
      "note": 66,
      "start": 24.3624,
      "duration": 0.0161,
      "velocity": 101,
      "chip": "ym2612"
    },
    {
      "channel": 0,
      "note": 42,
      "start": 24.3711,
      "duration": 0.0179,
      "velocity": 115,
      "chip": "ym2612"
    },
    {
      "channel": 4,
      "note": 58,
      "start": 24.3723,
      "duration": 0.0179,
      "velocity": 101,
      "chip": "ym2612"
    },
    {
      "channel": 3,
      "note": 61,
      "start": 24.3734,
      "duration": 0.0203,
      "velocity": 101,
      "chip": "ym2612"
    },
    {
      "channel": 1,
      "note": 66,
      "start": 24.3785,
      "duration": 0.0176,
      "velocity": 101,
      "chip": "ym2612"
    },
    {
      "channel": 0,
      "note": 36,
      "start": 24.389,
      "duration": 0.0144,
      "velocity": 115,
      "chip": "ym2612"
    },
    {
      "channel": 4,
      "note": 58,
      "start": 24.3902,
      "duration": 0.0143,
      "velocity": 101,
      "chip": "ym2612"
    },
    {
      "channel": 3,
      "note": 61,
      "start": 24.3937,
      "duration": 0.012,
      "velocity": 101,
      "chip": "ym2612"
    },
    {
      "channel": 1,
      "note": 66,
      "start": 24.396,
      "duration": 0.0123,
      "velocity": 101,
      "chip": "ym2612"
    },
    {
      "channel": 0,
      "note": 36,
      "start": 24.4034,
      "duration": 0.016,
      "velocity": 115,
      "chip": "ym2612"
    },
    {
      "channel": 4,
      "note": 58,
      "start": 24.4045,
      "duration": 0.016,
      "velocity": 101,
      "chip": "ym2612"
    },
    {
      "channel": 3,
      "note": 61,
      "start": 24.4057,
      "duration": 0.016,
      "velocity": 101,
      "chip": "ym2612"
    },
    {
      "channel": 1,
      "note": 66,
      "start": 24.4083,
      "duration": 0.0157,
      "velocity": 101,
      "chip": "ym2612"
    },
    {
      "channel": 0,
      "note": 37,
      "start": 24.4194,
      "duration": 0.0161,
      "velocity": 115,
      "chip": "ym2612"
    },
    {
      "channel": 4,
      "note": 58,
      "start": 24.4206,
      "duration": 0.0162,
      "velocity": 101,
      "chip": "ym2612"
    },
    {
      "channel": 3,
      "note": 61,
      "start": 24.4217,
      "duration": 0.0161,
      "velocity": 101,
      "chip": "ym2612"
    },
    {
      "channel": 1,
      "note": 66,
      "start": 24.424,
      "duration": 0.0161,
      "velocity": 101,
      "chip": "ym2612"
    },
    {
      "channel": 0,
      "note": 37,
      "start": 24.4355,
      "duration": 0.0161,
      "velocity": 115,
      "chip": "ym2612"
    },
    {
      "channel": 4,
      "note": 58,
      "start": 24.4367,
      "duration": 0.0161,
      "velocity": 101,
      "chip": "ym2612"
    },
    {
      "channel": 3,
      "note": 61,
      "start": 24.4379,
      "duration": 0.0161,
      "velocity": 101,
      "chip": "ym2612"
    },
    {
      "channel": 1,
      "note": 66,
      "start": 24.4401,
      "duration": 0.0161,
      "velocity": 101,
      "chip": "ym2612"
    },
    {
      "channel": 0,
      "note": 38,
      "start": 24.4516,
      "duration": 0.0162,
      "velocity": 115,
      "chip": "ym2612"
    },
    {
      "channel": 4,
      "note": 58,
      "start": 24.4528,
      "duration": 0.0161,
      "velocity": 101,
      "chip": "ym2612"
    },
    {
      "channel": 3,
      "note": 61,
      "start": 24.454,
      "duration": 0.0161,
      "velocity": 101,
      "chip": "ym2612"
    },
    {
      "channel": 1,
      "note": 66,
      "start": 24.4562,
      "duration": 0.0162,
      "velocity": 101,
      "chip": "ym2612"
    },
    {
      "channel": 0,
      "note": 38,
      "start": 24.4678,
      "duration": 0.0161,
      "velocity": 115,
      "chip": "ym2612"
    },
    {
      "channel": 4,
      "note": 58,
      "start": 24.4689,
      "duration": 0.0161,
      "velocity": 101,
      "chip": "ym2612"
    },
    {
      "channel": 3,
      "note": 61,
      "start": 24.4701,
      "duration": 0.0161,
      "velocity": 101,
      "chip": "ym2612"
    },
    {
      "channel": 1,
      "note": 66,
      "start": 24.4724,
      "duration": 0.0161,
      "velocity": 101,
      "chip": "ym2612"
    },
    {
      "channel": 0,
      "note": 39,
      "start": 24.4839,
      "duration": 0.0161,
      "velocity": 115,
      "chip": "ym2612"
    },
    {
      "channel": 4,
      "note": 58,
      "start": 24.485,
      "duration": 0.0161,
      "velocity": 101,
      "chip": "ym2612"
    },
    {
      "channel": 3,
      "note": 61,
      "start": 24.4861,
      "duration": 0.0161,
      "velocity": 101,
      "chip": "ym2612"
    },
    {
      "channel": 1,
      "note": 66,
      "start": 24.4884,
      "duration": 0.0161,
      "velocity": 101,
      "chip": "ym2612"
    },
    {
      "channel": 0,
      "note": 39,
      "start": 24.5,
      "duration": 0.0161,
      "velocity": 115,
      "chip": "ym2612"
    },
    {
      "channel": 4,
      "note": 58,
      "start": 24.5011,
      "duration": 0.0161,
      "velocity": 101,
      "chip": "ym2612"
    },
    {
      "channel": 3,
      "note": 61,
      "start": 24.5022,
      "duration": 0.0161,
      "velocity": 101,
      "chip": "ym2612"
    },
    {
      "channel": 1,
      "note": 66,
      "start": 24.5045,
      "duration": 0.0161,
      "velocity": 101,
      "chip": "ym2612"
    },
    {
      "channel": 0,
      "note": 40,
      "start": 24.5161,
      "duration": 0.0161,
      "velocity": 115,
      "chip": "ym2612"
    },
    {
      "channel": 4,
      "note": 58,
      "start": 24.5172,
      "duration": 0.0161,
      "velocity": 101,
      "chip": "ym2612"
    },
    {
      "channel": 3,
      "note": 61,
      "start": 24.5183,
      "duration": 0.0161,
      "velocity": 101,
      "chip": "ym2612"
    },
    {
      "channel": 1,
      "note": 66,
      "start": 24.5206,
      "duration": 0.0161,
      "velocity": 101,
      "chip": "ym2612"
    },
    {
      "channel": 0,
      "note": 40,
      "start": 24.5322,
      "duration": 0.0161,
      "velocity": 115,
      "chip": "ym2612"
    },
    {
      "channel": 4,
      "note": 58,
      "start": 24.5333,
      "duration": 0.0161,
      "velocity": 101,
      "chip": "ym2612"
    },
    {
      "channel": 3,
      "note": 61,
      "start": 24.5344,
      "duration": 0.0161,
      "velocity": 101,
      "chip": "ym2612"
    },
    {
      "channel": 1,
      "note": 66,
      "start": 24.5367,
      "duration": 0.0161,
      "velocity": 101,
      "chip": "ym2612"
    },
    {
      "channel": 0,
      "note": 40,
      "start": 24.5482,
      "duration": 0.0161,
      "velocity": 115,
      "chip": "ym2612"
    },
    {
      "channel": 4,
      "note": 58,
      "start": 24.5494,
      "duration": 0.0161,
      "velocity": 101,
      "chip": "ym2612"
    },
    {
      "channel": 3,
      "note": 61,
      "start": 24.5505,
      "duration": 0.0162,
      "velocity": 101,
      "chip": "ym2612"
    },
    {
      "channel": 1,
      "note": 66,
      "start": 24.5528,
      "duration": 0.0161,
      "velocity": 101,
      "chip": "ym2612"
    },
    {
      "channel": 0,
      "note": 41,
      "start": 24.5643,
      "duration": 0.0161,
      "velocity": 115,
      "chip": "ym2612"
    },
    {
      "channel": 4,
      "note": 58,
      "start": 24.5655,
      "duration": 0.0161,
      "velocity": 101,
      "chip": "ym2612"
    },
    {
      "channel": 3,
      "note": 61,
      "start": 24.5667,
      "duration": 0.0161,
      "velocity": 101,
      "chip": "ym2612"
    },
    {
      "channel": 1,
      "note": 66,
      "start": 24.5689,
      "duration": 0.0161,
      "velocity": 101,
      "chip": "ym2612"
    },
    {
      "channel": 0,
      "note": 41,
      "start": 24.5804,
      "duration": 0.0161,
      "velocity": 115,
      "chip": "ym2612"
    },
    {
      "channel": 4,
      "note": 58,
      "start": 24.5816,
      "duration": 0.0161,
      "velocity": 101,
      "chip": "ym2612"
    },
    {
      "channel": 3,
      "note": 61,
      "start": 24.5828,
      "duration": 0.0161,
      "velocity": 101,
      "chip": "ym2612"
    },
    {
      "channel": 1,
      "note": 66,
      "start": 24.585,
      "duration": 0.0161,
      "velocity": 101,
      "chip": "ym2612"
    },
    {
      "channel": 0,
      "note": 42,
      "start": 24.5966,
      "duration": 0.0178,
      "velocity": 115,
      "chip": "ym2612"
    },
    {
      "channel": 4,
      "note": 58,
      "start": 24.5977,
      "duration": 0.0179,
      "velocity": 101,
      "chip": "ym2612"
    },
    {
      "channel": 3,
      "note": 61,
      "start": 24.5989,
      "duration": 0.0179,
      "velocity": 101,
      "chip": "ym2612"
    },
    {
      "channel": 1,
      "note": 66,
      "start": 24.6012,
      "duration": 0.0179,
      "velocity": 101,
      "chip": "ym2612"
    },
    {
      "channel": 0,
      "note": 36,
      "start": 24.6145,
      "duration": 0.0148,
      "velocity": 115,
      "chip": "ym2612"
    },
    {
      "channel": 4,
      "note": 58,
      "start": 24.6156,
      "duration": 0.0148,
      "velocity": 101,
      "chip": "ym2612"
    },
    {
      "channel": 3,
      "note": 61,
      "start": 24.6168,
      "duration": 0.0148,
      "velocity": 101,
      "chip": "ym2612"
    },
    {
      "channel": 1,
      "note": 66,
      "start": 24.619,
      "duration": 0.0148,
      "velocity": 101,
      "chip": "ym2612"
    },
    {
      "channel": 0,
      "note": 36,
      "start": 24.6292,
      "duration": 0.0166,
      "velocity": 115,
      "chip": "ym2612"
    },
    {
      "channel": 4,
      "note": 58,
      "start": 24.6304,
      "duration": 0.0166,
      "velocity": 101,
      "chip": "ym2612"
    },
    {
      "channel": 3,
      "note": 61,
      "start": 24.6315,
      "duration": 0.0166,
      "velocity": 101,
      "chip": "ym2612"
    },
    {
      "channel": 1,
      "note": 66,
      "start": 24.6338,
      "duration": 0.0166,
      "velocity": 101,
      "chip": "ym2612"
    },
    {
      "channel": 0,
      "note": 37,
      "start": 24.6458,
      "duration": 0.0163,
      "velocity": 115,
      "chip": "ym2612"
    },
    {
      "channel": 4,
      "note": 58,
      "start": 24.647,
      "duration": 0.0163,
      "velocity": 101,
      "chip": "ym2612"
    },
    {
      "channel": 3,
      "note": 61,
      "start": 24.6481,
      "duration": 0.0163,
      "velocity": 101,
      "chip": "ym2612"
    },
    {
      "channel": 1,
      "note": 66,
      "start": 24.6504,
      "duration": 0.0163,
      "velocity": 101,
      "chip": "ym2612"
    },
    {
      "channel": 0,
      "note": 37,
      "start": 24.6621,
      "duration": 0.0149,
      "velocity": 115,
      "chip": "ym2612"
    },
    {
      "channel": 4,
      "note": 58,
      "start": 24.6632,
      "duration": 0.015,
      "velocity": 101,
      "chip": "ym2612"
    },
    {
      "channel": 3,
      "note": 61,
      "start": 24.6644,
      "duration": 0.0149,
      "velocity": 101,
      "chip": "ym2612"
    },
    {
      "channel": 1,
      "note": 66,
      "start": 24.6667,
      "duration": 0.0149,
      "velocity": 101,
      "chip": "ym2612"
    },
    {
      "channel": 0,
      "note": 38,
      "start": 24.6771,
      "duration": 0.0188,
      "velocity": 115,
      "chip": "ym2612"
    },
    {
      "channel": 4,
      "note": 58,
      "start": 24.6782,
      "duration": 0.0188,
      "velocity": 101,
      "chip": "ym2612"
    },
    {
      "channel": 3,
      "note": 61,
      "start": 24.6793,
      "duration": 0.0188,
      "velocity": 101,
      "chip": "ym2612"
    },
    {
      "channel": 1,
      "note": 66,
      "start": 24.6816,
      "duration": 0.0188,
      "velocity": 101,
      "chip": "ym2612"
    },
    {
      "channel": 0,
      "note": 38,
      "start": 24.6958,
      "duration": 0.0161,
      "velocity": 115,
      "chip": "ym2612"
    },
    {
      "channel": 4,
      "note": 58,
      "start": 24.697,
      "duration": 0.0162,
      "velocity": 101,
      "chip": "ym2612"
    },
    {
      "channel": 3,
      "note": 61,
      "start": 24.6981,
      "duration": 0.0162,
      "velocity": 101,
      "chip": "ym2612"
    },
    {
      "channel": 1,
      "note": 66,
      "start": 24.7004,
      "duration": 0.0161,
      "velocity": 101,
      "chip": "ym2612"
    },
    {
      "channel": 0,
      "note": 39,
      "start": 24.712,
      "duration": 0.0158,
      "velocity": 115,
      "chip": "ym2612"
    },
    {
      "channel": 4,
      "note": 58,
      "start": 24.7132,
      "duration": 0.0157,
      "velocity": 101,
      "chip": "ym2612"
    },
    {
      "channel": 3,
      "note": 61,
      "start": 24.7143,
      "duration": 0.0157,
      "velocity": 101,
      "chip": "ym2612"
    },
    {
      "channel": 1,
      "note": 66,
      "start": 24.7166,
      "duration": 0.0158,
      "velocity": 101,
      "chip": "ym2612"
    },
    {
      "channel": 0,
      "note": 39,
      "start": 24.7278,
      "duration": 0.0141,
      "velocity": 115,
      "chip": "ym2612"
    },
    {
      "channel": 4,
      "note": 58,
      "start": 24.7289,
      "duration": 0.0141,
      "velocity": 101,
      "chip": "ym2612"
    },
    {
      "channel": 3,
      "note": 61,
      "start": 24.73,
      "duration": 0.0141,
      "velocity": 101,
      "chip": "ym2612"
    },
    {
      "channel": 1,
      "note": 66,
      "start": 24.7323,
      "duration": 0.0141,
      "velocity": 101,
      "chip": "ym2612"
    },
    {
      "channel": 0,
      "note": 40,
      "start": 24.7418,
      "duration": 0.0158,
      "velocity": 115,
      "chip": "ym2612"
    },
    {
      "channel": 4,
      "note": 58,
      "start": 24.743,
      "duration": 0.0185,
      "velocity": 101,
      "chip": "ym2612"
    },
    {
      "channel": 3,
      "note": 61,
      "start": 24.7441,
      "duration": 0.0185,
      "velocity": 101,
      "chip": "ym2612"
    },
    {
      "channel": 1,
      "note": 66,
      "start": 24.7464,
      "duration": 0.0185,
      "velocity": 101,
      "chip": "ym2612"
    },
    {
      "channel": 0,
      "note": 40,
      "start": 24.7576,
      "duration": 0.0161,
      "velocity": 115,
      "chip": "ym2612"
    },
    {
      "channel": 4,
      "note": 58,
      "start": 24.7615,
      "duration": 0.0161,
      "velocity": 101,
      "chip": "ym2612"
    },
    {
      "channel": 3,
      "note": 61,
      "start": 24.7626,
      "duration": 0.0161,
      "velocity": 101,
      "chip": "ym2612"
    },
    {
      "channel": 1,
      "note": 66,
      "start": 24.7649,
      "duration": 0.0161,
      "velocity": 101,
      "chip": "ym2612"
    },
    {
      "channel": 0,
      "note": 40,
      "start": 24.7737,
      "duration": 0.0161,
      "velocity": 115,
      "chip": "ym2612"
    },
    {
      "channel": 4,
      "note": 58,
      "start": 24.7776,
      "duration": 0.0134,
      "velocity": 101,
      "chip": "ym2612"
    },
    {
      "channel": 3,
      "note": 61,
      "start": 24.7787,
      "duration": 0.0158,
      "velocity": 101,
      "chip": "ym2612"
    },
    {
      "channel": 1,
      "note": 66,
      "start": 24.781,
      "duration": 0.0157,
      "velocity": 101,
      "chip": "ym2612"
    },
    {
      "channel": 0,
      "note": 41,
      "start": 24.7898,
      "duration": 0.0161,
      "velocity": 115,
      "chip": "ym2612"
    },
    {
      "channel": 4,
      "note": 58,
      "start": 24.7909,
      "duration": 0.0161,
      "velocity": 101,
      "chip": "ym2612"
    },
    {
      "channel": 3,
      "note": 61,
      "start": 24.7945,
      "duration": 0.014,
      "velocity": 101,
      "chip": "ym2612"
    },
    {
      "channel": 1,
      "note": 66,
      "start": 24.7967,
      "duration": 0.0141,
      "velocity": 101,
      "chip": "ym2612"
    },
    {
      "channel": 0,
      "note": 41,
      "start": 24.8059,
      "duration": 0.0161,
      "velocity": 115,
      "chip": "ym2612"
    },
    {
      "channel": 4,
      "note": 58,
      "start": 24.807,
      "duration": 0.0161,
      "velocity": 101,
      "chip": "ym2612"
    },
    {
      "channel": 3,
      "note": 61,
      "start": 24.8085,
      "duration": 0.0158,
      "velocity": 101,
      "chip": "ym2612"
    },
    {
      "channel": 1,
      "note": 66,
      "start": 24.8108,
      "duration": 0.0185,
      "velocity": 101,
      "chip": "ym2612"
    },
    {
      "channel": 0,
      "note": 42,
      "start": 24.822,
      "duration": 0.0179,
      "velocity": 124,
      "chip": "ym2612"
    },
    {
      "channel": 4,
      "note": 58,
      "start": 24.8231,
      "duration": 0.0179,
      "velocity": 101,
      "chip": "ym2612"
    },
    {
      "channel": 3,
      "note": 61,
      "start": 24.8243,
      "duration": 0.0207,
      "velocity": 101,
      "chip": "ym2612"
    },
    {
      "channel": 1,
      "note": 66,
      "start": 24.8293,
      "duration": 0.018,
      "velocity": 101,
      "chip": "ym2612"
    },
    {
      "channel": 0,
      "note": 84,
      "start": 24.8398,
      "duration": 0.0144,
      "velocity": 124,
      "chip": "ym2612"
    },
    {
      "channel": 4,
      "note": 58,
      "start": 24.841,
      "duration": 0.0144,
      "velocity": 101,
      "chip": "ym2612"
    },
    {
      "channel": 3,
      "note": 61,
      "start": 24.8449,
      "duration": 0.0116,
      "velocity": 101,
      "chip": "ym2612"
    },
    {
      "channel": 1,
      "note": 66,
      "start": 24.8472,
      "duration": 0.014,
      "velocity": 101,
      "chip": "ym2612"
    },
    {
      "channel": 0,
      "note": 82,
      "start": 24.8542,
      "duration": 0.016,
      "velocity": 124,
      "chip": "ym2612"
    },
    {
      "channel": 4,
      "note": 58,
      "start": 24.8554,
      "duration": 0.016,
      "velocity": 101,
      "chip": "ym2612"
    },
    {
      "channel": 3,
      "note": 61,
      "start": 24.8566,
      "duration": 0.016,
      "velocity": 101,
      "chip": "ym2612"
    },
    {
      "channel": 1,
      "note": 66,
      "start": 24.8612,
      "duration": 0.0139,
      "velocity": 101,
      "chip": "ym2612"
    },
    {
      "channel": 0,
      "note": 80,
      "start": 24.8702,
      "duration": 0.0162,
      "velocity": 124,
      "chip": "ym2612"
    },
    {
      "channel": 4,
      "note": 58,
      "start": 24.8715,
      "duration": 0.0161,
      "velocity": 101,
      "chip": "ym2612"
    },
    {
      "channel": 3,
      "note": 61,
      "start": 24.8726,
      "duration": 0.0161,
      "velocity": 101,
      "chip": "ym2612"
    },
    {
      "channel": 1,
      "note": 66,
      "start": 24.8751,
      "duration": 0.0159,
      "velocity": 101,
      "chip": "ym2612"
    },
    {
      "channel": 0,
      "note": 77,
      "start": 24.8864,
      "duration": 0.0161,
      "velocity": 124,
      "chip": "ym2612"
    },
    {
      "channel": 4,
      "note": 58,
      "start": 24.8876,
      "duration": 0.0161,
      "velocity": 101,
      "chip": "ym2612"
    },
    {
      "channel": 3,
      "note": 61,
      "start": 24.8887,
      "duration": 0.0161,
      "velocity": 101,
      "chip": "ym2612"
    },
    {
      "channel": 1,
      "note": 66,
      "start": 24.891,
      "duration": 0.0161,
      "velocity": 101,
      "chip": "ym2612"
    },
    {
      "channel": 0,
      "note": 75,
      "start": 24.9025,
      "duration": 0.0161,
      "velocity": 124,
      "chip": "ym2612"
    },
    {
      "channel": 4,
      "note": 58,
      "start": 24.9037,
      "duration": 0.0161,
      "velocity": 101,
      "chip": "ym2612"
    },
    {
      "channel": 3,
      "note": 61,
      "start": 24.9048,
      "duration": 0.0161,
      "velocity": 101,
      "chip": "ym2612"
    },
    {
      "channel": 1,
      "note": 66,
      "start": 24.9071,
      "duration": 0.0161,
      "velocity": 101,
      "chip": "ym2612"
    },
    {
      "channel": 0,
      "note": 72,
      "start": 24.9186,
      "duration": 0.0161,
      "velocity": 124,
      "chip": "ym2612"
    },
    {
      "channel": 4,
      "note": 58,
      "start": 24.9198,
      "duration": 0.0161,
      "velocity": 101,
      "chip": "ym2612"
    },
    {
      "channel": 3,
      "note": 61,
      "start": 24.9209,
      "duration": 0.0161,
      "velocity": 101,
      "chip": "ym2612"
    },
    {
      "channel": 1,
      "note": 66,
      "start": 24.9232,
      "duration": 0.0161,
      "velocity": 101,
      "chip": "ym2612"
    },
    {
      "channel": 0,
      "note": 70,
      "start": 24.9347,
      "duration": 0.0161,
      "velocity": 124,
      "chip": "ym2612"
    },
    {
      "channel": 4,
      "note": 58,
      "start": 24.9358,
      "duration": 0.0161,
      "velocity": 101,
      "chip": "ym2612"
    },
    {
      "channel": 3,
      "note": 61,
      "start": 24.937,
      "duration": 0.0161,
      "velocity": 101,
      "chip": "ym2612"
    },
    {
      "channel": 1,
      "note": 66,
      "start": 24.9393,
      "duration": 0.0161,
      "velocity": 101,
      "chip": "ym2612"
    },
    {
      "channel": 0,
      "note": 68,
      "start": 24.9508,
      "duration": 0.0161,
      "velocity": 124,
      "chip": "ym2612"
    },
    {
      "channel": 4,
      "note": 58,
      "start": 24.9519,
      "duration": 0.0161,
      "velocity": 101,
      "chip": "ym2612"
    },
    {
      "channel": 3,
      "note": 61,
      "start": 24.9531,
      "duration": 0.0161,
      "velocity": 101,
      "chip": "ym2612"
    },
    {
      "channel": 1,
      "note": 66,
      "start": 24.9554,
      "duration": 0.0161,
      "velocity": 101,
      "chip": "ym2612"
    },
    {
      "channel": 0,
      "note": 65,
      "start": 24.9669,
      "duration": 0.0161,
      "velocity": 124,
      "chip": "ym2612"
    },
    {
      "channel": 4,
      "note": 58,
      "start": 24.968,
      "duration": 0.0161,
      "velocity": 101,
      "chip": "ym2612"
    },
    {
      "channel": 3,
      "note": 61,
      "start": 24.9692,
      "duration": 0.0162,
      "velocity": 101,
      "chip": "ym2612"
    },
    {
      "channel": 1,
      "note": 66,
      "start": 24.9715,
      "duration": 0.0161,
      "velocity": 101,
      "chip": "ym2612"
    },
    {
      "channel": 0,
      "note": 63,
      "start": 24.983,
      "duration": 0.0153,
      "velocity": 1,
      "chip": "ym2612"
    },
    {
      "channel": 4,
      "note": 58,
      "start": 24.9842,
      "duration": 0.0153,
      "velocity": 101,
      "chip": "ym2612"
    },
    {
      "channel": 3,
      "note": 61,
      "start": 24.9853,
      "duration": 0.0153,
      "velocity": 101,
      "chip": "ym2612"
    },
    {
      "channel": 1,
      "note": 66,
      "start": 24.9876,
      "duration": 0.0153,
      "velocity": 101,
      "chip": "ym2612"
    },
    {
      "channel": 4,
      "note": 58,
      "start": 24.9995,
      "duration": 0.0153,
      "velocity": 101,
      "chip": "ym2612"
    },
    {
      "channel": 3,
      "note": 61,
      "start": 25.0006,
      "duration": 0.0153,
      "velocity": 101,
      "chip": "ym2612"
    },
    {
      "channel": 1,
      "note": 66,
      "start": 25.0029,
      "duration": 0.0153,
      "velocity": 101,
      "chip": "ym2612"
    },
    {
      "channel": 4,
      "note": 58,
      "start": 25.0147,
      "duration": 0.0161,
      "velocity": 101,
      "chip": "ym2612"
    },
    {
      "channel": 3,
      "note": 61,
      "start": 25.0159,
      "duration": 0.0161,
      "velocity": 101,
      "chip": "ym2612"
    },
    {
      "channel": 1,
      "note": 66,
      "start": 25.0181,
      "duration": 0.0161,
      "velocity": 101,
      "chip": "ym2612"
    },
    {
      "channel": 4,
      "note": 58,
      "start": 25.0308,
      "duration": 0.0161,
      "velocity": 101,
      "chip": "ym2612"
    },
    {
      "channel": 3,
      "note": 61,
      "start": 25.032,
      "duration": 0.0161,
      "velocity": 101,
      "chip": "ym2612"
    },
    {
      "channel": 1,
      "note": 66,
      "start": 25.0342,
      "duration": 0.0161,
      "velocity": 101,
      "chip": "ym2612"
    },
    {
      "channel": 4,
      "note": 58,
      "start": 25.0469,
      "duration": 0.0161,
      "velocity": 101,
      "chip": "ym2612"
    },
    {
      "channel": 3,
      "note": 61,
      "start": 25.048,
      "duration": 0.0161,
      "velocity": 101,
      "chip": "ym2612"
    },
    {
      "channel": 1,
      "note": 66,
      "start": 25.0503,
      "duration": 0.0161,
      "velocity": 101,
      "chip": "ym2612"
    },
    {
      "channel": 4,
      "note": 58,
      "start": 25.063,
      "duration": 0.0161,
      "velocity": 101,
      "chip": "ym2612"
    },
    {
      "channel": 3,
      "note": 61,
      "start": 25.0641,
      "duration": 0.0161,
      "velocity": 101,
      "chip": "ym2612"
    },
    {
      "channel": 1,
      "note": 66,
      "start": 25.0664,
      "duration": 0.0161,
      "velocity": 101,
      "chip": "ym2612"
    },
    {
      "channel": 4,
      "note": 58,
      "start": 25.0791,
      "duration": 0.0162,
      "velocity": 101,
      "chip": "ym2612"
    },
    {
      "channel": 3,
      "note": 61,
      "start": 25.0802,
      "duration": 0.0162,
      "velocity": 101,
      "chip": "ym2612"
    },
    {
      "channel": 1,
      "note": 66,
      "start": 25.0825,
      "duration": 0.0162,
      "velocity": 101,
      "chip": "ym2612"
    },
    {
      "channel": 4,
      "note": 58,
      "start": 25.0953,
      "duration": 0.0167,
      "velocity": 101,
      "chip": "ym2612"
    },
    {
      "channel": 3,
      "note": 61,
      "start": 25.0965,
      "duration": 0.0167,
      "velocity": 101,
      "chip": "ym2612"
    },
    {
      "channel": 1,
      "note": 66,
      "start": 25.0988,
      "duration": 0.0167,
      "velocity": 101,
      "chip": "ym2612"
    },
    {
      "channel": 4,
      "note": 58,
      "start": 25.112,
      "duration": 0.0163,
      "velocity": 101,
      "chip": "ym2612"
    },
    {
      "channel": 3,
      "note": 61,
      "start": 25.1131,
      "duration": 0.0163,
      "velocity": 101,
      "chip": "ym2612"
    },
    {
      "channel": 1,
      "note": 66,
      "start": 25.1154,
      "duration": 0.0163,
      "velocity": 101,
      "chip": "ym2612"
    },
    {
      "channel": 4,
      "note": 58,
      "start": 25.1283,
      "duration": 0.0153,
      "velocity": 101,
      "chip": "ym2612"
    },
    {
      "channel": 3,
      "note": 61,
      "start": 25.1294,
      "duration": 0.0153,
      "velocity": 101,
      "chip": "ym2612"
    },
    {
      "channel": 1,
      "note": 66,
      "start": 25.1317,
      "duration": 0.0152,
      "velocity": 101,
      "chip": "ym2612"
    },
    {
      "channel": 4,
      "note": 58,
      "start": 25.1435,
      "duration": 0.0184,
      "velocity": 101,
      "chip": "ym2612"
    },
    {
      "channel": 3,
      "note": 61,
      "start": 25.1447,
      "duration": 0.0185,
      "velocity": 101,
      "chip": "ym2612"
    },
    {
      "channel": 1,
      "note": 66,
      "start": 25.1469,
      "duration": 0.0185,
      "velocity": 101,
      "chip": "ym2612"
    },
    {
      "channel": 4,
      "note": 58,
      "start": 25.162,
      "duration": 0.0165,
      "velocity": 101,
      "chip": "ym2612"
    },
    {
      "channel": 3,
      "note": 61,
      "start": 25.1631,
      "duration": 0.0165,
      "velocity": 101,
      "chip": "ym2612"
    },
    {
      "channel": 1,
      "note": 66,
      "start": 25.1654,
      "duration": 0.0165,
      "velocity": 101,
      "chip": "ym2612"
    },
    {
      "channel": 4,
      "note": 58,
      "start": 25.1785,
      "duration": 0.0158,
      "velocity": 101,
      "chip": "ym2612"
    },
    {
      "channel": 3,
      "note": 61,
      "start": 25.1796,
      "duration": 0.0158,
      "velocity": 101,
      "chip": "ym2612"
    },
    {
      "channel": 1,
      "note": 66,
      "start": 25.1819,
      "duration": 0.0157,
      "velocity": 101,
      "chip": "ym2612"
    },
    {
      "channel": 4,
      "note": 58,
      "start": 25.1942,
      "duration": 0.014,
      "velocity": 101,
      "chip": "ym2612"
    },
    {
      "channel": 3,
      "note": 61,
      "start": 25.1954,
      "duration": 0.014,
      "velocity": 101,
      "chip": "ym2612"
    },
    {
      "channel": 1,
      "note": 66,
      "start": 25.1976,
      "duration": 0.0141,
      "velocity": 101,
      "chip": "ym2612"
    },
    {
      "channel": 4,
      "note": 58,
      "start": 25.2082,
      "duration": 0.0158,
      "velocity": 101,
      "chip": "ym2612"
    },
    {
      "channel": 3,
      "note": 61,
      "start": 25.2094,
      "duration": 0.0185,
      "velocity": 101,
      "chip": "ym2612"
    },
    {
      "channel": 1,
      "note": 66,
      "start": 25.2117,
      "duration": 0.0185,
      "velocity": 101,
      "chip": "ym2612"
    },
    {
      "channel": 4,
      "note": 58,
      "start": 25.224,
      "duration": 0.0161,
      "velocity": 101,
      "chip": "ym2612"
    },
    {
      "channel": 3,
      "note": 61,
      "start": 25.2279,
      "duration": 0.0161,
      "velocity": 101,
      "chip": "ym2612"
    },
    {
      "channel": 1,
      "note": 66,
      "start": 25.2302,
      "duration": 0.0161,
      "velocity": 101,
      "chip": "ym2612"
    },
    {
      "channel": 4,
      "note": 58,
      "start": 25.2401,
      "duration": 0.0161,
      "velocity": 101,
      "chip": "ym2612"
    },
    {
      "channel": 3,
      "note": 61,
      "start": 25.244,
      "duration": 0.0134,
      "velocity": 101,
      "chip": "ym2612"
    },
    {
      "channel": 1,
      "note": 66,
      "start": 25.2463,
      "duration": 0.0158,
      "velocity": 101,
      "chip": "ym2612"
    },
    {
      "channel": 4,
      "note": 58,
      "start": 25.2562,
      "duration": 0.0161,
      "velocity": 101,
      "chip": "ym2612"
    },
    {
      "channel": 3,
      "note": 61,
      "start": 25.2573,
      "duration": 0.0161,
      "velocity": 101,
      "chip": "ym2612"
    },
    {
      "channel": 1,
      "note": 66,
      "start": 25.262,
      "duration": 0.014,
      "velocity": 101,
      "chip": "ym2612"
    },
    {
      "channel": 4,
      "note": 58,
      "start": 25.2723,
      "duration": 0.0225,
      "velocity": 101,
      "chip": "ym2612"
    },
    {
      "channel": 3,
      "note": 61,
      "start": 25.2734,
      "duration": 0.0228,
      "velocity": 101,
      "chip": "ym2612"
    },
    {
      "channel": 1,
      "note": 66,
      "start": 25.276,
      "duration": 0.0229,
      "velocity": 101,
      "chip": "ym2612"
    },
    {
      "channel": 0,
      "note": 36,
      "start": 25.2907,
      "duration": 0.0144,
      "velocity": 115,
      "chip": "ym2612"
    },
    {
      "channel": 4,
      "note": 63,
      "start": 25.2949,
      "duration": 0.0114,
      "velocity": 101,
      "chip": "ym2612"
    },
    {
      "channel": 3,
      "note": 66,
      "start": 25.2963,
      "duration": 0.0112,
      "velocity": 101,
      "chip": "ym2612"
    },
    {
      "channel": 1,
      "note": 71,
      "start": 25.299,
      "duration": 0.0136,
      "velocity": 101,
      "chip": "ym2612"
    },
    {
      "channel": 0,
      "note": 36,
      "start": 25.3051,
      "duration": 0.016,
      "velocity": 115,
      "chip": "ym2612"
    },
    {
      "channel": 4,
      "note": 63,
      "start": 25.3063,
      "duration": 0.016,
      "velocity": 101,
      "chip": "ym2612"
    },
    {
      "channel": 3,
      "note": 66,
      "start": 25.3075,
      "duration": 0.016,
      "velocity": 101,
      "chip": "ym2612"
    },
    {
      "channel": 1,
      "note": 71,
      "start": 25.3126,
      "duration": 0.0155,
      "velocity": 101,
      "chip": "ym2612"
    },
    {
      "channel": 0,
      "note": 37,
      "start": 25.3211,
      "duration": 0.0161,
      "velocity": 115,
      "chip": "ym2612"
    },
    {
      "channel": 4,
      "note": 63,
      "start": 25.3223,
      "duration": 0.0161,
      "velocity": 101,
      "chip": "ym2612"
    },
    {
      "channel": 3,
      "note": 66,
      "start": 25.3234,
      "duration": 0.0161,
      "velocity": 101,
      "chip": "ym2612"
    },
    {
      "channel": 1,
      "note": 71,
      "start": 25.3281,
      "duration": 0.014,
      "velocity": 101,
      "chip": "ym2612"
    },
    {
      "channel": 0,
      "note": 37,
      "start": 25.3372,
      "duration": 0.0162,
      "velocity": 115,
      "chip": "ym2612"
    },
    {
      "channel": 4,
      "note": 63,
      "start": 25.3384,
      "duration": 0.0161,
      "velocity": 101,
      "chip": "ym2612"
    },
    {
      "channel": 3,
      "note": 66,
      "start": 25.3395,
      "duration": 0.0161,
      "velocity": 101,
      "chip": "ym2612"
    },
    {
      "channel": 1,
      "note": 71,
      "start": 25.3421,
      "duration": 0.0186,
      "velocity": 101,
      "chip": "ym2612"
    },
    {
      "channel": 0,
      "note": 38,
      "start": 25.3533,
      "duration": 0.0161,
      "velocity": 115,
      "chip": "ym2612"
    },
    {
      "channel": 4,
      "note": 63,
      "start": 25.3545,
      "duration": 0.0161,
      "velocity": 101,
      "chip": "ym2612"
    },
    {
      "channel": 3,
      "note": 66,
      "start": 25.3556,
      "duration": 0.0161,
      "velocity": 101,
      "chip": "ym2612"
    },
    {
      "channel": 1,
      "note": 71,
      "start": 25.3606,
      "duration": 0.0134,
      "velocity": 101,
      "chip": "ym2612"
    },
    {
      "channel": 0,
      "note": 38,
      "start": 25.3694,
      "duration": 0.0161,
      "velocity": 115,
      "chip": "ym2612"
    },
    {
      "channel": 4,
      "note": 63,
      "start": 25.3706,
      "duration": 0.0161,
      "velocity": 101,
      "chip": "ym2612"
    },
    {
      "channel": 3,
      "note": 66,
      "start": 25.3717,
      "duration": 0.0161,
      "velocity": 101,
      "chip": "ym2612"
    },
    {
      "channel": 1,
      "note": 71,
      "start": 25.374,
      "duration": 0.0161,
      "velocity": 101,
      "chip": "ym2612"
    },
    {
      "channel": 0,
      "note": 39,
      "start": 25.3855,
      "duration": 0.0161,
      "velocity": 115,
      "chip": "ym2612"
    },
    {
      "channel": 4,
      "note": 63,
      "start": 25.3867,
      "duration": 0.0161,
      "velocity": 101,
      "chip": "ym2612"
    },
    {
      "channel": 3,
      "note": 66,
      "start": 25.3878,
      "duration": 0.0161,
      "velocity": 101,
      "chip": "ym2612"
    },
    {
      "channel": 1,
      "note": 71,
      "start": 25.3901,
      "duration": 0.0161,
      "velocity": 101,
      "chip": "ym2612"
    },
    {
      "channel": 0,
      "note": 39,
      "start": 25.4016,
      "duration": 0.0161,
      "velocity": 115,
      "chip": "ym2612"
    },
    {
      "channel": 4,
      "note": 63,
      "start": 25.4028,
      "duration": 0.0161,
      "velocity": 101,
      "chip": "ym2612"
    },
    {
      "channel": 3,
      "note": 66,
      "start": 25.4039,
      "duration": 0.0161,
      "velocity": 101,
      "chip": "ym2612"
    },
    {
      "channel": 1,
      "note": 71,
      "start": 25.4062,
      "duration": 0.0161,
      "velocity": 101,
      "chip": "ym2612"
    },
    {
      "channel": 0,
      "note": 40,
      "start": 25.4177,
      "duration": 0.0161,
      "velocity": 115,
      "chip": "ym2612"
    },
    {
      "channel": 4,
      "note": 63,
      "start": 25.4188,
      "duration": 0.0161,
      "velocity": 101,
      "chip": "ym2612"
    },
    {
      "channel": 3,
      "note": 66,
      "start": 25.42,
      "duration": 0.0161,
      "velocity": 101,
      "chip": "ym2612"
    },
    {
      "channel": 1,
      "note": 71,
      "start": 25.4223,
      "duration": 0.0161,
      "velocity": 101,
      "chip": "ym2612"
    },
    {
      "channel": 0,
      "note": 40,
      "start": 25.4338,
      "duration": 0.0161,
      "velocity": 115,
      "chip": "ym2612"
    },
    {
      "channel": 4,
      "note": 63,
      "start": 25.4349,
      "duration": 0.0161,
      "velocity": 101,
      "chip": "ym2612"
    },
    {
      "channel": 3,
      "note": 66,
      "start": 25.4361,
      "duration": 0.0161,
      "velocity": 101,
      "chip": "ym2612"
    },
    {
      "channel": 1,
      "note": 71,
      "start": 25.4384,
      "duration": 0.0161,
      "velocity": 101,
      "chip": "ym2612"
    },
    {
      "channel": 0,
      "note": 40,
      "start": 25.4499,
      "duration": 0.0161,
      "velocity": 115,
      "chip": "ym2612"
    },
    {
      "channel": 4,
      "note": 63,
      "start": 25.451,
      "duration": 0.0161,
      "velocity": 101,
      "chip": "ym2612"
    },
    {
      "channel": 3,
      "note": 66,
      "start": 25.4522,
      "duration": 0.0162,
      "velocity": 101,
      "chip": "ym2612"
    },
    {
      "channel": 1,
      "note": 71,
      "start": 25.4545,
      "duration": 0.0161,
      "velocity": 101,
      "chip": "ym2612"
    },
    {
      "channel": 0,
      "note": 41,
      "start": 25.466,
      "duration": 0.0161,
      "velocity": 115,
      "chip": "ym2612"
    },
    {
      "channel": 4,
      "note": 63,
      "start": 25.4672,
      "duration": 0.0161,
      "velocity": 101,
      "chip": "ym2612"
    },
    {
      "channel": 3,
      "note": 66,
      "start": 25.4683,
      "duration": 0.0161,
      "velocity": 101,
      "chip": "ym2612"
    },
    {
      "channel": 1,
      "note": 71,
      "start": 25.4706,
      "duration": 0.0161,
      "velocity": 101,
      "chip": "ym2612"
    },
    {
      "channel": 0,
      "note": 41,
      "start": 25.4821,
      "duration": 0.0161,
      "velocity": 115,
      "chip": "ym2612"
    },
    {
      "channel": 4,
      "note": 63,
      "start": 25.4833,
      "duration": 0.0161,
      "velocity": 101,
      "chip": "ym2612"
    },
    {
      "channel": 3,
      "note": 66,
      "start": 25.4844,
      "duration": 0.0161,
      "velocity": 101,
      "chip": "ym2612"
    },
    {
      "channel": 1,
      "note": 71,
      "start": 25.4867,
      "duration": 0.0161,
      "velocity": 101,
      "chip": "ym2612"
    },
    {
      "channel": 0,
      "note": 42,
      "start": 25.4982,
      "duration": 0.0161,
      "velocity": 115,
      "chip": "ym2612"
    },
    {
      "channel": 4,
      "note": 63,
      "start": 25.4994,
      "duration": 0.0161,
      "velocity": 101,
      "chip": "ym2612"
    },
    {
      "channel": 3,
      "note": 66,
      "start": 25.5005,
      "duration": 0.0161,
      "velocity": 101,
      "chip": "ym2612"
    },
    {
      "channel": 1,
      "note": 71,
      "start": 25.5028,
      "duration": 0.0161,
      "velocity": 101,
      "chip": "ym2612"
    },
    {
      "channel": 0,
      "note": 42,
      "start": 25.5143,
      "duration": 0.0161,
      "velocity": 115,
      "chip": "ym2612"
    },
    {
      "channel": 4,
      "note": 63,
      "start": 25.5155,
      "duration": 0.0161,
      "velocity": 101,
      "chip": "ym2612"
    },
    {
      "channel": 3,
      "note": 66,
      "start": 25.5166,
      "duration": 0.0161,
      "velocity": 101,
      "chip": "ym2612"
    },
    {
      "channel": 1,
      "note": 71,
      "start": 25.5189,
      "duration": 0.0161,
      "velocity": 101,
      "chip": "ym2612"
    },
    {
      "channel": 0,
      "note": 43,
      "start": 25.5304,
      "duration": 0.0161,
      "velocity": 115,
      "chip": "ym2612"
    },
    {
      "channel": 4,
      "note": 63,
      "start": 25.5316,
      "duration": 0.0161,
      "velocity": 101,
      "chip": "ym2612"
    },
    {
      "channel": 3,
      "note": 66,
      "start": 25.5327,
      "duration": 0.0161,
      "velocity": 101,
      "chip": "ym2612"
    },
    {
      "channel": 1,
      "note": 71,
      "start": 25.535,
      "duration": 0.0161,
      "velocity": 101,
      "chip": "ym2612"
    },
    {
      "channel": 0,
      "note": 43,
      "start": 25.5465,
      "duration": 0.0161,
      "velocity": 115,
      "chip": "ym2612"
    },
    {
      "channel": 4,
      "note": 63,
      "start": 25.5477,
      "duration": 0.0161,
      "velocity": 101,
      "chip": "ym2612"
    },
    {
      "channel": 3,
      "note": 66,
      "start": 25.5488,
      "duration": 0.0161,
      "velocity": 101,
      "chip": "ym2612"
    },
    {
      "channel": 1,
      "note": 71,
      "start": 25.5511,
      "duration": 0.0161,
      "velocity": 101,
      "chip": "ym2612"
    },
    {
      "channel": 0,
      "note": 44,
      "start": 25.5626,
      "duration": 0.0166,
      "velocity": 115,
      "chip": "ym2612"
    },
    {
      "channel": 4,
      "note": 63,
      "start": 25.5638,
      "duration": 0.0165,
      "velocity": 101,
      "chip": "ym2612"
    },
    {
      "channel": 3,
      "note": 66,
      "start": 25.5649,
      "duration": 0.0166,
      "velocity": 101,
      "chip": "ym2612"
    },
    {
      "channel": 1,
      "note": 71,
      "start": 25.5672,
      "duration": 0.0166,
      "velocity": 101,
      "chip": "ym2612"
    },
    {
      "channel": 0,
      "note": 44,
      "start": 25.5792,
      "duration": 0.0163,
      "velocity": 115,
      "chip": "ym2612"
    },
    {
      "channel": 4,
      "note": 63,
      "start": 25.5803,
      "duration": 0.0163,
      "velocity": 101,
      "chip": "ym2612"
    },
    {
      "channel": 3,
      "note": 66,
      "start": 25.5815,
      "duration": 0.0163,
      "velocity": 101,
      "chip": "ym2612"
    },
    {
      "channel": 1,
      "note": 71,
      "start": 25.5837,
      "duration": 0.0163,
      "velocity": 101,
      "chip": "ym2612"
    },
    {
      "channel": 0,
      "note": 44,
      "start": 25.5954,
      "duration": 0.0155,
      "velocity": 115,
      "chip": "ym2612"
    },
    {
      "channel": 4,
      "note": 63,
      "start": 25.5966,
      "duration": 0.0155,
      "velocity": 101,
      "chip": "ym2612"
    },
    {
      "channel": 3,
      "note": 66,
      "start": 25.5977,
      "duration": 0.0155,
      "velocity": 101,
      "chip": "ym2612"
    },
    {
      "channel": 1,
      "note": 71,
      "start": 25.6,
      "duration": 0.0155,
      "velocity": 101,
      "chip": "ym2612"
    },
    {
      "channel": 0,
      "note": 45,
      "start": 25.6109,
      "duration": 0.0183,
      "velocity": 115,
      "chip": "ym2612"
    },
    {
      "channel": 4,
      "note": 63,
      "start": 25.6121,
      "duration": 0.0182,
      "velocity": 101,
      "chip": "ym2612"
    },
    {
      "channel": 3,
      "note": 66,
      "start": 25.6132,
      "duration": 0.0182,
      "velocity": 101,
      "chip": "ym2612"
    },
    {
      "channel": 1,
      "note": 71,
      "start": 25.6155,
      "duration": 0.0183,
      "velocity": 101,
      "chip": "ym2612"
    },
    {
      "channel": 0,
      "note": 45,
      "start": 25.6292,
      "duration": 0.0167,
      "velocity": 115,
      "chip": "ym2612"
    },
    {
      "channel": 4,
      "note": 63,
      "start": 25.6303,
      "duration": 0.0167,
      "velocity": 101,
      "chip": "ym2612"
    },
    {
      "channel": 3,
      "note": 66,
      "start": 25.6315,
      "duration": 0.0167,
      "velocity": 101,
      "chip": "ym2612"
    },
    {
      "channel": 1,
      "note": 71,
      "start": 25.6337,
      "duration": 0.0167,
      "velocity": 101,
      "chip": "ym2612"
    },
    {
      "channel": 0,
      "note": 46,
      "start": 25.6458,
      "duration": 0.0158,
      "velocity": 115,
      "chip": "ym2612"
    },
    {
      "channel": 4,
      "note": 63,
      "start": 25.647,
      "duration": 0.0159,
      "velocity": 101,
      "chip": "ym2612"
    },
    {
      "channel": 3,
      "note": 66,
      "start": 25.6481,
      "duration": 0.0158,
      "velocity": 101,
      "chip": "ym2612"
    },
    {
      "channel": 1,
      "note": 71,
      "start": 25.6504,
      "duration": 0.0158,
      "velocity": 101,
      "chip": "ym2612"
    },
    {
      "channel": 0,
      "note": 46,
      "start": 25.6616,
      "duration": 0.0141,
      "velocity": 115,
      "chip": "ym2612"
    },
    {
      "channel": 4,
      "note": 63,
      "start": 25.6628,
      "duration": 0.014,
      "velocity": 101,
      "chip": "ym2612"
    },
    {
      "channel": 3,
      "note": 66,
      "start": 25.6639,
      "duration": 0.014,
      "velocity": 101,
      "chip": "ym2612"
    },
    {
      "channel": 1,
      "note": 71,
      "start": 25.6662,
      "duration": 0.0141,
      "velocity": 101,
      "chip": "ym2612"
    },
    {
      "channel": 0,
      "note": 47,
      "start": 25.6757,
      "duration": 0.0185,
      "velocity": 115,
      "chip": "ym2612"
    },
    {
      "channel": 4,
      "note": 63,
      "start": 25.6768,
      "duration": 0.0185,
      "velocity": 101,
      "chip": "ym2612"
    },
    {
      "channel": 3,
      "note": 66,
      "start": 25.678,
      "duration": 0.0185,
      "velocity": 101,
      "chip": "ym2612"
    },
    {
      "channel": 1,
      "note": 71,
      "start": 25.6802,
      "duration": 0.0185,
      "velocity": 101,
      "chip": "ym2612"
    },
    {
      "channel": 0,
      "note": 47,
      "start": 25.6942,
      "duration": 0.0134,
      "velocity": 115,
      "chip": "ym2612"
    },
    {
      "channel": 4,
      "note": 63,
      "start": 25.6953,
      "duration": 0.0162,
      "velocity": 101,
      "chip": "ym2612"
    },
    {
      "channel": 3,
      "note": 66,
      "start": 25.6965,
      "duration": 0.0161,
      "velocity": 101,
      "chip": "ym2612"
    },
    {
      "channel": 1,
      "note": 71,
      "start": 25.6988,
      "duration": 0.0161,
      "velocity": 101,
      "chip": "ym2612"
    },
    {
      "channel": 0,
      "note": 47,
      "start": 25.7075,
      "duration": 0.0161,
      "velocity": 115,
      "chip": "ym2612"
    },
    {
      "channel": 4,
      "note": 63,
      "start": 25.7115,
      "duration": 0.0157,
      "velocity": 101,
      "chip": "ym2612"
    },
    {
      "channel": 3,
      "note": 66,
      "start": 25.7126,
      "duration": 0.0157,
      "velocity": 101,
      "chip": "ym2612"
    },
    {
      "channel": 1,
      "note": 71,
      "start": 25.7149,
      "duration": 0.0158,
      "velocity": 101,
      "chip": "ym2612"
    },
    {
      "channel": 0,
      "note": 48,
      "start": 25.7236,
      "duration": 0.0181,
      "velocity": 124,
      "chip": "ym2612"
    },
    {
      "channel": 4,
      "note": 63,
      "start": 25.7272,
      "duration": 0.0158,
      "velocity": 101,
      "chip": "ym2612"
    },
    {
      "channel": 3,
      "note": 66,
      "start": 25.7283,
      "duration": 0.0159,
      "velocity": 101,
      "chip": "ym2612"
    },
    {
      "channel": 1,
      "note": 71,
      "start": 25.7306,
      "duration": 0.0158,
      "velocity": 101,
      "chip": "ym2612"
    },
    {
      "channel": 0,
      "note": 84,
      "start": 25.7418,
      "duration": 0.0141,
      "velocity": 124,
      "chip": "ym2612"
    },
    {
      "channel": 4,
      "note": 63,
      "start": 25.743,
      "duration": 0.0141,
      "velocity": 101,
      "chip": "ym2612"
    },
    {
      "channel": 3,
      "note": 66,
      "start": 25.7442,
      "duration": 0.0168,
      "velocity": 101,
      "chip": "ym2612"
    },
    {
      "channel": 1,
      "note": 71,
      "start": 25.7464,
      "duration": 0.0168,
      "velocity": 101,
      "chip": "ym2612"
    },
    {
      "channel": 0,
      "note": 82,
      "start": 25.7559,
      "duration": 0.016,
      "velocity": 124,
      "chip": "ym2612"
    },
    {
      "channel": 4,
      "note": 63,
      "start": 25.7571,
      "duration": 0.016,
      "velocity": 101,
      "chip": "ym2612"
    },
    {
      "channel": 3,
      "note": 66,
      "start": 25.761,
      "duration": 0.0133,
      "velocity": 101,
      "chip": "ym2612"
    },
    {
      "channel": 1,
      "note": 71,
      "start": 25.7632,
      "duration": 0.016,
      "velocity": 101,
      "chip": "ym2612"
    },
    {
      "channel": 0,
      "note": 80,
      "start": 25.7719,
      "duration": 0.0162,
      "velocity": 124,
      "chip": "ym2612"
    },
    {
      "channel": 4,
      "note": 63,
      "start": 25.7731,
      "duration": 0.0161,
      "velocity": 101,
      "chip": "ym2612"
    },
    {
      "channel": 3,
      "note": 66,
      "start": 25.7743,
      "duration": 0.0161,
      "velocity": 101,
      "chip": "ym2612"
    },
    {
      "channel": 1,
      "note": 71,
      "start": 25.7793,
      "duration": 0.0157,
      "velocity": 101,
      "chip": "ym2612"
    },
    {
      "channel": 0,
      "note": 77,
      "start": 25.7881,
      "duration": 0.0161,
      "velocity": 124,
      "chip": "ym2612"
    },
    {
      "channel": 4,
      "note": 63,
      "start": 25.7892,
      "duration": 0.0161,
      "velocity": 101,
      "chip": "ym2612"
    },
    {
      "channel": 3,
      "note": 66,
      "start": 25.7904,
      "duration": 0.0161,
      "velocity": 101,
      "chip": "ym2612"
    },
    {
      "channel": 1,
      "note": 71,
      "start": 25.795,
      "duration": 0.0141,
      "velocity": 101,
      "chip": "ym2612"
    },
    {
      "channel": 0,
      "note": 75,
      "start": 25.8041,
      "duration": 0.0161,
      "velocity": 124,
      "chip": "ym2612"
    },
    {
      "channel": 4,
      "note": 63,
      "start": 25.8053,
      "duration": 0.0161,
      "velocity": 101,
      "chip": "ym2612"
    },
    {
      "channel": 3,
      "note": 66,
      "start": 25.8064,
      "duration": 0.0161,
      "velocity": 101,
      "chip": "ym2612"
    },
    {
      "channel": 1,
      "note": 71,
      "start": 25.809,
      "duration": 0.0185,
      "velocity": 101,
      "chip": "ym2612"
    },
    {
      "channel": 0,
      "note": 72,
      "start": 25.8202,
      "duration": 0.0161,
      "velocity": 124,
      "chip": "ym2612"
    },
    {
      "channel": 4,
      "note": 63,
      "start": 25.8214,
      "duration": 0.0161,
      "velocity": 101,
      "chip": "ym2612"
    },
    {
      "channel": 3,
      "note": 66,
      "start": 25.8225,
      "duration": 0.0161,
      "velocity": 101,
      "chip": "ym2612"
    },
    {
      "channel": 1,
      "note": 71,
      "start": 25.8276,
      "duration": 0.0134,
      "velocity": 101,
      "chip": "ym2612"
    },
    {
      "channel": 0,
      "note": 70,
      "start": 25.8363,
      "duration": 0.0161,
      "velocity": 124,
      "chip": "ym2612"
    },
    {
      "channel": 4,
      "note": 63,
      "start": 25.8375,
      "duration": 0.0161,
      "velocity": 101,
      "chip": "ym2612"
    },
    {
      "channel": 3,
      "note": 66,
      "start": 25.8386,
      "duration": 0.0161,
      "velocity": 101,
      "chip": "ym2612"
    },
    {
      "channel": 1,
      "note": 71,
      "start": 25.8409,
      "duration": 0.0161,
      "velocity": 101,
      "chip": "ym2612"
    },
    {
      "channel": 0,
      "note": 68,
      "start": 25.8524,
      "duration": 0.0161,
      "velocity": 124,
      "chip": "ym2612"
    },
    {
      "channel": 4,
      "note": 63,
      "start": 25.8536,
      "duration": 0.0161,
      "velocity": 101,
      "chip": "ym2612"
    },
    {
      "channel": 3,
      "note": 66,
      "start": 25.8547,
      "duration": 0.0161,
      "velocity": 101,
      "chip": "ym2612"
    },
    {
      "channel": 1,
      "note": 71,
      "start": 25.857,
      "duration": 0.0161,
      "velocity": 101,
      "chip": "ym2612"
    },
    {
      "channel": 0,
      "note": 65,
      "start": 25.8685,
      "duration": 0.0161,
      "velocity": 124,
      "chip": "ym2612"
    },
    {
      "channel": 4,
      "note": 63,
      "start": 25.8697,
      "duration": 0.0161,
      "velocity": 101,
      "chip": "ym2612"
    },
    {
      "channel": 3,
      "note": 66,
      "start": 25.8708,
      "duration": 0.0162,
      "velocity": 101,
      "chip": "ym2612"
    },
    {
      "channel": 1,
      "note": 71,
      "start": 25.8731,
      "duration": 0.0161,
      "velocity": 101,
      "chip": "ym2612"
    },
    {
      "channel": 0,
      "note": 63,
      "start": 25.8846,
      "duration": 0.0153,
      "velocity": 1,
      "chip": "ym2612"
    },
    {
      "channel": 4,
      "note": 63,
      "start": 25.8858,
      "duration": 0.0153,
      "velocity": 101,
      "chip": "ym2612"
    },
    {
      "channel": 3,
      "note": 66,
      "start": 25.887,
      "duration": 0.0153,
      "velocity": 101,
      "chip": "ym2612"
    },
    {
      "channel": 1,
      "note": 71,
      "start": 25.8892,
      "duration": 0.0153,
      "velocity": 101,
      "chip": "ym2612"
    },
    {
      "channel": 4,
      "note": 63,
      "start": 25.9011,
      "duration": 0.0153,
      "velocity": 101,
      "chip": "ym2612"
    },
    {
      "channel": 3,
      "note": 66,
      "start": 25.9022,
      "duration": 0.0153,
      "velocity": 101,
      "chip": "ym2612"
    },
    {
      "channel": 1,
      "note": 71,
      "start": 25.9045,
      "duration": 0.0153,
      "velocity": 101,
      "chip": "ym2612"
    },
    {
      "channel": 4,
      "note": 63,
      "start": 25.9164,
      "duration": 0.0161,
      "velocity": 101,
      "chip": "ym2612"
    },
    {
      "channel": 3,
      "note": 66,
      "start": 25.9175,
      "duration": 0.0161,
      "velocity": 101,
      "chip": "ym2612"
    },
    {
      "channel": 1,
      "note": 71,
      "start": 25.9198,
      "duration": 0.0161,
      "velocity": 101,
      "chip": "ym2612"
    },
    {
      "channel": 4,
      "note": 63,
      "start": 25.9325,
      "duration": 0.0161,
      "velocity": 101,
      "chip": "ym2612"
    },
    {
      "channel": 3,
      "note": 66,
      "start": 25.9336,
      "duration": 0.0161,
      "velocity": 101,
      "chip": "ym2612"
    },
    {
      "channel": 1,
      "note": 71,
      "start": 25.9359,
      "duration": 0.0161,
      "velocity": 101,
      "chip": "ym2612"
    },
    {
      "channel": 4,
      "note": 63,
      "start": 25.9485,
      "duration": 0.0198,
      "velocity": 101,
      "chip": "ym2612"
    },
    {
      "channel": 3,
      "note": 66,
      "start": 25.9497,
      "duration": 0.02,
      "velocity": 101,
      "chip": "ym2612"
    },
    {
      "channel": 1,
      "note": 71,
      "start": 25.952,
      "duration": 0.0203,
      "velocity": 101,
      "chip": "ym2612"
    },
    {
      "channel": 0,
      "note": 36,
      "start": 25.9669,
      "duration": 0.0144,
      "velocity": 115,
      "chip": "ym2612"
    },
    {
      "channel": 4,
      "note": 63,
      "start": 25.9683,
      "duration": 0.0142,
      "velocity": 101,
      "chip": "ym2612"
    },
    {
      "channel": 3,
      "note": 66,
      "start": 25.9698,
      "duration": 0.0139,
      "velocity": 101,
      "chip": "ym2612"
    },
    {
      "channel": 1,
      "note": 71,
      "start": 25.9723,
      "duration": 0.0137,
      "velocity": 101,
      "chip": "ym2612"
    },
    {
      "channel": 0,
      "note": 36,
      "start": 25.9813,
      "duration": 0.016,
      "velocity": 115,
      "chip": "ym2612"
    },
    {
      "channel": 4,
      "note": 63,
      "start": 25.9825,
      "duration": 0.016,
      "velocity": 101,
      "chip": "ym2612"
    },
    {
      "channel": 3,
      "note": 66,
      "start": 25.9837,
      "duration": 0.0159,
      "velocity": 101,
      "chip": "ym2612"
    },
    {
      "channel": 1,
      "note": 71,
      "start": 25.986,
      "duration": 0.0159,
      "velocity": 101,
      "chip": "ym2612"
    },
    {
      "channel": 0,
      "note": 37,
      "start": 25.9973,
      "duration": 0.0161,
      "velocity": 115,
      "chip": "ym2612"
    },
    {
      "channel": 4,
      "note": 63,
      "start": 25.9985,
      "duration": 0.0161,
      "velocity": 101,
      "chip": "ym2612"
    },
    {
      "channel": 3,
      "note": 66,
      "start": 25.9996,
      "duration": 0.0161,
      "velocity": 101,
      "chip": "ym2612"
    },
    {
      "channel": 1,
      "note": 71,
      "start": 26.0019,
      "duration": 0.0161,
      "velocity": 101,
      "chip": "ym2612"
    },
    {
      "channel": 0,
      "note": 37,
      "start": 26.0134,
      "duration": 0.0161,
      "velocity": 115,
      "chip": "ym2612"
    },
    {
      "channel": 4,
      "note": 63,
      "start": 26.0146,
      "duration": 0.0161,
      "velocity": 101,
      "chip": "ym2612"
    },
    {
      "channel": 3,
      "note": 66,
      "start": 26.0157,
      "duration": 0.0161,
      "velocity": 101,
      "chip": "ym2612"
    },
    {
      "channel": 1,
      "note": 71,
      "start": 26.018,
      "duration": 0.0161,
      "velocity": 101,
      "chip": "ym2612"
    },
    {
      "channel": 0,
      "note": 38,
      "start": 26.0295,
      "duration": 0.0163,
      "velocity": 115,
      "chip": "ym2612"
    },
    {
      "channel": 4,
      "note": 63,
      "start": 26.0307,
      "duration": 0.0163,
      "velocity": 101,
      "chip": "ym2612"
    },
    {
      "channel": 3,
      "note": 66,
      "start": 26.0318,
      "duration": 0.0163,
      "velocity": 101,
      "chip": "ym2612"
    },
    {
      "channel": 1,
      "note": 71,
      "start": 26.0341,
      "duration": 0.0163,
      "velocity": 101,
      "chip": "ym2612"
    },
    {
      "channel": 0,
      "note": 38,
      "start": 26.0458,
      "duration": 0.0163,
      "velocity": 115,
      "chip": "ym2612"
    },
    {
      "channel": 4,
      "note": 63,
      "start": 26.047,
      "duration": 0.0163,
      "velocity": 101,
      "chip": "ym2612"
    },
    {
      "channel": 3,
      "note": 66,
      "start": 26.0481,
      "duration": 0.0163,
      "velocity": 101,
      "chip": "ym2612"
    },
    {
      "channel": 1,
      "note": 71,
      "start": 26.0504,
      "duration": 0.0163,
      "velocity": 101,
      "chip": "ym2612"
    },
    {
      "channel": 0,
      "note": 39,
      "start": 26.0621,
      "duration": 0.0158,
      "velocity": 115,
      "chip": "ym2612"
    },
    {
      "channel": 4,
      "note": 63,
      "start": 26.0632,
      "duration": 0.0158,
      "velocity": 101,
      "chip": "ym2612"
    },
    {
      "channel": 3,
      "note": 66,
      "start": 26.0644,
      "duration": 0.0158,
      "velocity": 101,
      "chip": "ym2612"
    },
    {
      "channel": 1,
      "note": 71,
      "start": 26.0667,
      "duration": 0.0158,
      "velocity": 101,
      "chip": "ym2612"
    },
    {
      "channel": 0,
      "note": 39,
      "start": 26.0779,
      "duration": 0.0179,
      "velocity": 115,
      "chip": "ym2612"
    },
    {
      "channel": 4,
      "note": 63,
      "start": 26.079,
      "duration": 0.0179,
      "velocity": 101,
      "chip": "ym2612"
    },
    {
      "channel": 3,
      "note": 66,
      "start": 26.0802,
      "duration": 0.0179,
      "velocity": 101,
      "chip": "ym2612"
    },
    {
      "channel": 1,
      "note": 71,
      "start": 26.0825,
      "duration": 0.0179,
      "velocity": 101,
      "chip": "ym2612"
    },
    {
      "channel": 0,
      "note": 40,
      "start": 26.0958,
      "duration": 0.0167,
      "velocity": 115,
      "chip": "ym2612"
    },
    {
      "channel": 4,
      "note": 63,
      "start": 26.097,
      "duration": 0.0167,
      "velocity": 101,
      "chip": "ym2612"
    },
    {
      "channel": 3,
      "note": 66,
      "start": 26.0981,
      "duration": 0.0167,
      "velocity": 101,
      "chip": "ym2612"
    },
    {
      "channel": 1,
      "note": 71,
      "start": 26.1004,
      "duration": 0.0167,
      "velocity": 101,
      "chip": "ym2612"
    },
    {
      "channel": 0,
      "note": 40,
      "start": 26.1125,
      "duration": 0.016,
      "velocity": 115,
      "chip": "ym2612"
    },
    {
      "channel": 4,
      "note": 63,
      "start": 26.1136,
      "duration": 0.0161,
      "velocity": 101,
      "chip": "ym2612"
    },
    {
      "channel": 3,
      "note": 66,
      "start": 26.1148,
      "duration": 0.0161,
      "velocity": 101,
      "chip": "ym2612"
    },
    {
      "channel": 1,
      "note": 71,
      "start": 26.1171,
      "duration": 0.016,
      "velocity": 101,
      "chip": "ym2612"
    },
    {
      "channel": 0,
      "note": 40,
      "start": 26.1285,
      "duration": 0.0141,
      "velocity": 115,
      "chip": "ym2612"
    },
    {
      "channel": 4,
      "note": 63,
      "start": 26.1297,
      "duration": 0.014,
      "velocity": 101,
      "chip": "ym2612"
    },
    {
      "channel": 3,
      "note": 66,
      "start": 26.1309,
      "duration": 0.014,
      "velocity": 101,
      "chip": "ym2612"
    },
    {
      "channel": 1,
      "note": 71,
      "start": 26.1331,
      "duration": 0.0141,
      "velocity": 101,
      "chip": "ym2612"
    },
    {
      "channel": 0,
      "note": 41,
      "start": 26.1426,
      "duration": 0.0185,
      "velocity": 115,
      "chip": "ym2612"
    },
    {
      "channel": 4,
      "note": 63,
      "start": 26.1437,
      "duration": 0.0186,
      "velocity": 101,
      "chip": "ym2612"
    },
    {
      "channel": 3,
      "note": 66,
      "start": 26.1449,
      "duration": 0.0186,
      "velocity": 101,
      "chip": "ym2612"
    },
    {
      "channel": 1,
      "note": 71,
      "start": 26.1472,
      "duration": 0.0185,
      "velocity": 101,
      "chip": "ym2612"
    },
    {
      "channel": 0,
      "note": 41,
      "start": 26.1611,
      "duration": 0.0161,
      "velocity": 115,
      "chip": "ym2612"
    },
    {
      "channel": 4,
      "note": 63,
      "start": 26.1623,
      "duration": 0.0161,
      "velocity": 101,
      "chip": "ym2612"
    },
    {
      "channel": 3,
      "note": 66,
      "start": 26.1634,
      "duration": 0.0161,
      "velocity": 101,
      "chip": "ym2612"
    },
    {
      "channel": 1,
      "note": 71,
      "start": 26.1657,
      "duration": 0.0161,
      "velocity": 101,
      "chip": "ym2612"
    },
    {
      "channel": 0,
      "note": 42,
      "start": 26.1772,
      "duration": 0.0134,
      "velocity": 115,
      "chip": "ym2612"
    },
    {
      "channel": 4,
      "note": 63,
      "start": 26.1784,
      "duration": 0.0157,
      "velocity": 101,
      "chip": "ym2612"
    },
    {
      "channel": 3,
      "note": 66,
      "start": 26.1795,
      "duration": 0.0157,
      "velocity": 101,
      "chip": "ym2612"
    },
    {
      "channel": 1,
      "note": 71,
      "start": 26.1818,
      "duration": 0.0158,
      "velocity": 101,
      "chip": "ym2612"
    },
    {
      "channel": 0,
      "note": 42,
      "start": 26.1905,
      "duration": 0.0161,
      "velocity": 115,
      "chip": "ym2612"
    },
    {
      "channel": 4,
      "note": 63,
      "start": 26.1941,
      "duration": 0.0141,
      "velocity": 101,
      "chip": "ym2612"
    },
    {
      "channel": 3,
      "note": 66,
      "start": 26.1953,
      "duration": 0.0141,
      "velocity": 101,
      "chip": "ym2612"
    },
    {
      "channel": 1,
      "note": 71,
      "start": 26.1976,
      "duration": 0.0141,
      "velocity": 101,
      "chip": "ym2612"
    },
    {
      "channel": 0,
      "note": 43,
      "start": 26.2066,
      "duration": 0.0161,
      "velocity": 115,
      "chip": "ym2612"
    },
    {
      "channel": 4,
      "note": 63,
      "start": 26.2082,
      "duration": 0.0158,
      "velocity": 101,
      "chip": "ym2612"
    },
    {
      "channel": 3,
      "note": 66,
      "start": 26.2093,
      "duration": 0.0185,
      "velocity": 101,
      "chip": "ym2612"
    },
    {
      "channel": 1,
      "note": 71,
      "start": 26.2116,
      "duration": 0.0185,
      "velocity": 101,
      "chip": "ym2612"
    },
    {
      "channel": 0,
      "note": 43,
      "start": 26.2227,
      "duration": 0.0162,
      "velocity": 115,
      "chip": "ym2612"
    },
    {
      "channel": 4,
      "note": 63,
      "start": 26.2239,
      "duration": 0.0161,
      "velocity": 101,
      "chip": "ym2612"
    },
    {
      "channel": 3,
      "note": 66,
      "start": 26.2278,
      "duration": 0.0161,
      "velocity": 101,
      "chip": "ym2612"
    },
    {
      "channel": 1,
      "note": 71,
      "start": 26.2301,
      "duration": 0.0161,
      "velocity": 101,
      "chip": "ym2612"
    },
    {
      "channel": 0,
      "note": 44,
      "start": 26.2389,
      "duration": 0.0161,
      "velocity": 115,
      "chip": "ym2612"
    },
    {
      "channel": 4,
      "note": 63,
      "start": 26.24,
      "duration": 0.0161,
      "velocity": 101,
      "chip": "ym2612"
    },
    {
      "channel": 3,
      "note": 66,
      "start": 26.2439,
      "duration": 0.0134,
      "velocity": 101,
      "chip": "ym2612"
    },
    {
      "channel": 1,
      "note": 71,
      "start": 26.2462,
      "duration": 0.0157,
      "velocity": 101,
      "chip": "ym2612"
    },
    {
      "channel": 0,
      "note": 44,
      "start": 26.255,
      "duration": 0.0161,
      "velocity": 115,
      "chip": "ym2612"
    },
    {
      "channel": 4,
      "note": 63,
      "start": 26.2561,
      "duration": 0.0161,
      "velocity": 101,
      "chip": "ym2612"
    },
    {
      "channel": 3,
      "note": 66,
      "start": 26.2573,
      "duration": 0.0161,
      "velocity": 101,
      "chip": "ym2612"
    },
    {
      "channel": 1,
      "note": 71,
      "start": 26.2619,
      "duration": 0.0141,
      "velocity": 101,
      "chip": "ym2612"
    },
    {
      "channel": 0,
      "note": 44,
      "start": 26.2711,
      "duration": 0.0161,
      "velocity": 115,
      "chip": "ym2612"
    },
    {
      "channel": 4,
      "note": 63,
      "start": 26.2722,
      "duration": 0.0161,
      "velocity": 101,
      "chip": "ym2612"
    },
    {
      "channel": 3,
      "note": 66,
      "start": 26.2734,
      "duration": 0.0161,
      "velocity": 101,
      "chip": "ym2612"
    },
    {
      "channel": 1,
      "note": 71,
      "start": 26.276,
      "duration": 0.0185,
      "velocity": 101,
      "chip": "ym2612"
    },
    {
      "channel": 0,
      "note": 45,
      "start": 26.2872,
      "duration": 0.0161,
      "velocity": 115,
      "chip": "ym2612"
    },
    {
      "channel": 4,
      "note": 63,
      "start": 26.2883,
      "duration": 0.0161,
      "velocity": 101,
      "chip": "ym2612"
    },
    {
      "channel": 3,
      "note": 66,
      "start": 26.2895,
      "duration": 0.0161,
      "velocity": 101,
      "chip": "ym2612"
    },
    {
      "channel": 1,
      "note": 71,
      "start": 26.2945,
      "duration": 0.0161,
      "velocity": 101,
      "chip": "ym2612"
    },
    {
      "channel": 0,
      "note": 45,
      "start": 26.3033,
      "duration": 0.0161,
      "velocity": 115,
      "chip": "ym2612"
    },
    {
      "channel": 4,
      "note": 63,
      "start": 26.3044,
      "duration": 0.0161,
      "velocity": 101,
      "chip": "ym2612"
    },
    {
      "channel": 3,
      "note": 66,
      "start": 26.3056,
      "duration": 0.0161,
      "velocity": 101,
      "chip": "ym2612"
    },
    {
      "channel": 1,
      "note": 71,
      "start": 26.3106,
      "duration": 0.0134,
      "velocity": 101,
      "chip": "ym2612"
    },
    {
      "channel": 0,
      "note": 46,
      "start": 26.3194,
      "duration": 0.0161,
      "velocity": 115,
      "chip": "ym2612"
    },
    {
      "channel": 4,
      "note": 63,
      "start": 26.3205,
      "duration": 0.0162,
      "velocity": 101,
      "chip": "ym2612"
    },
    {
      "channel": 3,
      "note": 66,
      "start": 26.3217,
      "duration": 0.0161,
      "velocity": 101,
      "chip": "ym2612"
    },
    {
      "channel": 1,
      "note": 71,
      "start": 26.3239,
      "duration": 0.0161,
      "velocity": 101,
      "chip": "ym2612"
    },
    {
      "channel": 0,
      "note": 46,
      "start": 26.3355,
      "duration": 0.0161,
      "velocity": 115,
      "chip": "ym2612"
    },
    {
      "channel": 4,
      "note": 63,
      "start": 26.3367,
      "duration": 0.0161,
      "velocity": 101,
      "chip": "ym2612"
    },
    {
      "channel": 3,
      "note": 66,
      "start": 26.3378,
      "duration": 0.0161,
      "velocity": 101,
      "chip": "ym2612"
    },
    {
      "channel": 1,
      "note": 71,
      "start": 26.34,
      "duration": 0.0161,
      "velocity": 101,
      "chip": "ym2612"
    },
    {
      "channel": 0,
      "note": 47,
      "start": 26.3515,
      "duration": 0.0162,
      "velocity": 115,
      "chip": "ym2612"
    },
    {
      "channel": 4,
      "note": 63,
      "start": 26.3528,
      "duration": 0.0161,
      "velocity": 101,
      "chip": "ym2612"
    },
    {
      "channel": 3,
      "note": 66,
      "start": 26.3539,
      "duration": 0.0161,
      "velocity": 101,
      "chip": "ym2612"
    },
    {
      "channel": 1,
      "note": 71,
      "start": 26.3561,
      "duration": 0.0162,
      "velocity": 101,
      "chip": "ym2612"
    },
    {
      "channel": 0,
      "note": 47,
      "start": 26.3677,
      "duration": 0.0161,
      "velocity": 115,
      "chip": "ym2612"
    },
    {
      "channel": 4,
      "note": 63,
      "start": 26.3688,
      "duration": 0.0161,
      "velocity": 101,
      "chip": "ym2612"
    },
    {
      "channel": 3,
      "note": 66,
      "start": 26.37,
      "duration": 0.0161,
      "velocity": 101,
      "chip": "ym2612"
    },
    {
      "channel": 1,
      "note": 71,
      "start": 26.3723,
      "duration": 0.0161,
      "velocity": 101,
      "chip": "ym2612"
    },
    {
      "channel": 0,
      "note": 47,
      "start": 26.3838,
      "duration": 0.0161,
      "velocity": 115,
      "chip": "ym2612"
    },
    {
      "channel": 4,
      "note": 63,
      "start": 26.3849,
      "duration": 0.0161,
      "velocity": 101,
      "chip": "ym2612"
    },
    {
      "channel": 3,
      "note": 66,
      "start": 26.3861,
      "duration": 0.0161,
      "velocity": 101,
      "chip": "ym2612"
    },
    {
      "channel": 1,
      "note": 71,
      "start": 26.3884,
      "duration": 0.0161,
      "velocity": 101,
      "chip": "ym2612"
    },
    {
      "channel": 0,
      "note": 48,
      "start": 26.3999,
      "duration": 0.0178,
      "velocity": 115,
      "chip": "ym2612"
    },
    {
      "channel": 4,
      "note": 63,
      "start": 26.401,
      "duration": 0.0179,
      "velocity": 101,
      "chip": "ym2612"
    },
    {
      "channel": 3,
      "note": 66,
      "start": 26.4022,
      "duration": 0.0179,
      "velocity": 101,
      "chip": "ym2612"
    },
    {
      "channel": 1,
      "note": 71,
      "start": 26.4045,
      "duration": 0.0179,
      "velocity": 101,
      "chip": "ym2612"
    },
    {
      "channel": 0,
      "note": 36,
      "start": 26.4178,
      "duration": 0.0144,
      "velocity": 115,
      "chip": "ym2612"
    },
    {
      "channel": 4,
      "note": 63,
      "start": 26.4189,
      "duration": 0.0144,
      "velocity": 101,
      "chip": "ym2612"
    },
    {
      "channel": 3,
      "note": 66,
      "start": 26.4201,
      "duration": 0.0144,
      "velocity": 101,
      "chip": "ym2612"
    },
    {
      "channel": 1,
      "note": 71,
      "start": 26.4224,
      "duration": 0.0144,
      "velocity": 101,
      "chip": "ym2612"
    },
    {
      "channel": 0,
      "note": 36,
      "start": 26.4322,
      "duration": 0.016,
      "velocity": 115,
      "chip": "ym2612"
    },
    {
      "channel": 4,
      "note": 63,
      "start": 26.4333,
      "duration": 0.016,
      "velocity": 101,
      "chip": "ym2612"
    },
    {
      "channel": 3,
      "note": 66,
      "start": 26.4344,
      "duration": 0.016,
      "velocity": 101,
      "chip": "ym2612"
    },
    {
      "channel": 1,
      "note": 71,
      "start": 26.4367,
      "duration": 0.016,
      "velocity": 101,
      "chip": "ym2612"
    },
    {
      "channel": 0,
      "note": 37,
      "start": 26.4482,
      "duration": 0.0161,
      "velocity": 115,
      "chip": "ym2612"
    },
    {
      "channel": 4,
      "note": 63,
      "start": 26.4493,
      "duration": 0.0161,
      "velocity": 101,
      "chip": "ym2612"
    },
    {
      "channel": 3,
      "note": 66,
      "start": 26.4505,
      "duration": 0.0161,
      "velocity": 101,
      "chip": "ym2612"
    },
    {
      "channel": 1,
      "note": 71,
      "start": 26.4528,
      "duration": 0.0161,
      "velocity": 101,
      "chip": "ym2612"
    },
    {
      "channel": 0,
      "note": 37,
      "start": 26.4643,
      "duration": 0.0161,
      "velocity": 115,
      "chip": "ym2612"
    },
    {
      "channel": 4,
      "note": 63,
      "start": 26.4654,
      "duration": 0.0161,
      "velocity": 101,
      "chip": "ym2612"
    },
    {
      "channel": 3,
      "note": 66,
      "start": 26.4666,
      "duration": 0.0161,
      "velocity": 101,
      "chip": "ym2612"
    },
    {
      "channel": 1,
      "note": 71,
      "start": 26.4688,
      "duration": 0.0161,
      "velocity": 101,
      "chip": "ym2612"
    },
    {
      "channel": 0,
      "note": 38,
      "start": 26.4804,
      "duration": 0.0161,
      "velocity": 115,
      "chip": "ym2612"
    },
    {
      "channel": 4,
      "note": 63,
      "start": 26.4815,
      "duration": 0.0161,
      "velocity": 101,
      "chip": "ym2612"
    },
    {
      "channel": 3,
      "note": 66,
      "start": 26.4827,
      "duration": 0.0162,
      "velocity": 101,
      "chip": "ym2612"
    },
    {
      "channel": 1,
      "note": 71,
      "start": 26.4849,
      "duration": 0.0161,
      "velocity": 101,
      "chip": "ym2612"
    },
    {
      "channel": 0,
      "note": 38,
      "start": 26.4965,
      "duration": 0.0161,
      "velocity": 115,
      "chip": "ym2612"
    },
    {
      "channel": 4,
      "note": 63,
      "start": 26.4977,
      "duration": 0.0161,
      "velocity": 101,
      "chip": "ym2612"
    },
    {
      "channel": 3,
      "note": 66,
      "start": 26.4988,
      "duration": 0.0161,
      "velocity": 101,
      "chip": "ym2612"
    },
    {
      "channel": 1,
      "note": 71,
      "start": 26.501,
      "duration": 0.0161,
      "velocity": 101,
      "chip": "ym2612"
    },
    {
      "channel": 0,
      "note": 39,
      "start": 26.5126,
      "duration": 0.0162,
      "velocity": 115,
      "chip": "ym2612"
    },
    {
      "channel": 4,
      "note": 63,
      "start": 26.5138,
      "duration": 0.0161,
      "velocity": 101,
      "chip": "ym2612"
    },
    {
      "channel": 3,
      "note": 66,
      "start": 26.5149,
      "duration": 0.0162,
      "velocity": 101,
      "chip": "ym2612"
    },
    {
      "channel": 1,
      "note": 71,
      "start": 26.5171,
      "duration": 0.0162,
      "velocity": 101,
      "chip": "ym2612"
    },
    {
      "channel": 0,
      "note": 39,
      "start": 26.5288,
      "duration": 0.016,
      "velocity": 115,
      "chip": "ym2612"
    },
    {
      "channel": 4,
      "note": 63,
      "start": 26.5299,
      "duration": 0.016,
      "velocity": 101,
      "chip": "ym2612"
    },
    {
      "channel": 3,
      "note": 66,
      "start": 26.5311,
      "duration": 0.016,
      "velocity": 101,
      "chip": "ym2612"
    },
    {
      "channel": 1,
      "note": 71,
      "start": 26.5334,
      "duration": 0.016,
      "velocity": 101,
      "chip": "ym2612"
    },
    {
      "channel": 0,
      "note": 40,
      "start": 26.5448,
      "duration": 0.0177,
      "velocity": 115,
      "chip": "ym2612"
    },
    {
      "channel": 4,
      "note": 63,
      "start": 26.5459,
      "duration": 0.0177,
      "velocity": 101,
      "chip": "ym2612"
    },
    {
      "channel": 3,
      "note": 66,
      "start": 26.5471,
      "duration": 0.0177,
      "velocity": 101,
      "chip": "ym2612"
    },
    {
      "channel": 1,
      "note": 71,
      "start": 26.5494,
      "duration": 0.0177,
      "velocity": 101,
      "chip": "ym2612"
    },
    {
      "channel": 0,
      "note": 40,
      "start": 26.5625,
      "duration": 0.0167,
      "velocity": 115,
      "chip": "ym2612"
    },
    {
      "channel": 4,
      "note": 63,
      "start": 26.5636,
      "duration": 0.0167,
      "velocity": 101,
      "chip": "ym2612"
    },
    {
      "channel": 3,
      "note": 66,
      "start": 26.5648,
      "duration": 0.0167,
      "velocity": 101,
      "chip": "ym2612"
    },
    {
      "channel": 1,
      "note": 71,
      "start": 26.5671,
      "duration": 0.0167,
      "velocity": 101,
      "chip": "ym2612"
    },
    {
      "channel": 0,
      "note": 40,
      "start": 26.5792,
      "duration": 0.0163,
      "velocity": 115,
      "chip": "ym2612"
    },
    {
      "channel": 4,
      "note": 63,
      "start": 26.5803,
      "duration": 0.0163,
      "velocity": 101,
      "chip": "ym2612"
    },
    {
      "channel": 3,
      "note": 66,
      "start": 26.5815,
      "duration": 0.0163,
      "velocity": 101,
      "chip": "ym2612"
    },
    {
      "channel": 1,
      "note": 71,
      "start": 26.5837,
      "duration": 0.0163,
      "velocity": 101,
      "chip": "ym2612"
    },
    {
      "channel": 0,
      "note": 41,
      "start": 26.5954,
      "duration": 0.0141,
      "velocity": 115,
      "chip": "ym2612"
    },
    {
      "channel": 4,
      "note": 63,
      "start": 26.5966,
      "duration": 0.0141,
      "velocity": 101,
      "chip": "ym2612"
    },
    {
      "channel": 3,
      "note": 66,
      "start": 26.5977,
      "duration": 0.0141,
      "velocity": 101,
      "chip": "ym2612"
    },
    {
      "channel": 1,
      "note": 71,
      "start": 26.6,
      "duration": 0.0141,
      "velocity": 101,
      "chip": "ym2612"
    },
    {
      "channel": 0,
      "note": 41,
      "start": 26.6095,
      "duration": 0.0185,
      "velocity": 115,
      "chip": "ym2612"
    },
    {
      "channel": 4,
      "note": 63,
      "start": 26.6106,
      "duration": 0.0186,
      "velocity": 101,
      "chip": "ym2612"
    },
    {
      "channel": 3,
      "note": 66,
      "start": 26.6118,
      "duration": 0.0186,
      "velocity": 101,
      "chip": "ym2612"
    },
    {
      "channel": 1,
      "note": 71,
      "start": 26.6141,
      "duration": 0.0185,
      "velocity": 101,
      "chip": "ym2612"
    },
    {
      "channel": 0,
      "note": 42,
      "start": 26.628,
      "duration": 0.0179,
      "velocity": 124,
      "chip": "ym2612"
    },
    {
      "channel": 4,
      "note": 63,
      "start": 26.6292,
      "duration": 0.0179,
      "velocity": 101,
      "chip": "ym2612"
    },
    {
      "channel": 3,
      "note": 66,
      "start": 26.6304,
      "duration": 0.0179,
      "velocity": 101,
      "chip": "ym2612"
    },
    {
      "channel": 1,
      "note": 71,
      "start": 26.6326,
      "duration": 0.0179,
      "velocity": 101,
      "chip": "ym2612"
    },
    {
      "channel": 0,
      "note": 84,
      "start": 26.6459,
      "duration": 0.0116,
      "velocity": 124,
      "chip": "ym2612"
    },
    {
      "channel": 4,
      "note": 63,
      "start": 26.6471,
      "duration": 0.014,
      "velocity": 101,
      "chip": "ym2612"
    },
    {
      "channel": 3,
      "note": 66,
      "start": 26.6482,
      "duration": 0.014,
      "velocity": 101,
      "chip": "ym2612"
    },
    {
      "channel": 1,
      "note": 71,
      "start": 26.6505,
      "duration": 0.014,
      "velocity": 101,
      "chip": "ym2612"
    },
    {
      "channel": 0,
      "note": 82,
      "start": 26.6575,
      "duration": 0.0161,
      "velocity": 124,
      "chip": "ym2612"
    },
    {
      "channel": 4,
      "note": 63,
      "start": 26.6611,
      "duration": 0.014,
      "velocity": 101,
      "chip": "ym2612"
    },
    {
      "channel": 3,
      "note": 66,
      "start": 26.6622,
      "duration": 0.014,
      "velocity": 101,
      "chip": "ym2612"
    },
    {
      "channel": 1,
      "note": 71,
      "start": 26.6645,
      "duration": 0.014,
      "velocity": 101,
      "chip": "ym2612"
    },
    {
      "channel": 0,
      "note": 80,
      "start": 26.6736,
      "duration": 0.0161,
      "velocity": 124,
      "chip": "ym2612"
    },
    {
      "channel": 4,
      "note": 63,
      "start": 26.6751,
      "duration": 0.0158,
      "velocity": 101,
      "chip": "ym2612"
    },
    {
      "channel": 3,
      "note": 66,
      "start": 26.6762,
      "duration": 0.0185,
      "velocity": 101,
      "chip": "ym2612"
    },
    {
      "channel": 1,
      "note": 71,
      "start": 26.6785,
      "duration": 0.0185,
      "velocity": 101,
      "chip": "ym2612"
    },
    {
      "channel": 0,
      "note": 77,
      "start": 26.6897,
      "duration": 0.0161,
      "velocity": 124,
      "chip": "ym2612"
    },
    {
      "channel": 4,
      "note": 63,
      "start": 26.6909,
      "duration": 0.0161,
      "velocity": 101,
      "chip": "ym2612"
    },
    {
      "channel": 3,
      "note": 66,
      "start": 26.6947,
      "duration": 0.0161,
      "velocity": 101,
      "chip": "ym2612"
    },
    {
      "channel": 1,
      "note": 71,
      "start": 26.697,
      "duration": 0.0161,
      "velocity": 101,
      "chip": "ym2612"
    },
    {
      "channel": 0,
      "note": 75,
      "start": 26.7058,
      "duration": 0.0161,
      "velocity": 124,
      "chip": "ym2612"
    },
    {
      "channel": 4,
      "note": 63,
      "start": 26.707,
      "duration": 0.0161,
      "velocity": 101,
      "chip": "ym2612"
    },
    {
      "channel": 3,
      "note": 66,
      "start": 26.7108,
      "duration": 0.0134,
      "velocity": 101,
      "chip": "ym2612"
    },
    {
      "channel": 1,
      "note": 71,
      "start": 26.7131,
      "duration": 0.0158,
      "velocity": 101,
      "chip": "ym2612"
    },
    {
      "channel": 0,
      "note": 72,
      "start": 26.7219,
      "duration": 0.0161,
      "velocity": 124,
      "chip": "ym2612"
    },
    {
      "channel": 4,
      "note": 63,
      "start": 26.7231,
      "duration": 0.0161,
      "velocity": 101,
      "chip": "ym2612"
    },
    {
      "channel": 3,
      "note": 66,
      "start": 26.7242,
      "duration": 0.0161,
      "velocity": 101,
      "chip": "ym2612"
    },
    {
      "channel": 1,
      "note": 71,
      "start": 26.7289,
      "duration": 0.014,
      "velocity": 101,
      "chip": "ym2612"
    },
    {
      "channel": 0,
      "note": 70,
      "start": 26.738,
      "duration": 0.0161,
      "velocity": 124,
      "chip": "ym2612"
    },
    {
      "channel": 4,
      "note": 63,
      "start": 26.7391,
      "duration": 0.0161,
      "velocity": 101,
      "chip": "ym2612"
    },
    {
      "channel": 3,
      "note": 66,
      "start": 26.7403,
      "duration": 0.0161,
      "velocity": 101,
      "chip": "ym2612"
    },
    {
      "channel": 1,
      "note": 71,
      "start": 26.7429,
      "duration": 0.0185,
      "velocity": 101,
      "chip": "ym2612"
    },
    {
      "channel": 0,
      "note": 68,
      "start": 26.7541,
      "duration": 0.0161,
      "velocity": 124,
      "chip": "ym2612"
    },
    {
      "channel": 4,
      "note": 63,
      "start": 26.7552,
      "duration": 0.0162,
      "velocity": 101,
      "chip": "ym2612"
    },
    {
      "channel": 3,
      "note": 66,
      "start": 26.7564,
      "duration": 0.0161,
      "velocity": 101,
      "chip": "ym2612"
    },
    {
      "channel": 1,
      "note": 71,
      "start": 26.7614,
      "duration": 0.0161,
      "velocity": 101,
      "chip": "ym2612"
    },
    {
      "channel": 0,
      "note": 65,
      "start": 26.7702,
      "duration": 0.0161,
      "velocity": 124,
      "chip": "ym2612"
    },
    {
      "channel": 4,
      "note": 63,
      "start": 26.7714,
      "duration": 0.0161,
      "velocity": 101,
      "chip": "ym2612"
    },
    {
      "channel": 3,
      "note": 66,
      "start": 26.7725,
      "duration": 0.0161,
      "velocity": 101,
      "chip": "ym2612"
    },
    {
      "channel": 1,
      "note": 71,
      "start": 26.7775,
      "duration": 0.0134,
      "velocity": 101,
      "chip": "ym2612"
    },
    {
      "channel": 0,
      "note": 63,
      "start": 26.7863,
      "duration": 0.0153,
      "velocity": 1,
      "chip": "ym2612"
    },
    {
      "channel": 4,
      "note": 63,
      "start": 26.7875,
      "duration": 0.0153,
      "velocity": 101,
      "chip": "ym2612"
    },
    {
      "channel": 3,
      "note": 66,
      "start": 26.7886,
      "duration": 0.0153,
      "velocity": 101,
      "chip": "ym2612"
    },
    {
      "channel": 1,
      "note": 71,
      "start": 26.7909,
      "duration": 0.0153,
      "velocity": 101,
      "chip": "ym2612"
    },
    {
      "channel": 4,
      "note": 63,
      "start": 26.8028,
      "duration": 0.0153,
      "velocity": 101,
      "chip": "ym2612"
    },
    {
      "channel": 3,
      "note": 66,
      "start": 26.8039,
      "duration": 0.0153,
      "velocity": 101,
      "chip": "ym2612"
    },
    {
      "channel": 1,
      "note": 71,
      "start": 26.8062,
      "duration": 0.0153,
      "velocity": 101,
      "chip": "ym2612"
    },
    {
      "channel": 4,
      "note": 63,
      "start": 26.818,
      "duration": 0.0161,
      "velocity": 101,
      "chip": "ym2612"
    },
    {
      "channel": 3,
      "note": 66,
      "start": 26.8192,
      "duration": 0.0161,
      "velocity": 101,
      "chip": "ym2612"
    },
    {
      "channel": 1,
      "note": 71,
      "start": 26.8215,
      "duration": 0.0161,
      "velocity": 101,
      "chip": "ym2612"
    },
    {
      "channel": 4,
      "note": 63,
      "start": 26.8341,
      "duration": 0.0161,
      "velocity": 101,
      "chip": "ym2612"
    },
    {
      "channel": 3,
      "note": 66,
      "start": 26.8353,
      "duration": 0.0161,
      "velocity": 101,
      "chip": "ym2612"
    },
    {
      "channel": 1,
      "note": 71,
      "start": 26.8376,
      "duration": 0.0161,
      "velocity": 101,
      "chip": "ym2612"
    },
    {
      "channel": 4,
      "note": 63,
      "start": 26.8502,
      "duration": 0.0196,
      "velocity": 101,
      "chip": "ym2612"
    },
    {
      "channel": 3,
      "note": 66,
      "start": 26.8514,
      "duration": 0.0196,
      "velocity": 101,
      "chip": "ym2612"
    },
    {
      "channel": 1,
      "note": 71,
      "start": 26.8537,
      "duration": 0.0195,
      "velocity": 101,
      "chip": "ym2612"
    },
    {
      "channel": 0,
      "note": 36,
      "start": 26.8686,
      "duration": 0.0144,
      "velocity": 115,
      "chip": "ym2612"
    },
    {
      "channel": 4,
      "note": 63,
      "start": 26.8698,
      "duration": 0.0143,
      "velocity": 101,
      "chip": "ym2612"
    },
    {
      "channel": 3,
      "note": 66,
      "start": 26.871,
      "duration": 0.0143,
      "velocity": 101,
      "chip": "ym2612"
    },
    {
      "channel": 1,
      "note": 71,
      "start": 26.8732,
      "duration": 0.0144,
      "velocity": 101,
      "chip": "ym2612"
    },
    {
      "channel": 0,
      "note": 36,
      "start": 26.883,
      "duration": 0.016,
      "velocity": 115,
      "chip": "ym2612"
    },
    {
      "channel": 4,
      "note": 63,
      "start": 26.8841,
      "duration": 0.016,
      "velocity": 101,
      "chip": "ym2612"
    },
    {
      "channel": 3,
      "note": 66,
      "start": 26.8853,
      "duration": 0.016,
      "velocity": 101,
      "chip": "ym2612"
    },
    {
      "channel": 1,
      "note": 71,
      "start": 26.8876,
      "duration": 0.016,
      "velocity": 101,
      "chip": "ym2612"
    },
    {
      "channel": 0,
      "note": 37,
      "start": 26.899,
      "duration": 0.0161,
      "velocity": 115,
      "chip": "ym2612"
    },
    {
      "channel": 4,
      "note": 63,
      "start": 26.9002,
      "duration": 0.0161,
      "velocity": 101,
      "chip": "ym2612"
    },
    {
      "channel": 3,
      "note": 66,
      "start": 26.9013,
      "duration": 0.0161,
      "velocity": 101,
      "chip": "ym2612"
    },
    {
      "channel": 1,
      "note": 71,
      "start": 26.9036,
      "duration": 0.0161,
      "velocity": 101,
      "chip": "ym2612"
    },
    {
      "channel": 0,
      "note": 37,
      "start": 26.9151,
      "duration": 0.0161,
      "velocity": 115,
      "chip": "ym2612"
    },
    {
      "channel": 4,
      "note": 63,
      "start": 26.9162,
      "duration": 0.0161,
      "velocity": 101,
      "chip": "ym2612"
    },
    {
      "channel": 3,
      "note": 66,
      "start": 26.9174,
      "duration": 0.0161,
      "velocity": 101,
      "chip": "ym2612"
    },
    {
      "channel": 1,
      "note": 71,
      "start": 26.9197,
      "duration": 0.0161,
      "velocity": 101,
      "chip": "ym2612"
    },
    {
      "channel": 0,
      "note": 38,
      "start": 26.9312,
      "duration": 0.0161,
      "velocity": 115,
      "chip": "ym2612"
    },
    {
      "channel": 4,
      "note": 63,
      "start": 26.9323,
      "duration": 0.0162,
      "velocity": 101,
      "chip": "ym2612"
    },
    {
      "channel": 3,
      "note": 66,
      "start": 26.9335,
      "duration": 0.0161,
      "velocity": 101,
      "chip": "ym2612"
    },
    {
      "channel": 1,
      "note": 71,
      "start": 26.9358,
      "duration": 0.0161,
      "velocity": 101,
      "chip": "ym2612"
    },
    {
      "channel": 0,
      "note": 38,
      "start": 26.9473,
      "duration": 0.0161,
      "velocity": 115,
      "chip": "ym2612"
    },
    {
      "channel": 4,
      "note": 63,
      "start": 26.9485,
      "duration": 0.0161,
      "velocity": 101,
      "chip": "ym2612"
    },
    {
      "channel": 3,
      "note": 66,
      "start": 26.9496,
      "duration": 0.0161,
      "velocity": 101,
      "chip": "ym2612"
    },
    {
      "channel": 1,
      "note": 71,
      "start": 26.9519,
      "duration": 0.0161,
      "velocity": 101,
      "chip": "ym2612"
    },
    {
      "channel": 0,
      "note": 39,
      "start": 26.9634,
      "duration": 0.0162,
      "velocity": 115,
      "chip": "ym2612"
    },
    {
      "channel": 4,
      "note": 63,
      "start": 26.9646,
      "duration": 0.0161,
      "velocity": 101,
      "chip": "ym2612"
    },
    {
      "channel": 3,
      "note": 66,
      "start": 26.9657,
      "duration": 0.0161,
      "velocity": 101,
      "chip": "ym2612"
    },
    {
      "channel": 1,
      "note": 71,
      "start": 26.968,
      "duration": 0.0162,
      "velocity": 101,
      "chip": "ym2612"
    },
    {
      "channel": 0,
      "note": 39,
      "start": 26.9795,
      "duration": 0.0161,
      "velocity": 115,
      "chip": "ym2612"
    },
    {
      "channel": 4,
      "note": 63,
      "start": 26.9807,
      "duration": 0.0161,
      "velocity": 101,
      "chip": "ym2612"
    },
    {
      "channel": 3,
      "note": 66,
      "start": 26.9818,
      "duration": 0.0161,
      "velocity": 101,
      "chip": "ym2612"
    },
    {
      "channel": 1,
      "note": 71,
      "start": 26.9841,
      "duration": 0.0161,
      "velocity": 101,
      "chip": "ym2612"
    },
    {
      "channel": 0,
      "note": 40,
      "start": 26.9956,
      "duration": 0.0161,
      "velocity": 115,
      "chip": "ym2612"
    },
    {
      "channel": 4,
      "note": 63,
      "start": 26.9968,
      "duration": 0.0161,
      "velocity": 101,
      "chip": "ym2612"
    },
    {
      "channel": 3,
      "note": 66,
      "start": 26.9979,
      "duration": 0.0161,
      "velocity": 101,
      "chip": "ym2612"
    },
    {
      "channel": 1,
      "note": 71,
      "start": 27.0002,
      "duration": 0.0161,
      "velocity": 101,
      "chip": "ym2612"
    },
    {
      "channel": 0,
      "note": 40,
      "start": 27.0117,
      "duration": 0.0174,
      "velocity": 115,
      "chip": "ym2612"
    },
    {
      "channel": 4,
      "note": 63,
      "start": 27.0129,
      "duration": 0.0174,
      "velocity": 101,
      "chip": "ym2612"
    },
    {
      "channel": 3,
      "note": 66,
      "start": 27.014,
      "duration": 0.0174,
      "velocity": 101,
      "chip": "ym2612"
    },
    {
      "channel": 1,
      "note": 71,
      "start": 27.0163,
      "duration": 0.0174,
      "velocity": 101,
      "chip": "ym2612"
    },
    {
      "channel": 0,
      "note": 40,
      "start": 27.0292,
      "duration": 0.0167,
      "velocity": 115,
      "chip": "ym2612"
    },
    {
      "channel": 4,
      "note": 63,
      "start": 27.0303,
      "duration": 0.0167,
      "velocity": 101,
      "chip": "ym2612"
    },
    {
      "channel": 3,
      "note": 66,
      "start": 27.0315,
      "duration": 0.0167,
      "velocity": 101,
      "chip": "ym2612"
    },
    {
      "channel": 1,
      "note": 71,
      "start": 27.0337,
      "duration": 0.0167,
      "velocity": 101,
      "chip": "ym2612"
    },
    {
      "channel": 0,
      "note": 41,
      "start": 27.0458,
      "duration": 0.0163,
      "velocity": 115,
      "chip": "ym2612"
    },
    {
      "channel": 4,
      "note": 63,
      "start": 27.047,
      "duration": 0.0163,
      "velocity": 101,
      "chip": "ym2612"
    },
    {
      "channel": 3,
      "note": 66,
      "start": 27.0481,
      "duration": 0.0163,
      "velocity": 101,
      "chip": "ym2612"
    },
    {
      "channel": 1,
      "note": 71,
      "start": 27.0504,
      "duration": 0.0163,
      "velocity": 101,
      "chip": "ym2612"
    },
    {
      "channel": 0,
      "note": 41,
      "start": 27.0621,
      "duration": 0.0143,
      "velocity": 115,
      "chip": "ym2612"
    },
    {
      "channel": 4,
      "note": 63,
      "start": 27.0632,
      "duration": 0.0144,
      "velocity": 101,
      "chip": "ym2612"
    },
    {
      "channel": 3,
      "note": 66,
      "start": 27.0644,
      "duration": 0.0144,
      "velocity": 101,
      "chip": "ym2612"
    },
    {
      "channel": 1,
      "note": 71,
      "start": 27.0667,
      "duration": 0.0143,
      "velocity": 101,
      "chip": "ym2612"
    },
    {
      "channel": 0,
      "note": 42,
      "start": 27.0764,
      "duration": 0.0203,
      "velocity": 115,
      "chip": "ym2612"
    },
    {
      "channel": 4,
      "note": 63,
      "start": 27.0776,
      "duration": 0.0206,
      "velocity": 101,
      "chip": "ym2612"
    },
    {
      "channel": 3,
      "note": 66,
      "start": 27.0788,
      "duration": 0.0208,
      "velocity": 101,
      "chip": "ym2612"
    },
    {
      "channel": 1,
      "note": 71,
      "start": 27.081,
      "duration": 0.0213,
      "velocity": 101,
      "chip": "ym2612"
    },
    {
      "channel": 0,
      "note": 36,
      "start": 27.0968,
      "duration": 0.0143,
      "velocity": 115,
      "chip": "ym2612"
    },
    {
      "channel": 4,
      "note": 56,
      "start": 27.0982,
      "duration": 0.0142,
      "velocity": 101,
      "chip": "ym2612"
    },
    {
      "channel": 3,
      "note": 59,
      "start": 27.0996,
      "duration": 0.014,
      "velocity": 101,
      "chip": "ym2612"
    },
    {
      "channel": 1,
      "note": 64,
      "start": 27.1023,
      "duration": 0.0136,
      "velocity": 101,
      "chip": "ym2612"
    },
    {
      "channel": 0,
      "note": 36,
      "start": 27.1111,
      "duration": 0.0156,
      "velocity": 115,
      "chip": "ym2612"
    },
    {
      "channel": 4,
      "note": 56,
      "start": 27.1124,
      "duration": 0.0156,
      "velocity": 101,
      "chip": "ym2612"
    },
    {
      "channel": 3,
      "note": 59,
      "start": 27.1136,
      "duration": 0.0155,
      "velocity": 101,
      "chip": "ym2612"
    },
    {
      "channel": 1,
      "note": 64,
      "start": 27.1159,
      "duration": 0.0155,
      "velocity": 101,
      "chip": "ym2612"
    },
    {
      "channel": 0,
      "note": 37,
      "start": 27.1267,
      "duration": 0.0138,
      "velocity": 115,
      "chip": "ym2612"
    },
    {
      "channel": 4,
      "note": 56,
      "start": 27.128,
      "duration": 0.0141,
      "velocity": 101,
      "chip": "ym2612"
    },
    {
      "channel": 3,
      "note": 59,
      "start": 27.1291,
      "duration": 0.0141,
      "velocity": 101,
      "chip": "ym2612"
    },
    {
      "channel": 1,
      "note": 64,
      "start": 27.1314,
      "duration": 0.0141,
      "velocity": 101,
      "chip": "ym2612"
    },
    {
      "channel": 0,
      "note": 37,
      "start": 27.1405,
      "duration": 0.0161,
      "velocity": 115,
      "chip": "ym2612"
    },
    {
      "channel": 4,
      "note": 56,
      "start": 27.142,
      "duration": 0.0186,
      "velocity": 101,
      "chip": "ym2612"
    },
    {
      "channel": 3,
      "note": 59,
      "start": 27.1432,
      "duration": 0.0185,
      "velocity": 101,
      "chip": "ym2612"
    },
    {
      "channel": 1,
      "note": 64,
      "start": 27.1454,
      "duration": 0.0185,
      "velocity": 101,
      "chip": "ym2612"
    },
    {
      "channel": 0,
      "note": 38,
      "start": 27.1566,
      "duration": 0.0161,
      "velocity": 115,
      "chip": "ym2612"
    },
    {
      "channel": 4,
      "note": 56,
      "start": 27.1606,
      "duration": 0.0133,
      "velocity": 101,
      "chip": "ym2612"
    },
    {
      "channel": 3,
      "note": 59,
      "start": 27.1617,
      "duration": 0.0162,
      "velocity": 101,
      "chip": "ym2612"
    },
    {
      "channel": 1,
      "note": 64,
      "start": 27.1639,
      "duration": 0.0161,
      "velocity": 101,
      "chip": "ym2612"
    },
    {
      "channel": 0,
      "note": 38,
      "start": 27.1727,
      "duration": 0.0161,
      "velocity": 115,
      "chip": "ym2612"
    },
    {
      "channel": 4,
      "note": 56,
      "start": 27.1739,
      "duration": 0.0161,
      "velocity": 101,
      "chip": "ym2612"
    },
    {
      "channel": 3,
      "note": 59,
      "start": 27.1778,
      "duration": 0.0156,
      "velocity": 101,
      "chip": "ym2612"
    },
    {
      "channel": 1,
      "note": 64,
      "start": 27.18,
      "duration": 0.0158,
      "velocity": 101,
      "chip": "ym2612"
    },
    {
      "channel": 0,
      "note": 39,
      "start": 27.1888,
      "duration": 0.0161,
      "velocity": 115,
      "chip": "ym2612"
    },
    {
      "channel": 4,
      "note": 56,
      "start": 27.19,
      "duration": 0.0161,
      "velocity": 101,
      "chip": "ym2612"
    },
    {
      "channel": 3,
      "note": 59,
      "start": 27.1935,
      "duration": 0.0137,
      "velocity": 101,
      "chip": "ym2612"
    },
    {
      "channel": 1,
      "note": 64,
      "start": 27.1958,
      "duration": 0.014,
      "velocity": 101,
      "chip": "ym2612"
    },
    {
      "channel": 0,
      "note": 39,
      "start": 27.2049,
      "duration": 0.0161,
      "velocity": 115,
      "chip": "ym2612"
    },
    {
      "channel": 4,
      "note": 56,
      "start": 27.2061,
      "duration": 0.0162,
      "velocity": 101,
      "chip": "ym2612"
    },
    {
      "channel": 3,
      "note": 59,
      "start": 27.2072,
      "duration": 0.0162,
      "velocity": 101,
      "chip": "ym2612"
    },
    {
      "channel": 1,
      "note": 64,
      "start": 27.2098,
      "duration": 0.0186,
      "velocity": 101,
      "chip": "ym2612"
    },
    {
      "channel": 0,
      "note": 40,
      "start": 27.221,
      "duration": 0.0161,
      "velocity": 115,
      "chip": "ym2612"
    },
    {
      "channel": 4,
      "note": 56,
      "start": 27.2222,
      "duration": 0.0161,
      "velocity": 101,
      "chip": "ym2612"
    },
    {
      "channel": 3,
      "note": 59,
      "start": 27.2234,
      "duration": 0.0161,
      "velocity": 101,
      "chip": "ym2612"
    },
    {
      "channel": 1,
      "note": 64,
      "start": 27.2284,
      "duration": 0.016,
      "velocity": 101,
      "chip": "ym2612"
    },
    {
      "channel": 0,
      "note": 40,
      "start": 27.2371,
      "duration": 0.0161,
      "velocity": 115,
      "chip": "ym2612"
    },
    {
      "channel": 4,
      "note": 56,
      "start": 27.2383,
      "duration": 0.0161,
      "velocity": 101,
      "chip": "ym2612"
    },
    {
      "channel": 3,
      "note": 59,
      "start": 27.2395,
      "duration": 0.0161,
      "velocity": 101,
      "chip": "ym2612"
    },
    {
      "channel": 1,
      "note": 64,
      "start": 27.2444,
      "duration": 0.0157,
      "velocity": 101,
      "chip": "ym2612"
    },
    {
      "channel": 0,
      "note": 40,
      "start": 27.2532,
      "duration": 0.0162,
      "velocity": 115,
      "chip": "ym2612"
    },
    {
      "channel": 4,
      "note": 56,
      "start": 27.2544,
      "duration": 0.0161,
      "velocity": 101,
      "chip": "ym2612"
    },
    {
      "channel": 3,
      "note": 59,
      "start": 27.2556,
      "duration": 0.0161,
      "velocity": 101,
      "chip": "ym2612"
    },
    {
      "channel": 1,
      "note": 64,
      "start": 27.2601,
      "duration": 0.0138,
      "velocity": 101,
      "chip": "ym2612"
    },
    {
      "channel": 0,
      "note": 41,
      "start": 27.2694,
      "duration": 0.0161,
      "velocity": 115,
      "chip": "ym2612"
    },
    {
      "channel": 4,
      "note": 56,
      "start": 27.2705,
      "duration": 0.0161,
      "velocity": 101,
      "chip": "ym2612"
    },
    {
      "channel": 3,
      "note": 59,
      "start": 27.2717,
      "duration": 0.0161,
      "velocity": 101,
      "chip": "ym2612"
    },
    {
      "channel": 1,
      "note": 64,
      "start": 27.2739,
      "duration": 0.0161,
      "velocity": 101,
      "chip": "ym2612"
    },
    {
      "channel": 0,
      "note": 41,
      "start": 27.2855,
      "duration": 0.0161,
      "velocity": 115,
      "chip": "ym2612"
    },
    {
      "channel": 4,
      "note": 56,
      "start": 27.2866,
      "duration": 0.0161,
      "velocity": 101,
      "chip": "ym2612"
    },
    {
      "channel": 3,
      "note": 59,
      "start": 27.2878,
      "duration": 0.0161,
      "velocity": 101,
      "chip": "ym2612"
    },
    {
      "channel": 1,
      "note": 64,
      "start": 27.29,
      "duration": 0.0161,
      "velocity": 101,
      "chip": "ym2612"
    },
    {
      "channel": 0,
      "note": 42,
      "start": 27.3015,
      "duration": 0.0161,
      "velocity": 115,
      "chip": "ym2612"
    },
    {
      "channel": 4,
      "note": 56,
      "start": 27.3027,
      "duration": 0.0161,
      "velocity": 101,
      "chip": "ym2612"
    },
    {
      "channel": 3,
      "note": 59,
      "start": 27.3038,
      "duration": 0.0161,
      "velocity": 101,
      "chip": "ym2612"
    },
    {
      "channel": 1,
      "note": 64,
      "start": 27.3061,
      "duration": 0.0161,
      "velocity": 101,
      "chip": "ym2612"
    },
    {
      "channel": 0,
      "note": 42,
      "start": 27.3176,
      "duration": 0.0161,
      "velocity": 115,
      "chip": "ym2612"
    },
    {
      "channel": 4,
      "note": 56,
      "start": 27.3188,
      "duration": 0.0161,
      "velocity": 101,
      "chip": "ym2612"
    },
    {
      "channel": 3,
      "note": 59,
      "start": 27.3199,
      "duration": 0.0161,
      "velocity": 101,
      "chip": "ym2612"
    },
    {
      "channel": 1,
      "note": 64,
      "start": 27.3222,
      "duration": 0.0161,
      "velocity": 101,
      "chip": "ym2612"
    },
    {
      "channel": 0,
      "note": 43,
      "start": 27.3337,
      "duration": 0.0161,
      "velocity": 115,
      "chip": "ym2612"
    },
    {
      "channel": 4,
      "note": 56,
      "start": 27.3349,
      "duration": 0.0161,
      "velocity": 101,
      "chip": "ym2612"
    },
    {
      "channel": 3,
      "note": 59,
      "start": 27.336,
      "duration": 0.0161,
      "velocity": 101,
      "chip": "ym2612"
    },
    {
      "channel": 1,
      "note": 64,
      "start": 27.3383,
      "duration": 0.0161,
      "velocity": 101,
      "chip": "ym2612"
    },
    {
      "channel": 0,
      "note": 43,
      "start": 27.3498,
      "duration": 0.0161,
      "velocity": 115,
      "chip": "ym2612"
    },
    {
      "channel": 4,
      "note": 56,
      "start": 27.351,
      "duration": 0.0162,
      "velocity": 101,
      "chip": "ym2612"
    },
    {
      "channel": 3,
      "note": 59,
      "start": 27.3521,
      "duration": 0.0161,
      "velocity": 101,
      "chip": "ym2612"
    },
    {
      "channel": 1,
      "note": 64,
      "start": 27.3544,
      "duration": 0.0161,
      "velocity": 101,
      "chip": "ym2612"
    },
    {
      "channel": 0,
      "note": 44,
      "start": 27.3659,
      "duration": 0.0161,
      "velocity": 115,
      "chip": "ym2612"
    },
    {
      "channel": 4,
      "note": 56,
      "start": 27.3671,
      "duration": 0.0161,
      "velocity": 101,
      "chip": "ym2612"
    },
    {
      "channel": 3,
      "note": 59,
      "start": 27.3683,
      "duration": 0.0161,
      "velocity": 101,
      "chip": "ym2612"
    },
    {
      "channel": 1,
      "note": 64,
      "start": 27.3705,
      "duration": 0.0161,
      "velocity": 101,
      "chip": "ym2612"
    },
    {
      "channel": 0,
      "note": 44,
      "start": 27.382,
      "duration": 0.0161,
      "velocity": 115,
      "chip": "ym2612"
    },
    {
      "channel": 4,
      "note": 56,
      "start": 27.3832,
      "duration": 0.0161,
      "velocity": 101,
      "chip": "ym2612"
    },
    {
      "channel": 3,
      "note": 59,
      "start": 27.3844,
      "duration": 0.0161,
      "velocity": 101,
      "chip": "ym2612"
    },
    {
      "channel": 1,
      "note": 64,
      "start": 27.3866,
      "duration": 0.0161,
      "velocity": 101,
      "chip": "ym2612"
    },
    {
      "channel": 0,
      "note": 44,
      "start": 27.3981,
      "duration": 0.0161,
      "velocity": 115,
      "chip": "ym2612"
    },
    {
      "channel": 4,
      "note": 56,
      "start": 27.3993,
      "duration": 0.0161,
      "velocity": 101,
      "chip": "ym2612"
    },
    {
      "channel": 3,
      "note": 59,
      "start": 27.4005,
      "duration": 0.0161,
      "velocity": 101,
      "chip": "ym2612"
    },
    {
      "channel": 1,
      "note": 64,
      "start": 27.4027,
      "duration": 0.0161,
      "velocity": 101,
      "chip": "ym2612"
    },
    {
      "channel": 0,
      "note": 45,
      "start": 27.4142,
      "duration": 0.0161,
      "velocity": 115,
      "chip": "ym2612"
    },
    {
      "channel": 4,
      "note": 56,
      "start": 27.4154,
      "duration": 0.0161,
      "velocity": 101,
      "chip": "ym2612"
    },
    {
      "channel": 3,
      "note": 59,
      "start": 27.4166,
      "duration": 0.0161,
      "velocity": 101,
      "chip": "ym2612"
    },
    {
      "channel": 1,
      "note": 64,
      "start": 27.4188,
      "duration": 0.0161,
      "velocity": 101,
      "chip": "ym2612"
    },
    {
      "channel": 0,
      "note": 45,
      "start": 27.4304,
      "duration": 0.0161,
      "velocity": 115,
      "chip": "ym2612"
    },
    {
      "channel": 4,
      "note": 56,
      "start": 27.4315,
      "duration": 0.0161,
      "velocity": 101,
      "chip": "ym2612"
    },
    {
      "channel": 3,
      "note": 59,
      "start": 27.4327,
      "duration": 0.0161,
      "velocity": 101,
      "chip": "ym2612"
    },
    {
      "channel": 1,
      "note": 64,
      "start": 27.4349,
      "duration": 0.0161,
      "velocity": 101,
      "chip": "ym2612"
    },
    {
      "channel": 0,
      "note": 46,
      "start": 27.4465,
      "duration": 0.0161,
      "velocity": 115,
      "chip": "ym2612"
    },
    {
      "channel": 4,
      "note": 56,
      "start": 27.4476,
      "duration": 0.0161,
      "velocity": 101,
      "chip": "ym2612"
    },
    {
      "channel": 3,
      "note": 59,
      "start": 27.4488,
      "duration": 0.0161,
      "velocity": 101,
      "chip": "ym2612"
    },
    {
      "channel": 1,
      "note": 64,
      "start": 27.451,
      "duration": 0.0161,
      "velocity": 101,
      "chip": "ym2612"
    },
    {
      "channel": 0,
      "note": 46,
      "start": 27.4626,
      "duration": 0.0161,
      "velocity": 115,
      "chip": "ym2612"
    },
    {
      "channel": 4,
      "note": 56,
      "start": 27.4637,
      "duration": 0.0161,
      "velocity": 101,
      "chip": "ym2612"
    },
    {
      "channel": 3,
      "note": 59,
      "start": 27.4649,
      "duration": 0.0161,
      "velocity": 101,
      "chip": "ym2612"
    },
    {
      "channel": 1,
      "note": 64,
      "start": 27.4671,
      "duration": 0.0161,
      "velocity": 101,
      "chip": "ym2612"
    },
    {
      "channel": 0,
      "note": 47,
      "start": 27.4786,
      "duration": 0.0172,
      "velocity": 115,
      "chip": "ym2612"
    },
    {
      "channel": 4,
      "note": 56,
      "start": 27.4798,
      "duration": 0.0172,
      "velocity": 101,
      "chip": "ym2612"
    },
    {
      "channel": 3,
      "note": 59,
      "start": 27.4809,
      "duration": 0.0172,
      "velocity": 101,
      "chip": "ym2612"
    },
    {
      "channel": 1,
      "note": 64,
      "start": 27.4832,
      "duration": 0.0172,
      "velocity": 101,
      "chip": "ym2612"
    },
    {
      "channel": 0,
      "note": 47,
      "start": 27.4958,
      "duration": 0.0167,
      "velocity": 115,
      "chip": "ym2612"
    },
    {
      "channel": 4,
      "note": 56,
      "start": 27.497,
      "duration": 0.0167,
      "velocity": 101,
      "chip": "ym2612"
    },
    {
      "channel": 3,
      "note": 59,
      "start": 27.4981,
      "duration": 0.0167,
      "velocity": 101,
      "chip": "ym2612"
    },
    {
      "channel": 1,
      "note": 64,
      "start": 27.5004,
      "duration": 0.0167,
      "velocity": 101,
      "chip": "ym2612"
    },
    {
      "channel": 0,
      "note": 47,
      "start": 27.5125,
      "duration": 0.0163,
      "velocity": 115,
      "chip": "ym2612"
    },
    {
      "channel": 4,
      "note": 56,
      "start": 27.5136,
      "duration": 0.0163,
      "velocity": 101,
      "chip": "ym2612"
    },
    {
      "channel": 3,
      "note": 59,
      "start": 27.5148,
      "duration": 0.0163,
      "velocity": 101,
      "chip": "ym2612"
    },
    {
      "channel": 1,
      "note": 64,
      "start": 27.5171,
      "duration": 0.0163,
      "velocity": 101,
      "chip": "ym2612"
    },
    {
      "channel": 0,
      "note": 48,
      "start": 27.5288,
      "duration": 0.0163,
      "velocity": 124,
      "chip": "ym2612"
    },
    {
      "channel": 4,
      "note": 56,
      "start": 27.5299,
      "duration": 0.0164,
      "velocity": 101,
      "chip": "ym2612"
    },
    {
      "channel": 3,
      "note": 59,
      "start": 27.5311,
      "duration": 0.0164,
      "velocity": 101,
      "chip": "ym2612"
    },
    {
      "channel": 1,
      "note": 64,
      "start": 27.5334,
      "duration": 0.0164,
      "velocity": 101,
      "chip": "ym2612"
    },
    {
      "channel": 0,
      "note": 84,
      "start": 27.5452,
      "duration": 0.0168,
      "velocity": 124,
      "chip": "ym2612"
    },
    {
      "channel": 4,
      "note": 56,
      "start": 27.5463,
      "duration": 0.0168,
      "velocity": 101,
      "chip": "ym2612"
    },
    {
      "channel": 3,
      "note": 59,
      "start": 27.5475,
      "duration": 0.0168,
      "velocity": 101,
      "chip": "ym2612"
    },
    {
      "channel": 1,
      "note": 64,
      "start": 27.5498,
      "duration": 0.0168,
      "velocity": 101,
      "chip": "ym2612"
    },
    {
      "channel": 0,
      "note": 82,
      "start": 27.562,
      "duration": 0.016,
      "velocity": 124,
      "chip": "ym2612"
    },
    {
      "channel": 4,
      "note": 56,
      "start": 27.5631,
      "duration": 0.016,
      "velocity": 101,
      "chip": "ym2612"
    },
    {
      "channel": 3,
      "note": 59,
      "start": 27.5643,
      "duration": 0.016,
      "velocity": 101,
      "chip": "ym2612"
    },
    {
      "channel": 1,
      "note": 64,
      "start": 27.5666,
      "duration": 0.016,
      "velocity": 101,
      "chip": "ym2612"
    },
    {
      "channel": 0,
      "note": 80,
      "start": 27.578,
      "duration": 0.0157,
      "velocity": 124,
      "chip": "ym2612"
    },
    {
      "channel": 4,
      "note": 56,
      "start": 27.5792,
      "duration": 0.0158,
      "velocity": 101,
      "chip": "ym2612"
    },
    {
      "channel": 3,
      "note": 59,
      "start": 27.5803,
      "duration": 0.0158,
      "velocity": 101,
      "chip": "ym2612"
    },
    {
      "channel": 1,
      "note": 64,
      "start": 27.5826,
      "duration": 0.0157,
      "velocity": 101,
      "chip": "ym2612"
    },
    {
      "channel": 0,
      "note": 77,
      "start": 27.5937,
      "duration": 0.0137,
      "velocity": 124,
      "chip": "ym2612"
    },
    {
      "channel": 4,
      "note": 56,
      "start": 27.5949,
      "duration": 0.014,
      "velocity": 101,
      "chip": "ym2612"
    },
    {
      "channel": 3,
      "note": 59,
      "start": 27.5961,
      "duration": 0.014,
      "velocity": 101,
      "chip": "ym2612"
    },
    {
      "channel": 1,
      "note": 64,
      "start": 27.5983,
      "duration": 0.0141,
      "velocity": 101,
      "chip": "ym2612"
    },
    {
      "channel": 0,
      "note": 75,
      "start": 27.6075,
      "duration": 0.0161,
      "velocity": 124,
      "chip": "ym2612"
    },
    {
      "channel": 4,
      "note": 56,
      "start": 27.6089,
      "duration": 0.0186,
      "velocity": 101,
      "chip": "ym2612"
    },
    {
      "channel": 3,
      "note": 59,
      "start": 27.6101,
      "duration": 0.0186,
      "velocity": 101,
      "chip": "ym2612"
    },
    {
      "channel": 1,
      "note": 64,
      "start": 27.6124,
      "duration": 0.0185,
      "velocity": 101,
      "chip": "ym2612"
    },
    {
      "channel": 0,
      "note": 72,
      "start": 27.6236,
      "duration": 0.0161,
      "velocity": 124,
      "chip": "ym2612"
    },
    {
      "channel": 4,
      "note": 56,
      "start": 27.6275,
      "duration": 0.0134,
      "velocity": 101,
      "chip": "ym2612"
    },
    {
      "channel": 3,
      "note": 59,
      "start": 27.6286,
      "duration": 0.0161,
      "velocity": 101,
      "chip": "ym2612"
    },
    {
      "channel": 1,
      "note": 64,
      "start": 27.6309,
      "duration": 0.0161,
      "velocity": 101,
      "chip": "ym2612"
    },
    {
      "channel": 0,
      "note": 70,
      "start": 27.6397,
      "duration": 0.0161,
      "velocity": 124,
      "chip": "ym2612"
    },
    {
      "channel": 4,
      "note": 56,
      "start": 27.6409,
      "duration": 0.0161,
      "velocity": 101,
      "chip": "ym2612"
    },
    {
      "channel": 3,
      "note": 59,
      "start": 27.6447,
      "duration": 0.0157,
      "velocity": 101,
      "chip": "ym2612"
    },
    {
      "channel": 1,
      "note": 64,
      "start": 27.647,
      "duration": 0.0157,
      "velocity": 101,
      "chip": "ym2612"
    },
    {
      "channel": 0,
      "note": 68,
      "start": 27.6557,
      "duration": 0.0161,
      "velocity": 124,
      "chip": "ym2612"
    },
    {
      "channel": 4,
      "note": 56,
      "start": 27.657,
      "duration": 0.0161,
      "velocity": 101,
      "chip": "ym2612"
    },
    {
      "channel": 3,
      "note": 59,
      "start": 27.6605,
      "duration": 0.0137,
      "velocity": 101,
      "chip": "ym2612"
    },
    {
      "channel": 1,
      "note": 64,
      "start": 27.6627,
      "duration": 0.014,
      "velocity": 101,
      "chip": "ym2612"
    },
    {
      "channel": 0,
      "note": 65,
      "start": 27.6718,
      "duration": 0.0161,
      "velocity": 124,
      "chip": "ym2612"
    },
    {
      "channel": 4,
      "note": 56,
      "start": 27.6731,
      "duration": 0.0161,
      "velocity": 101,
      "chip": "ym2612"
    },
    {
      "channel": 3,
      "note": 59,
      "start": 27.6742,
      "duration": 0.0161,
      "velocity": 101,
      "chip": "ym2612"
    },
    {
      "channel": 1,
      "note": 64,
      "start": 27.6767,
      "duration": 0.0185,
      "velocity": 101,
      "chip": "ym2612"
    },
    {
      "channel": 0,
      "note": 63,
      "start": 27.6879,
      "duration": 0.0153,
      "velocity": 1,
      "chip": "ym2612"
    },
    {
      "channel": 4,
      "note": 56,
      "start": 27.6891,
      "duration": 0.0153,
      "velocity": 101,
      "chip": "ym2612"
    },
    {
      "channel": 3,
      "note": 59,
      "start": 27.6903,
      "duration": 0.0153,
      "velocity": 101,
      "chip": "ym2612"
    },
    {
      "channel": 1,
      "note": 64,
      "start": 27.6953,
      "duration": 0.0153,
      "velocity": 101,
      "chip": "ym2612"
    },
    {
      "channel": 4,
      "note": 56,
      "start": 27.7044,
      "duration": 0.0153,
      "velocity": 101,
      "chip": "ym2612"
    },
    {
      "channel": 3,
      "note": 59,
      "start": 27.7056,
      "duration": 0.0153,
      "velocity": 101,
      "chip": "ym2612"
    },
    {
      "channel": 1,
      "note": 64,
      "start": 27.7106,
      "duration": 0.0125,
      "velocity": 101,
      "chip": "ym2612"
    },
    {
      "channel": 4,
      "note": 56,
      "start": 27.7197,
      "duration": 0.0161,
      "velocity": 101,
      "chip": "ym2612"
    },
    {
      "channel": 3,
      "note": 59,
      "start": 27.7208,
      "duration": 0.0161,
      "velocity": 101,
      "chip": "ym2612"
    },
    {
      "channel": 1,
      "note": 64,
      "start": 27.7231,
      "duration": 0.0161,
      "velocity": 101,
      "chip": "ym2612"
    },
    {
      "channel": 4,
      "note": 56,
      "start": 27.7358,
      "duration": 0.0161,
      "velocity": 101,
      "chip": "ym2612"
    },
    {
      "channel": 3,
      "note": 59,
      "start": 27.7369,
      "duration": 0.0161,
      "velocity": 101,
      "chip": "ym2612"
    },
    {
      "channel": 1,
      "note": 64,
      "start": 27.7392,
      "duration": 0.0161,
      "velocity": 101,
      "chip": "ym2612"
    },
    {
      "channel": 4,
      "note": 56,
      "start": 27.7519,
      "duration": 0.0161,
      "velocity": 101,
      "chip": "ym2612"
    },
    {
      "channel": 3,
      "note": 59,
      "start": 27.753,
      "duration": 0.0161,
      "velocity": 101,
      "chip": "ym2612"
    },
    {
      "channel": 1,
      "note": 64,
      "start": 27.7553,
      "duration": 0.0161,
      "velocity": 101,
      "chip": "ym2612"
    },
    {
      "channel": 4,
      "note": 56,
      "start": 27.768,
      "duration": 0.0162,
      "velocity": 101,
      "chip": "ym2612"
    },
    {
      "channel": 3,
      "note": 59,
      "start": 27.7691,
      "duration": 0.0161,
      "velocity": 101,
      "chip": "ym2612"
    },
    {
      "channel": 1,
      "note": 64,
      "start": 27.7714,
      "duration": 0.0161,
      "velocity": 101,
      "chip": "ym2612"
    },
    {
      "channel": 4,
      "note": 56,
      "start": 27.7841,
      "duration": 0.0161,
      "velocity": 101,
      "chip": "ym2612"
    },
    {
      "channel": 3,
      "note": 59,
      "start": 27.7853,
      "duration": 0.0161,
      "velocity": 101,
      "chip": "ym2612"
    },
    {
      "channel": 1,
      "note": 64,
      "start": 27.7875,
      "duration": 0.0161,
      "velocity": 101,
      "chip": "ym2612"
    },
    {
      "channel": 4,
      "note": 56,
      "start": 27.8002,
      "duration": 0.0161,
      "velocity": 101,
      "chip": "ym2612"
    },
    {
      "channel": 3,
      "note": 59,
      "start": 27.8014,
      "duration": 0.0161,
      "velocity": 101,
      "chip": "ym2612"
    },
    {
      "channel": 1,
      "note": 64,
      "start": 27.8036,
      "duration": 0.0162,
      "velocity": 101,
      "chip": "ym2612"
    },
    {
      "channel": 4,
      "note": 56,
      "start": 27.8163,
      "duration": 0.0161,
      "velocity": 101,
      "chip": "ym2612"
    },
    {
      "channel": 3,
      "note": 59,
      "start": 27.8175,
      "duration": 0.0161,
      "velocity": 101,
      "chip": "ym2612"
    },
    {
      "channel": 1,
      "note": 64,
      "start": 27.8198,
      "duration": 0.0161,
      "velocity": 101,
      "chip": "ym2612"
    },
    {
      "channel": 4,
      "note": 56,
      "start": 27.8324,
      "duration": 0.0161,
      "velocity": 101,
      "chip": "ym2612"
    },
    {
      "channel": 3,
      "note": 59,
      "start": 27.8335,
      "duration": 0.0161,
      "velocity": 101,
      "chip": "ym2612"
    },
    {
      "channel": 1,
      "note": 64,
      "start": 27.8358,
      "duration": 0.0161,
      "velocity": 101,
      "chip": "ym2612"
    },
    {
      "channel": 4,
      "note": 56,
      "start": 27.8485,
      "duration": 0.0161,
      "velocity": 101,
      "chip": "ym2612"
    },
    {
      "channel": 3,
      "note": 59,
      "start": 27.8496,
      "duration": 0.0161,
      "velocity": 101,
      "chip": "ym2612"
    },
    {
      "channel": 1,
      "note": 64,
      "start": 27.8519,
      "duration": 0.0161,
      "velocity": 101,
      "chip": "ym2612"
    },
    {
      "channel": 4,
      "note": 56,
      "start": 27.8646,
      "duration": 0.0161,
      "velocity": 101,
      "chip": "ym2612"
    },
    {
      "channel": 3,
      "note": 59,
      "start": 27.8657,
      "duration": 0.0161,
      "velocity": 101,
      "chip": "ym2612"
    },
    {
      "channel": 1,
      "note": 64,
      "start": 27.868,
      "duration": 0.0161,
      "velocity": 101,
      "chip": "ym2612"
    },
    {
      "channel": 4,
      "note": 56,
      "start": 27.8807,
      "duration": 0.0161,
      "velocity": 101,
      "chip": "ym2612"
    },
    {
      "channel": 3,
      "note": 59,
      "start": 27.8818,
      "duration": 0.0161,
      "velocity": 101,
      "chip": "ym2612"
    },
    {
      "channel": 1,
      "note": 64,
      "start": 27.8841,
      "duration": 0.0161,
      "velocity": 101,
      "chip": "ym2612"
    },
    {
      "channel": 4,
      "note": 56,
      "start": 27.8968,
      "duration": 0.0161,
      "velocity": 101,
      "chip": "ym2612"
    },
    {
      "channel": 3,
      "note": 59,
      "start": 27.8979,
      "duration": 0.0161,
      "velocity": 101,
      "chip": "ym2612"
    },
    {
      "channel": 1,
      "note": 64,
      "start": 27.9002,
      "duration": 0.0161,
      "velocity": 101,
      "chip": "ym2612"
    },
    {
      "channel": 4,
      "note": 56,
      "start": 27.9129,
      "duration": 0.0161,
      "velocity": 101,
      "chip": "ym2612"
    },
    {
      "channel": 3,
      "note": 59,
      "start": 27.914,
      "duration": 0.0161,
      "velocity": 101,
      "chip": "ym2612"
    },
    {
      "channel": 1,
      "note": 64,
      "start": 27.9163,
      "duration": 0.0161,
      "velocity": 101,
      "chip": "ym2612"
    },
    {
      "channel": 4,
      "note": 56,
      "start": 27.929,
      "duration": 0.0162,
      "velocity": 101,
      "chip": "ym2612"
    },
    {
      "channel": 3,
      "note": 59,
      "start": 27.9301,
      "duration": 0.0161,
      "velocity": 101,
      "chip": "ym2612"
    },
    {
      "channel": 1,
      "note": 64,
      "start": 27.9324,
      "duration": 0.0161,
      "velocity": 101,
      "chip": "ym2612"
    },
    {
      "channel": 4,
      "note": 56,
      "start": 27.9451,
      "duration": 0.0168,
      "velocity": 101,
      "chip": "ym2612"
    },
    {
      "channel": 3,
      "note": 59,
      "start": 27.9463,
      "duration": 0.0169,
      "velocity": 101,
      "chip": "ym2612"
    },
    {
      "channel": 1,
      "note": 64,
      "start": 27.9485,
      "duration": 0.0169,
      "velocity": 101,
      "chip": "ym2612"
    },
    {
      "channel": 4,
      "note": 56,
      "start": 27.962,
      "duration": 0.0167,
      "velocity": 101,
      "chip": "ym2612"
    },
    {
      "channel": 3,
      "note": 59,
      "start": 27.9631,
      "duration": 0.0167,
      "velocity": 101,
      "chip": "ym2612"
    },
    {
      "channel": 1,
      "note": 64,
      "start": 27.9654,
      "duration": 0.0167,
      "velocity": 101,
      "chip": "ym2612"
    },
    {
      "channel": 4,
      "note": 56,
      "start": 27.9786,
      "duration": 0.0166,
      "velocity": 101,
      "chip": "ym2612"
    },
    {
      "channel": 3,
      "note": 59,
      "start": 27.9798,
      "duration": 0.0168,
      "velocity": 101,
      "chip": "ym2612"
    },
    {
      "channel": 1,
      "note": 64,
      "start": 27.9821,
      "duration": 0.0171,
      "velocity": 101,
      "chip": "ym2612"
    },
    {
      "channel": 4,
      "note": 58,
      "start": 27.9952,
      "duration": 0.0145,
      "velocity": 101,
      "chip": "ym2612"
    },
    {
      "channel": 3,
      "note": 61,
      "start": 27.9966,
      "duration": 0.0143,
      "velocity": 101,
      "chip": "ym2612"
    },
    {
      "channel": 1,
      "note": 66,
      "start": 27.9991,
      "duration": 0.0141,
      "velocity": 101,
      "chip": "ym2612"
    },
    {
      "channel": 4,
      "note": 58,
      "start": 28.0097,
      "duration": 0.0186,
      "velocity": 101,
      "chip": "ym2612"
    },
    {
      "channel": 3,
      "note": 61,
      "start": 28.0109,
      "duration": 0.0186,
      "velocity": 101,
      "chip": "ym2612"
    },
    {
      "channel": 1,
      "note": 66,
      "start": 28.0132,
      "duration": 0.0185,
      "velocity": 101,
      "chip": "ym2612"
    },
    {
      "channel": 4,
      "note": 58,
      "start": 28.0283,
      "duration": 0.0161,
      "velocity": 101,
      "chip": "ym2612"
    },
    {
      "channel": 3,
      "note": 61,
      "start": 28.0295,
      "duration": 0.0161,
      "velocity": 101,
      "chip": "ym2612"
    },
    {
      "channel": 1,
      "note": 66,
      "start": 28.0318,
      "duration": 0.0161,
      "velocity": 101,
      "chip": "ym2612"
    },
    {
      "channel": 4,
      "note": 58,
      "start": 28.0444,
      "duration": 0.0157,
      "velocity": 101,
      "chip": "ym2612"
    },
    {
      "channel": 3,
      "note": 61,
      "start": 28.0456,
      "duration": 0.0158,
      "velocity": 101,
      "chip": "ym2612"
    },
    {
      "channel": 1,
      "note": 66,
      "start": 28.0479,
      "duration": 0.0157,
      "velocity": 101,
      "chip": "ym2612"
    },
    {
      "channel": 4,
      "note": 58,
      "start": 28.0601,
      "duration": 0.0137,
      "velocity": 101,
      "chip": "ym2612"
    },
    {
      "channel": 3,
      "note": 61,
      "start": 28.0613,
      "duration": 0.014,
      "velocity": 101,
      "chip": "ym2612"
    },
    {
      "channel": 1,
      "note": 66,
      "start": 28.0636,
      "duration": 0.014,
      "velocity": 101,
      "chip": "ym2612"
    },
    {
      "channel": 4,
      "note": 58,
      "start": 28.0739,
      "duration": 0.0161,
      "velocity": 101,
      "chip": "ym2612"
    },
    {
      "channel": 3,
      "note": 61,
      "start": 28.0754,
      "duration": 0.0186,
      "velocity": 101,
      "chip": "ym2612"
    },
    {
      "channel": 1,
      "note": 66,
      "start": 28.0776,
      "duration": 0.0185,
      "velocity": 101,
      "chip": "ym2612"
    },
    {
      "channel": 4,
      "note": 58,
      "start": 28.09,
      "duration": 0.0161,
      "velocity": 101,
      "chip": "ym2612"
    },
    {
      "channel": 3,
      "note": 61,
      "start": 28.0939,
      "duration": 0.0134,
      "velocity": 101,
      "chip": "ym2612"
    },
    {
      "channel": 1,
      "note": 66,
      "start": 28.0961,
      "duration": 0.0161,
      "velocity": 101,
      "chip": "ym2612"
    },
    {
      "channel": 4,
      "note": 58,
      "start": 28.1061,
      "duration": 0.0161,
      "velocity": 101,
      "chip": "ym2612"
    },
    {
      "channel": 3,
      "note": 61,
      "start": 28.1073,
      "duration": 0.0161,
      "velocity": 101,
      "chip": "ym2612"
    },
    {
      "channel": 1,
      "note": 66,
      "start": 28.1123,
      "duration": 0.0157,
      "velocity": 101,
      "chip": "ym2612"
    },
    {
      "channel": 4,
      "note": 58,
      "start": 28.1222,
      "duration": 0.0161,
      "velocity": 101,
      "chip": "ym2612"
    },
    {
      "channel": 3,
      "note": 61,
      "start": 28.1234,
      "duration": 0.0161,
      "velocity": 101,
      "chip": "ym2612"
    },
    {
      "channel": 1,
      "note": 66,
      "start": 28.128,
      "duration": 0.0141,
      "velocity": 101,
      "chip": "ym2612"
    },
    {
      "channel": 4,
      "note": 58,
      "start": 28.1383,
      "duration": 0.0161,
      "velocity": 101,
      "chip": "ym2612"
    },
    {
      "channel": 3,
      "note": 61,
      "start": 28.1395,
      "duration": 0.0161,
      "velocity": 101,
      "chip": "ym2612"
    },
    {
      "channel": 1,
      "note": 66,
      "start": 28.1421,
      "duration": 0.0185,
      "velocity": 101,
      "chip": "ym2612"
    },
    {
      "channel": 4,
      "note": 58,
      "start": 28.1544,
      "duration": 0.0161,
      "velocity": 101,
      "chip": "ym2612"
    },
    {
      "channel": 3,
      "note": 61,
      "start": 28.1556,
      "duration": 0.0161,
      "velocity": 101,
      "chip": "ym2612"
    },
    {
      "channel": 1,
      "note": 66,
      "start": 28.1606,
      "duration": 0.0134,
      "velocity": 101,
      "chip": "ym2612"
    },
    {
      "channel": 4,
      "note": 58,
      "start": 28.1705,
      "duration": 0.0161,
      "velocity": 101,
      "chip": "ym2612"
    },
    {
      "channel": 3,
      "note": 61,
      "start": 28.1717,
      "duration": 0.0161,
      "velocity": 101,
      "chip": "ym2612"
    },
    {
      "channel": 1,
      "note": 66,
      "start": 28.1739,
      "duration": 0.0161,
      "velocity": 101,
      "chip": "ym2612"
    },
    {
      "channel": 4,
      "note": 58,
      "start": 28.1866,
      "duration": 0.0161,
      "velocity": 101,
      "chip": "ym2612"
    },
    {
      "channel": 3,
      "note": 61,
      "start": 28.1878,
      "duration": 0.0161,
      "velocity": 101,
      "chip": "ym2612"
    },
    {
      "channel": 1,
      "note": 66,
      "start": 28.19,
      "duration": 0.0161,
      "velocity": 101,
      "chip": "ym2612"
    },
    {
      "channel": 4,
      "note": 58,
      "start": 28.2027,
      "duration": 0.0196,
      "velocity": 101,
      "chip": "ym2612"
    },
    {
      "channel": 3,
      "note": 61,
      "start": 28.2038,
      "duration": 0.0196,
      "velocity": 101,
      "chip": "ym2612"
    },
    {
      "channel": 1,
      "note": 66,
      "start": 28.2061,
      "duration": 0.0223,
      "velocity": 101,
      "chip": "ym2612"
    },
    {
      "channel": 0,
      "note": 36,
      "start": 28.2211,
      "duration": 0.0144,
      "velocity": 115,
      "chip": "ym2612"
    },
    {
      "channel": 4,
      "note": 58,
      "start": 28.2223,
      "duration": 0.0143,
      "velocity": 101,
      "chip": "ym2612"
    },
    {
      "channel": 3,
      "note": 61,
      "start": 28.2234,
      "duration": 0.0143,
      "velocity": 101,
      "chip": "ym2612"
    },
    {
      "channel": 1,
      "note": 66,
      "start": 28.2284,
      "duration": 0.0117,
      "velocity": 101,
      "chip": "ym2612"
    },
    {
      "channel": 0,
      "note": 36,
      "start": 28.2355,
      "duration": 0.016,
      "velocity": 115,
      "chip": "ym2612"
    },
    {
      "channel": 4,
      "note": 58,
      "start": 28.2366,
      "duration": 0.016,
      "velocity": 101,
      "chip": "ym2612"
    },
    {
      "channel": 3,
      "note": 61,
      "start": 28.2378,
      "duration": 0.016,
      "velocity": 101,
      "chip": "ym2612"
    },
    {
      "channel": 1,
      "note": 66,
      "start": 28.24,
      "duration": 0.016,
      "velocity": 101,
      "chip": "ym2612"
    },
    {
      "channel": 0,
      "note": 37,
      "start": 28.2515,
      "duration": 0.0161,
      "velocity": 115,
      "chip": "ym2612"
    },
    {
      "channel": 4,
      "note": 58,
      "start": 28.2526,
      "duration": 0.0162,
      "velocity": 101,
      "chip": "ym2612"
    },
    {
      "channel": 3,
      "note": 61,
      "start": 28.2538,
      "duration": 0.0162,
      "velocity": 101,
      "chip": "ym2612"
    },
    {
      "channel": 1,
      "note": 66,
      "start": 28.2561,
      "duration": 0.0161,
      "velocity": 101,
      "chip": "ym2612"
    },
    {
      "channel": 0,
      "note": 37,
      "start": 28.2676,
      "duration": 0.0161,
      "velocity": 115,
      "chip": "ym2612"
    },
    {
      "channel": 4,
      "note": 58,
      "start": 28.2688,
      "duration": 0.0161,
      "velocity": 101,
      "chip": "ym2612"
    },
    {
      "channel": 3,
      "note": 61,
      "start": 28.2699,
      "duration": 0.0161,
      "velocity": 101,
      "chip": "ym2612"
    },
    {
      "channel": 1,
      "note": 66,
      "start": 28.2722,
      "duration": 0.0161,
      "velocity": 101,
      "chip": "ym2612"
    },
    {
      "channel": 0,
      "note": 38,
      "start": 28.2837,
      "duration": 0.0162,
      "velocity": 115,
      "chip": "ym2612"
    },
    {
      "channel": 4,
      "note": 58,
      "start": 28.2849,
      "duration": 0.0161,
      "velocity": 101,
      "chip": "ym2612"
    },
    {
      "channel": 3,
      "note": 61,
      "start": 28.286,
      "duration": 0.0161,
      "velocity": 101,
      "chip": "ym2612"
    },
    {
      "channel": 1,
      "note": 66,
      "start": 28.2883,
      "duration": 0.0162,
      "velocity": 101,
      "chip": "ym2612"
    },
    {
      "channel": 0,
      "note": 38,
      "start": 28.2998,
      "duration": 0.0161,
      "velocity": 115,
      "chip": "ym2612"
    },
    {
      "channel": 4,
      "note": 58,
      "start": 28.301,
      "duration": 0.0161,
      "velocity": 101,
      "chip": "ym2612"
    },
    {
      "channel": 3,
      "note": 61,
      "start": 28.3021,
      "duration": 0.0161,
      "velocity": 101,
      "chip": "ym2612"
    },
    {
      "channel": 1,
      "note": 66,
      "start": 28.3044,
      "duration": 0.0161,
      "velocity": 101,
      "chip": "ym2612"
    },
    {
      "channel": 0,
      "note": 39,
      "start": 28.3159,
      "duration": 0.0161,
      "velocity": 115,
      "chip": "ym2612"
    },
    {
      "channel": 4,
      "note": 58,
      "start": 28.3171,
      "duration": 0.0161,
      "velocity": 101,
      "chip": "ym2612"
    },
    {
      "channel": 3,
      "note": 61,
      "start": 28.3182,
      "duration": 0.0161,
      "velocity": 101,
      "chip": "ym2612"
    },
    {
      "channel": 1,
      "note": 66,
      "start": 28.3205,
      "duration": 0.0161,
      "velocity": 101,
      "chip": "ym2612"
    },
    {
      "channel": 0,
      "note": 39,
      "start": 28.332,
      "duration": 0.0161,
      "velocity": 115,
      "chip": "ym2612"
    },
    {
      "channel": 4,
      "note": 58,
      "start": 28.3332,
      "duration": 0.0161,
      "velocity": 101,
      "chip": "ym2612"
    },
    {
      "channel": 3,
      "note": 61,
      "start": 28.3343,
      "duration": 0.0161,
      "velocity": 101,
      "chip": "ym2612"
    },
    {
      "channel": 1,
      "note": 66,
      "start": 28.3366,
      "duration": 0.0161,
      "velocity": 101,
      "chip": "ym2612"
    },
    {
      "channel": 0,
      "note": 40,
      "start": 28.3481,
      "duration": 0.0161,
      "velocity": 115,
      "chip": "ym2612"
    },
    {
      "channel": 4,
      "note": 58,
      "start": 28.3493,
      "duration": 0.0161,
      "velocity": 101,
      "chip": "ym2612"
    },
    {
      "channel": 3,
      "note": 61,
      "start": 28.3504,
      "duration": 0.0161,
      "velocity": 101,
      "chip": "ym2612"
    },
    {
      "channel": 1,
      "note": 66,
      "start": 28.3527,
      "duration": 0.0161,
      "velocity": 101,
      "chip": "ym2612"
    },
    {
      "channel": 0,
      "note": 40,
      "start": 28.3642,
      "duration": 0.0161,
      "velocity": 115,
      "chip": "ym2612"
    },
    {
      "channel": 4,
      "note": 58,
      "start": 28.3654,
      "duration": 0.0161,
      "velocity": 101,
      "chip": "ym2612"
    },
    {
      "channel": 3,
      "note": 61,
      "start": 28.3665,
      "duration": 0.0161,
      "velocity": 101,
      "chip": "ym2612"
    },
    {
      "channel": 1,
      "note": 66,
      "start": 28.3688,
      "duration": 0.0161,
      "velocity": 101,
      "chip": "ym2612"
    },
    {
      "channel": 0,
      "note": 40,
      "start": 28.3803,
      "duration": 0.0161,
      "velocity": 115,
      "chip": "ym2612"
    },
    {
      "channel": 4,
      "note": 58,
      "start": 28.3815,
      "duration": 0.0161,
      "velocity": 101,
      "chip": "ym2612"
    },
    {
      "channel": 3,
      "note": 61,
      "start": 28.3826,
      "duration": 0.0161,
      "velocity": 101,
      "chip": "ym2612"
    },
    {
      "channel": 1,
      "note": 66,
      "start": 28.3849,
      "duration": 0.0161,
      "velocity": 101,
      "chip": "ym2612"
    },
    {
      "channel": 0,
      "note": 41,
      "start": 28.3964,
      "duration": 0.0161,
      "velocity": 115,
      "chip": "ym2612"
    },
    {
      "channel": 4,
      "note": 58,
      "start": 28.3976,
      "duration": 0.0161,
      "velocity": 101,
      "chip": "ym2612"
    },
    {
      "channel": 3,
      "note": 61,
      "start": 28.3987,
      "duration": 0.0161,
      "velocity": 101,
      "chip": "ym2612"
    },
    {
      "channel": 1,
      "note": 66,
      "start": 28.401,
      "duration": 0.0161,
      "velocity": 101,
      "chip": "ym2612"
    },
    {
      "channel": 0,
      "note": 41,
      "start": 28.4125,
      "duration": 0.0167,
      "velocity": 115,
      "chip": "ym2612"
    },
    {
      "channel": 4,
      "note": 58,
      "start": 28.4136,
      "duration": 0.0167,
      "velocity": 101,
      "chip": "ym2612"
    },
    {
      "channel": 3,
      "note": 61,
      "start": 28.4148,
      "duration": 0.0167,
      "velocity": 101,
      "chip": "ym2612"
    },
    {
      "channel": 1,
      "note": 66,
      "start": 28.4171,
      "duration": 0.0167,
      "velocity": 101,
      "chip": "ym2612"
    },
    {
      "channel": 0,
      "note": 42,
      "start": 28.4292,
      "duration": 0.0184,
      "velocity": 124,
      "chip": "ym2612"
    },
    {
      "channel": 4,
      "note": 58,
      "start": 28.4303,
      "duration": 0.0185,
      "velocity": 101,
      "chip": "ym2612"
    },
    {
      "channel": 3,
      "note": 61,
      "start": 28.4315,
      "duration": 0.0184,
      "velocity": 101,
      "chip": "ym2612"
    },
    {
      "channel": 1,
      "note": 66,
      "start": 28.4337,
      "duration": 0.0184,
      "velocity": 101,
      "chip": "ym2612"
    },
    {
      "channel": 0,
      "note": 84,
      "start": 28.4476,
      "duration": 0.0146,
      "velocity": 124,
      "chip": "ym2612"
    },
    {
      "channel": 4,
      "note": 58,
      "start": 28.4488,
      "duration": 0.0146,
      "velocity": 101,
      "chip": "ym2612"
    },
    {
      "channel": 3,
      "note": 61,
      "start": 28.4499,
      "duration": 0.0146,
      "velocity": 101,
      "chip": "ym2612"
    },
    {
      "channel": 1,
      "note": 66,
      "start": 28.4522,
      "duration": 0.0146,
      "velocity": 101,
      "chip": "ym2612"
    },
    {
      "channel": 0,
      "note": 82,
      "start": 28.4622,
      "duration": 0.0148,
      "velocity": 124,
      "chip": "ym2612"
    },
    {
      "channel": 4,
      "note": 58,
      "start": 28.4633,
      "duration": 0.0148,
      "velocity": 101,
      "chip": "ym2612"
    },
    {
      "channel": 3,
      "note": 61,
      "start": 28.4645,
      "duration": 0.0148,
      "velocity": 101,
      "chip": "ym2612"
    },
    {
      "channel": 1,
      "note": 66,
      "start": 28.4668,
      "duration": 0.0148,
      "velocity": 101,
      "chip": "ym2612"
    },
    {
      "channel": 0,
      "note": 80,
      "start": 28.4769,
      "duration": 0.0188,
      "velocity": 124,
      "chip": "ym2612"
    },
    {
      "channel": 4,
      "note": 58,
      "start": 28.4781,
      "duration": 0.0188,
      "velocity": 101,
      "chip": "ym2612"
    },
    {
      "channel": 3,
      "note": 61,
      "start": 28.4792,
      "duration": 0.0188,
      "velocity": 101,
      "chip": "ym2612"
    },
    {
      "channel": 1,
      "note": 66,
      "start": 28.4815,
      "duration": 0.0188,
      "velocity": 101,
      "chip": "ym2612"
    },
    {
      "channel": 0,
      "note": 77,
      "start": 28.4958,
      "duration": 0.0161,
      "velocity": 124,
      "chip": "ym2612"
    },
    {
      "channel": 4,
      "note": 58,
      "start": 28.4969,
      "duration": 0.0161,
      "velocity": 101,
      "chip": "ym2612"
    },
    {
      "channel": 3,
      "note": 61,
      "start": 28.498,
      "duration": 0.0161,
      "velocity": 101,
      "chip": "ym2612"
    },
    {
      "channel": 1,
      "note": 66,
      "start": 28.5003,
      "duration": 0.0161,
      "velocity": 101,
      "chip": "ym2612"
    },
    {
      "channel": 0,
      "note": 75,
      "start": 28.5119,
      "duration": 0.0158,
      "velocity": 124,
      "chip": "ym2612"
    },
    {
      "channel": 4,
      "note": 58,
      "start": 28.513,
      "duration": 0.0158,
      "velocity": 101,
      "chip": "ym2612"
    },
    {
      "channel": 3,
      "note": 61,
      "start": 28.5141,
      "duration": 0.0158,
      "velocity": 101,
      "chip": "ym2612"
    },
    {
      "channel": 1,
      "note": 66,
      "start": 28.5164,
      "duration": 0.0158,
      "velocity": 101,
      "chip": "ym2612"
    },
    {
      "channel": 0,
      "note": 72,
      "start": 28.5276,
      "duration": 0.014,
      "velocity": 124,
      "chip": "ym2612"
    },
    {
      "channel": 4,
      "note": 58,
      "start": 28.5288,
      "duration": 0.0141,
      "velocity": 101,
      "chip": "ym2612"
    },
    {
      "channel": 3,
      "note": 61,
      "start": 28.5299,
      "duration": 0.0141,
      "velocity": 101,
      "chip": "ym2612"
    },
    {
      "channel": 1,
      "note": 66,
      "start": 28.5322,
      "duration": 0.014,
      "velocity": 101,
      "chip": "ym2612"
    },
    {
      "channel": 0,
      "note": 70,
      "start": 28.5416,
      "duration": 0.0158,
      "velocity": 124,
      "chip": "ym2612"
    },
    {
      "channel": 4,
      "note": 58,
      "start": 28.5428,
      "duration": 0.0185,
      "velocity": 101,
      "chip": "ym2612"
    },
    {
      "channel": 3,
      "note": 61,
      "start": 28.544,
      "duration": 0.0185,
      "velocity": 101,
      "chip": "ym2612"
    },
    {
      "channel": 1,
      "note": 66,
      "start": 28.5462,
      "duration": 0.0186,
      "velocity": 101,
      "chip": "ym2612"
    },
    {
      "channel": 0,
      "note": 68,
      "start": 28.5574,
      "duration": 0.0161,
      "velocity": 124,
      "chip": "ym2612"
    },
    {
      "channel": 4,
      "note": 58,
      "start": 28.5613,
      "duration": 0.0161,
      "velocity": 101,
      "chip": "ym2612"
    },
    {
      "channel": 3,
      "note": 61,
      "start": 28.5625,
      "duration": 0.0161,
      "velocity": 101,
      "chip": "ym2612"
    },
    {
      "channel": 1,
      "note": 66,
      "start": 28.5648,
      "duration": 0.0161,
      "velocity": 101,
      "chip": "ym2612"
    },
    {
      "channel": 0,
      "note": 65,
      "start": 28.5735,
      "duration": 0.0162,
      "velocity": 124,
      "chip": "ym2612"
    },
    {
      "channel": 4,
      "note": 58,
      "start": 28.5774,
      "duration": 0.0134,
      "velocity": 101,
      "chip": "ym2612"
    },
    {
      "channel": 3,
      "note": 61,
      "start": 28.5786,
      "duration": 0.0158,
      "velocity": 101,
      "chip": "ym2612"
    },
    {
      "channel": 1,
      "note": 66,
      "start": 28.5809,
      "duration": 0.0157,
      "velocity": 101,
      "chip": "ym2612"
    },
    {
      "channel": 0,
      "note": 63,
      "start": 28.5897,
      "duration": 0.0153,
      "velocity": 1,
      "chip": "ym2612"
    },
    {
      "channel": 4,
      "note": 58,
      "start": 28.5908,
      "duration": 0.0153,
      "velocity": 101,
      "chip": "ym2612"
    },
    {
      "channel": 3,
      "note": 61,
      "start": 28.5944,
      "duration": 0.0129,
      "velocity": 101,
      "chip": "ym2612"
    },
    {
      "channel": 1,
      "note": 66,
      "start": 28.5966,
      "duration": 0.0132,
      "velocity": 101,
      "chip": "ym2612"
    },
    {
      "channel": 4,
      "note": 58,
      "start": 28.6061,
      "duration": 0.0153,
      "velocity": 101,
      "chip": "ym2612"
    },
    {
      "channel": 3,
      "note": 61,
      "start": 28.6072,
      "duration": 0.0153,
      "velocity": 101,
      "chip": "ym2612"
    },
    {
      "channel": 1,
      "note": 66,
      "start": 28.6098,
      "duration": 0.0177,
      "velocity": 101,
      "chip": "ym2612"
    },
    {
      "channel": 4,
      "note": 58,
      "start": 28.6213,
      "duration": 0.0161,
      "velocity": 101,
      "chip": "ym2612"
    },
    {
      "channel": 3,
      "note": 61,
      "start": 28.6225,
      "duration": 0.0161,
      "velocity": 101,
      "chip": "ym2612"
    },
    {
      "channel": 1,
      "note": 66,
      "start": 28.6275,
      "duration": 0.0134,
      "velocity": 101,
      "chip": "ym2612"
    },
    {
      "channel": 4,
      "note": 58,
      "start": 28.6374,
      "duration": 0.0161,
      "velocity": 101,
      "chip": "ym2612"
    },
    {
      "channel": 3,
      "note": 61,
      "start": 28.6386,
      "duration": 0.0161,
      "velocity": 101,
      "chip": "ym2612"
    },
    {
      "channel": 1,
      "note": 66,
      "start": 28.6409,
      "duration": 0.0161,
      "velocity": 101,
      "chip": "ym2612"
    },
    {
      "channel": 4,
      "note": 58,
      "start": 28.6535,
      "duration": 0.0196,
      "velocity": 101,
      "chip": "ym2612"
    },
    {
      "channel": 3,
      "note": 61,
      "start": 28.6547,
      "duration": 0.0196,
      "velocity": 101,
      "chip": "ym2612"
    },
    {
      "channel": 1,
      "note": 66,
      "start": 28.657,
      "duration": 0.0199,
      "velocity": 101,
      "chip": "ym2612"
    },
    {
      "channel": 0,
      "note": 84,
      "start": 28.6719,
      "duration": 0.0144,
      "velocity": 124,
      "chip": "ym2612"
    },
    {
      "channel": 4,
      "note": 58,
      "start": 28.6731,
      "duration": 0.0143,
      "velocity": 101,
      "chip": "ym2612"
    },
    {
      "channel": 3,
      "note": 61,
      "start": 28.6743,
      "duration": 0.0143,
      "velocity": 101,
      "chip": "ym2612"
    },
    {
      "channel": 1,
      "note": 66,
      "start": 28.6769,
      "duration": 0.014,
      "velocity": 101,
      "chip": "ym2612"
    },
    {
      "channel": 0,
      "note": 82,
      "start": 28.6863,
      "duration": 0.016,
      "velocity": 124,
      "chip": "ym2612"
    },
    {
      "channel": 4,
      "note": 58,
      "start": 28.6874,
      "duration": 0.0161,
      "velocity": 101,
      "chip": "ym2612"
    },
    {
      "channel": 3,
      "note": 61,
      "start": 28.6886,
      "duration": 0.0161,
      "velocity": 101,
      "chip": "ym2612"
    },
    {
      "channel": 1,
      "note": 66,
      "start": 28.6909,
      "duration": 0.016,
      "velocity": 101,
      "chip": "ym2612"
    },
    {
      "channel": 0,
      "note": 80,
      "start": 28.7023,
      "duration": 0.0161,
      "velocity": 124,
      "chip": "ym2612"
    },
    {
      "channel": 4,
      "note": 58,
      "start": 28.7035,
      "duration": 0.0161,
      "velocity": 101,
      "chip": "ym2612"
    },
    {
      "channel": 3,
      "note": 61,
      "start": 28.7047,
      "duration": 0.0161,
      "velocity": 101,
      "chip": "ym2612"
    },
    {
      "channel": 1,
      "note": 66,
      "start": 28.7069,
      "duration": 0.0161,
      "velocity": 101,
      "chip": "ym2612"
    },
    {
      "channel": 0,
      "note": 77,
      "start": 28.7184,
      "duration": 0.0161,
      "velocity": 124,
      "chip": "ym2612"
    },
    {
      "channel": 4,
      "note": 58,
      "start": 28.7196,
      "duration": 0.0161,
      "velocity": 101,
      "chip": "ym2612"
    },
    {
      "channel": 3,
      "note": 61,
      "start": 28.7208,
      "duration": 0.0161,
      "velocity": 101,
      "chip": "ym2612"
    },
    {
      "channel": 1,
      "note": 66,
      "start": 28.723,
      "duration": 0.0161,
      "velocity": 101,
      "chip": "ym2612"
    },
    {
      "channel": 0,
      "note": 75,
      "start": 28.7345,
      "duration": 0.0162,
      "velocity": 124,
      "chip": "ym2612"
    },
    {
      "channel": 4,
      "note": 58,
      "start": 28.7357,
      "duration": 0.0161,
      "velocity": 101,
      "chip": "ym2612"
    },
    {
      "channel": 3,
      "note": 61,
      "start": 28.7368,
      "duration": 0.0161,
      "velocity": 101,
      "chip": "ym2612"
    },
    {
      "channel": 1,
      "note": 66,
      "start": 28.7391,
      "duration": 0.0162,
      "velocity": 101,
      "chip": "ym2612"
    },
    {
      "channel": 0,
      "note": 72,
      "start": 28.7507,
      "duration": 0.0161,
      "velocity": 124,
      "chip": "ym2612"
    },
    {
      "channel": 4,
      "note": 58,
      "start": 28.7518,
      "duration": 0.0161,
      "velocity": 101,
      "chip": "ym2612"
    },
    {
      "channel": 3,
      "note": 61,
      "start": 28.7529,
      "duration": 0.0161,
      "velocity": 101,
      "chip": "ym2612"
    },
    {
      "channel": 1,
      "note": 66,
      "start": 28.7552,
      "duration": 0.0161,
      "velocity": 101,
      "chip": "ym2612"
    },
    {
      "channel": 0,
      "note": 70,
      "start": 28.7668,
      "duration": 0.0161,
      "velocity": 124,
      "chip": "ym2612"
    },
    {
      "channel": 4,
      "note": 58,
      "start": 28.7679,
      "duration": 0.0161,
      "velocity": 101,
      "chip": "ym2612"
    },
    {
      "channel": 3,
      "note": 61,
      "start": 28.769,
      "duration": 0.0161,
      "velocity": 101,
      "chip": "ym2612"
    },
    {
      "channel": 1,
      "note": 66,
      "start": 28.7713,
      "duration": 0.0161,
      "velocity": 101,
      "chip": "ym2612"
    },
    {
      "channel": 0,
      "note": 68,
      "start": 28.7829,
      "duration": 0.0161,
      "velocity": 124,
      "chip": "ym2612"
    },
    {
      "channel": 4,
      "note": 58,
      "start": 28.784,
      "duration": 0.0161,
      "velocity": 101,
      "chip": "ym2612"
    },
    {
      "channel": 3,
      "note": 61,
      "start": 28.7851,
      "duration": 0.0161,
      "velocity": 101,
      "chip": "ym2612"
    },
    {
      "channel": 1,
      "note": 66,
      "start": 28.7874,
      "duration": 0.0161,
      "velocity": 101,
      "chip": "ym2612"
    },
    {
      "channel": 0,
      "note": 65,
      "start": 28.7989,
      "duration": 0.0161,
      "velocity": 124,
      "chip": "ym2612"
    },
    {
      "channel": 4,
      "note": 58,
      "start": 28.8001,
      "duration": 0.0161,
      "velocity": 101,
      "chip": "ym2612"
    },
    {
      "channel": 3,
      "note": 61,
      "start": 28.8012,
      "duration": 0.0161,
      "velocity": 101,
      "chip": "ym2612"
    },
    {
      "channel": 1,
      "note": 66,
      "start": 28.8035,
      "duration": 0.0161,
      "velocity": 101,
      "chip": "ym2612"
    },
    {
      "channel": 0,
      "note": 63,
      "start": 28.815,
      "duration": 0.0153,
      "velocity": 1,
      "chip": "ym2612"
    },
    {
      "channel": 4,
      "note": 58,
      "start": 28.8162,
      "duration": 0.0153,
      "velocity": 101,
      "chip": "ym2612"
    },
    {
      "channel": 3,
      "note": 61,
      "start": 28.8173,
      "duration": 0.0153,
      "velocity": 101,
      "chip": "ym2612"
    },
    {
      "channel": 1,
      "note": 66,
      "start": 28.8196,
      "duration": 0.0153,
      "velocity": 101,
      "chip": "ym2612"
    },
    {
      "channel": 4,
      "note": 58,
      "start": 28.8315,
      "duration": 0.0153,
      "velocity": 101,
      "chip": "ym2612"
    },
    {
      "channel": 3,
      "note": 61,
      "start": 28.8327,
      "duration": 0.0153,
      "velocity": 101,
      "chip": "ym2612"
    },
    {
      "channel": 1,
      "note": 66,
      "start": 28.8349,
      "duration": 0.0152,
      "velocity": 101,
      "chip": "ym2612"
    },
    {
      "channel": 4,
      "note": 58,
      "start": 28.8468,
      "duration": 0.0161,
      "velocity": 101,
      "chip": "ym2612"
    },
    {
      "channel": 3,
      "note": 61,
      "start": 28.8479,
      "duration": 0.0161,
      "velocity": 101,
      "chip": "ym2612"
    },
    {
      "channel": 1,
      "note": 66,
      "start": 28.8502,
      "duration": 0.0161,
      "velocity": 101,
      "chip": "ym2612"
    },
    {
      "channel": 4,
      "note": 58,
      "start": 28.8629,
      "duration": 0.0161,
      "velocity": 101,
      "chip": "ym2612"
    },
    {
      "channel": 3,
      "note": 61,
      "start": 28.864,
      "duration": 0.0161,
      "velocity": 101,
      "chip": "ym2612"
    },
    {
      "channel": 1,
      "note": 66,
      "start": 28.8663,
      "duration": 0.0161,
      "velocity": 101,
      "chip": "ym2612"
    },
    {
      "channel": 4,
      "note": 58,
      "start": 28.879,
      "duration": 0.0201,
      "velocity": 101,
      "chip": "ym2612"
    },
    {
      "channel": 3,
      "note": 61,
      "start": 28.8801,
      "duration": 0.0205,
      "velocity": 101,
      "chip": "ym2612"
    },
    {
      "channel": 1,
      "note": 66,
      "start": 28.8824,
      "duration": 0.0213,
      "velocity": 101,
      "chip": "ym2612"
    },
    {
      "channel": 0,
      "note": 36,
      "start": 28.8976,
      "duration": 0.015,
      "velocity": 115,
      "chip": "ym2612"
    },
    {
      "channel": 4,
      "note": 63,
      "start": 28.8991,
      "duration": 0.0146,
      "velocity": 101,
      "chip": "ym2612"
    },
    {
      "channel": 3,
      "note": 66,
      "start": 28.9007,
      "duration": 0.0143,
      "velocity": 101,
      "chip": "ym2612"
    },
    {
      "channel": 2,
      "note": 54,
      "start": 28.9022,
      "duration": 0.0139,
      "velocity": 100,
      "chip": "ym2612"
    },
    {
      "channel": 1,
      "note": 71,
      "start": 28.9037,
      "duration": 0.0136,
      "velocity": 101,
      "chip": "ym2612"
    },
    {
      "channel": 0,
      "note": 36,
      "start": 28.9126,
      "duration": 0.0162,
      "velocity": 115,
      "chip": "ym2612"
    },
    {
      "channel": 4,
      "note": 63,
      "start": 28.9138,
      "duration": 0.0161,
      "velocity": 101,
      "chip": "ym2612"
    },
    {
      "channel": 3,
      "note": 66,
      "start": 28.915,
      "duration": 0.0161,
      "velocity": 101,
      "chip": "ym2612"
    },
    {
      "channel": 2,
      "note": 54,
      "start": 28.9161,
      "duration": 0.0161,
      "velocity": 100,
      "chip": "ym2612"
    },
    {
      "channel": 1,
      "note": 71,
      "start": 28.9173,
      "duration": 0.016,
      "velocity": 101,
      "chip": "ym2612"
    },
    {
      "channel": 0,
      "note": 37,
      "start": 28.9288,
      "duration": 0.0151,
      "velocity": 115,
      "chip": "ym2612"
    },
    {
      "channel": 4,
      "note": 63,
      "start": 28.9299,
      "duration": 0.0151,
      "velocity": 101,
      "chip": "ym2612"
    },
    {
      "channel": 3,
      "note": 66,
      "start": 28.9311,
      "duration": 0.0151,
      "velocity": 101,
      "chip": "ym2612"
    },
    {
      "channel": 2,
      "note": 54,
      "start": 28.9322,
      "duration": 0.0151,
      "velocity": 100,
      "chip": "ym2612"
    },
    {
      "channel": 1,
      "note": 71,
      "start": 28.9334,
      "duration": 0.0151,
      "velocity": 101,
      "chip": "ym2612"
    },
    {
      "channel": 0,
      "note": 37,
      "start": 28.9439,
      "duration": 0.0186,
      "velocity": 115,
      "chip": "ym2612"
    },
    {
      "channel": 4,
      "note": 63,
      "start": 28.945,
      "duration": 0.0186,
      "velocity": 101,
      "chip": "ym2612"
    },
    {
      "channel": 3,
      "note": 66,
      "start": 28.9461,
      "duration": 0.0186,
      "velocity": 101,
      "chip": "ym2612"
    },
    {
      "channel": 2,
      "note": 54,
      "start": 28.9473,
      "duration": 0.0186,
      "velocity": 100,
      "chip": "ym2612"
    },
    {
      "channel": 1,
      "note": 71,
      "start": 28.9484,
      "duration": 0.0186,
      "velocity": 101,
      "chip": "ym2612"
    },
    {
      "channel": 0,
      "note": 38,
      "start": 28.9625,
      "duration": 0.0163,
      "velocity": 115,
      "chip": "ym2612"
    },
    {
      "channel": 4,
      "note": 63,
      "start": 28.9636,
      "duration": 0.0163,
      "velocity": 101,
      "chip": "ym2612"
    },
    {
      "channel": 3,
      "note": 66,
      "start": 28.9648,
      "duration": 0.0163,
      "velocity": 101,
      "chip": "ym2612"
    },
    {
      "channel": 2,
      "note": 54,
      "start": 28.9659,
      "duration": 0.0163,
      "velocity": 100,
      "chip": "ym2612"
    },
    {
      "channel": 1,
      "note": 71,
      "start": 28.9671,
      "duration": 0.0163,
      "velocity": 101,
      "chip": "ym2612"
    },
    {
      "channel": 0,
      "note": 38,
      "start": 28.9788,
      "duration": 0.0158,
      "velocity": 115,
      "chip": "ym2612"
    },
    {
      "channel": 4,
      "note": 63,
      "start": 28.9799,
      "duration": 0.0158,
      "velocity": 101,
      "chip": "ym2612"
    },
    {
      "channel": 3,
      "note": 66,
      "start": 28.9811,
      "duration": 0.0158,
      "velocity": 101,
      "chip": "ym2612"
    },
    {
      "channel": 2,
      "note": 54,
      "start": 28.9822,
      "duration": 0.0158,
      "velocity": 100,
      "chip": "ym2612"
    },
    {
      "channel": 1,
      "note": 71,
      "start": 28.9834,
      "duration": 0.0158,
      "velocity": 101,
      "chip": "ym2612"
    },
    {
      "channel": 0,
      "note": 39,
      "start": 28.9946,
      "duration": 0.014,
      "velocity": 115,
      "chip": "ym2612"
    },
    {
      "channel": 4,
      "note": 63,
      "start": 28.9957,
      "duration": 0.0141,
      "velocity": 101,
      "chip": "ym2612"
    },
    {
      "channel": 3,
      "note": 66,
      "start": 28.9968,
      "duration": 0.0141,
      "velocity": 101,
      "chip": "ym2612"
    },
    {
      "channel": 2,
      "note": 54,
      "start": 28.998,
      "duration": 0.0141,
      "velocity": 100,
      "chip": "ym2612"
    },
    {
      "channel": 1,
      "note": 71,
      "start": 28.9991,
      "duration": 0.0141,
      "velocity": 101,
      "chip": "ym2612"
    },
    {
      "channel": 0,
      "note": 39,
      "start": 29.0085,
      "duration": 0.0158,
      "velocity": 115,
      "chip": "ym2612"
    },
    {
      "channel": 4,
      "note": 63,
      "start": 29.0098,
      "duration": 0.0185,
      "velocity": 101,
      "chip": "ym2612"
    },
    {
      "channel": 3,
      "note": 66,
      "start": 29.0109,
      "duration": 0.0185,
      "velocity": 101,
      "chip": "ym2612"
    },
    {
      "channel": 1,
      "note": 71,
      "start": 29.0132,
      "duration": 0.0185,
      "velocity": 101,
      "chip": "ym2612"
    },
    {
      "channel": 0,
      "note": 40,
      "start": 29.0243,
      "duration": 0.0161,
      "velocity": 115,
      "chip": "ym2612"
    },
    {
      "channel": 4,
      "note": 63,
      "start": 29.0283,
      "duration": 0.0161,
      "velocity": 101,
      "chip": "ym2612"
    },
    {
      "channel": 3,
      "note": 66,
      "start": 29.0294,
      "duration": 0.0161,
      "velocity": 101,
      "chip": "ym2612"
    },
    {
      "channel": 1,
      "note": 71,
      "start": 29.0317,
      "duration": 0.0161,
      "velocity": 101,
      "chip": "ym2612"
    },
    {
      "channel": 0,
      "note": 40,
      "start": 29.0405,
      "duration": 0.0161,
      "velocity": 115,
      "chip": "ym2612"
    },
    {
      "channel": 4,
      "note": 63,
      "start": 29.0444,
      "duration": 0.0134,
      "velocity": 101,
      "chip": "ym2612"
    },
    {
      "channel": 3,
      "note": 66,
      "start": 29.0455,
      "duration": 0.0157,
      "velocity": 101,
      "chip": "ym2612"
    },
    {
      "channel": 1,
      "note": 71,
      "start": 29.0478,
      "duration": 0.0157,
      "velocity": 101,
      "chip": "ym2612"
    },
    {
      "channel": 0,
      "note": 40,
      "start": 29.0566,
      "duration": 0.0161,
      "velocity": 115,
      "chip": "ym2612"
    },
    {
      "channel": 4,
      "note": 63,
      "start": 29.0577,
      "duration": 0.0161,
      "velocity": 101,
      "chip": "ym2612"
    },
    {
      "channel": 3,
      "note": 66,
      "start": 29.0612,
      "duration": 0.0141,
      "velocity": 101,
      "chip": "ym2612"
    },
    {
      "channel": 1,
      "note": 71,
      "start": 29.0635,
      "duration": 0.0141,
      "velocity": 101,
      "chip": "ym2612"
    },
    {
      "channel": 0,
      "note": 41,
      "start": 29.0727,
      "duration": 0.0161,
      "velocity": 115,
      "chip": "ym2612"
    },
    {
      "channel": 4,
      "note": 63,
      "start": 29.0738,
      "duration": 0.0161,
      "velocity": 101,
      "chip": "ym2612"
    },
    {
      "channel": 3,
      "note": 66,
      "start": 29.0753,
      "duration": 0.0185,
      "velocity": 101,
      "chip": "ym2612"
    },
    {
      "channel": 1,
      "note": 71,
      "start": 29.0776,
      "duration": 0.0185,
      "velocity": 101,
      "chip": "ym2612"
    },
    {
      "channel": 0,
      "note": 41,
      "start": 29.0888,
      "duration": 0.0161,
      "velocity": 115,
      "chip": "ym2612"
    },
    {
      "channel": 4,
      "note": 63,
      "start": 29.0899,
      "duration": 0.0161,
      "velocity": 101,
      "chip": "ym2612"
    },
    {
      "channel": 3,
      "note": 66,
      "start": 29.0938,
      "duration": 0.0134,
      "velocity": 101,
      "chip": "ym2612"
    },
    {
      "channel": 1,
      "note": 71,
      "start": 29.0961,
      "duration": 0.0161,
      "velocity": 101,
      "chip": "ym2612"
    },
    {
      "channel": 0,
      "note": 42,
      "start": 29.1049,
      "duration": 0.0161,
      "velocity": 115,
      "chip": "ym2612"
    },
    {
      "channel": 4,
      "note": 63,
      "start": 29.106,
      "duration": 0.0161,
      "velocity": 101,
      "chip": "ym2612"
    },
    {
      "channel": 3,
      "note": 66,
      "start": 29.1071,
      "duration": 0.0161,
      "velocity": 101,
      "chip": "ym2612"
    },
    {
      "channel": 1,
      "note": 71,
      "start": 29.1122,
      "duration": 0.016,
      "velocity": 101,
      "chip": "ym2612"
    },
    {
      "channel": 0,
      "note": 42,
      "start": 29.121,
      "duration": 0.0161,
      "velocity": 115,
      "chip": "ym2612"
    },
    {
      "channel": 4,
      "note": 63,
      "start": 29.1221,
      "duration": 0.0161,
      "velocity": 101,
      "chip": "ym2612"
    },
    {
      "channel": 3,
      "note": 66,
      "start": 29.1232,
      "duration": 0.0161,
      "velocity": 101,
      "chip": "ym2612"
    },
    {
      "channel": 2,
      "note": 54,
      "start": 29.1271,
      "duration": 0.0135,
      "velocity": 100,
      "chip": "ym2612"
    },
    {
      "channel": 1,
      "note": 71,
      "start": 29.1282,
      "duration": 0.0138,
      "velocity": 101,
      "chip": "ym2612"
    },
    {
      "channel": 0,
      "note": 43,
      "start": 29.1371,
      "duration": 0.0161,
      "velocity": 115,
      "chip": "ym2612"
    },
    {
      "channel": 4,
      "note": 63,
      "start": 29.1382,
      "duration": 0.0161,
      "velocity": 101,
      "chip": "ym2612"
    },
    {
      "channel": 3,
      "note": 66,
      "start": 29.1393,
      "duration": 0.0161,
      "velocity": 101,
      "chip": "ym2612"
    },
    {
      "channel": 2,
      "note": 54,
      "start": 29.1405,
      "duration": 0.016,
      "velocity": 100,
      "chip": "ym2612"
    },
    {
      "channel": 1,
      "note": 71,
      "start": 29.142,
      "duration": 0.0157,
      "velocity": 101,
      "chip": "ym2612"
    },
    {
      "channel": 0,
      "note": 43,
      "start": 29.1531,
      "duration": 0.0161,
      "velocity": 115,
      "chip": "ym2612"
    },
    {
      "channel": 4,
      "note": 63,
      "start": 29.1543,
      "duration": 0.0161,
      "velocity": 101,
      "chip": "ym2612"
    },
    {
      "channel": 3,
      "note": 66,
      "start": 29.1554,
      "duration": 0.0162,
      "velocity": 101,
      "chip": "ym2612"
    },
    {
      "channel": 2,
      "note": 54,
      "start": 29.1566,
      "duration": 0.0161,
      "velocity": 100,
      "chip": "ym2612"
    },
    {
      "channel": 1,
      "note": 71,
      "start": 29.1577,
      "duration": 0.0161,
      "velocity": 101,
      "chip": "ym2612"
    },
    {
      "channel": 0,
      "note": 44,
      "start": 29.1692,
      "duration": 0.0161,
      "velocity": 115,
      "chip": "ym2612"
    },
    {
      "channel": 4,
      "note": 63,
      "start": 29.1704,
      "duration": 0.0161,
      "velocity": 101,
      "chip": "ym2612"
    },
    {
      "channel": 3,
      "note": 66,
      "start": 29.1716,
      "duration": 0.0161,
      "velocity": 101,
      "chip": "ym2612"
    },
    {
      "channel": 2,
      "note": 54,
      "start": 29.1727,
      "duration": 0.0161,
      "velocity": 100,
      "chip": "ym2612"
    },
    {
      "channel": 1,
      "note": 71,
      "start": 29.1738,
      "duration": 0.0161,
      "velocity": 101,
      "chip": "ym2612"
    },
    {
      "channel": 0,
      "note": 44,
      "start": 29.1853,
      "duration": 0.0161,
      "velocity": 115,
      "chip": "ym2612"
    },
    {
      "channel": 4,
      "note": 63,
      "start": 29.1865,
      "duration": 0.0161,
      "velocity": 101,
      "chip": "ym2612"
    },
    {
      "channel": 3,
      "note": 66,
      "start": 29.1877,
      "duration": 0.0161,
      "velocity": 101,
      "chip": "ym2612"
    },
    {
      "channel": 2,
      "note": 54,
      "start": 29.1888,
      "duration": 0.0162,
      "velocity": 100,
      "chip": "ym2612"
    },
    {
      "channel": 1,
      "note": 71,
      "start": 29.1899,
      "duration": 0.0161,
      "velocity": 101,
      "chip": "ym2612"
    },
    {
      "channel": 0,
      "note": 44,
      "start": 29.2015,
      "duration": 0.0161,
      "velocity": 115,
      "chip": "ym2612"
    },
    {
      "channel": 4,
      "note": 63,
      "start": 29.2026,
      "duration": 0.0161,
      "velocity": 101,
      "chip": "ym2612"
    },
    {
      "channel": 3,
      "note": 66,
      "start": 29.2038,
      "duration": 0.0161,
      "velocity": 101,
      "chip": "ym2612"
    },
    {
      "channel": 2,
      "note": 54,
      "start": 29.2049,
      "duration": 0.0161,
      "velocity": 100,
      "chip": "ym2612"
    },
    {
      "channel": 1,
      "note": 71,
      "start": 29.2061,
      "duration": 0.0161,
      "velocity": 101,
      "chip": "ym2612"
    },
    {
      "channel": 0,
      "note": 45,
      "start": 29.2176,
      "duration": 0.0161,
      "velocity": 115,
      "chip": "ym2612"
    },
    {
      "channel": 4,
      "note": 63,
      "start": 29.2187,
      "duration": 0.0161,
      "velocity": 101,
      "chip": "ym2612"
    },
    {
      "channel": 3,
      "note": 66,
      "start": 29.2199,
      "duration": 0.0161,
      "velocity": 101,
      "chip": "ym2612"
    },
    {
      "channel": 2,
      "note": 54,
      "start": 29.221,
      "duration": 0.0161,
      "velocity": 100,
      "chip": "ym2612"
    },
    {
      "channel": 1,
      "note": 71,
      "start": 29.2222,
      "duration": 0.0161,
      "velocity": 101,
      "chip": "ym2612"
    },
    {
      "channel": 0,
      "note": 45,
      "start": 29.2337,
      "duration": 0.0161,
      "velocity": 115,
      "chip": "ym2612"
    },
    {
      "channel": 4,
      "note": 63,
      "start": 29.2348,
      "duration": 0.0161,
      "velocity": 101,
      "chip": "ym2612"
    },
    {
      "channel": 3,
      "note": 66,
      "start": 29.236,
      "duration": 0.0161,
      "velocity": 101,
      "chip": "ym2612"
    },
    {
      "channel": 1,
      "note": 71,
      "start": 29.2383,
      "duration": 0.0161,
      "velocity": 101,
      "chip": "ym2612"
    },
    {
      "channel": 0,
      "note": 46,
      "start": 29.2498,
      "duration": 0.0161,
      "velocity": 115,
      "chip": "ym2612"
    },
    {
      "channel": 4,
      "note": 63,
      "start": 29.2509,
      "duration": 0.0161,
      "velocity": 101,
      "chip": "ym2612"
    },
    {
      "channel": 3,
      "note": 66,
      "start": 29.2521,
      "duration": 0.0161,
      "velocity": 101,
      "chip": "ym2612"
    },
    {
      "channel": 1,
      "note": 71,
      "start": 29.2544,
      "duration": 0.0161,
      "velocity": 101,
      "chip": "ym2612"
    },
    {
      "channel": 0,
      "note": 46,
      "start": 29.2659,
      "duration": 0.0161,
      "velocity": 115,
      "chip": "ym2612"
    },
    {
      "channel": 4,
      "note": 63,
      "start": 29.267,
      "duration": 0.0161,
      "velocity": 101,
      "chip": "ym2612"
    },
    {
      "channel": 3,
      "note": 66,
      "start": 29.2681,
      "duration": 0.0161,
      "velocity": 101,
      "chip": "ym2612"
    },
    {
      "channel": 1,
      "note": 71,
      "start": 29.2704,
      "duration": 0.0161,
      "velocity": 101,
      "chip": "ym2612"
    },
    {
      "channel": 0,
      "note": 47,
      "start": 29.282,
      "duration": 0.0161,
      "velocity": 115,
      "chip": "ym2612"
    },
    {
      "channel": 4,
      "note": 63,
      "start": 29.2831,
      "duration": 0.0161,
      "velocity": 101,
      "chip": "ym2612"
    },
    {
      "channel": 3,
      "note": 66,
      "start": 29.2842,
      "duration": 0.0162,
      "velocity": 101,
      "chip": "ym2612"
    },
    {
      "channel": 1,
      "note": 71,
      "start": 29.2865,
      "duration": 0.0161,
      "velocity": 101,
      "chip": "ym2612"
    },
    {
      "channel": 0,
      "note": 47,
      "start": 29.298,
      "duration": 0.0161,
      "velocity": 115,
      "chip": "ym2612"
    },
    {
      "channel": 4,
      "note": 63,
      "start": 29.2993,
      "duration": 0.0161,
      "velocity": 101,
      "chip": "ym2612"
    },
    {
      "channel": 3,
      "note": 66,
      "start": 29.3004,
      "duration": 0.0161,
      "velocity": 101,
      "chip": "ym2612"
    },
    {
      "channel": 1,
      "note": 71,
      "start": 29.3026,
      "duration": 0.0161,
      "velocity": 101,
      "chip": "ym2612"
    },
    {
      "channel": 0,
      "note": 47,
      "start": 29.3141,
      "duration": 0.0161,
      "velocity": 115,
      "chip": "ym2612"
    },
    {
      "channel": 4,
      "note": 63,
      "start": 29.3154,
      "duration": 0.0161,
      "velocity": 101,
      "chip": "ym2612"
    },
    {
      "channel": 3,
      "note": 66,
      "start": 29.3165,
      "duration": 0.0161,
      "velocity": 101,
      "chip": "ym2612"
    },
    {
      "channel": 1,
      "note": 71,
      "start": 29.3187,
      "duration": 0.0161,
      "velocity": 101,
      "chip": "ym2612"
    },
    {
      "channel": 0,
      "note": 48,
      "start": 29.3303,
      "duration": 0.0178,
      "velocity": 124,
      "chip": "ym2612"
    },
    {
      "channel": 4,
      "note": 63,
      "start": 29.3315,
      "duration": 0.0179,
      "velocity": 101,
      "chip": "ym2612"
    },
    {
      "channel": 3,
      "note": 66,
      "start": 29.3326,
      "duration": 0.0179,
      "velocity": 101,
      "chip": "ym2612"
    },
    {
      "channel": 1,
      "note": 71,
      "start": 29.3349,
      "duration": 0.0181,
      "velocity": 101,
      "chip": "ym2612"
    },
    {
      "channel": 0,
      "note": 84,
      "start": 29.3482,
      "duration": 0.0144,
      "velocity": 124,
      "chip": "ym2612"
    },
    {
      "channel": 4,
      "note": 63,
      "start": 29.3493,
      "duration": 0.0144,
      "velocity": 101,
      "chip": "ym2612"
    },
    {
      "channel": 3,
      "note": 66,
      "start": 29.3505,
      "duration": 0.0144,
      "velocity": 101,
      "chip": "ym2612"
    },
    {
      "channel": 2,
      "note": 66,
      "start": 29.3519,
      "duration": 0.0142,
      "velocity": 100,
      "chip": "ym2612"
    },
    {
      "channel": 1,
      "note": 71,
      "start": 29.353,
      "duration": 0.0142,
      "velocity": 101,
      "chip": "ym2612"
    },
    {
      "channel": 0,
      "note": 82,
      "start": 29.3626,
      "duration": 0.0166,
      "velocity": 124,
      "chip": "ym2612"
    },
    {
      "channel": 4,
      "note": 63,
      "start": 29.3637,
      "duration": 0.0166,
      "velocity": 101,
      "chip": "ym2612"
    },
    {
      "channel": 3,
      "note": 66,
      "start": 29.3649,
      "duration": 0.0166,
      "velocity": 101,
      "chip": "ym2612"
    },
    {
      "channel": 2,
      "note": 66,
      "start": 29.3661,
      "duration": 0.0165,
      "velocity": 100,
      "chip": "ym2612"
    },
    {
      "channel": 1,
      "note": 71,
      "start": 29.3672,
      "duration": 0.0166,
      "velocity": 101,
      "chip": "ym2612"
    },
    {
      "channel": 0,
      "note": 80,
      "start": 29.3792,
      "duration": 0.0163,
      "velocity": 124,
      "chip": "ym2612"
    },
    {
      "channel": 4,
      "note": 63,
      "start": 29.3803,
      "duration": 0.0163,
      "velocity": 101,
      "chip": "ym2612"
    },
    {
      "channel": 3,
      "note": 66,
      "start": 29.3815,
      "duration": 0.0163,
      "velocity": 101,
      "chip": "ym2612"
    },
    {
      "channel": 2,
      "note": 66,
      "start": 29.3826,
      "duration": 0.0163,
      "velocity": 100,
      "chip": "ym2612"
    },
    {
      "channel": 1,
      "note": 71,
      "start": 29.3837,
      "duration": 0.0163,
      "velocity": 101,
      "chip": "ym2612"
    },
    {
      "channel": 0,
      "note": 77,
      "start": 29.3954,
      "duration": 0.0153,
      "velocity": 124,
      "chip": "ym2612"
    },
    {
      "channel": 4,
      "note": 63,
      "start": 29.3966,
      "duration": 0.0154,
      "velocity": 101,
      "chip": "ym2612"
    },
    {
      "channel": 3,
      "note": 66,
      "start": 29.3977,
      "duration": 0.0153,
      "velocity": 101,
      "chip": "ym2612"
    },
    {
      "channel": 2,
      "note": 66,
      "start": 29.3989,
      "duration": 0.0154,
      "velocity": 100,
      "chip": "ym2612"
    },
    {
      "channel": 1,
      "note": 71,
      "start": 29.4,
      "duration": 0.0153,
      "velocity": 101,
      "chip": "ym2612"
    },
    {
      "channel": 0,
      "note": 75,
      "start": 29.4108,
      "duration": 0.0184,
      "velocity": 124,
      "chip": "ym2612"
    },
    {
      "channel": 4,
      "note": 63,
      "start": 29.4119,
      "duration": 0.0184,
      "velocity": 101,
      "chip": "ym2612"
    },
    {
      "channel": 3,
      "note": 66,
      "start": 29.4131,
      "duration": 0.0184,
      "velocity": 101,
      "chip": "ym2612"
    },
    {
      "channel": 2,
      "note": 66,
      "start": 29.4142,
      "duration": 0.0184,
      "velocity": 100,
      "chip": "ym2612"
    },
    {
      "channel": 1,
      "note": 71,
      "start": 29.4154,
      "duration": 0.0184,
      "velocity": 101,
      "chip": "ym2612"
    },
    {
      "channel": 0,
      "note": 72,
      "start": 29.4292,
      "duration": 0.0165,
      "velocity": 124,
      "chip": "ym2612"
    },
    {
      "channel": 4,
      "note": 63,
      "start": 29.4303,
      "duration": 0.0166,
      "velocity": 101,
      "chip": "ym2612"
    },
    {
      "channel": 3,
      "note": 66,
      "start": 29.4315,
      "duration": 0.0166,
      "velocity": 101,
      "chip": "ym2612"
    },
    {
      "channel": 2,
      "note": 66,
      "start": 29.4326,
      "duration": 0.0166,
      "velocity": 100,
      "chip": "ym2612"
    },
    {
      "channel": 1,
      "note": 71,
      "start": 29.4337,
      "duration": 0.0165,
      "velocity": 101,
      "chip": "ym2612"
    },
    {
      "channel": 0,
      "note": 70,
      "start": 29.4457,
      "duration": 0.0158,
      "velocity": 124,
      "chip": "ym2612"
    },
    {
      "channel": 4,
      "note": 63,
      "start": 29.4469,
      "duration": 0.0157,
      "velocity": 101,
      "chip": "ym2612"
    },
    {
      "channel": 3,
      "note": 66,
      "start": 29.448,
      "duration": 0.0157,
      "velocity": 101,
      "chip": "ym2612"
    },
    {
      "channel": 2,
      "note": 66,
      "start": 29.4491,
      "duration": 0.0158,
      "velocity": 100,
      "chip": "ym2612"
    },
    {
      "channel": 1,
      "note": 71,
      "start": 29.4503,
      "duration": 0.0158,
      "velocity": 101,
      "chip": "ym2612"
    },
    {
      "channel": 0,
      "note": 68,
      "start": 29.4615,
      "duration": 0.0141,
      "velocity": 124,
      "chip": "ym2612"
    },
    {
      "channel": 4,
      "note": 63,
      "start": 29.4626,
      "duration": 0.0141,
      "velocity": 101,
      "chip": "ym2612"
    },
    {
      "channel": 3,
      "note": 66,
      "start": 29.4638,
      "duration": 0.0141,
      "velocity": 101,
      "chip": "ym2612"
    },
    {
      "channel": 1,
      "note": 71,
      "start": 29.4661,
      "duration": 0.0141,
      "velocity": 101,
      "chip": "ym2612"
    },
    {
      "channel": 0,
      "note": 65,
      "start": 29.4755,
      "duration": 0.0185,
      "velocity": 124,
      "chip": "ym2612"
    },
    {
      "channel": 4,
      "note": 63,
      "start": 29.4767,
      "duration": 0.0185,
      "velocity": 101,
      "chip": "ym2612"
    },
    {
      "channel": 3,
      "note": 66,
      "start": 29.4778,
      "duration": 0.0185,
      "velocity": 101,
      "chip": "ym2612"
    },
    {
      "channel": 1,
      "note": 71,
      "start": 29.4801,
      "duration": 0.0185,
      "velocity": 101,
      "chip": "ym2612"
    },
    {
      "channel": 0,
      "note": 63,
      "start": 29.494,
      "duration": 0.0125,
      "velocity": 1,
      "chip": "ym2612"
    },
    {
      "channel": 4,
      "note": 63,
      "start": 29.4952,
      "duration": 0.0125,
      "velocity": 101,
      "chip": "ym2612"
    },
    {
      "channel": 3,
      "note": 66,
      "start": 29.4963,
      "duration": 0.0153,
      "velocity": 101,
      "chip": "ym2612"
    },
    {
      "channel": 1,
      "note": 71,
      "start": 29.4986,
      "duration": 0.0153,
      "velocity": 101,
      "chip": "ym2612"
    },
    {
      "channel": 4,
      "note": 63,
      "start": 29.5077,
      "duration": 0.0153,
      "velocity": 101,
      "chip": "ym2612"
    },
    {
      "channel": 3,
      "note": 66,
      "start": 29.5116,
      "duration": 0.0125,
      "velocity": 101,
      "chip": "ym2612"
    },
    {
      "channel": 1,
      "note": 71,
      "start": 29.5139,
      "duration": 0.0149,
      "velocity": 101,
      "chip": "ym2612"
    },
    {
      "channel": 4,
      "note": 63,
      "start": 29.523,
      "duration": 0.0161,
      "velocity": 101,
      "chip": "ym2612"
    },
    {
      "channel": 3,
      "note": 66,
      "start": 29.5241,
      "duration": 0.0161,
      "velocity": 101,
      "chip": "ym2612"
    },
    {
      "channel": 1,
      "note": 71,
      "start": 29.5288,
      "duration": 0.0141,
      "velocity": 101,
      "chip": "ym2612"
    },
    {
      "channel": 4,
      "note": 63,
      "start": 29.5391,
      "duration": 0.0161,
      "velocity": 101,
      "chip": "ym2612"
    },
    {
      "channel": 3,
      "note": 66,
      "start": 29.5402,
      "duration": 0.0161,
      "velocity": 101,
      "chip": "ym2612"
    },
    {
      "channel": 1,
      "note": 71,
      "start": 29.5428,
      "duration": 0.0185,
      "velocity": 101,
      "chip": "ym2612"
    },
    {
      "channel": 4,
      "note": 63,
      "start": 29.5552,
      "duration": 0.0225,
      "velocity": 101,
      "chip": "ym2612"
    },
    {
      "channel": 3,
      "note": 66,
      "start": 29.5563,
      "duration": 0.0228,
      "velocity": 101,
      "chip": "ym2612"
    },
    {
      "channel": 1,
      "note": 71,
      "start": 29.5613,
      "duration": 0.0206,
      "velocity": 101,
      "chip": "ym2612"
    },
    {
      "channel": 0,
      "note": 36,
      "start": 29.5736,
      "duration": 0.0144,
      "velocity": 115,
      "chip": "ym2612"
    },
    {
      "channel": 4,
      "note": 63,
      "start": 29.5778,
      "duration": 0.0114,
      "velocity": 101,
      "chip": "ym2612"
    },
    {
      "channel": 3,
      "note": 66,
      "start": 29.5792,
      "duration": 0.0112,
      "velocity": 101,
      "chip": "ym2612"
    },
    {
      "channel": 2,
      "note": 54,
      "start": 29.5806,
      "duration": 0.0134,
      "velocity": 100,
      "chip": "ym2612"
    },
    {
      "channel": 1,
      "note": 71,
      "start": 29.582,
      "duration": 0.0132,
      "velocity": 101,
      "chip": "ym2612"
    },
    {
      "channel": 0,
      "note": 36,
      "start": 29.5879,
      "duration": 0.016,
      "velocity": 115,
      "chip": "ym2612"
    },
    {
      "channel": 4,
      "note": 63,
      "start": 29.5891,
      "duration": 0.016,
      "velocity": 101,
      "chip": "ym2612"
    },
    {
      "channel": 3,
      "note": 66,
      "start": 29.5904,
      "duration": 0.016,
      "velocity": 101,
      "chip": "ym2612"
    },
    {
      "channel": 2,
      "note": 54,
      "start": 29.5939,
      "duration": 0.0135,
      "velocity": 100,
      "chip": "ym2612"
    },
    {
      "channel": 1,
      "note": 71,
      "start": 29.5951,
      "duration": 0.0138,
      "velocity": 101,
      "chip": "ym2612"
    },
    {
      "channel": 0,
      "note": 37,
      "start": 29.604,
      "duration": 0.0161,
      "velocity": 115,
      "chip": "ym2612"
    },
    {
      "channel": 4,
      "note": 63,
      "start": 29.6052,
      "duration": 0.0161,
      "velocity": 101,
      "chip": "ym2612"
    },
    {
      "channel": 3,
      "note": 66,
      "start": 29.6063,
      "duration": 0.0161,
      "velocity": 101,
      "chip": "ym2612"
    },
    {
      "channel": 2,
      "note": 54,
      "start": 29.6074,
      "duration": 0.0161,
      "velocity": 100,
      "chip": "ym2612"
    },
    {
      "channel": 1,
      "note": 71,
      "start": 29.6089,
      "duration": 0.0185,
      "velocity": 101,
      "chip": "ym2612"
    },
    {
      "channel": 0,
      "note": 37,
      "start": 29.6201,
      "duration": 0.0161,
      "velocity": 115,
      "chip": "ym2612"
    },
    {
      "channel": 4,
      "note": 63,
      "start": 29.6213,
      "duration": 0.0161,
      "velocity": 101,
      "chip": "ym2612"
    },
    {
      "channel": 3,
      "note": 66,
      "start": 29.6224,
      "duration": 0.0161,
      "velocity": 101,
      "chip": "ym2612"
    },
    {
      "channel": 2,
      "note": 54,
      "start": 29.6235,
      "duration": 0.0162,
      "velocity": 100,
      "chip": "ym2612"
    },
    {
      "channel": 1,
      "note": 71,
      "start": 29.6274,
      "duration": 0.0134,
      "velocity": 101,
      "chip": "ym2612"
    },
    {
      "channel": 0,
      "note": 38,
      "start": 29.6361,
      "duration": 0.0162,
      "velocity": 115,
      "chip": "ym2612"
    },
    {
      "channel": 4,
      "note": 63,
      "start": 29.6374,
      "duration": 0.0161,
      "velocity": 101,
      "chip": "ym2612"
    },
    {
      "channel": 3,
      "note": 66,
      "start": 29.6385,
      "duration": 0.0161,
      "velocity": 101,
      "chip": "ym2612"
    },
    {
      "channel": 2,
      "note": 54,
      "start": 29.6397,
      "duration": 0.0161,
      "velocity": 100,
      "chip": "ym2612"
    },
    {
      "channel": 1,
      "note": 71,
      "start": 29.6408,
      "duration": 0.0161,
      "velocity": 101,
      "chip": "ym2612"
    },
    {
      "channel": 0,
      "note": 38,
      "start": 29.6523,
      "duration": 0.0161,
      "velocity": 115,
      "chip": "ym2612"
    },
    {
      "channel": 4,
      "note": 63,
      "start": 29.6534,
      "duration": 0.0161,
      "velocity": 101,
      "chip": "ym2612"
    },
    {
      "channel": 3,
      "note": 66,
      "start": 29.6546,
      "duration": 0.0161,
      "velocity": 101,
      "chip": "ym2612"
    },
    {
      "channel": 2,
      "note": 54,
      "start": 29.6557,
      "duration": 0.0161,
      "velocity": 100,
      "chip": "ym2612"
    },
    {
      "channel": 1,
      "note": 71,
      "start": 29.6569,
      "duration": 0.0161,
      "velocity": 101,
      "chip": "ym2612"
    },
    {
      "channel": 0,
      "note": 39,
      "start": 29.6684,
      "duration": 0.0161,
      "velocity": 115,
      "chip": "ym2612"
    },
    {
      "channel": 4,
      "note": 63,
      "start": 29.6695,
      "duration": 0.0161,
      "velocity": 101,
      "chip": "ym2612"
    },
    {
      "channel": 3,
      "note": 66,
      "start": 29.6707,
      "duration": 0.0161,
      "velocity": 101,
      "chip": "ym2612"
    },
    {
      "channel": 2,
      "note": 54,
      "start": 29.6718,
      "duration": 0.0161,
      "velocity": 100,
      "chip": "ym2612"
    },
    {
      "channel": 1,
      "note": 71,
      "start": 29.673,
      "duration": 0.0161,
      "velocity": 101,
      "chip": "ym2612"
    },
    {
      "channel": 0,
      "note": 39,
      "start": 29.6845,
      "duration": 0.0161,
      "velocity": 115,
      "chip": "ym2612"
    },
    {
      "channel": 4,
      "note": 63,
      "start": 29.6856,
      "duration": 0.0161,
      "velocity": 101,
      "chip": "ym2612"
    },
    {
      "channel": 3,
      "note": 66,
      "start": 29.6868,
      "duration": 0.0161,
      "velocity": 101,
      "chip": "ym2612"
    },
    {
      "channel": 1,
      "note": 71,
      "start": 29.6891,
      "duration": 0.0161,
      "velocity": 101,
      "chip": "ym2612"
    },
    {
      "channel": 0,
      "note": 40,
      "start": 29.7006,
      "duration": 0.0161,
      "velocity": 115,
      "chip": "ym2612"
    },
    {
      "channel": 4,
      "note": 63,
      "start": 29.7017,
      "duration": 0.0161,
      "velocity": 101,
      "chip": "ym2612"
    },
    {
      "channel": 3,
      "note": 66,
      "start": 29.7029,
      "duration": 0.0161,
      "velocity": 101,
      "chip": "ym2612"
    },
    {
      "channel": 1,
      "note": 71,
      "start": 29.7052,
      "duration": 0.0161,
      "velocity": 101,
      "chip": "ym2612"
    },
    {
      "channel": 0,
      "note": 40,
      "start": 29.7167,
      "duration": 0.0161,
      "velocity": 115,
      "chip": "ym2612"
    },
    {
      "channel": 4,
      "note": 63,
      "start": 29.7178,
      "duration": 0.0161,
      "velocity": 101,
      "chip": "ym2612"
    },
    {
      "channel": 3,
      "note": 66,
      "start": 29.719,
      "duration": 0.0161,
      "velocity": 101,
      "chip": "ym2612"
    },
    {
      "channel": 1,
      "note": 71,
      "start": 29.7213,
      "duration": 0.0161,
      "velocity": 101,
      "chip": "ym2612"
    },
    {
      "channel": 0,
      "note": 40,
      "start": 29.7328,
      "duration": 0.0161,
      "velocity": 115,
      "chip": "ym2612"
    },
    {
      "channel": 4,
      "note": 63,
      "start": 29.7339,
      "duration": 0.0162,
      "velocity": 101,
      "chip": "ym2612"
    },
    {
      "channel": 3,
      "note": 66,
      "start": 29.7351,
      "duration": 0.0161,
      "velocity": 101,
      "chip": "ym2612"
    },
    {
      "channel": 1,
      "note": 71,
      "start": 29.7374,
      "duration": 0.0161,
      "velocity": 101,
      "chip": "ym2612"
    },
    {
      "channel": 0,
      "note": 41,
      "start": 29.7489,
      "duration": 0.0161,
      "velocity": 115,
      "chip": "ym2612"
    },
    {
      "channel": 4,
      "note": 63,
      "start": 29.7501,
      "duration": 0.0161,
      "velocity": 101,
      "chip": "ym2612"
    },
    {
      "channel": 3,
      "note": 66,
      "start": 29.7512,
      "duration": 0.0161,
      "velocity": 101,
      "chip": "ym2612"
    },
    {
      "channel": 1,
      "note": 71,
      "start": 29.7534,
      "duration": 0.0161,
      "velocity": 101,
      "chip": "ym2612"
    },
    {
      "channel": 0,
      "note": 41,
      "start": 29.765,
      "duration": 0.0162,
      "velocity": 115,
      "chip": "ym2612"
    },
    {
      "channel": 4,
      "note": 63,
      "start": 29.7662,
      "duration": 0.0161,
      "velocity": 101,
      "chip": "ym2612"
    },
    {
      "channel": 3,
      "note": 66,
      "start": 29.7673,
      "duration": 0.0161,
      "velocity": 101,
      "chip": "ym2612"
    },
    {
      "channel": 1,
      "note": 71,
      "start": 29.7695,
      "duration": 0.0162,
      "velocity": 101,
      "chip": "ym2612"
    },
    {
      "channel": 0,
      "note": 42,
      "start": 29.7811,
      "duration": 0.0161,
      "velocity": 115,
      "chip": "ym2612"
    },
    {
      "channel": 4,
      "note": 63,
      "start": 29.7823,
      "duration": 0.0161,
      "velocity": 101,
      "chip": "ym2612"
    },
    {
      "channel": 3,
      "note": 66,
      "start": 29.7834,
      "duration": 0.0161,
      "velocity": 101,
      "chip": "ym2612"
    },
    {
      "channel": 1,
      "note": 71,
      "start": 29.7857,
      "duration": 0.0163,
      "velocity": 101,
      "chip": "ym2612"
    },
    {
      "channel": 0,
      "note": 42,
      "start": 29.7972,
      "duration": 0.0161,
      "velocity": 115,
      "chip": "ym2612"
    },
    {
      "channel": 4,
      "note": 63,
      "start": 29.7984,
      "duration": 0.0161,
      "velocity": 101,
      "chip": "ym2612"
    },
    {
      "channel": 3,
      "note": 66,
      "start": 29.7995,
      "duration": 0.0161,
      "velocity": 101,
      "chip": "ym2612"
    },
    {
      "channel": 2,
      "note": 59,
      "start": 29.8009,
      "duration": 0.0159,
      "velocity": 100,
      "chip": "ym2612"
    },
    {
      "channel": 1,
      "note": 71,
      "start": 29.8021,
      "duration": 0.0159,
      "velocity": 101,
      "chip": "ym2612"
    },
    {
      "channel": 0,
      "note": 43,
      "start": 29.8133,
      "duration": 0.0161,
      "velocity": 115,
      "chip": "ym2612"
    },
    {
      "channel": 4,
      "note": 63,
      "start": 29.8145,
      "duration": 0.0161,
      "velocity": 101,
      "chip": "ym2612"
    },
    {
      "channel": 3,
      "note": 66,
      "start": 29.8156,
      "duration": 0.0161,
      "velocity": 101,
      "chip": "ym2612"
    },
    {
      "channel": 2,
      "note": 59,
      "start": 29.8168,
      "duration": 0.016,
      "velocity": 100,
      "chip": "ym2612"
    },
    {
      "channel": 1,
      "note": 71,
      "start": 29.818,
      "duration": 0.016,
      "velocity": 101,
      "chip": "ym2612"
    },
    {
      "channel": 0,
      "note": 43,
      "start": 29.8294,
      "duration": 0.0164,
      "velocity": 115,
      "chip": "ym2612"
    },
    {
      "channel": 4,
      "note": 63,
      "start": 29.8306,
      "duration": 0.0164,
      "velocity": 101,
      "chip": "ym2612"
    },
    {
      "channel": 3,
      "note": 66,
      "start": 29.8317,
      "duration": 0.0164,
      "velocity": 101,
      "chip": "ym2612"
    },
    {
      "channel": 2,
      "note": 59,
      "start": 29.8329,
      "duration": 0.0164,
      "velocity": 100,
      "chip": "ym2612"
    },
    {
      "channel": 1,
      "note": 71,
      "start": 29.834,
      "duration": 0.0164,
      "velocity": 101,
      "chip": "ym2612"
    },
    {
      "channel": 0,
      "note": 44,
      "start": 29.8458,
      "duration": 0.0163,
      "velocity": 115,
      "chip": "ym2612"
    },
    {
      "channel": 4,
      "note": 63,
      "start": 29.847,
      "duration": 0.0163,
      "velocity": 101,
      "chip": "ym2612"
    },
    {
      "channel": 3,
      "note": 66,
      "start": 29.8481,
      "duration": 0.0163,
      "velocity": 101,
      "chip": "ym2612"
    },
    {
      "channel": 2,
      "note": 59,
      "start": 29.8493,
      "duration": 0.0163,
      "velocity": 100,
      "chip": "ym2612"
    },
    {
      "channel": 1,
      "note": 71,
      "start": 29.8504,
      "duration": 0.0163,
      "velocity": 101,
      "chip": "ym2612"
    },
    {
      "channel": 0,
      "note": 44,
      "start": 29.8621,
      "duration": 0.0156,
      "velocity": 115,
      "chip": "ym2612"
    },
    {
      "channel": 4,
      "note": 63,
      "start": 29.8632,
      "duration": 0.0156,
      "velocity": 101,
      "chip": "ym2612"
    },
    {
      "channel": 3,
      "note": 66,
      "start": 29.8644,
      "duration": 0.0156,
      "velocity": 101,
      "chip": "ym2612"
    },
    {
      "channel": 2,
      "note": 59,
      "start": 29.8655,
      "duration": 0.0156,
      "velocity": 100,
      "chip": "ym2612"
    },
    {
      "channel": 1,
      "note": 71,
      "start": 29.8667,
      "duration": 0.0156,
      "velocity": 101,
      "chip": "ym2612"
    },
    {
      "channel": 0,
      "note": 44,
      "start": 29.8777,
      "duration": 0.0181,
      "velocity": 115,
      "chip": "ym2612"
    },
    {
      "channel": 4,
      "note": 63,
      "start": 29.8788,
      "duration": 0.0181,
      "velocity": 101,
      "chip": "ym2612"
    },
    {
      "channel": 3,
      "note": 66,
      "start": 29.88,
      "duration": 0.0181,
      "velocity": 101,
      "chip": "ym2612"
    },
    {
      "channel": 2,
      "note": 59,
      "start": 29.8811,
      "duration": 0.0181,
      "velocity": 100,
      "chip": "ym2612"
    },
    {
      "channel": 1,
      "note": 71,
      "start": 29.8823,
      "duration": 0.0181,
      "velocity": 101,
      "chip": "ym2612"
    },
    {
      "channel": 0,
      "note": 45,
      "start": 29.8958,
      "duration": 0.0167,
      "velocity": 115,
      "chip": "ym2612"
    },
    {
      "channel": 4,
      "note": 63,
      "start": 29.897,
      "duration": 0.0167,
      "velocity": 101,
      "chip": "ym2612"
    },
    {
      "channel": 3,
      "note": 66,
      "start": 29.8981,
      "duration": 0.0167,
      "velocity": 101,
      "chip": "ym2612"
    },
    {
      "channel": 2,
      "note": 59,
      "start": 29.8993,
      "duration": 0.0167,
      "velocity": 100,
      "chip": "ym2612"
    },
    {
      "channel": 1,
      "note": 71,
      "start": 29.9004,
      "duration": 0.0167,
      "velocity": 101,
      "chip": "ym2612"
    },
    {
      "channel": 0,
      "note": 45,
      "start": 29.9125,
      "duration": 0.0159,
      "velocity": 115,
      "chip": "ym2612"
    },
    {
      "channel": 4,
      "note": 63,
      "start": 29.9136,
      "duration": 0.0159,
      "velocity": 101,
      "chip": "ym2612"
    },
    {
      "channel": 3,
      "note": 66,
      "start": 29.9148,
      "duration": 0.0159,
      "velocity": 101,
      "chip": "ym2612"
    },
    {
      "channel": 1,
      "note": 71,
      "start": 29.9171,
      "duration": 0.0159,
      "velocity": 101,
      "chip": "ym2612"
    },
    {
      "channel": 0,
      "note": 46,
      "start": 29.9284,
      "duration": 0.0141,
      "velocity": 115,
      "chip": "ym2612"
    },
    {
      "channel": 4,
      "note": 63,
      "start": 29.9295,
      "duration": 0.0141,
      "velocity": 101,
      "chip": "ym2612"
    },
    {
      "channel": 3,
      "note": 66,
      "start": 29.9307,
      "duration": 0.0141,
      "velocity": 101,
      "chip": "ym2612"
    },
    {
      "channel": 1,
      "note": 71,
      "start": 29.933,
      "duration": 0.0141,
      "velocity": 101,
      "chip": "ym2612"
    },
    {
      "channel": 0,
      "note": 46,
      "start": 29.9424,
      "duration": 0.0185,
      "velocity": 115,
      "chip": "ym2612"
    },
    {
      "channel": 4,
      "note": 63,
      "start": 29.9436,
      "duration": 0.0185,
      "velocity": 101,
      "chip": "ym2612"
    },
    {
      "channel": 3,
      "note": 66,
      "start": 29.9447,
      "duration": 0.0185,
      "velocity": 101,
      "chip": "ym2612"
    },
    {
      "channel": 1,
      "note": 71,
      "start": 29.947,
      "duration": 0.0185,
      "velocity": 101,
      "chip": "ym2612"
    },
    {
      "channel": 0,
      "note": 47,
      "start": 29.961,
      "duration": 0.0134,
      "velocity": 115,
      "chip": "ym2612"
    },
    {
      "channel": 4,
      "note": 63,
      "start": 29.9621,
      "duration": 0.0162,
      "velocity": 101,
      "chip": "ym2612"
    },
    {
      "channel": 3,
      "note": 66,
      "start": 29.9632,
      "duration": 0.0162,
      "velocity": 101,
      "chip": "ym2612"
    },
    {
      "channel": 1,
      "note": 71,
      "start": 29.9655,
      "duration": 0.0161,
      "velocity": 101,
      "chip": "ym2612"
    },
    {
      "channel": 0,
      "note": 47,
      "start": 29.9743,
      "duration": 0.0161,
      "velocity": 115,
      "chip": "ym2612"
    },
    {
      "channel": 4,
      "note": 63,
      "start": 29.9783,
      "duration": 0.0157,
      "velocity": 101,
      "chip": "ym2612"
    },
    {
      "channel": 3,
      "note": 66,
      "start": 29.9794,
      "duration": 0.0157,
      "velocity": 101,
      "chip": "ym2612"
    },
    {
      "channel": 1,
      "note": 71,
      "start": 29.9816,
      "duration": 0.0158,
      "velocity": 101,
      "chip": "ym2612"
    },
    {
      "channel": 0,
      "note": 47,
      "start": 29.9904,
      "duration": 0.0161,
      "velocity": 115,
      "chip": "ym2612"
    },
    {
      "channel": 4,
      "note": 63,
      "start": 29.994,
      "duration": 0.0137,
      "velocity": 101,
      "chip": "ym2612"
    },
    {
      "channel": 3,
      "note": 66,
      "start": 29.9951,
      "duration": 0.014,
      "velocity": 101,
      "chip": "ym2612"
    },
    {
      "channel": 1,
      "note": 71,
      "start": 29.9974,
      "duration": 0.014,
      "velocity": 101,
      "chip": "ym2612"
    },
    {
      "channel": 0,
      "note": 48,
      "start": 30.0065,
      "duration": 0.0179,
      "velocity": 115,
      "chip": "ym2612"
    },
    {
      "channel": 4,
      "note": 63,
      "start": 30.0077,
      "duration": 0.0207,
      "velocity": 101,
      "chip": "ym2612"
    },
    {
      "channel": 3,
      "note": 66,
      "start": 30.0091,
      "duration": 0.0204,
      "velocity": 101,
      "chip": "ym2612"
    },
    {
      "channel": 1,
      "note": 71,
      "start": 30.0114,
      "duration": 0.0206,
      "velocity": 101,
      "chip": "ym2612"
    },
    {
      "channel": 0,
      "note": 36,
      "start": 30.0271,
      "duration": 0.0116,
      "velocity": 115,
      "chip": "ym2612"
    },
    {
      "channel": 4,
      "note": 63,
      "start": 30.0283,
      "duration": 0.0116,
      "velocity": 101,
      "chip": "ym2612"
    },
    {
      "channel": 3,
      "note": 66,
      "start": 30.0295,
      "duration": 0.0143,
      "velocity": 101,
      "chip": "ym2612"
    },
    {
      "channel": 2,
      "note": 59,
      "start": 30.0309,
      "duration": 0.0141,
      "velocity": 100,
      "chip": "ym2612"
    },
    {
      "channel": 1,
      "note": 71,
      "start": 30.032,
      "duration": 0.0141,
      "velocity": 101,
      "chip": "ym2612"
    },
    {
      "channel": 0,
      "note": 36,
      "start": 30.0388,
      "duration": 0.016,
      "velocity": 115,
      "chip": "ym2612"
    },
    {
      "channel": 4,
      "note": 63,
      "start": 30.0399,
      "duration": 0.0161,
      "velocity": 101,
      "chip": "ym2612"
    },
    {
      "channel": 3,
      "note": 66,
      "start": 30.0438,
      "duration": 0.0134,
      "velocity": 101,
      "chip": "ym2612"
    },
    {
      "channel": 2,
      "note": 59,
      "start": 30.045,
      "duration": 0.0156,
      "velocity": 100,
      "chip": "ym2612"
    },
    {
      "channel": 1,
      "note": 71,
      "start": 30.0461,
      "duration": 0.0156,
      "velocity": 101,
      "chip": "ym2612"
    },
    {
      "channel": 0,
      "note": 37,
      "start": 30.0548,
      "duration": 0.0161,
      "velocity": 115,
      "chip": "ym2612"
    },
    {
      "channel": 4,
      "note": 63,
      "start": 30.056,
      "duration": 0.0161,
      "velocity": 101,
      "chip": "ym2612"
    },
    {
      "channel": 3,
      "note": 66,
      "start": 30.0571,
      "duration": 0.0161,
      "velocity": 101,
      "chip": "ym2612"
    },
    {
      "channel": 2,
      "note": 59,
      "start": 30.0606,
      "duration": 0.0137,
      "velocity": 100,
      "chip": "ym2612"
    },
    {
      "channel": 1,
      "note": 71,
      "start": 30.0618,
      "duration": 0.0141,
      "velocity": 101,
      "chip": "ym2612"
    },
    {
      "channel": 0,
      "note": 37,
      "start": 30.0709,
      "duration": 0.0162,
      "velocity": 115,
      "chip": "ym2612"
    },
    {
      "channel": 4,
      "note": 63,
      "start": 30.0721,
      "duration": 0.0161,
      "velocity": 101,
      "chip": "ym2612"
    },
    {
      "channel": 3,
      "note": 66,
      "start": 30.0732,
      "duration": 0.0161,
      "velocity": 101,
      "chip": "ym2612"
    },
    {
      "channel": 2,
      "note": 59,
      "start": 30.0743,
      "duration": 0.0161,
      "velocity": 100,
      "chip": "ym2612"
    },
    {
      "channel": 1,
      "note": 71,
      "start": 30.0759,
      "duration": 0.0185,
      "velocity": 101,
      "chip": "ym2612"
    },
    {
      "channel": 0,
      "note": 38,
      "start": 30.0871,
      "duration": 0.0161,
      "velocity": 115,
      "chip": "ym2612"
    },
    {
      "channel": 4,
      "note": 63,
      "start": 30.0882,
      "duration": 0.0161,
      "velocity": 101,
      "chip": "ym2612"
    },
    {
      "channel": 3,
      "note": 66,
      "start": 30.0893,
      "duration": 0.0161,
      "velocity": 101,
      "chip": "ym2612"
    },
    {
      "channel": 2,
      "note": 59,
      "start": 30.0905,
      "duration": 0.0161,
      "velocity": 100,
      "chip": "ym2612"
    },
    {
      "channel": 1,
      "note": 71,
      "start": 30.0944,
      "duration": 0.0134,
      "velocity": 101,
      "chip": "ym2612"
    },
    {
      "channel": 0,
      "note": 38,
      "start": 30.1031,
      "duration": 0.0161,
      "velocity": 115,
      "chip": "ym2612"
    },
    {
      "channel": 4,
      "note": 63,
      "start": 30.1043,
      "duration": 0.0161,
      "velocity": 101,
      "chip": "ym2612"
    },
    {
      "channel": 3,
      "note": 66,
      "start": 30.1054,
      "duration": 0.0161,
      "velocity": 101,
      "chip": "ym2612"
    },
    {
      "channel": 2,
      "note": 59,
      "start": 30.1066,
      "duration": 0.0161,
      "velocity": 100,
      "chip": "ym2612"
    },
    {
      "channel": 1,
      "note": 71,
      "start": 30.1077,
      "duration": 0.0161,
      "velocity": 101,
      "chip": "ym2612"
    },
    {
      "channel": 0,
      "note": 39,
      "start": 30.1192,
      "duration": 0.0161,
      "velocity": 115,
      "chip": "ym2612"
    },
    {
      "channel": 4,
      "note": 63,
      "start": 30.1204,
      "duration": 0.0161,
      "velocity": 101,
      "chip": "ym2612"
    },
    {
      "channel": 3,
      "note": 66,
      "start": 30.1215,
      "duration": 0.0161,
      "velocity": 101,
      "chip": "ym2612"
    },
    {
      "channel": 2,
      "note": 59,
      "start": 30.1227,
      "duration": 0.0161,
      "velocity": 100,
      "chip": "ym2612"
    },
    {
      "channel": 1,
      "note": 71,
      "start": 30.1238,
      "duration": 0.0161,
      "velocity": 101,
      "chip": "ym2612"
    },
    {
      "channel": 0,
      "note": 39,
      "start": 30.1353,
      "duration": 0.0161,
      "velocity": 115,
      "chip": "ym2612"
    },
    {
      "channel": 4,
      "note": 63,
      "start": 30.1365,
      "duration": 0.0161,
      "velocity": 101,
      "chip": "ym2612"
    },
    {
      "channel": 3,
      "note": 66,
      "start": 30.1376,
      "duration": 0.0161,
      "velocity": 101,
      "chip": "ym2612"
    },
    {
      "channel": 1,
      "note": 71,
      "start": 30.1399,
      "duration": 0.0161,
      "velocity": 101,
      "chip": "ym2612"
    },
    {
      "channel": 0,
      "note": 40,
      "start": 30.1514,
      "duration": 0.0161,
      "velocity": 115,
      "chip": "ym2612"
    },
    {
      "channel": 4,
      "note": 63,
      "start": 30.1526,
      "duration": 0.0161,
      "velocity": 101,
      "chip": "ym2612"
    },
    {
      "channel": 3,
      "note": 66,
      "start": 30.1537,
      "duration": 0.0161,
      "velocity": 101,
      "chip": "ym2612"
    },
    {
      "channel": 1,
      "note": 71,
      "start": 30.156,
      "duration": 0.0161,
      "velocity": 101,
      "chip": "ym2612"
    },
    {
      "channel": 0,
      "note": 40,
      "start": 30.1675,
      "duration": 0.0161,
      "velocity": 115,
      "chip": "ym2612"
    },
    {
      "channel": 4,
      "note": 63,
      "start": 30.1687,
      "duration": 0.0161,
      "velocity": 101,
      "chip": "ym2612"
    },
    {
      "channel": 3,
      "note": 66,
      "start": 30.1698,
      "duration": 0.0161,
      "velocity": 101,
      "chip": "ym2612"
    },
    {
      "channel": 1,
      "note": 71,
      "start": 30.1721,
      "duration": 0.0161,
      "velocity": 101,
      "chip": "ym2612"
    },
    {
      "channel": 0,
      "note": 40,
      "start": 30.1836,
      "duration": 0.0161,
      "velocity": 115,
      "chip": "ym2612"
    },
    {
      "channel": 4,
      "note": 63,
      "start": 30.1848,
      "duration": 0.0161,
      "velocity": 101,
      "chip": "ym2612"
    },
    {
      "channel": 3,
      "note": 66,
      "start": 30.1859,
      "duration": 0.0162,
      "velocity": 101,
      "chip": "ym2612"
    },
    {
      "channel": 1,
      "note": 71,
      "start": 30.1882,
      "duration": 0.0161,
      "velocity": 101,
      "chip": "ym2612"
    },
    {
      "channel": 0,
      "note": 41,
      "start": 30.1997,
      "duration": 0.0161,
      "velocity": 115,
      "chip": "ym2612"
    },
    {
      "channel": 4,
      "note": 63,
      "start": 30.2009,
      "duration": 0.0161,
      "velocity": 101,
      "chip": "ym2612"
    },
    {
      "channel": 3,
      "note": 66,
      "start": 30.2021,
      "duration": 0.0161,
      "velocity": 101,
      "chip": "ym2612"
    },
    {
      "channel": 1,
      "note": 71,
      "start": 30.2043,
      "duration": 0.0161,
      "velocity": 101,
      "chip": "ym2612"
    },
    {
      "channel": 0,
      "note": 41,
      "start": 30.2158,
      "duration": 0.0161,
      "velocity": 115,
      "chip": "ym2612"
    },
    {
      "channel": 4,
      "note": 63,
      "start": 30.217,
      "duration": 0.0161,
      "velocity": 101,
      "chip": "ym2612"
    },
    {
      "channel": 3,
      "note": 66,
      "start": 30.2181,
      "duration": 0.0161,
      "velocity": 101,
      "chip": "ym2612"
    },
    {
      "channel": 1,
      "note": 71,
      "start": 30.2204,
      "duration": 0.0161,
      "velocity": 101,
      "chip": "ym2612"
    },
    {
      "channel": 0,
      "note": 42,
      "start": 30.232,
      "duration": 0.0178,
      "velocity": 124,
      "chip": "ym2612"
    },
    {
      "channel": 4,
      "note": 63,
      "start": 30.2331,
      "duration": 0.0179,
      "velocity": 101,
      "chip": "ym2612"
    },
    {
      "channel": 3,
      "note": 66,
      "start": 30.2342,
      "duration": 0.0179,
      "velocity": 101,
      "chip": "ym2612"
    },
    {
      "channel": 1,
      "note": 71,
      "start": 30.2365,
      "duration": 0.0181,
      "velocity": 101,
      "chip": "ym2612"
    },
    {
      "channel": 0,
      "note": 84,
      "start": 30.2498,
      "duration": 0.0144,
      "velocity": 124,
      "chip": "ym2612"
    },
    {
      "channel": 4,
      "note": 63,
      "start": 30.251,
      "duration": 0.0144,
      "velocity": 101,
      "chip": "ym2612"
    },
    {
      "channel": 3,
      "note": 66,
      "start": 30.2521,
      "duration": 0.0144,
      "velocity": 101,
      "chip": "ym2612"
    },
    {
      "channel": 2,
      "note": 71,
      "start": 30.2535,
      "duration": 0.0142,
      "velocity": 100,
      "chip": "ym2612"
    },
    {
      "channel": 1,
      "note": 71,
      "start": 30.2547,
      "duration": 0.0142,
      "velocity": 101,
      "chip": "ym2612"
    },
    {
      "channel": 0,
      "note": 82,
      "start": 30.2642,
      "duration": 0.016,
      "velocity": 124,
      "chip": "ym2612"
    },
    {
      "channel": 4,
      "note": 63,
      "start": 30.2654,
      "duration": 0.016,
      "velocity": 101,
      "chip": "ym2612"
    },
    {
      "channel": 3,
      "note": 66,
      "start": 30.2665,
      "duration": 0.016,
      "velocity": 101,
      "chip": "ym2612"
    },
    {
      "channel": 2,
      "note": 71,
      "start": 30.2677,
      "duration": 0.016,
      "velocity": 100,
      "chip": "ym2612"
    },
    {
      "channel": 1,
      "note": 71,
      "start": 30.2688,
      "duration": 0.016,
      "velocity": 101,
      "chip": "ym2612"
    },
    {
      "channel": 0,
      "note": 80,
      "start": 30.2802,
      "duration": 0.0161,
      "velocity": 124,
      "chip": "ym2612"
    },
    {
      "channel": 4,
      "note": 63,
      "start": 30.2814,
      "duration": 0.0161,
      "velocity": 101,
      "chip": "ym2612"
    },
    {
      "channel": 3,
      "note": 66,
      "start": 30.2825,
      "duration": 0.0161,
      "velocity": 101,
      "chip": "ym2612"
    },
    {
      "channel": 2,
      "note": 71,
      "start": 30.2837,
      "duration": 0.0161,
      "velocity": 100,
      "chip": "ym2612"
    },
    {
      "channel": 1,
      "note": 71,
      "start": 30.2848,
      "duration": 0.0161,
      "velocity": 101,
      "chip": "ym2612"
    },
    {
      "channel": 0,
      "note": 77,
      "start": 30.2963,
      "duration": 0.0162,
      "velocity": 124,
      "chip": "ym2612"
    },
    {
      "channel": 4,
      "note": 63,
      "start": 30.2975,
      "duration": 0.0161,
      "velocity": 101,
      "chip": "ym2612"
    },
    {
      "channel": 3,
      "note": 66,
      "start": 30.2986,
      "duration": 0.0162,
      "velocity": 101,
      "chip": "ym2612"
    },
    {
      "channel": 2,
      "note": 71,
      "start": 30.2998,
      "duration": 0.0161,
      "velocity": 100,
      "chip": "ym2612"
    },
    {
      "channel": 1,
      "note": 71,
      "start": 30.3009,
      "duration": 0.0162,
      "velocity": 101,
      "chip": "ym2612"
    },
    {
      "channel": 0,
      "note": 75,
      "start": 30.3125,
      "duration": 0.0163,
      "velocity": 124,
      "chip": "ym2612"
    },
    {
      "channel": 4,
      "note": 63,
      "start": 30.3136,
      "duration": 0.0163,
      "velocity": 101,
      "chip": "ym2612"
    },
    {
      "channel": 3,
      "note": 66,
      "start": 30.3148,
      "duration": 0.0163,
      "velocity": 101,
      "chip": "ym2612"
    },
    {
      "channel": 2,
      "note": 71,
      "start": 30.3159,
      "duration": 0.0163,
      "velocity": 100,
      "chip": "ym2612"
    },
    {
      "channel": 1,
      "note": 71,
      "start": 30.3171,
      "duration": 0.0163,
      "velocity": 101,
      "chip": "ym2612"
    },
    {
      "channel": 0,
      "note": 72,
      "start": 30.3288,
      "duration": 0.0159,
      "velocity": 124,
      "chip": "ym2612"
    },
    {
      "channel": 4,
      "note": 63,
      "start": 30.3299,
      "duration": 0.0159,
      "velocity": 101,
      "chip": "ym2612"
    },
    {
      "channel": 3,
      "note": 66,
      "start": 30.3311,
      "duration": 0.0159,
      "velocity": 101,
      "chip": "ym2612"
    },
    {
      "channel": 2,
      "note": 71,
      "start": 30.3322,
      "duration": 0.0159,
      "velocity": 100,
      "chip": "ym2612"
    },
    {
      "channel": 1,
      "note": 71,
      "start": 30.3334,
      "duration": 0.0159,
      "velocity": 101,
      "chip": "ym2612"
    },
    {
      "channel": 0,
      "note": 70,
      "start": 30.3446,
      "duration": 0.0179,
      "velocity": 124,
      "chip": "ym2612"
    },
    {
      "channel": 4,
      "note": 63,
      "start": 30.3458,
      "duration": 0.0178,
      "velocity": 101,
      "chip": "ym2612"
    },
    {
      "channel": 3,
      "note": 66,
      "start": 30.347,
      "duration": 0.0178,
      "velocity": 101,
      "chip": "ym2612"
    },
    {
      "channel": 2,
      "note": 71,
      "start": 30.348,
      "duration": 0.0179,
      "velocity": 100,
      "chip": "ym2612"
    },
    {
      "channel": 1,
      "note": 71,
      "start": 30.3492,
      "duration": 0.0179,
      "velocity": 101,
      "chip": "ym2612"
    },
    {
      "channel": 0,
      "note": 68,
      "start": 30.3625,
      "duration": 0.0167,
      "velocity": 124,
      "chip": "ym2612"
    },
    {
      "channel": 4,
      "note": 63,
      "start": 30.3636,
      "duration": 0.0167,
      "velocity": 101,
      "chip": "ym2612"
    },
    {
      "channel": 3,
      "note": 66,
      "start": 30.3648,
      "duration": 0.0167,
      "velocity": 101,
      "chip": "ym2612"
    },
    {
      "channel": 1,
      "note": 71,
      "start": 30.3671,
      "duration": 0.0167,
      "velocity": 101,
      "chip": "ym2612"
    },
    {
      "channel": 0,
      "note": 65,
      "start": 30.3792,
      "duration": 0.0161,
      "velocity": 124,
      "chip": "ym2612"
    },
    {
      "channel": 4,
      "note": 63,
      "start": 30.3803,
      "duration": 0.0162,
      "velocity": 101,
      "chip": "ym2612"
    },
    {
      "channel": 3,
      "note": 66,
      "start": 30.3815,
      "duration": 0.0162,
      "velocity": 101,
      "chip": "ym2612"
    },
    {
      "channel": 1,
      "note": 71,
      "start": 30.3837,
      "duration": 0.0161,
      "velocity": 101,
      "chip": "ym2612"
    },
    {
      "channel": 0,
      "note": 63,
      "start": 30.3953,
      "duration": 0.0132,
      "velocity": 1,
      "chip": "ym2612"
    },
    {
      "channel": 4,
      "note": 63,
      "start": 30.3965,
      "duration": 0.0132,
      "velocity": 101,
      "chip": "ym2612"
    },
    {
      "channel": 3,
      "note": 66,
      "start": 30.3977,
      "duration": 0.0132,
      "velocity": 101,
      "chip": "ym2612"
    },
    {
      "channel": 1,
      "note": 71,
      "start": 30.3999,
      "duration": 0.0132,
      "velocity": 101,
      "chip": "ym2612"
    },
    {
      "channel": 4,
      "note": 63,
      "start": 30.4097,
      "duration": 0.0178,
      "velocity": 101,
      "chip": "ym2612"
    },
    {
      "channel": 3,
      "note": 66,
      "start": 30.4108,
      "duration": 0.0178,
      "velocity": 101,
      "chip": "ym2612"
    },
    {
      "channel": 1,
      "note": 71,
      "start": 30.4131,
      "duration": 0.0177,
      "velocity": 101,
      "chip": "ym2612"
    },
    {
      "channel": 4,
      "note": 63,
      "start": 30.4274,
      "duration": 0.0133,
      "velocity": 101,
      "chip": "ym2612"
    },
    {
      "channel": 3,
      "note": 66,
      "start": 30.4286,
      "duration": 0.0161,
      "velocity": 101,
      "chip": "ym2612"
    },
    {
      "channel": 1,
      "note": 71,
      "start": 30.4308,
      "duration": 0.0161,
      "velocity": 101,
      "chip": "ym2612"
    },
    {
      "channel": 4,
      "note": 63,
      "start": 30.4407,
      "duration": 0.0161,
      "velocity": 101,
      "chip": "ym2612"
    },
    {
      "channel": 3,
      "note": 66,
      "start": 30.4447,
      "duration": 0.0157,
      "velocity": 101,
      "chip": "ym2612"
    },
    {
      "channel": 1,
      "note": 71,
      "start": 30.4469,
      "duration": 0.0158,
      "velocity": 101,
      "chip": "ym2612"
    },
    {
      "channel": 4,
      "note": 63,
      "start": 30.4568,
      "duration": 0.0199,
      "velocity": 101,
      "chip": "ym2612"
    },
    {
      "channel": 3,
      "note": 66,
      "start": 30.4604,
      "duration": 0.0175,
      "velocity": 101,
      "chip": "ym2612"
    },
    {
      "channel": 1,
      "note": 71,
      "start": 30.4627,
      "duration": 0.0178,
      "velocity": 101,
      "chip": "ym2612"
    },
    {
      "channel": 0,
      "note": 36,
      "start": 30.4755,
      "duration": 0.0141,
      "velocity": 115,
      "chip": "ym2612"
    },
    {
      "channel": 4,
      "note": 63,
      "start": 30.4767,
      "duration": 0.0141,
      "velocity": 101,
      "chip": "ym2612"
    },
    {
      "channel": 3,
      "note": 66,
      "start": 30.4779,
      "duration": 0.0168,
      "velocity": 101,
      "chip": "ym2612"
    },
    {
      "channel": 2,
      "note": 59,
      "start": 30.4793,
      "duration": 0.0166,
      "velocity": 100,
      "chip": "ym2612"
    },
    {
      "channel": 1,
      "note": 71,
      "start": 30.4804,
      "duration": 0.0165,
      "velocity": 101,
      "chip": "ym2612"
    },
    {
      "channel": 0,
      "note": 36,
      "start": 30.4896,
      "duration": 0.016,
      "velocity": 115,
      "chip": "ym2612"
    },
    {
      "channel": 4,
      "note": 63,
      "start": 30.4908,
      "duration": 0.016,
      "velocity": 101,
      "chip": "ym2612"
    },
    {
      "channel": 3,
      "note": 66,
      "start": 30.4947,
      "duration": 0.016,
      "velocity": 101,
      "chip": "ym2612"
    },
    {
      "channel": 2,
      "note": 59,
      "start": 30.4958,
      "duration": 0.016,
      "velocity": 100,
      "chip": "ym2612"
    },
    {
      "channel": 1,
      "note": 71,
      "start": 30.497,
      "duration": 0.016,
      "velocity": 101,
      "chip": "ym2612"
    },
    {
      "channel": 0,
      "note": 37,
      "start": 30.5056,
      "duration": 0.0161,
      "velocity": 115,
      "chip": "ym2612"
    },
    {
      "channel": 4,
      "note": 63,
      "start": 30.5068,
      "duration": 0.0161,
      "velocity": 101,
      "chip": "ym2612"
    },
    {
      "channel": 3,
      "note": 66,
      "start": 30.5107,
      "duration": 0.0134,
      "velocity": 101,
      "chip": "ym2612"
    },
    {
      "channel": 2,
      "note": 59,
      "start": 30.5119,
      "duration": 0.0157,
      "velocity": 100,
      "chip": "ym2612"
    },
    {
      "channel": 1,
      "note": 71,
      "start": 30.513,
      "duration": 0.0157,
      "velocity": 101,
      "chip": "ym2612"
    },
    {
      "channel": 0,
      "note": 37,
      "start": 30.5218,
      "duration": 0.0161,
      "velocity": 115,
      "chip": "ym2612"
    },
    {
      "channel": 4,
      "note": 63,
      "start": 30.5229,
      "duration": 0.0161,
      "velocity": 101,
      "chip": "ym2612"
    },
    {
      "channel": 3,
      "note": 66,
      "start": 30.5241,
      "duration": 0.0161,
      "velocity": 101,
      "chip": "ym2612"
    },
    {
      "channel": 2,
      "note": 59,
      "start": 30.5276,
      "duration": 0.0141,
      "velocity": 100,
      "chip": "ym2612"
    },
    {
      "channel": 1,
      "note": 71,
      "start": 30.5287,
      "duration": 0.0141,
      "velocity": 101,
      "chip": "ym2612"
    },
    {
      "channel": 0,
      "note": 38,
      "start": 30.5379,
      "duration": 0.0161,
      "velocity": 115,
      "chip": "ym2612"
    },
    {
      "channel": 4,
      "note": 63,
      "start": 30.539,
      "duration": 0.0161,
      "velocity": 101,
      "chip": "ym2612"
    },
    {
      "channel": 3,
      "note": 66,
      "start": 30.5402,
      "duration": 0.0161,
      "velocity": 101,
      "chip": "ym2612"
    },
    {
      "channel": 2,
      "note": 59,
      "start": 30.5416,
      "duration": 0.0158,
      "velocity": 100,
      "chip": "ym2612"
    },
    {
      "channel": 1,
      "note": 71,
      "start": 30.5428,
      "duration": 0.0185,
      "velocity": 101,
      "chip": "ym2612"
    },
    {
      "channel": 0,
      "note": 38,
      "start": 30.554,
      "duration": 0.0161,
      "velocity": 115,
      "chip": "ym2612"
    },
    {
      "channel": 4,
      "note": 63,
      "start": 30.5551,
      "duration": 0.0161,
      "velocity": 101,
      "chip": "ym2612"
    },
    {
      "channel": 3,
      "note": 66,
      "start": 30.5563,
      "duration": 0.0161,
      "velocity": 101,
      "chip": "ym2612"
    },
    {
      "channel": 2,
      "note": 59,
      "start": 30.5574,
      "duration": 0.0161,
      "velocity": 100,
      "chip": "ym2612"
    },
    {
      "channel": 1,
      "note": 71,
      "start": 30.5613,
      "duration": 0.0161,
      "velocity": 101,
      "chip": "ym2612"
    },
    {
      "channel": 0,
      "note": 39,
      "start": 30.5701,
      "duration": 0.0161,
      "velocity": 115,
      "chip": "ym2612"
    },
    {
      "channel": 4,
      "note": 63,
      "start": 30.5712,
      "duration": 0.0161,
      "velocity": 101,
      "chip": "ym2612"
    },
    {
      "channel": 3,
      "note": 66,
      "start": 30.5724,
      "duration": 0.0161,
      "velocity": 101,
      "chip": "ym2612"
    },
    {
      "channel": 2,
      "note": 59,
      "start": 30.5735,
      "duration": 0.0161,
      "velocity": 100,
      "chip": "ym2612"
    },
    {
      "channel": 1,
      "note": 71,
      "start": 30.5774,
      "duration": 0.0134,
      "velocity": 101,
      "chip": "ym2612"
    },
    {
      "channel": 0,
      "note": 39,
      "start": 30.5861,
      "duration": 0.0161,
      "velocity": 115,
      "chip": "ym2612"
    },
    {
      "channel": 4,
      "note": 63,
      "start": 30.5873,
      "duration": 0.0161,
      "velocity": 101,
      "chip": "ym2612"
    },
    {
      "channel": 3,
      "note": 66,
      "start": 30.5884,
      "duration": 0.0161,
      "velocity": 101,
      "chip": "ym2612"
    },
    {
      "channel": 1,
      "note": 71,
      "start": 30.5907,
      "duration": 0.0161,
      "velocity": 101,
      "chip": "ym2612"
    },
    {
      "channel": 0,
      "note": 40,
      "start": 30.6022,
      "duration": 0.0161,
      "velocity": 115,
      "chip": "ym2612"
    },
    {
      "channel": 4,
      "note": 63,
      "start": 30.6034,
      "duration": 0.0161,
      "velocity": 101,
      "chip": "ym2612"
    },
    {
      "channel": 3,
      "note": 66,
      "start": 30.6045,
      "duration": 0.0161,
      "velocity": 101,
      "chip": "ym2612"
    },
    {
      "channel": 1,
      "note": 71,
      "start": 30.6068,
      "duration": 0.0161,
      "velocity": 101,
      "chip": "ym2612"
    },
    {
      "channel": 0,
      "note": 40,
      "start": 30.6183,
      "duration": 0.0161,
      "velocity": 115,
      "chip": "ym2612"
    },
    {
      "channel": 4,
      "note": 63,
      "start": 30.6195,
      "duration": 0.0162,
      "velocity": 101,
      "chip": "ym2612"
    },
    {
      "channel": 3,
      "note": 66,
      "start": 30.6206,
      "duration": 0.0161,
      "velocity": 101,
      "chip": "ym2612"
    },
    {
      "channel": 1,
      "note": 71,
      "start": 30.6229,
      "duration": 0.0161,
      "velocity": 101,
      "chip": "ym2612"
    },
    {
      "channel": 0,
      "note": 40,
      "start": 30.6344,
      "duration": 0.0161,
      "velocity": 115,
      "chip": "ym2612"
    },
    {
      "channel": 4,
      "note": 63,
      "start": 30.6356,
      "duration": 0.0161,
      "velocity": 101,
      "chip": "ym2612"
    },
    {
      "channel": 3,
      "note": 66,
      "start": 30.6368,
      "duration": 0.0161,
      "velocity": 101,
      "chip": "ym2612"
    },
    {
      "channel": 1,
      "note": 71,
      "start": 30.639,
      "duration": 0.0161,
      "velocity": 101,
      "chip": "ym2612"
    },
    {
      "channel": 0,
      "note": 41,
      "start": 30.6505,
      "duration": 0.0161,
      "velocity": 115,
      "chip": "ym2612"
    },
    {
      "channel": 4,
      "note": 63,
      "start": 30.6517,
      "duration": 0.0161,
      "velocity": 101,
      "chip": "ym2612"
    },
    {
      "channel": 3,
      "note": 66,
      "start": 30.6529,
      "duration": 0.0161,
      "velocity": 101,
      "chip": "ym2612"
    },
    {
      "channel": 1,
      "note": 71,
      "start": 30.6551,
      "duration": 0.0162,
      "velocity": 101,
      "chip": "ym2612"
    },
    {
      "channel": 0,
      "note": 41,
      "start": 30.6666,
      "duration": 0.0162,
      "velocity": 115,
      "chip": "ym2612"
    },
    {
      "channel": 4,
      "note": 63,
      "start": 30.6678,
      "duration": 0.0161,
      "velocity": 101,
      "chip": "ym2612"
    },
    {
      "channel": 3,
      "note": 66,
      "start": 30.669,
      "duration": 0.0161,
      "velocity": 101,
      "chip": "ym2612"
    },
    {
      "channel": 1,
      "note": 71,
      "start": 30.6713,
      "duration": 0.0161,
      "velocity": 101,
      "chip": "ym2612"
    },
    {
      "channel": 0,
      "note": 42,
      "start": 30.6828,
      "duration": 0.0178,
      "velocity": 115,
      "chip": "ym2612"
    },
    {
      "channel": 4,
      "note": 63,
      "start": 30.6839,
      "duration": 0.0181,
      "velocity": 101,
      "chip": "ym2612"
    },
    {
      "channel": 3,
      "note": 66,
      "start": 30.6851,
      "duration": 0.0184,
      "velocity": 101,
      "chip": "ym2612"
    },
    {
      "channel": 1,
      "note": 71,
      "start": 30.6874,
      "duration": 0.0189,
      "velocity": 101,
      "chip": "ym2612"
    },
    {
      "channel": 0,
      "note": 36,
      "start": 30.7007,
      "duration": 0.0144,
      "velocity": 115,
      "chip": "ym2612"
    },
    {
      "channel": 4,
      "note": 56,
      "start": 30.7021,
      "duration": 0.0141,
      "velocity": 101,
      "chip": "ym2612"
    },
    {
      "channel": 3,
      "note": 59,
      "start": 30.7035,
      "duration": 0.0139,
      "velocity": 101,
      "chip": "ym2612"
    },
    {
      "channel": 2,
      "note": 61,
      "start": 30.7049,
      "duration": 0.0137,
      "velocity": 100,
      "chip": "ym2612"
    },
    {
      "channel": 1,
      "note": 64,
      "start": 30.7063,
      "duration": 0.0135,
      "velocity": 101,
      "chip": "ym2612"
    },
    {
      "channel": 0,
      "note": 36,
      "start": 30.715,
      "duration": 0.016,
      "velocity": 115,
      "chip": "ym2612"
    },
    {
      "channel": 4,
      "note": 56,
      "start": 30.7162,
      "duration": 0.016,
      "velocity": 101,
      "chip": "ym2612"
    },
    {
      "channel": 3,
      "note": 59,
      "start": 30.7175,
      "duration": 0.0159,
      "velocity": 101,
      "chip": "ym2612"
    },
    {
      "channel": 2,
      "note": 61,
      "start": 30.7186,
      "duration": 0.0159,
      "velocity": 100,
      "chip": "ym2612"
    },
    {
      "channel": 1,
      "note": 64,
      "start": 30.7198,
      "duration": 0.0159,
      "velocity": 101,
      "chip": "ym2612"
    },
    {
      "channel": 0,
      "note": 37,
      "start": 30.7311,
      "duration": 0.0161,
      "velocity": 115,
      "chip": "ym2612"
    },
    {
      "channel": 4,
      "note": 56,
      "start": 30.7322,
      "duration": 0.0161,
      "velocity": 101,
      "chip": "ym2612"
    },
    {
      "channel": 3,
      "note": 59,
      "start": 30.7334,
      "duration": 0.0161,
      "velocity": 101,
      "chip": "ym2612"
    },
    {
      "channel": 2,
      "note": 61,
      "start": 30.7345,
      "duration": 0.0161,
      "velocity": 100,
      "chip": "ym2612"
    },
    {
      "channel": 1,
      "note": 64,
      "start": 30.7356,
      "duration": 0.0161,
      "velocity": 101,
      "chip": "ym2612"
    },
    {
      "channel": 0,
      "note": 37,
      "start": 30.7472,
      "duration": 0.0161,
      "velocity": 115,
      "chip": "ym2612"
    },
    {
      "channel": 4,
      "note": 56,
      "start": 30.7483,
      "duration": 0.0161,
      "velocity": 101,
      "chip": "ym2612"
    },
    {
      "channel": 3,
      "note": 59,
      "start": 30.7495,
      "duration": 0.0161,
      "velocity": 101,
      "chip": "ym2612"
    },
    {
      "channel": 2,
      "note": 61,
      "start": 30.7506,
      "duration": 0.0161,
      "velocity": 100,
      "chip": "ym2612"
    },
    {
      "channel": 1,
      "note": 64,
      "start": 30.7517,
      "duration": 0.0161,
      "velocity": 101,
      "chip": "ym2612"
    },
    {
      "channel": 0,
      "note": 38,
      "start": 30.7632,
      "duration": 0.0161,
      "velocity": 115,
      "chip": "ym2612"
    },
    {
      "channel": 4,
      "note": 56,
      "start": 30.7644,
      "duration": 0.0162,
      "velocity": 101,
      "chip": "ym2612"
    },
    {
      "channel": 3,
      "note": 59,
      "start": 30.7655,
      "duration": 0.0162,
      "velocity": 101,
      "chip": "ym2612"
    },
    {
      "channel": 2,
      "note": 61,
      "start": 30.7667,
      "duration": 0.0161,
      "velocity": 100,
      "chip": "ym2612"
    },
    {
      "channel": 1,
      "note": 64,
      "start": 30.7678,
      "duration": 0.0161,
      "velocity": 101,
      "chip": "ym2612"
    },
    {
      "channel": 0,
      "note": 38,
      "start": 30.7793,
      "duration": 0.0162,
      "velocity": 115,
      "chip": "ym2612"
    },
    {
      "channel": 4,
      "note": 56,
      "start": 30.7806,
      "duration": 0.0161,
      "velocity": 101,
      "chip": "ym2612"
    },
    {
      "channel": 3,
      "note": 59,
      "start": 30.7817,
      "duration": 0.0161,
      "velocity": 101,
      "chip": "ym2612"
    },
    {
      "channel": 2,
      "note": 61,
      "start": 30.7828,
      "duration": 0.0161,
      "velocity": 100,
      "chip": "ym2612"
    },
    {
      "channel": 1,
      "note": 64,
      "start": 30.7839,
      "duration": 0.0162,
      "velocity": 101,
      "chip": "ym2612"
    },
    {
      "channel": 0,
      "note": 39,
      "start": 30.7955,
      "duration": 0.0161,
      "velocity": 115,
      "chip": "ym2612"
    },
    {
      "channel": 4,
      "note": 56,
      "start": 30.7966,
      "duration": 0.0161,
      "velocity": 101,
      "chip": "ym2612"
    },
    {
      "channel": 3,
      "note": 59,
      "start": 30.7978,
      "duration": 0.0161,
      "velocity": 101,
      "chip": "ym2612"
    },
    {
      "channel": 2,
      "note": 61,
      "start": 30.7989,
      "duration": 0.0161,
      "velocity": 100,
      "chip": "ym2612"
    },
    {
      "channel": 1,
      "note": 64,
      "start": 30.8001,
      "duration": 0.0161,
      "velocity": 101,
      "chip": "ym2612"
    },
    {
      "channel": 0,
      "note": 39,
      "start": 30.8116,
      "duration": 0.0176,
      "velocity": 115,
      "chip": "ym2612"
    },
    {
      "channel": 4,
      "note": 56,
      "start": 30.8127,
      "duration": 0.0176,
      "velocity": 101,
      "chip": "ym2612"
    },
    {
      "channel": 3,
      "note": 59,
      "start": 30.8139,
      "duration": 0.0176,
      "velocity": 101,
      "chip": "ym2612"
    },
    {
      "channel": 1,
      "note": 64,
      "start": 30.8162,
      "duration": 0.0176,
      "velocity": 101,
      "chip": "ym2612"
    },
    {
      "channel": 0,
      "note": 40,
      "start": 30.8292,
      "duration": 0.0167,
      "velocity": 115,
      "chip": "ym2612"
    },
    {
      "channel": 4,
      "note": 56,
      "start": 30.8303,
      "duration": 0.0167,
      "velocity": 101,
      "chip": "ym2612"
    },
    {
      "channel": 3,
      "note": 59,
      "start": 30.8315,
      "duration": 0.0167,
      "velocity": 101,
      "chip": "ym2612"
    },
    {
      "channel": 1,
      "note": 64,
      "start": 30.8337,
      "duration": 0.0167,
      "velocity": 101,
      "chip": "ym2612"
    },
    {
      "channel": 0,
      "note": 40,
      "start": 30.8458,
      "duration": 0.0163,
      "velocity": 115,
      "chip": "ym2612"
    },
    {
      "channel": 4,
      "note": 56,
      "start": 30.847,
      "duration": 0.0163,
      "velocity": 101,
      "chip": "ym2612"
    },
    {
      "channel": 3,
      "note": 59,
      "start": 30.8481,
      "duration": 0.0163,
      "velocity": 101,
      "chip": "ym2612"
    },
    {
      "channel": 1,
      "note": 64,
      "start": 30.8504,
      "duration": 0.0163,
      "velocity": 101,
      "chip": "ym2612"
    },
    {
      "channel": 0,
      "note": 40,
      "start": 30.8621,
      "duration": 0.0142,
      "velocity": 115,
      "chip": "ym2612"
    },
    {
      "channel": 4,
      "note": 56,
      "start": 30.8632,
      "duration": 0.0142,
      "velocity": 101,
      "chip": "ym2612"
    },
    {
      "channel": 3,
      "note": 59,
      "start": 30.8644,
      "duration": 0.0142,
      "velocity": 101,
      "chip": "ym2612"
    },
    {
      "channel": 1,
      "note": 64,
      "start": 30.8667,
      "duration": 0.0142,
      "velocity": 101,
      "chip": "ym2612"
    },
    {
      "channel": 0,
      "note": 41,
      "start": 30.8763,
      "duration": 0.0185,
      "velocity": 115,
      "chip": "ym2612"
    },
    {
      "channel": 4,
      "note": 56,
      "start": 30.8774,
      "duration": 0.0186,
      "velocity": 101,
      "chip": "ym2612"
    },
    {
      "channel": 3,
      "note": 59,
      "start": 30.8786,
      "duration": 0.0186,
      "velocity": 101,
      "chip": "ym2612"
    },
    {
      "channel": 1,
      "note": 64,
      "start": 30.8809,
      "duration": 0.0185,
      "velocity": 101,
      "chip": "ym2612"
    },
    {
      "channel": 0,
      "note": 41,
      "start": 30.8948,
      "duration": 0.0161,
      "velocity": 115,
      "chip": "ym2612"
    },
    {
      "channel": 4,
      "note": 56,
      "start": 30.896,
      "duration": 0.0161,
      "velocity": 101,
      "chip": "ym2612"
    },
    {
      "channel": 3,
      "note": 59,
      "start": 30.8972,
      "duration": 0.0161,
      "velocity": 101,
      "chip": "ym2612"
    },
    {
      "channel": 1,
      "note": 64,
      "start": 30.8994,
      "duration": 0.0161,
      "velocity": 101,
      "chip": "ym2612"
    },
    {
      "channel": 0,
      "note": 42,
      "start": 30.9109,
      "duration": 0.0134,
      "velocity": 115,
      "chip": "ym2612"
    },
    {
      "channel": 4,
      "note": 56,
      "start": 30.9121,
      "duration": 0.0157,
      "velocity": 101,
      "chip": "ym2612"
    },
    {
      "channel": 3,
      "note": 59,
      "start": 30.9132,
      "duration": 0.0157,
      "velocity": 101,
      "chip": "ym2612"
    },
    {
      "channel": 1,
      "note": 64,
      "start": 30.9155,
      "duration": 0.016,
      "velocity": 101,
      "chip": "ym2612"
    },
    {
      "channel": 0,
      "note": 42,
      "start": 30.9243,
      "duration": 0.0161,
      "velocity": 115,
      "chip": "ym2612"
    },
    {
      "channel": 4,
      "note": 56,
      "start": 30.9278,
      "duration": 0.0141,
      "velocity": 101,
      "chip": "ym2612"
    },
    {
      "channel": 3,
      "note": 59,
      "start": 30.929,
      "duration": 0.0141,
      "velocity": 101,
      "chip": "ym2612"
    },
    {
      "channel": 2,
      "note": 61,
      "start": 30.9304,
      "duration": 0.0138,
      "velocity": 100,
      "chip": "ym2612"
    },
    {
      "channel": 1,
      "note": 64,
      "start": 30.9315,
      "duration": 0.0138,
      "velocity": 101,
      "chip": "ym2612"
    },
    {
      "channel": 0,
      "note": 43,
      "start": 30.9404,
      "duration": 0.0161,
      "velocity": 115,
      "chip": "ym2612"
    },
    {
      "channel": 4,
      "note": 56,
      "start": 30.9419,
      "duration": 0.0158,
      "velocity": 101,
      "chip": "ym2612"
    },
    {
      "channel": 3,
      "note": 59,
      "start": 30.943,
      "duration": 0.0185,
      "velocity": 101,
      "chip": "ym2612"
    },
    {
      "channel": 2,
      "note": 61,
      "start": 30.9442,
      "duration": 0.0185,
      "velocity": 100,
      "chip": "ym2612"
    },
    {
      "channel": 1,
      "note": 64,
      "start": 30.9453,
      "duration": 0.0185,
      "velocity": 101,
      "chip": "ym2612"
    },
    {
      "channel": 0,
      "note": 43,
      "start": 30.9564,
      "duration": 0.0162,
      "velocity": 115,
      "chip": "ym2612"
    },
    {
      "channel": 4,
      "note": 56,
      "start": 30.9577,
      "duration": 0.0161,
      "velocity": 101,
      "chip": "ym2612"
    },
    {
      "channel": 3,
      "note": 59,
      "start": 30.9615,
      "duration": 0.0161,
      "velocity": 101,
      "chip": "ym2612"
    },
    {
      "channel": 2,
      "note": 61,
      "start": 30.9627,
      "duration": 0.0161,
      "velocity": 100,
      "chip": "ym2612"
    },
    {
      "channel": 1,
      "note": 64,
      "start": 30.9638,
      "duration": 0.0161,
      "velocity": 101,
      "chip": "ym2612"
    },
    {
      "channel": 0,
      "note": 44,
      "start": 30.9726,
      "duration": 0.0161,
      "velocity": 115,
      "chip": "ym2612"
    },
    {
      "channel": 4,
      "note": 56,
      "start": 30.9737,
      "duration": 0.0161,
      "velocity": 101,
      "chip": "ym2612"
    },
    {
      "channel": 3,
      "note": 59,
      "start": 30.9776,
      "duration": 0.0134,
      "velocity": 101,
      "chip": "ym2612"
    },
    {
      "channel": 2,
      "note": 61,
      "start": 30.9788,
      "duration": 0.0157,
      "velocity": 100,
      "chip": "ym2612"
    },
    {
      "channel": 1,
      "note": 64,
      "start": 30.9799,
      "duration": 0.0157,
      "velocity": 101,
      "chip": "ym2612"
    },
    {
      "channel": 0,
      "note": 44,
      "start": 30.9887,
      "duration": 0.0161,
      "velocity": 115,
      "chip": "ym2612"
    },
    {
      "channel": 4,
      "note": 56,
      "start": 30.9898,
      "duration": 0.0161,
      "velocity": 101,
      "chip": "ym2612"
    },
    {
      "channel": 3,
      "note": 59,
      "start": 30.991,
      "duration": 0.0161,
      "velocity": 101,
      "chip": "ym2612"
    },
    {
      "channel": 2,
      "note": 61,
      "start": 30.9945,
      "duration": 0.0141,
      "velocity": 100,
      "chip": "ym2612"
    },
    {
      "channel": 1,
      "note": 64,
      "start": 30.9956,
      "duration": 0.0141,
      "velocity": 101,
      "chip": "ym2612"
    },
    {
      "channel": 0,
      "note": 44,
      "start": 31.0048,
      "duration": 0.0161,
      "velocity": 115,
      "chip": "ym2612"
    },
    {
      "channel": 4,
      "note": 56,
      "start": 31.0059,
      "duration": 0.0161,
      "velocity": 101,
      "chip": "ym2612"
    },
    {
      "channel": 3,
      "note": 59,
      "start": 31.0071,
      "duration": 0.0161,
      "velocity": 101,
      "chip": "ym2612"
    },
    {
      "channel": 2,
      "note": 61,
      "start": 31.0085,
      "duration": 0.0158,
      "velocity": 100,
      "chip": "ym2612"
    },
    {
      "channel": 1,
      "note": 64,
      "start": 31.0097,
      "duration": 0.0185,
      "velocity": 101,
      "chip": "ym2612"
    },
    {
      "channel": 0,
      "note": 45,
      "start": 31.0209,
      "duration": 0.0161,
      "velocity": 115,
      "chip": "ym2612"
    },
    {
      "channel": 4,
      "note": 56,
      "start": 31.022,
      "duration": 0.0161,
      "velocity": 101,
      "chip": "ym2612"
    },
    {
      "channel": 3,
      "note": 59,
      "start": 31.0232,
      "duration": 0.0161,
      "velocity": 101,
      "chip": "ym2612"
    },
    {
      "channel": 2,
      "note": 61,
      "start": 31.0243,
      "duration": 0.0161,
      "velocity": 100,
      "chip": "ym2612"
    },
    {
      "channel": 1,
      "note": 64,
      "start": 31.0282,
      "duration": 0.0161,
      "velocity": 101,
      "chip": "ym2612"
    },
    {
      "channel": 0,
      "note": 45,
      "start": 31.037,
      "duration": 0.0161,
      "velocity": 115,
      "chip": "ym2612"
    },
    {
      "channel": 4,
      "note": 56,
      "start": 31.0381,
      "duration": 0.0161,
      "velocity": 101,
      "chip": "ym2612"
    },
    {
      "channel": 3,
      "note": 59,
      "start": 31.0393,
      "duration": 0.0161,
      "velocity": 101,
      "chip": "ym2612"
    },
    {
      "channel": 1,
      "note": 64,
      "start": 31.0444,
      "duration": 0.0133,
      "velocity": 101,
      "chip": "ym2612"
    },
    {
      "channel": 0,
      "note": 46,
      "start": 31.0531,
      "duration": 0.0161,
      "velocity": 115,
      "chip": "ym2612"
    },
    {
      "channel": 4,
      "note": 56,
      "start": 31.0542,
      "duration": 0.0162,
      "velocity": 101,
      "chip": "ym2612"
    },
    {
      "channel": 3,
      "note": 59,
      "start": 31.0554,
      "duration": 0.0161,
      "velocity": 101,
      "chip": "ym2612"
    },
    {
      "channel": 1,
      "note": 64,
      "start": 31.0577,
      "duration": 0.0161,
      "velocity": 101,
      "chip": "ym2612"
    },
    {
      "channel": 0,
      "note": 46,
      "start": 31.0692,
      "duration": 0.0161,
      "velocity": 115,
      "chip": "ym2612"
    },
    {
      "channel": 4,
      "note": 56,
      "start": 31.0704,
      "duration": 0.0161,
      "velocity": 101,
      "chip": "ym2612"
    },
    {
      "channel": 3,
      "note": 59,
      "start": 31.0715,
      "duration": 0.0161,
      "velocity": 101,
      "chip": "ym2612"
    },
    {
      "channel": 1,
      "note": 64,
      "start": 31.0737,
      "duration": 0.0161,
      "velocity": 101,
      "chip": "ym2612"
    },
    {
      "channel": 0,
      "note": 47,
      "start": 31.0853,
      "duration": 0.0161,
      "velocity": 115,
      "chip": "ym2612"
    },
    {
      "channel": 4,
      "note": 56,
      "start": 31.0865,
      "duration": 0.0161,
      "velocity": 101,
      "chip": "ym2612"
    },
    {
      "channel": 3,
      "note": 59,
      "start": 31.0876,
      "duration": 0.0161,
      "velocity": 101,
      "chip": "ym2612"
    },
    {
      "channel": 1,
      "note": 64,
      "start": 31.0898,
      "duration": 0.0161,
      "velocity": 101,
      "chip": "ym2612"
    },
    {
      "channel": 0,
      "note": 47,
      "start": 31.1014,
      "duration": 0.0161,
      "velocity": 115,
      "chip": "ym2612"
    },
    {
      "channel": 4,
      "note": 56,
      "start": 31.1026,
      "duration": 0.0161,
      "velocity": 101,
      "chip": "ym2612"
    },
    {
      "channel": 3,
      "note": 59,
      "start": 31.1037,
      "duration": 0.0161,
      "velocity": 101,
      "chip": "ym2612"
    },
    {
      "channel": 1,
      "note": 64,
      "start": 31.1059,
      "duration": 0.0161,
      "velocity": 101,
      "chip": "ym2612"
    },
    {
      "channel": 0,
      "note": 47,
      "start": 31.1175,
      "duration": 0.0161,
      "velocity": 115,
      "chip": "ym2612"
    },
    {
      "channel": 4,
      "note": 56,
      "start": 31.1187,
      "duration": 0.0161,
      "velocity": 101,
      "chip": "ym2612"
    },
    {
      "channel": 3,
      "note": 59,
      "start": 31.1198,
      "duration": 0.0161,
      "velocity": 101,
      "chip": "ym2612"
    },
    {
      "channel": 1,
      "note": 64,
      "start": 31.1221,
      "duration": 0.0161,
      "velocity": 101,
      "chip": "ym2612"
    },
    {
      "channel": 0,
      "note": 48,
      "start": 31.1336,
      "duration": 0.0178,
      "velocity": 124,
      "chip": "ym2612"
    },
    {
      "channel": 4,
      "note": 56,
      "start": 31.1348,
      "duration": 0.0179,
      "velocity": 101,
      "chip": "ym2612"
    },
    {
      "channel": 3,
      "note": 59,
      "start": 31.1359,
      "duration": 0.0179,
      "velocity": 101,
      "chip": "ym2612"
    },
    {
      "channel": 1,
      "note": 64,
      "start": 31.1382,
      "duration": 0.0181,
      "velocity": 101,
      "chip": "ym2612"
    },
    {
      "channel": 0,
      "note": 84,
      "start": 31.1515,
      "duration": 0.0144,
      "velocity": 124,
      "chip": "ym2612"
    },
    {
      "channel": 4,
      "note": 56,
      "start": 31.1526,
      "duration": 0.0144,
      "velocity": 101,
      "chip": "ym2612"
    },
    {
      "channel": 3,
      "note": 59,
      "start": 31.1538,
      "duration": 0.0144,
      "velocity": 101,
      "chip": "ym2612"
    },
    {
      "channel": 2,
      "note": 73,
      "start": 31.1552,
      "duration": 0.0142,
      "velocity": 100,
      "chip": "ym2612"
    },
    {
      "channel": 1,
      "note": 64,
      "start": 31.1563,
      "duration": 0.0142,
      "velocity": 101,
      "chip": "ym2612"
    },
    {
      "channel": 0,
      "note": 82,
      "start": 31.1659,
      "duration": 0.016,
      "velocity": 124,
      "chip": "ym2612"
    },
    {
      "channel": 4,
      "note": 56,
      "start": 31.167,
      "duration": 0.016,
      "velocity": 101,
      "chip": "ym2612"
    },
    {
      "channel": 3,
      "note": 59,
      "start": 31.1681,
      "duration": 0.016,
      "velocity": 101,
      "chip": "ym2612"
    },
    {
      "channel": 2,
      "note": 73,
      "start": 31.1694,
      "duration": 0.016,
      "velocity": 100,
      "chip": "ym2612"
    },
    {
      "channel": 1,
      "note": 64,
      "start": 31.1705,
      "duration": 0.016,
      "velocity": 101,
      "chip": "ym2612"
    },
    {
      "channel": 0,
      "note": 80,
      "start": 31.1819,
      "duration": 0.0161,
      "velocity": 124,
      "chip": "ym2612"
    },
    {
      "channel": 4,
      "note": 56,
      "start": 31.183,
      "duration": 0.0162,
      "velocity": 101,
      "chip": "ym2612"
    },
    {
      "channel": 3,
      "note": 59,
      "start": 31.1842,
      "duration": 0.0162,
      "velocity": 101,
      "chip": "ym2612"
    },
    {
      "channel": 2,
      "note": 73,
      "start": 31.1853,
      "duration": 0.0161,
      "velocity": 100,
      "chip": "ym2612"
    },
    {
      "channel": 1,
      "note": 64,
      "start": 31.1865,
      "duration": 0.0161,
      "velocity": 101,
      "chip": "ym2612"
    },
    {
      "channel": 0,
      "note": 77,
      "start": 31.198,
      "duration": 0.0161,
      "velocity": 124,
      "chip": "ym2612"
    },
    {
      "channel": 4,
      "note": 56,
      "start": 31.1992,
      "duration": 0.0161,
      "velocity": 101,
      "chip": "ym2612"
    },
    {
      "channel": 3,
      "note": 59,
      "start": 31.2003,
      "duration": 0.0161,
      "velocity": 101,
      "chip": "ym2612"
    },
    {
      "channel": 2,
      "note": 73,
      "start": 31.2014,
      "duration": 0.0161,
      "velocity": 100,
      "chip": "ym2612"
    },
    {
      "channel": 1,
      "note": 64,
      "start": 31.2026,
      "duration": 0.0161,
      "velocity": 101,
      "chip": "ym2612"
    },
    {
      "channel": 0,
      "note": 75,
      "start": 31.2141,
      "duration": 0.0161,
      "velocity": 124,
      "chip": "ym2612"
    },
    {
      "channel": 4,
      "note": 56,
      "start": 31.2153,
      "duration": 0.0161,
      "velocity": 101,
      "chip": "ym2612"
    },
    {
      "channel": 3,
      "note": 59,
      "start": 31.2164,
      "duration": 0.0161,
      "velocity": 101,
      "chip": "ym2612"
    },
    {
      "channel": 2,
      "note": 73,
      "start": 31.2175,
      "duration": 0.0161,
      "velocity": 100,
      "chip": "ym2612"
    },
    {
      "channel": 1,
      "note": 64,
      "start": 31.2187,
      "duration": 0.0161,
      "velocity": 101,
      "chip": "ym2612"
    },
    {
      "channel": 0,
      "note": 72,
      "start": 31.2302,
      "duration": 0.0161,
      "velocity": 124,
      "chip": "ym2612"
    },
    {
      "channel": 4,
      "note": 56,
      "start": 31.2314,
      "duration": 0.0161,
      "velocity": 101,
      "chip": "ym2612"
    },
    {
      "channel": 3,
      "note": 59,
      "start": 31.2325,
      "duration": 0.0161,
      "velocity": 101,
      "chip": "ym2612"
    },
    {
      "channel": 2,
      "note": 73,
      "start": 31.2336,
      "duration": 0.0161,
      "velocity": 100,
      "chip": "ym2612"
    },
    {
      "channel": 1,
      "note": 64,
      "start": 31.2348,
      "duration": 0.0161,
      "velocity": 101,
      "chip": "ym2612"
    },
    {
      "channel": 0,
      "note": 70,
      "start": 31.2463,
      "duration": 0.0162,
      "velocity": 124,
      "chip": "ym2612"
    },
    {
      "channel": 4,
      "note": 56,
      "start": 31.2475,
      "duration": 0.0161,
      "velocity": 101,
      "chip": "ym2612"
    },
    {
      "channel": 3,
      "note": 59,
      "start": 31.2486,
      "duration": 0.0161,
      "velocity": 101,
      "chip": "ym2612"
    },
    {
      "channel": 2,
      "note": 73,
      "start": 31.2497,
      "duration": 0.0162,
      "velocity": 100,
      "chip": "ym2612"
    },
    {
      "channel": 1,
      "note": 64,
      "start": 31.2508,
      "duration": 0.0162,
      "velocity": 101,
      "chip": "ym2612"
    },
    {
      "channel": 0,
      "note": 68,
      "start": 31.2624,
      "duration": 0.0161,
      "velocity": 124,
      "chip": "ym2612"
    },
    {
      "channel": 4,
      "note": 56,
      "start": 31.2636,
      "duration": 0.0161,
      "velocity": 101,
      "chip": "ym2612"
    },
    {
      "channel": 3,
      "note": 59,
      "start": 31.2647,
      "duration": 0.0161,
      "velocity": 101,
      "chip": "ym2612"
    },
    {
      "channel": 1,
      "note": 64,
      "start": 31.267,
      "duration": 0.0161,
      "velocity": 101,
      "chip": "ym2612"
    },
    {
      "channel": 0,
      "note": 65,
      "start": 31.2785,
      "duration": 0.0173,
      "velocity": 124,
      "chip": "ym2612"
    },
    {
      "channel": 4,
      "note": 56,
      "start": 31.2797,
      "duration": 0.0173,
      "velocity": 101,
      "chip": "ym2612"
    },
    {
      "channel": 3,
      "note": 59,
      "start": 31.2808,
      "duration": 0.0173,
      "velocity": 101,
      "chip": "ym2612"
    },
    {
      "channel": 1,
      "note": 64,
      "start": 31.2831,
      "duration": 0.0173,
      "velocity": 101,
      "chip": "ym2612"
    },
    {
      "channel": 0,
      "note": 63,
      "start": 31.2958,
      "duration": 0.0158,
      "velocity": 1,
      "chip": "ym2612"
    },
    {
      "channel": 4,
      "note": 56,
      "start": 31.297,
      "duration": 0.0159,
      "velocity": 101,
      "chip": "ym2612"
    },
    {
      "channel": 3,
      "note": 59,
      "start": 31.2981,
      "duration": 0.0158,
      "velocity": 101,
      "chip": "ym2612"
    },
    {
      "channel": 1,
      "note": 64,
      "start": 31.3004,
      "duration": 0.0158,
      "velocity": 101,
      "chip": "ym2612"
    },
    {
      "channel": 4,
      "note": 56,
      "start": 31.3128,
      "duration": 0.0155,
      "velocity": 101,
      "chip": "ym2612"
    },
    {
      "channel": 3,
      "note": 59,
      "start": 31.3139,
      "duration": 0.0155,
      "velocity": 101,
      "chip": "ym2612"
    },
    {
      "channel": 1,
      "note": 64,
      "start": 31.3162,
      "duration": 0.0155,
      "velocity": 101,
      "chip": "ym2612"
    },
    {
      "channel": 4,
      "note": 56,
      "start": 31.3283,
      "duration": 0.0145,
      "velocity": 101,
      "chip": "ym2612"
    },
    {
      "channel": 3,
      "note": 59,
      "start": 31.3294,
      "duration": 0.0145,
      "velocity": 101,
      "chip": "ym2612"
    },
    {
      "channel": 1,
      "note": 64,
      "start": 31.3317,
      "duration": 0.0144,
      "velocity": 101,
      "chip": "ym2612"
    },
    {
      "channel": 4,
      "note": 56,
      "start": 31.3428,
      "duration": 0.0185,
      "velocity": 101,
      "chip": "ym2612"
    },
    {
      "channel": 3,
      "note": 59,
      "start": 31.3439,
      "duration": 0.0185,
      "velocity": 101,
      "chip": "ym2612"
    },
    {
      "channel": 1,
      "note": 64,
      "start": 31.3461,
      "duration": 0.0186,
      "velocity": 101,
      "chip": "ym2612"
    },
    {
      "channel": 4,
      "note": 56,
      "start": 31.3613,
      "duration": 0.0198,
      "velocity": 101,
      "chip": "ym2612"
    },
    {
      "channel": 3,
      "note": 59,
      "start": 31.3624,
      "duration": 0.02,
      "velocity": 101,
      "chip": "ym2612"
    },
    {
      "channel": 1,
      "note": 64,
      "start": 31.3647,
      "duration": 0.0205,
      "velocity": 101,
      "chip": "ym2612"
    },
    {
      "channel": 0,
      "note": 36,
      "start": 31.3797,
      "duration": 0.0139,
      "velocity": 115,
      "chip": "ym2612"
    },
    {
      "channel": 4,
      "note": 58,
      "start": 31.3811,
      "duration": 0.0138,
      "velocity": 101,
      "chip": "ym2612"
    },
    {
      "channel": 3,
      "note": 61,
      "start": 31.3825,
      "duration": 0.0136,
      "velocity": 101,
      "chip": "ym2612"
    },
    {
      "channel": 2,
      "note": 61,
      "start": 31.3839,
      "duration": 0.0134,
      "velocity": 100,
      "chip": "ym2612"
    },
    {
      "channel": 1,
      "note": 66,
      "start": 31.3853,
      "duration": 0.0132,
      "velocity": 101,
      "chip": "ym2612"
    },
    {
      "channel": 0,
      "note": 36,
      "start": 31.3936,
      "duration": 0.0137,
      "velocity": 115,
      "chip": "ym2612"
    },
    {
      "channel": 4,
      "note": 58,
      "start": 31.3949,
      "duration": 0.0139,
      "velocity": 101,
      "chip": "ym2612"
    },
    {
      "channel": 3,
      "note": 61,
      "start": 31.3961,
      "duration": 0.0139,
      "velocity": 101,
      "chip": "ym2612"
    },
    {
      "channel": 2,
      "note": 61,
      "start": 31.3972,
      "duration": 0.0139,
      "velocity": 100,
      "chip": "ym2612"
    },
    {
      "channel": 1,
      "note": 66,
      "start": 31.3984,
      "duration": 0.0138,
      "velocity": 101,
      "chip": "ym2612"
    },
    {
      "channel": 0,
      "note": 37,
      "start": 31.4073,
      "duration": 0.0161,
      "velocity": 115,
      "chip": "ym2612"
    },
    {
      "channel": 4,
      "note": 58,
      "start": 31.4088,
      "duration": 0.0185,
      "velocity": 101,
      "chip": "ym2612"
    },
    {
      "channel": 3,
      "note": 61,
      "start": 31.41,
      "duration": 0.0185,
      "velocity": 101,
      "chip": "ym2612"
    },
    {
      "channel": 2,
      "note": 61,
      "start": 31.4111,
      "duration": 0.0185,
      "velocity": 100,
      "chip": "ym2612"
    },
    {
      "channel": 1,
      "note": 66,
      "start": 31.4122,
      "duration": 0.0185,
      "velocity": 101,
      "chip": "ym2612"
    },
    {
      "channel": 0,
      "note": 37,
      "start": 31.4234,
      "duration": 0.0161,
      "velocity": 115,
      "chip": "ym2612"
    },
    {
      "channel": 4,
      "note": 58,
      "start": 31.4273,
      "duration": 0.0134,
      "velocity": 101,
      "chip": "ym2612"
    },
    {
      "channel": 3,
      "note": 61,
      "start": 31.4285,
      "duration": 0.0161,
      "velocity": 101,
      "chip": "ym2612"
    },
    {
      "channel": 2,
      "note": 61,
      "start": 31.4296,
      "duration": 0.0161,
      "velocity": 100,
      "chip": "ym2612"
    },
    {
      "channel": 1,
      "note": 66,
      "start": 31.4307,
      "duration": 0.0161,
      "velocity": 101,
      "chip": "ym2612"
    },
    {
      "channel": 0,
      "note": 38,
      "start": 31.4395,
      "duration": 0.0161,
      "velocity": 115,
      "chip": "ym2612"
    },
    {
      "channel": 4,
      "note": 58,
      "start": 31.4407,
      "duration": 0.0161,
      "velocity": 101,
      "chip": "ym2612"
    },
    {
      "channel": 3,
      "note": 61,
      "start": 31.4446,
      "duration": 0.0158,
      "velocity": 101,
      "chip": "ym2612"
    },
    {
      "channel": 2,
      "note": 61,
      "start": 31.4457,
      "duration": 0.0158,
      "velocity": 100,
      "chip": "ym2612"
    },
    {
      "channel": 1,
      "note": 66,
      "start": 31.4468,
      "duration": 0.0158,
      "velocity": 101,
      "chip": "ym2612"
    },
    {
      "channel": 0,
      "note": 38,
      "start": 31.4556,
      "duration": 0.0161,
      "velocity": 115,
      "chip": "ym2612"
    },
    {
      "channel": 4,
      "note": 58,
      "start": 31.4568,
      "duration": 0.0161,
      "velocity": 101,
      "chip": "ym2612"
    },
    {
      "channel": 3,
      "note": 61,
      "start": 31.4603,
      "duration": 0.0137,
      "velocity": 101,
      "chip": "ym2612"
    },
    {
      "channel": 2,
      "note": 61,
      "start": 31.4615,
      "duration": 0.014,
      "velocity": 100,
      "chip": "ym2612"
    },
    {
      "channel": 1,
      "note": 66,
      "start": 31.4626,
      "duration": 0.014,
      "velocity": 101,
      "chip": "ym2612"
    },
    {
      "channel": 0,
      "note": 39,
      "start": 31.4717,
      "duration": 0.0161,
      "velocity": 115,
      "chip": "ym2612"
    },
    {
      "channel": 4,
      "note": 58,
      "start": 31.4729,
      "duration": 0.0161,
      "velocity": 101,
      "chip": "ym2612"
    },
    {
      "channel": 3,
      "note": 61,
      "start": 31.474,
      "duration": 0.0161,
      "velocity": 101,
      "chip": "ym2612"
    },
    {
      "channel": 2,
      "note": 61,
      "start": 31.4755,
      "duration": 0.0186,
      "velocity": 100,
      "chip": "ym2612"
    },
    {
      "channel": 1,
      "note": 66,
      "start": 31.4766,
      "duration": 0.0186,
      "velocity": 101,
      "chip": "ym2612"
    },
    {
      "channel": 0,
      "note": 39,
      "start": 31.4878,
      "duration": 0.0161,
      "velocity": 115,
      "chip": "ym2612"
    },
    {
      "channel": 4,
      "note": 58,
      "start": 31.489,
      "duration": 0.0161,
      "velocity": 101,
      "chip": "ym2612"
    },
    {
      "channel": 3,
      "note": 61,
      "start": 31.4901,
      "duration": 0.0161,
      "velocity": 101,
      "chip": "ym2612"
    },
    {
      "channel": 1,
      "note": 66,
      "start": 31.4952,
      "duration": 0.016,
      "velocity": 101,
      "chip": "ym2612"
    },
    {
      "channel": 0,
      "note": 40,
      "start": 31.5039,
      "duration": 0.0161,
      "velocity": 115,
      "chip": "ym2612"
    },
    {
      "channel": 4,
      "note": 58,
      "start": 31.5051,
      "duration": 0.0161,
      "velocity": 101,
      "chip": "ym2612"
    },
    {
      "channel": 3,
      "note": 61,
      "start": 31.5062,
      "duration": 0.0162,
      "velocity": 101,
      "chip": "ym2612"
    },
    {
      "channel": 1,
      "note": 66,
      "start": 31.5112,
      "duration": 0.0157,
      "velocity": 101,
      "chip": "ym2612"
    },
    {
      "channel": 0,
      "note": 40,
      "start": 31.52,
      "duration": 0.0161,
      "velocity": 115,
      "chip": "ym2612"
    },
    {
      "channel": 4,
      "note": 58,
      "start": 31.5212,
      "duration": 0.0161,
      "velocity": 101,
      "chip": "ym2612"
    },
    {
      "channel": 3,
      "note": 61,
      "start": 31.5224,
      "duration": 0.0161,
      "velocity": 101,
      "chip": "ym2612"
    },
    {
      "channel": 1,
      "note": 66,
      "start": 31.5269,
      "duration": 0.0137,
      "velocity": 101,
      "chip": "ym2612"
    },
    {
      "channel": 0,
      "note": 40,
      "start": 31.5361,
      "duration": 0.0161,
      "velocity": 115,
      "chip": "ym2612"
    },
    {
      "channel": 4,
      "note": 58,
      "start": 31.5373,
      "duration": 0.0161,
      "velocity": 101,
      "chip": "ym2612"
    },
    {
      "channel": 3,
      "note": 61,
      "start": 31.5384,
      "duration": 0.0161,
      "velocity": 101,
      "chip": "ym2612"
    },
    {
      "channel": 1,
      "note": 66,
      "start": 31.5407,
      "duration": 0.0161,
      "velocity": 101,
      "chip": "ym2612"
    },
    {
      "channel": 0,
      "note": 41,
      "start": 31.5522,
      "duration": 0.0161,
      "velocity": 115,
      "chip": "ym2612"
    },
    {
      "channel": 4,
      "note": 58,
      "start": 31.5534,
      "duration": 0.0161,
      "velocity": 101,
      "chip": "ym2612"
    },
    {
      "channel": 3,
      "note": 61,
      "start": 31.5545,
      "duration": 0.0161,
      "velocity": 101,
      "chip": "ym2612"
    },
    {
      "channel": 1,
      "note": 66,
      "start": 31.5568,
      "duration": 0.0161,
      "velocity": 101,
      "chip": "ym2612"
    },
    {
      "channel": 0,
      "note": 41,
      "start": 31.5683,
      "duration": 0.0161,
      "velocity": 115,
      "chip": "ym2612"
    },
    {
      "channel": 4,
      "note": 58,
      "start": 31.5695,
      "duration": 0.0161,
      "velocity": 101,
      "chip": "ym2612"
    },
    {
      "channel": 3,
      "note": 61,
      "start": 31.5706,
      "duration": 0.0161,
      "velocity": 101,
      "chip": "ym2612"
    },
    {
      "channel": 1,
      "note": 66,
      "start": 31.5729,
      "duration": 0.0161,
      "velocity": 101,
      "chip": "ym2612"
    },
    {
      "channel": 0,
      "note": 42,
      "start": 31.5844,
      "duration": 0.0179,
      "velocity": 115,
      "chip": "ym2612"
    },
    {
      "channel": 4,
      "note": 58,
      "start": 31.5856,
      "duration": 0.0179,
      "velocity": 101,
      "chip": "ym2612"
    },
    {
      "channel": 3,
      "note": 61,
      "start": 31.5867,
      "duration": 0.0179,
      "velocity": 101,
      "chip": "ym2612"
    },
    {
      "channel": 1,
      "note": 66,
      "start": 31.589,
      "duration": 0.0182,
      "velocity": 101,
      "chip": "ym2612"
    },
    {
      "channel": 0,
      "note": 36,
      "start": 31.6023,
      "duration": 0.0144,
      "velocity": 115,
      "chip": "ym2612"
    },
    {
      "channel": 4,
      "note": 58,
      "start": 31.6035,
      "duration": 0.0143,
      "velocity": 101,
      "chip": "ym2612"
    },
    {
      "channel": 3,
      "note": 61,
      "start": 31.6047,
      "duration": 0.0143,
      "velocity": 101,
      "chip": "ym2612"
    },
    {
      "channel": 2,
      "note": 59,
      "start": 31.6061,
      "duration": 0.0141,
      "velocity": 100,
      "chip": "ym2612"
    },
    {
      "channel": 1,
      "note": 66,
      "start": 31.6072,
      "duration": 0.0141,
      "velocity": 101,
      "chip": "ym2612"
    },
    {
      "channel": 0,
      "note": 36,
      "start": 31.6167,
      "duration": 0.016,
      "velocity": 115,
      "chip": "ym2612"
    },
    {
      "channel": 4,
      "note": 58,
      "start": 31.6178,
      "duration": 0.016,
      "velocity": 101,
      "chip": "ym2612"
    },
    {
      "channel": 3,
      "note": 61,
      "start": 31.619,
      "duration": 0.016,
      "velocity": 101,
      "chip": "ym2612"
    },
    {
      "channel": 2,
      "note": 59,
      "start": 31.6202,
      "duration": 0.016,
      "velocity": 100,
      "chip": "ym2612"
    },
    {
      "channel": 1,
      "note": 66,
      "start": 31.6213,
      "duration": 0.016,
      "velocity": 101,
      "chip": "ym2612"
    },
    {
      "channel": 0,
      "note": 37,
      "start": 31.6327,
      "duration": 0.0161,
      "velocity": 115,
      "chip": "ym2612"
    },
    {
      "channel": 4,
      "note": 58,
      "start": 31.6339,
      "duration": 0.0161,
      "velocity": 101,
      "chip": "ym2612"
    },
    {
      "channel": 3,
      "note": 61,
      "start": 31.635,
      "duration": 0.0161,
      "velocity": 101,
      "chip": "ym2612"
    },
    {
      "channel": 2,
      "note": 59,
      "start": 31.6361,
      "duration": 0.0161,
      "velocity": 100,
      "chip": "ym2612"
    },
    {
      "channel": 1,
      "note": 66,
      "start": 31.6373,
      "duration": 0.0161,
      "velocity": 101,
      "chip": "ym2612"
    },
    {
      "channel": 0,
      "note": 37,
      "start": 31.6488,
      "duration": 0.0161,
      "velocity": 115,
      "chip": "ym2612"
    },
    {
      "channel": 4,
      "note": 58,
      "start": 31.65,
      "duration": 0.0161,
      "velocity": 101,
      "chip": "ym2612"
    },
    {
      "channel": 3,
      "note": 61,
      "start": 31.6511,
      "duration": 0.0161,
      "velocity": 101,
      "chip": "ym2612"
    },
    {
      "channel": 2,
      "note": 59,
      "start": 31.6522,
      "duration": 0.0161,
      "velocity": 100,
      "chip": "ym2612"
    },
    {
      "channel": 1,
      "note": 66,
      "start": 31.6534,
      "duration": 0.0161,
      "velocity": 101,
      "chip": "ym2612"
    },
    {
      "channel": 0,
      "note": 38,
      "start": 31.6649,
      "duration": 0.0161,
      "velocity": 115,
      "chip": "ym2612"
    },
    {
      "channel": 4,
      "note": 58,
      "start": 31.6661,
      "duration": 0.0161,
      "velocity": 101,
      "chip": "ym2612"
    },
    {
      "channel": 3,
      "note": 61,
      "start": 31.6672,
      "duration": 0.0162,
      "velocity": 101,
      "chip": "ym2612"
    },
    {
      "channel": 2,
      "note": 59,
      "start": 31.6683,
      "duration": 0.0161,
      "velocity": 100,
      "chip": "ym2612"
    },
    {
      "channel": 1,
      "note": 66,
      "start": 31.6695,
      "duration": 0.0161,
      "velocity": 101,
      "chip": "ym2612"
    },
    {
      "channel": 0,
      "note": 38,
      "start": 31.681,
      "duration": 0.0161,
      "velocity": 115,
      "chip": "ym2612"
    },
    {
      "channel": 4,
      "note": 58,
      "start": 31.6822,
      "duration": 0.0161,
      "velocity": 101,
      "chip": "ym2612"
    },
    {
      "channel": 3,
      "note": 61,
      "start": 31.6834,
      "duration": 0.0161,
      "velocity": 101,
      "chip": "ym2612"
    },
    {
      "channel": 2,
      "note": 59,
      "start": 31.6844,
      "duration": 0.0161,
      "velocity": 100,
      "chip": "ym2612"
    },
    {
      "channel": 1,
      "note": 66,
      "start": 31.6856,
      "duration": 0.0161,
      "velocity": 101,
      "chip": "ym2612"
    },
    {
      "channel": 0,
      "note": 39,
      "start": 31.6971,
      "duration": 0.0161,
      "velocity": 115,
      "chip": "ym2612"
    },
    {
      "channel": 4,
      "note": 58,
      "start": 31.6983,
      "duration": 0.0161,
      "velocity": 101,
      "chip": "ym2612"
    },
    {
      "channel": 3,
      "note": 61,
      "start": 31.6995,
      "duration": 0.0161,
      "velocity": 101,
      "chip": "ym2612"
    },
    {
      "channel": 2,
      "note": 59,
      "start": 31.7005,
      "duration": 0.0162,
      "velocity": 100,
      "chip": "ym2612"
    },
    {
      "channel": 1,
      "note": 66,
      "start": 31.7017,
      "duration": 0.0161,
      "velocity": 101,
      "chip": "ym2612"
    },
    {
      "channel": 0,
      "note": 39,
      "start": 31.7132,
      "duration": 0.0161,
      "velocity": 115,
      "chip": "ym2612"
    },
    {
      "channel": 4,
      "note": 58,
      "start": 31.7144,
      "duration": 0.0161,
      "velocity": 101,
      "chip": "ym2612"
    },
    {
      "channel": 3,
      "note": 61,
      "start": 31.7155,
      "duration": 0.0161,
      "velocity": 101,
      "chip": "ym2612"
    },
    {
      "channel": 1,
      "note": 66,
      "start": 31.7178,
      "duration": 0.0161,
      "velocity": 101,
      "chip": "ym2612"
    },
    {
      "channel": 0,
      "note": 40,
      "start": 31.7293,
      "duration": 0.0161,
      "velocity": 115,
      "chip": "ym2612"
    },
    {
      "channel": 4,
      "note": 58,
      "start": 31.7305,
      "duration": 0.0161,
      "velocity": 101,
      "chip": "ym2612"
    },
    {
      "channel": 3,
      "note": 61,
      "start": 31.7316,
      "duration": 0.0161,
      "velocity": 101,
      "chip": "ym2612"
    },
    {
      "channel": 1,
      "note": 66,
      "start": 31.7339,
      "duration": 0.0161,
      "velocity": 101,
      "chip": "ym2612"
    },
    {
      "channel": 0,
      "note": 40,
      "start": 31.7454,
      "duration": 0.0171,
      "velocity": 115,
      "chip": "ym2612"
    },
    {
      "channel": 4,
      "note": 58,
      "start": 31.7466,
      "duration": 0.0171,
      "velocity": 101,
      "chip": "ym2612"
    },
    {
      "channel": 3,
      "note": 61,
      "start": 31.7477,
      "duration": 0.0171,
      "velocity": 101,
      "chip": "ym2612"
    },
    {
      "channel": 1,
      "note": 66,
      "start": 31.75,
      "duration": 0.0171,
      "velocity": 101,
      "chip": "ym2612"
    },
    {
      "channel": 0,
      "note": 40,
      "start": 31.7625,
      "duration": 0.0167,
      "velocity": 115,
      "chip": "ym2612"
    },
    {
      "channel": 4,
      "note": 58,
      "start": 31.7636,
      "duration": 0.0167,
      "velocity": 101,
      "chip": "ym2612"
    },
    {
      "channel": 3,
      "note": 61,
      "start": 31.7648,
      "duration": 0.0167,
      "velocity": 101,
      "chip": "ym2612"
    },
    {
      "channel": 1,
      "note": 66,
      "start": 31.7671,
      "duration": 0.0167,
      "velocity": 101,
      "chip": "ym2612"
    },
    {
      "channel": 0,
      "note": 41,
      "start": 31.7792,
      "duration": 0.0163,
      "velocity": 115,
      "chip": "ym2612"
    },
    {
      "channel": 4,
      "note": 58,
      "start": 31.7803,
      "duration": 0.0163,
      "velocity": 101,
      "chip": "ym2612"
    },
    {
      "channel": 3,
      "note": 61,
      "start": 31.7815,
      "duration": 0.0163,
      "velocity": 101,
      "chip": "ym2612"
    },
    {
      "channel": 1,
      "note": 66,
      "start": 31.7837,
      "duration": 0.0163,
      "velocity": 101,
      "chip": "ym2612"
    },
    {
      "channel": 0,
      "note": 41,
      "start": 31.7954,
      "duration": 0.0146,
      "velocity": 115,
      "chip": "ym2612"
    },
    {
      "channel": 4,
      "note": 58,
      "start": 31.7966,
      "duration": 0.0146,
      "velocity": 101,
      "chip": "ym2612"
    },
    {
      "channel": 3,
      "note": 61,
      "start": 31.7977,
      "duration": 0.0146,
      "velocity": 101,
      "chip": "ym2612"
    },
    {
      "channel": 1,
      "note": 66,
      "start": 31.8,
      "duration": 0.0146,
      "velocity": 101,
      "chip": "ym2612"
    },
    {
      "channel": 0,
      "note": 42,
      "start": 31.8101,
      "duration": 0.0204,
      "velocity": 115,
      "chip": "ym2612"
    },
    {
      "channel": 4,
      "note": 58,
      "start": 31.8112,
      "duration": 0.0204,
      "velocity": 101,
      "chip": "ym2612"
    },
    {
      "channel": 3,
      "note": 61,
      "start": 31.8124,
      "duration": 0.0204,
      "velocity": 101,
      "chip": "ym2612"
    },
    {
      "channel": 1,
      "note": 66,
      "start": 31.8146,
      "duration": 0.0207,
      "velocity": 101,
      "chip": "ym2612"
    },
    {
      "channel": 0,
      "note": 36,
      "start": 31.8305,
      "duration": 0.0143,
      "velocity": 115,
      "chip": "ym2612"
    },
    {
      "channel": 4,
      "note": 58,
      "start": 31.8316,
      "duration": 0.0144,
      "velocity": 101,
      "chip": "ym2612"
    },
    {
      "channel": 3,
      "note": 61,
      "start": 31.8328,
      "duration": 0.0144,
      "velocity": 101,
      "chip": "ym2612"
    },
    {
      "channel": 2,
      "note": 59,
      "start": 31.8342,
      "duration": 0.0141,
      "velocity": 100,
      "chip": "ym2612"
    },
    {
      "channel": 1,
      "note": 66,
      "start": 31.8353,
      "duration": 0.0141,
      "velocity": 101,
      "chip": "ym2612"
    },
    {
      "channel": 0,
      "note": 36,
      "start": 31.8448,
      "duration": 0.0157,
      "velocity": 115,
      "chip": "ym2612"
    },
    {
      "channel": 4,
      "note": 58,
      "start": 31.846,
      "duration": 0.0156,
      "velocity": 101,
      "chip": "ym2612"
    },
    {
      "channel": 3,
      "note": 61,
      "start": 31.8472,
      "duration": 0.0156,
      "velocity": 101,
      "chip": "ym2612"
    },
    {
      "channel": 2,
      "note": 59,
      "start": 31.8483,
      "duration": 0.0156,
      "velocity": 100,
      "chip": "ym2612"
    },
    {
      "channel": 1,
      "note": 66,
      "start": 31.8495,
      "duration": 0.0156,
      "velocity": 101,
      "chip": "ym2612"
    },
    {
      "channel": 0,
      "note": 37,
      "start": 31.8605,
      "duration": 0.0137,
      "velocity": 115,
      "chip": "ym2612"
    },
    {
      "channel": 4,
      "note": 58,
      "start": 31.8617,
      "duration": 0.0141,
      "velocity": 101,
      "chip": "ym2612"
    },
    {
      "channel": 3,
      "note": 61,
      "start": 31.8628,
      "duration": 0.0141,
      "velocity": 101,
      "chip": "ym2612"
    },
    {
      "channel": 2,
      "note": 59,
      "start": 31.8639,
      "duration": 0.0141,
      "velocity": 100,
      "chip": "ym2612"
    },
    {
      "channel": 1,
      "note": 66,
      "start": 31.8651,
      "duration": 0.0141,
      "velocity": 101,
      "chip": "ym2612"
    },
    {
      "channel": 0,
      "note": 37,
      "start": 31.8743,
      "duration": 0.0161,
      "velocity": 115,
      "chip": "ym2612"
    },
    {
      "channel": 4,
      "note": 58,
      "start": 31.8757,
      "duration": 0.0185,
      "velocity": 101,
      "chip": "ym2612"
    },
    {
      "channel": 3,
      "note": 61,
      "start": 31.8769,
      "duration": 0.0185,
      "velocity": 101,
      "chip": "ym2612"
    },
    {
      "channel": 2,
      "note": 59,
      "start": 31.878,
      "duration": 0.0185,
      "velocity": 100,
      "chip": "ym2612"
    },
    {
      "channel": 1,
      "note": 66,
      "start": 31.8792,
      "duration": 0.0185,
      "velocity": 101,
      "chip": "ym2612"
    },
    {
      "channel": 0,
      "note": 38,
      "start": 31.8904,
      "duration": 0.0161,
      "velocity": 115,
      "chip": "ym2612"
    },
    {
      "channel": 4,
      "note": 58,
      "start": 31.8942,
      "duration": 0.0134,
      "velocity": 101,
      "chip": "ym2612"
    },
    {
      "channel": 3,
      "note": 61,
      "start": 31.8954,
      "duration": 0.0161,
      "velocity": 101,
      "chip": "ym2612"
    },
    {
      "channel": 2,
      "note": 59,
      "start": 31.8965,
      "duration": 0.0161,
      "velocity": 100,
      "chip": "ym2612"
    },
    {
      "channel": 1,
      "note": 66,
      "start": 31.8977,
      "duration": 0.0161,
      "velocity": 101,
      "chip": "ym2612"
    },
    {
      "channel": 0,
      "note": 38,
      "start": 31.9064,
      "duration": 0.0161,
      "velocity": 115,
      "chip": "ym2612"
    },
    {
      "channel": 4,
      "note": 58,
      "start": 31.9076,
      "duration": 0.0161,
      "velocity": 101,
      "chip": "ym2612"
    },
    {
      "channel": 3,
      "note": 61,
      "start": 31.9115,
      "duration": 0.0158,
      "velocity": 101,
      "chip": "ym2612"
    },
    {
      "channel": 2,
      "note": 59,
      "start": 31.9126,
      "duration": 0.0158,
      "velocity": 100,
      "chip": "ym2612"
    },
    {
      "channel": 1,
      "note": 66,
      "start": 31.9138,
      "duration": 0.0158,
      "velocity": 101,
      "chip": "ym2612"
    },
    {
      "channel": 0,
      "note": 39,
      "start": 31.9225,
      "duration": 0.0161,
      "velocity": 115,
      "chip": "ym2612"
    },
    {
      "channel": 4,
      "note": 58,
      "start": 31.9237,
      "duration": 0.0161,
      "velocity": 101,
      "chip": "ym2612"
    },
    {
      "channel": 3,
      "note": 61,
      "start": 31.9273,
      "duration": 0.0137,
      "velocity": 101,
      "chip": "ym2612"
    },
    {
      "channel": 2,
      "note": 59,
      "start": 31.9284,
      "duration": 0.014,
      "velocity": 100,
      "chip": "ym2612"
    },
    {
      "channel": 1,
      "note": 66,
      "start": 31.9295,
      "duration": 0.014,
      "velocity": 101,
      "chip": "ym2612"
    },
    {
      "channel": 0,
      "note": 39,
      "start": 31.9386,
      "duration": 0.0161,
      "velocity": 115,
      "chip": "ym2612"
    },
    {
      "channel": 4,
      "note": 58,
      "start": 31.9398,
      "duration": 0.0161,
      "velocity": 101,
      "chip": "ym2612"
    },
    {
      "channel": 3,
      "note": 61,
      "start": 31.9409,
      "duration": 0.0161,
      "velocity": 101,
      "chip": "ym2612"
    },
    {
      "channel": 1,
      "note": 66,
      "start": 31.9435,
      "duration": 0.0185,
      "velocity": 101,
      "chip": "ym2612"
    },
    {
      "channel": 0,
      "note": 40,
      "start": 31.9547,
      "duration": 0.0161,
      "velocity": 115,
      "chip": "ym2612"
    },
    {
      "channel": 4,
      "note": 58,
      "start": 31.9559,
      "duration": 0.0162,
      "velocity": 101,
      "chip": "ym2612"
    },
    {
      "channel": 3,
      "note": 61,
      "start": 31.957,
      "duration": 0.0161,
      "velocity": 101,
      "chip": "ym2612"
    },
    {
      "channel": 1,
      "note": 66,
      "start": 31.962,
      "duration": 0.0162,
      "velocity": 101,
      "chip": "ym2612"
    },
    {
      "channel": 0,
      "note": 40,
      "start": 31.9708,
      "duration": 0.0161,
      "velocity": 115,
      "chip": "ym2612"
    },
    {
      "channel": 4,
      "note": 58,
      "start": 31.972,
      "duration": 0.0161,
      "velocity": 101,
      "chip": "ym2612"
    },
    {
      "channel": 3,
      "note": 61,
      "start": 31.9732,
      "duration": 0.0161,
      "velocity": 101,
      "chip": "ym2612"
    },
    {
      "channel": 1,
      "note": 66,
      "start": 31.9782,
      "duration": 0.0157,
      "velocity": 101,
      "chip": "ym2612"
    },
    {
      "channel": 0,
      "note": 40,
      "start": 31.9869,
      "duration": 0.0162,
      "velocity": 115,
      "chip": "ym2612"
    },
    {
      "channel": 4,
      "note": 58,
      "start": 31.9881,
      "duration": 0.0161,
      "velocity": 101,
      "chip": "ym2612"
    },
    {
      "channel": 3,
      "note": 61,
      "start": 31.9893,
      "duration": 0.0161,
      "velocity": 101,
      "chip": "ym2612"
    },
    {
      "channel": 1,
      "note": 66,
      "start": 31.9939,
      "duration": 0.0137,
      "velocity": 101,
      "chip": "ym2612"
    },
    {
      "channel": 0,
      "note": 41,
      "start": 32.0031,
      "duration": 0.0161,
      "velocity": 115,
      "chip": "ym2612"
    },
    {
      "channel": 4,
      "note": 58,
      "start": 32.0042,
      "duration": 0.0161,
      "velocity": 101,
      "chip": "ym2612"
    },
    {
      "channel": 3,
      "note": 61,
      "start": 32.0054,
      "duration": 0.0161,
      "velocity": 101,
      "chip": "ym2612"
    },
    {
      "channel": 1,
      "note": 66,
      "start": 32.0077,
      "duration": 0.0161,
      "velocity": 101,
      "chip": "ym2612"
    },
    {
      "channel": 0,
      "note": 41,
      "start": 32.0192,
      "duration": 0.0161,
      "velocity": 115,
      "chip": "ym2612"
    },
    {
      "channel": 4,
      "note": 58,
      "start": 32.0203,
      "duration": 0.0161,
      "velocity": 101,
      "chip": "ym2612"
    },
    {
      "channel": 3,
      "note": 61,
      "start": 32.0215,
      "duration": 0.0161,
      "velocity": 101,
      "chip": "ym2612"
    },
    {
      "channel": 1,
      "note": 66,
      "start": 32.0237,
      "duration": 0.0161,
      "velocity": 101,
      "chip": "ym2612"
    },
    {
      "channel": 0,
      "note": 42,
      "start": 32.0353,
      "duration": 0.0178,
      "velocity": 124,
      "chip": "ym2612"
    },
    {
      "channel": 4,
      "note": 58,
      "start": 32.0364,
      "duration": 0.0179,
      "velocity": 101,
      "chip": "ym2612"
    },
    {
      "channel": 3,
      "note": 61,
      "start": 32.0376,
      "duration": 0.0179,
      "velocity": 101,
      "chip": "ym2612"
    },
    {
      "channel": 1,
      "note": 66,
      "start": 32.0398,
      "duration": 0.0205,
      "velocity": 101,
      "chip": "ym2612"
    },
    {
      "channel": 0,
      "note": 84,
      "start": 32.0531,
      "duration": 0.0144,
      "velocity": 124,
      "chip": "ym2612"
    },
    {
      "channel": 4,
      "note": 58,
      "start": 32.0543,
      "duration": 0.0144,
      "velocity": 101,
      "chip": "ym2612"
    },
    {
      "channel": 3,
      "note": 61,
      "start": 32.0554,
      "duration": 0.0144,
      "velocity": 101,
      "chip": "ym2612"
    },
    {
      "channel": 2,
      "note": 71,
      "start": 32.0568,
      "duration": 0.0142,
      "velocity": 100,
      "chip": "ym2612"
    },
    {
      "channel": 1,
      "note": 66,
      "start": 32.0603,
      "duration": 0.0118,
      "velocity": 101,
      "chip": "ym2612"
    },
    {
      "channel": 0,
      "note": 82,
      "start": 32.0675,
      "duration": 0.016,
      "velocity": 124,
      "chip": "ym2612"
    },
    {
      "channel": 4,
      "note": 58,
      "start": 32.0687,
      "duration": 0.016,
      "velocity": 101,
      "chip": "ym2612"
    },
    {
      "channel": 3,
      "note": 61,
      "start": 32.0698,
      "duration": 0.016,
      "velocity": 101,
      "chip": "ym2612"
    },
    {
      "channel": 2,
      "note": 71,
      "start": 32.071,
      "duration": 0.016,
      "velocity": 100,
      "chip": "ym2612"
    },
    {
      "channel": 1,
      "note": 66,
      "start": 32.0722,
      "duration": 0.016,
      "velocity": 101,
      "chip": "ym2612"
    },
    {
      "channel": 0,
      "note": 80,
      "start": 32.0835,
      "duration": 0.0161,
      "velocity": 124,
      "chip": "ym2612"
    },
    {
      "channel": 4,
      "note": 58,
      "start": 32.0847,
      "duration": 0.0161,
      "velocity": 101,
      "chip": "ym2612"
    },
    {
      "channel": 3,
      "note": 61,
      "start": 32.0858,
      "duration": 0.0162,
      "velocity": 101,
      "chip": "ym2612"
    },
    {
      "channel": 2,
      "note": 71,
      "start": 32.087,
      "duration": 0.0161,
      "velocity": 100,
      "chip": "ym2612"
    },
    {
      "channel": 1,
      "note": 66,
      "start": 32.0881,
      "duration": 0.0161,
      "velocity": 101,
      "chip": "ym2612"
    },
    {
      "channel": 0,
      "note": 77,
      "start": 32.0996,
      "duration": 0.0161,
      "velocity": 124,
      "chip": "ym2612"
    },
    {
      "channel": 4,
      "note": 58,
      "start": 32.1008,
      "duration": 0.0161,
      "velocity": 101,
      "chip": "ym2612"
    },
    {
      "channel": 3,
      "note": 61,
      "start": 32.102,
      "duration": 0.0161,
      "velocity": 101,
      "chip": "ym2612"
    },
    {
      "channel": 2,
      "note": 71,
      "start": 32.1031,
      "duration": 0.0161,
      "velocity": 100,
      "chip": "ym2612"
    },
    {
      "channel": 1,
      "note": 66,
      "start": 32.1042,
      "duration": 0.0161,
      "velocity": 101,
      "chip": "ym2612"
    },
    {
      "channel": 0,
      "note": 75,
      "start": 32.1157,
      "duration": 0.0161,
      "velocity": 124,
      "chip": "ym2612"
    },
    {
      "channel": 4,
      "note": 58,
      "start": 32.1169,
      "duration": 0.0161,
      "velocity": 101,
      "chip": "ym2612"
    },
    {
      "channel": 3,
      "note": 61,
      "start": 32.1181,
      "duration": 0.0161,
      "velocity": 101,
      "chip": "ym2612"
    },
    {
      "channel": 2,
      "note": 71,
      "start": 32.1192,
      "duration": 0.0161,
      "velocity": 100,
      "chip": "ym2612"
    },
    {
      "channel": 1,
      "note": 66,
      "start": 32.1203,
      "duration": 0.0161,
      "velocity": 101,
      "chip": "ym2612"
    },
    {
      "channel": 0,
      "note": 72,
      "start": 32.1318,
      "duration": 0.0161,
      "velocity": 124,
      "chip": "ym2612"
    },
    {
      "channel": 4,
      "note": 58,
      "start": 32.133,
      "duration": 0.0161,
      "velocity": 101,
      "chip": "ym2612"
    },
    {
      "channel": 3,
      "note": 61,
      "start": 32.1342,
      "duration": 0.0161,
      "velocity": 101,
      "chip": "ym2612"
    },
    {
      "channel": 2,
      "note": 71,
      "start": 32.1353,
      "duration": 0.0162,
      "velocity": 100,
      "chip": "ym2612"
    },
    {
      "channel": 1,
      "note": 66,
      "start": 32.1364,
      "duration": 0.0161,
      "velocity": 101,
      "chip": "ym2612"
    },
    {
      "channel": 0,
      "note": 70,
      "start": 32.148,
      "duration": 0.0161,
      "velocity": 124,
      "chip": "ym2612"
    },
    {
      "channel": 4,
      "note": 58,
      "start": 32.1491,
      "duration": 0.0161,
      "velocity": 101,
      "chip": "ym2612"
    },
    {
      "channel": 3,
      "note": 61,
      "start": 32.1503,
      "duration": 0.0161,
      "velocity": 101,
      "chip": "ym2612"
    },
    {
      "channel": 2,
      "note": 71,
      "start": 32.1514,
      "duration": 0.0161,
      "velocity": 100,
      "chip": "ym2612"
    },
    {
      "channel": 1,
      "note": 66,
      "start": 32.1526,
      "duration": 0.0161,
      "velocity": 101,
      "chip": "ym2612"
    },
    {
      "channel": 0,
      "note": 68,
      "start": 32.1641,
      "duration": 0.0161,
      "velocity": 124,
      "chip": "ym2612"
    },
    {
      "channel": 4,
      "note": 58,
      "start": 32.1652,
      "duration": 0.0161,
      "velocity": 101,
      "chip": "ym2612"
    },
    {
      "channel": 3,
      "note": 61,
      "start": 32.1664,
      "duration": 0.0161,
      "velocity": 101,
      "chip": "ym2612"
    },
    {
      "channel": 1,
      "note": 66,
      "start": 32.1687,
      "duration": 0.0161,
      "velocity": 101,
      "chip": "ym2612"
    },
    {
      "channel": 0,
      "note": 65,
      "start": 32.1802,
      "duration": 0.0161,
      "velocity": 124,
      "chip": "ym2612"
    },
    {
      "channel": 4,
      "note": 58,
      "start": 32.1813,
      "duration": 0.0161,
      "velocity": 101,
      "chip": "ym2612"
    },
    {
      "channel": 3,
      "note": 61,
      "start": 32.1825,
      "duration": 0.0161,
      "velocity": 101,
      "chip": "ym2612"
    },
    {
      "channel": 1,
      "note": 66,
      "start": 32.1848,
      "duration": 0.0161,
      "velocity": 101,
      "chip": "ym2612"
    },
    {
      "channel": 0,
      "note": 63,
      "start": 32.1963,
      "duration": 0.0154,
      "velocity": 1,
      "chip": "ym2612"
    },
    {
      "channel": 4,
      "note": 58,
      "start": 32.1974,
      "duration": 0.0153,
      "velocity": 101,
      "chip": "ym2612"
    },
    {
      "channel": 3,
      "note": 61,
      "start": 32.1985,
      "duration": 0.0154,
      "velocity": 101,
      "chip": "ym2612"
    },
    {
      "channel": 1,
      "note": 66,
      "start": 32.2008,
      "duration": 0.0154,
      "velocity": 101,
      "chip": "ym2612"
    },
    {
      "channel": 4,
      "note": 58,
      "start": 32.2127,
      "duration": 0.0159,
      "velocity": 101,
      "chip": "ym2612"
    },
    {
      "channel": 3,
      "note": 61,
      "start": 32.2139,
      "duration": 0.0159,
      "velocity": 101,
      "chip": "ym2612"
    },
    {
      "channel": 1,
      "note": 66,
      "start": 32.2162,
      "duration": 0.0159,
      "velocity": 101,
      "chip": "ym2612"
    },
    {
      "channel": 4,
      "note": 58,
      "start": 32.2286,
      "duration": 0.0167,
      "velocity": 101,
      "chip": "ym2612"
    },
    {
      "channel": 3,
      "note": 61,
      "start": 32.2298,
      "duration": 0.0167,
      "velocity": 101,
      "chip": "ym2612"
    },
    {
      "channel": 1,
      "note": 66,
      "start": 32.2321,
      "duration": 0.0167,
      "velocity": 101,
      "chip": "ym2612"
    },
    {
      "channel": 4,
      "note": 58,
      "start": 32.2453,
      "duration": 0.0163,
      "velocity": 101,
      "chip": "ym2612"
    },
    {
      "channel": 3,
      "note": 61,
      "start": 32.2465,
      "duration": 0.0163,
      "velocity": 101,
      "chip": "ym2612"
    },
    {
      "channel": 1,
      "note": 66,
      "start": 32.2488,
      "duration": 0.0163,
      "velocity": 101,
      "chip": "ym2612"
    },
    {
      "channel": 4,
      "note": 58,
      "start": 32.2616,
      "duration": 0.0147,
      "velocity": 101,
      "chip": "ym2612"
    },
    {
      "channel": 3,
      "note": 61,
      "start": 32.2627,
      "duration": 0.0147,
      "velocity": 101,
      "chip": "ym2612"
    },
    {
      "channel": 1,
      "note": 66,
      "start": 32.265,
      "duration": 0.0149,
      "velocity": 101,
      "chip": "ym2612"
    },
    {
      "channel": 4,
      "note": 58,
      "start": 32.2763,
      "duration": 0.0188,
      "velocity": 101,
      "chip": "ym2612"
    },
    {
      "channel": 3,
      "note": 61,
      "start": 32.2774,
      "duration": 0.0188,
      "velocity": 101,
      "chip": "ym2612"
    },
    {
      "channel": 2,
      "note": 59,
      "start": 32.2788,
      "duration": 0.0186,
      "velocity": 100,
      "chip": "ym2612"
    },
    {
      "channel": 1,
      "note": 66,
      "start": 32.28,
      "duration": 0.0186,
      "velocity": 101,
      "chip": "ym2612"
    },
    {
      "channel": 4,
      "note": 58,
      "start": 32.2951,
      "duration": 0.0161,
      "velocity": 101,
      "chip": "ym2612"
    },
    {
      "channel": 3,
      "note": 61,
      "start": 32.2963,
      "duration": 0.0161,
      "velocity": 101,
      "chip": "ym2612"
    },
    {
      "channel": 2,
      "note": 59,
      "start": 32.2975,
      "duration": 0.016,
      "velocity": 100,
      "chip": "ym2612"
    },
    {
      "channel": 1,
      "note": 66,
      "start": 32.2986,
      "duration": 0.016,
      "velocity": 101,
      "chip": "ym2612"
    },
    {
      "channel": 4,
      "note": 58,
      "start": 32.3112,
      "duration": 0.0157,
      "velocity": 101,
      "chip": "ym2612"
    },
    {
      "channel": 3,
      "note": 61,
      "start": 32.3124,
      "duration": 0.0158,
      "velocity": 101,
      "chip": "ym2612"
    },
    {
      "channel": 2,
      "note": 59,
      "start": 32.3135,
      "duration": 0.0157,
      "velocity": 100,
      "chip": "ym2612"
    },
    {
      "channel": 1,
      "note": 66,
      "start": 32.3146,
      "duration": 0.0157,
      "velocity": 101,
      "chip": "ym2612"
    },
    {
      "channel": 4,
      "note": 58,
      "start": 32.3269,
      "duration": 0.0137,
      "velocity": 101,
      "chip": "ym2612"
    },
    {
      "channel": 3,
      "note": 61,
      "start": 32.3281,
      "duration": 0.014,
      "velocity": 101,
      "chip": "ym2612"
    },
    {
      "channel": 2,
      "note": 59,
      "start": 32.3292,
      "duration": 0.0141,
      "velocity": 100,
      "chip": "ym2612"
    },
    {
      "channel": 1,
      "note": 66,
      "start": 32.3304,
      "duration": 0.0141,
      "velocity": 101,
      "chip": "ym2612"
    },
    {
      "channel": 4,
      "note": 58,
      "start": 32.3407,
      "duration": 0.0161,
      "velocity": 101,
      "chip": "ym2612"
    },
    {
      "channel": 3,
      "note": 61,
      "start": 32.3421,
      "duration": 0.0186,
      "velocity": 101,
      "chip": "ym2612"
    },
    {
      "channel": 2,
      "note": 59,
      "start": 32.3433,
      "duration": 0.0185,
      "velocity": 100,
      "chip": "ym2612"
    },
    {
      "channel": 1,
      "note": 66,
      "start": 32.3444,
      "duration": 0.0185,
      "velocity": 101,
      "chip": "ym2612"
    },
    {
      "channel": 4,
      "note": 58,
      "start": 32.3568,
      "duration": 0.0161,
      "velocity": 101,
      "chip": "ym2612"
    },
    {
      "channel": 3,
      "note": 61,
      "start": 32.3607,
      "duration": 0.0133,
      "velocity": 101,
      "chip": "ym2612"
    },
    {
      "channel": 2,
      "note": 59,
      "start": 32.3618,
      "duration": 0.0161,
      "velocity": 100,
      "chip": "ym2612"
    },
    {
      "channel": 1,
      "note": 66,
      "start": 32.3629,
      "duration": 0.0161,
      "velocity": 101,
      "chip": "ym2612"
    },
    {
      "channel": 4,
      "note": 58,
      "start": 32.3729,
      "duration": 0.0162,
      "velocity": 101,
      "chip": "ym2612"
    },
    {
      "channel": 3,
      "note": 61,
      "start": 32.374,
      "duration": 0.0161,
      "velocity": 101,
      "chip": "ym2612"
    },
    {
      "channel": 2,
      "note": 59,
      "start": 32.3779,
      "duration": 0.0158,
      "velocity": 100,
      "chip": "ym2612"
    },
    {
      "channel": 1,
      "note": 66,
      "start": 32.379,
      "duration": 0.0158,
      "velocity": 101,
      "chip": "ym2612"
    },
    {
      "channel": 4,
      "note": 58,
      "start": 32.389,
      "duration": 0.0161,
      "velocity": 101,
      "chip": "ym2612"
    },
    {
      "channel": 3,
      "note": 61,
      "start": 32.3902,
      "duration": 0.0161,
      "velocity": 101,
      "chip": "ym2612"
    },
    {
      "channel": 1,
      "note": 66,
      "start": 32.3948,
      "duration": 0.014,
      "velocity": 101,
      "chip": "ym2612"
    },
    {
      "channel": 4,
      "note": 58,
      "start": 32.4051,
      "duration": 0.0161,
      "velocity": 101,
      "chip": "ym2612"
    },
    {
      "channel": 3,
      "note": 61,
      "start": 32.4063,
      "duration": 0.0161,
      "velocity": 101,
      "chip": "ym2612"
    },
    {
      "channel": 1,
      "note": 66,
      "start": 32.4088,
      "duration": 0.0186,
      "velocity": 101,
      "chip": "ym2612"
    },
    {
      "channel": 4,
      "note": 58,
      "start": 32.4212,
      "duration": 0.0161,
      "velocity": 101,
      "chip": "ym2612"
    },
    {
      "channel": 3,
      "note": 61,
      "start": 32.4224,
      "duration": 0.0161,
      "velocity": 101,
      "chip": "ym2612"
    },
    {
      "channel": 1,
      "note": 66,
      "start": 32.4274,
      "duration": 0.0134,
      "velocity": 101,
      "chip": "ym2612"
    },
    {
      "channel": 4,
      "note": 58,
      "start": 32.4373,
      "duration": 0.0161,
      "velocity": 101,
      "chip": "ym2612"
    },
    {
      "channel": 3,
      "note": 61,
      "start": 32.4384,
      "duration": 0.0161,
      "velocity": 101,
      "chip": "ym2612"
    },
    {
      "channel": 1,
      "note": 66,
      "start": 32.4407,
      "duration": 0.0161,
      "velocity": 101,
      "chip": "ym2612"
    },
    {
      "channel": 4,
      "note": 58,
      "start": 32.4534,
      "duration": 0.0161,
      "velocity": 101,
      "chip": "ym2612"
    },
    {
      "channel": 3,
      "note": 61,
      "start": 32.4545,
      "duration": 0.0161,
      "velocity": 101,
      "chip": "ym2612"
    },
    {
      "channel": 1,
      "note": 66,
      "start": 32.4568,
      "duration": 0.0161,
      "velocity": 101,
      "chip": "ym2612"
    },
    {
      "channel": 4,
      "note": 58,
      "start": 32.4695,
      "duration": 0.0161,
      "velocity": 101,
      "chip": "ym2612"
    },
    {
      "channel": 3,
      "note": 61,
      "start": 32.4706,
      "duration": 0.0161,
      "velocity": 101,
      "chip": "ym2612"
    },
    {
      "channel": 1,
      "note": 66,
      "start": 32.4729,
      "duration": 0.0161,
      "velocity": 101,
      "chip": "ym2612"
    },
    {
      "channel": 4,
      "note": 58,
      "start": 32.4856,
      "duration": 0.0198,
      "velocity": 101,
      "chip": "ym2612"
    },
    {
      "channel": 3,
      "note": 61,
      "start": 32.4867,
      "duration": 0.02,
      "velocity": 101,
      "chip": "ym2612"
    },
    {
      "channel": 1,
      "note": 66,
      "start": 32.489,
      "duration": 0.0234,
      "velocity": 101,
      "chip": "ym2612"
    },
    {
      "channel": 0,
      "note": 36,
      "start": 32.504,
      "duration": 0.0144,
      "velocity": 115,
      "chip": "ym2612"
    },
    {
      "channel": 4,
      "note": 63,
      "start": 32.5054,
      "duration": 0.0141,
      "velocity": 101,
      "chip": "ym2612"
    },
    {
      "channel": 3,
      "note": 66,
      "start": 32.5068,
      "duration": 0.0139,
      "velocity": 101,
      "chip": "ym2612"
    },
    {
      "channel": 2,
      "note": 54,
      "start": 32.511,
      "duration": 0.011,
      "velocity": 100,
      "chip": "ym2612"
    },
    {
      "channel": 1,
      "note": 71,
      "start": 32.5124,
      "duration": 0.0107,
      "velocity": 101,
      "chip": "ym2612"
    },
    {
      "channel": 0,
      "note": 36,
      "start": 32.5183,
      "duration": 0.016,
      "velocity": 115,
      "chip": "ym2612"
    },
    {
      "channel": 4,
      "note": 63,
      "start": 32.5195,
      "duration": 0.016,
      "velocity": 101,
      "chip": "ym2612"
    },
    {
      "channel": 3,
      "note": 66,
      "start": 32.5208,
      "duration": 0.0159,
      "velocity": 101,
      "chip": "ym2612"
    },
    {
      "channel": 2,
      "note": 54,
      "start": 32.522,
      "duration": 0.0158,
      "velocity": 100,
      "chip": "ym2612"
    },
    {
      "channel": 1,
      "note": 71,
      "start": 32.5232,
      "duration": 0.0158,
      "velocity": 101,
      "chip": "ym2612"
    },
    {
      "channel": 0,
      "note": 37,
      "start": 32.5344,
      "duration": 0.0161,
      "velocity": 115,
      "chip": "ym2612"
    },
    {
      "channel": 4,
      "note": 63,
      "start": 32.5355,
      "duration": 0.0162,
      "velocity": 101,
      "chip": "ym2612"
    },
    {
      "channel": 3,
      "note": 66,
      "start": 32.5367,
      "duration": 0.0161,
      "velocity": 101,
      "chip": "ym2612"
    },
    {
      "channel": 2,
      "note": 54,
      "start": 32.5378,
      "duration": 0.0161,
      "velocity": 100,
      "chip": "ym2612"
    },
    {
      "channel": 1,
      "note": 71,
      "start": 32.539,
      "duration": 0.0161,
      "velocity": 101,
      "chip": "ym2612"
    },
    {
      "channel": 0,
      "note": 37,
      "start": 32.5505,
      "duration": 0.0161,
      "velocity": 115,
      "chip": "ym2612"
    },
    {
      "channel": 4,
      "note": 63,
      "start": 32.5517,
      "duration": 0.0161,
      "velocity": 101,
      "chip": "ym2612"
    },
    {
      "channel": 3,
      "note": 66,
      "start": 32.5528,
      "duration": 0.0161,
      "velocity": 101,
      "chip": "ym2612"
    },
    {
      "channel": 2,
      "note": 54,
      "start": 32.5539,
      "duration": 0.0161,
      "velocity": 100,
      "chip": "ym2612"
    },
    {
      "channel": 1,
      "note": 71,
      "start": 32.5551,
      "duration": 0.0161,
      "velocity": 101,
      "chip": "ym2612"
    },
    {
      "channel": 0,
      "note": 38,
      "start": 32.5666,
      "duration": 0.0162,
      "velocity": 115,
      "chip": "ym2612"
    },
    {
      "channel": 4,
      "note": 63,
      "start": 32.5678,
      "duration": 0.0161,
      "velocity": 101,
      "chip": "ym2612"
    },
    {
      "channel": 3,
      "note": 66,
      "start": 32.5689,
      "duration": 0.0161,
      "velocity": 101,
      "chip": "ym2612"
    },
    {
      "channel": 2,
      "note": 54,
      "start": 32.57,
      "duration": 0.0161,
      "velocity": 100,
      "chip": "ym2612"
    },
    {
      "channel": 1,
      "note": 71,
      "start": 32.5711,
      "duration": 0.0162,
      "velocity": 101,
      "chip": "ym2612"
    },
    {
      "channel": 0,
      "note": 38,
      "start": 32.5827,
      "duration": 0.0161,
      "velocity": 115,
      "chip": "ym2612"
    },
    {
      "channel": 4,
      "note": 63,
      "start": 32.5839,
      "duration": 0.0161,
      "velocity": 101,
      "chip": "ym2612"
    },
    {
      "channel": 3,
      "note": 66,
      "start": 32.585,
      "duration": 0.0161,
      "velocity": 101,
      "chip": "ym2612"
    },
    {
      "channel": 2,
      "note": 54,
      "start": 32.5861,
      "duration": 0.0161,
      "velocity": 100,
      "chip": "ym2612"
    },
    {
      "channel": 1,
      "note": 71,
      "start": 32.5873,
      "duration": 0.0161,
      "velocity": 101,
      "chip": "ym2612"
    },
    {
      "channel": 0,
      "note": 39,
      "start": 32.5988,
      "duration": 0.0161,
      "velocity": 115,
      "chip": "ym2612"
    },
    {
      "channel": 4,
      "note": 63,
      "start": 32.6,
      "duration": 0.0161,
      "velocity": 101,
      "chip": "ym2612"
    },
    {
      "channel": 3,
      "note": 66,
      "start": 32.6011,
      "duration": 0.0161,
      "velocity": 101,
      "chip": "ym2612"
    },
    {
      "channel": 2,
      "note": 54,
      "start": 32.6022,
      "duration": 0.0161,
      "velocity": 100,
      "chip": "ym2612"
    },
    {
      "channel": 1,
      "note": 71,
      "start": 32.6034,
      "duration": 0.0161,
      "velocity": 101,
      "chip": "ym2612"
    },
    {
      "channel": 0,
      "note": 39,
      "start": 32.6149,
      "duration": 0.0161,
      "velocity": 115,
      "chip": "ym2612"
    },
    {
      "channel": 4,
      "note": 63,
      "start": 32.6161,
      "duration": 0.0161,
      "velocity": 101,
      "chip": "ym2612"
    },
    {
      "channel": 3,
      "note": 66,
      "start": 32.6172,
      "duration": 0.0161,
      "velocity": 101,
      "chip": "ym2612"
    },
    {
      "channel": 1,
      "note": 71,
      "start": 32.6195,
      "duration": 0.0161,
      "velocity": 101,
      "chip": "ym2612"
    },
    {
      "channel": 0,
      "note": 40,
      "start": 32.631,
      "duration": 0.0161,
      "velocity": 115,
      "chip": "ym2612"
    },
    {
      "channel": 4,
      "note": 63,
      "start": 32.6322,
      "duration": 0.0161,
      "velocity": 101,
      "chip": "ym2612"
    },
    {
      "channel": 3,
      "note": 66,
      "start": 32.6333,
      "duration": 0.0161,
      "velocity": 101,
      "chip": "ym2612"
    },
    {
      "channel": 1,
      "note": 71,
      "start": 32.6356,
      "duration": 0.0161,
      "velocity": 101,
      "chip": "ym2612"
    },
    {
      "channel": 0,
      "note": 40,
      "start": 32.6471,
      "duration": 0.0161,
      "velocity": 115,
      "chip": "ym2612"
    },
    {
      "channel": 4,
      "note": 63,
      "start": 32.6482,
      "duration": 0.0161,
      "velocity": 101,
      "chip": "ym2612"
    },
    {
      "channel": 3,
      "note": 66,
      "start": 32.6494,
      "duration": 0.0161,
      "velocity": 101,
      "chip": "ym2612"
    },
    {
      "channel": 1,
      "note": 71,
      "start": 32.6517,
      "duration": 0.0161,
      "velocity": 101,
      "chip": "ym2612"
    },
    {
      "channel": 0,
      "note": 40,
      "start": 32.6632,
      "duration": 0.0161,
      "velocity": 115,
      "chip": "ym2612"
    },
    {
      "channel": 4,
      "note": 63,
      "start": 32.6643,
      "duration": 0.0161,
      "velocity": 101,
      "chip": "ym2612"
    },
    {
      "channel": 3,
      "note": 66,
      "start": 32.6655,
      "duration": 0.0161,
      "velocity": 101,
      "chip": "ym2612"
    },
    {
      "channel": 1,
      "note": 71,
      "start": 32.6678,
      "duration": 0.0161,
      "velocity": 101,
      "chip": "ym2612"
    },
    {
      "channel": 0,
      "note": 41,
      "start": 32.6793,
      "duration": 0.0165,
      "velocity": 115,
      "chip": "ym2612"
    },
    {
      "channel": 4,
      "note": 63,
      "start": 32.6804,
      "duration": 0.0165,
      "velocity": 101,
      "chip": "ym2612"
    },
    {
      "channel": 3,
      "note": 66,
      "start": 32.6816,
      "duration": 0.0166,
      "velocity": 101,
      "chip": "ym2612"
    },
    {
      "channel": 1,
      "note": 71,
      "start": 32.6839,
      "duration": 0.0166,
      "velocity": 101,
      "chip": "ym2612"
    },
    {
      "channel": 0,
      "note": 41,
      "start": 32.6958,
      "duration": 0.0167,
      "velocity": 115,
      "chip": "ym2612"
    },
    {
      "channel": 4,
      "note": 63,
      "start": 32.697,
      "duration": 0.0167,
      "velocity": 101,
      "chip": "ym2612"
    },
    {
      "channel": 3,
      "note": 66,
      "start": 32.6981,
      "duration": 0.0167,
      "velocity": 101,
      "chip": "ym2612"
    },
    {
      "channel": 1,
      "note": 71,
      "start": 32.7004,
      "duration": 0.0167,
      "velocity": 101,
      "chip": "ym2612"
    },
    {
      "channel": 0,
      "note": 42,
      "start": 32.7125,
      "duration": 0.0163,
      "velocity": 115,
      "chip": "ym2612"
    },
    {
      "channel": 4,
      "note": 63,
      "start": 32.7136,
      "duration": 0.0163,
      "velocity": 101,
      "chip": "ym2612"
    },
    {
      "channel": 3,
      "note": 66,
      "start": 32.7148,
      "duration": 0.0163,
      "velocity": 101,
      "chip": "ym2612"
    },
    {
      "channel": 1,
      "note": 71,
      "start": 32.7171,
      "duration": 0.0165,
      "velocity": 101,
      "chip": "ym2612"
    },
    {
      "channel": 0,
      "note": 42,
      "start": 32.7288,
      "duration": 0.0149,
      "velocity": 115,
      "chip": "ym2612"
    },
    {
      "channel": 4,
      "note": 63,
      "start": 32.7299,
      "duration": 0.015,
      "velocity": 101,
      "chip": "ym2612"
    },
    {
      "channel": 3,
      "note": 66,
      "start": 32.7311,
      "duration": 0.0149,
      "velocity": 101,
      "chip": "ym2612"
    },
    {
      "channel": 2,
      "note": 54,
      "start": 32.7325,
      "duration": 0.0148,
      "velocity": 100,
      "chip": "ym2612"
    },
    {
      "channel": 1,
      "note": 71,
      "start": 32.7336,
      "duration": 0.0148,
      "velocity": 101,
      "chip": "ym2612"
    },
    {
      "channel": 0,
      "note": 43,
      "start": 32.7437,
      "duration": 0.0187,
      "velocity": 115,
      "chip": "ym2612"
    },
    {
      "channel": 4,
      "note": 63,
      "start": 32.7449,
      "duration": 0.0188,
      "velocity": 101,
      "chip": "ym2612"
    },
    {
      "channel": 3,
      "note": 66,
      "start": 32.746,
      "duration": 0.0188,
      "velocity": 101,
      "chip": "ym2612"
    },
    {
      "channel": 2,
      "note": 54,
      "start": 32.7472,
      "duration": 0.0187,
      "velocity": 100,
      "chip": "ym2612"
    },
    {
      "channel": 1,
      "note": 71,
      "start": 32.7484,
      "duration": 0.0187,
      "velocity": 101,
      "chip": "ym2612"
    },
    {
      "channel": 0,
      "note": 43,
      "start": 32.7624,
      "duration": 0.0162,
      "velocity": 115,
      "chip": "ym2612"
    },
    {
      "channel": 4,
      "note": 63,
      "start": 32.7636,
      "duration": 0.0162,
      "velocity": 101,
      "chip": "ym2612"
    },
    {
      "channel": 3,
      "note": 66,
      "start": 32.7648,
      "duration": 0.0161,
      "velocity": 101,
      "chip": "ym2612"
    },
    {
      "channel": 2,
      "note": 54,
      "start": 32.7659,
      "duration": 0.0162,
      "velocity": 100,
      "chip": "ym2612"
    },
    {
      "channel": 1,
      "note": 71,
      "start": 32.7671,
      "duration": 0.0161,
      "velocity": 101,
      "chip": "ym2612"
    },
    {
      "channel": 0,
      "note": 44,
      "start": 32.7786,
      "duration": 0.0157,
      "velocity": 115,
      "chip": "ym2612"
    },
    {
      "channel": 4,
      "note": 63,
      "start": 32.7798,
      "duration": 0.0158,
      "velocity": 101,
      "chip": "ym2612"
    },
    {
      "channel": 3,
      "note": 66,
      "start": 32.7809,
      "duration": 0.0158,
      "velocity": 101,
      "chip": "ym2612"
    },
    {
      "channel": 2,
      "note": 54,
      "start": 32.7821,
      "duration": 0.0158,
      "velocity": 100,
      "chip": "ym2612"
    },
    {
      "channel": 1,
      "note": 71,
      "start": 32.7832,
      "duration": 0.0158,
      "velocity": 101,
      "chip": "ym2612"
    },
    {
      "channel": 0,
      "note": 44,
      "start": 32.7944,
      "duration": 0.0141,
      "velocity": 115,
      "chip": "ym2612"
    },
    {
      "channel": 4,
      "note": 63,
      "start": 32.7956,
      "duration": 0.014,
      "velocity": 101,
      "chip": "ym2612"
    },
    {
      "channel": 3,
      "note": 66,
      "start": 32.7967,
      "duration": 0.014,
      "velocity": 101,
      "chip": "ym2612"
    },
    {
      "channel": 2,
      "note": 54,
      "start": 32.7979,
      "duration": 0.014,
      "velocity": 100,
      "chip": "ym2612"
    },
    {
      "channel": 1,
      "note": 71,
      "start": 32.799,
      "duration": 0.014,
      "velocity": 101,
      "chip": "ym2612"
    },
    {
      "channel": 0,
      "note": 44,
      "start": 32.8084,
      "duration": 0.0158,
      "velocity": 115,
      "chip": "ym2612"
    },
    {
      "channel": 4,
      "note": 63,
      "start": 32.8096,
      "duration": 0.0186,
      "velocity": 101,
      "chip": "ym2612"
    },
    {
      "channel": 3,
      "note": 66,
      "start": 32.8107,
      "duration": 0.0186,
      "velocity": 101,
      "chip": "ym2612"
    },
    {
      "channel": 2,
      "note": 54,
      "start": 32.8119,
      "duration": 0.0185,
      "velocity": 100,
      "chip": "ym2612"
    },
    {
      "channel": 1,
      "note": 71,
      "start": 32.813,
      "duration": 0.0185,
      "velocity": 101,
      "chip": "ym2612"
    },
    {
      "channel": 0,
      "note": 45,
      "start": 32.8242,
      "duration": 0.0161,
      "velocity": 115,
      "chip": "ym2612"
    },
    {
      "channel": 4,
      "note": 63,
      "start": 32.8281,
      "duration": 0.0161,
      "velocity": 101,
      "chip": "ym2612"
    },
    {
      "channel": 3,
      "note": 66,
      "start": 32.8293,
      "duration": 0.0161,
      "velocity": 101,
      "chip": "ym2612"
    },
    {
      "channel": 2,
      "note": 54,
      "start": 32.8304,
      "duration": 0.0162,
      "velocity": 100,
      "chip": "ym2612"
    },
    {
      "channel": 1,
      "note": 71,
      "start": 32.8315,
      "duration": 0.0161,
      "velocity": 101,
      "chip": "ym2612"
    },
    {
      "channel": 0,
      "note": 45,
      "start": 32.8403,
      "duration": 0.0161,
      "velocity": 115,
      "chip": "ym2612"
    },
    {
      "channel": 4,
      "note": 63,
      "start": 32.8442,
      "duration": 0.0134,
      "velocity": 101,
      "chip": "ym2612"
    },
    {
      "channel": 3,
      "note": 66,
      "start": 32.8454,
      "duration": 0.0157,
      "velocity": 101,
      "chip": "ym2612"
    },
    {
      "channel": 1,
      "note": 71,
      "start": 32.8477,
      "duration": 0.0157,
      "velocity": 101,
      "chip": "ym2612"
    },
    {
      "channel": 0,
      "note": 46,
      "start": 32.8564,
      "duration": 0.0161,
      "velocity": 115,
      "chip": "ym2612"
    },
    {
      "channel": 4,
      "note": 63,
      "start": 32.8576,
      "duration": 0.0161,
      "velocity": 101,
      "chip": "ym2612"
    },
    {
      "channel": 3,
      "note": 66,
      "start": 32.8611,
      "duration": 0.0141,
      "velocity": 101,
      "chip": "ym2612"
    },
    {
      "channel": 1,
      "note": 71,
      "start": 32.8634,
      "duration": 0.014,
      "velocity": 101,
      "chip": "ym2612"
    },
    {
      "channel": 0,
      "note": 46,
      "start": 32.8725,
      "duration": 0.0161,
      "velocity": 115,
      "chip": "ym2612"
    },
    {
      "channel": 4,
      "note": 63,
      "start": 32.8737,
      "duration": 0.0161,
      "velocity": 101,
      "chip": "ym2612"
    },
    {
      "channel": 3,
      "note": 66,
      "start": 32.8751,
      "duration": 0.0158,
      "velocity": 101,
      "chip": "ym2612"
    },
    {
      "channel": 1,
      "note": 71,
      "start": 32.8774,
      "duration": 0.0186,
      "velocity": 101,
      "chip": "ym2612"
    },
    {
      "channel": 0,
      "note": 47,
      "start": 32.8886,
      "duration": 0.0162,
      "velocity": 115,
      "chip": "ym2612"
    },
    {
      "channel": 4,
      "note": 63,
      "start": 32.8898,
      "duration": 0.0161,
      "velocity": 101,
      "chip": "ym2612"
    },
    {
      "channel": 3,
      "note": 66,
      "start": 32.8909,
      "duration": 0.0161,
      "velocity": 101,
      "chip": "ym2612"
    },
    {
      "channel": 1,
      "note": 71,
      "start": 32.8959,
      "duration": 0.0161,
      "velocity": 101,
      "chip": "ym2612"
    },
    {
      "channel": 0,
      "note": 47,
      "start": 32.9047,
      "duration": 0.0161,
      "velocity": 115,
      "chip": "ym2612"
    },
    {
      "channel": 4,
      "note": 63,
      "start": 32.9059,
      "duration": 0.0161,
      "velocity": 101,
      "chip": "ym2612"
    },
    {
      "channel": 3,
      "note": 66,
      "start": 32.907,
      "duration": 0.0161,
      "velocity": 101,
      "chip": "ym2612"
    },
    {
      "channel": 1,
      "note": 71,
      "start": 32.912,
      "duration": 0.0157,
      "velocity": 101,
      "chip": "ym2612"
    },
    {
      "channel": 0,
      "note": 47,
      "start": 32.9208,
      "duration": 0.0161,
      "velocity": 115,
      "chip": "ym2612"
    },
    {
      "channel": 4,
      "note": 63,
      "start": 32.922,
      "duration": 0.0161,
      "velocity": 101,
      "chip": "ym2612"
    },
    {
      "channel": 3,
      "note": 66,
      "start": 32.9231,
      "duration": 0.0161,
      "velocity": 101,
      "chip": "ym2612"
    },
    {
      "channel": 1,
      "note": 71,
      "start": 32.9278,
      "duration": 0.0141,
      "velocity": 101,
      "chip": "ym2612"
    },
    {
      "channel": 0,
      "note": 48,
      "start": 32.9369,
      "duration": 0.0178,
      "velocity": 124,
      "chip": "ym2612"
    },
    {
      "channel": 4,
      "note": 63,
      "start": 32.9381,
      "duration": 0.0179,
      "velocity": 101,
      "chip": "ym2612"
    },
    {
      "channel": 3,
      "note": 66,
      "start": 32.9392,
      "duration": 0.0179,
      "velocity": 101,
      "chip": "ym2612"
    },
    {
      "channel": 1,
      "note": 71,
      "start": 32.9418,
      "duration": 0.0205,
      "velocity": 101,
      "chip": "ym2612"
    },
    {
      "channel": 0,
      "note": 84,
      "start": 32.9548,
      "duration": 0.0144,
      "velocity": 124,
      "chip": "ym2612"
    },
    {
      "channel": 4,
      "note": 63,
      "start": 32.9559,
      "duration": 0.0144,
      "velocity": 101,
      "chip": "ym2612"
    },
    {
      "channel": 3,
      "note": 66,
      "start": 32.9571,
      "duration": 0.0144,
      "velocity": 101,
      "chip": "ym2612"
    },
    {
      "channel": 2,
      "note": 66,
      "start": 32.9612,
      "duration": 0.0115,
      "velocity": 100,
      "chip": "ym2612"
    },
    {
      "channel": 1,
      "note": 71,
      "start": 32.9624,
      "duration": 0.0115,
      "velocity": 101,
      "chip": "ym2612"
    },
    {
      "channel": 0,
      "note": 82,
      "start": 32.9692,
      "duration": 0.016,
      "velocity": 124,
      "chip": "ym2612"
    },
    {
      "channel": 4,
      "note": 63,
      "start": 32.9703,
      "duration": 0.0161,
      "velocity": 101,
      "chip": "ym2612"
    },
    {
      "channel": 3,
      "note": 66,
      "start": 32.9715,
      "duration": 0.0161,
      "velocity": 101,
      "chip": "ym2612"
    },
    {
      "channel": 2,
      "note": 66,
      "start": 32.9727,
      "duration": 0.016,
      "velocity": 100,
      "chip": "ym2612"
    },
    {
      "channel": 1,
      "note": 71,
      "start": 32.9738,
      "duration": 0.016,
      "velocity": 101,
      "chip": "ym2612"
    },
    {
      "channel": 0,
      "note": 80,
      "start": 32.9852,
      "duration": 0.0161,
      "velocity": 124,
      "chip": "ym2612"
    },
    {
      "channel": 4,
      "note": 63,
      "start": 32.9864,
      "duration": 0.0161,
      "velocity": 101,
      "chip": "ym2612"
    },
    {
      "channel": 3,
      "note": 66,
      "start": 32.9876,
      "duration": 0.0161,
      "velocity": 101,
      "chip": "ym2612"
    },
    {
      "channel": 2,
      "note": 66,
      "start": 32.9886,
      "duration": 0.0161,
      "velocity": 100,
      "chip": "ym2612"
    },
    {
      "channel": 1,
      "note": 71,
      "start": 32.9898,
      "duration": 0.0161,
      "velocity": 101,
      "chip": "ym2612"
    },
    {
      "channel": 0,
      "note": 77,
      "start": 33.0013,
      "duration": 0.0161,
      "velocity": 124,
      "chip": "ym2612"
    },
    {
      "channel": 4,
      "note": 63,
      "start": 33.0025,
      "duration": 0.0161,
      "velocity": 101,
      "chip": "ym2612"
    },
    {
      "channel": 3,
      "note": 66,
      "start": 33.0037,
      "duration": 0.0161,
      "velocity": 101,
      "chip": "ym2612"
    },
    {
      "channel": 2,
      "note": 66,
      "start": 33.0047,
      "duration": 0.0161,
      "velocity": 100,
      "chip": "ym2612"
    },
    {
      "channel": 1,
      "note": 71,
      "start": 33.0059,
      "duration": 0.0161,
      "velocity": 101,
      "chip": "ym2612"
    },
    {
      "channel": 0,
      "note": 75,
      "start": 33.0174,
      "duration": 0.0161,
      "velocity": 124,
      "chip": "ym2612"
    },
    {
      "channel": 4,
      "note": 63,
      "start": 33.0186,
      "duration": 0.0161,
      "velocity": 101,
      "chip": "ym2612"
    },
    {
      "channel": 3,
      "note": 66,
      "start": 33.0198,
      "duration": 0.0161,
      "velocity": 101,
      "chip": "ym2612"
    },
    {
      "channel": 2,
      "note": 66,
      "start": 33.0208,
      "duration": 0.0162,
      "velocity": 100,
      "chip": "ym2612"
    },
    {
      "channel": 1,
      "note": 71,
      "start": 33.022,
      "duration": 0.0161,
      "velocity": 101,
      "chip": "ym2612"
    },
    {
      "channel": 0,
      "note": 72,
      "start": 33.0335,
      "duration": 0.0161,
      "velocity": 124,
      "chip": "ym2612"
    },
    {
      "channel": 4,
      "note": 63,
      "start": 33.0347,
      "duration": 0.0161,
      "velocity": 101,
      "chip": "ym2612"
    },
    {
      "channel": 3,
      "note": 66,
      "start": 33.0358,
      "duration": 0.0161,
      "velocity": 101,
      "chip": "ym2612"
    },
    {
      "channel": 2,
      "note": 66,
      "start": 33.037,
      "duration": 0.0161,
      "velocity": 100,
      "chip": "ym2612"
    },
    {
      "channel": 1,
      "note": 71,
      "start": 33.0381,
      "duration": 0.0161,
      "velocity": 101,
      "chip": "ym2612"
    },
    {
      "channel": 0,
      "note": 70,
      "start": 33.0496,
      "duration": 0.0161,
      "velocity": 124,
      "chip": "ym2612"
    },
    {
      "channel": 4,
      "note": 63,
      "start": 33.0508,
      "duration": 0.0161,
      "velocity": 101,
      "chip": "ym2612"
    },
    {
      "channel": 3,
      "note": 66,
      "start": 33.0519,
      "duration": 0.0161,
      "velocity": 101,
      "chip": "ym2612"
    },
    {
      "channel": 2,
      "note": 66,
      "start": 33.0531,
      "duration": 0.0161,
      "velocity": 100,
      "chip": "ym2612"
    },
    {
      "channel": 1,
      "note": 71,
      "start": 33.0542,
      "duration": 0.0161,
      "velocity": 101,
      "chip": "ym2612"
    },
    {
      "channel": 0,
      "note": 68,
      "start": 33.0657,
      "duration": 0.0161,
      "velocity": 124,
      "chip": "ym2612"
    },
    {
      "channel": 4,
      "note": 63,
      "start": 33.0669,
      "duration": 0.0161,
      "velocity": 101,
      "chip": "ym2612"
    },
    {
      "channel": 3,
      "note": 66,
      "start": 33.068,
      "duration": 0.0161,
      "velocity": 101,
      "chip": "ym2612"
    },
    {
      "channel": 1,
      "note": 71,
      "start": 33.0703,
      "duration": 0.0161,
      "velocity": 101,
      "chip": "ym2612"
    },
    {
      "channel": 0,
      "note": 65,
      "start": 33.0818,
      "duration": 0.0161,
      "velocity": 124,
      "chip": "ym2612"
    },
    {
      "channel": 4,
      "note": 63,
      "start": 33.083,
      "duration": 0.0161,
      "velocity": 101,
      "chip": "ym2612"
    },
    {
      "channel": 3,
      "note": 66,
      "start": 33.0841,
      "duration": 0.0161,
      "velocity": 101,
      "chip": "ym2612"
    },
    {
      "channel": 1,
      "note": 71,
      "start": 33.0864,
      "duration": 0.0161,
      "velocity": 101,
      "chip": "ym2612"
    },
    {
      "channel": 0,
      "note": 63,
      "start": 33.0979,
      "duration": 0.0153,
      "velocity": 1,
      "chip": "ym2612"
    },
    {
      "channel": 4,
      "note": 63,
      "start": 33.0991,
      "duration": 0.0153,
      "velocity": 101,
      "chip": "ym2612"
    },
    {
      "channel": 3,
      "note": 66,
      "start": 33.1002,
      "duration": 0.0153,
      "velocity": 101,
      "chip": "ym2612"
    },
    {
      "channel": 1,
      "note": 71,
      "start": 33.1025,
      "duration": 0.0153,
      "velocity": 101,
      "chip": "ym2612"
    },
    {
      "channel": 4,
      "note": 63,
      "start": 33.1144,
      "duration": 0.0152,
      "velocity": 101,
      "chip": "ym2612"
    },
    {
      "channel": 3,
      "note": 66,
      "start": 33.1155,
      "duration": 0.0152,
      "velocity": 101,
      "chip": "ym2612"
    },
    {
      "channel": 1,
      "note": 71,
      "start": 33.1178,
      "duration": 0.0152,
      "velocity": 101,
      "chip": "ym2612"
    },
    {
      "channel": 4,
      "note": 63,
      "start": 33.1296,
      "duration": 0.0162,
      "velocity": 101,
      "chip": "ym2612"
    },
    {
      "channel": 3,
      "note": 66,
      "start": 33.1307,
      "duration": 0.0162,
      "velocity": 101,
      "chip": "ym2612"
    },
    {
      "channel": 1,
      "note": 71,
      "start": 33.133,
      "duration": 0.0161,
      "velocity": 101,
      "chip": "ym2612"
    },
    {
      "channel": 4,
      "note": 63,
      "start": 33.1458,
      "duration": 0.0162,
      "velocity": 101,
      "chip": "ym2612"
    },
    {
      "channel": 3,
      "note": 66,
      "start": 33.1469,
      "duration": 0.0162,
      "velocity": 101,
      "chip": "ym2612"
    },
    {
      "channel": 1,
      "note": 71,
      "start": 33.1491,
      "duration": 0.0163,
      "velocity": 101,
      "chip": "ym2612"
    },
    {
      "channel": 4,
      "note": 63,
      "start": 33.162,
      "duration": 0.0204,
      "velocity": 101,
      "chip": "ym2612"
    },
    {
      "channel": 3,
      "note": 66,
      "start": 33.1631,
      "duration": 0.0206,
      "velocity": 101,
      "chip": "ym2612"
    },
    {
      "channel": 1,
      "note": 71,
      "start": 33.1654,
      "duration": 0.0211,
      "velocity": 101,
      "chip": "ym2612"
    },
    {
      "channel": 0,
      "note": 36,
      "start": 33.1809,
      "duration": 0.0146,
      "velocity": 115,
      "chip": "ym2612"
    },
    {
      "channel": 4,
      "note": 63,
      "start": 33.1823,
      "duration": 0.0144,
      "velocity": 101,
      "chip": "ym2612"
    },
    {
      "channel": 3,
      "note": 66,
      "start": 33.1837,
      "duration": 0.0142,
      "velocity": 101,
      "chip": "ym2612"
    },
    {
      "channel": 2,
      "note": 54,
      "start": 33.1851,
      "duration": 0.0139,
      "velocity": 100,
      "chip": "ym2612"
    },
    {
      "channel": 1,
      "note": 71,
      "start": 33.1866,
      "duration": 0.0137,
      "velocity": 101,
      "chip": "ym2612"
    },
    {
      "channel": 0,
      "note": 36,
      "start": 33.1955,
      "duration": 0.0151,
      "velocity": 115,
      "chip": "ym2612"
    },
    {
      "channel": 4,
      "note": 63,
      "start": 33.1967,
      "duration": 0.0151,
      "velocity": 101,
      "chip": "ym2612"
    },
    {
      "channel": 3,
      "note": 66,
      "start": 33.1979,
      "duration": 0.015,
      "velocity": 101,
      "chip": "ym2612"
    },
    {
      "channel": 2,
      "note": 54,
      "start": 33.1991,
      "duration": 0.015,
      "velocity": 100,
      "chip": "ym2612"
    },
    {
      "channel": 1,
      "note": 71,
      "start": 33.2003,
      "duration": 0.0149,
      "velocity": 101,
      "chip": "ym2612"
    },
    {
      "channel": 0,
      "note": 37,
      "start": 33.2106,
      "duration": 0.0185,
      "velocity": 115,
      "chip": "ym2612"
    },
    {
      "channel": 4,
      "note": 63,
      "start": 33.2118,
      "duration": 0.0185,
      "velocity": 101,
      "chip": "ym2612"
    },
    {
      "channel": 3,
      "note": 66,
      "start": 33.2129,
      "duration": 0.0185,
      "velocity": 101,
      "chip": "ym2612"
    },
    {
      "channel": 2,
      "note": 54,
      "start": 33.2141,
      "duration": 0.0185,
      "velocity": 100,
      "chip": "ym2612"
    },
    {
      "channel": 1,
      "note": 71,
      "start": 33.2152,
      "duration": 0.0185,
      "velocity": 101,
      "chip": "ym2612"
    },
    {
      "channel": 0,
      "note": 37,
      "start": 33.2292,
      "duration": 0.0164,
      "velocity": 115,
      "chip": "ym2612"
    },
    {
      "channel": 4,
      "note": 63,
      "start": 33.2303,
      "duration": 0.0164,
      "velocity": 101,
      "chip": "ym2612"
    },
    {
      "channel": 3,
      "note": 66,
      "start": 33.2315,
      "duration": 0.0164,
      "velocity": 101,
      "chip": "ym2612"
    },
    {
      "channel": 2,
      "note": 54,
      "start": 33.2326,
      "duration": 0.0164,
      "velocity": 100,
      "chip": "ym2612"
    },
    {
      "channel": 1,
      "note": 71,
      "start": 33.2337,
      "duration": 0.0164,
      "velocity": 101,
      "chip": "ym2612"
    },
    {
      "channel": 0,
      "note": 38,
      "start": 33.2456,
      "duration": 0.0157,
      "velocity": 115,
      "chip": "ym2612"
    },
    {
      "channel": 4,
      "note": 63,
      "start": 33.2467,
      "duration": 0.0158,
      "velocity": 101,
      "chip": "ym2612"
    },
    {
      "channel": 3,
      "note": 66,
      "start": 33.2479,
      "duration": 0.0158,
      "velocity": 101,
      "chip": "ym2612"
    },
    {
      "channel": 2,
      "note": 54,
      "start": 33.249,
      "duration": 0.0157,
      "velocity": 100,
      "chip": "ym2612"
    },
    {
      "channel": 1,
      "note": 71,
      "start": 33.2502,
      "duration": 0.0157,
      "velocity": 101,
      "chip": "ym2612"
    },
    {
      "channel": 0,
      "note": 38,
      "start": 33.2613,
      "duration": 0.0141,
      "velocity": 115,
      "chip": "ym2612"
    },
    {
      "channel": 4,
      "note": 63,
      "start": 33.2625,
      "duration": 0.0141,
      "velocity": 101,
      "chip": "ym2612"
    },
    {
      "channel": 3,
      "note": 66,
      "start": 33.2636,
      "duration": 0.0141,
      "velocity": 101,
      "chip": "ym2612"
    },
    {
      "channel": 2,
      "note": 54,
      "start": 33.2647,
      "duration": 0.0141,
      "velocity": 100,
      "chip": "ym2612"
    },
    {
      "channel": 1,
      "note": 71,
      "start": 33.2659,
      "duration": 0.014,
      "velocity": 101,
      "chip": "ym2612"
    },
    {
      "channel": 0,
      "note": 39,
      "start": 33.2754,
      "duration": 0.0185,
      "velocity": 115,
      "chip": "ym2612"
    },
    {
      "channel": 4,
      "note": 63,
      "start": 33.2766,
      "duration": 0.0185,
      "velocity": 101,
      "chip": "ym2612"
    },
    {
      "channel": 3,
      "note": 66,
      "start": 33.2777,
      "duration": 0.0185,
      "velocity": 101,
      "chip": "ym2612"
    },
    {
      "channel": 2,
      "note": 54,
      "start": 33.2788,
      "duration": 0.0186,
      "velocity": 100,
      "chip": "ym2612"
    },
    {
      "channel": 1,
      "note": 71,
      "start": 33.2799,
      "duration": 0.0186,
      "velocity": 101,
      "chip": "ym2612"
    },
    {
      "channel": 0,
      "note": 39,
      "start": 33.2939,
      "duration": 0.0134,
      "velocity": 115,
      "chip": "ym2612"
    },
    {
      "channel": 4,
      "note": 63,
      "start": 33.2951,
      "duration": 0.0161,
      "velocity": 101,
      "chip": "ym2612"
    },
    {
      "channel": 3,
      "note": 66,
      "start": 33.2962,
      "duration": 0.0161,
      "velocity": 101,
      "chip": "ym2612"
    },
    {
      "channel": 1,
      "note": 71,
      "start": 33.2985,
      "duration": 0.0161,
      "velocity": 101,
      "chip": "ym2612"
    },
    {
      "channel": 0,
      "note": 40,
      "start": 33.3072,
      "duration": 0.0162,
      "velocity": 115,
      "chip": "ym2612"
    },
    {
      "channel": 4,
      "note": 63,
      "start": 33.3112,
      "duration": 0.0157,
      "velocity": 101,
      "chip": "ym2612"
    },
    {
      "channel": 3,
      "note": 66,
      "start": 33.3123,
      "duration": 0.0157,
      "velocity": 101,
      "chip": "ym2612"
    },
    {
      "channel": 1,
      "note": 71,
      "start": 33.3146,
      "duration": 0.0157,
      "velocity": 101,
      "chip": "ym2612"
    },
    {
      "channel": 0,
      "note": 40,
      "start": 33.3234,
      "duration": 0.0161,
      "velocity": 115,
      "chip": "ym2612"
    },
    {
      "channel": 4,
      "note": 63,
      "start": 33.3269,
      "duration": 0.0137,
      "velocity": 101,
      "chip": "ym2612"
    },
    {
      "channel": 3,
      "note": 66,
      "start": 33.328,
      "duration": 0.0141,
      "velocity": 101,
      "chip": "ym2612"
    },
    {
      "channel": 1,
      "note": 71,
      "start": 33.3303,
      "duration": 0.0141,
      "velocity": 101,
      "chip": "ym2612"
    },
    {
      "channel": 0,
      "note": 40,
      "start": 33.3395,
      "duration": 0.0161,
      "velocity": 115,
      "chip": "ym2612"
    },
    {
      "channel": 4,
      "note": 63,
      "start": 33.3406,
      "duration": 0.0161,
      "velocity": 101,
      "chip": "ym2612"
    },
    {
      "channel": 3,
      "note": 66,
      "start": 33.3421,
      "duration": 0.0185,
      "velocity": 101,
      "chip": "ym2612"
    },
    {
      "channel": 1,
      "note": 71,
      "start": 33.3444,
      "duration": 0.0185,
      "velocity": 101,
      "chip": "ym2612"
    },
    {
      "channel": 0,
      "note": 41,
      "start": 33.3556,
      "duration": 0.0161,
      "velocity": 115,
      "chip": "ym2612"
    },
    {
      "channel": 4,
      "note": 63,
      "start": 33.3567,
      "duration": 0.0161,
      "velocity": 101,
      "chip": "ym2612"
    },
    {
      "channel": 3,
      "note": 66,
      "start": 33.3606,
      "duration": 0.0134,
      "velocity": 101,
      "chip": "ym2612"
    },
    {
      "channel": 1,
      "note": 71,
      "start": 33.3629,
      "duration": 0.0161,
      "velocity": 101,
      "chip": "ym2612"
    },
    {
      "channel": 0,
      "note": 41,
      "start": 33.3717,
      "duration": 0.0161,
      "velocity": 115,
      "chip": "ym2612"
    },
    {
      "channel": 4,
      "note": 63,
      "start": 33.3728,
      "duration": 0.0161,
      "velocity": 101,
      "chip": "ym2612"
    },
    {
      "channel": 3,
      "note": 66,
      "start": 33.3739,
      "duration": 0.0161,
      "velocity": 101,
      "chip": "ym2612"
    },
    {
      "channel": 1,
      "note": 71,
      "start": 33.379,
      "duration": 0.0158,
      "velocity": 101,
      "chip": "ym2612"
    },
    {
      "channel": 0,
      "note": 42,
      "start": 33.3878,
      "duration": 0.0161,
      "velocity": 115,
      "chip": "ym2612"
    },
    {
      "channel": 4,
      "note": 63,
      "start": 33.3889,
      "duration": 0.0161,
      "velocity": 101,
      "chip": "ym2612"
    },
    {
      "channel": 3,
      "note": 66,
      "start": 33.39,
      "duration": 0.0161,
      "velocity": 101,
      "chip": "ym2612"
    },
    {
      "channel": 1,
      "note": 71,
      "start": 33.3947,
      "duration": 0.0143,
      "velocity": 101,
      "chip": "ym2612"
    },
    {
      "channel": 0,
      "note": 42,
      "start": 33.4038,
      "duration": 0.0161,
      "velocity": 115,
      "chip": "ym2612"
    },
    {
      "channel": 4,
      "note": 63,
      "start": 33.405,
      "duration": 0.0161,
      "velocity": 101,
      "chip": "ym2612"
    },
    {
      "channel": 3,
      "note": 66,
      "start": 33.4061,
      "duration": 0.0161,
      "velocity": 101,
      "chip": "ym2612"
    },
    {
      "channel": 2,
      "note": 59,
      "start": 33.4075,
      "duration": 0.0159,
      "velocity": 100,
      "chip": "ym2612"
    },
    {
      "channel": 1,
      "note": 71,
      "start": 33.409,
      "duration": 0.0183,
      "velocity": 101,
      "chip": "ym2612"
    },
    {
      "channel": 0,
      "note": 43,
      "start": 33.4199,
      "duration": 0.0161,
      "velocity": 115,
      "chip": "ym2612"
    },
    {
      "channel": 4,
      "note": 63,
      "start": 33.4211,
      "duration": 0.0161,
      "velocity": 101,
      "chip": "ym2612"
    },
    {
      "channel": 3,
      "note": 66,
      "start": 33.4222,
      "duration": 0.0161,
      "velocity": 101,
      "chip": "ym2612"
    },
    {
      "channel": 2,
      "note": 59,
      "start": 33.4234,
      "duration": 0.016,
      "velocity": 100,
      "chip": "ym2612"
    },
    {
      "channel": 1,
      "note": 71,
      "start": 33.4273,
      "duration": 0.0133,
      "velocity": 101,
      "chip": "ym2612"
    },
    {
      "channel": 0,
      "note": 43,
      "start": 33.436,
      "duration": 0.0161,
      "velocity": 115,
      "chip": "ym2612"
    },
    {
      "channel": 4,
      "note": 63,
      "start": 33.4372,
      "duration": 0.0162,
      "velocity": 101,
      "chip": "ym2612"
    },
    {
      "channel": 3,
      "note": 66,
      "start": 33.4383,
      "duration": 0.0161,
      "velocity": 101,
      "chip": "ym2612"
    },
    {
      "channel": 2,
      "note": 59,
      "start": 33.4395,
      "duration": 0.0161,
      "velocity": 100,
      "chip": "ym2612"
    },
    {
      "channel": 1,
      "note": 71,
      "start": 33.4406,
      "duration": 0.0161,
      "velocity": 101,
      "chip": "ym2612"
    },
    {
      "channel": 0,
      "note": 44,
      "start": 33.4521,
      "duration": 0.0161,
      "velocity": 115,
      "chip": "ym2612"
    },
    {
      "channel": 4,
      "note": 63,
      "start": 33.4533,
      "duration": 0.0161,
      "velocity": 101,
      "chip": "ym2612"
    },
    {
      "channel": 3,
      "note": 66,
      "start": 33.4545,
      "duration": 0.0161,
      "velocity": 101,
      "chip": "ym2612"
    },
    {
      "channel": 2,
      "note": 59,
      "start": 33.4556,
      "duration": 0.0162,
      "velocity": 100,
      "chip": "ym2612"
    },
    {
      "channel": 1,
      "note": 71,
      "start": 33.4567,
      "duration": 0.0161,
      "velocity": 101,
      "chip": "ym2612"
    },
    {
      "channel": 0,
      "note": 44,
      "start": 33.4682,
      "duration": 0.0162,
      "velocity": 115,
      "chip": "ym2612"
    },
    {
      "channel": 4,
      "note": 63,
      "start": 33.4694,
      "duration": 0.0161,
      "velocity": 101,
      "chip": "ym2612"
    },
    {
      "channel": 3,
      "note": 66,
      "start": 33.4706,
      "duration": 0.0161,
      "velocity": 101,
      "chip": "ym2612"
    },
    {
      "channel": 2,
      "note": 59,
      "start": 33.4717,
      "duration": 0.0161,
      "velocity": 100,
      "chip": "ym2612"
    },
    {
      "channel": 1,
      "note": 71,
      "start": 33.4729,
      "duration": 0.0161,
      "velocity": 101,
      "chip": "ym2612"
    },
    {
      "channel": 0,
      "note": 44,
      "start": 33.4844,
      "duration": 0.0161,
      "velocity": 115,
      "chip": "ym2612"
    },
    {
      "channel": 4,
      "note": 63,
      "start": 33.4855,
      "duration": 0.0161,
      "velocity": 101,
      "chip": "ym2612"
    },
    {
      "channel": 3,
      "note": 66,
      "start": 33.4867,
      "duration": 0.0161,
      "velocity": 101,
      "chip": "ym2612"
    },
    {
      "channel": 2,
      "note": 59,
      "start": 33.4878,
      "duration": 0.0161,
      "velocity": 100,
      "chip": "ym2612"
    },
    {
      "channel": 1,
      "note": 71,
      "start": 33.489,
      "duration": 0.0161,
      "velocity": 101,
      "chip": "ym2612"
    },
    {
      "channel": 0,
      "note": 45,
      "start": 33.5005,
      "duration": 0.0161,
      "velocity": 115,
      "chip": "ym2612"
    },
    {
      "channel": 4,
      "note": 63,
      "start": 33.5016,
      "duration": 0.0161,
      "velocity": 101,
      "chip": "ym2612"
    },
    {
      "channel": 3,
      "note": 66,
      "start": 33.5028,
      "duration": 0.0161,
      "velocity": 101,
      "chip": "ym2612"
    },
    {
      "channel": 2,
      "note": 59,
      "start": 33.5039,
      "duration": 0.0161,
      "velocity": 100,
      "chip": "ym2612"
    },
    {
      "channel": 1,
      "note": 71,
      "start": 33.5051,
      "duration": 0.0161,
      "velocity": 101,
      "chip": "ym2612"
    },
    {
      "channel": 0,
      "note": 45,
      "start": 33.5166,
      "duration": 0.0161,
      "velocity": 115,
      "chip": "ym2612"
    },
    {
      "channel": 4,
      "note": 63,
      "start": 33.5177,
      "duration": 0.0161,
      "velocity": 101,
      "chip": "ym2612"
    },
    {
      "channel": 3,
      "note": 66,
      "start": 33.5188,
      "duration": 0.0161,
      "velocity": 101,
      "chip": "ym2612"
    },
    {
      "channel": 1,
      "note": 71,
      "start": 33.5211,
      "duration": 0.0161,
      "velocity": 101,
      "chip": "ym2612"
    },
    {
      "channel": 0,
      "note": 46,
      "start": 33.5327,
      "duration": 0.0161,
      "velocity": 115,
      "chip": "ym2612"
    },
    {
      "channel": 4,
      "note": 63,
      "start": 33.5338,
      "duration": 0.0161,
      "velocity": 101,
      "chip": "ym2612"
    },
    {
      "channel": 3,
      "note": 66,
      "start": 33.5349,
      "duration": 0.0161,
      "velocity": 101,
      "chip": "ym2612"
    },
    {
      "channel": 1,
      "note": 71,
      "start": 33.5372,
      "duration": 0.0161,
      "velocity": 101,
      "chip": "ym2612"
    },
    {
      "channel": 0,
      "note": 46,
      "start": 33.5488,
      "duration": 0.0161,
      "velocity": 115,
      "chip": "ym2612"
    },
    {
      "channel": 4,
      "note": 63,
      "start": 33.5499,
      "duration": 0.0161,
      "velocity": 101,
      "chip": "ym2612"
    },
    {
      "channel": 3,
      "note": 66,
      "start": 33.551,
      "duration": 0.0161,
      "velocity": 101,
      "chip": "ym2612"
    },
    {
      "channel": 1,
      "note": 71,
      "start": 33.5533,
      "duration": 0.0161,
      "velocity": 101,
      "chip": "ym2612"
    },
    {
      "channel": 0,
      "note": 47,
      "start": 33.5649,
      "duration": 0.0161,
      "velocity": 115,
      "chip": "ym2612"
    },
    {
      "channel": 4,
      "note": 63,
      "start": 33.566,
      "duration": 0.0161,
      "velocity": 101,
      "chip": "ym2612"
    },
    {
      "channel": 3,
      "note": 66,
      "start": 33.5671,
      "duration": 0.0161,
      "velocity": 101,
      "chip": "ym2612"
    },
    {
      "channel": 1,
      "note": 71,
      "start": 33.5694,
      "duration": 0.0161,
      "velocity": 101,
      "chip": "ym2612"
    },
    {
      "channel": 0,
      "note": 47,
      "start": 33.5809,
      "duration": 0.0161,
      "velocity": 115,
      "chip": "ym2612"
    },
    {
      "channel": 4,
      "note": 63,
      "start": 33.5821,
      "duration": 0.0161,
      "velocity": 101,
      "chip": "ym2612"
    },
    {
      "channel": 3,
      "note": 66,
      "start": 33.5832,
      "duration": 0.0162,
      "velocity": 101,
      "chip": "ym2612"
    },
    {
      "channel": 1,
      "note": 71,
      "start": 33.5855,
      "duration": 0.0161,
      "velocity": 101,
      "chip": "ym2612"
    },
    {
      "channel": 0,
      "note": 47,
      "start": 33.597,
      "duration": 0.0161,
      "velocity": 115,
      "chip": "ym2612"
    },
    {
      "channel": 4,
      "note": 63,
      "start": 33.5982,
      "duration": 0.0161,
      "velocity": 101,
      "chip": "ym2612"
    },
    {
      "channel": 3,
      "note": 66,
      "start": 33.5994,
      "duration": 0.0161,
      "velocity": 101,
      "chip": "ym2612"
    },
    {
      "channel": 1,
      "note": 71,
      "start": 33.6016,
      "duration": 0.0161,
      "velocity": 101,
      "chip": "ym2612"
    },
    {
      "channel": 0,
      "note": 48,
      "start": 33.6131,
      "duration": 0.0179,
      "velocity": 115,
      "chip": "ym2612"
    },
    {
      "channel": 4,
      "note": 63,
      "start": 33.6143,
      "duration": 0.0179,
      "velocity": 101,
      "chip": "ym2612"
    },
    {
      "channel": 3,
      "note": 66,
      "start": 33.6155,
      "duration": 0.0179,
      "velocity": 101,
      "chip": "ym2612"
    },
    {
      "channel": 1,
      "note": 71,
      "start": 33.6177,
      "duration": 0.0182,
      "velocity": 101,
      "chip": "ym2612"
    },
    {
      "channel": 0,
      "note": 36,
      "start": 33.6311,
      "duration": 0.0148,
      "velocity": 115,
      "chip": "ym2612"
    },
    {
      "channel": 4,
      "note": 63,
      "start": 33.6322,
      "duration": 0.0148,
      "velocity": 101,
      "chip": "ym2612"
    },
    {
      "channel": 3,
      "note": 66,
      "start": 33.6334,
      "duration": 0.0148,
      "velocity": 101,
      "chip": "ym2612"
    },
    {
      "channel": 2,
      "note": 59,
      "start": 33.6348,
      "duration": 0.0146,
      "velocity": 100,
      "chip": "ym2612"
    },
    {
      "channel": 1,
      "note": 71,
      "start": 33.6359,
      "duration": 0.0146,
      "velocity": 101,
      "chip": "ym2612"
    },
    {
      "channel": 0,
      "note": 36,
      "start": 33.6459,
      "duration": 0.0162,
      "velocity": 115,
      "chip": "ym2612"
    },
    {
      "channel": 4,
      "note": 63,
      "start": 33.647,
      "duration": 0.0162,
      "velocity": 101,
      "chip": "ym2612"
    },
    {
      "channel": 3,
      "note": 66,
      "start": 33.6482,
      "duration": 0.0162,
      "velocity": 101,
      "chip": "ym2612"
    },
    {
      "channel": 2,
      "note": 59,
      "start": 33.6494,
      "duration": 0.0161,
      "velocity": 100,
      "chip": "ym2612"
    },
    {
      "channel": 1,
      "note": 71,
      "start": 33.6505,
      "duration": 0.0162,
      "velocity": 101,
      "chip": "ym2612"
    },
    {
      "channel": 0,
      "note": 37,
      "start": 33.6621,
      "duration": 0.0155,
      "velocity": 115,
      "chip": "ym2612"
    },
    {
      "channel": 4,
      "note": 63,
      "start": 33.6632,
      "duration": 0.0155,
      "velocity": 101,
      "chip": "ym2612"
    },
    {
      "channel": 3,
      "note": 66,
      "start": 33.6644,
      "duration": 0.0155,
      "velocity": 101,
      "chip": "ym2612"
    },
    {
      "channel": 2,
      "note": 59,
      "start": 33.6655,
      "duration": 0.0155,
      "velocity": 100,
      "chip": "ym2612"
    },
    {
      "channel": 1,
      "note": 71,
      "start": 33.6667,
      "duration": 0.0155,
      "velocity": 101,
      "chip": "ym2612"
    },
    {
      "channel": 0,
      "note": 37,
      "start": 33.6776,
      "duration": 0.0183,
      "velocity": 115,
      "chip": "ym2612"
    },
    {
      "channel": 4,
      "note": 63,
      "start": 33.6787,
      "duration": 0.0183,
      "velocity": 101,
      "chip": "ym2612"
    },
    {
      "channel": 3,
      "note": 66,
      "start": 33.6799,
      "duration": 0.0183,
      "velocity": 101,
      "chip": "ym2612"
    },
    {
      "channel": 2,
      "note": 59,
      "start": 33.681,
      "duration": 0.0183,
      "velocity": 100,
      "chip": "ym2612"
    },
    {
      "channel": 1,
      "note": 71,
      "start": 33.6822,
      "duration": 0.0183,
      "velocity": 101,
      "chip": "ym2612"
    },
    {
      "channel": 0,
      "note": 38,
      "start": 33.6958,
      "duration": 0.0167,
      "velocity": 115,
      "chip": "ym2612"
    },
    {
      "channel": 4,
      "note": 63,
      "start": 33.697,
      "duration": 0.0167,
      "velocity": 101,
      "chip": "ym2612"
    },
    {
      "channel": 3,
      "note": 66,
      "start": 33.6981,
      "duration": 0.0167,
      "velocity": 101,
      "chip": "ym2612"
    },
    {
      "channel": 2,
      "note": 59,
      "start": 33.6993,
      "duration": 0.0167,
      "velocity": 100,
      "chip": "ym2612"
    },
    {
      "channel": 1,
      "note": 71,
      "start": 33.7004,
      "duration": 0.0167,
      "velocity": 101,
      "chip": "ym2612"
    },
    {
      "channel": 0,
      "note": 38,
      "start": 33.7125,
      "duration": 0.0158,
      "velocity": 115,
      "chip": "ym2612"
    },
    {
      "channel": 4,
      "note": 63,
      "start": 33.7136,
      "duration": 0.0158,
      "velocity": 101,
      "chip": "ym2612"
    },
    {
      "channel": 3,
      "note": 66,
      "start": 33.7148,
      "duration": 0.0158,
      "velocity": 101,
      "chip": "ym2612"
    },
    {
      "channel": 2,
      "note": 59,
      "start": 33.7159,
      "duration": 0.0158,
      "velocity": 100,
      "chip": "ym2612"
    },
    {
      "channel": 1,
      "note": 71,
      "start": 33.7171,
      "duration": 0.0158,
      "velocity": 101,
      "chip": "ym2612"
    },
    {
      "channel": 0,
      "note": 39,
      "start": 33.7283,
      "duration": 0.014,
      "velocity": 115,
      "chip": "ym2612"
    },
    {
      "channel": 4,
      "note": 63,
      "start": 33.7294,
      "duration": 0.0141,
      "velocity": 101,
      "chip": "ym2612"
    },
    {
      "channel": 3,
      "note": 66,
      "start": 33.7306,
      "duration": 0.0141,
      "velocity": 101,
      "chip": "ym2612"
    },
    {
      "channel": 2,
      "note": 59,
      "start": 33.7317,
      "duration": 0.0141,
      "velocity": 100,
      "chip": "ym2612"
    },
    {
      "channel": 1,
      "note": 71,
      "start": 33.7329,
      "duration": 0.0141,
      "velocity": 101,
      "chip": "ym2612"
    },
    {
      "channel": 0,
      "note": 39,
      "start": 33.7423,
      "duration": 0.0186,
      "velocity": 115,
      "chip": "ym2612"
    },
    {
      "channel": 4,
      "note": 63,
      "start": 33.7435,
      "duration": 0.0185,
      "velocity": 101,
      "chip": "ym2612"
    },
    {
      "channel": 3,
      "note": 66,
      "start": 33.7446,
      "duration": 0.0185,
      "velocity": 101,
      "chip": "ym2612"
    },
    {
      "channel": 1,
      "note": 71,
      "start": 33.7469,
      "duration": 0.0185,
      "velocity": 101,
      "chip": "ym2612"
    },
    {
      "channel": 0,
      "note": 40,
      "start": 33.7608,
      "duration": 0.0134,
      "velocity": 115,
      "chip": "ym2612"
    },
    {
      "channel": 4,
      "note": 63,
      "start": 33.762,
      "duration": 0.0161,
      "velocity": 101,
      "chip": "ym2612"
    },
    {
      "channel": 3,
      "note": 66,
      "start": 33.7631,
      "duration": 0.0161,
      "velocity": 101,
      "chip": "ym2612"
    },
    {
      "channel": 1,
      "note": 71,
      "start": 33.7654,
      "duration": 0.0161,
      "velocity": 101,
      "chip": "ym2612"
    },
    {
      "channel": 0,
      "note": 40,
      "start": 33.7742,
      "duration": 0.0161,
      "velocity": 115,
      "chip": "ym2612"
    },
    {
      "channel": 4,
      "note": 63,
      "start": 33.7781,
      "duration": 0.0158,
      "velocity": 101,
      "chip": "ym2612"
    },
    {
      "channel": 3,
      "note": 66,
      "start": 33.7792,
      "duration": 0.0158,
      "velocity": 101,
      "chip": "ym2612"
    },
    {
      "channel": 1,
      "note": 71,
      "start": 33.7815,
      "duration": 0.0157,
      "velocity": 101,
      "chip": "ym2612"
    },
    {
      "channel": 0,
      "note": 40,
      "start": 33.7903,
      "duration": 0.0161,
      "velocity": 115,
      "chip": "ym2612"
    },
    {
      "channel": 4,
      "note": 63,
      "start": 33.7939,
      "duration": 0.0137,
      "velocity": 101,
      "chip": "ym2612"
    },
    {
      "channel": 3,
      "note": 66,
      "start": 33.795,
      "duration": 0.014,
      "velocity": 101,
      "chip": "ym2612"
    },
    {
      "channel": 1,
      "note": 71,
      "start": 33.7972,
      "duration": 0.0141,
      "velocity": 101,
      "chip": "ym2612"
    },
    {
      "channel": 0,
      "note": 41,
      "start": 33.8064,
      "duration": 0.0161,
      "velocity": 115,
      "chip": "ym2612"
    },
    {
      "channel": 4,
      "note": 63,
      "start": 33.8075,
      "duration": 0.0161,
      "velocity": 101,
      "chip": "ym2612"
    },
    {
      "channel": 3,
      "note": 66,
      "start": 33.809,
      "duration": 0.0185,
      "velocity": 101,
      "chip": "ym2612"
    },
    {
      "channel": 1,
      "note": 71,
      "start": 33.8113,
      "duration": 0.0185,
      "velocity": 101,
      "chip": "ym2612"
    },
    {
      "channel": 0,
      "note": 41,
      "start": 33.8225,
      "duration": 0.0161,
      "velocity": 115,
      "chip": "ym2612"
    },
    {
      "channel": 4,
      "note": 63,
      "start": 33.8236,
      "duration": 0.0161,
      "velocity": 101,
      "chip": "ym2612"
    },
    {
      "channel": 3,
      "note": 66,
      "start": 33.8275,
      "duration": 0.0134,
      "velocity": 101,
      "chip": "ym2612"
    },
    {
      "channel": 1,
      "note": 71,
      "start": 33.8298,
      "duration": 0.0161,
      "velocity": 101,
      "chip": "ym2612"
    },
    {
      "channel": 0,
      "note": 42,
      "start": 33.8386,
      "duration": 0.0179,
      "velocity": 124,
      "chip": "ym2612"
    },
    {
      "channel": 4,
      "note": 63,
      "start": 33.8397,
      "duration": 0.0179,
      "velocity": 101,
      "chip": "ym2612"
    },
    {
      "channel": 3,
      "note": 66,
      "start": 33.8409,
      "duration": 0.0203,
      "velocity": 101,
      "chip": "ym2612"
    },
    {
      "channel": 1,
      "note": 71,
      "start": 33.8459,
      "duration": 0.0178,
      "velocity": 101,
      "chip": "ym2612"
    },
    {
      "channel": 0,
      "note": 84,
      "start": 33.8564,
      "duration": 0.0144,
      "velocity": 124,
      "chip": "ym2612"
    },
    {
      "channel": 4,
      "note": 63,
      "start": 33.8577,
      "duration": 0.0144,
      "velocity": 101,
      "chip": "ym2612"
    },
    {
      "channel": 3,
      "note": 66,
      "start": 33.8612,
      "duration": 0.012,
      "velocity": 101,
      "chip": "ym2612"
    },
    {
      "channel": 2,
      "note": 71,
      "start": 33.8626,
      "duration": 0.0118,
      "velocity": 100,
      "chip": "ym2612"
    },
    {
      "channel": 1,
      "note": 71,
      "start": 33.8637,
      "duration": 0.0122,
      "velocity": 101,
      "chip": "ym2612"
    },
    {
      "channel": 0,
      "note": 82,
      "start": 33.8708,
      "duration": 0.016,
      "velocity": 124,
      "chip": "ym2612"
    },
    {
      "channel": 4,
      "note": 63,
      "start": 33.872,
      "duration": 0.016,
      "velocity": 101,
      "chip": "ym2612"
    },
    {
      "channel": 3,
      "note": 66,
      "start": 33.8732,
      "duration": 0.016,
      "velocity": 101,
      "chip": "ym2612"
    },
    {
      "channel": 2,
      "note": 71,
      "start": 33.8743,
      "duration": 0.016,
      "velocity": 100,
      "chip": "ym2612"
    },
    {
      "channel": 1,
      "note": 71,
      "start": 33.8759,
      "duration": 0.0184,
      "velocity": 101,
      "chip": "ym2612"
    },
    {
      "channel": 0,
      "note": 80,
      "start": 33.8868,
      "duration": 0.0161,
      "velocity": 124,
      "chip": "ym2612"
    },
    {
      "channel": 4,
      "note": 63,
      "start": 33.8881,
      "duration": 0.0161,
      "velocity": 101,
      "chip": "ym2612"
    },
    {
      "channel": 3,
      "note": 66,
      "start": 33.8892,
      "duration": 0.0161,
      "velocity": 101,
      "chip": "ym2612"
    },
    {
      "channel": 2,
      "note": 71,
      "start": 33.8903,
      "duration": 0.0161,
      "velocity": 100,
      "chip": "ym2612"
    },
    {
      "channel": 1,
      "note": 71,
      "start": 33.8942,
      "duration": 0.0134,
      "velocity": 101,
      "chip": "ym2612"
    },
    {
      "channel": 0,
      "note": 77,
      "start": 33.9029,
      "duration": 0.0162,
      "velocity": 124,
      "chip": "ym2612"
    },
    {
      "channel": 4,
      "note": 63,
      "start": 33.9041,
      "duration": 0.0161,
      "velocity": 101,
      "chip": "ym2612"
    },
    {
      "channel": 3,
      "note": 66,
      "start": 33.9053,
      "duration": 0.0161,
      "velocity": 101,
      "chip": "ym2612"
    },
    {
      "channel": 2,
      "note": 71,
      "start": 33.9064,
      "duration": 0.0161,
      "velocity": 100,
      "chip": "ym2612"
    },
    {
      "channel": 1,
      "note": 71,
      "start": 33.9076,
      "duration": 0.0161,
      "velocity": 101,
      "chip": "ym2612"
    },
    {
      "channel": 0,
      "note": 75,
      "start": 33.9191,
      "duration": 0.0161,
      "velocity": 124,
      "chip": "ym2612"
    },
    {
      "channel": 4,
      "note": 63,
      "start": 33.9202,
      "duration": 0.0161,
      "velocity": 101,
      "chip": "ym2612"
    },
    {
      "channel": 3,
      "note": 66,
      "start": 33.9214,
      "duration": 0.0161,
      "velocity": 101,
      "chip": "ym2612"
    },
    {
      "channel": 2,
      "note": 71,
      "start": 33.9225,
      "duration": 0.0161,
      "velocity": 100,
      "chip": "ym2612"
    },
    {
      "channel": 1,
      "note": 71,
      "start": 33.9237,
      "duration": 0.0161,
      "velocity": 101,
      "chip": "ym2612"
    },
    {
      "channel": 0,
      "note": 72,
      "start": 33.9352,
      "duration": 0.0161,
      "velocity": 124,
      "chip": "ym2612"
    },
    {
      "channel": 4,
      "note": 63,
      "start": 33.9363,
      "duration": 0.0161,
      "velocity": 101,
      "chip": "ym2612"
    },
    {
      "channel": 3,
      "note": 66,
      "start": 33.9375,
      "duration": 0.0161,
      "velocity": 101,
      "chip": "ym2612"
    },
    {
      "channel": 2,
      "note": 71,
      "start": 33.9386,
      "duration": 0.0161,
      "velocity": 100,
      "chip": "ym2612"
    },
    {
      "channel": 1,
      "note": 71,
      "start": 33.9398,
      "duration": 0.0161,
      "velocity": 101,
      "chip": "ym2612"
    },
    {
      "channel": 0,
      "note": 70,
      "start": 33.9513,
      "duration": 0.0161,
      "velocity": 124,
      "chip": "ym2612"
    },
    {
      "channel": 4,
      "note": 63,
      "start": 33.9524,
      "duration": 0.0161,
      "velocity": 101,
      "chip": "ym2612"
    },
    {
      "channel": 3,
      "note": 66,
      "start": 33.9536,
      "duration": 0.0161,
      "velocity": 101,
      "chip": "ym2612"
    },
    {
      "channel": 2,
      "note": 71,
      "start": 33.9547,
      "duration": 0.0161,
      "velocity": 100,
      "chip": "ym2612"
    },
    {
      "channel": 1,
      "note": 71,
      "start": 33.9559,
      "duration": 0.0161,
      "velocity": 101,
      "chip": "ym2612"
    },
    {
      "channel": 0,
      "note": 68,
      "start": 33.9674,
      "duration": 0.0161,
      "velocity": 124,
      "chip": "ym2612"
    },
    {
      "channel": 4,
      "note": 63,
      "start": 33.9685,
      "duration": 0.0161,
      "velocity": 101,
      "chip": "ym2612"
    },
    {
      "channel": 3,
      "note": 66,
      "start": 33.9697,
      "duration": 0.0161,
      "velocity": 101,
      "chip": "ym2612"
    },
    {
      "channel": 1,
      "note": 71,
      "start": 33.972,
      "duration": 0.0161,
      "velocity": 101,
      "chip": "ym2612"
    },
    {
      "channel": 0,
      "note": 65,
      "start": 33.9835,
      "duration": 0.0161,
      "velocity": 124,
      "chip": "ym2612"
    },
    {
      "channel": 4,
      "note": 63,
      "start": 33.9846,
      "duration": 0.0161,
      "velocity": 101,
      "chip": "ym2612"
    },
    {
      "channel": 3,
      "note": 66,
      "start": 33.9858,
      "duration": 0.0161,
      "velocity": 101,
      "chip": "ym2612"
    },
    {
      "channel": 1,
      "note": 71,
      "start": 33.9881,
      "duration": 0.0161,
      "velocity": 101,
      "chip": "ym2612"
    },
    {
      "channel": 0,
      "note": 63,
      "start": 33.9996,
      "duration": 0.0153,
      "velocity": 1,
      "chip": "ym2612"
    },
    {
      "channel": 4,
      "note": 63,
      "start": 34.0007,
      "duration": 0.0153,
      "velocity": 101,
      "chip": "ym2612"
    },
    {
      "channel": 3,
      "note": 66,
      "start": 34.0019,
      "duration": 0.0153,
      "velocity": 101,
      "chip": "ym2612"
    },
    {
      "channel": 1,
      "note": 71,
      "start": 34.0041,
      "duration": 0.0153,
      "velocity": 101,
      "chip": "ym2612"
    },
    {
      "channel": 4,
      "note": 63,
      "start": 34.0161,
      "duration": 0.0153,
      "velocity": 101,
      "chip": "ym2612"
    },
    {
      "channel": 3,
      "note": 66,
      "start": 34.0172,
      "duration": 0.0153,
      "velocity": 101,
      "chip": "ym2612"
    },
    {
      "channel": 1,
      "note": 71,
      "start": 34.0195,
      "duration": 0.0153,
      "velocity": 101,
      "chip": "ym2612"
    },
    {
      "channel": 4,
      "note": 63,
      "start": 34.0313,
      "duration": 0.0161,
      "velocity": 101,
      "chip": "ym2612"
    },
    {
      "channel": 3,
      "note": 66,
      "start": 34.0325,
      "duration": 0.0161,
      "velocity": 101,
      "chip": "ym2612"
    },
    {
      "channel": 1,
      "note": 71,
      "start": 34.0348,
      "duration": 0.0161,
      "velocity": 101,
      "chip": "ym2612"
    },
    {
      "channel": 4,
      "note": 63,
      "start": 34.0474,
      "duration": 0.0161,
      "velocity": 101,
      "chip": "ym2612"
    },
    {
      "channel": 3,
      "note": 66,
      "start": 34.0485,
      "duration": 0.0161,
      "velocity": 101,
      "chip": "ym2612"
    },
    {
      "channel": 1,
      "note": 71,
      "start": 34.0508,
      "duration": 0.0161,
      "velocity": 101,
      "chip": "ym2612"
    },
    {
      "channel": 4,
      "note": 63,
      "start": 34.0635,
      "duration": 0.0195,
      "velocity": 101,
      "chip": "ym2612"
    },
    {
      "channel": 3,
      "note": 66,
      "start": 34.0646,
      "duration": 0.0195,
      "velocity": 101,
      "chip": "ym2612"
    },
    {
      "channel": 1,
      "note": 71,
      "start": 34.0669,
      "duration": 0.0198,
      "velocity": 101,
      "chip": "ym2612"
    },
    {
      "channel": 0,
      "note": 36,
      "start": 34.0819,
      "duration": 0.0144,
      "velocity": 115,
      "chip": "ym2612"
    },
    {
      "channel": 4,
      "note": 63,
      "start": 34.083,
      "duration": 0.0144,
      "velocity": 101,
      "chip": "ym2612"
    },
    {
      "channel": 3,
      "note": 66,
      "start": 34.0842,
      "duration": 0.0144,
      "velocity": 101,
      "chip": "ym2612"
    },
    {
      "channel": 2,
      "note": 59,
      "start": 34.0856,
      "duration": 0.0142,
      "velocity": 100,
      "chip": "ym2612"
    },
    {
      "channel": 1,
      "note": 71,
      "start": 34.0867,
      "duration": 0.0142,
      "velocity": 101,
      "chip": "ym2612"
    },
    {
      "channel": 0,
      "note": 36,
      "start": 34.0963,
      "duration": 0.0162,
      "velocity": 115,
      "chip": "ym2612"
    },
    {
      "channel": 4,
      "note": 63,
      "start": 34.0974,
      "duration": 0.0162,
      "velocity": 101,
      "chip": "ym2612"
    },
    {
      "channel": 3,
      "note": 66,
      "start": 34.0985,
      "duration": 0.0162,
      "velocity": 101,
      "chip": "ym2612"
    },
    {
      "channel": 2,
      "note": 59,
      "start": 34.0998,
      "duration": 0.0161,
      "velocity": 100,
      "chip": "ym2612"
    },
    {
      "channel": 1,
      "note": 71,
      "start": 34.1009,
      "duration": 0.0162,
      "velocity": 101,
      "chip": "ym2612"
    },
    {
      "channel": 0,
      "note": 37,
      "start": 34.1125,
      "duration": 0.0163,
      "velocity": 115,
      "chip": "ym2612"
    },
    {
      "channel": 4,
      "note": 63,
      "start": 34.1136,
      "duration": 0.0163,
      "velocity": 101,
      "chip": "ym2612"
    },
    {
      "channel": 3,
      "note": 66,
      "start": 34.1148,
      "duration": 0.0163,
      "velocity": 101,
      "chip": "ym2612"
    },
    {
      "channel": 2,
      "note": 59,
      "start": 34.1159,
      "duration": 0.0163,
      "velocity": 100,
      "chip": "ym2612"
    },
    {
      "channel": 1,
      "note": 71,
      "start": 34.1171,
      "duration": 0.0163,
      "velocity": 101,
      "chip": "ym2612"
    },
    {
      "channel": 0,
      "note": 37,
      "start": 34.1288,
      "duration": 0.0157,
      "velocity": 115,
      "chip": "ym2612"
    },
    {
      "channel": 4,
      "note": 63,
      "start": 34.1299,
      "duration": 0.0157,
      "velocity": 101,
      "chip": "ym2612"
    },
    {
      "channel": 3,
      "note": 66,
      "start": 34.1311,
      "duration": 0.0157,
      "velocity": 101,
      "chip": "ym2612"
    },
    {
      "channel": 2,
      "note": 59,
      "start": 34.1322,
      "duration": 0.0157,
      "velocity": 100,
      "chip": "ym2612"
    },
    {
      "channel": 1,
      "note": 71,
      "start": 34.1334,
      "duration": 0.0157,
      "velocity": 101,
      "chip": "ym2612"
    },
    {
      "channel": 0,
      "note": 38,
      "start": 34.1445,
      "duration": 0.018,
      "velocity": 115,
      "chip": "ym2612"
    },
    {
      "channel": 4,
      "note": 63,
      "start": 34.1456,
      "duration": 0.018,
      "velocity": 101,
      "chip": "ym2612"
    },
    {
      "channel": 3,
      "note": 66,
      "start": 34.1468,
      "duration": 0.018,
      "velocity": 101,
      "chip": "ym2612"
    },
    {
      "channel": 2,
      "note": 59,
      "start": 34.1479,
      "duration": 0.018,
      "velocity": 100,
      "chip": "ym2612"
    },
    {
      "channel": 1,
      "note": 71,
      "start": 34.1491,
      "duration": 0.018,
      "velocity": 101,
      "chip": "ym2612"
    },
    {
      "channel": 0,
      "note": 38,
      "start": 34.1625,
      "duration": 0.0167,
      "velocity": 115,
      "chip": "ym2612"
    },
    {
      "channel": 4,
      "note": 63,
      "start": 34.1636,
      "duration": 0.0167,
      "velocity": 101,
      "chip": "ym2612"
    },
    {
      "channel": 3,
      "note": 66,
      "start": 34.1648,
      "duration": 0.0167,
      "velocity": 101,
      "chip": "ym2612"
    },
    {
      "channel": 2,
      "note": 59,
      "start": 34.1659,
      "duration": 0.0167,
      "velocity": 100,
      "chip": "ym2612"
    },
    {
      "channel": 1,
      "note": 71,
      "start": 34.1671,
      "duration": 0.0167,
      "velocity": 101,
      "chip": "ym2612"
    },
    {
      "channel": 0,
      "note": 39,
      "start": 34.1792,
      "duration": 0.016,
      "velocity": 115,
      "chip": "ym2612"
    },
    {
      "channel": 4,
      "note": 63,
      "start": 34.1803,
      "duration": 0.016,
      "velocity": 101,
      "chip": "ym2612"
    },
    {
      "channel": 3,
      "note": 66,
      "start": 34.1815,
      "duration": 0.016,
      "velocity": 101,
      "chip": "ym2612"
    },
    {
      "channel": 2,
      "note": 59,
      "start": 34.1826,
      "duration": 0.016,
      "velocity": 100,
      "chip": "ym2612"
    },
    {
      "channel": 1,
      "note": 71,
      "start": 34.1837,
      "duration": 0.016,
      "velocity": 101,
      "chip": "ym2612"
    },
    {
      "channel": 0,
      "note": 39,
      "start": 34.1952,
      "duration": 0.0141,
      "velocity": 115,
      "chip": "ym2612"
    },
    {
      "channel": 4,
      "note": 63,
      "start": 34.1963,
      "duration": 0.0141,
      "velocity": 101,
      "chip": "ym2612"
    },
    {
      "channel": 3,
      "note": 66,
      "start": 34.1975,
      "duration": 0.0141,
      "velocity": 101,
      "chip": "ym2612"
    },
    {
      "channel": 1,
      "note": 71,
      "start": 34.1998,
      "duration": 0.0141,
      "velocity": 101,
      "chip": "ym2612"
    },
    {
      "channel": 0,
      "note": 40,
      "start": 34.2093,
      "duration": 0.0185,
      "velocity": 115,
      "chip": "ym2612"
    },
    {
      "channel": 4,
      "note": 63,
      "start": 34.2104,
      "duration": 0.0185,
      "velocity": 101,
      "chip": "ym2612"
    },
    {
      "channel": 3,
      "note": 66,
      "start": 34.2115,
      "duration": 0.0185,
      "velocity": 101,
      "chip": "ym2612"
    },
    {
      "channel": 1,
      "note": 71,
      "start": 34.2138,
      "duration": 0.0185,
      "velocity": 101,
      "chip": "ym2612"
    },
    {
      "channel": 0,
      "note": 40,
      "start": 34.2278,
      "duration": 0.0161,
      "velocity": 115,
      "chip": "ym2612"
    },
    {
      "channel": 4,
      "note": 63,
      "start": 34.2289,
      "duration": 0.0161,
      "velocity": 101,
      "chip": "ym2612"
    },
    {
      "channel": 3,
      "note": 66,
      "start": 34.23,
      "duration": 0.0161,
      "velocity": 101,
      "chip": "ym2612"
    },
    {
      "channel": 1,
      "note": 71,
      "start": 34.2323,
      "duration": 0.0161,
      "velocity": 101,
      "chip": "ym2612"
    },
    {
      "channel": 0,
      "note": 40,
      "start": 34.2439,
      "duration": 0.0134,
      "velocity": 115,
      "chip": "ym2612"
    },
    {
      "channel": 4,
      "note": 63,
      "start": 34.245,
      "duration": 0.0158,
      "velocity": 101,
      "chip": "ym2612"
    },
    {
      "channel": 3,
      "note": 66,
      "start": 34.2461,
      "duration": 0.0158,
      "velocity": 101,
      "chip": "ym2612"
    },
    {
      "channel": 1,
      "note": 71,
      "start": 34.2484,
      "duration": 0.0157,
      "velocity": 101,
      "chip": "ym2612"
    },
    {
      "channel": 0,
      "note": 41,
      "start": 34.2572,
      "duration": 0.0161,
      "velocity": 115,
      "chip": "ym2612"
    },
    {
      "channel": 4,
      "note": 63,
      "start": 34.2608,
      "duration": 0.0139,
      "velocity": 101,
      "chip": "ym2612"
    },
    {
      "channel": 3,
      "note": 66,
      "start": 34.2619,
      "duration": 0.014,
      "velocity": 101,
      "chip": "ym2612"
    },
    {
      "channel": 1,
      "note": 71,
      "start": 34.2641,
      "duration": 0.0141,
      "velocity": 101,
      "chip": "ym2612"
    },
    {
      "channel": 0,
      "note": 41,
      "start": 34.2733,
      "duration": 0.0161,
      "velocity": 115,
      "chip": "ym2612"
    },
    {
      "channel": 4,
      "note": 63,
      "start": 34.2746,
      "duration": 0.0159,
      "velocity": 101,
      "chip": "ym2612"
    },
    {
      "channel": 3,
      "note": 66,
      "start": 34.2759,
      "duration": 0.0186,
      "velocity": 101,
      "chip": "ym2612"
    },
    {
      "channel": 1,
      "note": 71,
      "start": 34.2782,
      "duration": 0.0185,
      "velocity": 101,
      "chip": "ym2612"
    },
    {
      "channel": 0,
      "note": 42,
      "start": 34.2894,
      "duration": 0.0179,
      "velocity": 115,
      "chip": "ym2612"
    },
    {
      "channel": 4,
      "note": 63,
      "start": 34.2905,
      "duration": 0.0209,
      "velocity": 101,
      "chip": "ym2612"
    },
    {
      "channel": 3,
      "note": 66,
      "start": 34.2945,
      "duration": 0.0184,
      "velocity": 101,
      "chip": "ym2612"
    },
    {
      "channel": 1,
      "note": 71,
      "start": 34.2967,
      "duration": 0.0189,
      "velocity": 101,
      "chip": "ym2612"
    },
    {
      "channel": 0,
      "note": 36,
      "start": 34.3073,
      "duration": 0.0144,
      "velocity": 115,
      "chip": "ym2612"
    },
    {
      "channel": 4,
      "note": 56,
      "start": 34.3115,
      "duration": 0.0114,
      "velocity": 101,
      "chip": "ym2612"
    },
    {
      "channel": 3,
      "note": 59,
      "start": 34.3129,
      "duration": 0.0112,
      "velocity": 101,
      "chip": "ym2612"
    },
    {
      "channel": 2,
      "note": 61,
      "start": 34.3143,
      "duration": 0.0134,
      "velocity": 100,
      "chip": "ym2612"
    },
    {
      "channel": 1,
      "note": 64,
      "start": 34.3157,
      "duration": 0.0132,
      "velocity": 101,
      "chip": "ym2612"
    },
    {
      "channel": 0,
      "note": 36,
      "start": 34.3217,
      "duration": 0.016,
      "velocity": 115,
      "chip": "ym2612"
    },
    {
      "channel": 4,
      "note": 56,
      "start": 34.3229,
      "duration": 0.016,
      "velocity": 101,
      "chip": "ym2612"
    },
    {
      "channel": 3,
      "note": 59,
      "start": 34.3241,
      "duration": 0.016,
      "velocity": 101,
      "chip": "ym2612"
    },
    {
      "channel": 2,
      "note": 61,
      "start": 34.3276,
      "duration": 0.0137,
      "velocity": 100,
      "chip": "ym2612"
    },
    {
      "channel": 1,
      "note": 64,
      "start": 34.3288,
      "duration": 0.0137,
      "velocity": 101,
      "chip": "ym2612"
    },
    {
      "channel": 0,
      "note": 37,
      "start": 34.3377,
      "duration": 0.0161,
      "velocity": 115,
      "chip": "ym2612"
    },
    {
      "channel": 4,
      "note": 56,
      "start": 34.3389,
      "duration": 0.0161,
      "velocity": 101,
      "chip": "ym2612"
    },
    {
      "channel": 3,
      "note": 59,
      "start": 34.34,
      "duration": 0.0161,
      "velocity": 101,
      "chip": "ym2612"
    },
    {
      "channel": 2,
      "note": 61,
      "start": 34.3413,
      "duration": 0.016,
      "velocity": 100,
      "chip": "ym2612"
    },
    {
      "channel": 1,
      "note": 64,
      "start": 34.3426,
      "duration": 0.0186,
      "velocity": 101,
      "chip": "ym2612"
    },
    {
      "channel": 0,
      "note": 37,
      "start": 34.3538,
      "duration": 0.016,
      "velocity": 115,
      "chip": "ym2612"
    },
    {
      "channel": 4,
      "note": 56,
      "start": 34.355,
      "duration": 0.0161,
      "velocity": 101,
      "chip": "ym2612"
    },
    {
      "channel": 3,
      "note": 59,
      "start": 34.3561,
      "duration": 0.0161,
      "velocity": 101,
      "chip": "ym2612"
    },
    {
      "channel": 2,
      "note": 61,
      "start": 34.3573,
      "duration": 0.0161,
      "velocity": 100,
      "chip": "ym2612"
    },
    {
      "channel": 1,
      "note": 64,
      "start": 34.3612,
      "duration": 0.0161,
      "velocity": 101,
      "chip": "ym2612"
    },
    {
      "channel": 0,
      "note": 38,
      "start": 34.3699,
      "duration": 0.0162,
      "velocity": 115,
      "chip": "ym2612"
    },
    {
      "channel": 4,
      "note": 56,
      "start": 34.3711,
      "duration": 0.0161,
      "velocity": 101,
      "chip": "ym2612"
    },
    {
      "channel": 3,
      "note": 59,
      "start": 34.3722,
      "duration": 0.0161,
      "velocity": 101,
      "chip": "ym2612"
    },
    {
      "channel": 2,
      "note": 61,
      "start": 34.3734,
      "duration": 0.0161,
      "velocity": 100,
      "chip": "ym2612"
    },
    {
      "channel": 1,
      "note": 64,
      "start": 34.3773,
      "duration": 0.0134,
      "velocity": 101,
      "chip": "ym2612"
    },
    {
      "channel": 0,
      "note": 38,
      "start": 34.386,
      "duration": 0.0161,
      "velocity": 115,
      "chip": "ym2612"
    },
    {
      "channel": 4,
      "note": 56,
      "start": 34.3872,
      "duration": 0.0161,
      "velocity": 101,
      "chip": "ym2612"
    },
    {
      "channel": 3,
      "note": 59,
      "start": 34.3883,
      "duration": 0.0161,
      "velocity": 101,
      "chip": "ym2612"
    },
    {
      "channel": 2,
      "note": 61,
      "start": 34.3895,
      "duration": 0.0161,
      "velocity": 100,
      "chip": "ym2612"
    },
    {
      "channel": 1,
      "note": 64,
      "start": 34.3906,
      "duration": 0.0161,
      "velocity": 101,
      "chip": "ym2612"
    },
    {
      "channel": 0,
      "note": 39,
      "start": 34.4021,
      "duration": 0.0161,
      "velocity": 115,
      "chip": "ym2612"
    },
    {
      "channel": 4,
      "note": 56,
      "start": 34.4033,
      "duration": 0.0161,
      "velocity": 101,
      "chip": "ym2612"
    },
    {
      "channel": 3,
      "note": 59,
      "start": 34.4044,
      "duration": 0.0161,
      "velocity": 101,
      "chip": "ym2612"
    },
    {
      "channel": 2,
      "note": 61,
      "start": 34.4056,
      "duration": 0.0161,
      "velocity": 100,
      "chip": "ym2612"
    },
    {
      "channel": 1,
      "note": 64,
      "start": 34.4067,
      "duration": 0.0161,
      "velocity": 101,
      "chip": "ym2612"
    },
    {
      "channel": 0,
      "note": 39,
      "start": 34.4182,
      "duration": 0.0161,
      "velocity": 115,
      "chip": "ym2612"
    },
    {
      "channel": 4,
      "note": 56,
      "start": 34.4194,
      "duration": 0.0161,
      "velocity": 101,
      "chip": "ym2612"
    },
    {
      "channel": 3,
      "note": 59,
      "start": 34.4205,
      "duration": 0.0161,
      "velocity": 101,
      "chip": "ym2612"
    },
    {
      "channel": 1,
      "note": 64,
      "start": 34.4228,
      "duration": 0.0161,
      "velocity": 101,
      "chip": "ym2612"
    },
    {
      "channel": 0,
      "note": 40,
      "start": 34.4343,
      "duration": 0.0161,
      "velocity": 115,
      "chip": "ym2612"
    },
    {
      "channel": 4,
      "note": 56,
      "start": 34.4355,
      "duration": 0.0161,
      "velocity": 101,
      "chip": "ym2612"
    },
    {
      "channel": 3,
      "note": 59,
      "start": 34.4366,
      "duration": 0.0161,
      "velocity": 101,
      "chip": "ym2612"
    },
    {
      "channel": 1,
      "note": 64,
      "start": 34.4389,
      "duration": 0.0161,
      "velocity": 101,
      "chip": "ym2612"
    },
    {
      "channel": 0,
      "note": 40,
      "start": 34.4504,
      "duration": 0.0161,
      "velocity": 115,
      "chip": "ym2612"
    },
    {
      "channel": 4,
      "note": 56,
      "start": 34.4515,
      "duration": 0.0162,
      "velocity": 101,
      "chip": "ym2612"
    },
    {
      "channel": 3,
      "note": 59,
      "start": 34.4527,
      "duration": 0.0161,
      "velocity": 101,
      "chip": "ym2612"
    },
    {
      "channel": 1,
      "note": 64,
      "start": 34.455,
      "duration": 0.0161,
      "velocity": 101,
      "chip": "ym2612"
    },
    {
      "channel": 0,
      "note": 40,
      "start": 34.4665,
      "duration": 0.0161,
      "velocity": 115,
      "chip": "ym2612"
    },
    {
      "channel": 4,
      "note": 56,
      "start": 34.4677,
      "duration": 0.0161,
      "velocity": 101,
      "chip": "ym2612"
    },
    {
      "channel": 3,
      "note": 59,
      "start": 34.4688,
      "duration": 0.0161,
      "velocity": 101,
      "chip": "ym2612"
    },
    {
      "channel": 1,
      "note": 64,
      "start": 34.4711,
      "duration": 0.0161,
      "velocity": 101,
      "chip": "ym2612"
    },
    {
      "channel": 0,
      "note": 41,
      "start": 34.4826,
      "duration": 0.0161,
      "velocity": 115,
      "chip": "ym2612"
    },
    {
      "channel": 4,
      "note": 56,
      "start": 34.4838,
      "duration": 0.0161,
      "velocity": 101,
      "chip": "ym2612"
    },
    {
      "channel": 3,
      "note": 59,
      "start": 34.4849,
      "duration": 0.0161,
      "velocity": 101,
      "chip": "ym2612"
    },
    {
      "channel": 1,
      "note": 64,
      "start": 34.4872,
      "duration": 0.0161,
      "velocity": 101,
      "chip": "ym2612"
    },
    {
      "channel": 0,
      "note": 41,
      "start": 34.4987,
      "duration": 0.0162,
      "velocity": 115,
      "chip": "ym2612"
    },
    {
      "channel": 4,
      "note": 56,
      "start": 34.4999,
      "duration": 0.0161,
      "velocity": 101,
      "chip": "ym2612"
    },
    {
      "channel": 3,
      "note": 59,
      "start": 34.501,
      "duration": 0.0161,
      "velocity": 101,
      "chip": "ym2612"
    },
    {
      "channel": 1,
      "note": 64,
      "start": 34.5033,
      "duration": 0.0162,
      "velocity": 101,
      "chip": "ym2612"
    },
    {
      "channel": 0,
      "note": 42,
      "start": 34.5149,
      "duration": 0.0161,
      "velocity": 115,
      "chip": "ym2612"
    },
    {
      "channel": 4,
      "note": 56,
      "start": 34.516,
      "duration": 0.0161,
      "velocity": 101,
      "chip": "ym2612"
    },
    {
      "channel": 3,
      "note": 59,
      "start": 34.5171,
      "duration": 0.0161,
      "velocity": 101,
      "chip": "ym2612"
    },
    {
      "channel": 1,
      "note": 64,
      "start": 34.5194,
      "duration": 0.0163,
      "velocity": 101,
      "chip": "ym2612"
    },
    {
      "channel": 0,
      "note": 42,
      "start": 34.5309,
      "duration": 0.0161,
      "velocity": 115,
      "chip": "ym2612"
    },
    {
      "channel": 4,
      "note": 56,
      "start": 34.5321,
      "duration": 0.0161,
      "velocity": 101,
      "chip": "ym2612"
    },
    {
      "channel": 3,
      "note": 59,
      "start": 34.5332,
      "duration": 0.0161,
      "velocity": 101,
      "chip": "ym2612"
    },
    {
      "channel": 2,
      "note": 61,
      "start": 34.5346,
      "duration": 0.0159,
      "velocity": 100,
      "chip": "ym2612"
    },
    {
      "channel": 1,
      "note": 64,
      "start": 34.5358,
      "duration": 0.0159,
      "velocity": 101,
      "chip": "ym2612"
    },
    {
      "channel": 0,
      "note": 43,
      "start": 34.547,
      "duration": 0.0161,
      "velocity": 115,
      "chip": "ym2612"
    },
    {
      "channel": 4,
      "note": 56,
      "start": 34.5482,
      "duration": 0.0161,
      "velocity": 101,
      "chip": "ym2612"
    },
    {
      "channel": 3,
      "note": 59,
      "start": 34.5493,
      "duration": 0.0161,
      "velocity": 101,
      "chip": "ym2612"
    },
    {
      "channel": 2,
      "note": 61,
      "start": 34.5505,
      "duration": 0.016,
      "velocity": 100,
      "chip": "ym2612"
    },
    {
      "channel": 1,
      "note": 64,
      "start": 34.5517,
      "duration": 0.016,
      "velocity": 101,
      "chip": "ym2612"
    },
    {
      "channel": 0,
      "note": 43,
      "start": 34.5631,
      "duration": 0.0161,
      "velocity": 115,
      "chip": "ym2612"
    },
    {
      "channel": 4,
      "note": 56,
      "start": 34.5643,
      "duration": 0.0161,
      "velocity": 101,
      "chip": "ym2612"
    },
    {
      "channel": 3,
      "note": 59,
      "start": 34.5654,
      "duration": 0.0161,
      "velocity": 101,
      "chip": "ym2612"
    },
    {
      "channel": 2,
      "note": 61,
      "start": 34.5666,
      "duration": 0.0161,
      "velocity": 100,
      "chip": "ym2612"
    },
    {
      "channel": 1,
      "note": 64,
      "start": 34.5677,
      "duration": 0.0161,
      "velocity": 101,
      "chip": "ym2612"
    },
    {
      "channel": 0,
      "note": 44,
      "start": 34.5792,
      "duration": 0.0162,
      "velocity": 115,
      "chip": "ym2612"
    },
    {
      "channel": 4,
      "note": 56,
      "start": 34.5804,
      "duration": 0.0162,
      "velocity": 101,
      "chip": "ym2612"
    },
    {
      "channel": 3,
      "note": 59,
      "start": 34.5815,
      "duration": 0.0162,
      "velocity": 101,
      "chip": "ym2612"
    },
    {
      "channel": 2,
      "note": 61,
      "start": 34.5827,
      "duration": 0.0162,
      "velocity": 100,
      "chip": "ym2612"
    },
    {
      "channel": 1,
      "note": 64,
      "start": 34.5838,
      "duration": 0.0162,
      "velocity": 101,
      "chip": "ym2612"
    },
    {
      "channel": 0,
      "note": 44,
      "start": 34.5954,
      "duration": 0.016,
      "velocity": 115,
      "chip": "ym2612"
    },
    {
      "channel": 4,
      "note": 56,
      "start": 34.5966,
      "duration": 0.016,
      "velocity": 101,
      "chip": "ym2612"
    },
    {
      "channel": 3,
      "note": 59,
      "start": 34.5977,
      "duration": 0.016,
      "velocity": 101,
      "chip": "ym2612"
    },
    {
      "channel": 2,
      "note": 61,
      "start": 34.5989,
      "duration": 0.016,
      "velocity": 100,
      "chip": "ym2612"
    },
    {
      "channel": 1,
      "note": 64,
      "start": 34.6,
      "duration": 0.016,
      "velocity": 101,
      "chip": "ym2612"
    },
    {
      "channel": 0,
      "note": 44,
      "start": 34.6114,
      "duration": 0.0177,
      "velocity": 115,
      "chip": "ym2612"
    },
    {
      "channel": 4,
      "note": 56,
      "start": 34.6126,
      "duration": 0.0177,
      "velocity": 101,
      "chip": "ym2612"
    },
    {
      "channel": 3,
      "note": 59,
      "start": 34.6138,
      "duration": 0.0177,
      "velocity": 101,
      "chip": "ym2612"
    },
    {
      "channel": 2,
      "note": 61,
      "start": 34.6149,
      "duration": 0.0177,
      "velocity": 100,
      "chip": "ym2612"
    },
    {
      "channel": 1,
      "note": 64,
      "start": 34.616,
      "duration": 0.0178,
      "velocity": 101,
      "chip": "ym2612"
    },
    {
      "channel": 0,
      "note": 45,
      "start": 34.6291,
      "duration": 0.0167,
      "velocity": 115,
      "chip": "ym2612"
    },
    {
      "channel": 4,
      "note": 56,
      "start": 34.6303,
      "duration": 0.0167,
      "velocity": 101,
      "chip": "ym2612"
    },
    {
      "channel": 3,
      "note": 59,
      "start": 34.6315,
      "duration": 0.0167,
      "velocity": 101,
      "chip": "ym2612"
    },
    {
      "channel": 2,
      "note": 61,
      "start": 34.6326,
      "duration": 0.0167,
      "velocity": 100,
      "chip": "ym2612"
    },
    {
      "channel": 1,
      "note": 64,
      "start": 34.6337,
      "duration": 0.0167,
      "velocity": 101,
      "chip": "ym2612"
    },
    {
      "channel": 0,
      "note": 45,
      "start": 34.6458,
      "duration": 0.0163,
      "velocity": 115,
      "chip": "ym2612"
    },
    {
      "channel": 4,
      "note": 56,
      "start": 34.647,
      "duration": 0.0163,
      "velocity": 101,
      "chip": "ym2612"
    },
    {
      "channel": 3,
      "note": 59,
      "start": 34.6481,
      "duration": 0.0163,
      "velocity": 101,
      "chip": "ym2612"
    },
    {
      "channel": 1,
      "note": 64,
      "start": 34.6504,
      "duration": 0.0163,
      "velocity": 101,
      "chip": "ym2612"
    },
    {
      "channel": 0,
      "note": 46,
      "start": 34.6621,
      "duration": 0.0141,
      "velocity": 115,
      "chip": "ym2612"
    },
    {
      "channel": 4,
      "note": 56,
      "start": 34.6632,
      "duration": 0.0141,
      "velocity": 101,
      "chip": "ym2612"
    },
    {
      "channel": 3,
      "note": 59,
      "start": 34.6644,
      "duration": 0.0141,
      "velocity": 101,
      "chip": "ym2612"
    },
    {
      "channel": 1,
      "note": 64,
      "start": 34.6667,
      "duration": 0.0141,
      "velocity": 101,
      "chip": "ym2612"
    },
    {
      "channel": 0,
      "note": 46,
      "start": 34.6762,
      "duration": 0.0185,
      "velocity": 115,
      "chip": "ym2612"
    },
    {
      "channel": 4,
      "note": 56,
      "start": 34.6773,
      "duration": 0.0185,
      "velocity": 101,
      "chip": "ym2612"
    },
    {
      "channel": 3,
      "note": 59,
      "start": 34.6785,
      "duration": 0.0185,
      "velocity": 101,
      "chip": "ym2612"
    },
    {
      "channel": 1,
      "note": 64,
      "start": 34.6807,
      "duration": 0.0185,
      "velocity": 101,
      "chip": "ym2612"
    },
    {
      "channel": 0,
      "note": 47,
      "start": 34.6947,
      "duration": 0.0161,
      "velocity": 115,
      "chip": "ym2612"
    },
    {
      "channel": 4,
      "note": 56,
      "start": 34.6958,
      "duration": 0.0161,
      "velocity": 101,
      "chip": "ym2612"
    },
    {
      "channel": 3,
      "note": 59,
      "start": 34.697,
      "duration": 0.0162,
      "velocity": 101,
      "chip": "ym2612"
    },
    {
      "channel": 1,
      "note": 64,
      "start": 34.6993,
      "duration": 0.0161,
      "velocity": 101,
      "chip": "ym2612"
    },
    {
      "channel": 0,
      "note": 47,
      "start": 34.7108,
      "duration": 0.0134,
      "velocity": 115,
      "chip": "ym2612"
    },
    {
      "channel": 4,
      "note": 56,
      "start": 34.712,
      "duration": 0.0157,
      "velocity": 101,
      "chip": "ym2612"
    },
    {
      "channel": 3,
      "note": 59,
      "start": 34.7131,
      "duration": 0.0157,
      "velocity": 101,
      "chip": "ym2612"
    },
    {
      "channel": 1,
      "note": 64,
      "start": 34.7154,
      "duration": 0.0158,
      "velocity": 101,
      "chip": "ym2612"
    },
    {
      "channel": 0,
      "note": 47,
      "start": 34.7241,
      "duration": 0.0161,
      "velocity": 115,
      "chip": "ym2612"
    },
    {
      "channel": 4,
      "note": 56,
      "start": 34.7277,
      "duration": 0.0141,
      "velocity": 101,
      "chip": "ym2612"
    },
    {
      "channel": 3,
      "note": 59,
      "start": 34.7288,
      "duration": 0.0141,
      "velocity": 101,
      "chip": "ym2612"
    },
    {
      "channel": 1,
      "note": 64,
      "start": 34.7311,
      "duration": 0.014,
      "velocity": 101,
      "chip": "ym2612"
    },
    {
      "channel": 0,
      "note": 48,
      "start": 34.7402,
      "duration": 0.0206,
      "velocity": 124,
      "chip": "ym2612"
    },
    {
      "channel": 4,
      "note": 56,
      "start": 34.7417,
      "duration": 0.0203,
      "velocity": 101,
      "chip": "ym2612"
    },
    {
      "channel": 3,
      "note": 59,
      "start": 34.7429,
      "duration": 0.0203,
      "velocity": 101,
      "chip": "ym2612"
    },
    {
      "channel": 1,
      "note": 64,
      "start": 34.7451,
      "duration": 0.0206,
      "velocity": 101,
      "chip": "ym2612"
    },
    {
      "channel": 0,
      "note": 84,
      "start": 34.7609,
      "duration": 0.0116,
      "velocity": 124,
      "chip": "ym2612"
    },
    {
      "channel": 4,
      "note": 56,
      "start": 34.762,
      "duration": 0.0117,
      "velocity": 101,
      "chip": "ym2612"
    },
    {
      "channel": 3,
      "note": 59,
      "start": 34.7632,
      "duration": 0.0144,
      "velocity": 101,
      "chip": "ym2612"
    },
    {
      "channel": 2,
      "note": 73,
      "start": 34.7646,
      "duration": 0.0141,
      "velocity": 100,
      "chip": "ym2612"
    },
    {
      "channel": 1,
      "note": 64,
      "start": 34.7657,
      "duration": 0.0141,
      "velocity": 101,
      "chip": "ym2612"
    },
    {
      "channel": 0,
      "note": 82,
      "start": 34.7725,
      "duration": 0.016,
      "velocity": 124,
      "chip": "ym2612"
    },
    {
      "channel": 4,
      "note": 56,
      "start": 34.7737,
      "duration": 0.016,
      "velocity": 101,
      "chip": "ym2612"
    },
    {
      "channel": 3,
      "note": 59,
      "start": 34.7776,
      "duration": 0.0133,
      "velocity": 101,
      "chip": "ym2612"
    },
    {
      "channel": 2,
      "note": 73,
      "start": 34.7787,
      "duration": 0.0156,
      "velocity": 100,
      "chip": "ym2612"
    },
    {
      "channel": 1,
      "note": 64,
      "start": 34.7799,
      "duration": 0.0156,
      "velocity": 101,
      "chip": "ym2612"
    },
    {
      "channel": 0,
      "note": 80,
      "start": 34.7885,
      "duration": 0.0161,
      "velocity": 124,
      "chip": "ym2612"
    },
    {
      "channel": 4,
      "note": 56,
      "start": 34.7897,
      "duration": 0.0161,
      "velocity": 101,
      "chip": "ym2612"
    },
    {
      "channel": 3,
      "note": 59,
      "start": 34.7909,
      "duration": 0.0161,
      "velocity": 101,
      "chip": "ym2612"
    },
    {
      "channel": 2,
      "note": 73,
      "start": 34.7944,
      "duration": 0.0141,
      "velocity": 100,
      "chip": "ym2612"
    },
    {
      "channel": 1,
      "note": 64,
      "start": 34.7955,
      "duration": 0.0141,
      "velocity": 101,
      "chip": "ym2612"
    },
    {
      "channel": 0,
      "note": 77,
      "start": 34.8046,
      "duration": 0.0162,
      "velocity": 124,
      "chip": "ym2612"
    },
    {
      "channel": 4,
      "note": 56,
      "start": 34.8058,
      "duration": 0.0161,
      "velocity": 101,
      "chip": "ym2612"
    },
    {
      "channel": 3,
      "note": 59,
      "start": 34.807,
      "duration": 0.0161,
      "velocity": 101,
      "chip": "ym2612"
    },
    {
      "channel": 2,
      "note": 73,
      "start": 34.8084,
      "duration": 0.0158,
      "velocity": 100,
      "chip": "ym2612"
    },
    {
      "channel": 1,
      "note": 64,
      "start": 34.8096,
      "duration": 0.0185,
      "velocity": 101,
      "chip": "ym2612"
    },
    {
      "channel": 0,
      "note": 75,
      "start": 34.8208,
      "duration": 0.0161,
      "velocity": 124,
      "chip": "ym2612"
    },
    {
      "channel": 4,
      "note": 56,
      "start": 34.8219,
      "duration": 0.0161,
      "velocity": 101,
      "chip": "ym2612"
    },
    {
      "channel": 3,
      "note": 59,
      "start": 34.8231,
      "duration": 0.0161,
      "velocity": 101,
      "chip": "ym2612"
    },
    {
      "channel": 2,
      "note": 73,
      "start": 34.8242,
      "duration": 0.0161,
      "velocity": 100,
      "chip": "ym2612"
    },
    {
      "channel": 1,
      "note": 64,
      "start": 34.8281,
      "duration": 0.0161,
      "velocity": 101,
      "chip": "ym2612"
    },
    {
      "channel": 0,
      "note": 72,
      "start": 34.8368,
      "duration": 0.0161,
      "velocity": 124,
      "chip": "ym2612"
    },
    {
      "channel": 4,
      "note": 56,
      "start": 34.838,
      "duration": 0.0161,
      "velocity": 101,
      "chip": "ym2612"
    },
    {
      "channel": 3,
      "note": 59,
      "start": 34.8391,
      "duration": 0.0161,
      "velocity": 101,
      "chip": "ym2612"
    },
    {
      "channel": 2,
      "note": 73,
      "start": 34.8403,
      "duration": 0.0161,
      "velocity": 100,
      "chip": "ym2612"
    },
    {
      "channel": 1,
      "note": 64,
      "start": 34.8442,
      "duration": 0.0134,
      "velocity": 101,
      "chip": "ym2612"
    },
    {
      "channel": 0,
      "note": 70,
      "start": 34.8529,
      "duration": 0.0161,
      "velocity": 124,
      "chip": "ym2612"
    },
    {
      "channel": 4,
      "note": 56,
      "start": 34.8541,
      "duration": 0.0161,
      "velocity": 101,
      "chip": "ym2612"
    },
    {
      "channel": 3,
      "note": 59,
      "start": 34.8552,
      "duration": 0.0161,
      "velocity": 101,
      "chip": "ym2612"
    },
    {
      "channel": 2,
      "note": 73,
      "start": 34.8564,
      "duration": 0.0161,
      "velocity": 100,
      "chip": "ym2612"
    },
    {
      "channel": 1,
      "note": 64,
      "start": 34.8575,
      "duration": 0.0161,
      "velocity": 101,
      "chip": "ym2612"
    },
    {
      "channel": 0,
      "note": 68,
      "start": 34.869,
      "duration": 0.0161,
      "velocity": 124,
      "chip": "ym2612"
    },
    {
      "channel": 4,
      "note": 56,
      "start": 34.8702,
      "duration": 0.0161,
      "velocity": 101,
      "chip": "ym2612"
    },
    {
      "channel": 3,
      "note": 59,
      "start": 34.8713,
      "duration": 0.0161,
      "velocity": 101,
      "chip": "ym2612"
    },
    {
      "channel": 1,
      "note": 64,
      "start": 34.8736,
      "duration": 0.0161,
      "velocity": 101,
      "chip": "ym2612"
    },
    {
      "channel": 0,
      "note": 65,
      "start": 34.8851,
      "duration": 0.0161,
      "velocity": 124,
      "chip": "ym2612"
    },
    {
      "channel": 4,
      "note": 56,
      "start": 34.8863,
      "duration": 0.0161,
      "velocity": 101,
      "chip": "ym2612"
    },
    {
      "channel": 3,
      "note": 59,
      "start": 34.8874,
      "duration": 0.0161,
      "velocity": 101,
      "chip": "ym2612"
    },
    {
      "channel": 1,
      "note": 64,
      "start": 34.8897,
      "duration": 0.0161,
      "velocity": 101,
      "chip": "ym2612"
    },
    {
      "channel": 0,
      "note": 63,
      "start": 34.9012,
      "duration": 0.0153,
      "velocity": 1,
      "chip": "ym2612"
    },
    {
      "channel": 4,
      "note": 56,
      "start": 34.9024,
      "duration": 0.0153,
      "velocity": 101,
      "chip": "ym2612"
    },
    {
      "channel": 3,
      "note": 59,
      "start": 34.9035,
      "duration": 0.0153,
      "velocity": 101,
      "chip": "ym2612"
    },
    {
      "channel": 1,
      "note": 64,
      "start": 34.9058,
      "duration": 0.0153,
      "velocity": 101,
      "chip": "ym2612"
    },
    {
      "channel": 4,
      "note": 56,
      "start": 34.9177,
      "duration": 0.0153,
      "velocity": 101,
      "chip": "ym2612"
    },
    {
      "channel": 3,
      "note": 59,
      "start": 34.9188,
      "duration": 0.0153,
      "velocity": 101,
      "chip": "ym2612"
    },
    {
      "channel": 1,
      "note": 64,
      "start": 34.9211,
      "duration": 0.0153,
      "velocity": 101,
      "chip": "ym2612"
    },
    {
      "channel": 4,
      "note": 56,
      "start": 34.933,
      "duration": 0.0161,
      "velocity": 101,
      "chip": "ym2612"
    },
    {
      "channel": 3,
      "note": 59,
      "start": 34.9341,
      "duration": 0.0161,
      "velocity": 101,
      "chip": "ym2612"
    },
    {
      "channel": 1,
      "note": 64,
      "start": 34.9364,
      "duration": 0.0161,
      "velocity": 101,
      "chip": "ym2612"
    },
    {
      "channel": 4,
      "note": 56,
      "start": 34.9491,
      "duration": 0.0161,
      "velocity": 101,
      "chip": "ym2612"
    },
    {
      "channel": 3,
      "note": 59,
      "start": 34.9502,
      "duration": 0.0161,
      "velocity": 101,
      "chip": "ym2612"
    },
    {
      "channel": 1,
      "note": 64,
      "start": 34.9525,
      "duration": 0.0161,
      "velocity": 101,
      "chip": "ym2612"
    },
    {
      "channel": 4,
      "note": 56,
      "start": 34.9652,
      "duration": 0.0161,
      "velocity": 101,
      "chip": "ym2612"
    },
    {
      "channel": 3,
      "note": 59,
      "start": 34.9663,
      "duration": 0.0161,
      "velocity": 101,
      "chip": "ym2612"
    },
    {
      "channel": 1,
      "note": 64,
      "start": 34.9686,
      "duration": 0.0163,
      "velocity": 101,
      "chip": "ym2612"
    },
    {
      "channel": 4,
      "note": 56,
      "start": 34.9812,
      "duration": 0.0161,
      "velocity": 101,
      "chip": "ym2612"
    },
    {
      "channel": 3,
      "note": 59,
      "start": 34.9824,
      "duration": 0.0161,
      "velocity": 101,
      "chip": "ym2612"
    },
    {
      "channel": 2,
      "note": 61,
      "start": 34.9838,
      "duration": 0.0159,
      "velocity": 100,
      "chip": "ym2612"
    },
    {
      "channel": 1,
      "note": 64,
      "start": 34.9849,
      "duration": 0.0159,
      "velocity": 101,
      "chip": "ym2612"
    },
    {
      "channel": 4,
      "note": 56,
      "start": 34.9973,
      "duration": 0.0161,
      "velocity": 101,
      "chip": "ym2612"
    },
    {
      "channel": 3,
      "note": 59,
      "start": 34.9985,
      "duration": 0.0161,
      "velocity": 101,
      "chip": "ym2612"
    },
    {
      "channel": 2,
      "note": 61,
      "start": 34.9997,
      "duration": 0.016,
      "velocity": 100,
      "chip": "ym2612"
    },
    {
      "channel": 1,
      "note": 64,
      "start": 35.0008,
      "duration": 0.016,
      "velocity": 101,
      "chip": "ym2612"
    },
    {
      "channel": 4,
      "note": 56,
      "start": 35.0134,
      "duration": 0.0161,
      "velocity": 101,
      "chip": "ym2612"
    },
    {
      "channel": 3,
      "note": 59,
      "start": 35.0146,
      "duration": 0.0162,
      "velocity": 101,
      "chip": "ym2612"
    },
    {
      "channel": 2,
      "note": 61,
      "start": 35.0157,
      "duration": 0.0161,
      "velocity": 100,
      "chip": "ym2612"
    },
    {
      "channel": 1,
      "note": 64,
      "start": 35.0169,
      "duration": 0.0161,
      "velocity": 101,
      "chip": "ym2612"
    },
    {
      "channel": 4,
      "note": 56,
      "start": 35.0296,
      "duration": 0.0161,
      "velocity": 101,
      "chip": "ym2612"
    },
    {
      "channel": 3,
      "note": 59,
      "start": 35.0307,
      "duration": 0.0161,
      "velocity": 101,
      "chip": "ym2612"
    },
    {
      "channel": 2,
      "note": 61,
      "start": 35.0318,
      "duration": 0.0161,
      "velocity": 100,
      "chip": "ym2612"
    },
    {
      "channel": 1,
      "note": 64,
      "start": 35.033,
      "duration": 0.0161,
      "velocity": 101,
      "chip": "ym2612"
    },
    {
      "channel": 4,
      "note": 56,
      "start": 35.0457,
      "duration": 0.0161,
      "velocity": 101,
      "chip": "ym2612"
    },
    {
      "channel": 3,
      "note": 59,
      "start": 35.0468,
      "duration": 0.0161,
      "velocity": 101,
      "chip": "ym2612"
    },
    {
      "channel": 2,
      "note": 61,
      "start": 35.0479,
      "duration": 0.0162,
      "velocity": 100,
      "chip": "ym2612"
    },
    {
      "channel": 1,
      "note": 64,
      "start": 35.0491,
      "duration": 0.0161,
      "velocity": 101,
      "chip": "ym2612"
    },
    {
      "channel": 4,
      "note": 56,
      "start": 35.0618,
      "duration": 0.0161,
      "velocity": 101,
      "chip": "ym2612"
    },
    {
      "channel": 3,
      "note": 59,
      "start": 35.0629,
      "duration": 0.0161,
      "velocity": 101,
      "chip": "ym2612"
    },
    {
      "channel": 2,
      "note": 61,
      "start": 35.0641,
      "duration": 0.0161,
      "velocity": 100,
      "chip": "ym2612"
    },
    {
      "channel": 1,
      "note": 64,
      "start": 35.0652,
      "duration": 0.0161,
      "velocity": 101,
      "chip": "ym2612"
    },
    {
      "channel": 4,
      "note": 56,
      "start": 35.0779,
      "duration": 0.0174,
      "velocity": 101,
      "chip": "ym2612"
    },
    {
      "channel": 3,
      "note": 59,
      "start": 35.079,
      "duration": 0.0174,
      "velocity": 101,
      "chip": "ym2612"
    },
    {
      "channel": 2,
      "note": 61,
      "start": 35.0802,
      "duration": 0.0174,
      "velocity": 100,
      "chip": "ym2612"
    },
    {
      "channel": 1,
      "note": 64,
      "start": 35.0813,
      "duration": 0.0174,
      "velocity": 101,
      "chip": "ym2612"
    },
    {
      "channel": 4,
      "note": 56,
      "start": 35.0953,
      "duration": 0.0167,
      "velocity": 101,
      "chip": "ym2612"
    },
    {
      "channel": 3,
      "note": 59,
      "start": 35.0965,
      "duration": 0.0167,
      "velocity": 101,
      "chip": "ym2612"
    },
    {
      "channel": 1,
      "note": 64,
      "start": 35.0988,
      "duration": 0.0167,
      "velocity": 101,
      "chip": "ym2612"
    },
    {
      "channel": 4,
      "note": 56,
      "start": 35.112,
      "duration": 0.0163,
      "velocity": 101,
      "chip": "ym2612"
    },
    {
      "channel": 3,
      "note": 59,
      "start": 35.1131,
      "duration": 0.0163,
      "velocity": 101,
      "chip": "ym2612"
    },
    {
      "channel": 1,
      "note": 64,
      "start": 35.1154,
      "duration": 0.0163,
      "velocity": 101,
      "chip": "ym2612"
    },
    {
      "channel": 4,
      "note": 56,
      "start": 35.1283,
      "duration": 0.0143,
      "velocity": 101,
      "chip": "ym2612"
    },
    {
      "channel": 3,
      "note": 59,
      "start": 35.1294,
      "duration": 0.0143,
      "velocity": 101,
      "chip": "ym2612"
    },
    {
      "channel": 1,
      "note": 64,
      "start": 35.1317,
      "duration": 0.0143,
      "velocity": 101,
      "chip": "ym2612"
    },
    {
      "channel": 4,
      "note": 56,
      "start": 35.1426,
      "duration": 0.0186,
      "velocity": 101,
      "chip": "ym2612"
    },
    {
      "channel": 3,
      "note": 59,
      "start": 35.1437,
      "duration": 0.0186,
      "velocity": 101,
      "chip": "ym2612"
    },
    {
      "channel": 1,
      "note": 64,
      "start": 35.146,
      "duration": 0.0185,
      "velocity": 101,
      "chip": "ym2612"
    },
    {
      "channel": 4,
      "note": 56,
      "start": 35.1612,
      "duration": 0.0161,
      "velocity": 101,
      "chip": "ym2612"
    },
    {
      "channel": 3,
      "note": 59,
      "start": 35.1623,
      "duration": 0.0161,
      "velocity": 101,
      "chip": "ym2612"
    },
    {
      "channel": 1,
      "note": 64,
      "start": 35.1645,
      "duration": 0.0161,
      "velocity": 101,
      "chip": "ym2612"
    },
    {
      "channel": 4,
      "note": 56,
      "start": 35.1773,
      "duration": 0.0134,
      "velocity": 101,
      "chip": "ym2612"
    },
    {
      "channel": 3,
      "note": 59,
      "start": 35.1784,
      "duration": 0.0157,
      "velocity": 101,
      "chip": "ym2612"
    },
    {
      "channel": 1,
      "note": 64,
      "start": 35.1807,
      "duration": 0.0157,
      "velocity": 101,
      "chip": "ym2612"
    },
    {
      "channel": 4,
      "note": 56,
      "start": 35.1906,
      "duration": 0.0163,
      "velocity": 101,
      "chip": "ym2612"
    },
    {
      "channel": 3,
      "note": 59,
      "start": 35.1941,
      "duration": 0.0145,
      "velocity": 101,
      "chip": "ym2612"
    },
    {
      "channel": 1,
      "note": 64,
      "start": 35.1964,
      "duration": 0.015,
      "velocity": 101,
      "chip": "ym2612"
    },
    {
      "channel": 4,
      "note": 58,
      "start": 35.207,
      "duration": 0.0159,
      "velocity": 101,
      "chip": "ym2612"
    },
    {
      "channel": 3,
      "note": 61,
      "start": 35.2087,
      "duration": 0.0154,
      "velocity": 101,
      "chip": "ym2612"
    },
    {
      "channel": 2,
      "note": 59,
      "start": 35.2101,
      "duration": 0.0179,
      "velocity": 100,
      "chip": "ym2612"
    },
    {
      "channel": 1,
      "note": 66,
      "start": 35.2115,
      "duration": 0.0177,
      "velocity": 101,
      "chip": "ym2612"
    },
    {
      "channel": 4,
      "note": 58,
      "start": 35.2229,
      "duration": 0.016,
      "velocity": 101,
      "chip": "ym2612"
    },
    {
      "channel": 3,
      "note": 61,
      "start": 35.2241,
      "duration": 0.016,
      "velocity": 101,
      "chip": "ym2612"
    },
    {
      "channel": 2,
      "note": 59,
      "start": 35.228,
      "duration": 0.016,
      "velocity": 100,
      "chip": "ym2612"
    },
    {
      "channel": 1,
      "note": 66,
      "start": 35.2292,
      "duration": 0.0159,
      "velocity": 101,
      "chip": "ym2612"
    },
    {
      "channel": 4,
      "note": 58,
      "start": 35.2389,
      "duration": 0.0161,
      "velocity": 101,
      "chip": "ym2612"
    },
    {
      "channel": 3,
      "note": 61,
      "start": 35.24,
      "duration": 0.0161,
      "velocity": 101,
      "chip": "ym2612"
    },
    {
      "channel": 2,
      "note": 59,
      "start": 35.2439,
      "duration": 0.0134,
      "velocity": 100,
      "chip": "ym2612"
    },
    {
      "channel": 1,
      "note": 66,
      "start": 35.2451,
      "duration": 0.0157,
      "velocity": 101,
      "chip": "ym2612"
    },
    {
      "channel": 4,
      "note": 58,
      "start": 35.255,
      "duration": 0.0161,
      "velocity": 101,
      "chip": "ym2612"
    },
    {
      "channel": 3,
      "note": 61,
      "start": 35.2561,
      "duration": 0.0161,
      "velocity": 101,
      "chip": "ym2612"
    },
    {
      "channel": 2,
      "note": 59,
      "start": 35.2573,
      "duration": 0.0161,
      "velocity": 100,
      "chip": "ym2612"
    },
    {
      "channel": 1,
      "note": 66,
      "start": 35.2608,
      "duration": 0.0141,
      "velocity": 101,
      "chip": "ym2612"
    },
    {
      "channel": 4,
      "note": 58,
      "start": 35.2711,
      "duration": 0.0161,
      "velocity": 101,
      "chip": "ym2612"
    },
    {
      "channel": 3,
      "note": 61,
      "start": 35.2722,
      "duration": 0.0161,
      "velocity": 101,
      "chip": "ym2612"
    },
    {
      "channel": 2,
      "note": 59,
      "start": 35.2734,
      "duration": 0.0161,
      "velocity": 100,
      "chip": "ym2612"
    },
    {
      "channel": 1,
      "note": 66,
      "start": 35.2748,
      "duration": 0.0158,
      "velocity": 101,
      "chip": "ym2612"
    },
    {
      "channel": 4,
      "note": 58,
      "start": 35.2872,
      "duration": 0.0161,
      "velocity": 101,
      "chip": "ym2612"
    },
    {
      "channel": 3,
      "note": 61,
      "start": 35.2883,
      "duration": 0.0161,
      "velocity": 101,
      "chip": "ym2612"
    },
    {
      "channel": 2,
      "note": 59,
      "start": 35.2895,
      "duration": 0.0161,
      "velocity": 100,
      "chip": "ym2612"
    },
    {
      "channel": 1,
      "note": 66,
      "start": 35.2906,
      "duration": 0.0161,
      "velocity": 101,
      "chip": "ym2612"
    },
    {
      "channel": 4,
      "note": 58,
      "start": 35.3033,
      "duration": 0.0161,
      "velocity": 101,
      "chip": "ym2612"
    },
    {
      "channel": 3,
      "note": 61,
      "start": 35.3044,
      "duration": 0.0161,
      "velocity": 101,
      "chip": "ym2612"
    },
    {
      "channel": 2,
      "note": 59,
      "start": 35.3056,
      "duration": 0.0161,
      "velocity": 100,
      "chip": "ym2612"
    },
    {
      "channel": 1,
      "note": 66,
      "start": 35.3067,
      "duration": 0.0161,
      "velocity": 101,
      "chip": "ym2612"
    },
    {
      "channel": 4,
      "note": 58,
      "start": 35.3194,
      "duration": 0.0161,
      "velocity": 101,
      "chip": "ym2612"
    },
    {
      "channel": 3,
      "note": 61,
      "start": 35.3205,
      "duration": 0.0161,
      "velocity": 101,
      "chip": "ym2612"
    },
    {
      "channel": 1,
      "note": 66,
      "start": 35.3228,
      "duration": 0.0161,
      "velocity": 101,
      "chip": "ym2612"
    },
    {
      "channel": 4,
      "note": 58,
      "start": 35.3355,
      "duration": 0.0161,
      "velocity": 101,
      "chip": "ym2612"
    },
    {
      "channel": 3,
      "note": 61,
      "start": 35.3366,
      "duration": 0.0162,
      "velocity": 101,
      "chip": "ym2612"
    },
    {
      "channel": 1,
      "note": 66,
      "start": 35.3389,
      "duration": 0.0161,
      "velocity": 101,
      "chip": "ym2612"
    },
    {
      "channel": 4,
      "note": 58,
      "start": 35.3516,
      "duration": 0.0161,
      "velocity": 101,
      "chip": "ym2612"
    },
    {
      "channel": 3,
      "note": 61,
      "start": 35.3528,
      "duration": 0.0161,
      "velocity": 101,
      "chip": "ym2612"
    },
    {
      "channel": 1,
      "note": 66,
      "start": 35.355,
      "duration": 0.0161,
      "velocity": 101,
      "chip": "ym2612"
    },
    {
      "channel": 4,
      "note": 58,
      "start": 35.3677,
      "duration": 0.0161,
      "velocity": 101,
      "chip": "ym2612"
    },
    {
      "channel": 3,
      "note": 61,
      "start": 35.3688,
      "duration": 0.0161,
      "velocity": 101,
      "chip": "ym2612"
    },
    {
      "channel": 1,
      "note": 66,
      "start": 35.3711,
      "duration": 0.0161,
      "velocity": 101,
      "chip": "ym2612"
    },
    {
      "channel": 4,
      "note": 58,
      "start": 35.3838,
      "duration": 0.0161,
      "velocity": 101,
      "chip": "ym2612"
    },
    {
      "channel": 3,
      "note": 61,
      "start": 35.3849,
      "duration": 0.0161,
      "velocity": 101,
      "chip": "ym2612"
    },
    {
      "channel": 1,
      "note": 66,
      "start": 35.3872,
      "duration": 0.0161,
      "velocity": 101,
      "chip": "ym2612"
    },
    {
      "channel": 4,
      "note": 58,
      "start": 35.3999,
      "duration": 0.0161,
      "velocity": 101,
      "chip": "ym2612"
    },
    {
      "channel": 3,
      "note": 61,
      "start": 35.401,
      "duration": 0.0161,
      "velocity": 101,
      "chip": "ym2612"
    },
    {
      "channel": 1,
      "note": 66,
      "start": 35.4033,
      "duration": 0.0161,
      "velocity": 101,
      "chip": "ym2612"
    },
    {
      "channel": 4,
      "note": 58,
      "start": 35.416,
      "duration": 0.0195,
      "velocity": 101,
      "chip": "ym2612"
    },
    {
      "channel": 3,
      "note": 61,
      "start": 35.4171,
      "duration": 0.0195,
      "velocity": 101,
      "chip": "ym2612"
    },
    {
      "channel": 1,
      "note": 66,
      "start": 35.4194,
      "duration": 0.0198,
      "velocity": 101,
      "chip": "ym2612"
    },
    {
      "channel": 0,
      "note": 36,
      "start": 35.4344,
      "duration": 0.0144,
      "velocity": 115,
      "chip": "ym2612"
    },
    {
      "channel": 4,
      "note": 58,
      "start": 35.4355,
      "duration": 0.0144,
      "velocity": 101,
      "chip": "ym2612"
    },
    {
      "channel": 3,
      "note": 61,
      "start": 35.4367,
      "duration": 0.0144,
      "velocity": 101,
      "chip": "ym2612"
    },
    {
      "channel": 2,
      "note": 59,
      "start": 35.4381,
      "duration": 0.0142,
      "velocity": 100,
      "chip": "ym2612"
    },
    {
      "channel": 1,
      "note": 66,
      "start": 35.4392,
      "duration": 0.0142,
      "velocity": 101,
      "chip": "ym2612"
    },
    {
      "channel": 0,
      "note": 36,
      "start": 35.4488,
      "duration": 0.016,
      "velocity": 115,
      "chip": "ym2612"
    },
    {
      "channel": 4,
      "note": 58,
      "start": 35.4499,
      "duration": 0.016,
      "velocity": 101,
      "chip": "ym2612"
    },
    {
      "channel": 3,
      "note": 61,
      "start": 35.451,
      "duration": 0.016,
      "velocity": 101,
      "chip": "ym2612"
    },
    {
      "channel": 2,
      "note": 59,
      "start": 35.4522,
      "duration": 0.016,
      "velocity": 100,
      "chip": "ym2612"
    },
    {
      "channel": 1,
      "note": 66,
      "start": 35.4534,
      "duration": 0.016,
      "velocity": 101,
      "chip": "ym2612"
    },
    {
      "channel": 0,
      "note": 37,
      "start": 35.4648,
      "duration": 0.0161,
      "velocity": 115,
      "chip": "ym2612"
    },
    {
      "channel": 4,
      "note": 58,
      "start": 35.4659,
      "duration": 0.0161,
      "velocity": 101,
      "chip": "ym2612"
    },
    {
      "channel": 3,
      "note": 61,
      "start": 35.4671,
      "duration": 0.0161,
      "velocity": 101,
      "chip": "ym2612"
    },
    {
      "channel": 2,
      "note": 59,
      "start": 35.4682,
      "duration": 0.0161,
      "velocity": 100,
      "chip": "ym2612"
    },
    {
      "channel": 1,
      "note": 66,
      "start": 35.4694,
      "duration": 0.0161,
      "velocity": 101,
      "chip": "ym2612"
    },
    {
      "channel": 0,
      "note": 37,
      "start": 35.4809,
      "duration": 0.0161,
      "velocity": 115,
      "chip": "ym2612"
    },
    {
      "channel": 4,
      "note": 58,
      "start": 35.482,
      "duration": 0.0161,
      "velocity": 101,
      "chip": "ym2612"
    },
    {
      "channel": 3,
      "note": 61,
      "start": 35.4832,
      "duration": 0.0161,
      "velocity": 101,
      "chip": "ym2612"
    },
    {
      "channel": 2,
      "note": 59,
      "start": 35.4843,
      "duration": 0.0161,
      "velocity": 100,
      "chip": "ym2612"
    },
    {
      "channel": 1,
      "note": 66,
      "start": 35.4855,
      "duration": 0.0161,
      "velocity": 101,
      "chip": "ym2612"
    },
    {
      "channel": 0,
      "note": 38,
      "start": 35.497,
      "duration": 0.0161,
      "velocity": 115,
      "chip": "ym2612"
    },
    {
      "channel": 4,
      "note": 58,
      "start": 35.4981,
      "duration": 0.0161,
      "velocity": 101,
      "chip": "ym2612"
    },
    {
      "channel": 3,
      "note": 61,
      "start": 35.4993,
      "duration": 0.0161,
      "velocity": 101,
      "chip": "ym2612"
    },
    {
      "channel": 2,
      "note": 59,
      "start": 35.5004,
      "duration": 0.0161,
      "velocity": 100,
      "chip": "ym2612"
    },
    {
      "channel": 1,
      "note": 66,
      "start": 35.5015,
      "duration": 0.0161,
      "velocity": 101,
      "chip": "ym2612"
    },
    {
      "channel": 0,
      "note": 38,
      "start": 35.5131,
      "duration": 0.0161,
      "velocity": 115,
      "chip": "ym2612"
    },
    {
      "channel": 4,
      "note": 58,
      "start": 35.5142,
      "duration": 0.0161,
      "velocity": 101,
      "chip": "ym2612"
    },
    {
      "channel": 3,
      "note": 61,
      "start": 35.5154,
      "duration": 0.0162,
      "velocity": 101,
      "chip": "ym2612"
    },
    {
      "channel": 2,
      "note": 59,
      "start": 35.5165,
      "duration": 0.0161,
      "velocity": 100,
      "chip": "ym2612"
    },
    {
      "channel": 1,
      "note": 66,
      "start": 35.5176,
      "duration": 0.0161,
      "velocity": 101,
      "chip": "ym2612"
    },
    {
      "channel": 0,
      "note": 39,
      "start": 35.5292,
      "duration": 0.0161,
      "velocity": 115,
      "chip": "ym2612"
    },
    {
      "channel": 4,
      "note": 58,
      "start": 35.5304,
      "duration": 0.0161,
      "velocity": 101,
      "chip": "ym2612"
    },
    {
      "channel": 3,
      "note": 61,
      "start": 35.5315,
      "duration": 0.0161,
      "velocity": 101,
      "chip": "ym2612"
    },
    {
      "channel": 2,
      "note": 59,
      "start": 35.5326,
      "duration": 0.0162,
      "velocity": 100,
      "chip": "ym2612"
    },
    {
      "channel": 1,
      "note": 66,
      "start": 35.5337,
      "duration": 0.0161,
      "velocity": 101,
      "chip": "ym2612"
    },
    {
      "channel": 0,
      "note": 39,
      "start": 35.5453,
      "duration": 0.0172,
      "velocity": 115,
      "chip": "ym2612"
    },
    {
      "channel": 4,
      "note": 58,
      "start": 35.5465,
      "duration": 0.0172,
      "velocity": 101,
      "chip": "ym2612"
    },
    {
      "channel": 3,
      "note": 61,
      "start": 35.5476,
      "duration": 0.0172,
      "velocity": 101,
      "chip": "ym2612"
    },
    {
      "channel": 1,
      "note": 66,
      "start": 35.5499,
      "duration": 0.0172,
      "velocity": 101,
      "chip": "ym2612"
    },
    {
      "channel": 0,
      "note": 40,
      "start": 35.5625,
      "duration": 0.0167,
      "velocity": 115,
      "chip": "ym2612"
    },
    {
      "channel": 4,
      "note": 58,
      "start": 35.5636,
      "duration": 0.0167,
      "velocity": 101,
      "chip": "ym2612"
    },
    {
      "channel": 3,
      "note": 61,
      "start": 35.5648,
      "duration": 0.0167,
      "velocity": 101,
      "chip": "ym2612"
    },
    {
      "channel": 1,
      "note": 66,
      "start": 35.5671,
      "duration": 0.0167,
      "velocity": 101,
      "chip": "ym2612"
    },
    {
      "channel": 0,
      "note": 40,
      "start": 35.5792,
      "duration": 0.0163,
      "velocity": 115,
      "chip": "ym2612"
    },
    {
      "channel": 4,
      "note": 58,
      "start": 35.5803,
      "duration": 0.0163,
      "velocity": 101,
      "chip": "ym2612"
    },
    {
      "channel": 3,
      "note": 61,
      "start": 35.5815,
      "duration": 0.0163,
      "velocity": 101,
      "chip": "ym2612"
    },
    {
      "channel": 1,
      "note": 66,
      "start": 35.5837,
      "duration": 0.0163,
      "velocity": 101,
      "chip": "ym2612"
    },
    {
      "channel": 0,
      "note": 40,
      "start": 35.5954,
      "duration": 0.0146,
      "velocity": 115,
      "chip": "ym2612"
    },
    {
      "channel": 4,
      "note": 58,
      "start": 35.5966,
      "duration": 0.0146,
      "velocity": 101,
      "chip": "ym2612"
    },
    {
      "channel": 3,
      "note": 61,
      "start": 35.5977,
      "duration": 0.0146,
      "velocity": 101,
      "chip": "ym2612"
    },
    {
      "channel": 1,
      "note": 66,
      "start": 35.6,
      "duration": 0.0146,
      "velocity": 101,
      "chip": "ym2612"
    },
    {
      "channel": 0,
      "note": 41,
      "start": 35.61,
      "duration": 0.0185,
      "velocity": 115,
      "chip": "ym2612"
    },
    {
      "channel": 4,
      "note": 58,
      "start": 35.6112,
      "duration": 0.0186,
      "velocity": 101,
      "chip": "ym2612"
    },
    {
      "channel": 3,
      "note": 61,
      "start": 35.6123,
      "duration": 0.0186,
      "velocity": 101,
      "chip": "ym2612"
    },
    {
      "channel": 1,
      "note": 66,
      "start": 35.6146,
      "duration": 0.0185,
      "velocity": 101,
      "chip": "ym2612"
    },
    {
      "channel": 0,
      "note": 41,
      "start": 35.6285,
      "duration": 0.0161,
      "velocity": 115,
      "chip": "ym2612"
    },
    {
      "channel": 4,
      "note": 58,
      "start": 35.6297,
      "duration": 0.0161,
      "velocity": 101,
      "chip": "ym2612"
    },
    {
      "channel": 3,
      "note": 61,
      "start": 35.6309,
      "duration": 0.0161,
      "velocity": 101,
      "chip": "ym2612"
    },
    {
      "channel": 1,
      "note": 66,
      "start": 35.6331,
      "duration": 0.0161,
      "velocity": 101,
      "chip": "ym2612"
    },
    {
      "channel": 0,
      "note": 42,
      "start": 35.6446,
      "duration": 0.0175,
      "velocity": 124,
      "chip": "ym2612"
    },
    {
      "channel": 4,
      "note": 58,
      "start": 35.6458,
      "duration": 0.0175,
      "velocity": 101,
      "chip": "ym2612"
    },
    {
      "channel": 3,
      "note": 61,
      "start": 35.647,
      "duration": 0.0175,
      "velocity": 101,
      "chip": "ym2612"
    },
    {
      "channel": 1,
      "note": 66,
      "start": 35.6492,
      "duration": 0.0178,
      "velocity": 101,
      "chip": "ym2612"
    },
    {
      "channel": 0,
      "note": 84,
      "start": 35.6622,
      "duration": 0.012,
      "velocity": 124,
      "chip": "ym2612"
    },
    {
      "channel": 4,
      "note": 58,
      "start": 35.6633,
      "duration": 0.0124,
      "velocity": 101,
      "chip": "ym2612"
    },
    {
      "channel": 3,
      "note": 61,
      "start": 35.6645,
      "duration": 0.0123,
      "velocity": 101,
      "chip": "ym2612"
    },
    {
      "channel": 2,
      "note": 71,
      "start": 35.6659,
      "duration": 0.0121,
      "velocity": 100,
      "chip": "ym2612"
    },
    {
      "channel": 1,
      "note": 66,
      "start": 35.667,
      "duration": 0.0121,
      "velocity": 101,
      "chip": "ym2612"
    },
    {
      "channel": 0,
      "note": 82,
      "start": 35.6741,
      "duration": 0.016,
      "velocity": 124,
      "chip": "ym2612"
    },
    {
      "channel": 4,
      "note": 58,
      "start": 35.6757,
      "duration": 0.0184,
      "velocity": 101,
      "chip": "ym2612"
    },
    {
      "channel": 3,
      "note": 61,
      "start": 35.6768,
      "duration": 0.0185,
      "velocity": 101,
      "chip": "ym2612"
    },
    {
      "channel": 2,
      "note": 71,
      "start": 35.678,
      "duration": 0.0184,
      "velocity": 100,
      "chip": "ym2612"
    },
    {
      "channel": 1,
      "note": 66,
      "start": 35.6791,
      "duration": 0.0185,
      "velocity": 101,
      "chip": "ym2612"
    },
    {
      "channel": 0,
      "note": 80,
      "start": 35.6902,
      "duration": 0.0162,
      "velocity": 124,
      "chip": "ym2612"
    },
    {
      "channel": 4,
      "note": 58,
      "start": 35.6941,
      "duration": 0.0134,
      "velocity": 101,
      "chip": "ym2612"
    },
    {
      "channel": 3,
      "note": 61,
      "start": 35.6953,
      "duration": 0.0161,
      "velocity": 101,
      "chip": "ym2612"
    },
    {
      "channel": 2,
      "note": 71,
      "start": 35.6964,
      "duration": 0.0161,
      "velocity": 100,
      "chip": "ym2612"
    },
    {
      "channel": 1,
      "note": 66,
      "start": 35.6976,
      "duration": 0.0161,
      "velocity": 101,
      "chip": "ym2612"
    },
    {
      "channel": 0,
      "note": 77,
      "start": 35.7063,
      "duration": 0.0161,
      "velocity": 124,
      "chip": "ym2612"
    },
    {
      "channel": 4,
      "note": 58,
      "start": 35.7075,
      "duration": 0.0161,
      "velocity": 101,
      "chip": "ym2612"
    },
    {
      "channel": 3,
      "note": 61,
      "start": 35.7113,
      "duration": 0.0158,
      "velocity": 101,
      "chip": "ym2612"
    },
    {
      "channel": 2,
      "note": 71,
      "start": 35.7125,
      "duration": 0.0157,
      "velocity": 100,
      "chip": "ym2612"
    },
    {
      "channel": 1,
      "note": 66,
      "start": 35.7136,
      "duration": 0.0157,
      "velocity": 101,
      "chip": "ym2612"
    },
    {
      "channel": 0,
      "note": 75,
      "start": 35.7224,
      "duration": 0.0161,
      "velocity": 124,
      "chip": "ym2612"
    },
    {
      "channel": 4,
      "note": 58,
      "start": 35.7236,
      "duration": 0.0161,
      "velocity": 101,
      "chip": "ym2612"
    },
    {
      "channel": 3,
      "note": 61,
      "start": 35.7271,
      "duration": 0.0137,
      "velocity": 101,
      "chip": "ym2612"
    },
    {
      "channel": 2,
      "note": 71,
      "start": 35.7282,
      "duration": 0.0141,
      "velocity": 100,
      "chip": "ym2612"
    },
    {
      "channel": 1,
      "note": 66,
      "start": 35.7293,
      "duration": 0.0141,
      "velocity": 101,
      "chip": "ym2612"
    },
    {
      "channel": 0,
      "note": 72,
      "start": 35.7385,
      "duration": 0.0161,
      "velocity": 124,
      "chip": "ym2612"
    },
    {
      "channel": 4,
      "note": 58,
      "start": 35.7397,
      "duration": 0.0161,
      "velocity": 101,
      "chip": "ym2612"
    },
    {
      "channel": 3,
      "note": 61,
      "start": 35.7408,
      "duration": 0.0161,
      "velocity": 101,
      "chip": "ym2612"
    },
    {
      "channel": 2,
      "note": 71,
      "start": 35.7423,
      "duration": 0.0185,
      "velocity": 100,
      "chip": "ym2612"
    },
    {
      "channel": 1,
      "note": 66,
      "start": 35.7434,
      "duration": 0.0185,
      "velocity": 101,
      "chip": "ym2612"
    },
    {
      "channel": 0,
      "note": 70,
      "start": 35.7546,
      "duration": 0.0161,
      "velocity": 124,
      "chip": "ym2612"
    },
    {
      "channel": 4,
      "note": 58,
      "start": 35.7557,
      "duration": 0.0161,
      "velocity": 101,
      "chip": "ym2612"
    },
    {
      "channel": 3,
      "note": 61,
      "start": 35.7569,
      "duration": 0.0161,
      "velocity": 101,
      "chip": "ym2612"
    },
    {
      "channel": 2,
      "note": 71,
      "start": 35.7608,
      "duration": 0.0134,
      "velocity": 100,
      "chip": "ym2612"
    },
    {
      "channel": 1,
      "note": 66,
      "start": 35.7619,
      "duration": 0.0161,
      "velocity": 101,
      "chip": "ym2612"
    },
    {
      "channel": 0,
      "note": 68,
      "start": 35.7707,
      "duration": 0.0161,
      "velocity": 124,
      "chip": "ym2612"
    },
    {
      "channel": 4,
      "note": 58,
      "start": 35.7718,
      "duration": 0.0161,
      "velocity": 101,
      "chip": "ym2612"
    },
    {
      "channel": 3,
      "note": 61,
      "start": 35.773,
      "duration": 0.0161,
      "velocity": 101,
      "chip": "ym2612"
    },
    {
      "channel": 1,
      "note": 66,
      "start": 35.7781,
      "duration": 0.0157,
      "velocity": 101,
      "chip": "ym2612"
    },
    {
      "channel": 0,
      "note": 65,
      "start": 35.7868,
      "duration": 0.0161,
      "velocity": 124,
      "chip": "ym2612"
    },
    {
      "channel": 4,
      "note": 58,
      "start": 35.7879,
      "duration": 0.0162,
      "velocity": 101,
      "chip": "ym2612"
    },
    {
      "channel": 3,
      "note": 61,
      "start": 35.7891,
      "duration": 0.0162,
      "velocity": 101,
      "chip": "ym2612"
    },
    {
      "channel": 1,
      "note": 66,
      "start": 35.7938,
      "duration": 0.0137,
      "velocity": 101,
      "chip": "ym2612"
    },
    {
      "channel": 0,
      "note": 63,
      "start": 35.8029,
      "duration": 0.0153,
      "velocity": 1,
      "chip": "ym2612"
    },
    {
      "channel": 4,
      "note": 58,
      "start": 35.8041,
      "duration": 0.0153,
      "velocity": 101,
      "chip": "ym2612"
    },
    {
      "channel": 3,
      "note": 61,
      "start": 35.8052,
      "duration": 0.0153,
      "velocity": 101,
      "chip": "ym2612"
    },
    {
      "channel": 1,
      "note": 66,
      "start": 35.8075,
      "duration": 0.0153,
      "velocity": 101,
      "chip": "ym2612"
    },
    {
      "channel": 4,
      "note": 58,
      "start": 35.8194,
      "duration": 0.0153,
      "velocity": 101,
      "chip": "ym2612"
    },
    {
      "channel": 3,
      "note": 61,
      "start": 35.8205,
      "duration": 0.0153,
      "velocity": 101,
      "chip": "ym2612"
    },
    {
      "channel": 1,
      "note": 66,
      "start": 35.8228,
      "duration": 0.0153,
      "velocity": 101,
      "chip": "ym2612"
    },
    {
      "channel": 4,
      "note": 58,
      "start": 35.8346,
      "duration": 0.0161,
      "velocity": 101,
      "chip": "ym2612"
    },
    {
      "channel": 3,
      "note": 61,
      "start": 35.8358,
      "duration": 0.0161,
      "velocity": 101,
      "chip": "ym2612"
    },
    {
      "channel": 1,
      "note": 66,
      "start": 35.8381,
      "duration": 0.0161,
      "velocity": 101,
      "chip": "ym2612"
    },
    {
      "channel": 4,
      "note": 58,
      "start": 35.8507,
      "duration": 0.0161,
      "velocity": 101,
      "chip": "ym2612"
    },
    {
      "channel": 3,
      "note": 61,
      "start": 35.8519,
      "duration": 0.0161,
      "velocity": 101,
      "chip": "ym2612"
    },
    {
      "channel": 1,
      "note": 66,
      "start": 35.8541,
      "duration": 0.0161,
      "velocity": 101,
      "chip": "ym2612"
    },
    {
      "channel": 4,
      "note": 58,
      "start": 35.8668,
      "duration": 0.0195,
      "velocity": 101,
      "chip": "ym2612"
    },
    {
      "channel": 3,
      "note": 61,
      "start": 35.868,
      "duration": 0.0195,
      "velocity": 101,
      "chip": "ym2612"
    },
    {
      "channel": 1,
      "note": 66,
      "start": 35.8702,
      "duration": 0.0198,
      "velocity": 101,
      "chip": "ym2612"
    },
    {
      "channel": 0,
      "note": 84,
      "start": 35.8852,
      "duration": 0.0144,
      "velocity": 124,
      "chip": "ym2612"
    },
    {
      "channel": 4,
      "note": 58,
      "start": 35.8863,
      "duration": 0.0144,
      "velocity": 101,
      "chip": "ym2612"
    },
    {
      "channel": 3,
      "note": 61,
      "start": 35.8875,
      "duration": 0.0144,
      "velocity": 101,
      "chip": "ym2612"
    },
    {
      "channel": 2,
      "note": 59,
      "start": 35.8889,
      "duration": 0.0142,
      "velocity": 100,
      "chip": "ym2612"
    },
    {
      "channel": 1,
      "note": 66,
      "start": 35.89,
      "duration": 0.0142,
      "velocity": 101,
      "chip": "ym2612"
    },
    {
      "channel": 0,
      "note": 82,
      "start": 35.8996,
      "duration": 0.016,
      "velocity": 124,
      "chip": "ym2612"
    },
    {
      "channel": 4,
      "note": 58,
      "start": 35.9007,
      "duration": 0.016,
      "velocity": 101,
      "chip": "ym2612"
    },
    {
      "channel": 3,
      "note": 61,
      "start": 35.9019,
      "duration": 0.016,
      "velocity": 101,
      "chip": "ym2612"
    },
    {
      "channel": 2,
      "note": 59,
      "start": 35.9031,
      "duration": 0.016,
      "velocity": 100,
      "chip": "ym2612"
    },
    {
      "channel": 1,
      "note": 66,
      "start": 35.9042,
      "duration": 0.016,
      "velocity": 101,
      "chip": "ym2612"
    },
    {
      "channel": 0,
      "note": 80,
      "start": 35.9156,
      "duration": 0.0161,
      "velocity": 124,
      "chip": "ym2612"
    },
    {
      "channel": 4,
      "note": 58,
      "start": 35.9168,
      "duration": 0.0161,
      "velocity": 101,
      "chip": "ym2612"
    },
    {
      "channel": 3,
      "note": 61,
      "start": 35.9179,
      "duration": 0.0161,
      "velocity": 101,
      "chip": "ym2612"
    },
    {
      "channel": 2,
      "note": 59,
      "start": 35.919,
      "duration": 0.0161,
      "velocity": 100,
      "chip": "ym2612"
    },
    {
      "channel": 1,
      "note": 66,
      "start": 35.9202,
      "duration": 0.0161,
      "velocity": 101,
      "chip": "ym2612"
    },
    {
      "channel": 0,
      "note": 77,
      "start": 35.9317,
      "duration": 0.0161,
      "velocity": 124,
      "chip": "ym2612"
    },
    {
      "channel": 4,
      "note": 58,
      "start": 35.9329,
      "duration": 0.0161,
      "velocity": 101,
      "chip": "ym2612"
    },
    {
      "channel": 3,
      "note": 61,
      "start": 35.934,
      "duration": 0.0162,
      "velocity": 101,
      "chip": "ym2612"
    },
    {
      "channel": 2,
      "note": 59,
      "start": 35.9351,
      "duration": 0.0161,
      "velocity": 100,
      "chip": "ym2612"
    },
    {
      "channel": 1,
      "note": 66,
      "start": 35.9363,
      "duration": 0.0161,
      "velocity": 101,
      "chip": "ym2612"
    },
    {
      "channel": 0,
      "note": 75,
      "start": 35.9478,
      "duration": 0.0161,
      "velocity": 124,
      "chip": "ym2612"
    },
    {
      "channel": 4,
      "note": 58,
      "start": 35.949,
      "duration": 0.0161,
      "velocity": 101,
      "chip": "ym2612"
    },
    {
      "channel": 3,
      "note": 61,
      "start": 35.9502,
      "duration": 0.0161,
      "velocity": 101,
      "chip": "ym2612"
    },
    {
      "channel": 2,
      "note": 59,
      "start": 35.9512,
      "duration": 0.0161,
      "velocity": 100,
      "chip": "ym2612"
    },
    {
      "channel": 1,
      "note": 66,
      "start": 35.9524,
      "duration": 0.0161,
      "velocity": 101,
      "chip": "ym2612"
    },
    {
      "channel": 0,
      "note": 72,
      "start": 35.9639,
      "duration": 0.0161,
      "velocity": 124,
      "chip": "ym2612"
    },
    {
      "channel": 4,
      "note": 58,
      "start": 35.9651,
      "duration": 0.0161,
      "velocity": 101,
      "chip": "ym2612"
    },
    {
      "channel": 3,
      "note": 61,
      "start": 35.9662,
      "duration": 0.0161,
      "velocity": 101,
      "chip": "ym2612"
    },
    {
      "channel": 2,
      "note": 59,
      "start": 35.9673,
      "duration": 0.0161,
      "velocity": 100,
      "chip": "ym2612"
    },
    {
      "channel": 1,
      "note": 66,
      "start": 35.9685,
      "duration": 0.0161,
      "velocity": 101,
      "chip": "ym2612"
    },
    {
      "channel": 0,
      "note": 70,
      "start": 35.98,
      "duration": 0.0162,
      "velocity": 124,
      "chip": "ym2612"
    },
    {
      "channel": 4,
      "note": 58,
      "start": 35.9812,
      "duration": 0.0161,
      "velocity": 101,
      "chip": "ym2612"
    },
    {
      "channel": 3,
      "note": 61,
      "start": 35.9823,
      "duration": 0.0161,
      "velocity": 101,
      "chip": "ym2612"
    },
    {
      "channel": 2,
      "note": 59,
      "start": 35.9834,
      "duration": 0.0161,
      "velocity": 100,
      "chip": "ym2612"
    },
    {
      "channel": 1,
      "note": 66,
      "start": 35.9846,
      "duration": 0.0162,
      "velocity": 101,
      "chip": "ym2612"
    },
    {
      "channel": 0,
      "note": 68,
      "start": 35.9961,
      "duration": 0.0161,
      "velocity": 124,
      "chip": "ym2612"
    },
    {
      "channel": 4,
      "note": 58,
      "start": 35.9973,
      "duration": 0.0161,
      "velocity": 101,
      "chip": "ym2612"
    },
    {
      "channel": 3,
      "note": 61,
      "start": 35.9984,
      "duration": 0.0161,
      "velocity": 101,
      "chip": "ym2612"
    },
    {
      "channel": 1,
      "note": 66,
      "start": 36.0007,
      "duration": 0.0161,
      "velocity": 101,
      "chip": "ym2612"
    },
    {
      "channel": 0,
      "note": 65,
      "start": 36.0122,
      "duration": 0.0169,
      "velocity": 124,
      "chip": "ym2612"
    },
    {
      "channel": 4,
      "note": 58,
      "start": 36.0134,
      "duration": 0.0169,
      "velocity": 101,
      "chip": "ym2612"
    },
    {
      "channel": 3,
      "note": 61,
      "start": 36.0145,
      "duration": 0.0169,
      "velocity": 101,
      "chip": "ym2612"
    },
    {
      "channel": 1,
      "note": 66,
      "start": 36.0168,
      "duration": 0.0169,
      "velocity": 101,
      "chip": "ym2612"
    },
    {
      "channel": 0,
      "note": 63,
      "start": 36.0292,
      "duration": 0.0158,
      "velocity": 1,
      "chip": "ym2612"
    },
    {
      "channel": 4,
      "note": 58,
      "start": 36.0303,
      "duration": 0.0159,
      "velocity": 101,
      "chip": "ym2612"
    },
    {
      "channel": 3,
      "note": 61,
      "start": 36.0315,
      "duration": 0.0158,
      "velocity": 101,
      "chip": "ym2612"
    },
    {
      "channel": 1,
      "note": 66,
      "start": 36.0337,
      "duration": 0.0158,
      "velocity": 101,
      "chip": "ym2612"
    },
    {
      "channel": 4,
      "note": 58,
      "start": 36.0461,
      "duration": 0.0155,
      "velocity": 101,
      "chip": "ym2612"
    },
    {
      "channel": 3,
      "note": 61,
      "start": 36.0473,
      "duration": 0.0155,
      "velocity": 101,
      "chip": "ym2612"
    },
    {
      "channel": 1,
      "note": 66,
      "start": 36.0496,
      "duration": 0.0155,
      "velocity": 101,
      "chip": "ym2612"
    },
    {
      "channel": 4,
      "note": 58,
      "start": 36.0616,
      "duration": 0.0147,
      "velocity": 101,
      "chip": "ym2612"
    },
    {
      "channel": 3,
      "note": 61,
      "start": 36.0627,
      "duration": 0.0147,
      "velocity": 101,
      "chip": "ym2612"
    },
    {
      "channel": 1,
      "note": 66,
      "start": 36.065,
      "duration": 0.0147,
      "velocity": 101,
      "chip": "ym2612"
    },
    {
      "channel": 4,
      "note": 58,
      "start": 36.0763,
      "duration": 0.0187,
      "velocity": 101,
      "chip": "ym2612"
    },
    {
      "channel": 3,
      "note": 61,
      "start": 36.0774,
      "duration": 0.0187,
      "velocity": 101,
      "chip": "ym2612"
    },
    {
      "channel": 1,
      "note": 66,
      "start": 36.0797,
      "duration": 0.0187,
      "velocity": 101,
      "chip": "ym2612"
    },
    {
      "channel": 4,
      "note": 58,
      "start": 36.095,
      "duration": 0.0199,
      "velocity": 101,
      "chip": "ym2612"
    },
    {
      "channel": 3,
      "note": 61,
      "start": 36.0961,
      "duration": 0.0202,
      "velocity": 101,
      "chip": "ym2612"
    },
    {
      "channel": 1,
      "note": 66,
      "start": 36.0984,
      "duration": 0.021,
      "velocity": 101,
      "chip": "ym2612"
    },
    {
      "channel": 0,
      "note": 36,
      "start": 36.1133,
      "duration": 0.0141,
      "velocity": 115,
      "chip": "ym2612"
    },
    {
      "channel": 4,
      "note": 63,
      "start": 36.1149,
      "duration": 0.0137,
      "velocity": 101,
      "chip": "ym2612"
    },
    {
      "channel": 3,
      "note": 66,
      "start": 36.1164,
      "duration": 0.0134,
      "velocity": 101,
      "chip": "ym2612"
    },
    {
      "channel": 2,
      "note": 54,
      "start": 36.118,
      "duration": 0.0129,
      "velocity": 100,
      "chip": "ym2612"
    },
    {
      "channel": 1,
      "note": 71,
      "start": 36.1195,
      "duration": 0.0126,
      "velocity": 101,
      "chip": "ym2612"
    },
    {
      "channel": 0,
      "note": 36,
      "start": 36.1274,
      "duration": 0.0137,
      "velocity": 115,
      "chip": "ym2612"
    },
    {
      "channel": 4,
      "note": 63,
      "start": 36.1286,
      "duration": 0.0139,
      "velocity": 101,
      "chip": "ym2612"
    },
    {
      "channel": 3,
      "note": 66,
      "start": 36.1298,
      "duration": 0.0139,
      "velocity": 101,
      "chip": "ym2612"
    },
    {
      "channel": 2,
      "note": 54,
      "start": 36.1309,
      "duration": 0.0139,
      "velocity": 100,
      "chip": "ym2612"
    },
    {
      "channel": 1,
      "note": 71,
      "start": 36.1322,
      "duration": 0.0138,
      "velocity": 101,
      "chip": "ym2612"
    },
    {
      "channel": 0,
      "note": 37,
      "start": 36.141,
      "duration": 0.0161,
      "velocity": 115,
      "chip": "ym2612"
    },
    {
      "channel": 4,
      "note": 63,
      "start": 36.1425,
      "duration": 0.0185,
      "velocity": 101,
      "chip": "ym2612"
    },
    {
      "channel": 3,
      "note": 66,
      "start": 36.1437,
      "duration": 0.0185,
      "velocity": 101,
      "chip": "ym2612"
    },
    {
      "channel": 2,
      "note": 54,
      "start": 36.1448,
      "duration": 0.0185,
      "velocity": 100,
      "chip": "ym2612"
    },
    {
      "channel": 1,
      "note": 71,
      "start": 36.1459,
      "duration": 0.0185,
      "velocity": 101,
      "chip": "ym2612"
    },
    {
      "channel": 0,
      "note": 37,
      "start": 36.1571,
      "duration": 0.0161,
      "velocity": 115,
      "chip": "ym2612"
    },
    {
      "channel": 4,
      "note": 63,
      "start": 36.161,
      "duration": 0.0134,
      "velocity": 101,
      "chip": "ym2612"
    },
    {
      "channel": 3,
      "note": 66,
      "start": 36.1622,
      "duration": 0.0161,
      "velocity": 101,
      "chip": "ym2612"
    },
    {
      "channel": 2,
      "note": 54,
      "start": 36.1633,
      "duration": 0.0161,
      "velocity": 100,
      "chip": "ym2612"
    },
    {
      "channel": 1,
      "note": 71,
      "start": 36.1645,
      "duration": 0.0161,
      "velocity": 101,
      "chip": "ym2612"
    },
    {
      "channel": 0,
      "note": 38,
      "start": 36.1732,
      "duration": 0.0161,
      "velocity": 115,
      "chip": "ym2612"
    },
    {
      "channel": 4,
      "note": 63,
      "start": 36.1744,
      "duration": 0.0161,
      "velocity": 101,
      "chip": "ym2612"
    },
    {
      "channel": 3,
      "note": 66,
      "start": 36.1783,
      "duration": 0.0158,
      "velocity": 101,
      "chip": "ym2612"
    },
    {
      "channel": 2,
      "note": 54,
      "start": 36.1794,
      "duration": 0.0158,
      "velocity": 100,
      "chip": "ym2612"
    },
    {
      "channel": 1,
      "note": 71,
      "start": 36.1806,
      "duration": 0.0158,
      "velocity": 101,
      "chip": "ym2612"
    },
    {
      "channel": 0,
      "note": 38,
      "start": 36.1893,
      "duration": 0.0161,
      "velocity": 115,
      "chip": "ym2612"
    },
    {
      "channel": 4,
      "note": 63,
      "start": 36.1905,
      "duration": 0.0161,
      "velocity": 101,
      "chip": "ym2612"
    },
    {
      "channel": 3,
      "note": 66,
      "start": 36.194,
      "duration": 0.0138,
      "velocity": 101,
      "chip": "ym2612"
    },
    {
      "channel": 2,
      "note": 54,
      "start": 36.1952,
      "duration": 0.014,
      "velocity": 100,
      "chip": "ym2612"
    },
    {
      "channel": 1,
      "note": 71,
      "start": 36.1963,
      "duration": 0.014,
      "velocity": 101,
      "chip": "ym2612"
    },
    {
      "channel": 0,
      "note": 39,
      "start": 36.2054,
      "duration": 0.0161,
      "velocity": 115,
      "chip": "ym2612"
    },
    {
      "channel": 4,
      "note": 63,
      "start": 36.2066,
      "duration": 0.0161,
      "velocity": 101,
      "chip": "ym2612"
    },
    {
      "channel": 3,
      "note": 66,
      "start": 36.2078,
      "duration": 0.016,
      "velocity": 101,
      "chip": "ym2612"
    },
    {
      "channel": 2,
      "note": 54,
      "start": 36.2092,
      "duration": 0.0186,
      "velocity": 100,
      "chip": "ym2612"
    },
    {
      "channel": 1,
      "note": 71,
      "start": 36.2103,
      "duration": 0.0186,
      "velocity": 101,
      "chip": "ym2612"
    },
    {
      "channel": 0,
      "note": 39,
      "start": 36.2215,
      "duration": 0.0161,
      "velocity": 115,
      "chip": "ym2612"
    },
    {
      "channel": 4,
      "note": 63,
      "start": 36.2227,
      "duration": 0.0161,
      "velocity": 101,
      "chip": "ym2612"
    },
    {
      "channel": 3,
      "note": 66,
      "start": 36.2238,
      "duration": 0.0161,
      "velocity": 101,
      "chip": "ym2612"
    },
    {
      "channel": 1,
      "note": 71,
      "start": 36.2289,
      "duration": 0.016,
      "velocity": 101,
      "chip": "ym2612"
    },
    {
      "channel": 0,
      "note": 40,
      "start": 36.2376,
      "duration": 0.0161,
      "velocity": 115,
      "chip": "ym2612"
    },
    {
      "channel": 4,
      "note": 63,
      "start": 36.2388,
      "duration": 0.0162,
      "velocity": 101,
      "chip": "ym2612"
    },
    {
      "channel": 3,
      "note": 66,
      "start": 36.2399,
      "duration": 0.0161,
      "velocity": 101,
      "chip": "ym2612"
    },
    {
      "channel": 1,
      "note": 71,
      "start": 36.2449,
      "duration": 0.0158,
      "velocity": 101,
      "chip": "ym2612"
    },
    {
      "channel": 0,
      "note": 40,
      "start": 36.2537,
      "duration": 0.0161,
      "velocity": 115,
      "chip": "ym2612"
    },
    {
      "channel": 4,
      "note": 63,
      "start": 36.2549,
      "duration": 0.0161,
      "velocity": 101,
      "chip": "ym2612"
    },
    {
      "channel": 3,
      "note": 66,
      "start": 36.2561,
      "duration": 0.0161,
      "velocity": 101,
      "chip": "ym2612"
    },
    {
      "channel": 1,
      "note": 71,
      "start": 36.2607,
      "duration": 0.0138,
      "velocity": 101,
      "chip": "ym2612"
    },
    {
      "channel": 0,
      "note": 40,
      "start": 36.2698,
      "duration": 0.0161,
      "velocity": 115,
      "chip": "ym2612"
    },
    {
      "channel": 4,
      "note": 63,
      "start": 36.271,
      "duration": 0.0161,
      "velocity": 101,
      "chip": "ym2612"
    },
    {
      "channel": 3,
      "note": 66,
      "start": 36.2722,
      "duration": 0.0161,
      "velocity": 101,
      "chip": "ym2612"
    },
    {
      "channel": 1,
      "note": 71,
      "start": 36.2745,
      "duration": 0.016,
      "velocity": 101,
      "chip": "ym2612"
    },
    {
      "channel": 0,
      "note": 41,
      "start": 36.2859,
      "duration": 0.0162,
      "velocity": 115,
      "chip": "ym2612"
    },
    {
      "channel": 4,
      "note": 63,
      "start": 36.2871,
      "duration": 0.0161,
      "velocity": 101,
      "chip": "ym2612"
    },
    {
      "channel": 3,
      "note": 66,
      "start": 36.2883,
      "duration": 0.0161,
      "velocity": 101,
      "chip": "ym2612"
    },
    {
      "channel": 1,
      "note": 71,
      "start": 36.2905,
      "duration": 0.0162,
      "velocity": 101,
      "chip": "ym2612"
    },
    {
      "channel": 0,
      "note": 41,
      "start": 36.3021,
      "duration": 0.0161,
      "velocity": 115,
      "chip": "ym2612"
    },
    {
      "channel": 4,
      "note": 63,
      "start": 36.3032,
      "duration": 0.0161,
      "velocity": 101,
      "chip": "ym2612"
    },
    {
      "channel": 3,
      "note": 66,
      "start": 36.3044,
      "duration": 0.0161,
      "velocity": 101,
      "chip": "ym2612"
    },
    {
      "channel": 1,
      "note": 71,
      "start": 36.3066,
      "duration": 0.0161,
      "velocity": 101,
      "chip": "ym2612"
    },
    {
      "channel": 0,
      "note": 42,
      "start": 36.3181,
      "duration": 0.0161,
      "velocity": 115,
      "chip": "ym2612"
    },
    {
      "channel": 4,
      "note": 63,
      "start": 36.3193,
      "duration": 0.0161,
      "velocity": 101,
      "chip": "ym2612"
    },
    {
      "channel": 3,
      "note": 66,
      "start": 36.3204,
      "duration": 0.0161,
      "velocity": 101,
      "chip": "ym2612"
    },
    {
      "channel": 1,
      "note": 71,
      "start": 36.3227,
      "duration": 0.0163,
      "velocity": 101,
      "chip": "ym2612"
    },
    {
      "channel": 0,
      "note": 42,
      "start": 36.3342,
      "duration": 0.0161,
      "velocity": 115,
      "chip": "ym2612"
    },
    {
      "channel": 4,
      "note": 63,
      "start": 36.3354,
      "duration": 0.0161,
      "velocity": 101,
      "chip": "ym2612"
    },
    {
      "channel": 3,
      "note": 66,
      "start": 36.3365,
      "duration": 0.0161,
      "velocity": 101,
      "chip": "ym2612"
    },
    {
      "channel": 2,
      "note": 54,
      "start": 36.3379,
      "duration": 0.0159,
      "velocity": 100,
      "chip": "ym2612"
    },
    {
      "channel": 1,
      "note": 71,
      "start": 36.3391,
      "duration": 0.0159,
      "velocity": 101,
      "chip": "ym2612"
    },
    {
      "channel": 0,
      "note": 43,
      "start": 36.3503,
      "duration": 0.0161,
      "velocity": 115,
      "chip": "ym2612"
    },
    {
      "channel": 4,
      "note": 63,
      "start": 36.3515,
      "duration": 0.0161,
      "velocity": 101,
      "chip": "ym2612"
    },
    {
      "channel": 3,
      "note": 66,
      "start": 36.3526,
      "duration": 0.0161,
      "velocity": 101,
      "chip": "ym2612"
    },
    {
      "channel": 2,
      "note": 54,
      "start": 36.3538,
      "duration": 0.016,
      "velocity": 100,
      "chip": "ym2612"
    },
    {
      "channel": 1,
      "note": 71,
      "start": 36.355,
      "duration": 0.016,
      "velocity": 101,
      "chip": "ym2612"
    },
    {
      "channel": 0,
      "note": 43,
      "start": 36.3664,
      "duration": 0.0161,
      "velocity": 115,
      "chip": "ym2612"
    },
    {
      "channel": 4,
      "note": 63,
      "start": 36.3676,
      "duration": 0.0161,
      "velocity": 101,
      "chip": "ym2612"
    },
    {
      "channel": 3,
      "note": 66,
      "start": 36.3687,
      "duration": 0.0161,
      "velocity": 101,
      "chip": "ym2612"
    },
    {
      "channel": 2,
      "note": 54,
      "start": 36.3699,
      "duration": 0.0161,
      "velocity": 100,
      "chip": "ym2612"
    },
    {
      "channel": 1,
      "note": 71,
      "start": 36.371,
      "duration": 0.0161,
      "velocity": 101,
      "chip": "ym2612"
    },
    {
      "channel": 0,
      "note": 44,
      "start": 36.3825,
      "duration": 0.0161,
      "velocity": 115,
      "chip": "ym2612"
    },
    {
      "channel": 4,
      "note": 63,
      "start": 36.3837,
      "duration": 0.0161,
      "velocity": 101,
      "chip": "ym2612"
    },
    {
      "channel": 3,
      "note": 66,
      "start": 36.3848,
      "duration": 0.0161,
      "velocity": 101,
      "chip": "ym2612"
    },
    {
      "channel": 2,
      "note": 54,
      "start": 36.386,
      "duration": 0.0161,
      "velocity": 100,
      "chip": "ym2612"
    },
    {
      "channel": 1,
      "note": 71,
      "start": 36.3871,
      "duration": 0.0161,
      "velocity": 101,
      "chip": "ym2612"
    },
    {
      "channel": 0,
      "note": 44,
      "start": 36.3986,
      "duration": 0.0161,
      "velocity": 115,
      "chip": "ym2612"
    },
    {
      "channel": 4,
      "note": 63,
      "start": 36.3998,
      "duration": 0.0161,
      "velocity": 101,
      "chip": "ym2612"
    },
    {
      "channel": 3,
      "note": 66,
      "start": 36.4009,
      "duration": 0.0162,
      "velocity": 101,
      "chip": "ym2612"
    },
    {
      "channel": 2,
      "note": 54,
      "start": 36.4021,
      "duration": 0.0161,
      "velocity": 100,
      "chip": "ym2612"
    },
    {
      "channel": 1,
      "note": 71,
      "start": 36.4032,
      "duration": 0.0161,
      "velocity": 101,
      "chip": "ym2612"
    },
    {
      "channel": 0,
      "note": 44,
      "start": 36.4147,
      "duration": 0.0161,
      "velocity": 115,
      "chip": "ym2612"
    },
    {
      "channel": 4,
      "note": 63,
      "start": 36.4159,
      "duration": 0.0161,
      "velocity": 101,
      "chip": "ym2612"
    },
    {
      "channel": 3,
      "note": 66,
      "start": 36.4171,
      "duration": 0.0161,
      "velocity": 101,
      "chip": "ym2612"
    },
    {
      "channel": 2,
      "note": 54,
      "start": 36.4181,
      "duration": 0.0161,
      "velocity": 100,
      "chip": "ym2612"
    },
    {
      "channel": 1,
      "note": 71,
      "start": 36.4193,
      "duration": 0.0161,
      "velocity": 101,
      "chip": "ym2612"
    },
    {
      "channel": 0,
      "note": 45,
      "start": 36.4308,
      "duration": 0.0161,
      "velocity": 115,
      "chip": "ym2612"
    },
    {
      "channel": 4,
      "note": 63,
      "start": 36.432,
      "duration": 0.0161,
      "velocity": 101,
      "chip": "ym2612"
    },
    {
      "channel": 3,
      "note": 66,
      "start": 36.4332,
      "duration": 0.0161,
      "velocity": 101,
      "chip": "ym2612"
    },
    {
      "channel": 2,
      "note": 54,
      "start": 36.4342,
      "duration": 0.0162,
      "velocity": 100,
      "chip": "ym2612"
    },
    {
      "channel": 1,
      "note": 71,
      "start": 36.4354,
      "duration": 0.0161,
      "velocity": 101,
      "chip": "ym2612"
    },
    {
      "channel": 0,
      "note": 45,
      "start": 36.447,
      "duration": 0.0161,
      "velocity": 115,
      "chip": "ym2612"
    },
    {
      "channel": 4,
      "note": 63,
      "start": 36.4481,
      "duration": 0.0161,
      "velocity": 101,
      "chip": "ym2612"
    },
    {
      "channel": 3,
      "note": 66,
      "start": 36.4493,
      "duration": 0.0161,
      "velocity": 101,
      "chip": "ym2612"
    },
    {
      "channel": 1,
      "note": 71,
      "start": 36.4515,
      "duration": 0.0161,
      "velocity": 101,
      "chip": "ym2612"
    },
    {
      "channel": 0,
      "note": 46,
      "start": 36.4631,
      "duration": 0.0161,
      "velocity": 115,
      "chip": "ym2612"
    },
    {
      "channel": 4,
      "note": 63,
      "start": 36.4642,
      "duration": 0.0161,
      "velocity": 101,
      "chip": "ym2612"
    },
    {
      "channel": 3,
      "note": 66,
      "start": 36.4654,
      "duration": 0.0161,
      "velocity": 101,
      "chip": "ym2612"
    },
    {
      "channel": 1,
      "note": 71,
      "start": 36.4676,
      "duration": 0.0161,
      "velocity": 101,
      "chip": "ym2612"
    },
    {
      "channel": 0,
      "note": 46,
      "start": 36.4792,
      "duration": 0.0167,
      "velocity": 115,
      "chip": "ym2612"
    },
    {
      "channel": 4,
      "note": 63,
      "start": 36.4803,
      "duration": 0.0167,
      "velocity": 101,
      "chip": "ym2612"
    },
    {
      "channel": 3,
      "note": 66,
      "start": 36.4815,
      "duration": 0.0167,
      "velocity": 101,
      "chip": "ym2612"
    },
    {
      "channel": 1,
      "note": 71,
      "start": 36.4837,
      "duration": 0.0167,
      "velocity": 101,
      "chip": "ym2612"
    },
    {
      "channel": 0,
      "note": 47,
      "start": 36.4958,
      "duration": 0.0167,
      "velocity": 115,
      "chip": "ym2612"
    },
    {
      "channel": 4,
      "note": 63,
      "start": 36.497,
      "duration": 0.0167,
      "velocity": 101,
      "chip": "ym2612"
    },
    {
      "channel": 3,
      "note": 66,
      "start": 36.4981,
      "duration": 0.0167,
      "velocity": 101,
      "chip": "ym2612"
    },
    {
      "channel": 1,
      "note": 71,
      "start": 36.5004,
      "duration": 0.0167,
      "velocity": 101,
      "chip": "ym2612"
    },
    {
      "channel": 0,
      "note": 47,
      "start": 36.5125,
      "duration": 0.0163,
      "velocity": 115,
      "chip": "ym2612"
    },
    {
      "channel": 4,
      "note": 63,
      "start": 36.5136,
      "duration": 0.0163,
      "velocity": 101,
      "chip": "ym2612"
    },
    {
      "channel": 3,
      "note": 66,
      "start": 36.5148,
      "duration": 0.0163,
      "velocity": 101,
      "chip": "ym2612"
    },
    {
      "channel": 1,
      "note": 71,
      "start": 36.5171,
      "duration": 0.0163,
      "velocity": 101,
      "chip": "ym2612"
    },
    {
      "channel": 0,
      "note": 47,
      "start": 36.5288,
      "duration": 0.0148,
      "velocity": 115,
      "chip": "ym2612"
    },
    {
      "channel": 4,
      "note": 63,
      "start": 36.5299,
      "duration": 0.0148,
      "velocity": 101,
      "chip": "ym2612"
    },
    {
      "channel": 3,
      "note": 66,
      "start": 36.5311,
      "duration": 0.0148,
      "velocity": 101,
      "chip": "ym2612"
    },
    {
      "channel": 1,
      "note": 71,
      "start": 36.5334,
      "duration": 0.0148,
      "velocity": 101,
      "chip": "ym2612"
    },
    {
      "channel": 0,
      "note": 48,
      "start": 36.5435,
      "duration": 0.0206,
      "velocity": 124,
      "chip": "ym2612"
    },
    {
      "channel": 4,
      "note": 63,
      "start": 36.5447,
      "duration": 0.0206,
      "velocity": 101,
      "chip": "ym2612"
    },
    {
      "channel": 3,
      "note": 66,
      "start": 36.5459,
      "duration": 0.0206,
      "velocity": 101,
      "chip": "ym2612"
    },
    {
      "channel": 1,
      "note": 71,
      "start": 36.5481,
      "duration": 0.0209,
      "velocity": 101,
      "chip": "ym2612"
    },
    {
      "channel": 0,
      "note": 84,
      "start": 36.5642,
      "duration": 0.0144,
      "velocity": 124,
      "chip": "ym2612"
    },
    {
      "channel": 4,
      "note": 63,
      "start": 36.5654,
      "duration": 0.0144,
      "velocity": 101,
      "chip": "ym2612"
    },
    {
      "channel": 3,
      "note": 66,
      "start": 36.5665,
      "duration": 0.0144,
      "velocity": 101,
      "chip": "ym2612"
    },
    {
      "channel": 2,
      "note": 66,
      "start": 36.5679,
      "duration": 0.0142,
      "velocity": 100,
      "chip": "ym2612"
    },
    {
      "channel": 1,
      "note": 71,
      "start": 36.569,
      "duration": 0.0142,
      "velocity": 101,
      "chip": "ym2612"
    },
    {
      "channel": 0,
      "note": 82,
      "start": 36.5786,
      "duration": 0.0156,
      "velocity": 124,
      "chip": "ym2612"
    },
    {
      "channel": 4,
      "note": 63,
      "start": 36.5797,
      "duration": 0.0157,
      "velocity": 101,
      "chip": "ym2612"
    },
    {
      "channel": 3,
      "note": 66,
      "start": 36.5809,
      "duration": 0.0157,
      "velocity": 101,
      "chip": "ym2612"
    },
    {
      "channel": 2,
      "note": 66,
      "start": 36.5821,
      "duration": 0.0156,
      "velocity": 100,
      "chip": "ym2612"
    },
    {
      "channel": 1,
      "note": 71,
      "start": 36.5832,
      "duration": 0.0156,
      "velocity": 101,
      "chip": "ym2612"
    },
    {
      "channel": 0,
      "note": 80,
      "start": 36.5942,
      "duration": 0.0141,
      "velocity": 124,
      "chip": "ym2612"
    },
    {
      "channel": 4,
      "note": 63,
      "start": 36.5954,
      "duration": 0.014,
      "velocity": 101,
      "chip": "ym2612"
    },
    {
      "channel": 3,
      "note": 66,
      "start": 36.5966,
      "duration": 0.014,
      "velocity": 101,
      "chip": "ym2612"
    },
    {
      "channel": 2,
      "note": 66,
      "start": 36.5977,
      "duration": 0.0141,
      "velocity": 100,
      "chip": "ym2612"
    },
    {
      "channel": 1,
      "note": 71,
      "start": 36.5988,
      "duration": 0.0141,
      "velocity": 101,
      "chip": "ym2612"
    },
    {
      "channel": 0,
      "note": 77,
      "start": 36.6083,
      "duration": 0.0158,
      "velocity": 124,
      "chip": "ym2612"
    },
    {
      "channel": 4,
      "note": 63,
      "start": 36.6094,
      "duration": 0.0185,
      "velocity": 101,
      "chip": "ym2612"
    },
    {
      "channel": 3,
      "note": 66,
      "start": 36.6106,
      "duration": 0.0185,
      "velocity": 101,
      "chip": "ym2612"
    },
    {
      "channel": 2,
      "note": 66,
      "start": 36.6117,
      "duration": 0.0185,
      "velocity": 100,
      "chip": "ym2612"
    },
    {
      "channel": 1,
      "note": 71,
      "start": 36.6129,
      "duration": 0.0185,
      "velocity": 101,
      "chip": "ym2612"
    },
    {
      "channel": 0,
      "note": 75,
      "start": 36.6241,
      "duration": 0.0161,
      "velocity": 124,
      "chip": "ym2612"
    },
    {
      "channel": 4,
      "note": 63,
      "start": 36.628,
      "duration": 0.0161,
      "velocity": 101,
      "chip": "ym2612"
    },
    {
      "channel": 3,
      "note": 66,
      "start": 36.6291,
      "duration": 0.0162,
      "velocity": 101,
      "chip": "ym2612"
    },
    {
      "channel": 2,
      "note": 66,
      "start": 36.6302,
      "duration": 0.0161,
      "velocity": 100,
      "chip": "ym2612"
    },
    {
      "channel": 1,
      "note": 71,
      "start": 36.6314,
      "duration": 0.0161,
      "velocity": 101,
      "chip": "ym2612"
    },
    {
      "channel": 0,
      "note": 72,
      "start": 36.6402,
      "duration": 0.0161,
      "velocity": 124,
      "chip": "ym2612"
    },
    {
      "channel": 4,
      "note": 63,
      "start": 36.6441,
      "duration": 0.0133,
      "velocity": 101,
      "chip": "ym2612"
    },
    {
      "channel": 3,
      "note": 66,
      "start": 36.6453,
      "duration": 0.0157,
      "velocity": 101,
      "chip": "ym2612"
    },
    {
      "channel": 2,
      "note": 66,
      "start": 36.6463,
      "duration": 0.0157,
      "velocity": 100,
      "chip": "ym2612"
    },
    {
      "channel": 1,
      "note": 71,
      "start": 36.6475,
      "duration": 0.0157,
      "velocity": 101,
      "chip": "ym2612"
    },
    {
      "channel": 0,
      "note": 70,
      "start": 36.6563,
      "duration": 0.0161,
      "velocity": 124,
      "chip": "ym2612"
    },
    {
      "channel": 4,
      "note": 63,
      "start": 36.6574,
      "duration": 0.0161,
      "velocity": 101,
      "chip": "ym2612"
    },
    {
      "channel": 3,
      "note": 66,
      "start": 36.661,
      "duration": 0.014,
      "velocity": 101,
      "chip": "ym2612"
    },
    {
      "channel": 2,
      "note": 66,
      "start": 36.662,
      "duration": 0.0141,
      "velocity": 100,
      "chip": "ym2612"
    },
    {
      "channel": 1,
      "note": 71,
      "start": 36.6632,
      "duration": 0.0141,
      "velocity": 101,
      "chip": "ym2612"
    },
    {
      "channel": 0,
      "note": 68,
      "start": 36.6724,
      "duration": 0.0161,
      "velocity": 124,
      "chip": "ym2612"
    },
    {
      "channel": 4,
      "note": 63,
      "start": 36.6735,
      "duration": 0.0162,
      "velocity": 101,
      "chip": "ym2612"
    },
    {
      "channel": 3,
      "note": 66,
      "start": 36.675,
      "duration": 0.0158,
      "velocity": 101,
      "chip": "ym2612"
    },
    {
      "channel": 1,
      "note": 71,
      "start": 36.6773,
      "duration": 0.0186,
      "velocity": 101,
      "chip": "ym2612"
    },
    {
      "channel": 0,
      "note": 65,
      "start": 36.6884,
      "duration": 0.0161,
      "velocity": 124,
      "chip": "ym2612"
    },
    {
      "channel": 4,
      "note": 63,
      "start": 36.6897,
      "duration": 0.0161,
      "velocity": 101,
      "chip": "ym2612"
    },
    {
      "channel": 3,
      "note": 66,
      "start": 36.6908,
      "duration": 0.0161,
      "velocity": 101,
      "chip": "ym2612"
    },
    {
      "channel": 1,
      "note": 71,
      "start": 36.6958,
      "duration": 0.0161,
      "velocity": 101,
      "chip": "ym2612"
    },
    {
      "channel": 0,
      "note": 63,
      "start": 36.7045,
      "duration": 0.0153,
      "velocity": 1,
      "chip": "ym2612"
    },
    {
      "channel": 4,
      "note": 63,
      "start": 36.7057,
      "duration": 0.0153,
      "velocity": 101,
      "chip": "ym2612"
    },
    {
      "channel": 3,
      "note": 66,
      "start": 36.7069,
      "duration": 0.0153,
      "velocity": 101,
      "chip": "ym2612"
    },
    {
      "channel": 1,
      "note": 71,
      "start": 36.7119,
      "duration": 0.0149,
      "velocity": 101,
      "chip": "ym2612"
    },
    {
      "channel": 4,
      "note": 63,
      "start": 36.721,
      "duration": 0.0153,
      "velocity": 101,
      "chip": "ym2612"
    },
    {
      "channel": 3,
      "note": 66,
      "start": 36.7222,
      "duration": 0.0153,
      "velocity": 101,
      "chip": "ym2612"
    },
    {
      "channel": 1,
      "note": 71,
      "start": 36.7268,
      "duration": 0.0129,
      "velocity": 101,
      "chip": "ym2612"
    },
    {
      "channel": 4,
      "note": 63,
      "start": 36.7363,
      "duration": 0.0161,
      "velocity": 101,
      "chip": "ym2612"
    },
    {
      "channel": 3,
      "note": 66,
      "start": 36.7374,
      "duration": 0.0161,
      "velocity": 101,
      "chip": "ym2612"
    },
    {
      "channel": 1,
      "note": 71,
      "start": 36.7397,
      "duration": 0.0161,
      "velocity": 101,
      "chip": "ym2612"
    },
    {
      "channel": 4,
      "note": 63,
      "start": 36.7524,
      "duration": 0.0161,
      "velocity": 101,
      "chip": "ym2612"
    },
    {
      "channel": 3,
      "note": 66,
      "start": 36.7535,
      "duration": 0.0161,
      "velocity": 101,
      "chip": "ym2612"
    },
    {
      "channel": 1,
      "note": 71,
      "start": 36.7558,
      "duration": 0.0161,
      "velocity": 101,
      "chip": "ym2612"
    },
    {
      "channel": 4,
      "note": 63,
      "start": 36.7685,
      "duration": 0.0198,
      "velocity": 101,
      "chip": "ym2612"
    },
    {
      "channel": 3,
      "note": 66,
      "start": 36.7696,
      "duration": 0.02,
      "velocity": 101,
      "chip": "ym2612"
    },
    {
      "channel": 1,
      "note": 71,
      "start": 36.7719,
      "duration": 0.023,
      "velocity": 101,
      "chip": "ym2612"
    },
    {
      "channel": 0,
      "note": 36,
      "start": 36.7868,
      "duration": 0.0144,
      "velocity": 115,
      "chip": "ym2612"
    },
    {
      "channel": 4,
      "note": 63,
      "start": 36.7883,
      "duration": 0.0141,
      "velocity": 101,
      "chip": "ym2612"
    },
    {
      "channel": 3,
      "note": 66,
      "start": 36.7897,
      "duration": 0.0139,
      "velocity": 101,
      "chip": "ym2612"
    },
    {
      "channel": 2,
      "note": 54,
      "start": 36.7935,
      "duration": 0.0113,
      "velocity": 100,
      "chip": "ym2612"
    },
    {
      "channel": 1,
      "note": 71,
      "start": 36.7949,
      "duration": 0.0111,
      "velocity": 101,
      "chip": "ym2612"
    },
    {
      "channel": 0,
      "note": 36,
      "start": 36.8012,
      "duration": 0.016,
      "velocity": 115,
      "chip": "ym2612"
    },
    {
      "channel": 4,
      "note": 63,
      "start": 36.8024,
      "duration": 0.016,
      "velocity": 101,
      "chip": "ym2612"
    },
    {
      "channel": 3,
      "note": 66,
      "start": 36.8037,
      "duration": 0.0159,
      "velocity": 101,
      "chip": "ym2612"
    },
    {
      "channel": 2,
      "note": 54,
      "start": 36.8048,
      "duration": 0.0159,
      "velocity": 100,
      "chip": "ym2612"
    },
    {
      "channel": 1,
      "note": 71,
      "start": 36.806,
      "duration": 0.0158,
      "velocity": 101,
      "chip": "ym2612"
    },
    {
      "channel": 0,
      "note": 37,
      "start": 36.8173,
      "duration": 0.0161,
      "velocity": 115,
      "chip": "ym2612"
    },
    {
      "channel": 4,
      "note": 63,
      "start": 36.8184,
      "duration": 0.0161,
      "velocity": 101,
      "chip": "ym2612"
    },
    {
      "channel": 3,
      "note": 66,
      "start": 36.8195,
      "duration": 0.0161,
      "velocity": 101,
      "chip": "ym2612"
    },
    {
      "channel": 2,
      "note": 54,
      "start": 36.8207,
      "duration": 0.0161,
      "velocity": 100,
      "chip": "ym2612"
    },
    {
      "channel": 1,
      "note": 71,
      "start": 36.8218,
      "duration": 0.0161,
      "velocity": 101,
      "chip": "ym2612"
    },
    {
      "channel": 0,
      "note": 37,
      "start": 36.8334,
      "duration": 0.0161,
      "velocity": 115,
      "chip": "ym2612"
    },
    {
      "channel": 4,
      "note": 63,
      "start": 36.8345,
      "duration": 0.0162,
      "velocity": 101,
      "chip": "ym2612"
    },
    {
      "channel": 3,
      "note": 66,
      "start": 36.8356,
      "duration": 0.0162,
      "velocity": 101,
      "chip": "ym2612"
    },
    {
      "channel": 2,
      "note": 54,
      "start": 36.8368,
      "duration": 0.0161,
      "velocity": 100,
      "chip": "ym2612"
    },
    {
      "channel": 1,
      "note": 71,
      "start": 36.8379,
      "duration": 0.0161,
      "velocity": 101,
      "chip": "ym2612"
    },
    {
      "channel": 0,
      "note": 38,
      "start": 36.8495,
      "duration": 0.0161,
      "velocity": 115,
      "chip": "ym2612"
    },
    {
      "channel": 4,
      "note": 63,
      "start": 36.8507,
      "duration": 0.0161,
      "velocity": 101,
      "chip": "ym2612"
    },
    {
      "channel": 3,
      "note": 66,
      "start": 36.8518,
      "duration": 0.0161,
      "velocity": 101,
      "chip": "ym2612"
    },
    {
      "channel": 2,
      "note": 54,
      "start": 36.8529,
      "duration": 0.0161,
      "velocity": 100,
      "chip": "ym2612"
    },
    {
      "channel": 1,
      "note": 71,
      "start": 36.854,
      "duration": 0.0161,
      "velocity": 101,
      "chip": "ym2612"
    },
    {
      "channel": 0,
      "note": 38,
      "start": 36.8655,
      "duration": 0.0161,
      "velocity": 115,
      "chip": "ym2612"
    },
    {
      "channel": 4,
      "note": 63,
      "start": 36.8668,
      "duration": 0.0161,
      "velocity": 101,
      "chip": "ym2612"
    },
    {
      "channel": 3,
      "note": 66,
      "start": 36.8679,
      "duration": 0.0161,
      "velocity": 101,
      "chip": "ym2612"
    },
    {
      "channel": 2,
      "note": 54,
      "start": 36.869,
      "duration": 0.0162,
      "velocity": 100,
      "chip": "ym2612"
    },
    {
      "channel": 1,
      "note": 71,
      "start": 36.8701,
      "duration": 0.0162,
      "velocity": 101,
      "chip": "ym2612"
    },
    {
      "channel": 0,
      "note": 39,
      "start": 36.8816,
      "duration": 0.0162,
      "velocity": 115,
      "chip": "ym2612"
    },
    {
      "channel": 4,
      "note": 63,
      "start": 36.8829,
      "duration": 0.0161,
      "velocity": 101,
      "chip": "ym2612"
    },
    {
      "channel": 3,
      "note": 66,
      "start": 36.884,
      "duration": 0.0161,
      "velocity": 101,
      "chip": "ym2612"
    },
    {
      "channel": 2,
      "note": 54,
      "start": 36.8851,
      "duration": 0.0161,
      "velocity": 100,
      "chip": "ym2612"
    },
    {
      "channel": 1,
      "note": 71,
      "start": 36.8863,
      "duration": 0.0161,
      "velocity": 101,
      "chip": "ym2612"
    },
    {
      "channel": 0,
      "note": 39,
      "start": 36.8978,
      "duration": 0.0161,
      "velocity": 115,
      "chip": "ym2612"
    },
    {
      "channel": 4,
      "note": 63,
      "start": 36.8989,
      "duration": 0.0161,
      "velocity": 101,
      "chip": "ym2612"
    },
    {
      "channel": 3,
      "note": 66,
      "start": 36.9001,
      "duration": 0.0161,
      "velocity": 101,
      "chip": "ym2612"
    },
    {
      "channel": 1,
      "note": 71,
      "start": 36.9024,
      "duration": 0.0161,
      "velocity": 101,
      "chip": "ym2612"
    },
    {
      "channel": 0,
      "note": 40,
      "start": 36.9139,
      "duration": 0.0161,
      "velocity": 115,
      "chip": "ym2612"
    },
    {
      "channel": 4,
      "note": 63,
      "start": 36.915,
      "duration": 0.0161,
      "velocity": 101,
      "chip": "ym2612"
    },
    {
      "channel": 3,
      "note": 66,
      "start": 36.9162,
      "duration": 0.0161,
      "velocity": 101,
      "chip": "ym2612"
    },
    {
      "channel": 1,
      "note": 71,
      "start": 36.9185,
      "duration": 0.0161,
      "velocity": 101,
      "chip": "ym2612"
    },
    {
      "channel": 0,
      "note": 40,
      "start": 36.93,
      "duration": 0.0161,
      "velocity": 115,
      "chip": "ym2612"
    },
    {
      "channel": 4,
      "note": 63,
      "start": 36.9311,
      "duration": 0.0161,
      "velocity": 101,
      "chip": "ym2612"
    },
    {
      "channel": 3,
      "note": 66,
      "start": 36.9323,
      "duration": 0.0161,
      "velocity": 101,
      "chip": "ym2612"
    },
    {
      "channel": 1,
      "note": 71,
      "start": 36.9346,
      "duration": 0.0161,
      "velocity": 101,
      "chip": "ym2612"
    },
    {
      "channel": 0,
      "note": 40,
      "start": 36.9461,
      "duration": 0.0164,
      "velocity": 115,
      "chip": "ym2612"
    },
    {
      "channel": 4,
      "note": 63,
      "start": 36.9472,
      "duration": 0.0164,
      "velocity": 101,
      "chip": "ym2612"
    },
    {
      "channel": 3,
      "note": 66,
      "start": 36.9484,
      "duration": 0.0164,
      "velocity": 101,
      "chip": "ym2612"
    },
    {
      "channel": 1,
      "note": 71,
      "start": 36.9507,
      "duration": 0.0164,
      "velocity": 101,
      "chip": "ym2612"
    },
    {
      "channel": 0,
      "note": 41,
      "start": 36.9625,
      "duration": 0.0167,
      "velocity": 115,
      "chip": "ym2612"
    },
    {
      "channel": 4,
      "note": 63,
      "start": 36.9636,
      "duration": 0.0167,
      "velocity": 101,
      "chip": "ym2612"
    },
    {
      "channel": 3,
      "note": 66,
      "start": 36.9648,
      "duration": 0.0167,
      "velocity": 101,
      "chip": "ym2612"
    },
    {
      "channel": 1,
      "note": 71,
      "start": 36.9671,
      "duration": 0.0167,
      "velocity": 101,
      "chip": "ym2612"
    },
    {
      "channel": 0,
      "note": 41,
      "start": 36.9792,
      "duration": 0.0163,
      "velocity": 115,
      "chip": "ym2612"
    },
    {
      "channel": 4,
      "note": 63,
      "start": 36.9803,
      "duration": 0.0163,
      "velocity": 101,
      "chip": "ym2612"
    },
    {
      "channel": 3,
      "note": 66,
      "start": 36.9815,
      "duration": 0.0163,
      "velocity": 101,
      "chip": "ym2612"
    },
    {
      "channel": 1,
      "note": 71,
      "start": 36.9837,
      "duration": 0.0163,
      "velocity": 101,
      "chip": "ym2612"
    },
    {
      "channel": 0,
      "note": 42,
      "start": 36.9954,
      "duration": 0.015,
      "velocity": 115,
      "chip": "ym2612"
    },
    {
      "channel": 4,
      "note": 63,
      "start": 36.9966,
      "duration": 0.0151,
      "velocity": 101,
      "chip": "ym2612"
    },
    {
      "channel": 3,
      "note": 66,
      "start": 36.9977,
      "duration": 0.0151,
      "velocity": 101,
      "chip": "ym2612"
    },
    {
      "channel": 1,
      "note": 71,
      "start": 37.0,
      "duration": 0.0153,
      "velocity": 101,
      "chip": "ym2612"
    },
    {
      "channel": 0,
      "note": 42,
      "start": 37.0105,
      "duration": 0.0187,
      "velocity": 115,
      "chip": "ym2612"
    },
    {
      "channel": 4,
      "note": 63,
      "start": 37.0117,
      "duration": 0.0186,
      "velocity": 101,
      "chip": "ym2612"
    },
    {
      "channel": 3,
      "note": 66,
      "start": 37.0128,
      "duration": 0.0186,
      "velocity": 101,
      "chip": "ym2612"
    },
    {
      "channel": 2,
      "note": 59,
      "start": 37.0142,
      "duration": 0.0184,
      "velocity": 100,
      "chip": "ym2612"
    },
    {
      "channel": 1,
      "note": 71,
      "start": 37.0154,
      "duration": 0.0185,
      "velocity": 101,
      "chip": "ym2612"
    },
    {
      "channel": 0,
      "note": 43,
      "start": 37.0292,
      "duration": 0.0163,
      "velocity": 115,
      "chip": "ym2612"
    },
    {
      "channel": 4,
      "note": 63,
      "start": 37.0303,
      "duration": 0.0163,
      "velocity": 101,
      "chip": "ym2612"
    },
    {
      "channel": 3,
      "note": 66,
      "start": 37.0315,
      "duration": 0.0163,
      "velocity": 101,
      "chip": "ym2612"
    },
    {
      "channel": 2,
      "note": 59,
      "start": 37.0327,
      "duration": 0.0162,
      "velocity": 100,
      "chip": "ym2612"
    },
    {
      "channel": 1,
      "note": 71,
      "start": 37.0338,
      "duration": 0.0162,
      "velocity": 101,
      "chip": "ym2612"
    },
    {
      "channel": 0,
      "note": 43,
      "start": 37.0454,
      "duration": 0.0157,
      "velocity": 115,
      "chip": "ym2612"
    },
    {
      "channel": 4,
      "note": 63,
      "start": 37.0466,
      "duration": 0.0158,
      "velocity": 101,
      "chip": "ym2612"
    },
    {
      "channel": 3,
      "note": 66,
      "start": 37.0477,
      "duration": 0.0158,
      "velocity": 101,
      "chip": "ym2612"
    },
    {
      "channel": 2,
      "note": 59,
      "start": 37.0489,
      "duration": 0.0158,
      "velocity": 100,
      "chip": "ym2612"
    },
    {
      "channel": 1,
      "note": 71,
      "start": 37.05,
      "duration": 0.0158,
      "velocity": 101,
      "chip": "ym2612"
    },
    {
      "channel": 0,
      "note": 44,
      "start": 37.0612,
      "duration": 0.0141,
      "velocity": 115,
      "chip": "ym2612"
    },
    {
      "channel": 4,
      "note": 63,
      "start": 37.0624,
      "duration": 0.014,
      "velocity": 101,
      "chip": "ym2612"
    },
    {
      "channel": 3,
      "note": 66,
      "start": 37.0635,
      "duration": 0.014,
      "velocity": 101,
      "chip": "ym2612"
    },
    {
      "channel": 2,
      "note": 59,
      "start": 37.0646,
      "duration": 0.014,
      "velocity": 100,
      "chip": "ym2612"
    },
    {
      "channel": 1,
      "note": 71,
      "start": 37.0658,
      "duration": 0.014,
      "velocity": 101,
      "chip": "ym2612"
    },
    {
      "channel": 0,
      "note": 44,
      "start": 37.0752,
      "duration": 0.0158,
      "velocity": 115,
      "chip": "ym2612"
    },
    {
      "channel": 4,
      "note": 63,
      "start": 37.0763,
      "duration": 0.0186,
      "velocity": 101,
      "chip": "ym2612"
    },
    {
      "channel": 3,
      "note": 66,
      "start": 37.0775,
      "duration": 0.0186,
      "velocity": 101,
      "chip": "ym2612"
    },
    {
      "channel": 2,
      "note": 59,
      "start": 37.0786,
      "duration": 0.0185,
      "velocity": 100,
      "chip": "ym2612"
    },
    {
      "channel": 1,
      "note": 71,
      "start": 37.0798,
      "duration": 0.0185,
      "velocity": 101,
      "chip": "ym2612"
    },
    {
      "channel": 0,
      "note": 44,
      "start": 37.091,
      "duration": 0.0161,
      "velocity": 115,
      "chip": "ym2612"
    },
    {
      "channel": 4,
      "note": 63,
      "start": 37.0949,
      "duration": 0.0161,
      "velocity": 101,
      "chip": "ym2612"
    },
    {
      "channel": 3,
      "note": 66,
      "start": 37.0961,
      "duration": 0.0161,
      "velocity": 101,
      "chip": "ym2612"
    },
    {
      "channel": 2,
      "note": 59,
      "start": 37.0972,
      "duration": 0.0161,
      "velocity": 100,
      "chip": "ym2612"
    },
    {
      "channel": 1,
      "note": 71,
      "start": 37.0983,
      "duration": 0.0161,
      "velocity": 101,
      "chip": "ym2612"
    },
    {
      "channel": 0,
      "note": 45,
      "start": 37.1071,
      "duration": 0.0161,
      "velocity": 115,
      "chip": "ym2612"
    },
    {
      "channel": 4,
      "note": 63,
      "start": 37.111,
      "duration": 0.0133,
      "velocity": 101,
      "chip": "ym2612"
    },
    {
      "channel": 3,
      "note": 66,
      "start": 37.1122,
      "duration": 0.0157,
      "velocity": 101,
      "chip": "ym2612"
    },
    {
      "channel": 2,
      "note": 59,
      "start": 37.1132,
      "duration": 0.0158,
      "velocity": 100,
      "chip": "ym2612"
    },
    {
      "channel": 1,
      "note": 71,
      "start": 37.1144,
      "duration": 0.0158,
      "velocity": 101,
      "chip": "ym2612"
    },
    {
      "channel": 0,
      "note": 45,
      "start": 37.1232,
      "duration": 0.0161,
      "velocity": 115,
      "chip": "ym2612"
    },
    {
      "channel": 4,
      "note": 63,
      "start": 37.1243,
      "duration": 0.0161,
      "velocity": 101,
      "chip": "ym2612"
    },
    {
      "channel": 3,
      "note": 66,
      "start": 37.1279,
      "duration": 0.014,
      "velocity": 101,
      "chip": "ym2612"
    },
    {
      "channel": 1,
      "note": 71,
      "start": 37.1302,
      "duration": 0.014,
      "velocity": 101,
      "chip": "ym2612"
    },
    {
      "channel": 0,
      "note": 46,
      "start": 37.1393,
      "duration": 0.0161,
      "velocity": 115,
      "chip": "ym2612"
    },
    {
      "channel": 4,
      "note": 63,
      "start": 37.1404,
      "duration": 0.0162,
      "velocity": 101,
      "chip": "ym2612"
    },
    {
      "channel": 3,
      "note": 66,
      "start": 37.1419,
      "duration": 0.0158,
      "velocity": 101,
      "chip": "ym2612"
    },
    {
      "channel": 1,
      "note": 71,
      "start": 37.1442,
      "duration": 0.0186,
      "velocity": 101,
      "chip": "ym2612"
    },
    {
      "channel": 0,
      "note": 46,
      "start": 37.1554,
      "duration": 0.0161,
      "velocity": 115,
      "chip": "ym2612"
    },
    {
      "channel": 4,
      "note": 63,
      "start": 37.1566,
      "duration": 0.0161,
      "velocity": 101,
      "chip": "ym2612"
    },
    {
      "channel": 3,
      "note": 66,
      "start": 37.1577,
      "duration": 0.0161,
      "velocity": 101,
      "chip": "ym2612"
    },
    {
      "channel": 1,
      "note": 71,
      "start": 37.1627,
      "duration": 0.0161,
      "velocity": 101,
      "chip": "ym2612"
    },
    {
      "channel": 0,
      "note": 47,
      "start": 37.1715,
      "duration": 0.0162,
      "velocity": 115,
      "chip": "ym2612"
    },
    {
      "channel": 4,
      "note": 63,
      "start": 37.1727,
      "duration": 0.0161,
      "velocity": 101,
      "chip": "ym2612"
    },
    {
      "channel": 3,
      "note": 66,
      "start": 37.1738,
      "duration": 0.0161,
      "velocity": 101,
      "chip": "ym2612"
    },
    {
      "channel": 1,
      "note": 71,
      "start": 37.1788,
      "duration": 0.0157,
      "velocity": 101,
      "chip": "ym2612"
    },
    {
      "channel": 0,
      "note": 47,
      "start": 37.1876,
      "duration": 0.0161,
      "velocity": 115,
      "chip": "ym2612"
    },
    {
      "channel": 4,
      "note": 63,
      "start": 37.1888,
      "duration": 0.0161,
      "velocity": 101,
      "chip": "ym2612"
    },
    {
      "channel": 3,
      "note": 66,
      "start": 37.1899,
      "duration": 0.0161,
      "velocity": 101,
      "chip": "ym2612"
    },
    {
      "channel": 1,
      "note": 71,
      "start": 37.1946,
      "duration": 0.0141,
      "velocity": 101,
      "chip": "ym2612"
    },
    {
      "channel": 0,
      "note": 47,
      "start": 37.2037,
      "duration": 0.0161,
      "velocity": 115,
      "chip": "ym2612"
    },
    {
      "channel": 4,
      "note": 63,
      "start": 37.2049,
      "duration": 0.0161,
      "velocity": 101,
      "chip": "ym2612"
    },
    {
      "channel": 3,
      "note": 66,
      "start": 37.206,
      "duration": 0.0161,
      "velocity": 101,
      "chip": "ym2612"
    },
    {
      "channel": 1,
      "note": 71,
      "start": 37.2086,
      "duration": 0.0158,
      "velocity": 101,
      "chip": "ym2612"
    },
    {
      "channel": 0,
      "note": 48,
      "start": 37.2198,
      "duration": 0.0179,
      "velocity": 115,
      "chip": "ym2612"
    },
    {
      "channel": 4,
      "note": 63,
      "start": 37.221,
      "duration": 0.0179,
      "velocity": 101,
      "chip": "ym2612"
    },
    {
      "channel": 3,
      "note": 66,
      "start": 37.2221,
      "duration": 0.018,
      "velocity": 101,
      "chip": "ym2612"
    },
    {
      "channel": 1,
      "note": 71,
      "start": 37.2244,
      "duration": 0.0209,
      "velocity": 101,
      "chip": "ym2612"
    },
    {
      "channel": 0,
      "note": 36,
      "start": 37.2377,
      "duration": 0.0144,
      "velocity": 115,
      "chip": "ym2612"
    },
    {
      "channel": 4,
      "note": 63,
      "start": 37.2389,
      "duration": 0.0143,
      "velocity": 101,
      "chip": "ym2612"
    },
    {
      "channel": 3,
      "note": 66,
      "start": 37.24,
      "duration": 0.0143,
      "velocity": 101,
      "chip": "ym2612"
    },
    {
      "channel": 2,
      "note": 59,
      "start": 37.2442,
      "duration": 0.0114,
      "velocity": 100,
      "chip": "ym2612"
    },
    {
      "channel": 1,
      "note": 71,
      "start": 37.2453,
      "duration": 0.0114,
      "velocity": 101,
      "chip": "ym2612"
    },
    {
      "channel": 0,
      "note": 36,
      "start": 37.2521,
      "duration": 0.016,
      "velocity": 115,
      "chip": "ym2612"
    },
    {
      "channel": 4,
      "note": 63,
      "start": 37.2532,
      "duration": 0.016,
      "velocity": 101,
      "chip": "ym2612"
    },
    {
      "channel": 3,
      "note": 66,
      "start": 37.2544,
      "duration": 0.016,
      "velocity": 101,
      "chip": "ym2612"
    },
    {
      "channel": 2,
      "note": 59,
      "start": 37.2556,
      "duration": 0.016,
      "velocity": 100,
      "chip": "ym2612"
    },
    {
      "channel": 1,
      "note": 71,
      "start": 37.2567,
      "duration": 0.016,
      "velocity": 101,
      "chip": "ym2612"
    },
    {
      "channel": 0,
      "note": 37,
      "start": 37.2681,
      "duration": 0.0161,
      "velocity": 115,
      "chip": "ym2612"
    },
    {
      "channel": 4,
      "note": 63,
      "start": 37.2692,
      "duration": 0.0161,
      "velocity": 101,
      "chip": "ym2612"
    },
    {
      "channel": 3,
      "note": 66,
      "start": 37.2704,
      "duration": 0.0161,
      "velocity": 101,
      "chip": "ym2612"
    },
    {
      "channel": 2,
      "note": 59,
      "start": 37.2715,
      "duration": 0.0161,
      "velocity": 100,
      "chip": "ym2612"
    },
    {
      "channel": 1,
      "note": 71,
      "start": 37.2727,
      "duration": 0.0161,
      "velocity": 101,
      "chip": "ym2612"
    },
    {
      "channel": 0,
      "note": 37,
      "start": 37.2842,
      "duration": 0.0161,
      "velocity": 115,
      "chip": "ym2612"
    },
    {
      "channel": 4,
      "note": 63,
      "start": 37.2853,
      "duration": 0.0161,
      "velocity": 101,
      "chip": "ym2612"
    },
    {
      "channel": 3,
      "note": 66,
      "start": 37.2865,
      "duration": 0.0162,
      "velocity": 101,
      "chip": "ym2612"
    },
    {
      "channel": 2,
      "note": 59,
      "start": 37.2876,
      "duration": 0.0161,
      "velocity": 100,
      "chip": "ym2612"
    },
    {
      "channel": 1,
      "note": 71,
      "start": 37.2888,
      "duration": 0.0161,
      "velocity": 101,
      "chip": "ym2612"
    },
    {
      "channel": 0,
      "note": 38,
      "start": 37.3003,
      "duration": 0.0162,
      "velocity": 115,
      "chip": "ym2612"
    },
    {
      "channel": 4,
      "note": 63,
      "start": 37.3015,
      "duration": 0.0161,
      "velocity": 101,
      "chip": "ym2612"
    },
    {
      "channel": 3,
      "note": 66,
      "start": 37.3026,
      "duration": 0.0161,
      "velocity": 101,
      "chip": "ym2612"
    },
    {
      "channel": 2,
      "note": 59,
      "start": 37.3037,
      "duration": 0.0161,
      "velocity": 100,
      "chip": "ym2612"
    },
    {
      "channel": 1,
      "note": 71,
      "start": 37.3049,
      "duration": 0.0162,
      "velocity": 101,
      "chip": "ym2612"
    },
    {
      "channel": 0,
      "note": 38,
      "start": 37.3164,
      "duration": 0.0161,
      "velocity": 115,
      "chip": "ym2612"
    },
    {
      "channel": 4,
      "note": 63,
      "start": 37.3176,
      "duration": 0.0161,
      "velocity": 101,
      "chip": "ym2612"
    },
    {
      "channel": 3,
      "note": 66,
      "start": 37.3187,
      "duration": 0.0161,
      "velocity": 101,
      "chip": "ym2612"
    },
    {
      "channel": 2,
      "note": 59,
      "start": 37.3199,
      "duration": 0.0161,
      "velocity": 100,
      "chip": "ym2612"
    },
    {
      "channel": 1,
      "note": 71,
      "start": 37.321,
      "duration": 0.0161,
      "velocity": 101,
      "chip": "ym2612"
    },
    {
      "channel": 0,
      "note": 39,
      "start": 37.3325,
      "duration": 0.0161,
      "velocity": 115,
      "chip": "ym2612"
    },
    {
      "channel": 4,
      "note": 63,
      "start": 37.3337,
      "duration": 0.0161,
      "velocity": 101,
      "chip": "ym2612"
    },
    {
      "channel": 3,
      "note": 66,
      "start": 37.3348,
      "duration": 0.0161,
      "velocity": 101,
      "chip": "ym2612"
    },
    {
      "channel": 2,
      "note": 59,
      "start": 37.336,
      "duration": 0.0161,
      "velocity": 100,
      "chip": "ym2612"
    },
    {
      "channel": 1,
      "note": 71,
      "start": 37.3371,
      "duration": 0.0161,
      "velocity": 101,
      "chip": "ym2612"
    },
    {
      "channel": 0,
      "note": 39,
      "start": 37.3486,
      "duration": 0.0161,
      "velocity": 115,
      "chip": "ym2612"
    },
    {
      "channel": 4,
      "note": 63,
      "start": 37.3498,
      "duration": 0.0161,
      "velocity": 101,
      "chip": "ym2612"
    },
    {
      "channel": 3,
      "note": 66,
      "start": 37.3509,
      "duration": 0.0161,
      "velocity": 101,
      "chip": "ym2612"
    },
    {
      "channel": 1,
      "note": 71,
      "start": 37.3532,
      "duration": 0.0161,
      "velocity": 101,
      "chip": "ym2612"
    },
    {
      "channel": 0,
      "note": 40,
      "start": 37.3647,
      "duration": 0.0161,
      "velocity": 115,
      "chip": "ym2612"
    },
    {
      "channel": 4,
      "note": 63,
      "start": 37.3659,
      "duration": 0.0161,
      "velocity": 101,
      "chip": "ym2612"
    },
    {
      "channel": 3,
      "note": 66,
      "start": 37.367,
      "duration": 0.0161,
      "velocity": 101,
      "chip": "ym2612"
    },
    {
      "channel": 1,
      "note": 71,
      "start": 37.3693,
      "duration": 0.0161,
      "velocity": 101,
      "chip": "ym2612"
    },
    {
      "channel": 0,
      "note": 40,
      "start": 37.3808,
      "duration": 0.0161,
      "velocity": 115,
      "chip": "ym2612"
    },
    {
      "channel": 4,
      "note": 63,
      "start": 37.382,
      "duration": 0.0161,
      "velocity": 101,
      "chip": "ym2612"
    },
    {
      "channel": 3,
      "note": 66,
      "start": 37.3831,
      "duration": 0.0161,
      "velocity": 101,
      "chip": "ym2612"
    },
    {
      "channel": 1,
      "note": 71,
      "start": 37.3854,
      "duration": 0.0161,
      "velocity": 101,
      "chip": "ym2612"
    },
    {
      "channel": 0,
      "note": 40,
      "start": 37.3969,
      "duration": 0.0161,
      "velocity": 115,
      "chip": "ym2612"
    },
    {
      "channel": 4,
      "note": 63,
      "start": 37.398,
      "duration": 0.0161,
      "velocity": 101,
      "chip": "ym2612"
    },
    {
      "channel": 3,
      "note": 66,
      "start": 37.3992,
      "duration": 0.0161,
      "velocity": 101,
      "chip": "ym2612"
    },
    {
      "channel": 1,
      "note": 71,
      "start": 37.4015,
      "duration": 0.0161,
      "velocity": 101,
      "chip": "ym2612"
    },
    {
      "channel": 0,
      "note": 41,
      "start": 37.413,
      "duration": 0.0161,
      "velocity": 115,
      "chip": "ym2612"
    },
    {
      "channel": 4,
      "note": 63,
      "start": 37.4141,
      "duration": 0.0161,
      "velocity": 101,
      "chip": "ym2612"
    },
    {
      "channel": 3,
      "note": 66,
      "start": 37.4153,
      "duration": 0.0162,
      "velocity": 101,
      "chip": "ym2612"
    },
    {
      "channel": 1,
      "note": 71,
      "start": 37.4176,
      "duration": 0.0162,
      "velocity": 101,
      "chip": "ym2612"
    },
    {
      "channel": 0,
      "note": 41,
      "start": 37.4291,
      "duration": 0.0167,
      "velocity": 115,
      "chip": "ym2612"
    },
    {
      "channel": 4,
      "note": 63,
      "start": 37.4303,
      "duration": 0.0167,
      "velocity": 101,
      "chip": "ym2612"
    },
    {
      "channel": 3,
      "note": 66,
      "start": 37.4315,
      "duration": 0.0167,
      "velocity": 101,
      "chip": "ym2612"
    },
    {
      "channel": 1,
      "note": 71,
      "start": 37.4337,
      "duration": 0.0167,
      "velocity": 101,
      "chip": "ym2612"
    },
    {
      "channel": 0,
      "note": 42,
      "start": 37.4458,
      "duration": 0.018,
      "velocity": 124,
      "chip": "ym2612"
    },
    {
      "channel": 4,
      "note": 63,
      "start": 37.447,
      "duration": 0.0181,
      "velocity": 101,
      "chip": "ym2612"
    },
    {
      "channel": 3,
      "note": 66,
      "start": 37.4481,
      "duration": 0.0181,
      "velocity": 101,
      "chip": "ym2612"
    },
    {
      "channel": 1,
      "note": 71,
      "start": 37.4504,
      "duration": 0.0183,
      "velocity": 101,
      "chip": "ym2612"
    },
    {
      "channel": 0,
      "note": 84,
      "start": 37.4639,
      "duration": 0.0136,
      "velocity": 124,
      "chip": "ym2612"
    },
    {
      "channel": 4,
      "note": 63,
      "start": 37.465,
      "duration": 0.0136,
      "velocity": 101,
      "chip": "ym2612"
    },
    {
      "channel": 3,
      "note": 66,
      "start": 37.4662,
      "duration": 0.0136,
      "velocity": 101,
      "chip": "ym2612"
    },
    {
      "channel": 2,
      "note": 71,
      "start": 37.4676,
      "duration": 0.0134,
      "velocity": 100,
      "chip": "ym2612"
    },
    {
      "channel": 1,
      "note": 71,
      "start": 37.4687,
      "duration": 0.0134,
      "velocity": 101,
      "chip": "ym2612"
    },
    {
      "channel": 0,
      "note": 82,
      "start": 37.4775,
      "duration": 0.0183,
      "velocity": 124,
      "chip": "ym2612"
    },
    {
      "channel": 4,
      "note": 63,
      "start": 37.4786,
      "duration": 0.0183,
      "velocity": 101,
      "chip": "ym2612"
    },
    {
      "channel": 3,
      "note": 66,
      "start": 37.4798,
      "duration": 0.0183,
      "velocity": 101,
      "chip": "ym2612"
    },
    {
      "channel": 2,
      "note": 71,
      "start": 37.481,
      "duration": 0.0183,
      "velocity": 100,
      "chip": "ym2612"
    },
    {
      "channel": 1,
      "note": 71,
      "start": 37.4822,
      "duration": 0.0183,
      "velocity": 101,
      "chip": "ym2612"
    },
    {
      "channel": 0,
      "note": 80,
      "start": 37.4958,
      "duration": 0.0165,
      "velocity": 124,
      "chip": "ym2612"
    },
    {
      "channel": 4,
      "note": 63,
      "start": 37.497,
      "duration": 0.0166,
      "velocity": 101,
      "chip": "ym2612"
    },
    {
      "channel": 3,
      "note": 66,
      "start": 37.4981,
      "duration": 0.0165,
      "velocity": 101,
      "chip": "ym2612"
    },
    {
      "channel": 2,
      "note": 71,
      "start": 37.4993,
      "duration": 0.0166,
      "velocity": 100,
      "chip": "ym2612"
    },
    {
      "channel": 1,
      "note": 71,
      "start": 37.5004,
      "duration": 0.0165,
      "velocity": 101,
      "chip": "ym2612"
    },
    {
      "channel": 0,
      "note": 77,
      "start": 37.5124,
      "duration": 0.0157,
      "velocity": 124,
      "chip": "ym2612"
    },
    {
      "channel": 4,
      "note": 63,
      "start": 37.5135,
      "duration": 0.0158,
      "velocity": 101,
      "chip": "ym2612"
    },
    {
      "channel": 3,
      "note": 66,
      "start": 37.5146,
      "duration": 0.0158,
      "velocity": 101,
      "chip": "ym2612"
    },
    {
      "channel": 2,
      "note": 71,
      "start": 37.5158,
      "duration": 0.0157,
      "velocity": 100,
      "chip": "ym2612"
    },
    {
      "channel": 1,
      "note": 71,
      "start": 37.5169,
      "duration": 0.0157,
      "velocity": 101,
      "chip": "ym2612"
    },
    {
      "channel": 0,
      "note": 75,
      "start": 37.5281,
      "duration": 0.0141,
      "velocity": 124,
      "chip": "ym2612"
    },
    {
      "channel": 4,
      "note": 63,
      "start": 37.5293,
      "duration": 0.014,
      "velocity": 101,
      "chip": "ym2612"
    },
    {
      "channel": 3,
      "note": 66,
      "start": 37.5304,
      "duration": 0.014,
      "velocity": 101,
      "chip": "ym2612"
    },
    {
      "channel": 2,
      "note": 71,
      "start": 37.5315,
      "duration": 0.0141,
      "velocity": 100,
      "chip": "ym2612"
    },
    {
      "channel": 1,
      "note": 71,
      "start": 37.5327,
      "duration": 0.0141,
      "velocity": 101,
      "chip": "ym2612"
    },
    {
      "channel": 0,
      "note": 72,
      "start": 37.5421,
      "duration": 0.0185,
      "velocity": 124,
      "chip": "ym2612"
    },
    {
      "channel": 4,
      "note": 63,
      "start": 37.5433,
      "duration": 0.0186,
      "velocity": 101,
      "chip": "ym2612"
    },
    {
      "channel": 3,
      "note": 66,
      "start": 37.5444,
      "duration": 0.0186,
      "velocity": 101,
      "chip": "ym2612"
    },
    {
      "channel": 2,
      "note": 71,
      "start": 37.5456,
      "duration": 0.0185,
      "velocity": 100,
      "chip": "ym2612"
    },
    {
      "channel": 1,
      "note": 71,
      "start": 37.5467,
      "duration": 0.0185,
      "velocity": 101,
      "chip": "ym2612"
    },
    {
      "channel": 0,
      "note": 70,
      "start": 37.5606,
      "duration": 0.0134,
      "velocity": 124,
      "chip": "ym2612"
    },
    {
      "channel": 4,
      "note": 63,
      "start": 37.5619,
      "duration": 0.0161,
      "velocity": 101,
      "chip": "ym2612"
    },
    {
      "channel": 3,
      "note": 66,
      "start": 37.563,
      "duration": 0.0161,
      "velocity": 101,
      "chip": "ym2612"
    },
    {
      "channel": 2,
      "note": 71,
      "start": 37.5641,
      "duration": 0.0162,
      "velocity": 100,
      "chip": "ym2612"
    },
    {
      "channel": 1,
      "note": 71,
      "start": 37.5652,
      "duration": 0.0162,
      "velocity": 101,
      "chip": "ym2612"
    },
    {
      "channel": 0,
      "note": 68,
      "start": 37.574,
      "duration": 0.0161,
      "velocity": 124,
      "chip": "ym2612"
    },
    {
      "channel": 4,
      "note": 63,
      "start": 37.578,
      "duration": 0.0157,
      "velocity": 101,
      "chip": "ym2612"
    },
    {
      "channel": 3,
      "note": 66,
      "start": 37.5791,
      "duration": 0.0157,
      "velocity": 101,
      "chip": "ym2612"
    },
    {
      "channel": 1,
      "note": 71,
      "start": 37.5814,
      "duration": 0.0157,
      "velocity": 101,
      "chip": "ym2612"
    },
    {
      "channel": 0,
      "note": 65,
      "start": 37.5901,
      "duration": 0.0161,
      "velocity": 124,
      "chip": "ym2612"
    },
    {
      "channel": 4,
      "note": 63,
      "start": 37.5937,
      "duration": 0.0137,
      "velocity": 101,
      "chip": "ym2612"
    },
    {
      "channel": 3,
      "note": 66,
      "start": 37.5948,
      "duration": 0.0141,
      "velocity": 101,
      "chip": "ym2612"
    },
    {
      "channel": 1,
      "note": 71,
      "start": 37.5971,
      "duration": 0.014,
      "velocity": 101,
      "chip": "ym2612"
    },
    {
      "channel": 0,
      "note": 63,
      "start": 37.6062,
      "duration": 0.0153,
      "velocity": 1,
      "chip": "ym2612"
    },
    {
      "channel": 4,
      "note": 63,
      "start": 37.6074,
      "duration": 0.0153,
      "velocity": 101,
      "chip": "ym2612"
    },
    {
      "channel": 3,
      "note": 66,
      "start": 37.6089,
      "duration": 0.0149,
      "velocity": 101,
      "chip": "ym2612"
    },
    {
      "channel": 1,
      "note": 71,
      "start": 37.6111,
      "duration": 0.0178,
      "velocity": 101,
      "chip": "ym2612"
    },
    {
      "channel": 4,
      "note": 63,
      "start": 37.6227,
      "duration": 0.0153,
      "velocity": 101,
      "chip": "ym2612"
    },
    {
      "channel": 3,
      "note": 66,
      "start": 37.6238,
      "duration": 0.0153,
      "velocity": 101,
      "chip": "ym2612"
    },
    {
      "channel": 1,
      "note": 71,
      "start": 37.6288,
      "duration": 0.0153,
      "velocity": 101,
      "chip": "ym2612"
    },
    {
      "channel": 4,
      "note": 63,
      "start": 37.6379,
      "duration": 0.0161,
      "velocity": 101,
      "chip": "ym2612"
    },
    {
      "channel": 3,
      "note": 66,
      "start": 37.6391,
      "duration": 0.0161,
      "velocity": 101,
      "chip": "ym2612"
    },
    {
      "channel": 1,
      "note": 71,
      "start": 37.6441,
      "duration": 0.0134,
      "velocity": 101,
      "chip": "ym2612"
    },
    {
      "channel": 4,
      "note": 63,
      "start": 37.654,
      "duration": 0.0161,
      "velocity": 101,
      "chip": "ym2612"
    },
    {
      "channel": 3,
      "note": 66,
      "start": 37.6552,
      "duration": 0.0161,
      "velocity": 101,
      "chip": "ym2612"
    },
    {
      "channel": 1,
      "note": 71,
      "start": 37.6575,
      "duration": 0.0161,
      "velocity": 101,
      "chip": "ym2612"
    },
    {
      "channel": 4,
      "note": 63,
      "start": 37.6701,
      "duration": 0.0196,
      "velocity": 101,
      "chip": "ym2612"
    },
    {
      "channel": 3,
      "note": 66,
      "start": 37.6713,
      "duration": 0.0196,
      "velocity": 101,
      "chip": "ym2612"
    },
    {
      "channel": 1,
      "note": 71,
      "start": 37.6736,
      "duration": 0.0226,
      "velocity": 101,
      "chip": "ym2612"
    },
    {
      "channel": 0,
      "note": 36,
      "start": 37.6885,
      "duration": 0.0144,
      "velocity": 115,
      "chip": "ym2612"
    },
    {
      "channel": 4,
      "note": 63,
      "start": 37.6897,
      "duration": 0.0143,
      "velocity": 101,
      "chip": "ym2612"
    },
    {
      "channel": 3,
      "note": 66,
      "start": 37.6909,
      "duration": 0.0143,
      "velocity": 101,
      "chip": "ym2612"
    },
    {
      "channel": 2,
      "note": 59,
      "start": 37.695,
      "duration": 0.0114,
      "velocity": 100,
      "chip": "ym2612"
    },
    {
      "channel": 1,
      "note": 71,
      "start": 37.6961,
      "duration": 0.0114,
      "velocity": 101,
      "chip": "ym2612"
    },
    {
      "channel": 0,
      "note": 36,
      "start": 37.7029,
      "duration": 0.016,
      "velocity": 115,
      "chip": "ym2612"
    },
    {
      "channel": 4,
      "note": 63,
      "start": 37.704,
      "duration": 0.016,
      "velocity": 101,
      "chip": "ym2612"
    },
    {
      "channel": 3,
      "note": 66,
      "start": 37.7052,
      "duration": 0.016,
      "velocity": 101,
      "chip": "ym2612"
    },
    {
      "channel": 2,
      "note": 59,
      "start": 37.7064,
      "duration": 0.016,
      "velocity": 100,
      "chip": "ym2612"
    },
    {
      "channel": 1,
      "note": 71,
      "start": 37.7075,
      "duration": 0.016,
      "velocity": 101,
      "chip": "ym2612"
    },
    {
      "channel": 0,
      "note": 37,
      "start": 37.7189,
      "duration": 0.0161,
      "velocity": 115,
      "chip": "ym2612"
    },
    {
      "channel": 4,
      "note": 63,
      "start": 37.7201,
      "duration": 0.0161,
      "velocity": 101,
      "chip": "ym2612"
    },
    {
      "channel": 3,
      "note": 66,
      "start": 37.7212,
      "duration": 0.0161,
      "velocity": 101,
      "chip": "ym2612"
    },
    {
      "channel": 2,
      "note": 59,
      "start": 37.7224,
      "duration": 0.0161,
      "velocity": 100,
      "chip": "ym2612"
    },
    {
      "channel": 1,
      "note": 71,
      "start": 37.7235,
      "duration": 0.0161,
      "velocity": 101,
      "chip": "ym2612"
    },
    {
      "channel": 0,
      "note": 37,
      "start": 37.735,
      "duration": 0.0161,
      "velocity": 115,
      "chip": "ym2612"
    },
    {
      "channel": 4,
      "note": 63,
      "start": 37.7361,
      "duration": 0.0162,
      "velocity": 101,
      "chip": "ym2612"
    },
    {
      "channel": 3,
      "note": 66,
      "start": 37.7373,
      "duration": 0.0161,
      "velocity": 101,
      "chip": "ym2612"
    },
    {
      "channel": 2,
      "note": 59,
      "start": 37.7384,
      "duration": 0.0161,
      "velocity": 100,
      "chip": "ym2612"
    },
    {
      "channel": 1,
      "note": 71,
      "start": 37.7396,
      "duration": 0.0161,
      "velocity": 101,
      "chip": "ym2612"
    },
    {
      "channel": 0,
      "note": 38,
      "start": 37.7511,
      "duration": 0.0161,
      "velocity": 115,
      "chip": "ym2612"
    },
    {
      "channel": 4,
      "note": 63,
      "start": 37.7523,
      "duration": 0.0161,
      "velocity": 101,
      "chip": "ym2612"
    },
    {
      "channel": 3,
      "note": 66,
      "start": 37.7534,
      "duration": 0.0161,
      "velocity": 101,
      "chip": "ym2612"
    },
    {
      "channel": 2,
      "note": 59,
      "start": 37.7545,
      "duration": 0.0161,
      "velocity": 100,
      "chip": "ym2612"
    },
    {
      "channel": 1,
      "note": 71,
      "start": 37.7557,
      "duration": 0.0161,
      "velocity": 101,
      "chip": "ym2612"
    },
    {
      "channel": 0,
      "note": 38,
      "start": 37.7672,
      "duration": 0.0162,
      "velocity": 115,
      "chip": "ym2612"
    },
    {
      "channel": 4,
      "note": 63,
      "start": 37.7684,
      "duration": 0.0161,
      "velocity": 101,
      "chip": "ym2612"
    },
    {
      "channel": 3,
      "note": 66,
      "start": 37.7695,
      "duration": 0.0161,
      "velocity": 101,
      "chip": "ym2612"
    },
    {
      "channel": 2,
      "note": 59,
      "start": 37.7706,
      "duration": 0.0161,
      "velocity": 100,
      "chip": "ym2612"
    },
    {
      "channel": 1,
      "note": 71,
      "start": 37.7718,
      "duration": 0.0162,
      "velocity": 101,
      "chip": "ym2612"
    },
    {
      "channel": 0,
      "note": 39,
      "start": 37.7834,
      "duration": 0.0161,
      "velocity": 115,
      "chip": "ym2612"
    },
    {
      "channel": 4,
      "note": 63,
      "start": 37.7845,
      "duration": 0.0161,
      "velocity": 101,
      "chip": "ym2612"
    },
    {
      "channel": 3,
      "note": 66,
      "start": 37.7856,
      "duration": 0.0161,
      "velocity": 101,
      "chip": "ym2612"
    },
    {
      "channel": 2,
      "note": 59,
      "start": 37.7868,
      "duration": 0.0161,
      "velocity": 100,
      "chip": "ym2612"
    },
    {
      "channel": 1,
      "note": 71,
      "start": 37.7879,
      "duration": 0.0161,
      "velocity": 101,
      "chip": "ym2612"
    },
    {
      "channel": 0,
      "note": 39,
      "start": 37.7995,
      "duration": 0.0161,
      "velocity": 115,
      "chip": "ym2612"
    },
    {
      "channel": 4,
      "note": 63,
      "start": 37.8006,
      "duration": 0.0161,
      "velocity": 101,
      "chip": "ym2612"
    },
    {
      "channel": 3,
      "note": 66,
      "start": 37.8017,
      "duration": 0.0161,
      "velocity": 101,
      "chip": "ym2612"
    },
    {
      "channel": 1,
      "note": 71,
      "start": 37.804,
      "duration": 0.0161,
      "velocity": 101,
      "chip": "ym2612"
    },
    {
      "channel": 0,
      "note": 40,
      "start": 37.8155,
      "duration": 0.0161,
      "velocity": 115,
      "chip": "ym2612"
    },
    {
      "channel": 4,
      "note": 63,
      "start": 37.8167,
      "duration": 0.0161,
      "velocity": 101,
      "chip": "ym2612"
    },
    {
      "channel": 3,
      "note": 66,
      "start": 37.8178,
      "duration": 0.0161,
      "velocity": 101,
      "chip": "ym2612"
    },
    {
      "channel": 1,
      "note": 71,
      "start": 37.8201,
      "duration": 0.0161,
      "velocity": 101,
      "chip": "ym2612"
    },
    {
      "channel": 0,
      "note": 40,
      "start": 37.8316,
      "duration": 0.0161,
      "velocity": 115,
      "chip": "ym2612"
    },
    {
      "channel": 4,
      "note": 63,
      "start": 37.8328,
      "duration": 0.0161,
      "velocity": 101,
      "chip": "ym2612"
    },
    {
      "channel": 3,
      "note": 66,
      "start": 37.8339,
      "duration": 0.0161,
      "velocity": 101,
      "chip": "ym2612"
    },
    {
      "channel": 1,
      "note": 71,
      "start": 37.8362,
      "duration": 0.0161,
      "velocity": 101,
      "chip": "ym2612"
    },
    {
      "channel": 0,
      "note": 40,
      "start": 37.8477,
      "duration": 0.0161,
      "velocity": 115,
      "chip": "ym2612"
    },
    {
      "channel": 4,
      "note": 63,
      "start": 37.8489,
      "duration": 0.0161,
      "velocity": 101,
      "chip": "ym2612"
    },
    {
      "channel": 3,
      "note": 66,
      "start": 37.85,
      "duration": 0.0161,
      "velocity": 101,
      "chip": "ym2612"
    },
    {
      "channel": 1,
      "note": 71,
      "start": 37.8523,
      "duration": 0.0161,
      "velocity": 101,
      "chip": "ym2612"
    },
    {
      "channel": 0,
      "note": 41,
      "start": 37.8638,
      "duration": 0.0161,
      "velocity": 115,
      "chip": "ym2612"
    },
    {
      "channel": 4,
      "note": 63,
      "start": 37.865,
      "duration": 0.0161,
      "velocity": 101,
      "chip": "ym2612"
    },
    {
      "channel": 3,
      "note": 66,
      "start": 37.8661,
      "duration": 0.0161,
      "velocity": 101,
      "chip": "ym2612"
    },
    {
      "channel": 1,
      "note": 71,
      "start": 37.8684,
      "duration": 0.0161,
      "velocity": 101,
      "chip": "ym2612"
    },
    {
      "channel": 0,
      "note": 41,
      "start": 37.8799,
      "duration": 0.0161,
      "velocity": 115,
      "chip": "ym2612"
    },
    {
      "channel": 4,
      "note": 63,
      "start": 37.8811,
      "duration": 0.0162,
      "velocity": 101,
      "chip": "ym2612"
    },
    {
      "channel": 3,
      "note": 66,
      "start": 37.8822,
      "duration": 0.0162,
      "velocity": 101,
      "chip": "ym2612"
    },
    {
      "channel": 1,
      "note": 71,
      "start": 37.8845,
      "duration": 0.0161,
      "velocity": 101,
      "chip": "ym2612"
    },
    {
      "channel": 0,
      "note": 42,
      "start": 37.896,
      "duration": 0.0182,
      "velocity": 115,
      "chip": "ym2612"
    },
    {
      "channel": 4,
      "note": 63,
      "start": 37.8972,
      "duration": 0.0184,
      "velocity": 101,
      "chip": "ym2612"
    },
    {
      "channel": 3,
      "note": 66,
      "start": 37.8984,
      "duration": 0.0187,
      "velocity": 101,
      "chip": "ym2612"
    },
    {
      "channel": 1,
      "note": 71,
      "start": 37.9006,
      "duration": 0.0193,
      "velocity": 101,
      "chip": "ym2612"
    },
    {
      "channel": 0,
      "note": 36,
      "start": 37.9143,
      "duration": 0.0146,
      "velocity": 115,
      "chip": "ym2612"
    },
    {
      "channel": 4,
      "note": 56,
      "start": 37.9157,
      "duration": 0.0144,
      "velocity": 101,
      "chip": "ym2612"
    },
    {
      "channel": 3,
      "note": 59,
      "start": 37.9171,
      "duration": 0.0141,
      "velocity": 101,
      "chip": "ym2612"
    },
    {
      "channel": 2,
      "note": 61,
      "start": 37.9185,
      "duration": 0.0139,
      "velocity": 100,
      "chip": "ym2612"
    },
    {
      "channel": 1,
      "note": 64,
      "start": 37.9199,
      "duration": 0.0137,
      "velocity": 101,
      "chip": "ym2612"
    },
    {
      "channel": 0,
      "note": 36,
      "start": 37.9288,
      "duration": 0.0155,
      "velocity": 115,
      "chip": "ym2612"
    },
    {
      "channel": 4,
      "note": 56,
      "start": 37.93,
      "duration": 0.0155,
      "velocity": 101,
      "chip": "ym2612"
    },
    {
      "channel": 3,
      "note": 59,
      "start": 37.9312,
      "duration": 0.0154,
      "velocity": 101,
      "chip": "ym2612"
    },
    {
      "channel": 2,
      "note": 61,
      "start": 37.9324,
      "duration": 0.0154,
      "velocity": 100,
      "chip": "ym2612"
    },
    {
      "channel": 1,
      "note": 64,
      "start": 37.9336,
      "duration": 0.0153,
      "velocity": 101,
      "chip": "ym2612"
    },
    {
      "channel": 0,
      "note": 37,
      "start": 37.9444,
      "duration": 0.0181,
      "velocity": 115,
      "chip": "ym2612"
    },
    {
      "channel": 4,
      "note": 56,
      "start": 37.9455,
      "duration": 0.0181,
      "velocity": 101,
      "chip": "ym2612"
    },
    {
      "channel": 3,
      "note": 59,
      "start": 37.9466,
      "duration": 0.0181,
      "velocity": 101,
      "chip": "ym2612"
    },
    {
      "channel": 2,
      "note": 61,
      "start": 37.9478,
      "duration": 0.0181,
      "velocity": 100,
      "chip": "ym2612"
    },
    {
      "channel": 1,
      "note": 64,
      "start": 37.9489,
      "duration": 0.0181,
      "velocity": 101,
      "chip": "ym2612"
    },
    {
      "channel": 0,
      "note": 37,
      "start": 37.9625,
      "duration": 0.0167,
      "velocity": 115,
      "chip": "ym2612"
    },
    {
      "channel": 4,
      "note": 56,
      "start": 37.9636,
      "duration": 0.0167,
      "velocity": 101,
      "chip": "ym2612"
    },
    {
      "channel": 3,
      "note": 59,
      "start": 37.9648,
      "duration": 0.0167,
      "velocity": 101,
      "chip": "ym2612"
    },
    {
      "channel": 2,
      "note": 61,
      "start": 37.9659,
      "duration": 0.0167,
      "velocity": 100,
      "chip": "ym2612"
    },
    {
      "channel": 1,
      "note": 64,
      "start": 37.9671,
      "duration": 0.0167,
      "velocity": 101,
      "chip": "ym2612"
    },
    {
      "channel": 0,
      "note": 38,
      "start": 37.9792,
      "duration": 0.0158,
      "velocity": 115,
      "chip": "ym2612"
    },
    {
      "channel": 4,
      "note": 56,
      "start": 37.9803,
      "duration": 0.0159,
      "velocity": 101,
      "chip": "ym2612"
    },
    {
      "channel": 3,
      "note": 59,
      "start": 37.9815,
      "duration": 0.0159,
      "velocity": 101,
      "chip": "ym2612"
    },
    {
      "channel": 2,
      "note": 61,
      "start": 37.9826,
      "duration": 0.0159,
      "velocity": 100,
      "chip": "ym2612"
    },
    {
      "channel": 1,
      "note": 64,
      "start": 37.9837,
      "duration": 0.0159,
      "velocity": 101,
      "chip": "ym2612"
    },
    {
      "channel": 0,
      "note": 38,
      "start": 37.995,
      "duration": 0.0141,
      "velocity": 115,
      "chip": "ym2612"
    },
    {
      "channel": 4,
      "note": 56,
      "start": 37.9962,
      "duration": 0.0141,
      "velocity": 101,
      "chip": "ym2612"
    },
    {
      "channel": 3,
      "note": 59,
      "start": 37.9973,
      "duration": 0.0141,
      "velocity": 101,
      "chip": "ym2612"
    },
    {
      "channel": 2,
      "note": 61,
      "start": 37.9985,
      "duration": 0.014,
      "velocity": 100,
      "chip": "ym2612"
    },
    {
      "channel": 1,
      "note": 64,
      "start": 37.9996,
      "duration": 0.014,
      "velocity": 101,
      "chip": "ym2612"
    },
    {
      "channel": 0,
      "note": 39,
      "start": 38.009,
      "duration": 0.0185,
      "velocity": 115,
      "chip": "ym2612"
    },
    {
      "channel": 4,
      "note": 56,
      "start": 38.0103,
      "duration": 0.0185,
      "velocity": 101,
      "chip": "ym2612"
    },
    {
      "channel": 3,
      "note": 59,
      "start": 38.0114,
      "duration": 0.0185,
      "velocity": 101,
      "chip": "ym2612"
    },
    {
      "channel": 2,
      "note": 61,
      "start": 38.0125,
      "duration": 0.0186,
      "velocity": 100,
      "chip": "ym2612"
    },
    {
      "channel": 1,
      "note": 64,
      "start": 38.0136,
      "duration": 0.0186,
      "velocity": 101,
      "chip": "ym2612"
    },
    {
      "channel": 0,
      "note": 39,
      "start": 38.0276,
      "duration": 0.0134,
      "velocity": 115,
      "chip": "ym2612"
    },
    {
      "channel": 4,
      "note": 56,
      "start": 38.0288,
      "duration": 0.0161,
      "velocity": 101,
      "chip": "ym2612"
    },
    {
      "channel": 3,
      "note": 59,
      "start": 38.0299,
      "duration": 0.0161,
      "velocity": 101,
      "chip": "ym2612"
    },
    {
      "channel": 1,
      "note": 64,
      "start": 38.0322,
      "duration": 0.0161,
      "velocity": 101,
      "chip": "ym2612"
    },
    {
      "channel": 0,
      "note": 40,
      "start": 38.0409,
      "duration": 0.0161,
      "velocity": 115,
      "chip": "ym2612"
    },
    {
      "channel": 4,
      "note": 56,
      "start": 38.0449,
      "duration": 0.0158,
      "velocity": 101,
      "chip": "ym2612"
    },
    {
      "channel": 3,
      "note": 59,
      "start": 38.046,
      "duration": 0.0158,
      "velocity": 101,
      "chip": "ym2612"
    },
    {
      "channel": 1,
      "note": 64,
      "start": 38.0483,
      "duration": 0.0157,
      "velocity": 101,
      "chip": "ym2612"
    },
    {
      "channel": 0,
      "note": 40,
      "start": 38.0571,
      "duration": 0.0161,
      "velocity": 115,
      "chip": "ym2612"
    },
    {
      "channel": 4,
      "note": 56,
      "start": 38.0606,
      "duration": 0.0137,
      "velocity": 101,
      "chip": "ym2612"
    },
    {
      "channel": 3,
      "note": 59,
      "start": 38.0618,
      "duration": 0.014,
      "velocity": 101,
      "chip": "ym2612"
    },
    {
      "channel": 1,
      "note": 64,
      "start": 38.064,
      "duration": 0.0141,
      "velocity": 101,
      "chip": "ym2612"
    },
    {
      "channel": 0,
      "note": 40,
      "start": 38.0732,
      "duration": 0.0161,
      "velocity": 115,
      "chip": "ym2612"
    },
    {
      "channel": 4,
      "note": 56,
      "start": 38.0743,
      "duration": 0.0161,
      "velocity": 101,
      "chip": "ym2612"
    },
    {
      "channel": 3,
      "note": 59,
      "start": 38.0758,
      "duration": 0.0185,
      "velocity": 101,
      "chip": "ym2612"
    },
    {
      "channel": 1,
      "note": 64,
      "start": 38.0781,
      "duration": 0.0185,
      "velocity": 101,
      "chip": "ym2612"
    },
    {
      "channel": 0,
      "note": 41,
      "start": 38.0893,
      "duration": 0.0161,
      "velocity": 115,
      "chip": "ym2612"
    },
    {
      "channel": 4,
      "note": 56,
      "start": 38.0904,
      "duration": 0.0161,
      "velocity": 101,
      "chip": "ym2612"
    },
    {
      "channel": 3,
      "note": 59,
      "start": 38.0943,
      "duration": 0.0134,
      "velocity": 101,
      "chip": "ym2612"
    },
    {
      "channel": 1,
      "note": 64,
      "start": 38.0966,
      "duration": 0.0161,
      "velocity": 101,
      "chip": "ym2612"
    },
    {
      "channel": 0,
      "note": 41,
      "start": 38.1054,
      "duration": 0.0161,
      "velocity": 115,
      "chip": "ym2612"
    },
    {
      "channel": 4,
      "note": 56,
      "start": 38.1065,
      "duration": 0.0161,
      "velocity": 101,
      "chip": "ym2612"
    },
    {
      "channel": 3,
      "note": 59,
      "start": 38.1077,
      "duration": 0.0161,
      "velocity": 101,
      "chip": "ym2612"
    },
    {
      "channel": 1,
      "note": 64,
      "start": 38.1127,
      "duration": 0.0158,
      "velocity": 101,
      "chip": "ym2612"
    },
    {
      "channel": 0,
      "note": 42,
      "start": 38.1215,
      "duration": 0.0161,
      "velocity": 115,
      "chip": "ym2612"
    },
    {
      "channel": 4,
      "note": 56,
      "start": 38.1226,
      "duration": 0.0161,
      "velocity": 101,
      "chip": "ym2612"
    },
    {
      "channel": 3,
      "note": 59,
      "start": 38.1237,
      "duration": 0.0161,
      "velocity": 101,
      "chip": "ym2612"
    },
    {
      "channel": 1,
      "note": 64,
      "start": 38.1285,
      "duration": 0.0142,
      "velocity": 101,
      "chip": "ym2612"
    },
    {
      "channel": 0,
      "note": 42,
      "start": 38.1376,
      "duration": 0.0161,
      "velocity": 115,
      "chip": "ym2612"
    },
    {
      "channel": 4,
      "note": 56,
      "start": 38.1387,
      "duration": 0.0161,
      "velocity": 101,
      "chip": "ym2612"
    },
    {
      "channel": 3,
      "note": 59,
      "start": 38.1398,
      "duration": 0.0161,
      "velocity": 101,
      "chip": "ym2612"
    },
    {
      "channel": 2,
      "note": 61,
      "start": 38.1416,
      "duration": 0.0156,
      "velocity": 100,
      "chip": "ym2612"
    },
    {
      "channel": 1,
      "note": 64,
      "start": 38.1427,
      "duration": 0.0183,
      "velocity": 101,
      "chip": "ym2612"
    },
    {
      "channel": 0,
      "note": 43,
      "start": 38.1537,
      "duration": 0.0161,
      "velocity": 115,
      "chip": "ym2612"
    },
    {
      "channel": 4,
      "note": 56,
      "start": 38.1548,
      "duration": 0.0162,
      "velocity": 101,
      "chip": "ym2612"
    },
    {
      "channel": 3,
      "note": 59,
      "start": 38.1559,
      "duration": 0.0161,
      "velocity": 101,
      "chip": "ym2612"
    },
    {
      "channel": 2,
      "note": 61,
      "start": 38.1571,
      "duration": 0.016,
      "velocity": 100,
      "chip": "ym2612"
    },
    {
      "channel": 1,
      "note": 64,
      "start": 38.161,
      "duration": 0.0133,
      "velocity": 101,
      "chip": "ym2612"
    },
    {
      "channel": 0,
      "note": 43,
      "start": 38.1698,
      "duration": 0.0161,
      "velocity": 115,
      "chip": "ym2612"
    },
    {
      "channel": 4,
      "note": 56,
      "start": 38.171,
      "duration": 0.0161,
      "velocity": 101,
      "chip": "ym2612"
    },
    {
      "channel": 3,
      "note": 59,
      "start": 38.1721,
      "duration": 0.0161,
      "velocity": 101,
      "chip": "ym2612"
    },
    {
      "channel": 2,
      "note": 61,
      "start": 38.1732,
      "duration": 0.0161,
      "velocity": 100,
      "chip": "ym2612"
    },
    {
      "channel": 1,
      "note": 64,
      "start": 38.1743,
      "duration": 0.0161,
      "velocity": 101,
      "chip": "ym2612"
    },
    {
      "channel": 0,
      "note": 44,
      "start": 38.1858,
      "duration": 0.0161,
      "velocity": 115,
      "chip": "ym2612"
    },
    {
      "channel": 4,
      "note": 56,
      "start": 38.1871,
      "duration": 0.0161,
      "velocity": 101,
      "chip": "ym2612"
    },
    {
      "channel": 3,
      "note": 59,
      "start": 38.1882,
      "duration": 0.0161,
      "velocity": 101,
      "chip": "ym2612"
    },
    {
      "channel": 2,
      "note": 61,
      "start": 38.1893,
      "duration": 0.0161,
      "velocity": 100,
      "chip": "ym2612"
    },
    {
      "channel": 1,
      "note": 64,
      "start": 38.1904,
      "duration": 0.0162,
      "velocity": 101,
      "chip": "ym2612"
    },
    {
      "channel": 0,
      "note": 44,
      "start": 38.2019,
      "duration": 0.0162,
      "velocity": 115,
      "chip": "ym2612"
    },
    {
      "channel": 4,
      "note": 56,
      "start": 38.2031,
      "duration": 0.0161,
      "velocity": 101,
      "chip": "ym2612"
    },
    {
      "channel": 3,
      "note": 59,
      "start": 38.2043,
      "duration": 0.0161,
      "velocity": 101,
      "chip": "ym2612"
    },
    {
      "channel": 2,
      "note": 61,
      "start": 38.2054,
      "duration": 0.0161,
      "velocity": 100,
      "chip": "ym2612"
    },
    {
      "channel": 1,
      "note": 64,
      "start": 38.2066,
      "duration": 0.0161,
      "velocity": 101,
      "chip": "ym2612"
    },
    {
      "channel": 0,
      "note": 44,
      "start": 38.2181,
      "duration": 0.0161,
      "velocity": 115,
      "chip": "ym2612"
    },
    {
      "channel": 4,
      "note": 56,
      "start": 38.2192,
      "duration": 0.0161,
      "velocity": 101,
      "chip": "ym2612"
    },
    {
      "channel": 3,
      "note": 59,
      "start": 38.2204,
      "duration": 0.0161,
      "velocity": 101,
      "chip": "ym2612"
    },
    {
      "channel": 2,
      "note": 61,
      "start": 38.2215,
      "duration": 0.0161,
      "velocity": 100,
      "chip": "ym2612"
    },
    {
      "channel": 1,
      "note": 64,
      "start": 38.2227,
      "duration": 0.0161,
      "velocity": 101,
      "chip": "ym2612"
    },
    {
      "channel": 0,
      "note": 45,
      "start": 38.2342,
      "duration": 0.0161,
      "velocity": 115,
      "chip": "ym2612"
    },
    {
      "channel": 4,
      "note": 56,
      "start": 38.2353,
      "duration": 0.0161,
      "velocity": 101,
      "chip": "ym2612"
    },
    {
      "channel": 3,
      "note": 59,
      "start": 38.2365,
      "duration": 0.0161,
      "velocity": 101,
      "chip": "ym2612"
    },
    {
      "channel": 2,
      "note": 61,
      "start": 38.2376,
      "duration": 0.0161,
      "velocity": 100,
      "chip": "ym2612"
    },
    {
      "channel": 1,
      "note": 64,
      "start": 38.2388,
      "duration": 0.0161,
      "velocity": 101,
      "chip": "ym2612"
    },
    {
      "channel": 0,
      "note": 45,
      "start": 38.2503,
      "duration": 0.0161,
      "velocity": 115,
      "chip": "ym2612"
    },
    {
      "channel": 4,
      "note": 56,
      "start": 38.2514,
      "duration": 0.0161,
      "velocity": 101,
      "chip": "ym2612"
    },
    {
      "channel": 3,
      "note": 59,
      "start": 38.2526,
      "duration": 0.0161,
      "velocity": 101,
      "chip": "ym2612"
    },
    {
      "channel": 1,
      "note": 64,
      "start": 38.2549,
      "duration": 0.0161,
      "velocity": 101,
      "chip": "ym2612"
    },
    {
      "channel": 0,
      "note": 46,
      "start": 38.2664,
      "duration": 0.0161,
      "velocity": 115,
      "chip": "ym2612"
    },
    {
      "channel": 4,
      "note": 56,
      "start": 38.2675,
      "duration": 0.0161,
      "velocity": 101,
      "chip": "ym2612"
    },
    {
      "channel": 3,
      "note": 59,
      "start": 38.2687,
      "duration": 0.0161,
      "velocity": 101,
      "chip": "ym2612"
    },
    {
      "channel": 1,
      "note": 64,
      "start": 38.271,
      "duration": 0.0161,
      "velocity": 101,
      "chip": "ym2612"
    },
    {
      "channel": 0,
      "note": 46,
      "start": 38.2825,
      "duration": 0.0161,
      "velocity": 115,
      "chip": "ym2612"
    },
    {
      "channel": 4,
      "note": 56,
      "start": 38.2836,
      "duration": 0.0161,
      "velocity": 101,
      "chip": "ym2612"
    },
    {
      "channel": 3,
      "note": 59,
      "start": 38.2848,
      "duration": 0.0161,
      "velocity": 101,
      "chip": "ym2612"
    },
    {
      "channel": 1,
      "note": 64,
      "start": 38.2871,
      "duration": 0.0161,
      "velocity": 101,
      "chip": "ym2612"
    },
    {
      "channel": 0,
      "note": 47,
      "start": 38.2985,
      "duration": 0.0161,
      "velocity": 115,
      "chip": "ym2612"
    },
    {
      "channel": 4,
      "note": 56,
      "start": 38.2997,
      "duration": 0.0162,
      "velocity": 101,
      "chip": "ym2612"
    },
    {
      "channel": 3,
      "note": 59,
      "start": 38.3008,
      "duration": 0.0162,
      "velocity": 101,
      "chip": "ym2612"
    },
    {
      "channel": 1,
      "note": 64,
      "start": 38.3031,
      "duration": 0.0161,
      "velocity": 101,
      "chip": "ym2612"
    },
    {
      "channel": 0,
      "note": 47,
      "start": 38.3146,
      "duration": 0.0161,
      "velocity": 115,
      "chip": "ym2612"
    },
    {
      "channel": 4,
      "note": 56,
      "start": 38.3159,
      "duration": 0.0161,
      "velocity": 101,
      "chip": "ym2612"
    },
    {
      "channel": 3,
      "note": 59,
      "start": 38.317,
      "duration": 0.0161,
      "velocity": 101,
      "chip": "ym2612"
    },
    {
      "channel": 1,
      "note": 64,
      "start": 38.3192,
      "duration": 0.0161,
      "velocity": 101,
      "chip": "ym2612"
    },
    {
      "channel": 0,
      "note": 47,
      "start": 38.3307,
      "duration": 0.0161,
      "velocity": 115,
      "chip": "ym2612"
    },
    {
      "channel": 4,
      "note": 56,
      "start": 38.332,
      "duration": 0.0161,
      "velocity": 101,
      "chip": "ym2612"
    },
    {
      "channel": 3,
      "note": 59,
      "start": 38.3331,
      "duration": 0.0161,
      "velocity": 101,
      "chip": "ym2612"
    },
    {
      "channel": 1,
      "note": 64,
      "start": 38.3353,
      "duration": 0.0161,
      "velocity": 101,
      "chip": "ym2612"
    },
    {
      "channel": 0,
      "note": 48,
      "start": 38.3468,
      "duration": 0.0179,
      "velocity": 124,
      "chip": "ym2612"
    },
    {
      "channel": 4,
      "note": 56,
      "start": 38.348,
      "duration": 0.0179,
      "velocity": 101,
      "chip": "ym2612"
    },
    {
      "channel": 3,
      "note": 59,
      "start": 38.3492,
      "duration": 0.0179,
      "velocity": 101,
      "chip": "ym2612"
    },
    {
      "channel": 1,
      "note": 64,
      "start": 38.3514,
      "duration": 0.0182,
      "velocity": 101,
      "chip": "ym2612"
    },
    {
      "channel": 0,
      "note": 84,
      "start": 38.3648,
      "duration": 0.0144,
      "velocity": 124,
      "chip": "ym2612"
    },
    {
      "channel": 4,
      "note": 56,
      "start": 38.3659,
      "duration": 0.0144,
      "velocity": 101,
      "chip": "ym2612"
    },
    {
      "channel": 3,
      "note": 59,
      "start": 38.3671,
      "duration": 0.0144,
      "velocity": 101,
      "chip": "ym2612"
    },
    {
      "channel": 2,
      "note": 73,
      "start": 38.3685,
      "duration": 0.0142,
      "velocity": 100,
      "chip": "ym2612"
    },
    {
      "channel": 1,
      "note": 64,
      "start": 38.3696,
      "duration": 0.0142,
      "velocity": 101,
      "chip": "ym2612"
    },
    {
      "channel": 0,
      "note": 82,
      "start": 38.3792,
      "duration": 0.0162,
      "velocity": 124,
      "chip": "ym2612"
    },
    {
      "channel": 4,
      "note": 56,
      "start": 38.3804,
      "duration": 0.0162,
      "velocity": 101,
      "chip": "ym2612"
    },
    {
      "channel": 3,
      "note": 59,
      "start": 38.3815,
      "duration": 0.0162,
      "velocity": 101,
      "chip": "ym2612"
    },
    {
      "channel": 2,
      "note": 73,
      "start": 38.3827,
      "duration": 0.0161,
      "velocity": 100,
      "chip": "ym2612"
    },
    {
      "channel": 1,
      "note": 64,
      "start": 38.3839,
      "duration": 0.0162,
      "velocity": 101,
      "chip": "ym2612"
    },
    {
      "channel": 0,
      "note": 80,
      "start": 38.3954,
      "duration": 0.0159,
      "velocity": 124,
      "chip": "ym2612"
    },
    {
      "channel": 4,
      "note": 56,
      "start": 38.3966,
      "duration": 0.0159,
      "velocity": 101,
      "chip": "ym2612"
    },
    {
      "channel": 3,
      "note": 59,
      "start": 38.3977,
      "duration": 0.0159,
      "velocity": 101,
      "chip": "ym2612"
    },
    {
      "channel": 2,
      "note": 73,
      "start": 38.3989,
      "duration": 0.0159,
      "velocity": 100,
      "chip": "ym2612"
    },
    {
      "channel": 1,
      "note": 64,
      "start": 38.4,
      "duration": 0.0159,
      "velocity": 101,
      "chip": "ym2612"
    },
    {
      "channel": 0,
      "note": 77,
      "start": 38.4113,
      "duration": 0.0179,
      "velocity": 124,
      "chip": "ym2612"
    },
    {
      "channel": 4,
      "note": 56,
      "start": 38.4124,
      "duration": 0.0179,
      "velocity": 101,
      "chip": "ym2612"
    },
    {
      "channel": 3,
      "note": 59,
      "start": 38.4136,
      "duration": 0.0179,
      "velocity": 101,
      "chip": "ym2612"
    },
    {
      "channel": 2,
      "note": 73,
      "start": 38.4147,
      "duration": 0.0179,
      "velocity": 100,
      "chip": "ym2612"
    },
    {
      "channel": 1,
      "note": 64,
      "start": 38.4159,
      "duration": 0.0179,
      "velocity": 101,
      "chip": "ym2612"
    },
    {
      "channel": 0,
      "note": 75,
      "start": 38.4292,
      "duration": 0.0167,
      "velocity": 124,
      "chip": "ym2612"
    },
    {
      "channel": 4,
      "note": 56,
      "start": 38.4303,
      "duration": 0.0167,
      "velocity": 101,
      "chip": "ym2612"
    },
    {
      "channel": 3,
      "note": 59,
      "start": 38.4315,
      "duration": 0.0167,
      "velocity": 101,
      "chip": "ym2612"
    },
    {
      "channel": 2,
      "note": 73,
      "start": 38.4326,
      "duration": 0.0167,
      "velocity": 100,
      "chip": "ym2612"
    },
    {
      "channel": 1,
      "note": 64,
      "start": 38.4337,
      "duration": 0.0167,
      "velocity": 101,
      "chip": "ym2612"
    },
    {
      "channel": 0,
      "note": 72,
      "start": 38.4458,
      "duration": 0.0161,
      "velocity": 124,
      "chip": "ym2612"
    },
    {
      "channel": 4,
      "note": 56,
      "start": 38.447,
      "duration": 0.0162,
      "velocity": 101,
      "chip": "ym2612"
    },
    {
      "channel": 3,
      "note": 59,
      "start": 38.4481,
      "duration": 0.0161,
      "velocity": 101,
      "chip": "ym2612"
    },
    {
      "channel": 2,
      "note": 73,
      "start": 38.4493,
      "duration": 0.0162,
      "velocity": 100,
      "chip": "ym2612"
    },
    {
      "channel": 1,
      "note": 64,
      "start": 38.4504,
      "duration": 0.0161,
      "velocity": 101,
      "chip": "ym2612"
    },
    {
      "channel": 0,
      "note": 70,
      "start": 38.462,
      "duration": 0.014,
      "velocity": 124,
      "chip": "ym2612"
    },
    {
      "channel": 4,
      "note": 56,
      "start": 38.4631,
      "duration": 0.0141,
      "velocity": 101,
      "chip": "ym2612"
    },
    {
      "channel": 3,
      "note": 59,
      "start": 38.4643,
      "duration": 0.0141,
      "velocity": 101,
      "chip": "ym2612"
    },
    {
      "channel": 2,
      "note": 73,
      "start": 38.4654,
      "duration": 0.0141,
      "velocity": 100,
      "chip": "ym2612"
    },
    {
      "channel": 1,
      "note": 64,
      "start": 38.4666,
      "duration": 0.0141,
      "velocity": 101,
      "chip": "ym2612"
    },
    {
      "channel": 0,
      "note": 68,
      "start": 38.476,
      "duration": 0.0185,
      "velocity": 124,
      "chip": "ym2612"
    },
    {
      "channel": 4,
      "note": 56,
      "start": 38.4772,
      "duration": 0.0185,
      "velocity": 101,
      "chip": "ym2612"
    },
    {
      "channel": 3,
      "note": 59,
      "start": 38.4783,
      "duration": 0.0185,
      "velocity": 101,
      "chip": "ym2612"
    },
    {
      "channel": 1,
      "note": 64,
      "start": 38.4806,
      "duration": 0.0185,
      "velocity": 101,
      "chip": "ym2612"
    },
    {
      "channel": 0,
      "note": 65,
      "start": 38.4945,
      "duration": 0.0161,
      "velocity": 124,
      "chip": "ym2612"
    },
    {
      "channel": 4,
      "note": 56,
      "start": 38.4957,
      "duration": 0.0161,
      "velocity": 101,
      "chip": "ym2612"
    },
    {
      "channel": 3,
      "note": 59,
      "start": 38.4968,
      "duration": 0.0161,
      "velocity": 101,
      "chip": "ym2612"
    },
    {
      "channel": 1,
      "note": 64,
      "start": 38.4991,
      "duration": 0.0161,
      "velocity": 101,
      "chip": "ym2612"
    },
    {
      "channel": 0,
      "note": 63,
      "start": 38.5106,
      "duration": 0.0125,
      "velocity": 1,
      "chip": "ym2612"
    },
    {
      "channel": 4,
      "note": 56,
      "start": 38.5118,
      "duration": 0.0125,
      "velocity": 101,
      "chip": "ym2612"
    },
    {
      "channel": 3,
      "note": 59,
      "start": 38.5129,
      "duration": 0.015,
      "velocity": 101,
      "chip": "ym2612"
    },
    {
      "channel": 1,
      "note": 64,
      "start": 38.5152,
      "duration": 0.015,
      "velocity": 101,
      "chip": "ym2612"
    },
    {
      "channel": 4,
      "note": 56,
      "start": 38.5243,
      "duration": 0.0153,
      "velocity": 101,
      "chip": "ym2612"
    },
    {
      "channel": 3,
      "note": 59,
      "start": 38.5279,
      "duration": 0.0128,
      "velocity": 101,
      "chip": "ym2612"
    },
    {
      "channel": 1,
      "note": 64,
      "start": 38.5302,
      "duration": 0.0132,
      "velocity": 101,
      "chip": "ym2612"
    },
    {
      "channel": 4,
      "note": 56,
      "start": 38.5396,
      "duration": 0.0161,
      "velocity": 101,
      "chip": "ym2612"
    },
    {
      "channel": 3,
      "note": 59,
      "start": 38.5407,
      "duration": 0.0161,
      "velocity": 101,
      "chip": "ym2612"
    },
    {
      "channel": 1,
      "note": 64,
      "start": 38.5433,
      "duration": 0.0185,
      "velocity": 101,
      "chip": "ym2612"
    },
    {
      "channel": 4,
      "note": 56,
      "start": 38.5557,
      "duration": 0.0161,
      "velocity": 101,
      "chip": "ym2612"
    },
    {
      "channel": 3,
      "note": 59,
      "start": 38.5568,
      "duration": 0.0161,
      "velocity": 101,
      "chip": "ym2612"
    },
    {
      "channel": 1,
      "note": 64,
      "start": 38.5619,
      "duration": 0.0161,
      "velocity": 101,
      "chip": "ym2612"
    },
    {
      "channel": 4,
      "note": 56,
      "start": 38.5718,
      "duration": 0.0222,
      "velocity": 101,
      "chip": "ym2612"
    },
    {
      "channel": 3,
      "note": 59,
      "start": 38.5729,
      "duration": 0.0224,
      "velocity": 101,
      "chip": "ym2612"
    },
    {
      "channel": 1,
      "note": 64,
      "start": 38.578,
      "duration": 0.0202,
      "velocity": 101,
      "chip": "ym2612"
    },
    {
      "channel": 0,
      "note": 36,
      "start": 38.5902,
      "duration": 0.0144,
      "velocity": 115,
      "chip": "ym2612"
    },
    {
      "channel": 4,
      "note": 58,
      "start": 38.594,
      "duration": 0.0118,
      "velocity": 101,
      "chip": "ym2612"
    },
    {
      "channel": 3,
      "note": 61,
      "start": 38.5954,
      "duration": 0.0116,
      "velocity": 101,
      "chip": "ym2612"
    },
    {
      "channel": 2,
      "note": 61,
      "start": 38.5968,
      "duration": 0.0117,
      "velocity": 100,
      "chip": "ym2612"
    },
    {
      "channel": 1,
      "note": 66,
      "start": 38.5982,
      "duration": 0.0115,
      "velocity": 101,
      "chip": "ym2612"
    },
    {
      "channel": 0,
      "note": 36,
      "start": 38.6045,
      "duration": 0.016,
      "velocity": 115,
      "chip": "ym2612"
    },
    {
      "channel": 4,
      "note": 58,
      "start": 38.6057,
      "duration": 0.016,
      "velocity": 101,
      "chip": "ym2612"
    },
    {
      "channel": 3,
      "note": 61,
      "start": 38.607,
      "duration": 0.0159,
      "velocity": 101,
      "chip": "ym2612"
    },
    {
      "channel": 2,
      "note": 61,
      "start": 38.6085,
      "duration": 0.0155,
      "velocity": 100,
      "chip": "ym2612"
    },
    {
      "channel": 1,
      "note": 66,
      "start": 38.6097,
      "duration": 0.0182,
      "velocity": 101,
      "chip": "ym2612"
    },
    {
      "channel": 0,
      "note": 37,
      "start": 38.6206,
      "duration": 0.0161,
      "velocity": 115,
      "chip": "ym2612"
    },
    {
      "channel": 4,
      "note": 58,
      "start": 38.6217,
      "duration": 0.0161,
      "velocity": 101,
      "chip": "ym2612"
    },
    {
      "channel": 3,
      "note": 61,
      "start": 38.6229,
      "duration": 0.0162,
      "velocity": 101,
      "chip": "ym2612"
    },
    {
      "channel": 2,
      "note": 61,
      "start": 38.624,
      "duration": 0.0161,
      "velocity": 100,
      "chip": "ym2612"
    },
    {
      "channel": 1,
      "note": 66,
      "start": 38.6279,
      "duration": 0.0161,
      "velocity": 101,
      "chip": "ym2612"
    },
    {
      "channel": 0,
      "note": 37,
      "start": 38.6367,
      "duration": 0.0161,
      "velocity": 115,
      "chip": "ym2612"
    },
    {
      "channel": 4,
      "note": 58,
      "start": 38.6379,
      "duration": 0.0161,
      "velocity": 101,
      "chip": "ym2612"
    },
    {
      "channel": 3,
      "note": 61,
      "start": 38.639,
      "duration": 0.0161,
      "velocity": 101,
      "chip": "ym2612"
    },
    {
      "channel": 2,
      "note": 61,
      "start": 38.6401,
      "duration": 0.0161,
      "velocity": 100,
      "chip": "ym2612"
    },
    {
      "channel": 1,
      "note": 66,
      "start": 38.644,
      "duration": 0.0133,
      "velocity": 101,
      "chip": "ym2612"
    },
    {
      "channel": 0,
      "note": 38,
      "start": 38.6528,
      "duration": 0.0161,
      "velocity": 115,
      "chip": "ym2612"
    },
    {
      "channel": 4,
      "note": 58,
      "start": 38.654,
      "duration": 0.0161,
      "velocity": 101,
      "chip": "ym2612"
    },
    {
      "channel": 3,
      "note": 61,
      "start": 38.6551,
      "duration": 0.0161,
      "velocity": 101,
      "chip": "ym2612"
    },
    {
      "channel": 2,
      "note": 61,
      "start": 38.6562,
      "duration": 0.0162,
      "velocity": 100,
      "chip": "ym2612"
    },
    {
      "channel": 1,
      "note": 66,
      "start": 38.6573,
      "duration": 0.0161,
      "velocity": 101,
      "chip": "ym2612"
    },
    {
      "channel": 0,
      "note": 38,
      "start": 38.6689,
      "duration": 0.0161,
      "velocity": 115,
      "chip": "ym2612"
    },
    {
      "channel": 4,
      "note": 58,
      "start": 38.6701,
      "duration": 0.0161,
      "velocity": 101,
      "chip": "ym2612"
    },
    {
      "channel": 3,
      "note": 61,
      "start": 38.6712,
      "duration": 0.0161,
      "velocity": 101,
      "chip": "ym2612"
    },
    {
      "channel": 2,
      "note": 61,
      "start": 38.6724,
      "duration": 0.0161,
      "velocity": 100,
      "chip": "ym2612"
    },
    {
      "channel": 1,
      "note": 66,
      "start": 38.6735,
      "duration": 0.0161,
      "velocity": 101,
      "chip": "ym2612"
    },
    {
      "channel": 0,
      "note": 39,
      "start": 38.685,
      "duration": 0.0161,
      "velocity": 115,
      "chip": "ym2612"
    },
    {
      "channel": 4,
      "note": 58,
      "start": 38.6861,
      "duration": 0.0161,
      "velocity": 101,
      "chip": "ym2612"
    },
    {
      "channel": 3,
      "note": 61,
      "start": 38.6873,
      "duration": 0.0161,
      "velocity": 101,
      "chip": "ym2612"
    },
    {
      "channel": 2,
      "note": 61,
      "start": 38.6884,
      "duration": 0.0161,
      "velocity": 100,
      "chip": "ym2612"
    },
    {
      "channel": 1,
      "note": 66,
      "start": 38.6896,
      "duration": 0.0161,
      "velocity": 101,
      "chip": "ym2612"
    },
    {
      "channel": 0,
      "note": 39,
      "start": 38.7011,
      "duration": 0.0161,
      "velocity": 115,
      "chip": "ym2612"
    },
    {
      "channel": 4,
      "note": 58,
      "start": 38.7022,
      "duration": 0.0161,
      "velocity": 101,
      "chip": "ym2612"
    },
    {
      "channel": 3,
      "note": 61,
      "start": 38.7034,
      "duration": 0.0161,
      "velocity": 101,
      "chip": "ym2612"
    },
    {
      "channel": 1,
      "note": 66,
      "start": 38.7057,
      "duration": 0.0161,
      "velocity": 101,
      "chip": "ym2612"
    },
    {
      "channel": 0,
      "note": 40,
      "start": 38.7172,
      "duration": 0.0161,
      "velocity": 115,
      "chip": "ym2612"
    },
    {
      "channel": 4,
      "note": 58,
      "start": 38.7183,
      "duration": 0.0161,
      "velocity": 101,
      "chip": "ym2612"
    },
    {
      "channel": 3,
      "note": 61,
      "start": 38.7195,
      "duration": 0.0161,
      "velocity": 101,
      "chip": "ym2612"
    },
    {
      "channel": 1,
      "note": 66,
      "start": 38.7218,
      "duration": 0.0161,
      "velocity": 101,
      "chip": "ym2612"
    },
    {
      "channel": 0,
      "note": 40,
      "start": 38.7333,
      "duration": 0.0161,
      "velocity": 115,
      "chip": "ym2612"
    },
    {
      "channel": 4,
      "note": 58,
      "start": 38.7344,
      "duration": 0.0161,
      "velocity": 101,
      "chip": "ym2612"
    },
    {
      "channel": 3,
      "note": 61,
      "start": 38.7356,
      "duration": 0.0161,
      "velocity": 101,
      "chip": "ym2612"
    },
    {
      "channel": 1,
      "note": 66,
      "start": 38.7379,
      "duration": 0.0161,
      "velocity": 101,
      "chip": "ym2612"
    },
    {
      "channel": 0,
      "note": 40,
      "start": 38.7494,
      "duration": 0.0161,
      "velocity": 115,
      "chip": "ym2612"
    },
    {
      "channel": 4,
      "note": 58,
      "start": 38.7505,
      "duration": 0.0161,
      "velocity": 101,
      "chip": "ym2612"
    },
    {
      "channel": 3,
      "note": 61,
      "start": 38.7517,
      "duration": 0.0161,
      "velocity": 101,
      "chip": "ym2612"
    },
    {
      "channel": 1,
      "note": 66,
      "start": 38.754,
      "duration": 0.0161,
      "velocity": 101,
      "chip": "ym2612"
    },
    {
      "channel": 0,
      "note": 41,
      "start": 38.7655,
      "duration": 0.0161,
      "velocity": 115,
      "chip": "ym2612"
    },
    {
      "channel": 4,
      "note": 58,
      "start": 38.7666,
      "duration": 0.0162,
      "velocity": 101,
      "chip": "ym2612"
    },
    {
      "channel": 3,
      "note": 61,
      "start": 38.7678,
      "duration": 0.0161,
      "velocity": 101,
      "chip": "ym2612"
    },
    {
      "channel": 1,
      "note": 66,
      "start": 38.7701,
      "duration": 0.0161,
      "velocity": 101,
      "chip": "ym2612"
    },
    {
      "channel": 0,
      "note": 41,
      "start": 38.7816,
      "duration": 0.0162,
      "velocity": 115,
      "chip": "ym2612"
    },
    {
      "channel": 4,
      "note": 58,
      "start": 38.7828,
      "duration": 0.0161,
      "velocity": 101,
      "chip": "ym2612"
    },
    {
      "channel": 3,
      "note": 61,
      "start": 38.7839,
      "duration": 0.0161,
      "velocity": 101,
      "chip": "ym2612"
    },
    {
      "channel": 1,
      "note": 66,
      "start": 38.7861,
      "duration": 0.0162,
      "velocity": 101,
      "chip": "ym2612"
    },
    {
      "channel": 0,
      "note": 42,
      "start": 38.7977,
      "duration": 0.0178,
      "velocity": 115,
      "chip": "ym2612"
    },
    {
      "channel": 4,
      "note": 58,
      "start": 38.7989,
      "duration": 0.0179,
      "velocity": 101,
      "chip": "ym2612"
    },
    {
      "channel": 3,
      "note": 61,
      "start": 38.8,
      "duration": 0.0179,
      "velocity": 101,
      "chip": "ym2612"
    },
    {
      "channel": 1,
      "note": 66,
      "start": 38.8023,
      "duration": 0.0181,
      "velocity": 101,
      "chip": "ym2612"
    },
    {
      "channel": 0,
      "note": 36,
      "start": 38.8156,
      "duration": 0.0144,
      "velocity": 115,
      "chip": "ym2612"
    },
    {
      "channel": 4,
      "note": 58,
      "start": 38.8168,
      "duration": 0.0144,
      "velocity": 101,
      "chip": "ym2612"
    },
    {
      "channel": 3,
      "note": 61,
      "start": 38.8179,
      "duration": 0.0144,
      "velocity": 101,
      "chip": "ym2612"
    },
    {
      "channel": 2,
      "note": 59,
      "start": 38.8193,
      "duration": 0.0142,
      "velocity": 100,
      "chip": "ym2612"
    },
    {
      "channel": 1,
      "note": 66,
      "start": 38.8204,
      "duration": 0.0142,
      "velocity": 101,
      "chip": "ym2612"
    },
    {
      "channel": 0,
      "note": 36,
      "start": 38.83,
      "duration": 0.016,
      "velocity": 115,
      "chip": "ym2612"
    },
    {
      "channel": 4,
      "note": 58,
      "start": 38.8311,
      "duration": 0.016,
      "velocity": 101,
      "chip": "ym2612"
    },
    {
      "channel": 3,
      "note": 61,
      "start": 38.8323,
      "duration": 0.016,
      "velocity": 101,
      "chip": "ym2612"
    },
    {
      "channel": 2,
      "note": 59,
      "start": 38.8335,
      "duration": 0.016,
      "velocity": 100,
      "chip": "ym2612"
    },
    {
      "channel": 1,
      "note": 66,
      "start": 38.8346,
      "duration": 0.016,
      "velocity": 101,
      "chip": "ym2612"
    },
    {
      "channel": 0,
      "note": 37,
      "start": 38.846,
      "duration": 0.0162,
      "velocity": 115,
      "chip": "ym2612"
    },
    {
      "channel": 4,
      "note": 58,
      "start": 38.8472,
      "duration": 0.0161,
      "velocity": 101,
      "chip": "ym2612"
    },
    {
      "channel": 3,
      "note": 61,
      "start": 38.8483,
      "duration": 0.0162,
      "velocity": 101,
      "chip": "ym2612"
    },
    {
      "channel": 2,
      "note": 59,
      "start": 38.8495,
      "duration": 0.0161,
      "velocity": 100,
      "chip": "ym2612"
    },
    {
      "channel": 1,
      "note": 66,
      "start": 38.8506,
      "duration": 0.0162,
      "velocity": 101,
      "chip": "ym2612"
    },
    {
      "channel": 0,
      "note": 37,
      "start": 38.8622,
      "duration": 0.016,
      "velocity": 115,
      "chip": "ym2612"
    },
    {
      "channel": 4,
      "note": 58,
      "start": 38.8633,
      "duration": 0.016,
      "velocity": 101,
      "chip": "ym2612"
    },
    {
      "channel": 3,
      "note": 61,
      "start": 38.8645,
      "duration": 0.016,
      "velocity": 101,
      "chip": "ym2612"
    },
    {
      "channel": 2,
      "note": 59,
      "start": 38.8656,
      "duration": 0.016,
      "velocity": 100,
      "chip": "ym2612"
    },
    {
      "channel": 1,
      "note": 66,
      "start": 38.8668,
      "duration": 0.016,
      "velocity": 101,
      "chip": "ym2612"
    },
    {
      "channel": 0,
      "note": 38,
      "start": 38.8782,
      "duration": 0.0176,
      "velocity": 115,
      "chip": "ym2612"
    },
    {
      "channel": 4,
      "note": 58,
      "start": 38.8793,
      "duration": 0.0176,
      "velocity": 101,
      "chip": "ym2612"
    },
    {
      "channel": 3,
      "note": 61,
      "start": 38.8805,
      "duration": 0.0176,
      "velocity": 101,
      "chip": "ym2612"
    },
    {
      "channel": 2,
      "note": 59,
      "start": 38.8816,
      "duration": 0.0176,
      "velocity": 100,
      "chip": "ym2612"
    },
    {
      "channel": 1,
      "note": 66,
      "start": 38.8828,
      "duration": 0.0176,
      "velocity": 101,
      "chip": "ym2612"
    },
    {
      "channel": 0,
      "note": 38,
      "start": 38.8958,
      "duration": 0.0167,
      "velocity": 115,
      "chip": "ym2612"
    },
    {
      "channel": 4,
      "note": 58,
      "start": 38.897,
      "duration": 0.0167,
      "velocity": 101,
      "chip": "ym2612"
    },
    {
      "channel": 3,
      "note": 61,
      "start": 38.8981,
      "duration": 0.0167,
      "velocity": 101,
      "chip": "ym2612"
    },
    {
      "channel": 2,
      "note": 59,
      "start": 38.8993,
      "duration": 0.0167,
      "velocity": 100,
      "chip": "ym2612"
    },
    {
      "channel": 1,
      "note": 66,
      "start": 38.9004,
      "duration": 0.0167,
      "velocity": 101,
      "chip": "ym2612"
    },
    {
      "channel": 0,
      "note": 39,
      "start": 38.9125,
      "duration": 0.0163,
      "velocity": 115,
      "chip": "ym2612"
    },
    {
      "channel": 4,
      "note": 58,
      "start": 38.9136,
      "duration": 0.0163,
      "velocity": 101,
      "chip": "ym2612"
    },
    {
      "channel": 3,
      "note": 61,
      "start": 38.9148,
      "duration": 0.0163,
      "velocity": 101,
      "chip": "ym2612"
    },
    {
      "channel": 2,
      "note": 59,
      "start": 38.9159,
      "duration": 0.0163,
      "velocity": 100,
      "chip": "ym2612"
    },
    {
      "channel": 1,
      "note": 66,
      "start": 38.9171,
      "duration": 0.0163,
      "velocity": 101,
      "chip": "ym2612"
    },
    {
      "channel": 0,
      "note": 39,
      "start": 38.9288,
      "duration": 0.0141,
      "velocity": 115,
      "chip": "ym2612"
    },
    {
      "channel": 4,
      "note": 58,
      "start": 38.9299,
      "duration": 0.0142,
      "velocity": 101,
      "chip": "ym2612"
    },
    {
      "channel": 3,
      "note": 61,
      "start": 38.9311,
      "duration": 0.0142,
      "velocity": 101,
      "chip": "ym2612"
    },
    {
      "channel": 1,
      "note": 66,
      "start": 38.9334,
      "duration": 0.0142,
      "velocity": 101,
      "chip": "ym2612"
    },
    {
      "channel": 0,
      "note": 40,
      "start": 38.9429,
      "duration": 0.0186,
      "velocity": 115,
      "chip": "ym2612"
    },
    {
      "channel": 4,
      "note": 58,
      "start": 38.9441,
      "duration": 0.0185,
      "velocity": 101,
      "chip": "ym2612"
    },
    {
      "channel": 3,
      "note": 61,
      "start": 38.9453,
      "duration": 0.0185,
      "velocity": 101,
      "chip": "ym2612"
    },
    {
      "channel": 1,
      "note": 66,
      "start": 38.9476,
      "duration": 0.0185,
      "velocity": 101,
      "chip": "ym2612"
    },
    {
      "channel": 0,
      "note": 40,
      "start": 38.9615,
      "duration": 0.0161,
      "velocity": 115,
      "chip": "ym2612"
    },
    {
      "channel": 4,
      "note": 58,
      "start": 38.9626,
      "duration": 0.0161,
      "velocity": 101,
      "chip": "ym2612"
    },
    {
      "channel": 3,
      "note": 61,
      "start": 38.9638,
      "duration": 0.0161,
      "velocity": 101,
      "chip": "ym2612"
    },
    {
      "channel": 1,
      "note": 66,
      "start": 38.9661,
      "duration": 0.0161,
      "velocity": 101,
      "chip": "ym2612"
    },
    {
      "channel": 0,
      "note": 40,
      "start": 38.9776,
      "duration": 0.0134,
      "velocity": 115,
      "chip": "ym2612"
    },
    {
      "channel": 4,
      "note": 58,
      "start": 38.9787,
      "duration": 0.0158,
      "velocity": 101,
      "chip": "ym2612"
    },
    {
      "channel": 3,
      "note": 61,
      "start": 38.9799,
      "duration": 0.0158,
      "velocity": 101,
      "chip": "ym2612"
    },
    {
      "channel": 1,
      "note": 66,
      "start": 38.9822,
      "duration": 0.0157,
      "velocity": 101,
      "chip": "ym2612"
    },
    {
      "channel": 0,
      "note": 41,
      "start": 38.9909,
      "duration": 0.0161,
      "velocity": 115,
      "chip": "ym2612"
    },
    {
      "channel": 4,
      "note": 58,
      "start": 38.9945,
      "duration": 0.014,
      "velocity": 101,
      "chip": "ym2612"
    },
    {
      "channel": 3,
      "note": 61,
      "start": 38.9956,
      "duration": 0.014,
      "velocity": 101,
      "chip": "ym2612"
    },
    {
      "channel": 1,
      "note": 66,
      "start": 38.9979,
      "duration": 0.0141,
      "velocity": 101,
      "chip": "ym2612"
    },
    {
      "channel": 0,
      "note": 41,
      "start": 39.007,
      "duration": 0.0161,
      "velocity": 115,
      "chip": "ym2612"
    },
    {
      "channel": 4,
      "note": 58,
      "start": 39.0085,
      "duration": 0.0158,
      "velocity": 101,
      "chip": "ym2612"
    },
    {
      "channel": 3,
      "note": 61,
      "start": 39.0096,
      "duration": 0.0186,
      "velocity": 101,
      "chip": "ym2612"
    },
    {
      "channel": 1,
      "note": 66,
      "start": 39.0119,
      "duration": 0.0185,
      "velocity": 101,
      "chip": "ym2612"
    },
    {
      "channel": 0,
      "note": 42,
      "start": 39.0231,
      "duration": 0.0179,
      "velocity": 115,
      "chip": "ym2612"
    },
    {
      "channel": 4,
      "note": 58,
      "start": 39.0243,
      "duration": 0.0207,
      "velocity": 101,
      "chip": "ym2612"
    },
    {
      "channel": 3,
      "note": 61,
      "start": 39.0282,
      "duration": 0.0179,
      "velocity": 101,
      "chip": "ym2612"
    },
    {
      "channel": 1,
      "note": 66,
      "start": 39.0304,
      "duration": 0.0182,
      "velocity": 101,
      "chip": "ym2612"
    },
    {
      "channel": 0,
      "note": 36,
      "start": 39.041,
      "duration": 0.0144,
      "velocity": 115,
      "chip": "ym2612"
    },
    {
      "channel": 4,
      "note": 58,
      "start": 39.0449,
      "duration": 0.0116,
      "velocity": 101,
      "chip": "ym2612"
    },
    {
      "channel": 3,
      "note": 61,
      "start": 39.0461,
      "duration": 0.0116,
      "velocity": 101,
      "chip": "ym2612"
    },
    {
      "channel": 2,
      "note": 59,
      "start": 39.0475,
      "duration": 0.0138,
      "velocity": 100,
      "chip": "ym2612"
    },
    {
      "channel": 1,
      "note": 66,
      "start": 39.0486,
      "duration": 0.0138,
      "velocity": 101,
      "chip": "ym2612"
    },
    {
      "channel": 0,
      "note": 36,
      "start": 39.0554,
      "duration": 0.016,
      "velocity": 115,
      "chip": "ym2612"
    },
    {
      "channel": 4,
      "note": 58,
      "start": 39.0565,
      "duration": 0.0161,
      "velocity": 101,
      "chip": "ym2612"
    },
    {
      "channel": 3,
      "note": 61,
      "start": 39.0577,
      "duration": 0.0161,
      "velocity": 101,
      "chip": "ym2612"
    },
    {
      "channel": 2,
      "note": 59,
      "start": 39.0613,
      "duration": 0.0139,
      "velocity": 100,
      "chip": "ym2612"
    },
    {
      "channel": 1,
      "note": 66,
      "start": 39.0624,
      "duration": 0.0139,
      "velocity": 101,
      "chip": "ym2612"
    },
    {
      "channel": 0,
      "note": 37,
      "start": 39.0714,
      "duration": 0.0161,
      "velocity": 115,
      "chip": "ym2612"
    },
    {
      "channel": 4,
      "note": 58,
      "start": 39.0726,
      "duration": 0.0161,
      "velocity": 101,
      "chip": "ym2612"
    },
    {
      "channel": 3,
      "note": 61,
      "start": 39.0737,
      "duration": 0.0161,
      "velocity": 101,
      "chip": "ym2612"
    },
    {
      "channel": 2,
      "note": 59,
      "start": 39.0752,
      "duration": 0.0157,
      "velocity": 100,
      "chip": "ym2612"
    },
    {
      "channel": 1,
      "note": 66,
      "start": 39.0763,
      "duration": 0.0185,
      "velocity": 101,
      "chip": "ym2612"
    },
    {
      "channel": 0,
      "note": 37,
      "start": 39.0875,
      "duration": 0.0162,
      "velocity": 115,
      "chip": "ym2612"
    },
    {
      "channel": 4,
      "note": 58,
      "start": 39.0887,
      "duration": 0.0161,
      "velocity": 101,
      "chip": "ym2612"
    },
    {
      "channel": 3,
      "note": 61,
      "start": 39.0898,
      "duration": 0.0161,
      "velocity": 101,
      "chip": "ym2612"
    },
    {
      "channel": 2,
      "note": 59,
      "start": 39.0909,
      "duration": 0.0161,
      "velocity": 100,
      "chip": "ym2612"
    },
    {
      "channel": 1,
      "note": 66,
      "start": 39.0948,
      "duration": 0.0161,
      "velocity": 101,
      "chip": "ym2612"
    },
    {
      "channel": 0,
      "note": 38,
      "start": 39.1037,
      "duration": 0.0161,
      "velocity": 115,
      "chip": "ym2612"
    },
    {
      "channel": 4,
      "note": 58,
      "start": 39.1048,
      "duration": 0.0161,
      "velocity": 101,
      "chip": "ym2612"
    },
    {
      "channel": 3,
      "note": 61,
      "start": 39.1059,
      "duration": 0.0161,
      "velocity": 101,
      "chip": "ym2612"
    },
    {
      "channel": 2,
      "note": 59,
      "start": 39.1071,
      "duration": 0.0161,
      "velocity": 100,
      "chip": "ym2612"
    },
    {
      "channel": 1,
      "note": 66,
      "start": 39.111,
      "duration": 0.0134,
      "velocity": 101,
      "chip": "ym2612"
    },
    {
      "channel": 0,
      "note": 38,
      "start": 39.1198,
      "duration": 0.0161,
      "velocity": 115,
      "chip": "ym2612"
    },
    {
      "channel": 4,
      "note": 58,
      "start": 39.1209,
      "duration": 0.0161,
      "velocity": 101,
      "chip": "ym2612"
    },
    {
      "channel": 3,
      "note": 61,
      "start": 39.122,
      "duration": 0.0161,
      "velocity": 101,
      "chip": "ym2612"
    },
    {
      "channel": 2,
      "note": 59,
      "start": 39.1232,
      "duration": 0.0161,
      "velocity": 100,
      "chip": "ym2612"
    },
    {
      "channel": 1,
      "note": 66,
      "start": 39.1243,
      "duration": 0.0161,
      "velocity": 101,
      "chip": "ym2612"
    },
    {
      "channel": 0,
      "note": 39,
      "start": 39.1358,
      "duration": 0.0161,
      "velocity": 115,
      "chip": "ym2612"
    },
    {
      "channel": 4,
      "note": 58,
      "start": 39.137,
      "duration": 0.0161,
      "velocity": 101,
      "chip": "ym2612"
    },
    {
      "channel": 3,
      "note": 61,
      "start": 39.1381,
      "duration": 0.0161,
      "velocity": 101,
      "chip": "ym2612"
    },
    {
      "channel": 2,
      "note": 59,
      "start": 39.1393,
      "duration": 0.0161,
      "velocity": 100,
      "chip": "ym2612"
    },
    {
      "channel": 1,
      "note": 66,
      "start": 39.1404,
      "duration": 0.0161,
      "velocity": 101,
      "chip": "ym2612"
    },
    {
      "channel": 0,
      "note": 39,
      "start": 39.1519,
      "duration": 0.0161,
      "velocity": 115,
      "chip": "ym2612"
    },
    {
      "channel": 4,
      "note": 58,
      "start": 39.1531,
      "duration": 0.0161,
      "velocity": 101,
      "chip": "ym2612"
    },
    {
      "channel": 3,
      "note": 61,
      "start": 39.1542,
      "duration": 0.0161,
      "velocity": 101,
      "chip": "ym2612"
    },
    {
      "channel": 1,
      "note": 66,
      "start": 39.1565,
      "duration": 0.0161,
      "velocity": 101,
      "chip": "ym2612"
    },
    {
      "channel": 0,
      "note": 40,
      "start": 39.168,
      "duration": 0.0161,
      "velocity": 115,
      "chip": "ym2612"
    },
    {
      "channel": 4,
      "note": 58,
      "start": 39.1692,
      "duration": 0.0161,
      "velocity": 101,
      "chip": "ym2612"
    },
    {
      "channel": 3,
      "note": 61,
      "start": 39.1703,
      "duration": 0.0161,
      "velocity": 101,
      "chip": "ym2612"
    },
    {
      "channel": 1,
      "note": 66,
      "start": 39.1726,
      "duration": 0.0161,
      "velocity": 101,
      "chip": "ym2612"
    },
    {
      "channel": 0,
      "note": 40,
      "start": 39.1841,
      "duration": 0.0161,
      "velocity": 115,
      "chip": "ym2612"
    },
    {
      "channel": 4,
      "note": 58,
      "start": 39.1853,
      "duration": 0.0161,
      "velocity": 101,
      "chip": "ym2612"
    },
    {
      "channel": 3,
      "note": 61,
      "start": 39.1864,
      "duration": 0.0161,
      "velocity": 101,
      "chip": "ym2612"
    },
    {
      "channel": 1,
      "note": 66,
      "start": 39.1887,
      "duration": 0.0161,
      "velocity": 101,
      "chip": "ym2612"
    },
    {
      "channel": 0,
      "note": 40,
      "start": 39.2002,
      "duration": 0.0161,
      "velocity": 115,
      "chip": "ym2612"
    },
    {
      "channel": 4,
      "note": 58,
      "start": 39.2014,
      "duration": 0.0161,
      "velocity": 101,
      "chip": "ym2612"
    },
    {
      "channel": 3,
      "note": 61,
      "start": 39.2025,
      "duration": 0.0162,
      "velocity": 101,
      "chip": "ym2612"
    },
    {
      "channel": 1,
      "note": 66,
      "start": 39.2048,
      "duration": 0.0161,
      "velocity": 101,
      "chip": "ym2612"
    },
    {
      "channel": 0,
      "note": 41,
      "start": 39.2163,
      "duration": 0.0161,
      "velocity": 115,
      "chip": "ym2612"
    },
    {
      "channel": 4,
      "note": 58,
      "start": 39.2175,
      "duration": 0.0161,
      "velocity": 101,
      "chip": "ym2612"
    },
    {
      "channel": 3,
      "note": 61,
      "start": 39.2187,
      "duration": 0.0161,
      "velocity": 101,
      "chip": "ym2612"
    },
    {
      "channel": 1,
      "note": 66,
      "start": 39.2209,
      "duration": 0.0161,
      "velocity": 101,
      "chip": "ym2612"
    },
    {
      "channel": 0,
      "note": 41,
      "start": 39.2324,
      "duration": 0.0161,
      "velocity": 115,
      "chip": "ym2612"
    },
    {
      "channel": 4,
      "note": 58,
      "start": 39.2336,
      "duration": 0.0161,
      "velocity": 101,
      "chip": "ym2612"
    },
    {
      "channel": 3,
      "note": 61,
      "start": 39.2348,
      "duration": 0.0161,
      "velocity": 101,
      "chip": "ym2612"
    },
    {
      "channel": 1,
      "note": 66,
      "start": 39.237,
      "duration": 0.0161,
      "velocity": 101,
      "chip": "ym2612"
    },
    {
      "channel": 0,
      "note": 42,
      "start": 39.2485,
      "duration": 0.0178,
      "velocity": 124,
      "chip": "ym2612"
    },
    {
      "channel": 4,
      "note": 58,
      "start": 39.2497,
      "duration": 0.0179,
      "velocity": 101,
      "chip": "ym2612"
    },
    {
      "channel": 3,
      "note": 61,
      "start": 39.2508,
      "duration": 0.0179,
      "velocity": 101,
      "chip": "ym2612"
    },
    {
      "channel": 1,
      "note": 66,
      "start": 39.2531,
      "duration": 0.0181,
      "velocity": 101,
      "chip": "ym2612"
    },
    {
      "channel": 0,
      "note": 84,
      "start": 39.2664,
      "duration": 0.0144,
      "velocity": 124,
      "chip": "ym2612"
    },
    {
      "channel": 4,
      "note": 58,
      "start": 39.2676,
      "duration": 0.0144,
      "velocity": 101,
      "chip": "ym2612"
    },
    {
      "channel": 3,
      "note": 61,
      "start": 39.2687,
      "duration": 0.0144,
      "velocity": 101,
      "chip": "ym2612"
    },
    {
      "channel": 2,
      "note": 71,
      "start": 39.2701,
      "duration": 0.0142,
      "velocity": 100,
      "chip": "ym2612"
    },
    {
      "channel": 1,
      "note": 66,
      "start": 39.2713,
      "duration": 0.0142,
      "velocity": 101,
      "chip": "ym2612"
    },
    {
      "channel": 0,
      "note": 82,
      "start": 39.2808,
      "duration": 0.016,
      "velocity": 124,
      "chip": "ym2612"
    },
    {
      "channel": 4,
      "note": 58,
      "start": 39.282,
      "duration": 0.016,
      "velocity": 101,
      "chip": "ym2612"
    },
    {
      "channel": 3,
      "note": 61,
      "start": 39.2831,
      "duration": 0.016,
      "velocity": 101,
      "chip": "ym2612"
    },
    {
      "channel": 2,
      "note": 71,
      "start": 39.2843,
      "duration": 0.016,
      "velocity": 100,
      "chip": "ym2612"
    },
    {
      "channel": 1,
      "note": 66,
      "start": 39.2855,
      "duration": 0.016,
      "velocity": 101,
      "chip": "ym2612"
    },
    {
      "channel": 0,
      "note": 80,
      "start": 39.2968,
      "duration": 0.0161,
      "velocity": 124,
      "chip": "ym2612"
    },
    {
      "channel": 4,
      "note": 58,
      "start": 39.298,
      "duration": 0.0161,
      "velocity": 101,
      "chip": "ym2612"
    },
    {
      "channel": 3,
      "note": 61,
      "start": 39.2991,
      "duration": 0.0161,
      "velocity": 101,
      "chip": "ym2612"
    },
    {
      "channel": 2,
      "note": 71,
      "start": 39.3003,
      "duration": 0.0161,
      "velocity": 100,
      "chip": "ym2612"
    },
    {
      "channel": 1,
      "note": 66,
      "start": 39.3014,
      "duration": 0.0161,
      "velocity": 101,
      "chip": "ym2612"
    },
    {
      "channel": 0,
      "note": 77,
      "start": 39.3129,
      "duration": 0.0161,
      "velocity": 124,
      "chip": "ym2612"
    },
    {
      "channel": 4,
      "note": 58,
      "start": 39.3141,
      "duration": 0.0162,
      "velocity": 101,
      "chip": "ym2612"
    },
    {
      "channel": 3,
      "note": 61,
      "start": 39.3152,
      "duration": 0.0162,
      "velocity": 101,
      "chip": "ym2612"
    },
    {
      "channel": 2,
      "note": 71,
      "start": 39.3164,
      "duration": 0.0161,
      "velocity": 100,
      "chip": "ym2612"
    },
    {
      "channel": 1,
      "note": 66,
      "start": 39.3175,
      "duration": 0.0161,
      "velocity": 101,
      "chip": "ym2612"
    },
    {
      "channel": 0,
      "note": 75,
      "start": 39.329,
      "duration": 0.0161,
      "velocity": 124,
      "chip": "ym2612"
    },
    {
      "channel": 4,
      "note": 58,
      "start": 39.3302,
      "duration": 0.0161,
      "velocity": 101,
      "chip": "ym2612"
    },
    {
      "channel": 3,
      "note": 61,
      "start": 39.3314,
      "duration": 0.0161,
      "velocity": 101,
      "chip": "ym2612"
    },
    {
      "channel": 2,
      "note": 71,
      "start": 39.3325,
      "duration": 0.0161,
      "velocity": 100,
      "chip": "ym2612"
    },
    {
      "channel": 1,
      "note": 66,
      "start": 39.3336,
      "duration": 0.0161,
      "velocity": 101,
      "chip": "ym2612"
    },
    {
      "channel": 0,
      "note": 72,
      "start": 39.3451,
      "duration": 0.0174,
      "velocity": 124,
      "chip": "ym2612"
    },
    {
      "channel": 4,
      "note": 58,
      "start": 39.3463,
      "duration": 0.0173,
      "velocity": 101,
      "chip": "ym2612"
    },
    {
      "channel": 3,
      "note": 61,
      "start": 39.3475,
      "duration": 0.0173,
      "velocity": 101,
      "chip": "ym2612"
    },
    {
      "channel": 2,
      "note": 71,
      "start": 39.3485,
      "duration": 0.0174,
      "velocity": 100,
      "chip": "ym2612"
    },
    {
      "channel": 1,
      "note": 66,
      "start": 39.3497,
      "duration": 0.0174,
      "velocity": 101,
      "chip": "ym2612"
    },
    {
      "channel": 0,
      "note": 70,
      "start": 39.3625,
      "duration": 0.0167,
      "velocity": 124,
      "chip": "ym2612"
    },
    {
      "channel": 4,
      "note": 58,
      "start": 39.3636,
      "duration": 0.0167,
      "velocity": 101,
      "chip": "ym2612"
    },
    {
      "channel": 3,
      "note": 61,
      "start": 39.3648,
      "duration": 0.0167,
      "velocity": 101,
      "chip": "ym2612"
    },
    {
      "channel": 2,
      "note": 71,
      "start": 39.3659,
      "duration": 0.0167,
      "velocity": 100,
      "chip": "ym2612"
    },
    {
      "channel": 1,
      "note": 66,
      "start": 39.3671,
      "duration": 0.0167,
      "velocity": 101,
      "chip": "ym2612"
    },
    {
      "channel": 0,
      "note": 68,
      "start": 39.3792,
      "duration": 0.0163,
      "velocity": 124,
      "chip": "ym2612"
    },
    {
      "channel": 4,
      "note": 58,
      "start": 39.3803,
      "duration": 0.0163,
      "velocity": 101,
      "chip": "ym2612"
    },
    {
      "channel": 3,
      "note": 61,
      "start": 39.3815,
      "duration": 0.0163,
      "velocity": 101,
      "chip": "ym2612"
    },
    {
      "channel": 1,
      "note": 66,
      "start": 39.3837,
      "duration": 0.0163,
      "velocity": 101,
      "chip": "ym2612"
    },
    {
      "channel": 0,
      "note": 65,
      "start": 39.3954,
      "duration": 0.0144,
      "velocity": 124,
      "chip": "ym2612"
    },
    {
      "channel": 4,
      "note": 58,
      "start": 39.3966,
      "duration": 0.0144,
      "velocity": 101,
      "chip": "ym2612"
    },
    {
      "channel": 3,
      "note": 61,
      "start": 39.3977,
      "duration": 0.0144,
      "velocity": 101,
      "chip": "ym2612"
    },
    {
      "channel": 1,
      "note": 66,
      "start": 39.4,
      "duration": 0.0144,
      "velocity": 101,
      "chip": "ym2612"
    },
    {
      "channel": 0,
      "note": 63,
      "start": 39.4099,
      "duration": 0.0177,
      "velocity": 1,
      "chip": "ym2612"
    },
    {
      "channel": 4,
      "note": 58,
      "start": 39.411,
      "duration": 0.0177,
      "velocity": 101,
      "chip": "ym2612"
    },
    {
      "channel": 3,
      "note": 61,
      "start": 39.4122,
      "duration": 0.0177,
      "velocity": 101,
      "chip": "ym2612"
    },
    {
      "channel": 1,
      "note": 66,
      "start": 39.4145,
      "duration": 0.0177,
      "velocity": 101,
      "chip": "ym2612"
    },
    {
      "channel": 4,
      "note": 58,
      "start": 39.4287,
      "duration": 0.0153,
      "velocity": 101,
      "chip": "ym2612"
    },
    {
      "channel": 3,
      "note": 61,
      "start": 39.4299,
      "duration": 0.0153,
      "velocity": 101,
      "chip": "ym2612"
    },
    {
      "channel": 1,
      "note": 66,
      "start": 39.4322,
      "duration": 0.0153,
      "velocity": 101,
      "chip": "ym2612"
    },
    {
      "channel": 4,
      "note": 58,
      "start": 39.444,
      "duration": 0.0134,
      "velocity": 101,
      "chip": "ym2612"
    },
    {
      "channel": 3,
      "note": 61,
      "start": 39.4451,
      "duration": 0.0158,
      "velocity": 101,
      "chip": "ym2612"
    },
    {
      "channel": 1,
      "note": 66,
      "start": 39.4474,
      "duration": 0.0158,
      "velocity": 101,
      "chip": "ym2612"
    },
    {
      "channel": 4,
      "note": 58,
      "start": 39.4573,
      "duration": 0.0161,
      "velocity": 101,
      "chip": "ym2612"
    },
    {
      "channel": 3,
      "note": 61,
      "start": 39.4609,
      "duration": 0.0141,
      "velocity": 101,
      "chip": "ym2612"
    },
    {
      "channel": 1,
      "note": 66,
      "start": 39.4632,
      "duration": 0.014,
      "velocity": 101,
      "chip": "ym2612"
    },
    {
      "channel": 4,
      "note": 58,
      "start": 39.4734,
      "duration": 0.0161,
      "velocity": 101,
      "chip": "ym2612"
    },
    {
      "channel": 3,
      "note": 61,
      "start": 39.475,
      "duration": 0.0157,
      "velocity": 101,
      "chip": "ym2612"
    },
    {
      "channel": 1,
      "note": 66,
      "start": 39.4772,
      "duration": 0.0188,
      "velocity": 101,
      "chip": "ym2612"
    },
    {
      "channel": 4,
      "note": 58,
      "start": 39.4895,
      "duration": 0.0162,
      "velocity": 101,
      "chip": "ym2612"
    },
    {
      "channel": 3,
      "note": 61,
      "start": 39.4907,
      "duration": 0.0161,
      "velocity": 101,
      "chip": "ym2612"
    },
    {
      "channel": 2,
      "note": 59,
      "start": 39.4948,
      "duration": 0.016,
      "velocity": 100,
      "chip": "ym2612"
    },
    {
      "channel": 1,
      "note": 66,
      "start": 39.4959,
      "duration": 0.016,
      "velocity": 101,
      "chip": "ym2612"
    },
    {
      "channel": 4,
      "note": 58,
      "start": 39.5057,
      "duration": 0.0161,
      "velocity": 101,
      "chip": "ym2612"
    },
    {
      "channel": 3,
      "note": 61,
      "start": 39.5068,
      "duration": 0.0161,
      "velocity": 101,
      "chip": "ym2612"
    },
    {
      "channel": 2,
      "note": 59,
      "start": 39.5108,
      "duration": 0.0133,
      "velocity": 100,
      "chip": "ym2612"
    },
    {
      "channel": 1,
      "note": 66,
      "start": 39.5119,
      "duration": 0.0156,
      "velocity": 101,
      "chip": "ym2612"
    },
    {
      "channel": 4,
      "note": 58,
      "start": 39.5218,
      "duration": 0.0161,
      "velocity": 101,
      "chip": "ym2612"
    },
    {
      "channel": 3,
      "note": 61,
      "start": 39.5229,
      "duration": 0.0161,
      "velocity": 101,
      "chip": "ym2612"
    },
    {
      "channel": 2,
      "note": 59,
      "start": 39.5241,
      "duration": 0.0161,
      "velocity": 100,
      "chip": "ym2612"
    },
    {
      "channel": 1,
      "note": 66,
      "start": 39.5276,
      "duration": 0.0141,
      "velocity": 101,
      "chip": "ym2612"
    },
    {
      "channel": 4,
      "note": 58,
      "start": 39.5379,
      "duration": 0.0161,
      "velocity": 101,
      "chip": "ym2612"
    },
    {
      "channel": 3,
      "note": 61,
      "start": 39.539,
      "duration": 0.0161,
      "velocity": 101,
      "chip": "ym2612"
    },
    {
      "channel": 2,
      "note": 59,
      "start": 39.5402,
      "duration": 0.0161,
      "velocity": 100,
      "chip": "ym2612"
    },
    {
      "channel": 1,
      "note": 66,
      "start": 39.5416,
      "duration": 0.0158,
      "velocity": 101,
      "chip": "ym2612"
    },
    {
      "channel": 4,
      "note": 58,
      "start": 39.554,
      "duration": 0.0161,
      "velocity": 101,
      "chip": "ym2612"
    },
    {
      "channel": 3,
      "note": 61,
      "start": 39.5551,
      "duration": 0.0161,
      "velocity": 101,
      "chip": "ym2612"
    },
    {
      "channel": 2,
      "note": 59,
      "start": 39.5563,
      "duration": 0.0161,
      "velocity": 100,
      "chip": "ym2612"
    },
    {
      "channel": 1,
      "note": 66,
      "start": 39.5574,
      "duration": 0.0161,
      "velocity": 101,
      "chip": "ym2612"
    },
    {
      "channel": 4,
      "note": 58,
      "start": 39.5701,
      "duration": 0.0161,
      "velocity": 101,
      "chip": "ym2612"
    },
    {
      "channel": 3,
      "note": 61,
      "start": 39.5712,
      "duration": 0.0161,
      "velocity": 101,
      "chip": "ym2612"
    },
    {
      "channel": 2,
      "note": 59,
      "start": 39.5724,
      "duration": 0.0161,
      "velocity": 100,
      "chip": "ym2612"
    },
    {
      "channel": 1,
      "note": 66,
      "start": 39.5735,
      "duration": 0.0161,
      "velocity": 101,
      "chip": "ym2612"
    },
    {
      "channel": 4,
      "note": 58,
      "start": 39.5861,
      "duration": 0.0161,
      "velocity": 101,
      "chip": "ym2612"
    },
    {
      "channel": 3,
      "note": 61,
      "start": 39.5873,
      "duration": 0.0161,
      "velocity": 101,
      "chip": "ym2612"
    },
    {
      "channel": 2,
      "note": 59,
      "start": 39.5884,
      "duration": 0.0161,
      "velocity": 100,
      "chip": "ym2612"
    },
    {
      "channel": 1,
      "note": 66,
      "start": 39.5896,
      "duration": 0.0161,
      "velocity": 101,
      "chip": "ym2612"
    },
    {
      "channel": 4,
      "note": 58,
      "start": 39.6022,
      "duration": 0.0161,
      "velocity": 101,
      "chip": "ym2612"
    },
    {
      "channel": 3,
      "note": 61,
      "start": 39.6034,
      "duration": 0.0161,
      "velocity": 101,
      "chip": "ym2612"
    },
    {
      "channel": 1,
      "note": 66,
      "start": 39.6057,
      "duration": 0.0161,
      "velocity": 101,
      "chip": "ym2612"
    },
    {
      "channel": 4,
      "note": 58,
      "start": 39.6183,
      "duration": 0.0161,
      "velocity": 101,
      "chip": "ym2612"
    },
    {
      "channel": 3,
      "note": 61,
      "start": 39.6195,
      "duration": 0.0161,
      "velocity": 101,
      "chip": "ym2612"
    },
    {
      "channel": 1,
      "note": 66,
      "start": 39.6218,
      "duration": 0.0161,
      "velocity": 101,
      "chip": "ym2612"
    },
    {
      "channel": 4,
      "note": 58,
      "start": 39.6344,
      "duration": 0.0161,
      "velocity": 101,
      "chip": "ym2612"
    },
    {
      "channel": 3,
      "note": 61,
      "start": 39.6356,
      "duration": 0.0162,
      "velocity": 101,
      "chip": "ym2612"
    },
    {
      "channel": 1,
      "note": 66,
      "start": 39.6379,
      "duration": 0.0161,
      "velocity": 101,
      "chip": "ym2612"
    },
    {
      "channel": 4,
      "note": 58,
      "start": 39.6506,
      "duration": 0.0161,
      "velocity": 101,
      "chip": "ym2612"
    },
    {
      "channel": 3,
      "note": 61,
      "start": 39.6517,
      "duration": 0.0161,
      "velocity": 101,
      "chip": "ym2612"
    },
    {
      "channel": 1,
      "note": 66,
      "start": 39.654,
      "duration": 0.0161,
      "velocity": 101,
      "chip": "ym2612"
    },
    {
      "channel": 4,
      "note": 58,
      "start": 39.6667,
      "duration": 0.0161,
      "velocity": 101,
      "chip": "ym2612"
    },
    {
      "channel": 3,
      "note": 61,
      "start": 39.6678,
      "duration": 0.0161,
      "velocity": 101,
      "chip": "ym2612"
    },
    {
      "channel": 1,
      "note": 66,
      "start": 39.6701,
      "duration": 0.0161,
      "velocity": 101,
      "chip": "ym2612"
    },
    {
      "channel": 4,
      "note": 58,
      "start": 39.6828,
      "duration": 0.0161,
      "velocity": 101,
      "chip": "ym2612"
    },
    {
      "channel": 3,
      "note": 61,
      "start": 39.6839,
      "duration": 0.0161,
      "velocity": 101,
      "chip": "ym2612"
    },
    {
      "channel": 1,
      "note": 66,
      "start": 39.6862,
      "duration": 0.0161,
      "velocity": 101,
      "chip": "ym2612"
    },
    {
      "channel": 4,
      "note": 58,
      "start": 39.6989,
      "duration": 0.0198,
      "velocity": 101,
      "chip": "ym2612"
    },
    {
      "channel": 3,
      "note": 61,
      "start": 39.7,
      "duration": 0.02,
      "velocity": 101,
      "chip": "ym2612"
    },
    {
      "channel": 1,
      "note": 66,
      "start": 39.7023,
      "duration": 0.0206,
      "velocity": 101,
      "chip": "ym2612"
    },
    {
      "channel": 0,
      "note": 36,
      "start": 39.7173,
      "duration": 0.0144,
      "velocity": 115,
      "chip": "ym2612"
    },
    {
      "channel": 4,
      "note": 63,
      "start": 39.7187,
      "duration": 0.0142,
      "velocity": 101,
      "chip": "ym2612"
    },
    {
      "channel": 3,
      "note": 66,
      "start": 39.7201,
      "duration": 0.014,
      "velocity": 101,
      "chip": "ym2612"
    },
    {
      "channel": 2,
      "note": 54,
      "start": 39.7216,
      "duration": 0.0136,
      "velocity": 100,
      "chip": "ym2612"
    },
    {
      "channel": 1,
      "note": 71,
      "start": 39.723,
      "duration": 0.0134,
      "velocity": 101,
      "chip": "ym2612"
    },
    {
      "channel": 0,
      "note": 36,
      "start": 39.7316,
      "duration": 0.016,
      "velocity": 115,
      "chip": "ym2612"
    },
    {
      "channel": 4,
      "note": 63,
      "start": 39.7329,
      "duration": 0.016,
      "velocity": 101,
      "chip": "ym2612"
    },
    {
      "channel": 3,
      "note": 66,
      "start": 39.7341,
      "duration": 0.0159,
      "velocity": 101,
      "chip": "ym2612"
    },
    {
      "channel": 2,
      "note": 54,
      "start": 39.7352,
      "duration": 0.0159,
      "velocity": 100,
      "chip": "ym2612"
    },
    {
      "channel": 1,
      "note": 71,
      "start": 39.7364,
      "duration": 0.0158,
      "velocity": 101,
      "chip": "ym2612"
    },
    {
      "channel": 0,
      "note": 37,
      "start": 39.7477,
      "duration": 0.0161,
      "velocity": 115,
      "chip": "ym2612"
    },
    {
      "channel": 4,
      "note": 63,
      "start": 39.7488,
      "duration": 0.0161,
      "velocity": 101,
      "chip": "ym2612"
    },
    {
      "channel": 3,
      "note": 66,
      "start": 39.75,
      "duration": 0.0161,
      "velocity": 101,
      "chip": "ym2612"
    },
    {
      "channel": 2,
      "note": 54,
      "start": 39.7511,
      "duration": 0.0161,
      "velocity": 100,
      "chip": "ym2612"
    },
    {
      "channel": 1,
      "note": 71,
      "start": 39.7522,
      "duration": 0.0161,
      "velocity": 101,
      "chip": "ym2612"
    },
    {
      "channel": 0,
      "note": 37,
      "start": 39.7638,
      "duration": 0.0161,
      "velocity": 115,
      "chip": "ym2612"
    },
    {
      "channel": 4,
      "note": 63,
      "start": 39.7649,
      "duration": 0.0161,
      "velocity": 101,
      "chip": "ym2612"
    },
    {
      "channel": 3,
      "note": 66,
      "start": 39.7661,
      "duration": 0.0161,
      "velocity": 101,
      "chip": "ym2612"
    },
    {
      "channel": 2,
      "note": 54,
      "start": 39.7672,
      "duration": 0.0161,
      "velocity": 100,
      "chip": "ym2612"
    },
    {
      "channel": 1,
      "note": 71,
      "start": 39.7683,
      "duration": 0.0161,
      "velocity": 101,
      "chip": "ym2612"
    },
    {
      "channel": 0,
      "note": 38,
      "start": 39.7799,
      "duration": 0.0161,
      "velocity": 115,
      "chip": "ym2612"
    },
    {
      "channel": 4,
      "note": 63,
      "start": 39.781,
      "duration": 0.0161,
      "velocity": 101,
      "chip": "ym2612"
    },
    {
      "channel": 3,
      "note": 66,
      "start": 39.7822,
      "duration": 0.0161,
      "velocity": 101,
      "chip": "ym2612"
    },
    {
      "channel": 2,
      "note": 54,
      "start": 39.7833,
      "duration": 0.0161,
      "velocity": 100,
      "chip": "ym2612"
    },
    {
      "channel": 1,
      "note": 71,
      "start": 39.7844,
      "duration": 0.0161,
      "velocity": 101,
      "chip": "ym2612"
    },
    {
      "channel": 0,
      "note": 38,
      "start": 39.7959,
      "duration": 0.0161,
      "velocity": 115,
      "chip": "ym2612"
    },
    {
      "channel": 4,
      "note": 63,
      "start": 39.7971,
      "duration": 0.0161,
      "velocity": 101,
      "chip": "ym2612"
    },
    {
      "channel": 3,
      "note": 66,
      "start": 39.7982,
      "duration": 0.0162,
      "velocity": 101,
      "chip": "ym2612"
    },
    {
      "channel": 2,
      "note": 54,
      "start": 39.7994,
      "duration": 0.0161,
      "velocity": 100,
      "chip": "ym2612"
    },
    {
      "channel": 1,
      "note": 71,
      "start": 39.8005,
      "duration": 0.0161,
      "velocity": 101,
      "chip": "ym2612"
    },
    {
      "channel": 0,
      "note": 39,
      "start": 39.812,
      "duration": 0.0171,
      "velocity": 115,
      "chip": "ym2612"
    },
    {
      "channel": 4,
      "note": 63,
      "start": 39.8132,
      "duration": 0.0171,
      "velocity": 101,
      "chip": "ym2612"
    },
    {
      "channel": 3,
      "note": 66,
      "start": 39.8144,
      "duration": 0.0171,
      "velocity": 101,
      "chip": "ym2612"
    },
    {
      "channel": 2,
      "note": 54,
      "start": 39.8155,
      "duration": 0.0171,
      "velocity": 100,
      "chip": "ym2612"
    },
    {
      "channel": 1,
      "note": 71,
      "start": 39.8166,
      "duration": 0.0171,
      "velocity": 101,
      "chip": "ym2612"
    },
    {
      "channel": 0,
      "note": 39,
      "start": 39.8292,
      "duration": 0.0167,
      "velocity": 115,
      "chip": "ym2612"
    },
    {
      "channel": 4,
      "note": 63,
      "start": 39.8303,
      "duration": 0.0167,
      "velocity": 101,
      "chip": "ym2612"
    },
    {
      "channel": 3,
      "note": 66,
      "start": 39.8315,
      "duration": 0.0167,
      "velocity": 101,
      "chip": "ym2612"
    },
    {
      "channel": 1,
      "note": 71,
      "start": 39.8337,
      "duration": 0.0167,
      "velocity": 101,
      "chip": "ym2612"
    },
    {
      "channel": 0,
      "note": 40,
      "start": 39.8458,
      "duration": 0.0163,
      "velocity": 115,
      "chip": "ym2612"
    },
    {
      "channel": 4,
      "note": 63,
      "start": 39.847,
      "duration": 0.0163,
      "velocity": 101,
      "chip": "ym2612"
    },
    {
      "channel": 3,
      "note": 66,
      "start": 39.8481,
      "duration": 0.0163,
      "velocity": 101,
      "chip": "ym2612"
    },
    {
      "channel": 1,
      "note": 71,
      "start": 39.8504,
      "duration": 0.0163,
      "velocity": 101,
      "chip": "ym2612"
    },
    {
      "channel": 0,
      "note": 40,
      "start": 39.8621,
      "duration": 0.0146,
      "velocity": 115,
      "chip": "ym2612"
    },
    {
      "channel": 4,
      "note": 63,
      "start": 39.8632,
      "duration": 0.0146,
      "velocity": 101,
      "chip": "ym2612"
    },
    {
      "channel": 3,
      "note": 66,
      "start": 39.8644,
      "duration": 0.0146,
      "velocity": 101,
      "chip": "ym2612"
    },
    {
      "channel": 1,
      "note": 71,
      "start": 39.8667,
      "duration": 0.0146,
      "velocity": 101,
      "chip": "ym2612"
    },
    {
      "channel": 0,
      "note": 40,
      "start": 39.8767,
      "duration": 0.0186,
      "velocity": 115,
      "chip": "ym2612"
    },
    {
      "channel": 4,
      "note": 63,
      "start": 39.8779,
      "duration": 0.0186,
      "velocity": 101,
      "chip": "ym2612"
    },
    {
      "channel": 3,
      "note": 66,
      "start": 39.879,
      "duration": 0.0186,
      "velocity": 101,
      "chip": "ym2612"
    },
    {
      "channel": 1,
      "note": 71,
      "start": 39.8813,
      "duration": 0.0186,
      "velocity": 101,
      "chip": "ym2612"
    },
    {
      "channel": 0,
      "note": 41,
      "start": 39.8953,
      "duration": 0.0161,
      "velocity": 115,
      "chip": "ym2612"
    },
    {
      "channel": 4,
      "note": 63,
      "start": 39.8965,
      "duration": 0.0161,
      "velocity": 101,
      "chip": "ym2612"
    },
    {
      "channel": 3,
      "note": 66,
      "start": 39.8976,
      "duration": 0.0161,
      "velocity": 101,
      "chip": "ym2612"
    },
    {
      "channel": 1,
      "note": 71,
      "start": 39.8999,
      "duration": 0.0161,
      "velocity": 101,
      "chip": "ym2612"
    },
    {
      "channel": 0,
      "note": 41,
      "start": 39.9114,
      "duration": 0.0158,
      "velocity": 115,
      "chip": "ym2612"
    },
    {
      "channel": 4,
      "note": 63,
      "start": 39.9126,
      "duration": 0.0158,
      "velocity": 101,
      "chip": "ym2612"
    },
    {
      "channel": 3,
      "note": 66,
      "start": 39.9137,
      "duration": 0.0158,
      "velocity": 101,
      "chip": "ym2612"
    },
    {
      "channel": 1,
      "note": 71,
      "start": 39.916,
      "duration": 0.0158,
      "velocity": 101,
      "chip": "ym2612"
    },
    {
      "channel": 0,
      "note": 42,
      "start": 39.9272,
      "duration": 0.0137,
      "velocity": 115,
      "chip": "ym2612"
    },
    {
      "channel": 4,
      "note": 63,
      "start": 39.9283,
      "duration": 0.0141,
      "velocity": 101,
      "chip": "ym2612"
    },
    {
      "channel": 3,
      "note": 66,
      "start": 39.9295,
      "duration": 0.0141,
      "velocity": 101,
      "chip": "ym2612"
    },
    {
      "channel": 1,
      "note": 71,
      "start": 39.9318,
      "duration": 0.0143,
      "velocity": 101,
      "chip": "ym2612"
    },
    {
      "channel": 0,
      "note": 42,
      "start": 39.9409,
      "duration": 0.0161,
      "velocity": 115,
      "chip": "ym2612"
    },
    {
      "channel": 4,
      "note": 63,
      "start": 39.9424,
      "duration": 0.0185,
      "velocity": 101,
      "chip": "ym2612"
    },
    {
      "channel": 3,
      "note": 66,
      "start": 39.9435,
      "duration": 0.0185,
      "velocity": 101,
      "chip": "ym2612"
    },
    {
      "channel": 2,
      "note": 54,
      "start": 39.9449,
      "duration": 0.0183,
      "velocity": 100,
      "chip": "ym2612"
    },
    {
      "channel": 1,
      "note": 71,
      "start": 39.9461,
      "duration": 0.0183,
      "velocity": 101,
      "chip": "ym2612"
    },
    {
      "channel": 0,
      "note": 43,
      "start": 39.957,
      "duration": 0.0161,
      "velocity": 115,
      "chip": "ym2612"
    },
    {
      "channel": 4,
      "note": 63,
      "start": 39.9609,
      "duration": 0.0134,
      "velocity": 101,
      "chip": "ym2612"
    },
    {
      "channel": 3,
      "note": 66,
      "start": 39.962,
      "duration": 0.0161,
      "velocity": 101,
      "chip": "ym2612"
    },
    {
      "channel": 2,
      "note": 54,
      "start": 39.9632,
      "duration": 0.0161,
      "velocity": 100,
      "chip": "ym2612"
    },
    {
      "channel": 1,
      "note": 71,
      "start": 39.9643,
      "duration": 0.0161,
      "velocity": 101,
      "chip": "ym2612"
    },
    {
      "channel": 0,
      "note": 43,
      "start": 39.9731,
      "duration": 0.0161,
      "velocity": 115,
      "chip": "ym2612"
    },
    {
      "channel": 4,
      "note": 63,
      "start": 39.9743,
      "duration": 0.0161,
      "velocity": 101,
      "chip": "ym2612"
    },
    {
      "channel": 3,
      "note": 66,
      "start": 39.9781,
      "duration": 0.0158,
      "velocity": 101,
      "chip": "ym2612"
    },
    {
      "channel": 2,
      "note": 54,
      "start": 39.9793,
      "duration": 0.0157,
      "velocity": 100,
      "chip": "ym2612"
    },
    {
      "channel": 1,
      "note": 71,
      "start": 39.9804,
      "duration": 0.0157,
      "velocity": 101,
      "chip": "ym2612"
    },
    {
      "channel": 0,
      "note": 44,
      "start": 39.9892,
      "duration": 0.0161,
      "velocity": 115,
      "chip": "ym2612"
    },
    {
      "channel": 4,
      "note": 63,
      "start": 39.9904,
      "duration": 0.0161,
      "velocity": 101,
      "chip": "ym2612"
    },
    {
      "channel": 3,
      "note": 66,
      "start": 39.9939,
      "duration": 0.0137,
      "velocity": 101,
      "chip": "ym2612"
    },
    {
      "channel": 2,
      "note": 54,
      "start": 39.995,
      "duration": 0.0141,
      "velocity": 100,
      "chip": "ym2612"
    },
    {
      "channel": 1,
      "note": 71,
      "start": 39.9961,
      "duration": 0.0141,
      "velocity": 101,
      "chip": "ym2612"
    },
    {
      "channel": 0,
      "note": 44,
      "start": 40.0053,
      "duration": 0.0161,
      "velocity": 115,
      "chip": "ym2612"
    },
    {
      "channel": 4,
      "note": 63,
      "start": 40.0064,
      "duration": 0.0161,
      "velocity": 101,
      "chip": "ym2612"
    },
    {
      "channel": 3,
      "note": 66,
      "start": 40.0076,
      "duration": 0.0161,
      "velocity": 101,
      "chip": "ym2612"
    },
    {
      "channel": 2,
      "note": 54,
      "start": 40.009,
      "duration": 0.0185,
      "velocity": 100,
      "chip": "ym2612"
    },
    {
      "channel": 1,
      "note": 71,
      "start": 40.0102,
      "duration": 0.0185,
      "velocity": 101,
      "chip": "ym2612"
    },
    {
      "channel": 0,
      "note": 44,
      "start": 40.0214,
      "duration": 0.0161,
      "velocity": 115,
      "chip": "ym2612"
    },
    {
      "channel": 4,
      "note": 63,
      "start": 40.0225,
      "duration": 0.0161,
      "velocity": 101,
      "chip": "ym2612"
    },
    {
      "channel": 3,
      "note": 66,
      "start": 40.0237,
      "duration": 0.0161,
      "velocity": 101,
      "chip": "ym2612"
    },
    {
      "channel": 2,
      "note": 54,
      "start": 40.0276,
      "duration": 0.0134,
      "velocity": 100,
      "chip": "ym2612"
    },
    {
      "channel": 1,
      "note": 71,
      "start": 40.0287,
      "duration": 0.0161,
      "velocity": 101,
      "chip": "ym2612"
    },
    {
      "channel": 0,
      "note": 45,
      "start": 40.0375,
      "duration": 0.0161,
      "velocity": 115,
      "chip": "ym2612"
    },
    {
      "channel": 4,
      "note": 63,
      "start": 40.0386,
      "duration": 0.0161,
      "velocity": 101,
      "chip": "ym2612"
    },
    {
      "channel": 3,
      "note": 66,
      "start": 40.0398,
      "duration": 0.0161,
      "velocity": 101,
      "chip": "ym2612"
    },
    {
      "channel": 2,
      "note": 54,
      "start": 40.0409,
      "duration": 0.0161,
      "velocity": 100,
      "chip": "ym2612"
    },
    {
      "channel": 1,
      "note": 71,
      "start": 40.0448,
      "duration": 0.0158,
      "velocity": 101,
      "chip": "ym2612"
    },
    {
      "channel": 0,
      "note": 45,
      "start": 40.0536,
      "duration": 0.0161,
      "velocity": 115,
      "chip": "ym2612"
    },
    {
      "channel": 4,
      "note": 63,
      "start": 40.0547,
      "duration": 0.0161,
      "velocity": 101,
      "chip": "ym2612"
    },
    {
      "channel": 3,
      "note": 66,
      "start": 40.0559,
      "duration": 0.0161,
      "velocity": 101,
      "chip": "ym2612"
    },
    {
      "channel": 1,
      "note": 71,
      "start": 40.0606,
      "duration": 0.0137,
      "velocity": 101,
      "chip": "ym2612"
    },
    {
      "channel": 0,
      "note": 46,
      "start": 40.0697,
      "duration": 0.0161,
      "velocity": 115,
      "chip": "ym2612"
    },
    {
      "channel": 4,
      "note": 63,
      "start": 40.0708,
      "duration": 0.0161,
      "velocity": 101,
      "chip": "ym2612"
    },
    {
      "channel": 3,
      "note": 66,
      "start": 40.072,
      "duration": 0.0161,
      "velocity": 101,
      "chip": "ym2612"
    },
    {
      "channel": 1,
      "note": 71,
      "start": 40.0743,
      "duration": 0.0161,
      "velocity": 101,
      "chip": "ym2612"
    },
    {
      "channel": 0,
      "note": 46,
      "start": 40.0858,
      "duration": 0.0161,
      "velocity": 115,
      "chip": "ym2612"
    },
    {
      "channel": 4,
      "note": 63,
      "start": 40.0869,
      "duration": 0.0162,
      "velocity": 101,
      "chip": "ym2612"
    },
    {
      "channel": 3,
      "note": 66,
      "start": 40.0881,
      "duration": 0.0161,
      "velocity": 101,
      "chip": "ym2612"
    },
    {
      "channel": 1,
      "note": 71,
      "start": 40.0904,
      "duration": 0.0161,
      "velocity": 101,
      "chip": "ym2612"
    },
    {
      "channel": 0,
      "note": 47,
      "start": 40.1019,
      "duration": 0.0161,
      "velocity": 115,
      "chip": "ym2612"
    },
    {
      "channel": 4,
      "note": 63,
      "start": 40.1031,
      "duration": 0.0161,
      "velocity": 101,
      "chip": "ym2612"
    },
    {
      "channel": 3,
      "note": 66,
      "start": 40.1042,
      "duration": 0.0161,
      "velocity": 101,
      "chip": "ym2612"
    },
    {
      "channel": 1,
      "note": 71,
      "start": 40.1064,
      "duration": 0.0161,
      "velocity": 101,
      "chip": "ym2612"
    },
    {
      "channel": 0,
      "note": 47,
      "start": 40.118,
      "duration": 0.0161,
      "velocity": 115,
      "chip": "ym2612"
    },
    {
      "channel": 4,
      "note": 63,
      "start": 40.1192,
      "duration": 0.0161,
      "velocity": 101,
      "chip": "ym2612"
    },
    {
      "channel": 3,
      "note": 66,
      "start": 40.1203,
      "duration": 0.0161,
      "velocity": 101,
      "chip": "ym2612"
    },
    {
      "channel": 1,
      "note": 71,
      "start": 40.1225,
      "duration": 0.0162,
      "velocity": 101,
      "chip": "ym2612"
    },
    {
      "channel": 0,
      "note": 47,
      "start": 40.1341,
      "duration": 0.0161,
      "velocity": 115,
      "chip": "ym2612"
    },
    {
      "channel": 4,
      "note": 63,
      "start": 40.1353,
      "duration": 0.0161,
      "velocity": 101,
      "chip": "ym2612"
    },
    {
      "channel": 3,
      "note": 66,
      "start": 40.1364,
      "duration": 0.0161,
      "velocity": 101,
      "chip": "ym2612"
    },
    {
      "channel": 1,
      "note": 71,
      "start": 40.1387,
      "duration": 0.0161,
      "velocity": 101,
      "chip": "ym2612"
    },
    {
      "channel": 0,
      "note": 48,
      "start": 40.1502,
      "duration": 0.0178,
      "velocity": 124,
      "chip": "ym2612"
    },
    {
      "channel": 4,
      "note": 63,
      "start": 40.1514,
      "duration": 0.0179,
      "velocity": 101,
      "chip": "ym2612"
    },
    {
      "channel": 3,
      "note": 66,
      "start": 40.1525,
      "duration": 0.0179,
      "velocity": 101,
      "chip": "ym2612"
    },
    {
      "channel": 1,
      "note": 71,
      "start": 40.1548,
      "duration": 0.0181,
      "velocity": 101,
      "chip": "ym2612"
    },
    {
      "channel": 0,
      "note": 84,
      "start": 40.1681,
      "duration": 0.0144,
      "velocity": 124,
      "chip": "ym2612"
    },
    {
      "channel": 4,
      "note": 63,
      "start": 40.1692,
      "duration": 0.0144,
      "velocity": 101,
      "chip": "ym2612"
    },
    {
      "channel": 3,
      "note": 66,
      "start": 40.1704,
      "duration": 0.0144,
      "velocity": 101,
      "chip": "ym2612"
    },
    {
      "channel": 2,
      "note": 66,
      "start": 40.1718,
      "duration": 0.0142,
      "velocity": 100,
      "chip": "ym2612"
    },
    {
      "channel": 1,
      "note": 71,
      "start": 40.1729,
      "duration": 0.0142,
      "velocity": 101,
      "chip": "ym2612"
    },
    {
      "channel": 0,
      "note": 82,
      "start": 40.1825,
      "duration": 0.016,
      "velocity": 124,
      "chip": "ym2612"
    },
    {
      "channel": 4,
      "note": 63,
      "start": 40.1836,
      "duration": 0.016,
      "velocity": 101,
      "chip": "ym2612"
    },
    {
      "channel": 3,
      "note": 66,
      "start": 40.1848,
      "duration": 0.016,
      "velocity": 101,
      "chip": "ym2612"
    },
    {
      "channel": 2,
      "note": 66,
      "start": 40.186,
      "duration": 0.016,
      "velocity": 100,
      "chip": "ym2612"
    },
    {
      "channel": 1,
      "note": 71,
      "start": 40.1871,
      "duration": 0.016,
      "velocity": 101,
      "chip": "ym2612"
    },
    {
      "channel": 0,
      "note": 80,
      "start": 40.1985,
      "duration": 0.0161,
      "velocity": 124,
      "chip": "ym2612"
    },
    {
      "channel": 4,
      "note": 63,
      "start": 40.1996,
      "duration": 0.0161,
      "velocity": 101,
      "chip": "ym2612"
    },
    {
      "channel": 3,
      "note": 66,
      "start": 40.2008,
      "duration": 0.0161,
      "velocity": 101,
      "chip": "ym2612"
    },
    {
      "channel": 2,
      "note": 66,
      "start": 40.2019,
      "duration": 0.0161,
      "velocity": 100,
      "chip": "ym2612"
    },
    {
      "channel": 1,
      "note": 71,
      "start": 40.2031,
      "duration": 0.0161,
      "velocity": 101,
      "chip": "ym2612"
    },
    {
      "channel": 0,
      "note": 77,
      "start": 40.2146,
      "duration": 0.0161,
      "velocity": 124,
      "chip": "ym2612"
    },
    {
      "channel": 4,
      "note": 63,
      "start": 40.2157,
      "duration": 0.0161,
      "velocity": 101,
      "chip": "ym2612"
    },
    {
      "channel": 3,
      "note": 66,
      "start": 40.2169,
      "duration": 0.0161,
      "velocity": 101,
      "chip": "ym2612"
    },
    {
      "channel": 2,
      "note": 66,
      "start": 40.218,
      "duration": 0.0161,
      "velocity": 100,
      "chip": "ym2612"
    },
    {
      "channel": 1,
      "note": 71,
      "start": 40.2192,
      "duration": 0.0161,
      "velocity": 101,
      "chip": "ym2612"
    },
    {
      "channel": 0,
      "note": 75,
      "start": 40.2307,
      "duration": 0.0161,
      "velocity": 124,
      "chip": "ym2612"
    },
    {
      "channel": 4,
      "note": 63,
      "start": 40.2318,
      "duration": 0.0161,
      "velocity": 101,
      "chip": "ym2612"
    },
    {
      "channel": 3,
      "note": 66,
      "start": 40.233,
      "duration": 0.0162,
      "velocity": 101,
      "chip": "ym2612"
    },
    {
      "channel": 2,
      "note": 66,
      "start": 40.2341,
      "duration": 0.0161,
      "velocity": 100,
      "chip": "ym2612"
    },
    {
      "channel": 1,
      "note": 71,
      "start": 40.2353,
      "duration": 0.0161,
      "velocity": 101,
      "chip": "ym2612"
    },
    {
      "channel": 0,
      "note": 72,
      "start": 40.2468,
      "duration": 0.0161,
      "velocity": 124,
      "chip": "ym2612"
    },
    {
      "channel": 4,
      "note": 63,
      "start": 40.248,
      "duration": 0.0161,
      "velocity": 101,
      "chip": "ym2612"
    },
    {
      "channel": 3,
      "note": 66,
      "start": 40.2491,
      "duration": 0.0161,
      "velocity": 101,
      "chip": "ym2612"
    },
    {
      "channel": 2,
      "note": 66,
      "start": 40.2502,
      "duration": 0.0161,
      "velocity": 100,
      "chip": "ym2612"
    },
    {
      "channel": 1,
      "note": 71,
      "start": 40.2514,
      "duration": 0.0161,
      "velocity": 101,
      "chip": "ym2612"
    },
    {
      "channel": 0,
      "note": 70,
      "start": 40.2629,
      "duration": 0.0161,
      "velocity": 124,
      "chip": "ym2612"
    },
    {
      "channel": 4,
      "note": 63,
      "start": 40.2641,
      "duration": 0.0161,
      "velocity": 101,
      "chip": "ym2612"
    },
    {
      "channel": 3,
      "note": 66,
      "start": 40.2652,
      "duration": 0.0161,
      "velocity": 101,
      "chip": "ym2612"
    },
    {
      "channel": 2,
      "note": 66,
      "start": 40.2663,
      "duration": 0.0162,
      "velocity": 100,
      "chip": "ym2612"
    },
    {
      "channel": 1,
      "note": 71,
      "start": 40.2675,
      "duration": 0.0161,
      "velocity": 101,
      "chip": "ym2612"
    },
    {
      "channel": 0,
      "note": 68,
      "start": 40.279,
      "duration": 0.0168,
      "velocity": 124,
      "chip": "ym2612"
    },
    {
      "channel": 4,
      "note": 63,
      "start": 40.2802,
      "duration": 0.0168,
      "velocity": 101,
      "chip": "ym2612"
    },
    {
      "channel": 3,
      "note": 66,
      "start": 40.2813,
      "duration": 0.0168,
      "velocity": 101,
      "chip": "ym2612"
    },
    {
      "channel": 1,
      "note": 71,
      "start": 40.2836,
      "duration": 0.0168,
      "velocity": 101,
      "chip": "ym2612"
    },
    {
      "channel": 0,
      "note": 65,
      "start": 40.2958,
      "duration": 0.0167,
      "velocity": 124,
      "chip": "ym2612"
    },
    {
      "channel": 4,
      "note": 63,
      "start": 40.297,
      "duration": 0.0167,
      "velocity": 101,
      "chip": "ym2612"
    },
    {
      "channel": 3,
      "note": 66,
      "start": 40.2981,
      "duration": 0.0167,
      "velocity": 101,
      "chip": "ym2612"
    },
    {
      "channel": 1,
      "note": 71,
      "start": 40.3004,
      "duration": 0.0167,
      "velocity": 101,
      "chip": "ym2612"
    },
    {
      "channel": 0,
      "note": 63,
      "start": 40.3125,
      "duration": 0.0155,
      "velocity": 1,
      "chip": "ym2612"
    },
    {
      "channel": 4,
      "note": 63,
      "start": 40.3136,
      "duration": 0.0155,
      "velocity": 101,
      "chip": "ym2612"
    },
    {
      "channel": 3,
      "note": 66,
      "start": 40.3148,
      "duration": 0.0155,
      "velocity": 101,
      "chip": "ym2612"
    },
    {
      "channel": 1,
      "note": 71,
      "start": 40.3171,
      "duration": 0.0155,
      "velocity": 101,
      "chip": "ym2612"
    },
    {
      "channel": 4,
      "note": 63,
      "start": 40.3292,
      "duration": 0.0138,
      "velocity": 101,
      "chip": "ym2612"
    },
    {
      "channel": 3,
      "note": 66,
      "start": 40.3303,
      "duration": 0.0138,
      "velocity": 101,
      "chip": "ym2612"
    },
    {
      "channel": 1,
      "note": 71,
      "start": 40.3325,
      "duration": 0.0139,
      "velocity": 101,
      "chip": "ym2612"
    },
    {
      "channel": 4,
      "note": 63,
      "start": 40.343,
      "duration": 0.0188,
      "velocity": 101,
      "chip": "ym2612"
    },
    {
      "channel": 3,
      "note": 66,
      "start": 40.3441,
      "duration": 0.0188,
      "velocity": 101,
      "chip": "ym2612"
    },
    {
      "channel": 1,
      "note": 71,
      "start": 40.3464,
      "duration": 0.0188,
      "velocity": 101,
      "chip": "ym2612"
    },
    {
      "channel": 4,
      "note": 63,
      "start": 40.3618,
      "duration": 0.0161,
      "velocity": 101,
      "chip": "ym2612"
    },
    {
      "channel": 3,
      "note": 66,
      "start": 40.3629,
      "duration": 0.0161,
      "velocity": 101,
      "chip": "ym2612"
    },
    {
      "channel": 1,
      "note": 71,
      "start": 40.3652,
      "duration": 0.0161,
      "velocity": 101,
      "chip": "ym2612"
    },
    {
      "channel": 4,
      "note": 63,
      "start": 40.3779,
      "duration": 0.0194,
      "velocity": 101,
      "chip": "ym2612"
    },
    {
      "channel": 3,
      "note": 66,
      "start": 40.379,
      "duration": 0.0197,
      "velocity": 101,
      "chip": "ym2612"
    },
    {
      "channel": 1,
      "note": 71,
      "start": 40.3812,
      "duration": 0.0202,
      "velocity": 101,
      "chip": "ym2612"
    },
    {
      "channel": 0,
      "note": 36,
      "start": 40.3959,
      "duration": 0.0123,
      "velocity": 115,
      "chip": "ym2612"
    },
    {
      "channel": 4,
      "note": 63,
      "start": 40.3973,
      "duration": 0.0121,
      "velocity": 101,
      "chip": "ym2612"
    },
    {
      "channel": 3,
      "note": 66,
      "start": 40.3987,
      "duration": 0.0119,
      "velocity": 101,
      "chip": "ym2612"
    },
    {
      "channel": 2,
      "note": 54,
      "start": 40.4001,
      "duration": 0.0117,
      "velocity": 100,
      "chip": "ym2612"
    },
    {
      "channel": 1,
      "note": 71,
      "start": 40.4015,
      "duration": 0.0115,
      "velocity": 101,
      "chip": "ym2612"
    },
    {
      "channel": 0,
      "note": 36,
      "start": 40.4082,
      "duration": 0.0157,
      "velocity": 115,
      "chip": "ym2612"
    },
    {
      "channel": 4,
      "note": 63,
      "start": 40.4094,
      "duration": 0.0185,
      "velocity": 101,
      "chip": "ym2612"
    },
    {
      "channel": 3,
      "note": 66,
      "start": 40.4106,
      "duration": 0.0184,
      "velocity": 101,
      "chip": "ym2612"
    },
    {
      "channel": 2,
      "note": 54,
      "start": 40.4118,
      "duration": 0.0183,
      "velocity": 100,
      "chip": "ym2612"
    },
    {
      "channel": 1,
      "note": 71,
      "start": 40.413,
      "duration": 0.0183,
      "velocity": 101,
      "chip": "ym2612"
    },
    {
      "channel": 0,
      "note": 37,
      "start": 40.4239,
      "duration": 0.0162,
      "velocity": 115,
      "chip": "ym2612"
    },
    {
      "channel": 4,
      "note": 63,
      "start": 40.4278,
      "duration": 0.0161,
      "velocity": 101,
      "chip": "ym2612"
    },
    {
      "channel": 3,
      "note": 66,
      "start": 40.429,
      "duration": 0.0161,
      "velocity": 101,
      "chip": "ym2612"
    },
    {
      "channel": 2,
      "note": 54,
      "start": 40.4301,
      "duration": 0.0161,
      "velocity": 100,
      "chip": "ym2612"
    },
    {
      "channel": 1,
      "note": 71,
      "start": 40.4312,
      "duration": 0.0161,
      "velocity": 101,
      "chip": "ym2612"
    },
    {
      "channel": 0,
      "note": 37,
      "start": 40.44,
      "duration": 0.0161,
      "velocity": 115,
      "chip": "ym2612"
    },
    {
      "channel": 4,
      "note": 63,
      "start": 40.4439,
      "duration": 0.0134,
      "velocity": 101,
      "chip": "ym2612"
    },
    {
      "channel": 3,
      "note": 66,
      "start": 40.4451,
      "duration": 0.0157,
      "velocity": 101,
      "chip": "ym2612"
    },
    {
      "channel": 2,
      "note": 54,
      "start": 40.4462,
      "duration": 0.0157,
      "velocity": 100,
      "chip": "ym2612"
    },
    {
      "channel": 1,
      "note": 71,
      "start": 40.4473,
      "duration": 0.0157,
      "velocity": 101,
      "chip": "ym2612"
    },
    {
      "channel": 0,
      "note": 38,
      "start": 40.4561,
      "duration": 0.0161,
      "velocity": 115,
      "chip": "ym2612"
    },
    {
      "channel": 4,
      "note": 63,
      "start": 40.4573,
      "duration": 0.0161,
      "velocity": 101,
      "chip": "ym2612"
    },
    {
      "channel": 3,
      "note": 66,
      "start": 40.4608,
      "duration": 0.0141,
      "velocity": 101,
      "chip": "ym2612"
    },
    {
      "channel": 2,
      "note": 54,
      "start": 40.4619,
      "duration": 0.0141,
      "velocity": 100,
      "chip": "ym2612"
    },
    {
      "channel": 1,
      "note": 71,
      "start": 40.4631,
      "duration": 0.0141,
      "velocity": 101,
      "chip": "ym2612"
    },
    {
      "channel": 0,
      "note": 38,
      "start": 40.4722,
      "duration": 0.0161,
      "velocity": 115,
      "chip": "ym2612"
    },
    {
      "channel": 4,
      "note": 63,
      "start": 40.4734,
      "duration": 0.0161,
      "velocity": 101,
      "chip": "ym2612"
    },
    {
      "channel": 3,
      "note": 66,
      "start": 40.4748,
      "duration": 0.0158,
      "velocity": 101,
      "chip": "ym2612"
    },
    {
      "channel": 2,
      "note": 54,
      "start": 40.476,
      "duration": 0.0185,
      "velocity": 100,
      "chip": "ym2612"
    },
    {
      "channel": 1,
      "note": 71,
      "start": 40.4771,
      "duration": 0.0185,
      "velocity": 101,
      "chip": "ym2612"
    },
    {
      "channel": 0,
      "note": 39,
      "start": 40.4883,
      "duration": 0.0161,
      "velocity": 115,
      "chip": "ym2612"
    },
    {
      "channel": 4,
      "note": 63,
      "start": 40.4895,
      "duration": 0.0161,
      "velocity": 101,
      "chip": "ym2612"
    },
    {
      "channel": 3,
      "note": 66,
      "start": 40.4906,
      "duration": 0.0161,
      "velocity": 101,
      "chip": "ym2612"
    },
    {
      "channel": 2,
      "note": 54,
      "start": 40.4945,
      "duration": 0.0161,
      "velocity": 100,
      "chip": "ym2612"
    },
    {
      "channel": 1,
      "note": 71,
      "start": 40.4956,
      "duration": 0.0162,
      "velocity": 101,
      "chip": "ym2612"
    },
    {
      "channel": 0,
      "note": 39,
      "start": 40.5044,
      "duration": 0.0161,
      "velocity": 115,
      "chip": "ym2612"
    },
    {
      "channel": 4,
      "note": 63,
      "start": 40.5056,
      "duration": 0.0161,
      "velocity": 101,
      "chip": "ym2612"
    },
    {
      "channel": 3,
      "note": 66,
      "start": 40.5067,
      "duration": 0.0161,
      "velocity": 101,
      "chip": "ym2612"
    },
    {
      "channel": 1,
      "note": 71,
      "start": 40.5118,
      "duration": 0.0156,
      "velocity": 101,
      "chip": "ym2612"
    },
    {
      "channel": 0,
      "note": 40,
      "start": 40.5205,
      "duration": 0.0161,
      "velocity": 115,
      "chip": "ym2612"
    },
    {
      "channel": 4,
      "note": 63,
      "start": 40.5217,
      "duration": 0.0161,
      "velocity": 101,
      "chip": "ym2612"
    },
    {
      "channel": 3,
      "note": 66,
      "start": 40.5228,
      "duration": 0.0161,
      "velocity": 101,
      "chip": "ym2612"
    },
    {
      "channel": 1,
      "note": 71,
      "start": 40.5274,
      "duration": 0.0141,
      "velocity": 101,
      "chip": "ym2612"
    },
    {
      "channel": 0,
      "note": 40,
      "start": 40.5366,
      "duration": 0.0161,
      "velocity": 115,
      "chip": "ym2612"
    },
    {
      "channel": 4,
      "note": 63,
      "start": 40.5378,
      "duration": 0.0161,
      "velocity": 101,
      "chip": "ym2612"
    },
    {
      "channel": 3,
      "note": 66,
      "start": 40.5389,
      "duration": 0.0162,
      "velocity": 101,
      "chip": "ym2612"
    },
    {
      "channel": 1,
      "note": 71,
      "start": 40.5415,
      "duration": 0.0158,
      "velocity": 101,
      "chip": "ym2612"
    },
    {
      "channel": 0,
      "note": 40,
      "start": 40.5527,
      "duration": 0.0161,
      "velocity": 115,
      "chip": "ym2612"
    },
    {
      "channel": 4,
      "note": 63,
      "start": 40.5539,
      "duration": 0.0161,
      "velocity": 101,
      "chip": "ym2612"
    },
    {
      "channel": 3,
      "note": 66,
      "start": 40.5551,
      "duration": 0.0161,
      "velocity": 101,
      "chip": "ym2612"
    },
    {
      "channel": 1,
      "note": 71,
      "start": 40.5573,
      "duration": 0.0161,
      "velocity": 101,
      "chip": "ym2612"
    },
    {
      "channel": 0,
      "note": 41,
      "start": 40.5688,
      "duration": 0.0161,
      "velocity": 115,
      "chip": "ym2612"
    },
    {
      "channel": 4,
      "note": 63,
      "start": 40.57,
      "duration": 0.0161,
      "velocity": 101,
      "chip": "ym2612"
    },
    {
      "channel": 3,
      "note": 66,
      "start": 40.5711,
      "duration": 0.0161,
      "velocity": 101,
      "chip": "ym2612"
    },
    {
      "channel": 1,
      "note": 71,
      "start": 40.5734,
      "duration": 0.0161,
      "velocity": 101,
      "chip": "ym2612"
    },
    {
      "channel": 0,
      "note": 41,
      "start": 40.5849,
      "duration": 0.0161,
      "velocity": 115,
      "chip": "ym2612"
    },
    {
      "channel": 4,
      "note": 63,
      "start": 40.5861,
      "duration": 0.0161,
      "velocity": 101,
      "chip": "ym2612"
    },
    {
      "channel": 3,
      "note": 66,
      "start": 40.5872,
      "duration": 0.0161,
      "velocity": 101,
      "chip": "ym2612"
    },
    {
      "channel": 1,
      "note": 71,
      "start": 40.5895,
      "duration": 0.0161,
      "velocity": 101,
      "chip": "ym2612"
    },
    {
      "channel": 0,
      "note": 42,
      "start": 40.601,
      "duration": 0.0161,
      "velocity": 115,
      "chip": "ym2612"
    },
    {
      "channel": 4,
      "note": 63,
      "start": 40.6022,
      "duration": 0.0161,
      "velocity": 101,
      "chip": "ym2612"
    },
    {
      "channel": 3,
      "note": 66,
      "start": 40.6033,
      "duration": 0.0161,
      "velocity": 101,
      "chip": "ym2612"
    },
    {
      "channel": 1,
      "note": 71,
      "start": 40.6056,
      "duration": 0.0163,
      "velocity": 101,
      "chip": "ym2612"
    },
    {
      "channel": 0,
      "note": 42,
      "start": 40.6171,
      "duration": 0.0161,
      "velocity": 115,
      "chip": "ym2612"
    },
    {
      "channel": 4,
      "note": 63,
      "start": 40.6183,
      "duration": 0.0161,
      "velocity": 101,
      "chip": "ym2612"
    },
    {
      "channel": 3,
      "note": 66,
      "start": 40.6194,
      "duration": 0.0161,
      "velocity": 101,
      "chip": "ym2612"
    },
    {
      "channel": 2,
      "note": 59,
      "start": 40.6208,
      "duration": 0.0159,
      "velocity": 100,
      "chip": "ym2612"
    },
    {
      "channel": 1,
      "note": 71,
      "start": 40.622,
      "duration": 0.0159,
      "velocity": 101,
      "chip": "ym2612"
    },
    {
      "channel": 0,
      "note": 43,
      "start": 40.6332,
      "duration": 0.0161,
      "velocity": 115,
      "chip": "ym2612"
    },
    {
      "channel": 4,
      "note": 63,
      "start": 40.6344,
      "duration": 0.0161,
      "velocity": 101,
      "chip": "ym2612"
    },
    {
      "channel": 3,
      "note": 66,
      "start": 40.6355,
      "duration": 0.0161,
      "velocity": 101,
      "chip": "ym2612"
    },
    {
      "channel": 2,
      "note": 59,
      "start": 40.6367,
      "duration": 0.016,
      "velocity": 100,
      "chip": "ym2612"
    },
    {
      "channel": 1,
      "note": 71,
      "start": 40.6379,
      "duration": 0.016,
      "velocity": 101,
      "chip": "ym2612"
    },
    {
      "channel": 0,
      "note": 43,
      "start": 40.6493,
      "duration": 0.0161,
      "velocity": 115,
      "chip": "ym2612"
    },
    {
      "channel": 4,
      "note": 63,
      "start": 40.6505,
      "duration": 0.0161,
      "velocity": 101,
      "chip": "ym2612"
    },
    {
      "channel": 3,
      "note": 66,
      "start": 40.6516,
      "duration": 0.0161,
      "velocity": 101,
      "chip": "ym2612"
    },
    {
      "channel": 2,
      "note": 59,
      "start": 40.6528,
      "duration": 0.0161,
      "velocity": 100,
      "chip": "ym2612"
    },
    {
      "channel": 1,
      "note": 71,
      "start": 40.6539,
      "duration": 0.0161,
      "velocity": 101,
      "chip": "ym2612"
    },
    {
      "channel": 0,
      "note": 44,
      "start": 40.6654,
      "duration": 0.0161,
      "velocity": 115,
      "chip": "ym2612"
    },
    {
      "channel": 4,
      "note": 63,
      "start": 40.6666,
      "duration": 0.0161,
      "velocity": 101,
      "chip": "ym2612"
    },
    {
      "channel": 3,
      "note": 66,
      "start": 40.6677,
      "duration": 0.0161,
      "velocity": 101,
      "chip": "ym2612"
    },
    {
      "channel": 2,
      "note": 59,
      "start": 40.6688,
      "duration": 0.0161,
      "velocity": 100,
      "chip": "ym2612"
    },
    {
      "channel": 1,
      "note": 71,
      "start": 40.67,
      "duration": 0.0161,
      "velocity": 101,
      "chip": "ym2612"
    },
    {
      "channel": 0,
      "note": 44,
      "start": 40.6815,
      "duration": 0.0161,
      "velocity": 115,
      "chip": "ym2612"
    },
    {
      "channel": 4,
      "note": 63,
      "start": 40.6827,
      "duration": 0.0161,
      "velocity": 101,
      "chip": "ym2612"
    },
    {
      "channel": 3,
      "note": 66,
      "start": 40.6838,
      "duration": 0.0161,
      "velocity": 101,
      "chip": "ym2612"
    },
    {
      "channel": 2,
      "note": 59,
      "start": 40.6849,
      "duration": 0.0161,
      "velocity": 100,
      "chip": "ym2612"
    },
    {
      "channel": 1,
      "note": 71,
      "start": 40.6861,
      "duration": 0.0161,
      "velocity": 101,
      "chip": "ym2612"
    },
    {
      "channel": 0,
      "note": 44,
      "start": 40.6976,
      "duration": 0.0161,
      "velocity": 115,
      "chip": "ym2612"
    },
    {
      "channel": 4,
      "note": 63,
      "start": 40.6988,
      "duration": 0.0161,
      "velocity": 101,
      "chip": "ym2612"
    },
    {
      "channel": 3,
      "note": 66,
      "start": 40.6999,
      "duration": 0.0162,
      "velocity": 101,
      "chip": "ym2612"
    },
    {
      "channel": 2,
      "note": 59,
      "start": 40.701,
      "duration": 0.0161,
      "velocity": 100,
      "chip": "ym2612"
    },
    {
      "channel": 1,
      "note": 71,
      "start": 40.7022,
      "duration": 0.0161,
      "velocity": 101,
      "chip": "ym2612"
    },
    {
      "channel": 0,
      "note": 45,
      "start": 40.7137,
      "duration": 0.0162,
      "velocity": 115,
      "chip": "ym2612"
    },
    {
      "channel": 4,
      "note": 63,
      "start": 40.7149,
      "duration": 0.0161,
      "velocity": 101,
      "chip": "ym2612"
    },
    {
      "channel": 3,
      "note": 66,
      "start": 40.7161,
      "duration": 0.0161,
      "velocity": 101,
      "chip": "ym2612"
    },
    {
      "channel": 2,
      "note": 59,
      "start": 40.7171,
      "duration": 0.0161,
      "velocity": 100,
      "chip": "ym2612"
    },
    {
      "channel": 1,
      "note": 71,
      "start": 40.7183,
      "duration": 0.0162,
      "velocity": 101,
      "chip": "ym2612"
    },
    {
      "channel": 0,
      "note": 45,
      "start": 40.7299,
      "duration": 0.0161,
      "velocity": 115,
      "chip": "ym2612"
    },
    {
      "channel": 4,
      "note": 63,
      "start": 40.731,
      "duration": 0.0161,
      "velocity": 101,
      "chip": "ym2612"
    },
    {
      "channel": 3,
      "note": 66,
      "start": 40.7322,
      "duration": 0.0161,
      "velocity": 101,
      "chip": "ym2612"
    },
    {
      "channel": 1,
      "note": 71,
      "start": 40.7344,
      "duration": 0.0161,
      "velocity": 101,
      "chip": "ym2612"
    },
    {
      "channel": 0,
      "note": 46,
      "start": 40.7459,
      "duration": 0.0166,
      "velocity": 115,
      "chip": "ym2612"
    },
    {
      "channel": 4,
      "note": 63,
      "start": 40.7471,
      "duration": 0.0165,
      "velocity": 101,
      "chip": "ym2612"
    },
    {
      "channel": 3,
      "note": 66,
      "start": 40.7482,
      "duration": 0.0166,
      "velocity": 101,
      "chip": "ym2612"
    },
    {
      "channel": 1,
      "note": 71,
      "start": 40.7505,
      "duration": 0.0166,
      "velocity": 101,
      "chip": "ym2612"
    },
    {
      "channel": 0,
      "note": 46,
      "start": 40.7625,
      "duration": 0.0167,
      "velocity": 115,
      "chip": "ym2612"
    },
    {
      "channel": 4,
      "note": 63,
      "start": 40.7636,
      "duration": 0.0167,
      "velocity": 101,
      "chip": "ym2612"
    },
    {
      "channel": 3,
      "note": 66,
      "start": 40.7648,
      "duration": 0.0167,
      "velocity": 101,
      "chip": "ym2612"
    },
    {
      "channel": 1,
      "note": 71,
      "start": 40.7671,
      "duration": 0.0167,
      "velocity": 101,
      "chip": "ym2612"
    },
    {
      "channel": 0,
      "note": 47,
      "start": 40.7792,
      "duration": 0.0163,
      "velocity": 115,
      "chip": "ym2612"
    },
    {
      "channel": 4,
      "note": 63,
      "start": 40.7803,
      "duration": 0.0163,
      "velocity": 101,
      "chip": "ym2612"
    },
    {
      "channel": 3,
      "note": 66,
      "start": 40.7815,
      "duration": 0.0163,
      "velocity": 101,
      "chip": "ym2612"
    },
    {
      "channel": 1,
      "note": 71,
      "start": 40.7837,
      "duration": 0.0163,
      "velocity": 101,
      "chip": "ym2612"
    },
    {
      "channel": 0,
      "note": 47,
      "start": 40.7954,
      "duration": 0.0149,
      "velocity": 115,
      "chip": "ym2612"
    },
    {
      "channel": 4,
      "note": 63,
      "start": 40.7966,
      "duration": 0.0149,
      "velocity": 101,
      "chip": "ym2612"
    },
    {
      "channel": 3,
      "note": 66,
      "start": 40.7977,
      "duration": 0.0149,
      "velocity": 101,
      "chip": "ym2612"
    },
    {
      "channel": 1,
      "note": 71,
      "start": 40.8,
      "duration": 0.0149,
      "velocity": 101,
      "chip": "ym2612"
    },
    {
      "channel": 0,
      "note": 47,
      "start": 40.8103,
      "duration": 0.0188,
      "velocity": 115,
      "chip": "ym2612"
    },
    {
      "channel": 4,
      "note": 63,
      "start": 40.8115,
      "duration": 0.0188,
      "velocity": 101,
      "chip": "ym2612"
    },
    {
      "channel": 3,
      "note": 66,
      "start": 40.8126,
      "duration": 0.0188,
      "velocity": 101,
      "chip": "ym2612"
    },
    {
      "channel": 1,
      "note": 71,
      "start": 40.8149,
      "duration": 0.0188,
      "velocity": 101,
      "chip": "ym2612"
    },
    {
      "channel": 0,
      "note": 48,
      "start": 40.8292,
      "duration": 0.0179,
      "velocity": 115,
      "chip": "ym2612"
    },
    {
      "channel": 4,
      "note": 63,
      "start": 40.8303,
      "duration": 0.0179,
      "velocity": 101,
      "chip": "ym2612"
    },
    {
      "channel": 3,
      "note": 66,
      "start": 40.8315,
      "duration": 0.0179,
      "velocity": 101,
      "chip": "ym2612"
    },
    {
      "channel": 1,
      "note": 71,
      "start": 40.8337,
      "duration": 0.0182,
      "velocity": 101,
      "chip": "ym2612"
    },
    {
      "channel": 0,
      "note": 36,
      "start": 40.8471,
      "duration": 0.014,
      "velocity": 115,
      "chip": "ym2612"
    },
    {
      "channel": 4,
      "note": 63,
      "start": 40.8482,
      "duration": 0.014,
      "velocity": 101,
      "chip": "ym2612"
    },
    {
      "channel": 3,
      "note": 66,
      "start": 40.8494,
      "duration": 0.014,
      "velocity": 101,
      "chip": "ym2612"
    },
    {
      "channel": 2,
      "note": 59,
      "start": 40.8508,
      "duration": 0.0138,
      "velocity": 100,
      "chip": "ym2612"
    },
    {
      "channel": 1,
      "note": 71,
      "start": 40.8519,
      "duration": 0.0138,
      "velocity": 101,
      "chip": "ym2612"
    },
    {
      "channel": 0,
      "note": 36,
      "start": 40.8611,
      "duration": 0.014,
      "velocity": 115,
      "chip": "ym2612"
    },
    {
      "channel": 4,
      "note": 63,
      "start": 40.8622,
      "duration": 0.014,
      "velocity": 101,
      "chip": "ym2612"
    },
    {
      "channel": 3,
      "note": 66,
      "start": 40.8634,
      "duration": 0.014,
      "velocity": 101,
      "chip": "ym2612"
    },
    {
      "channel": 2,
      "note": 59,
      "start": 40.8646,
      "duration": 0.0139,
      "velocity": 100,
      "chip": "ym2612"
    },
    {
      "channel": 1,
      "note": 71,
      "start": 40.8657,
      "duration": 0.0139,
      "velocity": 101,
      "chip": "ym2612"
    },
    {
      "channel": 0,
      "note": 37,
      "start": 40.8751,
      "duration": 0.0158,
      "velocity": 115,
      "chip": "ym2612"
    },
    {
      "channel": 4,
      "note": 63,
      "start": 40.8762,
      "duration": 0.0185,
      "velocity": 101,
      "chip": "ym2612"
    },
    {
      "channel": 3,
      "note": 66,
      "start": 40.8774,
      "duration": 0.0185,
      "velocity": 101,
      "chip": "ym2612"
    },
    {
      "channel": 2,
      "note": 59,
      "start": 40.8785,
      "duration": 0.0185,
      "velocity": 100,
      "chip": "ym2612"
    },
    {
      "channel": 1,
      "note": 71,
      "start": 40.8797,
      "duration": 0.0185,
      "velocity": 101,
      "chip": "ym2612"
    },
    {
      "channel": 0,
      "note": 37,
      "start": 40.8909,
      "duration": 0.0161,
      "velocity": 115,
      "chip": "ym2612"
    },
    {
      "channel": 4,
      "note": 63,
      "start": 40.8947,
      "duration": 0.0161,
      "velocity": 101,
      "chip": "ym2612"
    },
    {
      "channel": 3,
      "note": 66,
      "start": 40.8959,
      "duration": 0.0161,
      "velocity": 101,
      "chip": "ym2612"
    },
    {
      "channel": 2,
      "note": 59,
      "start": 40.897,
      "duration": 0.0161,
      "velocity": 100,
      "chip": "ym2612"
    },
    {
      "channel": 1,
      "note": 71,
      "start": 40.8982,
      "duration": 0.0161,
      "velocity": 101,
      "chip": "ym2612"
    },
    {
      "channel": 0,
      "note": 38,
      "start": 40.907,
      "duration": 0.0161,
      "velocity": 115,
      "chip": "ym2612"
    },
    {
      "channel": 4,
      "note": 63,
      "start": 40.9108,
      "duration": 0.0134,
      "velocity": 101,
      "chip": "ym2612"
    },
    {
      "channel": 3,
      "note": 66,
      "start": 40.912,
      "duration": 0.0158,
      "velocity": 101,
      "chip": "ym2612"
    },
    {
      "channel": 2,
      "note": 59,
      "start": 40.9131,
      "duration": 0.0158,
      "velocity": 100,
      "chip": "ym2612"
    },
    {
      "channel": 1,
      "note": 71,
      "start": 40.9143,
      "duration": 0.0158,
      "velocity": 101,
      "chip": "ym2612"
    },
    {
      "channel": 0,
      "note": 38,
      "start": 40.9231,
      "duration": 0.0161,
      "velocity": 115,
      "chip": "ym2612"
    },
    {
      "channel": 4,
      "note": 63,
      "start": 40.9242,
      "duration": 0.0161,
      "velocity": 101,
      "chip": "ym2612"
    },
    {
      "channel": 3,
      "note": 66,
      "start": 40.9278,
      "duration": 0.014,
      "velocity": 101,
      "chip": "ym2612"
    },
    {
      "channel": 2,
      "note": 59,
      "start": 40.9289,
      "duration": 0.014,
      "velocity": 100,
      "chip": "ym2612"
    },
    {
      "channel": 1,
      "note": 71,
      "start": 40.93,
      "duration": 0.014,
      "velocity": 101,
      "chip": "ym2612"
    },
    {
      "channel": 0,
      "note": 39,
      "start": 40.9391,
      "duration": 0.0161,
      "velocity": 115,
      "chip": "ym2612"
    },
    {
      "channel": 4,
      "note": 63,
      "start": 40.9403,
      "duration": 0.0161,
      "velocity": 101,
      "chip": "ym2612"
    },
    {
      "channel": 3,
      "note": 66,
      "start": 40.9417,
      "duration": 0.0158,
      "velocity": 101,
      "chip": "ym2612"
    },
    {
      "channel": 2,
      "note": 59,
      "start": 40.9429,
      "duration": 0.0185,
      "velocity": 100,
      "chip": "ym2612"
    },
    {
      "channel": 1,
      "note": 71,
      "start": 40.944,
      "duration": 0.0186,
      "velocity": 101,
      "chip": "ym2612"
    },
    {
      "channel": 0,
      "note": 39,
      "start": 40.9552,
      "duration": 0.0161,
      "velocity": 115,
      "chip": "ym2612"
    },
    {
      "channel": 4,
      "note": 63,
      "start": 40.9564,
      "duration": 0.0161,
      "velocity": 101,
      "chip": "ym2612"
    },
    {
      "channel": 3,
      "note": 66,
      "start": 40.9575,
      "duration": 0.0161,
      "velocity": 101,
      "chip": "ym2612"
    },
    {
      "channel": 1,
      "note": 71,
      "start": 40.9626,
      "duration": 0.016,
      "velocity": 101,
      "chip": "ym2612"
    },
    {
      "channel": 0,
      "note": 40,
      "start": 40.9713,
      "duration": 0.0161,
      "velocity": 115,
      "chip": "ym2612"
    },
    {
      "channel": 4,
      "note": 63,
      "start": 40.9725,
      "duration": 0.0162,
      "velocity": 101,
      "chip": "ym2612"
    },
    {
      "channel": 3,
      "note": 66,
      "start": 40.9736,
      "duration": 0.0161,
      "velocity": 101,
      "chip": "ym2612"
    },
    {
      "channel": 1,
      "note": 71,
      "start": 40.9786,
      "duration": 0.0158,
      "velocity": 101,
      "chip": "ym2612"
    },
    {
      "channel": 0,
      "note": 40,
      "start": 40.9874,
      "duration": 0.0161,
      "velocity": 115,
      "chip": "ym2612"
    },
    {
      "channel": 4,
      "note": 63,
      "start": 40.9886,
      "duration": 0.0161,
      "velocity": 101,
      "chip": "ym2612"
    },
    {
      "channel": 3,
      "note": 66,
      "start": 40.9898,
      "duration": 0.0161,
      "velocity": 101,
      "chip": "ym2612"
    },
    {
      "channel": 1,
      "note": 71,
      "start": 40.9944,
      "duration": 0.0141,
      "velocity": 101,
      "chip": "ym2612"
    },
    {
      "channel": 0,
      "note": 40,
      "start": 41.0035,
      "duration": 0.0161,
      "velocity": 115,
      "chip": "ym2612"
    },
    {
      "channel": 4,
      "note": 63,
      "start": 41.0047,
      "duration": 0.0161,
      "velocity": 101,
      "chip": "ym2612"
    },
    {
      "channel": 3,
      "note": 66,
      "start": 41.0059,
      "duration": 0.0161,
      "velocity": 101,
      "chip": "ym2612"
    },
    {
      "channel": 1,
      "note": 71,
      "start": 41.0085,
      "duration": 0.0157,
      "velocity": 101,
      "chip": "ym2612"
    },
    {
      "channel": 0,
      "note": 41,
      "start": 41.0196,
      "duration": 0.0162,
      "velocity": 115,
      "chip": "ym2612"
    },
    {
      "channel": 4,
      "note": 63,
      "start": 41.0208,
      "duration": 0.0161,
      "velocity": 101,
      "chip": "ym2612"
    },
    {
      "channel": 3,
      "note": 66,
      "start": 41.022,
      "duration": 0.0161,
      "velocity": 101,
      "chip": "ym2612"
    },
    {
      "channel": 1,
      "note": 71,
      "start": 41.0242,
      "duration": 0.0162,
      "velocity": 101,
      "chip": "ym2612"
    },
    {
      "channel": 0,
      "note": 41,
      "start": 41.0358,
      "duration": 0.0161,
      "velocity": 115,
      "chip": "ym2612"
    },
    {
      "channel": 4,
      "note": 63,
      "start": 41.0369,
      "duration": 0.0161,
      "velocity": 101,
      "chip": "ym2612"
    },
    {
      "channel": 3,
      "note": 66,
      "start": 41.0381,
      "duration": 0.0161,
      "velocity": 101,
      "chip": "ym2612"
    },
    {
      "channel": 1,
      "note": 71,
      "start": 41.0404,
      "duration": 0.0161,
      "velocity": 101,
      "chip": "ym2612"
    },
    {
      "channel": 0,
      "note": 42,
      "start": 41.0519,
      "duration": 0.0178,
      "velocity": 124,
      "chip": "ym2612"
    },
    {
      "channel": 4,
      "note": 63,
      "start": 41.053,
      "duration": 0.0179,
      "velocity": 101,
      "chip": "ym2612"
    },
    {
      "channel": 3,
      "note": 66,
      "start": 41.0541,
      "duration": 0.0179,
      "velocity": 101,
      "chip": "ym2612"
    },
    {
      "channel": 1,
      "note": 71,
      "start": 41.0564,
      "duration": 0.0185,
      "velocity": 101,
      "chip": "ym2612"
    },
    {
      "channel": 0,
      "note": 84,
      "start": 41.0698,
      "duration": 0.0144,
      "velocity": 124,
      "chip": "ym2612"
    },
    {
      "channel": 4,
      "note": 63,
      "start": 41.0709,
      "duration": 0.0144,
      "velocity": 101,
      "chip": "ym2612"
    },
    {
      "channel": 3,
      "note": 66,
      "start": 41.072,
      "duration": 0.0144,
      "velocity": 101,
      "chip": "ym2612"
    },
    {
      "channel": 2,
      "note": 71,
      "start": 41.0734,
      "duration": 0.0142,
      "velocity": 100,
      "chip": "ym2612"
    },
    {
      "channel": 1,
      "note": 71,
      "start": 41.0749,
      "duration": 0.0139,
      "velocity": 101,
      "chip": "ym2612"
    },
    {
      "channel": 0,
      "note": 82,
      "start": 41.0841,
      "duration": 0.016,
      "velocity": 124,
      "chip": "ym2612"
    },
    {
      "channel": 4,
      "note": 63,
      "start": 41.0853,
      "duration": 0.016,
      "velocity": 101,
      "chip": "ym2612"
    },
    {
      "channel": 3,
      "note": 66,
      "start": 41.0864,
      "duration": 0.016,
      "velocity": 101,
      "chip": "ym2612"
    },
    {
      "channel": 2,
      "note": 71,
      "start": 41.0876,
      "duration": 0.016,
      "velocity": 100,
      "chip": "ym2612"
    },
    {
      "channel": 1,
      "note": 71,
      "start": 41.0888,
      "duration": 0.016,
      "velocity": 101,
      "chip": "ym2612"
    },
    {
      "channel": 0,
      "note": 80,
      "start": 41.1002,
      "duration": 0.0161,
      "velocity": 124,
      "chip": "ym2612"
    },
    {
      "channel": 4,
      "note": 63,
      "start": 41.1013,
      "duration": 0.0161,
      "velocity": 101,
      "chip": "ym2612"
    },
    {
      "channel": 3,
      "note": 66,
      "start": 41.1024,
      "duration": 0.0161,
      "velocity": 101,
      "chip": "ym2612"
    },
    {
      "channel": 2,
      "note": 71,
      "start": 41.1036,
      "duration": 0.0161,
      "velocity": 100,
      "chip": "ym2612"
    },
    {
      "channel": 1,
      "note": 71,
      "start": 41.1047,
      "duration": 0.0161,
      "velocity": 101,
      "chip": "ym2612"
    },
    {
      "channel": 0,
      "note": 77,
      "start": 41.1162,
      "duration": 0.0161,
      "velocity": 124,
      "chip": "ym2612"
    },
    {
      "channel": 4,
      "note": 63,
      "start": 41.1174,
      "duration": 0.0161,
      "velocity": 101,
      "chip": "ym2612"
    },
    {
      "channel": 3,
      "note": 66,
      "start": 41.1185,
      "duration": 0.0162,
      "velocity": 101,
      "chip": "ym2612"
    },
    {
      "channel": 2,
      "note": 71,
      "start": 41.1197,
      "duration": 0.0161,
      "velocity": 100,
      "chip": "ym2612"
    },
    {
      "channel": 1,
      "note": 71,
      "start": 41.1208,
      "duration": 0.0161,
      "velocity": 101,
      "chip": "ym2612"
    },
    {
      "channel": 0,
      "note": 75,
      "start": 41.1323,
      "duration": 0.0161,
      "velocity": 124,
      "chip": "ym2612"
    },
    {
      "channel": 4,
      "note": 63,
      "start": 41.1335,
      "duration": 0.0161,
      "velocity": 101,
      "chip": "ym2612"
    },
    {
      "channel": 3,
      "note": 66,
      "start": 41.1347,
      "duration": 0.0161,
      "velocity": 101,
      "chip": "ym2612"
    },
    {
      "channel": 2,
      "note": 71,
      "start": 41.1358,
      "duration": 0.0161,
      "velocity": 100,
      "chip": "ym2612"
    },
    {
      "channel": 1,
      "note": 71,
      "start": 41.1369,
      "duration": 0.0161,
      "velocity": 101,
      "chip": "ym2612"
    },
    {
      "channel": 0,
      "note": 72,
      "start": 41.1484,
      "duration": 0.0161,
      "velocity": 124,
      "chip": "ym2612"
    },
    {
      "channel": 4,
      "note": 63,
      "start": 41.1496,
      "duration": 0.0161,
      "velocity": 101,
      "chip": "ym2612"
    },
    {
      "channel": 3,
      "note": 66,
      "start": 41.1508,
      "duration": 0.0161,
      "velocity": 101,
      "chip": "ym2612"
    },
    {
      "channel": 2,
      "note": 71,
      "start": 41.1519,
      "duration": 0.0161,
      "velocity": 100,
      "chip": "ym2612"
    },
    {
      "channel": 1,
      "note": 71,
      "start": 41.153,
      "duration": 0.0161,
      "velocity": 101,
      "chip": "ym2612"
    },
    {
      "channel": 0,
      "note": 70,
      "start": 41.1645,
      "duration": 0.0161,
      "velocity": 124,
      "chip": "ym2612"
    },
    {
      "channel": 4,
      "note": 63,
      "start": 41.1657,
      "duration": 0.0161,
      "velocity": 101,
      "chip": "ym2612"
    },
    {
      "channel": 3,
      "note": 66,
      "start": 41.1669,
      "duration": 0.0161,
      "velocity": 101,
      "chip": "ym2612"
    },
    {
      "channel": 2,
      "note": 71,
      "start": 41.168,
      "duration": 0.0162,
      "velocity": 100,
      "chip": "ym2612"
    },
    {
      "channel": 1,
      "note": 71,
      "start": 41.1691,
      "duration": 0.0161,
      "velocity": 101,
      "chip": "ym2612"
    },
    {
      "channel": 0,
      "note": 68,
      "start": 41.1807,
      "duration": 0.0161,
      "velocity": 124,
      "chip": "ym2612"
    },
    {
      "channel": 4,
      "note": 63,
      "start": 41.1818,
      "duration": 0.0161,
      "velocity": 101,
      "chip": "ym2612"
    },
    {
      "channel": 3,
      "note": 66,
      "start": 41.183,
      "duration": 0.0161,
      "velocity": 101,
      "chip": "ym2612"
    },
    {
      "channel": 1,
      "note": 71,
      "start": 41.1853,
      "duration": 0.0161,
      "velocity": 101,
      "chip": "ym2612"
    },
    {
      "channel": 0,
      "note": 65,
      "start": 41.1968,
      "duration": 0.0161,
      "velocity": 124,
      "chip": "ym2612"
    },
    {
      "channel": 4,
      "note": 63,
      "start": 41.1979,
      "duration": 0.0161,
      "velocity": 101,
      "chip": "ym2612"
    },
    {
      "channel": 3,
      "note": 66,
      "start": 41.1991,
      "duration": 0.0161,
      "velocity": 101,
      "chip": "ym2612"
    },
    {
      "channel": 1,
      "note": 71,
      "start": 41.2014,
      "duration": 0.0161,
      "velocity": 101,
      "chip": "ym2612"
    },
    {
      "channel": 0,
      "note": 63,
      "start": 41.2129,
      "duration": 0.0154,
      "velocity": 1,
      "chip": "ym2612"
    },
    {
      "channel": 4,
      "note": 63,
      "start": 41.214,
      "duration": 0.0155,
      "velocity": 101,
      "chip": "ym2612"
    },
    {
      "channel": 3,
      "note": 66,
      "start": 41.2152,
      "duration": 0.0154,
      "velocity": 101,
      "chip": "ym2612"
    },
    {
      "channel": 1,
      "note": 71,
      "start": 41.2175,
      "duration": 0.0154,
      "velocity": 101,
      "chip": "ym2612"
    },
    {
      "channel": 4,
      "note": 63,
      "start": 41.2295,
      "duration": 0.0158,
      "velocity": 101,
      "chip": "ym2612"
    },
    {
      "channel": 3,
      "note": 66,
      "start": 41.2306,
      "duration": 0.0159,
      "velocity": 101,
      "chip": "ym2612"
    },
    {
      "channel": 1,
      "note": 71,
      "start": 41.2329,
      "duration": 0.0159,
      "velocity": 101,
      "chip": "ym2612"
    },
    {
      "channel": 4,
      "note": 63,
      "start": 41.2453,
      "duration": 0.0163,
      "velocity": 101,
      "chip": "ym2612"
    },
    {
      "channel": 3,
      "note": 66,
      "start": 41.2465,
      "duration": 0.0163,
      "velocity": 101,
      "chip": "ym2612"
    },
    {
      "channel": 1,
      "note": 71,
      "start": 41.2488,
      "duration": 0.0163,
      "velocity": 101,
      "chip": "ym2612"
    },
    {
      "channel": 4,
      "note": 63,
      "start": 41.2616,
      "duration": 0.0152,
      "velocity": 101,
      "chip": "ym2612"
    },
    {
      "channel": 3,
      "note": 66,
      "start": 41.2627,
      "duration": 0.0152,
      "velocity": 101,
      "chip": "ym2612"
    },
    {
      "channel": 1,
      "note": 71,
      "start": 41.265,
      "duration": 0.0151,
      "velocity": 101,
      "chip": "ym2612"
    },
    {
      "channel": 4,
      "note": 63,
      "start": 41.2768,
      "duration": 0.022,
      "velocity": 101,
      "chip": "ym2612"
    },
    {
      "channel": 3,
      "note": 66,
      "start": 41.278,
      "duration": 0.0219,
      "velocity": 101,
      "chip": "ym2612"
    },
    {
      "channel": 1,
      "note": 71,
      "start": 41.2802,
      "duration": 0.0223,
      "velocity": 101,
      "chip": "ym2612"
    },
    {
      "channel": 0,
      "note": 36,
      "start": 41.2976,
      "duration": 0.0147,
      "velocity": 115,
      "chip": "ym2612"
    },
    {
      "channel": 4,
      "note": 63,
      "start": 41.2988,
      "duration": 0.0147,
      "velocity": 101,
      "chip": "ym2612"
    },
    {
      "channel": 3,
      "note": 66,
      "start": 41.2999,
      "duration": 0.0147,
      "velocity": 101,
      "chip": "ym2612"
    },
    {
      "channel": 2,
      "note": 59,
      "start": 41.3013,
      "duration": 0.0145,
      "velocity": 100,
      "chip": "ym2612"
    },
    {
      "channel": 1,
      "note": 71,
      "start": 41.3024,
      "duration": 0.0145,
      "velocity": 101,
      "chip": "ym2612"
    },
    {
      "channel": 0,
      "note": 36,
      "start": 41.3123,
      "duration": 0.0157,
      "velocity": 115,
      "chip": "ym2612"
    },
    {
      "channel": 4,
      "note": 63,
      "start": 41.3134,
      "duration": 0.0156,
      "velocity": 101,
      "chip": "ym2612"
    },
    {
      "channel": 3,
      "note": 66,
      "start": 41.3146,
      "duration": 0.0157,
      "velocity": 101,
      "chip": "ym2612"
    },
    {
      "channel": 2,
      "note": 59,
      "start": 41.3158,
      "duration": 0.0156,
      "velocity": 100,
      "chip": "ym2612"
    },
    {
      "channel": 1,
      "note": 71,
      "start": 41.3169,
      "duration": 0.0156,
      "velocity": 101,
      "chip": "ym2612"
    },
    {
      "channel": 0,
      "note": 37,
      "start": 41.328,
      "duration": 0.0141,
      "velocity": 115,
      "chip": "ym2612"
    },
    {
      "channel": 4,
      "note": 63,
      "start": 41.3291,
      "duration": 0.0141,
      "velocity": 101,
      "chip": "ym2612"
    },
    {
      "channel": 3,
      "note": 66,
      "start": 41.3302,
      "duration": 0.014,
      "velocity": 101,
      "chip": "ym2612"
    },
    {
      "channel": 2,
      "note": 59,
      "start": 41.3314,
      "duration": 0.0141,
      "velocity": 100,
      "chip": "ym2612"
    },
    {
      "channel": 1,
      "note": 71,
      "start": 41.3325,
      "duration": 0.014,
      "velocity": 101,
      "chip": "ym2612"
    },
    {
      "channel": 0,
      "note": 37,
      "start": 41.342,
      "duration": 0.0185,
      "velocity": 115,
      "chip": "ym2612"
    },
    {
      "channel": 4,
      "note": 63,
      "start": 41.3432,
      "duration": 0.0185,
      "velocity": 101,
      "chip": "ym2612"
    },
    {
      "channel": 3,
      "note": 66,
      "start": 41.3443,
      "duration": 0.0185,
      "velocity": 101,
      "chip": "ym2612"
    },
    {
      "channel": 2,
      "note": 59,
      "start": 41.3454,
      "duration": 0.0185,
      "velocity": 100,
      "chip": "ym2612"
    },
    {
      "channel": 1,
      "note": 71,
      "start": 41.3466,
      "duration": 0.0185,
      "velocity": 101,
      "chip": "ym2612"
    },
    {
      "channel": 0,
      "note": 38,
      "start": 41.3605,
      "duration": 0.0134,
      "velocity": 115,
      "chip": "ym2612"
    },
    {
      "channel": 4,
      "note": 63,
      "start": 41.3617,
      "duration": 0.0162,
      "velocity": 101,
      "chip": "ym2612"
    },
    {
      "channel": 3,
      "note": 66,
      "start": 41.3628,
      "duration": 0.0161,
      "velocity": 101,
      "chip": "ym2612"
    },
    {
      "channel": 2,
      "note": 59,
      "start": 41.3639,
      "duration": 0.0161,
      "velocity": 100,
      "chip": "ym2612"
    },
    {
      "channel": 1,
      "note": 71,
      "start": 41.3651,
      "duration": 0.0161,
      "velocity": 101,
      "chip": "ym2612"
    },
    {
      "channel": 0,
      "note": 38,
      "start": 41.3739,
      "duration": 0.0161,
      "velocity": 115,
      "chip": "ym2612"
    },
    {
      "channel": 4,
      "note": 63,
      "start": 41.3778,
      "duration": 0.0156,
      "velocity": 101,
      "chip": "ym2612"
    },
    {
      "channel": 3,
      "note": 66,
      "start": 41.379,
      "duration": 0.0157,
      "velocity": 101,
      "chip": "ym2612"
    },
    {
      "channel": 2,
      "note": 59,
      "start": 41.38,
      "duration": 0.0158,
      "velocity": 100,
      "chip": "ym2612"
    },
    {
      "channel": 1,
      "note": 71,
      "start": 41.3812,
      "duration": 0.0158,
      "velocity": 101,
      "chip": "ym2612"
    },
    {
      "channel": 0,
      "note": 39,
      "start": 41.39,
      "duration": 0.0161,
      "velocity": 115,
      "chip": "ym2612"
    },
    {
      "channel": 4,
      "note": 63,
      "start": 41.3935,
      "duration": 0.0137,
      "velocity": 101,
      "chip": "ym2612"
    },
    {
      "channel": 3,
      "note": 66,
      "start": 41.3947,
      "duration": 0.014,
      "velocity": 101,
      "chip": "ym2612"
    },
    {
      "channel": 2,
      "note": 59,
      "start": 41.3958,
      "duration": 0.014,
      "velocity": 100,
      "chip": "ym2612"
    },
    {
      "channel": 1,
      "note": 71,
      "start": 41.397,
      "duration": 0.014,
      "velocity": 101,
      "chip": "ym2612"
    },
    {
      "channel": 0,
      "note": 39,
      "start": 41.4061,
      "duration": 0.0161,
      "velocity": 115,
      "chip": "ym2612"
    },
    {
      "channel": 4,
      "note": 63,
      "start": 41.4072,
      "duration": 0.0161,
      "velocity": 101,
      "chip": "ym2612"
    },
    {
      "channel": 3,
      "note": 66,
      "start": 41.4087,
      "duration": 0.0186,
      "velocity": 101,
      "chip": "ym2612"
    },
    {
      "channel": 1,
      "note": 71,
      "start": 41.411,
      "duration": 0.0185,
      "velocity": 101,
      "chip": "ym2612"
    },
    {
      "channel": 0,
      "note": 40,
      "start": 41.4222,
      "duration": 0.0161,
      "velocity": 115,
      "chip": "ym2612"
    },
    {
      "channel": 4,
      "note": 63,
      "start": 41.4233,
      "duration": 0.0161,
      "velocity": 101,
      "chip": "ym2612"
    },
    {
      "channel": 3,
      "note": 66,
      "start": 41.4273,
      "duration": 0.0134,
      "velocity": 101,
      "chip": "ym2612"
    },
    {
      "channel": 1,
      "note": 71,
      "start": 41.4295,
      "duration": 0.0161,
      "velocity": 101,
      "chip": "ym2612"
    },
    {
      "channel": 0,
      "note": 40,
      "start": 41.4383,
      "duration": 0.0161,
      "velocity": 115,
      "chip": "ym2612"
    },
    {
      "channel": 4,
      "note": 63,
      "start": 41.4395,
      "duration": 0.0161,
      "velocity": 101,
      "chip": "ym2612"
    },
    {
      "channel": 3,
      "note": 66,
      "start": 41.4406,
      "duration": 0.0161,
      "velocity": 101,
      "chip": "ym2612"
    },
    {
      "channel": 1,
      "note": 71,
      "start": 41.4456,
      "duration": 0.0157,
      "velocity": 101,
      "chip": "ym2612"
    },
    {
      "channel": 0,
      "note": 40,
      "start": 41.4544,
      "duration": 0.0161,
      "velocity": 115,
      "chip": "ym2612"
    },
    {
      "channel": 4,
      "note": 63,
      "start": 41.4556,
      "duration": 0.0161,
      "velocity": 101,
      "chip": "ym2612"
    },
    {
      "channel": 3,
      "note": 66,
      "start": 41.4567,
      "duration": 0.0161,
      "velocity": 101,
      "chip": "ym2612"
    },
    {
      "channel": 1,
      "note": 71,
      "start": 41.4613,
      "duration": 0.0141,
      "velocity": 101,
      "chip": "ym2612"
    },
    {
      "channel": 0,
      "note": 41,
      "start": 41.4705,
      "duration": 0.0161,
      "velocity": 115,
      "chip": "ym2612"
    },
    {
      "channel": 4,
      "note": 63,
      "start": 41.4717,
      "duration": 0.0161,
      "velocity": 101,
      "chip": "ym2612"
    },
    {
      "channel": 3,
      "note": 66,
      "start": 41.4728,
      "duration": 0.0161,
      "velocity": 101,
      "chip": "ym2612"
    },
    {
      "channel": 1,
      "note": 71,
      "start": 41.4754,
      "duration": 0.0185,
      "velocity": 101,
      "chip": "ym2612"
    },
    {
      "channel": 0,
      "note": 41,
      "start": 41.4866,
      "duration": 0.0161,
      "velocity": 115,
      "chip": "ym2612"
    },
    {
      "channel": 4,
      "note": 63,
      "start": 41.4878,
      "duration": 0.0161,
      "velocity": 101,
      "chip": "ym2612"
    },
    {
      "channel": 3,
      "note": 66,
      "start": 41.4889,
      "duration": 0.0161,
      "velocity": 101,
      "chip": "ym2612"
    },
    {
      "channel": 1,
      "note": 71,
      "start": 41.4939,
      "duration": 0.0134,
      "velocity": 101,
      "chip": "ym2612"
    },
    {
      "channel": 0,
      "note": 42,
      "start": 41.5027,
      "duration": 0.0179,
      "velocity": 115,
      "chip": "ym2612"
    },
    {
      "channel": 4,
      "note": 63,
      "start": 41.5038,
      "duration": 0.0181,
      "velocity": 101,
      "chip": "ym2612"
    },
    {
      "channel": 3,
      "note": 66,
      "start": 41.505,
      "duration": 0.0184,
      "velocity": 101,
      "chip": "ym2612"
    },
    {
      "channel": 1,
      "note": 71,
      "start": 41.5073,
      "duration": 0.0213,
      "velocity": 101,
      "chip": "ym2612"
    },
    {
      "channel": 0,
      "note": 36,
      "start": 41.5206,
      "duration": 0.0144,
      "velocity": 115,
      "chip": "ym2612"
    },
    {
      "channel": 4,
      "note": 56,
      "start": 41.522,
      "duration": 0.0141,
      "velocity": 101,
      "chip": "ym2612"
    },
    {
      "channel": 3,
      "note": 59,
      "start": 41.5234,
      "duration": 0.0139,
      "velocity": 101,
      "chip": "ym2612"
    },
    {
      "channel": 2,
      "note": 61,
      "start": 41.5272,
      "duration": 0.0113,
      "velocity": 100,
      "chip": "ym2612"
    },
    {
      "channel": 1,
      "note": 64,
      "start": 41.5286,
      "duration": 0.0111,
      "velocity": 101,
      "chip": "ym2612"
    },
    {
      "channel": 0,
      "note": 36,
      "start": 41.5349,
      "duration": 0.016,
      "velocity": 115,
      "chip": "ym2612"
    },
    {
      "channel": 4,
      "note": 56,
      "start": 41.5361,
      "duration": 0.016,
      "velocity": 101,
      "chip": "ym2612"
    },
    {
      "channel": 3,
      "note": 59,
      "start": 41.5374,
      "duration": 0.0159,
      "velocity": 101,
      "chip": "ym2612"
    },
    {
      "channel": 2,
      "note": 61,
      "start": 41.5385,
      "duration": 0.0159,
      "velocity": 100,
      "chip": "ym2612"
    },
    {
      "channel": 1,
      "note": 64,
      "start": 41.5397,
      "duration": 0.0158,
      "velocity": 101,
      "chip": "ym2612"
    },
    {
      "channel": 0,
      "note": 37,
      "start": 41.551,
      "duration": 0.0161,
      "velocity": 115,
      "chip": "ym2612"
    },
    {
      "channel": 4,
      "note": 56,
      "start": 41.5521,
      "duration": 0.0161,
      "velocity": 101,
      "chip": "ym2612"
    },
    {
      "channel": 3,
      "note": 59,
      "start": 41.5533,
      "duration": 0.0162,
      "velocity": 101,
      "chip": "ym2612"
    },
    {
      "channel": 2,
      "note": 61,
      "start": 41.5544,
      "duration": 0.0161,
      "velocity": 100,
      "chip": "ym2612"
    },
    {
      "channel": 1,
      "note": 64,
      "start": 41.5556,
      "duration": 0.0161,
      "velocity": 101,
      "chip": "ym2612"
    },
    {
      "channel": 0,
      "note": 37,
      "start": 41.5671,
      "duration": 0.0161,
      "velocity": 115,
      "chip": "ym2612"
    },
    {
      "channel": 4,
      "note": 56,
      "start": 41.5683,
      "duration": 0.0161,
      "velocity": 101,
      "chip": "ym2612"
    },
    {
      "channel": 3,
      "note": 59,
      "start": 41.5694,
      "duration": 0.0161,
      "velocity": 101,
      "chip": "ym2612"
    },
    {
      "channel": 2,
      "note": 61,
      "start": 41.5705,
      "duration": 0.0161,
      "velocity": 100,
      "chip": "ym2612"
    },
    {
      "channel": 1,
      "note": 64,
      "start": 41.5717,
      "duration": 0.0161,
      "velocity": 101,
      "chip": "ym2612"
    },
    {
      "channel": 0,
      "note": 38,
      "start": 41.5832,
      "duration": 0.0161,
      "velocity": 115,
      "chip": "ym2612"
    },
    {
      "channel": 4,
      "note": 56,
      "start": 41.5844,
      "duration": 0.0161,
      "velocity": 101,
      "chip": "ym2612"
    },
    {
      "channel": 3,
      "note": 59,
      "start": 41.5855,
      "duration": 0.0161,
      "velocity": 101,
      "chip": "ym2612"
    },
    {
      "channel": 2,
      "note": 61,
      "start": 41.5866,
      "duration": 0.0161,
      "velocity": 100,
      "chip": "ym2612"
    },
    {
      "channel": 1,
      "note": 64,
      "start": 41.5878,
      "duration": 0.0161,
      "velocity": 101,
      "chip": "ym2612"
    },
    {
      "channel": 0,
      "note": 38,
      "start": 41.5993,
      "duration": 0.0161,
      "velocity": 115,
      "chip": "ym2612"
    },
    {
      "channel": 4,
      "note": 56,
      "start": 41.6005,
      "duration": 0.0161,
      "velocity": 101,
      "chip": "ym2612"
    },
    {
      "channel": 3,
      "note": 59,
      "start": 41.6016,
      "duration": 0.0161,
      "velocity": 101,
      "chip": "ym2612"
    },
    {
      "channel": 2,
      "note": 61,
      "start": 41.6027,
      "duration": 0.0161,
      "velocity": 100,
      "chip": "ym2612"
    },
    {
      "channel": 1,
      "note": 64,
      "start": 41.6038,
      "duration": 0.0162,
      "velocity": 101,
      "chip": "ym2612"
    },
    {
      "channel": 0,
      "note": 39,
      "start": 41.6154,
      "duration": 0.0162,
      "velocity": 115,
      "chip": "ym2612"
    },
    {
      "channel": 4,
      "note": 56,
      "start": 41.6166,
      "duration": 0.0161,
      "velocity": 101,
      "chip": "ym2612"
    },
    {
      "channel": 3,
      "note": 59,
      "start": 41.6177,
      "duration": 0.0161,
      "velocity": 101,
      "chip": "ym2612"
    },
    {
      "channel": 2,
      "note": 61,
      "start": 41.6188,
      "duration": 0.0161,
      "velocity": 100,
      "chip": "ym2612"
    },
    {
      "channel": 1,
      "note": 64,
      "start": 41.62,
      "duration": 0.0161,
      "velocity": 101,
      "chip": "ym2612"
    },
    {
      "channel": 0,
      "note": 39,
      "start": 41.6315,
      "duration": 0.0161,
      "velocity": 115,
      "chip": "ym2612"
    },
    {
      "channel": 4,
      "note": 56,
      "start": 41.6327,
      "duration": 0.0161,
      "velocity": 101,
      "chip": "ym2612"
    },
    {
      "channel": 3,
      "note": 59,
      "start": 41.6338,
      "duration": 0.0161,
      "velocity": 101,
      "chip": "ym2612"
    },
    {
      "channel": 1,
      "note": 64,
      "start": 41.6361,
      "duration": 0.0161,
      "velocity": 101,
      "chip": "ym2612"
    },
    {
      "channel": 0,
      "note": 40,
      "start": 41.6476,
      "duration": 0.0161,
      "velocity": 115,
      "chip": "ym2612"
    },
    {
      "channel": 4,
      "note": 56,
      "start": 41.6488,
      "duration": 0.0161,
      "velocity": 101,
      "chip": "ym2612"
    },
    {
      "channel": 3,
      "note": 59,
      "start": 41.6499,
      "duration": 0.0161,
      "velocity": 101,
      "chip": "ym2612"
    },
    {
      "channel": 1,
      "note": 64,
      "start": 41.6522,
      "duration": 0.0161,
      "velocity": 101,
      "chip": "ym2612"
    },
    {
      "channel": 0,
      "note": 40,
      "start": 41.6637,
      "duration": 0.0161,
      "velocity": 115,
      "chip": "ym2612"
    },
    {
      "channel": 4,
      "note": 56,
      "start": 41.6649,
      "duration": 0.0161,
      "velocity": 101,
      "chip": "ym2612"
    },
    {
      "channel": 3,
      "note": 59,
      "start": 41.666,
      "duration": 0.0161,
      "velocity": 101,
      "chip": "ym2612"
    },
    {
      "channel": 1,
      "note": 64,
      "start": 41.6683,
      "duration": 0.0161,
      "velocity": 101,
      "chip": "ym2612"
    },
    {
      "channel": 0,
      "note": 40,
      "start": 41.6798,
      "duration": 0.0161,
      "velocity": 115,
      "chip": "ym2612"
    },
    {
      "channel": 4,
      "note": 56,
      "start": 41.6809,
      "duration": 0.0161,
      "velocity": 101,
      "chip": "ym2612"
    },
    {
      "channel": 3,
      "note": 59,
      "start": 41.6821,
      "duration": 0.0161,
      "velocity": 101,
      "chip": "ym2612"
    },
    {
      "channel": 1,
      "note": 64,
      "start": 41.6844,
      "duration": 0.0161,
      "velocity": 101,
      "chip": "ym2612"
    },
    {
      "channel": 0,
      "note": 41,
      "start": 41.6959,
      "duration": 0.0166,
      "velocity": 115,
      "chip": "ym2612"
    },
    {
      "channel": 4,
      "note": 56,
      "start": 41.697,
      "duration": 0.0166,
      "velocity": 101,
      "chip": "ym2612"
    },
    {
      "channel": 3,
      "note": 59,
      "start": 41.6982,
      "duration": 0.0166,
      "velocity": 101,
      "chip": "ym2612"
    },
    {
      "channel": 1,
      "note": 64,
      "start": 41.7005,
      "duration": 0.0166,
      "velocity": 101,
      "chip": "ym2612"
    },
    {
      "channel": 0,
      "note": 41,
      "start": 41.7125,
      "duration": 0.0163,
      "velocity": 115,
      "chip": "ym2612"
    },
    {
      "channel": 4,
      "note": 56,
      "start": 41.7136,
      "duration": 0.0163,
      "velocity": 101,
      "chip": "ym2612"
    },
    {
      "channel": 3,
      "note": 59,
      "start": 41.7148,
      "duration": 0.0163,
      "velocity": 101,
      "chip": "ym2612"
    },
    {
      "channel": 1,
      "note": 64,
      "start": 41.7171,
      "duration": 0.0163,
      "velocity": 101,
      "chip": "ym2612"
    },
    {
      "channel": 0,
      "note": 42,
      "start": 41.7288,
      "duration": 0.0154,
      "velocity": 115,
      "chip": "ym2612"
    },
    {
      "channel": 4,
      "note": 56,
      "start": 41.7299,
      "duration": 0.0155,
      "velocity": 101,
      "chip": "ym2612"
    },
    {
      "channel": 3,
      "note": 59,
      "start": 41.7311,
      "duration": 0.0155,
      "velocity": 101,
      "chip": "ym2612"
    },
    {
      "channel": 1,
      "note": 64,
      "start": 41.7334,
      "duration": 0.0157,
      "velocity": 101,
      "chip": "ym2612"
    },
    {
      "channel": 0,
      "note": 42,
      "start": 41.7442,
      "duration": 0.0183,
      "velocity": 115,
      "chip": "ym2612"
    },
    {
      "channel": 4,
      "note": 56,
      "start": 41.7454,
      "duration": 0.0183,
      "velocity": 101,
      "chip": "ym2612"
    },
    {
      "channel": 3,
      "note": 59,
      "start": 41.7465,
      "duration": 0.0183,
      "velocity": 101,
      "chip": "ym2612"
    },
    {
      "channel": 2,
      "note": 61,
      "start": 41.7479,
      "duration": 0.0181,
      "velocity": 100,
      "chip": "ym2612"
    },
    {
      "channel": 1,
      "note": 64,
      "start": 41.7491,
      "duration": 0.0181,
      "velocity": 101,
      "chip": "ym2612"
    },
    {
      "channel": 0,
      "note": 43,
      "start": 41.7625,
      "duration": 0.0167,
      "velocity": 115,
      "chip": "ym2612"
    },
    {
      "channel": 4,
      "note": 56,
      "start": 41.7636,
      "duration": 0.0167,
      "velocity": 101,
      "chip": "ym2612"
    },
    {
      "channel": 3,
      "note": 59,
      "start": 41.7648,
      "duration": 0.0167,
      "velocity": 101,
      "chip": "ym2612"
    },
    {
      "channel": 2,
      "note": 61,
      "start": 41.766,
      "duration": 0.0166,
      "velocity": 100,
      "chip": "ym2612"
    },
    {
      "channel": 1,
      "note": 64,
      "start": 41.7671,
      "duration": 0.0166,
      "velocity": 101,
      "chip": "ym2612"
    },
    {
      "channel": 0,
      "note": 43,
      "start": 41.7792,
      "duration": 0.0157,
      "velocity": 115,
      "chip": "ym2612"
    },
    {
      "channel": 4,
      "note": 56,
      "start": 41.7803,
      "duration": 0.0158,
      "velocity": 101,
      "chip": "ym2612"
    },
    {
      "channel": 3,
      "note": 59,
      "start": 41.7815,
      "duration": 0.0158,
      "velocity": 101,
      "chip": "ym2612"
    },
    {
      "channel": 2,
      "note": 61,
      "start": 41.7826,
      "duration": 0.0157,
      "velocity": 100,
      "chip": "ym2612"
    },
    {
      "channel": 1,
      "note": 64,
      "start": 41.7837,
      "duration": 0.0157,
      "velocity": 101,
      "chip": "ym2612"
    },
    {
      "channel": 0,
      "note": 44,
      "start": 41.7949,
      "duration": 0.0141,
      "velocity": 115,
      "chip": "ym2612"
    },
    {
      "channel": 4,
      "note": 56,
      "start": 41.7961,
      "duration": 0.014,
      "velocity": 101,
      "chip": "ym2612"
    },
    {
      "channel": 3,
      "note": 59,
      "start": 41.7972,
      "duration": 0.014,
      "velocity": 101,
      "chip": "ym2612"
    },
    {
      "channel": 2,
      "note": 61,
      "start": 41.7983,
      "duration": 0.0141,
      "velocity": 100,
      "chip": "ym2612"
    },
    {
      "channel": 1,
      "note": 64,
      "start": 41.7995,
      "duration": 0.0141,
      "velocity": 101,
      "chip": "ym2612"
    },
    {
      "channel": 0,
      "note": 44,
      "start": 41.8089,
      "duration": 0.0185,
      "velocity": 115,
      "chip": "ym2612"
    },
    {
      "channel": 4,
      "note": 56,
      "start": 41.8101,
      "duration": 0.0186,
      "velocity": 101,
      "chip": "ym2612"
    },
    {
      "channel": 3,
      "note": 59,
      "start": 41.8112,
      "duration": 0.0186,
      "velocity": 101,
      "chip": "ym2612"
    },
    {
      "channel": 2,
      "note": 61,
      "start": 41.8124,
      "duration": 0.0185,
      "velocity": 100,
      "chip": "ym2612"
    },
    {
      "channel": 1,
      "note": 64,
      "start": 41.8135,
      "duration": 0.0185,
      "velocity": 101,
      "chip": "ym2612"
    },
    {
      "channel": 0,
      "note": 44,
      "start": 41.8274,
      "duration": 0.0134,
      "velocity": 115,
      "chip": "ym2612"
    },
    {
      "channel": 4,
      "note": 56,
      "start": 41.8286,
      "duration": 0.0161,
      "velocity": 101,
      "chip": "ym2612"
    },
    {
      "channel": 3,
      "note": 59,
      "start": 41.8298,
      "duration": 0.0161,
      "velocity": 101,
      "chip": "ym2612"
    },
    {
      "channel": 2,
      "note": 61,
      "start": 41.8309,
      "duration": 0.0161,
      "velocity": 100,
      "chip": "ym2612"
    },
    {
      "channel": 1,
      "note": 64,
      "start": 41.832,
      "duration": 0.0161,
      "velocity": 101,
      "chip": "ym2612"
    },
    {
      "channel": 0,
      "note": 45,
      "start": 41.8408,
      "duration": 0.0161,
      "velocity": 115,
      "chip": "ym2612"
    },
    {
      "channel": 4,
      "note": 56,
      "start": 41.8447,
      "duration": 0.0157,
      "velocity": 101,
      "chip": "ym2612"
    },
    {
      "channel": 3,
      "note": 59,
      "start": 41.8459,
      "duration": 0.0157,
      "velocity": 101,
      "chip": "ym2612"
    },
    {
      "channel": 2,
      "note": 61,
      "start": 41.847,
      "duration": 0.0158,
      "velocity": 100,
      "chip": "ym2612"
    },
    {
      "channel": 1,
      "note": 64,
      "start": 41.8481,
      "duration": 0.0158,
      "velocity": 101,
      "chip": "ym2612"
    },
    {
      "channel": 0,
      "note": 45,
      "start": 41.8569,
      "duration": 0.0161,
      "velocity": 115,
      "chip": "ym2612"
    },
    {
      "channel": 4,
      "note": 56,
      "start": 41.8605,
      "duration": 0.0137,
      "velocity": 101,
      "chip": "ym2612"
    },
    {
      "channel": 3,
      "note": 59,
      "start": 41.8616,
      "duration": 0.0141,
      "velocity": 101,
      "chip": "ym2612"
    },
    {
      "channel": 1,
      "note": 64,
      "start": 41.8639,
      "duration": 0.014,
      "velocity": 101,
      "chip": "ym2612"
    },
    {
      "channel": 0,
      "note": 46,
      "start": 41.873,
      "duration": 0.0161,
      "velocity": 115,
      "chip": "ym2612"
    },
    {
      "channel": 4,
      "note": 56,
      "start": 41.8742,
      "duration": 0.0161,
      "velocity": 101,
      "chip": "ym2612"
    },
    {
      "channel": 3,
      "note": 59,
      "start": 41.8757,
      "duration": 0.0185,
      "velocity": 101,
      "chip": "ym2612"
    },
    {
      "channel": 1,
      "note": 64,
      "start": 41.8779,
      "duration": 0.0186,
      "velocity": 101,
      "chip": "ym2612"
    },
    {
      "channel": 0,
      "note": 46,
      "start": 41.8891,
      "duration": 0.0161,
      "velocity": 115,
      "chip": "ym2612"
    },
    {
      "channel": 4,
      "note": 56,
      "start": 41.8903,
      "duration": 0.0161,
      "velocity": 101,
      "chip": "ym2612"
    },
    {
      "channel": 3,
      "note": 59,
      "start": 41.8942,
      "duration": 0.0134,
      "velocity": 101,
      "chip": "ym2612"
    },
    {
      "channel": 1,
      "note": 64,
      "start": 41.8965,
      "duration": 0.0161,
      "velocity": 101,
      "chip": "ym2612"
    },
    {
      "channel": 0,
      "note": 47,
      "start": 41.9052,
      "duration": 0.0162,
      "velocity": 115,
      "chip": "ym2612"
    },
    {
      "channel": 4,
      "note": 56,
      "start": 41.9064,
      "duration": 0.0161,
      "velocity": 101,
      "chip": "ym2612"
    },
    {
      "channel": 3,
      "note": 59,
      "start": 41.9075,
      "duration": 0.0161,
      "velocity": 101,
      "chip": "ym2612"
    },
    {
      "channel": 1,
      "note": 64,
      "start": 41.9126,
      "duration": 0.0157,
      "velocity": 101,
      "chip": "ym2612"
    },
    {
      "channel": 0,
      "note": 47,
      "start": 41.9213,
      "duration": 0.0161,
      "velocity": 115,
      "chip": "ym2612"
    },
    {
      "channel": 4,
      "note": 56,
      "start": 41.9225,
      "duration": 0.0161,
      "velocity": 101,
      "chip": "ym2612"
    },
    {
      "channel": 3,
      "note": 59,
      "start": 41.9236,
      "duration": 0.0161,
      "velocity": 101,
      "chip": "ym2612"
    },
    {
      "channel": 1,
      "note": 64,
      "start": 41.9283,
      "duration": 0.0141,
      "velocity": 101,
      "chip": "ym2612"
    },
    {
      "channel": 0,
      "note": 47,
      "start": 41.9374,
      "duration": 0.0161,
      "velocity": 115,
      "chip": "ym2612"
    },
    {
      "channel": 4,
      "note": 56,
      "start": 41.9386,
      "duration": 0.0161,
      "velocity": 101,
      "chip": "ym2612"
    },
    {
      "channel": 3,
      "note": 59,
      "start": 41.9397,
      "duration": 0.0161,
      "velocity": 101,
      "chip": "ym2612"
    },
    {
      "channel": 1,
      "note": 64,
      "start": 41.9423,
      "duration": 0.0185,
      "velocity": 101,
      "chip": "ym2612"
    },
    {
      "channel": 0,
      "note": 48,
      "start": 41.9535,
      "duration": 0.0178,
      "velocity": 124,
      "chip": "ym2612"
    },
    {
      "channel": 4,
      "note": 56,
      "start": 41.9547,
      "duration": 0.0179,
      "velocity": 101,
      "chip": "ym2612"
    },
    {
      "channel": 3,
      "note": 59,
      "start": 41.9558,
      "duration": 0.0179,
      "velocity": 101,
      "chip": "ym2612"
    },
    {
      "channel": 1,
      "note": 64,
      "start": 41.9608,
      "duration": 0.0182,
      "velocity": 101,
      "chip": "ym2612"
    },
    {
      "channel": 0,
      "note": 84,
      "start": 41.9714,
      "duration": 0.0144,
      "velocity": 124,
      "chip": "ym2612"
    },
    {
      "channel": 4,
      "note": 56,
      "start": 41.9726,
      "duration": 0.0143,
      "velocity": 101,
      "chip": "ym2612"
    },
    {
      "channel": 3,
      "note": 59,
      "start": 41.9737,
      "duration": 0.0143,
      "velocity": 101,
      "chip": "ym2612"
    },
    {
      "channel": 2,
      "note": 73,
      "start": 41.9779,
      "duration": 0.0114,
      "velocity": 100,
      "chip": "ym2612"
    },
    {
      "channel": 1,
      "note": 64,
      "start": 41.979,
      "duration": 0.0114,
      "velocity": 101,
      "chip": "ym2612"
    },
    {
      "channel": 0,
      "note": 82,
      "start": 41.9858,
      "duration": 0.016,
      "velocity": 124,
      "chip": "ym2612"
    },
    {
      "channel": 4,
      "note": 56,
      "start": 41.9869,
      "duration": 0.0161,
      "velocity": 101,
      "chip": "ym2612"
    },
    {
      "channel": 3,
      "note": 59,
      "start": 41.9881,
      "duration": 0.0161,
      "velocity": 101,
      "chip": "ym2612"
    },
    {
      "channel": 2,
      "note": 73,
      "start": 41.9893,
      "duration": 0.016,
      "velocity": 100,
      "chip": "ym2612"
    },
    {
      "channel": 1,
      "note": 64,
      "start": 41.9904,
      "duration": 0.016,
      "velocity": 101,
      "chip": "ym2612"
    },
    {
      "channel": 0,
      "note": 80,
      "start": 42.0018,
      "duration": 0.0161,
      "velocity": 124,
      "chip": "ym2612"
    },
    {
      "channel": 4,
      "note": 56,
      "start": 42.003,
      "duration": 0.0161,
      "velocity": 101,
      "chip": "ym2612"
    },
    {
      "channel": 3,
      "note": 59,
      "start": 42.0041,
      "duration": 0.0161,
      "velocity": 101,
      "chip": "ym2612"
    },
    {
      "channel": 2,
      "note": 73,
      "start": 42.0052,
      "duration": 0.0161,
      "velocity": 100,
      "chip": "ym2612"
    },
    {
      "channel": 1,
      "note": 64,
      "start": 42.0064,
      "duration": 0.0161,
      "velocity": 101,
      "chip": "ym2612"
    },
    {
      "channel": 0,
      "note": 77,
      "start": 42.0179,
      "duration": 0.0161,
      "velocity": 124,
      "chip": "ym2612"
    },
    {
      "channel": 4,
      "note": 56,
      "start": 42.0191,
      "duration": 0.0161,
      "velocity": 101,
      "chip": "ym2612"
    },
    {
      "channel": 3,
      "note": 59,
      "start": 42.0202,
      "duration": 0.0161,
      "velocity": 101,
      "chip": "ym2612"
    },
    {
      "channel": 2,
      "note": 73,
      "start": 42.0213,
      "duration": 0.0161,
      "velocity": 100,
      "chip": "ym2612"
    },
    {
      "channel": 1,
      "note": 64,
      "start": 42.0225,
      "duration": 0.0161,
      "velocity": 101,
      "chip": "ym2612"
    },
    {
      "channel": 0,
      "note": 75,
      "start": 42.034,
      "duration": 0.0161,
      "velocity": 124,
      "chip": "ym2612"
    },
    {
      "channel": 4,
      "note": 56,
      "start": 42.0352,
      "duration": 0.0161,
      "velocity": 101,
      "chip": "ym2612"
    },
    {
      "channel": 3,
      "note": 59,
      "start": 42.0363,
      "duration": 0.0161,
      "velocity": 101,
      "chip": "ym2612"
    },
    {
      "channel": 2,
      "note": 73,
      "start": 42.0374,
      "duration": 0.0161,
      "velocity": 100,
      "chip": "ym2612"
    },
    {
      "channel": 1,
      "note": 64,
      "start": 42.0386,
      "duration": 0.0161,
      "velocity": 101,
      "chip": "ym2612"
    },
    {
      "channel": 0,
      "note": 72,
      "start": 42.0501,
      "duration": 0.0161,
      "velocity": 124,
      "chip": "ym2612"
    },
    {
      "channel": 4,
      "note": 56,
      "start": 42.0513,
      "duration": 0.0161,
      "velocity": 101,
      "chip": "ym2612"
    },
    {
      "channel": 3,
      "note": 59,
      "start": 42.0524,
      "duration": 0.0161,
      "velocity": 101,
      "chip": "ym2612"
    },
    {
      "channel": 2,
      "note": 73,
      "start": 42.0535,
      "duration": 0.0162,
      "velocity": 100,
      "chip": "ym2612"
    },
    {
      "channel": 1,
      "note": 64,
      "start": 42.0547,
      "duration": 0.0161,
      "velocity": 101,
      "chip": "ym2612"
    },
    {
      "channel": 0,
      "note": 70,
      "start": 42.0662,
      "duration": 0.0161,
      "velocity": 124,
      "chip": "ym2612"
    },
    {
      "channel": 4,
      "note": 56,
      "start": 42.0674,
      "duration": 0.0161,
      "velocity": 101,
      "chip": "ym2612"
    },
    {
      "channel": 3,
      "note": 59,
      "start": 42.0685,
      "duration": 0.0161,
      "velocity": 101,
      "chip": "ym2612"
    },
    {
      "channel": 2,
      "note": 73,
      "start": 42.0697,
      "duration": 0.0161,
      "velocity": 100,
      "chip": "ym2612"
    },
    {
      "channel": 1,
      "note": 64,
      "start": 42.0708,
      "duration": 0.0161,
      "velocity": 101,
      "chip": "ym2612"
    },
    {
      "channel": 0,
      "note": 68,
      "start": 42.0823,
      "duration": 0.0161,
      "velocity": 124,
      "chip": "ym2612"
    },
    {
      "channel": 4,
      "note": 56,
      "start": 42.0835,
      "duration": 0.0161,
      "velocity": 101,
      "chip": "ym2612"
    },
    {
      "channel": 3,
      "note": 59,
      "start": 42.0846,
      "duration": 0.0161,
      "velocity": 101,
      "chip": "ym2612"
    },
    {
      "channel": 1,
      "note": 64,
      "start": 42.0869,
      "duration": 0.0161,
      "velocity": 101,
      "chip": "ym2612"
    },
    {
      "channel": 0,
      "note": 65,
      "start": 42.0984,
      "duration": 0.0161,
      "velocity": 124,
      "chip": "ym2612"
    },
    {
      "channel": 4,
      "note": 56,
      "start": 42.0996,
      "duration": 0.0161,
      "velocity": 101,
      "chip": "ym2612"
    },
    {
      "channel": 3,
      "note": 59,
      "start": 42.1007,
      "duration": 0.0161,
      "velocity": 101,
      "chip": "ym2612"
    },
    {
      "channel": 1,
      "note": 64,
      "start": 42.103,
      "duration": 0.0161,
      "velocity": 101,
      "chip": "ym2612"
    },
    {
      "channel": 0,
      "note": 63,
      "start": 42.1145,
      "duration": 0.0153,
      "velocity": 1,
      "chip": "ym2612"
    },
    {
      "channel": 4,
      "note": 56,
      "start": 42.1157,
      "duration": 0.0153,
      "velocity": 101,
      "chip": "ym2612"
    },
    {
      "channel": 3,
      "note": 59,
      "start": 42.1168,
      "duration": 0.0153,
      "velocity": 101,
      "chip": "ym2612"
    },
    {
      "channel": 1,
      "note": 64,
      "start": 42.1191,
      "duration": 0.0153,
      "velocity": 101,
      "chip": "ym2612"
    },
    {
      "channel": 4,
      "note": 56,
      "start": 42.131,
      "duration": 0.0153,
      "velocity": 101,
      "chip": "ym2612"
    },
    {
      "channel": 3,
      "note": 59,
      "start": 42.1322,
      "duration": 0.0153,
      "velocity": 101,
      "chip": "ym2612"
    },
    {
      "channel": 1,
      "note": 64,
      "start": 42.1344,
      "duration": 0.0153,
      "velocity": 101,
      "chip": "ym2612"
    },
    {
      "channel": 4,
      "note": 56,
      "start": 42.1463,
      "duration": 0.0161,
      "velocity": 101,
      "chip": "ym2612"
    },
    {
      "channel": 3,
      "note": 59,
      "start": 42.1474,
      "duration": 0.0161,
      "velocity": 101,
      "chip": "ym2612"
    },
    {
      "channel": 1,
      "note": 64,
      "start": 42.1496,
      "duration": 0.0161,
      "velocity": 101,
      "chip": "ym2612"
    },
    {
      "channel": 4,
      "note": 56,
      "start": 42.1624,
      "duration": 0.0163,
      "velocity": 101,
      "chip": "ym2612"
    },
    {
      "channel": 3,
      "note": 59,
      "start": 42.1635,
      "duration": 0.0163,
      "velocity": 101,
      "chip": "ym2612"
    },
    {
      "channel": 1,
      "note": 64,
      "start": 42.1657,
      "duration": 0.0163,
      "velocity": 101,
      "chip": "ym2612"
    },
    {
      "channel": 4,
      "note": 56,
      "start": 42.1786,
      "duration": 0.0163,
      "velocity": 101,
      "chip": "ym2612"
    },
    {
      "channel": 3,
      "note": 59,
      "start": 42.1798,
      "duration": 0.0163,
      "velocity": 101,
      "chip": "ym2612"
    },
    {
      "channel": 1,
      "note": 64,
      "start": 42.1821,
      "duration": 0.0165,
      "velocity": 101,
      "chip": "ym2612"
    },
    {
      "channel": 4,
      "note": 56,
      "start": 42.1949,
      "duration": 0.0157,
      "velocity": 101,
      "chip": "ym2612"
    },
    {
      "channel": 3,
      "note": 59,
      "start": 42.1961,
      "duration": 0.0157,
      "velocity": 101,
      "chip": "ym2612"
    },
    {
      "channel": 2,
      "note": 61,
      "start": 42.1975,
      "duration": 0.0155,
      "velocity": 100,
      "chip": "ym2612"
    },
    {
      "channel": 1,
      "note": 64,
      "start": 42.1986,
      "duration": 0.0155,
      "velocity": 101,
      "chip": "ym2612"
    },
    {
      "channel": 4,
      "note": 56,
      "start": 42.2106,
      "duration": 0.018,
      "velocity": 101,
      "chip": "ym2612"
    },
    {
      "channel": 3,
      "note": 59,
      "start": 42.2118,
      "duration": 0.018,
      "velocity": 101,
      "chip": "ym2612"
    },
    {
      "channel": 2,
      "note": 61,
      "start": 42.213,
      "duration": 0.0179,
      "velocity": 100,
      "chip": "ym2612"
    },
    {
      "channel": 1,
      "note": 64,
      "start": 42.2141,
      "duration": 0.0179,
      "velocity": 101,
      "chip": "ym2612"
    },
    {
      "channel": 4,
      "note": 56,
      "start": 42.2286,
      "duration": 0.0167,
      "velocity": 101,
      "chip": "ym2612"
    },
    {
      "channel": 3,
      "note": 59,
      "start": 42.2298,
      "duration": 0.0167,
      "velocity": 101,
      "chip": "ym2612"
    },
    {
      "channel": 2,
      "note": 61,
      "start": 42.2309,
      "duration": 0.0167,
      "velocity": 100,
      "chip": "ym2612"
    },
    {
      "channel": 1,
      "note": 64,
      "start": 42.2321,
      "duration": 0.0167,
      "velocity": 101,
      "chip": "ym2612"
    },
    {
      "channel": 4,
      "note": 56,
      "start": 42.2453,
      "duration": 0.016,
      "velocity": 101,
      "chip": "ym2612"
    },
    {
      "channel": 3,
      "note": 59,
      "start": 42.2465,
      "duration": 0.016,
      "velocity": 101,
      "chip": "ym2612"
    },
    {
      "channel": 2,
      "note": 61,
      "start": 42.2476,
      "duration": 0.016,
      "velocity": 100,
      "chip": "ym2612"
    },
    {
      "channel": 1,
      "note": 64,
      "start": 42.2488,
      "duration": 0.016,
      "velocity": 101,
      "chip": "ym2612"
    },
    {
      "channel": 4,
      "note": 56,
      "start": 42.2613,
      "duration": 0.014,
      "velocity": 101,
      "chip": "ym2612"
    },
    {
      "channel": 3,
      "note": 59,
      "start": 42.2625,
      "duration": 0.014,
      "velocity": 101,
      "chip": "ym2612"
    },
    {
      "channel": 2,
      "note": 61,
      "start": 42.2636,
      "duration": 0.014,
      "velocity": 100,
      "chip": "ym2612"
    },
    {
      "channel": 1,
      "note": 64,
      "start": 42.2648,
      "duration": 0.014,
      "velocity": 101,
      "chip": "ym2612"
    },
    {
      "channel": 4,
      "note": 56,
      "start": 42.2754,
      "duration": 0.0186,
      "velocity": 101,
      "chip": "ym2612"
    },
    {
      "channel": 3,
      "note": 59,
      "start": 42.2765,
      "duration": 0.0186,
      "velocity": 101,
      "chip": "ym2612"
    },
    {
      "channel": 2,
      "note": 61,
      "start": 42.2776,
      "duration": 0.0185,
      "velocity": 100,
      "chip": "ym2612"
    },
    {
      "channel": 1,
      "note": 64,
      "start": 42.2788,
      "duration": 0.0185,
      "velocity": 101,
      "chip": "ym2612"
    },
    {
      "channel": 4,
      "note": 56,
      "start": 42.2939,
      "duration": 0.0134,
      "velocity": 101,
      "chip": "ym2612"
    },
    {
      "channel": 3,
      "note": 59,
      "start": 42.2951,
      "duration": 0.0161,
      "velocity": 101,
      "chip": "ym2612"
    },
    {
      "channel": 2,
      "note": 61,
      "start": 42.2961,
      "duration": 0.0161,
      "velocity": 100,
      "chip": "ym2612"
    },
    {
      "channel": 1,
      "note": 64,
      "start": 42.2973,
      "duration": 0.0162,
      "velocity": 101,
      "chip": "ym2612"
    },
    {
      "channel": 4,
      "note": 56,
      "start": 42.3073,
      "duration": 0.0161,
      "velocity": 101,
      "chip": "ym2612"
    },
    {
      "channel": 3,
      "note": 59,
      "start": 42.3112,
      "duration": 0.0157,
      "velocity": 101,
      "chip": "ym2612"
    },
    {
      "channel": 1,
      "note": 64,
      "start": 42.3134,
      "duration": 0.0157,
      "velocity": 101,
      "chip": "ym2612"
    },
    {
      "channel": 4,
      "note": 56,
      "start": 42.3234,
      "duration": 0.0161,
      "velocity": 101,
      "chip": "ym2612"
    },
    {
      "channel": 3,
      "note": 59,
      "start": 42.3269,
      "duration": 0.0137,
      "velocity": 101,
      "chip": "ym2612"
    },
    {
      "channel": 1,
      "note": 64,
      "start": 42.3292,
      "duration": 0.0141,
      "velocity": 101,
      "chip": "ym2612"
    },
    {
      "channel": 4,
      "note": 56,
      "start": 42.3395,
      "duration": 0.0161,
      "velocity": 101,
      "chip": "ym2612"
    },
    {
      "channel": 3,
      "note": 59,
      "start": 42.3406,
      "duration": 0.0161,
      "velocity": 101,
      "chip": "ym2612"
    },
    {
      "channel": 1,
      "note": 64,
      "start": 42.3432,
      "duration": 0.0185,
      "velocity": 101,
      "chip": "ym2612"
    },
    {
      "channel": 4,
      "note": 56,
      "start": 42.3556,
      "duration": 0.0161,
      "velocity": 101,
      "chip": "ym2612"
    },
    {
      "channel": 3,
      "note": 59,
      "start": 42.3567,
      "duration": 0.0161,
      "velocity": 101,
      "chip": "ym2612"
    },
    {
      "channel": 1,
      "note": 64,
      "start": 42.3617,
      "duration": 0.0161,
      "velocity": 101,
      "chip": "ym2612"
    },
    {
      "channel": 4,
      "note": 56,
      "start": 42.3717,
      "duration": 0.0161,
      "velocity": 101,
      "chip": "ym2612"
    },
    {
      "channel": 3,
      "note": 59,
      "start": 42.3728,
      "duration": 0.0161,
      "velocity": 101,
      "chip": "ym2612"
    },
    {
      "channel": 1,
      "note": 64,
      "start": 42.3778,
      "duration": 0.0157,
      "velocity": 101,
      "chip": "ym2612"
    },
    {
      "channel": 4,
      "note": 56,
      "start": 42.3878,
      "duration": 0.0161,
      "velocity": 101,
      "chip": "ym2612"
    },
    {
      "channel": 3,
      "note": 59,
      "start": 42.3889,
      "duration": 0.0161,
      "velocity": 101,
      "chip": "ym2612"
    },
    {
      "channel": 1,
      "note": 64,
      "start": 42.3935,
      "duration": 0.0137,
      "velocity": 101,
      "chip": "ym2612"
    },
    {
      "channel": 4,
      "note": 56,
      "start": 42.4038,
      "duration": 0.0163,
      "velocity": 101,
      "chip": "ym2612"
    },
    {
      "channel": 3,
      "note": 59,
      "start": 42.405,
      "duration": 0.0166,
      "velocity": 101,
      "chip": "ym2612"
    },
    {
      "channel": 1,
      "note": 64,
      "start": 42.4073,
      "duration": 0.0171,
      "velocity": 101,
      "chip": "ym2612"
    },
    {
      "channel": 4,
      "note": 58,
      "start": 42.4202,
      "duration": 0.0159,
      "velocity": 101,
      "chip": "ym2612"
    },
    {
      "channel": 3,
      "note": 61,
      "start": 42.4217,
      "duration": 0.0156,
      "velocity": 101,
      "chip": "ym2612"
    },
    {
      "channel": 2,
      "note": 59,
      "start": 42.4231,
      "duration": 0.0154,
      "velocity": 100,
      "chip": "ym2612"
    },
    {
      "channel": 1,
      "note": 66,
      "start": 42.4272,
      "duration": 0.0125,
      "velocity": 101,
      "chip": "ym2612"
    },
    {
      "channel": 4,
      "note": 58,
      "start": 42.4361,
      "duration": 0.0161,
      "velocity": 101,
      "chip": "ym2612"
    },
    {
      "channel": 3,
      "note": 61,
      "start": 42.4373,
      "duration": 0.016,
      "velocity": 101,
      "chip": "ym2612"
    },
    {
      "channel": 2,
      "note": 59,
      "start": 42.4385,
      "duration": 0.0159,
      "velocity": 100,
      "chip": "ym2612"
    },
    {
      "channel": 1,
      "note": 66,
      "start": 42.4397,
      "duration": 0.0158,
      "velocity": 101,
      "chip": "ym2612"
    },
    {
      "channel": 4,
      "note": 58,
      "start": 42.4522,
      "duration": 0.0161,
      "velocity": 101,
      "chip": "ym2612"
    },
    {
      "channel": 3,
      "note": 61,
      "start": 42.4533,
      "duration": 0.0161,
      "velocity": 101,
      "chip": "ym2612"
    },
    {
      "channel": 2,
      "note": 59,
      "start": 42.4544,
      "duration": 0.0161,
      "velocity": 100,
      "chip": "ym2612"
    },
    {
      "channel": 1,
      "note": 66,
      "start": 42.4556,
      "duration": 0.0161,
      "velocity": 101,
      "chip": "ym2612"
    },
    {
      "channel": 4,
      "note": 58,
      "start": 42.4683,
      "duration": 0.0161,
      "velocity": 101,
      "chip": "ym2612"
    },
    {
      "channel": 3,
      "note": 61,
      "start": 42.4694,
      "duration": 0.0161,
      "velocity": 101,
      "chip": "ym2612"
    },
    {
      "channel": 2,
      "note": 59,
      "start": 42.4705,
      "duration": 0.0162,
      "velocity": 100,
      "chip": "ym2612"
    },
    {
      "channel": 1,
      "note": 66,
      "start": 42.4717,
      "duration": 0.0161,
      "velocity": 101,
      "chip": "ym2612"
    },
    {
      "channel": 4,
      "note": 58,
      "start": 42.4844,
      "duration": 0.0161,
      "velocity": 101,
      "chip": "ym2612"
    },
    {
      "channel": 3,
      "note": 61,
      "start": 42.4855,
      "duration": 0.0161,
      "velocity": 101,
      "chip": "ym2612"
    },
    {
      "channel": 2,
      "note": 59,
      "start": 42.4867,
      "duration": 0.0161,
      "velocity": 100,
      "chip": "ym2612"
    },
    {
      "channel": 1,
      "note": 66,
      "start": 42.4878,
      "duration": 0.0161,
      "velocity": 101,
      "chip": "ym2612"
    },
    {
      "channel": 4,
      "note": 58,
      "start": 42.5005,
      "duration": 0.0161,
      "velocity": 101,
      "chip": "ym2612"
    },
    {
      "channel": 3,
      "note": 61,
      "start": 42.5016,
      "duration": 0.0161,
      "velocity": 101,
      "chip": "ym2612"
    },
    {
      "channel": 2,
      "note": 59,
      "start": 42.5028,
      "duration": 0.0161,
      "velocity": 100,
      "chip": "ym2612"
    },
    {
      "channel": 1,
      "note": 66,
      "start": 42.5039,
      "duration": 0.0161,
      "velocity": 101,
      "chip": "ym2612"
    },
    {
      "channel": 4,
      "note": 58,
      "start": 42.5166,
      "duration": 0.0161,
      "velocity": 101,
      "chip": "ym2612"
    },
    {
      "channel": 3,
      "note": 61,
      "start": 42.5177,
      "duration": 0.0161,
      "velocity": 101,
      "chip": "ym2612"
    },
    {
      "channel": 2,
      "note": 59,
      "start": 42.5188,
      "duration": 0.0161,
      "velocity": 100,
      "chip": "ym2612"
    },
    {
      "channel": 1,
      "note": 66,
      "start": 42.52,
      "duration": 0.0161,
      "velocity": 101,
      "chip": "ym2612"
    },
    {
      "channel": 4,
      "note": 58,
      "start": 42.5327,
      "duration": 0.0161,
      "velocity": 101,
      "chip": "ym2612"
    },
    {
      "channel": 3,
      "note": 61,
      "start": 42.5338,
      "duration": 0.0161,
      "velocity": 101,
      "chip": "ym2612"
    },
    {
      "channel": 1,
      "note": 66,
      "start": 42.5361,
      "duration": 0.0161,
      "velocity": 101,
      "chip": "ym2612"
    },
    {
      "channel": 4,
      "note": 58,
      "start": 42.5488,
      "duration": 0.0161,
      "velocity": 101,
      "chip": "ym2612"
    },
    {
      "channel": 3,
      "note": 61,
      "start": 42.5499,
      "duration": 0.0161,
      "velocity": 101,
      "chip": "ym2612"
    },
    {
      "channel": 1,
      "note": 66,
      "start": 42.5522,
      "duration": 0.0161,
      "velocity": 101,
      "chip": "ym2612"
    },
    {
      "channel": 4,
      "note": 58,
      "start": 42.5649,
      "duration": 0.0161,
      "velocity": 101,
      "chip": "ym2612"
    },
    {
      "channel": 3,
      "note": 61,
      "start": 42.566,
      "duration": 0.0161,
      "velocity": 101,
      "chip": "ym2612"
    },
    {
      "channel": 1,
      "note": 66,
      "start": 42.5683,
      "duration": 0.0161,
      "velocity": 101,
      "chip": "ym2612"
    },
    {
      "channel": 4,
      "note": 58,
      "start": 42.5809,
      "duration": 0.0162,
      "velocity": 101,
      "chip": "ym2612"
    },
    {
      "channel": 3,
      "note": 61,
      "start": 42.5821,
      "duration": 0.0161,
      "velocity": 101,
      "chip": "ym2612"
    },
    {
      "channel": 1,
      "note": 66,
      "start": 42.5844,
      "duration": 0.0161,
      "velocity": 101,
      "chip": "ym2612"
    },
    {
      "channel": 4,
      "note": 58,
      "start": 42.5971,
      "duration": 0.0161,
      "velocity": 101,
      "chip": "ym2612"
    },
    {
      "channel": 3,
      "note": 61,
      "start": 42.5982,
      "duration": 0.0161,
      "velocity": 101,
      "chip": "ym2612"
    },
    {
      "channel": 1,
      "note": 66,
      "start": 42.6005,
      "duration": 0.0161,
      "velocity": 101,
      "chip": "ym2612"
    },
    {
      "channel": 4,
      "note": 58,
      "start": 42.6132,
      "duration": 0.0161,
      "velocity": 101,
      "chip": "ym2612"
    },
    {
      "channel": 3,
      "note": 61,
      "start": 42.6143,
      "duration": 0.0161,
      "velocity": 101,
      "chip": "ym2612"
    },
    {
      "channel": 1,
      "note": 66,
      "start": 42.6166,
      "duration": 0.0162,
      "velocity": 101,
      "chip": "ym2612"
    },
    {
      "channel": 4,
      "note": 58,
      "start": 42.6293,
      "duration": 0.0195,
      "velocity": 101,
      "chip": "ym2612"
    },
    {
      "channel": 3,
      "note": 61,
      "start": 42.6304,
      "duration": 0.0195,
      "velocity": 101,
      "chip": "ym2612"
    },
    {
      "channel": 1,
      "note": 66,
      "start": 42.6327,
      "duration": 0.0198,
      "velocity": 101,
      "chip": "ym2612"
    },
    {
      "channel": 0,
      "note": 36,
      "start": 42.6477,
      "duration": 0.0145,
      "velocity": 115,
      "chip": "ym2612"
    },
    {
      "channel": 4,
      "note": 58,
      "start": 42.6488,
      "duration": 0.0145,
      "velocity": 101,
      "chip": "ym2612"
    },
    {
      "channel": 3,
      "note": 61,
      "start": 42.65,
      "duration": 0.0145,
      "velocity": 101,
      "chip": "ym2612"
    },
    {
      "channel": 2,
      "note": 59,
      "start": 42.6514,
      "duration": 0.0143,
      "velocity": 100,
      "chip": "ym2612"
    },
    {
      "channel": 1,
      "note": 66,
      "start": 42.6525,
      "duration": 0.0143,
      "velocity": 101,
      "chip": "ym2612"
    },
    {
      "channel": 0,
      "note": 36,
      "start": 42.6622,
      "duration": 0.0159,
      "velocity": 115,
      "chip": "ym2612"
    },
    {
      "channel": 4,
      "note": 58,
      "start": 42.6633,
      "duration": 0.0159,
      "velocity": 101,
      "chip": "ym2612"
    },
    {
      "channel": 3,
      "note": 61,
      "start": 42.6645,
      "duration": 0.0159,
      "velocity": 101,
      "chip": "ym2612"
    },
    {
      "channel": 2,
      "note": 59,
      "start": 42.6657,
      "duration": 0.0159,
      "velocity": 100,
      "chip": "ym2612"
    },
    {
      "channel": 1,
      "note": 66,
      "start": 42.6668,
      "duration": 0.0158,
      "velocity": 101,
      "chip": "ym2612"
    },
    {
      "channel": 0,
      "note": 37,
      "start": 42.6781,
      "duration": 0.0178,
      "velocity": 115,
      "chip": "ym2612"
    },
    {
      "channel": 4,
      "note": 58,
      "start": 42.6792,
      "duration": 0.0177,
      "velocity": 101,
      "chip": "ym2612"
    },
    {
      "channel": 3,
      "note": 61,
      "start": 42.6804,
      "duration": 0.0178,
      "velocity": 101,
      "chip": "ym2612"
    },
    {
      "channel": 2,
      "note": 59,
      "start": 42.6815,
      "duration": 0.0177,
      "velocity": 100,
      "chip": "ym2612"
    },
    {
      "channel": 1,
      "note": 66,
      "start": 42.6827,
      "duration": 0.0178,
      "velocity": 101,
      "chip": "ym2612"
    },
    {
      "channel": 0,
      "note": 37,
      "start": 42.6958,
      "duration": 0.0167,
      "velocity": 115,
      "chip": "ym2612"
    },
    {
      "channel": 4,
      "note": 58,
      "start": 42.697,
      "duration": 0.0167,
      "velocity": 101,
      "chip": "ym2612"
    },
    {
      "channel": 3,
      "note": 61,
      "start": 42.6981,
      "duration": 0.0167,
      "velocity": 101,
      "chip": "ym2612"
    },
    {
      "channel": 2,
      "note": 59,
      "start": 42.6993,
      "duration": 0.0167,
      "velocity": 100,
      "chip": "ym2612"
    },
    {
      "channel": 1,
      "note": 66,
      "start": 42.7004,
      "duration": 0.0167,
      "velocity": 101,
      "chip": "ym2612"
    },
    {
      "channel": 0,
      "note": 38,
      "start": 42.7125,
      "duration": 0.0163,
      "velocity": 115,
      "chip": "ym2612"
    },
    {
      "channel": 4,
      "note": 58,
      "start": 42.7136,
      "duration": 0.0163,
      "velocity": 101,
      "chip": "ym2612"
    },
    {
      "channel": 3,
      "note": 61,
      "start": 42.7148,
      "duration": 0.0163,
      "velocity": 101,
      "chip": "ym2612"
    },
    {
      "channel": 2,
      "note": 59,
      "start": 42.7159,
      "duration": 0.0163,
      "velocity": 100,
      "chip": "ym2612"
    },
    {
      "channel": 1,
      "note": 66,
      "start": 42.7171,
      "duration": 0.0163,
      "velocity": 101,
      "chip": "ym2612"
    },
    {
      "channel": 0,
      "note": 38,
      "start": 42.7288,
      "duration": 0.014,
      "velocity": 115,
      "chip": "ym2612"
    },
    {
      "channel": 4,
      "note": 58,
      "start": 42.7299,
      "duration": 0.014,
      "velocity": 101,
      "chip": "ym2612"
    },
    {
      "channel": 3,
      "note": 61,
      "start": 42.7311,
      "duration": 0.014,
      "velocity": 101,
      "chip": "ym2612"
    },
    {
      "channel": 2,
      "note": 59,
      "start": 42.7322,
      "duration": 0.014,
      "velocity": 100,
      "chip": "ym2612"
    },
    {
      "channel": 1,
      "note": 66,
      "start": 42.7334,
      "duration": 0.014,
      "velocity": 101,
      "chip": "ym2612"
    },
    {
      "channel": 0,
      "note": 39,
      "start": 42.7428,
      "duration": 0.0185,
      "velocity": 115,
      "chip": "ym2612"
    },
    {
      "channel": 4,
      "note": 58,
      "start": 42.7439,
      "duration": 0.0186,
      "velocity": 101,
      "chip": "ym2612"
    },
    {
      "channel": 3,
      "note": 61,
      "start": 42.7451,
      "duration": 0.0186,
      "velocity": 101,
      "chip": "ym2612"
    },
    {
      "channel": 2,
      "note": 59,
      "start": 42.7462,
      "duration": 0.0186,
      "velocity": 100,
      "chip": "ym2612"
    },
    {
      "channel": 1,
      "note": 66,
      "start": 42.7473,
      "duration": 0.0186,
      "velocity": 101,
      "chip": "ym2612"
    },
    {
      "channel": 0,
      "note": 39,
      "start": 42.7613,
      "duration": 0.0161,
      "velocity": 115,
      "chip": "ym2612"
    },
    {
      "channel": 4,
      "note": 58,
      "start": 42.7625,
      "duration": 0.0161,
      "velocity": 101,
      "chip": "ym2612"
    },
    {
      "channel": 3,
      "note": 61,
      "start": 42.7636,
      "duration": 0.0161,
      "velocity": 101,
      "chip": "ym2612"
    },
    {
      "channel": 1,
      "note": 66,
      "start": 42.7659,
      "duration": 0.0161,
      "velocity": 101,
      "chip": "ym2612"
    },
    {
      "channel": 0,
      "note": 40,
      "start": 42.7774,
      "duration": 0.0134,
      "velocity": 115,
      "chip": "ym2612"
    },
    {
      "channel": 4,
      "note": 58,
      "start": 42.7786,
      "duration": 0.0158,
      "velocity": 101,
      "chip": "ym2612"
    },
    {
      "channel": 3,
      "note": 61,
      "start": 42.7797,
      "duration": 0.0158,
      "velocity": 101,
      "chip": "ym2612"
    },
    {
      "channel": 1,
      "note": 66,
      "start": 42.782,
      "duration": 0.0157,
      "velocity": 101,
      "chip": "ym2612"
    },
    {
      "channel": 0,
      "note": 40,
      "start": 42.7908,
      "duration": 0.0161,
      "velocity": 115,
      "chip": "ym2612"
    },
    {
      "channel": 4,
      "note": 58,
      "start": 42.7944,
      "duration": 0.014,
      "velocity": 101,
      "chip": "ym2612"
    },
    {
      "channel": 3,
      "note": 61,
      "start": 42.7955,
      "duration": 0.014,
      "velocity": 101,
      "chip": "ym2612"
    },
    {
      "channel": 1,
      "note": 66,
      "start": 42.7977,
      "duration": 0.0141,
      "velocity": 101,
      "chip": "ym2612"
    },
    {
      "channel": 0,
      "note": 40,
      "start": 42.8069,
      "duration": 0.0161,
      "velocity": 115,
      "chip": "ym2612"
    },
    {
      "channel": 4,
      "note": 58,
      "start": 42.8083,
      "duration": 0.0158,
      "velocity": 101,
      "chip": "ym2612"
    },
    {
      "channel": 3,
      "note": 61,
      "start": 42.8095,
      "duration": 0.0185,
      "velocity": 101,
      "chip": "ym2612"
    },
    {
      "channel": 1,
      "note": 66,
      "start": 42.8118,
      "duration": 0.0185,
      "velocity": 101,
      "chip": "ym2612"
    },
    {
      "channel": 0,
      "note": 41,
      "start": 42.823,
      "duration": 0.0161,
      "velocity": 115,
      "chip": "ym2612"
    },
    {
      "channel": 4,
      "note": 58,
      "start": 42.8241,
      "duration": 0.0161,
      "velocity": 101,
      "chip": "ym2612"
    },
    {
      "channel": 3,
      "note": 61,
      "start": 42.828,
      "duration": 0.0161,
      "velocity": 101,
      "chip": "ym2612"
    },
    {
      "channel": 1,
      "note": 66,
      "start": 42.8303,
      "duration": 0.0161,
      "velocity": 101,
      "chip": "ym2612"
    },
    {
      "channel": 0,
      "note": 41,
      "start": 42.8391,
      "duration": 0.0161,
      "velocity": 115,
      "chip": "ym2612"
    },
    {
      "channel": 4,
      "note": 58,
      "start": 42.8402,
      "duration": 0.0161,
      "velocity": 101,
      "chip": "ym2612"
    },
    {
      "channel": 3,
      "note": 61,
      "start": 42.8441,
      "duration": 0.0134,
      "velocity": 101,
      "chip": "ym2612"
    },
    {
      "channel": 1,
      "note": 66,
      "start": 42.8464,
      "duration": 0.0157,
      "velocity": 101,
      "chip": "ym2612"
    },
    {
      "channel": 0,
      "note": 42,
      "start": 42.8552,
      "duration": 0.0178,
      "velocity": 124,
      "chip": "ym2612"
    },
    {
      "channel": 4,
      "note": 58,
      "start": 42.8563,
      "duration": 0.0179,
      "velocity": 101,
      "chip": "ym2612"
    },
    {
      "channel": 3,
      "note": 61,
      "start": 42.8575,
      "duration": 0.0182,
      "velocity": 101,
      "chip": "ym2612"
    },
    {
      "channel": 1,
      "note": 66,
      "start": 42.8621,
      "duration": 0.0161,
      "velocity": 101,
      "chip": "ym2612"
    },
    {
      "channel": 0,
      "note": 84,
      "start": 42.8731,
      "duration": 0.0144,
      "velocity": 124,
      "chip": "ym2612"
    },
    {
      "channel": 4,
      "note": 58,
      "start": 42.8742,
      "duration": 0.0144,
      "velocity": 101,
      "chip": "ym2612"
    },
    {
      "channel": 3,
      "note": 61,
      "start": 42.8757,
      "duration": 0.0141,
      "velocity": 101,
      "chip": "ym2612"
    },
    {
      "channel": 2,
      "note": 71,
      "start": 42.8771,
      "duration": 0.0139,
      "velocity": 100,
      "chip": "ym2612"
    },
    {
      "channel": 1,
      "note": 66,
      "start": 42.8782,
      "duration": 0.0166,
      "velocity": 101,
      "chip": "ym2612"
    },
    {
      "channel": 0,
      "note": 82,
      "start": 42.8874,
      "duration": 0.016,
      "velocity": 124,
      "chip": "ym2612"
    },
    {
      "channel": 4,
      "note": 58,
      "start": 42.8886,
      "duration": 0.0161,
      "velocity": 101,
      "chip": "ym2612"
    },
    {
      "channel": 3,
      "note": 61,
      "start": 42.8897,
      "duration": 0.0161,
      "velocity": 101,
      "chip": "ym2612"
    },
    {
      "channel": 2,
      "note": 71,
      "start": 42.8909,
      "duration": 0.016,
      "velocity": 100,
      "chip": "ym2612"
    },
    {
      "channel": 1,
      "note": 66,
      "start": 42.8948,
      "duration": 0.016,
      "velocity": 101,
      "chip": "ym2612"
    },
    {
      "channel": 0,
      "note": 80,
      "start": 42.9034,
      "duration": 0.0161,
      "velocity": 124,
      "chip": "ym2612"
    },
    {
      "channel": 4,
      "note": 58,
      "start": 42.9047,
      "duration": 0.0161,
      "velocity": 101,
      "chip": "ym2612"
    },
    {
      "channel": 3,
      "note": 61,
      "start": 42.9058,
      "duration": 0.0161,
      "velocity": 101,
      "chip": "ym2612"
    },
    {
      "channel": 2,
      "note": 71,
      "start": 42.9069,
      "duration": 0.0161,
      "velocity": 100,
      "chip": "ym2612"
    },
    {
      "channel": 1,
      "note": 66,
      "start": 42.9108,
      "duration": 0.0133,
      "velocity": 101,
      "chip": "ym2612"
    },
    {
      "channel": 0,
      "note": 77,
      "start": 42.9195,
      "duration": 0.0162,
      "velocity": 124,
      "chip": "ym2612"
    },
    {
      "channel": 4,
      "note": 58,
      "start": 42.9208,
      "duration": 0.0161,
      "velocity": 101,
      "chip": "ym2612"
    },
    {
      "channel": 3,
      "note": 61,
      "start": 42.9219,
      "duration": 0.0161,
      "velocity": 101,
      "chip": "ym2612"
    },
    {
      "channel": 2,
      "note": 71,
      "start": 42.923,
      "duration": 0.0161,
      "velocity": 100,
      "chip": "ym2612"
    },
    {
      "channel": 1,
      "note": 66,
      "start": 42.9241,
      "duration": 0.0162,
      "velocity": 101,
      "chip": "ym2612"
    },
    {
      "channel": 0,
      "note": 75,
      "start": 42.9357,
      "duration": 0.0161,
      "velocity": 124,
      "chip": "ym2612"
    },
    {
      "channel": 4,
      "note": 58,
      "start": 42.9368,
      "duration": 0.0161,
      "velocity": 101,
      "chip": "ym2612"
    },
    {
      "channel": 3,
      "note": 61,
      "start": 42.938,
      "duration": 0.0161,
      "velocity": 101,
      "chip": "ym2612"
    },
    {
      "channel": 2,
      "note": 71,
      "start": 42.9391,
      "duration": 0.0161,
      "velocity": 100,
      "chip": "ym2612"
    },
    {
      "channel": 1,
      "note": 66,
      "start": 42.9403,
      "duration": 0.0161,
      "velocity": 101,
      "chip": "ym2612"
    },
    {
      "channel": 0,
      "note": 72,
      "start": 42.9518,
      "duration": 0.0161,
      "velocity": 124,
      "chip": "ym2612"
    },
    {
      "channel": 4,
      "note": 58,
      "start": 42.9529,
      "duration": 0.0161,
      "velocity": 101,
      "chip": "ym2612"
    },
    {
      "channel": 3,
      "note": 61,
      "start": 42.9541,
      "duration": 0.0161,
      "velocity": 101,
      "chip": "ym2612"
    },
    {
      "channel": 2,
      "note": 71,
      "start": 42.9552,
      "duration": 0.0161,
      "velocity": 100,
      "chip": "ym2612"
    },
    {
      "channel": 1,
      "note": 66,
      "start": 42.9564,
      "duration": 0.0161,
      "velocity": 101,
      "chip": "ym2612"
    },
    {
      "channel": 0,
      "note": 70,
      "start": 42.9679,
      "duration": 0.0161,
      "velocity": 124,
      "chip": "ym2612"
    },
    {
      "channel": 4,
      "note": 58,
      "start": 42.969,
      "duration": 0.0161,
      "velocity": 101,
      "chip": "ym2612"
    },
    {
      "channel": 3,
      "note": 61,
      "start": 42.9702,
      "duration": 0.0161,
      "velocity": 101,
      "chip": "ym2612"
    },
    {
      "channel": 2,
      "note": 71,
      "start": 42.9713,
      "duration": 0.0161,
      "velocity": 100,
      "chip": "ym2612"
    },
    {
      "channel": 1,
      "note": 66,
      "start": 42.9725,
      "duration": 0.0161,
      "velocity": 101,
      "chip": "ym2612"
    },
    {
      "channel": 0,
      "note": 68,
      "start": 42.984,
      "duration": 0.0161,
      "velocity": 124,
      "chip": "ym2612"
    },
    {
      "channel": 4,
      "note": 58,
      "start": 42.9851,
      "duration": 0.0161,
      "velocity": 101,
      "chip": "ym2612"
    },
    {
      "channel": 3,
      "note": 61,
      "start": 42.9863,
      "duration": 0.0161,
      "velocity": 101,
      "chip": "ym2612"
    },
    {
      "channel": 1,
      "note": 66,
      "start": 42.9886,
      "duration": 0.0161,
      "velocity": 101,
      "chip": "ym2612"
    },
    {
      "channel": 0,
      "note": 65,
      "start": 43.0001,
      "duration": 0.0161,
      "velocity": 124,
      "chip": "ym2612"
    },
    {
      "channel": 4,
      "note": 58,
      "start": 43.0012,
      "duration": 0.0161,
      "velocity": 101,
      "chip": "ym2612"
    },
    {
      "channel": 3,
      "note": 61,
      "start": 43.0024,
      "duration": 0.0161,
      "velocity": 101,
      "chip": "ym2612"
    },
    {
      "channel": 1,
      "note": 66,
      "start": 43.0047,
      "duration": 0.0161,
      "velocity": 101,
      "chip": "ym2612"
    },
    {
      "channel": 0,
      "note": 63,
      "start": 43.0162,
      "duration": 0.0153,
      "velocity": 1,
      "chip": "ym2612"
    },
    {
      "channel": 4,
      "note": 58,
      "start": 43.0173,
      "duration": 0.0153,
      "velocity": 101,
      "chip": "ym2612"
    },
    {
      "channel": 3,
      "note": 61,
      "start": 43.0185,
      "duration": 0.0153,
      "velocity": 101,
      "chip": "ym2612"
    },
    {
      "channel": 1,
      "note": 66,
      "start": 43.0208,
      "duration": 0.0153,
      "velocity": 101,
      "chip": "ym2612"
    },
    {
      "channel": 4,
      "note": 58,
      "start": 43.0327,
      "duration": 0.0153,
      "velocity": 101,
      "chip": "ym2612"
    },
    {
      "channel": 3,
      "note": 61,
      "start": 43.0338,
      "duration": 0.0153,
      "velocity": 101,
      "chip": "ym2612"
    },
    {
      "channel": 1,
      "note": 66,
      "start": 43.0361,
      "duration": 0.0152,
      "velocity": 101,
      "chip": "ym2612"
    },
    {
      "channel": 4,
      "note": 58,
      "start": 43.0479,
      "duration": 0.0161,
      "velocity": 101,
      "chip": "ym2612"
    },
    {
      "channel": 3,
      "note": 61,
      "start": 43.0491,
      "duration": 0.0161,
      "velocity": 101,
      "chip": "ym2612"
    },
    {
      "channel": 1,
      "note": 66,
      "start": 43.0513,
      "duration": 0.0161,
      "velocity": 101,
      "chip": "ym2612"
    },
    {
      "channel": 4,
      "note": 58,
      "start": 43.064,
      "duration": 0.0161,
      "velocity": 101,
      "chip": "ym2612"
    },
    {
      "channel": 3,
      "note": 61,
      "start": 43.0652,
      "duration": 0.0161,
      "velocity": 101,
      "chip": "ym2612"
    },
    {
      "channel": 1,
      "note": 66,
      "start": 43.0674,
      "duration": 0.0161,
      "velocity": 101,
      "chip": "ym2612"
    },
    {
      "channel": 4,
      "note": 58,
      "start": 43.0801,
      "duration": 0.0195,
      "velocity": 101,
      "chip": "ym2612"
    },
    {
      "channel": 3,
      "note": 61,
      "start": 43.0812,
      "duration": 0.0195,
      "velocity": 101,
      "chip": "ym2612"
    },
    {
      "channel": 1,
      "note": 66,
      "start": 43.0835,
      "duration": 0.0198,
      "velocity": 101,
      "chip": "ym2612"
    },
    {
      "channel": 0,
      "note": 84,
      "start": 43.0985,
      "duration": 0.0144,
      "velocity": 124,
      "chip": "ym2612"
    },
    {
      "channel": 4,
      "note": 58,
      "start": 43.0996,
      "duration": 0.0144,
      "velocity": 101,
      "chip": "ym2612"
    },
    {
      "channel": 3,
      "note": 61,
      "start": 43.1008,
      "duration": 0.0144,
      "velocity": 101,
      "chip": "ym2612"
    },
    {
      "channel": 2,
      "note": 59,
      "start": 43.1022,
      "duration": 0.0142,
      "velocity": 100,
      "chip": "ym2612"
    },
    {
      "channel": 1,
      "note": 66,
      "start": 43.1033,
      "duration": 0.0142,
      "velocity": 101,
      "chip": "ym2612"
    },
    {
      "channel": 0,
      "note": 82,
      "start": 43.1129,
      "duration": 0.016,
      "velocity": 124,
      "chip": "ym2612"
    },
    {
      "channel": 4,
      "note": 58,
      "start": 43.114,
      "duration": 0.016,
      "velocity": 101,
      "chip": "ym2612"
    },
    {
      "channel": 3,
      "note": 61,
      "start": 43.1152,
      "duration": 0.016,
      "velocity": 101,
      "chip": "ym2612"
    },
    {
      "channel": 2,
      "note": 59,
      "start": 43.1164,
      "duration": 0.016,
      "velocity": 100,
      "chip": "ym2612"
    },
    {
      "channel": 1,
      "note": 66,
      "start": 43.1175,
      "duration": 0.016,
      "velocity": 101,
      "chip": "ym2612"
    },
    {
      "channel": 0,
      "note": 80,
      "start": 43.1289,
      "duration": 0.0161,
      "velocity": 124,
      "chip": "ym2612"
    },
    {
      "channel": 4,
      "note": 58,
      "start": 43.13,
      "duration": 0.0161,
      "velocity": 101,
      "chip": "ym2612"
    },
    {
      "channel": 3,
      "note": 61,
      "start": 43.1312,
      "duration": 0.0161,
      "velocity": 101,
      "chip": "ym2612"
    },
    {
      "channel": 2,
      "note": 59,
      "start": 43.1323,
      "duration": 0.0161,
      "velocity": 100,
      "chip": "ym2612"
    },
    {
      "channel": 1,
      "note": 66,
      "start": 43.1335,
      "duration": 0.0161,
      "velocity": 101,
      "chip": "ym2612"
    },
    {
      "channel": 0,
      "note": 77,
      "start": 43.145,
      "duration": 0.0175,
      "velocity": 124,
      "chip": "ym2612"
    },
    {
      "channel": 4,
      "note": 58,
      "start": 43.1461,
      "duration": 0.0175,
      "velocity": 101,
      "chip": "ym2612"
    },
    {
      "channel": 3,
      "note": 61,
      "start": 43.1473,
      "duration": 0.0175,
      "velocity": 101,
      "chip": "ym2612"
    },
    {
      "channel": 2,
      "note": 59,
      "start": 43.1484,
      "duration": 0.0175,
      "velocity": 100,
      "chip": "ym2612"
    },
    {
      "channel": 1,
      "note": 66,
      "start": 43.1496,
      "duration": 0.0175,
      "velocity": 101,
      "chip": "ym2612"
    },
    {
      "channel": 0,
      "note": 75,
      "start": 43.1625,
      "duration": 0.0167,
      "velocity": 124,
      "chip": "ym2612"
    },
    {
      "channel": 4,
      "note": 58,
      "start": 43.1636,
      "duration": 0.0167,
      "velocity": 101,
      "chip": "ym2612"
    },
    {
      "channel": 3,
      "note": 61,
      "start": 43.1648,
      "duration": 0.0167,
      "velocity": 101,
      "chip": "ym2612"
    },
    {
      "channel": 2,
      "note": 59,
      "start": 43.1659,
      "duration": 0.0167,
      "velocity": 100,
      "chip": "ym2612"
    },
    {
      "channel": 1,
      "note": 66,
      "start": 43.1671,
      "duration": 0.0167,
      "velocity": 101,
      "chip": "ym2612"
    },
    {
      "channel": 0,
      "note": 72,
      "start": 43.1792,
      "duration": 0.0163,
      "velocity": 124,
      "chip": "ym2612"
    },
    {
      "channel": 4,
      "note": 58,
      "start": 43.1803,
      "duration": 0.0163,
      "velocity": 101,
      "chip": "ym2612"
    },
    {
      "channel": 3,
      "note": 61,
      "start": 43.1815,
      "duration": 0.0163,
      "velocity": 101,
      "chip": "ym2612"
    },
    {
      "channel": 2,
      "note": 59,
      "start": 43.1826,
      "duration": 0.0163,
      "velocity": 100,
      "chip": "ym2612"
    },
    {
      "channel": 1,
      "note": 66,
      "start": 43.1837,
      "duration": 0.0163,
      "velocity": 101,
      "chip": "ym2612"
    },
    {
      "channel": 0,
      "note": 70,
      "start": 43.1954,
      "duration": 0.0142,
      "velocity": 124,
      "chip": "ym2612"
    },
    {
      "channel": 4,
      "note": 58,
      "start": 43.1966,
      "duration": 0.0143,
      "velocity": 101,
      "chip": "ym2612"
    },
    {
      "channel": 3,
      "note": 61,
      "start": 43.1977,
      "duration": 0.0143,
      "velocity": 101,
      "chip": "ym2612"
    },
    {
      "channel": 2,
      "note": 59,
      "start": 43.1989,
      "duration": 0.0143,
      "velocity": 100,
      "chip": "ym2612"
    },
    {
      "channel": 1,
      "note": 66,
      "start": 43.2,
      "duration": 0.0143,
      "velocity": 101,
      "chip": "ym2612"
    },
    {
      "channel": 0,
      "note": 68,
      "start": 43.2097,
      "duration": 0.0186,
      "velocity": 124,
      "chip": "ym2612"
    },
    {
      "channel": 4,
      "note": 58,
      "start": 43.2109,
      "duration": 0.0185,
      "velocity": 101,
      "chip": "ym2612"
    },
    {
      "channel": 3,
      "note": 61,
      "start": 43.212,
      "duration": 0.0185,
      "velocity": 101,
      "chip": "ym2612"
    },
    {
      "channel": 1,
      "note": 66,
      "start": 43.2143,
      "duration": 0.0185,
      "velocity": 101,
      "chip": "ym2612"
    },
    {
      "channel": 0,
      "note": 65,
      "start": 43.2283,
      "duration": 0.016,
      "velocity": 124,
      "chip": "ym2612"
    },
    {
      "channel": 4,
      "note": 58,
      "start": 43.2294,
      "duration": 0.0161,
      "velocity": 101,
      "chip": "ym2612"
    },
    {
      "channel": 3,
      "note": 61,
      "start": 43.2306,
      "duration": 0.0161,
      "velocity": 101,
      "chip": "ym2612"
    },
    {
      "channel": 1,
      "note": 66,
      "start": 43.2329,
      "duration": 0.0161,
      "velocity": 101,
      "chip": "ym2612"
    },
    {
      "channel": 0,
      "note": 63,
      "start": 43.2443,
      "duration": 0.0126,
      "velocity": 1,
      "chip": "ym2612"
    },
    {
      "channel": 4,
      "note": 58,
      "start": 43.2455,
      "duration": 0.0149,
      "velocity": 101,
      "chip": "ym2612"
    },
    {
      "channel": 3,
      "note": 61,
      "start": 43.2466,
      "duration": 0.015,
      "velocity": 101,
      "chip": "ym2612"
    },
    {
      "channel": 1,
      "note": 66,
      "start": 43.2489,
      "duration": 0.0149,
      "velocity": 101,
      "chip": "ym2612"
    },
    {
      "channel": 4,
      "note": 58,
      "start": 43.2605,
      "duration": 0.0129,
      "velocity": 101,
      "chip": "ym2612"
    },
    {
      "channel": 3,
      "note": 61,
      "start": 43.2616,
      "duration": 0.013,
      "velocity": 101,
      "chip": "ym2612"
    },
    {
      "channel": 1,
      "note": 66,
      "start": 43.2638,
      "duration": 0.0132,
      "velocity": 101,
      "chip": "ym2612"
    },
    {
      "channel": 4,
      "note": 58,
      "start": 43.2733,
      "duration": 0.0161,
      "velocity": 101,
      "chip": "ym2612"
    },
    {
      "channel": 3,
      "note": 61,
      "start": 43.2746,
      "duration": 0.016,
      "velocity": 101,
      "chip": "ym2612"
    },
    {
      "channel": 1,
      "note": 66,
      "start": 43.2771,
      "duration": 0.0185,
      "velocity": 101,
      "chip": "ym2612"
    },
    {
      "channel": 4,
      "note": 58,
      "start": 43.2894,
      "duration": 0.0161,
      "velocity": 101,
      "chip": "ym2612"
    },
    {
      "channel": 3,
      "note": 61,
      "start": 43.2905,
      "duration": 0.0161,
      "velocity": 101,
      "chip": "ym2612"
    },
    {
      "channel": 1,
      "note": 66,
      "start": 43.2956,
      "duration": 0.0161,
      "velocity": 101,
      "chip": "ym2612"
    },
    {
      "channel": 4,
      "note": 58,
      "start": 43.3055,
      "duration": 0.0223,
      "velocity": 101,
      "chip": "ym2612"
    },
    {
      "channel": 3,
      "note": 61,
      "start": 43.3066,
      "duration": 0.0226,
      "velocity": 101,
      "chip": "ym2612"
    },
    {
      "channel": 1,
      "note": 66,
      "start": 43.3117,
      "duration": 0.0207,
      "velocity": 101,
      "chip": "ym2612"
    },
    {
      "channel": 0,
      "note": 36,
      "start": 43.3239,
      "duration": 0.0144,
      "velocity": 115,
      "chip": "ym2612"
    },
    {
      "channel": 4,
      "note": 63,
      "start": 43.3278,
      "duration": 0.0116,
      "velocity": 101,
      "chip": "ym2612"
    },
    {
      "channel": 3,
      "note": 66,
      "start": 43.3293,
      "duration": 0.0113,
      "velocity": 101,
      "chip": "ym2612"
    },
    {
      "channel": 2,
      "note": 54,
      "start": 43.3309,
      "duration": 0.0113,
      "velocity": 100,
      "chip": "ym2612"
    },
    {
      "channel": 1,
      "note": 71,
      "start": 43.3325,
      "duration": 0.0109,
      "velocity": 101,
      "chip": "ym2612"
    },
    {
      "channel": 0,
      "note": 36,
      "start": 43.3383,
      "duration": 0.016,
      "velocity": 115,
      "chip": "ym2612"
    },
    {
      "channel": 4,
      "note": 63,
      "start": 43.3395,
      "duration": 0.016,
      "velocity": 101,
      "chip": "ym2612"
    },
    {
      "channel": 3,
      "note": 66,
      "start": 43.3407,
      "duration": 0.0159,
      "velocity": 101,
      "chip": "ym2612"
    },
    {
      "channel": 2,
      "note": 54,
      "start": 43.3422,
      "duration": 0.0155,
      "velocity": 100,
      "chip": "ym2612"
    },
    {
      "channel": 1,
      "note": 71,
      "start": 43.3434,
      "duration": 0.0182,
      "velocity": 101,
      "chip": "ym2612"
    },
    {
      "channel": 0,
      "note": 37,
      "start": 43.3543,
      "duration": 0.0161,
      "velocity": 115,
      "chip": "ym2612"
    },
    {
      "channel": 4,
      "note": 63,
      "start": 43.3554,
      "duration": 0.0162,
      "velocity": 101,
      "chip": "ym2612"
    },
    {
      "channel": 3,
      "note": 66,
      "start": 43.3566,
      "duration": 0.0161,
      "velocity": 101,
      "chip": "ym2612"
    },
    {
      "channel": 2,
      "note": 54,
      "start": 43.3577,
      "duration": 0.0161,
      "velocity": 100,
      "chip": "ym2612"
    },
    {
      "channel": 1,
      "note": 71,
      "start": 43.3616,
      "duration": 0.0161,
      "velocity": 101,
      "chip": "ym2612"
    },
    {
      "channel": 0,
      "note": 37,
      "start": 43.3704,
      "duration": 0.0161,
      "velocity": 115,
      "chip": "ym2612"
    },
    {
      "channel": 4,
      "note": 63,
      "start": 43.3716,
      "duration": 0.0161,
      "velocity": 101,
      "chip": "ym2612"
    },
    {
      "channel": 3,
      "note": 66,
      "start": 43.3727,
      "duration": 0.0161,
      "velocity": 101,
      "chip": "ym2612"
    },
    {
      "channel": 2,
      "note": 54,
      "start": 43.3738,
      "duration": 0.0161,
      "velocity": 100,
      "chip": "ym2612"
    },
    {
      "channel": 1,
      "note": 71,
      "start": 43.3778,
      "duration": 0.0156,
      "velocity": 101,
      "chip": "ym2612"
    },
    {
      "channel": 0,
      "note": 38,
      "start": 43.3865,
      "duration": 0.0162,
      "velocity": 115,
      "chip": "ym2612"
    },
    {
      "channel": 4,
      "note": 63,
      "start": 43.3877,
      "duration": 0.0161,
      "velocity": 101,
      "chip": "ym2612"
    },
    {
      "channel": 3,
      "note": 66,
      "start": 43.3888,
      "duration": 0.0161,
      "velocity": 101,
      "chip": "ym2612"
    },
    {
      "channel": 2,
      "note": 54,
      "start": 43.3899,
      "duration": 0.0161,
      "velocity": 100,
      "chip": "ym2612"
    },
    {
      "channel": 1,
      "note": 71,
      "start": 43.3934,
      "duration": 0.0138,
      "velocity": 101,
      "chip": "ym2612"
    },
    {
      "channel": 0,
      "note": 38,
      "start": 43.4026,
      "duration": 0.0161,
      "velocity": 115,
      "chip": "ym2612"
    },
    {
      "channel": 4,
      "note": 63,
      "start": 43.4038,
      "duration": 0.0161,
      "velocity": 101,
      "chip": "ym2612"
    },
    {
      "channel": 3,
      "note": 66,
      "start": 43.4049,
      "duration": 0.0161,
      "velocity": 101,
      "chip": "ym2612"
    },
    {
      "channel": 2,
      "note": 54,
      "start": 43.4061,
      "duration": 0.0161,
      "velocity": 100,
      "chip": "ym2612"
    },
    {
      "channel": 1,
      "note": 71,
      "start": 43.4072,
      "duration": 0.0161,
      "velocity": 101,
      "chip": "ym2612"
    },
    {
      "channel": 0,
      "note": 39,
      "start": 43.4187,
      "duration": 0.0161,
      "velocity": 115,
      "chip": "ym2612"
    },
    {
      "channel": 4,
      "note": 63,
      "start": 43.4199,
      "duration": 0.0161,
      "velocity": 101,
      "chip": "ym2612"
    },
    {
      "channel": 3,
      "note": 66,
      "start": 43.421,
      "duration": 0.0161,
      "velocity": 101,
      "chip": "ym2612"
    },
    {
      "channel": 2,
      "note": 54,
      "start": 43.4222,
      "duration": 0.0161,
      "velocity": 100,
      "chip": "ym2612"
    },
    {
      "channel": 1,
      "note": 71,
      "start": 43.4233,
      "duration": 0.0161,
      "velocity": 101,
      "chip": "ym2612"
    },
    {
      "channel": 0,
      "note": 39,
      "start": 43.4348,
      "duration": 0.0161,
      "velocity": 115,
      "chip": "ym2612"
    },
    {
      "channel": 4,
      "note": 63,
      "start": 43.436,
      "duration": 0.0161,
      "velocity": 101,
      "chip": "ym2612"
    },
    {
      "channel": 3,
      "note": 66,
      "start": 43.4371,
      "duration": 0.0161,
      "velocity": 101,
      "chip": "ym2612"
    },
    {
      "channel": 1,
      "note": 71,
      "start": 43.4394,
      "duration": 0.0161,
      "velocity": 101,
      "chip": "ym2612"
    },
    {
      "channel": 0,
      "note": 40,
      "start": 43.4509,
      "duration": 0.0161,
      "velocity": 115,
      "chip": "ym2612"
    },
    {
      "channel": 4,
      "note": 63,
      "start": 43.4521,
      "duration": 0.0161,
      "velocity": 101,
      "chip": "ym2612"
    },
    {
      "channel": 3,
      "note": 66,
      "start": 43.4532,
      "duration": 0.0161,
      "velocity": 101,
      "chip": "ym2612"
    },
    {
      "channel": 1,
      "note": 71,
      "start": 43.4555,
      "duration": 0.0161,
      "velocity": 101,
      "chip": "ym2612"
    },
    {
      "channel": 0,
      "note": 40,
      "start": 43.467,
      "duration": 0.0161,
      "velocity": 115,
      "chip": "ym2612"
    },
    {
      "channel": 4,
      "note": 63,
      "start": 43.4681,
      "duration": 0.0161,
      "velocity": 101,
      "chip": "ym2612"
    },
    {
      "channel": 3,
      "note": 66,
      "start": 43.4693,
      "duration": 0.0161,
      "velocity": 101,
      "chip": "ym2612"
    },
    {
      "channel": 1,
      "note": 71,
      "start": 43.4716,
      "duration": 0.0161,
      "velocity": 101,
      "chip": "ym2612"
    },
    {
      "channel": 0,
      "note": 40,
      "start": 43.4831,
      "duration": 0.0161,
      "velocity": 115,
      "chip": "ym2612"
    },
    {
      "channel": 4,
      "note": 63,
      "start": 43.4842,
      "duration": 0.0161,
      "velocity": 101,
      "chip": "ym2612"
    },
    {
      "channel": 3,
      "note": 66,
      "start": 43.4854,
      "duration": 0.0161,
      "velocity": 101,
      "chip": "ym2612"
    },
    {
      "channel": 1,
      "note": 71,
      "start": 43.4877,
      "duration": 0.0161,
      "velocity": 101,
      "chip": "ym2612"
    },
    {
      "channel": 0,
      "note": 41,
      "start": 43.4992,
      "duration": 0.0161,
      "velocity": 115,
      "chip": "ym2612"
    },
    {
      "channel": 4,
      "note": 63,
      "start": 43.5003,
      "duration": 0.0162,
      "velocity": 101,
      "chip": "ym2612"
    },
    {
      "channel": 3,
      "note": 66,
      "start": 43.5015,
      "duration": 0.0162,
      "velocity": 101,
      "chip": "ym2612"
    },
    {
      "channel": 1,
      "note": 71,
      "start": 43.5038,
      "duration": 0.0161,
      "velocity": 101,
      "chip": "ym2612"
    },
    {
      "channel": 0,
      "note": 41,
      "start": 43.5153,
      "duration": 0.0162,
      "velocity": 115,
      "chip": "ym2612"
    },
    {
      "channel": 4,
      "note": 63,
      "start": 43.5165,
      "duration": 0.0161,
      "velocity": 101,
      "chip": "ym2612"
    },
    {
      "channel": 3,
      "note": 66,
      "start": 43.5176,
      "duration": 0.0161,
      "velocity": 101,
      "chip": "ym2612"
    },
    {
      "channel": 1,
      "note": 71,
      "start": 43.5199,
      "duration": 0.0162,
      "velocity": 101,
      "chip": "ym2612"
    },
    {
      "channel": 0,
      "note": 42,
      "start": 43.5315,
      "duration": 0.016,
      "velocity": 115,
      "chip": "ym2612"
    },
    {
      "channel": 4,
      "note": 63,
      "start": 43.5326,
      "duration": 0.0161,
      "velocity": 101,
      "chip": "ym2612"
    },
    {
      "channel": 3,
      "note": 66,
      "start": 43.5337,
      "duration": 0.0161,
      "velocity": 101,
      "chip": "ym2612"
    },
    {
      "channel": 1,
      "note": 71,
      "start": 43.536,
      "duration": 0.0163,
      "velocity": 101,
      "chip": "ym2612"
    },
    {
      "channel": 0,
      "note": 42,
      "start": 43.5475,
      "duration": 0.0161,
      "velocity": 115,
      "chip": "ym2612"
    },
    {
      "channel": 4,
      "note": 63,
      "start": 43.5487,
      "duration": 0.0161,
      "velocity": 101,
      "chip": "ym2612"
    },
    {
      "channel": 3,
      "note": 66,
      "start": 43.5498,
      "duration": 0.0161,
      "velocity": 101,
      "chip": "ym2612"
    },
    {
      "channel": 2,
      "note": 54,
      "start": 43.5512,
      "duration": 0.0159,
      "velocity": 100,
      "chip": "ym2612"
    },
    {
      "channel": 1,
      "note": 71,
      "start": 43.5524,
      "duration": 0.0159,
      "velocity": 101,
      "chip": "ym2612"
    },
    {
      "channel": 0,
      "note": 43,
      "start": 43.5636,
      "duration": 0.0161,
      "velocity": 115,
      "chip": "ym2612"
    },
    {
      "channel": 4,
      "note": 63,
      "start": 43.5648,
      "duration": 0.0161,
      "velocity": 101,
      "chip": "ym2612"
    },
    {
      "channel": 3,
      "note": 66,
      "start": 43.5659,
      "duration": 0.0161,
      "velocity": 101,
      "chip": "ym2612"
    },
    {
      "channel": 2,
      "note": 54,
      "start": 43.5671,
      "duration": 0.016,
      "velocity": 100,
      "chip": "ym2612"
    },
    {
      "channel": 1,
      "note": 71,
      "start": 43.5683,
      "duration": 0.016,
      "velocity": 101,
      "chip": "ym2612"
    },
    {
      "channel": 0,
      "note": 43,
      "start": 43.5797,
      "duration": 0.0161,
      "velocity": 115,
      "chip": "ym2612"
    },
    {
      "channel": 4,
      "note": 63,
      "start": 43.5809,
      "duration": 0.0161,
      "velocity": 101,
      "chip": "ym2612"
    },
    {
      "channel": 3,
      "note": 66,
      "start": 43.582,
      "duration": 0.0161,
      "velocity": 101,
      "chip": "ym2612"
    },
    {
      "channel": 2,
      "note": 54,
      "start": 43.5832,
      "duration": 0.0161,
      "velocity": 100,
      "chip": "ym2612"
    },
    {
      "channel": 1,
      "note": 71,
      "start": 43.5843,
      "duration": 0.0161,
      "velocity": 101,
      "chip": "ym2612"
    },
    {
      "channel": 0,
      "note": 44,
      "start": 43.5958,
      "duration": 0.0161,
      "velocity": 115,
      "chip": "ym2612"
    },
    {
      "channel": 4,
      "note": 63,
      "start": 43.597,
      "duration": 0.0161,
      "velocity": 101,
      "chip": "ym2612"
    },
    {
      "channel": 3,
      "note": 66,
      "start": 43.5981,
      "duration": 0.0161,
      "velocity": 101,
      "chip": "ym2612"
    },
    {
      "channel": 2,
      "note": 54,
      "start": 43.5993,
      "duration": 0.0161,
      "velocity": 100,
      "chip": "ym2612"
    },
    {
      "channel": 1,
      "note": 71,
      "start": 43.6004,
      "duration": 0.0161,
      "velocity": 101,
      "chip": "ym2612"
    },
    {
      "channel": 0,
      "note": 44,
      "start": 43.6119,
      "duration": 0.0172,
      "velocity": 115,
      "chip": "ym2612"
    },
    {
      "channel": 4,
      "note": 63,
      "start": 43.6131,
      "duration": 0.0172,
      "velocity": 101,
      "chip": "ym2612"
    },
    {
      "channel": 3,
      "note": 66,
      "start": 43.6142,
      "duration": 0.0172,
      "velocity": 101,
      "chip": "ym2612"
    },
    {
      "channel": 2,
      "note": 54,
      "start": 43.6154,
      "duration": 0.0172,
      "velocity": 100,
      "chip": "ym2612"
    },
    {
      "channel": 1,
      "note": 71,
      "start": 43.6165,
      "duration": 0.0172,
      "velocity": 101,
      "chip": "ym2612"
    },
    {
      "channel": 0,
      "note": 44,
      "start": 43.6292,
      "duration": 0.0167,
      "velocity": 115,
      "chip": "ym2612"
    },
    {
      "channel": 4,
      "note": 63,
      "start": 43.6303,
      "duration": 0.0167,
      "velocity": 101,
      "chip": "ym2612"
    },
    {
      "channel": 3,
      "note": 66,
      "start": 43.6315,
      "duration": 0.0167,
      "velocity": 101,
      "chip": "ym2612"
    },
    {
      "channel": 2,
      "note": 54,
      "start": 43.6326,
      "duration": 0.0167,
      "velocity": 100,
      "chip": "ym2612"
    },
    {
      "channel": 1,
      "note": 71,
      "start": 43.6337,
      "duration": 0.0167,
      "velocity": 101,
      "chip": "ym2612"
    },
    {
      "channel": 0,
      "note": 45,
      "start": 43.6458,
      "duration": 0.0163,
      "velocity": 115,
      "chip": "ym2612"
    },
    {
      "channel": 4,
      "note": 63,
      "start": 43.647,
      "duration": 0.0163,
      "velocity": 101,
      "chip": "ym2612"
    },
    {
      "channel": 3,
      "note": 66,
      "start": 43.6481,
      "duration": 0.0163,
      "velocity": 101,
      "chip": "ym2612"
    },
    {
      "channel": 2,
      "note": 54,
      "start": 43.6493,
      "duration": 0.0163,
      "velocity": 100,
      "chip": "ym2612"
    },
    {
      "channel": 1,
      "note": 71,
      "start": 43.6504,
      "duration": 0.0163,
      "velocity": 101,
      "chip": "ym2612"
    },
    {
      "channel": 0,
      "note": 45,
      "start": 43.6621,
      "duration": 0.0145,
      "velocity": 115,
      "chip": "ym2612"
    },
    {
      "channel": 4,
      "note": 63,
      "start": 43.6632,
      "duration": 0.0146,
      "velocity": 101,
      "chip": "ym2612"
    },
    {
      "channel": 3,
      "note": 66,
      "start": 43.6644,
      "duration": 0.0146,
      "velocity": 101,
      "chip": "ym2612"
    },
    {
      "channel": 1,
      "note": 71,
      "start": 43.6667,
      "duration": 0.0146,
      "velocity": 101,
      "chip": "ym2612"
    },
    {
      "channel": 0,
      "note": 46,
      "start": 43.6766,
      "duration": 0.0186,
      "velocity": 115,
      "chip": "ym2612"
    },
    {
      "channel": 4,
      "note": 63,
      "start": 43.6778,
      "duration": 0.0185,
      "velocity": 101,
      "chip": "ym2612"
    },
    {
      "channel": 3,
      "note": 66,
      "start": 43.679,
      "duration": 0.0185,
      "velocity": 101,
      "chip": "ym2612"
    },
    {
      "channel": 1,
      "note": 71,
      "start": 43.6812,
      "duration": 0.0185,
      "velocity": 101,
      "chip": "ym2612"
    },
    {
      "channel": 0,
      "note": 46,
      "start": 43.6952,
      "duration": 0.0161,
      "velocity": 115,
      "chip": "ym2612"
    },
    {
      "channel": 4,
      "note": 63,
      "start": 43.6963,
      "duration": 0.0161,
      "velocity": 101,
      "chip": "ym2612"
    },
    {
      "channel": 3,
      "note": 66,
      "start": 43.6975,
      "duration": 0.0161,
      "velocity": 101,
      "chip": "ym2612"
    },
    {
      "channel": 1,
      "note": 71,
      "start": 43.6998,
      "duration": 0.0161,
      "velocity": 101,
      "chip": "ym2612"
    },
    {
      "channel": 0,
      "note": 47,
      "start": 43.7113,
      "duration": 0.0157,
      "velocity": 115,
      "chip": "ym2612"
    },
    {
      "channel": 4,
      "note": 63,
      "start": 43.7124,
      "duration": 0.0158,
      "velocity": 101,
      "chip": "ym2612"
    },
    {
      "channel": 3,
      "note": 66,
      "start": 43.7136,
      "duration": 0.0158,
      "velocity": 101,
      "chip": "ym2612"
    },
    {
      "channel": 1,
      "note": 71,
      "start": 43.7159,
      "duration": 0.0157,
      "velocity": 101,
      "chip": "ym2612"
    },
    {
      "channel": 0,
      "note": 47,
      "start": 43.727,
      "duration": 0.0137,
      "velocity": 115,
      "chip": "ym2612"
    },
    {
      "channel": 4,
      "note": 63,
      "start": 43.7282,
      "duration": 0.0141,
      "velocity": 101,
      "chip": "ym2612"
    },
    {
      "channel": 3,
      "note": 66,
      "start": 43.7293,
      "duration": 0.0141,
      "velocity": 101,
      "chip": "ym2612"
    },
    {
      "channel": 1,
      "note": 71,
      "start": 43.7316,
      "duration": 0.0141,
      "velocity": 101,
      "chip": "ym2612"
    },
    {
      "channel": 0,
      "note": 47,
      "start": 43.7407,
      "duration": 0.0161,
      "velocity": 115,
      "chip": "ym2612"
    },
    {
      "channel": 4,
      "note": 63,
      "start": 43.7423,
      "duration": 0.0185,
      "velocity": 101,
      "chip": "ym2612"
    },
    {
      "channel": 3,
      "note": 66,
      "start": 43.7434,
      "duration": 0.0185,
      "velocity": 101,
      "chip": "ym2612"
    },
    {
      "channel": 1,
      "note": 71,
      "start": 43.7456,
      "duration": 0.0185,
      "velocity": 101,
      "chip": "ym2612"
    },
    {
      "channel": 0,
      "note": 48,
      "start": 43.7568,
      "duration": 0.0206,
      "velocity": 124,
      "chip": "ym2612"
    },
    {
      "channel": 4,
      "note": 63,
      "start": 43.7608,
      "duration": 0.0179,
      "velocity": 101,
      "chip": "ym2612"
    },
    {
      "channel": 3,
      "note": 66,
      "start": 43.7619,
      "duration": 0.0179,
      "velocity": 101,
      "chip": "ym2612"
    },
    {
      "channel": 1,
      "note": 71,
      "start": 43.7641,
      "duration": 0.0182,
      "velocity": 101,
      "chip": "ym2612"
    },
    {
      "channel": 0,
      "note": 84,
      "start": 43.7775,
      "duration": 0.0116,
      "velocity": 124,
      "chip": "ym2612"
    },
    {
      "channel": 4,
      "note": 63,
      "start": 43.7786,
      "duration": 0.0117,
      "velocity": 101,
      "chip": "ym2612"
    },
    {
      "channel": 3,
      "note": 66,
      "start": 43.7798,
      "duration": 0.014,
      "velocity": 101,
      "chip": "ym2612"
    },
    {
      "channel": 2,
      "note": 66,
      "start": 43.7812,
      "duration": 0.0138,
      "velocity": 100,
      "chip": "ym2612"
    },
    {
      "channel": 1,
      "note": 71,
      "start": 43.7823,
      "duration": 0.0138,
      "velocity": 101,
      "chip": "ym2612"
    },
    {
      "channel": 0,
      "note": 82,
      "start": 43.7891,
      "duration": 0.016,
      "velocity": 124,
      "chip": "ym2612"
    },
    {
      "channel": 4,
      "note": 63,
      "start": 43.7903,
      "duration": 0.016,
      "velocity": 101,
      "chip": "ym2612"
    },
    {
      "channel": 3,
      "note": 66,
      "start": 43.7938,
      "duration": 0.0137,
      "velocity": 101,
      "chip": "ym2612"
    },
    {
      "channel": 2,
      "note": 66,
      "start": 43.795,
      "duration": 0.0139,
      "velocity": 100,
      "chip": "ym2612"
    },
    {
      "channel": 1,
      "note": 71,
      "start": 43.7961,
      "duration": 0.0139,
      "velocity": 101,
      "chip": "ym2612"
    },
    {
      "channel": 0,
      "note": 80,
      "start": 43.8051,
      "duration": 0.0161,
      "velocity": 124,
      "chip": "ym2612"
    },
    {
      "channel": 4,
      "note": 63,
      "start": 43.8063,
      "duration": 0.0161,
      "velocity": 101,
      "chip": "ym2612"
    },
    {
      "channel": 3,
      "note": 66,
      "start": 43.8075,
      "duration": 0.0161,
      "velocity": 101,
      "chip": "ym2612"
    },
    {
      "channel": 2,
      "note": 66,
      "start": 43.8089,
      "duration": 0.0186,
      "velocity": 100,
      "chip": "ym2612"
    },
    {
      "channel": 1,
      "note": 71,
      "start": 43.81,
      "duration": 0.0186,
      "velocity": 101,
      "chip": "ym2612"
    },
    {
      "channel": 0,
      "note": 77,
      "start": 43.8212,
      "duration": 0.0162,
      "velocity": 124,
      "chip": "ym2612"
    },
    {
      "channel": 4,
      "note": 63,
      "start": 43.8224,
      "duration": 0.0161,
      "velocity": 101,
      "chip": "ym2612"
    },
    {
      "channel": 3,
      "note": 66,
      "start": 43.8236,
      "duration": 0.0161,
      "velocity": 101,
      "chip": "ym2612"
    },
    {
      "channel": 2,
      "note": 66,
      "start": 43.8274,
      "duration": 0.0134,
      "velocity": 100,
      "chip": "ym2612"
    },
    {
      "channel": 1,
      "note": 71,
      "start": 43.8286,
      "duration": 0.0161,
      "velocity": 101,
      "chip": "ym2612"
    },
    {
      "channel": 0,
      "note": 75,
      "start": 43.8374,
      "duration": 0.0161,
      "velocity": 124,
      "chip": "ym2612"
    },
    {
      "channel": 4,
      "note": 63,
      "start": 43.8385,
      "duration": 0.0161,
      "velocity": 101,
      "chip": "ym2612"
    },
    {
      "channel": 3,
      "note": 66,
      "start": 43.8397,
      "duration": 0.0161,
      "velocity": 101,
      "chip": "ym2612"
    },
    {
      "channel": 2,
      "note": 66,
      "start": 43.8408,
      "duration": 0.0161,
      "velocity": 100,
      "chip": "ym2612"
    },
    {
      "channel": 1,
      "note": 71,
      "start": 43.8447,
      "duration": 0.0157,
      "velocity": 101,
      "chip": "ym2612"
    },
    {
      "channel": 0,
      "note": 72,
      "start": 43.8534,
      "duration": 0.0161,
      "velocity": 124,
      "chip": "ym2612"
    },
    {
      "channel": 4,
      "note": 63,
      "start": 43.8546,
      "duration": 0.0161,
      "velocity": 101,
      "chip": "ym2612"
    },
    {
      "channel": 3,
      "note": 66,
      "start": 43.8557,
      "duration": 0.0161,
      "velocity": 101,
      "chip": "ym2612"
    },
    {
      "channel": 2,
      "note": 66,
      "start": 43.8569,
      "duration": 0.0161,
      "velocity": 100,
      "chip": "ym2612"
    },
    {
      "channel": 1,
      "note": 71,
      "start": 43.8604,
      "duration": 0.0137,
      "velocity": 101,
      "chip": "ym2612"
    },
    {
      "channel": 0,
      "note": 70,
      "start": 43.8695,
      "duration": 0.0161,
      "velocity": 124,
      "chip": "ym2612"
    },
    {
      "channel": 4,
      "note": 63,
      "start": 43.8707,
      "duration": 0.0161,
      "velocity": 101,
      "chip": "ym2612"
    },
    {
      "channel": 3,
      "note": 66,
      "start": 43.8718,
      "duration": 0.0161,
      "velocity": 101,
      "chip": "ym2612"
    },
    {
      "channel": 2,
      "note": 66,
      "start": 43.873,
      "duration": 0.0161,
      "velocity": 100,
      "chip": "ym2612"
    },
    {
      "channel": 1,
      "note": 71,
      "start": 43.8741,
      "duration": 0.0161,
      "velocity": 101,
      "chip": "ym2612"
    },
    {
      "channel": 0,
      "note": 68,
      "start": 43.8856,
      "duration": 0.0161,
      "velocity": 124,
      "chip": "ym2612"
    },
    {
      "channel": 4,
      "note": 63,
      "start": 43.8868,
      "duration": 0.0161,
      "velocity": 101,
      "chip": "ym2612"
    },
    {
      "channel": 3,
      "note": 66,
      "start": 43.8879,
      "duration": 0.0161,
      "velocity": 101,
      "chip": "ym2612"
    },
    {
      "channel": 1,
      "note": 71,
      "start": 43.8902,
      "duration": 0.0161,
      "velocity": 101,
      "chip": "ym2612"
    },
    {
      "channel": 0,
      "note": 65,
      "start": 43.9017,
      "duration": 0.0161,
      "velocity": 124,
      "chip": "ym2612"
    },
    {
      "channel": 4,
      "note": 63,
      "start": 43.9029,
      "duration": 0.0161,
      "velocity": 101,
      "chip": "ym2612"
    },
    {
      "channel": 3,
      "note": 66,
      "start": 43.904,
      "duration": 0.0161,
      "velocity": 101,
      "chip": "ym2612"
    },
    {
      "channel": 1,
      "note": 71,
      "start": 43.9063,
      "duration": 0.0161,
      "velocity": 101,
      "chip": "ym2612"
    },
    {
      "channel": 0,
      "note": 63,
      "start": 43.9178,
      "duration": 0.0154,
      "velocity": 1,
      "chip": "ym2612"
    },
    {
      "channel": 4,
      "note": 63,
      "start": 43.919,
      "duration": 0.0153,
      "velocity": 101,
      "chip": "ym2612"
    },
    {
      "channel": 3,
      "note": 66,
      "start": 43.9201,
      "duration": 0.0154,
      "velocity": 101,
      "chip": "ym2612"
    },
    {
      "channel": 1,
      "note": 71,
      "start": 43.9224,
      "duration": 0.0154,
      "velocity": 101,
      "chip": "ym2612"
    },
    {
      "channel": 4,
      "note": 63,
      "start": 43.9343,
      "duration": 0.0153,
      "velocity": 101,
      "chip": "ym2612"
    },
    {
      "channel": 3,
      "note": 66,
      "start": 43.9355,
      "duration": 0.0153,
      "velocity": 101,
      "chip": "ym2612"
    },
    {
      "channel": 1,
      "note": 71,
      "start": 43.9378,
      "duration": 0.0153,
      "velocity": 101,
      "chip": "ym2612"
    },
    {
      "channel": 4,
      "note": 63,
      "start": 43.9496,
      "duration": 0.0161,
      "velocity": 101,
      "chip": "ym2612"
    },
    {
      "channel": 3,
      "note": 66,
      "start": 43.9507,
      "duration": 0.0161,
      "velocity": 101,
      "chip": "ym2612"
    },
    {
      "channel": 1,
      "note": 71,
      "start": 43.953,
      "duration": 0.0161,
      "velocity": 101,
      "chip": "ym2612"
    },
    {
      "channel": 4,
      "note": 63,
      "start": 43.9657,
      "duration": 0.0161,
      "velocity": 101,
      "chip": "ym2612"
    },
    {
      "channel": 3,
      "note": 66,
      "start": 43.9668,
      "duration": 0.0161,
      "velocity": 101,
      "chip": "ym2612"
    },
    {
      "channel": 1,
      "note": 71,
      "start": 43.9691,
      "duration": 0.0161,
      "velocity": 101,
      "chip": "ym2612"
    },
    {
      "channel": 4,
      "note": 63,
      "start": 43.9818,
      "duration": 0.0198,
      "velocity": 101,
      "chip": "ym2612"
    },
    {
      "channel": 3,
      "note": 66,
      "start": 43.9829,
      "duration": 0.02,
      "velocity": 101,
      "chip": "ym2612"
    },
    {
      "channel": 1,
      "note": 71,
      "start": 43.9852,
      "duration": 0.0205,
      "velocity": 101,
      "chip": "ym2612"
    },
    {
      "channel": 0,
      "note": 36,
      "start": 44.0002,
      "duration": 0.0144,
      "velocity": 115,
      "chip": "ym2612"
    },
    {
      "channel": 4,
      "note": 63,
      "start": 44.0015,
      "duration": 0.0142,
      "velocity": 101,
      "chip": "ym2612"
    },
    {
      "channel": 3,
      "note": 66,
      "start": 44.0029,
      "duration": 0.014,
      "velocity": 101,
      "chip": "ym2612"
    },
    {
      "channel": 2,
      "note": 54,
      "start": 44.0044,
      "duration": 0.0137,
      "velocity": 100,
      "chip": "ym2612"
    },
    {
      "channel": 1,
      "note": 71,
      "start": 44.0058,
      "duration": 0.0135,
      "velocity": 101,
      "chip": "ym2612"
    },
    {
      "channel": 0,
      "note": 36,
      "start": 44.0145,
      "duration": 0.016,
      "velocity": 115,
      "chip": "ym2612"
    },
    {
      "channel": 4,
      "note": 63,
      "start": 44.0157,
      "duration": 0.016,
      "velocity": 101,
      "chip": "ym2612"
    },
    {
      "channel": 3,
      "note": 66,
      "start": 44.0169,
      "duration": 0.0159,
      "velocity": 101,
      "chip": "ym2612"
    },
    {
      "channel": 2,
      "note": 54,
      "start": 44.0181,
      "duration": 0.0159,
      "velocity": 100,
      "chip": "ym2612"
    },
    {
      "channel": 1,
      "note": 71,
      "start": 44.0193,
      "duration": 0.0159,
      "velocity": 101,
      "chip": "ym2612"
    },
    {
      "channel": 0,
      "note": 37,
      "start": 44.0306,
      "duration": 0.0161,
      "velocity": 115,
      "chip": "ym2612"
    },
    {
      "channel": 4,
      "note": 63,
      "start": 44.0317,
      "duration": 0.0161,
      "velocity": 101,
      "chip": "ym2612"
    },
    {
      "channel": 3,
      "note": 66,
      "start": 44.0329,
      "duration": 0.0161,
      "velocity": 101,
      "chip": "ym2612"
    },
    {
      "channel": 2,
      "note": 54,
      "start": 44.034,
      "duration": 0.0161,
      "velocity": 100,
      "chip": "ym2612"
    },
    {
      "channel": 1,
      "note": 71,
      "start": 44.0351,
      "duration": 0.0161,
      "velocity": 101,
      "chip": "ym2612"
    },
    {
      "channel": 0,
      "note": 37,
      "start": 44.0466,
      "duration": 0.0161,
      "velocity": 115,
      "chip": "ym2612"
    },
    {
      "channel": 4,
      "note": 63,
      "start": 44.0478,
      "duration": 0.0161,
      "velocity": 101,
      "chip": "ym2612"
    },
    {
      "channel": 3,
      "note": 66,
      "start": 44.0489,
      "duration": 0.0161,
      "velocity": 101,
      "chip": "ym2612"
    },
    {
      "channel": 2,
      "note": 54,
      "start": 44.0501,
      "duration": 0.0161,
      "velocity": 100,
      "chip": "ym2612"
    },
    {
      "channel": 1,
      "note": 71,
      "start": 44.0512,
      "duration": 0.0161,
      "velocity": 101,
      "chip": "ym2612"
    },
    {
      "channel": 0,
      "note": 38,
      "start": 44.0627,
      "duration": 0.0161,
      "velocity": 115,
      "chip": "ym2612"
    },
    {
      "channel": 4,
      "note": 63,
      "start": 44.0639,
      "duration": 0.0161,
      "velocity": 101,
      "chip": "ym2612"
    },
    {
      "channel": 3,
      "note": 66,
      "start": 44.065,
      "duration": 0.0161,
      "velocity": 101,
      "chip": "ym2612"
    },
    {
      "channel": 2,
      "note": 54,
      "start": 44.0662,
      "duration": 0.0161,
      "velocity": 100,
      "chip": "ym2612"
    },
    {
      "channel": 1,
      "note": 71,
      "start": 44.0673,
      "duration": 0.0161,
      "velocity": 101,
      "chip": "ym2612"
    },
    {
      "channel": 0,
      "note": 38,
      "start": 44.0788,
      "duration": 0.017,
      "velocity": 115,
      "chip": "ym2612"
    },
    {
      "channel": 4,
      "note": 63,
      "start": 44.08,
      "duration": 0.017,
      "velocity": 101,
      "chip": "ym2612"
    },
    {
      "channel": 3,
      "note": 66,
      "start": 44.0811,
      "duration": 0.017,
      "velocity": 101,
      "chip": "ym2612"
    },
    {
      "channel": 2,
      "note": 54,
      "start": 44.0823,
      "duration": 0.017,
      "velocity": 100,
      "chip": "ym2612"
    },
    {
      "channel": 1,
      "note": 71,
      "start": 44.0834,
      "duration": 0.017,
      "velocity": 101,
      "chip": "ym2612"
    },
    {
      "channel": 0,
      "note": 39,
      "start": 44.0958,
      "duration": 0.0167,
      "velocity": 115,
      "chip": "ym2612"
    },
    {
      "channel": 4,
      "note": 63,
      "start": 44.097,
      "duration": 0.0167,
      "velocity": 101,
      "chip": "ym2612"
    },
    {
      "channel": 3,
      "note": 66,
      "start": 44.0981,
      "duration": 0.0167,
      "velocity": 101,
      "chip": "ym2612"
    },
    {
      "channel": 2,
      "note": 54,
      "start": 44.0993,
      "duration": 0.0167,
      "velocity": 100,
      "chip": "ym2612"
    },
    {
      "channel": 1,
      "note": 71,
      "start": 44.1004,
      "duration": 0.0167,
      "velocity": 101,
      "chip": "ym2612"
    },
    {
      "channel": 0,
      "note": 39,
      "start": 44.1125,
      "duration": 0.0163,
      "velocity": 115,
      "chip": "ym2612"
    },
    {
      "channel": 4,
      "note": 63,
      "start": 44.1136,
      "duration": 0.0163,
      "velocity": 101,
      "chip": "ym2612"
    },
    {
      "channel": 3,
      "note": 66,
      "start": 44.1148,
      "duration": 0.0163,
      "velocity": 101,
      "chip": "ym2612"
    },
    {
      "channel": 1,
      "note": 71,
      "start": 44.1171,
      "duration": 0.0163,
      "velocity": 101,
      "chip": "ym2612"
    },
    {
      "channel": 0,
      "note": 40,
      "start": 44.1288,
      "duration": 0.0147,
      "velocity": 115,
      "chip": "ym2612"
    },
    {
      "channel": 4,
      "note": 63,
      "start": 44.1299,
      "duration": 0.0147,
      "velocity": 101,
      "chip": "ym2612"
    },
    {
      "channel": 3,
      "note": 66,
      "start": 44.1311,
      "duration": 0.0147,
      "velocity": 101,
      "chip": "ym2612"
    },
    {
      "channel": 1,
      "note": 71,
      "start": 44.1334,
      "duration": 0.0147,
      "velocity": 101,
      "chip": "ym2612"
    },
    {
      "channel": 0,
      "note": 40,
      "start": 44.1435,
      "duration": 0.0186,
      "velocity": 115,
      "chip": "ym2612"
    },
    {
      "channel": 4,
      "note": 63,
      "start": 44.1446,
      "duration": 0.0186,
      "velocity": 101,
      "chip": "ym2612"
    },
    {
      "channel": 3,
      "note": 66,
      "start": 44.1458,
      "duration": 0.0186,
      "velocity": 101,
      "chip": "ym2612"
    },
    {
      "channel": 1,
      "note": 71,
      "start": 44.148,
      "duration": 0.0186,
      "velocity": 101,
      "chip": "ym2612"
    },
    {
      "channel": 0,
      "note": 40,
      "start": 44.1621,
      "duration": 0.0161,
      "velocity": 115,
      "chip": "ym2612"
    },
    {
      "channel": 4,
      "note": 63,
      "start": 44.1632,
      "duration": 0.0161,
      "velocity": 101,
      "chip": "ym2612"
    },
    {
      "channel": 3,
      "note": 66,
      "start": 44.1644,
      "duration": 0.0161,
      "velocity": 101,
      "chip": "ym2612"
    },
    {
      "channel": 1,
      "note": 71,
      "start": 44.1667,
      "duration": 0.0161,
      "velocity": 101,
      "chip": "ym2612"
    },
    {
      "channel": 0,
      "note": 41,
      "start": 44.1782,
      "duration": 0.0157,
      "velocity": 115,
      "chip": "ym2612"
    },
    {
      "channel": 4,
      "note": 63,
      "start": 44.1793,
      "duration": 0.0158,
      "velocity": 101,
      "chip": "ym2612"
    },
    {
      "channel": 3,
      "note": 66,
      "start": 44.1805,
      "duration": 0.0158,
      "velocity": 101,
      "chip": "ym2612"
    },
    {
      "channel": 1,
      "note": 71,
      "start": 44.1828,
      "duration": 0.0158,
      "velocity": 101,
      "chip": "ym2612"
    },
    {
      "channel": 0,
      "note": 41,
      "start": 44.1939,
      "duration": 0.0137,
      "velocity": 115,
      "chip": "ym2612"
    },
    {
      "channel": 4,
      "note": 63,
      "start": 44.1951,
      "duration": 0.014,
      "velocity": 101,
      "chip": "ym2612"
    },
    {
      "channel": 3,
      "note": 66,
      "start": 44.1963,
      "duration": 0.014,
      "velocity": 101,
      "chip": "ym2612"
    },
    {
      "channel": 1,
      "note": 71,
      "start": 44.1985,
      "duration": 0.014,
      "velocity": 101,
      "chip": "ym2612"
    },
    {
      "channel": 0,
      "note": 42,
      "start": 44.2077,
      "duration": 0.0161,
      "velocity": 115,
      "chip": "ym2612"
    },
    {
      "channel": 4,
      "note": 63,
      "start": 44.2091,
      "duration": 0.0186,
      "velocity": 101,
      "chip": "ym2612"
    },
    {
      "channel": 3,
      "note": 66,
      "start": 44.2103,
      "duration": 0.0186,
      "velocity": 101,
      "chip": "ym2612"
    },
    {
      "channel": 1,
      "note": 71,
      "start": 44.2126,
      "duration": 0.0188,
      "velocity": 101,
      "chip": "ym2612"
    },
    {
      "channel": 0,
      "note": 42,
      "start": 44.2237,
      "duration": 0.0161,
      "velocity": 115,
      "chip": "ym2612"
    },
    {
      "channel": 4,
      "note": 63,
      "start": 44.2277,
      "duration": 0.0133,
      "velocity": 101,
      "chip": "ym2612"
    },
    {
      "channel": 3,
      "note": 66,
      "start": 44.2288,
      "duration": 0.0161,
      "velocity": 101,
      "chip": "ym2612"
    },
    {
      "channel": 2,
      "note": 59,
      "start": 44.2302,
      "duration": 0.0159,
      "velocity": 100,
      "chip": "ym2612"
    },
    {
      "channel": 1,
      "note": 71,
      "start": 44.2313,
      "duration": 0.0159,
      "velocity": 101,
      "chip": "ym2612"
    },
    {
      "channel": 0,
      "note": 43,
      "start": 44.2398,
      "duration": 0.0161,
      "velocity": 115,
      "chip": "ym2612"
    },
    {
      "channel": 4,
      "note": 63,
      "start": 44.241,
      "duration": 0.0161,
      "velocity": 101,
      "chip": "ym2612"
    },
    {
      "channel": 3,
      "note": 66,
      "start": 44.2449,
      "duration": 0.0157,
      "velocity": 101,
      "chip": "ym2612"
    },
    {
      "channel": 2,
      "note": 59,
      "start": 44.2461,
      "duration": 0.0157,
      "velocity": 100,
      "chip": "ym2612"
    },
    {
      "channel": 1,
      "note": 71,
      "start": 44.2472,
      "duration": 0.0157,
      "velocity": 101,
      "chip": "ym2612"
    },
    {
      "channel": 0,
      "note": 43,
      "start": 44.2559,
      "duration": 0.0161,
      "velocity": 115,
      "chip": "ym2612"
    },
    {
      "channel": 4,
      "note": 63,
      "start": 44.2571,
      "duration": 0.0161,
      "velocity": 101,
      "chip": "ym2612"
    },
    {
      "channel": 3,
      "note": 66,
      "start": 44.2606,
      "duration": 0.0137,
      "velocity": 101,
      "chip": "ym2612"
    },
    {
      "channel": 2,
      "note": 59,
      "start": 44.2618,
      "duration": 0.014,
      "velocity": 100,
      "chip": "ym2612"
    },
    {
      "channel": 1,
      "note": 71,
      "start": 44.2629,
      "duration": 0.014,
      "velocity": 101,
      "chip": "ym2612"
    },
    {
      "channel": 0,
      "note": 44,
      "start": 44.272,
      "duration": 0.0161,
      "velocity": 115,
      "chip": "ym2612"
    },
    {
      "channel": 4,
      "note": 63,
      "start": 44.2732,
      "duration": 0.0161,
      "velocity": 101,
      "chip": "ym2612"
    },
    {
      "channel": 3,
      "note": 66,
      "start": 44.2744,
      "duration": 0.0161,
      "velocity": 101,
      "chip": "ym2612"
    },
    {
      "channel": 2,
      "note": 59,
      "start": 44.2758,
      "duration": 0.0186,
      "velocity": 100,
      "chip": "ym2612"
    },
    {
      "channel": 1,
      "note": 71,
      "start": 44.2769,
      "duration": 0.0186,
      "velocity": 101,
      "chip": "ym2612"
    },
    {
      "channel": 0,
      "note": 44,
      "start": 44.2882,
      "duration": 0.0161,
      "velocity": 115,
      "chip": "ym2612"
    },
    {
      "channel": 4,
      "note": 63,
      "start": 44.2893,
      "duration": 0.0161,
      "velocity": 101,
      "chip": "ym2612"
    },
    {
      "channel": 3,
      "note": 66,
      "start": 44.2905,
      "duration": 0.0161,
      "velocity": 101,
      "chip": "ym2612"
    },
    {
      "channel": 2,
      "note": 59,
      "start": 44.2944,
      "duration": 0.0134,
      "velocity": 100,
      "chip": "ym2612"
    },
    {
      "channel": 1,
      "note": 71,
      "start": 44.2955,
      "duration": 0.0161,
      "velocity": 101,
      "chip": "ym2612"
    },
    {
      "channel": 0,
      "note": 44,
      "start": 44.3043,
      "duration": 0.0161,
      "velocity": 115,
      "chip": "ym2612"
    },
    {
      "channel": 4,
      "note": 63,
      "start": 44.3054,
      "duration": 0.0161,
      "velocity": 101,
      "chip": "ym2612"
    },
    {
      "channel": 3,
      "note": 66,
      "start": 44.3066,
      "duration": 0.0161,
      "velocity": 101,
      "chip": "ym2612"
    },
    {
      "channel": 2,
      "note": 59,
      "start": 44.3077,
      "duration": 0.0161,
      "velocity": 100,
      "chip": "ym2612"
    },
    {
      "channel": 1,
      "note": 71,
      "start": 44.3116,
      "duration": 0.0158,
      "velocity": 101,
      "chip": "ym2612"
    },
    {
      "channel": 0,
      "note": 45,
      "start": 44.3204,
      "duration": 0.0161,
      "velocity": 115,
      "chip": "ym2612"
    },
    {
      "channel": 4,
      "note": 63,
      "start": 44.3215,
      "duration": 0.0161,
      "velocity": 101,
      "chip": "ym2612"
    },
    {
      "channel": 3,
      "note": 66,
      "start": 44.3227,
      "duration": 0.0161,
      "velocity": 101,
      "chip": "ym2612"
    },
    {
      "channel": 2,
      "note": 59,
      "start": 44.3238,
      "duration": 0.0161,
      "velocity": 100,
      "chip": "ym2612"
    },
    {
      "channel": 1,
      "note": 71,
      "start": 44.3274,
      "duration": 0.0138,
      "velocity": 101,
      "chip": "ym2612"
    },
    {
      "channel": 0,
      "note": 45,
      "start": 44.3365,
      "duration": 0.0161,
      "velocity": 115,
      "chip": "ym2612"
    },
    {
      "channel": 4,
      "note": 63,
      "start": 44.3376,
      "duration": 0.0161,
      "velocity": 101,
      "chip": "ym2612"
    },
    {
      "channel": 3,
      "note": 66,
      "start": 44.3388,
      "duration": 0.0161,
      "velocity": 101,
      "chip": "ym2612"
    },
    {
      "channel": 1,
      "note": 71,
      "start": 44.3412,
      "duration": 0.016,
      "velocity": 101,
      "chip": "ym2612"
    },
    {
      "channel": 0,
      "note": 46,
      "start": 44.3526,
      "duration": 0.0161,
      "velocity": 115,
      "chip": "ym2612"
    },
    {
      "channel": 4,
      "note": 63,
      "start": 44.3537,
      "duration": 0.0161,
      "velocity": 101,
      "chip": "ym2612"
    },
    {
      "channel": 3,
      "note": 66,
      "start": 44.3549,
      "duration": 0.0161,
      "velocity": 101,
      "chip": "ym2612"
    },
    {
      "channel": 1,
      "note": 71,
      "start": 44.3571,
      "duration": 0.0161,
      "velocity": 101,
      "chip": "ym2612"
    },
    {
      "channel": 0,
      "note": 46,
      "start": 44.3687,
      "duration": 0.0161,
      "velocity": 115,
      "chip": "ym2612"
    },
    {
      "channel": 4,
      "note": 63,
      "start": 44.3698,
      "duration": 0.0161,
      "velocity": 101,
      "chip": "ym2612"
    },
    {
      "channel": 3,
      "note": 66,
      "start": 44.371,
      "duration": 0.0161,
      "velocity": 101,
      "chip": "ym2612"
    },
    {
      "channel": 1,
      "note": 71,
      "start": 44.3732,
      "duration": 0.0161,
      "velocity": 101,
      "chip": "ym2612"
    },
    {
      "channel": 0,
      "note": 47,
      "start": 44.3848,
      "duration": 0.0161,
      "velocity": 115,
      "chip": "ym2612"
    },
    {
      "channel": 4,
      "note": 63,
      "start": 44.3859,
      "duration": 0.0162,
      "velocity": 101,
      "chip": "ym2612"
    },
    {
      "channel": 3,
      "note": 66,
      "start": 44.3871,
      "duration": 0.0161,
      "velocity": 101,
      "chip": "ym2612"
    },
    {
      "channel": 1,
      "note": 71,
      "start": 44.3893,
      "duration": 0.0161,
      "velocity": 101,
      "chip": "ym2612"
    },
    {
      "channel": 0,
      "note": 47,
      "start": 44.4008,
      "duration": 0.0161,
      "velocity": 115,
      "chip": "ym2612"
    },
    {
      "channel": 4,
      "note": 63,
      "start": 44.4021,
      "duration": 0.0161,
      "velocity": 101,
      "chip": "ym2612"
    },
    {
      "channel": 3,
      "note": 66,
      "start": 44.4032,
      "duration": 0.0161,
      "velocity": 101,
      "chip": "ym2612"
    },
    {
      "channel": 1,
      "note": 71,
      "start": 44.4054,
      "duration": 0.0161,
      "velocity": 101,
      "chip": "ym2612"
    },
    {
      "channel": 0,
      "note": 47,
      "start": 44.4169,
      "duration": 0.0162,
      "velocity": 115,
      "chip": "ym2612"
    },
    {
      "channel": 4,
      "note": 63,
      "start": 44.4181,
      "duration": 0.0161,
      "velocity": 101,
      "chip": "ym2612"
    },
    {
      "channel": 3,
      "note": 66,
      "start": 44.4193,
      "duration": 0.0161,
      "velocity": 101,
      "chip": "ym2612"
    },
    {
      "channel": 1,
      "note": 71,
      "start": 44.4215,
      "duration": 0.0162,
      "velocity": 101,
      "chip": "ym2612"
    },
    {
      "channel": 0,
      "note": 48,
      "start": 44.4331,
      "duration": 0.0178,
      "velocity": 115,
      "chip": "ym2612"
    },
    {
      "channel": 4,
      "note": 63,
      "start": 44.4342,
      "duration": 0.0179,
      "velocity": 101,
      "chip": "ym2612"
    },
    {
      "channel": 3,
      "note": 66,
      "start": 44.4354,
      "duration": 0.0179,
      "velocity": 101,
      "chip": "ym2612"
    },
    {
      "channel": 1,
      "note": 71,
      "start": 44.4377,
      "duration": 0.0181,
      "velocity": 101,
      "chip": "ym2612"
    },
    {
      "channel": 0,
      "note": 36,
      "start": 44.451,
      "duration": 0.0144,
      "velocity": 115,
      "chip": "ym2612"
    },
    {
      "channel": 4,
      "note": 63,
      "start": 44.4521,
      "duration": 0.0144,
      "velocity": 101,
      "chip": "ym2612"
    },
    {
      "channel": 3,
      "note": 66,
      "start": 44.4533,
      "duration": 0.0144,
      "velocity": 101,
      "chip": "ym2612"
    },
    {
      "channel": 2,
      "note": 59,
      "start": 44.4547,
      "duration": 0.0142,
      "velocity": 100,
      "chip": "ym2612"
    },
    {
      "channel": 1,
      "note": 71,
      "start": 44.4558,
      "duration": 0.0142,
      "velocity": 101,
      "chip": "ym2612"
    },
    {
      "channel": 0,
      "note": 36,
      "start": 44.4654,
      "duration": 0.016,
      "velocity": 115,
      "chip": "ym2612"
    },
    {
      "channel": 4,
      "note": 63,
      "start": 44.4665,
      "duration": 0.016,
      "velocity": 101,
      "chip": "ym2612"
    },
    {
      "channel": 3,
      "note": 66,
      "start": 44.4676,
      "duration": 0.016,
      "velocity": 101,
      "chip": "ym2612"
    },
    {
      "channel": 2,
      "note": 59,
      "start": 44.4688,
      "duration": 0.016,
      "velocity": 100,
      "chip": "ym2612"
    },
    {
      "channel": 1,
      "note": 71,
      "start": 44.47,
      "duration": 0.016,
      "velocity": 101,
      "chip": "ym2612"
    },
    {
      "channel": 0,
      "note": 37,
      "start": 44.4814,
      "duration": 0.0161,
      "velocity": 115,
      "chip": "ym2612"
    },
    {
      "channel": 4,
      "note": 63,
      "start": 44.4825,
      "duration": 0.0161,
      "velocity": 101,
      "chip": "ym2612"
    },
    {
      "channel": 3,
      "note": 66,
      "start": 44.4837,
      "duration": 0.0161,
      "velocity": 101,
      "chip": "ym2612"
    },
    {
      "channel": 2,
      "note": 59,
      "start": 44.4848,
      "duration": 0.0161,
      "velocity": 100,
      "chip": "ym2612"
    },
    {
      "channel": 1,
      "note": 71,
      "start": 44.486,
      "duration": 0.0161,
      "velocity": 101,
      "chip": "ym2612"
    },
    {
      "channel": 0,
      "note": 37,
      "start": 44.4975,
      "duration": 0.0161,
      "velocity": 115,
      "chip": "ym2612"
    },
    {
      "channel": 4,
      "note": 63,
      "start": 44.4986,
      "duration": 0.0161,
      "velocity": 101,
      "chip": "ym2612"
    },
    {
      "channel": 3,
      "note": 66,
      "start": 44.4998,
      "duration": 0.0161,
      "velocity": 101,
      "chip": "ym2612"
    },
    {
      "channel": 2,
      "note": 59,
      "start": 44.5009,
      "duration": 0.0161,
      "velocity": 100,
      "chip": "ym2612"
    },
    {
      "channel": 1,
      "note": 71,
      "start": 44.5021,
      "duration": 0.0161,
      "velocity": 101,
      "chip": "ym2612"
    },
    {
      "channel": 0,
      "note": 38,
      "start": 44.5136,
      "duration": 0.0161,
      "velocity": 115,
      "chip": "ym2612"
    },
    {
      "channel": 4,
      "note": 63,
      "start": 44.5147,
      "duration": 0.0161,
      "velocity": 101,
      "chip": "ym2612"
    },
    {
      "channel": 3,
      "note": 66,
      "start": 44.5159,
      "duration": 0.0161,
      "velocity": 101,
      "chip": "ym2612"
    },
    {
      "channel": 2,
      "note": 59,
      "start": 44.517,
      "duration": 0.0161,
      "velocity": 100,
      "chip": "ym2612"
    },
    {
      "channel": 1,
      "note": 71,
      "start": 44.5181,
      "duration": 0.0161,
      "velocity": 101,
      "chip": "ym2612"
    },
    {
      "channel": 0,
      "note": 38,
      "start": 44.5297,
      "duration": 0.0161,
      "velocity": 115,
      "chip": "ym2612"
    },
    {
      "channel": 4,
      "note": 63,
      "start": 44.5308,
      "duration": 0.0161,
      "velocity": 101,
      "chip": "ym2612"
    },
    {
      "channel": 3,
      "note": 66,
      "start": 44.532,
      "duration": 0.0162,
      "velocity": 101,
      "chip": "ym2612"
    },
    {
      "channel": 2,
      "note": 59,
      "start": 44.5331,
      "duration": 0.0161,
      "velocity": 100,
      "chip": "ym2612"
    },
    {
      "channel": 1,
      "note": 71,
      "start": 44.5342,
      "duration": 0.0161,
      "velocity": 101,
      "chip": "ym2612"
    },
    {
      "channel": 0,
      "note": 39,
      "start": 44.5458,
      "duration": 0.0167,
      "velocity": 115,
      "chip": "ym2612"
    },
    {
      "channel": 4,
      "note": 63,
      "start": 44.547,
      "duration": 0.0167,
      "velocity": 101,
      "chip": "ym2612"
    },
    {
      "channel": 3,
      "note": 66,
      "start": 44.5481,
      "duration": 0.0167,
      "velocity": 101,
      "chip": "ym2612"
    },
    {
      "channel": 2,
      "note": 59,
      "start": 44.5492,
      "duration": 0.0167,
      "velocity": 100,
      "chip": "ym2612"
    },
    {
      "channel": 1,
      "note": 71,
      "start": 44.5503,
      "duration": 0.0167,
      "velocity": 101,
      "chip": "ym2612"
    },
    {
      "channel": 0,
      "note": 39,
      "start": 44.5625,
      "duration": 0.0167,
      "velocity": 115,
      "chip": "ym2612"
    },
    {
      "channel": 4,
      "note": 63,
      "start": 44.5636,
      "duration": 0.0167,
      "velocity": 101,
      "chip": "ym2612"
    },
    {
      "channel": 3,
      "note": 66,
      "start": 44.5648,
      "duration": 0.0167,
      "velocity": 101,
      "chip": "ym2612"
    },
    {
      "channel": 1,
      "note": 71,
      "start": 44.5671,
      "duration": 0.0167,
      "velocity": 101,
      "chip": "ym2612"
    },
    {
      "channel": 0,
      "note": 40,
      "start": 44.5792,
      "duration": 0.0163,
      "velocity": 115,
      "chip": "ym2612"
    },
    {
      "channel": 4,
      "note": 63,
      "start": 44.5803,
      "duration": 0.0163,
      "velocity": 101,
      "chip": "ym2612"
    },
    {
      "channel": 3,
      "note": 66,
      "start": 44.5815,
      "duration": 0.0163,
      "velocity": 101,
      "chip": "ym2612"
    },
    {
      "channel": 1,
      "note": 71,
      "start": 44.5837,
      "duration": 0.0163,
      "velocity": 101,
      "chip": "ym2612"
    },
    {
      "channel": 0,
      "note": 40,
      "start": 44.5954,
      "duration": 0.0148,
      "velocity": 115,
      "chip": "ym2612"
    },
    {
      "channel": 4,
      "note": 63,
      "start": 44.5966,
      "duration": 0.0148,
      "velocity": 101,
      "chip": "ym2612"
    },
    {
      "channel": 3,
      "note": 66,
      "start": 44.5977,
      "duration": 0.0148,
      "velocity": 101,
      "chip": "ym2612"
    },
    {
      "channel": 1,
      "note": 71,
      "start": 44.6,
      "duration": 0.0148,
      "velocity": 101,
      "chip": "ym2612"
    },
    {
      "channel": 0,
      "note": 40,
      "start": 44.6102,
      "duration": 0.0188,
      "velocity": 115,
      "chip": "ym2612"
    },
    {
      "channel": 4,
      "note": 63,
      "start": 44.6113,
      "duration": 0.0188,
      "velocity": 101,
      "chip": "ym2612"
    },
    {
      "channel": 3,
      "note": 66,
      "start": 44.6125,
      "duration": 0.0188,
      "velocity": 101,
      "chip": "ym2612"
    },
    {
      "channel": 1,
      "note": 71,
      "start": 44.6148,
      "duration": 0.0188,
      "velocity": 101,
      "chip": "ym2612"
    },
    {
      "channel": 0,
      "note": 41,
      "start": 44.629,
      "duration": 0.0161,
      "velocity": 115,
      "chip": "ym2612"
    },
    {
      "channel": 4,
      "note": 63,
      "start": 44.6302,
      "duration": 0.0161,
      "velocity": 101,
      "chip": "ym2612"
    },
    {
      "channel": 3,
      "note": 66,
      "start": 44.6313,
      "duration": 0.0161,
      "velocity": 101,
      "chip": "ym2612"
    },
    {
      "channel": 1,
      "note": 71,
      "start": 44.6336,
      "duration": 0.0161,
      "velocity": 101,
      "chip": "ym2612"
    },
    {
      "channel": 0,
      "note": 41,
      "start": 44.6451,
      "duration": 0.0158,
      "velocity": 115,
      "chip": "ym2612"
    },
    {
      "channel": 4,
      "note": 63,
      "start": 44.6463,
      "duration": 0.0158,
      "velocity": 101,
      "chip": "ym2612"
    },
    {
      "channel": 3,
      "note": 66,
      "start": 44.6474,
      "duration": 0.0158,
      "velocity": 101,
      "chip": "ym2612"
    },
    {
      "channel": 1,
      "note": 71,
      "start": 44.6497,
      "duration": 0.0158,
      "velocity": 101,
      "chip": "ym2612"
    },
    {
      "channel": 0,
      "note": 42,
      "start": 44.6609,
      "duration": 0.0158,
      "velocity": 124,
      "chip": "ym2612"
    },
    {
      "channel": 4,
      "note": 63,
      "start": 44.662,
      "duration": 0.0159,
      "velocity": 101,
      "chip": "ym2612"
    },
    {
      "channel": 3,
      "note": 66,
      "start": 44.6632,
      "duration": 0.0158,
      "velocity": 101,
      "chip": "ym2612"
    },
    {
      "channel": 1,
      "note": 71,
      "start": 44.6655,
      "duration": 0.0161,
      "velocity": 101,
      "chip": "ym2612"
    },
    {
      "channel": 0,
      "note": 84,
      "start": 44.6767,
      "duration": 0.0141,
      "velocity": 124,
      "chip": "ym2612"
    },
    {
      "channel": 4,
      "note": 63,
      "start": 44.6779,
      "duration": 0.0168,
      "velocity": 101,
      "chip": "ym2612"
    },
    {
      "channel": 3,
      "note": 66,
      "start": 44.679,
      "duration": 0.0168,
      "velocity": 101,
      "chip": "ym2612"
    },
    {
      "channel": 2,
      "note": 71,
      "start": 44.6804,
      "duration": 0.0165,
      "velocity": 100,
      "chip": "ym2612"
    },
    {
      "channel": 1,
      "note": 71,
      "start": 44.6816,
      "duration": 0.0166,
      "velocity": 101,
      "chip": "ym2612"
    },
    {
      "channel": 0,
      "note": 82,
      "start": 44.6907,
      "duration": 0.016,
      "velocity": 124,
      "chip": "ym2612"
    },
    {
      "channel": 4,
      "note": 63,
      "start": 44.6947,
      "duration": 0.016,
      "velocity": 101,
      "chip": "ym2612"
    },
    {
      "channel": 3,
      "note": 66,
      "start": 44.6958,
      "duration": 0.016,
      "velocity": 101,
      "chip": "ym2612"
    },
    {
      "channel": 2,
      "note": 71,
      "start": 44.697,
      "duration": 0.016,
      "velocity": 100,
      "chip": "ym2612"
    },
    {
      "channel": 1,
      "note": 71,
      "start": 44.6981,
      "duration": 0.016,
      "velocity": 101,
      "chip": "ym2612"
    },
    {
      "channel": 0,
      "note": 80,
      "start": 44.7068,
      "duration": 0.0162,
      "velocity": 124,
      "chip": "ym2612"
    },
    {
      "channel": 4,
      "note": 63,
      "start": 44.7107,
      "duration": 0.0134,
      "velocity": 101,
      "chip": "ym2612"
    },
    {
      "channel": 3,
      "note": 66,
      "start": 44.7119,
      "duration": 0.0158,
      "velocity": 101,
      "chip": "ym2612"
    },
    {
      "channel": 2,
      "note": 71,
      "start": 44.713,
      "duration": 0.0157,
      "velocity": 100,
      "chip": "ym2612"
    },
    {
      "channel": 1,
      "note": 71,
      "start": 44.7141,
      "duration": 0.0157,
      "velocity": 101,
      "chip": "ym2612"
    },
    {
      "channel": 0,
      "note": 77,
      "start": 44.7229,
      "duration": 0.0161,
      "velocity": 124,
      "chip": "ym2612"
    },
    {
      "channel": 4,
      "note": 63,
      "start": 44.7241,
      "duration": 0.0161,
      "velocity": 101,
      "chip": "ym2612"
    },
    {
      "channel": 3,
      "note": 66,
      "start": 44.7276,
      "duration": 0.014,
      "velocity": 101,
      "chip": "ym2612"
    },
    {
      "channel": 2,
      "note": 71,
      "start": 44.7287,
      "duration": 0.0141,
      "velocity": 100,
      "chip": "ym2612"
    },
    {
      "channel": 1,
      "note": 71,
      "start": 44.7299,
      "duration": 0.0141,
      "velocity": 101,
      "chip": "ym2612"
    },
    {
      "channel": 0,
      "note": 75,
      "start": 44.739,
      "duration": 0.0161,
      "velocity": 124,
      "chip": "ym2612"
    },
    {
      "channel": 4,
      "note": 63,
      "start": 44.7402,
      "duration": 0.0161,
      "velocity": 101,
      "chip": "ym2612"
    },
    {
      "channel": 3,
      "note": 66,
      "start": 44.7416,
      "duration": 0.0158,
      "velocity": 101,
      "chip": "ym2612"
    },
    {
      "channel": 2,
      "note": 71,
      "start": 44.7428,
      "duration": 0.0185,
      "velocity": 100,
      "chip": "ym2612"
    },
    {
      "channel": 1,
      "note": 71,
      "start": 44.7439,
      "duration": 0.0185,
      "velocity": 101,
      "chip": "ym2612"
    },
    {
      "channel": 0,
      "note": 72,
      "start": 44.7551,
      "duration": 0.0161,
      "velocity": 124,
      "chip": "ym2612"
    },
    {
      "channel": 4,
      "note": 63,
      "start": 44.7563,
      "duration": 0.0161,
      "velocity": 101,
      "chip": "ym2612"
    },
    {
      "channel": 3,
      "note": 66,
      "start": 44.7574,
      "duration": 0.0161,
      "velocity": 101,
      "chip": "ym2612"
    },
    {
      "channel": 2,
      "note": 71,
      "start": 44.7613,
      "duration": 0.0161,
      "velocity": 100,
      "chip": "ym2612"
    },
    {
      "channel": 1,
      "note": 71,
      "start": 44.7624,
      "duration": 0.0161,
      "velocity": 101,
      "chip": "ym2612"
    },
    {
      "channel": 0,
      "note": 70,
      "start": 44.7712,
      "duration": 0.0161,
      "velocity": 124,
      "chip": "ym2612"
    },
    {
      "channel": 4,
      "note": 63,
      "start": 44.7724,
      "duration": 0.0161,
      "velocity": 101,
      "chip": "ym2612"
    },
    {
      "channel": 3,
      "note": 66,
      "start": 44.7735,
      "duration": 0.0161,
      "velocity": 101,
      "chip": "ym2612"
    },
    {
      "channel": 2,
      "note": 71,
      "start": 44.7774,
      "duration": 0.0134,
      "velocity": 100,
      "chip": "ym2612"
    },
    {
      "channel": 1,
      "note": 71,
      "start": 44.7785,
      "duration": 0.0158,
      "velocity": 101,
      "chip": "ym2612"
    },
    {
      "channel": 0,
      "note": 68,
      "start": 44.7873,
      "duration": 0.0161,
      "velocity": 124,
      "chip": "ym2612"
    },
    {
      "channel": 4,
      "note": 63,
      "start": 44.7884,
      "duration": 0.0161,
      "velocity": 101,
      "chip": "ym2612"
    },
    {
      "channel": 3,
      "note": 66,
      "start": 44.7896,
      "duration": 0.0161,
      "velocity": 101,
      "chip": "ym2612"
    },
    {
      "channel": 1,
      "note": 71,
      "start": 44.7943,
      "duration": 0.014,
      "velocity": 101,
      "chip": "ym2612"
    },
    {
      "channel": 0,
      "note": 65,
      "start": 44.8034,
      "duration": 0.0161,
      "velocity": 124,
      "chip": "ym2612"
    },
    {
      "channel": 4,
      "note": 63,
      "start": 44.8045,
      "duration": 0.0161,
      "velocity": 101,
      "chip": "ym2612"
    },
    {
      "channel": 3,
      "note": 66,
      "start": 44.8057,
      "duration": 0.0161,
      "velocity": 101,
      "chip": "ym2612"
    },
    {
      "channel": 1,
      "note": 71,
      "start": 44.8083,
      "duration": 0.0158,
      "velocity": 101,
      "chip": "ym2612"
    },
    {
      "channel": 0,
      "note": 63,
      "start": 44.8195,
      "duration": 0.0153,
      "velocity": 1,
      "chip": "ym2612"
    },
    {
      "channel": 4,
      "note": 63,
      "start": 44.8206,
      "duration": 0.0153,
      "velocity": 101,
      "chip": "ym2612"
    },
    {
      "channel": 3,
      "note": 66,
      "start": 44.8218,
      "duration": 0.0153,
      "velocity": 101,
      "chip": "ym2612"
    },
    {
      "channel": 1,
      "note": 71,
      "start": 44.8241,
      "duration": 0.0153,
      "velocity": 101,
      "chip": "ym2612"
    },
    {
      "channel": 4,
      "note": 63,
      "start": 44.836,
      "duration": 0.0153,
      "velocity": 101,
      "chip": "ym2612"
    },
    {
      "channel": 3,
      "note": 66,
      "start": 44.8371,
      "duration": 0.0153,
      "velocity": 101,
      "chip": "ym2612"
    },
    {
      "channel": 1,
      "note": 71,
      "start": 44.8394,
      "duration": 0.0153,
      "velocity": 101,
      "chip": "ym2612"
    },
    {
      "channel": 4,
      "note": 63,
      "start": 44.8512,
      "duration": 0.0161,
      "velocity": 101,
      "chip": "ym2612"
    },
    {
      "channel": 3,
      "note": 66,
      "start": 44.8524,
      "duration": 0.0161,
      "velocity": 101,
      "chip": "ym2612"
    },
    {
      "channel": 1,
      "note": 71,
      "start": 44.8547,
      "duration": 0.0161,
      "velocity": 101,
      "chip": "ym2612"
    },
    {
      "channel": 4,
      "note": 63,
      "start": 44.8673,
      "duration": 0.0161,
      "velocity": 101,
      "chip": "ym2612"
    },
    {
      "channel": 3,
      "note": 66,
      "start": 44.8685,
      "duration": 0.0161,
      "velocity": 101,
      "chip": "ym2612"
    },
    {
      "channel": 1,
      "note": 71,
      "start": 44.8708,
      "duration": 0.0161,
      "velocity": 101,
      "chip": "ym2612"
    },
    {
      "channel": 4,
      "note": 63,
      "start": 44.8834,
      "duration": 0.0195,
      "velocity": 101,
      "chip": "ym2612"
    },
    {
      "channel": 3,
      "note": 66,
      "start": 44.8846,
      "duration": 0.0195,
      "velocity": 101,
      "chip": "ym2612"
    },
    {
      "channel": 1,
      "note": 71,
      "start": 44.8868,
      "duration": 0.0198,
      "velocity": 101,
      "chip": "ym2612"
    },
    {
      "channel": 0,
      "note": 36,
      "start": 44.9018,
      "duration": 0.0144,
      "velocity": 115,
      "chip": "ym2612"
    },
    {
      "channel": 4,
      "note": 63,
      "start": 44.9029,
      "duration": 0.0144,
      "velocity": 101,
      "chip": "ym2612"
    },
    {
      "channel": 3,
      "note": 66,
      "start": 44.9041,
      "duration": 0.0144,
      "velocity": 101,
      "chip": "ym2612"
    },
    {
      "channel": 2,
      "note": 59,
      "start": 44.9055,
      "duration": 0.0142,
      "velocity": 100,
      "chip": "ym2612"
    },
    {
      "channel": 1,
      "note": 71,
      "start": 44.9066,
      "duration": 0.0142,
      "velocity": 101,
      "chip": "ym2612"
    },
    {
      "channel": 0,
      "note": 36,
      "start": 44.9162,
      "duration": 0.016,
      "velocity": 115,
      "chip": "ym2612"
    },
    {
      "channel": 4,
      "note": 63,
      "start": 44.9173,
      "duration": 0.016,
      "velocity": 101,
      "chip": "ym2612"
    },
    {
      "channel": 3,
      "note": 66,
      "start": 44.9185,
      "duration": 0.016,
      "velocity": 101,
      "chip": "ym2612"
    },
    {
      "channel": 2,
      "note": 59,
      "start": 44.9197,
      "duration": 0.016,
      "velocity": 100,
      "chip": "ym2612"
    },
    {
      "channel": 1,
      "note": 71,
      "start": 44.9208,
      "duration": 0.016,
      "velocity": 101,
      "chip": "ym2612"
    },
    {
      "channel": 0,
      "note": 37,
      "start": 44.9322,
      "duration": 0.0161,
      "velocity": 115,
      "chip": "ym2612"
    },
    {
      "channel": 4,
      "note": 63,
      "start": 44.9334,
      "duration": 0.0161,
      "velocity": 101,
      "chip": "ym2612"
    },
    {
      "channel": 3,
      "note": 66,
      "start": 44.9345,
      "duration": 0.0161,
      "velocity": 101,
      "chip": "ym2612"
    },
    {
      "channel": 2,
      "note": 59,
      "start": 44.9356,
      "duration": 0.0161,
      "velocity": 100,
      "chip": "ym2612"
    },
    {
      "channel": 1,
      "note": 71,
      "start": 44.9368,
      "duration": 0.0161,
      "velocity": 101,
      "chip": "ym2612"
    },
    {
      "channel": 0,
      "note": 37,
      "start": 44.9483,
      "duration": 0.0161,
      "velocity": 115,
      "chip": "ym2612"
    },
    {
      "channel": 4,
      "note": 63,
      "start": 44.9495,
      "duration": 0.0161,
      "velocity": 101,
      "chip": "ym2612"
    },
    {
      "channel": 3,
      "note": 66,
      "start": 44.9506,
      "duration": 0.0161,
      "velocity": 101,
      "chip": "ym2612"
    },
    {
      "channel": 2,
      "note": 59,
      "start": 44.9517,
      "duration": 0.0161,
      "velocity": 100,
      "chip": "ym2612"
    },
    {
      "channel": 1,
      "note": 71,
      "start": 44.9529,
      "duration": 0.0161,
      "velocity": 101,
      "chip": "ym2612"
    },
    {
      "channel": 0,
      "note": 38,
      "start": 44.9644,
      "duration": 0.0161,
      "velocity": 115,
      "chip": "ym2612"
    },
    {
      "channel": 4,
      "note": 63,
      "start": 44.9655,
      "duration": 0.0161,
      "velocity": 101,
      "chip": "ym2612"
    },
    {
      "channel": 3,
      "note": 66,
      "start": 44.9667,
      "duration": 0.0161,
      "velocity": 101,
      "chip": "ym2612"
    },
    {
      "channel": 2,
      "note": 59,
      "start": 44.9678,
      "duration": 0.0161,
      "velocity": 100,
      "chip": "ym2612"
    },
    {
      "channel": 1,
      "note": 71,
      "start": 44.969,
      "duration": 0.0161,
      "velocity": 101,
      "chip": "ym2612"
    },
    {
      "channel": 0,
      "note": 38,
      "start": 44.9805,
      "duration": 0.0161,
      "velocity": 115,
      "chip": "ym2612"
    },
    {
      "channel": 4,
      "note": 63,
      "start": 44.9816,
      "duration": 0.0162,
      "velocity": 101,
      "chip": "ym2612"
    },
    {
      "channel": 3,
      "note": 66,
      "start": 44.9828,
      "duration": 0.0161,
      "velocity": 101,
      "chip": "ym2612"
    },
    {
      "channel": 2,
      "note": 59,
      "start": 44.9839,
      "duration": 0.0161,
      "velocity": 100,
      "chip": "ym2612"
    },
    {
      "channel": 1,
      "note": 71,
      "start": 44.9851,
      "duration": 0.0161,
      "velocity": 101,
      "chip": "ym2612"
    },
    {
      "channel": 0,
      "note": 39,
      "start": 44.9966,
      "duration": 0.0162,
      "velocity": 115,
      "chip": "ym2612"
    },
    {
      "channel": 4,
      "note": 63,
      "start": 44.9978,
      "duration": 0.0161,
      "velocity": 101,
      "chip": "ym2612"
    },
    {
      "channel": 3,
      "note": 66,
      "start": 44.9989,
      "duration": 0.0161,
      "velocity": 101,
      "chip": "ym2612"
    },
    {
      "channel": 2,
      "note": 59,
      "start": 45.0,
      "duration": 0.0162,
      "velocity": 100,
      "chip": "ym2612"
    },
    {
      "channel": 1,
      "note": 71,
      "start": 45.0012,
      "duration": 0.0162,
      "velocity": 101,
      "chip": "ym2612"
    },
    {
      "channel": 0,
      "note": 39,
      "start": 45.0127,
      "duration": 0.0164,
      "velocity": 115,
      "chip": "ym2612"
    },
    {
      "channel": 4,
      "note": 63,
      "start": 45.0139,
      "duration": 0.0164,
      "velocity": 101,
      "chip": "ym2612"
    },
    {
      "channel": 3,
      "note": 66,
      "start": 45.015,
      "duration": 0.0164,
      "velocity": 101,
      "chip": "ym2612"
    },
    {
      "channel": 1,
      "note": 71,
      "start": 45.0173,
      "duration": 0.0164,
      "velocity": 101,
      "chip": "ym2612"
    },
    {
      "channel": 0,
      "note": 40,
      "start": 45.0292,
      "duration": 0.0167,
      "velocity": 115,
      "chip": "ym2612"
    },
    {
      "channel": 4,
      "note": 63,
      "start": 45.0303,
      "duration": 0.0167,
      "velocity": 101,
      "chip": "ym2612"
    },
    {
      "channel": 3,
      "note": 66,
      "start": 45.0315,
      "duration": 0.0167,
      "velocity": 101,
      "chip": "ym2612"
    },
    {
      "channel": 1,
      "note": 71,
      "start": 45.0337,
      "duration": 0.0167,
      "velocity": 101,
      "chip": "ym2612"
    },
    {
      "channel": 0,
      "note": 40,
      "start": 45.0458,
      "duration": 0.0163,
      "velocity": 115,
      "chip": "ym2612"
    },
    {
      "channel": 4,
      "note": 63,
      "start": 45.047,
      "duration": 0.0163,
      "velocity": 101,
      "chip": "ym2612"
    },
    {
      "channel": 3,
      "note": 66,
      "start": 45.0481,
      "duration": 0.0163,
      "velocity": 101,
      "chip": "ym2612"
    },
    {
      "channel": 1,
      "note": 71,
      "start": 45.0504,
      "duration": 0.0163,
      "velocity": 101,
      "chip": "ym2612"
    },
    {
      "channel": 0,
      "note": 40,
      "start": 45.0621,
      "duration": 0.015,
      "velocity": 115,
      "chip": "ym2612"
    },
    {
      "channel": 4,
      "note": 63,
      "start": 45.0632,
      "duration": 0.015,
      "velocity": 101,
      "chip": "ym2612"
    },
    {
      "channel": 3,
      "note": 66,
      "start": 45.0644,
      "duration": 0.015,
      "velocity": 101,
      "chip": "ym2612"
    },
    {
      "channel": 1,
      "note": 71,
      "start": 45.0667,
      "duration": 0.015,
      "velocity": 101,
      "chip": "ym2612"
    },
    {
      "channel": 0,
      "note": 41,
      "start": 45.0771,
      "duration": 0.0187,
      "velocity": 115,
      "chip": "ym2612"
    },
    {
      "channel": 4,
      "note": 63,
      "start": 45.0783,
      "duration": 0.0187,
      "velocity": 101,
      "chip": "ym2612"
    },
    {
      "channel": 3,
      "note": 66,
      "start": 45.0794,
      "duration": 0.0187,
      "velocity": 101,
      "chip": "ym2612"
    },
    {
      "channel": 1,
      "note": 71,
      "start": 45.0817,
      "duration": 0.0187,
      "velocity": 101,
      "chip": "ym2612"
    },
    {
      "channel": 0,
      "note": 41,
      "start": 45.0958,
      "duration": 0.0162,
      "velocity": 115,
      "chip": "ym2612"
    },
    {
      "channel": 4,
      "note": 63,
      "start": 45.097,
      "duration": 0.0163,
      "velocity": 101,
      "chip": "ym2612"
    },
    {
      "channel": 3,
      "note": 66,
      "start": 45.0981,
      "duration": 0.0163,
      "velocity": 101,
      "chip": "ym2612"
    },
    {
      "channel": 1,
      "note": 71,
      "start": 45.1004,
      "duration": 0.0162,
      "velocity": 101,
      "chip": "ym2612"
    },
    {
      "channel": 0,
      "note": 42,
      "start": 45.112,
      "duration": 0.0175,
      "velocity": 115,
      "chip": "ym2612"
    },
    {
      "channel": 4,
      "note": 63,
      "start": 45.1132,
      "duration": 0.0178,
      "velocity": 101,
      "chip": "ym2612"
    },
    {
      "channel": 3,
      "note": 66,
      "start": 45.1144,
      "duration": 0.018,
      "velocity": 101,
      "chip": "ym2612"
    },
    {
      "channel": 1,
      "note": 71,
      "start": 45.1166,
      "duration": 0.0186,
      "velocity": 101,
      "chip": "ym2612"
    },
    {
      "channel": 0,
      "note": 36,
      "start": 45.1296,
      "duration": 0.0123,
      "velocity": 115,
      "chip": "ym2612"
    },
    {
      "channel": 4,
      "note": 56,
      "start": 45.1311,
      "duration": 0.0121,
      "velocity": 101,
      "chip": "ym2612"
    },
    {
      "channel": 3,
      "note": 59,
      "start": 45.1325,
      "duration": 0.0118,
      "velocity": 101,
      "chip": "ym2612"
    },
    {
      "channel": 2,
      "note": 61,
      "start": 45.1339,
      "duration": 0.0117,
      "velocity": 100,
      "chip": "ym2612"
    },
    {
      "channel": 1,
      "note": 64,
      "start": 45.1353,
      "duration": 0.0115,
      "velocity": 101,
      "chip": "ym2612"
    },
    {
      "channel": 0,
      "note": 36,
      "start": 45.1419,
      "duration": 0.0157,
      "velocity": 115,
      "chip": "ym2612"
    },
    {
      "channel": 4,
      "note": 56,
      "start": 45.1432,
      "duration": 0.0184,
      "velocity": 101,
      "chip": "ym2612"
    },
    {
      "channel": 3,
      "note": 59,
      "start": 45.1443,
      "duration": 0.0184,
      "velocity": 101,
      "chip": "ym2612"
    },
    {
      "channel": 2,
      "note": 61,
      "start": 45.1455,
      "duration": 0.0183,
      "velocity": 100,
      "chip": "ym2612"
    },
    {
      "channel": 1,
      "note": 64,
      "start": 45.1467,
      "duration": 0.0183,
      "velocity": 101,
      "chip": "ym2612"
    },
    {
      "channel": 0,
      "note": 37,
      "start": 45.1576,
      "duration": 0.0161,
      "velocity": 115,
      "chip": "ym2612"
    },
    {
      "channel": 4,
      "note": 56,
      "start": 45.1615,
      "duration": 0.0161,
      "velocity": 101,
      "chip": "ym2612"
    },
    {
      "channel": 3,
      "note": 59,
      "start": 45.1627,
      "duration": 0.0161,
      "velocity": 101,
      "chip": "ym2612"
    },
    {
      "channel": 2,
      "note": 61,
      "start": 45.1638,
      "duration": 0.0161,
      "velocity": 100,
      "chip": "ym2612"
    },
    {
      "channel": 1,
      "note": 64,
      "start": 45.165,
      "duration": 0.0161,
      "velocity": 101,
      "chip": "ym2612"
    },
    {
      "channel": 0,
      "note": 37,
      "start": 45.1737,
      "duration": 0.0161,
      "velocity": 115,
      "chip": "ym2612"
    },
    {
      "channel": 4,
      "note": 56,
      "start": 45.1776,
      "duration": 0.0134,
      "velocity": 101,
      "chip": "ym2612"
    },
    {
      "channel": 3,
      "note": 59,
      "start": 45.1788,
      "duration": 0.0158,
      "velocity": 101,
      "chip": "ym2612"
    },
    {
      "channel": 2,
      "note": 61,
      "start": 45.1799,
      "duration": 0.0157,
      "velocity": 100,
      "chip": "ym2612"
    },
    {
      "channel": 1,
      "note": 64,
      "start": 45.1811,
      "duration": 0.0157,
      "velocity": 101,
      "chip": "ym2612"
    },
    {
      "channel": 0,
      "note": 38,
      "start": 45.1898,
      "duration": 0.0161,
      "velocity": 115,
      "chip": "ym2612"
    },
    {
      "channel": 4,
      "note": 56,
      "start": 45.191,
      "duration": 0.0161,
      "velocity": 101,
      "chip": "ym2612"
    },
    {
      "channel": 3,
      "note": 59,
      "start": 45.1946,
      "duration": 0.014,
      "velocity": 101,
      "chip": "ym2612"
    },
    {
      "channel": 2,
      "note": 61,
      "start": 45.1956,
      "duration": 0.0141,
      "velocity": 100,
      "chip": "ym2612"
    },
    {
      "channel": 1,
      "note": 64,
      "start": 45.1968,
      "duration": 0.0141,
      "velocity": 101,
      "chip": "ym2612"
    },
    {
      "channel": 0,
      "note": 38,
      "start": 45.2059,
      "duration": 0.0161,
      "velocity": 115,
      "chip": "ym2612"
    },
    {
      "channel": 4,
      "note": 56,
      "start": 45.2071,
      "duration": 0.0161,
      "velocity": 101,
      "chip": "ym2612"
    },
    {
      "channel": 3,
      "note": 59,
      "start": 45.2085,
      "duration": 0.0158,
      "velocity": 101,
      "chip": "ym2612"
    },
    {
      "channel": 2,
      "note": 61,
      "start": 45.2097,
      "duration": 0.0185,
      "velocity": 100,
      "chip": "ym2612"
    },
    {
      "channel": 1,
      "note": 64,
      "start": 45.2108,
      "duration": 0.0185,
      "velocity": 101,
      "chip": "ym2612"
    },
    {
      "channel": 0,
      "note": 39,
      "start": 45.222,
      "duration": 0.0161,
      "velocity": 115,
      "chip": "ym2612"
    },
    {
      "channel": 4,
      "note": 56,
      "start": 45.2232,
      "duration": 0.0161,
      "velocity": 101,
      "chip": "ym2612"
    },
    {
      "channel": 3,
      "note": 59,
      "start": 45.2243,
      "duration": 0.0161,
      "velocity": 101,
      "chip": "ym2612"
    },
    {
      "channel": 2,
      "note": 61,
      "start": 45.2282,
      "duration": 0.0161,
      "velocity": 100,
      "chip": "ym2612"
    },
    {
      "channel": 1,
      "note": 64,
      "start": 45.2293,
      "duration": 0.0162,
      "velocity": 101,
      "chip": "ym2612"
    },
    {
      "channel": 0,
      "note": 39,
      "start": 45.2381,
      "duration": 0.0161,
      "velocity": 115,
      "chip": "ym2612"
    },
    {
      "channel": 4,
      "note": 56,
      "start": 45.2393,
      "duration": 0.0161,
      "velocity": 101,
      "chip": "ym2612"
    },
    {
      "channel": 3,
      "note": 59,
      "start": 45.2404,
      "duration": 0.0161,
      "velocity": 101,
      "chip": "ym2612"
    },
    {
      "channel": 1,
      "note": 64,
      "start": 45.2455,
      "duration": 0.0156,
      "velocity": 101,
      "chip": "ym2612"
    },
    {
      "channel": 0,
      "note": 40,
      "start": 45.2542,
      "duration": 0.0161,
      "velocity": 115,
      "chip": "ym2612"
    },
    {
      "channel": 4,
      "note": 56,
      "start": 45.2554,
      "duration": 0.0161,
      "velocity": 101,
      "chip": "ym2612"
    },
    {
      "channel": 3,
      "note": 59,
      "start": 45.2565,
      "duration": 0.0162,
      "velocity": 101,
      "chip": "ym2612"
    },
    {
      "channel": 1,
      "note": 64,
      "start": 45.2612,
      "duration": 0.0141,
      "velocity": 101,
      "chip": "ym2612"
    },
    {
      "channel": 0,
      "note": 40,
      "start": 45.2703,
      "duration": 0.0161,
      "velocity": 115,
      "chip": "ym2612"
    },
    {
      "channel": 4,
      "note": 56,
      "start": 45.2715,
      "duration": 0.0161,
      "velocity": 101,
      "chip": "ym2612"
    },
    {
      "channel": 3,
      "note": 59,
      "start": 45.2727,
      "duration": 0.0161,
      "velocity": 101,
      "chip": "ym2612"
    },
    {
      "channel": 1,
      "note": 64,
      "start": 45.2752,
      "duration": 0.0158,
      "velocity": 101,
      "chip": "ym2612"
    },
    {
      "channel": 0,
      "note": 40,
      "start": 45.2864,
      "duration": 0.0161,
      "velocity": 115,
      "chip": "ym2612"
    },
    {
      "channel": 4,
      "note": 56,
      "start": 45.2876,
      "duration": 0.0161,
      "velocity": 101,
      "chip": "ym2612"
    },
    {
      "channel": 3,
      "note": 59,
      "start": 45.2888,
      "duration": 0.0161,
      "velocity": 101,
      "chip": "ym2612"
    },
    {
      "channel": 1,
      "note": 64,
      "start": 45.291,
      "duration": 0.0161,
      "velocity": 101,
      "chip": "ym2612"
    },
    {
      "channel": 0,
      "note": 41,
      "start": 45.3025,
      "duration": 0.0162,
      "velocity": 115,
      "chip": "ym2612"
    },
    {
      "channel": 4,
      "note": 56,
      "start": 45.3037,
      "duration": 0.0161,
      "velocity": 101,
      "chip": "ym2612"
    },
    {
      "channel": 3,
      "note": 59,
      "start": 45.3049,
      "duration": 0.0161,
      "velocity": 101,
      "chip": "ym2612"
    },
    {
      "channel": 1,
      "note": 64,
      "start": 45.3071,
      "duration": 0.0162,
      "velocity": 101,
      "chip": "ym2612"
    },
    {
      "channel": 0,
      "note": 41,
      "start": 45.3187,
      "duration": 0.0161,
      "velocity": 115,
      "chip": "ym2612"
    },
    {
      "channel": 4,
      "note": 56,
      "start": 45.3198,
      "duration": 0.0161,
      "velocity": 101,
      "chip": "ym2612"
    },
    {
      "channel": 3,
      "note": 59,
      "start": 45.321,
      "duration": 0.0161,
      "velocity": 101,
      "chip": "ym2612"
    },
    {
      "channel": 1,
      "note": 64,
      "start": 45.3232,
      "duration": 0.0161,
      "velocity": 101,
      "chip": "ym2612"
    },
    {
      "channel": 0,
      "note": 42,
      "start": 45.3348,
      "duration": 0.0161,
      "velocity": 115,
      "chip": "ym2612"
    },
    {
      "channel": 4,
      "note": 56,
      "start": 45.3359,
      "duration": 0.0161,
      "velocity": 101,
      "chip": "ym2612"
    },
    {
      "channel": 3,
      "note": 59,
      "start": 45.3371,
      "duration": 0.0161,
      "velocity": 101,
      "chip": "ym2612"
    },
    {
      "channel": 1,
      "note": 64,
      "start": 45.3393,
      "duration": 0.0163,
      "velocity": 101,
      "chip": "ym2612"
    },
    {
      "channel": 0,
      "note": 42,
      "start": 45.3508,
      "duration": 0.0161,
      "velocity": 115,
      "chip": "ym2612"
    },
    {
      "channel": 4,
      "note": 56,
      "start": 45.352,
      "duration": 0.0161,
      "velocity": 101,
      "chip": "ym2612"
    },
    {
      "channel": 3,
      "note": 59,
      "start": 45.3531,
      "duration": 0.0161,
      "velocity": 101,
      "chip": "ym2612"
    },
    {
      "channel": 2,
      "note": 61,
      "start": 45.3545,
      "duration": 0.0159,
      "velocity": 100,
      "chip": "ym2612"
    },
    {
      "channel": 1,
      "note": 64,
      "start": 45.3557,
      "duration": 0.0159,
      "velocity": 101,
      "chip": "ym2612"
    },
    {
      "channel": 0,
      "note": 43,
      "start": 45.3669,
      "duration": 0.0161,
      "velocity": 115,
      "chip": "ym2612"
    },
    {
      "channel": 4,
      "note": 56,
      "start": 45.3681,
      "duration": 0.0161,
      "velocity": 101,
      "chip": "ym2612"
    },
    {
      "channel": 3,
      "note": 59,
      "start": 45.3692,
      "duration": 0.0161,
      "velocity": 101,
      "chip": "ym2612"
    },
    {
      "channel": 2,
      "note": 61,
      "start": 45.3704,
      "duration": 0.016,
      "velocity": 100,
      "chip": "ym2612"
    },
    {
      "channel": 1,
      "note": 64,
      "start": 45.3716,
      "duration": 0.016,
      "velocity": 101,
      "chip": "ym2612"
    },
    {
      "channel": 0,
      "note": 43,
      "start": 45.383,
      "duration": 0.0161,
      "velocity": 115,
      "chip": "ym2612"
    },
    {
      "channel": 4,
      "note": 56,
      "start": 45.3842,
      "duration": 0.0161,
      "velocity": 101,
      "chip": "ym2612"
    },
    {
      "channel": 3,
      "note": 59,
      "start": 45.3853,
      "duration": 0.0161,
      "velocity": 101,
      "chip": "ym2612"
    },
    {
      "channel": 2,
      "note": 61,
      "start": 45.3865,
      "duration": 0.0161,
      "velocity": 100,
      "chip": "ym2612"
    },
    {
      "channel": 1,
      "note": 64,
      "start": 45.3876,
      "duration": 0.0161,
      "velocity": 101,
      "chip": "ym2612"
    },
    {
      "channel": 0,
      "note": 44,
      "start": 45.3991,
      "duration": 0.0161,
      "velocity": 115,
      "chip": "ym2612"
    },
    {
      "channel": 4,
      "note": 56,
      "start": 45.4003,
      "duration": 0.0162,
      "velocity": 101,
      "chip": "ym2612"
    },
    {
      "channel": 3,
      "note": 59,
      "start": 45.4014,
      "duration": 0.0161,
      "velocity": 101,
      "chip": "ym2612"
    },
    {
      "channel": 2,
      "note": 61,
      "start": 45.4026,
      "duration": 0.0161,
      "velocity": 100,
      "chip": "ym2612"
    },
    {
      "channel": 1,
      "note": 64,
      "start": 45.4037,
      "duration": 0.0161,
      "velocity": 101,
      "chip": "ym2612"
    },
    {
      "channel": 0,
      "note": 44,
      "start": 45.4152,
      "duration": 0.0161,
      "velocity": 115,
      "chip": "ym2612"
    },
    {
      "channel": 4,
      "note": 56,
      "start": 45.4164,
      "duration": 0.0161,
      "velocity": 101,
      "chip": "ym2612"
    },
    {
      "channel": 3,
      "note": 59,
      "start": 45.4176,
      "duration": 0.0161,
      "velocity": 101,
      "chip": "ym2612"
    },
    {
      "channel": 2,
      "note": 61,
      "start": 45.4187,
      "duration": 0.0161,
      "velocity": 100,
      "chip": "ym2612"
    },
    {
      "channel": 1,
      "note": 64,
      "start": 45.4198,
      "duration": 0.0161,
      "velocity": 101,
      "chip": "ym2612"
    },
    {
      "channel": 0,
      "note": 44,
      "start": 45.4313,
      "duration": 0.0161,
      "velocity": 115,
      "chip": "ym2612"
    },
    {
      "channel": 4,
      "note": 56,
      "start": 45.4325,
      "duration": 0.0161,
      "velocity": 101,
      "chip": "ym2612"
    },
    {
      "channel": 3,
      "note": 59,
      "start": 45.4337,
      "duration": 0.0161,
      "velocity": 101,
      "chip": "ym2612"
    },
    {
      "channel": 2,
      "note": 61,
      "start": 45.4348,
      "duration": 0.0161,
      "velocity": 100,
      "chip": "ym2612"
    },
    {
      "channel": 1,
      "note": 64,
      "start": 45.4359,
      "duration": 0.0161,
      "velocity": 101,
      "chip": "ym2612"
    },
    {
      "channel": 0,
      "note": 45,
      "start": 45.4474,
      "duration": 0.0162,
      "velocity": 115,
      "chip": "ym2612"
    },
    {
      "channel": 4,
      "note": 56,
      "start": 45.4486,
      "duration": 0.0161,
      "velocity": 101,
      "chip": "ym2612"
    },
    {
      "channel": 3,
      "note": 59,
      "start": 45.4498,
      "duration": 0.0161,
      "velocity": 101,
      "chip": "ym2612"
    },
    {
      "channel": 2,
      "note": 61,
      "start": 45.4508,
      "duration": 0.0162,
      "velocity": 100,
      "chip": "ym2612"
    },
    {
      "channel": 1,
      "note": 64,
      "start": 45.452,
      "duration": 0.0161,
      "velocity": 101,
      "chip": "ym2612"
    },
    {
      "channel": 0,
      "note": 45,
      "start": 45.4636,
      "duration": 0.0161,
      "velocity": 115,
      "chip": "ym2612"
    },
    {
      "channel": 4,
      "note": 56,
      "start": 45.4647,
      "duration": 0.0161,
      "velocity": 101,
      "chip": "ym2612"
    },
    {
      "channel": 3,
      "note": 59,
      "start": 45.4659,
      "duration": 0.0161,
      "velocity": 101,
      "chip": "ym2612"
    },
    {
      "channel": 1,
      "note": 64,
      "start": 45.4681,
      "duration": 0.0161,
      "velocity": 101,
      "chip": "ym2612"
    },
    {
      "channel": 0,
      "note": 46,
      "start": 45.4797,
      "duration": 0.0162,
      "velocity": 115,
      "chip": "ym2612"
    },
    {
      "channel": 4,
      "note": 56,
      "start": 45.4808,
      "duration": 0.0161,
      "velocity": 101,
      "chip": "ym2612"
    },
    {
      "channel": 3,
      "note": 59,
      "start": 45.482,
      "duration": 0.0162,
      "velocity": 101,
      "chip": "ym2612"
    },
    {
      "channel": 1,
      "note": 64,
      "start": 45.4842,
      "duration": 0.0162,
      "velocity": 101,
      "chip": "ym2612"
    },
    {
      "channel": 0,
      "note": 46,
      "start": 45.4958,
      "duration": 0.0167,
      "velocity": 115,
      "chip": "ym2612"
    },
    {
      "channel": 4,
      "note": 56,
      "start": 45.497,
      "duration": 0.0167,
      "velocity": 101,
      "chip": "ym2612"
    },
    {
      "channel": 3,
      "note": 59,
      "start": 45.4981,
      "duration": 0.0167,
      "velocity": 101,
      "chip": "ym2612"
    },
    {
      "channel": 1,
      "note": 64,
      "start": 45.5004,
      "duration": 0.0167,
      "velocity": 101,
      "chip": "ym2612"
    },
    {
      "channel": 0,
      "note": 47,
      "start": 45.5125,
      "duration": 0.0163,
      "velocity": 115,
      "chip": "ym2612"
    },
    {
      "channel": 4,
      "note": 56,
      "start": 45.5136,
      "duration": 0.0163,
      "velocity": 101,
      "chip": "ym2612"
    },
    {
      "channel": 3,
      "note": 59,
      "start": 45.5148,
      "duration": 0.0163,
      "velocity": 101,
      "chip": "ym2612"
    },
    {
      "channel": 1,
      "note": 64,
      "start": 45.5171,
      "duration": 0.0163,
      "velocity": 101,
      "chip": "ym2612"
    },
    {
      "channel": 0,
      "note": 47,
      "start": 45.5288,
      "duration": 0.0153,
      "velocity": 115,
      "chip": "ym2612"
    },
    {
      "channel": 4,
      "note": 56,
      "start": 45.5299,
      "duration": 0.0153,
      "velocity": 101,
      "chip": "ym2612"
    },
    {
      "channel": 3,
      "note": 59,
      "start": 45.5311,
      "duration": 0.0153,
      "velocity": 101,
      "chip": "ym2612"
    },
    {
      "channel": 1,
      "note": 64,
      "start": 45.5334,
      "duration": 0.0153,
      "velocity": 101,
      "chip": "ym2612"
    },
    {
      "channel": 0,
      "note": 47,
      "start": 45.544,
      "duration": 0.0185,
      "velocity": 115,
      "chip": "ym2612"
    },
    {
      "channel": 4,
      "note": 56,
      "start": 45.5452,
      "duration": 0.0184,
      "velocity": 101,
      "chip": "ym2612"
    },
    {
      "channel": 3,
      "note": 59,
      "start": 45.5463,
      "duration": 0.0185,
      "velocity": 101,
      "chip": "ym2612"
    },
    {
      "channel": 1,
      "note": 64,
      "start": 45.5486,
      "duration": 0.0185,
      "velocity": 101,
      "chip": "ym2612"
    },
    {
      "channel": 0,
      "note": 48,
      "start": 45.5625,
      "duration": 0.0183,
      "velocity": 124,
      "chip": "ym2612"
    },
    {
      "channel": 4,
      "note": 56,
      "start": 45.5636,
      "duration": 0.0183,
      "velocity": 101,
      "chip": "ym2612"
    },
    {
      "channel": 3,
      "note": 59,
      "start": 45.5648,
      "duration": 0.0183,
      "velocity": 101,
      "chip": "ym2612"
    },
    {
      "channel": 1,
      "note": 64,
      "start": 45.5671,
      "duration": 0.0186,
      "velocity": 101,
      "chip": "ym2612"
    },
    {
      "channel": 0,
      "note": 84,
      "start": 45.5808,
      "duration": 0.014,
      "velocity": 124,
      "chip": "ym2612"
    },
    {
      "channel": 4,
      "note": 56,
      "start": 45.582,
      "duration": 0.014,
      "velocity": 101,
      "chip": "ym2612"
    },
    {
      "channel": 3,
      "note": 59,
      "start": 45.5831,
      "duration": 0.014,
      "velocity": 101,
      "chip": "ym2612"
    },
    {
      "channel": 2,
      "note": 73,
      "start": 45.5845,
      "duration": 0.0138,
      "velocity": 100,
      "chip": "ym2612"
    },
    {
      "channel": 1,
      "note": 64,
      "start": 45.5856,
      "duration": 0.0138,
      "velocity": 101,
      "chip": "ym2612"
    },
    {
      "channel": 0,
      "note": 82,
      "start": 45.5948,
      "duration": 0.014,
      "velocity": 124,
      "chip": "ym2612"
    },
    {
      "channel": 4,
      "note": 56,
      "start": 45.5959,
      "duration": 0.014,
      "velocity": 101,
      "chip": "ym2612"
    },
    {
      "channel": 3,
      "note": 59,
      "start": 45.5971,
      "duration": 0.014,
      "velocity": 101,
      "chip": "ym2612"
    },
    {
      "channel": 2,
      "note": 73,
      "start": 45.5983,
      "duration": 0.0139,
      "velocity": 100,
      "chip": "ym2612"
    },
    {
      "channel": 1,
      "note": 64,
      "start": 45.5995,
      "duration": 0.0139,
      "velocity": 101,
      "chip": "ym2612"
    },
    {
      "channel": 0,
      "note": 80,
      "start": 45.6088,
      "duration": 0.0185,
      "velocity": 124,
      "chip": "ym2612"
    },
    {
      "channel": 4,
      "note": 56,
      "start": 45.61,
      "duration": 0.0185,
      "velocity": 101,
      "chip": "ym2612"
    },
    {
      "channel": 3,
      "note": 59,
      "start": 45.6111,
      "duration": 0.0185,
      "velocity": 101,
      "chip": "ym2612"
    },
    {
      "channel": 2,
      "note": 73,
      "start": 45.6122,
      "duration": 0.0185,
      "velocity": 100,
      "chip": "ym2612"
    },
    {
      "channel": 1,
      "note": 64,
      "start": 45.6134,
      "duration": 0.0185,
      "velocity": 101,
      "chip": "ym2612"
    },
    {
      "channel": 0,
      "note": 77,
      "start": 45.6273,
      "duration": 0.0134,
      "velocity": 124,
      "chip": "ym2612"
    },
    {
      "channel": 4,
      "note": 56,
      "start": 45.6285,
      "duration": 0.0162,
      "velocity": 101,
      "chip": "ym2612"
    },
    {
      "channel": 3,
      "note": 59,
      "start": 45.6296,
      "duration": 0.0162,
      "velocity": 101,
      "chip": "ym2612"
    },
    {
      "channel": 2,
      "note": 73,
      "start": 45.6307,
      "duration": 0.0161,
      "velocity": 100,
      "chip": "ym2612"
    },
    {
      "channel": 1,
      "note": 64,
      "start": 45.6319,
      "duration": 0.0161,
      "velocity": 101,
      "chip": "ym2612"
    },
    {
      "channel": 0,
      "note": 75,
      "start": 45.6407,
      "duration": 0.0161,
      "velocity": 124,
      "chip": "ym2612"
    },
    {
      "channel": 4,
      "note": 56,
      "start": 45.6446,
      "duration": 0.0157,
      "velocity": 101,
      "chip": "ym2612"
    },
    {
      "channel": 3,
      "note": 59,
      "start": 45.6458,
      "duration": 0.0157,
      "velocity": 101,
      "chip": "ym2612"
    },
    {
      "channel": 2,
      "note": 73,
      "start": 45.6468,
      "duration": 0.0158,
      "velocity": 100,
      "chip": "ym2612"
    },
    {
      "channel": 1,
      "note": 64,
      "start": 45.648,
      "duration": 0.0158,
      "velocity": 101,
      "chip": "ym2612"
    },
    {
      "channel": 0,
      "note": 72,
      "start": 45.6568,
      "duration": 0.0161,
      "velocity": 124,
      "chip": "ym2612"
    },
    {
      "channel": 4,
      "note": 56,
      "start": 45.6603,
      "duration": 0.0137,
      "velocity": 101,
      "chip": "ym2612"
    },
    {
      "channel": 3,
      "note": 59,
      "start": 45.6615,
      "duration": 0.014,
      "velocity": 101,
      "chip": "ym2612"
    },
    {
      "channel": 2,
      "note": 73,
      "start": 45.6626,
      "duration": 0.014,
      "velocity": 100,
      "chip": "ym2612"
    },
    {
      "channel": 1,
      "note": 64,
      "start": 45.6638,
      "duration": 0.014,
      "velocity": 101,
      "chip": "ym2612"
    },
    {
      "channel": 0,
      "note": 70,
      "start": 45.6729,
      "duration": 0.0161,
      "velocity": 124,
      "chip": "ym2612"
    },
    {
      "channel": 4,
      "note": 56,
      "start": 45.674,
      "duration": 0.0161,
      "velocity": 101,
      "chip": "ym2612"
    },
    {
      "channel": 3,
      "note": 59,
      "start": 45.6755,
      "duration": 0.0186,
      "velocity": 101,
      "chip": "ym2612"
    },
    {
      "channel": 2,
      "note": 73,
      "start": 45.6766,
      "duration": 0.0185,
      "velocity": 100,
      "chip": "ym2612"
    },
    {
      "channel": 1,
      "note": 64,
      "start": 45.6778,
      "duration": 0.0186,
      "velocity": 101,
      "chip": "ym2612"
    },
    {
      "channel": 0,
      "note": 68,
      "start": 45.689,
      "duration": 0.0161,
      "velocity": 124,
      "chip": "ym2612"
    },
    {
      "channel": 4,
      "note": 56,
      "start": 45.6901,
      "duration": 0.0161,
      "velocity": 101,
      "chip": "ym2612"
    },
    {
      "channel": 3,
      "note": 59,
      "start": 45.694,
      "duration": 0.0133,
      "velocity": 101,
      "chip": "ym2612"
    },
    {
      "channel": 1,
      "note": 64,
      "start": 45.6963,
      "duration": 0.016,
      "velocity": 101,
      "chip": "ym2612"
    },
    {
      "channel": 0,
      "note": 65,
      "start": 45.7051,
      "duration": 0.0161,
      "velocity": 124,
      "chip": "ym2612"
    },
    {
      "channel": 4,
      "note": 56,
      "start": 45.7062,
      "duration": 0.0162,
      "velocity": 101,
      "chip": "ym2612"
    },
    {
      "channel": 3,
      "note": 59,
      "start": 45.7073,
      "duration": 0.0161,
      "velocity": 101,
      "chip": "ym2612"
    },
    {
      "channel": 1,
      "note": 64,
      "start": 45.7124,
      "duration": 0.0158,
      "velocity": 101,
      "chip": "ym2612"
    },
    {
      "channel": 0,
      "note": 63,
      "start": 45.7211,
      "duration": 0.0153,
      "velocity": 1,
      "chip": "ym2612"
    },
    {
      "channel": 4,
      "note": 56,
      "start": 45.7224,
      "duration": 0.0153,
      "velocity": 101,
      "chip": "ym2612"
    },
    {
      "channel": 3,
      "note": 59,
      "start": 45.7235,
      "duration": 0.0153,
      "velocity": 101,
      "chip": "ym2612"
    },
    {
      "channel": 1,
      "note": 64,
      "start": 45.7281,
      "duration": 0.0129,
      "velocity": 101,
      "chip": "ym2612"
    },
    {
      "channel": 4,
      "note": 56,
      "start": 45.7376,
      "duration": 0.0153,
      "velocity": 101,
      "chip": "ym2612"
    },
    {
      "channel": 3,
      "note": 59,
      "start": 45.7388,
      "duration": 0.0153,
      "velocity": 101,
      "chip": "ym2612"
    },
    {
      "channel": 1,
      "note": 64,
      "start": 45.741,
      "duration": 0.0153,
      "velocity": 101,
      "chip": "ym2612"
    },
    {
      "channel": 4,
      "note": 56,
      "start": 45.7529,
      "duration": 0.0161,
      "velocity": 101,
      "chip": "ym2612"
    },
    {
      "channel": 3,
      "note": 59,
      "start": 45.754,
      "duration": 0.0161,
      "velocity": 101,
      "chip": "ym2612"
    },
    {
      "channel": 1,
      "note": 64,
      "start": 45.7563,
      "duration": 0.0161,
      "velocity": 101,
      "chip": "ym2612"
    },
    {
      "channel": 4,
      "note": 56,
      "start": 45.769,
      "duration": 0.0161,
      "velocity": 101,
      "chip": "ym2612"
    },
    {
      "channel": 3,
      "note": 59,
      "start": 45.7701,
      "duration": 0.0161,
      "velocity": 101,
      "chip": "ym2612"
    },
    {
      "channel": 1,
      "note": 64,
      "start": 45.7724,
      "duration": 0.0161,
      "velocity": 101,
      "chip": "ym2612"
    },
    {
      "channel": 4,
      "note": 56,
      "start": 45.7851,
      "duration": 0.0198,
      "velocity": 101,
      "chip": "ym2612"
    },
    {
      "channel": 3,
      "note": 59,
      "start": 45.7862,
      "duration": 0.02,
      "velocity": 101,
      "chip": "ym2612"
    },
    {
      "channel": 1,
      "note": 64,
      "start": 45.7885,
      "duration": 0.0209,
      "velocity": 101,
      "chip": "ym2612"
    },
    {
      "channel": 0,
      "note": 36,
      "start": 45.8034,
      "duration": 0.0144,
      "velocity": 115,
      "chip": "ym2612"
    },
    {
      "channel": 4,
      "note": 58,
      "start": 45.8049,
      "duration": 0.0141,
      "velocity": 101,
      "chip": "ym2612"
    },
    {
      "channel": 3,
      "note": 61,
      "start": 45.8063,
      "duration": 0.0139,
      "velocity": 101,
      "chip": "ym2612"
    },
    {
      "channel": 2,
      "note": 61,
      "start": 45.8077,
      "duration": 0.0137,
      "velocity": 100,
      "chip": "ym2612"
    },
    {
      "channel": 1,
      "note": 66,
      "start": 45.8094,
      "duration": 0.0132,
      "velocity": 101,
      "chip": "ym2612"
    },
    {
      "channel": 0,
      "note": 36,
      "start": 45.8178,
      "duration": 0.016,
      "velocity": 115,
      "chip": "ym2612"
    },
    {
      "channel": 4,
      "note": 58,
      "start": 45.819,
      "duration": 0.016,
      "velocity": 101,
      "chip": "ym2612"
    },
    {
      "channel": 3,
      "note": 61,
      "start": 45.8202,
      "duration": 0.0159,
      "velocity": 101,
      "chip": "ym2612"
    },
    {
      "channel": 2,
      "note": 61,
      "start": 45.8215,
      "duration": 0.0159,
      "velocity": 100,
      "chip": "ym2612"
    },
    {
      "channel": 1,
      "note": 66,
      "start": 45.8227,
      "duration": 0.0158,
      "velocity": 101,
      "chip": "ym2612"
    },
    {
      "channel": 0,
      "note": 37,
      "start": 45.8339,
      "duration": 0.0161,
      "velocity": 115,
      "chip": "ym2612"
    },
    {
      "channel": 4,
      "note": 58,
      "start": 45.835,
      "duration": 0.0161,
      "velocity": 101,
      "chip": "ym2612"
    },
    {
      "channel": 3,
      "note": 61,
      "start": 45.8361,
      "duration": 0.0161,
      "velocity": 101,
      "chip": "ym2612"
    },
    {
      "channel": 2,
      "note": 61,
      "start": 45.8373,
      "duration": 0.0161,
      "velocity": 100,
      "chip": "ym2612"
    },
    {
      "channel": 1,
      "note": 66,
      "start": 45.8384,
      "duration": 0.0161,
      "velocity": 101,
      "chip": "ym2612"
    },
    {
      "channel": 0,
      "note": 37,
      "start": 45.85,
      "duration": 0.0161,
      "velocity": 115,
      "chip": "ym2612"
    },
    {
      "channel": 4,
      "note": 58,
      "start": 45.8511,
      "duration": 0.0161,
      "velocity": 101,
      "chip": "ym2612"
    },
    {
      "channel": 3,
      "note": 61,
      "start": 45.8522,
      "duration": 0.0161,
      "velocity": 101,
      "chip": "ym2612"
    },
    {
      "channel": 2,
      "note": 61,
      "start": 45.8534,
      "duration": 0.0161,
      "velocity": 100,
      "chip": "ym2612"
    },
    {
      "channel": 1,
      "note": 66,
      "start": 45.8545,
      "duration": 0.0161,
      "velocity": 101,
      "chip": "ym2612"
    },
    {
      "channel": 0,
      "note": 38,
      "start": 45.8661,
      "duration": 0.0161,
      "velocity": 115,
      "chip": "ym2612"
    },
    {
      "channel": 4,
      "note": 58,
      "start": 45.8672,
      "duration": 0.0162,
      "velocity": 101,
      "chip": "ym2612"
    },
    {
      "channel": 3,
      "note": 61,
      "start": 45.8683,
      "duration": 0.0161,
      "velocity": 101,
      "chip": "ym2612"
    },
    {
      "channel": 2,
      "note": 61,
      "start": 45.8695,
      "duration": 0.0161,
      "velocity": 100,
      "chip": "ym2612"
    },
    {
      "channel": 1,
      "note": 66,
      "start": 45.8706,
      "duration": 0.0161,
      "velocity": 101,
      "chip": "ym2612"
    },
    {
      "channel": 0,
      "note": 38,
      "start": 45.8822,
      "duration": 0.0161,
      "velocity": 115,
      "chip": "ym2612"
    },
    {
      "channel": 4,
      "note": 58,
      "start": 45.8834,
      "duration": 0.0161,
      "velocity": 101,
      "chip": "ym2612"
    },
    {
      "channel": 3,
      "note": 61,
      "start": 45.8845,
      "duration": 0.0161,
      "velocity": 101,
      "chip": "ym2612"
    },
    {
      "channel": 2,
      "note": 61,
      "start": 45.8856,
      "duration": 0.0161,
      "velocity": 100,
      "chip": "ym2612"
    },
    {
      "channel": 1,
      "note": 66,
      "start": 45.8867,
      "duration": 0.0161,
      "velocity": 101,
      "chip": "ym2612"
    },
    {
      "channel": 0,
      "note": 39,
      "start": 45.8982,
      "duration": 0.0162,
      "velocity": 115,
      "chip": "ym2612"
    },
    {
      "channel": 4,
      "note": 58,
      "start": 45.8995,
      "duration": 0.0161,
      "velocity": 101,
      "chip": "ym2612"
    },
    {
      "channel": 3,
      "note": 61,
      "start": 45.9006,
      "duration": 0.0161,
      "velocity": 101,
      "chip": "ym2612"
    },
    {
      "channel": 2,
      "note": 61,
      "start": 45.9017,
      "duration": 0.0161,
      "velocity": 100,
      "chip": "ym2612"
    },
    {
      "channel": 1,
      "note": 66,
      "start": 45.9028,
      "duration": 0.0162,
      "velocity": 101,
      "chip": "ym2612"
    },
    {
      "channel": 0,
      "note": 39,
      "start": 45.9144,
      "duration": 0.0161,
      "velocity": 115,
      "chip": "ym2612"
    },
    {
      "channel": 4,
      "note": 58,
      "start": 45.9155,
      "duration": 0.0161,
      "velocity": 101,
      "chip": "ym2612"
    },
    {
      "channel": 3,
      "note": 61,
      "start": 45.9167,
      "duration": 0.0161,
      "velocity": 101,
      "chip": "ym2612"
    },
    {
      "channel": 1,
      "note": 66,
      "start": 45.919,
      "duration": 0.0161,
      "velocity": 101,
      "chip": "ym2612"
    },
    {
      "channel": 0,
      "note": 40,
      "start": 45.9305,
      "duration": 0.0161,
      "velocity": 115,
      "chip": "ym2612"
    },
    {
      "channel": 4,
      "note": 58,
      "start": 45.9316,
      "duration": 0.0161,
      "velocity": 101,
      "chip": "ym2612"
    },
    {
      "channel": 3,
      "note": 61,
      "start": 45.9328,
      "duration": 0.0161,
      "velocity": 101,
      "chip": "ym2612"
    },
    {
      "channel": 1,
      "note": 66,
      "start": 45.9351,
      "duration": 0.0161,
      "velocity": 101,
      "chip": "ym2612"
    },
    {
      "channel": 0,
      "note": 40,
      "start": 45.9466,
      "duration": 0.0161,
      "velocity": 115,
      "chip": "ym2612"
    },
    {
      "channel": 4,
      "note": 58,
      "start": 45.9477,
      "duration": 0.0161,
      "velocity": 101,
      "chip": "ym2612"
    },
    {
      "channel": 3,
      "note": 61,
      "start": 45.9489,
      "duration": 0.0161,
      "velocity": 101,
      "chip": "ym2612"
    },
    {
      "channel": 1,
      "note": 66,
      "start": 45.9512,
      "duration": 0.0161,
      "velocity": 101,
      "chip": "ym2612"
    },
    {
      "channel": 0,
      "note": 40,
      "start": 45.9627,
      "duration": 0.0165,
      "velocity": 115,
      "chip": "ym2612"
    },
    {
      "channel": 4,
      "note": 58,
      "start": 45.9638,
      "duration": 0.0165,
      "velocity": 101,
      "chip": "ym2612"
    },
    {
      "channel": 3,
      "note": 61,
      "start": 45.965,
      "duration": 0.0165,
      "velocity": 101,
      "chip": "ym2612"
    },
    {
      "channel": 1,
      "note": 66,
      "start": 45.9673,
      "duration": 0.0165,
      "velocity": 101,
      "chip": "ym2612"
    },
    {
      "channel": 0,
      "note": 41,
      "start": 45.9792,
      "duration": 0.0163,
      "velocity": 115,
      "chip": "ym2612"
    },
    {
      "channel": 4,
      "note": 58,
      "start": 45.9803,
      "duration": 0.0163,
      "velocity": 101,
      "chip": "ym2612"
    },
    {
      "channel": 3,
      "note": 61,
      "start": 45.9815,
      "duration": 0.0163,
      "velocity": 101,
      "chip": "ym2612"
    },
    {
      "channel": 1,
      "note": 66,
      "start": 45.9837,
      "duration": 0.0163,
      "velocity": 101,
      "chip": "ym2612"
    },
    {
      "channel": 0,
      "note": 41,
      "start": 45.9954,
      "duration": 0.0155,
      "velocity": 115,
      "chip": "ym2612"
    },
    {
      "channel": 4,
      "note": 58,
      "start": 45.9966,
      "duration": 0.0155,
      "velocity": 101,
      "chip": "ym2612"
    },
    {
      "channel": 3,
      "note": 61,
      "start": 45.9977,
      "duration": 0.0155,
      "velocity": 101,
      "chip": "ym2612"
    },
    {
      "channel": 1,
      "note": 66,
      "start": 46.0,
      "duration": 0.0155,
      "velocity": 101,
      "chip": "ym2612"
    },
    {
      "channel": 0,
      "note": 42,
      "start": 46.011,
      "duration": 0.0199,
      "velocity": 115,
      "chip": "ym2612"
    },
    {
      "channel": 4,
      "note": 58,
      "start": 46.0121,
      "duration": 0.02,
      "velocity": 101,
      "chip": "ym2612"
    },
    {
      "channel": 3,
      "note": 61,
      "start": 46.0132,
      "duration": 0.02,
      "velocity": 101,
      "chip": "ym2612"
    },
    {
      "channel": 1,
      "note": 66,
      "start": 46.0155,
      "duration": 0.0202,
      "velocity": 101,
      "chip": "ym2612"
    },
    {
      "channel": 0,
      "note": 36,
      "start": 46.0309,
      "duration": 0.015,
      "velocity": 115,
      "chip": "ym2612"
    },
    {
      "channel": 4,
      "note": 58,
      "start": 46.0321,
      "duration": 0.0149,
      "velocity": 101,
      "chip": "ym2612"
    },
    {
      "channel": 3,
      "note": 61,
      "start": 46.0332,
      "duration": 0.015,
      "velocity": 101,
      "chip": "ym2612"
    },
    {
      "channel": 2,
      "note": 59,
      "start": 46.0346,
      "duration": 0.0148,
      "velocity": 100,
      "chip": "ym2612"
    },
    {
      "channel": 1,
      "note": 66,
      "start": 46.0358,
      "duration": 0.0147,
      "velocity": 101,
      "chip": "ym2612"
    },
    {
      "channel": 0,
      "note": 36,
      "start": 46.0459,
      "duration": 0.0158,
      "velocity": 115,
      "chip": "ym2612"
    },
    {
      "channel": 4,
      "note": 58,
      "start": 46.047,
      "duration": 0.0158,
      "velocity": 101,
      "chip": "ym2612"
    },
    {
      "channel": 3,
      "note": 61,
      "start": 46.0482,
      "duration": 0.0158,
      "velocity": 101,
      "chip": "ym2612"
    },
    {
      "channel": 2,
      "note": 59,
      "start": 46.0494,
      "duration": 0.0157,
      "velocity": 100,
      "chip": "ym2612"
    },
    {
      "channel": 1,
      "note": 66,
      "start": 46.0505,
      "duration": 0.0157,
      "velocity": 101,
      "chip": "ym2612"
    },
    {
      "channel": 0,
      "note": 37,
      "start": 46.0617,
      "duration": 0.0141,
      "velocity": 115,
      "chip": "ym2612"
    },
    {
      "channel": 4,
      "note": 58,
      "start": 46.0628,
      "duration": 0.0141,
      "velocity": 101,
      "chip": "ym2612"
    },
    {
      "channel": 3,
      "note": 61,
      "start": 46.0639,
      "duration": 0.0141,
      "velocity": 101,
      "chip": "ym2612"
    },
    {
      "channel": 2,
      "note": 59,
      "start": 46.0651,
      "duration": 0.0141,
      "velocity": 100,
      "chip": "ym2612"
    },
    {
      "channel": 1,
      "note": 66,
      "start": 46.0662,
      "duration": 0.0141,
      "velocity": 101,
      "chip": "ym2612"
    },
    {
      "channel": 0,
      "note": 37,
      "start": 46.0757,
      "duration": 0.0185,
      "velocity": 115,
      "chip": "ym2612"
    },
    {
      "channel": 4,
      "note": 58,
      "start": 46.0769,
      "duration": 0.0185,
      "velocity": 101,
      "chip": "ym2612"
    },
    {
      "channel": 3,
      "note": 61,
      "start": 46.078,
      "duration": 0.0185,
      "velocity": 101,
      "chip": "ym2612"
    },
    {
      "channel": 2,
      "note": 59,
      "start": 46.0792,
      "duration": 0.0185,
      "velocity": 100,
      "chip": "ym2612"
    },
    {
      "channel": 1,
      "note": 66,
      "start": 46.0803,
      "duration": 0.0185,
      "velocity": 101,
      "chip": "ym2612"
    },
    {
      "channel": 0,
      "note": 38,
      "start": 46.0942,
      "duration": 0.0134,
      "velocity": 115,
      "chip": "ym2612"
    },
    {
      "channel": 4,
      "note": 58,
      "start": 46.0954,
      "duration": 0.0162,
      "velocity": 101,
      "chip": "ym2612"
    },
    {
      "channel": 3,
      "note": 61,
      "start": 46.0965,
      "duration": 0.0161,
      "velocity": 101,
      "chip": "ym2612"
    },
    {
      "channel": 2,
      "note": 59,
      "start": 46.0977,
      "duration": 0.0161,
      "velocity": 100,
      "chip": "ym2612"
    },
    {
      "channel": 1,
      "note": 66,
      "start": 46.0988,
      "duration": 0.0161,
      "velocity": 101,
      "chip": "ym2612"
    },
    {
      "channel": 0,
      "note": 38,
      "start": 46.1076,
      "duration": 0.0161,
      "velocity": 115,
      "chip": "ym2612"
    },
    {
      "channel": 4,
      "note": 58,
      "start": 46.1115,
      "duration": 0.0157,
      "velocity": 101,
      "chip": "ym2612"
    },
    {
      "channel": 3,
      "note": 61,
      "start": 46.1127,
      "duration": 0.0157,
      "velocity": 101,
      "chip": "ym2612"
    },
    {
      "channel": 2,
      "note": 59,
      "start": 46.1138,
      "duration": 0.0158,
      "velocity": 100,
      "chip": "ym2612"
    },
    {
      "channel": 1,
      "note": 66,
      "start": 46.1149,
      "duration": 0.0158,
      "velocity": 101,
      "chip": "ym2612"
    },
    {
      "channel": 0,
      "note": 39,
      "start": 46.1237,
      "duration": 0.0161,
      "velocity": 115,
      "chip": "ym2612"
    },
    {
      "channel": 4,
      "note": 58,
      "start": 46.1273,
      "duration": 0.0137,
      "velocity": 101,
      "chip": "ym2612"
    },
    {
      "channel": 3,
      "note": 61,
      "start": 46.1284,
      "duration": 0.0141,
      "velocity": 101,
      "chip": "ym2612"
    },
    {
      "channel": 2,
      "note": 59,
      "start": 46.1295,
      "duration": 0.014,
      "velocity": 100,
      "chip": "ym2612"
    },
    {
      "channel": 1,
      "note": 66,
      "start": 46.1307,
      "duration": 0.014,
      "velocity": 101,
      "chip": "ym2612"
    },
    {
      "channel": 0,
      "note": 39,
      "start": 46.1398,
      "duration": 0.0161,
      "velocity": 115,
      "chip": "ym2612"
    },
    {
      "channel": 4,
      "note": 58,
      "start": 46.1409,
      "duration": 0.0161,
      "velocity": 101,
      "chip": "ym2612"
    },
    {
      "channel": 3,
      "note": 61,
      "start": 46.1424,
      "duration": 0.0185,
      "velocity": 101,
      "chip": "ym2612"
    },
    {
      "channel": 1,
      "note": 66,
      "start": 46.1447,
      "duration": 0.0185,
      "velocity": 101,
      "chip": "ym2612"
    },
    {
      "channel": 0,
      "note": 40,
      "start": 46.1559,
      "duration": 0.0161,
      "velocity": 115,
      "chip": "ym2612"
    },
    {
      "channel": 4,
      "note": 58,
      "start": 46.157,
      "duration": 0.0161,
      "velocity": 101,
      "chip": "ym2612"
    },
    {
      "channel": 3,
      "note": 61,
      "start": 46.161,
      "duration": 0.0134,
      "velocity": 101,
      "chip": "ym2612"
    },
    {
      "channel": 1,
      "note": 66,
      "start": 46.1632,
      "duration": 0.0161,
      "velocity": 101,
      "chip": "ym2612"
    },
    {
      "channel": 0,
      "note": 40,
      "start": 46.172,
      "duration": 0.0161,
      "velocity": 115,
      "chip": "ym2612"
    },
    {
      "channel": 4,
      "note": 58,
      "start": 46.1732,
      "duration": 0.0161,
      "velocity": 101,
      "chip": "ym2612"
    },
    {
      "channel": 3,
      "note": 61,
      "start": 46.1743,
      "duration": 0.0161,
      "velocity": 101,
      "chip": "ym2612"
    },
    {
      "channel": 1,
      "note": 66,
      "start": 46.1793,
      "duration": 0.0157,
      "velocity": 101,
      "chip": "ym2612"
    },
    {
      "channel": 0,
      "note": 40,
      "start": 46.1881,
      "duration": 0.0161,
      "velocity": 115,
      "chip": "ym2612"
    },
    {
      "channel": 4,
      "note": 58,
      "start": 46.1893,
      "duration": 0.0161,
      "velocity": 101,
      "chip": "ym2612"
    },
    {
      "channel": 3,
      "note": 61,
      "start": 46.1904,
      "duration": 0.0161,
      "velocity": 101,
      "chip": "ym2612"
    },
    {
      "channel": 1,
      "note": 66,
      "start": 46.1951,
      "duration": 0.0141,
      "velocity": 101,
      "chip": "ym2612"
    },
    {
      "channel": 0,
      "note": 41,
      "start": 46.2042,
      "duration": 0.0161,
      "velocity": 115,
      "chip": "ym2612"
    },
    {
      "channel": 4,
      "note": 58,
      "start": 46.2054,
      "duration": 0.0161,
      "velocity": 101,
      "chip": "ym2612"
    },
    {
      "channel": 3,
      "note": 61,
      "start": 46.2065,
      "duration": 0.0161,
      "velocity": 101,
      "chip": "ym2612"
    },
    {
      "channel": 1,
      "note": 66,
      "start": 46.2091,
      "duration": 0.0185,
      "velocity": 101,
      "chip": "ym2612"
    },
    {
      "channel": 0,
      "note": 41,
      "start": 46.2203,
      "duration": 0.0161,
      "velocity": 115,
      "chip": "ym2612"
    },
    {
      "channel": 4,
      "note": 58,
      "start": 46.2215,
      "duration": 0.0161,
      "velocity": 101,
      "chip": "ym2612"
    },
    {
      "channel": 3,
      "note": 61,
      "start": 46.2226,
      "duration": 0.0161,
      "velocity": 101,
      "chip": "ym2612"
    },
    {
      "channel": 1,
      "note": 66,
      "start": 46.2276,
      "duration": 0.0134,
      "velocity": 101,
      "chip": "ym2612"
    },
    {
      "channel": 0,
      "note": 42,
      "start": 46.2364,
      "duration": 0.0178,
      "velocity": 115,
      "chip": "ym2612"
    },
    {
      "channel": 4,
      "note": 58,
      "start": 46.2376,
      "duration": 0.0179,
      "velocity": 101,
      "chip": "ym2612"
    },
    {
      "channel": 3,
      "note": 61,
      "start": 46.2387,
      "duration": 0.0179,
      "velocity": 101,
      "chip": "ym2612"
    },
    {
      "channel": 1,
      "note": 66,
      "start": 46.241,
      "duration": 0.0205,
      "velocity": 101,
      "chip": "ym2612"
    },
    {
      "channel": 0,
      "note": 36,
      "start": 46.2543,
      "duration": 0.0144,
      "velocity": 115,
      "chip": "ym2612"
    },
    {
      "channel": 4,
      "note": 58,
      "start": 46.2554,
      "duration": 0.0144,
      "velocity": 101,
      "chip": "ym2612"
    },
    {
      "channel": 3,
      "note": 61,
      "start": 46.2566,
      "duration": 0.0144,
      "velocity": 101,
      "chip": "ym2612"
    },
    {
      "channel": 2,
      "note": 59,
      "start": 46.2604,
      "duration": 0.0118,
      "velocity": 100,
      "chip": "ym2612"
    },
    {
      "channel": 1,
      "note": 66,
      "start": 46.2615,
      "duration": 0.0118,
      "velocity": 101,
      "chip": "ym2612"
    },
    {
      "channel": 0,
      "note": 36,
      "start": 46.2687,
      "duration": 0.016,
      "velocity": 115,
      "chip": "ym2612"
    },
    {
      "channel": 4,
      "note": 58,
      "start": 46.2698,
      "duration": 0.016,
      "velocity": 101,
      "chip": "ym2612"
    },
    {
      "channel": 3,
      "note": 61,
      "start": 46.271,
      "duration": 0.016,
      "velocity": 101,
      "chip": "ym2612"
    },
    {
      "channel": 2,
      "note": 59,
      "start": 46.2722,
      "duration": 0.016,
      "velocity": 100,
      "chip": "ym2612"
    },
    {
      "channel": 1,
      "note": 66,
      "start": 46.2733,
      "duration": 0.016,
      "velocity": 101,
      "chip": "ym2612"
    },
    {
      "channel": 0,
      "note": 37,
      "start": 46.2847,
      "duration": 0.0161,
      "velocity": 115,
      "chip": "ym2612"
    },
    {
      "channel": 4,
      "note": 58,
      "start": 46.2858,
      "duration": 0.0161,
      "velocity": 101,
      "chip": "ym2612"
    },
    {
      "channel": 3,
      "note": 61,
      "start": 46.287,
      "duration": 0.0161,
      "velocity": 101,
      "chip": "ym2612"
    },
    {
      "channel": 2,
      "note": 59,
      "start": 46.2881,
      "duration": 0.0161,
      "velocity": 100,
      "chip": "ym2612"
    },
    {
      "channel": 1,
      "note": 66,
      "start": 46.2893,
      "duration": 0.0161,
      "velocity": 101,
      "chip": "ym2612"
    },
    {
      "channel": 0,
      "note": 37,
      "start": 46.3008,
      "duration": 0.0161,
      "velocity": 115,
      "chip": "ym2612"
    },
    {
      "channel": 4,
      "note": 58,
      "start": 46.3019,
      "duration": 0.0162,
      "velocity": 101,
      "chip": "ym2612"
    },
    {
      "channel": 3,
      "note": 61,
      "start": 46.3031,
      "duration": 0.0161,
      "velocity": 101,
      "chip": "ym2612"
    },
    {
      "channel": 2,
      "note": 59,
      "start": 46.3042,
      "duration": 0.0161,
      "velocity": 100,
      "chip": "ym2612"
    },
    {
      "channel": 1,
      "note": 66,
      "start": 46.3054,
      "duration": 0.0161,
      "velocity": 101,
      "chip": "ym2612"
    },
    {
      "channel": 0,
      "note": 38,
      "start": 46.3169,
      "duration": 0.0161,
      "velocity": 115,
      "chip": "ym2612"
    },
    {
      "channel": 4,
      "note": 58,
      "start": 46.3181,
      "duration": 0.0161,
      "velocity": 101,
      "chip": "ym2612"
    },
    {
      "channel": 3,
      "note": 61,
      "start": 46.3192,
      "duration": 0.0161,
      "velocity": 101,
      "chip": "ym2612"
    },
    {
      "channel": 2,
      "note": 59,
      "start": 46.3203,
      "duration": 0.0161,
      "velocity": 100,
      "chip": "ym2612"
    },
    {
      "channel": 1,
      "note": 66,
      "start": 46.3215,
      "duration": 0.0161,
      "velocity": 101,
      "chip": "ym2612"
    },
    {
      "channel": 0,
      "note": 38,
      "start": 46.333,
      "duration": 0.0161,
      "velocity": 115,
      "chip": "ym2612"
    },
    {
      "channel": 4,
      "note": 58,
      "start": 46.3342,
      "duration": 0.0161,
      "velocity": 101,
      "chip": "ym2612"
    },
    {
      "channel": 3,
      "note": 61,
      "start": 46.3353,
      "duration": 0.0161,
      "velocity": 101,
      "chip": "ym2612"
    },
    {
      "channel": 2,
      "note": 59,
      "start": 46.3364,
      "duration": 0.0161,
      "velocity": 100,
      "chip": "ym2612"
    },
    {
      "channel": 1,
      "note": 66,
      "start": 46.3376,
      "duration": 0.0162,
      "velocity": 101,
      "chip": "ym2612"
    },
    {
      "channel": 0,
      "note": 39,
      "start": 46.3491,
      "duration": 0.0161,
      "velocity": 115,
      "chip": "ym2612"
    },
    {
      "channel": 4,
      "note": 58,
      "start": 46.3503,
      "duration": 0.0161,
      "velocity": 101,
      "chip": "ym2612"
    },
    {
      "channel": 3,
      "note": 61,
      "start": 46.3514,
      "duration": 0.0161,
      "velocity": 101,
      "chip": "ym2612"
    },
    {
      "channel": 2,
      "note": 59,
      "start": 46.3526,
      "duration": 0.0161,
      "velocity": 100,
      "chip": "ym2612"
    },
    {
      "channel": 1,
      "note": 66,
      "start": 46.3537,
      "duration": 0.0161,
      "velocity": 101,
      "chip": "ym2612"
    },
    {
      "channel": 0,
      "note": 39,
      "start": 46.3652,
      "duration": 0.0161,
      "velocity": 115,
      "chip": "ym2612"
    },
    {
      "channel": 4,
      "note": 58,
      "start": 46.3664,
      "duration": 0.0161,
      "velocity": 101,
      "chip": "ym2612"
    },
    {
      "channel": 3,
      "note": 61,
      "start": 46.3675,
      "duration": 0.0161,
      "velocity": 101,
      "chip": "ym2612"
    },
    {
      "channel": 1,
      "note": 66,
      "start": 46.3698,
      "duration": 0.0161,
      "velocity": 101,
      "chip": "ym2612"
    },
    {
      "channel": 0,
      "note": 40,
      "start": 46.3813,
      "duration": 0.0161,
      "velocity": 115,
      "chip": "ym2612"
    },
    {
      "channel": 4,
      "note": 58,
      "start": 46.3825,
      "duration": 0.0161,
      "velocity": 101,
      "chip": "ym2612"
    },
    {
      "channel": 3,
      "note": 61,
      "start": 46.3836,
      "duration": 0.0161,
      "velocity": 101,
      "chip": "ym2612"
    },
    {
      "channel": 1,
      "note": 66,
      "start": 46.3859,
      "duration": 0.0161,
      "velocity": 101,
      "chip": "ym2612"
    },
    {
      "channel": 0,
      "note": 40,
      "start": 46.3974,
      "duration": 0.0161,
      "velocity": 115,
      "chip": "ym2612"
    },
    {
      "channel": 4,
      "note": 58,
      "start": 46.3985,
      "duration": 0.0161,
      "velocity": 101,
      "chip": "ym2612"
    },
    {
      "channel": 3,
      "note": 61,
      "start": 46.3997,
      "duration": 0.0161,
      "velocity": 101,
      "chip": "ym2612"
    },
    {
      "channel": 1,
      "note": 66,
      "start": 46.402,
      "duration": 0.0161,
      "velocity": 101,
      "chip": "ym2612"
    },
    {
      "channel": 0,
      "note": 40,
      "start": 46.4135,
      "duration": 0.0161,
      "velocity": 115,
      "chip": "ym2612"
    },
    {
      "channel": 4,
      "note": 58,
      "start": 46.4146,
      "duration": 0.0161,
      "velocity": 101,
      "chip": "ym2612"
    },
    {
      "channel": 3,
      "note": 61,
      "start": 46.4158,
      "duration": 0.0161,
      "velocity": 101,
      "chip": "ym2612"
    },
    {
      "channel": 1,
      "note": 66,
      "start": 46.4181,
      "duration": 0.0161,
      "velocity": 101,
      "chip": "ym2612"
    },
    {
      "channel": 0,
      "note": 41,
      "start": 46.4296,
      "duration": 0.0162,
      "velocity": 115,
      "chip": "ym2612"
    },
    {
      "channel": 4,
      "note": 58,
      "start": 46.4307,
      "duration": 0.0162,
      "velocity": 101,
      "chip": "ym2612"
    },
    {
      "channel": 3,
      "note": 61,
      "start": 46.4319,
      "duration": 0.0162,
      "velocity": 101,
      "chip": "ym2612"
    },
    {
      "channel": 1,
      "note": 66,
      "start": 46.4342,
      "duration": 0.0162,
      "velocity": 101,
      "chip": "ym2612"
    },
    {
      "channel": 0,
      "note": 41,
      "start": 46.4458,
      "duration": 0.0163,
      "velocity": 115,
      "chip": "ym2612"
    },
    {
      "channel": 4,
      "note": 58,
      "start": 46.447,
      "duration": 0.0163,
      "velocity": 101,
      "chip": "ym2612"
    },
    {
      "channel": 3,
      "note": 61,
      "start": 46.4481,
      "duration": 0.0163,
      "velocity": 101,
      "chip": "ym2612"
    },
    {
      "channel": 1,
      "note": 66,
      "start": 46.4504,
      "duration": 0.0163,
      "velocity": 101,
      "chip": "ym2612"
    },
    {
      "channel": 0,
      "note": 42,
      "start": 46.4621,
      "duration": 0.0176,
      "velocity": 124,
      "chip": "ym2612"
    },
    {
      "channel": 4,
      "note": 58,
      "start": 46.4632,
      "duration": 0.0176,
      "velocity": 101,
      "chip": "ym2612"
    },
    {
      "channel": 3,
      "note": 61,
      "start": 46.4644,
      "duration": 0.0176,
      "velocity": 101,
      "chip": "ym2612"
    },
    {
      "channel": 1,
      "note": 66,
      "start": 46.4667,
      "duration": 0.0179,
      "velocity": 101,
      "chip": "ym2612"
    },
    {
      "channel": 0,
      "note": 84,
      "start": 46.4797,
      "duration": 0.0162,
      "velocity": 124,
      "chip": "ym2612"
    },
    {
      "channel": 4,
      "note": 58,
      "start": 46.4809,
      "duration": 0.0161,
      "velocity": 101,
      "chip": "ym2612"
    },
    {
      "channel": 3,
      "note": 61,
      "start": 46.482,
      "duration": 0.0162,
      "velocity": 101,
      "chip": "ym2612"
    },
    {
      "channel": 2,
      "note": 71,
      "start": 46.4834,
      "duration": 0.016,
      "velocity": 100,
      "chip": "ym2612"
    },
    {
      "channel": 1,
      "note": 66,
      "start": 46.4846,
      "duration": 0.016,
      "velocity": 101,
      "chip": "ym2612"
    },
    {
      "channel": 0,
      "note": 82,
      "start": 46.4959,
      "duration": 0.0166,
      "velocity": 124,
      "chip": "ym2612"
    },
    {
      "channel": 4,
      "note": 58,
      "start": 46.497,
      "duration": 0.0166,
      "velocity": 101,
      "chip": "ym2612"
    },
    {
      "channel": 3,
      "note": 61,
      "start": 46.4982,
      "duration": 0.0166,
      "velocity": 101,
      "chip": "ym2612"
    },
    {
      "channel": 2,
      "note": 71,
      "start": 46.4994,
      "duration": 0.0165,
      "velocity": 100,
      "chip": "ym2612"
    },
    {
      "channel": 1,
      "note": 66,
      "start": 46.5005,
      "duration": 0.0166,
      "velocity": 101,
      "chip": "ym2612"
    },
    {
      "channel": 0,
      "note": 80,
      "start": 46.5125,
      "duration": 0.0161,
      "velocity": 124,
      "chip": "ym2612"
    },
    {
      "channel": 4,
      "note": 58,
      "start": 46.5136,
      "duration": 0.0162,
      "velocity": 101,
      "chip": "ym2612"
    },
    {
      "channel": 3,
      "note": 61,
      "start": 46.5148,
      "duration": 0.0161,
      "velocity": 101,
      "chip": "ym2612"
    },
    {
      "channel": 2,
      "note": 71,
      "start": 46.5159,
      "duration": 0.0161,
      "velocity": 100,
      "chip": "ym2612"
    },
    {
      "channel": 1,
      "note": 66,
      "start": 46.5171,
      "duration": 0.0161,
      "velocity": 101,
      "chip": "ym2612"
    },
    {
      "channel": 0,
      "note": 77,
      "start": 46.5286,
      "duration": 0.0141,
      "velocity": 124,
      "chip": "ym2612"
    },
    {
      "channel": 4,
      "note": 58,
      "start": 46.5298,
      "duration": 0.014,
      "velocity": 101,
      "chip": "ym2612"
    },
    {
      "channel": 3,
      "note": 61,
      "start": 46.5309,
      "duration": 0.014,
      "velocity": 101,
      "chip": "ym2612"
    },
    {
      "channel": 2,
      "note": 71,
      "start": 46.532,
      "duration": 0.0141,
      "velocity": 100,
      "chip": "ym2612"
    },
    {
      "channel": 1,
      "note": 66,
      "start": 46.5332,
      "duration": 0.0141,
      "velocity": 101,
      "chip": "ym2612"
    },
    {
      "channel": 0,
      "note": 75,
      "start": 46.5427,
      "duration": 0.0185,
      "velocity": 124,
      "chip": "ym2612"
    },
    {
      "channel": 4,
      "note": 58,
      "start": 46.5438,
      "duration": 0.0185,
      "velocity": 101,
      "chip": "ym2612"
    },
    {
      "channel": 3,
      "note": 61,
      "start": 46.5449,
      "duration": 0.0185,
      "velocity": 101,
      "chip": "ym2612"
    },
    {
      "channel": 2,
      "note": 71,
      "start": 46.5461,
      "duration": 0.0185,
      "velocity": 100,
      "chip": "ym2612"
    },
    {
      "channel": 1,
      "note": 66,
      "start": 46.5472,
      "duration": 0.0185,
      "velocity": 101,
      "chip": "ym2612"
    },
    {
      "channel": 0,
      "note": 72,
      "start": 46.5612,
      "duration": 0.0161,
      "velocity": 124,
      "chip": "ym2612"
    },
    {
      "channel": 4,
      "note": 58,
      "start": 46.5623,
      "duration": 0.0161,
      "velocity": 101,
      "chip": "ym2612"
    },
    {
      "channel": 3,
      "note": 61,
      "start": 46.5634,
      "duration": 0.0161,
      "velocity": 101,
      "chip": "ym2612"
    },
    {
      "channel": 2,
      "note": 71,
      "start": 46.5646,
      "duration": 0.0161,
      "velocity": 100,
      "chip": "ym2612"
    },
    {
      "channel": 1,
      "note": 66,
      "start": 46.5657,
      "duration": 0.0161,
      "velocity": 101,
      "chip": "ym2612"
    },
    {
      "channel": 0,
      "note": 70,
      "start": 46.5773,
      "duration": 0.0134,
      "velocity": 124,
      "chip": "ym2612"
    },
    {
      "channel": 4,
      "note": 58,
      "start": 46.5784,
      "duration": 0.0158,
      "velocity": 101,
      "chip": "ym2612"
    },
    {
      "channel": 3,
      "note": 61,
      "start": 46.5795,
      "duration": 0.0158,
      "velocity": 101,
      "chip": "ym2612"
    },
    {
      "channel": 2,
      "note": 71,
      "start": 46.5807,
      "duration": 0.0158,
      "velocity": 100,
      "chip": "ym2612"
    },
    {
      "channel": 1,
      "note": 66,
      "start": 46.5818,
      "duration": 0.0158,
      "velocity": 101,
      "chip": "ym2612"
    },
    {
      "channel": 0,
      "note": 68,
      "start": 46.5906,
      "duration": 0.0161,
      "velocity": 124,
      "chip": "ym2612"
    },
    {
      "channel": 4,
      "note": 58,
      "start": 46.5942,
      "duration": 0.0141,
      "velocity": 101,
      "chip": "ym2612"
    },
    {
      "channel": 3,
      "note": 61,
      "start": 46.5953,
      "duration": 0.0141,
      "velocity": 101,
      "chip": "ym2612"
    },
    {
      "channel": 1,
      "note": 66,
      "start": 46.5976,
      "duration": 0.0141,
      "velocity": 101,
      "chip": "ym2612"
    },
    {
      "channel": 0,
      "note": 65,
      "start": 46.6067,
      "duration": 0.0161,
      "velocity": 124,
      "chip": "ym2612"
    },
    {
      "channel": 4,
      "note": 58,
      "start": 46.6082,
      "duration": 0.0158,
      "velocity": 101,
      "chip": "ym2612"
    },
    {
      "channel": 3,
      "note": 61,
      "start": 46.6094,
      "duration": 0.0185,
      "velocity": 101,
      "chip": "ym2612"
    },
    {
      "channel": 1,
      "note": 66,
      "start": 46.6117,
      "duration": 0.0185,
      "velocity": 101,
      "chip": "ym2612"
    },
    {
      "channel": 0,
      "note": 63,
      "start": 46.6228,
      "duration": 0.0153,
      "velocity": 1,
      "chip": "ym2612"
    },
    {
      "channel": 4,
      "note": 58,
      "start": 46.624,
      "duration": 0.0153,
      "velocity": 101,
      "chip": "ym2612"
    },
    {
      "channel": 3,
      "note": 61,
      "start": 46.6279,
      "duration": 0.0125,
      "velocity": 101,
      "chip": "ym2612"
    },
    {
      "channel": 1,
      "note": 66,
      "start": 46.6302,
      "duration": 0.0153,
      "velocity": 101,
      "chip": "ym2612"
    },
    {
      "channel": 4,
      "note": 58,
      "start": 46.6393,
      "duration": 0.0153,
      "velocity": 101,
      "chip": "ym2612"
    },
    {
      "channel": 3,
      "note": 61,
      "start": 46.6404,
      "duration": 0.0153,
      "velocity": 101,
      "chip": "ym2612"
    },
    {
      "channel": 1,
      "note": 66,
      "start": 46.6454,
      "duration": 0.0149,
      "velocity": 101,
      "chip": "ym2612"
    },
    {
      "channel": 4,
      "note": 58,
      "start": 46.6545,
      "duration": 0.0161,
      "velocity": 101,
      "chip": "ym2612"
    },
    {
      "channel": 3,
      "note": 61,
      "start": 46.6557,
      "duration": 0.0161,
      "velocity": 101,
      "chip": "ym2612"
    },
    {
      "channel": 1,
      "note": 66,
      "start": 46.6603,
      "duration": 0.0137,
      "velocity": 101,
      "chip": "ym2612"
    },
    {
      "channel": 4,
      "note": 58,
      "start": 46.6706,
      "duration": 0.0161,
      "velocity": 101,
      "chip": "ym2612"
    },
    {
      "channel": 3,
      "note": 61,
      "start": 46.6718,
      "duration": 0.0161,
      "velocity": 101,
      "chip": "ym2612"
    },
    {
      "channel": 1,
      "note": 66,
      "start": 46.6741,
      "duration": 0.0161,
      "velocity": 101,
      "chip": "ym2612"
    },
    {
      "channel": 4,
      "note": 58,
      "start": 46.6867,
      "duration": 0.0161,
      "velocity": 101,
      "chip": "ym2612"
    },
    {
      "channel": 3,
      "note": 61,
      "start": 46.6879,
      "duration": 0.0161,
      "velocity": 101,
      "chip": "ym2612"
    },
    {
      "channel": 1,
      "note": 66,
      "start": 46.6902,
      "duration": 0.0163,
      "velocity": 101,
      "chip": "ym2612"
    },
    {
      "channel": 4,
      "note": 58,
      "start": 46.7028,
      "duration": 0.0161,
      "velocity": 101,
      "chip": "ym2612"
    },
    {
      "channel": 3,
      "note": 61,
      "start": 46.704,
      "duration": 0.0161,
      "velocity": 101,
      "chip": "ym2612"
    },
    {
      "channel": 2,
      "note": 59,
      "start": 46.7054,
      "duration": 0.0159,
      "velocity": 100,
      "chip": "ym2612"
    },
    {
      "channel": 1,
      "note": 66,
      "start": 46.7065,
      "duration": 0.0159,
      "velocity": 101,
      "chip": "ym2612"
    },
    {
      "channel": 4,
      "note": 58,
      "start": 46.7189,
      "duration": 0.0161,
      "velocity": 101,
      "chip": "ym2612"
    },
    {
      "channel": 3,
      "note": 61,
      "start": 46.7201,
      "duration": 0.0161,
      "velocity": 101,
      "chip": "ym2612"
    },
    {
      "channel": 2,
      "note": 59,
      "start": 46.7213,
      "duration": 0.016,
      "velocity": 100,
      "chip": "ym2612"
    },
    {
      "channel": 1,
      "note": 66,
      "start": 46.7224,
      "duration": 0.016,
      "velocity": 101,
      "chip": "ym2612"
    },
    {
      "channel": 4,
      "note": 58,
      "start": 46.735,
      "duration": 0.0161,
      "velocity": 101,
      "chip": "ym2612"
    },
    {
      "channel": 3,
      "note": 61,
      "start": 46.7361,
      "duration": 0.0162,
      "velocity": 101,
      "chip": "ym2612"
    },
    {
      "channel": 2,
      "note": 59,
      "start": 46.7373,
      "duration": 0.0161,
      "velocity": 100,
      "chip": "ym2612"
    },
    {
      "channel": 1,
      "note": 66,
      "start": 46.7384,
      "duration": 0.0161,
      "velocity": 101,
      "chip": "ym2612"
    },
    {
      "channel": 4,
      "note": 58,
      "start": 46.7512,
      "duration": 0.0161,
      "velocity": 101,
      "chip": "ym2612"
    },
    {
      "channel": 3,
      "note": 61,
      "start": 46.7523,
      "duration": 0.0161,
      "velocity": 101,
      "chip": "ym2612"
    },
    {
      "channel": 2,
      "note": 59,
      "start": 46.7534,
      "duration": 0.0161,
      "velocity": 100,
      "chip": "ym2612"
    },
    {
      "channel": 1,
      "note": 66,
      "start": 46.7545,
      "duration": 0.0162,
      "velocity": 101,
      "chip": "ym2612"
    },
    {
      "channel": 4,
      "note": 58,
      "start": 46.7673,
      "duration": 0.0161,
      "velocity": 101,
      "chip": "ym2612"
    },
    {
      "channel": 3,
      "note": 61,
      "start": 46.7684,
      "duration": 0.0161,
      "velocity": 101,
      "chip": "ym2612"
    },
    {
      "channel": 2,
      "note": 59,
      "start": 46.7695,
      "duration": 0.0161,
      "velocity": 100,
      "chip": "ym2612"
    },
    {
      "channel": 1,
      "note": 66,
      "start": 46.7707,
      "duration": 0.0161,
      "velocity": 101,
      "chip": "ym2612"
    },
    {
      "channel": 4,
      "note": 58,
      "start": 46.7834,
      "duration": 0.0161,
      "velocity": 101,
      "chip": "ym2612"
    },
    {
      "channel": 3,
      "note": 61,
      "start": 46.7845,
      "duration": 0.0161,
      "velocity": 101,
      "chip": "ym2612"
    },
    {
      "channel": 2,
      "note": 59,
      "start": 46.7856,
      "duration": 0.0161,
      "velocity": 100,
      "chip": "ym2612"
    },
    {
      "channel": 1,
      "note": 66,
      "start": 46.7868,
      "duration": 0.0161,
      "velocity": 101,
      "chip": "ym2612"
    },
    {
      "channel": 4,
      "note": 58,
      "start": 46.7995,
      "duration": 0.0161,
      "velocity": 101,
      "chip": "ym2612"
    },
    {
      "channel": 3,
      "note": 61,
      "start": 46.8006,
      "duration": 0.0161,
      "velocity": 101,
      "chip": "ym2612"
    },
    {
      "channel": 2,
      "note": 59,
      "start": 46.8017,
      "duration": 0.0161,
      "velocity": 100,
      "chip": "ym2612"
    },
    {
      "channel": 1,
      "note": 66,
      "start": 46.8029,
      "duration": 0.0161,
      "velocity": 101,
      "chip": "ym2612"
    },
    {
      "channel": 4,
      "note": 58,
      "start": 46.8155,
      "duration": 0.0161,
      "velocity": 101,
      "chip": "ym2612"
    },
    {
      "channel": 3,
      "note": 61,
      "start": 46.8167,
      "duration": 0.0161,
      "velocity": 101,
      "chip": "ym2612"
    },
    {
      "channel": 1,
      "note": 66,
      "start": 46.819,
      "duration": 0.0161,
      "velocity": 101,
      "chip": "ym2612"
    },
    {
      "channel": 4,
      "note": 58,
      "start": 46.8316,
      "duration": 0.0161,
      "velocity": 101,
      "chip": "ym2612"
    },
    {
      "channel": 3,
      "note": 61,
      "start": 46.8328,
      "duration": 0.0161,
      "velocity": 101,
      "chip": "ym2612"
    },
    {
      "channel": 1,
      "note": 66,
      "start": 46.8351,
      "duration": 0.0161,
      "velocity": 101,
      "chip": "ym2612"
    },
    {
      "channel": 4,
      "note": 58,
      "start": 46.8477,
      "duration": 0.0161,
      "velocity": 101,
      "chip": "ym2612"
    },
    {
      "channel": 3,
      "note": 61,
      "start": 46.8489,
      "duration": 0.0161,
      "velocity": 101,
      "chip": "ym2612"
    },
    {
      "channel": 1,
      "note": 66,
      "start": 46.8512,
      "duration": 0.0161,
      "velocity": 101,
      "chip": "ym2612"
    },
    {
      "channel": 4,
      "note": 58,
      "start": 46.8638,
      "duration": 0.0161,
      "velocity": 101,
      "chip": "ym2612"
    },
    {
      "channel": 3,
      "note": 61,
      "start": 46.865,
      "duration": 0.0161,
      "velocity": 101,
      "chip": "ym2612"
    },
    {
      "channel": 1,
      "note": 66,
      "start": 46.8673,
      "duration": 0.0161,
      "velocity": 101,
      "chip": "ym2612"
    },
    {
      "channel": 4,
      "note": 58,
      "start": 46.8799,
      "duration": 0.0162,
      "velocity": 101,
      "chip": "ym2612"
    },
    {
      "channel": 3,
      "note": 61,
      "start": 46.8811,
      "duration": 0.0162,
      "velocity": 101,
      "chip": "ym2612"
    },
    {
      "channel": 1,
      "note": 66,
      "start": 46.8834,
      "duration": 0.0161,
      "velocity": 101,
      "chip": "ym2612"
    },
    {
      "channel": 4,
      "note": 58,
      "start": 46.8961,
      "duration": 0.0161,
      "velocity": 101,
      "chip": "ym2612"
    },
    {
      "channel": 3,
      "note": 61,
      "start": 46.8972,
      "duration": 0.0161,
      "velocity": 101,
      "chip": "ym2612"
    },
    {
      "channel": 1,
      "note": 66,
      "start": 46.8995,
      "duration": 0.0161,
      "velocity": 101,
      "chip": "ym2612"
    },
    {
      "channel": 4,
      "note": 58,
      "start": 46.9122,
      "duration": 0.0198,
      "velocity": 101,
      "chip": "ym2612"
    },
    {
      "channel": 3,
      "note": 61,
      "start": 46.9133,
      "duration": 0.02,
      "velocity": 101,
      "chip": "ym2612"
    },
    {
      "channel": 1,
      "note": 66,
      "start": 46.9156,
      "duration": 0.0206,
      "velocity": 101,
      "chip": "ym2612"
    },
    {
      "channel": 0,
      "note": 36,
      "start": 46.9306,
      "duration": 0.0144,
      "velocity": 115,
      "chip": "ym2612"
    },
    {
      "channel": 4,
      "note": 63,
      "start": 46.932,
      "duration": 0.0141,
      "velocity": 101,
      "chip": "ym2612"
    },
    {
      "channel": 3,
      "note": 66,
      "start": 46.9334,
      "duration": 0.0139,
      "velocity": 101,
      "chip": "ym2612"
    },
    {
      "channel": 2,
      "note": 54,
      "start": 46.9349,
      "duration": 0.0136,
      "velocity": 100,
      "chip": "ym2612"
    },
    {
      "channel": 1,
      "note": 71,
      "start": 46.9363,
      "duration": 0.0134,
      "velocity": 101,
      "chip": "ym2612"
    },
    {
      "channel": 0,
      "note": 36,
      "start": 46.9449,
      "duration": 0.0176,
      "velocity": 115,
      "chip": "ym2612"
    },
    {
      "channel": 4,
      "note": 63,
      "start": 46.9461,
      "duration": 0.0175,
      "velocity": 101,
      "chip": "ym2612"
    },
    {
      "channel": 3,
      "note": 66,
      "start": 46.9473,
      "duration": 0.0174,
      "velocity": 101,
      "chip": "ym2612"
    },
    {
      "channel": 2,
      "note": 54,
      "start": 46.9485,
      "duration": 0.0174,
      "velocity": 100,
      "chip": "ym2612"
    },
    {
      "channel": 1,
      "note": 71,
      "start": 46.9497,
      "duration": 0.0174,
      "velocity": 101,
      "chip": "ym2612"
    },
    {
      "channel": 0,
      "note": 37,
      "start": 46.9625,
      "duration": 0.0167,
      "velocity": 115,
      "chip": "ym2612"
    },
    {
      "channel": 4,
      "note": 63,
      "start": 46.9636,
      "duration": 0.0167,
      "velocity": 101,
      "chip": "ym2612"
    },
    {
      "channel": 3,
      "note": 66,
      "start": 46.9648,
      "duration": 0.0167,
      "velocity": 101,
      "chip": "ym2612"
    },
    {
      "channel": 2,
      "note": 54,
      "start": 46.9659,
      "duration": 0.0167,
      "velocity": 100,
      "chip": "ym2612"
    },
    {
      "channel": 1,
      "note": 71,
      "start": 46.9671,
      "duration": 0.0167,
      "velocity": 101,
      "chip": "ym2612"
    },
    {
      "channel": 0,
      "note": 37,
      "start": 46.9792,
      "duration": 0.0163,
      "velocity": 115,
      "chip": "ym2612"
    },
    {
      "channel": 4,
      "note": 63,
      "start": 46.9803,
      "duration": 0.0163,
      "velocity": 101,
      "chip": "ym2612"
    },
    {
      "channel": 3,
      "note": 66,
      "start": 46.9815,
      "duration": 0.0163,
      "velocity": 101,
      "chip": "ym2612"
    },
    {
      "channel": 2,
      "note": 54,
      "start": 46.9826,
      "duration": 0.0163,
      "velocity": 100,
      "chip": "ym2612"
    },
    {
      "channel": 1,
      "note": 71,
      "start": 46.9837,
      "duration": 0.0163,
      "velocity": 101,
      "chip": "ym2612"
    },
    {
      "channel": 0,
      "note": 38,
      "start": 46.9954,
      "duration": 0.0141,
      "velocity": 115,
      "chip": "ym2612"
    },
    {
      "channel": 4,
      "note": 63,
      "start": 46.9966,
      "duration": 0.0141,
      "velocity": 101,
      "chip": "ym2612"
    },
    {
      "channel": 3,
      "note": 66,
      "start": 46.9977,
      "duration": 0.0141,
      "velocity": 101,
      "chip": "ym2612"
    },
    {
      "channel": 2,
      "note": 54,
      "start": 46.9989,
      "duration": 0.0141,
      "velocity": 100,
      "chip": "ym2612"
    },
    {
      "channel": 1,
      "note": 71,
      "start": 47.0,
      "duration": 0.0141,
      "velocity": 101,
      "chip": "ym2612"
    },
    {
      "channel": 0,
      "note": 38,
      "start": 47.0096,
      "duration": 0.0185,
      "velocity": 115,
      "chip": "ym2612"
    },
    {
      "channel": 4,
      "note": 63,
      "start": 47.0107,
      "duration": 0.0186,
      "velocity": 101,
      "chip": "ym2612"
    },
    {
      "channel": 3,
      "note": 66,
      "start": 47.0119,
      "duration": 0.0186,
      "velocity": 101,
      "chip": "ym2612"
    },
    {
      "channel": 2,
      "note": 54,
      "start": 47.013,
      "duration": 0.0185,
      "velocity": 100,
      "chip": "ym2612"
    },
    {
      "channel": 1,
      "note": 71,
      "start": 47.0141,
      "duration": 0.0185,
      "velocity": 101,
      "chip": "ym2612"
    },
    {
      "channel": 0,
      "note": 39,
      "start": 47.0281,
      "duration": 0.0161,
      "velocity": 115,
      "chip": "ym2612"
    },
    {
      "channel": 4,
      "note": 63,
      "start": 47.0293,
      "duration": 0.0161,
      "velocity": 101,
      "chip": "ym2612"
    },
    {
      "channel": 3,
      "note": 66,
      "start": 47.0304,
      "duration": 0.0161,
      "velocity": 101,
      "chip": "ym2612"
    },
    {
      "channel": 2,
      "note": 54,
      "start": 47.0315,
      "duration": 0.0161,
      "velocity": 100,
      "chip": "ym2612"
    },
    {
      "channel": 1,
      "note": 71,
      "start": 47.0327,
      "duration": 0.0162,
      "velocity": 101,
      "chip": "ym2612"
    },
    {
      "channel": 0,
      "note": 39,
      "start": 47.0442,
      "duration": 0.0134,
      "velocity": 115,
      "chip": "ym2612"
    },
    {
      "channel": 4,
      "note": 63,
      "start": 47.0454,
      "duration": 0.0157,
      "velocity": 101,
      "chip": "ym2612"
    },
    {
      "channel": 3,
      "note": 66,
      "start": 47.0465,
      "duration": 0.0157,
      "velocity": 101,
      "chip": "ym2612"
    },
    {
      "channel": 1,
      "note": 71,
      "start": 47.0488,
      "duration": 0.0157,
      "velocity": 101,
      "chip": "ym2612"
    },
    {
      "channel": 0,
      "note": 40,
      "start": 47.0575,
      "duration": 0.0161,
      "velocity": 115,
      "chip": "ym2612"
    },
    {
      "channel": 4,
      "note": 63,
      "start": 47.0611,
      "duration": 0.0141,
      "velocity": 101,
      "chip": "ym2612"
    },
    {
      "channel": 3,
      "note": 66,
      "start": 47.0622,
      "duration": 0.0141,
      "velocity": 101,
      "chip": "ym2612"
    },
    {
      "channel": 1,
      "note": 71,
      "start": 47.0645,
      "duration": 0.014,
      "velocity": 101,
      "chip": "ym2612"
    },
    {
      "channel": 0,
      "note": 40,
      "start": 47.0736,
      "duration": 0.0161,
      "velocity": 115,
      "chip": "ym2612"
    },
    {
      "channel": 4,
      "note": 63,
      "start": 47.0751,
      "duration": 0.0158,
      "velocity": 101,
      "chip": "ym2612"
    },
    {
      "channel": 3,
      "note": 66,
      "start": 47.0763,
      "duration": 0.0185,
      "velocity": 101,
      "chip": "ym2612"
    },
    {
      "channel": 1,
      "note": 71,
      "start": 47.0785,
      "duration": 0.0186,
      "velocity": 101,
      "chip": "ym2612"
    },
    {
      "channel": 0,
      "note": 40,
      "start": 47.0897,
      "duration": 0.0161,
      "velocity": 115,
      "chip": "ym2612"
    },
    {
      "channel": 4,
      "note": 63,
      "start": 47.0909,
      "duration": 0.0161,
      "velocity": 101,
      "chip": "ym2612"
    },
    {
      "channel": 3,
      "note": 66,
      "start": 47.0948,
      "duration": 0.0161,
      "velocity": 101,
      "chip": "ym2612"
    },
    {
      "channel": 1,
      "note": 71,
      "start": 47.0971,
      "duration": 0.0161,
      "velocity": 101,
      "chip": "ym2612"
    },
    {
      "channel": 0,
      "note": 41,
      "start": 47.1059,
      "duration": 0.0161,
      "velocity": 115,
      "chip": "ym2612"
    },
    {
      "channel": 4,
      "note": 63,
      "start": 47.107,
      "duration": 0.0161,
      "velocity": 101,
      "chip": "ym2612"
    },
    {
      "channel": 3,
      "note": 66,
      "start": 47.1109,
      "duration": 0.0134,
      "velocity": 101,
      "chip": "ym2612"
    },
    {
      "channel": 1,
      "note": 71,
      "start": 47.1132,
      "duration": 0.0157,
      "velocity": 101,
      "chip": "ym2612"
    },
    {
      "channel": 0,
      "note": 41,
      "start": 47.122,
      "duration": 0.0161,
      "velocity": 115,
      "chip": "ym2612"
    },
    {
      "channel": 4,
      "note": 63,
      "start": 47.1231,
      "duration": 0.0161,
      "velocity": 101,
      "chip": "ym2612"
    },
    {
      "channel": 3,
      "note": 66,
      "start": 47.1243,
      "duration": 0.0161,
      "velocity": 101,
      "chip": "ym2612"
    },
    {
      "channel": 1,
      "note": 71,
      "start": 47.1289,
      "duration": 0.0141,
      "velocity": 101,
      "chip": "ym2612"
    },
    {
      "channel": 0,
      "note": 42,
      "start": 47.1381,
      "duration": 0.0161,
      "velocity": 115,
      "chip": "ym2612"
    },
    {
      "channel": 4,
      "note": 63,
      "start": 47.1392,
      "duration": 0.0161,
      "velocity": 101,
      "chip": "ym2612"
    },
    {
      "channel": 3,
      "note": 66,
      "start": 47.1404,
      "duration": 0.0161,
      "velocity": 101,
      "chip": "ym2612"
    },
    {
      "channel": 1,
      "note": 71,
      "start": 47.143,
      "duration": 0.0188,
      "velocity": 101,
      "chip": "ym2612"
    },
    {
      "channel": 0,
      "note": 42,
      "start": 47.1541,
      "duration": 0.0161,
      "velocity": 115,
      "chip": "ym2612"
    },
    {
      "channel": 4,
      "note": 63,
      "start": 47.1553,
      "duration": 0.0161,
      "velocity": 101,
      "chip": "ym2612"
    },
    {
      "channel": 3,
      "note": 66,
      "start": 47.1564,
      "duration": 0.0161,
      "velocity": 101,
      "chip": "ym2612"
    },
    {
      "channel": 2,
      "note": 54,
      "start": 47.1606,
      "duration": 0.0131,
      "velocity": 100,
      "chip": "ym2612"
    },
    {
      "channel": 1,
      "note": 71,
      "start": 47.1618,
      "duration": 0.0158,
      "velocity": 101,
      "chip": "ym2612"
    },
    {
      "channel": 0,
      "note": 43,
      "start": 47.1702,
      "duration": 0.0161,
      "velocity": 115,
      "chip": "ym2612"
    },
    {
      "channel": 4,
      "note": 63,
      "start": 47.1714,
      "duration": 0.0161,
      "velocity": 101,
      "chip": "ym2612"
    },
    {
      "channel": 3,
      "note": 66,
      "start": 47.1725,
      "duration": 0.0161,
      "velocity": 101,
      "chip": "ym2612"
    },
    {
      "channel": 2,
      "note": 54,
      "start": 47.1737,
      "duration": 0.016,
      "velocity": 100,
      "chip": "ym2612"
    },
    {
      "channel": 1,
      "note": 71,
      "start": 47.1776,
      "duration": 0.0133,
      "velocity": 101,
      "chip": "ym2612"
    },
    {
      "channel": 0,
      "note": 43,
      "start": 47.1863,
      "duration": 0.0161,
      "velocity": 115,
      "chip": "ym2612"
    },
    {
      "channel": 4,
      "note": 63,
      "start": 47.1875,
      "duration": 0.0162,
      "velocity": 101,
      "chip": "ym2612"
    },
    {
      "channel": 3,
      "note": 66,
      "start": 47.1886,
      "duration": 0.0161,
      "velocity": 101,
      "chip": "ym2612"
    },
    {
      "channel": 2,
      "note": 54,
      "start": 47.1898,
      "duration": 0.0161,
      "velocity": 100,
      "chip": "ym2612"
    },
    {
      "channel": 1,
      "note": 71,
      "start": 47.1909,
      "duration": 0.0161,
      "velocity": 101,
      "chip": "ym2612"
    },
    {
      "channel": 0,
      "note": 44,
      "start": 47.2024,
      "duration": 0.0161,
      "velocity": 115,
      "chip": "ym2612"
    },
    {
      "channel": 4,
      "note": 63,
      "start": 47.2037,
      "duration": 0.0161,
      "velocity": 101,
      "chip": "ym2612"
    },
    {
      "channel": 3,
      "note": 66,
      "start": 47.2048,
      "duration": 0.0161,
      "velocity": 101,
      "chip": "ym2612"
    },
    {
      "channel": 2,
      "note": 54,
      "start": 47.2059,
      "duration": 0.0161,
      "velocity": 100,
      "chip": "ym2612"
    },
    {
      "channel": 1,
      "note": 71,
      "start": 47.207,
      "duration": 0.0161,
      "velocity": 101,
      "chip": "ym2612"
    },
    {
      "channel": 0,
      "note": 44,
      "start": 47.2185,
      "duration": 0.0162,
      "velocity": 115,
      "chip": "ym2612"
    },
    {
      "channel": 4,
      "note": 63,
      "start": 47.2198,
      "duration": 0.0161,
      "velocity": 101,
      "chip": "ym2612"
    },
    {
      "channel": 3,
      "note": 66,
      "start": 47.2209,
      "duration": 0.0161,
      "velocity": 101,
      "chip": "ym2612"
    },
    {
      "channel": 2,
      "note": 54,
      "start": 47.222,
      "duration": 0.0161,
      "velocity": 100,
      "chip": "ym2612"
    },
    {
      "channel": 1,
      "note": 71,
      "start": 47.2231,
      "duration": 0.0162,
      "velocity": 101,
      "chip": "ym2612"
    },
    {
      "channel": 0,
      "note": 44,
      "start": 47.2347,
      "duration": 0.0161,
      "velocity": 115,
      "chip": "ym2612"
    },
    {
      "channel": 4,
      "note": 63,
      "start": 47.2358,
      "duration": 0.0161,
      "velocity": 101,
      "chip": "ym2612"
    },
    {
      "channel": 3,
      "note": 66,
      "start": 47.237,
      "duration": 0.0161,
      "velocity": 101,
      "chip": "ym2612"
    },
    {
      "channel": 2,
      "note": 54,
      "start": 47.2381,
      "duration": 0.0161,
      "velocity": 100,
      "chip": "ym2612"
    },
    {
      "channel": 1,
      "note": 71,
      "start": 47.2393,
      "duration": 0.0161,
      "velocity": 101,
      "chip": "ym2612"
    },
    {
      "channel": 0,
      "note": 45,
      "start": 47.2508,
      "duration": 0.0161,
      "velocity": 115,
      "chip": "ym2612"
    },
    {
      "channel": 4,
      "note": 63,
      "start": 47.2519,
      "duration": 0.0161,
      "velocity": 101,
      "chip": "ym2612"
    },
    {
      "channel": 3,
      "note": 66,
      "start": 47.2531,
      "duration": 0.0161,
      "velocity": 101,
      "chip": "ym2612"
    },
    {
      "channel": 2,
      "note": 54,
      "start": 47.2542,
      "duration": 0.0161,
      "velocity": 100,
      "chip": "ym2612"
    },
    {
      "channel": 1,
      "note": 71,
      "start": 47.2554,
      "duration": 0.0161,
      "velocity": 101,
      "chip": "ym2612"
    },
    {
      "channel": 0,
      "note": 45,
      "start": 47.2669,
      "duration": 0.0161,
      "velocity": 115,
      "chip": "ym2612"
    },
    {
      "channel": 4,
      "note": 63,
      "start": 47.268,
      "duration": 0.0161,
      "velocity": 101,
      "chip": "ym2612"
    },
    {
      "channel": 3,
      "note": 66,
      "start": 47.2692,
      "duration": 0.0161,
      "velocity": 101,
      "chip": "ym2612"
    },
    {
      "channel": 1,
      "note": 71,
      "start": 47.2715,
      "duration": 0.0161,
      "velocity": 101,
      "chip": "ym2612"
    },
    {
      "channel": 0,
      "note": 46,
      "start": 47.283,
      "duration": 0.0161,
      "velocity": 115,
      "chip": "ym2612"
    },
    {
      "channel": 4,
      "note": 63,
      "start": 47.2841,
      "duration": 0.0161,
      "velocity": 101,
      "chip": "ym2612"
    },
    {
      "channel": 3,
      "note": 66,
      "start": 47.2853,
      "duration": 0.0161,
      "velocity": 101,
      "chip": "ym2612"
    },
    {
      "channel": 1,
      "note": 71,
      "start": 47.2876,
      "duration": 0.0161,
      "velocity": 101,
      "chip": "ym2612"
    },
    {
      "channel": 0,
      "note": 46,
      "start": 47.2991,
      "duration": 0.0161,
      "velocity": 115,
      "chip": "ym2612"
    },
    {
      "channel": 4,
      "note": 63,
      "start": 47.3002,
      "duration": 0.0161,
      "velocity": 101,
      "chip": "ym2612"
    },
    {
      "channel": 3,
      "note": 66,
      "start": 47.3014,
      "duration": 0.0161,
      "velocity": 101,
      "chip": "ym2612"
    },
    {
      "channel": 1,
      "note": 71,
      "start": 47.3037,
      "duration": 0.0161,
      "velocity": 101,
      "chip": "ym2612"
    },
    {
      "channel": 0,
      "note": 47,
      "start": 47.3152,
      "duration": 0.0161,
      "velocity": 115,
      "chip": "ym2612"
    },
    {
      "channel": 4,
      "note": 63,
      "start": 47.3163,
      "duration": 0.0161,
      "velocity": 101,
      "chip": "ym2612"
    },
    {
      "channel": 3,
      "note": 66,
      "start": 47.3175,
      "duration": 0.0161,
      "velocity": 101,
      "chip": "ym2612"
    },
    {
      "channel": 1,
      "note": 71,
      "start": 47.3198,
      "duration": 0.0161,
      "velocity": 101,
      "chip": "ym2612"
    },
    {
      "channel": 0,
      "note": 47,
      "start": 47.3312,
      "duration": 0.0161,
      "velocity": 115,
      "chip": "ym2612"
    },
    {
      "channel": 4,
      "note": 63,
      "start": 47.3324,
      "duration": 0.0161,
      "velocity": 101,
      "chip": "ym2612"
    },
    {
      "channel": 3,
      "note": 66,
      "start": 47.3335,
      "duration": 0.0161,
      "velocity": 101,
      "chip": "ym2612"
    },
    {
      "channel": 1,
      "note": 71,
      "start": 47.3358,
      "duration": 0.0161,
      "velocity": 101,
      "chip": "ym2612"
    },
    {
      "channel": 0,
      "note": 47,
      "start": 47.3473,
      "duration": 0.0161,
      "velocity": 115,
      "chip": "ym2612"
    },
    {
      "channel": 4,
      "note": 63,
      "start": 47.3485,
      "duration": 0.0161,
      "velocity": 101,
      "chip": "ym2612"
    },
    {
      "channel": 3,
      "note": 66,
      "start": 47.3496,
      "duration": 0.0162,
      "velocity": 101,
      "chip": "ym2612"
    },
    {
      "channel": 1,
      "note": 71,
      "start": 47.3519,
      "duration": 0.0161,
      "velocity": 101,
      "chip": "ym2612"
    },
    {
      "channel": 0,
      "note": 48,
      "start": 47.3634,
      "duration": 0.0179,
      "velocity": 124,
      "chip": "ym2612"
    },
    {
      "channel": 4,
      "note": 63,
      "start": 47.3646,
      "duration": 0.0179,
      "velocity": 101,
      "chip": "ym2612"
    },
    {
      "channel": 3,
      "note": 66,
      "start": 47.3658,
      "duration": 0.0179,
      "velocity": 101,
      "chip": "ym2612"
    },
    {
      "channel": 1,
      "note": 71,
      "start": 47.368,
      "duration": 0.0182,
      "velocity": 101,
      "chip": "ym2612"
    },
    {
      "channel": 0,
      "note": 84,
      "start": 47.3814,
      "duration": 0.0144,
      "velocity": 124,
      "chip": "ym2612"
    },
    {
      "channel": 4,
      "note": 63,
      "start": 47.3825,
      "duration": 0.0144,
      "velocity": 101,
      "chip": "ym2612"
    },
    {
      "channel": 3,
      "note": 66,
      "start": 47.3837,
      "duration": 0.0144,
      "velocity": 101,
      "chip": "ym2612"
    },
    {
      "channel": 2,
      "note": 66,
      "start": 47.3851,
      "duration": 0.0142,
      "velocity": 100,
      "chip": "ym2612"
    },
    {
      "channel": 1,
      "note": 71,
      "start": 47.3862,
      "duration": 0.0142,
      "velocity": 101,
      "chip": "ym2612"
    },
    {
      "channel": 0,
      "note": 82,
      "start": 47.3958,
      "duration": 0.016,
      "velocity": 124,
      "chip": "ym2612"
    },
    {
      "channel": 4,
      "note": 63,
      "start": 47.3969,
      "duration": 0.016,
      "velocity": 101,
      "chip": "ym2612"
    },
    {
      "channel": 3,
      "note": 66,
      "start": 47.398,
      "duration": 0.016,
      "velocity": 101,
      "chip": "ym2612"
    },
    {
      "channel": 2,
      "note": 66,
      "start": 47.3993,
      "duration": 0.016,
      "velocity": 100,
      "chip": "ym2612"
    },
    {
      "channel": 1,
      "note": 71,
      "start": 47.4004,
      "duration": 0.016,
      "velocity": 101,
      "chip": "ym2612"
    },
    {
      "channel": 0,
      "note": 80,
      "start": 47.4118,
      "duration": 0.0174,
      "velocity": 124,
      "chip": "ym2612"
    },
    {
      "channel": 4,
      "note": 63,
      "start": 47.4129,
      "duration": 0.0174,
      "velocity": 101,
      "chip": "ym2612"
    },
    {
      "channel": 3,
      "note": 66,
      "start": 47.4141,
      "duration": 0.0174,
      "velocity": 101,
      "chip": "ym2612"
    },
    {
      "channel": 2,
      "note": 66,
      "start": 47.4152,
      "duration": 0.0174,
      "velocity": 100,
      "chip": "ym2612"
    },
    {
      "channel": 1,
      "note": 71,
      "start": 47.4164,
      "duration": 0.0174,
      "velocity": 101,
      "chip": "ym2612"
    },
    {
      "channel": 0,
      "note": 77,
      "start": 47.4292,
      "duration": 0.0167,
      "velocity": 124,
      "chip": "ym2612"
    },
    {
      "channel": 4,
      "note": 63,
      "start": 47.4303,
      "duration": 0.0167,
      "velocity": 101,
      "chip": "ym2612"
    },
    {
      "channel": 3,
      "note": 66,
      "start": 47.4315,
      "duration": 0.0167,
      "velocity": 101,
      "chip": "ym2612"
    },
    {
      "channel": 2,
      "note": 66,
      "start": 47.4326,
      "duration": 0.0167,
      "velocity": 100,
      "chip": "ym2612"
    },
    {
      "channel": 1,
      "note": 71,
      "start": 47.4337,
      "duration": 0.0167,
      "velocity": 101,
      "chip": "ym2612"
    },
    {
      "channel": 0,
      "note": 75,
      "start": 47.4458,
      "duration": 0.0163,
      "velocity": 124,
      "chip": "ym2612"
    },
    {
      "channel": 4,
      "note": 63,
      "start": 47.447,
      "duration": 0.0163,
      "velocity": 101,
      "chip": "ym2612"
    },
    {
      "channel": 3,
      "note": 66,
      "start": 47.4481,
      "duration": 0.0163,
      "velocity": 101,
      "chip": "ym2612"
    },
    {
      "channel": 2,
      "note": 66,
      "start": 47.4493,
      "duration": 0.0163,
      "velocity": 100,
      "chip": "ym2612"
    },
    {
      "channel": 1,
      "note": 71,
      "start": 47.4504,
      "duration": 0.0163,
      "velocity": 101,
      "chip": "ym2612"
    },
    {
      "channel": 0,
      "note": 72,
      "start": 47.4621,
      "duration": 0.0144,
      "velocity": 124,
      "chip": "ym2612"
    },
    {
      "channel": 4,
      "note": 63,
      "start": 47.4632,
      "duration": 0.0144,
      "velocity": 101,
      "chip": "ym2612"
    },
    {
      "channel": 3,
      "note": 66,
      "start": 47.4644,
      "duration": 0.0144,
      "velocity": 101,
      "chip": "ym2612"
    },
    {
      "channel": 2,
      "note": 66,
      "start": 47.4655,
      "duration": 0.0144,
      "velocity": 100,
      "chip": "ym2612"
    },
    {
      "channel": 1,
      "note": 71,
      "start": 47.4667,
      "duration": 0.0144,
      "velocity": 101,
      "chip": "ym2612"
    },
    {
      "channel": 0,
      "note": 70,
      "start": 47.4765,
      "duration": 0.0185,
      "velocity": 124,
      "chip": "ym2612"
    },
    {
      "channel": 4,
      "note": 63,
      "start": 47.4777,
      "duration": 0.0185,
      "velocity": 101,
      "chip": "ym2612"
    },
    {
      "channel": 3,
      "note": 66,
      "start": 47.4788,
      "duration": 0.0185,
      "velocity": 101,
      "chip": "ym2612"
    },
    {
      "channel": 2,
      "note": 66,
      "start": 47.4799,
      "duration": 0.0186,
      "velocity": 100,
      "chip": "ym2612"
    },
    {
      "channel": 1,
      "note": 71,
      "start": 47.4811,
      "duration": 0.0186,
      "velocity": 101,
      "chip": "ym2612"
    },
    {
      "channel": 0,
      "note": 68,
      "start": 47.495,
      "duration": 0.0161,
      "velocity": 124,
      "chip": "ym2612"
    },
    {
      "channel": 4,
      "note": 63,
      "start": 47.4962,
      "duration": 0.0161,
      "velocity": 101,
      "chip": "ym2612"
    },
    {
      "channel": 3,
      "note": 66,
      "start": 47.4973,
      "duration": 0.0161,
      "velocity": 101,
      "chip": "ym2612"
    },
    {
      "channel": 1,
      "note": 71,
      "start": 47.4996,
      "duration": 0.0161,
      "velocity": 101,
      "chip": "ym2612"
    },
    {
      "channel": 0,
      "note": 65,
      "start": 47.5111,
      "duration": 0.0158,
      "velocity": 124,
      "chip": "ym2612"
    },
    {
      "channel": 4,
      "note": 63,
      "start": 47.5123,
      "duration": 0.0157,
      "velocity": 101,
      "chip": "ym2612"
    },
    {
      "channel": 3,
      "note": 66,
      "start": 47.5134,
      "duration": 0.0157,
      "velocity": 101,
      "chip": "ym2612"
    },
    {
      "channel": 1,
      "note": 71,
      "start": 47.5157,
      "duration": 0.0157,
      "velocity": 101,
      "chip": "ym2612"
    },
    {
      "channel": 0,
      "note": 63,
      "start": 47.5269,
      "duration": 0.0129,
      "velocity": 1,
      "chip": "ym2612"
    },
    {
      "channel": 4,
      "note": 63,
      "start": 47.528,
      "duration": 0.0129,
      "velocity": 101,
      "chip": "ym2612"
    },
    {
      "channel": 3,
      "note": 66,
      "start": 47.5292,
      "duration": 0.0132,
      "velocity": 101,
      "chip": "ym2612"
    },
    {
      "channel": 1,
      "note": 71,
      "start": 47.5315,
      "duration": 0.0132,
      "velocity": 101,
      "chip": "ym2612"
    },
    {
      "channel": 4,
      "note": 63,
      "start": 47.5409,
      "duration": 0.0153,
      "velocity": 101,
      "chip": "ym2612"
    },
    {
      "channel": 3,
      "note": 66,
      "start": 47.5424,
      "duration": 0.015,
      "velocity": 101,
      "chip": "ym2612"
    },
    {
      "channel": 1,
      "note": 71,
      "start": 47.5447,
      "duration": 0.0177,
      "velocity": 101,
      "chip": "ym2612"
    },
    {
      "channel": 4,
      "note": 63,
      "start": 47.5562,
      "duration": 0.0161,
      "velocity": 101,
      "chip": "ym2612"
    },
    {
      "channel": 3,
      "note": 66,
      "start": 47.5573,
      "duration": 0.0161,
      "velocity": 101,
      "chip": "ym2612"
    },
    {
      "channel": 1,
      "note": 71,
      "start": 47.5624,
      "duration": 0.0161,
      "velocity": 101,
      "chip": "ym2612"
    },
    {
      "channel": 4,
      "note": 63,
      "start": 47.5723,
      "duration": 0.0161,
      "velocity": 101,
      "chip": "ym2612"
    },
    {
      "channel": 3,
      "note": 66,
      "start": 47.5734,
      "duration": 0.0161,
      "velocity": 101,
      "chip": "ym2612"
    },
    {
      "channel": 1,
      "note": 71,
      "start": 47.5785,
      "duration": 0.0157,
      "velocity": 101,
      "chip": "ym2612"
    },
    {
      "channel": 4,
      "note": 63,
      "start": 47.5884,
      "duration": 0.0201,
      "velocity": 101,
      "chip": "ym2612"
    },
    {
      "channel": 3,
      "note": 66,
      "start": 47.5895,
      "duration": 0.0204,
      "velocity": 101,
      "chip": "ym2612"
    },
    {
      "channel": 1,
      "note": 71,
      "start": 47.5942,
      "duration": 0.0185,
      "velocity": 101,
      "chip": "ym2612"
    },
    {
      "channel": 0,
      "note": 36,
      "start": 47.6068,
      "duration": 0.0144,
      "velocity": 115,
      "chip": "ym2612"
    },
    {
      "channel": 4,
      "note": 63,
      "start": 47.6085,
      "duration": 0.0138,
      "velocity": 101,
      "chip": "ym2612"
    },
    {
      "channel": 3,
      "note": 66,
      "start": 47.61,
      "duration": 0.0136,
      "velocity": 101,
      "chip": "ym2612"
    },
    {
      "channel": 2,
      "note": 54,
      "start": 47.6113,
      "duration": 0.0162,
      "velocity": 100,
      "chip": "ym2612"
    },
    {
      "channel": 1,
      "note": 71,
      "start": 47.6127,
      "duration": 0.016,
      "velocity": 101,
      "chip": "ym2612"
    },
    {
      "channel": 0,
      "note": 36,
      "start": 47.6211,
      "duration": 0.016,
      "velocity": 115,
      "chip": "ym2612"
    },
    {
      "channel": 4,
      "note": 63,
      "start": 47.6224,
      "duration": 0.016,
      "velocity": 101,
      "chip": "ym2612"
    },
    {
      "channel": 3,
      "note": 66,
      "start": 47.6236,
      "duration": 0.0159,
      "velocity": 101,
      "chip": "ym2612"
    },
    {
      "channel": 2,
      "note": 54,
      "start": 47.6275,
      "duration": 0.0131,
      "velocity": 100,
      "chip": "ym2612"
    },
    {
      "channel": 1,
      "note": 71,
      "start": 47.6287,
      "duration": 0.0158,
      "velocity": 101,
      "chip": "ym2612"
    },
    {
      "channel": 0,
      "note": 37,
      "start": 47.6372,
      "duration": 0.0161,
      "velocity": 115,
      "chip": "ym2612"
    },
    {
      "channel": 4,
      "note": 63,
      "start": 47.6383,
      "duration": 0.0161,
      "velocity": 101,
      "chip": "ym2612"
    },
    {
      "channel": 3,
      "note": 66,
      "start": 47.6395,
      "duration": 0.0162,
      "velocity": 101,
      "chip": "ym2612"
    },
    {
      "channel": 2,
      "note": 54,
      "start": 47.6406,
      "duration": 0.0161,
      "velocity": 100,
      "chip": "ym2612"
    },
    {
      "channel": 1,
      "note": 71,
      "start": 47.6445,
      "duration": 0.0158,
      "velocity": 101,
      "chip": "ym2612"
    },
    {
      "channel": 0,
      "note": 37,
      "start": 47.6533,
      "duration": 0.0161,
      "velocity": 115,
      "chip": "ym2612"
    },
    {
      "channel": 4,
      "note": 63,
      "start": 47.6545,
      "duration": 0.0161,
      "velocity": 101,
      "chip": "ym2612"
    },
    {
      "channel": 3,
      "note": 66,
      "start": 47.6556,
      "duration": 0.0161,
      "velocity": 101,
      "chip": "ym2612"
    },
    {
      "channel": 2,
      "note": 54,
      "start": 47.6567,
      "duration": 0.0161,
      "velocity": 100,
      "chip": "ym2612"
    },
    {
      "channel": 1,
      "note": 71,
      "start": 47.6603,
      "duration": 0.0137,
      "velocity": 101,
      "chip": "ym2612"
    },
    {
      "channel": 0,
      "note": 38,
      "start": 47.6694,
      "duration": 0.0161,
      "velocity": 115,
      "chip": "ym2612"
    },
    {
      "channel": 4,
      "note": 63,
      "start": 47.6706,
      "duration": 0.0161,
      "velocity": 101,
      "chip": "ym2612"
    },
    {
      "channel": 3,
      "note": 66,
      "start": 47.6717,
      "duration": 0.0161,
      "velocity": 101,
      "chip": "ym2612"
    },
    {
      "channel": 2,
      "note": 54,
      "start": 47.6729,
      "duration": 0.0161,
      "velocity": 100,
      "chip": "ym2612"
    },
    {
      "channel": 1,
      "note": 71,
      "start": 47.674,
      "duration": 0.0161,
      "velocity": 101,
      "chip": "ym2612"
    },
    {
      "channel": 0,
      "note": 38,
      "start": 47.6855,
      "duration": 0.0161,
      "velocity": 115,
      "chip": "ym2612"
    },
    {
      "channel": 4,
      "note": 63,
      "start": 47.6867,
      "duration": 0.0161,
      "velocity": 101,
      "chip": "ym2612"
    },
    {
      "channel": 3,
      "note": 66,
      "start": 47.6878,
      "duration": 0.0161,
      "velocity": 101,
      "chip": "ym2612"
    },
    {
      "channel": 2,
      "note": 54,
      "start": 47.689,
      "duration": 0.0161,
      "velocity": 100,
      "chip": "ym2612"
    },
    {
      "channel": 1,
      "note": 71,
      "start": 47.6901,
      "duration": 0.0161,
      "velocity": 101,
      "chip": "ym2612"
    },
    {
      "channel": 0,
      "note": 39,
      "start": 47.7016,
      "duration": 0.0161,
      "velocity": 115,
      "chip": "ym2612"
    },
    {
      "channel": 4,
      "note": 63,
      "start": 47.7028,
      "duration": 0.0161,
      "velocity": 101,
      "chip": "ym2612"
    },
    {
      "channel": 3,
      "note": 66,
      "start": 47.7039,
      "duration": 0.0161,
      "velocity": 101,
      "chip": "ym2612"
    },
    {
      "channel": 2,
      "note": 54,
      "start": 47.7051,
      "duration": 0.0161,
      "velocity": 100,
      "chip": "ym2612"
    },
    {
      "channel": 1,
      "note": 71,
      "start": 47.7062,
      "duration": 0.0161,
      "velocity": 101,
      "chip": "ym2612"
    },
    {
      "channel": 0,
      "note": 39,
      "start": 47.7177,
      "duration": 0.0161,
      "velocity": 115,
      "chip": "ym2612"
    },
    {
      "channel": 4,
      "note": 63,
      "start": 47.7188,
      "duration": 0.0161,
      "velocity": 101,
      "chip": "ym2612"
    },
    {
      "channel": 3,
      "note": 66,
      "start": 47.72,
      "duration": 0.0161,
      "velocity": 101,
      "chip": "ym2612"
    },
    {
      "channel": 1,
      "note": 71,
      "start": 47.7223,
      "duration": 0.0161,
      "velocity": 101,
      "chip": "ym2612"
    },
    {
      "channel": 0,
      "note": 40,
      "start": 47.7338,
      "duration": 0.0161,
      "velocity": 115,
      "chip": "ym2612"
    },
    {
      "channel": 4,
      "note": 63,
      "start": 47.7349,
      "duration": 0.0161,
      "velocity": 101,
      "chip": "ym2612"
    },
    {
      "channel": 3,
      "note": 66,
      "start": 47.7361,
      "duration": 0.0161,
      "velocity": 101,
      "chip": "ym2612"
    },
    {
      "channel": 1,
      "note": 71,
      "start": 47.7384,
      "duration": 0.0161,
      "velocity": 101,
      "chip": "ym2612"
    },
    {
      "channel": 0,
      "note": 40,
      "start": 47.7499,
      "duration": 0.0161,
      "velocity": 115,
      "chip": "ym2612"
    },
    {
      "channel": 4,
      "note": 63,
      "start": 47.751,
      "duration": 0.0161,
      "velocity": 101,
      "chip": "ym2612"
    },
    {
      "channel": 3,
      "note": 66,
      "start": 47.7522,
      "duration": 0.0161,
      "velocity": 101,
      "chip": "ym2612"
    },
    {
      "channel": 1,
      "note": 71,
      "start": 47.7545,
      "duration": 0.0161,
      "velocity": 101,
      "chip": "ym2612"
    },
    {
      "channel": 0,
      "note": 40,
      "start": 47.766,
      "duration": 0.0161,
      "velocity": 115,
      "chip": "ym2612"
    },
    {
      "channel": 4,
      "note": 63,
      "start": 47.7671,
      "duration": 0.0161,
      "velocity": 101,
      "chip": "ym2612"
    },
    {
      "channel": 3,
      "note": 66,
      "start": 47.7683,
      "duration": 0.0161,
      "velocity": 101,
      "chip": "ym2612"
    },
    {
      "channel": 1,
      "note": 71,
      "start": 47.7706,
      "duration": 0.0161,
      "velocity": 101,
      "chip": "ym2612"
    },
    {
      "channel": 0,
      "note": 41,
      "start": 47.7821,
      "duration": 0.0161,
      "velocity": 115,
      "chip": "ym2612"
    },
    {
      "channel": 4,
      "note": 63,
      "start": 47.7832,
      "duration": 0.0162,
      "velocity": 101,
      "chip": "ym2612"
    },
    {
      "channel": 3,
      "note": 66,
      "start": 47.7844,
      "duration": 0.0161,
      "velocity": 101,
      "chip": "ym2612"
    },
    {
      "channel": 1,
      "note": 71,
      "start": 47.7867,
      "duration": 0.0161,
      "velocity": 101,
      "chip": "ym2612"
    },
    {
      "channel": 0,
      "note": 41,
      "start": 47.7982,
      "duration": 0.0161,
      "velocity": 115,
      "chip": "ym2612"
    },
    {
      "channel": 4,
      "note": 63,
      "start": 47.7994,
      "duration": 0.0161,
      "velocity": 101,
      "chip": "ym2612"
    },
    {
      "channel": 3,
      "note": 66,
      "start": 47.8005,
      "duration": 0.0161,
      "velocity": 101,
      "chip": "ym2612"
    },
    {
      "channel": 1,
      "note": 71,
      "start": 47.8028,
      "duration": 0.0161,
      "velocity": 101,
      "chip": "ym2612"
    },
    {
      "channel": 0,
      "note": 42,
      "start": 47.8143,
      "duration": 0.0161,
      "velocity": 115,
      "chip": "ym2612"
    },
    {
      "channel": 4,
      "note": 63,
      "start": 47.8155,
      "duration": 0.0161,
      "velocity": 101,
      "chip": "ym2612"
    },
    {
      "channel": 3,
      "note": 66,
      "start": 47.8166,
      "duration": 0.0161,
      "velocity": 101,
      "chip": "ym2612"
    },
    {
      "channel": 1,
      "note": 71,
      "start": 47.8188,
      "duration": 0.0164,
      "velocity": 101,
      "chip": "ym2612"
    },
    {
      "channel": 0,
      "note": 42,
      "start": 47.8304,
      "duration": 0.0162,
      "velocity": 115,
      "chip": "ym2612"
    },
    {
      "channel": 4,
      "note": 63,
      "start": 47.8316,
      "duration": 0.0161,
      "velocity": 101,
      "chip": "ym2612"
    },
    {
      "channel": 3,
      "note": 66,
      "start": 47.8327,
      "duration": 0.0161,
      "velocity": 101,
      "chip": "ym2612"
    },
    {
      "channel": 2,
      "note": 59,
      "start": 47.8341,
      "duration": 0.0159,
      "velocity": 100,
      "chip": "ym2612"
    },
    {
      "channel": 1,
      "note": 71,
      "start": 47.8353,
      "duration": 0.0159,
      "velocity": 101,
      "chip": "ym2612"
    },
    {
      "channel": 0,
      "note": 43,
      "start": 47.8465,
      "duration": 0.0161,
      "velocity": 115,
      "chip": "ym2612"
    },
    {
      "channel": 4,
      "note": 63,
      "start": 47.8477,
      "duration": 0.0161,
      "velocity": 101,
      "chip": "ym2612"
    },
    {
      "channel": 3,
      "note": 66,
      "start": 47.8488,
      "duration": 0.0161,
      "velocity": 101,
      "chip": "ym2612"
    },
    {
      "channel": 2,
      "note": 59,
      "start": 47.85,
      "duration": 0.016,
      "velocity": 100,
      "chip": "ym2612"
    },
    {
      "channel": 1,
      "note": 71,
      "start": 47.8512,
      "duration": 0.016,
      "velocity": 101,
      "chip": "ym2612"
    },
    {
      "channel": 0,
      "note": 43,
      "start": 47.8626,
      "duration": 0.0161,
      "velocity": 115,
      "chip": "ym2612"
    },
    {
      "channel": 4,
      "note": 63,
      "start": 47.8638,
      "duration": 0.0161,
      "velocity": 101,
      "chip": "ym2612"
    },
    {
      "channel": 3,
      "note": 66,
      "start": 47.8649,
      "duration": 0.0161,
      "velocity": 101,
      "chip": "ym2612"
    },
    {
      "channel": 2,
      "note": 59,
      "start": 47.8661,
      "duration": 0.0161,
      "velocity": 100,
      "chip": "ym2612"
    },
    {
      "channel": 1,
      "note": 71,
      "start": 47.8672,
      "duration": 0.0161,
      "velocity": 101,
      "chip": "ym2612"
    },
    {
      "channel": 0,
      "note": 44,
      "start": 47.8787,
      "duration": 0.0171,
      "velocity": 115,
      "chip": "ym2612"
    },
    {
      "channel": 4,
      "note": 63,
      "start": 47.8799,
      "duration": 0.0171,
      "velocity": 101,
      "chip": "ym2612"
    },
    {
      "channel": 3,
      "note": 66,
      "start": 47.881,
      "duration": 0.0171,
      "velocity": 101,
      "chip": "ym2612"
    },
    {
      "channel": 2,
      "note": 59,
      "start": 47.8822,
      "duration": 0.0171,
      "velocity": 100,
      "chip": "ym2612"
    },
    {
      "channel": 1,
      "note": 71,
      "start": 47.8833,
      "duration": 0.0171,
      "velocity": 101,
      "chip": "ym2612"
    },
    {
      "channel": 0,
      "note": 44,
      "start": 47.8958,
      "duration": 0.0167,
      "velocity": 115,
      "chip": "ym2612"
    },
    {
      "channel": 4,
      "note": 63,
      "start": 47.897,
      "duration": 0.0167,
      "velocity": 101,
      "chip": "ym2612"
    },
    {
      "channel": 3,
      "note": 66,
      "start": 47.8981,
      "duration": 0.0167,
      "velocity": 101,
      "chip": "ym2612"
    },
    {
      "channel": 2,
      "note": 59,
      "start": 47.8993,
      "duration": 0.0167,
      "velocity": 100,
      "chip": "ym2612"
    },
    {
      "channel": 1,
      "note": 71,
      "start": 47.9004,
      "duration": 0.0167,
      "velocity": 101,
      "chip": "ym2612"
    },
    {
      "channel": 0,
      "note": 44,
      "start": 47.9125,
      "duration": 0.0163,
      "velocity": 115,
      "chip": "ym2612"
    },
    {
      "channel": 4,
      "note": 63,
      "start": 47.9136,
      "duration": 0.0163,
      "velocity": 101,
      "chip": "ym2612"
    },
    {
      "channel": 3,
      "note": 66,
      "start": 47.9148,
      "duration": 0.0163,
      "velocity": 101,
      "chip": "ym2612"
    },
    {
      "channel": 2,
      "note": 59,
      "start": 47.9159,
      "duration": 0.0163,
      "velocity": 100,
      "chip": "ym2612"
    },
    {
      "channel": 1,
      "note": 71,
      "start": 47.9171,
      "duration": 0.0163,
      "velocity": 101,
      "chip": "ym2612"
    },
    {
      "channel": 0,
      "note": 45,
      "start": 47.9288,
      "duration": 0.0146,
      "velocity": 115,
      "chip": "ym2612"
    },
    {
      "channel": 4,
      "note": 63,
      "start": 47.9299,
      "duration": 0.0146,
      "velocity": 101,
      "chip": "ym2612"
    },
    {
      "channel": 3,
      "note": 66,
      "start": 47.9311,
      "duration": 0.0146,
      "velocity": 101,
      "chip": "ym2612"
    },
    {
      "channel": 2,
      "note": 59,
      "start": 47.9322,
      "duration": 0.0146,
      "velocity": 100,
      "chip": "ym2612"
    },
    {
      "channel": 1,
      "note": 71,
      "start": 47.9334,
      "duration": 0.0146,
      "velocity": 101,
      "chip": "ym2612"
    },
    {
      "channel": 0,
      "note": 45,
      "start": 47.9434,
      "duration": 0.0186,
      "velocity": 115,
      "chip": "ym2612"
    },
    {
      "channel": 4,
      "note": 63,
      "start": 47.9446,
      "duration": 0.0186,
      "velocity": 101,
      "chip": "ym2612"
    },
    {
      "channel": 3,
      "note": 66,
      "start": 47.9457,
      "duration": 0.0186,
      "velocity": 101,
      "chip": "ym2612"
    },
    {
      "channel": 1,
      "note": 71,
      "start": 47.948,
      "duration": 0.0186,
      "velocity": 101,
      "chip": "ym2612"
    },
    {
      "channel": 0,
      "note": 46,
      "start": 47.962,
      "duration": 0.0161,
      "velocity": 115,
      "chip": "ym2612"
    },
    {
      "channel": 4,
      "note": 63,
      "start": 47.9631,
      "duration": 0.0161,
      "velocity": 101,
      "chip": "ym2612"
    },
    {
      "channel": 3,
      "note": 66,
      "start": 47.9643,
      "duration": 0.0161,
      "velocity": 101,
      "chip": "ym2612"
    },
    {
      "channel": 1,
      "note": 71,
      "start": 47.9666,
      "duration": 0.0161,
      "velocity": 101,
      "chip": "ym2612"
    },
    {
      "channel": 0,
      "note": 46,
      "start": 47.9781,
      "duration": 0.0157,
      "velocity": 115,
      "chip": "ym2612"
    },
    {
      "channel": 4,
      "note": 63,
      "start": 47.9792,
      "duration": 0.0157,
      "velocity": 101,
      "chip": "ym2612"
    },
    {
      "channel": 3,
      "note": 66,
      "start": 47.9804,
      "duration": 0.0157,
      "velocity": 101,
      "chip": "ym2612"
    },
    {
      "channel": 1,
      "note": 71,
      "start": 47.9827,
      "duration": 0.0157,
      "velocity": 101,
      "chip": "ym2612"
    },
    {
      "channel": 0,
      "note": 47,
      "start": 47.9938,
      "duration": 0.0137,
      "velocity": 115,
      "chip": "ym2612"
    },
    {
      "channel": 4,
      "note": 63,
      "start": 47.9949,
      "duration": 0.0141,
      "velocity": 101,
      "chip": "ym2612"
    },
    {
      "channel": 3,
      "note": 66,
      "start": 47.9961,
      "duration": 0.0141,
      "velocity": 101,
      "chip": "ym2612"
    },
    {
      "channel": 1,
      "note": 71,
      "start": 47.9984,
      "duration": 0.0141,
      "velocity": 101,
      "chip": "ym2612"
    },
    {
      "channel": 0,
      "note": 47,
      "start": 48.0075,
      "duration": 0.0161,
      "velocity": 115,
      "chip": "ym2612"
    },
    {
      "channel": 4,
      "note": 63,
      "start": 48.009,
      "duration": 0.0186,
      "velocity": 101,
      "chip": "ym2612"
    },
    {
      "channel": 3,
      "note": 66,
      "start": 48.0101,
      "duration": 0.0186,
      "velocity": 101,
      "chip": "ym2612"
    },
    {
      "channel": 1,
      "note": 71,
      "start": 48.0124,
      "duration": 0.0185,
      "velocity": 101,
      "chip": "ym2612"
    },
    {
      "channel": 0,
      "note": 47,
      "start": 48.0236,
      "duration": 0.0161,
      "velocity": 115,
      "chip": "ym2612"
    },
    {
      "channel": 4,
      "note": 63,
      "start": 48.0276,
      "duration": 0.0133,
      "velocity": 101,
      "chip": "ym2612"
    },
    {
      "channel": 3,
      "note": 66,
      "start": 48.0287,
      "duration": 0.0161,
      "velocity": 101,
      "chip": "ym2612"
    },
    {
      "channel": 1,
      "note": 71,
      "start": 48.0309,
      "duration": 0.0161,
      "velocity": 101,
      "chip": "ym2612"
    },
    {
      "channel": 0,
      "note": 48,
      "start": 48.0397,
      "duration": 0.0179,
      "velocity": 115,
      "chip": "ym2612"
    },
    {
      "channel": 4,
      "note": 63,
      "start": 48.0409,
      "duration": 0.0203,
      "velocity": 101,
      "chip": "ym2612"
    },
    {
      "channel": 3,
      "note": 66,
      "start": 48.0448,
      "duration": 0.0175,
      "velocity": 101,
      "chip": "ym2612"
    },
    {
      "channel": 1,
      "note": 71,
      "start": 48.047,
      "duration": 0.0178,
      "velocity": 101,
      "chip": "ym2612"
    },
    {
      "channel": 0,
      "note": 36,
      "start": 48.0576,
      "duration": 0.0144,
      "velocity": 115,
      "chip": "ym2612"
    },
    {
      "channel": 4,
      "note": 63,
      "start": 48.0612,
      "duration": 0.012,
      "velocity": 101,
      "chip": "ym2612"
    },
    {
      "channel": 3,
      "note": 66,
      "start": 48.0623,
      "duration": 0.012,
      "velocity": 101,
      "chip": "ym2612"
    },
    {
      "channel": 2,
      "note": 59,
      "start": 48.0637,
      "duration": 0.0121,
      "velocity": 100,
      "chip": "ym2612"
    },
    {
      "channel": 1,
      "note": 71,
      "start": 48.0649,
      "duration": 0.0121,
      "velocity": 101,
      "chip": "ym2612"
    },
    {
      "channel": 0,
      "note": 36,
      "start": 48.072,
      "duration": 0.016,
      "velocity": 115,
      "chip": "ym2612"
    },
    {
      "channel": 4,
      "note": 63,
      "start": 48.0731,
      "duration": 0.016,
      "velocity": 101,
      "chip": "ym2612"
    },
    {
      "channel": 3,
      "note": 66,
      "start": 48.0743,
      "duration": 0.016,
      "velocity": 101,
      "chip": "ym2612"
    },
    {
      "channel": 2,
      "note": 59,
      "start": 48.0758,
      "duration": 0.0184,
      "velocity": 100,
      "chip": "ym2612"
    },
    {
      "channel": 1,
      "note": 71,
      "start": 48.0769,
      "duration": 0.0184,
      "velocity": 101,
      "chip": "ym2612"
    },
    {
      "channel": 0,
      "note": 37,
      "start": 48.088,
      "duration": 0.0161,
      "velocity": 115,
      "chip": "ym2612"
    },
    {
      "channel": 4,
      "note": 63,
      "start": 48.0891,
      "duration": 0.0162,
      "velocity": 101,
      "chip": "ym2612"
    },
    {
      "channel": 3,
      "note": 66,
      "start": 48.0903,
      "duration": 0.0161,
      "velocity": 101,
      "chip": "ym2612"
    },
    {
      "channel": 2,
      "note": 59,
      "start": 48.0942,
      "duration": 0.0134,
      "velocity": 100,
      "chip": "ym2612"
    },
    {
      "channel": 1,
      "note": 71,
      "start": 48.0953,
      "duration": 0.0162,
      "velocity": 101,
      "chip": "ym2612"
    },
    {
      "channel": 0,
      "note": 37,
      "start": 48.1041,
      "duration": 0.0161,
      "velocity": 115,
      "chip": "ym2612"
    },
    {
      "channel": 4,
      "note": 63,
      "start": 48.1053,
      "duration": 0.0161,
      "velocity": 101,
      "chip": "ym2612"
    },
    {
      "channel": 3,
      "note": 66,
      "start": 48.1064,
      "duration": 0.0161,
      "velocity": 101,
      "chip": "ym2612"
    },
    {
      "channel": 2,
      "note": 59,
      "start": 48.1075,
      "duration": 0.0161,
      "velocity": 100,
      "chip": "ym2612"
    },
    {
      "channel": 1,
      "note": 71,
      "start": 48.1115,
      "duration": 0.0157,
      "velocity": 101,
      "chip": "ym2612"
    },
    {
      "channel": 0,
      "note": 38,
      "start": 48.1202,
      "duration": 0.0162,
      "velocity": 115,
      "chip": "ym2612"
    },
    {
      "channel": 4,
      "note": 63,
      "start": 48.1214,
      "duration": 0.0161,
      "velocity": 101,
      "chip": "ym2612"
    },
    {
      "channel": 3,
      "note": 66,
      "start": 48.1225,
      "duration": 0.0161,
      "velocity": 101,
      "chip": "ym2612"
    },
    {
      "channel": 2,
      "note": 59,
      "start": 48.1236,
      "duration": 0.0161,
      "velocity": 100,
      "chip": "ym2612"
    },
    {
      "channel": 1,
      "note": 71,
      "start": 48.1272,
      "duration": 0.0137,
      "velocity": 101,
      "chip": "ym2612"
    },
    {
      "channel": 0,
      "note": 38,
      "start": 48.1363,
      "duration": 0.0161,
      "velocity": 115,
      "chip": "ym2612"
    },
    {
      "channel": 4,
      "note": 63,
      "start": 48.1375,
      "duration": 0.0161,
      "velocity": 101,
      "chip": "ym2612"
    },
    {
      "channel": 3,
      "note": 66,
      "start": 48.1386,
      "duration": 0.0161,
      "velocity": 101,
      "chip": "ym2612"
    },
    {
      "channel": 2,
      "note": 59,
      "start": 48.1398,
      "duration": 0.0161,
      "velocity": 100,
      "chip": "ym2612"
    },
    {
      "channel": 1,
      "note": 71,
      "start": 48.1409,
      "duration": 0.0161,
      "velocity": 101,
      "chip": "ym2612"
    },
    {
      "channel": 0,
      "note": 39,
      "start": 48.1524,
      "duration": 0.0161,
      "velocity": 115,
      "chip": "ym2612"
    },
    {
      "channel": 4,
      "note": 63,
      "start": 48.1536,
      "duration": 0.0161,
      "velocity": 101,
      "chip": "ym2612"
    },
    {
      "channel": 3,
      "note": 66,
      "start": 48.1547,
      "duration": 0.0161,
      "velocity": 101,
      "chip": "ym2612"
    },
    {
      "channel": 2,
      "note": 59,
      "start": 48.1559,
      "duration": 0.0161,
      "velocity": 100,
      "chip": "ym2612"
    },
    {
      "channel": 1,
      "note": 71,
      "start": 48.157,
      "duration": 0.0161,
      "velocity": 101,
      "chip": "ym2612"
    },
    {
      "channel": 0,
      "note": 39,
      "start": 48.1685,
      "duration": 0.0161,
      "velocity": 115,
      "chip": "ym2612"
    },
    {
      "channel": 4,
      "note": 63,
      "start": 48.1697,
      "duration": 0.0161,
      "velocity": 101,
      "chip": "ym2612"
    },
    {
      "channel": 3,
      "note": 66,
      "start": 48.1708,
      "duration": 0.0161,
      "velocity": 101,
      "chip": "ym2612"
    },
    {
      "channel": 1,
      "note": 71,
      "start": 48.1731,
      "duration": 0.0161,
      "velocity": 101,
      "chip": "ym2612"
    },
    {
      "channel": 0,
      "note": 40,
      "start": 48.1846,
      "duration": 0.0161,
      "velocity": 115,
      "chip": "ym2612"
    },
    {
      "channel": 4,
      "note": 63,
      "start": 48.1858,
      "duration": 0.0161,
      "velocity": 101,
      "chip": "ym2612"
    },
    {
      "channel": 3,
      "note": 66,
      "start": 48.1869,
      "duration": 0.0161,
      "velocity": 101,
      "chip": "ym2612"
    },
    {
      "channel": 1,
      "note": 71,
      "start": 48.1892,
      "duration": 0.0161,
      "velocity": 101,
      "chip": "ym2612"
    },
    {
      "channel": 0,
      "note": 40,
      "start": 48.2007,
      "duration": 0.0161,
      "velocity": 115,
      "chip": "ym2612"
    },
    {
      "channel": 4,
      "note": 63,
      "start": 48.2019,
      "duration": 0.0161,
      "velocity": 101,
      "chip": "ym2612"
    },
    {
      "channel": 3,
      "note": 66,
      "start": 48.203,
      "duration": 0.0161,
      "velocity": 101,
      "chip": "ym2612"
    },
    {
      "channel": 1,
      "note": 71,
      "start": 48.2053,
      "duration": 0.0161,
      "velocity": 101,
      "chip": "ym2612"
    },
    {
      "channel": 0,
      "note": 40,
      "start": 48.2168,
      "duration": 0.0161,
      "velocity": 115,
      "chip": "ym2612"
    },
    {
      "channel": 4,
      "note": 63,
      "start": 48.218,
      "duration": 0.0162,
      "velocity": 101,
      "chip": "ym2612"
    },
    {
      "channel": 3,
      "note": 66,
      "start": 48.2191,
      "duration": 0.0161,
      "velocity": 101,
      "chip": "ym2612"
    },
    {
      "channel": 1,
      "note": 71,
      "start": 48.2214,
      "duration": 0.0161,
      "velocity": 101,
      "chip": "ym2612"
    },
    {
      "channel": 0,
      "note": 41,
      "start": 48.2329,
      "duration": 0.0161,
      "velocity": 115,
      "chip": "ym2612"
    },
    {
      "channel": 4,
      "note": 63,
      "start": 48.2341,
      "duration": 0.0161,
      "velocity": 101,
      "chip": "ym2612"
    },
    {
      "channel": 3,
      "note": 66,
      "start": 48.2353,
      "duration": 0.0161,
      "velocity": 101,
      "chip": "ym2612"
    },
    {
      "channel": 1,
      "note": 71,
      "start": 48.2375,
      "duration": 0.0161,
      "velocity": 101,
      "chip": "ym2612"
    },
    {
      "channel": 0,
      "note": 41,
      "start": 48.249,
      "duration": 0.0162,
      "velocity": 115,
      "chip": "ym2612"
    },
    {
      "channel": 4,
      "note": 63,
      "start": 48.2502,
      "duration": 0.0161,
      "velocity": 101,
      "chip": "ym2612"
    },
    {
      "channel": 3,
      "note": 66,
      "start": 48.2514,
      "duration": 0.0161,
      "velocity": 101,
      "chip": "ym2612"
    },
    {
      "channel": 1,
      "note": 71,
      "start": 48.2536,
      "duration": 0.0162,
      "velocity": 101,
      "chip": "ym2612"
    },
    {
      "channel": 0,
      "note": 42,
      "start": 48.2652,
      "duration": 0.0178,
      "velocity": 124,
      "chip": "ym2612"
    },
    {
      "channel": 4,
      "note": 63,
      "start": 48.2663,
      "duration": 0.0179,
      "velocity": 101,
      "chip": "ym2612"
    },
    {
      "channel": 3,
      "note": 66,
      "start": 48.2675,
      "duration": 0.0179,
      "velocity": 101,
      "chip": "ym2612"
    },
    {
      "channel": 1,
      "note": 71,
      "start": 48.2698,
      "duration": 0.0181,
      "velocity": 101,
      "chip": "ym2612"
    },
    {
      "channel": 0,
      "note": 84,
      "start": 48.283,
      "duration": 0.0144,
      "velocity": 124,
      "chip": "ym2612"
    },
    {
      "channel": 4,
      "note": 63,
      "start": 48.2842,
      "duration": 0.0144,
      "velocity": 101,
      "chip": "ym2612"
    },
    {
      "channel": 3,
      "note": 66,
      "start": 48.2853,
      "duration": 0.0144,
      "velocity": 101,
      "chip": "ym2612"
    },
    {
      "channel": 2,
      "note": 71,
      "start": 48.2867,
      "duration": 0.0142,
      "velocity": 100,
      "chip": "ym2612"
    },
    {
      "channel": 1,
      "note": 71,
      "start": 48.2879,
      "duration": 0.0142,
      "velocity": 101,
      "chip": "ym2612"
    },
    {
      "channel": 0,
      "note": 82,
      "start": 48.2974,
      "duration": 0.016,
      "velocity": 124,
      "chip": "ym2612"
    },
    {
      "channel": 4,
      "note": 63,
      "start": 48.2985,
      "duration": 0.016,
      "velocity": 101,
      "chip": "ym2612"
    },
    {
      "channel": 3,
      "note": 66,
      "start": 48.2997,
      "duration": 0.016,
      "velocity": 101,
      "chip": "ym2612"
    },
    {
      "channel": 2,
      "note": 71,
      "start": 48.3009,
      "duration": 0.016,
      "velocity": 100,
      "chip": "ym2612"
    },
    {
      "channel": 1,
      "note": 71,
      "start": 48.3021,
      "duration": 0.016,
      "velocity": 101,
      "chip": "ym2612"
    },
    {
      "channel": 0,
      "note": 80,
      "start": 48.3134,
      "duration": 0.0161,
      "velocity": 124,
      "chip": "ym2612"
    },
    {
      "channel": 4,
      "note": 63,
      "start": 48.3146,
      "duration": 0.0161,
      "velocity": 101,
      "chip": "ym2612"
    },
    {
      "channel": 3,
      "note": 66,
      "start": 48.3157,
      "duration": 0.0161,
      "velocity": 101,
      "chip": "ym2612"
    },
    {
      "channel": 2,
      "note": 71,
      "start": 48.3169,
      "duration": 0.0161,
      "velocity": 100,
      "chip": "ym2612"
    },
    {
      "channel": 1,
      "note": 71,
      "start": 48.318,
      "duration": 0.0161,
      "velocity": 101,
      "chip": "ym2612"
    },
    {
      "channel": 0,
      "note": 77,
      "start": 48.3295,
      "duration": 0.0161,
      "velocity": 124,
      "chip": "ym2612"
    },
    {
      "channel": 4,
      "note": 63,
      "start": 48.3307,
      "duration": 0.0161,
      "velocity": 101,
      "chip": "ym2612"
    },
    {
      "channel": 3,
      "note": 66,
      "start": 48.3318,
      "duration": 0.0161,
      "velocity": 101,
      "chip": "ym2612"
    },
    {
      "channel": 2,
      "note": 71,
      "start": 48.333,
      "duration": 0.0161,
      "velocity": 100,
      "chip": "ym2612"
    },
    {
      "channel": 1,
      "note": 71,
      "start": 48.3341,
      "duration": 0.0161,
      "velocity": 101,
      "chip": "ym2612"
    },
    {
      "channel": 0,
      "note": 75,
      "start": 48.3456,
      "duration": 0.0169,
      "velocity": 124,
      "chip": "ym2612"
    },
    {
      "channel": 4,
      "note": 63,
      "start": 48.3468,
      "duration": 0.0168,
      "velocity": 101,
      "chip": "ym2612"
    },
    {
      "channel": 3,
      "note": 66,
      "start": 48.3479,
      "duration": 0.0169,
      "velocity": 101,
      "chip": "ym2612"
    },
    {
      "channel": 2,
      "note": 71,
      "start": 48.3491,
      "duration": 0.0168,
      "velocity": 100,
      "chip": "ym2612"
    },
    {
      "channel": 1,
      "note": 71,
      "start": 48.3502,
      "duration": 0.0169,
      "velocity": 101,
      "chip": "ym2612"
    },
    {
      "channel": 0,
      "note": 72,
      "start": 48.3625,
      "duration": 0.0167,
      "velocity": 124,
      "chip": "ym2612"
    },
    {
      "channel": 4,
      "note": 63,
      "start": 48.3636,
      "duration": 0.0167,
      "velocity": 101,
      "chip": "ym2612"
    },
    {
      "channel": 3,
      "note": 66,
      "start": 48.3648,
      "duration": 0.0167,
      "velocity": 101,
      "chip": "ym2612"
    },
    {
      "channel": 2,
      "note": 71,
      "start": 48.3659,
      "duration": 0.0167,
      "velocity": 100,
      "chip": "ym2612"
    },
    {
      "channel": 1,
      "note": 71,
      "start": 48.3671,
      "duration": 0.0167,
      "velocity": 101,
      "chip": "ym2612"
    },
    {
      "channel": 0,
      "note": 70,
      "start": 48.3792,
      "duration": 0.0163,
      "velocity": 124,
      "chip": "ym2612"
    },
    {
      "channel": 4,
      "note": 63,
      "start": 48.3803,
      "duration": 0.0163,
      "velocity": 101,
      "chip": "ym2612"
    },
    {
      "channel": 3,
      "note": 66,
      "start": 48.3815,
      "duration": 0.0163,
      "velocity": 101,
      "chip": "ym2612"
    },
    {
      "channel": 2,
      "note": 71,
      "start": 48.3826,
      "duration": 0.0163,
      "velocity": 100,
      "chip": "ym2612"
    },
    {
      "channel": 1,
      "note": 71,
      "start": 48.3837,
      "duration": 0.0163,
      "velocity": 101,
      "chip": "ym2612"
    },
    {
      "channel": 0,
      "note": 68,
      "start": 48.3954,
      "duration": 0.0147,
      "velocity": 124,
      "chip": "ym2612"
    },
    {
      "channel": 4,
      "note": 63,
      "start": 48.3966,
      "duration": 0.0147,
      "velocity": 101,
      "chip": "ym2612"
    },
    {
      "channel": 3,
      "note": 66,
      "start": 48.3977,
      "duration": 0.0147,
      "velocity": 101,
      "chip": "ym2612"
    },
    {
      "channel": 1,
      "note": 71,
      "start": 48.4,
      "duration": 0.0147,
      "velocity": 101,
      "chip": "ym2612"
    },
    {
      "channel": 0,
      "note": 65,
      "start": 48.4101,
      "duration": 0.0188,
      "velocity": 124,
      "chip": "ym2612"
    },
    {
      "channel": 4,
      "note": 63,
      "start": 48.4113,
      "duration": 0.0188,
      "velocity": 101,
      "chip": "ym2612"
    },
    {
      "channel": 3,
      "note": 66,
      "start": 48.4124,
      "duration": 0.0188,
      "velocity": 101,
      "chip": "ym2612"
    },
    {
      "channel": 1,
      "note": 71,
      "start": 48.4147,
      "duration": 0.0188,
      "velocity": 101,
      "chip": "ym2612"
    },
    {
      "channel": 0,
      "note": 63,
      "start": 48.4289,
      "duration": 0.0153,
      "velocity": 1,
      "chip": "ym2612"
    },
    {
      "channel": 4,
      "note": 63,
      "start": 48.43,
      "duration": 0.0153,
      "velocity": 101,
      "chip": "ym2612"
    },
    {
      "channel": 3,
      "note": 66,
      "start": 48.4312,
      "duration": 0.0153,
      "velocity": 101,
      "chip": "ym2612"
    },
    {
      "channel": 1,
      "note": 71,
      "start": 48.4335,
      "duration": 0.0153,
      "velocity": 101,
      "chip": "ym2612"
    },
    {
      "channel": 4,
      "note": 63,
      "start": 48.4454,
      "duration": 0.0148,
      "velocity": 101,
      "chip": "ym2612"
    },
    {
      "channel": 3,
      "note": 66,
      "start": 48.4465,
      "duration": 0.0149,
      "velocity": 101,
      "chip": "ym2612"
    },
    {
      "channel": 1,
      "note": 71,
      "start": 48.4488,
      "duration": 0.0149,
      "velocity": 101,
      "chip": "ym2612"
    },
    {
      "channel": 4,
      "note": 63,
      "start": 48.4602,
      "duration": 0.0137,
      "velocity": 101,
      "chip": "ym2612"
    },
    {
      "channel": 3,
      "note": 66,
      "start": 48.4614,
      "duration": 0.014,
      "velocity": 101,
      "chip": "ym2612"
    },
    {
      "channel": 1,
      "note": 71,
      "start": 48.4636,
      "duration": 0.0141,
      "velocity": 101,
      "chip": "ym2612"
    },
    {
      "channel": 4,
      "note": 63,
      "start": 48.4739,
      "duration": 0.0161,
      "velocity": 101,
      "chip": "ym2612"
    },
    {
      "channel": 3,
      "note": 66,
      "start": 48.4754,
      "duration": 0.0186,
      "velocity": 101,
      "chip": "ym2612"
    },
    {
      "channel": 1,
      "note": 71,
      "start": 48.4777,
      "duration": 0.0185,
      "velocity": 101,
      "chip": "ym2612"
    },
    {
      "channel": 4,
      "note": 63,
      "start": 48.49,
      "duration": 0.0223,
      "velocity": 101,
      "chip": "ym2612"
    },
    {
      "channel": 3,
      "note": 66,
      "start": 48.494,
      "duration": 0.0195,
      "velocity": 101,
      "chip": "ym2612"
    },
    {
      "channel": 1,
      "note": 71,
      "start": 48.4962,
      "duration": 0.0198,
      "velocity": 101,
      "chip": "ym2612"
    },
    {
      "channel": 0,
      "note": 36,
      "start": 48.5112,
      "duration": 0.0116,
      "velocity": 115,
      "chip": "ym2612"
    },
    {
      "channel": 4,
      "note": 63,
      "start": 48.5124,
      "duration": 0.0116,
      "velocity": 101,
      "chip": "ym2612"
    },
    {
      "channel": 3,
      "note": 66,
      "start": 48.5135,
      "duration": 0.014,
      "velocity": 101,
      "chip": "ym2612"
    },
    {
      "channel": 2,
      "note": 59,
      "start": 48.5149,
      "duration": 0.0137,
      "velocity": 100,
      "chip": "ym2612"
    },
    {
      "channel": 1,
      "note": 71,
      "start": 48.5161,
      "duration": 0.0137,
      "velocity": 101,
      "chip": "ym2612"
    },
    {
      "channel": 0,
      "note": 36,
      "start": 48.5228,
      "duration": 0.016,
      "velocity": 115,
      "chip": "ym2612"
    },
    {
      "channel": 4,
      "note": 63,
      "start": 48.5239,
      "duration": 0.0161,
      "velocity": 101,
      "chip": "ym2612"
    },
    {
      "channel": 3,
      "note": 66,
      "start": 48.5275,
      "duration": 0.014,
      "velocity": 101,
      "chip": "ym2612"
    },
    {
      "channel": 2,
      "note": 59,
      "start": 48.5286,
      "duration": 0.014,
      "velocity": 100,
      "chip": "ym2612"
    },
    {
      "channel": 1,
      "note": 71,
      "start": 48.5298,
      "duration": 0.014,
      "velocity": 101,
      "chip": "ym2612"
    },
    {
      "channel": 0,
      "note": 37,
      "start": 48.5388,
      "duration": 0.0161,
      "velocity": 115,
      "chip": "ym2612"
    },
    {
      "channel": 4,
      "note": 63,
      "start": 48.54,
      "duration": 0.0161,
      "velocity": 101,
      "chip": "ym2612"
    },
    {
      "channel": 3,
      "note": 66,
      "start": 48.5415,
      "duration": 0.0158,
      "velocity": 101,
      "chip": "ym2612"
    },
    {
      "channel": 2,
      "note": 59,
      "start": 48.5427,
      "duration": 0.0185,
      "velocity": 100,
      "chip": "ym2612"
    },
    {
      "channel": 1,
      "note": 71,
      "start": 48.5438,
      "duration": 0.0185,
      "velocity": 101,
      "chip": "ym2612"
    },
    {
      "channel": 0,
      "note": 37,
      "start": 48.5549,
      "duration": 0.0161,
      "velocity": 115,
      "chip": "ym2612"
    },
    {
      "channel": 4,
      "note": 63,
      "start": 48.5561,
      "duration": 0.0161,
      "velocity": 101,
      "chip": "ym2612"
    },
    {
      "channel": 3,
      "note": 66,
      "start": 48.5573,
      "duration": 0.0161,
      "velocity": 101,
      "chip": "ym2612"
    },
    {
      "channel": 2,
      "note": 59,
      "start": 48.5612,
      "duration": 0.0161,
      "velocity": 100,
      "chip": "ym2612"
    },
    {
      "channel": 1,
      "note": 71,
      "start": 48.5623,
      "duration": 0.0161,
      "velocity": 101,
      "chip": "ym2612"
    },
    {
      "channel": 0,
      "note": 38,
      "start": 48.571,
      "duration": 0.0161,
      "velocity": 115,
      "chip": "ym2612"
    },
    {
      "channel": 4,
      "note": 63,
      "start": 48.5722,
      "duration": 0.0161,
      "velocity": 101,
      "chip": "ym2612"
    },
    {
      "channel": 3,
      "note": 66,
      "start": 48.5734,
      "duration": 0.0161,
      "velocity": 101,
      "chip": "ym2612"
    },
    {
      "channel": 2,
      "note": 59,
      "start": 48.5773,
      "duration": 0.0134,
      "velocity": 100,
      "chip": "ym2612"
    },
    {
      "channel": 1,
      "note": 71,
      "start": 48.5784,
      "duration": 0.0157,
      "velocity": 101,
      "chip": "ym2612"
    },
    {
      "channel": 0,
      "note": 38,
      "start": 48.5872,
      "duration": 0.0161,
      "velocity": 115,
      "chip": "ym2612"
    },
    {
      "channel": 4,
      "note": 63,
      "start": 48.5883,
      "duration": 0.0161,
      "velocity": 101,
      "chip": "ym2612"
    },
    {
      "channel": 3,
      "note": 66,
      "start": 48.5895,
      "duration": 0.0161,
      "velocity": 101,
      "chip": "ym2612"
    },
    {
      "channel": 2,
      "note": 59,
      "start": 48.5906,
      "duration": 0.0161,
      "velocity": 100,
      "chip": "ym2612"
    },
    {
      "channel": 1,
      "note": 71,
      "start": 48.5941,
      "duration": 0.0141,
      "velocity": 101,
      "chip": "ym2612"
    },
    {
      "channel": 0,
      "note": 39,
      "start": 48.6033,
      "duration": 0.0161,
      "velocity": 115,
      "chip": "ym2612"
    },
    {
      "channel": 4,
      "note": 63,
      "start": 48.6044,
      "duration": 0.0161,
      "velocity": 101,
      "chip": "ym2612"
    },
    {
      "channel": 3,
      "note": 66,
      "start": 48.6056,
      "duration": 0.0161,
      "velocity": 101,
      "chip": "ym2612"
    },
    {
      "channel": 2,
      "note": 59,
      "start": 48.6067,
      "duration": 0.0161,
      "velocity": 100,
      "chip": "ym2612"
    },
    {
      "channel": 1,
      "note": 71,
      "start": 48.6082,
      "duration": 0.0158,
      "velocity": 101,
      "chip": "ym2612"
    },
    {
      "channel": 0,
      "note": 39,
      "start": 48.6194,
      "duration": 0.0161,
      "velocity": 115,
      "chip": "ym2612"
    },
    {
      "channel": 4,
      "note": 63,
      "start": 48.6205,
      "duration": 0.0161,
      "velocity": 101,
      "chip": "ym2612"
    },
    {
      "channel": 3,
      "note": 66,
      "start": 48.6217,
      "duration": 0.0161,
      "velocity": 101,
      "chip": "ym2612"
    },
    {
      "channel": 1,
      "note": 71,
      "start": 48.6239,
      "duration": 0.0161,
      "velocity": 101,
      "chip": "ym2612"
    },
    {
      "channel": 0,
      "note": 40,
      "start": 48.6355,
      "duration": 0.0161,
      "velocity": 115,
      "chip": "ym2612"
    },
    {
      "channel": 4,
      "note": 63,
      "start": 48.6366,
      "duration": 0.0161,
      "velocity": 101,
      "chip": "ym2612"
    },
    {
      "channel": 3,
      "note": 66,
      "start": 48.6378,
      "duration": 0.0161,
      "velocity": 101,
      "chip": "ym2612"
    },
    {
      "channel": 1,
      "note": 71,
      "start": 48.64,
      "duration": 0.0161,
      "velocity": 101,
      "chip": "ym2612"
    },
    {
      "channel": 0,
      "note": 40,
      "start": 48.6515,
      "duration": 0.0161,
      "velocity": 115,
      "chip": "ym2612"
    },
    {
      "channel": 4,
      "note": 63,
      "start": 48.6527,
      "duration": 0.0161,
      "velocity": 101,
      "chip": "ym2612"
    },
    {
      "channel": 3,
      "note": 66,
      "start": 48.6538,
      "duration": 0.0161,
      "velocity": 101,
      "chip": "ym2612"
    },
    {
      "channel": 1,
      "note": 71,
      "start": 48.6561,
      "duration": 0.0161,
      "velocity": 101,
      "chip": "ym2612"
    },
    {
      "channel": 0,
      "note": 40,
      "start": 48.6676,
      "duration": 0.0161,
      "velocity": 115,
      "chip": "ym2612"
    },
    {
      "channel": 4,
      "note": 63,
      "start": 48.6688,
      "duration": 0.0161,
      "velocity": 101,
      "chip": "ym2612"
    },
    {
      "channel": 3,
      "note": 66,
      "start": 48.6699,
      "duration": 0.0162,
      "velocity": 101,
      "chip": "ym2612"
    },
    {
      "channel": 1,
      "note": 71,
      "start": 48.6722,
      "duration": 0.0161,
      "velocity": 101,
      "chip": "ym2612"
    },
    {
      "channel": 0,
      "note": 41,
      "start": 48.6837,
      "duration": 0.0161,
      "velocity": 115,
      "chip": "ym2612"
    },
    {
      "channel": 4,
      "note": 63,
      "start": 48.6849,
      "duration": 0.0161,
      "velocity": 101,
      "chip": "ym2612"
    },
    {
      "channel": 3,
      "note": 66,
      "start": 48.6861,
      "duration": 0.0161,
      "velocity": 101,
      "chip": "ym2612"
    },
    {
      "channel": 1,
      "note": 71,
      "start": 48.6883,
      "duration": 0.0161,
      "velocity": 101,
      "chip": "ym2612"
    },
    {
      "channel": 0,
      "note": 41,
      "start": 48.6998,
      "duration": 0.0161,
      "velocity": 115,
      "chip": "ym2612"
    },
    {
      "channel": 4,
      "note": 63,
      "start": 48.701,
      "duration": 0.0161,
      "velocity": 101,
      "chip": "ym2612"
    },
    {
      "channel": 3,
      "note": 66,
      "start": 48.7022,
      "duration": 0.0161,
      "velocity": 101,
      "chip": "ym2612"
    },
    {
      "channel": 1,
      "note": 71,
      "start": 48.7044,
      "duration": 0.0161,
      "velocity": 101,
      "chip": "ym2612"
    },
    {
      "channel": 0,
      "note": 42,
      "start": 48.7159,
      "duration": 0.0179,
      "velocity": 115,
      "chip": "ym2612"
    },
    {
      "channel": 4,
      "note": 63,
      "start": 48.7171,
      "duration": 0.0181,
      "velocity": 101,
      "chip": "ym2612"
    },
    {
      "channel": 3,
      "note": 66,
      "start": 48.7183,
      "duration": 0.0184,
      "velocity": 101,
      "chip": "ym2612"
    },
    {
      "channel": 1,
      "note": 71,
      "start": 48.7205,
      "duration": 0.019,
      "velocity": 101,
      "chip": "ym2612"
    },
    {
      "channel": 0,
      "note": 36,
      "start": 48.7339,
      "duration": 0.0144,
      "velocity": 115,
      "chip": "ym2612"
    },
    {
      "channel": 4,
      "note": 56,
      "start": 48.7353,
      "duration": 0.0142,
      "velocity": 101,
      "chip": "ym2612"
    },
    {
      "channel": 3,
      "note": 59,
      "start": 48.7367,
      "duration": 0.0139,
      "velocity": 101,
      "chip": "ym2612"
    },
    {
      "channel": 2,
      "note": 61,
      "start": 48.7381,
      "duration": 0.0137,
      "velocity": 100,
      "chip": "ym2612"
    },
    {
      "channel": 1,
      "note": 64,
      "start": 48.7395,
      "duration": 0.0135,
      "velocity": 101,
      "chip": "ym2612"
    },
    {
      "channel": 0,
      "note": 36,
      "start": 48.7482,
      "duration": 0.016,
      "velocity": 115,
      "chip": "ym2612"
    },
    {
      "channel": 4,
      "note": 56,
      "start": 48.7495,
      "duration": 0.016,
      "velocity": 101,
      "chip": "ym2612"
    },
    {
      "channel": 3,
      "note": 59,
      "start": 48.7507,
      "duration": 0.0159,
      "velocity": 101,
      "chip": "ym2612"
    },
    {
      "channel": 2,
      "note": 61,
      "start": 48.7518,
      "duration": 0.0159,
      "velocity": 100,
      "chip": "ym2612"
    },
    {
      "channel": 1,
      "note": 64,
      "start": 48.753,
      "duration": 0.0158,
      "velocity": 101,
      "chip": "ym2612"
    },
    {
      "channel": 0,
      "note": 37,
      "start": 48.7643,
      "duration": 0.0161,
      "velocity": 115,
      "chip": "ym2612"
    },
    {
      "channel": 4,
      "note": 56,
      "start": 48.7654,
      "duration": 0.0161,
      "velocity": 101,
      "chip": "ym2612"
    },
    {
      "channel": 3,
      "note": 59,
      "start": 48.7666,
      "duration": 0.0161,
      "velocity": 101,
      "chip": "ym2612"
    },
    {
      "channel": 2,
      "note": 61,
      "start": 48.7677,
      "duration": 0.0161,
      "velocity": 100,
      "chip": "ym2612"
    },
    {
      "channel": 1,
      "note": 64,
      "start": 48.7688,
      "duration": 0.0161,
      "velocity": 101,
      "chip": "ym2612"
    },
    {
      "channel": 0,
      "note": 37,
      "start": 48.7804,
      "duration": 0.0161,
      "velocity": 115,
      "chip": "ym2612"
    },
    {
      "channel": 4,
      "note": 56,
      "start": 48.7815,
      "duration": 0.0161,
      "velocity": 101,
      "chip": "ym2612"
    },
    {
      "channel": 3,
      "note": 59,
      "start": 48.7827,
      "duration": 0.0161,
      "velocity": 101,
      "chip": "ym2612"
    },
    {
      "channel": 2,
      "note": 61,
      "start": 48.7838,
      "duration": 0.0161,
      "velocity": 100,
      "chip": "ym2612"
    },
    {
      "channel": 1,
      "note": 64,
      "start": 48.7849,
      "duration": 0.0161,
      "velocity": 101,
      "chip": "ym2612"
    },
    {
      "channel": 0,
      "note": 38,
      "start": 48.7965,
      "duration": 0.0161,
      "velocity": 115,
      "chip": "ym2612"
    },
    {
      "channel": 4,
      "note": 56,
      "start": 48.7976,
      "duration": 0.0162,
      "velocity": 101,
      "chip": "ym2612"
    },
    {
      "channel": 3,
      "note": 59,
      "start": 48.7988,
      "duration": 0.0161,
      "velocity": 101,
      "chip": "ym2612"
    },
    {
      "channel": 2,
      "note": 61,
      "start": 48.7999,
      "duration": 0.0161,
      "velocity": 100,
      "chip": "ym2612"
    },
    {
      "channel": 1,
      "note": 64,
      "start": 48.801,
      "duration": 0.0161,
      "velocity": 101,
      "chip": "ym2612"
    },
    {
      "channel": 0,
      "note": 38,
      "start": 48.8126,
      "duration": 0.0165,
      "velocity": 115,
      "chip": "ym2612"
    },
    {
      "channel": 4,
      "note": 56,
      "start": 48.8138,
      "duration": 0.0165,
      "velocity": 101,
      "chip": "ym2612"
    },
    {
      "channel": 3,
      "note": 59,
      "start": 48.8149,
      "duration": 0.0166,
      "velocity": 101,
      "chip": "ym2612"
    },
    {
      "channel": 2,
      "note": 61,
      "start": 48.816,
      "duration": 0.0166,
      "velocity": 100,
      "chip": "ym2612"
    },
    {
      "channel": 1,
      "note": 64,
      "start": 48.8171,
      "duration": 0.0166,
      "velocity": 101,
      "chip": "ym2612"
    },
    {
      "channel": 0,
      "note": 39,
      "start": 48.8291,
      "duration": 0.0167,
      "velocity": 115,
      "chip": "ym2612"
    },
    {
      "channel": 4,
      "note": 56,
      "start": 48.8303,
      "duration": 0.0167,
      "velocity": 101,
      "chip": "ym2612"
    },
    {
      "channel": 3,
      "note": 59,
      "start": 48.8315,
      "duration": 0.0167,
      "velocity": 101,
      "chip": "ym2612"
    },
    {
      "channel": 2,
      "note": 61,
      "start": 48.8326,
      "duration": 0.0167,
      "velocity": 100,
      "chip": "ym2612"
    },
    {
      "channel": 1,
      "note": 64,
      "start": 48.8337,
      "duration": 0.0167,
      "velocity": 101,
      "chip": "ym2612"
    },
    {
      "channel": 0,
      "note": 39,
      "start": 48.8458,
      "duration": 0.0163,
      "velocity": 115,
      "chip": "ym2612"
    },
    {
      "channel": 4,
      "note": 56,
      "start": 48.847,
      "duration": 0.0163,
      "velocity": 101,
      "chip": "ym2612"
    },
    {
      "channel": 3,
      "note": 59,
      "start": 48.8481,
      "duration": 0.0163,
      "velocity": 101,
      "chip": "ym2612"
    },
    {
      "channel": 1,
      "note": 64,
      "start": 48.8504,
      "duration": 0.0163,
      "velocity": 101,
      "chip": "ym2612"
    },
    {
      "channel": 0,
      "note": 40,
      "start": 48.8621,
      "duration": 0.0149,
      "velocity": 115,
      "chip": "ym2612"
    },
    {
      "channel": 4,
      "note": 56,
      "start": 48.8632,
      "duration": 0.0149,
      "velocity": 101,
      "chip": "ym2612"
    },
    {
      "channel": 3,
      "note": 59,
      "start": 48.8644,
      "duration": 0.0149,
      "velocity": 101,
      "chip": "ym2612"
    },
    {
      "channel": 1,
      "note": 64,
      "start": 48.8667,
      "duration": 0.0149,
      "velocity": 101,
      "chip": "ym2612"
    },
    {
      "channel": 0,
      "note": 40,
      "start": 48.877,
      "duration": 0.0188,
      "velocity": 115,
      "chip": "ym2612"
    },
    {
      "channel": 4,
      "note": 56,
      "start": 48.8781,
      "duration": 0.0188,
      "velocity": 101,
      "chip": "ym2612"
    },
    {
      "channel": 3,
      "note": 59,
      "start": 48.8793,
      "duration": 0.0188,
      "velocity": 101,
      "chip": "ym2612"
    },
    {
      "channel": 1,
      "note": 64,
      "start": 48.8816,
      "duration": 0.0188,
      "velocity": 101,
      "chip": "ym2612"
    },
    {
      "channel": 0,
      "note": 40,
      "start": 48.8958,
      "duration": 0.0161,
      "velocity": 115,
      "chip": "ym2612"
    },
    {
      "channel": 4,
      "note": 56,
      "start": 48.897,
      "duration": 0.0161,
      "velocity": 101,
      "chip": "ym2612"
    },
    {
      "channel": 3,
      "note": 59,
      "start": 48.8981,
      "duration": 0.0161,
      "velocity": 101,
      "chip": "ym2612"
    },
    {
      "channel": 1,
      "note": 64,
      "start": 48.9004,
      "duration": 0.0161,
      "velocity": 101,
      "chip": "ym2612"
    },
    {
      "channel": 0,
      "note": 41,
      "start": 48.9119,
      "duration": 0.0157,
      "velocity": 115,
      "chip": "ym2612"
    },
    {
      "channel": 4,
      "note": 56,
      "start": 48.9131,
      "duration": 0.0158,
      "velocity": 101,
      "chip": "ym2612"
    },
    {
      "channel": 3,
      "note": 59,
      "start": 48.9142,
      "duration": 0.0158,
      "velocity": 101,
      "chip": "ym2612"
    },
    {
      "channel": 1,
      "note": 64,
      "start": 48.9165,
      "duration": 0.0158,
      "velocity": 101,
      "chip": "ym2612"
    },
    {
      "channel": 0,
      "note": 41,
      "start": 48.9276,
      "duration": 0.0141,
      "velocity": 115,
      "chip": "ym2612"
    },
    {
      "channel": 4,
      "note": 56,
      "start": 48.9288,
      "duration": 0.0141,
      "velocity": 101,
      "chip": "ym2612"
    },
    {
      "channel": 3,
      "note": 59,
      "start": 48.93,
      "duration": 0.0141,
      "velocity": 101,
      "chip": "ym2612"
    },
    {
      "channel": 1,
      "note": 64,
      "start": 48.9323,
      "duration": 0.014,
      "velocity": 101,
      "chip": "ym2612"
    },
    {
      "channel": 0,
      "note": 42,
      "start": 48.9417,
      "duration": 0.0158,
      "velocity": 115,
      "chip": "ym2612"
    },
    {
      "channel": 4,
      "note": 56,
      "start": 48.9429,
      "duration": 0.0185,
      "velocity": 101,
      "chip": "ym2612"
    },
    {
      "channel": 3,
      "note": 59,
      "start": 48.944,
      "duration": 0.0185,
      "velocity": 101,
      "chip": "ym2612"
    },
    {
      "channel": 1,
      "note": 64,
      "start": 48.9463,
      "duration": 0.0188,
      "velocity": 101,
      "chip": "ym2612"
    },
    {
      "channel": 0,
      "note": 42,
      "start": 48.9575,
      "duration": 0.0161,
      "velocity": 115,
      "chip": "ym2612"
    },
    {
      "channel": 4,
      "note": 56,
      "start": 48.9614,
      "duration": 0.0161,
      "velocity": 101,
      "chip": "ym2612"
    },
    {
      "channel": 3,
      "note": 59,
      "start": 48.9626,
      "duration": 0.0161,
      "velocity": 101,
      "chip": "ym2612"
    },
    {
      "channel": 2,
      "note": 61,
      "start": 48.9639,
      "duration": 0.0159,
      "velocity": 100,
      "chip": "ym2612"
    },
    {
      "channel": 1,
      "note": 64,
      "start": 48.965,
      "duration": 0.0159,
      "velocity": 101,
      "chip": "ym2612"
    },
    {
      "channel": 0,
      "note": 43,
      "start": 48.9736,
      "duration": 0.0161,
      "velocity": 115,
      "chip": "ym2612"
    },
    {
      "channel": 4,
      "note": 56,
      "start": 48.9775,
      "duration": 0.0134,
      "velocity": 101,
      "chip": "ym2612"
    },
    {
      "channel": 3,
      "note": 59,
      "start": 48.9786,
      "duration": 0.0157,
      "velocity": 101,
      "chip": "ym2612"
    },
    {
      "channel": 2,
      "note": 61,
      "start": 48.9798,
      "duration": 0.0157,
      "velocity": 100,
      "chip": "ym2612"
    },
    {
      "channel": 1,
      "note": 64,
      "start": 48.9809,
      "duration": 0.0157,
      "velocity": 101,
      "chip": "ym2612"
    },
    {
      "channel": 0,
      "note": 43,
      "start": 48.9897,
      "duration": 0.0161,
      "velocity": 115,
      "chip": "ym2612"
    },
    {
      "channel": 4,
      "note": 56,
      "start": 48.9909,
      "duration": 0.0161,
      "velocity": 101,
      "chip": "ym2612"
    },
    {
      "channel": 3,
      "note": 59,
      "start": 48.9944,
      "duration": 0.0141,
      "velocity": 101,
      "chip": "ym2612"
    },
    {
      "channel": 2,
      "note": 61,
      "start": 48.9955,
      "duration": 0.014,
      "velocity": 100,
      "chip": "ym2612"
    },
    {
      "channel": 1,
      "note": 64,
      "start": 48.9966,
      "duration": 0.014,
      "velocity": 101,
      "chip": "ym2612"
    },
    {
      "channel": 0,
      "note": 44,
      "start": 49.0057,
      "duration": 0.0162,
      "velocity": 115,
      "chip": "ym2612"
    },
    {
      "channel": 4,
      "note": 56,
      "start": 49.007,
      "duration": 0.0161,
      "velocity": 101,
      "chip": "ym2612"
    },
    {
      "channel": 3,
      "note": 59,
      "start": 49.0084,
      "duration": 0.0158,
      "velocity": 101,
      "chip": "ym2612"
    },
    {
      "channel": 2,
      "note": 61,
      "start": 49.0095,
      "duration": 0.0186,
      "velocity": 100,
      "chip": "ym2612"
    },
    {
      "channel": 1,
      "note": 64,
      "start": 49.0106,
      "duration": 0.0186,
      "velocity": 101,
      "chip": "ym2612"
    },
    {
      "channel": 0,
      "note": 44,
      "start": 49.0219,
      "duration": 0.0161,
      "velocity": 115,
      "chip": "ym2612"
    },
    {
      "channel": 4,
      "note": 56,
      "start": 49.0231,
      "duration": 0.0161,
      "velocity": 101,
      "chip": "ym2612"
    },
    {
      "channel": 3,
      "note": 59,
      "start": 49.0242,
      "duration": 0.0161,
      "velocity": 101,
      "chip": "ym2612"
    },
    {
      "channel": 2,
      "note": 61,
      "start": 49.0281,
      "duration": 0.0161,
      "velocity": 100,
      "chip": "ym2612"
    },
    {
      "channel": 1,
      "note": 64,
      "start": 49.0292,
      "duration": 0.0161,
      "velocity": 101,
      "chip": "ym2612"
    },
    {
      "channel": 0,
      "note": 44,
      "start": 49.038,
      "duration": 0.0161,
      "velocity": 115,
      "chip": "ym2612"
    },
    {
      "channel": 4,
      "note": 56,
      "start": 49.0391,
      "duration": 0.0161,
      "velocity": 101,
      "chip": "ym2612"
    },
    {
      "channel": 3,
      "note": 59,
      "start": 49.0403,
      "duration": 0.0161,
      "velocity": 101,
      "chip": "ym2612"
    },
    {
      "channel": 2,
      "note": 61,
      "start": 49.0442,
      "duration": 0.0134,
      "velocity": 100,
      "chip": "ym2612"
    },
    {
      "channel": 1,
      "note": 64,
      "start": 49.0453,
      "duration": 0.0157,
      "velocity": 101,
      "chip": "ym2612"
    },
    {
      "channel": 0,
      "note": 45,
      "start": 49.0541,
      "duration": 0.0161,
      "velocity": 115,
      "chip": "ym2612"
    },
    {
      "channel": 4,
      "note": 56,
      "start": 49.0552,
      "duration": 0.0161,
      "velocity": 101,
      "chip": "ym2612"
    },
    {
      "channel": 3,
      "note": 59,
      "start": 49.0564,
      "duration": 0.0161,
      "velocity": 101,
      "chip": "ym2612"
    },
    {
      "channel": 2,
      "note": 61,
      "start": 49.0575,
      "duration": 0.0161,
      "velocity": 100,
      "chip": "ym2612"
    },
    {
      "channel": 1,
      "note": 64,
      "start": 49.061,
      "duration": 0.0141,
      "velocity": 101,
      "chip": "ym2612"
    },
    {
      "channel": 0,
      "note": 45,
      "start": 49.0702,
      "duration": 0.0161,
      "velocity": 115,
      "chip": "ym2612"
    },
    {
      "channel": 4,
      "note": 56,
      "start": 49.0713,
      "duration": 0.0161,
      "velocity": 101,
      "chip": "ym2612"
    },
    {
      "channel": 3,
      "note": 59,
      "start": 49.0725,
      "duration": 0.0161,
      "velocity": 101,
      "chip": "ym2612"
    },
    {
      "channel": 1,
      "note": 64,
      "start": 49.0751,
      "duration": 0.0158,
      "velocity": 101,
      "chip": "ym2612"
    },
    {
      "channel": 0,
      "note": 46,
      "start": 49.0863,
      "duration": 0.0161,
      "velocity": 115,
      "chip": "ym2612"
    },
    {
      "channel": 4,
      "note": 56,
      "start": 49.0874,
      "duration": 0.0161,
      "velocity": 101,
      "chip": "ym2612"
    },
    {
      "channel": 3,
      "note": 59,
      "start": 49.0886,
      "duration": 0.0161,
      "velocity": 101,
      "chip": "ym2612"
    },
    {
      "channel": 1,
      "note": 64,
      "start": 49.0909,
      "duration": 0.0161,
      "velocity": 101,
      "chip": "ym2612"
    },
    {
      "channel": 0,
      "note": 46,
      "start": 49.1024,
      "duration": 0.0161,
      "velocity": 115,
      "chip": "ym2612"
    },
    {
      "channel": 4,
      "note": 56,
      "start": 49.1035,
      "duration": 0.0162,
      "velocity": 101,
      "chip": "ym2612"
    },
    {
      "channel": 3,
      "note": 59,
      "start": 49.1047,
      "duration": 0.0161,
      "velocity": 101,
      "chip": "ym2612"
    },
    {
      "channel": 1,
      "note": 64,
      "start": 49.107,
      "duration": 0.0161,
      "velocity": 101,
      "chip": "ym2612"
    },
    {
      "channel": 0,
      "note": 47,
      "start": 49.1185,
      "duration": 0.0161,
      "velocity": 115,
      "chip": "ym2612"
    },
    {
      "channel": 4,
      "note": 56,
      "start": 49.1197,
      "duration": 0.0161,
      "velocity": 101,
      "chip": "ym2612"
    },
    {
      "channel": 3,
      "note": 59,
      "start": 49.1208,
      "duration": 0.0161,
      "velocity": 101,
      "chip": "ym2612"
    },
    {
      "channel": 1,
      "note": 64,
      "start": 49.1231,
      "duration": 0.0161,
      "velocity": 101,
      "chip": "ym2612"
    },
    {
      "channel": 0,
      "note": 47,
      "start": 49.1346,
      "duration": 0.0161,
      "velocity": 115,
      "chip": "ym2612"
    },
    {
      "channel": 4,
      "note": 56,
      "start": 49.1358,
      "duration": 0.0161,
      "velocity": 101,
      "chip": "ym2612"
    },
    {
      "channel": 3,
      "note": 59,
      "start": 49.1369,
      "duration": 0.0161,
      "velocity": 101,
      "chip": "ym2612"
    },
    {
      "channel": 1,
      "note": 64,
      "start": 49.1391,
      "duration": 0.0161,
      "velocity": 101,
      "chip": "ym2612"
    },
    {
      "channel": 0,
      "note": 47,
      "start": 49.1507,
      "duration": 0.0162,
      "velocity": 115,
      "chip": "ym2612"
    },
    {
      "channel": 4,
      "note": 56,
      "start": 49.1519,
      "duration": 0.0161,
      "velocity": 101,
      "chip": "ym2612"
    },
    {
      "channel": 3,
      "note": 59,
      "start": 49.153,
      "duration": 0.0161,
      "velocity": 101,
      "chip": "ym2612"
    },
    {
      "channel": 1,
      "note": 64,
      "start": 49.1552,
      "duration": 0.0162,
      "velocity": 101,
      "chip": "ym2612"
    },
    {
      "channel": 0,
      "note": 48,
      "start": 49.1668,
      "duration": 0.0178,
      "velocity": 124,
      "chip": "ym2612"
    },
    {
      "channel": 4,
      "note": 56,
      "start": 49.168,
      "duration": 0.0179,
      "velocity": 101,
      "chip": "ym2612"
    },
    {
      "channel": 3,
      "note": 59,
      "start": 49.1691,
      "duration": 0.0179,
      "velocity": 101,
      "chip": "ym2612"
    },
    {
      "channel": 1,
      "note": 64,
      "start": 49.1714,
      "duration": 0.0181,
      "velocity": 101,
      "chip": "ym2612"
    },
    {
      "channel": 0,
      "note": 84,
      "start": 49.1847,
      "duration": 0.0144,
      "velocity": 124,
      "chip": "ym2612"
    },
    {
      "channel": 4,
      "note": 56,
      "start": 49.1858,
      "duration": 0.0144,
      "velocity": 101,
      "chip": "ym2612"
    },
    {
      "channel": 3,
      "note": 59,
      "start": 49.187,
      "duration": 0.0144,
      "velocity": 101,
      "chip": "ym2612"
    },
    {
      "channel": 2,
      "note": 73,
      "start": 49.1884,
      "duration": 0.0142,
      "velocity": 100,
      "chip": "ym2612"
    },
    {
      "channel": 1,
      "note": 64,
      "start": 49.1895,
      "duration": 0.0142,
      "velocity": 101,
      "chip": "ym2612"
    },
    {
      "channel": 0,
      "note": 82,
      "start": 49.1991,
      "duration": 0.016,
      "velocity": 124,
      "chip": "ym2612"
    },
    {
      "channel": 4,
      "note": 56,
      "start": 49.2002,
      "duration": 0.016,
      "velocity": 101,
      "chip": "ym2612"
    },
    {
      "channel": 3,
      "note": 59,
      "start": 49.2014,
      "duration": 0.016,
      "velocity": 101,
      "chip": "ym2612"
    },
    {
      "channel": 2,
      "note": 73,
      "start": 49.2026,
      "duration": 0.016,
      "velocity": 100,
      "chip": "ym2612"
    },
    {
      "channel": 1,
      "note": 64,
      "start": 49.2037,
      "duration": 0.016,
      "velocity": 101,
      "chip": "ym2612"
    },
    {
      "channel": 0,
      "note": 80,
      "start": 49.2151,
      "duration": 0.0161,
      "velocity": 124,
      "chip": "ym2612"
    },
    {
      "channel": 4,
      "note": 56,
      "start": 49.2162,
      "duration": 0.0161,
      "velocity": 101,
      "chip": "ym2612"
    },
    {
      "channel": 3,
      "note": 59,
      "start": 49.2174,
      "duration": 0.0161,
      "velocity": 101,
      "chip": "ym2612"
    },
    {
      "channel": 2,
      "note": 73,
      "start": 49.2185,
      "duration": 0.0161,
      "velocity": 100,
      "chip": "ym2612"
    },
    {
      "channel": 1,
      "note": 64,
      "start": 49.2197,
      "duration": 0.0161,
      "velocity": 101,
      "chip": "ym2612"
    },
    {
      "channel": 0,
      "note": 77,
      "start": 49.2312,
      "duration": 0.0161,
      "velocity": 124,
      "chip": "ym2612"
    },
    {
      "channel": 4,
      "note": 56,
      "start": 49.2323,
      "duration": 0.0162,
      "velocity": 101,
      "chip": "ym2612"
    },
    {
      "channel": 3,
      "note": 59,
      "start": 49.2335,
      "duration": 0.0161,
      "velocity": 101,
      "chip": "ym2612"
    },
    {
      "channel": 2,
      "note": 73,
      "start": 49.2346,
      "duration": 0.0161,
      "velocity": 100,
      "chip": "ym2612"
    },
    {
      "channel": 1,
      "note": 64,
      "start": 49.2358,
      "duration": 0.0161,
      "velocity": 101,
      "chip": "ym2612"
    },
    {
      "channel": 0,
      "note": 75,
      "start": 49.2473,
      "duration": 0.0161,
      "velocity": 124,
      "chip": "ym2612"
    },
    {
      "channel": 4,
      "note": 56,
      "start": 49.2485,
      "duration": 0.0161,
      "velocity": 101,
      "chip": "ym2612"
    },
    {
      "channel": 3,
      "note": 59,
      "start": 49.2496,
      "duration": 0.0161,
      "velocity": 101,
      "chip": "ym2612"
    },
    {
      "channel": 2,
      "note": 73,
      "start": 49.2507,
      "duration": 0.0161,
      "velocity": 100,
      "chip": "ym2612"
    },
    {
      "channel": 1,
      "note": 64,
      "start": 49.2519,
      "duration": 0.0161,
      "velocity": 101,
      "chip": "ym2612"
    },
    {
      "channel": 0,
      "note": 72,
      "start": 49.2634,
      "duration": 0.0161,
      "velocity": 124,
      "chip": "ym2612"
    },
    {
      "channel": 4,
      "note": 56,
      "start": 49.2646,
      "duration": 0.0161,
      "velocity": 101,
      "chip": "ym2612"
    },
    {
      "channel": 3,
      "note": 59,
      "start": 49.2657,
      "duration": 0.0161,
      "velocity": 101,
      "chip": "ym2612"
    },
    {
      "channel": 2,
      "note": 73,
      "start": 49.2668,
      "duration": 0.0161,
      "velocity": 100,
      "chip": "ym2612"
    },
    {
      "channel": 1,
      "note": 64,
      "start": 49.268,
      "duration": 0.0161,
      "velocity": 101,
      "chip": "ym2612"
    },
    {
      "channel": 0,
      "note": 70,
      "start": 49.2795,
      "duration": 0.0163,
      "velocity": 124,
      "chip": "ym2612"
    },
    {
      "channel": 4,
      "note": 56,
      "start": 49.2807,
      "duration": 0.0163,
      "velocity": 101,
      "chip": "ym2612"
    },
    {
      "channel": 3,
      "note": 59,
      "start": 49.2818,
      "duration": 0.0163,
      "velocity": 101,
      "chip": "ym2612"
    },
    {
      "channel": 2,
      "note": 73,
      "start": 49.2829,
      "duration": 0.0163,
      "velocity": 100,
      "chip": "ym2612"
    },
    {
      "channel": 1,
      "note": 64,
      "start": 49.2841,
      "duration": 0.0163,
      "velocity": 101,
      "chip": "ym2612"
    },
    {
      "channel": 0,
      "note": 68,
      "start": 49.2958,
      "duration": 0.0167,
      "velocity": 124,
      "chip": "ym2612"
    },
    {
      "channel": 4,
      "note": 56,
      "start": 49.297,
      "duration": 0.0167,
      "velocity": 101,
      "chip": "ym2612"
    },
    {
      "channel": 3,
      "note": 59,
      "start": 49.2981,
      "duration": 0.0167,
      "velocity": 101,
      "chip": "ym2612"
    },
    {
      "channel": 1,
      "note": 64,
      "start": 49.3004,
      "duration": 0.0167,
      "velocity": 101,
      "chip": "ym2612"
    },
    {
      "channel": 0,
      "note": 65,
      "start": 49.3125,
      "duration": 0.0163,
      "velocity": 124,
      "chip": "ym2612"
    },
    {
      "channel": 4,
      "note": 56,
      "start": 49.3136,
      "duration": 0.0163,
      "velocity": 101,
      "chip": "ym2612"
    },
    {
      "channel": 3,
      "note": 59,
      "start": 49.3148,
      "duration": 0.0163,
      "velocity": 101,
      "chip": "ym2612"
    },
    {
      "channel": 1,
      "note": 64,
      "start": 49.3171,
      "duration": 0.0163,
      "velocity": 101,
      "chip": "ym2612"
    },
    {
      "channel": 0,
      "note": 63,
      "start": 49.3288,
      "duration": 0.0143,
      "velocity": 1,
      "chip": "ym2612"
    },
    {
      "channel": 4,
      "note": 56,
      "start": 49.3299,
      "duration": 0.0144,
      "velocity": 101,
      "chip": "ym2612"
    },
    {
      "channel": 3,
      "note": 59,
      "start": 49.3311,
      "duration": 0.0144,
      "velocity": 101,
      "chip": "ym2612"
    },
    {
      "channel": 1,
      "note": 64,
      "start": 49.3334,
      "duration": 0.0143,
      "velocity": 101,
      "chip": "ym2612"
    },
    {
      "channel": 4,
      "note": 56,
      "start": 49.3443,
      "duration": 0.0177,
      "velocity": 101,
      "chip": "ym2612"
    },
    {
      "channel": 3,
      "note": 59,
      "start": 49.3454,
      "duration": 0.0177,
      "velocity": 101,
      "chip": "ym2612"
    },
    {
      "channel": 1,
      "note": 64,
      "start": 49.3477,
      "duration": 0.0178,
      "velocity": 101,
      "chip": "ym2612"
    },
    {
      "channel": 4,
      "note": 56,
      "start": 49.362,
      "duration": 0.0164,
      "velocity": 101,
      "chip": "ym2612"
    },
    {
      "channel": 3,
      "note": 59,
      "start": 49.3631,
      "duration": 0.0164,
      "velocity": 101,
      "chip": "ym2612"
    },
    {
      "channel": 1,
      "note": 64,
      "start": 49.3654,
      "duration": 0.0163,
      "velocity": 101,
      "chip": "ym2612"
    },
    {
      "channel": 4,
      "note": 56,
      "start": 49.3784,
      "duration": 0.0157,
      "velocity": 101,
      "chip": "ym2612"
    },
    {
      "channel": 3,
      "note": 59,
      "start": 49.3795,
      "duration": 0.0157,
      "velocity": 101,
      "chip": "ym2612"
    },
    {
      "channel": 1,
      "note": 64,
      "start": 49.3818,
      "duration": 0.0158,
      "velocity": 101,
      "chip": "ym2612"
    },
    {
      "channel": 4,
      "note": 56,
      "start": 49.3941,
      "duration": 0.0141,
      "velocity": 101,
      "chip": "ym2612"
    },
    {
      "channel": 3,
      "note": 59,
      "start": 49.3953,
      "duration": 0.0141,
      "velocity": 101,
      "chip": "ym2612"
    },
    {
      "channel": 1,
      "note": 64,
      "start": 49.3976,
      "duration": 0.0143,
      "velocity": 101,
      "chip": "ym2612"
    },
    {
      "channel": 4,
      "note": 56,
      "start": 49.4082,
      "duration": 0.0158,
      "velocity": 101,
      "chip": "ym2612"
    },
    {
      "channel": 3,
      "note": 59,
      "start": 49.4093,
      "duration": 0.0185,
      "velocity": 101,
      "chip": "ym2612"
    },
    {
      "channel": 2,
      "note": 61,
      "start": 49.4107,
      "duration": 0.0183,
      "velocity": 100,
      "chip": "ym2612"
    },
    {
      "channel": 1,
      "note": 64,
      "start": 49.4119,
      "duration": 0.0183,
      "velocity": 101,
      "chip": "ym2612"
    },
    {
      "channel": 4,
      "note": 56,
      "start": 49.4239,
      "duration": 0.0161,
      "velocity": 101,
      "chip": "ym2612"
    },
    {
      "channel": 3,
      "note": 59,
      "start": 49.4278,
      "duration": 0.0161,
      "velocity": 101,
      "chip": "ym2612"
    },
    {
      "channel": 2,
      "note": 61,
      "start": 49.429,
      "duration": 0.0161,
      "velocity": 100,
      "chip": "ym2612"
    },
    {
      "channel": 1,
      "note": 64,
      "start": 49.4301,
      "duration": 0.0161,
      "velocity": 101,
      "chip": "ym2612"
    },
    {
      "channel": 4,
      "note": 56,
      "start": 49.44,
      "duration": 0.0161,
      "velocity": 101,
      "chip": "ym2612"
    },
    {
      "channel": 3,
      "note": 59,
      "start": 49.4439,
      "duration": 0.0134,
      "velocity": 101,
      "chip": "ym2612"
    },
    {
      "channel": 2,
      "note": 61,
      "start": 49.4451,
      "duration": 0.0157,
      "velocity": 100,
      "chip": "ym2612"
    },
    {
      "channel": 1,
      "note": 64,
      "start": 49.4462,
      "duration": 0.0157,
      "velocity": 101,
      "chip": "ym2612"
    },
    {
      "channel": 4,
      "note": 56,
      "start": 49.4561,
      "duration": 0.0161,
      "velocity": 101,
      "chip": "ym2612"
    },
    {
      "channel": 3,
      "note": 59,
      "start": 49.4573,
      "duration": 0.0161,
      "velocity": 101,
      "chip": "ym2612"
    },
    {
      "channel": 2,
      "note": 61,
      "start": 49.4608,
      "duration": 0.0141,
      "velocity": 100,
      "chip": "ym2612"
    },
    {
      "channel": 1,
      "note": 64,
      "start": 49.4619,
      "duration": 0.0141,
      "velocity": 101,
      "chip": "ym2612"
    },
    {
      "channel": 4,
      "note": 56,
      "start": 49.4722,
      "duration": 0.0161,
      "velocity": 101,
      "chip": "ym2612"
    },
    {
      "channel": 3,
      "note": 59,
      "start": 49.4734,
      "duration": 0.0161,
      "velocity": 101,
      "chip": "ym2612"
    },
    {
      "channel": 2,
      "note": 61,
      "start": 49.4748,
      "duration": 0.0158,
      "velocity": 100,
      "chip": "ym2612"
    },
    {
      "channel": 1,
      "note": 64,
      "start": 49.476,
      "duration": 0.0185,
      "velocity": 101,
      "chip": "ym2612"
    },
    {
      "channel": 4,
      "note": 56,
      "start": 49.4883,
      "duration": 0.0161,
      "velocity": 101,
      "chip": "ym2612"
    },
    {
      "channel": 3,
      "note": 59,
      "start": 49.4895,
      "duration": 0.0161,
      "velocity": 101,
      "chip": "ym2612"
    },
    {
      "channel": 2,
      "note": 61,
      "start": 49.4906,
      "duration": 0.0161,
      "velocity": 100,
      "chip": "ym2612"
    },
    {
      "channel": 1,
      "note": 64,
      "start": 49.4945,
      "duration": 0.0161,
      "velocity": 101,
      "chip": "ym2612"
    },
    {
      "channel": 4,
      "note": 56,
      "start": 49.5044,
      "duration": 0.0161,
      "velocity": 101,
      "chip": "ym2612"
    },
    {
      "channel": 3,
      "note": 59,
      "start": 49.5056,
      "duration": 0.0162,
      "velocity": 101,
      "chip": "ym2612"
    },
    {
      "channel": 2,
      "note": 61,
      "start": 49.5067,
      "duration": 0.0161,
      "velocity": 100,
      "chip": "ym2612"
    },
    {
      "channel": 1,
      "note": 64,
      "start": 49.5106,
      "duration": 0.0134,
      "velocity": 101,
      "chip": "ym2612"
    },
    {
      "channel": 4,
      "note": 56,
      "start": 49.5206,
      "duration": 0.0161,
      "velocity": 101,
      "chip": "ym2612"
    },
    {
      "channel": 3,
      "note": 59,
      "start": 49.5217,
      "duration": 0.0161,
      "velocity": 101,
      "chip": "ym2612"
    },
    {
      "channel": 1,
      "note": 64,
      "start": 49.5239,
      "duration": 0.0161,
      "velocity": 101,
      "chip": "ym2612"
    },
    {
      "channel": 4,
      "note": 56,
      "start": 49.5367,
      "duration": 0.0161,
      "velocity": 101,
      "chip": "ym2612"
    },
    {
      "channel": 3,
      "note": 59,
      "start": 49.5378,
      "duration": 0.0161,
      "velocity": 101,
      "chip": "ym2612"
    },
    {
      "channel": 1,
      "note": 64,
      "start": 49.54,
      "duration": 0.0161,
      "velocity": 101,
      "chip": "ym2612"
    },
    {
      "channel": 4,
      "note": 56,
      "start": 49.5528,
      "duration": 0.0161,
      "velocity": 101,
      "chip": "ym2612"
    },
    {
      "channel": 3,
      "note": 59,
      "start": 49.5539,
      "duration": 0.0161,
      "velocity": 101,
      "chip": "ym2612"
    },
    {
      "channel": 1,
      "note": 64,
      "start": 49.5561,
      "duration": 0.0161,
      "velocity": 101,
      "chip": "ym2612"
    },
    {
      "channel": 4,
      "note": 56,
      "start": 49.5688,
      "duration": 0.0161,
      "velocity": 101,
      "chip": "ym2612"
    },
    {
      "channel": 3,
      "note": 59,
      "start": 49.57,
      "duration": 0.0161,
      "velocity": 101,
      "chip": "ym2612"
    },
    {
      "channel": 1,
      "note": 64,
      "start": 49.5722,
      "duration": 0.0162,
      "velocity": 101,
      "chip": "ym2612"
    },
    {
      "channel": 4,
      "note": 56,
      "start": 49.5849,
      "duration": 0.0161,
      "velocity": 101,
      "chip": "ym2612"
    },
    {
      "channel": 3,
      "note": 59,
      "start": 49.5861,
      "duration": 0.0161,
      "velocity": 101,
      "chip": "ym2612"
    },
    {
      "channel": 1,
      "note": 64,
      "start": 49.5884,
      "duration": 0.0161,
      "velocity": 101,
      "chip": "ym2612"
    },
    {
      "channel": 4,
      "note": 56,
      "start": 49.601,
      "duration": 0.0161,
      "velocity": 101,
      "chip": "ym2612"
    },
    {
      "channel": 3,
      "note": 59,
      "start": 49.6022,
      "duration": 0.0161,
      "velocity": 101,
      "chip": "ym2612"
    },
    {
      "channel": 1,
      "note": 64,
      "start": 49.6045,
      "duration": 0.0161,
      "velocity": 101,
      "chip": "ym2612"
    },
    {
      "channel": 4,
      "note": 56,
      "start": 49.6171,
      "duration": 0.0163,
      "velocity": 101,
      "chip": "ym2612"
    },
    {
      "channel": 3,
      "note": 59,
      "start": 49.6183,
      "duration": 0.0166,
      "velocity": 101,
      "chip": "ym2612"
    },
    {
      "channel": 1,
      "note": 64,
      "start": 49.6206,
      "duration": 0.0171,
      "velocity": 101,
      "chip": "ym2612"
    },
    {
      "channel": 4,
      "note": 58,
      "start": 49.6335,
      "duration": 0.0159,
      "velocity": 101,
      "chip": "ym2612"
    },
    {
      "channel": 3,
      "note": 61,
      "start": 49.6349,
      "duration": 0.0157,
      "velocity": 101,
      "chip": "ym2612"
    },
    {
      "channel": 2,
      "note": 59,
      "start": 49.6363,
      "duration": 0.0155,
      "velocity": 100,
      "chip": "ym2612"
    },
    {
      "channel": 1,
      "note": 66,
      "start": 49.6377,
      "duration": 0.0153,
      "velocity": 101,
      "chip": "ym2612"
    },
    {
      "channel": 4,
      "note": 58,
      "start": 49.6494,
      "duration": 0.016,
      "velocity": 101,
      "chip": "ym2612"
    },
    {
      "channel": 3,
      "note": 61,
      "start": 49.6506,
      "duration": 0.016,
      "velocity": 101,
      "chip": "ym2612"
    },
    {
      "channel": 2,
      "note": 59,
      "start": 49.6517,
      "duration": 0.016,
      "velocity": 100,
      "chip": "ym2612"
    },
    {
      "channel": 1,
      "note": 66,
      "start": 49.6529,
      "duration": 0.0159,
      "velocity": 101,
      "chip": "ym2612"
    },
    {
      "channel": 4,
      "note": 58,
      "start": 49.6654,
      "duration": 0.0161,
      "velocity": 101,
      "chip": "ym2612"
    },
    {
      "channel": 3,
      "note": 61,
      "start": 49.6666,
      "duration": 0.0161,
      "velocity": 101,
      "chip": "ym2612"
    },
    {
      "channel": 2,
      "note": 59,
      "start": 49.6677,
      "duration": 0.0161,
      "velocity": 100,
      "chip": "ym2612"
    },
    {
      "channel": 1,
      "note": 66,
      "start": 49.6688,
      "duration": 0.0161,
      "velocity": 101,
      "chip": "ym2612"
    },
    {
      "channel": 4,
      "note": 58,
      "start": 49.6815,
      "duration": 0.0161,
      "velocity": 101,
      "chip": "ym2612"
    },
    {
      "channel": 3,
      "note": 61,
      "start": 49.6827,
      "duration": 0.0162,
      "velocity": 101,
      "chip": "ym2612"
    },
    {
      "channel": 2,
      "note": 59,
      "start": 49.6838,
      "duration": 0.0161,
      "velocity": 100,
      "chip": "ym2612"
    },
    {
      "channel": 1,
      "note": 66,
      "start": 49.6849,
      "duration": 0.0161,
      "velocity": 101,
      "chip": "ym2612"
    },
    {
      "channel": 4,
      "note": 58,
      "start": 49.6977,
      "duration": 0.0161,
      "velocity": 101,
      "chip": "ym2612"
    },
    {
      "channel": 3,
      "note": 61,
      "start": 49.6988,
      "duration": 0.0161,
      "velocity": 101,
      "chip": "ym2612"
    },
    {
      "channel": 2,
      "note": 59,
      "start": 49.6999,
      "duration": 0.0161,
      "velocity": 100,
      "chip": "ym2612"
    },
    {
      "channel": 1,
      "note": 66,
      "start": 49.701,
      "duration": 0.0161,
      "velocity": 101,
      "chip": "ym2612"
    },
    {
      "channel": 4,
      "note": 58,
      "start": 49.7138,
      "duration": 0.0161,
      "velocity": 101,
      "chip": "ym2612"
    },
    {
      "channel": 3,
      "note": 61,
      "start": 49.7149,
      "duration": 0.0161,
      "velocity": 101,
      "chip": "ym2612"
    },
    {
      "channel": 2,
      "note": 59,
      "start": 49.716,
      "duration": 0.0162,
      "velocity": 100,
      "chip": "ym2612"
    },
    {
      "channel": 1,
      "note": 66,
      "start": 49.7171,
      "duration": 0.0161,
      "velocity": 101,
      "chip": "ym2612"
    },
    {
      "channel": 4,
      "note": 58,
      "start": 49.7299,
      "duration": 0.0161,
      "velocity": 101,
      "chip": "ym2612"
    },
    {
      "channel": 3,
      "note": 61,
      "start": 49.731,
      "duration": 0.0161,
      "velocity": 101,
      "chip": "ym2612"
    },
    {
      "channel": 2,
      "note": 59,
      "start": 49.7322,
      "duration": 0.0161,
      "velocity": 100,
      "chip": "ym2612"
    },
    {
      "channel": 1,
      "note": 66,
      "start": 49.7333,
      "duration": 0.0161,
      "velocity": 101,
      "chip": "ym2612"
    },
    {
      "channel": 4,
      "note": 58,
      "start": 49.7459,
      "duration": 0.0161,
      "velocity": 101,
      "chip": "ym2612"
    },
    {
      "channel": 3,
      "note": 61,
      "start": 49.7471,
      "duration": 0.0161,
      "velocity": 101,
      "chip": "ym2612"
    },
    {
      "channel": 1,
      "note": 66,
      "start": 49.7494,
      "duration": 0.0161,
      "velocity": 101,
      "chip": "ym2612"
    },
    {
      "channel": 4,
      "note": 58,
      "start": 49.762,
      "duration": 0.0166,
      "velocity": 101,
      "chip": "ym2612"
    },
    {
      "channel": 3,
      "note": 61,
      "start": 49.7632,
      "duration": 0.0166,
      "velocity": 101,
      "chip": "ym2612"
    },
    {
      "channel": 1,
      "note": 66,
      "start": 49.7655,
      "duration": 0.0166,
      "velocity": 101,
      "chip": "ym2612"
    },
    {
      "channel": 4,
      "note": 58,
      "start": 49.7786,
      "duration": 0.0163,
      "velocity": 101,
      "chip": "ym2612"
    },
    {
      "channel": 3,
      "note": 61,
      "start": 49.7798,
      "duration": 0.0163,
      "velocity": 101,
      "chip": "ym2612"
    },
    {
      "channel": 1,
      "note": 66,
      "start": 49.7821,
      "duration": 0.0163,
      "velocity": 101,
      "chip": "ym2612"
    },
    {
      "channel": 4,
      "note": 58,
      "start": 49.7949,
      "duration": 0.0154,
      "velocity": 101,
      "chip": "ym2612"
    },
    {
      "channel": 3,
      "note": 61,
      "start": 49.7961,
      "duration": 0.0154,
      "velocity": 101,
      "chip": "ym2612"
    },
    {
      "channel": 1,
      "note": 66,
      "start": 49.7984,
      "duration": 0.0154,
      "velocity": 101,
      "chip": "ym2612"
    },
    {
      "channel": 4,
      "note": 58,
      "start": 49.8103,
      "duration": 0.0183,
      "velocity": 101,
      "chip": "ym2612"
    },
    {
      "channel": 3,
      "note": 61,
      "start": 49.8115,
      "duration": 0.0183,
      "velocity": 101,
      "chip": "ym2612"
    },
    {
      "channel": 1,
      "note": 66,
      "start": 49.8138,
      "duration": 0.0183,
      "velocity": 101,
      "chip": "ym2612"
    },
    {
      "channel": 4,
      "note": 58,
      "start": 49.8286,
      "duration": 0.0167,
      "velocity": 101,
      "chip": "ym2612"
    },
    {
      "channel": 3,
      "note": 61,
      "start": 49.8298,
      "duration": 0.0167,
      "velocity": 101,
      "chip": "ym2612"
    },
    {
      "channel": 1,
      "note": 66,
      "start": 49.8321,
      "duration": 0.0167,
      "velocity": 101,
      "chip": "ym2612"
    },
    {
      "channel": 4,
      "note": 58,
      "start": 49.8453,
      "duration": 0.0192,
      "velocity": 101,
      "chip": "ym2612"
    },
    {
      "channel": 3,
      "note": 61,
      "start": 49.8465,
      "duration": 0.0191,
      "velocity": 101,
      "chip": "ym2612"
    },
    {
      "channel": 1,
      "note": 66,
      "start": 49.8488,
      "duration": 0.0194,
      "velocity": 101,
      "chip": "ym2612"
    },
    {
      "channel": 0,
      "note": 36,
      "start": 49.8633,
      "duration": 0.0123,
      "velocity": 115,
      "chip": "ym2612"
    },
    {
      "channel": 4,
      "note": 58,
      "start": 49.8645,
      "duration": 0.0123,
      "velocity": 101,
      "chip": "ym2612"
    },
    {
      "channel": 3,
      "note": 61,
      "start": 49.8656,
      "duration": 0.0124,
      "velocity": 101,
      "chip": "ym2612"
    },
    {
      "channel": 2,
      "note": 59,
      "start": 49.867,
      "duration": 0.0121,
      "velocity": 100,
      "chip": "ym2612"
    },
    {
      "channel": 1,
      "note": 66,
      "start": 49.8681,
      "duration": 0.0121,
      "velocity": 101,
      "chip": "ym2612"
    },
    {
      "channel": 0,
      "note": 36,
      "start": 49.8756,
      "duration": 0.0185,
      "velocity": 115,
      "chip": "ym2612"
    },
    {
      "channel": 4,
      "note": 58,
      "start": 49.8768,
      "duration": 0.0185,
      "velocity": 101,
      "chip": "ym2612"
    },
    {
      "channel": 3,
      "note": 61,
      "start": 49.878,
      "duration": 0.0184,
      "velocity": 101,
      "chip": "ym2612"
    },
    {
      "channel": 2,
      "note": 59,
      "start": 49.8791,
      "duration": 0.0185,
      "velocity": 100,
      "chip": "ym2612"
    },
    {
      "channel": 1,
      "note": 66,
      "start": 49.8802,
      "duration": 0.0184,
      "velocity": 101,
      "chip": "ym2612"
    },
    {
      "channel": 0,
      "note": 37,
      "start": 49.8941,
      "duration": 0.0134,
      "velocity": 115,
      "chip": "ym2612"
    },
    {
      "channel": 4,
      "note": 58,
      "start": 49.8953,
      "duration": 0.0161,
      "velocity": 101,
      "chip": "ym2612"
    },
    {
      "channel": 3,
      "note": 61,
      "start": 49.8964,
      "duration": 0.0161,
      "velocity": 101,
      "chip": "ym2612"
    },
    {
      "channel": 2,
      "note": 59,
      "start": 49.8976,
      "duration": 0.0161,
      "velocity": 100,
      "chip": "ym2612"
    },
    {
      "channel": 1,
      "note": 66,
      "start": 49.8987,
      "duration": 0.0161,
      "velocity": 101,
      "chip": "ym2612"
    },
    {
      "channel": 0,
      "note": 37,
      "start": 49.9075,
      "duration": 0.0161,
      "velocity": 115,
      "chip": "ym2612"
    },
    {
      "channel": 4,
      "note": 58,
      "start": 49.9113,
      "duration": 0.0158,
      "velocity": 101,
      "chip": "ym2612"
    },
    {
      "channel": 3,
      "note": 61,
      "start": 49.9125,
      "duration": 0.0158,
      "velocity": 101,
      "chip": "ym2612"
    },
    {
      "channel": 2,
      "note": 59,
      "start": 49.9136,
      "duration": 0.0157,
      "velocity": 100,
      "chip": "ym2612"
    },
    {
      "channel": 1,
      "note": 66,
      "start": 49.9148,
      "duration": 0.0157,
      "velocity": 101,
      "chip": "ym2612"
    },
    {
      "channel": 0,
      "note": 38,
      "start": 49.9236,
      "duration": 0.0161,
      "velocity": 115,
      "chip": "ym2612"
    },
    {
      "channel": 4,
      "note": 58,
      "start": 49.9271,
      "duration": 0.0137,
      "velocity": 101,
      "chip": "ym2612"
    },
    {
      "channel": 3,
      "note": 61,
      "start": 49.9283,
      "duration": 0.014,
      "velocity": 101,
      "chip": "ym2612"
    },
    {
      "channel": 2,
      "note": 59,
      "start": 49.9293,
      "duration": 0.0141,
      "velocity": 100,
      "chip": "ym2612"
    },
    {
      "channel": 1,
      "note": 66,
      "start": 49.9305,
      "duration": 0.0141,
      "velocity": 101,
      "chip": "ym2612"
    },
    {
      "channel": 0,
      "note": 38,
      "start": 49.9397,
      "duration": 0.0161,
      "velocity": 115,
      "chip": "ym2612"
    },
    {
      "channel": 4,
      "note": 58,
      "start": 49.9408,
      "duration": 0.0161,
      "velocity": 101,
      "chip": "ym2612"
    },
    {
      "channel": 3,
      "note": 61,
      "start": 49.9423,
      "duration": 0.0186,
      "velocity": 101,
      "chip": "ym2612"
    },
    {
      "channel": 2,
      "note": 59,
      "start": 49.9434,
      "duration": 0.0185,
      "velocity": 100,
      "chip": "ym2612"
    },
    {
      "channel": 1,
      "note": 66,
      "start": 49.9446,
      "duration": 0.0185,
      "velocity": 101,
      "chip": "ym2612"
    },
    {
      "channel": 0,
      "note": 39,
      "start": 49.9557,
      "duration": 0.0161,
      "velocity": 115,
      "chip": "ym2612"
    },
    {
      "channel": 4,
      "note": 58,
      "start": 49.9569,
      "duration": 0.0161,
      "velocity": 101,
      "chip": "ym2612"
    },
    {
      "channel": 3,
      "note": 61,
      "start": 49.9608,
      "duration": 0.0133,
      "velocity": 101,
      "chip": "ym2612"
    },
    {
      "channel": 2,
      "note": 59,
      "start": 49.9619,
      "duration": 0.0161,
      "velocity": 100,
      "chip": "ym2612"
    },
    {
      "channel": 1,
      "note": 66,
      "start": 49.9631,
      "duration": 0.0162,
      "velocity": 101,
      "chip": "ym2612"
    },
    {
      "channel": 0,
      "note": 39,
      "start": 49.9718,
      "duration": 0.0161,
      "velocity": 115,
      "chip": "ym2612"
    },
    {
      "channel": 4,
      "note": 58,
      "start": 49.973,
      "duration": 0.0161,
      "velocity": 101,
      "chip": "ym2612"
    },
    {
      "channel": 3,
      "note": 61,
      "start": 49.9741,
      "duration": 0.0161,
      "velocity": 101,
      "chip": "ym2612"
    },
    {
      "channel": 1,
      "note": 66,
      "start": 49.9792,
      "duration": 0.0157,
      "velocity": 101,
      "chip": "ym2612"
    },
    {
      "channel": 0,
      "note": 40,
      "start": 49.9879,
      "duration": 0.0161,
      "velocity": 115,
      "chip": "ym2612"
    },
    {
      "channel": 4,
      "note": 58,
      "start": 49.9891,
      "duration": 0.0161,
      "velocity": 101,
      "chip": "ym2612"
    },
    {
      "channel": 3,
      "note": 61,
      "start": 49.9902,
      "duration": 0.0161,
      "velocity": 101,
      "chip": "ym2612"
    },
    {
      "channel": 1,
      "note": 66,
      "start": 49.9949,
      "duration": 0.014,
      "velocity": 101,
      "chip": "ym2612"
    },
    {
      "channel": 0,
      "note": 40,
      "start": 50.004,
      "duration": 0.0161,
      "velocity": 115,
      "chip": "ym2612"
    },
    {
      "channel": 4,
      "note": 58,
      "start": 50.0052,
      "duration": 0.0162,
      "velocity": 101,
      "chip": "ym2612"
    },
    {
      "channel": 3,
      "note": 61,
      "start": 50.0063,
      "duration": 0.0161,
      "velocity": 101,
      "chip": "ym2612"
    },
    {
      "channel": 1,
      "note": 66,
      "start": 50.0089,
      "duration": 0.0185,
      "velocity": 101,
      "chip": "ym2612"
    },
    {
      "channel": 0,
      "note": 40,
      "start": 50.0201,
      "duration": 0.0161,
      "velocity": 115,
      "chip": "ym2612"
    },
    {
      "channel": 4,
      "note": 58,
      "start": 50.0213,
      "duration": 0.0161,
      "velocity": 101,
      "chip": "ym2612"
    },
    {
      "channel": 3,
      "note": 61,
      "start": 50.0225,
      "duration": 0.0161,
      "velocity": 101,
      "chip": "ym2612"
    },
    {
      "channel": 1,
      "note": 66,
      "start": 50.0274,
      "duration": 0.0134,
      "velocity": 101,
      "chip": "ym2612"
    },
    {
      "channel": 0,
      "note": 41,
      "start": 50.0362,
      "duration": 0.0161,
      "velocity": 115,
      "chip": "ym2612"
    },
    {
      "channel": 4,
      "note": 58,
      "start": 50.0374,
      "duration": 0.0161,
      "velocity": 101,
      "chip": "ym2612"
    },
    {
      "channel": 3,
      "note": 61,
      "start": 50.0386,
      "duration": 0.0161,
      "velocity": 101,
      "chip": "ym2612"
    },
    {
      "channel": 1,
      "note": 66,
      "start": 50.0408,
      "duration": 0.0162,
      "velocity": 101,
      "chip": "ym2612"
    },
    {
      "channel": 0,
      "note": 41,
      "start": 50.0523,
      "duration": 0.0162,
      "velocity": 115,
      "chip": "ym2612"
    },
    {
      "channel": 4,
      "note": 58,
      "start": 50.0535,
      "duration": 0.0161,
      "velocity": 101,
      "chip": "ym2612"
    },
    {
      "channel": 3,
      "note": 61,
      "start": 50.0547,
      "duration": 0.0161,
      "velocity": 101,
      "chip": "ym2612"
    },
    {
      "channel": 1,
      "note": 66,
      "start": 50.057,
      "duration": 0.0161,
      "velocity": 101,
      "chip": "ym2612"
    },
    {
      "channel": 0,
      "note": 42,
      "start": 50.0685,
      "duration": 0.0178,
      "velocity": 124,
      "chip": "ym2612"
    },
    {
      "channel": 4,
      "note": 58,
      "start": 50.0696,
      "duration": 0.0179,
      "velocity": 101,
      "chip": "ym2612"
    },
    {
      "channel": 3,
      "note": 61,
      "start": 50.0708,
      "duration": 0.0179,
      "velocity": 101,
      "chip": "ym2612"
    },
    {
      "channel": 1,
      "note": 66,
      "start": 50.0731,
      "duration": 0.0209,
      "velocity": 101,
      "chip": "ym2612"
    },
    {
      "channel": 0,
      "note": 84,
      "start": 50.0863,
      "duration": 0.0144,
      "velocity": 124,
      "chip": "ym2612"
    },
    {
      "channel": 4,
      "note": 58,
      "start": 50.0875,
      "duration": 0.0144,
      "velocity": 101,
      "chip": "ym2612"
    },
    {
      "channel": 3,
      "note": 61,
      "start": 50.0886,
      "duration": 0.0144,
      "velocity": 101,
      "chip": "ym2612"
    },
    {
      "channel": 2,
      "note": 71,
      "start": 50.09,
      "duration": 0.0142,
      "velocity": 100,
      "chip": "ym2612"
    },
    {
      "channel": 1,
      "note": 66,
      "start": 50.0939,
      "duration": 0.0115,
      "velocity": 101,
      "chip": "ym2612"
    },
    {
      "channel": 0,
      "note": 82,
      "start": 50.1007,
      "duration": 0.016,
      "velocity": 124,
      "chip": "ym2612"
    },
    {
      "channel": 4,
      "note": 58,
      "start": 50.1019,
      "duration": 0.016,
      "velocity": 101,
      "chip": "ym2612"
    },
    {
      "channel": 3,
      "note": 61,
      "start": 50.103,
      "duration": 0.016,
      "velocity": 101,
      "chip": "ym2612"
    },
    {
      "channel": 2,
      "note": 71,
      "start": 50.1042,
      "duration": 0.016,
      "velocity": 100,
      "chip": "ym2612"
    },
    {
      "channel": 1,
      "note": 66,
      "start": 50.1054,
      "duration": 0.016,
      "velocity": 101,
      "chip": "ym2612"
    },
    {
      "channel": 0,
      "note": 80,
      "start": 50.1168,
      "duration": 0.0161,
      "velocity": 124,
      "chip": "ym2612"
    },
    {
      "channel": 4,
      "note": 58,
      "start": 50.1179,
      "duration": 0.0161,
      "velocity": 101,
      "chip": "ym2612"
    },
    {
      "channel": 3,
      "note": 61,
      "start": 50.119,
      "duration": 0.0161,
      "velocity": 101,
      "chip": "ym2612"
    },
    {
      "channel": 2,
      "note": 71,
      "start": 50.1202,
      "duration": 0.0161,
      "velocity": 100,
      "chip": "ym2612"
    },
    {
      "channel": 1,
      "note": 66,
      "start": 50.1213,
      "duration": 0.0161,
      "velocity": 101,
      "chip": "ym2612"
    },
    {
      "channel": 0,
      "note": 77,
      "start": 50.1329,
      "duration": 0.0161,
      "velocity": 124,
      "chip": "ym2612"
    },
    {
      "channel": 4,
      "note": 58,
      "start": 50.134,
      "duration": 0.0162,
      "velocity": 101,
      "chip": "ym2612"
    },
    {
      "channel": 3,
      "note": 61,
      "start": 50.1351,
      "duration": 0.0161,
      "velocity": 101,
      "chip": "ym2612"
    },
    {
      "channel": 2,
      "note": 71,
      "start": 50.1363,
      "duration": 0.0161,
      "velocity": 100,
      "chip": "ym2612"
    },
    {
      "channel": 1,
      "note": 66,
      "start": 50.1374,
      "duration": 0.0161,
      "velocity": 101,
      "chip": "ym2612"
    },
    {
      "channel": 0,
      "note": 75,
      "start": 50.1489,
      "duration": 0.0161,
      "velocity": 124,
      "chip": "ym2612"
    },
    {
      "channel": 4,
      "note": 58,
      "start": 50.1502,
      "duration": 0.0161,
      "velocity": 101,
      "chip": "ym2612"
    },
    {
      "channel": 3,
      "note": 61,
      "start": 50.1513,
      "duration": 0.0161,
      "velocity": 101,
      "chip": "ym2612"
    },
    {
      "channel": 2,
      "note": 71,
      "start": 50.1524,
      "duration": 0.0161,
      "velocity": 100,
      "chip": "ym2612"
    },
    {
      "channel": 1,
      "note": 66,
      "start": 50.1535,
      "duration": 0.0161,
      "velocity": 101,
      "chip": "ym2612"
    },
    {
      "channel": 0,
      "note": 72,
      "start": 50.165,
      "duration": 0.0161,
      "velocity": 124,
      "chip": "ym2612"
    },
    {
      "channel": 4,
      "note": 58,
      "start": 50.1662,
      "duration": 0.0161,
      "velocity": 101,
      "chip": "ym2612"
    },
    {
      "channel": 3,
      "note": 61,
      "start": 50.1674,
      "duration": 0.0161,
      "velocity": 101,
      "chip": "ym2612"
    },
    {
      "channel": 2,
      "note": 71,
      "start": 50.1685,
      "duration": 0.0161,
      "velocity": 100,
      "chip": "ym2612"
    },
    {
      "channel": 1,
      "note": 66,
      "start": 50.1696,
      "duration": 0.0161,
      "velocity": 101,
      "chip": "ym2612"
    },
    {
      "channel": 0,
      "note": 70,
      "start": 50.1811,
      "duration": 0.0161,
      "velocity": 124,
      "chip": "ym2612"
    },
    {
      "channel": 4,
      "note": 58,
      "start": 50.1823,
      "duration": 0.0161,
      "velocity": 101,
      "chip": "ym2612"
    },
    {
      "channel": 3,
      "note": 61,
      "start": 50.1835,
      "duration": 0.0161,
      "velocity": 101,
      "chip": "ym2612"
    },
    {
      "channel": 2,
      "note": 71,
      "start": 50.1846,
      "duration": 0.0162,
      "velocity": 100,
      "chip": "ym2612"
    },
    {
      "channel": 1,
      "note": 66,
      "start": 50.1857,
      "duration": 0.0161,
      "velocity": 101,
      "chip": "ym2612"
    },
    {
      "channel": 0,
      "note": 68,
      "start": 50.1973,
      "duration": 0.0161,
      "velocity": 124,
      "chip": "ym2612"
    },
    {
      "channel": 4,
      "note": 58,
      "start": 50.1984,
      "duration": 0.0161,
      "velocity": 101,
      "chip": "ym2612"
    },
    {
      "channel": 3,
      "note": 61,
      "start": 50.1996,
      "duration": 0.0161,
      "velocity": 101,
      "chip": "ym2612"
    },
    {
      "channel": 1,
      "note": 66,
      "start": 50.2019,
      "duration": 0.0161,
      "velocity": 101,
      "chip": "ym2612"
    },
    {
      "channel": 0,
      "note": 65,
      "start": 50.2134,
      "duration": 0.0161,
      "velocity": 124,
      "chip": "ym2612"
    },
    {
      "channel": 4,
      "note": 58,
      "start": 50.2145,
      "duration": 0.0161,
      "velocity": 101,
      "chip": "ym2612"
    },
    {
      "channel": 3,
      "note": 61,
      "start": 50.2157,
      "duration": 0.0161,
      "velocity": 101,
      "chip": "ym2612"
    },
    {
      "channel": 1,
      "note": 66,
      "start": 50.218,
      "duration": 0.0161,
      "velocity": 101,
      "chip": "ym2612"
    },
    {
      "channel": 0,
      "note": 63,
      "start": 50.2295,
      "duration": 0.0155,
      "velocity": 1,
      "chip": "ym2612"
    },
    {
      "channel": 4,
      "note": 58,
      "start": 50.2306,
      "duration": 0.0155,
      "velocity": 101,
      "chip": "ym2612"
    },
    {
      "channel": 3,
      "note": 61,
      "start": 50.2318,
      "duration": 0.0155,
      "velocity": 101,
      "chip": "ym2612"
    },
    {
      "channel": 1,
      "note": 66,
      "start": 50.2341,
      "duration": 0.0155,
      "velocity": 101,
      "chip": "ym2612"
    },
    {
      "channel": 4,
      "note": 58,
      "start": 50.2461,
      "duration": 0.0155,
      "velocity": 101,
      "chip": "ym2612"
    },
    {
      "channel": 3,
      "note": 61,
      "start": 50.2473,
      "duration": 0.0155,
      "velocity": 101,
      "chip": "ym2612"
    },
    {
      "channel": 1,
      "note": 66,
      "start": 50.2496,
      "duration": 0.0155,
      "velocity": 101,
      "chip": "ym2612"
    },
    {
      "channel": 4,
      "note": 58,
      "start": 50.2616,
      "duration": 0.0156,
      "velocity": 101,
      "chip": "ym2612"
    },
    {
      "channel": 3,
      "note": 61,
      "start": 50.2627,
      "duration": 0.0156,
      "velocity": 101,
      "chip": "ym2612"
    },
    {
      "channel": 1,
      "note": 66,
      "start": 50.265,
      "duration": 0.0156,
      "velocity": 101,
      "chip": "ym2612"
    },
    {
      "channel": 4,
      "note": 58,
      "start": 50.2773,
      "duration": 0.018,
      "velocity": 101,
      "chip": "ym2612"
    },
    {
      "channel": 3,
      "note": 61,
      "start": 50.2784,
      "duration": 0.0181,
      "velocity": 101,
      "chip": "ym2612"
    },
    {
      "channel": 1,
      "note": 66,
      "start": 50.2807,
      "duration": 0.0181,
      "velocity": 101,
      "chip": "ym2612"
    },
    {
      "channel": 4,
      "note": 58,
      "start": 50.2953,
      "duration": 0.0201,
      "velocity": 101,
      "chip": "ym2612"
    },
    {
      "channel": 3,
      "note": 61,
      "start": 50.2965,
      "duration": 0.0201,
      "velocity": 101,
      "chip": "ym2612"
    },
    {
      "channel": 1,
      "note": 66,
      "start": 50.2988,
      "duration": 0.0204,
      "velocity": 101,
      "chip": "ym2612"
    },
    {
      "channel": 0,
      "note": 84,
      "start": 50.3143,
      "duration": 0.0143,
      "velocity": 124,
      "chip": "ym2612"
    },
    {
      "channel": 4,
      "note": 58,
      "start": 50.3154,
      "duration": 0.0142,
      "velocity": 101,
      "chip": "ym2612"
    },
    {
      "channel": 3,
      "note": 61,
      "start": 50.3166,
      "duration": 0.0143,
      "velocity": 101,
      "chip": "ym2612"
    },
    {
      "channel": 2,
      "note": 59,
      "start": 50.318,
      "duration": 0.0141,
      "velocity": 100,
      "chip": "ym2612"
    },
    {
      "channel": 1,
      "note": 66,
      "start": 50.3191,
      "duration": 0.0141,
      "velocity": 101,
      "chip": "ym2612"
    },
    {
      "channel": 0,
      "note": 82,
      "start": 50.3285,
      "duration": 0.014,
      "velocity": 124,
      "chip": "ym2612"
    },
    {
      "channel": 4,
      "note": 58,
      "start": 50.3297,
      "duration": 0.014,
      "velocity": 101,
      "chip": "ym2612"
    },
    {
      "channel": 3,
      "note": 61,
      "start": 50.3308,
      "duration": 0.014,
      "velocity": 101,
      "chip": "ym2612"
    },
    {
      "channel": 2,
      "note": 59,
      "start": 50.332,
      "duration": 0.0139,
      "velocity": 100,
      "chip": "ym2612"
    },
    {
      "channel": 1,
      "note": 66,
      "start": 50.3332,
      "duration": 0.0139,
      "velocity": 101,
      "chip": "ym2612"
    },
    {
      "channel": 0,
      "note": 80,
      "start": 50.3425,
      "duration": 0.0185,
      "velocity": 124,
      "chip": "ym2612"
    },
    {
      "channel": 4,
      "note": 58,
      "start": 50.3437,
      "duration": 0.0185,
      "velocity": 101,
      "chip": "ym2612"
    },
    {
      "channel": 3,
      "note": 61,
      "start": 50.3448,
      "duration": 0.0185,
      "velocity": 101,
      "chip": "ym2612"
    },
    {
      "channel": 2,
      "note": 59,
      "start": 50.3459,
      "duration": 0.0185,
      "velocity": 100,
      "chip": "ym2612"
    },
    {
      "channel": 1,
      "note": 66,
      "start": 50.3471,
      "duration": 0.0185,
      "velocity": 101,
      "chip": "ym2612"
    },
    {
      "channel": 0,
      "note": 77,
      "start": 50.361,
      "duration": 0.0134,
      "velocity": 124,
      "chip": "ym2612"
    },
    {
      "channel": 4,
      "note": 58,
      "start": 50.3622,
      "duration": 0.0161,
      "velocity": 101,
      "chip": "ym2612"
    },
    {
      "channel": 3,
      "note": 61,
      "start": 50.3633,
      "duration": 0.0161,
      "velocity": 101,
      "chip": "ym2612"
    },
    {
      "channel": 2,
      "note": 59,
      "start": 50.3645,
      "duration": 0.0161,
      "velocity": 100,
      "chip": "ym2612"
    },
    {
      "channel": 1,
      "note": 66,
      "start": 50.3656,
      "duration": 0.0161,
      "velocity": 101,
      "chip": "ym2612"
    },
    {
      "channel": 0,
      "note": 75,
      "start": 50.3744,
      "duration": 0.0161,
      "velocity": 124,
      "chip": "ym2612"
    },
    {
      "channel": 4,
      "note": 58,
      "start": 50.3783,
      "duration": 0.0158,
      "velocity": 101,
      "chip": "ym2612"
    },
    {
      "channel": 3,
      "note": 61,
      "start": 50.3794,
      "duration": 0.0158,
      "velocity": 101,
      "chip": "ym2612"
    },
    {
      "channel": 2,
      "note": 59,
      "start": 50.3806,
      "duration": 0.0158,
      "velocity": 100,
      "chip": "ym2612"
    },
    {
      "channel": 1,
      "note": 66,
      "start": 50.3817,
      "duration": 0.0158,
      "velocity": 101,
      "chip": "ym2612"
    },
    {
      "channel": 0,
      "note": 72,
      "start": 50.3905,
      "duration": 0.0161,
      "velocity": 124,
      "chip": "ym2612"
    },
    {
      "channel": 4,
      "note": 58,
      "start": 50.394,
      "duration": 0.0137,
      "velocity": 101,
      "chip": "ym2612"
    },
    {
      "channel": 3,
      "note": 61,
      "start": 50.3952,
      "duration": 0.014,
      "velocity": 101,
      "chip": "ym2612"
    },
    {
      "channel": 2,
      "note": 59,
      "start": 50.3963,
      "duration": 0.014,
      "velocity": 100,
      "chip": "ym2612"
    },
    {
      "channel": 1,
      "note": 66,
      "start": 50.3975,
      "duration": 0.014,
      "velocity": 101,
      "chip": "ym2612"
    },
    {
      "channel": 0,
      "note": 70,
      "start": 50.4066,
      "duration": 0.0161,
      "velocity": 124,
      "chip": "ym2612"
    },
    {
      "channel": 4,
      "note": 58,
      "start": 50.4077,
      "duration": 0.0161,
      "velocity": 101,
      "chip": "ym2612"
    },
    {
      "channel": 3,
      "note": 61,
      "start": 50.4092,
      "duration": 0.0186,
      "velocity": 101,
      "chip": "ym2612"
    },
    {
      "channel": 2,
      "note": 59,
      "start": 50.4103,
      "duration": 0.0185,
      "velocity": 100,
      "chip": "ym2612"
    },
    {
      "channel": 1,
      "note": 66,
      "start": 50.4115,
      "duration": 0.0185,
      "velocity": 101,
      "chip": "ym2612"
    },
    {
      "channel": 0,
      "note": 68,
      "start": 50.4227,
      "duration": 0.0161,
      "velocity": 124,
      "chip": "ym2612"
    },
    {
      "channel": 4,
      "note": 58,
      "start": 50.4238,
      "duration": 0.0161,
      "velocity": 101,
      "chip": "ym2612"
    },
    {
      "channel": 3,
      "note": 61,
      "start": 50.4278,
      "duration": 0.016,
      "velocity": 101,
      "chip": "ym2612"
    },
    {
      "channel": 1,
      "note": 66,
      "start": 50.43,
      "duration": 0.0161,
      "velocity": 101,
      "chip": "ym2612"
    },
    {
      "channel": 0,
      "note": 65,
      "start": 50.4388,
      "duration": 0.0161,
      "velocity": 124,
      "chip": "ym2612"
    },
    {
      "channel": 4,
      "note": 58,
      "start": 50.4399,
      "duration": 0.0161,
      "velocity": 101,
      "chip": "ym2612"
    },
    {
      "channel": 3,
      "note": 61,
      "start": 50.4438,
      "duration": 0.0134,
      "velocity": 101,
      "chip": "ym2612"
    },
    {
      "channel": 1,
      "note": 66,
      "start": 50.4461,
      "duration": 0.0158,
      "velocity": 101,
      "chip": "ym2612"
    },
    {
      "channel": 0,
      "note": 63,
      "start": 50.4549,
      "duration": 0.0153,
      "velocity": 1,
      "chip": "ym2612"
    },
    {
      "channel": 4,
      "note": 58,
      "start": 50.4561,
      "duration": 0.0153,
      "velocity": 101,
      "chip": "ym2612"
    },
    {
      "channel": 3,
      "note": 61,
      "start": 50.4572,
      "duration": 0.0153,
      "velocity": 101,
      "chip": "ym2612"
    },
    {
      "channel": 1,
      "note": 66,
      "start": 50.4619,
      "duration": 0.0132,
      "velocity": 101,
      "chip": "ym2612"
    },
    {
      "channel": 4,
      "note": 58,
      "start": 50.4713,
      "duration": 0.0153,
      "velocity": 101,
      "chip": "ym2612"
    },
    {
      "channel": 3,
      "note": 61,
      "start": 50.4725,
      "duration": 0.0153,
      "velocity": 101,
      "chip": "ym2612"
    },
    {
      "channel": 1,
      "note": 66,
      "start": 50.4751,
      "duration": 0.015,
      "velocity": 101,
      "chip": "ym2612"
    },
    {
      "channel": 4,
      "note": 58,
      "start": 50.4866,
      "duration": 0.0161,
      "velocity": 101,
      "chip": "ym2612"
    },
    {
      "channel": 3,
      "note": 61,
      "start": 50.4878,
      "duration": 0.0161,
      "velocity": 101,
      "chip": "ym2612"
    },
    {
      "channel": 1,
      "note": 66,
      "start": 50.49,
      "duration": 0.0161,
      "velocity": 101,
      "chip": "ym2612"
    },
    {
      "channel": 4,
      "note": 58,
      "start": 50.5027,
      "duration": 0.0161,
      "velocity": 101,
      "chip": "ym2612"
    },
    {
      "channel": 3,
      "note": 61,
      "start": 50.5038,
      "duration": 0.0161,
      "velocity": 101,
      "chip": "ym2612"
    },
    {
      "channel": 1,
      "note": 66,
      "start": 50.5061,
      "duration": 0.0161,
      "velocity": 101,
      "chip": "ym2612"
    },
    {
      "channel": 4,
      "note": 58,
      "start": 50.5188,
      "duration": 0.02,
      "velocity": 101,
      "chip": "ym2612"
    },
    {
      "channel": 3,
      "note": 61,
      "start": 50.5199,
      "duration": 0.0204,
      "velocity": 101,
      "chip": "ym2612"
    },
    {
      "channel": 1,
      "note": 66,
      "start": 50.5222,
      "duration": 0.0215,
      "velocity": 101,
      "chip": "ym2612"
    },
    {
      "channel": 0,
      "note": 36,
      "start": 50.5372,
      "duration": 0.0144,
      "velocity": 115,
      "chip": "ym2612"
    },
    {
      "channel": 4,
      "note": 61,
      "start": 50.5388,
      "duration": 0.014,
      "velocity": 101,
      "chip": "ym2612"
    },
    {
      "channel": 3,
      "note": 64,
      "start": 50.5404,
      "duration": 0.0136,
      "velocity": 101,
      "chip": "ym2612"
    },
    {
      "channel": 1,
      "note": 69,
      "start": 50.5437,
      "duration": 0.0126,
      "velocity": 101,
      "chip": "ym2612"
    },
    {
      "channel": 0,
      "note": 36,
      "start": 50.5515,
      "duration": 0.016,
      "velocity": 115,
      "chip": "ym2612"
    },
    {
      "channel": 4,
      "note": 61,
      "start": 50.5528,
      "duration": 0.016,
      "velocity": 101,
      "chip": "ym2612"
    },
    {
      "channel": 3,
      "note": 64,
      "start": 50.554,
      "duration": 0.0159,
      "velocity": 101,
      "chip": "ym2612"
    },
    {
      "channel": 1,
      "note": 69,
      "start": 50.5563,
      "duration": 0.0158,
      "velocity": 101,
      "chip": "ym2612"
    },
    {
      "channel": 0,
      "note": 37,
      "start": 50.5676,
      "duration": 0.0161,
      "velocity": 115,
      "chip": "ym2612"
    },
    {
      "channel": 4,
      "note": 61,
      "start": 50.5687,
      "duration": 0.0161,
      "velocity": 101,
      "chip": "ym2612"
    },
    {
      "channel": 3,
      "note": 64,
      "start": 50.5699,
      "duration": 0.0161,
      "velocity": 101,
      "chip": "ym2612"
    },
    {
      "channel": 1,
      "note": 69,
      "start": 50.5722,
      "duration": 0.0161,
      "velocity": 101,
      "chip": "ym2612"
    },
    {
      "channel": 0,
      "note": 37,
      "start": 50.5837,
      "duration": 0.0161,
      "velocity": 115,
      "chip": "ym2612"
    },
    {
      "channel": 4,
      "note": 61,
      "start": 50.5848,
      "duration": 0.0161,
      "velocity": 101,
      "chip": "ym2612"
    },
    {
      "channel": 3,
      "note": 64,
      "start": 50.586,
      "duration": 0.0161,
      "velocity": 101,
      "chip": "ym2612"
    },
    {
      "channel": 1,
      "note": 69,
      "start": 50.5883,
      "duration": 0.0161,
      "velocity": 101,
      "chip": "ym2612"
    },
    {
      "channel": 0,
      "note": 38,
      "start": 50.5998,
      "duration": 0.0161,
      "velocity": 115,
      "chip": "ym2612"
    },
    {
      "channel": 4,
      "note": 61,
      "start": 50.6009,
      "duration": 0.0162,
      "velocity": 101,
      "chip": "ym2612"
    },
    {
      "channel": 3,
      "note": 64,
      "start": 50.6021,
      "duration": 0.0161,
      "velocity": 101,
      "chip": "ym2612"
    },
    {
      "channel": 1,
      "note": 69,
      "start": 50.6044,
      "duration": 0.0161,
      "velocity": 101,
      "chip": "ym2612"
    },
    {
      "channel": 0,
      "note": 38,
      "start": 50.6159,
      "duration": 0.0161,
      "velocity": 115,
      "chip": "ym2612"
    },
    {
      "channel": 4,
      "note": 61,
      "start": 50.6171,
      "duration": 0.0161,
      "velocity": 101,
      "chip": "ym2612"
    },
    {
      "channel": 3,
      "note": 64,
      "start": 50.6182,
      "duration": 0.0161,
      "velocity": 101,
      "chip": "ym2612"
    },
    {
      "channel": 1,
      "note": 69,
      "start": 50.6204,
      "duration": 0.0161,
      "velocity": 101,
      "chip": "ym2612"
    },
    {
      "channel": 0,
      "note": 39,
      "start": 50.632,
      "duration": 0.0162,
      "velocity": 115,
      "chip": "ym2612"
    },
    {
      "channel": 4,
      "note": 61,
      "start": 50.6332,
      "duration": 0.0161,
      "velocity": 101,
      "chip": "ym2612"
    },
    {
      "channel": 3,
      "note": 64,
      "start": 50.6343,
      "duration": 0.0161,
      "velocity": 101,
      "chip": "ym2612"
    },
    {
      "channel": 1,
      "note": 69,
      "start": 50.6365,
      "duration": 0.0162,
      "velocity": 101,
      "chip": "ym2612"
    },
    {
      "channel": 0,
      "note": 39,
      "start": 50.6481,
      "duration": 0.0161,
      "velocity": 115,
      "chip": "ym2612"
    },
    {
      "channel": 4,
      "note": 61,
      "start": 50.6493,
      "duration": 0.0161,
      "velocity": 101,
      "chip": "ym2612"
    },
    {
      "channel": 3,
      "note": 64,
      "start": 50.6504,
      "duration": 0.0161,
      "velocity": 101,
      "chip": "ym2612"
    },
    {
      "channel": 1,
      "note": 69,
      "start": 50.6527,
      "duration": 0.0161,
      "velocity": 101,
      "chip": "ym2612"
    },
    {
      "channel": 0,
      "note": 40,
      "start": 50.6642,
      "duration": 0.0161,
      "velocity": 115,
      "chip": "ym2612"
    },
    {
      "channel": 4,
      "note": 61,
      "start": 50.6654,
      "duration": 0.0161,
      "velocity": 101,
      "chip": "ym2612"
    },
    {
      "channel": 3,
      "note": 64,
      "start": 50.6665,
      "duration": 0.0161,
      "velocity": 101,
      "chip": "ym2612"
    },
    {
      "channel": 1,
      "note": 69,
      "start": 50.6688,
      "duration": 0.0161,
      "velocity": 101,
      "chip": "ym2612"
    },
    {
      "channel": 0,
      "note": 40,
      "start": 50.6803,
      "duration": 0.0161,
      "velocity": 115,
      "chip": "ym2612"
    },
    {
      "channel": 4,
      "note": 61,
      "start": 50.6815,
      "duration": 0.0161,
      "velocity": 101,
      "chip": "ym2612"
    },
    {
      "channel": 3,
      "note": 64,
      "start": 50.6826,
      "duration": 0.0161,
      "velocity": 101,
      "chip": "ym2612"
    },
    {
      "channel": 1,
      "note": 69,
      "start": 50.6849,
      "duration": 0.0161,
      "velocity": 101,
      "chip": "ym2612"
    },
    {
      "channel": 0,
      "note": 40,
      "start": 50.6964,
      "duration": 0.0161,
      "velocity": 115,
      "chip": "ym2612"
    },
    {
      "channel": 4,
      "note": 61,
      "start": 50.6976,
      "duration": 0.0161,
      "velocity": 101,
      "chip": "ym2612"
    },
    {
      "channel": 3,
      "note": 64,
      "start": 50.6987,
      "duration": 0.0161,
      "velocity": 101,
      "chip": "ym2612"
    },
    {
      "channel": 1,
      "note": 69,
      "start": 50.701,
      "duration": 0.0161,
      "velocity": 101,
      "chip": "ym2612"
    },
    {
      "channel": 0,
      "note": 41,
      "start": 50.7125,
      "duration": 0.0163,
      "velocity": 115,
      "chip": "ym2612"
    },
    {
      "channel": 4,
      "note": 61,
      "start": 50.7136,
      "duration": 0.0163,
      "velocity": 101,
      "chip": "ym2612"
    },
    {
      "channel": 3,
      "note": 64,
      "start": 50.7148,
      "duration": 0.0163,
      "velocity": 101,
      "chip": "ym2612"
    },
    {
      "channel": 1,
      "note": 69,
      "start": 50.7171,
      "duration": 0.0163,
      "velocity": 101,
      "chip": "ym2612"
    },
    {
      "channel": 0,
      "note": 41,
      "start": 50.7288,
      "duration": 0.0159,
      "velocity": 115,
      "chip": "ym2612"
    },
    {
      "channel": 4,
      "note": 61,
      "start": 50.7299,
      "duration": 0.0159,
      "velocity": 101,
      "chip": "ym2612"
    },
    {
      "channel": 3,
      "note": 64,
      "start": 50.7311,
      "duration": 0.0159,
      "velocity": 101,
      "chip": "ym2612"
    },
    {
      "channel": 1,
      "note": 69,
      "start": 50.7334,
      "duration": 0.0159,
      "velocity": 101,
      "chip": "ym2612"
    },
    {
      "channel": 0,
      "note": 42,
      "start": 50.7447,
      "duration": 0.0178,
      "velocity": 115,
      "chip": "ym2612"
    },
    {
      "channel": 4,
      "note": 61,
      "start": 50.7458,
      "duration": 0.0178,
      "velocity": 101,
      "chip": "ym2612"
    },
    {
      "channel": 3,
      "note": 64,
      "start": 50.747,
      "duration": 0.0178,
      "velocity": 101,
      "chip": "ym2612"
    },
    {
      "channel": 1,
      "note": 69,
      "start": 50.7493,
      "duration": 0.0178,
      "velocity": 101,
      "chip": "ym2612"
    },
    {
      "channel": 0,
      "note": 42,
      "start": 50.7624,
      "duration": 0.0167,
      "velocity": 115,
      "chip": "ym2612"
    },
    {
      "channel": 4,
      "note": 61,
      "start": 50.7636,
      "duration": 0.0167,
      "velocity": 101,
      "chip": "ym2612"
    },
    {
      "channel": 3,
      "note": 64,
      "start": 50.7648,
      "duration": 0.0167,
      "velocity": 101,
      "chip": "ym2612"
    },
    {
      "channel": 1,
      "note": 69,
      "start": 50.767,
      "duration": 0.0167,
      "velocity": 101,
      "chip": "ym2612"
    },
    {
      "channel": 0,
      "note": 43,
      "start": 50.7792,
      "duration": 0.0162,
      "velocity": 115,
      "chip": "ym2612"
    },
    {
      "channel": 4,
      "note": 61,
      "start": 50.7803,
      "duration": 0.0162,
      "velocity": 101,
      "chip": "ym2612"
    },
    {
      "channel": 3,
      "note": 64,
      "start": 50.7815,
      "duration": 0.0162,
      "velocity": 101,
      "chip": "ym2612"
    },
    {
      "channel": 1,
      "note": 69,
      "start": 50.7837,
      "duration": 0.0162,
      "velocity": 101,
      "chip": "ym2612"
    },
    {
      "channel": 0,
      "note": 43,
      "start": 50.7954,
      "duration": 0.0141,
      "velocity": 115,
      "chip": "ym2612"
    },
    {
      "channel": 4,
      "note": 61,
      "start": 50.7965,
      "duration": 0.0141,
      "velocity": 101,
      "chip": "ym2612"
    },
    {
      "channel": 3,
      "note": 64,
      "start": 50.7977,
      "duration": 0.0141,
      "velocity": 101,
      "chip": "ym2612"
    },
    {
      "channel": 1,
      "note": 69,
      "start": 50.8,
      "duration": 0.0141,
      "velocity": 101,
      "chip": "ym2612"
    },
    {
      "channel": 0,
      "note": 44,
      "start": 50.8094,
      "duration": 0.0185,
      "velocity": 115,
      "chip": "ym2612"
    },
    {
      "channel": 4,
      "note": 61,
      "start": 50.8106,
      "duration": 0.0185,
      "velocity": 101,
      "chip": "ym2612"
    },
    {
      "channel": 3,
      "note": 64,
      "start": 50.8117,
      "duration": 0.0185,
      "velocity": 101,
      "chip": "ym2612"
    },
    {
      "channel": 1,
      "note": 69,
      "start": 50.814,
      "duration": 0.0185,
      "velocity": 101,
      "chip": "ym2612"
    },
    {
      "channel": 0,
      "note": 44,
      "start": 50.828,
      "duration": 0.0161,
      "velocity": 115,
      "chip": "ym2612"
    },
    {
      "channel": 4,
      "note": 61,
      "start": 50.8291,
      "duration": 0.0162,
      "velocity": 101,
      "chip": "ym2612"
    },
    {
      "channel": 3,
      "note": 64,
      "start": 50.8302,
      "duration": 0.0161,
      "velocity": 101,
      "chip": "ym2612"
    },
    {
      "channel": 1,
      "note": 69,
      "start": 50.8325,
      "duration": 0.0161,
      "velocity": 101,
      "chip": "ym2612"
    },
    {
      "channel": 0,
      "note": 44,
      "start": 50.844,
      "duration": 0.0134,
      "velocity": 115,
      "chip": "ym2612"
    },
    {
      "channel": 4,
      "note": 61,
      "start": 50.8453,
      "duration": 0.0157,
      "velocity": 101,
      "chip": "ym2612"
    },
    {
      "channel": 3,
      "note": 64,
      "start": 50.8464,
      "duration": 0.0157,
      "velocity": 101,
      "chip": "ym2612"
    },
    {
      "channel": 1,
      "note": 69,
      "start": 50.8486,
      "duration": 0.0157,
      "velocity": 101,
      "chip": "ym2612"
    },
    {
      "channel": 0,
      "note": 45,
      "start": 50.8574,
      "duration": 0.0161,
      "velocity": 115,
      "chip": "ym2612"
    },
    {
      "channel": 4,
      "note": 61,
      "start": 50.861,
      "duration": 0.014,
      "velocity": 101,
      "chip": "ym2612"
    },
    {
      "channel": 3,
      "note": 64,
      "start": 50.8621,
      "duration": 0.014,
      "velocity": 101,
      "chip": "ym2612"
    },
    {
      "channel": 1,
      "note": 69,
      "start": 50.8643,
      "duration": 0.0141,
      "velocity": 101,
      "chip": "ym2612"
    },
    {
      "channel": 0,
      "note": 45,
      "start": 50.8735,
      "duration": 0.0161,
      "velocity": 115,
      "chip": "ym2612"
    },
    {
      "channel": 4,
      "note": 61,
      "start": 50.875,
      "duration": 0.0158,
      "velocity": 101,
      "chip": "ym2612"
    },
    {
      "channel": 3,
      "note": 64,
      "start": 50.8761,
      "duration": 0.0186,
      "velocity": 101,
      "chip": "ym2612"
    },
    {
      "channel": 1,
      "note": 69,
      "start": 50.8784,
      "duration": 0.0185,
      "velocity": 101,
      "chip": "ym2612"
    },
    {
      "channel": 0,
      "note": 46,
      "start": 50.8896,
      "duration": 0.0161,
      "velocity": 115,
      "chip": "ym2612"
    },
    {
      "channel": 4,
      "note": 61,
      "start": 50.8907,
      "duration": 0.0161,
      "velocity": 101,
      "chip": "ym2612"
    },
    {
      "channel": 3,
      "note": 64,
      "start": 50.8947,
      "duration": 0.0161,
      "velocity": 101,
      "chip": "ym2612"
    },
    {
      "channel": 1,
      "note": 69,
      "start": 50.8969,
      "duration": 0.0161,
      "velocity": 101,
      "chip": "ym2612"
    },
    {
      "channel": 0,
      "note": 46,
      "start": 50.9057,
      "duration": 0.0161,
      "velocity": 115,
      "chip": "ym2612"
    },
    {
      "channel": 4,
      "note": 61,
      "start": 50.9068,
      "duration": 0.0162,
      "velocity": 101,
      "chip": "ym2612"
    },
    {
      "channel": 3,
      "note": 64,
      "start": 50.9108,
      "duration": 0.0134,
      "velocity": 101,
      "chip": "ym2612"
    },
    {
      "channel": 1,
      "note": 69,
      "start": 50.913,
      "duration": 0.0158,
      "velocity": 101,
      "chip": "ym2612"
    },
    {
      "channel": 0,
      "note": 47,
      "start": 50.9218,
      "duration": 0.0162,
      "velocity": 115,
      "chip": "ym2612"
    },
    {
      "channel": 4,
      "note": 61,
      "start": 50.923,
      "duration": 0.0161,
      "velocity": 101,
      "chip": "ym2612"
    },
    {
      "channel": 3,
      "note": 64,
      "start": 50.9241,
      "duration": 0.0161,
      "velocity": 101,
      "chip": "ym2612"
    },
    {
      "channel": 1,
      "note": 69,
      "start": 50.9288,
      "duration": 0.0141,
      "velocity": 101,
      "chip": "ym2612"
    },
    {
      "channel": 0,
      "note": 47,
      "start": 50.9379,
      "duration": 0.0161,
      "velocity": 115,
      "chip": "ym2612"
    },
    {
      "channel": 4,
      "note": 61,
      "start": 50.9391,
      "duration": 0.0161,
      "velocity": 101,
      "chip": "ym2612"
    },
    {
      "channel": 3,
      "note": 64,
      "start": 50.9402,
      "duration": 0.0161,
      "velocity": 101,
      "chip": "ym2612"
    },
    {
      "channel": 1,
      "note": 69,
      "start": 50.9428,
      "duration": 0.0185,
      "velocity": 101,
      "chip": "ym2612"
    },
    {
      "channel": 0,
      "note": 47,
      "start": 50.954,
      "duration": 0.0161,
      "velocity": 115,
      "chip": "ym2612"
    },
    {
      "channel": 4,
      "note": 61,
      "start": 50.9552,
      "duration": 0.0161,
      "velocity": 101,
      "chip": "ym2612"
    },
    {
      "channel": 3,
      "note": 64,
      "start": 50.9563,
      "duration": 0.0161,
      "velocity": 101,
      "chip": "ym2612"
    },
    {
      "channel": 1,
      "note": 69,
      "start": 50.9613,
      "duration": 0.0161,
      "velocity": 101,
      "chip": "ym2612"
    },
    {
      "channel": 0,
      "note": 48,
      "start": 50.9701,
      "duration": 0.0178,
      "velocity": 124,
      "chip": "ym2612"
    },
    {
      "channel": 4,
      "note": 61,
      "start": 50.9713,
      "duration": 0.0179,
      "velocity": 101,
      "chip": "ym2612"
    },
    {
      "channel": 3,
      "note": 64,
      "start": 50.9724,
      "duration": 0.0179,
      "velocity": 101,
      "chip": "ym2612"
    },
    {
      "channel": 1,
      "note": 69,
      "start": 50.9774,
      "duration": 0.0175,
      "velocity": 101,
      "chip": "ym2612"
    },
    {
      "channel": 0,
      "note": 84,
      "start": 50.988,
      "duration": 0.0144,
      "velocity": 124,
      "chip": "ym2612"
    },
    {
      "channel": 4,
      "note": 61,
      "start": 50.9891,
      "duration": 0.0144,
      "velocity": 101,
      "chip": "ym2612"
    },
    {
      "channel": 3,
      "note": 64,
      "start": 50.9903,
      "duration": 0.0144,
      "velocity": 101,
      "chip": "ym2612"
    },
    {
      "channel": 1,
      "note": 69,
      "start": 50.9949,
      "duration": 0.012,
      "velocity": 101,
      "chip": "ym2612"
    },
    {
      "channel": 0,
      "note": 82,
      "start": 51.0024,
      "duration": 0.016,
      "velocity": 124,
      "chip": "ym2612"
    },
    {
      "channel": 4,
      "note": 61,
      "start": 51.0035,
      "duration": 0.016,
      "velocity": 101,
      "chip": "ym2612"
    },
    {
      "channel": 3,
      "note": 64,
      "start": 51.0047,
      "duration": 0.016,
      "velocity": 101,
      "chip": "ym2612"
    },
    {
      "channel": 1,
      "note": 69,
      "start": 51.007,
      "duration": 0.016,
      "velocity": 101,
      "chip": "ym2612"
    },
    {
      "channel": 0,
      "note": 80,
      "start": 51.0184,
      "duration": 0.0161,
      "velocity": 124,
      "chip": "ym2612"
    },
    {
      "channel": 4,
      "note": 61,
      "start": 51.0195,
      "duration": 0.0162,
      "velocity": 101,
      "chip": "ym2612"
    },
    {
      "channel": 3,
      "note": 64,
      "start": 51.0207,
      "duration": 0.0161,
      "velocity": 101,
      "chip": "ym2612"
    },
    {
      "channel": 1,
      "note": 69,
      "start": 51.023,
      "duration": 0.0161,
      "velocity": 101,
      "chip": "ym2612"
    },
    {
      "channel": 0,
      "note": 77,
      "start": 51.0345,
      "duration": 0.0161,
      "velocity": 124,
      "chip": "ym2612"
    },
    {
      "channel": 4,
      "note": 61,
      "start": 51.0357,
      "duration": 0.0161,
      "velocity": 101,
      "chip": "ym2612"
    },
    {
      "channel": 3,
      "note": 64,
      "start": 51.0368,
      "duration": 0.0161,
      "velocity": 101,
      "chip": "ym2612"
    },
    {
      "channel": 1,
      "note": 69,
      "start": 51.0391,
      "duration": 0.0161,
      "velocity": 101,
      "chip": "ym2612"
    },
    {
      "channel": 0,
      "note": 75,
      "start": 51.0506,
      "duration": 0.0161,
      "velocity": 124,
      "chip": "ym2612"
    },
    {
      "channel": 4,
      "note": 61,
      "start": 51.0518,
      "duration": 0.0161,
      "velocity": 101,
      "chip": "ym2612"
    },
    {
      "channel": 3,
      "note": 64,
      "start": 51.0529,
      "duration": 0.0161,
      "velocity": 101,
      "chip": "ym2612"
    },
    {
      "channel": 1,
      "note": 69,
      "start": 51.0552,
      "duration": 0.0161,
      "velocity": 101,
      "chip": "ym2612"
    },
    {
      "channel": 0,
      "note": 72,
      "start": 51.0667,
      "duration": 0.0162,
      "velocity": 124,
      "chip": "ym2612"
    },
    {
      "channel": 4,
      "note": 61,
      "start": 51.0679,
      "duration": 0.0161,
      "velocity": 101,
      "chip": "ym2612"
    },
    {
      "channel": 3,
      "note": 64,
      "start": 51.069,
      "duration": 0.0161,
      "velocity": 101,
      "chip": "ym2612"
    },
    {
      "channel": 1,
      "note": 69,
      "start": 51.0713,
      "duration": 0.0162,
      "velocity": 101,
      "chip": "ym2612"
    },
    {
      "channel": 0,
      "note": 70,
      "start": 51.0829,
      "duration": 0.0161,
      "velocity": 124,
      "chip": "ym2612"
    },
    {
      "channel": 4,
      "note": 61,
      "start": 51.084,
      "duration": 0.0161,
      "velocity": 101,
      "chip": "ym2612"
    },
    {
      "channel": 3,
      "note": 64,
      "start": 51.0851,
      "duration": 0.0161,
      "velocity": 101,
      "chip": "ym2612"
    },
    {
      "channel": 1,
      "note": 69,
      "start": 51.0874,
      "duration": 0.0161,
      "velocity": 101,
      "chip": "ym2612"
    },
    {
      "channel": 0,
      "note": 68,
      "start": 51.0989,
      "duration": 0.0161,
      "velocity": 124,
      "chip": "ym2612"
    },
    {
      "channel": 4,
      "note": 61,
      "start": 51.1001,
      "duration": 0.0161,
      "velocity": 101,
      "chip": "ym2612"
    },
    {
      "channel": 3,
      "note": 64,
      "start": 51.1012,
      "duration": 0.0161,
      "velocity": 101,
      "chip": "ym2612"
    },
    {
      "channel": 1,
      "note": 69,
      "start": 51.1035,
      "duration": 0.0161,
      "velocity": 101,
      "chip": "ym2612"
    },
    {
      "channel": 0,
      "note": 65,
      "start": 51.115,
      "duration": 0.0161,
      "velocity": 124,
      "chip": "ym2612"
    },
    {
      "channel": 4,
      "note": 61,
      "start": 51.1162,
      "duration": 0.0161,
      "velocity": 101,
      "chip": "ym2612"
    },
    {
      "channel": 3,
      "note": 64,
      "start": 51.1173,
      "duration": 0.0161,
      "velocity": 101,
      "chip": "ym2612"
    },
    {
      "channel": 1,
      "note": 69,
      "start": 51.1196,
      "duration": 0.0161,
      "velocity": 101,
      "chip": "ym2612"
    },
    {
      "channel": 0,
      "note": 63,
      "start": 51.1311,
      "duration": 0.0153,
      "velocity": 1,
      "chip": "ym2612"
    },
    {
      "channel": 4,
      "note": 61,
      "start": 51.1323,
      "duration": 0.0153,
      "velocity": 101,
      "chip": "ym2612"
    },
    {
      "channel": 3,
      "note": 64,
      "start": 51.1334,
      "duration": 0.0153,
      "velocity": 101,
      "chip": "ym2612"
    },
    {
      "channel": 1,
      "note": 69,
      "start": 51.1357,
      "duration": 0.0153,
      "velocity": 101,
      "chip": "ym2612"
    },
    {
      "channel": 4,
      "note": 61,
      "start": 51.1476,
      "duration": 0.0152,
      "velocity": 101,
      "chip": "ym2612"
    },
    {
      "channel": 3,
      "note": 64,
      "start": 51.1488,
      "duration": 0.0152,
      "velocity": 101,
      "chip": "ym2612"
    },
    {
      "channel": 1,
      "note": 69,
      "start": 51.151,
      "duration": 0.0153,
      "velocity": 101,
      "chip": "ym2612"
    },
    {
      "channel": 4,
      "note": 61,
      "start": 51.1628,
      "duration": 0.0161,
      "velocity": 101,
      "chip": "ym2612"
    },
    {
      "channel": 3,
      "note": 64,
      "start": 51.1639,
      "duration": 0.0162,
      "velocity": 101,
      "chip": "ym2612"
    },
    {
      "channel": 1,
      "note": 69,
      "start": 51.1662,
      "duration": 0.0161,
      "velocity": 101,
      "chip": "ym2612"
    },
    {
      "channel": 4,
      "note": 61,
      "start": 51.179,
      "duration": 0.0161,
      "velocity": 101,
      "chip": "ym2612"
    },
    {
      "channel": 3,
      "note": 64,
      "start": 51.1801,
      "duration": 0.0161,
      "velocity": 101,
      "chip": "ym2612"
    },
    {
      "channel": 1,
      "note": 69,
      "start": 51.1823,
      "duration": 0.0162,
      "velocity": 101,
      "chip": "ym2612"
    },
    {
      "channel": 4,
      "note": 61,
      "start": 51.1951,
      "duration": 0.0197,
      "velocity": 101,
      "chip": "ym2612"
    },
    {
      "channel": 3,
      "note": 64,
      "start": 51.1962,
      "duration": 0.02,
      "velocity": 101,
      "chip": "ym2612"
    },
    {
      "channel": 1,
      "note": 69,
      "start": 51.1985,
      "duration": 0.0202,
      "velocity": 101,
      "chip": "ym2612"
    },
    {
      "channel": 0,
      "note": 36,
      "start": 51.2134,
      "duration": 0.0159,
      "velocity": 115,
      "chip": "ym2612"
    },
    {
      "channel": 4,
      "note": 61,
      "start": 51.2149,
      "duration": 0.0156,
      "velocity": 101,
      "chip": "ym2612"
    },
    {
      "channel": 3,
      "note": 64,
      "start": 51.2162,
      "duration": 0.0154,
      "velocity": 101,
      "chip": "ym2612"
    },
    {
      "channel": 1,
      "note": 69,
      "start": 51.2188,
      "duration": 0.0151,
      "velocity": 101,
      "chip": "ym2612"
    },
    {
      "channel": 0,
      "note": 36,
      "start": 51.2292,
      "duration": 0.0166,
      "velocity": 115,
      "chip": "ym2612"
    },
    {
      "channel": 4,
      "note": 61,
      "start": 51.2304,
      "duration": 0.0165,
      "velocity": 101,
      "chip": "ym2612"
    },
    {
      "channel": 3,
      "note": 64,
      "start": 51.2316,
      "duration": 0.0165,
      "velocity": 101,
      "chip": "ym2612"
    },
    {
      "channel": 1,
      "note": 69,
      "start": 51.2339,
      "duration": 0.0165,
      "velocity": 101,
      "chip": "ym2612"
    },
    {
      "channel": 0,
      "note": 37,
      "start": 51.2458,
      "duration": 0.0163,
      "velocity": 115,
      "chip": "ym2612"
    },
    {
      "channel": 4,
      "note": 61,
      "start": 51.247,
      "duration": 0.0163,
      "velocity": 101,
      "chip": "ym2612"
    },
    {
      "channel": 3,
      "note": 64,
      "start": 51.2481,
      "duration": 0.0163,
      "velocity": 101,
      "chip": "ym2612"
    },
    {
      "channel": 1,
      "note": 69,
      "start": 51.2504,
      "duration": 0.0163,
      "velocity": 101,
      "chip": "ym2612"
    },
    {
      "channel": 0,
      "note": 37,
      "start": 51.2621,
      "duration": 0.0142,
      "velocity": 115,
      "chip": "ym2612"
    },
    {
      "channel": 4,
      "note": 61,
      "start": 51.2632,
      "duration": 0.0143,
      "velocity": 101,
      "chip": "ym2612"
    },
    {
      "channel": 3,
      "note": 64,
      "start": 51.2644,
      "duration": 0.0142,
      "velocity": 101,
      "chip": "ym2612"
    },
    {
      "channel": 1,
      "note": 69,
      "start": 51.2667,
      "duration": 0.0142,
      "velocity": 101,
      "chip": "ym2612"
    },
    {
      "channel": 0,
      "note": 38,
      "start": 51.2763,
      "duration": 0.0185,
      "velocity": 115,
      "chip": "ym2612"
    },
    {
      "channel": 4,
      "note": 61,
      "start": 51.2775,
      "duration": 0.0185,
      "velocity": 101,
      "chip": "ym2612"
    },
    {
      "channel": 3,
      "note": 64,
      "start": 51.2786,
      "duration": 0.0185,
      "velocity": 101,
      "chip": "ym2612"
    },
    {
      "channel": 1,
      "note": 69,
      "start": 51.2809,
      "duration": 0.0185,
      "velocity": 101,
      "chip": "ym2612"
    },
    {
      "channel": 0,
      "note": 38,
      "start": 51.2949,
      "duration": 0.0161,
      "velocity": 115,
      "chip": "ym2612"
    },
    {
      "channel": 4,
      "note": 61,
      "start": 51.296,
      "duration": 0.0161,
      "velocity": 101,
      "chip": "ym2612"
    },
    {
      "channel": 3,
      "note": 64,
      "start": 51.2972,
      "duration": 0.0161,
      "velocity": 101,
      "chip": "ym2612"
    },
    {
      "channel": 1,
      "note": 69,
      "start": 51.2995,
      "duration": 0.0161,
      "velocity": 101,
      "chip": "ym2612"
    },
    {
      "channel": 0,
      "note": 39,
      "start": 51.311,
      "duration": 0.0134,
      "velocity": 115,
      "chip": "ym2612"
    },
    {
      "channel": 4,
      "note": 61,
      "start": 51.3121,
      "duration": 0.0158,
      "velocity": 101,
      "chip": "ym2612"
    },
    {
      "channel": 3,
      "note": 64,
      "start": 51.3132,
      "duration": 0.0158,
      "velocity": 101,
      "chip": "ym2612"
    },
    {
      "channel": 1,
      "note": 69,
      "start": 51.3155,
      "duration": 0.0157,
      "velocity": 101,
      "chip": "ym2612"
    },
    {
      "channel": 0,
      "note": 39,
      "start": 51.3243,
      "duration": 0.0161,
      "velocity": 115,
      "chip": "ym2612"
    },
    {
      "channel": 4,
      "note": 61,
      "start": 51.3279,
      "duration": 0.0141,
      "velocity": 101,
      "chip": "ym2612"
    },
    {
      "channel": 3,
      "note": 64,
      "start": 51.329,
      "duration": 0.0141,
      "velocity": 101,
      "chip": "ym2612"
    },
    {
      "channel": 1,
      "note": 69,
      "start": 51.3312,
      "duration": 0.0141,
      "velocity": 101,
      "chip": "ym2612"
    },
    {
      "channel": 0,
      "note": 40,
      "start": 51.3404,
      "duration": 0.0161,
      "velocity": 115,
      "chip": "ym2612"
    },
    {
      "channel": 4,
      "note": 61,
      "start": 51.342,
      "duration": 0.0158,
      "velocity": 101,
      "chip": "ym2612"
    },
    {
      "channel": 3,
      "note": 64,
      "start": 51.3431,
      "duration": 0.0185,
      "velocity": 101,
      "chip": "ym2612"
    },
    {
      "channel": 1,
      "note": 69,
      "start": 51.3453,
      "duration": 0.0185,
      "velocity": 101,
      "chip": "ym2612"
    },
    {
      "channel": 0,
      "note": 40,
      "start": 51.3565,
      "duration": 0.0161,
      "velocity": 115,
      "chip": "ym2612"
    },
    {
      "channel": 4,
      "note": 61,
      "start": 51.3577,
      "duration": 0.0161,
      "velocity": 101,
      "chip": "ym2612"
    },
    {
      "channel": 3,
      "note": 64,
      "start": 51.3616,
      "duration": 0.0161,
      "velocity": 101,
      "chip": "ym2612"
    },
    {
      "channel": 1,
      "note": 69,
      "start": 51.3638,
      "duration": 0.0161,
      "velocity": 101,
      "chip": "ym2612"
    },
    {
      "channel": 0,
      "note": 40,
      "start": 51.3726,
      "duration": 0.0161,
      "velocity": 115,
      "chip": "ym2612"
    },
    {
      "channel": 4,
      "note": 61,
      "start": 51.3738,
      "duration": 0.0161,
      "velocity": 101,
      "chip": "ym2612"
    },
    {
      "channel": 3,
      "note": 64,
      "start": 51.3777,
      "duration": 0.0134,
      "velocity": 101,
      "chip": "ym2612"
    },
    {
      "channel": 1,
      "note": 69,
      "start": 51.3799,
      "duration": 0.0158,
      "velocity": 101,
      "chip": "ym2612"
    },
    {
      "channel": 0,
      "note": 41,
      "start": 51.3888,
      "duration": 0.0161,
      "velocity": 115,
      "chip": "ym2612"
    },
    {
      "channel": 4,
      "note": 61,
      "start": 51.3899,
      "duration": 0.0161,
      "velocity": 101,
      "chip": "ym2612"
    },
    {
      "channel": 3,
      "note": 64,
      "start": 51.391,
      "duration": 0.0161,
      "velocity": 101,
      "chip": "ym2612"
    },
    {
      "channel": 1,
      "note": 69,
      "start": 51.3957,
      "duration": 0.0141,
      "velocity": 101,
      "chip": "ym2612"
    },
    {
      "channel": 0,
      "note": 41,
      "start": 51.4049,
      "duration": 0.0161,
      "velocity": 115,
      "chip": "ym2612"
    },
    {
      "channel": 4,
      "note": 61,
      "start": 51.406,
      "duration": 0.0161,
      "velocity": 101,
      "chip": "ym2612"
    },
    {
      "channel": 3,
      "note": 64,
      "start": 51.4071,
      "duration": 0.0161,
      "velocity": 101,
      "chip": "ym2612"
    },
    {
      "channel": 1,
      "note": 69,
      "start": 51.4098,
      "duration": 0.0185,
      "velocity": 101,
      "chip": "ym2612"
    },
    {
      "channel": 0,
      "note": 42,
      "start": 51.421,
      "duration": 0.0161,
      "velocity": 115,
      "chip": "ym2612"
    },
    {
      "channel": 4,
      "note": 61,
      "start": 51.4221,
      "duration": 0.0161,
      "velocity": 101,
      "chip": "ym2612"
    },
    {
      "channel": 3,
      "note": 64,
      "start": 51.4232,
      "duration": 0.0161,
      "velocity": 101,
      "chip": "ym2612"
    },
    {
      "channel": 1,
      "note": 69,
      "start": 51.4283,
      "duration": 0.0161,
      "velocity": 101,
      "chip": "ym2612"
    },
    {
      "channel": 0,
      "note": 42,
      "start": 51.4371,
      "duration": 0.0161,
      "velocity": 115,
      "chip": "ym2612"
    },
    {
      "channel": 4,
      "note": 61,
      "start": 51.4382,
      "duration": 0.0161,
      "velocity": 101,
      "chip": "ym2612"
    },
    {
      "channel": 3,
      "note": 64,
      "start": 51.4393,
      "duration": 0.0161,
      "velocity": 101,
      "chip": "ym2612"
    },
    {
      "channel": 1,
      "note": 69,
      "start": 51.4444,
      "duration": 0.0134,
      "velocity": 101,
      "chip": "ym2612"
    },
    {
      "channel": 0,
      "note": 43,
      "start": 51.4531,
      "duration": 0.0161,
      "velocity": 115,
      "chip": "ym2612"
    },
    {
      "channel": 4,
      "note": 61,
      "start": 51.4543,
      "duration": 0.0161,
      "velocity": 101,
      "chip": "ym2612"
    },
    {
      "channel": 3,
      "note": 64,
      "start": 51.4554,
      "duration": 0.0161,
      "velocity": 101,
      "chip": "ym2612"
    },
    {
      "channel": 1,
      "note": 69,
      "start": 51.4577,
      "duration": 0.0161,
      "velocity": 101,
      "chip": "ym2612"
    },
    {
      "channel": 0,
      "note": 43,
      "start": 51.4692,
      "duration": 0.0161,
      "velocity": 115,
      "chip": "ym2612"
    },
    {
      "channel": 4,
      "note": 61,
      "start": 51.4704,
      "duration": 0.0161,
      "velocity": 101,
      "chip": "ym2612"
    },
    {
      "channel": 3,
      "note": 64,
      "start": 51.4715,
      "duration": 0.0161,
      "velocity": 101,
      "chip": "ym2612"
    },
    {
      "channel": 1,
      "note": 69,
      "start": 51.4738,
      "duration": 0.0161,
      "velocity": 101,
      "chip": "ym2612"
    },
    {
      "channel": 0,
      "note": 44,
      "start": 51.4853,
      "duration": 0.0161,
      "velocity": 115,
      "chip": "ym2612"
    },
    {
      "channel": 4,
      "note": 61,
      "start": 51.4865,
      "duration": 0.0162,
      "velocity": 101,
      "chip": "ym2612"
    },
    {
      "channel": 3,
      "note": 64,
      "start": 51.4876,
      "duration": 0.0161,
      "velocity": 101,
      "chip": "ym2612"
    },
    {
      "channel": 1,
      "note": 69,
      "start": 51.4899,
      "duration": 0.0161,
      "velocity": 101,
      "chip": "ym2612"
    },
    {
      "channel": 0,
      "note": 44,
      "start": 51.5014,
      "duration": 0.0161,
      "velocity": 115,
      "chip": "ym2612"
    },
    {
      "channel": 4,
      "note": 61,
      "start": 51.5026,
      "duration": 0.0161,
      "velocity": 101,
      "chip": "ym2612"
    },
    {
      "channel": 3,
      "note": 64,
      "start": 51.5038,
      "duration": 0.0161,
      "velocity": 101,
      "chip": "ym2612"
    },
    {
      "channel": 1,
      "note": 69,
      "start": 51.506,
      "duration": 0.0161,
      "velocity": 101,
      "chip": "ym2612"
    },
    {
      "channel": 0,
      "note": 44,
      "start": 51.5176,
      "duration": 0.0161,
      "velocity": 115,
      "chip": "ym2612"
    },
    {
      "channel": 4,
      "note": 61,
      "start": 51.5187,
      "duration": 0.0161,
      "velocity": 101,
      "chip": "ym2612"
    },
    {
      "channel": 3,
      "note": 64,
      "start": 51.5199,
      "duration": 0.0161,
      "velocity": 101,
      "chip": "ym2612"
    },
    {
      "channel": 1,
      "note": 69,
      "start": 51.5222,
      "duration": 0.0161,
      "velocity": 101,
      "chip": "ym2612"
    },
    {
      "channel": 0,
      "note": 45,
      "start": 51.5337,
      "duration": 0.0161,
      "velocity": 115,
      "chip": "ym2612"
    },
    {
      "channel": 4,
      "note": 61,
      "start": 51.5348,
      "duration": 0.0161,
      "velocity": 101,
      "chip": "ym2612"
    },
    {
      "channel": 3,
      "note": 64,
      "start": 51.536,
      "duration": 0.0161,
      "velocity": 101,
      "chip": "ym2612"
    },
    {
      "channel": 1,
      "note": 69,
      "start": 51.5383,
      "duration": 0.0161,
      "velocity": 101,
      "chip": "ym2612"
    },
    {
      "channel": 0,
      "note": 45,
      "start": 51.5498,
      "duration": 0.0161,
      "velocity": 115,
      "chip": "ym2612"
    },
    {
      "channel": 4,
      "note": 61,
      "start": 51.5509,
      "duration": 0.0161,
      "velocity": 101,
      "chip": "ym2612"
    },
    {
      "channel": 3,
      "note": 64,
      "start": 51.5521,
      "duration": 0.0161,
      "velocity": 101,
      "chip": "ym2612"
    },
    {
      "channel": 1,
      "note": 69,
      "start": 51.5544,
      "duration": 0.0161,
      "velocity": 101,
      "chip": "ym2612"
    },
    {
      "channel": 0,
      "note": 46,
      "start": 51.5659,
      "duration": 0.0161,
      "velocity": 115,
      "chip": "ym2612"
    },
    {
      "channel": 4,
      "note": 61,
      "start": 51.567,
      "duration": 0.0161,
      "velocity": 101,
      "chip": "ym2612"
    },
    {
      "channel": 3,
      "note": 64,
      "start": 51.5681,
      "duration": 0.0161,
      "velocity": 101,
      "chip": "ym2612"
    },
    {
      "channel": 1,
      "note": 69,
      "start": 51.5704,
      "duration": 0.0161,
      "velocity": 101,
      "chip": "ym2612"
    },
    {
      "channel": 0,
      "note": 46,
      "start": 51.582,
      "duration": 0.0161,
      "velocity": 115,
      "chip": "ym2612"
    },
    {
      "channel": 4,
      "note": 61,
      "start": 51.5831,
      "duration": 0.0161,
      "velocity": 101,
      "chip": "ym2612"
    },
    {
      "channel": 3,
      "note": 64,
      "start": 51.5842,
      "duration": 0.0161,
      "velocity": 101,
      "chip": "ym2612"
    },
    {
      "channel": 1,
      "note": 69,
      "start": 51.5865,
      "duration": 0.0161,
      "velocity": 101,
      "chip": "ym2612"
    },
    {
      "channel": 0,
      "note": 47,
      "start": 51.598,
      "duration": 0.0161,
      "velocity": 115,
      "chip": "ym2612"
    },
    {
      "channel": 4,
      "note": 61,
      "start": 51.5992,
      "duration": 0.0161,
      "velocity": 101,
      "chip": "ym2612"
    },
    {
      "channel": 3,
      "note": 64,
      "start": 51.6003,
      "duration": 0.0161,
      "velocity": 101,
      "chip": "ym2612"
    },
    {
      "channel": 1,
      "note": 69,
      "start": 51.6026,
      "duration": 0.0161,
      "velocity": 101,
      "chip": "ym2612"
    },
    {
      "channel": 0,
      "note": 47,
      "start": 51.6141,
      "duration": 0.0161,
      "velocity": 115,
      "chip": "ym2612"
    },
    {
      "channel": 4,
      "note": 61,
      "start": 51.6153,
      "duration": 0.0161,
      "velocity": 101,
      "chip": "ym2612"
    },
    {
      "channel": 3,
      "note": 64,
      "start": 51.6164,
      "duration": 0.0161,
      "velocity": 101,
      "chip": "ym2612"
    },
    {
      "channel": 1,
      "note": 69,
      "start": 51.6187,
      "duration": 0.0161,
      "velocity": 101,
      "chip": "ym2612"
    },
    {
      "channel": 0,
      "note": 47,
      "start": 51.6302,
      "duration": 0.0161,
      "velocity": 115,
      "chip": "ym2612"
    },
    {
      "channel": 4,
      "note": 61,
      "start": 51.6314,
      "duration": 0.0162,
      "velocity": 101,
      "chip": "ym2612"
    },
    {
      "channel": 3,
      "note": 64,
      "start": 51.6325,
      "duration": 0.0161,
      "velocity": 101,
      "chip": "ym2612"
    },
    {
      "channel": 1,
      "note": 69,
      "start": 51.6348,
      "duration": 0.0161,
      "velocity": 101,
      "chip": "ym2612"
    },
    {
      "channel": 0,
      "note": 48,
      "start": 51.6463,
      "duration": 0.0179,
      "velocity": 115,
      "chip": "ym2612"
    },
    {
      "channel": 4,
      "note": 61,
      "start": 51.6476,
      "duration": 0.0179,
      "velocity": 101,
      "chip": "ym2612"
    },
    {
      "channel": 3,
      "note": 64,
      "start": 51.6487,
      "duration": 0.0179,
      "velocity": 101,
      "chip": "ym2612"
    },
    {
      "channel": 1,
      "note": 69,
      "start": 51.6509,
      "duration": 0.0179,
      "velocity": 101,
      "chip": "ym2612"
    },
    {
      "channel": 0,
      "note": 36,
      "start": 51.6642,
      "duration": 0.0144,
      "velocity": 115,
      "chip": "ym2612"
    },
    {
      "channel": 4,
      "note": 61,
      "start": 51.6654,
      "duration": 0.0144,
      "velocity": 101,
      "chip": "ym2612"
    },
    {
      "channel": 3,
      "note": 64,
      "start": 51.6666,
      "duration": 0.0144,
      "velocity": 101,
      "chip": "ym2612"
    },
    {
      "channel": 1,
      "note": 69,
      "start": 51.6688,
      "duration": 0.0144,
      "velocity": 101,
      "chip": "ym2612"
    },
    {
      "channel": 0,
      "note": 36,
      "start": 51.6786,
      "duration": 0.0172,
      "velocity": 115,
      "chip": "ym2612"
    },
    {
      "channel": 4,
      "note": 61,
      "start": 51.6798,
      "duration": 0.0172,
      "velocity": 101,
      "chip": "ym2612"
    },
    {
      "channel": 3,
      "note": 64,
      "start": 51.6809,
      "duration": 0.0172,
      "velocity": 101,
      "chip": "ym2612"
    },
    {
      "channel": 1,
      "note": 69,
      "start": 51.6832,
      "duration": 0.0172,
      "velocity": 101,
      "chip": "ym2612"
    },
    {
      "channel": 0,
      "note": 37,
      "start": 51.6958,
      "duration": 0.0167,
      "velocity": 115,
      "chip": "ym2612"
    },
    {
      "channel": 4,
      "note": 61,
      "start": 51.697,
      "duration": 0.0167,
      "velocity": 101,
      "chip": "ym2612"
    },
    {
      "channel": 3,
      "note": 64,
      "start": 51.6981,
      "duration": 0.0167,
      "velocity": 101,
      "chip": "ym2612"
    },
    {
      "channel": 1,
      "note": 69,
      "start": 51.7004,
      "duration": 0.0167,
      "velocity": 101,
      "chip": "ym2612"
    },
    {
      "channel": 0,
      "note": 37,
      "start": 51.7125,
      "duration": 0.0163,
      "velocity": 115,
      "chip": "ym2612"
    },
    {
      "channel": 4,
      "note": 61,
      "start": 51.7136,
      "duration": 0.0163,
      "velocity": 101,
      "chip": "ym2612"
    },
    {
      "channel": 3,
      "note": 64,
      "start": 51.7148,
      "duration": 0.0163,
      "velocity": 101,
      "chip": "ym2612"
    },
    {
      "channel": 1,
      "note": 69,
      "start": 51.7171,
      "duration": 0.0163,
      "velocity": 101,
      "chip": "ym2612"
    },
    {
      "channel": 0,
      "note": 38,
      "start": 51.7288,
      "duration": 0.0145,
      "velocity": 115,
      "chip": "ym2612"
    },
    {
      "channel": 4,
      "note": 61,
      "start": 51.7299,
      "duration": 0.0145,
      "velocity": 101,
      "chip": "ym2612"
    },
    {
      "channel": 3,
      "note": 64,
      "start": 51.7311,
      "duration": 0.0145,
      "velocity": 101,
      "chip": "ym2612"
    },
    {
      "channel": 1,
      "note": 69,
      "start": 51.7334,
      "duration": 0.0145,
      "velocity": 101,
      "chip": "ym2612"
    },
    {
      "channel": 0,
      "note": 38,
      "start": 51.7433,
      "duration": 0.0185,
      "velocity": 115,
      "chip": "ym2612"
    },
    {
      "channel": 4,
      "note": 61,
      "start": 51.7444,
      "duration": 0.0186,
      "velocity": 101,
      "chip": "ym2612"
    },
    {
      "channel": 3,
      "note": 64,
      "start": 51.7456,
      "duration": 0.0186,
      "velocity": 101,
      "chip": "ym2612"
    },
    {
      "channel": 1,
      "note": 69,
      "start": 51.7479,
      "duration": 0.0185,
      "velocity": 101,
      "chip": "ym2612"
    },
    {
      "channel": 0,
      "note": 39,
      "start": 51.7618,
      "duration": 0.0161,
      "velocity": 115,
      "chip": "ym2612"
    },
    {
      "channel": 4,
      "note": 61,
      "start": 51.763,
      "duration": 0.0161,
      "velocity": 101,
      "chip": "ym2612"
    },
    {
      "channel": 3,
      "note": 64,
      "start": 51.7641,
      "duration": 0.0161,
      "velocity": 101,
      "chip": "ym2612"
    },
    {
      "channel": 1,
      "note": 69,
      "start": 51.7664,
      "duration": 0.0161,
      "velocity": 101,
      "chip": "ym2612"
    },
    {
      "channel": 0,
      "note": 39,
      "start": 51.7779,
      "duration": 0.0157,
      "velocity": 115,
      "chip": "ym2612"
    },
    {
      "channel": 4,
      "note": 61,
      "start": 51.7791,
      "duration": 0.0157,
      "velocity": 101,
      "chip": "ym2612"
    },
    {
      "channel": 3,
      "note": 64,
      "start": 51.7802,
      "duration": 0.0157,
      "velocity": 101,
      "chip": "ym2612"
    },
    {
      "channel": 1,
      "note": 69,
      "start": 51.7825,
      "duration": 0.0158,
      "velocity": 101,
      "chip": "ym2612"
    },
    {
      "channel": 0,
      "note": 40,
      "start": 51.7936,
      "duration": 0.0137,
      "velocity": 115,
      "chip": "ym2612"
    },
    {
      "channel": 4,
      "note": 61,
      "start": 51.7948,
      "duration": 0.0141,
      "velocity": 101,
      "chip": "ym2612"
    },
    {
      "channel": 3,
      "note": 64,
      "start": 51.7959,
      "duration": 0.0141,
      "velocity": 101,
      "chip": "ym2612"
    },
    {
      "channel": 1,
      "note": 69,
      "start": 51.7982,
      "duration": 0.014,
      "velocity": 101,
      "chip": "ym2612"
    },
    {
      "channel": 0,
      "note": 40,
      "start": 51.8073,
      "duration": 0.0161,
      "velocity": 115,
      "chip": "ym2612"
    },
    {
      "channel": 4,
      "note": 61,
      "start": 51.8089,
      "duration": 0.0185,
      "velocity": 101,
      "chip": "ym2612"
    },
    {
      "channel": 3,
      "note": 64,
      "start": 51.81,
      "duration": 0.0185,
      "velocity": 101,
      "chip": "ym2612"
    },
    {
      "channel": 1,
      "note": 69,
      "start": 51.8122,
      "duration": 0.0186,
      "velocity": 101,
      "chip": "ym2612"
    },
    {
      "channel": 0,
      "note": 40,
      "start": 51.8234,
      "duration": 0.0162,
      "velocity": 115,
      "chip": "ym2612"
    },
    {
      "channel": 4,
      "note": 61,
      "start": 51.8274,
      "duration": 0.0134,
      "velocity": 101,
      "chip": "ym2612"
    },
    {
      "channel": 3,
      "note": 64,
      "start": 51.8285,
      "duration": 0.0161,
      "velocity": 101,
      "chip": "ym2612"
    },
    {
      "channel": 1,
      "note": 69,
      "start": 51.8308,
      "duration": 0.0161,
      "velocity": 101,
      "chip": "ym2612"
    },
    {
      "channel": 0,
      "note": 41,
      "start": 51.8396,
      "duration": 0.0161,
      "velocity": 115,
      "chip": "ym2612"
    },
    {
      "channel": 4,
      "note": 61,
      "start": 51.8407,
      "duration": 0.0161,
      "velocity": 101,
      "chip": "ym2612"
    },
    {
      "channel": 3,
      "note": 64,
      "start": 51.8446,
      "duration": 0.0157,
      "velocity": 101,
      "chip": "ym2612"
    },
    {
      "channel": 1,
      "note": 69,
      "start": 51.8469,
      "duration": 0.0157,
      "velocity": 101,
      "chip": "ym2612"
    },
    {
      "channel": 0,
      "note": 41,
      "start": 51.8557,
      "duration": 0.0161,
      "velocity": 115,
      "chip": "ym2612"
    },
    {
      "channel": 4,
      "note": 61,
      "start": 51.8568,
      "duration": 0.0161,
      "velocity": 101,
      "chip": "ym2612"
    },
    {
      "channel": 3,
      "note": 64,
      "start": 51.8603,
      "duration": 0.0137,
      "velocity": 101,
      "chip": "ym2612"
    },
    {
      "channel": 1,
      "note": 69,
      "start": 51.8626,
      "duration": 0.0141,
      "velocity": 101,
      "chip": "ym2612"
    },
    {
      "channel": 0,
      "note": 42,
      "start": 51.8718,
      "duration": 0.0178,
      "velocity": 124,
      "chip": "ym2612"
    },
    {
      "channel": 4,
      "note": 61,
      "start": 51.8729,
      "duration": 0.0179,
      "velocity": 101,
      "chip": "ym2612"
    },
    {
      "channel": 3,
      "note": 64,
      "start": 51.8741,
      "duration": 0.0207,
      "velocity": 101,
      "chip": "ym2612"
    },
    {
      "channel": 1,
      "note": 69,
      "start": 51.8767,
      "duration": 0.0203,
      "velocity": 101,
      "chip": "ym2612"
    },
    {
      "channel": 0,
      "note": 84,
      "start": 51.8897,
      "duration": 0.0144,
      "velocity": 124,
      "chip": "ym2612"
    },
    {
      "channel": 4,
      "note": 61,
      "start": 51.8908,
      "duration": 0.0144,
      "velocity": 101,
      "chip": "ym2612"
    },
    {
      "channel": 3,
      "note": 64,
      "start": 51.8947,
      "duration": 0.0116,
      "velocity": 101,
      "chip": "ym2612"
    },
    {
      "channel": 1,
      "note": 69,
      "start": 51.897,
      "duration": 0.0144,
      "velocity": 101,
      "chip": "ym2612"
    },
    {
      "channel": 0,
      "note": 82,
      "start": 51.904,
      "duration": 0.016,
      "velocity": 124,
      "chip": "ym2612"
    },
    {
      "channel": 4,
      "note": 61,
      "start": 51.9052,
      "duration": 0.016,
      "velocity": 101,
      "chip": "ym2612"
    },
    {
      "channel": 3,
      "note": 64,
      "start": 51.9063,
      "duration": 0.016,
      "velocity": 101,
      "chip": "ym2612"
    },
    {
      "channel": 1,
      "note": 69,
      "start": 51.9113,
      "duration": 0.0156,
      "velocity": 101,
      "chip": "ym2612"
    },
    {
      "channel": 0,
      "note": 80,
      "start": 51.9201,
      "duration": 0.0161,
      "velocity": 124,
      "chip": "ym2612"
    },
    {
      "channel": 4,
      "note": 61,
      "start": 51.9212,
      "duration": 0.0162,
      "velocity": 101,
      "chip": "ym2612"
    },
    {
      "channel": 3,
      "note": 64,
      "start": 51.9224,
      "duration": 0.0161,
      "velocity": 101,
      "chip": "ym2612"
    },
    {
      "channel": 1,
      "note": 69,
      "start": 51.927,
      "duration": 0.0137,
      "velocity": 101,
      "chip": "ym2612"
    },
    {
      "channel": 0,
      "note": 77,
      "start": 51.9361,
      "duration": 0.0161,
      "velocity": 124,
      "chip": "ym2612"
    },
    {
      "channel": 4,
      "note": 61,
      "start": 51.9374,
      "duration": 0.0161,
      "velocity": 101,
      "chip": "ym2612"
    },
    {
      "channel": 3,
      "note": 64,
      "start": 51.9385,
      "duration": 0.0161,
      "velocity": 101,
      "chip": "ym2612"
    },
    {
      "channel": 1,
      "note": 69,
      "start": 51.9407,
      "duration": 0.0161,
      "velocity": 101,
      "chip": "ym2612"
    },
    {
      "channel": 0,
      "note": 75,
      "start": 51.9522,
      "duration": 0.0162,
      "velocity": 124,
      "chip": "ym2612"
    },
    {
      "channel": 4,
      "note": 61,
      "start": 51.9534,
      "duration": 0.0161,
      "velocity": 101,
      "chip": "ym2612"
    },
    {
      "channel": 3,
      "note": 64,
      "start": 51.9546,
      "duration": 0.0161,
      "velocity": 101,
      "chip": "ym2612"
    },
    {
      "channel": 1,
      "note": 69,
      "start": 51.9568,
      "duration": 0.0162,
      "velocity": 101,
      "chip": "ym2612"
    },
    {
      "channel": 0,
      "note": 72,
      "start": 51.9684,
      "duration": 0.0161,
      "velocity": 124,
      "chip": "ym2612"
    },
    {
      "channel": 4,
      "note": 61,
      "start": 51.9695,
      "duration": 0.0161,
      "velocity": 101,
      "chip": "ym2612"
    },
    {
      "channel": 3,
      "note": 64,
      "start": 51.9707,
      "duration": 0.0161,
      "velocity": 101,
      "chip": "ym2612"
    },
    {
      "channel": 1,
      "note": 69,
      "start": 51.973,
      "duration": 0.0161,
      "velocity": 101,
      "chip": "ym2612"
    },
    {
      "channel": 0,
      "note": 70,
      "start": 51.9845,
      "duration": 0.0161,
      "velocity": 124,
      "chip": "ym2612"
    },
    {
      "channel": 4,
      "note": 61,
      "start": 51.9856,
      "duration": 0.0161,
      "velocity": 101,
      "chip": "ym2612"
    },
    {
      "channel": 3,
      "note": 64,
      "start": 51.9868,
      "duration": 0.0161,
      "velocity": 101,
      "chip": "ym2612"
    },
    {
      "channel": 1,
      "note": 69,
      "start": 51.9891,
      "duration": 0.0161,
      "velocity": 101,
      "chip": "ym2612"
    },
    {
      "channel": 0,
      "note": 68,
      "start": 52.0006,
      "duration": 0.0161,
      "velocity": 124,
      "chip": "ym2612"
    },
    {
      "channel": 4,
      "note": 61,
      "start": 52.0017,
      "duration": 0.0161,
      "velocity": 101,
      "chip": "ym2612"
    },
    {
      "channel": 3,
      "note": 64,
      "start": 52.0029,
      "duration": 0.0161,
      "velocity": 101,
      "chip": "ym2612"
    },
    {
      "channel": 1,
      "note": 69,
      "start": 52.0052,
      "duration": 0.0161,
      "velocity": 101,
      "chip": "ym2612"
    },
    {
      "channel": 0,
      "note": 65,
      "start": 52.0167,
      "duration": 0.0161,
      "velocity": 124,
      "chip": "ym2612"
    },
    {
      "channel": 4,
      "note": 61,
      "start": 52.0178,
      "duration": 0.0161,
      "velocity": 101,
      "chip": "ym2612"
    },
    {
      "channel": 3,
      "note": 64,
      "start": 52.019,
      "duration": 0.0161,
      "velocity": 101,
      "chip": "ym2612"
    },
    {
      "channel": 1,
      "note": 69,
      "start": 52.0213,
      "duration": 0.0161,
      "velocity": 101,
      "chip": "ym2612"
    },
    {
      "channel": 0,
      "note": 63,
      "start": 52.0328,
      "duration": 0.0153,
      "velocity": 1,
      "chip": "ym2612"
    },
    {
      "channel": 4,
      "note": 61,
      "start": 52.0339,
      "duration": 0.0153,
      "velocity": 101,
      "chip": "ym2612"
    },
    {
      "channel": 3,
      "note": 64,
      "start": 52.0351,
      "duration": 0.0153,
      "velocity": 101,
      "chip": "ym2612"
    },
    {
      "channel": 1,
      "note": 69,
      "start": 52.0374,
      "duration": 0.0153,
      "velocity": 101,
      "chip": "ym2612"
    },
    {
      "channel": 4,
      "note": 61,
      "start": 52.0493,
      "duration": 0.0152,
      "velocity": 101,
      "chip": "ym2612"
    },
    {
      "channel": 3,
      "note": 64,
      "start": 52.0504,
      "duration": 0.0152,
      "velocity": 101,
      "chip": "ym2612"
    },
    {
      "channel": 1,
      "note": 69,
      "start": 52.0526,
      "duration": 0.0153,
      "velocity": 101,
      "chip": "ym2612"
    },
    {
      "channel": 4,
      "note": 61,
      "start": 52.0645,
      "duration": 0.0161,
      "velocity": 101,
      "chip": "ym2612"
    },
    {
      "channel": 3,
      "note": 64,
      "start": 52.0656,
      "duration": 0.0162,
      "velocity": 101,
      "chip": "ym2612"
    },
    {
      "channel": 1,
      "note": 69,
      "start": 52.0679,
      "duration": 0.0161,
      "velocity": 101,
      "chip": "ym2612"
    },
    {
      "channel": 4,
      "note": 61,
      "start": 52.0806,
      "duration": 0.0161,
      "velocity": 101,
      "chip": "ym2612"
    },
    {
      "channel": 3,
      "note": 64,
      "start": 52.0818,
      "duration": 0.0161,
      "velocity": 101,
      "chip": "ym2612"
    },
    {
      "channel": 1,
      "note": 69,
      "start": 52.084,
      "duration": 0.0161,
      "velocity": 101,
      "chip": "ym2612"
    },
    {
      "channel": 4,
      "note": 61,
      "start": 52.0967,
      "duration": 0.0195,
      "velocity": 101,
      "chip": "ym2612"
    },
    {
      "channel": 3,
      "note": 64,
      "start": 52.0979,
      "duration": 0.0195,
      "velocity": 101,
      "chip": "ym2612"
    },
    {
      "channel": 1,
      "note": 69,
      "start": 52.1001,
      "duration": 0.0195,
      "velocity": 101,
      "chip": "ym2612"
    },
    {
      "channel": 0,
      "note": 36,
      "start": 52.115,
      "duration": 0.0144,
      "velocity": 115,
      "chip": "ym2612"
    },
    {
      "channel": 4,
      "note": 61,
      "start": 52.1162,
      "duration": 0.0144,
      "velocity": 101,
      "chip": "ym2612"
    },
    {
      "channel": 3,
      "note": 64,
      "start": 52.1174,
      "duration": 0.0144,
      "velocity": 101,
      "chip": "ym2612"
    },
    {
      "channel": 1,
      "note": 69,
      "start": 52.1196,
      "duration": 0.0144,
      "velocity": 101,
      "chip": "ym2612"
    },
    {
      "channel": 0,
      "note": 36,
      "start": 52.1295,
      "duration": 0.016,
      "velocity": 115,
      "chip": "ym2612"
    },
    {
      "channel": 4,
      "note": 61,
      "start": 52.1306,
      "duration": 0.016,
      "velocity": 101,
      "chip": "ym2612"
    },
    {
      "channel": 3,
      "note": 64,
      "start": 52.1318,
      "duration": 0.016,
      "velocity": 101,
      "chip": "ym2612"
    },
    {
      "channel": 1,
      "note": 69,
      "start": 52.1341,
      "duration": 0.016,
      "velocity": 101,
      "chip": "ym2612"
    },
    {
      "channel": 0,
      "note": 37,
      "start": 52.1455,
      "duration": 0.017,
      "velocity": 115,
      "chip": "ym2612"
    },
    {
      "channel": 4,
      "note": 61,
      "start": 52.1466,
      "duration": 0.017,
      "velocity": 101,
      "chip": "ym2612"
    },
    {
      "channel": 3,
      "note": 64,
      "start": 52.1478,
      "duration": 0.017,
      "velocity": 101,
      "chip": "ym2612"
    },
    {
      "channel": 1,
      "note": 69,
      "start": 52.1501,
      "duration": 0.017,
      "velocity": 101,
      "chip": "ym2612"
    },
    {
      "channel": 0,
      "note": 37,
      "start": 52.1625,
      "duration": 0.0167,
      "velocity": 115,
      "chip": "ym2612"
    },
    {
      "channel": 4,
      "note": 61,
      "start": 52.1636,
      "duration": 0.0167,
      "velocity": 101,
      "chip": "ym2612"
    },
    {
      "channel": 3,
      "note": 64,
      "start": 52.1648,
      "duration": 0.0167,
      "velocity": 101,
      "chip": "ym2612"
    },
    {
      "channel": 1,
      "note": 69,
      "start": 52.1671,
      "duration": 0.0167,
      "velocity": 101,
      "chip": "ym2612"
    },
    {
      "channel": 0,
      "note": 38,
      "start": 52.1792,
      "duration": 0.0163,
      "velocity": 115,
      "chip": "ym2612"
    },
    {
      "channel": 4,
      "note": 61,
      "start": 52.1803,
      "duration": 0.0163,
      "velocity": 101,
      "chip": "ym2612"
    },
    {
      "channel": 3,
      "note": 64,
      "start": 52.1815,
      "duration": 0.0163,
      "velocity": 101,
      "chip": "ym2612"
    },
    {
      "channel": 1,
      "note": 69,
      "start": 52.1837,
      "duration": 0.0163,
      "velocity": 101,
      "chip": "ym2612"
    },
    {
      "channel": 0,
      "note": 38,
      "start": 52.1954,
      "duration": 0.0146,
      "velocity": 115,
      "chip": "ym2612"
    },
    {
      "channel": 4,
      "note": 61,
      "start": 52.1966,
      "duration": 0.0147,
      "velocity": 101,
      "chip": "ym2612"
    },
    {
      "channel": 3,
      "note": 64,
      "start": 52.1977,
      "duration": 0.0147,
      "velocity": 101,
      "chip": "ym2612"
    },
    {
      "channel": 1,
      "note": 69,
      "start": 52.2,
      "duration": 0.0146,
      "velocity": 101,
      "chip": "ym2612"
    },
    {
      "channel": 0,
      "note": 39,
      "start": 52.2101,
      "duration": 0.0186,
      "velocity": 115,
      "chip": "ym2612"
    },
    {
      "channel": 4,
      "note": 61,
      "start": 52.2113,
      "duration": 0.0186,
      "velocity": 101,
      "chip": "ym2612"
    },
    {
      "channel": 3,
      "note": 64,
      "start": 52.2124,
      "duration": 0.0186,
      "velocity": 101,
      "chip": "ym2612"
    },
    {
      "channel": 1,
      "note": 69,
      "start": 52.2146,
      "duration": 0.0187,
      "velocity": 101,
      "chip": "ym2612"
    },
    {
      "channel": 0,
      "note": 39,
      "start": 52.2287,
      "duration": 0.0161,
      "velocity": 115,
      "chip": "ym2612"
    },
    {
      "channel": 4,
      "note": 61,
      "start": 52.2299,
      "duration": 0.0161,
      "velocity": 101,
      "chip": "ym2612"
    },
    {
      "channel": 3,
      "note": 64,
      "start": 52.2311,
      "duration": 0.0161,
      "velocity": 101,
      "chip": "ym2612"
    },
    {
      "channel": 1,
      "note": 69,
      "start": 52.2334,
      "duration": 0.016,
      "velocity": 101,
      "chip": "ym2612"
    },
    {
      "channel": 0,
      "note": 40,
      "start": 52.2448,
      "duration": 0.0158,
      "velocity": 115,
      "chip": "ym2612"
    },
    {
      "channel": 4,
      "note": 61,
      "start": 52.246,
      "duration": 0.0157,
      "velocity": 101,
      "chip": "ym2612"
    },
    {
      "channel": 3,
      "note": 64,
      "start": 52.2472,
      "duration": 0.0157,
      "velocity": 101,
      "chip": "ym2612"
    },
    {
      "channel": 1,
      "note": 69,
      "start": 52.2494,
      "duration": 0.0158,
      "velocity": 101,
      "chip": "ym2612"
    },
    {
      "channel": 0,
      "note": 40,
      "start": 52.2606,
      "duration": 0.0137,
      "velocity": 115,
      "chip": "ym2612"
    },
    {
      "channel": 4,
      "note": 61,
      "start": 52.2617,
      "duration": 0.0141,
      "velocity": 101,
      "chip": "ym2612"
    },
    {
      "channel": 3,
      "note": 64,
      "start": 52.2629,
      "duration": 0.0141,
      "velocity": 101,
      "chip": "ym2612"
    },
    {
      "channel": 1,
      "note": 69,
      "start": 52.2652,
      "duration": 0.014,
      "velocity": 101,
      "chip": "ym2612"
    },
    {
      "channel": 0,
      "note": 40,
      "start": 52.2743,
      "duration": 0.0161,
      "velocity": 115,
      "chip": "ym2612"
    },
    {
      "channel": 4,
      "note": 61,
      "start": 52.2758,
      "duration": 0.0185,
      "velocity": 101,
      "chip": "ym2612"
    },
    {
      "channel": 3,
      "note": 64,
      "start": 52.2769,
      "duration": 0.0185,
      "velocity": 101,
      "chip": "ym2612"
    },
    {
      "channel": 1,
      "note": 69,
      "start": 52.2792,
      "duration": 0.0186,
      "velocity": 101,
      "chip": "ym2612"
    },
    {
      "channel": 0,
      "note": 41,
      "start": 52.2904,
      "duration": 0.0161,
      "velocity": 115,
      "chip": "ym2612"
    },
    {
      "channel": 4,
      "note": 61,
      "start": 52.2943,
      "duration": 0.0134,
      "velocity": 101,
      "chip": "ym2612"
    },
    {
      "channel": 3,
      "note": 64,
      "start": 52.2954,
      "duration": 0.0161,
      "velocity": 101,
      "chip": "ym2612"
    },
    {
      "channel": 1,
      "note": 69,
      "start": 52.2977,
      "duration": 0.0161,
      "velocity": 101,
      "chip": "ym2612"
    },
    {
      "channel": 0,
      "note": 41,
      "start": 52.3065,
      "duration": 0.0161,
      "velocity": 115,
      "chip": "ym2612"
    },
    {
      "channel": 4,
      "note": 61,
      "start": 52.3077,
      "duration": 0.0161,
      "velocity": 101,
      "chip": "ym2612"
    },
    {
      "channel": 3,
      "note": 64,
      "start": 52.3115,
      "duration": 0.0158,
      "velocity": 101,
      "chip": "ym2612"
    },
    {
      "channel": 1,
      "note": 69,
      "start": 52.3138,
      "duration": 0.0158,
      "velocity": 101,
      "chip": "ym2612"
    },
    {
      "channel": 0,
      "note": 42,
      "start": 52.3226,
      "duration": 0.0154,
      "velocity": 115,
      "chip": "ym2612"
    },
    {
      "channel": 4,
      "note": 61,
      "start": 52.3237,
      "duration": 0.0143,
      "velocity": 101,
      "chip": "ym2612"
    },
    {
      "channel": 3,
      "note": 64,
      "start": 52.3273,
      "duration": 0.0107,
      "velocity": 101,
      "chip": "ym2612"
    },
    {
      "channel": 1,
      "note": 69,
      "start": 52.3296,
      "duration": 0.0085,
      "velocity": 101,
      "chip": "ym2612"
    }
  ]
}