{
  "track_name": "15 - Inside",
  "duration_sec": 89.304,
  "sample_rate": 44100,
  "note_count": 572,
  "unique_pitches": 33,
  "pitch_range": 49,
  "avg_note_duration": 0.5592,
  "reconstruction_stats": {
    "notes_reconstructed": 572,
    "keyon_events": 572,
    "keyoff_events": 571,
    "orphan_keyons": 1,
    "unique_pitches": 33,
    "pitch_range": 49,
    "avg_duration_sec": 0.5592
  },
  "metadata": {
    "source": "E\\Ecco - The Tides of Time\\15 - Inside.vgz"
  },
  "notes": [
    {
      "channel": 0,
      "note": 63,
      "start": 0.0,
      "duration": 3.1573,
      "velocity": 92,
      "chip": "ym2612"
    },
    {
      "channel": 1,
      "note": 70,
      "start": 0.0052,
      "duration": 3.1529,
      "velocity": 92,
      "chip": "ym2612"
    },
    {
      "channel": 0,
      "note": 59,
      "start": 3.1823,
      "duration": 3.1573,
      "velocity": 92,
      "chip": "ym2612"
    },
    {
      "channel": 1,
      "note": 66,
      "start": 3.1876,
      "duration": 3.1528,
      "velocity": 92,
      "chip": "ym2612"
    },
    {
      "channel": 0,
      "note": 63,
      "start": 6.3748,
      "duration": 3.1574,
      "velocity": 92,
      "chip": "ym2612"
    },
    {
      "channel": 1,
      "note": 70,
      "start": 6.3799,
      "duration": 3.153,
      "velocity": 92,
      "chip": "ym2612"
    },
    {
      "channel": 0,
      "note": 59,
      "start": 9.5674,
      "duration": 3.147,
      "velocity": 92,
      "chip": "ym2612"
    },
    {
      "channel": 1,
      "note": 66,
      "start": 9.5726,
      "duration": 3.1426,
      "velocity": 92,
      "chip": "ym2612"
    },
    {
      "channel": 0,
      "note": 63,
      "start": 12.7496,
      "duration": 3.1677,
      "velocity": 92,
      "chip": "ym2612"
    },
    {
      "channel": 1,
      "note": 70,
      "start": 12.7549,
      "duration": 3.1632,
      "velocity": 92,
      "chip": "ym2612"
    },
    {
      "channel": 3,
      "note": 68,
      "start": 12.7601,
      "duration": 0.0466,
      "velocity": 103,
      "chip": "ym2612"
    },
    {
      "channel": 4,
      "note": 39,
      "start": 12.7653,
      "duration": 3.1537,
      "velocity": 92,
      "chip": "ym2612"
    },
    {
      "channel": 3,
      "note": 68,
      "start": 12.9546,
      "duration": 0.0466,
      "velocity": 103,
      "chip": "ym2612"
    },
    {
      "channel": 3,
      "note": 68,
      "start": 13.1489,
      "duration": 0.0569,
      "velocity": 103,
      "chip": "ym2612"
    },
    {
      "channel": 3,
      "note": 68,
      "start": 13.3537,
      "duration": 0.0466,
      "velocity": 103,
      "chip": "ym2612"
    },
    {
      "channel": 2,
      "note": 44,
      "start": 13.5479,
      "duration": 0.0978,
      "velocity": 118,
      "chip": "ym2612"
    },
    {
      "channel": 3,
      "note": 68,
      "start": 13.5531,
      "duration": 0.0517,
      "velocity": 103,
      "chip": "ym2612"
    },
    {
      "channel": 3,
      "note": 68,
      "start": 13.7527,
      "duration": 0.0466,
      "velocity": 103,
      "chip": "ym2612"
    },
    {
      "channel": 3,
      "note": 68,
      "start": 13.947,
      "duration": 0.0569,
      "velocity": 103,
      "chip": "ym2612"
    },
    {
      "channel": 2,
      "note": 44,
      "start": 14.1517,
      "duration": 0.0977,
      "velocity": 118,
      "chip": "ym2612"
    },
    {
      "channel": 3,
      "note": 68,
      "start": 14.1568,
      "duration": 0.0415,
      "velocity": 103,
      "chip": "ym2612"
    },
    {
      "channel": 3,
      "note": 68,
      "start": 14.3461,
      "duration": 0.0569,
      "velocity": 103,
      "chip": "ym2612"
    },
    {
      "channel": 3,
      "note": 68,
      "start": 14.5508,
      "duration": 0.0466,
      "velocity": 103,
      "chip": "ym2612"
    },
    {
      "channel": 2,
      "note": 44,
      "start": 14.7451,
      "duration": 0.0978,
      "velocity": 118,
      "chip": "ym2612"
    },
    {
      "channel": 3,
      "note": 68,
      "start": 14.7502,
      "duration": 0.0519,
      "velocity": 103,
      "chip": "ym2612"
    },
    {
      "channel": 3,
      "note": 68,
      "start": 14.9498,
      "duration": 0.0467,
      "velocity": 103,
      "chip": "ym2612"
    },
    {
      "channel": 3,
      "note": 68,
      "start": 15.1442,
      "duration": 0.057,
      "velocity": 103,
      "chip": "ym2612"
    },
    {
      "channel": 3,
      "note": 68,
      "start": 15.3387,
      "duration": 0.0568,
      "velocity": 103,
      "chip": "ym2612"
    },
    {
      "channel": 3,
      "note": 68,
      "start": 15.5433,
      "duration": 0.0467,
      "velocity": 103,
      "chip": "ym2612"
    },
    {
      "channel": 3,
      "note": 68,
      "start": 15.7378,
      "duration": 0.0568,
      "velocity": 103,
      "chip": "ym2612"
    },
    {
      "channel": 0,
      "note": 59,
      "start": 15.9421,
      "duration": 3.1573,
      "velocity": 92,
      "chip": "ym2612"
    },
    {
      "channel": 1,
      "note": 66,
      "start": 15.9473,
      "duration": 3.153,
      "velocity": 92,
      "chip": "ym2612"
    },
    {
      "channel": 3,
      "note": 68,
      "start": 15.9526,
      "duration": 0.0466,
      "velocity": 103,
      "chip": "ym2612"
    },
    {
      "channel": 4,
      "note": 35,
      "start": 15.9578,
      "duration": 3.1435,
      "velocity": 92,
      "chip": "ym2612"
    },
    {
      "channel": 3,
      "note": 68,
      "start": 16.1368,
      "duration": 0.0568,
      "velocity": 103,
      "chip": "ym2612"
    },
    {
      "channel": 3,
      "note": 68,
      "start": 16.3414,
      "duration": 0.0467,
      "velocity": 103,
      "chip": "ym2612"
    },
    {
      "channel": 3,
      "note": 68,
      "start": 16.5359,
      "duration": 0.0568,
      "velocity": 103,
      "chip": "ym2612"
    },
    {
      "channel": 2,
      "note": 44,
      "start": 16.7404,
      "duration": 0.0978,
      "velocity": 118,
      "chip": "ym2612"
    },
    {
      "channel": 3,
      "note": 68,
      "start": 16.7455,
      "duration": 0.0417,
      "velocity": 103,
      "chip": "ym2612"
    },
    {
      "channel": 3,
      "note": 68,
      "start": 16.9349,
      "duration": 0.0569,
      "velocity": 103,
      "chip": "ym2612"
    },
    {
      "channel": 3,
      "note": 68,
      "start": 17.1395,
      "duration": 0.0467,
      "velocity": 103,
      "chip": "ym2612"
    },
    {
      "channel": 2,
      "note": 44,
      "start": 17.334,
      "duration": 0.0977,
      "velocity": 118,
      "chip": "ym2612"
    },
    {
      "channel": 3,
      "note": 68,
      "start": 17.3391,
      "duration": 0.0517,
      "velocity": 103,
      "chip": "ym2612"
    },
    {
      "channel": 3,
      "note": 68,
      "start": 17.5387,
      "duration": 0.0466,
      "velocity": 103,
      "chip": "ym2612"
    },
    {
      "channel": 3,
      "note": 68,
      "start": 17.733,
      "duration": 0.0569,
      "velocity": 103,
      "chip": "ym2612"
    },
    {
      "channel": 2,
      "note": 44,
      "start": 17.9377,
      "duration": 0.0977,
      "velocity": 118,
      "chip": "ym2612"
    },
    {
      "channel": 3,
      "note": 68,
      "start": 17.9428,
      "duration": 0.0416,
      "velocity": 103,
      "chip": "ym2612"
    },
    {
      "channel": 3,
      "note": 68,
      "start": 18.1321,
      "duration": 0.0569,
      "velocity": 103,
      "chip": "ym2612"
    },
    {
      "channel": 3,
      "note": 68,
      "start": 18.3368,
      "duration": 0.0466,
      "velocity": 103,
      "chip": "ym2612"
    },
    {
      "channel": 3,
      "note": 68,
      "start": 18.5311,
      "duration": 0.0569,
      "velocity": 103,
      "chip": "ym2612"
    },
    {
      "channel": 3,
      "note": 68,
      "start": 18.7359,
      "duration": 0.0466,
      "velocity": 103,
      "chip": "ym2612"
    },
    {
      "channel": 3,
      "note": 68,
      "start": 18.9302,
      "duration": 0.0569,
      "velocity": 103,
      "chip": "ym2612"
    },
    {
      "channel": 0,
      "note": 63,
      "start": 19.1348,
      "duration": 3.147,
      "velocity": 92,
      "chip": "ym2612"
    },
    {
      "channel": 1,
      "note": 70,
      "start": 19.1399,
      "duration": 3.1426,
      "velocity": 92,
      "chip": "ym2612"
    },
    {
      "channel": 3,
      "note": 68,
      "start": 19.1452,
      "duration": 0.0466,
      "velocity": 103,
      "chip": "ym2612"
    },
    {
      "channel": 4,
      "note": 39,
      "start": 19.1503,
      "duration": 3.1331,
      "velocity": 92,
      "chip": "ym2612"
    },
    {
      "channel": 3,
      "note": 68,
      "start": 19.3293,
      "duration": 0.0569,
      "velocity": 103,
      "chip": "ym2612"
    },
    {
      "channel": 3,
      "note": 68,
      "start": 19.534,
      "duration": 0.0466,
      "velocity": 103,
      "chip": "ym2612"
    },
    {
      "channel": 3,
      "note": 68,
      "start": 19.7283,
      "duration": 0.0569,
      "velocity": 103,
      "chip": "ym2612"
    },
    {
      "channel": 2,
      "note": 44,
      "start": 19.933,
      "duration": 0.0978,
      "velocity": 118,
      "chip": "ym2612"
    },
    {
      "channel": 3,
      "note": 68,
      "start": 19.9382,
      "duration": 0.0415,
      "velocity": 103,
      "chip": "ym2612"
    },
    {
      "channel": 3,
      "note": 68,
      "start": 20.1274,
      "duration": 0.057,
      "velocity": 103,
      "chip": "ym2612"
    },
    {
      "channel": 3,
      "note": 68,
      "start": 20.3321,
      "duration": 0.0467,
      "velocity": 103,
      "chip": "ym2612"
    },
    {
      "channel": 2,
      "note": 44,
      "start": 20.5264,
      "duration": 0.0978,
      "velocity": 118,
      "chip": "ym2612"
    },
    {
      "channel": 3,
      "note": 68,
      "start": 20.5315,
      "duration": 0.0417,
      "velocity": 103,
      "chip": "ym2612"
    },
    {
      "channel": 3,
      "note": 68,
      "start": 20.721,
      "duration": 0.0568,
      "velocity": 103,
      "chip": "ym2612"
    },
    {
      "channel": 3,
      "note": 68,
      "start": 20.9255,
      "duration": 0.0467,
      "velocity": 103,
      "chip": "ym2612"
    },
    {
      "channel": 2,
      "note": 44,
      "start": 21.12,
      "duration": 0.0978,
      "velocity": 118,
      "chip": "ym2612"
    },
    {
      "channel": 3,
      "note": 68,
      "start": 21.1251,
      "duration": 0.0517,
      "velocity": 103,
      "chip": "ym2612"
    },
    {
      "channel": 3,
      "note": 68,
      "start": 21.3246,
      "duration": 0.0466,
      "velocity": 103,
      "chip": "ym2612"
    },
    {
      "channel": 3,
      "note": 68,
      "start": 21.5191,
      "duration": 0.0569,
      "velocity": 103,
      "chip": "ym2612"
    },
    {
      "channel": 3,
      "note": 68,
      "start": 21.7237,
      "duration": 0.0467,
      "velocity": 103,
      "chip": "ym2612"
    },
    {
      "channel": 3,
      "note": 68,
      "start": 21.9181,
      "duration": 0.0569,
      "velocity": 103,
      "chip": "ym2612"
    },
    {
      "channel": 3,
      "note": 68,
      "start": 22.1227,
      "duration": 0.0467,
      "velocity": 103,
      "chip": "ym2612"
    },
    {
      "channel": 0,
      "note": 59,
      "start": 22.3169,
      "duration": 3.1573,
      "velocity": 92,
      "chip": "ym2612"
    },
    {
      "channel": 1,
      "note": 66,
      "start": 22.3222,
      "duration": 3.1529,
      "velocity": 92,
      "chip": "ym2612"
    },
    {
      "channel": 3,
      "note": 68,
      "start": 22.3275,
      "duration": 0.0466,
      "velocity": 103,
      "chip": "ym2612"
    },
    {
      "channel": 4,
      "note": 35,
      "start": 22.3327,
      "duration": 3.1433,
      "velocity": 92,
      "chip": "ym2612"
    },
    {
      "channel": 3,
      "note": 68,
      "start": 22.5219,
      "duration": 0.0466,
      "velocity": 103,
      "chip": "ym2612"
    },
    {
      "channel": 3,
      "note": 68,
      "start": 22.7162,
      "duration": 0.0569,
      "velocity": 103,
      "chip": "ym2612"
    },
    {
      "channel": 3,
      "note": 68,
      "start": 22.921,
      "duration": 0.0466,
      "velocity": 103,
      "chip": "ym2612"
    },
    {
      "channel": 2,
      "note": 44,
      "start": 23.1152,
      "duration": 0.0978,
      "velocity": 118,
      "chip": "ym2612"
    },
    {
      "channel": 3,
      "note": 68,
      "start": 23.1205,
      "duration": 0.0517,
      "velocity": 103,
      "chip": "ym2612"
    },
    {
      "channel": 3,
      "note": 68,
      "start": 23.3201,
      "duration": 0.0466,
      "velocity": 103,
      "chip": "ym2612"
    },
    {
      "channel": 3,
      "note": 68,
      "start": 23.5143,
      "duration": 0.0569,
      "velocity": 103,
      "chip": "ym2612"
    },
    {
      "channel": 2,
      "note": 44,
      "start": 23.719,
      "duration": 0.0977,
      "velocity": 118,
      "chip": "ym2612"
    },
    {
      "channel": 3,
      "note": 68,
      "start": 23.7242,
      "duration": 0.0415,
      "velocity": 103,
      "chip": "ym2612"
    },
    {
      "channel": 3,
      "note": 68,
      "start": 23.9134,
      "duration": 0.0569,
      "velocity": 103,
      "chip": "ym2612"
    },
    {
      "channel": 3,
      "note": 68,
      "start": 24.1181,
      "duration": 0.0466,
      "velocity": 103,
      "chip": "ym2612"
    },
    {
      "channel": 2,
      "note": 44,
      "start": 24.3124,
      "duration": 0.0978,
      "velocity": 118,
      "chip": "ym2612"
    },
    {
      "channel": 3,
      "note": 68,
      "start": 24.3177,
      "duration": 0.0517,
      "velocity": 103,
      "chip": "ym2612"
    },
    {
      "channel": 3,
      "note": 68,
      "start": 24.5171,
      "duration": 0.0467,
      "velocity": 103,
      "chip": "ym2612"
    },
    {
      "channel": 3,
      "note": 68,
      "start": 24.7115,
      "duration": 0.0569,
      "velocity": 103,
      "chip": "ym2612"
    },
    {
      "channel": 3,
      "note": 68,
      "start": 24.9162,
      "duration": 0.0466,
      "velocity": 103,
      "chip": "ym2612"
    },
    {
      "channel": 3,
      "note": 68,
      "start": 25.1106,
      "duration": 0.0571,
      "velocity": 103,
      "chip": "ym2612"
    },
    {
      "channel": 3,
      "note": 68,
      "start": 25.3153,
      "duration": 0.0467,
      "velocity": 103,
      "chip": "ym2612"
    },
    {
      "channel": 0,
      "note": 63,
      "start": 25.5094,
      "duration": 3.1574,
      "velocity": 92,
      "chip": "ym2612"
    },
    {
      "channel": 1,
      "note": 70,
      "start": 25.5146,
      "duration": 3.1531,
      "velocity": 92,
      "chip": "ym2612"
    },
    {
      "channel": 3,
      "note": 68,
      "start": 25.52,
      "duration": 0.0466,
      "velocity": 103,
      "chip": "ym2612"
    },
    {
      "channel": 4,
      "note": 39,
      "start": 25.5251,
      "duration": 3.1435,
      "velocity": 92,
      "chip": "ym2612"
    },
    {
      "channel": 5,
      "note": 70,
      "start": 25.5303,
      "duration": 1.5304,
      "velocity": 93,
      "chip": "ym2612"
    },
    {
      "channel": 3,
      "note": 68,
      "start": 25.7042,
      "duration": 0.0568,
      "velocity": 103,
      "chip": "ym2612"
    },
    {
      "channel": 3,
      "note": 68,
      "start": 25.9087,
      "duration": 0.0467,
      "velocity": 103,
      "chip": "ym2612"
    },
    {
      "channel": 3,
      "note": 68,
      "start": 26.1033,
      "duration": 0.0568,
      "velocity": 103,
      "chip": "ym2612"
    },
    {
      "channel": 2,
      "note": 44,
      "start": 26.3078,
      "duration": 0.0978,
      "velocity": 118,
      "chip": "ym2612"
    },
    {
      "channel": 3,
      "note": 68,
      "start": 26.3129,
      "duration": 0.0416,
      "velocity": 103,
      "chip": "ym2612"
    },
    {
      "channel": 3,
      "note": 68,
      "start": 26.5023,
      "duration": 0.0568,
      "velocity": 103,
      "chip": "ym2612"
    },
    {
      "channel": 3,
      "note": 68,
      "start": 26.7069,
      "duration": 0.0467,
      "velocity": 103,
      "chip": "ym2612"
    },
    {
      "channel": 2,
      "note": 44,
      "start": 26.9013,
      "duration": 0.0978,
      "velocity": 118,
      "chip": "ym2612"
    },
    {
      "channel": 3,
      "note": 68,
      "start": 26.9064,
      "duration": 0.0518,
      "velocity": 103,
      "chip": "ym2612"
    },
    {
      "channel": 3,
      "note": 68,
      "start": 27.1059,
      "duration": 0.0467,
      "velocity": 103,
      "chip": "ym2612"
    },
    {
      "channel": 5,
      "note": 77,
      "start": 27.1112,
      "duration": 1.5457,
      "velocity": 93,
      "chip": "ym2612"
    },
    {
      "channel": 3,
      "note": 68,
      "start": 27.3003,
      "duration": 0.0569,
      "velocity": 103,
      "chip": "ym2612"
    },
    {
      "channel": 2,
      "note": 44,
      "start": 27.505,
      "duration": 0.0977,
      "velocity": 118,
      "chip": "ym2612"
    },
    {
      "channel": 3,
      "note": 68,
      "start": 27.5102,
      "duration": 0.0415,
      "velocity": 103,
      "chip": "ym2612"
    },
    {
      "channel": 3,
      "note": 68,
      "start": 27.6995,
      "duration": 0.0569,
      "velocity": 103,
      "chip": "ym2612"
    },
    {
      "channel": 3,
      "note": 68,
      "start": 27.9041,
      "duration": 0.0467,
      "velocity": 103,
      "chip": "ym2612"
    },
    {
      "channel": 3,
      "note": 68,
      "start": 28.0985,
      "duration": 0.0569,
      "velocity": 103,
      "chip": "ym2612"
    },
    {
      "channel": 3,
      "note": 68,
      "start": 28.3032,
      "duration": 0.0466,
      "velocity": 103,
      "chip": "ym2612"
    },
    {
      "channel": 3,
      "note": 68,
      "start": 28.4975,
      "duration": 0.0569,
      "velocity": 103,
      "chip": "ym2612"
    },
    {
      "channel": 0,
      "note": 59,
      "start": 28.7021,
      "duration": 3.147,
      "velocity": 92,
      "chip": "ym2612"
    },
    {
      "channel": 1,
      "note": 66,
      "start": 28.7073,
      "duration": 3.1426,
      "velocity": 92,
      "chip": "ym2612"
    },
    {
      "channel": 3,
      "note": 68,
      "start": 28.7126,
      "duration": 0.0466,
      "velocity": 103,
      "chip": "ym2612"
    },
    {
      "channel": 4,
      "note": 35,
      "start": 28.7178,
      "duration": 3.1331,
      "velocity": 92,
      "chip": "ym2612"
    },
    {
      "channel": 5,
      "note": 75,
      "start": 28.723,
      "duration": 1.5302,
      "velocity": 93,
      "chip": "ym2612"
    },
    {
      "channel": 3,
      "note": 68,
      "start": 28.8966,
      "duration": 0.0569,
      "velocity": 103,
      "chip": "ym2612"
    },
    {
      "channel": 3,
      "note": 68,
      "start": 29.1014,
      "duration": 0.0466,
      "velocity": 103,
      "chip": "ym2612"
    },
    {
      "channel": 3,
      "note": 68,
      "start": 29.2957,
      "duration": 0.0569,
      "velocity": 103,
      "chip": "ym2612"
    },
    {
      "channel": 2,
      "note": 44,
      "start": 29.5003,
      "duration": 0.0978,
      "velocity": 118,
      "chip": "ym2612"
    },
    {
      "channel": 3,
      "note": 68,
      "start": 29.5055,
      "duration": 0.0415,
      "velocity": 103,
      "chip": "ym2612"
    },
    {
      "channel": 3,
      "note": 68,
      "start": 29.6947,
      "duration": 0.0569,
      "velocity": 103,
      "chip": "ym2612"
    },
    {
      "channel": 3,
      "note": 68,
      "start": 29.8994,
      "duration": 0.0467,
      "velocity": 103,
      "chip": "ym2612"
    },
    {
      "channel": 2,
      "note": 44,
      "start": 30.0938,
      "duration": 0.0978,
      "velocity": 118,
      "chip": "ym2612"
    },
    {
      "channel": 3,
      "note": 68,
      "start": 30.0989,
      "duration": 0.052,
      "velocity": 103,
      "chip": "ym2612"
    },
    {
      "channel": 3,
      "note": 68,
      "start": 30.2985,
      "duration": 0.0467,
      "velocity": 103,
      "chip": "ym2612"
    },
    {
      "channel": 5,
      "note": 71,
      "start": 30.3038,
      "duration": 1.5479,
      "velocity": 93,
      "chip": "ym2612"
    },
    {
      "channel": 3,
      "note": 68,
      "start": 30.4929,
      "duration": 0.0569,
      "velocity": 103,
      "chip": "ym2612"
    },
    {
      "channel": 2,
      "note": 44,
      "start": 30.6874,
      "duration": 0.1079,
      "velocity": 118,
      "chip": "ym2612"
    },
    {
      "channel": 3,
      "note": 68,
      "start": 30.6925,
      "duration": 0.0517,
      "velocity": 103,
      "chip": "ym2612"
    },
    {
      "channel": 3,
      "note": 68,
      "start": 30.892,
      "duration": 0.0467,
      "velocity": 103,
      "chip": "ym2612"
    },
    {
      "channel": 3,
      "note": 68,
      "start": 31.0865,
      "duration": 0.0568,
      "velocity": 103,
      "chip": "ym2612"
    },
    {
      "channel": 3,
      "note": 68,
      "start": 31.291,
      "duration": 0.0467,
      "velocity": 103,
      "chip": "ym2612"
    },
    {
      "channel": 3,
      "note": 68,
      "start": 31.4855,
      "duration": 0.0568,
      "velocity": 103,
      "chip": "ym2612"
    },
    {
      "channel": 3,
      "note": 68,
      "start": 31.6901,
      "duration": 0.0467,
      "velocity": 103,
      "chip": "ym2612"
    },
    {
      "channel": 0,
      "note": 63,
      "start": 31.8844,
      "duration": 3.1573,
      "velocity": 92,
      "chip": "ym2612"
    },
    {
      "channel": 1,
      "note": 70,
      "start": 31.8895,
      "duration": 3.1529,
      "velocity": 92,
      "chip": "ym2612"
    },
    {
      "channel": 3,
      "note": 68,
      "start": 31.8948,
      "duration": 0.0569,
      "velocity": 103,
      "chip": "ym2612"
    },
    {
      "channel": 4,
      "note": 39,
      "start": 31.9,
      "duration": 3.1434,
      "velocity": 92,
      "chip": "ym2612"
    },
    {
      "channel": 5,
      "note": 70,
      "start": 31.9052,
      "duration": 1.5405,
      "velocity": 93,
      "chip": "ym2612"
    },
    {
      "channel": 3,
      "note": 68,
      "start": 32.0893,
      "duration": 0.0466,
      "velocity": 103,
      "chip": "ym2612"
    },
    {
      "channel": 3,
      "note": 68,
      "start": 32.2835,
      "duration": 0.0569,
      "velocity": 103,
      "chip": "ym2612"
    },
    {
      "channel": 3,
      "note": 68,
      "start": 32.4883,
      "duration": 0.0466,
      "velocity": 103,
      "chip": "ym2612"
    },
    {
      "channel": 2,
      "note": 44,
      "start": 32.6826,
      "duration": 0.0978,
      "velocity": 118,
      "chip": "ym2612"
    },
    {
      "channel": 3,
      "note": 68,
      "start": 32.6878,
      "duration": 0.0518,
      "velocity": 103,
      "chip": "ym2612"
    },
    {
      "channel": 3,
      "note": 68,
      "start": 32.8874,
      "duration": 0.0467,
      "velocity": 103,
      "chip": "ym2612"
    },
    {
      "channel": 3,
      "note": 68,
      "start": 33.0817,
      "duration": 0.0569,
      "velocity": 103,
      "chip": "ym2612"
    },
    {
      "channel": 2,
      "note": 44,
      "start": 33.2864,
      "duration": 0.0978,
      "velocity": 118,
      "chip": "ym2612"
    },
    {
      "channel": 3,
      "note": 68,
      "start": 33.2916,
      "duration": 0.0415,
      "velocity": 103,
      "chip": "ym2612"
    },
    {
      "channel": 3,
      "note": 68,
      "start": 33.4807,
      "duration": 0.0569,
      "velocity": 103,
      "chip": "ym2612"
    },
    {
      "channel": 5,
      "note": 79,
      "start": 33.4861,
      "duration": 1.5457,
      "velocity": 93,
      "chip": "ym2612"
    },
    {
      "channel": 3,
      "note": 68,
      "start": 33.6855,
      "duration": 0.0466,
      "velocity": 103,
      "chip": "ym2612"
    },
    {
      "channel": 2,
      "note": 44,
      "start": 33.8798,
      "duration": 0.0978,
      "velocity": 118,
      "chip": "ym2612"
    },
    {
      "channel": 3,
      "note": 68,
      "start": 33.885,
      "duration": 0.0517,
      "velocity": 103,
      "chip": "ym2612"
    },
    {
      "channel": 3,
      "note": 68,
      "start": 34.0846,
      "duration": 0.0466,
      "velocity": 103,
      "chip": "ym2612"
    },
    {
      "channel": 3,
      "note": 68,
      "start": 34.2789,
      "duration": 0.0569,
      "velocity": 103,
      "chip": "ym2612"
    },
    {
      "channel": 3,
      "note": 68,
      "start": 34.4835,
      "duration": 0.0467,
      "velocity": 103,
      "chip": "ym2612"
    },
    {
      "channel": 3,
      "note": 68,
      "start": 34.6779,
      "duration": 0.0569,
      "velocity": 103,
      "chip": "ym2612"
    },
    {
      "channel": 3,
      "note": 68,
      "start": 34.8826,
      "duration": 0.0467,
      "velocity": 103,
      "chip": "ym2612"
    },
    {
      "channel": 0,
      "note": 59,
      "start": 35.0768,
      "duration": 3.1574,
      "velocity": 92,
      "chip": "ym2612"
    },
    {
      "channel": 1,
      "note": 66,
      "start": 35.082,
      "duration": 3.1531,
      "velocity": 92,
      "chip": "ym2612"
    },
    {
      "channel": 3,
      "note": 68,
      "start": 35.0874,
      "duration": 0.0467,
      "velocity": 103,
      "chip": "ym2612"
    },
    {
      "channel": 4,
      "note": 35,
      "start": 35.0925,
      "duration": 3.1435,
      "velocity": 92,
      "chip": "ym2612"
    },
    {
      "channel": 5,
      "note": 78,
      "start": 35.0977,
      "duration": 3.1164,
      "velocity": 93,
      "chip": "ym2612"
    },
    {
      "channel": 3,
      "note": 68,
      "start": 35.2817,
      "duration": 0.0467,
      "velocity": 103,
      "chip": "ym2612"
    },
    {
      "channel": 3,
      "note": 68,
      "start": 35.4761,
      "duration": 0.0569,
      "velocity": 103,
      "chip": "ym2612"
    },
    {
      "channel": 3,
      "note": 68,
      "start": 35.6807,
      "duration": 0.0467,
      "velocity": 103,
      "chip": "ym2612"
    },
    {
      "channel": 2,
      "note": 44,
      "start": 35.8751,
      "duration": 0.0978,
      "velocity": 118,
      "chip": "ym2612"
    },
    {
      "channel": 3,
      "note": 68,
      "start": 35.8802,
      "duration": 0.0416,
      "velocity": 103,
      "chip": "ym2612"
    },
    {
      "channel": 3,
      "note": 68,
      "start": 36.0697,
      "duration": 0.0568,
      "velocity": 103,
      "chip": "ym2612"
    },
    {
      "channel": 3,
      "note": 68,
      "start": 36.2743,
      "duration": 0.0466,
      "velocity": 103,
      "chip": "ym2612"
    },
    {
      "channel": 2,
      "note": 44,
      "start": 36.4687,
      "duration": 0.0978,
      "velocity": 118,
      "chip": "ym2612"
    },
    {
      "channel": 3,
      "note": 68,
      "start": 36.4738,
      "duration": 0.0517,
      "velocity": 103,
      "chip": "ym2612"
    },
    {
      "channel": 3,
      "note": 68,
      "start": 36.6733,
      "duration": 0.0467,
      "velocity": 103,
      "chip": "ym2612"
    },
    {
      "channel": 3,
      "note": 68,
      "start": 36.8678,
      "duration": 0.0568,
      "velocity": 103,
      "chip": "ym2612"
    },
    {
      "channel": 2,
      "note": 44,
      "start": 37.0724,
      "duration": 0.0977,
      "velocity": 118,
      "chip": "ym2612"
    },
    {
      "channel": 3,
      "note": 68,
      "start": 37.0776,
      "duration": 0.0415,
      "velocity": 103,
      "chip": "ym2612"
    },
    {
      "channel": 3,
      "note": 68,
      "start": 37.2668,
      "duration": 0.0569,
      "velocity": 103,
      "chip": "ym2612"
    },
    {
      "channel": 3,
      "note": 68,
      "start": 37.4715,
      "duration": 0.0466,
      "velocity": 103,
      "chip": "ym2612"
    },
    {
      "channel": 3,
      "note": 68,
      "start": 37.6659,
      "duration": 0.0569,
      "velocity": 103,
      "chip": "ym2612"
    },
    {
      "channel": 3,
      "note": 68,
      "start": 37.8706,
      "duration": 0.0467,
      "velocity": 103,
      "chip": "ym2612"
    },
    {
      "channel": 3,
      "note": 68,
      "start": 38.0649,
      "duration": 0.0569,
      "velocity": 103,
      "chip": "ym2612"
    },
    {
      "channel": 0,
      "note": 62,
      "start": 38.2694,
      "duration": 3.147,
      "velocity": 92,
      "chip": "ym2612"
    },
    {
      "channel": 1,
      "note": 69,
      "start": 38.2746,
      "duration": 3.1427,
      "velocity": 92,
      "chip": "ym2612"
    },
    {
      "channel": 3,
      "note": 68,
      "start": 38.2799,
      "duration": 0.0466,
      "velocity": 103,
      "chip": "ym2612"
    },
    {
      "channel": 4,
      "note": 38,
      "start": 38.2851,
      "duration": 3.1332,
      "velocity": 92,
      "chip": "ym2612"
    },
    {
      "channel": 5,
      "note": 69,
      "start": 38.2903,
      "duration": 1.5303,
      "velocity": 93,
      "chip": "ym2612"
    },
    {
      "channel": 3,
      "note": 68,
      "start": 38.4639,
      "duration": 0.0569,
      "velocity": 103,
      "chip": "ym2612"
    },
    {
      "channel": 3,
      "note": 68,
      "start": 38.6687,
      "duration": 0.0466,
      "velocity": 103,
      "chip": "ym2612"
    },
    {
      "channel": 3,
      "note": 68,
      "start": 38.8631,
      "duration": 0.0569,
      "velocity": 103,
      "chip": "ym2612"
    },
    {
      "channel": 2,
      "note": 44,
      "start": 39.0677,
      "duration": 0.0978,
      "velocity": 118,
      "chip": "ym2612"
    },
    {
      "channel": 3,
      "note": 68,
      "start": 39.0729,
      "duration": 0.0415,
      "velocity": 103,
      "chip": "ym2612"
    },
    {
      "channel": 3,
      "note": 68,
      "start": 39.2621,
      "duration": 0.0569,
      "velocity": 103,
      "chip": "ym2612"
    },
    {
      "channel": 3,
      "note": 68,
      "start": 39.4668,
      "duration": 0.0467,
      "velocity": 103,
      "chip": "ym2612"
    },
    {
      "channel": 2,
      "note": 44,
      "start": 39.6612,
      "duration": 0.0978,
      "velocity": 118,
      "chip": "ym2612"
    },
    {
      "channel": 3,
      "note": 68,
      "start": 39.6662,
      "duration": 0.0519,
      "velocity": 103,
      "chip": "ym2612"
    },
    {
      "channel": 3,
      "note": 68,
      "start": 39.8659,
      "duration": 0.0466,
      "velocity": 103,
      "chip": "ym2612"
    },
    {
      "channel": 5,
      "note": 76,
      "start": 39.8712,
      "duration": 1.5479,
      "velocity": 93,
      "chip": "ym2612"
    },
    {
      "channel": 3,
      "note": 68,
      "start": 40.0603,
      "duration": 0.0569,
      "velocity": 103,
      "chip": "ym2612"
    },
    {
      "channel": 2,
      "note": 44,
      "start": 40.2649,
      "duration": 0.0978,
      "velocity": 118,
      "chip": "ym2612"
    },
    {
      "channel": 3,
      "note": 68,
      "start": 40.2701,
      "duration": 0.0415,
      "velocity": 103,
      "chip": "ym2612"
    },
    {
      "channel": 3,
      "note": 68,
      "start": 40.4593,
      "duration": 0.0569,
      "velocity": 103,
      "chip": "ym2612"
    },
    {
      "channel": 3,
      "note": 68,
      "start": 40.6639,
      "duration": 0.0467,
      "velocity": 103,
      "chip": "ym2612"
    },
    {
      "channel": 3,
      "note": 68,
      "start": 40.8583,
      "duration": 0.0467,
      "velocity": 103,
      "chip": "ym2612"
    },
    {
      "channel": 3,
      "note": 68,
      "start": 41.0529,
      "duration": 0.0568,
      "velocity": 103,
      "chip": "ym2612"
    },
    {
      "channel": 3,
      "note": 68,
      "start": 41.2575,
      "duration": 0.0466,
      "velocity": 103,
      "chip": "ym2612"
    },
    {
      "channel": 0,
      "note": 58,
      "start": 41.4517,
      "duration": 3.1572,
      "velocity": 92,
      "chip": "ym2612"
    },
    {
      "channel": 1,
      "note": 65,
      "start": 41.4569,
      "duration": 3.1529,
      "velocity": 92,
      "chip": "ym2612"
    },
    {
      "channel": 3,
      "note": 68,
      "start": 41.4622,
      "duration": 0.0568,
      "velocity": 103,
      "chip": "ym2612"
    },
    {
      "channel": 4,
      "note": 34,
      "start": 41.4674,
      "duration": 3.1433,
      "velocity": 92,
      "chip": "ym2612"
    },
    {
      "channel": 5,
      "note": 74,
      "start": 41.4726,
      "duration": 1.5405,
      "velocity": 93,
      "chip": "ym2612"
    },
    {
      "channel": 3,
      "note": 68,
      "start": 41.6565,
      "duration": 0.0467,
      "velocity": 103,
      "chip": "ym2612"
    },
    {
      "channel": 3,
      "note": 68,
      "start": 41.851,
      "duration": 0.0568,
      "velocity": 103,
      "chip": "ym2612"
    },
    {
      "channel": 3,
      "note": 68,
      "start": 42.0557,
      "duration": 0.0466,
      "velocity": 103,
      "chip": "ym2612"
    },
    {
      "channel": 2,
      "note": 44,
      "start": 42.25,
      "duration": 0.0978,
      "velocity": 118,
      "chip": "ym2612"
    },
    {
      "channel": 3,
      "note": 68,
      "start": 42.2552,
      "duration": 0.0517,
      "velocity": 103,
      "chip": "ym2612"
    },
    {
      "channel": 3,
      "note": 68,
      "start": 42.4547,
      "duration": 0.0467,
      "velocity": 103,
      "chip": "ym2612"
    },
    {
      "channel": 3,
      "note": 68,
      "start": 42.6491,
      "duration": 0.0569,
      "velocity": 103,
      "chip": "ym2612"
    },
    {
      "channel": 2,
      "note": 44,
      "start": 42.8537,
      "duration": 0.0978,
      "velocity": 118,
      "chip": "ym2612"
    },
    {
      "channel": 3,
      "note": 68,
      "start": 42.8589,
      "duration": 0.0415,
      "velocity": 103,
      "chip": "ym2612"
    },
    {
      "channel": 3,
      "note": 68,
      "start": 43.0481,
      "duration": 0.0569,
      "velocity": 103,
      "chip": "ym2612"
    },
    {
      "channel": 5,
      "note": 70,
      "start": 43.0534,
      "duration": 1.558,
      "velocity": 93,
      "chip": "ym2612"
    },
    {
      "channel": 3,
      "note": 68,
      "start": 43.2529,
      "duration": 0.0466,
      "velocity": 103,
      "chip": "ym2612"
    },
    {
      "channel": 2,
      "note": 44,
      "start": 43.4472,
      "duration": 0.0978,
      "velocity": 118,
      "chip": "ym2612"
    },
    {
      "channel": 3,
      "note": 68,
      "start": 43.4524,
      "duration": 0.0517,
      "velocity": 103,
      "chip": "ym2612"
    },
    {
      "channel": 3,
      "note": 68,
      "start": 43.6519,
      "duration": 0.0466,
      "velocity": 103,
      "chip": "ym2612"
    },
    {
      "channel": 3,
      "note": 68,
      "start": 43.8462,
      "duration": 0.0569,
      "velocity": 103,
      "chip": "ym2612"
    },
    {
      "channel": 3,
      "note": 68,
      "start": 44.051,
      "duration": 0.0466,
      "velocity": 103,
      "chip": "ym2612"
    },
    {
      "channel": 3,
      "note": 68,
      "start": 44.2453,
      "duration": 0.0569,
      "velocity": 103,
      "chip": "ym2612"
    },
    {
      "channel": 3,
      "note": 68,
      "start": 44.45,
      "duration": 0.0467,
      "velocity": 103,
      "chip": "ym2612"
    },
    {
      "channel": 0,
      "note": 62,
      "start": 44.6442,
      "duration": 3.1573,
      "velocity": 92,
      "chip": "ym2612"
    },
    {
      "channel": 1,
      "note": 69,
      "start": 44.6493,
      "duration": 3.153,
      "velocity": 92,
      "chip": "ym2612"
    },
    {
      "channel": 3,
      "note": 68,
      "start": 44.6547,
      "duration": 0.0467,
      "velocity": 103,
      "chip": "ym2612"
    },
    {
      "channel": 4,
      "note": 38,
      "start": 44.6599,
      "duration": 3.1433,
      "velocity": 92,
      "chip": "ym2612"
    },
    {
      "channel": 5,
      "note": 69,
      "start": 44.665,
      "duration": 1.5303,
      "velocity": 93,
      "chip": "ym2612"
    },
    {
      "channel": 3,
      "note": 68,
      "start": 44.849,
      "duration": 0.0467,
      "velocity": 103,
      "chip": "ym2612"
    },
    {
      "channel": 3,
      "note": 68,
      "start": 45.0435,
      "duration": 0.0569,
      "velocity": 103,
      "chip": "ym2612"
    },
    {
      "channel": 3,
      "note": 68,
      "start": 45.2481,
      "duration": 0.0467,
      "velocity": 103,
      "chip": "ym2612"
    },
    {
      "channel": 2,
      "note": 44,
      "start": 45.4424,
      "duration": 0.0978,
      "velocity": 118,
      "chip": "ym2612"
    },
    {
      "channel": 3,
      "note": 68,
      "start": 45.4476,
      "duration": 0.0519,
      "velocity": 103,
      "chip": "ym2612"
    },
    {
      "channel": 3,
      "note": 68,
      "start": 45.6472,
      "duration": 0.0467,
      "velocity": 103,
      "chip": "ym2612"
    },
    {
      "channel": 3,
      "note": 68,
      "start": 45.8416,
      "duration": 0.0569,
      "velocity": 103,
      "chip": "ym2612"
    },
    {
      "channel": 2,
      "note": 44,
      "start": 46.036,
      "duration": 0.1079,
      "velocity": 118,
      "chip": "ym2612"
    },
    {
      "channel": 3,
      "note": 68,
      "start": 46.0412,
      "duration": 0.0517,
      "velocity": 103,
      "chip": "ym2612"
    },
    {
      "channel": 3,
      "note": 68,
      "start": 46.2407,
      "duration": 0.0467,
      "velocity": 103,
      "chip": "ym2612"
    },
    {
      "channel": 5,
      "note": 78,
      "start": 46.2459,
      "duration": 1.5457,
      "velocity": 93,
      "chip": "ym2612"
    },
    {
      "channel": 3,
      "note": 68,
      "start": 46.4351,
      "duration": 0.0569,
      "velocity": 103,
      "chip": "ym2612"
    },
    {
      "channel": 2,
      "note": 44,
      "start": 46.6397,
      "duration": 0.0978,
      "velocity": 118,
      "chip": "ym2612"
    },
    {
      "channel": 3,
      "note": 68,
      "start": 46.6448,
      "duration": 0.0416,
      "velocity": 103,
      "chip": "ym2612"
    },
    {
      "channel": 3,
      "note": 68,
      "start": 46.8342,
      "duration": 0.0568,
      "velocity": 103,
      "chip": "ym2612"
    },
    {
      "channel": 3,
      "note": 68,
      "start": 47.0389,
      "duration": 0.0466,
      "velocity": 103,
      "chip": "ym2612"
    },
    {
      "channel": 3,
      "note": 68,
      "start": 47.2332,
      "duration": 0.0569,
      "velocity": 103,
      "chip": "ym2612"
    },
    {
      "channel": 3,
      "note": 68,
      "start": 47.4379,
      "duration": 0.0467,
      "velocity": 103,
      "chip": "ym2612"
    },
    {
      "channel": 3,
      "note": 68,
      "start": 47.6323,
      "duration": 0.0569,
      "velocity": 103,
      "chip": "ym2612"
    },
    {
      "channel": 0,
      "note": 58,
      "start": 47.8368,
      "duration": 3.1573,
      "velocity": 92,
      "chip": "ym2612"
    },
    {
      "channel": 1,
      "note": 65,
      "start": 47.842,
      "duration": 3.1529,
      "velocity": 92,
      "chip": "ym2612"
    },
    {
      "channel": 3,
      "note": 68,
      "start": 47.8472,
      "duration": 0.0466,
      "velocity": 103,
      "chip": "ym2612"
    },
    {
      "channel": 4,
      "note": 34,
      "start": 47.8524,
      "duration": 3.1433,
      "velocity": 92,
      "chip": "ym2612"
    },
    {
      "channel": 5,
      "note": 77,
      "start": 47.8577,
      "duration": 3.1266,
      "velocity": 93,
      "chip": "ym2612"
    },
    {
      "channel": 3,
      "note": 68,
      "start": 48.0313,
      "duration": 0.0569,
      "velocity": 103,
      "chip": "ym2612"
    },
    {
      "channel": 3,
      "note": 68,
      "start": 48.2361,
      "duration": 0.0466,
      "velocity": 103,
      "chip": "ym2612"
    },
    {
      "channel": 3,
      "note": 68,
      "start": 48.4304,
      "duration": 0.0569,
      "velocity": 103,
      "chip": "ym2612"
    },
    {
      "channel": 2,
      "note": 44,
      "start": 48.6351,
      "duration": 0.0977,
      "velocity": 118,
      "chip": "ym2612"
    },
    {
      "channel": 3,
      "note": 68,
      "start": 48.6402,
      "duration": 0.0415,
      "velocity": 103,
      "chip": "ym2612"
    },
    {
      "channel": 3,
      "note": 68,
      "start": 48.8295,
      "duration": 0.0569,
      "velocity": 103,
      "chip": "ym2612"
    },
    {
      "channel": 3,
      "note": 68,
      "start": 49.0342,
      "duration": 0.0466,
      "velocity": 103,
      "chip": "ym2612"
    },
    {
      "channel": 2,
      "note": 44,
      "start": 49.2285,
      "duration": 0.0978,
      "velocity": 118,
      "chip": "ym2612"
    },
    {
      "channel": 3,
      "note": 68,
      "start": 49.2336,
      "duration": 0.0518,
      "velocity": 103,
      "chip": "ym2612"
    },
    {
      "channel": 3,
      "note": 68,
      "start": 49.4332,
      "duration": 0.0467,
      "velocity": 103,
      "chip": "ym2612"
    },
    {
      "channel": 3,
      "note": 68,
      "start": 49.6276,
      "duration": 0.057,
      "velocity": 103,
      "chip": "ym2612"
    },
    {
      "channel": 2,
      "note": 44,
      "start": 49.8322,
      "duration": 0.0978,
      "velocity": 118,
      "chip": "ym2612"
    },
    {
      "channel": 3,
      "note": 68,
      "start": 49.8374,
      "duration": 0.0415,
      "velocity": 103,
      "chip": "ym2612"
    },
    {
      "channel": 3,
      "note": 68,
      "start": 50.0266,
      "duration": 0.0569,
      "velocity": 103,
      "chip": "ym2612"
    },
    {
      "channel": 3,
      "note": 68,
      "start": 50.2313,
      "duration": 0.0467,
      "velocity": 103,
      "chip": "ym2612"
    },
    {
      "channel": 3,
      "note": 68,
      "start": 50.4257,
      "duration": 0.0569,
      "velocity": 103,
      "chip": "ym2612"
    },
    {
      "channel": 3,
      "note": 68,
      "start": 50.6304,
      "duration": 0.0467,
      "velocity": 103,
      "chip": "ym2612"
    },
    {
      "channel": 3,
      "note": 68,
      "start": 50.8248,
      "duration": 0.0569,
      "velocity": 103,
      "chip": "ym2612"
    },
    {
      "channel": 0,
      "note": 61,
      "start": 51.0292,
      "duration": 3.1368,
      "velocity": 92,
      "chip": "ym2612"
    },
    {
      "channel": 1,
      "note": 68,
      "start": 51.0345,
      "duration": 3.1421,
      "velocity": 92,
      "chip": "ym2612"
    },
    {
      "channel": 3,
      "note": 68,
      "start": 51.0398,
      "duration": 0.0466,
      "velocity": 103,
      "chip": "ym2612"
    },
    {
      "channel": 4,
      "note": 37,
      "start": 51.0449,
      "duration": 3.1326,
      "velocity": 92,
      "chip": "ym2612"
    },
    {
      "channel": 5,
      "note": 76,
      "start": 51.0501,
      "duration": 1.5303,
      "velocity": 93,
      "chip": "ym2612"
    },
    {
      "channel": 3,
      "note": 68,
      "start": 51.2239,
      "duration": 0.0466,
      "velocity": 103,
      "chip": "ym2612"
    },
    {
      "channel": 3,
      "note": 68,
      "start": 51.4183,
      "duration": 0.0568,
      "velocity": 103,
      "chip": "ym2612"
    },
    {
      "channel": 3,
      "note": 68,
      "start": 51.6229,
      "duration": 0.0467,
      "velocity": 103,
      "chip": "ym2612"
    },
    {
      "channel": 2,
      "note": 44,
      "start": 51.8174,
      "duration": 0.0977,
      "velocity": 118,
      "chip": "ym2612"
    },
    {
      "channel": 3,
      "note": 68,
      "start": 51.8225,
      "duration": 0.0517,
      "velocity": 103,
      "chip": "ym2612"
    },
    {
      "channel": 3,
      "note": 68,
      "start": 52.0221,
      "duration": 0.0466,
      "velocity": 103,
      "chip": "ym2612"
    },
    {
      "channel": 3,
      "note": 68,
      "start": 52.2164,
      "duration": 0.0569,
      "velocity": 103,
      "chip": "ym2612"
    },
    {
      "channel": 2,
      "note": 44,
      "start": 52.4211,
      "duration": 0.0977,
      "velocity": 118,
      "chip": "ym2612"
    },
    {
      "channel": 3,
      "note": 68,
      "start": 52.4262,
      "duration": 0.0416,
      "velocity": 103,
      "chip": "ym2612"
    },
    {
      "channel": 3,
      "note": 68,
      "start": 52.6155,
      "duration": 0.0569,
      "velocity": 103,
      "chip": "ym2612"
    },
    {
      "channel": 5,
      "note": 75,
      "start": 52.6208,
      "duration": 0.7578,
      "velocity": 93,
      "chip": "ym2612"
    },
    {
      "channel": 3,
      "note": 68,
      "start": 52.8202,
      "duration": 0.0466,
      "velocity": 103,
      "chip": "ym2612"
    },
    {
      "channel": 2,
      "note": 44,
      "start": 53.0145,
      "duration": 0.0978,
      "velocity": 118,
      "chip": "ym2612"
    },
    {
      "channel": 3,
      "note": 68,
      "start": 53.0198,
      "duration": 0.0517,
      "velocity": 103,
      "chip": "ym2612"
    },
    {
      "channel": 3,
      "note": 68,
      "start": 53.2192,
      "duration": 0.0466,
      "velocity": 103,
      "chip": "ym2612"
    },
    {
      "channel": 3,
      "note": 68,
      "start": 53.4136,
      "duration": 0.0569,
      "velocity": 103,
      "chip": "ym2612"
    },
    {
      "channel": 5,
      "note": 73,
      "start": 53.4189,
      "duration": 0.7594,
      "velocity": 93,
      "chip": "ym2612"
    },
    {
      "channel": 3,
      "note": 68,
      "start": 53.6183,
      "duration": 0.0466,
      "velocity": 103,
      "chip": "ym2612"
    },
    {
      "channel": 3,
      "note": 68,
      "start": 53.8126,
      "duration": 0.0569,
      "velocity": 103,
      "chip": "ym2612"
    },
    {
      "channel": 3,
      "note": 68,
      "start": 54.0174,
      "duration": 0.0466,
      "velocity": 103,
      "chip": "ym2612"
    },
    {
      "channel": 0,
      "note": 61,
      "start": 54.2115,
      "duration": 3.1471,
      "velocity": 92,
      "chip": "ym2612"
    },
    {
      "channel": 1,
      "note": 69,
      "start": 54.2167,
      "duration": 3.1427,
      "velocity": 92,
      "chip": "ym2612"
    },
    {
      "channel": 3,
      "note": 68,
      "start": 54.222,
      "duration": 0.0466,
      "velocity": 103,
      "chip": "ym2612"
    },
    {
      "channel": 4,
      "note": 37,
      "start": 54.2272,
      "duration": 3.1331,
      "velocity": 92,
      "chip": "ym2612"
    },
    {
      "channel": 5,
      "note": 69,
      "start": 54.2324,
      "duration": 1.5303,
      "velocity": 93,
      "chip": "ym2612"
    },
    {
      "channel": 3,
      "note": 68,
      "start": 54.4164,
      "duration": 0.0467,
      "velocity": 103,
      "chip": "ym2612"
    },
    {
      "channel": 3,
      "note": 68,
      "start": 54.6108,
      "duration": 0.0571,
      "velocity": 103,
      "chip": "ym2612"
    },
    {
      "channel": 3,
      "note": 68,
      "start": 54.8154,
      "duration": 0.0467,
      "velocity": 103,
      "chip": "ym2612"
    },
    {
      "channel": 2,
      "note": 44,
      "start": 55.0098,
      "duration": 0.0978,
      "velocity": 118,
      "chip": "ym2612"
    },
    {
      "channel": 3,
      "note": 68,
      "start": 55.0149,
      "duration": 0.0519,
      "velocity": 103,
      "chip": "ym2612"
    },
    {
      "channel": 3,
      "note": 68,
      "start": 55.2145,
      "duration": 0.0467,
      "velocity": 103,
      "chip": "ym2612"
    },
    {
      "channel": 3,
      "note": 68,
      "start": 55.4089,
      "duration": 0.0569,
      "velocity": 103,
      "chip": "ym2612"
    },
    {
      "channel": 2,
      "note": 44,
      "start": 55.6135,
      "duration": 0.0978,
      "velocity": 118,
      "chip": "ym2612"
    },
    {
      "channel": 3,
      "note": 68,
      "start": 55.6187,
      "duration": 0.0415,
      "velocity": 103,
      "chip": "ym2612"
    },
    {
      "channel": 3,
      "note": 68,
      "start": 55.808,
      "duration": 0.0569,
      "velocity": 103,
      "chip": "ym2612"
    },
    {
      "channel": 5,
      "note": 73,
      "start": 55.8132,
      "duration": 0.7476,
      "velocity": 93,
      "chip": "ym2612"
    },
    {
      "channel": 3,
      "note": 68,
      "start": 56.0126,
      "duration": 0.0467,
      "velocity": 103,
      "chip": "ym2612"
    },
    {
      "channel": 2,
      "note": 44,
      "start": 56.207,
      "duration": 0.0978,
      "velocity": 118,
      "chip": "ym2612"
    },
    {
      "channel": 3,
      "note": 68,
      "start": 56.2121,
      "duration": 0.0416,
      "velocity": 103,
      "chip": "ym2612"
    },
    {
      "channel": 3,
      "note": 68,
      "start": 56.4015,
      "duration": 0.0569,
      "velocity": 103,
      "chip": "ym2612"
    },
    {
      "channel": 3,
      "note": 68,
      "start": 56.6061,
      "duration": 0.0467,
      "velocity": 103,
      "chip": "ym2612"
    },
    {
      "channel": 5,
      "note": 76,
      "start": 56.6113,
      "duration": 0.7498,
      "velocity": 93,
      "chip": "ym2612"
    },
    {
      "channel": 3,
      "note": 68,
      "start": 56.8007,
      "duration": 0.0568,
      "velocity": 103,
      "chip": "ym2612"
    },
    {
      "channel": 3,
      "note": 68,
      "start": 57.0053,
      "duration": 0.0466,
      "velocity": 103,
      "chip": "ym2612"
    },
    {
      "channel": 3,
      "note": 68,
      "start": 57.1996,
      "duration": 0.0569,
      "velocity": 103,
      "chip": "ym2612"
    },
    {
      "channel": 0,
      "note": 63,
      "start": 57.4041,
      "duration": 3.1368,
      "velocity": 92,
      "chip": "ym2612"
    },
    {
      "channel": 1,
      "note": 70,
      "start": 57.4093,
      "duration": 3.1422,
      "velocity": 92,
      "chip": "ym2612"
    },
    {
      "channel": 3,
      "note": 68,
      "start": 57.4146,
      "duration": 0.0466,
      "velocity": 103,
      "chip": "ym2612"
    },
    {
      "channel": 4,
      "note": 39,
      "start": 57.4198,
      "duration": 3.1326,
      "velocity": 92,
      "chip": "ym2612"
    },
    {
      "channel": 5,
      "note": 79,
      "start": 57.425,
      "duration": 1.5302,
      "velocity": 93,
      "chip": "ym2612"
    },
    {
      "channel": 3,
      "note": 68,
      "start": 57.5987,
      "duration": 0.0569,
      "velocity": 103,
      "chip": "ym2612"
    },
    {
      "channel": 3,
      "note": 68,
      "start": 57.8034,
      "duration": 0.0466,
      "velocity": 103,
      "chip": "ym2612"
    },
    {
      "channel": 3,
      "note": 68,
      "start": 57.9977,
      "duration": 0.0569,
      "velocity": 103,
      "chip": "ym2612"
    },
    {
      "channel": 2,
      "note": 44,
      "start": 58.2024,
      "duration": 0.0977,
      "velocity": 118,
      "chip": "ym2612"
    },
    {
      "channel": 3,
      "note": 68,
      "start": 58.2076,
      "duration": 0.0415,
      "velocity": 103,
      "chip": "ym2612"
    },
    {
      "channel": 3,
      "note": 68,
      "start": 58.3968,
      "duration": 0.0569,
      "velocity": 103,
      "chip": "ym2612"
    },
    {
      "channel": 3,
      "note": 68,
      "start": 58.6015,
      "duration": 0.0466,
      "velocity": 103,
      "chip": "ym2612"
    },
    {
      "channel": 2,
      "note": 44,
      "start": 58.7958,
      "duration": 0.0978,
      "velocity": 118,
      "chip": "ym2612"
    },
    {
      "channel": 3,
      "note": 68,
      "start": 58.801,
      "duration": 0.0517,
      "velocity": 103,
      "chip": "ym2612"
    },
    {
      "channel": 3,
      "note": 68,
      "start": 59.0006,
      "duration": 0.0466,
      "velocity": 103,
      "chip": "ym2612"
    },
    {
      "channel": 5,
      "note": 75,
      "start": 59.0059,
      "duration": 1.5473,
      "velocity": 93,
      "chip": "ym2612"
    },
    {
      "channel": 3,
      "note": 68,
      "start": 59.1949,
      "duration": 0.0569,
      "velocity": 103,
      "chip": "ym2612"
    },
    {
      "channel": 2,
      "note": 44,
      "start": 59.3995,
      "duration": 0.0978,
      "velocity": 118,
      "chip": "ym2612"
    },
    {
      "channel": 3,
      "note": 68,
      "start": 59.4048,
      "duration": 0.0415,
      "velocity": 103,
      "chip": "ym2612"
    },
    {
      "channel": 3,
      "note": 68,
      "start": 59.594,
      "duration": 0.057,
      "velocity": 103,
      "chip": "ym2612"
    },
    {
      "channel": 3,
      "note": 68,
      "start": 59.7986,
      "duration": 0.0467,
      "velocity": 103,
      "chip": "ym2612"
    },
    {
      "channel": 3,
      "note": 68,
      "start": 59.9931,
      "duration": 0.0569,
      "velocity": 103,
      "chip": "ym2612"
    },
    {
      "channel": 3,
      "note": 68,
      "start": 60.1977,
      "duration": 0.0467,
      "velocity": 103,
      "chip": "ym2612"
    },
    {
      "channel": 3,
      "note": 68,
      "start": 60.3921,
      "duration": 0.0569,
      "velocity": 103,
      "chip": "ym2612"
    },
    {
      "channel": 0,
      "note": 59,
      "start": 60.5965,
      "duration": 3.1369,
      "velocity": 92,
      "chip": "ym2612"
    },
    {
      "channel": 1,
      "note": 66,
      "start": 60.6018,
      "duration": 3.1421,
      "velocity": 92,
      "chip": "ym2612"
    },
    {
      "channel": 3,
      "note": 68,
      "start": 60.6071,
      "duration": 0.0466,
      "velocity": 103,
      "chip": "ym2612"
    },
    {
      "channel": 4,
      "note": 35,
      "start": 60.6122,
      "duration": 3.1327,
      "velocity": 92,
      "chip": "ym2612"
    },
    {
      "channel": 5,
      "note": 78,
      "start": 60.6175,
      "duration": 1.5303,
      "velocity": 93,
      "chip": "ym2612"
    },
    {
      "channel": 3,
      "note": 68,
      "start": 60.7912,
      "duration": 0.0569,
      "velocity": 103,
      "chip": "ym2612"
    },
    {
      "channel": 3,
      "note": 68,
      "start": 60.9958,
      "duration": 0.0467,
      "velocity": 103,
      "chip": "ym2612"
    },
    {
      "channel": 3,
      "note": 68,
      "start": 61.1902,
      "duration": 0.0468,
      "velocity": 103,
      "chip": "ym2612"
    },
    {
      "channel": 2,
      "note": 44,
      "start": 61.3847,
      "duration": 0.1079,
      "velocity": 118,
      "chip": "ym2612"
    },
    {
      "channel": 3,
      "note": 68,
      "start": 61.3898,
      "duration": 0.0517,
      "velocity": 103,
      "chip": "ym2612"
    },
    {
      "channel": 3,
      "note": 68,
      "start": 61.5893,
      "duration": 0.0467,
      "velocity": 103,
      "chip": "ym2612"
    },
    {
      "channel": 3,
      "note": 68,
      "start": 61.7837,
      "duration": 0.0569,
      "velocity": 103,
      "chip": "ym2612"
    },
    {
      "channel": 2,
      "note": 44,
      "start": 61.9884,
      "duration": 0.0977,
      "velocity": 118,
      "chip": "ym2612"
    },
    {
      "channel": 3,
      "note": 68,
      "start": 61.9936,
      "duration": 0.0415,
      "velocity": 103,
      "chip": "ym2612"
    },
    {
      "channel": 3,
      "note": 68,
      "start": 62.1828,
      "duration": 0.0569,
      "velocity": 103,
      "chip": "ym2612"
    },
    {
      "channel": 5,
      "note": 75,
      "start": 62.1881,
      "duration": 1.5575,
      "velocity": 93,
      "chip": "ym2612"
    },
    {
      "channel": 3,
      "note": 68,
      "start": 62.3876,
      "duration": 0.0467,
      "velocity": 103,
      "chip": "ym2612"
    },
    {
      "channel": 2,
      "note": 44,
      "start": 62.5818,
      "duration": 0.0978,
      "velocity": 118,
      "chip": "ym2612"
    },
    {
      "channel": 3,
      "note": 68,
      "start": 62.5871,
      "duration": 0.0517,
      "velocity": 103,
      "chip": "ym2612"
    },
    {
      "channel": 3,
      "note": 68,
      "start": 62.7866,
      "duration": 0.0466,
      "velocity": 103,
      "chip": "ym2612"
    },
    {
      "channel": 3,
      "note": 68,
      "start": 62.9809,
      "duration": 0.0569,
      "velocity": 103,
      "chip": "ym2612"
    },
    {
      "channel": 3,
      "note": 68,
      "start": 63.1857,
      "duration": 0.0466,
      "velocity": 103,
      "chip": "ym2612"
    },
    {
      "channel": 3,
      "note": 68,
      "start": 63.38,
      "duration": 0.0569,
      "velocity": 103,
      "chip": "ym2612"
    },
    {
      "channel": 3,
      "note": 68,
      "start": 63.5848,
      "duration": 0.0466,
      "velocity": 103,
      "chip": "ym2612"
    },
    {
      "channel": 0,
      "note": 64,
      "start": 63.7788,
      "duration": 3.1573,
      "velocity": 92,
      "chip": "ym2612"
    },
    {
      "channel": 1,
      "note": 71,
      "start": 63.7841,
      "duration": 3.1529,
      "velocity": 92,
      "chip": "ym2612"
    },
    {
      "channel": 3,
      "note": 68,
      "start": 63.7894,
      "duration": 0.0466,
      "velocity": 103,
      "chip": "ym2612"
    },
    {
      "channel": 4,
      "note": 40,
      "start": 63.7946,
      "duration": 3.1434,
      "velocity": 92,
      "chip": "ym2612"
    },
    {
      "channel": 5,
      "note": 79,
      "start": 63.7997,
      "duration": 1.5303,
      "velocity": 93,
      "chip": "ym2612"
    },
    {
      "channel": 3,
      "note": 68,
      "start": 63.9837,
      "duration": 0.0466,
      "velocity": 103,
      "chip": "ym2612"
    },
    {
      "channel": 3,
      "note": 68,
      "start": 64.1781,
      "duration": 0.0569,
      "velocity": 103,
      "chip": "ym2612"
    },
    {
      "channel": 3,
      "note": 68,
      "start": 64.3828,
      "duration": 0.0467,
      "velocity": 103,
      "chip": "ym2612"
    },
    {
      "channel": 2,
      "note": 44,
      "start": 64.5772,
      "duration": 0.0978,
      "velocity": 118,
      "chip": "ym2612"
    },
    {
      "channel": 3,
      "note": 68,
      "start": 64.5823,
      "duration": 0.0519,
      "velocity": 103,
      "chip": "ym2612"
    },
    {
      "channel": 3,
      "note": 68,
      "start": 64.7818,
      "duration": 0.0467,
      "velocity": 103,
      "chip": "ym2612"
    },
    {
      "channel": 3,
      "note": 68,
      "start": 64.9763,
      "duration": 0.0569,
      "velocity": 103,
      "chip": "ym2612"
    },
    {
      "channel": 2,
      "note": 44,
      "start": 65.1809,
      "duration": 0.0978,
      "velocity": 118,
      "chip": "ym2612"
    },
    {
      "channel": 3,
      "note": 68,
      "start": 65.1861,
      "duration": 0.0415,
      "velocity": 103,
      "chip": "ym2612"
    },
    {
      "channel": 3,
      "note": 68,
      "start": 65.3753,
      "duration": 0.0569,
      "velocity": 103,
      "chip": "ym2612"
    },
    {
      "channel": 5,
      "note": 78,
      "start": 65.3805,
      "duration": 0.7477,
      "velocity": 93,
      "chip": "ym2612"
    },
    {
      "channel": 3,
      "note": 68,
      "start": 65.58,
      "duration": 0.0467,
      "velocity": 103,
      "chip": "ym2612"
    },
    {
      "channel": 2,
      "note": 44,
      "start": 65.7743,
      "duration": 0.0978,
      "velocity": 118,
      "chip": "ym2612"
    },
    {
      "channel": 3,
      "note": 68,
      "start": 65.7795,
      "duration": 0.0518,
      "velocity": 103,
      "chip": "ym2612"
    },
    {
      "channel": 3,
      "note": 68,
      "start": 65.979,
      "duration": 0.0467,
      "velocity": 103,
      "chip": "ym2612"
    },
    {
      "channel": 3,
      "note": 68,
      "start": 66.1735,
      "duration": 0.0569,
      "velocity": 103,
      "chip": "ym2612"
    },
    {
      "channel": 5,
      "note": 79,
      "start": 66.1787,
      "duration": 0.7476,
      "velocity": 93,
      "chip": "ym2612"
    },
    {
      "channel": 3,
      "note": 68,
      "start": 66.368,
      "duration": 0.0569,
      "velocity": 103,
      "chip": "ym2612"
    },
    {
      "channel": 3,
      "note": 68,
      "start": 66.5726,
      "duration": 0.0466,
      "velocity": 103,
      "chip": "ym2612"
    },
    {
      "channel": 3,
      "note": 68,
      "start": 66.7669,
      "duration": 0.0569,
      "velocity": 103,
      "chip": "ym2612"
    },
    {
      "channel": 0,
      "note": 64,
      "start": 66.9715,
      "duration": 3.1573,
      "velocity": 92,
      "chip": "ym2612"
    },
    {
      "channel": 1,
      "note": 72,
      "start": 66.9766,
      "duration": 3.1529,
      "velocity": 92,
      "chip": "ym2612"
    },
    {
      "channel": 3,
      "note": 68,
      "start": 66.9819,
      "duration": 0.0466,
      "velocity": 103,
      "chip": "ym2612"
    },
    {
      "channel": 4,
      "note": 40,
      "start": 66.9872,
      "duration": 3.1433,
      "velocity": 92,
      "chip": "ym2612"
    },
    {
      "channel": 5,
      "note": 76,
      "start": 66.9923,
      "duration": 1.5303,
      "velocity": 93,
      "chip": "ym2612"
    },
    {
      "channel": 3,
      "note": 68,
      "start": 67.166,
      "duration": 0.0569,
      "velocity": 103,
      "chip": "ym2612"
    },
    {
      "channel": 3,
      "note": 68,
      "start": 67.3707,
      "duration": 0.0467,
      "velocity": 103,
      "chip": "ym2612"
    },
    {
      "channel": 3,
      "note": 68,
      "start": 67.5651,
      "duration": 0.0569,
      "velocity": 103,
      "chip": "ym2612"
    },
    {
      "channel": 2,
      "note": 44,
      "start": 67.7698,
      "duration": 0.0978,
      "velocity": 118,
      "chip": "ym2612"
    },
    {
      "channel": 3,
      "note": 68,
      "start": 67.7749,
      "duration": 0.0415,
      "velocity": 103,
      "chip": "ym2612"
    },
    {
      "channel": 3,
      "note": 68,
      "start": 67.9641,
      "duration": 0.0569,
      "velocity": 103,
      "chip": "ym2612"
    },
    {
      "channel": 3,
      "note": 68,
      "start": 68.1689,
      "duration": 0.0466,
      "velocity": 103,
      "chip": "ym2612"
    },
    {
      "channel": 2,
      "note": 44,
      "start": 68.3631,
      "duration": 0.0978,
      "velocity": 118,
      "chip": "ym2612"
    },
    {
      "channel": 3,
      "note": 68,
      "start": 68.3684,
      "duration": 0.0517,
      "velocity": 103,
      "chip": "ym2612"
    },
    {
      "channel": 3,
      "note": 68,
      "start": 68.568,
      "duration": 0.0466,
      "velocity": 103,
      "chip": "ym2612"
    },
    {
      "channel": 5,
      "note": 79,
      "start": 68.5732,
      "duration": 0.7475,
      "velocity": 93,
      "chip": "ym2612"
    },
    {
      "channel": 3,
      "note": 68,
      "start": 68.7622,
      "duration": 0.0569,
      "velocity": 103,
      "chip": "ym2612"
    },
    {
      "channel": 2,
      "note": 44,
      "start": 68.9669,
      "duration": 0.0978,
      "velocity": 118,
      "chip": "ym2612"
    },
    {
      "channel": 3,
      "note": 68,
      "start": 68.9721,
      "duration": 0.0415,
      "velocity": 103,
      "chip": "ym2612"
    },
    {
      "channel": 3,
      "note": 68,
      "start": 69.1613,
      "duration": 0.0569,
      "velocity": 103,
      "chip": "ym2612"
    },
    {
      "channel": 3,
      "note": 68,
      "start": 69.366,
      "duration": 0.0467,
      "velocity": 103,
      "chip": "ym2612"
    },
    {
      "channel": 5,
      "note": 83,
      "start": 69.3713,
      "duration": 0.7475,
      "velocity": 93,
      "chip": "ym2612"
    },
    {
      "channel": 3,
      "note": 68,
      "start": 69.5604,
      "duration": 0.057,
      "velocity": 103,
      "chip": "ym2612"
    },
    {
      "channel": 3,
      "note": 68,
      "start": 69.765,
      "duration": 0.0467,
      "velocity": 103,
      "chip": "ym2612"
    },
    {
      "channel": 3,
      "note": 68,
      "start": 69.9595,
      "duration": 0.0569,
      "velocity": 103,
      "chip": "ym2612"
    },
    {
      "channel": 0,
      "note": 66,
      "start": 70.1639,
      "duration": 3.1471,
      "velocity": 92,
      "chip": "ym2612"
    },
    {
      "channel": 1,
      "note": 73,
      "start": 70.1692,
      "duration": 3.1426,
      "velocity": 92,
      "chip": "ym2612"
    },
    {
      "channel": 3,
      "note": 68,
      "start": 70.1744,
      "duration": 0.0466,
      "velocity": 103,
      "chip": "ym2612"
    },
    {
      "channel": 4,
      "note": 42,
      "start": 70.1796,
      "duration": 3.1332,
      "velocity": 92,
      "chip": "ym2612"
    },
    {
      "channel": 5,
      "note": 82,
      "start": 70.1849,
      "duration": 1.5302,
      "velocity": 93,
      "chip": "ym2612"
    },
    {
      "channel": 3,
      "note": 68,
      "start": 70.3585,
      "duration": 0.0569,
      "velocity": 103,
      "chip": "ym2612"
    },
    {
      "channel": 3,
      "note": 68,
      "start": 70.5632,
      "duration": 0.0467,
      "velocity": 103,
      "chip": "ym2612"
    },
    {
      "channel": 3,
      "note": 68,
      "start": 70.7576,
      "duration": 0.0569,
      "velocity": 103,
      "chip": "ym2612"
    },
    {
      "channel": 2,
      "note": 44,
      "start": 70.9622,
      "duration": 0.0978,
      "velocity": 118,
      "chip": "ym2612"
    },
    {
      "channel": 3,
      "note": 68,
      "start": 70.9675,
      "duration": 0.0415,
      "velocity": 103,
      "chip": "ym2612"
    },
    {
      "channel": 3,
      "note": 68,
      "start": 71.1567,
      "duration": 0.0569,
      "velocity": 103,
      "chip": "ym2612"
    },
    {
      "channel": 3,
      "note": 68,
      "start": 71.3613,
      "duration": 0.0467,
      "velocity": 103,
      "chip": "ym2612"
    },
    {
      "channel": 2,
      "note": 44,
      "start": 71.5558,
      "duration": 0.0977,
      "velocity": 118,
      "chip": "ym2612"
    },
    {
      "channel": 3,
      "note": 68,
      "start": 71.5609,
      "duration": 0.0415,
      "velocity": 103,
      "chip": "ym2612"
    },
    {
      "channel": 3,
      "note": 68,
      "start": 71.7501,
      "duration": 0.0569,
      "velocity": 103,
      "chip": "ym2612"
    },
    {
      "channel": 5,
      "note": 78,
      "start": 71.7555,
      "duration": 1.5581,
      "velocity": 93,
      "chip": "ym2612"
    },
    {
      "channel": 3,
      "note": 68,
      "start": 71.9549,
      "duration": 0.0466,
      "velocity": 103,
      "chip": "ym2612"
    },
    {
      "channel": 2,
      "note": 44,
      "start": 72.1491,
      "duration": 0.0978,
      "velocity": 118,
      "chip": "ym2612"
    },
    {
      "channel": 3,
      "note": 68,
      "start": 72.1544,
      "duration": 0.0517,
      "velocity": 103,
      "chip": "ym2612"
    },
    {
      "channel": 3,
      "note": 68,
      "start": 72.354,
      "duration": 0.0467,
      "velocity": 103,
      "chip": "ym2612"
    },
    {
      "channel": 3,
      "note": 68,
      "start": 72.5483,
      "duration": 0.0569,
      "velocity": 103,
      "chip": "ym2612"
    },
    {
      "channel": 3,
      "note": 68,
      "start": 72.753,
      "duration": 0.0466,
      "velocity": 103,
      "chip": "ym2612"
    },
    {
      "channel": 3,
      "note": 68,
      "start": 72.9473,
      "duration": 0.0569,
      "velocity": 103,
      "chip": "ym2612"
    },
    {
      "channel": 3,
      "note": 68,
      "start": 73.1521,
      "duration": 0.0466,
      "velocity": 103,
      "chip": "ym2612"
    },
    {
      "channel": 0,
      "note": 62,
      "start": 73.3462,
      "duration": 3.1573,
      "velocity": 92,
      "chip": "ym2612"
    },
    {
      "channel": 1,
      "note": 69,
      "start": 73.3514,
      "duration": 3.1529,
      "velocity": 92,
      "chip": "ym2612"
    },
    {
      "channel": 3,
      "note": 68,
      "start": 73.3567,
      "duration": 0.0466,
      "velocity": 103,
      "chip": "ym2612"
    },
    {
      "channel": 4,
      "note": 38,
      "start": 73.3619,
      "duration": 3.1434,
      "velocity": 92,
      "chip": "ym2612"
    },
    {
      "channel": 5,
      "note": 81,
      "start": 73.3671,
      "duration": 1.5406,
      "velocity": 93,
      "chip": "ym2612"
    },
    {
      "channel": 3,
      "note": 68,
      "start": 73.5512,
      "duration": 0.0466,
      "velocity": 103,
      "chip": "ym2612"
    },
    {
      "channel": 3,
      "note": 68,
      "start": 73.7455,
      "duration": 0.0569,
      "velocity": 103,
      "chip": "ym2612"
    },
    {
      "channel": 3,
      "note": 68,
      "start": 73.9501,
      "duration": 0.0466,
      "velocity": 103,
      "chip": "ym2612"
    },
    {
      "channel": 2,
      "note": 44,
      "start": 74.1445,
      "duration": 0.0978,
      "velocity": 118,
      "chip": "ym2612"
    },
    {
      "channel": 3,
      "note": 68,
      "start": 74.1496,
      "duration": 0.0518,
      "velocity": 103,
      "chip": "ym2612"
    },
    {
      "channel": 3,
      "note": 68,
      "start": 74.3492,
      "duration": 0.0467,
      "velocity": 103,
      "chip": "ym2612"
    },
    {
      "channel": 3,
      "note": 68,
      "start": 74.5436,
      "duration": 0.057,
      "velocity": 103,
      "chip": "ym2612"
    },
    {
      "channel": 2,
      "note": 44,
      "start": 74.7482,
      "duration": 0.0978,
      "velocity": 118,
      "chip": "ym2612"
    },
    {
      "channel": 3,
      "note": 68,
      "start": 74.7534,
      "duration": 0.0415,
      "velocity": 103,
      "chip": "ym2612"
    },
    {
      "channel": 3,
      "note": 68,
      "start": 74.9427,
      "duration": 0.0569,
      "velocity": 103,
      "chip": "ym2612"
    },
    {
      "channel": 5,
      "note": 78,
      "start": 74.9479,
      "duration": 1.5457,
      "velocity": 93,
      "chip": "ym2612"
    },
    {
      "channel": 3,
      "note": 68,
      "start": 75.1473,
      "duration": 0.0467,
      "velocity": 103,
      "chip": "ym2612"
    },
    {
      "channel": 2,
      "note": 44,
      "start": 75.3417,
      "duration": 0.0978,
      "velocity": 118,
      "chip": "ym2612"
    },
    {
      "channel": 3,
      "note": 68,
      "start": 75.3468,
      "duration": 0.0518,
      "velocity": 103,
      "chip": "ym2612"
    },
    {
      "channel": 3,
      "note": 68,
      "start": 75.5464,
      "duration": 0.0467,
      "velocity": 103,
      "chip": "ym2612"
    },
    {
      "channel": 3,
      "note": 68,
      "start": 75.7408,
      "duration": 0.0569,
      "velocity": 103,
      "chip": "ym2612"
    },
    {
      "channel": 3,
      "note": 68,
      "start": 75.9454,
      "duration": 0.0467,
      "velocity": 103,
      "chip": "ym2612"
    },
    {
      "channel": 3,
      "note": 68,
      "start": 76.1399,
      "duration": 0.0569,
      "velocity": 103,
      "chip": "ym2612"
    },
    {
      "channel": 3,
      "note": 68,
      "start": 76.3446,
      "duration": 0.0467,
      "velocity": 103,
      "chip": "ym2612"
    },
    {
      "channel": 0,
      "note": 58,
      "start": 76.5388,
      "duration": 6.3395,
      "velocity": 92,
      "chip": "ym2612"
    },
    {
      "channel": 1,
      "note": 65,
      "start": 76.544,
      "duration": 6.3353,
      "velocity": 92,
      "chip": "ym2612"
    },
    {
      "channel": 3,
      "note": 68,
      "start": 76.5493,
      "duration": 0.0466,
      "velocity": 103,
      "chip": "ym2612"
    },
    {
      "channel": 4,
      "note": 46,
      "start": 76.5545,
      "duration": 3.1419,
      "velocity": 92,
      "chip": "ym2612"
    },
    {
      "channel": 5,
      "note": 80,
      "start": 76.5597,
      "duration": 0.7321,
      "velocity": 93,
      "chip": "ym2612"
    },
    {
      "channel": 3,
      "note": 68,
      "start": 76.7334,
      "duration": 0.0569,
      "velocity": 103,
      "chip": "ym2612"
    },
    {
      "channel": 3,
      "note": 68,
      "start": 76.9381,
      "duration": 0.0466,
      "velocity": 103,
      "chip": "ym2612"
    },
    {
      "channel": 3,
      "note": 68,
      "start": 77.1324,
      "duration": 0.0569,
      "velocity": 103,
      "chip": "ym2612"
    },
    {
      "channel": 2,
      "note": 44,
      "start": 77.3371,
      "duration": 0.0977,
      "velocity": 118,
      "chip": "ym2612"
    },
    {
      "channel": 3,
      "note": 68,
      "start": 77.3423,
      "duration": 0.0415,
      "velocity": 103,
      "chip": "ym2612"
    },
    {
      "channel": 5,
      "note": 77,
      "start": 77.3475,
      "duration": 0.7424,
      "velocity": 93,
      "chip": "ym2612"
    },
    {
      "channel": 3,
      "note": 68,
      "start": 77.5315,
      "duration": 0.0568,
      "velocity": 103,
      "chip": "ym2612"
    },
    {
      "channel": 3,
      "note": 68,
      "start": 77.7362,
      "duration": 0.0466,
      "velocity": 103,
      "chip": "ym2612"
    },
    {
      "channel": 2,
      "note": 44,
      "start": 77.9305,
      "duration": 0.0978,
      "velocity": 118,
      "chip": "ym2612"
    },
    {
      "channel": 3,
      "note": 68,
      "start": 77.9357,
      "duration": 0.0518,
      "velocity": 103,
      "chip": "ym2612"
    },
    {
      "channel": 3,
      "note": 68,
      "start": 78.1353,
      "duration": 0.0466,
      "velocity": 103,
      "chip": "ym2612"
    },
    {
      "channel": 5,
      "note": 74,
      "start": 78.1405,
      "duration": 0.7475,
      "velocity": 93,
      "chip": "ym2612"
    },
    {
      "channel": 3,
      "note": 68,
      "start": 78.3296,
      "duration": 0.0569,
      "velocity": 103,
      "chip": "ym2612"
    },
    {
      "channel": 2,
      "note": 44,
      "start": 78.5343,
      "duration": 0.0977,
      "velocity": 118,
      "chip": "ym2612"
    },
    {
      "channel": 3,
      "note": 68,
      "start": 78.5395,
      "duration": 0.0415,
      "velocity": 103,
      "chip": "ym2612"
    },
    {
      "channel": 3,
      "note": 68,
      "start": 78.7287,
      "duration": 0.0569,
      "velocity": 103,
      "chip": "ym2612"
    },
    {
      "channel": 3,
      "note": 68,
      "start": 78.9334,
      "duration": 0.0466,
      "velocity": 103,
      "chip": "ym2612"
    },
    {
      "channel": 5,
      "note": 70,
      "start": 78.9387,
      "duration": 0.7475,
      "velocity": 93,
      "chip": "ym2612"
    },
    {
      "channel": 3,
      "note": 68,
      "start": 79.1278,
      "duration": 0.057,
      "velocity": 103,
      "chip": "ym2612"
    },
    {
      "channel": 3,
      "note": 68,
      "start": 79.3324,
      "duration": 0.0467,
      "velocity": 103,
      "chip": "ym2612"
    },
    {
      "channel": 3,
      "note": 68,
      "start": 79.5268,
      "duration": 0.0569,
      "velocity": 103,
      "chip": "ym2612"
    },
    {
      "channel": 3,
      "note": 68,
      "start": 79.7315,
      "duration": 0.0569,
      "velocity": 103,
      "chip": "ym2612"
    },
    {
      "channel": 5,
      "note": 68,
      "start": 79.7368,
      "duration": 0.7477,
      "velocity": 93,
      "chip": "ym2612"
    },
    {
      "channel": 3,
      "note": 68,
      "start": 79.9259,
      "duration": 0.0569,
      "velocity": 103,
      "chip": "ym2612"
    },
    {
      "channel": 3,
      "note": 68,
      "start": 80.1305,
      "duration": 0.0466,
      "velocity": 103,
      "chip": "ym2612"
    },
    {
      "channel": 3,
      "note": 68,
      "start": 80.325,
      "duration": 0.0569,
      "velocity": 103,
      "chip": "ym2612"
    },
    {
      "channel": 2,
      "note": 44,
      "start": 80.5295,
      "duration": 0.0978,
      "velocity": 118,
      "chip": "ym2612"
    },
    {
      "channel": 3,
      "note": 68,
      "start": 80.5348,
      "duration": 0.0415,
      "velocity": 103,
      "chip": "ym2612"
    },
    {
      "channel": 5,
      "note": 65,
      "start": 80.54,
      "duration": 0.7424,
      "velocity": 93,
      "chip": "ym2612"
    },
    {
      "channel": 3,
      "note": 68,
      "start": 80.724,
      "duration": 0.0569,
      "velocity": 103,
      "chip": "ym2612"
    },
    {
      "channel": 3,
      "note": 68,
      "start": 80.9286,
      "duration": 0.0467,
      "velocity": 103,
      "chip": "ym2612"
    },
    {
      "channel": 2,
      "note": 44,
      "start": 81.123,
      "duration": 0.0978,
      "velocity": 118,
      "chip": "ym2612"
    },
    {
      "channel": 3,
      "note": 68,
      "start": 81.1281,
      "duration": 0.0518,
      "velocity": 103,
      "chip": "ym2612"
    },
    {
      "channel": 3,
      "note": 68,
      "start": 81.3277,
      "duration": 0.0467,
      "velocity": 103,
      "chip": "ym2612"
    },
    {
      "channel": 5,
      "note": 62,
      "start": 81.333,
      "duration": 0.7476,
      "velocity": 93,
      "chip": "ym2612"
    },
    {
      "channel": 3,
      "note": 68,
      "start": 81.5222,
      "duration": 0.0568,
      "velocity": 103,
      "chip": "ym2612"
    },
    {
      "channel": 2,
      "note": 44,
      "start": 81.7165,
      "duration": 0.1081,
      "velocity": 118,
      "chip": "ym2612"
    },
    {
      "channel": 3,
      "note": 68,
      "start": 81.7217,
      "duration": 0.0518,
      "velocity": 103,
      "chip": "ym2612"
    },
    {
      "channel": 3,
      "note": 68,
      "start": 81.9213,
      "duration": 0.0466,
      "velocity": 103,
      "chip": "ym2612"
    },
    {
      "channel": 3,
      "note": 68,
      "start": 82.1156,
      "duration": 0.0569,
      "velocity": 103,
      "chip": "ym2612"
    },
    {
      "channel": 5,
      "note": 70,
      "start": 82.121,
      "duration": 0.7594,
      "velocity": 93,
      "chip": "ym2612"
    },
    {
      "channel": 3,
      "note": 68,
      "start": 82.3204,
      "duration": 0.0466,
      "velocity": 103,
      "chip": "ym2612"
    },
    {
      "channel": 3,
      "note": 68,
      "start": 82.5147,
      "duration": 0.0569,
      "velocity": 103,
      "chip": "ym2612"
    },
    {
      "channel": 3,
      "note": 68,
      "start": 82.7194,
      "duration": 0.0466,
      "velocity": 103,
      "chip": "ym2612"
    },
    {
      "channel": 3,
      "note": 68,
      "start": 82.9138,
      "duration": 0.0672,
      "velocity": 103,
      "chip": "ym2612"
    },
    {
      "channel": 4,
      "note": 39,
      "start": 82.919,
      "duration": 4.0329,
      "velocity": 92,
      "chip": "ym2612"
    },
    {
      "channel": 5,
      "note": 63,
      "start": 82.9242,
      "duration": 4.2932,
      "velocity": 93,
      "chip": "ym2612"
    },
    {
      "channel": 3,
      "note": 68,
      "start": 83.1185,
      "duration": 0.0466,
      "velocity": 103,
      "chip": "ym2612"
    },
    {
      "channel": 3,
      "note": 68,
      "start": 83.3128,
      "duration": 0.0569,
      "velocity": 103,
      "chip": "ym2612"
    },
    {
      "channel": 3,
      "note": 68,
      "start": 83.5176,
      "duration": 0.0466,
      "velocity": 103,
      "chip": "ym2612"
    },
    {
      "channel": 2,
      "note": 44,
      "start": 83.7119,
      "duration": 0.0978,
      "velocity": 118,
      "chip": "ym2612"
    },
    {
      "channel": 3,
      "note": 68,
      "start": 83.7169,
      "duration": 0.0518,
      "velocity": 103,
      "chip": "ym2612"
    },
    {
      "channel": 3,
      "note": 68,
      "start": 83.9166,
      "duration": 0.0467,
      "velocity": 103,
      "chip": "ym2612"
    },
    {
      "channel": 3,
      "note": 68,
      "start": 84.111,
      "duration": 0.057,
      "velocity": 103,
      "chip": "ym2612"
    },
    {
      "channel": 2,
      "note": 44,
      "start": 84.3155,
      "duration": 0.0978,
      "velocity": 118,
      "chip": "ym2612"
    },
    {
      "channel": 3,
      "note": 68,
      "start": 84.3207,
      "duration": 0.0415,
      "velocity": 103,
      "chip": "ym2612"
    },
    {
      "channel": 3,
      "note": 68,
      "start": 84.51,
      "duration": 0.0569,
      "velocity": 103,
      "chip": "ym2612"
    },
    {
      "channel": 3,
      "note": 68,
      "start": 84.7146,
      "duration": 0.0467,
      "velocity": 103,
      "chip": "ym2612"
    },
    {
      "channel": 2,
      "note": 44,
      "start": 84.909,
      "duration": 0.0978,
      "velocity": 118,
      "chip": "ym2612"
    },
    {
      "channel": 3,
      "note": 68,
      "start": 84.9141,
      "duration": 0.0518,
      "velocity": 103,
      "chip": "ym2612"
    },
    {
      "channel": 3,
      "note": 68,
      "start": 85.1138,
      "duration": 0.0467,
      "velocity": 103,
      "chip": "ym2612"
    },
    {
      "channel": 3,
      "note": 68,
      "start": 85.3082,
      "duration": 0.0569,
      "velocity": 103,
      "chip": "ym2612"
    },
    {
      "channel": 3,
      "note": 68,
      "start": 85.5128,
      "duration": 0.0467,
      "velocity": 103,
      "chip": "ym2612"
    },
    {
      "channel": 3,
      "note": 68,
      "start": 85.7072,
      "duration": 0.0569,
      "velocity": 103,
      "chip": "ym2612"
    },
    {
      "channel": 3,
      "note": 68,
      "start": 85.9119,
      "duration": 0.0467,
      "velocity": 103,
      "chip": "ym2612"
    },
    {
      "channel": 3,
      "note": 68,
      "start": 86.1063,
      "duration": 0.0569,
      "velocity": 103,
      "chip": "ym2612"
    },
    {
      "channel": 3,
      "note": 68,
      "start": 86.311,
      "duration": 0.0467,
      "velocity": 103,
      "chip": "ym2612"
    },
    {
      "channel": 3,
      "note": 68,
      "start": 86.5055,
      "duration": 0.0568,
      "velocity": 103,
      "chip": "ym2612"
    },
    {
      "channel": 3,
      "note": 68,
      "start": 86.71,
      "duration": 0.0467,
      "velocity": 103,
      "chip": "ym2612"
    },
    {
      "channel": 2,
      "note": 44,
      "start": 86.9045,
      "duration": 0.0977,
      "velocity": 118,
      "chip": "ym2612"
    },
    {
      "channel": 3,
      "note": 68,
      "start": 86.9096,
      "duration": 0.0415,
      "velocity": 103,
      "chip": "ym2612"
    },
    {
      "channel": 3,
      "note": 68,
      "start": 87.0989,
      "duration": 0.0569,
      "velocity": 103,
      "chip": "ym2612"
    },
    {
      "channel": 3,
      "note": 68,
      "start": 87.3036,
      "duration": 0.0466,
      "velocity": 103,
      "chip": "ym2612"
    },
    {
      "channel": 2,
      "note": 44,
      "start": 87.4978,
      "duration": 0.0978,
      "velocity": 118,
      "chip": "ym2612"
    },
    {
      "channel": 3,
      "note": 68,
      "start": 87.5031,
      "duration": 0.0517,
      "velocity": 103,
      "chip": "ym2612"
    },
    {
      "channel": 3,
      "note": 68,
      "start": 87.7026,
      "duration": 0.0466,
      "velocity": 103,
      "chip": "ym2612"
    },
    {
      "channel": 3,
      "note": 68,
      "start": 87.897,
      "duration": 0.0569,
      "velocity": 103,
      "chip": "ym2612"
    },
    {
      "channel": 2,
      "note": 44,
      "start": 88.1017,
      "duration": 0.0977,
      "velocity": 118,
      "chip": "ym2612"
    },
    {
      "channel": 3,
      "note": 68,
      "start": 88.1068,
      "duration": 0.0415,
      "velocity": 103,
      "chip": "ym2612"
    },
    {
      "channel": 3,
      "note": 68,
      "start": 88.296,
      "duration": 0.0569,
      "velocity": 103,
      "chip": "ym2612"
    },
    {
      "channel": 3,
      "note": 68,
      "start": 88.5008,
      "duration": 0.0466,
      "velocity": 103,
      "chip": "ym2612"
    },
    {
      "channel": 3,
      "note": 68,
      "start": 88.6951,
      "duration": 0.0569,
      "velocity": 103,
      "chip": "ym2612"
    },
    {
      "channel": 3,
      "note": 68,
      "start": 88.8998,
      "duration": 0.0466,
      "velocity": 103,
      "chip": "ym2612"
    },
    {
      "channel": 3,
      "note": 68,
      "start": 89.0942,
      "duration": 0.057,
      "velocity": 103,
      "chip": "ym2612"
    },
    {
      "channel": 0,
      "note": 63,
      "start": 89.3043,
      "duration": 0.0,
      "velocity": 92,
      "chip": "ym2612"
    }
  ]
}