{
  "track_name": "15 - Stage 9 (Part 2)",
  "duration_sec": 53.886,
  "sample_rate": 44100,
  "note_count": 737,
  "unique_pitches": 15,
  "pitch_range": 45,
  "avg_note_duration": 0.4062,
  "reconstruction_stats": {
    "notes_reconstructed": 737,
    "keyon_events": 737,
    "keyoff_events": 731,
    "orphan_keyons": 6,
    "unique_pitches": 15,
    "pitch_range": 45,
    "avg_duration_sec": 0.4062
  },
  "metadata": {
    "source": "Z\\Zaxxon's Motherbase 2000\\15 - Stage 9 (Part 2).vgz"
  },
  "notes": [
    {
      "channel": 1,
      "note": 24,
      "start": 0.0,
      "duration": 0.3481,
      "velocity": 127,
      "chip": "ym2612"
    },
    {
      "channel": 5,
      "note": 37,
      "start": 0.0061,
      "duration": 5.8861,
      "velocity": 127,
      "chip": "ym2612"
    },
    {
      "channel": 1,
      "note": 24,
      "start": 0.3487,
      "duration": 0.1161,
      "velocity": 127,
      "chip": "ym2612"
    },
    {
      "channel": 1,
      "note": 24,
      "start": 0.4654,
      "duration": 0.1161,
      "velocity": 127,
      "chip": "ym2612"
    },
    {
      "channel": 1,
      "note": 24,
      "start": 0.582,
      "duration": 0.1328,
      "velocity": 127,
      "chip": "ym2612"
    },
    {
      "channel": 1,
      "note": 24,
      "start": 0.7156,
      "duration": 0.3659,
      "velocity": 127,
      "chip": "ym2612"
    },
    {
      "channel": 1,
      "note": 24,
      "start": 1.082,
      "duration": 0.1161,
      "velocity": 127,
      "chip": "ym2612"
    },
    {
      "channel": 1,
      "note": 24,
      "start": 1.1987,
      "duration": 0.1328,
      "velocity": 127,
      "chip": "ym2612"
    },
    {
      "channel": 1,
      "note": 24,
      "start": 1.332,
      "duration": 0.1165,
      "velocity": 127,
      "chip": "ym2612"
    },
    {
      "channel": 1,
      "note": 24,
      "start": 1.4492,
      "duration": 0.3656,
      "velocity": 127,
      "chip": "ym2612"
    },
    {
      "channel": 1,
      "note": 24,
      "start": 1.8154,
      "duration": 0.1328,
      "velocity": 127,
      "chip": "ym2612"
    },
    {
      "channel": 1,
      "note": 24,
      "start": 1.9487,
      "duration": 0.1161,
      "velocity": 127,
      "chip": "ym2612"
    },
    {
      "channel": 1,
      "note": 24,
      "start": 2.0654,
      "duration": 0.1162,
      "velocity": 127,
      "chip": "ym2612"
    },
    {
      "channel": 1,
      "note": 24,
      "start": 2.1821,
      "duration": 0.1327,
      "velocity": 127,
      "chip": "ym2612"
    },
    {
      "channel": 1,
      "note": 24,
      "start": 2.3154,
      "duration": 0.1161,
      "velocity": 127,
      "chip": "ym2612"
    },
    {
      "channel": 1,
      "note": 24,
      "start": 2.432,
      "duration": 0.1325,
      "velocity": 127,
      "chip": "ym2612"
    },
    {
      "channel": 1,
      "note": 24,
      "start": 2.5651,
      "duration": 0.1163,
      "velocity": 127,
      "chip": "ym2612"
    },
    {
      "channel": 1,
      "note": 24,
      "start": 2.682,
      "duration": 0.1161,
      "velocity": 127,
      "chip": "ym2612"
    },
    {
      "channel": 1,
      "note": 24,
      "start": 2.7987,
      "duration": 0.1331,
      "velocity": 127,
      "chip": "ym2612"
    },
    {
      "channel": 1,
      "note": 24,
      "start": 2.9325,
      "duration": 0.3656,
      "velocity": 127,
      "chip": "ym2612"
    },
    {
      "channel": 1,
      "note": 24,
      "start": 3.2987,
      "duration": 0.1161,
      "velocity": 127,
      "chip": "ym2612"
    },
    {
      "channel": 1,
      "note": 24,
      "start": 3.4154,
      "duration": 0.1328,
      "velocity": 127,
      "chip": "ym2612"
    },
    {
      "channel": 1,
      "note": 24,
      "start": 3.5487,
      "duration": 0.1162,
      "velocity": 127,
      "chip": "ym2612"
    },
    {
      "channel": 1,
      "note": 24,
      "start": 3.6656,
      "duration": 0.3659,
      "velocity": 127,
      "chip": "ym2612"
    },
    {
      "channel": 1,
      "note": 24,
      "start": 4.032,
      "duration": 0.1328,
      "velocity": 127,
      "chip": "ym2612"
    },
    {
      "channel": 1,
      "note": 24,
      "start": 4.1654,
      "duration": 0.1161,
      "velocity": 127,
      "chip": "ym2612"
    },
    {
      "channel": 1,
      "note": 24,
      "start": 4.282,
      "duration": 0.1165,
      "velocity": 127,
      "chip": "ym2612"
    },
    {
      "channel": 1,
      "note": 24,
      "start": 4.3992,
      "duration": 0.3823,
      "velocity": 127,
      "chip": "ym2612"
    },
    {
      "channel": 1,
      "note": 24,
      "start": 4.782,
      "duration": 0.1161,
      "velocity": 127,
      "chip": "ym2612"
    },
    {
      "channel": 1,
      "note": 24,
      "start": 4.8987,
      "duration": 0.1161,
      "velocity": 127,
      "chip": "ym2612"
    },
    {
      "channel": 1,
      "note": 24,
      "start": 5.0154,
      "duration": 0.1328,
      "velocity": 127,
      "chip": "ym2612"
    },
    {
      "channel": 1,
      "note": 24,
      "start": 5.1488,
      "duration": 0.116,
      "velocity": 127,
      "chip": "ym2612"
    },
    {
      "channel": 1,
      "note": 24,
      "start": 5.2654,
      "duration": 0.1161,
      "velocity": 127,
      "chip": "ym2612"
    },
    {
      "channel": 1,
      "note": 24,
      "start": 5.382,
      "duration": 0.1325,
      "velocity": 127,
      "chip": "ym2612"
    },
    {
      "channel": 1,
      "note": 24,
      "start": 5.5151,
      "duration": 0.1163,
      "velocity": 127,
      "chip": "ym2612"
    },
    {
      "channel": 1,
      "note": 24,
      "start": 5.632,
      "duration": 0.1328,
      "velocity": 127,
      "chip": "ym2612"
    },
    {
      "channel": 1,
      "note": 24,
      "start": 5.7654,
      "duration": 0.1189,
      "velocity": 127,
      "chip": "ym2612"
    },
    {
      "channel": 0,
      "note": 67,
      "start": 5.8838,
      "duration": 2.9473,
      "velocity": 95,
      "chip": "ym2612"
    },
    {
      "channel": 1,
      "note": 24,
      "start": 5.885,
      "duration": 0.3634,
      "velocity": 127,
      "chip": "ym2612"
    },
    {
      "channel": 2,
      "note": 52,
      "start": 5.8857,
      "duration": 0.7303,
      "velocity": 79,
      "chip": "ym2612"
    },
    {
      "channel": 3,
      "note": 59,
      "start": 5.8887,
      "duration": 2.945,
      "velocity": 95,
      "chip": "ym2612"
    },
    {
      "channel": 4,
      "note": 45,
      "start": 5.8919,
      "duration": 0.358,
      "velocity": 122,
      "chip": "ym2612"
    },
    {
      "channel": 5,
      "note": 37,
      "start": 5.8929,
      "duration": 5.895,
      "velocity": 127,
      "chip": "ym2612"
    },
    {
      "channel": 1,
      "note": 24,
      "start": 6.249,
      "duration": 0.1328,
      "velocity": 127,
      "chip": "ym2612"
    },
    {
      "channel": 4,
      "note": 45,
      "start": 6.2502,
      "duration": 0.133,
      "velocity": 122,
      "chip": "ym2612"
    },
    {
      "channel": 1,
      "note": 24,
      "start": 6.3823,
      "duration": 0.1161,
      "velocity": 127,
      "chip": "ym2612"
    },
    {
      "channel": 4,
      "note": 45,
      "start": 6.3836,
      "duration": 0.1163,
      "velocity": 122,
      "chip": "ym2612"
    },
    {
      "channel": 1,
      "note": 24,
      "start": 6.499,
      "duration": 0.1162,
      "velocity": 127,
      "chip": "ym2612"
    },
    {
      "channel": 4,
      "note": 45,
      "start": 6.5003,
      "duration": 0.1191,
      "velocity": 122,
      "chip": "ym2612"
    },
    {
      "channel": 1,
      "note": 24,
      "start": 6.6158,
      "duration": 0.3659,
      "velocity": 127,
      "chip": "ym2612"
    },
    {
      "channel": 2,
      "note": 52,
      "start": 6.6165,
      "duration": 0.7498,
      "velocity": 79,
      "chip": "ym2612"
    },
    {
      "channel": 4,
      "note": 45,
      "start": 6.62,
      "duration": 0.3632,
      "velocity": 122,
      "chip": "ym2612"
    },
    {
      "channel": 1,
      "note": 24,
      "start": 6.9823,
      "duration": 0.1328,
      "velocity": 127,
      "chip": "ym2612"
    },
    {
      "channel": 4,
      "note": 45,
      "start": 6.9836,
      "duration": 0.133,
      "velocity": 122,
      "chip": "ym2612"
    },
    {
      "channel": 1,
      "note": 24,
      "start": 7.1156,
      "duration": 0.1161,
      "velocity": 127,
      "chip": "ym2612"
    },
    {
      "channel": 4,
      "note": 45,
      "start": 7.1169,
      "duration": 0.1163,
      "velocity": 122,
      "chip": "ym2612"
    },
    {
      "channel": 1,
      "note": 24,
      "start": 7.2323,
      "duration": 0.133,
      "velocity": 127,
      "chip": "ym2612"
    },
    {
      "channel": 4,
      "note": 45,
      "start": 7.2336,
      "duration": 0.1362,
      "velocity": 122,
      "chip": "ym2612"
    },
    {
      "channel": 1,
      "note": 24,
      "start": 7.366,
      "duration": 0.3657,
      "velocity": 127,
      "chip": "ym2612"
    },
    {
      "channel": 2,
      "note": 52,
      "start": 7.3666,
      "duration": 0.7325,
      "velocity": 79,
      "chip": "ym2612"
    },
    {
      "channel": 4,
      "note": 45,
      "start": 7.3703,
      "duration": 0.3629,
      "velocity": 122,
      "chip": "ym2612"
    },
    {
      "channel": 1,
      "note": 24,
      "start": 7.7323,
      "duration": 0.1161,
      "velocity": 127,
      "chip": "ym2612"
    },
    {
      "channel": 4,
      "note": 45,
      "start": 7.7336,
      "duration": 0.1163,
      "velocity": 122,
      "chip": "ym2612"
    },
    {
      "channel": 1,
      "note": 24,
      "start": 7.849,
      "duration": 0.1328,
      "velocity": 127,
      "chip": "ym2612"
    },
    {
      "channel": 4,
      "note": 45,
      "start": 7.8502,
      "duration": 0.133,
      "velocity": 122,
      "chip": "ym2612"
    },
    {
      "channel": 1,
      "note": 24,
      "start": 7.9823,
      "duration": 0.1162,
      "velocity": 127,
      "chip": "ym2612"
    },
    {
      "channel": 4,
      "note": 45,
      "start": 7.9836,
      "duration": 0.1167,
      "velocity": 122,
      "chip": "ym2612"
    },
    {
      "channel": 1,
      "note": 24,
      "start": 8.099,
      "duration": 0.116,
      "velocity": 127,
      "chip": "ym2612"
    },
    {
      "channel": 2,
      "note": 52,
      "start": 8.0997,
      "duration": 0.7333,
      "velocity": 79,
      "chip": "ym2612"
    },
    {
      "channel": 4,
      "note": 45,
      "start": 8.1007,
      "duration": 0.116,
      "velocity": 122,
      "chip": "ym2612"
    },
    {
      "channel": 1,
      "note": 24,
      "start": 8.2156,
      "duration": 0.1328,
      "velocity": 127,
      "chip": "ym2612"
    },
    {
      "channel": 4,
      "note": 45,
      "start": 8.2172,
      "duration": 0.1329,
      "velocity": 122,
      "chip": "ym2612"
    },
    {
      "channel": 1,
      "note": 24,
      "start": 8.349,
      "duration": 0.1158,
      "velocity": 127,
      "chip": "ym2612"
    },
    {
      "channel": 4,
      "note": 45,
      "start": 8.3505,
      "duration": 0.1158,
      "velocity": 122,
      "chip": "ym2612"
    },
    {
      "channel": 1,
      "note": 24,
      "start": 8.4653,
      "duration": 0.1164,
      "velocity": 127,
      "chip": "ym2612"
    },
    {
      "channel": 4,
      "note": 45,
      "start": 8.4667,
      "duration": 0.1167,
      "velocity": 122,
      "chip": "ym2612"
    },
    {
      "channel": 1,
      "note": 24,
      "start": 8.5823,
      "duration": 0.1328,
      "velocity": 127,
      "chip": "ym2612"
    },
    {
      "channel": 4,
      "note": 45,
      "start": 8.5838,
      "duration": 0.133,
      "velocity": 122,
      "chip": "ym2612"
    },
    {
      "channel": 1,
      "note": 24,
      "start": 8.7156,
      "duration": 0.1164,
      "velocity": 127,
      "chip": "ym2612"
    },
    {
      "channel": 4,
      "note": 45,
      "start": 8.7172,
      "duration": 0.1199,
      "velocity": 122,
      "chip": "ym2612"
    },
    {
      "channel": 0,
      "note": 66,
      "start": 8.8316,
      "duration": 2.9494,
      "velocity": 95,
      "chip": "ym2612"
    },
    {
      "channel": 1,
      "note": 24,
      "start": 8.8327,
      "duration": 0.3656,
      "velocity": 127,
      "chip": "ym2612"
    },
    {
      "channel": 2,
      "note": 47,
      "start": 8.8335,
      "duration": 0.7492,
      "velocity": 79,
      "chip": "ym2612"
    },
    {
      "channel": 3,
      "note": 59,
      "start": 8.8342,
      "duration": 2.9494,
      "velocity": 95,
      "chip": "ym2612"
    },
    {
      "channel": 4,
      "note": 45,
      "start": 8.8376,
      "duration": 0.3622,
      "velocity": 122,
      "chip": "ym2612"
    },
    {
      "channel": 1,
      "note": 24,
      "start": 9.199,
      "duration": 0.1328,
      "velocity": 127,
      "chip": "ym2612"
    },
    {
      "channel": 4,
      "note": 45,
      "start": 9.2002,
      "duration": 0.133,
      "velocity": 122,
      "chip": "ym2612"
    },
    {
      "channel": 1,
      "note": 24,
      "start": 9.3323,
      "duration": 0.1161,
      "velocity": 127,
      "chip": "ym2612"
    },
    {
      "channel": 4,
      "note": 45,
      "start": 9.3336,
      "duration": 0.1163,
      "velocity": 122,
      "chip": "ym2612"
    },
    {
      "channel": 1,
      "note": 24,
      "start": 9.449,
      "duration": 0.1328,
      "velocity": 127,
      "chip": "ym2612"
    },
    {
      "channel": 4,
      "note": 45,
      "start": 9.4503,
      "duration": 0.1358,
      "velocity": 122,
      "chip": "ym2612"
    },
    {
      "channel": 1,
      "note": 24,
      "start": 9.5825,
      "duration": 0.3659,
      "velocity": 127,
      "chip": "ym2612"
    },
    {
      "channel": 2,
      "note": 47,
      "start": 9.5831,
      "duration": 0.7331,
      "velocity": 79,
      "chip": "ym2612"
    },
    {
      "channel": 4,
      "note": 45,
      "start": 9.5866,
      "duration": 0.3632,
      "velocity": 122,
      "chip": "ym2612"
    },
    {
      "channel": 1,
      "note": 24,
      "start": 9.949,
      "duration": 0.1161,
      "velocity": 127,
      "chip": "ym2612"
    },
    {
      "channel": 4,
      "note": 45,
      "start": 9.9502,
      "duration": 0.1163,
      "velocity": 122,
      "chip": "ym2612"
    },
    {
      "channel": 1,
      "note": 24,
      "start": 10.0656,
      "duration": 0.1161,
      "velocity": 127,
      "chip": "ym2612"
    },
    {
      "channel": 4,
      "note": 45,
      "start": 10.0669,
      "duration": 0.1164,
      "velocity": 122,
      "chip": "ym2612"
    },
    {
      "channel": 1,
      "note": 24,
      "start": 10.1823,
      "duration": 0.133,
      "velocity": 127,
      "chip": "ym2612"
    },
    {
      "channel": 4,
      "note": 45,
      "start": 10.1837,
      "duration": 0.1361,
      "velocity": 122,
      "chip": "ym2612"
    },
    {
      "channel": 1,
      "note": 24,
      "start": 10.316,
      "duration": 0.3657,
      "velocity": 127,
      "chip": "ym2612"
    },
    {
      "channel": 2,
      "note": 47,
      "start": 10.3166,
      "duration": 0.7325,
      "velocity": 79,
      "chip": "ym2612"
    },
    {
      "channel": 4,
      "note": 45,
      "start": 10.3203,
      "duration": 0.3629,
      "velocity": 122,
      "chip": "ym2612"
    },
    {
      "channel": 1,
      "note": 24,
      "start": 10.6823,
      "duration": 0.1161,
      "velocity": 127,
      "chip": "ym2612"
    },
    {
      "channel": 4,
      "note": 45,
      "start": 10.6836,
      "duration": 0.1163,
      "velocity": 122,
      "chip": "ym2612"
    },
    {
      "channel": 1,
      "note": 24,
      "start": 10.799,
      "duration": 0.1328,
      "velocity": 127,
      "chip": "ym2612"
    },
    {
      "channel": 4,
      "note": 45,
      "start": 10.8002,
      "duration": 0.133,
      "velocity": 122,
      "chip": "ym2612"
    },
    {
      "channel": 1,
      "note": 24,
      "start": 10.9323,
      "duration": 0.1162,
      "velocity": 127,
      "chip": "ym2612"
    },
    {
      "channel": 4,
      "note": 45,
      "start": 10.9336,
      "duration": 0.1167,
      "velocity": 122,
      "chip": "ym2612"
    },
    {
      "channel": 1,
      "note": 24,
      "start": 11.049,
      "duration": 0.1327,
      "velocity": 127,
      "chip": "ym2612"
    },
    {
      "channel": 2,
      "note": 47,
      "start": 11.0497,
      "duration": 0.7333,
      "velocity": 79,
      "chip": "ym2612"
    },
    {
      "channel": 4,
      "note": 45,
      "start": 11.0507,
      "duration": 0.1327,
      "velocity": 122,
      "chip": "ym2612"
    },
    {
      "channel": 1,
      "note": 24,
      "start": 11.1823,
      "duration": 0.1161,
      "velocity": 127,
      "chip": "ym2612"
    },
    {
      "channel": 4,
      "note": 45,
      "start": 11.1838,
      "duration": 0.1162,
      "velocity": 122,
      "chip": "ym2612"
    },
    {
      "channel": 1,
      "note": 24,
      "start": 11.299,
      "duration": 0.1158,
      "velocity": 127,
      "chip": "ym2612"
    },
    {
      "channel": 4,
      "note": 45,
      "start": 11.3005,
      "duration": 0.1158,
      "velocity": 122,
      "chip": "ym2612"
    },
    {
      "channel": 1,
      "note": 24,
      "start": 11.4153,
      "duration": 0.1331,
      "velocity": 127,
      "chip": "ym2612"
    },
    {
      "channel": 4,
      "note": 45,
      "start": 11.4167,
      "duration": 0.1333,
      "velocity": 122,
      "chip": "ym2612"
    },
    {
      "channel": 1,
      "note": 24,
      "start": 11.549,
      "duration": 0.1161,
      "velocity": 127,
      "chip": "ym2612"
    },
    {
      "channel": 4,
      "note": 45,
      "start": 11.5505,
      "duration": 0.1163,
      "velocity": 122,
      "chip": "ym2612"
    },
    {
      "channel": 1,
      "note": 24,
      "start": 11.6656,
      "duration": 0.1164,
      "velocity": 127,
      "chip": "ym2612"
    },
    {
      "channel": 4,
      "note": 45,
      "start": 11.6672,
      "duration": 0.1199,
      "velocity": 122,
      "chip": "ym2612"
    },
    {
      "channel": 0,
      "note": 64,
      "start": 11.7816,
      "duration": 1.4828,
      "velocity": 95,
      "chip": "ym2612"
    },
    {
      "channel": 1,
      "note": 24,
      "start": 11.7827,
      "duration": 0.3823,
      "velocity": 127,
      "chip": "ym2612"
    },
    {
      "channel": 2,
      "note": 52,
      "start": 11.7835,
      "duration": 0.7492,
      "velocity": 79,
      "chip": "ym2612"
    },
    {
      "channel": 3,
      "note": 59,
      "start": 11.7842,
      "duration": 1.4829,
      "velocity": 95,
      "chip": "ym2612"
    },
    {
      "channel": 4,
      "note": 45,
      "start": 11.7876,
      "duration": 0.3789,
      "velocity": 122,
      "chip": "ym2612"
    },
    {
      "channel": 5,
      "note": 37,
      "start": 11.7886,
      "duration": 5.916,
      "velocity": 127,
      "chip": "ym2612"
    },
    {
      "channel": 1,
      "note": 24,
      "start": 12.1656,
      "duration": 0.1161,
      "velocity": 127,
      "chip": "ym2612"
    },
    {
      "channel": 4,
      "note": 45,
      "start": 12.1669,
      "duration": 0.1163,
      "velocity": 122,
      "chip": "ym2612"
    },
    {
      "channel": 1,
      "note": 24,
      "start": 12.2823,
      "duration": 0.1161,
      "velocity": 127,
      "chip": "ym2612"
    },
    {
      "channel": 4,
      "note": 45,
      "start": 12.2836,
      "duration": 0.1163,
      "velocity": 122,
      "chip": "ym2612"
    },
    {
      "channel": 1,
      "note": 24,
      "start": 12.399,
      "duration": 0.1328,
      "velocity": 127,
      "chip": "ym2612"
    },
    {
      "channel": 4,
      "note": 45,
      "start": 12.4003,
      "duration": 0.1359,
      "velocity": 122,
      "chip": "ym2612"
    },
    {
      "channel": 1,
      "note": 24,
      "start": 12.5325,
      "duration": 0.3659,
      "velocity": 127,
      "chip": "ym2612"
    },
    {
      "channel": 2,
      "note": 56,
      "start": 12.5332,
      "duration": 0.7332,
      "velocity": 79,
      "chip": "ym2612"
    },
    {
      "channel": 4,
      "note": 45,
      "start": 12.5368,
      "duration": 0.3631,
      "velocity": 122,
      "chip": "ym2612"
    },
    {
      "channel": 1,
      "note": 24,
      "start": 12.899,
      "duration": 0.1161,
      "velocity": 127,
      "chip": "ym2612"
    },
    {
      "channel": 4,
      "note": 45,
      "start": 12.9002,
      "duration": 0.1163,
      "velocity": 122,
      "chip": "ym2612"
    },
    {
      "channel": 1,
      "note": 24,
      "start": 13.0156,
      "duration": 0.1328,
      "velocity": 127,
      "chip": "ym2612"
    },
    {
      "channel": 4,
      "note": 45,
      "start": 13.0169,
      "duration": 0.133,
      "velocity": 122,
      "chip": "ym2612"
    },
    {
      "channel": 1,
      "note": 24,
      "start": 13.149,
      "duration": 0.1166,
      "velocity": 127,
      "chip": "ym2612"
    },
    {
      "channel": 4,
      "note": 45,
      "start": 13.1503,
      "duration": 0.12,
      "velocity": 122,
      "chip": "ym2612"
    },
    {
      "channel": 0,
      "note": 63,
      "start": 13.2649,
      "duration": 1.4828,
      "velocity": 95,
      "chip": "ym2612"
    },
    {
      "channel": 1,
      "note": 24,
      "start": 13.2662,
      "duration": 0.3655,
      "velocity": 127,
      "chip": "ym2612"
    },
    {
      "channel": 2,
      "note": 47,
      "start": 13.267,
      "duration": 0.7322,
      "velocity": 79,
      "chip": "ym2612"
    },
    {
      "channel": 3,
      "note": 59,
      "start": 13.2677,
      "duration": 1.4826,
      "velocity": 95,
      "chip": "ym2612"
    },
    {
      "channel": 4,
      "note": 45,
      "start": 13.2708,
      "duration": 0.3624,
      "velocity": 122,
      "chip": "ym2612"
    },
    {
      "channel": 1,
      "note": 24,
      "start": 13.6323,
      "duration": 0.1328,
      "velocity": 127,
      "chip": "ym2612"
    },
    {
      "channel": 4,
      "note": 45,
      "start": 13.6336,
      "duration": 0.133,
      "velocity": 122,
      "chip": "ym2612"
    },
    {
      "channel": 1,
      "note": 24,
      "start": 13.7656,
      "duration": 0.1161,
      "velocity": 127,
      "chip": "ym2612"
    },
    {
      "channel": 4,
      "note": 45,
      "start": 13.7669,
      "duration": 0.1163,
      "velocity": 122,
      "chip": "ym2612"
    },
    {
      "channel": 1,
      "note": 24,
      "start": 13.8823,
      "duration": 0.1162,
      "velocity": 127,
      "chip": "ym2612"
    },
    {
      "channel": 4,
      "note": 45,
      "start": 13.8836,
      "duration": 0.1168,
      "velocity": 122,
      "chip": "ym2612"
    },
    {
      "channel": 1,
      "note": 24,
      "start": 13.999,
      "duration": 0.1327,
      "velocity": 127,
      "chip": "ym2612"
    },
    {
      "channel": 2,
      "note": 51,
      "start": 13.9998,
      "duration": 0.7498,
      "velocity": 79,
      "chip": "ym2612"
    },
    {
      "channel": 4,
      "note": 45,
      "start": 14.0009,
      "duration": 0.1325,
      "velocity": 122,
      "chip": "ym2612"
    },
    {
      "channel": 1,
      "note": 24,
      "start": 14.1323,
      "duration": 0.1161,
      "velocity": 127,
      "chip": "ym2612"
    },
    {
      "channel": 4,
      "note": 45,
      "start": 14.1338,
      "duration": 0.1162,
      "velocity": 122,
      "chip": "ym2612"
    },
    {
      "channel": 1,
      "note": 24,
      "start": 14.249,
      "duration": 0.1324,
      "velocity": 127,
      "chip": "ym2612"
    },
    {
      "channel": 4,
      "note": 45,
      "start": 14.2505,
      "duration": 0.1325,
      "velocity": 122,
      "chip": "ym2612"
    },
    {
      "channel": 1,
      "note": 24,
      "start": 14.382,
      "duration": 0.1164,
      "velocity": 127,
      "chip": "ym2612"
    },
    {
      "channel": 4,
      "note": 45,
      "start": 14.3834,
      "duration": 0.1167,
      "velocity": 122,
      "chip": "ym2612"
    },
    {
      "channel": 1,
      "note": 24,
      "start": 14.499,
      "duration": 0.1161,
      "velocity": 127,
      "chip": "ym2612"
    },
    {
      "channel": 4,
      "note": 45,
      "start": 14.5005,
      "duration": 0.1163,
      "velocity": 122,
      "chip": "ym2612"
    },
    {
      "channel": 1,
      "note": 24,
      "start": 14.6156,
      "duration": 0.1331,
      "velocity": 127,
      "chip": "ym2612"
    },
    {
      "channel": 4,
      "note": 45,
      "start": 14.6172,
      "duration": 0.1366,
      "velocity": 122,
      "chip": "ym2612"
    },
    {
      "channel": 0,
      "note": 64,
      "start": 14.7483,
      "duration": 1.4661,
      "velocity": 95,
      "chip": "ym2612"
    },
    {
      "channel": 1,
      "note": 24,
      "start": 14.7494,
      "duration": 0.3656,
      "velocity": 127,
      "chip": "ym2612"
    },
    {
      "channel": 2,
      "note": 52,
      "start": 14.7502,
      "duration": 0.7325,
      "velocity": 79,
      "chip": "ym2612"
    },
    {
      "channel": 3,
      "note": 59,
      "start": 14.7509,
      "duration": 1.4662,
      "velocity": 95,
      "chip": "ym2612"
    },
    {
      "channel": 4,
      "note": 45,
      "start": 14.7543,
      "duration": 0.3622,
      "velocity": 122,
      "chip": "ym2612"
    },
    {
      "channel": 1,
      "note": 24,
      "start": 15.1156,
      "duration": 0.1161,
      "velocity": 127,
      "chip": "ym2612"
    },
    {
      "channel": 4,
      "note": 45,
      "start": 15.1169,
      "duration": 0.1163,
      "velocity": 122,
      "chip": "ym2612"
    },
    {
      "channel": 1,
      "note": 24,
      "start": 15.2323,
      "duration": 0.1328,
      "velocity": 127,
      "chip": "ym2612"
    },
    {
      "channel": 4,
      "note": 45,
      "start": 15.2336,
      "duration": 0.133,
      "velocity": 122,
      "chip": "ym2612"
    },
    {
      "channel": 1,
      "note": 24,
      "start": 15.3656,
      "duration": 0.1162,
      "velocity": 127,
      "chip": "ym2612"
    },
    {
      "channel": 4,
      "note": 45,
      "start": 15.367,
      "duration": 0.1192,
      "velocity": 122,
      "chip": "ym2612"
    },
    {
      "channel": 1,
      "note": 24,
      "start": 15.4825,
      "duration": 0.3659,
      "velocity": 127,
      "chip": "ym2612"
    },
    {
      "channel": 2,
      "note": 56,
      "start": 15.4832,
      "duration": 0.7332,
      "velocity": 79,
      "chip": "ym2612"
    },
    {
      "channel": 4,
      "note": 45,
      "start": 15.4868,
      "duration": 0.3631,
      "velocity": 122,
      "chip": "ym2612"
    },
    {
      "channel": 1,
      "note": 24,
      "start": 15.849,
      "duration": 0.1328,
      "velocity": 127,
      "chip": "ym2612"
    },
    {
      "channel": 4,
      "note": 45,
      "start": 15.8502,
      "duration": 0.133,
      "velocity": 122,
      "chip": "ym2612"
    },
    {
      "channel": 1,
      "note": 24,
      "start": 15.9823,
      "duration": 0.1161,
      "velocity": 127,
      "chip": "ym2612"
    },
    {
      "channel": 4,
      "note": 45,
      "start": 15.9836,
      "duration": 0.1163,
      "velocity": 122,
      "chip": "ym2612"
    },
    {
      "channel": 1,
      "note": 24,
      "start": 16.099,
      "duration": 0.1166,
      "velocity": 127,
      "chip": "ym2612"
    },
    {
      "channel": 4,
      "note": 45,
      "start": 16.1003,
      "duration": 0.12,
      "velocity": 122,
      "chip": "ym2612"
    },
    {
      "channel": 0,
      "note": 69,
      "start": 16.2149,
      "duration": 1.4828,
      "velocity": 95,
      "chip": "ym2612"
    },
    {
      "channel": 1,
      "note": 24,
      "start": 16.2162,
      "duration": 0.3655,
      "velocity": 127,
      "chip": "ym2612"
    },
    {
      "channel": 2,
      "note": 45,
      "start": 16.217,
      "duration": 0.7489,
      "velocity": 79,
      "chip": "ym2612"
    },
    {
      "channel": 3,
      "note": 60,
      "start": 16.2177,
      "duration": 1.4828,
      "velocity": 95,
      "chip": "ym2612"
    },
    {
      "channel": 4,
      "note": 45,
      "start": 16.2208,
      "duration": 0.3624,
      "velocity": 122,
      "chip": "ym2612"
    },
    {
      "channel": 1,
      "note": 24,
      "start": 16.5823,
      "duration": 0.1328,
      "velocity": 127,
      "chip": "ym2612"
    },
    {
      "channel": 4,
      "note": 45,
      "start": 16.5836,
      "duration": 0.133,
      "velocity": 122,
      "chip": "ym2612"
    },
    {
      "channel": 1,
      "note": 24,
      "start": 16.7156,
      "duration": 0.1161,
      "velocity": 127,
      "chip": "ym2612"
    },
    {
      "channel": 4,
      "note": 45,
      "start": 16.7169,
      "duration": 0.1163,
      "velocity": 122,
      "chip": "ym2612"
    },
    {
      "channel": 1,
      "note": 24,
      "start": 16.8323,
      "duration": 0.1328,
      "velocity": 127,
      "chip": "ym2612"
    },
    {
      "channel": 4,
      "note": 45,
      "start": 16.8336,
      "duration": 0.1335,
      "velocity": 122,
      "chip": "ym2612"
    },
    {
      "channel": 1,
      "note": 24,
      "start": 16.9657,
      "duration": 0.116,
      "velocity": 127,
      "chip": "ym2612"
    },
    {
      "channel": 2,
      "note": 48,
      "start": 16.9665,
      "duration": 0.7332,
      "velocity": 79,
      "chip": "ym2612"
    },
    {
      "channel": 4,
      "note": 45,
      "start": 16.9675,
      "duration": 0.1159,
      "velocity": 122,
      "chip": "ym2612"
    },
    {
      "channel": 1,
      "note": 24,
      "start": 17.0823,
      "duration": 0.1161,
      "velocity": 127,
      "chip": "ym2612"
    },
    {
      "channel": 4,
      "note": 45,
      "start": 17.0838,
      "duration": 0.1162,
      "velocity": 122,
      "chip": "ym2612"
    },
    {
      "channel": 1,
      "note": 24,
      "start": 17.199,
      "duration": 0.1324,
      "velocity": 127,
      "chip": "ym2612"
    },
    {
      "channel": 4,
      "note": 45,
      "start": 17.2005,
      "duration": 0.1325,
      "velocity": 122,
      "chip": "ym2612"
    },
    {
      "channel": 1,
      "note": 24,
      "start": 17.332,
      "duration": 0.1164,
      "velocity": 127,
      "chip": "ym2612"
    },
    {
      "channel": 4,
      "note": 45,
      "start": 17.3334,
      "duration": 0.1167,
      "velocity": 122,
      "chip": "ym2612"
    },
    {
      "channel": 1,
      "note": 24,
      "start": 17.449,
      "duration": 0.1328,
      "velocity": 127,
      "chip": "ym2612"
    },
    {
      "channel": 4,
      "note": 45,
      "start": 17.4505,
      "duration": 0.133,
      "velocity": 122,
      "chip": "ym2612"
    },
    {
      "channel": 1,
      "note": 24,
      "start": 17.5823,
      "duration": 0.1164,
      "velocity": 127,
      "chip": "ym2612"
    },
    {
      "channel": 4,
      "note": 45,
      "start": 17.5839,
      "duration": 0.12,
      "velocity": 122,
      "chip": "ym2612"
    },
    {
      "channel": 0,
      "note": 67,
      "start": 17.6983,
      "duration": 2.9494,
      "velocity": 95,
      "chip": "ym2612"
    },
    {
      "channel": 1,
      "note": 24,
      "start": 17.6994,
      "duration": 0.3656,
      "velocity": 127,
      "chip": "ym2612"
    },
    {
      "channel": 2,
      "note": 52,
      "start": 17.7003,
      "duration": 0.7324,
      "velocity": 79,
      "chip": "ym2612"
    },
    {
      "channel": 3,
      "note": 59,
      "start": 17.701,
      "duration": 2.9493,
      "velocity": 95,
      "chip": "ym2612"
    },
    {
      "channel": 4,
      "note": 45,
      "start": 17.7044,
      "duration": 0.3622,
      "velocity": 122,
      "chip": "ym2612"
    },
    {
      "channel": 5,
      "note": 37,
      "start": 17.7053,
      "duration": 5.8992,
      "velocity": 127,
      "chip": "ym2612"
    },
    {
      "channel": 1,
      "note": 24,
      "start": 18.0656,
      "duration": 0.1161,
      "velocity": 127,
      "chip": "ym2612"
    },
    {
      "channel": 4,
      "note": 45,
      "start": 18.0669,
      "duration": 0.1163,
      "velocity": 122,
      "chip": "ym2612"
    },
    {
      "channel": 1,
      "note": 24,
      "start": 18.1823,
      "duration": 0.1328,
      "velocity": 127,
      "chip": "ym2612"
    },
    {
      "channel": 4,
      "note": 45,
      "start": 18.1836,
      "duration": 0.133,
      "velocity": 122,
      "chip": "ym2612"
    },
    {
      "channel": 1,
      "note": 24,
      "start": 18.3156,
      "duration": 0.1162,
      "velocity": 127,
      "chip": "ym2612"
    },
    {
      "channel": 4,
      "note": 45,
      "start": 18.317,
      "duration": 0.1191,
      "velocity": 122,
      "chip": "ym2612"
    },
    {
      "channel": 1,
      "note": 24,
      "start": 18.4325,
      "duration": 0.3659,
      "velocity": 127,
      "chip": "ym2612"
    },
    {
      "channel": 2,
      "note": 52,
      "start": 18.4331,
      "duration": 0.7498,
      "velocity": 79,
      "chip": "ym2612"
    },
    {
      "channel": 4,
      "note": 45,
      "start": 18.4366,
      "duration": 0.3632,
      "velocity": 122,
      "chip": "ym2612"
    },
    {
      "channel": 1,
      "note": 24,
      "start": 18.799,
      "duration": 0.1328,
      "velocity": 127,
      "chip": "ym2612"
    },
    {
      "channel": 4,
      "note": 45,
      "start": 18.8002,
      "duration": 0.133,
      "velocity": 122,
      "chip": "ym2612"
    },
    {
      "channel": 1,
      "note": 24,
      "start": 18.9323,
      "duration": 0.1161,
      "velocity": 127,
      "chip": "ym2612"
    },
    {
      "channel": 4,
      "note": 45,
      "start": 18.9336,
      "duration": 0.1163,
      "velocity": 122,
      "chip": "ym2612"
    },
    {
      "channel": 1,
      "note": 24,
      "start": 19.049,
      "duration": 0.133,
      "velocity": 127,
      "chip": "ym2612"
    },
    {
      "channel": 4,
      "note": 45,
      "start": 19.0503,
      "duration": 0.1362,
      "velocity": 122,
      "chip": "ym2612"
    },
    {
      "channel": 1,
      "note": 24,
      "start": 19.1827,
      "duration": 0.3657,
      "velocity": 127,
      "chip": "ym2612"
    },
    {
      "channel": 2,
      "note": 52,
      "start": 19.1833,
      "duration": 0.7325,
      "velocity": 79,
      "chip": "ym2612"
    },
    {
      "channel": 4,
      "note": 45,
      "start": 19.187,
      "duration": 0.3629,
      "velocity": 122,
      "chip": "ym2612"
    },
    {
      "channel": 1,
      "note": 24,
      "start": 19.549,
      "duration": 0.1161,
      "velocity": 127,
      "chip": "ym2612"
    },
    {
      "channel": 4,
      "note": 45,
      "start": 19.5502,
      "duration": 0.1163,
      "velocity": 122,
      "chip": "ym2612"
    },
    {
      "channel": 1,
      "note": 24,
      "start": 19.6656,
      "duration": 0.1161,
      "velocity": 127,
      "chip": "ym2612"
    },
    {
      "channel": 4,
      "note": 45,
      "start": 19.6669,
      "duration": 0.1164,
      "velocity": 122,
      "chip": "ym2612"
    },
    {
      "channel": 1,
      "note": 24,
      "start": 19.7823,
      "duration": 0.1328,
      "velocity": 127,
      "chip": "ym2612"
    },
    {
      "channel": 4,
      "note": 45,
      "start": 19.7837,
      "duration": 0.1333,
      "velocity": 122,
      "chip": "ym2612"
    },
    {
      "channel": 1,
      "note": 24,
      "start": 19.9157,
      "duration": 0.116,
      "velocity": 127,
      "chip": "ym2612"
    },
    {
      "channel": 2,
      "note": 52,
      "start": 19.9163,
      "duration": 0.7333,
      "velocity": 79,
      "chip": "ym2612"
    },
    {
      "channel": 4,
      "note": 45,
      "start": 19.9173,
      "duration": 0.116,
      "velocity": 122,
      "chip": "ym2612"
    },
    {
      "channel": 1,
      "note": 24,
      "start": 20.0323,
      "duration": 0.1328,
      "velocity": 127,
      "chip": "ym2612"
    },
    {
      "channel": 4,
      "note": 45,
      "start": 20.0338,
      "duration": 0.1329,
      "velocity": 122,
      "chip": "ym2612"
    },
    {
      "channel": 1,
      "note": 24,
      "start": 20.1656,
      "duration": 0.1158,
      "velocity": 127,
      "chip": "ym2612"
    },
    {
      "channel": 4,
      "note": 45,
      "start": 20.1672,
      "duration": 0.1158,
      "velocity": 122,
      "chip": "ym2612"
    },
    {
      "channel": 1,
      "note": 24,
      "start": 20.282,
      "duration": 0.1164,
      "velocity": 127,
      "chip": "ym2612"
    },
    {
      "channel": 4,
      "note": 45,
      "start": 20.2834,
      "duration": 0.1167,
      "velocity": 122,
      "chip": "ym2612"
    },
    {
      "channel": 1,
      "note": 24,
      "start": 20.399,
      "duration": 0.1328,
      "velocity": 127,
      "chip": "ym2612"
    },
    {
      "channel": 4,
      "note": 45,
      "start": 20.4005,
      "duration": 0.133,
      "velocity": 122,
      "chip": "ym2612"
    },
    {
      "channel": 1,
      "note": 24,
      "start": 20.5323,
      "duration": 0.1164,
      "velocity": 127,
      "chip": "ym2612"
    },
    {
      "channel": 4,
      "note": 45,
      "start": 20.5339,
      "duration": 0.1199,
      "velocity": 122,
      "chip": "ym2612"
    },
    {
      "channel": 0,
      "note": 66,
      "start": 20.6483,
      "duration": 2.9494,
      "velocity": 95,
      "chip": "ym2612"
    },
    {
      "channel": 1,
      "note": 24,
      "start": 20.6494,
      "duration": 0.3656,
      "velocity": 127,
      "chip": "ym2612"
    },
    {
      "channel": 2,
      "note": 47,
      "start": 20.6502,
      "duration": 0.7325,
      "velocity": 79,
      "chip": "ym2612"
    },
    {
      "channel": 3,
      "note": 59,
      "start": 20.6509,
      "duration": 2.9494,
      "velocity": 95,
      "chip": "ym2612"
    },
    {
      "channel": 4,
      "note": 45,
      "start": 20.6543,
      "duration": 0.3622,
      "velocity": 122,
      "chip": "ym2612"
    },
    {
      "channel": 1,
      "note": 24,
      "start": 21.0156,
      "duration": 0.1328,
      "velocity": 127,
      "chip": "ym2612"
    },
    {
      "channel": 4,
      "note": 45,
      "start": 21.0169,
      "duration": 0.133,
      "velocity": 122,
      "chip": "ym2612"
    },
    {
      "channel": 1,
      "note": 24,
      "start": 21.149,
      "duration": 0.1161,
      "velocity": 127,
      "chip": "ym2612"
    },
    {
      "channel": 4,
      "note": 45,
      "start": 21.1502,
      "duration": 0.1163,
      "velocity": 122,
      "chip": "ym2612"
    },
    {
      "channel": 1,
      "note": 24,
      "start": 21.2656,
      "duration": 0.1162,
      "velocity": 127,
      "chip": "ym2612"
    },
    {
      "channel": 4,
      "note": 45,
      "start": 21.267,
      "duration": 0.1191,
      "velocity": 122,
      "chip": "ym2612"
    },
    {
      "channel": 1,
      "note": 24,
      "start": 21.3825,
      "duration": 0.3826,
      "velocity": 127,
      "chip": "ym2612"
    },
    {
      "channel": 2,
      "note": 47,
      "start": 21.3831,
      "duration": 0.7498,
      "velocity": 79,
      "chip": "ym2612"
    },
    {
      "channel": 4,
      "note": 45,
      "start": 21.3866,
      "duration": 0.3799,
      "velocity": 122,
      "chip": "ym2612"
    },
    {
      "channel": 1,
      "note": 24,
      "start": 21.7656,
      "duration": 0.1161,
      "velocity": 127,
      "chip": "ym2612"
    },
    {
      "channel": 4,
      "note": 45,
      "start": 21.7669,
      "duration": 0.1163,
      "velocity": 122,
      "chip": "ym2612"
    },
    {
      "channel": 1,
      "note": 24,
      "start": 21.8823,
      "duration": 0.1161,
      "velocity": 127,
      "chip": "ym2612"
    },
    {
      "channel": 4,
      "note": 45,
      "start": 21.8836,
      "duration": 0.1163,
      "velocity": 122,
      "chip": "ym2612"
    },
    {
      "channel": 1,
      "note": 24,
      "start": 21.999,
      "duration": 0.133,
      "velocity": 127,
      "chip": "ym2612"
    },
    {
      "channel": 4,
      "note": 45,
      "start": 22.0003,
      "duration": 0.1362,
      "velocity": 122,
      "chip": "ym2612"
    },
    {
      "channel": 1,
      "note": 24,
      "start": 22.1327,
      "duration": 0.3657,
      "velocity": 127,
      "chip": "ym2612"
    },
    {
      "channel": 2,
      "note": 47,
      "start": 22.1333,
      "duration": 0.7325,
      "velocity": 79,
      "chip": "ym2612"
    },
    {
      "channel": 4,
      "note": 45,
      "start": 22.137,
      "duration": 0.3629,
      "velocity": 122,
      "chip": "ym2612"
    },
    {
      "channel": 1,
      "note": 24,
      "start": 22.499,
      "duration": 0.1161,
      "velocity": 127,
      "chip": "ym2612"
    },
    {
      "channel": 4,
      "note": 45,
      "start": 22.5002,
      "duration": 0.1163,
      "velocity": 122,
      "chip": "ym2612"
    },
    {
      "channel": 1,
      "note": 24,
      "start": 22.6156,
      "duration": 0.1328,
      "velocity": 127,
      "chip": "ym2612"
    },
    {
      "channel": 4,
      "note": 45,
      "start": 22.6169,
      "duration": 0.133,
      "velocity": 122,
      "chip": "ym2612"
    },
    {
      "channel": 1,
      "note": 24,
      "start": 22.749,
      "duration": 0.1162,
      "velocity": 127,
      "chip": "ym2612"
    },
    {
      "channel": 4,
      "note": 45,
      "start": 22.7503,
      "duration": 0.1167,
      "velocity": 122,
      "chip": "ym2612"
    },
    {
      "channel": 1,
      "note": 24,
      "start": 22.8657,
      "duration": 0.116,
      "velocity": 127,
      "chip": "ym2612"
    },
    {
      "channel": 2,
      "note": 47,
      "start": 22.8663,
      "duration": 0.7333,
      "velocity": 79,
      "chip": "ym2612"
    },
    {
      "channel": 4,
      "note": 45,
      "start": 22.8673,
      "duration": 0.116,
      "velocity": 122,
      "chip": "ym2612"
    },
    {
      "channel": 1,
      "note": 24,
      "start": 22.9823,
      "duration": 0.1328,
      "velocity": 127,
      "chip": "ym2612"
    },
    {
      "channel": 4,
      "note": 45,
      "start": 22.9838,
      "duration": 0.1329,
      "velocity": 122,
      "chip": "ym2612"
    },
    {
      "channel": 1,
      "note": 24,
      "start": 23.1156,
      "duration": 0.1158,
      "velocity": 127,
      "chip": "ym2612"
    },
    {
      "channel": 4,
      "note": 45,
      "start": 23.1172,
      "duration": 0.1158,
      "velocity": 122,
      "chip": "ym2612"
    },
    {
      "channel": 1,
      "note": 24,
      "start": 23.232,
      "duration": 0.1331,
      "velocity": 127,
      "chip": "ym2612"
    },
    {
      "channel": 4,
      "note": 45,
      "start": 23.2334,
      "duration": 0.1333,
      "velocity": 122,
      "chip": "ym2612"
    },
    {
      "channel": 1,
      "note": 24,
      "start": 23.3656,
      "duration": 0.1161,
      "velocity": 127,
      "chip": "ym2612"
    },
    {
      "channel": 4,
      "note": 45,
      "start": 23.3672,
      "duration": 0.1163,
      "velocity": 122,
      "chip": "ym2612"
    },
    {
      "channel": 1,
      "note": 24,
      "start": 23.4823,
      "duration": 0.1164,
      "velocity": 127,
      "chip": "ym2612"
    },
    {
      "channel": 4,
      "note": 45,
      "start": 23.4839,
      "duration": 0.1199,
      "velocity": 122,
      "chip": "ym2612"
    },
    {
      "channel": 0,
      "note": 64,
      "start": 23.5983,
      "duration": 1.4828,
      "velocity": 95,
      "chip": "ym2612"
    },
    {
      "channel": 1,
      "note": 24,
      "start": 23.5994,
      "duration": 0.3823,
      "velocity": 127,
      "chip": "ym2612"
    },
    {
      "channel": 2,
      "note": 52,
      "start": 23.6002,
      "duration": 0.7492,
      "velocity": 79,
      "chip": "ym2612"
    },
    {
      "channel": 3,
      "note": 59,
      "start": 23.6009,
      "duration": 1.4829,
      "velocity": 95,
      "chip": "ym2612"
    },
    {
      "channel": 4,
      "note": 45,
      "start": 23.6043,
      "duration": 0.3789,
      "velocity": 122,
      "chip": "ym2612"
    },
    {
      "channel": 5,
      "note": 37,
      "start": 23.6053,
      "duration": 5.916,
      "velocity": 127,
      "chip": "ym2612"
    },
    {
      "channel": 1,
      "note": 24,
      "start": 23.9823,
      "duration": 0.1161,
      "velocity": 127,
      "chip": "ym2612"
    },
    {
      "channel": 4,
      "note": 45,
      "start": 23.9836,
      "duration": 0.1163,
      "velocity": 122,
      "chip": "ym2612"
    },
    {
      "channel": 1,
      "note": 24,
      "start": 24.099,
      "duration": 0.1161,
      "velocity": 127,
      "chip": "ym2612"
    },
    {
      "channel": 4,
      "note": 45,
      "start": 24.1002,
      "duration": 0.1163,
      "velocity": 122,
      "chip": "ym2612"
    },
    {
      "channel": 1,
      "note": 24,
      "start": 24.2156,
      "duration": 0.1328,
      "velocity": 127,
      "chip": "ym2612"
    },
    {
      "channel": 4,
      "note": 45,
      "start": 24.217,
      "duration": 0.1359,
      "velocity": 122,
      "chip": "ym2612"
    },
    {
      "channel": 1,
      "note": 24,
      "start": 24.3492,
      "duration": 0.3659,
      "velocity": 127,
      "chip": "ym2612"
    },
    {
      "channel": 2,
      "note": 56,
      "start": 24.3499,
      "duration": 0.7332,
      "velocity": 79,
      "chip": "ym2612"
    },
    {
      "channel": 4,
      "note": 45,
      "start": 24.3534,
      "duration": 0.3631,
      "velocity": 122,
      "chip": "ym2612"
    },
    {
      "channel": 1,
      "note": 24,
      "start": 24.7156,
      "duration": 0.1161,
      "velocity": 127,
      "chip": "ym2612"
    },
    {
      "channel": 4,
      "note": 45,
      "start": 24.7169,
      "duration": 0.1163,
      "velocity": 122,
      "chip": "ym2612"
    },
    {
      "channel": 1,
      "note": 24,
      "start": 24.8323,
      "duration": 0.1328,
      "velocity": 127,
      "chip": "ym2612"
    },
    {
      "channel": 4,
      "note": 45,
      "start": 24.8336,
      "duration": 0.133,
      "velocity": 122,
      "chip": "ym2612"
    },
    {
      "channel": 1,
      "note": 24,
      "start": 24.9656,
      "duration": 0.1166,
      "velocity": 127,
      "chip": "ym2612"
    },
    {
      "channel": 4,
      "note": 45,
      "start": 24.967,
      "duration": 0.12,
      "velocity": 122,
      "chip": "ym2612"
    },
    {
      "channel": 0,
      "note": 63,
      "start": 25.0816,
      "duration": 1.4828,
      "velocity": 95,
      "chip": "ym2612"
    },
    {
      "channel": 1,
      "note": 24,
      "start": 25.0829,
      "duration": 0.3655,
      "velocity": 127,
      "chip": "ym2612"
    },
    {
      "channel": 2,
      "note": 47,
      "start": 25.0836,
      "duration": 0.7322,
      "velocity": 79,
      "chip": "ym2612"
    },
    {
      "channel": 3,
      "note": 59,
      "start": 25.0843,
      "duration": 1.4826,
      "velocity": 95,
      "chip": "ym2612"
    },
    {
      "channel": 4,
      "note": 45,
      "start": 25.0875,
      "duration": 0.3624,
      "velocity": 122,
      "chip": "ym2612"
    },
    {
      "channel": 1,
      "note": 24,
      "start": 25.449,
      "duration": 0.1328,
      "velocity": 127,
      "chip": "ym2612"
    },
    {
      "channel": 4,
      "note": 45,
      "start": 25.4502,
      "duration": 0.133,
      "velocity": 122,
      "chip": "ym2612"
    },
    {
      "channel": 1,
      "note": 24,
      "start": 25.5823,
      "duration": 0.1161,
      "velocity": 127,
      "chip": "ym2612"
    },
    {
      "channel": 4,
      "note": 45,
      "start": 25.5836,
      "duration": 0.1163,
      "velocity": 122,
      "chip": "ym2612"
    },
    {
      "channel": 1,
      "note": 24,
      "start": 25.699,
      "duration": 0.1162,
      "velocity": 127,
      "chip": "ym2612"
    },
    {
      "channel": 4,
      "note": 45,
      "start": 25.7003,
      "duration": 0.1168,
      "velocity": 122,
      "chip": "ym2612"
    },
    {
      "channel": 1,
      "note": 24,
      "start": 25.8157,
      "duration": 0.1327,
      "velocity": 127,
      "chip": "ym2612"
    },
    {
      "channel": 2,
      "note": 51,
      "start": 25.8165,
      "duration": 0.7498,
      "velocity": 79,
      "chip": "ym2612"
    },
    {
      "channel": 4,
      "note": 45,
      "start": 25.8175,
      "duration": 0.1325,
      "velocity": 122,
      "chip": "ym2612"
    },
    {
      "channel": 1,
      "note": 24,
      "start": 25.949,
      "duration": 0.1161,
      "velocity": 127,
      "chip": "ym2612"
    },
    {
      "channel": 4,
      "note": 45,
      "start": 25.9505,
      "duration": 0.1162,
      "velocity": 122,
      "chip": "ym2612"
    },
    {
      "channel": 1,
      "note": 24,
      "start": 26.0656,
      "duration": 0.1158,
      "velocity": 127,
      "chip": "ym2612"
    },
    {
      "channel": 4,
      "note": 45,
      "start": 26.0672,
      "duration": 0.1158,
      "velocity": 122,
      "chip": "ym2612"
    },
    {
      "channel": 1,
      "note": 24,
      "start": 26.182,
      "duration": 0.1331,
      "velocity": 127,
      "chip": "ym2612"
    },
    {
      "channel": 4,
      "note": 45,
      "start": 26.1834,
      "duration": 0.1333,
      "velocity": 122,
      "chip": "ym2612"
    },
    {
      "channel": 1,
      "note": 24,
      "start": 26.3156,
      "duration": 0.1161,
      "velocity": 127,
      "chip": "ym2612"
    },
    {
      "channel": 4,
      "note": 45,
      "start": 26.3172,
      "duration": 0.1163,
      "velocity": 122,
      "chip": "ym2612"
    },
    {
      "channel": 1,
      "note": 24,
      "start": 26.4323,
      "duration": 0.1331,
      "velocity": 127,
      "chip": "ym2612"
    },
    {
      "channel": 4,
      "note": 45,
      "start": 26.4339,
      "duration": 0.1366,
      "velocity": 122,
      "chip": "ym2612"
    },
    {
      "channel": 0,
      "note": 64,
      "start": 26.5649,
      "duration": 2.9494,
      "velocity": 95,
      "chip": "ym2612"
    },
    {
      "channel": 1,
      "note": 24,
      "start": 26.5661,
      "duration": 0.3656,
      "velocity": 127,
      "chip": "ym2612"
    },
    {
      "channel": 2,
      "note": 52,
      "start": 26.5668,
      "duration": 0.7325,
      "velocity": 79,
      "chip": "ym2612"
    },
    {
      "channel": 3,
      "note": 59,
      "start": 26.5675,
      "duration": 2.9496,
      "velocity": 95,
      "chip": "ym2612"
    },
    {
      "channel": 4,
      "note": 45,
      "start": 26.571,
      "duration": 0.3622,
      "velocity": 122,
      "chip": "ym2612"
    },
    {
      "channel": 1,
      "note": 24,
      "start": 26.9323,
      "duration": 0.1161,
      "velocity": 127,
      "chip": "ym2612"
    },
    {
      "channel": 4,
      "note": 45,
      "start": 26.9336,
      "duration": 0.1163,
      "velocity": 122,
      "chip": "ym2612"
    },
    {
      "channel": 1,
      "note": 24,
      "start": 27.049,
      "duration": 0.1328,
      "velocity": 127,
      "chip": "ym2612"
    },
    {
      "channel": 4,
      "note": 45,
      "start": 27.0502,
      "duration": 0.133,
      "velocity": 122,
      "chip": "ym2612"
    },
    {
      "channel": 1,
      "note": 24,
      "start": 27.1823,
      "duration": 0.1162,
      "velocity": 127,
      "chip": "ym2612"
    },
    {
      "channel": 4,
      "note": 45,
      "start": 27.1836,
      "duration": 0.1192,
      "velocity": 122,
      "chip": "ym2612"
    },
    {
      "channel": 1,
      "note": 24,
      "start": 27.2992,
      "duration": 0.3659,
      "velocity": 127,
      "chip": "ym2612"
    },
    {
      "channel": 2,
      "note": 56,
      "start": 27.2999,
      "duration": 0.733,
      "velocity": 79,
      "chip": "ym2612"
    },
    {
      "channel": 4,
      "note": 45,
      "start": 27.3034,
      "duration": 0.3631,
      "velocity": 122,
      "chip": "ym2612"
    },
    {
      "channel": 1,
      "note": 24,
      "start": 27.6656,
      "duration": 0.1161,
      "velocity": 127,
      "chip": "ym2612"
    },
    {
      "channel": 4,
      "note": 45,
      "start": 27.6669,
      "duration": 0.1163,
      "velocity": 122,
      "chip": "ym2612"
    },
    {
      "channel": 1,
      "note": 24,
      "start": 27.7823,
      "duration": 0.1328,
      "velocity": 127,
      "chip": "ym2612"
    },
    {
      "channel": 4,
      "note": 45,
      "start": 27.7836,
      "duration": 0.133,
      "velocity": 122,
      "chip": "ym2612"
    },
    {
      "channel": 1,
      "note": 24,
      "start": 27.9156,
      "duration": 0.1163,
      "velocity": 127,
      "chip": "ym2612"
    },
    {
      "channel": 4,
      "note": 45,
      "start": 27.917,
      "duration": 0.1197,
      "velocity": 122,
      "chip": "ym2612"
    },
    {
      "channel": 1,
      "note": 24,
      "start": 28.0327,
      "duration": 0.3657,
      "velocity": 127,
      "chip": "ym2612"
    },
    {
      "channel": 2,
      "note": 45,
      "start": 28.0334,
      "duration": 0.749,
      "velocity": 79,
      "chip": "ym2612"
    },
    {
      "channel": 4,
      "note": 45,
      "start": 28.0371,
      "duration": 0.3627,
      "velocity": 122,
      "chip": "ym2612"
    },
    {
      "channel": 1,
      "note": 24,
      "start": 28.399,
      "duration": 0.1328,
      "velocity": 127,
      "chip": "ym2612"
    },
    {
      "channel": 4,
      "note": 45,
      "start": 28.4002,
      "duration": 0.133,
      "velocity": 122,
      "chip": "ym2612"
    },
    {
      "channel": 1,
      "note": 24,
      "start": 28.5323,
      "duration": 0.1161,
      "velocity": 127,
      "chip": "ym2612"
    },
    {
      "channel": 4,
      "note": 45,
      "start": 28.5336,
      "duration": 0.1163,
      "velocity": 122,
      "chip": "ym2612"
    },
    {
      "channel": 1,
      "note": 24,
      "start": 28.649,
      "duration": 0.1328,
      "velocity": 127,
      "chip": "ym2612"
    },
    {
      "channel": 4,
      "note": 45,
      "start": 28.6503,
      "duration": 0.1335,
      "velocity": 122,
      "chip": "ym2612"
    },
    {
      "channel": 1,
      "note": 24,
      "start": 28.7824,
      "duration": 0.116,
      "velocity": 127,
      "chip": "ym2612"
    },
    {
      "channel": 2,
      "note": 48,
      "start": 28.7831,
      "duration": 0.7332,
      "velocity": 79,
      "chip": "ym2612"
    },
    {
      "channel": 4,
      "note": 45,
      "start": 28.7842,
      "duration": 0.1159,
      "velocity": 122,
      "chip": "ym2612"
    },
    {
      "channel": 1,
      "note": 24,
      "start": 28.899,
      "duration": 0.1161,
      "velocity": 127,
      "chip": "ym2612"
    },
    {
      "channel": 4,
      "note": 45,
      "start": 28.9005,
      "duration": 0.1162,
      "velocity": 122,
      "chip": "ym2612"
    },
    {
      "channel": 1,
      "note": 24,
      "start": 29.0156,
      "duration": 0.1324,
      "velocity": 127,
      "chip": "ym2612"
    },
    {
      "channel": 4,
      "note": 45,
      "start": 29.0172,
      "duration": 0.1325,
      "velocity": 122,
      "chip": "ym2612"
    },
    {
      "channel": 1,
      "note": 24,
      "start": 29.1486,
      "duration": 0.1164,
      "velocity": 127,
      "chip": "ym2612"
    },
    {
      "channel": 4,
      "note": 45,
      "start": 29.15,
      "duration": 0.1167,
      "velocity": 122,
      "chip": "ym2612"
    },
    {
      "channel": 1,
      "note": 24,
      "start": 29.2656,
      "duration": 0.1161,
      "velocity": 127,
      "chip": "ym2612"
    },
    {
      "channel": 4,
      "note": 45,
      "start": 29.2672,
      "duration": 0.1163,
      "velocity": 122,
      "chip": "ym2612"
    },
    {
      "channel": 1,
      "note": 24,
      "start": 29.3823,
      "duration": 0.1331,
      "velocity": 127,
      "chip": "ym2612"
    },
    {
      "channel": 4,
      "note": 45,
      "start": 29.3839,
      "duration": 0.1366,
      "velocity": 122,
      "chip": "ym2612"
    },
    {
      "channel": 0,
      "note": 64,
      "start": 29.5149,
      "duration": 2.9494,
      "velocity": 95,
      "chip": "ym2612"
    },
    {
      "channel": 1,
      "note": 24,
      "start": 29.5161,
      "duration": 0.3656,
      "velocity": 127,
      "chip": "ym2612"
    },
    {
      "channel": 2,
      "note": 52,
      "start": 29.517,
      "duration": 0.7324,
      "velocity": 79,
      "chip": "ym2612"
    },
    {
      "channel": 3,
      "note": 59,
      "start": 29.5177,
      "duration": 2.9493,
      "velocity": 95,
      "chip": "ym2612"
    },
    {
      "channel": 4,
      "note": 45,
      "start": 29.521,
      "duration": 0.3622,
      "velocity": 122,
      "chip": "ym2612"
    },
    {
      "channel": 5,
      "note": 37,
      "start": 29.522,
      "duration": 5.8993,
      "velocity": 127,
      "chip": "ym2612"
    },
    {
      "channel": 1,
      "note": 24,
      "start": 29.8823,
      "duration": 0.1161,
      "velocity": 127,
      "chip": "ym2612"
    },
    {
      "channel": 4,
      "note": 45,
      "start": 29.8836,
      "duration": 0.1163,
      "velocity": 122,
      "chip": "ym2612"
    },
    {
      "channel": 1,
      "note": 24,
      "start": 29.999,
      "duration": 0.1328,
      "velocity": 127,
      "chip": "ym2612"
    },
    {
      "channel": 4,
      "note": 45,
      "start": 30.0002,
      "duration": 0.133,
      "velocity": 122,
      "chip": "ym2612"
    },
    {
      "channel": 1,
      "note": 24,
      "start": 30.1323,
      "duration": 0.1162,
      "velocity": 127,
      "chip": "ym2612"
    },
    {
      "channel": 4,
      "note": 45,
      "start": 30.1336,
      "duration": 0.1191,
      "velocity": 122,
      "chip": "ym2612"
    },
    {
      "channel": 1,
      "note": 24,
      "start": 30.2492,
      "duration": 0.3659,
      "velocity": 127,
      "chip": "ym2612"
    },
    {
      "channel": 2,
      "note": 52,
      "start": 30.2498,
      "duration": 0.7331,
      "velocity": 79,
      "chip": "ym2612"
    },
    {
      "channel": 4,
      "note": 45,
      "start": 30.2533,
      "duration": 0.3632,
      "velocity": 122,
      "chip": "ym2612"
    },
    {
      "channel": 1,
      "note": 24,
      "start": 30.6156,
      "duration": 0.1328,
      "velocity": 127,
      "chip": "ym2612"
    },
    {
      "channel": 4,
      "note": 45,
      "start": 30.6169,
      "duration": 0.133,
      "velocity": 122,
      "chip": "ym2612"
    },
    {
      "channel": 1,
      "note": 24,
      "start": 30.749,
      "duration": 0.1161,
      "velocity": 127,
      "chip": "ym2612"
    },
    {
      "channel": 4,
      "note": 45,
      "start": 30.7502,
      "duration": 0.1163,
      "velocity": 122,
      "chip": "ym2612"
    },
    {
      "channel": 1,
      "note": 24,
      "start": 30.8656,
      "duration": 0.1163,
      "velocity": 127,
      "chip": "ym2612"
    },
    {
      "channel": 4,
      "note": 45,
      "start": 30.867,
      "duration": 0.1195,
      "velocity": 122,
      "chip": "ym2612"
    },
    {
      "channel": 1,
      "note": 24,
      "start": 30.9827,
      "duration": 0.3824,
      "velocity": 127,
      "chip": "ym2612"
    },
    {
      "channel": 2,
      "note": 52,
      "start": 30.9833,
      "duration": 0.7492,
      "velocity": 79,
      "chip": "ym2612"
    },
    {
      "channel": 4,
      "note": 45,
      "start": 30.987,
      "duration": 0.3795,
      "velocity": 122,
      "chip": "ym2612"
    },
    {
      "channel": 1,
      "note": 24,
      "start": 31.3656,
      "duration": 0.1161,
      "velocity": 127,
      "chip": "ym2612"
    },
    {
      "channel": 4,
      "note": 45,
      "start": 31.3669,
      "duration": 0.1163,
      "velocity": 122,
      "chip": "ym2612"
    },
    {
      "channel": 1,
      "note": 24,
      "start": 31.4823,
      "duration": 0.1161,
      "velocity": 127,
      "chip": "ym2612"
    },
    {
      "channel": 4,
      "note": 45,
      "start": 31.4836,
      "duration": 0.1163,
      "velocity": 122,
      "chip": "ym2612"
    },
    {
      "channel": 1,
      "note": 24,
      "start": 31.599,
      "duration": 0.1328,
      "velocity": 127,
      "chip": "ym2612"
    },
    {
      "channel": 4,
      "note": 45,
      "start": 31.6003,
      "duration": 0.1333,
      "velocity": 122,
      "chip": "ym2612"
    },
    {
      "channel": 1,
      "note": 24,
      "start": 31.7324,
      "duration": 0.116,
      "velocity": 127,
      "chip": "ym2612"
    },
    {
      "channel": 2,
      "note": 52,
      "start": 31.733,
      "duration": 0.7333,
      "velocity": 79,
      "chip": "ym2612"
    },
    {
      "channel": 4,
      "note": 45,
      "start": 31.734,
      "duration": 0.116,
      "velocity": 122,
      "chip": "ym2612"
    },
    {
      "channel": 1,
      "note": 24,
      "start": 31.849,
      "duration": 0.1328,
      "velocity": 127,
      "chip": "ym2612"
    },
    {
      "channel": 4,
      "note": 45,
      "start": 31.8505,
      "duration": 0.1329,
      "velocity": 122,
      "chip": "ym2612"
    },
    {
      "channel": 1,
      "note": 24,
      "start": 31.9823,
      "duration": 0.1158,
      "velocity": 127,
      "chip": "ym2612"
    },
    {
      "channel": 4,
      "note": 45,
      "start": 31.9838,
      "duration": 0.1158,
      "velocity": 122,
      "chip": "ym2612"
    },
    {
      "channel": 1,
      "note": 24,
      "start": 32.0986,
      "duration": 0.1164,
      "velocity": 127,
      "chip": "ym2612"
    },
    {
      "channel": 4,
      "note": 45,
      "start": 32.1,
      "duration": 0.1167,
      "velocity": 122,
      "chip": "ym2612"
    },
    {
      "channel": 1,
      "note": 24,
      "start": 32.2156,
      "duration": 0.1328,
      "velocity": 127,
      "chip": "ym2612"
    },
    {
      "channel": 4,
      "note": 45,
      "start": 32.2172,
      "duration": 0.133,
      "velocity": 122,
      "chip": "ym2612"
    },
    {
      "channel": 1,
      "note": 24,
      "start": 32.349,
      "duration": 0.1164,
      "velocity": 127,
      "chip": "ym2612"
    },
    {
      "channel": 4,
      "note": 45,
      "start": 32.3505,
      "duration": 0.1199,
      "velocity": 122,
      "chip": "ym2612"
    },
    {
      "channel": 0,
      "note": 66,
      "start": 32.4649,
      "duration": 2.9494,
      "velocity": 95,
      "chip": "ym2612"
    },
    {
      "channel": 1,
      "note": 24,
      "start": 32.4661,
      "duration": 0.3656,
      "velocity": 127,
      "chip": "ym2612"
    },
    {
      "channel": 2,
      "note": 47,
      "start": 32.4668,
      "duration": 0.7325,
      "velocity": 79,
      "chip": "ym2612"
    },
    {
      "channel": 3,
      "note": 59,
      "start": 32.4675,
      "duration": 2.9496,
      "velocity": 95,
      "chip": "ym2612"
    },
    {
      "channel": 4,
      "note": 45,
      "start": 32.471,
      "duration": 0.3622,
      "velocity": 122,
      "chip": "ym2612"
    },
    {
      "channel": 1,
      "note": 24,
      "start": 32.8323,
      "duration": 0.1328,
      "velocity": 127,
      "chip": "ym2612"
    },
    {
      "channel": 4,
      "note": 45,
      "start": 32.8336,
      "duration": 0.133,
      "velocity": 122,
      "chip": "ym2612"
    },
    {
      "channel": 1,
      "note": 24,
      "start": 32.9656,
      "duration": 0.1161,
      "velocity": 127,
      "chip": "ym2612"
    },
    {
      "channel": 4,
      "note": 45,
      "start": 32.9669,
      "duration": 0.1163,
      "velocity": 122,
      "chip": "ym2612"
    },
    {
      "channel": 1,
      "note": 24,
      "start": 33.0823,
      "duration": 0.1162,
      "velocity": 127,
      "chip": "ym2612"
    },
    {
      "channel": 4,
      "note": 45,
      "start": 33.0836,
      "duration": 0.1191,
      "velocity": 122,
      "chip": "ym2612"
    },
    {
      "channel": 1,
      "note": 24,
      "start": 33.1992,
      "duration": 0.3826,
      "velocity": 127,
      "chip": "ym2612"
    },
    {
      "channel": 2,
      "note": 47,
      "start": 33.1998,
      "duration": 0.7498,
      "velocity": 79,
      "chip": "ym2612"
    },
    {
      "channel": 4,
      "note": 45,
      "start": 33.2033,
      "duration": 0.3799,
      "velocity": 122,
      "chip": "ym2612"
    },
    {
      "channel": 1,
      "note": 24,
      "start": 33.5823,
      "duration": 0.1161,
      "velocity": 127,
      "chip": "ym2612"
    },
    {
      "channel": 4,
      "note": 45,
      "start": 33.5836,
      "duration": 0.1163,
      "velocity": 122,
      "chip": "ym2612"
    },
    {
      "channel": 1,
      "note": 24,
      "start": 33.699,
      "duration": 0.1161,
      "velocity": 127,
      "chip": "ym2612"
    },
    {
      "channel": 4,
      "note": 45,
      "start": 33.7002,
      "duration": 0.1163,
      "velocity": 122,
      "chip": "ym2612"
    },
    {
      "channel": 1,
      "note": 24,
      "start": 33.8156,
      "duration": 0.133,
      "velocity": 127,
      "chip": "ym2612"
    },
    {
      "channel": 4,
      "note": 45,
      "start": 33.817,
      "duration": 0.1362,
      "velocity": 122,
      "chip": "ym2612"
    },
    {
      "channel": 1,
      "note": 24,
      "start": 33.9493,
      "duration": 0.3657,
      "velocity": 127,
      "chip": "ym2612"
    },
    {
      "channel": 2,
      "note": 47,
      "start": 33.95,
      "duration": 0.7325,
      "velocity": 79,
      "chip": "ym2612"
    },
    {
      "channel": 4,
      "note": 45,
      "start": 33.9537,
      "duration": 0.3629,
      "velocity": 122,
      "chip": "ym2612"
    },
    {
      "channel": 1,
      "note": 24,
      "start": 34.3156,
      "duration": 0.1161,
      "velocity": 127,
      "chip": "ym2612"
    },
    {
      "channel": 4,
      "note": 45,
      "start": 34.3169,
      "duration": 0.1163,
      "velocity": 122,
      "chip": "ym2612"
    },
    {
      "channel": 1,
      "note": 24,
      "start": 34.4323,
      "duration": 0.1328,
      "velocity": 127,
      "chip": "ym2612"
    },
    {
      "channel": 4,
      "note": 45,
      "start": 34.4336,
      "duration": 0.133,
      "velocity": 122,
      "chip": "ym2612"
    },
    {
      "channel": 1,
      "note": 24,
      "start": 34.5656,
      "duration": 0.1162,
      "velocity": 127,
      "chip": "ym2612"
    },
    {
      "channel": 4,
      "note": 45,
      "start": 34.567,
      "duration": 0.1167,
      "velocity": 122,
      "chip": "ym2612"
    },
    {
      "channel": 1,
      "note": 24,
      "start": 34.6824,
      "duration": 0.116,
      "velocity": 127,
      "chip": "ym2612"
    },
    {
      "channel": 2,
      "note": 47,
      "start": 34.683,
      "duration": 0.7333,
      "velocity": 79,
      "chip": "ym2612"
    },
    {
      "channel": 4,
      "note": 45,
      "start": 34.684,
      "duration": 0.116,
      "velocity": 122,
      "chip": "ym2612"
    },
    {
      "channel": 1,
      "note": 24,
      "start": 34.799,
      "duration": 0.1328,
      "velocity": 127,
      "chip": "ym2612"
    },
    {
      "channel": 4,
      "note": 45,
      "start": 34.8005,
      "duration": 0.1329,
      "velocity": 122,
      "chip": "ym2612"
    },
    {
      "channel": 1,
      "note": 24,
      "start": 34.9323,
      "duration": 0.1158,
      "velocity": 127,
      "chip": "ym2612"
    },
    {
      "channel": 4,
      "note": 45,
      "start": 34.9338,
      "duration": 0.1158,
      "velocity": 122,
      "chip": "ym2612"
    },
    {
      "channel": 1,
      "note": 24,
      "start": 35.0486,
      "duration": 0.1331,
      "velocity": 127,
      "chip": "ym2612"
    },
    {
      "channel": 4,
      "note": 45,
      "start": 35.05,
      "duration": 0.1333,
      "velocity": 122,
      "chip": "ym2612"
    },
    {
      "channel": 1,
      "note": 24,
      "start": 35.1823,
      "duration": 0.1161,
      "velocity": 127,
      "chip": "ym2612"
    },
    {
      "channel": 4,
      "note": 45,
      "start": 35.1838,
      "duration": 0.1163,
      "velocity": 122,
      "chip": "ym2612"
    },
    {
      "channel": 1,
      "note": 24,
      "start": 35.299,
      "duration": 0.1164,
      "velocity": 127,
      "chip": "ym2612"
    },
    {
      "channel": 4,
      "note": 45,
      "start": 35.3005,
      "duration": 0.12,
      "velocity": 122,
      "chip": "ym2612"
    },
    {
      "channel": 0,
      "note": 67,
      "start": 35.4149,
      "duration": 2.9661,
      "velocity": 95,
      "chip": "ym2612"
    },
    {
      "channel": 1,
      "note": 24,
      "start": 35.4161,
      "duration": 0.3656,
      "velocity": 127,
      "chip": "ym2612"
    },
    {
      "channel": 2,
      "note": 52,
      "start": 35.417,
      "duration": 0.749,
      "velocity": 79,
      "chip": "ym2612"
    },
    {
      "channel": 3,
      "note": 59,
      "start": 35.4177,
      "duration": 2.966,
      "velocity": 95,
      "chip": "ym2612"
    },
    {
      "channel": 4,
      "note": 45,
      "start": 35.421,
      "duration": 0.3622,
      "velocity": 122,
      "chip": "ym2612"
    },
    {
      "channel": 5,
      "note": 37,
      "start": 35.422,
      "duration": 5.916,
      "velocity": 127,
      "chip": "ym2612"
    },
    {
      "channel": 1,
      "note": 24,
      "start": 35.7823,
      "duration": 0.1328,
      "velocity": 127,
      "chip": "ym2612"
    },
    {
      "channel": 4,
      "note": 45,
      "start": 35.7836,
      "duration": 0.133,
      "velocity": 122,
      "chip": "ym2612"
    },
    {
      "channel": 1,
      "note": 24,
      "start": 35.9156,
      "duration": 0.1161,
      "velocity": 127,
      "chip": "ym2612"
    },
    {
      "channel": 4,
      "note": 45,
      "start": 35.9169,
      "duration": 0.1163,
      "velocity": 122,
      "chip": "ym2612"
    },
    {
      "channel": 1,
      "note": 24,
      "start": 36.0323,
      "duration": 0.1328,
      "velocity": 127,
      "chip": "ym2612"
    },
    {
      "channel": 4,
      "note": 45,
      "start": 36.0336,
      "duration": 0.1358,
      "velocity": 122,
      "chip": "ym2612"
    },
    {
      "channel": 1,
      "note": 24,
      "start": 36.1658,
      "duration": 0.3659,
      "velocity": 127,
      "chip": "ym2612"
    },
    {
      "channel": 2,
      "note": 52,
      "start": 36.1665,
      "duration": 0.7331,
      "velocity": 79,
      "chip": "ym2612"
    },
    {
      "channel": 4,
      "note": 45,
      "start": 36.17,
      "duration": 0.3632,
      "velocity": 122,
      "chip": "ym2612"
    },
    {
      "channel": 1,
      "note": 24,
      "start": 36.5323,
      "duration": 0.1161,
      "velocity": 127,
      "chip": "ym2612"
    },
    {
      "channel": 4,
      "note": 45,
      "start": 36.5336,
      "duration": 0.1163,
      "velocity": 122,
      "chip": "ym2612"
    },
    {
      "channel": 1,
      "note": 24,
      "start": 36.649,
      "duration": 0.1328,
      "velocity": 127,
      "chip": "ym2612"
    },
    {
      "channel": 4,
      "note": 45,
      "start": 36.6502,
      "duration": 0.133,
      "velocity": 122,
      "chip": "ym2612"
    },
    {
      "channel": 1,
      "note": 24,
      "start": 36.7823,
      "duration": 0.1163,
      "velocity": 127,
      "chip": "ym2612"
    },
    {
      "channel": 4,
      "note": 45,
      "start": 36.7836,
      "duration": 0.1195,
      "velocity": 122,
      "chip": "ym2612"
    },
    {
      "channel": 1,
      "note": 24,
      "start": 36.8993,
      "duration": 0.3657,
      "velocity": 127,
      "chip": "ym2612"
    },
    {
      "channel": 2,
      "note": 52,
      "start": 36.9,
      "duration": 0.7325,
      "velocity": 79,
      "chip": "ym2612"
    },
    {
      "channel": 4,
      "note": 45,
      "start": 36.9037,
      "duration": 0.3629,
      "velocity": 122,
      "chip": "ym2612"
    },
    {
      "channel": 1,
      "note": 24,
      "start": 37.2656,
      "duration": 0.1161,
      "velocity": 127,
      "chip": "ym2612"
    },
    {
      "channel": 4,
      "note": 45,
      "start": 37.2669,
      "duration": 0.1163,
      "velocity": 122,
      "chip": "ym2612"
    },
    {
      "channel": 1,
      "note": 24,
      "start": 37.3823,
      "duration": 0.1328,
      "velocity": 127,
      "chip": "ym2612"
    },
    {
      "channel": 4,
      "note": 45,
      "start": 37.3836,
      "duration": 0.133,
      "velocity": 122,
      "chip": "ym2612"
    },
    {
      "channel": 1,
      "note": 24,
      "start": 37.5156,
      "duration": 0.1162,
      "velocity": 127,
      "chip": "ym2612"
    },
    {
      "channel": 4,
      "note": 45,
      "start": 37.517,
      "duration": 0.1167,
      "velocity": 122,
      "chip": "ym2612"
    },
    {
      "channel": 1,
      "note": 24,
      "start": 37.6324,
      "duration": 0.1327,
      "velocity": 127,
      "chip": "ym2612"
    },
    {
      "channel": 2,
      "note": 52,
      "start": 37.633,
      "duration": 0.7499,
      "velocity": 79,
      "chip": "ym2612"
    },
    {
      "channel": 4,
      "note": 45,
      "start": 37.634,
      "duration": 0.1327,
      "velocity": 122,
      "chip": "ym2612"
    },
    {
      "channel": 1,
      "note": 24,
      "start": 37.7656,
      "duration": 0.1161,
      "velocity": 127,
      "chip": "ym2612"
    },
    {
      "channel": 4,
      "note": 45,
      "start": 37.7672,
      "duration": 0.1162,
      "velocity": 122,
      "chip": "ym2612"
    },
    {
      "channel": 1,
      "note": 24,
      "start": 37.8823,
      "duration": 0.1158,
      "velocity": 127,
      "chip": "ym2612"
    },
    {
      "channel": 4,
      "note": 45,
      "start": 37.8838,
      "duration": 0.1158,
      "velocity": 122,
      "chip": "ym2612"
    },
    {
      "channel": 1,
      "note": 24,
      "start": 37.9986,
      "duration": 0.1331,
      "velocity": 127,
      "chip": "ym2612"
    },
    {
      "channel": 4,
      "note": 45,
      "start": 38.0,
      "duration": 0.1333,
      "velocity": 122,
      "chip": "ym2612"
    },
    {
      "channel": 1,
      "note": 24,
      "start": 38.1323,
      "duration": 0.1161,
      "velocity": 127,
      "chip": "ym2612"
    },
    {
      "channel": 4,
      "note": 45,
      "start": 38.1338,
      "duration": 0.1163,
      "velocity": 122,
      "chip": "ym2612"
    },
    {
      "channel": 1,
      "note": 24,
      "start": 38.249,
      "duration": 0.1332,
      "velocity": 127,
      "chip": "ym2612"
    },
    {
      "channel": 4,
      "note": 45,
      "start": 38.2505,
      "duration": 0.1366,
      "velocity": 122,
      "chip": "ym2612"
    },
    {
      "channel": 0,
      "note": 69,
      "start": 38.3816,
      "duration": 2.9494,
      "velocity": 95,
      "chip": "ym2612"
    },
    {
      "channel": 1,
      "note": 24,
      "start": 38.3828,
      "duration": 0.3656,
      "velocity": 127,
      "chip": "ym2612"
    },
    {
      "channel": 2,
      "note": 47,
      "start": 38.3836,
      "duration": 0.7324,
      "velocity": 79,
      "chip": "ym2612"
    },
    {
      "channel": 3,
      "note": 59,
      "start": 38.3843,
      "duration": 2.9495,
      "velocity": 95,
      "chip": "ym2612"
    },
    {
      "channel": 4,
      "note": 45,
      "start": 38.3876,
      "duration": 0.3622,
      "velocity": 122,
      "chip": "ym2612"
    },
    {
      "channel": 1,
      "note": 24,
      "start": 38.749,
      "duration": 0.1161,
      "velocity": 127,
      "chip": "ym2612"
    },
    {
      "channel": 4,
      "note": 45,
      "start": 38.7502,
      "duration": 0.1163,
      "velocity": 122,
      "chip": "ym2612"
    },
    {
      "channel": 1,
      "note": 24,
      "start": 38.8656,
      "duration": 0.1161,
      "velocity": 127,
      "chip": "ym2612"
    },
    {
      "channel": 4,
      "note": 45,
      "start": 38.8669,
      "duration": 0.1164,
      "velocity": 122,
      "chip": "ym2612"
    },
    {
      "channel": 1,
      "note": 24,
      "start": 38.9823,
      "duration": 0.1328,
      "velocity": 127,
      "chip": "ym2612"
    },
    {
      "channel": 4,
      "note": 45,
      "start": 38.9837,
      "duration": 0.1357,
      "velocity": 122,
      "chip": "ym2612"
    },
    {
      "channel": 1,
      "note": 24,
      "start": 39.1158,
      "duration": 0.3659,
      "velocity": 127,
      "chip": "ym2612"
    },
    {
      "channel": 2,
      "note": 47,
      "start": 39.1165,
      "duration": 0.7331,
      "velocity": 79,
      "chip": "ym2612"
    },
    {
      "channel": 4,
      "note": 45,
      "start": 39.12,
      "duration": 0.3632,
      "velocity": 122,
      "chip": "ym2612"
    },
    {
      "channel": 1,
      "note": 24,
      "start": 39.4823,
      "duration": 0.1161,
      "velocity": 127,
      "chip": "ym2612"
    },
    {
      "channel": 4,
      "note": 45,
      "start": 39.4836,
      "duration": 0.1163,
      "velocity": 122,
      "chip": "ym2612"
    },
    {
      "channel": 1,
      "note": 24,
      "start": 39.599,
      "duration": 0.1328,
      "velocity": 127,
      "chip": "ym2612"
    },
    {
      "channel": 4,
      "note": 45,
      "start": 39.6002,
      "duration": 0.133,
      "velocity": 122,
      "chip": "ym2612"
    },
    {
      "channel": 1,
      "note": 24,
      "start": 39.7323,
      "duration": 0.1163,
      "velocity": 127,
      "chip": "ym2612"
    },
    {
      "channel": 4,
      "note": 45,
      "start": 39.7336,
      "duration": 0.1195,
      "velocity": 122,
      "chip": "ym2612"
    },
    {
      "channel": 1,
      "note": 24,
      "start": 39.8493,
      "duration": 0.3657,
      "velocity": 127,
      "chip": "ym2612"
    },
    {
      "channel": 2,
      "note": 47,
      "start": 39.85,
      "duration": 0.7325,
      "velocity": 79,
      "chip": "ym2612"
    },
    {
      "channel": 4,
      "note": 45,
      "start": 39.8537,
      "duration": 0.3629,
      "velocity": 122,
      "chip": "ym2612"
    },
    {
      "channel": 1,
      "note": 24,
      "start": 40.2156,
      "duration": 0.1328,
      "velocity": 127,
      "chip": "ym2612"
    },
    {
      "channel": 4,
      "note": 45,
      "start": 40.2169,
      "duration": 0.133,
      "velocity": 122,
      "chip": "ym2612"
    },
    {
      "channel": 1,
      "note": 24,
      "start": 40.349,
      "duration": 0.1161,
      "velocity": 127,
      "chip": "ym2612"
    },
    {
      "channel": 4,
      "note": 45,
      "start": 40.3502,
      "duration": 0.1163,
      "velocity": 122,
      "chip": "ym2612"
    },
    {
      "channel": 1,
      "note": 24,
      "start": 40.4656,
      "duration": 0.1162,
      "velocity": 127,
      "chip": "ym2612"
    },
    {
      "channel": 4,
      "note": 45,
      "start": 40.467,
      "duration": 0.1167,
      "velocity": 122,
      "chip": "ym2612"
    },
    {
      "channel": 1,
      "note": 24,
      "start": 40.5824,
      "duration": 0.1327,
      "velocity": 127,
      "chip": "ym2612"
    },
    {
      "channel": 2,
      "note": 47,
      "start": 40.583,
      "duration": 0.75,
      "velocity": 79,
      "chip": "ym2612"
    },
    {
      "channel": 4,
      "note": 45,
      "start": 40.584,
      "duration": 0.1327,
      "velocity": 122,
      "chip": "ym2612"
    },
    {
      "channel": 1,
      "note": 24,
      "start": 40.7156,
      "duration": 0.1161,
      "velocity": 127,
      "chip": "ym2612"
    },
    {
      "channel": 4,
      "note": 45,
      "start": 40.7172,
      "duration": 0.1162,
      "velocity": 122,
      "chip": "ym2612"
    },
    {
      "channel": 1,
      "note": 24,
      "start": 40.8323,
      "duration": 0.1324,
      "velocity": 127,
      "chip": "ym2612"
    },
    {
      "channel": 4,
      "note": 45,
      "start": 40.8338,
      "duration": 0.1325,
      "velocity": 122,
      "chip": "ym2612"
    },
    {
      "channel": 1,
      "note": 24,
      "start": 40.9653,
      "duration": 0.1164,
      "velocity": 127,
      "chip": "ym2612"
    },
    {
      "channel": 4,
      "note": 45,
      "start": 40.9667,
      "duration": 0.1167,
      "velocity": 122,
      "chip": "ym2612"
    },
    {
      "channel": 1,
      "note": 24,
      "start": 41.0823,
      "duration": 0.1161,
      "velocity": 127,
      "chip": "ym2612"
    },
    {
      "channel": 4,
      "note": 45,
      "start": 41.0838,
      "duration": 0.1163,
      "velocity": 122,
      "chip": "ym2612"
    },
    {
      "channel": 1,
      "note": 24,
      "start": 41.199,
      "duration": 0.1331,
      "velocity": 127,
      "chip": "ym2612"
    },
    {
      "channel": 4,
      "note": 45,
      "start": 41.2005,
      "duration": 0.1366,
      "velocity": 122,
      "chip": "ym2612"
    },
    {
      "channel": 0,
      "note": 64,
      "start": 41.3316,
      "duration": 2.9494,
      "velocity": 95,
      "chip": "ym2612"
    },
    {
      "channel": 1,
      "note": 24,
      "start": 41.3327,
      "duration": 0.3656,
      "velocity": 127,
      "chip": "ym2612"
    },
    {
      "channel": 2,
      "note": 52,
      "start": 41.3336,
      "duration": 0.7324,
      "velocity": 79,
      "chip": "ym2612"
    },
    {
      "channel": 3,
      "note": 59,
      "start": 41.3343,
      "duration": 2.9493,
      "velocity": 95,
      "chip": "ym2612"
    },
    {
      "channel": 4,
      "note": 45,
      "start": 41.3377,
      "duration": 0.3622,
      "velocity": 122,
      "chip": "ym2612"
    },
    {
      "channel": 5,
      "note": 37,
      "start": 41.3387,
      "duration": 5.8993,
      "velocity": 127,
      "chip": "ym2612"
    },
    {
      "channel": 1,
      "note": 24,
      "start": 41.699,
      "duration": 0.1161,
      "velocity": 127,
      "chip": "ym2612"
    },
    {
      "channel": 4,
      "note": 45,
      "start": 41.7002,
      "duration": 0.1163,
      "velocity": 122,
      "chip": "ym2612"
    },
    {
      "channel": 1,
      "note": 24,
      "start": 41.8156,
      "duration": 0.1328,
      "velocity": 127,
      "chip": "ym2612"
    },
    {
      "channel": 4,
      "note": 45,
      "start": 41.8169,
      "duration": 0.133,
      "velocity": 122,
      "chip": "ym2612"
    },
    {
      "channel": 1,
      "note": 24,
      "start": 41.949,
      "duration": 0.1162,
      "velocity": 127,
      "chip": "ym2612"
    },
    {
      "channel": 4,
      "note": 45,
      "start": 41.9503,
      "duration": 0.1191,
      "velocity": 122,
      "chip": "ym2612"
    },
    {
      "channel": 1,
      "note": 24,
      "start": 42.0658,
      "duration": 0.3659,
      "velocity": 127,
      "chip": "ym2612"
    },
    {
      "channel": 2,
      "note": 52,
      "start": 42.0665,
      "duration": 0.7331,
      "velocity": 79,
      "chip": "ym2612"
    },
    {
      "channel": 4,
      "note": 45,
      "start": 42.07,
      "duration": 0.3632,
      "velocity": 122,
      "chip": "ym2612"
    },
    {
      "channel": 1,
      "note": 24,
      "start": 42.4323,
      "duration": 0.1328,
      "velocity": 127,
      "chip": "ym2612"
    },
    {
      "channel": 4,
      "note": 45,
      "start": 42.4336,
      "duration": 0.133,
      "velocity": 122,
      "chip": "ym2612"
    },
    {
      "channel": 1,
      "note": 24,
      "start": 42.5656,
      "duration": 0.1161,
      "velocity": 127,
      "chip": "ym2612"
    },
    {
      "channel": 4,
      "note": 45,
      "start": 42.5669,
      "duration": 0.1163,
      "velocity": 122,
      "chip": "ym2612"
    },
    {
      "channel": 1,
      "note": 24,
      "start": 42.6823,
      "duration": 0.1163,
      "velocity": 127,
      "chip": "ym2612"
    },
    {
      "channel": 4,
      "note": 45,
      "start": 42.6836,
      "duration": 0.1195,
      "velocity": 122,
      "chip": "ym2612"
    },
    {
      "channel": 1,
      "note": 24,
      "start": 42.7993,
      "duration": 0.3824,
      "velocity": 127,
      "chip": "ym2612"
    },
    {
      "channel": 2,
      "note": 52,
      "start": 42.8,
      "duration": 0.7492,
      "velocity": 79,
      "chip": "ym2612"
    },
    {
      "channel": 4,
      "note": 45,
      "start": 42.8037,
      "duration": 0.3795,
      "velocity": 122,
      "chip": "ym2612"
    },
    {
      "channel": 1,
      "note": 24,
      "start": 43.1823,
      "duration": 0.1161,
      "velocity": 127,
      "chip": "ym2612"
    },
    {
      "channel": 4,
      "note": 45,
      "start": 43.1836,
      "duration": 0.1163,
      "velocity": 122,
      "chip": "ym2612"
    },
    {
      "channel": 1,
      "note": 24,
      "start": 43.299,
      "duration": 0.1161,
      "velocity": 127,
      "chip": "ym2612"
    },
    {
      "channel": 4,
      "note": 45,
      "start": 43.3002,
      "duration": 0.1163,
      "velocity": 122,
      "chip": "ym2612"
    },
    {
      "channel": 1,
      "note": 24,
      "start": 43.4156,
      "duration": 0.1328,
      "velocity": 127,
      "chip": "ym2612"
    },
    {
      "channel": 4,
      "note": 45,
      "start": 43.417,
      "duration": 0.1333,
      "velocity": 122,
      "chip": "ym2612"
    },
    {
      "channel": 1,
      "note": 24,
      "start": 43.549,
      "duration": 0.116,
      "velocity": 127,
      "chip": "ym2612"
    },
    {
      "channel": 2,
      "note": 52,
      "start": 43.5497,
      "duration": 0.7333,
      "velocity": 79,
      "chip": "ym2612"
    },
    {
      "channel": 4,
      "note": 45,
      "start": 43.5507,
      "duration": 0.116,
      "velocity": 122,
      "chip": "ym2612"
    },
    {
      "channel": 1,
      "note": 24,
      "start": 43.6656,
      "duration": 0.1161,
      "velocity": 127,
      "chip": "ym2612"
    },
    {
      "channel": 4,
      "note": 45,
      "start": 43.6672,
      "duration": 0.1162,
      "velocity": 122,
      "chip": "ym2612"
    },
    {
      "channel": 1,
      "note": 24,
      "start": 43.7823,
      "duration": 0.1324,
      "velocity": 127,
      "chip": "ym2612"
    },
    {
      "channel": 4,
      "note": 45,
      "start": 43.7838,
      "duration": 0.1325,
      "velocity": 122,
      "chip": "ym2612"
    },
    {
      "channel": 1,
      "note": 24,
      "start": 43.9153,
      "duration": 0.1164,
      "velocity": 127,
      "chip": "ym2612"
    },
    {
      "channel": 4,
      "note": 45,
      "start": 43.9167,
      "duration": 0.1167,
      "velocity": 122,
      "chip": "ym2612"
    },
    {
      "channel": 1,
      "note": 24,
      "start": 44.0323,
      "duration": 0.1328,
      "velocity": 127,
      "chip": "ym2612"
    },
    {
      "channel": 4,
      "note": 45,
      "start": 44.0338,
      "duration": 0.133,
      "velocity": 122,
      "chip": "ym2612"
    },
    {
      "channel": 1,
      "note": 24,
      "start": 44.1656,
      "duration": 0.1164,
      "velocity": 127,
      "chip": "ym2612"
    },
    {
      "channel": 4,
      "note": 45,
      "start": 44.1672,
      "duration": 0.1199,
      "velocity": 122,
      "chip": "ym2612"
    },
    {
      "channel": 0,
      "note": 63,
      "start": 44.2816,
      "duration": 2.9494,
      "velocity": 95,
      "chip": "ym2612"
    },
    {
      "channel": 1,
      "note": 24,
      "start": 44.2827,
      "duration": 0.3656,
      "velocity": 127,
      "chip": "ym2612"
    },
    {
      "channel": 2,
      "note": 47,
      "start": 44.2835,
      "duration": 0.7325,
      "velocity": 79,
      "chip": "ym2612"
    },
    {
      "channel": 3,
      "note": 59,
      "start": 44.2842,
      "duration": 2.9496,
      "velocity": 95,
      "chip": "ym2612"
    },
    {
      "channel": 4,
      "note": 45,
      "start": 44.2876,
      "duration": 0.3622,
      "velocity": 122,
      "chip": "ym2612"
    },
    {
      "channel": 1,
      "note": 24,
      "start": 44.649,
      "duration": 0.1328,
      "velocity": 127,
      "chip": "ym2612"
    },
    {
      "channel": 4,
      "note": 45,
      "start": 44.6502,
      "duration": 0.133,
      "velocity": 122,
      "chip": "ym2612"
    },
    {
      "channel": 1,
      "note": 24,
      "start": 44.7823,
      "duration": 0.1161,
      "velocity": 127,
      "chip": "ym2612"
    },
    {
      "channel": 4,
      "note": 45,
      "start": 44.7836,
      "duration": 0.1163,
      "velocity": 122,
      "chip": "ym2612"
    },
    {
      "channel": 1,
      "note": 24,
      "start": 44.899,
      "duration": 0.1162,
      "velocity": 127,
      "chip": "ym2612"
    },
    {
      "channel": 4,
      "note": 45,
      "start": 44.9003,
      "duration": 0.1191,
      "velocity": 122,
      "chip": "ym2612"
    },
    {
      "channel": 1,
      "note": 24,
      "start": 45.0158,
      "duration": 0.3659,
      "velocity": 127,
      "chip": "ym2612"
    },
    {
      "channel": 2,
      "note": 47,
      "start": 45.0165,
      "duration": 0.7498,
      "velocity": 79,
      "chip": "ym2612"
    },
    {
      "channel": 4,
      "note": 45,
      "start": 45.02,
      "duration": 0.3632,
      "velocity": 122,
      "chip": "ym2612"
    },
    {
      "channel": 1,
      "note": 24,
      "start": 45.3823,
      "duration": 0.1328,
      "velocity": 127,
      "chip": "ym2612"
    },
    {
      "channel": 4,
      "note": 45,
      "start": 45.3836,
      "duration": 0.133,
      "velocity": 122,
      "chip": "ym2612"
    },
    {
      "channel": 1,
      "note": 24,
      "start": 45.5156,
      "duration": 0.1161,
      "velocity": 127,
      "chip": "ym2612"
    },
    {
      "channel": 4,
      "note": 45,
      "start": 45.5169,
      "duration": 0.1163,
      "velocity": 122,
      "chip": "ym2612"
    },
    {
      "channel": 1,
      "note": 24,
      "start": 45.6323,
      "duration": 0.133,
      "velocity": 127,
      "chip": "ym2612"
    },
    {
      "channel": 4,
      "note": 45,
      "start": 45.6336,
      "duration": 0.1362,
      "velocity": 122,
      "chip": "ym2612"
    },
    {
      "channel": 1,
      "note": 24,
      "start": 45.766,
      "duration": 0.3657,
      "velocity": 127,
      "chip": "ym2612"
    },
    {
      "channel": 2,
      "note": 47,
      "start": 45.7666,
      "duration": 0.7325,
      "velocity": 79,
      "chip": "ym2612"
    },
    {
      "channel": 4,
      "note": 45,
      "start": 45.7703,
      "duration": 0.3629,
      "velocity": 122,
      "chip": "ym2612"
    },
    {
      "channel": 1,
      "note": 24,
      "start": 46.1323,
      "duration": 0.1161,
      "velocity": 127,
      "chip": "ym2612"
    },
    {
      "channel": 4,
      "note": 45,
      "start": 46.1336,
      "duration": 0.1163,
      "velocity": 122,
      "chip": "ym2612"
    },
    {
      "channel": 1,
      "note": 24,
      "start": 46.249,
      "duration": 0.1328,
      "velocity": 127,
      "chip": "ym2612"
    },
    {
      "channel": 4,
      "note": 45,
      "start": 46.2502,
      "duration": 0.133,
      "velocity": 122,
      "chip": "ym2612"
    },
    {
      "channel": 1,
      "note": 24,
      "start": 46.3823,
      "duration": 0.1162,
      "velocity": 127,
      "chip": "ym2612"
    },
    {
      "channel": 4,
      "note": 45,
      "start": 46.3836,
      "duration": 0.1167,
      "velocity": 122,
      "chip": "ym2612"
    },
    {
      "channel": 1,
      "note": 24,
      "start": 46.499,
      "duration": 0.116,
      "velocity": 127,
      "chip": "ym2612"
    },
    {
      "channel": 2,
      "note": 47,
      "start": 46.4997,
      "duration": 0.7333,
      "velocity": 79,
      "chip": "ym2612"
    },
    {
      "channel": 4,
      "note": 45,
      "start": 46.5007,
      "duration": 0.116,
      "velocity": 122,
      "chip": "ym2612"
    },
    {
      "channel": 1,
      "note": 24,
      "start": 46.6156,
      "duration": 0.1328,
      "velocity": 127,
      "chip": "ym2612"
    },
    {
      "channel": 4,
      "note": 45,
      "start": 46.6172,
      "duration": 0.1329,
      "velocity": 122,
      "chip": "ym2612"
    },
    {
      "channel": 1,
      "note": 24,
      "start": 46.749,
      "duration": 0.1158,
      "velocity": 127,
      "chip": "ym2612"
    },
    {
      "channel": 4,
      "note": 45,
      "start": 46.7505,
      "duration": 0.1158,
      "velocity": 122,
      "chip": "ym2612"
    },
    {
      "channel": 1,
      "note": 24,
      "start": 46.8653,
      "duration": 0.1164,
      "velocity": 127,
      "chip": "ym2612"
    },
    {
      "channel": 4,
      "note": 45,
      "start": 46.8667,
      "duration": 0.1167,
      "velocity": 122,
      "chip": "ym2612"
    },
    {
      "channel": 1,
      "note": 24,
      "start": 46.9823,
      "duration": 0.1328,
      "velocity": 127,
      "chip": "ym2612"
    },
    {
      "channel": 4,
      "note": 45,
      "start": 46.9838,
      "duration": 0.133,
      "velocity": 122,
      "chip": "ym2612"
    },
    {
      "channel": 1,
      "note": 24,
      "start": 47.1156,
      "duration": 0.1164,
      "velocity": 127,
      "chip": "ym2612"
    },
    {
      "channel": 4,
      "note": 45,
      "start": 47.1172,
      "duration": 0.12,
      "velocity": 122,
      "chip": "ym2612"
    },
    {
      "channel": 0,
      "note": 64,
      "start": 47.2316,
      "duration": 2.9494,
      "velocity": 95,
      "chip": "ym2612"
    },
    {
      "channel": 1,
      "note": 24,
      "start": 47.2327,
      "duration": 0.3656,
      "velocity": 127,
      "chip": "ym2612"
    },
    {
      "channel": 2,
      "note": 52,
      "start": 47.2336,
      "duration": 0.749,
      "velocity": 79,
      "chip": "ym2612"
    },
    {
      "channel": 3,
      "note": 59,
      "start": 47.2343,
      "duration": 2.9493,
      "velocity": 95,
      "chip": "ym2612"
    },
    {
      "channel": 4,
      "note": 45,
      "start": 47.2377,
      "duration": 0.3622,
      "velocity": 122,
      "chip": "ym2612"
    },
    {
      "channel": 5,
      "note": 37,
      "start": 47.2387,
      "duration": 5.9161,
      "velocity": 127,
      "chip": "ym2612"
    },
    {
      "channel": 1,
      "note": 24,
      "start": 47.599,
      "duration": 0.1328,
      "velocity": 127,
      "chip": "ym2612"
    },
    {
      "channel": 4,
      "note": 45,
      "start": 47.6002,
      "duration": 0.133,
      "velocity": 122,
      "chip": "ym2612"
    },
    {
      "channel": 1,
      "note": 24,
      "start": 47.7323,
      "duration": 0.1161,
      "velocity": 127,
      "chip": "ym2612"
    },
    {
      "channel": 4,
      "note": 45,
      "start": 47.7336,
      "duration": 0.1163,
      "velocity": 122,
      "chip": "ym2612"
    },
    {
      "channel": 1,
      "note": 24,
      "start": 47.849,
      "duration": 0.1328,
      "velocity": 127,
      "chip": "ym2612"
    },
    {
      "channel": 4,
      "note": 45,
      "start": 47.8503,
      "duration": 0.1358,
      "velocity": 122,
      "chip": "ym2612"
    },
    {
      "channel": 1,
      "note": 24,
      "start": 47.9825,
      "duration": 0.3659,
      "velocity": 127,
      "chip": "ym2612"
    },
    {
      "channel": 2,
      "note": 52,
      "start": 47.9831,
      "duration": 0.7331,
      "velocity": 79,
      "chip": "ym2612"
    },
    {
      "channel": 4,
      "note": 45,
      "start": 47.9866,
      "duration": 0.3632,
      "velocity": 122,
      "chip": "ym2612"
    },
    {
      "channel": 1,
      "note": 24,
      "start": 48.349,
      "duration": 0.1161,
      "velocity": 127,
      "chip": "ym2612"
    },
    {
      "channel": 4,
      "note": 45,
      "start": 48.3502,
      "duration": 0.1163,
      "velocity": 122,
      "chip": "ym2612"
    },
    {
      "channel": 1,
      "note": 24,
      "start": 48.4656,
      "duration": 0.1161,
      "velocity": 127,
      "chip": "ym2612"
    },
    {
      "channel": 4,
      "note": 45,
      "start": 48.4669,
      "duration": 0.1164,
      "velocity": 122,
      "chip": "ym2612"
    },
    {
      "channel": 1,
      "note": 24,
      "start": 48.5823,
      "duration": 0.133,
      "velocity": 127,
      "chip": "ym2612"
    },
    {
      "channel": 4,
      "note": 45,
      "start": 48.5837,
      "duration": 0.1361,
      "velocity": 122,
      "chip": "ym2612"
    },
    {
      "channel": 1,
      "note": 24,
      "start": 48.716,
      "duration": 0.3657,
      "velocity": 127,
      "chip": "ym2612"
    },
    {
      "channel": 2,
      "note": 52,
      "start": 48.7166,
      "duration": 0.7325,
      "velocity": 79,
      "chip": "ym2612"
    },
    {
      "channel": 4,
      "note": 45,
      "start": 48.7203,
      "duration": 0.3629,
      "velocity": 122,
      "chip": "ym2612"
    },
    {
      "channel": 1,
      "note": 24,
      "start": 49.0823,
      "duration": 0.1161,
      "velocity": 127,
      "chip": "ym2612"
    },
    {
      "channel": 4,
      "note": 45,
      "start": 49.0836,
      "duration": 0.1163,
      "velocity": 122,
      "chip": "ym2612"
    },
    {
      "channel": 1,
      "note": 24,
      "start": 49.199,
      "duration": 0.1328,
      "velocity": 127,
      "chip": "ym2612"
    },
    {
      "channel": 4,
      "note": 45,
      "start": 49.2002,
      "duration": 0.133,
      "velocity": 122,
      "chip": "ym2612"
    },
    {
      "channel": 1,
      "note": 24,
      "start": 49.3323,
      "duration": 0.1162,
      "velocity": 127,
      "chip": "ym2612"
    },
    {
      "channel": 4,
      "note": 45,
      "start": 49.3336,
      "duration": 0.1167,
      "velocity": 122,
      "chip": "ym2612"
    },
    {
      "channel": 1,
      "note": 24,
      "start": 49.449,
      "duration": 0.1327,
      "velocity": 127,
      "chip": "ym2612"
    },
    {
      "channel": 2,
      "note": 52,
      "start": 49.4497,
      "duration": 0.7333,
      "velocity": 79,
      "chip": "ym2612"
    },
    {
      "channel": 4,
      "note": 45,
      "start": 49.4507,
      "duration": 0.1327,
      "velocity": 122,
      "chip": "ym2612"
    },
    {
      "channel": 1,
      "note": 24,
      "start": 49.5823,
      "duration": 0.1161,
      "velocity": 127,
      "chip": "ym2612"
    },
    {
      "channel": 4,
      "note": 45,
      "start": 49.5838,
      "duration": 0.1162,
      "velocity": 122,
      "chip": "ym2612"
    },
    {
      "channel": 1,
      "note": 24,
      "start": 49.699,
      "duration": 0.1158,
      "velocity": 127,
      "chip": "ym2612"
    },
    {
      "channel": 4,
      "note": 45,
      "start": 49.7005,
      "duration": 0.1158,
      "velocity": 122,
      "chip": "ym2612"
    },
    {
      "channel": 1,
      "note": 24,
      "start": 49.8153,
      "duration": 0.1331,
      "velocity": 127,
      "chip": "ym2612"
    },
    {
      "channel": 4,
      "note": 45,
      "start": 49.8167,
      "duration": 0.1333,
      "velocity": 122,
      "chip": "ym2612"
    },
    {
      "channel": 1,
      "note": 24,
      "start": 49.949,
      "duration": 0.1161,
      "velocity": 127,
      "chip": "ym2612"
    },
    {
      "channel": 4,
      "note": 45,
      "start": 49.9505,
      "duration": 0.1163,
      "velocity": 122,
      "chip": "ym2612"
    },
    {
      "channel": 1,
      "note": 24,
      "start": 50.0656,
      "duration": 0.1164,
      "velocity": 127,
      "chip": "ym2612"
    },
    {
      "channel": 4,
      "note": 45,
      "start": 50.0672,
      "duration": 0.1199,
      "velocity": 122,
      "chip": "ym2612"
    },
    {
      "channel": 0,
      "note": 63,
      "start": 50.1816,
      "duration": 2.9662,
      "velocity": 95,
      "chip": "ym2612"
    },
    {
      "channel": 1,
      "note": 24,
      "start": 50.1827,
      "duration": 0.3823,
      "velocity": 127,
      "chip": "ym2612"
    },
    {
      "channel": 2,
      "note": 47,
      "start": 50.1835,
      "duration": 0.7492,
      "velocity": 79,
      "chip": "ym2612"
    },
    {
      "channel": 3,
      "note": 59,
      "start": 50.1842,
      "duration": 2.9664,
      "velocity": 95,
      "chip": "ym2612"
    },
    {
      "channel": 4,
      "note": 45,
      "start": 50.1876,
      "duration": 0.3789,
      "velocity": 122,
      "chip": "ym2612"
    },
    {
      "channel": 1,
      "note": 24,
      "start": 50.5656,
      "duration": 0.1161,
      "velocity": 127,
      "chip": "ym2612"
    },
    {
      "channel": 4,
      "note": 45,
      "start": 50.5669,
      "duration": 0.1163,
      "velocity": 122,
      "chip": "ym2612"
    },
    {
      "channel": 1,
      "note": 24,
      "start": 50.6823,
      "duration": 0.1161,
      "velocity": 127,
      "chip": "ym2612"
    },
    {
      "channel": 4,
      "note": 45,
      "start": 50.6836,
      "duration": 0.1163,
      "velocity": 122,
      "chip": "ym2612"
    },
    {
      "channel": 1,
      "note": 24,
      "start": 50.799,
      "duration": 0.1328,
      "velocity": 127,
      "chip": "ym2612"
    },
    {
      "channel": 4,
      "note": 45,
      "start": 50.8003,
      "duration": 0.1358,
      "velocity": 122,
      "chip": "ym2612"
    },
    {
      "channel": 1,
      "note": 24,
      "start": 50.9325,
      "duration": 0.3659,
      "velocity": 127,
      "chip": "ym2612"
    },
    {
      "channel": 2,
      "note": 47,
      "start": 50.9331,
      "duration": 0.7331,
      "velocity": 79,
      "chip": "ym2612"
    },
    {
      "channel": 4,
      "note": 45,
      "start": 50.9366,
      "duration": 0.3632,
      "velocity": 122,
      "chip": "ym2612"
    },
    {
      "channel": 1,
      "note": 24,
      "start": 51.299,
      "duration": 0.1161,
      "velocity": 127,
      "chip": "ym2612"
    },
    {
      "channel": 4,
      "note": 45,
      "start": 51.3002,
      "duration": 0.1163,
      "velocity": 122,
      "chip": "ym2612"
    },
    {
      "channel": 1,
      "note": 24,
      "start": 51.4156,
      "duration": 0.1328,
      "velocity": 127,
      "chip": "ym2612"
    },
    {
      "channel": 4,
      "note": 45,
      "start": 51.4169,
      "duration": 0.133,
      "velocity": 122,
      "chip": "ym2612"
    },
    {
      "channel": 1,
      "note": 24,
      "start": 51.549,
      "duration": 0.1163,
      "velocity": 127,
      "chip": "ym2612"
    },
    {
      "channel": 4,
      "note": 45,
      "start": 51.5503,
      "duration": 0.1195,
      "velocity": 122,
      "chip": "ym2612"
    },
    {
      "channel": 1,
      "note": 24,
      "start": 51.666,
      "duration": 0.3657,
      "velocity": 127,
      "chip": "ym2612"
    },
    {
      "channel": 2,
      "note": 47,
      "start": 51.6666,
      "duration": 0.7325,
      "velocity": 79,
      "chip": "ym2612"
    },
    {
      "channel": 4,
      "note": 45,
      "start": 51.6703,
      "duration": 0.3629,
      "velocity": 122,
      "chip": "ym2612"
    },
    {
      "channel": 1,
      "note": 24,
      "start": 52.0323,
      "duration": 0.1328,
      "velocity": 127,
      "chip": "ym2612"
    },
    {
      "channel": 4,
      "note": 45,
      "start": 52.0336,
      "duration": 0.133,
      "velocity": 122,
      "chip": "ym2612"
    },
    {
      "channel": 1,
      "note": 24,
      "start": 52.1656,
      "duration": 0.1161,
      "velocity": 127,
      "chip": "ym2612"
    },
    {
      "channel": 4,
      "note": 45,
      "start": 52.1669,
      "duration": 0.1163,
      "velocity": 122,
      "chip": "ym2612"
    },
    {
      "channel": 1,
      "note": 24,
      "start": 52.2823,
      "duration": 0.1162,
      "velocity": 127,
      "chip": "ym2612"
    },
    {
      "channel": 4,
      "note": 45,
      "start": 52.2836,
      "duration": 0.1167,
      "velocity": 122,
      "chip": "ym2612"
    },
    {
      "channel": 1,
      "note": 24,
      "start": 52.399,
      "duration": 0.1327,
      "velocity": 127,
      "chip": "ym2612"
    },
    {
      "channel": 2,
      "note": 47,
      "start": 52.3997,
      "duration": 0.7501,
      "velocity": 79,
      "chip": "ym2612"
    },
    {
      "channel": 4,
      "note": 45,
      "start": 52.4007,
      "duration": 0.1327,
      "velocity": 122,
      "chip": "ym2612"
    },
    {
      "channel": 1,
      "note": 24,
      "start": 52.5323,
      "duration": 0.1161,
      "velocity": 127,
      "chip": "ym2612"
    },
    {
      "channel": 4,
      "note": 45,
      "start": 52.5338,
      "duration": 0.1162,
      "velocity": 122,
      "chip": "ym2612"
    },
    {
      "channel": 1,
      "note": 24,
      "start": 52.649,
      "duration": 0.1324,
      "velocity": 127,
      "chip": "ym2612"
    },
    {
      "channel": 4,
      "note": 45,
      "start": 52.6505,
      "duration": 0.1325,
      "velocity": 122,
      "chip": "ym2612"
    },
    {
      "channel": 1,
      "note": 24,
      "start": 52.782,
      "duration": 0.1164,
      "velocity": 127,
      "chip": "ym2612"
    },
    {
      "channel": 4,
      "note": 45,
      "start": 52.7834,
      "duration": 0.1167,
      "velocity": 122,
      "chip": "ym2612"
    },
    {
      "channel": 1,
      "note": 24,
      "start": 52.899,
      "duration": 0.1161,
      "velocity": 127,
      "chip": "ym2612"
    },
    {
      "channel": 4,
      "note": 45,
      "start": 52.9005,
      "duration": 0.1163,
      "velocity": 122,
      "chip": "ym2612"
    },
    {
      "channel": 1,
      "note": 24,
      "start": 53.0156,
      "duration": 0.1332,
      "velocity": 127,
      "chip": "ym2612"
    },
    {
      "channel": 4,
      "note": 45,
      "start": 53.0172,
      "duration": 0.1368,
      "velocity": 122,
      "chip": "ym2612"
    },
    {
      "channel": 0,
      "note": 67,
      "start": 53.1483,
      "duration": 0.7375,
      "velocity": 95,
      "chip": "ym2612"
    },
    {
      "channel": 1,
      "note": 24,
      "start": 53.1495,
      "duration": 0.3656,
      "velocity": 127,
      "chip": "ym2612"
    },
    {
      "channel": 2,
      "note": 52,
      "start": 53.1504,
      "duration": 0.7322,
      "velocity": 79,
      "chip": "ym2612"
    },
    {
      "channel": 3,
      "note": 59,
      "start": 53.1512,
      "duration": 0.7346,
      "velocity": 95,
      "chip": "ym2612"
    },
    {
      "channel": 4,
      "note": 45,
      "start": 53.1546,
      "duration": 0.362,
      "velocity": 122,
      "chip": "ym2612"
    },
    {
      "channel": 5,
      "note": 37,
      "start": 53.1555,
      "duration": 0.7303,
      "velocity": 127,
      "chip": "ym2612"
    },
    {
      "channel": 1,
      "note": 24,
      "start": 53.5156,
      "duration": 0.1161,
      "velocity": 127,
      "chip": "ym2612"
    },
    {
      "channel": 4,
      "note": 45,
      "start": 53.5169,
      "duration": 0.1163,
      "velocity": 122,
      "chip": "ym2612"
    },
    {
      "channel": 1,
      "note": 24,
      "start": 53.6323,
      "duration": 0.1328,
      "velocity": 127,
      "chip": "ym2612"
    },
    {
      "channel": 4,
      "note": 45,
      "start": 53.6336,
      "duration": 0.133,
      "velocity": 122,
      "chip": "ym2612"
    },
    {
      "channel": 1,
      "note": 24,
      "start": 53.7656,
      "duration": 0.1162,
      "velocity": 127,
      "chip": "ym2612"
    },
    {
      "channel": 4,
      "note": 45,
      "start": 53.767,
      "duration": 0.1188,
      "velocity": 122,
      "chip": "ym2612"
    },
    {
      "channel": 1,
      "note": 24,
      "start": 53.8825,
      "duration": 0.0033,
      "velocity": 127,
      "chip": "ym2612"
    },
    {
      "channel": 2,
      "note": 52,
      "start": 53.8831,
      "duration": 0.0027,
      "velocity": 79,
      "chip": "ym2612"
    }
  ]
}