{
  "track_name": "15 - Steeling the Will to Fight",
  "duration_sec": 72.597,
  "sample_rate": 44100,
  "note_count": 949,
  "unique_pitches": 41,
  "pitch_range": 55,
  "avg_note_duration": 0.2568,
  "reconstruction_stats": {
    "notes_reconstructed": 949,
    "keyon_events": 949,
    "keyoff_events": 947,
    "orphan_keyons": 2,
    "unique_pitches": 41,
    "pitch_range": 55,
    "avg_duration_sec": 0.2568
  },
  "metadata": {
    "source": "Y\\Ys III - Wanderers From Ys (MD)\\15 - Steeling the Will to Fight.vgz"
  },
  "notes": [
    {
      "channel": 2,
      "note": 37,
      "start": 0.0263,
      "duration": 0.1105,
      "velocity": 97,
      "chip": "ym2612"
    },
    {
      "channel": 4,
      "note": 73,
      "start": 0.0373,
      "duration": 0.1001,
      "velocity": 94,
      "chip": "ym2612"
    },
    {
      "channel": 4,
      "note": 52,
      "start": 0.1547,
      "duration": 0.1151,
      "velocity": 94,
      "chip": "ym2612"
    },
    {
      "channel": 2,
      "note": 37,
      "start": 0.286,
      "duration": 0.0189,
      "velocity": 97,
      "chip": "ym2612"
    },
    {
      "channel": 2,
      "note": 37,
      "start": 0.3076,
      "duration": 0.019,
      "velocity": 97,
      "chip": "ym2612"
    },
    {
      "channel": 4,
      "note": 52,
      "start": 0.3086,
      "duration": 0.0187,
      "velocity": 94,
      "chip": "ym2612"
    },
    {
      "channel": 0,
      "note": 61,
      "start": 0.3341,
      "duration": 0.348,
      "velocity": 102,
      "chip": "ym2612"
    },
    {
      "channel": 2,
      "note": 42,
      "start": 0.3392,
      "duration": 1.0154,
      "velocity": 97,
      "chip": "ym2612"
    },
    {
      "channel": 3,
      "note": 76,
      "start": 0.3423,
      "duration": 0.0199,
      "velocity": 99,
      "chip": "ym2612"
    },
    {
      "channel": 3,
      "note": 81,
      "start": 0.3651,
      "duration": 0.0529,
      "velocity": 99,
      "chip": "ym2612"
    },
    {
      "channel": 1,
      "note": 61,
      "start": 0.4377,
      "duration": 0.5095,
      "velocity": 102,
      "chip": "ym2612"
    },
    {
      "channel": 3,
      "note": 80,
      "start": 0.4385,
      "duration": 0.112,
      "velocity": 99,
      "chip": "ym2612"
    },
    {
      "channel": 3,
      "note": 78,
      "start": 0.5673,
      "duration": 0.1156,
      "velocity": 99,
      "chip": "ym2612"
    },
    {
      "channel": 0,
      "note": 59,
      "start": 0.6988,
      "duration": 0.9201,
      "velocity": 102,
      "chip": "ym2612"
    },
    {
      "channel": 3,
      "note": 73,
      "start": 0.7024,
      "duration": 0.1129,
      "velocity": 99,
      "chip": "ym2612"
    },
    {
      "channel": 4,
      "note": 52,
      "start": 0.7031,
      "duration": 0.6522,
      "velocity": 94,
      "chip": "ym2612"
    },
    {
      "channel": 3,
      "note": 81,
      "start": 0.8321,
      "duration": 0.1156,
      "velocity": 99,
      "chip": "ym2612"
    },
    {
      "channel": 1,
      "note": 59,
      "start": 0.9639,
      "duration": 0.9201,
      "velocity": 102,
      "chip": "ym2612"
    },
    {
      "channel": 3,
      "note": 80,
      "start": 0.9648,
      "duration": 0.0195,
      "velocity": 99,
      "chip": "ym2612"
    },
    {
      "channel": 3,
      "note": 78,
      "start": 0.9873,
      "duration": 0.0188,
      "velocity": 99,
      "chip": "ym2612"
    },
    {
      "channel": 3,
      "note": 73,
      "start": 1.0115,
      "duration": 0.0197,
      "velocity": 99,
      "chip": "ym2612"
    },
    {
      "channel": 3,
      "note": 81,
      "start": 1.0343,
      "duration": 0.0558,
      "velocity": 99,
      "chip": "ym2612"
    },
    {
      "channel": 3,
      "note": 80,
      "start": 1.1068,
      "duration": 0.1157,
      "velocity": 99,
      "chip": "ym2612"
    },
    {
      "channel": 3,
      "note": 78,
      "start": 1.2393,
      "duration": 0.1156,
      "velocity": 99,
      "chip": "ym2612"
    },
    {
      "channel": 2,
      "note": 42,
      "start": 1.3713,
      "duration": 0.249,
      "velocity": 97,
      "chip": "ym2612"
    },
    {
      "channel": 3,
      "note": 73,
      "start": 1.3744,
      "duration": 0.1132,
      "velocity": 99,
      "chip": "ym2612"
    },
    {
      "channel": 4,
      "note": 52,
      "start": 1.3751,
      "duration": 0.5099,
      "velocity": 94,
      "chip": "ym2612"
    },
    {
      "channel": 3,
      "note": 81,
      "start": 1.5044,
      "duration": 0.1161,
      "velocity": 99,
      "chip": "ym2612"
    },
    {
      "channel": 0,
      "note": 57,
      "start": 1.6356,
      "duration": 0.6156,
      "velocity": 102,
      "chip": "ym2612"
    },
    {
      "channel": 2,
      "note": 40,
      "start": 1.6372,
      "duration": 0.2471,
      "velocity": 97,
      "chip": "ym2612"
    },
    {
      "channel": 3,
      "note": 80,
      "start": 1.6378,
      "duration": 0.1143,
      "velocity": 99,
      "chip": "ym2612"
    },
    {
      "channel": 3,
      "note": 78,
      "start": 1.7689,
      "duration": 0.1158,
      "velocity": 99,
      "chip": "ym2612"
    },
    {
      "channel": 1,
      "note": 57,
      "start": 1.9007,
      "duration": 0.6156,
      "velocity": 102,
      "chip": "ym2612"
    },
    {
      "channel": 2,
      "note": 40,
      "start": 1.9012,
      "duration": 1.0218,
      "velocity": 97,
      "chip": "ym2612"
    },
    {
      "channel": 3,
      "note": 73,
      "start": 1.9052,
      "duration": 0.0189,
      "velocity": 99,
      "chip": "ym2612"
    },
    {
      "channel": 3,
      "note": 81,
      "start": 1.927,
      "duration": 0.0601,
      "velocity": 99,
      "chip": "ym2612"
    },
    {
      "channel": 3,
      "note": 80,
      "start": 2.0039,
      "duration": 0.1158,
      "velocity": 99,
      "chip": "ym2612"
    },
    {
      "channel": 3,
      "note": 78,
      "start": 2.1364,
      "duration": 0.1157,
      "velocity": 99,
      "chip": "ym2612"
    },
    {
      "channel": 0,
      "note": 59,
      "start": 2.2679,
      "duration": 0.9194,
      "velocity": 102,
      "chip": "ym2612"
    },
    {
      "channel": 3,
      "note": 73,
      "start": 2.2716,
      "duration": 0.1129,
      "velocity": 99,
      "chip": "ym2612"
    },
    {
      "channel": 4,
      "note": 52,
      "start": 2.2723,
      "duration": 0.6514,
      "velocity": 94,
      "chip": "ym2612"
    },
    {
      "channel": 3,
      "note": 81,
      "start": 2.4012,
      "duration": 0.1157,
      "velocity": 99,
      "chip": "ym2612"
    },
    {
      "channel": 1,
      "note": 59,
      "start": 2.533,
      "duration": 0.92,
      "velocity": 102,
      "chip": "ym2612"
    },
    {
      "channel": 3,
      "note": 80,
      "start": 2.5339,
      "duration": 0.0191,
      "velocity": 99,
      "chip": "ym2612"
    },
    {
      "channel": 3,
      "note": 78,
      "start": 2.556,
      "duration": 0.0188,
      "velocity": 99,
      "chip": "ym2612"
    },
    {
      "channel": 3,
      "note": 73,
      "start": 2.5803,
      "duration": 0.0189,
      "velocity": 99,
      "chip": "ym2612"
    },
    {
      "channel": 3,
      "note": 81,
      "start": 2.6023,
      "duration": 0.0561,
      "velocity": 99,
      "chip": "ym2612"
    },
    {
      "channel": 3,
      "note": 80,
      "start": 2.6752,
      "duration": 0.1157,
      "velocity": 99,
      "chip": "ym2612"
    },
    {
      "channel": 3,
      "note": 78,
      "start": 2.8077,
      "duration": 0.1157,
      "velocity": 99,
      "chip": "ym2612"
    },
    {
      "channel": 2,
      "note": 40,
      "start": 2.9398,
      "duration": 0.2482,
      "velocity": 97,
      "chip": "ym2612"
    },
    {
      "channel": 3,
      "note": 73,
      "start": 2.9429,
      "duration": 0.1129,
      "velocity": 99,
      "chip": "ym2612"
    },
    {
      "channel": 4,
      "note": 52,
      "start": 2.9436,
      "duration": 0.5106,
      "velocity": 94,
      "chip": "ym2612"
    },
    {
      "channel": 3,
      "note": 81,
      "start": 3.0725,
      "duration": 0.1158,
      "velocity": 99,
      "chip": "ym2612"
    },
    {
      "channel": 0,
      "note": 56,
      "start": 3.2041,
      "duration": 0.6212,
      "velocity": 102,
      "chip": "ym2612"
    },
    {
      "channel": 2,
      "note": 38,
      "start": 3.2048,
      "duration": 0.2487,
      "velocity": 97,
      "chip": "ym2612"
    },
    {
      "channel": 3,
      "note": 80,
      "start": 3.2055,
      "duration": 0.1151,
      "velocity": 99,
      "chip": "ym2612"
    },
    {
      "channel": 3,
      "note": 78,
      "start": 3.3376,
      "duration": 0.1162,
      "velocity": 99,
      "chip": "ym2612"
    },
    {
      "channel": 1,
      "note": 56,
      "start": 3.4698,
      "duration": 0.6205,
      "velocity": 102,
      "chip": "ym2612"
    },
    {
      "channel": 2,
      "note": 38,
      "start": 3.4704,
      "duration": 1.0248,
      "velocity": 97,
      "chip": "ym2612"
    },
    {
      "channel": 3,
      "note": 73,
      "start": 3.4737,
      "duration": 0.0218,
      "velocity": 99,
      "chip": "ym2612"
    },
    {
      "channel": 3,
      "note": 81,
      "start": 3.4993,
      "duration": 0.0619,
      "velocity": 99,
      "chip": "ym2612"
    },
    {
      "channel": 3,
      "note": 80,
      "start": 3.5779,
      "duration": 0.1158,
      "velocity": 99,
      "chip": "ym2612"
    },
    {
      "channel": 3,
      "note": 78,
      "start": 3.7104,
      "duration": 0.1157,
      "velocity": 99,
      "chip": "ym2612"
    },
    {
      "channel": 0,
      "note": 57,
      "start": 3.8419,
      "duration": 0.9176,
      "velocity": 102,
      "chip": "ym2612"
    },
    {
      "channel": 3,
      "note": 73,
      "start": 3.846,
      "duration": 0.1125,
      "velocity": 99,
      "chip": "ym2612"
    },
    {
      "channel": 4,
      "note": 52,
      "start": 3.847,
      "duration": 0.6489,
      "velocity": 94,
      "chip": "ym2612"
    },
    {
      "channel": 3,
      "note": 81,
      "start": 3.9753,
      "duration": 0.1156,
      "velocity": 99,
      "chip": "ym2612"
    },
    {
      "channel": 1,
      "note": 57,
      "start": 4.1071,
      "duration": 0.9175,
      "velocity": 102,
      "chip": "ym2612"
    },
    {
      "channel": 3,
      "note": 80,
      "start": 4.108,
      "duration": 0.0177,
      "velocity": 99,
      "chip": "ym2612"
    },
    {
      "channel": 3,
      "note": 78,
      "start": 4.1286,
      "duration": 0.0184,
      "velocity": 99,
      "chip": "ym2612"
    },
    {
      "channel": 3,
      "note": 73,
      "start": 4.1525,
      "duration": 0.019,
      "velocity": 99,
      "chip": "ym2612"
    },
    {
      "channel": 3,
      "note": 81,
      "start": 4.1745,
      "duration": 0.0561,
      "velocity": 99,
      "chip": "ym2612"
    },
    {
      "channel": 3,
      "note": 80,
      "start": 4.2475,
      "duration": 0.1156,
      "velocity": 99,
      "chip": "ym2612"
    },
    {
      "channel": 3,
      "note": 78,
      "start": 4.3799,
      "duration": 0.1156,
      "velocity": 99,
      "chip": "ym2612"
    },
    {
      "channel": 2,
      "note": 38,
      "start": 4.5119,
      "duration": 0.2482,
      "velocity": 97,
      "chip": "ym2612"
    },
    {
      "channel": 3,
      "note": 73,
      "start": 4.515,
      "duration": 0.1129,
      "velocity": 99,
      "chip": "ym2612"
    },
    {
      "channel": 4,
      "note": 52,
      "start": 4.5157,
      "duration": 0.5099,
      "velocity": 94,
      "chip": "ym2612"
    },
    {
      "channel": 3,
      "note": 81,
      "start": 4.6447,
      "duration": 0.1158,
      "velocity": 99,
      "chip": "ym2612"
    },
    {
      "channel": 0,
      "note": 54,
      "start": 4.7763,
      "duration": 0.6173,
      "velocity": 102,
      "chip": "ym2612"
    },
    {
      "channel": 2,
      "note": 37,
      "start": 4.7772,
      "duration": 0.2477,
      "velocity": 97,
      "chip": "ym2612"
    },
    {
      "channel": 3,
      "note": 80,
      "start": 4.7778,
      "duration": 0.1148,
      "velocity": 99,
      "chip": "ym2612"
    },
    {
      "channel": 3,
      "note": 78,
      "start": 4.9094,
      "duration": 0.1158,
      "velocity": 99,
      "chip": "ym2612"
    },
    {
      "channel": 1,
      "note": 54,
      "start": 5.0413,
      "duration": 0.6174,
      "velocity": 102,
      "chip": "ym2612"
    },
    {
      "channel": 2,
      "note": 37,
      "start": 5.0419,
      "duration": 1.0242,
      "velocity": 97,
      "chip": "ym2612"
    },
    {
      "channel": 3,
      "note": 73,
      "start": 5.0449,
      "duration": 0.02,
      "velocity": 99,
      "chip": "ym2612"
    },
    {
      "channel": 3,
      "note": 81,
      "start": 5.0679,
      "duration": 0.0623,
      "velocity": 99,
      "chip": "ym2612"
    },
    {
      "channel": 3,
      "note": 80,
      "start": 5.1471,
      "duration": 0.1157,
      "velocity": 99,
      "chip": "ym2612"
    },
    {
      "channel": 3,
      "note": 78,
      "start": 5.2796,
      "duration": 0.1149,
      "velocity": 99,
      "chip": "ym2612"
    },
    {
      "channel": 0,
      "note": 53,
      "start": 5.4104,
      "duration": 0.9768,
      "velocity": 102,
      "chip": "ym2612"
    },
    {
      "channel": 3,
      "note": 73,
      "start": 5.4146,
      "duration": 0.1123,
      "velocity": 99,
      "chip": "ym2612"
    },
    {
      "channel": 4,
      "note": 52,
      "start": 5.4153,
      "duration": 0.6515,
      "velocity": 94,
      "chip": "ym2612"
    },
    {
      "channel": 3,
      "note": 81,
      "start": 5.5437,
      "duration": 0.1156,
      "velocity": 99,
      "chip": "ym2612"
    },
    {
      "channel": 1,
      "note": 53,
      "start": 5.6754,
      "duration": 0.7121,
      "velocity": 102,
      "chip": "ym2612"
    },
    {
      "channel": 3,
      "note": 80,
      "start": 5.6763,
      "duration": 0.0191,
      "velocity": 99,
      "chip": "ym2612"
    },
    {
      "channel": 3,
      "note": 77,
      "start": 5.6984,
      "duration": 0.0191,
      "velocity": 99,
      "chip": "ym2612"
    },
    {
      "channel": 3,
      "note": 73,
      "start": 5.7206,
      "duration": 0.0193,
      "velocity": 99,
      "chip": "ym2612"
    },
    {
      "channel": 3,
      "note": 71,
      "start": 5.7429,
      "duration": 0.0586,
      "velocity": 99,
      "chip": "ym2612"
    },
    {
      "channel": 3,
      "note": 73,
      "start": 5.8184,
      "duration": 0.1157,
      "velocity": 99,
      "chip": "ym2612"
    },
    {
      "channel": 3,
      "note": 77,
      "start": 5.9508,
      "duration": 0.1156,
      "velocity": 99,
      "chip": "ym2612"
    },
    {
      "channel": 2,
      "note": 37,
      "start": 6.0829,
      "duration": 0.1156,
      "velocity": 97,
      "chip": "ym2612"
    },
    {
      "channel": 3,
      "note": 80,
      "start": 6.0835,
      "duration": 0.1153,
      "velocity": 99,
      "chip": "ym2612"
    },
    {
      "channel": 4,
      "note": 52,
      "start": 6.0842,
      "duration": 0.3043,
      "velocity": 94,
      "chip": "ym2612"
    },
    {
      "channel": 3,
      "note": 83,
      "start": 6.2157,
      "duration": 0.1156,
      "velocity": 99,
      "chip": "ym2612"
    },
    {
      "channel": 2,
      "note": 37,
      "start": 6.3477,
      "duration": 0.0188,
      "velocity": 97,
      "chip": "ym2612"
    },
    {
      "channel": 3,
      "note": 85,
      "start": 6.3483,
      "duration": 0.0184,
      "velocity": 99,
      "chip": "ym2612"
    },
    {
      "channel": 2,
      "note": 37,
      "start": 6.3691,
      "duration": 0.0187,
      "velocity": 97,
      "chip": "ym2612"
    },
    {
      "channel": 3,
      "note": 89,
      "start": 6.3698,
      "duration": 0.0184,
      "velocity": 99,
      "chip": "ym2612"
    },
    {
      "channel": 0,
      "note": 61,
      "start": 6.391,
      "duration": 0.3514,
      "velocity": 102,
      "chip": "ym2612"
    },
    {
      "channel": 1,
      "note": 54,
      "start": 6.3916,
      "duration": 0.3512,
      "velocity": 102,
      "chip": "ym2612"
    },
    {
      "channel": 2,
      "note": 42,
      "start": 6.3938,
      "duration": 1.0241,
      "velocity": 97,
      "chip": "ym2612"
    },
    {
      "channel": 3,
      "note": 92,
      "start": 6.3969,
      "duration": 0.0199,
      "velocity": 99,
      "chip": "ym2612"
    },
    {
      "channel": 3,
      "note": 81,
      "start": 6.4192,
      "duration": 0.0586,
      "velocity": 99,
      "chip": "ym2612"
    },
    {
      "channel": 3,
      "note": 80,
      "start": 6.4946,
      "duration": 0.1158,
      "velocity": 99,
      "chip": "ym2612"
    },
    {
      "channel": 3,
      "note": 78,
      "start": 6.6272,
      "duration": 0.1161,
      "velocity": 99,
      "chip": "ym2612"
    },
    {
      "channel": 0,
      "note": 59,
      "start": 6.7593,
      "duration": 0.923,
      "velocity": 102,
      "chip": "ym2612"
    },
    {
      "channel": 1,
      "note": 54,
      "start": 6.7598,
      "duration": 0.9228,
      "velocity": 102,
      "chip": "ym2612"
    },
    {
      "channel": 3,
      "note": 73,
      "start": 6.7632,
      "duration": 0.1127,
      "velocity": 99,
      "chip": "ym2612"
    },
    {
      "channel": 4,
      "note": 52,
      "start": 6.7638,
      "duration": 0.6548,
      "velocity": 94,
      "chip": "ym2612"
    },
    {
      "channel": 3,
      "note": 81,
      "start": 6.8927,
      "duration": 0.1149,
      "velocity": 99,
      "chip": "ym2612"
    },
    {
      "channel": 3,
      "note": 80,
      "start": 7.0243,
      "duration": 0.022,
      "velocity": 99,
      "chip": "ym2612"
    },
    {
      "channel": 3,
      "note": 78,
      "start": 7.0498,
      "duration": 0.0195,
      "velocity": 99,
      "chip": "ym2612"
    },
    {
      "channel": 3,
      "note": 73,
      "start": 7.075,
      "duration": 0.0194,
      "velocity": 99,
      "chip": "ym2612"
    },
    {
      "channel": 3,
      "note": 81,
      "start": 7.0975,
      "duration": 0.0559,
      "velocity": 99,
      "chip": "ym2612"
    },
    {
      "channel": 3,
      "note": 80,
      "start": 7.1702,
      "duration": 0.1156,
      "velocity": 99,
      "chip": "ym2612"
    },
    {
      "channel": 3,
      "note": 78,
      "start": 7.3026,
      "duration": 0.1156,
      "velocity": 99,
      "chip": "ym2612"
    },
    {
      "channel": 2,
      "note": 42,
      "start": 7.4347,
      "duration": 0.2483,
      "velocity": 97,
      "chip": "ym2612"
    },
    {
      "channel": 3,
      "note": 73,
      "start": 7.4378,
      "duration": 0.1129,
      "velocity": 99,
      "chip": "ym2612"
    },
    {
      "channel": 4,
      "note": 52,
      "start": 7.4385,
      "duration": 0.5097,
      "velocity": 94,
      "chip": "ym2612"
    },
    {
      "channel": 3,
      "note": 81,
      "start": 7.5674,
      "duration": 0.1158,
      "velocity": 99,
      "chip": "ym2612"
    },
    {
      "channel": 0,
      "note": 57,
      "start": 7.699,
      "duration": 0.6164,
      "velocity": 102,
      "chip": "ym2612"
    },
    {
      "channel": 1,
      "note": 54,
      "start": 7.6995,
      "duration": 0.6162,
      "velocity": 102,
      "chip": "ym2612"
    },
    {
      "channel": 2,
      "note": 40,
      "start": 7.7001,
      "duration": 0.2474,
      "velocity": 97,
      "chip": "ym2612"
    },
    {
      "channel": 3,
      "note": 80,
      "start": 7.7007,
      "duration": 0.1146,
      "velocity": 99,
      "chip": "ym2612"
    },
    {
      "channel": 3,
      "note": 78,
      "start": 7.8322,
      "duration": 0.1157,
      "velocity": 99,
      "chip": "ym2612"
    },
    {
      "channel": 2,
      "note": 40,
      "start": 7.9642,
      "duration": 1.0331,
      "velocity": 97,
      "chip": "ym2612"
    },
    {
      "channel": 3,
      "note": 73,
      "start": 7.9675,
      "duration": 0.0198,
      "velocity": 99,
      "chip": "ym2612"
    },
    {
      "channel": 3,
      "note": 81,
      "start": 7.9903,
      "duration": 0.0611,
      "velocity": 99,
      "chip": "ym2612"
    },
    {
      "channel": 3,
      "note": 80,
      "start": 8.0682,
      "duration": 0.1158,
      "velocity": 99,
      "chip": "ym2612"
    },
    {
      "channel": 3,
      "note": 78,
      "start": 8.2006,
      "duration": 0.1157,
      "velocity": 99,
      "chip": "ym2612"
    },
    {
      "channel": 0,
      "note": 59,
      "start": 8.3322,
      "duration": 0.9295,
      "velocity": 102,
      "chip": "ym2612"
    },
    {
      "channel": 1,
      "note": 52,
      "start": 8.3327,
      "duration": 0.9294,
      "velocity": 102,
      "chip": "ym2612"
    },
    {
      "channel": 3,
      "note": 73,
      "start": 8.3361,
      "duration": 0.1126,
      "velocity": 99,
      "chip": "ym2612"
    },
    {
      "channel": 4,
      "note": 52,
      "start": 8.3368,
      "duration": 0.6613,
      "velocity": 94,
      "chip": "ym2612"
    },
    {
      "channel": 3,
      "note": 81,
      "start": 8.4654,
      "duration": 0.116,
      "velocity": 99,
      "chip": "ym2612"
    },
    {
      "channel": 3,
      "note": 80,
      "start": 8.5981,
      "duration": 0.021,
      "velocity": 99,
      "chip": "ym2612"
    },
    {
      "channel": 3,
      "note": 78,
      "start": 8.6226,
      "duration": 0.0217,
      "velocity": 99,
      "chip": "ym2612"
    },
    {
      "channel": 3,
      "note": 73,
      "start": 8.6508,
      "duration": 0.0216,
      "velocity": 99,
      "chip": "ym2612"
    },
    {
      "channel": 3,
      "note": 81,
      "start": 8.6759,
      "duration": 0.0569,
      "velocity": 99,
      "chip": "ym2612"
    },
    {
      "channel": 3,
      "note": 80,
      "start": 8.7496,
      "duration": 0.1156,
      "velocity": 99,
      "chip": "ym2612"
    },
    {
      "channel": 3,
      "note": 78,
      "start": 8.882,
      "duration": 0.1157,
      "velocity": 99,
      "chip": "ym2612"
    },
    {
      "channel": 2,
      "note": 40,
      "start": 9.0141,
      "duration": 0.2483,
      "velocity": 97,
      "chip": "ym2612"
    },
    {
      "channel": 3,
      "note": 73,
      "start": 9.0172,
      "duration": 0.1129,
      "velocity": 99,
      "chip": "ym2612"
    },
    {
      "channel": 4,
      "note": 52,
      "start": 9.0179,
      "duration": 0.5097,
      "velocity": 94,
      "chip": "ym2612"
    },
    {
      "channel": 3,
      "note": 81,
      "start": 9.1468,
      "duration": 0.1159,
      "velocity": 99,
      "chip": "ym2612"
    },
    {
      "channel": 0,
      "note": 56,
      "start": 9.2784,
      "duration": 0.6156,
      "velocity": 102,
      "chip": "ym2612"
    },
    {
      "channel": 1,
      "note": 52,
      "start": 9.279,
      "duration": 0.6154,
      "velocity": 102,
      "chip": "ym2612"
    },
    {
      "channel": 2,
      "note": 38,
      "start": 9.2795,
      "duration": 0.2475,
      "velocity": 97,
      "chip": "ym2612"
    },
    {
      "channel": 3,
      "note": 80,
      "start": 9.2801,
      "duration": 0.1147,
      "velocity": 99,
      "chip": "ym2612"
    },
    {
      "channel": 3,
      "note": 78,
      "start": 9.4116,
      "duration": 0.1156,
      "velocity": 99,
      "chip": "ym2612"
    },
    {
      "channel": 2,
      "note": 38,
      "start": 9.5437,
      "duration": 1.0264,
      "velocity": 97,
      "chip": "ym2612"
    },
    {
      "channel": 3,
      "note": 73,
      "start": 9.547,
      "duration": 0.0194,
      "velocity": 99,
      "chip": "ym2612"
    },
    {
      "channel": 3,
      "note": 81,
      "start": 9.5693,
      "duration": 0.0606,
      "velocity": 99,
      "chip": "ym2612"
    },
    {
      "channel": 3,
      "note": 80,
      "start": 9.6468,
      "duration": 0.1158,
      "velocity": 99,
      "chip": "ym2612"
    },
    {
      "channel": 3,
      "note": 78,
      "start": 9.7792,
      "duration": 0.1157,
      "velocity": 99,
      "chip": "ym2612"
    },
    {
      "channel": 0,
      "note": 57,
      "start": 9.9108,
      "duration": 0.9237,
      "velocity": 102,
      "chip": "ym2612"
    },
    {
      "channel": 1,
      "note": 50,
      "start": 9.9113,
      "duration": 0.9236,
      "velocity": 102,
      "chip": "ym2612"
    },
    {
      "channel": 3,
      "note": 73,
      "start": 9.9146,
      "duration": 0.1126,
      "velocity": 99,
      "chip": "ym2612"
    },
    {
      "channel": 4,
      "note": 52,
      "start": 9.9153,
      "duration": 0.6555,
      "velocity": 94,
      "chip": "ym2612"
    },
    {
      "channel": 3,
      "note": 81,
      "start": 10.044,
      "duration": 0.1156,
      "velocity": 99,
      "chip": "ym2612"
    },
    {
      "channel": 3,
      "note": 80,
      "start": 10.1764,
      "duration": 0.0187,
      "velocity": 99,
      "chip": "ym2612"
    },
    {
      "channel": 3,
      "note": 78,
      "start": 10.1981,
      "duration": 0.0195,
      "velocity": 99,
      "chip": "ym2612"
    },
    {
      "channel": 3,
      "note": 73,
      "start": 10.2232,
      "duration": 0.0213,
      "velocity": 99,
      "chip": "ym2612"
    },
    {
      "channel": 3,
      "note": 81,
      "start": 10.248,
      "duration": 0.058,
      "velocity": 99,
      "chip": "ym2612"
    },
    {
      "channel": 3,
      "note": 80,
      "start": 10.3228,
      "duration": 0.1152,
      "velocity": 99,
      "chip": "ym2612"
    },
    {
      "channel": 3,
      "note": 78,
      "start": 10.4548,
      "duration": 0.1157,
      "velocity": 99,
      "chip": "ym2612"
    },
    {
      "channel": 2,
      "note": 38,
      "start": 10.5869,
      "duration": 0.2483,
      "velocity": 97,
      "chip": "ym2612"
    },
    {
      "channel": 3,
      "note": 73,
      "start": 10.5908,
      "duration": 0.112,
      "velocity": 99,
      "chip": "ym2612"
    },
    {
      "channel": 4,
      "note": 52,
      "start": 10.5915,
      "duration": 0.509,
      "velocity": 94,
      "chip": "ym2612"
    },
    {
      "channel": 3,
      "note": 81,
      "start": 10.7196,
      "duration": 0.1159,
      "velocity": 99,
      "chip": "ym2612"
    },
    {
      "channel": 0,
      "note": 59,
      "start": 10.8516,
      "duration": 0.6159,
      "velocity": 102,
      "chip": "ym2612"
    },
    {
      "channel": 1,
      "note": 53,
      "start": 10.8521,
      "duration": 0.6157,
      "velocity": 102,
      "chip": "ym2612"
    },
    {
      "channel": 2,
      "note": 37,
      "start": 10.8527,
      "duration": 0.2471,
      "velocity": 97,
      "chip": "ym2612"
    },
    {
      "channel": 3,
      "note": 80,
      "start": 10.8533,
      "duration": 0.1143,
      "velocity": 99,
      "chip": "ym2612"
    },
    {
      "channel": 3,
      "note": 78,
      "start": 10.9844,
      "duration": 0.1157,
      "velocity": 99,
      "chip": "ym2612"
    },
    {
      "channel": 2,
      "note": 37,
      "start": 11.1165,
      "duration": 0.8649,
      "velocity": 97,
      "chip": "ym2612"
    },
    {
      "channel": 3,
      "note": 73,
      "start": 11.1196,
      "duration": 0.0203,
      "velocity": 99,
      "chip": "ym2612"
    },
    {
      "channel": 3,
      "note": 81,
      "start": 11.1428,
      "duration": 0.0606,
      "velocity": 99,
      "chip": "ym2612"
    },
    {
      "channel": 3,
      "note": 80,
      "start": 11.2202,
      "duration": 0.1158,
      "velocity": 99,
      "chip": "ym2612"
    },
    {
      "channel": 3,
      "note": 78,
      "start": 11.3527,
      "duration": 0.1156,
      "velocity": 99,
      "chip": "ym2612"
    },
    {
      "channel": 0,
      "note": 61,
      "start": 11.4842,
      "duration": 0.608,
      "velocity": 102,
      "chip": "ym2612"
    },
    {
      "channel": 1,
      "note": 53,
      "start": 11.4847,
      "duration": 0.6078,
      "velocity": 102,
      "chip": "ym2612"
    },
    {
      "channel": 3,
      "note": 73,
      "start": 11.488,
      "duration": 0.1127,
      "velocity": 99,
      "chip": "ym2612"
    },
    {
      "channel": 4,
      "note": 52,
      "start": 11.4887,
      "duration": 0.4942,
      "velocity": 94,
      "chip": "ym2612"
    },
    {
      "channel": 3,
      "note": 81,
      "start": 11.6175,
      "duration": 0.1157,
      "velocity": 99,
      "chip": "ym2612"
    },
    {
      "channel": 3,
      "note": 80,
      "start": 11.7498,
      "duration": 0.0197,
      "velocity": 99,
      "chip": "ym2612"
    },
    {
      "channel": 3,
      "note": 77,
      "start": 11.7726,
      "duration": 0.0195,
      "velocity": 99,
      "chip": "ym2612"
    },
    {
      "channel": 3,
      "note": 73,
      "start": 11.7951,
      "duration": 0.0194,
      "velocity": 99,
      "chip": "ym2612"
    },
    {
      "channel": 3,
      "note": 71,
      "start": 11.8175,
      "duration": 0.0583,
      "velocity": 99,
      "chip": "ym2612"
    },
    {
      "channel": 3,
      "note": 73,
      "start": 11.8927,
      "duration": 0.021,
      "velocity": 99,
      "chip": "ym2612"
    },
    {
      "channel": 3,
      "note": 77,
      "start": 11.9171,
      "duration": 0.0653,
      "velocity": 99,
      "chip": "ym2612"
    },
    {
      "channel": 2,
      "note": 37,
      "start": 11.9985,
      "duration": 0.0225,
      "velocity": 97,
      "chip": "ym2612"
    },
    {
      "channel": 3,
      "note": 80,
      "start": 11.9995,
      "duration": 0.0219,
      "velocity": 99,
      "chip": "ym2612"
    },
    {
      "channel": 4,
      "note": 52,
      "start": 12.0002,
      "duration": 0.0934,
      "velocity": 94,
      "chip": "ym2612"
    },
    {
      "channel": 3,
      "note": 83,
      "start": 12.025,
      "duration": 0.022,
      "velocity": 99,
      "chip": "ym2612"
    },
    {
      "channel": 2,
      "note": 37,
      "start": 12.05,
      "duration": 0.0195,
      "velocity": 97,
      "chip": "ym2612"
    },
    {
      "channel": 3,
      "note": 85,
      "start": 12.0506,
      "duration": 0.0192,
      "velocity": 99,
      "chip": "ym2612"
    },
    {
      "channel": 2,
      "note": 37,
      "start": 12.0727,
      "duration": 0.0202,
      "velocity": 97,
      "chip": "ym2612"
    },
    {
      "channel": 3,
      "note": 89,
      "start": 12.0733,
      "duration": 0.0198,
      "velocity": 99,
      "chip": "ym2612"
    },
    {
      "channel": 0,
      "note": 57,
      "start": 12.0951,
      "duration": 0.0227,
      "velocity": 102,
      "chip": "ym2612"
    },
    {
      "channel": 2,
      "note": 42,
      "start": 12.0977,
      "duration": 0.3495,
      "velocity": 97,
      "chip": "ym2612"
    },
    {
      "channel": 3,
      "note": 92,
      "start": 12.0983,
      "duration": 0.0204,
      "velocity": 99,
      "chip": "ym2612"
    },
    {
      "channel": 4,
      "note": 52,
      "start": 12.1,
      "duration": 0.0831,
      "velocity": 94,
      "chip": "ym2612"
    },
    {
      "channel": 0,
      "note": 56,
      "start": 12.1208,
      "duration": 0.0612,
      "velocity": 102,
      "chip": "ym2612"
    },
    {
      "channel": 1,
      "note": 57,
      "start": 12.1215,
      "duration": 0.0607,
      "velocity": 102,
      "chip": "ym2612"
    },
    {
      "channel": 3,
      "note": 90,
      "start": 12.1223,
      "duration": 0.0605,
      "velocity": 99,
      "chip": "ym2612"
    },
    {
      "channel": 0,
      "note": 54,
      "start": 12.1987,
      "duration": 0.9823,
      "velocity": 102,
      "chip": "ym2612"
    },
    {
      "channel": 1,
      "note": 56,
      "start": 12.1993,
      "duration": 0.1153,
      "velocity": 102,
      "chip": "ym2612"
    },
    {
      "channel": 3,
      "note": 85,
      "start": 12.2001,
      "duration": 0.1151,
      "velocity": 99,
      "chip": "ym2612"
    },
    {
      "channel": 4,
      "note": 52,
      "start": 12.2008,
      "duration": 0.1148,
      "velocity": 94,
      "chip": "ym2612"
    },
    {
      "channel": 1,
      "note": 54,
      "start": 12.3314,
      "duration": 0.1517,
      "velocity": 102,
      "chip": "ym2612"
    },
    {
      "channel": 3,
      "note": 83,
      "start": 12.3323,
      "duration": 0.1153,
      "velocity": 99,
      "chip": "ym2612"
    },
    {
      "channel": 4,
      "note": 52,
      "start": 12.3329,
      "duration": 0.115,
      "velocity": 94,
      "chip": "ym2612"
    },
    {
      "channel": 2,
      "note": 42,
      "start": 12.464,
      "duration": 0.3502,
      "velocity": 97,
      "chip": "ym2612"
    },
    {
      "channel": 3,
      "note": 81,
      "start": 12.4646,
      "duration": 0.0189,
      "velocity": 99,
      "chip": "ym2612"
    },
    {
      "channel": 4,
      "note": 52,
      "start": 12.4653,
      "duration": 0.0846,
      "velocity": 94,
      "chip": "ym2612"
    },
    {
      "channel": 1,
      "note": 54,
      "start": 12.4859,
      "duration": 0.733,
      "velocity": 102,
      "chip": "ym2612"
    },
    {
      "channel": 3,
      "note": 85,
      "start": 12.4868,
      "duration": 0.0628,
      "velocity": 99,
      "chip": "ym2612"
    },
    {
      "channel": 3,
      "note": 83,
      "start": 12.5665,
      "duration": 0.1157,
      "velocity": 99,
      "chip": "ym2612"
    },
    {
      "channel": 4,
      "note": 52,
      "start": 12.5671,
      "duration": 0.1155,
      "velocity": 94,
      "chip": "ym2612"
    },
    {
      "channel": 3,
      "note": 81,
      "start": 12.6989,
      "duration": 0.1157,
      "velocity": 99,
      "chip": "ym2612"
    },
    {
      "channel": 4,
      "note": 52,
      "start": 12.6996,
      "duration": 0.1153,
      "velocity": 94,
      "chip": "ym2612"
    },
    {
      "channel": 2,
      "note": 42,
      "start": 12.831,
      "duration": 0.3506,
      "velocity": 97,
      "chip": "ym2612"
    },
    {
      "channel": 3,
      "note": 80,
      "start": 12.8317,
      "duration": 0.019,
      "velocity": 99,
      "chip": "ym2612"
    },
    {
      "channel": 4,
      "note": 52,
      "start": 12.8324,
      "duration": 0.085,
      "velocity": 94,
      "chip": "ym2612"
    },
    {
      "channel": 3,
      "note": 78,
      "start": 12.8532,
      "duration": 0.0638,
      "velocity": 99,
      "chip": "ym2612"
    },
    {
      "channel": 3,
      "note": 73,
      "start": 12.9337,
      "duration": 0.1156,
      "velocity": 99,
      "chip": "ym2612"
    },
    {
      "channel": 4,
      "note": 52,
      "start": 12.9344,
      "duration": 0.1153,
      "velocity": 94,
      "chip": "ym2612"
    },
    {
      "channel": 3,
      "note": 78,
      "start": 13.0662,
      "duration": 0.1158,
      "velocity": 99,
      "chip": "ym2612"
    },
    {
      "channel": 4,
      "note": 52,
      "start": 13.0669,
      "duration": 0.1154,
      "velocity": 94,
      "chip": "ym2612"
    },
    {
      "channel": 0,
      "note": 54,
      "start": 13.1977,
      "duration": 0.0884,
      "velocity": 102,
      "chip": "ym2612"
    },
    {
      "channel": 2,
      "note": 42,
      "start": 13.1985,
      "duration": 0.0888,
      "velocity": 97,
      "chip": "ym2612"
    },
    {
      "channel": 3,
      "note": 80,
      "start": 13.1991,
      "duration": 0.0885,
      "velocity": 99,
      "chip": "ym2612"
    },
    {
      "channel": 4,
      "note": 52,
      "start": 13.1998,
      "duration": 0.0882,
      "velocity": 94,
      "chip": "ym2612"
    },
    {
      "channel": 1,
      "note": 54,
      "start": 13.2218,
      "duration": 0.1037,
      "velocity": 102,
      "chip": "ym2612"
    },
    {
      "channel": 0,
      "note": 56,
      "start": 13.3029,
      "duration": 0.0463,
      "velocity": 102,
      "chip": "ym2612"
    },
    {
      "channel": 2,
      "note": 44,
      "start": 13.3043,
      "duration": 0.0454,
      "velocity": 97,
      "chip": "ym2612"
    },
    {
      "channel": 3,
      "note": 81,
      "start": 13.305,
      "duration": 0.0451,
      "velocity": 99,
      "chip": "ym2612"
    },
    {
      "channel": 4,
      "note": 52,
      "start": 13.3057,
      "duration": 0.0207,
      "velocity": 94,
      "chip": "ym2612"
    },
    {
      "channel": 1,
      "note": 56,
      "start": 13.3287,
      "duration": 0.0445,
      "velocity": 102,
      "chip": "ym2612"
    },
    {
      "channel": 4,
      "note": 52,
      "start": 13.3306,
      "duration": 0.0198,
      "velocity": 94,
      "chip": "ym2612"
    },
    {
      "channel": 0,
      "note": 57,
      "start": 13.3529,
      "duration": 0.351,
      "velocity": 102,
      "chip": "ym2612"
    },
    {
      "channel": 2,
      "note": 45,
      "start": 13.3537,
      "duration": 0.3508,
      "velocity": 97,
      "chip": "ym2612"
    },
    {
      "channel": 3,
      "note": 83,
      "start": 13.3543,
      "duration": 0.3505,
      "velocity": 99,
      "chip": "ym2612"
    },
    {
      "channel": 4,
      "note": 52,
      "start": 13.3558,
      "duration": 0.0842,
      "velocity": 94,
      "chip": "ym2612"
    },
    {
      "channel": 1,
      "note": 57,
      "start": 13.3761,
      "duration": 0.3649,
      "velocity": 102,
      "chip": "ym2612"
    },
    {
      "channel": 4,
      "note": 52,
      "start": 13.4568,
      "duration": 0.1157,
      "velocity": 94,
      "chip": "ym2612"
    },
    {
      "channel": 4,
      "note": 52,
      "start": 13.5893,
      "duration": 0.1159,
      "velocity": 94,
      "chip": "ym2612"
    },
    {
      "channel": 0,
      "note": 57,
      "start": 13.7206,
      "duration": 0.3515,
      "velocity": 102,
      "chip": "ym2612"
    },
    {
      "channel": 2,
      "note": 45,
      "start": 13.7214,
      "duration": 0.3513,
      "velocity": 97,
      "chip": "ym2612"
    },
    {
      "channel": 3,
      "note": 85,
      "start": 13.722,
      "duration": 0.351,
      "velocity": 99,
      "chip": "ym2612"
    },
    {
      "channel": 4,
      "note": 52,
      "start": 13.7227,
      "duration": 0.0856,
      "velocity": 94,
      "chip": "ym2612"
    },
    {
      "channel": 1,
      "note": 57,
      "start": 13.7439,
      "duration": 0.3651,
      "velocity": 102,
      "chip": "ym2612"
    },
    {
      "channel": 4,
      "note": 52,
      "start": 13.8251,
      "duration": 0.1157,
      "velocity": 94,
      "chip": "ym2612"
    },
    {
      "channel": 4,
      "note": 52,
      "start": 13.9576,
      "duration": 0.1159,
      "velocity": 94,
      "chip": "ym2612"
    },
    {
      "channel": 0,
      "note": 64,
      "start": 14.0889,
      "duration": 0.3513,
      "velocity": 102,
      "chip": "ym2612"
    },
    {
      "channel": 2,
      "note": 45,
      "start": 14.0897,
      "duration": 0.351,
      "velocity": 97,
      "chip": "ym2612"
    },
    {
      "channel": 3,
      "note": 85,
      "start": 14.0903,
      "duration": 0.3507,
      "velocity": 99,
      "chip": "ym2612"
    },
    {
      "channel": 4,
      "note": 52,
      "start": 14.091,
      "duration": 0.0853,
      "velocity": 94,
      "chip": "ym2612"
    },
    {
      "channel": 1,
      "note": 64,
      "start": 14.1119,
      "duration": 0.3644,
      "velocity": 102,
      "chip": "ym2612"
    },
    {
      "channel": 4,
      "note": 52,
      "start": 14.1932,
      "duration": 0.1157,
      "velocity": 94,
      "chip": "ym2612"
    },
    {
      "channel": 4,
      "note": 52,
      "start": 14.3257,
      "duration": 0.1158,
      "velocity": 94,
      "chip": "ym2612"
    },
    {
      "channel": 0,
      "note": 61,
      "start": 14.4569,
      "duration": 0.1437,
      "velocity": 102,
      "chip": "ym2612"
    },
    {
      "channel": 2,
      "note": 45,
      "start": 14.4577,
      "duration": 0.0853,
      "velocity": 97,
      "chip": "ym2612"
    },
    {
      "channel": 3,
      "note": 81,
      "start": 14.4584,
      "duration": 0.1438,
      "velocity": 99,
      "chip": "ym2612"
    },
    {
      "channel": 4,
      "note": 52,
      "start": 14.459,
      "duration": 0.0845,
      "velocity": 94,
      "chip": "ym2612"
    },
    {
      "channel": 1,
      "note": 61,
      "start": 14.4791,
      "duration": 0.1494,
      "velocity": 102,
      "chip": "ym2612"
    },
    {
      "channel": 2,
      "note": 49,
      "start": 14.5597,
      "duration": 0.0422,
      "velocity": 97,
      "chip": "ym2612"
    },
    {
      "channel": 4,
      "note": 52,
      "start": 14.5607,
      "duration": 0.0184,
      "velocity": 94,
      "chip": "ym2612"
    },
    {
      "channel": 4,
      "note": 52,
      "start": 14.5824,
      "duration": 0.0202,
      "velocity": 94,
      "chip": "ym2612"
    },
    {
      "channel": 0,
      "note": 62,
      "start": 14.6054,
      "duration": 0.7238,
      "velocity": 102,
      "chip": "ym2612"
    },
    {
      "channel": 2,
      "note": 47,
      "start": 14.6065,
      "duration": 0.3553,
      "velocity": 97,
      "chip": "ym2612"
    },
    {
      "channel": 3,
      "note": 76,
      "start": 14.6071,
      "duration": 0.09,
      "velocity": 99,
      "chip": "ym2612"
    },
    {
      "channel": 4,
      "note": 52,
      "start": 14.608,
      "duration": 0.0896,
      "velocity": 94,
      "chip": "ym2612"
    },
    {
      "channel": 1,
      "note": 62,
      "start": 14.632,
      "duration": 0.7339,
      "velocity": 102,
      "chip": "ym2612"
    },
    {
      "channel": 3,
      "note": 78,
      "start": 14.7139,
      "duration": 0.2482,
      "velocity": 99,
      "chip": "ym2612"
    },
    {
      "channel": 4,
      "note": 52,
      "start": 14.7146,
      "duration": 0.1153,
      "velocity": 94,
      "chip": "ym2612"
    },
    {
      "channel": 4,
      "note": 52,
      "start": 14.8468,
      "duration": 0.1157,
      "velocity": 94,
      "chip": "ym2612"
    },
    {
      "channel": 2,
      "note": 47,
      "start": 14.9785,
      "duration": 0.3512,
      "velocity": 97,
      "chip": "ym2612"
    },
    {
      "channel": 3,
      "note": 71,
      "start": 14.9792,
      "duration": 0.086,
      "velocity": 99,
      "chip": "ym2612"
    },
    {
      "channel": 4,
      "note": 52,
      "start": 14.9799,
      "duration": 0.0856,
      "velocity": 94,
      "chip": "ym2612"
    },
    {
      "channel": 3,
      "note": 74,
      "start": 15.0819,
      "duration": 0.2482,
      "velocity": 99,
      "chip": "ym2612"
    },
    {
      "channel": 4,
      "note": 52,
      "start": 15.0825,
      "duration": 0.1153,
      "velocity": 94,
      "chip": "ym2612"
    },
    {
      "channel": 4,
      "note": 52,
      "start": 15.2147,
      "duration": 0.1158,
      "velocity": 94,
      "chip": "ym2612"
    },
    {
      "channel": 0,
      "note": 62,
      "start": 15.3459,
      "duration": 0.0863,
      "velocity": 102,
      "chip": "ym2612"
    },
    {
      "channel": 2,
      "note": 47,
      "start": 15.3467,
      "duration": 0.3509,
      "velocity": 97,
      "chip": "ym2612"
    },
    {
      "channel": 3,
      "note": 78,
      "start": 15.3473,
      "duration": 0.0856,
      "velocity": 99,
      "chip": "ym2612"
    },
    {
      "channel": 4,
      "note": 52,
      "start": 15.348,
      "duration": 0.0853,
      "velocity": 94,
      "chip": "ym2612"
    },
    {
      "channel": 1,
      "note": 62,
      "start": 15.3688,
      "duration": 0.1961,
      "velocity": 102,
      "chip": "ym2612"
    },
    {
      "channel": 0,
      "note": 54,
      "start": 15.449,
      "duration": 0.2481,
      "velocity": 102,
      "chip": "ym2612"
    },
    {
      "channel": 3,
      "note": 81,
      "start": 15.4501,
      "duration": 0.2478,
      "velocity": 99,
      "chip": "ym2612"
    },
    {
      "channel": 4,
      "note": 52,
      "start": 15.4508,
      "duration": 0.115,
      "velocity": 94,
      "chip": "ym2612"
    },
    {
      "channel": 1,
      "note": 54,
      "start": 15.5816,
      "duration": 0.152,
      "velocity": 102,
      "chip": "ym2612"
    },
    {
      "channel": 4,
      "note": 52,
      "start": 15.5828,
      "duration": 0.1154,
      "velocity": 94,
      "chip": "ym2612"
    },
    {
      "channel": 0,
      "note": 56,
      "start": 15.7138,
      "duration": 0.0868,
      "velocity": 102,
      "chip": "ym2612"
    },
    {
      "channel": 2,
      "note": 47,
      "start": 15.7146,
      "duration": 0.0866,
      "velocity": 97,
      "chip": "ym2612"
    },
    {
      "channel": 3,
      "note": 74,
      "start": 15.7152,
      "duration": 0.0863,
      "velocity": 99,
      "chip": "ym2612"
    },
    {
      "channel": 4,
      "note": 52,
      "start": 15.7159,
      "duration": 0.086,
      "velocity": 94,
      "chip": "ym2612"
    },
    {
      "channel": 1,
      "note": 56,
      "start": 15.7364,
      "duration": 0.1006,
      "velocity": 102,
      "chip": "ym2612"
    },
    {
      "channel": 0,
      "note": 57,
      "start": 15.8174,
      "duration": 0.0405,
      "velocity": 102,
      "chip": "ym2612"
    },
    {
      "channel": 2,
      "note": 48,
      "start": 15.8182,
      "duration": 0.0403,
      "velocity": 97,
      "chip": "ym2612"
    },
    {
      "channel": 3,
      "note": 78,
      "start": 15.8188,
      "duration": 0.04,
      "velocity": 99,
      "chip": "ym2612"
    },
    {
      "channel": 4,
      "note": 52,
      "start": 15.8195,
      "duration": 0.0183,
      "velocity": 94,
      "chip": "ym2612"
    },
    {
      "channel": 1,
      "note": 57,
      "start": 15.8399,
      "duration": 0.0413,
      "velocity": 102,
      "chip": "ym2612"
    },
    {
      "channel": 4,
      "note": 52,
      "start": 15.8411,
      "duration": 0.0181,
      "velocity": 94,
      "chip": "ym2612"
    },
    {
      "channel": 0,
      "note": 57,
      "start": 15.8608,
      "duration": 0.3523,
      "velocity": 102,
      "chip": "ym2612"
    },
    {
      "channel": 2,
      "note": 49,
      "start": 15.8616,
      "duration": 0.3521,
      "velocity": 97,
      "chip": "ym2612"
    },
    {
      "channel": 3,
      "note": 81,
      "start": 15.8622,
      "duration": 0.0875,
      "velocity": 99,
      "chip": "ym2612"
    },
    {
      "channel": 4,
      "note": 52,
      "start": 15.863,
      "duration": 0.0871,
      "velocity": 94,
      "chip": "ym2612"
    },
    {
      "channel": 1,
      "note": 57,
      "start": 15.884,
      "duration": 0.3674,
      "velocity": 102,
      "chip": "ym2612"
    },
    {
      "channel": 3,
      "note": 85,
      "start": 15.9666,
      "duration": 0.3517,
      "velocity": 99,
      "chip": "ym2612"
    },
    {
      "channel": 4,
      "note": 52,
      "start": 15.9673,
      "duration": 0.1152,
      "velocity": 94,
      "chip": "ym2612"
    },
    {
      "channel": 4,
      "note": 52,
      "start": 16.0993,
      "duration": 0.115,
      "velocity": 94,
      "chip": "ym2612"
    },
    {
      "channel": 0,
      "note": 59,
      "start": 16.2298,
      "duration": 0.0877,
      "velocity": 102,
      "chip": "ym2612"
    },
    {
      "channel": 2,
      "note": 49,
      "start": 16.2307,
      "duration": 0.3522,
      "velocity": 97,
      "chip": "ym2612"
    },
    {
      "channel": 4,
      "note": 52,
      "start": 16.232,
      "duration": 0.0867,
      "velocity": 94,
      "chip": "ym2612"
    },
    {
      "channel": 1,
      "note": 59,
      "start": 16.2543,
      "duration": 0.1959,
      "velocity": 102,
      "chip": "ym2612"
    },
    {
      "channel": 0,
      "note": 56,
      "start": 16.3343,
      "duration": 0.7199,
      "velocity": 102,
      "chip": "ym2612"
    },
    {
      "channel": 3,
      "note": 77,
      "start": 16.3354,
      "duration": 0.2478,
      "velocity": 99,
      "chip": "ym2612"
    },
    {
      "channel": 4,
      "note": 52,
      "start": 16.336,
      "duration": 0.1151,
      "velocity": 94,
      "chip": "ym2612"
    },
    {
      "channel": 1,
      "note": 56,
      "start": 16.467,
      "duration": 0.1517,
      "velocity": 102,
      "chip": "ym2612"
    },
    {
      "channel": 4,
      "note": 52,
      "start": 16.4682,
      "duration": 0.1154,
      "velocity": 94,
      "chip": "ym2612"
    },
    {
      "channel": 2,
      "note": 49,
      "start": 16.5996,
      "duration": 0.3513,
      "velocity": 97,
      "chip": "ym2612"
    },
    {
      "channel": 3,
      "note": 80,
      "start": 16.6002,
      "duration": 0.0861,
      "velocity": 99,
      "chip": "ym2612"
    },
    {
      "channel": 4,
      "note": 52,
      "start": 16.6009,
      "duration": 0.0857,
      "velocity": 94,
      "chip": "ym2612"
    },
    {
      "channel": 1,
      "note": 56,
      "start": 16.6215,
      "duration": 0.4566,
      "velocity": 102,
      "chip": "ym2612"
    },
    {
      "channel": 3,
      "note": 85,
      "start": 16.7031,
      "duration": 0.2482,
      "velocity": 99,
      "chip": "ym2612"
    },
    {
      "channel": 4,
      "note": 52,
      "start": 16.7038,
      "duration": 0.1153,
      "velocity": 94,
      "chip": "ym2612"
    },
    {
      "channel": 4,
      "note": 52,
      "start": 16.8359,
      "duration": 0.1158,
      "velocity": 94,
      "chip": "ym2612"
    },
    {
      "channel": 2,
      "note": 49,
      "start": 16.9677,
      "duration": 0.0871,
      "velocity": 97,
      "chip": "ym2612"
    },
    {
      "channel": 3,
      "note": 80,
      "start": 16.9683,
      "duration": 0.0406,
      "velocity": 99,
      "chip": "ym2612"
    },
    {
      "channel": 4,
      "note": 52,
      "start": 16.969,
      "duration": 0.0403,
      "velocity": 94,
      "chip": "ym2612"
    },
    {
      "channel": 3,
      "note": 85,
      "start": 17.0133,
      "duration": 0.0419,
      "velocity": 99,
      "chip": "ym2612"
    },
    {
      "channel": 4,
      "note": 52,
      "start": 17.014,
      "duration": 0.0191,
      "velocity": 94,
      "chip": "ym2612"
    },
    {
      "channel": 4,
      "note": 52,
      "start": 17.0365,
      "duration": 0.019,
      "velocity": 94,
      "chip": "ym2612"
    },
    {
      "channel": 0,
      "note": 57,
      "start": 17.0578,
      "duration": 0.02,
      "velocity": 102,
      "chip": "ym2612"
    },
    {
      "channel": 2,
      "note": 42,
      "start": 17.0587,
      "duration": 0.3515,
      "velocity": 97,
      "chip": "ym2612"
    },
    {
      "channel": 3,
      "note": 73,
      "start": 17.0593,
      "duration": 0.0194,
      "velocity": 99,
      "chip": "ym2612"
    },
    {
      "channel": 4,
      "note": 52,
      "start": 17.0601,
      "duration": 0.0853,
      "velocity": 94,
      "chip": "ym2612"
    },
    {
      "channel": 0,
      "note": 56,
      "start": 17.0808,
      "duration": 0.0633,
      "velocity": 102,
      "chip": "ym2612"
    },
    {
      "channel": 1,
      "note": 57,
      "start": 17.0815,
      "duration": 0.063,
      "velocity": 102,
      "chip": "ym2612"
    },
    {
      "channel": 3,
      "note": 78,
      "start": 17.0824,
      "duration": 0.0626,
      "velocity": 99,
      "chip": "ym2612"
    },
    {
      "channel": 0,
      "note": 54,
      "start": 17.161,
      "duration": 0.9893,
      "velocity": 102,
      "chip": "ym2612"
    },
    {
      "channel": 1,
      "note": 56,
      "start": 17.1615,
      "duration": 0.1154,
      "velocity": 102,
      "chip": "ym2612"
    },
    {
      "channel": 3,
      "note": 73,
      "start": 17.1624,
      "duration": 0.1151,
      "velocity": 99,
      "chip": "ym2612"
    },
    {
      "channel": 4,
      "note": 52,
      "start": 17.1631,
      "duration": 0.1148,
      "velocity": 94,
      "chip": "ym2612"
    },
    {
      "channel": 1,
      "note": 54,
      "start": 17.2937,
      "duration": 0.1553,
      "velocity": 102,
      "chip": "ym2612"
    },
    {
      "channel": 3,
      "note": 71,
      "start": 17.2945,
      "duration": 0.1159,
      "velocity": 99,
      "chip": "ym2612"
    },
    {
      "channel": 4,
      "note": 52,
      "start": 17.2952,
      "duration": 0.1156,
      "velocity": 94,
      "chip": "ym2612"
    },
    {
      "channel": 2,
      "note": 42,
      "start": 17.427,
      "duration": 0.3558,
      "velocity": 97,
      "chip": "ym2612"
    },
    {
      "channel": 3,
      "note": 69,
      "start": 17.4276,
      "duration": 0.0226,
      "velocity": 99,
      "chip": "ym2612"
    },
    {
      "channel": 4,
      "note": 52,
      "start": 17.4283,
      "duration": 0.0902,
      "velocity": 94,
      "chip": "ym2612"
    },
    {
      "channel": 1,
      "note": 54,
      "start": 17.4522,
      "duration": 0.7349,
      "velocity": 102,
      "chip": "ym2612"
    },
    {
      "channel": 3,
      "note": 73,
      "start": 17.4538,
      "duration": 0.0643,
      "velocity": 99,
      "chip": "ym2612"
    },
    {
      "channel": 3,
      "note": 71,
      "start": 17.535,
      "duration": 0.1157,
      "velocity": 99,
      "chip": "ym2612"
    },
    {
      "channel": 4,
      "note": 52,
      "start": 17.536,
      "duration": 0.1151,
      "velocity": 94,
      "chip": "ym2612"
    },
    {
      "channel": 3,
      "note": 69,
      "start": 17.6674,
      "duration": 0.1157,
      "velocity": 99,
      "chip": "ym2612"
    },
    {
      "channel": 4,
      "note": 52,
      "start": 17.6681,
      "duration": 0.1154,
      "velocity": 94,
      "chip": "ym2612"
    },
    {
      "channel": 2,
      "note": 42,
      "start": 17.7995,
      "duration": 0.3515,
      "velocity": 97,
      "chip": "ym2612"
    },
    {
      "channel": 3,
      "note": 68,
      "start": 17.8001,
      "duration": 0.0197,
      "velocity": 99,
      "chip": "ym2612"
    },
    {
      "channel": 4,
      "note": 52,
      "start": 17.8008,
      "duration": 0.0858,
      "velocity": 94,
      "chip": "ym2612"
    },
    {
      "channel": 3,
      "note": 66,
      "start": 17.8228,
      "duration": 0.0634,
      "velocity": 99,
      "chip": "ym2612"
    },
    {
      "channel": 3,
      "note": 61,
      "start": 17.903,
      "duration": 0.1156,
      "velocity": 99,
      "chip": "ym2612"
    },
    {
      "channel": 4,
      "note": 52,
      "start": 17.9037,
      "duration": 0.1153,
      "velocity": 94,
      "chip": "ym2612"
    },
    {
      "channel": 3,
      "note": 66,
      "start": 18.0355,
      "duration": 0.1158,
      "velocity": 99,
      "chip": "ym2612"
    },
    {
      "channel": 4,
      "note": 52,
      "start": 18.0362,
      "duration": 0.1154,
      "velocity": 94,
      "chip": "ym2612"
    },
    {
      "channel": 0,
      "note": 54,
      "start": 18.167,
      "duration": 0.0864,
      "velocity": 102,
      "chip": "ym2612"
    },
    {
      "channel": 2,
      "note": 42,
      "start": 18.1678,
      "duration": 0.0861,
      "velocity": 97,
      "chip": "ym2612"
    },
    {
      "channel": 3,
      "note": 68,
      "start": 18.1684,
      "duration": 0.0858,
      "velocity": 99,
      "chip": "ym2612"
    },
    {
      "channel": 4,
      "note": 52,
      "start": 18.1691,
      "duration": 0.0855,
      "velocity": 94,
      "chip": "ym2612"
    },
    {
      "channel": 1,
      "note": 54,
      "start": 18.19,
      "duration": 0.0992,
      "velocity": 102,
      "chip": "ym2612"
    },
    {
      "channel": 0,
      "note": 56,
      "start": 18.2702,
      "duration": 0.0404,
      "velocity": 102,
      "chip": "ym2612"
    },
    {
      "channel": 2,
      "note": 44,
      "start": 18.2709,
      "duration": 0.0402,
      "velocity": 97,
      "chip": "ym2612"
    },
    {
      "channel": 3,
      "note": 69,
      "start": 18.2716,
      "duration": 0.0398,
      "velocity": 99,
      "chip": "ym2612"
    },
    {
      "channel": 4,
      "note": 52,
      "start": 18.2723,
      "duration": 0.0178,
      "velocity": 94,
      "chip": "ym2612"
    },
    {
      "channel": 1,
      "note": 56,
      "start": 18.2921,
      "duration": 0.0422,
      "velocity": 102,
      "chip": "ym2612"
    },
    {
      "channel": 4,
      "note": 52,
      "start": 18.2933,
      "duration": 0.0185,
      "velocity": 94,
      "chip": "ym2612"
    },
    {
      "channel": 0,
      "note": 57,
      "start": 18.3138,
      "duration": 0.3507,
      "velocity": 102,
      "chip": "ym2612"
    },
    {
      "channel": 2,
      "note": 45,
      "start": 18.3146,
      "duration": 0.3505,
      "velocity": 97,
      "chip": "ym2612"
    },
    {
      "channel": 3,
      "note": 71,
      "start": 18.3152,
      "duration": 0.3502,
      "velocity": 99,
      "chip": "ym2612"
    },
    {
      "channel": 4,
      "note": 52,
      "start": 18.316,
      "duration": 0.0847,
      "velocity": 94,
      "chip": "ym2612"
    },
    {
      "channel": 1,
      "note": 57,
      "start": 18.3367,
      "duration": 0.3646,
      "velocity": 102,
      "chip": "ym2612"
    },
    {
      "channel": 4,
      "note": 52,
      "start": 18.4175,
      "duration": 0.1157,
      "velocity": 94,
      "chip": "ym2612"
    },
    {
      "channel": 4,
      "note": 52,
      "start": 18.55,
      "duration": 0.1158,
      "velocity": 94,
      "chip": "ym2612"
    },
    {
      "channel": 0,
      "note": 57,
      "start": 18.6813,
      "duration": 0.3513,
      "velocity": 102,
      "chip": "ym2612"
    },
    {
      "channel": 2,
      "note": 45,
      "start": 18.6821,
      "duration": 0.3511,
      "velocity": 97,
      "chip": "ym2612"
    },
    {
      "channel": 3,
      "note": 73,
      "start": 18.6827,
      "duration": 0.3508,
      "velocity": 99,
      "chip": "ym2612"
    },
    {
      "channel": 4,
      "note": 52,
      "start": 18.6834,
      "duration": 0.0859,
      "velocity": 94,
      "chip": "ym2612"
    },
    {
      "channel": 1,
      "note": 57,
      "start": 18.7043,
      "duration": 0.3684,
      "velocity": 102,
      "chip": "ym2612"
    },
    {
      "channel": 4,
      "note": 52,
      "start": 18.7861,
      "duration": 0.116,
      "velocity": 94,
      "chip": "ym2612"
    },
    {
      "channel": 4,
      "note": 52,
      "start": 18.9189,
      "duration": 0.1155,
      "velocity": 94,
      "chip": "ym2612"
    },
    {
      "channel": 0,
      "note": 64,
      "start": 19.0494,
      "duration": 0.3548,
      "velocity": 102,
      "chip": "ym2612"
    },
    {
      "channel": 2,
      "note": 45,
      "start": 19.0502,
      "duration": 0.3547,
      "velocity": 97,
      "chip": "ym2612"
    },
    {
      "channel": 3,
      "note": 73,
      "start": 19.0515,
      "duration": 0.3537,
      "velocity": 99,
      "chip": "ym2612"
    },
    {
      "channel": 4,
      "note": 52,
      "start": 19.0522,
      "duration": 0.0883,
      "velocity": 94,
      "chip": "ym2612"
    },
    {
      "channel": 1,
      "note": 64,
      "start": 19.0755,
      "duration": 0.3657,
      "velocity": 102,
      "chip": "ym2612"
    },
    {
      "channel": 4,
      "note": 52,
      "start": 19.1573,
      "duration": 0.1157,
      "velocity": 94,
      "chip": "ym2612"
    },
    {
      "channel": 4,
      "note": 52,
      "start": 19.2898,
      "duration": 0.1158,
      "velocity": 94,
      "chip": "ym2612"
    },
    {
      "channel": 0,
      "note": 61,
      "start": 19.421,
      "duration": 0.1429,
      "velocity": 102,
      "chip": "ym2612"
    },
    {
      "channel": 2,
      "note": 45,
      "start": 19.4219,
      "duration": 0.0853,
      "velocity": 97,
      "chip": "ym2612"
    },
    {
      "channel": 3,
      "note": 69,
      "start": 19.4225,
      "duration": 0.1424,
      "velocity": 99,
      "chip": "ym2612"
    },
    {
      "channel": 4,
      "note": 52,
      "start": 19.4232,
      "duration": 0.0846,
      "velocity": 94,
      "chip": "ym2612"
    },
    {
      "channel": 1,
      "note": 61,
      "start": 19.4437,
      "duration": 0.144,
      "velocity": 102,
      "chip": "ym2612"
    },
    {
      "channel": 2,
      "note": 46,
      "start": 19.5239,
      "duration": 0.0407,
      "velocity": 97,
      "chip": "ym2612"
    },
    {
      "channel": 4,
      "note": 52,
      "start": 19.5249,
      "duration": 0.0184,
      "velocity": 94,
      "chip": "ym2612"
    },
    {
      "channel": 4,
      "note": 52,
      "start": 19.5463,
      "duration": 0.019,
      "velocity": 94,
      "chip": "ym2612"
    },
    {
      "channel": 0,
      "note": 59,
      "start": 19.5673,
      "duration": 0.453,
      "velocity": 102,
      "chip": "ym2612"
    },
    {
      "channel": 2,
      "note": 47,
      "start": 19.5681,
      "duration": 0.3493,
      "velocity": 97,
      "chip": "ym2612"
    },
    {
      "channel": 3,
      "note": 64,
      "start": 19.5688,
      "duration": 0.0841,
      "velocity": 99,
      "chip": "ym2612"
    },
    {
      "channel": 4,
      "note": 52,
      "start": 19.5696,
      "duration": 0.0836,
      "velocity": 94,
      "chip": "ym2612"
    },
    {
      "channel": 1,
      "note": 59,
      "start": 19.5907,
      "duration": 0.5623,
      "velocity": 102,
      "chip": "ym2612"
    },
    {
      "channel": 3,
      "note": 66,
      "start": 19.6696,
      "duration": 0.2482,
      "velocity": 99,
      "chip": "ym2612"
    },
    {
      "channel": 4,
      "note": 52,
      "start": 19.6703,
      "duration": 0.1153,
      "velocity": 94,
      "chip": "ym2612"
    },
    {
      "channel": 4,
      "note": 52,
      "start": 19.8024,
      "duration": 0.1157,
      "velocity": 94,
      "chip": "ym2612"
    },
    {
      "channel": 2,
      "note": 47,
      "start": 19.9343,
      "duration": 0.3518,
      "velocity": 97,
      "chip": "ym2612"
    },
    {
      "channel": 3,
      "note": 59,
      "start": 19.9349,
      "duration": 0.0863,
      "velocity": 99,
      "chip": "ym2612"
    },
    {
      "channel": 4,
      "note": 52,
      "start": 19.9356,
      "duration": 0.086,
      "velocity": 94,
      "chip": "ym2612"
    },
    {
      "channel": 0,
      "note": 60,
      "start": 20.0371,
      "duration": 0.2484,
      "velocity": 102,
      "chip": "ym2612"
    },
    {
      "channel": 3,
      "note": 62,
      "start": 20.0382,
      "duration": 0.2482,
      "velocity": 99,
      "chip": "ym2612"
    },
    {
      "channel": 4,
      "note": 52,
      "start": 20.0389,
      "duration": 0.115,
      "velocity": 94,
      "chip": "ym2612"
    },
    {
      "channel": 1,
      "note": 60,
      "start": 20.1698,
      "duration": 0.1545,
      "velocity": 102,
      "chip": "ym2612"
    },
    {
      "channel": 4,
      "note": 52,
      "start": 20.171,
      "duration": 0.1158,
      "velocity": 94,
      "chip": "ym2612"
    },
    {
      "channel": 0,
      "note": 61,
      "start": 20.3023,
      "duration": 0.0904,
      "velocity": 102,
      "chip": "ym2612"
    },
    {
      "channel": 2,
      "note": 49,
      "start": 20.3031,
      "duration": 0.3549,
      "velocity": 97,
      "chip": "ym2612"
    },
    {
      "channel": 3,
      "note": 66,
      "start": 20.3037,
      "duration": 0.0897,
      "velocity": 99,
      "chip": "ym2612"
    },
    {
      "channel": 4,
      "note": 52,
      "start": 20.3044,
      "duration": 0.0898,
      "velocity": 94,
      "chip": "ym2612"
    },
    {
      "channel": 1,
      "note": 61,
      "start": 20.3278,
      "duration": 0.1976,
      "velocity": 102,
      "chip": "ym2612"
    },
    {
      "channel": 0,
      "note": 56,
      "start": 20.4094,
      "duration": 0.2481,
      "velocity": 102,
      "chip": "ym2612"
    },
    {
      "channel": 3,
      "note": 68,
      "start": 20.4112,
      "duration": 0.2471,
      "velocity": 99,
      "chip": "ym2612"
    },
    {
      "channel": 4,
      "note": 52,
      "start": 20.412,
      "duration": 0.1143,
      "velocity": 94,
      "chip": "ym2612"
    },
    {
      "channel": 1,
      "note": 56,
      "start": 20.5421,
      "duration": 0.1526,
      "velocity": 102,
      "chip": "ym2612"
    },
    {
      "channel": 4,
      "note": 52,
      "start": 20.5433,
      "duration": 0.1155,
      "velocity": 94,
      "chip": "ym2612"
    },
    {
      "channel": 0,
      "note": 59,
      "start": 20.6743,
      "duration": 0.0871,
      "velocity": 102,
      "chip": "ym2612"
    },
    {
      "channel": 2,
      "note": 49,
      "start": 20.6751,
      "duration": 0.1427,
      "velocity": 97,
      "chip": "ym2612"
    },
    {
      "channel": 3,
      "note": 61,
      "start": 20.6757,
      "duration": 0.0864,
      "velocity": 99,
      "chip": "ym2612"
    },
    {
      "channel": 4,
      "note": 52,
      "start": 20.6764,
      "duration": 0.0861,
      "velocity": 94,
      "chip": "ym2612"
    },
    {
      "channel": 1,
      "note": 59,
      "start": 20.6975,
      "duration": 0.0998,
      "velocity": 102,
      "chip": "ym2612"
    },
    {
      "channel": 0,
      "note": 57,
      "start": 20.7782,
      "duration": 0.0391,
      "velocity": 102,
      "chip": "ym2612"
    },
    {
      "channel": 3,
      "note": 65,
      "start": 20.7793,
      "duration": 0.0389,
      "velocity": 99,
      "chip": "ym2612"
    },
    {
      "channel": 4,
      "note": 52,
      "start": 20.78,
      "duration": 0.0182,
      "velocity": 94,
      "chip": "ym2612"
    },
    {
      "channel": 1,
      "note": 57,
      "start": 20.8002,
      "duration": 0.04,
      "velocity": 102,
      "chip": "ym2612"
    },
    {
      "channel": 4,
      "note": 52,
      "start": 20.8014,
      "duration": 0.0171,
      "velocity": 94,
      "chip": "ym2612"
    },
    {
      "channel": 0,
      "note": 54,
      "start": 20.8205,
      "duration": 0.551,
      "velocity": 102,
      "chip": "ym2612"
    },
    {
      "channel": 2,
      "note": 42,
      "start": 20.8212,
      "duration": 0.3507,
      "velocity": 97,
      "chip": "ym2612"
    },
    {
      "channel": 3,
      "note": 68,
      "start": 20.8219,
      "duration": 0.0189,
      "velocity": 99,
      "chip": "ym2612"
    },
    {
      "channel": 4,
      "note": 52,
      "start": 20.8227,
      "duration": 0.0849,
      "velocity": 94,
      "chip": "ym2612"
    },
    {
      "channel": 1,
      "note": 54,
      "start": 20.8431,
      "duration": 0.5594,
      "velocity": 102,
      "chip": "ym2612"
    },
    {
      "channel": 3,
      "note": 81,
      "start": 20.8439,
      "duration": 0.0633,
      "velocity": 99,
      "chip": "ym2612"
    },
    {
      "channel": 3,
      "note": 80,
      "start": 20.9241,
      "duration": 0.1156,
      "velocity": 99,
      "chip": "ym2612"
    },
    {
      "channel": 4,
      "note": 52,
      "start": 20.9248,
      "duration": 0.1154,
      "velocity": 94,
      "chip": "ym2612"
    },
    {
      "channel": 3,
      "note": 78,
      "start": 21.0566,
      "duration": 0.1157,
      "velocity": 99,
      "chip": "ym2612"
    },
    {
      "channel": 4,
      "note": 52,
      "start": 21.0573,
      "duration": 0.1154,
      "velocity": 94,
      "chip": "ym2612"
    },
    {
      "channel": 2,
      "note": 42,
      "start": 21.1887,
      "duration": 0.0887,
      "velocity": 97,
      "chip": "ym2612"
    },
    {
      "channel": 3,
      "note": 73,
      "start": 21.1893,
      "duration": 0.019,
      "velocity": 99,
      "chip": "ym2612"
    },
    {
      "channel": 4,
      "note": 52,
      "start": 21.19,
      "duration": 0.0405,
      "velocity": 94,
      "chip": "ym2612"
    },
    {
      "channel": 3,
      "note": 71,
      "start": 21.2112,
      "duration": 0.0188,
      "velocity": 99,
      "chip": "ym2612"
    },
    {
      "channel": 3,
      "note": 73,
      "start": 21.234,
      "duration": 0.0201,
      "velocity": 99,
      "chip": "ym2612"
    },
    {
      "channel": 4,
      "note": 52,
      "start": 21.2347,
      "duration": 0.0198,
      "velocity": 94,
      "chip": "ym2612"
    },
    {
      "channel": 3,
      "note": 69,
      "start": 21.2575,
      "duration": 0.0202,
      "velocity": 99,
      "chip": "ym2612"
    },
    {
      "channel": 4,
      "note": 52,
      "start": 21.2581,
      "duration": 0.0199,
      "velocity": 94,
      "chip": "ym2612"
    },
    {
      "channel": 2,
      "note": 42,
      "start": 21.2804,
      "duration": 0.0917,
      "velocity": 97,
      "chip": "ym2612"
    },
    {
      "channel": 3,
      "note": 71,
      "start": 21.281,
      "duration": 0.0187,
      "velocity": 99,
      "chip": "ym2612"
    },
    {
      "channel": 4,
      "note": 52,
      "start": 21.2817,
      "duration": 0.0403,
      "velocity": 94,
      "chip": "ym2612"
    },
    {
      "channel": 3,
      "note": 68,
      "start": 21.3026,
      "duration": 0.019,
      "velocity": 99,
      "chip": "ym2612"
    },
    {
      "channel": 3,
      "note": 69,
      "start": 21.3261,
      "duration": 0.021,
      "velocity": 99,
      "chip": "ym2612"
    },
    {
      "channel": 4,
      "note": 52,
      "start": 21.3268,
      "duration": 0.0208,
      "velocity": 94,
      "chip": "ym2612"
    },
    {
      "channel": 3,
      "note": 66,
      "start": 21.3506,
      "duration": 0.0222,
      "velocity": 99,
      "chip": "ym2612"
    },
    {
      "channel": 4,
      "note": 52,
      "start": 21.3513,
      "duration": 0.0222,
      "velocity": 94,
      "chip": "ym2612"
    },
    {
      "channel": 0,
      "note": 61,
      "start": 21.3798,
      "duration": 0.0959,
      "velocity": 106,
      "chip": "ym2612"
    },
    {
      "channel": 2,
      "note": 40,
      "start": 21.3806,
      "duration": 0.0958,
      "velocity": 97,
      "chip": "ym2612"
    },
    {
      "channel": 3,
      "note": 68,
      "start": 21.3812,
      "duration": 0.0219,
      "velocity": 99,
      "chip": "ym2612"
    },
    {
      "channel": 4,
      "note": 52,
      "start": 21.3819,
      "duration": 0.0215,
      "velocity": 94,
      "chip": "ym2612"
    },
    {
      "channel": 1,
      "note": 61,
      "start": 21.41,
      "duration": 0.0661,
      "velocity": 106,
      "chip": "ym2612"
    },
    {
      "channel": 3,
      "note": 69,
      "start": 21.4108,
      "duration": 0.0196,
      "velocity": 99,
      "chip": "ym2612"
    },
    {
      "channel": 4,
      "note": 52,
      "start": 21.4115,
      "duration": 0.0411,
      "velocity": 94,
      "chip": "ym2612"
    },
    {
      "channel": 3,
      "note": 71,
      "start": 21.4334,
      "duration": 0.0189,
      "velocity": 99,
      "chip": "ym2612"
    },
    {
      "channel": 3,
      "note": 73,
      "start": 21.4564,
      "duration": 0.0203,
      "velocity": 99,
      "chip": "ym2612"
    },
    {
      "channel": 4,
      "note": 52,
      "start": 21.4571,
      "duration": 0.0199,
      "velocity": 94,
      "chip": "ym2612"
    },
    {
      "channel": 0,
      "note": 66,
      "start": 21.4789,
      "duration": 0.4936,
      "velocity": 106,
      "chip": "ym2612"
    },
    {
      "channel": 1,
      "note": 62,
      "start": 21.4794,
      "duration": 0.4934,
      "velocity": 106,
      "chip": "ym2612"
    },
    {
      "channel": 2,
      "note": 38,
      "start": 21.48,
      "duration": 0.351,
      "velocity": 97,
      "chip": "ym2612"
    },
    {
      "channel": 3,
      "note": 76,
      "start": 21.4806,
      "duration": 0.0201,
      "velocity": 99,
      "chip": "ym2612"
    },
    {
      "channel": 4,
      "note": 52,
      "start": 21.4814,
      "duration": 0.0853,
      "velocity": 94,
      "chip": "ym2612"
    },
    {
      "channel": 3,
      "note": 78,
      "start": 21.5033,
      "duration": 0.063,
      "velocity": 99,
      "chip": "ym2612"
    },
    {
      "channel": 3,
      "note": 77,
      "start": 21.5832,
      "duration": 0.3044,
      "velocity": 99,
      "chip": "ym2612"
    },
    {
      "channel": 4,
      "note": 52,
      "start": 21.5839,
      "duration": 0.1153,
      "velocity": 94,
      "chip": "ym2612"
    },
    {
      "channel": 4,
      "note": 52,
      "start": 21.716,
      "duration": 0.1156,
      "velocity": 94,
      "chip": "ym2612"
    },
    {
      "channel": 2,
      "note": 38,
      "start": 21.8477,
      "duration": 0.1254,
      "velocity": 97,
      "chip": "ym2612"
    },
    {
      "channel": 4,
      "note": 52,
      "start": 21.8487,
      "duration": 0.0393,
      "velocity": 94,
      "chip": "ym2612"
    },
    {
      "channel": 3,
      "note": 78,
      "start": 21.8907,
      "duration": 0.1859,
      "velocity": 99,
      "chip": "ym2612"
    },
    {
      "channel": 4,
      "note": 52,
      "start": 21.8914,
      "duration": 0.019,
      "velocity": 94,
      "chip": "ym2612"
    },
    {
      "channel": 4,
      "note": 52,
      "start": 21.9135,
      "duration": 0.0603,
      "velocity": 94,
      "chip": "ym2612"
    },
    {
      "channel": 0,
      "note": 66,
      "start": 21.9893,
      "duration": 0.0865,
      "velocity": 106,
      "chip": "ym2612"
    },
    {
      "channel": 1,
      "note": 62,
      "start": 21.9898,
      "duration": 0.0862,
      "velocity": 106,
      "chip": "ym2612"
    },
    {
      "channel": 2,
      "note": 38,
      "start": 21.9903,
      "duration": 0.3508,
      "velocity": 97,
      "chip": "ym2612"
    },
    {
      "channel": 4,
      "note": 52,
      "start": 21.9912,
      "duration": 0.0857,
      "velocity": 94,
      "chip": "ym2612"
    },
    {
      "channel": 0,
      "note": 68,
      "start": 22.0925,
      "duration": 0.2481,
      "velocity": 106,
      "chip": "ym2612"
    },
    {
      "channel": 1,
      "note": 64,
      "start": 22.0931,
      "duration": 0.2478,
      "velocity": 106,
      "chip": "ym2612"
    },
    {
      "channel": 3,
      "note": 69,
      "start": 22.0939,
      "duration": 0.3088,
      "velocity": 99,
      "chip": "ym2612"
    },
    {
      "channel": 4,
      "note": 52,
      "start": 22.0946,
      "duration": 0.1146,
      "velocity": 94,
      "chip": "ym2612"
    },
    {
      "channel": 4,
      "note": 52,
      "start": 22.2261,
      "duration": 0.1158,
      "velocity": 94,
      "chip": "ym2612"
    },
    {
      "channel": 0,
      "note": 69,
      "start": 22.3574,
      "duration": 0.0437,
      "velocity": 106,
      "chip": "ym2612"
    },
    {
      "channel": 1,
      "note": 66,
      "start": 22.3579,
      "duration": 0.0436,
      "velocity": 106,
      "chip": "ym2612"
    },
    {
      "channel": 2,
      "note": 38,
      "start": 22.3585,
      "duration": 0.1348,
      "velocity": 97,
      "chip": "ym2612"
    },
    {
      "channel": 4,
      "note": 52,
      "start": 22.3594,
      "duration": 0.0437,
      "velocity": 94,
      "chip": "ym2612"
    },
    {
      "channel": 0,
      "note": 71,
      "start": 22.4046,
      "duration": 0.0882,
      "velocity": 106,
      "chip": "ym2612"
    },
    {
      "channel": 1,
      "note": 68,
      "start": 22.4054,
      "duration": 0.0877,
      "velocity": 106,
      "chip": "ym2612"
    },
    {
      "channel": 3,
      "note": 73,
      "start": 22.4067,
      "duration": 0.087,
      "velocity": 99,
      "chip": "ym2612"
    },
    {
      "channel": 4,
      "note": 52,
      "start": 22.4074,
      "duration": 0.0202,
      "velocity": 94,
      "chip": "ym2612"
    },
    {
      "channel": 4,
      "note": 52,
      "start": 22.431,
      "duration": 0.0631,
      "velocity": 94,
      "chip": "ym2612"
    },
    {
      "channel": 0,
      "note": 68,
      "start": 22.5096,
      "duration": 0.352,
      "velocity": 106,
      "chip": "ym2612"
    },
    {
      "channel": 1,
      "note": 59,
      "start": 22.5101,
      "duration": 0.3518,
      "velocity": 106,
      "chip": "ym2612"
    },
    {
      "channel": 2,
      "note": 40,
      "start": 22.5107,
      "duration": 0.3515,
      "velocity": 97,
      "chip": "ym2612"
    },
    {
      "channel": 3,
      "note": 78,
      "start": 22.5113,
      "duration": 0.3513,
      "velocity": 99,
      "chip": "ym2612"
    },
    {
      "channel": 4,
      "note": 52,
      "start": 22.5127,
      "duration": 0.085,
      "velocity": 94,
      "chip": "ym2612"
    },
    {
      "channel": 4,
      "note": 52,
      "start": 22.6146,
      "duration": 0.1157,
      "velocity": 94,
      "chip": "ym2612"
    },
    {
      "channel": 4,
      "note": 52,
      "start": 22.7471,
      "duration": 0.1159,
      "velocity": 94,
      "chip": "ym2612"
    },
    {
      "channel": 0,
      "note": 69,
      "start": 22.8783,
      "duration": 0.1237,
      "velocity": 106,
      "chip": "ym2612"
    },
    {
      "channel": 1,
      "note": 61,
      "start": 22.8789,
      "duration": 0.1234,
      "velocity": 106,
      "chip": "ym2612"
    },
    {
      "channel": 2,
      "note": 40,
      "start": 22.8794,
      "duration": 0.1233,
      "velocity": 97,
      "chip": "ym2612"
    },
    {
      "channel": 3,
      "note": 76,
      "start": 22.88,
      "duration": 0.1229,
      "velocity": 99,
      "chip": "ym2612"
    },
    {
      "channel": 4,
      "note": 52,
      "start": 22.8807,
      "duration": 0.0363,
      "velocity": 94,
      "chip": "ym2612"
    },
    {
      "channel": 4,
      "note": 52,
      "start": 22.92,
      "duration": 0.019,
      "velocity": 94,
      "chip": "ym2612"
    },
    {
      "channel": 4,
      "note": 52,
      "start": 22.942,
      "duration": 0.0615,
      "velocity": 94,
      "chip": "ym2612"
    },
    {
      "channel": 0,
      "note": 71,
      "start": 23.0188,
      "duration": 0.3508,
      "velocity": 106,
      "chip": "ym2612"
    },
    {
      "channel": 1,
      "note": 62,
      "start": 23.0193,
      "duration": 0.3506,
      "velocity": 106,
      "chip": "ym2612"
    },
    {
      "channel": 2,
      "note": 40,
      "start": 23.0198,
      "duration": 0.3504,
      "velocity": 97,
      "chip": "ym2612"
    },
    {
      "channel": 3,
      "note": 78,
      "start": 23.0205,
      "duration": 0.3501,
      "velocity": 99,
      "chip": "ym2612"
    },
    {
      "channel": 4,
      "note": 52,
      "start": 23.0212,
      "duration": 0.0846,
      "velocity": 94,
      "chip": "ym2612"
    },
    {
      "channel": 4,
      "note": 52,
      "start": 23.1226,
      "duration": 0.1157,
      "velocity": 94,
      "chip": "ym2612"
    },
    {
      "channel": 4,
      "note": 52,
      "start": 23.2551,
      "duration": 0.1159,
      "velocity": 94,
      "chip": "ym2612"
    },
    {
      "channel": 0,
      "note": 68,
      "start": 23.3863,
      "duration": 0.1279,
      "velocity": 106,
      "chip": "ym2612"
    },
    {
      "channel": 1,
      "note": 59,
      "start": 23.3869,
      "duration": 0.1277,
      "velocity": 106,
      "chip": "ym2612"
    },
    {
      "channel": 2,
      "note": 40,
      "start": 23.3874,
      "duration": 0.1281,
      "velocity": 97,
      "chip": "ym2612"
    },
    {
      "channel": 3,
      "note": 80,
      "start": 23.388,
      "duration": 0.1279,
      "velocity": 99,
      "chip": "ym2612"
    },
    {
      "channel": 4,
      "note": 52,
      "start": 23.3887,
      "duration": 0.0385,
      "velocity": 94,
      "chip": "ym2612"
    },
    {
      "channel": 4,
      "note": 52,
      "start": 23.4302,
      "duration": 0.0192,
      "velocity": 94,
      "chip": "ym2612"
    },
    {
      "channel": 4,
      "note": 52,
      "start": 23.4527,
      "duration": 0.0637,
      "velocity": 94,
      "chip": "ym2612"
    },
    {
      "channel": 0,
      "note": 73,
      "start": 23.531,
      "duration": 0.3564,
      "velocity": 106,
      "chip": "ym2612"
    },
    {
      "channel": 1,
      "note": 64,
      "start": 23.5322,
      "duration": 0.3555,
      "velocity": 106,
      "chip": "ym2612"
    },
    {
      "channel": 2,
      "note": 45,
      "start": 23.5328,
      "duration": 0.3552,
      "velocity": 97,
      "chip": "ym2612"
    },
    {
      "channel": 3,
      "note": 76,
      "start": 23.5335,
      "duration": 0.3549,
      "velocity": 99,
      "chip": "ym2612"
    },
    {
      "channel": 4,
      "note": 52,
      "start": 23.5343,
      "duration": 0.0893,
      "velocity": 94,
      "chip": "ym2612"
    },
    {
      "channel": 4,
      "note": 52,
      "start": 23.6404,
      "duration": 0.1158,
      "velocity": 94,
      "chip": "ym2612"
    },
    {
      "channel": 4,
      "note": 52,
      "start": 23.773,
      "duration": 0.1158,
      "velocity": 94,
      "chip": "ym2612"
    },
    {
      "channel": 0,
      "note": 74,
      "start": 23.9042,
      "duration": 0.1251,
      "velocity": 106,
      "chip": "ym2612"
    },
    {
      "channel": 1,
      "note": 69,
      "start": 23.9047,
      "duration": 0.1249,
      "velocity": 106,
      "chip": "ym2612"
    },
    {
      "channel": 2,
      "note": 45,
      "start": 23.9053,
      "duration": 0.1247,
      "velocity": 97,
      "chip": "ym2612"
    },
    {
      "channel": 3,
      "note": 81,
      "start": 23.9059,
      "duration": 0.1244,
      "velocity": 99,
      "chip": "ym2612"
    },
    {
      "channel": 4,
      "note": 52,
      "start": 23.9066,
      "duration": 0.0383,
      "velocity": 94,
      "chip": "ym2612"
    },
    {
      "channel": 4,
      "note": 52,
      "start": 23.9476,
      "duration": 0.0185,
      "velocity": 94,
      "chip": "ym2612"
    },
    {
      "channel": 4,
      "note": 52,
      "start": 23.9692,
      "duration": 0.0615,
      "velocity": 94,
      "chip": "ym2612"
    },
    {
      "channel": 0,
      "note": 76,
      "start": 24.0461,
      "duration": 0.3509,
      "velocity": 106,
      "chip": "ym2612"
    },
    {
      "channel": 1,
      "note": 71,
      "start": 24.0466,
      "duration": 0.3507,
      "velocity": 106,
      "chip": "ym2612"
    },
    {
      "channel": 2,
      "note": 44,
      "start": 24.0472,
      "duration": 0.3505,
      "velocity": 97,
      "chip": "ym2612"
    },
    {
      "channel": 3,
      "note": 76,
      "start": 24.0478,
      "duration": 0.3501,
      "velocity": 99,
      "chip": "ym2612"
    },
    {
      "channel": 4,
      "note": 52,
      "start": 24.0485,
      "duration": 0.0847,
      "velocity": 94,
      "chip": "ym2612"
    },
    {
      "channel": 4,
      "note": 52,
      "start": 24.15,
      "duration": 0.1158,
      "velocity": 94,
      "chip": "ym2612"
    },
    {
      "channel": 4,
      "note": 52,
      "start": 24.2826,
      "duration": 0.1158,
      "velocity": 94,
      "chip": "ym2612"
    },
    {
      "channel": 0,
      "note": 68,
      "start": 24.4138,
      "duration": 0.1236,
      "velocity": 106,
      "chip": "ym2612"
    },
    {
      "channel": 1,
      "note": 65,
      "start": 24.4143,
      "duration": 0.1234,
      "velocity": 106,
      "chip": "ym2612"
    },
    {
      "channel": 2,
      "note": 44,
      "start": 24.4148,
      "duration": 0.1232,
      "velocity": 97,
      "chip": "ym2612"
    },
    {
      "channel": 3,
      "note": 80,
      "start": 24.4155,
      "duration": 0.1229,
      "velocity": 99,
      "chip": "ym2612"
    },
    {
      "channel": 4,
      "note": 52,
      "start": 24.4162,
      "duration": 0.0377,
      "velocity": 94,
      "chip": "ym2612"
    },
    {
      "channel": 4,
      "note": 52,
      "start": 24.4568,
      "duration": 0.0184,
      "velocity": 94,
      "chip": "ym2612"
    },
    {
      "channel": 4,
      "note": 52,
      "start": 24.478,
      "duration": 0.0607,
      "velocity": 94,
      "chip": "ym2612"
    },
    {
      "channel": 0,
      "note": 69,
      "start": 24.5541,
      "duration": 0.353,
      "velocity": 106,
      "chip": "ym2612"
    },
    {
      "channel": 1,
      "note": 66,
      "start": 24.5547,
      "duration": 0.3527,
      "velocity": 106,
      "chip": "ym2612"
    },
    {
      "channel": 2,
      "note": 42,
      "start": 24.5552,
      "duration": 0.3525,
      "velocity": 97,
      "chip": "ym2612"
    },
    {
      "channel": 3,
      "note": 77,
      "start": 24.5558,
      "duration": 0.3522,
      "velocity": 99,
      "chip": "ym2612"
    },
    {
      "channel": 4,
      "note": 52,
      "start": 24.5566,
      "duration": 0.0873,
      "velocity": 94,
      "chip": "ym2612"
    },
    {
      "channel": 4,
      "note": 52,
      "start": 24.6608,
      "duration": 0.1154,
      "velocity": 94,
      "chip": "ym2612"
    },
    {
      "channel": 4,
      "note": 52,
      "start": 24.7933,
      "duration": 0.1151,
      "velocity": 94,
      "chip": "ym2612"
    },
    {
      "channel": 0,
      "note": 68,
      "start": 24.9237,
      "duration": 0.1248,
      "velocity": 106,
      "chip": "ym2612"
    },
    {
      "channel": 1,
      "note": 57,
      "start": 24.9243,
      "duration": 0.1246,
      "velocity": 106,
      "chip": "ym2612"
    },
    {
      "channel": 2,
      "note": 42,
      "start": 24.9248,
      "duration": 0.1244,
      "velocity": 97,
      "chip": "ym2612"
    },
    {
      "channel": 3,
      "note": 78,
      "start": 24.9255,
      "duration": 0.1241,
      "velocity": 99,
      "chip": "ym2612"
    },
    {
      "channel": 4,
      "note": 52,
      "start": 24.9269,
      "duration": 0.038,
      "velocity": 94,
      "chip": "ym2612"
    },
    {
      "channel": 4,
      "note": 52,
      "start": 24.968,
      "duration": 0.0181,
      "velocity": 94,
      "chip": "ym2612"
    },
    {
      "channel": 4,
      "note": 52,
      "start": 24.9892,
      "duration": 0.0608,
      "velocity": 94,
      "chip": "ym2612"
    },
    {
      "channel": 0,
      "note": 66,
      "start": 25.0653,
      "duration": 0.087,
      "velocity": 106,
      "chip": "ym2612"
    },
    {
      "channel": 1,
      "note": 57,
      "start": 25.0659,
      "duration": 0.0867,
      "velocity": 106,
      "chip": "ym2612"
    },
    {
      "channel": 2,
      "note": 40,
      "start": 25.0664,
      "duration": 0.0865,
      "velocity": 97,
      "chip": "ym2612"
    },
    {
      "channel": 3,
      "note": 73,
      "start": 25.067,
      "duration": 0.0862,
      "velocity": 99,
      "chip": "ym2612"
    },
    {
      "channel": 4,
      "note": 52,
      "start": 25.0677,
      "duration": 0.0386,
      "velocity": 94,
      "chip": "ym2612"
    },
    {
      "channel": 4,
      "note": 52,
      "start": 25.1099,
      "duration": 0.0193,
      "velocity": 94,
      "chip": "ym2612"
    },
    {
      "channel": 4,
      "note": 52,
      "start": 25.1334,
      "duration": 0.0202,
      "velocity": 94,
      "chip": "ym2612"
    },
    {
      "channel": 0,
      "note": 61,
      "start": 25.156,
      "duration": 0.0871,
      "velocity": 106,
      "chip": "ym2612"
    },
    {
      "channel": 1,
      "note": 57,
      "start": 25.1565,
      "duration": 0.0868,
      "velocity": 106,
      "chip": "ym2612"
    },
    {
      "channel": 2,
      "note": 40,
      "start": 25.1571,
      "duration": 0.0866,
      "velocity": 97,
      "chip": "ym2612"
    },
    {
      "channel": 3,
      "note": 74,
      "start": 25.1577,
      "duration": 0.0863,
      "velocity": 99,
      "chip": "ym2612"
    },
    {
      "channel": 4,
      "note": 52,
      "start": 25.1584,
      "duration": 0.039,
      "velocity": 94,
      "chip": "ym2612"
    },
    {
      "channel": 4,
      "note": 52,
      "start": 25.2009,
      "duration": 0.0196,
      "velocity": 94,
      "chip": "ym2612"
    },
    {
      "channel": 4,
      "note": 52,
      "start": 25.2249,
      "duration": 0.0195,
      "velocity": 94,
      "chip": "ym2612"
    },
    {
      "channel": 0,
      "note": 62,
      "start": 25.2466,
      "duration": 0.501,
      "velocity": 106,
      "chip": "ym2612"
    },
    {
      "channel": 1,
      "note": 57,
      "start": 25.2471,
      "duration": 0.5007,
      "velocity": 106,
      "chip": "ym2612"
    },
    {
      "channel": 2,
      "note": 38,
      "start": 25.2477,
      "duration": 0.3506,
      "velocity": 97,
      "chip": "ym2612"
    },
    {
      "channel": 3,
      "note": 76,
      "start": 25.2483,
      "duration": 0.0188,
      "velocity": 99,
      "chip": "ym2612"
    },
    {
      "channel": 4,
      "note": 52,
      "start": 25.2491,
      "duration": 0.0842,
      "velocity": 94,
      "chip": "ym2612"
    },
    {
      "channel": 3,
      "note": 78,
      "start": 25.2702,
      "duration": 0.0628,
      "velocity": 99,
      "chip": "ym2612"
    },
    {
      "channel": 3,
      "note": 77,
      "start": 25.3497,
      "duration": 0.3116,
      "velocity": 99,
      "chip": "ym2612"
    },
    {
      "channel": 4,
      "note": 52,
      "start": 25.3504,
      "duration": 0.1155,
      "velocity": 94,
      "chip": "ym2612"
    },
    {
      "channel": 4,
      "note": 52,
      "start": 25.4829,
      "duration": 0.116,
      "velocity": 94,
      "chip": "ym2612"
    },
    {
      "channel": 2,
      "note": 38,
      "start": 25.6151,
      "duration": 0.1331,
      "velocity": 97,
      "chip": "ym2612"
    },
    {
      "channel": 4,
      "note": 52,
      "start": 25.616,
      "duration": 0.0457,
      "velocity": 94,
      "chip": "ym2612"
    },
    {
      "channel": 3,
      "note": 78,
      "start": 25.6648,
      "duration": 0.188,
      "velocity": 99,
      "chip": "ym2612"
    },
    {
      "channel": 4,
      "note": 52,
      "start": 25.6655,
      "duration": 0.0201,
      "velocity": 94,
      "chip": "ym2612"
    },
    {
      "channel": 4,
      "note": 52,
      "start": 25.6887,
      "duration": 0.0602,
      "velocity": 94,
      "chip": "ym2612"
    },
    {
      "channel": 0,
      "note": 62,
      "start": 25.7644,
      "duration": 0.0876,
      "velocity": 106,
      "chip": "ym2612"
    },
    {
      "channel": 1,
      "note": 57,
      "start": 25.7649,
      "duration": 0.0874,
      "velocity": 106,
      "chip": "ym2612"
    },
    {
      "channel": 2,
      "note": 38,
      "start": 25.7654,
      "duration": 0.3519,
      "velocity": 97,
      "chip": "ym2612"
    },
    {
      "channel": 4,
      "note": 52,
      "start": 25.7663,
      "duration": 0.0868,
      "velocity": 94,
      "chip": "ym2612"
    },
    {
      "channel": 0,
      "note": 59,
      "start": 25.8687,
      "duration": 0.2481,
      "velocity": 106,
      "chip": "ym2612"
    },
    {
      "channel": 1,
      "note": 68,
      "start": 25.8692,
      "duration": 0.2478,
      "velocity": 106,
      "chip": "ym2612"
    },
    {
      "channel": 3,
      "note": 69,
      "start": 25.8701,
      "duration": 0.3021,
      "velocity": 99,
      "chip": "ym2612"
    },
    {
      "channel": 4,
      "note": 52,
      "start": 25.8708,
      "duration": 0.1146,
      "velocity": 94,
      "chip": "ym2612"
    },
    {
      "channel": 4,
      "note": 52,
      "start": 26.0022,
      "duration": 0.1158,
      "velocity": 94,
      "chip": "ym2612"
    },
    {
      "channel": 0,
      "note": 61,
      "start": 26.1335,
      "duration": 0.0378,
      "velocity": 106,
      "chip": "ym2612"
    },
    {
      "channel": 1,
      "note": 57,
      "start": 26.1341,
      "duration": 0.0376,
      "velocity": 106,
      "chip": "ym2612"
    },
    {
      "channel": 2,
      "note": 38,
      "start": 26.1346,
      "duration": 0.1233,
      "velocity": 97,
      "chip": "ym2612"
    },
    {
      "channel": 4,
      "note": 52,
      "start": 26.1356,
      "duration": 0.0371,
      "velocity": 94,
      "chip": "ym2612"
    },
    {
      "channel": 0,
      "note": 62,
      "start": 26.1744,
      "duration": 0.0829,
      "velocity": 106,
      "chip": "ym2612"
    },
    {
      "channel": 1,
      "note": 59,
      "start": 26.175,
      "duration": 0.0827,
      "velocity": 106,
      "chip": "ym2612"
    },
    {
      "channel": 3,
      "note": 73,
      "start": 26.1759,
      "duration": 0.0824,
      "velocity": 99,
      "chip": "ym2612"
    },
    {
      "channel": 4,
      "note": 52,
      "start": 26.1766,
      "duration": 0.018,
      "velocity": 94,
      "chip": "ym2612"
    },
    {
      "channel": 4,
      "note": 52,
      "start": 26.1975,
      "duration": 0.0611,
      "velocity": 94,
      "chip": "ym2612"
    },
    {
      "channel": 0,
      "note": 66,
      "start": 26.274,
      "duration": 0.3514,
      "velocity": 106,
      "chip": "ym2612"
    },
    {
      "channel": 1,
      "note": 62,
      "start": 26.2746,
      "duration": 0.3512,
      "velocity": 106,
      "chip": "ym2612"
    },
    {
      "channel": 2,
      "note": 47,
      "start": 26.2751,
      "duration": 0.351,
      "velocity": 97,
      "chip": "ym2612"
    },
    {
      "channel": 3,
      "note": 78,
      "start": 26.2758,
      "duration": 0.3506,
      "velocity": 99,
      "chip": "ym2612"
    },
    {
      "channel": 4,
      "note": 52,
      "start": 26.2766,
      "duration": 0.0851,
      "velocity": 94,
      "chip": "ym2612"
    },
    {
      "channel": 4,
      "note": 52,
      "start": 26.3784,
      "duration": 0.1157,
      "velocity": 94,
      "chip": "ym2612"
    },
    {
      "channel": 4,
      "note": 52,
      "start": 26.511,
      "duration": 0.1158,
      "velocity": 94,
      "chip": "ym2612"
    },
    {
      "channel": 0,
      "note": 66,
      "start": 26.6422,
      "duration": 0.1315,
      "velocity": 106,
      "chip": "ym2612"
    },
    {
      "channel": 1,
      "note": 62,
      "start": 26.6427,
      "duration": 0.1312,
      "velocity": 106,
      "chip": "ym2612"
    },
    {
      "channel": 2,
      "note": 47,
      "start": 26.6432,
      "duration": 0.131,
      "velocity": 97,
      "chip": "ym2612"
    },
    {
      "channel": 3,
      "note": 83,
      "start": 26.6439,
      "duration": 0.1307,
      "velocity": 99,
      "chip": "ym2612"
    },
    {
      "channel": 4,
      "note": 52,
      "start": 26.6446,
      "duration": 0.0396,
      "velocity": 94,
      "chip": "ym2612"
    },
    {
      "channel": 4,
      "note": 52,
      "start": 26.6871,
      "duration": 0.0215,
      "velocity": 94,
      "chip": "ym2612"
    },
    {
      "channel": 4,
      "note": 52,
      "start": 26.7119,
      "duration": 0.0631,
      "velocity": 94,
      "chip": "ym2612"
    },
    {
      "channel": 0,
      "note": 68,
      "start": 26.7903,
      "duration": 0.3521,
      "velocity": 106,
      "chip": "ym2612"
    },
    {
      "channel": 1,
      "note": 63,
      "start": 26.7909,
      "duration": 0.3519,
      "velocity": 106,
      "chip": "ym2612"
    },
    {
      "channel": 2,
      "note": 48,
      "start": 26.7914,
      "duration": 0.3517,
      "velocity": 97,
      "chip": "ym2612"
    },
    {
      "channel": 3,
      "note": 81,
      "start": 26.7927,
      "duration": 0.3507,
      "velocity": 99,
      "chip": "ym2612"
    },
    {
      "channel": 4,
      "note": 52,
      "start": 26.7934,
      "duration": 0.0852,
      "velocity": 94,
      "chip": "ym2612"
    },
    {
      "channel": 4,
      "note": 52,
      "start": 26.8954,
      "duration": 0.1157,
      "velocity": 94,
      "chip": "ym2612"
    },
    {
      "channel": 4,
      "note": 52,
      "start": 27.028,
      "duration": 0.1159,
      "velocity": 94,
      "chip": "ym2612"
    },
    {
      "channel": 0,
      "note": 69,
      "start": 27.1592,
      "duration": 0.123,
      "velocity": 106,
      "chip": "ym2612"
    },
    {
      "channel": 1,
      "note": 66,
      "start": 27.1598,
      "duration": 0.1228,
      "velocity": 106,
      "chip": "ym2612"
    },
    {
      "channel": 2,
      "note": 48,
      "start": 27.1602,
      "duration": 0.1226,
      "velocity": 97,
      "chip": "ym2612"
    },
    {
      "channel": 3,
      "note": 80,
      "start": 27.1609,
      "duration": 0.1223,
      "velocity": 99,
      "chip": "ym2612"
    },
    {
      "channel": 4,
      "note": 52,
      "start": 27.1616,
      "duration": 0.0378,
      "velocity": 94,
      "chip": "ym2612"
    },
    {
      "channel": 4,
      "note": 52,
      "start": 27.2019,
      "duration": 0.0179,
      "velocity": 94,
      "chip": "ym2612"
    },
    {
      "channel": 4,
      "note": 52,
      "start": 27.2228,
      "duration": 0.0608,
      "velocity": 94,
      "chip": "ym2612"
    },
    {
      "channel": 0,
      "note": 68,
      "start": 27.299,
      "duration": 0.8652,
      "velocity": 106,
      "chip": "ym2612"
    },
    {
      "channel": 1,
      "note": 65,
      "start": 27.2995,
      "duration": 0.865,
      "velocity": 106,
      "chip": "ym2612"
    },
    {
      "channel": 2,
      "note": 49,
      "start": 27.3001,
      "duration": 0.3502,
      "velocity": 97,
      "chip": "ym2612"
    },
    {
      "channel": 3,
      "note": 78,
      "start": 27.3007,
      "duration": 0.0849,
      "velocity": 99,
      "chip": "ym2612"
    },
    {
      "channel": 4,
      "note": 52,
      "start": 27.3016,
      "duration": 0.0844,
      "velocity": 94,
      "chip": "ym2612"
    },
    {
      "channel": 3,
      "note": 77,
      "start": 27.4024,
      "duration": 0.2482,
      "velocity": 99,
      "chip": "ym2612"
    },
    {
      "channel": 4,
      "note": 52,
      "start": 27.4031,
      "duration": 0.1153,
      "velocity": 94,
      "chip": "ym2612"
    },
    {
      "channel": 4,
      "note": 52,
      "start": 27.5353,
      "duration": 0.1157,
      "velocity": 94,
      "chip": "ym2612"
    },
    {
      "channel": 2,
      "note": 49,
      "start": 27.6671,
      "duration": 0.1259,
      "velocity": 97,
      "chip": "ym2612"
    },
    {
      "channel": 3,
      "note": 73,
      "start": 27.6677,
      "duration": 0.0405,
      "velocity": 99,
      "chip": "ym2612"
    },
    {
      "channel": 4,
      "note": 52,
      "start": 27.6684,
      "duration": 0.0402,
      "velocity": 94,
      "chip": "ym2612"
    },
    {
      "channel": 3,
      "note": 80,
      "start": 27.7112,
      "duration": 0.0821,
      "velocity": 99,
      "chip": "ym2612"
    },
    {
      "channel": 4,
      "note": 52,
      "start": 27.712,
      "duration": 0.0188,
      "velocity": 94,
      "chip": "ym2612"
    },
    {
      "channel": 4,
      "note": 52,
      "start": 27.7338,
      "duration": 0.0599,
      "velocity": 94,
      "chip": "ym2612"
    },
    {
      "channel": 2,
      "note": 49,
      "start": 27.8098,
      "duration": 0.3551,
      "velocity": 97,
      "chip": "ym2612"
    },
    {
      "channel": 3,
      "note": 78,
      "start": 27.8104,
      "duration": 0.0899,
      "velocity": 99,
      "chip": "ym2612"
    },
    {
      "channel": 4,
      "note": 52,
      "start": 27.8111,
      "duration": 0.0898,
      "velocity": 94,
      "chip": "ym2612"
    },
    {
      "channel": 3,
      "note": 83,
      "start": 27.917,
      "duration": 0.2482,
      "velocity": 99,
      "chip": "ym2612"
    },
    {
      "channel": 4,
      "note": 52,
      "start": 27.9184,
      "duration": 0.1146,
      "velocity": 94,
      "chip": "ym2612"
    },
    {
      "channel": 4,
      "note": 52,
      "start": 28.0498,
      "duration": 0.1158,
      "velocity": 94,
      "chip": "ym2612"
    },
    {
      "channel": 0,
      "note": 66,
      "start": 28.181,
      "duration": 0.1259,
      "velocity": 106,
      "chip": "ym2612"
    },
    {
      "channel": 1,
      "note": 61,
      "start": 28.1815,
      "duration": 0.1256,
      "velocity": 106,
      "chip": "ym2612"
    },
    {
      "channel": 2,
      "note": 49,
      "start": 28.1821,
      "duration": 0.1254,
      "velocity": 97,
      "chip": "ym2612"
    },
    {
      "channel": 3,
      "note": 81,
      "start": 28.1827,
      "duration": 0.0398,
      "velocity": 99,
      "chip": "ym2612"
    },
    {
      "channel": 4,
      "note": 52,
      "start": 28.1834,
      "duration": 0.0395,
      "velocity": 94,
      "chip": "ym2612"
    },
    {
      "channel": 3,
      "note": 80,
      "start": 28.2256,
      "duration": 0.0823,
      "velocity": 99,
      "chip": "ym2612"
    },
    {
      "channel": 4,
      "note": 52,
      "start": 28.2263,
      "duration": 0.0178,
      "velocity": 94,
      "chip": "ym2612"
    },
    {
      "channel": 4,
      "note": 52,
      "start": 28.247,
      "duration": 0.0612,
      "velocity": 94,
      "chip": "ym2612"
    },
    {
      "channel": 0,
      "note": 65,
      "start": 28.3237,
      "duration": 0.6946,
      "velocity": 106,
      "chip": "ym2612"
    },
    {
      "channel": 1,
      "note": 68,
      "start": 28.3242,
      "duration": 0.3506,
      "velocity": 106,
      "chip": "ym2612"
    },
    {
      "channel": 2,
      "note": 49,
      "start": 28.3247,
      "duration": 0.3504,
      "velocity": 97,
      "chip": "ym2612"
    },
    {
      "channel": 3,
      "note": 78,
      "start": 28.3254,
      "duration": 0.0851,
      "velocity": 99,
      "chip": "ym2612"
    },
    {
      "channel": 4,
      "note": 52,
      "start": 28.3262,
      "duration": 0.0846,
      "velocity": 94,
      "chip": "ym2612"
    },
    {
      "channel": 3,
      "note": 77,
      "start": 28.4273,
      "duration": 0.2482,
      "velocity": 99,
      "chip": "ym2612"
    },
    {
      "channel": 4,
      "note": 52,
      "start": 28.428,
      "duration": 0.1153,
      "velocity": 94,
      "chip": "ym2612"
    },
    {
      "channel": 4,
      "note": 52,
      "start": 28.5601,
      "duration": 0.1158,
      "velocity": 94,
      "chip": "ym2612"
    },
    {
      "channel": 1,
      "note": 62,
      "start": 28.6916,
      "duration": 0.1247,
      "velocity": 106,
      "chip": "ym2612"
    },
    {
      "channel": 2,
      "note": 47,
      "start": 28.6922,
      "duration": 0.1244,
      "velocity": 97,
      "chip": "ym2612"
    },
    {
      "channel": 3,
      "note": 78,
      "start": 28.6928,
      "duration": 0.0386,
      "velocity": 99,
      "chip": "ym2612"
    },
    {
      "channel": 4,
      "note": 52,
      "start": 28.6935,
      "duration": 0.0383,
      "velocity": 94,
      "chip": "ym2612"
    },
    {
      "channel": 3,
      "note": 80,
      "start": 28.7344,
      "duration": 0.0825,
      "velocity": 99,
      "chip": "ym2612"
    },
    {
      "channel": 4,
      "note": 52,
      "start": 28.7351,
      "duration": 0.0186,
      "velocity": 94,
      "chip": "ym2612"
    },
    {
      "channel": 4,
      "note": 52,
      "start": 28.7566,
      "duration": 0.0607,
      "velocity": 94,
      "chip": "ym2612"
    },
    {
      "channel": 1,
      "note": 61,
      "start": 28.833,
      "duration": 0.0911,
      "velocity": 106,
      "chip": "ym2612"
    },
    {
      "channel": 2,
      "note": 45,
      "start": 28.8336,
      "duration": 0.0909,
      "velocity": 97,
      "chip": "ym2612"
    },
    {
      "channel": 3,
      "note": 83,
      "start": 28.8342,
      "duration": 0.0399,
      "velocity": 99,
      "chip": "ym2612"
    },
    {
      "channel": 4,
      "note": 52,
      "start": 28.8349,
      "duration": 0.0396,
      "velocity": 94,
      "chip": "ym2612"
    },
    {
      "channel": 3,
      "note": 85,
      "start": 28.8779,
      "duration": 0.0469,
      "velocity": 99,
      "chip": "ym2612"
    },
    {
      "channel": 4,
      "note": 52,
      "start": 28.8786,
      "duration": 0.0204,
      "velocity": 94,
      "chip": "ym2612"
    },
    {
      "channel": 4,
      "note": 52,
      "start": 28.9037,
      "duration": 0.0222,
      "velocity": 94,
      "chip": "ym2612"
    },
    {
      "channel": 1,
      "note": 59,
      "start": 28.9284,
      "duration": 0.0901,
      "velocity": 106,
      "chip": "ym2612"
    },
    {
      "channel": 2,
      "note": 44,
      "start": 28.929,
      "duration": 0.0899,
      "velocity": 97,
      "chip": "ym2612"
    },
    {
      "channel": 3,
      "note": 83,
      "start": 28.9303,
      "duration": 0.0435,
      "velocity": 99,
      "chip": "ym2612"
    },
    {
      "channel": 4,
      "note": 52,
      "start": 28.931,
      "duration": 0.0431,
      "velocity": 94,
      "chip": "ym2612"
    },
    {
      "channel": 3,
      "note": 81,
      "start": 28.9768,
      "duration": 0.0424,
      "velocity": 99,
      "chip": "ym2612"
    },
    {
      "channel": 4,
      "note": 52,
      "start": 28.9775,
      "duration": 0.0198,
      "velocity": 94,
      "chip": "ym2612"
    },
    {
      "channel": 4,
      "note": 52,
      "start": 29.0011,
      "duration": 0.0185,
      "velocity": 94,
      "chip": "ym2612"
    },
    {
      "channel": 0,
      "note": 78,
      "start": 29.0257,
      "duration": 0.0234,
      "velocity": 98,
      "chip": "ym2612"
    },
    {
      "channel": 2,
      "note": 42,
      "start": 29.0306,
      "duration": 1.2326,
      "velocity": 97,
      "chip": "ym2612"
    },
    {
      "channel": 3,
      "note": 80,
      "start": 29.0312,
      "duration": 0.7118,
      "velocity": 99,
      "chip": "ym2612"
    },
    {
      "channel": 0,
      "note": 73,
      "start": 29.0519,
      "duration": 0.0571,
      "velocity": 98,
      "chip": "ym2612"
    },
    {
      "channel": 1,
      "note": 78,
      "start": 29.0578,
      "duration": 0.0846,
      "velocity": 98,
      "chip": "ym2612"
    },
    {
      "channel": 0,
      "note": 78,
      "start": 29.1257,
      "duration": 0.1157,
      "velocity": 98,
      "chip": "ym2612"
    },
    {
      "channel": 1,
      "note": 73,
      "start": 29.1591,
      "duration": 0.1156,
      "velocity": 98,
      "chip": "ym2612"
    },
    {
      "channel": 0,
      "note": 80,
      "start": 29.2582,
      "duration": 0.1156,
      "velocity": 98,
      "chip": "ym2612"
    },
    {
      "channel": 1,
      "note": 78,
      "start": 29.2915,
      "duration": 0.1157,
      "velocity": 98,
      "chip": "ym2612"
    },
    {
      "channel": 0,
      "note": 81,
      "start": 29.3905,
      "duration": 0.1157,
      "velocity": 98,
      "chip": "ym2612"
    },
    {
      "channel": 4,
      "note": 52,
      "start": 29.392,
      "duration": 0.3515,
      "velocity": 94,
      "chip": "ym2612"
    },
    {
      "channel": 1,
      "note": 80,
      "start": 29.4239,
      "duration": 0.1157,
      "velocity": 98,
      "chip": "ym2612"
    },
    {
      "channel": 0,
      "note": 80,
      "start": 29.523,
      "duration": 0.1156,
      "velocity": 98,
      "chip": "ym2612"
    },
    {
      "channel": 1,
      "note": 81,
      "start": 29.5563,
      "duration": 0.1028,
      "velocity": 98,
      "chip": "ym2612"
    },
    {
      "channel": 0,
      "note": 81,
      "start": 29.6554,
      "duration": 0.0202,
      "velocity": 98,
      "chip": "ym2612"
    },
    {
      "channel": 1,
      "note": 80,
      "start": 29.6622,
      "duration": 0.0194,
      "velocity": 98,
      "chip": "ym2612"
    },
    {
      "channel": 0,
      "note": 83,
      "start": 29.6785,
      "duration": 0.0637,
      "velocity": 98,
      "chip": "ym2612"
    },
    {
      "channel": 1,
      "note": 81,
      "start": 29.6845,
      "duration": 0.0911,
      "velocity": 98,
      "chip": "ym2612"
    },
    {
      "channel": 0,
      "note": 85,
      "start": 29.759,
      "duration": 0.3514,
      "velocity": 98,
      "chip": "ym2612"
    },
    {
      "channel": 3,
      "note": 81,
      "start": 29.76,
      "duration": 0.1153,
      "velocity": 99,
      "chip": "ym2612"
    },
    {
      "channel": 1,
      "note": 83,
      "start": 29.7922,
      "duration": 0.1157,
      "velocity": 98,
      "chip": "ym2612"
    },
    {
      "channel": 3,
      "note": 78,
      "start": 29.8922,
      "duration": 0.1156,
      "velocity": 99,
      "chip": "ym2612"
    },
    {
      "channel": 1,
      "note": 85,
      "start": 29.9246,
      "duration": 0.231,
      "velocity": 98,
      "chip": "ym2612"
    },
    {
      "channel": 3,
      "note": 73,
      "start": 30.0246,
      "duration": 0.019,
      "velocity": 99,
      "chip": "ym2612"
    },
    {
      "channel": 3,
      "note": 78,
      "start": 30.0466,
      "duration": 0.0646,
      "velocity": 99,
      "chip": "ym2612"
    },
    {
      "channel": 0,
      "note": 88,
      "start": 30.1273,
      "duration": 0.1353,
      "velocity": 98,
      "chip": "ym2612"
    },
    {
      "channel": 3,
      "note": 80,
      "start": 30.1285,
      "duration": 0.0213,
      "velocity": 99,
      "chip": "ym2612"
    },
    {
      "channel": 4,
      "note": 52,
      "start": 30.1292,
      "duration": 0.1347,
      "velocity": 94,
      "chip": "ym2612"
    },
    {
      "channel": 3,
      "note": 81,
      "start": 30.1532,
      "duration": 0.0211,
      "velocity": 99,
      "chip": "ym2612"
    },
    {
      "channel": 1,
      "note": 88,
      "start": 30.1591,
      "duration": 0.1462,
      "velocity": 98,
      "chip": "ym2612"
    },
    {
      "channel": 3,
      "note": 80,
      "start": 30.178,
      "duration": 0.0213,
      "velocity": 99,
      "chip": "ym2612"
    },
    {
      "channel": 3,
      "note": 81,
      "start": 30.2025,
      "duration": 0.061,
      "velocity": 99,
      "chip": "ym2612"
    },
    {
      "channel": 0,
      "note": 86,
      "start": 30.2793,
      "duration": 0.3513,
      "velocity": 98,
      "chip": "ym2612"
    },
    {
      "channel": 2,
      "note": 42,
      "start": 30.2802,
      "duration": 1.23,
      "velocity": 97,
      "chip": "ym2612"
    },
    {
      "channel": 3,
      "note": 85,
      "start": 30.2808,
      "duration": 0.3508,
      "velocity": 99,
      "chip": "ym2612"
    },
    {
      "channel": 1,
      "note": 86,
      "start": 30.3078,
      "duration": 0.3649,
      "velocity": 98,
      "chip": "ym2612"
    },
    {
      "channel": 0,
      "note": 83,
      "start": 30.6474,
      "duration": 0.3512,
      "velocity": 98,
      "chip": "ym2612"
    },
    {
      "channel": 3,
      "note": 83,
      "start": 30.6486,
      "duration": 0.351,
      "velocity": 99,
      "chip": "ym2612"
    },
    {
      "channel": 4,
      "note": 52,
      "start": 30.6493,
      "duration": 0.3507,
      "velocity": 94,
      "chip": "ym2612"
    },
    {
      "channel": 1,
      "note": 83,
      "start": 30.6757,
      "duration": 0.364,
      "velocity": 98,
      "chip": "ym2612"
    },
    {
      "channel": 0,
      "note": 85,
      "start": 31.0154,
      "duration": 0.4942,
      "velocity": 98,
      "chip": "ym2612"
    },
    {
      "channel": 3,
      "note": 80,
      "start": 31.0166,
      "duration": 0.0848,
      "velocity": 99,
      "chip": "ym2612"
    },
    {
      "channel": 1,
      "note": 85,
      "start": 31.0426,
      "duration": 0.5131,
      "velocity": 98,
      "chip": "ym2612"
    },
    {
      "channel": 3,
      "note": 81,
      "start": 31.1182,
      "duration": 0.2482,
      "velocity": 99,
      "chip": "ym2612"
    },
    {
      "channel": 3,
      "note": 73,
      "start": 31.3831,
      "duration": 0.0402,
      "velocity": 99,
      "chip": "ym2612"
    },
    {
      "channel": 4,
      "note": 52,
      "start": 31.3838,
      "duration": 0.1278,
      "velocity": 94,
      "chip": "ym2612"
    },
    {
      "channel": 3,
      "note": 78,
      "start": 31.4263,
      "duration": 0.0849,
      "velocity": 99,
      "chip": "ym2612"
    },
    {
      "channel": 0,
      "note": 80,
      "start": 31.5263,
      "duration": 0.3564,
      "velocity": 98,
      "chip": "ym2612"
    },
    {
      "channel": 2,
      "note": 42,
      "start": 31.5279,
      "duration": 1.2319,
      "velocity": 97,
      "chip": "ym2612"
    },
    {
      "channel": 3,
      "note": 81,
      "start": 31.5285,
      "duration": 0.3551,
      "velocity": 99,
      "chip": "ym2612"
    },
    {
      "channel": 1,
      "note": 80,
      "start": 31.5589,
      "duration": 0.4896,
      "velocity": 98,
      "chip": "ym2612"
    },
    {
      "channel": 0,
      "note": 83,
      "start": 31.8995,
      "duration": 0.3514,
      "velocity": 98,
      "chip": "ym2612"
    },
    {
      "channel": 3,
      "note": 76,
      "start": 31.9007,
      "duration": 0.3512,
      "velocity": 99,
      "chip": "ym2612"
    },
    {
      "channel": 4,
      "note": 52,
      "start": 31.9014,
      "duration": 0.3509,
      "velocity": 94,
      "chip": "ym2612"
    },
    {
      "channel": 1,
      "note": 83,
      "start": 32.0653,
      "duration": 0.3515,
      "velocity": 98,
      "chip": "ym2612"
    },
    {
      "channel": 0,
      "note": 81,
      "start": 32.2677,
      "duration": 0.4915,
      "velocity": 98,
      "chip": "ym2612"
    },
    {
      "channel": 3,
      "note": 80,
      "start": 32.2689,
      "duration": 0.2477,
      "velocity": 99,
      "chip": "ym2612"
    },
    {
      "channel": 1,
      "note": 81,
      "start": 32.4335,
      "duration": 0.3683,
      "velocity": 98,
      "chip": "ym2612"
    },
    {
      "channel": 3,
      "note": 78,
      "start": 32.5333,
      "duration": 0.0854,
      "velocity": 99,
      "chip": "ym2612"
    },
    {
      "channel": 3,
      "note": 69,
      "start": 32.6355,
      "duration": 0.0403,
      "velocity": 99,
      "chip": "ym2612"
    },
    {
      "channel": 4,
      "note": 52,
      "start": 32.6362,
      "duration": 0.1243,
      "velocity": 94,
      "chip": "ym2612"
    },
    {
      "channel": 3,
      "note": 73,
      "start": 32.6788,
      "duration": 0.0812,
      "velocity": 99,
      "chip": "ym2612"
    },
    {
      "channel": 0,
      "note": 80,
      "start": 32.7761,
      "duration": 0.3528,
      "velocity": 98,
      "chip": "ym2612"
    },
    {
      "channel": 2,
      "note": 37,
      "start": 32.7769,
      "duration": 0.7202,
      "velocity": 97,
      "chip": "ym2612"
    },
    {
      "channel": 3,
      "note": 78,
      "start": 32.7775,
      "duration": 0.3522,
      "velocity": 99,
      "chip": "ym2612"
    },
    {
      "channel": 1,
      "note": 80,
      "start": 32.8053,
      "duration": 0.366,
      "velocity": 98,
      "chip": "ym2612"
    },
    {
      "channel": 0,
      "note": 77,
      "start": 33.1457,
      "duration": 0.3508,
      "velocity": 98,
      "chip": "ym2612"
    },
    {
      "channel": 3,
      "note": 77,
      "start": 33.1468,
      "duration": 0.3507,
      "velocity": 99,
      "chip": "ym2612"
    },
    {
      "channel": 4,
      "note": 52,
      "start": 33.1475,
      "duration": 0.3504,
      "velocity": 94,
      "chip": "ym2612"
    },
    {
      "channel": 1,
      "note": 77,
      "start": 33.1738,
      "duration": 0.3638,
      "velocity": 98,
      "chip": "ym2612"
    },
    {
      "channel": 0,
      "note": 78,
      "start": 33.5133,
      "duration": 0.4906,
      "velocity": 98,
      "chip": "ym2612"
    },
    {
      "channel": 2,
      "note": 42,
      "start": 33.514,
      "duration": 0.4905,
      "velocity": 97,
      "chip": "ym2612"
    },
    {
      "channel": 3,
      "note": 73,
      "start": 33.5146,
      "duration": 0.4902,
      "velocity": 99,
      "chip": "ym2612"
    },
    {
      "channel": 1,
      "note": 78,
      "start": 33.5402,
      "duration": 0.5099,
      "velocity": 98,
      "chip": "ym2612"
    },
    {
      "channel": 4,
      "note": 52,
      "start": 33.8811,
      "duration": 0.1243,
      "velocity": 94,
      "chip": "ym2612"
    },
    {
      "channel": 0,
      "note": 78,
      "start": 34.0241,
      "duration": 0.0205,
      "velocity": 98,
      "chip": "ym2612"
    },
    {
      "channel": 2,
      "note": 42,
      "start": 34.0249,
      "duration": 1.2272,
      "velocity": 97,
      "chip": "ym2612"
    },
    {
      "channel": 3,
      "note": 69,
      "start": 34.0255,
      "duration": 0.7167,
      "velocity": 99,
      "chip": "ym2612"
    },
    {
      "channel": 0,
      "note": 73,
      "start": 34.0472,
      "duration": 0.0602,
      "velocity": 98,
      "chip": "ym2612"
    },
    {
      "channel": 1,
      "note": 78,
      "start": 34.0531,
      "duration": 0.0877,
      "velocity": 98,
      "chip": "ym2612"
    },
    {
      "channel": 0,
      "note": 78,
      "start": 34.1242,
      "duration": 0.116,
      "velocity": 98,
      "chip": "ym2612"
    },
    {
      "channel": 1,
      "note": 73,
      "start": 34.1575,
      "duration": 0.1161,
      "velocity": 98,
      "chip": "ym2612"
    },
    {
      "channel": 0,
      "note": 80,
      "start": 34.257,
      "duration": 0.1153,
      "velocity": 98,
      "chip": "ym2612"
    },
    {
      "channel": 1,
      "note": 78,
      "start": 34.2905,
      "duration": 0.1151,
      "velocity": 98,
      "chip": "ym2612"
    },
    {
      "channel": 0,
      "note": 81,
      "start": 34.389,
      "duration": 0.1156,
      "velocity": 98,
      "chip": "ym2612"
    },
    {
      "channel": 4,
      "note": 52,
      "start": 34.3912,
      "duration": 0.3516,
      "velocity": 94,
      "chip": "ym2612"
    },
    {
      "channel": 1,
      "note": 80,
      "start": 34.4226,
      "duration": 0.1154,
      "velocity": 98,
      "chip": "ym2612"
    },
    {
      "channel": 0,
      "note": 80,
      "start": 34.5214,
      "duration": 0.1156,
      "velocity": 98,
      "chip": "ym2612"
    },
    {
      "channel": 1,
      "note": 81,
      "start": 34.5548,
      "duration": 0.1032,
      "velocity": 98,
      "chip": "ym2612"
    },
    {
      "channel": 0,
      "note": 81,
      "start": 34.6538,
      "duration": 0.0213,
      "velocity": 98,
      "chip": "ym2612"
    },
    {
      "channel": 1,
      "note": 80,
      "start": 34.6614,
      "duration": 0.0194,
      "velocity": 98,
      "chip": "ym2612"
    },
    {
      "channel": 0,
      "note": 83,
      "start": 34.678,
      "duration": 0.0634,
      "velocity": 98,
      "chip": "ym2612"
    },
    {
      "channel": 1,
      "note": 81,
      "start": 34.6837,
      "duration": 0.091,
      "velocity": 98,
      "chip": "ym2612"
    },
    {
      "channel": 0,
      "note": 85,
      "start": 34.7581,
      "duration": 0.3509,
      "velocity": 98,
      "chip": "ym2612"
    },
    {
      "channel": 3,
      "note": 81,
      "start": 34.7592,
      "duration": 0.1153,
      "velocity": 99,
      "chip": "ym2612"
    },
    {
      "channel": 1,
      "note": 83,
      "start": 34.7915,
      "duration": 0.1157,
      "velocity": 98,
      "chip": "ym2612"
    },
    {
      "channel": 3,
      "note": 78,
      "start": 34.8914,
      "duration": 0.1156,
      "velocity": 99,
      "chip": "ym2612"
    },
    {
      "channel": 1,
      "note": 85,
      "start": 34.9238,
      "duration": 0.2277,
      "velocity": 98,
      "chip": "ym2612"
    },
    {
      "channel": 3,
      "note": 73,
      "start": 35.0238,
      "duration": 0.019,
      "velocity": 99,
      "chip": "ym2612"
    },
    {
      "channel": 3,
      "note": 78,
      "start": 35.0458,
      "duration": 0.0641,
      "velocity": 99,
      "chip": "ym2612"
    },
    {
      "channel": 0,
      "note": 88,
      "start": 35.1257,
      "duration": 0.1258,
      "velocity": 98,
      "chip": "ym2612"
    },
    {
      "channel": 3,
      "note": 80,
      "start": 35.1269,
      "duration": 0.0192,
      "velocity": 99,
      "chip": "ym2612"
    },
    {
      "channel": 4,
      "note": 52,
      "start": 35.1276,
      "duration": 0.1253,
      "velocity": 94,
      "chip": "ym2612"
    },
    {
      "channel": 3,
      "note": 81,
      "start": 35.149,
      "duration": 0.019,
      "velocity": 99,
      "chip": "ym2612"
    },
    {
      "channel": 1,
      "note": 88,
      "start": 35.1544,
      "duration": 0.1392,
      "velocity": 98,
      "chip": "ym2612"
    },
    {
      "channel": 3,
      "note": 80,
      "start": 35.171,
      "duration": 0.0191,
      "velocity": 99,
      "chip": "ym2612"
    },
    {
      "channel": 3,
      "note": 81,
      "start": 35.1931,
      "duration": 0.0594,
      "velocity": 99,
      "chip": "ym2612"
    },
    {
      "channel": 0,
      "note": 86,
      "start": 35.2684,
      "duration": 0.3516,
      "velocity": 98,
      "chip": "ym2612"
    },
    {
      "channel": 2,
      "note": 42,
      "start": 35.2691,
      "duration": 1.2315,
      "velocity": 97,
      "chip": "ym2612"
    },
    {
      "channel": 3,
      "note": 85,
      "start": 35.2698,
      "duration": 0.3511,
      "velocity": 99,
      "chip": "ym2612"
    },
    {
      "channel": 1,
      "note": 86,
      "start": 35.2965,
      "duration": 0.3664,
      "velocity": 98,
      "chip": "ym2612"
    },
    {
      "channel": 0,
      "note": 83,
      "start": 35.6368,
      "duration": 0.3524,
      "velocity": 98,
      "chip": "ym2612"
    },
    {
      "channel": 3,
      "note": 83,
      "start": 35.6379,
      "duration": 0.3523,
      "velocity": 99,
      "chip": "ym2612"
    },
    {
      "channel": 4,
      "note": 52,
      "start": 35.6386,
      "duration": 0.352,
      "velocity": 94,
      "chip": "ym2612"
    },
    {
      "channel": 1,
      "note": 83,
      "start": 35.6658,
      "duration": 0.3666,
      "velocity": 98,
      "chip": "ym2612"
    },
    {
      "channel": 0,
      "note": 85,
      "start": 36.006,
      "duration": 0.494,
      "velocity": 98,
      "chip": "ym2612"
    },
    {
      "channel": 3,
      "note": 80,
      "start": 36.0071,
      "duration": 0.0871,
      "velocity": 99,
      "chip": "ym2612"
    },
    {
      "channel": 1,
      "note": 85,
      "start": 36.0351,
      "duration": 0.5062,
      "velocity": 98,
      "chip": "ym2612"
    },
    {
      "channel": 3,
      "note": 81,
      "start": 36.111,
      "duration": 0.2482,
      "velocity": 99,
      "chip": "ym2612"
    },
    {
      "channel": 3,
      "note": 73,
      "start": 36.376,
      "duration": 0.0407,
      "velocity": 99,
      "chip": "ym2612"
    },
    {
      "channel": 4,
      "note": 52,
      "start": 36.3766,
      "duration": 0.1246,
      "velocity": 94,
      "chip": "ym2612"
    },
    {
      "channel": 3,
      "note": 78,
      "start": 36.4197,
      "duration": 0.0812,
      "velocity": 99,
      "chip": "ym2612"
    },
    {
      "channel": 0,
      "note": 80,
      "start": 36.5168,
      "duration": 0.3501,
      "velocity": 98,
      "chip": "ym2612"
    },
    {
      "channel": 2,
      "note": 42,
      "start": 36.5175,
      "duration": 1.2307,
      "velocity": 97,
      "chip": "ym2612"
    },
    {
      "channel": 3,
      "note": 81,
      "start": 36.5181,
      "duration": 0.3496,
      "velocity": 99,
      "chip": "ym2612"
    },
    {
      "channel": 1,
      "note": 80,
      "start": 36.5441,
      "duration": 0.4885,
      "velocity": 98,
      "chip": "ym2612"
    },
    {
      "channel": 0,
      "note": 83,
      "start": 36.8837,
      "duration": 0.3517,
      "velocity": 98,
      "chip": "ym2612"
    },
    {
      "channel": 3,
      "note": 76,
      "start": 36.8848,
      "duration": 0.3515,
      "velocity": 99,
      "chip": "ym2612"
    },
    {
      "channel": 4,
      "note": 52,
      "start": 36.8855,
      "duration": 0.3512,
      "velocity": 94,
      "chip": "ym2612"
    },
    {
      "channel": 1,
      "note": 83,
      "start": 37.0494,
      "duration": 0.3511,
      "velocity": 98,
      "chip": "ym2612"
    },
    {
      "channel": 0,
      "note": 81,
      "start": 37.2522,
      "duration": 0.4954,
      "velocity": 98,
      "chip": "ym2612"
    },
    {
      "channel": 3,
      "note": 80,
      "start": 37.2534,
      "duration": 0.2469,
      "velocity": 99,
      "chip": "ym2612"
    },
    {
      "channel": 1,
      "note": 81,
      "start": 37.4173,
      "duration": 0.3729,
      "velocity": 98,
      "chip": "ym2612"
    },
    {
      "channel": 3,
      "note": 78,
      "start": 37.5172,
      "duration": 0.0885,
      "velocity": 99,
      "chip": "ym2612"
    },
    {
      "channel": 3,
      "note": 69,
      "start": 37.6225,
      "duration": 0.0412,
      "velocity": 99,
      "chip": "ym2612"
    },
    {
      "channel": 4,
      "note": 52,
      "start": 37.6232,
      "duration": 0.1258,
      "velocity": 94,
      "chip": "ym2612"
    },
    {
      "channel": 3,
      "note": 73,
      "start": 37.6667,
      "duration": 0.082,
      "velocity": 99,
      "chip": "ym2612"
    },
    {
      "channel": 0,
      "note": 80,
      "start": 37.7648,
      "duration": 1.087,
      "velocity": 98,
      "chip": "ym2612"
    },
    {
      "channel": 2,
      "note": 37,
      "start": 37.7656,
      "duration": 1.2317,
      "velocity": 97,
      "chip": "ym2612"
    },
    {
      "channel": 3,
      "note": 78,
      "start": 37.7663,
      "duration": 1.0864,
      "velocity": 99,
      "chip": "ym2612"
    },
    {
      "channel": 1,
      "note": 80,
      "start": 37.7934,
      "duration": 1.1052,
      "velocity": 98,
      "chip": "ym2612"
    },
    {
      "channel": 4,
      "note": 52,
      "start": 38.1334,
      "duration": 0.3508,
      "velocity": 94,
      "chip": "ym2612"
    },
    {
      "channel": 0,
      "note": 78,
      "start": 38.8685,
      "duration": 0.0227,
      "velocity": 98,
      "chip": "ym2612"
    },
    {
      "channel": 3,
      "note": 71,
      "start": 38.8696,
      "duration": 0.0224,
      "velocity": 99,
      "chip": "ym2612"
    },
    {
      "channel": 4,
      "note": 52,
      "start": 38.871,
      "duration": 0.127,
      "velocity": 94,
      "chip": "ym2612"
    },
    {
      "channel": 0,
      "note": 80,
      "start": 38.8946,
      "duration": 0.02,
      "velocity": 98,
      "chip": "ym2612"
    },
    {
      "channel": 3,
      "note": 69,
      "start": 38.8957,
      "duration": 0.0197,
      "velocity": 99,
      "chip": "ym2612"
    },
    {
      "channel": 1,
      "note": 78,
      "start": 38.9015,
      "duration": 0.0196,
      "velocity": 98,
      "chip": "ym2612"
    },
    {
      "channel": 0,
      "note": 78,
      "start": 38.9176,
      "duration": 0.0793,
      "velocity": 98,
      "chip": "ym2612"
    },
    {
      "channel": 3,
      "note": 71,
      "start": 38.9187,
      "duration": 0.079,
      "velocity": 99,
      "chip": "ym2612"
    },
    {
      "channel": 1,
      "note": 80,
      "start": 38.924,
      "duration": 0.0174,
      "velocity": 98,
      "chip": "ym2612"
    },
    {
      "channel": 1,
      "note": 78,
      "start": 38.9439,
      "duration": 0.2187,
      "velocity": 98,
      "chip": "ym2612"
    },
    {
      "channel": 0,
      "note": 77,
      "start": 39.0136,
      "duration": 0.1156,
      "velocity": 98,
      "chip": "ym2612"
    },
    {
      "channel": 2,
      "note": 37,
      "start": 39.0143,
      "duration": 0.9342,
      "velocity": 97,
      "chip": "ym2612"
    },
    {
      "channel": 3,
      "note": 69,
      "start": 39.015,
      "duration": 0.934,
      "velocity": 99,
      "chip": "ym2612"
    },
    {
      "channel": 4,
      "note": 52,
      "start": 39.0158,
      "duration": 0.2469,
      "velocity": 94,
      "chip": "ym2612"
    },
    {
      "channel": 0,
      "note": 73,
      "start": 39.1459,
      "duration": 0.1157,
      "velocity": 98,
      "chip": "ym2612"
    },
    {
      "channel": 1,
      "note": 77,
      "start": 39.1793,
      "duration": 0.1027,
      "velocity": 98,
      "chip": "ym2612"
    },
    {
      "channel": 0,
      "note": 80,
      "start": 39.2784,
      "duration": 0.0199,
      "velocity": 98,
      "chip": "ym2612"
    },
    {
      "channel": 1,
      "note": 73,
      "start": 39.2848,
      "duration": 0.0191,
      "velocity": 98,
      "chip": "ym2612"
    },
    {
      "channel": 0,
      "note": 77,
      "start": 39.3009,
      "duration": 0.0199,
      "velocity": 98,
      "chip": "ym2612"
    },
    {
      "channel": 1,
      "note": 80,
      "start": 39.3068,
      "duration": 0.0208,
      "velocity": 98,
      "chip": "ym2612"
    },
    {
      "channel": 0,
      "note": 83,
      "start": 39.3238,
      "duration": 0.0206,
      "velocity": 98,
      "chip": "ym2612"
    },
    {
      "channel": 4,
      "note": 52,
      "start": 39.3252,
      "duration": 0.0481,
      "velocity": 94,
      "chip": "ym2612"
    },
    {
      "channel": 1,
      "note": 77,
      "start": 39.3307,
      "duration": 0.0201,
      "velocity": 98,
      "chip": "ym2612"
    },
    {
      "channel": 0,
      "note": 80,
      "start": 39.3474,
      "duration": 0.0248,
      "velocity": 98,
      "chip": "ym2612"
    },
    {
      "channel": 1,
      "note": 83,
      "start": 39.3543,
      "duration": 0.0513,
      "velocity": 98,
      "chip": "ym2612"
    },
    {
      "channel": 0,
      "note": 86,
      "start": 39.389,
      "duration": 0.1156,
      "velocity": 98,
      "chip": "ym2612"
    },
    {
      "channel": 4,
      "note": 52,
      "start": 39.3905,
      "duration": 0.2479,
      "velocity": 94,
      "chip": "ym2612"
    },
    {
      "channel": 1,
      "note": 80,
      "start": 39.4223,
      "duration": 0.1156,
      "velocity": 98,
      "chip": "ym2612"
    },
    {
      "channel": 0,
      "note": 85,
      "start": 39.5214,
      "duration": 0.1157,
      "velocity": 98,
      "chip": "ym2612"
    },
    {
      "channel": 1,
      "note": 86,
      "start": 39.5547,
      "duration": 0.103,
      "velocity": 98,
      "chip": "ym2612"
    },
    {
      "channel": 0,
      "note": 89,
      "start": 39.6538,
      "duration": 0.0219,
      "velocity": 98,
      "chip": "ym2612"
    },
    {
      "channel": 1,
      "note": 85,
      "start": 39.6611,
      "duration": 0.021,
      "velocity": 98,
      "chip": "ym2612"
    },
    {
      "channel": 0,
      "note": 85,
      "start": 39.6786,
      "duration": 0.021,
      "velocity": 98,
      "chip": "ym2612"
    },
    {
      "channel": 1,
      "note": 89,
      "start": 39.6852,
      "duration": 0.0212,
      "velocity": 98,
      "chip": "ym2612"
    },
    {
      "channel": 0,
      "note": 92,
      "start": 39.7027,
      "duration": 0.0207,
      "velocity": 98,
      "chip": "ym2612"
    },
    {
      "channel": 4,
      "note": 52,
      "start": 39.7042,
      "duration": 0.0449,
      "velocity": 94,
      "chip": "ym2612"
    },
    {
      "channel": 1,
      "note": 85,
      "start": 39.7093,
      "duration": 0.0209,
      "velocity": 98,
      "chip": "ym2612"
    },
    {
      "channel": 0,
      "note": 89,
      "start": 39.7269,
      "duration": 0.021,
      "velocity": 98,
      "chip": "ym2612"
    },
    {
      "channel": 1,
      "note": 92,
      "start": 39.7334,
      "duration": 0.021,
      "velocity": 98,
      "chip": "ym2612"
    },
    {
      "channel": 0,
      "note": 83,
      "start": 39.751,
      "duration": 0.0206,
      "velocity": 98,
      "chip": "ym2612"
    },
    {
      "channel": 4,
      "note": 52,
      "start": 39.7524,
      "duration": 0.1325,
      "velocity": 94,
      "chip": "ym2612"
    },
    {
      "channel": 1,
      "note": 89,
      "start": 39.7577,
      "duration": 0.0266,
      "velocity": 98,
      "chip": "ym2612"
    },
    {
      "channel": 0,
      "note": 92,
      "start": 39.775,
      "duration": 0.1084,
      "velocity": 98,
      "chip": "ym2612"
    },
    {
      "channel": 1,
      "note": 83,
      "start": 39.8013,
      "duration": 0.1028,
      "velocity": 98,
      "chip": "ym2612"
    },
    {
      "channel": 0,
      "note": 86,
      "start": 39.9001,
      "duration": 0.0224,
      "velocity": 98,
      "chip": "ym2612"
    },
    {
      "channel": 1,
      "note": 80,
      "start": 39.9075,
      "duration": 0.0217,
      "velocity": 98,
      "chip": "ym2612"
    },
    {
      "channel": 0,
      "note": 85,
      "start": 39.9258,
      "duration": 0.0484,
      "velocity": 98,
      "chip": "ym2612"
    },
    {
      "channel": 1,
      "note": 86,
      "start": 39.9324,
      "duration": 0.0231,
      "velocity": 98,
      "chip": "ym2612"
    },
    {
      "channel": 2,
      "note": 37,
      "start": 39.9517,
      "duration": 0.4133,
      "velocity": 97,
      "chip": "ym2612"
    },
    {
      "channel": 3,
      "note": 68,
      "start": 39.9523,
      "duration": 0.4134,
      "velocity": 99,
      "chip": "ym2612"
    },
    {
      "channel": 4,
      "note": 52,
      "start": 39.953,
      "duration": 0.0467,
      "velocity": 94,
      "chip": "ym2612"
    },
    {
      "channel": 1,
      "note": 85,
      "start": 39.9589,
      "duration": 0.047,
      "velocity": 98,
      "chip": "ym2612"
    },
    {
      "channel": 0,
      "note": 89,
      "start": 39.9771,
      "duration": 0.0216,
      "velocity": 98,
      "chip": "ym2612"
    },
    {
      "channel": 0,
      "note": 83,
      "start": 40.002,
      "duration": 0.0224,
      "velocity": 98,
      "chip": "ym2612"
    },
    {
      "channel": 4,
      "note": 52,
      "start": 40.0034,
      "duration": 0.047,
      "velocity": 94,
      "chip": "ym2612"
    },
    {
      "channel": 1,
      "note": 89,
      "start": 40.009,
      "duration": 0.0224,
      "velocity": 98,
      "chip": "ym2612"
    },
    {
      "channel": 0,
      "note": 86,
      "start": 40.028,
      "duration": 0.0213,
      "velocity": 98,
      "chip": "ym2612"
    },
    {
      "channel": 1,
      "note": 83,
      "start": 40.0346,
      "duration": 0.0277,
      "velocity": 98,
      "chip": "ym2612"
    },
    {
      "channel": 0,
      "note": 85,
      "start": 40.0582,
      "duration": 0.0236,
      "velocity": 98,
      "chip": "ym2612"
    },
    {
      "channel": 1,
      "note": 86,
      "start": 40.0659,
      "duration": 0.023,
      "velocity": 98,
      "chip": "ym2612"
    },
    {
      "channel": 0,
      "note": 92,
      "start": 40.0854,
      "duration": 0.0229,
      "velocity": 98,
      "chip": "ym2612"
    },
    {
      "channel": 1,
      "note": 85,
      "start": 40.0924,
      "duration": 0.0234,
      "velocity": 98,
      "chip": "ym2612"
    },
    {
      "channel": 0,
      "note": 83,
      "start": 40.1119,
      "duration": 0.0229,
      "velocity": 98,
      "chip": "ym2612"
    },
    {
      "channel": 4,
      "note": 52,
      "start": 40.1134,
      "duration": 0.0483,
      "velocity": 94,
      "chip": "ym2612"
    },
    {
      "channel": 1,
      "note": 80,
      "start": 40.1191,
      "duration": 0.0227,
      "velocity": 98,
      "chip": "ym2612"
    },
    {
      "channel": 0,
      "note": 89,
      "start": 40.1383,
      "duration": 0.022,
      "velocity": 98,
      "chip": "ym2612"
    },
    {
      "channel": 1,
      "note": 83,
      "start": 40.1454,
      "duration": 0.0228,
      "velocity": 98,
      "chip": "ym2612"
    },
    {
      "channel": 0,
      "note": 92,
      "start": 40.1641,
      "duration": 0.0229,
      "velocity": 98,
      "chip": "ym2612"
    },
    {
      "channel": 4,
      "note": 52,
      "start": 40.1656,
      "duration": 0.0477,
      "velocity": 94,
      "chip": "ym2612"
    },
    {
      "channel": 1,
      "note": 89,
      "start": 40.1717,
      "duration": 0.022,
      "velocity": 98,
      "chip": "ym2612"
    },
    {
      "channel": 0,
      "note": 86,
      "start": 40.19,
      "duration": 0.0221,
      "velocity": 98,
      "chip": "ym2612"
    },
    {
      "channel": 1,
      "note": 92,
      "start": 40.1973,
      "duration": 0.025,
      "velocity": 98,
      "chip": "ym2612"
    },
    {
      "channel": 0,
      "note": 89,
      "start": 40.2186,
      "duration": 0.0224,
      "velocity": 98,
      "chip": "ym2612"
    },
    {
      "channel": 1,
      "note": 86,
      "start": 40.2258,
      "duration": 0.0213,
      "velocity": 98,
      "chip": "ym2612"
    },
    {
      "channel": 0,
      "note": 83,
      "start": 40.244,
      "duration": 0.0214,
      "velocity": 98,
      "chip": "ym2612"
    },
    {
      "channel": 1,
      "note": 89,
      "start": 40.2503,
      "duration": 0.0221,
      "velocity": 98,
      "chip": "ym2612"
    },
    {
      "channel": 0,
      "note": 85,
      "start": 40.269,
      "duration": 0.0219,
      "velocity": 98,
      "chip": "ym2612"
    },
    {
      "channel": 4,
      "note": 52,
      "start": 40.2704,
      "duration": 0.0453,
      "velocity": 94,
      "chip": "ym2612"
    },
    {
      "channel": 1,
      "note": 83,
      "start": 40.2759,
      "duration": 0.0212,
      "velocity": 98,
      "chip": "ym2612"
    },
    {
      "channel": 0,
      "note": 80,
      "start": 40.294,
      "duration": 0.0206,
      "velocity": 98,
      "chip": "ym2612"
    },
    {
      "channel": 1,
      "note": 85,
      "start": 40.3002,
      "duration": 0.0216,
      "velocity": 98,
      "chip": "ym2612"
    },
    {
      "channel": 0,
      "note": 83,
      "start": 40.3177,
      "duration": 0.0219,
      "velocity": 98,
      "chip": "ym2612"
    },
    {
      "channel": 1,
      "note": 80,
      "start": 40.3249,
      "duration": 0.0213,
      "velocity": 98,
      "chip": "ym2612"
    },
    {
      "channel": 0,
      "note": 85,
      "start": 40.3429,
      "duration": 0.0215,
      "velocity": 98,
      "chip": "ym2612"
    },
    {
      "channel": 1,
      "note": 83,
      "start": 40.3499,
      "duration": 0.0149,
      "velocity": 98,
      "chip": "ym2612"
    },
    {
      "channel": 0,
      "note": 61,
      "start": 40.3724,
      "duration": 32.2248,
      "velocity": 102,
      "chip": "ym2612"
    },
    {
      "channel": 2,
      "note": 42,
      "start": 40.3768,
      "duration": 32.2203,
      "velocity": 97,
      "chip": "ym2612"
    }
  ]
}