{
  "track_name": "15 - Challenge Mode",
  "duration_sec": 38.657,
  "sample_rate": 44100,
  "note_count": 790,
  "unique_pitches": 23,
  "pitch_range": 47,
  "avg_note_duration": 0.1514,
  "reconstruction_stats": {
    "notes_reconstructed": 790,
    "keyon_events": 790,
    "keyoff_events": 788,
    "orphan_keyons": 1,
    "unique_pitches": 23,
    "pitch_range": 47,
    "avg_duration_sec": 0.1514
  },
  "metadata": {
    "source": "M\\Mahjong Cop Ryuu\\15 - Challenge Mode.vgm"
  },
  "notes": [
    {
      "channel": 0,
      "note": -1,
      "start": 0.0,
      "duration": 0.0,
      "velocity": 1,
      "chip": "ym2612"
    },
    {
      "channel": 0,
      "note": -1,
      "start": 0.0,
      "duration": 0.0,
      "velocity": 110,
      "chip": "ym2612"
    },
    {
      "channel": 0,
      "note": 77,
      "start": 0.0002,
      "duration": 0.08,
      "velocity": 110,
      "chip": "ym2612"
    },
    {
      "channel": 1,
      "note": 54,
      "start": 0.0016,
      "duration": 0.2119,
      "velocity": 100,
      "chip": "ym2612"
    },
    {
      "channel": 2,
      "note": 43,
      "start": 0.0032,
      "duration": 0.2105,
      "velocity": 117,
      "chip": "ym2612"
    },
    {
      "channel": 3,
      "note": 90,
      "start": 0.0047,
      "duration": 0.0756,
      "velocity": 101,
      "chip": "ym2612"
    },
    {
      "channel": 4,
      "note": 78,
      "start": 0.0063,
      "duration": 0.0742,
      "velocity": 101,
      "chip": "ym2612"
    },
    {
      "channel": 0,
      "note": 78,
      "start": 0.1304,
      "duration": 0.2164,
      "velocity": 110,
      "chip": "ym2612"
    },
    {
      "channel": 3,
      "note": 90,
      "start": 0.1307,
      "duration": 0.0829,
      "velocity": 101,
      "chip": "ym2612"
    },
    {
      "channel": 4,
      "note": 78,
      "start": 0.1311,
      "duration": 0.0827,
      "velocity": 101,
      "chip": "ym2612"
    },
    {
      "channel": 1,
      "note": 54,
      "start": 0.2638,
      "duration": 0.0832,
      "velocity": 100,
      "chip": "ym2612"
    },
    {
      "channel": 2,
      "note": 62,
      "start": 0.2652,
      "duration": 0.2151,
      "velocity": 116,
      "chip": "ym2612"
    },
    {
      "channel": 3,
      "note": 89,
      "start": 0.2656,
      "duration": 0.2147,
      "velocity": 101,
      "chip": "ym2612"
    },
    {
      "channel": 4,
      "note": 77,
      "start": 0.2659,
      "duration": 0.2146,
      "velocity": 101,
      "chip": "ym2612"
    },
    {
      "channel": 0,
      "note": 77,
      "start": 0.397,
      "duration": 0.0831,
      "velocity": 110,
      "chip": "ym2612"
    },
    {
      "channel": 1,
      "note": 61,
      "start": 0.3974,
      "duration": 0.2161,
      "velocity": 100,
      "chip": "ym2612"
    },
    {
      "channel": 0,
      "note": 78,
      "start": 0.5304,
      "duration": 0.2164,
      "velocity": 110,
      "chip": "ym2612"
    },
    {
      "channel": 3,
      "note": 90,
      "start": 0.5311,
      "duration": 0.216,
      "velocity": 101,
      "chip": "ym2612"
    },
    {
      "channel": 4,
      "note": 78,
      "start": 0.5314,
      "duration": 0.2159,
      "velocity": 101,
      "chip": "ym2612"
    },
    {
      "channel": 1,
      "note": 63,
      "start": 0.6638,
      "duration": 0.0832,
      "velocity": 100,
      "chip": "ym2612"
    },
    {
      "channel": 0,
      "note": 77,
      "start": 0.797,
      "duration": 0.0831,
      "velocity": 110,
      "chip": "ym2612"
    },
    {
      "channel": 2,
      "note": 43,
      "start": 0.7988,
      "duration": 0.2148,
      "velocity": 117,
      "chip": "ym2612"
    },
    {
      "channel": 3,
      "note": 87,
      "start": 0.7992,
      "duration": 0.0811,
      "velocity": 101,
      "chip": "ym2612"
    },
    {
      "channel": 4,
      "note": 75,
      "start": 0.7995,
      "duration": 0.0809,
      "velocity": 101,
      "chip": "ym2612"
    },
    {
      "channel": 0,
      "note": 78,
      "start": 0.9304,
      "duration": 0.2164,
      "velocity": 110,
      "chip": "ym2612"
    },
    {
      "channel": 3,
      "note": 85,
      "start": 0.9308,
      "duration": 0.2162,
      "velocity": 101,
      "chip": "ym2612"
    },
    {
      "channel": 4,
      "note": 73,
      "start": 0.9311,
      "duration": 0.216,
      "velocity": 101,
      "chip": "ym2612"
    },
    {
      "channel": 1,
      "note": 49,
      "start": 1.0638,
      "duration": 0.0832,
      "velocity": 100,
      "chip": "ym2612"
    },
    {
      "channel": 2,
      "note": 62,
      "start": 1.0652,
      "duration": 0.2151,
      "velocity": 116,
      "chip": "ym2612"
    },
    {
      "channel": 0,
      "note": 77,
      "start": 1.197,
      "duration": 0.0831,
      "velocity": 110,
      "chip": "ym2612"
    },
    {
      "channel": 1,
      "note": 52,
      "start": 1.1974,
      "duration": 0.8828,
      "velocity": 100,
      "chip": "ym2612"
    },
    {
      "channel": 3,
      "note": 85,
      "start": 1.1977,
      "duration": 0.2159,
      "velocity": 101,
      "chip": "ym2612"
    },
    {
      "channel": 4,
      "note": 73,
      "start": 1.1981,
      "duration": 0.2156,
      "velocity": 101,
      "chip": "ym2612"
    },
    {
      "channel": 0,
      "note": 78,
      "start": 1.3304,
      "duration": 0.2164,
      "velocity": 110,
      "chip": "ym2612"
    },
    {
      "channel": 3,
      "note": 82,
      "start": 1.4638,
      "duration": 0.0832,
      "velocity": 101,
      "chip": "ym2612"
    },
    {
      "channel": 4,
      "note": 70,
      "start": 1.4641,
      "duration": 0.083,
      "velocity": 101,
      "chip": "ym2612"
    },
    {
      "channel": 0,
      "note": 81,
      "start": 1.597,
      "duration": 0.2164,
      "velocity": 110,
      "chip": "ym2612"
    },
    {
      "channel": 2,
      "note": 62,
      "start": 1.5986,
      "duration": 0.2151,
      "velocity": 116,
      "chip": "ym2612"
    },
    {
      "channel": 3,
      "note": 85,
      "start": 1.5989,
      "duration": 0.2148,
      "velocity": 101,
      "chip": "ym2612"
    },
    {
      "channel": 4,
      "note": 73,
      "start": 1.5993,
      "duration": 0.2146,
      "velocity": 101,
      "chip": "ym2612"
    },
    {
      "channel": 0,
      "note": 81,
      "start": 1.8637,
      "duration": 0.2164,
      "velocity": 110,
      "chip": "ym2612"
    },
    {
      "channel": 2,
      "note": 43,
      "start": 1.8652,
      "duration": 0.2151,
      "velocity": 117,
      "chip": "ym2612"
    },
    {
      "channel": 3,
      "note": 87,
      "start": 1.8656,
      "duration": 0.2149,
      "velocity": 101,
      "chip": "ym2612"
    },
    {
      "channel": 4,
      "note": 75,
      "start": 1.8659,
      "duration": 0.2146,
      "velocity": 101,
      "chip": "ym2612"
    },
    {
      "channel": 0,
      "note": 77,
      "start": 2.1304,
      "duration": 0.0831,
      "velocity": 110,
      "chip": "ym2612"
    },
    {
      "channel": 1,
      "note": 54,
      "start": 2.1307,
      "duration": 0.2161,
      "velocity": 100,
      "chip": "ym2612"
    },
    {
      "channel": 2,
      "note": 43,
      "start": 2.1323,
      "duration": 0.2146,
      "velocity": 117,
      "chip": "ym2612"
    },
    {
      "channel": 3,
      "note": 90,
      "start": 2.1327,
      "duration": 0.0809,
      "velocity": 101,
      "chip": "ym2612"
    },
    {
      "channel": 4,
      "note": 78,
      "start": 2.1332,
      "duration": 0.0806,
      "velocity": 101,
      "chip": "ym2612"
    },
    {
      "channel": 0,
      "note": 78,
      "start": 2.2637,
      "duration": 0.2164,
      "velocity": 110,
      "chip": "ym2612"
    },
    {
      "channel": 3,
      "note": 90,
      "start": 2.2641,
      "duration": 0.0829,
      "velocity": 101,
      "chip": "ym2612"
    },
    {
      "channel": 4,
      "note": 78,
      "start": 2.2645,
      "duration": 0.0827,
      "velocity": 101,
      "chip": "ym2612"
    },
    {
      "channel": 1,
      "note": 54,
      "start": 2.3971,
      "duration": 0.0832,
      "velocity": 100,
      "chip": "ym2612"
    },
    {
      "channel": 2,
      "note": 62,
      "start": 2.3986,
      "duration": 0.2151,
      "velocity": 116,
      "chip": "ym2612"
    },
    {
      "channel": 3,
      "note": 89,
      "start": 2.399,
      "duration": 0.2147,
      "velocity": 101,
      "chip": "ym2612"
    },
    {
      "channel": 4,
      "note": 77,
      "start": 2.3993,
      "duration": 0.2146,
      "velocity": 101,
      "chip": "ym2612"
    },
    {
      "channel": 0,
      "note": 77,
      "start": 2.5304,
      "duration": 0.0831,
      "velocity": 110,
      "chip": "ym2612"
    },
    {
      "channel": 1,
      "note": 61,
      "start": 2.5307,
      "duration": 0.2161,
      "velocity": 100,
      "chip": "ym2612"
    },
    {
      "channel": 0,
      "note": 78,
      "start": 2.6637,
      "duration": 0.2164,
      "velocity": 110,
      "chip": "ym2612"
    },
    {
      "channel": 3,
      "note": 90,
      "start": 2.6644,
      "duration": 0.216,
      "velocity": 101,
      "chip": "ym2612"
    },
    {
      "channel": 4,
      "note": 78,
      "start": 2.6647,
      "duration": 0.2159,
      "velocity": 101,
      "chip": "ym2612"
    },
    {
      "channel": 1,
      "note": 63,
      "start": 2.7971,
      "duration": 0.0832,
      "velocity": 100,
      "chip": "ym2612"
    },
    {
      "channel": 0,
      "note": 77,
      "start": 2.9304,
      "duration": 0.0831,
      "velocity": 110,
      "chip": "ym2612"
    },
    {
      "channel": 2,
      "note": 62,
      "start": 2.9322,
      "duration": 0.2148,
      "velocity": 116,
      "chip": "ym2612"
    },
    {
      "channel": 3,
      "note": 87,
      "start": 2.9325,
      "duration": 0.0811,
      "velocity": 101,
      "chip": "ym2612"
    },
    {
      "channel": 4,
      "note": 75,
      "start": 2.9329,
      "duration": 0.0809,
      "velocity": 101,
      "chip": "ym2612"
    },
    {
      "channel": 0,
      "note": 78,
      "start": 3.0637,
      "duration": 0.2164,
      "velocity": 110,
      "chip": "ym2612"
    },
    {
      "channel": 3,
      "note": 85,
      "start": 3.0641,
      "duration": 0.2162,
      "velocity": 101,
      "chip": "ym2612"
    },
    {
      "channel": 4,
      "note": 73,
      "start": 3.0645,
      "duration": 0.216,
      "velocity": 101,
      "chip": "ym2612"
    },
    {
      "channel": 1,
      "note": 49,
      "start": 3.1971,
      "duration": 0.0832,
      "velocity": 100,
      "chip": "ym2612"
    },
    {
      "channel": 2,
      "note": 62,
      "start": 3.1986,
      "duration": 0.2151,
      "velocity": 116,
      "chip": "ym2612"
    },
    {
      "channel": 0,
      "note": 77,
      "start": 3.3304,
      "duration": 0.0831,
      "velocity": 110,
      "chip": "ym2612"
    },
    {
      "channel": 1,
      "note": 52,
      "start": 3.3307,
      "duration": 0.8828,
      "velocity": 100,
      "chip": "ym2612"
    },
    {
      "channel": 3,
      "note": 85,
      "start": 3.3311,
      "duration": 0.2159,
      "velocity": 101,
      "chip": "ym2612"
    },
    {
      "channel": 4,
      "note": 73,
      "start": 3.3315,
      "duration": 0.2156,
      "velocity": 101,
      "chip": "ym2612"
    },
    {
      "channel": 0,
      "note": 78,
      "start": 3.4637,
      "duration": 0.2164,
      "velocity": 110,
      "chip": "ym2612"
    },
    {
      "channel": 3,
      "note": 82,
      "start": 3.5972,
      "duration": 0.0832,
      "velocity": 101,
      "chip": "ym2612"
    },
    {
      "channel": 4,
      "note": 70,
      "start": 3.5975,
      "duration": 0.083,
      "velocity": 101,
      "chip": "ym2612"
    },
    {
      "channel": 0,
      "note": 81,
      "start": 3.7304,
      "duration": 0.2164,
      "velocity": 110,
      "chip": "ym2612"
    },
    {
      "channel": 2,
      "note": 62,
      "start": 3.7319,
      "duration": 0.2151,
      "velocity": 116,
      "chip": "ym2612"
    },
    {
      "channel": 3,
      "note": 85,
      "start": 3.7322,
      "duration": 0.2148,
      "velocity": 101,
      "chip": "ym2612"
    },
    {
      "channel": 4,
      "note": 73,
      "start": 3.7326,
      "duration": 0.2146,
      "velocity": 101,
      "chip": "ym2612"
    },
    {
      "channel": 0,
      "note": 81,
      "start": 3.997,
      "duration": 0.2164,
      "velocity": 110,
      "chip": "ym2612"
    },
    {
      "channel": 2,
      "note": 43,
      "start": 3.9986,
      "duration": 0.2151,
      "velocity": 117,
      "chip": "ym2612"
    },
    {
      "channel": 3,
      "note": 87,
      "start": 3.9989,
      "duration": 0.2149,
      "velocity": 101,
      "chip": "ym2612"
    },
    {
      "channel": 4,
      "note": 75,
      "start": 3.9993,
      "duration": 0.2146,
      "velocity": 101,
      "chip": "ym2612"
    },
    {
      "channel": 0,
      "note": 70,
      "start": 4.2637,
      "duration": 0.0831,
      "velocity": 110,
      "chip": "ym2612"
    },
    {
      "channel": 1,
      "note": 54,
      "start": 4.2641,
      "duration": 0.2161,
      "velocity": 100,
      "chip": "ym2612"
    },
    {
      "channel": 2,
      "note": 43,
      "start": 4.2657,
      "duration": 0.2146,
      "velocity": 117,
      "chip": "ym2612"
    },
    {
      "channel": 3,
      "note": 82,
      "start": 4.2661,
      "duration": 0.0809,
      "velocity": 101,
      "chip": "ym2612"
    },
    {
      "channel": 4,
      "note": 70,
      "start": 4.2665,
      "duration": 0.0806,
      "velocity": 101,
      "chip": "ym2612"
    },
    {
      "channel": 0,
      "note": 71,
      "start": 4.397,
      "duration": 0.2164,
      "velocity": 110,
      "chip": "ym2612"
    },
    {
      "channel": 3,
      "note": 85,
      "start": 4.3975,
      "duration": 0.0829,
      "velocity": 101,
      "chip": "ym2612"
    },
    {
      "channel": 4,
      "note": 73,
      "start": 4.3978,
      "duration": 0.0827,
      "velocity": 101,
      "chip": "ym2612"
    },
    {
      "channel": 1,
      "note": 54,
      "start": 4.5304,
      "duration": 0.0832,
      "velocity": 100,
      "chip": "ym2612"
    },
    {
      "channel": 2,
      "note": 62,
      "start": 4.5319,
      "duration": 0.2151,
      "velocity": 116,
      "chip": "ym2612"
    },
    {
      "channel": 3,
      "note": 82,
      "start": 4.5322,
      "duration": 0.0815,
      "velocity": 101,
      "chip": "ym2612"
    },
    {
      "channel": 4,
      "note": 70,
      "start": 4.5326,
      "duration": 0.0812,
      "velocity": 101,
      "chip": "ym2612"
    },
    {
      "channel": 0,
      "note": 70,
      "start": 4.6637,
      "duration": 0.0831,
      "velocity": 110,
      "chip": "ym2612"
    },
    {
      "channel": 1,
      "note": 61,
      "start": 4.6641,
      "duration": 0.2161,
      "velocity": 100,
      "chip": "ym2612"
    },
    {
      "channel": 3,
      "note": 80,
      "start": 4.6645,
      "duration": 0.3493,
      "velocity": 101,
      "chip": "ym2612"
    },
    {
      "channel": 4,
      "note": 68,
      "start": 4.6648,
      "duration": 0.3491,
      "velocity": 101,
      "chip": "ym2612"
    },
    {
      "channel": 0,
      "note": 71,
      "start": 4.797,
      "duration": 0.2164,
      "velocity": 110,
      "chip": "ym2612"
    },
    {
      "channel": 1,
      "note": 63,
      "start": 4.9304,
      "duration": 0.0832,
      "velocity": 100,
      "chip": "ym2612"
    },
    {
      "channel": 0,
      "note": 70,
      "start": 5.0637,
      "duration": 0.0831,
      "velocity": 110,
      "chip": "ym2612"
    },
    {
      "channel": 2,
      "note": 62,
      "start": 5.0655,
      "duration": 0.2148,
      "velocity": 116,
      "chip": "ym2612"
    },
    {
      "channel": 0,
      "note": 71,
      "start": 5.197,
      "duration": 0.2164,
      "velocity": 110,
      "chip": "ym2612"
    },
    {
      "channel": 1,
      "note": 49,
      "start": 5.3304,
      "duration": 0.0832,
      "velocity": 100,
      "chip": "ym2612"
    },
    {
      "channel": 2,
      "note": 62,
      "start": 5.3319,
      "duration": 0.2151,
      "velocity": 116,
      "chip": "ym2612"
    },
    {
      "channel": 0,
      "note": 70,
      "start": 5.4637,
      "duration": 0.0831,
      "velocity": 110,
      "chip": "ym2612"
    },
    {
      "channel": 1,
      "note": 52,
      "start": 5.4641,
      "duration": 0.8828,
      "velocity": 100,
      "chip": "ym2612"
    },
    {
      "channel": 0,
      "note": 71,
      "start": 5.597,
      "duration": 0.2164,
      "velocity": 110,
      "chip": "ym2612"
    },
    {
      "channel": 0,
      "note": 73,
      "start": 5.8637,
      "duration": 0.2164,
      "velocity": 110,
      "chip": "ym2612"
    },
    {
      "channel": 2,
      "note": 62,
      "start": 5.8652,
      "duration": 0.2151,
      "velocity": 116,
      "chip": "ym2612"
    },
    {
      "channel": 0,
      "note": 73,
      "start": 6.1304,
      "duration": 0.2164,
      "velocity": 110,
      "chip": "ym2612"
    },
    {
      "channel": 2,
      "note": 43,
      "start": 6.1319,
      "duration": 0.2151,
      "velocity": 117,
      "chip": "ym2612"
    },
    {
      "channel": 0,
      "note": 70,
      "start": 6.397,
      "duration": 0.0831,
      "velocity": 110,
      "chip": "ym2612"
    },
    {
      "channel": 1,
      "note": 54,
      "start": 6.3974,
      "duration": 0.2161,
      "velocity": 100,
      "chip": "ym2612"
    },
    {
      "channel": 2,
      "note": 43,
      "start": 6.399,
      "duration": 0.2146,
      "velocity": 117,
      "chip": "ym2612"
    },
    {
      "channel": 3,
      "note": 82,
      "start": 6.3994,
      "duration": 0.0809,
      "velocity": 101,
      "chip": "ym2612"
    },
    {
      "channel": 4,
      "note": 70,
      "start": 6.3998,
      "duration": 0.0806,
      "velocity": 101,
      "chip": "ym2612"
    },
    {
      "channel": 0,
      "note": 71,
      "start": 6.5304,
      "duration": 0.2164,
      "velocity": 110,
      "chip": "ym2612"
    },
    {
      "channel": 3,
      "note": 85,
      "start": 6.5308,
      "duration": 0.0829,
      "velocity": 101,
      "chip": "ym2612"
    },
    {
      "channel": 4,
      "note": 73,
      "start": 6.5311,
      "duration": 0.0827,
      "velocity": 101,
      "chip": "ym2612"
    },
    {
      "channel": 1,
      "note": 54,
      "start": 6.6638,
      "duration": 0.0832,
      "velocity": 100,
      "chip": "ym2612"
    },
    {
      "channel": 2,
      "note": 62,
      "start": 6.6652,
      "duration": 0.2151,
      "velocity": 116,
      "chip": "ym2612"
    },
    {
      "channel": 3,
      "note": 82,
      "start": 6.6656,
      "duration": 0.0815,
      "velocity": 101,
      "chip": "ym2612"
    },
    {
      "channel": 4,
      "note": 70,
      "start": 6.6659,
      "duration": 0.0812,
      "velocity": 101,
      "chip": "ym2612"
    },
    {
      "channel": 0,
      "note": 70,
      "start": 6.797,
      "duration": 0.0831,
      "velocity": 110,
      "chip": "ym2612"
    },
    {
      "channel": 1,
      "note": 61,
      "start": 6.7974,
      "duration": 0.2161,
      "velocity": 100,
      "chip": "ym2612"
    },
    {
      "channel": 3,
      "note": 80,
      "start": 6.7978,
      "duration": 0.3493,
      "velocity": 101,
      "chip": "ym2612"
    },
    {
      "channel": 4,
      "note": 68,
      "start": 6.7981,
      "duration": 0.3491,
      "velocity": 101,
      "chip": "ym2612"
    },
    {
      "channel": 0,
      "note": 71,
      "start": 6.9304,
      "duration": 0.2164,
      "velocity": 110,
      "chip": "ym2612"
    },
    {
      "channel": 1,
      "note": 63,
      "start": 7.0638,
      "duration": 0.0832,
      "velocity": 100,
      "chip": "ym2612"
    },
    {
      "channel": 0,
      "note": 70,
      "start": 7.197,
      "duration": 0.0831,
      "velocity": 110,
      "chip": "ym2612"
    },
    {
      "channel": 2,
      "note": 43,
      "start": 7.1988,
      "duration": 0.2148,
      "velocity": 117,
      "chip": "ym2612"
    },
    {
      "channel": 0,
      "note": 71,
      "start": 7.3304,
      "duration": 0.2164,
      "velocity": 110,
      "chip": "ym2612"
    },
    {
      "channel": 1,
      "note": 49,
      "start": 7.4638,
      "duration": 0.0832,
      "velocity": 100,
      "chip": "ym2612"
    },
    {
      "channel": 2,
      "note": 62,
      "start": 7.4652,
      "duration": 0.2151,
      "velocity": 116,
      "chip": "ym2612"
    },
    {
      "channel": 0,
      "note": 70,
      "start": 7.597,
      "duration": 0.0831,
      "velocity": 110,
      "chip": "ym2612"
    },
    {
      "channel": 1,
      "note": 52,
      "start": 7.5974,
      "duration": 0.8828,
      "velocity": 100,
      "chip": "ym2612"
    },
    {
      "channel": 0,
      "note": 71,
      "start": 7.7304,
      "duration": 0.2164,
      "velocity": 110,
      "chip": "ym2612"
    },
    {
      "channel": 0,
      "note": 73,
      "start": 7.997,
      "duration": 0.2164,
      "velocity": 110,
      "chip": "ym2612"
    },
    {
      "channel": 2,
      "note": 62,
      "start": 7.9986,
      "duration": 0.2151,
      "velocity": 116,
      "chip": "ym2612"
    },
    {
      "channel": 0,
      "note": 73,
      "start": 8.2637,
      "duration": 0.2164,
      "velocity": 110,
      "chip": "ym2612"
    },
    {
      "channel": 2,
      "note": 43,
      "start": 8.2652,
      "duration": 0.2151,
      "velocity": 117,
      "chip": "ym2612"
    },
    {
      "channel": 0,
      "note": 77,
      "start": 8.5304,
      "duration": 0.0831,
      "velocity": 110,
      "chip": "ym2612"
    },
    {
      "channel": 1,
      "note": 54,
      "start": 8.5307,
      "duration": 0.2161,
      "velocity": 100,
      "chip": "ym2612"
    },
    {
      "channel": 2,
      "note": 43,
      "start": 8.5323,
      "duration": 0.2146,
      "velocity": 117,
      "chip": "ym2612"
    },
    {
      "channel": 3,
      "note": 90,
      "start": 8.5327,
      "duration": 0.0809,
      "velocity": 101,
      "chip": "ym2612"
    },
    {
      "channel": 4,
      "note": 78,
      "start": 8.5332,
      "duration": 0.0806,
      "velocity": 101,
      "chip": "ym2612"
    },
    {
      "channel": 0,
      "note": 78,
      "start": 8.6637,
      "duration": 0.2164,
      "velocity": 110,
      "chip": "ym2612"
    },
    {
      "channel": 3,
      "note": 90,
      "start": 8.6641,
      "duration": 0.0829,
      "velocity": 101,
      "chip": "ym2612"
    },
    {
      "channel": 4,
      "note": 78,
      "start": 8.6645,
      "duration": 0.0827,
      "velocity": 101,
      "chip": "ym2612"
    },
    {
      "channel": 1,
      "note": 54,
      "start": 8.7971,
      "duration": 0.0832,
      "velocity": 100,
      "chip": "ym2612"
    },
    {
      "channel": 2,
      "note": 62,
      "start": 8.7986,
      "duration": 0.2151,
      "velocity": 116,
      "chip": "ym2612"
    },
    {
      "channel": 3,
      "note": 89,
      "start": 8.799,
      "duration": 0.2147,
      "velocity": 101,
      "chip": "ym2612"
    },
    {
      "channel": 4,
      "note": 77,
      "start": 8.7993,
      "duration": 0.2146,
      "velocity": 101,
      "chip": "ym2612"
    },
    {
      "channel": 0,
      "note": 77,
      "start": 8.9304,
      "duration": 0.0831,
      "velocity": 110,
      "chip": "ym2612"
    },
    {
      "channel": 1,
      "note": 61,
      "start": 8.9307,
      "duration": 0.2161,
      "velocity": 100,
      "chip": "ym2612"
    },
    {
      "channel": 0,
      "note": 78,
      "start": 9.0637,
      "duration": 0.2164,
      "velocity": 110,
      "chip": "ym2612"
    },
    {
      "channel": 3,
      "note": 90,
      "start": 9.0644,
      "duration": 0.216,
      "velocity": 101,
      "chip": "ym2612"
    },
    {
      "channel": 4,
      "note": 78,
      "start": 9.0647,
      "duration": 0.2159,
      "velocity": 101,
      "chip": "ym2612"
    },
    {
      "channel": 1,
      "note": 63,
      "start": 9.1971,
      "duration": 0.0832,
      "velocity": 100,
      "chip": "ym2612"
    },
    {
      "channel": 0,
      "note": 77,
      "start": 9.3304,
      "duration": 0.0831,
      "velocity": 110,
      "chip": "ym2612"
    },
    {
      "channel": 2,
      "note": 62,
      "start": 9.3322,
      "duration": 0.2148,
      "velocity": 116,
      "chip": "ym2612"
    },
    {
      "channel": 3,
      "note": 87,
      "start": 9.3325,
      "duration": 0.0811,
      "velocity": 101,
      "chip": "ym2612"
    },
    {
      "channel": 4,
      "note": 75,
      "start": 9.3329,
      "duration": 0.0809,
      "velocity": 101,
      "chip": "ym2612"
    },
    {
      "channel": 0,
      "note": 78,
      "start": 9.4637,
      "duration": 0.2164,
      "velocity": 110,
      "chip": "ym2612"
    },
    {
      "channel": 3,
      "note": 85,
      "start": 9.4641,
      "duration": 0.2162,
      "velocity": 101,
      "chip": "ym2612"
    },
    {
      "channel": 4,
      "note": 73,
      "start": 9.4645,
      "duration": 0.216,
      "velocity": 101,
      "chip": "ym2612"
    },
    {
      "channel": 1,
      "note": 49,
      "start": 9.5971,
      "duration": 0.0832,
      "velocity": 100,
      "chip": "ym2612"
    },
    {
      "channel": 2,
      "note": 62,
      "start": 9.5986,
      "duration": 0.2151,
      "velocity": 116,
      "chip": "ym2612"
    },
    {
      "channel": 0,
      "note": 77,
      "start": 9.7304,
      "duration": 0.0831,
      "velocity": 110,
      "chip": "ym2612"
    },
    {
      "channel": 1,
      "note": 52,
      "start": 9.7307,
      "duration": 0.8828,
      "velocity": 100,
      "chip": "ym2612"
    },
    {
      "channel": 3,
      "note": 85,
      "start": 9.7311,
      "duration": 0.2159,
      "velocity": 101,
      "chip": "ym2612"
    },
    {
      "channel": 4,
      "note": 73,
      "start": 9.7315,
      "duration": 0.2156,
      "velocity": 101,
      "chip": "ym2612"
    },
    {
      "channel": 0,
      "note": 78,
      "start": 9.8637,
      "duration": 0.2164,
      "velocity": 110,
      "chip": "ym2612"
    },
    {
      "channel": 3,
      "note": 82,
      "start": 9.9972,
      "duration": 0.0832,
      "velocity": 101,
      "chip": "ym2612"
    },
    {
      "channel": 4,
      "note": 70,
      "start": 9.9975,
      "duration": 0.083,
      "velocity": 101,
      "chip": "ym2612"
    },
    {
      "channel": 0,
      "note": 81,
      "start": 10.1304,
      "duration": 0.2164,
      "velocity": 110,
      "chip": "ym2612"
    },
    {
      "channel": 2,
      "note": 62,
      "start": 10.1319,
      "duration": 0.2151,
      "velocity": 116,
      "chip": "ym2612"
    },
    {
      "channel": 3,
      "note": 85,
      "start": 10.1322,
      "duration": 0.2148,
      "velocity": 101,
      "chip": "ym2612"
    },
    {
      "channel": 4,
      "note": 73,
      "start": 10.1326,
      "duration": 0.2146,
      "velocity": 101,
      "chip": "ym2612"
    },
    {
      "channel": 0,
      "note": 81,
      "start": 10.397,
      "duration": 0.2164,
      "velocity": 110,
      "chip": "ym2612"
    },
    {
      "channel": 2,
      "note": 43,
      "start": 10.3986,
      "duration": 0.2151,
      "velocity": 117,
      "chip": "ym2612"
    },
    {
      "channel": 3,
      "note": 87,
      "start": 10.3989,
      "duration": 0.2149,
      "velocity": 101,
      "chip": "ym2612"
    },
    {
      "channel": 4,
      "note": 75,
      "start": 10.3993,
      "duration": 0.2146,
      "velocity": 101,
      "chip": "ym2612"
    },
    {
      "channel": 0,
      "note": 77,
      "start": 10.6637,
      "duration": 0.0831,
      "velocity": 110,
      "chip": "ym2612"
    },
    {
      "channel": 1,
      "note": 54,
      "start": 10.6641,
      "duration": 0.2161,
      "velocity": 100,
      "chip": "ym2612"
    },
    {
      "channel": 2,
      "note": 43,
      "start": 10.6657,
      "duration": 0.2146,
      "velocity": 117,
      "chip": "ym2612"
    },
    {
      "channel": 3,
      "note": 90,
      "start": 10.6661,
      "duration": 0.0809,
      "velocity": 101,
      "chip": "ym2612"
    },
    {
      "channel": 4,
      "note": 78,
      "start": 10.6665,
      "duration": 0.0806,
      "velocity": 101,
      "chip": "ym2612"
    },
    {
      "channel": 0,
      "note": 78,
      "start": 10.797,
      "duration": 0.2164,
      "velocity": 110,
      "chip": "ym2612"
    },
    {
      "channel": 3,
      "note": 90,
      "start": 10.7974,
      "duration": 0.0829,
      "velocity": 101,
      "chip": "ym2612"
    },
    {
      "channel": 4,
      "note": 78,
      "start": 10.7978,
      "duration": 0.0827,
      "velocity": 101,
      "chip": "ym2612"
    },
    {
      "channel": 1,
      "note": 54,
      "start": 10.9304,
      "duration": 0.0832,
      "velocity": 100,
      "chip": "ym2612"
    },
    {
      "channel": 2,
      "note": 62,
      "start": 10.9319,
      "duration": 0.2151,
      "velocity": 116,
      "chip": "ym2612"
    },
    {
      "channel": 3,
      "note": 89,
      "start": 10.9323,
      "duration": 0.2147,
      "velocity": 101,
      "chip": "ym2612"
    },
    {
      "channel": 4,
      "note": 77,
      "start": 10.9326,
      "duration": 0.2146,
      "velocity": 101,
      "chip": "ym2612"
    },
    {
      "channel": 0,
      "note": 77,
      "start": 11.0637,
      "duration": 0.0831,
      "velocity": 110,
      "chip": "ym2612"
    },
    {
      "channel": 1,
      "note": 61,
      "start": 11.0641,
      "duration": 0.2161,
      "velocity": 100,
      "chip": "ym2612"
    },
    {
      "channel": 0,
      "note": 78,
      "start": 11.197,
      "duration": 0.2164,
      "velocity": 110,
      "chip": "ym2612"
    },
    {
      "channel": 3,
      "note": 90,
      "start": 11.1977,
      "duration": 0.216,
      "velocity": 101,
      "chip": "ym2612"
    },
    {
      "channel": 4,
      "note": 78,
      "start": 11.198,
      "duration": 0.2159,
      "velocity": 101,
      "chip": "ym2612"
    },
    {
      "channel": 1,
      "note": 63,
      "start": 11.3304,
      "duration": 0.0832,
      "velocity": 100,
      "chip": "ym2612"
    },
    {
      "channel": 0,
      "note": 77,
      "start": 11.4637,
      "duration": 0.0831,
      "velocity": 110,
      "chip": "ym2612"
    },
    {
      "channel": 2,
      "note": 43,
      "start": 11.4655,
      "duration": 0.2148,
      "velocity": 117,
      "chip": "ym2612"
    },
    {
      "channel": 3,
      "note": 87,
      "start": 11.4659,
      "duration": 0.0811,
      "velocity": 101,
      "chip": "ym2612"
    },
    {
      "channel": 4,
      "note": 75,
      "start": 11.4662,
      "duration": 0.0809,
      "velocity": 101,
      "chip": "ym2612"
    },
    {
      "channel": 0,
      "note": 78,
      "start": 11.597,
      "duration": 0.2164,
      "velocity": 110,
      "chip": "ym2612"
    },
    {
      "channel": 3,
      "note": 85,
      "start": 11.5975,
      "duration": 0.2162,
      "velocity": 101,
      "chip": "ym2612"
    },
    {
      "channel": 4,
      "note": 73,
      "start": 11.5978,
      "duration": 0.216,
      "velocity": 101,
      "chip": "ym2612"
    },
    {
      "channel": 1,
      "note": 49,
      "start": 11.7304,
      "duration": 0.0832,
      "velocity": 100,
      "chip": "ym2612"
    },
    {
      "channel": 2,
      "note": 62,
      "start": 11.7319,
      "duration": 0.2151,
      "velocity": 116,
      "chip": "ym2612"
    },
    {
      "channel": 0,
      "note": 77,
      "start": 11.8637,
      "duration": 0.0831,
      "velocity": 110,
      "chip": "ym2612"
    },
    {
      "channel": 1,
      "note": 52,
      "start": 11.8641,
      "duration": 0.8828,
      "velocity": 100,
      "chip": "ym2612"
    },
    {
      "channel": 3,
      "note": 85,
      "start": 11.8644,
      "duration": 0.2159,
      "velocity": 101,
      "chip": "ym2612"
    },
    {
      "channel": 4,
      "note": 73,
      "start": 11.8648,
      "duration": 0.2156,
      "velocity": 101,
      "chip": "ym2612"
    },
    {
      "channel": 0,
      "note": 78,
      "start": 11.997,
      "duration": 0.2164,
      "velocity": 110,
      "chip": "ym2612"
    },
    {
      "channel": 3,
      "note": 82,
      "start": 12.1305,
      "duration": 0.0832,
      "velocity": 101,
      "chip": "ym2612"
    },
    {
      "channel": 4,
      "note": 70,
      "start": 12.1308,
      "duration": 0.083,
      "velocity": 101,
      "chip": "ym2612"
    },
    {
      "channel": 0,
      "note": 81,
      "start": 12.2637,
      "duration": 0.2164,
      "velocity": 110,
      "chip": "ym2612"
    },
    {
      "channel": 2,
      "note": 62,
      "start": 12.2652,
      "duration": 0.2151,
      "velocity": 116,
      "chip": "ym2612"
    },
    {
      "channel": 3,
      "note": 85,
      "start": 12.2656,
      "duration": 0.2148,
      "velocity": 101,
      "chip": "ym2612"
    },
    {
      "channel": 4,
      "note": 73,
      "start": 12.2659,
      "duration": 0.2146,
      "velocity": 101,
      "chip": "ym2612"
    },
    {
      "channel": 0,
      "note": 81,
      "start": 12.5304,
      "duration": 0.2164,
      "velocity": 110,
      "chip": "ym2612"
    },
    {
      "channel": 2,
      "note": 43,
      "start": 12.5319,
      "duration": 0.2151,
      "velocity": 117,
      "chip": "ym2612"
    },
    {
      "channel": 3,
      "note": 87,
      "start": 12.5322,
      "duration": 0.2149,
      "velocity": 101,
      "chip": "ym2612"
    },
    {
      "channel": 4,
      "note": 75,
      "start": 12.5326,
      "duration": 0.2146,
      "velocity": 101,
      "chip": "ym2612"
    },
    {
      "channel": 0,
      "note": 70,
      "start": 12.797,
      "duration": 0.0831,
      "velocity": 110,
      "chip": "ym2612"
    },
    {
      "channel": 1,
      "note": 54,
      "start": 12.7974,
      "duration": 0.2161,
      "velocity": 100,
      "chip": "ym2612"
    },
    {
      "channel": 2,
      "note": 43,
      "start": 12.799,
      "duration": 0.2146,
      "velocity": 117,
      "chip": "ym2612"
    },
    {
      "channel": 3,
      "note": 82,
      "start": 12.7994,
      "duration": 0.0809,
      "velocity": 101,
      "chip": "ym2612"
    },
    {
      "channel": 4,
      "note": 70,
      "start": 12.7998,
      "duration": 0.0806,
      "velocity": 101,
      "chip": "ym2612"
    },
    {
      "channel": 0,
      "note": 71,
      "start": 12.9304,
      "duration": 0.2164,
      "velocity": 110,
      "chip": "ym2612"
    },
    {
      "channel": 3,
      "note": 85,
      "start": 12.9308,
      "duration": 0.0829,
      "velocity": 101,
      "chip": "ym2612"
    },
    {
      "channel": 4,
      "note": 73,
      "start": 12.9311,
      "duration": 0.0827,
      "velocity": 101,
      "chip": "ym2612"
    },
    {
      "channel": 1,
      "note": 54,
      "start": 13.0638,
      "duration": 0.0832,
      "velocity": 100,
      "chip": "ym2612"
    },
    {
      "channel": 2,
      "note": 62,
      "start": 13.0652,
      "duration": 0.2151,
      "velocity": 116,
      "chip": "ym2612"
    },
    {
      "channel": 3,
      "note": 82,
      "start": 13.0656,
      "duration": 0.0815,
      "velocity": 101,
      "chip": "ym2612"
    },
    {
      "channel": 4,
      "note": 70,
      "start": 13.0659,
      "duration": 0.0812,
      "velocity": 101,
      "chip": "ym2612"
    },
    {
      "channel": 0,
      "note": 70,
      "start": 13.197,
      "duration": 0.0831,
      "velocity": 110,
      "chip": "ym2612"
    },
    {
      "channel": 1,
      "note": 61,
      "start": 13.1974,
      "duration": 0.2161,
      "velocity": 100,
      "chip": "ym2612"
    },
    {
      "channel": 3,
      "note": 80,
      "start": 13.1978,
      "duration": 0.3493,
      "velocity": 101,
      "chip": "ym2612"
    },
    {
      "channel": 4,
      "note": 68,
      "start": 13.1981,
      "duration": 0.3491,
      "velocity": 101,
      "chip": "ym2612"
    },
    {
      "channel": 0,
      "note": 71,
      "start": 13.3304,
      "duration": 0.2164,
      "velocity": 110,
      "chip": "ym2612"
    },
    {
      "channel": 1,
      "note": 63,
      "start": 13.4638,
      "duration": 0.0832,
      "velocity": 100,
      "chip": "ym2612"
    },
    {
      "channel": 0,
      "note": 70,
      "start": 13.597,
      "duration": 0.0831,
      "velocity": 110,
      "chip": "ym2612"
    },
    {
      "channel": 2,
      "note": 62,
      "start": 13.5988,
      "duration": 0.2148,
      "velocity": 116,
      "chip": "ym2612"
    },
    {
      "channel": 0,
      "note": 71,
      "start": 13.7304,
      "duration": 0.2164,
      "velocity": 110,
      "chip": "ym2612"
    },
    {
      "channel": 1,
      "note": 49,
      "start": 13.8638,
      "duration": 0.0832,
      "velocity": 100,
      "chip": "ym2612"
    },
    {
      "channel": 2,
      "note": 62,
      "start": 13.8652,
      "duration": 0.2151,
      "velocity": 116,
      "chip": "ym2612"
    },
    {
      "channel": 0,
      "note": 70,
      "start": 13.997,
      "duration": 0.0831,
      "velocity": 110,
      "chip": "ym2612"
    },
    {
      "channel": 1,
      "note": 52,
      "start": 13.9974,
      "duration": 0.8828,
      "velocity": 100,
      "chip": "ym2612"
    },
    {
      "channel": 0,
      "note": 71,
      "start": 14.1304,
      "duration": 0.2164,
      "velocity": 110,
      "chip": "ym2612"
    },
    {
      "channel": 0,
      "note": 73,
      "start": 14.397,
      "duration": 0.2164,
      "velocity": 110,
      "chip": "ym2612"
    },
    {
      "channel": 2,
      "note": 62,
      "start": 14.3986,
      "duration": 0.2151,
      "velocity": 116,
      "chip": "ym2612"
    },
    {
      "channel": 0,
      "note": 73,
      "start": 14.6637,
      "duration": 0.2164,
      "velocity": 110,
      "chip": "ym2612"
    },
    {
      "channel": 2,
      "note": 43,
      "start": 14.6652,
      "duration": 0.2151,
      "velocity": 117,
      "chip": "ym2612"
    },
    {
      "channel": 0,
      "note": 70,
      "start": 14.9304,
      "duration": 0.0831,
      "velocity": 110,
      "chip": "ym2612"
    },
    {
      "channel": 1,
      "note": 54,
      "start": 14.9307,
      "duration": 0.2161,
      "velocity": 100,
      "chip": "ym2612"
    },
    {
      "channel": 2,
      "note": 43,
      "start": 14.9323,
      "duration": 0.2146,
      "velocity": 117,
      "chip": "ym2612"
    },
    {
      "channel": 3,
      "note": 82,
      "start": 14.9327,
      "duration": 0.0809,
      "velocity": 101,
      "chip": "ym2612"
    },
    {
      "channel": 4,
      "note": 70,
      "start": 14.9332,
      "duration": 0.0806,
      "velocity": 101,
      "chip": "ym2612"
    },
    {
      "channel": 0,
      "note": 71,
      "start": 15.0637,
      "duration": 0.2164,
      "velocity": 110,
      "chip": "ym2612"
    },
    {
      "channel": 3,
      "note": 85,
      "start": 15.0641,
      "duration": 0.0829,
      "velocity": 101,
      "chip": "ym2612"
    },
    {
      "channel": 4,
      "note": 73,
      "start": 15.0645,
      "duration": 0.0827,
      "velocity": 101,
      "chip": "ym2612"
    },
    {
      "channel": 1,
      "note": 54,
      "start": 15.1971,
      "duration": 0.0832,
      "velocity": 100,
      "chip": "ym2612"
    },
    {
      "channel": 2,
      "note": 62,
      "start": 15.1986,
      "duration": 0.2151,
      "velocity": 116,
      "chip": "ym2612"
    },
    {
      "channel": 3,
      "note": 82,
      "start": 15.1989,
      "duration": 0.0815,
      "velocity": 101,
      "chip": "ym2612"
    },
    {
      "channel": 4,
      "note": 70,
      "start": 15.1993,
      "duration": 0.0812,
      "velocity": 101,
      "chip": "ym2612"
    },
    {
      "channel": 0,
      "note": 70,
      "start": 15.3304,
      "duration": 0.0831,
      "velocity": 110,
      "chip": "ym2612"
    },
    {
      "channel": 1,
      "note": 61,
      "start": 15.3307,
      "duration": 0.2161,
      "velocity": 100,
      "chip": "ym2612"
    },
    {
      "channel": 3,
      "note": 80,
      "start": 15.3311,
      "duration": 0.3493,
      "velocity": 101,
      "chip": "ym2612"
    },
    {
      "channel": 4,
      "note": 68,
      "start": 15.3315,
      "duration": 0.3491,
      "velocity": 101,
      "chip": "ym2612"
    },
    {
      "channel": 0,
      "note": 71,
      "start": 15.4637,
      "duration": 0.2164,
      "velocity": 110,
      "chip": "ym2612"
    },
    {
      "channel": 1,
      "note": 63,
      "start": 15.5971,
      "duration": 0.0832,
      "velocity": 100,
      "chip": "ym2612"
    },
    {
      "channel": 0,
      "note": 70,
      "start": 15.7304,
      "duration": 0.0831,
      "velocity": 110,
      "chip": "ym2612"
    },
    {
      "channel": 2,
      "note": 62,
      "start": 15.7322,
      "duration": 0.2148,
      "velocity": 116,
      "chip": "ym2612"
    },
    {
      "channel": 0,
      "note": 71,
      "start": 15.8637,
      "duration": 0.2164,
      "velocity": 110,
      "chip": "ym2612"
    },
    {
      "channel": 1,
      "note": 49,
      "start": 15.9971,
      "duration": 0.0832,
      "velocity": 100,
      "chip": "ym2612"
    },
    {
      "channel": 2,
      "note": 62,
      "start": 15.9986,
      "duration": 0.2151,
      "velocity": 116,
      "chip": "ym2612"
    },
    {
      "channel": 0,
      "note": 70,
      "start": 16.1304,
      "duration": 0.0831,
      "velocity": 110,
      "chip": "ym2612"
    },
    {
      "channel": 1,
      "note": 52,
      "start": 16.1307,
      "duration": 0.8828,
      "velocity": 100,
      "chip": "ym2612"
    },
    {
      "channel": 0,
      "note": 71,
      "start": 16.2637,
      "duration": 0.2164,
      "velocity": 110,
      "chip": "ym2612"
    },
    {
      "channel": 0,
      "note": 73,
      "start": 16.5304,
      "duration": 0.2164,
      "velocity": 110,
      "chip": "ym2612"
    },
    {
      "channel": 2,
      "note": 62,
      "start": 16.5319,
      "duration": 0.2151,
      "velocity": 116,
      "chip": "ym2612"
    },
    {
      "channel": 0,
      "note": 73,
      "start": 16.797,
      "duration": 0.2164,
      "velocity": 110,
      "chip": "ym2612"
    },
    {
      "channel": 2,
      "note": 43,
      "start": 16.7986,
      "duration": 0.2151,
      "velocity": 117,
      "chip": "ym2612"
    },
    {
      "channel": 0,
      "note": 77,
      "start": 17.0637,
      "duration": 0.0831,
      "velocity": 110,
      "chip": "ym2612"
    },
    {
      "channel": 1,
      "note": 54,
      "start": 17.0641,
      "duration": 0.2161,
      "velocity": 100,
      "chip": "ym2612"
    },
    {
      "channel": 2,
      "note": 43,
      "start": 17.0657,
      "duration": 0.2146,
      "velocity": 117,
      "chip": "ym2612"
    },
    {
      "channel": 3,
      "note": 82,
      "start": 17.0661,
      "duration": 0.0809,
      "velocity": 101,
      "chip": "ym2612"
    },
    {
      "channel": 4,
      "note": 70,
      "start": 17.0665,
      "duration": 0.0806,
      "velocity": 101,
      "chip": "ym2612"
    },
    {
      "channel": 0,
      "note": 78,
      "start": 17.197,
      "duration": 0.2164,
      "velocity": 110,
      "chip": "ym2612"
    },
    {
      "channel": 3,
      "note": 85,
      "start": 17.1975,
      "duration": 0.0829,
      "velocity": 101,
      "chip": "ym2612"
    },
    {
      "channel": 4,
      "note": 73,
      "start": 17.1978,
      "duration": 0.0827,
      "velocity": 101,
      "chip": "ym2612"
    },
    {
      "channel": 1,
      "note": 54,
      "start": 17.3304,
      "duration": 0.0832,
      "velocity": 100,
      "chip": "ym2612"
    },
    {
      "channel": 2,
      "note": 62,
      "start": 17.3319,
      "duration": 0.2151,
      "velocity": 116,
      "chip": "ym2612"
    },
    {
      "channel": 3,
      "note": 82,
      "start": 17.3322,
      "duration": 0.0815,
      "velocity": 101,
      "chip": "ym2612"
    },
    {
      "channel": 4,
      "note": 70,
      "start": 17.3326,
      "duration": 0.0812,
      "velocity": 101,
      "chip": "ym2612"
    },
    {
      "channel": 0,
      "note": 77,
      "start": 17.4637,
      "duration": 0.0831,
      "velocity": 110,
      "chip": "ym2612"
    },
    {
      "channel": 1,
      "note": 61,
      "start": 17.4641,
      "duration": 0.2161,
      "velocity": 100,
      "chip": "ym2612"
    },
    {
      "channel": 3,
      "note": 80,
      "start": 17.4645,
      "duration": 0.3493,
      "velocity": 101,
      "chip": "ym2612"
    },
    {
      "channel": 4,
      "note": 68,
      "start": 17.4648,
      "duration": 0.3491,
      "velocity": 101,
      "chip": "ym2612"
    },
    {
      "channel": 0,
      "note": 78,
      "start": 17.597,
      "duration": 0.2164,
      "velocity": 110,
      "chip": "ym2612"
    },
    {
      "channel": 1,
      "note": 63,
      "start": 17.7304,
      "duration": 0.0832,
      "velocity": 100,
      "chip": "ym2612"
    },
    {
      "channel": 0,
      "note": 77,
      "start": 17.8637,
      "duration": 0.0831,
      "velocity": 110,
      "chip": "ym2612"
    },
    {
      "channel": 2,
      "note": 62,
      "start": 17.8655,
      "duration": 0.2148,
      "velocity": 116,
      "chip": "ym2612"
    },
    {
      "channel": 0,
      "note": 78,
      "start": 17.997,
      "duration": 0.2164,
      "velocity": 110,
      "chip": "ym2612"
    },
    {
      "channel": 1,
      "note": 49,
      "start": 18.1304,
      "duration": 0.0832,
      "velocity": 100,
      "chip": "ym2612"
    },
    {
      "channel": 2,
      "note": 62,
      "start": 18.1319,
      "duration": 0.2151,
      "velocity": 116,
      "chip": "ym2612"
    },
    {
      "channel": 0,
      "note": 77,
      "start": 18.2637,
      "duration": 0.0831,
      "velocity": 110,
      "chip": "ym2612"
    },
    {
      "channel": 1,
      "note": 52,
      "start": 18.2641,
      "duration": 0.8828,
      "velocity": 100,
      "chip": "ym2612"
    },
    {
      "channel": 0,
      "note": 78,
      "start": 18.397,
      "duration": 0.2164,
      "velocity": 110,
      "chip": "ym2612"
    },
    {
      "channel": 0,
      "note": 81,
      "start": 18.6637,
      "duration": 0.2164,
      "velocity": 110,
      "chip": "ym2612"
    },
    {
      "channel": 2,
      "note": 62,
      "start": 18.6652,
      "duration": 0.2151,
      "velocity": 116,
      "chip": "ym2612"
    },
    {
      "channel": 0,
      "note": 81,
      "start": 18.9304,
      "duration": 0.2164,
      "velocity": 110,
      "chip": "ym2612"
    },
    {
      "channel": 2,
      "note": 43,
      "start": 18.9319,
      "duration": 0.2151,
      "velocity": 117,
      "chip": "ym2612"
    },
    {
      "channel": 0,
      "note": 77,
      "start": 19.197,
      "duration": 0.0831,
      "velocity": 110,
      "chip": "ym2612"
    },
    {
      "channel": 1,
      "note": 54,
      "start": 19.1974,
      "duration": 0.0828,
      "velocity": 100,
      "chip": "ym2612"
    },
    {
      "channel": 2,
      "note": 43,
      "start": 19.199,
      "duration": 0.0814,
      "velocity": 117,
      "chip": "ym2612"
    },
    {
      "channel": 3,
      "note": 90,
      "start": 19.1993,
      "duration": 0.0812,
      "velocity": 101,
      "chip": "ym2612"
    },
    {
      "channel": 4,
      "note": 78,
      "start": 19.1998,
      "duration": 0.0808,
      "velocity": 101,
      "chip": "ym2612"
    },
    {
      "channel": 0,
      "note": 78,
      "start": 19.3304,
      "duration": 0.2164,
      "velocity": 110,
      "chip": "ym2612"
    },
    {
      "channel": 1,
      "note": 54,
      "start": 19.3307,
      "duration": 0.0828,
      "velocity": 100,
      "chip": "ym2612"
    },
    {
      "channel": 2,
      "note": 43,
      "start": 19.3322,
      "duration": 0.0814,
      "velocity": 117,
      "chip": "ym2612"
    },
    {
      "channel": 3,
      "note": 90,
      "start": 19.3325,
      "duration": 0.0812,
      "velocity": 101,
      "chip": "ym2612"
    },
    {
      "channel": 4,
      "note": 78,
      "start": 19.3329,
      "duration": 0.081,
      "velocity": 101,
      "chip": "ym2612"
    },
    {
      "channel": 1,
      "note": 54,
      "start": 19.4637,
      "duration": 0.0832,
      "velocity": 100,
      "chip": "ym2612"
    },
    {
      "channel": 2,
      "note": 62,
      "start": 19.4652,
      "duration": 0.2151,
      "velocity": 116,
      "chip": "ym2612"
    },
    {
      "channel": 3,
      "note": 89,
      "start": 19.4656,
      "duration": 0.2149,
      "velocity": 101,
      "chip": "ym2612"
    },
    {
      "channel": 4,
      "note": 77,
      "start": 19.4659,
      "duration": 0.2146,
      "velocity": 101,
      "chip": "ym2612"
    },
    {
      "channel": 0,
      "note": 77,
      "start": 19.597,
      "duration": 0.0831,
      "velocity": 110,
      "chip": "ym2612"
    },
    {
      "channel": 1,
      "note": 61,
      "start": 19.5973,
      "duration": 0.0829,
      "velocity": 100,
      "chip": "ym2612"
    },
    {
      "channel": 0,
      "note": 78,
      "start": 19.7304,
      "duration": 0.2164,
      "velocity": 110,
      "chip": "ym2612"
    },
    {
      "channel": 1,
      "note": 51,
      "start": 19.7307,
      "duration": 0.0828,
      "velocity": 100,
      "chip": "ym2612"
    },
    {
      "channel": 2,
      "note": 43,
      "start": 19.7322,
      "duration": 0.0814,
      "velocity": 117,
      "chip": "ym2612"
    },
    {
      "channel": 3,
      "note": 90,
      "start": 19.7325,
      "duration": 0.2146,
      "velocity": 101,
      "chip": "ym2612"
    },
    {
      "channel": 4,
      "note": 78,
      "start": 19.7329,
      "duration": 0.2144,
      "velocity": 101,
      "chip": "ym2612"
    },
    {
      "channel": 1,
      "note": 63,
      "start": 19.8637,
      "duration": 0.0832,
      "velocity": 100,
      "chip": "ym2612"
    },
    {
      "channel": 2,
      "note": 43,
      "start": 19.8652,
      "duration": 0.0818,
      "velocity": 117,
      "chip": "ym2612"
    },
    {
      "channel": 0,
      "note": 77,
      "start": 19.997,
      "duration": 0.0831,
      "velocity": 110,
      "chip": "ym2612"
    },
    {
      "channel": 1,
      "note": 54,
      "start": 19.9973,
      "duration": 0.0829,
      "velocity": 100,
      "chip": "ym2612"
    },
    {
      "channel": 2,
      "note": 62,
      "start": 19.9989,
      "duration": 0.2148,
      "velocity": 116,
      "chip": "ym2612"
    },
    {
      "channel": 3,
      "note": 87,
      "start": 19.9992,
      "duration": 0.0812,
      "velocity": 101,
      "chip": "ym2612"
    },
    {
      "channel": 4,
      "note": 75,
      "start": 19.9996,
      "duration": 0.0809,
      "velocity": 101,
      "chip": "ym2612"
    },
    {
      "channel": 0,
      "note": 78,
      "start": 20.1304,
      "duration": 0.2164,
      "velocity": 110,
      "chip": "ym2612"
    },
    {
      "channel": 1,
      "note": 66,
      "start": 20.1307,
      "duration": 0.0828,
      "velocity": 100,
      "chip": "ym2612"
    },
    {
      "channel": 3,
      "note": 85,
      "start": 20.1311,
      "duration": 0.2159,
      "velocity": 101,
      "chip": "ym2612"
    },
    {
      "channel": 4,
      "note": 73,
      "start": 20.1315,
      "duration": 0.2157,
      "velocity": 101,
      "chip": "ym2612"
    },
    {
      "channel": 1,
      "note": 54,
      "start": 20.2637,
      "duration": 0.0832,
      "velocity": 100,
      "chip": "ym2612"
    },
    {
      "channel": 2,
      "note": 43,
      "start": 20.2652,
      "duration": 0.2151,
      "velocity": 117,
      "chip": "ym2612"
    },
    {
      "channel": 0,
      "note": 77,
      "start": 20.397,
      "duration": 0.0831,
      "velocity": 110,
      "chip": "ym2612"
    },
    {
      "channel": 1,
      "note": 66,
      "start": 20.3974,
      "duration": 0.0828,
      "velocity": 100,
      "chip": "ym2612"
    },
    {
      "channel": 3,
      "note": 85,
      "start": 20.3977,
      "duration": 0.216,
      "velocity": 101,
      "chip": "ym2612"
    },
    {
      "channel": 4,
      "note": 73,
      "start": 20.3981,
      "duration": 0.2157,
      "velocity": 101,
      "chip": "ym2612"
    },
    {
      "channel": 0,
      "note": 78,
      "start": 20.5304,
      "duration": 0.2164,
      "velocity": 110,
      "chip": "ym2612"
    },
    {
      "channel": 1,
      "note": 54,
      "start": 20.5307,
      "duration": 0.0828,
      "velocity": 100,
      "chip": "ym2612"
    },
    {
      "channel": 2,
      "note": 62,
      "start": 20.5322,
      "duration": 0.0814,
      "velocity": 116,
      "chip": "ym2612"
    },
    {
      "channel": 1,
      "note": 61,
      "start": 20.6638,
      "duration": 0.0832,
      "velocity": 100,
      "chip": "ym2612"
    },
    {
      "channel": 2,
      "note": 62,
      "start": 20.6652,
      "duration": 0.2151,
      "velocity": 116,
      "chip": "ym2612"
    },
    {
      "channel": 3,
      "note": 82,
      "start": 20.6656,
      "duration": 0.0814,
      "velocity": 101,
      "chip": "ym2612"
    },
    {
      "channel": 4,
      "note": 70,
      "start": 20.6659,
      "duration": 0.0812,
      "velocity": 101,
      "chip": "ym2612"
    },
    {
      "channel": 0,
      "note": 81,
      "start": 20.797,
      "duration": 0.2164,
      "velocity": 110,
      "chip": "ym2612"
    },
    {
      "channel": 1,
      "note": 54,
      "start": 20.7973,
      "duration": 0.0828,
      "velocity": 100,
      "chip": "ym2612"
    },
    {
      "channel": 3,
      "note": 85,
      "start": 20.7977,
      "duration": 0.2161,
      "velocity": 101,
      "chip": "ym2612"
    },
    {
      "channel": 4,
      "note": 73,
      "start": 20.7981,
      "duration": 0.2158,
      "velocity": 101,
      "chip": "ym2612"
    },
    {
      "channel": 1,
      "note": 63,
      "start": 20.9304,
      "duration": 0.0832,
      "velocity": 100,
      "chip": "ym2612"
    },
    {
      "channel": 2,
      "note": 62,
      "start": 20.9319,
      "duration": 0.0818,
      "velocity": 116,
      "chip": "ym2612"
    },
    {
      "channel": 0,
      "note": 81,
      "start": 21.0637,
      "duration": 0.2164,
      "velocity": 110,
      "chip": "ym2612"
    },
    {
      "channel": 1,
      "note": 54,
      "start": 21.064,
      "duration": 0.0828,
      "velocity": 100,
      "chip": "ym2612"
    },
    {
      "channel": 2,
      "note": 62,
      "start": 21.0656,
      "duration": 0.0814,
      "velocity": 116,
      "chip": "ym2612"
    },
    {
      "channel": 3,
      "note": 87,
      "start": 21.0659,
      "duration": 0.2146,
      "velocity": 101,
      "chip": "ym2612"
    },
    {
      "channel": 4,
      "note": 75,
      "start": 21.0662,
      "duration": 0.2144,
      "velocity": 101,
      "chip": "ym2612"
    },
    {
      "channel": 1,
      "note": 63,
      "start": 21.197,
      "duration": 0.0832,
      "velocity": 100,
      "chip": "ym2612"
    },
    {
      "channel": 2,
      "note": 62,
      "start": 21.1986,
      "duration": 0.0818,
      "velocity": 116,
      "chip": "ym2612"
    },
    {
      "channel": 0,
      "note": 77,
      "start": 21.3304,
      "duration": 0.0831,
      "velocity": 110,
      "chip": "ym2612"
    },
    {
      "channel": 1,
      "note": 54,
      "start": 21.3307,
      "duration": 0.0829,
      "velocity": 100,
      "chip": "ym2612"
    },
    {
      "channel": 2,
      "note": 43,
      "start": 21.3322,
      "duration": 0.0815,
      "velocity": 117,
      "chip": "ym2612"
    },
    {
      "channel": 3,
      "note": 90,
      "start": 21.3327,
      "duration": 0.0812,
      "velocity": 101,
      "chip": "ym2612"
    },
    {
      "channel": 4,
      "note": 78,
      "start": 21.333,
      "duration": 0.0809,
      "velocity": 101,
      "chip": "ym2612"
    },
    {
      "channel": 0,
      "note": 78,
      "start": 21.4637,
      "duration": 0.2164,
      "velocity": 110,
      "chip": "ym2612"
    },
    {
      "channel": 1,
      "note": 54,
      "start": 21.464,
      "duration": 0.0828,
      "velocity": 100,
      "chip": "ym2612"
    },
    {
      "channel": 2,
      "note": 43,
      "start": 21.4656,
      "duration": 0.0814,
      "velocity": 117,
      "chip": "ym2612"
    },
    {
      "channel": 3,
      "note": 90,
      "start": 21.4659,
      "duration": 0.0812,
      "velocity": 101,
      "chip": "ym2612"
    },
    {
      "channel": 4,
      "note": 78,
      "start": 21.4662,
      "duration": 0.081,
      "velocity": 101,
      "chip": "ym2612"
    },
    {
      "channel": 1,
      "note": 54,
      "start": 21.597,
      "duration": 0.0832,
      "velocity": 100,
      "chip": "ym2612"
    },
    {
      "channel": 2,
      "note": 62,
      "start": 21.5986,
      "duration": 0.2151,
      "velocity": 116,
      "chip": "ym2612"
    },
    {
      "channel": 3,
      "note": 89,
      "start": 21.5989,
      "duration": 0.2149,
      "velocity": 101,
      "chip": "ym2612"
    },
    {
      "channel": 4,
      "note": 77,
      "start": 21.5993,
      "duration": 0.2146,
      "velocity": 101,
      "chip": "ym2612"
    },
    {
      "channel": 0,
      "note": 77,
      "start": 21.7304,
      "duration": 0.0831,
      "velocity": 110,
      "chip": "ym2612"
    },
    {
      "channel": 1,
      "note": 61,
      "start": 21.7307,
      "duration": 0.0829,
      "velocity": 100,
      "chip": "ym2612"
    },
    {
      "channel": 0,
      "note": 78,
      "start": 21.8637,
      "duration": 0.2164,
      "velocity": 110,
      "chip": "ym2612"
    },
    {
      "channel": 1,
      "note": 51,
      "start": 21.864,
      "duration": 0.0828,
      "velocity": 100,
      "chip": "ym2612"
    },
    {
      "channel": 2,
      "note": 43,
      "start": 21.8656,
      "duration": 0.0814,
      "velocity": 117,
      "chip": "ym2612"
    },
    {
      "channel": 3,
      "note": 90,
      "start": 21.8659,
      "duration": 0.2146,
      "velocity": 101,
      "chip": "ym2612"
    },
    {
      "channel": 4,
      "note": 78,
      "start": 21.8662,
      "duration": 0.2144,
      "velocity": 101,
      "chip": "ym2612"
    },
    {
      "channel": 1,
      "note": 63,
      "start": 21.997,
      "duration": 0.0832,
      "velocity": 100,
      "chip": "ym2612"
    },
    {
      "channel": 2,
      "note": 43,
      "start": 21.9986,
      "duration": 0.0818,
      "velocity": 117,
      "chip": "ym2612"
    },
    {
      "channel": 0,
      "note": 77,
      "start": 22.1304,
      "duration": 0.0831,
      "velocity": 110,
      "chip": "ym2612"
    },
    {
      "channel": 1,
      "note": 54,
      "start": 22.1307,
      "duration": 0.0829,
      "velocity": 100,
      "chip": "ym2612"
    },
    {
      "channel": 2,
      "note": 62,
      "start": 22.1322,
      "duration": 0.2148,
      "velocity": 116,
      "chip": "ym2612"
    },
    {
      "channel": 3,
      "note": 87,
      "start": 22.1325,
      "duration": 0.0812,
      "velocity": 101,
      "chip": "ym2612"
    },
    {
      "channel": 4,
      "note": 75,
      "start": 22.1329,
      "duration": 0.0809,
      "velocity": 101,
      "chip": "ym2612"
    },
    {
      "channel": 0,
      "note": 78,
      "start": 22.2637,
      "duration": 0.2164,
      "velocity": 110,
      "chip": "ym2612"
    },
    {
      "channel": 1,
      "note": 66,
      "start": 22.264,
      "duration": 0.0828,
      "velocity": 100,
      "chip": "ym2612"
    },
    {
      "channel": 3,
      "note": 85,
      "start": 22.2645,
      "duration": 0.2159,
      "velocity": 101,
      "chip": "ym2612"
    },
    {
      "channel": 4,
      "note": 73,
      "start": 22.2648,
      "duration": 0.2157,
      "velocity": 101,
      "chip": "ym2612"
    },
    {
      "channel": 1,
      "note": 54,
      "start": 22.397,
      "duration": 0.0832,
      "velocity": 100,
      "chip": "ym2612"
    },
    {
      "channel": 2,
      "note": 43,
      "start": 22.3986,
      "duration": 0.2151,
      "velocity": 117,
      "chip": "ym2612"
    },
    {
      "channel": 0,
      "note": 77,
      "start": 22.5304,
      "duration": 0.0831,
      "velocity": 110,
      "chip": "ym2612"
    },
    {
      "channel": 1,
      "note": 66,
      "start": 22.5307,
      "duration": 0.0829,
      "velocity": 100,
      "chip": "ym2612"
    },
    {
      "channel": 3,
      "note": 85,
      "start": 22.5311,
      "duration": 0.216,
      "velocity": 101,
      "chip": "ym2612"
    },
    {
      "channel": 4,
      "note": 73,
      "start": 22.5314,
      "duration": 0.2158,
      "velocity": 101,
      "chip": "ym2612"
    },
    {
      "channel": 0,
      "note": 78,
      "start": 22.6637,
      "duration": 0.2164,
      "velocity": 110,
      "chip": "ym2612"
    },
    {
      "channel": 1,
      "note": 54,
      "start": 22.664,
      "duration": 0.0828,
      "velocity": 100,
      "chip": "ym2612"
    },
    {
      "channel": 2,
      "note": 62,
      "start": 22.6656,
      "duration": 0.0814,
      "velocity": 116,
      "chip": "ym2612"
    },
    {
      "channel": 1,
      "note": 61,
      "start": 22.797,
      "duration": 0.0832,
      "velocity": 100,
      "chip": "ym2612"
    },
    {
      "channel": 2,
      "note": 62,
      "start": 22.7986,
      "duration": 0.2151,
      "velocity": 116,
      "chip": "ym2612"
    },
    {
      "channel": 3,
      "note": 82,
      "start": 22.7989,
      "duration": 0.0815,
      "velocity": 101,
      "chip": "ym2612"
    },
    {
      "channel": 4,
      "note": 70,
      "start": 22.7993,
      "duration": 0.0812,
      "velocity": 101,
      "chip": "ym2612"
    },
    {
      "channel": 0,
      "note": 81,
      "start": 22.9304,
      "duration": 0.2164,
      "velocity": 110,
      "chip": "ym2612"
    },
    {
      "channel": 1,
      "note": 54,
      "start": 22.9307,
      "duration": 0.0828,
      "velocity": 100,
      "chip": "ym2612"
    },
    {
      "channel": 3,
      "note": 85,
      "start": 22.9311,
      "duration": 0.2161,
      "velocity": 101,
      "chip": "ym2612"
    },
    {
      "channel": 4,
      "note": 73,
      "start": 22.9315,
      "duration": 0.2158,
      "velocity": 101,
      "chip": "ym2612"
    },
    {
      "channel": 1,
      "note": 63,
      "start": 23.0637,
      "duration": 0.0832,
      "velocity": 100,
      "chip": "ym2612"
    },
    {
      "channel": 2,
      "note": 62,
      "start": 23.0652,
      "duration": 0.0818,
      "velocity": 116,
      "chip": "ym2612"
    },
    {
      "channel": 0,
      "note": 81,
      "start": 23.197,
      "duration": 0.2164,
      "velocity": 110,
      "chip": "ym2612"
    },
    {
      "channel": 1,
      "note": 54,
      "start": 23.1973,
      "duration": 0.0828,
      "velocity": 100,
      "chip": "ym2612"
    },
    {
      "channel": 2,
      "note": 62,
      "start": 23.1989,
      "duration": 0.0814,
      "velocity": 116,
      "chip": "ym2612"
    },
    {
      "channel": 3,
      "note": 87,
      "start": 23.1992,
      "duration": 0.2146,
      "velocity": 101,
      "chip": "ym2612"
    },
    {
      "channel": 4,
      "note": 75,
      "start": 23.1995,
      "duration": 0.2144,
      "velocity": 101,
      "chip": "ym2612"
    },
    {
      "channel": 1,
      "note": 63,
      "start": 23.3304,
      "duration": 0.0832,
      "velocity": 100,
      "chip": "ym2612"
    },
    {
      "channel": 2,
      "note": 62,
      "start": 23.3319,
      "duration": 0.0818,
      "velocity": 116,
      "chip": "ym2612"
    },
    {
      "channel": 0,
      "note": 70,
      "start": 23.4637,
      "duration": 0.0831,
      "velocity": 110,
      "chip": "ym2612"
    },
    {
      "channel": 1,
      "note": 54,
      "start": 23.464,
      "duration": 0.0829,
      "velocity": 100,
      "chip": "ym2612"
    },
    {
      "channel": 2,
      "note": 43,
      "start": 23.4656,
      "duration": 0.0815,
      "velocity": 117,
      "chip": "ym2612"
    },
    {
      "channel": 3,
      "note": 82,
      "start": 23.466,
      "duration": 0.0812,
      "velocity": 101,
      "chip": "ym2612"
    },
    {
      "channel": 4,
      "note": 70,
      "start": 23.4664,
      "duration": 0.0809,
      "velocity": 101,
      "chip": "ym2612"
    },
    {
      "channel": 0,
      "note": 71,
      "start": 23.597,
      "duration": 0.2164,
      "velocity": 110,
      "chip": "ym2612"
    },
    {
      "channel": 1,
      "note": 54,
      "start": 23.5973,
      "duration": 0.0828,
      "velocity": 100,
      "chip": "ym2612"
    },
    {
      "channel": 2,
      "note": 43,
      "start": 23.5989,
      "duration": 0.0814,
      "velocity": 117,
      "chip": "ym2612"
    },
    {
      "channel": 3,
      "note": 85,
      "start": 23.5992,
      "duration": 0.0812,
      "velocity": 101,
      "chip": "ym2612"
    },
    {
      "channel": 4,
      "note": 73,
      "start": 23.5995,
      "duration": 0.081,
      "velocity": 101,
      "chip": "ym2612"
    },
    {
      "channel": 1,
      "note": 54,
      "start": 23.7304,
      "duration": 0.0832,
      "velocity": 100,
      "chip": "ym2612"
    },
    {
      "channel": 2,
      "note": 62,
      "start": 23.7319,
      "duration": 0.2151,
      "velocity": 116,
      "chip": "ym2612"
    },
    {
      "channel": 3,
      "note": 82,
      "start": 23.7322,
      "duration": 0.0815,
      "velocity": 101,
      "chip": "ym2612"
    },
    {
      "channel": 4,
      "note": 70,
      "start": 23.7326,
      "duration": 0.0812,
      "velocity": 101,
      "chip": "ym2612"
    },
    {
      "channel": 0,
      "note": 70,
      "start": 23.8637,
      "duration": 0.0831,
      "velocity": 110,
      "chip": "ym2612"
    },
    {
      "channel": 1,
      "note": 61,
      "start": 23.864,
      "duration": 0.0829,
      "velocity": 100,
      "chip": "ym2612"
    },
    {
      "channel": 3,
      "note": 80,
      "start": 23.8645,
      "duration": 0.3494,
      "velocity": 101,
      "chip": "ym2612"
    },
    {
      "channel": 4,
      "note": 68,
      "start": 23.8648,
      "duration": 0.3491,
      "velocity": 101,
      "chip": "ym2612"
    },
    {
      "channel": 0,
      "note": 71,
      "start": 23.997,
      "duration": 0.2164,
      "velocity": 110,
      "chip": "ym2612"
    },
    {
      "channel": 1,
      "note": 51,
      "start": 23.9973,
      "duration": 0.0828,
      "velocity": 100,
      "chip": "ym2612"
    },
    {
      "channel": 2,
      "note": 43,
      "start": 23.9989,
      "duration": 0.0814,
      "velocity": 117,
      "chip": "ym2612"
    },
    {
      "channel": 1,
      "note": 63,
      "start": 24.1304,
      "duration": 0.0832,
      "velocity": 100,
      "chip": "ym2612"
    },
    {
      "channel": 2,
      "note": 43,
      "start": 24.1319,
      "duration": 0.0818,
      "velocity": 117,
      "chip": "ym2612"
    },
    {
      "channel": 0,
      "note": 70,
      "start": 24.2637,
      "duration": 0.0831,
      "velocity": 110,
      "chip": "ym2612"
    },
    {
      "channel": 1,
      "note": 54,
      "start": 24.264,
      "duration": 0.0829,
      "velocity": 100,
      "chip": "ym2612"
    },
    {
      "channel": 2,
      "note": 62,
      "start": 24.2656,
      "duration": 0.2148,
      "velocity": 116,
      "chip": "ym2612"
    },
    {
      "channel": 0,
      "note": 71,
      "start": 24.397,
      "duration": 0.2164,
      "velocity": 110,
      "chip": "ym2612"
    },
    {
      "channel": 1,
      "note": 66,
      "start": 24.3973,
      "duration": 0.0828,
      "velocity": 100,
      "chip": "ym2612"
    },
    {
      "channel": 1,
      "note": 54,
      "start": 24.5304,
      "duration": 0.0832,
      "velocity": 100,
      "chip": "ym2612"
    },
    {
      "channel": 2,
      "note": 43,
      "start": 24.5319,
      "duration": 0.2151,
      "velocity": 117,
      "chip": "ym2612"
    },
    {
      "channel": 0,
      "note": 70,
      "start": 24.6637,
      "duration": 0.0831,
      "velocity": 110,
      "chip": "ym2612"
    },
    {
      "channel": 1,
      "note": 66,
      "start": 24.664,
      "duration": 0.0829,
      "velocity": 100,
      "chip": "ym2612"
    },
    {
      "channel": 0,
      "note": 71,
      "start": 24.797,
      "duration": 0.2164,
      "velocity": 110,
      "chip": "ym2612"
    },
    {
      "channel": 1,
      "note": 54,
      "start": 24.7973,
      "duration": 0.0828,
      "velocity": 100,
      "chip": "ym2612"
    },
    {
      "channel": 2,
      "note": 62,
      "start": 24.7989,
      "duration": 0.0814,
      "velocity": 116,
      "chip": "ym2612"
    },
    {
      "channel": 1,
      "note": 61,
      "start": 24.9304,
      "duration": 0.0832,
      "velocity": 100,
      "chip": "ym2612"
    },
    {
      "channel": 2,
      "note": 62,
      "start": 24.9319,
      "duration": 0.2151,
      "velocity": 116,
      "chip": "ym2612"
    },
    {
      "channel": 0,
      "note": 73,
      "start": 25.0637,
      "duration": 0.2164,
      "velocity": 110,
      "chip": "ym2612"
    },
    {
      "channel": 1,
      "note": 54,
      "start": 25.064,
      "duration": 0.0828,
      "velocity": 100,
      "chip": "ym2612"
    },
    {
      "channel": 1,
      "note": 63,
      "start": 25.1971,
      "duration": 0.0832,
      "velocity": 100,
      "chip": "ym2612"
    },
    {
      "channel": 2,
      "note": 62,
      "start": 25.1986,
      "duration": 0.0818,
      "velocity": 116,
      "chip": "ym2612"
    },
    {
      "channel": 0,
      "note": 73,
      "start": 25.3304,
      "duration": 0.2164,
      "velocity": 110,
      "chip": "ym2612"
    },
    {
      "channel": 1,
      "note": 63,
      "start": 25.3307,
      "duration": 0.0828,
      "velocity": 100,
      "chip": "ym2612"
    },
    {
      "channel": 2,
      "note": 62,
      "start": 25.3322,
      "duration": 0.0815,
      "velocity": 116,
      "chip": "ym2612"
    },
    {
      "channel": 1,
      "note": 63,
      "start": 25.4638,
      "duration": 0.0832,
      "velocity": 100,
      "chip": "ym2612"
    },
    {
      "channel": 2,
      "note": 62,
      "start": 25.4652,
      "duration": 0.0818,
      "velocity": 116,
      "chip": "ym2612"
    },
    {
      "channel": 0,
      "note": 70,
      "start": 25.597,
      "duration": 0.0831,
      "velocity": 110,
      "chip": "ym2612"
    },
    {
      "channel": 1,
      "note": 54,
      "start": 25.5973,
      "duration": 0.0829,
      "velocity": 100,
      "chip": "ym2612"
    },
    {
      "channel": 2,
      "note": 43,
      "start": 25.5989,
      "duration": 0.0815,
      "velocity": 117,
      "chip": "ym2612"
    },
    {
      "channel": 3,
      "note": 82,
      "start": 25.5993,
      "duration": 0.0812,
      "velocity": 101,
      "chip": "ym2612"
    },
    {
      "channel": 4,
      "note": 70,
      "start": 25.5997,
      "duration": 0.0809,
      "velocity": 101,
      "chip": "ym2612"
    },
    {
      "channel": 0,
      "note": 71,
      "start": 25.7304,
      "duration": 0.2164,
      "velocity": 110,
      "chip": "ym2612"
    },
    {
      "channel": 1,
      "note": 54,
      "start": 25.7307,
      "duration": 0.0828,
      "velocity": 100,
      "chip": "ym2612"
    },
    {
      "channel": 2,
      "note": 43,
      "start": 25.7322,
      "duration": 0.0814,
      "velocity": 117,
      "chip": "ym2612"
    },
    {
      "channel": 3,
      "note": 85,
      "start": 25.7325,
      "duration": 0.0812,
      "velocity": 101,
      "chip": "ym2612"
    },
    {
      "channel": 4,
      "note": 73,
      "start": 25.7329,
      "duration": 0.081,
      "velocity": 101,
      "chip": "ym2612"
    },
    {
      "channel": 1,
      "note": 54,
      "start": 25.8637,
      "duration": 0.0832,
      "velocity": 100,
      "chip": "ym2612"
    },
    {
      "channel": 2,
      "note": 62,
      "start": 25.8652,
      "duration": 0.2151,
      "velocity": 116,
      "chip": "ym2612"
    },
    {
      "channel": 3,
      "note": 82,
      "start": 25.8656,
      "duration": 0.0815,
      "velocity": 101,
      "chip": "ym2612"
    },
    {
      "channel": 4,
      "note": 70,
      "start": 25.8659,
      "duration": 0.0812,
      "velocity": 101,
      "chip": "ym2612"
    },
    {
      "channel": 0,
      "note": 70,
      "start": 25.997,
      "duration": 0.0831,
      "velocity": 110,
      "chip": "ym2612"
    },
    {
      "channel": 1,
      "note": 61,
      "start": 25.9973,
      "duration": 0.0829,
      "velocity": 100,
      "chip": "ym2612"
    },
    {
      "channel": 3,
      "note": 80,
      "start": 25.9978,
      "duration": 0.3494,
      "velocity": 101,
      "chip": "ym2612"
    },
    {
      "channel": 4,
      "note": 68,
      "start": 25.9981,
      "duration": 0.3491,
      "velocity": 101,
      "chip": "ym2612"
    },
    {
      "channel": 0,
      "note": 71,
      "start": 26.1304,
      "duration": 0.2164,
      "velocity": 110,
      "chip": "ym2612"
    },
    {
      "channel": 1,
      "note": 51,
      "start": 26.1307,
      "duration": 0.0828,
      "velocity": 100,
      "chip": "ym2612"
    },
    {
      "channel": 2,
      "note": 43,
      "start": 26.1322,
      "duration": 0.0814,
      "velocity": 117,
      "chip": "ym2612"
    },
    {
      "channel": 1,
      "note": 63,
      "start": 26.2637,
      "duration": 0.0832,
      "velocity": 100,
      "chip": "ym2612"
    },
    {
      "channel": 2,
      "note": 43,
      "start": 26.2652,
      "duration": 0.0818,
      "velocity": 117,
      "chip": "ym2612"
    },
    {
      "channel": 0,
      "note": 70,
      "start": 26.397,
      "duration": 0.0831,
      "velocity": 110,
      "chip": "ym2612"
    },
    {
      "channel": 1,
      "note": 54,
      "start": 26.3973,
      "duration": 0.0829,
      "velocity": 100,
      "chip": "ym2612"
    },
    {
      "channel": 2,
      "note": 62,
      "start": 26.3989,
      "duration": 0.2148,
      "velocity": 116,
      "chip": "ym2612"
    },
    {
      "channel": 0,
      "note": 71,
      "start": 26.5304,
      "duration": 0.2164,
      "velocity": 110,
      "chip": "ym2612"
    },
    {
      "channel": 1,
      "note": 66,
      "start": 26.5307,
      "duration": 0.0828,
      "velocity": 100,
      "chip": "ym2612"
    },
    {
      "channel": 1,
      "note": 54,
      "start": 26.6637,
      "duration": 0.0832,
      "velocity": 100,
      "chip": "ym2612"
    },
    {
      "channel": 2,
      "note": 43,
      "start": 26.6652,
      "duration": 0.2151,
      "velocity": 117,
      "chip": "ym2612"
    },
    {
      "channel": 0,
      "note": 70,
      "start": 26.797,
      "duration": 0.0831,
      "velocity": 110,
      "chip": "ym2612"
    },
    {
      "channel": 1,
      "note": 66,
      "start": 26.7973,
      "duration": 0.0829,
      "velocity": 100,
      "chip": "ym2612"
    },
    {
      "channel": 0,
      "note": 71,
      "start": 26.9304,
      "duration": 0.2164,
      "velocity": 110,
      "chip": "ym2612"
    },
    {
      "channel": 1,
      "note": 54,
      "start": 26.9307,
      "duration": 0.0828,
      "velocity": 100,
      "chip": "ym2612"
    },
    {
      "channel": 2,
      "note": 62,
      "start": 26.9322,
      "duration": 0.0814,
      "velocity": 116,
      "chip": "ym2612"
    },
    {
      "channel": 1,
      "note": 61,
      "start": 27.0637,
      "duration": 0.0832,
      "velocity": 100,
      "chip": "ym2612"
    },
    {
      "channel": 2,
      "note": 62,
      "start": 27.0652,
      "duration": 0.2151,
      "velocity": 116,
      "chip": "ym2612"
    },
    {
      "channel": 0,
      "note": 73,
      "start": 27.197,
      "duration": 0.2164,
      "velocity": 110,
      "chip": "ym2612"
    },
    {
      "channel": 1,
      "note": 54,
      "start": 27.1973,
      "duration": 0.0828,
      "velocity": 100,
      "chip": "ym2612"
    },
    {
      "channel": 1,
      "note": 63,
      "start": 27.3304,
      "duration": 0.0832,
      "velocity": 100,
      "chip": "ym2612"
    },
    {
      "channel": 2,
      "note": 62,
      "start": 27.3319,
      "duration": 0.0818,
      "velocity": 116,
      "chip": "ym2612"
    },
    {
      "channel": 0,
      "note": 73,
      "start": 27.4637,
      "duration": 0.2164,
      "velocity": 110,
      "chip": "ym2612"
    },
    {
      "channel": 1,
      "note": 54,
      "start": 27.464,
      "duration": 0.0828,
      "velocity": 100,
      "chip": "ym2612"
    },
    {
      "channel": 2,
      "note": 62,
      "start": 27.4656,
      "duration": 0.0814,
      "velocity": 116,
      "chip": "ym2612"
    },
    {
      "channel": 1,
      "note": 63,
      "start": 27.597,
      "duration": 0.0832,
      "velocity": 100,
      "chip": "ym2612"
    },
    {
      "channel": 2,
      "note": 62,
      "start": 27.5986,
      "duration": 0.0818,
      "velocity": 116,
      "chip": "ym2612"
    },
    {
      "channel": 0,
      "note": 77,
      "start": 27.7304,
      "duration": 0.0831,
      "velocity": 110,
      "chip": "ym2612"
    },
    {
      "channel": 1,
      "note": 54,
      "start": 27.7307,
      "duration": 0.0828,
      "velocity": 100,
      "chip": "ym2612"
    },
    {
      "channel": 2,
      "note": 43,
      "start": 27.7323,
      "duration": 0.0814,
      "velocity": 117,
      "chip": "ym2612"
    },
    {
      "channel": 3,
      "note": 90,
      "start": 27.7327,
      "duration": 0.0812,
      "velocity": 101,
      "chip": "ym2612"
    },
    {
      "channel": 4,
      "note": 78,
      "start": 27.7331,
      "duration": 0.0808,
      "velocity": 101,
      "chip": "ym2612"
    },
    {
      "channel": 0,
      "note": 78,
      "start": 27.8637,
      "duration": 0.2164,
      "velocity": 110,
      "chip": "ym2612"
    },
    {
      "channel": 1,
      "note": 54,
      "start": 27.864,
      "duration": 0.0828,
      "velocity": 100,
      "chip": "ym2612"
    },
    {
      "channel": 2,
      "note": 43,
      "start": 27.8656,
      "duration": 0.0814,
      "velocity": 117,
      "chip": "ym2612"
    },
    {
      "channel": 3,
      "note": 90,
      "start": 27.8659,
      "duration": 0.0812,
      "velocity": 101,
      "chip": "ym2612"
    },
    {
      "channel": 4,
      "note": 78,
      "start": 27.8662,
      "duration": 0.081,
      "velocity": 101,
      "chip": "ym2612"
    },
    {
      "channel": 1,
      "note": 54,
      "start": 27.997,
      "duration": 0.0832,
      "velocity": 100,
      "chip": "ym2612"
    },
    {
      "channel": 2,
      "note": 62,
      "start": 27.9986,
      "duration": 0.2151,
      "velocity": 116,
      "chip": "ym2612"
    },
    {
      "channel": 3,
      "note": 89,
      "start": 27.9989,
      "duration": 0.2149,
      "velocity": 101,
      "chip": "ym2612"
    },
    {
      "channel": 4,
      "note": 77,
      "start": 27.9993,
      "duration": 0.2146,
      "velocity": 101,
      "chip": "ym2612"
    },
    {
      "channel": 0,
      "note": 77,
      "start": 28.1304,
      "duration": 0.0831,
      "velocity": 110,
      "chip": "ym2612"
    },
    {
      "channel": 1,
      "note": 61,
      "start": 28.1307,
      "duration": 0.0829,
      "velocity": 100,
      "chip": "ym2612"
    },
    {
      "channel": 0,
      "note": 78,
      "start": 28.2637,
      "duration": 0.2164,
      "velocity": 110,
      "chip": "ym2612"
    },
    {
      "channel": 1,
      "note": 51,
      "start": 28.264,
      "duration": 0.0828,
      "velocity": 100,
      "chip": "ym2612"
    },
    {
      "channel": 2,
      "note": 43,
      "start": 28.2656,
      "duration": 0.0814,
      "velocity": 117,
      "chip": "ym2612"
    },
    {
      "channel": 3,
      "note": 90,
      "start": 28.2659,
      "duration": 0.2146,
      "velocity": 101,
      "chip": "ym2612"
    },
    {
      "channel": 4,
      "note": 78,
      "start": 28.2662,
      "duration": 0.2144,
      "velocity": 101,
      "chip": "ym2612"
    },
    {
      "channel": 1,
      "note": 63,
      "start": 28.397,
      "duration": 0.0832,
      "velocity": 100,
      "chip": "ym2612"
    },
    {
      "channel": 2,
      "note": 43,
      "start": 28.3986,
      "duration": 0.0818,
      "velocity": 117,
      "chip": "ym2612"
    },
    {
      "channel": 0,
      "note": 77,
      "start": 28.5304,
      "duration": 0.0831,
      "velocity": 110,
      "chip": "ym2612"
    },
    {
      "channel": 1,
      "note": 54,
      "start": 28.5307,
      "duration": 0.0829,
      "velocity": 100,
      "chip": "ym2612"
    },
    {
      "channel": 2,
      "note": 62,
      "start": 28.5322,
      "duration": 0.2148,
      "velocity": 116,
      "chip": "ym2612"
    },
    {
      "channel": 3,
      "note": 87,
      "start": 28.5325,
      "duration": 0.0812,
      "velocity": 101,
      "chip": "ym2612"
    },
    {
      "channel": 4,
      "note": 75,
      "start": 28.5329,
      "duration": 0.0809,
      "velocity": 101,
      "chip": "ym2612"
    },
    {
      "channel": 0,
      "note": 78,
      "start": 28.6637,
      "duration": 0.2164,
      "velocity": 110,
      "chip": "ym2612"
    },
    {
      "channel": 1,
      "note": 66,
      "start": 28.664,
      "duration": 0.0828,
      "velocity": 100,
      "chip": "ym2612"
    },
    {
      "channel": 3,
      "note": 85,
      "start": 28.6645,
      "duration": 0.2159,
      "velocity": 101,
      "chip": "ym2612"
    },
    {
      "channel": 4,
      "note": 73,
      "start": 28.6648,
      "duration": 0.2157,
      "velocity": 101,
      "chip": "ym2612"
    },
    {
      "channel": 1,
      "note": 54,
      "start": 28.797,
      "duration": 0.0832,
      "velocity": 100,
      "chip": "ym2612"
    },
    {
      "channel": 2,
      "note": 43,
      "start": 28.7986,
      "duration": 0.2151,
      "velocity": 117,
      "chip": "ym2612"
    },
    {
      "channel": 0,
      "note": 77,
      "start": 28.9304,
      "duration": 0.0831,
      "velocity": 110,
      "chip": "ym2612"
    },
    {
      "channel": 1,
      "note": 66,
      "start": 28.9307,
      "duration": 0.0829,
      "velocity": 100,
      "chip": "ym2612"
    },
    {
      "channel": 3,
      "note": 85,
      "start": 28.9311,
      "duration": 0.216,
      "velocity": 101,
      "chip": "ym2612"
    },
    {
      "channel": 4,
      "note": 73,
      "start": 28.9314,
      "duration": 0.2158,
      "velocity": 101,
      "chip": "ym2612"
    },
    {
      "channel": 0,
      "note": 78,
      "start": 29.0637,
      "duration": 0.2164,
      "velocity": 110,
      "chip": "ym2612"
    },
    {
      "channel": 1,
      "note": 54,
      "start": 29.064,
      "duration": 0.0828,
      "velocity": 100,
      "chip": "ym2612"
    },
    {
      "channel": 2,
      "note": 62,
      "start": 29.0656,
      "duration": 0.0814,
      "velocity": 116,
      "chip": "ym2612"
    },
    {
      "channel": 1,
      "note": 61,
      "start": 29.197,
      "duration": 0.0832,
      "velocity": 100,
      "chip": "ym2612"
    },
    {
      "channel": 2,
      "note": 62,
      "start": 29.1986,
      "duration": 0.2151,
      "velocity": 116,
      "chip": "ym2612"
    },
    {
      "channel": 3,
      "note": 82,
      "start": 29.1989,
      "duration": 0.0815,
      "velocity": 101,
      "chip": "ym2612"
    },
    {
      "channel": 4,
      "note": 70,
      "start": 29.1993,
      "duration": 0.0812,
      "velocity": 101,
      "chip": "ym2612"
    },
    {
      "channel": 0,
      "note": 81,
      "start": 29.3304,
      "duration": 0.2164,
      "velocity": 110,
      "chip": "ym2612"
    },
    {
      "channel": 1,
      "note": 54,
      "start": 29.3307,
      "duration": 0.0828,
      "velocity": 100,
      "chip": "ym2612"
    },
    {
      "channel": 3,
      "note": 85,
      "start": 29.3311,
      "duration": 0.2161,
      "velocity": 101,
      "chip": "ym2612"
    },
    {
      "channel": 4,
      "note": 73,
      "start": 29.3315,
      "duration": 0.2158,
      "velocity": 101,
      "chip": "ym2612"
    },
    {
      "channel": 1,
      "note": 63,
      "start": 29.4637,
      "duration": 0.0832,
      "velocity": 100,
      "chip": "ym2612"
    },
    {
      "channel": 2,
      "note": 62,
      "start": 29.4652,
      "duration": 0.0818,
      "velocity": 116,
      "chip": "ym2612"
    },
    {
      "channel": 0,
      "note": 81,
      "start": 29.597,
      "duration": 0.2164,
      "velocity": 110,
      "chip": "ym2612"
    },
    {
      "channel": 1,
      "note": 54,
      "start": 29.5973,
      "duration": 0.0828,
      "velocity": 100,
      "chip": "ym2612"
    },
    {
      "channel": 2,
      "note": 62,
      "start": 29.5989,
      "duration": 0.0814,
      "velocity": 116,
      "chip": "ym2612"
    },
    {
      "channel": 3,
      "note": 87,
      "start": 29.5992,
      "duration": 0.2146,
      "velocity": 101,
      "chip": "ym2612"
    },
    {
      "channel": 4,
      "note": 75,
      "start": 29.5995,
      "duration": 0.2144,
      "velocity": 101,
      "chip": "ym2612"
    },
    {
      "channel": 1,
      "note": 63,
      "start": 29.7304,
      "duration": 0.0832,
      "velocity": 100,
      "chip": "ym2612"
    },
    {
      "channel": 2,
      "note": 62,
      "start": 29.7319,
      "duration": 0.0818,
      "velocity": 116,
      "chip": "ym2612"
    },
    {
      "channel": 0,
      "note": 77,
      "start": 29.8637,
      "duration": 0.0831,
      "velocity": 110,
      "chip": "ym2612"
    },
    {
      "channel": 1,
      "note": 54,
      "start": 29.8641,
      "duration": 0.0828,
      "velocity": 100,
      "chip": "ym2612"
    },
    {
      "channel": 2,
      "note": 43,
      "start": 29.8656,
      "duration": 0.0814,
      "velocity": 117,
      "chip": "ym2612"
    },
    {
      "channel": 3,
      "note": 90,
      "start": 29.866,
      "duration": 0.0812,
      "velocity": 101,
      "chip": "ym2612"
    },
    {
      "channel": 4,
      "note": 78,
      "start": 29.8664,
      "duration": 0.0808,
      "velocity": 101,
      "chip": "ym2612"
    },
    {
      "channel": 0,
      "note": 78,
      "start": 29.997,
      "duration": 0.2164,
      "velocity": 110,
      "chip": "ym2612"
    },
    {
      "channel": 1,
      "note": 54,
      "start": 29.9973,
      "duration": 0.0828,
      "velocity": 100,
      "chip": "ym2612"
    },
    {
      "channel": 2,
      "note": 43,
      "start": 29.9989,
      "duration": 0.0814,
      "velocity": 117,
      "chip": "ym2612"
    },
    {
      "channel": 3,
      "note": 90,
      "start": 29.9992,
      "duration": 0.0812,
      "velocity": 101,
      "chip": "ym2612"
    },
    {
      "channel": 4,
      "note": 78,
      "start": 29.9995,
      "duration": 0.081,
      "velocity": 101,
      "chip": "ym2612"
    },
    {
      "channel": 1,
      "note": 54,
      "start": 30.1304,
      "duration": 0.0832,
      "velocity": 100,
      "chip": "ym2612"
    },
    {
      "channel": 2,
      "note": 62,
      "start": 30.1319,
      "duration": 0.2151,
      "velocity": 116,
      "chip": "ym2612"
    },
    {
      "channel": 3,
      "note": 89,
      "start": 30.1322,
      "duration": 0.2149,
      "velocity": 101,
      "chip": "ym2612"
    },
    {
      "channel": 4,
      "note": 77,
      "start": 30.1326,
      "duration": 0.2146,
      "velocity": 101,
      "chip": "ym2612"
    },
    {
      "channel": 0,
      "note": 77,
      "start": 30.2637,
      "duration": 0.0831,
      "velocity": 110,
      "chip": "ym2612"
    },
    {
      "channel": 1,
      "note": 61,
      "start": 30.264,
      "duration": 0.0829,
      "velocity": 100,
      "chip": "ym2612"
    },
    {
      "channel": 0,
      "note": 78,
      "start": 30.397,
      "duration": 0.2164,
      "velocity": 110,
      "chip": "ym2612"
    },
    {
      "channel": 1,
      "note": 51,
      "start": 30.3973,
      "duration": 0.0828,
      "velocity": 100,
      "chip": "ym2612"
    },
    {
      "channel": 2,
      "note": 43,
      "start": 30.3989,
      "duration": 0.0814,
      "velocity": 117,
      "chip": "ym2612"
    },
    {
      "channel": 3,
      "note": 90,
      "start": 30.3992,
      "duration": 0.2146,
      "velocity": 101,
      "chip": "ym2612"
    },
    {
      "channel": 4,
      "note": 78,
      "start": 30.3995,
      "duration": 0.2144,
      "velocity": 101,
      "chip": "ym2612"
    },
    {
      "channel": 1,
      "note": 63,
      "start": 30.5304,
      "duration": 0.0832,
      "velocity": 100,
      "chip": "ym2612"
    },
    {
      "channel": 2,
      "note": 43,
      "start": 30.5319,
      "duration": 0.0818,
      "velocity": 117,
      "chip": "ym2612"
    },
    {
      "channel": 0,
      "note": 77,
      "start": 30.6637,
      "duration": 0.0831,
      "velocity": 110,
      "chip": "ym2612"
    },
    {
      "channel": 1,
      "note": 54,
      "start": 30.664,
      "duration": 0.0829,
      "velocity": 100,
      "chip": "ym2612"
    },
    {
      "channel": 2,
      "note": 62,
      "start": 30.6656,
      "duration": 0.2148,
      "velocity": 116,
      "chip": "ym2612"
    },
    {
      "channel": 3,
      "note": 87,
      "start": 30.6659,
      "duration": 0.0812,
      "velocity": 101,
      "chip": "ym2612"
    },
    {
      "channel": 4,
      "note": 75,
      "start": 30.6663,
      "duration": 0.0809,
      "velocity": 101,
      "chip": "ym2612"
    },
    {
      "channel": 0,
      "note": 78,
      "start": 30.797,
      "duration": 0.2164,
      "velocity": 110,
      "chip": "ym2612"
    },
    {
      "channel": 1,
      "note": 66,
      "start": 30.7973,
      "duration": 0.0828,
      "velocity": 100,
      "chip": "ym2612"
    },
    {
      "channel": 3,
      "note": 85,
      "start": 30.7978,
      "duration": 0.2159,
      "velocity": 101,
      "chip": "ym2612"
    },
    {
      "channel": 4,
      "note": 73,
      "start": 30.7981,
      "duration": 0.2157,
      "velocity": 101,
      "chip": "ym2612"
    },
    {
      "channel": 1,
      "note": 54,
      "start": 30.9304,
      "duration": 0.0832,
      "velocity": 100,
      "chip": "ym2612"
    },
    {
      "channel": 2,
      "note": 43,
      "start": 30.9319,
      "duration": 0.2151,
      "velocity": 117,
      "chip": "ym2612"
    },
    {
      "channel": 0,
      "note": 77,
      "start": 31.0637,
      "duration": 0.0831,
      "velocity": 110,
      "chip": "ym2612"
    },
    {
      "channel": 1,
      "note": 66,
      "start": 31.064,
      "duration": 0.0829,
      "velocity": 100,
      "chip": "ym2612"
    },
    {
      "channel": 3,
      "note": 85,
      "start": 31.0644,
      "duration": 0.216,
      "velocity": 101,
      "chip": "ym2612"
    },
    {
      "channel": 4,
      "note": 73,
      "start": 31.0647,
      "duration": 0.2158,
      "velocity": 101,
      "chip": "ym2612"
    },
    {
      "channel": 0,
      "note": 78,
      "start": 31.197,
      "duration": 0.2164,
      "velocity": 110,
      "chip": "ym2612"
    },
    {
      "channel": 1,
      "note": 54,
      "start": 31.1973,
      "duration": 0.0828,
      "velocity": 100,
      "chip": "ym2612"
    },
    {
      "channel": 2,
      "note": 62,
      "start": 31.1989,
      "duration": 0.0814,
      "velocity": 116,
      "chip": "ym2612"
    },
    {
      "channel": 1,
      "note": 61,
      "start": 31.3304,
      "duration": 0.0832,
      "velocity": 100,
      "chip": "ym2612"
    },
    {
      "channel": 2,
      "note": 62,
      "start": 31.3319,
      "duration": 0.2151,
      "velocity": 116,
      "chip": "ym2612"
    },
    {
      "channel": 3,
      "note": 82,
      "start": 31.3322,
      "duration": 0.0815,
      "velocity": 101,
      "chip": "ym2612"
    },
    {
      "channel": 4,
      "note": 70,
      "start": 31.3326,
      "duration": 0.0812,
      "velocity": 101,
      "chip": "ym2612"
    },
    {
      "channel": 0,
      "note": 81,
      "start": 31.4637,
      "duration": 0.2164,
      "velocity": 110,
      "chip": "ym2612"
    },
    {
      "channel": 1,
      "note": 54,
      "start": 31.464,
      "duration": 0.0828,
      "velocity": 100,
      "chip": "ym2612"
    },
    {
      "channel": 3,
      "note": 85,
      "start": 31.4644,
      "duration": 0.2161,
      "velocity": 101,
      "chip": "ym2612"
    },
    {
      "channel": 4,
      "note": 73,
      "start": 31.4648,
      "duration": 0.2158,
      "velocity": 101,
      "chip": "ym2612"
    },
    {
      "channel": 1,
      "note": 63,
      "start": 31.597,
      "duration": 0.0832,
      "velocity": 100,
      "chip": "ym2612"
    },
    {
      "channel": 2,
      "note": 62,
      "start": 31.5986,
      "duration": 0.0818,
      "velocity": 116,
      "chip": "ym2612"
    },
    {
      "channel": 0,
      "note": 81,
      "start": 31.7304,
      "duration": 0.2164,
      "velocity": 110,
      "chip": "ym2612"
    },
    {
      "channel": 1,
      "note": 54,
      "start": 31.7307,
      "duration": 0.0828,
      "velocity": 100,
      "chip": "ym2612"
    },
    {
      "channel": 2,
      "note": 62,
      "start": 31.7322,
      "duration": 0.0814,
      "velocity": 116,
      "chip": "ym2612"
    },
    {
      "channel": 3,
      "note": 87,
      "start": 31.7325,
      "duration": 0.2146,
      "velocity": 101,
      "chip": "ym2612"
    },
    {
      "channel": 4,
      "note": 75,
      "start": 31.7329,
      "duration": 0.2144,
      "velocity": 101,
      "chip": "ym2612"
    },
    {
      "channel": 1,
      "note": 63,
      "start": 31.8637,
      "duration": 0.0832,
      "velocity": 100,
      "chip": "ym2612"
    },
    {
      "channel": 2,
      "note": 62,
      "start": 31.8652,
      "duration": 0.0818,
      "velocity": 116,
      "chip": "ym2612"
    },
    {
      "channel": 0,
      "note": 70,
      "start": 31.997,
      "duration": 0.0831,
      "velocity": 110,
      "chip": "ym2612"
    },
    {
      "channel": 1,
      "note": 54,
      "start": 31.9974,
      "duration": 0.0828,
      "velocity": 100,
      "chip": "ym2612"
    },
    {
      "channel": 2,
      "note": 43,
      "start": 31.999,
      "duration": 0.0814,
      "velocity": 117,
      "chip": "ym2612"
    },
    {
      "channel": 3,
      "note": 82,
      "start": 31.9993,
      "duration": 0.0812,
      "velocity": 101,
      "chip": "ym2612"
    },
    {
      "channel": 4,
      "note": 70,
      "start": 31.9998,
      "duration": 0.0808,
      "velocity": 101,
      "chip": "ym2612"
    },
    {
      "channel": 0,
      "note": 71,
      "start": 32.1304,
      "duration": 0.2164,
      "velocity": 110,
      "chip": "ym2612"
    },
    {
      "channel": 1,
      "note": 54,
      "start": 32.1307,
      "duration": 0.0828,
      "velocity": 100,
      "chip": "ym2612"
    },
    {
      "channel": 2,
      "note": 43,
      "start": 32.1322,
      "duration": 0.0814,
      "velocity": 117,
      "chip": "ym2612"
    },
    {
      "channel": 3,
      "note": 85,
      "start": 32.1325,
      "duration": 0.0812,
      "velocity": 101,
      "chip": "ym2612"
    },
    {
      "channel": 4,
      "note": 73,
      "start": 32.1329,
      "duration": 0.081,
      "velocity": 101,
      "chip": "ym2612"
    },
    {
      "channel": 1,
      "note": 54,
      "start": 32.2637,
      "duration": 0.0832,
      "velocity": 100,
      "chip": "ym2612"
    },
    {
      "channel": 2,
      "note": 62,
      "start": 32.2652,
      "duration": 0.2151,
      "velocity": 116,
      "chip": "ym2612"
    },
    {
      "channel": 3,
      "note": 82,
      "start": 32.2656,
      "duration": 0.0815,
      "velocity": 101,
      "chip": "ym2612"
    },
    {
      "channel": 4,
      "note": 70,
      "start": 32.2659,
      "duration": 0.0812,
      "velocity": 101,
      "chip": "ym2612"
    },
    {
      "channel": 0,
      "note": 70,
      "start": 32.397,
      "duration": 0.0831,
      "velocity": 110,
      "chip": "ym2612"
    },
    {
      "channel": 1,
      "note": 61,
      "start": 32.3973,
      "duration": 0.0829,
      "velocity": 100,
      "chip": "ym2612"
    },
    {
      "channel": 3,
      "note": 80,
      "start": 32.3978,
      "duration": 0.3494,
      "velocity": 101,
      "chip": "ym2612"
    },
    {
      "channel": 4,
      "note": 68,
      "start": 32.3981,
      "duration": 0.3491,
      "velocity": 101,
      "chip": "ym2612"
    },
    {
      "channel": 0,
      "note": 71,
      "start": 32.5304,
      "duration": 0.2164,
      "velocity": 110,
      "chip": "ym2612"
    },
    {
      "channel": 1,
      "note": 51,
      "start": 32.5307,
      "duration": 0.0828,
      "velocity": 100,
      "chip": "ym2612"
    },
    {
      "channel": 2,
      "note": 43,
      "start": 32.5322,
      "duration": 0.0814,
      "velocity": 117,
      "chip": "ym2612"
    },
    {
      "channel": 1,
      "note": 63,
      "start": 32.6637,
      "duration": 0.0832,
      "velocity": 100,
      "chip": "ym2612"
    },
    {
      "channel": 2,
      "note": 43,
      "start": 32.6652,
      "duration": 0.0818,
      "velocity": 117,
      "chip": "ym2612"
    },
    {
      "channel": 0,
      "note": 70,
      "start": 32.797,
      "duration": 0.0831,
      "velocity": 110,
      "chip": "ym2612"
    },
    {
      "channel": 1,
      "note": 54,
      "start": 32.7973,
      "duration": 0.0829,
      "velocity": 100,
      "chip": "ym2612"
    },
    {
      "channel": 2,
      "note": 62,
      "start": 32.7989,
      "duration": 0.2148,
      "velocity": 116,
      "chip": "ym2612"
    },
    {
      "channel": 0,
      "note": 71,
      "start": 32.9304,
      "duration": 0.2164,
      "velocity": 110,
      "chip": "ym2612"
    },
    {
      "channel": 1,
      "note": 66,
      "start": 32.9307,
      "duration": 0.0828,
      "velocity": 100,
      "chip": "ym2612"
    },
    {
      "channel": 1,
      "note": 54,
      "start": 33.0637,
      "duration": 0.0832,
      "velocity": 100,
      "chip": "ym2612"
    },
    {
      "channel": 2,
      "note": 43,
      "start": 33.0652,
      "duration": 0.2151,
      "velocity": 117,
      "chip": "ym2612"
    },
    {
      "channel": 0,
      "note": 70,
      "start": 33.197,
      "duration": 0.0831,
      "velocity": 110,
      "chip": "ym2612"
    },
    {
      "channel": 1,
      "note": 66,
      "start": 33.1973,
      "duration": 0.0829,
      "velocity": 100,
      "chip": "ym2612"
    },
    {
      "channel": 0,
      "note": 71,
      "start": 33.3304,
      "duration": 0.2164,
      "velocity": 110,
      "chip": "ym2612"
    },
    {
      "channel": 1,
      "note": 54,
      "start": 33.3307,
      "duration": 0.0828,
      "velocity": 100,
      "chip": "ym2612"
    },
    {
      "channel": 2,
      "note": 62,
      "start": 33.3322,
      "duration": 0.0814,
      "velocity": 116,
      "chip": "ym2612"
    },
    {
      "channel": 1,
      "note": 61,
      "start": 33.4637,
      "duration": 0.0832,
      "velocity": 100,
      "chip": "ym2612"
    },
    {
      "channel": 2,
      "note": 62,
      "start": 33.4652,
      "duration": 0.2151,
      "velocity": 116,
      "chip": "ym2612"
    },
    {
      "channel": 0,
      "note": 73,
      "start": 33.597,
      "duration": 0.2164,
      "velocity": 110,
      "chip": "ym2612"
    },
    {
      "channel": 1,
      "note": 54,
      "start": 33.5973,
      "duration": 0.0828,
      "velocity": 100,
      "chip": "ym2612"
    },
    {
      "channel": 1,
      "note": 63,
      "start": 33.7304,
      "duration": 0.0832,
      "velocity": 100,
      "chip": "ym2612"
    },
    {
      "channel": 2,
      "note": 62,
      "start": 33.7319,
      "duration": 0.0818,
      "velocity": 116,
      "chip": "ym2612"
    },
    {
      "channel": 0,
      "note": 73,
      "start": 33.8637,
      "duration": 0.2164,
      "velocity": 110,
      "chip": "ym2612"
    },
    {
      "channel": 1,
      "note": 54,
      "start": 33.864,
      "duration": 0.0828,
      "velocity": 100,
      "chip": "ym2612"
    },
    {
      "channel": 2,
      "note": 62,
      "start": 33.8656,
      "duration": 0.0814,
      "velocity": 116,
      "chip": "ym2612"
    },
    {
      "channel": 1,
      "note": 63,
      "start": 33.997,
      "duration": 0.0832,
      "velocity": 100,
      "chip": "ym2612"
    },
    {
      "channel": 2,
      "note": 62,
      "start": 33.9986,
      "duration": 0.0818,
      "velocity": 116,
      "chip": "ym2612"
    },
    {
      "channel": 0,
      "note": 70,
      "start": 34.1304,
      "duration": 0.0831,
      "velocity": 110,
      "chip": "ym2612"
    },
    {
      "channel": 1,
      "note": 54,
      "start": 34.1307,
      "duration": 0.0828,
      "velocity": 100,
      "chip": "ym2612"
    },
    {
      "channel": 2,
      "note": 43,
      "start": 34.1323,
      "duration": 0.0814,
      "velocity": 117,
      "chip": "ym2612"
    },
    {
      "channel": 3,
      "note": 82,
      "start": 34.1327,
      "duration": 0.0812,
      "velocity": 101,
      "chip": "ym2612"
    },
    {
      "channel": 4,
      "note": 70,
      "start": 34.1331,
      "duration": 0.0808,
      "velocity": 101,
      "chip": "ym2612"
    },
    {
      "channel": 0,
      "note": 71,
      "start": 34.2637,
      "duration": 0.2164,
      "velocity": 110,
      "chip": "ym2612"
    },
    {
      "channel": 1,
      "note": 54,
      "start": 34.264,
      "duration": 0.0828,
      "velocity": 100,
      "chip": "ym2612"
    },
    {
      "channel": 2,
      "note": 43,
      "start": 34.2656,
      "duration": 0.0814,
      "velocity": 117,
      "chip": "ym2612"
    },
    {
      "channel": 3,
      "note": 85,
      "start": 34.2659,
      "duration": 0.0812,
      "velocity": 101,
      "chip": "ym2612"
    },
    {
      "channel": 4,
      "note": 73,
      "start": 34.2662,
      "duration": 0.081,
      "velocity": 101,
      "chip": "ym2612"
    },
    {
      "channel": 1,
      "note": 54,
      "start": 34.397,
      "duration": 0.0832,
      "velocity": 100,
      "chip": "ym2612"
    },
    {
      "channel": 2,
      "note": 62,
      "start": 34.3986,
      "duration": 0.2151,
      "velocity": 116,
      "chip": "ym2612"
    },
    {
      "channel": 3,
      "note": 82,
      "start": 34.3989,
      "duration": 0.0815,
      "velocity": 101,
      "chip": "ym2612"
    },
    {
      "channel": 4,
      "note": 70,
      "start": 34.3993,
      "duration": 0.0812,
      "velocity": 101,
      "chip": "ym2612"
    },
    {
      "channel": 0,
      "note": 70,
      "start": 34.5304,
      "duration": 0.0831,
      "velocity": 110,
      "chip": "ym2612"
    },
    {
      "channel": 1,
      "note": 61,
      "start": 34.5307,
      "duration": 0.0829,
      "velocity": 100,
      "chip": "ym2612"
    },
    {
      "channel": 3,
      "note": 80,
      "start": 34.5311,
      "duration": 0.3494,
      "velocity": 101,
      "chip": "ym2612"
    },
    {
      "channel": 4,
      "note": 68,
      "start": 34.5315,
      "duration": 0.3491,
      "velocity": 101,
      "chip": "ym2612"
    },
    {
      "channel": 0,
      "note": 71,
      "start": 34.6637,
      "duration": 0.2164,
      "velocity": 110,
      "chip": "ym2612"
    },
    {
      "channel": 1,
      "note": 51,
      "start": 34.664,
      "duration": 0.0828,
      "velocity": 100,
      "chip": "ym2612"
    },
    {
      "channel": 2,
      "note": 43,
      "start": 34.6656,
      "duration": 0.0814,
      "velocity": 117,
      "chip": "ym2612"
    },
    {
      "channel": 1,
      "note": 63,
      "start": 34.797,
      "duration": 0.0832,
      "velocity": 100,
      "chip": "ym2612"
    },
    {
      "channel": 2,
      "note": 43,
      "start": 34.7986,
      "duration": 0.0818,
      "velocity": 117,
      "chip": "ym2612"
    },
    {
      "channel": 0,
      "note": 70,
      "start": 34.9304,
      "duration": 0.0831,
      "velocity": 110,
      "chip": "ym2612"
    },
    {
      "channel": 1,
      "note": 54,
      "start": 34.9307,
      "duration": 0.0829,
      "velocity": 100,
      "chip": "ym2612"
    },
    {
      "channel": 2,
      "note": 62,
      "start": 34.9322,
      "duration": 0.2148,
      "velocity": 116,
      "chip": "ym2612"
    },
    {
      "channel": 0,
      "note": 71,
      "start": 35.0637,
      "duration": 0.2164,
      "velocity": 110,
      "chip": "ym2612"
    },
    {
      "channel": 1,
      "note": 66,
      "start": 35.064,
      "duration": 0.0828,
      "velocity": 100,
      "chip": "ym2612"
    },
    {
      "channel": 1,
      "note": 54,
      "start": 35.197,
      "duration": 0.0832,
      "velocity": 100,
      "chip": "ym2612"
    },
    {
      "channel": 2,
      "note": 43,
      "start": 35.1986,
      "duration": 0.2151,
      "velocity": 117,
      "chip": "ym2612"
    },
    {
      "channel": 0,
      "note": 70,
      "start": 35.3304,
      "duration": 0.0831,
      "velocity": 110,
      "chip": "ym2612"
    },
    {
      "channel": 1,
      "note": 66,
      "start": 35.3307,
      "duration": 0.0829,
      "velocity": 100,
      "chip": "ym2612"
    },
    {
      "channel": 0,
      "note": 71,
      "start": 35.4637,
      "duration": 0.2164,
      "velocity": 110,
      "chip": "ym2612"
    },
    {
      "channel": 1,
      "note": 54,
      "start": 35.464,
      "duration": 0.0828,
      "velocity": 100,
      "chip": "ym2612"
    },
    {
      "channel": 2,
      "note": 62,
      "start": 35.4656,
      "duration": 0.0814,
      "velocity": 116,
      "chip": "ym2612"
    },
    {
      "channel": 1,
      "note": 61,
      "start": 35.597,
      "duration": 0.0832,
      "velocity": 100,
      "chip": "ym2612"
    },
    {
      "channel": 2,
      "note": 62,
      "start": 35.5986,
      "duration": 0.2151,
      "velocity": 116,
      "chip": "ym2612"
    },
    {
      "channel": 0,
      "note": 73,
      "start": 35.7304,
      "duration": 0.2164,
      "velocity": 110,
      "chip": "ym2612"
    },
    {
      "channel": 1,
      "note": 54,
      "start": 35.7307,
      "duration": 0.0828,
      "velocity": 100,
      "chip": "ym2612"
    },
    {
      "channel": 1,
      "note": 63,
      "start": 35.8637,
      "duration": 0.0832,
      "velocity": 100,
      "chip": "ym2612"
    },
    {
      "channel": 2,
      "note": 62,
      "start": 35.8652,
      "duration": 0.0818,
      "velocity": 116,
      "chip": "ym2612"
    },
    {
      "channel": 0,
      "note": 73,
      "start": 35.997,
      "duration": 0.2164,
      "velocity": 110,
      "chip": "ym2612"
    },
    {
      "channel": 1,
      "note": 54,
      "start": 35.9973,
      "duration": 0.0828,
      "velocity": 100,
      "chip": "ym2612"
    },
    {
      "channel": 2,
      "note": 62,
      "start": 35.9989,
      "duration": 0.0814,
      "velocity": 116,
      "chip": "ym2612"
    },
    {
      "channel": 1,
      "note": 63,
      "start": 36.1304,
      "duration": 0.0832,
      "velocity": 100,
      "chip": "ym2612"
    },
    {
      "channel": 2,
      "note": 62,
      "start": 36.1319,
      "duration": 0.0818,
      "velocity": 116,
      "chip": "ym2612"
    },
    {
      "channel": 0,
      "note": 77,
      "start": 36.2637,
      "duration": 0.0831,
      "velocity": 110,
      "chip": "ym2612"
    },
    {
      "channel": 1,
      "note": 54,
      "start": 36.2641,
      "duration": 0.0828,
      "velocity": 100,
      "chip": "ym2612"
    },
    {
      "channel": 2,
      "note": 43,
      "start": 36.2656,
      "duration": 0.0814,
      "velocity": 117,
      "chip": "ym2612"
    },
    {
      "channel": 3,
      "note": 82,
      "start": 36.266,
      "duration": 0.0812,
      "velocity": 101,
      "chip": "ym2612"
    },
    {
      "channel": 4,
      "note": 70,
      "start": 36.2664,
      "duration": 0.0808,
      "velocity": 101,
      "chip": "ym2612"
    },
    {
      "channel": 0,
      "note": 78,
      "start": 36.397,
      "duration": 0.2164,
      "velocity": 110,
      "chip": "ym2612"
    },
    {
      "channel": 1,
      "note": 54,
      "start": 36.3973,
      "duration": 0.0828,
      "velocity": 100,
      "chip": "ym2612"
    },
    {
      "channel": 2,
      "note": 43,
      "start": 36.3989,
      "duration": 0.0814,
      "velocity": 117,
      "chip": "ym2612"
    },
    {
      "channel": 3,
      "note": 85,
      "start": 36.3992,
      "duration": 0.0812,
      "velocity": 101,
      "chip": "ym2612"
    },
    {
      "channel": 4,
      "note": 73,
      "start": 36.3995,
      "duration": 0.081,
      "velocity": 101,
      "chip": "ym2612"
    },
    {
      "channel": 1,
      "note": 54,
      "start": 36.5304,
      "duration": 0.0832,
      "velocity": 100,
      "chip": "ym2612"
    },
    {
      "channel": 2,
      "note": 62,
      "start": 36.5319,
      "duration": 0.2151,
      "velocity": 116,
      "chip": "ym2612"
    },
    {
      "channel": 3,
      "note": 82,
      "start": 36.5322,
      "duration": 0.0815,
      "velocity": 101,
      "chip": "ym2612"
    },
    {
      "channel": 4,
      "note": 70,
      "start": 36.5326,
      "duration": 0.0812,
      "velocity": 101,
      "chip": "ym2612"
    },
    {
      "channel": 0,
      "note": 77,
      "start": 36.6637,
      "duration": 0.0831,
      "velocity": 110,
      "chip": "ym2612"
    },
    {
      "channel": 1,
      "note": 61,
      "start": 36.664,
      "duration": 0.0829,
      "velocity": 100,
      "chip": "ym2612"
    },
    {
      "channel": 3,
      "note": 80,
      "start": 36.6645,
      "duration": 0.3494,
      "velocity": 101,
      "chip": "ym2612"
    },
    {
      "channel": 4,
      "note": 68,
      "start": 36.6648,
      "duration": 0.3491,
      "velocity": 101,
      "chip": "ym2612"
    },
    {
      "channel": 0,
      "note": 78,
      "start": 36.797,
      "duration": 0.2164,
      "velocity": 110,
      "chip": "ym2612"
    },
    {
      "channel": 1,
      "note": 51,
      "start": 36.7973,
      "duration": 0.0828,
      "velocity": 100,
      "chip": "ym2612"
    },
    {
      "channel": 2,
      "note": 43,
      "start": 36.7989,
      "duration": 0.0814,
      "velocity": 117,
      "chip": "ym2612"
    },
    {
      "channel": 1,
      "note": 63,
      "start": 36.9304,
      "duration": 0.0832,
      "velocity": 100,
      "chip": "ym2612"
    },
    {
      "channel": 2,
      "note": 43,
      "start": 36.9319,
      "duration": 0.0818,
      "velocity": 117,
      "chip": "ym2612"
    },
    {
      "channel": 0,
      "note": 77,
      "start": 37.0637,
      "duration": 0.0831,
      "velocity": 110,
      "chip": "ym2612"
    },
    {
      "channel": 1,
      "note": 54,
      "start": 37.064,
      "duration": 0.0829,
      "velocity": 100,
      "chip": "ym2612"
    },
    {
      "channel": 2,
      "note": 62,
      "start": 37.0656,
      "duration": 0.2148,
      "velocity": 116,
      "chip": "ym2612"
    },
    {
      "channel": 0,
      "note": 78,
      "start": 37.197,
      "duration": 0.2164,
      "velocity": 110,
      "chip": "ym2612"
    },
    {
      "channel": 1,
      "note": 66,
      "start": 37.1973,
      "duration": 0.0828,
      "velocity": 100,
      "chip": "ym2612"
    },
    {
      "channel": 1,
      "note": 54,
      "start": 37.3304,
      "duration": 0.0832,
      "velocity": 100,
      "chip": "ym2612"
    },
    {
      "channel": 2,
      "note": 43,
      "start": 37.3319,
      "duration": 0.2151,
      "velocity": 117,
      "chip": "ym2612"
    },
    {
      "channel": 0,
      "note": 77,
      "start": 37.4637,
      "duration": 0.0831,
      "velocity": 110,
      "chip": "ym2612"
    },
    {
      "channel": 1,
      "note": 66,
      "start": 37.464,
      "duration": 0.0829,
      "velocity": 100,
      "chip": "ym2612"
    },
    {
      "channel": 0,
      "note": 78,
      "start": 37.597,
      "duration": 0.2164,
      "velocity": 110,
      "chip": "ym2612"
    },
    {
      "channel": 1,
      "note": 54,
      "start": 37.5973,
      "duration": 0.0828,
      "velocity": 100,
      "chip": "ym2612"
    },
    {
      "channel": 2,
      "note": 62,
      "start": 37.5989,
      "duration": 0.0814,
      "velocity": 116,
      "chip": "ym2612"
    },
    {
      "channel": 1,
      "note": 61,
      "start": 37.7304,
      "duration": 0.0832,
      "velocity": 100,
      "chip": "ym2612"
    },
    {
      "channel": 2,
      "note": 62,
      "start": 37.7319,
      "duration": 0.2151,
      "velocity": 116,
      "chip": "ym2612"
    },
    {
      "channel": 0,
      "note": 81,
      "start": 37.8637,
      "duration": 0.2164,
      "velocity": 110,
      "chip": "ym2612"
    },
    {
      "channel": 1,
      "note": 54,
      "start": 37.864,
      "duration": 0.0828,
      "velocity": 100,
      "chip": "ym2612"
    },
    {
      "channel": 1,
      "note": 63,
      "start": 37.997,
      "duration": 0.0832,
      "velocity": 100,
      "chip": "ym2612"
    },
    {
      "channel": 2,
      "note": 62,
      "start": 37.9986,
      "duration": 0.0818,
      "velocity": 116,
      "chip": "ym2612"
    },
    {
      "channel": 0,
      "note": 81,
      "start": 38.1304,
      "duration": 0.2164,
      "velocity": 110,
      "chip": "ym2612"
    },
    {
      "channel": 1,
      "note": 54,
      "start": 38.1307,
      "duration": 0.0828,
      "velocity": 100,
      "chip": "ym2612"
    },
    {
      "channel": 2,
      "note": 62,
      "start": 38.1322,
      "duration": 0.0814,
      "velocity": 116,
      "chip": "ym2612"
    },
    {
      "channel": 1,
      "note": 63,
      "start": 38.2637,
      "duration": 0.0832,
      "velocity": 100,
      "chip": "ym2612"
    },
    {
      "channel": 2,
      "note": 62,
      "start": 38.2652,
      "duration": 0.0818,
      "velocity": 116,
      "chip": "ym2612"
    },
    {
      "channel": 0,
      "note": 77,
      "start": 38.3984,
      "duration": 0.0817,
      "velocity": 110,
      "chip": "ym2612"
    },
    {
      "channel": 1,
      "note": 54,
      "start": 38.3999,
      "duration": 0.2136,
      "velocity": 100,
      "chip": "ym2612"
    },
    {
      "channel": 2,
      "note": 43,
      "start": 38.4015,
      "duration": 0.2122,
      "velocity": 117,
      "chip": "ym2612"
    },
    {
      "channel": 3,
      "note": 90,
      "start": 38.4031,
      "duration": 0.0772,
      "velocity": 101,
      "chip": "ym2612"
    },
    {
      "channel": 4,
      "note": 78,
      "start": 38.4047,
      "duration": 0.0757,
      "velocity": 101,
      "chip": "ym2612"
    },
    {
      "channel": 0,
      "note": 78,
      "start": 38.5304,
      "duration": 0.1266,
      "velocity": 110,
      "chip": "ym2612"
    },
    {
      "channel": 3,
      "note": 90,
      "start": 38.5307,
      "duration": 0.0829,
      "velocity": 101,
      "chip": "ym2612"
    },
    {
      "channel": 4,
      "note": 78,
      "start": 38.5311,
      "duration": 0.0827,
      "velocity": 101,
      "chip": "ym2612"
    }
  ]
}