{
  "track_name": "15 - Cold Paradise",
  "duration_sec": 52.902,
  "sample_rate": 44100,
  "note_count": 1121,
  "unique_pitches": 36,
  "pitch_range": 60,
  "avg_note_duration": 0.1052,
  "reconstruction_stats": {
    "notes_reconstructed": 1121,
    "keyon_events": 1121,
    "keyoff_events": 1119,
    "orphan_keyons": 2,
    "unique_pitches": 36,
    "pitch_range": 60,
    "avg_duration_sec": 0.1052
  },
  "metadata": {
    "source": "H\\High Seas Havoc\\15 - Cold Paradise.vgz"
  },
  "notes": [
    {
      "channel": 3,
      "note": 92,
      "start": 0.4508,
      "duration": 0.0062,
      "velocity": 79,
      "chip": "ym2612"
    },
    {
      "channel": 4,
      "note": 44,
      "start": 0.4512,
      "duration": 0.006,
      "velocity": 102,
      "chip": "ym2612"
    },
    {
      "channel": 3,
      "note": 92,
      "start": 0.4802,
      "duration": 0.0833,
      "velocity": 79,
      "chip": "ym2612"
    },
    {
      "channel": 4,
      "note": 44,
      "start": 0.4805,
      "duration": 0.0832,
      "velocity": 102,
      "chip": "ym2612"
    },
    {
      "channel": 3,
      "note": 80,
      "start": 0.5971,
      "duration": 0.0833,
      "velocity": 79,
      "chip": "ym2612"
    },
    {
      "channel": 4,
      "note": 56,
      "start": 0.5973,
      "duration": 0.0832,
      "velocity": 102,
      "chip": "ym2612"
    },
    {
      "channel": 3,
      "note": 80,
      "start": 0.7139,
      "duration": 0.0833,
      "velocity": 79,
      "chip": "ym2612"
    },
    {
      "channel": 4,
      "note": 56,
      "start": 0.7141,
      "duration": 0.0832,
      "velocity": 102,
      "chip": "ym2612"
    },
    {
      "channel": 3,
      "note": 92,
      "start": 0.8307,
      "duration": 0.0061,
      "velocity": 79,
      "chip": "ym2612"
    },
    {
      "channel": 4,
      "note": 44,
      "start": 0.831,
      "duration": 0.006,
      "velocity": 102,
      "chip": "ym2612"
    },
    {
      "channel": 3,
      "note": 92,
      "start": 0.8602,
      "duration": 0.0833,
      "velocity": 79,
      "chip": "ym2612"
    },
    {
      "channel": 4,
      "note": 44,
      "start": 0.8604,
      "duration": 0.0832,
      "velocity": 102,
      "chip": "ym2612"
    },
    {
      "channel": 3,
      "note": 80,
      "start": 0.977,
      "duration": 0.0833,
      "velocity": 79,
      "chip": "ym2612"
    },
    {
      "channel": 4,
      "note": 56,
      "start": 0.9773,
      "duration": 0.0832,
      "velocity": 102,
      "chip": "ym2612"
    },
    {
      "channel": 3,
      "note": 80,
      "start": 1.0938,
      "duration": 0.0833,
      "velocity": 79,
      "chip": "ym2612"
    },
    {
      "channel": 4,
      "note": 51,
      "start": 1.094,
      "duration": 0.0832,
      "velocity": 102,
      "chip": "ym2612"
    },
    {
      "channel": 3,
      "note": 104,
      "start": 1.2107,
      "duration": 0.0061,
      "velocity": 79,
      "chip": "ym2612"
    },
    {
      "channel": 4,
      "note": 44,
      "start": 1.2109,
      "duration": 0.0059,
      "velocity": 102,
      "chip": "ym2612"
    },
    {
      "channel": 3,
      "note": 104,
      "start": 1.257,
      "duration": 0.0666,
      "velocity": 79,
      "chip": "ym2612"
    },
    {
      "channel": 4,
      "note": 44,
      "start": 1.2573,
      "duration": 0.0665,
      "velocity": 102,
      "chip": "ym2612"
    },
    {
      "channel": 3,
      "note": 80,
      "start": 1.3739,
      "duration": 0.0666,
      "velocity": 79,
      "chip": "ym2612"
    },
    {
      "channel": 4,
      "note": 56,
      "start": 1.3741,
      "duration": 0.0665,
      "velocity": 102,
      "chip": "ym2612"
    },
    {
      "channel": 3,
      "note": 80,
      "start": 1.4907,
      "duration": 0.0666,
      "velocity": 79,
      "chip": "ym2612"
    },
    {
      "channel": 4,
      "note": 56,
      "start": 1.4909,
      "duration": 0.0665,
      "velocity": 102,
      "chip": "ym2612"
    },
    {
      "channel": 3,
      "note": 92,
      "start": 1.6075,
      "duration": 0.0051,
      "velocity": 79,
      "chip": "ym2612"
    },
    {
      "channel": 4,
      "note": 44,
      "start": 1.6078,
      "duration": 0.005,
      "velocity": 102,
      "chip": "ym2612"
    },
    {
      "channel": 3,
      "note": 92,
      "start": 1.637,
      "duration": 0.0666,
      "velocity": 79,
      "chip": "ym2612"
    },
    {
      "channel": 4,
      "note": 44,
      "start": 1.6373,
      "duration": 0.0665,
      "velocity": 102,
      "chip": "ym2612"
    },
    {
      "channel": 3,
      "note": 80,
      "start": 1.7539,
      "duration": 0.0666,
      "velocity": 79,
      "chip": "ym2612"
    },
    {
      "channel": 4,
      "note": 51,
      "start": 1.7541,
      "duration": 0.0665,
      "velocity": 102,
      "chip": "ym2612"
    },
    {
      "channel": 3,
      "note": 80,
      "start": 1.8707,
      "duration": 0.0666,
      "velocity": 79,
      "chip": "ym2612"
    },
    {
      "channel": 4,
      "note": 56,
      "start": 1.8709,
      "duration": 0.0665,
      "velocity": 102,
      "chip": "ym2612"
    },
    {
      "channel": 3,
      "note": 92,
      "start": 1.9876,
      "duration": 0.0051,
      "velocity": 79,
      "chip": "ym2612"
    },
    {
      "channel": 4,
      "note": 44,
      "start": 1.9878,
      "duration": 0.005,
      "velocity": 102,
      "chip": "ym2612"
    },
    {
      "channel": 3,
      "note": 92,
      "start": 2.0169,
      "duration": 0.0666,
      "velocity": 79,
      "chip": "ym2612"
    },
    {
      "channel": 4,
      "note": 44,
      "start": 2.0172,
      "duration": 0.0665,
      "velocity": 102,
      "chip": "ym2612"
    },
    {
      "channel": 3,
      "note": 80,
      "start": 2.1338,
      "duration": 0.0666,
      "velocity": 79,
      "chip": "ym2612"
    },
    {
      "channel": 4,
      "note": 56,
      "start": 2.134,
      "duration": 0.0665,
      "velocity": 102,
      "chip": "ym2612"
    },
    {
      "channel": 3,
      "note": 80,
      "start": 2.2505,
      "duration": 0.0666,
      "velocity": 79,
      "chip": "ym2612"
    },
    {
      "channel": 4,
      "note": 56,
      "start": 2.2508,
      "duration": 0.0665,
      "velocity": 102,
      "chip": "ym2612"
    },
    {
      "channel": 3,
      "note": 92,
      "start": 2.3674,
      "duration": 0.0051,
      "velocity": 79,
      "chip": "ym2612"
    },
    {
      "channel": 4,
      "note": 44,
      "start": 2.3676,
      "duration": 0.0049,
      "velocity": 102,
      "chip": "ym2612"
    },
    {
      "channel": 3,
      "note": 92,
      "start": 2.3969,
      "duration": 0.0666,
      "velocity": 79,
      "chip": "ym2612"
    },
    {
      "channel": 4,
      "note": 44,
      "start": 2.3971,
      "duration": 0.0665,
      "velocity": 102,
      "chip": "ym2612"
    },
    {
      "channel": 3,
      "note": 80,
      "start": 2.5137,
      "duration": 0.0666,
      "velocity": 79,
      "chip": "ym2612"
    },
    {
      "channel": 4,
      "note": 56,
      "start": 2.514,
      "duration": 0.0665,
      "velocity": 102,
      "chip": "ym2612"
    },
    {
      "channel": 3,
      "note": 80,
      "start": 2.6305,
      "duration": 0.0666,
      "velocity": 79,
      "chip": "ym2612"
    },
    {
      "channel": 4,
      "note": 51,
      "start": 2.6307,
      "duration": 0.0665,
      "velocity": 102,
      "chip": "ym2612"
    },
    {
      "channel": 3,
      "note": 104,
      "start": 2.7473,
      "duration": 0.0051,
      "velocity": 79,
      "chip": "ym2612"
    },
    {
      "channel": 4,
      "note": 44,
      "start": 2.7476,
      "duration": 0.0049,
      "velocity": 102,
      "chip": "ym2612"
    },
    {
      "channel": 3,
      "note": 104,
      "start": 2.7768,
      "duration": 0.0833,
      "velocity": 79,
      "chip": "ym2612"
    },
    {
      "channel": 4,
      "note": 44,
      "start": 2.7771,
      "duration": 0.0832,
      "velocity": 102,
      "chip": "ym2612"
    },
    {
      "channel": 3,
      "note": 80,
      "start": 2.8937,
      "duration": 0.0833,
      "velocity": 79,
      "chip": "ym2612"
    },
    {
      "channel": 4,
      "note": 56,
      "start": 2.8939,
      "duration": 0.0832,
      "velocity": 102,
      "chip": "ym2612"
    },
    {
      "channel": 3,
      "note": 80,
      "start": 3.0104,
      "duration": 0.0833,
      "velocity": 79,
      "chip": "ym2612"
    },
    {
      "channel": 4,
      "note": 56,
      "start": 3.0107,
      "duration": 0.0832,
      "velocity": 102,
      "chip": "ym2612"
    },
    {
      "channel": 3,
      "note": 92,
      "start": 3.1273,
      "duration": 0.0071,
      "velocity": 79,
      "chip": "ym2612"
    },
    {
      "channel": 4,
      "note": 44,
      "start": 3.1276,
      "duration": 0.007,
      "velocity": 102,
      "chip": "ym2612"
    },
    {
      "channel": 3,
      "note": 92,
      "start": 3.1375,
      "duration": 0.0074,
      "velocity": 79,
      "chip": "ym2612"
    },
    {
      "channel": 4,
      "note": 44,
      "start": 3.1377,
      "duration": 0.0073,
      "velocity": 102,
      "chip": "ym2612"
    },
    {
      "channel": 3,
      "note": 80,
      "start": 3.1479,
      "duration": 0.0068,
      "velocity": 79,
      "chip": "ym2612"
    },
    {
      "channel": 4,
      "note": 51,
      "start": 3.1481,
      "duration": 0.0067,
      "velocity": 102,
      "chip": "ym2612"
    },
    {
      "channel": 3,
      "note": 80,
      "start": 3.1574,
      "duration": 0.0069,
      "velocity": 79,
      "chip": "ym2612"
    },
    {
      "channel": 4,
      "note": 56,
      "start": 3.1577,
      "duration": 0.0067,
      "velocity": 102,
      "chip": "ym2612"
    },
    {
      "channel": 2,
      "note": 87,
      "start": 3.1688,
      "duration": 0.1953,
      "velocity": 97,
      "chip": "ym2612"
    },
    {
      "channel": 3,
      "note": 92,
      "start": 3.1691,
      "duration": 0.0065,
      "velocity": 79,
      "chip": "ym2612"
    },
    {
      "channel": 4,
      "note": 44,
      "start": 3.1695,
      "duration": 0.0062,
      "velocity": 102,
      "chip": "ym2612"
    },
    {
      "channel": 3,
      "note": 92,
      "start": 3.198,
      "duration": 0.0064,
      "velocity": 79,
      "chip": "ym2612"
    },
    {
      "channel": 4,
      "note": 44,
      "start": 3.1983,
      "duration": 0.0062,
      "velocity": 102,
      "chip": "ym2612"
    },
    {
      "channel": 3,
      "note": 80,
      "start": 3.2075,
      "duration": 0.0273,
      "velocity": 79,
      "chip": "ym2612"
    },
    {
      "channel": 4,
      "note": 56,
      "start": 3.2078,
      "duration": 0.0272,
      "velocity": 102,
      "chip": "ym2612"
    },
    {
      "channel": 3,
      "note": 80,
      "start": 3.2684,
      "duration": 0.0064,
      "velocity": 79,
      "chip": "ym2612"
    },
    {
      "channel": 4,
      "note": 56,
      "start": 3.2686,
      "duration": 0.0063,
      "velocity": 102,
      "chip": "ym2612"
    },
    {
      "channel": 3,
      "note": 92,
      "start": 3.2779,
      "duration": 0.0062,
      "velocity": 79,
      "chip": "ym2612"
    },
    {
      "channel": 4,
      "note": 44,
      "start": 3.2782,
      "duration": 0.0061,
      "velocity": 102,
      "chip": "ym2612"
    },
    {
      "channel": 3,
      "note": 92,
      "start": 3.2877,
      "duration": 0.0066,
      "velocity": 79,
      "chip": "ym2612"
    },
    {
      "channel": 4,
      "note": 44,
      "start": 3.288,
      "duration": 0.0064,
      "velocity": 102,
      "chip": "ym2612"
    },
    {
      "channel": 3,
      "note": 80,
      "start": 3.2968,
      "duration": 0.0274,
      "velocity": 79,
      "chip": "ym2612"
    },
    {
      "channel": 4,
      "note": 56,
      "start": 3.2971,
      "duration": 0.0273,
      "velocity": 102,
      "chip": "ym2612"
    },
    {
      "channel": 3,
      "note": 80,
      "start": 3.3577,
      "duration": 0.0064,
      "velocity": 79,
      "chip": "ym2612"
    },
    {
      "channel": 4,
      "note": 51,
      "start": 3.358,
      "duration": 0.0063,
      "velocity": 102,
      "chip": "ym2612"
    },
    {
      "channel": 2,
      "note": 90,
      "start": 3.3678,
      "duration": 0.2224,
      "velocity": 97,
      "chip": "ym2612"
    },
    {
      "channel": 3,
      "note": 104,
      "start": 3.368,
      "duration": 0.0061,
      "velocity": 79,
      "chip": "ym2612"
    },
    {
      "channel": 4,
      "note": 44,
      "start": 3.3683,
      "duration": 0.006,
      "velocity": 102,
      "chip": "ym2612"
    },
    {
      "channel": 3,
      "note": 104,
      "start": 3.3973,
      "duration": 0.0062,
      "velocity": 79,
      "chip": "ym2612"
    },
    {
      "channel": 4,
      "note": 44,
      "start": 3.3976,
      "duration": 0.0061,
      "velocity": 102,
      "chip": "ym2612"
    },
    {
      "channel": 3,
      "note": 80,
      "start": 3.4073,
      "duration": 0.0833,
      "velocity": 79,
      "chip": "ym2612"
    },
    {
      "channel": 4,
      "note": 56,
      "start": 3.4075,
      "duration": 0.0832,
      "velocity": 102,
      "chip": "ym2612"
    },
    {
      "channel": 3,
      "note": 80,
      "start": 3.5241,
      "duration": 0.0063,
      "velocity": 79,
      "chip": "ym2612"
    },
    {
      "channel": 4,
      "note": 56,
      "start": 3.5243,
      "duration": 0.0062,
      "velocity": 102,
      "chip": "ym2612"
    },
    {
      "channel": 3,
      "note": 92,
      "start": 3.5336,
      "duration": 0.0061,
      "velocity": 79,
      "chip": "ym2612"
    },
    {
      "channel": 4,
      "note": 44,
      "start": 3.5338,
      "duration": 0.0059,
      "velocity": 102,
      "chip": "ym2612"
    },
    {
      "channel": 3,
      "note": 92,
      "start": 3.5433,
      "duration": 0.0064,
      "velocity": 79,
      "chip": "ym2612"
    },
    {
      "channel": 4,
      "note": 44,
      "start": 3.5436,
      "duration": 0.0062,
      "velocity": 102,
      "chip": "ym2612"
    },
    {
      "channel": 3,
      "note": 80,
      "start": 3.5534,
      "duration": 0.0063,
      "velocity": 79,
      "chip": "ym2612"
    },
    {
      "channel": 4,
      "note": 51,
      "start": 3.5537,
      "duration": 0.0062,
      "velocity": 102,
      "chip": "ym2612"
    },
    {
      "channel": 3,
      "note": 80,
      "start": 3.5628,
      "duration": 0.0275,
      "velocity": 79,
      "chip": "ym2612"
    },
    {
      "channel": 4,
      "note": 56,
      "start": 3.5631,
      "duration": 0.0273,
      "velocity": 102,
      "chip": "ym2612"
    },
    {
      "channel": 2,
      "note": 89,
      "start": 3.6237,
      "duration": 0.1958,
      "velocity": 97,
      "chip": "ym2612"
    },
    {
      "channel": 3,
      "note": 92,
      "start": 3.624,
      "duration": 0.0063,
      "velocity": 79,
      "chip": "ym2612"
    },
    {
      "channel": 4,
      "note": 44,
      "start": 3.6243,
      "duration": 0.0061,
      "velocity": 102,
      "chip": "ym2612"
    },
    {
      "channel": 3,
      "note": 92,
      "start": 3.6533,
      "duration": 0.0063,
      "velocity": 79,
      "chip": "ym2612"
    },
    {
      "channel": 4,
      "note": 44,
      "start": 3.6536,
      "duration": 0.0061,
      "velocity": 102,
      "chip": "ym2612"
    },
    {
      "channel": 3,
      "note": 80,
      "start": 3.6627,
      "duration": 0.0273,
      "velocity": 79,
      "chip": "ym2612"
    },
    {
      "channel": 4,
      "note": 56,
      "start": 3.6629,
      "duration": 0.0272,
      "velocity": 102,
      "chip": "ym2612"
    },
    {
      "channel": 3,
      "note": 80,
      "start": 3.7236,
      "duration": 0.0064,
      "velocity": 79,
      "chip": "ym2612"
    },
    {
      "channel": 4,
      "note": 56,
      "start": 3.7238,
      "duration": 0.0063,
      "velocity": 102,
      "chip": "ym2612"
    },
    {
      "channel": 3,
      "note": 92,
      "start": 3.7331,
      "duration": 0.0062,
      "velocity": 79,
      "chip": "ym2612"
    },
    {
      "channel": 4,
      "note": 44,
      "start": 3.7334,
      "duration": 0.0061,
      "velocity": 102,
      "chip": "ym2612"
    },
    {
      "channel": 3,
      "note": 92,
      "start": 3.7429,
      "duration": 0.0066,
      "velocity": 79,
      "chip": "ym2612"
    },
    {
      "channel": 4,
      "note": 44,
      "start": 3.7432,
      "duration": 0.0065,
      "velocity": 102,
      "chip": "ym2612"
    },
    {
      "channel": 3,
      "note": 80,
      "start": 3.7521,
      "duration": 0.0274,
      "velocity": 79,
      "chip": "ym2612"
    },
    {
      "channel": 4,
      "note": 56,
      "start": 3.7524,
      "duration": 0.0272,
      "velocity": 102,
      "chip": "ym2612"
    },
    {
      "channel": 3,
      "note": 80,
      "start": 3.813,
      "duration": 0.0066,
      "velocity": 79,
      "chip": "ym2612"
    },
    {
      "channel": 4,
      "note": 51,
      "start": 3.8132,
      "duration": 0.0064,
      "velocity": 102,
      "chip": "ym2612"
    },
    {
      "channel": 2,
      "note": 85,
      "start": 3.8231,
      "duration": 0.2225,
      "velocity": 97,
      "chip": "ym2612"
    },
    {
      "channel": 3,
      "note": 104,
      "start": 3.8234,
      "duration": 0.0061,
      "velocity": 79,
      "chip": "ym2612"
    },
    {
      "channel": 4,
      "note": 44,
      "start": 3.8237,
      "duration": 0.006,
      "velocity": 102,
      "chip": "ym2612"
    },
    {
      "channel": 3,
      "note": 104,
      "start": 3.8527,
      "duration": 0.0063,
      "velocity": 79,
      "chip": "ym2612"
    },
    {
      "channel": 4,
      "note": 44,
      "start": 3.8529,
      "duration": 0.0062,
      "velocity": 102,
      "chip": "ym2612"
    },
    {
      "channel": 3,
      "note": 80,
      "start": 3.8627,
      "duration": 0.0833,
      "velocity": 79,
      "chip": "ym2612"
    },
    {
      "channel": 4,
      "note": 56,
      "start": 3.8629,
      "duration": 0.0831,
      "velocity": 102,
      "chip": "ym2612"
    },
    {
      "channel": 3,
      "note": 80,
      "start": 3.9962,
      "duration": 0.0053,
      "velocity": 79,
      "chip": "ym2612"
    },
    {
      "channel": 4,
      "note": 56,
      "start": 3.9964,
      "duration": 0.0051,
      "velocity": 102,
      "chip": "ym2612"
    },
    {
      "channel": 3,
      "note": 92,
      "start": 4.0056,
      "duration": 0.005,
      "velocity": 79,
      "chip": "ym2612"
    },
    {
      "channel": 4,
      "note": 44,
      "start": 4.0059,
      "duration": 0.0049,
      "velocity": 102,
      "chip": "ym2612"
    },
    {
      "channel": 3,
      "note": 92,
      "start": 4.0154,
      "duration": 0.0054,
      "velocity": 79,
      "chip": "ym2612"
    },
    {
      "channel": 4,
      "note": 44,
      "start": 4.0156,
      "duration": 0.0052,
      "velocity": 102,
      "chip": "ym2612"
    },
    {
      "channel": 3,
      "note": 80,
      "start": 4.0256,
      "duration": 0.0053,
      "velocity": 79,
      "chip": "ym2612"
    },
    {
      "channel": 4,
      "note": 51,
      "start": 4.0258,
      "duration": 0.0052,
      "velocity": 102,
      "chip": "ym2612"
    },
    {
      "channel": 3,
      "note": 80,
      "start": 4.035,
      "duration": 0.0107,
      "velocity": 79,
      "chip": "ym2612"
    },
    {
      "channel": 4,
      "note": 56,
      "start": 4.0353,
      "duration": 0.0105,
      "velocity": 102,
      "chip": "ym2612"
    },
    {
      "channel": 0,
      "note": 80,
      "start": 4.0957,
      "duration": 0.006,
      "velocity": 98,
      "chip": "ym2612"
    },
    {
      "channel": 1,
      "note": 80,
      "start": 4.0959,
      "duration": 0.0058,
      "velocity": 98,
      "chip": "ym2612"
    },
    {
      "channel": 2,
      "note": 84,
      "start": 4.0961,
      "duration": 0.4219,
      "velocity": 97,
      "chip": "ym2612"
    },
    {
      "channel": 3,
      "note": 92,
      "start": 4.0965,
      "duration": 0.0054,
      "velocity": 79,
      "chip": "ym2612"
    },
    {
      "channel": 4,
      "note": 44,
      "start": 4.0967,
      "duration": 0.0053,
      "velocity": 102,
      "chip": "ym2612"
    },
    {
      "channel": 0,
      "note": 78,
      "start": 4.1253,
      "duration": 0.0056,
      "velocity": 98,
      "chip": "ym2612"
    },
    {
      "channel": 1,
      "note": 78,
      "start": 4.1256,
      "duration": 0.0055,
      "velocity": 98,
      "chip": "ym2612"
    },
    {
      "channel": 3,
      "note": 92,
      "start": 4.1259,
      "duration": 0.0054,
      "velocity": 79,
      "chip": "ym2612"
    },
    {
      "channel": 4,
      "note": 44,
      "start": 4.1261,
      "duration": 0.0052,
      "velocity": 102,
      "chip": "ym2612"
    },
    {
      "channel": 3,
      "note": 80,
      "start": 4.1356,
      "duration": 0.0108,
      "velocity": 79,
      "chip": "ym2612"
    },
    {
      "channel": 4,
      "note": 56,
      "start": 4.1359,
      "duration": 0.0107,
      "velocity": 102,
      "chip": "ym2612"
    },
    {
      "channel": 0,
      "note": 77,
      "start": 4.1963,
      "duration": 0.0059,
      "velocity": 98,
      "chip": "ym2612"
    },
    {
      "channel": 1,
      "note": 77,
      "start": 4.1965,
      "duration": 0.0057,
      "velocity": 98,
      "chip": "ym2612"
    },
    {
      "channel": 3,
      "note": 80,
      "start": 4.1968,
      "duration": 0.0056,
      "velocity": 79,
      "chip": "ym2612"
    },
    {
      "channel": 4,
      "note": 56,
      "start": 4.1971,
      "duration": 0.0055,
      "velocity": 102,
      "chip": "ym2612"
    },
    {
      "channel": 3,
      "note": 92,
      "start": 4.2061,
      "duration": 0.005,
      "velocity": 79,
      "chip": "ym2612"
    },
    {
      "channel": 4,
      "note": 44,
      "start": 4.2063,
      "duration": 0.0049,
      "velocity": 102,
      "chip": "ym2612"
    },
    {
      "channel": 0,
      "note": 75,
      "start": 4.2145,
      "duration": 0.0055,
      "velocity": 98,
      "chip": "ym2612"
    },
    {
      "channel": 1,
      "note": 75,
      "start": 4.2147,
      "duration": 0.0054,
      "velocity": 98,
      "chip": "ym2612"
    },
    {
      "channel": 3,
      "note": 92,
      "start": 4.215,
      "duration": 0.0053,
      "velocity": 79,
      "chip": "ym2612"
    },
    {
      "channel": 4,
      "note": 44,
      "start": 4.2153,
      "duration": 0.0051,
      "velocity": 102,
      "chip": "ym2612"
    },
    {
      "channel": 0,
      "note": 77,
      "start": 4.2238,
      "duration": 0.0106,
      "velocity": 98,
      "chip": "ym2612"
    },
    {
      "channel": 1,
      "note": 77,
      "start": 4.224,
      "duration": 0.0105,
      "velocity": 98,
      "chip": "ym2612"
    },
    {
      "channel": 3,
      "note": 80,
      "start": 4.2244,
      "duration": 0.0103,
      "velocity": 79,
      "chip": "ym2612"
    },
    {
      "channel": 4,
      "note": 56,
      "start": 4.2246,
      "duration": 0.0102,
      "velocity": 102,
      "chip": "ym2612"
    },
    {
      "channel": 3,
      "note": 80,
      "start": 4.2848,
      "duration": 0.0052,
      "velocity": 79,
      "chip": "ym2612"
    },
    {
      "channel": 4,
      "note": 51,
      "start": 4.285,
      "duration": 0.0051,
      "velocity": 102,
      "chip": "ym2612"
    },
    {
      "channel": 0,
      "note": 78,
      "start": 4.2946,
      "duration": 0.0353,
      "velocity": 98,
      "chip": "ym2612"
    },
    {
      "channel": 1,
      "note": 76,
      "start": 4.2949,
      "duration": 0.0351,
      "velocity": 98,
      "chip": "ym2612"
    },
    {
      "channel": 3,
      "note": 104,
      "start": 4.2953,
      "duration": 0.0054,
      "velocity": 79,
      "chip": "ym2612"
    },
    {
      "channel": 4,
      "note": 44,
      "start": 4.2955,
      "duration": 0.0053,
      "velocity": 102,
      "chip": "ym2612"
    },
    {
      "channel": 3,
      "note": 104,
      "start": 4.3246,
      "duration": 0.0055,
      "velocity": 79,
      "chip": "ym2612"
    },
    {
      "channel": 4,
      "note": 44,
      "start": 4.3248,
      "duration": 0.0054,
      "velocity": 102,
      "chip": "ym2612"
    },
    {
      "channel": 3,
      "note": 80,
      "start": 4.3346,
      "duration": 0.0667,
      "velocity": 79,
      "chip": "ym2612"
    },
    {
      "channel": 4,
      "note": 56,
      "start": 4.3349,
      "duration": 0.0666,
      "velocity": 102,
      "chip": "ym2612"
    },
    {
      "channel": 0,
      "note": 80,
      "start": 4.4512,
      "duration": 0.0165,
      "velocity": 98,
      "chip": "ym2612"
    },
    {
      "channel": 1,
      "note": 78,
      "start": 4.4516,
      "duration": 0.0163,
      "velocity": 98,
      "chip": "ym2612"
    },
    {
      "channel": 3,
      "note": 80,
      "start": 4.4519,
      "duration": 0.0056,
      "velocity": 79,
      "chip": "ym2612"
    },
    {
      "channel": 4,
      "note": 56,
      "start": 4.4522,
      "duration": 0.0055,
      "velocity": 102,
      "chip": "ym2612"
    },
    {
      "channel": 3,
      "note": 92,
      "start": 4.4614,
      "duration": 0.0066,
      "velocity": 79,
      "chip": "ym2612"
    },
    {
      "channel": 4,
      "note": 44,
      "start": 4.4616,
      "duration": 0.0065,
      "velocity": 102,
      "chip": "ym2612"
    },
    {
      "channel": 3,
      "note": 92,
      "start": 4.4708,
      "duration": 0.0061,
      "velocity": 79,
      "chip": "ym2612"
    },
    {
      "channel": 4,
      "note": 44,
      "start": 4.471,
      "duration": 0.006,
      "velocity": 102,
      "chip": "ym2612"
    },
    {
      "channel": 0,
      "note": 84,
      "start": 4.4804,
      "duration": 0.4748,
      "velocity": 98,
      "chip": "ym2612"
    },
    {
      "channel": 1,
      "note": 82,
      "start": 4.4807,
      "duration": 0.4746,
      "velocity": 98,
      "chip": "ym2612"
    },
    {
      "channel": 3,
      "note": 80,
      "start": 4.4811,
      "duration": 0.0067,
      "velocity": 79,
      "chip": "ym2612"
    },
    {
      "channel": 4,
      "note": 51,
      "start": 4.4813,
      "duration": 0.0066,
      "velocity": 102,
      "chip": "ym2612"
    },
    {
      "channel": 3,
      "note": 80,
      "start": 4.4905,
      "duration": 0.0276,
      "velocity": 79,
      "chip": "ym2612"
    },
    {
      "channel": 4,
      "note": 56,
      "start": 4.4908,
      "duration": 0.0275,
      "velocity": 102,
      "chip": "ym2612"
    },
    {
      "channel": 2,
      "note": 80,
      "start": 4.5517,
      "duration": 0.4037,
      "velocity": 97,
      "chip": "ym2612"
    },
    {
      "channel": 3,
      "note": 92,
      "start": 4.552,
      "duration": 0.0066,
      "velocity": 79,
      "chip": "ym2612"
    },
    {
      "channel": 4,
      "note": 44,
      "start": 4.5522,
      "duration": 0.0064,
      "velocity": 102,
      "chip": "ym2612"
    },
    {
      "channel": 3,
      "note": 92,
      "start": 4.5813,
      "duration": 0.0066,
      "velocity": 79,
      "chip": "ym2612"
    },
    {
      "channel": 4,
      "note": 44,
      "start": 4.5815,
      "duration": 0.0064,
      "velocity": 102,
      "chip": "ym2612"
    },
    {
      "channel": 3,
      "note": 80,
      "start": 4.5908,
      "duration": 0.0274,
      "velocity": 79,
      "chip": "ym2612"
    },
    {
      "channel": 4,
      "note": 56,
      "start": 4.5911,
      "duration": 0.0273,
      "velocity": 102,
      "chip": "ym2612"
    },
    {
      "channel": 3,
      "note": 80,
      "start": 4.6518,
      "duration": 0.0065,
      "velocity": 79,
      "chip": "ym2612"
    },
    {
      "channel": 4,
      "note": 56,
      "start": 4.652,
      "duration": 0.0064,
      "velocity": 102,
      "chip": "ym2612"
    },
    {
      "channel": 3,
      "note": 92,
      "start": 4.6614,
      "duration": 0.0064,
      "velocity": 79,
      "chip": "ym2612"
    },
    {
      "channel": 4,
      "note": 44,
      "start": 4.6617,
      "duration": 0.0063,
      "velocity": 102,
      "chip": "ym2612"
    },
    {
      "channel": 3,
      "note": 92,
      "start": 4.6714,
      "duration": 0.0066,
      "velocity": 79,
      "chip": "ym2612"
    },
    {
      "channel": 4,
      "note": 44,
      "start": 4.6716,
      "duration": 0.0064,
      "velocity": 102,
      "chip": "ym2612"
    },
    {
      "channel": 3,
      "note": 80,
      "start": 4.6806,
      "duration": 0.0271,
      "velocity": 79,
      "chip": "ym2612"
    },
    {
      "channel": 4,
      "note": 56,
      "start": 4.6808,
      "duration": 0.027,
      "velocity": 102,
      "chip": "ym2612"
    },
    {
      "channel": 3,
      "note": 80,
      "start": 4.7412,
      "duration": 0.0064,
      "velocity": 79,
      "chip": "ym2612"
    },
    {
      "channel": 4,
      "note": 51,
      "start": 4.7415,
      "duration": 0.0062,
      "velocity": 102,
      "chip": "ym2612"
    },
    {
      "channel": 3,
      "note": 104,
      "start": 4.7514,
      "duration": 0.0062,
      "velocity": 79,
      "chip": "ym2612"
    },
    {
      "channel": 4,
      "note": 44,
      "start": 4.7516,
      "duration": 0.006,
      "velocity": 102,
      "chip": "ym2612"
    },
    {
      "channel": 3,
      "note": 104,
      "start": 4.7809,
      "duration": 0.0062,
      "velocity": 79,
      "chip": "ym2612"
    },
    {
      "channel": 4,
      "note": 44,
      "start": 4.7811,
      "duration": 0.0061,
      "velocity": 102,
      "chip": "ym2612"
    },
    {
      "channel": 3,
      "note": 80,
      "start": 4.7909,
      "duration": 0.0833,
      "velocity": 79,
      "chip": "ym2612"
    },
    {
      "channel": 4,
      "note": 56,
      "start": 4.7911,
      "duration": 0.0832,
      "velocity": 102,
      "chip": "ym2612"
    },
    {
      "channel": 3,
      "note": 80,
      "start": 4.9077,
      "duration": 0.0063,
      "velocity": 79,
      "chip": "ym2612"
    },
    {
      "channel": 4,
      "note": 56,
      "start": 4.9079,
      "duration": 0.0062,
      "velocity": 102,
      "chip": "ym2612"
    },
    {
      "channel": 3,
      "note": 92,
      "start": 4.9178,
      "duration": 0.0077,
      "velocity": 79,
      "chip": "ym2612"
    },
    {
      "channel": 4,
      "note": 44,
      "start": 4.918,
      "duration": 0.0076,
      "velocity": 102,
      "chip": "ym2612"
    },
    {
      "channel": 3,
      "note": 92,
      "start": 4.9284,
      "duration": 0.0074,
      "velocity": 79,
      "chip": "ym2612"
    },
    {
      "channel": 4,
      "note": 44,
      "start": 4.9287,
      "duration": 0.0073,
      "velocity": 102,
      "chip": "ym2612"
    },
    {
      "channel": 3,
      "note": 80,
      "start": 4.9389,
      "duration": 0.0066,
      "velocity": 79,
      "chip": "ym2612"
    },
    {
      "channel": 4,
      "note": 51,
      "start": 4.9391,
      "duration": 0.0065,
      "velocity": 102,
      "chip": "ym2612"
    },
    {
      "channel": 3,
      "note": 80,
      "start": 4.9483,
      "duration": 0.0072,
      "velocity": 79,
      "chip": "ym2612"
    },
    {
      "channel": 4,
      "note": 56,
      "start": 4.9485,
      "duration": 0.0071,
      "velocity": 102,
      "chip": "ym2612"
    },
    {
      "channel": 2,
      "note": 87,
      "start": 4.9596,
      "duration": 0.1956,
      "velocity": 97,
      "chip": "ym2612"
    },
    {
      "channel": 3,
      "note": 92,
      "start": 4.9599,
      "duration": 0.0063,
      "velocity": 79,
      "chip": "ym2612"
    },
    {
      "channel": 4,
      "note": 44,
      "start": 4.9602,
      "duration": 0.0062,
      "velocity": 102,
      "chip": "ym2612"
    },
    {
      "channel": 3,
      "note": 92,
      "start": 4.9891,
      "duration": 0.0065,
      "velocity": 79,
      "chip": "ym2612"
    },
    {
      "channel": 4,
      "note": 44,
      "start": 4.9894,
      "duration": 0.0063,
      "velocity": 102,
      "chip": "ym2612"
    },
    {
      "channel": 3,
      "note": 80,
      "start": 4.9987,
      "duration": 0.0273,
      "velocity": 79,
      "chip": "ym2612"
    },
    {
      "channel": 4,
      "note": 56,
      "start": 4.9989,
      "duration": 0.0271,
      "velocity": 102,
      "chip": "ym2612"
    },
    {
      "channel": 3,
      "note": 80,
      "start": 5.0595,
      "duration": 0.0063,
      "velocity": 79,
      "chip": "ym2612"
    },
    {
      "channel": 4,
      "note": 56,
      "start": 5.0597,
      "duration": 0.0061,
      "velocity": 102,
      "chip": "ym2612"
    },
    {
      "channel": 3,
      "note": 92,
      "start": 5.069,
      "duration": 0.0061,
      "velocity": 79,
      "chip": "ym2612"
    },
    {
      "channel": 4,
      "note": 44,
      "start": 5.0692,
      "duration": 0.006,
      "velocity": 102,
      "chip": "ym2612"
    },
    {
      "channel": 3,
      "note": 92,
      "start": 5.0788,
      "duration": 0.0066,
      "velocity": 79,
      "chip": "ym2612"
    },
    {
      "channel": 4,
      "note": 44,
      "start": 5.079,
      "duration": 0.0065,
      "velocity": 102,
      "chip": "ym2612"
    },
    {
      "channel": 3,
      "note": 80,
      "start": 5.0879,
      "duration": 0.0273,
      "velocity": 79,
      "chip": "ym2612"
    },
    {
      "channel": 4,
      "note": 56,
      "start": 5.0882,
      "duration": 0.0272,
      "velocity": 102,
      "chip": "ym2612"
    },
    {
      "channel": 3,
      "note": 80,
      "start": 5.1488,
      "duration": 0.0065,
      "velocity": 79,
      "chip": "ym2612"
    },
    {
      "channel": 4,
      "note": 51,
      "start": 5.149,
      "duration": 0.0063,
      "velocity": 102,
      "chip": "ym2612"
    },
    {
      "channel": 2,
      "note": 90,
      "start": 5.1589,
      "duration": 0.2227,
      "velocity": 97,
      "chip": "ym2612"
    },
    {
      "channel": 3,
      "note": 104,
      "start": 5.1592,
      "duration": 0.0063,
      "velocity": 79,
      "chip": "ym2612"
    },
    {
      "channel": 4,
      "note": 44,
      "start": 5.1595,
      "duration": 0.0061,
      "velocity": 102,
      "chip": "ym2612"
    },
    {
      "channel": 3,
      "note": 104,
      "start": 5.1886,
      "duration": 0.0063,
      "velocity": 79,
      "chip": "ym2612"
    },
    {
      "channel": 4,
      "note": 44,
      "start": 5.1888,
      "duration": 0.0062,
      "velocity": 102,
      "chip": "ym2612"
    },
    {
      "channel": 3,
      "note": 80,
      "start": 5.1986,
      "duration": 0.0833,
      "velocity": 79,
      "chip": "ym2612"
    },
    {
      "channel": 4,
      "note": 56,
      "start": 5.1988,
      "duration": 0.0832,
      "velocity": 102,
      "chip": "ym2612"
    },
    {
      "channel": 3,
      "note": 80,
      "start": 5.3154,
      "duration": 0.0063,
      "velocity": 79,
      "chip": "ym2612"
    },
    {
      "channel": 4,
      "note": 56,
      "start": 5.3156,
      "duration": 0.0061,
      "velocity": 102,
      "chip": "ym2612"
    },
    {
      "channel": 3,
      "note": 92,
      "start": 5.3249,
      "duration": 0.0061,
      "velocity": 79,
      "chip": "ym2612"
    },
    {
      "channel": 4,
      "note": 44,
      "start": 5.3251,
      "duration": 0.006,
      "velocity": 102,
      "chip": "ym2612"
    },
    {
      "channel": 3,
      "note": 92,
      "start": 5.3347,
      "duration": 0.0063,
      "velocity": 79,
      "chip": "ym2612"
    },
    {
      "channel": 4,
      "note": 44,
      "start": 5.3349,
      "duration": 0.0062,
      "velocity": 102,
      "chip": "ym2612"
    },
    {
      "channel": 3,
      "note": 80,
      "start": 5.3615,
      "duration": 0.0054,
      "velocity": 79,
      "chip": "ym2612"
    },
    {
      "channel": 4,
      "note": 51,
      "start": 5.3617,
      "duration": 0.0052,
      "velocity": 102,
      "chip": "ym2612"
    },
    {
      "channel": 3,
      "note": 80,
      "start": 5.3709,
      "duration": 0.0108,
      "velocity": 79,
      "chip": "ym2612"
    },
    {
      "channel": 4,
      "note": 56,
      "start": 5.3712,
      "duration": 0.0107,
      "velocity": 102,
      "chip": "ym2612"
    },
    {
      "channel": 2,
      "note": 89,
      "start": 5.4317,
      "duration": 0.1944,
      "velocity": 97,
      "chip": "ym2612"
    },
    {
      "channel": 3,
      "note": 92,
      "start": 5.432,
      "duration": 0.0052,
      "velocity": 79,
      "chip": "ym2612"
    },
    {
      "channel": 4,
      "note": 44,
      "start": 5.4323,
      "duration": 0.0051,
      "velocity": 102,
      "chip": "ym2612"
    },
    {
      "channel": 3,
      "note": 92,
      "start": 5.4614,
      "duration": 0.0054,
      "velocity": 79,
      "chip": "ym2612"
    },
    {
      "channel": 4,
      "note": 44,
      "start": 5.4616,
      "duration": 0.0052,
      "velocity": 102,
      "chip": "ym2612"
    },
    {
      "channel": 3,
      "note": 80,
      "start": 5.4708,
      "duration": 0.0107,
      "velocity": 79,
      "chip": "ym2612"
    },
    {
      "channel": 4,
      "note": 56,
      "start": 5.471,
      "duration": 0.0105,
      "velocity": 102,
      "chip": "ym2612"
    },
    {
      "channel": 3,
      "note": 80,
      "start": 5.5316,
      "duration": 0.0054,
      "velocity": 79,
      "chip": "ym2612"
    },
    {
      "channel": 4,
      "note": 56,
      "start": 5.5319,
      "duration": 0.0053,
      "velocity": 102,
      "chip": "ym2612"
    },
    {
      "channel": 3,
      "note": 92,
      "start": 5.5412,
      "duration": 0.0051,
      "velocity": 79,
      "chip": "ym2612"
    },
    {
      "channel": 4,
      "note": 44,
      "start": 5.5414,
      "duration": 0.0049,
      "velocity": 102,
      "chip": "ym2612"
    },
    {
      "channel": 3,
      "note": 92,
      "start": 5.5509,
      "duration": 0.0055,
      "velocity": 79,
      "chip": "ym2612"
    },
    {
      "channel": 4,
      "note": 44,
      "start": 5.5512,
      "duration": 0.0054,
      "velocity": 102,
      "chip": "ym2612"
    },
    {
      "channel": 3,
      "note": 80,
      "start": 5.5601,
      "duration": 0.0105,
      "velocity": 79,
      "chip": "ym2612"
    },
    {
      "channel": 4,
      "note": 56,
      "start": 5.5604,
      "duration": 0.0104,
      "velocity": 102,
      "chip": "ym2612"
    },
    {
      "channel": 3,
      "note": 80,
      "start": 5.6208,
      "duration": 0.0054,
      "velocity": 79,
      "chip": "ym2612"
    },
    {
      "channel": 4,
      "note": 51,
      "start": 5.621,
      "duration": 0.0052,
      "velocity": 102,
      "chip": "ym2612"
    },
    {
      "channel": 2,
      "note": 85,
      "start": 5.6309,
      "duration": 0.2226,
      "velocity": 97,
      "chip": "ym2612"
    },
    {
      "channel": 3,
      "note": 104,
      "start": 5.6312,
      "duration": 0.0051,
      "velocity": 79,
      "chip": "ym2612"
    },
    {
      "channel": 4,
      "note": 44,
      "start": 5.6314,
      "duration": 0.005,
      "velocity": 102,
      "chip": "ym2612"
    },
    {
      "channel": 3,
      "note": 104,
      "start": 5.6605,
      "duration": 0.0051,
      "velocity": 79,
      "chip": "ym2612"
    },
    {
      "channel": 4,
      "note": 44,
      "start": 5.6607,
      "duration": 0.005,
      "velocity": 102,
      "chip": "ym2612"
    },
    {
      "channel": 3,
      "note": 80,
      "start": 5.6704,
      "duration": 0.0666,
      "velocity": 79,
      "chip": "ym2612"
    },
    {
      "channel": 4,
      "note": 56,
      "start": 5.6706,
      "duration": 0.0665,
      "velocity": 102,
      "chip": "ym2612"
    },
    {
      "channel": 3,
      "note": 80,
      "start": 5.7871,
      "duration": 0.0053,
      "velocity": 79,
      "chip": "ym2612"
    },
    {
      "channel": 4,
      "note": 56,
      "start": 5.7874,
      "duration": 0.0052,
      "velocity": 102,
      "chip": "ym2612"
    },
    {
      "channel": 3,
      "note": 92,
      "start": 5.7967,
      "duration": 0.0051,
      "velocity": 79,
      "chip": "ym2612"
    },
    {
      "channel": 4,
      "note": 44,
      "start": 5.7969,
      "duration": 0.0049,
      "velocity": 102,
      "chip": "ym2612"
    },
    {
      "channel": 3,
      "note": 92,
      "start": 5.8064,
      "duration": 0.0054,
      "velocity": 79,
      "chip": "ym2612"
    },
    {
      "channel": 4,
      "note": 44,
      "start": 5.8067,
      "duration": 0.0053,
      "velocity": 102,
      "chip": "ym2612"
    },
    {
      "channel": 3,
      "note": 80,
      "start": 5.8166,
      "duration": 0.0064,
      "velocity": 79,
      "chip": "ym2612"
    },
    {
      "channel": 4,
      "note": 51,
      "start": 5.8168,
      "duration": 0.0063,
      "velocity": 102,
      "chip": "ym2612"
    },
    {
      "channel": 3,
      "note": 80,
      "start": 5.8261,
      "duration": 0.0275,
      "velocity": 79,
      "chip": "ym2612"
    },
    {
      "channel": 4,
      "note": 56,
      "start": 5.8264,
      "duration": 0.0273,
      "velocity": 102,
      "chip": "ym2612"
    },
    {
      "channel": 0,
      "note": 87,
      "start": 5.8868,
      "duration": 0.007,
      "velocity": 98,
      "chip": "ym2612"
    },
    {
      "channel": 1,
      "note": 87,
      "start": 5.887,
      "duration": 0.0068,
      "velocity": 98,
      "chip": "ym2612"
    },
    {
      "channel": 2,
      "note": 84,
      "start": 5.8873,
      "duration": 0.422,
      "velocity": 97,
      "chip": "ym2612"
    },
    {
      "channel": 3,
      "note": 92,
      "start": 5.8876,
      "duration": 0.0064,
      "velocity": 79,
      "chip": "ym2612"
    },
    {
      "channel": 4,
      "note": 44,
      "start": 5.8879,
      "duration": 0.0063,
      "velocity": 102,
      "chip": "ym2612"
    },
    {
      "channel": 0,
      "note": 85,
      "start": 5.9164,
      "duration": 0.0066,
      "velocity": 98,
      "chip": "ym2612"
    },
    {
      "channel": 1,
      "note": 85,
      "start": 5.9167,
      "duration": 0.0065,
      "velocity": 98,
      "chip": "ym2612"
    },
    {
      "channel": 3,
      "note": 92,
      "start": 5.917,
      "duration": 0.0063,
      "velocity": 79,
      "chip": "ym2612"
    },
    {
      "channel": 4,
      "note": 44,
      "start": 5.9172,
      "duration": 0.0062,
      "velocity": 102,
      "chip": "ym2612"
    },
    {
      "channel": 3,
      "note": 80,
      "start": 5.9266,
      "duration": 0.0275,
      "velocity": 79,
      "chip": "ym2612"
    },
    {
      "channel": 4,
      "note": 56,
      "start": 5.9269,
      "duration": 0.0273,
      "velocity": 102,
      "chip": "ym2612"
    },
    {
      "channel": 0,
      "note": 84,
      "start": 5.9873,
      "duration": 0.007,
      "velocity": 98,
      "chip": "ym2612"
    },
    {
      "channel": 1,
      "note": 84,
      "start": 5.9876,
      "duration": 0.0069,
      "velocity": 98,
      "chip": "ym2612"
    },
    {
      "channel": 3,
      "note": 80,
      "start": 5.9879,
      "duration": 0.0067,
      "velocity": 79,
      "chip": "ym2612"
    },
    {
      "channel": 4,
      "note": 56,
      "start": 5.9881,
      "duration": 0.0066,
      "velocity": 102,
      "chip": "ym2612"
    },
    {
      "channel": 3,
      "note": 92,
      "start": 5.9972,
      "duration": 0.0061,
      "velocity": 79,
      "chip": "ym2612"
    },
    {
      "channel": 4,
      "note": 44,
      "start": 5.9974,
      "duration": 0.0059,
      "velocity": 102,
      "chip": "ym2612"
    },
    {
      "channel": 0,
      "note": 82,
      "start": 6.0056,
      "duration": 0.0068,
      "velocity": 98,
      "chip": "ym2612"
    },
    {
      "channel": 1,
      "note": 82,
      "start": 6.0059,
      "duration": 0.0067,
      "velocity": 98,
      "chip": "ym2612"
    },
    {
      "channel": 3,
      "note": 92,
      "start": 6.0062,
      "duration": 0.0065,
      "velocity": 79,
      "chip": "ym2612"
    },
    {
      "channel": 4,
      "note": 44,
      "start": 6.0064,
      "duration": 0.0064,
      "velocity": 102,
      "chip": "ym2612"
    },
    {
      "channel": 0,
      "note": 84,
      "start": 6.0152,
      "duration": 0.0274,
      "velocity": 98,
      "chip": "ym2612"
    },
    {
      "channel": 1,
      "note": 84,
      "start": 6.0154,
      "duration": 0.0273,
      "velocity": 98,
      "chip": "ym2612"
    },
    {
      "channel": 3,
      "note": 80,
      "start": 6.0158,
      "duration": 0.0271,
      "velocity": 79,
      "chip": "ym2612"
    },
    {
      "channel": 4,
      "note": 56,
      "start": 6.016,
      "duration": 0.0269,
      "velocity": 102,
      "chip": "ym2612"
    },
    {
      "channel": 3,
      "note": 80,
      "start": 6.0763,
      "duration": 0.0063,
      "velocity": 79,
      "chip": "ym2612"
    },
    {
      "channel": 4,
      "note": 51,
      "start": 6.0765,
      "duration": 0.0061,
      "velocity": 102,
      "chip": "ym2612"
    },
    {
      "channel": 0,
      "note": 90,
      "start": 6.086,
      "duration": 0.0364,
      "velocity": 98,
      "chip": "ym2612"
    },
    {
      "channel": 1,
      "note": 88,
      "start": 6.0863,
      "duration": 0.0362,
      "velocity": 98,
      "chip": "ym2612"
    },
    {
      "channel": 3,
      "note": 104,
      "start": 6.0867,
      "duration": 0.0066,
      "velocity": 79,
      "chip": "ym2612"
    },
    {
      "channel": 4,
      "note": 44,
      "start": 6.087,
      "duration": 0.0064,
      "velocity": 102,
      "chip": "ym2612"
    },
    {
      "channel": 3,
      "note": 104,
      "start": 6.116,
      "duration": 0.0067,
      "velocity": 79,
      "chip": "ym2612"
    },
    {
      "channel": 4,
      "note": 44,
      "start": 6.1163,
      "duration": 0.0065,
      "velocity": 102,
      "chip": "ym2612"
    },
    {
      "channel": 3,
      "note": 80,
      "start": 6.1261,
      "duration": 0.0834,
      "velocity": 79,
      "chip": "ym2612"
    },
    {
      "channel": 4,
      "note": 56,
      "start": 6.1264,
      "duration": 0.0833,
      "velocity": 102,
      "chip": "ym2612"
    },
    {
      "channel": 0,
      "note": 89,
      "start": 6.2427,
      "duration": 0.0165,
      "velocity": 98,
      "chip": "ym2612"
    },
    {
      "channel": 1,
      "note": 87,
      "start": 6.243,
      "duration": 0.0163,
      "velocity": 98,
      "chip": "ym2612"
    },
    {
      "channel": 3,
      "note": 80,
      "start": 6.2434,
      "duration": 0.0067,
      "velocity": 79,
      "chip": "ym2612"
    },
    {
      "channel": 4,
      "note": 56,
      "start": 6.2437,
      "duration": 0.0066,
      "velocity": 102,
      "chip": "ym2612"
    },
    {
      "channel": 3,
      "note": 92,
      "start": 6.2529,
      "duration": 0.0066,
      "velocity": 79,
      "chip": "ym2612"
    },
    {
      "channel": 4,
      "note": 44,
      "start": 6.2532,
      "duration": 0.0065,
      "velocity": 102,
      "chip": "ym2612"
    },
    {
      "channel": 3,
      "note": 92,
      "start": 6.2623,
      "duration": 0.0062,
      "velocity": 79,
      "chip": "ym2612"
    },
    {
      "channel": 4,
      "note": 44,
      "start": 6.2625,
      "duration": 0.0061,
      "velocity": 102,
      "chip": "ym2612"
    },
    {
      "channel": 0,
      "note": 87,
      "start": 6.2719,
      "duration": 0.4744,
      "velocity": 98,
      "chip": "ym2612"
    },
    {
      "channel": 1,
      "note": 86,
      "start": 6.2722,
      "duration": 0.4742,
      "velocity": 98,
      "chip": "ym2612"
    },
    {
      "channel": 3,
      "note": 80,
      "start": 6.2726,
      "duration": 0.0066,
      "velocity": 79,
      "chip": "ym2612"
    },
    {
      "channel": 4,
      "note": 51,
      "start": 6.2729,
      "duration": 0.0064,
      "velocity": 102,
      "chip": "ym2612"
    },
    {
      "channel": 3,
      "note": 80,
      "start": 6.2818,
      "duration": 0.0276,
      "velocity": 79,
      "chip": "ym2612"
    },
    {
      "channel": 4,
      "note": 56,
      "start": 6.282,
      "duration": 0.0275,
      "velocity": 102,
      "chip": "ym2612"
    },
    {
      "channel": 2,
      "note": 80,
      "start": 6.3429,
      "duration": 0.4036,
      "velocity": 97,
      "chip": "ym2612"
    },
    {
      "channel": 3,
      "note": 92,
      "start": 6.3432,
      "duration": 0.0066,
      "velocity": 79,
      "chip": "ym2612"
    },
    {
      "channel": 4,
      "note": 44,
      "start": 6.3435,
      "duration": 0.0064,
      "velocity": 102,
      "chip": "ym2612"
    },
    {
      "channel": 3,
      "note": 92,
      "start": 6.3726,
      "duration": 0.0065,
      "velocity": 79,
      "chip": "ym2612"
    },
    {
      "channel": 4,
      "note": 44,
      "start": 6.3728,
      "duration": 0.0063,
      "velocity": 102,
      "chip": "ym2612"
    },
    {
      "channel": 3,
      "note": 80,
      "start": 6.3821,
      "duration": 0.0275,
      "velocity": 79,
      "chip": "ym2612"
    },
    {
      "channel": 4,
      "note": 56,
      "start": 6.3823,
      "duration": 0.0273,
      "velocity": 102,
      "chip": "ym2612"
    },
    {
      "channel": 3,
      "note": 80,
      "start": 6.443,
      "duration": 0.0064,
      "velocity": 79,
      "chip": "ym2612"
    },
    {
      "channel": 4,
      "note": 56,
      "start": 6.4433,
      "duration": 0.0063,
      "velocity": 102,
      "chip": "ym2612"
    },
    {
      "channel": 3,
      "note": 92,
      "start": 6.4525,
      "duration": 0.0061,
      "velocity": 79,
      "chip": "ym2612"
    },
    {
      "channel": 4,
      "note": 44,
      "start": 6.4527,
      "duration": 0.0059,
      "velocity": 102,
      "chip": "ym2612"
    },
    {
      "channel": 3,
      "note": 92,
      "start": 6.4623,
      "duration": 0.0066,
      "velocity": 79,
      "chip": "ym2612"
    },
    {
      "channel": 4,
      "note": 44,
      "start": 6.4625,
      "duration": 0.0064,
      "velocity": 102,
      "chip": "ym2612"
    },
    {
      "channel": 3,
      "note": 80,
      "start": 6.4715,
      "duration": 0.0272,
      "velocity": 79,
      "chip": "ym2612"
    },
    {
      "channel": 4,
      "note": 56,
      "start": 6.4717,
      "duration": 0.027,
      "velocity": 102,
      "chip": "ym2612"
    },
    {
      "channel": 3,
      "note": 80,
      "start": 6.5321,
      "duration": 0.0063,
      "velocity": 79,
      "chip": "ym2612"
    },
    {
      "channel": 4,
      "note": 51,
      "start": 6.5324,
      "duration": 0.0061,
      "velocity": 102,
      "chip": "ym2612"
    },
    {
      "channel": 3,
      "note": 104,
      "start": 6.5424,
      "duration": 0.0063,
      "velocity": 79,
      "chip": "ym2612"
    },
    {
      "channel": 4,
      "note": 44,
      "start": 6.5426,
      "duration": 0.0061,
      "velocity": 102,
      "chip": "ym2612"
    },
    {
      "channel": 3,
      "note": 104,
      "start": 6.5718,
      "duration": 0.0062,
      "velocity": 79,
      "chip": "ym2612"
    },
    {
      "channel": 4,
      "note": 44,
      "start": 6.572,
      "duration": 0.0061,
      "velocity": 102,
      "chip": "ym2612"
    },
    {
      "channel": 3,
      "note": 80,
      "start": 6.5818,
      "duration": 0.0833,
      "velocity": 79,
      "chip": "ym2612"
    },
    {
      "channel": 4,
      "note": 56,
      "start": 6.582,
      "duration": 0.0832,
      "velocity": 102,
      "chip": "ym2612"
    },
    {
      "channel": 3,
      "note": 80,
      "start": 6.6985,
      "duration": 0.0063,
      "velocity": 79,
      "chip": "ym2612"
    },
    {
      "channel": 4,
      "note": 56,
      "start": 6.6988,
      "duration": 0.0062,
      "velocity": 102,
      "chip": "ym2612"
    },
    {
      "channel": 3,
      "note": 92,
      "start": 6.7087,
      "duration": 0.0078,
      "velocity": 79,
      "chip": "ym2612"
    },
    {
      "channel": 4,
      "note": 44,
      "start": 6.7089,
      "duration": 0.0077,
      "velocity": 102,
      "chip": "ym2612"
    },
    {
      "channel": 3,
      "note": 92,
      "start": 6.7195,
      "duration": 0.0074,
      "velocity": 79,
      "chip": "ym2612"
    },
    {
      "channel": 4,
      "note": 44,
      "start": 6.7198,
      "duration": 0.0073,
      "velocity": 102,
      "chip": "ym2612"
    },
    {
      "channel": 3,
      "note": 80,
      "start": 6.73,
      "duration": 0.0066,
      "velocity": 79,
      "chip": "ym2612"
    },
    {
      "channel": 4,
      "note": 51,
      "start": 6.7302,
      "duration": 0.0065,
      "velocity": 102,
      "chip": "ym2612"
    },
    {
      "channel": 3,
      "note": 80,
      "start": 6.7394,
      "duration": 0.0072,
      "velocity": 79,
      "chip": "ym2612"
    },
    {
      "channel": 4,
      "note": 56,
      "start": 6.7396,
      "duration": 0.0071,
      "velocity": 102,
      "chip": "ym2612"
    },
    {
      "channel": 0,
      "note": 72,
      "start": 6.7506,
      "duration": 0.4215,
      "velocity": 98,
      "chip": "ym2612"
    },
    {
      "channel": 1,
      "note": 72,
      "start": 6.751,
      "duration": 0.4213,
      "velocity": 98,
      "chip": "ym2612"
    },
    {
      "channel": 2,
      "note": 87,
      "start": 6.7512,
      "duration": 0.2107,
      "velocity": 97,
      "chip": "ym2612"
    },
    {
      "channel": 3,
      "note": 92,
      "start": 6.7515,
      "duration": 0.0063,
      "velocity": 79,
      "chip": "ym2612"
    },
    {
      "channel": 4,
      "note": 44,
      "start": 6.7518,
      "duration": 0.0061,
      "velocity": 102,
      "chip": "ym2612"
    },
    {
      "channel": 3,
      "note": 92,
      "start": 6.797,
      "duration": 0.0054,
      "velocity": 79,
      "chip": "ym2612"
    },
    {
      "channel": 4,
      "note": 44,
      "start": 6.7972,
      "duration": 0.0052,
      "velocity": 102,
      "chip": "ym2612"
    },
    {
      "channel": 3,
      "note": 80,
      "start": 6.8065,
      "duration": 0.0107,
      "velocity": 79,
      "chip": "ym2612"
    },
    {
      "channel": 4,
      "note": 56,
      "start": 6.8068,
      "duration": 0.0105,
      "velocity": 102,
      "chip": "ym2612"
    },
    {
      "channel": 3,
      "note": 80,
      "start": 6.8674,
      "duration": 0.0053,
      "velocity": 79,
      "chip": "ym2612"
    },
    {
      "channel": 4,
      "note": 56,
      "start": 6.8676,
      "duration": 0.0051,
      "velocity": 102,
      "chip": "ym2612"
    },
    {
      "channel": 3,
      "note": 92,
      "start": 6.8769,
      "duration": 0.005,
      "velocity": 79,
      "chip": "ym2612"
    },
    {
      "channel": 4,
      "note": 44,
      "start": 6.8771,
      "duration": 0.0049,
      "velocity": 102,
      "chip": "ym2612"
    },
    {
      "channel": 3,
      "note": 92,
      "start": 6.8866,
      "duration": 0.0055,
      "velocity": 79,
      "chip": "ym2612"
    },
    {
      "channel": 4,
      "note": 44,
      "start": 6.8869,
      "duration": 0.0053,
      "velocity": 102,
      "chip": "ym2612"
    },
    {
      "channel": 3,
      "note": 80,
      "start": 6.8958,
      "duration": 0.0107,
      "velocity": 79,
      "chip": "ym2612"
    },
    {
      "channel": 4,
      "note": 56,
      "start": 6.896,
      "duration": 0.0106,
      "velocity": 102,
      "chip": "ym2612"
    },
    {
      "channel": 3,
      "note": 80,
      "start": 6.9566,
      "duration": 0.0054,
      "velocity": 79,
      "chip": "ym2612"
    },
    {
      "channel": 4,
      "note": 51,
      "start": 6.9569,
      "duration": 0.0053,
      "velocity": 102,
      "chip": "ym2612"
    },
    {
      "channel": 2,
      "note": 90,
      "start": 6.9667,
      "duration": 0.2057,
      "velocity": 97,
      "chip": "ym2612"
    },
    {
      "channel": 3,
      "note": 104,
      "start": 6.967,
      "duration": 0.0051,
      "velocity": 79,
      "chip": "ym2612"
    },
    {
      "channel": 4,
      "note": 44,
      "start": 6.9672,
      "duration": 0.0049,
      "velocity": 102,
      "chip": "ym2612"
    },
    {
      "channel": 3,
      "note": 104,
      "start": 6.9962,
      "duration": 0.0052,
      "velocity": 79,
      "chip": "ym2612"
    },
    {
      "channel": 4,
      "note": 44,
      "start": 6.9965,
      "duration": 0.0051,
      "velocity": 102,
      "chip": "ym2612"
    },
    {
      "channel": 3,
      "note": 80,
      "start": 7.0062,
      "duration": 0.0666,
      "velocity": 79,
      "chip": "ym2612"
    },
    {
      "channel": 4,
      "note": 56,
      "start": 7.0064,
      "duration": 0.0665,
      "velocity": 102,
      "chip": "ym2612"
    },
    {
      "channel": 3,
      "note": 80,
      "start": 7.1229,
      "duration": 0.0053,
      "velocity": 79,
      "chip": "ym2612"
    },
    {
      "channel": 4,
      "note": 56,
      "start": 7.1232,
      "duration": 0.0052,
      "velocity": 102,
      "chip": "ym2612"
    },
    {
      "channel": 3,
      "note": 92,
      "start": 7.1325,
      "duration": 0.005,
      "velocity": 79,
      "chip": "ym2612"
    },
    {
      "channel": 4,
      "note": 44,
      "start": 7.1327,
      "duration": 0.0049,
      "velocity": 102,
      "chip": "ym2612"
    },
    {
      "channel": 3,
      "note": 92,
      "start": 7.1422,
      "duration": 0.0054,
      "velocity": 79,
      "chip": "ym2612"
    },
    {
      "channel": 4,
      "note": 44,
      "start": 7.1425,
      "duration": 0.0052,
      "velocity": 102,
      "chip": "ym2612"
    },
    {
      "channel": 3,
      "note": 80,
      "start": 7.1523,
      "duration": 0.0053,
      "velocity": 79,
      "chip": "ym2612"
    },
    {
      "channel": 4,
      "note": 51,
      "start": 7.1526,
      "duration": 0.0051,
      "velocity": 102,
      "chip": "ym2612"
    },
    {
      "channel": 3,
      "note": 80,
      "start": 7.1617,
      "duration": 0.0108,
      "velocity": 79,
      "chip": "ym2612"
    },
    {
      "channel": 4,
      "note": 56,
      "start": 7.162,
      "duration": 0.0106,
      "velocity": 102,
      "chip": "ym2612"
    },
    {
      "channel": 0,
      "note": 68,
      "start": 7.2223,
      "duration": 0.4214,
      "velocity": 98,
      "chip": "ym2612"
    },
    {
      "channel": 1,
      "note": 68,
      "start": 7.2226,
      "duration": 0.4213,
      "velocity": 98,
      "chip": "ym2612"
    },
    {
      "channel": 2,
      "note": 89,
      "start": 7.2228,
      "duration": 0.1949,
      "velocity": 97,
      "chip": "ym2612"
    },
    {
      "channel": 3,
      "note": 92,
      "start": 7.2232,
      "duration": 0.0051,
      "velocity": 79,
      "chip": "ym2612"
    },
    {
      "channel": 4,
      "note": 44,
      "start": 7.2234,
      "duration": 0.0049,
      "velocity": 102,
      "chip": "ym2612"
    },
    {
      "channel": 3,
      "note": 92,
      "start": 7.252,
      "duration": 0.0063,
      "velocity": 79,
      "chip": "ym2612"
    },
    {
      "channel": 4,
      "note": 44,
      "start": 7.2522,
      "duration": 0.0062,
      "velocity": 102,
      "chip": "ym2612"
    },
    {
      "channel": 3,
      "note": 80,
      "start": 7.2614,
      "duration": 0.0273,
      "velocity": 79,
      "chip": "ym2612"
    },
    {
      "channel": 4,
      "note": 56,
      "start": 7.2616,
      "duration": 0.0272,
      "velocity": 102,
      "chip": "ym2612"
    },
    {
      "channel": 3,
      "note": 80,
      "start": 7.3222,
      "duration": 0.0063,
      "velocity": 79,
      "chip": "ym2612"
    },
    {
      "channel": 4,
      "note": 56,
      "start": 7.3224,
      "duration": 0.0062,
      "velocity": 102,
      "chip": "ym2612"
    },
    {
      "channel": 3,
      "note": 92,
      "start": 7.3317,
      "duration": 0.0061,
      "velocity": 79,
      "chip": "ym2612"
    },
    {
      "channel": 4,
      "note": 44,
      "start": 7.332,
      "duration": 0.0059,
      "velocity": 102,
      "chip": "ym2612"
    },
    {
      "channel": 3,
      "note": 92,
      "start": 7.3414,
      "duration": 0.0066,
      "velocity": 79,
      "chip": "ym2612"
    },
    {
      "channel": 4,
      "note": 44,
      "start": 7.3417,
      "duration": 0.0064,
      "velocity": 102,
      "chip": "ym2612"
    },
    {
      "channel": 3,
      "note": 80,
      "start": 7.3506,
      "duration": 0.0274,
      "velocity": 79,
      "chip": "ym2612"
    },
    {
      "channel": 4,
      "note": 56,
      "start": 7.3508,
      "duration": 0.0273,
      "velocity": 102,
      "chip": "ym2612"
    },
    {
      "channel": 3,
      "note": 80,
      "start": 7.4115,
      "duration": 0.0064,
      "velocity": 79,
      "chip": "ym2612"
    },
    {
      "channel": 4,
      "note": 51,
      "start": 7.4117,
      "duration": 0.0063,
      "velocity": 102,
      "chip": "ym2612"
    },
    {
      "channel": 2,
      "note": 85,
      "start": 7.4215,
      "duration": 0.2225,
      "velocity": 97,
      "chip": "ym2612"
    },
    {
      "channel": 3,
      "note": 104,
      "start": 7.4218,
      "duration": 0.0061,
      "velocity": 79,
      "chip": "ym2612"
    },
    {
      "channel": 4,
      "note": 44,
      "start": 7.422,
      "duration": 0.006,
      "velocity": 102,
      "chip": "ym2612"
    },
    {
      "channel": 3,
      "note": 104,
      "start": 7.451,
      "duration": 0.0062,
      "velocity": 79,
      "chip": "ym2612"
    },
    {
      "channel": 4,
      "note": 44,
      "start": 7.4512,
      "duration": 0.0061,
      "velocity": 102,
      "chip": "ym2612"
    },
    {
      "channel": 3,
      "note": 80,
      "start": 7.4609,
      "duration": 0.0833,
      "velocity": 79,
      "chip": "ym2612"
    },
    {
      "channel": 4,
      "note": 56,
      "start": 7.4611,
      "duration": 0.0832,
      "velocity": 102,
      "chip": "ym2612"
    },
    {
      "channel": 3,
      "note": 80,
      "start": 7.5777,
      "duration": 0.0063,
      "velocity": 79,
      "chip": "ym2612"
    },
    {
      "channel": 4,
      "note": 56,
      "start": 7.5779,
      "duration": 0.0062,
      "velocity": 102,
      "chip": "ym2612"
    },
    {
      "channel": 3,
      "note": 92,
      "start": 7.5872,
      "duration": 0.0061,
      "velocity": 79,
      "chip": "ym2612"
    },
    {
      "channel": 4,
      "note": 44,
      "start": 7.5874,
      "duration": 0.0059,
      "velocity": 102,
      "chip": "ym2612"
    },
    {
      "channel": 3,
      "note": 92,
      "start": 7.5969,
      "duration": 0.0064,
      "velocity": 79,
      "chip": "ym2612"
    },
    {
      "channel": 4,
      "note": 44,
      "start": 7.5971,
      "duration": 0.0063,
      "velocity": 102,
      "chip": "ym2612"
    },
    {
      "channel": 3,
      "note": 80,
      "start": 7.6071,
      "duration": 0.0064,
      "velocity": 79,
      "chip": "ym2612"
    },
    {
      "channel": 4,
      "note": 51,
      "start": 7.6073,
      "duration": 0.0063,
      "velocity": 102,
      "chip": "ym2612"
    },
    {
      "channel": 3,
      "note": 80,
      "start": 7.6166,
      "duration": 0.0275,
      "velocity": 79,
      "chip": "ym2612"
    },
    {
      "channel": 4,
      "note": 56,
      "start": 7.6168,
      "duration": 0.0274,
      "velocity": 102,
      "chip": "ym2612"
    },
    {
      "channel": 0,
      "note": 72,
      "start": 7.6773,
      "duration": 0.0663,
      "velocity": 98,
      "chip": "ym2612"
    },
    {
      "channel": 1,
      "note": 70,
      "start": 7.6777,
      "duration": 0.066,
      "velocity": 98,
      "chip": "ym2612"
    },
    {
      "channel": 2,
      "note": 84,
      "start": 7.678,
      "duration": 0.5278,
      "velocity": 97,
      "chip": "ym2612"
    },
    {
      "channel": 3,
      "note": 92,
      "start": 7.6783,
      "duration": 0.0065,
      "velocity": 79,
      "chip": "ym2612"
    },
    {
      "channel": 4,
      "note": 44,
      "start": 7.6786,
      "duration": 0.0064,
      "velocity": 102,
      "chip": "ym2612"
    },
    {
      "channel": 3,
      "note": 92,
      "start": 7.7072,
      "duration": 0.0068,
      "velocity": 79,
      "chip": "ym2612"
    },
    {
      "channel": 4,
      "note": 44,
      "start": 7.7074,
      "duration": 0.0067,
      "velocity": 102,
      "chip": "ym2612"
    },
    {
      "channel": 3,
      "note": 80,
      "start": 7.7164,
      "duration": 0.0274,
      "velocity": 79,
      "chip": "ym2612"
    },
    {
      "channel": 4,
      "note": 56,
      "start": 7.7167,
      "duration": 0.0272,
      "velocity": 102,
      "chip": "ym2612"
    },
    {
      "channel": 0,
      "note": 75,
      "start": 7.777,
      "duration": 0.0252,
      "velocity": 98,
      "chip": "ym2612"
    },
    {
      "channel": 1,
      "note": 73,
      "start": 7.7773,
      "duration": 0.025,
      "velocity": 98,
      "chip": "ym2612"
    },
    {
      "channel": 3,
      "note": 80,
      "start": 7.7777,
      "duration": 0.0066,
      "velocity": 79,
      "chip": "ym2612"
    },
    {
      "channel": 4,
      "note": 56,
      "start": 7.778,
      "duration": 0.0065,
      "velocity": 102,
      "chip": "ym2612"
    },
    {
      "channel": 3,
      "note": 92,
      "start": 7.7871,
      "duration": 0.0065,
      "velocity": 79,
      "chip": "ym2612"
    },
    {
      "channel": 4,
      "note": 44,
      "start": 7.7874,
      "duration": 0.0064,
      "velocity": 102,
      "chip": "ym2612"
    },
    {
      "channel": 3,
      "note": 92,
      "start": 7.7963,
      "duration": 0.0062,
      "velocity": 79,
      "chip": "ym2612"
    },
    {
      "channel": 4,
      "note": 44,
      "start": 7.7965,
      "duration": 0.0061,
      "velocity": 102,
      "chip": "ym2612"
    },
    {
      "channel": 0,
      "note": 77,
      "start": 7.805,
      "duration": 0.0777,
      "velocity": 98,
      "chip": "ym2612"
    },
    {
      "channel": 1,
      "note": 75,
      "start": 7.8053,
      "duration": 0.0775,
      "velocity": 98,
      "chip": "ym2612"
    },
    {
      "channel": 3,
      "note": 80,
      "start": 7.8057,
      "duration": 0.0274,
      "velocity": 79,
      "chip": "ym2612"
    },
    {
      "channel": 4,
      "note": 56,
      "start": 7.806,
      "duration": 0.0273,
      "velocity": 102,
      "chip": "ym2612"
    },
    {
      "channel": 3,
      "note": 80,
      "start": 7.8666,
      "duration": 0.0066,
      "velocity": 79,
      "chip": "ym2612"
    },
    {
      "channel": 4,
      "note": 51,
      "start": 7.8668,
      "duration": 0.0065,
      "velocity": 102,
      "chip": "ym2612"
    },
    {
      "channel": 3,
      "note": 104,
      "start": 7.8767,
      "duration": 0.0063,
      "velocity": 79,
      "chip": "ym2612"
    },
    {
      "channel": 4,
      "note": 44,
      "start": 7.8769,
      "duration": 0.0062,
      "velocity": 102,
      "chip": "ym2612"
    },
    {
      "channel": 0,
      "note": 78,
      "start": 7.906,
      "duration": 0.1327,
      "velocity": 98,
      "chip": "ym2612"
    },
    {
      "channel": 1,
      "note": 76,
      "start": 7.9063,
      "duration": 0.1325,
      "velocity": 98,
      "chip": "ym2612"
    },
    {
      "channel": 3,
      "note": 104,
      "start": 7.9067,
      "duration": 0.0063,
      "velocity": 79,
      "chip": "ym2612"
    },
    {
      "channel": 4,
      "note": 44,
      "start": 7.9069,
      "duration": 0.0062,
      "velocity": 102,
      "chip": "ym2612"
    },
    {
      "channel": 3,
      "note": 80,
      "start": 7.9157,
      "duration": 0.0834,
      "velocity": 79,
      "chip": "ym2612"
    },
    {
      "channel": 4,
      "note": 56,
      "start": 7.916,
      "duration": 0.0833,
      "velocity": 102,
      "chip": "ym2612"
    },
    {
      "channel": 3,
      "note": 80,
      "start": 8.0324,
      "duration": 0.0066,
      "velocity": 79,
      "chip": "ym2612"
    },
    {
      "channel": 4,
      "note": 56,
      "start": 8.0327,
      "duration": 0.0064,
      "velocity": 102,
      "chip": "ym2612"
    },
    {
      "channel": 0,
      "note": 80,
      "start": 8.0419,
      "duration": 0.0167,
      "velocity": 98,
      "chip": "ym2612"
    },
    {
      "channel": 1,
      "note": 78,
      "start": 8.0422,
      "duration": 0.0165,
      "velocity": 98,
      "chip": "ym2612"
    },
    {
      "channel": 3,
      "note": 92,
      "start": 8.0426,
      "duration": 0.0065,
      "velocity": 79,
      "chip": "ym2612"
    },
    {
      "channel": 4,
      "note": 44,
      "start": 8.0429,
      "duration": 0.0063,
      "velocity": 102,
      "chip": "ym2612"
    },
    {
      "channel": 3,
      "note": 92,
      "start": 8.0519,
      "duration": 0.007,
      "velocity": 79,
      "chip": "ym2612"
    },
    {
      "channel": 4,
      "note": 44,
      "start": 8.0521,
      "duration": 0.0069,
      "velocity": 102,
      "chip": "ym2612"
    },
    {
      "channel": 0,
      "note": 82,
      "start": 8.0614,
      "duration": 0.1442,
      "velocity": 98,
      "chip": "ym2612"
    },
    {
      "channel": 1,
      "note": 80,
      "start": 8.0617,
      "duration": 0.144,
      "velocity": 98,
      "chip": "ym2612"
    },
    {
      "channel": 3,
      "note": 80,
      "start": 8.0622,
      "duration": 0.0828,
      "velocity": 79,
      "chip": "ym2612"
    },
    {
      "channel": 4,
      "note": 51,
      "start": 8.0624,
      "duration": 0.0827,
      "velocity": 102,
      "chip": "ym2612"
    },
    {
      "channel": 3,
      "note": 80,
      "start": 8.1785,
      "duration": 0.0275,
      "velocity": 79,
      "chip": "ym2612"
    },
    {
      "channel": 4,
      "note": 56,
      "start": 8.1787,
      "duration": 0.0273,
      "velocity": 102,
      "chip": "ym2612"
    },
    {
      "channel": 0,
      "note": 84,
      "start": 8.2391,
      "duration": 0.419,
      "velocity": 98,
      "chip": "ym2612"
    },
    {
      "channel": 1,
      "note": 83,
      "start": 8.2394,
      "duration": 0.4188,
      "velocity": 98,
      "chip": "ym2612"
    },
    {
      "channel": 2,
      "note": 80,
      "start": 8.2397,
      "duration": 0.4186,
      "velocity": 97,
      "chip": "ym2612"
    },
    {
      "channel": 3,
      "note": 92,
      "start": 8.24,
      "duration": 0.0063,
      "velocity": 79,
      "chip": "ym2612"
    },
    {
      "channel": 4,
      "note": 44,
      "start": 8.2403,
      "duration": 0.0062,
      "velocity": 102,
      "chip": "ym2612"
    },
    {
      "channel": 3,
      "note": 92,
      "start": 8.2689,
      "duration": 0.0067,
      "velocity": 79,
      "chip": "ym2612"
    },
    {
      "channel": 4,
      "note": 44,
      "start": 8.2691,
      "duration": 0.0066,
      "velocity": 102,
      "chip": "ym2612"
    },
    {
      "channel": 3,
      "note": 80,
      "start": 8.2786,
      "duration": 0.0275,
      "velocity": 79,
      "chip": "ym2612"
    },
    {
      "channel": 4,
      "note": 56,
      "start": 8.2788,
      "duration": 0.0273,
      "velocity": 102,
      "chip": "ym2612"
    },
    {
      "channel": 3,
      "note": 80,
      "start": 8.3396,
      "duration": 0.0065,
      "velocity": 79,
      "chip": "ym2612"
    },
    {
      "channel": 4,
      "note": 56,
      "start": 8.3398,
      "duration": 0.0064,
      "velocity": 102,
      "chip": "ym2612"
    },
    {
      "channel": 3,
      "note": 92,
      "start": 8.3659,
      "duration": 0.0054,
      "velocity": 79,
      "chip": "ym2612"
    },
    {
      "channel": 4,
      "note": 44,
      "start": 8.3661,
      "duration": 0.0052,
      "velocity": 102,
      "chip": "ym2612"
    },
    {
      "channel": 3,
      "note": 92,
      "start": 8.3759,
      "duration": 0.0056,
      "velocity": 79,
      "chip": "ym2612"
    },
    {
      "channel": 4,
      "note": 44,
      "start": 8.3761,
      "duration": 0.0054,
      "velocity": 102,
      "chip": "ym2612"
    },
    {
      "channel": 3,
      "note": 80,
      "start": 8.3851,
      "duration": 0.0103,
      "velocity": 79,
      "chip": "ym2612"
    },
    {
      "channel": 4,
      "note": 56,
      "start": 8.3854,
      "duration": 0.0102,
      "velocity": 102,
      "chip": "ym2612"
    },
    {
      "channel": 3,
      "note": 80,
      "start": 8.4456,
      "duration": 0.0053,
      "velocity": 79,
      "chip": "ym2612"
    },
    {
      "channel": 4,
      "note": 51,
      "start": 8.4459,
      "duration": 0.0052,
      "velocity": 102,
      "chip": "ym2612"
    },
    {
      "channel": 3,
      "note": 104,
      "start": 8.4558,
      "duration": 0.005,
      "velocity": 79,
      "chip": "ym2612"
    },
    {
      "channel": 4,
      "note": 44,
      "start": 8.456,
      "duration": 0.0049,
      "velocity": 102,
      "chip": "ym2612"
    },
    {
      "channel": 3,
      "note": 104,
      "start": 8.4852,
      "duration": 0.0052,
      "velocity": 79,
      "chip": "ym2612"
    },
    {
      "channel": 4,
      "note": 44,
      "start": 8.4854,
      "duration": 0.005,
      "velocity": 102,
      "chip": "ym2612"
    },
    {
      "channel": 3,
      "note": 80,
      "start": 8.4953,
      "duration": 0.0664,
      "velocity": 79,
      "chip": "ym2612"
    },
    {
      "channel": 4,
      "note": 56,
      "start": 8.4956,
      "duration": 0.0663,
      "velocity": 102,
      "chip": "ym2612"
    },
    {
      "channel": 3,
      "note": 80,
      "start": 8.612,
      "duration": 0.0054,
      "velocity": 79,
      "chip": "ym2612"
    },
    {
      "channel": 4,
      "note": 56,
      "start": 8.6122,
      "duration": 0.0053,
      "velocity": 102,
      "chip": "ym2612"
    },
    {
      "channel": 3,
      "note": 92,
      "start": 8.6222,
      "duration": 0.0062,
      "velocity": 79,
      "chip": "ym2612"
    },
    {
      "channel": 4,
      "note": 44,
      "start": 8.6224,
      "duration": 0.0061,
      "velocity": 102,
      "chip": "ym2612"
    },
    {
      "channel": 3,
      "note": 92,
      "start": 8.6326,
      "duration": 0.006,
      "velocity": 79,
      "chip": "ym2612"
    },
    {
      "channel": 4,
      "note": 44,
      "start": 8.6329,
      "duration": 0.0059,
      "velocity": 102,
      "chip": "ym2612"
    },
    {
      "channel": 3,
      "note": 80,
      "start": 8.6429,
      "duration": 0.0057,
      "velocity": 79,
      "chip": "ym2612"
    },
    {
      "channel": 4,
      "note": 51,
      "start": 8.6431,
      "duration": 0.0056,
      "velocity": 102,
      "chip": "ym2612"
    },
    {
      "channel": 3,
      "note": 80,
      "start": 8.6526,
      "duration": 0.0058,
      "velocity": 79,
      "chip": "ym2612"
    },
    {
      "channel": 4,
      "note": 56,
      "start": 8.6528,
      "duration": 0.0056,
      "velocity": 102,
      "chip": "ym2612"
    },
    {
      "channel": 0,
      "note": 84,
      "start": 8.6635,
      "duration": 0.4211,
      "velocity": 98,
      "chip": "ym2612"
    },
    {
      "channel": 1,
      "note": 84,
      "start": 8.6638,
      "duration": 0.4209,
      "velocity": 98,
      "chip": "ym2612"
    },
    {
      "channel": 2,
      "note": 87,
      "start": 8.6641,
      "duration": 0.1645,
      "velocity": 97,
      "chip": "ym2612"
    },
    {
      "channel": 3,
      "note": 92,
      "start": 8.6644,
      "duration": 0.0052,
      "velocity": 79,
      "chip": "ym2612"
    },
    {
      "channel": 4,
      "note": 44,
      "start": 8.6647,
      "duration": 0.005,
      "velocity": 102,
      "chip": "ym2612"
    },
    {
      "channel": 3,
      "note": 92,
      "start": 8.6931,
      "duration": 0.0054,
      "velocity": 79,
      "chip": "ym2612"
    },
    {
      "channel": 4,
      "note": 44,
      "start": 8.6933,
      "duration": 0.0053,
      "velocity": 102,
      "chip": "ym2612"
    },
    {
      "channel": 3,
      "note": 80,
      "start": 8.7027,
      "duration": 0.0106,
      "velocity": 79,
      "chip": "ym2612"
    },
    {
      "channel": 4,
      "note": 56,
      "start": 8.7029,
      "duration": 0.0105,
      "velocity": 102,
      "chip": "ym2612"
    },
    {
      "channel": 3,
      "note": 80,
      "start": 8.7635,
      "duration": 0.0053,
      "velocity": 79,
      "chip": "ym2612"
    },
    {
      "channel": 4,
      "note": 56,
      "start": 8.7637,
      "duration": 0.0051,
      "velocity": 102,
      "chip": "ym2612"
    },
    {
      "channel": 3,
      "note": 92,
      "start": 8.7729,
      "duration": 0.0062,
      "velocity": 79,
      "chip": "ym2612"
    },
    {
      "channel": 4,
      "note": 44,
      "start": 8.7732,
      "duration": 0.006,
      "velocity": 102,
      "chip": "ym2612"
    },
    {
      "channel": 3,
      "note": 92,
      "start": 8.7828,
      "duration": 0.0066,
      "velocity": 79,
      "chip": "ym2612"
    },
    {
      "channel": 4,
      "note": 44,
      "start": 8.783,
      "duration": 0.0064,
      "velocity": 102,
      "chip": "ym2612"
    },
    {
      "channel": 3,
      "note": 80,
      "start": 8.7919,
      "duration": 0.0063,
      "velocity": 79,
      "chip": "ym2612"
    },
    {
      "channel": 4,
      "note": 56,
      "start": 8.7921,
      "duration": 0.0061,
      "velocity": 102,
      "chip": "ym2612"
    },
    {
      "channel": 3,
      "note": 80,
      "start": 8.8013,
      "duration": 0.0274,
      "velocity": 79,
      "chip": "ym2612"
    },
    {
      "channel": 4,
      "note": 51,
      "start": 8.8015,
      "duration": 0.0273,
      "velocity": 102,
      "chip": "ym2612"
    },
    {
      "channel": 2,
      "note": 90,
      "start": 8.8621,
      "duration": 0.2227,
      "velocity": 97,
      "chip": "ym2612"
    },
    {
      "channel": 3,
      "note": 104,
      "start": 8.8624,
      "duration": 0.0062,
      "velocity": 79,
      "chip": "ym2612"
    },
    {
      "channel": 4,
      "note": 44,
      "start": 8.8626,
      "duration": 0.0061,
      "velocity": 102,
      "chip": "ym2612"
    },
    {
      "channel": 3,
      "note": 104,
      "start": 8.8917,
      "duration": 0.0063,
      "velocity": 79,
      "chip": "ym2612"
    },
    {
      "channel": 4,
      "note": 44,
      "start": 8.892,
      "duration": 0.0061,
      "velocity": 102,
      "chip": "ym2612"
    },
    {
      "channel": 3,
      "note": 80,
      "start": 8.9017,
      "duration": 0.0833,
      "velocity": 79,
      "chip": "ym2612"
    },
    {
      "channel": 4,
      "note": 56,
      "start": 8.902,
      "duration": 0.0832,
      "velocity": 102,
      "chip": "ym2612"
    },
    {
      "channel": 3,
      "note": 80,
      "start": 9.0185,
      "duration": 0.0064,
      "velocity": 79,
      "chip": "ym2612"
    },
    {
      "channel": 4,
      "note": 56,
      "start": 9.0188,
      "duration": 0.0062,
      "velocity": 102,
      "chip": "ym2612"
    },
    {
      "channel": 3,
      "note": 92,
      "start": 9.028,
      "duration": 0.0062,
      "velocity": 79,
      "chip": "ym2612"
    },
    {
      "channel": 4,
      "note": 44,
      "start": 9.0283,
      "duration": 0.0061,
      "velocity": 102,
      "chip": "ym2612"
    },
    {
      "channel": 3,
      "note": 92,
      "start": 9.0379,
      "duration": 0.0063,
      "velocity": 79,
      "chip": "ym2612"
    },
    {
      "channel": 4,
      "note": 44,
      "start": 9.0381,
      "duration": 0.0062,
      "velocity": 102,
      "chip": "ym2612"
    },
    {
      "channel": 3,
      "note": 80,
      "start": 9.048,
      "duration": 0.0064,
      "velocity": 79,
      "chip": "ym2612"
    },
    {
      "channel": 4,
      "note": 51,
      "start": 9.0482,
      "duration": 0.0062,
      "velocity": 102,
      "chip": "ym2612"
    },
    {
      "channel": 3,
      "note": 80,
      "start": 9.0575,
      "duration": 0.0274,
      "velocity": 79,
      "chip": "ym2612"
    },
    {
      "channel": 4,
      "note": 56,
      "start": 9.0577,
      "duration": 0.0273,
      "velocity": 102,
      "chip": "ym2612"
    },
    {
      "channel": 0,
      "note": 80,
      "start": 9.1181,
      "duration": 0.4209,
      "velocity": 98,
      "chip": "ym2612"
    },
    {
      "channel": 1,
      "note": 80,
      "start": 9.1183,
      "duration": 0.4207,
      "velocity": 98,
      "chip": "ym2612"
    },
    {
      "channel": 2,
      "note": 89,
      "start": 9.1186,
      "duration": 0.1646,
      "velocity": 97,
      "chip": "ym2612"
    },
    {
      "channel": 3,
      "note": 92,
      "start": 9.1189,
      "duration": 0.0061,
      "velocity": 79,
      "chip": "ym2612"
    },
    {
      "channel": 4,
      "note": 44,
      "start": 9.1192,
      "duration": 0.0059,
      "velocity": 102,
      "chip": "ym2612"
    },
    {
      "channel": 3,
      "note": 92,
      "start": 9.1477,
      "duration": 0.0065,
      "velocity": 79,
      "chip": "ym2612"
    },
    {
      "channel": 4,
      "note": 44,
      "start": 9.1479,
      "duration": 0.0063,
      "velocity": 102,
      "chip": "ym2612"
    },
    {
      "channel": 3,
      "note": 80,
      "start": 9.1573,
      "duration": 0.0273,
      "velocity": 79,
      "chip": "ym2612"
    },
    {
      "channel": 4,
      "note": 56,
      "start": 9.1575,
      "duration": 0.0272,
      "velocity": 102,
      "chip": "ym2612"
    },
    {
      "channel": 3,
      "note": 80,
      "start": 9.2181,
      "duration": 0.0065,
      "velocity": 79,
      "chip": "ym2612"
    },
    {
      "channel": 4,
      "note": 56,
      "start": 9.2184,
      "duration": 0.0063,
      "velocity": 102,
      "chip": "ym2612"
    },
    {
      "channel": 3,
      "note": 92,
      "start": 9.2278,
      "duration": 0.0061,
      "velocity": 79,
      "chip": "ym2612"
    },
    {
      "channel": 4,
      "note": 44,
      "start": 9.228,
      "duration": 0.006,
      "velocity": 102,
      "chip": "ym2612"
    },
    {
      "channel": 3,
      "note": 92,
      "start": 9.2376,
      "duration": 0.0066,
      "velocity": 79,
      "chip": "ym2612"
    },
    {
      "channel": 4,
      "note": 44,
      "start": 9.2378,
      "duration": 0.0064,
      "velocity": 102,
      "chip": "ym2612"
    },
    {
      "channel": 3,
      "note": 80,
      "start": 9.2466,
      "duration": 0.0061,
      "velocity": 79,
      "chip": "ym2612"
    },
    {
      "channel": 4,
      "note": 56,
      "start": 9.2469,
      "duration": 0.006,
      "velocity": 102,
      "chip": "ym2612"
    },
    {
      "channel": 3,
      "note": 80,
      "start": 9.2558,
      "duration": 0.0274,
      "velocity": 79,
      "chip": "ym2612"
    },
    {
      "channel": 4,
      "note": 51,
      "start": 9.256,
      "duration": 0.0273,
      "velocity": 102,
      "chip": "ym2612"
    },
    {
      "channel": 2,
      "note": 85,
      "start": 9.3166,
      "duration": 0.2226,
      "velocity": 97,
      "chip": "ym2612"
    },
    {
      "channel": 3,
      "note": 104,
      "start": 9.3169,
      "duration": 0.0061,
      "velocity": 79,
      "chip": "ym2612"
    },
    {
      "channel": 4,
      "note": 44,
      "start": 9.3172,
      "duration": 0.0059,
      "velocity": 102,
      "chip": "ym2612"
    },
    {
      "channel": 3,
      "note": 104,
      "start": 9.3461,
      "duration": 0.0063,
      "velocity": 79,
      "chip": "ym2612"
    },
    {
      "channel": 4,
      "note": 44,
      "start": 9.3464,
      "duration": 0.0061,
      "velocity": 102,
      "chip": "ym2612"
    },
    {
      "channel": 3,
      "note": 80,
      "start": 9.3561,
      "duration": 0.0833,
      "velocity": 79,
      "chip": "ym2612"
    },
    {
      "channel": 4,
      "note": 56,
      "start": 9.3564,
      "duration": 0.0832,
      "velocity": 102,
      "chip": "ym2612"
    },
    {
      "channel": 3,
      "note": 80,
      "start": 9.4729,
      "duration": 0.0063,
      "velocity": 79,
      "chip": "ym2612"
    },
    {
      "channel": 4,
      "note": 56,
      "start": 9.4732,
      "duration": 0.0062,
      "velocity": 102,
      "chip": "ym2612"
    },
    {
      "channel": 3,
      "note": 92,
      "start": 9.4824,
      "duration": 0.0061,
      "velocity": 79,
      "chip": "ym2612"
    },
    {
      "channel": 4,
      "note": 44,
      "start": 9.4827,
      "duration": 0.006,
      "velocity": 102,
      "chip": "ym2612"
    },
    {
      "channel": 3,
      "note": 92,
      "start": 9.4922,
      "duration": 0.0064,
      "velocity": 79,
      "chip": "ym2612"
    },
    {
      "channel": 4,
      "note": 44,
      "start": 9.4924,
      "duration": 0.0062,
      "velocity": 102,
      "chip": "ym2612"
    },
    {
      "channel": 3,
      "note": 80,
      "start": 9.5023,
      "duration": 0.0063,
      "velocity": 79,
      "chip": "ym2612"
    },
    {
      "channel": 4,
      "note": 51,
      "start": 9.5025,
      "duration": 0.0062,
      "velocity": 102,
      "chip": "ym2612"
    },
    {
      "channel": 3,
      "note": 80,
      "start": 9.5118,
      "duration": 0.0276,
      "velocity": 79,
      "chip": "ym2612"
    },
    {
      "channel": 4,
      "note": 56,
      "start": 9.512,
      "duration": 0.0274,
      "velocity": 102,
      "chip": "ym2612"
    },
    {
      "channel": 0,
      "note": 87,
      "start": 9.5725,
      "duration": 0.0284,
      "velocity": 98,
      "chip": "ym2612"
    },
    {
      "channel": 1,
      "note": 85,
      "start": 9.5729,
      "duration": 0.0281,
      "velocity": 98,
      "chip": "ym2612"
    },
    {
      "channel": 2,
      "note": 84,
      "start": 9.5733,
      "duration": 0.1649,
      "velocity": 97,
      "chip": "ym2612"
    },
    {
      "channel": 3,
      "note": 92,
      "start": 9.5736,
      "duration": 0.0078,
      "velocity": 79,
      "chip": "ym2612"
    },
    {
      "channel": 4,
      "note": 44,
      "start": 9.5739,
      "duration": 0.0274,
      "velocity": 102,
      "chip": "ym2612"
    },
    {
      "channel": 3,
      "note": 92,
      "start": 9.5845,
      "duration": 0.0071,
      "velocity": 79,
      "chip": "ym2612"
    },
    {
      "channel": 3,
      "note": 80,
      "start": 9.5945,
      "duration": 0.0067,
      "velocity": 79,
      "chip": "ym2612"
    },
    {
      "channel": 0,
      "note": 87,
      "start": 9.6041,
      "duration": 0.0272,
      "velocity": 98,
      "chip": "ym2612"
    },
    {
      "channel": 1,
      "note": 85,
      "start": 9.6045,
      "duration": 0.027,
      "velocity": 98,
      "chip": "ym2612"
    },
    {
      "channel": 3,
      "note": 80,
      "start": 9.6048,
      "duration": 0.0074,
      "velocity": 79,
      "chip": "ym2612"
    },
    {
      "channel": 4,
      "note": 44,
      "start": 9.6051,
      "duration": 0.0267,
      "velocity": 102,
      "chip": "ym2612"
    },
    {
      "channel": 3,
      "note": 92,
      "start": 9.6152,
      "duration": 0.0069,
      "velocity": 79,
      "chip": "ym2612"
    },
    {
      "channel": 3,
      "note": 92,
      "start": 9.6248,
      "duration": 0.0068,
      "velocity": 79,
      "chip": "ym2612"
    },
    {
      "channel": 0,
      "note": 87,
      "start": 9.6351,
      "duration": 0.0285,
      "velocity": 98,
      "chip": "ym2612"
    },
    {
      "channel": 1,
      "note": 85,
      "start": 9.6354,
      "duration": 0.0283,
      "velocity": 98,
      "chip": "ym2612"
    },
    {
      "channel": 3,
      "note": 80,
      "start": 9.6358,
      "duration": 0.0082,
      "velocity": 79,
      "chip": "ym2612"
    },
    {
      "channel": 4,
      "note": 44,
      "start": 9.6361,
      "duration": 0.0279,
      "velocity": 102,
      "chip": "ym2612"
    },
    {
      "channel": 3,
      "note": 80,
      "start": 9.6482,
      "duration": 0.0058,
      "velocity": 79,
      "chip": "ym2612"
    },
    {
      "channel": 3,
      "note": 104,
      "start": 9.658,
      "duration": 0.0059,
      "velocity": 79,
      "chip": "ym2612"
    },
    {
      "channel": 0,
      "note": 87,
      "start": 9.6679,
      "duration": 0.0265,
      "velocity": 98,
      "chip": "ym2612"
    },
    {
      "channel": 1,
      "note": 85,
      "start": 9.6682,
      "duration": 0.0263,
      "velocity": 98,
      "chip": "ym2612"
    },
    {
      "channel": 3,
      "note": 104,
      "start": 9.6686,
      "duration": 0.0065,
      "velocity": 79,
      "chip": "ym2612"
    },
    {
      "channel": 4,
      "note": 44,
      "start": 9.6688,
      "duration": 0.026,
      "velocity": 102,
      "chip": "ym2612"
    },
    {
      "channel": 3,
      "note": 80,
      "start": 9.6793,
      "duration": 0.0058,
      "velocity": 79,
      "chip": "ym2612"
    },
    {
      "channel": 3,
      "note": 80,
      "start": 9.6892,
      "duration": 0.0054,
      "velocity": 79,
      "chip": "ym2612"
    },
    {
      "channel": 0,
      "note": 87,
      "start": 9.6993,
      "duration": 0.0171,
      "velocity": 98,
      "chip": "ym2612"
    },
    {
      "channel": 1,
      "note": 85,
      "start": 9.6997,
      "duration": 0.0169,
      "velocity": 98,
      "chip": "ym2612"
    },
    {
      "channel": 3,
      "note": 92,
      "start": 9.7001,
      "duration": 0.0066,
      "velocity": 79,
      "chip": "ym2612"
    },
    {
      "channel": 4,
      "note": 44,
      "start": 9.7003,
      "duration": 0.0165,
      "velocity": 102,
      "chip": "ym2612"
    },
    {
      "channel": 3,
      "note": 92,
      "start": 9.7108,
      "duration": 0.0059,
      "velocity": 79,
      "chip": "ym2612"
    },
    {
      "channel": 0,
      "note": 87,
      "start": 9.7207,
      "duration": 0.0172,
      "velocity": 98,
      "chip": "ym2612"
    },
    {
      "channel": 1,
      "note": 85,
      "start": 9.7211,
      "duration": 0.017,
      "velocity": 98,
      "chip": "ym2612"
    },
    {
      "channel": 3,
      "note": 80,
      "start": 9.7215,
      "duration": 0.0068,
      "velocity": 79,
      "chip": "ym2612"
    },
    {
      "channel": 4,
      "note": 44,
      "start": 9.7217,
      "duration": 0.0167,
      "velocity": 102,
      "chip": "ym2612"
    },
    {
      "channel": 3,
      "note": 80,
      "start": 9.7325,
      "duration": 0.0058,
      "velocity": 79,
      "chip": "ym2612"
    },
    {
      "channel": 0,
      "note": 87,
      "start": 9.7423,
      "duration": 0.1884,
      "velocity": 98,
      "chip": "ym2612"
    },
    {
      "channel": 1,
      "note": 86,
      "start": 9.7426,
      "duration": 0.1882,
      "velocity": 98,
      "chip": "ym2612"
    },
    {
      "channel": 2,
      "note": 80,
      "start": 9.7429,
      "duration": 0.188,
      "velocity": 97,
      "chip": "ym2612"
    },
    {
      "channel": 3,
      "note": 92,
      "start": 9.7432,
      "duration": 0.0064,
      "velocity": 79,
      "chip": "ym2612"
    },
    {
      "channel": 4,
      "note": 44,
      "start": 9.7436,
      "duration": 0.0061,
      "velocity": 102,
      "chip": "ym2612"
    },
    {
      "channel": 3,
      "note": 92,
      "start": 9.7538,
      "duration": 0.0059,
      "velocity": 79,
      "chip": "ym2612"
    },
    {
      "channel": 4,
      "note": 44,
      "start": 9.7541,
      "duration": 0.0058,
      "velocity": 102,
      "chip": "ym2612"
    },
    {
      "channel": 3,
      "note": 80,
      "start": 9.764,
      "duration": 0.0061,
      "velocity": 79,
      "chip": "ym2612"
    },
    {
      "channel": 4,
      "note": 56,
      "start": 9.7643,
      "duration": 0.0059,
      "velocity": 102,
      "chip": "ym2612"
    },
    {
      "channel": 3,
      "note": 80,
      "start": 9.7743,
      "duration": 0.0058,
      "velocity": 79,
      "chip": "ym2612"
    },
    {
      "channel": 4,
      "note": 56,
      "start": 9.7745,
      "duration": 0.0056,
      "velocity": 102,
      "chip": "ym2612"
    },
    {
      "channel": 3,
      "note": 92,
      "start": 9.7851,
      "duration": 0.0081,
      "velocity": 79,
      "chip": "ym2612"
    },
    {
      "channel": 4,
      "note": 44,
      "start": 9.7853,
      "duration": 0.008,
      "velocity": 102,
      "chip": "ym2612"
    },
    {
      "channel": 3,
      "note": 92,
      "start": 9.7971,
      "duration": 0.0048,
      "velocity": 79,
      "chip": "ym2612"
    },
    {
      "channel": 4,
      "note": 44,
      "start": 9.7973,
      "duration": 0.0047,
      "velocity": 102,
      "chip": "ym2612"
    },
    {
      "channel": 3,
      "note": 80,
      "start": 9.8054,
      "duration": 0.0054,
      "velocity": 79,
      "chip": "ym2612"
    },
    {
      "channel": 4,
      "note": 56,
      "start": 9.8057,
      "duration": 0.0053,
      "velocity": 102,
      "chip": "ym2612"
    },
    {
      "channel": 3,
      "note": 80,
      "start": 9.8145,
      "duration": 0.0081,
      "velocity": 79,
      "chip": "ym2612"
    },
    {
      "channel": 4,
      "note": 51,
      "start": 9.8148,
      "duration": 0.008,
      "velocity": 102,
      "chip": "ym2612"
    },
    {
      "channel": 3,
      "note": 104,
      "start": 9.8254,
      "duration": 0.0092,
      "velocity": 79,
      "chip": "ym2612"
    },
    {
      "channel": 4,
      "note": 44,
      "start": 9.8256,
      "duration": 0.0091,
      "velocity": 102,
      "chip": "ym2612"
    },
    {
      "channel": 3,
      "note": 104,
      "start": 9.8376,
      "duration": 0.0088,
      "velocity": 79,
      "chip": "ym2612"
    },
    {
      "channel": 4,
      "note": 44,
      "start": 9.8378,
      "duration": 0.0086,
      "velocity": 102,
      "chip": "ym2612"
    },
    {
      "channel": 3,
      "note": 80,
      "start": 9.8493,
      "duration": 0.0105,
      "velocity": 79,
      "chip": "ym2612"
    },
    {
      "channel": 4,
      "note": 56,
      "start": 9.8496,
      "duration": 0.0104,
      "velocity": 102,
      "chip": "ym2612"
    },
    {
      "channel": 3,
      "note": 80,
      "start": 9.8627,
      "duration": 0.01,
      "velocity": 79,
      "chip": "ym2612"
    },
    {
      "channel": 4,
      "note": 56,
      "start": 9.8629,
      "duration": 0.0099,
      "velocity": 102,
      "chip": "ym2612"
    },
    {
      "channel": 3,
      "note": 92,
      "start": 9.8761,
      "duration": 0.0112,
      "velocity": 79,
      "chip": "ym2612"
    },
    {
      "channel": 4,
      "note": 44,
      "start": 9.8763,
      "duration": 0.011,
      "velocity": 102,
      "chip": "ym2612"
    },
    {
      "channel": 3,
      "note": 92,
      "start": 9.8904,
      "duration": 0.0106,
      "velocity": 79,
      "chip": "ym2612"
    },
    {
      "channel": 4,
      "note": 44,
      "start": 9.8906,
      "duration": 0.0105,
      "velocity": 102,
      "chip": "ym2612"
    },
    {
      "channel": 3,
      "note": 80,
      "start": 9.9039,
      "duration": 0.012,
      "velocity": 79,
      "chip": "ym2612"
    },
    {
      "channel": 4,
      "note": 51,
      "start": 9.9041,
      "duration": 0.0118,
      "velocity": 102,
      "chip": "ym2612"
    },
    {
      "channel": 3,
      "note": 80,
      "start": 9.9192,
      "duration": 0.0118,
      "velocity": 79,
      "chip": "ym2612"
    },
    {
      "channel": 4,
      "note": 56,
      "start": 9.9194,
      "duration": 0.0117,
      "velocity": 102,
      "chip": "ym2612"
    },
    {
      "channel": 0,
      "note": 68,
      "start": 9.9341,
      "duration": 0.1619,
      "velocity": 98,
      "chip": "ym2612"
    },
    {
      "channel": 1,
      "note": 73,
      "start": 9.9344,
      "duration": 0.1617,
      "velocity": 98,
      "chip": "ym2612"
    },
    {
      "channel": 2,
      "note": 61,
      "start": 9.9347,
      "duration": 0.0079,
      "velocity": 97,
      "chip": "ym2612"
    },
    {
      "channel": 3,
      "note": 61,
      "start": 9.9362,
      "duration": 0.0066,
      "velocity": 97,
      "chip": "ym2612"
    },
    {
      "channel": 4,
      "note": 49,
      "start": 9.9365,
      "duration": 0.0063,
      "velocity": 102,
      "chip": "ym2612"
    },
    {
      "channel": 2,
      "note": 56,
      "start": 9.9454,
      "duration": 0.0066,
      "velocity": 97,
      "chip": "ym2612"
    },
    {
      "channel": 3,
      "note": 56,
      "start": 9.9456,
      "duration": 0.0064,
      "velocity": 97,
      "chip": "ym2612"
    },
    {
      "channel": 4,
      "note": 49,
      "start": 9.9459,
      "duration": 0.0063,
      "velocity": 102,
      "chip": "ym2612"
    },
    {
      "channel": 2,
      "note": 61,
      "start": 9.9546,
      "duration": 0.0075,
      "velocity": 97,
      "chip": "ym2612"
    },
    {
      "channel": 3,
      "note": 61,
      "start": 9.9549,
      "duration": 0.0073,
      "velocity": 97,
      "chip": "ym2612"
    },
    {
      "channel": 4,
      "note": 61,
      "start": 9.9551,
      "duration": 0.0072,
      "velocity": 102,
      "chip": "ym2612"
    },
    {
      "channel": 2,
      "note": 65,
      "start": 9.965,
      "duration": 0.0068,
      "velocity": 97,
      "chip": "ym2612"
    },
    {
      "channel": 3,
      "note": 65,
      "start": 9.9652,
      "duration": 0.0067,
      "velocity": 97,
      "chip": "ym2612"
    },
    {
      "channel": 4,
      "note": 61,
      "start": 9.9654,
      "duration": 0.0065,
      "velocity": 102,
      "chip": "ym2612"
    },
    {
      "channel": 2,
      "note": 68,
      "start": 9.9753,
      "duration": 0.0066,
      "velocity": 97,
      "chip": "ym2612"
    },
    {
      "channel": 3,
      "note": 68,
      "start": 9.9756,
      "duration": 0.0065,
      "velocity": 97,
      "chip": "ym2612"
    },
    {
      "channel": 4,
      "note": 56,
      "start": 9.9758,
      "duration": 0.0064,
      "velocity": 102,
      "chip": "ym2612"
    },
    {
      "channel": 2,
      "note": 65,
      "start": 9.9846,
      "duration": 0.0065,
      "velocity": 97,
      "chip": "ym2612"
    },
    {
      "channel": 3,
      "note": 65,
      "start": 9.9849,
      "duration": 0.0064,
      "velocity": 97,
      "chip": "ym2612"
    },
    {
      "channel": 4,
      "note": 56,
      "start": 9.9851,
      "duration": 0.0062,
      "velocity": 102,
      "chip": "ym2612"
    },
    {
      "channel": 2,
      "note": 68,
      "start": 9.9965,
      "duration": 0.0074,
      "velocity": 97,
      "chip": "ym2612"
    },
    {
      "channel": 3,
      "note": 68,
      "start": 9.9967,
      "duration": 0.0073,
      "velocity": 97,
      "chip": "ym2612"
    },
    {
      "channel": 4,
      "note": 49,
      "start": 9.997,
      "duration": 0.0072,
      "velocity": 102,
      "chip": "ym2612"
    },
    {
      "channel": 2,
      "note": 73,
      "start": 10.0067,
      "duration": 0.0071,
      "velocity": 97,
      "chip": "ym2612"
    },
    {
      "channel": 3,
      "note": 73,
      "start": 10.0069,
      "duration": 0.007,
      "velocity": 97,
      "chip": "ym2612"
    },
    {
      "channel": 4,
      "note": 56,
      "start": 10.0072,
      "duration": 0.0068,
      "velocity": 102,
      "chip": "ym2612"
    },
    {
      "channel": 2,
      "note": 77,
      "start": 10.0174,
      "duration": 0.007,
      "velocity": 97,
      "chip": "ym2612"
    },
    {
      "channel": 3,
      "note": 77,
      "start": 10.0176,
      "duration": 0.0069,
      "velocity": 97,
      "chip": "ym2612"
    },
    {
      "channel": 4,
      "note": 49,
      "start": 10.0179,
      "duration": 0.0068,
      "velocity": 102,
      "chip": "ym2612"
    },
    {
      "channel": 2,
      "note": 73,
      "start": 10.0275,
      "duration": 0.0069,
      "velocity": 97,
      "chip": "ym2612"
    },
    {
      "channel": 3,
      "note": 73,
      "start": 10.0277,
      "duration": 0.0067,
      "velocity": 97,
      "chip": "ym2612"
    },
    {
      "channel": 4,
      "note": 49,
      "start": 10.028,
      "duration": 0.0066,
      "velocity": 102,
      "chip": "ym2612"
    },
    {
      "channel": 2,
      "note": 77,
      "start": 10.0397,
      "duration": 0.0077,
      "velocity": 97,
      "chip": "ym2612"
    },
    {
      "channel": 3,
      "note": 77,
      "start": 10.04,
      "duration": 0.0075,
      "velocity": 97,
      "chip": "ym2612"
    },
    {
      "channel": 4,
      "note": 61,
      "start": 10.0402,
      "duration": 0.0074,
      "velocity": 102,
      "chip": "ym2612"
    },
    {
      "channel": 2,
      "note": 80,
      "start": 10.0503,
      "duration": 0.007,
      "velocity": 97,
      "chip": "ym2612"
    },
    {
      "channel": 3,
      "note": 80,
      "start": 10.0506,
      "duration": 0.0068,
      "velocity": 97,
      "chip": "ym2612"
    },
    {
      "channel": 4,
      "note": 61,
      "start": 10.0508,
      "duration": 0.0067,
      "velocity": 102,
      "chip": "ym2612"
    },
    {
      "channel": 2,
      "note": 85,
      "start": 10.0608,
      "duration": 0.0071,
      "velocity": 97,
      "chip": "ym2612"
    },
    {
      "channel": 3,
      "note": 85,
      "start": 10.0611,
      "duration": 0.007,
      "velocity": 97,
      "chip": "ym2612"
    },
    {
      "channel": 4,
      "note": 56,
      "start": 10.0613,
      "duration": 0.0068,
      "velocity": 102,
      "chip": "ym2612"
    },
    {
      "channel": 2,
      "note": 80,
      "start": 10.0706,
      "duration": 0.0064,
      "velocity": 97,
      "chip": "ym2612"
    },
    {
      "channel": 3,
      "note": 80,
      "start": 10.0709,
      "duration": 0.0063,
      "velocity": 97,
      "chip": "ym2612"
    },
    {
      "channel": 4,
      "note": 56,
      "start": 10.0711,
      "duration": 0.0061,
      "velocity": 102,
      "chip": "ym2612"
    },
    {
      "channel": 2,
      "note": 85,
      "start": 10.0797,
      "duration": 0.0068,
      "velocity": 97,
      "chip": "ym2612"
    },
    {
      "channel": 3,
      "note": 85,
      "start": 10.0799,
      "duration": 0.0066,
      "velocity": 97,
      "chip": "ym2612"
    },
    {
      "channel": 4,
      "note": 44,
      "start": 10.0802,
      "duration": 0.0065,
      "velocity": 102,
      "chip": "ym2612"
    },
    {
      "channel": 2,
      "note": 89,
      "start": 10.0893,
      "duration": 0.0069,
      "velocity": 97,
      "chip": "ym2612"
    },
    {
      "channel": 3,
      "note": 89,
      "start": 10.0895,
      "duration": 0.0068,
      "velocity": 97,
      "chip": "ym2612"
    },
    {
      "channel": 4,
      "note": 61,
      "start": 10.0898,
      "duration": 0.0066,
      "velocity": 102,
      "chip": "ym2612"
    },
    {
      "channel": 0,
      "note": 63,
      "start": 10.099,
      "duration": 0.1641,
      "velocity": 98,
      "chip": "ym2612"
    },
    {
      "channel": 1,
      "note": 68,
      "start": 10.0993,
      "duration": 0.164,
      "velocity": 98,
      "chip": "ym2612"
    },
    {
      "channel": 2,
      "note": 63,
      "start": 10.0995,
      "duration": 0.0071,
      "velocity": 97,
      "chip": "ym2612"
    },
    {
      "channel": 3,
      "note": 63,
      "start": 10.0998,
      "duration": 0.0069,
      "velocity": 97,
      "chip": "ym2612"
    },
    {
      "channel": 4,
      "note": 44,
      "start": 10.1,
      "duration": 0.0068,
      "velocity": 102,
      "chip": "ym2612"
    },
    {
      "channel": 2,
      "note": 60,
      "start": 10.1096,
      "duration": 0.0073,
      "velocity": 97,
      "chip": "ym2612"
    },
    {
      "channel": 3,
      "note": 60,
      "start": 10.1099,
      "duration": 0.0072,
      "velocity": 97,
      "chip": "ym2612"
    },
    {
      "channel": 4,
      "note": 44,
      "start": 10.1101,
      "duration": 0.007,
      "velocity": 102,
      "chip": "ym2612"
    },
    {
      "channel": 2,
      "note": 63,
      "start": 10.12,
      "duration": 0.0077,
      "velocity": 97,
      "chip": "ym2612"
    },
    {
      "channel": 3,
      "note": 63,
      "start": 10.1203,
      "duration": 0.0076,
      "velocity": 97,
      "chip": "ym2612"
    },
    {
      "channel": 4,
      "note": 56,
      "start": 10.1205,
      "duration": 0.0074,
      "velocity": 102,
      "chip": "ym2612"
    },
    {
      "channel": 2,
      "note": 68,
      "start": 10.1306,
      "duration": 0.0074,
      "velocity": 97,
      "chip": "ym2612"
    },
    {
      "channel": 3,
      "note": 68,
      "start": 10.1308,
      "duration": 0.0073,
      "velocity": 97,
      "chip": "ym2612"
    },
    {
      "channel": 4,
      "note": 56,
      "start": 10.1311,
      "duration": 0.0071,
      "velocity": 102,
      "chip": "ym2612"
    },
    {
      "channel": 2,
      "note": 72,
      "start": 10.1408,
      "duration": 0.0075,
      "velocity": 97,
      "chip": "ym2612"
    },
    {
      "channel": 3,
      "note": 72,
      "start": 10.141,
      "duration": 0.0073,
      "velocity": 97,
      "chip": "ym2612"
    },
    {
      "channel": 4,
      "note": 51,
      "start": 10.1413,
      "duration": 0.0072,
      "velocity": 102,
      "chip": "ym2612"
    },
    {
      "channel": 2,
      "note": 68,
      "start": 10.151,
      "duration": 0.0072,
      "velocity": 97,
      "chip": "ym2612"
    },
    {
      "channel": 3,
      "note": 68,
      "start": 10.1513,
      "duration": 0.0071,
      "velocity": 97,
      "chip": "ym2612"
    },
    {
      "channel": 4,
      "note": 51,
      "start": 10.1515,
      "duration": 0.0069,
      "velocity": 102,
      "chip": "ym2612"
    },
    {
      "channel": 2,
      "note": 72,
      "start": 10.1617,
      "duration": 0.0081,
      "velocity": 97,
      "chip": "ym2612"
    },
    {
      "channel": 3,
      "note": 72,
      "start": 10.1619,
      "duration": 0.008,
      "velocity": 97,
      "chip": "ym2612"
    },
    {
      "channel": 4,
      "note": 44,
      "start": 10.1621,
      "duration": 0.0078,
      "velocity": 102,
      "chip": "ym2612"
    },
    {
      "channel": 2,
      "note": 75,
      "start": 10.1729,
      "duration": 0.0076,
      "velocity": 97,
      "chip": "ym2612"
    },
    {
      "channel": 3,
      "note": 75,
      "start": 10.1732,
      "duration": 0.0074,
      "velocity": 97,
      "chip": "ym2612"
    },
    {
      "channel": 4,
      "note": 56,
      "start": 10.1734,
      "duration": 0.0073,
      "velocity": 102,
      "chip": "ym2612"
    },
    {
      "channel": 2,
      "note": 80,
      "start": 10.1833,
      "duration": 0.0073,
      "velocity": 97,
      "chip": "ym2612"
    },
    {
      "channel": 3,
      "note": 80,
      "start": 10.1835,
      "duration": 0.0072,
      "velocity": 97,
      "chip": "ym2612"
    },
    {
      "channel": 4,
      "note": 44,
      "start": 10.1838,
      "duration": 0.007,
      "velocity": 102,
      "chip": "ym2612"
    },
    {
      "channel": 2,
      "note": 75,
      "start": 10.1945,
      "duration": 0.0061,
      "velocity": 97,
      "chip": "ym2612"
    },
    {
      "channel": 3,
      "note": 75,
      "start": 10.1948,
      "duration": 0.006,
      "velocity": 97,
      "chip": "ym2612"
    },
    {
      "channel": 4,
      "note": 44,
      "start": 10.195,
      "duration": 0.0059,
      "velocity": 102,
      "chip": "ym2612"
    },
    {
      "channel": 2,
      "note": 80,
      "start": 10.205,
      "duration": 0.0065,
      "velocity": 97,
      "chip": "ym2612"
    },
    {
      "channel": 3,
      "note": 80,
      "start": 10.2053,
      "duration": 0.0063,
      "velocity": 97,
      "chip": "ym2612"
    },
    {
      "channel": 4,
      "note": 56,
      "start": 10.2055,
      "duration": 0.0062,
      "velocity": 102,
      "chip": "ym2612"
    },
    {
      "channel": 2,
      "note": 84,
      "start": 10.2159,
      "duration": 0.0064,
      "velocity": 97,
      "chip": "ym2612"
    },
    {
      "channel": 3,
      "note": 84,
      "start": 10.2162,
      "duration": 0.0063,
      "velocity": 97,
      "chip": "ym2612"
    },
    {
      "channel": 4,
      "note": 56,
      "start": 10.2164,
      "duration": 0.0061,
      "velocity": 102,
      "chip": "ym2612"
    },
    {
      "channel": 2,
      "note": 87,
      "start": 10.2263,
      "duration": 0.0068,
      "velocity": 97,
      "chip": "ym2612"
    },
    {
      "channel": 3,
      "note": 87,
      "start": 10.2266,
      "duration": 0.0067,
      "velocity": 97,
      "chip": "ym2612"
    },
    {
      "channel": 4,
      "note": 51,
      "start": 10.2268,
      "duration": 0.0066,
      "velocity": 102,
      "chip": "ym2612"
    },
    {
      "channel": 2,
      "note": 84,
      "start": 10.2371,
      "duration": 0.0058,
      "velocity": 97,
      "chip": "ym2612"
    },
    {
      "channel": 3,
      "note": 84,
      "start": 10.2374,
      "duration": 0.0057,
      "velocity": 97,
      "chip": "ym2612"
    },
    {
      "channel": 4,
      "note": 51,
      "start": 10.2376,
      "duration": 0.0055,
      "velocity": 102,
      "chip": "ym2612"
    },
    {
      "channel": 2,
      "note": 87,
      "start": 10.2469,
      "duration": 0.0059,
      "velocity": 97,
      "chip": "ym2612"
    },
    {
      "channel": 3,
      "note": 87,
      "start": 10.2472,
      "duration": 0.0058,
      "velocity": 97,
      "chip": "ym2612"
    },
    {
      "channel": 4,
      "note": 56,
      "start": 10.2474,
      "duration": 0.0057,
      "velocity": 102,
      "chip": "ym2612"
    },
    {
      "channel": 2,
      "note": 92,
      "start": 10.2572,
      "duration": 0.0061,
      "velocity": 97,
      "chip": "ym2612"
    },
    {
      "channel": 3,
      "note": 92,
      "start": 10.2575,
      "duration": 0.006,
      "velocity": 97,
      "chip": "ym2612"
    },
    {
      "channel": 4,
      "note": 51,
      "start": 10.2577,
      "duration": 0.0059,
      "velocity": 102,
      "chip": "ym2612"
    },
    {
      "channel": 0,
      "note": 63,
      "start": 10.2688,
      "duration": 0.3073,
      "velocity": 98,
      "chip": "ym2612"
    },
    {
      "channel": 1,
      "note": 70,
      "start": 10.269,
      "duration": 0.3071,
      "velocity": 98,
      "chip": "ym2612"
    },
    {
      "channel": 2,
      "note": 63,
      "start": 10.2693,
      "duration": 0.0056,
      "velocity": 97,
      "chip": "ym2612"
    },
    {
      "channel": 3,
      "note": 63,
      "start": 10.2695,
      "duration": 0.0055,
      "velocity": 97,
      "chip": "ym2612"
    },
    {
      "channel": 4,
      "note": 51,
      "start": 10.2698,
      "duration": 0.0053,
      "velocity": 102,
      "chip": "ym2612"
    },
    {
      "channel": 2,
      "note": 58,
      "start": 10.2788,
      "duration": 0.0055,
      "velocity": 97,
      "chip": "ym2612"
    },
    {
      "channel": 3,
      "note": 58,
      "start": 10.279,
      "duration": 0.0054,
      "velocity": 97,
      "chip": "ym2612"
    },
    {
      "channel": 4,
      "note": 51,
      "start": 10.2793,
      "duration": 0.0052,
      "velocity": 102,
      "chip": "ym2612"
    },
    {
      "channel": 2,
      "note": 63,
      "start": 10.2882,
      "duration": 0.006,
      "velocity": 97,
      "chip": "ym2612"
    },
    {
      "channel": 3,
      "note": 63,
      "start": 10.2884,
      "duration": 0.0058,
      "velocity": 97,
      "chip": "ym2612"
    },
    {
      "channel": 4,
      "note": 63,
      "start": 10.2887,
      "duration": 0.0057,
      "velocity": 102,
      "chip": "ym2612"
    },
    {
      "channel": 2,
      "note": 67,
      "start": 10.2981,
      "duration": 0.0058,
      "velocity": 97,
      "chip": "ym2612"
    },
    {
      "channel": 3,
      "note": 67,
      "start": 10.2983,
      "duration": 0.0056,
      "velocity": 97,
      "chip": "ym2612"
    },
    {
      "channel": 4,
      "note": 63,
      "start": 10.2985,
      "duration": 0.0055,
      "velocity": 102,
      "chip": "ym2612"
    },
    {
      "channel": 2,
      "note": 70,
      "start": 10.308,
      "duration": 0.0057,
      "velocity": 97,
      "chip": "ym2612"
    },
    {
      "channel": 3,
      "note": 70,
      "start": 10.3082,
      "duration": 0.0055,
      "velocity": 97,
      "chip": "ym2612"
    },
    {
      "channel": 4,
      "note": 58,
      "start": 10.3085,
      "duration": 0.0054,
      "velocity": 102,
      "chip": "ym2612"
    },
    {
      "channel": 2,
      "note": 67,
      "start": 10.3175,
      "duration": 0.0053,
      "velocity": 97,
      "chip": "ym2612"
    },
    {
      "channel": 3,
      "note": 67,
      "start": 10.3177,
      "duration": 0.0052,
      "velocity": 97,
      "chip": "ym2612"
    },
    {
      "channel": 4,
      "note": 58,
      "start": 10.318,
      "duration": 0.0051,
      "velocity": 102,
      "chip": "ym2612"
    },
    {
      "channel": 2,
      "note": 70,
      "start": 10.3275,
      "duration": 0.0058,
      "velocity": 97,
      "chip": "ym2612"
    },
    {
      "channel": 3,
      "note": 70,
      "start": 10.3277,
      "duration": 0.0057,
      "velocity": 97,
      "chip": "ym2612"
    },
    {
      "channel": 4,
      "note": 51,
      "start": 10.328,
      "duration": 0.0056,
      "velocity": 102,
      "chip": "ym2612"
    },
    {
      "channel": 2,
      "note": 75,
      "start": 10.3376,
      "duration": 0.0059,
      "velocity": 97,
      "chip": "ym2612"
    },
    {
      "channel": 3,
      "note": 75,
      "start": 10.3379,
      "duration": 0.0057,
      "velocity": 97,
      "chip": "ym2612"
    },
    {
      "channel": 4,
      "note": 58,
      "start": 10.3381,
      "duration": 0.0056,
      "velocity": 102,
      "chip": "ym2612"
    },
    {
      "channel": 2,
      "note": 79,
      "start": 10.3473,
      "duration": 0.0058,
      "velocity": 97,
      "chip": "ym2612"
    },
    {
      "channel": 3,
      "note": 79,
      "start": 10.3476,
      "duration": 0.0056,
      "velocity": 97,
      "chip": "ym2612"
    },
    {
      "channel": 4,
      "note": 51,
      "start": 10.3478,
      "duration": 0.0055,
      "velocity": 102,
      "chip": "ym2612"
    },
    {
      "channel": 2,
      "note": 75,
      "start": 10.3569,
      "duration": 0.0055,
      "velocity": 97,
      "chip": "ym2612"
    },
    {
      "channel": 3,
      "note": 75,
      "start": 10.3571,
      "duration": 0.0054,
      "velocity": 97,
      "chip": "ym2612"
    },
    {
      "channel": 4,
      "note": 51,
      "start": 10.3574,
      "duration": 0.0053,
      "velocity": 102,
      "chip": "ym2612"
    },
    {
      "channel": 2,
      "note": 79,
      "start": 10.3671,
      "duration": 0.0073,
      "velocity": 97,
      "chip": "ym2612"
    },
    {
      "channel": 3,
      "note": 79,
      "start": 10.3673,
      "duration": 0.0072,
      "velocity": 97,
      "chip": "ym2612"
    },
    {
      "channel": 4,
      "note": 63,
      "start": 10.3676,
      "duration": 0.0071,
      "velocity": 102,
      "chip": "ym2612"
    },
    {
      "channel": 2,
      "note": 82,
      "start": 10.3774,
      "duration": 0.0068,
      "velocity": 97,
      "chip": "ym2612"
    },
    {
      "channel": 3,
      "note": 82,
      "start": 10.3777,
      "duration": 0.0067,
      "velocity": 97,
      "chip": "ym2612"
    },
    {
      "channel": 4,
      "note": 63,
      "start": 10.3779,
      "duration": 0.0065,
      "velocity": 102,
      "chip": "ym2612"
    },
    {
      "channel": 2,
      "note": 87,
      "start": 10.3871,
      "duration": 0.0071,
      "velocity": 97,
      "chip": "ym2612"
    },
    {
      "channel": 3,
      "note": 87,
      "start": 10.3874,
      "duration": 0.007,
      "velocity": 97,
      "chip": "ym2612"
    },
    {
      "channel": 4,
      "note": 58,
      "start": 10.3876,
      "duration": 0.0068,
      "velocity": 102,
      "chip": "ym2612"
    },
    {
      "channel": 2,
      "note": 82,
      "start": 10.3968,
      "duration": 0.0067,
      "velocity": 97,
      "chip": "ym2612"
    },
    {
      "channel": 3,
      "note": 82,
      "start": 10.3971,
      "duration": 0.0066,
      "velocity": 97,
      "chip": "ym2612"
    },
    {
      "channel": 4,
      "note": 58,
      "start": 10.3973,
      "duration": 0.0064,
      "velocity": 102,
      "chip": "ym2612"
    },
    {
      "channel": 2,
      "note": 87,
      "start": 10.4062,
      "duration": 0.0065,
      "velocity": 97,
      "chip": "ym2612"
    },
    {
      "channel": 3,
      "note": 87,
      "start": 10.4064,
      "duration": 0.0063,
      "velocity": 97,
      "chip": "ym2612"
    },
    {
      "channel": 4,
      "note": 51,
      "start": 10.4066,
      "duration": 0.0062,
      "velocity": 102,
      "chip": "ym2612"
    },
    {
      "channel": 2,
      "note": 91,
      "start": 10.4154,
      "duration": 0.0064,
      "velocity": 97,
      "chip": "ym2612"
    },
    {
      "channel": 3,
      "note": 91,
      "start": 10.4156,
      "duration": 0.0063,
      "velocity": 97,
      "chip": "ym2612"
    },
    {
      "channel": 4,
      "note": 63,
      "start": 10.4159,
      "duration": 0.0061,
      "velocity": 102,
      "chip": "ym2612"
    },
    {
      "channel": 2,
      "note": 94,
      "start": 10.4249,
      "duration": 0.0066,
      "velocity": 97,
      "chip": "ym2612"
    },
    {
      "channel": 3,
      "note": 94,
      "start": 10.4251,
      "duration": 0.0065,
      "velocity": 97,
      "chip": "ym2612"
    },
    {
      "channel": 4,
      "note": 51,
      "start": 10.4254,
      "duration": 0.0063,
      "velocity": 102,
      "chip": "ym2612"
    },
    {
      "channel": 2,
      "note": 91,
      "start": 10.4341,
      "duration": 0.0065,
      "velocity": 97,
      "chip": "ym2612"
    },
    {
      "channel": 3,
      "note": 91,
      "start": 10.4344,
      "duration": 0.0063,
      "velocity": 97,
      "chip": "ym2612"
    },
    {
      "channel": 4,
      "note": 51,
      "start": 10.4346,
      "duration": 0.0062,
      "velocity": 102,
      "chip": "ym2612"
    },
    {
      "channel": 2,
      "note": 87,
      "start": 10.4435,
      "duration": 0.0071,
      "velocity": 97,
      "chip": "ym2612"
    },
    {
      "channel": 3,
      "note": 87,
      "start": 10.4438,
      "duration": 0.0069,
      "velocity": 97,
      "chip": "ym2612"
    },
    {
      "channel": 4,
      "note": 63,
      "start": 10.444,
      "duration": 0.0068,
      "velocity": 102,
      "chip": "ym2612"
    },
    {
      "channel": 2,
      "note": 91,
      "start": 10.4535,
      "duration": 0.0068,
      "velocity": 97,
      "chip": "ym2612"
    },
    {
      "channel": 3,
      "note": 91,
      "start": 10.4538,
      "duration": 0.0067,
      "velocity": 97,
      "chip": "ym2612"
    },
    {
      "channel": 4,
      "note": 63,
      "start": 10.454,
      "duration": 0.0065,
      "velocity": 102,
      "chip": "ym2612"
    },
    {
      "channel": 2,
      "note": 87,
      "start": 10.4631,
      "duration": 0.0066,
      "velocity": 97,
      "chip": "ym2612"
    },
    {
      "channel": 3,
      "note": 87,
      "start": 10.4633,
      "duration": 0.0065,
      "velocity": 97,
      "chip": "ym2612"
    },
    {
      "channel": 4,
      "note": 58,
      "start": 10.4636,
      "duration": 0.0063,
      "velocity": 102,
      "chip": "ym2612"
    },
    {
      "channel": 2,
      "note": 82,
      "start": 10.4723,
      "duration": 0.0064,
      "velocity": 97,
      "chip": "ym2612"
    },
    {
      "channel": 3,
      "note": 82,
      "start": 10.4726,
      "duration": 0.0063,
      "velocity": 97,
      "chip": "ym2612"
    },
    {
      "channel": 4,
      "note": 58,
      "start": 10.4728,
      "duration": 0.0062,
      "velocity": 102,
      "chip": "ym2612"
    },
    {
      "channel": 2,
      "note": 79,
      "start": 10.4824,
      "duration": 0.0073,
      "velocity": 97,
      "chip": "ym2612"
    },
    {
      "channel": 3,
      "note": 79,
      "start": 10.4826,
      "duration": 0.0071,
      "velocity": 97,
      "chip": "ym2612"
    },
    {
      "channel": 4,
      "note": 51,
      "start": 10.4828,
      "duration": 0.007,
      "velocity": 102,
      "chip": "ym2612"
    },
    {
      "channel": 2,
      "note": 82,
      "start": 10.4925,
      "duration": 0.0068,
      "velocity": 97,
      "chip": "ym2612"
    },
    {
      "channel": 3,
      "note": 82,
      "start": 10.4928,
      "duration": 0.0067,
      "velocity": 97,
      "chip": "ym2612"
    },
    {
      "channel": 4,
      "note": 58,
      "start": 10.493,
      "duration": 0.0066,
      "velocity": 102,
      "chip": "ym2612"
    },
    {
      "channel": 2,
      "note": 79,
      "start": 10.5021,
      "duration": 0.0066,
      "velocity": 97,
      "chip": "ym2612"
    },
    {
      "channel": 3,
      "note": 79,
      "start": 10.5023,
      "duration": 0.0065,
      "velocity": 97,
      "chip": "ym2612"
    },
    {
      "channel": 4,
      "note": 51,
      "start": 10.5026,
      "duration": 0.0063,
      "velocity": 102,
      "chip": "ym2612"
    },
    {
      "channel": 2,
      "note": 75,
      "start": 10.5114,
      "duration": 0.0065,
      "velocity": 97,
      "chip": "ym2612"
    },
    {
      "channel": 3,
      "note": 75,
      "start": 10.5116,
      "duration": 0.0063,
      "velocity": 97,
      "chip": "ym2612"
    },
    {
      "channel": 4,
      "note": 51,
      "start": 10.5118,
      "duration": 0.0062,
      "velocity": 102,
      "chip": "ym2612"
    },
    {
      "channel": 2,
      "note": 70,
      "start": 10.5214,
      "duration": 0.0073,
      "velocity": 97,
      "chip": "ym2612"
    },
    {
      "channel": 3,
      "note": 70,
      "start": 10.5216,
      "duration": 0.0071,
      "velocity": 97,
      "chip": "ym2612"
    },
    {
      "channel": 4,
      "note": 63,
      "start": 10.5219,
      "duration": 0.007,
      "velocity": 102,
      "chip": "ym2612"
    },
    {
      "channel": 2,
      "note": 75,
      "start": 10.5316,
      "duration": 0.0069,
      "velocity": 97,
      "chip": "ym2612"
    },
    {
      "channel": 3,
      "note": 75,
      "start": 10.5318,
      "duration": 0.0068,
      "velocity": 97,
      "chip": "ym2612"
    },
    {
      "channel": 4,
      "note": 63,
      "start": 10.5321,
      "duration": 0.0066,
      "velocity": 102,
      "chip": "ym2612"
    },
    {
      "channel": 2,
      "note": 70,
      "start": 10.5414,
      "duration": 0.0071,
      "velocity": 97,
      "chip": "ym2612"
    },
    {
      "channel": 3,
      "note": 70,
      "start": 10.5417,
      "duration": 0.007,
      "velocity": 97,
      "chip": "ym2612"
    },
    {
      "channel": 4,
      "note": 58,
      "start": 10.5419,
      "duration": 0.0069,
      "velocity": 102,
      "chip": "ym2612"
    },
    {
      "channel": 2,
      "note": 67,
      "start": 10.5512,
      "duration": 0.0065,
      "velocity": 97,
      "chip": "ym2612"
    },
    {
      "channel": 3,
      "note": 67,
      "start": 10.5515,
      "duration": 0.0063,
      "velocity": 97,
      "chip": "ym2612"
    },
    {
      "channel": 4,
      "note": 58,
      "start": 10.5517,
      "duration": 0.0062,
      "velocity": 102,
      "chip": "ym2612"
    },
    {
      "channel": 2,
      "note": 63,
      "start": 10.5603,
      "duration": 0.0064,
      "velocity": 97,
      "chip": "ym2612"
    },
    {
      "channel": 3,
      "note": 63,
      "start": 10.5606,
      "duration": 0.0063,
      "velocity": 97,
      "chip": "ym2612"
    },
    {
      "channel": 4,
      "note": 51,
      "start": 10.5608,
      "duration": 0.0061,
      "velocity": 102,
      "chip": "ym2612"
    },
    {
      "channel": 2,
      "note": 67,
      "start": 10.5694,
      "duration": 0.0069,
      "velocity": 97,
      "chip": "ym2612"
    },
    {
      "channel": 3,
      "note": 67,
      "start": 10.5696,
      "duration": 0.0068,
      "velocity": 97,
      "chip": "ym2612"
    },
    {
      "channel": 4,
      "note": 63,
      "start": 10.5698,
      "duration": 0.0066,
      "velocity": 102,
      "chip": "ym2612"
    },
    {
      "channel": 0,
      "note": 68,
      "start": 10.579,
      "duration": 0.1633,
      "velocity": 98,
      "chip": "ym2612"
    },
    {
      "channel": 1,
      "note": 73,
      "start": 10.5792,
      "duration": 0.1631,
      "velocity": 98,
      "chip": "ym2612"
    },
    {
      "channel": 2,
      "note": 61,
      "start": 10.5794,
      "duration": 0.0065,
      "velocity": 97,
      "chip": "ym2612"
    },
    {
      "channel": 3,
      "note": 61,
      "start": 10.5797,
      "duration": 0.0063,
      "velocity": 97,
      "chip": "ym2612"
    },
    {
      "channel": 4,
      "note": 49,
      "start": 10.5799,
      "duration": 0.0062,
      "velocity": 102,
      "chip": "ym2612"
    },
    {
      "channel": 2,
      "note": 56,
      "start": 10.5886,
      "duration": 0.0066,
      "velocity": 97,
      "chip": "ym2612"
    },
    {
      "channel": 3,
      "note": 56,
      "start": 10.5888,
      "duration": 0.0064,
      "velocity": 97,
      "chip": "ym2612"
    },
    {
      "channel": 4,
      "note": 49,
      "start": 10.5891,
      "duration": 0.0063,
      "velocity": 102,
      "chip": "ym2612"
    },
    {
      "channel": 2,
      "note": 61,
      "start": 10.6001,
      "duration": 0.0076,
      "velocity": 97,
      "chip": "ym2612"
    },
    {
      "channel": 3,
      "note": 61,
      "start": 10.6003,
      "duration": 0.0075,
      "velocity": 97,
      "chip": "ym2612"
    },
    {
      "channel": 4,
      "note": 61,
      "start": 10.6006,
      "duration": 0.0074,
      "velocity": 102,
      "chip": "ym2612"
    },
    {
      "channel": 2,
      "note": 65,
      "start": 10.6106,
      "duration": 0.0071,
      "velocity": 97,
      "chip": "ym2612"
    },
    {
      "channel": 3,
      "note": 65,
      "start": 10.6109,
      "duration": 0.0069,
      "velocity": 97,
      "chip": "ym2612"
    },
    {
      "channel": 4,
      "note": 61,
      "start": 10.6111,
      "duration": 0.0068,
      "velocity": 102,
      "chip": "ym2612"
    },
    {
      "channel": 2,
      "note": 68,
      "start": 10.6212,
      "duration": 0.0067,
      "velocity": 97,
      "chip": "ym2612"
    },
    {
      "channel": 3,
      "note": 68,
      "start": 10.6215,
      "duration": 0.0066,
      "velocity": 97,
      "chip": "ym2612"
    },
    {
      "channel": 4,
      "note": 56,
      "start": 10.6217,
      "duration": 0.0065,
      "velocity": 102,
      "chip": "ym2612"
    },
    {
      "channel": 2,
      "note": 65,
      "start": 10.6306,
      "duration": 0.0064,
      "velocity": 97,
      "chip": "ym2612"
    },
    {
      "channel": 3,
      "note": 65,
      "start": 10.6309,
      "duration": 0.0063,
      "velocity": 97,
      "chip": "ym2612"
    },
    {
      "channel": 4,
      "note": 56,
      "start": 10.6311,
      "duration": 0.0062,
      "velocity": 102,
      "chip": "ym2612"
    },
    {
      "channel": 2,
      "note": 68,
      "start": 10.6424,
      "duration": 0.0073,
      "velocity": 97,
      "chip": "ym2612"
    },
    {
      "channel": 3,
      "note": 68,
      "start": 10.6426,
      "duration": 0.0072,
      "velocity": 97,
      "chip": "ym2612"
    },
    {
      "channel": 4,
      "note": 49,
      "start": 10.6429,
      "duration": 0.007,
      "velocity": 102,
      "chip": "ym2612"
    },
    {
      "channel": 2,
      "note": 73,
      "start": 10.6528,
      "duration": 0.0067,
      "velocity": 97,
      "chip": "ym2612"
    },
    {
      "channel": 3,
      "note": 73,
      "start": 10.6531,
      "duration": 0.0066,
      "velocity": 97,
      "chip": "ym2612"
    },
    {
      "channel": 4,
      "note": 56,
      "start": 10.6533,
      "duration": 0.0065,
      "velocity": 102,
      "chip": "ym2612"
    },
    {
      "channel": 2,
      "note": 77,
      "start": 10.6632,
      "duration": 0.0071,
      "velocity": 97,
      "chip": "ym2612"
    },
    {
      "channel": 3,
      "note": 77,
      "start": 10.6634,
      "duration": 0.007,
      "velocity": 97,
      "chip": "ym2612"
    },
    {
      "channel": 4,
      "note": 49,
      "start": 10.6637,
      "duration": 0.0069,
      "velocity": 102,
      "chip": "ym2612"
    },
    {
      "channel": 2,
      "note": 73,
      "start": 10.6734,
      "duration": 0.0067,
      "velocity": 97,
      "chip": "ym2612"
    },
    {
      "channel": 3,
      "note": 73,
      "start": 10.6736,
      "duration": 0.0066,
      "velocity": 97,
      "chip": "ym2612"
    },
    {
      "channel": 4,
      "note": 49,
      "start": 10.6739,
      "duration": 0.0064,
      "velocity": 102,
      "chip": "ym2612"
    },
    {
      "channel": 2,
      "note": 77,
      "start": 10.6855,
      "duration": 0.0076,
      "velocity": 97,
      "chip": "ym2612"
    },
    {
      "channel": 3,
      "note": 77,
      "start": 10.6857,
      "duration": 0.0075,
      "velocity": 97,
      "chip": "ym2612"
    },
    {
      "channel": 4,
      "note": 61,
      "start": 10.6859,
      "duration": 0.0074,
      "velocity": 102,
      "chip": "ym2612"
    },
    {
      "channel": 2,
      "note": 80,
      "start": 10.696,
      "duration": 0.007,
      "velocity": 97,
      "chip": "ym2612"
    },
    {
      "channel": 3,
      "note": 80,
      "start": 10.6963,
      "duration": 0.0069,
      "velocity": 97,
      "chip": "ym2612"
    },
    {
      "channel": 4,
      "note": 61,
      "start": 10.6965,
      "duration": 0.0068,
      "velocity": 102,
      "chip": "ym2612"
    },
    {
      "channel": 2,
      "note": 85,
      "start": 10.7072,
      "duration": 0.0059,
      "velocity": 97,
      "chip": "ym2612"
    },
    {
      "channel": 3,
      "note": 85,
      "start": 10.7074,
      "duration": 0.0058,
      "velocity": 97,
      "chip": "ym2612"
    },
    {
      "channel": 4,
      "note": 56,
      "start": 10.7077,
      "duration": 0.0057,
      "velocity": 102,
      "chip": "ym2612"
    },
    {
      "channel": 2,
      "note": 80,
      "start": 10.7174,
      "duration": 0.0058,
      "velocity": 97,
      "chip": "ym2612"
    },
    {
      "channel": 3,
      "note": 80,
      "start": 10.7176,
      "duration": 0.0056,
      "velocity": 97,
      "chip": "ym2612"
    },
    {
      "channel": 4,
      "note": 56,
      "start": 10.7179,
      "duration": 0.0055,
      "velocity": 102,
      "chip": "ym2612"
    },
    {
      "channel": 2,
      "note": 85,
      "start": 10.7273,
      "duration": 0.0056,
      "velocity": 97,
      "chip": "ym2612"
    },
    {
      "channel": 3,
      "note": 85,
      "start": 10.7276,
      "duration": 0.0055,
      "velocity": 97,
      "chip": "ym2612"
    },
    {
      "channel": 4,
      "note": 44,
      "start": 10.7278,
      "duration": 0.0053,
      "velocity": 102,
      "chip": "ym2612"
    },
    {
      "channel": 2,
      "note": 89,
      "start": 10.7368,
      "duration": 0.0056,
      "velocity": 97,
      "chip": "ym2612"
    },
    {
      "channel": 3,
      "note": 89,
      "start": 10.7371,
      "duration": 0.0055,
      "velocity": 97,
      "chip": "ym2612"
    },
    {
      "channel": 4,
      "note": 61,
      "start": 10.7373,
      "duration": 0.0054,
      "velocity": 102,
      "chip": "ym2612"
    },
    {
      "channel": 0,
      "note": 63,
      "start": 10.7463,
      "duration": 0.1644,
      "velocity": 98,
      "chip": "ym2612"
    },
    {
      "channel": 1,
      "note": 68,
      "start": 10.7465,
      "duration": 0.1643,
      "velocity": 98,
      "chip": "ym2612"
    },
    {
      "channel": 2,
      "note": 63,
      "start": 10.7468,
      "duration": 0.0058,
      "velocity": 97,
      "chip": "ym2612"
    },
    {
      "channel": 3,
      "note": 63,
      "start": 10.747,
      "duration": 0.0057,
      "velocity": 97,
      "chip": "ym2612"
    },
    {
      "channel": 4,
      "note": 44,
      "start": 10.7473,
      "duration": 0.0056,
      "velocity": 102,
      "chip": "ym2612"
    },
    {
      "channel": 2,
      "note": 60,
      "start": 10.7566,
      "duration": 0.0062,
      "velocity": 97,
      "chip": "ym2612"
    },
    {
      "channel": 3,
      "note": 60,
      "start": 10.7568,
      "duration": 0.0061,
      "velocity": 97,
      "chip": "ym2612"
    },
    {
      "channel": 4,
      "note": 44,
      "start": 10.7571,
      "duration": 0.0059,
      "velocity": 102,
      "chip": "ym2612"
    },
    {
      "channel": 2,
      "note": 63,
      "start": 10.7671,
      "duration": 0.0064,
      "velocity": 97,
      "chip": "ym2612"
    },
    {
      "channel": 3,
      "note": 63,
      "start": 10.7673,
      "duration": 0.0063,
      "velocity": 97,
      "chip": "ym2612"
    },
    {
      "channel": 4,
      "note": 56,
      "start": 10.7675,
      "duration": 0.0062,
      "velocity": 102,
      "chip": "ym2612"
    },
    {
      "channel": 2,
      "note": 68,
      "start": 10.778,
      "duration": 0.0064,
      "velocity": 97,
      "chip": "ym2612"
    },
    {
      "channel": 3,
      "note": 68,
      "start": 10.7783,
      "duration": 0.0062,
      "velocity": 97,
      "chip": "ym2612"
    },
    {
      "channel": 4,
      "note": 56,
      "start": 10.7785,
      "duration": 0.0061,
      "velocity": 102,
      "chip": "ym2612"
    },
    {
      "channel": 2,
      "note": 72,
      "start": 10.789,
      "duration": 0.0057,
      "velocity": 97,
      "chip": "ym2612"
    },
    {
      "channel": 3,
      "note": 72,
      "start": 10.7893,
      "duration": 0.0056,
      "velocity": 97,
      "chip": "ym2612"
    },
    {
      "channel": 4,
      "note": 51,
      "start": 10.7895,
      "duration": 0.0054,
      "velocity": 102,
      "chip": "ym2612"
    },
    {
      "channel": 2,
      "note": 68,
      "start": 10.7987,
      "duration": 0.0062,
      "velocity": 97,
      "chip": "ym2612"
    },
    {
      "channel": 3,
      "note": 68,
      "start": 10.7989,
      "duration": 0.006,
      "velocity": 97,
      "chip": "ym2612"
    },
    {
      "channel": 4,
      "note": 51,
      "start": 10.7992,
      "duration": 0.0059,
      "velocity": 102,
      "chip": "ym2612"
    },
    {
      "channel": 2,
      "note": 72,
      "start": 10.8096,
      "duration": 0.0068,
      "velocity": 97,
      "chip": "ym2612"
    },
    {
      "channel": 3,
      "note": 72,
      "start": 10.8099,
      "duration": 0.0066,
      "velocity": 97,
      "chip": "ym2612"
    },
    {
      "channel": 4,
      "note": 44,
      "start": 10.8101,
      "duration": 0.0065,
      "velocity": 102,
      "chip": "ym2612"
    },
    {
      "channel": 2,
      "note": 75,
      "start": 10.8205,
      "duration": 0.0062,
      "velocity": 97,
      "chip": "ym2612"
    },
    {
      "channel": 3,
      "note": 75,
      "start": 10.8207,
      "duration": 0.0061,
      "velocity": 97,
      "chip": "ym2612"
    },
    {
      "channel": 4,
      "note": 56,
      "start": 10.8209,
      "duration": 0.0059,
      "velocity": 102,
      "chip": "ym2612"
    },
    {
      "channel": 2,
      "note": 80,
      "start": 10.8307,
      "duration": 0.006,
      "velocity": 97,
      "chip": "ym2612"
    },
    {
      "channel": 3,
      "note": 80,
      "start": 10.8309,
      "duration": 0.0058,
      "velocity": 97,
      "chip": "ym2612"
    },
    {
      "channel": 4,
      "note": 44,
      "start": 10.8312,
      "duration": 0.0057,
      "velocity": 102,
      "chip": "ym2612"
    },
    {
      "channel": 2,
      "note": 75,
      "start": 10.8408,
      "duration": 0.0056,
      "velocity": 97,
      "chip": "ym2612"
    },
    {
      "channel": 3,
      "note": 75,
      "start": 10.841,
      "duration": 0.0055,
      "velocity": 97,
      "chip": "ym2612"
    },
    {
      "channel": 4,
      "note": 44,
      "start": 10.8413,
      "duration": 0.0054,
      "velocity": 102,
      "chip": "ym2612"
    },
    {
      "channel": 2,
      "note": 80,
      "start": 10.8514,
      "duration": 0.0063,
      "velocity": 97,
      "chip": "ym2612"
    },
    {
      "channel": 3,
      "note": 80,
      "start": 10.8516,
      "duration": 0.0061,
      "velocity": 97,
      "chip": "ym2612"
    },
    {
      "channel": 4,
      "note": 56,
      "start": 10.8519,
      "duration": 0.006,
      "velocity": 102,
      "chip": "ym2612"
    },
    {
      "channel": 2,
      "note": 84,
      "start": 10.8622,
      "duration": 0.0062,
      "velocity": 97,
      "chip": "ym2612"
    },
    {
      "channel": 3,
      "note": 84,
      "start": 10.8624,
      "duration": 0.0061,
      "velocity": 97,
      "chip": "ym2612"
    },
    {
      "channel": 4,
      "note": 56,
      "start": 10.8627,
      "duration": 0.006,
      "velocity": 102,
      "chip": "ym2612"
    },
    {
      "channel": 2,
      "note": 87,
      "start": 10.873,
      "duration": 0.008,
      "velocity": 97,
      "chip": "ym2612"
    },
    {
      "channel": 3,
      "note": 87,
      "start": 10.8732,
      "duration": 0.0079,
      "velocity": 97,
      "chip": "ym2612"
    },
    {
      "channel": 4,
      "note": 51,
      "start": 10.8735,
      "duration": 0.0077,
      "velocity": 102,
      "chip": "ym2612"
    },
    {
      "channel": 2,
      "note": 84,
      "start": 10.8841,
      "duration": 0.007,
      "velocity": 97,
      "chip": "ym2612"
    },
    {
      "channel": 3,
      "note": 84,
      "start": 10.8844,
      "duration": 0.0069,
      "velocity": 97,
      "chip": "ym2612"
    },
    {
      "channel": 4,
      "note": 51,
      "start": 10.8846,
      "duration": 0.0068,
      "velocity": 102,
      "chip": "ym2612"
    },
    {
      "channel": 2,
      "note": 87,
      "start": 10.894,
      "duration": 0.0068,
      "velocity": 97,
      "chip": "ym2612"
    },
    {
      "channel": 3,
      "note": 87,
      "start": 10.8943,
      "duration": 0.0067,
      "velocity": 97,
      "chip": "ym2612"
    },
    {
      "channel": 4,
      "note": 56,
      "start": 10.8945,
      "duration": 0.0066,
      "velocity": 102,
      "chip": "ym2612"
    },
    {
      "channel": 2,
      "note": 92,
      "start": 10.9036,
      "duration": 0.0073,
      "velocity": 97,
      "chip": "ym2612"
    },
    {
      "channel": 3,
      "note": 92,
      "start": 10.9039,
      "duration": 0.0072,
      "velocity": 97,
      "chip": "ym2612"
    },
    {
      "channel": 4,
      "note": 51,
      "start": 10.9041,
      "duration": 0.0071,
      "velocity": 102,
      "chip": "ym2612"
    },
    {
      "channel": 0,
      "note": 66,
      "start": 10.9152,
      "duration": 0.3402,
      "velocity": 98,
      "chip": "ym2612"
    },
    {
      "channel": 1,
      "note": 61,
      "start": 10.9154,
      "duration": 0.34,
      "velocity": 98,
      "chip": "ym2612"
    },
    {
      "channel": 2,
      "note": 66,
      "start": 10.9157,
      "duration": 0.008,
      "velocity": 97,
      "chip": "ym2612"
    },
    {
      "channel": 3,
      "note": 66,
      "start": 10.9159,
      "duration": 0.0079,
      "velocity": 97,
      "chip": "ym2612"
    },
    {
      "channel": 4,
      "note": 54,
      "start": 10.9162,
      "duration": 0.0077,
      "velocity": 102,
      "chip": "ym2612"
    },
    {
      "channel": 2,
      "note": 61,
      "start": 10.9269,
      "duration": 0.007,
      "velocity": 97,
      "chip": "ym2612"
    },
    {
      "channel": 3,
      "note": 61,
      "start": 10.9271,
      "duration": 0.0068,
      "velocity": 97,
      "chip": "ym2612"
    },
    {
      "channel": 4,
      "note": 54,
      "start": 10.9274,
      "duration": 0.0067,
      "velocity": 102,
      "chip": "ym2612"
    },
    {
      "channel": 2,
      "note": 66,
      "start": 10.9367,
      "duration": 0.0078,
      "velocity": 97,
      "chip": "ym2612"
    },
    {
      "channel": 3,
      "note": 66,
      "start": 10.937,
      "duration": 0.0077,
      "velocity": 97,
      "chip": "ym2612"
    },
    {
      "channel": 4,
      "note": 66,
      "start": 10.9372,
      "duration": 0.0076,
      "velocity": 102,
      "chip": "ym2612"
    },
    {
      "channel": 2,
      "note": 70,
      "start": 10.9477,
      "duration": 0.0074,
      "velocity": 97,
      "chip": "ym2612"
    },
    {
      "channel": 3,
      "note": 70,
      "start": 10.948,
      "duration": 0.0073,
      "velocity": 97,
      "chip": "ym2612"
    },
    {
      "channel": 4,
      "note": 66,
      "start": 10.9482,
      "duration": 0.0071,
      "velocity": 102,
      "chip": "ym2612"
    },
    {
      "channel": 2,
      "note": 73,
      "start": 10.9583,
      "duration": 0.0074,
      "velocity": 97,
      "chip": "ym2612"
    },
    {
      "channel": 3,
      "note": 73,
      "start": 10.9586,
      "duration": 0.0073,
      "velocity": 97,
      "chip": "ym2612"
    },
    {
      "channel": 4,
      "note": 61,
      "start": 10.9588,
      "duration": 0.0071,
      "velocity": 102,
      "chip": "ym2612"
    },
    {
      "channel": 2,
      "note": 70,
      "start": 10.9688,
      "duration": 0.0074,
      "velocity": 97,
      "chip": "ym2612"
    },
    {
      "channel": 3,
      "note": 70,
      "start": 10.969,
      "duration": 0.0073,
      "velocity": 97,
      "chip": "ym2612"
    },
    {
      "channel": 4,
      "note": 61,
      "start": 10.9692,
      "duration": 0.0071,
      "velocity": 102,
      "chip": "ym2612"
    },
    {
      "channel": 2,
      "note": 73,
      "start": 10.98,
      "duration": 0.008,
      "velocity": 97,
      "chip": "ym2612"
    },
    {
      "channel": 3,
      "note": 73,
      "start": 10.9802,
      "duration": 0.0079,
      "velocity": 97,
      "chip": "ym2612"
    },
    {
      "channel": 4,
      "note": 54,
      "start": 10.9805,
      "duration": 0.0078,
      "velocity": 102,
      "chip": "ym2612"
    },
    {
      "channel": 2,
      "note": 78,
      "start": 10.9913,
      "duration": 0.0077,
      "velocity": 97,
      "chip": "ym2612"
    },
    {
      "channel": 3,
      "note": 78,
      "start": 10.9916,
      "duration": 0.0075,
      "velocity": 97,
      "chip": "ym2612"
    },
    {
      "channel": 4,
      "note": 66,
      "start": 10.9918,
      "duration": 0.0074,
      "velocity": 102,
      "chip": "ym2612"
    },
    {
      "channel": 2,
      "note": 82,
      "start": 11.0023,
      "duration": 0.0074,
      "velocity": 97,
      "chip": "ym2612"
    },
    {
      "channel": 3,
      "note": 82,
      "start": 11.0026,
      "duration": 0.0072,
      "velocity": 97,
      "chip": "ym2612"
    },
    {
      "channel": 4,
      "note": 54,
      "start": 11.0028,
      "duration": 0.0071,
      "velocity": 102,
      "chip": "ym2612"
    },
    {
      "channel": 2,
      "note": 78,
      "start": 11.0129,
      "duration": 0.0068,
      "velocity": 97,
      "chip": "ym2612"
    },
    {
      "channel": 3,
      "note": 78,
      "start": 11.0131,
      "duration": 0.0067,
      "velocity": 97,
      "chip": "ym2612"
    },
    {
      "channel": 4,
      "note": 54,
      "start": 11.0134,
      "duration": 0.0066,
      "velocity": 102,
      "chip": "ym2612"
    },
    {
      "channel": 2,
      "note": 82,
      "start": 11.0234,
      "duration": 0.0081,
      "velocity": 97,
      "chip": "ym2612"
    },
    {
      "channel": 3,
      "note": 82,
      "start": 11.0237,
      "duration": 0.0079,
      "velocity": 97,
      "chip": "ym2612"
    },
    {
      "channel": 4,
      "note": 66,
      "start": 11.0239,
      "duration": 0.0078,
      "velocity": 102,
      "chip": "ym2612"
    },
    {
      "channel": 2,
      "note": 85,
      "start": 11.0347,
      "duration": 0.0076,
      "velocity": 97,
      "chip": "ym2612"
    },
    {
      "channel": 3,
      "note": 85,
      "start": 11.0349,
      "duration": 0.0074,
      "velocity": 97,
      "chip": "ym2612"
    },
    {
      "channel": 4,
      "note": 66,
      "start": 11.0352,
      "duration": 0.0073,
      "velocity": 102,
      "chip": "ym2612"
    },
    {
      "channel": 2,
      "note": 90,
      "start": 11.0454,
      "duration": 0.0076,
      "velocity": 97,
      "chip": "ym2612"
    },
    {
      "channel": 3,
      "note": 90,
      "start": 11.0457,
      "duration": 0.0075,
      "velocity": 97,
      "chip": "ym2612"
    },
    {
      "channel": 4,
      "note": 61,
      "start": 11.0459,
      "duration": 0.0073,
      "velocity": 102,
      "chip": "ym2612"
    },
    {
      "channel": 2,
      "note": 85,
      "start": 11.0559,
      "duration": 0.0077,
      "velocity": 97,
      "chip": "ym2612"
    },
    {
      "channel": 3,
      "note": 85,
      "start": 11.0562,
      "duration": 0.0075,
      "velocity": 97,
      "chip": "ym2612"
    },
    {
      "channel": 4,
      "note": 61,
      "start": 11.0564,
      "duration": 0.0074,
      "velocity": 102,
      "chip": "ym2612"
    },
    {
      "channel": 2,
      "note": 90,
      "start": 11.0668,
      "duration": 0.0069,
      "velocity": 97,
      "chip": "ym2612"
    },
    {
      "channel": 3,
      "note": 90,
      "start": 11.0671,
      "duration": 0.0067,
      "velocity": 97,
      "chip": "ym2612"
    },
    {
      "channel": 4,
      "note": 54,
      "start": 11.0673,
      "duration": 0.0066,
      "velocity": 102,
      "chip": "ym2612"
    },
    {
      "channel": 2,
      "note": 94,
      "start": 11.0767,
      "duration": 0.0071,
      "velocity": 97,
      "chip": "ym2612"
    },
    {
      "channel": 3,
      "note": 94,
      "start": 11.0769,
      "duration": 0.007,
      "velocity": 97,
      "chip": "ym2612"
    },
    {
      "channel": 4,
      "note": 66,
      "start": 11.0772,
      "duration": 0.0068,
      "velocity": 102,
      "chip": "ym2612"
    },
    {
      "channel": 2,
      "note": 97,
      "start": 11.0871,
      "duration": 0.0078,
      "velocity": 97,
      "chip": "ym2612"
    },
    {
      "channel": 3,
      "note": 97,
      "start": 11.0873,
      "duration": 0.0077,
      "velocity": 97,
      "chip": "ym2612"
    },
    {
      "channel": 4,
      "note": 54,
      "start": 11.0876,
      "duration": 0.0075,
      "velocity": 102,
      "chip": "ym2612"
    },
    {
      "channel": 2,
      "note": 94,
      "start": 11.0978,
      "duration": 0.0072,
      "velocity": 97,
      "chip": "ym2612"
    },
    {
      "channel": 3,
      "note": 94,
      "start": 11.098,
      "duration": 0.0071,
      "velocity": 97,
      "chip": "ym2612"
    },
    {
      "channel": 4,
      "note": 54,
      "start": 11.0983,
      "duration": 0.0069,
      "velocity": 102,
      "chip": "ym2612"
    },
    {
      "channel": 2,
      "note": 90,
      "start": 11.1083,
      "duration": 0.008,
      "velocity": 97,
      "chip": "ym2612"
    },
    {
      "channel": 3,
      "note": 90,
      "start": 11.1086,
      "duration": 0.0079,
      "velocity": 97,
      "chip": "ym2612"
    },
    {
      "channel": 4,
      "note": 66,
      "start": 11.1088,
      "duration": 0.0078,
      "velocity": 102,
      "chip": "ym2612"
    },
    {
      "channel": 2,
      "note": 94,
      "start": 11.1197,
      "duration": 0.0076,
      "velocity": 97,
      "chip": "ym2612"
    },
    {
      "channel": 3,
      "note": 94,
      "start": 11.1199,
      "duration": 0.0075,
      "velocity": 97,
      "chip": "ym2612"
    },
    {
      "channel": 4,
      "note": 66,
      "start": 11.1202,
      "duration": 0.0073,
      "velocity": 102,
      "chip": "ym2612"
    },
    {
      "channel": 2,
      "note": 90,
      "start": 11.1305,
      "duration": 0.0069,
      "velocity": 97,
      "chip": "ym2612"
    },
    {
      "channel": 3,
      "note": 90,
      "start": 11.1307,
      "duration": 0.0068,
      "velocity": 97,
      "chip": "ym2612"
    },
    {
      "channel": 4,
      "note": 61,
      "start": 11.131,
      "duration": 0.0067,
      "velocity": 102,
      "chip": "ym2612"
    },
    {
      "channel": 2,
      "note": 85,
      "start": 11.1403,
      "duration": 0.0072,
      "velocity": 97,
      "chip": "ym2612"
    },
    {
      "channel": 3,
      "note": 85,
      "start": 11.1405,
      "duration": 0.0071,
      "velocity": 97,
      "chip": "ym2612"
    },
    {
      "channel": 4,
      "note": 61,
      "start": 11.1408,
      "duration": 0.007,
      "velocity": 102,
      "chip": "ym2612"
    },
    {
      "channel": 2,
      "note": 82,
      "start": 11.1513,
      "duration": 0.0079,
      "velocity": 97,
      "chip": "ym2612"
    },
    {
      "channel": 3,
      "note": 82,
      "start": 11.1516,
      "duration": 0.0078,
      "velocity": 97,
      "chip": "ym2612"
    },
    {
      "channel": 4,
      "note": 54,
      "start": 11.1518,
      "duration": 0.0077,
      "velocity": 102,
      "chip": "ym2612"
    },
    {
      "channel": 2,
      "note": 85,
      "start": 11.1625,
      "duration": 0.0075,
      "velocity": 97,
      "chip": "ym2612"
    },
    {
      "channel": 3,
      "note": 85,
      "start": 11.1627,
      "duration": 0.0073,
      "velocity": 97,
      "chip": "ym2612"
    },
    {
      "channel": 4,
      "note": 66,
      "start": 11.163,
      "duration": 0.0072,
      "velocity": 102,
      "chip": "ym2612"
    },
    {
      "channel": 2,
      "note": 82,
      "start": 11.1732,
      "duration": 0.0074,
      "velocity": 97,
      "chip": "ym2612"
    },
    {
      "channel": 3,
      "note": 82,
      "start": 11.1734,
      "duration": 0.0073,
      "velocity": 97,
      "chip": "ym2612"
    },
    {
      "channel": 4,
      "note": 54,
      "start": 11.1737,
      "duration": 0.0072,
      "velocity": 102,
      "chip": "ym2612"
    },
    {
      "channel": 2,
      "note": 78,
      "start": 11.1838,
      "duration": 0.007,
      "velocity": 97,
      "chip": "ym2612"
    },
    {
      "channel": 3,
      "note": 78,
      "start": 11.184,
      "duration": 0.0069,
      "velocity": 97,
      "chip": "ym2612"
    },
    {
      "channel": 4,
      "note": 54,
      "start": 11.1843,
      "duration": 0.0068,
      "velocity": 102,
      "chip": "ym2612"
    },
    {
      "channel": 2,
      "note": 73,
      "start": 11.1945,
      "duration": 0.0081,
      "velocity": 97,
      "chip": "ym2612"
    },
    {
      "channel": 3,
      "note": 73,
      "start": 11.1948,
      "duration": 0.008,
      "velocity": 97,
      "chip": "ym2612"
    },
    {
      "channel": 4,
      "note": 66,
      "start": 11.195,
      "duration": 0.0078,
      "velocity": 102,
      "chip": "ym2612"
    },
    {
      "channel": 2,
      "note": 78,
      "start": 11.2059,
      "duration": 0.0077,
      "velocity": 97,
      "chip": "ym2612"
    },
    {
      "channel": 3,
      "note": 78,
      "start": 11.2061,
      "duration": 0.0075,
      "velocity": 97,
      "chip": "ym2612"
    },
    {
      "channel": 4,
      "note": 66,
      "start": 11.2064,
      "duration": 0.0074,
      "velocity": 102,
      "chip": "ym2612"
    },
    {
      "channel": 2,
      "note": 73,
      "start": 11.2168,
      "duration": 0.0078,
      "velocity": 97,
      "chip": "ym2612"
    },
    {
      "channel": 3,
      "note": 73,
      "start": 11.2171,
      "duration": 0.0076,
      "velocity": 97,
      "chip": "ym2612"
    },
    {
      "channel": 4,
      "note": 61,
      "start": 11.2173,
      "duration": 0.0075,
      "velocity": 102,
      "chip": "ym2612"
    },
    {
      "channel": 2,
      "note": 70,
      "start": 11.2276,
      "duration": 0.0071,
      "velocity": 97,
      "chip": "ym2612"
    },
    {
      "channel": 3,
      "note": 70,
      "start": 11.2279,
      "duration": 0.007,
      "velocity": 97,
      "chip": "ym2612"
    },
    {
      "channel": 4,
      "note": 61,
      "start": 11.2281,
      "duration": 0.0068,
      "velocity": 102,
      "chip": "ym2612"
    },
    {
      "channel": 2,
      "note": 66,
      "start": 11.2377,
      "duration": 0.0077,
      "velocity": 97,
      "chip": "ym2612"
    },
    {
      "channel": 3,
      "note": 66,
      "start": 11.2379,
      "duration": 0.0076,
      "velocity": 97,
      "chip": "ym2612"
    },
    {
      "channel": 4,
      "note": 54,
      "start": 11.2382,
      "duration": 0.0074,
      "velocity": 102,
      "chip": "ym2612"
    },
    {
      "channel": 2,
      "note": 70,
      "start": 11.2498,
      "duration": 0.0058,
      "velocity": 97,
      "chip": "ym2612"
    },
    {
      "channel": 3,
      "note": 70,
      "start": 11.2501,
      "duration": 0.0056,
      "velocity": 97,
      "chip": "ym2612"
    },
    {
      "channel": 4,
      "note": 66,
      "start": 11.2503,
      "duration": 0.0055,
      "velocity": 102,
      "chip": "ym2612"
    },
    {
      "channel": 0,
      "note": 68,
      "start": 11.26,
      "duration": 2.359,
      "velocity": 98,
      "chip": "ym2612"
    },
    {
      "channel": 1,
      "note": 75,
      "start": 11.2602,
      "duration": 2.3588,
      "velocity": 98,
      "chip": "ym2612"
    },
    {
      "channel": 2,
      "note": 92,
      "start": 11.2605,
      "duration": 2.3586,
      "velocity": 97,
      "chip": "ym2612"
    },
    {
      "channel": 3,
      "note": 92,
      "start": 11.262,
      "duration": 0.0066,
      "velocity": 79,
      "chip": "ym2612"
    },
    {
      "channel": 4,
      "note": 44,
      "start": 11.2624,
      "duration": 0.0063,
      "velocity": 102,
      "chip": "ym2612"
    },
    {
      "channel": 3,
      "note": 92,
      "start": 11.2727,
      "duration": 0.0057,
      "velocity": 79,
      "chip": "ym2612"
    },
    {
      "channel": 4,
      "note": 44,
      "start": 11.273,
      "duration": 0.0056,
      "velocity": 102,
      "chip": "ym2612"
    },
    {
      "channel": 3,
      "note": 80,
      "start": 11.2827,
      "duration": 0.0056,
      "velocity": 79,
      "chip": "ym2612"
    },
    {
      "channel": 4,
      "note": 56,
      "start": 11.2829,
      "duration": 0.0055,
      "velocity": 102,
      "chip": "ym2612"
    },
    {
      "channel": 3,
      "note": 80,
      "start": 11.2924,
      "duration": 0.0056,
      "velocity": 79,
      "chip": "ym2612"
    },
    {
      "channel": 4,
      "note": 56,
      "start": 11.2926,
      "duration": 0.0054,
      "velocity": 102,
      "chip": "ym2612"
    },
    {
      "channel": 3,
      "note": 92,
      "start": 11.3019,
      "duration": 0.005,
      "velocity": 79,
      "chip": "ym2612"
    },
    {
      "channel": 4,
      "note": 44,
      "start": 11.3021,
      "duration": 0.0049,
      "velocity": 102,
      "chip": "ym2612"
    },
    {
      "channel": 3,
      "note": 92,
      "start": 11.3313,
      "duration": 0.0666,
      "velocity": 79,
      "chip": "ym2612"
    },
    {
      "channel": 4,
      "note": 44,
      "start": 11.3315,
      "duration": 0.0665,
      "velocity": 102,
      "chip": "ym2612"
    },
    {
      "channel": 3,
      "note": 80,
      "start": 11.4481,
      "duration": 0.0666,
      "velocity": 79,
      "chip": "ym2612"
    },
    {
      "channel": 4,
      "note": 56,
      "start": 11.4484,
      "duration": 0.0665,
      "velocity": 102,
      "chip": "ym2612"
    },
    {
      "channel": 3,
      "note": 80,
      "start": 11.5649,
      "duration": 0.0666,
      "velocity": 79,
      "chip": "ym2612"
    },
    {
      "channel": 4,
      "note": 51,
      "start": 11.5651,
      "duration": 0.0665,
      "velocity": 102,
      "chip": "ym2612"
    },
    {
      "channel": 3,
      "note": 104,
      "start": 11.6818,
      "duration": 0.0051,
      "velocity": 79,
      "chip": "ym2612"
    },
    {
      "channel": 4,
      "note": 44,
      "start": 11.682,
      "duration": 0.0049,
      "velocity": 102,
      "chip": "ym2612"
    },
    {
      "channel": 3,
      "note": 104,
      "start": 11.7112,
      "duration": 0.0666,
      "velocity": 79,
      "chip": "ym2612"
    },
    {
      "channel": 4,
      "note": 44,
      "start": 11.7115,
      "duration": 0.0665,
      "velocity": 102,
      "chip": "ym2612"
    },
    {
      "channel": 3,
      "note": 80,
      "start": 11.8281,
      "duration": 0.0666,
      "velocity": 79,
      "chip": "ym2612"
    },
    {
      "channel": 4,
      "note": 56,
      "start": 11.8283,
      "duration": 0.0665,
      "velocity": 102,
      "chip": "ym2612"
    },
    {
      "channel": 3,
      "note": 80,
      "start": 11.9449,
      "duration": 0.0666,
      "velocity": 79,
      "chip": "ym2612"
    },
    {
      "channel": 4,
      "note": 56,
      "start": 11.9451,
      "duration": 0.0665,
      "velocity": 102,
      "chip": "ym2612"
    },
    {
      "channel": 3,
      "note": 92,
      "start": 12.0617,
      "duration": 0.0051,
      "velocity": 79,
      "chip": "ym2612"
    },
    {
      "channel": 4,
      "note": 44,
      "start": 12.062,
      "duration": 0.005,
      "velocity": 102,
      "chip": "ym2612"
    },
    {
      "channel": 3,
      "note": 92,
      "start": 12.0912,
      "duration": 0.0666,
      "velocity": 79,
      "chip": "ym2612"
    },
    {
      "channel": 4,
      "note": 44,
      "start": 12.0914,
      "duration": 0.0665,
      "velocity": 102,
      "chip": "ym2612"
    },
    {
      "channel": 3,
      "note": 80,
      "start": 12.208,
      "duration": 0.0666,
      "velocity": 79,
      "chip": "ym2612"
    },
    {
      "channel": 4,
      "note": 51,
      "start": 12.2083,
      "duration": 0.0665,
      "velocity": 102,
      "chip": "ym2612"
    },
    {
      "channel": 3,
      "note": 80,
      "start": 12.3248,
      "duration": 0.0833,
      "velocity": 79,
      "chip": "ym2612"
    },
    {
      "channel": 4,
      "note": 56,
      "start": 12.325,
      "duration": 0.0832,
      "velocity": 102,
      "chip": "ym2612"
    },
    {
      "channel": 3,
      "note": 92,
      "start": 12.4422,
      "duration": 0.0062,
      "velocity": 79,
      "chip": "ym2612"
    },
    {
      "channel": 4,
      "note": 44,
      "start": 12.4424,
      "duration": 0.0061,
      "velocity": 102,
      "chip": "ym2612"
    },
    {
      "channel": 3,
      "note": 92,
      "start": 12.4712,
      "duration": 0.0834,
      "velocity": 79,
      "chip": "ym2612"
    },
    {
      "channel": 4,
      "note": 44,
      "start": 12.4714,
      "duration": 0.0832,
      "velocity": 102,
      "chip": "ym2612"
    },
    {
      "channel": 3,
      "note": 80,
      "start": 12.588,
      "duration": 0.0833,
      "velocity": 79,
      "chip": "ym2612"
    },
    {
      "channel": 4,
      "note": 56,
      "start": 12.5883,
      "duration": 0.0832,
      "velocity": 102,
      "chip": "ym2612"
    },
    {
      "channel": 3,
      "note": 80,
      "start": 12.7048,
      "duration": 0.0833,
      "velocity": 79,
      "chip": "ym2612"
    },
    {
      "channel": 4,
      "note": 56,
      "start": 12.705,
      "duration": 0.0832,
      "velocity": 102,
      "chip": "ym2612"
    },
    {
      "channel": 3,
      "note": 92,
      "start": 12.8217,
      "duration": 0.0062,
      "velocity": 79,
      "chip": "ym2612"
    },
    {
      "channel": 4,
      "note": 44,
      "start": 12.8219,
      "duration": 0.0061,
      "velocity": 102,
      "chip": "ym2612"
    },
    {
      "channel": 3,
      "note": 92,
      "start": 12.8512,
      "duration": 0.0833,
      "velocity": 79,
      "chip": "ym2612"
    },
    {
      "channel": 4,
      "note": 44,
      "start": 12.8514,
      "duration": 0.0832,
      "velocity": 102,
      "chip": "ym2612"
    },
    {
      "channel": 3,
      "note": 80,
      "start": 12.968,
      "duration": 0.0833,
      "velocity": 79,
      "chip": "ym2612"
    },
    {
      "channel": 4,
      "note": 56,
      "start": 12.9683,
      "duration": 0.0832,
      "velocity": 102,
      "chip": "ym2612"
    },
    {
      "channel": 3,
      "note": 80,
      "start": 13.0848,
      "duration": 0.0833,
      "velocity": 79,
      "chip": "ym2612"
    },
    {
      "channel": 4,
      "note": 51,
      "start": 13.0851,
      "duration": 0.0832,
      "velocity": 102,
      "chip": "ym2612"
    },
    {
      "channel": 3,
      "note": 104,
      "start": 13.2017,
      "duration": 0.0061,
      "velocity": 79,
      "chip": "ym2612"
    },
    {
      "channel": 4,
      "note": 44,
      "start": 13.2019,
      "duration": 0.006,
      "velocity": 102,
      "chip": "ym2612"
    },
    {
      "channel": 3,
      "note": 104,
      "start": 13.2312,
      "duration": 0.0833,
      "velocity": 79,
      "chip": "ym2612"
    },
    {
      "channel": 4,
      "note": 44,
      "start": 13.2314,
      "duration": 0.0832,
      "velocity": 102,
      "chip": "ym2612"
    },
    {
      "channel": 3,
      "note": 80,
      "start": 13.348,
      "duration": 0.0833,
      "velocity": 79,
      "chip": "ym2612"
    },
    {
      "channel": 4,
      "note": 56,
      "start": 13.3483,
      "duration": 0.0832,
      "velocity": 102,
      "chip": "ym2612"
    },
    {
      "channel": 3,
      "note": 80,
      "start": 13.4648,
      "duration": 0.0833,
      "velocity": 79,
      "chip": "ym2612"
    },
    {
      "channel": 4,
      "note": 56,
      "start": 13.4651,
      "duration": 0.0832,
      "velocity": 102,
      "chip": "ym2612"
    },
    {
      "channel": 3,
      "note": 92,
      "start": 13.5817,
      "duration": 0.0076,
      "velocity": 79,
      "chip": "ym2612"
    },
    {
      "channel": 4,
      "note": 44,
      "start": 13.5819,
      "duration": 0.0075,
      "velocity": 102,
      "chip": "ym2612"
    },
    {
      "channel": 3,
      "note": 92,
      "start": 13.5923,
      "duration": 0.0074,
      "velocity": 79,
      "chip": "ym2612"
    },
    {
      "channel": 4,
      "note": 44,
      "start": 13.5925,
      "duration": 0.0073,
      "velocity": 102,
      "chip": "ym2612"
    },
    {
      "channel": 3,
      "note": 80,
      "start": 13.6028,
      "duration": 0.0067,
      "velocity": 79,
      "chip": "ym2612"
    },
    {
      "channel": 4,
      "note": 51,
      "start": 13.603,
      "duration": 0.0066,
      "velocity": 102,
      "chip": "ym2612"
    },
    {
      "channel": 3,
      "note": 80,
      "start": 13.6122,
      "duration": 39.2894,
      "velocity": 79,
      "chip": "ym2612"
    },
    {
      "channel": 4,
      "note": 56,
      "start": 13.6125,
      "duration": 39.2892,
      "velocity": 102,
      "chip": "ym2612"
    }
  ]
}