{
  "track_name": "15 - Stage 6-2 (Command Center)",
  "duration_sec": 62.675,
  "sample_rate": 44100,
  "note_count": 1498,
  "unique_pitches": 40,
  "pitch_range": 48,
  "avg_note_duration": 0.0988,
  "reconstruction_stats": {
    "notes_reconstructed": 1498,
    "keyon_events": 1498,
    "keyoff_events": 1496,
    "orphan_keyons": 2,
    "unique_pitches": 40,
    "pitch_range": 48,
    "avg_duration_sec": 0.0988
  },
  "metadata": {
    "source": "R\\Ranger-X\\15 - Stage 6-2 (Command Center).vgz"
  },
  "notes": [
    {
      "channel": 0,
      "note": 49,
      "start": 0.0,
      "duration": 0.0744,
      "velocity": 88,
      "chip": "ym2612"
    },
    {
      "channel": 1,
      "note": 51,
      "start": 0.0041,
      "duration": 0.0901,
      "velocity": 94,
      "chip": "ym2612"
    },
    {
      "channel": 2,
      "note": 49,
      "start": 0.0083,
      "duration": 0.047,
      "velocity": 93,
      "chip": "ym2612"
    },
    {
      "channel": 3,
      "note": 82,
      "start": 0.023,
      "duration": 0.0521,
      "velocity": 93,
      "chip": "ym2612"
    },
    {
      "channel": 0,
      "note": 49,
      "start": 0.1138,
      "duration": 0.1954,
      "velocity": 88,
      "chip": "ym2612"
    },
    {
      "channel": 1,
      "note": 51,
      "start": 0.1159,
      "duration": 0.0956,
      "velocity": 94,
      "chip": "ym2612"
    },
    {
      "channel": 2,
      "note": 49,
      "start": 0.1164,
      "duration": 0.0562,
      "velocity": 93,
      "chip": "ym2612"
    },
    {
      "channel": 3,
      "note": 49,
      "start": 0.134,
      "duration": 0.0585,
      "velocity": 93,
      "chip": "ym2612"
    },
    {
      "channel": 1,
      "note": 51,
      "start": 0.2313,
      "duration": 0.0977,
      "velocity": 94,
      "chip": "ym2612"
    },
    {
      "channel": 0,
      "note": 49,
      "start": 0.3485,
      "duration": 0.078,
      "velocity": 88,
      "chip": "ym2612"
    },
    {
      "channel": 1,
      "note": 51,
      "start": 0.3505,
      "duration": 0.0957,
      "velocity": 94,
      "chip": "ym2612"
    },
    {
      "channel": 2,
      "note": 49,
      "start": 0.3511,
      "duration": 0.0563,
      "velocity": 93,
      "chip": "ym2612"
    },
    {
      "channel": 3,
      "note": 49,
      "start": 0.3688,
      "duration": 0.0585,
      "velocity": 93,
      "chip": "ym2612"
    },
    {
      "channel": 0,
      "note": 49,
      "start": 0.4658,
      "duration": 0.1954,
      "velocity": 88,
      "chip": "ym2612"
    },
    {
      "channel": 1,
      "note": 51,
      "start": 0.4679,
      "duration": 0.0958,
      "velocity": 94,
      "chip": "ym2612"
    },
    {
      "channel": 2,
      "note": 49,
      "start": 0.4684,
      "duration": 0.0563,
      "velocity": 93,
      "chip": "ym2612"
    },
    {
      "channel": 3,
      "note": 49,
      "start": 0.4861,
      "duration": 0.0585,
      "velocity": 93,
      "chip": "ym2612"
    },
    {
      "channel": 1,
      "note": 51,
      "start": 0.5834,
      "duration": 0.0976,
      "velocity": 94,
      "chip": "ym2612"
    },
    {
      "channel": 0,
      "note": 49,
      "start": 0.7005,
      "duration": 0.0781,
      "velocity": 88,
      "chip": "ym2612"
    },
    {
      "channel": 1,
      "note": 51,
      "start": 0.7027,
      "duration": 0.0957,
      "velocity": 94,
      "chip": "ym2612"
    },
    {
      "channel": 2,
      "note": 49,
      "start": 0.7032,
      "duration": 0.0563,
      "velocity": 93,
      "chip": "ym2612"
    },
    {
      "channel": 3,
      "note": 49,
      "start": 0.7208,
      "duration": 0.0585,
      "velocity": 93,
      "chip": "ym2612"
    },
    {
      "channel": 0,
      "note": 49,
      "start": 0.8179,
      "duration": 0.1955,
      "velocity": 88,
      "chip": "ym2612"
    },
    {
      "channel": 1,
      "note": 51,
      "start": 0.82,
      "duration": 0.0957,
      "velocity": 94,
      "chip": "ym2612"
    },
    {
      "channel": 2,
      "note": 49,
      "start": 0.8205,
      "duration": 0.0563,
      "velocity": 93,
      "chip": "ym2612"
    },
    {
      "channel": 3,
      "note": 49,
      "start": 0.8382,
      "duration": 0.0585,
      "velocity": 93,
      "chip": "ym2612"
    },
    {
      "channel": 1,
      "note": 51,
      "start": 0.9355,
      "duration": 0.0976,
      "velocity": 94,
      "chip": "ym2612"
    },
    {
      "channel": 0,
      "note": 49,
      "start": 1.0527,
      "duration": 0.078,
      "velocity": 88,
      "chip": "ym2612"
    },
    {
      "channel": 1,
      "note": 51,
      "start": 1.0548,
      "duration": 0.0957,
      "velocity": 94,
      "chip": "ym2612"
    },
    {
      "channel": 2,
      "note": 49,
      "start": 1.0553,
      "duration": 0.0563,
      "velocity": 93,
      "chip": "ym2612"
    },
    {
      "channel": 3,
      "note": 49,
      "start": 1.0729,
      "duration": 0.0585,
      "velocity": 93,
      "chip": "ym2612"
    },
    {
      "channel": 0,
      "note": 49,
      "start": 1.1701,
      "duration": 0.1954,
      "velocity": 88,
      "chip": "ym2612"
    },
    {
      "channel": 1,
      "note": 51,
      "start": 1.1722,
      "duration": 0.0957,
      "velocity": 94,
      "chip": "ym2612"
    },
    {
      "channel": 2,
      "note": 49,
      "start": 1.1727,
      "duration": 0.0562,
      "velocity": 93,
      "chip": "ym2612"
    },
    {
      "channel": 3,
      "note": 49,
      "start": 1.1903,
      "duration": 0.0585,
      "velocity": 93,
      "chip": "ym2612"
    },
    {
      "channel": 1,
      "note": 51,
      "start": 1.2876,
      "duration": 0.0976,
      "velocity": 94,
      "chip": "ym2612"
    },
    {
      "channel": 0,
      "note": 49,
      "start": 1.4048,
      "duration": 0.1954,
      "velocity": 88,
      "chip": "ym2612"
    },
    {
      "channel": 1,
      "note": 51,
      "start": 1.4069,
      "duration": 0.0957,
      "velocity": 94,
      "chip": "ym2612"
    },
    {
      "channel": 2,
      "note": 49,
      "start": 1.4074,
      "duration": 0.0564,
      "velocity": 93,
      "chip": "ym2612"
    },
    {
      "channel": 3,
      "note": 49,
      "start": 1.4251,
      "duration": 0.0585,
      "velocity": 93,
      "chip": "ym2612"
    },
    {
      "channel": 1,
      "note": 51,
      "start": 1.524,
      "duration": 0.096,
      "velocity": 94,
      "chip": "ym2612"
    },
    {
      "channel": 0,
      "note": 49,
      "start": 1.6395,
      "duration": 0.1954,
      "velocity": 88,
      "chip": "ym2612"
    },
    {
      "channel": 1,
      "note": 51,
      "start": 1.64,
      "duration": 0.0974,
      "velocity": 94,
      "chip": "ym2612"
    },
    {
      "channel": 2,
      "note": 49,
      "start": 1.6405,
      "duration": 0.058,
      "velocity": 93,
      "chip": "ym2612"
    },
    {
      "channel": 3,
      "note": 49,
      "start": 1.6598,
      "duration": 0.0585,
      "velocity": 93,
      "chip": "ym2612"
    },
    {
      "channel": 1,
      "note": 51,
      "start": 1.7571,
      "duration": 0.0977,
      "velocity": 94,
      "chip": "ym2612"
    },
    {
      "channel": 0,
      "note": 49,
      "start": 1.8779,
      "duration": 0.0744,
      "velocity": 88,
      "chip": "ym2612"
    },
    {
      "channel": 1,
      "note": 51,
      "start": 1.882,
      "duration": 0.0901,
      "velocity": 94,
      "chip": "ym2612"
    },
    {
      "channel": 2,
      "note": 49,
      "start": 1.8863,
      "duration": 0.0469,
      "velocity": 93,
      "chip": "ym2612"
    },
    {
      "channel": 3,
      "note": 49,
      "start": 1.8948,
      "duration": 0.0583,
      "velocity": 93,
      "chip": "ym2612"
    },
    {
      "channel": 0,
      "note": 49,
      "start": 1.9917,
      "duration": 0.1955,
      "velocity": 88,
      "chip": "ym2612"
    },
    {
      "channel": 1,
      "note": 51,
      "start": 1.9937,
      "duration": 0.0957,
      "velocity": 94,
      "chip": "ym2612"
    },
    {
      "channel": 2,
      "note": 49,
      "start": 1.9943,
      "duration": 0.0563,
      "velocity": 93,
      "chip": "ym2612"
    },
    {
      "channel": 4,
      "note": 82,
      "start": 1.9978,
      "duration": 0.0926,
      "velocity": 83,
      "chip": "ym2612"
    },
    {
      "channel": 3,
      "note": 49,
      "start": 2.012,
      "duration": 0.0585,
      "velocity": 93,
      "chip": "ym2612"
    },
    {
      "channel": 1,
      "note": 51,
      "start": 2.1092,
      "duration": 0.0976,
      "velocity": 94,
      "chip": "ym2612"
    },
    {
      "channel": 4,
      "note": 85,
      "start": 2.1104,
      "duration": 0.0972,
      "velocity": 83,
      "chip": "ym2612"
    },
    {
      "channel": 0,
      "note": 49,
      "start": 2.2264,
      "duration": 0.0781,
      "velocity": 88,
      "chip": "ym2612"
    },
    {
      "channel": 1,
      "note": 51,
      "start": 2.2285,
      "duration": 0.0957,
      "velocity": 94,
      "chip": "ym2612"
    },
    {
      "channel": 2,
      "note": 49,
      "start": 2.229,
      "duration": 0.0564,
      "velocity": 93,
      "chip": "ym2612"
    },
    {
      "channel": 4,
      "note": 83,
      "start": 2.2299,
      "duration": 0.0951,
      "velocity": 83,
      "chip": "ym2612"
    },
    {
      "channel": 3,
      "note": 49,
      "start": 2.2467,
      "duration": 0.0585,
      "velocity": 93,
      "chip": "ym2612"
    },
    {
      "channel": 0,
      "note": 49,
      "start": 2.3438,
      "duration": 0.1954,
      "velocity": 88,
      "chip": "ym2612"
    },
    {
      "channel": 1,
      "note": 51,
      "start": 2.3459,
      "duration": 0.0957,
      "velocity": 94,
      "chip": "ym2612"
    },
    {
      "channel": 2,
      "note": 49,
      "start": 2.3464,
      "duration": 0.0563,
      "velocity": 93,
      "chip": "ym2612"
    },
    {
      "channel": 4,
      "note": 80,
      "start": 2.3499,
      "duration": 0.0925,
      "velocity": 83,
      "chip": "ym2612"
    },
    {
      "channel": 3,
      "note": 49,
      "start": 2.3642,
      "duration": 0.0583,
      "velocity": 93,
      "chip": "ym2612"
    },
    {
      "channel": 1,
      "note": 51,
      "start": 2.4614,
      "duration": 0.0976,
      "velocity": 94,
      "chip": "ym2612"
    },
    {
      "channel": 4,
      "note": 85,
      "start": 2.4626,
      "duration": 0.0972,
      "velocity": 83,
      "chip": "ym2612"
    },
    {
      "channel": 0,
      "note": 49,
      "start": 2.5785,
      "duration": 0.078,
      "velocity": 88,
      "chip": "ym2612"
    },
    {
      "channel": 1,
      "note": 51,
      "start": 2.5807,
      "duration": 0.0957,
      "velocity": 94,
      "chip": "ym2612"
    },
    {
      "channel": 2,
      "note": 49,
      "start": 2.5812,
      "duration": 0.0562,
      "velocity": 93,
      "chip": "ym2612"
    },
    {
      "channel": 4,
      "note": 83,
      "start": 2.5821,
      "duration": 0.095,
      "velocity": 83,
      "chip": "ym2612"
    },
    {
      "channel": 3,
      "note": 49,
      "start": 2.5988,
      "duration": 0.0585,
      "velocity": 93,
      "chip": "ym2612"
    },
    {
      "channel": 0,
      "note": 49,
      "start": 2.6959,
      "duration": 0.1954,
      "velocity": 88,
      "chip": "ym2612"
    },
    {
      "channel": 1,
      "note": 51,
      "start": 2.6981,
      "duration": 0.0957,
      "velocity": 94,
      "chip": "ym2612"
    },
    {
      "channel": 2,
      "note": 49,
      "start": 2.6986,
      "duration": 0.0562,
      "velocity": 93,
      "chip": "ym2612"
    },
    {
      "channel": 4,
      "note": 80,
      "start": 2.702,
      "duration": 0.0925,
      "velocity": 83,
      "chip": "ym2612"
    },
    {
      "channel": 3,
      "note": 49,
      "start": 2.7162,
      "duration": 0.0585,
      "velocity": 93,
      "chip": "ym2612"
    },
    {
      "channel": 1,
      "note": 51,
      "start": 2.8135,
      "duration": 0.0976,
      "velocity": 94,
      "chip": "ym2612"
    },
    {
      "channel": 4,
      "note": 85,
      "start": 2.8147,
      "duration": 0.0971,
      "velocity": 83,
      "chip": "ym2612"
    },
    {
      "channel": 0,
      "note": 49,
      "start": 2.9306,
      "duration": 0.0781,
      "velocity": 88,
      "chip": "ym2612"
    },
    {
      "channel": 1,
      "note": 51,
      "start": 2.9327,
      "duration": 0.0957,
      "velocity": 94,
      "chip": "ym2612"
    },
    {
      "channel": 2,
      "note": 49,
      "start": 2.9332,
      "duration": 0.0563,
      "velocity": 93,
      "chip": "ym2612"
    },
    {
      "channel": 4,
      "note": 83,
      "start": 2.9341,
      "duration": 0.0951,
      "velocity": 83,
      "chip": "ym2612"
    },
    {
      "channel": 3,
      "note": 49,
      "start": 2.9509,
      "duration": 0.0585,
      "velocity": 93,
      "chip": "ym2612"
    },
    {
      "channel": 0,
      "note": 49,
      "start": 3.048,
      "duration": 0.1954,
      "velocity": 88,
      "chip": "ym2612"
    },
    {
      "channel": 1,
      "note": 51,
      "start": 3.0501,
      "duration": 0.0957,
      "velocity": 94,
      "chip": "ym2612"
    },
    {
      "channel": 2,
      "note": 49,
      "start": 3.0506,
      "duration": 0.0563,
      "velocity": 93,
      "chip": "ym2612"
    },
    {
      "channel": 4,
      "note": 80,
      "start": 3.0541,
      "duration": 0.0926,
      "velocity": 83,
      "chip": "ym2612"
    },
    {
      "channel": 3,
      "note": 49,
      "start": 3.0683,
      "duration": 0.0585,
      "velocity": 93,
      "chip": "ym2612"
    },
    {
      "channel": 1,
      "note": 51,
      "start": 3.1656,
      "duration": 0.0977,
      "velocity": 94,
      "chip": "ym2612"
    },
    {
      "channel": 4,
      "note": 85,
      "start": 3.1668,
      "duration": 0.0973,
      "velocity": 83,
      "chip": "ym2612"
    },
    {
      "channel": 0,
      "note": 49,
      "start": 3.2827,
      "duration": 0.1954,
      "velocity": 88,
      "chip": "ym2612"
    },
    {
      "channel": 1,
      "note": 51,
      "start": 3.2849,
      "duration": 0.0957,
      "velocity": 94,
      "chip": "ym2612"
    },
    {
      "channel": 2,
      "note": 49,
      "start": 3.2854,
      "duration": 0.0563,
      "velocity": 93,
      "chip": "ym2612"
    },
    {
      "channel": 4,
      "note": 83,
      "start": 3.2862,
      "duration": 0.0951,
      "velocity": 83,
      "chip": "ym2612"
    },
    {
      "channel": 3,
      "note": 49,
      "start": 3.303,
      "duration": 0.0585,
      "velocity": 93,
      "chip": "ym2612"
    },
    {
      "channel": 1,
      "note": 51,
      "start": 3.402,
      "duration": 0.096,
      "velocity": 94,
      "chip": "ym2612"
    },
    {
      "channel": 4,
      "note": 80,
      "start": 3.4056,
      "duration": 0.0931,
      "velocity": 83,
      "chip": "ym2612"
    },
    {
      "channel": 0,
      "note": 49,
      "start": 3.5175,
      "duration": 0.1954,
      "velocity": 88,
      "chip": "ym2612"
    },
    {
      "channel": 1,
      "note": 51,
      "start": 3.518,
      "duration": 0.0973,
      "velocity": 94,
      "chip": "ym2612"
    },
    {
      "channel": 2,
      "note": 49,
      "start": 3.5185,
      "duration": 0.0579,
      "velocity": 93,
      "chip": "ym2612"
    },
    {
      "channel": 4,
      "note": 85,
      "start": 3.5194,
      "duration": 0.0968,
      "velocity": 83,
      "chip": "ym2612"
    },
    {
      "channel": 3,
      "note": 49,
      "start": 3.5378,
      "duration": 0.0585,
      "velocity": 93,
      "chip": "ym2612"
    },
    {
      "channel": 1,
      "note": 51,
      "start": 3.6351,
      "duration": 0.0976,
      "velocity": 94,
      "chip": "ym2612"
    },
    {
      "channel": 4,
      "note": 83,
      "start": 3.6363,
      "duration": 0.0972,
      "velocity": 83,
      "chip": "ym2612"
    },
    {
      "channel": 0,
      "note": 49,
      "start": 3.7558,
      "duration": 0.0745,
      "velocity": 88,
      "chip": "ym2612"
    },
    {
      "channel": 1,
      "note": 51,
      "start": 3.7599,
      "duration": 0.0901,
      "velocity": 94,
      "chip": "ym2612"
    },
    {
      "channel": 2,
      "note": 49,
      "start": 3.7642,
      "duration": 0.0469,
      "velocity": 93,
      "chip": "ym2612"
    },
    {
      "channel": 3,
      "note": 49,
      "start": 3.7727,
      "duration": 0.0584,
      "velocity": 93,
      "chip": "ym2612"
    },
    {
      "channel": 0,
      "note": 49,
      "start": 3.8696,
      "duration": 0.1954,
      "velocity": 88,
      "chip": "ym2612"
    },
    {
      "channel": 1,
      "note": 51,
      "start": 3.8717,
      "duration": 0.0957,
      "velocity": 94,
      "chip": "ym2612"
    },
    {
      "channel": 2,
      "note": 49,
      "start": 3.8722,
      "duration": 0.0563,
      "velocity": 93,
      "chip": "ym2612"
    },
    {
      "channel": 3,
      "note": 49,
      "start": 3.8899,
      "duration": 0.0585,
      "velocity": 93,
      "chip": "ym2612"
    },
    {
      "channel": 1,
      "note": 51,
      "start": 3.9872,
      "duration": 0.0976,
      "velocity": 94,
      "chip": "ym2612"
    },
    {
      "channel": 0,
      "note": 49,
      "start": 4.1044,
      "duration": 0.078,
      "velocity": 88,
      "chip": "ym2612"
    },
    {
      "channel": 1,
      "note": 51,
      "start": 4.1065,
      "duration": 0.0957,
      "velocity": 94,
      "chip": "ym2612"
    },
    {
      "channel": 2,
      "note": 49,
      "start": 4.107,
      "duration": 0.0563,
      "velocity": 93,
      "chip": "ym2612"
    },
    {
      "channel": 3,
      "note": 49,
      "start": 4.1247,
      "duration": 0.0585,
      "velocity": 93,
      "chip": "ym2612"
    },
    {
      "channel": 0,
      "note": 49,
      "start": 4.2217,
      "duration": 0.1954,
      "velocity": 88,
      "chip": "ym2612"
    },
    {
      "channel": 1,
      "note": 51,
      "start": 4.2238,
      "duration": 0.0957,
      "velocity": 94,
      "chip": "ym2612"
    },
    {
      "channel": 2,
      "note": 49,
      "start": 4.2244,
      "duration": 0.0563,
      "velocity": 93,
      "chip": "ym2612"
    },
    {
      "channel": 3,
      "note": 49,
      "start": 4.242,
      "duration": 0.0585,
      "velocity": 93,
      "chip": "ym2612"
    },
    {
      "channel": 1,
      "note": 51,
      "start": 4.3393,
      "duration": 0.0976,
      "velocity": 94,
      "chip": "ym2612"
    },
    {
      "channel": 0,
      "note": 49,
      "start": 4.4565,
      "duration": 0.078,
      "velocity": 88,
      "chip": "ym2612"
    },
    {
      "channel": 1,
      "note": 51,
      "start": 4.4586,
      "duration": 0.0957,
      "velocity": 94,
      "chip": "ym2612"
    },
    {
      "channel": 2,
      "note": 49,
      "start": 4.4591,
      "duration": 0.0564,
      "velocity": 93,
      "chip": "ym2612"
    },
    {
      "channel": 3,
      "note": 49,
      "start": 4.4768,
      "duration": 0.0585,
      "velocity": 93,
      "chip": "ym2612"
    },
    {
      "channel": 0,
      "note": 49,
      "start": 4.5738,
      "duration": 0.1954,
      "velocity": 88,
      "chip": "ym2612"
    },
    {
      "channel": 1,
      "note": 51,
      "start": 4.5759,
      "duration": 0.0957,
      "velocity": 94,
      "chip": "ym2612"
    },
    {
      "channel": 2,
      "note": 49,
      "start": 4.5764,
      "duration": 0.0564,
      "velocity": 93,
      "chip": "ym2612"
    },
    {
      "channel": 3,
      "note": 49,
      "start": 4.5941,
      "duration": 0.0585,
      "velocity": 93,
      "chip": "ym2612"
    },
    {
      "channel": 1,
      "note": 51,
      "start": 4.6914,
      "duration": 0.0977,
      "velocity": 94,
      "chip": "ym2612"
    },
    {
      "channel": 0,
      "note": 49,
      "start": 4.8086,
      "duration": 0.0781,
      "velocity": 88,
      "chip": "ym2612"
    },
    {
      "channel": 1,
      "note": 51,
      "start": 4.8107,
      "duration": 0.0958,
      "velocity": 94,
      "chip": "ym2612"
    },
    {
      "channel": 2,
      "note": 49,
      "start": 4.8112,
      "duration": 0.0563,
      "velocity": 93,
      "chip": "ym2612"
    },
    {
      "channel": 3,
      "note": 49,
      "start": 4.8289,
      "duration": 0.0585,
      "velocity": 93,
      "chip": "ym2612"
    },
    {
      "channel": 0,
      "note": 49,
      "start": 4.926,
      "duration": 0.1954,
      "velocity": 88,
      "chip": "ym2612"
    },
    {
      "channel": 1,
      "note": 51,
      "start": 4.9281,
      "duration": 0.0957,
      "velocity": 94,
      "chip": "ym2612"
    },
    {
      "channel": 2,
      "note": 49,
      "start": 4.9286,
      "duration": 0.0563,
      "velocity": 93,
      "chip": "ym2612"
    },
    {
      "channel": 3,
      "note": 49,
      "start": 4.9462,
      "duration": 0.0585,
      "velocity": 93,
      "chip": "ym2612"
    },
    {
      "channel": 1,
      "note": 51,
      "start": 5.0436,
      "duration": 0.0976,
      "velocity": 94,
      "chip": "ym2612"
    },
    {
      "channel": 0,
      "note": 49,
      "start": 5.1607,
      "duration": 0.1954,
      "velocity": 88,
      "chip": "ym2612"
    },
    {
      "channel": 1,
      "note": 51,
      "start": 5.1628,
      "duration": 0.0957,
      "velocity": 94,
      "chip": "ym2612"
    },
    {
      "channel": 2,
      "note": 49,
      "start": 5.1633,
      "duration": 0.0563,
      "velocity": 93,
      "chip": "ym2612"
    },
    {
      "channel": 3,
      "note": 49,
      "start": 5.1811,
      "duration": 0.0584,
      "velocity": 93,
      "chip": "ym2612"
    },
    {
      "channel": 1,
      "note": 51,
      "start": 5.28,
      "duration": 0.0959,
      "velocity": 94,
      "chip": "ym2612"
    },
    {
      "channel": 0,
      "note": 49,
      "start": 5.3955,
      "duration": 0.1954,
      "velocity": 88,
      "chip": "ym2612"
    },
    {
      "channel": 1,
      "note": 51,
      "start": 5.396,
      "duration": 0.0973,
      "velocity": 94,
      "chip": "ym2612"
    },
    {
      "channel": 2,
      "note": 49,
      "start": 5.3965,
      "duration": 0.0579,
      "velocity": 93,
      "chip": "ym2612"
    },
    {
      "channel": 3,
      "note": 49,
      "start": 5.4158,
      "duration": 0.0585,
      "velocity": 93,
      "chip": "ym2612"
    },
    {
      "channel": 1,
      "note": 51,
      "start": 5.513,
      "duration": 0.0976,
      "velocity": 94,
      "chip": "ym2612"
    },
    {
      "channel": 0,
      "note": 49,
      "start": 5.6304,
      "duration": 0.0155,
      "velocity": 88,
      "chip": "ym2612"
    },
    {
      "channel": 1,
      "note": 51,
      "start": 5.6345,
      "duration": 0.0141,
      "velocity": 94,
      "chip": "ym2612"
    },
    {
      "channel": 2,
      "note": 49,
      "start": 5.6351,
      "duration": 0.0087,
      "velocity": 93,
      "chip": "ym2612"
    },
    {
      "channel": 3,
      "note": 49,
      "start": 5.639,
      "duration": 0.0077,
      "velocity": 93,
      "chip": "ym2612"
    },
    {
      "channel": 0,
      "note": 49,
      "start": 5.6511,
      "duration": 0.0279,
      "velocity": 88,
      "chip": "ym2612"
    },
    {
      "channel": 1,
      "note": 51,
      "start": 5.6532,
      "duration": 0.0132,
      "velocity": 94,
      "chip": "ym2612"
    },
    {
      "channel": 2,
      "note": 49,
      "start": 5.6537,
      "duration": 0.008,
      "velocity": 93,
      "chip": "ym2612"
    },
    {
      "channel": 3,
      "note": 49,
      "start": 5.657,
      "duration": 0.0074,
      "velocity": 93,
      "chip": "ym2612"
    },
    {
      "channel": 1,
      "note": 51,
      "start": 5.6692,
      "duration": 0.0124,
      "velocity": 94,
      "chip": "ym2612"
    },
    {
      "channel": 0,
      "note": 49,
      "start": 5.6841,
      "duration": 0.0128,
      "velocity": 88,
      "chip": "ym2612"
    },
    {
      "channel": 1,
      "note": 51,
      "start": 5.6862,
      "duration": 0.0135,
      "velocity": 94,
      "chip": "ym2612"
    },
    {
      "channel": 2,
      "note": 49,
      "start": 5.6867,
      "duration": 0.0081,
      "velocity": 93,
      "chip": "ym2612"
    },
    {
      "channel": 3,
      "note": 49,
      "start": 5.6902,
      "duration": 0.0075,
      "velocity": 93,
      "chip": "ym2612"
    },
    {
      "channel": 0,
      "note": 49,
      "start": 5.703,
      "duration": 0.0282,
      "velocity": 88,
      "chip": "ym2612"
    },
    {
      "channel": 1,
      "note": 51,
      "start": 5.7051,
      "duration": 0.0134,
      "velocity": 94,
      "chip": "ym2612"
    },
    {
      "channel": 2,
      "note": 49,
      "start": 5.7056,
      "duration": 0.0081,
      "velocity": 93,
      "chip": "ym2612"
    },
    {
      "channel": 3,
      "note": 49,
      "start": 5.709,
      "duration": 0.0075,
      "velocity": 93,
      "chip": "ym2612"
    },
    {
      "channel": 1,
      "note": 51,
      "start": 5.7212,
      "duration": 0.0129,
      "velocity": 94,
      "chip": "ym2612"
    },
    {
      "channel": 0,
      "note": 49,
      "start": 5.737,
      "duration": 0.0127,
      "velocity": 88,
      "chip": "ym2612"
    },
    {
      "channel": 1,
      "note": 51,
      "start": 5.7391,
      "duration": 0.0135,
      "velocity": 94,
      "chip": "ym2612"
    },
    {
      "channel": 2,
      "note": 49,
      "start": 5.7396,
      "duration": 0.0081,
      "velocity": 93,
      "chip": "ym2612"
    },
    {
      "channel": 3,
      "note": 49,
      "start": 5.7431,
      "duration": 0.0074,
      "velocity": 93,
      "chip": "ym2612"
    },
    {
      "channel": 0,
      "note": 49,
      "start": 5.7564,
      "duration": 0.0282,
      "velocity": 88,
      "chip": "ym2612"
    },
    {
      "channel": 1,
      "note": 51,
      "start": 5.7585,
      "duration": 0.0136,
      "velocity": 94,
      "chip": "ym2612"
    },
    {
      "channel": 2,
      "note": 49,
      "start": 5.759,
      "duration": 0.0082,
      "velocity": 93,
      "chip": "ym2612"
    },
    {
      "channel": 3,
      "note": 49,
      "start": 5.7624,
      "duration": 0.0076,
      "velocity": 93,
      "chip": "ym2612"
    },
    {
      "channel": 1,
      "note": 51,
      "start": 5.7748,
      "duration": 0.0127,
      "velocity": 94,
      "chip": "ym2612"
    },
    {
      "channel": 0,
      "note": 49,
      "start": 5.791,
      "duration": 0.0132,
      "velocity": 88,
      "chip": "ym2612"
    },
    {
      "channel": 1,
      "note": 51,
      "start": 5.7931,
      "duration": 0.0139,
      "velocity": 94,
      "chip": "ym2612"
    },
    {
      "channel": 2,
      "note": 49,
      "start": 5.7936,
      "duration": 0.0082,
      "velocity": 93,
      "chip": "ym2612"
    },
    {
      "channel": 3,
      "note": 49,
      "start": 5.7971,
      "duration": 0.0079,
      "velocity": 93,
      "chip": "ym2612"
    },
    {
      "channel": 0,
      "note": 61,
      "start": 5.8094,
      "duration": 0.013,
      "velocity": 88,
      "chip": "ym2612"
    },
    {
      "channel": 1,
      "note": 51,
      "start": 5.8115,
      "duration": 0.0136,
      "velocity": 94,
      "chip": "ym2612"
    },
    {
      "channel": 2,
      "note": 61,
      "start": 5.812,
      "duration": 0.0081,
      "velocity": 93,
      "chip": "ym2612"
    },
    {
      "channel": 3,
      "note": 49,
      "start": 5.8154,
      "duration": 0.0078,
      "velocity": 93,
      "chip": "ym2612"
    },
    {
      "channel": 0,
      "note": 49,
      "start": 5.8283,
      "duration": 0.0112,
      "velocity": 88,
      "chip": "ym2612"
    },
    {
      "channel": 1,
      "note": 51,
      "start": 5.8287,
      "duration": 0.0135,
      "velocity": 94,
      "chip": "ym2612"
    },
    {
      "channel": 2,
      "note": 49,
      "start": 5.8292,
      "duration": 0.0083,
      "velocity": 93,
      "chip": "ym2612"
    },
    {
      "channel": 3,
      "note": 61,
      "start": 5.8327,
      "duration": 0.0075,
      "velocity": 93,
      "chip": "ym2612"
    },
    {
      "channel": 0,
      "note": 59,
      "start": 5.8453,
      "duration": 0.0129,
      "velocity": 88,
      "chip": "ym2612"
    },
    {
      "channel": 1,
      "note": 51,
      "start": 5.8474,
      "duration": 0.0135,
      "velocity": 94,
      "chip": "ym2612"
    },
    {
      "channel": 2,
      "note": 59,
      "start": 5.8479,
      "duration": 0.0082,
      "velocity": 93,
      "chip": "ym2612"
    },
    {
      "channel": 3,
      "note": 49,
      "start": 5.8513,
      "duration": 0.0077,
      "velocity": 93,
      "chip": "ym2612"
    },
    {
      "channel": 0,
      "note": 49,
      "start": 5.8643,
      "duration": 0.013,
      "velocity": 88,
      "chip": "ym2612"
    },
    {
      "channel": 1,
      "note": 51,
      "start": 5.8664,
      "duration": 0.0136,
      "velocity": 94,
      "chip": "ym2612"
    },
    {
      "channel": 2,
      "note": 49,
      "start": 5.8669,
      "duration": 0.0082,
      "velocity": 93,
      "chip": "ym2612"
    },
    {
      "channel": 3,
      "note": 59,
      "start": 5.8704,
      "duration": 0.0076,
      "velocity": 93,
      "chip": "ym2612"
    },
    {
      "channel": 0,
      "note": 58,
      "start": 5.8837,
      "duration": 0.0117,
      "velocity": 88,
      "chip": "ym2612"
    },
    {
      "channel": 1,
      "note": 51,
      "start": 5.8842,
      "duration": 0.014,
      "velocity": 94,
      "chip": "ym2612"
    },
    {
      "channel": 2,
      "note": 58,
      "start": 5.8847,
      "duration": 0.0088,
      "velocity": 93,
      "chip": "ym2612"
    },
    {
      "channel": 3,
      "note": 49,
      "start": 5.8886,
      "duration": 0.0076,
      "velocity": 93,
      "chip": "ym2612"
    },
    {
      "channel": 0,
      "note": 56,
      "start": 5.9006,
      "duration": 0.0114,
      "velocity": 88,
      "chip": "ym2612"
    },
    {
      "channel": 1,
      "note": 51,
      "start": 5.9011,
      "duration": 0.0136,
      "velocity": 94,
      "chip": "ym2612"
    },
    {
      "channel": 2,
      "note": 56,
      "start": 5.9016,
      "duration": 0.0082,
      "velocity": 93,
      "chip": "ym2612"
    },
    {
      "channel": 3,
      "note": 58,
      "start": 5.905,
      "duration": 0.0052,
      "velocity": 93,
      "chip": "ym2612"
    },
    {
      "channel": 0,
      "note": 49,
      "start": 5.9187,
      "duration": 0.0313,
      "velocity": 88,
      "chip": "ym2612"
    },
    {
      "channel": 1,
      "note": 51,
      "start": 5.9231,
      "duration": 0.0302,
      "velocity": 94,
      "chip": "ym2612"
    },
    {
      "channel": 2,
      "note": 49,
      "start": 5.9273,
      "duration": 0.0207,
      "velocity": 93,
      "chip": "ym2612"
    },
    {
      "channel": 3,
      "note": 56,
      "start": 5.9377,
      "duration": 0.0131,
      "velocity": 93,
      "chip": "ym2612"
    },
    {
      "channel": 4,
      "note": 80,
      "start": 5.9461,
      "duration": 0.0079,
      "velocity": 93,
      "chip": "ym2612"
    },
    {
      "channel": 0,
      "note": 49,
      "start": 5.9557,
      "duration": 0.1212,
      "velocity": 88,
      "chip": "ym2612"
    },
    {
      "channel": 1,
      "note": 51,
      "start": 5.9578,
      "duration": 0.0214,
      "velocity": 94,
      "chip": "ym2612"
    },
    {
      "channel": 2,
      "note": 49,
      "start": 5.9583,
      "duration": 0.0083,
      "velocity": 93,
      "chip": "ym2612"
    },
    {
      "channel": 3,
      "note": 49,
      "start": 5.9616,
      "duration": 0.0077,
      "velocity": 93,
      "chip": "ym2612"
    },
    {
      "channel": 4,
      "note": 49,
      "start": 5.9647,
      "duration": 0.0154,
      "velocity": 93,
      "chip": "ym2612"
    },
    {
      "channel": 1,
      "note": 51,
      "start": 5.999,
      "duration": 0.0976,
      "velocity": 94,
      "chip": "ym2612"
    },
    {
      "channel": 0,
      "note": 49,
      "start": 6.1162,
      "duration": 0.078,
      "velocity": 88,
      "chip": "ym2612"
    },
    {
      "channel": 1,
      "note": 51,
      "start": 6.1183,
      "duration": 0.0957,
      "velocity": 94,
      "chip": "ym2612"
    },
    {
      "channel": 2,
      "note": 49,
      "start": 6.1188,
      "duration": 0.0563,
      "velocity": 93,
      "chip": "ym2612"
    },
    {
      "channel": 3,
      "note": 49,
      "start": 6.1366,
      "duration": 0.0584,
      "velocity": 93,
      "chip": "ym2612"
    },
    {
      "channel": 4,
      "note": 49,
      "start": 6.1564,
      "duration": 0.0585,
      "velocity": 93,
      "chip": "ym2612"
    },
    {
      "channel": 0,
      "note": 49,
      "start": 6.2336,
      "duration": 0.0411,
      "velocity": 88,
      "chip": "ym2612"
    },
    {
      "channel": 1,
      "note": 51,
      "start": 6.2357,
      "duration": 0.0143,
      "velocity": 94,
      "chip": "ym2612"
    },
    {
      "channel": 2,
      "note": 49,
      "start": 6.2363,
      "duration": 0.0085,
      "velocity": 93,
      "chip": "ym2612"
    },
    {
      "channel": 3,
      "note": 49,
      "start": 6.2398,
      "duration": 0.0077,
      "velocity": 93,
      "chip": "ym2612"
    },
    {
      "channel": 4,
      "note": 49,
      "start": 6.2428,
      "duration": 0.008,
      "velocity": 93,
      "chip": "ym2612"
    },
    {
      "channel": 1,
      "note": 51,
      "start": 6.2527,
      "duration": 0.0417,
      "velocity": 94,
      "chip": "ym2612"
    },
    {
      "channel": 0,
      "note": 49,
      "start": 6.314,
      "duration": 0.0136,
      "velocity": 88,
      "chip": "ym2612"
    },
    {
      "channel": 1,
      "note": 51,
      "start": 6.3162,
      "duration": 0.0147,
      "velocity": 94,
      "chip": "ym2612"
    },
    {
      "channel": 2,
      "note": 49,
      "start": 6.3167,
      "duration": 0.009,
      "velocity": 93,
      "chip": "ym2612"
    },
    {
      "channel": 3,
      "note": 49,
      "start": 6.3206,
      "duration": 0.0078,
      "velocity": 93,
      "chip": "ym2612"
    },
    {
      "channel": 4,
      "note": 49,
      "start": 6.3237,
      "duration": 0.008,
      "velocity": 93,
      "chip": "ym2612"
    },
    {
      "channel": 0,
      "note": 49,
      "start": 6.3333,
      "duration": 0.029,
      "velocity": 88,
      "chip": "ym2612"
    },
    {
      "channel": 1,
      "note": 51,
      "start": 6.3355,
      "duration": 0.0138,
      "velocity": 94,
      "chip": "ym2612"
    },
    {
      "channel": 2,
      "note": 49,
      "start": 6.336,
      "duration": 0.0081,
      "velocity": 93,
      "chip": "ym2612"
    },
    {
      "channel": 3,
      "note": 49,
      "start": 6.3392,
      "duration": 0.0076,
      "velocity": 93,
      "chip": "ym2612"
    },
    {
      "channel": 4,
      "note": 49,
      "start": 6.3422,
      "duration": 0.0079,
      "velocity": 93,
      "chip": "ym2612"
    },
    {
      "channel": 1,
      "note": 51,
      "start": 6.352,
      "duration": 0.0136,
      "velocity": 94,
      "chip": "ym2612"
    },
    {
      "channel": 0,
      "note": 49,
      "start": 6.3681,
      "duration": 0.0246,
      "velocity": 88,
      "chip": "ym2612"
    },
    {
      "channel": 1,
      "note": 51,
      "start": 6.3702,
      "duration": 0.0423,
      "velocity": 94,
      "chip": "ym2612"
    },
    {
      "channel": 2,
      "note": 49,
      "start": 6.3707,
      "duration": 0.0081,
      "velocity": 93,
      "chip": "ym2612"
    },
    {
      "channel": 3,
      "note": 49,
      "start": 6.3739,
      "duration": 0.0196,
      "velocity": 93,
      "chip": "ym2612"
    },
    {
      "channel": 4,
      "note": 49,
      "start": 6.3769,
      "duration": 0.0365,
      "velocity": 93,
      "chip": "ym2612"
    },
    {
      "channel": 0,
      "note": 49,
      "start": 6.4321,
      "duration": 0.1954,
      "velocity": 88,
      "chip": "ym2612"
    },
    {
      "channel": 1,
      "note": 51,
      "start": 6.4342,
      "duration": 0.0957,
      "velocity": 94,
      "chip": "ym2612"
    },
    {
      "channel": 2,
      "note": 49,
      "start": 6.4347,
      "duration": 0.0563,
      "velocity": 93,
      "chip": "ym2612"
    },
    {
      "channel": 3,
      "note": 49,
      "start": 6.4524,
      "duration": 0.0585,
      "velocity": 93,
      "chip": "ym2612"
    },
    {
      "channel": 4,
      "note": 49,
      "start": 6.4723,
      "duration": 0.0585,
      "velocity": 93,
      "chip": "ym2612"
    },
    {
      "channel": 1,
      "note": 51,
      "start": 6.5497,
      "duration": 0.0976,
      "velocity": 94,
      "chip": "ym2612"
    },
    {
      "channel": 0,
      "note": 49,
      "start": 6.6669,
      "duration": 0.041,
      "velocity": 88,
      "chip": "ym2612"
    },
    {
      "channel": 1,
      "note": 51,
      "start": 6.669,
      "duration": 0.0149,
      "velocity": 94,
      "chip": "ym2612"
    },
    {
      "channel": 2,
      "note": 49,
      "start": 6.6695,
      "duration": 0.0087,
      "velocity": 93,
      "chip": "ym2612"
    },
    {
      "channel": 3,
      "note": 49,
      "start": 6.6733,
      "duration": 0.0075,
      "velocity": 93,
      "chip": "ym2612"
    },
    {
      "channel": 4,
      "note": 49,
      "start": 6.6762,
      "duration": 0.0084,
      "velocity": 93,
      "chip": "ym2612"
    },
    {
      "channel": 1,
      "note": 51,
      "start": 6.6881,
      "duration": 0.0396,
      "velocity": 94,
      "chip": "ym2612"
    },
    {
      "channel": 0,
      "note": 49,
      "start": 6.7472,
      "duration": 0.0279,
      "velocity": 88,
      "chip": "ym2612"
    },
    {
      "channel": 1,
      "note": 51,
      "start": 6.7477,
      "duration": 0.0149,
      "velocity": 94,
      "chip": "ym2612"
    },
    {
      "channel": 2,
      "note": 49,
      "start": 6.7482,
      "duration": 0.0087,
      "velocity": 93,
      "chip": "ym2612"
    },
    {
      "channel": 3,
      "note": 49,
      "start": 6.752,
      "duration": 0.0076,
      "velocity": 93,
      "chip": "ym2612"
    },
    {
      "channel": 4,
      "note": 49,
      "start": 6.755,
      "duration": 0.0085,
      "velocity": 93,
      "chip": "ym2612"
    },
    {
      "channel": 1,
      "note": 51,
      "start": 6.7652,
      "duration": 0.0137,
      "velocity": 94,
      "chip": "ym2612"
    },
    {
      "channel": 0,
      "note": 49,
      "start": 6.7817,
      "duration": 0.0246,
      "velocity": 88,
      "chip": "ym2612"
    },
    {
      "channel": 1,
      "note": 51,
      "start": 6.7858,
      "duration": 0.0237,
      "velocity": 94,
      "chip": "ym2612"
    },
    {
      "channel": 2,
      "note": 49,
      "start": 6.7899,
      "duration": 0.0143,
      "velocity": 93,
      "chip": "ym2612"
    },
    {
      "channel": 3,
      "note": 49,
      "start": 6.7991,
      "duration": 0.0078,
      "velocity": 93,
      "chip": "ym2612"
    },
    {
      "channel": 4,
      "note": 49,
      "start": 6.8023,
      "duration": 0.008,
      "velocity": 93,
      "chip": "ym2612"
    },
    {
      "channel": 0,
      "note": 49,
      "start": 6.8119,
      "duration": 0.1281,
      "velocity": 88,
      "chip": "ym2612"
    },
    {
      "channel": 1,
      "note": 51,
      "start": 6.814,
      "duration": 0.0285,
      "velocity": 94,
      "chip": "ym2612"
    },
    {
      "channel": 2,
      "note": 49,
      "start": 6.8145,
      "duration": 0.0081,
      "velocity": 93,
      "chip": "ym2612"
    },
    {
      "channel": 3,
      "note": 49,
      "start": 6.8176,
      "duration": 0.0077,
      "velocity": 93,
      "chip": "ym2612"
    },
    {
      "channel": 4,
      "note": 49,
      "start": 6.8206,
      "duration": 0.0226,
      "velocity": 93,
      "chip": "ym2612"
    },
    {
      "channel": 1,
      "note": 51,
      "start": 6.8622,
      "duration": 0.0976,
      "velocity": 94,
      "chip": "ym2612"
    },
    {
      "channel": 0,
      "note": 49,
      "start": 6.9794,
      "duration": 0.078,
      "velocity": 88,
      "chip": "ym2612"
    },
    {
      "channel": 1,
      "note": 51,
      "start": 6.9815,
      "duration": 0.0957,
      "velocity": 94,
      "chip": "ym2612"
    },
    {
      "channel": 2,
      "note": 49,
      "start": 6.982,
      "duration": 0.0564,
      "velocity": 93,
      "chip": "ym2612"
    },
    {
      "channel": 3,
      "note": 49,
      "start": 6.9997,
      "duration": 0.0585,
      "velocity": 93,
      "chip": "ym2612"
    },
    {
      "channel": 4,
      "note": 49,
      "start": 7.0195,
      "duration": 0.0585,
      "velocity": 93,
      "chip": "ym2612"
    },
    {
      "channel": 0,
      "note": 49,
      "start": 7.0967,
      "duration": 0.0412,
      "velocity": 88,
      "chip": "ym2612"
    },
    {
      "channel": 1,
      "note": 51,
      "start": 7.0989,
      "duration": 0.0144,
      "velocity": 94,
      "chip": "ym2612"
    },
    {
      "channel": 2,
      "note": 49,
      "start": 7.0994,
      "duration": 0.0086,
      "velocity": 93,
      "chip": "ym2612"
    },
    {
      "channel": 3,
      "note": 49,
      "start": 7.103,
      "duration": 0.0078,
      "velocity": 93,
      "chip": "ym2612"
    },
    {
      "channel": 4,
      "note": 49,
      "start": 7.106,
      "duration": 0.008,
      "velocity": 93,
      "chip": "ym2612"
    },
    {
      "channel": 1,
      "note": 51,
      "start": 7.116,
      "duration": 0.0417,
      "velocity": 94,
      "chip": "ym2612"
    },
    {
      "channel": 0,
      "note": 49,
      "start": 7.1772,
      "duration": 0.0137,
      "velocity": 88,
      "chip": "ym2612"
    },
    {
      "channel": 1,
      "note": 51,
      "start": 7.1794,
      "duration": 0.0149,
      "velocity": 94,
      "chip": "ym2612"
    },
    {
      "channel": 2,
      "note": 49,
      "start": 7.1799,
      "duration": 0.009,
      "velocity": 93,
      "chip": "ym2612"
    },
    {
      "channel": 3,
      "note": 49,
      "start": 7.1839,
      "duration": 0.0077,
      "velocity": 93,
      "chip": "ym2612"
    },
    {
      "channel": 4,
      "note": 49,
      "start": 7.187,
      "duration": 0.008,
      "velocity": 93,
      "chip": "ym2612"
    },
    {
      "channel": 0,
      "note": 49,
      "start": 7.1966,
      "duration": 0.0291,
      "velocity": 88,
      "chip": "ym2612"
    },
    {
      "channel": 1,
      "note": 51,
      "start": 7.1988,
      "duration": 0.0138,
      "velocity": 94,
      "chip": "ym2612"
    },
    {
      "channel": 2,
      "note": 49,
      "start": 7.1993,
      "duration": 0.0082,
      "velocity": 93,
      "chip": "ym2612"
    },
    {
      "channel": 3,
      "note": 49,
      "start": 7.2024,
      "duration": 0.0077,
      "velocity": 93,
      "chip": "ym2612"
    },
    {
      "channel": 4,
      "note": 49,
      "start": 7.2055,
      "duration": 0.0079,
      "velocity": 93,
      "chip": "ym2612"
    },
    {
      "channel": 1,
      "note": 51,
      "start": 7.2154,
      "duration": 0.0137,
      "velocity": 94,
      "chip": "ym2612"
    },
    {
      "channel": 0,
      "note": 49,
      "start": 7.2315,
      "duration": 0.0249,
      "velocity": 88,
      "chip": "ym2612"
    },
    {
      "channel": 1,
      "note": 51,
      "start": 7.2337,
      "duration": 0.0425,
      "velocity": 94,
      "chip": "ym2612"
    },
    {
      "channel": 2,
      "note": 49,
      "start": 7.2341,
      "duration": 0.0083,
      "velocity": 93,
      "chip": "ym2612"
    },
    {
      "channel": 3,
      "note": 49,
      "start": 7.2373,
      "duration": 0.0198,
      "velocity": 93,
      "chip": "ym2612"
    },
    {
      "channel": 4,
      "note": 49,
      "start": 7.2404,
      "duration": 0.0365,
      "velocity": 93,
      "chip": "ym2612"
    },
    {
      "channel": 0,
      "note": 49,
      "start": 7.2957,
      "duration": 0.1954,
      "velocity": 88,
      "chip": "ym2612"
    },
    {
      "channel": 1,
      "note": 51,
      "start": 7.2978,
      "duration": 0.0957,
      "velocity": 94,
      "chip": "ym2612"
    },
    {
      "channel": 2,
      "note": 49,
      "start": 7.2983,
      "duration": 0.0563,
      "velocity": 93,
      "chip": "ym2612"
    },
    {
      "channel": 3,
      "note": 49,
      "start": 7.3161,
      "duration": 0.0584,
      "velocity": 93,
      "chip": "ym2612"
    },
    {
      "channel": 4,
      "note": 49,
      "start": 7.3358,
      "duration": 0.0585,
      "velocity": 93,
      "chip": "ym2612"
    },
    {
      "channel": 1,
      "note": 51,
      "start": 7.4132,
      "duration": 0.0976,
      "velocity": 94,
      "chip": "ym2612"
    },
    {
      "channel": 0,
      "note": 49,
      "start": 7.5304,
      "duration": 0.0409,
      "velocity": 88,
      "chip": "ym2612"
    },
    {
      "channel": 1,
      "note": 51,
      "start": 7.5325,
      "duration": 0.0149,
      "velocity": 94,
      "chip": "ym2612"
    },
    {
      "channel": 2,
      "note": 49,
      "start": 7.5331,
      "duration": 0.0086,
      "velocity": 93,
      "chip": "ym2612"
    },
    {
      "channel": 3,
      "note": 49,
      "start": 7.5369,
      "duration": 0.0075,
      "velocity": 93,
      "chip": "ym2612"
    },
    {
      "channel": 4,
      "note": 49,
      "start": 7.5398,
      "duration": 0.0084,
      "velocity": 93,
      "chip": "ym2612"
    },
    {
      "channel": 1,
      "note": 51,
      "start": 7.5517,
      "duration": 0.0393,
      "velocity": 94,
      "chip": "ym2612"
    },
    {
      "channel": 0,
      "note": 49,
      "start": 7.6106,
      "duration": 0.028,
      "velocity": 88,
      "chip": "ym2612"
    },
    {
      "channel": 1,
      "note": 51,
      "start": 7.6111,
      "duration": 0.0148,
      "velocity": 94,
      "chip": "ym2612"
    },
    {
      "channel": 2,
      "note": 49,
      "start": 7.6117,
      "duration": 0.0086,
      "velocity": 93,
      "chip": "ym2612"
    },
    {
      "channel": 3,
      "note": 49,
      "start": 7.6154,
      "duration": 0.0074,
      "velocity": 93,
      "chip": "ym2612"
    },
    {
      "channel": 4,
      "note": 49,
      "start": 7.6184,
      "duration": 0.0084,
      "velocity": 93,
      "chip": "ym2612"
    },
    {
      "channel": 1,
      "note": 51,
      "start": 7.6286,
      "duration": 0.0138,
      "velocity": 94,
      "chip": "ym2612"
    },
    {
      "channel": 0,
      "note": 49,
      "start": 7.6452,
      "duration": 0.0245,
      "velocity": 88,
      "chip": "ym2612"
    },
    {
      "channel": 1,
      "note": 51,
      "start": 7.6492,
      "duration": 0.0237,
      "velocity": 94,
      "chip": "ym2612"
    },
    {
      "channel": 2,
      "note": 49,
      "start": 7.6534,
      "duration": 0.0145,
      "velocity": 93,
      "chip": "ym2612"
    },
    {
      "channel": 3,
      "note": 49,
      "start": 7.6627,
      "duration": 0.0077,
      "velocity": 93,
      "chip": "ym2612"
    },
    {
      "channel": 4,
      "note": 49,
      "start": 7.6659,
      "duration": 0.0078,
      "velocity": 93,
      "chip": "ym2612"
    },
    {
      "channel": 0,
      "note": 49,
      "start": 7.6754,
      "duration": 0.1279,
      "velocity": 88,
      "chip": "ym2612"
    },
    {
      "channel": 1,
      "note": 51,
      "start": 7.6775,
      "duration": 0.0283,
      "velocity": 94,
      "chip": "ym2612"
    },
    {
      "channel": 2,
      "note": 49,
      "start": 7.678,
      "duration": 0.0081,
      "velocity": 93,
      "chip": "ym2612"
    },
    {
      "channel": 3,
      "note": 49,
      "start": 7.6811,
      "duration": 0.0076,
      "velocity": 93,
      "chip": "ym2612"
    },
    {
      "channel": 4,
      "note": 49,
      "start": 7.6841,
      "duration": 0.0225,
      "velocity": 93,
      "chip": "ym2612"
    },
    {
      "channel": 1,
      "note": 51,
      "start": 7.7255,
      "duration": 0.0976,
      "velocity": 94,
      "chip": "ym2612"
    },
    {
      "channel": 0,
      "note": 49,
      "start": 7.8427,
      "duration": 0.078,
      "velocity": 88,
      "chip": "ym2612"
    },
    {
      "channel": 1,
      "note": 51,
      "start": 7.8448,
      "duration": 0.0957,
      "velocity": 94,
      "chip": "ym2612"
    },
    {
      "channel": 2,
      "note": 49,
      "start": 7.8453,
      "duration": 0.0563,
      "velocity": 93,
      "chip": "ym2612"
    },
    {
      "channel": 3,
      "note": 49,
      "start": 7.863,
      "duration": 0.0585,
      "velocity": 93,
      "chip": "ym2612"
    },
    {
      "channel": 4,
      "note": 49,
      "start": 7.8828,
      "duration": 0.0585,
      "velocity": 93,
      "chip": "ym2612"
    },
    {
      "channel": 0,
      "note": 49,
      "start": 7.96,
      "duration": 0.0411,
      "velocity": 88,
      "chip": "ym2612"
    },
    {
      "channel": 1,
      "note": 51,
      "start": 7.9622,
      "duration": 0.0144,
      "velocity": 94,
      "chip": "ym2612"
    },
    {
      "channel": 2,
      "note": 49,
      "start": 7.9627,
      "duration": 0.0086,
      "velocity": 93,
      "chip": "ym2612"
    },
    {
      "channel": 3,
      "note": 49,
      "start": 7.9663,
      "duration": 0.0077,
      "velocity": 93,
      "chip": "ym2612"
    },
    {
      "channel": 4,
      "note": 49,
      "start": 7.9693,
      "duration": 0.008,
      "velocity": 93,
      "chip": "ym2612"
    },
    {
      "channel": 1,
      "note": 51,
      "start": 7.9793,
      "duration": 0.0417,
      "velocity": 94,
      "chip": "ym2612"
    },
    {
      "channel": 0,
      "note": 49,
      "start": 8.0405,
      "duration": 0.0136,
      "velocity": 88,
      "chip": "ym2612"
    },
    {
      "channel": 1,
      "note": 51,
      "start": 8.0426,
      "duration": 0.0149,
      "velocity": 94,
      "chip": "ym2612"
    },
    {
      "channel": 2,
      "note": 49,
      "start": 8.0431,
      "duration": 0.0091,
      "velocity": 93,
      "chip": "ym2612"
    },
    {
      "channel": 3,
      "note": 49,
      "start": 8.0471,
      "duration": 0.0078,
      "velocity": 93,
      "chip": "ym2612"
    },
    {
      "channel": 4,
      "note": 49,
      "start": 8.0502,
      "duration": 0.008,
      "velocity": 93,
      "chip": "ym2612"
    },
    {
      "channel": 0,
      "note": 49,
      "start": 8.0599,
      "duration": 0.0291,
      "velocity": 88,
      "chip": "ym2612"
    },
    {
      "channel": 1,
      "note": 51,
      "start": 8.062,
      "duration": 0.0138,
      "velocity": 94,
      "chip": "ym2612"
    },
    {
      "channel": 2,
      "note": 49,
      "start": 8.0625,
      "duration": 0.0082,
      "velocity": 93,
      "chip": "ym2612"
    },
    {
      "channel": 3,
      "note": 49,
      "start": 8.0657,
      "duration": 0.0076,
      "velocity": 93,
      "chip": "ym2612"
    },
    {
      "channel": 4,
      "note": 49,
      "start": 8.0687,
      "duration": 0.008,
      "velocity": 93,
      "chip": "ym2612"
    },
    {
      "channel": 1,
      "note": 51,
      "start": 8.0786,
      "duration": 0.0137,
      "velocity": 94,
      "chip": "ym2612"
    },
    {
      "channel": 0,
      "note": 49,
      "start": 8.0948,
      "duration": 0.0247,
      "velocity": 88,
      "chip": "ym2612"
    },
    {
      "channel": 1,
      "note": 51,
      "start": 8.0968,
      "duration": 0.0424,
      "velocity": 94,
      "chip": "ym2612"
    },
    {
      "channel": 2,
      "note": 49,
      "start": 8.0974,
      "duration": 0.008,
      "velocity": 93,
      "chip": "ym2612"
    },
    {
      "channel": 3,
      "note": 49,
      "start": 8.1005,
      "duration": 0.0197,
      "velocity": 93,
      "chip": "ym2612"
    },
    {
      "channel": 4,
      "note": 49,
      "start": 8.1035,
      "duration": 0.0365,
      "velocity": 93,
      "chip": "ym2612"
    },
    {
      "channel": 0,
      "note": 49,
      "start": 8.1588,
      "duration": 0.1954,
      "velocity": 88,
      "chip": "ym2612"
    },
    {
      "channel": 1,
      "note": 51,
      "start": 8.1608,
      "duration": 0.0957,
      "velocity": 94,
      "chip": "ym2612"
    },
    {
      "channel": 2,
      "note": 49,
      "start": 8.1614,
      "duration": 0.0563,
      "velocity": 93,
      "chip": "ym2612"
    },
    {
      "channel": 3,
      "note": 49,
      "start": 8.179,
      "duration": 0.0585,
      "velocity": 93,
      "chip": "ym2612"
    },
    {
      "channel": 4,
      "note": 49,
      "start": 8.199,
      "duration": 0.0585,
      "velocity": 93,
      "chip": "ym2612"
    },
    {
      "channel": 1,
      "note": 51,
      "start": 8.2764,
      "duration": 0.0976,
      "velocity": 94,
      "chip": "ym2612"
    },
    {
      "channel": 0,
      "note": 49,
      "start": 8.3935,
      "duration": 0.0411,
      "velocity": 88,
      "chip": "ym2612"
    },
    {
      "channel": 1,
      "note": 51,
      "start": 8.3956,
      "duration": 0.0149,
      "velocity": 94,
      "chip": "ym2612"
    },
    {
      "channel": 2,
      "note": 49,
      "start": 8.3961,
      "duration": 0.0087,
      "velocity": 93,
      "chip": "ym2612"
    },
    {
      "channel": 3,
      "note": 49,
      "start": 8.3999,
      "duration": 0.0076,
      "velocity": 93,
      "chip": "ym2612"
    },
    {
      "channel": 4,
      "note": 49,
      "start": 8.4029,
      "duration": 0.0084,
      "velocity": 93,
      "chip": "ym2612"
    },
    {
      "channel": 1,
      "note": 51,
      "start": 8.4148,
      "duration": 0.0396,
      "velocity": 94,
      "chip": "ym2612"
    },
    {
      "channel": 0,
      "note": 49,
      "start": 8.474,
      "duration": 0.028,
      "velocity": 88,
      "chip": "ym2612"
    },
    {
      "channel": 1,
      "note": 51,
      "start": 8.4745,
      "duration": 0.0149,
      "velocity": 94,
      "chip": "ym2612"
    },
    {
      "channel": 2,
      "note": 49,
      "start": 8.4749,
      "duration": 0.0088,
      "velocity": 93,
      "chip": "ym2612"
    },
    {
      "channel": 3,
      "note": 49,
      "start": 8.4787,
      "duration": 0.0076,
      "velocity": 93,
      "chip": "ym2612"
    },
    {
      "channel": 4,
      "note": 49,
      "start": 8.4818,
      "duration": 0.0085,
      "velocity": 93,
      "chip": "ym2612"
    },
    {
      "channel": 1,
      "note": 51,
      "start": 8.492,
      "duration": 0.0137,
      "velocity": 94,
      "chip": "ym2612"
    },
    {
      "channel": 0,
      "note": 49,
      "start": 8.5085,
      "duration": 0.0172,
      "velocity": 88,
      "chip": "ym2612"
    },
    {
      "channel": 1,
      "note": 51,
      "start": 8.5126,
      "duration": 0.0162,
      "velocity": 94,
      "chip": "ym2612"
    },
    {
      "channel": 2,
      "note": 49,
      "start": 8.5133,
      "duration": 0.0104,
      "velocity": 93,
      "chip": "ym2612"
    },
    {
      "channel": 3,
      "note": 49,
      "start": 8.5186,
      "duration": 0.0078,
      "velocity": 93,
      "chip": "ym2612"
    },
    {
      "channel": 4,
      "note": 49,
      "start": 8.5217,
      "duration": 0.008,
      "velocity": 93,
      "chip": "ym2612"
    },
    {
      "channel": 0,
      "note": 49,
      "start": 8.5313,
      "duration": 0.0288,
      "velocity": 88,
      "chip": "ym2612"
    },
    {
      "channel": 1,
      "note": 51,
      "start": 8.5334,
      "duration": 0.0142,
      "velocity": 94,
      "chip": "ym2612"
    },
    {
      "channel": 2,
      "note": 49,
      "start": 8.5339,
      "duration": 0.0086,
      "velocity": 93,
      "chip": "ym2612"
    },
    {
      "channel": 3,
      "note": 49,
      "start": 8.5376,
      "duration": 0.0076,
      "velocity": 93,
      "chip": "ym2612"
    },
    {
      "channel": 4,
      "note": 49,
      "start": 8.5406,
      "duration": 0.0078,
      "velocity": 93,
      "chip": "ym2612"
    },
    {
      "channel": 1,
      "note": 51,
      "start": 8.5503,
      "duration": 0.0131,
      "velocity": 94,
      "chip": "ym2612"
    },
    {
      "channel": 0,
      "note": 49,
      "start": 8.5658,
      "duration": 0.0131,
      "velocity": 88,
      "chip": "ym2612"
    },
    {
      "channel": 1,
      "note": 51,
      "start": 8.5679,
      "duration": 0.0142,
      "velocity": 94,
      "chip": "ym2612"
    },
    {
      "channel": 2,
      "note": 49,
      "start": 8.5685,
      "duration": 0.0085,
      "velocity": 93,
      "chip": "ym2612"
    },
    {
      "channel": 3,
      "note": 49,
      "start": 8.5719,
      "duration": 0.0077,
      "velocity": 93,
      "chip": "ym2612"
    },
    {
      "channel": 4,
      "note": 49,
      "start": 8.5749,
      "duration": 0.008,
      "velocity": 93,
      "chip": "ym2612"
    },
    {
      "channel": 0,
      "note": 49,
      "start": 8.5846,
      "duration": 0.0413,
      "velocity": 88,
      "chip": "ym2612"
    },
    {
      "channel": 1,
      "note": 51,
      "start": 8.5867,
      "duration": 0.0145,
      "velocity": 94,
      "chip": "ym2612"
    },
    {
      "channel": 2,
      "note": 49,
      "start": 8.5872,
      "duration": 0.0088,
      "velocity": 93,
      "chip": "ym2612"
    },
    {
      "channel": 3,
      "note": 49,
      "start": 8.591,
      "duration": 0.0078,
      "velocity": 93,
      "chip": "ym2612"
    },
    {
      "channel": 4,
      "note": 49,
      "start": 8.594,
      "duration": 0.008,
      "velocity": 93,
      "chip": "ym2612"
    },
    {
      "channel": 1,
      "note": 51,
      "start": 8.6039,
      "duration": 0.0416,
      "velocity": 94,
      "chip": "ym2612"
    },
    {
      "channel": 0,
      "note": 49,
      "start": 8.6651,
      "duration": 0.0132,
      "velocity": 88,
      "chip": "ym2612"
    },
    {
      "channel": 1,
      "note": 51,
      "start": 8.6673,
      "duration": 0.0143,
      "velocity": 94,
      "chip": "ym2612"
    },
    {
      "channel": 2,
      "note": 49,
      "start": 8.6678,
      "duration": 0.0085,
      "velocity": 93,
      "chip": "ym2612"
    },
    {
      "channel": 3,
      "note": 49,
      "start": 8.6712,
      "duration": 0.0077,
      "velocity": 93,
      "chip": "ym2612"
    },
    {
      "channel": 4,
      "note": 49,
      "start": 8.6743,
      "duration": 0.008,
      "velocity": 93,
      "chip": "ym2612"
    },
    {
      "channel": 0,
      "note": 49,
      "start": 8.6841,
      "duration": 0.0293,
      "velocity": 88,
      "chip": "ym2612"
    },
    {
      "channel": 1,
      "note": 51,
      "start": 8.6863,
      "duration": 0.0141,
      "velocity": 94,
      "chip": "ym2612"
    },
    {
      "channel": 2,
      "note": 49,
      "start": 8.6868,
      "duration": 0.0084,
      "velocity": 93,
      "chip": "ym2612"
    },
    {
      "channel": 3,
      "note": 49,
      "start": 8.6902,
      "duration": 0.0076,
      "velocity": 93,
      "chip": "ym2612"
    },
    {
      "channel": 4,
      "note": 49,
      "start": 8.6933,
      "duration": 0.0079,
      "velocity": 93,
      "chip": "ym2612"
    },
    {
      "channel": 1,
      "note": 51,
      "start": 8.7031,
      "duration": 0.0137,
      "velocity": 94,
      "chip": "ym2612"
    },
    {
      "channel": 0,
      "note": 49,
      "start": 8.7203,
      "duration": 0.0131,
      "velocity": 88,
      "chip": "ym2612"
    },
    {
      "channel": 1,
      "note": 51,
      "start": 8.7225,
      "duration": 0.0142,
      "velocity": 94,
      "chip": "ym2612"
    },
    {
      "channel": 2,
      "note": 49,
      "start": 8.723,
      "duration": 0.0085,
      "velocity": 93,
      "chip": "ym2612"
    },
    {
      "channel": 3,
      "note": 49,
      "start": 8.7265,
      "duration": 0.0077,
      "velocity": 93,
      "chip": "ym2612"
    },
    {
      "channel": 4,
      "note": 49,
      "start": 8.7296,
      "duration": 0.008,
      "velocity": 93,
      "chip": "ym2612"
    },
    {
      "channel": 0,
      "note": 49,
      "start": 8.7398,
      "duration": 0.03,
      "velocity": 88,
      "chip": "ym2612"
    },
    {
      "channel": 1,
      "note": 51,
      "start": 8.7419,
      "duration": 0.015,
      "velocity": 94,
      "chip": "ym2612"
    },
    {
      "channel": 2,
      "note": 49,
      "start": 8.7424,
      "duration": 0.0086,
      "velocity": 93,
      "chip": "ym2612"
    },
    {
      "channel": 3,
      "note": 49,
      "start": 8.7462,
      "duration": 0.0075,
      "velocity": 93,
      "chip": "ym2612"
    },
    {
      "channel": 4,
      "note": 49,
      "start": 8.7491,
      "duration": 0.0085,
      "velocity": 93,
      "chip": "ym2612"
    },
    {
      "channel": 1,
      "note": 51,
      "start": 8.7594,
      "duration": 0.0142,
      "velocity": 94,
      "chip": "ym2612"
    },
    {
      "channel": 0,
      "note": 55,
      "start": 8.7766,
      "duration": 0.0134,
      "velocity": 88,
      "chip": "ym2612"
    },
    {
      "channel": 1,
      "note": 51,
      "start": 8.7787,
      "duration": 0.0151,
      "velocity": 94,
      "chip": "ym2612"
    },
    {
      "channel": 2,
      "note": 55,
      "start": 8.7792,
      "duration": 0.0088,
      "velocity": 93,
      "chip": "ym2612"
    },
    {
      "channel": 3,
      "note": 49,
      "start": 8.7831,
      "duration": 0.0076,
      "velocity": 93,
      "chip": "ym2612"
    },
    {
      "channel": 4,
      "note": 49,
      "start": 8.7861,
      "duration": 0.0086,
      "velocity": 93,
      "chip": "ym2612"
    },
    {
      "channel": 0,
      "note": 56,
      "start": 8.7962,
      "duration": 0.0214,
      "velocity": 88,
      "chip": "ym2612"
    },
    {
      "channel": 1,
      "note": 51,
      "start": 8.7983,
      "duration": 0.039,
      "velocity": 94,
      "chip": "ym2612"
    },
    {
      "channel": 2,
      "note": 56,
      "start": 8.7989,
      "duration": 0.0082,
      "velocity": 93,
      "chip": "ym2612"
    },
    {
      "channel": 3,
      "note": 55,
      "start": 8.8022,
      "duration": 0.0161,
      "velocity": 93,
      "chip": "ym2612"
    },
    {
      "channel": 4,
      "note": 55,
      "start": 8.8052,
      "duration": 0.033,
      "velocity": 93,
      "chip": "ym2612"
    },
    {
      "channel": 0,
      "note": 51,
      "start": 8.8569,
      "duration": 0.012,
      "velocity": 88,
      "chip": "ym2612"
    },
    {
      "channel": 1,
      "note": 51,
      "start": 8.8574,
      "duration": 0.0154,
      "velocity": 94,
      "chip": "ym2612"
    },
    {
      "channel": 2,
      "note": 51,
      "start": 8.8579,
      "duration": 0.009,
      "velocity": 93,
      "chip": "ym2612"
    },
    {
      "channel": 3,
      "note": 56,
      "start": 8.8621,
      "duration": 0.0076,
      "velocity": 93,
      "chip": "ym2612"
    },
    {
      "channel": 4,
      "note": 56,
      "start": 8.8651,
      "duration": 0.0085,
      "velocity": 93,
      "chip": "ym2612"
    },
    {
      "channel": 0,
      "note": 52,
      "start": 8.8752,
      "duration": 0.0122,
      "velocity": 88,
      "chip": "ym2612"
    },
    {
      "channel": 1,
      "note": 51,
      "start": 8.8757,
      "duration": 0.0154,
      "velocity": 94,
      "chip": "ym2612"
    },
    {
      "channel": 2,
      "note": 52,
      "start": 8.8762,
      "duration": 0.009,
      "velocity": 93,
      "chip": "ym2612"
    },
    {
      "channel": 3,
      "note": 51,
      "start": 8.8804,
      "duration": 0.0052,
      "velocity": 93,
      "chip": "ym2612"
    },
    {
      "channel": 4,
      "note": 51,
      "start": 8.8834,
      "duration": 0.0026,
      "velocity": 93,
      "chip": "ym2612"
    },
    {
      "channel": 0,
      "note": 49,
      "start": 8.8936,
      "duration": 0.0165,
      "velocity": 88,
      "chip": "ym2612"
    },
    {
      "channel": 1,
      "note": 78,
      "start": 8.8977,
      "duration": 0.0001,
      "velocity": 98,
      "chip": "ym2612"
    },
    {
      "channel": 1,
      "note": 82,
      "start": 8.898,
      "duration": 0.8207,
      "velocity": 98,
      "chip": "ym2612"
    },
    {
      "channel": 2,
      "note": 49,
      "start": 8.8988,
      "duration": 0.0093,
      "velocity": 93,
      "chip": "ym2612"
    },
    {
      "channel": 0,
      "note": 49,
      "start": 8.9158,
      "duration": 0.1361,
      "velocity": 88,
      "chip": "ym2612"
    },
    {
      "channel": 2,
      "note": 49,
      "start": 8.9166,
      "duration": 0.0078,
      "velocity": 93,
      "chip": "ym2612"
    },
    {
      "channel": 3,
      "note": 52,
      "start": 8.98,
      "duration": 0.0001,
      "velocity": 98,
      "chip": "ym2612"
    },
    {
      "channel": 3,
      "note": 52,
      "start": 8.9804,
      "duration": 0.7745,
      "velocity": 98,
      "chip": "ym2612"
    },
    {
      "channel": 4,
      "note": 52,
      "start": 8.9861,
      "duration": 0.0001,
      "velocity": 98,
      "chip": "ym2612"
    },
    {
      "channel": 4,
      "note": 52,
      "start": 8.9866,
      "duration": 0.7691,
      "velocity": 98,
      "chip": "ym2612"
    },
    {
      "channel": 0,
      "note": 49,
      "start": 9.0913,
      "duration": 0.078,
      "velocity": 88,
      "chip": "ym2612"
    },
    {
      "channel": 2,
      "note": 49,
      "start": 9.0921,
      "duration": 0.0582,
      "velocity": 93,
      "chip": "ym2612"
    },
    {
      "channel": 0,
      "note": 49,
      "start": 9.2087,
      "duration": 0.0412,
      "velocity": 88,
      "chip": "ym2612"
    },
    {
      "channel": 2,
      "note": 49,
      "start": 9.2095,
      "duration": 0.008,
      "velocity": 93,
      "chip": "ym2612"
    },
    {
      "channel": 0,
      "note": 49,
      "start": 9.2893,
      "duration": 0.0114,
      "velocity": 88,
      "chip": "ym2612"
    },
    {
      "channel": 2,
      "note": 49,
      "start": 9.29,
      "duration": 0.0086,
      "velocity": 93,
      "chip": "ym2612"
    },
    {
      "channel": 0,
      "note": 49,
      "start": 9.3063,
      "duration": 0.0268,
      "velocity": 88,
      "chip": "ym2612"
    },
    {
      "channel": 2,
      "note": 49,
      "start": 9.3071,
      "duration": 0.0078,
      "velocity": 93,
      "chip": "ym2612"
    },
    {
      "channel": 0,
      "note": 49,
      "start": 9.3389,
      "duration": 0.0249,
      "velocity": 88,
      "chip": "ym2612"
    },
    {
      "channel": 2,
      "note": 49,
      "start": 9.3397,
      "duration": 0.0079,
      "velocity": 93,
      "chip": "ym2612"
    },
    {
      "channel": 0,
      "note": 49,
      "start": 9.4031,
      "duration": 0.1954,
      "velocity": 88,
      "chip": "ym2612"
    },
    {
      "channel": 2,
      "note": 49,
      "start": 9.4039,
      "duration": 0.0583,
      "velocity": 93,
      "chip": "ym2612"
    },
    {
      "channel": 0,
      "note": 49,
      "start": 9.6378,
      "duration": 0.0412,
      "velocity": 88,
      "chip": "ym2612"
    },
    {
      "channel": 2,
      "note": 49,
      "start": 9.6386,
      "duration": 0.0083,
      "velocity": 93,
      "chip": "ym2612"
    },
    {
      "channel": 0,
      "note": 49,
      "start": 9.7184,
      "duration": 0.0281,
      "velocity": 88,
      "chip": "ym2612"
    },
    {
      "channel": 1,
      "note": 79,
      "start": 9.719,
      "duration": 0.011,
      "velocity": 98,
      "chip": "ym2612"
    },
    {
      "channel": 2,
      "note": 49,
      "start": 9.7195,
      "duration": 0.0082,
      "velocity": 93,
      "chip": "ym2612"
    },
    {
      "channel": 1,
      "note": 76,
      "start": 9.7302,
      "duration": 0.0113,
      "velocity": 98,
      "chip": "ym2612"
    },
    {
      "channel": 1,
      "note": 73,
      "start": 9.7417,
      "duration": 0.0115,
      "velocity": 98,
      "chip": "ym2612"
    },
    {
      "channel": 0,
      "note": 49,
      "start": 9.7529,
      "duration": 0.0133,
      "velocity": 88,
      "chip": "ym2612"
    },
    {
      "channel": 1,
      "note": 66,
      "start": 9.7534,
      "duration": 0.0001,
      "velocity": 98,
      "chip": "ym2612"
    },
    {
      "channel": 1,
      "note": 70,
      "start": 9.7538,
      "duration": 0.8587,
      "velocity": 98,
      "chip": "ym2612"
    },
    {
      "channel": 2,
      "note": 49,
      "start": 9.7546,
      "duration": 0.0096,
      "velocity": 93,
      "chip": "ym2612"
    },
    {
      "channel": 3,
      "note": 82,
      "start": 9.7553,
      "duration": 0.0118,
      "velocity": 98,
      "chip": "ym2612"
    },
    {
      "channel": 4,
      "note": 82,
      "start": 9.7561,
      "duration": 0.0117,
      "velocity": 98,
      "chip": "ym2612"
    },
    {
      "channel": 3,
      "note": 79,
      "start": 9.7674,
      "duration": 0.0118,
      "velocity": 98,
      "chip": "ym2612"
    },
    {
      "channel": 4,
      "note": 79,
      "start": 9.7681,
      "duration": 0.0118,
      "velocity": 98,
      "chip": "ym2612"
    },
    {
      "channel": 0,
      "note": 49,
      "start": 9.7729,
      "duration": 0.1383,
      "velocity": 88,
      "chip": "ym2612"
    },
    {
      "channel": 2,
      "note": 49,
      "start": 9.7737,
      "duration": 0.0085,
      "velocity": 93,
      "chip": "ym2612"
    },
    {
      "channel": 3,
      "note": 76,
      "start": 9.7795,
      "duration": 0.0542,
      "velocity": 98,
      "chip": "ym2612"
    },
    {
      "channel": 4,
      "note": 76,
      "start": 9.7802,
      "duration": 0.0548,
      "velocity": 98,
      "chip": "ym2612"
    },
    {
      "channel": 3,
      "note": 73,
      "start": 9.834,
      "duration": 0.0001,
      "velocity": 98,
      "chip": "ym2612"
    },
    {
      "channel": 3,
      "note": 73,
      "start": 9.8345,
      "duration": 0.8586,
      "velocity": 98,
      "chip": "ym2612"
    },
    {
      "channel": 4,
      "note": 73,
      "start": 9.8354,
      "duration": 0.8635,
      "velocity": 98,
      "chip": "ym2612"
    },
    {
      "channel": 0,
      "note": 49,
      "start": 9.9505,
      "duration": 0.078,
      "velocity": 88,
      "chip": "ym2612"
    },
    {
      "channel": 2,
      "note": 49,
      "start": 9.9512,
      "duration": 0.0582,
      "velocity": 93,
      "chip": "ym2612"
    },
    {
      "channel": 0,
      "note": 49,
      "start": 10.0679,
      "duration": 0.0412,
      "velocity": 88,
      "chip": "ym2612"
    },
    {
      "channel": 2,
      "note": 49,
      "start": 10.0686,
      "duration": 0.0079,
      "velocity": 93,
      "chip": "ym2612"
    },
    {
      "channel": 0,
      "note": 49,
      "start": 10.1483,
      "duration": 0.0113,
      "velocity": 88,
      "chip": "ym2612"
    },
    {
      "channel": 2,
      "note": 49,
      "start": 10.1491,
      "duration": 0.0085,
      "velocity": 93,
      "chip": "ym2612"
    },
    {
      "channel": 0,
      "note": 49,
      "start": 10.1654,
      "duration": 0.0269,
      "velocity": 88,
      "chip": "ym2612"
    },
    {
      "channel": 2,
      "note": 49,
      "start": 10.1661,
      "duration": 0.0078,
      "velocity": 93,
      "chip": "ym2612"
    },
    {
      "channel": 0,
      "note": 49,
      "start": 10.1981,
      "duration": 0.0249,
      "velocity": 88,
      "chip": "ym2612"
    },
    {
      "channel": 2,
      "note": 49,
      "start": 10.1988,
      "duration": 0.0078,
      "velocity": 93,
      "chip": "ym2612"
    },
    {
      "channel": 0,
      "note": 49,
      "start": 10.2622,
      "duration": 0.1955,
      "velocity": 88,
      "chip": "ym2612"
    },
    {
      "channel": 2,
      "note": 49,
      "start": 10.263,
      "duration": 0.0583,
      "velocity": 93,
      "chip": "ym2612"
    },
    {
      "channel": 0,
      "note": 49,
      "start": 10.497,
      "duration": 0.0411,
      "velocity": 88,
      "chip": "ym2612"
    },
    {
      "channel": 2,
      "note": 49,
      "start": 10.4977,
      "duration": 0.0084,
      "velocity": 93,
      "chip": "ym2612"
    },
    {
      "channel": 0,
      "note": 49,
      "start": 10.5774,
      "duration": 0.0276,
      "velocity": 88,
      "chip": "ym2612"
    },
    {
      "channel": 2,
      "note": 49,
      "start": 10.5782,
      "duration": 0.0083,
      "velocity": 93,
      "chip": "ym2612"
    },
    {
      "channel": 0,
      "note": 49,
      "start": 10.6122,
      "duration": 0.0153,
      "velocity": 88,
      "chip": "ym2612"
    },
    {
      "channel": 1,
      "note": 73,
      "start": 10.616,
      "duration": 0.3921,
      "velocity": 102,
      "chip": "ym2612"
    },
    {
      "channel": 2,
      "note": 49,
      "start": 10.6167,
      "duration": 0.0087,
      "velocity": 93,
      "chip": "ym2612"
    },
    {
      "channel": 0,
      "note": 49,
      "start": 10.6329,
      "duration": 0.1377,
      "velocity": 88,
      "chip": "ym2612"
    },
    {
      "channel": 2,
      "note": 49,
      "start": 10.6337,
      "duration": 0.0076,
      "velocity": 93,
      "chip": "ym2612"
    },
    {
      "channel": 3,
      "note": 70,
      "start": 10.6984,
      "duration": 0.3408,
      "velocity": 102,
      "chip": "ym2612"
    },
    {
      "channel": 4,
      "note": 70,
      "start": 10.7039,
      "duration": 0.3386,
      "velocity": 102,
      "chip": "ym2612"
    },
    {
      "channel": 0,
      "note": 49,
      "start": 10.8098,
      "duration": 0.0781,
      "velocity": 88,
      "chip": "ym2612"
    },
    {
      "channel": 2,
      "note": 49,
      "start": 10.8106,
      "duration": 0.0582,
      "velocity": 93,
      "chip": "ym2612"
    },
    {
      "channel": 0,
      "note": 49,
      "start": 10.9272,
      "duration": 0.0412,
      "velocity": 88,
      "chip": "ym2612"
    },
    {
      "channel": 2,
      "note": 49,
      "start": 10.928,
      "duration": 0.008,
      "velocity": 93,
      "chip": "ym2612"
    },
    {
      "channel": 0,
      "note": 49,
      "start": 11.0078,
      "duration": 0.0116,
      "velocity": 88,
      "chip": "ym2612"
    },
    {
      "channel": 1,
      "note": 79,
      "start": 11.0083,
      "duration": 0.4635,
      "velocity": 102,
      "chip": "ym2612"
    },
    {
      "channel": 2,
      "note": 49,
      "start": 11.0088,
      "duration": 0.0085,
      "velocity": 93,
      "chip": "ym2612"
    },
    {
      "channel": 0,
      "note": 49,
      "start": 11.0251,
      "duration": 0.027,
      "velocity": 88,
      "chip": "ym2612"
    },
    {
      "channel": 2,
      "note": 49,
      "start": 11.0258,
      "duration": 0.0076,
      "velocity": 93,
      "chip": "ym2612"
    },
    {
      "channel": 3,
      "note": 73,
      "start": 11.0422,
      "duration": 0.4906,
      "velocity": 102,
      "chip": "ym2612"
    },
    {
      "channel": 4,
      "note": 73,
      "start": 11.0429,
      "duration": 0.5102,
      "velocity": 102,
      "chip": "ym2612"
    },
    {
      "channel": 0,
      "note": 49,
      "start": 11.0577,
      "duration": 0.0246,
      "velocity": 88,
      "chip": "ym2612"
    },
    {
      "channel": 2,
      "note": 49,
      "start": 11.0584,
      "duration": 0.0074,
      "velocity": 93,
      "chip": "ym2612"
    },
    {
      "channel": 0,
      "note": 49,
      "start": 11.1216,
      "duration": 0.1954,
      "velocity": 88,
      "chip": "ym2612"
    },
    {
      "channel": 2,
      "note": 49,
      "start": 11.1224,
      "duration": 0.0582,
      "velocity": 93,
      "chip": "ym2612"
    },
    {
      "channel": 0,
      "note": 49,
      "start": 11.3564,
      "duration": 0.0412,
      "velocity": 88,
      "chip": "ym2612"
    },
    {
      "channel": 2,
      "note": 49,
      "start": 11.3571,
      "duration": 0.0082,
      "velocity": 93,
      "chip": "ym2612"
    },
    {
      "channel": 0,
      "note": 49,
      "start": 11.4368,
      "duration": 0.0276,
      "velocity": 88,
      "chip": "ym2612"
    },
    {
      "channel": 2,
      "note": 49,
      "start": 11.4376,
      "duration": 0.0082,
      "velocity": 93,
      "chip": "ym2612"
    },
    {
      "channel": 0,
      "note": 49,
      "start": 11.4715,
      "duration": 0.0132,
      "velocity": 88,
      "chip": "ym2612"
    },
    {
      "channel": 1,
      "note": 88,
      "start": 11.472,
      "duration": 0.3953,
      "velocity": 102,
      "chip": "ym2612"
    },
    {
      "channel": 2,
      "note": 49,
      "start": 11.4727,
      "duration": 0.01,
      "velocity": 93,
      "chip": "ym2612"
    },
    {
      "channel": 0,
      "note": 49,
      "start": 11.4905,
      "duration": 0.1394,
      "velocity": 88,
      "chip": "ym2612"
    },
    {
      "channel": 2,
      "note": 49,
      "start": 11.4912,
      "duration": 0.0076,
      "velocity": 93,
      "chip": "ym2612"
    },
    {
      "channel": 3,
      "note": 79,
      "start": 11.5527,
      "duration": 0.3459,
      "velocity": 102,
      "chip": "ym2612"
    },
    {
      "channel": 4,
      "note": 79,
      "start": 11.5534,
      "duration": 0.3485,
      "velocity": 102,
      "chip": "ym2612"
    },
    {
      "channel": 0,
      "note": 49,
      "start": 11.6692,
      "duration": 0.078,
      "velocity": 88,
      "chip": "ym2612"
    },
    {
      "channel": 2,
      "note": 49,
      "start": 11.6699,
      "duration": 0.0582,
      "velocity": 93,
      "chip": "ym2612"
    },
    {
      "channel": 0,
      "note": 49,
      "start": 11.7866,
      "duration": 0.0412,
      "velocity": 88,
      "chip": "ym2612"
    },
    {
      "channel": 2,
      "note": 49,
      "start": 11.7873,
      "duration": 0.008,
      "velocity": 93,
      "chip": "ym2612"
    },
    {
      "channel": 0,
      "note": 49,
      "start": 11.867,
      "duration": 0.0116,
      "velocity": 88,
      "chip": "ym2612"
    },
    {
      "channel": 1,
      "note": 82,
      "start": 11.8676,
      "duration": 0.1703,
      "velocity": 102,
      "chip": "ym2612"
    },
    {
      "channel": 2,
      "note": 49,
      "start": 11.868,
      "duration": 0.0085,
      "velocity": 93,
      "chip": "ym2612"
    },
    {
      "channel": 0,
      "note": 49,
      "start": 11.8842,
      "duration": 0.0271,
      "velocity": 88,
      "chip": "ym2612"
    },
    {
      "channel": 2,
      "note": 49,
      "start": 11.885,
      "duration": 0.0077,
      "velocity": 93,
      "chip": "ym2612"
    },
    {
      "channel": 3,
      "note": 88,
      "start": 11.9014,
      "duration": 0.1977,
      "velocity": 102,
      "chip": "ym2612"
    },
    {
      "channel": 4,
      "note": 88,
      "start": 11.9021,
      "duration": 0.2222,
      "velocity": 102,
      "chip": "ym2612"
    },
    {
      "channel": 0,
      "note": 49,
      "start": 11.918,
      "duration": 0.0107,
      "velocity": 88,
      "chip": "ym2612"
    },
    {
      "channel": 2,
      "note": 49,
      "start": 11.9187,
      "duration": 0.008,
      "velocity": 93,
      "chip": "ym2612"
    },
    {
      "channel": 0,
      "note": 49,
      "start": 11.9343,
      "duration": 0.0272,
      "velocity": 88,
      "chip": "ym2612"
    },
    {
      "channel": 2,
      "note": 49,
      "start": 11.935,
      "duration": 0.0078,
      "velocity": 93,
      "chip": "ym2612"
    },
    {
      "channel": 0,
      "note": 55,
      "start": 11.9682,
      "duration": 0.0111,
      "velocity": 88,
      "chip": "ym2612"
    },
    {
      "channel": 2,
      "note": 55,
      "start": 11.9689,
      "duration": 0.0083,
      "velocity": 93,
      "chip": "ym2612"
    },
    {
      "channel": 0,
      "note": 56,
      "start": 11.9854,
      "duration": 0.0111,
      "velocity": 88,
      "chip": "ym2612"
    },
    {
      "channel": 2,
      "note": 56,
      "start": 11.9863,
      "duration": 0.0082,
      "velocity": 93,
      "chip": "ym2612"
    },
    {
      "channel": 0,
      "note": 51,
      "start": 12.0027,
      "duration": 0.0115,
      "velocity": 88,
      "chip": "ym2612"
    },
    {
      "channel": 2,
      "note": 51,
      "start": 12.0035,
      "duration": 0.0088,
      "velocity": 93,
      "chip": "ym2612"
    },
    {
      "channel": 0,
      "note": 52,
      "start": 12.0206,
      "duration": 0.0107,
      "velocity": 88,
      "chip": "ym2612"
    },
    {
      "channel": 2,
      "note": 52,
      "start": 12.0213,
      "duration": 0.0079,
      "velocity": 93,
      "chip": "ym2612"
    },
    {
      "channel": 0,
      "note": 49,
      "start": 12.0377,
      "duration": 0.0153,
      "velocity": 88,
      "chip": "ym2612"
    },
    {
      "channel": 2,
      "note": 49,
      "start": 12.042,
      "duration": 0.0089,
      "velocity": 93,
      "chip": "ym2612"
    },
    {
      "channel": 0,
      "note": 49,
      "start": 12.0588,
      "duration": 0.1373,
      "velocity": 88,
      "chip": "ym2612"
    },
    {
      "channel": 1,
      "note": 49,
      "start": 12.0593,
      "duration": 0.0588,
      "velocity": 98,
      "chip": "ym2612"
    },
    {
      "channel": 2,
      "note": 49,
      "start": 12.0598,
      "duration": 0.0075,
      "velocity": 93,
      "chip": "ym2612"
    },
    {
      "channel": 1,
      "note": 52,
      "start": 12.1184,
      "duration": 0.1173,
      "velocity": 98,
      "chip": "ym2612"
    },
    {
      "channel": 0,
      "note": 49,
      "start": 12.2354,
      "duration": 0.0781,
      "velocity": 88,
      "chip": "ym2612"
    },
    {
      "channel": 1,
      "note": 56,
      "start": 12.236,
      "duration": 0.1172,
      "velocity": 98,
      "chip": "ym2612"
    },
    {
      "channel": 2,
      "note": 49,
      "start": 12.2364,
      "duration": 0.058,
      "velocity": 93,
      "chip": "ym2612"
    },
    {
      "channel": 3,
      "note": 82,
      "start": 12.2371,
      "duration": 0.0967,
      "velocity": 98,
      "chip": "ym2612"
    },
    {
      "channel": 4,
      "note": 82,
      "start": 12.2378,
      "duration": 0.1171,
      "velocity": 98,
      "chip": "ym2612"
    },
    {
      "channel": 0,
      "note": 49,
      "start": 12.3528,
      "duration": 0.0412,
      "velocity": 88,
      "chip": "ym2612"
    },
    {
      "channel": 1,
      "note": 59,
      "start": 12.3534,
      "duration": 0.0169,
      "velocity": 98,
      "chip": "ym2612"
    },
    {
      "channel": 2,
      "note": 49,
      "start": 12.3539,
      "duration": 0.0087,
      "velocity": 93,
      "chip": "ym2612"
    },
    {
      "channel": 3,
      "note": 49,
      "start": 12.3545,
      "duration": 0.0137,
      "velocity": 98,
      "chip": "ym2612"
    },
    {
      "channel": 4,
      "note": 49,
      "start": 12.3552,
      "duration": 0.0166,
      "velocity": 98,
      "chip": "ym2612"
    },
    {
      "channel": 1,
      "note": 58,
      "start": 12.3704,
      "duration": 0.0632,
      "velocity": 98,
      "chip": "ym2612"
    },
    {
      "channel": 3,
      "note": 52,
      "start": 12.3714,
      "duration": 0.0428,
      "velocity": 98,
      "chip": "ym2612"
    },
    {
      "channel": 4,
      "note": 52,
      "start": 12.3721,
      "duration": 0.063,
      "velocity": 98,
      "chip": "ym2612"
    },
    {
      "channel": 0,
      "note": 49,
      "start": 12.4333,
      "duration": 0.012,
      "velocity": 88,
      "chip": "ym2612"
    },
    {
      "channel": 2,
      "note": 49,
      "start": 12.4341,
      "duration": 0.0092,
      "velocity": 93,
      "chip": "ym2612"
    },
    {
      "channel": 3,
      "note": 56,
      "start": 12.4347,
      "duration": 0.0143,
      "velocity": 98,
      "chip": "ym2612"
    },
    {
      "channel": 4,
      "note": 56,
      "start": 12.4354,
      "duration": 0.0172,
      "velocity": 98,
      "chip": "ym2612"
    },
    {
      "channel": 0,
      "note": 49,
      "start": 12.4509,
      "duration": 0.0314,
      "velocity": 88,
      "chip": "ym2612"
    },
    {
      "channel": 2,
      "note": 49,
      "start": 12.4516,
      "duration": 0.0083,
      "velocity": 93,
      "chip": "ym2612"
    },
    {
      "channel": 3,
      "note": 59,
      "start": 12.4522,
      "duration": 0.0133,
      "velocity": 98,
      "chip": "ym2612"
    },
    {
      "channel": 4,
      "note": 59,
      "start": 12.4529,
      "duration": 0.0199,
      "velocity": 98,
      "chip": "ym2612"
    },
    {
      "channel": 1,
      "note": 85,
      "start": 12.4718,
      "duration": 0.1944,
      "velocity": 100,
      "chip": "ym2612"
    },
    {
      "channel": 0,
      "note": 49,
      "start": 12.4878,
      "duration": 0.0216,
      "velocity": 88,
      "chip": "ym2612"
    },
    {
      "channel": 2,
      "note": 49,
      "start": 12.4885,
      "duration": 0.0075,
      "velocity": 93,
      "chip": "ym2612"
    },
    {
      "channel": 0,
      "note": 49,
      "start": 12.5488,
      "duration": 0.1954,
      "velocity": 88,
      "chip": "ym2612"
    },
    {
      "channel": 2,
      "note": 49,
      "start": 12.5495,
      "duration": 0.0583,
      "velocity": 93,
      "chip": "ym2612"
    },
    {
      "channel": 3,
      "note": 58,
      "start": 12.5549,
      "duration": 0.2435,
      "velocity": 100,
      "chip": "ym2612"
    },
    {
      "channel": 4,
      "note": 58,
      "start": 12.5604,
      "duration": 0.2412,
      "velocity": 100,
      "chip": "ym2612"
    },
    {
      "channel": 1,
      "note": 79,
      "start": 12.6664,
      "duration": 0.2306,
      "velocity": 100,
      "chip": "ym2612"
    },
    {
      "channel": 0,
      "note": 49,
      "start": 12.7835,
      "duration": 0.0412,
      "velocity": 88,
      "chip": "ym2612"
    },
    {
      "channel": 2,
      "note": 49,
      "start": 12.7842,
      "duration": 0.0081,
      "velocity": 93,
      "chip": "ym2612"
    },
    {
      "channel": 3,
      "note": 85,
      "start": 12.8012,
      "duration": 0.1567,
      "velocity": 100,
      "chip": "ym2612"
    },
    {
      "channel": 4,
      "note": 85,
      "start": 12.8019,
      "duration": 0.1812,
      "velocity": 100,
      "chip": "ym2612"
    },
    {
      "channel": 0,
      "note": 49,
      "start": 12.864,
      "duration": 0.0264,
      "velocity": 88,
      "chip": "ym2612"
    },
    {
      "channel": 2,
      "note": 49,
      "start": 12.8647,
      "duration": 0.0079,
      "velocity": 93,
      "chip": "ym2612"
    },
    {
      "channel": 0,
      "note": 49,
      "start": 12.8967,
      "duration": 0.0145,
      "velocity": 88,
      "chip": "ym2612"
    },
    {
      "channel": 2,
      "note": 49,
      "start": 12.9011,
      "duration": 0.0082,
      "velocity": 93,
      "chip": "ym2612"
    },
    {
      "channel": 0,
      "note": 49,
      "start": 12.9167,
      "duration": 0.1383,
      "velocity": 88,
      "chip": "ym2612"
    },
    {
      "channel": 1,
      "note": 61,
      "start": 12.9173,
      "duration": 0.0597,
      "velocity": 98,
      "chip": "ym2612"
    },
    {
      "channel": 2,
      "note": 49,
      "start": 12.9178,
      "duration": 0.0077,
      "velocity": 93,
      "chip": "ym2612"
    },
    {
      "channel": 1,
      "note": 64,
      "start": 12.9772,
      "duration": 0.1174,
      "velocity": 98,
      "chip": "ym2612"
    },
    {
      "channel": 0,
      "note": 49,
      "start": 13.0943,
      "duration": 0.078,
      "velocity": 88,
      "chip": "ym2612"
    },
    {
      "channel": 1,
      "note": 68,
      "start": 13.0948,
      "duration": 0.1172,
      "velocity": 98,
      "chip": "ym2612"
    },
    {
      "channel": 2,
      "note": 49,
      "start": 13.0954,
      "duration": 0.0579,
      "velocity": 93,
      "chip": "ym2612"
    },
    {
      "channel": 3,
      "note": 79,
      "start": 13.096,
      "duration": 0.0967,
      "velocity": 98,
      "chip": "ym2612"
    },
    {
      "channel": 4,
      "note": 79,
      "start": 13.0967,
      "duration": 0.1171,
      "velocity": 98,
      "chip": "ym2612"
    },
    {
      "channel": 0,
      "note": 49,
      "start": 13.2117,
      "duration": 0.0412,
      "velocity": 88,
      "chip": "ym2612"
    },
    {
      "channel": 1,
      "note": 71,
      "start": 13.2123,
      "duration": 0.0169,
      "velocity": 98,
      "chip": "ym2612"
    },
    {
      "channel": 2,
      "note": 49,
      "start": 13.2128,
      "duration": 0.0087,
      "velocity": 93,
      "chip": "ym2612"
    },
    {
      "channel": 3,
      "note": 61,
      "start": 13.2134,
      "duration": 0.0137,
      "velocity": 98,
      "chip": "ym2612"
    },
    {
      "channel": 4,
      "note": 61,
      "start": 13.2141,
      "duration": 0.0166,
      "velocity": 98,
      "chip": "ym2612"
    },
    {
      "channel": 1,
      "note": 70,
      "start": 13.2294,
      "duration": 0.0631,
      "velocity": 98,
      "chip": "ym2612"
    },
    {
      "channel": 3,
      "note": 64,
      "start": 13.2304,
      "duration": 0.0428,
      "velocity": 98,
      "chip": "ym2612"
    },
    {
      "channel": 4,
      "note": 64,
      "start": 13.231,
      "duration": 0.0631,
      "velocity": 98,
      "chip": "ym2612"
    },
    {
      "channel": 0,
      "note": 49,
      "start": 13.2922,
      "duration": 0.0119,
      "velocity": 88,
      "chip": "ym2612"
    },
    {
      "channel": 2,
      "note": 49,
      "start": 13.2931,
      "duration": 0.009,
      "velocity": 93,
      "chip": "ym2612"
    },
    {
      "channel": 3,
      "note": 68,
      "start": 13.2937,
      "duration": 0.0141,
      "velocity": 98,
      "chip": "ym2612"
    },
    {
      "channel": 4,
      "note": 68,
      "start": 13.2944,
      "duration": 0.0171,
      "velocity": 98,
      "chip": "ym2612"
    },
    {
      "channel": 0,
      "note": 49,
      "start": 13.3098,
      "duration": 0.0314,
      "velocity": 88,
      "chip": "ym2612"
    },
    {
      "channel": 2,
      "note": 49,
      "start": 13.3105,
      "duration": 0.0083,
      "velocity": 93,
      "chip": "ym2612"
    },
    {
      "channel": 3,
      "note": 71,
      "start": 13.3111,
      "duration": 0.0132,
      "velocity": 98,
      "chip": "ym2612"
    },
    {
      "channel": 4,
      "note": 71,
      "start": 13.3118,
      "duration": 0.02,
      "velocity": 98,
      "chip": "ym2612"
    },
    {
      "channel": 1,
      "note": 88,
      "start": 13.3307,
      "duration": 0.1943,
      "velocity": 102,
      "chip": "ym2612"
    },
    {
      "channel": 0,
      "note": 49,
      "start": 13.3467,
      "duration": 0.0216,
      "velocity": 88,
      "chip": "ym2612"
    },
    {
      "channel": 2,
      "note": 49,
      "start": 13.3474,
      "duration": 0.0074,
      "velocity": 93,
      "chip": "ym2612"
    },
    {
      "channel": 0,
      "note": 49,
      "start": 13.4076,
      "duration": 0.1954,
      "velocity": 88,
      "chip": "ym2612"
    },
    {
      "channel": 2,
      "note": 49,
      "start": 13.4083,
      "duration": 0.0582,
      "velocity": 93,
      "chip": "ym2612"
    },
    {
      "channel": 3,
      "note": 70,
      "start": 13.4137,
      "duration": 0.2435,
      "velocity": 102,
      "chip": "ym2612"
    },
    {
      "channel": 4,
      "note": 70,
      "start": 13.4192,
      "duration": 0.2411,
      "velocity": 102,
      "chip": "ym2612"
    },
    {
      "channel": 1,
      "note": 82,
      "start": 13.5252,
      "duration": 0.2323,
      "velocity": 102,
      "chip": "ym2612"
    },
    {
      "channel": 0,
      "note": 49,
      "start": 13.6423,
      "duration": 0.041,
      "velocity": 88,
      "chip": "ym2612"
    },
    {
      "channel": 2,
      "note": 49,
      "start": 13.643,
      "duration": 0.0079,
      "velocity": 93,
      "chip": "ym2612"
    },
    {
      "channel": 3,
      "note": 88,
      "start": 13.6599,
      "duration": 0.1586,
      "velocity": 102,
      "chip": "ym2612"
    },
    {
      "channel": 4,
      "note": 88,
      "start": 13.6606,
      "duration": 0.183,
      "velocity": 102,
      "chip": "ym2612"
    },
    {
      "channel": 0,
      "note": 49,
      "start": 13.7227,
      "duration": 0.0265,
      "velocity": 88,
      "chip": "ym2612"
    },
    {
      "channel": 2,
      "note": 49,
      "start": 13.7234,
      "duration": 0.0079,
      "velocity": 93,
      "chip": "ym2612"
    },
    {
      "channel": 0,
      "note": 49,
      "start": 13.7573,
      "duration": 0.0147,
      "velocity": 88,
      "chip": "ym2612"
    },
    {
      "channel": 2,
      "note": 49,
      "start": 13.7617,
      "duration": 0.0083,
      "velocity": 93,
      "chip": "ym2612"
    },
    {
      "channel": 0,
      "note": 49,
      "start": 13.7775,
      "duration": 0.1381,
      "velocity": 88,
      "chip": "ym2612"
    },
    {
      "channel": 1,
      "note": 49,
      "start": 13.778,
      "duration": 0.0595,
      "velocity": 98,
      "chip": "ym2612"
    },
    {
      "channel": 2,
      "note": 49,
      "start": 13.7785,
      "duration": 0.0075,
      "velocity": 93,
      "chip": "ym2612"
    },
    {
      "channel": 1,
      "note": 52,
      "start": 13.8378,
      "duration": 0.1174,
      "velocity": 98,
      "chip": "ym2612"
    },
    {
      "channel": 0,
      "note": 49,
      "start": 13.9549,
      "duration": 0.078,
      "velocity": 88,
      "chip": "ym2612"
    },
    {
      "channel": 1,
      "note": 56,
      "start": 13.9555,
      "duration": 0.1171,
      "velocity": 98,
      "chip": "ym2612"
    },
    {
      "channel": 2,
      "note": 49,
      "start": 13.956,
      "duration": 0.0579,
      "velocity": 93,
      "chip": "ym2612"
    },
    {
      "channel": 3,
      "note": 82,
      "start": 13.9565,
      "duration": 0.0967,
      "velocity": 98,
      "chip": "ym2612"
    },
    {
      "channel": 4,
      "note": 82,
      "start": 13.9572,
      "duration": 0.1171,
      "velocity": 98,
      "chip": "ym2612"
    },
    {
      "channel": 0,
      "note": 49,
      "start": 14.0723,
      "duration": 0.0411,
      "velocity": 88,
      "chip": "ym2612"
    },
    {
      "channel": 1,
      "note": 59,
      "start": 14.0728,
      "duration": 0.0169,
      "velocity": 98,
      "chip": "ym2612"
    },
    {
      "channel": 2,
      "note": 49,
      "start": 14.0733,
      "duration": 0.0088,
      "velocity": 93,
      "chip": "ym2612"
    },
    {
      "channel": 3,
      "note": 49,
      "start": 14.0739,
      "duration": 0.0139,
      "velocity": 98,
      "chip": "ym2612"
    },
    {
      "channel": 4,
      "note": 49,
      "start": 14.0747,
      "duration": 0.0166,
      "velocity": 98,
      "chip": "ym2612"
    },
    {
      "channel": 1,
      "note": 58,
      "start": 14.09,
      "duration": 0.0631,
      "velocity": 98,
      "chip": "ym2612"
    },
    {
      "channel": 3,
      "note": 52,
      "start": 14.0909,
      "duration": 0.0428,
      "velocity": 98,
      "chip": "ym2612"
    },
    {
      "channel": 4,
      "note": 52,
      "start": 14.0916,
      "duration": 0.0631,
      "velocity": 98,
      "chip": "ym2612"
    },
    {
      "channel": 0,
      "note": 49,
      "start": 14.1528,
      "duration": 0.012,
      "velocity": 88,
      "chip": "ym2612"
    },
    {
      "channel": 2,
      "note": 49,
      "start": 14.1536,
      "duration": 0.0092,
      "velocity": 93,
      "chip": "ym2612"
    },
    {
      "channel": 3,
      "note": 56,
      "start": 14.1542,
      "duration": 0.0142,
      "velocity": 98,
      "chip": "ym2612"
    },
    {
      "channel": 4,
      "note": 56,
      "start": 14.1549,
      "duration": 0.0172,
      "velocity": 98,
      "chip": "ym2612"
    },
    {
      "channel": 0,
      "note": 49,
      "start": 14.1704,
      "duration": 0.0314,
      "velocity": 88,
      "chip": "ym2612"
    },
    {
      "channel": 2,
      "note": 49,
      "start": 14.1711,
      "duration": 0.0082,
      "velocity": 93,
      "chip": "ym2612"
    },
    {
      "channel": 3,
      "note": 59,
      "start": 14.1717,
      "duration": 0.0133,
      "velocity": 98,
      "chip": "ym2612"
    },
    {
      "channel": 4,
      "note": 59,
      "start": 14.1724,
      "duration": 0.02,
      "velocity": 98,
      "chip": "ym2612"
    },
    {
      "channel": 1,
      "note": 97,
      "start": 14.1913,
      "duration": 0.1944,
      "velocity": 100,
      "chip": "ym2612"
    },
    {
      "channel": 0,
      "note": 49,
      "start": 14.2073,
      "duration": 0.0216,
      "velocity": 88,
      "chip": "ym2612"
    },
    {
      "channel": 2,
      "note": 49,
      "start": 14.208,
      "duration": 0.0075,
      "velocity": 93,
      "chip": "ym2612"
    },
    {
      "channel": 0,
      "note": 49,
      "start": 14.2683,
      "duration": 0.1954,
      "velocity": 88,
      "chip": "ym2612"
    },
    {
      "channel": 2,
      "note": 49,
      "start": 14.269,
      "duration": 0.0582,
      "velocity": 93,
      "chip": "ym2612"
    },
    {
      "channel": 3,
      "note": 58,
      "start": 14.2744,
      "duration": 0.2435,
      "velocity": 100,
      "chip": "ym2612"
    },
    {
      "channel": 4,
      "note": 58,
      "start": 14.2799,
      "duration": 0.2412,
      "velocity": 100,
      "chip": "ym2612"
    },
    {
      "channel": 1,
      "note": 91,
      "start": 14.3859,
      "duration": 0.2307,
      "velocity": 100,
      "chip": "ym2612"
    },
    {
      "channel": 0,
      "note": 49,
      "start": 14.503,
      "duration": 0.0412,
      "velocity": 88,
      "chip": "ym2612"
    },
    {
      "channel": 2,
      "note": 49,
      "start": 14.5038,
      "duration": 0.008,
      "velocity": 93,
      "chip": "ym2612"
    },
    {
      "channel": 3,
      "note": 97,
      "start": 14.5207,
      "duration": 0.133,
      "velocity": 100,
      "chip": "ym2612"
    },
    {
      "channel": 4,
      "note": 97,
      "start": 14.5215,
      "duration": 0.1403,
      "velocity": 100,
      "chip": "ym2612"
    },
    {
      "channel": 0,
      "note": 49,
      "start": 14.5835,
      "duration": 0.0266,
      "velocity": 88,
      "chip": "ym2612"
    },
    {
      "channel": 2,
      "note": 49,
      "start": 14.5842,
      "duration": 0.008,
      "velocity": 93,
      "chip": "ym2612"
    },
    {
      "channel": 0,
      "note": 49,
      "start": 14.6163,
      "duration": 0.0165,
      "velocity": 88,
      "chip": "ym2612"
    },
    {
      "channel": 2,
      "note": 49,
      "start": 14.6207,
      "duration": 0.0102,
      "velocity": 93,
      "chip": "ym2612"
    },
    {
      "channel": 0,
      "note": 49,
      "start": 14.6389,
      "duration": 0.0366,
      "velocity": 88,
      "chip": "ym2612"
    },
    {
      "channel": 1,
      "note": 61,
      "start": 14.6395,
      "duration": 0.0162,
      "velocity": 98,
      "chip": "ym2612"
    },
    {
      "channel": 2,
      "note": 49,
      "start": 14.6399,
      "duration": 0.008,
      "velocity": 93,
      "chip": "ym2612"
    },
    {
      "channel": 1,
      "note": 64,
      "start": 14.6559,
      "duration": 0.0255,
      "velocity": 98,
      "chip": "ym2612"
    },
    {
      "channel": 0,
      "note": 49,
      "start": 14.6811,
      "duration": 0.0116,
      "velocity": 88,
      "chip": "ym2612"
    },
    {
      "channel": 1,
      "note": 68,
      "start": 14.6817,
      "duration": 0.0171,
      "velocity": 98,
      "chip": "ym2612"
    },
    {
      "channel": 2,
      "note": 49,
      "start": 14.6822,
      "duration": 0.0086,
      "velocity": 93,
      "chip": "ym2612"
    },
    {
      "channel": 3,
      "note": 91,
      "start": 14.6828,
      "duration": 0.0137,
      "velocity": 98,
      "chip": "ym2612"
    },
    {
      "channel": 4,
      "note": 91,
      "start": 14.6835,
      "duration": 0.0171,
      "velocity": 98,
      "chip": "ym2612"
    },
    {
      "channel": 0,
      "note": 49,
      "start": 14.6985,
      "duration": 0.041,
      "velocity": 88,
      "chip": "ym2612"
    },
    {
      "channel": 1,
      "note": 71,
      "start": 14.699,
      "duration": 0.0169,
      "velocity": 98,
      "chip": "ym2612"
    },
    {
      "channel": 2,
      "note": 49,
      "start": 14.6995,
      "duration": 0.0087,
      "velocity": 93,
      "chip": "ym2612"
    },
    {
      "channel": 3,
      "note": 61,
      "start": 14.7001,
      "duration": 0.0139,
      "velocity": 98,
      "chip": "ym2612"
    },
    {
      "channel": 4,
      "note": 61,
      "start": 14.7009,
      "duration": 0.0166,
      "velocity": 98,
      "chip": "ym2612"
    },
    {
      "channel": 1,
      "note": 70,
      "start": 14.7162,
      "duration": 0.063,
      "velocity": 98,
      "chip": "ym2612"
    },
    {
      "channel": 3,
      "note": 64,
      "start": 14.7171,
      "duration": 0.0427,
      "velocity": 98,
      "chip": "ym2612"
    },
    {
      "channel": 4,
      "note": 64,
      "start": 14.7178,
      "duration": 0.0629,
      "velocity": 98,
      "chip": "ym2612"
    },
    {
      "channel": 0,
      "note": 49,
      "start": 14.7789,
      "duration": 0.0114,
      "velocity": 88,
      "chip": "ym2612"
    },
    {
      "channel": 2,
      "note": 49,
      "start": 14.7797,
      "duration": 0.0086,
      "velocity": 93,
      "chip": "ym2612"
    },
    {
      "channel": 3,
      "note": 68,
      "start": 14.7803,
      "duration": 0.0136,
      "velocity": 98,
      "chip": "ym2612"
    },
    {
      "channel": 4,
      "note": 68,
      "start": 14.781,
      "duration": 0.0166,
      "velocity": 98,
      "chip": "ym2612"
    },
    {
      "channel": 0,
      "note": 49,
      "start": 14.7959,
      "duration": 0.031,
      "velocity": 88,
      "chip": "ym2612"
    },
    {
      "channel": 2,
      "note": 49,
      "start": 14.7966,
      "duration": 0.0085,
      "velocity": 93,
      "chip": "ym2612"
    },
    {
      "channel": 3,
      "note": 71,
      "start": 14.7972,
      "duration": 0.0136,
      "velocity": 98,
      "chip": "ym2612"
    },
    {
      "channel": 4,
      "note": 71,
      "start": 14.7979,
      "duration": 0.0196,
      "velocity": 98,
      "chip": "ym2612"
    },
    {
      "channel": 1,
      "note": 88,
      "start": 14.8164,
      "duration": 0.0606,
      "velocity": 102,
      "chip": "ym2612"
    },
    {
      "channel": 0,
      "note": 49,
      "start": 14.8325,
      "duration": 0.0105,
      "velocity": 88,
      "chip": "ym2612"
    },
    {
      "channel": 2,
      "note": 49,
      "start": 14.8332,
      "duration": 0.0078,
      "velocity": 93,
      "chip": "ym2612"
    },
    {
      "channel": 0,
      "note": 61,
      "start": 14.8497,
      "duration": 0.0211,
      "velocity": 88,
      "chip": "ym2612"
    },
    {
      "channel": 2,
      "note": 61,
      "start": 14.8504,
      "duration": 0.0184,
      "velocity": 93,
      "chip": "ym2612"
    },
    {
      "channel": 3,
      "note": 70,
      "start": 14.8558,
      "duration": 0.0532,
      "velocity": 102,
      "chip": "ym2612"
    },
    {
      "channel": 4,
      "note": 70,
      "start": 14.8613,
      "duration": 0.0513,
      "velocity": 102,
      "chip": "ym2612"
    },
    {
      "channel": 0,
      "note": 49,
      "start": 14.8768,
      "duration": 0.0108,
      "velocity": 88,
      "chip": "ym2612"
    },
    {
      "channel": 1,
      "note": 94,
      "start": 14.8773,
      "duration": 0.1325,
      "velocity": 102,
      "chip": "ym2612"
    },
    {
      "channel": 2,
      "note": 49,
      "start": 14.8778,
      "duration": 0.0079,
      "velocity": 93,
      "chip": "ym2612"
    },
    {
      "channel": 0,
      "note": 59,
      "start": 14.8941,
      "duration": 0.0107,
      "velocity": 88,
      "chip": "ym2612"
    },
    {
      "channel": 2,
      "note": 59,
      "start": 14.8948,
      "duration": 0.0081,
      "velocity": 93,
      "chip": "ym2612"
    },
    {
      "channel": 0,
      "note": 49,
      "start": 14.9109,
      "duration": 0.0241,
      "velocity": 88,
      "chip": "ym2612"
    },
    {
      "channel": 2,
      "note": 49,
      "start": 14.9116,
      "duration": 0.0083,
      "velocity": 93,
      "chip": "ym2612"
    },
    {
      "channel": 3,
      "note": 88,
      "start": 14.9122,
      "duration": 0.1584,
      "velocity": 102,
      "chip": "ym2612"
    },
    {
      "channel": 4,
      "note": 88,
      "start": 14.9129,
      "duration": 0.183,
      "velocity": 102,
      "chip": "ym2612"
    },
    {
      "channel": 0,
      "note": 58,
      "start": 14.9743,
      "duration": 0.0111,
      "velocity": 88,
      "chip": "ym2612"
    },
    {
      "channel": 2,
      "note": 58,
      "start": 14.975,
      "duration": 0.0085,
      "velocity": 93,
      "chip": "ym2612"
    },
    {
      "channel": 0,
      "note": 56,
      "start": 14.9915,
      "duration": 0.0107,
      "velocity": 88,
      "chip": "ym2612"
    },
    {
      "channel": 2,
      "note": 56,
      "start": 14.9922,
      "duration": 0.008,
      "velocity": 93,
      "chip": "ym2612"
    },
    {
      "channel": 0,
      "note": 52,
      "start": 15.0095,
      "duration": 0.0187,
      "velocity": 88,
      "chip": "ym2612"
    },
    {
      "channel": 1,
      "note": 83,
      "start": 15.0137,
      "duration": 0.0238,
      "velocity": 99,
      "chip": "ym2612"
    },
    {
      "channel": 2,
      "note": 71,
      "start": 15.0175,
      "duration": 0.5029,
      "velocity": 97,
      "chip": "ym2612"
    },
    {
      "channel": 0,
      "note": 52,
      "start": 15.0343,
      "duration": 0.1334,
      "velocity": 88,
      "chip": "ym2612"
    },
    {
      "channel": 1,
      "note": 76,
      "start": 15.0899,
      "duration": 0.1206,
      "velocity": 99,
      "chip": "ym2612"
    },
    {
      "channel": 3,
      "note": 94,
      "start": 15.0955,
      "duration": 0.4885,
      "velocity": 97,
      "chip": "ym2612"
    },
    {
      "channel": 4,
      "note": 94,
      "start": 15.1013,
      "duration": 0.11,
      "velocity": 100,
      "chip": "ym2612"
    },
    {
      "channel": 0,
      "note": 52,
      "start": 15.207,
      "duration": 0.0105,
      "velocity": 88,
      "chip": "ym2612"
    },
    {
      "channel": 0,
      "note": 52,
      "start": 15.2242,
      "duration": 0.041,
      "velocity": 88,
      "chip": "ym2612"
    },
    {
      "channel": 1,
      "note": 78,
      "start": 15.2248,
      "duration": 0.0195,
      "velocity": 99,
      "chip": "ym2612"
    },
    {
      "channel": 4,
      "note": 71,
      "start": 15.2259,
      "duration": 0.0191,
      "velocity": 100,
      "chip": "ym2612"
    },
    {
      "channel": 0,
      "note": 52,
      "start": 15.3046,
      "duration": 0.011,
      "velocity": 88,
      "chip": "ym2612"
    },
    {
      "channel": 1,
      "note": 76,
      "start": 15.3051,
      "duration": 0.0198,
      "velocity": 99,
      "chip": "ym2612"
    },
    {
      "channel": 4,
      "note": 64,
      "start": 15.3063,
      "duration": 0.0196,
      "velocity": 100,
      "chip": "ym2612"
    },
    {
      "channel": 0,
      "note": 52,
      "start": 15.3218,
      "duration": 0.0275,
      "velocity": 88,
      "chip": "ym2612"
    },
    {
      "channel": 1,
      "note": 79,
      "start": 15.3386,
      "duration": 0.0209,
      "velocity": 99,
      "chip": "ym2612"
    },
    {
      "channel": 4,
      "note": 66,
      "start": 15.3398,
      "duration": 0.0207,
      "velocity": 100,
      "chip": "ym2612"
    },
    {
      "channel": 0,
      "note": 52,
      "start": 15.356,
      "duration": 0.0108,
      "velocity": 88,
      "chip": "ym2612"
    },
    {
      "channel": 0,
      "note": 52,
      "start": 15.3729,
      "duration": 0.0282,
      "velocity": 88,
      "chip": "ym2612"
    },
    {
      "channel": 1,
      "note": 76,
      "start": 15.3734,
      "duration": 0.0032,
      "velocity": 99,
      "chip": "ym2612"
    },
    {
      "channel": 4,
      "note": 64,
      "start": 15.3746,
      "duration": 0.0202,
      "velocity": 100,
      "chip": "ym2612"
    },
    {
      "channel": 1,
      "note": 78,
      "start": 15.3906,
      "duration": 0.0209,
      "velocity": 99,
      "chip": "ym2612"
    },
    {
      "channel": 0,
      "note": 52,
      "start": 15.4076,
      "duration": 0.0411,
      "velocity": 88,
      "chip": "ym2612"
    },
    {
      "channel": 4,
      "note": 67,
      "start": 15.409,
      "duration": 0.0034,
      "velocity": 100,
      "chip": "ym2612"
    },
    {
      "channel": 1,
      "note": 76,
      "start": 15.4251,
      "duration": 0.0032,
      "velocity": 99,
      "chip": "ym2612"
    },
    {
      "channel": 4,
      "note": 64,
      "start": 15.4263,
      "duration": 0.0665,
      "velocity": 100,
      "chip": "ym2612"
    },
    {
      "channel": 0,
      "note": 52,
      "start": 15.488,
      "duration": 0.0284,
      "velocity": 88,
      "chip": "ym2612"
    },
    {
      "channel": 1,
      "note": 78,
      "start": 15.4885,
      "duration": 0.0034,
      "velocity": 99,
      "chip": "ym2612"
    },
    {
      "channel": 1,
      "note": 79,
      "start": 15.5056,
      "duration": 0.0035,
      "velocity": 99,
      "chip": "ym2612"
    },
    {
      "channel": 4,
      "note": 66,
      "start": 15.5068,
      "duration": 0.0033,
      "velocity": 100,
      "chip": "ym2612"
    },
    {
      "channel": 0,
      "note": 52,
      "start": 15.5228,
      "duration": 0.0117,
      "velocity": 88,
      "chip": "ym2612"
    },
    {
      "channel": 1,
      "note": 83,
      "start": 15.5233,
      "duration": 0.0207,
      "velocity": 99,
      "chip": "ym2612"
    },
    {
      "channel": 2,
      "note": 73,
      "start": 15.5238,
      "duration": 0.366,
      "velocity": 97,
      "chip": "ym2612"
    },
    {
      "channel": 4,
      "note": 64,
      "start": 15.5247,
      "duration": 0.0035,
      "velocity": 100,
      "chip": "ym2612"
    },
    {
      "channel": 0,
      "note": 52,
      "start": 15.5405,
      "duration": 0.0737,
      "velocity": 88,
      "chip": "ym2612"
    },
    {
      "channel": 4,
      "note": 66,
      "start": 15.5419,
      "duration": 0.003,
      "velocity": 100,
      "chip": "ym2612"
    },
    {
      "channel": 1,
      "note": 76,
      "start": 15.6033,
      "duration": 0.0205,
      "velocity": 99,
      "chip": "ym2612"
    },
    {
      "channel": 3,
      "note": 71,
      "start": 15.6041,
      "duration": 0.3495,
      "velocity": 97,
      "chip": "ym2612"
    },
    {
      "channel": 4,
      "note": 67,
      "start": 15.6048,
      "duration": 0.0198,
      "velocity": 100,
      "chip": "ym2612"
    },
    {
      "channel": 0,
      "note": 52,
      "start": 15.6204,
      "duration": 0.0103,
      "velocity": 88,
      "chip": "ym2612"
    },
    {
      "channel": 0,
      "note": 52,
      "start": 15.6377,
      "duration": 0.0276,
      "velocity": 88,
      "chip": "ym2612"
    },
    {
      "channel": 1,
      "note": 78,
      "start": 15.6382,
      "duration": 0.0201,
      "velocity": 99,
      "chip": "ym2612"
    },
    {
      "channel": 4,
      "note": 71,
      "start": 15.6393,
      "duration": 0.0198,
      "velocity": 100,
      "chip": "ym2612"
    },
    {
      "channel": 0,
      "note": 52,
      "start": 15.6715,
      "duration": 0.0108,
      "velocity": 88,
      "chip": "ym2612"
    },
    {
      "channel": 1,
      "note": 76,
      "start": 15.672,
      "duration": 0.0204,
      "velocity": 99,
      "chip": "ym2612"
    },
    {
      "channel": 4,
      "note": 64,
      "start": 15.6732,
      "duration": 0.0202,
      "velocity": 100,
      "chip": "ym2612"
    },
    {
      "channel": 0,
      "note": 52,
      "start": 15.689,
      "duration": 0.0285,
      "velocity": 88,
      "chip": "ym2612"
    },
    {
      "channel": 1,
      "note": 79,
      "start": 15.7065,
      "duration": 0.0211,
      "velocity": 99,
      "chip": "ym2612"
    },
    {
      "channel": 4,
      "note": 66,
      "start": 15.7077,
      "duration": 0.0208,
      "velocity": 100,
      "chip": "ym2612"
    },
    {
      "channel": 0,
      "note": 52,
      "start": 15.724,
      "duration": 0.0108,
      "velocity": 88,
      "chip": "ym2612"
    },
    {
      "channel": 0,
      "note": 52,
      "start": 15.7413,
      "duration": 0.0295,
      "velocity": 88,
      "chip": "ym2612"
    },
    {
      "channel": 1,
      "note": 76,
      "start": 15.7419,
      "duration": 0.0037,
      "velocity": 99,
      "chip": "ym2612"
    },
    {
      "channel": 4,
      "note": 64,
      "start": 15.7431,
      "duration": 0.0216,
      "velocity": 100,
      "chip": "ym2612"
    },
    {
      "channel": 1,
      "note": 78,
      "start": 15.7605,
      "duration": 0.0212,
      "velocity": 99,
      "chip": "ym2612"
    },
    {
      "channel": 0,
      "note": 52,
      "start": 15.7776,
      "duration": 0.041,
      "velocity": 88,
      "chip": "ym2612"
    },
    {
      "channel": 4,
      "note": 67,
      "start": 15.779,
      "duration": 0.0035,
      "velocity": 100,
      "chip": "ym2612"
    },
    {
      "channel": 1,
      "note": 79,
      "start": 15.7951,
      "duration": 0.0033,
      "velocity": 99,
      "chip": "ym2612"
    },
    {
      "channel": 4,
      "note": 64,
      "start": 15.7963,
      "duration": 0.0663,
      "velocity": 100,
      "chip": "ym2612"
    },
    {
      "channel": 0,
      "note": 52,
      "start": 15.8579,
      "duration": 0.0277,
      "velocity": 88,
      "chip": "ym2612"
    },
    {
      "channel": 1,
      "note": 81,
      "start": 15.8584,
      "duration": 0.0033,
      "velocity": 99,
      "chip": "ym2612"
    },
    {
      "channel": 1,
      "note": 85,
      "start": 15.8752,
      "duration": 0.0033,
      "velocity": 99,
      "chip": "ym2612"
    },
    {
      "channel": 4,
      "note": 66,
      "start": 15.8763,
      "duration": 0.003,
      "velocity": 100,
      "chip": "ym2612"
    },
    {
      "channel": 0,
      "note": 52,
      "start": 15.8925,
      "duration": 0.0153,
      "velocity": 88,
      "chip": "ym2612"
    },
    {
      "channel": 1,
      "note": 83,
      "start": 15.8966,
      "duration": 0.0208,
      "velocity": 99,
      "chip": "ym2612"
    },
    {
      "channel": 2,
      "note": 74,
      "start": 15.8971,
      "duration": 0.5064,
      "velocity": 97,
      "chip": "ym2612"
    },
    {
      "channel": 4,
      "note": 67,
      "start": 15.898,
      "duration": 0.0036,
      "velocity": 100,
      "chip": "ym2612"
    },
    {
      "channel": 0,
      "note": 52,
      "start": 15.914,
      "duration": 0.1367,
      "velocity": 88,
      "chip": "ym2612"
    },
    {
      "channel": 4,
      "note": 69,
      "start": 15.9153,
      "duration": 0.003,
      "velocity": 100,
      "chip": "ym2612"
    },
    {
      "channel": 1,
      "note": 76,
      "start": 15.9729,
      "duration": 0.1206,
      "velocity": 99,
      "chip": "ym2612"
    },
    {
      "channel": 3,
      "note": 73,
      "start": 15.9737,
      "duration": 0.4934,
      "velocity": 97,
      "chip": "ym2612"
    },
    {
      "channel": 4,
      "note": 73,
      "start": 15.9745,
      "duration": 0.1198,
      "velocity": 100,
      "chip": "ym2612"
    },
    {
      "channel": 0,
      "note": 52,
      "start": 16.09,
      "duration": 0.0104,
      "velocity": 88,
      "chip": "ym2612"
    },
    {
      "channel": 0,
      "note": 52,
      "start": 16.1074,
      "duration": 0.0411,
      "velocity": 88,
      "chip": "ym2612"
    },
    {
      "channel": 1,
      "note": 78,
      "start": 16.1078,
      "duration": 0.0196,
      "velocity": 99,
      "chip": "ym2612"
    },
    {
      "channel": 4,
      "note": 71,
      "start": 16.109,
      "duration": 0.0193,
      "velocity": 100,
      "chip": "ym2612"
    },
    {
      "channel": 0,
      "note": 52,
      "start": 16.1877,
      "duration": 0.0111,
      "velocity": 88,
      "chip": "ym2612"
    },
    {
      "channel": 1,
      "note": 76,
      "start": 16.1882,
      "duration": 0.0198,
      "velocity": 99,
      "chip": "ym2612"
    },
    {
      "channel": 4,
      "note": 64,
      "start": 16.1894,
      "duration": 0.0196,
      "velocity": 100,
      "chip": "ym2612"
    },
    {
      "channel": 0,
      "note": 52,
      "start": 16.2049,
      "duration": 0.0275,
      "velocity": 88,
      "chip": "ym2612"
    },
    {
      "channel": 1,
      "note": 79,
      "start": 16.2217,
      "duration": 0.0208,
      "velocity": 99,
      "chip": "ym2612"
    },
    {
      "channel": 4,
      "note": 66,
      "start": 16.2228,
      "duration": 0.0206,
      "velocity": 100,
      "chip": "ym2612"
    },
    {
      "channel": 0,
      "note": 52,
      "start": 16.239,
      "duration": 0.0108,
      "velocity": 88,
      "chip": "ym2612"
    },
    {
      "channel": 0,
      "note": 52,
      "start": 16.256,
      "duration": 0.0283,
      "velocity": 88,
      "chip": "ym2612"
    },
    {
      "channel": 1,
      "note": 76,
      "start": 16.2565,
      "duration": 0.0033,
      "velocity": 99,
      "chip": "ym2612"
    },
    {
      "channel": 4,
      "note": 64,
      "start": 16.2577,
      "duration": 0.0203,
      "velocity": 100,
      "chip": "ym2612"
    },
    {
      "channel": 1,
      "note": 78,
      "start": 16.2739,
      "duration": 0.0207,
      "velocity": 99,
      "chip": "ym2612"
    },
    {
      "channel": 0,
      "note": 52,
      "start": 16.2907,
      "duration": 0.0411,
      "velocity": 88,
      "chip": "ym2612"
    },
    {
      "channel": 4,
      "note": 67,
      "start": 16.292,
      "duration": 0.0034,
      "velocity": 100,
      "chip": "ym2612"
    },
    {
      "channel": 1,
      "note": 76,
      "start": 16.3082,
      "duration": 0.0033,
      "velocity": 99,
      "chip": "ym2612"
    },
    {
      "channel": 4,
      "note": 64,
      "start": 16.3093,
      "duration": 0.0665,
      "velocity": 100,
      "chip": "ym2612"
    },
    {
      "channel": 0,
      "note": 52,
      "start": 16.371,
      "duration": 0.0284,
      "velocity": 88,
      "chip": "ym2612"
    },
    {
      "channel": 1,
      "note": 78,
      "start": 16.3716,
      "duration": 0.0033,
      "velocity": 99,
      "chip": "ym2612"
    },
    {
      "channel": 1,
      "note": 79,
      "start": 16.3885,
      "duration": 0.0036,
      "velocity": 99,
      "chip": "ym2612"
    },
    {
      "channel": 4,
      "note": 66,
      "start": 16.3897,
      "duration": 0.0034,
      "velocity": 100,
      "chip": "ym2612"
    },
    {
      "channel": 0,
      "note": 52,
      "start": 16.4059,
      "duration": 0.0123,
      "velocity": 88,
      "chip": "ym2612"
    },
    {
      "channel": 1,
      "note": 83,
      "start": 16.4064,
      "duration": 0.0214,
      "velocity": 99,
      "chip": "ym2612"
    },
    {
      "channel": 2,
      "note": 78,
      "start": 16.4068,
      "duration": 0.3209,
      "velocity": 97,
      "chip": "ym2612"
    },
    {
      "channel": 4,
      "note": 64,
      "start": 16.4078,
      "duration": 0.0042,
      "velocity": 100,
      "chip": "ym2612"
    },
    {
      "channel": 0,
      "note": 52,
      "start": 16.4243,
      "duration": 0.0729,
      "velocity": 88,
      "chip": "ym2612"
    },
    {
      "channel": 4,
      "note": 66,
      "start": 16.4257,
      "duration": 0.0029,
      "velocity": 100,
      "chip": "ym2612"
    },
    {
      "channel": 1,
      "note": 76,
      "start": 16.4863,
      "duration": 0.0204,
      "velocity": 99,
      "chip": "ym2612"
    },
    {
      "channel": 3,
      "note": 74,
      "start": 16.4872,
      "duration": 0.3041,
      "velocity": 97,
      "chip": "ym2612"
    },
    {
      "channel": 4,
      "note": 67,
      "start": 16.4879,
      "duration": 0.0197,
      "velocity": 100,
      "chip": "ym2612"
    },
    {
      "channel": 0,
      "note": 52,
      "start": 16.5034,
      "duration": 0.0103,
      "velocity": 88,
      "chip": "ym2612"
    },
    {
      "channel": 0,
      "note": 52,
      "start": 16.5207,
      "duration": 0.0275,
      "velocity": 88,
      "chip": "ym2612"
    },
    {
      "channel": 1,
      "note": 78,
      "start": 16.5211,
      "duration": 0.0201,
      "velocity": 99,
      "chip": "ym2612"
    },
    {
      "channel": 4,
      "note": 71,
      "start": 16.5222,
      "duration": 0.0198,
      "velocity": 100,
      "chip": "ym2612"
    },
    {
      "channel": 0,
      "note": 52,
      "start": 16.5544,
      "duration": 0.0108,
      "velocity": 88,
      "chip": "ym2612"
    },
    {
      "channel": 1,
      "note": 76,
      "start": 16.5549,
      "duration": 0.0206,
      "velocity": 99,
      "chip": "ym2612"
    },
    {
      "channel": 4,
      "note": 64,
      "start": 16.5561,
      "duration": 0.0202,
      "velocity": 100,
      "chip": "ym2612"
    },
    {
      "channel": 0,
      "note": 52,
      "start": 16.5719,
      "duration": 0.0284,
      "velocity": 88,
      "chip": "ym2612"
    },
    {
      "channel": 1,
      "note": 79,
      "start": 16.5894,
      "duration": 0.021,
      "velocity": 99,
      "chip": "ym2612"
    },
    {
      "channel": 4,
      "note": 66,
      "start": 16.5906,
      "duration": 0.0207,
      "velocity": 100,
      "chip": "ym2612"
    },
    {
      "channel": 0,
      "note": 52,
      "start": 16.6069,
      "duration": 0.0107,
      "velocity": 88,
      "chip": "ym2612"
    },
    {
      "channel": 0,
      "note": 52,
      "start": 16.6241,
      "duration": 0.0294,
      "velocity": 88,
      "chip": "ym2612"
    },
    {
      "channel": 1,
      "note": 76,
      "start": 16.6247,
      "duration": 0.0037,
      "velocity": 99,
      "chip": "ym2612"
    },
    {
      "channel": 4,
      "note": 64,
      "start": 16.6258,
      "duration": 0.0215,
      "velocity": 100,
      "chip": "ym2612"
    },
    {
      "channel": 1,
      "note": 78,
      "start": 16.6432,
      "duration": 0.0211,
      "velocity": 99,
      "chip": "ym2612"
    },
    {
      "channel": 0,
      "note": 58,
      "start": 16.6603,
      "duration": 0.0113,
      "velocity": 88,
      "chip": "ym2612"
    },
    {
      "channel": 4,
      "note": 67,
      "start": 16.6617,
      "duration": 0.0035,
      "velocity": 100,
      "chip": "ym2612"
    },
    {
      "channel": 0,
      "note": 59,
      "start": 16.6777,
      "duration": 0.0113,
      "velocity": 88,
      "chip": "ym2612"
    },
    {
      "channel": 1,
      "note": 79,
      "start": 16.6782,
      "duration": 0.0037,
      "velocity": 99,
      "chip": "ym2612"
    },
    {
      "channel": 4,
      "note": 64,
      "start": 16.6794,
      "duration": 0.021,
      "velocity": 100,
      "chip": "ym2612"
    },
    {
      "channel": 0,
      "note": 54,
      "start": 16.6953,
      "duration": 0.0114,
      "velocity": 88,
      "chip": "ym2612"
    },
    {
      "channel": 1,
      "note": 81,
      "start": 16.6958,
      "duration": 0.0037,
      "velocity": 99,
      "chip": "ym2612"
    },
    {
      "channel": 0,
      "note": 55,
      "start": 16.7129,
      "duration": 0.0109,
      "velocity": 88,
      "chip": "ym2612"
    },
    {
      "channel": 1,
      "note": 85,
      "start": 16.7134,
      "duration": 0.0032,
      "velocity": 99,
      "chip": "ym2612"
    },
    {
      "channel": 4,
      "note": 66,
      "start": 16.7145,
      "duration": 0.0029,
      "velocity": 100,
      "chip": "ym2612"
    },
    {
      "channel": 0,
      "note": 55,
      "start": 16.7303,
      "duration": 0.0124,
      "velocity": 88,
      "chip": "ym2612"
    },
    {
      "channel": 1,
      "note": 82,
      "start": 16.731,
      "duration": 0.0212,
      "velocity": 99,
      "chip": "ym2612"
    },
    {
      "channel": 2,
      "note": 74,
      "start": 16.7315,
      "duration": 0.5096,
      "velocity": 97,
      "chip": "ym2612"
    },
    {
      "channel": 4,
      "note": 67,
      "start": 16.7324,
      "duration": 0.0041,
      "velocity": 100,
      "chip": "ym2612"
    },
    {
      "channel": 0,
      "note": 55,
      "start": 16.7488,
      "duration": 0.1396,
      "velocity": 88,
      "chip": "ym2612"
    },
    {
      "channel": 4,
      "note": 69,
      "start": 16.7502,
      "duration": 0.0029,
      "velocity": 100,
      "chip": "ym2612"
    },
    {
      "channel": 1,
      "note": 74,
      "start": 16.8106,
      "duration": 0.1206,
      "velocity": 99,
      "chip": "ym2612"
    },
    {
      "channel": 3,
      "note": 78,
      "start": 16.8114,
      "duration": 0.4933,
      "velocity": 97,
      "chip": "ym2612"
    },
    {
      "channel": 4,
      "note": 73,
      "start": 16.8123,
      "duration": 0.1198,
      "velocity": 100,
      "chip": "ym2612"
    },
    {
      "channel": 0,
      "note": 55,
      "start": 16.9278,
      "duration": 0.0105,
      "velocity": 88,
      "chip": "ym2612"
    },
    {
      "channel": 0,
      "note": 55,
      "start": 16.945,
      "duration": 0.0411,
      "velocity": 88,
      "chip": "ym2612"
    },
    {
      "channel": 1,
      "note": 76,
      "start": 16.9455,
      "duration": 0.0195,
      "velocity": 99,
      "chip": "ym2612"
    },
    {
      "channel": 4,
      "note": 70,
      "start": 16.9467,
      "duration": 0.0192,
      "velocity": 100,
      "chip": "ym2612"
    },
    {
      "channel": 0,
      "note": 55,
      "start": 17.0254,
      "duration": 0.0113,
      "velocity": 88,
      "chip": "ym2612"
    },
    {
      "channel": 1,
      "note": 74,
      "start": 17.0259,
      "duration": 0.0201,
      "velocity": 99,
      "chip": "ym2612"
    },
    {
      "channel": 4,
      "note": 62,
      "start": 17.0271,
      "duration": 0.0199,
      "velocity": 100,
      "chip": "ym2612"
    },
    {
      "channel": 0,
      "note": 55,
      "start": 17.0429,
      "duration": 0.0274,
      "velocity": 88,
      "chip": "ym2612"
    },
    {
      "channel": 1,
      "note": 77,
      "start": 17.0595,
      "duration": 0.021,
      "velocity": 99,
      "chip": "ym2612"
    },
    {
      "channel": 4,
      "note": 64,
      "start": 17.0607,
      "duration": 0.0207,
      "velocity": 100,
      "chip": "ym2612"
    },
    {
      "channel": 0,
      "note": 55,
      "start": 17.0769,
      "duration": 0.0108,
      "velocity": 88,
      "chip": "ym2612"
    },
    {
      "channel": 0,
      "note": 55,
      "start": 17.0939,
      "duration": 0.0281,
      "velocity": 88,
      "chip": "ym2612"
    },
    {
      "channel": 1,
      "note": 74,
      "start": 17.0944,
      "duration": 0.0033,
      "velocity": 99,
      "chip": "ym2612"
    },
    {
      "channel": 4,
      "note": 62,
      "start": 17.0956,
      "duration": 0.0201,
      "velocity": 100,
      "chip": "ym2612"
    },
    {
      "channel": 1,
      "note": 76,
      "start": 17.1116,
      "duration": 0.0206,
      "velocity": 99,
      "chip": "ym2612"
    },
    {
      "channel": 0,
      "note": 55,
      "start": 17.1283,
      "duration": 0.041,
      "velocity": 88,
      "chip": "ym2612"
    },
    {
      "channel": 4,
      "note": 65,
      "start": 17.1297,
      "duration": 0.0034,
      "velocity": 100,
      "chip": "ym2612"
    },
    {
      "channel": 1,
      "note": 74,
      "start": 17.1458,
      "duration": 0.0033,
      "velocity": 99,
      "chip": "ym2612"
    },
    {
      "channel": 4,
      "note": 62,
      "start": 17.1469,
      "duration": 0.0664,
      "velocity": 100,
      "chip": "ym2612"
    },
    {
      "channel": 0,
      "note": 55,
      "start": 17.2087,
      "duration": 0.0283,
      "velocity": 88,
      "chip": "ym2612"
    },
    {
      "channel": 1,
      "note": 77,
      "start": 17.2092,
      "duration": 0.0033,
      "velocity": 99,
      "chip": "ym2612"
    },
    {
      "channel": 1,
      "note": 79,
      "start": 17.2262,
      "duration": 0.0035,
      "velocity": 99,
      "chip": "ym2612"
    },
    {
      "channel": 4,
      "note": 64,
      "start": 17.2274,
      "duration": 0.0033,
      "velocity": 100,
      "chip": "ym2612"
    },
    {
      "channel": 0,
      "note": 55,
      "start": 17.2436,
      "duration": 0.0117,
      "velocity": 88,
      "chip": "ym2612"
    },
    {
      "channel": 1,
      "note": 82,
      "start": 17.2442,
      "duration": 0.0207,
      "velocity": 99,
      "chip": "ym2612"
    },
    {
      "channel": 2,
      "note": 76,
      "start": 17.2447,
      "duration": 0.3656,
      "velocity": 97,
      "chip": "ym2612"
    },
    {
      "channel": 4,
      "note": 62,
      "start": 17.2456,
      "duration": 0.0035,
      "velocity": 100,
      "chip": "ym2612"
    },
    {
      "channel": 0,
      "note": 55,
      "start": 17.2615,
      "duration": 0.0734,
      "velocity": 88,
      "chip": "ym2612"
    },
    {
      "channel": 4,
      "note": 65,
      "start": 17.2628,
      "duration": 0.0029,
      "velocity": 100,
      "chip": "ym2612"
    },
    {
      "channel": 1,
      "note": 74,
      "start": 17.324,
      "duration": 0.0203,
      "velocity": 99,
      "chip": "ym2612"
    },
    {
      "channel": 3,
      "note": 74,
      "start": 17.3248,
      "duration": 0.3494,
      "velocity": 97,
      "chip": "ym2612"
    },
    {
      "channel": 4,
      "note": 67,
      "start": 17.3256,
      "duration": 0.0196,
      "velocity": 100,
      "chip": "ym2612"
    },
    {
      "channel": 0,
      "note": 55,
      "start": 17.341,
      "duration": 0.0102,
      "velocity": 88,
      "chip": "ym2612"
    },
    {
      "channel": 0,
      "note": 55,
      "start": 17.3581,
      "duration": 0.0278,
      "velocity": 88,
      "chip": "ym2612"
    },
    {
      "channel": 1,
      "note": 76,
      "start": 17.3586,
      "duration": 0.0202,
      "velocity": 99,
      "chip": "ym2612"
    },
    {
      "channel": 4,
      "note": 70,
      "start": 17.3597,
      "duration": 0.02,
      "velocity": 100,
      "chip": "ym2612"
    },
    {
      "channel": 0,
      "note": 55,
      "start": 17.392,
      "duration": 0.0109,
      "velocity": 88,
      "chip": "ym2612"
    },
    {
      "channel": 1,
      "note": 74,
      "start": 17.3925,
      "duration": 0.0204,
      "velocity": 99,
      "chip": "ym2612"
    },
    {
      "channel": 4,
      "note": 62,
      "start": 17.3938,
      "duration": 0.0201,
      "velocity": 100,
      "chip": "ym2612"
    },
    {
      "channel": 0,
      "note": 55,
      "start": 17.4095,
      "duration": 0.0283,
      "velocity": 88,
      "chip": "ym2612"
    },
    {
      "channel": 1,
      "note": 77,
      "start": 17.4269,
      "duration": 0.0209,
      "velocity": 99,
      "chip": "ym2612"
    },
    {
      "channel": 4,
      "note": 64,
      "start": 17.428,
      "duration": 0.0207,
      "velocity": 100,
      "chip": "ym2612"
    },
    {
      "channel": 0,
      "note": 55,
      "start": 17.4443,
      "duration": 0.0108,
      "velocity": 88,
      "chip": "ym2612"
    },
    {
      "channel": 0,
      "note": 55,
      "start": 17.4615,
      "duration": 0.0297,
      "velocity": 88,
      "chip": "ym2612"
    },
    {
      "channel": 1,
      "note": 74,
      "start": 17.462,
      "duration": 0.0037,
      "velocity": 99,
      "chip": "ym2612"
    },
    {
      "channel": 4,
      "note": 62,
      "start": 17.4632,
      "duration": 0.0216,
      "velocity": 100,
      "chip": "ym2612"
    },
    {
      "channel": 1,
      "note": 76,
      "start": 17.4807,
      "duration": 0.0211,
      "velocity": 99,
      "chip": "ym2612"
    },
    {
      "channel": 0,
      "note": 55,
      "start": 17.4979,
      "duration": 0.0412,
      "velocity": 88,
      "chip": "ym2612"
    },
    {
      "channel": 4,
      "note": 65,
      "start": 17.4993,
      "duration": 0.0035,
      "velocity": 100,
      "chip": "ym2612"
    },
    {
      "channel": 1,
      "note": 77,
      "start": 17.5155,
      "duration": 0.0033,
      "velocity": 99,
      "chip": "ym2612"
    },
    {
      "channel": 4,
      "note": 62,
      "start": 17.5167,
      "duration": 0.0665,
      "velocity": 100,
      "chip": "ym2612"
    },
    {
      "channel": 0,
      "note": 55,
      "start": 17.5784,
      "duration": 0.028,
      "velocity": 88,
      "chip": "ym2612"
    },
    {
      "channel": 1,
      "note": 79,
      "start": 17.5788,
      "duration": 0.0034,
      "velocity": 99,
      "chip": "ym2612"
    },
    {
      "channel": 1,
      "note": 81,
      "start": 17.5958,
      "duration": 0.0033,
      "velocity": 99,
      "chip": "ym2612"
    },
    {
      "channel": 4,
      "note": 64,
      "start": 17.5969,
      "duration": 0.0031,
      "velocity": 100,
      "chip": "ym2612"
    },
    {
      "channel": 0,
      "note": 55,
      "start": 17.6131,
      "duration": 0.0119,
      "velocity": 88,
      "chip": "ym2612"
    },
    {
      "channel": 1,
      "note": 82,
      "start": 17.6138,
      "duration": 0.0208,
      "velocity": 99,
      "chip": "ym2612"
    },
    {
      "channel": 2,
      "note": 77,
      "start": 17.6143,
      "duration": 0.5099,
      "velocity": 97,
      "chip": "ym2612"
    },
    {
      "channel": 4,
      "note": 65,
      "start": 17.6152,
      "duration": 0.0037,
      "velocity": 100,
      "chip": "ym2612"
    },
    {
      "channel": 0,
      "note": 55,
      "start": 17.6312,
      "duration": 0.1402,
      "velocity": 88,
      "chip": "ym2612"
    },
    {
      "channel": 4,
      "note": 67,
      "start": 17.6326,
      "duration": 0.0029,
      "velocity": 100,
      "chip": "ym2612"
    },
    {
      "channel": 1,
      "note": 74,
      "start": 17.6935,
      "duration": 0.1207,
      "velocity": 99,
      "chip": "ym2612"
    },
    {
      "channel": 3,
      "note": 76,
      "start": 17.6944,
      "duration": 0.4933,
      "velocity": 97,
      "chip": "ym2612"
    },
    {
      "channel": 4,
      "note": 69,
      "start": 17.6952,
      "duration": 0.1199,
      "velocity": 100,
      "chip": "ym2612"
    },
    {
      "channel": 0,
      "note": 55,
      "start": 17.8108,
      "duration": 0.0104,
      "velocity": 88,
      "chip": "ym2612"
    },
    {
      "channel": 0,
      "note": 55,
      "start": 17.828,
      "duration": 0.0411,
      "velocity": 88,
      "chip": "ym2612"
    },
    {
      "channel": 1,
      "note": 76,
      "start": 17.8285,
      "duration": 0.0196,
      "velocity": 99,
      "chip": "ym2612"
    },
    {
      "channel": 4,
      "note": 70,
      "start": 17.8296,
      "duration": 0.0192,
      "velocity": 100,
      "chip": "ym2612"
    },
    {
      "channel": 0,
      "note": 55,
      "start": 17.9084,
      "duration": 0.011,
      "velocity": 88,
      "chip": "ym2612"
    },
    {
      "channel": 1,
      "note": 74,
      "start": 17.9089,
      "duration": 0.0199,
      "velocity": 99,
      "chip": "ym2612"
    },
    {
      "channel": 4,
      "note": 62,
      "start": 17.9101,
      "duration": 0.0197,
      "velocity": 100,
      "chip": "ym2612"
    },
    {
      "channel": 0,
      "note": 55,
      "start": 17.9257,
      "duration": 0.0275,
      "velocity": 88,
      "chip": "ym2612"
    },
    {
      "channel": 1,
      "note": 77,
      "start": 17.9425,
      "duration": 0.0208,
      "velocity": 99,
      "chip": "ym2612"
    },
    {
      "channel": 4,
      "note": 64,
      "start": 17.9437,
      "duration": 0.0204,
      "velocity": 100,
      "chip": "ym2612"
    },
    {
      "channel": 0,
      "note": 55,
      "start": 17.9598,
      "duration": 0.0107,
      "velocity": 88,
      "chip": "ym2612"
    },
    {
      "channel": 0,
      "note": 55,
      "start": 17.9767,
      "duration": 0.0282,
      "velocity": 88,
      "chip": "ym2612"
    },
    {
      "channel": 1,
      "note": 74,
      "start": 17.9772,
      "duration": 0.0032,
      "velocity": 99,
      "chip": "ym2612"
    },
    {
      "channel": 4,
      "note": 62,
      "start": 17.9784,
      "duration": 0.0202,
      "velocity": 100,
      "chip": "ym2612"
    },
    {
      "channel": 1,
      "note": 76,
      "start": 17.9945,
      "duration": 0.0207,
      "velocity": 99,
      "chip": "ym2612"
    },
    {
      "channel": 0,
      "note": 55,
      "start": 18.0113,
      "duration": 0.0412,
      "velocity": 88,
      "chip": "ym2612"
    },
    {
      "channel": 4,
      "note": 65,
      "start": 18.0126,
      "duration": 0.0035,
      "velocity": 100,
      "chip": "ym2612"
    },
    {
      "channel": 1,
      "note": 74,
      "start": 18.0289,
      "duration": 0.0033,
      "velocity": 99,
      "chip": "ym2612"
    },
    {
      "channel": 4,
      "note": 62,
      "start": 18.03,
      "duration": 0.0665,
      "velocity": 100,
      "chip": "ym2612"
    },
    {
      "channel": 0,
      "note": 55,
      "start": 18.0917,
      "duration": 0.0284,
      "velocity": 88,
      "chip": "ym2612"
    },
    {
      "channel": 1,
      "note": 77,
      "start": 18.0923,
      "duration": 0.0033,
      "velocity": 99,
      "chip": "ym2612"
    },
    {
      "channel": 1,
      "note": 79,
      "start": 18.1094,
      "duration": 0.0035,
      "velocity": 99,
      "chip": "ym2612"
    },
    {
      "channel": 4,
      "note": 64,
      "start": 18.1106,
      "duration": 0.0032,
      "velocity": 100,
      "chip": "ym2612"
    },
    {
      "channel": 0,
      "note": 55,
      "start": 18.1265,
      "duration": 0.0129,
      "velocity": 88,
      "chip": "ym2612"
    },
    {
      "channel": 1,
      "note": 82,
      "start": 18.1276,
      "duration": 0.0215,
      "velocity": 99,
      "chip": "ym2612"
    },
    {
      "channel": 2,
      "note": 81,
      "start": 18.1281,
      "duration": 0.3222,
      "velocity": 97,
      "chip": "ym2612"
    },
    {
      "channel": 4,
      "note": 62,
      "start": 18.129,
      "duration": 0.0042,
      "velocity": 100,
      "chip": "ym2612"
    },
    {
      "channel": 0,
      "note": 55,
      "start": 18.1456,
      "duration": 0.0728,
      "velocity": 88,
      "chip": "ym2612"
    },
    {
      "channel": 4,
      "note": 65,
      "start": 18.1469,
      "duration": 0.003,
      "velocity": 100,
      "chip": "ym2612"
    },
    {
      "channel": 1,
      "note": 74,
      "start": 18.2071,
      "duration": 0.022,
      "velocity": 99,
      "chip": "ym2612"
    },
    {
      "channel": 3,
      "note": 77,
      "start": 18.2079,
      "duration": 0.306,
      "velocity": 97,
      "chip": "ym2612"
    },
    {
      "channel": 4,
      "note": 67,
      "start": 18.209,
      "duration": 0.0209,
      "velocity": 100,
      "chip": "ym2612"
    },
    {
      "channel": 0,
      "note": 55,
      "start": 18.2257,
      "duration": 0.0102,
      "velocity": 88,
      "chip": "ym2612"
    },
    {
      "channel": 0,
      "note": 55,
      "start": 18.2429,
      "duration": 0.0278,
      "velocity": 88,
      "chip": "ym2612"
    },
    {
      "channel": 1,
      "note": 76,
      "start": 18.2433,
      "duration": 0.0202,
      "velocity": 99,
      "chip": "ym2612"
    },
    {
      "channel": 4,
      "note": 70,
      "start": 18.2445,
      "duration": 0.02,
      "velocity": 100,
      "chip": "ym2612"
    },
    {
      "channel": 0,
      "note": 55,
      "start": 18.2769,
      "duration": 0.0108,
      "velocity": 88,
      "chip": "ym2612"
    },
    {
      "channel": 1,
      "note": 74,
      "start": 18.2774,
      "duration": 0.0205,
      "velocity": 99,
      "chip": "ym2612"
    },
    {
      "channel": 4,
      "note": 62,
      "start": 18.2785,
      "duration": 0.0202,
      "velocity": 100,
      "chip": "ym2612"
    },
    {
      "channel": 0,
      "note": 55,
      "start": 18.2943,
      "duration": 0.0283,
      "velocity": 88,
      "chip": "ym2612"
    },
    {
      "channel": 1,
      "note": 77,
      "start": 18.3117,
      "duration": 0.0208,
      "velocity": 99,
      "chip": "ym2612"
    },
    {
      "channel": 4,
      "note": 64,
      "start": 18.3129,
      "duration": 0.0207,
      "velocity": 100,
      "chip": "ym2612"
    },
    {
      "channel": 0,
      "note": 55,
      "start": 18.329,
      "duration": 0.0108,
      "velocity": 88,
      "chip": "ym2612"
    },
    {
      "channel": 0,
      "note": 55,
      "start": 18.3463,
      "duration": 0.0295,
      "velocity": 88,
      "chip": "ym2612"
    },
    {
      "channel": 1,
      "note": 74,
      "start": 18.3469,
      "duration": 0.0037,
      "velocity": 99,
      "chip": "ym2612"
    },
    {
      "channel": 4,
      "note": 62,
      "start": 18.3481,
      "duration": 0.0215,
      "velocity": 100,
      "chip": "ym2612"
    },
    {
      "channel": 1,
      "note": 76,
      "start": 18.3655,
      "duration": 0.0211,
      "velocity": 99,
      "chip": "ym2612"
    },
    {
      "channel": 0,
      "note": 61,
      "start": 18.3826,
      "duration": 0.0113,
      "velocity": 88,
      "chip": "ym2612"
    },
    {
      "channel": 4,
      "note": 65,
      "start": 18.384,
      "duration": 0.0035,
      "velocity": 100,
      "chip": "ym2612"
    },
    {
      "channel": 0,
      "note": 62,
      "start": 18.4002,
      "duration": 0.0112,
      "velocity": 88,
      "chip": "ym2612"
    },
    {
      "channel": 1,
      "note": 74,
      "start": 18.4007,
      "duration": 0.0037,
      "velocity": 99,
      "chip": "ym2612"
    },
    {
      "channel": 4,
      "note": 62,
      "start": 18.4018,
      "duration": 0.0211,
      "velocity": 100,
      "chip": "ym2612"
    },
    {
      "channel": 0,
      "note": 57,
      "start": 18.4178,
      "duration": 0.0114,
      "velocity": 88,
      "chip": "ym2612"
    },
    {
      "channel": 1,
      "note": 79,
      "start": 18.4183,
      "duration": 0.0037,
      "velocity": 99,
      "chip": "ym2612"
    },
    {
      "channel": 0,
      "note": 58,
      "start": 18.4354,
      "duration": 0.0109,
      "velocity": 88,
      "chip": "ym2612"
    },
    {
      "channel": 1,
      "note": 81,
      "start": 18.4359,
      "duration": 0.0032,
      "velocity": 99,
      "chip": "ym2612"
    },
    {
      "channel": 4,
      "note": 64,
      "start": 18.437,
      "duration": 0.003,
      "velocity": 100,
      "chip": "ym2612"
    },
    {
      "channel": 0,
      "note": 52,
      "start": 18.4527,
      "duration": 0.0124,
      "velocity": 88,
      "chip": "ym2612"
    },
    {
      "channel": 1,
      "note": 83,
      "start": 18.4534,
      "duration": 0.0213,
      "velocity": 99,
      "chip": "ym2612"
    },
    {
      "channel": 2,
      "note": 83,
      "start": 18.4539,
      "duration": 0.5097,
      "velocity": 97,
      "chip": "ym2612"
    },
    {
      "channel": 4,
      "note": 62,
      "start": 18.4548,
      "duration": 0.0042,
      "velocity": 100,
      "chip": "ym2612"
    },
    {
      "channel": 0,
      "note": 52,
      "start": 18.4713,
      "duration": 0.1398,
      "velocity": 88,
      "chip": "ym2612"
    },
    {
      "channel": 4,
      "note": 67,
      "start": 18.4726,
      "duration": 0.0029,
      "velocity": 100,
      "chip": "ym2612"
    },
    {
      "channel": 1,
      "note": 76,
      "start": 18.5332,
      "duration": 0.1206,
      "velocity": 99,
      "chip": "ym2612"
    },
    {
      "channel": 3,
      "note": 81,
      "start": 18.5339,
      "duration": 0.4934,
      "velocity": 97,
      "chip": "ym2612"
    },
    {
      "channel": 4,
      "note": 69,
      "start": 18.5348,
      "duration": 0.1198,
      "velocity": 100,
      "chip": "ym2612"
    },
    {
      "channel": 0,
      "note": 52,
      "start": 18.6503,
      "duration": 0.0105,
      "velocity": 88,
      "chip": "ym2612"
    },
    {
      "channel": 0,
      "note": 52,
      "start": 18.6675,
      "duration": 0.0412,
      "velocity": 88,
      "chip": "ym2612"
    },
    {
      "channel": 1,
      "note": 78,
      "start": 18.668,
      "duration": 0.0196,
      "velocity": 99,
      "chip": "ym2612"
    },
    {
      "channel": 4,
      "note": 71,
      "start": 18.6692,
      "duration": 0.0193,
      "velocity": 100,
      "chip": "ym2612"
    },
    {
      "channel": 0,
      "note": 52,
      "start": 18.748,
      "duration": 0.0111,
      "velocity": 88,
      "chip": "ym2612"
    },
    {
      "channel": 1,
      "note": 76,
      "start": 18.7485,
      "duration": 0.0198,
      "velocity": 99,
      "chip": "ym2612"
    },
    {
      "channel": 4,
      "note": 64,
      "start": 18.7496,
      "duration": 0.0197,
      "velocity": 100,
      "chip": "ym2612"
    },
    {
      "channel": 0,
      "note": 52,
      "start": 18.7652,
      "duration": 0.0277,
      "velocity": 88,
      "chip": "ym2612"
    },
    {
      "channel": 1,
      "note": 79,
      "start": 18.7821,
      "duration": 0.0209,
      "velocity": 99,
      "chip": "ym2612"
    },
    {
      "channel": 4,
      "note": 66,
      "start": 18.7833,
      "duration": 0.0205,
      "velocity": 100,
      "chip": "ym2612"
    },
    {
      "channel": 0,
      "note": 52,
      "start": 18.7995,
      "duration": 0.0107,
      "velocity": 88,
      "chip": "ym2612"
    },
    {
      "channel": 0,
      "note": 52,
      "start": 18.8163,
      "duration": 0.0282,
      "velocity": 88,
      "chip": "ym2612"
    },
    {
      "channel": 1,
      "note": 76,
      "start": 18.8168,
      "duration": 0.0032,
      "velocity": 99,
      "chip": "ym2612"
    },
    {
      "channel": 4,
      "note": 64,
      "start": 18.8179,
      "duration": 0.0201,
      "velocity": 100,
      "chip": "ym2612"
    },
    {
      "channel": 1,
      "note": 78,
      "start": 18.834,
      "duration": 0.0207,
      "velocity": 99,
      "chip": "ym2612"
    },
    {
      "channel": 0,
      "note": 52,
      "start": 18.8508,
      "duration": 0.041,
      "velocity": 88,
      "chip": "ym2612"
    },
    {
      "channel": 4,
      "note": 67,
      "start": 18.8522,
      "duration": 0.0035,
      "velocity": 100,
      "chip": "ym2612"
    },
    {
      "channel": 1,
      "note": 76,
      "start": 18.8683,
      "duration": 0.0033,
      "velocity": 99,
      "chip": "ym2612"
    },
    {
      "channel": 4,
      "note": 64,
      "start": 18.8695,
      "duration": 0.0665,
      "velocity": 100,
      "chip": "ym2612"
    },
    {
      "channel": 0,
      "note": 52,
      "start": 18.9312,
      "duration": 0.0284,
      "velocity": 88,
      "chip": "ym2612"
    },
    {
      "channel": 1,
      "note": 78,
      "start": 18.9317,
      "duration": 0.0034,
      "velocity": 99,
      "chip": "ym2612"
    },
    {
      "channel": 1,
      "note": 79,
      "start": 18.9488,
      "duration": 0.0036,
      "velocity": 99,
      "chip": "ym2612"
    },
    {
      "channel": 4,
      "note": 66,
      "start": 18.9499,
      "duration": 0.0033,
      "velocity": 100,
      "chip": "ym2612"
    },
    {
      "channel": 0,
      "note": 52,
      "start": 18.966,
      "duration": 0.0118,
      "velocity": 88,
      "chip": "ym2612"
    },
    {
      "channel": 1,
      "note": 83,
      "start": 18.9667,
      "duration": 0.0208,
      "velocity": 99,
      "chip": "ym2612"
    },
    {
      "channel": 2,
      "note": 73,
      "start": 18.9672,
      "duration": 0.3653,
      "velocity": 97,
      "chip": "ym2612"
    },
    {
      "channel": 4,
      "note": 64,
      "start": 18.9681,
      "duration": 0.0035,
      "velocity": 100,
      "chip": "ym2612"
    },
    {
      "channel": 0,
      "note": 52,
      "start": 18.9839,
      "duration": 0.0734,
      "velocity": 88,
      "chip": "ym2612"
    },
    {
      "channel": 4,
      "note": 66,
      "start": 18.9854,
      "duration": 0.003,
      "velocity": 100,
      "chip": "ym2612"
    },
    {
      "channel": 1,
      "note": 76,
      "start": 19.0467,
      "duration": 0.0202,
      "velocity": 99,
      "chip": "ym2612"
    },
    {
      "channel": 3,
      "note": 83,
      "start": 19.0475,
      "duration": 0.349,
      "velocity": 97,
      "chip": "ym2612"
    },
    {
      "channel": 4,
      "note": 67,
      "start": 19.0481,
      "duration": 0.0196,
      "velocity": 100,
      "chip": "ym2612"
    },
    {
      "channel": 0,
      "note": 52,
      "start": 19.0635,
      "duration": 0.0102,
      "velocity": 88,
      "chip": "ym2612"
    },
    {
      "channel": 0,
      "note": 52,
      "start": 19.0807,
      "duration": 0.0277,
      "velocity": 88,
      "chip": "ym2612"
    },
    {
      "channel": 1,
      "note": 78,
      "start": 19.0812,
      "duration": 0.0201,
      "velocity": 99,
      "chip": "ym2612"
    },
    {
      "channel": 4,
      "note": 71,
      "start": 19.0824,
      "duration": 0.0198,
      "velocity": 100,
      "chip": "ym2612"
    },
    {
      "channel": 0,
      "note": 52,
      "start": 19.1147,
      "duration": 0.0107,
      "velocity": 88,
      "chip": "ym2612"
    },
    {
      "channel": 1,
      "note": 76,
      "start": 19.1152,
      "duration": 0.0204,
      "velocity": 99,
      "chip": "ym2612"
    },
    {
      "channel": 4,
      "note": 64,
      "start": 19.1164,
      "duration": 0.0201,
      "velocity": 100,
      "chip": "ym2612"
    },
    {
      "channel": 0,
      "note": 52,
      "start": 19.1321,
      "duration": 0.0282,
      "velocity": 88,
      "chip": "ym2612"
    },
    {
      "channel": 1,
      "note": 79,
      "start": 19.1495,
      "duration": 0.0209,
      "velocity": 99,
      "chip": "ym2612"
    },
    {
      "channel": 4,
      "note": 66,
      "start": 19.1507,
      "duration": 0.0207,
      "velocity": 100,
      "chip": "ym2612"
    },
    {
      "channel": 0,
      "note": 52,
      "start": 19.1668,
      "duration": 0.0107,
      "velocity": 88,
      "chip": "ym2612"
    },
    {
      "channel": 0,
      "note": 52,
      "start": 19.1842,
      "duration": 0.0295,
      "velocity": 88,
      "chip": "ym2612"
    },
    {
      "channel": 1,
      "note": 76,
      "start": 19.1847,
      "duration": 0.0037,
      "velocity": 99,
      "chip": "ym2612"
    },
    {
      "channel": 4,
      "note": 64,
      "start": 19.1858,
      "duration": 0.0215,
      "velocity": 100,
      "chip": "ym2612"
    },
    {
      "channel": 1,
      "note": 78,
      "start": 19.2032,
      "duration": 0.021,
      "velocity": 99,
      "chip": "ym2612"
    },
    {
      "channel": 0,
      "note": 52,
      "start": 19.2203,
      "duration": 0.0411,
      "velocity": 88,
      "chip": "ym2612"
    },
    {
      "channel": 4,
      "note": 67,
      "start": 19.2217,
      "duration": 0.0036,
      "velocity": 100,
      "chip": "ym2612"
    },
    {
      "channel": 1,
      "note": 79,
      "start": 19.2379,
      "duration": 0.0033,
      "velocity": 99,
      "chip": "ym2612"
    },
    {
      "channel": 4,
      "note": 64,
      "start": 19.239,
      "duration": 0.0664,
      "velocity": 100,
      "chip": "ym2612"
    },
    {
      "channel": 0,
      "note": 52,
      "start": 19.3007,
      "duration": 0.0278,
      "velocity": 88,
      "chip": "ym2612"
    },
    {
      "channel": 1,
      "note": 81,
      "start": 19.3012,
      "duration": 0.0034,
      "velocity": 99,
      "chip": "ym2612"
    },
    {
      "channel": 1,
      "note": 85,
      "start": 19.318,
      "duration": 0.0032,
      "velocity": 99,
      "chip": "ym2612"
    },
    {
      "channel": 4,
      "note": 66,
      "start": 19.3192,
      "duration": 0.003,
      "velocity": 100,
      "chip": "ym2612"
    },
    {
      "channel": 0,
      "note": 52,
      "start": 19.3352,
      "duration": 0.012,
      "velocity": 88,
      "chip": "ym2612"
    },
    {
      "channel": 1,
      "note": 83,
      "start": 19.3359,
      "duration": 0.0208,
      "velocity": 99,
      "chip": "ym2612"
    },
    {
      "channel": 2,
      "note": 74,
      "start": 19.3364,
      "duration": 0.51,
      "velocity": 97,
      "chip": "ym2612"
    },
    {
      "channel": 4,
      "note": 67,
      "start": 19.3373,
      "duration": 0.0036,
      "velocity": 100,
      "chip": "ym2612"
    },
    {
      "channel": 0,
      "note": 52,
      "start": 19.3533,
      "duration": 0.1403,
      "velocity": 88,
      "chip": "ym2612"
    },
    {
      "channel": 4,
      "note": 69,
      "start": 19.3546,
      "duration": 0.0029,
      "velocity": 100,
      "chip": "ym2612"
    },
    {
      "channel": 1,
      "note": 76,
      "start": 19.4157,
      "duration": 0.1206,
      "velocity": 99,
      "chip": "ym2612"
    },
    {
      "channel": 3,
      "note": 73,
      "start": 19.4166,
      "duration": 0.4933,
      "velocity": 97,
      "chip": "ym2612"
    },
    {
      "channel": 4,
      "note": 73,
      "start": 19.4174,
      "duration": 0.1198,
      "velocity": 100,
      "chip": "ym2612"
    },
    {
      "channel": 0,
      "note": 52,
      "start": 19.5329,
      "duration": 0.0105,
      "velocity": 88,
      "chip": "ym2612"
    },
    {
      "channel": 0,
      "note": 52,
      "start": 19.5502,
      "duration": 0.0411,
      "velocity": 88,
      "chip": "ym2612"
    },
    {
      "channel": 1,
      "note": 78,
      "start": 19.5507,
      "duration": 0.0196,
      "velocity": 99,
      "chip": "ym2612"
    },
    {
      "channel": 4,
      "note": 71,
      "start": 19.5519,
      "duration": 0.0193,
      "velocity": 100,
      "chip": "ym2612"
    },
    {
      "channel": 0,
      "note": 52,
      "start": 19.6306,
      "duration": 0.0112,
      "velocity": 88,
      "chip": "ym2612"
    },
    {
      "channel": 1,
      "note": 76,
      "start": 19.6311,
      "duration": 0.02,
      "velocity": 99,
      "chip": "ym2612"
    },
    {
      "channel": 4,
      "note": 64,
      "start": 19.6323,
      "duration": 0.0198,
      "velocity": 100,
      "chip": "ym2612"
    },
    {
      "channel": 0,
      "note": 52,
      "start": 19.648,
      "duration": 0.0275,
      "velocity": 88,
      "chip": "ym2612"
    },
    {
      "channel": 1,
      "note": 79,
      "start": 19.6647,
      "duration": 0.021,
      "velocity": 99,
      "chip": "ym2612"
    },
    {
      "channel": 4,
      "note": 66,
      "start": 19.6659,
      "duration": 0.0207,
      "velocity": 100,
      "chip": "ym2612"
    },
    {
      "channel": 0,
      "note": 52,
      "start": 19.6821,
      "duration": 0.0107,
      "velocity": 88,
      "chip": "ym2612"
    },
    {
      "channel": 0,
      "note": 52,
      "start": 19.6991,
      "duration": 0.0281,
      "velocity": 88,
      "chip": "ym2612"
    },
    {
      "channel": 1,
      "note": 76,
      "start": 19.6996,
      "duration": 0.0032,
      "velocity": 99,
      "chip": "ym2612"
    },
    {
      "channel": 4,
      "note": 64,
      "start": 19.7007,
      "duration": 0.0202,
      "velocity": 100,
      "chip": "ym2612"
    },
    {
      "channel": 1,
      "note": 78,
      "start": 19.7168,
      "duration": 0.0207,
      "velocity": 99,
      "chip": "ym2612"
    },
    {
      "channel": 0,
      "note": 52,
      "start": 19.7337,
      "duration": 0.041,
      "velocity": 88,
      "chip": "ym2612"
    },
    {
      "channel": 4,
      "note": 67,
      "start": 19.735,
      "duration": 0.0034,
      "velocity": 100,
      "chip": "ym2612"
    },
    {
      "channel": 1,
      "note": 76,
      "start": 19.7511,
      "duration": 0.0032,
      "velocity": 99,
      "chip": "ym2612"
    },
    {
      "channel": 4,
      "note": 64,
      "start": 19.7522,
      "duration": 0.0664,
      "velocity": 100,
      "chip": "ym2612"
    },
    {
      "channel": 0,
      "note": 52,
      "start": 19.814,
      "duration": 0.0282,
      "velocity": 88,
      "chip": "ym2612"
    },
    {
      "channel": 1,
      "note": 78,
      "start": 19.8145,
      "duration": 0.0033,
      "velocity": 99,
      "chip": "ym2612"
    },
    {
      "channel": 1,
      "note": 79,
      "start": 19.8315,
      "duration": 0.0035,
      "velocity": 99,
      "chip": "ym2612"
    },
    {
      "channel": 4,
      "note": 66,
      "start": 19.8327,
      "duration": 0.0032,
      "velocity": 100,
      "chip": "ym2612"
    },
    {
      "channel": 0,
      "note": 52,
      "start": 19.8487,
      "duration": 0.0129,
      "velocity": 88,
      "chip": "ym2612"
    },
    {
      "channel": 1,
      "note": 83,
      "start": 19.8497,
      "duration": 0.0215,
      "velocity": 99,
      "chip": "ym2612"
    },
    {
      "channel": 2,
      "note": 78,
      "start": 19.8502,
      "duration": 0.3205,
      "velocity": 97,
      "chip": "ym2612"
    },
    {
      "channel": 4,
      "note": 64,
      "start": 19.8512,
      "duration": 0.0042,
      "velocity": 100,
      "chip": "ym2612"
    },
    {
      "channel": 0,
      "note": 52,
      "start": 19.8677,
      "duration": 0.0722,
      "velocity": 88,
      "chip": "ym2612"
    },
    {
      "channel": 4,
      "note": 66,
      "start": 19.869,
      "duration": 0.003,
      "velocity": 100,
      "chip": "ym2612"
    },
    {
      "channel": 1,
      "note": 76,
      "start": 19.9292,
      "duration": 0.0203,
      "velocity": 99,
      "chip": "ym2612"
    },
    {
      "channel": 3,
      "note": 74,
      "start": 19.93,
      "duration": 0.2411,
      "velocity": 97,
      "chip": "ym2612"
    },
    {
      "channel": 4,
      "note": 67,
      "start": 19.9306,
      "duration": 0.0197,
      "velocity": 100,
      "chip": "ym2612"
    },
    {
      "channel": 0,
      "note": 52,
      "start": 19.9461,
      "duration": 0.0103,
      "velocity": 88,
      "chip": "ym2612"
    },
    {
      "channel": 0,
      "note": 52,
      "start": 19.9633,
      "duration": 0.0277,
      "velocity": 88,
      "chip": "ym2612"
    },
    {
      "channel": 1,
      "note": 78,
      "start": 19.9638,
      "duration": 0.0201,
      "velocity": 99,
      "chip": "ym2612"
    },
    {
      "channel": 4,
      "note": 71,
      "start": 19.9649,
      "duration": 0.0198,
      "velocity": 100,
      "chip": "ym2612"
    },
    {
      "channel": 0,
      "note": 52,
      "start": 19.9972,
      "duration": 0.0107,
      "velocity": 88,
      "chip": "ym2612"
    },
    {
      "channel": 1,
      "note": 76,
      "start": 19.9977,
      "duration": 0.0203,
      "velocity": 99,
      "chip": "ym2612"
    },
    {
      "channel": 4,
      "note": 64,
      "start": 19.9988,
      "duration": 0.0201,
      "velocity": 100,
      "chip": "ym2612"
    },
    {
      "channel": 0,
      "note": 52,
      "start": 20.0146,
      "duration": 0.0284,
      "velocity": 88,
      "chip": "ym2612"
    },
    {
      "channel": 1,
      "note": 79,
      "start": 20.032,
      "duration": 0.0209,
      "velocity": 99,
      "chip": "ym2612"
    },
    {
      "channel": 4,
      "note": 66,
      "start": 20.0332,
      "duration": 0.0207,
      "velocity": 100,
      "chip": "ym2612"
    },
    {
      "channel": 0,
      "note": 52,
      "start": 20.0494,
      "duration": 0.0108,
      "velocity": 88,
      "chip": "ym2612"
    },
    {
      "channel": 0,
      "note": 52,
      "start": 20.0668,
      "duration": 0.0296,
      "velocity": 88,
      "chip": "ym2612"
    },
    {
      "channel": 1,
      "note": 76,
      "start": 20.0672,
      "duration": 0.0037,
      "velocity": 99,
      "chip": "ym2612"
    },
    {
      "channel": 4,
      "note": 64,
      "start": 20.0684,
      "duration": 0.0215,
      "velocity": 100,
      "chip": "ym2612"
    },
    {
      "channel": 1,
      "note": 78,
      "start": 20.0859,
      "duration": 0.0211,
      "velocity": 99,
      "chip": "ym2612"
    },
    {
      "channel": 0,
      "note": 58,
      "start": 20.103,
      "duration": 0.0113,
      "velocity": 88,
      "chip": "ym2612"
    },
    {
      "channel": 4,
      "note": 67,
      "start": 20.1044,
      "duration": 0.0036,
      "velocity": 100,
      "chip": "ym2612"
    },
    {
      "channel": 0,
      "note": 59,
      "start": 20.1205,
      "duration": 0.0114,
      "velocity": 88,
      "chip": "ym2612"
    },
    {
      "channel": 1,
      "note": 79,
      "start": 20.121,
      "duration": 0.0037,
      "velocity": 99,
      "chip": "ym2612"
    },
    {
      "channel": 4,
      "note": 64,
      "start": 20.1222,
      "duration": 0.0212,
      "velocity": 100,
      "chip": "ym2612"
    },
    {
      "channel": 0,
      "note": 54,
      "start": 20.1381,
      "duration": 0.0114,
      "velocity": 88,
      "chip": "ym2612"
    },
    {
      "channel": 1,
      "note": 78,
      "start": 20.1386,
      "duration": 0.0037,
      "velocity": 99,
      "chip": "ym2612"
    },
    {
      "channel": 0,
      "note": 55,
      "start": 20.1557,
      "duration": 0.011,
      "velocity": 88,
      "chip": "ym2612"
    },
    {
      "channel": 1,
      "note": 76,
      "start": 20.1563,
      "duration": 0.0033,
      "velocity": 99,
      "chip": "ym2612"
    },
    {
      "channel": 4,
      "note": 66,
      "start": 20.1575,
      "duration": 0.003,
      "velocity": 100,
      "chip": "ym2612"
    },
    {
      "channel": 0,
      "note": 49,
      "start": 20.1731,
      "duration": 0.0263,
      "velocity": 88,
      "chip": "ym2612"
    },
    {
      "channel": 1,
      "note": 49,
      "start": 20.1771,
      "duration": 0.025,
      "velocity": 93,
      "chip": "ym2612"
    },
    {
      "channel": 2,
      "note": 49,
      "start": 20.1809,
      "duration": 0.0166,
      "velocity": 93,
      "chip": "ym2612"
    },
    {
      "channel": 4,
      "note": 67,
      "start": 20.182,
      "duration": 0.0113,
      "velocity": 100,
      "chip": "ym2612"
    },
    {
      "channel": 3,
      "note": 78,
      "start": 20.1929,
      "duration": 0.0073,
      "velocity": 93,
      "chip": "ym2612"
    },
    {
      "channel": 0,
      "note": 51,
      "start": 20.2044,
      "duration": 0.0112,
      "velocity": 88,
      "chip": "ym2612"
    },
    {
      "channel": 1,
      "note": 51,
      "start": 20.205,
      "duration": 0.0133,
      "velocity": 93,
      "chip": "ym2612"
    },
    {
      "channel": 2,
      "note": 51,
      "start": 20.2055,
      "duration": 0.0082,
      "velocity": 93,
      "chip": "ym2612"
    },
    {
      "channel": 4,
      "note": 69,
      "start": 20.2064,
      "duration": 0.0031,
      "velocity": 100,
      "chip": "ym2612"
    },
    {
      "channel": 3,
      "note": 49,
      "start": 20.209,
      "duration": 0.0073,
      "velocity": 93,
      "chip": "ym2612"
    },
    {
      "channel": 0,
      "note": 52,
      "start": 20.2218,
      "duration": 0.0112,
      "velocity": 88,
      "chip": "ym2612"
    },
    {
      "channel": 1,
      "note": 52,
      "start": 20.2222,
      "duration": 0.0134,
      "velocity": 93,
      "chip": "ym2612"
    },
    {
      "channel": 2,
      "note": 52,
      "start": 20.2228,
      "duration": 0.0083,
      "velocity": 93,
      "chip": "ym2612"
    },
    {
      "channel": 4,
      "note": 73,
      "start": 20.2238,
      "duration": 0.0031,
      "velocity": 100,
      "chip": "ym2612"
    },
    {
      "channel": 3,
      "note": 51,
      "start": 20.2265,
      "duration": 0.0073,
      "velocity": 93,
      "chip": "ym2612"
    },
    {
      "channel": 0,
      "note": 54,
      "start": 20.2391,
      "duration": 0.0114,
      "velocity": 88,
      "chip": "ym2612"
    },
    {
      "channel": 1,
      "note": 54,
      "start": 20.2396,
      "duration": 0.0137,
      "velocity": 93,
      "chip": "ym2612"
    },
    {
      "channel": 2,
      "note": 54,
      "start": 20.2401,
      "duration": 0.0084,
      "velocity": 93,
      "chip": "ym2612"
    },
    {
      "channel": 4,
      "note": 49,
      "start": 20.241,
      "duration": 0.0032,
      "velocity": 100,
      "chip": "ym2612"
    },
    {
      "channel": 3,
      "note": 52,
      "start": 20.2438,
      "duration": 0.0075,
      "velocity": 93,
      "chip": "ym2612"
    },
    {
      "channel": 0,
      "note": 55,
      "start": 20.2565,
      "duration": 0.0115,
      "velocity": 88,
      "chip": "ym2612"
    },
    {
      "channel": 1,
      "note": 55,
      "start": 20.257,
      "duration": 0.0137,
      "velocity": 93,
      "chip": "ym2612"
    },
    {
      "channel": 2,
      "note": 55,
      "start": 20.2575,
      "duration": 0.0084,
      "velocity": 93,
      "chip": "ym2612"
    },
    {
      "channel": 4,
      "note": 51,
      "start": 20.2584,
      "duration": 0.0032,
      "velocity": 100,
      "chip": "ym2612"
    },
    {
      "channel": 3,
      "note": 54,
      "start": 20.2612,
      "duration": 0.0076,
      "velocity": 93,
      "chip": "ym2612"
    },
    {
      "channel": 0,
      "note": 51,
      "start": 20.274,
      "duration": 0.0114,
      "velocity": 88,
      "chip": "ym2612"
    },
    {
      "channel": 1,
      "note": 51,
      "start": 20.2745,
      "duration": 0.0137,
      "velocity": 93,
      "chip": "ym2612"
    },
    {
      "channel": 2,
      "note": 51,
      "start": 20.275,
      "duration": 0.0084,
      "velocity": 93,
      "chip": "ym2612"
    },
    {
      "channel": 4,
      "note": 52,
      "start": 20.2758,
      "duration": 0.0032,
      "velocity": 100,
      "chip": "ym2612"
    },
    {
      "channel": 3,
      "note": 55,
      "start": 20.2787,
      "duration": 0.0075,
      "velocity": 93,
      "chip": "ym2612"
    },
    {
      "channel": 0,
      "note": 52,
      "start": 20.2912,
      "duration": 0.0114,
      "velocity": 88,
      "chip": "ym2612"
    },
    {
      "channel": 1,
      "note": 52,
      "start": 20.2917,
      "duration": 0.0137,
      "velocity": 93,
      "chip": "ym2612"
    },
    {
      "channel": 2,
      "note": 52,
      "start": 20.2922,
      "duration": 0.0084,
      "velocity": 93,
      "chip": "ym2612"
    },
    {
      "channel": 4,
      "note": 54,
      "start": 20.2931,
      "duration": 0.0032,
      "velocity": 100,
      "chip": "ym2612"
    },
    {
      "channel": 3,
      "note": 51,
      "start": 20.2959,
      "duration": 0.0076,
      "velocity": 93,
      "chip": "ym2612"
    },
    {
      "channel": 0,
      "note": 54,
      "start": 20.3086,
      "duration": 0.0114,
      "velocity": 88,
      "chip": "ym2612"
    },
    {
      "channel": 1,
      "note": 54,
      "start": 20.3091,
      "duration": 0.0137,
      "velocity": 93,
      "chip": "ym2612"
    },
    {
      "channel": 2,
      "note": 54,
      "start": 20.3096,
      "duration": 0.0084,
      "velocity": 93,
      "chip": "ym2612"
    },
    {
      "channel": 4,
      "note": 55,
      "start": 20.3104,
      "duration": 0.0032,
      "velocity": 100,
      "chip": "ym2612"
    },
    {
      "channel": 3,
      "note": 52,
      "start": 20.3133,
      "duration": 0.0075,
      "velocity": 93,
      "chip": "ym2612"
    },
    {
      "channel": 0,
      "note": 55,
      "start": 20.326,
      "duration": 0.0114,
      "velocity": 88,
      "chip": "ym2612"
    },
    {
      "channel": 1,
      "note": 55,
      "start": 20.3265,
      "duration": 0.0137,
      "velocity": 93,
      "chip": "ym2612"
    },
    {
      "channel": 2,
      "note": 55,
      "start": 20.3269,
      "duration": 0.0084,
      "velocity": 93,
      "chip": "ym2612"
    },
    {
      "channel": 4,
      "note": 51,
      "start": 20.3278,
      "duration": 0.0032,
      "velocity": 100,
      "chip": "ym2612"
    },
    {
      "channel": 3,
      "note": 54,
      "start": 20.3307,
      "duration": 0.0075,
      "velocity": 93,
      "chip": "ym2612"
    },
    {
      "channel": 0,
      "note": 59,
      "start": 20.3434,
      "duration": 0.0115,
      "velocity": 88,
      "chip": "ym2612"
    },
    {
      "channel": 1,
      "note": 59,
      "start": 20.3439,
      "duration": 0.0136,
      "velocity": 93,
      "chip": "ym2612"
    },
    {
      "channel": 2,
      "note": 59,
      "start": 20.3444,
      "duration": 0.0083,
      "velocity": 93,
      "chip": "ym2612"
    },
    {
      "channel": 4,
      "note": 52,
      "start": 20.3452,
      "duration": 0.0032,
      "velocity": 100,
      "chip": "ym2612"
    },
    {
      "channel": 3,
      "note": 55,
      "start": 20.348,
      "duration": 0.0075,
      "velocity": 93,
      "chip": "ym2612"
    },
    {
      "channel": 0,
      "note": 58,
      "start": 20.3606,
      "duration": 0.0114,
      "velocity": 88,
      "chip": "ym2612"
    },
    {
      "channel": 1,
      "note": 58,
      "start": 20.3611,
      "duration": 0.0136,
      "velocity": 93,
      "chip": "ym2612"
    },
    {
      "channel": 2,
      "note": 58,
      "start": 20.3616,
      "duration": 0.0084,
      "velocity": 93,
      "chip": "ym2612"
    },
    {
      "channel": 4,
      "note": 54,
      "start": 20.3625,
      "duration": 0.0032,
      "velocity": 100,
      "chip": "ym2612"
    },
    {
      "channel": 3,
      "note": 59,
      "start": 20.3652,
      "duration": 0.0075,
      "velocity": 93,
      "chip": "ym2612"
    },
    {
      "channel": 0,
      "note": 52,
      "start": 20.3779,
      "duration": 0.0116,
      "velocity": 88,
      "chip": "ym2612"
    },
    {
      "channel": 1,
      "note": 52,
      "start": 20.3785,
      "duration": 0.0138,
      "velocity": 93,
      "chip": "ym2612"
    },
    {
      "channel": 2,
      "note": 52,
      "start": 20.379,
      "duration": 0.0085,
      "velocity": 93,
      "chip": "ym2612"
    },
    {
      "channel": 4,
      "note": 55,
      "start": 20.3798,
      "duration": 0.0032,
      "velocity": 100,
      "chip": "ym2612"
    },
    {
      "channel": 3,
      "note": 58,
      "start": 20.3826,
      "duration": 0.0076,
      "velocity": 93,
      "chip": "ym2612"
    },
    {
      "channel": 0,
      "note": 54,
      "start": 20.3954,
      "duration": 0.0115,
      "velocity": 88,
      "chip": "ym2612"
    },
    {
      "channel": 1,
      "note": 54,
      "start": 20.3959,
      "duration": 0.0137,
      "velocity": 93,
      "chip": "ym2612"
    },
    {
      "channel": 2,
      "note": 54,
      "start": 20.3964,
      "duration": 0.0084,
      "velocity": 93,
      "chip": "ym2612"
    },
    {
      "channel": 4,
      "note": 59,
      "start": 20.3973,
      "duration": 0.0032,
      "velocity": 100,
      "chip": "ym2612"
    },
    {
      "channel": 3,
      "note": 52,
      "start": 20.4,
      "duration": 0.0076,
      "velocity": 93,
      "chip": "ym2612"
    },
    {
      "channel": 0,
      "note": 55,
      "start": 20.4127,
      "duration": 0.0114,
      "velocity": 88,
      "chip": "ym2612"
    },
    {
      "channel": 1,
      "note": 55,
      "start": 20.4132,
      "duration": 0.0137,
      "velocity": 93,
      "chip": "ym2612"
    },
    {
      "channel": 2,
      "note": 55,
      "start": 20.4138,
      "duration": 0.0084,
      "velocity": 93,
      "chip": "ym2612"
    },
    {
      "channel": 4,
      "note": 58,
      "start": 20.4146,
      "duration": 0.0032,
      "velocity": 100,
      "chip": "ym2612"
    },
    {
      "channel": 3,
      "note": 54,
      "start": 20.4174,
      "duration": 0.0075,
      "velocity": 93,
      "chip": "ym2612"
    },
    {
      "channel": 0,
      "note": 58,
      "start": 20.4301,
      "duration": 0.0116,
      "velocity": 88,
      "chip": "ym2612"
    },
    {
      "channel": 1,
      "note": 58,
      "start": 20.4306,
      "duration": 0.0138,
      "velocity": 93,
      "chip": "ym2612"
    },
    {
      "channel": 2,
      "note": 58,
      "start": 20.4311,
      "duration": 0.0084,
      "velocity": 93,
      "chip": "ym2612"
    },
    {
      "channel": 4,
      "note": 52,
      "start": 20.4319,
      "duration": 0.0032,
      "velocity": 100,
      "chip": "ym2612"
    },
    {
      "channel": 3,
      "note": 55,
      "start": 20.4348,
      "duration": 0.0077,
      "velocity": 93,
      "chip": "ym2612"
    },
    {
      "channel": 0,
      "note": 59,
      "start": 20.4475,
      "duration": 0.0114,
      "velocity": 88,
      "chip": "ym2612"
    },
    {
      "channel": 1,
      "note": 59,
      "start": 20.448,
      "duration": 0.0137,
      "velocity": 93,
      "chip": "ym2612"
    },
    {
      "channel": 2,
      "note": 59,
      "start": 20.4485,
      "duration": 0.0083,
      "velocity": 93,
      "chip": "ym2612"
    },
    {
      "channel": 4,
      "note": 54,
      "start": 20.4493,
      "duration": 0.0032,
      "velocity": 100,
      "chip": "ym2612"
    },
    {
      "channel": 3,
      "note": 58,
      "start": 20.4522,
      "duration": 0.0075,
      "velocity": 93,
      "chip": "ym2612"
    },
    {
      "channel": 0,
      "note": 61,
      "start": 20.4649,
      "duration": 0.0122,
      "velocity": 88,
      "chip": "ym2612"
    },
    {
      "channel": 1,
      "note": 61,
      "start": 20.4654,
      "duration": 0.0145,
      "velocity": 93,
      "chip": "ym2612"
    },
    {
      "channel": 2,
      "note": 61,
      "start": 20.4659,
      "duration": 0.0093,
      "velocity": 93,
      "chip": "ym2612"
    },
    {
      "channel": 4,
      "note": 55,
      "start": 20.4668,
      "duration": 0.0038,
      "velocity": 100,
      "chip": "ym2612"
    },
    {
      "channel": 3,
      "note": 59,
      "start": 20.4702,
      "duration": 0.0077,
      "velocity": 93,
      "chip": "ym2612"
    },
    {
      "channel": 0,
      "note": 63,
      "start": 20.4823,
      "duration": 0.0115,
      "velocity": 88,
      "chip": "ym2612"
    },
    {
      "channel": 1,
      "note": 63,
      "start": 20.4827,
      "duration": 0.0138,
      "velocity": 93,
      "chip": "ym2612"
    },
    {
      "channel": 2,
      "note": 63,
      "start": 20.4832,
      "duration": 0.0085,
      "velocity": 93,
      "chip": "ym2612"
    },
    {
      "channel": 4,
      "note": 58,
      "start": 20.4841,
      "duration": 0.0032,
      "velocity": 100,
      "chip": "ym2612"
    },
    {
      "channel": 3,
      "note": 61,
      "start": 20.487,
      "duration": 0.0076,
      "velocity": 93,
      "chip": "ym2612"
    },
    {
      "channel": 0,
      "note": 64,
      "start": 20.4997,
      "duration": 0.0114,
      "velocity": 88,
      "chip": "ym2612"
    },
    {
      "channel": 1,
      "note": 64,
      "start": 20.5002,
      "duration": 0.0137,
      "velocity": 93,
      "chip": "ym2612"
    },
    {
      "channel": 2,
      "note": 64,
      "start": 20.5007,
      "duration": 0.0084,
      "velocity": 93,
      "chip": "ym2612"
    },
    {
      "channel": 4,
      "note": 59,
      "start": 20.5016,
      "duration": 0.0032,
      "velocity": 100,
      "chip": "ym2612"
    },
    {
      "channel": 3,
      "note": 63,
      "start": 20.5044,
      "duration": 0.0075,
      "velocity": 93,
      "chip": "ym2612"
    },
    {
      "channel": 0,
      "note": 66,
      "start": 20.517,
      "duration": 0.0115,
      "velocity": 88,
      "chip": "ym2612"
    },
    {
      "channel": 1,
      "note": 66,
      "start": 20.5175,
      "duration": 0.0138,
      "velocity": 93,
      "chip": "ym2612"
    },
    {
      "channel": 2,
      "note": 66,
      "start": 20.518,
      "duration": 0.0084,
      "velocity": 93,
      "chip": "ym2612"
    },
    {
      "channel": 4,
      "note": 61,
      "start": 20.5188,
      "duration": 0.0032,
      "velocity": 100,
      "chip": "ym2612"
    },
    {
      "channel": 3,
      "note": 64,
      "start": 20.5217,
      "duration": 0.0076,
      "velocity": 93,
      "chip": "ym2612"
    },
    {
      "channel": 0,
      "note": 67,
      "start": 20.5344,
      "duration": 0.0115,
      "velocity": 88,
      "chip": "ym2612"
    },
    {
      "channel": 1,
      "note": 67,
      "start": 20.5349,
      "duration": 0.0138,
      "velocity": 93,
      "chip": "ym2612"
    },
    {
      "channel": 2,
      "note": 67,
      "start": 20.5354,
      "duration": 0.0085,
      "velocity": 93,
      "chip": "ym2612"
    },
    {
      "channel": 4,
      "note": 63,
      "start": 20.5362,
      "duration": 0.0034,
      "velocity": 100,
      "chip": "ym2612"
    },
    {
      "channel": 3,
      "note": 66,
      "start": 20.5392,
      "duration": 0.0075,
      "velocity": 93,
      "chip": "ym2612"
    },
    {
      "channel": 0,
      "note": 63,
      "start": 20.5518,
      "duration": 0.0117,
      "velocity": 88,
      "chip": "ym2612"
    },
    {
      "channel": 1,
      "note": 63,
      "start": 20.5523,
      "duration": 0.0139,
      "velocity": 93,
      "chip": "ym2612"
    },
    {
      "channel": 2,
      "note": 63,
      "start": 20.5529,
      "duration": 0.0087,
      "velocity": 93,
      "chip": "ym2612"
    },
    {
      "channel": 4,
      "note": 64,
      "start": 20.5537,
      "duration": 0.0034,
      "velocity": 100,
      "chip": "ym2612"
    },
    {
      "channel": 3,
      "note": 67,
      "start": 20.5566,
      "duration": 0.0077,
      "velocity": 93,
      "chip": "ym2612"
    },
    {
      "channel": 0,
      "note": 64,
      "start": 20.5694,
      "duration": 0.0114,
      "velocity": 88,
      "chip": "ym2612"
    },
    {
      "channel": 1,
      "note": 64,
      "start": 20.5699,
      "duration": 0.0137,
      "velocity": 93,
      "chip": "ym2612"
    },
    {
      "channel": 2,
      "note": 64,
      "start": 20.5704,
      "duration": 0.0084,
      "velocity": 93,
      "chip": "ym2612"
    },
    {
      "channel": 4,
      "note": 66,
      "start": 20.5713,
      "duration": 0.0032,
      "velocity": 100,
      "chip": "ym2612"
    },
    {
      "channel": 3,
      "note": 63,
      "start": 20.5741,
      "duration": 0.0075,
      "velocity": 93,
      "chip": "ym2612"
    },
    {
      "channel": 0,
      "note": 66,
      "start": 20.5867,
      "duration": 0.0115,
      "velocity": 88,
      "chip": "ym2612"
    },
    {
      "channel": 1,
      "note": 66,
      "start": 20.5872,
      "duration": 0.0136,
      "velocity": 93,
      "chip": "ym2612"
    },
    {
      "channel": 2,
      "note": 66,
      "start": 20.5877,
      "duration": 0.0085,
      "velocity": 93,
      "chip": "ym2612"
    },
    {
      "channel": 4,
      "note": 67,
      "start": 20.5886,
      "duration": 0.0032,
      "velocity": 100,
      "chip": "ym2612"
    },
    {
      "channel": 3,
      "note": 64,
      "start": 20.5915,
      "duration": 0.0074,
      "velocity": 93,
      "chip": "ym2612"
    },
    {
      "channel": 0,
      "note": 67,
      "start": 20.6041,
      "duration": 0.0115,
      "velocity": 88,
      "chip": "ym2612"
    },
    {
      "channel": 1,
      "note": 67,
      "start": 20.6046,
      "duration": 0.0137,
      "velocity": 93,
      "chip": "ym2612"
    },
    {
      "channel": 2,
      "note": 67,
      "start": 20.6052,
      "duration": 0.0083,
      "velocity": 93,
      "chip": "ym2612"
    },
    {
      "channel": 4,
      "note": 63,
      "start": 20.606,
      "duration": 0.0032,
      "velocity": 100,
      "chip": "ym2612"
    },
    {
      "channel": 3,
      "note": 66,
      "start": 20.6088,
      "duration": 0.0075,
      "velocity": 93,
      "chip": "ym2612"
    },
    {
      "channel": 0,
      "note": 71,
      "start": 20.6215,
      "duration": 0.0114,
      "velocity": 88,
      "chip": "ym2612"
    },
    {
      "channel": 1,
      "note": 71,
      "start": 20.622,
      "duration": 0.0137,
      "velocity": 93,
      "chip": "ym2612"
    },
    {
      "channel": 2,
      "note": 71,
      "start": 20.6225,
      "duration": 0.0084,
      "velocity": 93,
      "chip": "ym2612"
    },
    {
      "channel": 4,
      "note": 64,
      "start": 20.6234,
      "duration": 0.0032,
      "velocity": 100,
      "chip": "ym2612"
    },
    {
      "channel": 3,
      "note": 67,
      "start": 20.6261,
      "duration": 0.0075,
      "velocity": 93,
      "chip": "ym2612"
    },
    {
      "channel": 0,
      "note": 70,
      "start": 20.6388,
      "duration": 0.0123,
      "velocity": 88,
      "chip": "ym2612"
    },
    {
      "channel": 1,
      "note": 70,
      "start": 20.6393,
      "duration": 0.0145,
      "velocity": 93,
      "chip": "ym2612"
    },
    {
      "channel": 2,
      "note": 70,
      "start": 20.6398,
      "duration": 0.0093,
      "velocity": 93,
      "chip": "ym2612"
    },
    {
      "channel": 4,
      "note": 66,
      "start": 20.6406,
      "duration": 0.0039,
      "velocity": 100,
      "chip": "ym2612"
    },
    {
      "channel": 3,
      "note": 71,
      "start": 20.6442,
      "duration": 0.0076,
      "velocity": 93,
      "chip": "ym2612"
    },
    {
      "channel": 0,
      "note": 64,
      "start": 20.6569,
      "duration": 0.012,
      "velocity": 88,
      "chip": "ym2612"
    },
    {
      "channel": 1,
      "note": 64,
      "start": 20.6574,
      "duration": 0.0144,
      "velocity": 93,
      "chip": "ym2612"
    },
    {
      "channel": 2,
      "note": 64,
      "start": 20.6579,
      "duration": 0.0091,
      "velocity": 93,
      "chip": "ym2612"
    },
    {
      "channel": 4,
      "note": 67,
      "start": 20.6588,
      "duration": 0.0039,
      "velocity": 100,
      "chip": "ym2612"
    },
    {
      "channel": 3,
      "note": 70,
      "start": 20.6622,
      "duration": 0.0075,
      "velocity": 93,
      "chip": "ym2612"
    },
    {
      "channel": 0,
      "note": 66,
      "start": 20.6749,
      "duration": 0.0121,
      "velocity": 88,
      "chip": "ym2612"
    },
    {
      "channel": 1,
      "note": 66,
      "start": 20.6754,
      "duration": 0.0144,
      "velocity": 93,
      "chip": "ym2612"
    },
    {
      "channel": 2,
      "note": 66,
      "start": 20.6759,
      "duration": 0.009,
      "velocity": 93,
      "chip": "ym2612"
    },
    {
      "channel": 4,
      "note": 71,
      "start": 20.6768,
      "duration": 0.0039,
      "velocity": 100,
      "chip": "ym2612"
    },
    {
      "channel": 3,
      "note": 64,
      "start": 20.6802,
      "duration": 0.0075,
      "velocity": 93,
      "chip": "ym2612"
    },
    {
      "channel": 0,
      "note": 67,
      "start": 20.6922,
      "duration": 0.0115,
      "velocity": 88,
      "chip": "ym2612"
    },
    {
      "channel": 1,
      "note": 67,
      "start": 20.6927,
      "duration": 0.0137,
      "velocity": 93,
      "chip": "ym2612"
    },
    {
      "channel": 2,
      "note": 67,
      "start": 20.6932,
      "duration": 0.0084,
      "velocity": 93,
      "chip": "ym2612"
    },
    {
      "channel": 4,
      "note": 70,
      "start": 20.694,
      "duration": 0.0032,
      "velocity": 100,
      "chip": "ym2612"
    },
    {
      "channel": 3,
      "note": 66,
      "start": 20.6968,
      "duration": 0.0076,
      "velocity": 93,
      "chip": "ym2612"
    },
    {
      "channel": 0,
      "note": 70,
      "start": 20.7094,
      "duration": 0.0121,
      "velocity": 88,
      "chip": "ym2612"
    },
    {
      "channel": 1,
      "note": 70,
      "start": 20.7099,
      "duration": 0.0144,
      "velocity": 93,
      "chip": "ym2612"
    },
    {
      "channel": 2,
      "note": 70,
      "start": 20.7104,
      "duration": 0.009,
      "velocity": 93,
      "chip": "ym2612"
    },
    {
      "channel": 4,
      "note": 64,
      "start": 20.7113,
      "duration": 0.0039,
      "velocity": 100,
      "chip": "ym2612"
    },
    {
      "channel": 3,
      "note": 67,
      "start": 20.7148,
      "duration": 0.0075,
      "velocity": 93,
      "chip": "ym2612"
    },
    {
      "channel": 0,
      "note": 71,
      "start": 20.7275,
      "duration": 0.0122,
      "velocity": 88,
      "chip": "ym2612"
    },
    {
      "channel": 1,
      "note": 71,
      "start": 20.728,
      "duration": 0.0145,
      "velocity": 93,
      "chip": "ym2612"
    },
    {
      "channel": 2,
      "note": 71,
      "start": 20.7285,
      "duration": 0.0092,
      "velocity": 93,
      "chip": "ym2612"
    },
    {
      "channel": 4,
      "note": 66,
      "start": 20.7293,
      "duration": 0.0039,
      "velocity": 100,
      "chip": "ym2612"
    },
    {
      "channel": 3,
      "note": 70,
      "start": 20.7329,
      "duration": 0.0076,
      "velocity": 93,
      "chip": "ym2612"
    },
    {
      "channel": 0,
      "note": 73,
      "start": 20.7455,
      "duration": 0.0127,
      "velocity": 88,
      "chip": "ym2612"
    },
    {
      "channel": 1,
      "note": 73,
      "start": 20.746,
      "duration": 0.0151,
      "velocity": 93,
      "chip": "ym2612"
    },
    {
      "channel": 2,
      "note": 73,
      "start": 20.7465,
      "duration": 0.0097,
      "velocity": 93,
      "chip": "ym2612"
    },
    {
      "channel": 4,
      "note": 67,
      "start": 20.7473,
      "duration": 0.0045,
      "velocity": 100,
      "chip": "ym2612"
    },
    {
      "channel": 3,
      "note": 71,
      "start": 20.7515,
      "duration": 0.0076,
      "velocity": 93,
      "chip": "ym2612"
    },
    {
      "channel": 0,
      "note": 75,
      "start": 20.7636,
      "duration": 0.0121,
      "velocity": 88,
      "chip": "ym2612"
    },
    {
      "channel": 1,
      "note": 75,
      "start": 20.7641,
      "duration": 0.0144,
      "velocity": 93,
      "chip": "ym2612"
    },
    {
      "channel": 2,
      "note": 75,
      "start": 20.7646,
      "duration": 0.0091,
      "velocity": 93,
      "chip": "ym2612"
    },
    {
      "channel": 4,
      "note": 70,
      "start": 20.7655,
      "duration": 0.0039,
      "velocity": 100,
      "chip": "ym2612"
    },
    {
      "channel": 3,
      "note": 73,
      "start": 20.7689,
      "duration": 0.0075,
      "velocity": 93,
      "chip": "ym2612"
    },
    {
      "channel": 0,
      "note": 76,
      "start": 20.7815,
      "duration": 0.0123,
      "velocity": 88,
      "chip": "ym2612"
    },
    {
      "channel": 1,
      "note": 76,
      "start": 20.782,
      "duration": 0.0145,
      "velocity": 93,
      "chip": "ym2612"
    },
    {
      "channel": 2,
      "note": 76,
      "start": 20.7826,
      "duration": 0.0091,
      "velocity": 93,
      "chip": "ym2612"
    },
    {
      "channel": 4,
      "note": 71,
      "start": 20.7834,
      "duration": 0.0039,
      "velocity": 100,
      "chip": "ym2612"
    },
    {
      "channel": 3,
      "note": 75,
      "start": 20.7869,
      "duration": 0.0077,
      "velocity": 93,
      "chip": "ym2612"
    },
    {
      "channel": 0,
      "note": 78,
      "start": 20.7996,
      "duration": 0.012,
      "velocity": 88,
      "chip": "ym2612"
    },
    {
      "channel": 1,
      "note": 78,
      "start": 20.8001,
      "duration": 0.0143,
      "velocity": 93,
      "chip": "ym2612"
    },
    {
      "channel": 2,
      "note": 78,
      "start": 20.8006,
      "duration": 0.0091,
      "velocity": 93,
      "chip": "ym2612"
    },
    {
      "channel": 4,
      "note": 73,
      "start": 20.8015,
      "duration": 0.0039,
      "velocity": 100,
      "chip": "ym2612"
    },
    {
      "channel": 3,
      "note": 76,
      "start": 20.805,
      "duration": 0.0074,
      "velocity": 93,
      "chip": "ym2612"
    },
    {
      "channel": 0,
      "note": 79,
      "start": 20.8176,
      "duration": 0.0123,
      "velocity": 88,
      "chip": "ym2612"
    },
    {
      "channel": 1,
      "note": 79,
      "start": 20.8181,
      "duration": 0.0145,
      "velocity": 93,
      "chip": "ym2612"
    },
    {
      "channel": 2,
      "note": 79,
      "start": 20.8186,
      "duration": 0.0093,
      "velocity": 93,
      "chip": "ym2612"
    },
    {
      "channel": 4,
      "note": 75,
      "start": 20.8194,
      "duration": 0.0039,
      "velocity": 100,
      "chip": "ym2612"
    },
    {
      "channel": 3,
      "note": 78,
      "start": 20.8229,
      "duration": 0.0077,
      "velocity": 93,
      "chip": "ym2612"
    },
    {
      "channel": 0,
      "note": 75,
      "start": 20.8356,
      "duration": 0.0121,
      "velocity": 88,
      "chip": "ym2612"
    },
    {
      "channel": 1,
      "note": 75,
      "start": 20.8361,
      "duration": 0.0143,
      "velocity": 93,
      "chip": "ym2612"
    },
    {
      "channel": 2,
      "note": 75,
      "start": 20.8366,
      "duration": 0.0091,
      "velocity": 93,
      "chip": "ym2612"
    },
    {
      "channel": 4,
      "note": 76,
      "start": 20.8375,
      "duration": 0.0039,
      "velocity": 100,
      "chip": "ym2612"
    },
    {
      "channel": 3,
      "note": 79,
      "start": 20.841,
      "duration": 0.0074,
      "velocity": 93,
      "chip": "ym2612"
    },
    {
      "channel": 0,
      "note": 76,
      "start": 20.8536,
      "duration": 0.0122,
      "velocity": 88,
      "chip": "ym2612"
    },
    {
      "channel": 1,
      "note": 76,
      "start": 20.8541,
      "duration": 0.0145,
      "velocity": 93,
      "chip": "ym2612"
    },
    {
      "channel": 2,
      "note": 76,
      "start": 20.8545,
      "duration": 0.0093,
      "velocity": 93,
      "chip": "ym2612"
    },
    {
      "channel": 4,
      "note": 78,
      "start": 20.8554,
      "duration": 0.0039,
      "velocity": 100,
      "chip": "ym2612"
    },
    {
      "channel": 3,
      "note": 75,
      "start": 20.859,
      "duration": 0.0075,
      "velocity": 93,
      "chip": "ym2612"
    },
    {
      "channel": 0,
      "note": 78,
      "start": 20.8716,
      "duration": 0.0122,
      "velocity": 88,
      "chip": "ym2612"
    },
    {
      "channel": 1,
      "note": 78,
      "start": 20.8721,
      "duration": 0.0144,
      "velocity": 93,
      "chip": "ym2612"
    },
    {
      "channel": 2,
      "note": 78,
      "start": 20.8726,
      "duration": 0.0091,
      "velocity": 93,
      "chip": "ym2612"
    },
    {
      "channel": 4,
      "note": 79,
      "start": 20.8734,
      "duration": 0.0039,
      "velocity": 100,
      "chip": "ym2612"
    },
    {
      "channel": 3,
      "note": 76,
      "start": 20.877,
      "duration": 0.0075,
      "velocity": 93,
      "chip": "ym2612"
    },
    {
      "channel": 0,
      "note": 79,
      "start": 20.8896,
      "duration": 0.0122,
      "velocity": 88,
      "chip": "ym2612"
    },
    {
      "channel": 1,
      "note": 79,
      "start": 20.89,
      "duration": 0.0145,
      "velocity": 93,
      "chip": "ym2612"
    },
    {
      "channel": 2,
      "note": 79,
      "start": 20.8905,
      "duration": 0.0092,
      "velocity": 93,
      "chip": "ym2612"
    },
    {
      "channel": 4,
      "note": 75,
      "start": 20.8914,
      "duration": 0.0039,
      "velocity": 100,
      "chip": "ym2612"
    },
    {
      "channel": 3,
      "note": 78,
      "start": 20.895,
      "duration": 0.0076,
      "velocity": 93,
      "chip": "ym2612"
    },
    {
      "channel": 0,
      "note": 83,
      "start": 20.9076,
      "duration": 0.0122,
      "velocity": 88,
      "chip": "ym2612"
    },
    {
      "channel": 1,
      "note": 83,
      "start": 20.9081,
      "duration": 0.0145,
      "velocity": 93,
      "chip": "ym2612"
    },
    {
      "channel": 2,
      "note": 83,
      "start": 20.9086,
      "duration": 0.0093,
      "velocity": 93,
      "chip": "ym2612"
    },
    {
      "channel": 4,
      "note": 76,
      "start": 20.9095,
      "duration": 0.0039,
      "velocity": 100,
      "chip": "ym2612"
    },
    {
      "channel": 3,
      "note": 79,
      "start": 20.913,
      "duration": 0.0076,
      "velocity": 93,
      "chip": "ym2612"
    },
    {
      "channel": 0,
      "note": 82,
      "start": 20.9256,
      "duration": 0.0121,
      "velocity": 88,
      "chip": "ym2612"
    },
    {
      "channel": 1,
      "note": 82,
      "start": 20.9262,
      "duration": 0.0143,
      "velocity": 93,
      "chip": "ym2612"
    },
    {
      "channel": 2,
      "note": 82,
      "start": 20.9267,
      "duration": 0.0091,
      "velocity": 93,
      "chip": "ym2612"
    },
    {
      "channel": 4,
      "note": 78,
      "start": 20.9275,
      "duration": 0.0039,
      "velocity": 100,
      "chip": "ym2612"
    },
    {
      "channel": 3,
      "note": 83,
      "start": 20.931,
      "duration": 0.0075,
      "velocity": 93,
      "chip": "ym2612"
    },
    {
      "channel": 0,
      "note": 76,
      "start": 20.9437,
      "duration": 0.0122,
      "velocity": 88,
      "chip": "ym2612"
    },
    {
      "channel": 1,
      "note": 76,
      "start": 20.9442,
      "duration": 0.0144,
      "velocity": 93,
      "chip": "ym2612"
    },
    {
      "channel": 2,
      "note": 76,
      "start": 20.9447,
      "duration": 0.0092,
      "velocity": 93,
      "chip": "ym2612"
    },
    {
      "channel": 4,
      "note": 79,
      "start": 20.9456,
      "duration": 0.004,
      "velocity": 100,
      "chip": "ym2612"
    },
    {
      "channel": 3,
      "note": 82,
      "start": 20.9491,
      "duration": 0.0076,
      "velocity": 93,
      "chip": "ym2612"
    },
    {
      "channel": 0,
      "note": 78,
      "start": 20.9617,
      "duration": 0.0122,
      "velocity": 88,
      "chip": "ym2612"
    },
    {
      "channel": 1,
      "note": 78,
      "start": 20.9622,
      "duration": 0.0144,
      "velocity": 93,
      "chip": "ym2612"
    },
    {
      "channel": 2,
      "note": 78,
      "start": 20.9627,
      "duration": 0.009,
      "velocity": 93,
      "chip": "ym2612"
    },
    {
      "channel": 4,
      "note": 83,
      "start": 20.9636,
      "duration": 0.0038,
      "velocity": 100,
      "chip": "ym2612"
    },
    {
      "channel": 3,
      "note": 76,
      "start": 20.967,
      "duration": 0.0076,
      "velocity": 93,
      "chip": "ym2612"
    },
    {
      "channel": 0,
      "note": 79,
      "start": 20.979,
      "duration": 0.0115,
      "velocity": 88,
      "chip": "ym2612"
    },
    {
      "channel": 1,
      "note": 79,
      "start": 20.9795,
      "duration": 0.0138,
      "velocity": 93,
      "chip": "ym2612"
    },
    {
      "channel": 2,
      "note": 79,
      "start": 20.98,
      "duration": 0.0085,
      "velocity": 93,
      "chip": "ym2612"
    },
    {
      "channel": 4,
      "note": 82,
      "start": 20.9809,
      "duration": 0.0033,
      "velocity": 100,
      "chip": "ym2612"
    },
    {
      "channel": 3,
      "note": 78,
      "start": 20.9838,
      "duration": 0.0075,
      "velocity": 93,
      "chip": "ym2612"
    },
    {
      "channel": 0,
      "note": 82,
      "start": 20.9957,
      "duration": 0.0117,
      "velocity": 88,
      "chip": "ym2612"
    },
    {
      "channel": 1,
      "note": 82,
      "start": 20.9962,
      "duration": 0.0139,
      "velocity": 93,
      "chip": "ym2612"
    },
    {
      "channel": 2,
      "note": 82,
      "start": 20.9967,
      "duration": 0.0086,
      "velocity": 93,
      "chip": "ym2612"
    },
    {
      "channel": 4,
      "note": 76,
      "start": 20.9976,
      "duration": 0.0032,
      "velocity": 100,
      "chip": "ym2612"
    },
    {
      "channel": 3,
      "note": 79,
      "start": 21.0004,
      "duration": 0.0076,
      "velocity": 93,
      "chip": "ym2612"
    },
    {
      "channel": 0,
      "note": 83,
      "start": 21.0125,
      "duration": 0.0115,
      "velocity": 88,
      "chip": "ym2612"
    },
    {
      "channel": 1,
      "note": 83,
      "start": 21.013,
      "duration": 0.0137,
      "velocity": 93,
      "chip": "ym2612"
    },
    {
      "channel": 2,
      "note": 83,
      "start": 21.0135,
      "duration": 0.0084,
      "velocity": 93,
      "chip": "ym2612"
    },
    {
      "channel": 4,
      "note": 78,
      "start": 21.0144,
      "duration": 0.0032,
      "velocity": 100,
      "chip": "ym2612"
    },
    {
      "channel": 3,
      "note": 82,
      "start": 21.0172,
      "duration": 0.0075,
      "velocity": 93,
      "chip": "ym2612"
    },
    {
      "channel": 0,
      "note": 85,
      "start": 21.0304,
      "duration": 0.0203,
      "velocity": 88,
      "chip": "ym2612"
    },
    {
      "channel": 1,
      "note": 97,
      "start": 21.0341,
      "duration": 0.0192,
      "velocity": 100,
      "chip": "ym2612"
    },
    {
      "channel": 2,
      "note": 85,
      "start": 21.0348,
      "duration": 0.0188,
      "velocity": 93,
      "chip": "ym2612"
    },
    {
      "channel": 4,
      "note": 79,
      "start": 21.0356,
      "duration": 0.0088,
      "velocity": 100,
      "chip": "ym2612"
    },
    {
      "channel": 3,
      "note": 83,
      "start": 21.044,
      "duration": 0.0131,
      "velocity": 100,
      "chip": "ym2612"
    },
    {
      "channel": 0,
      "note": 83,
      "start": 21.0558,
      "duration": 0.0273,
      "velocity": 88,
      "chip": "ym2612"
    },
    {
      "channel": 1,
      "note": 95,
      "start": 21.0563,
      "duration": 0.0294,
      "velocity": 100,
      "chip": "ym2612"
    },
    {
      "channel": 2,
      "note": 83,
      "start": 21.0568,
      "duration": 0.0292,
      "velocity": 93,
      "chip": "ym2612"
    },
    {
      "channel": 4,
      "note": 82,
      "start": 21.0577,
      "duration": 0.0034,
      "velocity": 100,
      "chip": "ym2612"
    },
    {
      "channel": 3,
      "note": 97,
      "start": 21.0606,
      "duration": 0.0292,
      "velocity": 100,
      "chip": "ym2612"
    },
    {
      "channel": 4,
      "note": 83,
      "start": 21.0738,
      "duration": 0.003,
      "velocity": 100,
      "chip": "ym2612"
    },
    {
      "channel": 0,
      "note": 82,
      "start": 21.0884,
      "duration": 0.0115,
      "velocity": 88,
      "chip": "ym2612"
    },
    {
      "channel": 1,
      "note": 94,
      "start": 21.0889,
      "duration": 0.0137,
      "velocity": 100,
      "chip": "ym2612"
    },
    {
      "channel": 2,
      "note": 82,
      "start": 21.0895,
      "duration": 0.0134,
      "velocity": 93,
      "chip": "ym2612"
    },
    {
      "channel": 4,
      "note": 97,
      "start": 21.0904,
      "duration": 0.02,
      "velocity": 100,
      "chip": "ym2612"
    },
    {
      "channel": 3,
      "note": 95,
      "start": 21.0932,
      "duration": 0.0136,
      "velocity": 100,
      "chip": "ym2612"
    },
    {
      "channel": 0,
      "note": 79,
      "start": 21.1055,
      "duration": 0.0278,
      "velocity": 88,
      "chip": "ym2612"
    },
    {
      "channel": 1,
      "note": 91,
      "start": 21.106,
      "duration": 0.03,
      "velocity": 100,
      "chip": "ym2612"
    },
    {
      "channel": 2,
      "note": 79,
      "start": 21.1065,
      "duration": 0.0297,
      "velocity": 93,
      "chip": "ym2612"
    },
    {
      "channel": 3,
      "note": 94,
      "start": 21.11,
      "duration": 0.03,
      "velocity": 100,
      "chip": "ym2612"
    },
    {
      "channel": 4,
      "note": 95,
      "start": 21.1238,
      "duration": 0.0031,
      "velocity": 100,
      "chip": "ym2612"
    },
    {
      "channel": 0,
      "note": 78,
      "start": 21.1386,
      "duration": 0.0115,
      "velocity": 88,
      "chip": "ym2612"
    },
    {
      "channel": 1,
      "note": 90,
      "start": 21.1391,
      "duration": 0.0137,
      "velocity": 100,
      "chip": "ym2612"
    },
    {
      "channel": 2,
      "note": 78,
      "start": 21.1396,
      "duration": 0.0134,
      "velocity": 93,
      "chip": "ym2612"
    },
    {
      "channel": 4,
      "note": 94,
      "start": 21.1406,
      "duration": 0.0202,
      "velocity": 100,
      "chip": "ym2612"
    },
    {
      "channel": 3,
      "note": 91,
      "start": 21.1434,
      "duration": 0.0137,
      "velocity": 100,
      "chip": "ym2612"
    },
    {
      "channel": 0,
      "note": 76,
      "start": 21.1558,
      "duration": 0.0274,
      "velocity": 88,
      "chip": "ym2612"
    },
    {
      "channel": 1,
      "note": 88,
      "start": 21.1563,
      "duration": 0.0296,
      "velocity": 100,
      "chip": "ym2612"
    },
    {
      "channel": 2,
      "note": 76,
      "start": 21.1568,
      "duration": 0.0294,
      "velocity": 93,
      "chip": "ym2612"
    },
    {
      "channel": 3,
      "note": 90,
      "start": 21.1603,
      "duration": 0.0297,
      "velocity": 100,
      "chip": "ym2612"
    },
    {
      "channel": 4,
      "note": 91,
      "start": 21.1739,
      "duration": 0.003,
      "velocity": 100,
      "chip": "ym2612"
    },
    {
      "channel": 0,
      "note": 74,
      "start": 21.1886,
      "duration": 0.0115,
      "velocity": 88,
      "chip": "ym2612"
    },
    {
      "channel": 1,
      "note": 86,
      "start": 21.1891,
      "duration": 0.0137,
      "velocity": 100,
      "chip": "ym2612"
    },
    {
      "channel": 2,
      "note": 74,
      "start": 21.1897,
      "duration": 0.0134,
      "velocity": 93,
      "chip": "ym2612"
    },
    {
      "channel": 4,
      "note": 90,
      "start": 21.1905,
      "duration": 0.0202,
      "velocity": 100,
      "chip": "ym2612"
    },
    {
      "channel": 3,
      "note": 88,
      "start": 21.1934,
      "duration": 0.0138,
      "velocity": 100,
      "chip": "ym2612"
    },
    {
      "channel": 0,
      "note": 73,
      "start": 21.2059,
      "duration": 0.0279,
      "velocity": 88,
      "chip": "ym2612"
    },
    {
      "channel": 1,
      "note": 85,
      "start": 21.2063,
      "duration": 0.0301,
      "velocity": 100,
      "chip": "ym2612"
    },
    {
      "channel": 2,
      "note": 73,
      "start": 21.2068,
      "duration": 0.0299,
      "velocity": 93,
      "chip": "ym2612"
    },
    {
      "channel": 3,
      "note": 86,
      "start": 21.2104,
      "duration": 0.03,
      "velocity": 100,
      "chip": "ym2612"
    },
    {
      "channel": 4,
      "note": 88,
      "start": 21.2242,
      "duration": 0.0031,
      "velocity": 100,
      "chip": "ym2612"
    },
    {
      "channel": 0,
      "note": 71,
      "start": 21.239,
      "duration": 0.0115,
      "velocity": 88,
      "chip": "ym2612"
    },
    {
      "channel": 1,
      "note": 83,
      "start": 21.2395,
      "duration": 0.0136,
      "velocity": 100,
      "chip": "ym2612"
    },
    {
      "channel": 2,
      "note": 71,
      "start": 21.24,
      "duration": 0.0134,
      "velocity": 93,
      "chip": "ym2612"
    },
    {
      "channel": 4,
      "note": 86,
      "start": 21.241,
      "duration": 0.0201,
      "velocity": 100,
      "chip": "ym2612"
    },
    {
      "channel": 3,
      "note": 85,
      "start": 21.2438,
      "duration": 0.0136,
      "velocity": 100,
      "chip": "ym2612"
    },
    {
      "channel": 0,
      "note": 70,
      "start": 21.2561,
      "duration": 0.0275,
      "velocity": 88,
      "chip": "ym2612"
    },
    {
      "channel": 1,
      "note": 82,
      "start": 21.2566,
      "duration": 0.0296,
      "velocity": 100,
      "chip": "ym2612"
    },
    {
      "channel": 2,
      "note": 70,
      "start": 21.2571,
      "duration": 0.0293,
      "velocity": 93,
      "chip": "ym2612"
    },
    {
      "channel": 3,
      "note": 83,
      "start": 21.2606,
      "duration": 0.0298,
      "velocity": 100,
      "chip": "ym2612"
    },
    {
      "channel": 4,
      "note": 85,
      "start": 21.2743,
      "duration": 0.0029,
      "velocity": 100,
      "chip": "ym2612"
    },
    {
      "channel": 0,
      "note": 67,
      "start": 21.289,
      "duration": 0.0115,
      "velocity": 88,
      "chip": "ym2612"
    },
    {
      "channel": 1,
      "note": 79,
      "start": 21.2895,
      "duration": 0.0136,
      "velocity": 100,
      "chip": "ym2612"
    },
    {
      "channel": 2,
      "note": 67,
      "start": 21.29,
      "duration": 0.0133,
      "velocity": 93,
      "chip": "ym2612"
    },
    {
      "channel": 4,
      "note": 83,
      "start": 21.2909,
      "duration": 0.0207,
      "velocity": 100,
      "chip": "ym2612"
    },
    {
      "channel": 3,
      "note": 82,
      "start": 21.2938,
      "duration": 0.0136,
      "velocity": 100,
      "chip": "ym2612"
    },
    {
      "channel": 0,
      "note": 66,
      "start": 21.3061,
      "duration": 0.0278,
      "velocity": 88,
      "chip": "ym2612"
    },
    {
      "channel": 1,
      "note": 78,
      "start": 21.3066,
      "duration": 0.03,
      "velocity": 100,
      "chip": "ym2612"
    },
    {
      "channel": 2,
      "note": 66,
      "start": 21.3071,
      "duration": 0.0297,
      "velocity": 93,
      "chip": "ym2612"
    },
    {
      "channel": 3,
      "note": 79,
      "start": 21.3112,
      "duration": 0.0293,
      "velocity": 100,
      "chip": "ym2612"
    },
    {
      "channel": 4,
      "note": 82,
      "start": 21.3244,
      "duration": 0.0031,
      "velocity": 100,
      "chip": "ym2612"
    },
    {
      "channel": 0,
      "note": 64,
      "start": 21.3392,
      "duration": 0.0116,
      "velocity": 88,
      "chip": "ym2612"
    },
    {
      "channel": 1,
      "note": 76,
      "start": 21.3397,
      "duration": 0.0138,
      "velocity": 100,
      "chip": "ym2612"
    },
    {
      "channel": 2,
      "note": 64,
      "start": 21.3402,
      "duration": 0.0135,
      "velocity": 93,
      "chip": "ym2612"
    },
    {
      "channel": 4,
      "note": 79,
      "start": 21.3412,
      "duration": 0.0203,
      "velocity": 100,
      "chip": "ym2612"
    },
    {
      "channel": 3,
      "note": 78,
      "start": 21.344,
      "duration": 0.0138,
      "velocity": 100,
      "chip": "ym2612"
    },
    {
      "channel": 0,
      "note": 62,
      "start": 21.3565,
      "duration": 0.0275,
      "velocity": 88,
      "chip": "ym2612"
    },
    {
      "channel": 1,
      "note": 74,
      "start": 21.357,
      "duration": 0.0296,
      "velocity": 100,
      "chip": "ym2612"
    },
    {
      "channel": 2,
      "note": 62,
      "start": 21.3575,
      "duration": 0.0294,
      "velocity": 93,
      "chip": "ym2612"
    },
    {
      "channel": 3,
      "note": 76,
      "start": 21.361,
      "duration": 0.0298,
      "velocity": 100,
      "chip": "ym2612"
    },
    {
      "channel": 4,
      "note": 78,
      "start": 21.3746,
      "duration": 0.0031,
      "velocity": 100,
      "chip": "ym2612"
    },
    {
      "channel": 0,
      "note": 61,
      "start": 21.3894,
      "duration": 0.0116,
      "velocity": 88,
      "chip": "ym2612"
    },
    {
      "channel": 1,
      "note": 73,
      "start": 21.39,
      "duration": 0.0137,
      "velocity": 100,
      "chip": "ym2612"
    },
    {
      "channel": 2,
      "note": 61,
      "start": 21.3905,
      "duration": 0.0135,
      "velocity": 93,
      "chip": "ym2612"
    },
    {
      "channel": 4,
      "note": 76,
      "start": 21.3914,
      "duration": 0.0201,
      "velocity": 100,
      "chip": "ym2612"
    },
    {
      "channel": 3,
      "note": 74,
      "start": 21.3943,
      "duration": 0.0137,
      "velocity": 100,
      "chip": "ym2612"
    },
    {
      "channel": 0,
      "note": 59,
      "start": 21.4066,
      "duration": 0.0279,
      "velocity": 88,
      "chip": "ym2612"
    },
    {
      "channel": 1,
      "note": 71,
      "start": 21.4071,
      "duration": 0.03,
      "velocity": 100,
      "chip": "ym2612"
    },
    {
      "channel": 2,
      "note": 59,
      "start": 21.4076,
      "duration": 0.0298,
      "velocity": 93,
      "chip": "ym2612"
    },
    {
      "channel": 3,
      "note": 73,
      "start": 21.4111,
      "duration": 0.0299,
      "velocity": 100,
      "chip": "ym2612"
    },
    {
      "channel": 4,
      "note": 74,
      "start": 21.425,
      "duration": 0.0031,
      "velocity": 100,
      "chip": "ym2612"
    },
    {
      "channel": 0,
      "note": 62,
      "start": 21.4396,
      "duration": 0.0115,
      "velocity": 88,
      "chip": "ym2612"
    },
    {
      "channel": 1,
      "note": 74,
      "start": 21.4402,
      "duration": 0.0136,
      "velocity": 100,
      "chip": "ym2612"
    },
    {
      "channel": 2,
      "note": 62,
      "start": 21.4407,
      "duration": 0.0133,
      "velocity": 93,
      "chip": "ym2612"
    },
    {
      "channel": 4,
      "note": 73,
      "start": 21.4416,
      "duration": 0.02,
      "velocity": 100,
      "chip": "ym2612"
    },
    {
      "channel": 3,
      "note": 71,
      "start": 21.4445,
      "duration": 0.0137,
      "velocity": 100,
      "chip": "ym2612"
    },
    {
      "channel": 0,
      "note": 61,
      "start": 21.4568,
      "duration": 0.011,
      "velocity": 88,
      "chip": "ym2612"
    },
    {
      "channel": 1,
      "note": 73,
      "start": 21.4573,
      "duration": 0.0132,
      "velocity": 100,
      "chip": "ym2612"
    },
    {
      "channel": 2,
      "note": 61,
      "start": 21.4578,
      "duration": 0.0129,
      "velocity": 93,
      "chip": "ym2612"
    },
    {
      "channel": 3,
      "note": 74,
      "start": 21.4612,
      "duration": 0.0142,
      "velocity": 100,
      "chip": "ym2612"
    },
    {
      "channel": 0,
      "note": 59,
      "start": 21.4741,
      "duration": 0.0117,
      "velocity": 88,
      "chip": "ym2612"
    },
    {
      "channel": 1,
      "note": 71,
      "start": 21.4745,
      "duration": 0.0139,
      "velocity": 100,
      "chip": "ym2612"
    },
    {
      "channel": 2,
      "note": 59,
      "start": 21.475,
      "duration": 0.0136,
      "velocity": 93,
      "chip": "ym2612"
    },
    {
      "channel": 4,
      "note": 71,
      "start": 21.476,
      "duration": 0.0033,
      "velocity": 100,
      "chip": "ym2612"
    },
    {
      "channel": 3,
      "note": 73,
      "start": 21.4789,
      "duration": 0.0136,
      "velocity": 100,
      "chip": "ym2612"
    },
    {
      "channel": 0,
      "note": 58,
      "start": 21.4911,
      "duration": 0.0114,
      "velocity": 88,
      "chip": "ym2612"
    },
    {
      "channel": 1,
      "note": 70,
      "start": 21.4916,
      "duration": 0.0136,
      "velocity": 100,
      "chip": "ym2612"
    },
    {
      "channel": 2,
      "note": 58,
      "start": 21.4921,
      "duration": 0.0134,
      "velocity": 93,
      "chip": "ym2612"
    },
    {
      "channel": 4,
      "note": 74,
      "start": 21.493,
      "duration": 0.0032,
      "velocity": 100,
      "chip": "ym2612"
    },
    {
      "channel": 3,
      "note": 71,
      "start": 21.4958,
      "duration": 0.0137,
      "velocity": 100,
      "chip": "ym2612"
    },
    {
      "channel": 0,
      "note": 55,
      "start": 21.5081,
      "duration": 0.0117,
      "velocity": 88,
      "chip": "ym2612"
    },
    {
      "channel": 1,
      "note": 67,
      "start": 21.5086,
      "duration": 0.0139,
      "velocity": 100,
      "chip": "ym2612"
    },
    {
      "channel": 2,
      "note": 55,
      "start": 21.5092,
      "duration": 0.0137,
      "velocity": 93,
      "chip": "ym2612"
    },
    {
      "channel": 4,
      "note": 73,
      "start": 21.51,
      "duration": 0.0033,
      "velocity": 100,
      "chip": "ym2612"
    },
    {
      "channel": 3,
      "note": 70,
      "start": 21.5129,
      "duration": 0.0139,
      "velocity": 100,
      "chip": "ym2612"
    },
    {
      "channel": 0,
      "note": 54,
      "start": 21.5256,
      "duration": 0.0115,
      "velocity": 88,
      "chip": "ym2612"
    },
    {
      "channel": 1,
      "note": 66,
      "start": 21.5261,
      "duration": 0.0137,
      "velocity": 100,
      "chip": "ym2612"
    },
    {
      "channel": 2,
      "note": 54,
      "start": 21.5265,
      "duration": 0.0135,
      "velocity": 93,
      "chip": "ym2612"
    },
    {
      "channel": 4,
      "note": 71,
      "start": 21.5275,
      "duration": 0.0032,
      "velocity": 100,
      "chip": "ym2612"
    },
    {
      "channel": 3,
      "note": 67,
      "start": 21.5303,
      "duration": 0.0139,
      "velocity": 100,
      "chip": "ym2612"
    },
    {
      "channel": 0,
      "note": 52,
      "start": 21.5429,
      "duration": 0.0121,
      "velocity": 88,
      "chip": "ym2612"
    },
    {
      "channel": 1,
      "note": 64,
      "start": 21.5434,
      "duration": 0.0143,
      "velocity": 100,
      "chip": "ym2612"
    },
    {
      "channel": 2,
      "note": 52,
      "start": 21.5439,
      "duration": 0.014,
      "velocity": 93,
      "chip": "ym2612"
    },
    {
      "channel": 4,
      "note": 70,
      "start": 21.5449,
      "duration": 0.0038,
      "velocity": 100,
      "chip": "ym2612"
    },
    {
      "channel": 3,
      "note": 66,
      "start": 21.5483,
      "duration": 0.0132,
      "velocity": 100,
      "chip": "ym2612"
    },
    {
      "channel": 0,
      "note": 50,
      "start": 21.5602,
      "duration": 0.0115,
      "velocity": 88,
      "chip": "ym2612"
    },
    {
      "channel": 1,
      "note": 62,
      "start": 21.5607,
      "duration": 0.0137,
      "velocity": 100,
      "chip": "ym2612"
    },
    {
      "channel": 2,
      "note": 50,
      "start": 21.5612,
      "duration": 0.0134,
      "velocity": 93,
      "chip": "ym2612"
    },
    {
      "channel": 4,
      "note": 67,
      "start": 21.5621,
      "duration": 0.0032,
      "velocity": 100,
      "chip": "ym2612"
    },
    {
      "channel": 3,
      "note": 64,
      "start": 21.5649,
      "duration": 0.01,
      "velocity": 100,
      "chip": "ym2612"
    },
    {
      "channel": 0,
      "note": 49,
      "start": 21.5782,
      "duration": 0.0315,
      "velocity": 88,
      "chip": "ym2612"
    },
    {
      "channel": 1,
      "note": 51,
      "start": 21.5825,
      "duration": 0.0306,
      "velocity": 94,
      "chip": "ym2612"
    },
    {
      "channel": 2,
      "note": 49,
      "start": 21.5867,
      "duration": 0.0211,
      "velocity": 93,
      "chip": "ym2612"
    },
    {
      "channel": 3,
      "note": 62,
      "start": 21.5975,
      "duration": 0.013,
      "velocity": 93,
      "chip": "ym2612"
    },
    {
      "channel": 4,
      "note": 66,
      "start": 21.6059,
      "duration": 0.0079,
      "velocity": 93,
      "chip": "ym2612"
    },
    {
      "channel": 0,
      "note": 49,
      "start": 21.6154,
      "duration": 0.121,
      "velocity": 88,
      "chip": "ym2612"
    },
    {
      "channel": 1,
      "note": 51,
      "start": 21.6176,
      "duration": 0.0212,
      "velocity": 94,
      "chip": "ym2612"
    },
    {
      "channel": 2,
      "note": 49,
      "start": 21.6181,
      "duration": 0.0082,
      "velocity": 93,
      "chip": "ym2612"
    },
    {
      "channel": 3,
      "note": 49,
      "start": 21.6212,
      "duration": 0.0078,
      "velocity": 93,
      "chip": "ym2612"
    },
    {
      "channel": 4,
      "note": 49,
      "start": 21.6243,
      "duration": 0.0153,
      "velocity": 93,
      "chip": "ym2612"
    },
    {
      "channel": 1,
      "note": 51,
      "start": 21.6585,
      "duration": 0.0976,
      "velocity": 94,
      "chip": "ym2612"
    },
    {
      "channel": 0,
      "note": 49,
      "start": 21.7757,
      "duration": 0.078,
      "velocity": 88,
      "chip": "ym2612"
    },
    {
      "channel": 1,
      "note": 51,
      "start": 21.7778,
      "duration": 0.0957,
      "velocity": 94,
      "chip": "ym2612"
    },
    {
      "channel": 2,
      "note": 49,
      "start": 21.7783,
      "duration": 0.0562,
      "velocity": 93,
      "chip": "ym2612"
    },
    {
      "channel": 3,
      "note": 49,
      "start": 21.796,
      "duration": 0.0585,
      "velocity": 93,
      "chip": "ym2612"
    },
    {
      "channel": 4,
      "note": 49,
      "start": 21.8159,
      "duration": 0.0585,
      "velocity": 93,
      "chip": "ym2612"
    },
    {
      "channel": 0,
      "note": 49,
      "start": 21.8931,
      "duration": 0.0412,
      "velocity": 88,
      "chip": "ym2612"
    },
    {
      "channel": 1,
      "note": 51,
      "start": 21.8952,
      "duration": 0.0143,
      "velocity": 94,
      "chip": "ym2612"
    },
    {
      "channel": 2,
      "note": 49,
      "start": 21.8957,
      "duration": 0.0086,
      "velocity": 93,
      "chip": "ym2612"
    },
    {
      "channel": 3,
      "note": 49,
      "start": 21.8993,
      "duration": 0.0077,
      "velocity": 93,
      "chip": "ym2612"
    },
    {
      "channel": 4,
      "note": 49,
      "start": 21.9023,
      "duration": 0.008,
      "velocity": 93,
      "chip": "ym2612"
    },
    {
      "channel": 1,
      "note": 51,
      "start": 21.9123,
      "duration": 0.0417,
      "velocity": 94,
      "chip": "ym2612"
    },
    {
      "channel": 0,
      "note": 49,
      "start": 21.9736,
      "duration": 40.7017,
      "velocity": 88,
      "chip": "ym2612"
    },
    {
      "channel": 1,
      "note": 51,
      "start": 21.9757,
      "duration": 40.6996,
      "velocity": 94,
      "chip": "ym2612"
    }
  ]
}