{
  "track_name": "15 - Shadow Boss",
  "duration_sec": 64.249,
  "sample_rate": 44100,
  "note_count": 696,
  "unique_pitches": 50,
  "pitch_range": 59,
  "avg_note_duration": 0.3198,
  "reconstruction_stats": {
    "notes_reconstructed": 696,
    "keyon_events": 696,
    "keyoff_events": 696,
    "orphan_keyons": 0,
    "unique_pitches": 50,
    "pitch_range": 59,
    "avg_duration_sec": 0.3198
  },
  "metadata": {
    "source": "V\\Vectorman 2\\15 - Shadow Boss.vgz"
  },
  "notes": [
    {
      "channel": 0,
      "note": 57,
      "start": 0.0017,
      "duration": 2.96,
      "velocity": 117,
      "chip": "ym2612"
    },
    {
      "channel": 5,
      "note": 45,
      "start": 0.0072,
      "duration": 2.9547,
      "velocity": 119,
      "chip": "ym2612"
    },
    {
      "channel": 3,
      "note": 93,
      "start": 0.0139,
      "duration": 0.1978,
      "velocity": 102,
      "chip": "ym2612"
    },
    {
      "channel": 3,
      "note": 81,
      "start": 0.2483,
      "duration": 0.2134,
      "velocity": 102,
      "chip": "ym2612"
    },
    {
      "channel": 4,
      "note": 93,
      "start": 0.3672,
      "duration": 0.1779,
      "velocity": 102,
      "chip": "ym2612"
    },
    {
      "channel": 3,
      "note": 94,
      "start": 0.4983,
      "duration": 0.2301,
      "velocity": 102,
      "chip": "ym2612"
    },
    {
      "channel": 4,
      "note": 81,
      "start": 0.6151,
      "duration": 0.1967,
      "velocity": 102,
      "chip": "ym2612"
    },
    {
      "channel": 3,
      "note": 81,
      "start": 0.7483,
      "duration": 0.2302,
      "velocity": 102,
      "chip": "ym2612"
    },
    {
      "channel": 4,
      "note": 94,
      "start": 0.8652,
      "duration": 0.1966,
      "velocity": 102,
      "chip": "ym2612"
    },
    {
      "channel": 3,
      "note": 91,
      "start": 0.9983,
      "duration": 0.2301,
      "velocity": 102,
      "chip": "ym2612"
    },
    {
      "channel": 4,
      "note": 81,
      "start": 1.1153,
      "duration": 0.1965,
      "velocity": 102,
      "chip": "ym2612"
    },
    {
      "channel": 3,
      "note": 81,
      "start": 1.2487,
      "duration": 0.2297,
      "velocity": 102,
      "chip": "ym2612"
    },
    {
      "channel": 4,
      "note": 91,
      "start": 1.3656,
      "duration": 0.1962,
      "velocity": 102,
      "chip": "ym2612"
    },
    {
      "channel": 3,
      "note": 93,
      "start": 1.4983,
      "duration": 0.2301,
      "velocity": 102,
      "chip": "ym2612"
    },
    {
      "channel": 4,
      "note": 81,
      "start": 1.6151,
      "duration": 0.1966,
      "velocity": 102,
      "chip": "ym2612"
    },
    {
      "channel": 3,
      "note": 81,
      "start": 1.7484,
      "duration": 0.2301,
      "velocity": 102,
      "chip": "ym2612"
    },
    {
      "channel": 4,
      "note": 93,
      "start": 1.8819,
      "duration": 0.18,
      "velocity": 102,
      "chip": "ym2612"
    },
    {
      "channel": 3,
      "note": 89,
      "start": 1.9984,
      "duration": 0.2301,
      "velocity": 102,
      "chip": "ym2612"
    },
    {
      "channel": 4,
      "note": 81,
      "start": 2.1319,
      "duration": 0.18,
      "velocity": 102,
      "chip": "ym2612"
    },
    {
      "channel": 3,
      "note": 81,
      "start": 2.2484,
      "duration": 0.2301,
      "velocity": 102,
      "chip": "ym2612"
    },
    {
      "channel": 4,
      "note": 89,
      "start": 2.3819,
      "duration": 0.1798,
      "velocity": 102,
      "chip": "ym2612"
    },
    {
      "channel": 3,
      "note": 91,
      "start": 2.4984,
      "duration": 0.2301,
      "velocity": 102,
      "chip": "ym2612"
    },
    {
      "channel": 4,
      "note": 81,
      "start": 2.6319,
      "duration": 0.18,
      "velocity": 102,
      "chip": "ym2612"
    },
    {
      "channel": 3,
      "note": 81,
      "start": 2.7484,
      "duration": 0.23,
      "velocity": 102,
      "chip": "ym2612"
    },
    {
      "channel": 4,
      "note": 91,
      "start": 2.8819,
      "duration": 0.1798,
      "velocity": 102,
      "chip": "ym2612"
    },
    {
      "channel": 0,
      "note": 58,
      "start": 2.9981,
      "duration": 1.0136,
      "velocity": 117,
      "chip": "ym2612"
    },
    {
      "channel": 5,
      "note": 46,
      "start": 3.0015,
      "duration": 1.0104,
      "velocity": 119,
      "chip": "ym2612"
    },
    {
      "channel": 3,
      "note": 88,
      "start": 3.0043,
      "duration": 0.2242,
      "velocity": 102,
      "chip": "ym2612"
    },
    {
      "channel": 4,
      "note": 81,
      "start": 3.1319,
      "duration": 0.1799,
      "velocity": 102,
      "chip": "ym2612"
    },
    {
      "channel": 3,
      "note": 81,
      "start": 3.2484,
      "duration": 0.2301,
      "velocity": 102,
      "chip": "ym2612"
    },
    {
      "channel": 4,
      "note": 88,
      "start": 3.3819,
      "duration": 0.18,
      "velocity": 102,
      "chip": "ym2612"
    },
    {
      "channel": 3,
      "note": 89,
      "start": 3.4984,
      "duration": 0.23,
      "velocity": 102,
      "chip": "ym2612"
    },
    {
      "channel": 4,
      "note": 81,
      "start": 3.6319,
      "duration": 0.1799,
      "velocity": 102,
      "chip": "ym2612"
    },
    {
      "channel": 3,
      "note": 81,
      "start": 3.7483,
      "duration": 0.23,
      "velocity": 102,
      "chip": "ym2612"
    },
    {
      "channel": 4,
      "note": 89,
      "start": 3.8819,
      "duration": 0.1798,
      "velocity": 102,
      "chip": "ym2612"
    },
    {
      "channel": 0,
      "note": 57,
      "start": 4.0152,
      "duration": 3.0464,
      "velocity": 117,
      "chip": "ym2612"
    },
    {
      "channel": 5,
      "note": 45,
      "start": 4.0184,
      "duration": 3.0434,
      "velocity": 119,
      "chip": "ym2612"
    },
    {
      "channel": 3,
      "note": 86,
      "start": 4.0212,
      "duration": 0.2071,
      "velocity": 102,
      "chip": "ym2612"
    },
    {
      "channel": 4,
      "note": 81,
      "start": 4.1319,
      "duration": 0.1798,
      "velocity": 102,
      "chip": "ym2612"
    },
    {
      "channel": 3,
      "note": 81,
      "start": 4.265,
      "duration": 0.2134,
      "velocity": 102,
      "chip": "ym2612"
    },
    {
      "channel": 4,
      "note": 86,
      "start": 4.3819,
      "duration": 0.1798,
      "velocity": 102,
      "chip": "ym2612"
    },
    {
      "channel": 3,
      "note": 88,
      "start": 4.515,
      "duration": 0.2134,
      "velocity": 102,
      "chip": "ym2612"
    },
    {
      "channel": 4,
      "note": 81,
      "start": 4.6319,
      "duration": 0.1798,
      "velocity": 102,
      "chip": "ym2612"
    },
    {
      "channel": 3,
      "note": 81,
      "start": 4.765,
      "duration": 0.2301,
      "velocity": 102,
      "chip": "ym2612"
    },
    {
      "channel": 4,
      "note": 88,
      "start": 4.8819,
      "duration": 0.1966,
      "velocity": 102,
      "chip": "ym2612"
    },
    {
      "channel": 3,
      "note": 89,
      "start": 5.015,
      "duration": 0.23,
      "velocity": 102,
      "chip": "ym2612"
    },
    {
      "channel": 4,
      "note": 81,
      "start": 5.1319,
      "duration": 0.1966,
      "velocity": 102,
      "chip": "ym2612"
    },
    {
      "channel": 3,
      "note": 81,
      "start": 5.2653,
      "duration": 0.2297,
      "velocity": 102,
      "chip": "ym2612"
    },
    {
      "channel": 4,
      "note": 89,
      "start": 5.3823,
      "duration": 0.1962,
      "velocity": 102,
      "chip": "ym2612"
    },
    {
      "channel": 3,
      "note": 88,
      "start": 5.5149,
      "duration": 0.2302,
      "velocity": 102,
      "chip": "ym2612"
    },
    {
      "channel": 4,
      "note": 81,
      "start": 5.6319,
      "duration": 0.1966,
      "velocity": 102,
      "chip": "ym2612"
    },
    {
      "channel": 3,
      "note": 81,
      "start": 5.765,
      "duration": 0.23,
      "velocity": 102,
      "chip": "ym2612"
    },
    {
      "channel": 4,
      "note": 88,
      "start": 5.8819,
      "duration": 0.1966,
      "velocity": 102,
      "chip": "ym2612"
    },
    {
      "channel": 3,
      "note": 91,
      "start": 6.0149,
      "duration": 0.2302,
      "velocity": 102,
      "chip": "ym2612"
    },
    {
      "channel": 4,
      "note": 81,
      "start": 6.1485,
      "duration": 0.18,
      "velocity": 102,
      "chip": "ym2612"
    },
    {
      "channel": 3,
      "note": 81,
      "start": 6.265,
      "duration": 0.23,
      "velocity": 102,
      "chip": "ym2612"
    },
    {
      "channel": 4,
      "note": 91,
      "start": 6.3985,
      "duration": 0.1799,
      "velocity": 102,
      "chip": "ym2612"
    },
    {
      "channel": 3,
      "note": 89,
      "start": 6.5151,
      "duration": 0.23,
      "velocity": 102,
      "chip": "ym2612"
    },
    {
      "channel": 4,
      "note": 81,
      "start": 6.6485,
      "duration": 0.1801,
      "velocity": 102,
      "chip": "ym2612"
    },
    {
      "channel": 3,
      "note": 81,
      "start": 6.765,
      "duration": 0.23,
      "velocity": 102,
      "chip": "ym2612"
    },
    {
      "channel": 4,
      "note": 89,
      "start": 6.8986,
      "duration": 0.18,
      "velocity": 102,
      "chip": "ym2612"
    },
    {
      "channel": 1,
      "note": 62,
      "start": 7.0148,
      "duration": 0.9636,
      "velocity": 117,
      "chip": "ym2612"
    },
    {
      "channel": 2,
      "note": 50,
      "start": 7.0179,
      "duration": 0.9608,
      "velocity": 119,
      "chip": "ym2612"
    },
    {
      "channel": 3,
      "note": 93,
      "start": 7.0207,
      "duration": 0.2244,
      "velocity": 102,
      "chip": "ym2612"
    },
    {
      "channel": 4,
      "note": 81,
      "start": 7.1485,
      "duration": 0.18,
      "velocity": 102,
      "chip": "ym2612"
    },
    {
      "channel": 3,
      "note": 81,
      "start": 7.2649,
      "duration": 0.2302,
      "velocity": 102,
      "chip": "ym2612"
    },
    {
      "channel": 4,
      "note": 93,
      "start": 7.3985,
      "duration": 0.18,
      "velocity": 102,
      "chip": "ym2612"
    },
    {
      "channel": 3,
      "note": 94,
      "start": 7.515,
      "duration": 0.2301,
      "velocity": 102,
      "chip": "ym2612"
    },
    {
      "channel": 4,
      "note": 81,
      "start": 7.6485,
      "duration": 0.18,
      "velocity": 102,
      "chip": "ym2612"
    },
    {
      "channel": 3,
      "note": 81,
      "start": 7.765,
      "duration": 0.23,
      "velocity": 102,
      "chip": "ym2612"
    },
    {
      "channel": 4,
      "note": 94,
      "start": 7.8985,
      "duration": 0.18,
      "velocity": 102,
      "chip": "ym2612"
    },
    {
      "channel": 0,
      "note": 57,
      "start": 8.0154,
      "duration": 3.0129,
      "velocity": 117,
      "chip": "ym2612"
    },
    {
      "channel": 5,
      "note": 45,
      "start": 8.0187,
      "duration": 3.0099,
      "velocity": 119,
      "chip": "ym2612"
    },
    {
      "channel": 3,
      "note": 93,
      "start": 8.0215,
      "duration": 0.2235,
      "velocity": 102,
      "chip": "ym2612"
    },
    {
      "channel": 4,
      "note": 81,
      "start": 8.1485,
      "duration": 0.18,
      "velocity": 102,
      "chip": "ym2612"
    },
    {
      "channel": 3,
      "note": 81,
      "start": 8.2817,
      "duration": 0.2133,
      "velocity": 102,
      "chip": "ym2612"
    },
    {
      "channel": 4,
      "note": 93,
      "start": 8.3985,
      "duration": 0.18,
      "velocity": 102,
      "chip": "ym2612"
    },
    {
      "channel": 1,
      "note": 57,
      "start": 8.5338,
      "duration": 3.0279,
      "velocity": 90,
      "chip": "ym2612"
    },
    {
      "channel": 3,
      "note": 94,
      "start": 8.5364,
      "duration": 0.2085,
      "velocity": 102,
      "chip": "ym2612"
    },
    {
      "channel": 4,
      "note": 81,
      "start": 8.6485,
      "duration": 0.1799,
      "velocity": 102,
      "chip": "ym2612"
    },
    {
      "channel": 3,
      "note": 81,
      "start": 8.7817,
      "duration": 0.2134,
      "velocity": 102,
      "chip": "ym2612"
    },
    {
      "channel": 4,
      "note": 94,
      "start": 8.8985,
      "duration": 0.18,
      "velocity": 102,
      "chip": "ym2612"
    },
    {
      "channel": 3,
      "note": 91,
      "start": 9.0317,
      "duration": 0.23,
      "velocity": 102,
      "chip": "ym2612"
    },
    {
      "channel": 4,
      "note": 81,
      "start": 9.1485,
      "duration": 0.1966,
      "velocity": 102,
      "chip": "ym2612"
    },
    {
      "channel": 3,
      "note": 81,
      "start": 9.2821,
      "duration": 0.2296,
      "velocity": 102,
      "chip": "ym2612"
    },
    {
      "channel": 4,
      "note": 91,
      "start": 9.3989,
      "duration": 0.1961,
      "velocity": 102,
      "chip": "ym2612"
    },
    {
      "channel": 3,
      "note": 93,
      "start": 9.5318,
      "duration": 0.23,
      "velocity": 102,
      "chip": "ym2612"
    },
    {
      "channel": 4,
      "note": 81,
      "start": 9.6485,
      "duration": 0.1965,
      "velocity": 102,
      "chip": "ym2612"
    },
    {
      "channel": 3,
      "note": 81,
      "start": 9.7817,
      "duration": 0.23,
      "velocity": 102,
      "chip": "ym2612"
    },
    {
      "channel": 4,
      "note": 93,
      "start": 9.8985,
      "duration": 0.1966,
      "velocity": 102,
      "chip": "ym2612"
    },
    {
      "channel": 3,
      "note": 89,
      "start": 10.0318,
      "duration": 0.23,
      "velocity": 102,
      "chip": "ym2612"
    },
    {
      "channel": 4,
      "note": 81,
      "start": 10.1485,
      "duration": 0.1966,
      "velocity": 102,
      "chip": "ym2612"
    },
    {
      "channel": 3,
      "note": 81,
      "start": 10.2817,
      "duration": 0.23,
      "velocity": 102,
      "chip": "ym2612"
    },
    {
      "channel": 4,
      "note": 89,
      "start": 10.4152,
      "duration": 0.18,
      "velocity": 102,
      "chip": "ym2612"
    },
    {
      "channel": 3,
      "note": 91,
      "start": 10.5317,
      "duration": 0.2301,
      "velocity": 102,
      "chip": "ym2612"
    },
    {
      "channel": 4,
      "note": 81,
      "start": 10.6653,
      "duration": 0.1798,
      "velocity": 102,
      "chip": "ym2612"
    },
    {
      "channel": 3,
      "note": 81,
      "start": 10.7817,
      "duration": 0.23,
      "velocity": 102,
      "chip": "ym2612"
    },
    {
      "channel": 4,
      "note": 91,
      "start": 10.9153,
      "duration": 0.1799,
      "velocity": 102,
      "chip": "ym2612"
    },
    {
      "channel": 0,
      "note": 53,
      "start": 11.0316,
      "duration": 1.0045,
      "velocity": 117,
      "chip": "ym2612"
    },
    {
      "channel": 5,
      "note": 41,
      "start": 11.035,
      "duration": 1.0268,
      "velocity": 119,
      "chip": "ym2612"
    },
    {
      "channel": 3,
      "note": 88,
      "start": 11.0378,
      "duration": 0.2239,
      "velocity": 102,
      "chip": "ym2612"
    },
    {
      "channel": 4,
      "note": 81,
      "start": 11.1652,
      "duration": 0.18,
      "velocity": 102,
      "chip": "ym2612"
    },
    {
      "channel": 3,
      "note": 81,
      "start": 11.2817,
      "duration": 0.23,
      "velocity": 102,
      "chip": "ym2612"
    },
    {
      "channel": 4,
      "note": 88,
      "start": 11.4152,
      "duration": 0.18,
      "velocity": 102,
      "chip": "ym2612"
    },
    {
      "channel": 2,
      "note": 54,
      "start": 11.5323,
      "duration": 1.0295,
      "velocity": 90,
      "chip": "ym2612"
    },
    {
      "channel": 3,
      "note": 89,
      "start": 11.535,
      "duration": 0.2267,
      "velocity": 102,
      "chip": "ym2612"
    },
    {
      "channel": 4,
      "note": 81,
      "start": 11.6652,
      "duration": 0.1799,
      "velocity": 102,
      "chip": "ym2612"
    },
    {
      "channel": 3,
      "note": 81,
      "start": 11.7817,
      "duration": 0.23,
      "velocity": 102,
      "chip": "ym2612"
    },
    {
      "channel": 4,
      "note": 89,
      "start": 11.9152,
      "duration": 0.18,
      "velocity": 102,
      "chip": "ym2612"
    },
    {
      "channel": 1,
      "note": 57,
      "start": 12.032,
      "duration": 3.0298,
      "velocity": 117,
      "chip": "ym2612"
    },
    {
      "channel": 3,
      "note": 45,
      "start": 12.0353,
      "duration": 3.0266,
      "velocity": 119,
      "chip": "ym2612"
    },
    {
      "channel": 0,
      "note": 86,
      "start": 12.0383,
      "duration": 0.2234,
      "velocity": 102,
      "chip": "ym2612"
    },
    {
      "channel": 4,
      "note": 81,
      "start": 12.1652,
      "duration": 0.1798,
      "velocity": 102,
      "chip": "ym2612"
    },
    {
      "channel": 0,
      "note": 81,
      "start": 12.2816,
      "duration": 0.23,
      "velocity": 102,
      "chip": "ym2612"
    },
    {
      "channel": 4,
      "note": 86,
      "start": 12.4151,
      "duration": 0.18,
      "velocity": 102,
      "chip": "ym2612"
    },
    {
      "channel": 5,
      "note": 57,
      "start": 12.5488,
      "duration": 2.9298,
      "velocity": 90,
      "chip": "ym2612"
    },
    {
      "channel": 0,
      "note": 88,
      "start": 12.5513,
      "duration": 0.2102,
      "velocity": 102,
      "chip": "ym2612"
    },
    {
      "channel": 4,
      "note": 81,
      "start": 12.6652,
      "duration": 0.1799,
      "velocity": 102,
      "chip": "ym2612"
    },
    {
      "channel": 0,
      "note": 81,
      "start": 12.7983,
      "duration": 0.2134,
      "velocity": 102,
      "chip": "ym2612"
    },
    {
      "channel": 4,
      "note": 88,
      "start": 12.9151,
      "duration": 0.18,
      "velocity": 102,
      "chip": "ym2612"
    },
    {
      "channel": 0,
      "note": 84,
      "start": 13.0482,
      "duration": 0.2135,
      "velocity": 102,
      "chip": "ym2612"
    },
    {
      "channel": 4,
      "note": 81,
      "start": 13.1651,
      "duration": 0.18,
      "velocity": 102,
      "chip": "ym2612"
    },
    {
      "channel": 0,
      "note": 81,
      "start": 13.2986,
      "duration": 0.2298,
      "velocity": 102,
      "chip": "ym2612"
    },
    {
      "channel": 4,
      "note": 84,
      "start": 13.4155,
      "duration": 0.1963,
      "velocity": 102,
      "chip": "ym2612"
    },
    {
      "channel": 0,
      "note": 86,
      "start": 13.5483,
      "duration": 0.23,
      "velocity": 102,
      "chip": "ym2612"
    },
    {
      "channel": 4,
      "note": 81,
      "start": 13.6651,
      "duration": 0.1966,
      "velocity": 102,
      "chip": "ym2612"
    },
    {
      "channel": 0,
      "note": 81,
      "start": 13.7983,
      "duration": 0.23,
      "velocity": 102,
      "chip": "ym2612"
    },
    {
      "channel": 4,
      "note": 86,
      "start": 13.9151,
      "duration": 0.1966,
      "velocity": 102,
      "chip": "ym2612"
    },
    {
      "channel": 0,
      "note": 83,
      "start": 14.0483,
      "duration": 0.23,
      "velocity": 102,
      "chip": "ym2612"
    },
    {
      "channel": 4,
      "note": 81,
      "start": 14.1651,
      "duration": 0.1966,
      "velocity": 102,
      "chip": "ym2612"
    },
    {
      "channel": 0,
      "note": 81,
      "start": 14.2983,
      "duration": 0.23,
      "velocity": 102,
      "chip": "ym2612"
    },
    {
      "channel": 4,
      "note": 83,
      "start": 14.4151,
      "duration": 0.1966,
      "velocity": 102,
      "chip": "ym2612"
    },
    {
      "channel": 0,
      "note": 84,
      "start": 14.5483,
      "duration": 0.2301,
      "velocity": 102,
      "chip": "ym2612"
    },
    {
      "channel": 4,
      "note": 81,
      "start": 14.6819,
      "duration": 0.1799,
      "velocity": 102,
      "chip": "ym2612"
    },
    {
      "channel": 0,
      "note": 81,
      "start": 14.7982,
      "duration": 0.2302,
      "velocity": 102,
      "chip": "ym2612"
    },
    {
      "channel": 4,
      "note": 84,
      "start": 14.9319,
      "duration": 0.1799,
      "velocity": 102,
      "chip": "ym2612"
    },
    {
      "channel": 2,
      "note": 58,
      "start": 15.0485,
      "duration": 0.9967,
      "velocity": 117,
      "chip": "ym2612"
    },
    {
      "channel": 0,
      "note": 46,
      "start": 15.0515,
      "duration": 0.0008,
      "velocity": 119,
      "chip": "ym2612"
    },
    {
      "channel": 0,
      "note": 86,
      "start": 15.0545,
      "duration": 0.2238,
      "velocity": 102,
      "chip": "ym2612"
    },
    {
      "channel": 4,
      "note": 81,
      "start": 15.1819,
      "duration": 0.1798,
      "velocity": 102,
      "chip": "ym2612"
    },
    {
      "channel": 0,
      "note": 81,
      "start": 15.2982,
      "duration": 0.2302,
      "velocity": 102,
      "chip": "ym2612"
    },
    {
      "channel": 4,
      "note": 86,
      "start": 15.4319,
      "duration": 0.18,
      "velocity": 102,
      "chip": "ym2612"
    },
    {
      "channel": 0,
      "note": 89,
      "start": 15.5483,
      "duration": 0.2301,
      "velocity": 102,
      "chip": "ym2612"
    },
    {
      "channel": 4,
      "note": 81,
      "start": 15.6819,
      "duration": 0.1799,
      "velocity": 102,
      "chip": "ym2612"
    },
    {
      "channel": 0,
      "note": 81,
      "start": 15.7983,
      "duration": 0.23,
      "velocity": 102,
      "chip": "ym2612"
    },
    {
      "channel": 4,
      "note": 89,
      "start": 15.9319,
      "duration": 0.1799,
      "velocity": 102,
      "chip": "ym2612"
    },
    {
      "channel": 1,
      "note": 53,
      "start": 16.0488,
      "duration": 3.0296,
      "velocity": 117,
      "chip": "ym2612"
    },
    {
      "channel": 3,
      "note": 41,
      "start": 16.052,
      "duration": 3.0265,
      "velocity": 119,
      "chip": "ym2612"
    },
    {
      "channel": 0,
      "note": 89,
      "start": 16.0548,
      "duration": 0.2236,
      "velocity": 102,
      "chip": "ym2612"
    },
    {
      "channel": 4,
      "note": 77,
      "start": 16.1819,
      "duration": 0.18,
      "velocity": 102,
      "chip": "ym2612"
    },
    {
      "channel": 0,
      "note": 77,
      "start": 16.2983,
      "duration": 0.2301,
      "velocity": 102,
      "chip": "ym2612"
    },
    {
      "channel": 4,
      "note": 89,
      "start": 16.4319,
      "duration": 0.18,
      "velocity": 102,
      "chip": "ym2612"
    },
    {
      "channel": 0,
      "note": 90,
      "start": 16.5483,
      "duration": 0.23,
      "velocity": 102,
      "chip": "ym2612"
    },
    {
      "channel": 4,
      "note": 77,
      "start": 16.6819,
      "duration": 0.1798,
      "velocity": 102,
      "chip": "ym2612"
    },
    {
      "channel": 0,
      "note": 77,
      "start": 16.8149,
      "duration": 0.2134,
      "velocity": 102,
      "chip": "ym2612"
    },
    {
      "channel": 4,
      "note": 90,
      "start": 16.9319,
      "duration": 0.1799,
      "velocity": 102,
      "chip": "ym2612"
    },
    {
      "channel": 0,
      "note": 87,
      "start": 17.0649,
      "duration": 0.2135,
      "velocity": 102,
      "chip": "ym2612"
    },
    {
      "channel": 4,
      "note": 77,
      "start": 17.1819,
      "duration": 0.18,
      "velocity": 102,
      "chip": "ym2612"
    },
    {
      "channel": 0,
      "note": 77,
      "start": 17.3153,
      "duration": 0.2131,
      "velocity": 102,
      "chip": "ym2612"
    },
    {
      "channel": 4,
      "note": 87,
      "start": 17.4323,
      "duration": 0.1795,
      "velocity": 102,
      "chip": "ym2612"
    },
    {
      "channel": 0,
      "note": 89,
      "start": 17.5649,
      "duration": 0.2301,
      "velocity": 102,
      "chip": "ym2612"
    },
    {
      "channel": 4,
      "note": 77,
      "start": 17.6819,
      "duration": 0.1966,
      "velocity": 102,
      "chip": "ym2612"
    },
    {
      "channel": 0,
      "note": 77,
      "start": 17.8149,
      "duration": 0.23,
      "velocity": 102,
      "chip": "ym2612"
    },
    {
      "channel": 4,
      "note": 89,
      "start": 17.9319,
      "duration": 0.1966,
      "velocity": 102,
      "chip": "ym2612"
    },
    {
      "channel": 0,
      "note": 85,
      "start": 18.0649,
      "duration": 0.2302,
      "velocity": 102,
      "chip": "ym2612"
    },
    {
      "channel": 4,
      "note": 77,
      "start": 18.1819,
      "duration": 0.1965,
      "velocity": 102,
      "chip": "ym2612"
    },
    {
      "channel": 0,
      "note": 77,
      "start": 18.3149,
      "duration": 0.23,
      "velocity": 102,
      "chip": "ym2612"
    },
    {
      "channel": 4,
      "note": 85,
      "start": 18.4319,
      "duration": 0.1966,
      "velocity": 102,
      "chip": "ym2612"
    },
    {
      "channel": 0,
      "note": 87,
      "start": 18.5649,
      "duration": 0.2301,
      "velocity": 102,
      "chip": "ym2612"
    },
    {
      "channel": 4,
      "note": 77,
      "start": 18.6819,
      "duration": 0.1966,
      "velocity": 102,
      "chip": "ym2612"
    },
    {
      "channel": 0,
      "note": 77,
      "start": 18.8149,
      "duration": 0.23,
      "velocity": 102,
      "chip": "ym2612"
    },
    {
      "channel": 4,
      "note": 87,
      "start": 18.9486,
      "duration": 0.18,
      "velocity": 102,
      "chip": "ym2612"
    },
    {
      "channel": 2,
      "note": 58,
      "start": 19.065,
      "duration": 0.9969,
      "velocity": 117,
      "chip": "ym2612"
    },
    {
      "channel": 5,
      "note": 46,
      "start": 19.0684,
      "duration": 0.9933,
      "velocity": 119,
      "chip": "ym2612"
    },
    {
      "channel": 0,
      "note": 84,
      "start": 19.0711,
      "duration": 0.2238,
      "velocity": 102,
      "chip": "ym2612"
    },
    {
      "channel": 4,
      "note": 77,
      "start": 19.1986,
      "duration": 0.1799,
      "velocity": 102,
      "chip": "ym2612"
    },
    {
      "channel": 0,
      "note": 77,
      "start": 19.3148,
      "duration": 0.2301,
      "velocity": 102,
      "chip": "ym2612"
    },
    {
      "channel": 4,
      "note": 84,
      "start": 19.4485,
      "duration": 0.18,
      "velocity": 102,
      "chip": "ym2612"
    },
    {
      "channel": 0,
      "note": 85,
      "start": 19.5649,
      "duration": 0.23,
      "velocity": 102,
      "chip": "ym2612"
    },
    {
      "channel": 4,
      "note": 77,
      "start": 19.6985,
      "duration": 0.18,
      "velocity": 102,
      "chip": "ym2612"
    },
    {
      "channel": 0,
      "note": 77,
      "start": 19.8149,
      "duration": 0.23,
      "velocity": 102,
      "chip": "ym2612"
    },
    {
      "channel": 4,
      "note": 85,
      "start": 19.9486,
      "duration": 0.1799,
      "velocity": 102,
      "chip": "ym2612"
    },
    {
      "channel": 1,
      "note": 53,
      "start": 20.0652,
      "duration": 3.0298,
      "velocity": 117,
      "chip": "ym2612"
    },
    {
      "channel": 3,
      "note": 41,
      "start": 20.0684,
      "duration": 3.0268,
      "velocity": 119,
      "chip": "ym2612"
    },
    {
      "channel": 0,
      "note": 82,
      "start": 20.071,
      "duration": 0.2239,
      "velocity": 102,
      "chip": "ym2612"
    },
    {
      "channel": 4,
      "note": 77,
      "start": 20.1985,
      "duration": 0.18,
      "velocity": 102,
      "chip": "ym2612"
    },
    {
      "channel": 0,
      "note": 77,
      "start": 20.3149,
      "duration": 0.2301,
      "velocity": 102,
      "chip": "ym2612"
    },
    {
      "channel": 4,
      "note": 82,
      "start": 20.4485,
      "duration": 0.18,
      "velocity": 102,
      "chip": "ym2612"
    },
    {
      "channel": 0,
      "note": 84,
      "start": 20.5649,
      "duration": 0.23,
      "velocity": 102,
      "chip": "ym2612"
    },
    {
      "channel": 4,
      "note": 77,
      "start": 20.6984,
      "duration": 0.1801,
      "velocity": 102,
      "chip": "ym2612"
    },
    {
      "channel": 0,
      "note": 77,
      "start": 20.8149,
      "duration": 0.2301,
      "velocity": 102,
      "chip": "ym2612"
    },
    {
      "channel": 4,
      "note": 84,
      "start": 20.9485,
      "duration": 0.1801,
      "velocity": 102,
      "chip": "ym2612"
    },
    {
      "channel": 0,
      "note": 85,
      "start": 21.0816,
      "duration": 0.2133,
      "velocity": 102,
      "chip": "ym2612"
    },
    {
      "channel": 4,
      "note": 77,
      "start": 21.1985,
      "duration": 0.18,
      "velocity": 102,
      "chip": "ym2612"
    },
    {
      "channel": 0,
      "note": 77,
      "start": 21.3319,
      "duration": 0.213,
      "velocity": 102,
      "chip": "ym2612"
    },
    {
      "channel": 4,
      "note": 85,
      "start": 21.4488,
      "duration": 0.1797,
      "velocity": 102,
      "chip": "ym2612"
    },
    {
      "channel": 0,
      "note": 84,
      "start": 21.5816,
      "duration": 0.2133,
      "velocity": 102,
      "chip": "ym2612"
    },
    {
      "channel": 4,
      "note": 77,
      "start": 21.6985,
      "duration": 0.18,
      "velocity": 102,
      "chip": "ym2612"
    },
    {
      "channel": 0,
      "note": 77,
      "start": 21.8316,
      "duration": 0.2301,
      "velocity": 102,
      "chip": "ym2612"
    },
    {
      "channel": 4,
      "note": 84,
      "start": 21.9485,
      "duration": 0.1966,
      "velocity": 102,
      "chip": "ym2612"
    },
    {
      "channel": 0,
      "note": 87,
      "start": 22.0816,
      "duration": 0.23,
      "velocity": 102,
      "chip": "ym2612"
    },
    {
      "channel": 4,
      "note": 77,
      "start": 22.1985,
      "duration": 0.1965,
      "velocity": 102,
      "chip": "ym2612"
    },
    {
      "channel": 0,
      "note": 77,
      "start": 22.3316,
      "duration": 0.2301,
      "velocity": 102,
      "chip": "ym2612"
    },
    {
      "channel": 4,
      "note": 87,
      "start": 22.4485,
      "duration": 0.1966,
      "velocity": 102,
      "chip": "ym2612"
    },
    {
      "channel": 0,
      "note": 85,
      "start": 22.5816,
      "duration": 0.23,
      "velocity": 102,
      "chip": "ym2612"
    },
    {
      "channel": 4,
      "note": 77,
      "start": 22.6985,
      "duration": 0.1966,
      "velocity": 102,
      "chip": "ym2612"
    },
    {
      "channel": 0,
      "note": 77,
      "start": 22.8316,
      "duration": 0.23,
      "velocity": 102,
      "chip": "ym2612"
    },
    {
      "channel": 4,
      "note": 85,
      "start": 22.9485,
      "duration": 0.1966,
      "velocity": 102,
      "chip": "ym2612"
    },
    {
      "channel": 2,
      "note": 49,
      "start": 23.0818,
      "duration": 0.9803,
      "velocity": 117,
      "chip": "ym2612"
    },
    {
      "channel": 5,
      "note": 37,
      "start": 23.0848,
      "duration": 0.9772,
      "velocity": 119,
      "chip": "ym2612"
    },
    {
      "channel": 0,
      "note": 89,
      "start": 23.0875,
      "duration": 0.2241,
      "velocity": 102,
      "chip": "ym2612"
    },
    {
      "channel": 4,
      "note": 77,
      "start": 23.2153,
      "duration": 0.1798,
      "velocity": 102,
      "chip": "ym2612"
    },
    {
      "channel": 0,
      "note": 77,
      "start": 23.3315,
      "duration": 0.2302,
      "velocity": 102,
      "chip": "ym2612"
    },
    {
      "channel": 4,
      "note": 89,
      "start": 23.4652,
      "duration": 0.1798,
      "velocity": 102,
      "chip": "ym2612"
    },
    {
      "channel": 0,
      "note": 90,
      "start": 23.5817,
      "duration": 0.23,
      "velocity": 102,
      "chip": "ym2612"
    },
    {
      "channel": 4,
      "note": 77,
      "start": 23.7151,
      "duration": 0.1799,
      "velocity": 102,
      "chip": "ym2612"
    },
    {
      "channel": 0,
      "note": 77,
      "start": 23.8317,
      "duration": 0.23,
      "velocity": 102,
      "chip": "ym2612"
    },
    {
      "channel": 4,
      "note": 90,
      "start": 23.9653,
      "duration": 0.1799,
      "velocity": 102,
      "chip": "ym2612"
    },
    {
      "channel": 1,
      "note": 53,
      "start": 24.0822,
      "duration": 2.9963,
      "velocity": 117,
      "chip": "ym2612"
    },
    {
      "channel": 3,
      "note": 41,
      "start": 24.0854,
      "duration": 2.9933,
      "velocity": 119,
      "chip": "ym2612"
    },
    {
      "channel": 0,
      "note": 89,
      "start": 24.0881,
      "duration": 0.2236,
      "velocity": 102,
      "chip": "ym2612"
    },
    {
      "channel": 4,
      "note": 77,
      "start": 24.2152,
      "duration": 0.1799,
      "velocity": 102,
      "chip": "ym2612"
    },
    {
      "channel": 0,
      "note": 77,
      "start": 24.3316,
      "duration": 0.23,
      "velocity": 102,
      "chip": "ym2612"
    },
    {
      "channel": 4,
      "note": 89,
      "start": 24.4651,
      "duration": 0.18,
      "velocity": 102,
      "chip": "ym2612"
    },
    {
      "channel": 0,
      "note": 90,
      "start": 24.5815,
      "duration": 0.2301,
      "velocity": 102,
      "chip": "ym2612"
    },
    {
      "channel": 4,
      "note": 77,
      "start": 24.7152,
      "duration": 0.1799,
      "velocity": 102,
      "chip": "ym2612"
    },
    {
      "channel": 0,
      "note": 77,
      "start": 24.8316,
      "duration": 0.23,
      "velocity": 102,
      "chip": "ym2612"
    },
    {
      "channel": 4,
      "note": 90,
      "start": 24.9651,
      "duration": 0.18,
      "velocity": 102,
      "chip": "ym2612"
    },
    {
      "channel": 0,
      "note": 87,
      "start": 25.0816,
      "duration": 0.23,
      "velocity": 102,
      "chip": "ym2612"
    },
    {
      "channel": 4,
      "note": 77,
      "start": 25.2152,
      "duration": 0.1799,
      "velocity": 102,
      "chip": "ym2612"
    },
    {
      "channel": 0,
      "note": 77,
      "start": 25.3488,
      "duration": 0.2129,
      "velocity": 102,
      "chip": "ym2612"
    },
    {
      "channel": 4,
      "note": 87,
      "start": 25.4655,
      "duration": 0.1796,
      "velocity": 102,
      "chip": "ym2612"
    },
    {
      "channel": 0,
      "note": 89,
      "start": 25.5983,
      "duration": 0.2134,
      "velocity": 102,
      "chip": "ym2612"
    },
    {
      "channel": 4,
      "note": 77,
      "start": 25.7152,
      "duration": 0.1799,
      "velocity": 102,
      "chip": "ym2612"
    },
    {
      "channel": 0,
      "note": 77,
      "start": 25.8482,
      "duration": 0.2134,
      "velocity": 102,
      "chip": "ym2612"
    },
    {
      "channel": 4,
      "note": 89,
      "start": 25.9652,
      "duration": 0.1799,
      "velocity": 102,
      "chip": "ym2612"
    },
    {
      "channel": 0,
      "note": 85,
      "start": 26.0983,
      "duration": 0.2302,
      "velocity": 102,
      "chip": "ym2612"
    },
    {
      "channel": 4,
      "note": 77,
      "start": 26.2151,
      "duration": 0.1966,
      "velocity": 102,
      "chip": "ym2612"
    },
    {
      "channel": 0,
      "note": 77,
      "start": 26.3483,
      "duration": 0.23,
      "velocity": 102,
      "chip": "ym2612"
    },
    {
      "channel": 4,
      "note": 85,
      "start": 26.4651,
      "duration": 0.1967,
      "velocity": 102,
      "chip": "ym2612"
    },
    {
      "channel": 0,
      "note": 87,
      "start": 26.5983,
      "duration": 0.23,
      "velocity": 102,
      "chip": "ym2612"
    },
    {
      "channel": 4,
      "note": 77,
      "start": 26.7151,
      "duration": 0.1966,
      "velocity": 102,
      "chip": "ym2612"
    },
    {
      "channel": 0,
      "note": 77,
      "start": 26.8482,
      "duration": 0.2302,
      "velocity": 102,
      "chip": "ym2612"
    },
    {
      "channel": 4,
      "note": 87,
      "start": 26.9652,
      "duration": 0.1967,
      "velocity": 102,
      "chip": "ym2612"
    },
    {
      "channel": 1,
      "note": 54,
      "start": 27.0983,
      "duration": 1.0134,
      "velocity": 117,
      "chip": "ym2612"
    },
    {
      "channel": 3,
      "note": 42,
      "start": 27.1018,
      "duration": 1.01,
      "velocity": 119,
      "chip": "ym2612"
    },
    {
      "channel": 0,
      "note": 84,
      "start": 27.1045,
      "duration": 0.2239,
      "velocity": 102,
      "chip": "ym2612"
    },
    {
      "channel": 4,
      "note": 77,
      "start": 27.2151,
      "duration": 0.1966,
      "velocity": 102,
      "chip": "ym2612"
    },
    {
      "channel": 0,
      "note": 77,
      "start": 27.3483,
      "duration": 0.23,
      "velocity": 102,
      "chip": "ym2612"
    },
    {
      "channel": 4,
      "note": 84,
      "start": 27.4819,
      "duration": 0.18,
      "velocity": 102,
      "chip": "ym2612"
    },
    {
      "channel": 0,
      "note": 85,
      "start": 27.5983,
      "duration": 0.2301,
      "velocity": 102,
      "chip": "ym2612"
    },
    {
      "channel": 4,
      "note": 77,
      "start": 27.7319,
      "duration": 0.1799,
      "velocity": 102,
      "chip": "ym2612"
    },
    {
      "channel": 0,
      "note": 77,
      "start": 27.8483,
      "duration": 0.23,
      "velocity": 102,
      "chip": "ym2612"
    },
    {
      "channel": 4,
      "note": 85,
      "start": 27.9819,
      "duration": 0.1798,
      "velocity": 102,
      "chip": "ym2612"
    },
    {
      "channel": 0,
      "note": 82,
      "start": 28.0983,
      "duration": 0.2301,
      "velocity": 102,
      "chip": "ym2612"
    },
    {
      "channel": 4,
      "note": 77,
      "start": 28.2319,
      "duration": 0.1798,
      "velocity": 102,
      "chip": "ym2612"
    },
    {
      "channel": 0,
      "note": 77,
      "start": 28.3482,
      "duration": 0.2301,
      "velocity": 102,
      "chip": "ym2612"
    },
    {
      "channel": 4,
      "note": 82,
      "start": 28.4819,
      "duration": 0.1798,
      "velocity": 102,
      "chip": "ym2612"
    },
    {
      "channel": 0,
      "note": 84,
      "start": 28.5982,
      "duration": 0.2302,
      "velocity": 102,
      "chip": "ym2612"
    },
    {
      "channel": 4,
      "note": 77,
      "start": 28.7319,
      "duration": 0.1798,
      "velocity": 102,
      "chip": "ym2612"
    },
    {
      "channel": 0,
      "note": 77,
      "start": 28.8482,
      "duration": 0.2302,
      "velocity": 102,
      "chip": "ym2612"
    },
    {
      "channel": 4,
      "note": 84,
      "start": 28.9819,
      "duration": 0.1798,
      "velocity": 102,
      "chip": "ym2612"
    },
    {
      "channel": 0,
      "note": 80,
      "start": 29.0983,
      "duration": 0.23,
      "velocity": 102,
      "chip": "ym2612"
    },
    {
      "channel": 4,
      "note": 77,
      "start": 29.2319,
      "duration": 0.1799,
      "velocity": 102,
      "chip": "ym2612"
    },
    {
      "channel": 0,
      "note": 77,
      "start": 29.3487,
      "duration": 0.2296,
      "velocity": 102,
      "chip": "ym2612"
    },
    {
      "channel": 4,
      "note": 80,
      "start": 29.4823,
      "duration": 0.1794,
      "velocity": 102,
      "chip": "ym2612"
    },
    {
      "channel": 0,
      "note": 82,
      "start": 29.6149,
      "duration": 0.2134,
      "velocity": 102,
      "chip": "ym2612"
    },
    {
      "channel": 4,
      "note": 77,
      "start": 29.7319,
      "duration": 0.1798,
      "velocity": 102,
      "chip": "ym2612"
    },
    {
      "channel": 0,
      "note": 77,
      "start": 29.8649,
      "duration": 0.2135,
      "velocity": 102,
      "chip": "ym2612"
    },
    {
      "channel": 4,
      "note": 82,
      "start": 29.9819,
      "duration": 0.1799,
      "velocity": 102,
      "chip": "ym2612"
    },
    {
      "channel": 0,
      "note": 79,
      "start": 30.1148,
      "duration": 0.2136,
      "velocity": 102,
      "chip": "ym2612"
    },
    {
      "channel": 4,
      "note": 77,
      "start": 30.2319,
      "duration": 0.1799,
      "velocity": 102,
      "chip": "ym2612"
    },
    {
      "channel": 0,
      "note": 77,
      "start": 30.3649,
      "duration": 0.23,
      "velocity": 102,
      "chip": "ym2612"
    },
    {
      "channel": 4,
      "note": 79,
      "start": 30.482,
      "duration": 0.1964,
      "velocity": 102,
      "chip": "ym2612"
    },
    {
      "channel": 0,
      "note": 80,
      "start": 30.6148,
      "duration": 0.2302,
      "velocity": 102,
      "chip": "ym2612"
    },
    {
      "channel": 4,
      "note": 77,
      "start": 30.7319,
      "duration": 0.1966,
      "velocity": 102,
      "chip": "ym2612"
    },
    {
      "channel": 0,
      "note": 77,
      "start": 30.8648,
      "duration": 0.2302,
      "velocity": 102,
      "chip": "ym2612"
    },
    {
      "channel": 4,
      "note": 80,
      "start": 30.9819,
      "duration": 0.1966,
      "velocity": 102,
      "chip": "ym2612"
    },
    {
      "channel": 0,
      "note": 82,
      "start": 31.1148,
      "duration": 0.2302,
      "velocity": 102,
      "chip": "ym2612"
    },
    {
      "channel": 4,
      "note": 77,
      "start": 31.2319,
      "duration": 0.1966,
      "velocity": 102,
      "chip": "ym2612"
    },
    {
      "channel": 0,
      "note": 77,
      "start": 31.3648,
      "duration": 0.2302,
      "velocity": 102,
      "chip": "ym2612"
    },
    {
      "channel": 4,
      "note": 82,
      "start": 31.4819,
      "duration": 0.1966,
      "velocity": 102,
      "chip": "ym2612"
    },
    {
      "channel": 0,
      "note": 85,
      "start": 31.6149,
      "duration": 0.23,
      "velocity": 102,
      "chip": "ym2612"
    },
    {
      "channel": 4,
      "note": 77,
      "start": 31.7485,
      "duration": 0.18,
      "velocity": 102,
      "chip": "ym2612"
    },
    {
      "channel": 0,
      "note": 77,
      "start": 31.8649,
      "duration": 0.23,
      "velocity": 102,
      "chip": "ym2612"
    },
    {
      "channel": 4,
      "note": 85,
      "start": 31.9985,
      "duration": 0.18,
      "velocity": 102,
      "chip": "ym2612"
    },
    {
      "channel": 1,
      "note": 53,
      "start": 32.1151,
      "duration": 2.9632,
      "velocity": 117,
      "chip": "ym2612"
    },
    {
      "channel": 5,
      "note": 53,
      "start": 32.1185,
      "duration": 3.51,
      "velocity": 90,
      "chip": "ym2612"
    },
    {
      "channel": 0,
      "note": 89,
      "start": 32.1213,
      "duration": 0.1737,
      "velocity": 102,
      "chip": "ym2612"
    },
    {
      "channel": 2,
      "note": 65,
      "start": 32.1262,
      "duration": 0.1691,
      "velocity": 102,
      "chip": "ym2612"
    },
    {
      "channel": 4,
      "note": 77,
      "start": 32.2485,
      "duration": 0.18,
      "velocity": 102,
      "chip": "ym2612"
    },
    {
      "channel": 0,
      "note": 77,
      "start": 32.3649,
      "duration": 0.18,
      "velocity": 102,
      "chip": "ym2612"
    },
    {
      "channel": 2,
      "note": 73,
      "start": 32.3679,
      "duration": 0.1774,
      "velocity": 102,
      "chip": "ym2612"
    },
    {
      "channel": 4,
      "note": 89,
      "start": 32.4985,
      "duration": 0.18,
      "velocity": 102,
      "chip": "ym2612"
    },
    {
      "channel": 0,
      "note": 90,
      "start": 32.6149,
      "duration": 0.1968,
      "velocity": 102,
      "chip": "ym2612"
    },
    {
      "channel": 2,
      "note": 65,
      "start": 32.6178,
      "duration": 0.1942,
      "velocity": 102,
      "chip": "ym2612"
    },
    {
      "channel": 4,
      "note": 77,
      "start": 32.7486,
      "duration": 0.18,
      "velocity": 102,
      "chip": "ym2612"
    },
    {
      "channel": 0,
      "note": 77,
      "start": 32.8649,
      "duration": 0.1966,
      "velocity": 102,
      "chip": "ym2612"
    },
    {
      "channel": 2,
      "note": 77,
      "start": 32.8683,
      "duration": 0.1936,
      "velocity": 102,
      "chip": "ym2612"
    },
    {
      "channel": 4,
      "note": 90,
      "start": 32.9985,
      "duration": 0.1799,
      "velocity": 102,
      "chip": "ym2612"
    },
    {
      "channel": 0,
      "note": 87,
      "start": 33.1152,
      "duration": 0.1965,
      "velocity": 102,
      "chip": "ym2612"
    },
    {
      "channel": 2,
      "note": 65,
      "start": 33.1182,
      "duration": 0.1938,
      "velocity": 102,
      "chip": "ym2612"
    },
    {
      "channel": 4,
      "note": 77,
      "start": 33.2485,
      "duration": 0.18,
      "velocity": 102,
      "chip": "ym2612"
    },
    {
      "channel": 0,
      "note": 77,
      "start": 33.3649,
      "duration": 0.1968,
      "velocity": 102,
      "chip": "ym2612"
    },
    {
      "channel": 2,
      "note": 78,
      "start": 33.3678,
      "duration": 0.1941,
      "velocity": 102,
      "chip": "ym2612"
    },
    {
      "channel": 4,
      "note": 87,
      "start": 33.4988,
      "duration": 0.1797,
      "velocity": 102,
      "chip": "ym2612"
    },
    {
      "channel": 0,
      "note": 89,
      "start": 33.6149,
      "duration": 0.1968,
      "velocity": 102,
      "chip": "ym2612"
    },
    {
      "channel": 2,
      "note": 65,
      "start": 33.6179,
      "duration": 0.1941,
      "velocity": 102,
      "chip": "ym2612"
    },
    {
      "channel": 4,
      "note": 77,
      "start": 33.7485,
      "duration": 0.18,
      "velocity": 102,
      "chip": "ym2612"
    },
    {
      "channel": 0,
      "note": 77,
      "start": 33.8816,
      "duration": 0.18,
      "velocity": 102,
      "chip": "ym2612"
    },
    {
      "channel": 2,
      "note": 75,
      "start": 33.8846,
      "duration": 0.1773,
      "velocity": 102,
      "chip": "ym2612"
    },
    {
      "channel": 4,
      "note": 89,
      "start": 33.9985,
      "duration": 0.18,
      "velocity": 102,
      "chip": "ym2612"
    },
    {
      "channel": 0,
      "note": 85,
      "start": 34.1317,
      "duration": 0.1799,
      "velocity": 102,
      "chip": "ym2612"
    },
    {
      "channel": 2,
      "note": 65,
      "start": 34.1347,
      "duration": 0.1773,
      "velocity": 102,
      "chip": "ym2612"
    },
    {
      "channel": 4,
      "note": 77,
      "start": 34.2485,
      "duration": 0.18,
      "velocity": 102,
      "chip": "ym2612"
    },
    {
      "channel": 0,
      "note": 77,
      "start": 34.3817,
      "duration": 0.1799,
      "velocity": 102,
      "chip": "ym2612"
    },
    {
      "channel": 2,
      "note": 77,
      "start": 34.3846,
      "duration": 0.1773,
      "velocity": 102,
      "chip": "ym2612"
    },
    {
      "channel": 4,
      "note": 85,
      "start": 34.4986,
      "duration": 0.1799,
      "velocity": 102,
      "chip": "ym2612"
    },
    {
      "channel": 0,
      "note": 87,
      "start": 34.6316,
      "duration": 0.18,
      "velocity": 102,
      "chip": "ym2612"
    },
    {
      "channel": 2,
      "note": 65,
      "start": 34.6346,
      "duration": 0.1773,
      "velocity": 102,
      "chip": "ym2612"
    },
    {
      "channel": 4,
      "note": 77,
      "start": 34.7485,
      "duration": 0.1966,
      "velocity": 102,
      "chip": "ym2612"
    },
    {
      "channel": 0,
      "note": 77,
      "start": 34.8817,
      "duration": 0.18,
      "velocity": 102,
      "chip": "ym2612"
    },
    {
      "channel": 2,
      "note": 73,
      "start": 34.8847,
      "duration": 0.1773,
      "velocity": 102,
      "chip": "ym2612"
    },
    {
      "channel": 4,
      "note": 87,
      "start": 34.9985,
      "duration": 0.1966,
      "velocity": 102,
      "chip": "ym2612"
    },
    {
      "channel": 1,
      "note": 54,
      "start": 35.1316,
      "duration": 0.9968,
      "velocity": 117,
      "chip": "ym2612"
    },
    {
      "channel": 0,
      "note": 84,
      "start": 35.1344,
      "duration": 0.1772,
      "velocity": 102,
      "chip": "ym2612"
    },
    {
      "channel": 2,
      "note": 65,
      "start": 35.1374,
      "duration": 0.1746,
      "velocity": 102,
      "chip": "ym2612"
    },
    {
      "channel": 4,
      "note": 77,
      "start": 35.2485,
      "duration": 0.1966,
      "velocity": 102,
      "chip": "ym2612"
    },
    {
      "channel": 0,
      "note": 77,
      "start": 35.3817,
      "duration": 0.18,
      "velocity": 102,
      "chip": "ym2612"
    },
    {
      "channel": 2,
      "note": 75,
      "start": 35.3847,
      "duration": 0.1773,
      "velocity": 102,
      "chip": "ym2612"
    },
    {
      "channel": 4,
      "note": 84,
      "start": 35.4985,
      "duration": 0.1966,
      "velocity": 102,
      "chip": "ym2612"
    },
    {
      "channel": 5,
      "note": 54,
      "start": 35.6319,
      "duration": 1.0799,
      "velocity": 90,
      "chip": "ym2612"
    },
    {
      "channel": 0,
      "note": 85,
      "start": 35.6345,
      "duration": 0.1771,
      "velocity": 102,
      "chip": "ym2612"
    },
    {
      "channel": 2,
      "note": 65,
      "start": 35.6375,
      "duration": 0.1744,
      "velocity": 102,
      "chip": "ym2612"
    },
    {
      "channel": 4,
      "note": 77,
      "start": 35.7485,
      "duration": 0.1965,
      "velocity": 102,
      "chip": "ym2612"
    },
    {
      "channel": 0,
      "note": 77,
      "start": 35.8816,
      "duration": 0.18,
      "velocity": 102,
      "chip": "ym2612"
    },
    {
      "channel": 2,
      "note": 72,
      "start": 35.8846,
      "duration": 0.1773,
      "velocity": 102,
      "chip": "ym2612"
    },
    {
      "channel": 4,
      "note": 85,
      "start": 36.0153,
      "duration": 0.1798,
      "velocity": 102,
      "chip": "ym2612"
    },
    {
      "channel": 1,
      "note": 53,
      "start": 36.1323,
      "duration": 3.0461,
      "velocity": 117,
      "chip": "ym2612"
    },
    {
      "channel": 0,
      "note": 82,
      "start": 36.1351,
      "duration": 0.1765,
      "velocity": 102,
      "chip": "ym2612"
    },
    {
      "channel": 2,
      "note": 65,
      "start": 36.1381,
      "duration": 0.1739,
      "velocity": 102,
      "chip": "ym2612"
    },
    {
      "channel": 4,
      "note": 77,
      "start": 36.2653,
      "duration": 0.1798,
      "velocity": 102,
      "chip": "ym2612"
    },
    {
      "channel": 0,
      "note": 77,
      "start": 36.3817,
      "duration": 0.18,
      "velocity": 102,
      "chip": "ym2612"
    },
    {
      "channel": 2,
      "note": 73,
      "start": 36.3847,
      "duration": 0.1773,
      "velocity": 102,
      "chip": "ym2612"
    },
    {
      "channel": 4,
      "note": 82,
      "start": 36.5152,
      "duration": 0.1798,
      "velocity": 102,
      "chip": "ym2612"
    },
    {
      "channel": 3,
      "note": 53,
      "start": 36.6325,
      "duration": 3.0793,
      "velocity": 90,
      "chip": "ym2612"
    },
    {
      "channel": 0,
      "note": 84,
      "start": 36.6351,
      "duration": 0.1765,
      "velocity": 102,
      "chip": "ym2612"
    },
    {
      "channel": 2,
      "note": 65,
      "start": 36.6381,
      "duration": 0.1738,
      "velocity": 102,
      "chip": "ym2612"
    },
    {
      "channel": 4,
      "note": 77,
      "start": 36.7652,
      "duration": 0.18,
      "velocity": 102,
      "chip": "ym2612"
    },
    {
      "channel": 0,
      "note": 77,
      "start": 36.8817,
      "duration": 0.1967,
      "velocity": 102,
      "chip": "ym2612"
    },
    {
      "channel": 2,
      "note": 70,
      "start": 36.885,
      "duration": 0.1937,
      "velocity": 102,
      "chip": "ym2612"
    },
    {
      "channel": 4,
      "note": 84,
      "start": 37.0152,
      "duration": 0.18,
      "velocity": 102,
      "chip": "ym2612"
    },
    {
      "channel": 0,
      "note": 85,
      "start": 37.132,
      "duration": 0.1964,
      "velocity": 102,
      "chip": "ym2612"
    },
    {
      "channel": 2,
      "note": 65,
      "start": 37.135,
      "duration": 0.1937,
      "velocity": 102,
      "chip": "ym2612"
    },
    {
      "channel": 4,
      "note": 77,
      "start": 37.2652,
      "duration": 0.18,
      "velocity": 102,
      "chip": "ym2612"
    },
    {
      "channel": 0,
      "note": 77,
      "start": 37.3816,
      "duration": 0.1968,
      "velocity": 102,
      "chip": "ym2612"
    },
    {
      "channel": 2,
      "note": 72,
      "start": 37.3846,
      "duration": 0.1941,
      "velocity": 102,
      "chip": "ym2612"
    },
    {
      "channel": 4,
      "note": 85,
      "start": 37.5155,
      "duration": 0.1795,
      "velocity": 102,
      "chip": "ym2612"
    },
    {
      "channel": 0,
      "note": 84,
      "start": 37.6316,
      "duration": 0.1968,
      "velocity": 102,
      "chip": "ym2612"
    },
    {
      "channel": 2,
      "note": 65,
      "start": 37.6346,
      "duration": 0.1941,
      "velocity": 102,
      "chip": "ym2612"
    },
    {
      "channel": 4,
      "note": 77,
      "start": 37.7651,
      "duration": 0.18,
      "velocity": 102,
      "chip": "ym2612"
    },
    {
      "channel": 0,
      "note": 77,
      "start": 37.8817,
      "duration": 0.1967,
      "velocity": 102,
      "chip": "ym2612"
    },
    {
      "channel": 2,
      "note": 73,
      "start": 37.8847,
      "duration": 0.194,
      "velocity": 102,
      "chip": "ym2612"
    },
    {
      "channel": 4,
      "note": 84,
      "start": 38.0152,
      "duration": 0.1798,
      "velocity": 102,
      "chip": "ym2612"
    },
    {
      "channel": 0,
      "note": 87,
      "start": 38.1482,
      "duration": 0.1802,
      "velocity": 102,
      "chip": "ym2612"
    },
    {
      "channel": 2,
      "note": 65,
      "start": 38.1512,
      "duration": 0.1776,
      "velocity": 102,
      "chip": "ym2612"
    },
    {
      "channel": 4,
      "note": 77,
      "start": 38.2651,
      "duration": 0.18,
      "velocity": 102,
      "chip": "ym2612"
    },
    {
      "channel": 0,
      "note": 77,
      "start": 38.3983,
      "duration": 0.18,
      "velocity": 102,
      "chip": "ym2612"
    },
    {
      "channel": 2,
      "note": 72,
      "start": 38.4012,
      "duration": 0.1775,
      "velocity": 102,
      "chip": "ym2612"
    },
    {
      "channel": 4,
      "note": 87,
      "start": 38.5152,
      "duration": 0.1798,
      "velocity": 102,
      "chip": "ym2612"
    },
    {
      "channel": 0,
      "note": 85,
      "start": 38.6482,
      "duration": 0.1802,
      "velocity": 102,
      "chip": "ym2612"
    },
    {
      "channel": 2,
      "note": 65,
      "start": 38.6511,
      "duration": 0.1776,
      "velocity": 102,
      "chip": "ym2612"
    },
    {
      "channel": 4,
      "note": 77,
      "start": 38.7651,
      "duration": 0.18,
      "velocity": 102,
      "chip": "ym2612"
    },
    {
      "channel": 0,
      "note": 77,
      "start": 38.8983,
      "duration": 0.18,
      "velocity": 102,
      "chip": "ym2612"
    },
    {
      "channel": 2,
      "note": 75,
      "start": 38.9012,
      "duration": 0.1775,
      "velocity": 102,
      "chip": "ym2612"
    },
    {
      "channel": 4,
      "note": 85,
      "start": 39.0152,
      "duration": 0.1966,
      "velocity": 102,
      "chip": "ym2612"
    },
    {
      "channel": 5,
      "note": 58,
      "start": 39.1483,
      "duration": 0.9635,
      "velocity": 117,
      "chip": "ym2612"
    },
    {
      "channel": 0,
      "note": 89,
      "start": 39.1511,
      "duration": 0.1773,
      "velocity": 102,
      "chip": "ym2612"
    },
    {
      "channel": 2,
      "note": 65,
      "start": 39.1541,
      "duration": 0.1747,
      "velocity": 102,
      "chip": "ym2612"
    },
    {
      "channel": 4,
      "note": 77,
      "start": 39.2651,
      "duration": 0.1967,
      "velocity": 102,
      "chip": "ym2612"
    },
    {
      "channel": 0,
      "note": 77,
      "start": 39.3983,
      "duration": 0.1801,
      "velocity": 102,
      "chip": "ym2612"
    },
    {
      "channel": 2,
      "note": 73,
      "start": 39.4013,
      "duration": 0.1774,
      "velocity": 102,
      "chip": "ym2612"
    },
    {
      "channel": 4,
      "note": 89,
      "start": 39.5152,
      "duration": 0.1967,
      "velocity": 102,
      "chip": "ym2612"
    },
    {
      "channel": 1,
      "note": 58,
      "start": 39.6485,
      "duration": 1.2631,
      "velocity": 90,
      "chip": "ym2612"
    },
    {
      "channel": 0,
      "note": 90,
      "start": 39.6511,
      "duration": 0.1772,
      "velocity": 102,
      "chip": "ym2612"
    },
    {
      "channel": 2,
      "note": 65,
      "start": 39.6541,
      "duration": 0.1745,
      "velocity": 102,
      "chip": "ym2612"
    },
    {
      "channel": 4,
      "note": 77,
      "start": 39.7651,
      "duration": 0.1967,
      "velocity": 102,
      "chip": "ym2612"
    },
    {
      "channel": 0,
      "note": 77,
      "start": 39.8983,
      "duration": 0.1801,
      "velocity": 102,
      "chip": "ym2612"
    },
    {
      "channel": 2,
      "note": 77,
      "start": 39.9013,
      "duration": 0.1775,
      "velocity": 102,
      "chip": "ym2612"
    },
    {
      "channel": 4,
      "note": 90,
      "start": 40.0153,
      "duration": 0.1966,
      "velocity": 102,
      "chip": "ym2612"
    },
    {
      "channel": 5,
      "note": 53,
      "start": 40.1485,
      "duration": 3.0134,
      "velocity": 117,
      "chip": "ym2612"
    },
    {
      "channel": 0,
      "note": 89,
      "start": 40.1513,
      "duration": 0.177,
      "velocity": 102,
      "chip": "ym2612"
    },
    {
      "channel": 2,
      "note": 65,
      "start": 40.1543,
      "duration": 0.1744,
      "velocity": 102,
      "chip": "ym2612"
    },
    {
      "channel": 4,
      "note": 77,
      "start": 40.2819,
      "duration": 0.1799,
      "velocity": 102,
      "chip": "ym2612"
    },
    {
      "channel": 0,
      "note": 77,
      "start": 40.3982,
      "duration": 0.1802,
      "velocity": 102,
      "chip": "ym2612"
    },
    {
      "channel": 2,
      "note": 78,
      "start": 40.4012,
      "duration": 0.1776,
      "velocity": 102,
      "chip": "ym2612"
    },
    {
      "channel": 4,
      "note": 89,
      "start": 40.5319,
      "duration": 0.1799,
      "velocity": 102,
      "chip": "ym2612"
    },
    {
      "channel": 3,
      "note": 53,
      "start": 40.6487,
      "duration": 3.0298,
      "velocity": 90,
      "chip": "ym2612"
    },
    {
      "channel": 0,
      "note": 90,
      "start": 40.6513,
      "duration": 0.1771,
      "velocity": 102,
      "chip": "ym2612"
    },
    {
      "channel": 2,
      "note": 65,
      "start": 40.6542,
      "duration": 0.1746,
      "velocity": 102,
      "chip": "ym2612"
    },
    {
      "channel": 4,
      "note": 77,
      "start": 40.7819,
      "duration": 0.1799,
      "velocity": 102,
      "chip": "ym2612"
    },
    {
      "channel": 0,
      "note": 77,
      "start": 40.8983,
      "duration": 0.1801,
      "velocity": 102,
      "chip": "ym2612"
    },
    {
      "channel": 2,
      "note": 77,
      "start": 40.9016,
      "duration": 0.1772,
      "velocity": 102,
      "chip": "ym2612"
    },
    {
      "channel": 4,
      "note": 90,
      "start": 41.0319,
      "duration": 0.1798,
      "velocity": 102,
      "chip": "ym2612"
    },
    {
      "channel": 0,
      "note": 87,
      "start": 41.1487,
      "duration": 0.1962,
      "velocity": 102,
      "chip": "ym2612"
    },
    {
      "channel": 2,
      "note": 65,
      "start": 41.1517,
      "duration": 0.1936,
      "velocity": 102,
      "chip": "ym2612"
    },
    {
      "channel": 4,
      "note": 77,
      "start": 41.2819,
      "duration": 0.1799,
      "velocity": 102,
      "chip": "ym2612"
    },
    {
      "channel": 0,
      "note": 77,
      "start": 41.3982,
      "duration": 0.1968,
      "velocity": 102,
      "chip": "ym2612"
    },
    {
      "channel": 2,
      "note": 78,
      "start": 41.4011,
      "duration": 0.1942,
      "velocity": 102,
      "chip": "ym2612"
    },
    {
      "channel": 4,
      "note": 87,
      "start": 41.5322,
      "duration": 0.1795,
      "velocity": 102,
      "chip": "ym2612"
    },
    {
      "channel": 0,
      "note": 89,
      "start": 41.6483,
      "duration": 0.1966,
      "velocity": 102,
      "chip": "ym2612"
    },
    {
      "channel": 2,
      "note": 65,
      "start": 41.6513,
      "duration": 0.1939,
      "velocity": 102,
      "chip": "ym2612"
    },
    {
      "channel": 4,
      "note": 77,
      "start": 41.7819,
      "duration": 0.1799,
      "velocity": 102,
      "chip": "ym2612"
    },
    {
      "channel": 0,
      "note": 77,
      "start": 41.8982,
      "duration": 0.1968,
      "velocity": 102,
      "chip": "ym2612"
    },
    {
      "channel": 2,
      "note": 75,
      "start": 41.9011,
      "duration": 0.1941,
      "velocity": 102,
      "chip": "ym2612"
    },
    {
      "channel": 4,
      "note": 89,
      "start": 42.0319,
      "duration": 0.1798,
      "velocity": 102,
      "chip": "ym2612"
    },
    {
      "channel": 0,
      "note": 85,
      "start": 42.1483,
      "duration": 0.1966,
      "velocity": 102,
      "chip": "ym2612"
    },
    {
      "channel": 2,
      "note": 65,
      "start": 42.1513,
      "duration": 0.1939,
      "velocity": 102,
      "chip": "ym2612"
    },
    {
      "channel": 4,
      "note": 77,
      "start": 42.2819,
      "duration": 0.1799,
      "velocity": 102,
      "chip": "ym2612"
    },
    {
      "channel": 0,
      "note": 77,
      "start": 42.4149,
      "duration": 0.1801,
      "velocity": 102,
      "chip": "ym2612"
    },
    {
      "channel": 2,
      "note": 77,
      "start": 42.4179,
      "duration": 0.1774,
      "velocity": 102,
      "chip": "ym2612"
    },
    {
      "channel": 4,
      "note": 85,
      "start": 42.5319,
      "duration": 0.1798,
      "velocity": 102,
      "chip": "ym2612"
    },
    {
      "channel": 0,
      "note": 87,
      "start": 42.6649,
      "duration": 0.18,
      "velocity": 102,
      "chip": "ym2612"
    },
    {
      "channel": 2,
      "note": 65,
      "start": 42.6678,
      "duration": 0.1774,
      "velocity": 102,
      "chip": "ym2612"
    },
    {
      "channel": 4,
      "note": 77,
      "start": 42.7819,
      "duration": 0.1799,
      "velocity": 102,
      "chip": "ym2612"
    },
    {
      "channel": 0,
      "note": 77,
      "start": 42.9149,
      "duration": 0.18,
      "velocity": 102,
      "chip": "ym2612"
    },
    {
      "channel": 2,
      "note": 73,
      "start": 42.9179,
      "duration": 0.1774,
      "velocity": 102,
      "chip": "ym2612"
    },
    {
      "channel": 4,
      "note": 87,
      "start": 43.0319,
      "duration": 0.1799,
      "velocity": 102,
      "chip": "ym2612"
    },
    {
      "channel": 5,
      "note": 49,
      "start": 43.1651,
      "duration": 1.0135,
      "velocity": 117,
      "chip": "ym2612"
    },
    {
      "channel": 0,
      "note": 84,
      "start": 43.1679,
      "duration": 0.177,
      "velocity": 102,
      "chip": "ym2612"
    },
    {
      "channel": 2,
      "note": 65,
      "start": 43.1709,
      "duration": 0.1744,
      "velocity": 102,
      "chip": "ym2612"
    },
    {
      "channel": 4,
      "note": 77,
      "start": 43.2819,
      "duration": 0.1966,
      "velocity": 102,
      "chip": "ym2612"
    },
    {
      "channel": 0,
      "note": 77,
      "start": 43.4149,
      "duration": 0.18,
      "velocity": 102,
      "chip": "ym2612"
    },
    {
      "channel": 2,
      "note": 75,
      "start": 43.4178,
      "duration": 0.1775,
      "velocity": 102,
      "chip": "ym2612"
    },
    {
      "channel": 4,
      "note": 84,
      "start": 43.5319,
      "duration": 0.1967,
      "velocity": 102,
      "chip": "ym2612"
    },
    {
      "channel": 1,
      "note": 50,
      "start": 43.665,
      "duration": 1.0134,
      "velocity": 90,
      "chip": "ym2612"
    },
    {
      "channel": 0,
      "note": 85,
      "start": 43.6676,
      "duration": 0.1773,
      "velocity": 102,
      "chip": "ym2612"
    },
    {
      "channel": 2,
      "note": 65,
      "start": 43.6706,
      "duration": 0.1747,
      "velocity": 102,
      "chip": "ym2612"
    },
    {
      "channel": 4,
      "note": 77,
      "start": 43.7819,
      "duration": 0.1966,
      "velocity": 102,
      "chip": "ym2612"
    },
    {
      "channel": 0,
      "note": 77,
      "start": 43.9148,
      "duration": 0.1802,
      "velocity": 102,
      "chip": "ym2612"
    },
    {
      "channel": 2,
      "note": 72,
      "start": 43.9178,
      "duration": 0.1776,
      "velocity": 102,
      "chip": "ym2612"
    },
    {
      "channel": 4,
      "note": 85,
      "start": 44.032,
      "duration": 0.1966,
      "velocity": 102,
      "chip": "ym2612"
    },
    {
      "channel": 3,
      "note": 53,
      "start": 44.1656,
      "duration": 3.0293,
      "velocity": 117,
      "chip": "ym2612"
    },
    {
      "channel": 0,
      "note": 82,
      "start": 44.1684,
      "duration": 0.1765,
      "velocity": 102,
      "chip": "ym2612"
    },
    {
      "channel": 2,
      "note": 65,
      "start": 44.1714,
      "duration": 0.1739,
      "velocity": 102,
      "chip": "ym2612"
    },
    {
      "channel": 4,
      "note": 77,
      "start": 44.2819,
      "duration": 0.1966,
      "velocity": 102,
      "chip": "ym2612"
    },
    {
      "channel": 0,
      "note": 77,
      "start": 44.4149,
      "duration": 0.18,
      "velocity": 102,
      "chip": "ym2612"
    },
    {
      "channel": 2,
      "note": 73,
      "start": 44.4179,
      "duration": 0.1774,
      "velocity": 102,
      "chip": "ym2612"
    },
    {
      "channel": 4,
      "note": 82,
      "start": 44.5485,
      "duration": 0.1799,
      "velocity": 102,
      "chip": "ym2612"
    },
    {
      "channel": 5,
      "note": 53,
      "start": 44.6658,
      "duration": 2.9462,
      "velocity": 90,
      "chip": "ym2612"
    },
    {
      "channel": 0,
      "note": 84,
      "start": 44.6684,
      "duration": 0.1765,
      "velocity": 102,
      "chip": "ym2612"
    },
    {
      "channel": 2,
      "note": 65,
      "start": 44.6713,
      "duration": 0.1739,
      "velocity": 102,
      "chip": "ym2612"
    },
    {
      "channel": 4,
      "note": 77,
      "start": 44.7985,
      "duration": 0.18,
      "velocity": 102,
      "chip": "ym2612"
    },
    {
      "channel": 0,
      "note": 77,
      "start": 44.9149,
      "duration": 0.18,
      "velocity": 102,
      "chip": "ym2612"
    },
    {
      "channel": 2,
      "note": 70,
      "start": 44.9183,
      "duration": 0.177,
      "velocity": 102,
      "chip": "ym2612"
    },
    {
      "channel": 4,
      "note": 84,
      "start": 45.0485,
      "duration": 0.1801,
      "velocity": 102,
      "chip": "ym2612"
    },
    {
      "channel": 0,
      "note": 80,
      "start": 45.1653,
      "duration": 0.1796,
      "velocity": 102,
      "chip": "ym2612"
    },
    {
      "channel": 2,
      "note": 65,
      "start": 45.1683,
      "duration": 0.177,
      "velocity": 102,
      "chip": "ym2612"
    },
    {
      "channel": 4,
      "note": 77,
      "start": 45.2985,
      "duration": 0.18,
      "velocity": 102,
      "chip": "ym2612"
    },
    {
      "channel": 0,
      "note": 77,
      "start": 45.4149,
      "duration": 0.1968,
      "velocity": 102,
      "chip": "ym2612"
    },
    {
      "channel": 2,
      "note": 72,
      "start": 45.4178,
      "duration": 0.1942,
      "velocity": 102,
      "chip": "ym2612"
    },
    {
      "channel": 4,
      "note": 80,
      "start": 45.5489,
      "duration": 0.1796,
      "velocity": 102,
      "chip": "ym2612"
    },
    {
      "channel": 0,
      "note": 82,
      "start": 45.6649,
      "duration": 0.1967,
      "velocity": 102,
      "chip": "ym2612"
    },
    {
      "channel": 2,
      "note": 65,
      "start": 45.6679,
      "duration": 0.194,
      "velocity": 102,
      "chip": "ym2612"
    },
    {
      "channel": 4,
      "note": 77,
      "start": 45.7985,
      "duration": 0.18,
      "velocity": 102,
      "chip": "ym2612"
    },
    {
      "channel": 0,
      "note": 77,
      "start": 45.9149,
      "duration": 0.1968,
      "velocity": 102,
      "chip": "ym2612"
    },
    {
      "channel": 2,
      "note": 68,
      "start": 45.9179,
      "duration": 0.1941,
      "velocity": 102,
      "chip": "ym2612"
    },
    {
      "channel": 4,
      "note": 82,
      "start": 46.0486,
      "duration": 0.1799,
      "velocity": 102,
      "chip": "ym2612"
    },
    {
      "channel": 0,
      "note": 79,
      "start": 46.1649,
      "duration": 0.1967,
      "velocity": 102,
      "chip": "ym2612"
    },
    {
      "channel": 2,
      "note": 65,
      "start": 46.1679,
      "duration": 0.194,
      "velocity": 102,
      "chip": "ym2612"
    },
    {
      "channel": 4,
      "note": 77,
      "start": 46.2985,
      "duration": 0.18,
      "velocity": 102,
      "chip": "ym2612"
    },
    {
      "channel": 0,
      "note": 77,
      "start": 46.4149,
      "duration": 0.1967,
      "velocity": 102,
      "chip": "ym2612"
    },
    {
      "channel": 2,
      "note": 70,
      "start": 46.4179,
      "duration": 0.194,
      "velocity": 102,
      "chip": "ym2612"
    },
    {
      "channel": 4,
      "note": 79,
      "start": 46.5485,
      "duration": 0.18,
      "velocity": 102,
      "chip": "ym2612"
    },
    {
      "channel": 0,
      "note": 80,
      "start": 46.6816,
      "duration": 0.18,
      "velocity": 102,
      "chip": "ym2612"
    },
    {
      "channel": 2,
      "note": 65,
      "start": 46.6846,
      "duration": 0.1773,
      "velocity": 102,
      "chip": "ym2612"
    },
    {
      "channel": 4,
      "note": 77,
      "start": 46.7985,
      "duration": 0.18,
      "velocity": 102,
      "chip": "ym2612"
    },
    {
      "channel": 0,
      "note": 77,
      "start": 46.9317,
      "duration": 0.1799,
      "velocity": 102,
      "chip": "ym2612"
    },
    {
      "channel": 2,
      "note": 67,
      "start": 46.9347,
      "duration": 0.1772,
      "velocity": 102,
      "chip": "ym2612"
    },
    {
      "channel": 4,
      "note": 80,
      "start": 47.0485,
      "duration": 0.18,
      "velocity": 102,
      "chip": "ym2612"
    },
    {
      "channel": 1,
      "note": 54,
      "start": 47.1818,
      "duration": 0.9966,
      "velocity": 117,
      "chip": "ym2612"
    },
    {
      "channel": 0,
      "note": 82,
      "start": 47.1846,
      "duration": 0.177,
      "velocity": 102,
      "chip": "ym2612"
    },
    {
      "channel": 2,
      "note": 65,
      "start": 47.1875,
      "duration": 0.1744,
      "velocity": 102,
      "chip": "ym2612"
    },
    {
      "channel": 4,
      "note": 77,
      "start": 47.2985,
      "duration": 0.18,
      "velocity": 102,
      "chip": "ym2612"
    },
    {
      "channel": 0,
      "note": 77,
      "start": 47.4317,
      "duration": 0.18,
      "velocity": 102,
      "chip": "ym2612"
    },
    {
      "channel": 2,
      "note": 68,
      "start": 47.4346,
      "duration": 0.1775,
      "velocity": 102,
      "chip": "ym2612"
    },
    {
      "channel": 4,
      "note": 82,
      "start": 47.5485,
      "duration": 0.1966,
      "velocity": 102,
      "chip": "ym2612"
    },
    {
      "channel": 0,
      "note": 85,
      "start": 47.6816,
      "duration": 0.18,
      "velocity": 102,
      "chip": "ym2612"
    },
    {
      "channel": 2,
      "note": 65,
      "start": 47.6846,
      "duration": 0.1773,
      "velocity": 102,
      "chip": "ym2612"
    },
    {
      "channel": 4,
      "note": 77,
      "start": 47.7985,
      "duration": 0.1966,
      "velocity": 102,
      "chip": "ym2612"
    },
    {
      "channel": 0,
      "note": 77,
      "start": 47.9316,
      "duration": 0.18,
      "velocity": 102,
      "chip": "ym2612"
    },
    {
      "channel": 2,
      "note": 70,
      "start": 47.9346,
      "duration": 0.1773,
      "velocity": 102,
      "chip": "ym2612"
    },
    {
      "channel": 4,
      "note": 85,
      "start": 48.0486,
      "duration": 0.1965,
      "velocity": 102,
      "chip": "ym2612"
    },
    {
      "channel": 1,
      "note": 51,
      "start": 48.1819,
      "duration": 3.0297,
      "velocity": 117,
      "chip": "ym2612"
    },
    {
      "channel": 3,
      "note": 39,
      "start": 48.1853,
      "duration": 3.0265,
      "velocity": 119,
      "chip": "ym2612"
    },
    {
      "channel": 0,
      "note": 75,
      "start": 48.1882,
      "duration": 0.0901,
      "velocity": 102,
      "chip": "ym2612"
    },
    {
      "channel": 2,
      "note": 51,
      "start": 48.1913,
      "duration": 0.0873,
      "velocity": 102,
      "chip": "ym2612"
    },
    {
      "channel": 4,
      "note": 63,
      "start": 48.2987,
      "duration": 0.1132,
      "velocity": 102,
      "chip": "ym2612"
    },
    {
      "channel": 0,
      "note": 63,
      "start": 48.4317,
      "duration": 0.0967,
      "velocity": 102,
      "chip": "ym2612"
    },
    {
      "channel": 2,
      "note": 59,
      "start": 48.4347,
      "duration": 0.094,
      "velocity": 102,
      "chip": "ym2612"
    },
    {
      "channel": 4,
      "note": 75,
      "start": 48.5485,
      "duration": 0.1134,
      "velocity": 102,
      "chip": "ym2612"
    },
    {
      "channel": 0,
      "note": 76,
      "start": 48.6816,
      "duration": 0.0968,
      "velocity": 102,
      "chip": "ym2612"
    },
    {
      "channel": 2,
      "note": 51,
      "start": 48.685,
      "duration": 0.0937,
      "velocity": 102,
      "chip": "ym2612"
    },
    {
      "channel": 4,
      "note": 63,
      "start": 48.8151,
      "duration": 0.0966,
      "velocity": 102,
      "chip": "ym2612"
    },
    {
      "channel": 0,
      "note": 63,
      "start": 48.9319,
      "duration": 0.0965,
      "velocity": 102,
      "chip": "ym2612"
    },
    {
      "channel": 2,
      "note": 63,
      "start": 48.9349,
      "duration": 0.0938,
      "velocity": 102,
      "chip": "ym2612"
    },
    {
      "channel": 4,
      "note": 76,
      "start": 49.0652,
      "duration": 0.0965,
      "velocity": 102,
      "chip": "ym2612"
    },
    {
      "channel": 0,
      "note": 73,
      "start": 49.1817,
      "duration": 0.0968,
      "velocity": 102,
      "chip": "ym2612"
    },
    {
      "channel": 2,
      "note": 51,
      "start": 49.1847,
      "duration": 0.0941,
      "velocity": 102,
      "chip": "ym2612"
    },
    {
      "channel": 4,
      "note": 63,
      "start": 49.3156,
      "duration": 0.0962,
      "velocity": 102,
      "chip": "ym2612"
    },
    {
      "channel": 0,
      "note": 63,
      "start": 49.4316,
      "duration": 0.0968,
      "velocity": 102,
      "chip": "ym2612"
    },
    {
      "channel": 2,
      "note": 64,
      "start": 49.4346,
      "duration": 0.0941,
      "velocity": 102,
      "chip": "ym2612"
    },
    {
      "channel": 4,
      "note": 73,
      "start": 49.5652,
      "duration": 0.0965,
      "velocity": 102,
      "chip": "ym2612"
    },
    {
      "channel": 0,
      "note": 75,
      "start": 49.6817,
      "duration": 0.1133,
      "velocity": 102,
      "chip": "ym2612"
    },
    {
      "channel": 2,
      "note": 51,
      "start": 49.6847,
      "duration": 0.1106,
      "velocity": 102,
      "chip": "ym2612"
    },
    {
      "channel": 4,
      "note": 63,
      "start": 49.8153,
      "duration": 0.0966,
      "velocity": 102,
      "chip": "ym2612"
    },
    {
      "channel": 0,
      "note": 63,
      "start": 49.9317,
      "duration": 0.1133,
      "velocity": 102,
      "chip": "ym2612"
    },
    {
      "channel": 2,
      "note": 61,
      "start": 49.9347,
      "duration": 0.1106,
      "velocity": 102,
      "chip": "ym2612"
    },
    {
      "channel": 4,
      "note": 75,
      "start": 50.0653,
      "duration": 0.0965,
      "velocity": 102,
      "chip": "ym2612"
    },
    {
      "channel": 0,
      "note": 71,
      "start": 50.1817,
      "duration": 0.1133,
      "velocity": 102,
      "chip": "ym2612"
    },
    {
      "channel": 2,
      "note": 51,
      "start": 50.1847,
      "duration": 0.1106,
      "velocity": 102,
      "chip": "ym2612"
    },
    {
      "channel": 4,
      "note": 63,
      "start": 50.3153,
      "duration": 0.0966,
      "velocity": 102,
      "chip": "ym2612"
    },
    {
      "channel": 0,
      "note": 63,
      "start": 50.4317,
      "duration": 0.1133,
      "velocity": 102,
      "chip": "ym2612"
    },
    {
      "channel": 2,
      "note": 63,
      "start": 50.4347,
      "duration": 0.1106,
      "velocity": 102,
      "chip": "ym2612"
    },
    {
      "channel": 4,
      "note": 71,
      "start": 50.5653,
      "duration": 0.0965,
      "velocity": 102,
      "chip": "ym2612"
    },
    {
      "channel": 0,
      "note": 73,
      "start": 50.6817,
      "duration": 0.1133,
      "velocity": 102,
      "chip": "ym2612"
    },
    {
      "channel": 2,
      "note": 51,
      "start": 50.6847,
      "duration": 0.1106,
      "velocity": 102,
      "chip": "ym2612"
    },
    {
      "channel": 4,
      "note": 63,
      "start": 50.8152,
      "duration": 0.0966,
      "velocity": 102,
      "chip": "ym2612"
    },
    {
      "channel": 0,
      "note": 63,
      "start": 50.9482,
      "duration": 0.0968,
      "velocity": 102,
      "chip": "ym2612"
    },
    {
      "channel": 2,
      "note": 59,
      "start": 50.9512,
      "duration": 0.0941,
      "velocity": 102,
      "chip": "ym2612"
    },
    {
      "channel": 4,
      "note": 73,
      "start": 51.0652,
      "duration": 0.0966,
      "velocity": 102,
      "chip": "ym2612"
    },
    {
      "channel": 5,
      "note": 56,
      "start": 51.1984,
      "duration": 0.9968,
      "velocity": 117,
      "chip": "ym2612"
    },
    {
      "channel": 0,
      "note": 44,
      "start": 51.2015,
      "duration": 0.9935,
      "velocity": 119,
      "chip": "ym2612"
    },
    {
      "channel": 2,
      "note": 70,
      "start": 51.2044,
      "duration": 0.0908,
      "velocity": 102,
      "chip": "ym2612"
    },
    {
      "channel": 4,
      "note": 51,
      "start": 51.2074,
      "duration": 0.0877,
      "velocity": 102,
      "chip": "ym2612"
    },
    {
      "channel": 1,
      "note": 63,
      "start": 51.3154,
      "duration": 0.0964,
      "velocity": 102,
      "chip": "ym2612"
    },
    {
      "channel": 2,
      "note": 63,
      "start": 51.4485,
      "duration": 0.0968,
      "velocity": 102,
      "chip": "ym2612"
    },
    {
      "channel": 4,
      "note": 61,
      "start": 51.4514,
      "duration": 0.0938,
      "velocity": 102,
      "chip": "ym2612"
    },
    {
      "channel": 1,
      "note": 70,
      "start": 51.5651,
      "duration": 0.0966,
      "velocity": 102,
      "chip": "ym2612"
    },
    {
      "channel": 2,
      "note": 71,
      "start": 51.6986,
      "duration": 0.0966,
      "velocity": 102,
      "chip": "ym2612"
    },
    {
      "channel": 4,
      "note": 51,
      "start": 51.7015,
      "duration": 0.0936,
      "velocity": 102,
      "chip": "ym2612"
    },
    {
      "channel": 1,
      "note": 63,
      "start": 51.8151,
      "duration": 0.1132,
      "velocity": 102,
      "chip": "ym2612"
    },
    {
      "channel": 2,
      "note": 63,
      "start": 51.9485,
      "duration": 0.0968,
      "velocity": 102,
      "chip": "ym2612"
    },
    {
      "channel": 4,
      "note": 58,
      "start": 51.9514,
      "duration": 0.0938,
      "velocity": 102,
      "chip": "ym2612"
    },
    {
      "channel": 1,
      "note": 71,
      "start": 52.0651,
      "duration": 0.1134,
      "velocity": 102,
      "chip": "ym2612"
    },
    {
      "channel": 5,
      "note": 51,
      "start": 52.1992,
      "duration": 3.0295,
      "velocity": 117,
      "chip": "ym2612"
    },
    {
      "channel": 0,
      "note": 39,
      "start": 52.2022,
      "duration": 3.0261,
      "velocity": 119,
      "chip": "ym2612"
    },
    {
      "channel": 2,
      "note": 68,
      "start": 52.2052,
      "duration": 0.0901,
      "velocity": 102,
      "chip": "ym2612"
    },
    {
      "channel": 4,
      "note": 51,
      "start": 52.2081,
      "duration": 0.0871,
      "velocity": 102,
      "chip": "ym2612"
    },
    {
      "channel": 1,
      "note": 63,
      "start": 52.3151,
      "duration": 0.1134,
      "velocity": 102,
      "chip": "ym2612"
    },
    {
      "channel": 2,
      "note": 63,
      "start": 52.4486,
      "duration": 0.0967,
      "velocity": 102,
      "chip": "ym2612"
    },
    {
      "channel": 4,
      "note": 59,
      "start": 52.4515,
      "duration": 0.0937,
      "velocity": 102,
      "chip": "ym2612"
    },
    {
      "channel": 1,
      "note": 68,
      "start": 52.5651,
      "duration": 0.1132,
      "velocity": 102,
      "chip": "ym2612"
    },
    {
      "channel": 2,
      "note": 70,
      "start": 52.6985,
      "duration": 0.0968,
      "velocity": 102,
      "chip": "ym2612"
    },
    {
      "channel": 4,
      "note": 51,
      "start": 52.7018,
      "duration": 0.0933,
      "velocity": 102,
      "chip": "ym2612"
    },
    {
      "channel": 1,
      "note": 63,
      "start": 52.8151,
      "duration": 0.1132,
      "velocity": 102,
      "chip": "ym2612"
    },
    {
      "channel": 2,
      "note": 63,
      "start": 52.9491,
      "duration": 0.0962,
      "velocity": 102,
      "chip": "ym2612"
    },
    {
      "channel": 4,
      "note": 56,
      "start": 52.952,
      "duration": 0.0932,
      "velocity": 102,
      "chip": "ym2612"
    },
    {
      "channel": 1,
      "note": 70,
      "start": 53.0818,
      "duration": 0.0966,
      "velocity": 102,
      "chip": "ym2612"
    },
    {
      "channel": 2,
      "note": 71,
      "start": 53.1985,
      "duration": 0.0967,
      "velocity": 102,
      "chip": "ym2612"
    },
    {
      "channel": 4,
      "note": 51,
      "start": 53.2015,
      "duration": 0.0936,
      "velocity": 102,
      "chip": "ym2612"
    },
    {
      "channel": 1,
      "note": 63,
      "start": 53.3322,
      "duration": 0.0962,
      "velocity": 102,
      "chip": "ym2612"
    },
    {
      "channel": 2,
      "note": 63,
      "start": 53.4485,
      "duration": 0.0967,
      "velocity": 102,
      "chip": "ym2612"
    },
    {
      "channel": 4,
      "note": 58,
      "start": 53.4515,
      "duration": 0.0936,
      "velocity": 102,
      "chip": "ym2612"
    },
    {
      "channel": 1,
      "note": 71,
      "start": 53.5819,
      "duration": 0.0965,
      "velocity": 102,
      "chip": "ym2612"
    },
    {
      "channel": 2,
      "note": 70,
      "start": 53.6985,
      "duration": 0.0968,
      "velocity": 102,
      "chip": "ym2612"
    },
    {
      "channel": 4,
      "note": 51,
      "start": 53.7014,
      "duration": 0.0938,
      "velocity": 102,
      "chip": "ym2612"
    },
    {
      "channel": 1,
      "note": 63,
      "start": 53.8318,
      "duration": 0.0966,
      "velocity": 102,
      "chip": "ym2612"
    },
    {
      "channel": 2,
      "note": 63,
      "start": 53.9485,
      "duration": 0.1134,
      "velocity": 102,
      "chip": "ym2612"
    },
    {
      "channel": 4,
      "note": 59,
      "start": 53.9515,
      "duration": 0.1103,
      "velocity": 102,
      "chip": "ym2612"
    },
    {
      "channel": 1,
      "note": 70,
      "start": 54.0819,
      "duration": 0.0965,
      "velocity": 102,
      "chip": "ym2612"
    },
    {
      "channel": 2,
      "note": 73,
      "start": 54.1985,
      "duration": 0.1134,
      "velocity": 102,
      "chip": "ym2612"
    },
    {
      "channel": 4,
      "note": 51,
      "start": 54.2015,
      "duration": 0.1103,
      "velocity": 102,
      "chip": "ym2612"
    },
    {
      "channel": 1,
      "note": 63,
      "start": 54.3319,
      "duration": 0.0965,
      "velocity": 102,
      "chip": "ym2612"
    },
    {
      "channel": 2,
      "note": 63,
      "start": 54.4485,
      "duration": 0.1134,
      "velocity": 102,
      "chip": "ym2612"
    },
    {
      "channel": 4,
      "note": 58,
      "start": 54.4514,
      "duration": 0.1103,
      "velocity": 102,
      "chip": "ym2612"
    },
    {
      "channel": 1,
      "note": 73,
      "start": 54.5818,
      "duration": 0.0966,
      "velocity": 102,
      "chip": "ym2612"
    },
    {
      "channel": 2,
      "note": 71,
      "start": 54.6985,
      "duration": 0.1134,
      "velocity": 102,
      "chip": "ym2612"
    },
    {
      "channel": 4,
      "note": 51,
      "start": 54.7015,
      "duration": 0.1103,
      "velocity": 102,
      "chip": "ym2612"
    },
    {
      "channel": 1,
      "note": 63,
      "start": 54.8319,
      "duration": 0.0965,
      "velocity": 102,
      "chip": "ym2612"
    },
    {
      "channel": 2,
      "note": 63,
      "start": 54.9485,
      "duration": 0.1134,
      "velocity": 102,
      "chip": "ym2612"
    },
    {
      "channel": 4,
      "note": 61,
      "start": 54.9514,
      "duration": 0.1104,
      "velocity": 102,
      "chip": "ym2612"
    },
    {
      "channel": 1,
      "note": 71,
      "start": 55.0818,
      "duration": 0.0966,
      "velocity": 102,
      "chip": "ym2612"
    },
    {
      "channel": 3,
      "note": 47,
      "start": 55.2151,
      "duration": 0.98,
      "velocity": 117,
      "chip": "ym2612"
    },
    {
      "channel": 4,
      "note": 35,
      "start": 55.2187,
      "duration": 0.9767,
      "velocity": 119,
      "chip": "ym2612"
    },
    {
      "channel": 2,
      "note": 75,
      "start": 55.2217,
      "duration": 0.0903,
      "velocity": 102,
      "chip": "ym2612"
    },
    {
      "channel": 1,
      "note": 51,
      "start": 55.2246,
      "duration": 0.087,
      "velocity": 102,
      "chip": "ym2612"
    },
    {
      "channel": 0,
      "note": 63,
      "start": 55.332,
      "duration": 0.0963,
      "velocity": 102,
      "chip": "ym2612"
    },
    {
      "channel": 2,
      "note": 63,
      "start": 55.4651,
      "duration": 0.0968,
      "velocity": 102,
      "chip": "ym2612"
    },
    {
      "channel": 1,
      "note": 59,
      "start": 55.4679,
      "duration": 0.0938,
      "velocity": 102,
      "chip": "ym2612"
    },
    {
      "channel": 0,
      "note": 75,
      "start": 55.5819,
      "duration": 0.0964,
      "velocity": 102,
      "chip": "ym2612"
    },
    {
      "channel": 2,
      "note": 76,
      "start": 55.7152,
      "duration": 0.0967,
      "velocity": 102,
      "chip": "ym2612"
    },
    {
      "channel": 1,
      "note": 51,
      "start": 55.7179,
      "duration": 0.0937,
      "velocity": 102,
      "chip": "ym2612"
    },
    {
      "channel": 0,
      "note": 63,
      "start": 55.8317,
      "duration": 0.0966,
      "velocity": 102,
      "chip": "ym2612"
    },
    {
      "channel": 2,
      "note": 63,
      "start": 55.9653,
      "duration": 0.0967,
      "velocity": 102,
      "chip": "ym2612"
    },
    {
      "channel": 1,
      "note": 63,
      "start": 55.968,
      "duration": 0.0937,
      "velocity": 102,
      "chip": "ym2612"
    },
    {
      "channel": 0,
      "note": 76,
      "start": 56.0819,
      "duration": 0.1132,
      "velocity": 102,
      "chip": "ym2612"
    },
    {
      "channel": 3,
      "note": 51,
      "start": 56.2152,
      "duration": 2.9798,
      "velocity": 117,
      "chip": "ym2612"
    },
    {
      "channel": 2,
      "note": 75,
      "start": 56.2183,
      "duration": 0.0937,
      "velocity": 102,
      "chip": "ym2612"
    },
    {
      "channel": 1,
      "note": 51,
      "start": 56.221,
      "duration": 0.0907,
      "velocity": 102,
      "chip": "ym2612"
    },
    {
      "channel": 0,
      "note": 63,
      "start": 56.3317,
      "duration": 0.1132,
      "velocity": 102,
      "chip": "ym2612"
    },
    {
      "channel": 2,
      "note": 63,
      "start": 56.4652,
      "duration": 0.0968,
      "velocity": 102,
      "chip": "ym2612"
    },
    {
      "channel": 1,
      "note": 64,
      "start": 56.468,
      "duration": 0.0937,
      "velocity": 102,
      "chip": "ym2612"
    },
    {
      "channel": 0,
      "note": 75,
      "start": 56.5817,
      "duration": 0.1133,
      "velocity": 102,
      "chip": "ym2612"
    },
    {
      "channel": 2,
      "note": 76,
      "start": 56.7152,
      "duration": 0.0968,
      "velocity": 102,
      "chip": "ym2612"
    },
    {
      "channel": 1,
      "note": 51,
      "start": 56.7184,
      "duration": 0.0933,
      "velocity": 102,
      "chip": "ym2612"
    },
    {
      "channel": 0,
      "note": 63,
      "start": 56.8317,
      "duration": 0.1132,
      "velocity": 102,
      "chip": "ym2612"
    },
    {
      "channel": 2,
      "note": 63,
      "start": 56.9656,
      "duration": 0.0964,
      "velocity": 102,
      "chip": "ym2612"
    },
    {
      "channel": 1,
      "note": 63,
      "start": 56.9684,
      "duration": 0.0934,
      "velocity": 102,
      "chip": "ym2612"
    },
    {
      "channel": 0,
      "note": 76,
      "start": 57.0817,
      "duration": 0.1132,
      "velocity": 102,
      "chip": "ym2612"
    },
    {
      "channel": 2,
      "note": 73,
      "start": 57.2152,
      "duration": 0.0968,
      "velocity": 102,
      "chip": "ym2612"
    },
    {
      "channel": 1,
      "note": 51,
      "start": 57.2179,
      "duration": 0.0938,
      "velocity": 102,
      "chip": "ym2612"
    },
    {
      "channel": 0,
      "note": 63,
      "start": 57.3488,
      "duration": 0.0961,
      "velocity": 102,
      "chip": "ym2612"
    },
    {
      "channel": 2,
      "note": 63,
      "start": 57.4653,
      "duration": 0.0966,
      "velocity": 102,
      "chip": "ym2612"
    },
    {
      "channel": 1,
      "note": 64,
      "start": 57.468,
      "duration": 0.0936,
      "velocity": 102,
      "chip": "ym2612"
    },
    {
      "channel": 0,
      "note": 73,
      "start": 57.5983,
      "duration": 0.0966,
      "velocity": 102,
      "chip": "ym2612"
    },
    {
      "channel": 2,
      "note": 75,
      "start": 57.7152,
      "duration": 0.0968,
      "velocity": 102,
      "chip": "ym2612"
    },
    {
      "channel": 1,
      "note": 51,
      "start": 57.718,
      "duration": 0.0938,
      "velocity": 102,
      "chip": "ym2612"
    },
    {
      "channel": 0,
      "note": 63,
      "start": 57.8484,
      "duration": 0.0966,
      "velocity": 102,
      "chip": "ym2612"
    },
    {
      "channel": 2,
      "note": 63,
      "start": 57.9652,
      "duration": 0.0968,
      "velocity": 102,
      "chip": "ym2612"
    },
    {
      "channel": 1,
      "note": 61,
      "start": 57.968,
      "duration": 0.0937,
      "velocity": 102,
      "chip": "ym2612"
    },
    {
      "channel": 0,
      "note": 75,
      "start": 58.0984,
      "duration": 0.0966,
      "velocity": 102,
      "chip": "ym2612"
    },
    {
      "channel": 2,
      "note": 71,
      "start": 58.2151,
      "duration": 0.1135,
      "velocity": 102,
      "chip": "ym2612"
    },
    {
      "channel": 1,
      "note": 51,
      "start": 58.2179,
      "duration": 0.1104,
      "velocity": 102,
      "chip": "ym2612"
    },
    {
      "channel": 0,
      "note": 63,
      "start": 58.3484,
      "duration": 0.0966,
      "velocity": 102,
      "chip": "ym2612"
    },
    {
      "channel": 2,
      "note": 63,
      "start": 58.4651,
      "duration": 0.1135,
      "velocity": 102,
      "chip": "ym2612"
    },
    {
      "channel": 1,
      "note": 63,
      "start": 58.4679,
      "duration": 0.1104,
      "velocity": 102,
      "chip": "ym2612"
    },
    {
      "channel": 0,
      "note": 71,
      "start": 58.5985,
      "duration": 0.0965,
      "velocity": 102,
      "chip": "ym2612"
    },
    {
      "channel": 2,
      "note": 73,
      "start": 58.7151,
      "duration": 0.1135,
      "velocity": 102,
      "chip": "ym2612"
    },
    {
      "channel": 1,
      "note": 51,
      "start": 58.7179,
      "duration": 0.1104,
      "velocity": 102,
      "chip": "ym2612"
    },
    {
      "channel": 0,
      "note": 63,
      "start": 58.8484,
      "duration": 0.0966,
      "velocity": 102,
      "chip": "ym2612"
    },
    {
      "channel": 2,
      "note": 63,
      "start": 58.9651,
      "duration": 0.1135,
      "velocity": 102,
      "chip": "ym2612"
    },
    {
      "channel": 1,
      "note": 59,
      "start": 58.9679,
      "duration": 0.1104,
      "velocity": 102,
      "chip": "ym2612"
    },
    {
      "channel": 0,
      "note": 73,
      "start": 59.0984,
      "duration": 0.0965,
      "velocity": 102,
      "chip": "ym2612"
    },
    {
      "channel": 3,
      "note": 52,
      "start": 59.2149,
      "duration": 1.0302,
      "velocity": 117,
      "chip": "ym2612"
    },
    {
      "channel": 2,
      "note": 70,
      "start": 59.218,
      "duration": 0.1106,
      "velocity": 102,
      "chip": "ym2612"
    },
    {
      "channel": 1,
      "note": 51,
      "start": 59.2207,
      "duration": 0.1076,
      "velocity": 102,
      "chip": "ym2612"
    },
    {
      "channel": 0,
      "note": 63,
      "start": 59.3485,
      "duration": 0.0965,
      "velocity": 102,
      "chip": "ym2612"
    },
    {
      "channel": 2,
      "note": 63,
      "start": 59.4819,
      "duration": 0.0967,
      "velocity": 102,
      "chip": "ym2612"
    },
    {
      "channel": 1,
      "note": 61,
      "start": 59.4847,
      "duration": 0.0937,
      "velocity": 102,
      "chip": "ym2612"
    },
    {
      "channel": 0,
      "note": 70,
      "start": 59.5984,
      "duration": 0.0966,
      "velocity": 102,
      "chip": "ym2612"
    },
    {
      "channel": 2,
      "note": 71,
      "start": 59.7319,
      "duration": 0.0967,
      "velocity": 102,
      "chip": "ym2612"
    },
    {
      "channel": 1,
      "note": 51,
      "start": 59.7347,
      "duration": 0.0937,
      "velocity": 102,
      "chip": "ym2612"
    },
    {
      "channel": 0,
      "note": 63,
      "start": 59.8484,
      "duration": 0.0966,
      "velocity": 102,
      "chip": "ym2612"
    },
    {
      "channel": 2,
      "note": 63,
      "start": 59.9819,
      "duration": 0.0967,
      "velocity": 102,
      "chip": "ym2612"
    },
    {
      "channel": 1,
      "note": 58,
      "start": 59.9847,
      "duration": 0.0937,
      "velocity": 102,
      "chip": "ym2612"
    },
    {
      "channel": 0,
      "note": 71,
      "start": 60.0984,
      "duration": 0.0966,
      "velocity": 102,
      "chip": "ym2612"
    },
    {
      "channel": 5,
      "note": 51,
      "start": 60.2324,
      "duration": 1.4961,
      "velocity": 117,
      "chip": "ym2612"
    },
    {
      "channel": 2,
      "note": 68,
      "start": 60.2355,
      "duration": 0.0931,
      "velocity": 102,
      "chip": "ym2612"
    },
    {
      "channel": 1,
      "note": 51,
      "start": 60.2383,
      "duration": 0.0901,
      "velocity": 102,
      "chip": "ym2612"
    },
    {
      "channel": 0,
      "note": 63,
      "start": 60.3485,
      "duration": 0.1131,
      "velocity": 102,
      "chip": "ym2612"
    },
    {
      "channel": 2,
      "note": 63,
      "start": 60.4819,
      "duration": 0.0967,
      "velocity": 102,
      "chip": "ym2612"
    },
    {
      "channel": 1,
      "note": 59,
      "start": 60.4847,
      "duration": 0.0937,
      "velocity": 102,
      "chip": "ym2612"
    },
    {
      "channel": 0,
      "note": 68,
      "start": 60.5984,
      "duration": 0.1133,
      "velocity": 102,
      "chip": "ym2612"
    },
    {
      "channel": 2,
      "note": 70,
      "start": 60.7319,
      "duration": 0.0968,
      "velocity": 102,
      "chip": "ym2612"
    },
    {
      "channel": 1,
      "note": 51,
      "start": 60.7351,
      "duration": 0.0933,
      "velocity": 102,
      "chip": "ym2612"
    },
    {
      "channel": 0,
      "note": 63,
      "start": 60.8483,
      "duration": 0.1134,
      "velocity": 102,
      "chip": "ym2612"
    },
    {
      "channel": 2,
      "note": 63,
      "start": 60.9823,
      "duration": 0.0964,
      "velocity": 102,
      "chip": "ym2612"
    },
    {
      "channel": 1,
      "note": 56,
      "start": 60.9851,
      "duration": 0.0933,
      "velocity": 102,
      "chip": "ym2612"
    },
    {
      "channel": 0,
      "note": 70,
      "start": 61.0984,
      "duration": 0.1132,
      "velocity": 102,
      "chip": "ym2612"
    },
    {
      "channel": 2,
      "note": 66,
      "start": 61.2319,
      "duration": 0.0968,
      "velocity": 102,
      "chip": "ym2612"
    },
    {
      "channel": 1,
      "note": 51,
      "start": 61.2347,
      "duration": 0.0938,
      "velocity": 102,
      "chip": "ym2612"
    },
    {
      "channel": 0,
      "note": 63,
      "start": 61.3487,
      "duration": 0.1129,
      "velocity": 102,
      "chip": "ym2612"
    },
    {
      "channel": 2,
      "note": 63,
      "start": 61.4819,
      "duration": 0.0968,
      "velocity": 102,
      "chip": "ym2612"
    },
    {
      "channel": 1,
      "note": 58,
      "start": 61.4847,
      "duration": 0.0937,
      "velocity": 102,
      "chip": "ym2612"
    },
    {
      "channel": 0,
      "note": 66,
      "start": 61.6151,
      "duration": 0.0966,
      "velocity": 102,
      "chip": "ym2612"
    },
    {
      "channel": 2,
      "note": 68,
      "start": 61.7319,
      "duration": 0.0968,
      "velocity": 102,
      "chip": "ym2612"
    },
    {
      "channel": 1,
      "note": 51,
      "start": 61.7347,
      "duration": 0.0937,
      "velocity": 102,
      "chip": "ym2612"
    },
    {
      "channel": 0,
      "note": 63,
      "start": 61.8651,
      "duration": 0.0965,
      "velocity": 102,
      "chip": "ym2612"
    },
    {
      "channel": 2,
      "note": 63,
      "start": 61.9819,
      "duration": 0.0968,
      "velocity": 102,
      "chip": "ym2612"
    },
    {
      "channel": 1,
      "note": 54,
      "start": 61.9847,
      "duration": 0.0937,
      "velocity": 102,
      "chip": "ym2612"
    },
    {
      "channel": 0,
      "note": 68,
      "start": 62.1151,
      "duration": 0.0965,
      "velocity": 102,
      "chip": "ym2612"
    },
    {
      "channel": 2,
      "note": 65,
      "start": 62.2319,
      "duration": 0.0968,
      "velocity": 102,
      "chip": "ym2612"
    },
    {
      "channel": 1,
      "note": 51,
      "start": 62.2347,
      "duration": 0.0937,
      "velocity": 102,
      "chip": "ym2612"
    },
    {
      "channel": 0,
      "note": 63,
      "start": 62.3651,
      "duration": 0.0965,
      "velocity": 102,
      "chip": "ym2612"
    },
    {
      "channel": 2,
      "note": 63,
      "start": 62.4819,
      "duration": 0.1134,
      "velocity": 102,
      "chip": "ym2612"
    },
    {
      "channel": 1,
      "note": 56,
      "start": 62.4847,
      "duration": 0.1103,
      "velocity": 102,
      "chip": "ym2612"
    },
    {
      "channel": 0,
      "note": 65,
      "start": 62.6151,
      "duration": 0.0965,
      "velocity": 102,
      "chip": "ym2612"
    },
    {
      "channel": 2,
      "note": 66,
      "start": 62.7319,
      "duration": 0.1134,
      "velocity": 102,
      "chip": "ym2612"
    },
    {
      "channel": 1,
      "note": 51,
      "start": 62.7347,
      "duration": 0.1102,
      "velocity": 102,
      "chip": "ym2612"
    },
    {
      "channel": 0,
      "note": 63,
      "start": 62.8651,
      "duration": 0.0965,
      "velocity": 102,
      "chip": "ym2612"
    },
    {
      "channel": 2,
      "note": 63,
      "start": 62.9819,
      "duration": 0.1134,
      "velocity": 102,
      "chip": "ym2612"
    },
    {
      "channel": 1,
      "note": 53,
      "start": 62.9847,
      "duration": 0.1102,
      "velocity": 102,
      "chip": "ym2612"
    },
    {
      "channel": 0,
      "note": 66,
      "start": 63.1151,
      "duration": 0.0965,
      "velocity": 102,
      "chip": "ym2612"
    },
    {
      "channel": 2,
      "note": 68,
      "start": 63.2319,
      "duration": 0.1134,
      "velocity": 102,
      "chip": "ym2612"
    },
    {
      "channel": 1,
      "note": 51,
      "start": 63.2347,
      "duration": 0.1102,
      "velocity": 102,
      "chip": "ym2612"
    },
    {
      "channel": 0,
      "note": 63,
      "start": 63.3651,
      "duration": 0.0965,
      "velocity": 102,
      "chip": "ym2612"
    },
    {
      "channel": 2,
      "note": 63,
      "start": 63.4819,
      "duration": 0.1134,
      "velocity": 102,
      "chip": "ym2612"
    },
    {
      "channel": 1,
      "note": 54,
      "start": 63.4847,
      "duration": 0.1103,
      "velocity": 102,
      "chip": "ym2612"
    },
    {
      "channel": 0,
      "note": 68,
      "start": 63.6151,
      "duration": 0.0966,
      "velocity": 102,
      "chip": "ym2612"
    },
    {
      "channel": 2,
      "note": 71,
      "start": 63.7486,
      "duration": 0.0967,
      "velocity": 102,
      "chip": "ym2612"
    },
    {
      "channel": 1,
      "note": 51,
      "start": 63.7513,
      "duration": 0.0937,
      "velocity": 102,
      "chip": "ym2612"
    },
    {
      "channel": 0,
      "note": 63,
      "start": 63.8651,
      "duration": 0.0965,
      "velocity": 102,
      "chip": "ym2612"
    },
    {
      "channel": 2,
      "note": 63,
      "start": 63.9985,
      "duration": 0.0968,
      "velocity": 102,
      "chip": "ym2612"
    },
    {
      "channel": 1,
      "note": 56,
      "start": 64.0013,
      "duration": 0.0937,
      "velocity": 102,
      "chip": "ym2612"
    },
    {
      "channel": 0,
      "note": 71,
      "start": 64.1153,
      "duration": 0.0963,
      "velocity": 102,
      "chip": "ym2612"
    }
  ]
}