{
  "track_name": "15 - Rooftop",
  "duration_sec": 42.471,
  "sample_rate": 44100,
  "note_count": 647,
  "unique_pitches": 41,
  "pitch_range": 51,
  "avg_note_duration": 0.3018,
  "reconstruction_stats": {
    "notes_reconstructed": 647,
    "keyon_events": 647,
    "keyoff_events": 643,
    "orphan_keyons": 4,
    "unique_pitches": 41,
    "pitch_range": 51,
    "avg_duration_sec": 0.3018
  },
  "metadata": {
    "source": "P\\Pac-Man 2 - The New Adventures\\15 - Rooftop.vgz"
  },
  "notes": [
    {
      "channel": 0,
      "note": 51,
      "start": 0.0,
      "duration": 1.4938,
      "velocity": 94,
      "chip": "ym2612"
    },
    {
      "channel": 1,
      "note": 51,
      "start": 0.0039,
      "duration": 1.491,
      "velocity": 94,
      "chip": "ym2612"
    },
    {
      "channel": 2,
      "note": 40,
      "start": 0.0105,
      "duration": 1.4847,
      "velocity": 116,
      "chip": "ym2612"
    },
    {
      "channel": 3,
      "note": 40,
      "start": 0.0154,
      "duration": 1.4854,
      "velocity": 95,
      "chip": "ym2612"
    },
    {
      "channel": 4,
      "note": 76,
      "start": 0.0205,
      "duration": 1.4816,
      "velocity": 98,
      "chip": "ym2612"
    },
    {
      "channel": 0,
      "note": 53,
      "start": 1.4938,
      "duration": 1.25,
      "velocity": 94,
      "chip": "ym2612"
    },
    {
      "channel": 1,
      "note": 53,
      "start": 1.4948,
      "duration": 1.2501,
      "velocity": 94,
      "chip": "ym2612"
    },
    {
      "channel": 2,
      "note": 45,
      "start": 1.4998,
      "duration": 0.7452,
      "velocity": 116,
      "chip": "ym2612"
    },
    {
      "channel": 3,
      "note": 41,
      "start": 1.5009,
      "duration": 1.25,
      "velocity": 95,
      "chip": "ym2612"
    },
    {
      "channel": 4,
      "note": 78,
      "start": 1.5021,
      "duration": 1.25,
      "velocity": 98,
      "chip": "ym2612"
    },
    {
      "channel": 2,
      "note": 38,
      "start": 2.2497,
      "duration": 0.4955,
      "velocity": 116,
      "chip": "ym2612"
    },
    {
      "channel": 0,
      "note": 55,
      "start": 2.7439,
      "duration": 1.0,
      "velocity": 94,
      "chip": "ym2612"
    },
    {
      "channel": 1,
      "note": 55,
      "start": 2.7449,
      "duration": 1.0,
      "velocity": 94,
      "chip": "ym2612"
    },
    {
      "channel": 2,
      "note": 40,
      "start": 2.7499,
      "duration": 0.329,
      "velocity": 116,
      "chip": "ym2612"
    },
    {
      "channel": 3,
      "note": 43,
      "start": 2.7509,
      "duration": 1.0001,
      "velocity": 95,
      "chip": "ym2612"
    },
    {
      "channel": 4,
      "note": 80,
      "start": 2.7522,
      "duration": 0.1619,
      "velocity": 98,
      "chip": "ym2612"
    },
    {
      "channel": 4,
      "note": 79,
      "start": 2.9141,
      "duration": 0.1668,
      "velocity": 98,
      "chip": "ym2612"
    },
    {
      "channel": 2,
      "note": 39,
      "start": 3.0789,
      "duration": 0.3329,
      "velocity": 116,
      "chip": "ym2612"
    },
    {
      "channel": 4,
      "note": 78,
      "start": 3.0809,
      "duration": 0.1669,
      "velocity": 98,
      "chip": "ym2612"
    },
    {
      "channel": 4,
      "note": 77,
      "start": 3.2478,
      "duration": 0.1707,
      "velocity": 98,
      "chip": "ym2612"
    },
    {
      "channel": 2,
      "note": 52,
      "start": 3.4165,
      "duration": 0.3289,
      "velocity": 116,
      "chip": "ym2612"
    },
    {
      "channel": 4,
      "note": 78,
      "start": 3.4185,
      "duration": 0.1625,
      "velocity": 98,
      "chip": "ym2612"
    },
    {
      "channel": 4,
      "note": 80,
      "start": 3.581,
      "duration": 0.171,
      "velocity": 98,
      "chip": "ym2612"
    },
    {
      "channel": 0,
      "note": 56,
      "start": 3.7439,
      "duration": 0.3328,
      "velocity": 94,
      "chip": "ym2612"
    },
    {
      "channel": 1,
      "note": 56,
      "start": 3.7449,
      "duration": 0.3368,
      "velocity": 94,
      "chip": "ym2612"
    },
    {
      "channel": 2,
      "note": 40,
      "start": 3.7499,
      "duration": 0.3368,
      "velocity": 116,
      "chip": "ym2612"
    },
    {
      "channel": 3,
      "note": 44,
      "start": 3.751,
      "duration": 0.3424,
      "velocity": 95,
      "chip": "ym2612"
    },
    {
      "channel": 4,
      "note": 81,
      "start": 3.752,
      "duration": 3.9122,
      "velocity": 98,
      "chip": "ym2612"
    },
    {
      "channel": 0,
      "note": 68,
      "start": 4.0813,
      "duration": 0.1623,
      "velocity": 94,
      "chip": "ym2612"
    },
    {
      "channel": 1,
      "note": 68,
      "start": 4.0864,
      "duration": 0.1583,
      "velocity": 94,
      "chip": "ym2612"
    },
    {
      "channel": 2,
      "note": 44,
      "start": 4.0931,
      "duration": 0.3195,
      "velocity": 116,
      "chip": "ym2612"
    },
    {
      "channel": 3,
      "note": 57,
      "start": 4.0981,
      "duration": 0.1485,
      "velocity": 100,
      "chip": "ym2612"
    },
    {
      "channel": 0,
      "note": 68,
      "start": 4.2437,
      "duration": 0.1668,
      "velocity": 94,
      "chip": "ym2612"
    },
    {
      "channel": 1,
      "note": 68,
      "start": 4.2447,
      "duration": 0.1669,
      "velocity": 94,
      "chip": "ym2612"
    },
    {
      "channel": 0,
      "note": 73,
      "start": 4.4105,
      "duration": 0.1664,
      "velocity": 94,
      "chip": "ym2612"
    },
    {
      "channel": 1,
      "note": 73,
      "start": 4.4116,
      "duration": 0.1664,
      "velocity": 94,
      "chip": "ym2612"
    },
    {
      "channel": 2,
      "note": 44,
      "start": 4.4126,
      "duration": 0.3333,
      "velocity": 116,
      "chip": "ym2612"
    },
    {
      "channel": 3,
      "note": 44,
      "start": 4.4177,
      "duration": 0.1622,
      "velocity": 103,
      "chip": "ym2612"
    },
    {
      "channel": 0,
      "note": 68,
      "start": 4.5769,
      "duration": 0.1669,
      "velocity": 94,
      "chip": "ym2612"
    },
    {
      "channel": 1,
      "note": 68,
      "start": 4.578,
      "duration": 0.167,
      "velocity": 94,
      "chip": "ym2612"
    },
    {
      "channel": 0,
      "note": 70,
      "start": 4.7439,
      "duration": 0.3328,
      "velocity": 94,
      "chip": "ym2612"
    },
    {
      "channel": 1,
      "note": 70,
      "start": 4.7449,
      "duration": 0.3368,
      "velocity": 94,
      "chip": "ym2612"
    },
    {
      "channel": 2,
      "note": 39,
      "start": 4.746,
      "duration": 0.3414,
      "velocity": 116,
      "chip": "ym2612"
    },
    {
      "channel": 3,
      "note": 39,
      "start": 4.751,
      "duration": 0.3368,
      "velocity": 95,
      "chip": "ym2612"
    },
    {
      "channel": 0,
      "note": 39,
      "start": 5.0813,
      "duration": 0.1622,
      "velocity": 94,
      "chip": "ym2612"
    },
    {
      "channel": 1,
      "note": 63,
      "start": 5.0864,
      "duration": 0.1582,
      "velocity": 99,
      "chip": "ym2612"
    },
    {
      "channel": 2,
      "note": 45,
      "start": 5.0874,
      "duration": 0.3252,
      "velocity": 116,
      "chip": "ym2612"
    },
    {
      "channel": 3,
      "note": 52,
      "start": 5.094,
      "duration": 0.1524,
      "velocity": 100,
      "chip": "ym2612"
    },
    {
      "channel": 0,
      "note": 38,
      "start": 5.2436,
      "duration": 0.1669,
      "velocity": 94,
      "chip": "ym2612"
    },
    {
      "channel": 1,
      "note": 62,
      "start": 5.2446,
      "duration": 0.1669,
      "velocity": 99,
      "chip": "ym2612"
    },
    {
      "channel": 0,
      "note": 39,
      "start": 5.4105,
      "duration": 0.1659,
      "velocity": 94,
      "chip": "ym2612"
    },
    {
      "channel": 1,
      "note": 63,
      "start": 5.4116,
      "duration": 0.1698,
      "velocity": 99,
      "chip": "ym2612"
    },
    {
      "channel": 2,
      "note": 45,
      "start": 5.4126,
      "duration": 0.3327,
      "velocity": 116,
      "chip": "ym2612"
    },
    {
      "channel": 3,
      "note": 51,
      "start": 5.4177,
      "duration": 0.1702,
      "velocity": 103,
      "chip": "ym2612"
    },
    {
      "channel": 0,
      "note": 37,
      "start": 5.5811,
      "duration": 0.0792,
      "velocity": 119,
      "chip": "ym2612"
    },
    {
      "channel": 1,
      "note": 34,
      "start": 5.5861,
      "duration": 0.0752,
      "velocity": 119,
      "chip": "ym2612"
    },
    {
      "channel": 0,
      "note": 37,
      "start": 5.6603,
      "duration": 0.0836,
      "velocity": 119,
      "chip": "ym2612"
    },
    {
      "channel": 1,
      "note": 34,
      "start": 5.6614,
      "duration": 0.0836,
      "velocity": 119,
      "chip": "ym2612"
    },
    {
      "channel": 0,
      "note": 37,
      "start": 5.7439,
      "duration": 0.1658,
      "velocity": 119,
      "chip": "ym2612"
    },
    {
      "channel": 1,
      "note": 34,
      "start": 5.7449,
      "duration": 0.1697,
      "velocity": 119,
      "chip": "ym2612"
    },
    {
      "channel": 2,
      "note": 38,
      "start": 5.75,
      "duration": 0.3288,
      "velocity": 116,
      "chip": "ym2612"
    },
    {
      "channel": 3,
      "note": 44,
      "start": 5.755,
      "duration": 0.3287,
      "velocity": 95,
      "chip": "ym2612"
    },
    {
      "channel": 0,
      "note": 68,
      "start": 5.9143,
      "duration": 0.163,
      "velocity": 94,
      "chip": "ym2612"
    },
    {
      "channel": 1,
      "note": 68,
      "start": 5.9193,
      "duration": 0.159,
      "velocity": 94,
      "chip": "ym2612"
    },
    {
      "channel": 0,
      "note": 68,
      "start": 6.0773,
      "duration": 0.1663,
      "velocity": 94,
      "chip": "ym2612"
    },
    {
      "channel": 1,
      "note": 70,
      "start": 6.0783,
      "duration": 0.1663,
      "velocity": 94,
      "chip": "ym2612"
    },
    {
      "channel": 2,
      "note": 44,
      "start": 6.0834,
      "duration": 0.3291,
      "velocity": 116,
      "chip": "ym2612"
    },
    {
      "channel": 3,
      "note": 56,
      "start": 6.0884,
      "duration": 0.1581,
      "velocity": 100,
      "chip": "ym2612"
    },
    {
      "channel": 0,
      "note": 68,
      "start": 6.2436,
      "duration": 0.1668,
      "velocity": 94,
      "chip": "ym2612"
    },
    {
      "channel": 1,
      "note": 68,
      "start": 6.2446,
      "duration": 0.1668,
      "velocity": 94,
      "chip": "ym2612"
    },
    {
      "channel": 0,
      "note": 73,
      "start": 6.4104,
      "duration": 0.1665,
      "velocity": 94,
      "chip": "ym2612"
    },
    {
      "channel": 1,
      "note": 73,
      "start": 6.4114,
      "duration": 0.1666,
      "velocity": 94,
      "chip": "ym2612"
    },
    {
      "channel": 2,
      "note": 44,
      "start": 6.4125,
      "duration": 0.3334,
      "velocity": 116,
      "chip": "ym2612"
    },
    {
      "channel": 3,
      "note": 44,
      "start": 6.4175,
      "duration": 0.1623,
      "velocity": 103,
      "chip": "ym2612"
    },
    {
      "channel": 0,
      "note": 68,
      "start": 6.5769,
      "duration": 0.1668,
      "velocity": 94,
      "chip": "ym2612"
    },
    {
      "channel": 1,
      "note": 68,
      "start": 6.578,
      "duration": 0.1668,
      "velocity": 94,
      "chip": "ym2612"
    },
    {
      "channel": 0,
      "note": 70,
      "start": 6.7438,
      "duration": 0.3329,
      "velocity": 94,
      "chip": "ym2612"
    },
    {
      "channel": 1,
      "note": 70,
      "start": 6.7448,
      "duration": 0.3368,
      "velocity": 94,
      "chip": "ym2612"
    },
    {
      "channel": 2,
      "note": 39,
      "start": 6.7459,
      "duration": 0.3414,
      "velocity": 116,
      "chip": "ym2612"
    },
    {
      "channel": 3,
      "note": 39,
      "start": 6.7509,
      "duration": 0.3368,
      "velocity": 95,
      "chip": "ym2612"
    },
    {
      "channel": 0,
      "note": 39,
      "start": 7.0813,
      "duration": 0.1623,
      "velocity": 94,
      "chip": "ym2612"
    },
    {
      "channel": 1,
      "note": 63,
      "start": 7.0863,
      "duration": 0.1583,
      "velocity": 99,
      "chip": "ym2612"
    },
    {
      "channel": 2,
      "note": 45,
      "start": 7.0873,
      "duration": 0.3252,
      "velocity": 116,
      "chip": "ym2612"
    },
    {
      "channel": 3,
      "note": 52,
      "start": 7.0939,
      "duration": 0.1525,
      "velocity": 100,
      "chip": "ym2612"
    },
    {
      "channel": 0,
      "note": 38,
      "start": 7.2436,
      "duration": 0.1668,
      "velocity": 94,
      "chip": "ym2612"
    },
    {
      "channel": 1,
      "note": 62,
      "start": 7.2446,
      "duration": 0.1668,
      "velocity": 99,
      "chip": "ym2612"
    },
    {
      "channel": 0,
      "note": 39,
      "start": 7.4104,
      "duration": 0.166,
      "velocity": 94,
      "chip": "ym2612"
    },
    {
      "channel": 1,
      "note": 63,
      "start": 7.4115,
      "duration": 0.1698,
      "velocity": 99,
      "chip": "ym2612"
    },
    {
      "channel": 2,
      "note": 45,
      "start": 7.4125,
      "duration": 0.3372,
      "velocity": 116,
      "chip": "ym2612"
    },
    {
      "channel": 3,
      "note": 51,
      "start": 7.4175,
      "duration": 0.1702,
      "velocity": 103,
      "chip": "ym2612"
    },
    {
      "channel": 0,
      "note": 37,
      "start": 7.581,
      "duration": 0.0793,
      "velocity": 119,
      "chip": "ym2612"
    },
    {
      "channel": 1,
      "note": 36,
      "start": 7.5859,
      "duration": 0.0754,
      "velocity": 119,
      "chip": "ym2612"
    },
    {
      "channel": 0,
      "note": 37,
      "start": 7.6603,
      "duration": 0.1493,
      "velocity": 119,
      "chip": "ym2612"
    },
    {
      "channel": 1,
      "note": 36,
      "start": 7.6614,
      "duration": 0.0833,
      "velocity": 119,
      "chip": "ym2612"
    },
    {
      "channel": 1,
      "note": 51,
      "start": 7.7493,
      "duration": 0.4953,
      "velocity": 94,
      "chip": "ym2612"
    },
    {
      "channel": 2,
      "note": 39,
      "start": 7.7544,
      "duration": 0.324,
      "velocity": 116,
      "chip": "ym2612"
    },
    {
      "channel": 3,
      "note": 45,
      "start": 7.7609,
      "duration": 0.3224,
      "velocity": 95,
      "chip": "ym2612"
    },
    {
      "channel": 4,
      "note": 76,
      "start": 7.7621,
      "duration": 1.9994,
      "velocity": 98,
      "chip": "ym2612"
    },
    {
      "channel": 0,
      "note": 51,
      "start": 7.8143,
      "duration": 0.4959,
      "velocity": 94,
      "chip": "ym2612"
    },
    {
      "channel": 2,
      "note": 44,
      "start": 8.083,
      "duration": 0.3294,
      "velocity": 116,
      "chip": "ym2612"
    },
    {
      "channel": 3,
      "note": 56,
      "start": 8.088,
      "duration": 0.1585,
      "velocity": 100,
      "chip": "ym2612"
    },
    {
      "channel": 1,
      "note": 51,
      "start": 8.2446,
      "duration": 0.1667,
      "velocity": 94,
      "chip": "ym2612"
    },
    {
      "channel": 0,
      "note": 51,
      "start": 8.3102,
      "duration": 0.1667,
      "velocity": 94,
      "chip": "ym2612"
    },
    {
      "channel": 1,
      "note": 56,
      "start": 8.4114,
      "duration": 0.1664,
      "velocity": 94,
      "chip": "ym2612"
    },
    {
      "channel": 2,
      "note": 45,
      "start": 8.4124,
      "duration": 0.3334,
      "velocity": 116,
      "chip": "ym2612"
    },
    {
      "channel": 3,
      "note": 56,
      "start": 8.4135,
      "duration": 0.1661,
      "velocity": 100,
      "chip": "ym2612"
    },
    {
      "channel": 0,
      "note": 56,
      "start": 8.4769,
      "duration": 0.1667,
      "velocity": 94,
      "chip": "ym2612"
    },
    {
      "channel": 1,
      "note": 51,
      "start": 8.5778,
      "duration": 0.1669,
      "velocity": 94,
      "chip": "ym2612"
    },
    {
      "channel": 0,
      "note": 51,
      "start": 8.6436,
      "duration": 0.1666,
      "velocity": 94,
      "chip": "ym2612"
    },
    {
      "channel": 1,
      "note": 53,
      "start": 8.7448,
      "duration": 0.1663,
      "velocity": 94,
      "chip": "ym2612"
    },
    {
      "channel": 2,
      "note": 40,
      "start": 8.7458,
      "duration": 0.3373,
      "velocity": 116,
      "chip": "ym2612"
    },
    {
      "channel": 3,
      "note": 39,
      "start": 8.7508,
      "duration": 0.3327,
      "velocity": 95,
      "chip": "ym2612"
    },
    {
      "channel": 0,
      "note": 53,
      "start": 8.8102,
      "duration": 0.0999,
      "velocity": 94,
      "chip": "ym2612"
    },
    {
      "channel": 1,
      "note": 39,
      "start": 9.0821,
      "duration": 0.3286,
      "velocity": 86,
      "chip": "ym2612"
    },
    {
      "channel": 2,
      "note": 47,
      "start": 9.0831,
      "duration": 0.3333,
      "velocity": 116,
      "chip": "ym2612"
    },
    {
      "channel": 3,
      "note": 52,
      "start": 9.0881,
      "duration": 0.1581,
      "velocity": 100,
      "chip": "ym2612"
    },
    {
      "channel": 0,
      "note": 39,
      "start": 9.1475,
      "duration": 0.3288,
      "velocity": 86,
      "chip": "ym2612"
    },
    {
      "channel": 1,
      "note": 72,
      "start": 9.4153,
      "duration": 0.3289,
      "velocity": 106,
      "chip": "ym2612"
    },
    {
      "channel": 2,
      "note": 47,
      "start": 9.4164,
      "duration": 0.3328,
      "velocity": 116,
      "chip": "ym2612"
    },
    {
      "channel": 3,
      "note": 47,
      "start": 9.4214,
      "duration": 0.1581,
      "velocity": 103,
      "chip": "ym2612"
    },
    {
      "channel": 0,
      "note": 72,
      "start": 9.4809,
      "duration": 0.3287,
      "velocity": 106,
      "chip": "ym2612"
    },
    {
      "channel": 1,
      "note": 51,
      "start": 9.7488,
      "duration": 0.4959,
      "velocity": 94,
      "chip": "ym2612"
    },
    {
      "channel": 2,
      "note": 39,
      "start": 9.7539,
      "duration": 0.3246,
      "velocity": 116,
      "chip": "ym2612"
    },
    {
      "channel": 3,
      "note": 45,
      "start": 9.7604,
      "duration": 0.323,
      "velocity": 95,
      "chip": "ym2612"
    },
    {
      "channel": 4,
      "note": 76,
      "start": 9.7615,
      "duration": 0.9905,
      "velocity": 98,
      "chip": "ym2612"
    },
    {
      "channel": 0,
      "note": 51,
      "start": 9.8142,
      "duration": 0.4961,
      "velocity": 94,
      "chip": "ym2612"
    },
    {
      "channel": 2,
      "note": 44,
      "start": 10.0831,
      "duration": 0.3294,
      "velocity": 116,
      "chip": "ym2612"
    },
    {
      "channel": 3,
      "note": 56,
      "start": 10.088,
      "duration": 0.1585,
      "velocity": 100,
      "chip": "ym2612"
    },
    {
      "channel": 1,
      "note": 56,
      "start": 10.2447,
      "duration": 0.1667,
      "velocity": 94,
      "chip": "ym2612"
    },
    {
      "channel": 0,
      "note": 56,
      "start": 10.3103,
      "duration": 0.1666,
      "velocity": 94,
      "chip": "ym2612"
    },
    {
      "channel": 1,
      "note": 51,
      "start": 10.4114,
      "duration": 0.1664,
      "velocity": 94,
      "chip": "ym2612"
    },
    {
      "channel": 2,
      "note": 45,
      "start": 10.4124,
      "duration": 0.3333,
      "velocity": 116,
      "chip": "ym2612"
    },
    {
      "channel": 3,
      "note": 56,
      "start": 10.4135,
      "duration": 0.1661,
      "velocity": 100,
      "chip": "ym2612"
    },
    {
      "channel": 0,
      "note": 51,
      "start": 10.4768,
      "duration": 0.1667,
      "velocity": 94,
      "chip": "ym2612"
    },
    {
      "channel": 1,
      "note": 58,
      "start": 10.5778,
      "duration": 0.1669,
      "velocity": 94,
      "chip": "ym2612"
    },
    {
      "channel": 0,
      "note": 58,
      "start": 10.6435,
      "duration": 0.1667,
      "velocity": 94,
      "chip": "ym2612"
    },
    {
      "channel": 1,
      "note": 60,
      "start": 10.7448,
      "duration": 0.1663,
      "velocity": 94,
      "chip": "ym2612"
    },
    {
      "channel": 2,
      "note": 43,
      "start": 10.7459,
      "duration": 0.3327,
      "velocity": 116,
      "chip": "ym2612"
    },
    {
      "channel": 3,
      "note": 39,
      "start": 10.7509,
      "duration": 0.3327,
      "velocity": 95,
      "chip": "ym2612"
    },
    {
      "channel": 4,
      "note": 81,
      "start": 10.752,
      "duration": 0.3393,
      "velocity": 98,
      "chip": "ym2612"
    },
    {
      "channel": 0,
      "note": 60,
      "start": 10.8102,
      "duration": 0.0999,
      "velocity": 94,
      "chip": "ym2612"
    },
    {
      "channel": 1,
      "note": 58,
      "start": 11.0782,
      "duration": 0.1663,
      "velocity": 94,
      "chip": "ym2612"
    },
    {
      "channel": 2,
      "note": 40,
      "start": 11.0832,
      "duration": 0.1623,
      "velocity": 116,
      "chip": "ym2612"
    },
    {
      "channel": 3,
      "note": 51,
      "start": 11.0881,
      "duration": 0.1583,
      "velocity": 100,
      "chip": "ym2612"
    },
    {
      "channel": 4,
      "note": 76,
      "start": 11.0913,
      "duration": 0.3334,
      "velocity": 98,
      "chip": "ym2612"
    },
    {
      "channel": 0,
      "note": 58,
      "start": 11.1436,
      "duration": 0.0999,
      "velocity": 94,
      "chip": "ym2612"
    },
    {
      "channel": 2,
      "note": 45,
      "start": 11.2455,
      "duration": 0.1664,
      "velocity": 116,
      "chip": "ym2612"
    },
    {
      "channel": 1,
      "note": 60,
      "start": 11.4116,
      "duration": 0.1663,
      "velocity": 94,
      "chip": "ym2612"
    },
    {
      "channel": 2,
      "note": 45,
      "start": 11.4166,
      "duration": 0.3328,
      "velocity": 116,
      "chip": "ym2612"
    },
    {
      "channel": 3,
      "note": 51,
      "start": 11.4215,
      "duration": 0.1581,
      "velocity": 103,
      "chip": "ym2612"
    },
    {
      "channel": 4,
      "note": 81,
      "start": 11.4246,
      "duration": 0.3372,
      "velocity": 98,
      "chip": "ym2612"
    },
    {
      "channel": 0,
      "note": 60,
      "start": 11.4768,
      "duration": 0.1001,
      "velocity": 94,
      "chip": "ym2612"
    },
    {
      "channel": 1,
      "note": 68,
      "start": 11.749,
      "duration": 0.4956,
      "velocity": 94,
      "chip": "ym2612"
    },
    {
      "channel": 2,
      "note": 39,
      "start": 11.7541,
      "duration": 0.3242,
      "velocity": 116,
      "chip": "ym2612"
    },
    {
      "channel": 3,
      "note": 45,
      "start": 11.7606,
      "duration": 0.3227,
      "velocity": 95,
      "chip": "ym2612"
    },
    {
      "channel": 4,
      "note": 76,
      "start": 11.7618,
      "duration": 1.9962,
      "velocity": 98,
      "chip": "ym2612"
    },
    {
      "channel": 0,
      "note": 68,
      "start": 11.8142,
      "duration": 0.496,
      "velocity": 94,
      "chip": "ym2612"
    },
    {
      "channel": 2,
      "note": 44,
      "start": 12.0829,
      "duration": 0.3294,
      "velocity": 116,
      "chip": "ym2612"
    },
    {
      "channel": 3,
      "note": 56,
      "start": 12.088,
      "duration": 0.1585,
      "velocity": 100,
      "chip": "ym2612"
    },
    {
      "channel": 1,
      "note": 68,
      "start": 12.2446,
      "duration": 0.1667,
      "velocity": 94,
      "chip": "ym2612"
    },
    {
      "channel": 0,
      "note": 68,
      "start": 12.3102,
      "duration": 0.1667,
      "velocity": 94,
      "chip": "ym2612"
    },
    {
      "channel": 1,
      "note": 73,
      "start": 12.4113,
      "duration": 0.1666,
      "velocity": 94,
      "chip": "ym2612"
    },
    {
      "channel": 2,
      "note": 44,
      "start": 12.4123,
      "duration": 0.3335,
      "velocity": 116,
      "chip": "ym2612"
    },
    {
      "channel": 3,
      "note": 56,
      "start": 12.4134,
      "duration": 0.1663,
      "velocity": 100,
      "chip": "ym2612"
    },
    {
      "channel": 0,
      "note": 73,
      "start": 12.4768,
      "duration": 0.1667,
      "velocity": 94,
      "chip": "ym2612"
    },
    {
      "channel": 1,
      "note": 68,
      "start": 12.5778,
      "duration": 0.1669,
      "velocity": 94,
      "chip": "ym2612"
    },
    {
      "channel": 0,
      "note": 68,
      "start": 12.6436,
      "duration": 0.1667,
      "velocity": 94,
      "chip": "ym2612"
    },
    {
      "channel": 1,
      "note": 70,
      "start": 12.7448,
      "duration": 0.3328,
      "velocity": 94,
      "chip": "ym2612"
    },
    {
      "channel": 2,
      "note": 39,
      "start": 12.7459,
      "duration": 0.3375,
      "velocity": 116,
      "chip": "ym2612"
    },
    {
      "channel": 3,
      "note": 39,
      "start": 12.7509,
      "duration": 0.3328,
      "velocity": 95,
      "chip": "ym2612"
    },
    {
      "channel": 0,
      "note": 70,
      "start": 12.8102,
      "duration": 0.3327,
      "velocity": 94,
      "chip": "ym2612"
    },
    {
      "channel": 1,
      "note": 63,
      "start": 13.0823,
      "duration": 0.1622,
      "velocity": 99,
      "chip": "ym2612"
    },
    {
      "channel": 2,
      "note": 44,
      "start": 13.0833,
      "duration": 0.329,
      "velocity": 116,
      "chip": "ym2612"
    },
    {
      "channel": 3,
      "note": 56,
      "start": 13.0883,
      "duration": 0.1579,
      "velocity": 100,
      "chip": "ym2612"
    },
    {
      "channel": 0,
      "note": 39,
      "start": 13.1476,
      "duration": 0.1626,
      "velocity": 94,
      "chip": "ym2612"
    },
    {
      "channel": 1,
      "note": 62,
      "start": 13.2444,
      "duration": 0.1668,
      "velocity": 99,
      "chip": "ym2612"
    },
    {
      "channel": 0,
      "note": 38,
      "start": 13.3102,
      "duration": 0.1667,
      "velocity": 94,
      "chip": "ym2612"
    },
    {
      "channel": 1,
      "note": 63,
      "start": 13.4113,
      "duration": 0.1662,
      "velocity": 99,
      "chip": "ym2612"
    },
    {
      "channel": 2,
      "note": 43,
      "start": 13.4124,
      "duration": 0.3329,
      "velocity": 116,
      "chip": "ym2612"
    },
    {
      "channel": 3,
      "note": 44,
      "start": 13.4174,
      "duration": 0.1665,
      "velocity": 103,
      "chip": "ym2612"
    },
    {
      "channel": 0,
      "note": 39,
      "start": 13.4769,
      "duration": 0.166,
      "velocity": 94,
      "chip": "ym2612"
    },
    {
      "channel": 1,
      "note": 36,
      "start": 13.5821,
      "duration": 0.0792,
      "velocity": 119,
      "chip": "ym2612"
    },
    {
      "channel": 0,
      "note": 37,
      "start": 13.6476,
      "duration": 0.0793,
      "velocity": 119,
      "chip": "ym2612"
    },
    {
      "channel": 1,
      "note": 36,
      "start": 13.6614,
      "duration": 0.0836,
      "velocity": 119,
      "chip": "ym2612"
    },
    {
      "channel": 0,
      "note": 37,
      "start": 13.7269,
      "duration": 0.0833,
      "velocity": 119,
      "chip": "ym2612"
    },
    {
      "channel": 1,
      "note": 36,
      "start": 13.7449,
      "duration": 0.166,
      "velocity": 119,
      "chip": "ym2612"
    },
    {
      "channel": 2,
      "note": 39,
      "start": 13.75,
      "duration": 0.3285,
      "velocity": 116,
      "chip": "ym2612"
    },
    {
      "channel": 3,
      "note": 44,
      "start": 13.755,
      "duration": 0.3284,
      "velocity": 95,
      "chip": "ym2612"
    },
    {
      "channel": 4,
      "note": 76,
      "start": 13.758,
      "duration": 2.003,
      "velocity": 98,
      "chip": "ym2612"
    },
    {
      "channel": 0,
      "note": 37,
      "start": 13.8102,
      "duration": 0.166,
      "velocity": 119,
      "chip": "ym2612"
    },
    {
      "channel": 1,
      "note": 68,
      "start": 13.9156,
      "duration": 0.1624,
      "velocity": 94,
      "chip": "ym2612"
    },
    {
      "channel": 0,
      "note": 68,
      "start": 13.9809,
      "duration": 0.1626,
      "velocity": 94,
      "chip": "ym2612"
    },
    {
      "channel": 1,
      "note": 68,
      "start": 14.078,
      "duration": 0.1664,
      "velocity": 94,
      "chip": "ym2612"
    },
    {
      "channel": 2,
      "note": 44,
      "start": 14.0831,
      "duration": 0.3292,
      "velocity": 116,
      "chip": "ym2612"
    },
    {
      "channel": 3,
      "note": 56,
      "start": 14.0881,
      "duration": 0.1583,
      "velocity": 100,
      "chip": "ym2612"
    },
    {
      "channel": 0,
      "note": 68,
      "start": 14.1435,
      "duration": 0.1667,
      "velocity": 94,
      "chip": "ym2612"
    },
    {
      "channel": 1,
      "note": 68,
      "start": 14.2445,
      "duration": 0.1668,
      "velocity": 94,
      "chip": "ym2612"
    },
    {
      "channel": 0,
      "note": 68,
      "start": 14.3102,
      "duration": 0.1667,
      "velocity": 94,
      "chip": "ym2612"
    },
    {
      "channel": 1,
      "note": 73,
      "start": 14.4113,
      "duration": 0.1666,
      "velocity": 94,
      "chip": "ym2612"
    },
    {
      "channel": 2,
      "note": 44,
      "start": 14.4124,
      "duration": 0.3333,
      "velocity": 116,
      "chip": "ym2612"
    },
    {
      "channel": 3,
      "note": 44,
      "start": 14.4174,
      "duration": 0.1623,
      "velocity": 103,
      "chip": "ym2612"
    },
    {
      "channel": 0,
      "note": 73,
      "start": 14.4769,
      "duration": 0.1667,
      "velocity": 94,
      "chip": "ym2612"
    },
    {
      "channel": 1,
      "note": 68,
      "start": 14.5779,
      "duration": 0.1668,
      "velocity": 94,
      "chip": "ym2612"
    },
    {
      "channel": 0,
      "note": 68,
      "start": 14.6436,
      "duration": 0.1667,
      "velocity": 94,
      "chip": "ym2612"
    },
    {
      "channel": 1,
      "note": 70,
      "start": 14.7447,
      "duration": 0.3329,
      "velocity": 94,
      "chip": "ym2612"
    },
    {
      "channel": 2,
      "note": 39,
      "start": 14.7458,
      "duration": 0.3375,
      "velocity": 116,
      "chip": "ym2612"
    },
    {
      "channel": 3,
      "note": 39,
      "start": 14.7508,
      "duration": 0.333,
      "velocity": 95,
      "chip": "ym2612"
    },
    {
      "channel": 0,
      "note": 70,
      "start": 14.8103,
      "duration": 0.3327,
      "velocity": 94,
      "chip": "ym2612"
    },
    {
      "channel": 1,
      "note": 63,
      "start": 15.0823,
      "duration": 0.1622,
      "velocity": 99,
      "chip": "ym2612"
    },
    {
      "channel": 2,
      "note": 45,
      "start": 15.0834,
      "duration": 0.329,
      "velocity": 116,
      "chip": "ym2612"
    },
    {
      "channel": 3,
      "note": 51,
      "start": 15.0884,
      "duration": 0.158,
      "velocity": 100,
      "chip": "ym2612"
    },
    {
      "channel": 0,
      "note": 39,
      "start": 15.1475,
      "duration": 0.1627,
      "velocity": 94,
      "chip": "ym2612"
    },
    {
      "channel": 1,
      "note": 62,
      "start": 15.2445,
      "duration": 0.1668,
      "velocity": 99,
      "chip": "ym2612"
    },
    {
      "channel": 0,
      "note": 38,
      "start": 15.3102,
      "duration": 0.1667,
      "velocity": 94,
      "chip": "ym2612"
    },
    {
      "channel": 1,
      "note": 63,
      "start": 15.4113,
      "duration": 0.166,
      "velocity": 99,
      "chip": "ym2612"
    },
    {
      "channel": 2,
      "note": 45,
      "start": 15.4124,
      "duration": 0.3371,
      "velocity": 116,
      "chip": "ym2612"
    },
    {
      "channel": 3,
      "note": 51,
      "start": 15.4174,
      "duration": 0.1664,
      "velocity": 103,
      "chip": "ym2612"
    },
    {
      "channel": 0,
      "note": 39,
      "start": 15.4769,
      "duration": 0.166,
      "velocity": 94,
      "chip": "ym2612"
    },
    {
      "channel": 1,
      "note": 48,
      "start": 15.582,
      "duration": 0.1625,
      "velocity": 106,
      "chip": "ym2612"
    },
    {
      "channel": 0,
      "note": 53,
      "start": 15.6476,
      "duration": 0.162,
      "velocity": 106,
      "chip": "ym2612"
    },
    {
      "channel": 1,
      "note": 51,
      "start": 15.7491,
      "duration": 0.4955,
      "velocity": 94,
      "chip": "ym2612"
    },
    {
      "channel": 2,
      "note": 39,
      "start": 15.7541,
      "duration": 0.3242,
      "velocity": 116,
      "chip": "ym2612"
    },
    {
      "channel": 3,
      "note": 45,
      "start": 15.7607,
      "duration": 0.3227,
      "velocity": 95,
      "chip": "ym2612"
    },
    {
      "channel": 4,
      "note": 76,
      "start": 15.7656,
      "duration": 1.9959,
      "velocity": 100,
      "chip": "ym2612"
    },
    {
      "channel": 0,
      "note": 51,
      "start": 15.8142,
      "duration": 0.496,
      "velocity": 94,
      "chip": "ym2612"
    },
    {
      "channel": 2,
      "note": 44,
      "start": 16.083,
      "duration": 0.3294,
      "velocity": 116,
      "chip": "ym2612"
    },
    {
      "channel": 3,
      "note": 56,
      "start": 16.088,
      "duration": 0.1585,
      "velocity": 100,
      "chip": "ym2612"
    },
    {
      "channel": 1,
      "note": 51,
      "start": 16.2446,
      "duration": 0.1667,
      "velocity": 94,
      "chip": "ym2612"
    },
    {
      "channel": 0,
      "note": 51,
      "start": 16.3102,
      "duration": 0.1667,
      "velocity": 94,
      "chip": "ym2612"
    },
    {
      "channel": 1,
      "note": 56,
      "start": 16.4114,
      "duration": 0.1664,
      "velocity": 94,
      "chip": "ym2612"
    },
    {
      "channel": 2,
      "note": 45,
      "start": 16.4124,
      "duration": 0.3335,
      "velocity": 116,
      "chip": "ym2612"
    },
    {
      "channel": 3,
      "note": 56,
      "start": 16.4135,
      "duration": 0.1661,
      "velocity": 100,
      "chip": "ym2612"
    },
    {
      "channel": 0,
      "note": 56,
      "start": 16.4769,
      "duration": 0.1667,
      "velocity": 94,
      "chip": "ym2612"
    },
    {
      "channel": 1,
      "note": 51,
      "start": 16.5778,
      "duration": 0.1671,
      "velocity": 94,
      "chip": "ym2612"
    },
    {
      "channel": 0,
      "note": 51,
      "start": 16.6436,
      "duration": 0.1666,
      "velocity": 94,
      "chip": "ym2612"
    },
    {
      "channel": 1,
      "note": 53,
      "start": 16.7449,
      "duration": 0.1661,
      "velocity": 94,
      "chip": "ym2612"
    },
    {
      "channel": 2,
      "note": 40,
      "start": 16.7459,
      "duration": 0.3372,
      "velocity": 116,
      "chip": "ym2612"
    },
    {
      "channel": 3,
      "note": 39,
      "start": 16.7509,
      "duration": 0.3326,
      "velocity": 95,
      "chip": "ym2612"
    },
    {
      "channel": 0,
      "note": 53,
      "start": 16.8102,
      "duration": 0.0999,
      "velocity": 94,
      "chip": "ym2612"
    },
    {
      "channel": 1,
      "note": 39,
      "start": 17.0821,
      "duration": 0.3285,
      "velocity": 86,
      "chip": "ym2612"
    },
    {
      "channel": 2,
      "note": 47,
      "start": 17.0831,
      "duration": 0.3332,
      "velocity": 116,
      "chip": "ym2612"
    },
    {
      "channel": 3,
      "note": 52,
      "start": 17.0881,
      "duration": 0.1581,
      "velocity": 100,
      "chip": "ym2612"
    },
    {
      "channel": 0,
      "note": 39,
      "start": 17.1475,
      "duration": 0.3288,
      "velocity": 86,
      "chip": "ym2612"
    },
    {
      "channel": 1,
      "note": 72,
      "start": 17.4154,
      "duration": 0.3288,
      "velocity": 106,
      "chip": "ym2612"
    },
    {
      "channel": 2,
      "note": 47,
      "start": 17.4164,
      "duration": 0.3328,
      "velocity": 116,
      "chip": "ym2612"
    },
    {
      "channel": 3,
      "note": 47,
      "start": 17.4214,
      "duration": 0.1581,
      "velocity": 103,
      "chip": "ym2612"
    },
    {
      "channel": 0,
      "note": 72,
      "start": 17.4809,
      "duration": 0.3287,
      "velocity": 106,
      "chip": "ym2612"
    },
    {
      "channel": 1,
      "note": 51,
      "start": 17.7488,
      "duration": 0.4959,
      "velocity": 94,
      "chip": "ym2612"
    },
    {
      "channel": 2,
      "note": 39,
      "start": 17.7539,
      "duration": 0.3245,
      "velocity": 116,
      "chip": "ym2612"
    },
    {
      "channel": 3,
      "note": 45,
      "start": 17.7604,
      "duration": 0.323,
      "velocity": 95,
      "chip": "ym2612"
    },
    {
      "channel": 4,
      "note": 76,
      "start": 17.7615,
      "duration": 0.9906,
      "velocity": 100,
      "chip": "ym2612"
    },
    {
      "channel": 0,
      "note": 51,
      "start": 17.8142,
      "duration": 0.4961,
      "velocity": 94,
      "chip": "ym2612"
    },
    {
      "channel": 2,
      "note": 44,
      "start": 18.083,
      "duration": 0.3294,
      "velocity": 116,
      "chip": "ym2612"
    },
    {
      "channel": 3,
      "note": 56,
      "start": 18.088,
      "duration": 0.1585,
      "velocity": 100,
      "chip": "ym2612"
    },
    {
      "channel": 1,
      "note": 56,
      "start": 18.2447,
      "duration": 0.1667,
      "velocity": 94,
      "chip": "ym2612"
    },
    {
      "channel": 0,
      "note": 56,
      "start": 18.3103,
      "duration": 0.1666,
      "velocity": 94,
      "chip": "ym2612"
    },
    {
      "channel": 1,
      "note": 51,
      "start": 18.4114,
      "duration": 0.1664,
      "velocity": 94,
      "chip": "ym2612"
    },
    {
      "channel": 2,
      "note": 45,
      "start": 18.4124,
      "duration": 0.3334,
      "velocity": 116,
      "chip": "ym2612"
    },
    {
      "channel": 3,
      "note": 56,
      "start": 18.4135,
      "duration": 0.1661,
      "velocity": 100,
      "chip": "ym2612"
    },
    {
      "channel": 0,
      "note": 51,
      "start": 18.4768,
      "duration": 0.1667,
      "velocity": 94,
      "chip": "ym2612"
    },
    {
      "channel": 1,
      "note": 58,
      "start": 18.5778,
      "duration": 0.1671,
      "velocity": 94,
      "chip": "ym2612"
    },
    {
      "channel": 0,
      "note": 58,
      "start": 18.6435,
      "duration": 0.1667,
      "velocity": 94,
      "chip": "ym2612"
    },
    {
      "channel": 1,
      "note": 61,
      "start": 18.7449,
      "duration": 0.3332,
      "velocity": 94,
      "chip": "ym2612"
    },
    {
      "channel": 2,
      "note": 44,
      "start": 18.746,
      "duration": 0.3326,
      "velocity": 116,
      "chip": "ym2612"
    },
    {
      "channel": 3,
      "note": 39,
      "start": 18.751,
      "duration": 0.3325,
      "velocity": 95,
      "chip": "ym2612"
    },
    {
      "channel": 4,
      "note": 83,
      "start": 18.7521,
      "duration": 0.3391,
      "velocity": 100,
      "chip": "ym2612"
    },
    {
      "channel": 0,
      "note": 61,
      "start": 18.8102,
      "duration": 0.3333,
      "velocity": 94,
      "chip": "ym2612"
    },
    {
      "channel": 1,
      "note": 60,
      "start": 19.0782,
      "duration": 0.1663,
      "velocity": 94,
      "chip": "ym2612"
    },
    {
      "channel": 2,
      "note": 41,
      "start": 19.0832,
      "duration": 0.1623,
      "velocity": 116,
      "chip": "ym2612"
    },
    {
      "channel": 3,
      "note": 51,
      "start": 19.0882,
      "duration": 0.1582,
      "velocity": 103,
      "chip": "ym2612"
    },
    {
      "channel": 4,
      "note": 76,
      "start": 19.0913,
      "duration": 0.3334,
      "velocity": 100,
      "chip": "ym2612"
    },
    {
      "channel": 0,
      "note": 60,
      "start": 19.1436,
      "duration": 0.0999,
      "velocity": 94,
      "chip": "ym2612"
    },
    {
      "channel": 2,
      "note": 46,
      "start": 19.2455,
      "duration": 0.1665,
      "velocity": 116,
      "chip": "ym2612"
    },
    {
      "channel": 1,
      "note": 58,
      "start": 19.4115,
      "duration": 0.1663,
      "velocity": 94,
      "chip": "ym2612"
    },
    {
      "channel": 2,
      "note": 50,
      "start": 19.4166,
      "duration": 0.3336,
      "velocity": 116,
      "chip": "ym2612"
    },
    {
      "channel": 3,
      "note": 75,
      "start": 19.4215,
      "duration": 0.1581,
      "velocity": 92,
      "chip": "ym2612"
    },
    {
      "channel": 4,
      "note": 83,
      "start": 19.4246,
      "duration": 0.3335,
      "velocity": 100,
      "chip": "ym2612"
    },
    {
      "channel": 0,
      "note": 58,
      "start": 19.4768,
      "duration": 0.1001,
      "velocity": 94,
      "chip": "ym2612"
    },
    {
      "channel": 1,
      "note": 73,
      "start": 19.7492,
      "duration": 0.1621,
      "velocity": 94,
      "chip": "ym2612"
    },
    {
      "channel": 2,
      "note": 44,
      "start": 19.7502,
      "duration": 0.329,
      "velocity": 116,
      "chip": "ym2612"
    },
    {
      "channel": 3,
      "note": 39,
      "start": 19.7552,
      "duration": 0.3244,
      "velocity": 95,
      "chip": "ym2612"
    },
    {
      "channel": 4,
      "note": 85,
      "start": 19.7582,
      "duration": 0.1562,
      "velocity": 100,
      "chip": "ym2612"
    },
    {
      "channel": 0,
      "note": 73,
      "start": 19.8142,
      "duration": 0.1627,
      "velocity": 94,
      "chip": "ym2612"
    },
    {
      "channel": 1,
      "note": 73,
      "start": 19.9114,
      "duration": 0.1668,
      "velocity": 94,
      "chip": "ym2612"
    },
    {
      "channel": 4,
      "note": 85,
      "start": 19.9144,
      "duration": 0.1711,
      "velocity": 100,
      "chip": "ym2612"
    },
    {
      "channel": 0,
      "note": 73,
      "start": 19.9769,
      "duration": 0.1667,
      "velocity": 94,
      "chip": "ym2612"
    },
    {
      "channel": 1,
      "note": 72,
      "start": 20.0782,
      "duration": 0.1665,
      "velocity": 94,
      "chip": "ym2612"
    },
    {
      "channel": 2,
      "note": 38,
      "start": 20.0792,
      "duration": 0.1666,
      "velocity": 116,
      "chip": "ym2612"
    },
    {
      "channel": 3,
      "note": 51,
      "start": 20.0843,
      "duration": 0.1624,
      "velocity": 103,
      "chip": "ym2612"
    },
    {
      "channel": 4,
      "note": 83,
      "start": 20.0854,
      "duration": 0.1624,
      "velocity": 100,
      "chip": "ym2612"
    },
    {
      "channel": 0,
      "note": 72,
      "start": 20.1436,
      "duration": 0.1667,
      "velocity": 94,
      "chip": "ym2612"
    },
    {
      "channel": 1,
      "note": 72,
      "start": 20.2447,
      "duration": 0.1667,
      "velocity": 94,
      "chip": "ym2612"
    },
    {
      "channel": 2,
      "note": 39,
      "start": 20.2458,
      "duration": 0.166,
      "velocity": 116,
      "chip": "ym2612"
    },
    {
      "channel": 4,
      "note": 83,
      "start": 20.2479,
      "duration": 0.1767,
      "velocity": 100,
      "chip": "ym2612"
    },
    {
      "channel": 0,
      "note": 72,
      "start": 20.3103,
      "duration": 0.1666,
      "velocity": 94,
      "chip": "ym2612"
    },
    {
      "channel": 1,
      "note": 70,
      "start": 20.4114,
      "duration": 0.1665,
      "velocity": 94,
      "chip": "ym2612"
    },
    {
      "channel": 2,
      "note": 46,
      "start": 20.4165,
      "duration": 0.3294,
      "velocity": 116,
      "chip": "ym2612"
    },
    {
      "channel": 3,
      "note": 75,
      "start": 20.4214,
      "duration": 0.1584,
      "velocity": 92,
      "chip": "ym2612"
    },
    {
      "channel": 4,
      "note": 81,
      "start": 20.4245,
      "duration": 0.1565,
      "velocity": 100,
      "chip": "ym2612"
    },
    {
      "channel": 0,
      "note": 70,
      "start": 20.4768,
      "duration": 0.1667,
      "velocity": 94,
      "chip": "ym2612"
    },
    {
      "channel": 1,
      "note": 70,
      "start": 20.578,
      "duration": 0.1668,
      "velocity": 94,
      "chip": "ym2612"
    },
    {
      "channel": 4,
      "note": 81,
      "start": 20.581,
      "duration": 0.1711,
      "velocity": 100,
      "chip": "ym2612"
    },
    {
      "channel": 0,
      "note": 70,
      "start": 20.6436,
      "duration": 0.1667,
      "velocity": 94,
      "chip": "ym2612"
    },
    {
      "channel": 1,
      "note": 68,
      "start": 20.7448,
      "duration": 0.1665,
      "velocity": 94,
      "chip": "ym2612"
    },
    {
      "channel": 2,
      "note": 44,
      "start": 20.7459,
      "duration": 0.3333,
      "velocity": 116,
      "chip": "ym2612"
    },
    {
      "channel": 3,
      "note": 39,
      "start": 20.7509,
      "duration": 0.3288,
      "velocity": 95,
      "chip": "ym2612"
    },
    {
      "channel": 4,
      "note": 80,
      "start": 20.7521,
      "duration": 0.1623,
      "velocity": 100,
      "chip": "ym2612"
    },
    {
      "channel": 0,
      "note": 68,
      "start": 20.8102,
      "duration": 0.1667,
      "velocity": 94,
      "chip": "ym2612"
    },
    {
      "channel": 1,
      "note": 68,
      "start": 20.9114,
      "duration": 0.1668,
      "velocity": 94,
      "chip": "ym2612"
    },
    {
      "channel": 4,
      "note": 80,
      "start": 20.9144,
      "duration": 0.171,
      "velocity": 100,
      "chip": "ym2612"
    },
    {
      "channel": 0,
      "note": 68,
      "start": 20.9769,
      "duration": 0.1667,
      "velocity": 94,
      "chip": "ym2612"
    },
    {
      "channel": 1,
      "note": 66,
      "start": 21.0782,
      "duration": 0.1664,
      "velocity": 94,
      "chip": "ym2612"
    },
    {
      "channel": 2,
      "note": 39,
      "start": 21.0792,
      "duration": 0.3332,
      "velocity": 116,
      "chip": "ym2612"
    },
    {
      "channel": 3,
      "note": 51,
      "start": 21.0843,
      "duration": 0.1622,
      "velocity": 103,
      "chip": "ym2612"
    },
    {
      "channel": 4,
      "note": 78,
      "start": 21.0855,
      "duration": 0.1622,
      "velocity": 100,
      "chip": "ym2612"
    },
    {
      "channel": 0,
      "note": 66,
      "start": 21.1436,
      "duration": 0.1666,
      "velocity": 94,
      "chip": "ym2612"
    },
    {
      "channel": 1,
      "note": 66,
      "start": 21.2446,
      "duration": 0.1668,
      "velocity": 94,
      "chip": "ym2612"
    },
    {
      "channel": 4,
      "note": 78,
      "start": 21.2477,
      "duration": 0.171,
      "velocity": 100,
      "chip": "ym2612"
    },
    {
      "channel": 0,
      "note": 66,
      "start": 21.3102,
      "duration": 0.1667,
      "velocity": 94,
      "chip": "ym2612"
    },
    {
      "channel": 1,
      "note": 63,
      "start": 21.4114,
      "duration": 0.1665,
      "velocity": 94,
      "chip": "ym2612"
    },
    {
      "channel": 2,
      "note": 46,
      "start": 21.4124,
      "duration": 0.3422,
      "velocity": 116,
      "chip": "ym2612"
    },
    {
      "channel": 3,
      "note": 75,
      "start": 21.4175,
      "duration": 0.1623,
      "velocity": 92,
      "chip": "ym2612"
    },
    {
      "channel": 4,
      "note": 76,
      "start": 21.4187,
      "duration": 0.1623,
      "velocity": 100,
      "chip": "ym2612"
    },
    {
      "channel": 0,
      "note": 63,
      "start": 21.4769,
      "duration": 0.1667,
      "velocity": 94,
      "chip": "ym2612"
    },
    {
      "channel": 1,
      "note": 63,
      "start": 21.578,
      "duration": 0.1709,
      "velocity": 94,
      "chip": "ym2612"
    },
    {
      "channel": 4,
      "note": 76,
      "start": 21.581,
      "duration": 0.1806,
      "velocity": 100,
      "chip": "ym2612"
    },
    {
      "channel": 0,
      "note": 63,
      "start": 21.6436,
      "duration": 0.1004,
      "velocity": 94,
      "chip": "ym2612"
    },
    {
      "channel": 0,
      "note": 51,
      "start": 21.7485,
      "duration": 1.4953,
      "velocity": 94,
      "chip": "ym2612"
    },
    {
      "channel": 1,
      "note": 51,
      "start": 21.7535,
      "duration": 1.4914,
      "velocity": 94,
      "chip": "ym2612"
    },
    {
      "channel": 2,
      "note": 40,
      "start": 21.7547,
      "duration": 1.4906,
      "velocity": 116,
      "chip": "ym2612"
    },
    {
      "channel": 3,
      "note": 40,
      "start": 21.7613,
      "duration": 1.4896,
      "velocity": 95,
      "chip": "ym2612"
    },
    {
      "channel": 4,
      "note": 76,
      "start": 21.7663,
      "duration": 1.4858,
      "velocity": 98,
      "chip": "ym2612"
    },
    {
      "channel": 0,
      "note": 53,
      "start": 23.2439,
      "duration": 1.2499,
      "velocity": 94,
      "chip": "ym2612"
    },
    {
      "channel": 1,
      "note": 53,
      "start": 23.2449,
      "duration": 1.2499,
      "velocity": 94,
      "chip": "ym2612"
    },
    {
      "channel": 2,
      "note": 45,
      "start": 23.2499,
      "duration": 0.7452,
      "velocity": 116,
      "chip": "ym2612"
    },
    {
      "channel": 3,
      "note": 41,
      "start": 23.2509,
      "duration": 1.2499,
      "velocity": 95,
      "chip": "ym2612"
    },
    {
      "channel": 4,
      "note": 78,
      "start": 23.2521,
      "duration": 1.25,
      "velocity": 98,
      "chip": "ym2612"
    },
    {
      "channel": 2,
      "note": 38,
      "start": 23.9998,
      "duration": 0.4954,
      "velocity": 116,
      "chip": "ym2612"
    },
    {
      "channel": 0,
      "note": 55,
      "start": 24.4937,
      "duration": 1.0333,
      "velocity": 94,
      "chip": "ym2612"
    },
    {
      "channel": 1,
      "note": 55,
      "start": 24.4948,
      "duration": 1.0005,
      "velocity": 94,
      "chip": "ym2612"
    },
    {
      "channel": 2,
      "note": 40,
      "start": 24.4998,
      "duration": 0.3291,
      "velocity": 116,
      "chip": "ym2612"
    },
    {
      "channel": 3,
      "note": 43,
      "start": 24.5009,
      "duration": 1.0333,
      "velocity": 95,
      "chip": "ym2612"
    },
    {
      "channel": 4,
      "note": 80,
      "start": 24.5021,
      "duration": 0.1621,
      "velocity": 98,
      "chip": "ym2612"
    },
    {
      "channel": 4,
      "note": 79,
      "start": 24.6642,
      "duration": 0.1668,
      "velocity": 98,
      "chip": "ym2612"
    },
    {
      "channel": 2,
      "note": 39,
      "start": 24.829,
      "duration": 0.3328,
      "velocity": 116,
      "chip": "ym2612"
    },
    {
      "channel": 4,
      "note": 78,
      "start": 24.831,
      "duration": 0.1667,
      "velocity": 98,
      "chip": "ym2612"
    },
    {
      "channel": 4,
      "note": 77,
      "start": 24.9976,
      "duration": 0.1709,
      "velocity": 98,
      "chip": "ym2612"
    },
    {
      "channel": 2,
      "note": 52,
      "start": 25.1665,
      "duration": 0.3621,
      "velocity": 116,
      "chip": "ym2612"
    },
    {
      "channel": 4,
      "note": 78,
      "start": 25.1685,
      "duration": 0.1625,
      "velocity": 98,
      "chip": "ym2612"
    },
    {
      "channel": 4,
      "note": 80,
      "start": 25.331,
      "duration": 0.2042,
      "velocity": 98,
      "chip": "ym2612"
    },
    {
      "channel": 1,
      "note": 54,
      "start": 25.4954,
      "duration": 0.0825,
      "velocity": 94,
      "chip": "ym2612"
    },
    {
      "channel": 0,
      "note": 56,
      "start": 25.5271,
      "duration": 0.3324,
      "velocity": 94,
      "chip": "ym2612"
    },
    {
      "channel": 2,
      "note": 39,
      "start": 25.5332,
      "duration": 0.3324,
      "velocity": 116,
      "chip": "ym2612"
    },
    {
      "channel": 3,
      "note": 44,
      "start": 25.5342,
      "duration": 0.3364,
      "velocity": 95,
      "chip": "ym2612"
    },
    {
      "channel": 4,
      "note": 81,
      "start": 25.5353,
      "duration": 1.1619,
      "velocity": 98,
      "chip": "ym2612"
    },
    {
      "channel": 1,
      "note": 56,
      "start": 25.5779,
      "duration": 0.2495,
      "velocity": 94,
      "chip": "ym2612"
    },
    {
      "channel": 1,
      "note": 72,
      "start": 25.832,
      "duration": 0.3291,
      "velocity": 106,
      "chip": "ym2612"
    },
    {
      "channel": 0,
      "note": 72,
      "start": 25.8642,
      "duration": 0.3294,
      "velocity": 106,
      "chip": "ym2612"
    },
    {
      "channel": 2,
      "note": 44,
      "start": 25.8703,
      "duration": 0.3254,
      "velocity": 116,
      "chip": "ym2612"
    },
    {
      "channel": 3,
      "note": 57,
      "start": 25.8769,
      "duration": 0.1193,
      "velocity": 100,
      "chip": "ym2612"
    },
    {
      "channel": 1,
      "note": 72,
      "start": 26.1612,
      "duration": 0.3329,
      "velocity": 106,
      "chip": "ym2612"
    },
    {
      "channel": 0,
      "note": 72,
      "start": 26.1936,
      "duration": 0.3327,
      "velocity": 106,
      "chip": "ym2612"
    },
    {
      "channel": 2,
      "note": 45,
      "start": 26.1957,
      "duration": 0.3366,
      "velocity": 116,
      "chip": "ym2612"
    },
    {
      "channel": 3,
      "note": 56,
      "start": 26.1967,
      "duration": 0.1329,
      "velocity": 100,
      "chip": "ym2612"
    },
    {
      "channel": 1,
      "note": 49,
      "start": 26.4987,
      "duration": 0.0792,
      "velocity": 94,
      "chip": "ym2612"
    },
    {
      "channel": 0,
      "note": 51,
      "start": 26.531,
      "duration": 0.3287,
      "velocity": 94,
      "chip": "ym2612"
    },
    {
      "channel": 2,
      "note": 38,
      "start": 26.537,
      "duration": 0.3286,
      "velocity": 116,
      "chip": "ym2612"
    },
    {
      "channel": 3,
      "note": 40,
      "start": 26.5436,
      "duration": 0.327,
      "velocity": 95,
      "chip": "ym2612"
    },
    {
      "channel": 1,
      "note": 51,
      "start": 26.5779,
      "duration": 0.2495,
      "velocity": 94,
      "chip": "ym2612"
    },
    {
      "channel": 4,
      "note": 80,
      "start": 26.6972,
      "duration": 0.1807,
      "velocity": 98,
      "chip": "ym2612"
    },
    {
      "channel": 1,
      "note": 72,
      "start": 26.8321,
      "duration": 0.3291,
      "velocity": 106,
      "chip": "ym2612"
    },
    {
      "channel": 0,
      "note": 72,
      "start": 26.8642,
      "duration": 0.3294,
      "velocity": 106,
      "chip": "ym2612"
    },
    {
      "channel": 2,
      "note": 44,
      "start": 26.8703,
      "duration": 0.3254,
      "velocity": 116,
      "chip": "ym2612"
    },
    {
      "channel": 3,
      "note": 45,
      "start": 26.8769,
      "duration": 0.1193,
      "velocity": 103,
      "chip": "ym2612"
    },
    {
      "channel": 4,
      "note": 79,
      "start": 26.878,
      "duration": 0.1525,
      "velocity": 98,
      "chip": "ym2612"
    },
    {
      "channel": 4,
      "note": 78,
      "start": 27.0306,
      "duration": 0.1673,
      "velocity": 98,
      "chip": "ym2612"
    },
    {
      "channel": 1,
      "note": 72,
      "start": 27.1612,
      "duration": 0.3328,
      "velocity": 106,
      "chip": "ym2612"
    },
    {
      "channel": 0,
      "note": 72,
      "start": 27.1936,
      "duration": 0.3327,
      "velocity": 106,
      "chip": "ym2612"
    },
    {
      "channel": 2,
      "note": 45,
      "start": 27.1957,
      "duration": 0.3366,
      "velocity": 116,
      "chip": "ym2612"
    },
    {
      "channel": 3,
      "note": 44,
      "start": 27.1968,
      "duration": 0.1327,
      "velocity": 103,
      "chip": "ym2612"
    },
    {
      "channel": 4,
      "note": 77,
      "start": 27.1978,
      "duration": 0.166,
      "velocity": 98,
      "chip": "ym2612"
    },
    {
      "channel": 4,
      "note": 76,
      "start": 27.3639,
      "duration": 0.1808,
      "velocity": 98,
      "chip": "ym2612"
    },
    {
      "channel": 1,
      "note": 50,
      "start": 27.4987,
      "duration": 0.0792,
      "velocity": 94,
      "chip": "ym2612"
    },
    {
      "channel": 0,
      "note": 52,
      "start": 27.531,
      "duration": 0.3287,
      "velocity": 94,
      "chip": "ym2612"
    },
    {
      "channel": 2,
      "note": 39,
      "start": 27.537,
      "duration": 0.3286,
      "velocity": 116,
      "chip": "ym2612"
    },
    {
      "channel": 3,
      "note": 41,
      "start": 27.5436,
      "duration": 0.3271,
      "velocity": 95,
      "chip": "ym2612"
    },
    {
      "channel": 4,
      "note": 77,
      "start": 27.5446,
      "duration": 0.1526,
      "velocity": 98,
      "chip": "ym2612"
    },
    {
      "channel": 1,
      "note": 52,
      "start": 27.578,
      "duration": 0.2495,
      "velocity": 94,
      "chip": "ym2612"
    },
    {
      "channel": 4,
      "note": 76,
      "start": 27.6972,
      "duration": 0.1807,
      "velocity": 98,
      "chip": "ym2612"
    },
    {
      "channel": 1,
      "note": 72,
      "start": 27.8321,
      "duration": 0.329,
      "velocity": 106,
      "chip": "ym2612"
    },
    {
      "channel": 0,
      "note": 72,
      "start": 27.8642,
      "duration": 0.3294,
      "velocity": 106,
      "chip": "ym2612"
    },
    {
      "channel": 2,
      "note": 47,
      "start": 27.8703,
      "duration": 0.3254,
      "velocity": 116,
      "chip": "ym2612"
    },
    {
      "channel": 3,
      "note": 53,
      "start": 27.877,
      "duration": 0.1192,
      "velocity": 100,
      "chip": "ym2612"
    },
    {
      "channel": 4,
      "note": 75,
      "start": 27.878,
      "duration": 0.1525,
      "velocity": 98,
      "chip": "ym2612"
    },
    {
      "channel": 4,
      "note": 76,
      "start": 28.0306,
      "duration": 0.1672,
      "velocity": 98,
      "chip": "ym2612"
    },
    {
      "channel": 1,
      "note": 72,
      "start": 28.1611,
      "duration": 0.3329,
      "velocity": 106,
      "chip": "ym2612"
    },
    {
      "channel": 0,
      "note": 72,
      "start": 28.1936,
      "duration": 0.3327,
      "velocity": 106,
      "chip": "ym2612"
    },
    {
      "channel": 2,
      "note": 47,
      "start": 28.1957,
      "duration": 0.3367,
      "velocity": 116,
      "chip": "ym2612"
    },
    {
      "channel": 3,
      "note": 52,
      "start": 28.1968,
      "duration": 0.1327,
      "velocity": 100,
      "chip": "ym2612"
    },
    {
      "channel": 4,
      "note": 77,
      "start": 28.1978,
      "duration": 0.166,
      "velocity": 98,
      "chip": "ym2612"
    },
    {
      "channel": 4,
      "note": 78,
      "start": 28.3639,
      "duration": 0.1809,
      "velocity": 98,
      "chip": "ym2612"
    },
    {
      "channel": 1,
      "note": 45,
      "start": 28.4987,
      "duration": 0.0793,
      "velocity": 94,
      "chip": "ym2612"
    },
    {
      "channel": 0,
      "note": 47,
      "start": 28.531,
      "duration": 0.3287,
      "velocity": 94,
      "chip": "ym2612"
    },
    {
      "channel": 2,
      "note": 40,
      "start": 28.5371,
      "duration": 0.3285,
      "velocity": 116,
      "chip": "ym2612"
    },
    {
      "channel": 3,
      "note": 36,
      "start": 28.5437,
      "duration": 0.3269,
      "velocity": 95,
      "chip": "ym2612"
    },
    {
      "channel": 4,
      "note": 79,
      "start": 28.5448,
      "duration": 0.1525,
      "velocity": 98,
      "chip": "ym2612"
    },
    {
      "channel": 1,
      "note": 47,
      "start": 28.578,
      "duration": 0.2494,
      "velocity": 94,
      "chip": "ym2612"
    },
    {
      "channel": 4,
      "note": 78,
      "start": 28.6972,
      "duration": 0.1808,
      "velocity": 98,
      "chip": "ym2612"
    },
    {
      "channel": 1,
      "note": 72,
      "start": 28.832,
      "duration": 0.3293,
      "velocity": 106,
      "chip": "ym2612"
    },
    {
      "channel": 0,
      "note": 72,
      "start": 28.8642,
      "duration": 0.3294,
      "velocity": 106,
      "chip": "ym2612"
    },
    {
      "channel": 2,
      "note": 47,
      "start": 28.8703,
      "duration": 0.3254,
      "velocity": 116,
      "chip": "ym2612"
    },
    {
      "channel": 3,
      "note": 41,
      "start": 28.877,
      "duration": 0.1193,
      "velocity": 103,
      "chip": "ym2612"
    },
    {
      "channel": 4,
      "note": 77,
      "start": 28.878,
      "duration": 0.1525,
      "velocity": 98,
      "chip": "ym2612"
    },
    {
      "channel": 4,
      "note": 78,
      "start": 29.0305,
      "duration": 0.1673,
      "velocity": 98,
      "chip": "ym2612"
    },
    {
      "channel": 1,
      "note": 72,
      "start": 29.1612,
      "duration": 0.3331,
      "velocity": 106,
      "chip": "ym2612"
    },
    {
      "channel": 0,
      "note": 72,
      "start": 29.1936,
      "duration": 0.3327,
      "velocity": 106,
      "chip": "ym2612"
    },
    {
      "channel": 2,
      "note": 47,
      "start": 29.1957,
      "duration": 0.3366,
      "velocity": 116,
      "chip": "ym2612"
    },
    {
      "channel": 3,
      "note": 40,
      "start": 29.1968,
      "duration": 0.1327,
      "velocity": 103,
      "chip": "ym2612"
    },
    {
      "channel": 4,
      "note": 79,
      "start": 29.1979,
      "duration": 0.166,
      "velocity": 98,
      "chip": "ym2612"
    },
    {
      "channel": 4,
      "note": 80,
      "start": 29.3639,
      "duration": 0.1809,
      "velocity": 98,
      "chip": "ym2612"
    },
    {
      "channel": 1,
      "note": 54,
      "start": 29.499,
      "duration": 0.0789,
      "velocity": 94,
      "chip": "ym2612"
    },
    {
      "channel": 0,
      "note": 56,
      "start": 29.5309,
      "duration": 0.3288,
      "velocity": 94,
      "chip": "ym2612"
    },
    {
      "channel": 2,
      "note": 39,
      "start": 29.5369,
      "duration": 0.3288,
      "velocity": 116,
      "chip": "ym2612"
    },
    {
      "channel": 3,
      "note": 45,
      "start": 29.5436,
      "duration": 0.3271,
      "velocity": 95,
      "chip": "ym2612"
    },
    {
      "channel": 4,
      "note": 81,
      "start": 29.5448,
      "duration": 1.1524,
      "velocity": 98,
      "chip": "ym2612"
    },
    {
      "channel": 1,
      "note": 56,
      "start": 29.578,
      "duration": 0.2495,
      "velocity": 94,
      "chip": "ym2612"
    },
    {
      "channel": 1,
      "note": 72,
      "start": 29.8321,
      "duration": 0.3291,
      "velocity": 106,
      "chip": "ym2612"
    },
    {
      "channel": 0,
      "note": 72,
      "start": 29.8642,
      "duration": 0.3294,
      "velocity": 106,
      "chip": "ym2612"
    },
    {
      "channel": 2,
      "note": 44,
      "start": 29.8703,
      "duration": 0.3255,
      "velocity": 116,
      "chip": "ym2612"
    },
    {
      "channel": 3,
      "note": 57,
      "start": 29.8769,
      "duration": 0.1193,
      "velocity": 100,
      "chip": "ym2612"
    },
    {
      "channel": 1,
      "note": 72,
      "start": 30.1612,
      "duration": 0.3329,
      "velocity": 106,
      "chip": "ym2612"
    },
    {
      "channel": 0,
      "note": 72,
      "start": 30.1937,
      "duration": 0.3326,
      "velocity": 106,
      "chip": "ym2612"
    },
    {
      "channel": 2,
      "note": 45,
      "start": 30.1958,
      "duration": 0.3365,
      "velocity": 116,
      "chip": "ym2612"
    },
    {
      "channel": 3,
      "note": 56,
      "start": 30.1968,
      "duration": 0.1329,
      "velocity": 100,
      "chip": "ym2612"
    },
    {
      "channel": 1,
      "note": 49,
      "start": 30.4988,
      "duration": 0.0792,
      "velocity": 94,
      "chip": "ym2612"
    },
    {
      "channel": 0,
      "note": 51,
      "start": 30.5309,
      "duration": 0.3288,
      "velocity": 94,
      "chip": "ym2612"
    },
    {
      "channel": 2,
      "note": 38,
      "start": 30.5369,
      "duration": 0.3288,
      "velocity": 116,
      "chip": "ym2612"
    },
    {
      "channel": 3,
      "note": 40,
      "start": 30.5437,
      "duration": 0.327,
      "velocity": 95,
      "chip": "ym2612"
    },
    {
      "channel": 1,
      "note": 51,
      "start": 30.578,
      "duration": 0.2496,
      "velocity": 94,
      "chip": "ym2612"
    },
    {
      "channel": 4,
      "note": 80,
      "start": 30.6973,
      "duration": 0.1806,
      "velocity": 98,
      "chip": "ym2612"
    },
    {
      "channel": 1,
      "note": 72,
      "start": 30.8321,
      "duration": 0.3291,
      "velocity": 106,
      "chip": "ym2612"
    },
    {
      "channel": 0,
      "note": 72,
      "start": 30.8643,
      "duration": 0.3294,
      "velocity": 106,
      "chip": "ym2612"
    },
    {
      "channel": 2,
      "note": 44,
      "start": 30.8703,
      "duration": 0.3254,
      "velocity": 116,
      "chip": "ym2612"
    },
    {
      "channel": 3,
      "note": 45,
      "start": 30.8769,
      "duration": 0.1193,
      "velocity": 103,
      "chip": "ym2612"
    },
    {
      "channel": 4,
      "note": 79,
      "start": 30.8779,
      "duration": 0.1526,
      "velocity": 98,
      "chip": "ym2612"
    },
    {
      "channel": 4,
      "note": 78,
      "start": 31.0305,
      "duration": 0.1673,
      "velocity": 98,
      "chip": "ym2612"
    },
    {
      "channel": 1,
      "note": 72,
      "start": 31.1613,
      "duration": 0.3327,
      "velocity": 106,
      "chip": "ym2612"
    },
    {
      "channel": 0,
      "note": 72,
      "start": 31.1937,
      "duration": 0.3326,
      "velocity": 106,
      "chip": "ym2612"
    },
    {
      "channel": 2,
      "note": 45,
      "start": 31.1958,
      "duration": 0.3365,
      "velocity": 116,
      "chip": "ym2612"
    },
    {
      "channel": 3,
      "note": 44,
      "start": 31.1969,
      "duration": 0.1327,
      "velocity": 103,
      "chip": "ym2612"
    },
    {
      "channel": 4,
      "note": 77,
      "start": 31.1979,
      "duration": 0.166,
      "velocity": 98,
      "chip": "ym2612"
    },
    {
      "channel": 4,
      "note": 76,
      "start": 31.3639,
      "duration": 0.1808,
      "velocity": 98,
      "chip": "ym2612"
    },
    {
      "channel": 1,
      "note": 50,
      "start": 31.4986,
      "duration": 0.0793,
      "velocity": 94,
      "chip": "ym2612"
    },
    {
      "channel": 0,
      "note": 52,
      "start": 31.5309,
      "duration": 0.3288,
      "velocity": 94,
      "chip": "ym2612"
    },
    {
      "channel": 2,
      "note": 39,
      "start": 31.5369,
      "duration": 0.3288,
      "velocity": 116,
      "chip": "ym2612"
    },
    {
      "channel": 3,
      "note": 41,
      "start": 31.5437,
      "duration": 0.3271,
      "velocity": 95,
      "chip": "ym2612"
    },
    {
      "channel": 4,
      "note": 77,
      "start": 31.5447,
      "duration": 0.1525,
      "velocity": 98,
      "chip": "ym2612"
    },
    {
      "channel": 1,
      "note": 52,
      "start": 31.578,
      "duration": 0.2495,
      "velocity": 94,
      "chip": "ym2612"
    },
    {
      "channel": 4,
      "note": 76,
      "start": 31.6972,
      "duration": 0.1807,
      "velocity": 98,
      "chip": "ym2612"
    },
    {
      "channel": 1,
      "note": 72,
      "start": 31.8322,
      "duration": 0.329,
      "velocity": 106,
      "chip": "ym2612"
    },
    {
      "channel": 0,
      "note": 72,
      "start": 31.8643,
      "duration": 0.3294,
      "velocity": 106,
      "chip": "ym2612"
    },
    {
      "channel": 2,
      "note": 47,
      "start": 31.8703,
      "duration": 0.3254,
      "velocity": 116,
      "chip": "ym2612"
    },
    {
      "channel": 3,
      "note": 53,
      "start": 31.8769,
      "duration": 0.1192,
      "velocity": 100,
      "chip": "ym2612"
    },
    {
      "channel": 4,
      "note": 75,
      "start": 31.878,
      "duration": 0.1526,
      "velocity": 98,
      "chip": "ym2612"
    },
    {
      "channel": 4,
      "note": 76,
      "start": 32.0306,
      "duration": 0.1673,
      "velocity": 98,
      "chip": "ym2612"
    },
    {
      "channel": 1,
      "note": 72,
      "start": 32.1612,
      "duration": 0.3328,
      "velocity": 106,
      "chip": "ym2612"
    },
    {
      "channel": 0,
      "note": 72,
      "start": 32.1937,
      "duration": 0.3326,
      "velocity": 106,
      "chip": "ym2612"
    },
    {
      "channel": 2,
      "note": 47,
      "start": 32.1958,
      "duration": 0.3365,
      "velocity": 116,
      "chip": "ym2612"
    },
    {
      "channel": 3,
      "note": 52,
      "start": 32.1969,
      "duration": 0.1327,
      "velocity": 100,
      "chip": "ym2612"
    },
    {
      "channel": 4,
      "note": 77,
      "start": 32.1979,
      "duration": 0.166,
      "velocity": 98,
      "chip": "ym2612"
    },
    {
      "channel": 4,
      "note": 78,
      "start": 32.3639,
      "duration": 0.1807,
      "velocity": 98,
      "chip": "ym2612"
    },
    {
      "channel": 1,
      "note": 45,
      "start": 32.4986,
      "duration": 0.0794,
      "velocity": 94,
      "chip": "ym2612"
    },
    {
      "channel": 0,
      "note": 47,
      "start": 32.5309,
      "duration": 0.3288,
      "velocity": 94,
      "chip": "ym2612"
    },
    {
      "channel": 2,
      "note": 40,
      "start": 32.5369,
      "duration": 0.3288,
      "velocity": 116,
      "chip": "ym2612"
    },
    {
      "channel": 3,
      "note": 36,
      "start": 32.5436,
      "duration": 0.3272,
      "velocity": 95,
      "chip": "ym2612"
    },
    {
      "channel": 4,
      "note": 79,
      "start": 32.5446,
      "duration": 0.1526,
      "velocity": 98,
      "chip": "ym2612"
    },
    {
      "channel": 1,
      "note": 47,
      "start": 32.578,
      "duration": 0.2494,
      "velocity": 94,
      "chip": "ym2612"
    },
    {
      "channel": 4,
      "note": 78,
      "start": 32.6972,
      "duration": 0.1808,
      "velocity": 98,
      "chip": "ym2612"
    },
    {
      "channel": 1,
      "note": 72,
      "start": 32.832,
      "duration": 0.3291,
      "velocity": 106,
      "chip": "ym2612"
    },
    {
      "channel": 0,
      "note": 72,
      "start": 32.8643,
      "duration": 0.3293,
      "velocity": 106,
      "chip": "ym2612"
    },
    {
      "channel": 2,
      "note": 47,
      "start": 32.8703,
      "duration": 0.3253,
      "velocity": 116,
      "chip": "ym2612"
    },
    {
      "channel": 3,
      "note": 41,
      "start": 32.8769,
      "duration": 0.1192,
      "velocity": 103,
      "chip": "ym2612"
    },
    {
      "channel": 4,
      "note": 77,
      "start": 32.878,
      "duration": 0.1526,
      "velocity": 98,
      "chip": "ym2612"
    },
    {
      "channel": 4,
      "note": 78,
      "start": 33.0306,
      "duration": 0.1672,
      "velocity": 98,
      "chip": "ym2612"
    },
    {
      "channel": 1,
      "note": 72,
      "start": 33.1612,
      "duration": 0.3333,
      "velocity": 106,
      "chip": "ym2612"
    },
    {
      "channel": 0,
      "note": 72,
      "start": 33.1936,
      "duration": 0.3327,
      "velocity": 106,
      "chip": "ym2612"
    },
    {
      "channel": 2,
      "note": 47,
      "start": 33.1956,
      "duration": 0.3367,
      "velocity": 116,
      "chip": "ym2612"
    },
    {
      "channel": 3,
      "note": 40,
      "start": 33.1967,
      "duration": 0.1328,
      "velocity": 103,
      "chip": "ym2612"
    },
    {
      "channel": 4,
      "note": 79,
      "start": 33.1978,
      "duration": 0.1661,
      "velocity": 98,
      "chip": "ym2612"
    },
    {
      "channel": 4,
      "note": 80,
      "start": 33.364,
      "duration": 0.1808,
      "velocity": 98,
      "chip": "ym2612"
    },
    {
      "channel": 1,
      "note": 54,
      "start": 33.4991,
      "duration": 0.0788,
      "velocity": 94,
      "chip": "ym2612"
    },
    {
      "channel": 0,
      "note": 56,
      "start": 33.5309,
      "duration": 0.3287,
      "velocity": 94,
      "chip": "ym2612"
    },
    {
      "channel": 2,
      "note": 39,
      "start": 33.537,
      "duration": 0.3285,
      "velocity": 116,
      "chip": "ym2612"
    },
    {
      "channel": 3,
      "note": 45,
      "start": 33.5436,
      "duration": 0.327,
      "velocity": 95,
      "chip": "ym2612"
    },
    {
      "channel": 4,
      "note": 81,
      "start": 33.5448,
      "duration": 1.1524,
      "velocity": 98,
      "chip": "ym2612"
    },
    {
      "channel": 1,
      "note": 56,
      "start": 33.5779,
      "duration": 0.2495,
      "velocity": 94,
      "chip": "ym2612"
    },
    {
      "channel": 1,
      "note": 72,
      "start": 33.832,
      "duration": 0.3291,
      "velocity": 106,
      "chip": "ym2612"
    },
    {
      "channel": 0,
      "note": 72,
      "start": 33.8642,
      "duration": 0.3294,
      "velocity": 106,
      "chip": "ym2612"
    },
    {
      "channel": 2,
      "note": 44,
      "start": 33.8702,
      "duration": 0.3254,
      "velocity": 116,
      "chip": "ym2612"
    },
    {
      "channel": 3,
      "note": 57,
      "start": 33.8769,
      "duration": 0.1193,
      "velocity": 100,
      "chip": "ym2612"
    },
    {
      "channel": 1,
      "note": 72,
      "start": 34.1612,
      "duration": 0.3329,
      "velocity": 106,
      "chip": "ym2612"
    },
    {
      "channel": 0,
      "note": 72,
      "start": 34.1936,
      "duration": 0.3327,
      "velocity": 106,
      "chip": "ym2612"
    },
    {
      "channel": 2,
      "note": 45,
      "start": 34.1957,
      "duration": 0.3366,
      "velocity": 116,
      "chip": "ym2612"
    },
    {
      "channel": 3,
      "note": 56,
      "start": 34.1967,
      "duration": 0.1328,
      "velocity": 100,
      "chip": "ym2612"
    },
    {
      "channel": 1,
      "note": 49,
      "start": 34.4987,
      "duration": 0.0792,
      "velocity": 94,
      "chip": "ym2612"
    },
    {
      "channel": 0,
      "note": 51,
      "start": 34.531,
      "duration": 0.3288,
      "velocity": 94,
      "chip": "ym2612"
    },
    {
      "channel": 2,
      "note": 38,
      "start": 34.537,
      "duration": 0.3288,
      "velocity": 116,
      "chip": "ym2612"
    },
    {
      "channel": 3,
      "note": 40,
      "start": 34.5437,
      "duration": 0.327,
      "velocity": 95,
      "chip": "ym2612"
    },
    {
      "channel": 1,
      "note": 51,
      "start": 34.5779,
      "duration": 0.2495,
      "velocity": 94,
      "chip": "ym2612"
    },
    {
      "channel": 4,
      "note": 80,
      "start": 34.6972,
      "duration": 0.1807,
      "velocity": 98,
      "chip": "ym2612"
    },
    {
      "channel": 1,
      "note": 72,
      "start": 34.832,
      "duration": 0.3291,
      "velocity": 106,
      "chip": "ym2612"
    },
    {
      "channel": 0,
      "note": 72,
      "start": 34.8644,
      "duration": 0.3292,
      "velocity": 106,
      "chip": "ym2612"
    },
    {
      "channel": 2,
      "note": 44,
      "start": 34.8704,
      "duration": 0.3253,
      "velocity": 116,
      "chip": "ym2612"
    },
    {
      "channel": 3,
      "note": 45,
      "start": 34.8769,
      "duration": 0.1193,
      "velocity": 103,
      "chip": "ym2612"
    },
    {
      "channel": 4,
      "note": 79,
      "start": 34.878,
      "duration": 0.1526,
      "velocity": 98,
      "chip": "ym2612"
    },
    {
      "channel": 4,
      "note": 78,
      "start": 35.0306,
      "duration": 0.1673,
      "velocity": 98,
      "chip": "ym2612"
    },
    {
      "channel": 1,
      "note": 72,
      "start": 35.1612,
      "duration": 0.3328,
      "velocity": 106,
      "chip": "ym2612"
    },
    {
      "channel": 0,
      "note": 72,
      "start": 35.1936,
      "duration": 0.3327,
      "velocity": 106,
      "chip": "ym2612"
    },
    {
      "channel": 2,
      "note": 45,
      "start": 35.1957,
      "duration": 0.3366,
      "velocity": 116,
      "chip": "ym2612"
    },
    {
      "channel": 3,
      "note": 44,
      "start": 35.1967,
      "duration": 0.1329,
      "velocity": 103,
      "chip": "ym2612"
    },
    {
      "channel": 4,
      "note": 77,
      "start": 35.1978,
      "duration": 0.166,
      "velocity": 98,
      "chip": "ym2612"
    },
    {
      "channel": 4,
      "note": 76,
      "start": 35.3639,
      "duration": 0.1808,
      "velocity": 98,
      "chip": "ym2612"
    },
    {
      "channel": 1,
      "note": 50,
      "start": 35.4987,
      "duration": 0.0792,
      "velocity": 94,
      "chip": "ym2612"
    },
    {
      "channel": 0,
      "note": 52,
      "start": 35.531,
      "duration": 0.3287,
      "velocity": 94,
      "chip": "ym2612"
    },
    {
      "channel": 2,
      "note": 39,
      "start": 35.537,
      "duration": 0.3286,
      "velocity": 116,
      "chip": "ym2612"
    },
    {
      "channel": 3,
      "note": 41,
      "start": 35.5436,
      "duration": 0.3271,
      "velocity": 95,
      "chip": "ym2612"
    },
    {
      "channel": 4,
      "note": 77,
      "start": 35.5446,
      "duration": 0.1526,
      "velocity": 98,
      "chip": "ym2612"
    },
    {
      "channel": 1,
      "note": 52,
      "start": 35.578,
      "duration": 0.2495,
      "velocity": 94,
      "chip": "ym2612"
    },
    {
      "channel": 4,
      "note": 76,
      "start": 35.6972,
      "duration": 0.1807,
      "velocity": 98,
      "chip": "ym2612"
    },
    {
      "channel": 1,
      "note": 72,
      "start": 35.8321,
      "duration": 0.3289,
      "velocity": 106,
      "chip": "ym2612"
    },
    {
      "channel": 0,
      "note": 72,
      "start": 35.8642,
      "duration": 0.3294,
      "velocity": 106,
      "chip": "ym2612"
    },
    {
      "channel": 2,
      "note": 47,
      "start": 35.8703,
      "duration": 0.3254,
      "velocity": 116,
      "chip": "ym2612"
    },
    {
      "channel": 3,
      "note": 53,
      "start": 35.8769,
      "duration": 0.1193,
      "velocity": 100,
      "chip": "ym2612"
    },
    {
      "channel": 4,
      "note": 75,
      "start": 35.878,
      "duration": 0.1525,
      "velocity": 98,
      "chip": "ym2612"
    },
    {
      "channel": 4,
      "note": 76,
      "start": 36.0306,
      "duration": 0.1672,
      "velocity": 98,
      "chip": "ym2612"
    },
    {
      "channel": 1,
      "note": 72,
      "start": 36.1611,
      "duration": 0.3329,
      "velocity": 106,
      "chip": "ym2612"
    },
    {
      "channel": 0,
      "note": 72,
      "start": 36.1936,
      "duration": 0.3327,
      "velocity": 106,
      "chip": "ym2612"
    },
    {
      "channel": 2,
      "note": 47,
      "start": 36.1957,
      "duration": 0.3366,
      "velocity": 116,
      "chip": "ym2612"
    },
    {
      "channel": 3,
      "note": 52,
      "start": 36.1968,
      "duration": 0.1327,
      "velocity": 100,
      "chip": "ym2612"
    },
    {
      "channel": 4,
      "note": 77,
      "start": 36.1978,
      "duration": 0.166,
      "velocity": 98,
      "chip": "ym2612"
    },
    {
      "channel": 4,
      "note": 78,
      "start": 36.3639,
      "duration": 0.1808,
      "velocity": 98,
      "chip": "ym2612"
    },
    {
      "channel": 1,
      "note": 45,
      "start": 36.4987,
      "duration": 0.0793,
      "velocity": 94,
      "chip": "ym2612"
    },
    {
      "channel": 0,
      "note": 47,
      "start": 36.531,
      "duration": 0.3287,
      "velocity": 94,
      "chip": "ym2612"
    },
    {
      "channel": 2,
      "note": 40,
      "start": 36.537,
      "duration": 0.3286,
      "velocity": 116,
      "chip": "ym2612"
    },
    {
      "channel": 3,
      "note": 36,
      "start": 36.5436,
      "duration": 0.3271,
      "velocity": 95,
      "chip": "ym2612"
    },
    {
      "channel": 4,
      "note": 79,
      "start": 36.5446,
      "duration": 0.1526,
      "velocity": 98,
      "chip": "ym2612"
    },
    {
      "channel": 1,
      "note": 47,
      "start": 36.578,
      "duration": 0.2495,
      "velocity": 94,
      "chip": "ym2612"
    },
    {
      "channel": 4,
      "note": 78,
      "start": 36.6972,
      "duration": 0.1808,
      "velocity": 98,
      "chip": "ym2612"
    },
    {
      "channel": 1,
      "note": 72,
      "start": 36.8321,
      "duration": 0.3291,
      "velocity": 106,
      "chip": "ym2612"
    },
    {
      "channel": 0,
      "note": 72,
      "start": 36.8642,
      "duration": 0.3294,
      "velocity": 106,
      "chip": "ym2612"
    },
    {
      "channel": 2,
      "note": 47,
      "start": 36.8703,
      "duration": 0.3254,
      "velocity": 116,
      "chip": "ym2612"
    },
    {
      "channel": 3,
      "note": 41,
      "start": 36.877,
      "duration": 0.1192,
      "velocity": 103,
      "chip": "ym2612"
    },
    {
      "channel": 4,
      "note": 77,
      "start": 36.878,
      "duration": 0.1524,
      "velocity": 98,
      "chip": "ym2612"
    },
    {
      "channel": 4,
      "note": 78,
      "start": 37.0305,
      "duration": 0.1673,
      "velocity": 98,
      "chip": "ym2612"
    },
    {
      "channel": 1,
      "note": 72,
      "start": 37.1612,
      "duration": 0.3331,
      "velocity": 106,
      "chip": "ym2612"
    },
    {
      "channel": 0,
      "note": 72,
      "start": 37.1936,
      "duration": 0.3327,
      "velocity": 106,
      "chip": "ym2612"
    },
    {
      "channel": 2,
      "note": 47,
      "start": 37.1957,
      "duration": 0.3367,
      "velocity": 116,
      "chip": "ym2612"
    },
    {
      "channel": 3,
      "note": 40,
      "start": 37.1968,
      "duration": 0.1327,
      "velocity": 103,
      "chip": "ym2612"
    },
    {
      "channel": 4,
      "note": 79,
      "start": 37.1978,
      "duration": 0.166,
      "velocity": 98,
      "chip": "ym2612"
    },
    {
      "channel": 4,
      "note": 80,
      "start": 37.3639,
      "duration": 0.1809,
      "velocity": 98,
      "chip": "ym2612"
    },
    {
      "channel": 1,
      "note": 54,
      "start": 37.499,
      "duration": 0.0789,
      "velocity": 94,
      "chip": "ym2612"
    },
    {
      "channel": 0,
      "note": 56,
      "start": 37.531,
      "duration": 0.3287,
      "velocity": 94,
      "chip": "ym2612"
    },
    {
      "channel": 2,
      "note": 39,
      "start": 37.5371,
      "duration": 0.3285,
      "velocity": 116,
      "chip": "ym2612"
    },
    {
      "channel": 3,
      "note": 45,
      "start": 37.5436,
      "duration": 0.3271,
      "velocity": 95,
      "chip": "ym2612"
    },
    {
      "channel": 4,
      "note": 81,
      "start": 37.5448,
      "duration": 1.1524,
      "velocity": 98,
      "chip": "ym2612"
    },
    {
      "channel": 1,
      "note": 56,
      "start": 37.578,
      "duration": 0.2495,
      "velocity": 94,
      "chip": "ym2612"
    },
    {
      "channel": 1,
      "note": 72,
      "start": 37.8321,
      "duration": 0.3291,
      "velocity": 106,
      "chip": "ym2612"
    },
    {
      "channel": 0,
      "note": 72,
      "start": 37.8642,
      "duration": 0.3294,
      "velocity": 106,
      "chip": "ym2612"
    },
    {
      "channel": 2,
      "note": 44,
      "start": 37.8703,
      "duration": 0.3254,
      "velocity": 116,
      "chip": "ym2612"
    },
    {
      "channel": 3,
      "note": 57,
      "start": 37.8769,
      "duration": 0.1193,
      "velocity": 100,
      "chip": "ym2612"
    },
    {
      "channel": 1,
      "note": 72,
      "start": 38.1612,
      "duration": 0.3329,
      "velocity": 106,
      "chip": "ym2612"
    },
    {
      "channel": 0,
      "note": 72,
      "start": 38.1936,
      "duration": 0.3327,
      "velocity": 106,
      "chip": "ym2612"
    },
    {
      "channel": 2,
      "note": 45,
      "start": 38.1958,
      "duration": 0.3365,
      "velocity": 116,
      "chip": "ym2612"
    },
    {
      "channel": 3,
      "note": 56,
      "start": 38.1968,
      "duration": 0.1328,
      "velocity": 100,
      "chip": "ym2612"
    },
    {
      "channel": 1,
      "note": 49,
      "start": 38.4988,
      "duration": 0.0792,
      "velocity": 94,
      "chip": "ym2612"
    },
    {
      "channel": 0,
      "note": 51,
      "start": 38.5309,
      "duration": 0.3288,
      "velocity": 94,
      "chip": "ym2612"
    },
    {
      "channel": 2,
      "note": 38,
      "start": 38.5369,
      "duration": 0.3288,
      "velocity": 116,
      "chip": "ym2612"
    },
    {
      "channel": 3,
      "note": 40,
      "start": 38.5436,
      "duration": 0.3271,
      "velocity": 95,
      "chip": "ym2612"
    },
    {
      "channel": 1,
      "note": 51,
      "start": 38.578,
      "duration": 0.2495,
      "velocity": 94,
      "chip": "ym2612"
    },
    {
      "channel": 4,
      "note": 80,
      "start": 38.6973,
      "duration": 0.1806,
      "velocity": 98,
      "chip": "ym2612"
    },
    {
      "channel": 1,
      "note": 72,
      "start": 38.8322,
      "duration": 0.3291,
      "velocity": 106,
      "chip": "ym2612"
    },
    {
      "channel": 0,
      "note": 72,
      "start": 38.8642,
      "duration": 0.3294,
      "velocity": 106,
      "chip": "ym2612"
    },
    {
      "channel": 2,
      "note": 44,
      "start": 38.8703,
      "duration": 0.3254,
      "velocity": 116,
      "chip": "ym2612"
    },
    {
      "channel": 3,
      "note": 45,
      "start": 38.8769,
      "duration": 0.1193,
      "velocity": 103,
      "chip": "ym2612"
    },
    {
      "channel": 4,
      "note": 79,
      "start": 38.8779,
      "duration": 0.1526,
      "velocity": 98,
      "chip": "ym2612"
    },
    {
      "channel": 4,
      "note": 78,
      "start": 39.0305,
      "duration": 0.1673,
      "velocity": 98,
      "chip": "ym2612"
    },
    {
      "channel": 1,
      "note": 72,
      "start": 39.1613,
      "duration": 0.3328,
      "velocity": 106,
      "chip": "ym2612"
    },
    {
      "channel": 0,
      "note": 72,
      "start": 39.1937,
      "duration": 0.3326,
      "velocity": 106,
      "chip": "ym2612"
    },
    {
      "channel": 2,
      "note": 45,
      "start": 39.1958,
      "duration": 0.3365,
      "velocity": 116,
      "chip": "ym2612"
    },
    {
      "channel": 3,
      "note": 44,
      "start": 39.1968,
      "duration": 0.1328,
      "velocity": 103,
      "chip": "ym2612"
    },
    {
      "channel": 4,
      "note": 77,
      "start": 39.1979,
      "duration": 0.166,
      "velocity": 98,
      "chip": "ym2612"
    },
    {
      "channel": 4,
      "note": 76,
      "start": 39.3639,
      "duration": 0.1808,
      "velocity": 98,
      "chip": "ym2612"
    },
    {
      "channel": 1,
      "note": 50,
      "start": 39.4988,
      "duration": 0.0792,
      "velocity": 94,
      "chip": "ym2612"
    },
    {
      "channel": 0,
      "note": 52,
      "start": 39.5309,
      "duration": 0.3288,
      "velocity": 94,
      "chip": "ym2612"
    },
    {
      "channel": 2,
      "note": 39,
      "start": 39.5369,
      "duration": 0.3288,
      "velocity": 116,
      "chip": "ym2612"
    },
    {
      "channel": 3,
      "note": 41,
      "start": 39.5437,
      "duration": 0.3271,
      "velocity": 95,
      "chip": "ym2612"
    },
    {
      "channel": 4,
      "note": 77,
      "start": 39.5447,
      "duration": 0.1524,
      "velocity": 98,
      "chip": "ym2612"
    },
    {
      "channel": 1,
      "note": 52,
      "start": 39.578,
      "duration": 0.2495,
      "velocity": 94,
      "chip": "ym2612"
    },
    {
      "channel": 4,
      "note": 76,
      "start": 39.6972,
      "duration": 0.1807,
      "velocity": 98,
      "chip": "ym2612"
    },
    {
      "channel": 1,
      "note": 72,
      "start": 39.8322,
      "duration": 0.3289,
      "velocity": 106,
      "chip": "ym2612"
    },
    {
      "channel": 0,
      "note": 72,
      "start": 39.8643,
      "duration": 0.3294,
      "velocity": 106,
      "chip": "ym2612"
    },
    {
      "channel": 2,
      "note": 47,
      "start": 39.8703,
      "duration": 0.3254,
      "velocity": 116,
      "chip": "ym2612"
    },
    {
      "channel": 3,
      "note": 53,
      "start": 39.8769,
      "duration": 0.1193,
      "velocity": 100,
      "chip": "ym2612"
    },
    {
      "channel": 4,
      "note": 75,
      "start": 39.878,
      "duration": 0.1526,
      "velocity": 98,
      "chip": "ym2612"
    },
    {
      "channel": 4,
      "note": 76,
      "start": 40.0305,
      "duration": 0.1673,
      "velocity": 98,
      "chip": "ym2612"
    },
    {
      "channel": 1,
      "note": 72,
      "start": 40.1612,
      "duration": 0.3328,
      "velocity": 106,
      "chip": "ym2612"
    },
    {
      "channel": 0,
      "note": 72,
      "start": 40.1937,
      "duration": 0.3326,
      "velocity": 106,
      "chip": "ym2612"
    },
    {
      "channel": 2,
      "note": 47,
      "start": 40.1958,
      "duration": 0.3365,
      "velocity": 116,
      "chip": "ym2612"
    },
    {
      "channel": 3,
      "note": 52,
      "start": 40.1969,
      "duration": 0.1327,
      "velocity": 100,
      "chip": "ym2612"
    },
    {
      "channel": 4,
      "note": 77,
      "start": 40.1979,
      "duration": 0.166,
      "velocity": 98,
      "chip": "ym2612"
    },
    {
      "channel": 4,
      "note": 78,
      "start": 40.3639,
      "duration": 0.1807,
      "velocity": 98,
      "chip": "ym2612"
    },
    {
      "channel": 1,
      "note": 45,
      "start": 40.4986,
      "duration": 0.0793,
      "velocity": 94,
      "chip": "ym2612"
    },
    {
      "channel": 0,
      "note": 47,
      "start": 40.5309,
      "duration": 0.3288,
      "velocity": 94,
      "chip": "ym2612"
    },
    {
      "channel": 2,
      "note": 40,
      "start": 40.5369,
      "duration": 0.3288,
      "velocity": 116,
      "chip": "ym2612"
    },
    {
      "channel": 3,
      "note": 36,
      "start": 40.5436,
      "duration": 0.3272,
      "velocity": 95,
      "chip": "ym2612"
    },
    {
      "channel": 4,
      "note": 79,
      "start": 40.5446,
      "duration": 0.1526,
      "velocity": 98,
      "chip": "ym2612"
    },
    {
      "channel": 1,
      "note": 47,
      "start": 40.578,
      "duration": 0.2494,
      "velocity": 94,
      "chip": "ym2612"
    },
    {
      "channel": 4,
      "note": 78,
      "start": 40.6972,
      "duration": 0.1808,
      "velocity": 98,
      "chip": "ym2612"
    },
    {
      "channel": 1,
      "note": 72,
      "start": 40.832,
      "duration": 0.3291,
      "velocity": 106,
      "chip": "ym2612"
    },
    {
      "channel": 0,
      "note": 72,
      "start": 40.8643,
      "duration": 0.3293,
      "velocity": 106,
      "chip": "ym2612"
    },
    {
      "channel": 2,
      "note": 47,
      "start": 40.8703,
      "duration": 0.3253,
      "velocity": 116,
      "chip": "ym2612"
    },
    {
      "channel": 3,
      "note": 41,
      "start": 40.8769,
      "duration": 0.1192,
      "velocity": 103,
      "chip": "ym2612"
    },
    {
      "channel": 4,
      "note": 77,
      "start": 40.878,
      "duration": 0.1526,
      "velocity": 98,
      "chip": "ym2612"
    },
    {
      "channel": 4,
      "note": 78,
      "start": 41.0306,
      "duration": 0.1672,
      "velocity": 98,
      "chip": "ym2612"
    },
    {
      "channel": 1,
      "note": 72,
      "start": 41.1612,
      "duration": 0.3371,
      "velocity": 106,
      "chip": "ym2612"
    },
    {
      "channel": 0,
      "note": 72,
      "start": 41.1936,
      "duration": 0.2997,
      "velocity": 106,
      "chip": "ym2612"
    },
    {
      "channel": 2,
      "note": 47,
      "start": 41.1956,
      "duration": 0.3076,
      "velocity": 116,
      "chip": "ym2612"
    },
    {
      "channel": 3,
      "note": 40,
      "start": 41.1967,
      "duration": 0.1328,
      "velocity": 103,
      "chip": "ym2612"
    },
    {
      "channel": 4,
      "note": 79,
      "start": 41.1978,
      "duration": 0.1661,
      "velocity": 98,
      "chip": "ym2612"
    },
    {
      "channel": 4,
      "note": 80,
      "start": 41.364,
      "duration": 0.1518,
      "velocity": 98,
      "chip": "ym2612"
    },
    {
      "channel": 0,
      "note": 56,
      "start": 41.4979,
      "duration": 0.3289,
      "velocity": 94,
      "chip": "ym2612"
    },
    {
      "channel": 1,
      "note": 56,
      "start": 41.5028,
      "duration": 0.3289,
      "velocity": 94,
      "chip": "ym2612"
    },
    {
      "channel": 2,
      "note": 40,
      "start": 41.5097,
      "duration": 0.3271,
      "velocity": 116,
      "chip": "ym2612"
    },
    {
      "channel": 3,
      "note": 45,
      "start": 41.5147,
      "duration": 0.3288,
      "velocity": 95,
      "chip": "ym2612"
    },
    {
      "channel": 4,
      "note": 81,
      "start": 41.5158,
      "duration": 0.9555,
      "velocity": 98,
      "chip": "ym2612"
    },
    {
      "channel": 0,
      "note": 68,
      "start": 41.8314,
      "duration": 0.1623,
      "velocity": 94,
      "chip": "ym2612"
    },
    {
      "channel": 1,
      "note": 68,
      "start": 41.8364,
      "duration": 0.1584,
      "velocity": 94,
      "chip": "ym2612"
    },
    {
      "channel": 2,
      "note": 44,
      "start": 41.8431,
      "duration": 0.3194,
      "velocity": 116,
      "chip": "ym2612"
    },
    {
      "channel": 3,
      "note": 57,
      "start": 41.8481,
      "duration": 0.1485,
      "velocity": 100,
      "chip": "ym2612"
    },
    {
      "channel": 0,
      "note": 68,
      "start": 41.9937,
      "duration": 0.1667,
      "velocity": 94,
      "chip": "ym2612"
    },
    {
      "channel": 1,
      "note": 68,
      "start": 41.9948,
      "duration": 0.1667,
      "velocity": 94,
      "chip": "ym2612"
    },
    {
      "channel": 0,
      "note": 73,
      "start": 42.1604,
      "duration": 0.1665,
      "velocity": 94,
      "chip": "ym2612"
    },
    {
      "channel": 1,
      "note": 73,
      "start": 42.1614,
      "duration": 0.1666,
      "velocity": 94,
      "chip": "ym2612"
    },
    {
      "channel": 2,
      "note": 44,
      "start": 42.1625,
      "duration": 0.3088,
      "velocity": 116,
      "chip": "ym2612"
    },
    {
      "channel": 3,
      "note": 44,
      "start": 42.1675,
      "duration": 0.1623,
      "velocity": 103,
      "chip": "ym2612"
    },
    {
      "channel": 0,
      "note": 68,
      "start": 42.3269,
      "duration": 0.1444,
      "velocity": 94,
      "chip": "ym2612"
    },
    {
      "channel": 1,
      "note": 68,
      "start": 42.328,
      "duration": 0.1433,
      "velocity": 94,
      "chip": "ym2612"
    }
  ]
}