{
  "track_name": "15 - The Workyard",
  "duration_sec": 130.996,
  "sample_rate": 44100,
  "note_count": 1970,
  "unique_pitches": 29,
  "pitch_range": 40,
  "avg_note_duration": 0.2766,
  "reconstruction_stats": {
    "notes_reconstructed": 1970,
    "keyon_events": 1970,
    "keyoff_events": 1968,
    "orphan_keyons": 2,
    "unique_pitches": 29,
    "pitch_range": 40,
    "avg_duration_sec": 0.2766
  },
  "metadata": {
    "source": "N\\Nightmare Circus\\15 - The Workyard.vgz"
  },
  "notes": [
    {
      "channel": 4,
      "note": 47,
      "start": 0.0,
      "duration": 6.9499,
      "velocity": 106,
      "chip": "ym2612"
    },
    {
      "channel": 0,
      "note": 54,
      "start": 0.0072,
      "duration": 6.9424,
      "velocity": 106,
      "chip": "ym2612"
    },
    {
      "channel": 1,
      "note": 58,
      "start": 0.0137,
      "duration": 0.0693,
      "velocity": 99,
      "chip": "ym2612"
    },
    {
      "channel": 3,
      "note": 47,
      "start": 0.0209,
      "duration": 0.0622,
      "velocity": 89,
      "chip": "ym2612"
    },
    {
      "channel": 5,
      "note": 59,
      "start": 0.1224,
      "duration": 0.1107,
      "velocity": 89,
      "chip": "ym2612"
    },
    {
      "channel": 2,
      "note": 58,
      "start": 0.1271,
      "duration": 0.1061,
      "velocity": 99,
      "chip": "ym2612"
    },
    {
      "channel": 1,
      "note": 59,
      "start": 0.27,
      "duration": 0.1296,
      "velocity": 99,
      "chip": "ym2612"
    },
    {
      "channel": 3,
      "note": 47,
      "start": 0.2725,
      "duration": 0.1272,
      "velocity": 89,
      "chip": "ym2612"
    },
    {
      "channel": 5,
      "note": 59,
      "start": 0.4204,
      "duration": 0.1293,
      "velocity": 89,
      "chip": "ym2612"
    },
    {
      "channel": 2,
      "note": 59,
      "start": 0.4232,
      "duration": 0.1266,
      "velocity": 99,
      "chip": "ym2612"
    },
    {
      "channel": 1,
      "note": 62,
      "start": 0.5701,
      "duration": 0.1295,
      "velocity": 99,
      "chip": "ym2612"
    },
    {
      "channel": 3,
      "note": 47,
      "start": 0.5742,
      "duration": 0.1255,
      "velocity": 89,
      "chip": "ym2612"
    },
    {
      "channel": 5,
      "note": 59,
      "start": 0.722,
      "duration": 0.1278,
      "velocity": 89,
      "chip": "ym2612"
    },
    {
      "channel": 2,
      "note": 62,
      "start": 0.7247,
      "duration": 0.1252,
      "velocity": 99,
      "chip": "ym2612"
    },
    {
      "channel": 1,
      "note": 58,
      "start": 0.8717,
      "duration": 0.1279,
      "velocity": 99,
      "chip": "ym2612"
    },
    {
      "channel": 3,
      "note": 47,
      "start": 0.8742,
      "duration": 0.1255,
      "velocity": 89,
      "chip": "ym2612"
    },
    {
      "channel": 5,
      "note": 59,
      "start": 1.0371,
      "duration": 0.1127,
      "velocity": 89,
      "chip": "ym2612"
    },
    {
      "channel": 2,
      "note": 58,
      "start": 1.0415,
      "duration": 0.1085,
      "velocity": 99,
      "chip": "ym2612"
    },
    {
      "channel": 1,
      "note": 59,
      "start": 1.1866,
      "duration": 0.113,
      "velocity": 99,
      "chip": "ym2612"
    },
    {
      "channel": 3,
      "note": 47,
      "start": 1.1904,
      "duration": 0.1094,
      "velocity": 89,
      "chip": "ym2612"
    },
    {
      "channel": 5,
      "note": 59,
      "start": 1.3383,
      "duration": 0.1282,
      "velocity": 89,
      "chip": "ym2612"
    },
    {
      "channel": 2,
      "note": 59,
      "start": 1.3411,
      "duration": 0.1255,
      "velocity": 99,
      "chip": "ym2612"
    },
    {
      "channel": 1,
      "note": 62,
      "start": 1.4881,
      "duration": 0.1283,
      "velocity": 99,
      "chip": "ym2612"
    },
    {
      "channel": 3,
      "note": 47,
      "start": 1.4907,
      "duration": 0.1258,
      "velocity": 89,
      "chip": "ym2612"
    },
    {
      "channel": 5,
      "note": 59,
      "start": 1.6372,
      "duration": 0.1293,
      "velocity": 89,
      "chip": "ym2612"
    },
    {
      "channel": 2,
      "note": 62,
      "start": 1.6399,
      "duration": 0.1267,
      "velocity": 99,
      "chip": "ym2612"
    },
    {
      "channel": 1,
      "note": 58,
      "start": 1.788,
      "duration": 0.1284,
      "velocity": 99,
      "chip": "ym2612"
    },
    {
      "channel": 3,
      "note": 47,
      "start": 1.7918,
      "duration": 0.1247,
      "velocity": 89,
      "chip": "ym2612"
    },
    {
      "channel": 5,
      "note": 59,
      "start": 1.9384,
      "duration": 0.1281,
      "velocity": 89,
      "chip": "ym2612"
    },
    {
      "channel": 2,
      "note": 58,
      "start": 1.9424,
      "duration": 0.1242,
      "velocity": 99,
      "chip": "ym2612"
    },
    {
      "channel": 1,
      "note": 59,
      "start": 2.1034,
      "duration": 0.113,
      "velocity": 99,
      "chip": "ym2612"
    },
    {
      "channel": 3,
      "note": 47,
      "start": 2.106,
      "duration": 0.1105,
      "velocity": 89,
      "chip": "ym2612"
    },
    {
      "channel": 5,
      "note": 59,
      "start": 2.2539,
      "duration": 0.1127,
      "velocity": 89,
      "chip": "ym2612"
    },
    {
      "channel": 2,
      "note": 59,
      "start": 2.2566,
      "duration": 0.11,
      "velocity": 99,
      "chip": "ym2612"
    },
    {
      "channel": 1,
      "note": 62,
      "start": 2.4035,
      "duration": 0.1295,
      "velocity": 99,
      "chip": "ym2612"
    },
    {
      "channel": 3,
      "note": 47,
      "start": 2.4073,
      "duration": 0.1258,
      "velocity": 89,
      "chip": "ym2612"
    },
    {
      "channel": 5,
      "note": 59,
      "start": 2.555,
      "duration": 0.1281,
      "velocity": 89,
      "chip": "ym2612"
    },
    {
      "channel": 2,
      "note": 62,
      "start": 2.5578,
      "duration": 0.1254,
      "velocity": 99,
      "chip": "ym2612"
    },
    {
      "channel": 1,
      "note": 58,
      "start": 2.7047,
      "duration": 0.1283,
      "velocity": 99,
      "chip": "ym2612"
    },
    {
      "channel": 3,
      "note": 47,
      "start": 2.7073,
      "duration": 0.1259,
      "velocity": 89,
      "chip": "ym2612"
    },
    {
      "channel": 5,
      "note": 59,
      "start": 2.8537,
      "duration": 0.1294,
      "velocity": 89,
      "chip": "ym2612"
    },
    {
      "channel": 2,
      "note": 58,
      "start": 2.8577,
      "duration": 0.1255,
      "velocity": 99,
      "chip": "ym2612"
    },
    {
      "channel": 1,
      "note": 59,
      "start": 3.0034,
      "duration": 0.1296,
      "velocity": 99,
      "chip": "ym2612"
    },
    {
      "channel": 3,
      "note": 47,
      "start": 3.0072,
      "duration": 0.1259,
      "velocity": 89,
      "chip": "ym2612"
    },
    {
      "channel": 5,
      "note": 59,
      "start": 3.1717,
      "duration": 0.1114,
      "velocity": 89,
      "chip": "ym2612"
    },
    {
      "channel": 2,
      "note": 59,
      "start": 3.1745,
      "duration": 0.1088,
      "velocity": 99,
      "chip": "ym2612"
    },
    {
      "channel": 1,
      "note": 62,
      "start": 3.32,
      "duration": 0.1129,
      "velocity": 99,
      "chip": "ym2612"
    },
    {
      "channel": 3,
      "note": 47,
      "start": 3.3225,
      "duration": 0.1106,
      "velocity": 89,
      "chip": "ym2612"
    },
    {
      "channel": 5,
      "note": 59,
      "start": 3.4704,
      "duration": 0.1293,
      "velocity": 89,
      "chip": "ym2612"
    },
    {
      "channel": 2,
      "note": 62,
      "start": 3.4732,
      "duration": 0.1266,
      "velocity": 99,
      "chip": "ym2612"
    },
    {
      "channel": 1,
      "note": 58,
      "start": 3.6227,
      "duration": 0.1269,
      "velocity": 99,
      "chip": "ym2612"
    },
    {
      "channel": 3,
      "note": 47,
      "start": 3.6266,
      "duration": 0.1232,
      "velocity": 89,
      "chip": "ym2612"
    },
    {
      "channel": 5,
      "note": 59,
      "start": 3.7717,
      "duration": 0.1281,
      "velocity": 89,
      "chip": "ym2612"
    },
    {
      "channel": 2,
      "note": 58,
      "start": 3.7757,
      "duration": 0.1242,
      "velocity": 99,
      "chip": "ym2612"
    },
    {
      "channel": 1,
      "note": 59,
      "start": 3.9201,
      "duration": 0.1296,
      "velocity": 99,
      "chip": "ym2612"
    },
    {
      "channel": 3,
      "note": 47,
      "start": 3.9226,
      "duration": 0.1272,
      "velocity": 89,
      "chip": "ym2612"
    },
    {
      "channel": 5,
      "note": 59,
      "start": 4.0705,
      "duration": 0.1293,
      "velocity": 89,
      "chip": "ym2612"
    },
    {
      "channel": 2,
      "note": 59,
      "start": 4.0732,
      "duration": 0.1267,
      "velocity": 99,
      "chip": "ym2612"
    },
    {
      "channel": 1,
      "note": 62,
      "start": 4.2386,
      "duration": 0.1112,
      "velocity": 99,
      "chip": "ym2612"
    },
    {
      "channel": 3,
      "note": 47,
      "start": 4.2424,
      "duration": 0.1075,
      "velocity": 89,
      "chip": "ym2612"
    },
    {
      "channel": 5,
      "note": 59,
      "start": 4.3885,
      "duration": 0.1114,
      "velocity": 89,
      "chip": "ym2612"
    },
    {
      "channel": 2,
      "note": 62,
      "start": 4.3913,
      "duration": 0.1088,
      "velocity": 99,
      "chip": "ym2612"
    },
    {
      "channel": 1,
      "note": 58,
      "start": 4.5395,
      "duration": 0.1268,
      "velocity": 99,
      "chip": "ym2612"
    },
    {
      "channel": 3,
      "note": 47,
      "start": 4.5421,
      "duration": 0.1244,
      "velocity": 89,
      "chip": "ym2612"
    },
    {
      "channel": 5,
      "note": 59,
      "start": 4.6872,
      "duration": 0.1294,
      "velocity": 89,
      "chip": "ym2612"
    },
    {
      "channel": 2,
      "note": 58,
      "start": 4.6912,
      "duration": 0.1255,
      "velocity": 99,
      "chip": "ym2612"
    },
    {
      "channel": 1,
      "note": 59,
      "start": 4.8369,
      "duration": 0.1296,
      "velocity": 99,
      "chip": "ym2612"
    },
    {
      "channel": 3,
      "note": 47,
      "start": 4.8407,
      "duration": 0.1259,
      "velocity": 89,
      "chip": "ym2612"
    },
    {
      "channel": 5,
      "note": 59,
      "start": 4.9885,
      "duration": 0.128,
      "velocity": 89,
      "chip": "ym2612"
    },
    {
      "channel": 2,
      "note": 59,
      "start": 4.9913,
      "duration": 0.1254,
      "velocity": 99,
      "chip": "ym2612"
    },
    {
      "channel": 1,
      "note": 62,
      "start": 5.1401,
      "duration": 0.1264,
      "velocity": 99,
      "chip": "ym2612"
    },
    {
      "channel": 3,
      "note": 47,
      "start": 5.1427,
      "duration": 0.124,
      "velocity": 89,
      "chip": "ym2612"
    },
    {
      "channel": 5,
      "note": 59,
      "start": 5.3041,
      "duration": 0.1126,
      "velocity": 89,
      "chip": "ym2612"
    },
    {
      "channel": 2,
      "note": 62,
      "start": 5.3068,
      "duration": 0.11,
      "velocity": 99,
      "chip": "ym2612"
    },
    {
      "channel": 1,
      "note": 58,
      "start": 5.4549,
      "duration": 0.1117,
      "velocity": 99,
      "chip": "ym2612"
    },
    {
      "channel": 3,
      "note": 47,
      "start": 5.4588,
      "duration": 0.108,
      "velocity": 89,
      "chip": "ym2612"
    },
    {
      "channel": 5,
      "note": 59,
      "start": 5.6053,
      "duration": 0.1282,
      "velocity": 89,
      "chip": "ym2612"
    },
    {
      "channel": 2,
      "note": 58,
      "start": 5.6093,
      "duration": 0.1243,
      "velocity": 99,
      "chip": "ym2612"
    },
    {
      "channel": 1,
      "note": 59,
      "start": 5.7537,
      "duration": 0.1296,
      "velocity": 99,
      "chip": "ym2612"
    },
    {
      "channel": 3,
      "note": 47,
      "start": 5.7562,
      "duration": 0.1272,
      "velocity": 89,
      "chip": "ym2612"
    },
    {
      "channel": 5,
      "note": 59,
      "start": 5.9041,
      "duration": 0.1294,
      "velocity": 89,
      "chip": "ym2612"
    },
    {
      "channel": 2,
      "note": 59,
      "start": 5.9068,
      "duration": 0.1268,
      "velocity": 99,
      "chip": "ym2612"
    },
    {
      "channel": 1,
      "note": 62,
      "start": 6.0537,
      "duration": 0.1297,
      "velocity": 99,
      "chip": "ym2612"
    },
    {
      "channel": 3,
      "note": 47,
      "start": 6.0575,
      "duration": 0.126,
      "velocity": 89,
      "chip": "ym2612"
    },
    {
      "channel": 5,
      "note": 59,
      "start": 6.2053,
      "duration": 0.128,
      "velocity": 89,
      "chip": "ym2612"
    },
    {
      "channel": 2,
      "note": 62,
      "start": 6.2081,
      "duration": 0.1254,
      "velocity": 99,
      "chip": "ym2612"
    },
    {
      "channel": 1,
      "note": 58,
      "start": 6.3716,
      "duration": 0.1115,
      "velocity": 99,
      "chip": "ym2612"
    },
    {
      "channel": 3,
      "note": 47,
      "start": 6.3741,
      "duration": 0.1091,
      "velocity": 89,
      "chip": "ym2612"
    },
    {
      "channel": 5,
      "note": 59,
      "start": 6.5207,
      "duration": 0.1126,
      "velocity": 89,
      "chip": "ym2612"
    },
    {
      "channel": 2,
      "note": 58,
      "start": 6.5247,
      "duration": 0.1087,
      "velocity": 99,
      "chip": "ym2612"
    },
    {
      "channel": 1,
      "note": 59,
      "start": 6.6703,
      "duration": 0.1294,
      "velocity": 99,
      "chip": "ym2612"
    },
    {
      "channel": 3,
      "note": 47,
      "start": 6.6741,
      "duration": 0.1257,
      "velocity": 89,
      "chip": "ym2612"
    },
    {
      "channel": 5,
      "note": 59,
      "start": 6.8217,
      "duration": 0.1283,
      "velocity": 89,
      "chip": "ym2612"
    },
    {
      "channel": 2,
      "note": 59,
      "start": 6.8245,
      "duration": 0.1256,
      "velocity": 99,
      "chip": "ym2612"
    },
    {
      "channel": 4,
      "note": 47,
      "start": 6.9707,
      "duration": 0.1295,
      "velocity": 106,
      "chip": "ym2612"
    },
    {
      "channel": 0,
      "note": 54,
      "start": 6.9737,
      "duration": 0.126,
      "velocity": 106,
      "chip": "ym2612"
    },
    {
      "channel": 1,
      "note": 62,
      "start": 6.9762,
      "duration": 0.1236,
      "velocity": 99,
      "chip": "ym2612"
    },
    {
      "channel": 3,
      "note": 47,
      "start": 6.9787,
      "duration": 0.1212,
      "velocity": 89,
      "chip": "ym2612"
    },
    {
      "channel": 4,
      "note": 47,
      "start": 7.1203,
      "duration": 0.1296,
      "velocity": 106,
      "chip": "ym2612"
    },
    {
      "channel": 0,
      "note": 54,
      "start": 7.123,
      "duration": 0.1266,
      "velocity": 106,
      "chip": "ym2612"
    },
    {
      "channel": 5,
      "note": 59,
      "start": 7.1259,
      "duration": 0.1242,
      "velocity": 89,
      "chip": "ym2612"
    },
    {
      "channel": 2,
      "note": 62,
      "start": 7.1286,
      "duration": 0.1216,
      "velocity": 99,
      "chip": "ym2612"
    },
    {
      "channel": 4,
      "note": 47,
      "start": 7.2709,
      "duration": 7.2457,
      "velocity": 106,
      "chip": "ym2612"
    },
    {
      "channel": 0,
      "note": 54,
      "start": 7.2745,
      "duration": 7.0086,
      "velocity": 106,
      "chip": "ym2612"
    },
    {
      "channel": 1,
      "note": 58,
      "start": 7.2782,
      "duration": 0.1215,
      "velocity": 99,
      "chip": "ym2612"
    },
    {
      "channel": 3,
      "note": 47,
      "start": 7.2825,
      "duration": 0.1173,
      "velocity": 89,
      "chip": "ym2612"
    },
    {
      "channel": 5,
      "note": 59,
      "start": 7.4385,
      "duration": 0.1115,
      "velocity": 89,
      "chip": "ym2612"
    },
    {
      "channel": 2,
      "note": 58,
      "start": 7.4425,
      "duration": 0.1076,
      "velocity": 99,
      "chip": "ym2612"
    },
    {
      "channel": 1,
      "note": 59,
      "start": 7.5869,
      "duration": 0.1128,
      "velocity": 99,
      "chip": "ym2612"
    },
    {
      "channel": 3,
      "note": 47,
      "start": 7.5895,
      "duration": 0.1104,
      "velocity": 89,
      "chip": "ym2612"
    },
    {
      "channel": 5,
      "note": 59,
      "start": 7.7371,
      "duration": 0.1293,
      "velocity": 89,
      "chip": "ym2612"
    },
    {
      "channel": 2,
      "note": 59,
      "start": 7.7398,
      "duration": 0.1267,
      "velocity": 99,
      "chip": "ym2612"
    },
    {
      "channel": 1,
      "note": 62,
      "start": 7.8881,
      "duration": 0.1283,
      "velocity": 99,
      "chip": "ym2612"
    },
    {
      "channel": 3,
      "note": 47,
      "start": 7.892,
      "duration": 0.1246,
      "velocity": 89,
      "chip": "ym2612"
    },
    {
      "channel": 5,
      "note": 59,
      "start": 8.0385,
      "duration": 0.128,
      "velocity": 89,
      "chip": "ym2612"
    },
    {
      "channel": 2,
      "note": 62,
      "start": 8.0413,
      "duration": 0.1254,
      "velocity": 99,
      "chip": "ym2612"
    },
    {
      "channel": 1,
      "note": 58,
      "start": 8.1881,
      "duration": 0.1283,
      "velocity": 99,
      "chip": "ym2612"
    },
    {
      "channel": 3,
      "note": 47,
      "start": 8.1906,
      "duration": 0.1259,
      "velocity": 89,
      "chip": "ym2612"
    },
    {
      "channel": 5,
      "note": 59,
      "start": 8.3372,
      "duration": 0.1294,
      "velocity": 89,
      "chip": "ym2612"
    },
    {
      "channel": 2,
      "note": 58,
      "start": 8.3412,
      "duration": 0.1255,
      "velocity": 99,
      "chip": "ym2612"
    },
    {
      "channel": 1,
      "note": 59,
      "start": 8.5035,
      "duration": 0.1129,
      "velocity": 99,
      "chip": "ym2612"
    },
    {
      "channel": 3,
      "note": 47,
      "start": 8.5073,
      "duration": 0.1092,
      "velocity": 89,
      "chip": "ym2612"
    },
    {
      "channel": 5,
      "note": 59,
      "start": 8.6551,
      "duration": 0.1115,
      "velocity": 89,
      "chip": "ym2612"
    },
    {
      "channel": 2,
      "note": 59,
      "start": 8.6578,
      "duration": 0.1089,
      "velocity": 99,
      "chip": "ym2612"
    },
    {
      "channel": 1,
      "note": 62,
      "start": 8.8051,
      "duration": 0.1281,
      "velocity": 99,
      "chip": "ym2612"
    },
    {
      "channel": 3,
      "note": 47,
      "start": 8.8076,
      "duration": 0.1257,
      "velocity": 89,
      "chip": "ym2612"
    },
    {
      "channel": 5,
      "note": 59,
      "start": 8.9539,
      "duration": 0.1295,
      "velocity": 89,
      "chip": "ym2612"
    },
    {
      "channel": 2,
      "note": 62,
      "start": 8.9567,
      "duration": 0.1268,
      "velocity": 99,
      "chip": "ym2612"
    },
    {
      "channel": 1,
      "note": 58,
      "start": 9.1048,
      "duration": 0.1283,
      "velocity": 99,
      "chip": "ym2612"
    },
    {
      "channel": 3,
      "note": 47,
      "start": 9.1086,
      "duration": 0.1245,
      "velocity": 89,
      "chip": "ym2612"
    },
    {
      "channel": 5,
      "note": 59,
      "start": 9.2552,
      "duration": 0.128,
      "velocity": 89,
      "chip": "ym2612"
    },
    {
      "channel": 2,
      "note": 58,
      "start": 9.2591,
      "duration": 0.1242,
      "velocity": 99,
      "chip": "ym2612"
    },
    {
      "channel": 1,
      "note": 59,
      "start": 9.4035,
      "duration": 0.1296,
      "velocity": 99,
      "chip": "ym2612"
    },
    {
      "channel": 3,
      "note": 47,
      "start": 9.4061,
      "duration": 0.1272,
      "velocity": 89,
      "chip": "ym2612"
    },
    {
      "channel": 5,
      "note": 59,
      "start": 9.5706,
      "duration": 0.1127,
      "velocity": 89,
      "chip": "ym2612"
    },
    {
      "channel": 2,
      "note": 59,
      "start": 9.5733,
      "duration": 0.11,
      "velocity": 99,
      "chip": "ym2612"
    },
    {
      "channel": 1,
      "note": 62,
      "start": 9.7214,
      "duration": 0.1118,
      "velocity": 99,
      "chip": "ym2612"
    },
    {
      "channel": 3,
      "note": 47,
      "start": 9.7252,
      "duration": 0.1081,
      "velocity": 89,
      "chip": "ym2612"
    },
    {
      "channel": 5,
      "note": 59,
      "start": 9.8718,
      "duration": 0.1283,
      "velocity": 89,
      "chip": "ym2612"
    },
    {
      "channel": 2,
      "note": 62,
      "start": 9.8746,
      "duration": 0.1256,
      "velocity": 99,
      "chip": "ym2612"
    },
    {
      "channel": 1,
      "note": 58,
      "start": 10.0215,
      "duration": 0.1283,
      "velocity": 99,
      "chip": "ym2612"
    },
    {
      "channel": 3,
      "note": 47,
      "start": 10.024,
      "duration": 0.1259,
      "velocity": 89,
      "chip": "ym2612"
    },
    {
      "channel": 5,
      "note": 59,
      "start": 10.1706,
      "duration": 0.1293,
      "velocity": 89,
      "chip": "ym2612"
    },
    {
      "channel": 2,
      "note": 58,
      "start": 10.1746,
      "duration": 0.1254,
      "velocity": 99,
      "chip": "ym2612"
    },
    {
      "channel": 1,
      "note": 59,
      "start": 10.3201,
      "duration": 0.1296,
      "velocity": 99,
      "chip": "ym2612"
    },
    {
      "channel": 3,
      "note": 47,
      "start": 10.324,
      "duration": 0.1259,
      "velocity": 89,
      "chip": "ym2612"
    },
    {
      "channel": 5,
      "note": 59,
      "start": 10.4718,
      "duration": 0.1281,
      "velocity": 89,
      "chip": "ym2612"
    },
    {
      "channel": 2,
      "note": 59,
      "start": 10.4745,
      "duration": 0.1255,
      "velocity": 99,
      "chip": "ym2612"
    },
    {
      "channel": 1,
      "note": 62,
      "start": 10.6381,
      "duration": 0.1118,
      "velocity": 99,
      "chip": "ym2612"
    },
    {
      "channel": 3,
      "note": 47,
      "start": 10.6406,
      "duration": 0.1094,
      "velocity": 89,
      "chip": "ym2612"
    },
    {
      "channel": 5,
      "note": 59,
      "start": 10.7873,
      "duration": 0.1127,
      "velocity": 89,
      "chip": "ym2612"
    },
    {
      "channel": 2,
      "note": 62,
      "start": 10.79,
      "duration": 0.1101,
      "velocity": 99,
      "chip": "ym2612"
    },
    {
      "channel": 1,
      "note": 58,
      "start": 10.9397,
      "duration": 0.1268,
      "velocity": 99,
      "chip": "ym2612"
    },
    {
      "channel": 3,
      "note": 47,
      "start": 10.9435,
      "duration": 0.1232,
      "velocity": 89,
      "chip": "ym2612"
    },
    {
      "channel": 5,
      "note": 59,
      "start": 11.0885,
      "duration": 0.1281,
      "velocity": 89,
      "chip": "ym2612"
    },
    {
      "channel": 2,
      "note": 58,
      "start": 11.0925,
      "duration": 0.1242,
      "velocity": 99,
      "chip": "ym2612"
    },
    {
      "channel": 1,
      "note": 59,
      "start": 11.2369,
      "duration": 0.1296,
      "velocity": 99,
      "chip": "ym2612"
    },
    {
      "channel": 3,
      "note": 47,
      "start": 11.2394,
      "duration": 0.1272,
      "velocity": 89,
      "chip": "ym2612"
    },
    {
      "channel": 5,
      "note": 59,
      "start": 11.3873,
      "duration": 0.1293,
      "velocity": 89,
      "chip": "ym2612"
    },
    {
      "channel": 2,
      "note": 59,
      "start": 11.39,
      "duration": 0.1267,
      "velocity": 99,
      "chip": "ym2612"
    },
    {
      "channel": 1,
      "note": 62,
      "start": 11.5382,
      "duration": 0.1284,
      "velocity": 99,
      "chip": "ym2612"
    },
    {
      "channel": 3,
      "note": 47,
      "start": 11.542,
      "duration": 0.1248,
      "velocity": 89,
      "chip": "ym2612"
    },
    {
      "channel": 5,
      "note": 59,
      "start": 11.7054,
      "duration": 0.1113,
      "velocity": 89,
      "chip": "ym2612"
    },
    {
      "channel": 2,
      "note": 62,
      "start": 11.7081,
      "duration": 0.1087,
      "velocity": 99,
      "chip": "ym2612"
    },
    {
      "channel": 1,
      "note": 58,
      "start": 11.8549,
      "duration": 0.1116,
      "velocity": 99,
      "chip": "ym2612"
    },
    {
      "channel": 3,
      "note": 47,
      "start": 11.8574,
      "duration": 0.1092,
      "velocity": 89,
      "chip": "ym2612"
    },
    {
      "channel": 5,
      "note": 59,
      "start": 12.004,
      "duration": 0.1293,
      "velocity": 89,
      "chip": "ym2612"
    },
    {
      "channel": 2,
      "note": 58,
      "start": 12.008,
      "duration": 0.1254,
      "velocity": 99,
      "chip": "ym2612"
    },
    {
      "channel": 1,
      "note": 59,
      "start": 12.1536,
      "duration": 0.1296,
      "velocity": 99,
      "chip": "ym2612"
    },
    {
      "channel": 3,
      "note": 47,
      "start": 12.1574,
      "duration": 0.1259,
      "velocity": 89,
      "chip": "ym2612"
    },
    {
      "channel": 5,
      "note": 59,
      "start": 12.3053,
      "duration": 0.128,
      "velocity": 89,
      "chip": "ym2612"
    },
    {
      "channel": 2,
      "note": 59,
      "start": 12.308,
      "duration": 0.1254,
      "velocity": 99,
      "chip": "ym2612"
    },
    {
      "channel": 1,
      "note": 62,
      "start": 12.4551,
      "duration": 0.1281,
      "velocity": 99,
      "chip": "ym2612"
    },
    {
      "channel": 3,
      "note": 47,
      "start": 12.4576,
      "duration": 0.1257,
      "velocity": 89,
      "chip": "ym2612"
    },
    {
      "channel": 5,
      "note": 59,
      "start": 12.6041,
      "duration": 0.1293,
      "velocity": 89,
      "chip": "ym2612"
    },
    {
      "channel": 2,
      "note": 62,
      "start": 12.6068,
      "duration": 0.1266,
      "velocity": 99,
      "chip": "ym2612"
    },
    {
      "channel": 1,
      "note": 58,
      "start": 12.7715,
      "duration": 0.1117,
      "velocity": 99,
      "chip": "ym2612"
    },
    {
      "channel": 3,
      "note": 47,
      "start": 12.7754,
      "duration": 0.108,
      "velocity": 89,
      "chip": "ym2612"
    },
    {
      "channel": 5,
      "note": 59,
      "start": 12.9219,
      "duration": 0.1114,
      "velocity": 89,
      "chip": "ym2612"
    },
    {
      "channel": 2,
      "note": 58,
      "start": 12.9259,
      "duration": 0.1075,
      "velocity": 99,
      "chip": "ym2612"
    },
    {
      "channel": 1,
      "note": 59,
      "start": 13.0703,
      "duration": 0.1296,
      "velocity": 99,
      "chip": "ym2612"
    },
    {
      "channel": 3,
      "note": 47,
      "start": 13.0728,
      "duration": 0.1272,
      "velocity": 89,
      "chip": "ym2612"
    },
    {
      "channel": 5,
      "note": 59,
      "start": 13.2207,
      "duration": 0.1293,
      "velocity": 89,
      "chip": "ym2612"
    },
    {
      "channel": 2,
      "note": 59,
      "start": 13.2234,
      "duration": 0.1267,
      "velocity": 99,
      "chip": "ym2612"
    },
    {
      "channel": 1,
      "note": 62,
      "start": 13.3715,
      "duration": 0.1283,
      "velocity": 99,
      "chip": "ym2612"
    },
    {
      "channel": 3,
      "note": 47,
      "start": 13.3754,
      "duration": 0.1247,
      "velocity": 89,
      "chip": "ym2612"
    },
    {
      "channel": 5,
      "note": 59,
      "start": 13.5219,
      "duration": 0.1282,
      "velocity": 89,
      "chip": "ym2612"
    },
    {
      "channel": 2,
      "note": 62,
      "start": 13.5247,
      "duration": 0.1255,
      "velocity": 99,
      "chip": "ym2612"
    },
    {
      "channel": 1,
      "note": 58,
      "start": 13.6715,
      "duration": 0.1283,
      "velocity": 99,
      "chip": "ym2612"
    },
    {
      "channel": 3,
      "note": 47,
      "start": 13.674,
      "duration": 0.1259,
      "velocity": 89,
      "chip": "ym2612"
    },
    {
      "channel": 5,
      "note": 59,
      "start": 13.8371,
      "duration": 0.1128,
      "velocity": 89,
      "chip": "ym2612"
    },
    {
      "channel": 2,
      "note": 58,
      "start": 13.8411,
      "duration": 0.1089,
      "velocity": 99,
      "chip": "ym2612"
    },
    {
      "channel": 1,
      "note": 53,
      "start": 13.9869,
      "duration": 0.1129,
      "velocity": 127,
      "chip": "ym2612"
    },
    {
      "channel": 3,
      "note": 59,
      "start": 13.9915,
      "duration": 0.1085,
      "velocity": 99,
      "chip": "ym2612"
    },
    {
      "channel": 5,
      "note": 47,
      "start": 13.9954,
      "duration": 0.1048,
      "velocity": 89,
      "chip": "ym2612"
    },
    {
      "channel": 1,
      "note": 53,
      "start": 14.1363,
      "duration": 0.1302,
      "velocity": 127,
      "chip": "ym2612"
    },
    {
      "channel": 2,
      "note": 59,
      "start": 14.142,
      "duration": 0.1249,
      "velocity": 89,
      "chip": "ym2612"
    },
    {
      "channel": 3,
      "note": 59,
      "start": 14.1447,
      "duration": 0.1219,
      "velocity": 99,
      "chip": "ym2612"
    },
    {
      "channel": 1,
      "note": 53,
      "start": 14.2864,
      "duration": 0.1301,
      "velocity": 127,
      "chip": "ym2612"
    },
    {
      "channel": 5,
      "note": 62,
      "start": 14.2906,
      "duration": 0.1263,
      "velocity": 99,
      "chip": "ym2612"
    },
    {
      "channel": 3,
      "note": 47,
      "start": 14.2934,
      "duration": 0.1234,
      "velocity": 89,
      "chip": "ym2612"
    },
    {
      "channel": 1,
      "note": 53,
      "start": 14.4368,
      "duration": 0.1299,
      "velocity": 127,
      "chip": "ym2612"
    },
    {
      "channel": 2,
      "note": 59,
      "start": 14.4417,
      "duration": 0.1253,
      "velocity": 89,
      "chip": "ym2612"
    },
    {
      "channel": 0,
      "note": 62,
      "start": 14.4444,
      "duration": 0.1221,
      "velocity": 99,
      "chip": "ym2612"
    },
    {
      "channel": 3,
      "note": 33,
      "start": 14.5925,
      "duration": 0.1242,
      "velocity": 124,
      "chip": "ym2612"
    },
    {
      "channel": 4,
      "note": 47,
      "start": 14.5994,
      "duration": 6.9673,
      "velocity": 106,
      "chip": "ym2612"
    },
    {
      "channel": 5,
      "note": 54,
      "start": 14.6046,
      "duration": 6.9623,
      "velocity": 106,
      "chip": "ym2612"
    },
    {
      "channel": 0,
      "note": 58,
      "start": 14.6086,
      "duration": 0.1078,
      "velocity": 99,
      "chip": "ym2612"
    },
    {
      "channel": 1,
      "note": 47,
      "start": 14.6125,
      "duration": 0.104,
      "velocity": 89,
      "chip": "ym2612"
    },
    {
      "channel": 2,
      "note": 59,
      "start": 14.7394,
      "duration": 0.1274,
      "velocity": 89,
      "chip": "ym2612"
    },
    {
      "channel": 0,
      "note": 58,
      "start": 14.7434,
      "duration": 0.123,
      "velocity": 99,
      "chip": "ym2612"
    },
    {
      "channel": 1,
      "note": 59,
      "start": 14.9058,
      "duration": 0.1106,
      "velocity": 99,
      "chip": "ym2612"
    },
    {
      "channel": 3,
      "note": 47,
      "start": 14.9085,
      "duration": 0.108,
      "velocity": 89,
      "chip": "ym2612"
    },
    {
      "channel": 2,
      "note": 59,
      "start": 15.0557,
      "duration": 0.111,
      "velocity": 89,
      "chip": "ym2612"
    },
    {
      "channel": 0,
      "note": 59,
      "start": 15.0582,
      "duration": 0.1082,
      "velocity": 99,
      "chip": "ym2612"
    },
    {
      "channel": 1,
      "note": 62,
      "start": 15.2053,
      "duration": 0.1278,
      "velocity": 99,
      "chip": "ym2612"
    },
    {
      "channel": 3,
      "note": 47,
      "start": 15.2091,
      "duration": 0.1241,
      "velocity": 89,
      "chip": "ym2612"
    },
    {
      "channel": 2,
      "note": 59,
      "start": 15.3572,
      "duration": 0.1261,
      "velocity": 89,
      "chip": "ym2612"
    },
    {
      "channel": 0,
      "note": 62,
      "start": 15.3597,
      "duration": 0.1233,
      "velocity": 99,
      "chip": "ym2612"
    },
    {
      "channel": 1,
      "note": 53,
      "start": 15.5041,
      "duration": 0.1291,
      "velocity": 127,
      "chip": "ym2612"
    },
    {
      "channel": 3,
      "note": 58,
      "start": 15.511,
      "duration": 0.1224,
      "velocity": 99,
      "chip": "ym2612"
    },
    {
      "channel": 0,
      "note": 47,
      "start": 15.5137,
      "duration": 0.1194,
      "velocity": 89,
      "chip": "ym2612"
    },
    {
      "channel": 2,
      "note": 59,
      "start": 15.6557,
      "duration": 0.1277,
      "velocity": 89,
      "chip": "ym2612"
    },
    {
      "channel": 0,
      "note": 58,
      "start": 15.6597,
      "duration": 0.1234,
      "velocity": 99,
      "chip": "ym2612"
    },
    {
      "channel": 3,
      "note": 59,
      "start": 15.8054,
      "duration": 0.1279,
      "velocity": 99,
      "chip": "ym2612"
    },
    {
      "channel": 1,
      "note": 47,
      "start": 15.8094,
      "duration": 0.1238,
      "velocity": 89,
      "chip": "ym2612"
    },
    {
      "channel": 2,
      "note": 59,
      "start": 15.9736,
      "duration": 0.1098,
      "velocity": 89,
      "chip": "ym2612"
    },
    {
      "channel": 0,
      "note": 59,
      "start": 15.9761,
      "duration": 0.107,
      "velocity": 99,
      "chip": "ym2612"
    },
    {
      "channel": 1,
      "note": 33,
      "start": 16.121,
      "duration": 0.1123,
      "velocity": 124,
      "chip": "ym2612"
    },
    {
      "channel": 3,
      "note": 62,
      "start": 16.1263,
      "duration": 0.1071,
      "velocity": 99,
      "chip": "ym2612"
    },
    {
      "channel": 0,
      "note": 47,
      "start": 16.129,
      "duration": 0.1042,
      "velocity": 89,
      "chip": "ym2612"
    },
    {
      "channel": 2,
      "note": 59,
      "start": 16.2726,
      "duration": 0.1276,
      "velocity": 89,
      "chip": "ym2612"
    },
    {
      "channel": 0,
      "note": 62,
      "start": 16.2753,
      "duration": 0.1245,
      "velocity": 99,
      "chip": "ym2612"
    },
    {
      "channel": 1,
      "note": 66,
      "start": 16.4212,
      "duration": 1.7953,
      "velocity": 86,
      "chip": "ym2612"
    },
    {
      "channel": 3,
      "note": 33,
      "start": 16.4283,
      "duration": 0.1218,
      "velocity": 124,
      "chip": "ym2612"
    },
    {
      "channel": 0,
      "note": 58,
      "start": 16.434,
      "duration": 0.1158,
      "velocity": 99,
      "chip": "ym2612"
    },
    {
      "channel": 2,
      "note": 47,
      "start": 16.438,
      "duration": 0.1123,
      "velocity": 89,
      "chip": "ym2612"
    },
    {
      "channel": 0,
      "note": 59,
      "start": 16.5738,
      "duration": 0.126,
      "velocity": 89,
      "chip": "ym2612"
    },
    {
      "channel": 3,
      "note": 58,
      "start": 16.5777,
      "duration": 0.1223,
      "velocity": 99,
      "chip": "ym2612"
    },
    {
      "channel": 2,
      "note": 59,
      "start": 16.7224,
      "duration": 0.1278,
      "velocity": 99,
      "chip": "ym2612"
    },
    {
      "channel": 0,
      "note": 47,
      "start": 16.7251,
      "duration": 0.1247,
      "velocity": 89,
      "chip": "ym2612"
    },
    {
      "channel": 3,
      "note": 59,
      "start": 16.8724,
      "duration": 0.1277,
      "velocity": 89,
      "chip": "ym2612"
    },
    {
      "channel": 0,
      "note": 59,
      "start": 16.8751,
      "duration": 0.1247,
      "velocity": 99,
      "chip": "ym2612"
    },
    {
      "channel": 2,
      "note": 62,
      "start": 17.0388,
      "duration": 0.1113,
      "velocity": 99,
      "chip": "ym2612"
    },
    {
      "channel": 0,
      "note": 47,
      "start": 17.0428,
      "duration": 0.107,
      "velocity": 89,
      "chip": "ym2612"
    },
    {
      "channel": 3,
      "note": 59,
      "start": 17.1902,
      "duration": 0.1098,
      "velocity": 89,
      "chip": "ym2612"
    },
    {
      "channel": 0,
      "note": 62,
      "start": 17.1929,
      "duration": 0.1069,
      "velocity": 99,
      "chip": "ym2612"
    },
    {
      "channel": 2,
      "note": 53,
      "start": 17.3376,
      "duration": 0.1293,
      "velocity": 127,
      "chip": "ym2612"
    },
    {
      "channel": 0,
      "note": 58,
      "start": 17.3439,
      "duration": 0.1226,
      "velocity": 99,
      "chip": "ym2612"
    },
    {
      "channel": 3,
      "note": 47,
      "start": 17.3466,
      "duration": 0.1201,
      "velocity": 89,
      "chip": "ym2612"
    },
    {
      "channel": 0,
      "note": 59,
      "start": 17.4891,
      "duration": 0.1273,
      "velocity": 89,
      "chip": "ym2612"
    },
    {
      "channel": 3,
      "note": 58,
      "start": 17.493,
      "duration": 0.1235,
      "velocity": 99,
      "chip": "ym2612"
    },
    {
      "channel": 2,
      "note": 59,
      "start": 17.6389,
      "duration": 0.1279,
      "velocity": 99,
      "chip": "ym2612"
    },
    {
      "channel": 0,
      "note": 47,
      "start": 17.6429,
      "duration": 0.1237,
      "velocity": 89,
      "chip": "ym2612"
    },
    {
      "channel": 3,
      "note": 59,
      "start": 17.7903,
      "duration": 0.1263,
      "velocity": 89,
      "chip": "ym2612"
    },
    {
      "channel": 0,
      "note": 59,
      "start": 17.793,
      "duration": 0.1234,
      "velocity": 99,
      "chip": "ym2612"
    },
    {
      "channel": 2,
      "note": 62,
      "start": 17.9392,
      "duration": 0.1276,
      "velocity": 99,
      "chip": "ym2612"
    },
    {
      "channel": 0,
      "note": 47,
      "start": 17.9419,
      "duration": 0.1245,
      "velocity": 89,
      "chip": "ym2612"
    },
    {
      "channel": 3,
      "note": 59,
      "start": 18.1056,
      "duration": 0.1111,
      "velocity": 89,
      "chip": "ym2612"
    },
    {
      "channel": 0,
      "note": 62,
      "start": 18.1083,
      "duration": 0.1081,
      "velocity": 99,
      "chip": "ym2612"
    },
    {
      "channel": 1,
      "note": 65,
      "start": 18.2542,
      "duration": 3.5789,
      "velocity": 86,
      "chip": "ym2612"
    },
    {
      "channel": 2,
      "note": 33,
      "start": 18.2612,
      "duration": 0.1057,
      "velocity": 124,
      "chip": "ym2612"
    },
    {
      "channel": 0,
      "note": 58,
      "start": 18.2669,
      "duration": 0.0996,
      "velocity": 99,
      "chip": "ym2612"
    },
    {
      "channel": 3,
      "note": 47,
      "start": 18.2709,
      "duration": 0.0958,
      "velocity": 89,
      "chip": "ym2612"
    },
    {
      "channel": 0,
      "note": 59,
      "start": 18.407,
      "duration": 0.1261,
      "velocity": 89,
      "chip": "ym2612"
    },
    {
      "channel": 3,
      "note": 58,
      "start": 18.411,
      "duration": 0.1223,
      "velocity": 99,
      "chip": "ym2612"
    },
    {
      "channel": 2,
      "note": 59,
      "start": 18.5556,
      "duration": 0.1279,
      "velocity": 99,
      "chip": "ym2612"
    },
    {
      "channel": 0,
      "note": 47,
      "start": 18.5583,
      "duration": 0.1247,
      "velocity": 89,
      "chip": "ym2612"
    },
    {
      "channel": 3,
      "note": 59,
      "start": 18.7057,
      "duration": 0.1275,
      "velocity": 89,
      "chip": "ym2612"
    },
    {
      "channel": 0,
      "note": 59,
      "start": 18.7084,
      "duration": 0.1246,
      "velocity": 99,
      "chip": "ym2612"
    },
    {
      "channel": 2,
      "note": 62,
      "start": 18.8554,
      "duration": 0.128,
      "velocity": 99,
      "chip": "ym2612"
    },
    {
      "channel": 0,
      "note": 47,
      "start": 18.8593,
      "duration": 0.1237,
      "velocity": 89,
      "chip": "ym2612"
    },
    {
      "channel": 3,
      "note": 59,
      "start": 19.0068,
      "duration": 0.1265,
      "velocity": 89,
      "chip": "ym2612"
    },
    {
      "channel": 0,
      "note": 62,
      "start": 19.0095,
      "duration": 0.1236,
      "velocity": 99,
      "chip": "ym2612"
    },
    {
      "channel": 2,
      "note": 53,
      "start": 19.1709,
      "duration": 0.1127,
      "velocity": 127,
      "chip": "ym2612"
    },
    {
      "channel": 0,
      "note": 58,
      "start": 19.1772,
      "duration": 0.1059,
      "velocity": 99,
      "chip": "ym2612"
    },
    {
      "channel": 3,
      "note": 47,
      "start": 19.1799,
      "duration": 0.1034,
      "velocity": 89,
      "chip": "ym2612"
    },
    {
      "channel": 0,
      "note": 59,
      "start": 19.3227,
      "duration": 0.1103,
      "velocity": 89,
      "chip": "ym2612"
    },
    {
      "channel": 3,
      "note": 58,
      "start": 19.3268,
      "duration": 0.1065,
      "velocity": 99,
      "chip": "ym2612"
    },
    {
      "channel": 2,
      "note": 59,
      "start": 19.4722,
      "duration": 0.1279,
      "velocity": 99,
      "chip": "ym2612"
    },
    {
      "channel": 0,
      "note": 47,
      "start": 19.4762,
      "duration": 0.1237,
      "velocity": 89,
      "chip": "ym2612"
    },
    {
      "channel": 3,
      "note": 59,
      "start": 19.6237,
      "duration": 0.1263,
      "velocity": 89,
      "chip": "ym2612"
    },
    {
      "channel": 0,
      "note": 59,
      "start": 19.6264,
      "duration": 0.1234,
      "velocity": 99,
      "chip": "ym2612"
    },
    {
      "channel": 2,
      "note": 33,
      "start": 19.771,
      "duration": 0.1293,
      "velocity": 124,
      "chip": "ym2612"
    },
    {
      "channel": 0,
      "note": 62,
      "start": 19.7764,
      "duration": 0.1234,
      "velocity": 99,
      "chip": "ym2612"
    },
    {
      "channel": 3,
      "note": 47,
      "start": 19.7791,
      "duration": 0.1209,
      "velocity": 89,
      "chip": "ym2612"
    },
    {
      "channel": 0,
      "note": 59,
      "start": 19.9225,
      "duration": 0.1273,
      "velocity": 89,
      "chip": "ym2612"
    },
    {
      "channel": 3,
      "note": 62,
      "start": 19.9252,
      "duration": 0.1247,
      "velocity": 99,
      "chip": "ym2612"
    },
    {
      "channel": 2,
      "note": 33,
      "start": 20.0738,
      "duration": 0.1265,
      "velocity": 124,
      "chip": "ym2612"
    },
    {
      "channel": 0,
      "note": 58,
      "start": 20.0789,
      "duration": 0.1209,
      "velocity": 99,
      "chip": "ym2612"
    },
    {
      "channel": 3,
      "note": 47,
      "start": 20.0834,
      "duration": 0.1166,
      "velocity": 89,
      "chip": "ym2612"
    },
    {
      "channel": 0,
      "note": 59,
      "start": 20.2404,
      "duration": 0.1095,
      "velocity": 89,
      "chip": "ym2612"
    },
    {
      "channel": 3,
      "note": 58,
      "start": 20.2444,
      "duration": 0.1057,
      "velocity": 99,
      "chip": "ym2612"
    },
    {
      "channel": 2,
      "note": 59,
      "start": 20.3894,
      "duration": 0.1109,
      "velocity": 99,
      "chip": "ym2612"
    },
    {
      "channel": 0,
      "note": 47,
      "start": 20.3921,
      "duration": 0.1078,
      "velocity": 89,
      "chip": "ym2612"
    },
    {
      "channel": 3,
      "note": 59,
      "start": 20.539,
      "duration": 0.1275,
      "velocity": 89,
      "chip": "ym2612"
    },
    {
      "channel": 0,
      "note": 59,
      "start": 20.5418,
      "duration": 0.1246,
      "velocity": 99,
      "chip": "ym2612"
    },
    {
      "channel": 2,
      "note": 62,
      "start": 20.6888,
      "duration": 0.128,
      "velocity": 99,
      "chip": "ym2612"
    },
    {
      "channel": 0,
      "note": 47,
      "start": 20.6928,
      "duration": 0.1237,
      "velocity": 89,
      "chip": "ym2612"
    },
    {
      "channel": 3,
      "note": 59,
      "start": 20.8402,
      "duration": 0.1265,
      "velocity": 89,
      "chip": "ym2612"
    },
    {
      "channel": 0,
      "note": 62,
      "start": 20.8429,
      "duration": 0.1235,
      "velocity": 99,
      "chip": "ym2612"
    },
    {
      "channel": 2,
      "note": 53,
      "start": 20.9876,
      "duration": 0.1293,
      "velocity": 127,
      "chip": "ym2612"
    },
    {
      "channel": 0,
      "note": 58,
      "start": 20.9939,
      "duration": 0.1226,
      "velocity": 99,
      "chip": "ym2612"
    },
    {
      "channel": 3,
      "note": 47,
      "start": 20.9966,
      "duration": 0.1201,
      "velocity": 89,
      "chip": "ym2612"
    },
    {
      "channel": 0,
      "note": 59,
      "start": 21.1391,
      "duration": 0.1273,
      "velocity": 89,
      "chip": "ym2612"
    },
    {
      "channel": 3,
      "note": 58,
      "start": 21.143,
      "duration": 0.1235,
      "velocity": 99,
      "chip": "ym2612"
    },
    {
      "channel": 2,
      "note": 59,
      "start": 21.3056,
      "duration": 0.1112,
      "velocity": 99,
      "chip": "ym2612"
    },
    {
      "channel": 0,
      "note": 47,
      "start": 21.3095,
      "duration": 0.1069,
      "velocity": 89,
      "chip": "ym2612"
    },
    {
      "channel": 3,
      "note": 59,
      "start": 21.4571,
      "duration": 0.1095,
      "velocity": 89,
      "chip": "ym2612"
    },
    {
      "channel": 0,
      "note": 59,
      "start": 21.4598,
      "duration": 0.1066,
      "velocity": 99,
      "chip": "ym2612"
    },
    {
      "channel": 4,
      "note": 47,
      "start": 21.6058,
      "duration": 0.1276,
      "velocity": 106,
      "chip": "ym2612"
    },
    {
      "channel": 5,
      "note": 54,
      "start": 21.6094,
      "duration": 0.1241,
      "velocity": 106,
      "chip": "ym2612"
    },
    {
      "channel": 2,
      "note": 62,
      "start": 21.6121,
      "duration": 0.1214,
      "velocity": 99,
      "chip": "ym2612"
    },
    {
      "channel": 0,
      "note": 47,
      "start": 21.6149,
      "duration": 0.1181,
      "velocity": 89,
      "chip": "ym2612"
    },
    {
      "channel": 4,
      "note": 47,
      "start": 21.7554,
      "duration": 0.1279,
      "velocity": 106,
      "chip": "ym2612"
    },
    {
      "channel": 5,
      "note": 54,
      "start": 21.7583,
      "duration": 0.1251,
      "velocity": 106,
      "chip": "ym2612"
    },
    {
      "channel": 3,
      "note": 59,
      "start": 21.7611,
      "duration": 0.1221,
      "velocity": 89,
      "chip": "ym2612"
    },
    {
      "channel": 0,
      "note": 62,
      "start": 21.7639,
      "duration": 0.1191,
      "velocity": 99,
      "chip": "ym2612"
    },
    {
      "channel": 1,
      "note": 66,
      "start": 21.9046,
      "duration": 5.0286,
      "velocity": 86,
      "chip": "ym2612"
    },
    {
      "channel": 2,
      "note": 33,
      "start": 21.9106,
      "duration": 0.123,
      "velocity": 124,
      "chip": "ym2612"
    },
    {
      "channel": 4,
      "note": 47,
      "start": 21.9156,
      "duration": 7.2176,
      "velocity": 106,
      "chip": "ym2612"
    },
    {
      "channel": 5,
      "note": 54,
      "start": 21.919,
      "duration": 6.9976,
      "velocity": 106,
      "chip": "ym2612"
    },
    {
      "channel": 0,
      "note": 58,
      "start": 21.923,
      "duration": 0.1102,
      "velocity": 99,
      "chip": "ym2612"
    },
    {
      "channel": 3,
      "note": 47,
      "start": 21.927,
      "duration": 0.1064,
      "velocity": 89,
      "chip": "ym2612"
    },
    {
      "channel": 0,
      "note": 59,
      "start": 22.057,
      "duration": 0.1261,
      "velocity": 89,
      "chip": "ym2612"
    },
    {
      "channel": 3,
      "note": 58,
      "start": 22.061,
      "duration": 0.1223,
      "velocity": 99,
      "chip": "ym2612"
    },
    {
      "channel": 2,
      "note": 59,
      "start": 22.2055,
      "duration": 0.1279,
      "velocity": 99,
      "chip": "ym2612"
    },
    {
      "channel": 0,
      "note": 47,
      "start": 22.2083,
      "duration": 0.1248,
      "velocity": 89,
      "chip": "ym2612"
    },
    {
      "channel": 3,
      "note": 59,
      "start": 22.3724,
      "duration": 0.1108,
      "velocity": 89,
      "chip": "ym2612"
    },
    {
      "channel": 0,
      "note": 59,
      "start": 22.3751,
      "duration": 0.1079,
      "velocity": 99,
      "chip": "ym2612"
    },
    {
      "channel": 2,
      "note": 62,
      "start": 22.5222,
      "duration": 0.1112,
      "velocity": 99,
      "chip": "ym2612"
    },
    {
      "channel": 0,
      "note": 47,
      "start": 22.5262,
      "duration": 0.1068,
      "velocity": 89,
      "chip": "ym2612"
    },
    {
      "channel": 3,
      "note": 59,
      "start": 22.6733,
      "duration": 0.1265,
      "velocity": 89,
      "chip": "ym2612"
    },
    {
      "channel": 0,
      "note": 62,
      "start": 22.6761,
      "duration": 0.1236,
      "velocity": 99,
      "chip": "ym2612"
    },
    {
      "channel": 2,
      "note": 53,
      "start": 22.8208,
      "duration": 0.1294,
      "velocity": 127,
      "chip": "ym2612"
    },
    {
      "channel": 0,
      "note": 58,
      "start": 22.8275,
      "duration": 0.1224,
      "velocity": 99,
      "chip": "ym2612"
    },
    {
      "channel": 3,
      "note": 47,
      "start": 22.8301,
      "duration": 0.1199,
      "velocity": 89,
      "chip": "ym2612"
    },
    {
      "channel": 0,
      "note": 59,
      "start": 22.9724,
      "duration": 0.1273,
      "velocity": 89,
      "chip": "ym2612"
    },
    {
      "channel": 3,
      "note": 58,
      "start": 22.9764,
      "duration": 0.1235,
      "velocity": 99,
      "chip": "ym2612"
    },
    {
      "channel": 2,
      "note": 59,
      "start": 23.1222,
      "duration": 0.1279,
      "velocity": 99,
      "chip": "ym2612"
    },
    {
      "channel": 0,
      "note": 47,
      "start": 23.1262,
      "duration": 0.1237,
      "velocity": 89,
      "chip": "ym2612"
    },
    {
      "channel": 3,
      "note": 59,
      "start": 23.2737,
      "duration": 0.1263,
      "velocity": 89,
      "chip": "ym2612"
    },
    {
      "channel": 0,
      "note": 59,
      "start": 23.2764,
      "duration": 0.1234,
      "velocity": 99,
      "chip": "ym2612"
    },
    {
      "channel": 2,
      "note": 33,
      "start": 23.4378,
      "duration": 0.1125,
      "velocity": 124,
      "chip": "ym2612"
    },
    {
      "channel": 0,
      "note": 62,
      "start": 23.4432,
      "duration": 0.1067,
      "velocity": 99,
      "chip": "ym2612"
    },
    {
      "channel": 3,
      "note": 47,
      "start": 23.4459,
      "duration": 0.1042,
      "velocity": 89,
      "chip": "ym2612"
    },
    {
      "channel": 0,
      "note": 59,
      "start": 23.5891,
      "duration": 0.1107,
      "velocity": 89,
      "chip": "ym2612"
    },
    {
      "channel": 3,
      "note": 62,
      "start": 23.5918,
      "duration": 0.1082,
      "velocity": 99,
      "chip": "ym2612"
    },
    {
      "channel": 2,
      "note": 33,
      "start": 23.7394,
      "duration": 0.1275,
      "velocity": 124,
      "chip": "ym2612"
    },
    {
      "channel": 0,
      "note": 58,
      "start": 23.7446,
      "duration": 0.1218,
      "velocity": 99,
      "chip": "ym2612"
    },
    {
      "channel": 3,
      "note": 47,
      "start": 23.7491,
      "duration": 0.1176,
      "velocity": 89,
      "chip": "ym2612"
    },
    {
      "channel": 0,
      "note": 59,
      "start": 23.8902,
      "duration": 0.1263,
      "velocity": 89,
      "chip": "ym2612"
    },
    {
      "channel": 3,
      "note": 58,
      "start": 23.8943,
      "duration": 0.1224,
      "velocity": 99,
      "chip": "ym2612"
    },
    {
      "channel": 2,
      "note": 59,
      "start": 24.0388,
      "duration": 0.1279,
      "velocity": 99,
      "chip": "ym2612"
    },
    {
      "channel": 0,
      "note": 47,
      "start": 24.0416,
      "duration": 0.1249,
      "velocity": 89,
      "chip": "ym2612"
    },
    {
      "channel": 3,
      "note": 59,
      "start": 24.1891,
      "duration": 0.1275,
      "velocity": 89,
      "chip": "ym2612"
    },
    {
      "channel": 0,
      "note": 59,
      "start": 24.1918,
      "duration": 0.1246,
      "velocity": 99,
      "chip": "ym2612"
    },
    {
      "channel": 2,
      "note": 62,
      "start": 24.3388,
      "duration": 0.128,
      "velocity": 99,
      "chip": "ym2612"
    },
    {
      "channel": 0,
      "note": 47,
      "start": 24.3429,
      "duration": 0.1237,
      "velocity": 89,
      "chip": "ym2612"
    },
    {
      "channel": 3,
      "note": 59,
      "start": 24.5068,
      "duration": 0.1099,
      "velocity": 89,
      "chip": "ym2612"
    },
    {
      "channel": 0,
      "note": 62,
      "start": 24.5096,
      "duration": 0.1069,
      "velocity": 99,
      "chip": "ym2612"
    },
    {
      "channel": 2,
      "note": 53,
      "start": 24.6544,
      "duration": 0.1125,
      "velocity": 127,
      "chip": "ym2612"
    },
    {
      "channel": 0,
      "note": 58,
      "start": 24.6607,
      "duration": 0.1058,
      "velocity": 99,
      "chip": "ym2612"
    },
    {
      "channel": 3,
      "note": 47,
      "start": 24.6633,
      "duration": 0.1033,
      "velocity": 89,
      "chip": "ym2612"
    },
    {
      "channel": 0,
      "note": 59,
      "start": 24.8058,
      "duration": 0.1274,
      "velocity": 89,
      "chip": "ym2612"
    },
    {
      "channel": 3,
      "note": 58,
      "start": 24.8098,
      "duration": 0.1236,
      "velocity": 99,
      "chip": "ym2612"
    },
    {
      "channel": 2,
      "note": 59,
      "start": 24.9555,
      "duration": 0.128,
      "velocity": 99,
      "chip": "ym2612"
    },
    {
      "channel": 0,
      "note": 47,
      "start": 24.9595,
      "duration": 0.1237,
      "velocity": 89,
      "chip": "ym2612"
    },
    {
      "channel": 3,
      "note": 59,
      "start": 25.1069,
      "duration": 0.1263,
      "velocity": 89,
      "chip": "ym2612"
    },
    {
      "channel": 0,
      "note": 59,
      "start": 25.1096,
      "duration": 0.1234,
      "velocity": 99,
      "chip": "ym2612"
    },
    {
      "channel": 2,
      "note": 62,
      "start": 25.257,
      "duration": 0.1265,
      "velocity": 99,
      "chip": "ym2612"
    },
    {
      "channel": 0,
      "note": 47,
      "start": 25.2598,
      "duration": 0.1234,
      "velocity": 89,
      "chip": "ym2612"
    },
    {
      "channel": 3,
      "note": 59,
      "start": 25.4056,
      "duration": 0.1277,
      "velocity": 89,
      "chip": "ym2612"
    },
    {
      "channel": 0,
      "note": 62,
      "start": 25.4083,
      "duration": 0.1247,
      "velocity": 99,
      "chip": "ym2612"
    },
    {
      "channel": 2,
      "note": 33,
      "start": 25.572,
      "duration": 0.1116,
      "velocity": 124,
      "chip": "ym2612"
    },
    {
      "channel": 0,
      "note": 58,
      "start": 25.5771,
      "duration": 0.106,
      "velocity": 99,
      "chip": "ym2612"
    },
    {
      "channel": 3,
      "note": 47,
      "start": 25.5811,
      "duration": 0.1022,
      "velocity": 89,
      "chip": "ym2612"
    },
    {
      "channel": 0,
      "note": 59,
      "start": 25.7237,
      "duration": 0.1095,
      "velocity": 89,
      "chip": "ym2612"
    },
    {
      "channel": 3,
      "note": 58,
      "start": 25.7277,
      "duration": 0.1057,
      "velocity": 99,
      "chip": "ym2612"
    },
    {
      "channel": 2,
      "note": 59,
      "start": 25.8722,
      "duration": 0.1279,
      "velocity": 99,
      "chip": "ym2612"
    },
    {
      "channel": 0,
      "note": 47,
      "start": 25.8749,
      "duration": 0.1248,
      "velocity": 89,
      "chip": "ym2612"
    },
    {
      "channel": 3,
      "note": 59,
      "start": 26.0224,
      "duration": 0.1276,
      "velocity": 89,
      "chip": "ym2612"
    },
    {
      "channel": 0,
      "note": 59,
      "start": 26.0252,
      "duration": 0.1247,
      "velocity": 99,
      "chip": "ym2612"
    },
    {
      "channel": 2,
      "note": 62,
      "start": 26.1725,
      "duration": 0.1277,
      "velocity": 99,
      "chip": "ym2612"
    },
    {
      "channel": 0,
      "note": 47,
      "start": 26.1765,
      "duration": 0.1233,
      "velocity": 89,
      "chip": "ym2612"
    },
    {
      "channel": 3,
      "note": 59,
      "start": 26.3236,
      "duration": 0.1263,
      "velocity": 89,
      "chip": "ym2612"
    },
    {
      "channel": 0,
      "note": 62,
      "start": 26.3263,
      "duration": 0.1234,
      "velocity": 99,
      "chip": "ym2612"
    },
    {
      "channel": 2,
      "note": 53,
      "start": 26.471,
      "duration": 0.1292,
      "velocity": 127,
      "chip": "ym2612"
    },
    {
      "channel": 0,
      "note": 58,
      "start": 26.4773,
      "duration": 0.1225,
      "velocity": 99,
      "chip": "ym2612"
    },
    {
      "channel": 3,
      "note": 47,
      "start": 26.48,
      "duration": 0.12,
      "velocity": 89,
      "chip": "ym2612"
    },
    {
      "channel": 0,
      "note": 59,
      "start": 26.6391,
      "duration": 0.1107,
      "velocity": 89,
      "chip": "ym2612"
    },
    {
      "channel": 3,
      "note": 58,
      "start": 26.643,
      "duration": 0.1069,
      "velocity": 99,
      "chip": "ym2612"
    },
    {
      "channel": 2,
      "note": 59,
      "start": 26.7888,
      "duration": 0.1113,
      "velocity": 99,
      "chip": "ym2612"
    },
    {
      "channel": 0,
      "note": 47,
      "start": 26.7928,
      "duration": 0.1069,
      "velocity": 89,
      "chip": "ym2612"
    },
    {
      "channel": 3,
      "note": 59,
      "start": 26.9405,
      "duration": 0.1261,
      "velocity": 89,
      "chip": "ym2612"
    },
    {
      "channel": 0,
      "note": 59,
      "start": 26.9432,
      "duration": 0.1232,
      "velocity": 99,
      "chip": "ym2612"
    },
    {
      "channel": 2,
      "note": 33,
      "start": 27.0877,
      "duration": 0.1292,
      "velocity": 124,
      "chip": "ym2612"
    },
    {
      "channel": 1,
      "note": 62,
      "start": 27.0931,
      "duration": 0.1235,
      "velocity": 99,
      "chip": "ym2612"
    },
    {
      "channel": 0,
      "note": 47,
      "start": 27.0959,
      "duration": 0.1206,
      "velocity": 89,
      "chip": "ym2612"
    },
    {
      "channel": 3,
      "note": 59,
      "start": 27.239,
      "duration": 0.1276,
      "velocity": 89,
      "chip": "ym2612"
    },
    {
      "channel": 0,
      "note": 62,
      "start": 27.2417,
      "duration": 0.1247,
      "velocity": 99,
      "chip": "ym2612"
    },
    {
      "channel": 2,
      "note": 33,
      "start": 27.3894,
      "duration": 0.1275,
      "velocity": 124,
      "chip": "ym2612"
    },
    {
      "channel": 1,
      "note": 58,
      "start": 27.3944,
      "duration": 0.1222,
      "velocity": 99,
      "chip": "ym2612"
    },
    {
      "channel": 0,
      "note": 47,
      "start": 27.3988,
      "duration": 0.1176,
      "velocity": 89,
      "chip": "ym2612"
    },
    {
      "channel": 3,
      "note": 59,
      "start": 27.5401,
      "duration": 0.1266,
      "velocity": 89,
      "chip": "ym2612"
    },
    {
      "channel": 0,
      "note": 58,
      "start": 27.5441,
      "duration": 0.1224,
      "velocity": 99,
      "chip": "ym2612"
    },
    {
      "channel": 1,
      "note": 59,
      "start": 27.7057,
      "duration": 0.1109,
      "velocity": 99,
      "chip": "ym2612"
    },
    {
      "channel": 2,
      "note": 47,
      "start": 27.7085,
      "duration": 0.1083,
      "velocity": 89,
      "chip": "ym2612"
    },
    {
      "channel": 3,
      "note": 59,
      "start": 27.8556,
      "duration": 0.1109,
      "velocity": 89,
      "chip": "ym2612"
    },
    {
      "channel": 0,
      "note": 59,
      "start": 27.858,
      "duration": 0.1083,
      "velocity": 99,
      "chip": "ym2612"
    },
    {
      "channel": 1,
      "note": 62,
      "start": 28.0053,
      "duration": 0.1279,
      "velocity": 99,
      "chip": "ym2612"
    },
    {
      "channel": 2,
      "note": 47,
      "start": 28.0092,
      "duration": 0.1242,
      "velocity": 89,
      "chip": "ym2612"
    },
    {
      "channel": 3,
      "note": 59,
      "start": 28.1568,
      "duration": 0.1266,
      "velocity": 89,
      "chip": "ym2612"
    },
    {
      "channel": 0,
      "note": 62,
      "start": 28.1592,
      "duration": 0.124,
      "velocity": 99,
      "chip": "ym2612"
    },
    {
      "channel": 1,
      "note": 53,
      "start": 28.3043,
      "duration": 0.1289,
      "velocity": 127,
      "chip": "ym2612"
    },
    {
      "channel": 2,
      "note": 58,
      "start": 28.3107,
      "duration": 0.1228,
      "velocity": 99,
      "chip": "ym2612"
    },
    {
      "channel": 0,
      "note": 47,
      "start": 28.3135,
      "duration": 0.1196,
      "velocity": 89,
      "chip": "ym2612"
    },
    {
      "channel": 3,
      "note": 59,
      "start": 28.4556,
      "duration": 0.1277,
      "velocity": 89,
      "chip": "ym2612"
    },
    {
      "channel": 0,
      "note": 58,
      "start": 28.4596,
      "duration": 0.1235,
      "velocity": 99,
      "chip": "ym2612"
    },
    {
      "channel": 1,
      "note": 53,
      "start": 28.6043,
      "duration": 0.1289,
      "velocity": 127,
      "chip": "ym2612"
    },
    {
      "channel": 2,
      "note": 59,
      "start": 28.6095,
      "duration": 0.124,
      "velocity": 99,
      "chip": "ym2612"
    },
    {
      "channel": 0,
      "note": 47,
      "start": 28.6135,
      "duration": 0.1197,
      "velocity": 89,
      "chip": "ym2612"
    },
    {
      "channel": 1,
      "note": 53,
      "start": 28.7705,
      "duration": 0.1127,
      "velocity": 127,
      "chip": "ym2612"
    },
    {
      "channel": 3,
      "note": 59,
      "start": 28.7768,
      "duration": 0.1066,
      "velocity": 89,
      "chip": "ym2612"
    },
    {
      "channel": 0,
      "note": 59,
      "start": 28.7795,
      "duration": 0.1036,
      "velocity": 99,
      "chip": "ym2612"
    },
    {
      "channel": 1,
      "note": 53,
      "start": 28.9206,
      "duration": 0.1127,
      "velocity": 127,
      "chip": "ym2612"
    },
    {
      "channel": 2,
      "note": 62,
      "start": 28.9259,
      "duration": 0.1076,
      "velocity": 99,
      "chip": "ym2612"
    },
    {
      "channel": 0,
      "note": 47,
      "start": 28.9287,
      "duration": 0.1045,
      "velocity": 89,
      "chip": "ym2612"
    },
    {
      "channel": 1,
      "note": 53,
      "start": 29.0705,
      "duration": 0.1293,
      "velocity": 127,
      "chip": "ym2612"
    },
    {
      "channel": 3,
      "note": 59,
      "start": 29.0759,
      "duration": 0.124,
      "velocity": 89,
      "chip": "ym2612"
    },
    {
      "channel": 5,
      "note": 62,
      "start": 29.0787,
      "duration": 0.1215,
      "velocity": 99,
      "chip": "ym2612"
    },
    {
      "channel": 0,
      "note": 33,
      "start": 29.2252,
      "duration": 0.1246,
      "velocity": 124,
      "chip": "ym2612"
    },
    {
      "channel": 4,
      "note": 47,
      "start": 29.2303,
      "duration": 6.9697,
      "velocity": 106,
      "chip": "ym2612"
    },
    {
      "channel": 2,
      "note": 54,
      "start": 29.236,
      "duration": 6.9642,
      "velocity": 106,
      "chip": "ym2612"
    },
    {
      "channel": 1,
      "note": 58,
      "start": 29.2413,
      "duration": 0.1086,
      "velocity": 99,
      "chip": "ym2612"
    },
    {
      "channel": 3,
      "note": 47,
      "start": 29.2466,
      "duration": 0.1035,
      "velocity": 89,
      "chip": "ym2612"
    },
    {
      "channel": 5,
      "note": 59,
      "start": 29.374,
      "duration": 0.126,
      "velocity": 89,
      "chip": "ym2612"
    },
    {
      "channel": 0,
      "note": 58,
      "start": 29.3794,
      "duration": 0.1204,
      "velocity": 99,
      "chip": "ym2612"
    },
    {
      "channel": 1,
      "note": 59,
      "start": 29.5221,
      "duration": 0.1278,
      "velocity": 99,
      "chip": "ym2612"
    },
    {
      "channel": 3,
      "note": 47,
      "start": 29.5263,
      "duration": 0.1237,
      "velocity": 89,
      "chip": "ym2612"
    },
    {
      "channel": 5,
      "note": 59,
      "start": 29.674,
      "duration": 0.126,
      "velocity": 89,
      "chip": "ym2612"
    },
    {
      "channel": 0,
      "note": 59,
      "start": 29.6764,
      "duration": 0.1233,
      "velocity": 99,
      "chip": "ym2612"
    },
    {
      "channel": 1,
      "note": 62,
      "start": 29.8387,
      "duration": 0.1111,
      "velocity": 99,
      "chip": "ym2612"
    },
    {
      "channel": 3,
      "note": 47,
      "start": 29.8424,
      "duration": 0.1074,
      "velocity": 89,
      "chip": "ym2612"
    },
    {
      "channel": 5,
      "note": 59,
      "start": 29.99,
      "duration": 0.1099,
      "velocity": 89,
      "chip": "ym2612"
    },
    {
      "channel": 0,
      "note": 62,
      "start": 29.9925,
      "duration": 0.1071,
      "velocity": 99,
      "chip": "ym2612"
    },
    {
      "channel": 1,
      "note": 53,
      "start": 30.1376,
      "duration": 0.129,
      "velocity": 127,
      "chip": "ym2612"
    },
    {
      "channel": 3,
      "note": 58,
      "start": 30.1445,
      "duration": 0.1222,
      "velocity": 99,
      "chip": "ym2612"
    },
    {
      "channel": 0,
      "note": 47,
      "start": 30.149,
      "duration": 0.1175,
      "velocity": 89,
      "chip": "ym2612"
    },
    {
      "channel": 5,
      "note": 59,
      "start": 30.2903,
      "duration": 0.1264,
      "velocity": 89,
      "chip": "ym2612"
    },
    {
      "channel": 0,
      "note": 58,
      "start": 30.2943,
      "duration": 0.1221,
      "velocity": 99,
      "chip": "ym2612"
    },
    {
      "channel": 3,
      "note": 59,
      "start": 30.439,
      "duration": 0.1276,
      "velocity": 99,
      "chip": "ym2612"
    },
    {
      "channel": 1,
      "note": 47,
      "start": 30.443,
      "duration": 0.1235,
      "velocity": 89,
      "chip": "ym2612"
    },
    {
      "channel": 5,
      "note": 59,
      "start": 30.5902,
      "duration": 0.1266,
      "velocity": 89,
      "chip": "ym2612"
    },
    {
      "channel": 0,
      "note": 59,
      "start": 30.5927,
      "duration": 0.1238,
      "velocity": 99,
      "chip": "ym2612"
    },
    {
      "channel": 1,
      "note": 33,
      "start": 30.7378,
      "duration": 0.129,
      "velocity": 124,
      "chip": "ym2612"
    },
    {
      "channel": 3,
      "note": 62,
      "start": 30.743,
      "duration": 0.1238,
      "velocity": 99,
      "chip": "ym2612"
    },
    {
      "channel": 0,
      "note": 47,
      "start": 30.747,
      "duration": 0.1196,
      "velocity": 89,
      "chip": "ym2612"
    },
    {
      "channel": 5,
      "note": 59,
      "start": 30.907,
      "duration": 0.1097,
      "velocity": 89,
      "chip": "ym2612"
    },
    {
      "channel": 0,
      "note": 62,
      "start": 30.9097,
      "duration": 0.1067,
      "velocity": 99,
      "chip": "ym2612"
    },
    {
      "channel": 1,
      "note": 66,
      "start": 31.0546,
      "duration": 1.7952,
      "velocity": 86,
      "chip": "ym2612"
    },
    {
      "channel": 3,
      "note": 33,
      "start": 31.0614,
      "duration": 0.1054,
      "velocity": 124,
      "chip": "ym2612"
    },
    {
      "channel": 0,
      "note": 58,
      "start": 31.067,
      "duration": 0.0995,
      "velocity": 99,
      "chip": "ym2612"
    },
    {
      "channel": 5,
      "note": 47,
      "start": 31.071,
      "duration": 0.0959,
      "velocity": 89,
      "chip": "ym2612"
    },
    {
      "channel": 0,
      "note": 59,
      "start": 31.207,
      "duration": 0.1261,
      "velocity": 89,
      "chip": "ym2612"
    },
    {
      "channel": 3,
      "note": 58,
      "start": 31.211,
      "duration": 0.1223,
      "velocity": 99,
      "chip": "ym2612"
    },
    {
      "channel": 5,
      "note": 59,
      "start": 31.3556,
      "duration": 0.1279,
      "velocity": 99,
      "chip": "ym2612"
    },
    {
      "channel": 0,
      "note": 47,
      "start": 31.3595,
      "duration": 0.1237,
      "velocity": 89,
      "chip": "ym2612"
    },
    {
      "channel": 3,
      "note": 59,
      "start": 31.507,
      "duration": 0.1263,
      "velocity": 89,
      "chip": "ym2612"
    },
    {
      "channel": 0,
      "note": 59,
      "start": 31.5098,
      "duration": 0.1234,
      "velocity": 99,
      "chip": "ym2612"
    },
    {
      "channel": 5,
      "note": 62,
      "start": 31.6554,
      "duration": 0.128,
      "velocity": 99,
      "chip": "ym2612"
    },
    {
      "channel": 0,
      "note": 47,
      "start": 31.6593,
      "duration": 0.1238,
      "velocity": 89,
      "chip": "ym2612"
    },
    {
      "channel": 3,
      "note": 59,
      "start": 31.8068,
      "duration": 0.1265,
      "velocity": 89,
      "chip": "ym2612"
    },
    {
      "channel": 0,
      "note": 62,
      "start": 31.8095,
      "duration": 0.1236,
      "velocity": 99,
      "chip": "ym2612"
    },
    {
      "channel": 5,
      "note": 53,
      "start": 31.9709,
      "duration": 0.1126,
      "velocity": 127,
      "chip": "ym2612"
    },
    {
      "channel": 0,
      "note": 58,
      "start": 31.9771,
      "duration": 0.106,
      "velocity": 99,
      "chip": "ym2612"
    },
    {
      "channel": 3,
      "note": 47,
      "start": 31.9811,
      "duration": 0.1022,
      "velocity": 89,
      "chip": "ym2612"
    },
    {
      "channel": 0,
      "note": 59,
      "start": 32.1237,
      "duration": 0.1094,
      "velocity": 89,
      "chip": "ym2612"
    },
    {
      "channel": 3,
      "note": 58,
      "start": 32.1276,
      "duration": 0.1056,
      "velocity": 99,
      "chip": "ym2612"
    },
    {
      "channel": 5,
      "note": 59,
      "start": 32.2722,
      "duration": 0.1278,
      "velocity": 99,
      "chip": "ym2612"
    },
    {
      "channel": 0,
      "note": 47,
      "start": 32.2762,
      "duration": 0.1235,
      "velocity": 89,
      "chip": "ym2612"
    },
    {
      "channel": 3,
      "note": 59,
      "start": 32.4237,
      "duration": 0.1263,
      "velocity": 89,
      "chip": "ym2612"
    },
    {
      "channel": 0,
      "note": 59,
      "start": 32.4264,
      "duration": 0.1234,
      "velocity": 99,
      "chip": "ym2612"
    },
    {
      "channel": 5,
      "note": 62,
      "start": 32.5724,
      "duration": 0.1277,
      "velocity": 99,
      "chip": "ym2612"
    },
    {
      "channel": 0,
      "note": 47,
      "start": 32.5764,
      "duration": 0.1234,
      "velocity": 89,
      "chip": "ym2612"
    },
    {
      "channel": 3,
      "note": 59,
      "start": 32.7234,
      "duration": 0.1265,
      "velocity": 89,
      "chip": "ym2612"
    },
    {
      "channel": 0,
      "note": 62,
      "start": 32.7261,
      "duration": 0.1235,
      "velocity": 99,
      "chip": "ym2612"
    },
    {
      "channel": 1,
      "note": 65,
      "start": 32.8709,
      "duration": 3.5788,
      "velocity": 86,
      "chip": "ym2612"
    },
    {
      "channel": 5,
      "note": 33,
      "start": 32.8782,
      "duration": 0.1221,
      "velocity": 124,
      "chip": "ym2612"
    },
    {
      "channel": 0,
      "note": 58,
      "start": 32.8839,
      "duration": 0.116,
      "velocity": 99,
      "chip": "ym2612"
    },
    {
      "channel": 3,
      "note": 47,
      "start": 32.8878,
      "duration": 0.1122,
      "velocity": 89,
      "chip": "ym2612"
    },
    {
      "channel": 0,
      "note": 59,
      "start": 33.0403,
      "duration": 0.1094,
      "velocity": 89,
      "chip": "ym2612"
    },
    {
      "channel": 3,
      "note": 58,
      "start": 33.0443,
      "duration": 0.1056,
      "velocity": 99,
      "chip": "ym2612"
    },
    {
      "channel": 5,
      "note": 59,
      "start": 33.189,
      "duration": 0.1111,
      "velocity": 99,
      "chip": "ym2612"
    },
    {
      "channel": 0,
      "note": 47,
      "start": 33.1929,
      "duration": 0.1068,
      "velocity": 89,
      "chip": "ym2612"
    },
    {
      "channel": 3,
      "note": 59,
      "start": 33.3402,
      "duration": 0.1264,
      "velocity": 89,
      "chip": "ym2612"
    },
    {
      "channel": 0,
      "note": 59,
      "start": 33.3429,
      "duration": 0.1235,
      "velocity": 99,
      "chip": "ym2612"
    },
    {
      "channel": 5,
      "note": 62,
      "start": 33.4887,
      "duration": 0.1279,
      "velocity": 99,
      "chip": "ym2612"
    },
    {
      "channel": 0,
      "note": 47,
      "start": 33.4927,
      "duration": 0.1237,
      "velocity": 89,
      "chip": "ym2612"
    },
    {
      "channel": 3,
      "note": 59,
      "start": 33.64,
      "duration": 0.1265,
      "velocity": 89,
      "chip": "ym2612"
    },
    {
      "channel": 0,
      "note": 62,
      "start": 33.6427,
      "duration": 0.1236,
      "velocity": 99,
      "chip": "ym2612"
    },
    {
      "channel": 5,
      "note": 53,
      "start": 33.7874,
      "duration": 0.1295,
      "velocity": 127,
      "chip": "ym2612"
    },
    {
      "channel": 0,
      "note": 58,
      "start": 33.7937,
      "duration": 0.1228,
      "velocity": 99,
      "chip": "ym2612"
    },
    {
      "channel": 3,
      "note": 47,
      "start": 33.7976,
      "duration": 0.1191,
      "velocity": 89,
      "chip": "ym2612"
    },
    {
      "channel": 0,
      "note": 59,
      "start": 33.9407,
      "duration": 0.1257,
      "velocity": 89,
      "chip": "ym2612"
    },
    {
      "channel": 3,
      "note": 58,
      "start": 33.9446,
      "duration": 0.122,
      "velocity": 99,
      "chip": "ym2612"
    },
    {
      "channel": 5,
      "note": 59,
      "start": 34.1056,
      "duration": 0.1111,
      "velocity": 99,
      "chip": "ym2612"
    },
    {
      "channel": 0,
      "note": 47,
      "start": 34.1095,
      "duration": 0.1069,
      "velocity": 89,
      "chip": "ym2612"
    },
    {
      "channel": 3,
      "note": 59,
      "start": 34.257,
      "duration": 0.1096,
      "velocity": 89,
      "chip": "ym2612"
    },
    {
      "channel": 0,
      "note": 59,
      "start": 34.2598,
      "duration": 0.1067,
      "velocity": 99,
      "chip": "ym2612"
    },
    {
      "channel": 5,
      "note": 33,
      "start": 34.4044,
      "duration": 0.1293,
      "velocity": 124,
      "chip": "ym2612"
    },
    {
      "channel": 0,
      "note": 62,
      "start": 34.4101,
      "duration": 0.1232,
      "velocity": 99,
      "chip": "ym2612"
    },
    {
      "channel": 3,
      "note": 47,
      "start": 34.414,
      "duration": 0.1194,
      "velocity": 89,
      "chip": "ym2612"
    },
    {
      "channel": 0,
      "note": 59,
      "start": 34.557,
      "duration": 0.1261,
      "velocity": 89,
      "chip": "ym2612"
    },
    {
      "channel": 3,
      "note": 62,
      "start": 34.5597,
      "duration": 0.1235,
      "velocity": 99,
      "chip": "ym2612"
    },
    {
      "channel": 5,
      "note": 33,
      "start": 34.7069,
      "duration": 0.1266,
      "velocity": 124,
      "chip": "ym2612"
    },
    {
      "channel": 0,
      "note": 58,
      "start": 34.7121,
      "duration": 0.121,
      "velocity": 99,
      "chip": "ym2612"
    },
    {
      "channel": 3,
      "note": 47,
      "start": 34.7166,
      "duration": 0.1168,
      "velocity": 89,
      "chip": "ym2612"
    },
    {
      "channel": 0,
      "note": 59,
      "start": 34.857,
      "duration": 0.1262,
      "velocity": 89,
      "chip": "ym2612"
    },
    {
      "channel": 3,
      "note": 58,
      "start": 34.8609,
      "duration": 0.1224,
      "velocity": 99,
      "chip": "ym2612"
    },
    {
      "channel": 5,
      "note": 59,
      "start": 35.0059,
      "duration": 0.1275,
      "velocity": 99,
      "chip": "ym2612"
    },
    {
      "channel": 0,
      "note": 47,
      "start": 35.0098,
      "duration": 0.1232,
      "velocity": 89,
      "chip": "ym2612"
    },
    {
      "channel": 3,
      "note": 59,
      "start": 35.1737,
      "duration": 0.1097,
      "velocity": 89,
      "chip": "ym2612"
    },
    {
      "channel": 0,
      "note": 59,
      "start": 35.1764,
      "duration": 0.1067,
      "velocity": 99,
      "chip": "ym2612"
    },
    {
      "channel": 5,
      "note": 62,
      "start": 35.3222,
      "duration": 0.1112,
      "velocity": 99,
      "chip": "ym2612"
    },
    {
      "channel": 0,
      "note": 47,
      "start": 35.3261,
      "duration": 0.1069,
      "velocity": 89,
      "chip": "ym2612"
    },
    {
      "channel": 3,
      "note": 59,
      "start": 35.4734,
      "duration": 0.1265,
      "velocity": 89,
      "chip": "ym2612"
    },
    {
      "channel": 0,
      "note": 62,
      "start": 35.4762,
      "duration": 0.1236,
      "velocity": 99,
      "chip": "ym2612"
    },
    {
      "channel": 5,
      "note": 53,
      "start": 35.621,
      "duration": 0.1293,
      "velocity": 127,
      "chip": "ym2612"
    },
    {
      "channel": 0,
      "note": 58,
      "start": 35.6272,
      "duration": 0.1226,
      "velocity": 99,
      "chip": "ym2612"
    },
    {
      "channel": 3,
      "note": 47,
      "start": 35.6312,
      "duration": 0.1189,
      "velocity": 89,
      "chip": "ym2612"
    },
    {
      "channel": 0,
      "note": 59,
      "start": 35.7737,
      "duration": 0.1261,
      "velocity": 89,
      "chip": "ym2612"
    },
    {
      "channel": 3,
      "note": 58,
      "start": 35.7776,
      "duration": 0.1223,
      "velocity": 99,
      "chip": "ym2612"
    },
    {
      "channel": 5,
      "note": 59,
      "start": 35.9222,
      "duration": 0.1279,
      "velocity": 99,
      "chip": "ym2612"
    },
    {
      "channel": 0,
      "note": 47,
      "start": 35.9262,
      "duration": 0.1236,
      "velocity": 89,
      "chip": "ym2612"
    },
    {
      "channel": 3,
      "note": 59,
      "start": 36.0736,
      "duration": 0.1263,
      "velocity": 89,
      "chip": "ym2612"
    },
    {
      "channel": 0,
      "note": 59,
      "start": 36.0763,
      "duration": 0.1234,
      "velocity": 99,
      "chip": "ym2612"
    },
    {
      "channel": 4,
      "note": 47,
      "start": 36.2391,
      "duration": 0.1109,
      "velocity": 106,
      "chip": "ym2612"
    },
    {
      "channel": 2,
      "note": 54,
      "start": 36.2425,
      "duration": 0.1078,
      "velocity": 106,
      "chip": "ym2612"
    },
    {
      "channel": 5,
      "note": 62,
      "start": 36.2451,
      "duration": 0.105,
      "velocity": 99,
      "chip": "ym2612"
    },
    {
      "channel": 0,
      "note": 47,
      "start": 36.2496,
      "duration": 0.1001,
      "velocity": 89,
      "chip": "ym2612"
    },
    {
      "channel": 4,
      "note": 47,
      "start": 36.3888,
      "duration": 0.1112,
      "velocity": 106,
      "chip": "ym2612"
    },
    {
      "channel": 2,
      "note": 54,
      "start": 36.3918,
      "duration": 0.1084,
      "velocity": 106,
      "chip": "ym2612"
    },
    {
      "channel": 3,
      "note": 59,
      "start": 36.3958,
      "duration": 0.1041,
      "velocity": 89,
      "chip": "ym2612"
    },
    {
      "channel": 0,
      "note": 62,
      "start": 36.399,
      "duration": 0.1006,
      "velocity": 99,
      "chip": "ym2612"
    },
    {
      "channel": 1,
      "note": 66,
      "start": 36.5378,
      "duration": 5.0287,
      "velocity": 86,
      "chip": "ym2612"
    },
    {
      "channel": 5,
      "note": 33,
      "start": 36.5439,
      "duration": 0.123,
      "velocity": 124,
      "chip": "ym2612"
    },
    {
      "channel": 4,
      "note": 47,
      "start": 36.5493,
      "duration": 7.2173,
      "velocity": 106,
      "chip": "ym2612"
    },
    {
      "channel": 2,
      "note": 54,
      "start": 36.5528,
      "duration": 6.9807,
      "velocity": 106,
      "chip": "ym2612"
    },
    {
      "channel": 0,
      "note": 58,
      "start": 36.5567,
      "duration": 0.1098,
      "velocity": 99,
      "chip": "ym2612"
    },
    {
      "channel": 3,
      "note": 47,
      "start": 36.5607,
      "duration": 0.1061,
      "velocity": 89,
      "chip": "ym2612"
    },
    {
      "channel": 0,
      "note": 59,
      "start": 36.6903,
      "duration": 0.1262,
      "velocity": 89,
      "chip": "ym2612"
    },
    {
      "channel": 3,
      "note": 58,
      "start": 36.6943,
      "duration": 0.1224,
      "velocity": 99,
      "chip": "ym2612"
    },
    {
      "channel": 5,
      "note": 59,
      "start": 36.8388,
      "duration": 0.1279,
      "velocity": 99,
      "chip": "ym2612"
    },
    {
      "channel": 0,
      "note": 47,
      "start": 36.8428,
      "duration": 0.1236,
      "velocity": 89,
      "chip": "ym2612"
    },
    {
      "channel": 3,
      "note": 59,
      "start": 36.9902,
      "duration": 0.1263,
      "velocity": 89,
      "chip": "ym2612"
    },
    {
      "channel": 0,
      "note": 59,
      "start": 36.993,
      "duration": 0.1234,
      "velocity": 99,
      "chip": "ym2612"
    },
    {
      "channel": 5,
      "note": 62,
      "start": 37.1387,
      "duration": 0.128,
      "velocity": 99,
      "chip": "ym2612"
    },
    {
      "channel": 0,
      "note": 47,
      "start": 37.1426,
      "duration": 0.1238,
      "velocity": 89,
      "chip": "ym2612"
    },
    {
      "channel": 3,
      "note": 59,
      "start": 37.3067,
      "duration": 0.1098,
      "velocity": 89,
      "chip": "ym2612"
    },
    {
      "channel": 0,
      "note": 62,
      "start": 37.3094,
      "duration": 0.1069,
      "velocity": 99,
      "chip": "ym2612"
    },
    {
      "channel": 5,
      "note": 53,
      "start": 37.4543,
      "duration": 0.1125,
      "velocity": 127,
      "chip": "ym2612"
    },
    {
      "channel": 0,
      "note": 58,
      "start": 37.4609,
      "duration": 0.1055,
      "velocity": 99,
      "chip": "ym2612"
    },
    {
      "channel": 3,
      "note": 47,
      "start": 37.4649,
      "duration": 0.1017,
      "velocity": 89,
      "chip": "ym2612"
    },
    {
      "channel": 0,
      "note": 59,
      "start": 37.6069,
      "duration": 0.1263,
      "velocity": 89,
      "chip": "ym2612"
    },
    {
      "channel": 3,
      "note": 58,
      "start": 37.6109,
      "duration": 0.1225,
      "velocity": 99,
      "chip": "ym2612"
    },
    {
      "channel": 5,
      "note": 59,
      "start": 37.7554,
      "duration": 0.1279,
      "velocity": 99,
      "chip": "ym2612"
    },
    {
      "channel": 0,
      "note": 47,
      "start": 37.7595,
      "duration": 0.1236,
      "velocity": 89,
      "chip": "ym2612"
    },
    {
      "channel": 3,
      "note": 59,
      "start": 37.907,
      "duration": 0.1264,
      "velocity": 89,
      "chip": "ym2612"
    },
    {
      "channel": 0,
      "note": 59,
      "start": 37.9097,
      "duration": 0.1235,
      "velocity": 99,
      "chip": "ym2612"
    },
    {
      "channel": 5,
      "note": 33,
      "start": 38.0544,
      "duration": 0.1292,
      "velocity": 124,
      "chip": "ym2612"
    },
    {
      "channel": 0,
      "note": 62,
      "start": 38.0598,
      "duration": 0.1234,
      "velocity": 99,
      "chip": "ym2612"
    },
    {
      "channel": 3,
      "note": 47,
      "start": 38.0637,
      "duration": 0.1197,
      "velocity": 89,
      "chip": "ym2612"
    },
    {
      "channel": 0,
      "note": 59,
      "start": 38.2071,
      "duration": 0.126,
      "velocity": 89,
      "chip": "ym2612"
    },
    {
      "channel": 3,
      "note": 62,
      "start": 38.2098,
      "duration": 0.1234,
      "velocity": 99,
      "chip": "ym2612"
    },
    {
      "channel": 5,
      "note": 33,
      "start": 38.3724,
      "duration": 0.1112,
      "velocity": 124,
      "chip": "ym2612"
    },
    {
      "channel": 0,
      "note": 58,
      "start": 38.3775,
      "duration": 0.1056,
      "velocity": 99,
      "chip": "ym2612"
    },
    {
      "channel": 3,
      "note": 47,
      "start": 38.3815,
      "duration": 0.1019,
      "velocity": 89,
      "chip": "ym2612"
    },
    {
      "channel": 0,
      "note": 59,
      "start": 38.5237,
      "duration": 0.1095,
      "velocity": 89,
      "chip": "ym2612"
    },
    {
      "channel": 3,
      "note": 58,
      "start": 38.5276,
      "duration": 0.1058,
      "velocity": 99,
      "chip": "ym2612"
    },
    {
      "channel": 5,
      "note": 59,
      "start": 38.6723,
      "duration": 0.1278,
      "velocity": 99,
      "chip": "ym2612"
    },
    {
      "channel": 0,
      "note": 47,
      "start": 38.6763,
      "duration": 0.1236,
      "velocity": 89,
      "chip": "ym2612"
    },
    {
      "channel": 3,
      "note": 59,
      "start": 38.8237,
      "duration": 0.1263,
      "velocity": 89,
      "chip": "ym2612"
    },
    {
      "channel": 0,
      "note": 59,
      "start": 38.8264,
      "duration": 0.1234,
      "velocity": 99,
      "chip": "ym2612"
    },
    {
      "channel": 5,
      "note": 62,
      "start": 38.9721,
      "duration": 0.128,
      "velocity": 99,
      "chip": "ym2612"
    },
    {
      "channel": 0,
      "note": 47,
      "start": 38.976,
      "duration": 0.1238,
      "velocity": 89,
      "chip": "ym2612"
    },
    {
      "channel": 3,
      "note": 59,
      "start": 39.1234,
      "duration": 0.1265,
      "velocity": 89,
      "chip": "ym2612"
    },
    {
      "channel": 0,
      "note": 62,
      "start": 39.1262,
      "duration": 0.1235,
      "velocity": 99,
      "chip": "ym2612"
    },
    {
      "channel": 5,
      "note": 53,
      "start": 39.2709,
      "duration": 0.1292,
      "velocity": 127,
      "chip": "ym2612"
    },
    {
      "channel": 0,
      "note": 58,
      "start": 39.2771,
      "duration": 0.1226,
      "velocity": 99,
      "chip": "ym2612"
    },
    {
      "channel": 3,
      "note": 47,
      "start": 39.2811,
      "duration": 0.1188,
      "velocity": 89,
      "chip": "ym2612"
    },
    {
      "channel": 0,
      "note": 59,
      "start": 39.4402,
      "duration": 0.1095,
      "velocity": 89,
      "chip": "ym2612"
    },
    {
      "channel": 3,
      "note": 58,
      "start": 39.4442,
      "duration": 0.1058,
      "velocity": 99,
      "chip": "ym2612"
    },
    {
      "channel": 5,
      "note": 59,
      "start": 39.5888,
      "duration": 0.1111,
      "velocity": 99,
      "chip": "ym2612"
    },
    {
      "channel": 0,
      "note": 47,
      "start": 39.5928,
      "duration": 0.1069,
      "velocity": 89,
      "chip": "ym2612"
    },
    {
      "channel": 3,
      "note": 59,
      "start": 39.7403,
      "duration": 0.1264,
      "velocity": 89,
      "chip": "ym2612"
    },
    {
      "channel": 0,
      "note": 59,
      "start": 39.743,
      "duration": 0.1235,
      "velocity": 99,
      "chip": "ym2612"
    },
    {
      "channel": 5,
      "note": 62,
      "start": 39.8906,
      "duration": 0.1262,
      "velocity": 99,
      "chip": "ym2612"
    },
    {
      "channel": 0,
      "note": 47,
      "start": 39.8946,
      "duration": 0.1219,
      "velocity": 89,
      "chip": "ym2612"
    },
    {
      "channel": 3,
      "note": 59,
      "start": 40.0401,
      "duration": 0.1266,
      "velocity": 89,
      "chip": "ym2612"
    },
    {
      "channel": 0,
      "note": 62,
      "start": 40.0429,
      "duration": 0.1237,
      "velocity": 99,
      "chip": "ym2612"
    },
    {
      "channel": 5,
      "note": 33,
      "start": 40.1887,
      "duration": 0.1282,
      "velocity": 124,
      "chip": "ym2612"
    },
    {
      "channel": 0,
      "note": 58,
      "start": 40.1938,
      "duration": 0.1227,
      "velocity": 99,
      "chip": "ym2612"
    },
    {
      "channel": 3,
      "note": 47,
      "start": 40.1978,
      "duration": 0.119,
      "velocity": 89,
      "chip": "ym2612"
    },
    {
      "channel": 0,
      "note": 59,
      "start": 40.3404,
      "duration": 0.1261,
      "velocity": 89,
      "chip": "ym2612"
    },
    {
      "channel": 3,
      "note": 58,
      "start": 40.3443,
      "duration": 0.1224,
      "velocity": 99,
      "chip": "ym2612"
    },
    {
      "channel": 5,
      "note": 59,
      "start": 40.5056,
      "duration": 0.1111,
      "velocity": 99,
      "chip": "ym2612"
    },
    {
      "channel": 0,
      "note": 47,
      "start": 40.5096,
      "duration": 0.1069,
      "velocity": 89,
      "chip": "ym2612"
    },
    {
      "channel": 3,
      "note": 59,
      "start": 40.657,
      "duration": 0.1097,
      "velocity": 89,
      "chip": "ym2612"
    },
    {
      "channel": 0,
      "note": 59,
      "start": 40.6598,
      "duration": 0.1067,
      "velocity": 99,
      "chip": "ym2612"
    },
    {
      "channel": 5,
      "note": 62,
      "start": 40.8059,
      "duration": 0.1276,
      "velocity": 99,
      "chip": "ym2612"
    },
    {
      "channel": 0,
      "note": 47,
      "start": 40.8098,
      "duration": 0.1233,
      "velocity": 89,
      "chip": "ym2612"
    },
    {
      "channel": 3,
      "note": 59,
      "start": 40.9568,
      "duration": 0.1264,
      "velocity": 89,
      "chip": "ym2612"
    },
    {
      "channel": 0,
      "note": 62,
      "start": 40.9596,
      "duration": 0.1235,
      "velocity": 99,
      "chip": "ym2612"
    },
    {
      "channel": 5,
      "note": 53,
      "start": 41.1042,
      "duration": 0.1292,
      "velocity": 127,
      "chip": "ym2612"
    },
    {
      "channel": 0,
      "note": 58,
      "start": 41.1105,
      "duration": 0.1226,
      "velocity": 99,
      "chip": "ym2612"
    },
    {
      "channel": 3,
      "note": 47,
      "start": 41.1144,
      "duration": 0.1188,
      "velocity": 89,
      "chip": "ym2612"
    },
    {
      "channel": 0,
      "note": 59,
      "start": 41.257,
      "duration": 0.1261,
      "velocity": 89,
      "chip": "ym2612"
    },
    {
      "channel": 3,
      "note": 58,
      "start": 41.261,
      "duration": 0.1224,
      "velocity": 99,
      "chip": "ym2612"
    },
    {
      "channel": 5,
      "note": 59,
      "start": 41.4055,
      "duration": 0.1279,
      "velocity": 99,
      "chip": "ym2612"
    },
    {
      "channel": 0,
      "note": 47,
      "start": 41.4095,
      "duration": 0.1236,
      "velocity": 89,
      "chip": "ym2612"
    },
    {
      "channel": 3,
      "note": 59,
      "start": 41.5738,
      "duration": 0.1095,
      "velocity": 89,
      "chip": "ym2612"
    },
    {
      "channel": 0,
      "note": 59,
      "start": 41.5765,
      "duration": 0.1066,
      "velocity": 99,
      "chip": "ym2612"
    },
    {
      "channel": 5,
      "note": 33,
      "start": 41.7215,
      "duration": 0.1122,
      "velocity": 124,
      "chip": "ym2612"
    },
    {
      "channel": 1,
      "note": 62,
      "start": 41.7269,
      "duration": 0.1065,
      "velocity": 99,
      "chip": "ym2612"
    },
    {
      "channel": 0,
      "note": 47,
      "start": 41.7308,
      "duration": 0.1024,
      "velocity": 89,
      "chip": "ym2612"
    },
    {
      "channel": 3,
      "note": 59,
      "start": 41.8735,
      "duration": 0.1265,
      "velocity": 89,
      "chip": "ym2612"
    },
    {
      "channel": 0,
      "note": 62,
      "start": 41.8763,
      "duration": 0.1235,
      "velocity": 99,
      "chip": "ym2612"
    },
    {
      "channel": 5,
      "note": 33,
      "start": 42.0223,
      "duration": 0.1278,
      "velocity": 124,
      "chip": "ym2612"
    },
    {
      "channel": 1,
      "note": 58,
      "start": 42.0273,
      "duration": 0.1226,
      "velocity": 99,
      "chip": "ym2612"
    },
    {
      "channel": 0,
      "note": 47,
      "start": 42.0312,
      "duration": 0.1186,
      "velocity": 89,
      "chip": "ym2612"
    },
    {
      "channel": 3,
      "note": 59,
      "start": 42.1734,
      "duration": 0.1265,
      "velocity": 89,
      "chip": "ym2612"
    },
    {
      "channel": 0,
      "note": 58,
      "start": 42.1774,
      "duration": 0.1223,
      "velocity": 99,
      "chip": "ym2612"
    },
    {
      "channel": 1,
      "note": 59,
      "start": 42.3223,
      "duration": 0.1275,
      "velocity": 99,
      "chip": "ym2612"
    },
    {
      "channel": 5,
      "note": 47,
      "start": 42.3263,
      "duration": 0.1237,
      "velocity": 89,
      "chip": "ym2612"
    },
    {
      "channel": 3,
      "note": 59,
      "start": 42.4734,
      "duration": 0.1266,
      "velocity": 89,
      "chip": "ym2612"
    },
    {
      "channel": 0,
      "note": 59,
      "start": 42.4759,
      "duration": 0.1239,
      "velocity": 99,
      "chip": "ym2612"
    },
    {
      "channel": 1,
      "note": 62,
      "start": 42.6387,
      "duration": 0.1111,
      "velocity": 99,
      "chip": "ym2612"
    },
    {
      "channel": 5,
      "note": 47,
      "start": 42.6425,
      "duration": 0.1075,
      "velocity": 89,
      "chip": "ym2612"
    },
    {
      "channel": 3,
      "note": 59,
      "start": 42.7902,
      "duration": 0.1099,
      "velocity": 89,
      "chip": "ym2612"
    },
    {
      "channel": 0,
      "note": 62,
      "start": 42.7927,
      "duration": 0.1072,
      "velocity": 99,
      "chip": "ym2612"
    },
    {
      "channel": 1,
      "note": 53,
      "start": 42.938,
      "duration": 0.1285,
      "velocity": 127,
      "chip": "ym2612"
    },
    {
      "channel": 5,
      "note": 58,
      "start": 42.9444,
      "duration": 0.1223,
      "velocity": 99,
      "chip": "ym2612"
    },
    {
      "channel": 0,
      "note": 47,
      "start": 42.9489,
      "duration": 0.1176,
      "velocity": 89,
      "chip": "ym2612"
    },
    {
      "channel": 3,
      "note": 59,
      "start": 43.0902,
      "duration": 0.1265,
      "velocity": 89,
      "chip": "ym2612"
    },
    {
      "channel": 0,
      "note": 58,
      "start": 43.0942,
      "duration": 0.1223,
      "velocity": 99,
      "chip": "ym2612"
    },
    {
      "channel": 1,
      "note": 53,
      "start": 43.2376,
      "duration": 0.129,
      "velocity": 127,
      "chip": "ym2612"
    },
    {
      "channel": 5,
      "note": 59,
      "start": 43.2427,
      "duration": 0.1242,
      "velocity": 99,
      "chip": "ym2612"
    },
    {
      "channel": 0,
      "note": 47,
      "start": 43.2467,
      "duration": 0.1198,
      "velocity": 89,
      "chip": "ym2612"
    },
    {
      "channel": 1,
      "note": 53,
      "start": 43.3872,
      "duration": 0.1294,
      "velocity": 127,
      "chip": "ym2612"
    },
    {
      "channel": 3,
      "note": 59,
      "start": 43.3939,
      "duration": 0.1228,
      "velocity": 89,
      "chip": "ym2612"
    },
    {
      "channel": 0,
      "note": 59,
      "start": 43.3966,
      "duration": 0.1199,
      "velocity": 99,
      "chip": "ym2612"
    },
    {
      "channel": 1,
      "note": 53,
      "start": 43.5374,
      "duration": 0.1291,
      "velocity": 127,
      "chip": "ym2612"
    },
    {
      "channel": 5,
      "note": 62,
      "start": 43.5423,
      "duration": 0.1245,
      "velocity": 99,
      "chip": "ym2612"
    },
    {
      "channel": 0,
      "note": 47,
      "start": 43.5462,
      "duration": 0.1202,
      "velocity": 89,
      "chip": "ym2612"
    },
    {
      "channel": 1,
      "note": 53,
      "start": 43.7038,
      "duration": 0.1127,
      "velocity": 127,
      "chip": "ym2612"
    },
    {
      "channel": 3,
      "note": 59,
      "start": 43.7104,
      "duration": 0.1062,
      "velocity": 89,
      "chip": "ym2612"
    },
    {
      "channel": 2,
      "note": 62,
      "start": 43.7132,
      "duration": 0.1036,
      "velocity": 99,
      "chip": "ym2612"
    },
    {
      "channel": 0,
      "note": 33,
      "start": 43.857,
      "duration": 0.1094,
      "velocity": 124,
      "chip": "ym2612"
    },
    {
      "channel": 4,
      "note": 49,
      "start": 43.8606,
      "duration": 6.9728,
      "velocity": 106,
      "chip": "ym2612"
    },
    {
      "channel": 5,
      "note": 56,
      "start": 43.864,
      "duration": 6.9695,
      "velocity": 106,
      "chip": "ym2612"
    },
    {
      "channel": 1,
      "note": 59,
      "start": 43.8693,
      "duration": 0.0972,
      "velocity": 99,
      "chip": "ym2612"
    },
    {
      "channel": 3,
      "note": 49,
      "start": 43.8735,
      "duration": 0.0932,
      "velocity": 89,
      "chip": "ym2612"
    },
    {
      "channel": 2,
      "note": 61,
      "start": 44.0064,
      "duration": 0.127,
      "velocity": 89,
      "chip": "ym2612"
    },
    {
      "channel": 0,
      "note": 56,
      "start": 44.0111,
      "duration": 0.122,
      "velocity": 99,
      "chip": "ym2612"
    },
    {
      "channel": 1,
      "note": 61,
      "start": 44.1553,
      "duration": 0.1278,
      "velocity": 99,
      "chip": "ym2612"
    },
    {
      "channel": 3,
      "note": 49,
      "start": 44.1598,
      "duration": 0.1234,
      "velocity": 89,
      "chip": "ym2612"
    },
    {
      "channel": 2,
      "note": 61,
      "start": 44.308,
      "duration": 0.1254,
      "velocity": 89,
      "chip": "ym2612"
    },
    {
      "channel": 0,
      "note": 59,
      "start": 44.3105,
      "duration": 0.1225,
      "velocity": 99,
      "chip": "ym2612"
    },
    {
      "channel": 1,
      "note": 64,
      "start": 44.4553,
      "duration": 0.1278,
      "velocity": 99,
      "chip": "ym2612"
    },
    {
      "channel": 3,
      "note": 49,
      "start": 44.4591,
      "duration": 0.1241,
      "velocity": 89,
      "chip": "ym2612"
    },
    {
      "channel": 2,
      "note": 61,
      "start": 44.6068,
      "duration": 0.1267,
      "velocity": 89,
      "chip": "ym2612"
    },
    {
      "channel": 0,
      "note": 64,
      "start": 44.6093,
      "duration": 0.1238,
      "velocity": 99,
      "chip": "ym2612"
    },
    {
      "channel": 1,
      "note": 53,
      "start": 44.7708,
      "duration": 0.1124,
      "velocity": 127,
      "chip": "ym2612"
    },
    {
      "channel": 3,
      "note": 59,
      "start": 44.7781,
      "duration": 0.1053,
      "velocity": 99,
      "chip": "ym2612"
    },
    {
      "channel": 0,
      "note": 49,
      "start": 44.7826,
      "duration": 0.1005,
      "velocity": 89,
      "chip": "ym2612"
    },
    {
      "channel": 2,
      "note": 61,
      "start": 44.9237,
      "duration": 0.1098,
      "velocity": 89,
      "chip": "ym2612"
    },
    {
      "channel": 0,
      "note": 56,
      "start": 44.928,
      "duration": 0.1051,
      "velocity": 99,
      "chip": "ym2612"
    },
    {
      "channel": 3,
      "note": 61,
      "start": 45.0721,
      "duration": 0.1278,
      "velocity": 99,
      "chip": "ym2612"
    },
    {
      "channel": 1,
      "note": 49,
      "start": 45.076,
      "duration": 0.1238,
      "velocity": 89,
      "chip": "ym2612"
    },
    {
      "channel": 2,
      "note": 61,
      "start": 45.2236,
      "duration": 0.1265,
      "velocity": 89,
      "chip": "ym2612"
    },
    {
      "channel": 0,
      "note": 59,
      "start": 45.2261,
      "duration": 0.1237,
      "velocity": 99,
      "chip": "ym2612"
    },
    {
      "channel": 1,
      "note": 33,
      "start": 45.371,
      "duration": 0.1289,
      "velocity": 124,
      "chip": "ym2612"
    },
    {
      "channel": 3,
      "note": 64,
      "start": 45.3763,
      "duration": 0.1238,
      "velocity": 99,
      "chip": "ym2612"
    },
    {
      "channel": 0,
      "note": 49,
      "start": 45.3802,
      "duration": 0.1196,
      "velocity": 89,
      "chip": "ym2612"
    },
    {
      "channel": 2,
      "note": 61,
      "start": 45.5237,
      "duration": 0.1264,
      "velocity": 89,
      "chip": "ym2612"
    },
    {
      "channel": 0,
      "note": 64,
      "start": 45.5264,
      "duration": 0.1234,
      "velocity": 99,
      "chip": "ym2612"
    },
    {
      "channel": 1,
      "note": 68,
      "start": 45.6712,
      "duration": 1.8121,
      "velocity": 86,
      "chip": "ym2612"
    },
    {
      "channel": 3,
      "note": 33,
      "start": 45.6787,
      "duration": 0.1213,
      "velocity": 124,
      "chip": "ym2612"
    },
    {
      "channel": 0,
      "note": 59,
      "start": 45.6845,
      "duration": 0.1154,
      "velocity": 99,
      "chip": "ym2612"
    },
    {
      "channel": 2,
      "note": 49,
      "start": 45.6885,
      "duration": 0.1118,
      "velocity": 89,
      "chip": "ym2612"
    },
    {
      "channel": 0,
      "note": 61,
      "start": 45.8404,
      "duration": 0.1095,
      "velocity": 89,
      "chip": "ym2612"
    },
    {
      "channel": 3,
      "note": 56,
      "start": 45.8444,
      "duration": 0.1057,
      "velocity": 99,
      "chip": "ym2612"
    },
    {
      "channel": 2,
      "note": 61,
      "start": 45.989,
      "duration": 0.1111,
      "velocity": 99,
      "chip": "ym2612"
    },
    {
      "channel": 0,
      "note": 49,
      "start": 45.993,
      "duration": 0.1069,
      "velocity": 89,
      "chip": "ym2612"
    },
    {
      "channel": 3,
      "note": 61,
      "start": 46.1404,
      "duration": 0.1263,
      "velocity": 89,
      "chip": "ym2612"
    },
    {
      "channel": 0,
      "note": 59,
      "start": 46.1431,
      "duration": 0.1234,
      "velocity": 99,
      "chip": "ym2612"
    },
    {
      "channel": 2,
      "note": 64,
      "start": 46.2888,
      "duration": 0.128,
      "velocity": 99,
      "chip": "ym2612"
    },
    {
      "channel": 0,
      "note": 49,
      "start": 46.2928,
      "duration": 0.1237,
      "velocity": 89,
      "chip": "ym2612"
    },
    {
      "channel": 3,
      "note": 61,
      "start": 46.4402,
      "duration": 0.1264,
      "velocity": 89,
      "chip": "ym2612"
    },
    {
      "channel": 0,
      "note": 64,
      "start": 46.4429,
      "duration": 0.1235,
      "velocity": 99,
      "chip": "ym2612"
    },
    {
      "channel": 2,
      "note": 53,
      "start": 46.5876,
      "duration": 0.1293,
      "velocity": 127,
      "chip": "ym2612"
    },
    {
      "channel": 0,
      "note": 59,
      "start": 46.5938,
      "duration": 0.1226,
      "velocity": 99,
      "chip": "ym2612"
    },
    {
      "channel": 3,
      "note": 49,
      "start": 46.5978,
      "duration": 0.1188,
      "velocity": 89,
      "chip": "ym2612"
    },
    {
      "channel": 0,
      "note": 61,
      "start": 46.7404,
      "duration": 0.126,
      "velocity": 89,
      "chip": "ym2612"
    },
    {
      "channel": 3,
      "note": 56,
      "start": 46.7443,
      "duration": 0.1223,
      "velocity": 99,
      "chip": "ym2612"
    },
    {
      "channel": 2,
      "note": 61,
      "start": 46.9056,
      "duration": 0.1112,
      "velocity": 99,
      "chip": "ym2612"
    },
    {
      "channel": 0,
      "note": 49,
      "start": 46.9095,
      "duration": 0.1069,
      "velocity": 89,
      "chip": "ym2612"
    },
    {
      "channel": 3,
      "note": 61,
      "start": 47.057,
      "duration": 0.1096,
      "velocity": 89,
      "chip": "ym2612"
    },
    {
      "channel": 0,
      "note": 59,
      "start": 47.0598,
      "duration": 0.1067,
      "velocity": 99,
      "chip": "ym2612"
    },
    {
      "channel": 2,
      "note": 64,
      "start": 47.207,
      "duration": 0.1266,
      "velocity": 99,
      "chip": "ym2612"
    },
    {
      "channel": 0,
      "note": 49,
      "start": 47.211,
      "duration": 0.1223,
      "velocity": 89,
      "chip": "ym2612"
    },
    {
      "channel": 3,
      "note": 61,
      "start": 47.3568,
      "duration": 0.1266,
      "velocity": 89,
      "chip": "ym2612"
    },
    {
      "channel": 0,
      "note": 64,
      "start": 47.3596,
      "duration": 0.1236,
      "velocity": 99,
      "chip": "ym2612"
    },
    {
      "channel": 1,
      "note": 67,
      "start": 47.5044,
      "duration": 3.5787,
      "velocity": 86,
      "chip": "ym2612"
    },
    {
      "channel": 2,
      "note": 33,
      "start": 47.5114,
      "duration": 0.1223,
      "velocity": 124,
      "chip": "ym2612"
    },
    {
      "channel": 0,
      "note": 59,
      "start": 47.517,
      "duration": 0.1161,
      "velocity": 99,
      "chip": "ym2612"
    },
    {
      "channel": 3,
      "note": 49,
      "start": 47.521,
      "duration": 0.1123,
      "velocity": 89,
      "chip": "ym2612"
    },
    {
      "channel": 0,
      "note": 61,
      "start": 47.657,
      "duration": 0.1262,
      "velocity": 89,
      "chip": "ym2612"
    },
    {
      "channel": 3,
      "note": 56,
      "start": 47.6617,
      "duration": 0.1218,
      "velocity": 99,
      "chip": "ym2612"
    },
    {
      "channel": 2,
      "note": 61,
      "start": 47.8056,
      "duration": 0.1278,
      "velocity": 99,
      "chip": "ym2612"
    },
    {
      "channel": 0,
      "note": 49,
      "start": 47.8096,
      "duration": 0.1235,
      "velocity": 89,
      "chip": "ym2612"
    },
    {
      "channel": 3,
      "note": 61,
      "start": 47.9737,
      "duration": 0.1096,
      "velocity": 89,
      "chip": "ym2612"
    },
    {
      "channel": 0,
      "note": 59,
      "start": 47.9764,
      "duration": 0.1067,
      "velocity": 99,
      "chip": "ym2612"
    },
    {
      "channel": 2,
      "note": 64,
      "start": 48.1222,
      "duration": 0.1113,
      "velocity": 99,
      "chip": "ym2612"
    },
    {
      "channel": 0,
      "note": 49,
      "start": 48.1262,
      "duration": 0.1069,
      "velocity": 89,
      "chip": "ym2612"
    },
    {
      "channel": 3,
      "note": 61,
      "start": 48.2734,
      "duration": 0.1265,
      "velocity": 89,
      "chip": "ym2612"
    },
    {
      "channel": 0,
      "note": 63,
      "start": 48.2762,
      "duration": 0.1235,
      "velocity": 99,
      "chip": "ym2612"
    },
    {
      "channel": 2,
      "note": 53,
      "start": 48.421,
      "duration": 0.1291,
      "velocity": 127,
      "chip": "ym2612"
    },
    {
      "channel": 0,
      "note": 59,
      "start": 48.4273,
      "duration": 0.1224,
      "velocity": 99,
      "chip": "ym2612"
    },
    {
      "channel": 3,
      "note": 49,
      "start": 48.4312,
      "duration": 0.1187,
      "velocity": 89,
      "chip": "ym2612"
    },
    {
      "channel": 0,
      "note": 61,
      "start": 48.574,
      "duration": 0.1257,
      "velocity": 89,
      "chip": "ym2612"
    },
    {
      "channel": 3,
      "note": 56,
      "start": 48.5783,
      "duration": 0.1216,
      "velocity": 99,
      "chip": "ym2612"
    },
    {
      "channel": 2,
      "note": 61,
      "start": 48.7222,
      "duration": 0.1279,
      "velocity": 99,
      "chip": "ym2612"
    },
    {
      "channel": 0,
      "note": 49,
      "start": 48.7262,
      "duration": 0.1236,
      "velocity": 89,
      "chip": "ym2612"
    },
    {
      "channel": 3,
      "note": 61,
      "start": 48.8736,
      "duration": 0.1263,
      "velocity": 89,
      "chip": "ym2612"
    },
    {
      "channel": 0,
      "note": 59,
      "start": 48.8763,
      "duration": 0.1234,
      "velocity": 99,
      "chip": "ym2612"
    },
    {
      "channel": 2,
      "note": 33,
      "start": 49.0378,
      "duration": 0.1125,
      "velocity": 124,
      "chip": "ym2612"
    },
    {
      "channel": 0,
      "note": 64,
      "start": 49.0433,
      "duration": 0.1066,
      "velocity": 99,
      "chip": "ym2612"
    },
    {
      "channel": 3,
      "note": 49,
      "start": 49.0472,
      "duration": 0.1028,
      "velocity": 89,
      "chip": "ym2612"
    },
    {
      "channel": 0,
      "note": 61,
      "start": 49.1903,
      "duration": 0.1095,
      "velocity": 89,
      "chip": "ym2612"
    },
    {
      "channel": 3,
      "note": 63,
      "start": 49.193,
      "duration": 0.1069,
      "velocity": 99,
      "chip": "ym2612"
    },
    {
      "channel": 2,
      "note": 33,
      "start": 49.3408,
      "duration": 0.1261,
      "velocity": 124,
      "chip": "ym2612"
    },
    {
      "channel": 0,
      "note": 59,
      "start": 49.346,
      "duration": 0.1205,
      "velocity": 99,
      "chip": "ym2612"
    },
    {
      "channel": 3,
      "note": 49,
      "start": 49.3504,
      "duration": 0.1162,
      "velocity": 89,
      "chip": "ym2612"
    },
    {
      "channel": 0,
      "note": 61,
      "start": 49.4902,
      "duration": 0.1263,
      "velocity": 89,
      "chip": "ym2612"
    },
    {
      "channel": 3,
      "note": 56,
      "start": 49.4943,
      "duration": 0.1224,
      "velocity": 99,
      "chip": "ym2612"
    },
    {
      "channel": 2,
      "note": 61,
      "start": 49.6392,
      "duration": 0.1276,
      "velocity": 99,
      "chip": "ym2612"
    },
    {
      "channel": 0,
      "note": 49,
      "start": 49.6432,
      "duration": 0.1233,
      "velocity": 89,
      "chip": "ym2612"
    },
    {
      "channel": 3,
      "note": 61,
      "start": 49.7904,
      "duration": 0.1263,
      "velocity": 89,
      "chip": "ym2612"
    },
    {
      "channel": 0,
      "note": 59,
      "start": 49.7931,
      "duration": 0.1234,
      "velocity": 99,
      "chip": "ym2612"
    },
    {
      "channel": 2,
      "note": 64,
      "start": 49.9388,
      "duration": 0.128,
      "velocity": 99,
      "chip": "ym2612"
    },
    {
      "channel": 0,
      "note": 49,
      "start": 49.9428,
      "duration": 0.1236,
      "velocity": 89,
      "chip": "ym2612"
    },
    {
      "channel": 3,
      "note": 61,
      "start": 50.1068,
      "duration": 0.1099,
      "velocity": 89,
      "chip": "ym2612"
    },
    {
      "channel": 0,
      "note": 63,
      "start": 50.1095,
      "duration": 0.1069,
      "velocity": 99,
      "chip": "ym2612"
    },
    {
      "channel": 2,
      "note": 53,
      "start": 50.2543,
      "duration": 0.1125,
      "velocity": 127,
      "chip": "ym2612"
    },
    {
      "channel": 0,
      "note": 59,
      "start": 50.2605,
      "duration": 0.1059,
      "velocity": 99,
      "chip": "ym2612"
    },
    {
      "channel": 3,
      "note": 49,
      "start": 50.2645,
      "duration": 0.1021,
      "velocity": 89,
      "chip": "ym2612"
    },
    {
      "channel": 0,
      "note": 61,
      "start": 50.4069,
      "duration": 0.1261,
      "velocity": 89,
      "chip": "ym2612"
    },
    {
      "channel": 3,
      "note": 56,
      "start": 50.4109,
      "duration": 0.1224,
      "velocity": 99,
      "chip": "ym2612"
    },
    {
      "channel": 2,
      "note": 61,
      "start": 50.5556,
      "duration": 0.1278,
      "velocity": 99,
      "chip": "ym2612"
    },
    {
      "channel": 0,
      "note": 49,
      "start": 50.5595,
      "duration": 0.1235,
      "velocity": 89,
      "chip": "ym2612"
    },
    {
      "channel": 3,
      "note": 61,
      "start": 50.7069,
      "duration": 0.1263,
      "velocity": 89,
      "chip": "ym2612"
    },
    {
      "channel": 0,
      "note": 59,
      "start": 50.7096,
      "duration": 0.1234,
      "velocity": 99,
      "chip": "ym2612"
    },
    {
      "channel": 4,
      "note": 49,
      "start": 50.8557,
      "duration": 0.1277,
      "velocity": 106,
      "chip": "ym2612"
    },
    {
      "channel": 5,
      "note": 56,
      "start": 50.859,
      "duration": 0.1245,
      "velocity": 106,
      "chip": "ym2612"
    },
    {
      "channel": 2,
      "note": 64,
      "start": 50.8617,
      "duration": 0.122,
      "velocity": 99,
      "chip": "ym2612"
    },
    {
      "channel": 0,
      "note": 49,
      "start": 50.8662,
      "duration": 0.117,
      "velocity": 89,
      "chip": "ym2612"
    },
    {
      "channel": 4,
      "note": 49,
      "start": 51.0054,
      "duration": 0.1279,
      "velocity": 106,
      "chip": "ym2612"
    },
    {
      "channel": 5,
      "note": 56,
      "start": 51.0083,
      "duration": 0.1252,
      "velocity": 106,
      "chip": "ym2612"
    },
    {
      "channel": 3,
      "note": 61,
      "start": 51.0123,
      "duration": 0.1209,
      "velocity": 89,
      "chip": "ym2612"
    },
    {
      "channel": 0,
      "note": 63,
      "start": 51.0156,
      "duration": 0.1174,
      "velocity": 99,
      "chip": "ym2612"
    },
    {
      "channel": 1,
      "note": 64,
      "start": 51.1708,
      "duration": 5.0125,
      "velocity": 86,
      "chip": "ym2612"
    },
    {
      "channel": 2,
      "note": 33,
      "start": 51.177,
      "duration": 0.1066,
      "velocity": 124,
      "chip": "ym2612"
    },
    {
      "channel": 4,
      "note": 45,
      "start": 51.1823,
      "duration": 7.2177,
      "velocity": 106,
      "chip": "ym2612"
    },
    {
      "channel": 5,
      "note": 52,
      "start": 51.1857,
      "duration": 6.9809,
      "velocity": 106,
      "chip": "ym2612"
    },
    {
      "channel": 0,
      "note": 56,
      "start": 51.1903,
      "duration": 0.0929,
      "velocity": 99,
      "chip": "ym2612"
    },
    {
      "channel": 3,
      "note": 45,
      "start": 51.1946,
      "duration": 0.0888,
      "velocity": 89,
      "chip": "ym2612"
    },
    {
      "channel": 0,
      "note": 57,
      "start": 51.3239,
      "duration": 0.1092,
      "velocity": 89,
      "chip": "ym2612"
    },
    {
      "channel": 3,
      "note": 56,
      "start": 51.3285,
      "duration": 0.1048,
      "velocity": 99,
      "chip": "ym2612"
    },
    {
      "channel": 2,
      "note": 57,
      "start": 51.4723,
      "duration": 0.1278,
      "velocity": 99,
      "chip": "ym2612"
    },
    {
      "channel": 0,
      "note": 45,
      "start": 51.477,
      "duration": 0.1227,
      "velocity": 89,
      "chip": "ym2612"
    },
    {
      "channel": 3,
      "note": 57,
      "start": 51.6243,
      "duration": 0.1256,
      "velocity": 89,
      "chip": "ym2612"
    },
    {
      "channel": 0,
      "note": 57,
      "start": 51.627,
      "duration": 0.1227,
      "velocity": 99,
      "chip": "ym2612"
    },
    {
      "channel": 2,
      "note": 61,
      "start": 51.7721,
      "duration": 0.128,
      "velocity": 99,
      "chip": "ym2612"
    },
    {
      "channel": 0,
      "note": 45,
      "start": 51.776,
      "duration": 0.1237,
      "velocity": 89,
      "chip": "ym2612"
    },
    {
      "channel": 3,
      "note": 57,
      "start": 51.9233,
      "duration": 0.1265,
      "velocity": 89,
      "chip": "ym2612"
    },
    {
      "channel": 0,
      "note": 61,
      "start": 51.9261,
      "duration": 0.1236,
      "velocity": 99,
      "chip": "ym2612"
    },
    {
      "channel": 2,
      "note": 53,
      "start": 52.0708,
      "duration": 0.1294,
      "velocity": 127,
      "chip": "ym2612"
    },
    {
      "channel": 0,
      "note": 56,
      "start": 52.0778,
      "duration": 0.122,
      "velocity": 99,
      "chip": "ym2612"
    },
    {
      "channel": 3,
      "note": 45,
      "start": 52.0823,
      "duration": 0.1177,
      "velocity": 89,
      "chip": "ym2612"
    },
    {
      "channel": 0,
      "note": 57,
      "start": 52.2403,
      "duration": 0.1095,
      "velocity": 89,
      "chip": "ym2612"
    },
    {
      "channel": 3,
      "note": 56,
      "start": 52.2446,
      "duration": 0.1054,
      "velocity": 99,
      "chip": "ym2612"
    },
    {
      "channel": 2,
      "note": 57,
      "start": 52.3888,
      "duration": 0.1112,
      "velocity": 99,
      "chip": "ym2612"
    },
    {
      "channel": 0,
      "note": 45,
      "start": 52.3928,
      "duration": 0.1069,
      "velocity": 89,
      "chip": "ym2612"
    },
    {
      "channel": 3,
      "note": 57,
      "start": 52.5403,
      "duration": 0.1264,
      "velocity": 89,
      "chip": "ym2612"
    },
    {
      "channel": 0,
      "note": 57,
      "start": 52.543,
      "duration": 0.1235,
      "velocity": 99,
      "chip": "ym2612"
    },
    {
      "channel": 2,
      "note": 33,
      "start": 52.6877,
      "duration": 0.1293,
      "velocity": 124,
      "chip": "ym2612"
    },
    {
      "channel": 0,
      "note": 61,
      "start": 52.6931,
      "duration": 0.1234,
      "velocity": 99,
      "chip": "ym2612"
    },
    {
      "channel": 3,
      "note": 45,
      "start": 52.6971,
      "duration": 0.1197,
      "velocity": 89,
      "chip": "ym2612"
    },
    {
      "channel": 0,
      "note": 57,
      "start": 52.8404,
      "duration": 0.126,
      "velocity": 89,
      "chip": "ym2612"
    },
    {
      "channel": 3,
      "note": 61,
      "start": 52.8432,
      "duration": 0.1234,
      "velocity": 99,
      "chip": "ym2612"
    },
    {
      "channel": 2,
      "note": 33,
      "start": 52.9892,
      "duration": 0.1277,
      "velocity": 124,
      "chip": "ym2612"
    },
    {
      "channel": 0,
      "note": 56,
      "start": 52.9943,
      "duration": 0.1222,
      "velocity": 99,
      "chip": "ym2612"
    },
    {
      "channel": 3,
      "note": 45,
      "start": 52.9985,
      "duration": 0.1182,
      "velocity": 89,
      "chip": "ym2612"
    },
    {
      "channel": 0,
      "note": 57,
      "start": 53.1402,
      "duration": 0.1263,
      "velocity": 89,
      "chip": "ym2612"
    },
    {
      "channel": 3,
      "note": 56,
      "start": 53.1443,
      "duration": 0.1224,
      "velocity": 99,
      "chip": "ym2612"
    },
    {
      "channel": 2,
      "note": 57,
      "start": 53.3056,
      "duration": 0.1112,
      "velocity": 99,
      "chip": "ym2612"
    },
    {
      "channel": 0,
      "note": 45,
      "start": 53.3096,
      "duration": 0.1069,
      "velocity": 89,
      "chip": "ym2612"
    },
    {
      "channel": 3,
      "note": 57,
      "start": 53.457,
      "duration": 0.1097,
      "velocity": 89,
      "chip": "ym2612"
    },
    {
      "channel": 0,
      "note": 57,
      "start": 53.4598,
      "duration": 0.1067,
      "velocity": 99,
      "chip": "ym2612"
    },
    {
      "channel": 2,
      "note": 61,
      "start": 53.6054,
      "duration": 0.1281,
      "velocity": 99,
      "chip": "ym2612"
    },
    {
      "channel": 0,
      "note": 45,
      "start": 53.6095,
      "duration": 0.1237,
      "velocity": 89,
      "chip": "ym2612"
    },
    {
      "channel": 3,
      "note": 57,
      "start": 53.7567,
      "duration": 0.1265,
      "velocity": 89,
      "chip": "ym2612"
    },
    {
      "channel": 0,
      "note": 61,
      "start": 53.7595,
      "duration": 0.1236,
      "velocity": 99,
      "chip": "ym2612"
    },
    {
      "channel": 2,
      "note": 53,
      "start": 53.9042,
      "duration": 0.1293,
      "velocity": 127,
      "chip": "ym2612"
    },
    {
      "channel": 0,
      "note": 56,
      "start": 53.9105,
      "duration": 0.1226,
      "velocity": 99,
      "chip": "ym2612"
    },
    {
      "channel": 3,
      "note": 45,
      "start": 53.9144,
      "duration": 0.1188,
      "velocity": 89,
      "chip": "ym2612"
    },
    {
      "channel": 0,
      "note": 57,
      "start": 54.057,
      "duration": 0.126,
      "velocity": 89,
      "chip": "ym2612"
    },
    {
      "channel": 3,
      "note": 56,
      "start": 54.061,
      "duration": 0.1223,
      "velocity": 99,
      "chip": "ym2612"
    },
    {
      "channel": 2,
      "note": 57,
      "start": 54.2056,
      "duration": 0.1278,
      "velocity": 99,
      "chip": "ym2612"
    },
    {
      "channel": 0,
      "note": 45,
      "start": 54.2095,
      "duration": 0.1235,
      "velocity": 89,
      "chip": "ym2612"
    },
    {
      "channel": 3,
      "note": 57,
      "start": 54.3737,
      "duration": 0.1097,
      "velocity": 89,
      "chip": "ym2612"
    },
    {
      "channel": 0,
      "note": 57,
      "start": 54.3764,
      "duration": 0.1068,
      "velocity": 99,
      "chip": "ym2612"
    },
    {
      "channel": 2,
      "note": 61,
      "start": 54.5238,
      "duration": 0.1097,
      "velocity": 99,
      "chip": "ym2612"
    },
    {
      "channel": 0,
      "note": 45,
      "start": 54.5278,
      "duration": 0.1053,
      "velocity": 89,
      "chip": "ym2612"
    },
    {
      "channel": 3,
      "note": 57,
      "start": 54.6735,
      "duration": 0.1265,
      "velocity": 89,
      "chip": "ym2612"
    },
    {
      "channel": 0,
      "note": 61,
      "start": 54.6763,
      "duration": 0.1236,
      "velocity": 99,
      "chip": "ym2612"
    },
    {
      "channel": 2,
      "note": 33,
      "start": 54.822,
      "duration": 0.1283,
      "velocity": 124,
      "chip": "ym2612"
    },
    {
      "channel": 0,
      "note": 55,
      "start": 54.8266,
      "duration": 0.1233,
      "velocity": 99,
      "chip": "ym2612"
    },
    {
      "channel": 3,
      "note": 45,
      "start": 54.8305,
      "duration": 0.1195,
      "velocity": 89,
      "chip": "ym2612"
    },
    {
      "channel": 0,
      "note": 57,
      "start": 54.9737,
      "duration": 0.1261,
      "velocity": 89,
      "chip": "ym2612"
    },
    {
      "channel": 3,
      "note": 52,
      "start": 54.9771,
      "duration": 0.1229,
      "velocity": 99,
      "chip": "ym2612"
    },
    {
      "channel": 2,
      "note": 57,
      "start": 55.1223,
      "duration": 0.1279,
      "velocity": 99,
      "chip": "ym2612"
    },
    {
      "channel": 0,
      "note": 45,
      "start": 55.1263,
      "duration": 0.1236,
      "velocity": 89,
      "chip": "ym2612"
    },
    {
      "channel": 3,
      "note": 57,
      "start": 55.2736,
      "duration": 0.1265,
      "velocity": 89,
      "chip": "ym2612"
    },
    {
      "channel": 0,
      "note": 55,
      "start": 55.2763,
      "duration": 0.1235,
      "velocity": 99,
      "chip": "ym2612"
    },
    {
      "channel": 2,
      "note": 61,
      "start": 55.4392,
      "duration": 0.111,
      "velocity": 99,
      "chip": "ym2612"
    },
    {
      "channel": 0,
      "note": 45,
      "start": 55.4432,
      "duration": 0.1067,
      "velocity": 89,
      "chip": "ym2612"
    },
    {
      "channel": 3,
      "note": 57,
      "start": 55.5902,
      "duration": 0.1099,
      "velocity": 89,
      "chip": "ym2612"
    },
    {
      "channel": 0,
      "note": 60,
      "start": 55.5929,
      "duration": 0.1069,
      "velocity": 99,
      "chip": "ym2612"
    },
    {
      "channel": 2,
      "note": 53,
      "start": 55.7377,
      "duration": 0.1293,
      "velocity": 127,
      "chip": "ym2612"
    },
    {
      "channel": 0,
      "note": 55,
      "start": 55.7443,
      "duration": 0.1222,
      "velocity": 99,
      "chip": "ym2612"
    },
    {
      "channel": 3,
      "note": 45,
      "start": 55.7485,
      "duration": 0.1183,
      "velocity": 89,
      "chip": "ym2612"
    },
    {
      "channel": 0,
      "note": 57,
      "start": 55.8904,
      "duration": 0.1261,
      "velocity": 89,
      "chip": "ym2612"
    },
    {
      "channel": 3,
      "note": 52,
      "start": 55.8931,
      "duration": 0.1235,
      "velocity": 99,
      "chip": "ym2612"
    },
    {
      "channel": 2,
      "note": 57,
      "start": 56.039,
      "duration": 0.1279,
      "velocity": 99,
      "chip": "ym2612"
    },
    {
      "channel": 0,
      "note": 45,
      "start": 56.043,
      "duration": 0.1236,
      "velocity": 89,
      "chip": "ym2612"
    },
    {
      "channel": 3,
      "note": 57,
      "start": 56.1905,
      "duration": 0.1262,
      "velocity": 89,
      "chip": "ym2612"
    },
    {
      "channel": 0,
      "note": 55,
      "start": 56.1932,
      "duration": 0.1233,
      "velocity": 99,
      "chip": "ym2612"
    },
    {
      "channel": 2,
      "note": 33,
      "start": 56.3379,
      "duration": 0.1291,
      "velocity": 124,
      "chip": "ym2612"
    },
    {
      "channel": 1,
      "note": 61,
      "start": 56.3436,
      "duration": 0.123,
      "velocity": 99,
      "chip": "ym2612"
    },
    {
      "channel": 0,
      "note": 45,
      "start": 56.3476,
      "duration": 0.119,
      "velocity": 89,
      "chip": "ym2612"
    },
    {
      "channel": 3,
      "note": 57,
      "start": 56.5068,
      "duration": 0.1099,
      "velocity": 89,
      "chip": "ym2612"
    },
    {
      "channel": 0,
      "note": 60,
      "start": 56.5099,
      "duration": 0.1066,
      "velocity": 99,
      "chip": "ym2612"
    },
    {
      "channel": 2,
      "note": 33,
      "start": 56.6555,
      "duration": 0.1115,
      "velocity": 124,
      "chip": "ym2612"
    },
    {
      "channel": 1,
      "note": 53,
      "start": 56.6592,
      "duration": 0.1074,
      "velocity": 99,
      "chip": "ym2612"
    },
    {
      "channel": 0,
      "note": 45,
      "start": 56.6632,
      "duration": 0.1034,
      "velocity": 89,
      "chip": "ym2612"
    },
    {
      "channel": 3,
      "note": 57,
      "start": 56.8068,
      "duration": 0.1265,
      "velocity": 89,
      "chip": "ym2612"
    },
    {
      "channel": 0,
      "note": 52,
      "start": 56.8096,
      "duration": 0.1236,
      "velocity": 99,
      "chip": "ym2612"
    },
    {
      "channel": 1,
      "note": 57,
      "start": 56.9557,
      "duration": 0.1275,
      "velocity": 99,
      "chip": "ym2612"
    },
    {
      "channel": 2,
      "note": 45,
      "start": 56.9597,
      "duration": 0.1238,
      "velocity": 89,
      "chip": "ym2612"
    },
    {
      "channel": 3,
      "note": 57,
      "start": 57.1068,
      "duration": 0.1264,
      "velocity": 89,
      "chip": "ym2612"
    },
    {
      "channel": 0,
      "note": 55,
      "start": 57.1093,
      "duration": 0.1238,
      "velocity": 99,
      "chip": "ym2612"
    },
    {
      "channel": 1,
      "note": 61,
      "start": 57.2553,
      "duration": 0.1279,
      "velocity": 99,
      "chip": "ym2612"
    },
    {
      "channel": 2,
      "note": 45,
      "start": 57.2592,
      "duration": 0.1242,
      "velocity": 89,
      "chip": "ym2612"
    },
    {
      "channel": 3,
      "note": 57,
      "start": 57.4068,
      "duration": 0.1266,
      "velocity": 89,
      "chip": "ym2612"
    },
    {
      "channel": 0,
      "note": 60,
      "start": 57.4092,
      "duration": 0.124,
      "velocity": 99,
      "chip": "ym2612"
    },
    {
      "channel": 1,
      "note": 53,
      "start": 57.571,
      "duration": 0.1123,
      "velocity": 127,
      "chip": "ym2612"
    },
    {
      "channel": 2,
      "note": 51,
      "start": 57.5761,
      "duration": 0.1075,
      "velocity": 99,
      "chip": "ym2612"
    },
    {
      "channel": 0,
      "note": 45,
      "start": 57.58,
      "duration": 0.1031,
      "velocity": 89,
      "chip": "ym2612"
    },
    {
      "channel": 3,
      "note": 57,
      "start": 57.7234,
      "duration": 0.1098,
      "velocity": 89,
      "chip": "ym2612"
    },
    {
      "channel": 0,
      "note": 56,
      "start": 57.7262,
      "duration": 0.1069,
      "velocity": 99,
      "chip": "ym2612"
    },
    {
      "channel": 2,
      "note": 57,
      "start": 57.8726,
      "duration": 0.1276,
      "velocity": 99,
      "chip": "ym2612"
    },
    {
      "channel": 1,
      "note": 45,
      "start": 57.8765,
      "duration": 0.1233,
      "velocity": 89,
      "chip": "ym2612"
    },
    {
      "channel": 3,
      "note": 57,
      "start": 58.0234,
      "duration": 0.1266,
      "velocity": 89,
      "chip": "ym2612"
    },
    {
      "channel": 0,
      "note": 57,
      "start": 58.0259,
      "duration": 0.1239,
      "velocity": 99,
      "chip": "ym2612"
    },
    {
      "channel": 2,
      "note": 61,
      "start": 58.1722,
      "duration": 0.1278,
      "velocity": 99,
      "chip": "ym2612"
    },
    {
      "channel": 1,
      "note": 45,
      "start": 58.176,
      "duration": 0.1237,
      "velocity": 89,
      "chip": "ym2612"
    },
    {
      "channel": 3,
      "note": 57,
      "start": 58.3234,
      "duration": 0.1266,
      "velocity": 89,
      "chip": "ym2612"
    },
    {
      "channel": 0,
      "note": 60,
      "start": 58.3259,
      "duration": 0.1239,
      "velocity": 99,
      "chip": "ym2612"
    },
    {
      "channel": 5,
      "note": 33,
      "start": 58.4733,
      "duration": 0.1266,
      "velocity": 124,
      "chip": "ym2612"
    },
    {
      "channel": 4,
      "note": 47,
      "start": 58.4778,
      "duration": 6.989,
      "velocity": 106,
      "chip": "ym2612"
    },
    {
      "channel": 1,
      "note": 54,
      "start": 58.4812,
      "duration": 6.9854,
      "velocity": 106,
      "chip": "ym2612"
    },
    {
      "channel": 2,
      "note": 58,
      "start": 58.4855,
      "duration": 0.1146,
      "velocity": 99,
      "chip": "ym2612"
    },
    {
      "channel": 0,
      "note": 47,
      "start": 58.4898,
      "duration": 0.1099,
      "velocity": 89,
      "chip": "ym2612"
    },
    {
      "channel": 3,
      "note": 59,
      "start": 58.6404,
      "duration": 0.1095,
      "velocity": 89,
      "chip": "ym2612"
    },
    {
      "channel": 0,
      "note": 58,
      "start": 58.6441,
      "duration": 0.1055,
      "velocity": 99,
      "chip": "ym2612"
    },
    {
      "channel": 2,
      "note": 59,
      "start": 58.7888,
      "duration": 0.1111,
      "velocity": 99,
      "chip": "ym2612"
    },
    {
      "channel": 5,
      "note": 47,
      "start": 58.7936,
      "duration": 0.1063,
      "velocity": 89,
      "chip": "ym2612"
    },
    {
      "channel": 3,
      "note": 59,
      "start": 58.9408,
      "duration": 0.1258,
      "velocity": 89,
      "chip": "ym2612"
    },
    {
      "channel": 0,
      "note": 59,
      "start": 58.9433,
      "duration": 0.1231,
      "velocity": 99,
      "chip": "ym2612"
    },
    {
      "channel": 2,
      "note": 62,
      "start": 59.0888,
      "duration": 0.128,
      "velocity": 99,
      "chip": "ym2612"
    },
    {
      "channel": 5,
      "note": 47,
      "start": 59.0927,
      "duration": 0.124,
      "velocity": 89,
      "chip": "ym2612"
    },
    {
      "channel": 3,
      "note": 59,
      "start": 59.24,
      "duration": 0.1265,
      "velocity": 89,
      "chip": "ym2612"
    },
    {
      "channel": 0,
      "note": 62,
      "start": 59.2425,
      "duration": 0.1238,
      "velocity": 99,
      "chip": "ym2612"
    },
    {
      "channel": 5,
      "note": 53,
      "start": 59.3878,
      "duration": 0.1289,
      "velocity": 127,
      "chip": "ym2612"
    },
    {
      "channel": 2,
      "note": 58,
      "start": 59.3952,
      "duration": 0.1216,
      "velocity": 99,
      "chip": "ym2612"
    },
    {
      "channel": 0,
      "note": 47,
      "start": 59.3997,
      "duration": 0.1168,
      "velocity": 89,
      "chip": "ym2612"
    },
    {
      "channel": 3,
      "note": 59,
      "start": 59.5402,
      "duration": 0.1264,
      "velocity": 89,
      "chip": "ym2612"
    },
    {
      "channel": 0,
      "note": 58,
      "start": 59.5449,
      "duration": 0.1215,
      "velocity": 99,
      "chip": "ym2612"
    },
    {
      "channel": 2,
      "note": 59,
      "start": 59.7055,
      "duration": 0.1113,
      "velocity": 99,
      "chip": "ym2612"
    },
    {
      "channel": 5,
      "note": 47,
      "start": 59.7095,
      "duration": 0.1072,
      "velocity": 89,
      "chip": "ym2612"
    },
    {
      "channel": 3,
      "note": 59,
      "start": 59.8567,
      "duration": 0.1099,
      "velocity": 89,
      "chip": "ym2612"
    },
    {
      "channel": 0,
      "note": 59,
      "start": 59.8592,
      "duration": 0.1072,
      "velocity": 99,
      "chip": "ym2612"
    },
    {
      "channel": 5,
      "note": 33,
      "start": 60.0044,
      "duration": 0.1291,
      "velocity": 124,
      "chip": "ym2612"
    },
    {
      "channel": 2,
      "note": 62,
      "start": 60.0098,
      "duration": 0.1239,
      "velocity": 99,
      "chip": "ym2612"
    },
    {
      "channel": 0,
      "note": 47,
      "start": 60.0138,
      "duration": 0.1195,
      "velocity": 89,
      "chip": "ym2612"
    },
    {
      "channel": 3,
      "note": 59,
      "start": 60.1568,
      "duration": 0.1265,
      "velocity": 89,
      "chip": "ym2612"
    },
    {
      "channel": 0,
      "note": 62,
      "start": 60.1595,
      "duration": 0.1236,
      "velocity": 99,
      "chip": "ym2612"
    },
    {
      "channel": 5,
      "note": 66,
      "start": 60.3049,
      "duration": 1.7952,
      "velocity": 86,
      "chip": "ym2612"
    },
    {
      "channel": 2,
      "note": 33,
      "start": 60.3117,
      "duration": 0.1219,
      "velocity": 124,
      "chip": "ym2612"
    },
    {
      "channel": 0,
      "note": 58,
      "start": 60.3174,
      "duration": 0.1158,
      "velocity": 99,
      "chip": "ym2612"
    },
    {
      "channel": 3,
      "note": 47,
      "start": 60.3214,
      "duration": 0.112,
      "velocity": 89,
      "chip": "ym2612"
    },
    {
      "channel": 0,
      "note": 59,
      "start": 60.457,
      "duration": 0.1263,
      "velocity": 89,
      "chip": "ym2612"
    },
    {
      "channel": 3,
      "note": 58,
      "start": 60.461,
      "duration": 0.1224,
      "velocity": 99,
      "chip": "ym2612"
    },
    {
      "channel": 2,
      "note": 59,
      "start": 60.6057,
      "duration": 0.1278,
      "velocity": 99,
      "chip": "ym2612"
    },
    {
      "channel": 0,
      "note": 47,
      "start": 60.6096,
      "duration": 0.1235,
      "velocity": 89,
      "chip": "ym2612"
    },
    {
      "channel": 3,
      "note": 59,
      "start": 60.7737,
      "duration": 0.1096,
      "velocity": 89,
      "chip": "ym2612"
    },
    {
      "channel": 0,
      "note": 59,
      "start": 60.7764,
      "duration": 0.1067,
      "velocity": 99,
      "chip": "ym2612"
    },
    {
      "channel": 2,
      "note": 62,
      "start": 60.9222,
      "duration": 0.1112,
      "velocity": 99,
      "chip": "ym2612"
    },
    {
      "channel": 0,
      "note": 47,
      "start": 60.9262,
      "duration": 0.1069,
      "velocity": 89,
      "chip": "ym2612"
    },
    {
      "channel": 3,
      "note": 59,
      "start": 61.0734,
      "duration": 0.1265,
      "velocity": 89,
      "chip": "ym2612"
    },
    {
      "channel": 0,
      "note": 62,
      "start": 61.0762,
      "duration": 0.1235,
      "velocity": 99,
      "chip": "ym2612"
    },
    {
      "channel": 2,
      "note": 53,
      "start": 61.221,
      "duration": 0.1291,
      "velocity": 127,
      "chip": "ym2612"
    },
    {
      "channel": 0,
      "note": 58,
      "start": 61.2273,
      "duration": 0.1224,
      "velocity": 99,
      "chip": "ym2612"
    },
    {
      "channel": 3,
      "note": 47,
      "start": 61.2312,
      "duration": 0.1187,
      "velocity": 89,
      "chip": "ym2612"
    },
    {
      "channel": 0,
      "note": 59,
      "start": 61.3737,
      "duration": 0.1261,
      "velocity": 89,
      "chip": "ym2612"
    },
    {
      "channel": 3,
      "note": 58,
      "start": 61.3776,
      "duration": 0.1223,
      "velocity": 99,
      "chip": "ym2612"
    },
    {
      "channel": 2,
      "note": 59,
      "start": 61.5221,
      "duration": 0.128,
      "velocity": 99,
      "chip": "ym2612"
    },
    {
      "channel": 0,
      "note": 47,
      "start": 61.5261,
      "duration": 0.1238,
      "velocity": 89,
      "chip": "ym2612"
    },
    {
      "channel": 3,
      "note": 59,
      "start": 61.6736,
      "duration": 0.1263,
      "velocity": 89,
      "chip": "ym2612"
    },
    {
      "channel": 0,
      "note": 59,
      "start": 61.6763,
      "duration": 0.1234,
      "velocity": 99,
      "chip": "ym2612"
    },
    {
      "channel": 2,
      "note": 62,
      "start": 61.8407,
      "duration": 0.1095,
      "velocity": 99,
      "chip": "ym2612"
    },
    {
      "channel": 0,
      "note": 47,
      "start": 61.8447,
      "duration": 0.1051,
      "velocity": 89,
      "chip": "ym2612"
    },
    {
      "channel": 3,
      "note": 59,
      "start": 61.9902,
      "duration": 0.1098,
      "velocity": 89,
      "chip": "ym2612"
    },
    {
      "channel": 0,
      "note": 62,
      "start": 61.9929,
      "duration": 0.1069,
      "velocity": 99,
      "chip": "ym2612"
    },
    {
      "channel": 5,
      "note": 65,
      "start": 62.1378,
      "duration": 3.5788,
      "velocity": 86,
      "chip": "ym2612"
    },
    {
      "channel": 2,
      "note": 33,
      "start": 62.1447,
      "duration": 0.1223,
      "velocity": 124,
      "chip": "ym2612"
    },
    {
      "channel": 0,
      "note": 58,
      "start": 62.1504,
      "duration": 0.1161,
      "velocity": 99,
      "chip": "ym2612"
    },
    {
      "channel": 3,
      "note": 47,
      "start": 62.1544,
      "duration": 0.1124,
      "velocity": 89,
      "chip": "ym2612"
    },
    {
      "channel": 0,
      "note": 59,
      "start": 62.2904,
      "duration": 0.1261,
      "velocity": 89,
      "chip": "ym2612"
    },
    {
      "channel": 3,
      "note": 58,
      "start": 62.2943,
      "duration": 0.1224,
      "velocity": 99,
      "chip": "ym2612"
    },
    {
      "channel": 2,
      "note": 59,
      "start": 62.4389,
      "duration": 0.128,
      "velocity": 99,
      "chip": "ym2612"
    },
    {
      "channel": 0,
      "note": 47,
      "start": 62.4429,
      "duration": 0.1237,
      "velocity": 89,
      "chip": "ym2612"
    },
    {
      "channel": 3,
      "note": 59,
      "start": 62.5902,
      "duration": 0.1264,
      "velocity": 89,
      "chip": "ym2612"
    },
    {
      "channel": 0,
      "note": 59,
      "start": 62.593,
      "duration": 0.1235,
      "velocity": 99,
      "chip": "ym2612"
    },
    {
      "channel": 2,
      "note": 62,
      "start": 62.7389,
      "duration": 0.1279,
      "velocity": 99,
      "chip": "ym2612"
    },
    {
      "channel": 0,
      "note": 47,
      "start": 62.7429,
      "duration": 0.1236,
      "velocity": 89,
      "chip": "ym2612"
    },
    {
      "channel": 3,
      "note": 59,
      "start": 62.9068,
      "duration": 0.1098,
      "velocity": 89,
      "chip": "ym2612"
    },
    {
      "channel": 0,
      "note": 62,
      "start": 62.9095,
      "duration": 0.1069,
      "velocity": 99,
      "chip": "ym2612"
    },
    {
      "channel": 2,
      "note": 53,
      "start": 63.0544,
      "duration": 0.1125,
      "velocity": 127,
      "chip": "ym2612"
    },
    {
      "channel": 0,
      "note": 58,
      "start": 63.0609,
      "duration": 0.1055,
      "velocity": 99,
      "chip": "ym2612"
    },
    {
      "channel": 3,
      "note": 47,
      "start": 63.0649,
      "duration": 0.1018,
      "velocity": 89,
      "chip": "ym2612"
    },
    {
      "channel": 0,
      "note": 59,
      "start": 63.2073,
      "duration": 0.1257,
      "velocity": 89,
      "chip": "ym2612"
    },
    {
      "channel": 3,
      "note": 58,
      "start": 63.2114,
      "duration": 0.1219,
      "velocity": 99,
      "chip": "ym2612"
    },
    {
      "channel": 2,
      "note": 59,
      "start": 63.3556,
      "duration": 0.1278,
      "velocity": 99,
      "chip": "ym2612"
    },
    {
      "channel": 0,
      "note": 47,
      "start": 63.3595,
      "duration": 0.1235,
      "velocity": 89,
      "chip": "ym2612"
    },
    {
      "channel": 3,
      "note": 59,
      "start": 63.5069,
      "duration": 0.1263,
      "velocity": 89,
      "chip": "ym2612"
    },
    {
      "channel": 0,
      "note": 59,
      "start": 63.5096,
      "duration": 0.1234,
      "velocity": 99,
      "chip": "ym2612"
    },
    {
      "channel": 2,
      "note": 33,
      "start": 63.6544,
      "duration": 0.1292,
      "velocity": 124,
      "chip": "ym2612"
    },
    {
      "channel": 0,
      "note": 62,
      "start": 63.6595,
      "duration": 0.1237,
      "velocity": 99,
      "chip": "ym2612"
    },
    {
      "channel": 3,
      "note": 47,
      "start": 63.6635,
      "duration": 0.1199,
      "velocity": 89,
      "chip": "ym2612"
    },
    {
      "channel": 0,
      "note": 59,
      "start": 63.8071,
      "duration": 0.126,
      "velocity": 89,
      "chip": "ym2612"
    },
    {
      "channel": 3,
      "note": 62,
      "start": 63.8098,
      "duration": 0.1234,
      "velocity": 99,
      "chip": "ym2612"
    },
    {
      "channel": 2,
      "note": 33,
      "start": 63.9737,
      "duration": 0.1098,
      "velocity": 124,
      "chip": "ym2612"
    },
    {
      "channel": 0,
      "note": 58,
      "start": 63.9789,
      "duration": 0.1042,
      "velocity": 99,
      "chip": "ym2612"
    },
    {
      "channel": 3,
      "note": 47,
      "start": 63.9833,
      "duration": 0.0999,
      "velocity": 89,
      "chip": "ym2612"
    },
    {
      "channel": 0,
      "note": 59,
      "start": 64.1237,
      "duration": 0.1094,
      "velocity": 89,
      "chip": "ym2612"
    },
    {
      "channel": 3,
      "note": 58,
      "start": 64.1276,
      "duration": 0.1056,
      "velocity": 99,
      "chip": "ym2612"
    },
    {
      "channel": 2,
      "note": 59,
      "start": 64.2726,
      "duration": 0.1276,
      "velocity": 99,
      "chip": "ym2612"
    },
    {
      "channel": 0,
      "note": 47,
      "start": 64.2766,
      "duration": 0.1233,
      "velocity": 89,
      "chip": "ym2612"
    },
    {
      "channel": 3,
      "note": 59,
      "start": 64.4236,
      "duration": 0.1264,
      "velocity": 89,
      "chip": "ym2612"
    },
    {
      "channel": 0,
      "note": 59,
      "start": 64.4263,
      "duration": 0.1235,
      "velocity": 99,
      "chip": "ym2612"
    },
    {
      "channel": 2,
      "note": 62,
      "start": 64.5722,
      "duration": 0.1279,
      "velocity": 99,
      "chip": "ym2612"
    },
    {
      "channel": 0,
      "note": 47,
      "start": 64.5762,
      "duration": 0.1236,
      "velocity": 89,
      "chip": "ym2612"
    },
    {
      "channel": 3,
      "note": 59,
      "start": 64.7234,
      "duration": 0.1265,
      "velocity": 89,
      "chip": "ym2612"
    },
    {
      "channel": 0,
      "note": 62,
      "start": 64.7262,
      "duration": 0.1235,
      "velocity": 99,
      "chip": "ym2612"
    },
    {
      "channel": 2,
      "note": 53,
      "start": 64.871,
      "duration": 0.1291,
      "velocity": 127,
      "chip": "ym2612"
    },
    {
      "channel": 0,
      "note": 58,
      "start": 64.8773,
      "duration": 0.1224,
      "velocity": 99,
      "chip": "ym2612"
    },
    {
      "channel": 3,
      "note": 47,
      "start": 64.8812,
      "duration": 0.1187,
      "velocity": 89,
      "chip": "ym2612"
    },
    {
      "channel": 0,
      "note": 59,
      "start": 65.0402,
      "duration": 0.1095,
      "velocity": 89,
      "chip": "ym2612"
    },
    {
      "channel": 3,
      "note": 58,
      "start": 65.0442,
      "duration": 0.1058,
      "velocity": 99,
      "chip": "ym2612"
    },
    {
      "channel": 2,
      "note": 59,
      "start": 65.1888,
      "duration": 0.1112,
      "velocity": 99,
      "chip": "ym2612"
    },
    {
      "channel": 0,
      "note": 47,
      "start": 65.1928,
      "duration": 0.1069,
      "velocity": 89,
      "chip": "ym2612"
    },
    {
      "channel": 3,
      "note": 59,
      "start": 65.3403,
      "duration": 0.1264,
      "velocity": 89,
      "chip": "ym2612"
    },
    {
      "channel": 0,
      "note": 59,
      "start": 65.343,
      "duration": 0.1234,
      "velocity": 99,
      "chip": "ym2612"
    },
    {
      "channel": 4,
      "note": 47,
      "start": 65.489,
      "duration": 0.1277,
      "velocity": 106,
      "chip": "ym2612"
    },
    {
      "channel": 1,
      "note": 54,
      "start": 65.4921,
      "duration": 0.1244,
      "velocity": 106,
      "chip": "ym2612"
    },
    {
      "channel": 2,
      "note": 62,
      "start": 65.4948,
      "duration": 0.1221,
      "velocity": 99,
      "chip": "ym2612"
    },
    {
      "channel": 0,
      "note": 47,
      "start": 65.4993,
      "duration": 0.1171,
      "velocity": 89,
      "chip": "ym2612"
    },
    {
      "channel": 4,
      "note": 47,
      "start": 65.6388,
      "duration": 0.128,
      "velocity": 106,
      "chip": "ym2612"
    },
    {
      "channel": 1,
      "note": 54,
      "start": 65.6415,
      "duration": 0.1249,
      "velocity": 106,
      "chip": "ym2612"
    },
    {
      "channel": 3,
      "note": 59,
      "start": 65.6455,
      "duration": 0.121,
      "velocity": 89,
      "chip": "ym2612"
    },
    {
      "channel": 0,
      "note": 62,
      "start": 65.6485,
      "duration": 0.1179,
      "velocity": 99,
      "chip": "ym2612"
    },
    {
      "channel": 5,
      "note": 62,
      "start": 65.7876,
      "duration": 5.029,
      "velocity": 86,
      "chip": "ym2612"
    },
    {
      "channel": 2,
      "note": 33,
      "start": 65.7938,
      "duration": 0.1232,
      "velocity": 124,
      "chip": "ym2612"
    },
    {
      "channel": 4,
      "note": 43,
      "start": 65.7992,
      "duration": 7.2341,
      "velocity": 106,
      "chip": "ym2612"
    },
    {
      "channel": 1,
      "note": 50,
      "start": 65.8024,
      "duration": 6.9974,
      "velocity": 106,
      "chip": "ym2612"
    },
    {
      "channel": 0,
      "note": 58,
      "start": 65.8063,
      "duration": 0.1102,
      "velocity": 99,
      "chip": "ym2612"
    },
    {
      "channel": 3,
      "note": 43,
      "start": 65.8106,
      "duration": 0.1061,
      "velocity": 89,
      "chip": "ym2612"
    },
    {
      "channel": 0,
      "note": 55,
      "start": 65.9406,
      "duration": 0.1259,
      "velocity": 89,
      "chip": "ym2612"
    },
    {
      "channel": 3,
      "note": 58,
      "start": 65.9446,
      "duration": 0.1221,
      "velocity": 99,
      "chip": "ym2612"
    },
    {
      "channel": 2,
      "note": 59,
      "start": 66.1055,
      "duration": 0.1112,
      "velocity": 99,
      "chip": "ym2612"
    },
    {
      "channel": 0,
      "note": 43,
      "start": 66.1102,
      "duration": 0.1061,
      "velocity": 89,
      "chip": "ym2612"
    },
    {
      "channel": 3,
      "note": 55,
      "start": 66.2577,
      "duration": 0.1089,
      "velocity": 89,
      "chip": "ym2612"
    },
    {
      "channel": 0,
      "note": 59,
      "start": 66.2604,
      "duration": 0.106,
      "velocity": 99,
      "chip": "ym2612"
    },
    {
      "channel": 2,
      "note": 62,
      "start": 66.4054,
      "duration": 0.128,
      "velocity": 99,
      "chip": "ym2612"
    },
    {
      "channel": 0,
      "note": 43,
      "start": 66.4093,
      "duration": 0.1237,
      "velocity": 89,
      "chip": "ym2612"
    },
    {
      "channel": 3,
      "note": 55,
      "start": 66.5567,
      "duration": 0.1265,
      "velocity": 89,
      "chip": "ym2612"
    },
    {
      "channel": 0,
      "note": 62,
      "start": 66.5594,
      "duration": 0.1236,
      "velocity": 99,
      "chip": "ym2612"
    },
    {
      "channel": 2,
      "note": 53,
      "start": 66.7042,
      "duration": 0.1295,
      "velocity": 127,
      "chip": "ym2612"
    },
    {
      "channel": 0,
      "note": 58,
      "start": 66.7108,
      "duration": 0.1224,
      "velocity": 99,
      "chip": "ym2612"
    },
    {
      "channel": 3,
      "note": 43,
      "start": 66.7147,
      "duration": 0.1186,
      "velocity": 89,
      "chip": "ym2612"
    },
    {
      "channel": 0,
      "note": 55,
      "start": 66.857,
      "duration": 0.1261,
      "velocity": 89,
      "chip": "ym2612"
    },
    {
      "channel": 3,
      "note": 58,
      "start": 66.8609,
      "duration": 0.1224,
      "velocity": 99,
      "chip": "ym2612"
    },
    {
      "channel": 2,
      "note": 59,
      "start": 67.0054,
      "duration": 0.128,
      "velocity": 99,
      "chip": "ym2612"
    },
    {
      "channel": 0,
      "note": 43,
      "start": 67.0094,
      "duration": 0.1237,
      "velocity": 89,
      "chip": "ym2612"
    },
    {
      "channel": 3,
      "note": 55,
      "start": 67.1737,
      "duration": 0.1096,
      "velocity": 89,
      "chip": "ym2612"
    },
    {
      "channel": 0,
      "note": 59,
      "start": 67.1764,
      "duration": 0.1067,
      "velocity": 99,
      "chip": "ym2612"
    },
    {
      "channel": 2,
      "note": 33,
      "start": 67.3215,
      "duration": 0.1121,
      "velocity": 124,
      "chip": "ym2612"
    },
    {
      "channel": 0,
      "note": 62,
      "start": 67.3269,
      "duration": 0.1062,
      "velocity": 99,
      "chip": "ym2612"
    },
    {
      "channel": 3,
      "note": 43,
      "start": 67.3308,
      "duration": 0.1025,
      "velocity": 89,
      "chip": "ym2612"
    },
    {
      "channel": 0,
      "note": 55,
      "start": 67.4738,
      "duration": 0.126,
      "velocity": 89,
      "chip": "ym2612"
    },
    {
      "channel": 3,
      "note": 62,
      "start": 67.4765,
      "duration": 0.1234,
      "velocity": 99,
      "chip": "ym2612"
    },
    {
      "channel": 2,
      "note": 33,
      "start": 67.6224,
      "duration": 0.1277,
      "velocity": 124,
      "chip": "ym2612"
    },
    {
      "channel": 0,
      "note": 58,
      "start": 67.6276,
      "duration": 0.1221,
      "velocity": 99,
      "chip": "ym2612"
    },
    {
      "channel": 3,
      "note": 43,
      "start": 67.6315,
      "duration": 0.1184,
      "velocity": 89,
      "chip": "ym2612"
    },
    {
      "channel": 0,
      "note": 55,
      "start": 67.7737,
      "duration": 0.126,
      "velocity": 89,
      "chip": "ym2612"
    },
    {
      "channel": 3,
      "note": 58,
      "start": 67.7776,
      "duration": 0.1223,
      "velocity": 99,
      "chip": "ym2612"
    },
    {
      "channel": 2,
      "note": 59,
      "start": 67.9222,
      "duration": 0.1279,
      "velocity": 99,
      "chip": "ym2612"
    },
    {
      "channel": 0,
      "note": 43,
      "start": 67.9262,
      "duration": 0.1237,
      "velocity": 89,
      "chip": "ym2612"
    },
    {
      "channel": 3,
      "note": 55,
      "start": 68.0737,
      "duration": 0.1263,
      "velocity": 89,
      "chip": "ym2612"
    },
    {
      "channel": 0,
      "note": 59,
      "start": 68.0764,
      "duration": 0.1234,
      "velocity": 99,
      "chip": "ym2612"
    },
    {
      "channel": 2,
      "note": 62,
      "start": 68.2389,
      "duration": 0.1112,
      "velocity": 99,
      "chip": "ym2612"
    },
    {
      "channel": 0,
      "note": 43,
      "start": 68.2429,
      "duration": 0.1069,
      "velocity": 89,
      "chip": "ym2612"
    },
    {
      "channel": 3,
      "note": 55,
      "start": 68.3901,
      "duration": 0.1099,
      "velocity": 89,
      "chip": "ym2612"
    },
    {
      "channel": 0,
      "note": 62,
      "start": 68.3929,
      "duration": 0.107,
      "velocity": 99,
      "chip": "ym2612"
    },
    {
      "channel": 2,
      "note": 53,
      "start": 68.5377,
      "duration": 0.1293,
      "velocity": 127,
      "chip": "ym2612"
    },
    {
      "channel": 0,
      "note": 58,
      "start": 68.5439,
      "duration": 0.1226,
      "velocity": 99,
      "chip": "ym2612"
    },
    {
      "channel": 3,
      "note": 43,
      "start": 68.5479,
      "duration": 0.1188,
      "velocity": 89,
      "chip": "ym2612"
    },
    {
      "channel": 0,
      "note": 55,
      "start": 68.6903,
      "duration": 0.1261,
      "velocity": 89,
      "chip": "ym2612"
    },
    {
      "channel": 3,
      "note": 58,
      "start": 68.6943,
      "duration": 0.1223,
      "velocity": 99,
      "chip": "ym2612"
    },
    {
      "channel": 2,
      "note": 59,
      "start": 68.8389,
      "duration": 0.1279,
      "velocity": 99,
      "chip": "ym2612"
    },
    {
      "channel": 0,
      "note": 43,
      "start": 68.8429,
      "duration": 0.1236,
      "velocity": 89,
      "chip": "ym2612"
    },
    {
      "channel": 3,
      "note": 55,
      "start": 68.9902,
      "duration": 0.1264,
      "velocity": 89,
      "chip": "ym2612"
    },
    {
      "channel": 0,
      "note": 59,
      "start": 68.9929,
      "duration": 0.1235,
      "velocity": 99,
      "chip": "ym2612"
    },
    {
      "channel": 2,
      "note": 62,
      "start": 69.1407,
      "duration": 0.1261,
      "velocity": 99,
      "chip": "ym2612"
    },
    {
      "channel": 0,
      "note": 43,
      "start": 69.1447,
      "duration": 0.1218,
      "velocity": 89,
      "chip": "ym2612"
    },
    {
      "channel": 3,
      "note": 55,
      "start": 69.3068,
      "duration": 0.1098,
      "velocity": 89,
      "chip": "ym2612"
    },
    {
      "channel": 0,
      "note": 62,
      "start": 69.3096,
      "duration": 0.1069,
      "velocity": 99,
      "chip": "ym2612"
    },
    {
      "channel": 2,
      "note": 33,
      "start": 69.4554,
      "duration": 0.1115,
      "velocity": 124,
      "chip": "ym2612"
    },
    {
      "channel": 0,
      "note": 58,
      "start": 69.4605,
      "duration": 0.1059,
      "velocity": 99,
      "chip": "ym2612"
    },
    {
      "channel": 3,
      "note": 43,
      "start": 69.4645,
      "duration": 0.1022,
      "velocity": 89,
      "chip": "ym2612"
    },
    {
      "channel": 0,
      "note": 55,
      "start": 69.6069,
      "duration": 0.1262,
      "velocity": 89,
      "chip": "ym2612"
    },
    {
      "channel": 3,
      "note": 58,
      "start": 69.6109,
      "duration": 0.1224,
      "velocity": 99,
      "chip": "ym2612"
    },
    {
      "channel": 2,
      "note": 59,
      "start": 69.7556,
      "duration": 0.1278,
      "velocity": 99,
      "chip": "ym2612"
    },
    {
      "channel": 0,
      "note": 43,
      "start": 69.7596,
      "duration": 0.1236,
      "velocity": 89,
      "chip": "ym2612"
    },
    {
      "channel": 3,
      "note": 55,
      "start": 69.907,
      "duration": 0.1263,
      "velocity": 89,
      "chip": "ym2612"
    },
    {
      "channel": 0,
      "note": 59,
      "start": 69.9098,
      "duration": 0.1234,
      "velocity": 99,
      "chip": "ym2612"
    },
    {
      "channel": 2,
      "note": 62,
      "start": 70.056,
      "duration": 0.1276,
      "velocity": 99,
      "chip": "ym2612"
    },
    {
      "channel": 0,
      "note": 43,
      "start": 70.0599,
      "duration": 0.1233,
      "velocity": 89,
      "chip": "ym2612"
    },
    {
      "channel": 3,
      "note": 55,
      "start": 70.2067,
      "duration": 0.1267,
      "velocity": 89,
      "chip": "ym2612"
    },
    {
      "channel": 0,
      "note": 62,
      "start": 70.2095,
      "duration": 0.1237,
      "velocity": 99,
      "chip": "ym2612"
    },
    {
      "channel": 2,
      "note": 53,
      "start": 70.371,
      "duration": 0.1125,
      "velocity": 127,
      "chip": "ym2612"
    },
    {
      "channel": 0,
      "note": 58,
      "start": 70.3773,
      "duration": 0.1059,
      "velocity": 99,
      "chip": "ym2612"
    },
    {
      "channel": 3,
      "note": 43,
      "start": 70.3812,
      "duration": 0.1021,
      "velocity": 89,
      "chip": "ym2612"
    },
    {
      "channel": 0,
      "note": 55,
      "start": 70.5237,
      "duration": 0.1094,
      "velocity": 89,
      "chip": "ym2612"
    },
    {
      "channel": 3,
      "note": 58,
      "start": 70.5276,
      "duration": 0.1056,
      "velocity": 99,
      "chip": "ym2612"
    },
    {
      "channel": 2,
      "note": 59,
      "start": 70.6722,
      "duration": 0.1279,
      "velocity": 99,
      "chip": "ym2612"
    },
    {
      "channel": 0,
      "note": 43,
      "start": 70.6762,
      "duration": 0.1235,
      "velocity": 89,
      "chip": "ym2612"
    },
    {
      "channel": 3,
      "note": 55,
      "start": 70.8237,
      "duration": 0.1262,
      "velocity": 89,
      "chip": "ym2612"
    },
    {
      "channel": 0,
      "note": 59,
      "start": 70.8264,
      "duration": 0.1233,
      "velocity": 99,
      "chip": "ym2612"
    },
    {
      "channel": 2,
      "note": 33,
      "start": 70.9711,
      "duration": 0.1291,
      "velocity": 124,
      "chip": "ym2612"
    },
    {
      "channel": 5,
      "note": 62,
      "start": 70.9765,
      "duration": 0.1236,
      "velocity": 99,
      "chip": "ym2612"
    },
    {
      "channel": 0,
      "note": 43,
      "start": 70.9805,
      "duration": 0.1193,
      "velocity": 89,
      "chip": "ym2612"
    },
    {
      "channel": 3,
      "note": 55,
      "start": 71.1235,
      "duration": 0.1265,
      "velocity": 89,
      "chip": "ym2612"
    },
    {
      "channel": 0,
      "note": 62,
      "start": 71.1263,
      "duration": 0.1236,
      "velocity": 99,
      "chip": "ym2612"
    },
    {
      "channel": 2,
      "note": 33,
      "start": 71.2721,
      "duration": 0.128,
      "velocity": 124,
      "chip": "ym2612"
    },
    {
      "channel": 5,
      "note": 58,
      "start": 71.2772,
      "duration": 0.1228,
      "velocity": 99,
      "chip": "ym2612"
    },
    {
      "channel": 0,
      "note": 43,
      "start": 71.2812,
      "duration": 0.1186,
      "velocity": 89,
      "chip": "ym2612"
    },
    {
      "channel": 3,
      "note": 55,
      "start": 71.4402,
      "duration": 0.1098,
      "velocity": 89,
      "chip": "ym2612"
    },
    {
      "channel": 0,
      "note": 58,
      "start": 71.4441,
      "duration": 0.1057,
      "velocity": 99,
      "chip": "ym2612"
    },
    {
      "channel": 5,
      "note": 59,
      "start": 71.5892,
      "duration": 0.1108,
      "velocity": 99,
      "chip": "ym2612"
    },
    {
      "channel": 2,
      "note": 43,
      "start": 71.5932,
      "duration": 0.1069,
      "velocity": 89,
      "chip": "ym2612"
    },
    {
      "channel": 3,
      "note": 55,
      "start": 71.7401,
      "duration": 0.1265,
      "velocity": 89,
      "chip": "ym2612"
    },
    {
      "channel": 0,
      "note": 59,
      "start": 71.7426,
      "duration": 0.1239,
      "velocity": 99,
      "chip": "ym2612"
    },
    {
      "channel": 5,
      "note": 62,
      "start": 71.8888,
      "duration": 0.1279,
      "velocity": 99,
      "chip": "ym2612"
    },
    {
      "channel": 2,
      "note": 43,
      "start": 71.8928,
      "duration": 0.124,
      "velocity": 89,
      "chip": "ym2612"
    },
    {
      "channel": 3,
      "note": 55,
      "start": 72.0402,
      "duration": 0.1264,
      "velocity": 89,
      "chip": "ym2612"
    },
    {
      "channel": 0,
      "note": 62,
      "start": 72.0426,
      "duration": 0.1238,
      "velocity": 99,
      "chip": "ym2612"
    },
    {
      "channel": 5,
      "note": 53,
      "start": 72.1877,
      "duration": 0.129,
      "velocity": 127,
      "chip": "ym2612"
    },
    {
      "channel": 2,
      "note": 58,
      "start": 72.1939,
      "duration": 0.1229,
      "velocity": 99,
      "chip": "ym2612"
    },
    {
      "channel": 0,
      "note": 43,
      "start": 72.1979,
      "duration": 0.1186,
      "velocity": 89,
      "chip": "ym2612"
    },
    {
      "channel": 3,
      "note": 55,
      "start": 72.3402,
      "duration": 0.1265,
      "velocity": 89,
      "chip": "ym2612"
    },
    {
      "channel": 0,
      "note": 58,
      "start": 72.3442,
      "duration": 0.1223,
      "velocity": 99,
      "chip": "ym2612"
    },
    {
      "channel": 2,
      "note": 59,
      "start": 72.5058,
      "duration": 0.1109,
      "velocity": 99,
      "chip": "ym2612"
    },
    {
      "channel": 5,
      "note": 43,
      "start": 72.5098,
      "duration": 0.1067,
      "velocity": 89,
      "chip": "ym2612"
    },
    {
      "channel": 3,
      "note": 55,
      "start": 72.6568,
      "duration": 0.1098,
      "velocity": 89,
      "chip": "ym2612"
    },
    {
      "channel": 0,
      "note": 59,
      "start": 72.6593,
      "duration": 0.1071,
      "velocity": 99,
      "chip": "ym2612"
    },
    {
      "channel": 2,
      "note": 62,
      "start": 72.8056,
      "duration": 0.1278,
      "velocity": 99,
      "chip": "ym2612"
    },
    {
      "channel": 5,
      "note": 43,
      "start": 72.8095,
      "duration": 0.1237,
      "velocity": 89,
      "chip": "ym2612"
    },
    {
      "channel": 3,
      "note": 55,
      "start": 72.9574,
      "duration": 0.1258,
      "velocity": 89,
      "chip": "ym2612"
    },
    {
      "channel": 0,
      "note": 62,
      "start": 72.9598,
      "duration": 0.1232,
      "velocity": 99,
      "chip": "ym2612"
    },
    {
      "channel": 1,
      "note": 33,
      "start": 73.1046,
      "duration": 0.1284,
      "velocity": 124,
      "chip": "ym2612"
    },
    {
      "channel": 4,
      "note": 47,
      "start": 73.1095,
      "duration": 6.9739,
      "velocity": 106,
      "chip": "ym2612"
    },
    {
      "channel": 5,
      "note": 54,
      "start": 73.1141,
      "duration": 6.9693,
      "velocity": 106,
      "chip": "ym2612"
    },
    {
      "channel": 2,
      "note": 58,
      "start": 73.1202,
      "duration": 0.1131,
      "velocity": 99,
      "chip": "ym2612"
    },
    {
      "channel": 0,
      "note": 47,
      "start": 73.1257,
      "duration": 0.1072,
      "velocity": 89,
      "chip": "ym2612"
    },
    {
      "channel": 3,
      "note": 59,
      "start": 73.2565,
      "duration": 0.1267,
      "velocity": 89,
      "chip": "ym2612"
    },
    {
      "channel": 0,
      "note": 58,
      "start": 73.262,
      "duration": 0.1209,
      "velocity": 99,
      "chip": "ym2612"
    },
    {
      "channel": 2,
      "note": 59,
      "start": 73.4036,
      "duration": 0.1296,
      "velocity": 99,
      "chip": "ym2612"
    },
    {
      "channel": 1,
      "note": 47,
      "start": 73.4076,
      "duration": 0.1253,
      "velocity": 89,
      "chip": "ym2612"
    },
    {
      "channel": 3,
      "note": 59,
      "start": 73.5715,
      "duration": 0.1117,
      "velocity": 89,
      "chip": "ym2612"
    },
    {
      "channel": 0,
      "note": 59,
      "start": 73.574,
      "duration": 0.109,
      "velocity": 99,
      "chip": "ym2612"
    },
    {
      "channel": 2,
      "note": 62,
      "start": 73.7203,
      "duration": 0.1129,
      "velocity": 99,
      "chip": "ym2612"
    },
    {
      "channel": 1,
      "note": 47,
      "start": 73.724,
      "duration": 0.1088,
      "velocity": 89,
      "chip": "ym2612"
    },
    {
      "channel": 3,
      "note": 59,
      "start": 73.8716,
      "duration": 0.1281,
      "velocity": 89,
      "chip": "ym2612"
    },
    {
      "channel": 0,
      "note": 62,
      "start": 73.874,
      "duration": 0.1255,
      "velocity": 99,
      "chip": "ym2612"
    },
    {
      "channel": 1,
      "note": 53,
      "start": 74.0201,
      "duration": 0.1296,
      "velocity": 127,
      "chip": "ym2612"
    },
    {
      "channel": 2,
      "note": 58,
      "start": 74.0256,
      "duration": 0.1245,
      "velocity": 99,
      "chip": "ym2612"
    },
    {
      "channel": 0,
      "note": 47,
      "start": 74.0295,
      "duration": 0.1201,
      "velocity": 89,
      "chip": "ym2612"
    },
    {
      "channel": 3,
      "note": 59,
      "start": 74.1717,
      "duration": 0.1282,
      "velocity": 89,
      "chip": "ym2612"
    },
    {
      "channel": 0,
      "note": 58,
      "start": 74.1757,
      "duration": 0.1241,
      "velocity": 99,
      "chip": "ym2612"
    },
    {
      "channel": 2,
      "note": 59,
      "start": 74.3203,
      "duration": 0.1297,
      "velocity": 99,
      "chip": "ym2612"
    },
    {
      "channel": 1,
      "note": 47,
      "start": 74.3243,
      "duration": 0.1254,
      "velocity": 89,
      "chip": "ym2612"
    },
    {
      "channel": 3,
      "note": 59,
      "start": 74.4716,
      "duration": 0.1282,
      "velocity": 89,
      "chip": "ym2612"
    },
    {
      "channel": 0,
      "note": 59,
      "start": 74.4741,
      "duration": 0.1255,
      "velocity": 99,
      "chip": "ym2612"
    },
    {
      "channel": 1,
      "note": 33,
      "start": 74.6368,
      "duration": 0.1131,
      "velocity": 124,
      "chip": "ym2612"
    },
    {
      "channel": 2,
      "note": 62,
      "start": 74.6413,
      "duration": 0.1088,
      "velocity": 99,
      "chip": "ym2612"
    },
    {
      "channel": 0,
      "note": 47,
      "start": 74.6453,
      "duration": 0.1045,
      "velocity": 89,
      "chip": "ym2612"
    },
    {
      "channel": 3,
      "note": 59,
      "start": 74.7883,
      "duration": 0.1115,
      "velocity": 89,
      "chip": "ym2612"
    },
    {
      "channel": 0,
      "note": 62,
      "start": 74.7911,
      "duration": 0.1086,
      "velocity": 99,
      "chip": "ym2612"
    },
    {
      "channel": 1,
      "note": 33,
      "start": 74.9371,
      "duration": 0.1294,
      "velocity": 124,
      "chip": "ym2612"
    },
    {
      "channel": 2,
      "note": 58,
      "start": 74.9414,
      "duration": 0.1254,
      "velocity": 99,
      "chip": "ym2612"
    },
    {
      "channel": 0,
      "note": 47,
      "start": 74.9453,
      "duration": 0.121,
      "velocity": 89,
      "chip": "ym2612"
    },
    {
      "channel": 3,
      "note": 59,
      "start": 75.0883,
      "duration": 0.1282,
      "velocity": 89,
      "chip": "ym2612"
    },
    {
      "channel": 0,
      "note": 58,
      "start": 75.0923,
      "duration": 0.124,
      "velocity": 99,
      "chip": "ym2612"
    },
    {
      "channel": 2,
      "note": 59,
      "start": 75.2371,
      "duration": 0.1296,
      "velocity": 99,
      "chip": "ym2612"
    },
    {
      "channel": 1,
      "note": 47,
      "start": 75.2411,
      "duration": 0.1253,
      "velocity": 89,
      "chip": "ym2612"
    },
    {
      "channel": 3,
      "note": 59,
      "start": 75.3883,
      "duration": 0.1281,
      "velocity": 89,
      "chip": "ym2612"
    },
    {
      "channel": 0,
      "note": 59,
      "start": 75.3908,
      "duration": 0.1254,
      "velocity": 99,
      "chip": "ym2612"
    },
    {
      "channel": 2,
      "note": 62,
      "start": 75.537,
      "duration": 0.1296,
      "velocity": 99,
      "chip": "ym2612"
    },
    {
      "channel": 1,
      "note": 47,
      "start": 75.5407,
      "duration": 0.1256,
      "velocity": 89,
      "chip": "ym2612"
    },
    {
      "channel": 3,
      "note": 59,
      "start": 75.705,
      "duration": 0.1115,
      "velocity": 89,
      "chip": "ym2612"
    },
    {
      "channel": 0,
      "note": 62,
      "start": 75.7074,
      "duration": 0.1089,
      "velocity": 99,
      "chip": "ym2612"
    },
    {
      "channel": 1,
      "note": 53,
      "start": 75.8531,
      "duration": 0.1134,
      "velocity": 127,
      "chip": "ym2612"
    },
    {
      "channel": 2,
      "note": 58,
      "start": 75.8584,
      "duration": 0.1083,
      "velocity": 99,
      "chip": "ym2612"
    },
    {
      "channel": 0,
      "note": 47,
      "start": 75.8624,
      "duration": 0.1039,
      "velocity": 89,
      "chip": "ym2612"
    },
    {
      "channel": 3,
      "note": 59,
      "start": 76.0049,
      "duration": 0.1282,
      "velocity": 89,
      "chip": "ym2612"
    },
    {
      "channel": 0,
      "note": 58,
      "start": 76.009,
      "duration": 0.124,
      "velocity": 99,
      "chip": "ym2612"
    },
    {
      "channel": 2,
      "note": 59,
      "start": 76.1537,
      "duration": 0.1296,
      "velocity": 99,
      "chip": "ym2612"
    },
    {
      "channel": 1,
      "note": 47,
      "start": 76.1577,
      "duration": 0.1253,
      "velocity": 89,
      "chip": "ym2612"
    },
    {
      "channel": 3,
      "note": 59,
      "start": 76.3049,
      "duration": 0.1283,
      "velocity": 89,
      "chip": "ym2612"
    },
    {
      "channel": 0,
      "note": 59,
      "start": 76.3073,
      "duration": 0.1257,
      "velocity": 99,
      "chip": "ym2612"
    },
    {
      "channel": 2,
      "note": 62,
      "start": 76.4537,
      "duration": 0.1296,
      "velocity": 99,
      "chip": "ym2612"
    },
    {
      "channel": 1,
      "note": 47,
      "start": 76.4574,
      "duration": 0.1255,
      "velocity": 89,
      "chip": "ym2612"
    },
    {
      "channel": 3,
      "note": 59,
      "start": 76.6049,
      "duration": 0.1282,
      "velocity": 89,
      "chip": "ym2612"
    },
    {
      "channel": 0,
      "note": 62,
      "start": 76.6074,
      "duration": 0.1255,
      "velocity": 99,
      "chip": "ym2612"
    },
    {
      "channel": 1,
      "note": 33,
      "start": 76.77,
      "duration": 0.113,
      "velocity": 124,
      "chip": "ym2612"
    },
    {
      "channel": 2,
      "note": 58,
      "start": 76.7743,
      "duration": 0.109,
      "velocity": 99,
      "chip": "ym2612"
    },
    {
      "channel": 0,
      "note": 47,
      "start": 76.7782,
      "duration": 0.1046,
      "velocity": 89,
      "chip": "ym2612"
    },
    {
      "channel": 3,
      "note": 59,
      "start": 76.9216,
      "duration": 0.1115,
      "velocity": 89,
      "chip": "ym2612"
    },
    {
      "channel": 0,
      "note": 58,
      "start": 76.9256,
      "duration": 0.1074,
      "velocity": 99,
      "chip": "ym2612"
    },
    {
      "channel": 2,
      "note": 59,
      "start": 77.0703,
      "duration": 0.1296,
      "velocity": 99,
      "chip": "ym2612"
    },
    {
      "channel": 1,
      "note": 47,
      "start": 77.0742,
      "duration": 0.1254,
      "velocity": 89,
      "chip": "ym2612"
    },
    {
      "channel": 3,
      "note": 59,
      "start": 77.2215,
      "duration": 0.1282,
      "velocity": 89,
      "chip": "ym2612"
    },
    {
      "channel": 0,
      "note": 59,
      "start": 77.224,
      "duration": 0.1255,
      "velocity": 99,
      "chip": "ym2612"
    },
    {
      "channel": 2,
      "note": 62,
      "start": 77.3703,
      "duration": 0.1296,
      "velocity": 99,
      "chip": "ym2612"
    },
    {
      "channel": 1,
      "note": 47,
      "start": 77.3741,
      "duration": 0.1255,
      "velocity": 89,
      "chip": "ym2612"
    },
    {
      "channel": 3,
      "note": 59,
      "start": 77.5215,
      "duration": 0.1283,
      "velocity": 89,
      "chip": "ym2612"
    },
    {
      "channel": 0,
      "note": 62,
      "start": 77.524,
      "duration": 0.1256,
      "velocity": 99,
      "chip": "ym2612"
    },
    {
      "channel": 1,
      "note": 53,
      "start": 77.6701,
      "duration": 0.1297,
      "velocity": 127,
      "chip": "ym2612"
    },
    {
      "channel": 2,
      "note": 58,
      "start": 77.6755,
      "duration": 0.1246,
      "velocity": 99,
      "chip": "ym2612"
    },
    {
      "channel": 0,
      "note": 47,
      "start": 77.6794,
      "duration": 0.1202,
      "velocity": 89,
      "chip": "ym2612"
    },
    {
      "channel": 3,
      "note": 59,
      "start": 77.8383,
      "duration": 0.1115,
      "velocity": 89,
      "chip": "ym2612"
    },
    {
      "channel": 0,
      "note": 58,
      "start": 77.8423,
      "duration": 0.1073,
      "velocity": 99,
      "chip": "ym2612"
    },
    {
      "channel": 2,
      "note": 59,
      "start": 77.9871,
      "duration": 0.1129,
      "velocity": 99,
      "chip": "ym2612"
    },
    {
      "channel": 1,
      "note": 47,
      "start": 77.991,
      "duration": 0.1087,
      "velocity": 89,
      "chip": "ym2612"
    },
    {
      "channel": 3,
      "note": 59,
      "start": 78.1382,
      "duration": 0.1284,
      "velocity": 89,
      "chip": "ym2612"
    },
    {
      "channel": 0,
      "note": 59,
      "start": 78.1407,
      "duration": 0.1257,
      "velocity": 99,
      "chip": "ym2612"
    },
    {
      "channel": 1,
      "note": 33,
      "start": 78.2868,
      "duration": 0.1298,
      "velocity": 124,
      "chip": "ym2612"
    },
    {
      "channel": 2,
      "note": 62,
      "start": 78.2913,
      "duration": 0.1256,
      "velocity": 99,
      "chip": "ym2612"
    },
    {
      "channel": 0,
      "note": 47,
      "start": 78.2952,
      "duration": 0.1212,
      "velocity": 89,
      "chip": "ym2612"
    },
    {
      "channel": 3,
      "note": 59,
      "start": 78.4384,
      "duration": 0.1281,
      "velocity": 89,
      "chip": "ym2612"
    },
    {
      "channel": 0,
      "note": 62,
      "start": 78.4411,
      "duration": 0.1252,
      "velocity": 99,
      "chip": "ym2612"
    },
    {
      "channel": 1,
      "note": 33,
      "start": 78.5867,
      "duration": 0.1298,
      "velocity": 124,
      "chip": "ym2612"
    },
    {
      "channel": 2,
      "note": 58,
      "start": 78.591,
      "duration": 0.1258,
      "velocity": 99,
      "chip": "ym2612"
    },
    {
      "channel": 0,
      "note": 47,
      "start": 78.5949,
      "duration": 0.1215,
      "velocity": 89,
      "chip": "ym2612"
    },
    {
      "channel": 3,
      "note": 59,
      "start": 78.7383,
      "duration": 0.1281,
      "velocity": 89,
      "chip": "ym2612"
    },
    {
      "channel": 0,
      "note": 58,
      "start": 78.7423,
      "duration": 0.1239,
      "velocity": 99,
      "chip": "ym2612"
    },
    {
      "channel": 2,
      "note": 59,
      "start": 78.9037,
      "duration": 0.113,
      "velocity": 99,
      "chip": "ym2612"
    },
    {
      "channel": 1,
      "note": 47,
      "start": 78.9077,
      "duration": 0.1087,
      "velocity": 89,
      "chip": "ym2612"
    },
    {
      "channel": 3,
      "note": 59,
      "start": 79.0549,
      "duration": 0.1115,
      "velocity": 89,
      "chip": "ym2612"
    },
    {
      "channel": 0,
      "note": 59,
      "start": 79.0574,
      "duration": 0.1088,
      "velocity": 99,
      "chip": "ym2612"
    },
    {
      "channel": 2,
      "note": 62,
      "start": 79.2037,
      "duration": 0.1297,
      "velocity": 99,
      "chip": "ym2612"
    },
    {
      "channel": 1,
      "note": 47,
      "start": 79.2074,
      "duration": 0.1256,
      "velocity": 89,
      "chip": "ym2612"
    },
    {
      "channel": 3,
      "note": 59,
      "start": 79.355,
      "duration": 0.1282,
      "velocity": 89,
      "chip": "ym2612"
    },
    {
      "channel": 0,
      "note": 62,
      "start": 79.3575,
      "duration": 0.1255,
      "velocity": 99,
      "chip": "ym2612"
    },
    {
      "channel": 1,
      "note": 53,
      "start": 79.5033,
      "duration": 0.1298,
      "velocity": 127,
      "chip": "ym2612"
    },
    {
      "channel": 2,
      "note": 58,
      "start": 79.5088,
      "duration": 0.1246,
      "velocity": 99,
      "chip": "ym2612"
    },
    {
      "channel": 0,
      "note": 47,
      "start": 79.5128,
      "duration": 0.1202,
      "velocity": 89,
      "chip": "ym2612"
    },
    {
      "channel": 3,
      "note": 59,
      "start": 79.6549,
      "duration": 0.1283,
      "velocity": 89,
      "chip": "ym2612"
    },
    {
      "channel": 0,
      "note": 58,
      "start": 79.659,
      "duration": 0.1241,
      "velocity": 99,
      "chip": "ym2612"
    },
    {
      "channel": 1,
      "note": 53,
      "start": 79.803,
      "duration": 0.13,
      "velocity": 127,
      "chip": "ym2612"
    },
    {
      "channel": 2,
      "note": 59,
      "start": 79.8073,
      "duration": 0.126,
      "velocity": 99,
      "chip": "ym2612"
    },
    {
      "channel": 0,
      "note": 47,
      "start": 79.8113,
      "duration": 0.1216,
      "velocity": 89,
      "chip": "ym2612"
    },
    {
      "channel": 1,
      "note": 53,
      "start": 79.9695,
      "duration": 0.1136,
      "velocity": 127,
      "chip": "ym2612"
    },
    {
      "channel": 3,
      "note": 59,
      "start": 79.9749,
      "duration": 0.1083,
      "velocity": 89,
      "chip": "ym2612"
    },
    {
      "channel": 0,
      "note": 59,
      "start": 79.9776,
      "duration": 0.1053,
      "velocity": 99,
      "chip": "ym2612"
    },
    {
      "channel": 1,
      "note": 53,
      "start": 80.1195,
      "duration": 0.1136,
      "velocity": 127,
      "chip": "ym2612"
    },
    {
      "channel": 4,
      "note": 47,
      "start": 80.1238,
      "duration": 0.1095,
      "velocity": 106,
      "chip": "ym2612"
    },
    {
      "channel": 5,
      "note": 54,
      "start": 80.1275,
      "duration": 0.106,
      "velocity": 106,
      "chip": "ym2612"
    },
    {
      "channel": 2,
      "note": 62,
      "start": 80.1302,
      "duration": 0.1034,
      "velocity": 99,
      "chip": "ym2612"
    },
    {
      "channel": 0,
      "note": 47,
      "start": 80.1347,
      "duration": 0.0983,
      "velocity": 89,
      "chip": "ym2612"
    },
    {
      "channel": 1,
      "note": 53,
      "start": 80.2696,
      "duration": 0.1302,
      "velocity": 127,
      "chip": "ym2612"
    },
    {
      "channel": 4,
      "note": 47,
      "start": 80.2741,
      "duration": 0.1259,
      "velocity": 106,
      "chip": "ym2612"
    },
    {
      "channel": 5,
      "note": 54,
      "start": 80.277,
      "duration": 0.1232,
      "velocity": 106,
      "chip": "ym2612"
    },
    {
      "channel": 3,
      "note": 59,
      "start": 80.2811,
      "duration": 0.1188,
      "velocity": 89,
      "chip": "ym2612"
    },
    {
      "channel": 0,
      "note": 62,
      "start": 80.2843,
      "duration": 0.1153,
      "velocity": 99,
      "chip": "ym2612"
    },
    {
      "channel": 2,
      "note": 33,
      "start": 80.4214,
      "duration": 0.1286,
      "velocity": 124,
      "chip": "ym2612"
    },
    {
      "channel": 4,
      "note": 47,
      "start": 80.425,
      "duration": 7.2247,
      "velocity": 106,
      "chip": "ym2612"
    },
    {
      "channel": 5,
      "note": 54,
      "start": 80.4283,
      "duration": 7.0048,
      "velocity": 106,
      "chip": "ym2612"
    },
    {
      "channel": 0,
      "note": 58,
      "start": 80.4329,
      "duration": 0.1168,
      "velocity": 99,
      "chip": "ym2612"
    },
    {
      "channel": 1,
      "note": 47,
      "start": 80.4368,
      "duration": 0.113,
      "velocity": 89,
      "chip": "ym2612"
    },
    {
      "channel": 3,
      "note": 59,
      "start": 80.5716,
      "duration": 0.1283,
      "velocity": 89,
      "chip": "ym2612"
    },
    {
      "channel": 0,
      "note": 58,
      "start": 80.5756,
      "duration": 0.1241,
      "velocity": 99,
      "chip": "ym2612"
    },
    {
      "channel": 1,
      "note": 59,
      "start": 80.7203,
      "duration": 0.1295,
      "velocity": 99,
      "chip": "ym2612"
    },
    {
      "channel": 2,
      "note": 47,
      "start": 80.7243,
      "duration": 0.1258,
      "velocity": 89,
      "chip": "ym2612"
    },
    {
      "channel": 3,
      "note": 59,
      "start": 80.8716,
      "duration": 0.1282,
      "velocity": 89,
      "chip": "ym2612"
    },
    {
      "channel": 0,
      "note": 59,
      "start": 80.874,
      "duration": 0.1256,
      "velocity": 99,
      "chip": "ym2612"
    },
    {
      "channel": 1,
      "note": 62,
      "start": 81.0368,
      "duration": 0.1128,
      "velocity": 99,
      "chip": "ym2612"
    },
    {
      "channel": 2,
      "note": 47,
      "start": 81.0407,
      "duration": 0.1092,
      "velocity": 89,
      "chip": "ym2612"
    },
    {
      "channel": 3,
      "note": 59,
      "start": 81.1882,
      "duration": 0.1115,
      "velocity": 89,
      "chip": "ym2612"
    },
    {
      "channel": 0,
      "note": 62,
      "start": 81.1906,
      "duration": 0.1088,
      "velocity": 99,
      "chip": "ym2612"
    },
    {
      "channel": 1,
      "note": 53,
      "start": 81.3369,
      "duration": 0.1296,
      "velocity": 127,
      "chip": "ym2612"
    },
    {
      "channel": 2,
      "note": 58,
      "start": 81.3426,
      "duration": 0.1242,
      "velocity": 99,
      "chip": "ym2612"
    },
    {
      "channel": 0,
      "note": 47,
      "start": 81.3466,
      "duration": 0.1198,
      "velocity": 89,
      "chip": "ym2612"
    },
    {
      "channel": 3,
      "note": 59,
      "start": 81.4883,
      "duration": 0.1281,
      "velocity": 89,
      "chip": "ym2612"
    },
    {
      "channel": 0,
      "note": 58,
      "start": 81.4923,
      "duration": 0.124,
      "velocity": 99,
      "chip": "ym2612"
    },
    {
      "channel": 2,
      "note": 59,
      "start": 81.6371,
      "duration": 0.1296,
      "velocity": 99,
      "chip": "ym2612"
    },
    {
      "channel": 1,
      "note": 47,
      "start": 81.641,
      "duration": 0.1253,
      "velocity": 89,
      "chip": "ym2612"
    },
    {
      "channel": 3,
      "note": 59,
      "start": 81.7883,
      "duration": 0.1282,
      "velocity": 89,
      "chip": "ym2612"
    },
    {
      "channel": 0,
      "note": 59,
      "start": 81.7907,
      "duration": 0.1256,
      "velocity": 99,
      "chip": "ym2612"
    },
    {
      "channel": 1,
      "note": 33,
      "start": 81.9368,
      "duration": 0.1298,
      "velocity": 124,
      "chip": "ym2612"
    },
    {
      "channel": 2,
      "note": 62,
      "start": 81.9413,
      "duration": 0.1256,
      "velocity": 99,
      "chip": "ym2612"
    },
    {
      "channel": 0,
      "note": 47,
      "start": 81.9453,
      "duration": 0.1212,
      "velocity": 89,
      "chip": "ym2612"
    },
    {
      "channel": 3,
      "note": 59,
      "start": 82.1051,
      "duration": 0.1114,
      "velocity": 89,
      "chip": "ym2612"
    },
    {
      "channel": 0,
      "note": 62,
      "start": 82.1078,
      "duration": 0.1085,
      "velocity": 99,
      "chip": "ym2612"
    },
    {
      "channel": 1,
      "note": 33,
      "start": 82.2537,
      "duration": 0.1127,
      "velocity": 124,
      "chip": "ym2612"
    },
    {
      "channel": 2,
      "note": 58,
      "start": 82.2579,
      "duration": 0.1088,
      "velocity": 99,
      "chip": "ym2612"
    },
    {
      "channel": 0,
      "note": 47,
      "start": 82.2619,
      "duration": 0.1044,
      "velocity": 89,
      "chip": "ym2612"
    },
    {
      "channel": 3,
      "note": 59,
      "start": 82.405,
      "duration": 0.1282,
      "velocity": 89,
      "chip": "ym2612"
    },
    {
      "channel": 0,
      "note": 58,
      "start": 82.409,
      "duration": 0.124,
      "velocity": 99,
      "chip": "ym2612"
    },
    {
      "channel": 2,
      "note": 59,
      "start": 82.5538,
      "duration": 0.1296,
      "velocity": 99,
      "chip": "ym2612"
    },
    {
      "channel": 1,
      "note": 47,
      "start": 82.5577,
      "duration": 0.1254,
      "velocity": 89,
      "chip": "ym2612"
    },
    {
      "channel": 3,
      "note": 59,
      "start": 82.7049,
      "duration": 0.1282,
      "velocity": 89,
      "chip": "ym2612"
    },
    {
      "channel": 0,
      "note": 59,
      "start": 82.7073,
      "duration": 0.1256,
      "velocity": 99,
      "chip": "ym2612"
    },
    {
      "channel": 2,
      "note": 62,
      "start": 82.8537,
      "duration": 0.1296,
      "velocity": 99,
      "chip": "ym2612"
    },
    {
      "channel": 1,
      "note": 47,
      "start": 82.8574,
      "duration": 0.1256,
      "velocity": 89,
      "chip": "ym2612"
    },
    {
      "channel": 3,
      "note": 59,
      "start": 83.0049,
      "duration": 0.1282,
      "velocity": 89,
      "chip": "ym2612"
    },
    {
      "channel": 0,
      "note": 62,
      "start": 83.0073,
      "duration": 0.1256,
      "velocity": 99,
      "chip": "ym2612"
    },
    {
      "channel": 1,
      "note": 53,
      "start": 83.1698,
      "duration": 0.1133,
      "velocity": 127,
      "chip": "ym2612"
    },
    {
      "channel": 2,
      "note": 58,
      "start": 83.1752,
      "duration": 0.1083,
      "velocity": 99,
      "chip": "ym2612"
    },
    {
      "channel": 0,
      "note": 47,
      "start": 83.1791,
      "duration": 0.1039,
      "velocity": 89,
      "chip": "ym2612"
    },
    {
      "channel": 3,
      "note": 59,
      "start": 83.3217,
      "duration": 0.1115,
      "velocity": 89,
      "chip": "ym2612"
    },
    {
      "channel": 0,
      "note": 58,
      "start": 83.3256,
      "duration": 0.1073,
      "velocity": 99,
      "chip": "ym2612"
    },
    {
      "channel": 2,
      "note": 59,
      "start": 83.4704,
      "duration": 0.1296,
      "velocity": 99,
      "chip": "ym2612"
    },
    {
      "channel": 1,
      "note": 47,
      "start": 83.4743,
      "duration": 0.1254,
      "velocity": 89,
      "chip": "ym2612"
    },
    {
      "channel": 3,
      "note": 59,
      "start": 83.6215,
      "duration": 0.1284,
      "velocity": 89,
      "chip": "ym2612"
    },
    {
      "channel": 0,
      "note": 59,
      "start": 83.624,
      "duration": 0.1257,
      "velocity": 99,
      "chip": "ym2612"
    },
    {
      "channel": 2,
      "note": 62,
      "start": 83.7715,
      "duration": 0.1286,
      "velocity": 99,
      "chip": "ym2612"
    },
    {
      "channel": 1,
      "note": 47,
      "start": 83.7752,
      "duration": 0.1246,
      "velocity": 89,
      "chip": "ym2612"
    },
    {
      "channel": 3,
      "note": 59,
      "start": 83.9217,
      "duration": 0.1281,
      "velocity": 89,
      "chip": "ym2612"
    },
    {
      "channel": 0,
      "note": 62,
      "start": 83.9241,
      "duration": 0.1254,
      "velocity": 99,
      "chip": "ym2612"
    },
    {
      "channel": 1,
      "note": 33,
      "start": 84.07,
      "duration": 0.1298,
      "velocity": 124,
      "chip": "ym2612"
    },
    {
      "channel": 2,
      "note": 58,
      "start": 84.0743,
      "duration": 0.1258,
      "velocity": 99,
      "chip": "ym2612"
    },
    {
      "channel": 0,
      "note": 47,
      "start": 84.0783,
      "duration": 0.1215,
      "velocity": 89,
      "chip": "ym2612"
    },
    {
      "channel": 3,
      "note": 59,
      "start": 84.2383,
      "duration": 0.1115,
      "velocity": 89,
      "chip": "ym2612"
    },
    {
      "channel": 0,
      "note": 58,
      "start": 84.2423,
      "duration": 0.1074,
      "velocity": 99,
      "chip": "ym2612"
    },
    {
      "channel": 2,
      "note": 59,
      "start": 84.3871,
      "duration": 0.1129,
      "velocity": 99,
      "chip": "ym2612"
    },
    {
      "channel": 1,
      "note": 47,
      "start": 84.391,
      "duration": 0.1087,
      "velocity": 89,
      "chip": "ym2612"
    },
    {
      "channel": 3,
      "note": 59,
      "start": 84.5383,
      "duration": 0.1282,
      "velocity": 89,
      "chip": "ym2612"
    },
    {
      "channel": 0,
      "note": 59,
      "start": 84.5407,
      "duration": 0.1256,
      "velocity": 99,
      "chip": "ym2612"
    },
    {
      "channel": 2,
      "note": 62,
      "start": 84.6871,
      "duration": 0.1296,
      "velocity": 99,
      "chip": "ym2612"
    },
    {
      "channel": 1,
      "note": 47,
      "start": 84.6908,
      "duration": 0.1256,
      "velocity": 89,
      "chip": "ym2612"
    },
    {
      "channel": 3,
      "note": 59,
      "start": 84.8383,
      "duration": 0.1282,
      "velocity": 89,
      "chip": "ym2612"
    },
    {
      "channel": 0,
      "note": 62,
      "start": 84.8407,
      "duration": 0.1256,
      "velocity": 99,
      "chip": "ym2612"
    },
    {
      "channel": 1,
      "note": 53,
      "start": 84.9865,
      "duration": 0.13,
      "velocity": 127,
      "chip": "ym2612"
    },
    {
      "channel": 2,
      "note": 58,
      "start": 84.9918,
      "duration": 0.1249,
      "velocity": 99,
      "chip": "ym2612"
    },
    {
      "channel": 0,
      "note": 47,
      "start": 84.9958,
      "duration": 0.1205,
      "velocity": 89,
      "chip": "ym2612"
    },
    {
      "channel": 3,
      "note": 59,
      "start": 85.1383,
      "duration": 0.1282,
      "velocity": 89,
      "chip": "ym2612"
    },
    {
      "channel": 0,
      "note": 58,
      "start": 85.1422,
      "duration": 0.1241,
      "velocity": 99,
      "chip": "ym2612"
    },
    {
      "channel": 2,
      "note": 59,
      "start": 85.3038,
      "duration": 0.1128,
      "velocity": 99,
      "chip": "ym2612"
    },
    {
      "channel": 1,
      "note": 47,
      "start": 85.3077,
      "duration": 0.1085,
      "velocity": 89,
      "chip": "ym2612"
    },
    {
      "channel": 3,
      "note": 59,
      "start": 85.4549,
      "duration": 0.1115,
      "velocity": 89,
      "chip": "ym2612"
    },
    {
      "channel": 0,
      "note": 59,
      "start": 85.4574,
      "duration": 0.1088,
      "velocity": 99,
      "chip": "ym2612"
    },
    {
      "channel": 1,
      "note": 33,
      "start": 85.6034,
      "duration": 0.1298,
      "velocity": 124,
      "chip": "ym2612"
    },
    {
      "channel": 2,
      "note": 62,
      "start": 85.608,
      "duration": 0.1255,
      "velocity": 99,
      "chip": "ym2612"
    },
    {
      "channel": 0,
      "note": 47,
      "start": 85.6119,
      "duration": 0.1212,
      "velocity": 89,
      "chip": "ym2612"
    },
    {
      "channel": 3,
      "note": 59,
      "start": 85.7551,
      "duration": 0.128,
      "velocity": 89,
      "chip": "ym2612"
    },
    {
      "channel": 0,
      "note": 62,
      "start": 85.7579,
      "duration": 0.1251,
      "velocity": 99,
      "chip": "ym2612"
    },
    {
      "channel": 1,
      "note": 33,
      "start": 85.9034,
      "duration": 0.1296,
      "velocity": 124,
      "chip": "ym2612"
    },
    {
      "channel": 2,
      "note": 58,
      "start": 85.9077,
      "duration": 0.1257,
      "velocity": 99,
      "chip": "ym2612"
    },
    {
      "channel": 0,
      "note": 47,
      "start": 85.9116,
      "duration": 0.1213,
      "velocity": 89,
      "chip": "ym2612"
    },
    {
      "channel": 3,
      "note": 59,
      "start": 86.055,
      "duration": 0.1281,
      "velocity": 89,
      "chip": "ym2612"
    },
    {
      "channel": 0,
      "note": 58,
      "start": 86.059,
      "duration": 0.1239,
      "velocity": 99,
      "chip": "ym2612"
    },
    {
      "channel": 2,
      "note": 59,
      "start": 86.2037,
      "duration": 0.1297,
      "velocity": 99,
      "chip": "ym2612"
    },
    {
      "channel": 1,
      "note": 47,
      "start": 86.2076,
      "duration": 0.1254,
      "velocity": 89,
      "chip": "ym2612"
    },
    {
      "channel": 3,
      "note": 59,
      "start": 86.3717,
      "duration": 0.1115,
      "velocity": 89,
      "chip": "ym2612"
    },
    {
      "channel": 0,
      "note": 59,
      "start": 86.3741,
      "duration": 0.1088,
      "velocity": 99,
      "chip": "ym2612"
    },
    {
      "channel": 2,
      "note": 62,
      "start": 86.5205,
      "duration": 0.1129,
      "velocity": 99,
      "chip": "ym2612"
    },
    {
      "channel": 1,
      "note": 47,
      "start": 86.5242,
      "duration": 0.1089,
      "velocity": 89,
      "chip": "ym2612"
    },
    {
      "channel": 3,
      "note": 59,
      "start": 86.6716,
      "duration": 0.1282,
      "velocity": 89,
      "chip": "ym2612"
    },
    {
      "channel": 0,
      "note": 62,
      "start": 86.674,
      "duration": 0.1256,
      "velocity": 99,
      "chip": "ym2612"
    },
    {
      "channel": 1,
      "note": 53,
      "start": 86.82,
      "duration": 0.1298,
      "velocity": 127,
      "chip": "ym2612"
    },
    {
      "channel": 2,
      "note": 58,
      "start": 86.8256,
      "duration": 0.1246,
      "velocity": 99,
      "chip": "ym2612"
    },
    {
      "channel": 0,
      "note": 47,
      "start": 86.8295,
      "duration": 0.1202,
      "velocity": 89,
      "chip": "ym2612"
    },
    {
      "channel": 3,
      "note": 59,
      "start": 86.9716,
      "duration": 0.1283,
      "velocity": 89,
      "chip": "ym2612"
    },
    {
      "channel": 0,
      "note": 58,
      "start": 86.9756,
      "duration": 0.1241,
      "velocity": 99,
      "chip": "ym2612"
    },
    {
      "channel": 1,
      "note": 53,
      "start": 87.1197,
      "duration": 0.13,
      "velocity": 127,
      "chip": "ym2612"
    },
    {
      "channel": 2,
      "note": 59,
      "start": 87.124,
      "duration": 0.126,
      "velocity": 99,
      "chip": "ym2612"
    },
    {
      "channel": 0,
      "note": 47,
      "start": 87.128,
      "duration": 0.1216,
      "velocity": 89,
      "chip": "ym2612"
    },
    {
      "channel": 1,
      "note": 53,
      "start": 87.2696,
      "duration": 0.1301,
      "velocity": 127,
      "chip": "ym2612"
    },
    {
      "channel": 3,
      "note": 59,
      "start": 87.275,
      "duration": 0.1249,
      "velocity": 89,
      "chip": "ym2612"
    },
    {
      "channel": 0,
      "note": 59,
      "start": 87.2778,
      "duration": 0.1218,
      "velocity": 99,
      "chip": "ym2612"
    },
    {
      "channel": 1,
      "note": 53,
      "start": 87.4363,
      "duration": 0.1135,
      "velocity": 127,
      "chip": "ym2612"
    },
    {
      "channel": 2,
      "note": 62,
      "start": 87.4404,
      "duration": 0.1097,
      "velocity": 99,
      "chip": "ym2612"
    },
    {
      "channel": 0,
      "note": 47,
      "start": 87.4444,
      "duration": 0.1053,
      "velocity": 89,
      "chip": "ym2612"
    },
    {
      "channel": 1,
      "note": 53,
      "start": 87.5862,
      "duration": 0.1134,
      "velocity": 127,
      "chip": "ym2612"
    },
    {
      "channel": 3,
      "note": 59,
      "start": 87.5918,
      "duration": 0.108,
      "velocity": 89,
      "chip": "ym2612"
    },
    {
      "channel": 5,
      "note": 62,
      "start": 87.5946,
      "duration": 0.1054,
      "velocity": 99,
      "chip": "ym2612"
    },
    {
      "channel": 0,
      "note": 33,
      "start": 87.7401,
      "duration": 0.1263,
      "velocity": 124,
      "chip": "ym2612"
    },
    {
      "channel": 4,
      "note": 49,
      "start": 87.7441,
      "duration": 6.9728,
      "velocity": 106,
      "chip": "ym2612"
    },
    {
      "channel": 2,
      "note": 56,
      "start": 87.7479,
      "duration": 6.9691,
      "velocity": 106,
      "chip": "ym2612"
    },
    {
      "channel": 1,
      "note": 59,
      "start": 87.7532,
      "duration": 0.1134,
      "velocity": 99,
      "chip": "ym2612"
    },
    {
      "channel": 3,
      "note": 49,
      "start": 87.7577,
      "duration": 0.1089,
      "velocity": 89,
      "chip": "ym2612"
    },
    {
      "channel": 5,
      "note": 61,
      "start": 87.89,
      "duration": 0.1267,
      "velocity": 89,
      "chip": "ym2612"
    },
    {
      "channel": 0,
      "note": 56,
      "start": 87.8946,
      "duration": 0.1218,
      "velocity": 99,
      "chip": "ym2612"
    },
    {
      "channel": 1,
      "note": 61,
      "start": 88.0387,
      "duration": 0.1277,
      "velocity": 99,
      "chip": "ym2612"
    },
    {
      "channel": 3,
      "note": 49,
      "start": 88.0429,
      "duration": 0.1237,
      "velocity": 89,
      "chip": "ym2612"
    },
    {
      "channel": 5,
      "note": 61,
      "start": 88.1905,
      "duration": 0.1262,
      "velocity": 89,
      "chip": "ym2612"
    },
    {
      "channel": 0,
      "note": 59,
      "start": 88.193,
      "duration": 0.1234,
      "velocity": 99,
      "chip": "ym2612"
    },
    {
      "channel": 1,
      "note": 64,
      "start": 88.339,
      "duration": 0.1275,
      "velocity": 99,
      "chip": "ym2612"
    },
    {
      "channel": 3,
      "note": 49,
      "start": 88.3428,
      "duration": 0.1239,
      "velocity": 89,
      "chip": "ym2612"
    },
    {
      "channel": 5,
      "note": 61,
      "start": 88.5072,
      "duration": 0.1094,
      "velocity": 89,
      "chip": "ym2612"
    },
    {
      "channel": 0,
      "note": 64,
      "start": 88.5097,
      "duration": 0.1066,
      "velocity": 99,
      "chip": "ym2612"
    },
    {
      "channel": 1,
      "note": 53,
      "start": 88.6542,
      "duration": 0.1123,
      "velocity": 127,
      "chip": "ym2612"
    },
    {
      "channel": 3,
      "note": 59,
      "start": 88.6612,
      "duration": 0.1055,
      "velocity": 99,
      "chip": "ym2612"
    },
    {
      "channel": 0,
      "note": 49,
      "start": 88.6656,
      "duration": 0.1008,
      "velocity": 89,
      "chip": "ym2612"
    },
    {
      "channel": 5,
      "note": 61,
      "start": 88.8069,
      "duration": 0.1265,
      "velocity": 89,
      "chip": "ym2612"
    },
    {
      "channel": 0,
      "note": 56,
      "start": 88.8109,
      "duration": 0.1223,
      "velocity": 99,
      "chip": "ym2612"
    },
    {
      "channel": 3,
      "note": 61,
      "start": 88.9553,
      "duration": 0.128,
      "velocity": 99,
      "chip": "ym2612"
    },
    {
      "channel": 1,
      "note": 49,
      "start": 88.9593,
      "duration": 0.1239,
      "velocity": 89,
      "chip": "ym2612"
    },
    {
      "channel": 5,
      "note": 61,
      "start": 89.1069,
      "duration": 0.1265,
      "velocity": 89,
      "chip": "ym2612"
    },
    {
      "channel": 0,
      "note": 59,
      "start": 89.1094,
      "duration": 0.1237,
      "velocity": 99,
      "chip": "ym2612"
    },
    {
      "channel": 1,
      "note": 33,
      "start": 89.2544,
      "duration": 0.1289,
      "velocity": 124,
      "chip": "ym2612"
    },
    {
      "channel": 3,
      "note": 64,
      "start": 89.2596,
      "duration": 0.1238,
      "velocity": 99,
      "chip": "ym2612"
    },
    {
      "channel": 0,
      "note": 49,
      "start": 89.2636,
      "duration": 0.1196,
      "velocity": 89,
      "chip": "ym2612"
    },
    {
      "channel": 5,
      "note": 61,
      "start": 89.407,
      "duration": 0.1264,
      "velocity": 89,
      "chip": "ym2612"
    },
    {
      "channel": 0,
      "note": 64,
      "start": 89.4098,
      "duration": 0.1233,
      "velocity": 99,
      "chip": "ym2612"
    },
    {
      "channel": 1,
      "note": 73,
      "start": 89.5717,
      "duration": 1.795,
      "velocity": 86,
      "chip": "ym2612"
    },
    {
      "channel": 3,
      "note": 33,
      "start": 89.5784,
      "duration": 0.105,
      "velocity": 124,
      "chip": "ym2612"
    },
    {
      "channel": 0,
      "note": 59,
      "start": 89.5841,
      "duration": 0.099,
      "velocity": 99,
      "chip": "ym2612"
    },
    {
      "channel": 5,
      "note": 49,
      "start": 89.5881,
      "duration": 0.0955,
      "velocity": 89,
      "chip": "ym2612"
    },
    {
      "channel": 0,
      "note": 61,
      "start": 89.7238,
      "duration": 0.1095,
      "velocity": 89,
      "chip": "ym2612"
    },
    {
      "channel": 3,
      "note": 56,
      "start": 89.7278,
      "duration": 0.1057,
      "velocity": 99,
      "chip": "ym2612"
    },
    {
      "channel": 5,
      "note": 61,
      "start": 89.8723,
      "duration": 0.1278,
      "velocity": 99,
      "chip": "ym2612"
    },
    {
      "channel": 0,
      "note": 49,
      "start": 89.8763,
      "duration": 0.1236,
      "velocity": 89,
      "chip": "ym2612"
    },
    {
      "channel": 3,
      "note": 61,
      "start": 90.0237,
      "duration": 0.1263,
      "velocity": 89,
      "chip": "ym2612"
    },
    {
      "channel": 0,
      "note": 59,
      "start": 90.0264,
      "duration": 0.1234,
      "velocity": 99,
      "chip": "ym2612"
    },
    {
      "channel": 5,
      "note": 64,
      "start": 90.1721,
      "duration": 0.128,
      "velocity": 99,
      "chip": "ym2612"
    },
    {
      "channel": 0,
      "note": 49,
      "start": 90.176,
      "duration": 0.1238,
      "velocity": 89,
      "chip": "ym2612"
    },
    {
      "channel": 3,
      "note": 61,
      "start": 90.3234,
      "duration": 0.1266,
      "velocity": 89,
      "chip": "ym2612"
    },
    {
      "channel": 0,
      "note": 64,
      "start": 90.3262,
      "duration": 0.1237,
      "velocity": 99,
      "chip": "ym2612"
    },
    {
      "channel": 5,
      "note": 53,
      "start": 90.471,
      "duration": 0.1292,
      "velocity": 127,
      "chip": "ym2612"
    },
    {
      "channel": 0,
      "note": 59,
      "start": 90.4772,
      "duration": 0.1226,
      "velocity": 99,
      "chip": "ym2612"
    },
    {
      "channel": 3,
      "note": 49,
      "start": 90.4812,
      "duration": 0.1188,
      "velocity": 89,
      "chip": "ym2612"
    },
    {
      "channel": 0,
      "note": 61,
      "start": 90.6403,
      "duration": 0.1094,
      "velocity": 89,
      "chip": "ym2612"
    },
    {
      "channel": 3,
      "note": 56,
      "start": 90.6443,
      "duration": 0.1056,
      "velocity": 99,
      "chip": "ym2612"
    },
    {
      "channel": 5,
      "note": 61,
      "start": 90.7889,
      "duration": 0.1111,
      "velocity": 99,
      "chip": "ym2612"
    },
    {
      "channel": 0,
      "note": 49,
      "start": 90.7929,
      "duration": 0.1069,
      "velocity": 89,
      "chip": "ym2612"
    },
    {
      "channel": 3,
      "note": 61,
      "start": 90.9407,
      "duration": 0.1258,
      "velocity": 89,
      "chip": "ym2612"
    },
    {
      "channel": 0,
      "note": 59,
      "start": 90.9435,
      "duration": 0.1229,
      "velocity": 99,
      "chip": "ym2612"
    },
    {
      "channel": 5,
      "note": 64,
      "start": 91.09,
      "duration": 0.1268,
      "velocity": 99,
      "chip": "ym2612"
    },
    {
      "channel": 0,
      "note": 49,
      "start": 91.0939,
      "duration": 0.1225,
      "velocity": 89,
      "chip": "ym2612"
    },
    {
      "channel": 3,
      "note": 61,
      "start": 91.2402,
      "duration": 0.1265,
      "velocity": 89,
      "chip": "ym2612"
    },
    {
      "channel": 0,
      "note": 64,
      "start": 91.243,
      "duration": 0.1235,
      "velocity": 99,
      "chip": "ym2612"
    },
    {
      "channel": 1,
      "note": 72,
      "start": 91.3877,
      "duration": 3.5787,
      "velocity": 86,
      "chip": "ym2612"
    },
    {
      "channel": 5,
      "note": 33,
      "start": 91.395,
      "duration": 0.122,
      "velocity": 124,
      "chip": "ym2612"
    },
    {
      "channel": 0,
      "note": 59,
      "start": 91.4007,
      "duration": 0.116,
      "velocity": 99,
      "chip": "ym2612"
    },
    {
      "channel": 3,
      "note": 49,
      "start": 91.4047,
      "duration": 0.1121,
      "velocity": 89,
      "chip": "ym2612"
    },
    {
      "channel": 0,
      "note": 61,
      "start": 91.5404,
      "duration": 0.1261,
      "velocity": 89,
      "chip": "ym2612"
    },
    {
      "channel": 3,
      "note": 56,
      "start": 91.545,
      "duration": 0.1217,
      "velocity": 99,
      "chip": "ym2612"
    },
    {
      "channel": 5,
      "note": 61,
      "start": 91.7056,
      "duration": 0.1112,
      "velocity": 99,
      "chip": "ym2612"
    },
    {
      "channel": 0,
      "note": 49,
      "start": 91.7095,
      "duration": 0.1069,
      "velocity": 89,
      "chip": "ym2612"
    },
    {
      "channel": 3,
      "note": 61,
      "start": 91.857,
      "duration": 0.1096,
      "velocity": 89,
      "chip": "ym2612"
    },
    {
      "channel": 0,
      "note": 59,
      "start": 91.8597,
      "duration": 0.1067,
      "velocity": 99,
      "chip": "ym2612"
    },
    {
      "channel": 5,
      "note": 64,
      "start": 92.0054,
      "duration": 0.128,
      "velocity": 99,
      "chip": "ym2612"
    },
    {
      "channel": 0,
      "note": 49,
      "start": 92.0094,
      "duration": 0.1238,
      "velocity": 89,
      "chip": "ym2612"
    },
    {
      "channel": 3,
      "note": 61,
      "start": 92.1568,
      "duration": 0.1264,
      "velocity": 89,
      "chip": "ym2612"
    },
    {
      "channel": 0,
      "note": 63,
      "start": 92.1596,
      "duration": 0.1235,
      "velocity": 99,
      "chip": "ym2612"
    },
    {
      "channel": 5,
      "note": 53,
      "start": 92.3042,
      "duration": 0.1292,
      "velocity": 127,
      "chip": "ym2612"
    },
    {
      "channel": 0,
      "note": 59,
      "start": 92.3105,
      "duration": 0.1226,
      "velocity": 99,
      "chip": "ym2612"
    },
    {
      "channel": 3,
      "note": 49,
      "start": 92.3144,
      "duration": 0.1188,
      "velocity": 89,
      "chip": "ym2612"
    },
    {
      "channel": 0,
      "note": 61,
      "start": 92.4573,
      "duration": 0.1258,
      "velocity": 89,
      "chip": "ym2612"
    },
    {
      "channel": 3,
      "note": 56,
      "start": 92.4617,
      "duration": 0.1217,
      "velocity": 99,
      "chip": "ym2612"
    },
    {
      "channel": 5,
      "note": 61,
      "start": 92.6055,
      "duration": 0.1279,
      "velocity": 99,
      "chip": "ym2612"
    },
    {
      "channel": 0,
      "note": 49,
      "start": 92.6095,
      "duration": 0.1236,
      "velocity": 89,
      "chip": "ym2612"
    },
    {
      "channel": 3,
      "note": 61,
      "start": 92.7737,
      "duration": 0.1096,
      "velocity": 89,
      "chip": "ym2612"
    },
    {
      "channel": 0,
      "note": 59,
      "start": 92.7764,
      "duration": 0.1067,
      "velocity": 99,
      "chip": "ym2612"
    },
    {
      "channel": 5,
      "note": 33,
      "start": 92.921,
      "duration": 0.1125,
      "velocity": 124,
      "chip": "ym2612"
    },
    {
      "channel": 0,
      "note": 64,
      "start": 92.9261,
      "duration": 0.1071,
      "velocity": 99,
      "chip": "ym2612"
    },
    {
      "channel": 3,
      "note": 49,
      "start": 92.9301,
      "duration": 0.1033,
      "velocity": 89,
      "chip": "ym2612"
    },
    {
      "channel": 0,
      "note": 61,
      "start": 93.0737,
      "duration": 0.1261,
      "velocity": 89,
      "chip": "ym2612"
    },
    {
      "channel": 3,
      "note": 63,
      "start": 93.0764,
      "duration": 0.1236,
      "velocity": 99,
      "chip": "ym2612"
    },
    {
      "channel": 5,
      "note": 33,
      "start": 93.2237,
      "duration": 0.1266,
      "velocity": 124,
      "chip": "ym2612"
    },
    {
      "channel": 0,
      "note": 59,
      "start": 93.2288,
      "duration": 0.121,
      "velocity": 99,
      "chip": "ym2612"
    },
    {
      "channel": 3,
      "note": 49,
      "start": 93.2332,
      "duration": 0.1168,
      "velocity": 89,
      "chip": "ym2612"
    },
    {
      "channel": 0,
      "note": 61,
      "start": 93.374,
      "duration": 0.1258,
      "velocity": 89,
      "chip": "ym2612"
    },
    {
      "channel": 3,
      "note": 56,
      "start": 93.378,
      "duration": 0.1221,
      "velocity": 99,
      "chip": "ym2612"
    },
    {
      "channel": 5,
      "note": 61,
      "start": 93.5221,
      "duration": 0.128,
      "velocity": 99,
      "chip": "ym2612"
    },
    {
      "channel": 0,
      "note": 49,
      "start": 93.5261,
      "duration": 0.1237,
      "velocity": 89,
      "chip": "ym2612"
    },
    {
      "channel": 3,
      "note": 61,
      "start": 93.6736,
      "duration": 0.1265,
      "velocity": 89,
      "chip": "ym2612"
    },
    {
      "channel": 0,
      "note": 59,
      "start": 93.6763,
      "duration": 0.1235,
      "velocity": 99,
      "chip": "ym2612"
    },
    {
      "channel": 5,
      "note": 64,
      "start": 93.8388,
      "duration": 0.1112,
      "velocity": 99,
      "chip": "ym2612"
    },
    {
      "channel": 0,
      "note": 49,
      "start": 93.8428,
      "duration": 0.1069,
      "velocity": 89,
      "chip": "ym2612"
    },
    {
      "channel": 3,
      "note": 61,
      "start": 93.9901,
      "duration": 0.1098,
      "velocity": 89,
      "chip": "ym2612"
    },
    {
      "channel": 0,
      "note": 63,
      "start": 93.9929,
      "duration": 0.1069,
      "velocity": 99,
      "chip": "ym2612"
    },
    {
      "channel": 5,
      "note": 53,
      "start": 94.1377,
      "duration": 0.1292,
      "velocity": 127,
      "chip": "ym2612"
    },
    {
      "channel": 0,
      "note": 59,
      "start": 94.1439,
      "duration": 0.1226,
      "velocity": 99,
      "chip": "ym2612"
    },
    {
      "channel": 3,
      "note": 49,
      "start": 94.1479,
      "duration": 0.1188,
      "velocity": 89,
      "chip": "ym2612"
    },
    {
      "channel": 0,
      "note": 61,
      "start": 94.2903,
      "duration": 0.1261,
      "velocity": 89,
      "chip": "ym2612"
    },
    {
      "channel": 3,
      "note": 56,
      "start": 94.2943,
      "duration": 0.1223,
      "velocity": 99,
      "chip": "ym2612"
    },
    {
      "channel": 5,
      "note": 61,
      "start": 94.4389,
      "duration": 0.1279,
      "velocity": 99,
      "chip": "ym2612"
    },
    {
      "channel": 0,
      "note": 49,
      "start": 94.4429,
      "duration": 0.1236,
      "velocity": 89,
      "chip": "ym2612"
    },
    {
      "channel": 3,
      "note": 61,
      "start": 94.5902,
      "duration": 0.1265,
      "velocity": 89,
      "chip": "ym2612"
    },
    {
      "channel": 0,
      "note": 59,
      "start": 94.593,
      "duration": 0.1235,
      "velocity": 99,
      "chip": "ym2612"
    },
    {
      "channel": 4,
      "note": 49,
      "start": 94.739,
      "duration": 0.1276,
      "velocity": 106,
      "chip": "ym2612"
    },
    {
      "channel": 2,
      "note": 56,
      "start": 94.7423,
      "duration": 0.1246,
      "velocity": 106,
      "chip": "ym2612"
    },
    {
      "channel": 5,
      "note": 64,
      "start": 94.745,
      "duration": 0.1218,
      "velocity": 99,
      "chip": "ym2612"
    },
    {
      "channel": 0,
      "note": 49,
      "start": 94.7495,
      "duration": 0.1169,
      "velocity": 89,
      "chip": "ym2612"
    },
    {
      "channel": 4,
      "note": 49,
      "start": 94.9054,
      "duration": 0.1112,
      "velocity": 106,
      "chip": "ym2612"
    },
    {
      "channel": 2,
      "note": 56,
      "start": 94.9084,
      "duration": 0.1084,
      "velocity": 106,
      "chip": "ym2612"
    },
    {
      "channel": 3,
      "note": 61,
      "start": 94.9124,
      "duration": 0.1041,
      "velocity": 89,
      "chip": "ym2612"
    },
    {
      "channel": 0,
      "note": 63,
      "start": 94.9157,
      "duration": 0.1006,
      "velocity": 99,
      "chip": "ym2612"
    },
    {
      "channel": 1,
      "note": 69,
      "start": 95.0541,
      "duration": 5.0125,
      "velocity": 86,
      "chip": "ym2612"
    },
    {
      "channel": 5,
      "note": 33,
      "start": 95.0602,
      "duration": 0.1066,
      "velocity": 124,
      "chip": "ym2612"
    },
    {
      "channel": 4,
      "note": 45,
      "start": 95.0647,
      "duration": 7.2186,
      "velocity": 106,
      "chip": "ym2612"
    },
    {
      "channel": 2,
      "note": 52,
      "start": 95.0691,
      "duration": 6.981,
      "velocity": 106,
      "chip": "ym2612"
    },
    {
      "channel": 0,
      "note": 56,
      "start": 95.0737,
      "duration": 0.0927,
      "velocity": 99,
      "chip": "ym2612"
    },
    {
      "channel": 3,
      "note": 45,
      "start": 95.0779,
      "duration": 0.0887,
      "velocity": 89,
      "chip": "ym2612"
    },
    {
      "channel": 0,
      "note": 57,
      "start": 95.2073,
      "duration": 0.1257,
      "velocity": 89,
      "chip": "ym2612"
    },
    {
      "channel": 3,
      "note": 56,
      "start": 95.212,
      "duration": 0.1212,
      "velocity": 99,
      "chip": "ym2612"
    },
    {
      "channel": 5,
      "note": 57,
      "start": 95.3555,
      "duration": 0.1278,
      "velocity": 99,
      "chip": "ym2612"
    },
    {
      "channel": 0,
      "note": 45,
      "start": 95.3602,
      "duration": 0.1228,
      "velocity": 89,
      "chip": "ym2612"
    },
    {
      "channel": 3,
      "note": 57,
      "start": 95.5076,
      "duration": 0.1256,
      "velocity": 89,
      "chip": "ym2612"
    },
    {
      "channel": 0,
      "note": 57,
      "start": 95.5103,
      "duration": 0.1227,
      "velocity": 99,
      "chip": "ym2612"
    },
    {
      "channel": 5,
      "note": 61,
      "start": 95.6554,
      "duration": 0.1279,
      "velocity": 99,
      "chip": "ym2612"
    },
    {
      "channel": 0,
      "note": 45,
      "start": 95.6593,
      "duration": 0.1237,
      "velocity": 89,
      "chip": "ym2612"
    },
    {
      "channel": 3,
      "note": 57,
      "start": 95.807,
      "duration": 0.1261,
      "velocity": 89,
      "chip": "ym2612"
    },
    {
      "channel": 0,
      "note": 61,
      "start": 95.8098,
      "duration": 0.1232,
      "velocity": 99,
      "chip": "ym2612"
    },
    {
      "channel": 5,
      "note": 53,
      "start": 95.9709,
      "duration": 0.1126,
      "velocity": 127,
      "chip": "ym2612"
    },
    {
      "channel": 0,
      "note": 56,
      "start": 95.9775,
      "duration": 0.1056,
      "velocity": 99,
      "chip": "ym2612"
    },
    {
      "channel": 3,
      "note": 45,
      "start": 95.9815,
      "duration": 0.1018,
      "velocity": 89,
      "chip": "ym2612"
    },
    {
      "channel": 0,
      "note": 57,
      "start": 96.1237,
      "duration": 0.1095,
      "velocity": 89,
      "chip": "ym2612"
    },
    {
      "channel": 3,
      "note": 56,
      "start": 96.128,
      "duration": 0.1054,
      "velocity": 99,
      "chip": "ym2612"
    },
    {
      "channel": 5,
      "note": 57,
      "start": 96.2721,
      "duration": 0.1279,
      "velocity": 99,
      "chip": "ym2612"
    },
    {
      "channel": 0,
      "note": 45,
      "start": 96.2761,
      "duration": 0.1236,
      "velocity": 89,
      "chip": "ym2612"
    },
    {
      "channel": 3,
      "note": 57,
      "start": 96.4237,
      "duration": 0.1263,
      "velocity": 89,
      "chip": "ym2612"
    },
    {
      "channel": 0,
      "note": 57,
      "start": 96.4264,
      "duration": 0.1234,
      "velocity": 99,
      "chip": "ym2612"
    },
    {
      "channel": 5,
      "note": 33,
      "start": 96.571,
      "duration": 0.1292,
      "velocity": 124,
      "chip": "ym2612"
    },
    {
      "channel": 0,
      "note": 61,
      "start": 96.5764,
      "duration": 0.1234,
      "velocity": 99,
      "chip": "ym2612"
    },
    {
      "channel": 3,
      "note": 45,
      "start": 96.5804,
      "duration": 0.1197,
      "velocity": 89,
      "chip": "ym2612"
    },
    {
      "channel": 0,
      "note": 57,
      "start": 96.7238,
      "duration": 0.1261,
      "velocity": 89,
      "chip": "ym2612"
    },
    {
      "channel": 3,
      "note": 61,
      "start": 96.7265,
      "duration": 0.1235,
      "velocity": 99,
      "chip": "ym2612"
    },
    {
      "channel": 5,
      "note": 33,
      "start": 96.8724,
      "duration": 0.1278,
      "velocity": 124,
      "chip": "ym2612"
    },
    {
      "channel": 0,
      "note": 56,
      "start": 96.8775,
      "duration": 0.1223,
      "velocity": 99,
      "chip": "ym2612"
    },
    {
      "channel": 3,
      "note": 45,
      "start": 96.8815,
      "duration": 0.1185,
      "velocity": 89,
      "chip": "ym2612"
    },
    {
      "channel": 0,
      "note": 57,
      "start": 97.0402,
      "duration": 0.1096,
      "velocity": 89,
      "chip": "ym2612"
    },
    {
      "channel": 3,
      "note": 56,
      "start": 97.0443,
      "duration": 0.1058,
      "velocity": 99,
      "chip": "ym2612"
    },
    {
      "channel": 5,
      "note": 57,
      "start": 97.189,
      "duration": 0.1111,
      "velocity": 99,
      "chip": "ym2612"
    },
    {
      "channel": 0,
      "note": 45,
      "start": 97.1929,
      "duration": 0.1069,
      "velocity": 89,
      "chip": "ym2612"
    },
    {
      "channel": 3,
      "note": 57,
      "start": 97.3404,
      "duration": 0.1263,
      "velocity": 89,
      "chip": "ym2612"
    },
    {
      "channel": 0,
      "note": 57,
      "start": 97.3431,
      "duration": 0.1234,
      "velocity": 99,
      "chip": "ym2612"
    },
    {
      "channel": 5,
      "note": 61,
      "start": 97.4887,
      "duration": 0.128,
      "velocity": 99,
      "chip": "ym2612"
    },
    {
      "channel": 0,
      "note": 45,
      "start": 97.4927,
      "duration": 0.1239,
      "velocity": 89,
      "chip": "ym2612"
    },
    {
      "channel": 3,
      "note": 57,
      "start": 97.6402,
      "duration": 0.1264,
      "velocity": 89,
      "chip": "ym2612"
    },
    {
      "channel": 0,
      "note": 61,
      "start": 97.6429,
      "duration": 0.1235,
      "velocity": 99,
      "chip": "ym2612"
    },
    {
      "channel": 5,
      "note": 53,
      "start": 97.7876,
      "duration": 0.1292,
      "velocity": 127,
      "chip": "ym2612"
    },
    {
      "channel": 0,
      "note": 56,
      "start": 97.7938,
      "duration": 0.1226,
      "velocity": 99,
      "chip": "ym2612"
    },
    {
      "channel": 3,
      "note": 45,
      "start": 97.7978,
      "duration": 0.1188,
      "velocity": 89,
      "chip": "ym2612"
    },
    {
      "channel": 0,
      "note": 57,
      "start": 97.9404,
      "duration": 0.126,
      "velocity": 89,
      "chip": "ym2612"
    },
    {
      "channel": 3,
      "note": 56,
      "start": 97.9443,
      "duration": 0.1223,
      "velocity": 99,
      "chip": "ym2612"
    },
    {
      "channel": 5,
      "note": 57,
      "start": 98.1056,
      "duration": 0.1111,
      "velocity": 99,
      "chip": "ym2612"
    },
    {
      "channel": 0,
      "note": 45,
      "start": 98.1095,
      "duration": 0.1069,
      "velocity": 89,
      "chip": "ym2612"
    },
    {
      "channel": 3,
      "note": 57,
      "start": 98.2574,
      "duration": 0.1092,
      "velocity": 89,
      "chip": "ym2612"
    },
    {
      "channel": 0,
      "note": 57,
      "start": 98.2602,
      "duration": 0.1062,
      "velocity": 99,
      "chip": "ym2612"
    },
    {
      "channel": 5,
      "note": 61,
      "start": 98.4068,
      "duration": 0.1267,
      "velocity": 99,
      "chip": "ym2612"
    },
    {
      "channel": 0,
      "note": 45,
      "start": 98.4107,
      "duration": 0.1225,
      "velocity": 89,
      "chip": "ym2612"
    },
    {
      "channel": 3,
      "note": 57,
      "start": 98.5568,
      "duration": 0.1264,
      "velocity": 89,
      "chip": "ym2612"
    },
    {
      "channel": 0,
      "note": 61,
      "start": 98.5596,
      "duration": 0.1235,
      "velocity": 99,
      "chip": "ym2612"
    },
    {
      "channel": 5,
      "note": 33,
      "start": 98.7054,
      "duration": 0.1282,
      "velocity": 124,
      "chip": "ym2612"
    },
    {
      "channel": 0,
      "note": 55,
      "start": 98.71,
      "duration": 0.1232,
      "velocity": 99,
      "chip": "ym2612"
    },
    {
      "channel": 3,
      "note": 45,
      "start": 98.7139,
      "duration": 0.1195,
      "velocity": 89,
      "chip": "ym2612"
    },
    {
      "channel": 0,
      "note": 57,
      "start": 98.857,
      "duration": 0.1262,
      "velocity": 89,
      "chip": "ym2612"
    },
    {
      "channel": 3,
      "note": 52,
      "start": 98.8604,
      "duration": 0.123,
      "velocity": 99,
      "chip": "ym2612"
    },
    {
      "channel": 5,
      "note": 57,
      "start": 99.0055,
      "duration": 0.1279,
      "velocity": 99,
      "chip": "ym2612"
    },
    {
      "channel": 0,
      "note": 45,
      "start": 99.0095,
      "duration": 0.1236,
      "velocity": 89,
      "chip": "ym2612"
    },
    {
      "channel": 3,
      "note": 57,
      "start": 99.1737,
      "duration": 0.1097,
      "velocity": 89,
      "chip": "ym2612"
    },
    {
      "channel": 0,
      "note": 55,
      "start": 99.1764,
      "duration": 0.1067,
      "velocity": 99,
      "chip": "ym2612"
    },
    {
      "channel": 5,
      "note": 61,
      "start": 99.3226,
      "duration": 0.1109,
      "velocity": 99,
      "chip": "ym2612"
    },
    {
      "channel": 0,
      "note": 45,
      "start": 99.3265,
      "duration": 0.1067,
      "velocity": 89,
      "chip": "ym2612"
    },
    {
      "channel": 3,
      "note": 57,
      "start": 99.4735,
      "duration": 0.1265,
      "velocity": 89,
      "chip": "ym2612"
    },
    {
      "channel": 0,
      "note": 60,
      "start": 99.4763,
      "duration": 0.1236,
      "velocity": 99,
      "chip": "ym2612"
    },
    {
      "channel": 5,
      "note": 53,
      "start": 99.621,
      "duration": 0.1293,
      "velocity": 127,
      "chip": "ym2612"
    },
    {
      "channel": 0,
      "note": 55,
      "start": 99.6272,
      "duration": 0.1226,
      "velocity": 99,
      "chip": "ym2612"
    },
    {
      "channel": 3,
      "note": 45,
      "start": 99.6312,
      "duration": 0.1189,
      "velocity": 89,
      "chip": "ym2612"
    },
    {
      "channel": 0,
      "note": 57,
      "start": 99.7737,
      "duration": 0.1262,
      "velocity": 89,
      "chip": "ym2612"
    },
    {
      "channel": 3,
      "note": 52,
      "start": 99.7764,
      "duration": 0.1237,
      "velocity": 99,
      "chip": "ym2612"
    },
    {
      "channel": 5,
      "note": 57,
      "start": 99.9223,
      "duration": 0.1278,
      "velocity": 99,
      "chip": "ym2612"
    },
    {
      "channel": 0,
      "note": 45,
      "start": 99.9263,
      "duration": 0.1235,
      "velocity": 89,
      "chip": "ym2612"
    },
    {
      "channel": 3,
      "note": 57,
      "start": 100.0738,
      "duration": 0.1263,
      "velocity": 89,
      "chip": "ym2612"
    },
    {
      "channel": 0,
      "note": 55,
      "start": 100.0766,
      "duration": 0.1233,
      "velocity": 99,
      "chip": "ym2612"
    },
    {
      "channel": 5,
      "note": 33,
      "start": 100.2383,
      "duration": 0.112,
      "velocity": 124,
      "chip": "ym2612"
    },
    {
      "channel": 1,
      "note": 61,
      "start": 100.2443,
      "duration": 0.1057,
      "velocity": 99,
      "chip": "ym2612"
    },
    {
      "channel": 0,
      "note": 45,
      "start": 100.2485,
      "duration": 0.1014,
      "velocity": 89,
      "chip": "ym2612"
    },
    {
      "channel": 3,
      "note": 57,
      "start": 100.3902,
      "duration": 0.1097,
      "velocity": 89,
      "chip": "ym2612"
    },
    {
      "channel": 0,
      "note": 60,
      "start": 100.3933,
      "duration": 0.1064,
      "velocity": 99,
      "chip": "ym2612"
    },
    {
      "channel": 5,
      "note": 33,
      "start": 100.5387,
      "duration": 0.1282,
      "velocity": 124,
      "chip": "ym2612"
    },
    {
      "channel": 1,
      "note": 53,
      "start": 100.5423,
      "duration": 0.1243,
      "velocity": 99,
      "chip": "ym2612"
    },
    {
      "channel": 0,
      "note": 45,
      "start": 100.5463,
      "duration": 0.1202,
      "velocity": 89,
      "chip": "ym2612"
    },
    {
      "channel": 3,
      "note": 57,
      "start": 100.6905,
      "duration": 0.1262,
      "velocity": 89,
      "chip": "ym2612"
    },
    {
      "channel": 0,
      "note": 52,
      "start": 100.6932,
      "duration": 0.1233,
      "velocity": 99,
      "chip": "ym2612"
    },
    {
      "channel": 1,
      "note": 57,
      "start": 100.8387,
      "duration": 0.1277,
      "velocity": 99,
      "chip": "ym2612"
    },
    {
      "channel": 5,
      "note": 45,
      "start": 100.8427,
      "duration": 0.1241,
      "velocity": 89,
      "chip": "ym2612"
    },
    {
      "channel": 3,
      "note": 57,
      "start": 100.99,
      "duration": 0.1265,
      "velocity": 89,
      "chip": "ym2612"
    },
    {
      "channel": 0,
      "note": 55,
      "start": 100.9925,
      "duration": 0.1239,
      "velocity": 99,
      "chip": "ym2612"
    },
    {
      "channel": 1,
      "note": 61,
      "start": 101.1386,
      "duration": 0.1279,
      "velocity": 99,
      "chip": "ym2612"
    },
    {
      "channel": 5,
      "note": 45,
      "start": 101.1425,
      "duration": 0.1243,
      "velocity": 89,
      "chip": "ym2612"
    },
    {
      "channel": 3,
      "note": 57,
      "start": 101.3068,
      "duration": 0.1099,
      "velocity": 89,
      "chip": "ym2612"
    },
    {
      "channel": 0,
      "note": 60,
      "start": 101.3093,
      "duration": 0.1072,
      "velocity": 99,
      "chip": "ym2612"
    },
    {
      "channel": 1,
      "note": 53,
      "start": 101.4543,
      "duration": 0.1123,
      "velocity": 127,
      "chip": "ym2612"
    },
    {
      "channel": 5,
      "note": 51,
      "start": 101.4593,
      "duration": 0.1076,
      "velocity": 99,
      "chip": "ym2612"
    },
    {
      "channel": 0,
      "note": 45,
      "start": 101.4632,
      "duration": 0.1032,
      "velocity": 89,
      "chip": "ym2612"
    },
    {
      "channel": 3,
      "note": 57,
      "start": 101.6068,
      "duration": 0.1265,
      "velocity": 89,
      "chip": "ym2612"
    },
    {
      "channel": 0,
      "note": 56,
      "start": 101.6095,
      "duration": 0.1235,
      "velocity": 99,
      "chip": "ym2612"
    },
    {
      "channel": 5,
      "note": 57,
      "start": 101.7558,
      "duration": 0.1276,
      "velocity": 99,
      "chip": "ym2612"
    },
    {
      "channel": 1,
      "note": 45,
      "start": 101.7598,
      "duration": 0.1234,
      "velocity": 89,
      "chip": "ym2612"
    },
    {
      "channel": 3,
      "note": 57,
      "start": 101.9068,
      "duration": 0.1264,
      "velocity": 89,
      "chip": "ym2612"
    },
    {
      "channel": 0,
      "note": 57,
      "start": 101.9093,
      "duration": 0.1238,
      "velocity": 99,
      "chip": "ym2612"
    },
    {
      "channel": 5,
      "note": 61,
      "start": 102.0555,
      "duration": 0.1279,
      "velocity": 99,
      "chip": "ym2612"
    },
    {
      "channel": 1,
      "note": 45,
      "start": 102.0593,
      "duration": 0.1239,
      "velocity": 89,
      "chip": "ym2612"
    },
    {
      "channel": 3,
      "note": 57,
      "start": 102.2068,
      "duration": 0.1265,
      "velocity": 89,
      "chip": "ym2612"
    },
    {
      "channel": 0,
      "note": 60,
      "start": 102.2093,
      "duration": 0.1238,
      "velocity": 99,
      "chip": "ym2612"
    },
    {
      "channel": 2,
      "note": 33,
      "start": 102.3729,
      "duration": 0.1106,
      "velocity": 124,
      "chip": "ym2612"
    },
    {
      "channel": 4,
      "note": 47,
      "start": 102.3777,
      "duration": 6.9725,
      "velocity": 106,
      "chip": "ym2612"
    },
    {
      "channel": 1,
      "note": 54,
      "start": 102.3812,
      "duration": 6.9688,
      "velocity": 106,
      "chip": "ym2612"
    },
    {
      "channel": 5,
      "note": 58,
      "start": 102.3854,
      "duration": 0.0979,
      "velocity": 99,
      "chip": "ym2612"
    },
    {
      "channel": 0,
      "note": 47,
      "start": 102.3897,
      "duration": 0.0933,
      "velocity": 89,
      "chip": "ym2612"
    },
    {
      "channel": 3,
      "note": 59,
      "start": 102.5237,
      "duration": 0.1095,
      "velocity": 89,
      "chip": "ym2612"
    },
    {
      "channel": 0,
      "note": 58,
      "start": 102.5275,
      "duration": 0.1055,
      "velocity": 99,
      "chip": "ym2612"
    },
    {
      "channel": 5,
      "note": 59,
      "start": 102.6721,
      "duration": 0.1279,
      "velocity": 99,
      "chip": "ym2612"
    },
    {
      "channel": 2,
      "note": 47,
      "start": 102.6768,
      "duration": 0.1233,
      "velocity": 89,
      "chip": "ym2612"
    },
    {
      "channel": 3,
      "note": 59,
      "start": 102.8241,
      "duration": 0.1258,
      "velocity": 89,
      "chip": "ym2612"
    },
    {
      "channel": 0,
      "note": 59,
      "start": 102.8266,
      "duration": 0.1232,
      "velocity": 99,
      "chip": "ym2612"
    },
    {
      "channel": 5,
      "note": 62,
      "start": 102.9721,
      "duration": 0.1279,
      "velocity": 99,
      "chip": "ym2612"
    },
    {
      "channel": 2,
      "note": 47,
      "start": 102.976,
      "duration": 0.1241,
      "velocity": 89,
      "chip": "ym2612"
    },
    {
      "channel": 3,
      "note": 59,
      "start": 103.1238,
      "duration": 0.1261,
      "velocity": 89,
      "chip": "ym2612"
    },
    {
      "channel": 0,
      "note": 62,
      "start": 103.1263,
      "duration": 0.1234,
      "velocity": 99,
      "chip": "ym2612"
    },
    {
      "channel": 5,
      "note": 53,
      "start": 103.2712,
      "duration": 0.1288,
      "velocity": 127,
      "chip": "ym2612"
    },
    {
      "channel": 2,
      "note": 58,
      "start": 103.2782,
      "duration": 0.122,
      "velocity": 99,
      "chip": "ym2612"
    },
    {
      "channel": 0,
      "note": 47,
      "start": 103.2827,
      "duration": 0.1171,
      "velocity": 89,
      "chip": "ym2612"
    },
    {
      "channel": 3,
      "note": 59,
      "start": 103.4402,
      "duration": 0.1097,
      "velocity": 89,
      "chip": "ym2612"
    },
    {
      "channel": 0,
      "note": 58,
      "start": 103.4449,
      "duration": 0.1048,
      "velocity": 99,
      "chip": "ym2612"
    },
    {
      "channel": 2,
      "note": 59,
      "start": 103.5889,
      "duration": 0.1111,
      "velocity": 99,
      "chip": "ym2612"
    },
    {
      "channel": 5,
      "note": 47,
      "start": 103.5929,
      "duration": 0.1071,
      "velocity": 89,
      "chip": "ym2612"
    },
    {
      "channel": 3,
      "note": 59,
      "start": 103.7401,
      "duration": 0.1265,
      "velocity": 89,
      "chip": "ym2612"
    },
    {
      "channel": 0,
      "note": 59,
      "start": 103.7426,
      "duration": 0.1238,
      "velocity": 99,
      "chip": "ym2612"
    },
    {
      "channel": 5,
      "note": 33,
      "start": 103.8877,
      "duration": 0.1291,
      "velocity": 124,
      "chip": "ym2612"
    },
    {
      "channel": 2,
      "note": 62,
      "start": 103.8931,
      "duration": 0.1238,
      "velocity": 99,
      "chip": "ym2612"
    },
    {
      "channel": 0,
      "note": 47,
      "start": 103.8971,
      "duration": 0.1194,
      "velocity": 89,
      "chip": "ym2612"
    },
    {
      "channel": 3,
      "note": 59,
      "start": 104.0402,
      "duration": 0.1265,
      "velocity": 89,
      "chip": "ym2612"
    },
    {
      "channel": 0,
      "note": 62,
      "start": 104.0429,
      "duration": 0.1236,
      "velocity": 99,
      "chip": "ym2612"
    },
    {
      "channel": 5,
      "note": 71,
      "start": 104.1882,
      "duration": 1.812,
      "velocity": 86,
      "chip": "ym2612"
    },
    {
      "channel": 2,
      "note": 33,
      "start": 104.195,
      "duration": 0.1219,
      "velocity": 124,
      "chip": "ym2612"
    },
    {
      "channel": 0,
      "note": 58,
      "start": 104.2007,
      "duration": 0.1158,
      "velocity": 99,
      "chip": "ym2612"
    },
    {
      "channel": 3,
      "note": 47,
      "start": 104.2046,
      "duration": 0.112,
      "velocity": 89,
      "chip": "ym2612"
    },
    {
      "channel": 0,
      "note": 59,
      "start": 104.3404,
      "duration": 0.1261,
      "velocity": 89,
      "chip": "ym2612"
    },
    {
      "channel": 3,
      "note": 58,
      "start": 104.3443,
      "duration": 0.1224,
      "velocity": 99,
      "chip": "ym2612"
    },
    {
      "channel": 2,
      "note": 59,
      "start": 104.5056,
      "duration": 0.1112,
      "velocity": 99,
      "chip": "ym2612"
    },
    {
      "channel": 0,
      "note": 47,
      "start": 104.5095,
      "duration": 0.107,
      "velocity": 89,
      "chip": "ym2612"
    },
    {
      "channel": 3,
      "note": 59,
      "start": 104.657,
      "duration": 0.1096,
      "velocity": 89,
      "chip": "ym2612"
    },
    {
      "channel": 0,
      "note": 59,
      "start": 104.6598,
      "duration": 0.1067,
      "velocity": 99,
      "chip": "ym2612"
    },
    {
      "channel": 2,
      "note": 62,
      "start": 104.8055,
      "duration": 0.1279,
      "velocity": 99,
      "chip": "ym2612"
    },
    {
      "channel": 0,
      "note": 47,
      "start": 104.8095,
      "duration": 0.1237,
      "velocity": 89,
      "chip": "ym2612"
    },
    {
      "channel": 3,
      "note": 59,
      "start": 104.9568,
      "duration": 0.1265,
      "velocity": 89,
      "chip": "ym2612"
    },
    {
      "channel": 0,
      "note": 62,
      "start": 104.9595,
      "duration": 0.1235,
      "velocity": 99,
      "chip": "ym2612"
    },
    {
      "channel": 2,
      "note": 53,
      "start": 105.1042,
      "duration": 0.1294,
      "velocity": 127,
      "chip": "ym2612"
    },
    {
      "channel": 0,
      "note": 58,
      "start": 105.1105,
      "duration": 0.1227,
      "velocity": 99,
      "chip": "ym2612"
    },
    {
      "channel": 3,
      "note": 47,
      "start": 105.1144,
      "duration": 0.119,
      "velocity": 89,
      "chip": "ym2612"
    },
    {
      "channel": 0,
      "note": 59,
      "start": 105.257,
      "duration": 0.1261,
      "velocity": 89,
      "chip": "ym2612"
    },
    {
      "channel": 3,
      "note": 58,
      "start": 105.2609,
      "duration": 0.1224,
      "velocity": 99,
      "chip": "ym2612"
    },
    {
      "channel": 2,
      "note": 59,
      "start": 105.4054,
      "duration": 0.128,
      "velocity": 99,
      "chip": "ym2612"
    },
    {
      "channel": 0,
      "note": 47,
      "start": 105.4094,
      "duration": 0.1237,
      "velocity": 89,
      "chip": "ym2612"
    },
    {
      "channel": 3,
      "note": 59,
      "start": 105.574,
      "duration": 0.1092,
      "velocity": 89,
      "chip": "ym2612"
    },
    {
      "channel": 0,
      "note": 59,
      "start": 105.5768,
      "duration": 0.1063,
      "velocity": 99,
      "chip": "ym2612"
    },
    {
      "channel": 2,
      "note": 62,
      "start": 105.7234,
      "duration": 0.1102,
      "velocity": 99,
      "chip": "ym2612"
    },
    {
      "channel": 0,
      "note": 47,
      "start": 105.7273,
      "duration": 0.1059,
      "velocity": 89,
      "chip": "ym2612"
    },
    {
      "channel": 3,
      "note": 59,
      "start": 105.8736,
      "duration": 0.1264,
      "velocity": 89,
      "chip": "ym2612"
    },
    {
      "channel": 0,
      "note": 62,
      "start": 105.8763,
      "duration": 0.1235,
      "velocity": 99,
      "chip": "ym2612"
    },
    {
      "channel": 5,
      "note": 70,
      "start": 106.0211,
      "duration": 3.5788,
      "velocity": 86,
      "chip": "ym2612"
    },
    {
      "channel": 2,
      "note": 33,
      "start": 106.028,
      "duration": 0.1223,
      "velocity": 124,
      "chip": "ym2612"
    },
    {
      "channel": 0,
      "note": 58,
      "start": 106.0338,
      "duration": 0.1161,
      "velocity": 99,
      "chip": "ym2612"
    },
    {
      "channel": 3,
      "note": 47,
      "start": 106.0377,
      "duration": 0.1123,
      "velocity": 89,
      "chip": "ym2612"
    },
    {
      "channel": 0,
      "note": 59,
      "start": 106.1737,
      "duration": 0.1263,
      "velocity": 89,
      "chip": "ym2612"
    },
    {
      "channel": 3,
      "note": 58,
      "start": 106.1777,
      "duration": 0.1224,
      "velocity": 99,
      "chip": "ym2612"
    },
    {
      "channel": 2,
      "note": 59,
      "start": 106.3224,
      "duration": 0.1278,
      "velocity": 99,
      "chip": "ym2612"
    },
    {
      "channel": 0,
      "note": 47,
      "start": 106.3263,
      "duration": 0.1235,
      "velocity": 89,
      "chip": "ym2612"
    },
    {
      "channel": 3,
      "note": 59,
      "start": 106.4736,
      "duration": 0.1264,
      "velocity": 89,
      "chip": "ym2612"
    },
    {
      "channel": 0,
      "note": 59,
      "start": 106.4763,
      "duration": 0.1235,
      "velocity": 99,
      "chip": "ym2612"
    },
    {
      "channel": 2,
      "note": 62,
      "start": 106.6389,
      "duration": 0.1112,
      "velocity": 99,
      "chip": "ym2612"
    },
    {
      "channel": 0,
      "note": 47,
      "start": 106.6429,
      "duration": 0.1069,
      "velocity": 89,
      "chip": "ym2612"
    },
    {
      "channel": 3,
      "note": 59,
      "start": 106.7901,
      "duration": 0.1099,
      "velocity": 89,
      "chip": "ym2612"
    },
    {
      "channel": 0,
      "note": 62,
      "start": 106.7929,
      "duration": 0.107,
      "velocity": 99,
      "chip": "ym2612"
    },
    {
      "channel": 2,
      "note": 53,
      "start": 106.9377,
      "duration": 0.1293,
      "velocity": 127,
      "chip": "ym2612"
    },
    {
      "channel": 0,
      "note": 58,
      "start": 106.9439,
      "duration": 0.1226,
      "velocity": 99,
      "chip": "ym2612"
    },
    {
      "channel": 3,
      "note": 47,
      "start": 106.9479,
      "duration": 0.1188,
      "velocity": 89,
      "chip": "ym2612"
    },
    {
      "channel": 0,
      "note": 59,
      "start": 107.0907,
      "duration": 0.1257,
      "velocity": 89,
      "chip": "ym2612"
    },
    {
      "channel": 3,
      "note": 58,
      "start": 107.0946,
      "duration": 0.122,
      "velocity": 99,
      "chip": "ym2612"
    },
    {
      "channel": 2,
      "note": 59,
      "start": 107.2388,
      "duration": 0.128,
      "velocity": 99,
      "chip": "ym2612"
    },
    {
      "channel": 0,
      "note": 47,
      "start": 107.2428,
      "duration": 0.1237,
      "velocity": 89,
      "chip": "ym2612"
    },
    {
      "channel": 3,
      "note": 59,
      "start": 107.3902,
      "duration": 0.1264,
      "velocity": 89,
      "chip": "ym2612"
    },
    {
      "channel": 0,
      "note": 59,
      "start": 107.3929,
      "duration": 0.1235,
      "velocity": 99,
      "chip": "ym2612"
    },
    {
      "channel": 2,
      "note": 33,
      "start": 107.5378,
      "duration": 0.1293,
      "velocity": 124,
      "chip": "ym2612"
    },
    {
      "channel": 0,
      "note": 62,
      "start": 107.5429,
      "duration": 0.1237,
      "velocity": 99,
      "chip": "ym2612"
    },
    {
      "channel": 3,
      "note": 47,
      "start": 107.5468,
      "duration": 0.12,
      "velocity": 89,
      "chip": "ym2612"
    },
    {
      "channel": 0,
      "note": 59,
      "start": 107.707,
      "duration": 0.1094,
      "velocity": 89,
      "chip": "ym2612"
    },
    {
      "channel": 3,
      "note": 62,
      "start": 107.7098,
      "duration": 0.1069,
      "velocity": 99,
      "chip": "ym2612"
    },
    {
      "channel": 2,
      "note": 33,
      "start": 107.8575,
      "duration": 0.1093,
      "velocity": 124,
      "chip": "ym2612"
    },
    {
      "channel": 0,
      "note": 58,
      "start": 107.8626,
      "duration": 0.1038,
      "velocity": 99,
      "chip": "ym2612"
    },
    {
      "channel": 3,
      "note": 47,
      "start": 107.8671,
      "duration": 0.0995,
      "velocity": 89,
      "chip": "ym2612"
    },
    {
      "channel": 0,
      "note": 59,
      "start": 108.0074,
      "duration": 0.1258,
      "velocity": 89,
      "chip": "ym2612"
    },
    {
      "channel": 3,
      "note": 58,
      "start": 108.0114,
      "duration": 0.122,
      "velocity": 99,
      "chip": "ym2612"
    },
    {
      "channel": 2,
      "note": 59,
      "start": 108.1555,
      "duration": 0.128,
      "velocity": 99,
      "chip": "ym2612"
    },
    {
      "channel": 0,
      "note": 47,
      "start": 108.1595,
      "duration": 0.1237,
      "velocity": 89,
      "chip": "ym2612"
    },
    {
      "channel": 3,
      "note": 59,
      "start": 108.307,
      "duration": 0.1263,
      "velocity": 89,
      "chip": "ym2612"
    },
    {
      "channel": 0,
      "note": 59,
      "start": 108.3098,
      "duration": 0.1234,
      "velocity": 99,
      "chip": "ym2612"
    },
    {
      "channel": 2,
      "note": 62,
      "start": 108.4556,
      "duration": 0.1279,
      "velocity": 99,
      "chip": "ym2612"
    },
    {
      "channel": 0,
      "note": 47,
      "start": 108.4595,
      "duration": 0.1237,
      "velocity": 89,
      "chip": "ym2612"
    },
    {
      "channel": 3,
      "note": 59,
      "start": 108.6068,
      "duration": 0.1265,
      "velocity": 89,
      "chip": "ym2612"
    },
    {
      "channel": 0,
      "note": 62,
      "start": 108.6096,
      "duration": 0.1236,
      "velocity": 99,
      "chip": "ym2612"
    },
    {
      "channel": 2,
      "note": 53,
      "start": 108.771,
      "duration": 0.1125,
      "velocity": 127,
      "chip": "ym2612"
    },
    {
      "channel": 0,
      "note": 58,
      "start": 108.7773,
      "duration": 0.1059,
      "velocity": 99,
      "chip": "ym2612"
    },
    {
      "channel": 3,
      "note": 47,
      "start": 108.7812,
      "duration": 0.1021,
      "velocity": 89,
      "chip": "ym2612"
    },
    {
      "channel": 0,
      "note": 59,
      "start": 108.9237,
      "duration": 0.1094,
      "velocity": 89,
      "chip": "ym2612"
    },
    {
      "channel": 3,
      "note": 58,
      "start": 108.9276,
      "duration": 0.1056,
      "velocity": 99,
      "chip": "ym2612"
    },
    {
      "channel": 2,
      "note": 59,
      "start": 109.0722,
      "duration": 0.1279,
      "velocity": 99,
      "chip": "ym2612"
    },
    {
      "channel": 0,
      "note": 47,
      "start": 109.0762,
      "duration": 0.1235,
      "velocity": 89,
      "chip": "ym2612"
    },
    {
      "channel": 3,
      "note": 59,
      "start": 109.2237,
      "duration": 0.1264,
      "velocity": 89,
      "chip": "ym2612"
    },
    {
      "channel": 0,
      "note": 59,
      "start": 109.2264,
      "duration": 0.1234,
      "velocity": 99,
      "chip": "ym2612"
    },
    {
      "channel": 4,
      "note": 47,
      "start": 109.3723,
      "duration": 0.1278,
      "velocity": 106,
      "chip": "ym2612"
    },
    {
      "channel": 1,
      "note": 54,
      "start": 109.3758,
      "duration": 0.1242,
      "velocity": 106,
      "chip": "ym2612"
    },
    {
      "channel": 2,
      "note": 62,
      "start": 109.3785,
      "duration": 0.1218,
      "velocity": 99,
      "chip": "ym2612"
    },
    {
      "channel": 0,
      "note": 47,
      "start": 109.383,
      "duration": 0.1168,
      "velocity": 89,
      "chip": "ym2612"
    },
    {
      "channel": 4,
      "note": 47,
      "start": 109.5221,
      "duration": 0.128,
      "velocity": 106,
      "chip": "ym2612"
    },
    {
      "channel": 1,
      "note": 54,
      "start": 109.5248,
      "duration": 0.1251,
      "velocity": 106,
      "chip": "ym2612"
    },
    {
      "channel": 3,
      "note": 59,
      "start": 109.5288,
      "duration": 0.1212,
      "velocity": 89,
      "chip": "ym2612"
    },
    {
      "channel": 0,
      "note": 62,
      "start": 109.5315,
      "duration": 0.1182,
      "velocity": 99,
      "chip": "ym2612"
    },
    {
      "channel": 5,
      "note": 67,
      "start": 109.671,
      "duration": 5.0289,
      "velocity": 86,
      "chip": "ym2612"
    },
    {
      "channel": 2,
      "note": 33,
      "start": 109.6772,
      "duration": 0.123,
      "velocity": 124,
      "chip": "ym2612"
    },
    {
      "channel": 4,
      "note": 43,
      "start": 109.6819,
      "duration": 7.2348,
      "velocity": 106,
      "chip": "ym2612"
    },
    {
      "channel": 1,
      "note": 50,
      "start": 109.6854,
      "duration": 6.9977,
      "velocity": 106,
      "chip": "ym2612"
    },
    {
      "channel": 0,
      "note": 58,
      "start": 109.6894,
      "duration": 0.1104,
      "velocity": 99,
      "chip": "ym2612"
    },
    {
      "channel": 3,
      "note": 43,
      "start": 109.6936,
      "duration": 0.1063,
      "velocity": 89,
      "chip": "ym2612"
    },
    {
      "channel": 0,
      "note": 55,
      "start": 109.8406,
      "duration": 0.1093,
      "velocity": 89,
      "chip": "ym2612"
    },
    {
      "channel": 3,
      "note": 58,
      "start": 109.8445,
      "duration": 0.1055,
      "velocity": 99,
      "chip": "ym2612"
    },
    {
      "channel": 2,
      "note": 59,
      "start": 109.9888,
      "duration": 0.1112,
      "velocity": 99,
      "chip": "ym2612"
    },
    {
      "channel": 0,
      "note": 43,
      "start": 109.9936,
      "duration": 0.1061,
      "velocity": 89,
      "chip": "ym2612"
    },
    {
      "channel": 3,
      "note": 55,
      "start": 110.141,
      "duration": 0.1256,
      "velocity": 89,
      "chip": "ym2612"
    },
    {
      "channel": 0,
      "note": 59,
      "start": 110.1437,
      "duration": 0.1227,
      "velocity": 99,
      "chip": "ym2612"
    },
    {
      "channel": 2,
      "note": 62,
      "start": 110.2888,
      "duration": 0.128,
      "velocity": 99,
      "chip": "ym2612"
    },
    {
      "channel": 0,
      "note": 43,
      "start": 110.2927,
      "duration": 0.1237,
      "velocity": 89,
      "chip": "ym2612"
    },
    {
      "channel": 3,
      "note": 55,
      "start": 110.4404,
      "duration": 0.1261,
      "velocity": 89,
      "chip": "ym2612"
    },
    {
      "channel": 0,
      "note": 62,
      "start": 110.4432,
      "duration": 0.1232,
      "velocity": 99,
      "chip": "ym2612"
    },
    {
      "channel": 2,
      "note": 53,
      "start": 110.5875,
      "duration": 0.1294,
      "velocity": 127,
      "chip": "ym2612"
    },
    {
      "channel": 0,
      "note": 58,
      "start": 110.5937,
      "duration": 0.1227,
      "velocity": 99,
      "chip": "ym2612"
    },
    {
      "channel": 3,
      "note": 43,
      "start": 110.5977,
      "duration": 0.119,
      "velocity": 89,
      "chip": "ym2612"
    },
    {
      "channel": 0,
      "note": 55,
      "start": 110.7402,
      "duration": 0.1261,
      "velocity": 89,
      "chip": "ym2612"
    },
    {
      "channel": 3,
      "note": 58,
      "start": 110.7442,
      "duration": 0.1224,
      "velocity": 99,
      "chip": "ym2612"
    },
    {
      "channel": 2,
      "note": 59,
      "start": 110.9056,
      "duration": 0.1112,
      "velocity": 99,
      "chip": "ym2612"
    },
    {
      "channel": 0,
      "note": 43,
      "start": 110.9095,
      "duration": 0.1069,
      "velocity": 89,
      "chip": "ym2612"
    },
    {
      "channel": 3,
      "note": 55,
      "start": 111.057,
      "duration": 0.1096,
      "velocity": 89,
      "chip": "ym2612"
    },
    {
      "channel": 0,
      "note": 59,
      "start": 111.0597,
      "duration": 0.1067,
      "velocity": 99,
      "chip": "ym2612"
    },
    {
      "channel": 2,
      "note": 33,
      "start": 111.2045,
      "duration": 0.1292,
      "velocity": 124,
      "chip": "ym2612"
    },
    {
      "channel": 0,
      "note": 62,
      "start": 111.2098,
      "duration": 0.1234,
      "velocity": 99,
      "chip": "ym2612"
    },
    {
      "channel": 3,
      "note": 43,
      "start": 111.2138,
      "duration": 0.1197,
      "velocity": 89,
      "chip": "ym2612"
    },
    {
      "channel": 0,
      "note": 55,
      "start": 111.357,
      "duration": 0.1261,
      "velocity": 89,
      "chip": "ym2612"
    },
    {
      "channel": 3,
      "note": 62,
      "start": 111.3597,
      "duration": 0.1236,
      "velocity": 99,
      "chip": "ym2612"
    },
    {
      "channel": 2,
      "note": 33,
      "start": 111.5059,
      "duration": 0.1276,
      "velocity": 124,
      "chip": "ym2612"
    },
    {
      "channel": 0,
      "note": 58,
      "start": 111.511,
      "duration": 0.122,
      "velocity": 99,
      "chip": "ym2612"
    },
    {
      "channel": 3,
      "note": 43,
      "start": 111.5152,
      "duration": 0.118,
      "velocity": 89,
      "chip": "ym2612"
    },
    {
      "channel": 0,
      "note": 55,
      "start": 111.657,
      "duration": 0.1261,
      "velocity": 89,
      "chip": "ym2612"
    },
    {
      "channel": 3,
      "note": 58,
      "start": 111.661,
      "duration": 0.1223,
      "velocity": 99,
      "chip": "ym2612"
    },
    {
      "channel": 2,
      "note": 59,
      "start": 111.8056,
      "duration": 0.1279,
      "velocity": 99,
      "chip": "ym2612"
    },
    {
      "channel": 0,
      "note": 43,
      "start": 111.8095,
      "duration": 0.1236,
      "velocity": 89,
      "chip": "ym2612"
    },
    {
      "channel": 3,
      "note": 55,
      "start": 111.9737,
      "duration": 0.1096,
      "velocity": 89,
      "chip": "ym2612"
    },
    {
      "channel": 0,
      "note": 59,
      "start": 111.9764,
      "duration": 0.1067,
      "velocity": 99,
      "chip": "ym2612"
    },
    {
      "channel": 2,
      "note": 62,
      "start": 112.1222,
      "duration": 0.1113,
      "velocity": 99,
      "chip": "ym2612"
    },
    {
      "channel": 0,
      "note": 43,
      "start": 112.1261,
      "duration": 0.1071,
      "velocity": 89,
      "chip": "ym2612"
    },
    {
      "channel": 3,
      "note": 55,
      "start": 112.2735,
      "duration": 0.1265,
      "velocity": 89,
      "chip": "ym2612"
    },
    {
      "channel": 0,
      "note": 62,
      "start": 112.2763,
      "duration": 0.1236,
      "velocity": 99,
      "chip": "ym2612"
    },
    {
      "channel": 2,
      "note": 53,
      "start": 112.421,
      "duration": 0.1293,
      "velocity": 127,
      "chip": "ym2612"
    },
    {
      "channel": 0,
      "note": 58,
      "start": 112.4272,
      "duration": 0.1226,
      "velocity": 99,
      "chip": "ym2612"
    },
    {
      "channel": 3,
      "note": 43,
      "start": 112.4312,
      "duration": 0.1189,
      "velocity": 89,
      "chip": "ym2612"
    },
    {
      "channel": 0,
      "note": 55,
      "start": 112.5737,
      "duration": 0.1261,
      "velocity": 89,
      "chip": "ym2612"
    },
    {
      "channel": 3,
      "note": 58,
      "start": 112.5776,
      "duration": 0.1223,
      "velocity": 99,
      "chip": "ym2612"
    },
    {
      "channel": 2,
      "note": 59,
      "start": 112.7222,
      "duration": 0.1279,
      "velocity": 99,
      "chip": "ym2612"
    },
    {
      "channel": 0,
      "note": 43,
      "start": 112.7262,
      "duration": 0.1236,
      "velocity": 89,
      "chip": "ym2612"
    },
    {
      "channel": 3,
      "note": 55,
      "start": 112.8739,
      "duration": 0.1261,
      "velocity": 89,
      "chip": "ym2612"
    },
    {
      "channel": 0,
      "note": 59,
      "start": 112.8766,
      "duration": 0.1232,
      "velocity": 99,
      "chip": "ym2612"
    },
    {
      "channel": 2,
      "note": 62,
      "start": 113.04,
      "duration": 0.1102,
      "velocity": 99,
      "chip": "ym2612"
    },
    {
      "channel": 0,
      "note": 43,
      "start": 113.0439,
      "duration": 0.1059,
      "velocity": 89,
      "chip": "ym2612"
    },
    {
      "channel": 3,
      "note": 55,
      "start": 113.1902,
      "duration": 0.1098,
      "velocity": 89,
      "chip": "ym2612"
    },
    {
      "channel": 0,
      "note": 62,
      "start": 113.1929,
      "duration": 0.1069,
      "velocity": 99,
      "chip": "ym2612"
    },
    {
      "channel": 2,
      "note": 33,
      "start": 113.3387,
      "duration": 0.1282,
      "velocity": 124,
      "chip": "ym2612"
    },
    {
      "channel": 0,
      "note": 58,
      "start": 113.3439,
      "duration": 0.1226,
      "velocity": 99,
      "chip": "ym2612"
    },
    {
      "channel": 3,
      "note": 43,
      "start": 113.3478,
      "duration": 0.1188,
      "velocity": 89,
      "chip": "ym2612"
    },
    {
      "channel": 0,
      "note": 55,
      "start": 113.4902,
      "duration": 0.1262,
      "velocity": 89,
      "chip": "ym2612"
    },
    {
      "channel": 3,
      "note": 58,
      "start": 113.4942,
      "duration": 0.1224,
      "velocity": 99,
      "chip": "ym2612"
    },
    {
      "channel": 2,
      "note": 59,
      "start": 113.639,
      "duration": 0.1278,
      "velocity": 99,
      "chip": "ym2612"
    },
    {
      "channel": 0,
      "note": 43,
      "start": 113.6429,
      "duration": 0.1236,
      "velocity": 89,
      "chip": "ym2612"
    },
    {
      "channel": 3,
      "note": 55,
      "start": 113.7904,
      "duration": 0.1263,
      "velocity": 89,
      "chip": "ym2612"
    },
    {
      "channel": 0,
      "note": 59,
      "start": 113.7931,
      "duration": 0.1234,
      "velocity": 99,
      "chip": "ym2612"
    },
    {
      "channel": 2,
      "note": 62,
      "start": 113.9393,
      "duration": 0.1275,
      "velocity": 99,
      "chip": "ym2612"
    },
    {
      "channel": 0,
      "note": 43,
      "start": 113.9432,
      "duration": 0.1232,
      "velocity": 89,
      "chip": "ym2612"
    },
    {
      "channel": 3,
      "note": 55,
      "start": 114.1068,
      "duration": 0.1099,
      "velocity": 89,
      "chip": "ym2612"
    },
    {
      "channel": 0,
      "note": 62,
      "start": 114.1095,
      "duration": 0.1071,
      "velocity": 99,
      "chip": "ym2612"
    },
    {
      "channel": 2,
      "note": 53,
      "start": 114.2544,
      "duration": 0.1125,
      "velocity": 127,
      "chip": "ym2612"
    },
    {
      "channel": 0,
      "note": 58,
      "start": 114.2606,
      "duration": 0.1059,
      "velocity": 99,
      "chip": "ym2612"
    },
    {
      "channel": 3,
      "note": 43,
      "start": 114.2645,
      "duration": 0.1021,
      "velocity": 89,
      "chip": "ym2612"
    },
    {
      "channel": 0,
      "note": 55,
      "start": 114.407,
      "duration": 0.1261,
      "velocity": 89,
      "chip": "ym2612"
    },
    {
      "channel": 3,
      "note": 58,
      "start": 114.4109,
      "duration": 0.1223,
      "velocity": 99,
      "chip": "ym2612"
    },
    {
      "channel": 2,
      "note": 59,
      "start": 114.5556,
      "duration": 0.1278,
      "velocity": 99,
      "chip": "ym2612"
    },
    {
      "channel": 0,
      "note": 43,
      "start": 114.5595,
      "duration": 0.1235,
      "velocity": 89,
      "chip": "ym2612"
    },
    {
      "channel": 3,
      "note": 55,
      "start": 114.707,
      "duration": 0.1263,
      "velocity": 89,
      "chip": "ym2612"
    },
    {
      "channel": 0,
      "note": 59,
      "start": 114.7098,
      "duration": 0.1234,
      "velocity": 99,
      "chip": "ym2612"
    },
    {
      "channel": 2,
      "note": 33,
      "start": 114.8544,
      "duration": 0.1293,
      "velocity": 124,
      "chip": "ym2612"
    },
    {
      "channel": 5,
      "note": 62,
      "start": 114.8598,
      "duration": 0.1237,
      "velocity": 99,
      "chip": "ym2612"
    },
    {
      "channel": 0,
      "note": 43,
      "start": 114.8637,
      "duration": 0.1195,
      "velocity": 89,
      "chip": "ym2612"
    },
    {
      "channel": 3,
      "note": 55,
      "start": 115.0069,
      "duration": 0.1264,
      "velocity": 89,
      "chip": "ym2612"
    },
    {
      "channel": 0,
      "note": 62,
      "start": 115.0096,
      "duration": 0.1235,
      "velocity": 99,
      "chip": "ym2612"
    },
    {
      "channel": 2,
      "note": 33,
      "start": 115.1722,
      "duration": 0.1114,
      "velocity": 124,
      "chip": "ym2612"
    },
    {
      "channel": 5,
      "note": 58,
      "start": 115.1773,
      "duration": 0.1062,
      "velocity": 99,
      "chip": "ym2612"
    },
    {
      "channel": 0,
      "note": 43,
      "start": 115.1812,
      "duration": 0.102,
      "velocity": 89,
      "chip": "ym2612"
    },
    {
      "channel": 3,
      "note": 55,
      "start": 115.3238,
      "duration": 0.1095,
      "velocity": 89,
      "chip": "ym2612"
    },
    {
      "channel": 0,
      "note": 58,
      "start": 115.3278,
      "duration": 0.1053,
      "velocity": 99,
      "chip": "ym2612"
    },
    {
      "channel": 5,
      "note": 59,
      "start": 115.4721,
      "duration": 0.1279,
      "velocity": 99,
      "chip": "ym2612"
    },
    {
      "channel": 2,
      "note": 43,
      "start": 115.4761,
      "duration": 0.124,
      "velocity": 89,
      "chip": "ym2612"
    },
    {
      "channel": 3,
      "note": 55,
      "start": 115.6234,
      "duration": 0.1266,
      "velocity": 89,
      "chip": "ym2612"
    },
    {
      "channel": 0,
      "note": 59,
      "start": 115.6259,
      "duration": 0.1239,
      "velocity": 99,
      "chip": "ym2612"
    },
    {
      "channel": 5,
      "note": 62,
      "start": 115.7721,
      "duration": 0.1279,
      "velocity": 99,
      "chip": "ym2612"
    },
    {
      "channel": 2,
      "note": 43,
      "start": 115.776,
      "duration": 0.1241,
      "velocity": 89,
      "chip": "ym2612"
    },
    {
      "channel": 3,
      "note": 55,
      "start": 115.9234,
      "duration": 0.1267,
      "velocity": 89,
      "chip": "ym2612"
    },
    {
      "channel": 0,
      "note": 62,
      "start": 115.9259,
      "duration": 0.124,
      "velocity": 99,
      "chip": "ym2612"
    },
    {
      "channel": 5,
      "note": 53,
      "start": 116.071,
      "duration": 0.129,
      "velocity": 127,
      "chip": "ym2612"
    },
    {
      "channel": 2,
      "note": 58,
      "start": 116.0778,
      "duration": 0.1223,
      "velocity": 99,
      "chip": "ym2612"
    },
    {
      "channel": 0,
      "note": 43,
      "start": 116.0823,
      "duration": 0.1174,
      "velocity": 89,
      "chip": "ym2612"
    },
    {
      "channel": 3,
      "note": 55,
      "start": 116.2402,
      "duration": 0.1097,
      "velocity": 89,
      "chip": "ym2612"
    },
    {
      "channel": 0,
      "note": 58,
      "start": 116.2441,
      "duration": 0.1056,
      "velocity": 99,
      "chip": "ym2612"
    },
    {
      "channel": 2,
      "note": 59,
      "start": 116.3892,
      "duration": 0.1109,
      "velocity": 99,
      "chip": "ym2612"
    },
    {
      "channel": 5,
      "note": 43,
      "start": 116.3932,
      "duration": 0.1068,
      "velocity": 89,
      "chip": "ym2612"
    },
    {
      "channel": 3,
      "note": 55,
      "start": 116.5402,
      "duration": 0.1264,
      "velocity": 89,
      "chip": "ym2612"
    },
    {
      "channel": 0,
      "note": 59,
      "start": 116.5426,
      "duration": 0.1238,
      "velocity": 99,
      "chip": "ym2612"
    },
    {
      "channel": 2,
      "note": 62,
      "start": 116.689,
      "duration": 0.1277,
      "velocity": 99,
      "chip": "ym2612"
    },
    {
      "channel": 5,
      "note": 43,
      "start": 116.6929,
      "duration": 0.1237,
      "velocity": 89,
      "chip": "ym2612"
    },
    {
      "channel": 3,
      "note": 55,
      "start": 116.8401,
      "duration": 0.1265,
      "velocity": 89,
      "chip": "ym2612"
    },
    {
      "channel": 0,
      "note": 62,
      "start": 116.8425,
      "duration": 0.1239,
      "velocity": 99,
      "chip": "ym2612"
    },
    {
      "channel": 4,
      "note": 47,
      "start": 117.0018,
      "duration": 6.9649,
      "velocity": 106,
      "chip": "ym2612"
    },
    {
      "channel": 1,
      "note": 54,
      "start": 117.0077,
      "duration": 6.9587,
      "velocity": 106,
      "chip": "ym2612"
    },
    {
      "channel": 2,
      "note": 58,
      "start": 117.0137,
      "duration": 0.1029,
      "velocity": 99,
      "chip": "ym2612"
    },
    {
      "channel": 5,
      "note": 47,
      "start": 117.0201,
      "duration": 0.0964,
      "velocity": 89,
      "chip": "ym2612"
    },
    {
      "channel": 3,
      "note": 59,
      "start": 117.1402,
      "duration": 0.1262,
      "velocity": 89,
      "chip": "ym2612"
    },
    {
      "channel": 0,
      "note": 58,
      "start": 117.1458,
      "duration": 0.1204,
      "velocity": 99,
      "chip": "ym2612"
    },
    {
      "channel": 2,
      "note": 59,
      "start": 117.3037,
      "duration": 0.1129,
      "velocity": 99,
      "chip": "ym2612"
    },
    {
      "channel": 5,
      "note": 47,
      "start": 117.3063,
      "duration": 0.1101,
      "velocity": 89,
      "chip": "ym2612"
    },
    {
      "channel": 3,
      "note": 59,
      "start": 117.4537,
      "duration": 0.1128,
      "velocity": 89,
      "chip": "ym2612"
    },
    {
      "channel": 0,
      "note": 59,
      "start": 117.4561,
      "duration": 0.1102,
      "velocity": 99,
      "chip": "ym2612"
    },
    {
      "channel": 2,
      "note": 62,
      "start": 117.6036,
      "duration": 0.1296,
      "velocity": 99,
      "chip": "ym2612"
    },
    {
      "channel": 5,
      "note": 47,
      "start": 117.6075,
      "duration": 0.1256,
      "velocity": 89,
      "chip": "ym2612"
    },
    {
      "channel": 3,
      "note": 59,
      "start": 117.7549,
      "duration": 0.1281,
      "velocity": 89,
      "chip": "ym2612"
    },
    {
      "channel": 0,
      "note": 62,
      "start": 117.7573,
      "duration": 0.1255,
      "velocity": 99,
      "chip": "ym2612"
    },
    {
      "channel": 2,
      "note": 58,
      "start": 117.9048,
      "duration": 0.1285,
      "velocity": 99,
      "chip": "ym2612"
    },
    {
      "channel": 5,
      "note": 47,
      "start": 117.9075,
      "duration": 0.1257,
      "velocity": 89,
      "chip": "ym2612"
    },
    {
      "channel": 3,
      "note": 59,
      "start": 118.0537,
      "duration": 0.1293,
      "velocity": 89,
      "chip": "ym2612"
    },
    {
      "channel": 0,
      "note": 58,
      "start": 118.0574,
      "duration": 0.1254,
      "velocity": 99,
      "chip": "ym2612"
    },
    {
      "channel": 2,
      "note": 59,
      "start": 118.2037,
      "duration": 0.1295,
      "velocity": 99,
      "chip": "ym2612"
    },
    {
      "channel": 5,
      "note": 47,
      "start": 118.2076,
      "duration": 0.1255,
      "velocity": 89,
      "chip": "ym2612"
    },
    {
      "channel": 3,
      "note": 59,
      "start": 118.3717,
      "duration": 0.1115,
      "velocity": 89,
      "chip": "ym2612"
    },
    {
      "channel": 0,
      "note": 59,
      "start": 118.3741,
      "duration": 0.1089,
      "velocity": 99,
      "chip": "ym2612"
    },
    {
      "channel": 2,
      "note": 62,
      "start": 118.5218,
      "duration": 0.1115,
      "velocity": 99,
      "chip": "ym2612"
    },
    {
      "channel": 5,
      "note": 47,
      "start": 118.5245,
      "duration": 0.1087,
      "velocity": 89,
      "chip": "ym2612"
    },
    {
      "channel": 3,
      "note": 59,
      "start": 118.6705,
      "duration": 0.1293,
      "velocity": 89,
      "chip": "ym2612"
    },
    {
      "channel": 0,
      "note": 62,
      "start": 118.6729,
      "duration": 0.1267,
      "velocity": 99,
      "chip": "ym2612"
    },
    {
      "channel": 2,
      "note": 58,
      "start": 118.8216,
      "duration": 0.1284,
      "velocity": 99,
      "chip": "ym2612"
    },
    {
      "channel": 5,
      "note": 47,
      "start": 118.8255,
      "duration": 0.1244,
      "velocity": 89,
      "chip": "ym2612"
    },
    {
      "channel": 3,
      "note": 59,
      "start": 118.9717,
      "duration": 0.1281,
      "velocity": 89,
      "chip": "ym2612"
    },
    {
      "channel": 0,
      "note": 58,
      "start": 118.9754,
      "duration": 0.1242,
      "velocity": 99,
      "chip": "ym2612"
    },
    {
      "channel": 2,
      "note": 59,
      "start": 119.1203,
      "duration": 0.1297,
      "velocity": 99,
      "chip": "ym2612"
    },
    {
      "channel": 5,
      "note": 47,
      "start": 119.123,
      "duration": 0.1269,
      "velocity": 89,
      "chip": "ym2612"
    },
    {
      "channel": 3,
      "note": 59,
      "start": 119.2703,
      "duration": 0.1295,
      "velocity": 89,
      "chip": "ym2612"
    },
    {
      "channel": 0,
      "note": 59,
      "start": 119.2728,
      "duration": 0.1268,
      "velocity": 99,
      "chip": "ym2612"
    },
    {
      "channel": 2,
      "note": 62,
      "start": 119.4371,
      "duration": 0.1129,
      "velocity": 99,
      "chip": "ym2612"
    },
    {
      "channel": 5,
      "note": 47,
      "start": 119.441,
      "duration": 0.1088,
      "velocity": 89,
      "chip": "ym2612"
    },
    {
      "channel": 3,
      "note": 59,
      "start": 119.5883,
      "duration": 0.1115,
      "velocity": 89,
      "chip": "ym2612"
    },
    {
      "channel": 0,
      "note": 62,
      "start": 119.5907,
      "duration": 0.1089,
      "velocity": 99,
      "chip": "ym2612"
    },
    {
      "channel": 2,
      "note": 58,
      "start": 119.7383,
      "duration": 0.1282,
      "velocity": 99,
      "chip": "ym2612"
    },
    {
      "channel": 5,
      "note": 47,
      "start": 119.741,
      "duration": 0.1254,
      "velocity": 89,
      "chip": "ym2612"
    },
    {
      "channel": 3,
      "note": 59,
      "start": 119.887,
      "duration": 0.1294,
      "velocity": 89,
      "chip": "ym2612"
    },
    {
      "channel": 0,
      "note": 58,
      "start": 119.8907,
      "duration": 0.1255,
      "velocity": 99,
      "chip": "ym2612"
    },
    {
      "channel": 2,
      "note": 59,
      "start": 120.0369,
      "duration": 0.1296,
      "velocity": 99,
      "chip": "ym2612"
    },
    {
      "channel": 5,
      "note": 47,
      "start": 120.0408,
      "duration": 0.1256,
      "velocity": 89,
      "chip": "ym2612"
    },
    {
      "channel": 3,
      "note": 59,
      "start": 120.1883,
      "duration": 0.1282,
      "velocity": 89,
      "chip": "ym2612"
    },
    {
      "channel": 0,
      "note": 59,
      "start": 120.1907,
      "duration": 0.1256,
      "velocity": 99,
      "chip": "ym2612"
    },
    {
      "channel": 2,
      "note": 62,
      "start": 120.3369,
      "duration": 0.1296,
      "velocity": 99,
      "chip": "ym2612"
    },
    {
      "channel": 5,
      "note": 47,
      "start": 120.3396,
      "duration": 0.1268,
      "velocity": 89,
      "chip": "ym2612"
    },
    {
      "channel": 3,
      "note": 59,
      "start": 120.5037,
      "duration": 0.1127,
      "velocity": 89,
      "chip": "ym2612"
    },
    {
      "channel": 0,
      "note": 62,
      "start": 120.5062,
      "duration": 0.11,
      "velocity": 99,
      "chip": "ym2612"
    },
    {
      "channel": 2,
      "note": 58,
      "start": 120.6562,
      "duration": 0.1104,
      "velocity": 99,
      "chip": "ym2612"
    },
    {
      "channel": 5,
      "note": 47,
      "start": 120.6601,
      "duration": 0.1064,
      "velocity": 89,
      "chip": "ym2612"
    },
    {
      "channel": 3,
      "note": 59,
      "start": 120.8049,
      "duration": 0.1282,
      "velocity": 89,
      "chip": "ym2612"
    },
    {
      "channel": 0,
      "note": 58,
      "start": 120.8086,
      "duration": 0.1244,
      "velocity": 99,
      "chip": "ym2612"
    },
    {
      "channel": 2,
      "note": 59,
      "start": 120.9537,
      "duration": 0.1296,
      "velocity": 99,
      "chip": "ym2612"
    },
    {
      "channel": 5,
      "note": 47,
      "start": 120.9564,
      "duration": 0.1268,
      "velocity": 89,
      "chip": "ym2612"
    },
    {
      "channel": 3,
      "note": 59,
      "start": 121.1036,
      "duration": 0.1295,
      "velocity": 89,
      "chip": "ym2612"
    },
    {
      "channel": 0,
      "note": 59,
      "start": 121.1061,
      "duration": 0.1268,
      "velocity": 99,
      "chip": "ym2612"
    },
    {
      "channel": 2,
      "note": 62,
      "start": 121.2551,
      "duration": 0.1283,
      "velocity": 99,
      "chip": "ym2612"
    },
    {
      "channel": 5,
      "note": 47,
      "start": 121.259,
      "duration": 0.1242,
      "velocity": 89,
      "chip": "ym2612"
    },
    {
      "channel": 3,
      "note": 59,
      "start": 121.4051,
      "duration": 0.1281,
      "velocity": 89,
      "chip": "ym2612"
    },
    {
      "channel": 0,
      "note": 62,
      "start": 121.4076,
      "duration": 0.1254,
      "velocity": 99,
      "chip": "ym2612"
    },
    {
      "channel": 2,
      "note": 58,
      "start": 121.5729,
      "duration": 0.1104,
      "velocity": 99,
      "chip": "ym2612"
    },
    {
      "channel": 5,
      "note": 47,
      "start": 121.5756,
      "duration": 0.1076,
      "velocity": 89,
      "chip": "ym2612"
    },
    {
      "channel": 3,
      "note": 59,
      "start": 121.7205,
      "duration": 0.1127,
      "velocity": 89,
      "chip": "ym2612"
    },
    {
      "channel": 0,
      "note": 58,
      "start": 121.7241,
      "duration": 0.1088,
      "velocity": 99,
      "chip": "ym2612"
    },
    {
      "channel": 2,
      "note": 59,
      "start": 121.8705,
      "duration": 0.1296,
      "velocity": 99,
      "chip": "ym2612"
    },
    {
      "channel": 5,
      "note": 47,
      "start": 121.8743,
      "duration": 0.1256,
      "velocity": 89,
      "chip": "ym2612"
    },
    {
      "channel": 3,
      "note": 59,
      "start": 122.0217,
      "duration": 0.1282,
      "velocity": 89,
      "chip": "ym2612"
    },
    {
      "channel": 0,
      "note": 59,
      "start": 122.0242,
      "duration": 0.1255,
      "velocity": 99,
      "chip": "ym2612"
    },
    {
      "channel": 2,
      "note": 62,
      "start": 122.1738,
      "duration": 0.1263,
      "velocity": 99,
      "chip": "ym2612"
    },
    {
      "channel": 5,
      "note": 47,
      "start": 122.1765,
      "duration": 0.1235,
      "velocity": 89,
      "chip": "ym2612"
    },
    {
      "channel": 3,
      "note": 59,
      "start": 122.3207,
      "duration": 0.1294,
      "velocity": 89,
      "chip": "ym2612"
    },
    {
      "channel": 0,
      "note": 62,
      "start": 122.3231,
      "duration": 0.1267,
      "velocity": 99,
      "chip": "ym2612"
    },
    {
      "channel": 2,
      "note": 58,
      "start": 122.4719,
      "duration": 0.1284,
      "velocity": 99,
      "chip": "ym2612"
    },
    {
      "channel": 5,
      "note": 47,
      "start": 122.4758,
      "duration": 0.1244,
      "velocity": 89,
      "chip": "ym2612"
    },
    {
      "channel": 3,
      "note": 59,
      "start": 122.6385,
      "duration": 0.1116,
      "velocity": 89,
      "chip": "ym2612"
    },
    {
      "channel": 0,
      "note": 58,
      "start": 122.6422,
      "duration": 0.1077,
      "velocity": 99,
      "chip": "ym2612"
    },
    {
      "channel": 2,
      "note": 59,
      "start": 122.7873,
      "duration": 0.1128,
      "velocity": 99,
      "chip": "ym2612"
    },
    {
      "channel": 5,
      "note": 47,
      "start": 122.79,
      "duration": 0.11,
      "velocity": 89,
      "chip": "ym2612"
    },
    {
      "channel": 3,
      "note": 59,
      "start": 122.9373,
      "duration": 0.1295,
      "velocity": 89,
      "chip": "ym2612"
    },
    {
      "channel": 0,
      "note": 59,
      "start": 122.9397,
      "duration": 0.1268,
      "velocity": 99,
      "chip": "ym2612"
    },
    {
      "channel": 2,
      "note": 62,
      "start": 123.0873,
      "duration": 0.1295,
      "velocity": 99,
      "chip": "ym2612"
    },
    {
      "channel": 5,
      "note": 47,
      "start": 123.0913,
      "duration": 0.1254,
      "velocity": 89,
      "chip": "ym2612"
    },
    {
      "channel": 3,
      "note": 59,
      "start": 123.2386,
      "duration": 0.1282,
      "velocity": 89,
      "chip": "ym2612"
    },
    {
      "channel": 0,
      "note": 62,
      "start": 123.2411,
      "duration": 0.1255,
      "velocity": 99,
      "chip": "ym2612"
    },
    {
      "channel": 2,
      "note": 58,
      "start": 123.3886,
      "duration": 0.1281,
      "velocity": 99,
      "chip": "ym2612"
    },
    {
      "channel": 5,
      "note": 47,
      "start": 123.3913,
      "duration": 0.1253,
      "velocity": 89,
      "chip": "ym2612"
    },
    {
      "channel": 3,
      "note": 59,
      "start": 123.5372,
      "duration": 0.1295,
      "velocity": 89,
      "chip": "ym2612"
    },
    {
      "channel": 0,
      "note": 58,
      "start": 123.5409,
      "duration": 0.1256,
      "velocity": 99,
      "chip": "ym2612"
    },
    {
      "channel": 2,
      "note": 59,
      "start": 123.7039,
      "duration": 0.1127,
      "velocity": 99,
      "chip": "ym2612"
    },
    {
      "channel": 5,
      "note": 47,
      "start": 123.7078,
      "duration": 0.1087,
      "velocity": 89,
      "chip": "ym2612"
    },
    {
      "channel": 3,
      "note": 59,
      "start": 123.8551,
      "duration": 0.1114,
      "velocity": 89,
      "chip": "ym2612"
    },
    {
      "channel": 0,
      "note": 59,
      "start": 123.8576,
      "duration": 0.1086,
      "velocity": 99,
      "chip": "ym2612"
    },
    {
      "channel": 4,
      "note": 47,
      "start": 124.0039,
      "duration": 0.1294,
      "velocity": 106,
      "chip": "ym2612"
    },
    {
      "channel": 1,
      "note": 54,
      "start": 124.007,
      "duration": 0.1261,
      "velocity": 106,
      "chip": "ym2612"
    },
    {
      "channel": 2,
      "note": 62,
      "start": 124.0098,
      "duration": 0.1238,
      "velocity": 99,
      "chip": "ym2612"
    },
    {
      "channel": 5,
      "note": 47,
      "start": 124.0124,
      "duration": 0.121,
      "velocity": 89,
      "chip": "ym2612"
    },
    {
      "channel": 4,
      "note": 47,
      "start": 124.1536,
      "duration": 0.1298,
      "velocity": 106,
      "chip": "ym2612"
    },
    {
      "channel": 1,
      "note": 54,
      "start": 124.1563,
      "duration": 0.1268,
      "velocity": 106,
      "chip": "ym2612"
    },
    {
      "channel": 3,
      "note": 59,
      "start": 124.1591,
      "duration": 0.1242,
      "velocity": 89,
      "chip": "ym2612"
    },
    {
      "channel": 0,
      "note": 62,
      "start": 124.1616,
      "duration": 0.1214,
      "velocity": 99,
      "chip": "ym2612"
    },
    {
      "channel": 4,
      "note": 47,
      "start": 124.3046,
      "duration": 6.6917,
      "velocity": 106,
      "chip": "ym2612"
    },
    {
      "channel": 1,
      "note": 54,
      "start": 124.3079,
      "duration": 6.6884,
      "velocity": 106,
      "chip": "ym2612"
    },
    {
      "channel": 2,
      "note": 58,
      "start": 124.3119,
      "duration": 0.1214,
      "velocity": 99,
      "chip": "ym2612"
    },
    {
      "channel": 5,
      "note": 47,
      "start": 124.3163,
      "duration": 0.1168,
      "velocity": 89,
      "chip": "ym2612"
    },
    {
      "channel": 3,
      "note": 59,
      "start": 124.455,
      "duration": 0.1283,
      "velocity": 89,
      "chip": "ym2612"
    },
    {
      "channel": 0,
      "note": 58,
      "start": 124.4587,
      "duration": 0.1244,
      "velocity": 99,
      "chip": "ym2612"
    },
    {
      "channel": 2,
      "note": 59,
      "start": 124.6037,
      "duration": 0.1296,
      "velocity": 99,
      "chip": "ym2612"
    },
    {
      "channel": 5,
      "note": 47,
      "start": 124.6064,
      "duration": 0.1268,
      "velocity": 89,
      "chip": "ym2612"
    },
    {
      "channel": 3,
      "note": 59,
      "start": 124.7703,
      "duration": 0.1129,
      "velocity": 89,
      "chip": "ym2612"
    },
    {
      "channel": 0,
      "note": 59,
      "start": 124.7727,
      "duration": 0.1102,
      "velocity": 99,
      "chip": "ym2612"
    },
    {
      "channel": 2,
      "note": 62,
      "start": 124.9222,
      "duration": 0.1113,
      "velocity": 99,
      "chip": "ym2612"
    },
    {
      "channel": 5,
      "note": 47,
      "start": 124.9261,
      "duration": 0.1071,
      "velocity": 89,
      "chip": "ym2612"
    },
    {
      "channel": 3,
      "note": 59,
      "start": 125.0717,
      "duration": 0.1282,
      "velocity": 89,
      "chip": "ym2612"
    },
    {
      "channel": 0,
      "note": 62,
      "start": 125.0741,
      "duration": 0.1256,
      "velocity": 99,
      "chip": "ym2612"
    },
    {
      "channel": 2,
      "note": 58,
      "start": 125.2217,
      "duration": 0.1283,
      "velocity": 99,
      "chip": "ym2612"
    },
    {
      "channel": 5,
      "note": 47,
      "start": 125.2243,
      "duration": 0.1255,
      "velocity": 89,
      "chip": "ym2612"
    },
    {
      "channel": 3,
      "note": 59,
      "start": 125.3704,
      "duration": 0.1294,
      "velocity": 89,
      "chip": "ym2612"
    },
    {
      "channel": 0,
      "note": 58,
      "start": 125.3741,
      "duration": 0.1256,
      "velocity": 99,
      "chip": "ym2612"
    },
    {
      "channel": 2,
      "note": 59,
      "start": 125.5204,
      "duration": 0.1296,
      "velocity": 99,
      "chip": "ym2612"
    },
    {
      "channel": 5,
      "note": 47,
      "start": 125.5243,
      "duration": 0.1255,
      "velocity": 89,
      "chip": "ym2612"
    },
    {
      "channel": 3,
      "note": 59,
      "start": 125.6717,
      "duration": 0.1282,
      "velocity": 89,
      "chip": "ym2612"
    },
    {
      "channel": 0,
      "note": 59,
      "start": 125.6741,
      "duration": 0.1256,
      "velocity": 99,
      "chip": "ym2612"
    },
    {
      "channel": 2,
      "note": 62,
      "start": 125.8385,
      "duration": 0.1116,
      "velocity": 99,
      "chip": "ym2612"
    },
    {
      "channel": 5,
      "note": 47,
      "start": 125.8412,
      "duration": 0.1088,
      "velocity": 89,
      "chip": "ym2612"
    },
    {
      "channel": 3,
      "note": 59,
      "start": 125.9873,
      "duration": 0.1128,
      "velocity": 89,
      "chip": "ym2612"
    },
    {
      "channel": 0,
      "note": 62,
      "start": 125.9897,
      "duration": 0.1101,
      "velocity": 99,
      "chip": "ym2612"
    },
    {
      "channel": 2,
      "note": 58,
      "start": 126.1385,
      "duration": 0.1282,
      "velocity": 99,
      "chip": "ym2612"
    },
    {
      "channel": 5,
      "note": 47,
      "start": 126.1423,
      "duration": 0.1242,
      "velocity": 89,
      "chip": "ym2612"
    },
    {
      "channel": 3,
      "note": 59,
      "start": 126.2884,
      "duration": 0.1282,
      "velocity": 89,
      "chip": "ym2612"
    },
    {
      "channel": 0,
      "note": 58,
      "start": 126.2921,
      "duration": 0.1243,
      "velocity": 99,
      "chip": "ym2612"
    },
    {
      "channel": 2,
      "note": 59,
      "start": 126.4371,
      "duration": 0.1296,
      "velocity": 99,
      "chip": "ym2612"
    },
    {
      "channel": 5,
      "note": 47,
      "start": 126.4397,
      "duration": 0.1268,
      "velocity": 89,
      "chip": "ym2612"
    },
    {
      "channel": 3,
      "note": 59,
      "start": 126.5871,
      "duration": 0.1295,
      "velocity": 89,
      "chip": "ym2612"
    },
    {
      "channel": 0,
      "note": 59,
      "start": 126.5896,
      "duration": 0.1268,
      "velocity": 99,
      "chip": "ym2612"
    },
    {
      "channel": 2,
      "note": 62,
      "start": 126.7383,
      "duration": 0.1285,
      "velocity": 99,
      "chip": "ym2612"
    },
    {
      "channel": 5,
      "note": 47,
      "start": 126.7422,
      "duration": 0.1245,
      "velocity": 89,
      "chip": "ym2612"
    },
    {
      "channel": 3,
      "note": 59,
      "start": 126.9051,
      "duration": 0.1117,
      "velocity": 89,
      "chip": "ym2612"
    },
    {
      "channel": 0,
      "note": 62,
      "start": 126.9076,
      "duration": 0.109,
      "velocity": 99,
      "chip": "ym2612"
    },
    {
      "channel": 2,
      "note": 58,
      "start": 127.0551,
      "duration": 0.1115,
      "velocity": 99,
      "chip": "ym2612"
    },
    {
      "channel": 5,
      "note": 47,
      "start": 127.0578,
      "duration": 0.1087,
      "velocity": 89,
      "chip": "ym2612"
    },
    {
      "channel": 3,
      "note": 59,
      "start": 127.2038,
      "duration": 0.1294,
      "velocity": 89,
      "chip": "ym2612"
    },
    {
      "channel": 0,
      "note": 58,
      "start": 127.2075,
      "duration": 0.1255,
      "velocity": 99,
      "chip": "ym2612"
    },
    {
      "channel": 2,
      "note": 59,
      "start": 127.3538,
      "duration": 0.1295,
      "velocity": 99,
      "chip": "ym2612"
    },
    {
      "channel": 5,
      "note": 47,
      "start": 127.3577,
      "duration": 0.1255,
      "velocity": 89,
      "chip": "ym2612"
    },
    {
      "channel": 3,
      "note": 59,
      "start": 127.505,
      "duration": 0.1282,
      "velocity": 89,
      "chip": "ym2612"
    },
    {
      "channel": 0,
      "note": 59,
      "start": 127.5075,
      "duration": 0.1255,
      "velocity": 99,
      "chip": "ym2612"
    },
    {
      "channel": 2,
      "note": 62,
      "start": 127.6549,
      "duration": 0.1285,
      "velocity": 99,
      "chip": "ym2612"
    },
    {
      "channel": 5,
      "note": 47,
      "start": 127.6576,
      "duration": 0.1257,
      "velocity": 89,
      "chip": "ym2612"
    },
    {
      "channel": 3,
      "note": 59,
      "start": 127.8039,
      "duration": 0.1294,
      "velocity": 89,
      "chip": "ym2612"
    },
    {
      "channel": 0,
      "note": 62,
      "start": 127.8064,
      "duration": 0.1267,
      "velocity": 99,
      "chip": "ym2612"
    },
    {
      "channel": 2,
      "note": 58,
      "start": 127.9736,
      "duration": 0.1099,
      "velocity": 99,
      "chip": "ym2612"
    },
    {
      "channel": 5,
      "note": 47,
      "start": 127.9775,
      "duration": 0.1059,
      "velocity": 89,
      "chip": "ym2612"
    },
    {
      "channel": 3,
      "note": 59,
      "start": 128.1218,
      "duration": 0.1115,
      "velocity": 89,
      "chip": "ym2612"
    },
    {
      "channel": 0,
      "note": 58,
      "start": 128.1255,
      "duration": 0.1076,
      "velocity": 99,
      "chip": "ym2612"
    },
    {
      "channel": 2,
      "note": 59,
      "start": 128.2705,
      "duration": 0.1296,
      "velocity": 99,
      "chip": "ym2612"
    },
    {
      "channel": 5,
      "note": 47,
      "start": 128.2732,
      "duration": 0.1268,
      "velocity": 89,
      "chip": "ym2612"
    },
    {
      "channel": 3,
      "note": 59,
      "start": 128.4205,
      "duration": 0.1294,
      "velocity": 89,
      "chip": "ym2612"
    },
    {
      "channel": 0,
      "note": 59,
      "start": 128.423,
      "duration": 0.1267,
      "velocity": 99,
      "chip": "ym2612"
    },
    {
      "channel": 2,
      "note": 62,
      "start": 128.5718,
      "duration": 0.1284,
      "velocity": 99,
      "chip": "ym2612"
    },
    {
      "channel": 5,
      "note": 47,
      "start": 128.5757,
      "duration": 0.1244,
      "velocity": 89,
      "chip": "ym2612"
    },
    {
      "channel": 3,
      "note": 59,
      "start": 128.7219,
      "duration": 0.1281,
      "velocity": 89,
      "chip": "ym2612"
    },
    {
      "channel": 0,
      "note": 62,
      "start": 128.7243,
      "duration": 0.1255,
      "velocity": 99,
      "chip": "ym2612"
    },
    {
      "channel": 2,
      "note": 58,
      "start": 128.8719,
      "duration": 0.1283,
      "velocity": 99,
      "chip": "ym2612"
    },
    {
      "channel": 5,
      "note": 47,
      "start": 128.8745,
      "duration": 0.1255,
      "velocity": 89,
      "chip": "ym2612"
    },
    {
      "channel": 3,
      "note": 59,
      "start": 129.0373,
      "duration": 0.1127,
      "velocity": 89,
      "chip": "ym2612"
    },
    {
      "channel": 0,
      "note": 58,
      "start": 129.041,
      "duration": 0.1088,
      "velocity": 99,
      "chip": "ym2612"
    },
    {
      "channel": 2,
      "note": 59,
      "start": 129.1873,
      "duration": 0.1129,
      "velocity": 99,
      "chip": "ym2612"
    },
    {
      "channel": 5,
      "note": 47,
      "start": 129.1912,
      "duration": 0.1088,
      "velocity": 89,
      "chip": "ym2612"
    },
    {
      "channel": 3,
      "note": 59,
      "start": 129.3385,
      "duration": 0.128,
      "velocity": 89,
      "chip": "ym2612"
    },
    {
      "channel": 0,
      "note": 59,
      "start": 129.341,
      "duration": 0.1254,
      "velocity": 99,
      "chip": "ym2612"
    },
    {
      "channel": 2,
      "note": 62,
      "start": 129.489,
      "duration": 0.1278,
      "velocity": 99,
      "chip": "ym2612"
    },
    {
      "channel": 5,
      "note": 47,
      "start": 129.4917,
      "duration": 0.1251,
      "velocity": 89,
      "chip": "ym2612"
    },
    {
      "channel": 3,
      "note": 59,
      "start": 129.6373,
      "duration": 0.1294,
      "velocity": 89,
      "chip": "ym2612"
    },
    {
      "channel": 0,
      "note": 62,
      "start": 129.6398,
      "duration": 0.1267,
      "velocity": 99,
      "chip": "ym2612"
    },
    {
      "channel": 2,
      "note": 58,
      "start": 129.7886,
      "duration": 0.1282,
      "velocity": 99,
      "chip": "ym2612"
    },
    {
      "channel": 5,
      "note": 47,
      "start": 129.7925,
      "duration": 0.1242,
      "velocity": 89,
      "chip": "ym2612"
    },
    {
      "channel": 3,
      "note": 59,
      "start": 129.9384,
      "duration": 0.1282,
      "velocity": 89,
      "chip": "ym2612"
    },
    {
      "channel": 0,
      "note": 58,
      "start": 129.9421,
      "duration": 0.1243,
      "velocity": 99,
      "chip": "ym2612"
    },
    {
      "channel": 2,
      "note": 59,
      "start": 130.1038,
      "duration": 0.1129,
      "velocity": 99,
      "chip": "ym2612"
    },
    {
      "channel": 5,
      "note": 47,
      "start": 130.1065,
      "duration": 0.1101,
      "velocity": 89,
      "chip": "ym2612"
    },
    {
      "channel": 3,
      "note": 59,
      "start": 130.254,
      "duration": 0.1126,
      "velocity": 89,
      "chip": "ym2612"
    },
    {
      "channel": 0,
      "note": 59,
      "start": 130.2565,
      "duration": 0.1099,
      "velocity": 99,
      "chip": "ym2612"
    },
    {
      "channel": 2,
      "note": 62,
      "start": 130.4052,
      "duration": 0.1282,
      "velocity": 99,
      "chip": "ym2612"
    },
    {
      "channel": 5,
      "note": 47,
      "start": 130.4091,
      "duration": 0.1242,
      "velocity": 89,
      "chip": "ym2612"
    },
    {
      "channel": 3,
      "note": 59,
      "start": 130.5551,
      "duration": 0.1282,
      "velocity": 89,
      "chip": "ym2612"
    },
    {
      "channel": 0,
      "note": 62,
      "start": 130.5576,
      "duration": 0.1255,
      "velocity": 99,
      "chip": "ym2612"
    },
    {
      "channel": 2,
      "note": 58,
      "start": 130.7051,
      "duration": 0.1283,
      "velocity": 99,
      "chip": "ym2612"
    },
    {
      "channel": 5,
      "note": 47,
      "start": 130.7077,
      "duration": 0.1255,
      "velocity": 89,
      "chip": "ym2612"
    },
    {
      "channel": 3,
      "note": 59,
      "start": 130.8538,
      "duration": 0.1294,
      "velocity": 89,
      "chip": "ym2612"
    },
    {
      "channel": 0,
      "note": 58,
      "start": 130.8575,
      "duration": 0.1255,
      "velocity": 99,
      "chip": "ym2612"
    }
  ]
}