{
  "track_name": "15 - Spider Lair",
  "duration_sec": 110.835,
  "sample_rate": 44100,
  "note_count": 1790,
  "unique_pitches": 26,
  "pitch_range": 50,
  "avg_note_duration": 0.2799,
  "reconstruction_stats": {
    "notes_reconstructed": 1790,
    "keyon_events": 1790,
    "keyoff_events": 1786,
    "orphan_keyons": 4,
    "unique_pitches": 26,
    "pitch_range": 50,
    "avg_duration_sec": 0.2799
  },
  "metadata": {
    "source": "T\\The Immortal\\15 - Spider Lair.vgz"
  },
  "notes": [
    {
      "channel": 0,
      "note": 37,
      "start": 0.0,
      "duration": 0.0,
      "velocity": 88,
      "chip": "ym2612"
    },
    {
      "channel": 0,
      "note": 43,
      "start": 0.0,
      "duration": 0.0,
      "velocity": 106,
      "chip": "ym2612"
    },
    {
      "channel": 0,
      "note": 53,
      "start": 0.0,
      "duration": 0.0,
      "velocity": 106,
      "chip": "ym2612"
    },
    {
      "channel": 0,
      "note": 60,
      "start": 0.0,
      "duration": 0.0,
      "velocity": 106,
      "chip": "ym2612"
    },
    {
      "channel": 0,
      "note": 53,
      "start": 0.0,
      "duration": 0.0,
      "velocity": 106,
      "chip": "ym2612"
    },
    {
      "channel": 0,
      "note": 59,
      "start": 0.0,
      "duration": 0.0,
      "velocity": 106,
      "chip": "ym2612"
    },
    {
      "channel": 0,
      "note": 53,
      "start": 0.0,
      "duration": 0.0,
      "velocity": 106,
      "chip": "ym2612"
    },
    {
      "channel": 0,
      "note": 60,
      "start": 0.0,
      "duration": 0.0,
      "velocity": 106,
      "chip": "ym2612"
    },
    {
      "channel": 0,
      "note": 53,
      "start": 0.0,
      "duration": 0.0,
      "velocity": 106,
      "chip": "ym2612"
    },
    {
      "channel": 0,
      "note": 62,
      "start": 0.0,
      "duration": 0.0,
      "velocity": 106,
      "chip": "ym2612"
    },
    {
      "channel": 0,
      "note": 53,
      "start": 0.0,
      "duration": 0.0,
      "velocity": 106,
      "chip": "ym2612"
    },
    {
      "channel": 0,
      "note": 60,
      "start": 0.0,
      "duration": 0.0,
      "velocity": 106,
      "chip": "ym2612"
    },
    {
      "channel": 0,
      "note": 53,
      "start": 0.0,
      "duration": 0.0,
      "velocity": 106,
      "chip": "ym2612"
    },
    {
      "channel": 0,
      "note": 59,
      "start": 0.0,
      "duration": 0.0,
      "velocity": 106,
      "chip": "ym2612"
    },
    {
      "channel": 0,
      "note": 53,
      "start": 0.0,
      "duration": 0.0,
      "velocity": 106,
      "chip": "ym2612"
    },
    {
      "channel": 0,
      "note": 60,
      "start": 0.0,
      "duration": 0.0,
      "velocity": 106,
      "chip": "ym2612"
    },
    {
      "channel": 0,
      "note": 53,
      "start": 0.0,
      "duration": 0.0,
      "velocity": 106,
      "chip": "ym2612"
    },
    {
      "channel": 0,
      "note": 62,
      "start": 0.0,
      "duration": 0.0,
      "velocity": 106,
      "chip": "ym2612"
    },
    {
      "channel": 0,
      "note": 55,
      "start": 0.0,
      "duration": 0.0,
      "velocity": 106,
      "chip": "ym2612"
    },
    {
      "channel": 0,
      "note": 60,
      "start": 0.0,
      "duration": 0.0,
      "velocity": 106,
      "chip": "ym2612"
    },
    {
      "channel": 0,
      "note": 55,
      "start": 0.0,
      "duration": 2.3115,
      "velocity": 88,
      "chip": "ym2612"
    },
    {
      "channel": 1,
      "note": 74,
      "start": 0.0,
      "duration": 0.0,
      "velocity": 78,
      "chip": "ym2612"
    },
    {
      "channel": 2,
      "note": 49,
      "start": 0.0,
      "duration": 0.0,
      "velocity": 88,
      "chip": "ym2612"
    },
    {
      "channel": 2,
      "note": 55,
      "start": 0.0,
      "duration": 0.0,
      "velocity": 88,
      "chip": "ym2612"
    },
    {
      "channel": 2,
      "note": 84,
      "start": 0.0,
      "duration": 0.0,
      "velocity": 88,
      "chip": "ym2612"
    },
    {
      "channel": 2,
      "note": 83,
      "start": 0.0,
      "duration": 0.0,
      "velocity": 88,
      "chip": "ym2612"
    },
    {
      "channel": 2,
      "note": 84,
      "start": 0.0,
      "duration": 0.0,
      "velocity": 88,
      "chip": "ym2612"
    },
    {
      "channel": 2,
      "note": 86,
      "start": 0.0,
      "duration": 0.0,
      "velocity": 88,
      "chip": "ym2612"
    },
    {
      "channel": 2,
      "note": 84,
      "start": 0.0,
      "duration": 0.0,
      "velocity": 88,
      "chip": "ym2612"
    },
    {
      "channel": 2,
      "note": 83,
      "start": 0.0,
      "duration": 0.0,
      "velocity": 88,
      "chip": "ym2612"
    },
    {
      "channel": 2,
      "note": 84,
      "start": 0.0,
      "duration": 0.0,
      "velocity": 88,
      "chip": "ym2612"
    },
    {
      "channel": 2,
      "note": 86,
      "start": 0.0,
      "duration": 0.0,
      "velocity": 88,
      "chip": "ym2612"
    },
    {
      "channel": 2,
      "note": 84,
      "start": 0.0,
      "duration": 0.0,
      "velocity": 88,
      "chip": "ym2612"
    },
    {
      "channel": 2,
      "note": 83,
      "start": 0.0,
      "duration": 2.3132,
      "velocity": 88,
      "chip": "ym2612"
    },
    {
      "channel": 3,
      "note": 60,
      "start": 0.0,
      "duration": 0.0,
      "velocity": 117,
      "chip": "ym2612"
    },
    {
      "channel": 3,
      "note": 60,
      "start": 0.0,
      "duration": 0.0,
      "velocity": 117,
      "chip": "ym2612"
    },
    {
      "channel": 3,
      "note": 60,
      "start": 0.0,
      "duration": 0.0,
      "velocity": 117,
      "chip": "ym2612"
    },
    {
      "channel": 3,
      "note": 60,
      "start": 0.0,
      "duration": 0.0,
      "velocity": 117,
      "chip": "ym2612"
    },
    {
      "channel": 3,
      "note": 60,
      "start": 0.0,
      "duration": 0.0,
      "velocity": 117,
      "chip": "ym2612"
    },
    {
      "channel": 3,
      "note": 60,
      "start": 0.0,
      "duration": 0.0,
      "velocity": 117,
      "chip": "ym2612"
    },
    {
      "channel": 3,
      "note": 60,
      "start": 0.0,
      "duration": 0.0,
      "velocity": 117,
      "chip": "ym2612"
    },
    {
      "channel": 3,
      "note": 60,
      "start": 0.0,
      "duration": 0.0,
      "velocity": 117,
      "chip": "ym2612"
    },
    {
      "channel": 3,
      "note": 60,
      "start": 0.0,
      "duration": 0.0,
      "velocity": 117,
      "chip": "ym2612"
    },
    {
      "channel": 3,
      "note": 60,
      "start": 0.0,
      "duration": 0.0,
      "velocity": 117,
      "chip": "ym2612"
    },
    {
      "channel": 3,
      "note": 60,
      "start": 0.0,
      "duration": 0.0,
      "velocity": 117,
      "chip": "ym2612"
    },
    {
      "channel": 3,
      "note": 60,
      "start": 0.0,
      "duration": 0.0,
      "velocity": 117,
      "chip": "ym2612"
    },
    {
      "channel": 3,
      "note": 60,
      "start": 0.0,
      "duration": 0.0,
      "velocity": 117,
      "chip": "ym2612"
    },
    {
      "channel": 3,
      "note": 60,
      "start": 0.0,
      "duration": 0.0,
      "velocity": 88,
      "chip": "ym2612"
    },
    {
      "channel": 3,
      "note": 79,
      "start": 0.0,
      "duration": 0.0,
      "velocity": 88,
      "chip": "ym2612"
    },
    {
      "channel": 3,
      "note": 78,
      "start": 0.0,
      "duration": 0.0,
      "velocity": 88,
      "chip": "ym2612"
    },
    {
      "channel": 3,
      "note": 79,
      "start": 0.0,
      "duration": 0.0,
      "velocity": 88,
      "chip": "ym2612"
    },
    {
      "channel": 3,
      "note": 81,
      "start": 0.0,
      "duration": 0.0,
      "velocity": 88,
      "chip": "ym2612"
    },
    {
      "channel": 3,
      "note": 79,
      "start": 0.0,
      "duration": 0.0,
      "velocity": 88,
      "chip": "ym2612"
    },
    {
      "channel": 3,
      "note": 78,
      "start": 0.0,
      "duration": 0.0,
      "velocity": 88,
      "chip": "ym2612"
    },
    {
      "channel": 3,
      "note": 79,
      "start": 0.0,
      "duration": 0.0,
      "velocity": 88,
      "chip": "ym2612"
    },
    {
      "channel": 3,
      "note": 81,
      "start": 0.0,
      "duration": 0.0,
      "velocity": 88,
      "chip": "ym2612"
    },
    {
      "channel": 3,
      "note": 79,
      "start": 0.0,
      "duration": 0.0,
      "velocity": 88,
      "chip": "ym2612"
    },
    {
      "channel": 4,
      "note": 59,
      "start": 0.0,
      "duration": 0.0,
      "velocity": 86,
      "chip": "ym2612"
    },
    {
      "channel": 4,
      "note": 59,
      "start": 0.0,
      "duration": 0.0,
      "velocity": 86,
      "chip": "ym2612"
    },
    {
      "channel": 4,
      "note": 59,
      "start": 0.0,
      "duration": 0.0,
      "velocity": 86,
      "chip": "ym2612"
    },
    {
      "channel": 4,
      "note": 59,
      "start": 0.0,
      "duration": 0.0,
      "velocity": 86,
      "chip": "ym2612"
    },
    {
      "channel": 4,
      "note": 59,
      "start": 0.0,
      "duration": 0.0,
      "velocity": 86,
      "chip": "ym2612"
    },
    {
      "channel": 4,
      "note": 59,
      "start": 0.0,
      "duration": 0.0,
      "velocity": 86,
      "chip": "ym2612"
    },
    {
      "channel": 4,
      "note": 59,
      "start": 0.0,
      "duration": 0.0,
      "velocity": 86,
      "chip": "ym2612"
    },
    {
      "channel": 4,
      "note": 59,
      "start": 0.0,
      "duration": 0.0,
      "velocity": 86,
      "chip": "ym2612"
    },
    {
      "channel": 4,
      "note": 59,
      "start": 0.0,
      "duration": 0.0,
      "velocity": 86,
      "chip": "ym2612"
    },
    {
      "channel": 4,
      "note": 59,
      "start": 0.0,
      "duration": 0.0,
      "velocity": 86,
      "chip": "ym2612"
    },
    {
      "channel": 4,
      "note": 59,
      "start": 0.0,
      "duration": 0.0,
      "velocity": 86,
      "chip": "ym2612"
    },
    {
      "channel": 4,
      "note": 59,
      "start": 0.0,
      "duration": 0.0,
      "velocity": 86,
      "chip": "ym2612"
    },
    {
      "channel": 4,
      "note": 59,
      "start": 0.0,
      "duration": 0.0,
      "velocity": 86,
      "chip": "ym2612"
    },
    {
      "channel": 4,
      "note": 60,
      "start": 0.0,
      "duration": 0.0,
      "velocity": 127,
      "chip": "ym2612"
    },
    {
      "channel": 4,
      "note": 41,
      "start": 0.0,
      "duration": 0.0,
      "velocity": 127,
      "chip": "ym2612"
    },
    {
      "channel": 3,
      "note": 78,
      "start": 0.0016,
      "duration": 0.1429,
      "velocity": 117,
      "chip": "ym2612"
    },
    {
      "channel": 4,
      "note": 43,
      "start": 0.0033,
      "duration": 0.1247,
      "velocity": 86,
      "chip": "ym2612"
    },
    {
      "channel": 4,
      "note": 59,
      "start": 0.1447,
      "duration": 0.1333,
      "velocity": 86,
      "chip": "ym2612"
    },
    {
      "channel": 3,
      "note": 60,
      "start": 0.1616,
      "duration": 0.1162,
      "velocity": 117,
      "chip": "ym2612"
    },
    {
      "channel": 3,
      "note": 60,
      "start": 0.2949,
      "duration": 0.1329,
      "velocity": 117,
      "chip": "ym2612"
    },
    {
      "channel": 4,
      "note": 59,
      "start": 0.2965,
      "duration": 0.1315,
      "velocity": 86,
      "chip": "ym2612"
    },
    {
      "channel": 3,
      "note": 60,
      "start": 0.4445,
      "duration": 0.1335,
      "velocity": 117,
      "chip": "ym2612"
    },
    {
      "channel": 4,
      "note": 59,
      "start": 0.4448,
      "duration": 0.1165,
      "velocity": 86,
      "chip": "ym2612"
    },
    {
      "channel": 4,
      "note": 59,
      "start": 0.5798,
      "duration": 0.1316,
      "velocity": 86,
      "chip": "ym2612"
    },
    {
      "channel": 3,
      "note": 60,
      "start": 0.5962,
      "duration": 0.1149,
      "velocity": 117,
      "chip": "ym2612"
    },
    {
      "channel": 3,
      "note": 60,
      "start": 0.7279,
      "duration": 0.1332,
      "velocity": 117,
      "chip": "ym2612"
    },
    {
      "channel": 4,
      "note": 59,
      "start": 0.7282,
      "duration": 0.1332,
      "velocity": 86,
      "chip": "ym2612"
    },
    {
      "channel": 3,
      "note": 60,
      "start": 0.8782,
      "duration": 0.1331,
      "velocity": 117,
      "chip": "ym2612"
    },
    {
      "channel": 4,
      "note": 59,
      "start": 0.8798,
      "duration": 0.1148,
      "velocity": 86,
      "chip": "ym2612"
    },
    {
      "channel": 4,
      "note": 59,
      "start": 1.0115,
      "duration": 0.1333,
      "velocity": 86,
      "chip": "ym2612"
    },
    {
      "channel": 3,
      "note": 60,
      "start": 1.0279,
      "duration": 0.1167,
      "velocity": 117,
      "chip": "ym2612"
    },
    {
      "channel": 3,
      "note": 60,
      "start": 1.1632,
      "duration": 0.1313,
      "velocity": 117,
      "chip": "ym2612"
    },
    {
      "channel": 4,
      "note": 59,
      "start": 1.1649,
      "duration": 0.1298,
      "velocity": 86,
      "chip": "ym2612"
    },
    {
      "channel": 3,
      "note": 60,
      "start": 1.3112,
      "duration": 0.1335,
      "velocity": 117,
      "chip": "ym2612"
    },
    {
      "channel": 4,
      "note": 59,
      "start": 1.3115,
      "duration": 0.1166,
      "velocity": 86,
      "chip": "ym2612"
    },
    {
      "channel": 4,
      "note": 59,
      "start": 1.4464,
      "duration": 0.1316,
      "velocity": 86,
      "chip": "ym2612"
    },
    {
      "channel": 3,
      "note": 60,
      "start": 1.4612,
      "duration": 0.1166,
      "velocity": 117,
      "chip": "ym2612"
    },
    {
      "channel": 3,
      "note": 60,
      "start": 1.5946,
      "duration": 0.1332,
      "velocity": 117,
      "chip": "ym2612"
    },
    {
      "channel": 4,
      "note": 59,
      "start": 1.5949,
      "duration": 0.1332,
      "velocity": 86,
      "chip": "ym2612"
    },
    {
      "channel": 3,
      "note": 60,
      "start": 1.7464,
      "duration": 0.1147,
      "velocity": 117,
      "chip": "ym2612"
    },
    {
      "channel": 4,
      "note": 59,
      "start": 1.7481,
      "duration": 0.1133,
      "velocity": 86,
      "chip": "ym2612"
    },
    {
      "channel": 3,
      "note": 60,
      "start": 1.8779,
      "duration": 0.1333,
      "velocity": 117,
      "chip": "ym2612"
    },
    {
      "channel": 4,
      "note": 59,
      "start": 1.8781,
      "duration": 0.1333,
      "velocity": 86,
      "chip": "ym2612"
    },
    {
      "channel": 3,
      "note": 60,
      "start": 2.0281,
      "duration": 0.133,
      "velocity": 117,
      "chip": "ym2612"
    },
    {
      "channel": 4,
      "note": 59,
      "start": 2.0298,
      "duration": 0.1315,
      "velocity": 86,
      "chip": "ym2612"
    },
    {
      "channel": 3,
      "note": 60,
      "start": 2.1779,
      "duration": 0.1166,
      "velocity": 117,
      "chip": "ym2612"
    },
    {
      "channel": 4,
      "note": 59,
      "start": 2.1782,
      "duration": 0.1166,
      "velocity": 86,
      "chip": "ym2612"
    },
    {
      "channel": 3,
      "note": 60,
      "start": 2.3149,
      "duration": 0.1296,
      "velocity": 117,
      "chip": "ym2612"
    },
    {
      "channel": 4,
      "note": 59,
      "start": 2.3166,
      "duration": 0.1281,
      "velocity": 86,
      "chip": "ym2612"
    },
    {
      "channel": 0,
      "note": 36,
      "start": 2.3277,
      "duration": 1.1332,
      "velocity": 88,
      "chip": "ym2612"
    },
    {
      "channel": 2,
      "note": 48,
      "start": 2.3279,
      "duration": 1.1332,
      "velocity": 88,
      "chip": "ym2612"
    },
    {
      "channel": 3,
      "note": 60,
      "start": 2.4612,
      "duration": 0.1333,
      "velocity": 117,
      "chip": "ym2612"
    },
    {
      "channel": 4,
      "note": 59,
      "start": 2.4615,
      "duration": 0.1333,
      "velocity": 86,
      "chip": "ym2612"
    },
    {
      "channel": 3,
      "note": 60,
      "start": 2.6115,
      "duration": 0.1163,
      "velocity": 117,
      "chip": "ym2612"
    },
    {
      "channel": 4,
      "note": 59,
      "start": 2.6132,
      "duration": 0.1148,
      "velocity": 86,
      "chip": "ym2612"
    },
    {
      "channel": 3,
      "note": 60,
      "start": 2.7446,
      "duration": 0.1332,
      "velocity": 117,
      "chip": "ym2612"
    },
    {
      "channel": 4,
      "note": 59,
      "start": 2.7449,
      "duration": 0.1332,
      "velocity": 86,
      "chip": "ym2612"
    },
    {
      "channel": 3,
      "note": 60,
      "start": 2.8964,
      "duration": 0.1314,
      "velocity": 117,
      "chip": "ym2612"
    },
    {
      "channel": 4,
      "note": 59,
      "start": 2.8982,
      "duration": 0.1299,
      "velocity": 86,
      "chip": "ym2612"
    },
    {
      "channel": 3,
      "note": 60,
      "start": 3.0445,
      "duration": 0.1166,
      "velocity": 117,
      "chip": "ym2612"
    },
    {
      "channel": 4,
      "note": 59,
      "start": 3.0448,
      "duration": 0.1165,
      "velocity": 86,
      "chip": "ym2612"
    },
    {
      "channel": 3,
      "note": 60,
      "start": 3.1782,
      "duration": 0.1329,
      "velocity": 117,
      "chip": "ym2612"
    },
    {
      "channel": 4,
      "note": 59,
      "start": 3.1799,
      "duration": 0.1315,
      "velocity": 86,
      "chip": "ym2612"
    },
    {
      "channel": 3,
      "note": 60,
      "start": 3.3279,
      "duration": 0.1334,
      "velocity": 117,
      "chip": "ym2612"
    },
    {
      "channel": 4,
      "note": 59,
      "start": 3.3282,
      "duration": 0.1333,
      "velocity": 86,
      "chip": "ym2612"
    },
    {
      "channel": 0,
      "note": 37,
      "start": 3.478,
      "duration": 1.1328,
      "velocity": 88,
      "chip": "ym2612"
    },
    {
      "channel": 2,
      "note": 49,
      "start": 3.4784,
      "duration": 1.1328,
      "velocity": 88,
      "chip": "ym2612"
    },
    {
      "channel": 3,
      "note": 60,
      "start": 3.4801,
      "duration": 0.1144,
      "velocity": 117,
      "chip": "ym2612"
    },
    {
      "channel": 4,
      "note": 59,
      "start": 3.4818,
      "duration": 0.113,
      "velocity": 86,
      "chip": "ym2612"
    },
    {
      "channel": 3,
      "note": 60,
      "start": 3.6112,
      "duration": 0.1332,
      "velocity": 117,
      "chip": "ym2612"
    },
    {
      "channel": 4,
      "note": 59,
      "start": 3.6115,
      "duration": 0.1332,
      "velocity": 86,
      "chip": "ym2612"
    },
    {
      "channel": 3,
      "note": 60,
      "start": 3.7615,
      "duration": 0.133,
      "velocity": 117,
      "chip": "ym2612"
    },
    {
      "channel": 4,
      "note": 59,
      "start": 3.7632,
      "duration": 0.1147,
      "velocity": 86,
      "chip": "ym2612"
    },
    {
      "channel": 4,
      "note": 59,
      "start": 3.8948,
      "duration": 0.1333,
      "velocity": 86,
      "chip": "ym2612"
    },
    {
      "channel": 3,
      "note": 60,
      "start": 3.9112,
      "duration": 0.1166,
      "velocity": 117,
      "chip": "ym2612"
    },
    {
      "channel": 3,
      "note": 60,
      "start": 4.0464,
      "duration": 0.1315,
      "velocity": 117,
      "chip": "ym2612"
    },
    {
      "channel": 4,
      "note": 59,
      "start": 4.0482,
      "duration": 0.13,
      "velocity": 86,
      "chip": "ym2612"
    },
    {
      "channel": 3,
      "note": 60,
      "start": 4.1945,
      "duration": 0.1335,
      "velocity": 117,
      "chip": "ym2612"
    },
    {
      "channel": 4,
      "note": 59,
      "start": 4.1948,
      "duration": 0.1165,
      "velocity": 86,
      "chip": "ym2612"
    },
    {
      "channel": 4,
      "note": 59,
      "start": 4.3298,
      "duration": 0.1316,
      "velocity": 86,
      "chip": "ym2612"
    },
    {
      "channel": 3,
      "note": 60,
      "start": 4.3446,
      "duration": 0.1165,
      "velocity": 117,
      "chip": "ym2612"
    },
    {
      "channel": 3,
      "note": 60,
      "start": 4.4779,
      "duration": 0.1334,
      "velocity": 117,
      "chip": "ym2612"
    },
    {
      "channel": 4,
      "note": 59,
      "start": 4.4781,
      "duration": 0.1334,
      "velocity": 86,
      "chip": "ym2612"
    },
    {
      "channel": 0,
      "note": 41,
      "start": 4.6283,
      "duration": 2.2998,
      "velocity": 88,
      "chip": "ym2612"
    },
    {
      "channel": 2,
      "note": 53,
      "start": 4.6301,
      "duration": 2.2998,
      "velocity": 88,
      "chip": "ym2612"
    },
    {
      "channel": 3,
      "note": 60,
      "start": 4.6317,
      "duration": 0.1295,
      "velocity": 117,
      "chip": "ym2612"
    },
    {
      "channel": 4,
      "note": 59,
      "start": 4.6334,
      "duration": 0.1112,
      "velocity": 86,
      "chip": "ym2612"
    },
    {
      "channel": 4,
      "note": 59,
      "start": 4.7615,
      "duration": 0.1331,
      "velocity": 86,
      "chip": "ym2612"
    },
    {
      "channel": 3,
      "note": 60,
      "start": 4.7779,
      "duration": 0.1166,
      "velocity": 117,
      "chip": "ym2612"
    },
    {
      "channel": 3,
      "note": 60,
      "start": 4.9115,
      "duration": 0.1329,
      "velocity": 117,
      "chip": "ym2612"
    },
    {
      "channel": 4,
      "note": 59,
      "start": 4.9132,
      "duration": 0.1315,
      "velocity": 86,
      "chip": "ym2612"
    },
    {
      "channel": 3,
      "note": 60,
      "start": 5.0612,
      "duration": 0.1335,
      "velocity": 117,
      "chip": "ym2612"
    },
    {
      "channel": 4,
      "note": 59,
      "start": 5.0615,
      "duration": 0.1165,
      "velocity": 86,
      "chip": "ym2612"
    },
    {
      "channel": 4,
      "note": 59,
      "start": 5.1964,
      "duration": 0.1315,
      "velocity": 86,
      "chip": "ym2612"
    },
    {
      "channel": 3,
      "note": 60,
      "start": 5.2129,
      "duration": 0.1149,
      "velocity": 117,
      "chip": "ym2612"
    },
    {
      "channel": 3,
      "note": 60,
      "start": 5.3446,
      "duration": 0.1332,
      "velocity": 117,
      "chip": "ym2612"
    },
    {
      "channel": 4,
      "note": 59,
      "start": 5.3449,
      "duration": 0.1331,
      "velocity": 86,
      "chip": "ym2612"
    },
    {
      "channel": 3,
      "note": 60,
      "start": 5.4949,
      "duration": 0.133,
      "velocity": 117,
      "chip": "ym2612"
    },
    {
      "channel": 4,
      "note": 59,
      "start": 5.4965,
      "duration": 0.1147,
      "velocity": 86,
      "chip": "ym2612"
    },
    {
      "channel": 4,
      "note": 59,
      "start": 5.628,
      "duration": 0.1334,
      "velocity": 86,
      "chip": "ym2612"
    },
    {
      "channel": 3,
      "note": 60,
      "start": 5.6445,
      "duration": 0.1167,
      "velocity": 117,
      "chip": "ym2612"
    },
    {
      "channel": 3,
      "note": 60,
      "start": 5.7798,
      "duration": 0.1313,
      "velocity": 117,
      "chip": "ym2612"
    },
    {
      "channel": 4,
      "note": 59,
      "start": 5.7815,
      "duration": 0.1298,
      "velocity": 86,
      "chip": "ym2612"
    },
    {
      "channel": 3,
      "note": 60,
      "start": 5.9279,
      "duration": 0.1335,
      "velocity": 117,
      "chip": "ym2612"
    },
    {
      "channel": 4,
      "note": 59,
      "start": 5.9282,
      "duration": 0.1164,
      "velocity": 86,
      "chip": "ym2612"
    },
    {
      "channel": 4,
      "note": 59,
      "start": 6.0631,
      "duration": 0.1316,
      "velocity": 86,
      "chip": "ym2612"
    },
    {
      "channel": 3,
      "note": 60,
      "start": 6.0779,
      "duration": 0.1166,
      "velocity": 117,
      "chip": "ym2612"
    },
    {
      "channel": 3,
      "note": 60,
      "start": 6.2112,
      "duration": 0.1333,
      "velocity": 117,
      "chip": "ym2612"
    },
    {
      "channel": 4,
      "note": 59,
      "start": 6.2115,
      "duration": 0.1333,
      "velocity": 86,
      "chip": "ym2612"
    },
    {
      "channel": 3,
      "note": 60,
      "start": 6.3631,
      "duration": 0.1147,
      "velocity": 117,
      "chip": "ym2612"
    },
    {
      "channel": 4,
      "note": 59,
      "start": 6.3648,
      "duration": 0.1132,
      "velocity": 86,
      "chip": "ym2612"
    },
    {
      "channel": 3,
      "note": 60,
      "start": 6.4946,
      "duration": 0.1332,
      "velocity": 117,
      "chip": "ym2612"
    },
    {
      "channel": 4,
      "note": 59,
      "start": 6.4949,
      "duration": 0.1331,
      "velocity": 86,
      "chip": "ym2612"
    },
    {
      "channel": 3,
      "note": 60,
      "start": 6.6449,
      "duration": 0.1329,
      "velocity": 117,
      "chip": "ym2612"
    },
    {
      "channel": 4,
      "note": 59,
      "start": 6.6465,
      "duration": 0.1315,
      "velocity": 86,
      "chip": "ym2612"
    },
    {
      "channel": 3,
      "note": 60,
      "start": 6.7945,
      "duration": 0.1167,
      "velocity": 117,
      "chip": "ym2612"
    },
    {
      "channel": 4,
      "note": 59,
      "start": 6.7948,
      "duration": 0.1166,
      "velocity": 86,
      "chip": "ym2612"
    },
    {
      "channel": 3,
      "note": 60,
      "start": 6.9316,
      "duration": 0.1295,
      "velocity": 117,
      "chip": "ym2612"
    },
    {
      "channel": 4,
      "note": 59,
      "start": 6.9333,
      "duration": 0.128,
      "velocity": 86,
      "chip": "ym2612"
    },
    {
      "channel": 0,
      "note": 36,
      "start": 6.9443,
      "duration": 1.1332,
      "velocity": 88,
      "chip": "ym2612"
    },
    {
      "channel": 2,
      "note": 48,
      "start": 6.9446,
      "duration": 1.1332,
      "velocity": 88,
      "chip": "ym2612"
    },
    {
      "channel": 3,
      "note": 60,
      "start": 7.0779,
      "duration": 0.1332,
      "velocity": 117,
      "chip": "ym2612"
    },
    {
      "channel": 4,
      "note": 59,
      "start": 7.0782,
      "duration": 0.1332,
      "velocity": 86,
      "chip": "ym2612"
    },
    {
      "channel": 3,
      "note": 60,
      "start": 7.2282,
      "duration": 0.1163,
      "velocity": 117,
      "chip": "ym2612"
    },
    {
      "channel": 4,
      "note": 59,
      "start": 7.2298,
      "duration": 0.1149,
      "velocity": 86,
      "chip": "ym2612"
    },
    {
      "channel": 3,
      "note": 60,
      "start": 7.3612,
      "duration": 0.1332,
      "velocity": 117,
      "chip": "ym2612"
    },
    {
      "channel": 4,
      "note": 59,
      "start": 7.3615,
      "duration": 0.1332,
      "velocity": 86,
      "chip": "ym2612"
    },
    {
      "channel": 3,
      "note": 60,
      "start": 7.5132,
      "duration": 0.1313,
      "velocity": 117,
      "chip": "ym2612"
    },
    {
      "channel": 4,
      "note": 59,
      "start": 7.5149,
      "duration": 0.1298,
      "velocity": 86,
      "chip": "ym2612"
    },
    {
      "channel": 3,
      "note": 60,
      "start": 7.6612,
      "duration": 0.1166,
      "velocity": 117,
      "chip": "ym2612"
    },
    {
      "channel": 4,
      "note": 59,
      "start": 7.6615,
      "duration": 0.1165,
      "velocity": 86,
      "chip": "ym2612"
    },
    {
      "channel": 3,
      "note": 60,
      "start": 7.7949,
      "duration": 0.133,
      "velocity": 117,
      "chip": "ym2612"
    },
    {
      "channel": 4,
      "note": 59,
      "start": 7.7965,
      "duration": 0.1316,
      "velocity": 86,
      "chip": "ym2612"
    },
    {
      "channel": 3,
      "note": 60,
      "start": 7.9446,
      "duration": 0.1334,
      "velocity": 117,
      "chip": "ym2612"
    },
    {
      "channel": 4,
      "note": 59,
      "start": 7.9449,
      "duration": 0.1333,
      "velocity": 86,
      "chip": "ym2612"
    },
    {
      "channel": 0,
      "note": 37,
      "start": 8.0947,
      "duration": 1.1328,
      "velocity": 88,
      "chip": "ym2612"
    },
    {
      "channel": 2,
      "note": 49,
      "start": 8.0951,
      "duration": 1.1327,
      "velocity": 88,
      "chip": "ym2612"
    },
    {
      "channel": 3,
      "note": 60,
      "start": 8.0968,
      "duration": 0.1143,
      "velocity": 117,
      "chip": "ym2612"
    },
    {
      "channel": 4,
      "note": 59,
      "start": 8.0985,
      "duration": 0.1129,
      "velocity": 86,
      "chip": "ym2612"
    },
    {
      "channel": 3,
      "note": 60,
      "start": 8.2279,
      "duration": 0.1332,
      "velocity": 117,
      "chip": "ym2612"
    },
    {
      "channel": 4,
      "note": 59,
      "start": 8.2282,
      "duration": 0.1332,
      "velocity": 86,
      "chip": "ym2612"
    },
    {
      "channel": 3,
      "note": 60,
      "start": 8.3782,
      "duration": 0.133,
      "velocity": 117,
      "chip": "ym2612"
    },
    {
      "channel": 4,
      "note": 59,
      "start": 8.3798,
      "duration": 0.1148,
      "velocity": 86,
      "chip": "ym2612"
    },
    {
      "channel": 4,
      "note": 59,
      "start": 8.5115,
      "duration": 0.1332,
      "velocity": 86,
      "chip": "ym2612"
    },
    {
      "channel": 3,
      "note": 60,
      "start": 8.5279,
      "duration": 0.1166,
      "velocity": 117,
      "chip": "ym2612"
    },
    {
      "channel": 3,
      "note": 60,
      "start": 8.6631,
      "duration": 0.1314,
      "velocity": 117,
      "chip": "ym2612"
    },
    {
      "channel": 4,
      "note": 59,
      "start": 8.6648,
      "duration": 0.1299,
      "velocity": 86,
      "chip": "ym2612"
    },
    {
      "channel": 3,
      "note": 60,
      "start": 8.8112,
      "duration": 0.1335,
      "velocity": 117,
      "chip": "ym2612"
    },
    {
      "channel": 4,
      "note": 59,
      "start": 8.8115,
      "duration": 0.1165,
      "velocity": 86,
      "chip": "ym2612"
    },
    {
      "channel": 4,
      "note": 59,
      "start": 8.9464,
      "duration": 0.1316,
      "velocity": 86,
      "chip": "ym2612"
    },
    {
      "channel": 3,
      "note": 60,
      "start": 8.9612,
      "duration": 0.1166,
      "velocity": 117,
      "chip": "ym2612"
    },
    {
      "channel": 3,
      "note": 60,
      "start": 9.0946,
      "duration": 0.1333,
      "velocity": 117,
      "chip": "ym2612"
    },
    {
      "channel": 4,
      "note": 59,
      "start": 9.0949,
      "duration": 0.1333,
      "velocity": 86,
      "chip": "ym2612"
    },
    {
      "channel": 0,
      "note": 41,
      "start": 9.245,
      "duration": 2.2998,
      "velocity": 88,
      "chip": "ym2612"
    },
    {
      "channel": 2,
      "note": 53,
      "start": 9.2468,
      "duration": 2.2998,
      "velocity": 88,
      "chip": "ym2612"
    },
    {
      "channel": 3,
      "note": 60,
      "start": 9.2484,
      "duration": 0.1295,
      "velocity": 117,
      "chip": "ym2612"
    },
    {
      "channel": 4,
      "note": 59,
      "start": 9.2501,
      "duration": 0.1112,
      "velocity": 86,
      "chip": "ym2612"
    },
    {
      "channel": 4,
      "note": 59,
      "start": 9.3781,
      "duration": 0.1333,
      "velocity": 86,
      "chip": "ym2612"
    },
    {
      "channel": 3,
      "note": 60,
      "start": 9.3945,
      "duration": 0.1167,
      "velocity": 117,
      "chip": "ym2612"
    },
    {
      "channel": 3,
      "note": 60,
      "start": 9.5281,
      "duration": 0.133,
      "velocity": 117,
      "chip": "ym2612"
    },
    {
      "channel": 4,
      "note": 59,
      "start": 9.5298,
      "duration": 0.1315,
      "velocity": 86,
      "chip": "ym2612"
    },
    {
      "channel": 3,
      "note": 60,
      "start": 9.6779,
      "duration": 0.1335,
      "velocity": 117,
      "chip": "ym2612"
    },
    {
      "channel": 4,
      "note": 59,
      "start": 9.6782,
      "duration": 0.1164,
      "velocity": 86,
      "chip": "ym2612"
    },
    {
      "channel": 4,
      "note": 59,
      "start": 9.8131,
      "duration": 0.1316,
      "velocity": 86,
      "chip": "ym2612"
    },
    {
      "channel": 3,
      "note": 60,
      "start": 9.8295,
      "duration": 0.1149,
      "velocity": 117,
      "chip": "ym2612"
    },
    {
      "channel": 3,
      "note": 60,
      "start": 9.9612,
      "duration": 0.1333,
      "velocity": 117,
      "chip": "ym2612"
    },
    {
      "channel": 4,
      "note": 59,
      "start": 9.9615,
      "duration": 0.1333,
      "velocity": 86,
      "chip": "ym2612"
    },
    {
      "channel": 3,
      "note": 60,
      "start": 10.1115,
      "duration": 0.133,
      "velocity": 117,
      "chip": "ym2612"
    },
    {
      "channel": 4,
      "note": 59,
      "start": 10.1132,
      "duration": 0.1148,
      "velocity": 86,
      "chip": "ym2612"
    },
    {
      "channel": 4,
      "note": 59,
      "start": 10.2447,
      "duration": 0.1334,
      "velocity": 86,
      "chip": "ym2612"
    },
    {
      "channel": 3,
      "note": 60,
      "start": 10.2612,
      "duration": 0.1166,
      "velocity": 117,
      "chip": "ym2612"
    },
    {
      "channel": 3,
      "note": 60,
      "start": 10.3965,
      "duration": 0.1313,
      "velocity": 117,
      "chip": "ym2612"
    },
    {
      "channel": 4,
      "note": 59,
      "start": 10.3982,
      "duration": 0.1298,
      "velocity": 86,
      "chip": "ym2612"
    },
    {
      "channel": 3,
      "note": 60,
      "start": 10.5445,
      "duration": 0.1336,
      "velocity": 117,
      "chip": "ym2612"
    },
    {
      "channel": 4,
      "note": 59,
      "start": 10.5448,
      "duration": 0.1165,
      "velocity": 86,
      "chip": "ym2612"
    },
    {
      "channel": 4,
      "note": 59,
      "start": 10.6798,
      "duration": 0.1315,
      "velocity": 86,
      "chip": "ym2612"
    },
    {
      "channel": 3,
      "note": 60,
      "start": 10.6945,
      "duration": 0.1166,
      "velocity": 117,
      "chip": "ym2612"
    },
    {
      "channel": 3,
      "note": 60,
      "start": 10.8279,
      "duration": 0.1332,
      "velocity": 117,
      "chip": "ym2612"
    },
    {
      "channel": 4,
      "note": 59,
      "start": 10.8282,
      "duration": 0.1332,
      "velocity": 86,
      "chip": "ym2612"
    },
    {
      "channel": 3,
      "note": 60,
      "start": 10.9798,
      "duration": 0.1148,
      "velocity": 117,
      "chip": "ym2612"
    },
    {
      "channel": 4,
      "note": 59,
      "start": 10.9815,
      "duration": 0.1133,
      "velocity": 86,
      "chip": "ym2612"
    },
    {
      "channel": 3,
      "note": 60,
      "start": 11.1112,
      "duration": 0.1332,
      "velocity": 117,
      "chip": "ym2612"
    },
    {
      "channel": 4,
      "note": 59,
      "start": 11.1115,
      "duration": 0.1332,
      "velocity": 86,
      "chip": "ym2612"
    },
    {
      "channel": 3,
      "note": 60,
      "start": 11.2616,
      "duration": 0.1329,
      "velocity": 117,
      "chip": "ym2612"
    },
    {
      "channel": 4,
      "note": 59,
      "start": 11.2632,
      "duration": 0.1314,
      "velocity": 86,
      "chip": "ym2612"
    },
    {
      "channel": 3,
      "note": 60,
      "start": 11.4112,
      "duration": 0.1166,
      "velocity": 117,
      "chip": "ym2612"
    },
    {
      "channel": 4,
      "note": 59,
      "start": 11.4115,
      "duration": 0.1166,
      "velocity": 86,
      "chip": "ym2612"
    },
    {
      "channel": 3,
      "note": 60,
      "start": 11.5482,
      "duration": 0.1297,
      "velocity": 117,
      "chip": "ym2612"
    },
    {
      "channel": 4,
      "note": 59,
      "start": 11.5499,
      "duration": 0.1281,
      "velocity": 86,
      "chip": "ym2612"
    },
    {
      "channel": 0,
      "note": 36,
      "start": 11.561,
      "duration": 1.1332,
      "velocity": 88,
      "chip": "ym2612"
    },
    {
      "channel": 2,
      "note": 48,
      "start": 11.5612,
      "duration": 1.1332,
      "velocity": 88,
      "chip": "ym2612"
    },
    {
      "channel": 3,
      "note": 60,
      "start": 11.6946,
      "duration": 0.1332,
      "velocity": 117,
      "chip": "ym2612"
    },
    {
      "channel": 4,
      "note": 59,
      "start": 11.6949,
      "duration": 0.1332,
      "velocity": 86,
      "chip": "ym2612"
    },
    {
      "channel": 3,
      "note": 60,
      "start": 11.8449,
      "duration": 0.1163,
      "velocity": 117,
      "chip": "ym2612"
    },
    {
      "channel": 4,
      "note": 59,
      "start": 11.8466,
      "duration": 0.1148,
      "velocity": 86,
      "chip": "ym2612"
    },
    {
      "channel": 3,
      "note": 60,
      "start": 11.9779,
      "duration": 0.1333,
      "velocity": 117,
      "chip": "ym2612"
    },
    {
      "channel": 4,
      "note": 59,
      "start": 11.9781,
      "duration": 0.1333,
      "velocity": 86,
      "chip": "ym2612"
    },
    {
      "channel": 3,
      "note": 60,
      "start": 12.1298,
      "duration": 0.1314,
      "velocity": 117,
      "chip": "ym2612"
    },
    {
      "channel": 4,
      "note": 59,
      "start": 12.1315,
      "duration": 0.13,
      "velocity": 86,
      "chip": "ym2612"
    },
    {
      "channel": 3,
      "note": 60,
      "start": 12.2779,
      "duration": 0.1166,
      "velocity": 117,
      "chip": "ym2612"
    },
    {
      "channel": 4,
      "note": 59,
      "start": 12.2781,
      "duration": 0.1165,
      "velocity": 86,
      "chip": "ym2612"
    },
    {
      "channel": 3,
      "note": 60,
      "start": 12.4115,
      "duration": 0.1329,
      "velocity": 117,
      "chip": "ym2612"
    },
    {
      "channel": 4,
      "note": 59,
      "start": 12.4132,
      "duration": 0.1315,
      "velocity": 86,
      "chip": "ym2612"
    },
    {
      "channel": 3,
      "note": 60,
      "start": 12.5612,
      "duration": 0.1334,
      "velocity": 117,
      "chip": "ym2612"
    },
    {
      "channel": 4,
      "note": 59,
      "start": 12.5615,
      "duration": 0.1334,
      "velocity": 86,
      "chip": "ym2612"
    },
    {
      "channel": 0,
      "note": 39,
      "start": 12.7114,
      "duration": 1.1328,
      "velocity": 88,
      "chip": "ym2612"
    },
    {
      "channel": 2,
      "note": 51,
      "start": 12.7117,
      "duration": 1.1328,
      "velocity": 88,
      "chip": "ym2612"
    },
    {
      "channel": 3,
      "note": 60,
      "start": 12.7134,
      "duration": 0.1144,
      "velocity": 117,
      "chip": "ym2612"
    },
    {
      "channel": 4,
      "note": 59,
      "start": 12.7151,
      "duration": 0.1129,
      "velocity": 86,
      "chip": "ym2612"
    },
    {
      "channel": 3,
      "note": 60,
      "start": 12.8446,
      "duration": 0.1332,
      "velocity": 117,
      "chip": "ym2612"
    },
    {
      "channel": 4,
      "note": 59,
      "start": 12.8449,
      "duration": 0.1332,
      "velocity": 86,
      "chip": "ym2612"
    },
    {
      "channel": 3,
      "note": 60,
      "start": 12.9949,
      "duration": 0.133,
      "velocity": 117,
      "chip": "ym2612"
    },
    {
      "channel": 4,
      "note": 59,
      "start": 12.9965,
      "duration": 0.1148,
      "velocity": 86,
      "chip": "ym2612"
    },
    {
      "channel": 4,
      "note": 59,
      "start": 13.1281,
      "duration": 0.1333,
      "velocity": 86,
      "chip": "ym2612"
    },
    {
      "channel": 3,
      "note": 60,
      "start": 13.1445,
      "duration": 0.1167,
      "velocity": 117,
      "chip": "ym2612"
    },
    {
      "channel": 3,
      "note": 60,
      "start": 13.2798,
      "duration": 0.1314,
      "velocity": 117,
      "chip": "ym2612"
    },
    {
      "channel": 4,
      "note": 59,
      "start": 13.2815,
      "duration": 0.1299,
      "velocity": 86,
      "chip": "ym2612"
    },
    {
      "channel": 3,
      "note": 60,
      "start": 13.428,
      "duration": 0.1334,
      "velocity": 117,
      "chip": "ym2612"
    },
    {
      "channel": 4,
      "note": 59,
      "start": 13.4282,
      "duration": 0.1163,
      "velocity": 86,
      "chip": "ym2612"
    },
    {
      "channel": 4,
      "note": 59,
      "start": 13.5631,
      "duration": 0.1315,
      "velocity": 86,
      "chip": "ym2612"
    },
    {
      "channel": 3,
      "note": 60,
      "start": 13.5779,
      "duration": 0.1166,
      "velocity": 117,
      "chip": "ym2612"
    },
    {
      "channel": 3,
      "note": 60,
      "start": 13.7112,
      "duration": 0.1335,
      "velocity": 117,
      "chip": "ym2612"
    },
    {
      "channel": 4,
      "note": 59,
      "start": 13.7115,
      "duration": 0.1334,
      "velocity": 86,
      "chip": "ym2612"
    },
    {
      "channel": 0,
      "note": 37,
      "start": 13.8616,
      "duration": 2.2998,
      "velocity": 88,
      "chip": "ym2612"
    },
    {
      "channel": 2,
      "note": 49,
      "start": 13.8634,
      "duration": 2.2998,
      "velocity": 88,
      "chip": "ym2612"
    },
    {
      "channel": 3,
      "note": 60,
      "start": 13.8651,
      "duration": 0.1293,
      "velocity": 117,
      "chip": "ym2612"
    },
    {
      "channel": 4,
      "note": 59,
      "start": 13.8668,
      "duration": 0.1112,
      "velocity": 86,
      "chip": "ym2612"
    },
    {
      "channel": 4,
      "note": 59,
      "start": 13.9947,
      "duration": 0.1333,
      "velocity": 86,
      "chip": "ym2612"
    },
    {
      "channel": 3,
      "note": 60,
      "start": 14.0112,
      "duration": 0.1166,
      "velocity": 117,
      "chip": "ym2612"
    },
    {
      "channel": 3,
      "note": 60,
      "start": 14.1449,
      "duration": 0.1329,
      "velocity": 117,
      "chip": "ym2612"
    },
    {
      "channel": 4,
      "note": 59,
      "start": 14.1465,
      "duration": 0.1315,
      "velocity": 86,
      "chip": "ym2612"
    },
    {
      "channel": 3,
      "note": 60,
      "start": 14.2945,
      "duration": 0.1336,
      "velocity": 117,
      "chip": "ym2612"
    },
    {
      "channel": 4,
      "note": 59,
      "start": 14.2948,
      "duration": 0.1165,
      "velocity": 86,
      "chip": "ym2612"
    },
    {
      "channel": 4,
      "note": 59,
      "start": 14.4298,
      "duration": 0.1315,
      "velocity": 86,
      "chip": "ym2612"
    },
    {
      "channel": 3,
      "note": 60,
      "start": 14.4462,
      "duration": 0.1149,
      "velocity": 117,
      "chip": "ym2612"
    },
    {
      "channel": 3,
      "note": 60,
      "start": 14.5779,
      "duration": 0.1332,
      "velocity": 117,
      "chip": "ym2612"
    },
    {
      "channel": 4,
      "note": 59,
      "start": 14.5782,
      "duration": 0.1331,
      "velocity": 86,
      "chip": "ym2612"
    },
    {
      "channel": 3,
      "note": 60,
      "start": 14.7282,
      "duration": 0.133,
      "velocity": 117,
      "chip": "ym2612"
    },
    {
      "channel": 4,
      "note": 59,
      "start": 14.7298,
      "duration": 0.1149,
      "velocity": 86,
      "chip": "ym2612"
    },
    {
      "channel": 4,
      "note": 59,
      "start": 14.8615,
      "duration": 0.1333,
      "velocity": 86,
      "chip": "ym2612"
    },
    {
      "channel": 3,
      "note": 60,
      "start": 14.8779,
      "duration": 0.1167,
      "velocity": 117,
      "chip": "ym2612"
    },
    {
      "channel": 3,
      "note": 60,
      "start": 15.0132,
      "duration": 0.1312,
      "velocity": 117,
      "chip": "ym2612"
    },
    {
      "channel": 4,
      "note": 59,
      "start": 15.0149,
      "duration": 0.1297,
      "velocity": 86,
      "chip": "ym2612"
    },
    {
      "channel": 3,
      "note": 60,
      "start": 15.1612,
      "duration": 0.1335,
      "velocity": 117,
      "chip": "ym2612"
    },
    {
      "channel": 4,
      "note": 59,
      "start": 15.1615,
      "duration": 0.1165,
      "velocity": 86,
      "chip": "ym2612"
    },
    {
      "channel": 4,
      "note": 59,
      "start": 15.2964,
      "duration": 0.1316,
      "velocity": 86,
      "chip": "ym2612"
    },
    {
      "channel": 3,
      "note": 60,
      "start": 15.3112,
      "duration": 0.1166,
      "velocity": 117,
      "chip": "ym2612"
    },
    {
      "channel": 3,
      "note": 60,
      "start": 15.4446,
      "duration": 0.1332,
      "velocity": 117,
      "chip": "ym2612"
    },
    {
      "channel": 4,
      "note": 59,
      "start": 15.4449,
      "duration": 0.1332,
      "velocity": 86,
      "chip": "ym2612"
    },
    {
      "channel": 3,
      "note": 60,
      "start": 15.5965,
      "duration": 0.1146,
      "velocity": 117,
      "chip": "ym2612"
    },
    {
      "channel": 4,
      "note": 59,
      "start": 15.5982,
      "duration": 0.1131,
      "velocity": 86,
      "chip": "ym2612"
    },
    {
      "channel": 3,
      "note": 60,
      "start": 15.7279,
      "duration": 0.1332,
      "velocity": 117,
      "chip": "ym2612"
    },
    {
      "channel": 4,
      "note": 59,
      "start": 15.7282,
      "duration": 0.1332,
      "velocity": 86,
      "chip": "ym2612"
    },
    {
      "channel": 3,
      "note": 60,
      "start": 15.8782,
      "duration": 0.133,
      "velocity": 117,
      "chip": "ym2612"
    },
    {
      "channel": 4,
      "note": 59,
      "start": 15.8798,
      "duration": 0.1315,
      "velocity": 86,
      "chip": "ym2612"
    },
    {
      "channel": 3,
      "note": 60,
      "start": 16.0279,
      "duration": 0.1167,
      "velocity": 117,
      "chip": "ym2612"
    },
    {
      "channel": 4,
      "note": 59,
      "start": 16.0281,
      "duration": 0.1167,
      "velocity": 86,
      "chip": "ym2612"
    },
    {
      "channel": 3,
      "note": 60,
      "start": 16.1649,
      "duration": 0.1296,
      "velocity": 117,
      "chip": "ym2612"
    },
    {
      "channel": 4,
      "note": 59,
      "start": 16.1666,
      "duration": 0.1281,
      "velocity": 86,
      "chip": "ym2612"
    },
    {
      "channel": 0,
      "note": 43,
      "start": 16.1776,
      "duration": 2.2833,
      "velocity": 88,
      "chip": "ym2612"
    },
    {
      "channel": 2,
      "note": 55,
      "start": 16.1779,
      "duration": 2.2832,
      "velocity": 88,
      "chip": "ym2612"
    },
    {
      "channel": 3,
      "note": 60,
      "start": 16.3112,
      "duration": 0.1333,
      "velocity": 117,
      "chip": "ym2612"
    },
    {
      "channel": 4,
      "note": 59,
      "start": 16.3115,
      "duration": 0.1333,
      "velocity": 86,
      "chip": "ym2612"
    },
    {
      "channel": 3,
      "note": 60,
      "start": 16.4615,
      "duration": 0.1163,
      "velocity": 117,
      "chip": "ym2612"
    },
    {
      "channel": 4,
      "note": 59,
      "start": 16.4632,
      "duration": 0.1149,
      "velocity": 86,
      "chip": "ym2612"
    },
    {
      "channel": 3,
      "note": 60,
      "start": 16.5946,
      "duration": 0.1332,
      "velocity": 117,
      "chip": "ym2612"
    },
    {
      "channel": 4,
      "note": 59,
      "start": 16.5949,
      "duration": 0.1331,
      "velocity": 86,
      "chip": "ym2612"
    },
    {
      "channel": 3,
      "note": 60,
      "start": 16.7464,
      "duration": 0.1314,
      "velocity": 117,
      "chip": "ym2612"
    },
    {
      "channel": 4,
      "note": 59,
      "start": 16.7482,
      "duration": 0.1299,
      "velocity": 86,
      "chip": "ym2612"
    },
    {
      "channel": 3,
      "note": 60,
      "start": 16.8946,
      "duration": 0.1166,
      "velocity": 117,
      "chip": "ym2612"
    },
    {
      "channel": 4,
      "note": 59,
      "start": 16.8949,
      "duration": 0.1165,
      "velocity": 86,
      "chip": "ym2612"
    },
    {
      "channel": 3,
      "note": 60,
      "start": 17.0281,
      "duration": 0.133,
      "velocity": 117,
      "chip": "ym2612"
    },
    {
      "channel": 4,
      "note": 59,
      "start": 17.0298,
      "duration": 0.1315,
      "velocity": 86,
      "chip": "ym2612"
    },
    {
      "channel": 3,
      "note": 60,
      "start": 17.178,
      "duration": 0.1332,
      "velocity": 117,
      "chip": "ym2612"
    },
    {
      "channel": 4,
      "note": 59,
      "start": 17.1782,
      "duration": 0.1332,
      "velocity": 86,
      "chip": "ym2612"
    },
    {
      "channel": 3,
      "note": 60,
      "start": 17.3298,
      "duration": 0.1146,
      "velocity": 117,
      "chip": "ym2612"
    },
    {
      "channel": 4,
      "note": 59,
      "start": 17.3315,
      "duration": 0.1132,
      "velocity": 86,
      "chip": "ym2612"
    },
    {
      "channel": 3,
      "note": 60,
      "start": 17.4612,
      "duration": 0.1333,
      "velocity": 117,
      "chip": "ym2612"
    },
    {
      "channel": 4,
      "note": 59,
      "start": 17.4615,
      "duration": 0.1333,
      "velocity": 86,
      "chip": "ym2612"
    },
    {
      "channel": 3,
      "note": 60,
      "start": 17.6115,
      "duration": 0.133,
      "velocity": 117,
      "chip": "ym2612"
    },
    {
      "channel": 4,
      "note": 59,
      "start": 17.6132,
      "duration": 0.1148,
      "velocity": 86,
      "chip": "ym2612"
    },
    {
      "channel": 4,
      "note": 59,
      "start": 17.7447,
      "duration": 0.1333,
      "velocity": 86,
      "chip": "ym2612"
    },
    {
      "channel": 3,
      "note": 60,
      "start": 17.7612,
      "duration": 0.1166,
      "velocity": 117,
      "chip": "ym2612"
    },
    {
      "channel": 3,
      "note": 60,
      "start": 17.8964,
      "duration": 0.1314,
      "velocity": 117,
      "chip": "ym2612"
    },
    {
      "channel": 4,
      "note": 59,
      "start": 17.8982,
      "duration": 0.1299,
      "velocity": 86,
      "chip": "ym2612"
    },
    {
      "channel": 3,
      "note": 60,
      "start": 18.0445,
      "duration": 0.1336,
      "velocity": 117,
      "chip": "ym2612"
    },
    {
      "channel": 4,
      "note": 59,
      "start": 18.0448,
      "duration": 0.1165,
      "velocity": 86,
      "chip": "ym2612"
    },
    {
      "channel": 4,
      "note": 59,
      "start": 18.1798,
      "duration": 0.1315,
      "velocity": 86,
      "chip": "ym2612"
    },
    {
      "channel": 3,
      "note": 60,
      "start": 18.1946,
      "duration": 0.1166,
      "velocity": 117,
      "chip": "ym2612"
    },
    {
      "channel": 3,
      "note": 60,
      "start": 18.3279,
      "duration": 0.1334,
      "velocity": 117,
      "chip": "ym2612"
    },
    {
      "channel": 4,
      "note": 59,
      "start": 18.3281,
      "duration": 0.1334,
      "velocity": 86,
      "chip": "ym2612"
    },
    {
      "channel": 0,
      "note": 43,
      "start": 18.4802,
      "duration": 2.2979,
      "velocity": 88,
      "chip": "ym2612"
    },
    {
      "channel": 1,
      "note": 72,
      "start": 18.4819,
      "duration": 2.2792,
      "velocity": 108,
      "chip": "ym2612"
    },
    {
      "channel": 2,
      "note": 55,
      "start": 18.4836,
      "duration": 2.295,
      "velocity": 88,
      "chip": "ym2612"
    },
    {
      "channel": 3,
      "note": 60,
      "start": 18.4852,
      "duration": 0.1261,
      "velocity": 117,
      "chip": "ym2612"
    },
    {
      "channel": 4,
      "note": 59,
      "start": 18.487,
      "duration": 0.1079,
      "velocity": 86,
      "chip": "ym2612"
    },
    {
      "channel": 4,
      "note": 59,
      "start": 18.6116,
      "duration": 0.1333,
      "velocity": 86,
      "chip": "ym2612"
    },
    {
      "channel": 3,
      "note": 60,
      "start": 18.628,
      "duration": 0.1166,
      "velocity": 117,
      "chip": "ym2612"
    },
    {
      "channel": 3,
      "note": 60,
      "start": 18.7617,
      "duration": 0.1329,
      "velocity": 117,
      "chip": "ym2612"
    },
    {
      "channel": 4,
      "note": 59,
      "start": 18.7634,
      "duration": 0.1315,
      "velocity": 86,
      "chip": "ym2612"
    },
    {
      "channel": 3,
      "note": 60,
      "start": 18.9113,
      "duration": 0.1335,
      "velocity": 117,
      "chip": "ym2612"
    },
    {
      "channel": 4,
      "note": 59,
      "start": 18.9116,
      "duration": 0.1166,
      "velocity": 86,
      "chip": "ym2612"
    },
    {
      "channel": 4,
      "note": 59,
      "start": 19.0466,
      "duration": 0.1317,
      "velocity": 86,
      "chip": "ym2612"
    },
    {
      "channel": 3,
      "note": 60,
      "start": 19.063,
      "duration": 0.115,
      "velocity": 117,
      "chip": "ym2612"
    },
    {
      "channel": 3,
      "note": 60,
      "start": 19.1947,
      "duration": 0.1332,
      "velocity": 117,
      "chip": "ym2612"
    },
    {
      "channel": 4,
      "note": 59,
      "start": 19.195,
      "duration": 0.1332,
      "velocity": 86,
      "chip": "ym2612"
    },
    {
      "channel": 3,
      "note": 60,
      "start": 19.345,
      "duration": 0.1329,
      "velocity": 117,
      "chip": "ym2612"
    },
    {
      "channel": 4,
      "note": 59,
      "start": 19.3467,
      "duration": 0.1148,
      "velocity": 86,
      "chip": "ym2612"
    },
    {
      "channel": 4,
      "note": 59,
      "start": 19.4782,
      "duration": 0.1333,
      "velocity": 86,
      "chip": "ym2612"
    },
    {
      "channel": 3,
      "note": 60,
      "start": 19.4946,
      "duration": 0.1166,
      "velocity": 117,
      "chip": "ym2612"
    },
    {
      "channel": 3,
      "note": 60,
      "start": 19.6299,
      "duration": 0.1314,
      "velocity": 117,
      "chip": "ym2612"
    },
    {
      "channel": 4,
      "note": 59,
      "start": 19.6316,
      "duration": 0.13,
      "velocity": 86,
      "chip": "ym2612"
    },
    {
      "channel": 3,
      "note": 60,
      "start": 19.778,
      "duration": 0.1335,
      "velocity": 117,
      "chip": "ym2612"
    },
    {
      "channel": 4,
      "note": 59,
      "start": 19.7783,
      "duration": 0.1165,
      "velocity": 86,
      "chip": "ym2612"
    },
    {
      "channel": 4,
      "note": 59,
      "start": 19.9132,
      "duration": 0.1316,
      "velocity": 86,
      "chip": "ym2612"
    },
    {
      "channel": 3,
      "note": 60,
      "start": 19.9281,
      "duration": 0.1165,
      "velocity": 117,
      "chip": "ym2612"
    },
    {
      "channel": 3,
      "note": 60,
      "start": 20.0613,
      "duration": 0.1333,
      "velocity": 117,
      "chip": "ym2612"
    },
    {
      "channel": 4,
      "note": 59,
      "start": 20.0616,
      "duration": 0.1333,
      "velocity": 86,
      "chip": "ym2612"
    },
    {
      "channel": 3,
      "note": 60,
      "start": 20.2132,
      "duration": 0.1147,
      "velocity": 117,
      "chip": "ym2612"
    },
    {
      "channel": 4,
      "note": 59,
      "start": 20.2149,
      "duration": 0.1132,
      "velocity": 86,
      "chip": "ym2612"
    },
    {
      "channel": 3,
      "note": 60,
      "start": 20.3447,
      "duration": 0.1332,
      "velocity": 117,
      "chip": "ym2612"
    },
    {
      "channel": 4,
      "note": 59,
      "start": 20.345,
      "duration": 0.1332,
      "velocity": 86,
      "chip": "ym2612"
    },
    {
      "channel": 3,
      "note": 60,
      "start": 20.495,
      "duration": 0.1329,
      "velocity": 117,
      "chip": "ym2612"
    },
    {
      "channel": 4,
      "note": 59,
      "start": 20.4966,
      "duration": 0.1316,
      "velocity": 86,
      "chip": "ym2612"
    },
    {
      "channel": 3,
      "note": 60,
      "start": 20.6446,
      "duration": 0.1167,
      "velocity": 117,
      "chip": "ym2612"
    },
    {
      "channel": 4,
      "note": 59,
      "start": 20.6449,
      "duration": 0.1167,
      "velocity": 86,
      "chip": "ym2612"
    },
    {
      "channel": 1,
      "note": 72,
      "start": 20.7783,
      "duration": 2.0163,
      "velocity": 108,
      "chip": "ym2612"
    },
    {
      "channel": 3,
      "note": 60,
      "start": 20.7802,
      "duration": 0.131,
      "velocity": 117,
      "chip": "ym2612"
    },
    {
      "channel": 4,
      "note": 59,
      "start": 20.7819,
      "duration": 0.1296,
      "velocity": 86,
      "chip": "ym2612"
    },
    {
      "channel": 0,
      "note": 36,
      "start": 20.7943,
      "duration": 1.1332,
      "velocity": 88,
      "chip": "ym2612"
    },
    {
      "channel": 2,
      "note": 48,
      "start": 20.7947,
      "duration": 1.1332,
      "velocity": 88,
      "chip": "ym2612"
    },
    {
      "channel": 3,
      "note": 60,
      "start": 20.928,
      "duration": 0.1332,
      "velocity": 117,
      "chip": "ym2612"
    },
    {
      "channel": 4,
      "note": 59,
      "start": 20.9283,
      "duration": 0.1332,
      "velocity": 86,
      "chip": "ym2612"
    },
    {
      "channel": 3,
      "note": 60,
      "start": 21.0783,
      "duration": 0.1163,
      "velocity": 117,
      "chip": "ym2612"
    },
    {
      "channel": 4,
      "note": 59,
      "start": 21.08,
      "duration": 0.1149,
      "velocity": 86,
      "chip": "ym2612"
    },
    {
      "channel": 3,
      "note": 60,
      "start": 21.2113,
      "duration": 0.1333,
      "velocity": 117,
      "chip": "ym2612"
    },
    {
      "channel": 4,
      "note": 59,
      "start": 21.2116,
      "duration": 0.1333,
      "velocity": 86,
      "chip": "ym2612"
    },
    {
      "channel": 3,
      "note": 60,
      "start": 21.3632,
      "duration": 0.1314,
      "velocity": 117,
      "chip": "ym2612"
    },
    {
      "channel": 4,
      "note": 59,
      "start": 21.3649,
      "duration": 0.1299,
      "velocity": 86,
      "chip": "ym2612"
    },
    {
      "channel": 3,
      "note": 60,
      "start": 21.5114,
      "duration": 0.1165,
      "velocity": 117,
      "chip": "ym2612"
    },
    {
      "channel": 4,
      "note": 59,
      "start": 21.5116,
      "duration": 0.1166,
      "velocity": 86,
      "chip": "ym2612"
    },
    {
      "channel": 3,
      "note": 60,
      "start": 21.645,
      "duration": 0.133,
      "velocity": 117,
      "chip": "ym2612"
    },
    {
      "channel": 4,
      "note": 59,
      "start": 21.6466,
      "duration": 0.1316,
      "velocity": 86,
      "chip": "ym2612"
    },
    {
      "channel": 3,
      "note": 60,
      "start": 21.7947,
      "duration": 0.1334,
      "velocity": 117,
      "chip": "ym2612"
    },
    {
      "channel": 4,
      "note": 59,
      "start": 21.795,
      "duration": 0.1334,
      "velocity": 86,
      "chip": "ym2612"
    },
    {
      "channel": 0,
      "note": 37,
      "start": 21.9447,
      "duration": 1.1328,
      "velocity": 88,
      "chip": "ym2612"
    },
    {
      "channel": 2,
      "note": 49,
      "start": 21.9451,
      "duration": 1.1328,
      "velocity": 88,
      "chip": "ym2612"
    },
    {
      "channel": 3,
      "note": 60,
      "start": 21.9468,
      "duration": 0.1144,
      "velocity": 117,
      "chip": "ym2612"
    },
    {
      "channel": 4,
      "note": 59,
      "start": 21.9485,
      "duration": 0.113,
      "velocity": 86,
      "chip": "ym2612"
    },
    {
      "channel": 3,
      "note": 60,
      "start": 22.078,
      "duration": 0.1333,
      "velocity": 117,
      "chip": "ym2612"
    },
    {
      "channel": 4,
      "note": 59,
      "start": 22.0782,
      "duration": 0.1333,
      "velocity": 86,
      "chip": "ym2612"
    },
    {
      "channel": 3,
      "note": 60,
      "start": 22.2282,
      "duration": 0.1331,
      "velocity": 117,
      "chip": "ym2612"
    },
    {
      "channel": 4,
      "note": 59,
      "start": 22.23,
      "duration": 0.1149,
      "velocity": 86,
      "chip": "ym2612"
    },
    {
      "channel": 4,
      "note": 59,
      "start": 22.3616,
      "duration": 0.1333,
      "velocity": 86,
      "chip": "ym2612"
    },
    {
      "channel": 3,
      "note": 60,
      "start": 22.378,
      "duration": 0.1166,
      "velocity": 117,
      "chip": "ym2612"
    },
    {
      "channel": 3,
      "note": 60,
      "start": 22.5133,
      "duration": 0.1314,
      "velocity": 117,
      "chip": "ym2612"
    },
    {
      "channel": 4,
      "note": 59,
      "start": 22.515,
      "duration": 0.1298,
      "velocity": 86,
      "chip": "ym2612"
    },
    {
      "channel": 3,
      "note": 60,
      "start": 22.6614,
      "duration": 0.1335,
      "velocity": 117,
      "chip": "ym2612"
    },
    {
      "channel": 4,
      "note": 59,
      "start": 22.6616,
      "duration": 0.1165,
      "velocity": 86,
      "chip": "ym2612"
    },
    {
      "channel": 4,
      "note": 59,
      "start": 22.7966,
      "duration": 0.1316,
      "velocity": 86,
      "chip": "ym2612"
    },
    {
      "channel": 1,
      "note": 72,
      "start": 22.8111,
      "duration": 0.2666,
      "velocity": 108,
      "chip": "ym2612"
    },
    {
      "channel": 3,
      "note": 60,
      "start": 22.8116,
      "duration": 0.1164,
      "velocity": 117,
      "chip": "ym2612"
    },
    {
      "channel": 3,
      "note": 60,
      "start": 22.9447,
      "duration": 0.1335,
      "velocity": 117,
      "chip": "ym2612"
    },
    {
      "channel": 4,
      "note": 59,
      "start": 22.945,
      "duration": 0.1334,
      "velocity": 86,
      "chip": "ym2612"
    },
    {
      "channel": 0,
      "note": 41,
      "start": 23.0949,
      "duration": 2.2998,
      "velocity": 88,
      "chip": "ym2612"
    },
    {
      "channel": 1,
      "note": 73,
      "start": 23.0952,
      "duration": 2.2824,
      "velocity": 108,
      "chip": "ym2612"
    },
    {
      "channel": 2,
      "note": 53,
      "start": 23.0955,
      "duration": 2.2997,
      "velocity": 88,
      "chip": "ym2612"
    },
    {
      "channel": 3,
      "note": 60,
      "start": 23.0972,
      "duration": 0.1307,
      "velocity": 117,
      "chip": "ym2612"
    },
    {
      "channel": 4,
      "note": 59,
      "start": 23.0988,
      "duration": 0.1126,
      "velocity": 86,
      "chip": "ym2612"
    },
    {
      "channel": 4,
      "note": 59,
      "start": 23.2282,
      "duration": 0.1333,
      "velocity": 86,
      "chip": "ym2612"
    },
    {
      "channel": 3,
      "note": 60,
      "start": 23.2446,
      "duration": 0.1166,
      "velocity": 117,
      "chip": "ym2612"
    },
    {
      "channel": 3,
      "note": 60,
      "start": 23.3783,
      "duration": 0.133,
      "velocity": 117,
      "chip": "ym2612"
    },
    {
      "channel": 4,
      "note": 59,
      "start": 23.38,
      "duration": 0.1316,
      "velocity": 86,
      "chip": "ym2612"
    },
    {
      "channel": 3,
      "note": 60,
      "start": 23.528,
      "duration": 0.1335,
      "velocity": 117,
      "chip": "ym2612"
    },
    {
      "channel": 4,
      "note": 59,
      "start": 23.5283,
      "duration": 0.1164,
      "velocity": 86,
      "chip": "ym2612"
    },
    {
      "channel": 4,
      "note": 59,
      "start": 23.6632,
      "duration": 0.1316,
      "velocity": 86,
      "chip": "ym2612"
    },
    {
      "channel": 3,
      "note": 60,
      "start": 23.6797,
      "duration": 0.1149,
      "velocity": 117,
      "chip": "ym2612"
    },
    {
      "channel": 3,
      "note": 60,
      "start": 23.8113,
      "duration": 0.1333,
      "velocity": 117,
      "chip": "ym2612"
    },
    {
      "channel": 4,
      "note": 59,
      "start": 23.8116,
      "duration": 0.1333,
      "velocity": 86,
      "chip": "ym2612"
    },
    {
      "channel": 3,
      "note": 60,
      "start": 23.9616,
      "duration": 0.1331,
      "velocity": 117,
      "chip": "ym2612"
    },
    {
      "channel": 4,
      "note": 59,
      "start": 23.9633,
      "duration": 0.1148,
      "velocity": 86,
      "chip": "ym2612"
    },
    {
      "channel": 4,
      "note": 59,
      "start": 24.095,
      "duration": 0.1332,
      "velocity": 86,
      "chip": "ym2612"
    },
    {
      "channel": 3,
      "note": 60,
      "start": 24.1113,
      "duration": 0.1167,
      "velocity": 117,
      "chip": "ym2612"
    },
    {
      "channel": 3,
      "note": 60,
      "start": 24.2466,
      "duration": 0.1314,
      "velocity": 117,
      "chip": "ym2612"
    },
    {
      "channel": 4,
      "note": 59,
      "start": 24.2483,
      "duration": 0.1299,
      "velocity": 86,
      "chip": "ym2612"
    },
    {
      "channel": 3,
      "note": 60,
      "start": 24.3946,
      "duration": 0.1335,
      "velocity": 117,
      "chip": "ym2612"
    },
    {
      "channel": 4,
      "note": 59,
      "start": 24.3949,
      "duration": 0.1166,
      "velocity": 86,
      "chip": "ym2612"
    },
    {
      "channel": 4,
      "note": 59,
      "start": 24.5299,
      "duration": 0.1316,
      "velocity": 86,
      "chip": "ym2612"
    },
    {
      "channel": 3,
      "note": 60,
      "start": 24.5447,
      "duration": 0.1165,
      "velocity": 117,
      "chip": "ym2612"
    },
    {
      "channel": 3,
      "note": 60,
      "start": 24.678,
      "duration": 0.1332,
      "velocity": 117,
      "chip": "ym2612"
    },
    {
      "channel": 4,
      "note": 59,
      "start": 24.6783,
      "duration": 0.1332,
      "velocity": 86,
      "chip": "ym2612"
    },
    {
      "channel": 3,
      "note": 60,
      "start": 24.8299,
      "duration": 0.1147,
      "velocity": 117,
      "chip": "ym2612"
    },
    {
      "channel": 4,
      "note": 59,
      "start": 24.8316,
      "duration": 0.1132,
      "velocity": 86,
      "chip": "ym2612"
    },
    {
      "channel": 3,
      "note": 60,
      "start": 24.9613,
      "duration": 0.1334,
      "velocity": 117,
      "chip": "ym2612"
    },
    {
      "channel": 4,
      "note": 59,
      "start": 24.9616,
      "duration": 0.1333,
      "velocity": 86,
      "chip": "ym2612"
    },
    {
      "channel": 3,
      "note": 60,
      "start": 25.1116,
      "duration": 0.1329,
      "velocity": 117,
      "chip": "ym2612"
    },
    {
      "channel": 4,
      "note": 59,
      "start": 25.1133,
      "duration": 0.1316,
      "velocity": 86,
      "chip": "ym2612"
    },
    {
      "channel": 3,
      "note": 60,
      "start": 25.2615,
      "duration": 0.1165,
      "velocity": 117,
      "chip": "ym2612"
    },
    {
      "channel": 4,
      "note": 59,
      "start": 25.2617,
      "duration": 0.1165,
      "velocity": 86,
      "chip": "ym2612"
    },
    {
      "channel": 1,
      "note": 72,
      "start": 25.395,
      "duration": 2.0163,
      "velocity": 108,
      "chip": "ym2612"
    },
    {
      "channel": 3,
      "note": 60,
      "start": 25.3969,
      "duration": 0.131,
      "velocity": 117,
      "chip": "ym2612"
    },
    {
      "channel": 4,
      "note": 59,
      "start": 25.3985,
      "duration": 0.1297,
      "velocity": 86,
      "chip": "ym2612"
    },
    {
      "channel": 0,
      "note": 36,
      "start": 25.411,
      "duration": 1.1332,
      "velocity": 88,
      "chip": "ym2612"
    },
    {
      "channel": 2,
      "note": 48,
      "start": 25.4114,
      "duration": 1.1332,
      "velocity": 88,
      "chip": "ym2612"
    },
    {
      "channel": 3,
      "note": 60,
      "start": 25.5446,
      "duration": 0.1333,
      "velocity": 117,
      "chip": "ym2612"
    },
    {
      "channel": 4,
      "note": 59,
      "start": 25.5449,
      "duration": 0.1333,
      "velocity": 86,
      "chip": "ym2612"
    },
    {
      "channel": 3,
      "note": 60,
      "start": 25.6949,
      "duration": 0.1164,
      "velocity": 117,
      "chip": "ym2612"
    },
    {
      "channel": 4,
      "note": 59,
      "start": 25.6966,
      "duration": 0.1149,
      "velocity": 86,
      "chip": "ym2612"
    },
    {
      "channel": 3,
      "note": 60,
      "start": 25.828,
      "duration": 0.1332,
      "velocity": 117,
      "chip": "ym2612"
    },
    {
      "channel": 4,
      "note": 59,
      "start": 25.8283,
      "duration": 0.1332,
      "velocity": 86,
      "chip": "ym2612"
    },
    {
      "channel": 3,
      "note": 60,
      "start": 25.9799,
      "duration": 0.1314,
      "velocity": 117,
      "chip": "ym2612"
    },
    {
      "channel": 4,
      "note": 59,
      "start": 25.9816,
      "duration": 0.1299,
      "velocity": 86,
      "chip": "ym2612"
    },
    {
      "channel": 3,
      "note": 60,
      "start": 26.128,
      "duration": 0.1166,
      "velocity": 117,
      "chip": "ym2612"
    },
    {
      "channel": 4,
      "note": 59,
      "start": 26.1282,
      "duration": 0.1166,
      "velocity": 86,
      "chip": "ym2612"
    },
    {
      "channel": 3,
      "note": 60,
      "start": 26.2616,
      "duration": 0.1329,
      "velocity": 117,
      "chip": "ym2612"
    },
    {
      "channel": 4,
      "note": 59,
      "start": 26.2634,
      "duration": 0.1315,
      "velocity": 86,
      "chip": "ym2612"
    },
    {
      "channel": 3,
      "note": 60,
      "start": 26.4113,
      "duration": 0.1334,
      "velocity": 117,
      "chip": "ym2612"
    },
    {
      "channel": 4,
      "note": 59,
      "start": 26.4116,
      "duration": 0.1334,
      "velocity": 86,
      "chip": "ym2612"
    },
    {
      "channel": 0,
      "note": 37,
      "start": 26.5614,
      "duration": 1.1328,
      "velocity": 88,
      "chip": "ym2612"
    },
    {
      "channel": 2,
      "note": 49,
      "start": 26.5618,
      "duration": 1.1328,
      "velocity": 88,
      "chip": "ym2612"
    },
    {
      "channel": 3,
      "note": 60,
      "start": 26.5635,
      "duration": 0.1146,
      "velocity": 117,
      "chip": "ym2612"
    },
    {
      "channel": 4,
      "note": 59,
      "start": 26.5652,
      "duration": 0.113,
      "velocity": 86,
      "chip": "ym2612"
    },
    {
      "channel": 3,
      "note": 60,
      "start": 26.6946,
      "duration": 0.1333,
      "velocity": 117,
      "chip": "ym2612"
    },
    {
      "channel": 4,
      "note": 59,
      "start": 26.6949,
      "duration": 0.1333,
      "velocity": 86,
      "chip": "ym2612"
    },
    {
      "channel": 3,
      "note": 60,
      "start": 26.845,
      "duration": 0.1329,
      "velocity": 117,
      "chip": "ym2612"
    },
    {
      "channel": 4,
      "note": 59,
      "start": 26.8467,
      "duration": 0.1147,
      "velocity": 86,
      "chip": "ym2612"
    },
    {
      "channel": 4,
      "note": 59,
      "start": 26.9782,
      "duration": 0.1333,
      "velocity": 86,
      "chip": "ym2612"
    },
    {
      "channel": 3,
      "note": 60,
      "start": 26.9946,
      "duration": 0.1166,
      "velocity": 117,
      "chip": "ym2612"
    },
    {
      "channel": 3,
      "note": 60,
      "start": 27.1299,
      "duration": 0.1314,
      "velocity": 117,
      "chip": "ym2612"
    },
    {
      "channel": 4,
      "note": 59,
      "start": 27.1316,
      "duration": 0.13,
      "velocity": 86,
      "chip": "ym2612"
    },
    {
      "channel": 3,
      "note": 60,
      "start": 27.278,
      "duration": 0.1335,
      "velocity": 117,
      "chip": "ym2612"
    },
    {
      "channel": 4,
      "note": 59,
      "start": 27.2783,
      "duration": 0.1164,
      "velocity": 86,
      "chip": "ym2612"
    },
    {
      "channel": 4,
      "note": 59,
      "start": 27.4133,
      "duration": 0.1316,
      "velocity": 86,
      "chip": "ym2612"
    },
    {
      "channel": 1,
      "note": 72,
      "start": 27.4279,
      "duration": 0.2665,
      "velocity": 108,
      "chip": "ym2612"
    },
    {
      "channel": 3,
      "note": 60,
      "start": 27.4282,
      "duration": 0.1163,
      "velocity": 117,
      "chip": "ym2612"
    },
    {
      "channel": 3,
      "note": 60,
      "start": 27.5613,
      "duration": 0.1335,
      "velocity": 117,
      "chip": "ym2612"
    },
    {
      "channel": 4,
      "note": 59,
      "start": 27.5616,
      "duration": 0.1335,
      "velocity": 86,
      "chip": "ym2612"
    },
    {
      "channel": 0,
      "note": 41,
      "start": 27.7116,
      "duration": 2.2998,
      "velocity": 88,
      "chip": "ym2612"
    },
    {
      "channel": 1,
      "note": 73,
      "start": 27.7118,
      "duration": 2.2825,
      "velocity": 108,
      "chip": "ym2612"
    },
    {
      "channel": 2,
      "note": 53,
      "start": 27.7121,
      "duration": 2.2998,
      "velocity": 88,
      "chip": "ym2612"
    },
    {
      "channel": 3,
      "note": 60,
      "start": 27.7138,
      "duration": 0.1309,
      "velocity": 117,
      "chip": "ym2612"
    },
    {
      "channel": 4,
      "note": 59,
      "start": 27.7155,
      "duration": 0.1127,
      "velocity": 86,
      "chip": "ym2612"
    },
    {
      "channel": 4,
      "note": 59,
      "start": 27.845,
      "duration": 0.1332,
      "velocity": 86,
      "chip": "ym2612"
    },
    {
      "channel": 3,
      "note": 60,
      "start": 27.8613,
      "duration": 0.1166,
      "velocity": 117,
      "chip": "ym2612"
    },
    {
      "channel": 3,
      "note": 60,
      "start": 27.995,
      "duration": 0.1329,
      "velocity": 117,
      "chip": "ym2612"
    },
    {
      "channel": 4,
      "note": 59,
      "start": 27.9966,
      "duration": 0.1316,
      "velocity": 86,
      "chip": "ym2612"
    },
    {
      "channel": 3,
      "note": 60,
      "start": 28.1446,
      "duration": 0.1335,
      "velocity": 117,
      "chip": "ym2612"
    },
    {
      "channel": 4,
      "note": 59,
      "start": 28.1449,
      "duration": 0.1166,
      "velocity": 86,
      "chip": "ym2612"
    },
    {
      "channel": 4,
      "note": 59,
      "start": 28.2799,
      "duration": 0.1316,
      "velocity": 86,
      "chip": "ym2612"
    },
    {
      "channel": 3,
      "note": 60,
      "start": 28.2963,
      "duration": 0.1149,
      "velocity": 117,
      "chip": "ym2612"
    },
    {
      "channel": 3,
      "note": 60,
      "start": 28.428,
      "duration": 0.1332,
      "velocity": 117,
      "chip": "ym2612"
    },
    {
      "channel": 4,
      "note": 59,
      "start": 28.4283,
      "duration": 0.1332,
      "velocity": 86,
      "chip": "ym2612"
    },
    {
      "channel": 3,
      "note": 60,
      "start": 28.5783,
      "duration": 0.133,
      "velocity": 117,
      "chip": "ym2612"
    },
    {
      "channel": 4,
      "note": 59,
      "start": 28.58,
      "duration": 0.1148,
      "velocity": 86,
      "chip": "ym2612"
    },
    {
      "channel": 4,
      "note": 59,
      "start": 28.7116,
      "duration": 0.1333,
      "velocity": 86,
      "chip": "ym2612"
    },
    {
      "channel": 3,
      "note": 60,
      "start": 28.728,
      "duration": 0.1167,
      "velocity": 117,
      "chip": "ym2612"
    },
    {
      "channel": 3,
      "note": 60,
      "start": 28.8632,
      "duration": 0.1314,
      "velocity": 117,
      "chip": "ym2612"
    },
    {
      "channel": 4,
      "note": 59,
      "start": 28.8649,
      "duration": 0.1299,
      "velocity": 86,
      "chip": "ym2612"
    },
    {
      "channel": 3,
      "note": 60,
      "start": 29.0115,
      "duration": 0.1334,
      "velocity": 117,
      "chip": "ym2612"
    },
    {
      "channel": 4,
      "note": 59,
      "start": 29.0117,
      "duration": 0.1164,
      "velocity": 86,
      "chip": "ym2612"
    },
    {
      "channel": 4,
      "note": 59,
      "start": 29.1466,
      "duration": 0.1316,
      "velocity": 86,
      "chip": "ym2612"
    },
    {
      "channel": 3,
      "note": 60,
      "start": 29.1614,
      "duration": 0.1166,
      "velocity": 117,
      "chip": "ym2612"
    },
    {
      "channel": 3,
      "note": 60,
      "start": 29.2947,
      "duration": 0.1333,
      "velocity": 117,
      "chip": "ym2612"
    },
    {
      "channel": 4,
      "note": 59,
      "start": 29.295,
      "duration": 0.1333,
      "velocity": 86,
      "chip": "ym2612"
    },
    {
      "channel": 3,
      "note": 60,
      "start": 29.4466,
      "duration": 0.1147,
      "velocity": 117,
      "chip": "ym2612"
    },
    {
      "channel": 4,
      "note": 59,
      "start": 29.4483,
      "duration": 0.1132,
      "velocity": 86,
      "chip": "ym2612"
    },
    {
      "channel": 3,
      "note": 60,
      "start": 29.578,
      "duration": 0.1333,
      "velocity": 117,
      "chip": "ym2612"
    },
    {
      "channel": 4,
      "note": 59,
      "start": 29.5782,
      "duration": 0.1333,
      "velocity": 86,
      "chip": "ym2612"
    },
    {
      "channel": 3,
      "note": 60,
      "start": 29.7283,
      "duration": 0.1329,
      "velocity": 117,
      "chip": "ym2612"
    },
    {
      "channel": 4,
      "note": 59,
      "start": 29.73,
      "duration": 0.1316,
      "velocity": 86,
      "chip": "ym2612"
    },
    {
      "channel": 3,
      "note": 60,
      "start": 29.878,
      "duration": 0.1167,
      "velocity": 117,
      "chip": "ym2612"
    },
    {
      "channel": 4,
      "note": 59,
      "start": 29.8782,
      "duration": 0.1167,
      "velocity": 86,
      "chip": "ym2612"
    },
    {
      "channel": 1,
      "note": 72,
      "start": 30.0117,
      "duration": 2.0162,
      "velocity": 108,
      "chip": "ym2612"
    },
    {
      "channel": 3,
      "note": 60,
      "start": 30.0136,
      "duration": 0.131,
      "velocity": 117,
      "chip": "ym2612"
    },
    {
      "channel": 4,
      "note": 59,
      "start": 30.0153,
      "duration": 0.1295,
      "velocity": 86,
      "chip": "ym2612"
    },
    {
      "channel": 0,
      "note": 36,
      "start": 30.0277,
      "duration": 1.1332,
      "velocity": 88,
      "chip": "ym2612"
    },
    {
      "channel": 2,
      "note": 48,
      "start": 30.028,
      "duration": 1.1332,
      "velocity": 88,
      "chip": "ym2612"
    },
    {
      "channel": 3,
      "note": 60,
      "start": 30.1613,
      "duration": 0.1333,
      "velocity": 117,
      "chip": "ym2612"
    },
    {
      "channel": 4,
      "note": 59,
      "start": 30.1616,
      "duration": 0.1333,
      "velocity": 86,
      "chip": "ym2612"
    },
    {
      "channel": 3,
      "note": 60,
      "start": 30.3116,
      "duration": 0.1163,
      "velocity": 117,
      "chip": "ym2612"
    },
    {
      "channel": 4,
      "note": 59,
      "start": 30.3133,
      "duration": 0.1149,
      "velocity": 86,
      "chip": "ym2612"
    },
    {
      "channel": 3,
      "note": 60,
      "start": 30.4447,
      "duration": 0.1332,
      "velocity": 117,
      "chip": "ym2612"
    },
    {
      "channel": 4,
      "note": 59,
      "start": 30.445,
      "duration": 0.1332,
      "velocity": 86,
      "chip": "ym2612"
    },
    {
      "channel": 3,
      "note": 60,
      "start": 30.5966,
      "duration": 0.1313,
      "velocity": 117,
      "chip": "ym2612"
    },
    {
      "channel": 4,
      "note": 59,
      "start": 30.5983,
      "duration": 0.1298,
      "velocity": 86,
      "chip": "ym2612"
    },
    {
      "channel": 3,
      "note": 60,
      "start": 30.7446,
      "duration": 0.1166,
      "velocity": 117,
      "chip": "ym2612"
    },
    {
      "channel": 4,
      "note": 59,
      "start": 30.7449,
      "duration": 0.1166,
      "velocity": 86,
      "chip": "ym2612"
    },
    {
      "channel": 3,
      "note": 60,
      "start": 30.8783,
      "duration": 0.1331,
      "velocity": 117,
      "chip": "ym2612"
    },
    {
      "channel": 4,
      "note": 59,
      "start": 30.88,
      "duration": 0.1316,
      "velocity": 86,
      "chip": "ym2612"
    },
    {
      "channel": 3,
      "note": 60,
      "start": 31.028,
      "duration": 0.1334,
      "velocity": 117,
      "chip": "ym2612"
    },
    {
      "channel": 4,
      "note": 59,
      "start": 31.0282,
      "duration": 0.1334,
      "velocity": 86,
      "chip": "ym2612"
    },
    {
      "channel": 0,
      "note": 39,
      "start": 31.178,
      "duration": 1.1328,
      "velocity": 88,
      "chip": "ym2612"
    },
    {
      "channel": 2,
      "note": 51,
      "start": 31.1785,
      "duration": 1.1327,
      "velocity": 88,
      "chip": "ym2612"
    },
    {
      "channel": 3,
      "note": 60,
      "start": 31.1802,
      "duration": 0.1144,
      "velocity": 117,
      "chip": "ym2612"
    },
    {
      "channel": 4,
      "note": 59,
      "start": 31.1819,
      "duration": 0.1129,
      "velocity": 86,
      "chip": "ym2612"
    },
    {
      "channel": 3,
      "note": 60,
      "start": 31.3114,
      "duration": 0.1333,
      "velocity": 117,
      "chip": "ym2612"
    },
    {
      "channel": 4,
      "note": 59,
      "start": 31.3116,
      "duration": 0.1332,
      "velocity": 86,
      "chip": "ym2612"
    },
    {
      "channel": 3,
      "note": 60,
      "start": 31.4616,
      "duration": 0.1332,
      "velocity": 117,
      "chip": "ym2612"
    },
    {
      "channel": 4,
      "note": 59,
      "start": 31.4633,
      "duration": 0.1148,
      "velocity": 86,
      "chip": "ym2612"
    },
    {
      "channel": 4,
      "note": 59,
      "start": 31.595,
      "duration": 0.1332,
      "velocity": 86,
      "chip": "ym2612"
    },
    {
      "channel": 3,
      "note": 60,
      "start": 31.6113,
      "duration": 0.1166,
      "velocity": 117,
      "chip": "ym2612"
    },
    {
      "channel": 3,
      "note": 60,
      "start": 31.7466,
      "duration": 0.1314,
      "velocity": 117,
      "chip": "ym2612"
    },
    {
      "channel": 4,
      "note": 59,
      "start": 31.7483,
      "duration": 0.1299,
      "velocity": 86,
      "chip": "ym2612"
    },
    {
      "channel": 3,
      "note": 60,
      "start": 31.8946,
      "duration": 0.1336,
      "velocity": 117,
      "chip": "ym2612"
    },
    {
      "channel": 4,
      "note": 59,
      "start": 31.8949,
      "duration": 0.1166,
      "velocity": 86,
      "chip": "ym2612"
    },
    {
      "channel": 4,
      "note": 59,
      "start": 32.03,
      "duration": 0.1316,
      "velocity": 86,
      "chip": "ym2612"
    },
    {
      "channel": 1,
      "note": 72,
      "start": 32.0445,
      "duration": 0.2666,
      "velocity": 108,
      "chip": "ym2612"
    },
    {
      "channel": 3,
      "note": 60,
      "start": 32.0449,
      "duration": 0.1163,
      "velocity": 117,
      "chip": "ym2612"
    },
    {
      "channel": 3,
      "note": 60,
      "start": 32.178,
      "duration": 0.1334,
      "velocity": 117,
      "chip": "ym2612"
    },
    {
      "channel": 4,
      "note": 59,
      "start": 32.1783,
      "duration": 0.1334,
      "velocity": 86,
      "chip": "ym2612"
    },
    {
      "channel": 0,
      "note": 37,
      "start": 32.3282,
      "duration": 2.2998,
      "velocity": 88,
      "chip": "ym2612"
    },
    {
      "channel": 1,
      "note": 73,
      "start": 32.3285,
      "duration": 2.2825,
      "velocity": 108,
      "chip": "ym2612"
    },
    {
      "channel": 2,
      "note": 49,
      "start": 32.3288,
      "duration": 2.2998,
      "velocity": 88,
      "chip": "ym2612"
    },
    {
      "channel": 3,
      "note": 60,
      "start": 32.3305,
      "duration": 0.1308,
      "velocity": 117,
      "chip": "ym2612"
    },
    {
      "channel": 4,
      "note": 59,
      "start": 32.3321,
      "duration": 0.1127,
      "velocity": 86,
      "chip": "ym2612"
    },
    {
      "channel": 4,
      "note": 59,
      "start": 32.4616,
      "duration": 0.1333,
      "velocity": 86,
      "chip": "ym2612"
    },
    {
      "channel": 3,
      "note": 60,
      "start": 32.478,
      "duration": 0.1167,
      "velocity": 117,
      "chip": "ym2612"
    },
    {
      "channel": 3,
      "note": 60,
      "start": 32.6116,
      "duration": 0.1329,
      "velocity": 117,
      "chip": "ym2612"
    },
    {
      "channel": 4,
      "note": 59,
      "start": 32.6133,
      "duration": 0.1316,
      "velocity": 86,
      "chip": "ym2612"
    },
    {
      "channel": 3,
      "note": 60,
      "start": 32.7615,
      "duration": 0.1334,
      "velocity": 117,
      "chip": "ym2612"
    },
    {
      "channel": 4,
      "note": 59,
      "start": 32.7617,
      "duration": 0.1164,
      "velocity": 86,
      "chip": "ym2612"
    },
    {
      "channel": 4,
      "note": 59,
      "start": 32.8966,
      "duration": 0.1316,
      "velocity": 86,
      "chip": "ym2612"
    },
    {
      "channel": 3,
      "note": 60,
      "start": 32.913,
      "duration": 0.115,
      "velocity": 117,
      "chip": "ym2612"
    },
    {
      "channel": 3,
      "note": 60,
      "start": 33.0447,
      "duration": 0.1333,
      "velocity": 117,
      "chip": "ym2612"
    },
    {
      "channel": 4,
      "note": 59,
      "start": 33.045,
      "duration": 0.1333,
      "velocity": 86,
      "chip": "ym2612"
    },
    {
      "channel": 3,
      "note": 60,
      "start": 33.195,
      "duration": 0.133,
      "velocity": 117,
      "chip": "ym2612"
    },
    {
      "channel": 4,
      "note": 59,
      "start": 33.1966,
      "duration": 0.1148,
      "velocity": 86,
      "chip": "ym2612"
    },
    {
      "channel": 4,
      "note": 59,
      "start": 33.3282,
      "duration": 0.1333,
      "velocity": 86,
      "chip": "ym2612"
    },
    {
      "channel": 3,
      "note": 60,
      "start": 33.3447,
      "duration": 0.1165,
      "velocity": 117,
      "chip": "ym2612"
    },
    {
      "channel": 3,
      "note": 60,
      "start": 33.4799,
      "duration": 0.1314,
      "velocity": 117,
      "chip": "ym2612"
    },
    {
      "channel": 4,
      "note": 59,
      "start": 33.4816,
      "duration": 0.1299,
      "velocity": 86,
      "chip": "ym2612"
    },
    {
      "channel": 3,
      "note": 60,
      "start": 33.628,
      "duration": 0.1336,
      "velocity": 117,
      "chip": "ym2612"
    },
    {
      "channel": 4,
      "note": 59,
      "start": 33.6282,
      "duration": 0.1166,
      "velocity": 86,
      "chip": "ym2612"
    },
    {
      "channel": 4,
      "note": 59,
      "start": 33.7633,
      "duration": 0.1316,
      "velocity": 86,
      "chip": "ym2612"
    },
    {
      "channel": 3,
      "note": 60,
      "start": 33.778,
      "duration": 0.1165,
      "velocity": 117,
      "chip": "ym2612"
    },
    {
      "channel": 3,
      "note": 60,
      "start": 33.9113,
      "duration": 0.1333,
      "velocity": 117,
      "chip": "ym2612"
    },
    {
      "channel": 4,
      "note": 59,
      "start": 33.9116,
      "duration": 0.1333,
      "velocity": 86,
      "chip": "ym2612"
    },
    {
      "channel": 3,
      "note": 60,
      "start": 34.0632,
      "duration": 0.1148,
      "velocity": 117,
      "chip": "ym2612"
    },
    {
      "channel": 4,
      "note": 59,
      "start": 34.0649,
      "duration": 0.1133,
      "velocity": 86,
      "chip": "ym2612"
    },
    {
      "channel": 3,
      "note": 60,
      "start": 34.1947,
      "duration": 0.1332,
      "velocity": 117,
      "chip": "ym2612"
    },
    {
      "channel": 4,
      "note": 59,
      "start": 34.195,
      "duration": 0.1332,
      "velocity": 86,
      "chip": "ym2612"
    },
    {
      "channel": 3,
      "note": 60,
      "start": 34.345,
      "duration": 0.1329,
      "velocity": 117,
      "chip": "ym2612"
    },
    {
      "channel": 4,
      "note": 59,
      "start": 34.3467,
      "duration": 0.1315,
      "velocity": 86,
      "chip": "ym2612"
    },
    {
      "channel": 3,
      "note": 60,
      "start": 34.4946,
      "duration": 0.1167,
      "velocity": 117,
      "chip": "ym2612"
    },
    {
      "channel": 4,
      "note": 59,
      "start": 34.4949,
      "duration": 0.1167,
      "velocity": 86,
      "chip": "ym2612"
    },
    {
      "channel": 1,
      "note": 67,
      "start": 34.6283,
      "duration": 1.1494,
      "velocity": 108,
      "chip": "ym2612"
    },
    {
      "channel": 3,
      "note": 60,
      "start": 34.6302,
      "duration": 0.1311,
      "velocity": 117,
      "chip": "ym2612"
    },
    {
      "channel": 4,
      "note": 59,
      "start": 34.6319,
      "duration": 0.1296,
      "velocity": 86,
      "chip": "ym2612"
    },
    {
      "channel": 0,
      "note": 43,
      "start": 34.6443,
      "duration": 2.2833,
      "velocity": 88,
      "chip": "ym2612"
    },
    {
      "channel": 2,
      "note": 55,
      "start": 34.6446,
      "duration": 2.2833,
      "velocity": 88,
      "chip": "ym2612"
    },
    {
      "channel": 3,
      "note": 60,
      "start": 34.778,
      "duration": 0.1332,
      "velocity": 117,
      "chip": "ym2612"
    },
    {
      "channel": 4,
      "note": 59,
      "start": 34.7783,
      "duration": 0.1332,
      "velocity": 86,
      "chip": "ym2612"
    },
    {
      "channel": 3,
      "note": 60,
      "start": 34.9284,
      "duration": 0.1162,
      "velocity": 117,
      "chip": "ym2612"
    },
    {
      "channel": 4,
      "note": 59,
      "start": 34.93,
      "duration": 0.1148,
      "velocity": 86,
      "chip": "ym2612"
    },
    {
      "channel": 3,
      "note": 60,
      "start": 35.0613,
      "duration": 0.1333,
      "velocity": 117,
      "chip": "ym2612"
    },
    {
      "channel": 4,
      "note": 59,
      "start": 35.0616,
      "duration": 0.1333,
      "velocity": 86,
      "chip": "ym2612"
    },
    {
      "channel": 3,
      "note": 60,
      "start": 35.2132,
      "duration": 0.1314,
      "velocity": 117,
      "chip": "ym2612"
    },
    {
      "channel": 4,
      "note": 59,
      "start": 35.2149,
      "duration": 0.13,
      "velocity": 86,
      "chip": "ym2612"
    },
    {
      "channel": 3,
      "note": 60,
      "start": 35.3614,
      "duration": 0.1165,
      "velocity": 117,
      "chip": "ym2612"
    },
    {
      "channel": 4,
      "note": 59,
      "start": 35.3616,
      "duration": 0.1166,
      "velocity": 86,
      "chip": "ym2612"
    },
    {
      "channel": 3,
      "note": 60,
      "start": 35.495,
      "duration": 0.1329,
      "velocity": 117,
      "chip": "ym2612"
    },
    {
      "channel": 4,
      "note": 59,
      "start": 35.4966,
      "duration": 0.1316,
      "velocity": 86,
      "chip": "ym2612"
    },
    {
      "channel": 3,
      "note": 60,
      "start": 35.6446,
      "duration": 0.1333,
      "velocity": 117,
      "chip": "ym2612"
    },
    {
      "channel": 4,
      "note": 59,
      "start": 35.6449,
      "duration": 0.1333,
      "velocity": 86,
      "chip": "ym2612"
    },
    {
      "channel": 3,
      "note": 60,
      "start": 35.7966,
      "duration": 0.1147,
      "velocity": 117,
      "chip": "ym2612"
    },
    {
      "channel": 4,
      "note": 59,
      "start": 35.7983,
      "duration": 0.1132,
      "velocity": 86,
      "chip": "ym2612"
    },
    {
      "channel": 3,
      "note": 60,
      "start": 35.928,
      "duration": 0.1333,
      "velocity": 117,
      "chip": "ym2612"
    },
    {
      "channel": 4,
      "note": 59,
      "start": 35.9283,
      "duration": 0.1333,
      "velocity": 86,
      "chip": "ym2612"
    },
    {
      "channel": 1,
      "note": 67,
      "start": 36.078,
      "duration": 0.2664,
      "velocity": 108,
      "chip": "ym2612"
    },
    {
      "channel": 3,
      "note": 60,
      "start": 36.0784,
      "duration": 0.1329,
      "velocity": 117,
      "chip": "ym2612"
    },
    {
      "channel": 4,
      "note": 59,
      "start": 36.0801,
      "duration": 0.1147,
      "velocity": 86,
      "chip": "ym2612"
    },
    {
      "channel": 4,
      "note": 59,
      "start": 36.2116,
      "duration": 0.1334,
      "velocity": 86,
      "chip": "ym2612"
    },
    {
      "channel": 3,
      "note": 60,
      "start": 36.228,
      "duration": 0.1167,
      "velocity": 117,
      "chip": "ym2612"
    },
    {
      "channel": 1,
      "note": 67,
      "start": 36.3615,
      "duration": 0.283,
      "velocity": 108,
      "chip": "ym2612"
    },
    {
      "channel": 3,
      "note": 60,
      "start": 36.3634,
      "duration": 0.1312,
      "velocity": 117,
      "chip": "ym2612"
    },
    {
      "channel": 4,
      "note": 59,
      "start": 36.3651,
      "duration": 0.1298,
      "velocity": 86,
      "chip": "ym2612"
    },
    {
      "channel": 3,
      "note": 60,
      "start": 36.5114,
      "duration": 0.1335,
      "velocity": 117,
      "chip": "ym2612"
    },
    {
      "channel": 4,
      "note": 59,
      "start": 36.5116,
      "duration": 0.1165,
      "velocity": 86,
      "chip": "ym2612"
    },
    {
      "channel": 4,
      "note": 59,
      "start": 36.6466,
      "duration": 0.1316,
      "velocity": 86,
      "chip": "ym2612"
    },
    {
      "channel": 1,
      "note": 68,
      "start": 36.6611,
      "duration": 0.2667,
      "velocity": 108,
      "chip": "ym2612"
    },
    {
      "channel": 3,
      "note": 60,
      "start": 36.6615,
      "duration": 0.1165,
      "velocity": 117,
      "chip": "ym2612"
    },
    {
      "channel": 3,
      "note": 60,
      "start": 36.7947,
      "duration": 0.1335,
      "velocity": 117,
      "chip": "ym2612"
    },
    {
      "channel": 4,
      "note": 59,
      "start": 36.795,
      "duration": 0.1335,
      "velocity": 86,
      "chip": "ym2612"
    },
    {
      "channel": 0,
      "note": 43,
      "start": 36.9467,
      "duration": 2.298,
      "velocity": 88,
      "chip": "ym2612"
    },
    {
      "channel": 1,
      "note": 73,
      "start": 36.9469,
      "duration": 2.2807,
      "velocity": 108,
      "chip": "ym2612"
    },
    {
      "channel": 2,
      "note": 55,
      "start": 36.9486,
      "duration": 2.2966,
      "velocity": 88,
      "chip": "ym2612"
    },
    {
      "channel": 3,
      "note": 60,
      "start": 36.9503,
      "duration": 0.1277,
      "velocity": 117,
      "chip": "ym2612"
    },
    {
      "channel": 4,
      "note": 59,
      "start": 36.952,
      "duration": 0.1093,
      "velocity": 86,
      "chip": "ym2612"
    },
    {
      "channel": 4,
      "note": 59,
      "start": 37.0782,
      "duration": 0.1333,
      "velocity": 86,
      "chip": "ym2612"
    },
    {
      "channel": 3,
      "note": 60,
      "start": 37.0947,
      "duration": 0.1165,
      "velocity": 117,
      "chip": "ym2612"
    },
    {
      "channel": 3,
      "note": 60,
      "start": 37.2283,
      "duration": 0.133,
      "velocity": 117,
      "chip": "ym2612"
    },
    {
      "channel": 4,
      "note": 59,
      "start": 37.23,
      "duration": 0.1316,
      "velocity": 86,
      "chip": "ym2612"
    },
    {
      "channel": 3,
      "note": 60,
      "start": 37.378,
      "duration": 0.1335,
      "velocity": 117,
      "chip": "ym2612"
    },
    {
      "channel": 4,
      "note": 59,
      "start": 37.3783,
      "duration": 0.1164,
      "velocity": 86,
      "chip": "ym2612"
    },
    {
      "channel": 4,
      "note": 59,
      "start": 37.5133,
      "duration": 0.1316,
      "velocity": 86,
      "chip": "ym2612"
    },
    {
      "channel": 3,
      "note": 60,
      "start": 37.5296,
      "duration": 0.1149,
      "velocity": 117,
      "chip": "ym2612"
    },
    {
      "channel": 3,
      "note": 60,
      "start": 37.6613,
      "duration": 0.1333,
      "velocity": 117,
      "chip": "ym2612"
    },
    {
      "channel": 4,
      "note": 59,
      "start": 37.6616,
      "duration": 0.1333,
      "velocity": 86,
      "chip": "ym2612"
    },
    {
      "channel": 3,
      "note": 60,
      "start": 37.8116,
      "duration": 0.133,
      "velocity": 117,
      "chip": "ym2612"
    },
    {
      "channel": 4,
      "note": 59,
      "start": 37.8133,
      "duration": 0.1149,
      "velocity": 86,
      "chip": "ym2612"
    },
    {
      "channel": 4,
      "note": 59,
      "start": 37.9449,
      "duration": 0.1333,
      "velocity": 86,
      "chip": "ym2612"
    },
    {
      "channel": 3,
      "note": 60,
      "start": 37.9613,
      "duration": 0.1166,
      "velocity": 117,
      "chip": "ym2612"
    },
    {
      "channel": 3,
      "note": 60,
      "start": 38.0966,
      "duration": 0.1313,
      "velocity": 117,
      "chip": "ym2612"
    },
    {
      "channel": 4,
      "note": 59,
      "start": 38.0983,
      "duration": 0.1298,
      "velocity": 86,
      "chip": "ym2612"
    },
    {
      "channel": 3,
      "note": 60,
      "start": 38.2446,
      "duration": 0.1335,
      "velocity": 117,
      "chip": "ym2612"
    },
    {
      "channel": 4,
      "note": 59,
      "start": 38.2449,
      "duration": 0.1166,
      "velocity": 86,
      "chip": "ym2612"
    },
    {
      "channel": 4,
      "note": 59,
      "start": 38.3799,
      "duration": 0.1317,
      "velocity": 86,
      "chip": "ym2612"
    },
    {
      "channel": 3,
      "note": 60,
      "start": 38.3947,
      "duration": 0.1167,
      "velocity": 117,
      "chip": "ym2612"
    },
    {
      "channel": 3,
      "note": 60,
      "start": 38.528,
      "duration": 0.1333,
      "velocity": 117,
      "chip": "ym2612"
    },
    {
      "channel": 4,
      "note": 59,
      "start": 38.5282,
      "duration": 0.1333,
      "velocity": 86,
      "chip": "ym2612"
    },
    {
      "channel": 3,
      "note": 60,
      "start": 38.68,
      "duration": 0.1146,
      "velocity": 117,
      "chip": "ym2612"
    },
    {
      "channel": 4,
      "note": 59,
      "start": 38.6817,
      "duration": 0.1132,
      "velocity": 86,
      "chip": "ym2612"
    },
    {
      "channel": 3,
      "note": 60,
      "start": 38.8113,
      "duration": 0.1333,
      "velocity": 117,
      "chip": "ym2612"
    },
    {
      "channel": 4,
      "note": 59,
      "start": 38.8116,
      "duration": 0.1333,
      "velocity": 86,
      "chip": "ym2612"
    },
    {
      "channel": 3,
      "note": 60,
      "start": 38.9616,
      "duration": 0.1332,
      "velocity": 117,
      "chip": "ym2612"
    },
    {
      "channel": 4,
      "note": 59,
      "start": 38.9633,
      "duration": 0.1316,
      "velocity": 86,
      "chip": "ym2612"
    },
    {
      "channel": 3,
      "note": 60,
      "start": 39.1113,
      "duration": 0.1167,
      "velocity": 117,
      "chip": "ym2612"
    },
    {
      "channel": 4,
      "note": 59,
      "start": 39.1116,
      "duration": 0.1167,
      "velocity": 86,
      "chip": "ym2612"
    },
    {
      "channel": 1,
      "note": 72,
      "start": 39.2449,
      "duration": 2.2995,
      "velocity": 108,
      "chip": "ym2612"
    },
    {
      "channel": 3,
      "note": 60,
      "start": 39.2468,
      "duration": 0.1311,
      "velocity": 117,
      "chip": "ym2612"
    },
    {
      "channel": 4,
      "note": 59,
      "start": 39.2485,
      "duration": 0.1297,
      "velocity": 86,
      "chip": "ym2612"
    },
    {
      "channel": 0,
      "note": 36,
      "start": 39.261,
      "duration": 1.1332,
      "velocity": 88,
      "chip": "ym2612"
    },
    {
      "channel": 2,
      "note": 48,
      "start": 39.2615,
      "duration": 1.133,
      "velocity": 88,
      "chip": "ym2612"
    },
    {
      "channel": 3,
      "note": 60,
      "start": 39.3946,
      "duration": 0.1333,
      "velocity": 117,
      "chip": "ym2612"
    },
    {
      "channel": 4,
      "note": 59,
      "start": 39.3949,
      "duration": 0.1333,
      "velocity": 86,
      "chip": "ym2612"
    },
    {
      "channel": 3,
      "note": 60,
      "start": 39.5449,
      "duration": 0.1163,
      "velocity": 117,
      "chip": "ym2612"
    },
    {
      "channel": 4,
      "note": 59,
      "start": 39.5466,
      "duration": 0.1149,
      "velocity": 86,
      "chip": "ym2612"
    },
    {
      "channel": 3,
      "note": 60,
      "start": 39.6781,
      "duration": 0.1331,
      "velocity": 117,
      "chip": "ym2612"
    },
    {
      "channel": 4,
      "note": 59,
      "start": 39.6784,
      "duration": 0.1332,
      "velocity": 86,
      "chip": "ym2612"
    },
    {
      "channel": 3,
      "note": 60,
      "start": 39.8299,
      "duration": 0.1314,
      "velocity": 117,
      "chip": "ym2612"
    },
    {
      "channel": 4,
      "note": 59,
      "start": 39.8316,
      "duration": 0.1299,
      "velocity": 86,
      "chip": "ym2612"
    },
    {
      "channel": 3,
      "note": 60,
      "start": 39.978,
      "duration": 0.1167,
      "velocity": 117,
      "chip": "ym2612"
    },
    {
      "channel": 4,
      "note": 59,
      "start": 39.9782,
      "duration": 0.1167,
      "velocity": 86,
      "chip": "ym2612"
    },
    {
      "channel": 3,
      "note": 60,
      "start": 40.1116,
      "duration": 0.1329,
      "velocity": 117,
      "chip": "ym2612"
    },
    {
      "channel": 4,
      "note": 59,
      "start": 40.1133,
      "duration": 0.1316,
      "velocity": 86,
      "chip": "ym2612"
    },
    {
      "channel": 3,
      "note": 60,
      "start": 40.2614,
      "duration": 0.1333,
      "velocity": 117,
      "chip": "ym2612"
    },
    {
      "channel": 4,
      "note": 59,
      "start": 40.2616,
      "duration": 0.1333,
      "velocity": 86,
      "chip": "ym2612"
    },
    {
      "channel": 0,
      "note": 37,
      "start": 40.4114,
      "duration": 1.1328,
      "velocity": 88,
      "chip": "ym2612"
    },
    {
      "channel": 2,
      "note": 49,
      "start": 40.4118,
      "duration": 1.1328,
      "velocity": 88,
      "chip": "ym2612"
    },
    {
      "channel": 3,
      "note": 60,
      "start": 40.4135,
      "duration": 0.1145,
      "velocity": 117,
      "chip": "ym2612"
    },
    {
      "channel": 4,
      "note": 59,
      "start": 40.4151,
      "duration": 0.113,
      "velocity": 86,
      "chip": "ym2612"
    },
    {
      "channel": 3,
      "note": 60,
      "start": 40.5447,
      "duration": 0.1333,
      "velocity": 117,
      "chip": "ym2612"
    },
    {
      "channel": 4,
      "note": 59,
      "start": 40.545,
      "duration": 0.1333,
      "velocity": 86,
      "chip": "ym2612"
    },
    {
      "channel": 3,
      "note": 60,
      "start": 40.6949,
      "duration": 0.133,
      "velocity": 117,
      "chip": "ym2612"
    },
    {
      "channel": 4,
      "note": 59,
      "start": 40.6966,
      "duration": 0.1148,
      "velocity": 86,
      "chip": "ym2612"
    },
    {
      "channel": 4,
      "note": 59,
      "start": 40.8282,
      "duration": 0.1333,
      "velocity": 86,
      "chip": "ym2612"
    },
    {
      "channel": 3,
      "note": 60,
      "start": 40.8447,
      "duration": 0.1165,
      "velocity": 117,
      "chip": "ym2612"
    },
    {
      "channel": 3,
      "note": 60,
      "start": 40.9799,
      "duration": 0.1314,
      "velocity": 117,
      "chip": "ym2612"
    },
    {
      "channel": 4,
      "note": 59,
      "start": 40.9816,
      "duration": 0.1299,
      "velocity": 86,
      "chip": "ym2612"
    },
    {
      "channel": 3,
      "note": 60,
      "start": 41.128,
      "duration": 0.1335,
      "velocity": 117,
      "chip": "ym2612"
    },
    {
      "channel": 4,
      "note": 59,
      "start": 41.1283,
      "duration": 0.1165,
      "velocity": 86,
      "chip": "ym2612"
    },
    {
      "channel": 4,
      "note": 59,
      "start": 41.2633,
      "duration": 0.1316,
      "velocity": 86,
      "chip": "ym2612"
    },
    {
      "channel": 3,
      "note": 60,
      "start": 41.278,
      "duration": 0.1165,
      "velocity": 117,
      "chip": "ym2612"
    },
    {
      "channel": 3,
      "note": 60,
      "start": 41.4113,
      "duration": 0.1335,
      "velocity": 117,
      "chip": "ym2612"
    },
    {
      "channel": 4,
      "note": 59,
      "start": 41.4116,
      "duration": 0.1335,
      "velocity": 86,
      "chip": "ym2612"
    },
    {
      "channel": 0,
      "note": 41,
      "start": 41.5616,
      "duration": 2.2998,
      "velocity": 88,
      "chip": "ym2612"
    },
    {
      "channel": 2,
      "note": 53,
      "start": 41.5634,
      "duration": 2.2998,
      "velocity": 88,
      "chip": "ym2612"
    },
    {
      "channel": 3,
      "note": 60,
      "start": 41.5651,
      "duration": 0.1295,
      "velocity": 117,
      "chip": "ym2612"
    },
    {
      "channel": 4,
      "note": 59,
      "start": 41.5668,
      "duration": 0.1114,
      "velocity": 86,
      "chip": "ym2612"
    },
    {
      "channel": 4,
      "note": 59,
      "start": 41.6949,
      "duration": 0.1333,
      "velocity": 86,
      "chip": "ym2612"
    },
    {
      "channel": 3,
      "note": 60,
      "start": 41.7113,
      "duration": 0.1166,
      "velocity": 117,
      "chip": "ym2612"
    },
    {
      "channel": 3,
      "note": 60,
      "start": 41.845,
      "duration": 0.1329,
      "velocity": 117,
      "chip": "ym2612"
    },
    {
      "channel": 4,
      "note": 59,
      "start": 41.8467,
      "duration": 0.1315,
      "velocity": 86,
      "chip": "ym2612"
    },
    {
      "channel": 3,
      "note": 60,
      "start": 41.9946,
      "duration": 0.1335,
      "velocity": 117,
      "chip": "ym2612"
    },
    {
      "channel": 4,
      "note": 59,
      "start": 41.9949,
      "duration": 0.1166,
      "velocity": 86,
      "chip": "ym2612"
    },
    {
      "channel": 4,
      "note": 59,
      "start": 42.1299,
      "duration": 0.1317,
      "velocity": 86,
      "chip": "ym2612"
    },
    {
      "channel": 3,
      "note": 60,
      "start": 42.1463,
      "duration": 0.115,
      "velocity": 117,
      "chip": "ym2612"
    },
    {
      "channel": 3,
      "note": 60,
      "start": 42.278,
      "duration": 0.1333,
      "velocity": 117,
      "chip": "ym2612"
    },
    {
      "channel": 4,
      "note": 59,
      "start": 42.2782,
      "duration": 0.1333,
      "velocity": 86,
      "chip": "ym2612"
    },
    {
      "channel": 3,
      "note": 60,
      "start": 42.4284,
      "duration": 0.1329,
      "velocity": 117,
      "chip": "ym2612"
    },
    {
      "channel": 4,
      "note": 59,
      "start": 42.43,
      "duration": 0.1148,
      "velocity": 86,
      "chip": "ym2612"
    },
    {
      "channel": 4,
      "note": 59,
      "start": 42.5616,
      "duration": 0.1333,
      "velocity": 86,
      "chip": "ym2612"
    },
    {
      "channel": 3,
      "note": 60,
      "start": 42.578,
      "duration": 0.1167,
      "velocity": 117,
      "chip": "ym2612"
    },
    {
      "channel": 3,
      "note": 60,
      "start": 42.7132,
      "duration": 0.1315,
      "velocity": 117,
      "chip": "ym2612"
    },
    {
      "channel": 4,
      "note": 59,
      "start": 42.7149,
      "duration": 0.13,
      "velocity": 86,
      "chip": "ym2612"
    },
    {
      "channel": 3,
      "note": 60,
      "start": 42.8614,
      "duration": 0.1335,
      "velocity": 117,
      "chip": "ym2612"
    },
    {
      "channel": 4,
      "note": 59,
      "start": 42.8616,
      "duration": 0.1165,
      "velocity": 86,
      "chip": "ym2612"
    },
    {
      "channel": 4,
      "note": 59,
      "start": 42.9966,
      "duration": 0.1316,
      "velocity": 86,
      "chip": "ym2612"
    },
    {
      "channel": 3,
      "note": 60,
      "start": 43.0115,
      "duration": 0.1165,
      "velocity": 117,
      "chip": "ym2612"
    },
    {
      "channel": 3,
      "note": 60,
      "start": 43.1446,
      "duration": 0.1333,
      "velocity": 117,
      "chip": "ym2612"
    },
    {
      "channel": 4,
      "note": 59,
      "start": 43.1449,
      "duration": 0.1333,
      "velocity": 86,
      "chip": "ym2612"
    },
    {
      "channel": 3,
      "note": 60,
      "start": 43.2966,
      "duration": 0.1147,
      "velocity": 117,
      "chip": "ym2612"
    },
    {
      "channel": 4,
      "note": 59,
      "start": 43.2983,
      "duration": 0.1132,
      "velocity": 86,
      "chip": "ym2612"
    },
    {
      "channel": 3,
      "note": 60,
      "start": 43.428,
      "duration": 0.1332,
      "velocity": 117,
      "chip": "ym2612"
    },
    {
      "channel": 4,
      "note": 59,
      "start": 43.4283,
      "duration": 0.1332,
      "velocity": 86,
      "chip": "ym2612"
    },
    {
      "channel": 3,
      "note": 60,
      "start": 43.5783,
      "duration": 0.1329,
      "velocity": 117,
      "chip": "ym2612"
    },
    {
      "channel": 4,
      "note": 59,
      "start": 43.58,
      "duration": 0.1316,
      "velocity": 86,
      "chip": "ym2612"
    },
    {
      "channel": 3,
      "note": 60,
      "start": 43.728,
      "duration": 0.1167,
      "velocity": 117,
      "chip": "ym2612"
    },
    {
      "channel": 4,
      "note": 59,
      "start": 43.7282,
      "duration": 0.1167,
      "velocity": 86,
      "chip": "ym2612"
    },
    {
      "channel": 3,
      "note": 60,
      "start": 43.8649,
      "duration": 0.1297,
      "velocity": 117,
      "chip": "ym2612"
    },
    {
      "channel": 4,
      "note": 59,
      "start": 43.8666,
      "duration": 0.1283,
      "velocity": 86,
      "chip": "ym2612"
    },
    {
      "channel": 0,
      "note": 36,
      "start": 43.8777,
      "duration": 1.1332,
      "velocity": 88,
      "chip": "ym2612"
    },
    {
      "channel": 2,
      "note": 48,
      "start": 43.878,
      "duration": 1.1333,
      "velocity": 88,
      "chip": "ym2612"
    },
    {
      "channel": 3,
      "note": 60,
      "start": 44.0114,
      "duration": 0.1332,
      "velocity": 117,
      "chip": "ym2612"
    },
    {
      "channel": 4,
      "note": 59,
      "start": 44.0116,
      "duration": 0.1332,
      "velocity": 86,
      "chip": "ym2612"
    },
    {
      "channel": 3,
      "note": 60,
      "start": 44.1616,
      "duration": 0.1163,
      "velocity": 117,
      "chip": "ym2612"
    },
    {
      "channel": 4,
      "note": 59,
      "start": 44.1633,
      "duration": 0.1149,
      "velocity": 86,
      "chip": "ym2612"
    },
    {
      "channel": 3,
      "note": 60,
      "start": 44.2947,
      "duration": 0.1333,
      "velocity": 117,
      "chip": "ym2612"
    },
    {
      "channel": 4,
      "note": 59,
      "start": 44.295,
      "duration": 0.1333,
      "velocity": 86,
      "chip": "ym2612"
    },
    {
      "channel": 3,
      "note": 60,
      "start": 44.4466,
      "duration": 0.1314,
      "velocity": 117,
      "chip": "ym2612"
    },
    {
      "channel": 4,
      "note": 59,
      "start": 44.4483,
      "duration": 0.1299,
      "velocity": 86,
      "chip": "ym2612"
    },
    {
      "channel": 3,
      "note": 60,
      "start": 44.5947,
      "duration": 0.1165,
      "velocity": 117,
      "chip": "ym2612"
    },
    {
      "channel": 4,
      "note": 59,
      "start": 44.595,
      "duration": 0.1166,
      "velocity": 86,
      "chip": "ym2612"
    },
    {
      "channel": 3,
      "note": 60,
      "start": 44.7283,
      "duration": 0.1329,
      "velocity": 117,
      "chip": "ym2612"
    },
    {
      "channel": 4,
      "note": 59,
      "start": 44.73,
      "duration": 0.1316,
      "velocity": 86,
      "chip": "ym2612"
    },
    {
      "channel": 3,
      "note": 60,
      "start": 44.878,
      "duration": 0.1335,
      "velocity": 117,
      "chip": "ym2612"
    },
    {
      "channel": 4,
      "note": 59,
      "start": 44.8782,
      "duration": 0.1335,
      "velocity": 86,
      "chip": "ym2612"
    },
    {
      "channel": 0,
      "note": 37,
      "start": 45.028,
      "duration": 1.1328,
      "velocity": 88,
      "chip": "ym2612"
    },
    {
      "channel": 2,
      "note": 49,
      "start": 45.0284,
      "duration": 1.1329,
      "velocity": 88,
      "chip": "ym2612"
    },
    {
      "channel": 3,
      "note": 60,
      "start": 45.0301,
      "duration": 0.1145,
      "velocity": 117,
      "chip": "ym2612"
    },
    {
      "channel": 4,
      "note": 59,
      "start": 45.0318,
      "duration": 0.113,
      "velocity": 86,
      "chip": "ym2612"
    },
    {
      "channel": 3,
      "note": 60,
      "start": 45.1613,
      "duration": 0.1333,
      "velocity": 117,
      "chip": "ym2612"
    },
    {
      "channel": 4,
      "note": 59,
      "start": 45.1616,
      "duration": 0.1333,
      "velocity": 86,
      "chip": "ym2612"
    },
    {
      "channel": 3,
      "note": 60,
      "start": 45.3116,
      "duration": 0.133,
      "velocity": 117,
      "chip": "ym2612"
    },
    {
      "channel": 4,
      "note": 59,
      "start": 45.3133,
      "duration": 0.1149,
      "velocity": 86,
      "chip": "ym2612"
    },
    {
      "channel": 4,
      "note": 59,
      "start": 45.4449,
      "duration": 0.1333,
      "velocity": 86,
      "chip": "ym2612"
    },
    {
      "channel": 3,
      "note": 60,
      "start": 45.4613,
      "duration": 0.1166,
      "velocity": 117,
      "chip": "ym2612"
    },
    {
      "channel": 3,
      "note": 60,
      "start": 45.5966,
      "duration": 0.1313,
      "velocity": 117,
      "chip": "ym2612"
    },
    {
      "channel": 4,
      "note": 59,
      "start": 45.5983,
      "duration": 0.1298,
      "velocity": 86,
      "chip": "ym2612"
    },
    {
      "channel": 3,
      "note": 60,
      "start": 45.7446,
      "duration": 0.1335,
      "velocity": 117,
      "chip": "ym2612"
    },
    {
      "channel": 4,
      "note": 59,
      "start": 45.7449,
      "duration": 0.1165,
      "velocity": 86,
      "chip": "ym2612"
    },
    {
      "channel": 4,
      "note": 59,
      "start": 45.8799,
      "duration": 0.1317,
      "velocity": 86,
      "chip": "ym2612"
    },
    {
      "channel": 3,
      "note": 60,
      "start": 45.8947,
      "duration": 0.1167,
      "velocity": 117,
      "chip": "ym2612"
    },
    {
      "channel": 3,
      "note": 60,
      "start": 46.028,
      "duration": 0.1335,
      "velocity": 117,
      "chip": "ym2612"
    },
    {
      "channel": 4,
      "note": 59,
      "start": 46.0282,
      "duration": 0.1334,
      "velocity": 86,
      "chip": "ym2612"
    },
    {
      "channel": 0,
      "note": 41,
      "start": 46.1783,
      "duration": 2.2998,
      "velocity": 88,
      "chip": "ym2612"
    },
    {
      "channel": 2,
      "note": 53,
      "start": 46.1802,
      "duration": 2.2997,
      "velocity": 88,
      "chip": "ym2612"
    },
    {
      "channel": 3,
      "note": 60,
      "start": 46.1818,
      "duration": 0.1295,
      "velocity": 117,
      "chip": "ym2612"
    },
    {
      "channel": 4,
      "note": 59,
      "start": 46.1835,
      "duration": 0.1113,
      "velocity": 86,
      "chip": "ym2612"
    },
    {
      "channel": 4,
      "note": 59,
      "start": 46.3116,
      "duration": 0.1333,
      "velocity": 86,
      "chip": "ym2612"
    },
    {
      "channel": 3,
      "note": 60,
      "start": 46.328,
      "duration": 0.1166,
      "velocity": 117,
      "chip": "ym2612"
    },
    {
      "channel": 3,
      "note": 60,
      "start": 46.4616,
      "duration": 0.133,
      "velocity": 117,
      "chip": "ym2612"
    },
    {
      "channel": 4,
      "note": 59,
      "start": 46.4633,
      "duration": 0.1316,
      "velocity": 86,
      "chip": "ym2612"
    },
    {
      "channel": 3,
      "note": 60,
      "start": 46.6114,
      "duration": 0.1335,
      "velocity": 117,
      "chip": "ym2612"
    },
    {
      "channel": 4,
      "note": 59,
      "start": 46.6116,
      "duration": 0.1165,
      "velocity": 86,
      "chip": "ym2612"
    },
    {
      "channel": 4,
      "note": 59,
      "start": 46.7466,
      "duration": 0.1316,
      "velocity": 86,
      "chip": "ym2612"
    },
    {
      "channel": 3,
      "note": 60,
      "start": 46.763,
      "duration": 0.1149,
      "velocity": 117,
      "chip": "ym2612"
    },
    {
      "channel": 3,
      "note": 60,
      "start": 46.8946,
      "duration": 0.1333,
      "velocity": 117,
      "chip": "ym2612"
    },
    {
      "channel": 4,
      "note": 59,
      "start": 46.8949,
      "duration": 0.1333,
      "velocity": 86,
      "chip": "ym2612"
    },
    {
      "channel": 3,
      "note": 60,
      "start": 47.045,
      "duration": 0.1331,
      "velocity": 117,
      "chip": "ym2612"
    },
    {
      "channel": 4,
      "note": 59,
      "start": 47.0466,
      "duration": 0.1148,
      "velocity": 86,
      "chip": "ym2612"
    },
    {
      "channel": 4,
      "note": 59,
      "start": 47.1783,
      "duration": 0.1333,
      "velocity": 86,
      "chip": "ym2612"
    },
    {
      "channel": 3,
      "note": 60,
      "start": 47.1946,
      "duration": 0.1167,
      "velocity": 117,
      "chip": "ym2612"
    },
    {
      "channel": 3,
      "note": 60,
      "start": 47.3298,
      "duration": 0.1314,
      "velocity": 117,
      "chip": "ym2612"
    },
    {
      "channel": 4,
      "note": 59,
      "start": 47.3315,
      "duration": 0.13,
      "velocity": 86,
      "chip": "ym2612"
    },
    {
      "channel": 3,
      "note": 60,
      "start": 47.478,
      "duration": 0.1335,
      "velocity": 117,
      "chip": "ym2612"
    },
    {
      "channel": 4,
      "note": 59,
      "start": 47.4782,
      "duration": 0.1166,
      "velocity": 86,
      "chip": "ym2612"
    },
    {
      "channel": 4,
      "note": 59,
      "start": 47.6132,
      "duration": 0.1316,
      "velocity": 86,
      "chip": "ym2612"
    },
    {
      "channel": 3,
      "note": 60,
      "start": 47.628,
      "duration": 0.1165,
      "velocity": 117,
      "chip": "ym2612"
    },
    {
      "channel": 3,
      "note": 60,
      "start": 47.7615,
      "duration": 0.1331,
      "velocity": 117,
      "chip": "ym2612"
    },
    {
      "channel": 4,
      "note": 59,
      "start": 47.7617,
      "duration": 0.1332,
      "velocity": 86,
      "chip": "ym2612"
    },
    {
      "channel": 3,
      "note": 60,
      "start": 47.9132,
      "duration": 0.1147,
      "velocity": 117,
      "chip": "ym2612"
    },
    {
      "channel": 4,
      "note": 59,
      "start": 47.9149,
      "duration": 0.1132,
      "velocity": 86,
      "chip": "ym2612"
    },
    {
      "channel": 3,
      "note": 60,
      "start": 48.0446,
      "duration": 0.1334,
      "velocity": 117,
      "chip": "ym2612"
    },
    {
      "channel": 4,
      "note": 59,
      "start": 48.0449,
      "duration": 0.1333,
      "velocity": 86,
      "chip": "ym2612"
    },
    {
      "channel": 3,
      "note": 60,
      "start": 48.195,
      "duration": 0.1329,
      "velocity": 117,
      "chip": "ym2612"
    },
    {
      "channel": 4,
      "note": 59,
      "start": 48.1966,
      "duration": 0.1316,
      "velocity": 86,
      "chip": "ym2612"
    },
    {
      "channel": 3,
      "note": 60,
      "start": 48.3447,
      "duration": 0.1166,
      "velocity": 117,
      "chip": "ym2612"
    },
    {
      "channel": 4,
      "note": 59,
      "start": 48.345,
      "duration": 0.1166,
      "velocity": 86,
      "chip": "ym2612"
    },
    {
      "channel": 3,
      "note": 60,
      "start": 48.4815,
      "duration": 0.1298,
      "velocity": 117,
      "chip": "ym2612"
    },
    {
      "channel": 4,
      "note": 59,
      "start": 48.4832,
      "duration": 0.1283,
      "velocity": 86,
      "chip": "ym2612"
    },
    {
      "channel": 0,
      "note": 36,
      "start": 48.4943,
      "duration": 1.1332,
      "velocity": 88,
      "chip": "ym2612"
    },
    {
      "channel": 2,
      "note": 48,
      "start": 48.4948,
      "duration": 1.1331,
      "velocity": 88,
      "chip": "ym2612"
    },
    {
      "channel": 3,
      "note": 60,
      "start": 48.628,
      "duration": 0.1333,
      "velocity": 117,
      "chip": "ym2612"
    },
    {
      "channel": 4,
      "note": 59,
      "start": 48.6283,
      "duration": 0.1333,
      "velocity": 86,
      "chip": "ym2612"
    },
    {
      "channel": 3,
      "note": 60,
      "start": 48.7782,
      "duration": 0.1163,
      "velocity": 117,
      "chip": "ym2612"
    },
    {
      "channel": 4,
      "note": 59,
      "start": 48.78,
      "duration": 0.1149,
      "velocity": 86,
      "chip": "ym2612"
    },
    {
      "channel": 3,
      "note": 60,
      "start": 48.9113,
      "duration": 0.1333,
      "velocity": 117,
      "chip": "ym2612"
    },
    {
      "channel": 4,
      "note": 59,
      "start": 48.9116,
      "duration": 0.1333,
      "velocity": 86,
      "chip": "ym2612"
    },
    {
      "channel": 3,
      "note": 60,
      "start": 49.0632,
      "duration": 0.1314,
      "velocity": 117,
      "chip": "ym2612"
    },
    {
      "channel": 4,
      "note": 59,
      "start": 49.0649,
      "duration": 0.1299,
      "velocity": 86,
      "chip": "ym2612"
    },
    {
      "channel": 3,
      "note": 60,
      "start": 49.2113,
      "duration": 0.1167,
      "velocity": 117,
      "chip": "ym2612"
    },
    {
      "channel": 4,
      "note": 59,
      "start": 49.2116,
      "duration": 0.1166,
      "velocity": 86,
      "chip": "ym2612"
    },
    {
      "channel": 3,
      "note": 60,
      "start": 49.345,
      "duration": 0.1329,
      "velocity": 117,
      "chip": "ym2612"
    },
    {
      "channel": 4,
      "note": 59,
      "start": 49.3467,
      "duration": 0.1315,
      "velocity": 86,
      "chip": "ym2612"
    },
    {
      "channel": 3,
      "note": 60,
      "start": 49.4946,
      "duration": 0.1335,
      "velocity": 117,
      "chip": "ym2612"
    },
    {
      "channel": 4,
      "note": 59,
      "start": 49.4949,
      "duration": 0.1335,
      "velocity": 86,
      "chip": "ym2612"
    },
    {
      "channel": 0,
      "note": 39,
      "start": 49.6447,
      "duration": 1.1328,
      "velocity": 88,
      "chip": "ym2612"
    },
    {
      "channel": 2,
      "note": 51,
      "start": 49.645,
      "duration": 1.1329,
      "velocity": 88,
      "chip": "ym2612"
    },
    {
      "channel": 3,
      "note": 60,
      "start": 49.6468,
      "duration": 0.1146,
      "velocity": 117,
      "chip": "ym2612"
    },
    {
      "channel": 4,
      "note": 59,
      "start": 49.6485,
      "duration": 0.1131,
      "velocity": 86,
      "chip": "ym2612"
    },
    {
      "channel": 3,
      "note": 60,
      "start": 49.778,
      "duration": 0.1333,
      "velocity": 117,
      "chip": "ym2612"
    },
    {
      "channel": 4,
      "note": 59,
      "start": 49.7782,
      "duration": 0.1333,
      "velocity": 86,
      "chip": "ym2612"
    },
    {
      "channel": 3,
      "note": 60,
      "start": 49.9284,
      "duration": 0.1329,
      "velocity": 117,
      "chip": "ym2612"
    },
    {
      "channel": 4,
      "note": 59,
      "start": 49.93,
      "duration": 0.1148,
      "velocity": 86,
      "chip": "ym2612"
    },
    {
      "channel": 4,
      "note": 59,
      "start": 50.0616,
      "duration": 0.1333,
      "velocity": 86,
      "chip": "ym2612"
    },
    {
      "channel": 3,
      "note": 60,
      "start": 50.078,
      "duration": 0.1166,
      "velocity": 117,
      "chip": "ym2612"
    },
    {
      "channel": 3,
      "note": 60,
      "start": 50.2132,
      "duration": 0.1314,
      "velocity": 117,
      "chip": "ym2612"
    },
    {
      "channel": 4,
      "note": 59,
      "start": 50.2149,
      "duration": 0.13,
      "velocity": 86,
      "chip": "ym2612"
    },
    {
      "channel": 3,
      "note": 60,
      "start": 50.3613,
      "duration": 0.1335,
      "velocity": 117,
      "chip": "ym2612"
    },
    {
      "channel": 4,
      "note": 59,
      "start": 50.3616,
      "duration": 0.1165,
      "velocity": 86,
      "chip": "ym2612"
    },
    {
      "channel": 4,
      "note": 59,
      "start": 50.4966,
      "duration": 0.1316,
      "velocity": 86,
      "chip": "ym2612"
    },
    {
      "channel": 3,
      "note": 60,
      "start": 50.5115,
      "duration": 0.1165,
      "velocity": 117,
      "chip": "ym2612"
    },
    {
      "channel": 3,
      "note": 60,
      "start": 50.6446,
      "duration": 0.1335,
      "velocity": 117,
      "chip": "ym2612"
    },
    {
      "channel": 4,
      "note": 59,
      "start": 50.6449,
      "duration": 0.1335,
      "velocity": 86,
      "chip": "ym2612"
    },
    {
      "channel": 0,
      "note": 37,
      "start": 50.795,
      "duration": 2.2998,
      "velocity": 88,
      "chip": "ym2612"
    },
    {
      "channel": 2,
      "note": 49,
      "start": 50.7968,
      "duration": 2.2998,
      "velocity": 88,
      "chip": "ym2612"
    },
    {
      "channel": 3,
      "note": 60,
      "start": 50.7984,
      "duration": 0.1296,
      "velocity": 117,
      "chip": "ym2612"
    },
    {
      "channel": 4,
      "note": 59,
      "start": 50.8001,
      "duration": 0.1113,
      "velocity": 86,
      "chip": "ym2612"
    },
    {
      "channel": 4,
      "note": 59,
      "start": 50.9283,
      "duration": 0.1332,
      "velocity": 86,
      "chip": "ym2612"
    },
    {
      "channel": 3,
      "note": 60,
      "start": 50.9446,
      "duration": 0.1166,
      "velocity": 117,
      "chip": "ym2612"
    },
    {
      "channel": 3,
      "note": 60,
      "start": 51.0783,
      "duration": 0.1329,
      "velocity": 117,
      "chip": "ym2612"
    },
    {
      "channel": 4,
      "note": 59,
      "start": 51.08,
      "duration": 0.1316,
      "velocity": 86,
      "chip": "ym2612"
    },
    {
      "channel": 3,
      "note": 60,
      "start": 51.228,
      "duration": 0.1335,
      "velocity": 117,
      "chip": "ym2612"
    },
    {
      "channel": 4,
      "note": 59,
      "start": 51.2282,
      "duration": 0.1166,
      "velocity": 86,
      "chip": "ym2612"
    },
    {
      "channel": 4,
      "note": 59,
      "start": 51.3632,
      "duration": 0.1316,
      "velocity": 86,
      "chip": "ym2612"
    },
    {
      "channel": 3,
      "note": 60,
      "start": 51.3796,
      "duration": 0.1149,
      "velocity": 117,
      "chip": "ym2612"
    },
    {
      "channel": 3,
      "note": 60,
      "start": 51.5114,
      "duration": 0.1332,
      "velocity": 117,
      "chip": "ym2612"
    },
    {
      "channel": 4,
      "note": 59,
      "start": 51.5116,
      "duration": 0.1332,
      "velocity": 86,
      "chip": "ym2612"
    },
    {
      "channel": 3,
      "note": 60,
      "start": 51.6616,
      "duration": 0.1329,
      "velocity": 117,
      "chip": "ym2612"
    },
    {
      "channel": 4,
      "note": 59,
      "start": 51.6633,
      "duration": 0.1148,
      "velocity": 86,
      "chip": "ym2612"
    },
    {
      "channel": 4,
      "note": 59,
      "start": 51.7949,
      "duration": 0.1334,
      "velocity": 86,
      "chip": "ym2612"
    },
    {
      "channel": 3,
      "note": 60,
      "start": 51.8113,
      "duration": 0.1168,
      "velocity": 117,
      "chip": "ym2612"
    },
    {
      "channel": 3,
      "note": 60,
      "start": 51.9465,
      "duration": 0.1314,
      "velocity": 117,
      "chip": "ym2612"
    },
    {
      "channel": 4,
      "note": 59,
      "start": 51.9482,
      "duration": 0.13,
      "velocity": 86,
      "chip": "ym2612"
    },
    {
      "channel": 3,
      "note": 60,
      "start": 52.0948,
      "duration": 0.1334,
      "velocity": 117,
      "chip": "ym2612"
    },
    {
      "channel": 4,
      "note": 59,
      "start": 52.095,
      "duration": 0.1164,
      "velocity": 86,
      "chip": "ym2612"
    },
    {
      "channel": 4,
      "note": 59,
      "start": 52.2299,
      "duration": 0.1316,
      "velocity": 86,
      "chip": "ym2612"
    },
    {
      "channel": 3,
      "note": 60,
      "start": 52.2447,
      "duration": 0.1165,
      "velocity": 117,
      "chip": "ym2612"
    },
    {
      "channel": 3,
      "note": 60,
      "start": 52.378,
      "duration": 0.1333,
      "velocity": 117,
      "chip": "ym2612"
    },
    {
      "channel": 4,
      "note": 59,
      "start": 52.3782,
      "duration": 0.1333,
      "velocity": 86,
      "chip": "ym2612"
    },
    {
      "channel": 3,
      "note": 60,
      "start": 52.5299,
      "duration": 0.1147,
      "velocity": 117,
      "chip": "ym2612"
    },
    {
      "channel": 4,
      "note": 59,
      "start": 52.5316,
      "duration": 0.1132,
      "velocity": 86,
      "chip": "ym2612"
    },
    {
      "channel": 3,
      "note": 60,
      "start": 52.6613,
      "duration": 0.1333,
      "velocity": 117,
      "chip": "ym2612"
    },
    {
      "channel": 4,
      "note": 59,
      "start": 52.6616,
      "duration": 0.1333,
      "velocity": 86,
      "chip": "ym2612"
    },
    {
      "channel": 3,
      "note": 60,
      "start": 52.8116,
      "duration": 0.133,
      "velocity": 117,
      "chip": "ym2612"
    },
    {
      "channel": 4,
      "note": 59,
      "start": 52.8133,
      "duration": 0.1316,
      "velocity": 86,
      "chip": "ym2612"
    },
    {
      "channel": 3,
      "note": 60,
      "start": 52.9613,
      "duration": 0.1167,
      "velocity": 117,
      "chip": "ym2612"
    },
    {
      "channel": 4,
      "note": 59,
      "start": 52.9616,
      "duration": 0.1167,
      "velocity": 86,
      "chip": "ym2612"
    },
    {
      "channel": 3,
      "note": 60,
      "start": 53.0983,
      "duration": 0.1296,
      "velocity": 117,
      "chip": "ym2612"
    },
    {
      "channel": 4,
      "note": 59,
      "start": 53.1,
      "duration": 0.1282,
      "velocity": 86,
      "chip": "ym2612"
    },
    {
      "channel": 0,
      "note": 43,
      "start": 53.1109,
      "duration": 2.2833,
      "velocity": 88,
      "chip": "ym2612"
    },
    {
      "channel": 2,
      "note": 55,
      "start": 53.1113,
      "duration": 2.2833,
      "velocity": 88,
      "chip": "ym2612"
    },
    {
      "channel": 3,
      "note": 60,
      "start": 53.2446,
      "duration": 0.1333,
      "velocity": 117,
      "chip": "ym2612"
    },
    {
      "channel": 4,
      "note": 59,
      "start": 53.2449,
      "duration": 0.1333,
      "velocity": 86,
      "chip": "ym2612"
    },
    {
      "channel": 3,
      "note": 60,
      "start": 53.395,
      "duration": 0.1163,
      "velocity": 117,
      "chip": "ym2612"
    },
    {
      "channel": 4,
      "note": 59,
      "start": 53.3966,
      "duration": 0.1149,
      "velocity": 86,
      "chip": "ym2612"
    },
    {
      "channel": 3,
      "note": 60,
      "start": 53.528,
      "duration": 0.1332,
      "velocity": 117,
      "chip": "ym2612"
    },
    {
      "channel": 4,
      "note": 59,
      "start": 53.5283,
      "duration": 0.1332,
      "velocity": 86,
      "chip": "ym2612"
    },
    {
      "channel": 3,
      "note": 60,
      "start": 53.68,
      "duration": 0.1313,
      "velocity": 117,
      "chip": "ym2612"
    },
    {
      "channel": 4,
      "note": 59,
      "start": 53.6817,
      "duration": 0.1298,
      "velocity": 86,
      "chip": "ym2612"
    },
    {
      "channel": 3,
      "note": 60,
      "start": 53.828,
      "duration": 0.1166,
      "velocity": 117,
      "chip": "ym2612"
    },
    {
      "channel": 4,
      "note": 59,
      "start": 53.8282,
      "duration": 0.1166,
      "velocity": 86,
      "chip": "ym2612"
    },
    {
      "channel": 3,
      "note": 60,
      "start": 53.9616,
      "duration": 0.133,
      "velocity": 117,
      "chip": "ym2612"
    },
    {
      "channel": 4,
      "note": 59,
      "start": 53.9633,
      "duration": 0.1316,
      "velocity": 86,
      "chip": "ym2612"
    },
    {
      "channel": 3,
      "note": 60,
      "start": 54.1114,
      "duration": 0.1333,
      "velocity": 117,
      "chip": "ym2612"
    },
    {
      "channel": 4,
      "note": 59,
      "start": 54.1116,
      "duration": 0.1333,
      "velocity": 86,
      "chip": "ym2612"
    },
    {
      "channel": 3,
      "note": 60,
      "start": 54.2632,
      "duration": 0.1147,
      "velocity": 117,
      "chip": "ym2612"
    },
    {
      "channel": 4,
      "note": 59,
      "start": 54.2649,
      "duration": 0.1132,
      "velocity": 86,
      "chip": "ym2612"
    },
    {
      "channel": 3,
      "note": 60,
      "start": 54.3946,
      "duration": 0.1333,
      "velocity": 117,
      "chip": "ym2612"
    },
    {
      "channel": 4,
      "note": 59,
      "start": 54.3949,
      "duration": 0.1333,
      "velocity": 86,
      "chip": "ym2612"
    },
    {
      "channel": 3,
      "note": 60,
      "start": 54.545,
      "duration": 0.1331,
      "velocity": 117,
      "chip": "ym2612"
    },
    {
      "channel": 4,
      "note": 59,
      "start": 54.5466,
      "duration": 0.1148,
      "velocity": 86,
      "chip": "ym2612"
    },
    {
      "channel": 4,
      "note": 59,
      "start": 54.6783,
      "duration": 0.1332,
      "velocity": 86,
      "chip": "ym2612"
    },
    {
      "channel": 3,
      "note": 60,
      "start": 54.6946,
      "duration": 0.1166,
      "velocity": 117,
      "chip": "ym2612"
    },
    {
      "channel": 3,
      "note": 60,
      "start": 54.8299,
      "duration": 0.1314,
      "velocity": 117,
      "chip": "ym2612"
    },
    {
      "channel": 4,
      "note": 59,
      "start": 54.8316,
      "duration": 0.1299,
      "velocity": 86,
      "chip": "ym2612"
    },
    {
      "channel": 3,
      "note": 60,
      "start": 54.978,
      "duration": 0.1335,
      "velocity": 117,
      "chip": "ym2612"
    },
    {
      "channel": 4,
      "note": 59,
      "start": 54.9782,
      "duration": 0.1166,
      "velocity": 86,
      "chip": "ym2612"
    },
    {
      "channel": 4,
      "note": 59,
      "start": 55.1132,
      "duration": 0.1316,
      "velocity": 86,
      "chip": "ym2612"
    },
    {
      "channel": 3,
      "note": 60,
      "start": 55.128,
      "duration": 0.1166,
      "velocity": 117,
      "chip": "ym2612"
    },
    {
      "channel": 3,
      "note": 60,
      "start": 55.2615,
      "duration": 0.1334,
      "velocity": 117,
      "chip": "ym2612"
    },
    {
      "channel": 4,
      "note": 59,
      "start": 55.2617,
      "duration": 0.1333,
      "velocity": 86,
      "chip": "ym2612"
    },
    {
      "channel": 0,
      "note": 43,
      "start": 55.4134,
      "duration": 2.2981,
      "velocity": 88,
      "chip": "ym2612"
    },
    {
      "channel": 2,
      "note": 55,
      "start": 55.4166,
      "duration": 2.2969,
      "velocity": 88,
      "chip": "ym2612"
    },
    {
      "channel": 3,
      "note": 60,
      "start": 55.4183,
      "duration": 0.1263,
      "velocity": 117,
      "chip": "ym2612"
    },
    {
      "channel": 4,
      "note": 59,
      "start": 55.42,
      "duration": 0.1081,
      "velocity": 86,
      "chip": "ym2612"
    },
    {
      "channel": 4,
      "note": 59,
      "start": 55.5449,
      "duration": 0.1333,
      "velocity": 86,
      "chip": "ym2612"
    },
    {
      "channel": 3,
      "note": 60,
      "start": 55.5613,
      "duration": 0.1167,
      "velocity": 117,
      "chip": "ym2612"
    },
    {
      "channel": 3,
      "note": 60,
      "start": 55.695,
      "duration": 0.1329,
      "velocity": 117,
      "chip": "ym2612"
    },
    {
      "channel": 4,
      "note": 59,
      "start": 55.6966,
      "duration": 0.1316,
      "velocity": 86,
      "chip": "ym2612"
    },
    {
      "channel": 3,
      "note": 60,
      "start": 55.8448,
      "duration": 0.1334,
      "velocity": 117,
      "chip": "ym2612"
    },
    {
      "channel": 4,
      "note": 59,
      "start": 55.845,
      "duration": 0.1164,
      "velocity": 86,
      "chip": "ym2612"
    },
    {
      "channel": 4,
      "note": 59,
      "start": 55.9799,
      "duration": 0.1316,
      "velocity": 86,
      "chip": "ym2612"
    },
    {
      "channel": 3,
      "note": 60,
      "start": 55.9963,
      "duration": 0.1149,
      "velocity": 117,
      "chip": "ym2612"
    },
    {
      "channel": 3,
      "note": 60,
      "start": 56.128,
      "duration": 0.1333,
      "velocity": 117,
      "chip": "ym2612"
    },
    {
      "channel": 4,
      "note": 59,
      "start": 56.1282,
      "duration": 0.1333,
      "velocity": 86,
      "chip": "ym2612"
    },
    {
      "channel": 3,
      "note": 60,
      "start": 56.2783,
      "duration": 0.133,
      "velocity": 117,
      "chip": "ym2612"
    },
    {
      "channel": 4,
      "note": 59,
      "start": 56.28,
      "duration": 0.1148,
      "velocity": 86,
      "chip": "ym2612"
    },
    {
      "channel": 4,
      "note": 59,
      "start": 56.4116,
      "duration": 0.1333,
      "velocity": 86,
      "chip": "ym2612"
    },
    {
      "channel": 3,
      "note": 60,
      "start": 56.428,
      "duration": 0.1166,
      "velocity": 117,
      "chip": "ym2612"
    },
    {
      "channel": 3,
      "note": 60,
      "start": 56.5632,
      "duration": 0.1314,
      "velocity": 117,
      "chip": "ym2612"
    },
    {
      "channel": 4,
      "note": 59,
      "start": 56.5649,
      "duration": 0.13,
      "velocity": 86,
      "chip": "ym2612"
    },
    {
      "channel": 3,
      "note": 60,
      "start": 56.7113,
      "duration": 0.1336,
      "velocity": 117,
      "chip": "ym2612"
    },
    {
      "channel": 4,
      "note": 59,
      "start": 56.7116,
      "duration": 0.1166,
      "velocity": 86,
      "chip": "ym2612"
    },
    {
      "channel": 4,
      "note": 59,
      "start": 56.8466,
      "duration": 0.1316,
      "velocity": 86,
      "chip": "ym2612"
    },
    {
      "channel": 3,
      "note": 60,
      "start": 56.8614,
      "duration": 0.1165,
      "velocity": 117,
      "chip": "ym2612"
    },
    {
      "channel": 3,
      "note": 60,
      "start": 56.9946,
      "duration": 0.1333,
      "velocity": 117,
      "chip": "ym2612"
    },
    {
      "channel": 4,
      "note": 59,
      "start": 56.9949,
      "duration": 0.1333,
      "velocity": 86,
      "chip": "ym2612"
    },
    {
      "channel": 3,
      "note": 60,
      "start": 57.1466,
      "duration": 0.1148,
      "velocity": 117,
      "chip": "ym2612"
    },
    {
      "channel": 4,
      "note": 59,
      "start": 57.1483,
      "duration": 0.1133,
      "velocity": 86,
      "chip": "ym2612"
    },
    {
      "channel": 3,
      "note": 60,
      "start": 57.278,
      "duration": 0.1332,
      "velocity": 117,
      "chip": "ym2612"
    },
    {
      "channel": 4,
      "note": 59,
      "start": 57.2783,
      "duration": 0.1332,
      "velocity": 86,
      "chip": "ym2612"
    },
    {
      "channel": 3,
      "note": 60,
      "start": 57.4284,
      "duration": 0.1329,
      "velocity": 117,
      "chip": "ym2612"
    },
    {
      "channel": 4,
      "note": 59,
      "start": 57.4301,
      "duration": 0.1314,
      "velocity": 86,
      "chip": "ym2612"
    },
    {
      "channel": 3,
      "note": 60,
      "start": 57.578,
      "duration": 0.1167,
      "velocity": 117,
      "chip": "ym2612"
    },
    {
      "channel": 4,
      "note": 59,
      "start": 57.5782,
      "duration": 0.1167,
      "velocity": 86,
      "chip": "ym2612"
    },
    {
      "channel": 1,
      "note": 72,
      "start": 57.7132,
      "duration": 2.2979,
      "velocity": 108,
      "chip": "ym2612"
    },
    {
      "channel": 3,
      "note": 60,
      "start": 57.7151,
      "duration": 0.1296,
      "velocity": 117,
      "chip": "ym2612"
    },
    {
      "channel": 4,
      "note": 59,
      "start": 57.7168,
      "duration": 0.128,
      "velocity": 86,
      "chip": "ym2612"
    },
    {
      "channel": 0,
      "note": 36,
      "start": 57.7277,
      "duration": 1.1332,
      "velocity": 88,
      "chip": "ym2612"
    },
    {
      "channel": 2,
      "note": 48,
      "start": 57.728,
      "duration": 1.1332,
      "velocity": 88,
      "chip": "ym2612"
    },
    {
      "channel": 3,
      "note": 60,
      "start": 57.8613,
      "duration": 0.1333,
      "velocity": 117,
      "chip": "ym2612"
    },
    {
      "channel": 4,
      "note": 59,
      "start": 57.8616,
      "duration": 0.1333,
      "velocity": 86,
      "chip": "ym2612"
    },
    {
      "channel": 3,
      "note": 60,
      "start": 58.0116,
      "duration": 0.1163,
      "velocity": 117,
      "chip": "ym2612"
    },
    {
      "channel": 4,
      "note": 59,
      "start": 58.0134,
      "duration": 0.1148,
      "velocity": 86,
      "chip": "ym2612"
    },
    {
      "channel": 3,
      "note": 60,
      "start": 58.1447,
      "duration": 0.1333,
      "velocity": 117,
      "chip": "ym2612"
    },
    {
      "channel": 4,
      "note": 59,
      "start": 58.145,
      "duration": 0.1332,
      "velocity": 86,
      "chip": "ym2612"
    },
    {
      "channel": 3,
      "note": 60,
      "start": 58.2966,
      "duration": 0.1314,
      "velocity": 117,
      "chip": "ym2612"
    },
    {
      "channel": 4,
      "note": 59,
      "start": 58.2983,
      "duration": 0.13,
      "velocity": 86,
      "chip": "ym2612"
    },
    {
      "channel": 3,
      "note": 60,
      "start": 58.4447,
      "duration": 0.1165,
      "velocity": 117,
      "chip": "ym2612"
    },
    {
      "channel": 4,
      "note": 59,
      "start": 58.445,
      "duration": 0.1166,
      "velocity": 86,
      "chip": "ym2612"
    },
    {
      "channel": 3,
      "note": 60,
      "start": 58.5783,
      "duration": 0.1329,
      "velocity": 117,
      "chip": "ym2612"
    },
    {
      "channel": 4,
      "note": 59,
      "start": 58.58,
      "duration": 0.1316,
      "velocity": 86,
      "chip": "ym2612"
    },
    {
      "channel": 3,
      "note": 60,
      "start": 58.728,
      "duration": 0.1334,
      "velocity": 117,
      "chip": "ym2612"
    },
    {
      "channel": 4,
      "note": 59,
      "start": 58.7282,
      "duration": 0.1334,
      "velocity": 86,
      "chip": "ym2612"
    },
    {
      "channel": 0,
      "note": 37,
      "start": 58.878,
      "duration": 1.1328,
      "velocity": 88,
      "chip": "ym2612"
    },
    {
      "channel": 2,
      "note": 49,
      "start": 58.8784,
      "duration": 1.1329,
      "velocity": 88,
      "chip": "ym2612"
    },
    {
      "channel": 3,
      "note": 60,
      "start": 58.8802,
      "duration": 0.1144,
      "velocity": 117,
      "chip": "ym2612"
    },
    {
      "channel": 4,
      "note": 59,
      "start": 58.8818,
      "duration": 0.113,
      "velocity": 86,
      "chip": "ym2612"
    },
    {
      "channel": 3,
      "note": 60,
      "start": 59.0114,
      "duration": 0.1332,
      "velocity": 117,
      "chip": "ym2612"
    },
    {
      "channel": 4,
      "note": 59,
      "start": 59.0116,
      "duration": 0.1332,
      "velocity": 86,
      "chip": "ym2612"
    },
    {
      "channel": 3,
      "note": 60,
      "start": 59.1616,
      "duration": 0.1329,
      "velocity": 117,
      "chip": "ym2612"
    },
    {
      "channel": 4,
      "note": 59,
      "start": 59.1633,
      "duration": 0.1148,
      "velocity": 86,
      "chip": "ym2612"
    },
    {
      "channel": 4,
      "note": 59,
      "start": 59.2949,
      "duration": 0.1334,
      "velocity": 86,
      "chip": "ym2612"
    },
    {
      "channel": 3,
      "note": 60,
      "start": 59.3113,
      "duration": 0.1167,
      "velocity": 117,
      "chip": "ym2612"
    },
    {
      "channel": 3,
      "note": 60,
      "start": 59.4466,
      "duration": 0.1314,
      "velocity": 117,
      "chip": "ym2612"
    },
    {
      "channel": 4,
      "note": 59,
      "start": 59.4483,
      "duration": 0.1299,
      "velocity": 86,
      "chip": "ym2612"
    },
    {
      "channel": 3,
      "note": 60,
      "start": 59.5948,
      "duration": 0.1334,
      "velocity": 117,
      "chip": "ym2612"
    },
    {
      "channel": 4,
      "note": 59,
      "start": 59.595,
      "duration": 0.1164,
      "velocity": 86,
      "chip": "ym2612"
    },
    {
      "channel": 4,
      "note": 59,
      "start": 59.7299,
      "duration": 0.1316,
      "velocity": 86,
      "chip": "ym2612"
    },
    {
      "channel": 3,
      "note": 60,
      "start": 59.7447,
      "duration": 0.1166,
      "velocity": 117,
      "chip": "ym2612"
    },
    {
      "channel": 3,
      "note": 60,
      "start": 59.878,
      "duration": 0.1335,
      "velocity": 117,
      "chip": "ym2612"
    },
    {
      "channel": 4,
      "note": 59,
      "start": 59.8783,
      "duration": 0.1335,
      "velocity": 86,
      "chip": "ym2612"
    },
    {
      "channel": 0,
      "note": 41,
      "start": 60.0282,
      "duration": 2.2998,
      "velocity": 88,
      "chip": "ym2612"
    },
    {
      "channel": 1,
      "note": 84,
      "start": 60.0285,
      "duration": 1.9992,
      "velocity": 108,
      "chip": "ym2612"
    },
    {
      "channel": 2,
      "note": 53,
      "start": 60.0288,
      "duration": 2.2998,
      "velocity": 88,
      "chip": "ym2612"
    },
    {
      "channel": 3,
      "note": 60,
      "start": 60.0304,
      "duration": 0.1309,
      "velocity": 117,
      "chip": "ym2612"
    },
    {
      "channel": 4,
      "note": 59,
      "start": 60.0321,
      "duration": 0.1127,
      "velocity": 86,
      "chip": "ym2612"
    },
    {
      "channel": 4,
      "note": 59,
      "start": 60.1616,
      "duration": 0.1333,
      "velocity": 86,
      "chip": "ym2612"
    },
    {
      "channel": 3,
      "note": 60,
      "start": 60.178,
      "duration": 0.1165,
      "velocity": 117,
      "chip": "ym2612"
    },
    {
      "channel": 3,
      "note": 60,
      "start": 60.3116,
      "duration": 0.133,
      "velocity": 117,
      "chip": "ym2612"
    },
    {
      "channel": 4,
      "note": 59,
      "start": 60.3133,
      "duration": 0.1316,
      "velocity": 86,
      "chip": "ym2612"
    },
    {
      "channel": 3,
      "note": 60,
      "start": 60.4614,
      "duration": 0.1335,
      "velocity": 117,
      "chip": "ym2612"
    },
    {
      "channel": 4,
      "note": 59,
      "start": 60.4616,
      "duration": 0.1165,
      "velocity": 86,
      "chip": "ym2612"
    },
    {
      "channel": 4,
      "note": 59,
      "start": 60.5966,
      "duration": 0.1316,
      "velocity": 86,
      "chip": "ym2612"
    },
    {
      "channel": 3,
      "note": 60,
      "start": 60.613,
      "duration": 0.1149,
      "velocity": 117,
      "chip": "ym2612"
    },
    {
      "channel": 3,
      "note": 60,
      "start": 60.7446,
      "duration": 0.1333,
      "velocity": 117,
      "chip": "ym2612"
    },
    {
      "channel": 4,
      "note": 59,
      "start": 60.7449,
      "duration": 0.1333,
      "velocity": 86,
      "chip": "ym2612"
    },
    {
      "channel": 3,
      "note": 60,
      "start": 60.895,
      "duration": 0.133,
      "velocity": 117,
      "chip": "ym2612"
    },
    {
      "channel": 4,
      "note": 59,
      "start": 60.8966,
      "duration": 0.1149,
      "velocity": 86,
      "chip": "ym2612"
    },
    {
      "channel": 4,
      "note": 59,
      "start": 61.0282,
      "duration": 0.1333,
      "velocity": 86,
      "chip": "ym2612"
    },
    {
      "channel": 3,
      "note": 60,
      "start": 61.0446,
      "duration": 0.1166,
      "velocity": 117,
      "chip": "ym2612"
    },
    {
      "channel": 3,
      "note": 60,
      "start": 61.18,
      "duration": 0.1313,
      "velocity": 117,
      "chip": "ym2612"
    },
    {
      "channel": 4,
      "note": 59,
      "start": 61.1817,
      "duration": 0.1298,
      "velocity": 86,
      "chip": "ym2612"
    },
    {
      "channel": 3,
      "note": 60,
      "start": 61.328,
      "duration": 0.1335,
      "velocity": 117,
      "chip": "ym2612"
    },
    {
      "channel": 4,
      "note": 59,
      "start": 61.3282,
      "duration": 0.1166,
      "velocity": 86,
      "chip": "ym2612"
    },
    {
      "channel": 4,
      "note": 59,
      "start": 61.4632,
      "duration": 0.1317,
      "velocity": 86,
      "chip": "ym2612"
    },
    {
      "channel": 3,
      "note": 60,
      "start": 61.478,
      "duration": 0.1166,
      "velocity": 117,
      "chip": "ym2612"
    },
    {
      "channel": 3,
      "note": 60,
      "start": 61.6114,
      "duration": 0.1332,
      "velocity": 117,
      "chip": "ym2612"
    },
    {
      "channel": 4,
      "note": 59,
      "start": 61.6116,
      "duration": 0.1332,
      "velocity": 86,
      "chip": "ym2612"
    },
    {
      "channel": 3,
      "note": 60,
      "start": 61.7633,
      "duration": 0.1146,
      "velocity": 117,
      "chip": "ym2612"
    },
    {
      "channel": 4,
      "note": 59,
      "start": 61.765,
      "duration": 0.1132,
      "velocity": 86,
      "chip": "ym2612"
    },
    {
      "channel": 3,
      "note": 60,
      "start": 61.8946,
      "duration": 0.1333,
      "velocity": 117,
      "chip": "ym2612"
    },
    {
      "channel": 4,
      "note": 59,
      "start": 61.8949,
      "duration": 0.1333,
      "velocity": 86,
      "chip": "ym2612"
    },
    {
      "channel": 1,
      "note": 84,
      "start": 62.0447,
      "duration": 0.2663,
      "velocity": 108,
      "chip": "ym2612"
    },
    {
      "channel": 3,
      "note": 60,
      "start": 62.0451,
      "duration": 0.1329,
      "velocity": 117,
      "chip": "ym2612"
    },
    {
      "channel": 4,
      "note": 59,
      "start": 62.0468,
      "duration": 0.1314,
      "velocity": 86,
      "chip": "ym2612"
    },
    {
      "channel": 3,
      "note": 60,
      "start": 62.1946,
      "duration": 0.1167,
      "velocity": 117,
      "chip": "ym2612"
    },
    {
      "channel": 4,
      "note": 59,
      "start": 62.1949,
      "duration": 0.1167,
      "velocity": 86,
      "chip": "ym2612"
    },
    {
      "channel": 1,
      "note": 85,
      "start": 62.3283,
      "duration": 2.2994,
      "velocity": 108,
      "chip": "ym2612"
    },
    {
      "channel": 3,
      "note": 60,
      "start": 62.3302,
      "duration": 0.131,
      "velocity": 117,
      "chip": "ym2612"
    },
    {
      "channel": 4,
      "note": 59,
      "start": 62.3319,
      "duration": 0.1296,
      "velocity": 86,
      "chip": "ym2612"
    },
    {
      "channel": 0,
      "note": 36,
      "start": 62.3443,
      "duration": 1.1332,
      "velocity": 88,
      "chip": "ym2612"
    },
    {
      "channel": 2,
      "note": 48,
      "start": 62.3449,
      "duration": 1.133,
      "velocity": 88,
      "chip": "ym2612"
    },
    {
      "channel": 3,
      "note": 60,
      "start": 62.478,
      "duration": 0.1333,
      "velocity": 117,
      "chip": "ym2612"
    },
    {
      "channel": 4,
      "note": 59,
      "start": 62.4782,
      "duration": 0.1333,
      "velocity": 86,
      "chip": "ym2612"
    },
    {
      "channel": 3,
      "note": 60,
      "start": 62.6283,
      "duration": 0.1163,
      "velocity": 117,
      "chip": "ym2612"
    },
    {
      "channel": 4,
      "note": 59,
      "start": 62.63,
      "duration": 0.1149,
      "velocity": 86,
      "chip": "ym2612"
    },
    {
      "channel": 3,
      "note": 60,
      "start": 62.7615,
      "duration": 0.1331,
      "velocity": 117,
      "chip": "ym2612"
    },
    {
      "channel": 4,
      "note": 59,
      "start": 62.7617,
      "duration": 0.1332,
      "velocity": 86,
      "chip": "ym2612"
    },
    {
      "channel": 3,
      "note": 60,
      "start": 62.9132,
      "duration": 0.1314,
      "velocity": 117,
      "chip": "ym2612"
    },
    {
      "channel": 4,
      "note": 59,
      "start": 62.9149,
      "duration": 0.1299,
      "velocity": 86,
      "chip": "ym2612"
    },
    {
      "channel": 3,
      "note": 60,
      "start": 63.0613,
      "duration": 0.1167,
      "velocity": 117,
      "chip": "ym2612"
    },
    {
      "channel": 4,
      "note": 59,
      "start": 63.0616,
      "duration": 0.1167,
      "velocity": 86,
      "chip": "ym2612"
    },
    {
      "channel": 3,
      "note": 60,
      "start": 63.195,
      "duration": 0.1329,
      "velocity": 117,
      "chip": "ym2612"
    },
    {
      "channel": 4,
      "note": 59,
      "start": 63.1966,
      "duration": 0.1316,
      "velocity": 86,
      "chip": "ym2612"
    },
    {
      "channel": 3,
      "note": 60,
      "start": 63.3447,
      "duration": 0.1333,
      "velocity": 117,
      "chip": "ym2612"
    },
    {
      "channel": 4,
      "note": 59,
      "start": 63.345,
      "duration": 0.1333,
      "velocity": 86,
      "chip": "ym2612"
    },
    {
      "channel": 0,
      "note": 37,
      "start": 63.4947,
      "duration": 1.1328,
      "velocity": 88,
      "chip": "ym2612"
    },
    {
      "channel": 2,
      "note": 49,
      "start": 63.4951,
      "duration": 1.1328,
      "velocity": 88,
      "chip": "ym2612"
    },
    {
      "channel": 3,
      "note": 60,
      "start": 63.4968,
      "duration": 0.1144,
      "velocity": 117,
      "chip": "ym2612"
    },
    {
      "channel": 4,
      "note": 59,
      "start": 63.4985,
      "duration": 0.113,
      "velocity": 86,
      "chip": "ym2612"
    },
    {
      "channel": 3,
      "note": 60,
      "start": 63.628,
      "duration": 0.1334,
      "velocity": 117,
      "chip": "ym2612"
    },
    {
      "channel": 4,
      "note": 59,
      "start": 63.6282,
      "duration": 0.1333,
      "velocity": 86,
      "chip": "ym2612"
    },
    {
      "channel": 3,
      "note": 60,
      "start": 63.7783,
      "duration": 0.133,
      "velocity": 117,
      "chip": "ym2612"
    },
    {
      "channel": 4,
      "note": 59,
      "start": 63.78,
      "duration": 0.1148,
      "velocity": 86,
      "chip": "ym2612"
    },
    {
      "channel": 4,
      "note": 59,
      "start": 63.9116,
      "duration": 0.1333,
      "velocity": 86,
      "chip": "ym2612"
    },
    {
      "channel": 3,
      "note": 60,
      "start": 63.928,
      "duration": 0.1165,
      "velocity": 117,
      "chip": "ym2612"
    },
    {
      "channel": 3,
      "note": 60,
      "start": 64.0632,
      "duration": 0.1314,
      "velocity": 117,
      "chip": "ym2612"
    },
    {
      "channel": 4,
      "note": 59,
      "start": 64.0649,
      "duration": 0.1299,
      "velocity": 86,
      "chip": "ym2612"
    },
    {
      "channel": 3,
      "note": 60,
      "start": 64.2114,
      "duration": 0.1335,
      "velocity": 117,
      "chip": "ym2612"
    },
    {
      "channel": 4,
      "note": 59,
      "start": 64.2116,
      "duration": 0.1164,
      "velocity": 86,
      "chip": "ym2612"
    },
    {
      "channel": 4,
      "note": 59,
      "start": 64.3466,
      "duration": 0.1316,
      "velocity": 86,
      "chip": "ym2612"
    },
    {
      "channel": 3,
      "note": 60,
      "start": 64.3614,
      "duration": 0.1165,
      "velocity": 117,
      "chip": "ym2612"
    },
    {
      "channel": 3,
      "note": 60,
      "start": 64.4946,
      "duration": 0.1335,
      "velocity": 117,
      "chip": "ym2612"
    },
    {
      "channel": 4,
      "note": 59,
      "start": 64.4949,
      "duration": 0.1335,
      "velocity": 86,
      "chip": "ym2612"
    },
    {
      "channel": 0,
      "note": 41,
      "start": 64.6449,
      "duration": 2.2999,
      "velocity": 88,
      "chip": "ym2612"
    },
    {
      "channel": 1,
      "note": 84,
      "start": 64.6452,
      "duration": 1.9992,
      "velocity": 108,
      "chip": "ym2612"
    },
    {
      "channel": 2,
      "note": 53,
      "start": 64.6454,
      "duration": 2.2998,
      "velocity": 88,
      "chip": "ym2612"
    },
    {
      "channel": 3,
      "note": 60,
      "start": 64.6471,
      "duration": 0.1309,
      "velocity": 117,
      "chip": "ym2612"
    },
    {
      "channel": 4,
      "note": 59,
      "start": 64.6488,
      "duration": 0.1127,
      "velocity": 86,
      "chip": "ym2612"
    },
    {
      "channel": 4,
      "note": 59,
      "start": 64.7782,
      "duration": 0.1333,
      "velocity": 86,
      "chip": "ym2612"
    },
    {
      "channel": 3,
      "note": 60,
      "start": 64.7946,
      "duration": 0.1166,
      "velocity": 117,
      "chip": "ym2612"
    },
    {
      "channel": 3,
      "note": 60,
      "start": 64.9284,
      "duration": 0.1329,
      "velocity": 117,
      "chip": "ym2612"
    },
    {
      "channel": 4,
      "note": 59,
      "start": 64.93,
      "duration": 0.1315,
      "velocity": 86,
      "chip": "ym2612"
    },
    {
      "channel": 3,
      "note": 60,
      "start": 65.078,
      "duration": 0.1335,
      "velocity": 117,
      "chip": "ym2612"
    },
    {
      "channel": 4,
      "note": 59,
      "start": 65.0782,
      "duration": 0.1166,
      "velocity": 86,
      "chip": "ym2612"
    },
    {
      "channel": 4,
      "note": 59,
      "start": 65.2132,
      "duration": 0.1317,
      "velocity": 86,
      "chip": "ym2612"
    },
    {
      "channel": 3,
      "note": 60,
      "start": 65.2296,
      "duration": 0.1151,
      "velocity": 117,
      "chip": "ym2612"
    },
    {
      "channel": 3,
      "note": 60,
      "start": 65.3613,
      "duration": 0.1333,
      "velocity": 117,
      "chip": "ym2612"
    },
    {
      "channel": 4,
      "note": 59,
      "start": 65.3616,
      "duration": 0.1333,
      "velocity": 86,
      "chip": "ym2612"
    },
    {
      "channel": 3,
      "note": 60,
      "start": 65.5117,
      "duration": 0.1329,
      "velocity": 117,
      "chip": "ym2612"
    },
    {
      "channel": 4,
      "note": 59,
      "start": 65.5134,
      "duration": 0.1147,
      "velocity": 86,
      "chip": "ym2612"
    },
    {
      "channel": 4,
      "note": 59,
      "start": 65.6449,
      "duration": 0.1333,
      "velocity": 86,
      "chip": "ym2612"
    },
    {
      "channel": 3,
      "note": 60,
      "start": 65.6613,
      "duration": 0.1166,
      "velocity": 117,
      "chip": "ym2612"
    },
    {
      "channel": 3,
      "note": 60,
      "start": 65.7966,
      "duration": 0.1314,
      "velocity": 117,
      "chip": "ym2612"
    },
    {
      "channel": 4,
      "note": 59,
      "start": 65.7983,
      "duration": 0.13,
      "velocity": 86,
      "chip": "ym2612"
    },
    {
      "channel": 3,
      "note": 60,
      "start": 65.9447,
      "duration": 0.1335,
      "velocity": 117,
      "chip": "ym2612"
    },
    {
      "channel": 4,
      "note": 59,
      "start": 65.945,
      "duration": 0.1165,
      "velocity": 86,
      "chip": "ym2612"
    },
    {
      "channel": 4,
      "note": 59,
      "start": 66.0799,
      "duration": 0.1316,
      "velocity": 86,
      "chip": "ym2612"
    },
    {
      "channel": 3,
      "note": 60,
      "start": 66.0948,
      "duration": 0.1165,
      "velocity": 117,
      "chip": "ym2612"
    },
    {
      "channel": 3,
      "note": 60,
      "start": 66.228,
      "duration": 0.1333,
      "velocity": 117,
      "chip": "ym2612"
    },
    {
      "channel": 4,
      "note": 59,
      "start": 66.2283,
      "duration": 0.1332,
      "velocity": 86,
      "chip": "ym2612"
    },
    {
      "channel": 3,
      "note": 60,
      "start": 66.3799,
      "duration": 0.1147,
      "velocity": 117,
      "chip": "ym2612"
    },
    {
      "channel": 4,
      "note": 59,
      "start": 66.3816,
      "duration": 0.1132,
      "velocity": 86,
      "chip": "ym2612"
    },
    {
      "channel": 3,
      "note": 60,
      "start": 66.5114,
      "duration": 0.1333,
      "velocity": 117,
      "chip": "ym2612"
    },
    {
      "channel": 4,
      "note": 59,
      "start": 66.5116,
      "duration": 0.1333,
      "velocity": 86,
      "chip": "ym2612"
    },
    {
      "channel": 1,
      "note": 84,
      "start": 66.6614,
      "duration": 0.2663,
      "velocity": 108,
      "chip": "ym2612"
    },
    {
      "channel": 3,
      "note": 60,
      "start": 66.6618,
      "duration": 0.1328,
      "velocity": 117,
      "chip": "ym2612"
    },
    {
      "channel": 4,
      "note": 59,
      "start": 66.6635,
      "duration": 0.1314,
      "velocity": 86,
      "chip": "ym2612"
    },
    {
      "channel": 3,
      "note": 60,
      "start": 66.8113,
      "duration": 0.1167,
      "velocity": 117,
      "chip": "ym2612"
    },
    {
      "channel": 4,
      "note": 59,
      "start": 66.8116,
      "duration": 0.1167,
      "velocity": 86,
      "chip": "ym2612"
    },
    {
      "channel": 1,
      "note": 85,
      "start": 66.945,
      "duration": 2.2994,
      "velocity": 108,
      "chip": "ym2612"
    },
    {
      "channel": 3,
      "note": 60,
      "start": 66.9469,
      "duration": 0.131,
      "velocity": 117,
      "chip": "ym2612"
    },
    {
      "channel": 4,
      "note": 59,
      "start": 66.9486,
      "duration": 0.1296,
      "velocity": 86,
      "chip": "ym2612"
    },
    {
      "channel": 0,
      "note": 36,
      "start": 66.961,
      "duration": 1.1332,
      "velocity": 88,
      "chip": "ym2612"
    },
    {
      "channel": 2,
      "note": 48,
      "start": 66.9614,
      "duration": 1.1332,
      "velocity": 88,
      "chip": "ym2612"
    },
    {
      "channel": 3,
      "note": 60,
      "start": 67.0948,
      "duration": 0.1331,
      "velocity": 117,
      "chip": "ym2612"
    },
    {
      "channel": 4,
      "note": 59,
      "start": 67.095,
      "duration": 0.1332,
      "velocity": 86,
      "chip": "ym2612"
    },
    {
      "channel": 3,
      "note": 60,
      "start": 67.245,
      "duration": 0.1163,
      "velocity": 117,
      "chip": "ym2612"
    },
    {
      "channel": 4,
      "note": 59,
      "start": 67.2466,
      "duration": 0.1149,
      "velocity": 86,
      "chip": "ym2612"
    },
    {
      "channel": 3,
      "note": 60,
      "start": 67.378,
      "duration": 0.1333,
      "velocity": 117,
      "chip": "ym2612"
    },
    {
      "channel": 4,
      "note": 59,
      "start": 67.3783,
      "duration": 0.1333,
      "velocity": 86,
      "chip": "ym2612"
    },
    {
      "channel": 3,
      "note": 60,
      "start": 67.5299,
      "duration": 0.1314,
      "velocity": 117,
      "chip": "ym2612"
    },
    {
      "channel": 4,
      "note": 59,
      "start": 67.5316,
      "duration": 0.1299,
      "velocity": 86,
      "chip": "ym2612"
    },
    {
      "channel": 3,
      "note": 60,
      "start": 67.678,
      "duration": 0.1165,
      "velocity": 117,
      "chip": "ym2612"
    },
    {
      "channel": 4,
      "note": 59,
      "start": 67.6783,
      "duration": 0.1166,
      "velocity": 86,
      "chip": "ym2612"
    },
    {
      "channel": 3,
      "note": 60,
      "start": 67.8116,
      "duration": 0.1329,
      "velocity": 117,
      "chip": "ym2612"
    },
    {
      "channel": 4,
      "note": 59,
      "start": 67.8133,
      "duration": 0.1316,
      "velocity": 86,
      "chip": "ym2612"
    },
    {
      "channel": 3,
      "note": 60,
      "start": 67.9613,
      "duration": 0.1335,
      "velocity": 117,
      "chip": "ym2612"
    },
    {
      "channel": 4,
      "note": 59,
      "start": 67.9616,
      "duration": 0.1335,
      "velocity": 86,
      "chip": "ym2612"
    },
    {
      "channel": 0,
      "note": 39,
      "start": 68.1114,
      "duration": 1.1328,
      "velocity": 88,
      "chip": "ym2612"
    },
    {
      "channel": 2,
      "note": 51,
      "start": 68.1118,
      "duration": 1.1328,
      "velocity": 88,
      "chip": "ym2612"
    },
    {
      "channel": 3,
      "note": 60,
      "start": 68.1135,
      "duration": 0.1144,
      "velocity": 117,
      "chip": "ym2612"
    },
    {
      "channel": 4,
      "note": 59,
      "start": 68.1152,
      "duration": 0.113,
      "velocity": 86,
      "chip": "ym2612"
    },
    {
      "channel": 3,
      "note": 60,
      "start": 68.2446,
      "duration": 0.1333,
      "velocity": 117,
      "chip": "ym2612"
    },
    {
      "channel": 4,
      "note": 59,
      "start": 68.2449,
      "duration": 0.1333,
      "velocity": 86,
      "chip": "ym2612"
    },
    {
      "channel": 3,
      "note": 60,
      "start": 68.395,
      "duration": 0.133,
      "velocity": 117,
      "chip": "ym2612"
    },
    {
      "channel": 4,
      "note": 59,
      "start": 68.3966,
      "duration": 0.1148,
      "velocity": 86,
      "chip": "ym2612"
    },
    {
      "channel": 4,
      "note": 59,
      "start": 68.5282,
      "duration": 0.1333,
      "velocity": 86,
      "chip": "ym2612"
    },
    {
      "channel": 3,
      "note": 60,
      "start": 68.5446,
      "duration": 0.1166,
      "velocity": 117,
      "chip": "ym2612"
    },
    {
      "channel": 3,
      "note": 60,
      "start": 68.68,
      "duration": 0.1313,
      "velocity": 117,
      "chip": "ym2612"
    },
    {
      "channel": 4,
      "note": 59,
      "start": 68.6817,
      "duration": 0.1298,
      "velocity": 86,
      "chip": "ym2612"
    },
    {
      "channel": 3,
      "note": 60,
      "start": 68.828,
      "duration": 0.1335,
      "velocity": 117,
      "chip": "ym2612"
    },
    {
      "channel": 4,
      "note": 59,
      "start": 68.8282,
      "duration": 0.1166,
      "velocity": 86,
      "chip": "ym2612"
    },
    {
      "channel": 4,
      "note": 59,
      "start": 68.9632,
      "duration": 0.1317,
      "velocity": 86,
      "chip": "ym2612"
    },
    {
      "channel": 3,
      "note": 60,
      "start": 68.978,
      "duration": 0.1166,
      "velocity": 117,
      "chip": "ym2612"
    },
    {
      "channel": 3,
      "note": 60,
      "start": 69.1114,
      "duration": 0.1335,
      "velocity": 117,
      "chip": "ym2612"
    },
    {
      "channel": 4,
      "note": 59,
      "start": 69.1116,
      "duration": 0.1334,
      "velocity": 86,
      "chip": "ym2612"
    },
    {
      "channel": 0,
      "note": 37,
      "start": 69.2616,
      "duration": 2.2998,
      "velocity": 88,
      "chip": "ym2612"
    },
    {
      "channel": 1,
      "note": 84,
      "start": 69.2619,
      "duration": 1.9992,
      "velocity": 108,
      "chip": "ym2612"
    },
    {
      "channel": 2,
      "note": 49,
      "start": 69.2622,
      "duration": 2.2997,
      "velocity": 88,
      "chip": "ym2612"
    },
    {
      "channel": 3,
      "note": 60,
      "start": 69.2639,
      "duration": 0.1308,
      "velocity": 117,
      "chip": "ym2612"
    },
    {
      "channel": 4,
      "note": 59,
      "start": 69.2655,
      "duration": 0.1126,
      "velocity": 86,
      "chip": "ym2612"
    },
    {
      "channel": 4,
      "note": 59,
      "start": 69.3949,
      "duration": 0.1333,
      "velocity": 86,
      "chip": "ym2612"
    },
    {
      "channel": 3,
      "note": 60,
      "start": 69.4113,
      "duration": 0.1167,
      "velocity": 117,
      "chip": "ym2612"
    },
    {
      "channel": 3,
      "note": 60,
      "start": 69.5449,
      "duration": 0.1331,
      "velocity": 117,
      "chip": "ym2612"
    },
    {
      "channel": 4,
      "note": 59,
      "start": 69.5466,
      "duration": 0.1316,
      "velocity": 86,
      "chip": "ym2612"
    },
    {
      "channel": 3,
      "note": 60,
      "start": 69.6947,
      "duration": 0.1335,
      "velocity": 117,
      "chip": "ym2612"
    },
    {
      "channel": 4,
      "note": 59,
      "start": 69.695,
      "duration": 0.1165,
      "velocity": 86,
      "chip": "ym2612"
    },
    {
      "channel": 4,
      "note": 59,
      "start": 69.8299,
      "duration": 0.1316,
      "velocity": 86,
      "chip": "ym2612"
    },
    {
      "channel": 3,
      "note": 60,
      "start": 69.8464,
      "duration": 0.1148,
      "velocity": 117,
      "chip": "ym2612"
    },
    {
      "channel": 3,
      "note": 60,
      "start": 69.978,
      "duration": 0.1333,
      "velocity": 117,
      "chip": "ym2612"
    },
    {
      "channel": 4,
      "note": 59,
      "start": 69.9782,
      "duration": 0.1333,
      "velocity": 86,
      "chip": "ym2612"
    },
    {
      "channel": 3,
      "note": 60,
      "start": 70.1283,
      "duration": 0.1331,
      "velocity": 117,
      "chip": "ym2612"
    },
    {
      "channel": 4,
      "note": 59,
      "start": 70.13,
      "duration": 0.1148,
      "velocity": 86,
      "chip": "ym2612"
    },
    {
      "channel": 4,
      "note": 59,
      "start": 70.2616,
      "duration": 0.1332,
      "velocity": 86,
      "chip": "ym2612"
    },
    {
      "channel": 3,
      "note": 60,
      "start": 70.278,
      "duration": 0.1166,
      "velocity": 117,
      "chip": "ym2612"
    },
    {
      "channel": 3,
      "note": 60,
      "start": 70.4132,
      "duration": 0.1314,
      "velocity": 117,
      "chip": "ym2612"
    },
    {
      "channel": 4,
      "note": 59,
      "start": 70.4149,
      "duration": 0.1299,
      "velocity": 86,
      "chip": "ym2612"
    },
    {
      "channel": 3,
      "note": 60,
      "start": 70.5613,
      "duration": 0.1335,
      "velocity": 117,
      "chip": "ym2612"
    },
    {
      "channel": 4,
      "note": 59,
      "start": 70.5616,
      "duration": 0.1166,
      "velocity": 86,
      "chip": "ym2612"
    },
    {
      "channel": 4,
      "note": 59,
      "start": 70.6966,
      "duration": 0.1316,
      "velocity": 86,
      "chip": "ym2612"
    },
    {
      "channel": 3,
      "note": 60,
      "start": 70.7114,
      "duration": 0.1165,
      "velocity": 117,
      "chip": "ym2612"
    },
    {
      "channel": 3,
      "note": 60,
      "start": 70.8448,
      "duration": 0.1331,
      "velocity": 117,
      "chip": "ym2612"
    },
    {
      "channel": 4,
      "note": 59,
      "start": 70.845,
      "duration": 0.1332,
      "velocity": 86,
      "chip": "ym2612"
    },
    {
      "channel": 3,
      "note": 60,
      "start": 70.9966,
      "duration": 0.1147,
      "velocity": 117,
      "chip": "ym2612"
    },
    {
      "channel": 4,
      "note": 59,
      "start": 70.9983,
      "duration": 0.1132,
      "velocity": 86,
      "chip": "ym2612"
    },
    {
      "channel": 3,
      "note": 60,
      "start": 71.128,
      "duration": 0.1334,
      "velocity": 117,
      "chip": "ym2612"
    },
    {
      "channel": 4,
      "note": 59,
      "start": 71.1282,
      "duration": 0.1334,
      "velocity": 86,
      "chip": "ym2612"
    },
    {
      "channel": 1,
      "note": 84,
      "start": 71.278,
      "duration": 0.2663,
      "velocity": 108,
      "chip": "ym2612"
    },
    {
      "channel": 3,
      "note": 60,
      "start": 71.2784,
      "duration": 0.1328,
      "velocity": 117,
      "chip": "ym2612"
    },
    {
      "channel": 4,
      "note": 59,
      "start": 71.2802,
      "duration": 0.1314,
      "velocity": 86,
      "chip": "ym2612"
    },
    {
      "channel": 3,
      "note": 60,
      "start": 71.428,
      "duration": 0.1166,
      "velocity": 117,
      "chip": "ym2612"
    },
    {
      "channel": 4,
      "note": 59,
      "start": 71.4283,
      "duration": 0.1166,
      "velocity": 86,
      "chip": "ym2612"
    },
    {
      "channel": 1,
      "note": 85,
      "start": 71.5616,
      "duration": 2.2994,
      "velocity": 108,
      "chip": "ym2612"
    },
    {
      "channel": 3,
      "note": 60,
      "start": 71.5635,
      "duration": 0.131,
      "velocity": 117,
      "chip": "ym2612"
    },
    {
      "channel": 4,
      "note": 59,
      "start": 71.5652,
      "duration": 0.1297,
      "velocity": 86,
      "chip": "ym2612"
    },
    {
      "channel": 0,
      "note": 43,
      "start": 71.5776,
      "duration": 2.2833,
      "velocity": 88,
      "chip": "ym2612"
    },
    {
      "channel": 2,
      "note": 55,
      "start": 71.578,
      "duration": 2.2833,
      "velocity": 88,
      "chip": "ym2612"
    },
    {
      "channel": 3,
      "note": 60,
      "start": 71.7113,
      "duration": 0.1333,
      "velocity": 117,
      "chip": "ym2612"
    },
    {
      "channel": 4,
      "note": 59,
      "start": 71.7116,
      "duration": 0.1333,
      "velocity": 86,
      "chip": "ym2612"
    },
    {
      "channel": 3,
      "note": 60,
      "start": 71.8616,
      "duration": 0.1163,
      "velocity": 117,
      "chip": "ym2612"
    },
    {
      "channel": 4,
      "note": 59,
      "start": 71.8633,
      "duration": 0.1149,
      "velocity": 86,
      "chip": "ym2612"
    },
    {
      "channel": 3,
      "note": 60,
      "start": 71.9946,
      "duration": 0.1333,
      "velocity": 117,
      "chip": "ym2612"
    },
    {
      "channel": 4,
      "note": 59,
      "start": 71.9949,
      "duration": 0.1333,
      "velocity": 86,
      "chip": "ym2612"
    },
    {
      "channel": 3,
      "note": 60,
      "start": 72.1466,
      "duration": 0.1314,
      "velocity": 117,
      "chip": "ym2612"
    },
    {
      "channel": 4,
      "note": 59,
      "start": 72.1483,
      "duration": 0.1299,
      "velocity": 86,
      "chip": "ym2612"
    },
    {
      "channel": 3,
      "note": 60,
      "start": 72.2946,
      "duration": 0.1166,
      "velocity": 117,
      "chip": "ym2612"
    },
    {
      "channel": 4,
      "note": 59,
      "start": 72.2949,
      "duration": 0.1166,
      "velocity": 86,
      "chip": "ym2612"
    },
    {
      "channel": 3,
      "note": 60,
      "start": 72.4284,
      "duration": 0.1329,
      "velocity": 117,
      "chip": "ym2612"
    },
    {
      "channel": 4,
      "note": 59,
      "start": 72.4301,
      "duration": 0.1314,
      "velocity": 86,
      "chip": "ym2612"
    },
    {
      "channel": 3,
      "note": 60,
      "start": 72.578,
      "duration": 0.1333,
      "velocity": 117,
      "chip": "ym2612"
    },
    {
      "channel": 4,
      "note": 59,
      "start": 72.5782,
      "duration": 0.1333,
      "velocity": 86,
      "chip": "ym2612"
    },
    {
      "channel": 3,
      "note": 60,
      "start": 72.7299,
      "duration": 0.1148,
      "velocity": 117,
      "chip": "ym2612"
    },
    {
      "channel": 4,
      "note": 59,
      "start": 72.7316,
      "duration": 0.1133,
      "velocity": 86,
      "chip": "ym2612"
    },
    {
      "channel": 3,
      "note": 60,
      "start": 72.8614,
      "duration": 0.1332,
      "velocity": 117,
      "chip": "ym2612"
    },
    {
      "channel": 4,
      "note": 59,
      "start": 72.8616,
      "duration": 0.1332,
      "velocity": 86,
      "chip": "ym2612"
    },
    {
      "channel": 3,
      "note": 60,
      "start": 73.0117,
      "duration": 0.1329,
      "velocity": 117,
      "chip": "ym2612"
    },
    {
      "channel": 4,
      "note": 59,
      "start": 73.0134,
      "duration": 0.1148,
      "velocity": 86,
      "chip": "ym2612"
    },
    {
      "channel": 4,
      "note": 59,
      "start": 73.1449,
      "duration": 0.1333,
      "velocity": 86,
      "chip": "ym2612"
    },
    {
      "channel": 3,
      "note": 60,
      "start": 73.1613,
      "duration": 0.1167,
      "velocity": 117,
      "chip": "ym2612"
    },
    {
      "channel": 3,
      "note": 60,
      "start": 73.2966,
      "duration": 0.1315,
      "velocity": 117,
      "chip": "ym2612"
    },
    {
      "channel": 4,
      "note": 59,
      "start": 73.2983,
      "duration": 0.13,
      "velocity": 86,
      "chip": "ym2612"
    },
    {
      "channel": 3,
      "note": 60,
      "start": 73.4446,
      "duration": 0.1335,
      "velocity": 117,
      "chip": "ym2612"
    },
    {
      "channel": 4,
      "note": 59,
      "start": 73.4449,
      "duration": 0.1166,
      "velocity": 86,
      "chip": "ym2612"
    },
    {
      "channel": 4,
      "note": 59,
      "start": 73.5799,
      "duration": 0.1316,
      "velocity": 86,
      "chip": "ym2612"
    },
    {
      "channel": 3,
      "note": 60,
      "start": 73.5948,
      "duration": 0.1165,
      "velocity": 117,
      "chip": "ym2612"
    },
    {
      "channel": 3,
      "note": 60,
      "start": 73.728,
      "duration": 0.1335,
      "velocity": 117,
      "chip": "ym2612"
    },
    {
      "channel": 4,
      "note": 59,
      "start": 73.7282,
      "duration": 0.1335,
      "velocity": 86,
      "chip": "ym2612"
    },
    {
      "channel": 0,
      "note": 43,
      "start": 73.88,
      "duration": 2.2981,
      "velocity": 88,
      "chip": "ym2612"
    },
    {
      "channel": 1,
      "note": 79,
      "start": 73.8803,
      "duration": 1.1308,
      "velocity": 108,
      "chip": "ym2612"
    },
    {
      "channel": 2,
      "note": 55,
      "start": 73.882,
      "duration": 2.2966,
      "velocity": 88,
      "chip": "ym2612"
    },
    {
      "channel": 3,
      "note": 60,
      "start": 73.8837,
      "duration": 0.1277,
      "velocity": 117,
      "chip": "ym2612"
    },
    {
      "channel": 4,
      "note": 59,
      "start": 73.8854,
      "duration": 0.1094,
      "velocity": 86,
      "chip": "ym2612"
    },
    {
      "channel": 4,
      "note": 59,
      "start": 74.0116,
      "duration": 0.1333,
      "velocity": 86,
      "chip": "ym2612"
    },
    {
      "channel": 3,
      "note": 60,
      "start": 74.028,
      "duration": 0.1166,
      "velocity": 117,
      "chip": "ym2612"
    },
    {
      "channel": 3,
      "note": 60,
      "start": 74.1616,
      "duration": 0.1329,
      "velocity": 117,
      "chip": "ym2612"
    },
    {
      "channel": 4,
      "note": 59,
      "start": 74.1633,
      "duration": 0.1316,
      "velocity": 86,
      "chip": "ym2612"
    },
    {
      "channel": 3,
      "note": 60,
      "start": 74.3113,
      "duration": 0.1335,
      "velocity": 117,
      "chip": "ym2612"
    },
    {
      "channel": 4,
      "note": 59,
      "start": 74.3116,
      "duration": 0.1166,
      "velocity": 86,
      "chip": "ym2612"
    },
    {
      "channel": 4,
      "note": 59,
      "start": 74.4466,
      "duration": 0.1316,
      "velocity": 86,
      "chip": "ym2612"
    },
    {
      "channel": 3,
      "note": 60,
      "start": 74.463,
      "duration": 0.1149,
      "velocity": 117,
      "chip": "ym2612"
    },
    {
      "channel": 3,
      "note": 60,
      "start": 74.5948,
      "duration": 0.1331,
      "velocity": 117,
      "chip": "ym2612"
    },
    {
      "channel": 4,
      "note": 59,
      "start": 74.595,
      "duration": 0.1332,
      "velocity": 86,
      "chip": "ym2612"
    },
    {
      "channel": 3,
      "note": 60,
      "start": 74.745,
      "duration": 0.133,
      "velocity": 117,
      "chip": "ym2612"
    },
    {
      "channel": 4,
      "note": 59,
      "start": 74.7466,
      "duration": 0.1148,
      "velocity": 86,
      "chip": "ym2612"
    },
    {
      "channel": 4,
      "note": 59,
      "start": 74.8782,
      "duration": 0.1334,
      "velocity": 86,
      "chip": "ym2612"
    },
    {
      "channel": 3,
      "note": 60,
      "start": 74.8946,
      "duration": 0.1167,
      "velocity": 117,
      "chip": "ym2612"
    },
    {
      "channel": 3,
      "note": 60,
      "start": 75.0299,
      "duration": 0.1314,
      "velocity": 117,
      "chip": "ym2612"
    },
    {
      "channel": 4,
      "note": 59,
      "start": 75.0316,
      "duration": 0.1299,
      "velocity": 86,
      "chip": "ym2612"
    },
    {
      "channel": 3,
      "note": 60,
      "start": 75.178,
      "duration": 0.1336,
      "velocity": 117,
      "chip": "ym2612"
    },
    {
      "channel": 4,
      "note": 59,
      "start": 75.1783,
      "duration": 0.1166,
      "velocity": 86,
      "chip": "ym2612"
    },
    {
      "channel": 1,
      "note": 79,
      "start": 75.3113,
      "duration": 0.2831,
      "velocity": 108,
      "chip": "ym2612"
    },
    {
      "channel": 4,
      "note": 59,
      "start": 75.3134,
      "duration": 0.1315,
      "velocity": 86,
      "chip": "ym2612"
    },
    {
      "channel": 3,
      "note": 60,
      "start": 75.328,
      "duration": 0.1165,
      "velocity": 117,
      "chip": "ym2612"
    },
    {
      "channel": 3,
      "note": 60,
      "start": 75.4613,
      "duration": 0.1334,
      "velocity": 117,
      "chip": "ym2612"
    },
    {
      "channel": 4,
      "note": 59,
      "start": 75.4616,
      "duration": 0.1334,
      "velocity": 86,
      "chip": "ym2612"
    },
    {
      "channel": 1,
      "note": 79,
      "start": 75.6115,
      "duration": 0.2661,
      "velocity": 108,
      "chip": "ym2612"
    },
    {
      "channel": 3,
      "note": 60,
      "start": 75.6134,
      "duration": 0.1146,
      "velocity": 117,
      "chip": "ym2612"
    },
    {
      "channel": 4,
      "note": 59,
      "start": 75.6151,
      "duration": 0.1131,
      "velocity": 86,
      "chip": "ym2612"
    },
    {
      "channel": 3,
      "note": 60,
      "start": 75.7446,
      "duration": 0.1333,
      "velocity": 117,
      "chip": "ym2612"
    },
    {
      "channel": 4,
      "note": 59,
      "start": 75.7449,
      "duration": 0.1333,
      "velocity": 86,
      "chip": "ym2612"
    },
    {
      "channel": 1,
      "note": 80,
      "start": 75.8946,
      "duration": 0.2663,
      "velocity": 108,
      "chip": "ym2612"
    },
    {
      "channel": 3,
      "note": 60,
      "start": 75.895,
      "duration": 0.1329,
      "velocity": 117,
      "chip": "ym2612"
    },
    {
      "channel": 4,
      "note": 59,
      "start": 75.8968,
      "duration": 0.1314,
      "velocity": 86,
      "chip": "ym2612"
    },
    {
      "channel": 3,
      "note": 60,
      "start": 76.0446,
      "duration": 0.1167,
      "velocity": 117,
      "chip": "ym2612"
    },
    {
      "channel": 4,
      "note": 59,
      "start": 76.0449,
      "duration": 0.1167,
      "velocity": 86,
      "chip": "ym2612"
    },
    {
      "channel": 1,
      "note": 85,
      "start": 76.1784,
      "duration": 2.2994,
      "velocity": 108,
      "chip": "ym2612"
    },
    {
      "channel": 3,
      "note": 60,
      "start": 76.1803,
      "duration": 0.131,
      "velocity": 117,
      "chip": "ym2612"
    },
    {
      "channel": 4,
      "note": 59,
      "start": 76.182,
      "duration": 0.1295,
      "velocity": 86,
      "chip": "ym2612"
    },
    {
      "channel": 0,
      "note": 36,
      "start": 76.1943,
      "duration": 1.1332,
      "velocity": 88,
      "chip": "ym2612"
    },
    {
      "channel": 2,
      "note": 48,
      "start": 76.1948,
      "duration": 1.1331,
      "velocity": 88,
      "chip": "ym2612"
    },
    {
      "channel": 3,
      "note": 60,
      "start": 76.328,
      "duration": 0.1333,
      "velocity": 117,
      "chip": "ym2612"
    },
    {
      "channel": 4,
      "note": 59,
      "start": 76.3282,
      "duration": 0.1333,
      "velocity": 86,
      "chip": "ym2612"
    },
    {
      "channel": 3,
      "note": 60,
      "start": 76.4783,
      "duration": 0.1163,
      "velocity": 117,
      "chip": "ym2612"
    },
    {
      "channel": 4,
      "note": 59,
      "start": 76.48,
      "duration": 0.1149,
      "velocity": 86,
      "chip": "ym2612"
    },
    {
      "channel": 3,
      "note": 60,
      "start": 76.6114,
      "duration": 0.1332,
      "velocity": 117,
      "chip": "ym2612"
    },
    {
      "channel": 4,
      "note": 59,
      "start": 76.6116,
      "duration": 0.1332,
      "velocity": 86,
      "chip": "ym2612"
    },
    {
      "channel": 3,
      "note": 60,
      "start": 76.7633,
      "duration": 0.1313,
      "velocity": 117,
      "chip": "ym2612"
    },
    {
      "channel": 4,
      "note": 59,
      "start": 76.765,
      "duration": 0.1298,
      "velocity": 86,
      "chip": "ym2612"
    },
    {
      "channel": 3,
      "note": 60,
      "start": 76.9113,
      "duration": 0.1166,
      "velocity": 117,
      "chip": "ym2612"
    },
    {
      "channel": 4,
      "note": 59,
      "start": 76.9116,
      "duration": 0.1166,
      "velocity": 86,
      "chip": "ym2612"
    },
    {
      "channel": 3,
      "note": 60,
      "start": 77.045,
      "duration": 0.1331,
      "velocity": 117,
      "chip": "ym2612"
    },
    {
      "channel": 4,
      "note": 59,
      "start": 77.0466,
      "duration": 0.1316,
      "velocity": 86,
      "chip": "ym2612"
    },
    {
      "channel": 3,
      "note": 60,
      "start": 77.1946,
      "duration": 0.1334,
      "velocity": 117,
      "chip": "ym2612"
    },
    {
      "channel": 4,
      "note": 59,
      "start": 77.1949,
      "duration": 0.1333,
      "velocity": 86,
      "chip": "ym2612"
    },
    {
      "channel": 0,
      "note": 37,
      "start": 77.3447,
      "duration": 1.1328,
      "velocity": 88,
      "chip": "ym2612"
    },
    {
      "channel": 2,
      "note": 49,
      "start": 77.3452,
      "duration": 1.1327,
      "velocity": 88,
      "chip": "ym2612"
    },
    {
      "channel": 3,
      "note": 60,
      "start": 77.3469,
      "duration": 0.1144,
      "velocity": 117,
      "chip": "ym2612"
    },
    {
      "channel": 4,
      "note": 59,
      "start": 77.3486,
      "duration": 0.1129,
      "velocity": 86,
      "chip": "ym2612"
    },
    {
      "channel": 3,
      "note": 60,
      "start": 77.478,
      "duration": 0.1333,
      "velocity": 117,
      "chip": "ym2612"
    },
    {
      "channel": 4,
      "note": 59,
      "start": 77.4782,
      "duration": 0.1333,
      "velocity": 86,
      "chip": "ym2612"
    },
    {
      "channel": 3,
      "note": 60,
      "start": 77.6283,
      "duration": 0.1331,
      "velocity": 117,
      "chip": "ym2612"
    },
    {
      "channel": 4,
      "note": 59,
      "start": 77.63,
      "duration": 0.1148,
      "velocity": 86,
      "chip": "ym2612"
    },
    {
      "channel": 4,
      "note": 59,
      "start": 77.7616,
      "duration": 0.1332,
      "velocity": 86,
      "chip": "ym2612"
    },
    {
      "channel": 3,
      "note": 60,
      "start": 77.778,
      "duration": 0.1167,
      "velocity": 117,
      "chip": "ym2612"
    },
    {
      "channel": 3,
      "note": 60,
      "start": 77.9132,
      "duration": 0.1314,
      "velocity": 117,
      "chip": "ym2612"
    },
    {
      "channel": 4,
      "note": 59,
      "start": 77.9149,
      "duration": 0.1299,
      "velocity": 86,
      "chip": "ym2612"
    },
    {
      "channel": 3,
      "note": 60,
      "start": 78.0613,
      "duration": 0.1335,
      "velocity": 117,
      "chip": "ym2612"
    },
    {
      "channel": 4,
      "note": 59,
      "start": 78.0616,
      "duration": 0.1166,
      "velocity": 86,
      "chip": "ym2612"
    },
    {
      "channel": 4,
      "note": 59,
      "start": 78.1966,
      "duration": 0.1316,
      "velocity": 86,
      "chip": "ym2612"
    },
    {
      "channel": 3,
      "note": 60,
      "start": 78.2114,
      "duration": 0.1165,
      "velocity": 117,
      "chip": "ym2612"
    },
    {
      "channel": 3,
      "note": 60,
      "start": 78.3448,
      "duration": 0.1333,
      "velocity": 117,
      "chip": "ym2612"
    },
    {
      "channel": 4,
      "note": 59,
      "start": 78.345,
      "duration": 0.1333,
      "velocity": 86,
      "chip": "ym2612"
    },
    {
      "channel": 0,
      "note": 41,
      "start": 78.4949,
      "duration": 2.2999,
      "velocity": 88,
      "chip": "ym2612"
    },
    {
      "channel": 1,
      "note": 84,
      "start": 78.4951,
      "duration": 2.2826,
      "velocity": 108,
      "chip": "ym2612"
    },
    {
      "channel": 2,
      "note": 53,
      "start": 78.4954,
      "duration": 2.3012,
      "velocity": 88,
      "chip": "ym2612"
    },
    {
      "channel": 3,
      "note": 60,
      "start": 78.497,
      "duration": 0.1309,
      "velocity": 117,
      "chip": "ym2612"
    },
    {
      "channel": 4,
      "note": 59,
      "start": 78.4987,
      "duration": 0.1127,
      "velocity": 86,
      "chip": "ym2612"
    },
    {
      "channel": 4,
      "note": 59,
      "start": 78.6282,
      "duration": 0.1334,
      "velocity": 86,
      "chip": "ym2612"
    },
    {
      "channel": 3,
      "note": 60,
      "start": 78.6446,
      "duration": 0.1167,
      "velocity": 117,
      "chip": "ym2612"
    },
    {
      "channel": 3,
      "note": 60,
      "start": 78.7783,
      "duration": 0.1329,
      "velocity": 117,
      "chip": "ym2612"
    },
    {
      "channel": 4,
      "note": 59,
      "start": 78.78,
      "duration": 0.1316,
      "velocity": 86,
      "chip": "ym2612"
    },
    {
      "channel": 3,
      "note": 60,
      "start": 78.9281,
      "duration": 0.1334,
      "velocity": 117,
      "chip": "ym2612"
    },
    {
      "channel": 4,
      "note": 59,
      "start": 78.9284,
      "duration": 0.1164,
      "velocity": 86,
      "chip": "ym2612"
    },
    {
      "channel": 4,
      "note": 59,
      "start": 79.0632,
      "duration": 0.1316,
      "velocity": 86,
      "chip": "ym2612"
    },
    {
      "channel": 3,
      "note": 60,
      "start": 79.0796,
      "duration": 0.1149,
      "velocity": 117,
      "chip": "ym2612"
    },
    {
      "channel": 3,
      "note": 60,
      "start": 79.2113,
      "duration": 0.1334,
      "velocity": 117,
      "chip": "ym2612"
    },
    {
      "channel": 4,
      "note": 59,
      "start": 79.2116,
      "duration": 0.1333,
      "velocity": 86,
      "chip": "ym2612"
    },
    {
      "channel": 3,
      "note": 60,
      "start": 79.3616,
      "duration": 0.133,
      "velocity": 117,
      "chip": "ym2612"
    },
    {
      "channel": 4,
      "note": 59,
      "start": 79.3633,
      "duration": 0.1148,
      "velocity": 86,
      "chip": "ym2612"
    },
    {
      "channel": 4,
      "note": 59,
      "start": 79.4949,
      "duration": 0.1333,
      "velocity": 86,
      "chip": "ym2612"
    },
    {
      "channel": 3,
      "note": 60,
      "start": 79.5114,
      "duration": 0.1165,
      "velocity": 117,
      "chip": "ym2612"
    },
    {
      "channel": 3,
      "note": 60,
      "start": 79.6466,
      "duration": 0.1314,
      "velocity": 117,
      "chip": "ym2612"
    },
    {
      "channel": 4,
      "note": 59,
      "start": 79.6483,
      "duration": 0.1299,
      "velocity": 86,
      "chip": "ym2612"
    },
    {
      "channel": 3,
      "note": 60,
      "start": 79.7947,
      "duration": 0.1335,
      "velocity": 117,
      "chip": "ym2612"
    },
    {
      "channel": 4,
      "note": 59,
      "start": 79.795,
      "duration": 0.1164,
      "velocity": 86,
      "chip": "ym2612"
    },
    {
      "channel": 4,
      "note": 59,
      "start": 79.93,
      "duration": 0.1316,
      "velocity": 86,
      "chip": "ym2612"
    },
    {
      "channel": 3,
      "note": 60,
      "start": 79.9447,
      "duration": 0.1165,
      "velocity": 117,
      "chip": "ym2612"
    },
    {
      "channel": 3,
      "note": 60,
      "start": 80.078,
      "duration": 0.1333,
      "velocity": 117,
      "chip": "ym2612"
    },
    {
      "channel": 4,
      "note": 59,
      "start": 80.0782,
      "duration": 0.1333,
      "velocity": 86,
      "chip": "ym2612"
    },
    {
      "channel": 3,
      "note": 60,
      "start": 80.2299,
      "duration": 0.1148,
      "velocity": 117,
      "chip": "ym2612"
    },
    {
      "channel": 4,
      "note": 59,
      "start": 80.2316,
      "duration": 0.1133,
      "velocity": 86,
      "chip": "ym2612"
    },
    {
      "channel": 3,
      "note": 60,
      "start": 80.3613,
      "duration": 0.1333,
      "velocity": 117,
      "chip": "ym2612"
    },
    {
      "channel": 4,
      "note": 59,
      "start": 80.3616,
      "duration": 0.1333,
      "velocity": 86,
      "chip": "ym2612"
    },
    {
      "channel": 3,
      "note": 60,
      "start": 80.5117,
      "duration": 0.1329,
      "velocity": 117,
      "chip": "ym2612"
    },
    {
      "channel": 4,
      "note": 59,
      "start": 80.5134,
      "duration": 0.1315,
      "velocity": 86,
      "chip": "ym2612"
    },
    {
      "channel": 3,
      "note": 60,
      "start": 80.6613,
      "duration": 0.1167,
      "velocity": 117,
      "chip": "ym2612"
    },
    {
      "channel": 4,
      "note": 59,
      "start": 80.6616,
      "duration": 0.1167,
      "velocity": 86,
      "chip": "ym2612"
    },
    {
      "channel": 3,
      "note": 60,
      "start": 80.7982,
      "duration": 0.1298,
      "velocity": 117,
      "chip": "ym2612"
    },
    {
      "channel": 4,
      "note": 59,
      "start": 80.7999,
      "duration": 0.1283,
      "velocity": 86,
      "chip": "ym2612"
    },
    {
      "channel": 0,
      "note": 36,
      "start": 80.811,
      "duration": 1.1332,
      "velocity": 88,
      "chip": "ym2612"
    },
    {
      "channel": 2,
      "note": 48,
      "start": 80.8114,
      "duration": 1.1332,
      "velocity": 88,
      "chip": "ym2612"
    },
    {
      "channel": 3,
      "note": 60,
      "start": 80.9447,
      "duration": 0.1332,
      "velocity": 117,
      "chip": "ym2612"
    },
    {
      "channel": 4,
      "note": 59,
      "start": 80.945,
      "duration": 0.1332,
      "velocity": 86,
      "chip": "ym2612"
    },
    {
      "channel": 3,
      "note": 60,
      "start": 81.095,
      "duration": 0.1162,
      "velocity": 117,
      "chip": "ym2612"
    },
    {
      "channel": 4,
      "note": 59,
      "start": 81.0967,
      "duration": 0.1148,
      "velocity": 86,
      "chip": "ym2612"
    },
    {
      "channel": 3,
      "note": 60,
      "start": 81.228,
      "duration": 0.1333,
      "velocity": 117,
      "chip": "ym2612"
    },
    {
      "channel": 4,
      "note": 59,
      "start": 81.2282,
      "duration": 0.1333,
      "velocity": 86,
      "chip": "ym2612"
    },
    {
      "channel": 3,
      "note": 60,
      "start": 81.3799,
      "duration": 0.1314,
      "velocity": 117,
      "chip": "ym2612"
    },
    {
      "channel": 4,
      "note": 59,
      "start": 81.3816,
      "duration": 0.13,
      "velocity": 86,
      "chip": "ym2612"
    },
    {
      "channel": 3,
      "note": 60,
      "start": 81.528,
      "duration": 0.1166,
      "velocity": 117,
      "chip": "ym2612"
    },
    {
      "channel": 4,
      "note": 59,
      "start": 81.5282,
      "duration": 0.1166,
      "velocity": 86,
      "chip": "ym2612"
    },
    {
      "channel": 3,
      "note": 60,
      "start": 81.6616,
      "duration": 0.1329,
      "velocity": 117,
      "chip": "ym2612"
    },
    {
      "channel": 4,
      "note": 59,
      "start": 81.6633,
      "duration": 0.1316,
      "velocity": 86,
      "chip": "ym2612"
    },
    {
      "channel": 3,
      "note": 60,
      "start": 81.8113,
      "duration": 0.1335,
      "velocity": 117,
      "chip": "ym2612"
    },
    {
      "channel": 4,
      "note": 59,
      "start": 81.8116,
      "duration": 0.1335,
      "velocity": 86,
      "chip": "ym2612"
    },
    {
      "channel": 0,
      "note": 37,
      "start": 81.9614,
      "duration": 1.1328,
      "velocity": 88,
      "chip": "ym2612"
    },
    {
      "channel": 2,
      "note": 49,
      "start": 81.9617,
      "duration": 1.1329,
      "velocity": 88,
      "chip": "ym2612"
    },
    {
      "channel": 3,
      "note": 60,
      "start": 81.9634,
      "duration": 0.1146,
      "velocity": 117,
      "chip": "ym2612"
    },
    {
      "channel": 4,
      "note": 59,
      "start": 81.9651,
      "duration": 0.1131,
      "velocity": 86,
      "chip": "ym2612"
    },
    {
      "channel": 3,
      "note": 60,
      "start": 82.0948,
      "duration": 0.1332,
      "velocity": 117,
      "chip": "ym2612"
    },
    {
      "channel": 4,
      "note": 59,
      "start": 82.095,
      "duration": 0.1332,
      "velocity": 86,
      "chip": "ym2612"
    },
    {
      "channel": 3,
      "note": 60,
      "start": 82.2449,
      "duration": 0.1331,
      "velocity": 117,
      "chip": "ym2612"
    },
    {
      "channel": 4,
      "note": 59,
      "start": 82.2466,
      "duration": 0.1148,
      "velocity": 86,
      "chip": "ym2612"
    },
    {
      "channel": 4,
      "note": 59,
      "start": 82.3782,
      "duration": 0.1333,
      "velocity": 86,
      "chip": "ym2612"
    },
    {
      "channel": 3,
      "note": 60,
      "start": 82.3946,
      "duration": 0.1167,
      "velocity": 117,
      "chip": "ym2612"
    },
    {
      "channel": 3,
      "note": 60,
      "start": 82.5299,
      "duration": 0.1314,
      "velocity": 117,
      "chip": "ym2612"
    },
    {
      "channel": 4,
      "note": 59,
      "start": 82.5316,
      "duration": 0.1299,
      "velocity": 86,
      "chip": "ym2612"
    },
    {
      "channel": 3,
      "note": 60,
      "start": 82.6781,
      "duration": 0.1334,
      "velocity": 117,
      "chip": "ym2612"
    },
    {
      "channel": 4,
      "note": 59,
      "start": 82.6784,
      "duration": 0.1164,
      "velocity": 86,
      "chip": "ym2612"
    },
    {
      "channel": 4,
      "note": 59,
      "start": 82.8132,
      "duration": 0.1316,
      "velocity": 86,
      "chip": "ym2612"
    },
    {
      "channel": 3,
      "note": 60,
      "start": 82.828,
      "duration": 0.1165,
      "velocity": 117,
      "chip": "ym2612"
    },
    {
      "channel": 3,
      "note": 60,
      "start": 82.9613,
      "duration": 0.1336,
      "velocity": 117,
      "chip": "ym2612"
    },
    {
      "channel": 4,
      "note": 59,
      "start": 82.9616,
      "duration": 0.1335,
      "velocity": 86,
      "chip": "ym2612"
    },
    {
      "channel": 0,
      "note": 41,
      "start": 83.1116,
      "duration": 2.2998,
      "velocity": 88,
      "chip": "ym2612"
    },
    {
      "channel": 2,
      "note": 53,
      "start": 83.1134,
      "duration": 2.2998,
      "velocity": 88,
      "chip": "ym2612"
    },
    {
      "channel": 3,
      "note": 60,
      "start": 83.1151,
      "duration": 0.1296,
      "velocity": 117,
      "chip": "ym2612"
    },
    {
      "channel": 4,
      "note": 59,
      "start": 83.1168,
      "duration": 0.1113,
      "velocity": 86,
      "chip": "ym2612"
    },
    {
      "channel": 4,
      "note": 59,
      "start": 83.2449,
      "duration": 0.1333,
      "velocity": 86,
      "chip": "ym2612"
    },
    {
      "channel": 3,
      "note": 60,
      "start": 83.2614,
      "duration": 0.1166,
      "velocity": 117,
      "chip": "ym2612"
    },
    {
      "channel": 3,
      "note": 60,
      "start": 83.3949,
      "duration": 0.133,
      "velocity": 117,
      "chip": "ym2612"
    },
    {
      "channel": 4,
      "note": 59,
      "start": 83.3966,
      "duration": 0.1316,
      "velocity": 86,
      "chip": "ym2612"
    },
    {
      "channel": 3,
      "note": 60,
      "start": 83.5446,
      "duration": 0.1336,
      "velocity": 117,
      "chip": "ym2612"
    },
    {
      "channel": 4,
      "note": 59,
      "start": 83.5449,
      "duration": 0.1165,
      "velocity": 86,
      "chip": "ym2612"
    },
    {
      "channel": 4,
      "note": 59,
      "start": 83.68,
      "duration": 0.1316,
      "velocity": 86,
      "chip": "ym2612"
    },
    {
      "channel": 3,
      "note": 60,
      "start": 83.6963,
      "duration": 0.1149,
      "velocity": 117,
      "chip": "ym2612"
    },
    {
      "channel": 3,
      "note": 60,
      "start": 83.828,
      "duration": 0.1333,
      "velocity": 117,
      "chip": "ym2612"
    },
    {
      "channel": 4,
      "note": 59,
      "start": 83.8282,
      "duration": 0.1333,
      "velocity": 86,
      "chip": "ym2612"
    },
    {
      "channel": 3,
      "note": 60,
      "start": 83.9783,
      "duration": 0.133,
      "velocity": 117,
      "chip": "ym2612"
    },
    {
      "channel": 4,
      "note": 59,
      "start": 83.98,
      "duration": 0.1149,
      "velocity": 86,
      "chip": "ym2612"
    },
    {
      "channel": 4,
      "note": 59,
      "start": 84.1116,
      "duration": 0.1333,
      "velocity": 86,
      "chip": "ym2612"
    },
    {
      "channel": 3,
      "note": 60,
      "start": 84.128,
      "duration": 0.1167,
      "velocity": 117,
      "chip": "ym2612"
    },
    {
      "channel": 3,
      "note": 60,
      "start": 84.2632,
      "duration": 0.1314,
      "velocity": 117,
      "chip": "ym2612"
    },
    {
      "channel": 4,
      "note": 59,
      "start": 84.2649,
      "duration": 0.1299,
      "velocity": 86,
      "chip": "ym2612"
    },
    {
      "channel": 3,
      "note": 60,
      "start": 84.4113,
      "duration": 0.1335,
      "velocity": 117,
      "chip": "ym2612"
    },
    {
      "channel": 4,
      "note": 59,
      "start": 84.4116,
      "duration": 0.1166,
      "velocity": 86,
      "chip": "ym2612"
    },
    {
      "channel": 4,
      "note": 59,
      "start": 84.5466,
      "duration": 0.1317,
      "velocity": 86,
      "chip": "ym2612"
    },
    {
      "channel": 3,
      "note": 60,
      "start": 84.5614,
      "duration": 0.1166,
      "velocity": 117,
      "chip": "ym2612"
    },
    {
      "channel": 3,
      "note": 60,
      "start": 84.6947,
      "duration": 0.1332,
      "velocity": 117,
      "chip": "ym2612"
    },
    {
      "channel": 4,
      "note": 59,
      "start": 84.695,
      "duration": 0.1332,
      "velocity": 86,
      "chip": "ym2612"
    },
    {
      "channel": 3,
      "note": 60,
      "start": 84.8466,
      "duration": 0.1146,
      "velocity": 117,
      "chip": "ym2612"
    },
    {
      "channel": 4,
      "note": 59,
      "start": 84.8483,
      "duration": 0.1132,
      "velocity": 86,
      "chip": "ym2612"
    },
    {
      "channel": 3,
      "note": 60,
      "start": 84.978,
      "duration": 0.1333,
      "velocity": 117,
      "chip": "ym2612"
    },
    {
      "channel": 4,
      "note": 59,
      "start": 84.9782,
      "duration": 0.1333,
      "velocity": 86,
      "chip": "ym2612"
    },
    {
      "channel": 3,
      "note": 60,
      "start": 85.1283,
      "duration": 0.133,
      "velocity": 117,
      "chip": "ym2612"
    },
    {
      "channel": 4,
      "note": 59,
      "start": 85.13,
      "duration": 0.1316,
      "velocity": 86,
      "chip": "ym2612"
    },
    {
      "channel": 3,
      "note": 60,
      "start": 85.278,
      "duration": 0.1166,
      "velocity": 117,
      "chip": "ym2612"
    },
    {
      "channel": 4,
      "note": 59,
      "start": 85.2783,
      "duration": 0.1166,
      "velocity": 86,
      "chip": "ym2612"
    },
    {
      "channel": 3,
      "note": 60,
      "start": 85.4149,
      "duration": 0.1297,
      "velocity": 117,
      "chip": "ym2612"
    },
    {
      "channel": 4,
      "note": 59,
      "start": 85.4166,
      "duration": 0.1283,
      "velocity": 86,
      "chip": "ym2612"
    },
    {
      "channel": 0,
      "note": 36,
      "start": 85.4277,
      "duration": 1.1332,
      "velocity": 88,
      "chip": "ym2612"
    },
    {
      "channel": 2,
      "note": 48,
      "start": 85.4281,
      "duration": 1.1331,
      "velocity": 88,
      "chip": "ym2612"
    },
    {
      "channel": 3,
      "note": 60,
      "start": 85.5613,
      "duration": 0.1333,
      "velocity": 117,
      "chip": "ym2612"
    },
    {
      "channel": 4,
      "note": 59,
      "start": 85.5616,
      "duration": 0.1333,
      "velocity": 86,
      "chip": "ym2612"
    },
    {
      "channel": 3,
      "note": 60,
      "start": 85.7116,
      "duration": 0.1163,
      "velocity": 117,
      "chip": "ym2612"
    },
    {
      "channel": 4,
      "note": 59,
      "start": 85.7133,
      "duration": 0.1149,
      "velocity": 86,
      "chip": "ym2612"
    },
    {
      "channel": 3,
      "note": 60,
      "start": 85.8448,
      "duration": 0.1332,
      "velocity": 117,
      "chip": "ym2612"
    },
    {
      "channel": 4,
      "note": 59,
      "start": 85.845,
      "duration": 0.1332,
      "velocity": 86,
      "chip": "ym2612"
    },
    {
      "channel": 3,
      "note": 60,
      "start": 85.9966,
      "duration": 0.1314,
      "velocity": 117,
      "chip": "ym2612"
    },
    {
      "channel": 4,
      "note": 59,
      "start": 85.9983,
      "duration": 0.1299,
      "velocity": 86,
      "chip": "ym2612"
    },
    {
      "channel": 3,
      "note": 60,
      "start": 86.1446,
      "duration": 0.1167,
      "velocity": 117,
      "chip": "ym2612"
    },
    {
      "channel": 4,
      "note": 59,
      "start": 86.1449,
      "duration": 0.1167,
      "velocity": 86,
      "chip": "ym2612"
    },
    {
      "channel": 3,
      "note": 60,
      "start": 86.2783,
      "duration": 0.1329,
      "velocity": 117,
      "chip": "ym2612"
    },
    {
      "channel": 4,
      "note": 59,
      "start": 86.28,
      "duration": 0.1316,
      "velocity": 86,
      "chip": "ym2612"
    },
    {
      "channel": 3,
      "note": 60,
      "start": 86.428,
      "duration": 0.1335,
      "velocity": 117,
      "chip": "ym2612"
    },
    {
      "channel": 4,
      "note": 59,
      "start": 86.4283,
      "duration": 0.1334,
      "velocity": 86,
      "chip": "ym2612"
    },
    {
      "channel": 0,
      "note": 39,
      "start": 86.578,
      "duration": 1.1328,
      "velocity": 88,
      "chip": "ym2612"
    },
    {
      "channel": 2,
      "note": 51,
      "start": 86.5784,
      "duration": 1.1329,
      "velocity": 88,
      "chip": "ym2612"
    },
    {
      "channel": 3,
      "note": 60,
      "start": 86.5801,
      "duration": 0.1145,
      "velocity": 117,
      "chip": "ym2612"
    },
    {
      "channel": 4,
      "note": 59,
      "start": 86.5818,
      "duration": 0.113,
      "velocity": 86,
      "chip": "ym2612"
    },
    {
      "channel": 3,
      "note": 60,
      "start": 86.7113,
      "duration": 0.1334,
      "velocity": 117,
      "chip": "ym2612"
    },
    {
      "channel": 4,
      "note": 59,
      "start": 86.7116,
      "duration": 0.1333,
      "velocity": 86,
      "chip": "ym2612"
    },
    {
      "channel": 3,
      "note": 60,
      "start": 86.8616,
      "duration": 0.133,
      "velocity": 117,
      "chip": "ym2612"
    },
    {
      "channel": 4,
      "note": 59,
      "start": 86.8633,
      "duration": 0.1148,
      "velocity": 86,
      "chip": "ym2612"
    },
    {
      "channel": 4,
      "note": 59,
      "start": 86.9949,
      "duration": 0.1333,
      "velocity": 86,
      "chip": "ym2612"
    },
    {
      "channel": 3,
      "note": 60,
      "start": 87.0114,
      "duration": 0.1165,
      "velocity": 117,
      "chip": "ym2612"
    },
    {
      "channel": 3,
      "note": 60,
      "start": 87.1466,
      "duration": 0.1314,
      "velocity": 117,
      "chip": "ym2612"
    },
    {
      "channel": 4,
      "note": 59,
      "start": 87.1483,
      "duration": 0.1299,
      "velocity": 86,
      "chip": "ym2612"
    },
    {
      "channel": 3,
      "note": 60,
      "start": 87.2946,
      "duration": 0.1336,
      "velocity": 117,
      "chip": "ym2612"
    },
    {
      "channel": 4,
      "note": 59,
      "start": 87.2949,
      "duration": 0.1166,
      "velocity": 86,
      "chip": "ym2612"
    },
    {
      "channel": 4,
      "note": 59,
      "start": 87.43,
      "duration": 0.1316,
      "velocity": 86,
      "chip": "ym2612"
    },
    {
      "channel": 3,
      "note": 60,
      "start": 87.4447,
      "duration": 0.1165,
      "velocity": 117,
      "chip": "ym2612"
    },
    {
      "channel": 3,
      "note": 60,
      "start": 87.578,
      "duration": 0.1335,
      "velocity": 117,
      "chip": "ym2612"
    },
    {
      "channel": 4,
      "note": 59,
      "start": 87.5782,
      "duration": 0.1335,
      "velocity": 86,
      "chip": "ym2612"
    },
    {
      "channel": 0,
      "note": 37,
      "start": 87.7284,
      "duration": 2.2998,
      "velocity": 88,
      "chip": "ym2612"
    },
    {
      "channel": 1,
      "note": 84,
      "start": 87.7301,
      "duration": 2.281,
      "velocity": 108,
      "chip": "ym2612"
    },
    {
      "channel": 2,
      "note": 49,
      "start": 87.7303,
      "duration": 2.2982,
      "velocity": 88,
      "chip": "ym2612"
    },
    {
      "channel": 3,
      "note": 60,
      "start": 87.732,
      "duration": 0.1293,
      "velocity": 117,
      "chip": "ym2612"
    },
    {
      "channel": 4,
      "note": 59,
      "start": 87.7337,
      "duration": 0.1111,
      "velocity": 86,
      "chip": "ym2612"
    },
    {
      "channel": 4,
      "note": 59,
      "start": 87.8615,
      "duration": 0.1333,
      "velocity": 86,
      "chip": "ym2612"
    },
    {
      "channel": 3,
      "note": 60,
      "start": 87.878,
      "duration": 0.1166,
      "velocity": 117,
      "chip": "ym2612"
    },
    {
      "channel": 3,
      "note": 60,
      "start": 88.0117,
      "duration": 0.1329,
      "velocity": 117,
      "chip": "ym2612"
    },
    {
      "channel": 4,
      "note": 59,
      "start": 88.0134,
      "duration": 0.1315,
      "velocity": 86,
      "chip": "ym2612"
    },
    {
      "channel": 3,
      "note": 60,
      "start": 88.1613,
      "duration": 0.1335,
      "velocity": 117,
      "chip": "ym2612"
    },
    {
      "channel": 4,
      "note": 59,
      "start": 88.1616,
      "duration": 0.1166,
      "velocity": 86,
      "chip": "ym2612"
    },
    {
      "channel": 4,
      "note": 59,
      "start": 88.2966,
      "duration": 0.1317,
      "velocity": 86,
      "chip": "ym2612"
    },
    {
      "channel": 3,
      "note": 60,
      "start": 88.313,
      "duration": 0.115,
      "velocity": 117,
      "chip": "ym2612"
    },
    {
      "channel": 3,
      "note": 60,
      "start": 88.4447,
      "duration": 0.1332,
      "velocity": 117,
      "chip": "ym2612"
    },
    {
      "channel": 4,
      "note": 59,
      "start": 88.445,
      "duration": 0.1332,
      "velocity": 86,
      "chip": "ym2612"
    },
    {
      "channel": 3,
      "note": 60,
      "start": 88.595,
      "duration": 0.1329,
      "velocity": 117,
      "chip": "ym2612"
    },
    {
      "channel": 4,
      "note": 59,
      "start": 88.5967,
      "duration": 0.1148,
      "velocity": 86,
      "chip": "ym2612"
    },
    {
      "channel": 4,
      "note": 59,
      "start": 88.7282,
      "duration": 0.1333,
      "velocity": 86,
      "chip": "ym2612"
    },
    {
      "channel": 3,
      "note": 60,
      "start": 88.7446,
      "duration": 0.1167,
      "velocity": 117,
      "chip": "ym2612"
    },
    {
      "channel": 3,
      "note": 60,
      "start": 88.8799,
      "duration": 0.1314,
      "velocity": 117,
      "chip": "ym2612"
    },
    {
      "channel": 4,
      "note": 59,
      "start": 88.8816,
      "duration": 0.13,
      "velocity": 86,
      "chip": "ym2612"
    },
    {
      "channel": 3,
      "note": 60,
      "start": 89.028,
      "duration": 0.1335,
      "velocity": 117,
      "chip": "ym2612"
    },
    {
      "channel": 4,
      "note": 59,
      "start": 89.0283,
      "duration": 0.1164,
      "velocity": 86,
      "chip": "ym2612"
    },
    {
      "channel": 4,
      "note": 59,
      "start": 89.1632,
      "duration": 0.1316,
      "velocity": 86,
      "chip": "ym2612"
    },
    {
      "channel": 3,
      "note": 60,
      "start": 89.1781,
      "duration": 0.1165,
      "velocity": 117,
      "chip": "ym2612"
    },
    {
      "channel": 3,
      "note": 60,
      "start": 89.3114,
      "duration": 0.1332,
      "velocity": 117,
      "chip": "ym2612"
    },
    {
      "channel": 4,
      "note": 59,
      "start": 89.3116,
      "duration": 0.1332,
      "velocity": 86,
      "chip": "ym2612"
    },
    {
      "channel": 3,
      "note": 60,
      "start": 89.4632,
      "duration": 0.1147,
      "velocity": 117,
      "chip": "ym2612"
    },
    {
      "channel": 4,
      "note": 59,
      "start": 89.4649,
      "duration": 0.1132,
      "velocity": 86,
      "chip": "ym2612"
    },
    {
      "channel": 3,
      "note": 60,
      "start": 89.5948,
      "duration": 0.1331,
      "velocity": 117,
      "chip": "ym2612"
    },
    {
      "channel": 4,
      "note": 59,
      "start": 89.595,
      "duration": 0.1332,
      "velocity": 86,
      "chip": "ym2612"
    },
    {
      "channel": 3,
      "note": 60,
      "start": 89.745,
      "duration": 0.1329,
      "velocity": 117,
      "chip": "ym2612"
    },
    {
      "channel": 4,
      "note": 59,
      "start": 89.7466,
      "duration": 0.1316,
      "velocity": 86,
      "chip": "ym2612"
    },
    {
      "channel": 3,
      "note": 60,
      "start": 89.8946,
      "duration": 0.1167,
      "velocity": 117,
      "chip": "ym2612"
    },
    {
      "channel": 4,
      "note": 59,
      "start": 89.8949,
      "duration": 0.1167,
      "velocity": 86,
      "chip": "ym2612"
    },
    {
      "channel": 1,
      "note": 84,
      "start": 90.0283,
      "duration": 2.0163,
      "velocity": 108,
      "chip": "ym2612"
    },
    {
      "channel": 3,
      "note": 60,
      "start": 90.0302,
      "duration": 0.131,
      "velocity": 117,
      "chip": "ym2612"
    },
    {
      "channel": 4,
      "note": 59,
      "start": 90.0319,
      "duration": 0.1296,
      "velocity": 86,
      "chip": "ym2612"
    },
    {
      "channel": 0,
      "note": 43,
      "start": 90.0443,
      "duration": 2.2833,
      "velocity": 88,
      "chip": "ym2612"
    },
    {
      "channel": 2,
      "note": 55,
      "start": 90.0446,
      "duration": 2.2833,
      "velocity": 88,
      "chip": "ym2612"
    },
    {
      "channel": 3,
      "note": 60,
      "start": 90.178,
      "duration": 0.1332,
      "velocity": 117,
      "chip": "ym2612"
    },
    {
      "channel": 4,
      "note": 59,
      "start": 90.1783,
      "duration": 0.1332,
      "velocity": 86,
      "chip": "ym2612"
    },
    {
      "channel": 3,
      "note": 60,
      "start": 90.3283,
      "duration": 0.1163,
      "velocity": 117,
      "chip": "ym2612"
    },
    {
      "channel": 4,
      "note": 59,
      "start": 90.33,
      "duration": 0.1148,
      "velocity": 86,
      "chip": "ym2612"
    },
    {
      "channel": 3,
      "note": 60,
      "start": 90.4613,
      "duration": 0.1333,
      "velocity": 117,
      "chip": "ym2612"
    },
    {
      "channel": 4,
      "note": 59,
      "start": 90.4616,
      "duration": 0.1333,
      "velocity": 86,
      "chip": "ym2612"
    },
    {
      "channel": 3,
      "note": 60,
      "start": 90.6132,
      "duration": 0.1314,
      "velocity": 117,
      "chip": "ym2612"
    },
    {
      "channel": 4,
      "note": 59,
      "start": 90.6149,
      "duration": 0.1299,
      "velocity": 86,
      "chip": "ym2612"
    },
    {
      "channel": 3,
      "note": 60,
      "start": 90.7615,
      "duration": 0.1165,
      "velocity": 117,
      "chip": "ym2612"
    },
    {
      "channel": 4,
      "note": 59,
      "start": 90.7617,
      "duration": 0.1165,
      "velocity": 86,
      "chip": "ym2612"
    },
    {
      "channel": 3,
      "note": 60,
      "start": 90.895,
      "duration": 0.133,
      "velocity": 117,
      "chip": "ym2612"
    },
    {
      "channel": 4,
      "note": 59,
      "start": 90.8966,
      "duration": 0.1316,
      "velocity": 86,
      "chip": "ym2612"
    },
    {
      "channel": 3,
      "note": 60,
      "start": 91.0447,
      "duration": 0.1333,
      "velocity": 117,
      "chip": "ym2612"
    },
    {
      "channel": 4,
      "note": 59,
      "start": 91.045,
      "duration": 0.1333,
      "velocity": 86,
      "chip": "ym2612"
    },
    {
      "channel": 3,
      "note": 60,
      "start": 91.1966,
      "duration": 0.1147,
      "velocity": 117,
      "chip": "ym2612"
    },
    {
      "channel": 4,
      "note": 59,
      "start": 91.1983,
      "duration": 0.1132,
      "velocity": 86,
      "chip": "ym2612"
    },
    {
      "channel": 3,
      "note": 60,
      "start": 91.328,
      "duration": 0.1333,
      "velocity": 117,
      "chip": "ym2612"
    },
    {
      "channel": 4,
      "note": 59,
      "start": 91.3282,
      "duration": 0.1333,
      "velocity": 86,
      "chip": "ym2612"
    },
    {
      "channel": 3,
      "note": 60,
      "start": 91.4783,
      "duration": 0.133,
      "velocity": 117,
      "chip": "ym2612"
    },
    {
      "channel": 4,
      "note": 59,
      "start": 91.48,
      "duration": 0.1149,
      "velocity": 86,
      "chip": "ym2612"
    },
    {
      "channel": 4,
      "note": 59,
      "start": 91.6116,
      "duration": 0.1333,
      "velocity": 86,
      "chip": "ym2612"
    },
    {
      "channel": 3,
      "note": 60,
      "start": 91.628,
      "duration": 0.1166,
      "velocity": 117,
      "chip": "ym2612"
    },
    {
      "channel": 3,
      "note": 60,
      "start": 91.7633,
      "duration": 0.1314,
      "velocity": 117,
      "chip": "ym2612"
    },
    {
      "channel": 4,
      "note": 59,
      "start": 91.765,
      "duration": 0.1298,
      "velocity": 86,
      "chip": "ym2612"
    },
    {
      "channel": 3,
      "note": 60,
      "start": 91.9114,
      "duration": 0.1335,
      "velocity": 117,
      "chip": "ym2612"
    },
    {
      "channel": 4,
      "note": 59,
      "start": 91.9116,
      "duration": 0.1165,
      "velocity": 86,
      "chip": "ym2612"
    },
    {
      "channel": 4,
      "note": 59,
      "start": 92.0466,
      "duration": 0.1316,
      "velocity": 86,
      "chip": "ym2612"
    },
    {
      "channel": 1,
      "note": 84,
      "start": 92.0611,
      "duration": 0.2666,
      "velocity": 108,
      "chip": "ym2612"
    },
    {
      "channel": 3,
      "note": 60,
      "start": 92.0615,
      "duration": 0.1165,
      "velocity": 117,
      "chip": "ym2612"
    },
    {
      "channel": 3,
      "note": 60,
      "start": 92.1946,
      "duration": 0.1335,
      "velocity": 117,
      "chip": "ym2612"
    },
    {
      "channel": 4,
      "note": 59,
      "start": 92.1949,
      "duration": 0.1335,
      "velocity": 86,
      "chip": "ym2612"
    },
    {
      "channel": 0,
      "note": 43,
      "start": 92.3468,
      "duration": 2.298,
      "velocity": 88,
      "chip": "ym2612"
    },
    {
      "channel": 1,
      "note": 85,
      "start": 92.347,
      "duration": 2.2807,
      "velocity": 108,
      "chip": "ym2612"
    },
    {
      "channel": 2,
      "note": 55,
      "start": 92.3487,
      "duration": 2.2964,
      "velocity": 88,
      "chip": "ym2612"
    },
    {
      "channel": 3,
      "note": 60,
      "start": 92.3504,
      "duration": 0.1276,
      "velocity": 117,
      "chip": "ym2612"
    },
    {
      "channel": 4,
      "note": 59,
      "start": 92.3521,
      "duration": 0.1094,
      "velocity": 86,
      "chip": "ym2612"
    },
    {
      "channel": 4,
      "note": 59,
      "start": 92.4782,
      "duration": 0.1333,
      "velocity": 86,
      "chip": "ym2612"
    },
    {
      "channel": 3,
      "note": 60,
      "start": 92.4946,
      "duration": 0.1166,
      "velocity": 117,
      "chip": "ym2612"
    },
    {
      "channel": 3,
      "note": 60,
      "start": 92.6283,
      "duration": 0.133,
      "velocity": 117,
      "chip": "ym2612"
    },
    {
      "channel": 4,
      "note": 59,
      "start": 92.63,
      "duration": 0.1316,
      "velocity": 86,
      "chip": "ym2612"
    },
    {
      "channel": 3,
      "note": 60,
      "start": 92.778,
      "duration": 0.1335,
      "velocity": 117,
      "chip": "ym2612"
    },
    {
      "channel": 4,
      "note": 59,
      "start": 92.7783,
      "duration": 0.1165,
      "velocity": 86,
      "chip": "ym2612"
    },
    {
      "channel": 4,
      "note": 59,
      "start": 92.9132,
      "duration": 0.1316,
      "velocity": 86,
      "chip": "ym2612"
    },
    {
      "channel": 3,
      "note": 60,
      "start": 92.9298,
      "duration": 0.1148,
      "velocity": 117,
      "chip": "ym2612"
    },
    {
      "channel": 3,
      "note": 60,
      "start": 93.0613,
      "duration": 0.1333,
      "velocity": 117,
      "chip": "ym2612"
    },
    {
      "channel": 4,
      "note": 59,
      "start": 93.0616,
      "duration": 0.1333,
      "velocity": 86,
      "chip": "ym2612"
    },
    {
      "channel": 3,
      "note": 60,
      "start": 93.2116,
      "duration": 0.1331,
      "velocity": 117,
      "chip": "ym2612"
    },
    {
      "channel": 4,
      "note": 59,
      "start": 93.2133,
      "duration": 0.1148,
      "velocity": 86,
      "chip": "ym2612"
    },
    {
      "channel": 4,
      "note": 59,
      "start": 93.345,
      "duration": 0.1332,
      "velocity": 86,
      "chip": "ym2612"
    },
    {
      "channel": 3,
      "note": 60,
      "start": 93.3613,
      "duration": 0.1166,
      "velocity": 117,
      "chip": "ym2612"
    },
    {
      "channel": 3,
      "note": 60,
      "start": 93.4966,
      "duration": 0.1314,
      "velocity": 117,
      "chip": "ym2612"
    },
    {
      "channel": 4,
      "note": 59,
      "start": 93.4983,
      "duration": 0.1299,
      "velocity": 86,
      "chip": "ym2612"
    },
    {
      "channel": 3,
      "note": 60,
      "start": 93.6446,
      "duration": 0.1335,
      "velocity": 117,
      "chip": "ym2612"
    },
    {
      "channel": 4,
      "note": 59,
      "start": 93.6449,
      "duration": 0.1166,
      "velocity": 86,
      "chip": "ym2612"
    },
    {
      "channel": 4,
      "note": 59,
      "start": 93.7799,
      "duration": 0.1316,
      "velocity": 86,
      "chip": "ym2612"
    },
    {
      "channel": 3,
      "note": 60,
      "start": 93.7947,
      "duration": 0.1165,
      "velocity": 117,
      "chip": "ym2612"
    },
    {
      "channel": 3,
      "note": 60,
      "start": 93.928,
      "duration": 0.1332,
      "velocity": 117,
      "chip": "ym2612"
    },
    {
      "channel": 4,
      "note": 59,
      "start": 93.9283,
      "duration": 0.1332,
      "velocity": 86,
      "chip": "ym2612"
    },
    {
      "channel": 3,
      "note": 60,
      "start": 94.0799,
      "duration": 0.1148,
      "velocity": 117,
      "chip": "ym2612"
    },
    {
      "channel": 4,
      "note": 59,
      "start": 94.0816,
      "duration": 0.1132,
      "velocity": 86,
      "chip": "ym2612"
    },
    {
      "channel": 3,
      "note": 60,
      "start": 94.2114,
      "duration": 0.1333,
      "velocity": 117,
      "chip": "ym2612"
    },
    {
      "channel": 4,
      "note": 59,
      "start": 94.2116,
      "duration": 0.1333,
      "velocity": 86,
      "chip": "ym2612"
    },
    {
      "channel": 3,
      "note": 60,
      "start": 94.3616,
      "duration": 0.133,
      "velocity": 117,
      "chip": "ym2612"
    },
    {
      "channel": 4,
      "note": 59,
      "start": 94.3633,
      "duration": 0.1316,
      "velocity": 86,
      "chip": "ym2612"
    },
    {
      "channel": 3,
      "note": 60,
      "start": 94.5115,
      "duration": 0.1165,
      "velocity": 117,
      "chip": "ym2612"
    },
    {
      "channel": 4,
      "note": 59,
      "start": 94.5117,
      "duration": 0.1165,
      "velocity": 86,
      "chip": "ym2612"
    },
    {
      "channel": 1,
      "note": 84,
      "start": 94.645,
      "duration": 2.0163,
      "velocity": 108,
      "chip": "ym2612"
    },
    {
      "channel": 3,
      "note": 60,
      "start": 94.6469,
      "duration": 0.131,
      "velocity": 117,
      "chip": "ym2612"
    },
    {
      "channel": 4,
      "note": 59,
      "start": 94.6486,
      "duration": 0.1296,
      "velocity": 86,
      "chip": "ym2612"
    },
    {
      "channel": 0,
      "note": 36,
      "start": 94.661,
      "duration": 1.1332,
      "velocity": 88,
      "chip": "ym2612"
    },
    {
      "channel": 2,
      "note": 48,
      "start": 94.6615,
      "duration": 1.1331,
      "velocity": 88,
      "chip": "ym2612"
    },
    {
      "channel": 3,
      "note": 60,
      "start": 94.7946,
      "duration": 0.1334,
      "velocity": 117,
      "chip": "ym2612"
    },
    {
      "channel": 4,
      "note": 59,
      "start": 94.7949,
      "duration": 0.1333,
      "velocity": 86,
      "chip": "ym2612"
    },
    {
      "channel": 3,
      "note": 60,
      "start": 94.945,
      "duration": 0.1163,
      "velocity": 117,
      "chip": "ym2612"
    },
    {
      "channel": 4,
      "note": 59,
      "start": 94.9466,
      "duration": 0.1149,
      "velocity": 86,
      "chip": "ym2612"
    },
    {
      "channel": 3,
      "note": 60,
      "start": 95.078,
      "duration": 0.1333,
      "velocity": 117,
      "chip": "ym2612"
    },
    {
      "channel": 4,
      "note": 59,
      "start": 95.0782,
      "duration": 0.1333,
      "velocity": 86,
      "chip": "ym2612"
    },
    {
      "channel": 3,
      "note": 60,
      "start": 95.2299,
      "duration": 0.1314,
      "velocity": 117,
      "chip": "ym2612"
    },
    {
      "channel": 4,
      "note": 59,
      "start": 95.2316,
      "duration": 0.1299,
      "velocity": 86,
      "chip": "ym2612"
    },
    {
      "channel": 3,
      "note": 60,
      "start": 95.378,
      "duration": 0.1166,
      "velocity": 117,
      "chip": "ym2612"
    },
    {
      "channel": 4,
      "note": 59,
      "start": 95.3782,
      "duration": 0.1166,
      "velocity": 86,
      "chip": "ym2612"
    },
    {
      "channel": 3,
      "note": 60,
      "start": 95.5117,
      "duration": 0.1329,
      "velocity": 117,
      "chip": "ym2612"
    },
    {
      "channel": 4,
      "note": 59,
      "start": 95.5134,
      "duration": 0.1315,
      "velocity": 86,
      "chip": "ym2612"
    },
    {
      "channel": 3,
      "note": 60,
      "start": 95.6613,
      "duration": 0.1334,
      "velocity": 117,
      "chip": "ym2612"
    },
    {
      "channel": 4,
      "note": 59,
      "start": 95.6616,
      "duration": 0.1333,
      "velocity": 86,
      "chip": "ym2612"
    },
    {
      "channel": 0,
      "note": 37,
      "start": 95.8114,
      "duration": 1.1328,
      "velocity": 88,
      "chip": "ym2612"
    },
    {
      "channel": 2,
      "note": 49,
      "start": 95.8118,
      "duration": 1.1328,
      "velocity": 88,
      "chip": "ym2612"
    },
    {
      "channel": 3,
      "note": 60,
      "start": 95.8135,
      "duration": 0.1146,
      "velocity": 117,
      "chip": "ym2612"
    },
    {
      "channel": 4,
      "note": 59,
      "start": 95.8151,
      "duration": 0.1131,
      "velocity": 86,
      "chip": "ym2612"
    },
    {
      "channel": 3,
      "note": 60,
      "start": 95.9446,
      "duration": 0.1333,
      "velocity": 117,
      "chip": "ym2612"
    },
    {
      "channel": 4,
      "note": 59,
      "start": 95.9449,
      "duration": 0.1333,
      "velocity": 86,
      "chip": "ym2612"
    },
    {
      "channel": 3,
      "note": 60,
      "start": 96.095,
      "duration": 0.1329,
      "velocity": 117,
      "chip": "ym2612"
    },
    {
      "channel": 4,
      "note": 59,
      "start": 96.0967,
      "duration": 0.1148,
      "velocity": 86,
      "chip": "ym2612"
    },
    {
      "channel": 4,
      "note": 59,
      "start": 96.2282,
      "duration": 0.1333,
      "velocity": 86,
      "chip": "ym2612"
    },
    {
      "channel": 3,
      "note": 60,
      "start": 96.2446,
      "duration": 0.1166,
      "velocity": 117,
      "chip": "ym2612"
    },
    {
      "channel": 3,
      "note": 60,
      "start": 96.3799,
      "duration": 0.1314,
      "velocity": 117,
      "chip": "ym2612"
    },
    {
      "channel": 4,
      "note": 59,
      "start": 96.3816,
      "duration": 0.13,
      "velocity": 86,
      "chip": "ym2612"
    },
    {
      "channel": 3,
      "note": 60,
      "start": 96.528,
      "duration": 0.1335,
      "velocity": 117,
      "chip": "ym2612"
    },
    {
      "channel": 4,
      "note": 59,
      "start": 96.5283,
      "duration": 0.1164,
      "velocity": 86,
      "chip": "ym2612"
    },
    {
      "channel": 4,
      "note": 59,
      "start": 96.6633,
      "duration": 0.1316,
      "velocity": 86,
      "chip": "ym2612"
    },
    {
      "channel": 1,
      "note": 84,
      "start": 96.6779,
      "duration": 0.2665,
      "velocity": 108,
      "chip": "ym2612"
    },
    {
      "channel": 3,
      "note": 60,
      "start": 96.6782,
      "duration": 0.1163,
      "velocity": 117,
      "chip": "ym2612"
    },
    {
      "channel": 3,
      "note": 60,
      "start": 96.8113,
      "duration": 0.1335,
      "velocity": 117,
      "chip": "ym2612"
    },
    {
      "channel": 4,
      "note": 59,
      "start": 96.8116,
      "duration": 0.1335,
      "velocity": 86,
      "chip": "ym2612"
    },
    {
      "channel": 0,
      "note": 41,
      "start": 96.9616,
      "duration": 2.2998,
      "velocity": 88,
      "chip": "ym2612"
    },
    {
      "channel": 1,
      "note": 85,
      "start": 96.9618,
      "duration": 2.2825,
      "velocity": 108,
      "chip": "ym2612"
    },
    {
      "channel": 2,
      "note": 53,
      "start": 96.9621,
      "duration": 2.2998,
      "velocity": 88,
      "chip": "ym2612"
    },
    {
      "channel": 3,
      "note": 60,
      "start": 96.9637,
      "duration": 0.1309,
      "velocity": 117,
      "chip": "ym2612"
    },
    {
      "channel": 4,
      "note": 59,
      "start": 96.9655,
      "duration": 0.1127,
      "velocity": 86,
      "chip": "ym2612"
    },
    {
      "channel": 4,
      "note": 59,
      "start": 97.0949,
      "duration": 0.1333,
      "velocity": 86,
      "chip": "ym2612"
    },
    {
      "channel": 3,
      "note": 60,
      "start": 97.1113,
      "duration": 0.1166,
      "velocity": 117,
      "chip": "ym2612"
    },
    {
      "channel": 3,
      "note": 60,
      "start": 97.245,
      "duration": 0.1329,
      "velocity": 117,
      "chip": "ym2612"
    },
    {
      "channel": 4,
      "note": 59,
      "start": 97.2466,
      "duration": 0.1316,
      "velocity": 86,
      "chip": "ym2612"
    },
    {
      "channel": 3,
      "note": 60,
      "start": 97.3946,
      "duration": 0.1335,
      "velocity": 117,
      "chip": "ym2612"
    },
    {
      "channel": 4,
      "note": 59,
      "start": 97.3949,
      "duration": 0.1166,
      "velocity": 86,
      "chip": "ym2612"
    },
    {
      "channel": 4,
      "note": 59,
      "start": 97.5299,
      "duration": 0.1316,
      "velocity": 86,
      "chip": "ym2612"
    },
    {
      "channel": 3,
      "note": 60,
      "start": 97.5463,
      "duration": 0.1149,
      "velocity": 117,
      "chip": "ym2612"
    },
    {
      "channel": 3,
      "note": 60,
      "start": 97.6781,
      "duration": 0.1331,
      "velocity": 117,
      "chip": "ym2612"
    },
    {
      "channel": 4,
      "note": 59,
      "start": 97.6784,
      "duration": 0.1332,
      "velocity": 86,
      "chip": "ym2612"
    },
    {
      "channel": 3,
      "note": 60,
      "start": 97.8283,
      "duration": 0.1329,
      "velocity": 117,
      "chip": "ym2612"
    },
    {
      "channel": 4,
      "note": 59,
      "start": 97.83,
      "duration": 0.1148,
      "velocity": 86,
      "chip": "ym2612"
    },
    {
      "channel": 4,
      "note": 59,
      "start": 97.9615,
      "duration": 0.1334,
      "velocity": 86,
      "chip": "ym2612"
    },
    {
      "channel": 3,
      "note": 60,
      "start": 97.978,
      "duration": 0.1167,
      "velocity": 117,
      "chip": "ym2612"
    },
    {
      "channel": 3,
      "note": 60,
      "start": 98.1132,
      "duration": 0.1314,
      "velocity": 117,
      "chip": "ym2612"
    },
    {
      "channel": 4,
      "note": 59,
      "start": 98.1149,
      "duration": 0.1299,
      "velocity": 86,
      "chip": "ym2612"
    },
    {
      "channel": 3,
      "note": 60,
      "start": 98.2615,
      "duration": 0.1334,
      "velocity": 117,
      "chip": "ym2612"
    },
    {
      "channel": 4,
      "note": 59,
      "start": 98.2617,
      "duration": 0.1164,
      "velocity": 86,
      "chip": "ym2612"
    },
    {
      "channel": 4,
      "note": 59,
      "start": 98.3966,
      "duration": 0.1316,
      "velocity": 86,
      "chip": "ym2612"
    },
    {
      "channel": 3,
      "note": 60,
      "start": 98.4114,
      "duration": 0.1165,
      "velocity": 117,
      "chip": "ym2612"
    },
    {
      "channel": 3,
      "note": 60,
      "start": 98.5446,
      "duration": 0.1333,
      "velocity": 117,
      "chip": "ym2612"
    },
    {
      "channel": 4,
      "note": 59,
      "start": 98.5449,
      "duration": 0.1333,
      "velocity": 86,
      "chip": "ym2612"
    },
    {
      "channel": 3,
      "note": 60,
      "start": 98.6966,
      "duration": 0.1148,
      "velocity": 117,
      "chip": "ym2612"
    },
    {
      "channel": 4,
      "note": 59,
      "start": 98.6983,
      "duration": 0.1132,
      "velocity": 86,
      "chip": "ym2612"
    },
    {
      "channel": 3,
      "note": 60,
      "start": 98.828,
      "duration": 0.1332,
      "velocity": 117,
      "chip": "ym2612"
    },
    {
      "channel": 4,
      "note": 59,
      "start": 98.8283,
      "duration": 0.1332,
      "velocity": 86,
      "chip": "ym2612"
    },
    {
      "channel": 3,
      "note": 60,
      "start": 98.9783,
      "duration": 0.1329,
      "velocity": 117,
      "chip": "ym2612"
    },
    {
      "channel": 4,
      "note": 59,
      "start": 98.98,
      "duration": 0.1316,
      "velocity": 86,
      "chip": "ym2612"
    },
    {
      "channel": 3,
      "note": 60,
      "start": 99.128,
      "duration": 0.1167,
      "velocity": 117,
      "chip": "ym2612"
    },
    {
      "channel": 4,
      "note": 59,
      "start": 99.1282,
      "duration": 0.1167,
      "velocity": 86,
      "chip": "ym2612"
    },
    {
      "channel": 1,
      "note": 84,
      "start": 99.2617,
      "duration": 2.0162,
      "velocity": 108,
      "chip": "ym2612"
    },
    {
      "channel": 3,
      "note": 60,
      "start": 99.2636,
      "duration": 0.131,
      "velocity": 117,
      "chip": "ym2612"
    },
    {
      "channel": 4,
      "note": 59,
      "start": 99.2653,
      "duration": 0.1295,
      "velocity": 86,
      "chip": "ym2612"
    },
    {
      "channel": 0,
      "note": 36,
      "start": 99.2777,
      "duration": 1.1332,
      "velocity": 88,
      "chip": "ym2612"
    },
    {
      "channel": 2,
      "note": 48,
      "start": 99.278,
      "duration": 1.1332,
      "velocity": 88,
      "chip": "ym2612"
    },
    {
      "channel": 3,
      "note": 60,
      "start": 99.4113,
      "duration": 0.1333,
      "velocity": 117,
      "chip": "ym2612"
    },
    {
      "channel": 4,
      "note": 59,
      "start": 99.4116,
      "duration": 0.1333,
      "velocity": 86,
      "chip": "ym2612"
    },
    {
      "channel": 3,
      "note": 60,
      "start": 99.5616,
      "duration": 0.1163,
      "velocity": 117,
      "chip": "ym2612"
    },
    {
      "channel": 4,
      "note": 59,
      "start": 99.5633,
      "duration": 0.1149,
      "velocity": 86,
      "chip": "ym2612"
    },
    {
      "channel": 3,
      "note": 60,
      "start": 99.6947,
      "duration": 0.1332,
      "velocity": 117,
      "chip": "ym2612"
    },
    {
      "channel": 4,
      "note": 59,
      "start": 99.695,
      "duration": 0.1332,
      "velocity": 86,
      "chip": "ym2612"
    },
    {
      "channel": 3,
      "note": 60,
      "start": 99.8466,
      "duration": 0.1313,
      "velocity": 117,
      "chip": "ym2612"
    },
    {
      "channel": 4,
      "note": 59,
      "start": 99.8483,
      "duration": 0.1298,
      "velocity": 86,
      "chip": "ym2612"
    },
    {
      "channel": 3,
      "note": 60,
      "start": 99.9946,
      "duration": 0.1166,
      "velocity": 117,
      "chip": "ym2612"
    },
    {
      "channel": 4,
      "note": 59,
      "start": 99.9949,
      "duration": 0.1166,
      "velocity": 86,
      "chip": "ym2612"
    },
    {
      "channel": 3,
      "note": 60,
      "start": 100.1283,
      "duration": 0.133,
      "velocity": 117,
      "chip": "ym2612"
    },
    {
      "channel": 4,
      "note": 59,
      "start": 100.13,
      "duration": 0.1316,
      "velocity": 86,
      "chip": "ym2612"
    },
    {
      "channel": 3,
      "note": 60,
      "start": 100.278,
      "duration": 0.1333,
      "velocity": 117,
      "chip": "ym2612"
    },
    {
      "channel": 4,
      "note": 59,
      "start": 100.2783,
      "duration": 0.1333,
      "velocity": 86,
      "chip": "ym2612"
    },
    {
      "channel": 0,
      "note": 37,
      "start": 100.428,
      "duration": 1.1328,
      "velocity": 88,
      "chip": "ym2612"
    },
    {
      "channel": 2,
      "note": 49,
      "start": 100.4285,
      "duration": 1.1327,
      "velocity": 88,
      "chip": "ym2612"
    },
    {
      "channel": 3,
      "note": 60,
      "start": 100.4302,
      "duration": 0.1144,
      "velocity": 117,
      "chip": "ym2612"
    },
    {
      "channel": 4,
      "note": 59,
      "start": 100.4319,
      "duration": 0.113,
      "velocity": 86,
      "chip": "ym2612"
    },
    {
      "channel": 3,
      "note": 60,
      "start": 100.5613,
      "duration": 0.1333,
      "velocity": 117,
      "chip": "ym2612"
    },
    {
      "channel": 4,
      "note": 59,
      "start": 100.5616,
      "duration": 0.1333,
      "velocity": 86,
      "chip": "ym2612"
    },
    {
      "channel": 3,
      "note": 60,
      "start": 100.7116,
      "duration": 0.1331,
      "velocity": 117,
      "chip": "ym2612"
    },
    {
      "channel": 4,
      "note": 59,
      "start": 100.7133,
      "duration": 0.1148,
      "velocity": 86,
      "chip": "ym2612"
    },
    {
      "channel": 4,
      "note": 59,
      "start": 100.845,
      "duration": 0.1332,
      "velocity": 86,
      "chip": "ym2612"
    },
    {
      "channel": 3,
      "note": 60,
      "start": 100.8613,
      "duration": 0.1167,
      "velocity": 117,
      "chip": "ym2612"
    },
    {
      "channel": 3,
      "note": 60,
      "start": 100.9966,
      "duration": 0.1314,
      "velocity": 117,
      "chip": "ym2612"
    },
    {
      "channel": 4,
      "note": 59,
      "start": 100.9983,
      "duration": 0.1299,
      "velocity": 86,
      "chip": "ym2612"
    },
    {
      "channel": 3,
      "note": 60,
      "start": 101.1446,
      "duration": 0.1336,
      "velocity": 117,
      "chip": "ym2612"
    },
    {
      "channel": 4,
      "note": 59,
      "start": 101.1449,
      "duration": 0.1166,
      "velocity": 86,
      "chip": "ym2612"
    },
    {
      "channel": 4,
      "note": 59,
      "start": 101.28,
      "duration": 0.1316,
      "velocity": 86,
      "chip": "ym2612"
    },
    {
      "channel": 1,
      "note": 84,
      "start": 101.2945,
      "duration": 0.2666,
      "velocity": 108,
      "chip": "ym2612"
    },
    {
      "channel": 3,
      "note": 60,
      "start": 101.2949,
      "duration": 0.1164,
      "velocity": 117,
      "chip": "ym2612"
    },
    {
      "channel": 3,
      "note": 60,
      "start": 101.4281,
      "duration": 0.1333,
      "velocity": 117,
      "chip": "ym2612"
    },
    {
      "channel": 4,
      "note": 59,
      "start": 101.4284,
      "duration": 0.1333,
      "velocity": 86,
      "chip": "ym2612"
    },
    {
      "channel": 0,
      "note": 41,
      "start": 101.5782,
      "duration": 2.2998,
      "velocity": 88,
      "chip": "ym2612"
    },
    {
      "channel": 1,
      "note": 85,
      "start": 101.5785,
      "duration": 2.2825,
      "velocity": 108,
      "chip": "ym2612"
    },
    {
      "channel": 2,
      "note": 53,
      "start": 101.5788,
      "duration": 2.2998,
      "velocity": 88,
      "chip": "ym2612"
    },
    {
      "channel": 3,
      "note": 60,
      "start": 101.5804,
      "duration": 0.1308,
      "velocity": 117,
      "chip": "ym2612"
    },
    {
      "channel": 4,
      "note": 59,
      "start": 101.5821,
      "duration": 0.1127,
      "velocity": 86,
      "chip": "ym2612"
    },
    {
      "channel": 4,
      "note": 59,
      "start": 101.7115,
      "duration": 0.1334,
      "velocity": 86,
      "chip": "ym2612"
    },
    {
      "channel": 3,
      "note": 60,
      "start": 101.728,
      "duration": 0.1167,
      "velocity": 117,
      "chip": "ym2612"
    },
    {
      "channel": 3,
      "note": 60,
      "start": 101.8616,
      "duration": 0.1329,
      "velocity": 117,
      "chip": "ym2612"
    },
    {
      "channel": 4,
      "note": 59,
      "start": 101.8633,
      "duration": 0.1316,
      "velocity": 86,
      "chip": "ym2612"
    },
    {
      "channel": 3,
      "note": 60,
      "start": 102.0114,
      "duration": 0.1335,
      "velocity": 117,
      "chip": "ym2612"
    },
    {
      "channel": 4,
      "note": 59,
      "start": 102.0116,
      "duration": 0.1164,
      "velocity": 86,
      "chip": "ym2612"
    },
    {
      "channel": 4,
      "note": 59,
      "start": 102.1466,
      "duration": 0.1316,
      "velocity": 86,
      "chip": "ym2612"
    },
    {
      "channel": 3,
      "note": 60,
      "start": 102.163,
      "duration": 0.1149,
      "velocity": 117,
      "chip": "ym2612"
    },
    {
      "channel": 3,
      "note": 60,
      "start": 102.2946,
      "duration": 0.1334,
      "velocity": 117,
      "chip": "ym2612"
    },
    {
      "channel": 4,
      "note": 59,
      "start": 102.2949,
      "duration": 0.1333,
      "velocity": 86,
      "chip": "ym2612"
    },
    {
      "channel": 3,
      "note": 60,
      "start": 102.4449,
      "duration": 0.133,
      "velocity": 117,
      "chip": "ym2612"
    },
    {
      "channel": 4,
      "note": 59,
      "start": 102.4466,
      "duration": 0.1148,
      "velocity": 86,
      "chip": "ym2612"
    },
    {
      "channel": 4,
      "note": 59,
      "start": 102.5782,
      "duration": 0.1333,
      "velocity": 86,
      "chip": "ym2612"
    },
    {
      "channel": 3,
      "note": 60,
      "start": 102.5947,
      "duration": 0.1165,
      "velocity": 117,
      "chip": "ym2612"
    },
    {
      "channel": 3,
      "note": 60,
      "start": 102.7299,
      "duration": 0.1314,
      "velocity": 117,
      "chip": "ym2612"
    },
    {
      "channel": 4,
      "note": 59,
      "start": 102.7316,
      "duration": 0.1299,
      "velocity": 86,
      "chip": "ym2612"
    },
    {
      "channel": 3,
      "note": 60,
      "start": 102.878,
      "duration": 0.1335,
      "velocity": 117,
      "chip": "ym2612"
    },
    {
      "channel": 4,
      "note": 59,
      "start": 102.8783,
      "duration": 0.1165,
      "velocity": 86,
      "chip": "ym2612"
    },
    {
      "channel": 4,
      "note": 59,
      "start": 103.0133,
      "duration": 0.1316,
      "velocity": 86,
      "chip": "ym2612"
    },
    {
      "channel": 3,
      "note": 60,
      "start": 103.028,
      "duration": 0.1165,
      "velocity": 117,
      "chip": "ym2612"
    },
    {
      "channel": 3,
      "note": 60,
      "start": 103.1613,
      "duration": 0.1333,
      "velocity": 117,
      "chip": "ym2612"
    },
    {
      "channel": 4,
      "note": 59,
      "start": 103.1616,
      "duration": 0.1333,
      "velocity": 86,
      "chip": "ym2612"
    },
    {
      "channel": 3,
      "note": 60,
      "start": 103.3132,
      "duration": 0.1148,
      "velocity": 117,
      "chip": "ym2612"
    },
    {
      "channel": 4,
      "note": 59,
      "start": 103.3149,
      "duration": 0.1133,
      "velocity": 86,
      "chip": "ym2612"
    },
    {
      "channel": 3,
      "note": 60,
      "start": 103.4446,
      "duration": 0.1333,
      "velocity": 117,
      "chip": "ym2612"
    },
    {
      "channel": 4,
      "note": 59,
      "start": 103.4449,
      "duration": 0.1333,
      "velocity": 86,
      "chip": "ym2612"
    },
    {
      "channel": 3,
      "note": 60,
      "start": 103.595,
      "duration": 0.1329,
      "velocity": 117,
      "chip": "ym2612"
    },
    {
      "channel": 4,
      "note": 59,
      "start": 103.5967,
      "duration": 0.1315,
      "velocity": 86,
      "chip": "ym2612"
    },
    {
      "channel": 3,
      "note": 60,
      "start": 103.7446,
      "duration": 0.1167,
      "velocity": 117,
      "chip": "ym2612"
    },
    {
      "channel": 4,
      "note": 59,
      "start": 103.7449,
      "duration": 0.1167,
      "velocity": 86,
      "chip": "ym2612"
    },
    {
      "channel": 1,
      "note": 79,
      "start": 103.8783,
      "duration": 1.1494,
      "velocity": 108,
      "chip": "ym2612"
    },
    {
      "channel": 3,
      "note": 60,
      "start": 103.8802,
      "duration": 0.1312,
      "velocity": 117,
      "chip": "ym2612"
    },
    {
      "channel": 4,
      "note": 59,
      "start": 103.8819,
      "duration": 0.1296,
      "velocity": 86,
      "chip": "ym2612"
    },
    {
      "channel": 0,
      "note": 36,
      "start": 103.8943,
      "duration": 1.1332,
      "velocity": 88,
      "chip": "ym2612"
    },
    {
      "channel": 2,
      "note": 48,
      "start": 103.8948,
      "duration": 1.1331,
      "velocity": 88,
      "chip": "ym2612"
    },
    {
      "channel": 3,
      "note": 60,
      "start": 104.028,
      "duration": 0.1333,
      "velocity": 117,
      "chip": "ym2612"
    },
    {
      "channel": 4,
      "note": 59,
      "start": 104.0282,
      "duration": 0.1333,
      "velocity": 86,
      "chip": "ym2612"
    },
    {
      "channel": 3,
      "note": 60,
      "start": 104.1783,
      "duration": 0.1163,
      "velocity": 117,
      "chip": "ym2612"
    },
    {
      "channel": 4,
      "note": 59,
      "start": 104.18,
      "duration": 0.1148,
      "velocity": 86,
      "chip": "ym2612"
    },
    {
      "channel": 3,
      "note": 60,
      "start": 104.3114,
      "duration": 0.1333,
      "velocity": 117,
      "chip": "ym2612"
    },
    {
      "channel": 4,
      "note": 59,
      "start": 104.3116,
      "duration": 0.1332,
      "velocity": 86,
      "chip": "ym2612"
    },
    {
      "channel": 3,
      "note": 60,
      "start": 104.4632,
      "duration": 0.1314,
      "velocity": 117,
      "chip": "ym2612"
    },
    {
      "channel": 4,
      "note": 59,
      "start": 104.4649,
      "duration": 0.13,
      "velocity": 86,
      "chip": "ym2612"
    },
    {
      "channel": 3,
      "note": 60,
      "start": 104.6114,
      "duration": 0.1165,
      "velocity": 117,
      "chip": "ym2612"
    },
    {
      "channel": 4,
      "note": 59,
      "start": 104.6116,
      "duration": 0.1166,
      "velocity": 86,
      "chip": "ym2612"
    },
    {
      "channel": 3,
      "note": 60,
      "start": 104.745,
      "duration": 0.1329,
      "velocity": 117,
      "chip": "ym2612"
    },
    {
      "channel": 4,
      "note": 59,
      "start": 104.7466,
      "duration": 0.1316,
      "velocity": 86,
      "chip": "ym2612"
    },
    {
      "channel": 3,
      "note": 60,
      "start": 104.8946,
      "duration": 0.1335,
      "velocity": 117,
      "chip": "ym2612"
    },
    {
      "channel": 4,
      "note": 59,
      "start": 104.8949,
      "duration": 0.1335,
      "velocity": 86,
      "chip": "ym2612"
    },
    {
      "channel": 0,
      "note": 39,
      "start": 105.0448,
      "duration": 1.1328,
      "velocity": 88,
      "chip": "ym2612"
    },
    {
      "channel": 2,
      "note": 51,
      "start": 105.0451,
      "duration": 1.1329,
      "velocity": 88,
      "chip": "ym2612"
    },
    {
      "channel": 3,
      "note": 60,
      "start": 105.0468,
      "duration": 0.1144,
      "velocity": 117,
      "chip": "ym2612"
    },
    {
      "channel": 4,
      "note": 59,
      "start": 105.0485,
      "duration": 0.113,
      "velocity": 86,
      "chip": "ym2612"
    },
    {
      "channel": 3,
      "note": 60,
      "start": 105.178,
      "duration": 0.1333,
      "velocity": 117,
      "chip": "ym2612"
    },
    {
      "channel": 4,
      "note": 59,
      "start": 105.1783,
      "duration": 0.1333,
      "velocity": 86,
      "chip": "ym2612"
    },
    {
      "channel": 1,
      "note": 79,
      "start": 105.328,
      "duration": 0.2664,
      "velocity": 108,
      "chip": "ym2612"
    },
    {
      "channel": 3,
      "note": 60,
      "start": 105.3284,
      "duration": 0.1329,
      "velocity": 117,
      "chip": "ym2612"
    },
    {
      "channel": 4,
      "note": 59,
      "start": 105.3301,
      "duration": 0.1147,
      "velocity": 86,
      "chip": "ym2612"
    },
    {
      "channel": 4,
      "note": 59,
      "start": 105.4616,
      "duration": 0.1334,
      "velocity": 86,
      "chip": "ym2612"
    },
    {
      "channel": 3,
      "note": 60,
      "start": 105.478,
      "duration": 0.1168,
      "velocity": 117,
      "chip": "ym2612"
    },
    {
      "channel": 1,
      "note": 79,
      "start": 105.6115,
      "duration": 0.283,
      "velocity": 108,
      "chip": "ym2612"
    },
    {
      "channel": 3,
      "note": 60,
      "start": 105.6134,
      "duration": 0.1312,
      "velocity": 117,
      "chip": "ym2612"
    },
    {
      "channel": 4,
      "note": 59,
      "start": 105.6151,
      "duration": 0.1298,
      "velocity": 86,
      "chip": "ym2612"
    },
    {
      "channel": 3,
      "note": 60,
      "start": 105.7614,
      "duration": 0.1335,
      "velocity": 117,
      "chip": "ym2612"
    },
    {
      "channel": 4,
      "note": 59,
      "start": 105.7616,
      "duration": 0.1165,
      "velocity": 86,
      "chip": "ym2612"
    },
    {
      "channel": 4,
      "note": 59,
      "start": 105.8966,
      "duration": 0.1316,
      "velocity": 86,
      "chip": "ym2612"
    },
    {
      "channel": 1,
      "note": 80,
      "start": 105.9111,
      "duration": 0.2667,
      "velocity": 108,
      "chip": "ym2612"
    },
    {
      "channel": 3,
      "note": 60,
      "start": 105.9115,
      "duration": 0.1165,
      "velocity": 117,
      "chip": "ym2612"
    },
    {
      "channel": 3,
      "note": 60,
      "start": 106.0446,
      "duration": 0.1335,
      "velocity": 117,
      "chip": "ym2612"
    },
    {
      "channel": 4,
      "note": 59,
      "start": 106.0449,
      "duration": 0.1335,
      "velocity": 86,
      "chip": "ym2612"
    },
    {
      "channel": 0,
      "note": 37,
      "start": 106.1949,
      "duration": 2.2998,
      "velocity": 88,
      "chip": "ym2612"
    },
    {
      "channel": 1,
      "note": 85,
      "start": 106.1952,
      "duration": 2.2825,
      "velocity": 108,
      "chip": "ym2612"
    },
    {
      "channel": 2,
      "note": 49,
      "start": 106.1954,
      "duration": 2.2998,
      "velocity": 88,
      "chip": "ym2612"
    },
    {
      "channel": 3,
      "note": 60,
      "start": 106.1971,
      "duration": 0.1308,
      "velocity": 117,
      "chip": "ym2612"
    },
    {
      "channel": 4,
      "note": 59,
      "start": 106.1988,
      "duration": 0.1127,
      "velocity": 86,
      "chip": "ym2612"
    },
    {
      "channel": 4,
      "note": 59,
      "start": 106.3282,
      "duration": 0.1333,
      "velocity": 86,
      "chip": "ym2612"
    },
    {
      "channel": 3,
      "note": 60,
      "start": 106.3447,
      "duration": 0.1165,
      "velocity": 117,
      "chip": "ym2612"
    },
    {
      "channel": 3,
      "note": 60,
      "start": 106.4783,
      "duration": 0.1329,
      "velocity": 117,
      "chip": "ym2612"
    },
    {
      "channel": 4,
      "note": 59,
      "start": 106.48,
      "duration": 0.1316,
      "velocity": 86,
      "chip": "ym2612"
    },
    {
      "channel": 3,
      "note": 60,
      "start": 106.628,
      "duration": 0.1336,
      "velocity": 117,
      "chip": "ym2612"
    },
    {
      "channel": 4,
      "note": 59,
      "start": 106.6282,
      "duration": 0.1166,
      "velocity": 86,
      "chip": "ym2612"
    },
    {
      "channel": 4,
      "note": 59,
      "start": 106.7633,
      "duration": 0.1316,
      "velocity": 86,
      "chip": "ym2612"
    },
    {
      "channel": 3,
      "note": 60,
      "start": 106.7796,
      "duration": 0.1149,
      "velocity": 117,
      "chip": "ym2612"
    },
    {
      "channel": 3,
      "note": 60,
      "start": 106.9113,
      "duration": 0.1333,
      "velocity": 117,
      "chip": "ym2612"
    },
    {
      "channel": 4,
      "note": 59,
      "start": 106.9116,
      "duration": 0.1333,
      "velocity": 86,
      "chip": "ym2612"
    },
    {
      "channel": 3,
      "note": 60,
      "start": 107.0616,
      "duration": 0.133,
      "velocity": 117,
      "chip": "ym2612"
    },
    {
      "channel": 4,
      "note": 59,
      "start": 107.0633,
      "duration": 0.1149,
      "velocity": 86,
      "chip": "ym2612"
    },
    {
      "channel": 4,
      "note": 59,
      "start": 107.1949,
      "duration": 0.1333,
      "velocity": 86,
      "chip": "ym2612"
    },
    {
      "channel": 3,
      "note": 60,
      "start": 107.2113,
      "duration": 0.1166,
      "velocity": 117,
      "chip": "ym2612"
    },
    {
      "channel": 3,
      "note": 60,
      "start": 107.3466,
      "duration": 0.1313,
      "velocity": 117,
      "chip": "ym2612"
    },
    {
      "channel": 4,
      "note": 59,
      "start": 107.3483,
      "duration": 0.1298,
      "velocity": 86,
      "chip": "ym2612"
    },
    {
      "channel": 3,
      "note": 60,
      "start": 107.4946,
      "duration": 0.1335,
      "velocity": 117,
      "chip": "ym2612"
    },
    {
      "channel": 4,
      "note": 59,
      "start": 107.4949,
      "duration": 0.1166,
      "velocity": 86,
      "chip": "ym2612"
    },
    {
      "channel": 4,
      "note": 59,
      "start": 107.6299,
      "duration": 0.1317,
      "velocity": 86,
      "chip": "ym2612"
    },
    {
      "channel": 3,
      "note": 60,
      "start": 107.6447,
      "duration": 0.1166,
      "velocity": 117,
      "chip": "ym2612"
    },
    {
      "channel": 3,
      "note": 60,
      "start": 107.778,
      "duration": 0.1332,
      "velocity": 117,
      "chip": "ym2612"
    },
    {
      "channel": 4,
      "note": 59,
      "start": 107.7783,
      "duration": 0.1332,
      "velocity": 86,
      "chip": "ym2612"
    },
    {
      "channel": 3,
      "note": 60,
      "start": 107.93,
      "duration": 0.1146,
      "velocity": 117,
      "chip": "ym2612"
    },
    {
      "channel": 4,
      "note": 59,
      "start": 107.9317,
      "duration": 0.1132,
      "velocity": 86,
      "chip": "ym2612"
    },
    {
      "channel": 3,
      "note": 60,
      "start": 108.0613,
      "duration": 0.1333,
      "velocity": 117,
      "chip": "ym2612"
    },
    {
      "channel": 4,
      "note": 59,
      "start": 108.0616,
      "duration": 0.1333,
      "velocity": 86,
      "chip": "ym2612"
    },
    {
      "channel": 3,
      "note": 60,
      "start": 108.2116,
      "duration": 0.1331,
      "velocity": 117,
      "chip": "ym2612"
    },
    {
      "channel": 4,
      "note": 59,
      "start": 108.2133,
      "duration": 0.1316,
      "velocity": 86,
      "chip": "ym2612"
    },
    {
      "channel": 3,
      "note": 60,
      "start": 108.3613,
      "duration": 0.1167,
      "velocity": 117,
      "chip": "ym2612"
    },
    {
      "channel": 4,
      "note": 59,
      "start": 108.3616,
      "duration": 0.1167,
      "velocity": 86,
      "chip": "ym2612"
    },
    {
      "channel": 1,
      "note": 84,
      "start": 108.4949,
      "duration": 2.2995,
      "velocity": 108,
      "chip": "ym2612"
    },
    {
      "channel": 3,
      "note": 60,
      "start": 108.4968,
      "duration": 0.1311,
      "velocity": 117,
      "chip": "ym2612"
    },
    {
      "channel": 4,
      "note": 59,
      "start": 108.4985,
      "duration": 0.1297,
      "velocity": 86,
      "chip": "ym2612"
    },
    {
      "channel": 0,
      "note": 43,
      "start": 108.5109,
      "duration": 2.2833,
      "velocity": 88,
      "chip": "ym2612"
    },
    {
      "channel": 2,
      "note": 55,
      "start": 108.5114,
      "duration": 2.2832,
      "velocity": 88,
      "chip": "ym2612"
    },
    {
      "channel": 3,
      "note": 60,
      "start": 108.6446,
      "duration": 0.1333,
      "velocity": 117,
      "chip": "ym2612"
    },
    {
      "channel": 4,
      "note": 59,
      "start": 108.6449,
      "duration": 0.1333,
      "velocity": 86,
      "chip": "ym2612"
    },
    {
      "channel": 3,
      "note": 60,
      "start": 108.795,
      "duration": 0.1163,
      "velocity": 117,
      "chip": "ym2612"
    },
    {
      "channel": 4,
      "note": 59,
      "start": 108.7966,
      "duration": 0.1149,
      "velocity": 86,
      "chip": "ym2612"
    },
    {
      "channel": 3,
      "note": 60,
      "start": 108.928,
      "duration": 0.1332,
      "velocity": 117,
      "chip": "ym2612"
    },
    {
      "channel": 4,
      "note": 59,
      "start": 108.9283,
      "duration": 0.1332,
      "velocity": 86,
      "chip": "ym2612"
    },
    {
      "channel": 3,
      "note": 60,
      "start": 109.0799,
      "duration": 0.1314,
      "velocity": 117,
      "chip": "ym2612"
    },
    {
      "channel": 4,
      "note": 59,
      "start": 109.0816,
      "duration": 0.1299,
      "velocity": 86,
      "chip": "ym2612"
    },
    {
      "channel": 3,
      "note": 60,
      "start": 109.228,
      "duration": 0.1167,
      "velocity": 117,
      "chip": "ym2612"
    },
    {
      "channel": 4,
      "note": 59,
      "start": 109.2282,
      "duration": 0.1167,
      "velocity": 86,
      "chip": "ym2612"
    },
    {
      "channel": 3,
      "note": 60,
      "start": 109.3616,
      "duration": 0.133,
      "velocity": 117,
      "chip": "ym2612"
    },
    {
      "channel": 4,
      "note": 59,
      "start": 109.3633,
      "duration": 0.1316,
      "velocity": 86,
      "chip": "ym2612"
    },
    {
      "channel": 3,
      "note": 60,
      "start": 109.5114,
      "duration": 0.1333,
      "velocity": 117,
      "chip": "ym2612"
    },
    {
      "channel": 4,
      "note": 59,
      "start": 109.5116,
      "duration": 0.1332,
      "velocity": 86,
      "chip": "ym2612"
    },
    {
      "channel": 3,
      "note": 60,
      "start": 109.6632,
      "duration": 0.1148,
      "velocity": 117,
      "chip": "ym2612"
    },
    {
      "channel": 4,
      "note": 59,
      "start": 109.6649,
      "duration": 0.1132,
      "velocity": 86,
      "chip": "ym2612"
    },
    {
      "channel": 3,
      "note": 60,
      "start": 109.7947,
      "duration": 0.1333,
      "velocity": 117,
      "chip": "ym2612"
    },
    {
      "channel": 4,
      "note": 59,
      "start": 109.795,
      "duration": 0.1333,
      "velocity": 86,
      "chip": "ym2612"
    },
    {
      "channel": 3,
      "note": 60,
      "start": 109.945,
      "duration": 0.133,
      "velocity": 117,
      "chip": "ym2612"
    },
    {
      "channel": 4,
      "note": 59,
      "start": 109.9466,
      "duration": 0.1148,
      "velocity": 86,
      "chip": "ym2612"
    },
    {
      "channel": 4,
      "note": 59,
      "start": 110.0782,
      "duration": 0.1333,
      "velocity": 86,
      "chip": "ym2612"
    },
    {
      "channel": 3,
      "note": 60,
      "start": 110.0947,
      "duration": 0.1165,
      "velocity": 117,
      "chip": "ym2612"
    },
    {
      "channel": 3,
      "note": 60,
      "start": 110.2299,
      "duration": 0.1314,
      "velocity": 117,
      "chip": "ym2612"
    },
    {
      "channel": 4,
      "note": 59,
      "start": 110.2316,
      "duration": 0.1299,
      "velocity": 86,
      "chip": "ym2612"
    },
    {
      "channel": 3,
      "note": 60,
      "start": 110.378,
      "duration": 0.1335,
      "velocity": 117,
      "chip": "ym2612"
    },
    {
      "channel": 4,
      "note": 59,
      "start": 110.3783,
      "duration": 0.1165,
      "velocity": 86,
      "chip": "ym2612"
    },
    {
      "channel": 4,
      "note": 59,
      "start": 110.5133,
      "duration": 0.1316,
      "velocity": 86,
      "chip": "ym2612"
    },
    {
      "channel": 3,
      "note": 60,
      "start": 110.528,
      "duration": 0.1166,
      "velocity": 117,
      "chip": "ym2612"
    },
    {
      "channel": 3,
      "note": 60,
      "start": 110.6614,
      "duration": 0.1334,
      "velocity": 117,
      "chip": "ym2612"
    },
    {
      "channel": 4,
      "note": 59,
      "start": 110.6616,
      "duration": 0.1334,
      "velocity": 86,
      "chip": "ym2612"
    },
    {
      "channel": 0,
      "note": 43,
      "start": 110.8134,
      "duration": 0.0219,
      "velocity": 88,
      "chip": "ym2612"
    },
    {
      "channel": 2,
      "note": 55,
      "start": 110.8166,
      "duration": 0.0186,
      "velocity": 88,
      "chip": "ym2612"
    },
    {
      "channel": 3,
      "note": 60,
      "start": 110.8183,
      "duration": 0.0169,
      "velocity": 117,
      "chip": "ym2612"
    },
    {
      "channel": 4,
      "note": 59,
      "start": 110.82,
      "duration": 0.0152,
      "velocity": 86,
      "chip": "ym2612"
    }
  ]
}