{
  "track_name": "15 - Underwater",
  "duration_sec": 228.423,
  "sample_rate": 44100,
  "note_count": 5625,
  "unique_pitches": 33,
  "pitch_range": 47,
  "avg_note_duration": 0.152,
  "reconstruction_stats": {
    "notes_reconstructed": 5625,
    "keyon_events": 5625,
    "keyoff_events": 5623,
    "orphan_keyons": 2,
    "unique_pitches": 33,
    "pitch_range": 47,
    "avg_duration_sec": 0.152
  },
  "metadata": {
    "source": "S\\Sub-Terrania\\15 - Underwater.vgz"
  },
  "notes": [
    {
      "channel": 0,
      "note": -1,
      "start": 0.0,
      "duration": 0.0,
      "velocity": 1,
      "chip": "ym2612"
    },
    {
      "channel": 0,
      "note": 53,
      "start": 0.0,
      "duration": 0.0961,
      "velocity": 1,
      "chip": "ym2612"
    },
    {
      "channel": 1,
      "note": -1,
      "start": 0.0,
      "duration": 0.0,
      "velocity": 1,
      "chip": "ym2612"
    },
    {
      "channel": 1,
      "note": 53,
      "start": 0.0,
      "duration": 0.0966,
      "velocity": 1,
      "chip": "ym2612"
    },
    {
      "channel": 2,
      "note": -1,
      "start": 0.0,
      "duration": 0.0,
      "velocity": 1,
      "chip": "ym2612"
    },
    {
      "channel": 2,
      "note": 53,
      "start": 0.0,
      "duration": 0.0971,
      "velocity": 127,
      "chip": "ym2612"
    },
    {
      "channel": 3,
      "note": -1,
      "start": 0.0,
      "duration": 0.0,
      "velocity": 1,
      "chip": "ym2612"
    },
    {
      "channel": 4,
      "note": -1,
      "start": 0.0,
      "duration": 0.0,
      "velocity": 1,
      "chip": "ym2612"
    },
    {
      "channel": 5,
      "note": -1,
      "start": 0.0,
      "duration": 0.0,
      "velocity": 1,
      "chip": "ym2612"
    },
    {
      "channel": 3,
      "note": 17,
      "start": 0.0012,
      "duration": 5.2959,
      "velocity": 124,
      "chip": "ym2612"
    },
    {
      "channel": 4,
      "note": 53,
      "start": 0.0025,
      "duration": 0.0956,
      "velocity": 1,
      "chip": "ym2612"
    },
    {
      "channel": 5,
      "note": 53,
      "start": 0.0038,
      "duration": 0.0948,
      "velocity": 1,
      "chip": "ym2612"
    },
    {
      "channel": 2,
      "note": 53,
      "start": 0.1641,
      "duration": 0.0985,
      "velocity": 127,
      "chip": "ym2612"
    },
    {
      "channel": 2,
      "note": 53,
      "start": 0.3296,
      "duration": 0.0985,
      "velocity": 127,
      "chip": "ym2612"
    },
    {
      "channel": 2,
      "note": 53,
      "start": 0.4951,
      "duration": 0.0985,
      "velocity": 127,
      "chip": "ym2612"
    },
    {
      "channel": 2,
      "note": 53,
      "start": 0.6606,
      "duration": 0.0986,
      "velocity": 127,
      "chip": "ym2612"
    },
    {
      "channel": 2,
      "note": 53,
      "start": 0.8261,
      "duration": 0.0986,
      "velocity": 127,
      "chip": "ym2612"
    },
    {
      "channel": 2,
      "note": 53,
      "start": 0.9917,
      "duration": 0.0986,
      "velocity": 127,
      "chip": "ym2612"
    },
    {
      "channel": 2,
      "note": 53,
      "start": 1.1572,
      "duration": 0.0986,
      "velocity": 127,
      "chip": "ym2612"
    },
    {
      "channel": 2,
      "note": 53,
      "start": 1.3228,
      "duration": 0.0985,
      "velocity": 127,
      "chip": "ym2612"
    },
    {
      "channel": 2,
      "note": 53,
      "start": 1.4883,
      "duration": 0.0985,
      "velocity": 127,
      "chip": "ym2612"
    },
    {
      "channel": 2,
      "note": 53,
      "start": 1.6538,
      "duration": 0.0985,
      "velocity": 127,
      "chip": "ym2612"
    },
    {
      "channel": 2,
      "note": 53,
      "start": 1.8193,
      "duration": 0.0986,
      "velocity": 127,
      "chip": "ym2612"
    },
    {
      "channel": 2,
      "note": 53,
      "start": 1.9848,
      "duration": 0.0986,
      "velocity": 127,
      "chip": "ym2612"
    },
    {
      "channel": 2,
      "note": 53,
      "start": 2.1503,
      "duration": 0.0986,
      "velocity": 127,
      "chip": "ym2612"
    },
    {
      "channel": 2,
      "note": 53,
      "start": 2.3159,
      "duration": 0.0986,
      "velocity": 127,
      "chip": "ym2612"
    },
    {
      "channel": 2,
      "note": 53,
      "start": 2.4814,
      "duration": 0.0986,
      "velocity": 127,
      "chip": "ym2612"
    },
    {
      "channel": 0,
      "note": 53,
      "start": 2.6454,
      "duration": 0.0992,
      "velocity": 1,
      "chip": "ym2612"
    },
    {
      "channel": 1,
      "note": 53,
      "start": 2.646,
      "duration": 0.099,
      "velocity": 1,
      "chip": "ym2612"
    },
    {
      "channel": 2,
      "note": 53,
      "start": 2.6467,
      "duration": 0.0989,
      "velocity": 127,
      "chip": "ym2612"
    },
    {
      "channel": 4,
      "note": 53,
      "start": 2.6478,
      "duration": 0.0987,
      "velocity": 1,
      "chip": "ym2612"
    },
    {
      "channel": 5,
      "note": 53,
      "start": 2.6484,
      "duration": 0.0986,
      "velocity": 1,
      "chip": "ym2612"
    },
    {
      "channel": 2,
      "note": 53,
      "start": 2.8125,
      "duration": 0.0985,
      "velocity": 127,
      "chip": "ym2612"
    },
    {
      "channel": 2,
      "note": 53,
      "start": 2.978,
      "duration": 0.0985,
      "velocity": 127,
      "chip": "ym2612"
    },
    {
      "channel": 2,
      "note": 53,
      "start": 3.1435,
      "duration": 0.0985,
      "velocity": 127,
      "chip": "ym2612"
    },
    {
      "channel": 2,
      "note": 53,
      "start": 3.309,
      "duration": 0.0985,
      "velocity": 127,
      "chip": "ym2612"
    },
    {
      "channel": 2,
      "note": 53,
      "start": 3.4746,
      "duration": 0.0986,
      "velocity": 127,
      "chip": "ym2612"
    },
    {
      "channel": 2,
      "note": 53,
      "start": 3.6401,
      "duration": 0.0986,
      "velocity": 127,
      "chip": "ym2612"
    },
    {
      "channel": 2,
      "note": 53,
      "start": 3.8057,
      "duration": 0.0985,
      "velocity": 127,
      "chip": "ym2612"
    },
    {
      "channel": 2,
      "note": 53,
      "start": 3.9712,
      "duration": 0.0985,
      "velocity": 127,
      "chip": "ym2612"
    },
    {
      "channel": 2,
      "note": 53,
      "start": 4.1366,
      "duration": 0.0986,
      "velocity": 127,
      "chip": "ym2612"
    },
    {
      "channel": 2,
      "note": 53,
      "start": 4.3022,
      "duration": 0.0986,
      "velocity": 127,
      "chip": "ym2612"
    },
    {
      "channel": 2,
      "note": 53,
      "start": 4.4677,
      "duration": 0.0986,
      "velocity": 127,
      "chip": "ym2612"
    },
    {
      "channel": 2,
      "note": 53,
      "start": 4.6332,
      "duration": 0.0986,
      "velocity": 127,
      "chip": "ym2612"
    },
    {
      "channel": 2,
      "note": 53,
      "start": 4.7987,
      "duration": 0.0986,
      "velocity": 127,
      "chip": "ym2612"
    },
    {
      "channel": 2,
      "note": 53,
      "start": 4.9643,
      "duration": 0.0986,
      "velocity": 127,
      "chip": "ym2612"
    },
    {
      "channel": 2,
      "note": 53,
      "start": 5.1298,
      "duration": 0.0986,
      "velocity": 127,
      "chip": "ym2612"
    },
    {
      "channel": 0,
      "note": 48,
      "start": 5.2945,
      "duration": 5.2956,
      "velocity": 87,
      "chip": "ym2612"
    },
    {
      "channel": 1,
      "note": 53,
      "start": 5.2957,
      "duration": 0.0978,
      "velocity": 127,
      "chip": "ym2612"
    },
    {
      "channel": 2,
      "note": 17,
      "start": 5.297,
      "duration": 0.1637,
      "velocity": 113,
      "chip": "ym2612"
    },
    {
      "channel": 3,
      "note": 17,
      "start": 5.2976,
      "duration": 5.295,
      "velocity": 124,
      "chip": "ym2612"
    },
    {
      "channel": 4,
      "note": 53,
      "start": 5.2983,
      "duration": 0.0968,
      "velocity": 1,
      "chip": "ym2612"
    },
    {
      "channel": 5,
      "note": 53,
      "start": 5.2989,
      "duration": 0.0966,
      "velocity": 1,
      "chip": "ym2612"
    },
    {
      "channel": 1,
      "note": 53,
      "start": 5.4606,
      "duration": 0.0985,
      "velocity": 127,
      "chip": "ym2612"
    },
    {
      "channel": 2,
      "note": 17,
      "start": 5.4612,
      "duration": 0.165,
      "velocity": 113,
      "chip": "ym2612"
    },
    {
      "channel": 1,
      "note": 53,
      "start": 5.6261,
      "duration": 0.0985,
      "velocity": 127,
      "chip": "ym2612"
    },
    {
      "channel": 2,
      "note": 17,
      "start": 5.6273,
      "duration": 0.1644,
      "velocity": 1,
      "chip": "ym2612"
    },
    {
      "channel": 1,
      "note": 53,
      "start": 5.7916,
      "duration": 0.0985,
      "velocity": 127,
      "chip": "ym2612"
    },
    {
      "channel": 2,
      "note": 17,
      "start": 5.7928,
      "duration": 0.1644,
      "velocity": 113,
      "chip": "ym2612"
    },
    {
      "channel": 1,
      "note": 53,
      "start": 5.9571,
      "duration": 0.0985,
      "velocity": 127,
      "chip": "ym2612"
    },
    {
      "channel": 2,
      "note": 17,
      "start": 5.9578,
      "duration": 0.165,
      "velocity": 113,
      "chip": "ym2612"
    },
    {
      "channel": 1,
      "note": 53,
      "start": 6.1227,
      "duration": 0.0986,
      "velocity": 127,
      "chip": "ym2612"
    },
    {
      "channel": 2,
      "note": 17,
      "start": 6.1239,
      "duration": 0.1645,
      "velocity": 1,
      "chip": "ym2612"
    },
    {
      "channel": 1,
      "note": 53,
      "start": 6.2882,
      "duration": 0.0986,
      "velocity": 127,
      "chip": "ym2612"
    },
    {
      "channel": 2,
      "note": 15,
      "start": 6.2895,
      "duration": 0.1644,
      "velocity": 113,
      "chip": "ym2612"
    },
    {
      "channel": 1,
      "note": 53,
      "start": 6.4537,
      "duration": 0.0986,
      "velocity": 127,
      "chip": "ym2612"
    },
    {
      "channel": 2,
      "note": 17,
      "start": 6.4543,
      "duration": 0.165,
      "velocity": 113,
      "chip": "ym2612"
    },
    {
      "channel": 1,
      "note": 53,
      "start": 6.6192,
      "duration": 0.0986,
      "velocity": 127,
      "chip": "ym2612"
    },
    {
      "channel": 2,
      "note": 17,
      "start": 6.6198,
      "duration": 0.1651,
      "velocity": 113,
      "chip": "ym2612"
    },
    {
      "channel": 1,
      "note": 53,
      "start": 6.7847,
      "duration": 0.0986,
      "velocity": 127,
      "chip": "ym2612"
    },
    {
      "channel": 2,
      "note": 17,
      "start": 6.7854,
      "duration": 0.165,
      "velocity": 113,
      "chip": "ym2612"
    },
    {
      "channel": 1,
      "note": 53,
      "start": 6.9502,
      "duration": 0.0986,
      "velocity": 127,
      "chip": "ym2612"
    },
    {
      "channel": 2,
      "note": 17,
      "start": 6.9515,
      "duration": 0.1644,
      "velocity": 1,
      "chip": "ym2612"
    },
    {
      "channel": 1,
      "note": 53,
      "start": 7.1158,
      "duration": 0.0986,
      "velocity": 127,
      "chip": "ym2612"
    },
    {
      "channel": 2,
      "note": 17,
      "start": 7.117,
      "duration": 0.1645,
      "velocity": 113,
      "chip": "ym2612"
    },
    {
      "channel": 1,
      "note": 53,
      "start": 7.2813,
      "duration": 0.0986,
      "velocity": 127,
      "chip": "ym2612"
    },
    {
      "channel": 2,
      "note": 17,
      "start": 7.2819,
      "duration": 0.165,
      "velocity": 113,
      "chip": "ym2612"
    },
    {
      "channel": 1,
      "note": 53,
      "start": 7.4468,
      "duration": 0.0986,
      "velocity": 127,
      "chip": "ym2612"
    },
    {
      "channel": 2,
      "note": 17,
      "start": 7.448,
      "duration": 0.1644,
      "velocity": 1,
      "chip": "ym2612"
    },
    {
      "channel": 1,
      "note": 53,
      "start": 7.6123,
      "duration": 0.0986,
      "velocity": 127,
      "chip": "ym2612"
    },
    {
      "channel": 2,
      "note": 17,
      "start": 7.6136,
      "duration": 0.1645,
      "velocity": 113,
      "chip": "ym2612"
    },
    {
      "channel": 1,
      "note": 53,
      "start": 7.7779,
      "duration": 0.0986,
      "velocity": 127,
      "chip": "ym2612"
    },
    {
      "channel": 2,
      "note": 17,
      "start": 7.7785,
      "duration": 0.1645,
      "velocity": 113,
      "chip": "ym2612"
    },
    {
      "channel": 1,
      "note": 53,
      "start": 7.9428,
      "duration": 0.0992,
      "velocity": 127,
      "chip": "ym2612"
    },
    {
      "channel": 2,
      "note": 17,
      "start": 7.9434,
      "duration": 0.1656,
      "velocity": 113,
      "chip": "ym2612"
    },
    {
      "channel": 4,
      "note": 53,
      "start": 7.9445,
      "duration": 0.0989,
      "velocity": 1,
      "chip": "ym2612"
    },
    {
      "channel": 5,
      "note": 53,
      "start": 7.9452,
      "duration": 0.0988,
      "velocity": 1,
      "chip": "ym2612"
    },
    {
      "channel": 1,
      "note": 53,
      "start": 8.1089,
      "duration": 0.0986,
      "velocity": 127,
      "chip": "ym2612"
    },
    {
      "channel": 2,
      "note": 17,
      "start": 8.1095,
      "duration": 0.1651,
      "velocity": 113,
      "chip": "ym2612"
    },
    {
      "channel": 1,
      "note": 53,
      "start": 8.2745,
      "duration": 0.0985,
      "velocity": 127,
      "chip": "ym2612"
    },
    {
      "channel": 2,
      "note": 17,
      "start": 8.2757,
      "duration": 0.1644,
      "velocity": 1,
      "chip": "ym2612"
    },
    {
      "channel": 1,
      "note": 53,
      "start": 8.44,
      "duration": 0.0985,
      "velocity": 127,
      "chip": "ym2612"
    },
    {
      "channel": 2,
      "note": 17,
      "start": 8.4412,
      "duration": 0.1645,
      "velocity": 113,
      "chip": "ym2612"
    },
    {
      "channel": 1,
      "note": 53,
      "start": 8.6055,
      "duration": 0.0986,
      "velocity": 127,
      "chip": "ym2612"
    },
    {
      "channel": 2,
      "note": 17,
      "start": 8.6062,
      "duration": 0.165,
      "velocity": 113,
      "chip": "ym2612"
    },
    {
      "channel": 1,
      "note": 53,
      "start": 8.7711,
      "duration": 0.0985,
      "velocity": 127,
      "chip": "ym2612"
    },
    {
      "channel": 2,
      "note": 17,
      "start": 8.7723,
      "duration": 0.1644,
      "velocity": 1,
      "chip": "ym2612"
    },
    {
      "channel": 1,
      "note": 53,
      "start": 8.9366,
      "duration": 0.0985,
      "velocity": 127,
      "chip": "ym2612"
    },
    {
      "channel": 2,
      "note": 15,
      "start": 8.9378,
      "duration": 0.1644,
      "velocity": 113,
      "chip": "ym2612"
    },
    {
      "channel": 1,
      "note": 53,
      "start": 9.1021,
      "duration": 0.0985,
      "velocity": 127,
      "chip": "ym2612"
    },
    {
      "channel": 2,
      "note": 17,
      "start": 9.1027,
      "duration": 0.165,
      "velocity": 113,
      "chip": "ym2612"
    },
    {
      "channel": 1,
      "note": 53,
      "start": 9.2676,
      "duration": 0.0986,
      "velocity": 127,
      "chip": "ym2612"
    },
    {
      "channel": 2,
      "note": 17,
      "start": 9.2683,
      "duration": 0.165,
      "velocity": 113,
      "chip": "ym2612"
    },
    {
      "channel": 1,
      "note": 53,
      "start": 9.4332,
      "duration": 0.0986,
      "velocity": 127,
      "chip": "ym2612"
    },
    {
      "channel": 2,
      "note": 17,
      "start": 9.4338,
      "duration": 0.165,
      "velocity": 113,
      "chip": "ym2612"
    },
    {
      "channel": 1,
      "note": 53,
      "start": 9.5987,
      "duration": 0.0986,
      "velocity": 127,
      "chip": "ym2612"
    },
    {
      "channel": 2,
      "note": 17,
      "start": 9.5999,
      "duration": 0.1644,
      "velocity": 1,
      "chip": "ym2612"
    },
    {
      "channel": 1,
      "note": 53,
      "start": 9.7642,
      "duration": 0.0986,
      "velocity": 127,
      "chip": "ym2612"
    },
    {
      "channel": 2,
      "note": 17,
      "start": 9.7654,
      "duration": 0.1645,
      "velocity": 113,
      "chip": "ym2612"
    },
    {
      "channel": 1,
      "note": 53,
      "start": 9.9297,
      "duration": 0.0986,
      "velocity": 127,
      "chip": "ym2612"
    },
    {
      "channel": 2,
      "note": 17,
      "start": 9.9303,
      "duration": 0.165,
      "velocity": 113,
      "chip": "ym2612"
    },
    {
      "channel": 1,
      "note": 53,
      "start": 10.0952,
      "duration": 0.0986,
      "velocity": 127,
      "chip": "ym2612"
    },
    {
      "channel": 2,
      "note": 17,
      "start": 10.0964,
      "duration": 0.1644,
      "velocity": 1,
      "chip": "ym2612"
    },
    {
      "channel": 1,
      "note": 53,
      "start": 10.2607,
      "duration": 0.0986,
      "velocity": 127,
      "chip": "ym2612"
    },
    {
      "channel": 2,
      "note": 17,
      "start": 10.262,
      "duration": 0.1645,
      "velocity": 113,
      "chip": "ym2612"
    },
    {
      "channel": 1,
      "note": 53,
      "start": 10.4263,
      "duration": 0.0986,
      "velocity": 127,
      "chip": "ym2612"
    },
    {
      "channel": 2,
      "note": 17,
      "start": 10.4269,
      "duration": 0.1651,
      "velocity": 113,
      "chip": "ym2612"
    },
    {
      "channel": 0,
      "note": 29,
      "start": 10.5912,
      "duration": 0.1644,
      "velocity": 1,
      "chip": "ym2612"
    },
    {
      "channel": 1,
      "note": 53,
      "start": 10.5919,
      "duration": 0.0984,
      "velocity": 127,
      "chip": "ym2612"
    },
    {
      "channel": 2,
      "note": 17,
      "start": 10.5925,
      "duration": 0.165,
      "velocity": 113,
      "chip": "ym2612"
    },
    {
      "channel": 3,
      "note": 29,
      "start": 10.5938,
      "duration": 0.1644,
      "velocity": 1,
      "chip": "ym2612"
    },
    {
      "channel": 4,
      "note": 53,
      "start": 10.5944,
      "duration": 0.0974,
      "velocity": 1,
      "chip": "ym2612"
    },
    {
      "channel": 5,
      "note": 53,
      "start": 10.595,
      "duration": 0.0973,
      "velocity": 1,
      "chip": "ym2612"
    },
    {
      "channel": 0,
      "note": 29,
      "start": 10.7561,
      "duration": 0.165,
      "velocity": 1,
      "chip": "ym2612"
    },
    {
      "channel": 1,
      "note": 53,
      "start": 10.7574,
      "duration": 0.0984,
      "velocity": 127,
      "chip": "ym2612"
    },
    {
      "channel": 2,
      "note": 17,
      "start": 10.758,
      "duration": 0.1656,
      "velocity": 113,
      "chip": "ym2612"
    },
    {
      "channel": 3,
      "note": 62,
      "start": 10.7592,
      "duration": 0.1471,
      "velocity": 118,
      "chip": "ym2612"
    },
    {
      "channel": 0,
      "note": 18,
      "start": 10.9222,
      "duration": 0.1483,
      "velocity": 127,
      "chip": "ym2612"
    },
    {
      "channel": 1,
      "note": 53,
      "start": 10.9235,
      "duration": 0.0979,
      "velocity": 127,
      "chip": "ym2612"
    },
    {
      "channel": 2,
      "note": 17,
      "start": 10.9247,
      "duration": 0.1645,
      "velocity": 1,
      "chip": "ym2612"
    },
    {
      "channel": 3,
      "note": 62,
      "start": 10.9253,
      "duration": 0.1467,
      "velocity": 118,
      "chip": "ym2612"
    },
    {
      "channel": 0,
      "note": 29,
      "start": 11.0878,
      "duration": 0.1644,
      "velocity": 1,
      "chip": "ym2612"
    },
    {
      "channel": 1,
      "note": 53,
      "start": 11.0891,
      "duration": 0.0978,
      "velocity": 127,
      "chip": "ym2612"
    },
    {
      "channel": 2,
      "note": 17,
      "start": 11.0903,
      "duration": 0.1639,
      "velocity": 113,
      "chip": "ym2612"
    },
    {
      "channel": 3,
      "note": 62,
      "start": 11.0909,
      "duration": 0.1466,
      "velocity": 118,
      "chip": "ym2612"
    },
    {
      "channel": 0,
      "note": 29,
      "start": 11.2527,
      "duration": 0.165,
      "velocity": 1,
      "chip": "ym2612"
    },
    {
      "channel": 1,
      "note": 53,
      "start": 11.254,
      "duration": 0.0983,
      "velocity": 127,
      "chip": "ym2612"
    },
    {
      "channel": 2,
      "note": 17,
      "start": 11.2546,
      "duration": 0.1655,
      "velocity": 113,
      "chip": "ym2612"
    },
    {
      "channel": 3,
      "note": 58,
      "start": 11.2559,
      "duration": 0.1655,
      "velocity": 127,
      "chip": "ym2612"
    },
    {
      "channel": 0,
      "note": 18,
      "start": 11.4188,
      "duration": 0.1482,
      "velocity": 127,
      "chip": "ym2612"
    },
    {
      "channel": 1,
      "note": 53,
      "start": 11.42,
      "duration": 0.0978,
      "velocity": 127,
      "chip": "ym2612"
    },
    {
      "channel": 2,
      "note": 17,
      "start": 11.4213,
      "duration": 0.1644,
      "velocity": 1,
      "chip": "ym2612"
    },
    {
      "channel": 3,
      "note": 62,
      "start": 11.4225,
      "duration": 0.146,
      "velocity": 118,
      "chip": "ym2612"
    },
    {
      "channel": 0,
      "note": 29,
      "start": 11.5843,
      "duration": 0.1645,
      "velocity": 1,
      "chip": "ym2612"
    },
    {
      "channel": 1,
      "note": 53,
      "start": 11.5856,
      "duration": 0.0978,
      "velocity": 127,
      "chip": "ym2612"
    },
    {
      "channel": 2,
      "note": 15,
      "start": 11.5868,
      "duration": 0.1639,
      "velocity": 113,
      "chip": "ym2612"
    },
    {
      "channel": 3,
      "note": 62,
      "start": 11.5875,
      "duration": 0.1466,
      "velocity": 118,
      "chip": "ym2612"
    },
    {
      "channel": 0,
      "note": 29,
      "start": 11.7493,
      "duration": 0.1651,
      "velocity": 1,
      "chip": "ym2612"
    },
    {
      "channel": 1,
      "note": 53,
      "start": 11.7505,
      "duration": 0.0984,
      "velocity": 127,
      "chip": "ym2612"
    },
    {
      "channel": 2,
      "note": 17,
      "start": 11.7512,
      "duration": 0.1651,
      "velocity": 113,
      "chip": "ym2612"
    },
    {
      "channel": 3,
      "note": 58,
      "start": 11.7524,
      "duration": 0.1644,
      "velocity": 127,
      "chip": "ym2612"
    },
    {
      "channel": 0,
      "note": 29,
      "start": 11.9148,
      "duration": 0.1651,
      "velocity": 1,
      "chip": "ym2612"
    },
    {
      "channel": 1,
      "note": 53,
      "start": 11.916,
      "duration": 0.0984,
      "velocity": 127,
      "chip": "ym2612"
    },
    {
      "channel": 2,
      "note": 17,
      "start": 11.9167,
      "duration": 0.1651,
      "velocity": 113,
      "chip": "ym2612"
    },
    {
      "channel": 3,
      "note": 29,
      "start": 11.9179,
      "duration": 0.1644,
      "velocity": 1,
      "chip": "ym2612"
    },
    {
      "channel": 0,
      "note": 29,
      "start": 12.0803,
      "duration": 0.165,
      "velocity": 1,
      "chip": "ym2612"
    },
    {
      "channel": 1,
      "note": 53,
      "start": 12.0816,
      "duration": 0.0984,
      "velocity": 127,
      "chip": "ym2612"
    },
    {
      "channel": 2,
      "note": 17,
      "start": 12.0822,
      "duration": 0.1656,
      "velocity": 113,
      "chip": "ym2612"
    },
    {
      "channel": 3,
      "note": 62,
      "start": 12.0834,
      "duration": 0.1472,
      "velocity": 118,
      "chip": "ym2612"
    },
    {
      "channel": 0,
      "note": 18,
      "start": 12.2464,
      "duration": 0.1483,
      "velocity": 127,
      "chip": "ym2612"
    },
    {
      "channel": 1,
      "note": 53,
      "start": 12.2476,
      "duration": 0.0978,
      "velocity": 127,
      "chip": "ym2612"
    },
    {
      "channel": 2,
      "note": 17,
      "start": 12.2489,
      "duration": 0.1645,
      "velocity": 1,
      "chip": "ym2612"
    },
    {
      "channel": 3,
      "note": 62,
      "start": 12.2495,
      "duration": 0.1466,
      "velocity": 118,
      "chip": "ym2612"
    },
    {
      "channel": 0,
      "note": 29,
      "start": 12.4119,
      "duration": 0.1645,
      "velocity": 1,
      "chip": "ym2612"
    },
    {
      "channel": 1,
      "note": 53,
      "start": 12.4132,
      "duration": 0.0978,
      "velocity": 127,
      "chip": "ym2612"
    },
    {
      "channel": 2,
      "note": 17,
      "start": 12.4144,
      "duration": 0.1639,
      "velocity": 113,
      "chip": "ym2612"
    },
    {
      "channel": 3,
      "note": 62,
      "start": 12.415,
      "duration": 0.1466,
      "velocity": 118,
      "chip": "ym2612"
    },
    {
      "channel": 0,
      "note": 29,
      "start": 12.5768,
      "duration": 0.165,
      "velocity": 1,
      "chip": "ym2612"
    },
    {
      "channel": 1,
      "note": 53,
      "start": 12.5781,
      "duration": 0.0984,
      "velocity": 127,
      "chip": "ym2612"
    },
    {
      "channel": 2,
      "note": 17,
      "start": 12.5788,
      "duration": 0.1656,
      "velocity": 113,
      "chip": "ym2612"
    },
    {
      "channel": 3,
      "note": 58,
      "start": 12.58,
      "duration": 0.1656,
      "velocity": 127,
      "chip": "ym2612"
    },
    {
      "channel": 0,
      "note": 18,
      "start": 12.7429,
      "duration": 0.1483,
      "velocity": 127,
      "chip": "ym2612"
    },
    {
      "channel": 1,
      "note": 53,
      "start": 12.7442,
      "duration": 0.0979,
      "velocity": 127,
      "chip": "ym2612"
    },
    {
      "channel": 2,
      "note": 17,
      "start": 12.7455,
      "duration": 0.1644,
      "velocity": 1,
      "chip": "ym2612"
    },
    {
      "channel": 3,
      "note": 62,
      "start": 12.7467,
      "duration": 0.146,
      "velocity": 118,
      "chip": "ym2612"
    },
    {
      "channel": 0,
      "note": 29,
      "start": 12.9085,
      "duration": 0.1644,
      "velocity": 1,
      "chip": "ym2612"
    },
    {
      "channel": 1,
      "note": 53,
      "start": 12.9098,
      "duration": 0.0978,
      "velocity": 127,
      "chip": "ym2612"
    },
    {
      "channel": 2,
      "note": 17,
      "start": 12.911,
      "duration": 0.1639,
      "velocity": 113,
      "chip": "ym2612"
    },
    {
      "channel": 3,
      "note": 62,
      "start": 12.9117,
      "duration": 0.1466,
      "velocity": 118,
      "chip": "ym2612"
    },
    {
      "channel": 0,
      "note": 29,
      "start": 13.0735,
      "duration": 0.165,
      "velocity": 1,
      "chip": "ym2612"
    },
    {
      "channel": 1,
      "note": 53,
      "start": 13.0747,
      "duration": 0.0984,
      "velocity": 127,
      "chip": "ym2612"
    },
    {
      "channel": 2,
      "note": 17,
      "start": 13.0754,
      "duration": 0.1644,
      "velocity": 113,
      "chip": "ym2612"
    },
    {
      "channel": 3,
      "note": 62,
      "start": 13.076,
      "duration": 0.1478,
      "velocity": 118,
      "chip": "ym2612"
    },
    {
      "channel": 0,
      "note": 29,
      "start": 13.239,
      "duration": 0.1651,
      "velocity": 1,
      "chip": "ym2612"
    },
    {
      "channel": 1,
      "note": 53,
      "start": 13.2397,
      "duration": 0.099,
      "velocity": 127,
      "chip": "ym2612"
    },
    {
      "channel": 2,
      "note": 17,
      "start": 13.2403,
      "duration": 0.1656,
      "velocity": 113,
      "chip": "ym2612"
    },
    {
      "channel": 3,
      "note": 29,
      "start": 13.2416,
      "duration": 0.1649,
      "velocity": 1,
      "chip": "ym2612"
    },
    {
      "channel": 4,
      "note": 53,
      "start": 13.2422,
      "duration": 0.098,
      "velocity": 1,
      "chip": "ym2612"
    },
    {
      "channel": 5,
      "note": 53,
      "start": 13.2429,
      "duration": 0.0978,
      "velocity": 1,
      "chip": "ym2612"
    },
    {
      "channel": 0,
      "note": 29,
      "start": 13.4045,
      "duration": 0.165,
      "velocity": 1,
      "chip": "ym2612"
    },
    {
      "channel": 1,
      "note": 53,
      "start": 13.4058,
      "duration": 0.0984,
      "velocity": 127,
      "chip": "ym2612"
    },
    {
      "channel": 2,
      "note": 17,
      "start": 13.4064,
      "duration": 0.1656,
      "velocity": 113,
      "chip": "ym2612"
    },
    {
      "channel": 3,
      "note": 62,
      "start": 13.4076,
      "duration": 0.1472,
      "velocity": 118,
      "chip": "ym2612"
    },
    {
      "channel": 0,
      "note": 18,
      "start": 13.5706,
      "duration": 0.1482,
      "velocity": 127,
      "chip": "ym2612"
    },
    {
      "channel": 1,
      "note": 53,
      "start": 13.5719,
      "duration": 0.0978,
      "velocity": 127,
      "chip": "ym2612"
    },
    {
      "channel": 2,
      "note": 17,
      "start": 13.5732,
      "duration": 0.1644,
      "velocity": 1,
      "chip": "ym2612"
    },
    {
      "channel": 3,
      "note": 62,
      "start": 13.5737,
      "duration": 0.1467,
      "velocity": 118,
      "chip": "ym2612"
    },
    {
      "channel": 0,
      "note": 29,
      "start": 13.7361,
      "duration": 0.1644,
      "velocity": 1,
      "chip": "ym2612"
    },
    {
      "channel": 1,
      "note": 53,
      "start": 13.7375,
      "duration": 0.0978,
      "velocity": 127,
      "chip": "ym2612"
    },
    {
      "channel": 2,
      "note": 17,
      "start": 13.7387,
      "duration": 0.1638,
      "velocity": 113,
      "chip": "ym2612"
    },
    {
      "channel": 3,
      "note": 62,
      "start": 13.7393,
      "duration": 0.1465,
      "velocity": 118,
      "chip": "ym2612"
    },
    {
      "channel": 0,
      "note": 29,
      "start": 13.9011,
      "duration": 0.165,
      "velocity": 1,
      "chip": "ym2612"
    },
    {
      "channel": 1,
      "note": 53,
      "start": 13.9024,
      "duration": 0.0984,
      "velocity": 127,
      "chip": "ym2612"
    },
    {
      "channel": 2,
      "note": 17,
      "start": 13.903,
      "duration": 0.1656,
      "velocity": 113,
      "chip": "ym2612"
    },
    {
      "channel": 3,
      "note": 58,
      "start": 13.9043,
      "duration": 0.1655,
      "velocity": 127,
      "chip": "ym2612"
    },
    {
      "channel": 0,
      "note": 18,
      "start": 14.0672,
      "duration": 0.1482,
      "velocity": 127,
      "chip": "ym2612"
    },
    {
      "channel": 1,
      "note": 53,
      "start": 14.0685,
      "duration": 0.0978,
      "velocity": 127,
      "chip": "ym2612"
    },
    {
      "channel": 2,
      "note": 17,
      "start": 14.0697,
      "duration": 0.1644,
      "velocity": 1,
      "chip": "ym2612"
    },
    {
      "channel": 3,
      "note": 62,
      "start": 14.0709,
      "duration": 0.1461,
      "velocity": 118,
      "chip": "ym2612"
    },
    {
      "channel": 0,
      "note": 29,
      "start": 14.2327,
      "duration": 0.1644,
      "velocity": 1,
      "chip": "ym2612"
    },
    {
      "channel": 1,
      "note": 53,
      "start": 14.234,
      "duration": 0.0978,
      "velocity": 127,
      "chip": "ym2612"
    },
    {
      "channel": 2,
      "note": 15,
      "start": 14.2352,
      "duration": 0.1639,
      "velocity": 113,
      "chip": "ym2612"
    },
    {
      "channel": 3,
      "note": 62,
      "start": 14.2358,
      "duration": 0.1466,
      "velocity": 118,
      "chip": "ym2612"
    },
    {
      "channel": 0,
      "note": 29,
      "start": 14.3976,
      "duration": 0.1651,
      "velocity": 1,
      "chip": "ym2612"
    },
    {
      "channel": 1,
      "note": 53,
      "start": 14.3989,
      "duration": 0.0984,
      "velocity": 127,
      "chip": "ym2612"
    },
    {
      "channel": 2,
      "note": 17,
      "start": 14.3996,
      "duration": 0.1651,
      "velocity": 113,
      "chip": "ym2612"
    },
    {
      "channel": 3,
      "note": 58,
      "start": 14.4008,
      "duration": 0.1644,
      "velocity": 127,
      "chip": "ym2612"
    },
    {
      "channel": 0,
      "note": 29,
      "start": 14.5632,
      "duration": 0.1651,
      "velocity": 1,
      "chip": "ym2612"
    },
    {
      "channel": 1,
      "note": 53,
      "start": 14.5644,
      "duration": 0.0984,
      "velocity": 127,
      "chip": "ym2612"
    },
    {
      "channel": 2,
      "note": 17,
      "start": 14.5651,
      "duration": 0.1651,
      "velocity": 113,
      "chip": "ym2612"
    },
    {
      "channel": 3,
      "note": 29,
      "start": 14.5663,
      "duration": 0.1644,
      "velocity": 1,
      "chip": "ym2612"
    },
    {
      "channel": 0,
      "note": 29,
      "start": 14.7287,
      "duration": 0.165,
      "velocity": 1,
      "chip": "ym2612"
    },
    {
      "channel": 1,
      "note": 53,
      "start": 14.73,
      "duration": 0.0984,
      "velocity": 127,
      "chip": "ym2612"
    },
    {
      "channel": 2,
      "note": 17,
      "start": 14.7306,
      "duration": 0.1656,
      "velocity": 113,
      "chip": "ym2612"
    },
    {
      "channel": 3,
      "note": 62,
      "start": 14.7318,
      "duration": 0.1472,
      "velocity": 118,
      "chip": "ym2612"
    },
    {
      "channel": 0,
      "note": 18,
      "start": 14.8948,
      "duration": 0.1482,
      "velocity": 127,
      "chip": "ym2612"
    },
    {
      "channel": 1,
      "note": 53,
      "start": 14.8961,
      "duration": 0.0978,
      "velocity": 127,
      "chip": "ym2612"
    },
    {
      "channel": 2,
      "note": 17,
      "start": 14.8973,
      "duration": 0.1645,
      "velocity": 1,
      "chip": "ym2612"
    },
    {
      "channel": 3,
      "note": 62,
      "start": 14.8979,
      "duration": 0.1466,
      "velocity": 118,
      "chip": "ym2612"
    },
    {
      "channel": 0,
      "note": 29,
      "start": 15.0603,
      "duration": 0.1645,
      "velocity": 1,
      "chip": "ym2612"
    },
    {
      "channel": 1,
      "note": 53,
      "start": 15.0616,
      "duration": 0.0978,
      "velocity": 127,
      "chip": "ym2612"
    },
    {
      "channel": 2,
      "note": 17,
      "start": 15.0629,
      "duration": 0.1639,
      "velocity": 113,
      "chip": "ym2612"
    },
    {
      "channel": 3,
      "note": 62,
      "start": 15.0634,
      "duration": 0.1466,
      "velocity": 118,
      "chip": "ym2612"
    },
    {
      "channel": 0,
      "note": 29,
      "start": 15.2253,
      "duration": 0.165,
      "velocity": 1,
      "chip": "ym2612"
    },
    {
      "channel": 1,
      "note": 53,
      "start": 15.2265,
      "duration": 0.0984,
      "velocity": 127,
      "chip": "ym2612"
    },
    {
      "channel": 2,
      "note": 17,
      "start": 15.2272,
      "duration": 0.1656,
      "velocity": 113,
      "chip": "ym2612"
    },
    {
      "channel": 3,
      "note": 58,
      "start": 15.2284,
      "duration": 0.1655,
      "velocity": 127,
      "chip": "ym2612"
    },
    {
      "channel": 0,
      "note": 18,
      "start": 15.3914,
      "duration": 0.1483,
      "velocity": 127,
      "chip": "ym2612"
    },
    {
      "channel": 1,
      "note": 53,
      "start": 15.3926,
      "duration": 0.0979,
      "velocity": 127,
      "chip": "ym2612"
    },
    {
      "channel": 2,
      "note": 17,
      "start": 15.3938,
      "duration": 0.1645,
      "velocity": 1,
      "chip": "ym2612"
    },
    {
      "channel": 3,
      "note": 62,
      "start": 15.395,
      "duration": 0.1461,
      "velocity": 118,
      "chip": "ym2612"
    },
    {
      "channel": 0,
      "note": 29,
      "start": 15.5569,
      "duration": 0.1645,
      "velocity": 1,
      "chip": "ym2612"
    },
    {
      "channel": 1,
      "note": 53,
      "start": 15.5581,
      "duration": 0.0978,
      "velocity": 127,
      "chip": "ym2612"
    },
    {
      "channel": 2,
      "note": 17,
      "start": 15.5594,
      "duration": 0.1639,
      "velocity": 113,
      "chip": "ym2612"
    },
    {
      "channel": 3,
      "note": 62,
      "start": 15.56,
      "duration": 0.1466,
      "velocity": 118,
      "chip": "ym2612"
    },
    {
      "channel": 0,
      "note": 29,
      "start": 15.7218,
      "duration": 0.1651,
      "velocity": 1,
      "chip": "ym2612"
    },
    {
      "channel": 1,
      "note": 53,
      "start": 15.7231,
      "duration": 0.0985,
      "velocity": 127,
      "chip": "ym2612"
    },
    {
      "channel": 2,
      "note": 17,
      "start": 15.7237,
      "duration": 0.1651,
      "velocity": 113,
      "chip": "ym2612"
    },
    {
      "channel": 3,
      "note": 62,
      "start": 15.7244,
      "duration": 0.1478,
      "velocity": 118,
      "chip": "ym2612"
    },
    {
      "channel": 0,
      "note": 29,
      "start": 15.8874,
      "duration": 0.165,
      "velocity": 1,
      "chip": "ym2612"
    },
    {
      "channel": 1,
      "note": 29,
      "start": 15.8887,
      "duration": 0.1643,
      "velocity": 1,
      "chip": "ym2612"
    },
    {
      "channel": 2,
      "note": 17,
      "start": 15.8893,
      "duration": 0.1649,
      "velocity": 113,
      "chip": "ym2612"
    },
    {
      "channel": 3,
      "note": 53,
      "start": 15.8906,
      "duration": 0.0976,
      "velocity": 127,
      "chip": "ym2612"
    },
    {
      "channel": 4,
      "note": 53,
      "start": 15.8912,
      "duration": 0.0975,
      "velocity": 1,
      "chip": "ym2612"
    },
    {
      "channel": 5,
      "note": 53,
      "start": 15.8919,
      "duration": 0.0973,
      "velocity": 1,
      "chip": "ym2612"
    },
    {
      "channel": 0,
      "note": 29,
      "start": 16.0529,
      "duration": 0.165,
      "velocity": 1,
      "chip": "ym2612"
    },
    {
      "channel": 1,
      "note": 62,
      "start": 16.0541,
      "duration": 0.148,
      "velocity": 118,
      "chip": "ym2612"
    },
    {
      "channel": 2,
      "note": 17,
      "start": 16.0548,
      "duration": 0.1649,
      "velocity": 113,
      "chip": "ym2612"
    },
    {
      "channel": 3,
      "note": 53,
      "start": 16.0561,
      "duration": 0.0976,
      "velocity": 127,
      "chip": "ym2612"
    },
    {
      "channel": 0,
      "note": 18,
      "start": 16.219,
      "duration": 0.1483,
      "velocity": 127,
      "chip": "ym2612"
    },
    {
      "channel": 1,
      "note": 62,
      "start": 16.2196,
      "duration": 0.1482,
      "velocity": 118,
      "chip": "ym2612"
    },
    {
      "channel": 2,
      "note": 17,
      "start": 16.2209,
      "duration": 0.1644,
      "velocity": 1,
      "chip": "ym2612"
    },
    {
      "channel": 3,
      "note": 53,
      "start": 16.2221,
      "duration": 0.097,
      "velocity": 127,
      "chip": "ym2612"
    },
    {
      "channel": 0,
      "note": 29,
      "start": 16.3846,
      "duration": 0.1644,
      "velocity": 1,
      "chip": "ym2612"
    },
    {
      "channel": 1,
      "note": 62,
      "start": 16.3851,
      "duration": 0.1481,
      "velocity": 118,
      "chip": "ym2612"
    },
    {
      "channel": 2,
      "note": 17,
      "start": 16.3864,
      "duration": 0.1646,
      "velocity": 113,
      "chip": "ym2612"
    },
    {
      "channel": 3,
      "note": 53,
      "start": 16.3877,
      "duration": 0.0969,
      "velocity": 127,
      "chip": "ym2612"
    },
    {
      "channel": 0,
      "note": 29,
      "start": 16.5495,
      "duration": 0.165,
      "velocity": 1,
      "chip": "ym2612"
    },
    {
      "channel": 1,
      "note": 58,
      "start": 16.5508,
      "duration": 0.1649,
      "velocity": 127,
      "chip": "ym2612"
    },
    {
      "channel": 2,
      "note": 17,
      "start": 16.5514,
      "duration": 0.1655,
      "velocity": 113,
      "chip": "ym2612"
    },
    {
      "channel": 3,
      "note": 53,
      "start": 16.5527,
      "duration": 0.0975,
      "velocity": 127,
      "chip": "ym2612"
    },
    {
      "channel": 0,
      "note": 18,
      "start": 16.7155,
      "duration": 0.1483,
      "velocity": 127,
      "chip": "ym2612"
    },
    {
      "channel": 1,
      "note": 62,
      "start": 16.7167,
      "duration": 0.1476,
      "velocity": 118,
      "chip": "ym2612"
    },
    {
      "channel": 2,
      "note": 17,
      "start": 16.7179,
      "duration": 0.1639,
      "velocity": 1,
      "chip": "ym2612"
    },
    {
      "channel": 3,
      "note": 53,
      "start": 16.7193,
      "duration": 0.0964,
      "velocity": 127,
      "chip": "ym2612"
    },
    {
      "channel": 0,
      "note": 29,
      "start": 16.8811,
      "duration": 0.1644,
      "velocity": 1,
      "chip": "ym2612"
    },
    {
      "channel": 1,
      "note": 62,
      "start": 16.8817,
      "duration": 0.148,
      "velocity": 118,
      "chip": "ym2612"
    },
    {
      "channel": 2,
      "note": 15,
      "start": 16.8829,
      "duration": 0.1646,
      "velocity": 113,
      "chip": "ym2612"
    },
    {
      "channel": 3,
      "note": 53,
      "start": 16.8842,
      "duration": 0.097,
      "velocity": 127,
      "chip": "ym2612"
    },
    {
      "channel": 0,
      "note": 29,
      "start": 17.0461,
      "duration": 0.165,
      "velocity": 1,
      "chip": "ym2612"
    },
    {
      "channel": 1,
      "note": 58,
      "start": 17.0473,
      "duration": 0.1644,
      "velocity": 127,
      "chip": "ym2612"
    },
    {
      "channel": 2,
      "note": 17,
      "start": 17.048,
      "duration": 0.1651,
      "velocity": 113,
      "chip": "ym2612"
    },
    {
      "channel": 3,
      "note": 53,
      "start": 17.0493,
      "duration": 0.0975,
      "velocity": 127,
      "chip": "ym2612"
    },
    {
      "channel": 0,
      "note": 29,
      "start": 17.2116,
      "duration": 0.165,
      "velocity": 1,
      "chip": "ym2612"
    },
    {
      "channel": 1,
      "note": 29,
      "start": 17.2129,
      "duration": 0.1644,
      "velocity": 1,
      "chip": "ym2612"
    },
    {
      "channel": 2,
      "note": 17,
      "start": 17.2135,
      "duration": 0.1649,
      "velocity": 113,
      "chip": "ym2612"
    },
    {
      "channel": 3,
      "note": 53,
      "start": 17.2148,
      "duration": 0.0975,
      "velocity": 127,
      "chip": "ym2612"
    },
    {
      "channel": 0,
      "note": 29,
      "start": 17.3771,
      "duration": 0.165,
      "velocity": 1,
      "chip": "ym2612"
    },
    {
      "channel": 1,
      "note": 62,
      "start": 17.3783,
      "duration": 0.1481,
      "velocity": 118,
      "chip": "ym2612"
    },
    {
      "channel": 2,
      "note": 17,
      "start": 17.379,
      "duration": 0.165,
      "velocity": 113,
      "chip": "ym2612"
    },
    {
      "channel": 3,
      "note": 53,
      "start": 17.3802,
      "duration": 0.0975,
      "velocity": 127,
      "chip": "ym2612"
    },
    {
      "channel": 0,
      "note": 18,
      "start": 17.5432,
      "duration": 0.1482,
      "velocity": 127,
      "chip": "ym2612"
    },
    {
      "channel": 1,
      "note": 62,
      "start": 17.5438,
      "duration": 0.1482,
      "velocity": 118,
      "chip": "ym2612"
    },
    {
      "channel": 2,
      "note": 17,
      "start": 17.545,
      "duration": 0.1644,
      "velocity": 1,
      "chip": "ym2612"
    },
    {
      "channel": 3,
      "note": 53,
      "start": 17.5463,
      "duration": 0.097,
      "velocity": 127,
      "chip": "ym2612"
    },
    {
      "channel": 0,
      "note": 29,
      "start": 17.7087,
      "duration": 0.1645,
      "velocity": 1,
      "chip": "ym2612"
    },
    {
      "channel": 1,
      "note": 62,
      "start": 17.7094,
      "duration": 0.1481,
      "velocity": 118,
      "chip": "ym2612"
    },
    {
      "channel": 2,
      "note": 17,
      "start": 17.7106,
      "duration": 0.1646,
      "velocity": 113,
      "chip": "ym2612"
    },
    {
      "channel": 3,
      "note": 53,
      "start": 17.7118,
      "duration": 0.0969,
      "velocity": 127,
      "chip": "ym2612"
    },
    {
      "channel": 0,
      "note": 29,
      "start": 17.8737,
      "duration": 0.165,
      "velocity": 1,
      "chip": "ym2612"
    },
    {
      "channel": 1,
      "note": 58,
      "start": 17.8749,
      "duration": 0.1649,
      "velocity": 127,
      "chip": "ym2612"
    },
    {
      "channel": 2,
      "note": 17,
      "start": 17.8756,
      "duration": 0.1655,
      "velocity": 113,
      "chip": "ym2612"
    },
    {
      "channel": 3,
      "note": 53,
      "start": 17.8768,
      "duration": 0.0975,
      "velocity": 127,
      "chip": "ym2612"
    },
    {
      "channel": 0,
      "note": 18,
      "start": 18.0398,
      "duration": 0.1483,
      "velocity": 127,
      "chip": "ym2612"
    },
    {
      "channel": 1,
      "note": 62,
      "start": 18.041,
      "duration": 0.1475,
      "velocity": 118,
      "chip": "ym2612"
    },
    {
      "channel": 2,
      "note": 17,
      "start": 18.0422,
      "duration": 0.1639,
      "velocity": 1,
      "chip": "ym2612"
    },
    {
      "channel": 3,
      "note": 53,
      "start": 18.0434,
      "duration": 0.0964,
      "velocity": 127,
      "chip": "ym2612"
    },
    {
      "channel": 0,
      "note": 29,
      "start": 18.2053,
      "duration": 0.1645,
      "velocity": 1,
      "chip": "ym2612"
    },
    {
      "channel": 1,
      "note": 62,
      "start": 18.2059,
      "duration": 0.1481,
      "velocity": 118,
      "chip": "ym2612"
    },
    {
      "channel": 2,
      "note": 17,
      "start": 18.2071,
      "duration": 0.1639,
      "velocity": 113,
      "chip": "ym2612"
    },
    {
      "channel": 3,
      "note": 53,
      "start": 18.2084,
      "duration": 0.097,
      "velocity": 127,
      "chip": "ym2612"
    },
    {
      "channel": 0,
      "note": 29,
      "start": 18.3703,
      "duration": 0.1649,
      "velocity": 1,
      "chip": "ym2612"
    },
    {
      "channel": 1,
      "note": 62,
      "start": 18.3709,
      "duration": 0.1486,
      "velocity": 118,
      "chip": "ym2612"
    },
    {
      "channel": 2,
      "note": 17,
      "start": 18.3716,
      "duration": 0.1662,
      "velocity": 113,
      "chip": "ym2612"
    },
    {
      "channel": 3,
      "note": 53,
      "start": 18.3728,
      "duration": 0.0981,
      "velocity": 127,
      "chip": "ym2612"
    },
    {
      "channel": 0,
      "note": 53,
      "start": 18.5363,
      "duration": 0.0986,
      "velocity": 1,
      "chip": "ym2612"
    },
    {
      "channel": 1,
      "note": 17,
      "start": 18.5377,
      "duration": 0.1144,
      "velocity": 127,
      "chip": "ym2612"
    },
    {
      "channel": 2,
      "note": 53,
      "start": 18.5389,
      "duration": 0.0971,
      "velocity": 1,
      "chip": "ym2612"
    },
    {
      "channel": 3,
      "note": 53,
      "start": 18.5396,
      "duration": 0.0969,
      "velocity": 127,
      "chip": "ym2612"
    },
    {
      "channel": 4,
      "note": 53,
      "start": 18.5402,
      "duration": 0.0969,
      "velocity": 1,
      "chip": "ym2612"
    },
    {
      "channel": 5,
      "note": 53,
      "start": 18.5408,
      "duration": 0.0967,
      "velocity": 1,
      "chip": "ym2612"
    },
    {
      "channel": 3,
      "note": 53,
      "start": 18.7034,
      "duration": 0.0986,
      "velocity": 127,
      "chip": "ym2612"
    },
    {
      "channel": 3,
      "note": 53,
      "start": 18.8689,
      "duration": 0.0986,
      "velocity": 127,
      "chip": "ym2612"
    },
    {
      "channel": 3,
      "note": 53,
      "start": 19.0344,
      "duration": 0.0986,
      "velocity": 127,
      "chip": "ym2612"
    },
    {
      "channel": 1,
      "note": 17,
      "start": 19.1984,
      "duration": 0.1157,
      "velocity": 127,
      "chip": "ym2612"
    },
    {
      "channel": 3,
      "note": 53,
      "start": 19.2001,
      "duration": 0.0984,
      "velocity": 127,
      "chip": "ym2612"
    },
    {
      "channel": 3,
      "note": 53,
      "start": 19.3655,
      "duration": 0.0986,
      "velocity": 127,
      "chip": "ym2612"
    },
    {
      "channel": 3,
      "note": 53,
      "start": 19.531,
      "duration": 0.0986,
      "velocity": 127,
      "chip": "ym2612"
    },
    {
      "channel": 3,
      "note": 53,
      "start": 19.6966,
      "duration": 0.0985,
      "velocity": 127,
      "chip": "ym2612"
    },
    {
      "channel": 1,
      "note": 17,
      "start": 19.8605,
      "duration": 0.1157,
      "velocity": 127,
      "chip": "ym2612"
    },
    {
      "channel": 3,
      "note": 53,
      "start": 19.8622,
      "duration": 0.0985,
      "velocity": 127,
      "chip": "ym2612"
    },
    {
      "channel": 3,
      "note": 53,
      "start": 20.0276,
      "duration": 0.0985,
      "velocity": 127,
      "chip": "ym2612"
    },
    {
      "channel": 3,
      "note": 53,
      "start": 20.1931,
      "duration": 0.0985,
      "velocity": 127,
      "chip": "ym2612"
    },
    {
      "channel": 3,
      "note": 53,
      "start": 20.3587,
      "duration": 0.0985,
      "velocity": 127,
      "chip": "ym2612"
    },
    {
      "channel": 3,
      "note": 53,
      "start": 20.5242,
      "duration": 0.0986,
      "velocity": 127,
      "chip": "ym2612"
    },
    {
      "channel": 3,
      "note": 53,
      "start": 20.6898,
      "duration": 0.0985,
      "velocity": 127,
      "chip": "ym2612"
    },
    {
      "channel": 3,
      "note": 53,
      "start": 20.8552,
      "duration": 0.0986,
      "velocity": 127,
      "chip": "ym2612"
    },
    {
      "channel": 3,
      "note": 53,
      "start": 21.0207,
      "duration": 0.0986,
      "velocity": 127,
      "chip": "ym2612"
    },
    {
      "channel": 0,
      "note": 29,
      "start": 21.1847,
      "duration": 0.1645,
      "velocity": 1,
      "chip": "ym2612"
    },
    {
      "channel": 1,
      "note": 29,
      "start": 21.186,
      "duration": 0.1638,
      "velocity": 1,
      "chip": "ym2612"
    },
    {
      "channel": 2,
      "note": 17,
      "start": 21.1873,
      "duration": 0.1638,
      "velocity": 113,
      "chip": "ym2612"
    },
    {
      "channel": 3,
      "note": 29,
      "start": 21.1888,
      "duration": 0.1629,
      "velocity": 126,
      "chip": "ym2612"
    },
    {
      "channel": 4,
      "note": 53,
      "start": 21.1901,
      "duration": 0.0955,
      "velocity": 127,
      "chip": "ym2612"
    },
    {
      "channel": 5,
      "note": 53,
      "start": 21.1907,
      "duration": 0.0954,
      "velocity": 1,
      "chip": "ym2612"
    },
    {
      "channel": 0,
      "note": 29,
      "start": 21.3497,
      "duration": 0.165,
      "velocity": 1,
      "chip": "ym2612"
    },
    {
      "channel": 1,
      "note": 62,
      "start": 21.3509,
      "duration": 0.1481,
      "velocity": 118,
      "chip": "ym2612"
    },
    {
      "channel": 2,
      "note": 17,
      "start": 21.3515,
      "duration": 0.165,
      "velocity": 113,
      "chip": "ym2612"
    },
    {
      "channel": 3,
      "note": 41,
      "start": 21.3524,
      "duration": 0.1653,
      "velocity": 126,
      "chip": "ym2612"
    },
    {
      "channel": 4,
      "note": 53,
      "start": 21.3537,
      "duration": 0.0973,
      "velocity": 127,
      "chip": "ym2612"
    },
    {
      "channel": 0,
      "note": 18,
      "start": 21.5158,
      "duration": 0.1483,
      "velocity": 127,
      "chip": "ym2612"
    },
    {
      "channel": 1,
      "note": 62,
      "start": 21.5164,
      "duration": 0.1481,
      "velocity": 118,
      "chip": "ym2612"
    },
    {
      "channel": 2,
      "note": 17,
      "start": 21.5176,
      "duration": 0.1644,
      "velocity": 1,
      "chip": "ym2612"
    },
    {
      "channel": 3,
      "note": 36,
      "start": 21.5185,
      "duration": 0.1648,
      "velocity": 126,
      "chip": "ym2612"
    },
    {
      "channel": 4,
      "note": 53,
      "start": 21.5198,
      "duration": 0.0968,
      "velocity": 127,
      "chip": "ym2612"
    },
    {
      "channel": 0,
      "note": 29,
      "start": 21.6813,
      "duration": 0.1645,
      "velocity": 1,
      "chip": "ym2612"
    },
    {
      "channel": 1,
      "note": 62,
      "start": 21.6819,
      "duration": 0.1481,
      "velocity": 118,
      "chip": "ym2612"
    },
    {
      "channel": 2,
      "note": 17,
      "start": 21.6832,
      "duration": 0.1646,
      "velocity": 113,
      "chip": "ym2612"
    },
    {
      "channel": 3,
      "note": 39,
      "start": 21.684,
      "duration": 0.1643,
      "velocity": 126,
      "chip": "ym2612"
    },
    {
      "channel": 4,
      "note": 53,
      "start": 21.6853,
      "duration": 0.0968,
      "velocity": 127,
      "chip": "ym2612"
    },
    {
      "channel": 0,
      "note": 29,
      "start": 21.8463,
      "duration": 0.165,
      "velocity": 1,
      "chip": "ym2612"
    },
    {
      "channel": 1,
      "note": 58,
      "start": 21.8475,
      "duration": 0.1649,
      "velocity": 127,
      "chip": "ym2612"
    },
    {
      "channel": 2,
      "note": 17,
      "start": 21.8482,
      "duration": 0.1655,
      "velocity": 113,
      "chip": "ym2612"
    },
    {
      "channel": 3,
      "note": 24,
      "start": 21.849,
      "duration": 0.1659,
      "velocity": 126,
      "chip": "ym2612"
    },
    {
      "channel": 4,
      "note": 53,
      "start": 21.8503,
      "duration": 0.0973,
      "velocity": 127,
      "chip": "ym2612"
    },
    {
      "channel": 0,
      "note": 18,
      "start": 22.0123,
      "duration": 0.1483,
      "velocity": 127,
      "chip": "ym2612"
    },
    {
      "channel": 1,
      "note": 62,
      "start": 22.0136,
      "duration": 0.1475,
      "velocity": 118,
      "chip": "ym2612"
    },
    {
      "channel": 2,
      "note": 17,
      "start": 22.0148,
      "duration": 0.1639,
      "velocity": 1,
      "chip": "ym2612"
    },
    {
      "channel": 3,
      "note": 36,
      "start": 22.0156,
      "duration": 0.1643,
      "velocity": 126,
      "chip": "ym2612"
    },
    {
      "channel": 4,
      "note": 53,
      "start": 22.0169,
      "duration": 0.0963,
      "velocity": 127,
      "chip": "ym2612"
    },
    {
      "channel": 0,
      "note": 29,
      "start": 22.1779,
      "duration": 0.1644,
      "velocity": 1,
      "chip": "ym2612"
    },
    {
      "channel": 1,
      "note": 62,
      "start": 22.1785,
      "duration": 0.1481,
      "velocity": 118,
      "chip": "ym2612"
    },
    {
      "channel": 2,
      "note": 15,
      "start": 22.1797,
      "duration": 0.1646,
      "velocity": 113,
      "chip": "ym2612"
    },
    {
      "channel": 3,
      "note": 39,
      "start": 22.1806,
      "duration": 0.1643,
      "velocity": 126,
      "chip": "ym2612"
    },
    {
      "channel": 4,
      "note": 53,
      "start": 22.1819,
      "duration": 0.0968,
      "velocity": 127,
      "chip": "ym2612"
    },
    {
      "channel": 0,
      "note": 29,
      "start": 22.3428,
      "duration": 0.1651,
      "velocity": 1,
      "chip": "ym2612"
    },
    {
      "channel": 1,
      "note": 58,
      "start": 22.3441,
      "duration": 0.1644,
      "velocity": 127,
      "chip": "ym2612"
    },
    {
      "channel": 2,
      "note": 17,
      "start": 22.3448,
      "duration": 0.1651,
      "velocity": 113,
      "chip": "ym2612"
    },
    {
      "channel": 3,
      "note": 36,
      "start": 22.3456,
      "duration": 0.1648,
      "velocity": 126,
      "chip": "ym2612"
    },
    {
      "channel": 4,
      "note": 53,
      "start": 22.3469,
      "duration": 0.0974,
      "velocity": 127,
      "chip": "ym2612"
    },
    {
      "channel": 0,
      "note": 29,
      "start": 22.5084,
      "duration": 0.165,
      "velocity": 1,
      "chip": "ym2612"
    },
    {
      "channel": 1,
      "note": 29,
      "start": 22.5097,
      "duration": 0.1644,
      "velocity": 1,
      "chip": "ym2612"
    },
    {
      "channel": 2,
      "note": 17,
      "start": 22.5103,
      "duration": 0.1649,
      "velocity": 113,
      "chip": "ym2612"
    },
    {
      "channel": 3,
      "note": 41,
      "start": 22.5112,
      "duration": 0.1647,
      "velocity": 126,
      "chip": "ym2612"
    },
    {
      "channel": 4,
      "note": 53,
      "start": 22.5125,
      "duration": 0.0973,
      "velocity": 127,
      "chip": "ym2612"
    },
    {
      "channel": 0,
      "note": 29,
      "start": 22.6739,
      "duration": 0.165,
      "velocity": 1,
      "chip": "ym2612"
    },
    {
      "channel": 1,
      "note": 62,
      "start": 22.6751,
      "duration": 0.148,
      "velocity": 118,
      "chip": "ym2612"
    },
    {
      "channel": 2,
      "note": 17,
      "start": 22.6758,
      "duration": 0.165,
      "velocity": 113,
      "chip": "ym2612"
    },
    {
      "channel": 3,
      "note": 41,
      "start": 22.6766,
      "duration": 0.1654,
      "velocity": 126,
      "chip": "ym2612"
    },
    {
      "channel": 4,
      "note": 53,
      "start": 22.6779,
      "duration": 0.0974,
      "velocity": 127,
      "chip": "ym2612"
    },
    {
      "channel": 0,
      "note": 18,
      "start": 22.84,
      "duration": 0.1483,
      "velocity": 127,
      "chip": "ym2612"
    },
    {
      "channel": 1,
      "note": 62,
      "start": 22.8406,
      "duration": 0.1482,
      "velocity": 118,
      "chip": "ym2612"
    },
    {
      "channel": 2,
      "note": 17,
      "start": 22.8418,
      "duration": 0.1645,
      "velocity": 1,
      "chip": "ym2612"
    },
    {
      "channel": 3,
      "note": 36,
      "start": 22.8427,
      "duration": 0.1648,
      "velocity": 126,
      "chip": "ym2612"
    },
    {
      "channel": 4,
      "note": 53,
      "start": 22.844,
      "duration": 0.0968,
      "velocity": 127,
      "chip": "ym2612"
    },
    {
      "channel": 0,
      "note": 29,
      "start": 23.0055,
      "duration": 0.1644,
      "velocity": 1,
      "chip": "ym2612"
    },
    {
      "channel": 1,
      "note": 62,
      "start": 23.0062,
      "duration": 0.1481,
      "velocity": 118,
      "chip": "ym2612"
    },
    {
      "channel": 2,
      "note": 17,
      "start": 23.0074,
      "duration": 0.1646,
      "velocity": 113,
      "chip": "ym2612"
    },
    {
      "channel": 3,
      "note": 39,
      "start": 23.0083,
      "duration": 0.1643,
      "velocity": 126,
      "chip": "ym2612"
    },
    {
      "channel": 4,
      "note": 53,
      "start": 23.0095,
      "duration": 0.0968,
      "velocity": 127,
      "chip": "ym2612"
    },
    {
      "channel": 0,
      "note": 29,
      "start": 23.1705,
      "duration": 0.165,
      "velocity": 1,
      "chip": "ym2612"
    },
    {
      "channel": 1,
      "note": 58,
      "start": 23.1718,
      "duration": 0.1649,
      "velocity": 127,
      "chip": "ym2612"
    },
    {
      "channel": 2,
      "note": 17,
      "start": 23.1724,
      "duration": 0.1655,
      "velocity": 113,
      "chip": "ym2612"
    },
    {
      "channel": 3,
      "note": 24,
      "start": 23.1734,
      "duration": 0.1658,
      "velocity": 126,
      "chip": "ym2612"
    },
    {
      "channel": 4,
      "note": 53,
      "start": 23.1746,
      "duration": 0.0973,
      "velocity": 127,
      "chip": "ym2612"
    },
    {
      "channel": 0,
      "note": 18,
      "start": 23.3366,
      "duration": 0.1482,
      "velocity": 127,
      "chip": "ym2612"
    },
    {
      "channel": 1,
      "note": 62,
      "start": 23.3378,
      "duration": 0.1475,
      "velocity": 118,
      "chip": "ym2612"
    },
    {
      "channel": 2,
      "note": 17,
      "start": 23.339,
      "duration": 0.1639,
      "velocity": 1,
      "chip": "ym2612"
    },
    {
      "channel": 3,
      "note": 36,
      "start": 23.3399,
      "duration": 0.1643,
      "velocity": 126,
      "chip": "ym2612"
    },
    {
      "channel": 4,
      "note": 53,
      "start": 23.3412,
      "duration": 0.0963,
      "velocity": 127,
      "chip": "ym2612"
    },
    {
      "channel": 0,
      "note": 29,
      "start": 23.5021,
      "duration": 0.1644,
      "velocity": 1,
      "chip": "ym2612"
    },
    {
      "channel": 1,
      "note": 62,
      "start": 23.5027,
      "duration": 0.1481,
      "velocity": 118,
      "chip": "ym2612"
    },
    {
      "channel": 2,
      "note": 17,
      "start": 23.504,
      "duration": 0.1638,
      "velocity": 113,
      "chip": "ym2612"
    },
    {
      "channel": 3,
      "note": 39,
      "start": 23.5048,
      "duration": 0.1636,
      "velocity": 126,
      "chip": "ym2612"
    },
    {
      "channel": 4,
      "note": 53,
      "start": 23.5061,
      "duration": 0.0967,
      "velocity": 127,
      "chip": "ym2612"
    },
    {
      "channel": 0,
      "note": 29,
      "start": 23.6671,
      "duration": 0.165,
      "velocity": 1,
      "chip": "ym2612"
    },
    {
      "channel": 1,
      "note": 62,
      "start": 23.6676,
      "duration": 0.1487,
      "velocity": 118,
      "chip": "ym2612"
    },
    {
      "channel": 2,
      "note": 17,
      "start": 23.6683,
      "duration": 0.1658,
      "velocity": 113,
      "chip": "ym2612"
    },
    {
      "channel": 3,
      "note": 36,
      "start": 23.6692,
      "duration": 0.1654,
      "velocity": 126,
      "chip": "ym2612"
    },
    {
      "channel": 4,
      "note": 53,
      "start": 23.6705,
      "duration": 0.0979,
      "velocity": 127,
      "chip": "ym2612"
    },
    {
      "channel": 0,
      "note": 29,
      "start": 23.8326,
      "duration": 0.1651,
      "velocity": 1,
      "chip": "ym2612"
    },
    {
      "channel": 1,
      "note": 29,
      "start": 23.8339,
      "duration": 0.1644,
      "velocity": 1,
      "chip": "ym2612"
    },
    {
      "channel": 2,
      "note": 17,
      "start": 23.8345,
      "duration": 0.1649,
      "velocity": 113,
      "chip": "ym2612"
    },
    {
      "channel": 3,
      "note": 29,
      "start": 23.8354,
      "duration": 0.1647,
      "velocity": 126,
      "chip": "ym2612"
    },
    {
      "channel": 4,
      "note": 53,
      "start": 23.8361,
      "duration": 0.0979,
      "velocity": 127,
      "chip": "ym2612"
    },
    {
      "channel": 5,
      "note": 53,
      "start": 23.8367,
      "duration": 0.0978,
      "velocity": 1,
      "chip": "ym2612"
    },
    {
      "channel": 0,
      "note": 29,
      "start": 23.9981,
      "duration": 0.165,
      "velocity": 1,
      "chip": "ym2612"
    },
    {
      "channel": 1,
      "note": 62,
      "start": 23.9993,
      "duration": 0.1481,
      "velocity": 118,
      "chip": "ym2612"
    },
    {
      "channel": 2,
      "note": 17,
      "start": 23.9999,
      "duration": 0.165,
      "velocity": 113,
      "chip": "ym2612"
    },
    {
      "channel": 3,
      "note": 41,
      "start": 24.0008,
      "duration": 0.1654,
      "velocity": 126,
      "chip": "ym2612"
    },
    {
      "channel": 4,
      "note": 53,
      "start": 24.002,
      "duration": 0.0974,
      "velocity": 127,
      "chip": "ym2612"
    },
    {
      "channel": 0,
      "note": 18,
      "start": 24.1642,
      "duration": 0.1483,
      "velocity": 127,
      "chip": "ym2612"
    },
    {
      "channel": 1,
      "note": 62,
      "start": 24.1648,
      "duration": 0.1481,
      "velocity": 118,
      "chip": "ym2612"
    },
    {
      "channel": 2,
      "note": 17,
      "start": 24.166,
      "duration": 0.1644,
      "velocity": 1,
      "chip": "ym2612"
    },
    {
      "channel": 3,
      "note": 36,
      "start": 24.1669,
      "duration": 0.1648,
      "velocity": 126,
      "chip": "ym2612"
    },
    {
      "channel": 4,
      "note": 53,
      "start": 24.1682,
      "duration": 0.0967,
      "velocity": 127,
      "chip": "ym2612"
    },
    {
      "channel": 0,
      "note": 29,
      "start": 24.3297,
      "duration": 0.1645,
      "velocity": 1,
      "chip": "ym2612"
    },
    {
      "channel": 1,
      "note": 62,
      "start": 24.3303,
      "duration": 0.1481,
      "velocity": 118,
      "chip": "ym2612"
    },
    {
      "channel": 2,
      "note": 17,
      "start": 24.3316,
      "duration": 0.1646,
      "velocity": 113,
      "chip": "ym2612"
    },
    {
      "channel": 3,
      "note": 39,
      "start": 24.3324,
      "duration": 0.1643,
      "velocity": 126,
      "chip": "ym2612"
    },
    {
      "channel": 4,
      "note": 53,
      "start": 24.3337,
      "duration": 0.0968,
      "velocity": 127,
      "chip": "ym2612"
    },
    {
      "channel": 0,
      "note": 29,
      "start": 24.4947,
      "duration": 0.165,
      "velocity": 1,
      "chip": "ym2612"
    },
    {
      "channel": 1,
      "note": 58,
      "start": 24.4959,
      "duration": 0.1649,
      "velocity": 127,
      "chip": "ym2612"
    },
    {
      "channel": 2,
      "note": 17,
      "start": 24.4966,
      "duration": 0.1655,
      "velocity": 113,
      "chip": "ym2612"
    },
    {
      "channel": 3,
      "note": 24,
      "start": 24.4975,
      "duration": 0.1659,
      "velocity": 126,
      "chip": "ym2612"
    },
    {
      "channel": 4,
      "note": 53,
      "start": 24.4987,
      "duration": 0.0973,
      "velocity": 127,
      "chip": "ym2612"
    },
    {
      "channel": 0,
      "note": 18,
      "start": 24.6607,
      "duration": 0.1483,
      "velocity": 127,
      "chip": "ym2612"
    },
    {
      "channel": 1,
      "note": 62,
      "start": 24.662,
      "duration": 0.1475,
      "velocity": 118,
      "chip": "ym2612"
    },
    {
      "channel": 2,
      "note": 17,
      "start": 24.6632,
      "duration": 0.1639,
      "velocity": 1,
      "chip": "ym2612"
    },
    {
      "channel": 3,
      "note": 36,
      "start": 24.6641,
      "duration": 0.1643,
      "velocity": 126,
      "chip": "ym2612"
    },
    {
      "channel": 4,
      "note": 53,
      "start": 24.6653,
      "duration": 0.0962,
      "velocity": 127,
      "chip": "ym2612"
    },
    {
      "channel": 0,
      "note": 29,
      "start": 24.8263,
      "duration": 0.1645,
      "velocity": 1,
      "chip": "ym2612"
    },
    {
      "channel": 1,
      "note": 62,
      "start": 24.8269,
      "duration": 0.1481,
      "velocity": 118,
      "chip": "ym2612"
    },
    {
      "channel": 2,
      "note": 15,
      "start": 24.8281,
      "duration": 0.1646,
      "velocity": 113,
      "chip": "ym2612"
    },
    {
      "channel": 3,
      "note": 39,
      "start": 24.829,
      "duration": 0.1643,
      "velocity": 126,
      "chip": "ym2612"
    },
    {
      "channel": 4,
      "note": 53,
      "start": 24.8303,
      "duration": 0.0967,
      "velocity": 127,
      "chip": "ym2612"
    },
    {
      "channel": 0,
      "note": 29,
      "start": 24.9912,
      "duration": 0.1651,
      "velocity": 1,
      "chip": "ym2612"
    },
    {
      "channel": 1,
      "note": 58,
      "start": 24.9925,
      "duration": 0.1644,
      "velocity": 127,
      "chip": "ym2612"
    },
    {
      "channel": 2,
      "note": 17,
      "start": 24.9931,
      "duration": 0.1651,
      "velocity": 113,
      "chip": "ym2612"
    },
    {
      "channel": 3,
      "note": 36,
      "start": 24.994,
      "duration": 0.1648,
      "velocity": 126,
      "chip": "ym2612"
    },
    {
      "channel": 4,
      "note": 53,
      "start": 24.9953,
      "duration": 0.0973,
      "velocity": 127,
      "chip": "ym2612"
    },
    {
      "channel": 0,
      "note": 29,
      "start": 25.1568,
      "duration": 0.1651,
      "velocity": 1,
      "chip": "ym2612"
    },
    {
      "channel": 1,
      "note": 29,
      "start": 25.158,
      "duration": 0.1644,
      "velocity": 1,
      "chip": "ym2612"
    },
    {
      "channel": 2,
      "note": 17,
      "start": 25.1587,
      "duration": 0.165,
      "velocity": 113,
      "chip": "ym2612"
    },
    {
      "channel": 3,
      "note": 41,
      "start": 25.1595,
      "duration": 0.1648,
      "velocity": 126,
      "chip": "ym2612"
    },
    {
      "channel": 4,
      "note": 53,
      "start": 25.1608,
      "duration": 0.0973,
      "velocity": 127,
      "chip": "ym2612"
    },
    {
      "channel": 0,
      "note": 29,
      "start": 25.3223,
      "duration": 0.1651,
      "velocity": 1,
      "chip": "ym2612"
    },
    {
      "channel": 1,
      "note": 62,
      "start": 25.3235,
      "duration": 0.1481,
      "velocity": 118,
      "chip": "ym2612"
    },
    {
      "channel": 2,
      "note": 17,
      "start": 25.3241,
      "duration": 0.1651,
      "velocity": 113,
      "chip": "ym2612"
    },
    {
      "channel": 3,
      "note": 41,
      "start": 25.325,
      "duration": 0.1654,
      "velocity": 126,
      "chip": "ym2612"
    },
    {
      "channel": 4,
      "note": 53,
      "start": 25.3263,
      "duration": 0.0974,
      "velocity": 127,
      "chip": "ym2612"
    },
    {
      "channel": 0,
      "note": 18,
      "start": 25.4884,
      "duration": 0.1482,
      "velocity": 127,
      "chip": "ym2612"
    },
    {
      "channel": 1,
      "note": 62,
      "start": 25.4891,
      "duration": 0.1481,
      "velocity": 118,
      "chip": "ym2612"
    },
    {
      "channel": 2,
      "note": 17,
      "start": 25.4903,
      "duration": 0.1644,
      "velocity": 1,
      "chip": "ym2612"
    },
    {
      "channel": 3,
      "note": 36,
      "start": 25.4912,
      "duration": 0.1648,
      "velocity": 126,
      "chip": "ym2612"
    },
    {
      "channel": 4,
      "note": 53,
      "start": 25.4924,
      "duration": 0.0968,
      "velocity": 127,
      "chip": "ym2612"
    },
    {
      "channel": 0,
      "note": 29,
      "start": 25.6539,
      "duration": 0.1644,
      "velocity": 1,
      "chip": "ym2612"
    },
    {
      "channel": 1,
      "note": 62,
      "start": 25.6546,
      "duration": 0.148,
      "velocity": 118,
      "chip": "ym2612"
    },
    {
      "channel": 2,
      "note": 17,
      "start": 25.6558,
      "duration": 0.1646,
      "velocity": 113,
      "chip": "ym2612"
    },
    {
      "channel": 3,
      "note": 39,
      "start": 25.6567,
      "duration": 0.1643,
      "velocity": 126,
      "chip": "ym2612"
    },
    {
      "channel": 4,
      "note": 53,
      "start": 25.658,
      "duration": 0.0968,
      "velocity": 127,
      "chip": "ym2612"
    },
    {
      "channel": 0,
      "note": 29,
      "start": 25.8189,
      "duration": 0.165,
      "velocity": 1,
      "chip": "ym2612"
    },
    {
      "channel": 1,
      "note": 58,
      "start": 25.8202,
      "duration": 0.1649,
      "velocity": 127,
      "chip": "ym2612"
    },
    {
      "channel": 2,
      "note": 17,
      "start": 25.8209,
      "duration": 0.1654,
      "velocity": 113,
      "chip": "ym2612"
    },
    {
      "channel": 3,
      "note": 24,
      "start": 25.8217,
      "duration": 0.1659,
      "velocity": 126,
      "chip": "ym2612"
    },
    {
      "channel": 4,
      "note": 53,
      "start": 25.823,
      "duration": 0.0973,
      "velocity": 127,
      "chip": "ym2612"
    },
    {
      "channel": 0,
      "note": 18,
      "start": 25.9849,
      "duration": 0.1483,
      "velocity": 127,
      "chip": "ym2612"
    },
    {
      "channel": 1,
      "note": 62,
      "start": 25.9861,
      "duration": 0.1476,
      "velocity": 118,
      "chip": "ym2612"
    },
    {
      "channel": 2,
      "note": 17,
      "start": 25.9874,
      "duration": 0.1639,
      "velocity": 1,
      "chip": "ym2612"
    },
    {
      "channel": 3,
      "note": 36,
      "start": 25.9883,
      "duration": 0.1642,
      "velocity": 126,
      "chip": "ym2612"
    },
    {
      "channel": 4,
      "note": 53,
      "start": 25.9896,
      "duration": 0.0962,
      "velocity": 127,
      "chip": "ym2612"
    },
    {
      "channel": 0,
      "note": 29,
      "start": 26.1505,
      "duration": 0.1644,
      "velocity": 1,
      "chip": "ym2612"
    },
    {
      "channel": 1,
      "note": 62,
      "start": 26.1511,
      "duration": 0.1481,
      "velocity": 118,
      "chip": "ym2612"
    },
    {
      "channel": 2,
      "note": 17,
      "start": 26.1524,
      "duration": 0.1639,
      "velocity": 113,
      "chip": "ym2612"
    },
    {
      "channel": 3,
      "note": 39,
      "start": 26.1532,
      "duration": 0.1637,
      "velocity": 126,
      "chip": "ym2612"
    },
    {
      "channel": 4,
      "note": 53,
      "start": 26.1545,
      "duration": 0.0968,
      "velocity": 127,
      "chip": "ym2612"
    },
    {
      "channel": 0,
      "note": 29,
      "start": 26.3155,
      "duration": 0.165,
      "velocity": 1,
      "chip": "ym2612"
    },
    {
      "channel": 1,
      "note": 62,
      "start": 26.316,
      "duration": 0.1487,
      "velocity": 118,
      "chip": "ym2612"
    },
    {
      "channel": 2,
      "note": 17,
      "start": 26.3167,
      "duration": 0.1658,
      "velocity": 113,
      "chip": "ym2612"
    },
    {
      "channel": 3,
      "note": 36,
      "start": 26.3176,
      "duration": 0.1655,
      "velocity": 126,
      "chip": "ym2612"
    },
    {
      "channel": 4,
      "note": 53,
      "start": 26.3188,
      "duration": 0.098,
      "velocity": 127,
      "chip": "ym2612"
    },
    {
      "channel": 0,
      "note": 29,
      "start": 26.481,
      "duration": 0.165,
      "velocity": 1,
      "chip": "ym2612"
    },
    {
      "channel": 1,
      "note": 29,
      "start": 26.4823,
      "duration": 0.1644,
      "velocity": 1,
      "chip": "ym2612"
    },
    {
      "channel": 2,
      "note": 17,
      "start": 26.4829,
      "duration": 0.1649,
      "velocity": 113,
      "chip": "ym2612"
    },
    {
      "channel": 3,
      "note": 29,
      "start": 26.4838,
      "duration": 0.1647,
      "velocity": 126,
      "chip": "ym2612"
    },
    {
      "channel": 4,
      "note": 53,
      "start": 26.4845,
      "duration": 0.0979,
      "velocity": 127,
      "chip": "ym2612"
    },
    {
      "channel": 5,
      "note": 53,
      "start": 26.4851,
      "duration": 0.0978,
      "velocity": 1,
      "chip": "ym2612"
    },
    {
      "channel": 0,
      "note": 29,
      "start": 26.6465,
      "duration": 0.165,
      "velocity": 1,
      "chip": "ym2612"
    },
    {
      "channel": 1,
      "note": 62,
      "start": 26.6477,
      "duration": 0.1481,
      "velocity": 118,
      "chip": "ym2612"
    },
    {
      "channel": 2,
      "note": 17,
      "start": 26.6483,
      "duration": 0.165,
      "velocity": 113,
      "chip": "ym2612"
    },
    {
      "channel": 3,
      "note": 41,
      "start": 26.6492,
      "duration": 0.1654,
      "velocity": 126,
      "chip": "ym2612"
    },
    {
      "channel": 4,
      "note": 53,
      "start": 26.6505,
      "duration": 0.0974,
      "velocity": 127,
      "chip": "ym2612"
    },
    {
      "channel": 0,
      "note": 18,
      "start": 26.8126,
      "duration": 0.1482,
      "velocity": 127,
      "chip": "ym2612"
    },
    {
      "channel": 1,
      "note": 62,
      "start": 26.8132,
      "duration": 0.1482,
      "velocity": 118,
      "chip": "ym2612"
    },
    {
      "channel": 2,
      "note": 17,
      "start": 26.8144,
      "duration": 0.1644,
      "velocity": 1,
      "chip": "ym2612"
    },
    {
      "channel": 3,
      "note": 36,
      "start": 26.8153,
      "duration": 0.1648,
      "velocity": 126,
      "chip": "ym2612"
    },
    {
      "channel": 4,
      "note": 53,
      "start": 26.8166,
      "duration": 0.0968,
      "velocity": 127,
      "chip": "ym2612"
    },
    {
      "channel": 0,
      "note": 29,
      "start": 26.9781,
      "duration": 0.1645,
      "velocity": 1,
      "chip": "ym2612"
    },
    {
      "channel": 1,
      "note": 62,
      "start": 26.9788,
      "duration": 0.1481,
      "velocity": 118,
      "chip": "ym2612"
    },
    {
      "channel": 2,
      "note": 17,
      "start": 26.98,
      "duration": 0.1646,
      "velocity": 113,
      "chip": "ym2612"
    },
    {
      "channel": 3,
      "note": 39,
      "start": 26.9809,
      "duration": 0.1643,
      "velocity": 126,
      "chip": "ym2612"
    },
    {
      "channel": 4,
      "note": 53,
      "start": 26.9821,
      "duration": 0.0968,
      "velocity": 127,
      "chip": "ym2612"
    },
    {
      "channel": 0,
      "note": 29,
      "start": 27.1431,
      "duration": 0.165,
      "velocity": 1,
      "chip": "ym2612"
    },
    {
      "channel": 1,
      "note": 58,
      "start": 27.1444,
      "duration": 0.1649,
      "velocity": 127,
      "chip": "ym2612"
    },
    {
      "channel": 2,
      "note": 17,
      "start": 27.145,
      "duration": 0.1655,
      "velocity": 113,
      "chip": "ym2612"
    },
    {
      "channel": 3,
      "note": 24,
      "start": 27.1459,
      "duration": 0.1658,
      "velocity": 126,
      "chip": "ym2612"
    },
    {
      "channel": 4,
      "note": 53,
      "start": 27.1471,
      "duration": 0.0973,
      "velocity": 127,
      "chip": "ym2612"
    },
    {
      "channel": 0,
      "note": 18,
      "start": 27.3092,
      "duration": 0.1482,
      "velocity": 127,
      "chip": "ym2612"
    },
    {
      "channel": 1,
      "note": 62,
      "start": 27.3104,
      "duration": 0.1475,
      "velocity": 118,
      "chip": "ym2612"
    },
    {
      "channel": 2,
      "note": 17,
      "start": 27.3116,
      "duration": 0.1639,
      "velocity": 1,
      "chip": "ym2612"
    },
    {
      "channel": 3,
      "note": 36,
      "start": 27.3124,
      "duration": 0.1643,
      "velocity": 126,
      "chip": "ym2612"
    },
    {
      "channel": 4,
      "note": 53,
      "start": 27.3137,
      "duration": 0.0963,
      "velocity": 127,
      "chip": "ym2612"
    },
    {
      "channel": 0,
      "note": 29,
      "start": 27.4747,
      "duration": 0.1645,
      "velocity": 1,
      "chip": "ym2612"
    },
    {
      "channel": 1,
      "note": 62,
      "start": 27.4753,
      "duration": 0.1481,
      "velocity": 118,
      "chip": "ym2612"
    },
    {
      "channel": 2,
      "note": 15,
      "start": 27.4765,
      "duration": 0.1646,
      "velocity": 113,
      "chip": "ym2612"
    },
    {
      "channel": 3,
      "note": 39,
      "start": 27.4774,
      "duration": 0.1643,
      "velocity": 126,
      "chip": "ym2612"
    },
    {
      "channel": 4,
      "note": 53,
      "start": 27.4787,
      "duration": 0.0968,
      "velocity": 127,
      "chip": "ym2612"
    },
    {
      "channel": 0,
      "note": 29,
      "start": 27.6396,
      "duration": 0.1651,
      "velocity": 1,
      "chip": "ym2612"
    },
    {
      "channel": 1,
      "note": 58,
      "start": 27.6409,
      "duration": 0.1644,
      "velocity": 127,
      "chip": "ym2612"
    },
    {
      "channel": 2,
      "note": 17,
      "start": 27.6415,
      "duration": 0.1651,
      "velocity": 113,
      "chip": "ym2612"
    },
    {
      "channel": 3,
      "note": 36,
      "start": 27.6424,
      "duration": 0.1648,
      "velocity": 126,
      "chip": "ym2612"
    },
    {
      "channel": 4,
      "note": 53,
      "start": 27.6437,
      "duration": 0.0973,
      "velocity": 127,
      "chip": "ym2612"
    },
    {
      "channel": 0,
      "note": 29,
      "start": 27.8051,
      "duration": 0.1651,
      "velocity": 1,
      "chip": "ym2612"
    },
    {
      "channel": 1,
      "note": 29,
      "start": 27.8064,
      "duration": 0.1644,
      "velocity": 1,
      "chip": "ym2612"
    },
    {
      "channel": 2,
      "note": 17,
      "start": 27.8071,
      "duration": 0.165,
      "velocity": 113,
      "chip": "ym2612"
    },
    {
      "channel": 3,
      "note": 41,
      "start": 27.808,
      "duration": 0.1648,
      "velocity": 126,
      "chip": "ym2612"
    },
    {
      "channel": 4,
      "note": 53,
      "start": 27.8092,
      "duration": 0.0974,
      "velocity": 127,
      "chip": "ym2612"
    },
    {
      "channel": 0,
      "note": 29,
      "start": 27.9707,
      "duration": 0.1649,
      "velocity": 1,
      "chip": "ym2612"
    },
    {
      "channel": 1,
      "note": 62,
      "start": 27.972,
      "duration": 0.148,
      "velocity": 118,
      "chip": "ym2612"
    },
    {
      "channel": 2,
      "note": 17,
      "start": 27.9726,
      "duration": 0.165,
      "velocity": 113,
      "chip": "ym2612"
    },
    {
      "channel": 3,
      "note": 41,
      "start": 27.9734,
      "duration": 0.1654,
      "velocity": 126,
      "chip": "ym2612"
    },
    {
      "channel": 4,
      "note": 53,
      "start": 27.9747,
      "duration": 0.0974,
      "velocity": 127,
      "chip": "ym2612"
    },
    {
      "channel": 0,
      "note": 18,
      "start": 28.1368,
      "duration": 0.1483,
      "velocity": 127,
      "chip": "ym2612"
    },
    {
      "channel": 1,
      "note": 62,
      "start": 28.1374,
      "duration": 0.1481,
      "velocity": 118,
      "chip": "ym2612"
    },
    {
      "channel": 2,
      "note": 17,
      "start": 28.1387,
      "duration": 0.1644,
      "velocity": 1,
      "chip": "ym2612"
    },
    {
      "channel": 3,
      "note": 36,
      "start": 28.1395,
      "duration": 0.1649,
      "velocity": 126,
      "chip": "ym2612"
    },
    {
      "channel": 4,
      "note": 53,
      "start": 28.1408,
      "duration": 0.0969,
      "velocity": 127,
      "chip": "ym2612"
    },
    {
      "channel": 0,
      "note": 29,
      "start": 28.3023,
      "duration": 0.1645,
      "velocity": 1,
      "chip": "ym2612"
    },
    {
      "channel": 1,
      "note": 62,
      "start": 28.3029,
      "duration": 0.1481,
      "velocity": 118,
      "chip": "ym2612"
    },
    {
      "channel": 2,
      "note": 17,
      "start": 28.3042,
      "duration": 0.1645,
      "velocity": 113,
      "chip": "ym2612"
    },
    {
      "channel": 3,
      "note": 39,
      "start": 28.3051,
      "duration": 0.1642,
      "velocity": 126,
      "chip": "ym2612"
    },
    {
      "channel": 4,
      "note": 53,
      "start": 28.3064,
      "duration": 0.0967,
      "velocity": 127,
      "chip": "ym2612"
    },
    {
      "channel": 0,
      "note": 29,
      "start": 28.4672,
      "duration": 0.1651,
      "velocity": 1,
      "chip": "ym2612"
    },
    {
      "channel": 1,
      "note": 58,
      "start": 28.4686,
      "duration": 0.165,
      "velocity": 127,
      "chip": "ym2612"
    },
    {
      "channel": 2,
      "note": 17,
      "start": 28.4692,
      "duration": 0.1655,
      "velocity": 113,
      "chip": "ym2612"
    },
    {
      "channel": 3,
      "note": 24,
      "start": 28.47,
      "duration": 0.1659,
      "velocity": 126,
      "chip": "ym2612"
    },
    {
      "channel": 4,
      "note": 53,
      "start": 28.4714,
      "duration": 0.0973,
      "velocity": 127,
      "chip": "ym2612"
    },
    {
      "channel": 0,
      "note": 18,
      "start": 28.6333,
      "duration": 0.1483,
      "velocity": 127,
      "chip": "ym2612"
    },
    {
      "channel": 1,
      "note": 62,
      "start": 28.6346,
      "duration": 0.1475,
      "velocity": 118,
      "chip": "ym2612"
    },
    {
      "channel": 2,
      "note": 17,
      "start": 28.6358,
      "duration": 0.1639,
      "velocity": 1,
      "chip": "ym2612"
    },
    {
      "channel": 3,
      "note": 36,
      "start": 28.6366,
      "duration": 0.1642,
      "velocity": 126,
      "chip": "ym2612"
    },
    {
      "channel": 4,
      "note": 53,
      "start": 28.638,
      "duration": 0.0962,
      "velocity": 127,
      "chip": "ym2612"
    },
    {
      "channel": 0,
      "note": 29,
      "start": 28.7989,
      "duration": 0.1644,
      "velocity": 1,
      "chip": "ym2612"
    },
    {
      "channel": 1,
      "note": 62,
      "start": 28.7995,
      "duration": 0.1481,
      "velocity": 118,
      "chip": "ym2612"
    },
    {
      "channel": 2,
      "note": 17,
      "start": 28.8008,
      "duration": 0.1639,
      "velocity": 113,
      "chip": "ym2612"
    },
    {
      "channel": 3,
      "note": 39,
      "start": 28.8016,
      "duration": 0.1637,
      "velocity": 126,
      "chip": "ym2612"
    },
    {
      "channel": 4,
      "note": 53,
      "start": 28.8029,
      "duration": 0.0968,
      "velocity": 127,
      "chip": "ym2612"
    },
    {
      "channel": 0,
      "note": 29,
      "start": 28.9639,
      "duration": 0.165,
      "velocity": 1,
      "chip": "ym2612"
    },
    {
      "channel": 1,
      "note": 62,
      "start": 28.9644,
      "duration": 0.1487,
      "velocity": 118,
      "chip": "ym2612"
    },
    {
      "channel": 2,
      "note": 17,
      "start": 28.9651,
      "duration": 0.1658,
      "velocity": 113,
      "chip": "ym2612"
    },
    {
      "channel": 3,
      "note": 36,
      "start": 28.966,
      "duration": 0.1655,
      "velocity": 126,
      "chip": "ym2612"
    },
    {
      "channel": 4,
      "note": 53,
      "start": 28.9672,
      "duration": 0.098,
      "velocity": 127,
      "chip": "ym2612"
    },
    {
      "channel": 0,
      "note": 29,
      "start": 29.1294,
      "duration": 0.165,
      "velocity": 1,
      "chip": "ym2612"
    },
    {
      "channel": 1,
      "note": 29,
      "start": 29.1307,
      "duration": 0.1644,
      "velocity": 1,
      "chip": "ym2612"
    },
    {
      "channel": 2,
      "note": 17,
      "start": 29.1313,
      "duration": 0.165,
      "velocity": 113,
      "chip": "ym2612"
    },
    {
      "channel": 3,
      "note": 29,
      "start": 29.1322,
      "duration": 0.1647,
      "velocity": 126,
      "chip": "ym2612"
    },
    {
      "channel": 4,
      "note": 53,
      "start": 29.1329,
      "duration": 0.0979,
      "velocity": 127,
      "chip": "ym2612"
    },
    {
      "channel": 5,
      "note": 53,
      "start": 29.1335,
      "duration": 0.0978,
      "velocity": 1,
      "chip": "ym2612"
    },
    {
      "channel": 0,
      "note": 29,
      "start": 29.2949,
      "duration": 0.165,
      "velocity": 1,
      "chip": "ym2612"
    },
    {
      "channel": 1,
      "note": 62,
      "start": 29.2961,
      "duration": 0.148,
      "velocity": 118,
      "chip": "ym2612"
    },
    {
      "channel": 2,
      "note": 17,
      "start": 29.2968,
      "duration": 0.165,
      "velocity": 113,
      "chip": "ym2612"
    },
    {
      "channel": 3,
      "note": 41,
      "start": 29.2976,
      "duration": 0.1654,
      "velocity": 126,
      "chip": "ym2612"
    },
    {
      "channel": 4,
      "note": 53,
      "start": 29.2989,
      "duration": 0.0974,
      "velocity": 127,
      "chip": "ym2612"
    },
    {
      "channel": 0,
      "note": 18,
      "start": 29.461,
      "duration": 0.1482,
      "velocity": 127,
      "chip": "ym2612"
    },
    {
      "channel": 1,
      "note": 62,
      "start": 29.4616,
      "duration": 0.1481,
      "velocity": 118,
      "chip": "ym2612"
    },
    {
      "channel": 2,
      "note": 17,
      "start": 29.4629,
      "duration": 0.1644,
      "velocity": 1,
      "chip": "ym2612"
    },
    {
      "channel": 3,
      "note": 36,
      "start": 29.4637,
      "duration": 0.1648,
      "velocity": 126,
      "chip": "ym2612"
    },
    {
      "channel": 4,
      "note": 53,
      "start": 29.4649,
      "duration": 0.0968,
      "velocity": 127,
      "chip": "ym2612"
    },
    {
      "channel": 0,
      "note": 29,
      "start": 29.6265,
      "duration": 0.1644,
      "velocity": 1,
      "chip": "ym2612"
    },
    {
      "channel": 1,
      "note": 62,
      "start": 29.6272,
      "duration": 0.1481,
      "velocity": 118,
      "chip": "ym2612"
    },
    {
      "channel": 2,
      "note": 17,
      "start": 29.6284,
      "duration": 0.1646,
      "velocity": 113,
      "chip": "ym2612"
    },
    {
      "channel": 3,
      "note": 39,
      "start": 29.6293,
      "duration": 0.1643,
      "velocity": 126,
      "chip": "ym2612"
    },
    {
      "channel": 4,
      "note": 53,
      "start": 29.6305,
      "duration": 0.0968,
      "velocity": 127,
      "chip": "ym2612"
    },
    {
      "channel": 0,
      "note": 29,
      "start": 29.7915,
      "duration": 0.165,
      "velocity": 1,
      "chip": "ym2612"
    },
    {
      "channel": 1,
      "note": 58,
      "start": 29.7927,
      "duration": 0.165,
      "velocity": 127,
      "chip": "ym2612"
    },
    {
      "channel": 2,
      "note": 17,
      "start": 29.7934,
      "duration": 0.1655,
      "velocity": 113,
      "chip": "ym2612"
    },
    {
      "channel": 3,
      "note": 24,
      "start": 29.7943,
      "duration": 0.1658,
      "velocity": 126,
      "chip": "ym2612"
    },
    {
      "channel": 4,
      "note": 53,
      "start": 29.7956,
      "duration": 0.0973,
      "velocity": 127,
      "chip": "ym2612"
    },
    {
      "channel": 0,
      "note": 18,
      "start": 29.9576,
      "duration": 0.1482,
      "velocity": 127,
      "chip": "ym2612"
    },
    {
      "channel": 1,
      "note": 62,
      "start": 29.9588,
      "duration": 0.1475,
      "velocity": 118,
      "chip": "ym2612"
    },
    {
      "channel": 2,
      "note": 17,
      "start": 29.96,
      "duration": 0.1639,
      "velocity": 1,
      "chip": "ym2612"
    },
    {
      "channel": 3,
      "note": 36,
      "start": 29.9608,
      "duration": 0.1643,
      "velocity": 126,
      "chip": "ym2612"
    },
    {
      "channel": 4,
      "note": 53,
      "start": 29.9621,
      "duration": 0.0963,
      "velocity": 127,
      "chip": "ym2612"
    },
    {
      "channel": 0,
      "note": 29,
      "start": 30.1231,
      "duration": 0.1645,
      "velocity": 1,
      "chip": "ym2612"
    },
    {
      "channel": 1,
      "note": 62,
      "start": 30.1237,
      "duration": 0.1481,
      "velocity": 118,
      "chip": "ym2612"
    },
    {
      "channel": 2,
      "note": 15,
      "start": 30.1249,
      "duration": 0.1646,
      "velocity": 113,
      "chip": "ym2612"
    },
    {
      "channel": 3,
      "note": 39,
      "start": 30.1258,
      "duration": 0.1643,
      "velocity": 126,
      "chip": "ym2612"
    },
    {
      "channel": 4,
      "note": 53,
      "start": 30.1271,
      "duration": 0.0968,
      "velocity": 127,
      "chip": "ym2612"
    },
    {
      "channel": 0,
      "note": 29,
      "start": 30.288,
      "duration": 0.1651,
      "velocity": 1,
      "chip": "ym2612"
    },
    {
      "channel": 1,
      "note": 58,
      "start": 30.2893,
      "duration": 0.1644,
      "velocity": 127,
      "chip": "ym2612"
    },
    {
      "channel": 2,
      "note": 17,
      "start": 30.29,
      "duration": 0.1651,
      "velocity": 113,
      "chip": "ym2612"
    },
    {
      "channel": 3,
      "note": 36,
      "start": 30.2908,
      "duration": 0.1648,
      "velocity": 126,
      "chip": "ym2612"
    },
    {
      "channel": 4,
      "note": 53,
      "start": 30.2921,
      "duration": 0.0974,
      "velocity": 127,
      "chip": "ym2612"
    },
    {
      "channel": 0,
      "note": 29,
      "start": 30.4536,
      "duration": 0.165,
      "velocity": 1,
      "chip": "ym2612"
    },
    {
      "channel": 1,
      "note": 29,
      "start": 30.4549,
      "duration": 0.1643,
      "velocity": 1,
      "chip": "ym2612"
    },
    {
      "channel": 2,
      "note": 17,
      "start": 30.4555,
      "duration": 0.165,
      "velocity": 113,
      "chip": "ym2612"
    },
    {
      "channel": 3,
      "note": 41,
      "start": 30.4564,
      "duration": 0.1647,
      "velocity": 126,
      "chip": "ym2612"
    },
    {
      "channel": 4,
      "note": 53,
      "start": 30.4577,
      "duration": 0.0973,
      "velocity": 127,
      "chip": "ym2612"
    },
    {
      "channel": 0,
      "note": 29,
      "start": 30.6191,
      "duration": 0.165,
      "velocity": 1,
      "chip": "ym2612"
    },
    {
      "channel": 1,
      "note": 62,
      "start": 30.6204,
      "duration": 0.148,
      "velocity": 118,
      "chip": "ym2612"
    },
    {
      "channel": 2,
      "note": 17,
      "start": 30.621,
      "duration": 0.1649,
      "velocity": 113,
      "chip": "ym2612"
    },
    {
      "channel": 3,
      "note": 41,
      "start": 30.6218,
      "duration": 0.1654,
      "velocity": 126,
      "chip": "ym2612"
    },
    {
      "channel": 4,
      "note": 53,
      "start": 30.6231,
      "duration": 0.0974,
      "velocity": 127,
      "chip": "ym2612"
    },
    {
      "channel": 0,
      "note": 18,
      "start": 30.7852,
      "duration": 0.1483,
      "velocity": 127,
      "chip": "ym2612"
    },
    {
      "channel": 1,
      "note": 62,
      "start": 30.7858,
      "duration": 0.1481,
      "velocity": 118,
      "chip": "ym2612"
    },
    {
      "channel": 2,
      "note": 17,
      "start": 30.787,
      "duration": 0.1644,
      "velocity": 1,
      "chip": "ym2612"
    },
    {
      "channel": 3,
      "note": 36,
      "start": 30.7879,
      "duration": 0.1648,
      "velocity": 126,
      "chip": "ym2612"
    },
    {
      "channel": 4,
      "note": 53,
      "start": 30.7892,
      "duration": 0.0968,
      "velocity": 127,
      "chip": "ym2612"
    },
    {
      "channel": 0,
      "note": 29,
      "start": 30.9507,
      "duration": 0.1645,
      "velocity": 1,
      "chip": "ym2612"
    },
    {
      "channel": 1,
      "note": 62,
      "start": 30.9513,
      "duration": 0.1481,
      "velocity": 118,
      "chip": "ym2612"
    },
    {
      "channel": 2,
      "note": 17,
      "start": 30.9525,
      "duration": 0.1646,
      "velocity": 113,
      "chip": "ym2612"
    },
    {
      "channel": 3,
      "note": 39,
      "start": 30.9534,
      "duration": 0.1643,
      "velocity": 126,
      "chip": "ym2612"
    },
    {
      "channel": 4,
      "note": 53,
      "start": 30.9548,
      "duration": 0.0967,
      "velocity": 127,
      "chip": "ym2612"
    },
    {
      "channel": 0,
      "note": 29,
      "start": 31.1156,
      "duration": 0.165,
      "velocity": 1,
      "chip": "ym2612"
    },
    {
      "channel": 1,
      "note": 58,
      "start": 31.1169,
      "duration": 0.165,
      "velocity": 127,
      "chip": "ym2612"
    },
    {
      "channel": 2,
      "note": 17,
      "start": 31.1176,
      "duration": 0.1655,
      "velocity": 113,
      "chip": "ym2612"
    },
    {
      "channel": 3,
      "note": 24,
      "start": 31.1185,
      "duration": 0.1659,
      "velocity": 126,
      "chip": "ym2612"
    },
    {
      "channel": 4,
      "note": 53,
      "start": 31.1197,
      "duration": 0.0973,
      "velocity": 127,
      "chip": "ym2612"
    },
    {
      "channel": 0,
      "note": 18,
      "start": 31.2817,
      "duration": 0.1483,
      "velocity": 127,
      "chip": "ym2612"
    },
    {
      "channel": 1,
      "note": 62,
      "start": 31.2829,
      "duration": 0.1475,
      "velocity": 118,
      "chip": "ym2612"
    },
    {
      "channel": 2,
      "note": 17,
      "start": 31.2842,
      "duration": 0.1639,
      "velocity": 1,
      "chip": "ym2612"
    },
    {
      "channel": 3,
      "note": 36,
      "start": 31.2851,
      "duration": 0.1642,
      "velocity": 126,
      "chip": "ym2612"
    },
    {
      "channel": 4,
      "note": 53,
      "start": 31.2863,
      "duration": 0.0963,
      "velocity": 127,
      "chip": "ym2612"
    },
    {
      "channel": 0,
      "note": 29,
      "start": 31.4473,
      "duration": 0.1644,
      "velocity": 1,
      "chip": "ym2612"
    },
    {
      "channel": 1,
      "note": 62,
      "start": 31.4479,
      "duration": 0.1481,
      "velocity": 118,
      "chip": "ym2612"
    },
    {
      "channel": 2,
      "note": 17,
      "start": 31.4491,
      "duration": 0.1639,
      "velocity": 113,
      "chip": "ym2612"
    },
    {
      "channel": 3,
      "note": 39,
      "start": 31.45,
      "duration": 0.1637,
      "velocity": 126,
      "chip": "ym2612"
    },
    {
      "channel": 4,
      "note": 53,
      "start": 31.4513,
      "duration": 0.0968,
      "velocity": 127,
      "chip": "ym2612"
    },
    {
      "channel": 0,
      "note": 29,
      "start": 31.6123,
      "duration": 0.165,
      "velocity": 1,
      "chip": "ym2612"
    },
    {
      "channel": 1,
      "note": 62,
      "start": 31.6129,
      "duration": 0.1487,
      "velocity": 118,
      "chip": "ym2612"
    },
    {
      "channel": 2,
      "note": 17,
      "start": 31.6135,
      "duration": 0.1662,
      "velocity": 113,
      "chip": "ym2612"
    },
    {
      "channel": 3,
      "note": 36,
      "start": 31.6144,
      "duration": 0.1666,
      "velocity": 126,
      "chip": "ym2612"
    },
    {
      "channel": 4,
      "note": 53,
      "start": 31.6156,
      "duration": 0.098,
      "velocity": 127,
      "chip": "ym2612"
    },
    {
      "channel": 0,
      "note": 53,
      "start": 31.7784,
      "duration": 0.0985,
      "velocity": 1,
      "chip": "ym2612"
    },
    {
      "channel": 1,
      "note": 17,
      "start": 31.7796,
      "duration": 0.1641,
      "velocity": 113,
      "chip": "ym2612"
    },
    {
      "channel": 2,
      "note": 53,
      "start": 31.7808,
      "duration": 0.0971,
      "velocity": 1,
      "chip": "ym2612"
    },
    {
      "channel": 3,
      "note": 53,
      "start": 31.7821,
      "duration": 0.0964,
      "velocity": 127,
      "chip": "ym2612"
    },
    {
      "channel": 4,
      "note": 53,
      "start": 31.7833,
      "duration": 0.0957,
      "velocity": 1,
      "chip": "ym2612"
    },
    {
      "channel": 5,
      "note": 53,
      "start": 31.7839,
      "duration": 0.0956,
      "velocity": 1,
      "chip": "ym2612"
    },
    {
      "channel": 3,
      "note": 53,
      "start": 31.9454,
      "duration": 0.0985,
      "velocity": 127,
      "chip": "ym2612"
    },
    {
      "channel": 1,
      "note": 17,
      "start": 32.1093,
      "duration": 0.1654,
      "velocity": 113,
      "chip": "ym2612"
    },
    {
      "channel": 3,
      "note": 53,
      "start": 32.111,
      "duration": 0.0984,
      "velocity": 127,
      "chip": "ym2612"
    },
    {
      "channel": 3,
      "note": 53,
      "start": 32.2764,
      "duration": 0.0985,
      "velocity": 127,
      "chip": "ym2612"
    },
    {
      "channel": 1,
      "note": 17,
      "start": 32.441,
      "duration": 0.1151,
      "velocity": 127,
      "chip": "ym2612"
    },
    {
      "channel": 3,
      "note": 53,
      "start": 32.4427,
      "duration": 0.0979,
      "velocity": 127,
      "chip": "ym2612"
    },
    {
      "channel": 3,
      "note": 53,
      "start": 32.6075,
      "duration": 0.0985,
      "velocity": 127,
      "chip": "ym2612"
    },
    {
      "channel": 1,
      "note": 17,
      "start": 32.772,
      "duration": 0.1644,
      "velocity": 113,
      "chip": "ym2612"
    },
    {
      "channel": 3,
      "note": 53,
      "start": 32.7737,
      "duration": 0.0978,
      "velocity": 127,
      "chip": "ym2612"
    },
    {
      "channel": 1,
      "note": 17,
      "start": 32.9369,
      "duration": 0.1654,
      "velocity": 113,
      "chip": "ym2612"
    },
    {
      "channel": 3,
      "note": 53,
      "start": 32.9387,
      "duration": 0.0984,
      "velocity": 127,
      "chip": "ym2612"
    },
    {
      "channel": 3,
      "note": 53,
      "start": 33.1041,
      "duration": 0.0985,
      "velocity": 127,
      "chip": "ym2612"
    },
    {
      "channel": 3,
      "note": 53,
      "start": 33.2695,
      "duration": 0.0986,
      "velocity": 127,
      "chip": "ym2612"
    },
    {
      "channel": 1,
      "note": 17,
      "start": 33.4335,
      "duration": 0.1654,
      "velocity": 113,
      "chip": "ym2612"
    },
    {
      "channel": 3,
      "note": 53,
      "start": 33.4352,
      "duration": 0.0984,
      "velocity": 127,
      "chip": "ym2612"
    },
    {
      "channel": 3,
      "note": 53,
      "start": 33.6006,
      "duration": 0.0985,
      "velocity": 127,
      "chip": "ym2612"
    },
    {
      "channel": 1,
      "note": 17,
      "start": 33.7651,
      "duration": 0.1151,
      "velocity": 127,
      "chip": "ym2612"
    },
    {
      "channel": 3,
      "note": 53,
      "start": 33.7669,
      "duration": 0.0978,
      "velocity": 127,
      "chip": "ym2612"
    },
    {
      "channel": 3,
      "note": 53,
      "start": 33.9317,
      "duration": 0.0986,
      "velocity": 127,
      "chip": "ym2612"
    },
    {
      "channel": 3,
      "note": 53,
      "start": 34.0972,
      "duration": 0.0986,
      "velocity": 127,
      "chip": "ym2612"
    },
    {
      "channel": 3,
      "note": 53,
      "start": 34.2627,
      "duration": 0.0986,
      "velocity": 127,
      "chip": "ym2612"
    },
    {
      "channel": 0,
      "note": 53,
      "start": 34.4261,
      "duration": 0.0992,
      "velocity": 1,
      "chip": "ym2612"
    },
    {
      "channel": 1,
      "note": 17,
      "start": 34.4274,
      "duration": 0.1646,
      "velocity": 113,
      "chip": "ym2612"
    },
    {
      "channel": 2,
      "note": 53,
      "start": 34.428,
      "duration": 0.0983,
      "velocity": 1,
      "chip": "ym2612"
    },
    {
      "channel": 3,
      "note": 53,
      "start": 34.4287,
      "duration": 0.0982,
      "velocity": 127,
      "chip": "ym2612"
    },
    {
      "channel": 4,
      "note": 53,
      "start": 34.4293,
      "duration": 0.098,
      "velocity": 1,
      "chip": "ym2612"
    },
    {
      "channel": 5,
      "note": 53,
      "start": 34.43,
      "duration": 0.0979,
      "velocity": 1,
      "chip": "ym2612"
    },
    {
      "channel": 3,
      "note": 53,
      "start": 34.5938,
      "duration": 0.0985,
      "velocity": 127,
      "chip": "ym2612"
    },
    {
      "channel": 1,
      "note": 17,
      "start": 34.7577,
      "duration": 0.1654,
      "velocity": 113,
      "chip": "ym2612"
    },
    {
      "channel": 3,
      "note": 53,
      "start": 34.7594,
      "duration": 0.0984,
      "velocity": 127,
      "chip": "ym2612"
    },
    {
      "channel": 3,
      "note": 53,
      "start": 34.9248,
      "duration": 0.0985,
      "velocity": 127,
      "chip": "ym2612"
    },
    {
      "channel": 1,
      "note": 17,
      "start": 35.0894,
      "duration": 0.1152,
      "velocity": 127,
      "chip": "ym2612"
    },
    {
      "channel": 3,
      "note": 53,
      "start": 35.0911,
      "duration": 0.0979,
      "velocity": 127,
      "chip": "ym2612"
    },
    {
      "channel": 3,
      "note": 53,
      "start": 35.2559,
      "duration": 0.0986,
      "velocity": 127,
      "chip": "ym2612"
    },
    {
      "channel": 1,
      "note": 17,
      "start": 35.4204,
      "duration": 0.1644,
      "velocity": 113,
      "chip": "ym2612"
    },
    {
      "channel": 3,
      "note": 53,
      "start": 35.4221,
      "duration": 0.0978,
      "velocity": 127,
      "chip": "ym2612"
    },
    {
      "channel": 1,
      "note": 17,
      "start": 35.5853,
      "duration": 0.1654,
      "velocity": 113,
      "chip": "ym2612"
    },
    {
      "channel": 3,
      "note": 53,
      "start": 35.5871,
      "duration": 0.0983,
      "velocity": 127,
      "chip": "ym2612"
    },
    {
      "channel": 3,
      "note": 53,
      "start": 35.7524,
      "duration": 0.0985,
      "velocity": 127,
      "chip": "ym2612"
    },
    {
      "channel": 3,
      "note": 53,
      "start": 35.9179,
      "duration": 0.0985,
      "velocity": 127,
      "chip": "ym2612"
    },
    {
      "channel": 1,
      "note": 17,
      "start": 36.0819,
      "duration": 0.1654,
      "velocity": 113,
      "chip": "ym2612"
    },
    {
      "channel": 3,
      "note": 53,
      "start": 36.0836,
      "duration": 0.0985,
      "velocity": 127,
      "chip": "ym2612"
    },
    {
      "channel": 3,
      "note": 53,
      "start": 36.249,
      "duration": 0.0986,
      "velocity": 127,
      "chip": "ym2612"
    },
    {
      "channel": 1,
      "note": 17,
      "start": 36.4136,
      "duration": 0.1151,
      "velocity": 127,
      "chip": "ym2612"
    },
    {
      "channel": 3,
      "note": 53,
      "start": 36.4153,
      "duration": 0.0979,
      "velocity": 127,
      "chip": "ym2612"
    },
    {
      "channel": 3,
      "note": 53,
      "start": 36.5801,
      "duration": 0.0986,
      "velocity": 127,
      "chip": "ym2612"
    },
    {
      "channel": 3,
      "note": 53,
      "start": 36.7456,
      "duration": 0.0986,
      "velocity": 127,
      "chip": "ym2612"
    },
    {
      "channel": 3,
      "note": 53,
      "start": 36.9111,
      "duration": 0.0986,
      "velocity": 127,
      "chip": "ym2612"
    },
    {
      "channel": 0,
      "note": 53,
      "start": 37.0746,
      "duration": 0.0992,
      "velocity": 1,
      "chip": "ym2612"
    },
    {
      "channel": 1,
      "note": 17,
      "start": 37.0758,
      "duration": 0.1646,
      "velocity": 113,
      "chip": "ym2612"
    },
    {
      "channel": 2,
      "note": 53,
      "start": 37.0764,
      "duration": 0.0983,
      "velocity": 1,
      "chip": "ym2612"
    },
    {
      "channel": 3,
      "note": 53,
      "start": 37.0771,
      "duration": 0.0982,
      "velocity": 127,
      "chip": "ym2612"
    },
    {
      "channel": 4,
      "note": 53,
      "start": 37.0777,
      "duration": 0.098,
      "velocity": 1,
      "chip": "ym2612"
    },
    {
      "channel": 5,
      "note": 53,
      "start": 37.0784,
      "duration": 0.0979,
      "velocity": 1,
      "chip": "ym2612"
    },
    {
      "channel": 3,
      "note": 53,
      "start": 37.2422,
      "duration": 0.0985,
      "velocity": 127,
      "chip": "ym2612"
    },
    {
      "channel": 1,
      "note": 17,
      "start": 37.4061,
      "duration": 0.1654,
      "velocity": 113,
      "chip": "ym2612"
    },
    {
      "channel": 3,
      "note": 53,
      "start": 37.4078,
      "duration": 0.0984,
      "velocity": 127,
      "chip": "ym2612"
    },
    {
      "channel": 3,
      "note": 53,
      "start": 37.5733,
      "duration": 0.0985,
      "velocity": 127,
      "chip": "ym2612"
    },
    {
      "channel": 1,
      "note": 17,
      "start": 37.7378,
      "duration": 0.1151,
      "velocity": 127,
      "chip": "ym2612"
    },
    {
      "channel": 3,
      "note": 53,
      "start": 37.7396,
      "duration": 0.0978,
      "velocity": 127,
      "chip": "ym2612"
    },
    {
      "channel": 3,
      "note": 53,
      "start": 37.9043,
      "duration": 0.0985,
      "velocity": 127,
      "chip": "ym2612"
    },
    {
      "channel": 1,
      "note": 17,
      "start": 38.0688,
      "duration": 0.1644,
      "velocity": 113,
      "chip": "ym2612"
    },
    {
      "channel": 3,
      "note": 53,
      "start": 38.0705,
      "duration": 0.0978,
      "velocity": 127,
      "chip": "ym2612"
    },
    {
      "channel": 1,
      "note": 17,
      "start": 38.2337,
      "duration": 0.1654,
      "velocity": 113,
      "chip": "ym2612"
    },
    {
      "channel": 3,
      "note": 53,
      "start": 38.2354,
      "duration": 0.0984,
      "velocity": 127,
      "chip": "ym2612"
    },
    {
      "channel": 3,
      "note": 53,
      "start": 38.4008,
      "duration": 0.0985,
      "velocity": 127,
      "chip": "ym2612"
    },
    {
      "channel": 3,
      "note": 53,
      "start": 38.5663,
      "duration": 0.0985,
      "velocity": 127,
      "chip": "ym2612"
    },
    {
      "channel": 1,
      "note": 17,
      "start": 38.7303,
      "duration": 0.1654,
      "velocity": 113,
      "chip": "ym2612"
    },
    {
      "channel": 3,
      "note": 53,
      "start": 38.732,
      "duration": 0.0985,
      "velocity": 127,
      "chip": "ym2612"
    },
    {
      "channel": 3,
      "note": 53,
      "start": 38.8974,
      "duration": 0.0986,
      "velocity": 127,
      "chip": "ym2612"
    },
    {
      "channel": 1,
      "note": 17,
      "start": 39.062,
      "duration": 0.1151,
      "velocity": 127,
      "chip": "ym2612"
    },
    {
      "channel": 3,
      "note": 53,
      "start": 39.0637,
      "duration": 0.0979,
      "velocity": 127,
      "chip": "ym2612"
    },
    {
      "channel": 3,
      "note": 53,
      "start": 39.2285,
      "duration": 0.0986,
      "velocity": 127,
      "chip": "ym2612"
    },
    {
      "channel": 3,
      "note": 53,
      "start": 39.394,
      "duration": 0.0986,
      "velocity": 127,
      "chip": "ym2612"
    },
    {
      "channel": 3,
      "note": 53,
      "start": 39.5595,
      "duration": 0.0986,
      "velocity": 127,
      "chip": "ym2612"
    },
    {
      "channel": 0,
      "note": 53,
      "start": 39.723,
      "duration": 0.0992,
      "velocity": 1,
      "chip": "ym2612"
    },
    {
      "channel": 1,
      "note": 17,
      "start": 39.7242,
      "duration": 0.1646,
      "velocity": 113,
      "chip": "ym2612"
    },
    {
      "channel": 2,
      "note": 53,
      "start": 39.7248,
      "duration": 0.0983,
      "velocity": 1,
      "chip": "ym2612"
    },
    {
      "channel": 3,
      "note": 53,
      "start": 39.7255,
      "duration": 0.0982,
      "velocity": 127,
      "chip": "ym2612"
    },
    {
      "channel": 4,
      "note": 53,
      "start": 39.7261,
      "duration": 0.098,
      "velocity": 1,
      "chip": "ym2612"
    },
    {
      "channel": 5,
      "note": 53,
      "start": 39.7268,
      "duration": 0.0978,
      "velocity": 1,
      "chip": "ym2612"
    },
    {
      "channel": 3,
      "note": 53,
      "start": 39.8906,
      "duration": 0.0985,
      "velocity": 127,
      "chip": "ym2612"
    },
    {
      "channel": 1,
      "note": 17,
      "start": 40.0545,
      "duration": 0.1653,
      "velocity": 113,
      "chip": "ym2612"
    },
    {
      "channel": 3,
      "note": 53,
      "start": 40.0562,
      "duration": 0.0985,
      "velocity": 127,
      "chip": "ym2612"
    },
    {
      "channel": 3,
      "note": 53,
      "start": 40.2216,
      "duration": 0.0985,
      "velocity": 127,
      "chip": "ym2612"
    },
    {
      "channel": 1,
      "note": 17,
      "start": 40.3861,
      "duration": 0.1152,
      "velocity": 127,
      "chip": "ym2612"
    },
    {
      "channel": 3,
      "note": 53,
      "start": 40.388,
      "duration": 0.0978,
      "velocity": 127,
      "chip": "ym2612"
    },
    {
      "channel": 3,
      "note": 53,
      "start": 40.5527,
      "duration": 0.0986,
      "velocity": 127,
      "chip": "ym2612"
    },
    {
      "channel": 1,
      "note": 17,
      "start": 40.7171,
      "duration": 0.1645,
      "velocity": 113,
      "chip": "ym2612"
    },
    {
      "channel": 3,
      "note": 53,
      "start": 40.7189,
      "duration": 0.0978,
      "velocity": 127,
      "chip": "ym2612"
    },
    {
      "channel": 1,
      "note": 17,
      "start": 40.8821,
      "duration": 0.1654,
      "velocity": 113,
      "chip": "ym2612"
    },
    {
      "channel": 3,
      "note": 53,
      "start": 40.8839,
      "duration": 0.0984,
      "velocity": 127,
      "chip": "ym2612"
    },
    {
      "channel": 3,
      "note": 53,
      "start": 41.0493,
      "duration": 0.0985,
      "velocity": 127,
      "chip": "ym2612"
    },
    {
      "channel": 3,
      "note": 53,
      "start": 41.2148,
      "duration": 0.0985,
      "velocity": 127,
      "chip": "ym2612"
    },
    {
      "channel": 1,
      "note": 17,
      "start": 41.3787,
      "duration": 0.1654,
      "velocity": 113,
      "chip": "ym2612"
    },
    {
      "channel": 3,
      "note": 53,
      "start": 41.3804,
      "duration": 0.0984,
      "velocity": 127,
      "chip": "ym2612"
    },
    {
      "channel": 3,
      "note": 53,
      "start": 41.5458,
      "duration": 0.0985,
      "velocity": 127,
      "chip": "ym2612"
    },
    {
      "channel": 1,
      "note": 17,
      "start": 41.7104,
      "duration": 0.1151,
      "velocity": 127,
      "chip": "ym2612"
    },
    {
      "channel": 3,
      "note": 53,
      "start": 41.7121,
      "duration": 0.0979,
      "velocity": 127,
      "chip": "ym2612"
    },
    {
      "channel": 3,
      "note": 53,
      "start": 41.8769,
      "duration": 0.0985,
      "velocity": 127,
      "chip": "ym2612"
    },
    {
      "channel": 3,
      "note": 53,
      "start": 42.0424,
      "duration": 0.0985,
      "velocity": 127,
      "chip": "ym2612"
    },
    {
      "channel": 3,
      "note": 53,
      "start": 42.208,
      "duration": 0.0986,
      "velocity": 127,
      "chip": "ym2612"
    },
    {
      "channel": 0,
      "note": 44,
      "start": 42.3721,
      "duration": 0.1643,
      "velocity": 114,
      "chip": "ym2612"
    },
    {
      "channel": 1,
      "note": 48,
      "start": 42.3735,
      "duration": 0.1639,
      "velocity": 108,
      "chip": "ym2612"
    },
    {
      "channel": 2,
      "note": 17,
      "start": 42.3747,
      "duration": 0.1634,
      "velocity": 113,
      "chip": "ym2612"
    },
    {
      "channel": 3,
      "note": 29,
      "start": 42.376,
      "duration": 0.1627,
      "velocity": 1,
      "chip": "ym2612"
    },
    {
      "channel": 4,
      "note": 53,
      "start": 42.3772,
      "duration": 0.0957,
      "velocity": 127,
      "chip": "ym2612"
    },
    {
      "channel": 5,
      "note": 29,
      "start": 42.3787,
      "duration": 0.1625,
      "velocity": 126,
      "chip": "ym2612"
    },
    {
      "channel": 0,
      "note": 44,
      "start": 42.5372,
      "duration": 0.1648,
      "velocity": 114,
      "chip": "ym2612"
    },
    {
      "channel": 1,
      "note": 41,
      "start": 42.5378,
      "duration": 0.165,
      "velocity": 108,
      "chip": "ym2612"
    },
    {
      "channel": 2,
      "note": 17,
      "start": 42.5385,
      "duration": 0.165,
      "velocity": 113,
      "chip": "ym2612"
    },
    {
      "channel": 3,
      "note": 62,
      "start": 42.5397,
      "duration": 0.1478,
      "velocity": 118,
      "chip": "ym2612"
    },
    {
      "channel": 4,
      "note": 53,
      "start": 42.541,
      "duration": 0.0974,
      "velocity": 127,
      "chip": "ym2612"
    },
    {
      "channel": 5,
      "note": 41,
      "start": 42.5419,
      "duration": 0.1648,
      "velocity": 126,
      "chip": "ym2612"
    },
    {
      "channel": 0,
      "note": 44,
      "start": 42.7026,
      "duration": 0.1649,
      "velocity": 114,
      "chip": "ym2612"
    },
    {
      "channel": 1,
      "note": 44,
      "start": 42.7033,
      "duration": 0.165,
      "velocity": 108,
      "chip": "ym2612"
    },
    {
      "channel": 2,
      "note": 17,
      "start": 42.7046,
      "duration": 0.1644,
      "velocity": 1,
      "chip": "ym2612"
    },
    {
      "channel": 3,
      "note": 62,
      "start": 42.7052,
      "duration": 0.1477,
      "velocity": 118,
      "chip": "ym2612"
    },
    {
      "channel": 4,
      "note": 53,
      "start": 42.7065,
      "duration": 0.0973,
      "velocity": 127,
      "chip": "ym2612"
    },
    {
      "channel": 5,
      "note": 36,
      "start": 42.7074,
      "duration": 0.1648,
      "velocity": 126,
      "chip": "ym2612"
    },
    {
      "channel": 0,
      "note": 44,
      "start": 42.8682,
      "duration": 0.1647,
      "velocity": 114,
      "chip": "ym2612"
    },
    {
      "channel": 1,
      "note": 48,
      "start": 42.8689,
      "duration": 0.1654,
      "velocity": 108,
      "chip": "ym2612"
    },
    {
      "channel": 2,
      "note": 17,
      "start": 42.8701,
      "duration": 0.1649,
      "velocity": 113,
      "chip": "ym2612"
    },
    {
      "channel": 3,
      "note": 62,
      "start": 42.8707,
      "duration": 0.1477,
      "velocity": 118,
      "chip": "ym2612"
    },
    {
      "channel": 4,
      "note": 53,
      "start": 42.8721,
      "duration": 0.0973,
      "velocity": 127,
      "chip": "ym2612"
    },
    {
      "channel": 5,
      "note": 39,
      "start": 42.8729,
      "duration": 0.1653,
      "velocity": 126,
      "chip": "ym2612"
    },
    {
      "channel": 0,
      "note": 44,
      "start": 43.0341,
      "duration": 0.0821,
      "velocity": 112,
      "chip": "ym2612"
    },
    {
      "channel": 1,
      "note": 49,
      "start": 43.0348,
      "duration": 0.1651,
      "velocity": 108,
      "chip": "ym2612"
    },
    {
      "channel": 2,
      "note": 17,
      "start": 43.0354,
      "duration": 0.1652,
      "velocity": 113,
      "chip": "ym2612"
    },
    {
      "channel": 3,
      "note": 58,
      "start": 43.0368,
      "duration": 0.1651,
      "velocity": 127,
      "chip": "ym2612"
    },
    {
      "channel": 4,
      "note": 53,
      "start": 43.0381,
      "duration": 0.0967,
      "velocity": 127,
      "chip": "ym2612"
    },
    {
      "channel": 5,
      "note": 24,
      "start": 43.0389,
      "duration": 0.1655,
      "velocity": 126,
      "chip": "ym2612"
    },
    {
      "channel": 0,
      "note": 44,
      "start": 43.1998,
      "duration": 0.1642,
      "velocity": 114,
      "chip": "ym2612"
    },
    {
      "channel": 1,
      "note": 41,
      "start": 43.2005,
      "duration": 0.1644,
      "velocity": 108,
      "chip": "ym2612"
    },
    {
      "channel": 2,
      "note": 17,
      "start": 43.2017,
      "duration": 0.1639,
      "velocity": 1,
      "chip": "ym2612"
    },
    {
      "channel": 3,
      "note": 62,
      "start": 43.2029,
      "duration": 0.1466,
      "velocity": 118,
      "chip": "ym2612"
    },
    {
      "channel": 4,
      "note": 53,
      "start": 43.2043,
      "duration": 0.0961,
      "velocity": 127,
      "chip": "ym2612"
    },
    {
      "channel": 5,
      "note": 36,
      "start": 43.2051,
      "duration": 0.1636,
      "velocity": 126,
      "chip": "ym2612"
    },
    {
      "channel": 0,
      "note": 44,
      "start": 43.3648,
      "duration": 0.1648,
      "velocity": 114,
      "chip": "ym2612"
    },
    {
      "channel": 1,
      "note": 44,
      "start": 43.3655,
      "duration": 0.1649,
      "velocity": 108,
      "chip": "ym2612"
    },
    {
      "channel": 2,
      "note": 15,
      "start": 43.3667,
      "duration": 0.1645,
      "velocity": 113,
      "chip": "ym2612"
    },
    {
      "channel": 3,
      "note": 62,
      "start": 43.3673,
      "duration": 0.1477,
      "velocity": 118,
      "chip": "ym2612"
    },
    {
      "channel": 4,
      "note": 53,
      "start": 43.3686,
      "duration": 0.0973,
      "velocity": 127,
      "chip": "ym2612"
    },
    {
      "channel": 5,
      "note": 39,
      "start": 43.3695,
      "duration": 0.1649,
      "velocity": 126,
      "chip": "ym2612"
    },
    {
      "channel": 0,
      "note": 44,
      "start": 43.5303,
      "duration": 0.1648,
      "velocity": 114,
      "chip": "ym2612"
    },
    {
      "channel": 1,
      "note": 49,
      "start": 43.531,
      "duration": 0.165,
      "velocity": 108,
      "chip": "ym2612"
    },
    {
      "channel": 2,
      "note": 17,
      "start": 43.5316,
      "duration": 0.1651,
      "velocity": 113,
      "chip": "ym2612"
    },
    {
      "channel": 3,
      "note": 58,
      "start": 43.5329,
      "duration": 0.1644,
      "velocity": 127,
      "chip": "ym2612"
    },
    {
      "channel": 4,
      "note": 53,
      "start": 43.5342,
      "duration": 0.0973,
      "velocity": 127,
      "chip": "ym2612"
    },
    {
      "channel": 5,
      "note": 36,
      "start": 43.5351,
      "duration": 0.1648,
      "velocity": 126,
      "chip": "ym2612"
    },
    {
      "channel": 0,
      "note": 44,
      "start": 43.6958,
      "duration": 0.1648,
      "velocity": 114,
      "chip": "ym2612"
    },
    {
      "channel": 1,
      "note": 48,
      "start": 43.6965,
      "duration": 0.1649,
      "velocity": 108,
      "chip": "ym2612"
    },
    {
      "channel": 2,
      "note": 17,
      "start": 43.6971,
      "duration": 0.1651,
      "velocity": 113,
      "chip": "ym2612"
    },
    {
      "channel": 3,
      "note": 29,
      "start": 43.6984,
      "duration": 0.1644,
      "velocity": 1,
      "chip": "ym2612"
    },
    {
      "channel": 4,
      "note": 53,
      "start": 43.6997,
      "duration": 0.0973,
      "velocity": 127,
      "chip": "ym2612"
    },
    {
      "channel": 5,
      "note": 41,
      "start": 43.7006,
      "duration": 0.1647,
      "velocity": 126,
      "chip": "ym2612"
    },
    {
      "channel": 0,
      "note": 44,
      "start": 43.8613,
      "duration": 0.1648,
      "velocity": 114,
      "chip": "ym2612"
    },
    {
      "channel": 1,
      "note": 41,
      "start": 43.862,
      "duration": 0.165,
      "velocity": 108,
      "chip": "ym2612"
    },
    {
      "channel": 2,
      "note": 17,
      "start": 43.8627,
      "duration": 0.165,
      "velocity": 113,
      "chip": "ym2612"
    },
    {
      "channel": 3,
      "note": 62,
      "start": 43.8639,
      "duration": 0.1477,
      "velocity": 118,
      "chip": "ym2612"
    },
    {
      "channel": 4,
      "note": 53,
      "start": 43.8651,
      "duration": 0.0973,
      "velocity": 127,
      "chip": "ym2612"
    },
    {
      "channel": 5,
      "note": 41,
      "start": 43.866,
      "duration": 0.1648,
      "velocity": 126,
      "chip": "ym2612"
    },
    {
      "channel": 0,
      "note": 44,
      "start": 44.0268,
      "duration": 0.1648,
      "velocity": 114,
      "chip": "ym2612"
    },
    {
      "channel": 1,
      "note": 44,
      "start": 44.0276,
      "duration": 0.165,
      "velocity": 108,
      "chip": "ym2612"
    },
    {
      "channel": 2,
      "note": 17,
      "start": 44.0288,
      "duration": 0.1644,
      "velocity": 1,
      "chip": "ym2612"
    },
    {
      "channel": 3,
      "note": 62,
      "start": 44.0294,
      "duration": 0.1478,
      "velocity": 118,
      "chip": "ym2612"
    },
    {
      "channel": 4,
      "note": 53,
      "start": 44.0307,
      "duration": 0.0973,
      "velocity": 127,
      "chip": "ym2612"
    },
    {
      "channel": 5,
      "note": 36,
      "start": 44.0316,
      "duration": 0.1648,
      "velocity": 126,
      "chip": "ym2612"
    },
    {
      "channel": 0,
      "note": 44,
      "start": 44.1924,
      "duration": 0.1648,
      "velocity": 114,
      "chip": "ym2612"
    },
    {
      "channel": 1,
      "note": 48,
      "start": 44.1931,
      "duration": 0.1654,
      "velocity": 108,
      "chip": "ym2612"
    },
    {
      "channel": 2,
      "note": 17,
      "start": 44.1943,
      "duration": 0.1649,
      "velocity": 113,
      "chip": "ym2612"
    },
    {
      "channel": 3,
      "note": 62,
      "start": 44.1949,
      "duration": 0.1478,
      "velocity": 118,
      "chip": "ym2612"
    },
    {
      "channel": 4,
      "note": 53,
      "start": 44.1963,
      "duration": 0.0973,
      "velocity": 127,
      "chip": "ym2612"
    },
    {
      "channel": 5,
      "note": 39,
      "start": 44.1971,
      "duration": 0.1653,
      "velocity": 126,
      "chip": "ym2612"
    },
    {
      "channel": 0,
      "note": 44,
      "start": 44.3583,
      "duration": 0.082,
      "velocity": 112,
      "chip": "ym2612"
    },
    {
      "channel": 1,
      "note": 49,
      "start": 44.359,
      "duration": 0.1651,
      "velocity": 108,
      "chip": "ym2612"
    },
    {
      "channel": 2,
      "note": 17,
      "start": 44.3597,
      "duration": 0.1651,
      "velocity": 113,
      "chip": "ym2612"
    },
    {
      "channel": 3,
      "note": 58,
      "start": 44.361,
      "duration": 0.1651,
      "velocity": 127,
      "chip": "ym2612"
    },
    {
      "channel": 4,
      "note": 53,
      "start": 44.3622,
      "duration": 0.0968,
      "velocity": 127,
      "chip": "ym2612"
    },
    {
      "channel": 5,
      "note": 24,
      "start": 44.3631,
      "duration": 0.1655,
      "velocity": 126,
      "chip": "ym2612"
    },
    {
      "channel": 0,
      "note": 44,
      "start": 44.524,
      "duration": 0.1642,
      "velocity": 114,
      "chip": "ym2612"
    },
    {
      "channel": 1,
      "note": 41,
      "start": 44.5247,
      "duration": 0.1644,
      "velocity": 108,
      "chip": "ym2612"
    },
    {
      "channel": 2,
      "note": 17,
      "start": 44.5259,
      "duration": 0.1639,
      "velocity": 1,
      "chip": "ym2612"
    },
    {
      "channel": 3,
      "note": 62,
      "start": 44.5271,
      "duration": 0.1466,
      "velocity": 118,
      "chip": "ym2612"
    },
    {
      "channel": 4,
      "note": 53,
      "start": 44.5284,
      "duration": 0.0962,
      "velocity": 127,
      "chip": "ym2612"
    },
    {
      "channel": 5,
      "note": 36,
      "start": 44.5293,
      "duration": 0.1637,
      "velocity": 126,
      "chip": "ym2612"
    },
    {
      "channel": 0,
      "note": 44,
      "start": 44.6889,
      "duration": 0.1649,
      "velocity": 114,
      "chip": "ym2612"
    },
    {
      "channel": 1,
      "note": 44,
      "start": 44.6896,
      "duration": 0.165,
      "velocity": 108,
      "chip": "ym2612"
    },
    {
      "channel": 2,
      "note": 17,
      "start": 44.6908,
      "duration": 0.1646,
      "velocity": 113,
      "chip": "ym2612"
    },
    {
      "channel": 3,
      "note": 62,
      "start": 44.6915,
      "duration": 0.1478,
      "velocity": 118,
      "chip": "ym2612"
    },
    {
      "channel": 4,
      "note": 53,
      "start": 44.6928,
      "duration": 0.0973,
      "velocity": 127,
      "chip": "ym2612"
    },
    {
      "channel": 5,
      "note": 39,
      "start": 44.6937,
      "duration": 0.1642,
      "velocity": 126,
      "chip": "ym2612"
    },
    {
      "channel": 0,
      "note": 44,
      "start": 44.8545,
      "duration": 0.1648,
      "velocity": 114,
      "chip": "ym2612"
    },
    {
      "channel": 1,
      "note": 49,
      "start": 44.8552,
      "duration": 0.165,
      "velocity": 108,
      "chip": "ym2612"
    },
    {
      "channel": 2,
      "note": 17,
      "start": 44.8559,
      "duration": 0.1651,
      "velocity": 113,
      "chip": "ym2612"
    },
    {
      "channel": 3,
      "note": 62,
      "start": 44.8564,
      "duration": 0.1484,
      "velocity": 118,
      "chip": "ym2612"
    },
    {
      "channel": 4,
      "note": 53,
      "start": 44.8578,
      "duration": 0.098,
      "velocity": 127,
      "chip": "ym2612"
    },
    {
      "channel": 5,
      "note": 36,
      "start": 44.8586,
      "duration": 0.1649,
      "velocity": 126,
      "chip": "ym2612"
    },
    {
      "channel": 0,
      "note": 44,
      "start": 45.02,
      "duration": 0.1648,
      "velocity": 114,
      "chip": "ym2612"
    },
    {
      "channel": 1,
      "note": 50,
      "start": 45.0207,
      "duration": 0.1649,
      "velocity": 108,
      "chip": "ym2612"
    },
    {
      "channel": 2,
      "note": 17,
      "start": 45.0214,
      "duration": 0.165,
      "velocity": 113,
      "chip": "ym2612"
    },
    {
      "channel": 3,
      "note": 29,
      "start": 45.0227,
      "duration": 0.1644,
      "velocity": 1,
      "chip": "ym2612"
    },
    {
      "channel": 4,
      "note": 53,
      "start": 45.0234,
      "duration": 0.098,
      "velocity": 127,
      "chip": "ym2612"
    },
    {
      "channel": 5,
      "note": 29,
      "start": 45.0242,
      "duration": 0.1653,
      "velocity": 126,
      "chip": "ym2612"
    },
    {
      "channel": 0,
      "note": 46,
      "start": 45.1855,
      "duration": 0.1648,
      "velocity": 114,
      "chip": "ym2612"
    },
    {
      "channel": 1,
      "note": 43,
      "start": 45.1862,
      "duration": 0.165,
      "velocity": 108,
      "chip": "ym2612"
    },
    {
      "channel": 2,
      "note": 19,
      "start": 45.1868,
      "duration": 0.165,
      "velocity": 113,
      "chip": "ym2612"
    },
    {
      "channel": 3,
      "note": 62,
      "start": 45.1881,
      "duration": 0.1477,
      "velocity": 118,
      "chip": "ym2612"
    },
    {
      "channel": 4,
      "note": 53,
      "start": 45.1894,
      "duration": 0.0973,
      "velocity": 127,
      "chip": "ym2612"
    },
    {
      "channel": 5,
      "note": 43,
      "start": 45.1903,
      "duration": 0.1648,
      "velocity": 126,
      "chip": "ym2612"
    },
    {
      "channel": 0,
      "note": 46,
      "start": 45.351,
      "duration": 0.1649,
      "velocity": 114,
      "chip": "ym2612"
    },
    {
      "channel": 1,
      "note": 46,
      "start": 45.3517,
      "duration": 0.165,
      "velocity": 108,
      "chip": "ym2612"
    },
    {
      "channel": 2,
      "note": 19,
      "start": 45.3529,
      "duration": 0.1644,
      "velocity": 1,
      "chip": "ym2612"
    },
    {
      "channel": 3,
      "note": 62,
      "start": 45.3536,
      "duration": 0.1477,
      "velocity": 118,
      "chip": "ym2612"
    },
    {
      "channel": 4,
      "note": 53,
      "start": 45.3549,
      "duration": 0.0973,
      "velocity": 127,
      "chip": "ym2612"
    },
    {
      "channel": 5,
      "note": 38,
      "start": 45.3558,
      "duration": 0.1648,
      "velocity": 126,
      "chip": "ym2612"
    },
    {
      "channel": 0,
      "note": 46,
      "start": 45.5166,
      "duration": 0.1648,
      "velocity": 114,
      "chip": "ym2612"
    },
    {
      "channel": 1,
      "note": 50,
      "start": 45.5172,
      "duration": 0.1655,
      "velocity": 108,
      "chip": "ym2612"
    },
    {
      "channel": 2,
      "note": 19,
      "start": 45.5185,
      "duration": 0.1649,
      "velocity": 113,
      "chip": "ym2612"
    },
    {
      "channel": 3,
      "note": 62,
      "start": 45.5191,
      "duration": 0.1478,
      "velocity": 118,
      "chip": "ym2612"
    },
    {
      "channel": 4,
      "note": 53,
      "start": 45.5204,
      "duration": 0.0973,
      "velocity": 127,
      "chip": "ym2612"
    },
    {
      "channel": 5,
      "note": 41,
      "start": 45.5213,
      "duration": 0.1653,
      "velocity": 126,
      "chip": "ym2612"
    },
    {
      "channel": 0,
      "note": 46,
      "start": 45.6825,
      "duration": 0.0821,
      "velocity": 112,
      "chip": "ym2612"
    },
    {
      "channel": 1,
      "note": 51,
      "start": 45.6832,
      "duration": 0.1651,
      "velocity": 108,
      "chip": "ym2612"
    },
    {
      "channel": 2,
      "note": 19,
      "start": 45.6839,
      "duration": 0.1652,
      "velocity": 113,
      "chip": "ym2612"
    },
    {
      "channel": 3,
      "note": 58,
      "start": 45.6852,
      "duration": 0.1651,
      "velocity": 127,
      "chip": "ym2612"
    },
    {
      "channel": 4,
      "note": 53,
      "start": 45.6865,
      "duration": 0.0968,
      "velocity": 127,
      "chip": "ym2612"
    },
    {
      "channel": 5,
      "note": 26,
      "start": 45.6873,
      "duration": 0.1654,
      "velocity": 126,
      "chip": "ym2612"
    },
    {
      "channel": 0,
      "note": 46,
      "start": 45.8482,
      "duration": 0.1643,
      "velocity": 114,
      "chip": "ym2612"
    },
    {
      "channel": 1,
      "note": 43,
      "start": 45.8489,
      "duration": 0.1644,
      "velocity": 108,
      "chip": "ym2612"
    },
    {
      "channel": 2,
      "note": 19,
      "start": 45.8501,
      "duration": 0.1639,
      "velocity": 1,
      "chip": "ym2612"
    },
    {
      "channel": 3,
      "note": 62,
      "start": 45.8513,
      "duration": 0.1466,
      "velocity": 118,
      "chip": "ym2612"
    },
    {
      "channel": 4,
      "note": 53,
      "start": 45.8526,
      "duration": 0.0962,
      "velocity": 127,
      "chip": "ym2612"
    },
    {
      "channel": 5,
      "note": 38,
      "start": 45.8535,
      "duration": 0.1636,
      "velocity": 126,
      "chip": "ym2612"
    },
    {
      "channel": 0,
      "note": 46,
      "start": 46.0132,
      "duration": 0.1648,
      "velocity": 114,
      "chip": "ym2612"
    },
    {
      "channel": 1,
      "note": 46,
      "start": 46.0139,
      "duration": 0.1649,
      "velocity": 108,
      "chip": "ym2612"
    },
    {
      "channel": 2,
      "note": 17,
      "start": 46.0151,
      "duration": 0.1644,
      "velocity": 113,
      "chip": "ym2612"
    },
    {
      "channel": 3,
      "note": 62,
      "start": 46.0157,
      "duration": 0.1477,
      "velocity": 118,
      "chip": "ym2612"
    },
    {
      "channel": 4,
      "note": 53,
      "start": 46.017,
      "duration": 0.0973,
      "velocity": 127,
      "chip": "ym2612"
    },
    {
      "channel": 5,
      "note": 41,
      "start": 46.0179,
      "duration": 0.1649,
      "velocity": 126,
      "chip": "ym2612"
    },
    {
      "channel": 0,
      "note": 46,
      "start": 46.1787,
      "duration": 0.1648,
      "velocity": 114,
      "chip": "ym2612"
    },
    {
      "channel": 1,
      "note": 51,
      "start": 46.1794,
      "duration": 0.165,
      "velocity": 108,
      "chip": "ym2612"
    },
    {
      "channel": 2,
      "note": 19,
      "start": 46.18,
      "duration": 0.165,
      "velocity": 113,
      "chip": "ym2612"
    },
    {
      "channel": 3,
      "note": 58,
      "start": 46.1813,
      "duration": 0.1644,
      "velocity": 127,
      "chip": "ym2612"
    },
    {
      "channel": 4,
      "note": 53,
      "start": 46.1826,
      "duration": 0.0973,
      "velocity": 127,
      "chip": "ym2612"
    },
    {
      "channel": 5,
      "note": 38,
      "start": 46.1835,
      "duration": 0.1648,
      "velocity": 126,
      "chip": "ym2612"
    },
    {
      "channel": 0,
      "note": 46,
      "start": 46.3442,
      "duration": 0.1648,
      "velocity": 114,
      "chip": "ym2612"
    },
    {
      "channel": 1,
      "note": 50,
      "start": 46.3449,
      "duration": 0.1649,
      "velocity": 108,
      "chip": "ym2612"
    },
    {
      "channel": 2,
      "note": 19,
      "start": 46.3456,
      "duration": 0.165,
      "velocity": 113,
      "chip": "ym2612"
    },
    {
      "channel": 3,
      "note": 29,
      "start": 46.3468,
      "duration": 0.1644,
      "velocity": 1,
      "chip": "ym2612"
    },
    {
      "channel": 4,
      "note": 53,
      "start": 46.3481,
      "duration": 0.0973,
      "velocity": 127,
      "chip": "ym2612"
    },
    {
      "channel": 5,
      "note": 43,
      "start": 46.349,
      "duration": 0.1647,
      "velocity": 126,
      "chip": "ym2612"
    },
    {
      "channel": 0,
      "note": 46,
      "start": 46.5097,
      "duration": 0.1648,
      "velocity": 114,
      "chip": "ym2612"
    },
    {
      "channel": 1,
      "note": 43,
      "start": 46.5104,
      "duration": 0.165,
      "velocity": 108,
      "chip": "ym2612"
    },
    {
      "channel": 2,
      "note": 19,
      "start": 46.5111,
      "duration": 0.165,
      "velocity": 113,
      "chip": "ym2612"
    },
    {
      "channel": 3,
      "note": 62,
      "start": 46.5122,
      "duration": 0.1478,
      "velocity": 118,
      "chip": "ym2612"
    },
    {
      "channel": 4,
      "note": 53,
      "start": 46.5136,
      "duration": 0.0973,
      "velocity": 127,
      "chip": "ym2612"
    },
    {
      "channel": 5,
      "note": 43,
      "start": 46.5144,
      "duration": 0.1648,
      "velocity": 126,
      "chip": "ym2612"
    },
    {
      "channel": 0,
      "note": 46,
      "start": 46.6753,
      "duration": 0.1648,
      "velocity": 114,
      "chip": "ym2612"
    },
    {
      "channel": 1,
      "note": 46,
      "start": 46.676,
      "duration": 0.1649,
      "velocity": 108,
      "chip": "ym2612"
    },
    {
      "channel": 2,
      "note": 19,
      "start": 46.6772,
      "duration": 0.1644,
      "velocity": 1,
      "chip": "ym2612"
    },
    {
      "channel": 3,
      "note": 62,
      "start": 46.6778,
      "duration": 0.1477,
      "velocity": 118,
      "chip": "ym2612"
    },
    {
      "channel": 4,
      "note": 53,
      "start": 46.6791,
      "duration": 0.0973,
      "velocity": 127,
      "chip": "ym2612"
    },
    {
      "channel": 5,
      "note": 38,
      "start": 46.68,
      "duration": 0.1647,
      "velocity": 126,
      "chip": "ym2612"
    },
    {
      "channel": 0,
      "note": 46,
      "start": 46.8408,
      "duration": 0.1648,
      "velocity": 114,
      "chip": "ym2612"
    },
    {
      "channel": 1,
      "note": 50,
      "start": 46.8415,
      "duration": 0.1654,
      "velocity": 108,
      "chip": "ym2612"
    },
    {
      "channel": 2,
      "note": 19,
      "start": 46.8427,
      "duration": 0.1649,
      "velocity": 113,
      "chip": "ym2612"
    },
    {
      "channel": 3,
      "note": 62,
      "start": 46.8433,
      "duration": 0.1477,
      "velocity": 118,
      "chip": "ym2612"
    },
    {
      "channel": 4,
      "note": 53,
      "start": 46.8446,
      "duration": 0.0973,
      "velocity": 127,
      "chip": "ym2612"
    },
    {
      "channel": 5,
      "note": 41,
      "start": 46.8455,
      "duration": 0.1653,
      "velocity": 126,
      "chip": "ym2612"
    },
    {
      "channel": 0,
      "note": 46,
      "start": 47.0067,
      "duration": 0.0821,
      "velocity": 112,
      "chip": "ym2612"
    },
    {
      "channel": 1,
      "note": 51,
      "start": 47.0074,
      "duration": 0.1651,
      "velocity": 108,
      "chip": "ym2612"
    },
    {
      "channel": 2,
      "note": 19,
      "start": 47.0081,
      "duration": 0.1651,
      "velocity": 113,
      "chip": "ym2612"
    },
    {
      "channel": 3,
      "note": 58,
      "start": 47.0094,
      "duration": 0.1651,
      "velocity": 127,
      "chip": "ym2612"
    },
    {
      "channel": 4,
      "note": 53,
      "start": 47.0106,
      "duration": 0.0968,
      "velocity": 127,
      "chip": "ym2612"
    },
    {
      "channel": 5,
      "note": 26,
      "start": 47.0115,
      "duration": 0.1655,
      "velocity": 126,
      "chip": "ym2612"
    },
    {
      "channel": 0,
      "note": 46,
      "start": 47.1724,
      "duration": 0.1642,
      "velocity": 114,
      "chip": "ym2612"
    },
    {
      "channel": 1,
      "note": 43,
      "start": 47.1731,
      "duration": 0.1644,
      "velocity": 108,
      "chip": "ym2612"
    },
    {
      "channel": 2,
      "note": 19,
      "start": 47.1743,
      "duration": 0.1639,
      "velocity": 1,
      "chip": "ym2612"
    },
    {
      "channel": 3,
      "note": 62,
      "start": 47.1755,
      "duration": 0.1466,
      "velocity": 118,
      "chip": "ym2612"
    },
    {
      "channel": 4,
      "note": 53,
      "start": 47.1768,
      "duration": 0.0962,
      "velocity": 127,
      "chip": "ym2612"
    },
    {
      "channel": 5,
      "note": 38,
      "start": 47.1777,
      "duration": 0.1637,
      "velocity": 126,
      "chip": "ym2612"
    },
    {
      "channel": 0,
      "note": 46,
      "start": 47.3374,
      "duration": 0.1648,
      "velocity": 114,
      "chip": "ym2612"
    },
    {
      "channel": 1,
      "note": 46,
      "start": 47.3381,
      "duration": 0.1649,
      "velocity": 108,
      "chip": "ym2612"
    },
    {
      "channel": 2,
      "note": 19,
      "start": 47.3393,
      "duration": 0.1645,
      "velocity": 113,
      "chip": "ym2612"
    },
    {
      "channel": 3,
      "note": 62,
      "start": 47.34,
      "duration": 0.1477,
      "velocity": 118,
      "chip": "ym2612"
    },
    {
      "channel": 4,
      "note": 53,
      "start": 47.3412,
      "duration": 0.0973,
      "velocity": 127,
      "chip": "ym2612"
    },
    {
      "channel": 5,
      "note": 41,
      "start": 47.3421,
      "duration": 0.1642,
      "velocity": 126,
      "chip": "ym2612"
    },
    {
      "channel": 0,
      "note": 46,
      "start": 47.5029,
      "duration": 0.1648,
      "velocity": 114,
      "chip": "ym2612"
    },
    {
      "channel": 1,
      "note": 51,
      "start": 47.5036,
      "duration": 0.1649,
      "velocity": 108,
      "chip": "ym2612"
    },
    {
      "channel": 2,
      "note": 19,
      "start": 47.5043,
      "duration": 0.165,
      "velocity": 113,
      "chip": "ym2612"
    },
    {
      "channel": 3,
      "note": 62,
      "start": 47.5049,
      "duration": 0.1483,
      "velocity": 118,
      "chip": "ym2612"
    },
    {
      "channel": 4,
      "note": 53,
      "start": 47.5062,
      "duration": 0.0979,
      "velocity": 127,
      "chip": "ym2612"
    },
    {
      "channel": 5,
      "note": 38,
      "start": 47.5071,
      "duration": 0.1649,
      "velocity": 126,
      "chip": "ym2612"
    },
    {
      "channel": 0,
      "note": 46,
      "start": 47.6684,
      "duration": 0.1648,
      "velocity": 114,
      "chip": "ym2612"
    },
    {
      "channel": 1,
      "note": 48,
      "start": 47.6691,
      "duration": 0.165,
      "velocity": 108,
      "chip": "ym2612"
    },
    {
      "channel": 2,
      "note": 19,
      "start": 47.6697,
      "duration": 0.1651,
      "velocity": 113,
      "chip": "ym2612"
    },
    {
      "channel": 3,
      "note": 29,
      "start": 47.6711,
      "duration": 0.1643,
      "velocity": 1,
      "chip": "ym2612"
    },
    {
      "channel": 4,
      "note": 53,
      "start": 47.6718,
      "duration": 0.0979,
      "velocity": 127,
      "chip": "ym2612"
    },
    {
      "channel": 5,
      "note": 31,
      "start": 47.6727,
      "duration": 0.1653,
      "velocity": 126,
      "chip": "ym2612"
    },
    {
      "channel": 0,
      "note": 44,
      "start": 47.8339,
      "duration": 0.1648,
      "velocity": 114,
      "chip": "ym2612"
    },
    {
      "channel": 1,
      "note": 41,
      "start": 47.8346,
      "duration": 0.165,
      "velocity": 108,
      "chip": "ym2612"
    },
    {
      "channel": 2,
      "note": 17,
      "start": 47.8352,
      "duration": 0.165,
      "velocity": 113,
      "chip": "ym2612"
    },
    {
      "channel": 3,
      "note": 62,
      "start": 47.8365,
      "duration": 0.1478,
      "velocity": 118,
      "chip": "ym2612"
    },
    {
      "channel": 4,
      "note": 53,
      "start": 47.8378,
      "duration": 0.0973,
      "velocity": 127,
      "chip": "ym2612"
    },
    {
      "channel": 5,
      "note": 41,
      "start": 47.8387,
      "duration": 0.1648,
      "velocity": 126,
      "chip": "ym2612"
    },
    {
      "channel": 0,
      "note": 44,
      "start": 47.9994,
      "duration": 0.1648,
      "velocity": 114,
      "chip": "ym2612"
    },
    {
      "channel": 1,
      "note": 44,
      "start": 48.0001,
      "duration": 0.165,
      "velocity": 108,
      "chip": "ym2612"
    },
    {
      "channel": 2,
      "note": 17,
      "start": 48.0013,
      "duration": 0.1644,
      "velocity": 1,
      "chip": "ym2612"
    },
    {
      "channel": 3,
      "note": 62,
      "start": 48.002,
      "duration": 0.1478,
      "velocity": 118,
      "chip": "ym2612"
    },
    {
      "channel": 4,
      "note": 53,
      "start": 48.0033,
      "duration": 0.0973,
      "velocity": 127,
      "chip": "ym2612"
    },
    {
      "channel": 5,
      "note": 36,
      "start": 48.0042,
      "duration": 0.1648,
      "velocity": 126,
      "chip": "ym2612"
    },
    {
      "channel": 0,
      "note": 44,
      "start": 48.1649,
      "duration": 0.1648,
      "velocity": 114,
      "chip": "ym2612"
    },
    {
      "channel": 1,
      "note": 48,
      "start": 48.1656,
      "duration": 0.1654,
      "velocity": 108,
      "chip": "ym2612"
    },
    {
      "channel": 2,
      "note": 17,
      "start": 48.1669,
      "duration": 0.1649,
      "velocity": 113,
      "chip": "ym2612"
    },
    {
      "channel": 3,
      "note": 62,
      "start": 48.1675,
      "duration": 0.1478,
      "velocity": 118,
      "chip": "ym2612"
    },
    {
      "channel": 4,
      "note": 53,
      "start": 48.1688,
      "duration": 0.0973,
      "velocity": 127,
      "chip": "ym2612"
    },
    {
      "channel": 5,
      "note": 39,
      "start": 48.1697,
      "duration": 0.1653,
      "velocity": 126,
      "chip": "ym2612"
    },
    {
      "channel": 0,
      "note": 44,
      "start": 48.3309,
      "duration": 0.082,
      "velocity": 112,
      "chip": "ym2612"
    },
    {
      "channel": 1,
      "note": 49,
      "start": 48.3316,
      "duration": 0.1651,
      "velocity": 108,
      "chip": "ym2612"
    },
    {
      "channel": 2,
      "note": 17,
      "start": 48.3323,
      "duration": 0.1652,
      "velocity": 113,
      "chip": "ym2612"
    },
    {
      "channel": 3,
      "note": 58,
      "start": 48.3335,
      "duration": 0.1651,
      "velocity": 127,
      "chip": "ym2612"
    },
    {
      "channel": 4,
      "note": 53,
      "start": 48.3348,
      "duration": 0.0968,
      "velocity": 127,
      "chip": "ym2612"
    },
    {
      "channel": 5,
      "note": 24,
      "start": 48.3357,
      "duration": 0.1655,
      "velocity": 126,
      "chip": "ym2612"
    },
    {
      "channel": 0,
      "note": 44,
      "start": 48.4966,
      "duration": 0.1642,
      "velocity": 114,
      "chip": "ym2612"
    },
    {
      "channel": 1,
      "note": 41,
      "start": 48.4973,
      "duration": 0.1644,
      "velocity": 108,
      "chip": "ym2612"
    },
    {
      "channel": 2,
      "note": 17,
      "start": 48.4985,
      "duration": 0.1638,
      "velocity": 1,
      "chip": "ym2612"
    },
    {
      "channel": 3,
      "note": 62,
      "start": 48.4998,
      "duration": 0.1466,
      "velocity": 118,
      "chip": "ym2612"
    },
    {
      "channel": 4,
      "note": 53,
      "start": 48.501,
      "duration": 0.0962,
      "velocity": 127,
      "chip": "ym2612"
    },
    {
      "channel": 5,
      "note": 36,
      "start": 48.5019,
      "duration": 0.1636,
      "velocity": 126,
      "chip": "ym2612"
    },
    {
      "channel": 0,
      "note": 44,
      "start": 48.6615,
      "duration": 0.1649,
      "velocity": 114,
      "chip": "ym2612"
    },
    {
      "channel": 1,
      "note": 44,
      "start": 48.6622,
      "duration": 0.165,
      "velocity": 108,
      "chip": "ym2612"
    },
    {
      "channel": 2,
      "note": 15,
      "start": 48.6634,
      "duration": 0.1645,
      "velocity": 113,
      "chip": "ym2612"
    },
    {
      "channel": 3,
      "note": 62,
      "start": 48.6641,
      "duration": 0.1478,
      "velocity": 118,
      "chip": "ym2612"
    },
    {
      "channel": 4,
      "note": 53,
      "start": 48.6654,
      "duration": 0.0973,
      "velocity": 127,
      "chip": "ym2612"
    },
    {
      "channel": 5,
      "note": 39,
      "start": 48.6662,
      "duration": 0.1649,
      "velocity": 126,
      "chip": "ym2612"
    },
    {
      "channel": 0,
      "note": 44,
      "start": 48.827,
      "duration": 0.1649,
      "velocity": 114,
      "chip": "ym2612"
    },
    {
      "channel": 1,
      "note": 49,
      "start": 48.8278,
      "duration": 0.1649,
      "velocity": 108,
      "chip": "ym2612"
    },
    {
      "channel": 2,
      "note": 17,
      "start": 48.8284,
      "duration": 0.165,
      "velocity": 113,
      "chip": "ym2612"
    },
    {
      "channel": 3,
      "note": 58,
      "start": 48.8297,
      "duration": 0.1644,
      "velocity": 127,
      "chip": "ym2612"
    },
    {
      "channel": 4,
      "note": 53,
      "start": 48.831,
      "duration": 0.0973,
      "velocity": 127,
      "chip": "ym2612"
    },
    {
      "channel": 5,
      "note": 36,
      "start": 48.8319,
      "duration": 0.1648,
      "velocity": 126,
      "chip": "ym2612"
    },
    {
      "channel": 0,
      "note": 44,
      "start": 48.9926,
      "duration": 0.1649,
      "velocity": 114,
      "chip": "ym2612"
    },
    {
      "channel": 1,
      "note": 48,
      "start": 48.9933,
      "duration": 0.1649,
      "velocity": 108,
      "chip": "ym2612"
    },
    {
      "channel": 2,
      "note": 17,
      "start": 48.994,
      "duration": 0.165,
      "velocity": 113,
      "chip": "ym2612"
    },
    {
      "channel": 3,
      "note": 29,
      "start": 48.9952,
      "duration": 0.1644,
      "velocity": 1,
      "chip": "ym2612"
    },
    {
      "channel": 4,
      "note": 53,
      "start": 48.9965,
      "duration": 0.0973,
      "velocity": 127,
      "chip": "ym2612"
    },
    {
      "channel": 5,
      "note": 41,
      "start": 48.9974,
      "duration": 0.1647,
      "velocity": 126,
      "chip": "ym2612"
    },
    {
      "channel": 0,
      "note": 44,
      "start": 49.1581,
      "duration": 0.1649,
      "velocity": 114,
      "chip": "ym2612"
    },
    {
      "channel": 1,
      "note": 41,
      "start": 49.1588,
      "duration": 0.1649,
      "velocity": 108,
      "chip": "ym2612"
    },
    {
      "channel": 2,
      "note": 17,
      "start": 49.1595,
      "duration": 0.165,
      "velocity": 113,
      "chip": "ym2612"
    },
    {
      "channel": 3,
      "note": 62,
      "start": 49.1606,
      "duration": 0.1478,
      "velocity": 118,
      "chip": "ym2612"
    },
    {
      "channel": 4,
      "note": 53,
      "start": 49.162,
      "duration": 0.0973,
      "velocity": 127,
      "chip": "ym2612"
    },
    {
      "channel": 5,
      "note": 41,
      "start": 49.1628,
      "duration": 0.1648,
      "velocity": 126,
      "chip": "ym2612"
    },
    {
      "channel": 0,
      "note": 44,
      "start": 49.3237,
      "duration": 0.1648,
      "velocity": 114,
      "chip": "ym2612"
    },
    {
      "channel": 1,
      "note": 44,
      "start": 49.3244,
      "duration": 0.1649,
      "velocity": 108,
      "chip": "ym2612"
    },
    {
      "channel": 2,
      "note": 17,
      "start": 49.3256,
      "duration": 0.1644,
      "velocity": 1,
      "chip": "ym2612"
    },
    {
      "channel": 3,
      "note": 62,
      "start": 49.3262,
      "duration": 0.1477,
      "velocity": 118,
      "chip": "ym2612"
    },
    {
      "channel": 4,
      "note": 53,
      "start": 49.3275,
      "duration": 0.0973,
      "velocity": 127,
      "chip": "ym2612"
    },
    {
      "channel": 5,
      "note": 36,
      "start": 49.3284,
      "duration": 0.1648,
      "velocity": 126,
      "chip": "ym2612"
    },
    {
      "channel": 0,
      "note": 44,
      "start": 49.4892,
      "duration": 0.1648,
      "velocity": 114,
      "chip": "ym2612"
    },
    {
      "channel": 1,
      "note": 48,
      "start": 49.4899,
      "duration": 0.1655,
      "velocity": 108,
      "chip": "ym2612"
    },
    {
      "channel": 2,
      "note": 17,
      "start": 49.4911,
      "duration": 0.165,
      "velocity": 113,
      "chip": "ym2612"
    },
    {
      "channel": 3,
      "note": 62,
      "start": 49.4917,
      "duration": 0.1477,
      "velocity": 118,
      "chip": "ym2612"
    },
    {
      "channel": 4,
      "note": 53,
      "start": 49.493,
      "duration": 0.0973,
      "velocity": 127,
      "chip": "ym2612"
    },
    {
      "channel": 5,
      "note": 39,
      "start": 49.4939,
      "duration": 0.1653,
      "velocity": 126,
      "chip": "ym2612"
    },
    {
      "channel": 0,
      "note": 44,
      "start": 49.6551,
      "duration": 0.0821,
      "velocity": 112,
      "chip": "ym2612"
    },
    {
      "channel": 1,
      "note": 49,
      "start": 49.6559,
      "duration": 0.1651,
      "velocity": 108,
      "chip": "ym2612"
    },
    {
      "channel": 2,
      "note": 17,
      "start": 49.6565,
      "duration": 0.1652,
      "velocity": 113,
      "chip": "ym2612"
    },
    {
      "channel": 3,
      "note": 58,
      "start": 49.6578,
      "duration": 0.1651,
      "velocity": 127,
      "chip": "ym2612"
    },
    {
      "channel": 4,
      "note": 53,
      "start": 49.6591,
      "duration": 0.0968,
      "velocity": 127,
      "chip": "ym2612"
    },
    {
      "channel": 5,
      "note": 24,
      "start": 49.66,
      "duration": 0.1654,
      "velocity": 126,
      "chip": "ym2612"
    },
    {
      "channel": 0,
      "note": 44,
      "start": 49.8209,
      "duration": 0.1642,
      "velocity": 114,
      "chip": "ym2612"
    },
    {
      "channel": 1,
      "note": 41,
      "start": 49.8216,
      "duration": 0.1643,
      "velocity": 108,
      "chip": "ym2612"
    },
    {
      "channel": 2,
      "note": 17,
      "start": 49.8228,
      "duration": 0.1638,
      "velocity": 1,
      "chip": "ym2612"
    },
    {
      "channel": 3,
      "note": 62,
      "start": 49.824,
      "duration": 0.1466,
      "velocity": 118,
      "chip": "ym2612"
    },
    {
      "channel": 4,
      "note": 53,
      "start": 49.8253,
      "duration": 0.0962,
      "velocity": 127,
      "chip": "ym2612"
    },
    {
      "channel": 5,
      "note": 36,
      "start": 49.8261,
      "duration": 0.1636,
      "velocity": 126,
      "chip": "ym2612"
    },
    {
      "channel": 0,
      "note": 44,
      "start": 49.9858,
      "duration": 0.1648,
      "velocity": 114,
      "chip": "ym2612"
    },
    {
      "channel": 1,
      "note": 44,
      "start": 49.9865,
      "duration": 0.1649,
      "velocity": 108,
      "chip": "ym2612"
    },
    {
      "channel": 2,
      "note": 17,
      "start": 49.9877,
      "duration": 0.1644,
      "velocity": 113,
      "chip": "ym2612"
    },
    {
      "channel": 3,
      "note": 62,
      "start": 49.9883,
      "duration": 0.1477,
      "velocity": 118,
      "chip": "ym2612"
    },
    {
      "channel": 4,
      "note": 53,
      "start": 49.9896,
      "duration": 0.0973,
      "velocity": 127,
      "chip": "ym2612"
    },
    {
      "channel": 5,
      "note": 39,
      "start": 49.9905,
      "duration": 0.1643,
      "velocity": 126,
      "chip": "ym2612"
    },
    {
      "channel": 0,
      "note": 44,
      "start": 50.1513,
      "duration": 0.1648,
      "velocity": 114,
      "chip": "ym2612"
    },
    {
      "channel": 1,
      "note": 49,
      "start": 50.152,
      "duration": 0.165,
      "velocity": 108,
      "chip": "ym2612"
    },
    {
      "channel": 2,
      "note": 17,
      "start": 50.1526,
      "duration": 0.1651,
      "velocity": 113,
      "chip": "ym2612"
    },
    {
      "channel": 3,
      "note": 62,
      "start": 50.1532,
      "duration": 0.1484,
      "velocity": 118,
      "chip": "ym2612"
    },
    {
      "channel": 4,
      "note": 53,
      "start": 50.1545,
      "duration": 0.098,
      "velocity": 127,
      "chip": "ym2612"
    },
    {
      "channel": 5,
      "note": 36,
      "start": 50.1554,
      "duration": 0.1649,
      "velocity": 126,
      "chip": "ym2612"
    },
    {
      "channel": 0,
      "note": 44,
      "start": 50.3168,
      "duration": 0.1648,
      "velocity": 114,
      "chip": "ym2612"
    },
    {
      "channel": 1,
      "note": 50,
      "start": 50.3175,
      "duration": 0.165,
      "velocity": 108,
      "chip": "ym2612"
    },
    {
      "channel": 2,
      "note": 17,
      "start": 50.3181,
      "duration": 0.1651,
      "velocity": 113,
      "chip": "ym2612"
    },
    {
      "channel": 3,
      "note": 29,
      "start": 50.3194,
      "duration": 0.1644,
      "velocity": 1,
      "chip": "ym2612"
    },
    {
      "channel": 4,
      "note": 53,
      "start": 50.3201,
      "duration": 0.098,
      "velocity": 127,
      "chip": "ym2612"
    },
    {
      "channel": 5,
      "note": 29,
      "start": 50.3211,
      "duration": 0.1653,
      "velocity": 126,
      "chip": "ym2612"
    },
    {
      "channel": 0,
      "note": 46,
      "start": 50.4823,
      "duration": 0.1648,
      "velocity": 114,
      "chip": "ym2612"
    },
    {
      "channel": 1,
      "note": 43,
      "start": 50.483,
      "duration": 0.165,
      "velocity": 108,
      "chip": "ym2612"
    },
    {
      "channel": 2,
      "note": 19,
      "start": 50.4837,
      "duration": 0.165,
      "velocity": 113,
      "chip": "ym2612"
    },
    {
      "channel": 3,
      "note": 62,
      "start": 50.4849,
      "duration": 0.1478,
      "velocity": 118,
      "chip": "ym2612"
    },
    {
      "channel": 4,
      "note": 53,
      "start": 50.4861,
      "duration": 0.0974,
      "velocity": 127,
      "chip": "ym2612"
    },
    {
      "channel": 5,
      "note": 43,
      "start": 50.4871,
      "duration": 0.1648,
      "velocity": 126,
      "chip": "ym2612"
    },
    {
      "channel": 0,
      "note": 46,
      "start": 50.6478,
      "duration": 0.1648,
      "velocity": 114,
      "chip": "ym2612"
    },
    {
      "channel": 1,
      "note": 46,
      "start": 50.6485,
      "duration": 0.165,
      "velocity": 108,
      "chip": "ym2612"
    },
    {
      "channel": 2,
      "note": 19,
      "start": 50.6498,
      "duration": 0.1644,
      "velocity": 1,
      "chip": "ym2612"
    },
    {
      "channel": 3,
      "note": 62,
      "start": 50.6504,
      "duration": 0.1478,
      "velocity": 118,
      "chip": "ym2612"
    },
    {
      "channel": 4,
      "note": 53,
      "start": 50.6517,
      "duration": 0.0973,
      "velocity": 127,
      "chip": "ym2612"
    },
    {
      "channel": 5,
      "note": 38,
      "start": 50.6525,
      "duration": 0.1648,
      "velocity": 126,
      "chip": "ym2612"
    },
    {
      "channel": 0,
      "note": 46,
      "start": 50.8134,
      "duration": 0.1648,
      "velocity": 114,
      "chip": "ym2612"
    },
    {
      "channel": 1,
      "note": 50,
      "start": 50.8141,
      "duration": 0.1654,
      "velocity": 108,
      "chip": "ym2612"
    },
    {
      "channel": 2,
      "note": 19,
      "start": 50.8153,
      "duration": 0.1649,
      "velocity": 113,
      "chip": "ym2612"
    },
    {
      "channel": 3,
      "note": 62,
      "start": 50.8159,
      "duration": 0.1478,
      "velocity": 118,
      "chip": "ym2612"
    },
    {
      "channel": 4,
      "note": 53,
      "start": 50.8172,
      "duration": 0.0973,
      "velocity": 127,
      "chip": "ym2612"
    },
    {
      "channel": 5,
      "note": 41,
      "start": 50.8181,
      "duration": 0.1653,
      "velocity": 126,
      "chip": "ym2612"
    },
    {
      "channel": 0,
      "note": 46,
      "start": 50.9793,
      "duration": 0.082,
      "velocity": 112,
      "chip": "ym2612"
    },
    {
      "channel": 1,
      "note": 51,
      "start": 50.98,
      "duration": 0.1651,
      "velocity": 108,
      "chip": "ym2612"
    },
    {
      "channel": 2,
      "note": 19,
      "start": 50.9807,
      "duration": 0.1651,
      "velocity": 113,
      "chip": "ym2612"
    },
    {
      "channel": 3,
      "note": 58,
      "start": 50.9819,
      "duration": 0.1651,
      "velocity": 127,
      "chip": "ym2612"
    },
    {
      "channel": 4,
      "note": 53,
      "start": 50.9832,
      "duration": 0.0968,
      "velocity": 127,
      "chip": "ym2612"
    },
    {
      "channel": 5,
      "note": 26,
      "start": 50.9841,
      "duration": 0.1655,
      "velocity": 126,
      "chip": "ym2612"
    },
    {
      "channel": 0,
      "note": 46,
      "start": 51.145,
      "duration": 0.1642,
      "velocity": 114,
      "chip": "ym2612"
    },
    {
      "channel": 1,
      "note": 43,
      "start": 51.1457,
      "duration": 0.1644,
      "velocity": 108,
      "chip": "ym2612"
    },
    {
      "channel": 2,
      "note": 19,
      "start": 51.1469,
      "duration": 0.1639,
      "velocity": 1,
      "chip": "ym2612"
    },
    {
      "channel": 3,
      "note": 62,
      "start": 51.1481,
      "duration": 0.1466,
      "velocity": 118,
      "chip": "ym2612"
    },
    {
      "channel": 4,
      "note": 53,
      "start": 51.1494,
      "duration": 0.0962,
      "velocity": 127,
      "chip": "ym2612"
    },
    {
      "channel": 5,
      "note": 38,
      "start": 51.1502,
      "duration": 0.1637,
      "velocity": 126,
      "chip": "ym2612"
    },
    {
      "channel": 0,
      "note": 46,
      "start": 51.3099,
      "duration": 0.1648,
      "velocity": 114,
      "chip": "ym2612"
    },
    {
      "channel": 1,
      "note": 46,
      "start": 51.3106,
      "duration": 0.165,
      "velocity": 108,
      "chip": "ym2612"
    },
    {
      "channel": 2,
      "note": 17,
      "start": 51.3118,
      "duration": 0.1645,
      "velocity": 113,
      "chip": "ym2612"
    },
    {
      "channel": 3,
      "note": 62,
      "start": 51.3125,
      "duration": 0.1478,
      "velocity": 118,
      "chip": "ym2612"
    },
    {
      "channel": 4,
      "note": 53,
      "start": 51.3138,
      "duration": 0.0973,
      "velocity": 127,
      "chip": "ym2612"
    },
    {
      "channel": 5,
      "note": 41,
      "start": 51.3146,
      "duration": 0.1649,
      "velocity": 126,
      "chip": "ym2612"
    },
    {
      "channel": 0,
      "note": 46,
      "start": 51.4754,
      "duration": 0.1648,
      "velocity": 114,
      "chip": "ym2612"
    },
    {
      "channel": 1,
      "note": 51,
      "start": 51.4761,
      "duration": 0.165,
      "velocity": 108,
      "chip": "ym2612"
    },
    {
      "channel": 2,
      "note": 19,
      "start": 51.4768,
      "duration": 0.1651,
      "velocity": 113,
      "chip": "ym2612"
    },
    {
      "channel": 3,
      "note": 58,
      "start": 51.4781,
      "duration": 0.1643,
      "velocity": 127,
      "chip": "ym2612"
    },
    {
      "channel": 4,
      "note": 53,
      "start": 51.4794,
      "duration": 0.0973,
      "velocity": 127,
      "chip": "ym2612"
    },
    {
      "channel": 5,
      "note": 38,
      "start": 51.4803,
      "duration": 0.1647,
      "velocity": 126,
      "chip": "ym2612"
    },
    {
      "channel": 0,
      "note": 46,
      "start": 51.641,
      "duration": 0.1649,
      "velocity": 114,
      "chip": "ym2612"
    },
    {
      "channel": 1,
      "note": 50,
      "start": 51.6417,
      "duration": 0.165,
      "velocity": 108,
      "chip": "ym2612"
    },
    {
      "channel": 2,
      "note": 19,
      "start": 51.6423,
      "duration": 0.1651,
      "velocity": 113,
      "chip": "ym2612"
    },
    {
      "channel": 3,
      "note": 29,
      "start": 51.6436,
      "duration": 0.1644,
      "velocity": 1,
      "chip": "ym2612"
    },
    {
      "channel": 4,
      "note": 53,
      "start": 51.6449,
      "duration": 0.0973,
      "velocity": 127,
      "chip": "ym2612"
    },
    {
      "channel": 5,
      "note": 43,
      "start": 51.6457,
      "duration": 0.1648,
      "velocity": 126,
      "chip": "ym2612"
    },
    {
      "channel": 0,
      "note": 46,
      "start": 51.8065,
      "duration": 0.1649,
      "velocity": 114,
      "chip": "ym2612"
    },
    {
      "channel": 1,
      "note": 43,
      "start": 51.8072,
      "duration": 0.165,
      "velocity": 108,
      "chip": "ym2612"
    },
    {
      "channel": 2,
      "note": 19,
      "start": 51.8078,
      "duration": 0.1651,
      "velocity": 113,
      "chip": "ym2612"
    },
    {
      "channel": 3,
      "note": 62,
      "start": 51.809,
      "duration": 0.1478,
      "velocity": 118,
      "chip": "ym2612"
    },
    {
      "channel": 4,
      "note": 53,
      "start": 51.8103,
      "duration": 0.0974,
      "velocity": 127,
      "chip": "ym2612"
    },
    {
      "channel": 5,
      "note": 43,
      "start": 51.8112,
      "duration": 0.1648,
      "velocity": 126,
      "chip": "ym2612"
    },
    {
      "channel": 0,
      "note": 46,
      "start": 51.972,
      "duration": 0.1649,
      "velocity": 114,
      "chip": "ym2612"
    },
    {
      "channel": 1,
      "note": 46,
      "start": 51.9728,
      "duration": 0.165,
      "velocity": 108,
      "chip": "ym2612"
    },
    {
      "channel": 2,
      "note": 19,
      "start": 51.974,
      "duration": 0.1644,
      "velocity": 1,
      "chip": "ym2612"
    },
    {
      "channel": 3,
      "note": 62,
      "start": 51.9746,
      "duration": 0.1478,
      "velocity": 118,
      "chip": "ym2612"
    },
    {
      "channel": 4,
      "note": 53,
      "start": 51.9759,
      "duration": 0.0974,
      "velocity": 127,
      "chip": "ym2612"
    },
    {
      "channel": 5,
      "note": 38,
      "start": 51.9767,
      "duration": 0.1649,
      "velocity": 126,
      "chip": "ym2612"
    },
    {
      "channel": 0,
      "note": 46,
      "start": 52.1376,
      "duration": 0.1648,
      "velocity": 114,
      "chip": "ym2612"
    },
    {
      "channel": 1,
      "note": 50,
      "start": 52.1383,
      "duration": 0.1655,
      "velocity": 108,
      "chip": "ym2612"
    },
    {
      "channel": 2,
      "note": 19,
      "start": 52.1395,
      "duration": 0.165,
      "velocity": 113,
      "chip": "ym2612"
    },
    {
      "channel": 3,
      "note": 62,
      "start": 52.1401,
      "duration": 0.1478,
      "velocity": 118,
      "chip": "ym2612"
    },
    {
      "channel": 4,
      "note": 53,
      "start": 52.1415,
      "duration": 0.0973,
      "velocity": 127,
      "chip": "ym2612"
    },
    {
      "channel": 5,
      "note": 41,
      "start": 52.1423,
      "duration": 0.1653,
      "velocity": 126,
      "chip": "ym2612"
    },
    {
      "channel": 0,
      "note": 46,
      "start": 52.3035,
      "duration": 0.082,
      "velocity": 112,
      "chip": "ym2612"
    },
    {
      "channel": 1,
      "note": 51,
      "start": 52.3043,
      "duration": 0.1651,
      "velocity": 108,
      "chip": "ym2612"
    },
    {
      "channel": 2,
      "note": 19,
      "start": 52.3049,
      "duration": 0.1651,
      "velocity": 113,
      "chip": "ym2612"
    },
    {
      "channel": 3,
      "note": 58,
      "start": 52.3062,
      "duration": 0.1651,
      "velocity": 127,
      "chip": "ym2612"
    },
    {
      "channel": 4,
      "note": 53,
      "start": 52.3075,
      "duration": 0.0968,
      "velocity": 127,
      "chip": "ym2612"
    },
    {
      "channel": 5,
      "note": 26,
      "start": 52.3083,
      "duration": 0.1654,
      "velocity": 126,
      "chip": "ym2612"
    },
    {
      "channel": 0,
      "note": 46,
      "start": 52.4692,
      "duration": 0.1643,
      "velocity": 114,
      "chip": "ym2612"
    },
    {
      "channel": 1,
      "note": 43,
      "start": 52.4699,
      "duration": 0.1644,
      "velocity": 108,
      "chip": "ym2612"
    },
    {
      "channel": 2,
      "note": 19,
      "start": 52.4712,
      "duration": 0.1638,
      "velocity": 1,
      "chip": "ym2612"
    },
    {
      "channel": 3,
      "note": 62,
      "start": 52.4724,
      "duration": 0.1465,
      "velocity": 118,
      "chip": "ym2612"
    },
    {
      "channel": 4,
      "note": 53,
      "start": 52.4737,
      "duration": 0.0961,
      "velocity": 127,
      "chip": "ym2612"
    },
    {
      "channel": 5,
      "note": 38,
      "start": 52.4746,
      "duration": 0.1636,
      "velocity": 126,
      "chip": "ym2612"
    },
    {
      "channel": 0,
      "note": 46,
      "start": 52.6342,
      "duration": 0.1648,
      "velocity": 114,
      "chip": "ym2612"
    },
    {
      "channel": 1,
      "note": 46,
      "start": 52.6349,
      "duration": 0.1649,
      "velocity": 108,
      "chip": "ym2612"
    },
    {
      "channel": 2,
      "note": 19,
      "start": 52.6361,
      "duration": 0.1644,
      "velocity": 113,
      "chip": "ym2612"
    },
    {
      "channel": 3,
      "note": 62,
      "start": 52.6367,
      "duration": 0.1477,
      "velocity": 118,
      "chip": "ym2612"
    },
    {
      "channel": 4,
      "note": 53,
      "start": 52.638,
      "duration": 0.0973,
      "velocity": 127,
      "chip": "ym2612"
    },
    {
      "channel": 5,
      "note": 41,
      "start": 52.6389,
      "duration": 0.1642,
      "velocity": 126,
      "chip": "ym2612"
    },
    {
      "channel": 0,
      "note": 46,
      "start": 52.7997,
      "duration": 0.1648,
      "velocity": 114,
      "chip": "ym2612"
    },
    {
      "channel": 1,
      "note": 51,
      "start": 52.8004,
      "duration": 0.1649,
      "velocity": 108,
      "chip": "ym2612"
    },
    {
      "channel": 2,
      "note": 19,
      "start": 52.801,
      "duration": 0.165,
      "velocity": 113,
      "chip": "ym2612"
    },
    {
      "channel": 3,
      "note": 62,
      "start": 52.8016,
      "duration": 0.1483,
      "velocity": 118,
      "chip": "ym2612"
    },
    {
      "channel": 4,
      "note": 53,
      "start": 52.8029,
      "duration": 0.0979,
      "velocity": 127,
      "chip": "ym2612"
    },
    {
      "channel": 5,
      "note": 38,
      "start": 52.8038,
      "duration": 0.1648,
      "velocity": 126,
      "chip": "ym2612"
    },
    {
      "channel": 0,
      "note": 46,
      "start": 52.9652,
      "duration": 0.1648,
      "velocity": 114,
      "chip": "ym2612"
    },
    {
      "channel": 1,
      "note": 48,
      "start": 52.9659,
      "duration": 0.1649,
      "velocity": 108,
      "chip": "ym2612"
    },
    {
      "channel": 2,
      "note": 19,
      "start": 52.9666,
      "duration": 0.1651,
      "velocity": 113,
      "chip": "ym2612"
    },
    {
      "channel": 3,
      "note": 29,
      "start": 52.9678,
      "duration": 0.1644,
      "velocity": 1,
      "chip": "ym2612"
    },
    {
      "channel": 4,
      "note": 53,
      "start": 52.9685,
      "duration": 0.0979,
      "velocity": 127,
      "chip": "ym2612"
    },
    {
      "channel": 5,
      "note": 31,
      "start": 52.9693,
      "duration": 0.1653,
      "velocity": 126,
      "chip": "ym2612"
    },
    {
      "channel": 0,
      "note": 47,
      "start": 53.1307,
      "duration": 0.1648,
      "velocity": 114,
      "chip": "ym2612"
    },
    {
      "channel": 1,
      "note": 44,
      "start": 53.1314,
      "duration": 0.1649,
      "velocity": 108,
      "chip": "ym2612"
    },
    {
      "channel": 2,
      "note": 20,
      "start": 53.1321,
      "duration": 0.165,
      "velocity": 113,
      "chip": "ym2612"
    },
    {
      "channel": 3,
      "note": 62,
      "start": 53.1333,
      "duration": 0.1477,
      "velocity": 118,
      "chip": "ym2612"
    },
    {
      "channel": 4,
      "note": 56,
      "start": 53.1346,
      "duration": 0.0973,
      "velocity": 127,
      "chip": "ym2612"
    },
    {
      "channel": 5,
      "note": 44,
      "start": 53.1354,
      "duration": 0.1648,
      "velocity": 126,
      "chip": "ym2612"
    },
    {
      "channel": 0,
      "note": 47,
      "start": 53.2963,
      "duration": 0.1648,
      "velocity": 114,
      "chip": "ym2612"
    },
    {
      "channel": 1,
      "note": 47,
      "start": 53.297,
      "duration": 0.165,
      "velocity": 108,
      "chip": "ym2612"
    },
    {
      "channel": 2,
      "note": 20,
      "start": 53.2982,
      "duration": 0.1644,
      "velocity": 1,
      "chip": "ym2612"
    },
    {
      "channel": 3,
      "note": 62,
      "start": 53.2988,
      "duration": 0.1477,
      "velocity": 118,
      "chip": "ym2612"
    },
    {
      "channel": 4,
      "note": 56,
      "start": 53.3001,
      "duration": 0.0974,
      "velocity": 127,
      "chip": "ym2612"
    },
    {
      "channel": 5,
      "note": 39,
      "start": 53.301,
      "duration": 0.1648,
      "velocity": 126,
      "chip": "ym2612"
    },
    {
      "channel": 0,
      "note": 47,
      "start": 53.4618,
      "duration": 0.1648,
      "velocity": 114,
      "chip": "ym2612"
    },
    {
      "channel": 1,
      "note": 51,
      "start": 53.4625,
      "duration": 0.1654,
      "velocity": 108,
      "chip": "ym2612"
    },
    {
      "channel": 2,
      "note": 20,
      "start": 53.4637,
      "duration": 0.1649,
      "velocity": 113,
      "chip": "ym2612"
    },
    {
      "channel": 3,
      "note": 62,
      "start": 53.4643,
      "duration": 0.1477,
      "velocity": 118,
      "chip": "ym2612"
    },
    {
      "channel": 4,
      "note": 56,
      "start": 53.4656,
      "duration": 0.0973,
      "velocity": 127,
      "chip": "ym2612"
    },
    {
      "channel": 5,
      "note": 42,
      "start": 53.4665,
      "duration": 0.1653,
      "velocity": 126,
      "chip": "ym2612"
    },
    {
      "channel": 0,
      "note": 47,
      "start": 53.6277,
      "duration": 0.082,
      "velocity": 112,
      "chip": "ym2612"
    },
    {
      "channel": 1,
      "note": 52,
      "start": 53.6284,
      "duration": 0.1651,
      "velocity": 108,
      "chip": "ym2612"
    },
    {
      "channel": 2,
      "note": 20,
      "start": 53.6291,
      "duration": 0.1651,
      "velocity": 113,
      "chip": "ym2612"
    },
    {
      "channel": 3,
      "note": 58,
      "start": 53.6303,
      "duration": 0.1651,
      "velocity": 127,
      "chip": "ym2612"
    },
    {
      "channel": 4,
      "note": 56,
      "start": 53.6316,
      "duration": 0.0968,
      "velocity": 127,
      "chip": "ym2612"
    },
    {
      "channel": 5,
      "note": 27,
      "start": 53.6325,
      "duration": 0.1654,
      "velocity": 126,
      "chip": "ym2612"
    },
    {
      "channel": 0,
      "note": 47,
      "start": 53.7934,
      "duration": 0.1643,
      "velocity": 114,
      "chip": "ym2612"
    },
    {
      "channel": 1,
      "note": 44,
      "start": 53.7941,
      "duration": 0.1644,
      "velocity": 108,
      "chip": "ym2612"
    },
    {
      "channel": 2,
      "note": 20,
      "start": 53.7953,
      "duration": 0.1639,
      "velocity": 1,
      "chip": "ym2612"
    },
    {
      "channel": 3,
      "note": 62,
      "start": 53.7965,
      "duration": 0.1466,
      "velocity": 118,
      "chip": "ym2612"
    },
    {
      "channel": 4,
      "note": 56,
      "start": 53.7978,
      "duration": 0.0962,
      "velocity": 127,
      "chip": "ym2612"
    },
    {
      "channel": 5,
      "note": 39,
      "start": 53.7987,
      "duration": 0.1637,
      "velocity": 126,
      "chip": "ym2612"
    },
    {
      "channel": 0,
      "note": 47,
      "start": 53.9583,
      "duration": 0.1648,
      "velocity": 114,
      "chip": "ym2612"
    },
    {
      "channel": 1,
      "note": 47,
      "start": 53.959,
      "duration": 0.165,
      "velocity": 108,
      "chip": "ym2612"
    },
    {
      "channel": 2,
      "note": 18,
      "start": 53.9602,
      "duration": 0.1645,
      "velocity": 113,
      "chip": "ym2612"
    },
    {
      "channel": 3,
      "note": 62,
      "start": 53.9609,
      "duration": 0.1478,
      "velocity": 118,
      "chip": "ym2612"
    },
    {
      "channel": 4,
      "note": 56,
      "start": 53.9622,
      "duration": 0.0973,
      "velocity": 127,
      "chip": "ym2612"
    },
    {
      "channel": 5,
      "note": 42,
      "start": 53.963,
      "duration": 0.1649,
      "velocity": 126,
      "chip": "ym2612"
    },
    {
      "channel": 0,
      "note": 47,
      "start": 54.1239,
      "duration": 0.1648,
      "velocity": 114,
      "chip": "ym2612"
    },
    {
      "channel": 1,
      "note": 52,
      "start": 54.1246,
      "duration": 0.165,
      "velocity": 108,
      "chip": "ym2612"
    },
    {
      "channel": 2,
      "note": 20,
      "start": 54.1252,
      "duration": 0.1651,
      "velocity": 113,
      "chip": "ym2612"
    },
    {
      "channel": 3,
      "note": 58,
      "start": 54.1265,
      "duration": 0.1643,
      "velocity": 127,
      "chip": "ym2612"
    },
    {
      "channel": 4,
      "note": 56,
      "start": 54.1278,
      "duration": 0.0973,
      "velocity": 127,
      "chip": "ym2612"
    },
    {
      "channel": 5,
      "note": 39,
      "start": 54.1287,
      "duration": 0.1648,
      "velocity": 126,
      "chip": "ym2612"
    },
    {
      "channel": 0,
      "note": 47,
      "start": 54.2894,
      "duration": 0.1648,
      "velocity": 114,
      "chip": "ym2612"
    },
    {
      "channel": 1,
      "note": 51,
      "start": 54.2901,
      "duration": 0.165,
      "velocity": 108,
      "chip": "ym2612"
    },
    {
      "channel": 2,
      "note": 20,
      "start": 54.2907,
      "duration": 0.1651,
      "velocity": 113,
      "chip": "ym2612"
    },
    {
      "channel": 3,
      "note": 29,
      "start": 54.292,
      "duration": 0.1644,
      "velocity": 1,
      "chip": "ym2612"
    },
    {
      "channel": 4,
      "note": 56,
      "start": 54.2933,
      "duration": 0.0973,
      "velocity": 127,
      "chip": "ym2612"
    },
    {
      "channel": 5,
      "note": 44,
      "start": 54.2941,
      "duration": 0.1648,
      "velocity": 126,
      "chip": "ym2612"
    },
    {
      "channel": 0,
      "note": 47,
      "start": 54.4549,
      "duration": 0.1648,
      "velocity": 114,
      "chip": "ym2612"
    },
    {
      "channel": 1,
      "note": 44,
      "start": 54.4556,
      "duration": 0.1651,
      "velocity": 108,
      "chip": "ym2612"
    },
    {
      "channel": 2,
      "note": 20,
      "start": 54.4562,
      "duration": 0.1651,
      "velocity": 113,
      "chip": "ym2612"
    },
    {
      "channel": 3,
      "note": 62,
      "start": 54.4574,
      "duration": 0.1478,
      "velocity": 118,
      "chip": "ym2612"
    },
    {
      "channel": 4,
      "note": 56,
      "start": 54.4587,
      "duration": 0.0974,
      "velocity": 127,
      "chip": "ym2612"
    },
    {
      "channel": 5,
      "note": 44,
      "start": 54.4596,
      "duration": 0.1648,
      "velocity": 126,
      "chip": "ym2612"
    },
    {
      "channel": 0,
      "note": 47,
      "start": 54.6205,
      "duration": 0.1648,
      "velocity": 114,
      "chip": "ym2612"
    },
    {
      "channel": 1,
      "note": 47,
      "start": 54.6212,
      "duration": 0.165,
      "velocity": 108,
      "chip": "ym2612"
    },
    {
      "channel": 2,
      "note": 20,
      "start": 54.6224,
      "duration": 0.1644,
      "velocity": 1,
      "chip": "ym2612"
    },
    {
      "channel": 3,
      "note": 62,
      "start": 54.623,
      "duration": 0.1478,
      "velocity": 118,
      "chip": "ym2612"
    },
    {
      "channel": 4,
      "note": 56,
      "start": 54.6243,
      "duration": 0.0974,
      "velocity": 127,
      "chip": "ym2612"
    },
    {
      "channel": 5,
      "note": 39,
      "start": 54.6252,
      "duration": 0.1648,
      "velocity": 126,
      "chip": "ym2612"
    },
    {
      "channel": 0,
      "note": 47,
      "start": 54.7859,
      "duration": 0.1648,
      "velocity": 114,
      "chip": "ym2612"
    },
    {
      "channel": 1,
      "note": 51,
      "start": 54.7866,
      "duration": 0.1655,
      "velocity": 108,
      "chip": "ym2612"
    },
    {
      "channel": 2,
      "note": 20,
      "start": 54.7879,
      "duration": 0.1649,
      "velocity": 113,
      "chip": "ym2612"
    },
    {
      "channel": 3,
      "note": 62,
      "start": 54.7885,
      "duration": 0.1477,
      "velocity": 118,
      "chip": "ym2612"
    },
    {
      "channel": 4,
      "note": 56,
      "start": 54.7898,
      "duration": 0.0973,
      "velocity": 127,
      "chip": "ym2612"
    },
    {
      "channel": 5,
      "note": 42,
      "start": 54.7907,
      "duration": 0.1653,
      "velocity": 126,
      "chip": "ym2612"
    },
    {
      "channel": 0,
      "note": 47,
      "start": 54.9519,
      "duration": 0.0821,
      "velocity": 112,
      "chip": "ym2612"
    },
    {
      "channel": 1,
      "note": 52,
      "start": 54.9526,
      "duration": 0.1651,
      "velocity": 108,
      "chip": "ym2612"
    },
    {
      "channel": 2,
      "note": 20,
      "start": 54.9532,
      "duration": 0.1652,
      "velocity": 113,
      "chip": "ym2612"
    },
    {
      "channel": 3,
      "note": 58,
      "start": 54.9546,
      "duration": 0.1651,
      "velocity": 127,
      "chip": "ym2612"
    },
    {
      "channel": 4,
      "note": 56,
      "start": 54.9559,
      "duration": 0.0967,
      "velocity": 127,
      "chip": "ym2612"
    },
    {
      "channel": 5,
      "note": 27,
      "start": 54.9568,
      "duration": 0.1654,
      "velocity": 126,
      "chip": "ym2612"
    },
    {
      "channel": 0,
      "note": 47,
      "start": 55.1176,
      "duration": 0.1643,
      "velocity": 114,
      "chip": "ym2612"
    },
    {
      "channel": 1,
      "note": 44,
      "start": 55.1183,
      "duration": 0.1644,
      "velocity": 108,
      "chip": "ym2612"
    },
    {
      "channel": 2,
      "note": 20,
      "start": 55.1195,
      "duration": 0.1639,
      "velocity": 1,
      "chip": "ym2612"
    },
    {
      "channel": 3,
      "note": 62,
      "start": 55.1207,
      "duration": 0.1466,
      "velocity": 118,
      "chip": "ym2612"
    },
    {
      "channel": 4,
      "note": 56,
      "start": 55.1221,
      "duration": 0.0961,
      "velocity": 127,
      "chip": "ym2612"
    },
    {
      "channel": 5,
      "note": 39,
      "start": 55.1229,
      "duration": 0.1636,
      "velocity": 126,
      "chip": "ym2612"
    },
    {
      "channel": 0,
      "note": 47,
      "start": 55.2826,
      "duration": 0.1648,
      "velocity": 114,
      "chip": "ym2612"
    },
    {
      "channel": 1,
      "note": 47,
      "start": 55.2833,
      "duration": 0.165,
      "velocity": 108,
      "chip": "ym2612"
    },
    {
      "channel": 2,
      "note": 20,
      "start": 55.2845,
      "duration": 0.1644,
      "velocity": 113,
      "chip": "ym2612"
    },
    {
      "channel": 3,
      "note": 62,
      "start": 55.2851,
      "duration": 0.1477,
      "velocity": 118,
      "chip": "ym2612"
    },
    {
      "channel": 4,
      "note": 56,
      "start": 55.2864,
      "duration": 0.0973,
      "velocity": 127,
      "chip": "ym2612"
    },
    {
      "channel": 5,
      "note": 42,
      "start": 55.2873,
      "duration": 0.1642,
      "velocity": 126,
      "chip": "ym2612"
    },
    {
      "channel": 0,
      "note": 47,
      "start": 55.4481,
      "duration": 0.1648,
      "velocity": 114,
      "chip": "ym2612"
    },
    {
      "channel": 1,
      "note": 52,
      "start": 55.4488,
      "duration": 0.1649,
      "velocity": 108,
      "chip": "ym2612"
    },
    {
      "channel": 2,
      "note": 20,
      "start": 55.4494,
      "duration": 0.165,
      "velocity": 113,
      "chip": "ym2612"
    },
    {
      "channel": 3,
      "note": 62,
      "start": 55.45,
      "duration": 0.1483,
      "velocity": 118,
      "chip": "ym2612"
    },
    {
      "channel": 4,
      "note": 56,
      "start": 55.4513,
      "duration": 0.0979,
      "velocity": 127,
      "chip": "ym2612"
    },
    {
      "channel": 5,
      "note": 39,
      "start": 55.4522,
      "duration": 0.1649,
      "velocity": 126,
      "chip": "ym2612"
    },
    {
      "channel": 0,
      "note": 47,
      "start": 55.6136,
      "duration": 0.1648,
      "velocity": 114,
      "chip": "ym2612"
    },
    {
      "channel": 1,
      "note": 53,
      "start": 55.6143,
      "duration": 0.165,
      "velocity": 108,
      "chip": "ym2612"
    },
    {
      "channel": 2,
      "note": 20,
      "start": 55.6149,
      "duration": 0.165,
      "velocity": 113,
      "chip": "ym2612"
    },
    {
      "channel": 3,
      "note": 29,
      "start": 55.6162,
      "duration": 0.1644,
      "velocity": 1,
      "chip": "ym2612"
    },
    {
      "channel": 4,
      "note": 56,
      "start": 55.6169,
      "duration": 0.0979,
      "velocity": 127,
      "chip": "ym2612"
    },
    {
      "channel": 5,
      "note": 32,
      "start": 55.6178,
      "duration": 0.1653,
      "velocity": 126,
      "chip": "ym2612"
    },
    {
      "channel": 0,
      "note": 49,
      "start": 55.7791,
      "duration": 0.1648,
      "velocity": 114,
      "chip": "ym2612"
    },
    {
      "channel": 1,
      "note": 46,
      "start": 55.7798,
      "duration": 0.1649,
      "velocity": 108,
      "chip": "ym2612"
    },
    {
      "channel": 2,
      "note": 22,
      "start": 55.7805,
      "duration": 0.165,
      "velocity": 113,
      "chip": "ym2612"
    },
    {
      "channel": 3,
      "note": 62,
      "start": 55.7816,
      "duration": 0.1478,
      "velocity": 118,
      "chip": "ym2612"
    },
    {
      "channel": 4,
      "note": 56,
      "start": 55.7829,
      "duration": 0.0973,
      "velocity": 127,
      "chip": "ym2612"
    },
    {
      "channel": 5,
      "note": 46,
      "start": 55.7838,
      "duration": 0.1648,
      "velocity": 126,
      "chip": "ym2612"
    },
    {
      "channel": 0,
      "note": 49,
      "start": 55.9447,
      "duration": 0.1648,
      "velocity": 114,
      "chip": "ym2612"
    },
    {
      "channel": 1,
      "note": 49,
      "start": 55.9454,
      "duration": 0.165,
      "velocity": 108,
      "chip": "ym2612"
    },
    {
      "channel": 2,
      "note": 22,
      "start": 55.9466,
      "duration": 0.1644,
      "velocity": 1,
      "chip": "ym2612"
    },
    {
      "channel": 3,
      "note": 62,
      "start": 55.9472,
      "duration": 0.1477,
      "velocity": 118,
      "chip": "ym2612"
    },
    {
      "channel": 4,
      "note": 56,
      "start": 55.9485,
      "duration": 0.0973,
      "velocity": 127,
      "chip": "ym2612"
    },
    {
      "channel": 5,
      "note": 41,
      "start": 55.9494,
      "duration": 0.1648,
      "velocity": 126,
      "chip": "ym2612"
    },
    {
      "channel": 0,
      "note": 49,
      "start": 56.1102,
      "duration": 0.1648,
      "velocity": 114,
      "chip": "ym2612"
    },
    {
      "channel": 1,
      "note": 53,
      "start": 56.1109,
      "duration": 0.1654,
      "velocity": 108,
      "chip": "ym2612"
    },
    {
      "channel": 2,
      "note": 22,
      "start": 56.1121,
      "duration": 0.1649,
      "velocity": 113,
      "chip": "ym2612"
    },
    {
      "channel": 3,
      "note": 62,
      "start": 56.1127,
      "duration": 0.1477,
      "velocity": 118,
      "chip": "ym2612"
    },
    {
      "channel": 4,
      "note": 56,
      "start": 56.114,
      "duration": 0.0973,
      "velocity": 127,
      "chip": "ym2612"
    },
    {
      "channel": 5,
      "note": 44,
      "start": 56.1149,
      "duration": 0.1653,
      "velocity": 126,
      "chip": "ym2612"
    },
    {
      "channel": 0,
      "note": 49,
      "start": 56.2761,
      "duration": 0.0821,
      "velocity": 112,
      "chip": "ym2612"
    },
    {
      "channel": 1,
      "note": 54,
      "start": 56.2768,
      "duration": 0.1651,
      "velocity": 108,
      "chip": "ym2612"
    },
    {
      "channel": 2,
      "note": 22,
      "start": 56.2775,
      "duration": 0.1651,
      "velocity": 113,
      "chip": "ym2612"
    },
    {
      "channel": 3,
      "note": 58,
      "start": 56.2788,
      "duration": 0.1651,
      "velocity": 127,
      "chip": "ym2612"
    },
    {
      "channel": 4,
      "note": 56,
      "start": 56.28,
      "duration": 0.0968,
      "velocity": 127,
      "chip": "ym2612"
    },
    {
      "channel": 5,
      "note": 29,
      "start": 56.2809,
      "duration": 0.1654,
      "velocity": 126,
      "chip": "ym2612"
    },
    {
      "channel": 0,
      "note": 49,
      "start": 56.4418,
      "duration": 0.1643,
      "velocity": 114,
      "chip": "ym2612"
    },
    {
      "channel": 1,
      "note": 46,
      "start": 56.4425,
      "duration": 0.1644,
      "velocity": 108,
      "chip": "ym2612"
    },
    {
      "channel": 2,
      "note": 22,
      "start": 56.4437,
      "duration": 0.1639,
      "velocity": 1,
      "chip": "ym2612"
    },
    {
      "channel": 3,
      "note": 62,
      "start": 56.4449,
      "duration": 0.1466,
      "velocity": 118,
      "chip": "ym2612"
    },
    {
      "channel": 4,
      "note": 56,
      "start": 56.4463,
      "duration": 0.0962,
      "velocity": 127,
      "chip": "ym2612"
    },
    {
      "channel": 5,
      "note": 41,
      "start": 56.4471,
      "duration": 0.1637,
      "velocity": 126,
      "chip": "ym2612"
    },
    {
      "channel": 0,
      "note": 49,
      "start": 56.6068,
      "duration": 0.1648,
      "velocity": 114,
      "chip": "ym2612"
    },
    {
      "channel": 1,
      "note": 49,
      "start": 56.6074,
      "duration": 0.165,
      "velocity": 108,
      "chip": "ym2612"
    },
    {
      "channel": 2,
      "note": 20,
      "start": 56.6087,
      "duration": 0.1645,
      "velocity": 113,
      "chip": "ym2612"
    },
    {
      "channel": 3,
      "note": 62,
      "start": 56.6093,
      "duration": 0.1478,
      "velocity": 118,
      "chip": "ym2612"
    },
    {
      "channel": 4,
      "note": 56,
      "start": 56.6106,
      "duration": 0.0973,
      "velocity": 127,
      "chip": "ym2612"
    },
    {
      "channel": 5,
      "note": 44,
      "start": 56.6115,
      "duration": 0.1649,
      "velocity": 126,
      "chip": "ym2612"
    },
    {
      "channel": 0,
      "note": 49,
      "start": 56.7723,
      "duration": 0.1649,
      "velocity": 114,
      "chip": "ym2612"
    },
    {
      "channel": 1,
      "note": 54,
      "start": 56.773,
      "duration": 0.165,
      "velocity": 108,
      "chip": "ym2612"
    },
    {
      "channel": 2,
      "note": 22,
      "start": 56.7736,
      "duration": 0.1651,
      "velocity": 113,
      "chip": "ym2612"
    },
    {
      "channel": 3,
      "note": 58,
      "start": 56.7749,
      "duration": 0.1644,
      "velocity": 127,
      "chip": "ym2612"
    },
    {
      "channel": 4,
      "note": 56,
      "start": 56.7762,
      "duration": 0.0973,
      "velocity": 127,
      "chip": "ym2612"
    },
    {
      "channel": 5,
      "note": 41,
      "start": 56.7771,
      "duration": 0.1648,
      "velocity": 126,
      "chip": "ym2612"
    },
    {
      "channel": 0,
      "note": 49,
      "start": 56.9378,
      "duration": 0.1648,
      "velocity": 114,
      "chip": "ym2612"
    },
    {
      "channel": 1,
      "note": 53,
      "start": 56.9385,
      "duration": 0.165,
      "velocity": 108,
      "chip": "ym2612"
    },
    {
      "channel": 2,
      "note": 22,
      "start": 56.9392,
      "duration": 0.1651,
      "velocity": 113,
      "chip": "ym2612"
    },
    {
      "channel": 3,
      "note": 29,
      "start": 56.9405,
      "duration": 0.1644,
      "velocity": 1,
      "chip": "ym2612"
    },
    {
      "channel": 4,
      "note": 56,
      "start": 56.9417,
      "duration": 0.0973,
      "velocity": 127,
      "chip": "ym2612"
    },
    {
      "channel": 5,
      "note": 46,
      "start": 56.9426,
      "duration": 0.1647,
      "velocity": 126,
      "chip": "ym2612"
    },
    {
      "channel": 0,
      "note": 49,
      "start": 57.1033,
      "duration": 0.1648,
      "velocity": 114,
      "chip": "ym2612"
    },
    {
      "channel": 1,
      "note": 46,
      "start": 57.1041,
      "duration": 0.1649,
      "velocity": 108,
      "chip": "ym2612"
    },
    {
      "channel": 2,
      "note": 22,
      "start": 57.1047,
      "duration": 0.1649,
      "velocity": 113,
      "chip": "ym2612"
    },
    {
      "channel": 3,
      "note": 62,
      "start": 57.1059,
      "duration": 0.1478,
      "velocity": 118,
      "chip": "ym2612"
    },
    {
      "channel": 4,
      "note": 56,
      "start": 57.1072,
      "duration": 0.0973,
      "velocity": 127,
      "chip": "ym2612"
    },
    {
      "channel": 5,
      "note": 46,
      "start": 57.1081,
      "duration": 0.1648,
      "velocity": 126,
      "chip": "ym2612"
    },
    {
      "channel": 0,
      "note": 49,
      "start": 57.2688,
      "duration": 0.1648,
      "velocity": 114,
      "chip": "ym2612"
    },
    {
      "channel": 1,
      "note": 49,
      "start": 57.2695,
      "duration": 0.165,
      "velocity": 108,
      "chip": "ym2612"
    },
    {
      "channel": 2,
      "note": 22,
      "start": 57.2708,
      "duration": 0.1644,
      "velocity": 1,
      "chip": "ym2612"
    },
    {
      "channel": 3,
      "note": 62,
      "start": 57.2715,
      "duration": 0.1477,
      "velocity": 118,
      "chip": "ym2612"
    },
    {
      "channel": 4,
      "note": 56,
      "start": 57.2728,
      "duration": 0.0973,
      "velocity": 127,
      "chip": "ym2612"
    },
    {
      "channel": 5,
      "note": 41,
      "start": 57.2736,
      "duration": 0.1648,
      "velocity": 126,
      "chip": "ym2612"
    },
    {
      "channel": 0,
      "note": 49,
      "start": 57.4344,
      "duration": 0.1648,
      "velocity": 114,
      "chip": "ym2612"
    },
    {
      "channel": 1,
      "note": 53,
      "start": 57.4351,
      "duration": 0.1654,
      "velocity": 108,
      "chip": "ym2612"
    },
    {
      "channel": 2,
      "note": 22,
      "start": 57.4363,
      "duration": 0.165,
      "velocity": 113,
      "chip": "ym2612"
    },
    {
      "channel": 3,
      "note": 62,
      "start": 57.437,
      "duration": 0.1477,
      "velocity": 118,
      "chip": "ym2612"
    },
    {
      "channel": 4,
      "note": 56,
      "start": 57.4382,
      "duration": 0.0973,
      "velocity": 127,
      "chip": "ym2612"
    },
    {
      "channel": 5,
      "note": 44,
      "start": 57.4391,
      "duration": 0.1653,
      "velocity": 126,
      "chip": "ym2612"
    },
    {
      "channel": 0,
      "note": 49,
      "start": 57.6003,
      "duration": 0.0821,
      "velocity": 112,
      "chip": "ym2612"
    },
    {
      "channel": 1,
      "note": 54,
      "start": 57.601,
      "duration": 0.1651,
      "velocity": 108,
      "chip": "ym2612"
    },
    {
      "channel": 2,
      "note": 22,
      "start": 57.6017,
      "duration": 0.1652,
      "velocity": 113,
      "chip": "ym2612"
    },
    {
      "channel": 3,
      "note": 58,
      "start": 57.6029,
      "duration": 0.1651,
      "velocity": 127,
      "chip": "ym2612"
    },
    {
      "channel": 4,
      "note": 56,
      "start": 57.6043,
      "duration": 0.0968,
      "velocity": 127,
      "chip": "ym2612"
    },
    {
      "channel": 5,
      "note": 29,
      "start": 57.6051,
      "duration": 0.1655,
      "velocity": 126,
      "chip": "ym2612"
    },
    {
      "channel": 0,
      "note": 49,
      "start": 57.766,
      "duration": 0.1643,
      "velocity": 114,
      "chip": "ym2612"
    },
    {
      "channel": 1,
      "note": 46,
      "start": 57.7667,
      "duration": 0.1644,
      "velocity": 108,
      "chip": "ym2612"
    },
    {
      "channel": 2,
      "note": 22,
      "start": 57.7679,
      "duration": 0.1638,
      "velocity": 1,
      "chip": "ym2612"
    },
    {
      "channel": 3,
      "note": 62,
      "start": 57.7692,
      "duration": 0.1466,
      "velocity": 118,
      "chip": "ym2612"
    },
    {
      "channel": 4,
      "note": 56,
      "start": 57.7704,
      "duration": 0.0962,
      "velocity": 127,
      "chip": "ym2612"
    },
    {
      "channel": 5,
      "note": 41,
      "start": 57.7713,
      "duration": 0.1636,
      "velocity": 126,
      "chip": "ym2612"
    },
    {
      "channel": 0,
      "note": 49,
      "start": 57.9309,
      "duration": 0.1649,
      "velocity": 114,
      "chip": "ym2612"
    },
    {
      "channel": 1,
      "note": 49,
      "start": 57.9316,
      "duration": 0.165,
      "velocity": 108,
      "chip": "ym2612"
    },
    {
      "channel": 2,
      "note": 22,
      "start": 57.9328,
      "duration": 0.1645,
      "velocity": 113,
      "chip": "ym2612"
    },
    {
      "channel": 3,
      "note": 62,
      "start": 57.9335,
      "duration": 0.1478,
      "velocity": 118,
      "chip": "ym2612"
    },
    {
      "channel": 4,
      "note": 56,
      "start": 57.9348,
      "duration": 0.0973,
      "velocity": 127,
      "chip": "ym2612"
    },
    {
      "channel": 5,
      "note": 44,
      "start": 57.9356,
      "duration": 0.1643,
      "velocity": 126,
      "chip": "ym2612"
    },
    {
      "channel": 0,
      "note": 49,
      "start": 58.0964,
      "duration": 0.1649,
      "velocity": 114,
      "chip": "ym2612"
    },
    {
      "channel": 1,
      "note": 54,
      "start": 58.0971,
      "duration": 0.165,
      "velocity": 108,
      "chip": "ym2612"
    },
    {
      "channel": 2,
      "note": 22,
      "start": 58.0978,
      "duration": 0.1651,
      "velocity": 113,
      "chip": "ym2612"
    },
    {
      "channel": 3,
      "note": 62,
      "start": 58.0984,
      "duration": 0.1483,
      "velocity": 118,
      "chip": "ym2612"
    },
    {
      "channel": 4,
      "note": 56,
      "start": 58.0997,
      "duration": 0.098,
      "velocity": 127,
      "chip": "ym2612"
    },
    {
      "channel": 5,
      "note": 41,
      "start": 58.1006,
      "duration": 0.1649,
      "velocity": 126,
      "chip": "ym2612"
    },
    {
      "channel": 0,
      "note": 49,
      "start": 58.262,
      "duration": 0.1649,
      "velocity": 114,
      "chip": "ym2612"
    },
    {
      "channel": 1,
      "note": 51,
      "start": 58.2627,
      "duration": 0.165,
      "velocity": 108,
      "chip": "ym2612"
    },
    {
      "channel": 2,
      "note": 22,
      "start": 58.2633,
      "duration": 0.1651,
      "velocity": 113,
      "chip": "ym2612"
    },
    {
      "channel": 3,
      "note": 29,
      "start": 58.2646,
      "duration": 0.1644,
      "velocity": 1,
      "chip": "ym2612"
    },
    {
      "channel": 4,
      "note": 56,
      "start": 58.2653,
      "duration": 0.098,
      "velocity": 127,
      "chip": "ym2612"
    },
    {
      "channel": 5,
      "note": 34,
      "start": 58.2662,
      "duration": 0.1653,
      "velocity": 126,
      "chip": "ym2612"
    },
    {
      "channel": 0,
      "note": 47,
      "start": 58.4276,
      "duration": 0.1648,
      "velocity": 114,
      "chip": "ym2612"
    },
    {
      "channel": 1,
      "note": 44,
      "start": 58.4283,
      "duration": 0.1649,
      "velocity": 108,
      "chip": "ym2612"
    },
    {
      "channel": 2,
      "note": 20,
      "start": 58.4289,
      "duration": 0.165,
      "velocity": 113,
      "chip": "ym2612"
    },
    {
      "channel": 3,
      "note": 62,
      "start": 58.43,
      "duration": 0.1478,
      "velocity": 118,
      "chip": "ym2612"
    },
    {
      "channel": 4,
      "note": 56,
      "start": 58.4314,
      "duration": 0.0973,
      "velocity": 127,
      "chip": "ym2612"
    },
    {
      "channel": 5,
      "note": 44,
      "start": 58.4322,
      "duration": 0.1648,
      "velocity": 126,
      "chip": "ym2612"
    },
    {
      "channel": 0,
      "note": 47,
      "start": 58.5931,
      "duration": 0.1648,
      "velocity": 114,
      "chip": "ym2612"
    },
    {
      "channel": 1,
      "note": 47,
      "start": 58.5938,
      "duration": 0.165,
      "velocity": 108,
      "chip": "ym2612"
    },
    {
      "channel": 2,
      "note": 20,
      "start": 58.595,
      "duration": 0.1644,
      "velocity": 1,
      "chip": "ym2612"
    },
    {
      "channel": 3,
      "note": 62,
      "start": 58.5956,
      "duration": 0.1477,
      "velocity": 118,
      "chip": "ym2612"
    },
    {
      "channel": 4,
      "note": 56,
      "start": 58.5969,
      "duration": 0.0973,
      "velocity": 127,
      "chip": "ym2612"
    },
    {
      "channel": 5,
      "note": 39,
      "start": 58.5978,
      "duration": 0.1648,
      "velocity": 126,
      "chip": "ym2612"
    },
    {
      "channel": 0,
      "note": 47,
      "start": 58.7586,
      "duration": 0.1648,
      "velocity": 114,
      "chip": "ym2612"
    },
    {
      "channel": 1,
      "note": 51,
      "start": 58.7593,
      "duration": 0.1654,
      "velocity": 108,
      "chip": "ym2612"
    },
    {
      "channel": 2,
      "note": 20,
      "start": 58.7605,
      "duration": 0.1649,
      "velocity": 113,
      "chip": "ym2612"
    },
    {
      "channel": 3,
      "note": 62,
      "start": 58.7611,
      "duration": 0.1477,
      "velocity": 118,
      "chip": "ym2612"
    },
    {
      "channel": 4,
      "note": 56,
      "start": 58.7624,
      "duration": 0.0973,
      "velocity": 127,
      "chip": "ym2612"
    },
    {
      "channel": 5,
      "note": 42,
      "start": 58.7633,
      "duration": 0.1653,
      "velocity": 126,
      "chip": "ym2612"
    },
    {
      "channel": 0,
      "note": 47,
      "start": 58.9245,
      "duration": 0.0821,
      "velocity": 112,
      "chip": "ym2612"
    },
    {
      "channel": 1,
      "note": 52,
      "start": 58.9252,
      "duration": 0.1651,
      "velocity": 108,
      "chip": "ym2612"
    },
    {
      "channel": 2,
      "note": 20,
      "start": 58.9258,
      "duration": 0.1652,
      "velocity": 113,
      "chip": "ym2612"
    },
    {
      "channel": 3,
      "note": 58,
      "start": 58.9272,
      "duration": 0.1651,
      "velocity": 127,
      "chip": "ym2612"
    },
    {
      "channel": 4,
      "note": 56,
      "start": 58.9284,
      "duration": 0.0968,
      "velocity": 127,
      "chip": "ym2612"
    },
    {
      "channel": 5,
      "note": 27,
      "start": 58.9293,
      "duration": 0.1654,
      "velocity": 126,
      "chip": "ym2612"
    },
    {
      "channel": 0,
      "note": 47,
      "start": 59.0902,
      "duration": 0.1643,
      "velocity": 114,
      "chip": "ym2612"
    },
    {
      "channel": 1,
      "note": 44,
      "start": 59.0909,
      "duration": 0.1644,
      "velocity": 108,
      "chip": "ym2612"
    },
    {
      "channel": 2,
      "note": 20,
      "start": 59.0921,
      "duration": 0.1639,
      "velocity": 1,
      "chip": "ym2612"
    },
    {
      "channel": 3,
      "note": 62,
      "start": 59.0933,
      "duration": 0.1466,
      "velocity": 118,
      "chip": "ym2612"
    },
    {
      "channel": 4,
      "note": 56,
      "start": 59.0946,
      "duration": 0.0962,
      "velocity": 127,
      "chip": "ym2612"
    },
    {
      "channel": 5,
      "note": 39,
      "start": 59.0955,
      "duration": 0.1636,
      "velocity": 126,
      "chip": "ym2612"
    },
    {
      "channel": 0,
      "note": 47,
      "start": 59.2551,
      "duration": 0.1648,
      "velocity": 114,
      "chip": "ym2612"
    },
    {
      "channel": 1,
      "note": 47,
      "start": 59.2559,
      "duration": 0.165,
      "velocity": 108,
      "chip": "ym2612"
    },
    {
      "channel": 2,
      "note": 18,
      "start": 59.2571,
      "duration": 0.1645,
      "velocity": 113,
      "chip": "ym2612"
    },
    {
      "channel": 3,
      "note": 62,
      "start": 59.2577,
      "duration": 0.1478,
      "velocity": 118,
      "chip": "ym2612"
    },
    {
      "channel": 4,
      "note": 56,
      "start": 59.259,
      "duration": 0.0974,
      "velocity": 127,
      "chip": "ym2612"
    },
    {
      "channel": 5,
      "note": 42,
      "start": 59.2599,
      "duration": 0.1649,
      "velocity": 126,
      "chip": "ym2612"
    },
    {
      "channel": 0,
      "note": 47,
      "start": 59.4207,
      "duration": 0.1648,
      "velocity": 114,
      "chip": "ym2612"
    },
    {
      "channel": 1,
      "note": 52,
      "start": 59.4215,
      "duration": 0.1649,
      "velocity": 108,
      "chip": "ym2612"
    },
    {
      "channel": 2,
      "note": 20,
      "start": 59.4221,
      "duration": 0.1651,
      "velocity": 113,
      "chip": "ym2612"
    },
    {
      "channel": 3,
      "note": 58,
      "start": 59.4234,
      "duration": 0.1644,
      "velocity": 127,
      "chip": "ym2612"
    },
    {
      "channel": 4,
      "note": 56,
      "start": 59.4246,
      "duration": 0.0973,
      "velocity": 127,
      "chip": "ym2612"
    },
    {
      "channel": 5,
      "note": 39,
      "start": 59.4255,
      "duration": 0.1648,
      "velocity": 126,
      "chip": "ym2612"
    },
    {
      "channel": 0,
      "note": 47,
      "start": 59.5862,
      "duration": 0.1648,
      "velocity": 114,
      "chip": "ym2612"
    },
    {
      "channel": 1,
      "note": 51,
      "start": 59.587,
      "duration": 0.1649,
      "velocity": 108,
      "chip": "ym2612"
    },
    {
      "channel": 2,
      "note": 20,
      "start": 59.5876,
      "duration": 0.165,
      "velocity": 113,
      "chip": "ym2612"
    },
    {
      "channel": 3,
      "note": 29,
      "start": 59.5889,
      "duration": 0.1643,
      "velocity": 1,
      "chip": "ym2612"
    },
    {
      "channel": 4,
      "note": 56,
      "start": 59.5901,
      "duration": 0.0974,
      "velocity": 127,
      "chip": "ym2612"
    },
    {
      "channel": 5,
      "note": 44,
      "start": 59.591,
      "duration": 0.1647,
      "velocity": 126,
      "chip": "ym2612"
    },
    {
      "channel": 0,
      "note": 47,
      "start": 59.7517,
      "duration": 0.1648,
      "velocity": 114,
      "chip": "ym2612"
    },
    {
      "channel": 1,
      "note": 44,
      "start": 59.7524,
      "duration": 0.165,
      "velocity": 108,
      "chip": "ym2612"
    },
    {
      "channel": 2,
      "note": 20,
      "start": 59.7531,
      "duration": 0.165,
      "velocity": 113,
      "chip": "ym2612"
    },
    {
      "channel": 3,
      "note": 62,
      "start": 59.7543,
      "duration": 0.1476,
      "velocity": 118,
      "chip": "ym2612"
    },
    {
      "channel": 4,
      "note": 56,
      "start": 59.7556,
      "duration": 0.0973,
      "velocity": 127,
      "chip": "ym2612"
    },
    {
      "channel": 5,
      "note": 44,
      "start": 59.7565,
      "duration": 0.1648,
      "velocity": 126,
      "chip": "ym2612"
    },
    {
      "channel": 0,
      "note": 47,
      "start": 59.9172,
      "duration": 0.1648,
      "velocity": 114,
      "chip": "ym2612"
    },
    {
      "channel": 1,
      "note": 47,
      "start": 59.9179,
      "duration": 0.165,
      "velocity": 108,
      "chip": "ym2612"
    },
    {
      "channel": 2,
      "note": 20,
      "start": 59.9192,
      "duration": 0.1644,
      "velocity": 1,
      "chip": "ym2612"
    },
    {
      "channel": 3,
      "note": 62,
      "start": 59.9198,
      "duration": 0.1478,
      "velocity": 118,
      "chip": "ym2612"
    },
    {
      "channel": 4,
      "note": 56,
      "start": 59.9211,
      "duration": 0.0973,
      "velocity": 127,
      "chip": "ym2612"
    },
    {
      "channel": 5,
      "note": 39,
      "start": 59.922,
      "duration": 0.1648,
      "velocity": 126,
      "chip": "ym2612"
    },
    {
      "channel": 0,
      "note": 47,
      "start": 60.0828,
      "duration": 0.1648,
      "velocity": 114,
      "chip": "ym2612"
    },
    {
      "channel": 1,
      "note": 51,
      "start": 60.0835,
      "duration": 0.1654,
      "velocity": 108,
      "chip": "ym2612"
    },
    {
      "channel": 2,
      "note": 20,
      "start": 60.0847,
      "duration": 0.1649,
      "velocity": 113,
      "chip": "ym2612"
    },
    {
      "channel": 3,
      "note": 62,
      "start": 60.0853,
      "duration": 0.1478,
      "velocity": 118,
      "chip": "ym2612"
    },
    {
      "channel": 4,
      "note": 56,
      "start": 60.0866,
      "duration": 0.0973,
      "velocity": 127,
      "chip": "ym2612"
    },
    {
      "channel": 5,
      "note": 42,
      "start": 60.0875,
      "duration": 0.1653,
      "velocity": 126,
      "chip": "ym2612"
    },
    {
      "channel": 0,
      "note": 47,
      "start": 60.2487,
      "duration": 0.082,
      "velocity": 112,
      "chip": "ym2612"
    },
    {
      "channel": 1,
      "note": 52,
      "start": 60.2494,
      "duration": 0.1651,
      "velocity": 108,
      "chip": "ym2612"
    },
    {
      "channel": 2,
      "note": 20,
      "start": 60.2501,
      "duration": 0.1652,
      "velocity": 113,
      "chip": "ym2612"
    },
    {
      "channel": 3,
      "note": 58,
      "start": 60.2513,
      "duration": 0.1651,
      "velocity": 127,
      "chip": "ym2612"
    },
    {
      "channel": 4,
      "note": 56,
      "start": 60.2526,
      "duration": 0.0968,
      "velocity": 127,
      "chip": "ym2612"
    },
    {
      "channel": 5,
      "note": 27,
      "start": 60.2535,
      "duration": 0.1654,
      "velocity": 126,
      "chip": "ym2612"
    },
    {
      "channel": 0,
      "note": 47,
      "start": 60.4144,
      "duration": 0.1643,
      "velocity": 114,
      "chip": "ym2612"
    },
    {
      "channel": 1,
      "note": 44,
      "start": 60.4151,
      "duration": 0.1644,
      "velocity": 108,
      "chip": "ym2612"
    },
    {
      "channel": 2,
      "note": 20,
      "start": 60.4163,
      "duration": 0.1638,
      "velocity": 1,
      "chip": "ym2612"
    },
    {
      "channel": 3,
      "note": 62,
      "start": 60.4176,
      "duration": 0.1466,
      "velocity": 118,
      "chip": "ym2612"
    },
    {
      "channel": 4,
      "note": 56,
      "start": 60.4188,
      "duration": 0.0962,
      "velocity": 127,
      "chip": "ym2612"
    },
    {
      "channel": 5,
      "note": 39,
      "start": 60.4197,
      "duration": 0.1636,
      "velocity": 126,
      "chip": "ym2612"
    },
    {
      "channel": 0,
      "note": 47,
      "start": 60.5793,
      "duration": 0.1648,
      "velocity": 114,
      "chip": "ym2612"
    },
    {
      "channel": 1,
      "note": 47,
      "start": 60.58,
      "duration": 0.165,
      "velocity": 108,
      "chip": "ym2612"
    },
    {
      "channel": 2,
      "note": 20,
      "start": 60.5812,
      "duration": 0.1645,
      "velocity": 113,
      "chip": "ym2612"
    },
    {
      "channel": 3,
      "note": 62,
      "start": 60.5819,
      "duration": 0.1478,
      "velocity": 118,
      "chip": "ym2612"
    },
    {
      "channel": 4,
      "note": 56,
      "start": 60.5832,
      "duration": 0.0973,
      "velocity": 127,
      "chip": "ym2612"
    },
    {
      "channel": 5,
      "note": 42,
      "start": 60.584,
      "duration": 0.1642,
      "velocity": 126,
      "chip": "ym2612"
    },
    {
      "channel": 0,
      "note": 47,
      "start": 60.7449,
      "duration": 0.1648,
      "velocity": 114,
      "chip": "ym2612"
    },
    {
      "channel": 1,
      "note": 52,
      "start": 60.7456,
      "duration": 0.165,
      "velocity": 108,
      "chip": "ym2612"
    },
    {
      "channel": 2,
      "note": 20,
      "start": 60.7462,
      "duration": 0.1651,
      "velocity": 113,
      "chip": "ym2612"
    },
    {
      "channel": 3,
      "note": 62,
      "start": 60.7468,
      "duration": 0.1483,
      "velocity": 118,
      "chip": "ym2612"
    },
    {
      "channel": 4,
      "note": 56,
      "start": 60.7481,
      "duration": 0.098,
      "velocity": 127,
      "chip": "ym2612"
    },
    {
      "channel": 5,
      "note": 39,
      "start": 60.749,
      "duration": 0.1649,
      "velocity": 126,
      "chip": "ym2612"
    },
    {
      "channel": 0,
      "note": 47,
      "start": 60.9104,
      "duration": 0.1649,
      "velocity": 114,
      "chip": "ym2612"
    },
    {
      "channel": 1,
      "note": 53,
      "start": 60.9111,
      "duration": 0.165,
      "velocity": 108,
      "chip": "ym2612"
    },
    {
      "channel": 2,
      "note": 20,
      "start": 60.9117,
      "duration": 0.1651,
      "velocity": 113,
      "chip": "ym2612"
    },
    {
      "channel": 3,
      "note": 29,
      "start": 60.913,
      "duration": 0.1644,
      "velocity": 1,
      "chip": "ym2612"
    },
    {
      "channel": 4,
      "note": 56,
      "start": 60.9137,
      "duration": 0.098,
      "velocity": 127,
      "chip": "ym2612"
    },
    {
      "channel": 5,
      "note": 32,
      "start": 60.9146,
      "duration": 0.1653,
      "velocity": 126,
      "chip": "ym2612"
    },
    {
      "channel": 0,
      "note": 49,
      "start": 61.0759,
      "duration": 0.1649,
      "velocity": 114,
      "chip": "ym2612"
    },
    {
      "channel": 1,
      "note": 46,
      "start": 61.0766,
      "duration": 0.165,
      "velocity": 108,
      "chip": "ym2612"
    },
    {
      "channel": 2,
      "note": 22,
      "start": 61.0772,
      "duration": 0.1651,
      "velocity": 113,
      "chip": "ym2612"
    },
    {
      "channel": 3,
      "note": 62,
      "start": 61.0784,
      "duration": 0.1478,
      "velocity": 118,
      "chip": "ym2612"
    },
    {
      "channel": 4,
      "note": 56,
      "start": 61.0797,
      "duration": 0.0974,
      "velocity": 127,
      "chip": "ym2612"
    },
    {
      "channel": 5,
      "note": 46,
      "start": 61.0806,
      "duration": 0.1648,
      "velocity": 126,
      "chip": "ym2612"
    },
    {
      "channel": 0,
      "note": 49,
      "start": 61.2414,
      "duration": 0.1649,
      "velocity": 114,
      "chip": "ym2612"
    },
    {
      "channel": 1,
      "note": 49,
      "start": 61.2422,
      "duration": 0.1649,
      "velocity": 108,
      "chip": "ym2612"
    },
    {
      "channel": 2,
      "note": 22,
      "start": 61.2434,
      "duration": 0.1644,
      "velocity": 1,
      "chip": "ym2612"
    },
    {
      "channel": 3,
      "note": 62,
      "start": 61.244,
      "duration": 0.1478,
      "velocity": 118,
      "chip": "ym2612"
    },
    {
      "channel": 4,
      "note": 56,
      "start": 61.2453,
      "duration": 0.0973,
      "velocity": 127,
      "chip": "ym2612"
    },
    {
      "channel": 5,
      "note": 41,
      "start": 61.2461,
      "duration": 0.1648,
      "velocity": 126,
      "chip": "ym2612"
    },
    {
      "channel": 0,
      "note": 49,
      "start": 61.4069,
      "duration": 0.1648,
      "velocity": 114,
      "chip": "ym2612"
    },
    {
      "channel": 1,
      "note": 53,
      "start": 61.4077,
      "duration": 0.1654,
      "velocity": 108,
      "chip": "ym2612"
    },
    {
      "channel": 2,
      "note": 22,
      "start": 61.4089,
      "duration": 0.1649,
      "velocity": 113,
      "chip": "ym2612"
    },
    {
      "channel": 3,
      "note": 62,
      "start": 61.4095,
      "duration": 0.1478,
      "velocity": 118,
      "chip": "ym2612"
    },
    {
      "channel": 4,
      "note": 56,
      "start": 61.4108,
      "duration": 0.0973,
      "velocity": 127,
      "chip": "ym2612"
    },
    {
      "channel": 5,
      "note": 44,
      "start": 61.4117,
      "duration": 0.1653,
      "velocity": 126,
      "chip": "ym2612"
    },
    {
      "channel": 0,
      "note": 49,
      "start": 61.5729,
      "duration": 0.0821,
      "velocity": 112,
      "chip": "ym2612"
    },
    {
      "channel": 1,
      "note": 54,
      "start": 61.5736,
      "duration": 0.1652,
      "velocity": 108,
      "chip": "ym2612"
    },
    {
      "channel": 2,
      "note": 22,
      "start": 61.5742,
      "duration": 0.1653,
      "velocity": 113,
      "chip": "ym2612"
    },
    {
      "channel": 3,
      "note": 58,
      "start": 61.5756,
      "duration": 0.1651,
      "velocity": 127,
      "chip": "ym2612"
    },
    {
      "channel": 4,
      "note": 56,
      "start": 61.5768,
      "duration": 0.0968,
      "velocity": 127,
      "chip": "ym2612"
    },
    {
      "channel": 5,
      "note": 29,
      "start": 61.5777,
      "duration": 0.1655,
      "velocity": 126,
      "chip": "ym2612"
    },
    {
      "channel": 0,
      "note": 49,
      "start": 61.7386,
      "duration": 0.1642,
      "velocity": 114,
      "chip": "ym2612"
    },
    {
      "channel": 1,
      "note": 46,
      "start": 61.7394,
      "duration": 0.1644,
      "velocity": 108,
      "chip": "ym2612"
    },
    {
      "channel": 2,
      "note": 22,
      "start": 61.7406,
      "duration": 0.1639,
      "velocity": 1,
      "chip": "ym2612"
    },
    {
      "channel": 3,
      "note": 62,
      "start": 61.7418,
      "duration": 0.1466,
      "velocity": 118,
      "chip": "ym2612"
    },
    {
      "channel": 4,
      "note": 56,
      "start": 61.7431,
      "duration": 0.0962,
      "velocity": 127,
      "chip": "ym2612"
    },
    {
      "channel": 5,
      "note": 41,
      "start": 61.744,
      "duration": 0.1636,
      "velocity": 126,
      "chip": "ym2612"
    },
    {
      "channel": 0,
      "note": 49,
      "start": 61.9036,
      "duration": 0.1648,
      "velocity": 114,
      "chip": "ym2612"
    },
    {
      "channel": 1,
      "note": 49,
      "start": 61.9043,
      "duration": 0.1649,
      "velocity": 108,
      "chip": "ym2612"
    },
    {
      "channel": 2,
      "note": 20,
      "start": 61.9055,
      "duration": 0.1644,
      "velocity": 113,
      "chip": "ym2612"
    },
    {
      "channel": 3,
      "note": 62,
      "start": 61.9061,
      "duration": 0.1478,
      "velocity": 118,
      "chip": "ym2612"
    },
    {
      "channel": 4,
      "note": 56,
      "start": 61.9074,
      "duration": 0.0973,
      "velocity": 127,
      "chip": "ym2612"
    },
    {
      "channel": 5,
      "note": 44,
      "start": 61.9083,
      "duration": 0.1649,
      "velocity": 126,
      "chip": "ym2612"
    },
    {
      "channel": 0,
      "note": 49,
      "start": 62.0691,
      "duration": 0.1648,
      "velocity": 114,
      "chip": "ym2612"
    },
    {
      "channel": 1,
      "note": 54,
      "start": 62.0698,
      "duration": 0.1649,
      "velocity": 108,
      "chip": "ym2612"
    },
    {
      "channel": 2,
      "note": 22,
      "start": 62.0704,
      "duration": 0.1651,
      "velocity": 113,
      "chip": "ym2612"
    },
    {
      "channel": 3,
      "note": 58,
      "start": 62.0718,
      "duration": 0.1643,
      "velocity": 127,
      "chip": "ym2612"
    },
    {
      "channel": 4,
      "note": 56,
      "start": 62.073,
      "duration": 0.0973,
      "velocity": 127,
      "chip": "ym2612"
    },
    {
      "channel": 5,
      "note": 41,
      "start": 62.0739,
      "duration": 0.1648,
      "velocity": 126,
      "chip": "ym2612"
    },
    {
      "channel": 0,
      "note": 49,
      "start": 62.2346,
      "duration": 0.1648,
      "velocity": 114,
      "chip": "ym2612"
    },
    {
      "channel": 1,
      "note": 53,
      "start": 62.2353,
      "duration": 0.1649,
      "velocity": 108,
      "chip": "ym2612"
    },
    {
      "channel": 2,
      "note": 22,
      "start": 62.2359,
      "duration": 0.1651,
      "velocity": 113,
      "chip": "ym2612"
    },
    {
      "channel": 3,
      "note": 29,
      "start": 62.2373,
      "duration": 0.1643,
      "velocity": 1,
      "chip": "ym2612"
    },
    {
      "channel": 4,
      "note": 56,
      "start": 62.2385,
      "duration": 0.0973,
      "velocity": 127,
      "chip": "ym2612"
    },
    {
      "channel": 5,
      "note": 46,
      "start": 62.2395,
      "duration": 0.1647,
      "velocity": 126,
      "chip": "ym2612"
    },
    {
      "channel": 0,
      "note": 49,
      "start": 62.4001,
      "duration": 0.1648,
      "velocity": 114,
      "chip": "ym2612"
    },
    {
      "channel": 1,
      "note": 46,
      "start": 62.4008,
      "duration": 0.1649,
      "velocity": 108,
      "chip": "ym2612"
    },
    {
      "channel": 2,
      "note": 22,
      "start": 62.4015,
      "duration": 0.165,
      "velocity": 113,
      "chip": "ym2612"
    },
    {
      "channel": 3,
      "note": 62,
      "start": 62.4027,
      "duration": 0.1477,
      "velocity": 118,
      "chip": "ym2612"
    },
    {
      "channel": 4,
      "note": 56,
      "start": 62.404,
      "duration": 0.0973,
      "velocity": 127,
      "chip": "ym2612"
    },
    {
      "channel": 5,
      "note": 46,
      "start": 62.4048,
      "duration": 0.1648,
      "velocity": 126,
      "chip": "ym2612"
    },
    {
      "channel": 0,
      "note": 49,
      "start": 62.5656,
      "duration": 0.1648,
      "velocity": 114,
      "chip": "ym2612"
    },
    {
      "channel": 1,
      "note": 49,
      "start": 62.5663,
      "duration": 0.165,
      "velocity": 108,
      "chip": "ym2612"
    },
    {
      "channel": 2,
      "note": 22,
      "start": 62.5676,
      "duration": 0.1644,
      "velocity": 1,
      "chip": "ym2612"
    },
    {
      "channel": 3,
      "note": 62,
      "start": 62.5682,
      "duration": 0.1477,
      "velocity": 118,
      "chip": "ym2612"
    },
    {
      "channel": 4,
      "note": 56,
      "start": 62.5695,
      "duration": 0.0974,
      "velocity": 127,
      "chip": "ym2612"
    },
    {
      "channel": 5,
      "note": 41,
      "start": 62.5704,
      "duration": 0.1648,
      "velocity": 126,
      "chip": "ym2612"
    },
    {
      "channel": 0,
      "note": 49,
      "start": 62.7312,
      "duration": 0.1648,
      "velocity": 114,
      "chip": "ym2612"
    },
    {
      "channel": 1,
      "note": 53,
      "start": 62.7319,
      "duration": 0.1654,
      "velocity": 108,
      "chip": "ym2612"
    },
    {
      "channel": 2,
      "note": 22,
      "start": 62.7331,
      "duration": 0.1649,
      "velocity": 113,
      "chip": "ym2612"
    },
    {
      "channel": 3,
      "note": 62,
      "start": 62.7337,
      "duration": 0.1478,
      "velocity": 118,
      "chip": "ym2612"
    },
    {
      "channel": 4,
      "note": 56,
      "start": 62.7351,
      "duration": 0.0973,
      "velocity": 127,
      "chip": "ym2612"
    },
    {
      "channel": 5,
      "note": 44,
      "start": 62.7359,
      "duration": 0.1654,
      "velocity": 126,
      "chip": "ym2612"
    },
    {
      "channel": 0,
      "note": 49,
      "start": 62.8971,
      "duration": 0.082,
      "velocity": 112,
      "chip": "ym2612"
    },
    {
      "channel": 1,
      "note": 54,
      "start": 62.8978,
      "duration": 0.1651,
      "velocity": 108,
      "chip": "ym2612"
    },
    {
      "channel": 2,
      "note": 22,
      "start": 62.8985,
      "duration": 0.1651,
      "velocity": 113,
      "chip": "ym2612"
    },
    {
      "channel": 3,
      "note": 58,
      "start": 62.8998,
      "duration": 0.1651,
      "velocity": 127,
      "chip": "ym2612"
    },
    {
      "channel": 4,
      "note": 56,
      "start": 62.901,
      "duration": 0.0968,
      "velocity": 127,
      "chip": "ym2612"
    },
    {
      "channel": 5,
      "note": 29,
      "start": 62.9019,
      "duration": 0.1655,
      "velocity": 126,
      "chip": "ym2612"
    },
    {
      "channel": 0,
      "note": 49,
      "start": 63.0628,
      "duration": 0.1642,
      "velocity": 114,
      "chip": "ym2612"
    },
    {
      "channel": 1,
      "note": 46,
      "start": 63.0635,
      "duration": 0.1644,
      "velocity": 108,
      "chip": "ym2612"
    },
    {
      "channel": 2,
      "note": 22,
      "start": 63.0647,
      "duration": 0.1639,
      "velocity": 1,
      "chip": "ym2612"
    },
    {
      "channel": 3,
      "note": 62,
      "start": 63.0659,
      "duration": 0.1466,
      "velocity": 118,
      "chip": "ym2612"
    },
    {
      "channel": 4,
      "note": 56,
      "start": 63.0672,
      "duration": 0.0962,
      "velocity": 127,
      "chip": "ym2612"
    },
    {
      "channel": 5,
      "note": 41,
      "start": 63.0681,
      "duration": 0.1637,
      "velocity": 126,
      "chip": "ym2612"
    },
    {
      "channel": 0,
      "note": 49,
      "start": 63.2277,
      "duration": 0.1648,
      "velocity": 114,
      "chip": "ym2612"
    },
    {
      "channel": 1,
      "note": 49,
      "start": 63.2284,
      "duration": 0.165,
      "velocity": 108,
      "chip": "ym2612"
    },
    {
      "channel": 2,
      "note": 22,
      "start": 63.2296,
      "duration": 0.1645,
      "velocity": 113,
      "chip": "ym2612"
    },
    {
      "channel": 3,
      "note": 62,
      "start": 63.2303,
      "duration": 0.1478,
      "velocity": 118,
      "chip": "ym2612"
    },
    {
      "channel": 4,
      "note": 56,
      "start": 63.2316,
      "duration": 0.0973,
      "velocity": 127,
      "chip": "ym2612"
    },
    {
      "channel": 5,
      "note": 44,
      "start": 63.2324,
      "duration": 0.1642,
      "velocity": 126,
      "chip": "ym2612"
    },
    {
      "channel": 0,
      "note": 49,
      "start": 63.3933,
      "duration": 0.1648,
      "velocity": 114,
      "chip": "ym2612"
    },
    {
      "channel": 1,
      "note": 54,
      "start": 63.394,
      "duration": 0.165,
      "velocity": 108,
      "chip": "ym2612"
    },
    {
      "channel": 2,
      "note": 22,
      "start": 63.3946,
      "duration": 0.1651,
      "velocity": 113,
      "chip": "ym2612"
    },
    {
      "channel": 3,
      "note": 62,
      "start": 63.3952,
      "duration": 0.1483,
      "velocity": 118,
      "chip": "ym2612"
    },
    {
      "channel": 4,
      "note": 56,
      "start": 63.3965,
      "duration": 0.098,
      "velocity": 127,
      "chip": "ym2612"
    },
    {
      "channel": 5,
      "note": 41,
      "start": 63.3974,
      "duration": 0.1649,
      "velocity": 126,
      "chip": "ym2612"
    },
    {
      "channel": 0,
      "note": 49,
      "start": 63.5588,
      "duration": 0.1648,
      "velocity": 114,
      "chip": "ym2612"
    },
    {
      "channel": 1,
      "note": 51,
      "start": 63.5595,
      "duration": 0.165,
      "velocity": 108,
      "chip": "ym2612"
    },
    {
      "channel": 2,
      "note": 22,
      "start": 63.5601,
      "duration": 0.1651,
      "velocity": 113,
      "chip": "ym2612"
    },
    {
      "channel": 3,
      "note": 29,
      "start": 63.5614,
      "duration": 0.1644,
      "velocity": 1,
      "chip": "ym2612"
    },
    {
      "channel": 4,
      "note": 56,
      "start": 63.5621,
      "duration": 0.098,
      "velocity": 127,
      "chip": "ym2612"
    },
    {
      "channel": 5,
      "note": 34,
      "start": 63.563,
      "duration": 0.1654,
      "velocity": 126,
      "chip": "ym2612"
    },
    {
      "channel": 0,
      "note": 44,
      "start": 63.7243,
      "duration": 0.1648,
      "velocity": 114,
      "chip": "ym2612"
    },
    {
      "channel": 1,
      "note": 41,
      "start": 63.725,
      "duration": 0.165,
      "velocity": 108,
      "chip": "ym2612"
    },
    {
      "channel": 2,
      "note": 17,
      "start": 63.7256,
      "duration": 0.165,
      "velocity": 113,
      "chip": "ym2612"
    },
    {
      "channel": 3,
      "note": 62,
      "start": 63.7268,
      "duration": 0.1478,
      "velocity": 118,
      "chip": "ym2612"
    },
    {
      "channel": 4,
      "note": 53,
      "start": 63.7281,
      "duration": 0.0974,
      "velocity": 127,
      "chip": "ym2612"
    },
    {
      "channel": 5,
      "note": 41,
      "start": 63.729,
      "duration": 0.1648,
      "velocity": 126,
      "chip": "ym2612"
    },
    {
      "channel": 0,
      "note": 44,
      "start": 63.8898,
      "duration": 0.1648,
      "velocity": 114,
      "chip": "ym2612"
    },
    {
      "channel": 1,
      "note": 44,
      "start": 63.8905,
      "duration": 0.165,
      "velocity": 108,
      "chip": "ym2612"
    },
    {
      "channel": 2,
      "note": 17,
      "start": 63.8917,
      "duration": 0.1644,
      "velocity": 1,
      "chip": "ym2612"
    },
    {
      "channel": 3,
      "note": 62,
      "start": 63.8924,
      "duration": 0.1478,
      "velocity": 118,
      "chip": "ym2612"
    },
    {
      "channel": 4,
      "note": 53,
      "start": 63.8937,
      "duration": 0.0973,
      "velocity": 127,
      "chip": "ym2612"
    },
    {
      "channel": 5,
      "note": 36,
      "start": 63.8945,
      "duration": 0.1648,
      "velocity": 126,
      "chip": "ym2612"
    },
    {
      "channel": 0,
      "note": 44,
      "start": 64.0554,
      "duration": 0.1648,
      "velocity": 114,
      "chip": "ym2612"
    },
    {
      "channel": 1,
      "note": 48,
      "start": 64.0561,
      "duration": 0.1654,
      "velocity": 108,
      "chip": "ym2612"
    },
    {
      "channel": 2,
      "note": 17,
      "start": 64.0573,
      "duration": 0.165,
      "velocity": 113,
      "chip": "ym2612"
    },
    {
      "channel": 3,
      "note": 62,
      "start": 64.0579,
      "duration": 0.1478,
      "velocity": 118,
      "chip": "ym2612"
    },
    {
      "channel": 4,
      "note": 53,
      "start": 64.0592,
      "duration": 0.0974,
      "velocity": 127,
      "chip": "ym2612"
    },
    {
      "channel": 5,
      "note": 39,
      "start": 64.06,
      "duration": 0.1654,
      "velocity": 126,
      "chip": "ym2612"
    },
    {
      "channel": 0,
      "note": 44,
      "start": 64.2214,
      "duration": 0.082,
      "velocity": 112,
      "chip": "ym2612"
    },
    {
      "channel": 1,
      "note": 49,
      "start": 64.2221,
      "duration": 0.1651,
      "velocity": 108,
      "chip": "ym2612"
    },
    {
      "channel": 2,
      "note": 17,
      "start": 64.2227,
      "duration": 0.1651,
      "velocity": 113,
      "chip": "ym2612"
    },
    {
      "channel": 3,
      "note": 58,
      "start": 64.224,
      "duration": 0.1651,
      "velocity": 127,
      "chip": "ym2612"
    },
    {
      "channel": 4,
      "note": 53,
      "start": 64.2253,
      "duration": 0.0968,
      "velocity": 127,
      "chip": "ym2612"
    },
    {
      "channel": 5,
      "note": 24,
      "start": 64.2261,
      "duration": 0.1655,
      "velocity": 126,
      "chip": "ym2612"
    },
    {
      "channel": 0,
      "note": 44,
      "start": 64.387,
      "duration": 0.1642,
      "velocity": 114,
      "chip": "ym2612"
    },
    {
      "channel": 1,
      "note": 41,
      "start": 64.3877,
      "duration": 0.1644,
      "velocity": 108,
      "chip": "ym2612"
    },
    {
      "channel": 2,
      "note": 17,
      "start": 64.3889,
      "duration": 0.1639,
      "velocity": 1,
      "chip": "ym2612"
    },
    {
      "channel": 3,
      "note": 62,
      "start": 64.3901,
      "duration": 0.1466,
      "velocity": 118,
      "chip": "ym2612"
    },
    {
      "channel": 4,
      "note": 53,
      "start": 64.3915,
      "duration": 0.0961,
      "velocity": 127,
      "chip": "ym2612"
    },
    {
      "channel": 5,
      "note": 36,
      "start": 64.3923,
      "duration": 0.1637,
      "velocity": 126,
      "chip": "ym2612"
    },
    {
      "channel": 0,
      "note": 44,
      "start": 64.552,
      "duration": 0.1648,
      "velocity": 114,
      "chip": "ym2612"
    },
    {
      "channel": 1,
      "note": 44,
      "start": 64.5527,
      "duration": 0.1649,
      "velocity": 108,
      "chip": "ym2612"
    },
    {
      "channel": 2,
      "note": 15,
      "start": 64.5539,
      "duration": 0.1644,
      "velocity": 113,
      "chip": "ym2612"
    },
    {
      "channel": 3,
      "note": 62,
      "start": 64.5545,
      "duration": 0.1477,
      "velocity": 118,
      "chip": "ym2612"
    },
    {
      "channel": 4,
      "note": 53,
      "start": 64.5559,
      "duration": 0.0973,
      "velocity": 127,
      "chip": "ym2612"
    },
    {
      "channel": 5,
      "note": 39,
      "start": 64.5567,
      "duration": 0.1649,
      "velocity": 126,
      "chip": "ym2612"
    },
    {
      "channel": 0,
      "note": 44,
      "start": 64.7175,
      "duration": 0.1648,
      "velocity": 114,
      "chip": "ym2612"
    },
    {
      "channel": 1,
      "note": 49,
      "start": 64.7182,
      "duration": 0.1649,
      "velocity": 108,
      "chip": "ym2612"
    },
    {
      "channel": 2,
      "note": 17,
      "start": 64.7188,
      "duration": 0.165,
      "velocity": 113,
      "chip": "ym2612"
    },
    {
      "channel": 3,
      "note": 58,
      "start": 64.7201,
      "duration": 0.1644,
      "velocity": 127,
      "chip": "ym2612"
    },
    {
      "channel": 4,
      "note": 53,
      "start": 64.7215,
      "duration": 0.0973,
      "velocity": 127,
      "chip": "ym2612"
    },
    {
      "channel": 5,
      "note": 36,
      "start": 64.7223,
      "duration": 0.1648,
      "velocity": 126,
      "chip": "ym2612"
    },
    {
      "channel": 0,
      "note": 44,
      "start": 64.883,
      "duration": 0.1648,
      "velocity": 114,
      "chip": "ym2612"
    },
    {
      "channel": 1,
      "note": 48,
      "start": 64.8837,
      "duration": 0.1649,
      "velocity": 108,
      "chip": "ym2612"
    },
    {
      "channel": 2,
      "note": 17,
      "start": 64.8844,
      "duration": 0.165,
      "velocity": 113,
      "chip": "ym2612"
    },
    {
      "channel": 3,
      "note": 29,
      "start": 64.8856,
      "duration": 0.1644,
      "velocity": 1,
      "chip": "ym2612"
    },
    {
      "channel": 4,
      "note": 53,
      "start": 64.8869,
      "duration": 0.0973,
      "velocity": 127,
      "chip": "ym2612"
    },
    {
      "channel": 5,
      "note": 41,
      "start": 64.8878,
      "duration": 0.1647,
      "velocity": 126,
      "chip": "ym2612"
    },
    {
      "channel": 0,
      "note": 44,
      "start": 65.0485,
      "duration": 0.1648,
      "velocity": 114,
      "chip": "ym2612"
    },
    {
      "channel": 1,
      "note": 41,
      "start": 65.0493,
      "duration": 0.1649,
      "velocity": 108,
      "chip": "ym2612"
    },
    {
      "channel": 2,
      "note": 17,
      "start": 65.0499,
      "duration": 0.165,
      "velocity": 113,
      "chip": "ym2612"
    },
    {
      "channel": 3,
      "note": 62,
      "start": 65.051,
      "duration": 0.1478,
      "velocity": 118,
      "chip": "ym2612"
    },
    {
      "channel": 4,
      "note": 53,
      "start": 65.0524,
      "duration": 0.0973,
      "velocity": 127,
      "chip": "ym2612"
    },
    {
      "channel": 5,
      "note": 41,
      "start": 65.0532,
      "duration": 0.1648,
      "velocity": 126,
      "chip": "ym2612"
    },
    {
      "channel": 0,
      "note": 44,
      "start": 65.2141,
      "duration": 0.1648,
      "velocity": 114,
      "chip": "ym2612"
    },
    {
      "channel": 1,
      "note": 44,
      "start": 65.2148,
      "duration": 0.1649,
      "velocity": 108,
      "chip": "ym2612"
    },
    {
      "channel": 2,
      "note": 17,
      "start": 65.216,
      "duration": 0.1644,
      "velocity": 1,
      "chip": "ym2612"
    },
    {
      "channel": 3,
      "note": 62,
      "start": 65.2166,
      "duration": 0.1477,
      "velocity": 118,
      "chip": "ym2612"
    },
    {
      "channel": 4,
      "note": 53,
      "start": 65.2179,
      "duration": 0.0973,
      "velocity": 127,
      "chip": "ym2612"
    },
    {
      "channel": 5,
      "note": 36,
      "start": 65.2188,
      "duration": 0.1648,
      "velocity": 126,
      "chip": "ym2612"
    },
    {
      "channel": 0,
      "note": 44,
      "start": 65.3796,
      "duration": 0.1648,
      "velocity": 114,
      "chip": "ym2612"
    },
    {
      "channel": 1,
      "note": 48,
      "start": 65.3803,
      "duration": 0.1654,
      "velocity": 108,
      "chip": "ym2612"
    },
    {
      "channel": 2,
      "note": 17,
      "start": 65.3815,
      "duration": 0.1649,
      "velocity": 113,
      "chip": "ym2612"
    },
    {
      "channel": 3,
      "note": 62,
      "start": 65.3821,
      "duration": 0.1477,
      "velocity": 118,
      "chip": "ym2612"
    },
    {
      "channel": 4,
      "note": 53,
      "start": 65.3834,
      "duration": 0.0973,
      "velocity": 127,
      "chip": "ym2612"
    },
    {
      "channel": 5,
      "note": 39,
      "start": 65.3843,
      "duration": 0.1653,
      "velocity": 126,
      "chip": "ym2612"
    },
    {
      "channel": 0,
      "note": 44,
      "start": 65.5455,
      "duration": 0.0821,
      "velocity": 112,
      "chip": "ym2612"
    },
    {
      "channel": 1,
      "note": 49,
      "start": 65.5463,
      "duration": 0.1651,
      "velocity": 108,
      "chip": "ym2612"
    },
    {
      "channel": 2,
      "note": 17,
      "start": 65.5469,
      "duration": 0.1651,
      "velocity": 113,
      "chip": "ym2612"
    },
    {
      "channel": 3,
      "note": 58,
      "start": 65.5482,
      "duration": 0.1651,
      "velocity": 127,
      "chip": "ym2612"
    },
    {
      "channel": 4,
      "note": 53,
      "start": 65.5494,
      "duration": 0.0968,
      "velocity": 127,
      "chip": "ym2612"
    },
    {
      "channel": 5,
      "note": 24,
      "start": 65.5503,
      "duration": 0.1655,
      "velocity": 126,
      "chip": "ym2612"
    },
    {
      "channel": 0,
      "note": 44,
      "start": 65.7112,
      "duration": 0.1642,
      "velocity": 114,
      "chip": "ym2612"
    },
    {
      "channel": 1,
      "note": 41,
      "start": 65.7119,
      "duration": 0.1644,
      "velocity": 108,
      "chip": "ym2612"
    },
    {
      "channel": 2,
      "note": 17,
      "start": 65.7131,
      "duration": 0.1639,
      "velocity": 1,
      "chip": "ym2612"
    },
    {
      "channel": 3,
      "note": 62,
      "start": 65.7143,
      "duration": 0.1466,
      "velocity": 118,
      "chip": "ym2612"
    },
    {
      "channel": 4,
      "note": 53,
      "start": 65.7156,
      "duration": 0.0962,
      "velocity": 127,
      "chip": "ym2612"
    },
    {
      "channel": 5,
      "note": 36,
      "start": 65.7165,
      "duration": 0.1637,
      "velocity": 126,
      "chip": "ym2612"
    },
    {
      "channel": 0,
      "note": 44,
      "start": 65.8761,
      "duration": 0.1648,
      "velocity": 114,
      "chip": "ym2612"
    },
    {
      "channel": 1,
      "note": 44,
      "start": 65.8768,
      "duration": 0.165,
      "velocity": 108,
      "chip": "ym2612"
    },
    {
      "channel": 2,
      "note": 17,
      "start": 65.878,
      "duration": 0.1645,
      "velocity": 113,
      "chip": "ym2612"
    },
    {
      "channel": 3,
      "note": 62,
      "start": 65.8787,
      "duration": 0.1478,
      "velocity": 118,
      "chip": "ym2612"
    },
    {
      "channel": 4,
      "note": 53,
      "start": 65.88,
      "duration": 0.0973,
      "velocity": 127,
      "chip": "ym2612"
    },
    {
      "channel": 5,
      "note": 39,
      "start": 65.8809,
      "duration": 0.1642,
      "velocity": 126,
      "chip": "ym2612"
    },
    {
      "channel": 0,
      "note": 44,
      "start": 66.0417,
      "duration": 0.1648,
      "velocity": 114,
      "chip": "ym2612"
    },
    {
      "channel": 1,
      "note": 49,
      "start": 66.0424,
      "duration": 0.165,
      "velocity": 108,
      "chip": "ym2612"
    },
    {
      "channel": 2,
      "note": 17,
      "start": 66.043,
      "duration": 0.1651,
      "velocity": 113,
      "chip": "ym2612"
    },
    {
      "channel": 3,
      "note": 62,
      "start": 66.0437,
      "duration": 0.1483,
      "velocity": 118,
      "chip": "ym2612"
    },
    {
      "channel": 4,
      "note": 53,
      "start": 66.0449,
      "duration": 0.098,
      "velocity": 127,
      "chip": "ym2612"
    },
    {
      "channel": 5,
      "note": 36,
      "start": 66.0458,
      "duration": 0.1649,
      "velocity": 126,
      "chip": "ym2612"
    },
    {
      "channel": 0,
      "note": 44,
      "start": 66.2072,
      "duration": 0.1648,
      "velocity": 114,
      "chip": "ym2612"
    },
    {
      "channel": 1,
      "note": 48,
      "start": 66.2079,
      "duration": 0.165,
      "velocity": 108,
      "chip": "ym2612"
    },
    {
      "channel": 2,
      "note": 17,
      "start": 66.2085,
      "duration": 0.1651,
      "velocity": 113,
      "chip": "ym2612"
    },
    {
      "channel": 3,
      "note": 29,
      "start": 66.2098,
      "duration": 0.1644,
      "velocity": 1,
      "chip": "ym2612"
    },
    {
      "channel": 4,
      "note": 53,
      "start": 66.2105,
      "duration": 0.098,
      "velocity": 127,
      "chip": "ym2612"
    },
    {
      "channel": 5,
      "note": 29,
      "start": 66.2114,
      "duration": 0.1653,
      "velocity": 126,
      "chip": "ym2612"
    },
    {
      "channel": 0,
      "note": 44,
      "start": 66.3727,
      "duration": 0.1648,
      "velocity": 114,
      "chip": "ym2612"
    },
    {
      "channel": 1,
      "note": 41,
      "start": 66.3734,
      "duration": 0.165,
      "velocity": 108,
      "chip": "ym2612"
    },
    {
      "channel": 2,
      "note": 17,
      "start": 66.3741,
      "duration": 0.165,
      "velocity": 113,
      "chip": "ym2612"
    },
    {
      "channel": 3,
      "note": 62,
      "start": 66.3753,
      "duration": 0.1478,
      "velocity": 118,
      "chip": "ym2612"
    },
    {
      "channel": 4,
      "note": 53,
      "start": 66.3765,
      "duration": 0.0974,
      "velocity": 127,
      "chip": "ym2612"
    },
    {
      "channel": 5,
      "note": 41,
      "start": 66.3774,
      "duration": 0.1648,
      "velocity": 126,
      "chip": "ym2612"
    },
    {
      "channel": 0,
      "note": 44,
      "start": 66.5382,
      "duration": 0.1648,
      "velocity": 114,
      "chip": "ym2612"
    },
    {
      "channel": 1,
      "note": 44,
      "start": 66.5389,
      "duration": 0.1651,
      "velocity": 108,
      "chip": "ym2612"
    },
    {
      "channel": 2,
      "note": 17,
      "start": 66.5401,
      "duration": 0.1645,
      "velocity": 1,
      "chip": "ym2612"
    },
    {
      "channel": 3,
      "note": 62,
      "start": 66.5408,
      "duration": 0.1478,
      "velocity": 118,
      "chip": "ym2612"
    },
    {
      "channel": 4,
      "note": 53,
      "start": 66.5421,
      "duration": 0.0974,
      "velocity": 127,
      "chip": "ym2612"
    },
    {
      "channel": 5,
      "note": 36,
      "start": 66.5429,
      "duration": 0.1648,
      "velocity": 126,
      "chip": "ym2612"
    },
    {
      "channel": 0,
      "note": 44,
      "start": 66.7038,
      "duration": 0.1647,
      "velocity": 114,
      "chip": "ym2612"
    },
    {
      "channel": 1,
      "note": 48,
      "start": 66.7045,
      "duration": 0.1653,
      "velocity": 108,
      "chip": "ym2612"
    },
    {
      "channel": 2,
      "note": 17,
      "start": 66.7057,
      "duration": 0.1649,
      "velocity": 113,
      "chip": "ym2612"
    },
    {
      "channel": 3,
      "note": 62,
      "start": 66.7064,
      "duration": 0.1478,
      "velocity": 118,
      "chip": "ym2612"
    },
    {
      "channel": 4,
      "note": 53,
      "start": 66.7076,
      "duration": 0.0973,
      "velocity": 127,
      "chip": "ym2612"
    },
    {
      "channel": 5,
      "note": 39,
      "start": 66.7085,
      "duration": 0.1653,
      "velocity": 126,
      "chip": "ym2612"
    },
    {
      "channel": 0,
      "note": 44,
      "start": 66.8697,
      "duration": 0.0821,
      "velocity": 112,
      "chip": "ym2612"
    },
    {
      "channel": 1,
      "note": 49,
      "start": 66.8705,
      "duration": 0.1651,
      "velocity": 108,
      "chip": "ym2612"
    },
    {
      "channel": 2,
      "note": 17,
      "start": 66.8711,
      "duration": 0.1651,
      "velocity": 113,
      "chip": "ym2612"
    },
    {
      "channel": 3,
      "note": 58,
      "start": 66.8724,
      "duration": 0.1651,
      "velocity": 127,
      "chip": "ym2612"
    },
    {
      "channel": 4,
      "note": 53,
      "start": 66.8737,
      "duration": 0.0968,
      "velocity": 127,
      "chip": "ym2612"
    },
    {
      "channel": 5,
      "note": 24,
      "start": 66.8746,
      "duration": 0.1655,
      "velocity": 126,
      "chip": "ym2612"
    },
    {
      "channel": 0,
      "note": 44,
      "start": 67.0354,
      "duration": 0.1643,
      "velocity": 114,
      "chip": "ym2612"
    },
    {
      "channel": 1,
      "note": 41,
      "start": 67.0361,
      "duration": 0.1644,
      "velocity": 108,
      "chip": "ym2612"
    },
    {
      "channel": 2,
      "note": 17,
      "start": 67.0373,
      "duration": 0.1638,
      "velocity": 1,
      "chip": "ym2612"
    },
    {
      "channel": 3,
      "note": 62,
      "start": 67.0385,
      "duration": 0.1466,
      "velocity": 118,
      "chip": "ym2612"
    },
    {
      "channel": 4,
      "note": 53,
      "start": 67.0399,
      "duration": 0.0961,
      "velocity": 127,
      "chip": "ym2612"
    },
    {
      "channel": 5,
      "note": 36,
      "start": 67.0407,
      "duration": 0.1637,
      "velocity": 126,
      "chip": "ym2612"
    },
    {
      "channel": 0,
      "note": 44,
      "start": 67.2003,
      "duration": 0.1649,
      "velocity": 114,
      "chip": "ym2612"
    },
    {
      "channel": 1,
      "note": 44,
      "start": 67.201,
      "duration": 0.165,
      "velocity": 108,
      "chip": "ym2612"
    },
    {
      "channel": 2,
      "note": 15,
      "start": 67.2022,
      "duration": 0.1645,
      "velocity": 113,
      "chip": "ym2612"
    },
    {
      "channel": 3,
      "note": 62,
      "start": 67.2029,
      "duration": 0.1478,
      "velocity": 118,
      "chip": "ym2612"
    },
    {
      "channel": 4,
      "note": 53,
      "start": 67.2042,
      "duration": 0.0973,
      "velocity": 127,
      "chip": "ym2612"
    },
    {
      "channel": 5,
      "note": 39,
      "start": 67.2051,
      "duration": 0.1648,
      "velocity": 126,
      "chip": "ym2612"
    },
    {
      "channel": 0,
      "note": 44,
      "start": 67.3659,
      "duration": 0.1649,
      "velocity": 114,
      "chip": "ym2612"
    },
    {
      "channel": 1,
      "note": 49,
      "start": 67.3666,
      "duration": 0.165,
      "velocity": 108,
      "chip": "ym2612"
    },
    {
      "channel": 2,
      "note": 17,
      "start": 67.3672,
      "duration": 0.1651,
      "velocity": 113,
      "chip": "ym2612"
    },
    {
      "channel": 3,
      "note": 58,
      "start": 67.3685,
      "duration": 0.1643,
      "velocity": 127,
      "chip": "ym2612"
    },
    {
      "channel": 4,
      "note": 53,
      "start": 67.3698,
      "duration": 0.0973,
      "velocity": 127,
      "chip": "ym2612"
    },
    {
      "channel": 5,
      "note": 36,
      "start": 67.3707,
      "duration": 0.1648,
      "velocity": 126,
      "chip": "ym2612"
    },
    {
      "channel": 0,
      "note": 44,
      "start": 67.5314,
      "duration": 0.1649,
      "velocity": 114,
      "chip": "ym2612"
    },
    {
      "channel": 1,
      "note": 48,
      "start": 67.5321,
      "duration": 0.165,
      "velocity": 108,
      "chip": "ym2612"
    },
    {
      "channel": 2,
      "note": 17,
      "start": 67.5327,
      "duration": 0.1651,
      "velocity": 113,
      "chip": "ym2612"
    },
    {
      "channel": 3,
      "note": 29,
      "start": 67.534,
      "duration": 0.1644,
      "velocity": 1,
      "chip": "ym2612"
    },
    {
      "channel": 4,
      "note": 53,
      "start": 67.5353,
      "duration": 0.0973,
      "velocity": 127,
      "chip": "ym2612"
    },
    {
      "channel": 5,
      "note": 41,
      "start": 67.5361,
      "duration": 0.1647,
      "velocity": 126,
      "chip": "ym2612"
    },
    {
      "channel": 0,
      "note": 44,
      "start": 67.6969,
      "duration": 0.1649,
      "velocity": 114,
      "chip": "ym2612"
    },
    {
      "channel": 1,
      "note": 41,
      "start": 67.6976,
      "duration": 0.165,
      "velocity": 108,
      "chip": "ym2612"
    },
    {
      "channel": 2,
      "note": 17,
      "start": 67.6983,
      "duration": 0.165,
      "velocity": 113,
      "chip": "ym2612"
    },
    {
      "channel": 3,
      "note": 62,
      "start": 67.6994,
      "duration": 0.1478,
      "velocity": 118,
      "chip": "ym2612"
    },
    {
      "channel": 4,
      "note": 53,
      "start": 67.7008,
      "duration": 0.0973,
      "velocity": 127,
      "chip": "ym2612"
    },
    {
      "channel": 5,
      "note": 41,
      "start": 67.7016,
      "duration": 0.1648,
      "velocity": 126,
      "chip": "ym2612"
    },
    {
      "channel": 0,
      "note": 44,
      "start": 67.8625,
      "duration": 0.1648,
      "velocity": 114,
      "chip": "ym2612"
    },
    {
      "channel": 1,
      "note": 44,
      "start": 67.8632,
      "duration": 0.1649,
      "velocity": 108,
      "chip": "ym2612"
    },
    {
      "channel": 2,
      "note": 17,
      "start": 67.8644,
      "duration": 0.1644,
      "velocity": 1,
      "chip": "ym2612"
    },
    {
      "channel": 3,
      "note": 62,
      "start": 67.865,
      "duration": 0.1477,
      "velocity": 118,
      "chip": "ym2612"
    },
    {
      "channel": 4,
      "note": 53,
      "start": 67.8663,
      "duration": 0.0973,
      "velocity": 127,
      "chip": "ym2612"
    },
    {
      "channel": 5,
      "note": 36,
      "start": 67.8672,
      "duration": 0.1647,
      "velocity": 126,
      "chip": "ym2612"
    },
    {
      "channel": 0,
      "note": 44,
      "start": 68.028,
      "duration": 0.1647,
      "velocity": 114,
      "chip": "ym2612"
    },
    {
      "channel": 1,
      "note": 48,
      "start": 68.0287,
      "duration": 0.1654,
      "velocity": 108,
      "chip": "ym2612"
    },
    {
      "channel": 2,
      "note": 17,
      "start": 68.0299,
      "duration": 0.1649,
      "velocity": 113,
      "chip": "ym2612"
    },
    {
      "channel": 3,
      "note": 62,
      "start": 68.0305,
      "duration": 0.1477,
      "velocity": 118,
      "chip": "ym2612"
    },
    {
      "channel": 4,
      "note": 53,
      "start": 68.0318,
      "duration": 0.0973,
      "velocity": 127,
      "chip": "ym2612"
    },
    {
      "channel": 5,
      "note": 39,
      "start": 68.0327,
      "duration": 0.1653,
      "velocity": 126,
      "chip": "ym2612"
    },
    {
      "channel": 0,
      "note": 44,
      "start": 68.1939,
      "duration": 0.0821,
      "velocity": 112,
      "chip": "ym2612"
    },
    {
      "channel": 1,
      "note": 49,
      "start": 68.1946,
      "duration": 0.1652,
      "velocity": 108,
      "chip": "ym2612"
    },
    {
      "channel": 2,
      "note": 17,
      "start": 68.1952,
      "duration": 0.1652,
      "velocity": 113,
      "chip": "ym2612"
    },
    {
      "channel": 3,
      "note": 58,
      "start": 68.1966,
      "duration": 0.1651,
      "velocity": 127,
      "chip": "ym2612"
    },
    {
      "channel": 4,
      "note": 53,
      "start": 68.1978,
      "duration": 0.0968,
      "velocity": 127,
      "chip": "ym2612"
    },
    {
      "channel": 5,
      "note": 24,
      "start": 68.1987,
      "duration": 0.1655,
      "velocity": 126,
      "chip": "ym2612"
    },
    {
      "channel": 0,
      "note": 44,
      "start": 68.3596,
      "duration": 0.1642,
      "velocity": 114,
      "chip": "ym2612"
    },
    {
      "channel": 1,
      "note": 41,
      "start": 68.3603,
      "duration": 0.1644,
      "velocity": 108,
      "chip": "ym2612"
    },
    {
      "channel": 2,
      "note": 17,
      "start": 68.3615,
      "duration": 0.1639,
      "velocity": 1,
      "chip": "ym2612"
    },
    {
      "channel": 3,
      "note": 62,
      "start": 68.3627,
      "duration": 0.1466,
      "velocity": 118,
      "chip": "ym2612"
    },
    {
      "channel": 4,
      "note": 53,
      "start": 68.364,
      "duration": 0.0962,
      "velocity": 127,
      "chip": "ym2612"
    },
    {
      "channel": 5,
      "note": 36,
      "start": 68.3649,
      "duration": 0.1636,
      "velocity": 126,
      "chip": "ym2612"
    },
    {
      "channel": 0,
      "note": 44,
      "start": 68.5246,
      "duration": 0.1648,
      "velocity": 114,
      "chip": "ym2612"
    },
    {
      "channel": 1,
      "note": 44,
      "start": 68.5253,
      "duration": 0.1649,
      "velocity": 108,
      "chip": "ym2612"
    },
    {
      "channel": 2,
      "note": 17,
      "start": 68.5265,
      "duration": 0.1645,
      "velocity": 113,
      "chip": "ym2612"
    },
    {
      "channel": 3,
      "note": 62,
      "start": 68.5271,
      "duration": 0.1477,
      "velocity": 118,
      "chip": "ym2612"
    },
    {
      "channel": 4,
      "note": 53,
      "start": 68.5284,
      "duration": 0.0973,
      "velocity": 127,
      "chip": "ym2612"
    },
    {
      "channel": 5,
      "note": 39,
      "start": 68.5293,
      "duration": 0.1642,
      "velocity": 126,
      "chip": "ym2612"
    },
    {
      "channel": 0,
      "note": 44,
      "start": 68.6901,
      "duration": 0.1648,
      "velocity": 114,
      "chip": "ym2612"
    },
    {
      "channel": 1,
      "note": 49,
      "start": 68.6908,
      "duration": 0.1654,
      "velocity": 108,
      "chip": "ym2612"
    },
    {
      "channel": 2,
      "note": 17,
      "start": 68.6914,
      "duration": 0.1659,
      "velocity": 113,
      "chip": "ym2612"
    },
    {
      "channel": 3,
      "note": 62,
      "start": 68.692,
      "duration": 0.1483,
      "velocity": 118,
      "chip": "ym2612"
    },
    {
      "channel": 4,
      "note": 53,
      "start": 68.6933,
      "duration": 0.0979,
      "velocity": 127,
      "chip": "ym2612"
    },
    {
      "channel": 5,
      "note": 36,
      "start": 68.6941,
      "duration": 0.1671,
      "velocity": 126,
      "chip": "ym2612"
    },
    {
      "channel": 0,
      "note": 53,
      "start": 68.856,
      "duration": 0.0985,
      "velocity": 1,
      "chip": "ym2612"
    },
    {
      "channel": 1,
      "note": 17,
      "start": 68.8572,
      "duration": 0.1641,
      "velocity": 113,
      "chip": "ym2612"
    },
    {
      "channel": 2,
      "note": 53,
      "start": 68.8584,
      "duration": 0.0971,
      "velocity": 1,
      "chip": "ym2612"
    },
    {
      "channel": 3,
      "note": 29,
      "start": 68.8599,
      "duration": 0.162,
      "velocity": 126,
      "chip": "ym2612"
    },
    {
      "channel": 4,
      "note": 53,
      "start": 68.8611,
      "duration": 0.0956,
      "velocity": 1,
      "chip": "ym2612"
    },
    {
      "channel": 5,
      "note": 53,
      "start": 68.8623,
      "duration": 0.0949,
      "velocity": 1,
      "chip": "ym2612"
    },
    {
      "channel": 3,
      "note": 41,
      "start": 69.0227,
      "duration": 0.1649,
      "velocity": 126,
      "chip": "ym2612"
    },
    {
      "channel": 1,
      "note": 17,
      "start": 69.1869,
      "duration": 0.1654,
      "velocity": 113,
      "chip": "ym2612"
    },
    {
      "channel": 3,
      "note": 36,
      "start": 69.1883,
      "duration": 0.1646,
      "velocity": 126,
      "chip": "ym2612"
    },
    {
      "channel": 3,
      "note": 39,
      "start": 69.3536,
      "duration": 0.1656,
      "velocity": 126,
      "chip": "ym2612"
    },
    {
      "channel": 1,
      "note": 17,
      "start": 69.5186,
      "duration": 0.1151,
      "velocity": 127,
      "chip": "ym2612"
    },
    {
      "channel": 3,
      "note": 24,
      "start": 69.5199,
      "duration": 0.1641,
      "velocity": 126,
      "chip": "ym2612"
    },
    {
      "channel": 3,
      "note": 36,
      "start": 69.6847,
      "duration": 0.1655,
      "velocity": 126,
      "chip": "ym2612"
    },
    {
      "channel": 1,
      "note": 17,
      "start": 69.8496,
      "duration": 0.1645,
      "velocity": 113,
      "chip": "ym2612"
    },
    {
      "channel": 3,
      "note": 39,
      "start": 69.8509,
      "duration": 0.1643,
      "velocity": 126,
      "chip": "ym2612"
    },
    {
      "channel": 1,
      "note": 17,
      "start": 70.0145,
      "duration": 0.1654,
      "velocity": 113,
      "chip": "ym2612"
    },
    {
      "channel": 3,
      "note": 36,
      "start": 70.0159,
      "duration": 0.1647,
      "velocity": 126,
      "chip": "ym2612"
    },
    {
      "channel": 3,
      "note": 41,
      "start": 70.1812,
      "duration": 0.1647,
      "velocity": 126,
      "chip": "ym2612"
    },
    {
      "channel": 3,
      "note": 41,
      "start": 70.3467,
      "duration": 0.165,
      "velocity": 126,
      "chip": "ym2612"
    },
    {
      "channel": 1,
      "note": 17,
      "start": 70.5111,
      "duration": 0.1654,
      "velocity": 113,
      "chip": "ym2612"
    },
    {
      "channel": 3,
      "note": 36,
      "start": 70.5124,
      "duration": 0.1647,
      "velocity": 126,
      "chip": "ym2612"
    },
    {
      "channel": 3,
      "note": 39,
      "start": 70.6778,
      "duration": 0.1656,
      "velocity": 126,
      "chip": "ym2612"
    },
    {
      "channel": 1,
      "note": 17,
      "start": 70.8427,
      "duration": 0.1151,
      "velocity": 127,
      "chip": "ym2612"
    },
    {
      "channel": 3,
      "note": 24,
      "start": 70.8441,
      "duration": 0.1641,
      "velocity": 126,
      "chip": "ym2612"
    },
    {
      "channel": 3,
      "note": 36,
      "start": 71.0089,
      "duration": 0.1648,
      "velocity": 126,
      "chip": "ym2612"
    },
    {
      "channel": 3,
      "note": 39,
      "start": 71.1744,
      "duration": 0.1648,
      "velocity": 126,
      "chip": "ym2612"
    },
    {
      "channel": 3,
      "note": 36,
      "start": 71.34,
      "duration": 0.1658,
      "velocity": 126,
      "chip": "ym2612"
    },
    {
      "channel": 0,
      "note": 53,
      "start": 71.5038,
      "duration": 0.0991,
      "velocity": 1,
      "chip": "ym2612"
    },
    {
      "channel": 1,
      "note": 17,
      "start": 71.505,
      "duration": 0.1646,
      "velocity": 113,
      "chip": "ym2612"
    },
    {
      "channel": 2,
      "note": 53,
      "start": 71.5057,
      "duration": 0.0983,
      "velocity": 1,
      "chip": "ym2612"
    },
    {
      "channel": 3,
      "note": 29,
      "start": 71.5065,
      "duration": 0.1638,
      "velocity": 126,
      "chip": "ym2612"
    },
    {
      "channel": 4,
      "note": 53,
      "start": 71.5071,
      "duration": 0.098,
      "velocity": 1,
      "chip": "ym2612"
    },
    {
      "channel": 5,
      "note": 53,
      "start": 71.5078,
      "duration": 0.0979,
      "velocity": 1,
      "chip": "ym2612"
    },
    {
      "channel": 3,
      "note": 41,
      "start": 71.671,
      "duration": 0.1649,
      "velocity": 126,
      "chip": "ym2612"
    },
    {
      "channel": 1,
      "note": 17,
      "start": 71.8353,
      "duration": 0.1653,
      "velocity": 113,
      "chip": "ym2612"
    },
    {
      "channel": 3,
      "note": 36,
      "start": 71.8366,
      "duration": 0.1646,
      "velocity": 126,
      "chip": "ym2612"
    },
    {
      "channel": 3,
      "note": 39,
      "start": 72.002,
      "duration": 0.1656,
      "velocity": 126,
      "chip": "ym2612"
    },
    {
      "channel": 1,
      "note": 17,
      "start": 72.167,
      "duration": 0.1151,
      "velocity": 127,
      "chip": "ym2612"
    },
    {
      "channel": 3,
      "note": 24,
      "start": 72.1683,
      "duration": 0.1641,
      "velocity": 126,
      "chip": "ym2612"
    },
    {
      "channel": 3,
      "note": 36,
      "start": 72.3331,
      "duration": 0.1655,
      "velocity": 126,
      "chip": "ym2612"
    },
    {
      "channel": 1,
      "note": 17,
      "start": 72.498,
      "duration": 0.1645,
      "velocity": 113,
      "chip": "ym2612"
    },
    {
      "channel": 3,
      "note": 39,
      "start": 72.4993,
      "duration": 0.1643,
      "velocity": 126,
      "chip": "ym2612"
    },
    {
      "channel": 1,
      "note": 17,
      "start": 72.6629,
      "duration": 0.1654,
      "velocity": 113,
      "chip": "ym2612"
    },
    {
      "channel": 3,
      "note": 36,
      "start": 72.6643,
      "duration": 0.1647,
      "velocity": 126,
      "chip": "ym2612"
    },
    {
      "channel": 3,
      "note": 41,
      "start": 72.8296,
      "duration": 0.1648,
      "velocity": 126,
      "chip": "ym2612"
    },
    {
      "channel": 3,
      "note": 41,
      "start": 72.9951,
      "duration": 0.165,
      "velocity": 126,
      "chip": "ym2612"
    },
    {
      "channel": 1,
      "note": 17,
      "start": 73.1595,
      "duration": 0.1654,
      "velocity": 113,
      "chip": "ym2612"
    },
    {
      "channel": 3,
      "note": 36,
      "start": 73.1608,
      "duration": 0.1647,
      "velocity": 126,
      "chip": "ym2612"
    },
    {
      "channel": 3,
      "note": 39,
      "start": 73.3262,
      "duration": 0.1656,
      "velocity": 126,
      "chip": "ym2612"
    },
    {
      "channel": 1,
      "note": 17,
      "start": 73.4912,
      "duration": 0.1151,
      "velocity": 127,
      "chip": "ym2612"
    },
    {
      "channel": 3,
      "note": 24,
      "start": 73.4925,
      "duration": 0.1641,
      "velocity": 126,
      "chip": "ym2612"
    },
    {
      "channel": 3,
      "note": 36,
      "start": 73.6573,
      "duration": 0.1649,
      "velocity": 126,
      "chip": "ym2612"
    },
    {
      "channel": 3,
      "note": 39,
      "start": 73.8228,
      "duration": 0.1648,
      "velocity": 126,
      "chip": "ym2612"
    },
    {
      "channel": 3,
      "note": 36,
      "start": 73.9884,
      "duration": 0.1671,
      "velocity": 126,
      "chip": "ym2612"
    },
    {
      "channel": 0,
      "note": 17,
      "start": 74.1527,
      "duration": 5.2957,
      "velocity": 124,
      "chip": "ym2612"
    },
    {
      "channel": 1,
      "note": 29,
      "start": 74.1541,
      "duration": 0.1636,
      "velocity": 1,
      "chip": "ym2612"
    },
    {
      "channel": 2,
      "note": 17,
      "start": 74.1553,
      "duration": 0.1636,
      "velocity": 113,
      "chip": "ym2612"
    },
    {
      "channel": 3,
      "note": 29,
      "start": 74.1562,
      "duration": 0.1634,
      "velocity": 126,
      "chip": "ym2612"
    },
    {
      "channel": 4,
      "note": 53,
      "start": 74.1574,
      "duration": 0.0962,
      "velocity": 127,
      "chip": "ym2612"
    },
    {
      "channel": 5,
      "note": 44,
      "start": 74.1589,
      "duration": 0.1629,
      "velocity": 114,
      "chip": "ym2612"
    },
    {
      "channel": 1,
      "note": 62,
      "start": 74.3187,
      "duration": 0.1483,
      "velocity": 118,
      "chip": "ym2612"
    },
    {
      "channel": 2,
      "note": 17,
      "start": 74.3193,
      "duration": 0.1644,
      "velocity": 113,
      "chip": "ym2612"
    },
    {
      "channel": 3,
      "note": 41,
      "start": 74.3203,
      "duration": 0.1648,
      "velocity": 126,
      "chip": "ym2612"
    },
    {
      "channel": 4,
      "note": 53,
      "start": 74.3216,
      "duration": 0.0975,
      "velocity": 127,
      "chip": "ym2612"
    },
    {
      "channel": 5,
      "note": 44,
      "start": 74.3224,
      "duration": 0.1648,
      "velocity": 114,
      "chip": "ym2612"
    },
    {
      "channel": 1,
      "note": 62,
      "start": 74.4837,
      "duration": 0.1489,
      "velocity": 118,
      "chip": "ym2612"
    },
    {
      "channel": 2,
      "note": 17,
      "start": 74.4849,
      "duration": 0.1644,
      "velocity": 1,
      "chip": "ym2612"
    },
    {
      "channel": 3,
      "note": 36,
      "start": 74.4858,
      "duration": 0.1648,
      "velocity": 126,
      "chip": "ym2612"
    },
    {
      "channel": 4,
      "note": 53,
      "start": 74.4871,
      "duration": 0.0975,
      "velocity": 127,
      "chip": "ym2612"
    },
    {
      "channel": 5,
      "note": 44,
      "start": 74.488,
      "duration": 0.1648,
      "velocity": 114,
      "chip": "ym2612"
    },
    {
      "channel": 1,
      "note": 62,
      "start": 74.6492,
      "duration": 0.1488,
      "velocity": 118,
      "chip": "ym2612"
    },
    {
      "channel": 2,
      "note": 17,
      "start": 74.6504,
      "duration": 0.1652,
      "velocity": 113,
      "chip": "ym2612"
    },
    {
      "channel": 3,
      "note": 39,
      "start": 74.6513,
      "duration": 0.1649,
      "velocity": 126,
      "chip": "ym2612"
    },
    {
      "channel": 4,
      "note": 53,
      "start": 74.6525,
      "duration": 0.0975,
      "velocity": 127,
      "chip": "ym2612"
    },
    {
      "channel": 5,
      "note": 44,
      "start": 74.6534,
      "duration": 0.1649,
      "velocity": 114,
      "chip": "ym2612"
    },
    {
      "channel": 1,
      "note": 58,
      "start": 74.8154,
      "duration": 0.1644,
      "velocity": 127,
      "chip": "ym2612"
    },
    {
      "channel": 2,
      "note": 17,
      "start": 74.816,
      "duration": 0.1649,
      "velocity": 113,
      "chip": "ym2612"
    },
    {
      "channel": 3,
      "note": 24,
      "start": 74.8169,
      "duration": 0.1653,
      "velocity": 126,
      "chip": "ym2612"
    },
    {
      "channel": 4,
      "note": 53,
      "start": 74.8182,
      "duration": 0.0974,
      "velocity": 127,
      "chip": "ym2612"
    },
    {
      "channel": 5,
      "note": 44,
      "start": 74.8195,
      "duration": 0.0802,
      "velocity": 112,
      "chip": "ym2612"
    },
    {
      "channel": 1,
      "note": 62,
      "start": 74.9809,
      "duration": 0.1482,
      "velocity": 118,
      "chip": "ym2612"
    },
    {
      "channel": 2,
      "note": 17,
      "start": 74.9821,
      "duration": 0.1639,
      "velocity": 1,
      "chip": "ym2612"
    },
    {
      "channel": 3,
      "note": 36,
      "start": 74.9829,
      "duration": 0.1642,
      "velocity": 126,
      "chip": "ym2612"
    },
    {
      "channel": 4,
      "note": 53,
      "start": 74.9842,
      "duration": 0.0969,
      "velocity": 127,
      "chip": "ym2612"
    },
    {
      "channel": 5,
      "note": 44,
      "start": 74.9856,
      "duration": 0.1637,
      "velocity": 114,
      "chip": "ym2612"
    },
    {
      "channel": 1,
      "note": 62,
      "start": 75.1458,
      "duration": 0.1488,
      "velocity": 118,
      "chip": "ym2612"
    },
    {
      "channel": 2,
      "note": 15,
      "start": 75.147,
      "duration": 0.1651,
      "velocity": 113,
      "chip": "ym2612"
    },
    {
      "channel": 3,
      "note": 39,
      "start": 75.1479,
      "duration": 0.1649,
      "velocity": 126,
      "chip": "ym2612"
    },
    {
      "channel": 4,
      "note": 53,
      "start": 75.1492,
      "duration": 0.0975,
      "velocity": 127,
      "chip": "ym2612"
    },
    {
      "channel": 5,
      "note": 44,
      "start": 75.15,
      "duration": 0.1649,
      "velocity": 114,
      "chip": "ym2612"
    },
    {
      "channel": 1,
      "note": 58,
      "start": 75.312,
      "duration": 0.1644,
      "velocity": 127,
      "chip": "ym2612"
    },
    {
      "channel": 2,
      "note": 17,
      "start": 75.3126,
      "duration": 0.1651,
      "velocity": 113,
      "chip": "ym2612"
    },
    {
      "channel": 3,
      "note": 36,
      "start": 75.3135,
      "duration": 0.1648,
      "velocity": 126,
      "chip": "ym2612"
    },
    {
      "channel": 4,
      "note": 53,
      "start": 75.3148,
      "duration": 0.0975,
      "velocity": 127,
      "chip": "ym2612"
    },
    {
      "channel": 5,
      "note": 44,
      "start": 75.3156,
      "duration": 0.1648,
      "velocity": 114,
      "chip": "ym2612"
    },
    {
      "channel": 1,
      "note": 29,
      "start": 75.4775,
      "duration": 0.1644,
      "velocity": 1,
      "chip": "ym2612"
    },
    {
      "channel": 2,
      "note": 17,
      "start": 75.4781,
      "duration": 0.1649,
      "velocity": 113,
      "chip": "ym2612"
    },
    {
      "channel": 3,
      "note": 41,
      "start": 75.479,
      "duration": 0.1647,
      "velocity": 126,
      "chip": "ym2612"
    },
    {
      "channel": 4,
      "note": 53,
      "start": 75.4803,
      "duration": 0.0975,
      "velocity": 127,
      "chip": "ym2612"
    },
    {
      "channel": 5,
      "note": 44,
      "start": 75.4811,
      "duration": 0.1648,
      "velocity": 114,
      "chip": "ym2612"
    },
    {
      "channel": 1,
      "note": 62,
      "start": 75.6429,
      "duration": 0.1482,
      "velocity": 118,
      "chip": "ym2612"
    },
    {
      "channel": 2,
      "note": 17,
      "start": 75.6436,
      "duration": 0.1644,
      "velocity": 113,
      "chip": "ym2612"
    },
    {
      "channel": 3,
      "note": 41,
      "start": 75.6444,
      "duration": 0.1648,
      "velocity": 126,
      "chip": "ym2612"
    },
    {
      "channel": 4,
      "note": 53,
      "start": 75.6457,
      "duration": 0.0976,
      "velocity": 127,
      "chip": "ym2612"
    },
    {
      "channel": 5,
      "note": 44,
      "start": 75.6466,
      "duration": 0.1648,
      "velocity": 114,
      "chip": "ym2612"
    },
    {
      "channel": 1,
      "note": 62,
      "start": 75.8079,
      "duration": 0.1488,
      "velocity": 118,
      "chip": "ym2612"
    },
    {
      "channel": 2,
      "note": 17,
      "start": 75.8091,
      "duration": 0.1644,
      "velocity": 1,
      "chip": "ym2612"
    },
    {
      "channel": 3,
      "note": 36,
      "start": 75.81,
      "duration": 0.1647,
      "velocity": 126,
      "chip": "ym2612"
    },
    {
      "channel": 4,
      "note": 53,
      "start": 75.8113,
      "duration": 0.0975,
      "velocity": 127,
      "chip": "ym2612"
    },
    {
      "channel": 5,
      "note": 44,
      "start": 75.8121,
      "duration": 0.1648,
      "velocity": 114,
      "chip": "ym2612"
    },
    {
      "channel": 1,
      "note": 62,
      "start": 75.9734,
      "duration": 0.1488,
      "velocity": 118,
      "chip": "ym2612"
    },
    {
      "channel": 2,
      "note": 17,
      "start": 75.9746,
      "duration": 0.1651,
      "velocity": 113,
      "chip": "ym2612"
    },
    {
      "channel": 3,
      "note": 39,
      "start": 75.9755,
      "duration": 0.1649,
      "velocity": 126,
      "chip": "ym2612"
    },
    {
      "channel": 4,
      "note": 53,
      "start": 75.9768,
      "duration": 0.0975,
      "velocity": 127,
      "chip": "ym2612"
    },
    {
      "channel": 5,
      "note": 44,
      "start": 75.9776,
      "duration": 0.1649,
      "velocity": 114,
      "chip": "ym2612"
    },
    {
      "channel": 1,
      "note": 58,
      "start": 76.1396,
      "duration": 0.1644,
      "velocity": 127,
      "chip": "ym2612"
    },
    {
      "channel": 2,
      "note": 17,
      "start": 76.1402,
      "duration": 0.165,
      "velocity": 113,
      "chip": "ym2612"
    },
    {
      "channel": 3,
      "note": 24,
      "start": 76.1411,
      "duration": 0.1654,
      "velocity": 126,
      "chip": "ym2612"
    },
    {
      "channel": 4,
      "note": 53,
      "start": 76.1424,
      "duration": 0.0975,
      "velocity": 127,
      "chip": "ym2612"
    },
    {
      "channel": 5,
      "note": 44,
      "start": 76.1437,
      "duration": 0.0802,
      "velocity": 112,
      "chip": "ym2612"
    },
    {
      "channel": 1,
      "note": 62,
      "start": 76.3051,
      "duration": 0.1482,
      "velocity": 118,
      "chip": "ym2612"
    },
    {
      "channel": 2,
      "note": 17,
      "start": 76.3063,
      "duration": 0.1638,
      "velocity": 1,
      "chip": "ym2612"
    },
    {
      "channel": 3,
      "note": 36,
      "start": 76.3071,
      "duration": 0.1643,
      "velocity": 126,
      "chip": "ym2612"
    },
    {
      "channel": 4,
      "note": 53,
      "start": 76.3084,
      "duration": 0.097,
      "velocity": 127,
      "chip": "ym2612"
    },
    {
      "channel": 5,
      "note": 44,
      "start": 76.3099,
      "duration": 0.1637,
      "velocity": 114,
      "chip": "ym2612"
    },
    {
      "channel": 1,
      "note": 62,
      "start": 76.47,
      "duration": 0.1489,
      "velocity": 118,
      "chip": "ym2612"
    },
    {
      "channel": 2,
      "note": 17,
      "start": 76.4712,
      "duration": 0.1644,
      "velocity": 113,
      "chip": "ym2612"
    },
    {
      "channel": 3,
      "note": 39,
      "start": 76.4721,
      "duration": 0.1642,
      "velocity": 126,
      "chip": "ym2612"
    },
    {
      "channel": 4,
      "note": 53,
      "start": 76.4734,
      "duration": 0.0976,
      "velocity": 127,
      "chip": "ym2612"
    },
    {
      "channel": 5,
      "note": 44,
      "start": 76.4742,
      "duration": 0.1642,
      "velocity": 114,
      "chip": "ym2612"
    },
    {
      "channel": 1,
      "note": 62,
      "start": 76.6355,
      "duration": 0.1488,
      "velocity": 118,
      "chip": "ym2612"
    },
    {
      "channel": 2,
      "note": 17,
      "start": 76.6361,
      "duration": 0.1657,
      "velocity": 113,
      "chip": "ym2612"
    },
    {
      "channel": 3,
      "note": 36,
      "start": 76.637,
      "duration": 0.1655,
      "velocity": 126,
      "chip": "ym2612"
    },
    {
      "channel": 4,
      "note": 53,
      "start": 76.6383,
      "duration": 0.0981,
      "velocity": 127,
      "chip": "ym2612"
    },
    {
      "channel": 5,
      "note": 44,
      "start": 76.6392,
      "duration": 0.1649,
      "velocity": 114,
      "chip": "ym2612"
    },
    {
      "channel": 1,
      "note": 29,
      "start": 76.8017,
      "duration": 0.1644,
      "velocity": 1,
      "chip": "ym2612"
    },
    {
      "channel": 2,
      "note": 17,
      "start": 76.8023,
      "duration": 0.165,
      "velocity": 113,
      "chip": "ym2612"
    },
    {
      "channel": 3,
      "note": 29,
      "start": 76.8032,
      "duration": 0.1648,
      "velocity": 126,
      "chip": "ym2612"
    },
    {
      "channel": 4,
      "note": 53,
      "start": 76.8039,
      "duration": 0.098,
      "velocity": 127,
      "chip": "ym2612"
    },
    {
      "channel": 5,
      "note": 44,
      "start": 76.8048,
      "duration": 0.1653,
      "velocity": 114,
      "chip": "ym2612"
    },
    {
      "channel": 1,
      "note": 62,
      "start": 76.9671,
      "duration": 0.1483,
      "velocity": 118,
      "chip": "ym2612"
    },
    {
      "channel": 2,
      "note": 17,
      "start": 76.9678,
      "duration": 0.1644,
      "velocity": 113,
      "chip": "ym2612"
    },
    {
      "channel": 3,
      "note": 41,
      "start": 76.9686,
      "duration": 0.1648,
      "velocity": 126,
      "chip": "ym2612"
    },
    {
      "channel": 4,
      "note": 53,
      "start": 76.9699,
      "duration": 0.0975,
      "velocity": 127,
      "chip": "ym2612"
    },
    {
      "channel": 5,
      "note": 44,
      "start": 76.9708,
      "duration": 0.1648,
      "velocity": 114,
      "chip": "ym2612"
    },
    {
      "channel": 1,
      "note": 62,
      "start": 77.1321,
      "duration": 0.1489,
      "velocity": 118,
      "chip": "ym2612"
    },
    {
      "channel": 2,
      "note": 17,
      "start": 77.1333,
      "duration": 0.1644,
      "velocity": 1,
      "chip": "ym2612"
    },
    {
      "channel": 3,
      "note": 36,
      "start": 77.1342,
      "duration": 0.1648,
      "velocity": 126,
      "chip": "ym2612"
    },
    {
      "channel": 4,
      "note": 53,
      "start": 77.1354,
      "duration": 0.0975,
      "velocity": 127,
      "chip": "ym2612"
    },
    {
      "channel": 5,
      "note": 44,
      "start": 77.1363,
      "duration": 0.1648,
      "velocity": 114,
      "chip": "ym2612"
    },
    {
      "channel": 1,
      "note": 62,
      "start": 77.2976,
      "duration": 0.1488,
      "velocity": 118,
      "chip": "ym2612"
    },
    {
      "channel": 2,
      "note": 17,
      "start": 77.2988,
      "duration": 0.1652,
      "velocity": 113,
      "chip": "ym2612"
    },
    {
      "channel": 3,
      "note": 39,
      "start": 77.2997,
      "duration": 0.1649,
      "velocity": 126,
      "chip": "ym2612"
    },
    {
      "channel": 4,
      "note": 53,
      "start": 77.301,
      "duration": 0.0975,
      "velocity": 127,
      "chip": "ym2612"
    },
    {
      "channel": 5,
      "note": 44,
      "start": 77.3019,
      "duration": 0.1649,
      "velocity": 114,
      "chip": "ym2612"
    },
    {
      "channel": 1,
      "note": 58,
      "start": 77.4638,
      "duration": 0.1644,
      "velocity": 127,
      "chip": "ym2612"
    },
    {
      "channel": 2,
      "note": 17,
      "start": 77.4644,
      "duration": 0.1649,
      "velocity": 113,
      "chip": "ym2612"
    },
    {
      "channel": 3,
      "note": 24,
      "start": 77.4653,
      "duration": 0.1653,
      "velocity": 126,
      "chip": "ym2612"
    },
    {
      "channel": 4,
      "note": 53,
      "start": 77.4666,
      "duration": 0.0975,
      "velocity": 127,
      "chip": "ym2612"
    },
    {
      "channel": 5,
      "note": 44,
      "start": 77.4679,
      "duration": 0.0802,
      "velocity": 112,
      "chip": "ym2612"
    },
    {
      "channel": 1,
      "note": 62,
      "start": 77.6292,
      "duration": 0.1483,
      "velocity": 118,
      "chip": "ym2612"
    },
    {
      "channel": 2,
      "note": 17,
      "start": 77.6304,
      "duration": 0.1639,
      "velocity": 1,
      "chip": "ym2612"
    },
    {
      "channel": 3,
      "note": 36,
      "start": 77.6313,
      "duration": 0.1643,
      "velocity": 126,
      "chip": "ym2612"
    },
    {
      "channel": 4,
      "note": 53,
      "start": 77.6326,
      "duration": 0.0969,
      "velocity": 127,
      "chip": "ym2612"
    },
    {
      "channel": 5,
      "note": 44,
      "start": 77.634,
      "duration": 0.1637,
      "velocity": 114,
      "chip": "ym2612"
    },
    {
      "channel": 1,
      "note": 62,
      "start": 77.7941,
      "duration": 0.1489,
      "velocity": 118,
      "chip": "ym2612"
    },
    {
      "channel": 2,
      "note": 15,
      "start": 77.7954,
      "duration": 0.1652,
      "velocity": 113,
      "chip": "ym2612"
    },
    {
      "channel": 3,
      "note": 39,
      "start": 77.7963,
      "duration": 0.1649,
      "velocity": 126,
      "chip": "ym2612"
    },
    {
      "channel": 4,
      "note": 53,
      "start": 77.7975,
      "duration": 0.0975,
      "velocity": 127,
      "chip": "ym2612"
    },
    {
      "channel": 5,
      "note": 44,
      "start": 77.7984,
      "duration": 0.1649,
      "velocity": 114,
      "chip": "ym2612"
    },
    {
      "channel": 1,
      "note": 58,
      "start": 77.9604,
      "duration": 0.1644,
      "velocity": 127,
      "chip": "ym2612"
    },
    {
      "channel": 2,
      "note": 17,
      "start": 77.961,
      "duration": 0.1651,
      "velocity": 113,
      "chip": "ym2612"
    },
    {
      "channel": 3,
      "note": 36,
      "start": 77.9619,
      "duration": 0.1648,
      "velocity": 126,
      "chip": "ym2612"
    },
    {
      "channel": 4,
      "note": 53,
      "start": 77.9632,
      "duration": 0.0975,
      "velocity": 127,
      "chip": "ym2612"
    },
    {
      "channel": 5,
      "note": 44,
      "start": 77.964,
      "duration": 0.1648,
      "velocity": 114,
      "chip": "ym2612"
    },
    {
      "channel": 1,
      "note": 29,
      "start": 78.1259,
      "duration": 0.1644,
      "velocity": 1,
      "chip": "ym2612"
    },
    {
      "channel": 2,
      "note": 17,
      "start": 78.1265,
      "duration": 0.1649,
      "velocity": 113,
      "chip": "ym2612"
    },
    {
      "channel": 3,
      "note": 41,
      "start": 78.1274,
      "duration": 0.1647,
      "velocity": 126,
      "chip": "ym2612"
    },
    {
      "channel": 4,
      "note": 53,
      "start": 78.1287,
      "duration": 0.0975,
      "velocity": 127,
      "chip": "ym2612"
    },
    {
      "channel": 5,
      "note": 44,
      "start": 78.1295,
      "duration": 0.1648,
      "velocity": 114,
      "chip": "ym2612"
    },
    {
      "channel": 1,
      "note": 62,
      "start": 78.2914,
      "duration": 0.1482,
      "velocity": 118,
      "chip": "ym2612"
    },
    {
      "channel": 2,
      "note": 17,
      "start": 78.292,
      "duration": 0.1644,
      "velocity": 113,
      "chip": "ym2612"
    },
    {
      "channel": 3,
      "note": 41,
      "start": 78.2928,
      "duration": 0.1648,
      "velocity": 126,
      "chip": "ym2612"
    },
    {
      "channel": 4,
      "note": 53,
      "start": 78.2941,
      "duration": 0.0975,
      "velocity": 127,
      "chip": "ym2612"
    },
    {
      "channel": 5,
      "note": 44,
      "start": 78.295,
      "duration": 0.1648,
      "velocity": 114,
      "chip": "ym2612"
    },
    {
      "channel": 1,
      "note": 62,
      "start": 78.4563,
      "duration": 0.1488,
      "velocity": 118,
      "chip": "ym2612"
    },
    {
      "channel": 2,
      "note": 17,
      "start": 78.4575,
      "duration": 0.1644,
      "velocity": 1,
      "chip": "ym2612"
    },
    {
      "channel": 3,
      "note": 36,
      "start": 78.4584,
      "duration": 0.1647,
      "velocity": 126,
      "chip": "ym2612"
    },
    {
      "channel": 4,
      "note": 53,
      "start": 78.4597,
      "duration": 0.0974,
      "velocity": 127,
      "chip": "ym2612"
    },
    {
      "channel": 5,
      "note": 44,
      "start": 78.4605,
      "duration": 0.1648,
      "velocity": 114,
      "chip": "ym2612"
    },
    {
      "channel": 1,
      "note": 62,
      "start": 78.6218,
      "duration": 0.1489,
      "velocity": 118,
      "chip": "ym2612"
    },
    {
      "channel": 2,
      "note": 17,
      "start": 78.623,
      "duration": 0.1652,
      "velocity": 113,
      "chip": "ym2612"
    },
    {
      "channel": 3,
      "note": 39,
      "start": 78.6239,
      "duration": 0.1649,
      "velocity": 126,
      "chip": "ym2612"
    },
    {
      "channel": 4,
      "note": 53,
      "start": 78.6252,
      "duration": 0.0975,
      "velocity": 127,
      "chip": "ym2612"
    },
    {
      "channel": 5,
      "note": 44,
      "start": 78.626,
      "duration": 0.1649,
      "velocity": 114,
      "chip": "ym2612"
    },
    {
      "channel": 1,
      "note": 58,
      "start": 78.788,
      "duration": 0.1643,
      "velocity": 127,
      "chip": "ym2612"
    },
    {
      "channel": 2,
      "note": 17,
      "start": 78.7887,
      "duration": 0.1649,
      "velocity": 113,
      "chip": "ym2612"
    },
    {
      "channel": 3,
      "note": 24,
      "start": 78.7896,
      "duration": 0.1653,
      "velocity": 126,
      "chip": "ym2612"
    },
    {
      "channel": 4,
      "note": 53,
      "start": 78.7908,
      "duration": 0.0975,
      "velocity": 127,
      "chip": "ym2612"
    },
    {
      "channel": 5,
      "note": 44,
      "start": 78.7921,
      "duration": 0.0802,
      "velocity": 112,
      "chip": "ym2612"
    },
    {
      "channel": 1,
      "note": 62,
      "start": 78.9534,
      "duration": 0.1482,
      "velocity": 118,
      "chip": "ym2612"
    },
    {
      "channel": 2,
      "note": 17,
      "start": 78.9547,
      "duration": 0.1638,
      "velocity": 1,
      "chip": "ym2612"
    },
    {
      "channel": 3,
      "note": 36,
      "start": 78.9555,
      "duration": 0.1642,
      "velocity": 126,
      "chip": "ym2612"
    },
    {
      "channel": 4,
      "note": 53,
      "start": 78.9568,
      "duration": 0.097,
      "velocity": 127,
      "chip": "ym2612"
    },
    {
      "channel": 5,
      "note": 44,
      "start": 78.9583,
      "duration": 0.1637,
      "velocity": 114,
      "chip": "ym2612"
    },
    {
      "channel": 1,
      "note": 62,
      "start": 79.1184,
      "duration": 0.1488,
      "velocity": 118,
      "chip": "ym2612"
    },
    {
      "channel": 2,
      "note": 17,
      "start": 79.1196,
      "duration": 0.1644,
      "velocity": 113,
      "chip": "ym2612"
    },
    {
      "channel": 3,
      "note": 39,
      "start": 79.1205,
      "duration": 0.1642,
      "velocity": 126,
      "chip": "ym2612"
    },
    {
      "channel": 4,
      "note": 53,
      "start": 79.1218,
      "duration": 0.0975,
      "velocity": 127,
      "chip": "ym2612"
    },
    {
      "channel": 5,
      "note": 44,
      "start": 79.1227,
      "duration": 0.1642,
      "velocity": 114,
      "chip": "ym2612"
    },
    {
      "channel": 1,
      "note": 62,
      "start": 79.2839,
      "duration": 0.1489,
      "velocity": 118,
      "chip": "ym2612"
    },
    {
      "channel": 2,
      "note": 17,
      "start": 79.2846,
      "duration": 0.1665,
      "velocity": 113,
      "chip": "ym2612"
    },
    {
      "channel": 3,
      "note": 36,
      "start": 79.2854,
      "duration": 0.1663,
      "velocity": 126,
      "chip": "ym2612"
    },
    {
      "channel": 4,
      "note": 53,
      "start": 79.2866,
      "duration": 0.0982,
      "velocity": 127,
      "chip": "ym2612"
    },
    {
      "channel": 5,
      "note": 44,
      "start": 79.2876,
      "duration": 0.1664,
      "velocity": 114,
      "chip": "ym2612"
    },
    {
      "channel": 0,
      "note": 53,
      "start": 79.4496,
      "duration": 0.0986,
      "velocity": 127,
      "chip": "ym2612"
    },
    {
      "channel": 1,
      "note": 29,
      "start": 79.4509,
      "duration": 0.1644,
      "velocity": 1,
      "chip": "ym2612"
    },
    {
      "channel": 2,
      "note": 17,
      "start": 79.4515,
      "duration": 0.1649,
      "velocity": 113,
      "chip": "ym2612"
    },
    {
      "channel": 3,
      "note": 29,
      "start": 79.4524,
      "duration": 0.1647,
      "velocity": 126,
      "chip": "ym2612"
    },
    {
      "channel": 4,
      "note": 44,
      "start": 79.4539,
      "duration": 0.1641,
      "velocity": 114,
      "chip": "ym2612"
    },
    {
      "channel": 5,
      "note": 53,
      "start": 79.4551,
      "duration": 0.096,
      "velocity": 1,
      "chip": "ym2612"
    },
    {
      "channel": 0,
      "note": 53,
      "start": 79.6151,
      "duration": 0.0986,
      "velocity": 127,
      "chip": "ym2612"
    },
    {
      "channel": 1,
      "note": 62,
      "start": 79.6163,
      "duration": 0.1475,
      "velocity": 118,
      "chip": "ym2612"
    },
    {
      "channel": 2,
      "note": 17,
      "start": 79.617,
      "duration": 0.1644,
      "velocity": 113,
      "chip": "ym2612"
    },
    {
      "channel": 3,
      "note": 41,
      "start": 79.6178,
      "duration": 0.1648,
      "velocity": 126,
      "chip": "ym2612"
    },
    {
      "channel": 4,
      "note": 44,
      "start": 79.6187,
      "duration": 0.1648,
      "velocity": 114,
      "chip": "ym2612"
    },
    {
      "channel": 0,
      "note": 53,
      "start": 79.7807,
      "duration": 0.0986,
      "velocity": 127,
      "chip": "ym2612"
    },
    {
      "channel": 1,
      "note": 62,
      "start": 79.7813,
      "duration": 0.148,
      "velocity": 118,
      "chip": "ym2612"
    },
    {
      "channel": 2,
      "note": 17,
      "start": 79.7825,
      "duration": 0.1644,
      "velocity": 1,
      "chip": "ym2612"
    },
    {
      "channel": 3,
      "note": 36,
      "start": 79.7834,
      "duration": 0.1648,
      "velocity": 126,
      "chip": "ym2612"
    },
    {
      "channel": 4,
      "note": 44,
      "start": 79.7842,
      "duration": 0.1648,
      "velocity": 114,
      "chip": "ym2612"
    },
    {
      "channel": 0,
      "note": 53,
      "start": 79.9462,
      "duration": 0.0986,
      "velocity": 127,
      "chip": "ym2612"
    },
    {
      "channel": 1,
      "note": 62,
      "start": 79.9468,
      "duration": 0.148,
      "velocity": 118,
      "chip": "ym2612"
    },
    {
      "channel": 2,
      "note": 17,
      "start": 79.948,
      "duration": 0.1651,
      "velocity": 113,
      "chip": "ym2612"
    },
    {
      "channel": 3,
      "note": 39,
      "start": 79.9489,
      "duration": 0.1649,
      "velocity": 126,
      "chip": "ym2612"
    },
    {
      "channel": 4,
      "note": 44,
      "start": 79.9498,
      "duration": 0.1649,
      "velocity": 114,
      "chip": "ym2612"
    },
    {
      "channel": 0,
      "note": 53,
      "start": 80.1117,
      "duration": 0.0986,
      "velocity": 127,
      "chip": "ym2612"
    },
    {
      "channel": 1,
      "note": 58,
      "start": 80.113,
      "duration": 0.1644,
      "velocity": 127,
      "chip": "ym2612"
    },
    {
      "channel": 2,
      "note": 17,
      "start": 80.1136,
      "duration": 0.1649,
      "velocity": 113,
      "chip": "ym2612"
    },
    {
      "channel": 3,
      "note": 24,
      "start": 80.1145,
      "duration": 0.1653,
      "velocity": 126,
      "chip": "ym2612"
    },
    {
      "channel": 4,
      "note": 44,
      "start": 80.1158,
      "duration": 0.0802,
      "velocity": 112,
      "chip": "ym2612"
    },
    {
      "channel": 0,
      "note": 53,
      "start": 80.2772,
      "duration": 0.0986,
      "velocity": 127,
      "chip": "ym2612"
    },
    {
      "channel": 1,
      "note": 62,
      "start": 80.2784,
      "duration": 0.1475,
      "velocity": 118,
      "chip": "ym2612"
    },
    {
      "channel": 2,
      "note": 17,
      "start": 80.2796,
      "duration": 0.1639,
      "velocity": 1,
      "chip": "ym2612"
    },
    {
      "channel": 3,
      "note": 36,
      "start": 80.2805,
      "duration": 0.1642,
      "velocity": 126,
      "chip": "ym2612"
    },
    {
      "channel": 4,
      "note": 44,
      "start": 80.282,
      "duration": 0.1636,
      "velocity": 114,
      "chip": "ym2612"
    },
    {
      "channel": 0,
      "note": 53,
      "start": 80.4427,
      "duration": 0.0986,
      "velocity": 127,
      "chip": "ym2612"
    },
    {
      "channel": 1,
      "note": 62,
      "start": 80.4434,
      "duration": 0.1481,
      "velocity": 118,
      "chip": "ym2612"
    },
    {
      "channel": 2,
      "note": 15,
      "start": 80.4446,
      "duration": 0.1651,
      "velocity": 113,
      "chip": "ym2612"
    },
    {
      "channel": 3,
      "note": 39,
      "start": 80.4455,
      "duration": 0.1649,
      "velocity": 126,
      "chip": "ym2612"
    },
    {
      "channel": 4,
      "note": 44,
      "start": 80.4463,
      "duration": 0.165,
      "velocity": 114,
      "chip": "ym2612"
    },
    {
      "channel": 0,
      "note": 53,
      "start": 80.6083,
      "duration": 0.0986,
      "velocity": 127,
      "chip": "ym2612"
    },
    {
      "channel": 1,
      "note": 58,
      "start": 80.6095,
      "duration": 0.1644,
      "velocity": 127,
      "chip": "ym2612"
    },
    {
      "channel": 2,
      "note": 17,
      "start": 80.6102,
      "duration": 0.1651,
      "velocity": 113,
      "chip": "ym2612"
    },
    {
      "channel": 3,
      "note": 36,
      "start": 80.6111,
      "duration": 0.1648,
      "velocity": 126,
      "chip": "ym2612"
    },
    {
      "channel": 4,
      "note": 44,
      "start": 80.612,
      "duration": 0.1647,
      "velocity": 114,
      "chip": "ym2612"
    },
    {
      "channel": 0,
      "note": 53,
      "start": 80.7738,
      "duration": 0.0986,
      "velocity": 127,
      "chip": "ym2612"
    },
    {
      "channel": 1,
      "note": 29,
      "start": 80.7751,
      "duration": 0.1644,
      "velocity": 1,
      "chip": "ym2612"
    },
    {
      "channel": 2,
      "note": 17,
      "start": 80.7757,
      "duration": 0.165,
      "velocity": 113,
      "chip": "ym2612"
    },
    {
      "channel": 3,
      "note": 41,
      "start": 80.7766,
      "duration": 0.1648,
      "velocity": 126,
      "chip": "ym2612"
    },
    {
      "channel": 4,
      "note": 44,
      "start": 80.7774,
      "duration": 0.1648,
      "velocity": 114,
      "chip": "ym2612"
    },
    {
      "channel": 0,
      "note": 53,
      "start": 80.9393,
      "duration": 0.0986,
      "velocity": 127,
      "chip": "ym2612"
    },
    {
      "channel": 1,
      "note": 62,
      "start": 80.9405,
      "duration": 0.1476,
      "velocity": 118,
      "chip": "ym2612"
    },
    {
      "channel": 2,
      "note": 17,
      "start": 80.9412,
      "duration": 0.1645,
      "velocity": 113,
      "chip": "ym2612"
    },
    {
      "channel": 3,
      "note": 41,
      "start": 80.9421,
      "duration": 0.1648,
      "velocity": 126,
      "chip": "ym2612"
    },
    {
      "channel": 4,
      "note": 44,
      "start": 80.9429,
      "duration": 0.1648,
      "velocity": 114,
      "chip": "ym2612"
    },
    {
      "channel": 0,
      "note": 53,
      "start": 81.1049,
      "duration": 0.0985,
      "velocity": 127,
      "chip": "ym2612"
    },
    {
      "channel": 1,
      "note": 62,
      "start": 81.1055,
      "duration": 0.1481,
      "velocity": 118,
      "chip": "ym2612"
    },
    {
      "channel": 2,
      "note": 17,
      "start": 81.1068,
      "duration": 0.1644,
      "velocity": 1,
      "chip": "ym2612"
    },
    {
      "channel": 3,
      "note": 36,
      "start": 81.1076,
      "duration": 0.1648,
      "velocity": 126,
      "chip": "ym2612"
    },
    {
      "channel": 4,
      "note": 44,
      "start": 81.1085,
      "duration": 0.1648,
      "velocity": 114,
      "chip": "ym2612"
    },
    {
      "channel": 0,
      "note": 53,
      "start": 81.2704,
      "duration": 0.0985,
      "velocity": 127,
      "chip": "ym2612"
    },
    {
      "channel": 1,
      "note": 62,
      "start": 81.2711,
      "duration": 0.148,
      "velocity": 118,
      "chip": "ym2612"
    },
    {
      "channel": 2,
      "note": 17,
      "start": 81.2723,
      "duration": 0.1651,
      "velocity": 113,
      "chip": "ym2612"
    },
    {
      "channel": 3,
      "note": 39,
      "start": 81.2732,
      "duration": 0.1649,
      "velocity": 126,
      "chip": "ym2612"
    },
    {
      "channel": 4,
      "note": 44,
      "start": 81.274,
      "duration": 0.1649,
      "velocity": 114,
      "chip": "ym2612"
    },
    {
      "channel": 0,
      "note": 53,
      "start": 81.4359,
      "duration": 0.0985,
      "velocity": 127,
      "chip": "ym2612"
    },
    {
      "channel": 1,
      "note": 58,
      "start": 81.4373,
      "duration": 0.1643,
      "velocity": 127,
      "chip": "ym2612"
    },
    {
      "channel": 2,
      "note": 17,
      "start": 81.4379,
      "duration": 0.1648,
      "velocity": 113,
      "chip": "ym2612"
    },
    {
      "channel": 3,
      "note": 24,
      "start": 81.4388,
      "duration": 0.1653,
      "velocity": 126,
      "chip": "ym2612"
    },
    {
      "channel": 4,
      "note": 44,
      "start": 81.44,
      "duration": 0.0802,
      "velocity": 112,
      "chip": "ym2612"
    },
    {
      "channel": 0,
      "note": 53,
      "start": 81.6015,
      "duration": 0.0985,
      "velocity": 127,
      "chip": "ym2612"
    },
    {
      "channel": 1,
      "note": 62,
      "start": 81.6026,
      "duration": 0.1475,
      "velocity": 118,
      "chip": "ym2612"
    },
    {
      "channel": 2,
      "note": 17,
      "start": 81.6039,
      "duration": 0.1638,
      "velocity": 1,
      "chip": "ym2612"
    },
    {
      "channel": 3,
      "note": 36,
      "start": 81.6048,
      "duration": 0.1642,
      "velocity": 126,
      "chip": "ym2612"
    },
    {
      "channel": 4,
      "note": 44,
      "start": 81.6062,
      "duration": 0.1636,
      "velocity": 114,
      "chip": "ym2612"
    },
    {
      "channel": 0,
      "note": 53,
      "start": 81.767,
      "duration": 0.0985,
      "velocity": 127,
      "chip": "ym2612"
    },
    {
      "channel": 1,
      "note": 62,
      "start": 81.7676,
      "duration": 0.1481,
      "velocity": 118,
      "chip": "ym2612"
    },
    {
      "channel": 2,
      "note": 17,
      "start": 81.7688,
      "duration": 0.1645,
      "velocity": 113,
      "chip": "ym2612"
    },
    {
      "channel": 3,
      "note": 39,
      "start": 81.7697,
      "duration": 0.1642,
      "velocity": 126,
      "chip": "ym2612"
    },
    {
      "channel": 4,
      "note": 44,
      "start": 81.7706,
      "duration": 0.1642,
      "velocity": 114,
      "chip": "ym2612"
    },
    {
      "channel": 0,
      "note": 53,
      "start": 81.9325,
      "duration": 0.0985,
      "velocity": 127,
      "chip": "ym2612"
    },
    {
      "channel": 1,
      "note": 62,
      "start": 81.9331,
      "duration": 0.1481,
      "velocity": 118,
      "chip": "ym2612"
    },
    {
      "channel": 2,
      "note": 17,
      "start": 81.9337,
      "duration": 0.1651,
      "velocity": 113,
      "chip": "ym2612"
    },
    {
      "channel": 3,
      "note": 36,
      "start": 81.9346,
      "duration": 0.1649,
      "velocity": 126,
      "chip": "ym2612"
    },
    {
      "channel": 4,
      "note": 44,
      "start": 81.9355,
      "duration": 0.1649,
      "velocity": 114,
      "chip": "ym2612"
    },
    {
      "channel": 0,
      "note": 53,
      "start": 82.0975,
      "duration": 0.0991,
      "velocity": 127,
      "chip": "ym2612"
    },
    {
      "channel": 1,
      "note": 29,
      "start": 82.0987,
      "duration": 0.1649,
      "velocity": 1,
      "chip": "ym2612"
    },
    {
      "channel": 2,
      "note": 17,
      "start": 82.0994,
      "duration": 0.1655,
      "velocity": 113,
      "chip": "ym2612"
    },
    {
      "channel": 3,
      "note": 29,
      "start": 82.1002,
      "duration": 0.1653,
      "velocity": 126,
      "chip": "ym2612"
    },
    {
      "channel": 4,
      "note": 44,
      "start": 82.1011,
      "duration": 0.1653,
      "velocity": 114,
      "chip": "ym2612"
    },
    {
      "channel": 5,
      "note": 53,
      "start": 82.1017,
      "duration": 0.0978,
      "velocity": 1,
      "chip": "ym2612"
    },
    {
      "channel": 0,
      "note": 53,
      "start": 82.2636,
      "duration": 0.0986,
      "velocity": 127,
      "chip": "ym2612"
    },
    {
      "channel": 1,
      "note": 62,
      "start": 82.2648,
      "duration": 0.1475,
      "velocity": 118,
      "chip": "ym2612"
    },
    {
      "channel": 2,
      "note": 17,
      "start": 82.2654,
      "duration": 0.1644,
      "velocity": 113,
      "chip": "ym2612"
    },
    {
      "channel": 3,
      "note": 41,
      "start": 82.2662,
      "duration": 0.1648,
      "velocity": 126,
      "chip": "ym2612"
    },
    {
      "channel": 4,
      "note": 44,
      "start": 82.2671,
      "duration": 0.1648,
      "velocity": 114,
      "chip": "ym2612"
    },
    {
      "channel": 0,
      "note": 53,
      "start": 82.4291,
      "duration": 0.0986,
      "velocity": 127,
      "chip": "ym2612"
    },
    {
      "channel": 1,
      "note": 62,
      "start": 82.4296,
      "duration": 0.1481,
      "velocity": 118,
      "chip": "ym2612"
    },
    {
      "channel": 2,
      "note": 17,
      "start": 82.4309,
      "duration": 0.1644,
      "velocity": 1,
      "chip": "ym2612"
    },
    {
      "channel": 3,
      "note": 36,
      "start": 82.4317,
      "duration": 0.1648,
      "velocity": 126,
      "chip": "ym2612"
    },
    {
      "channel": 4,
      "note": 44,
      "start": 82.4326,
      "duration": 0.1648,
      "velocity": 114,
      "chip": "ym2612"
    },
    {
      "channel": 0,
      "note": 53,
      "start": 82.5946,
      "duration": 0.0986,
      "velocity": 127,
      "chip": "ym2612"
    },
    {
      "channel": 1,
      "note": 62,
      "start": 82.5952,
      "duration": 0.1481,
      "velocity": 118,
      "chip": "ym2612"
    },
    {
      "channel": 2,
      "note": 17,
      "start": 82.5964,
      "duration": 0.1651,
      "velocity": 113,
      "chip": "ym2612"
    },
    {
      "channel": 3,
      "note": 39,
      "start": 82.5973,
      "duration": 0.1649,
      "velocity": 126,
      "chip": "ym2612"
    },
    {
      "channel": 4,
      "note": 44,
      "start": 82.5982,
      "duration": 0.1649,
      "velocity": 114,
      "chip": "ym2612"
    },
    {
      "channel": 0,
      "note": 53,
      "start": 82.7601,
      "duration": 0.0986,
      "velocity": 127,
      "chip": "ym2612"
    },
    {
      "channel": 1,
      "note": 58,
      "start": 82.7614,
      "duration": 0.1644,
      "velocity": 127,
      "chip": "ym2612"
    },
    {
      "channel": 2,
      "note": 17,
      "start": 82.762,
      "duration": 0.165,
      "velocity": 113,
      "chip": "ym2612"
    },
    {
      "channel": 3,
      "note": 24,
      "start": 82.7629,
      "duration": 0.1653,
      "velocity": 126,
      "chip": "ym2612"
    },
    {
      "channel": 4,
      "note": 44,
      "start": 82.7642,
      "duration": 0.0802,
      "velocity": 112,
      "chip": "ym2612"
    },
    {
      "channel": 0,
      "note": 53,
      "start": 82.9256,
      "duration": 0.0986,
      "velocity": 127,
      "chip": "ym2612"
    },
    {
      "channel": 1,
      "note": 62,
      "start": 82.9268,
      "duration": 0.1475,
      "velocity": 118,
      "chip": "ym2612"
    },
    {
      "channel": 2,
      "note": 17,
      "start": 82.928,
      "duration": 0.1639,
      "velocity": 1,
      "chip": "ym2612"
    },
    {
      "channel": 3,
      "note": 36,
      "start": 82.9289,
      "duration": 0.1642,
      "velocity": 126,
      "chip": "ym2612"
    },
    {
      "channel": 4,
      "note": 44,
      "start": 82.9303,
      "duration": 0.1637,
      "velocity": 114,
      "chip": "ym2612"
    },
    {
      "channel": 0,
      "note": 53,
      "start": 83.0912,
      "duration": 0.0986,
      "velocity": 127,
      "chip": "ym2612"
    },
    {
      "channel": 1,
      "note": 62,
      "start": 83.0917,
      "duration": 0.1481,
      "velocity": 118,
      "chip": "ym2612"
    },
    {
      "channel": 2,
      "note": 15,
      "start": 83.093,
      "duration": 0.1651,
      "velocity": 113,
      "chip": "ym2612"
    },
    {
      "channel": 3,
      "note": 39,
      "start": 83.0938,
      "duration": 0.1649,
      "velocity": 126,
      "chip": "ym2612"
    },
    {
      "channel": 4,
      "note": 44,
      "start": 83.0947,
      "duration": 0.165,
      "velocity": 114,
      "chip": "ym2612"
    },
    {
      "channel": 0,
      "note": 53,
      "start": 83.2567,
      "duration": 0.0986,
      "velocity": 127,
      "chip": "ym2612"
    },
    {
      "channel": 1,
      "note": 58,
      "start": 83.258,
      "duration": 0.1644,
      "velocity": 127,
      "chip": "ym2612"
    },
    {
      "channel": 2,
      "note": 17,
      "start": 83.2586,
      "duration": 0.1651,
      "velocity": 113,
      "chip": "ym2612"
    },
    {
      "channel": 3,
      "note": 36,
      "start": 83.2595,
      "duration": 0.1648,
      "velocity": 126,
      "chip": "ym2612"
    },
    {
      "channel": 4,
      "note": 44,
      "start": 83.2604,
      "duration": 0.1648,
      "velocity": 114,
      "chip": "ym2612"
    },
    {
      "channel": 0,
      "note": 53,
      "start": 83.4222,
      "duration": 0.0987,
      "velocity": 127,
      "chip": "ym2612"
    },
    {
      "channel": 1,
      "note": 29,
      "start": 83.4235,
      "duration": 0.1644,
      "velocity": 1,
      "chip": "ym2612"
    },
    {
      "channel": 2,
      "note": 17,
      "start": 83.4241,
      "duration": 0.165,
      "velocity": 113,
      "chip": "ym2612"
    },
    {
      "channel": 3,
      "note": 41,
      "start": 83.425,
      "duration": 0.1648,
      "velocity": 126,
      "chip": "ym2612"
    },
    {
      "channel": 4,
      "note": 44,
      "start": 83.4258,
      "duration": 0.1648,
      "velocity": 114,
      "chip": "ym2612"
    },
    {
      "channel": 0,
      "note": 53,
      "start": 83.5878,
      "duration": 0.0985,
      "velocity": 127,
      "chip": "ym2612"
    },
    {
      "channel": 1,
      "note": 62,
      "start": 83.589,
      "duration": 0.1475,
      "velocity": 118,
      "chip": "ym2612"
    },
    {
      "channel": 2,
      "note": 17,
      "start": 83.5896,
      "duration": 0.1644,
      "velocity": 113,
      "chip": "ym2612"
    },
    {
      "channel": 3,
      "note": 41,
      "start": 83.5905,
      "duration": 0.1648,
      "velocity": 126,
      "chip": "ym2612"
    },
    {
      "channel": 4,
      "note": 44,
      "start": 83.5914,
      "duration": 0.1648,
      "velocity": 114,
      "chip": "ym2612"
    },
    {
      "channel": 0,
      "note": 53,
      "start": 83.7532,
      "duration": 0.0986,
      "velocity": 127,
      "chip": "ym2612"
    },
    {
      "channel": 1,
      "note": 62,
      "start": 83.7539,
      "duration": 0.148,
      "velocity": 118,
      "chip": "ym2612"
    },
    {
      "channel": 2,
      "note": 17,
      "start": 83.7551,
      "duration": 0.1644,
      "velocity": 1,
      "chip": "ym2612"
    },
    {
      "channel": 3,
      "note": 36,
      "start": 83.756,
      "duration": 0.1648,
      "velocity": 126,
      "chip": "ym2612"
    },
    {
      "channel": 4,
      "note": 44,
      "start": 83.7569,
      "duration": 0.1648,
      "velocity": 114,
      "chip": "ym2612"
    },
    {
      "channel": 0,
      "note": 53,
      "start": 83.9188,
      "duration": 0.0986,
      "velocity": 127,
      "chip": "ym2612"
    },
    {
      "channel": 1,
      "note": 62,
      "start": 83.9194,
      "duration": 0.1481,
      "velocity": 118,
      "chip": "ym2612"
    },
    {
      "channel": 2,
      "note": 17,
      "start": 83.9207,
      "duration": 0.1651,
      "velocity": 113,
      "chip": "ym2612"
    },
    {
      "channel": 3,
      "note": 39,
      "start": 83.9215,
      "duration": 0.1649,
      "velocity": 126,
      "chip": "ym2612"
    },
    {
      "channel": 4,
      "note": 44,
      "start": 83.9224,
      "duration": 0.1649,
      "velocity": 114,
      "chip": "ym2612"
    },
    {
      "channel": 0,
      "note": 53,
      "start": 84.0843,
      "duration": 0.0986,
      "velocity": 127,
      "chip": "ym2612"
    },
    {
      "channel": 1,
      "note": 58,
      "start": 84.0856,
      "duration": 0.1644,
      "velocity": 127,
      "chip": "ym2612"
    },
    {
      "channel": 2,
      "note": 17,
      "start": 84.0862,
      "duration": 0.165,
      "velocity": 113,
      "chip": "ym2612"
    },
    {
      "channel": 3,
      "note": 24,
      "start": 84.0872,
      "duration": 0.1653,
      "velocity": 126,
      "chip": "ym2612"
    },
    {
      "channel": 4,
      "note": 44,
      "start": 84.0884,
      "duration": 0.0802,
      "velocity": 112,
      "chip": "ym2612"
    },
    {
      "channel": 0,
      "note": 53,
      "start": 84.2498,
      "duration": 0.0986,
      "velocity": 127,
      "chip": "ym2612"
    },
    {
      "channel": 1,
      "note": 62,
      "start": 84.251,
      "duration": 0.1475,
      "velocity": 118,
      "chip": "ym2612"
    },
    {
      "channel": 2,
      "note": 17,
      "start": 84.2522,
      "duration": 0.1639,
      "velocity": 1,
      "chip": "ym2612"
    },
    {
      "channel": 3,
      "note": 36,
      "start": 84.2531,
      "duration": 0.1642,
      "velocity": 126,
      "chip": "ym2612"
    },
    {
      "channel": 4,
      "note": 44,
      "start": 84.2546,
      "duration": 0.1636,
      "velocity": 114,
      "chip": "ym2612"
    },
    {
      "channel": 0,
      "note": 53,
      "start": 84.4153,
      "duration": 0.0986,
      "velocity": 127,
      "chip": "ym2612"
    },
    {
      "channel": 1,
      "note": 62,
      "start": 84.416,
      "duration": 0.1481,
      "velocity": 118,
      "chip": "ym2612"
    },
    {
      "channel": 2,
      "note": 17,
      "start": 84.4172,
      "duration": 0.1645,
      "velocity": 113,
      "chip": "ym2612"
    },
    {
      "channel": 3,
      "note": 39,
      "start": 84.4181,
      "duration": 0.1642,
      "velocity": 126,
      "chip": "ym2612"
    },
    {
      "channel": 4,
      "note": 44,
      "start": 84.4189,
      "duration": 0.1643,
      "velocity": 114,
      "chip": "ym2612"
    },
    {
      "channel": 0,
      "note": 53,
      "start": 84.5809,
      "duration": 0.0985,
      "velocity": 127,
      "chip": "ym2612"
    },
    {
      "channel": 1,
      "note": 62,
      "start": 84.5815,
      "duration": 0.1481,
      "velocity": 118,
      "chip": "ym2612"
    },
    {
      "channel": 2,
      "note": 17,
      "start": 84.5821,
      "duration": 0.1659,
      "velocity": 113,
      "chip": "ym2612"
    },
    {
      "channel": 3,
      "note": 36,
      "start": 84.583,
      "duration": 0.1656,
      "velocity": 126,
      "chip": "ym2612"
    },
    {
      "channel": 4,
      "note": 44,
      "start": 84.5839,
      "duration": 0.1656,
      "velocity": 114,
      "chip": "ym2612"
    },
    {
      "channel": 0,
      "note": 44,
      "start": 84.7466,
      "duration": 0.1642,
      "velocity": 114,
      "chip": "ym2612"
    },
    {
      "channel": 1,
      "note": 29,
      "start": 84.7478,
      "duration": 0.1638,
      "velocity": 1,
      "chip": "ym2612"
    },
    {
      "channel": 2,
      "note": 17,
      "start": 84.7485,
      "duration": 0.1644,
      "velocity": 113,
      "chip": "ym2612"
    },
    {
      "channel": 3,
      "note": 29,
      "start": 84.7494,
      "duration": 0.1641,
      "velocity": 126,
      "chip": "ym2612"
    },
    {
      "channel": 4,
      "note": 53,
      "start": 84.7506,
      "duration": 0.0968,
      "velocity": 127,
      "chip": "ym2612"
    },
    {
      "channel": 5,
      "note": 53,
      "start": 84.7513,
      "duration": 0.0966,
      "velocity": 1,
      "chip": "ym2612"
    },
    {
      "channel": 0,
      "note": 46,
      "start": 84.9115,
      "duration": 0.1648,
      "velocity": 114,
      "chip": "ym2612"
    },
    {
      "channel": 1,
      "note": 62,
      "start": 84.9127,
      "duration": 0.148,
      "velocity": 118,
      "chip": "ym2612"
    },
    {
      "channel": 2,
      "note": 19,
      "start": 84.9134,
      "duration": 0.1644,
      "velocity": 113,
      "chip": "ym2612"
    },
    {
      "channel": 3,
      "note": 43,
      "start": 84.9143,
      "duration": 0.1647,
      "velocity": 126,
      "chip": "ym2612"
    },
    {
      "channel": 4,
      "note": 55,
      "start": 84.9155,
      "duration": 0.0973,
      "velocity": 127,
      "chip": "ym2612"
    },
    {
      "channel": 0,
      "note": 46,
      "start": 85.077,
      "duration": 0.1648,
      "velocity": 114,
      "chip": "ym2612"
    },
    {
      "channel": 1,
      "note": 62,
      "start": 85.0777,
      "duration": 0.1486,
      "velocity": 118,
      "chip": "ym2612"
    },
    {
      "channel": 2,
      "note": 19,
      "start": 85.0789,
      "duration": 0.1644,
      "velocity": 1,
      "chip": "ym2612"
    },
    {
      "channel": 3,
      "note": 38,
      "start": 85.0798,
      "duration": 0.1648,
      "velocity": 126,
      "chip": "ym2612"
    },
    {
      "channel": 4,
      "note": 55,
      "start": 85.081,
      "duration": 0.0973,
      "velocity": 127,
      "chip": "ym2612"
    },
    {
      "channel": 0,
      "note": 46,
      "start": 85.2426,
      "duration": 0.1648,
      "velocity": 114,
      "chip": "ym2612"
    },
    {
      "channel": 1,
      "note": 62,
      "start": 85.2432,
      "duration": 0.1486,
      "velocity": 118,
      "chip": "ym2612"
    },
    {
      "channel": 2,
      "note": 19,
      "start": 85.2444,
      "duration": 0.1656,
      "velocity": 113,
      "chip": "ym2612"
    },
    {
      "channel": 3,
      "note": 41,
      "start": 85.2453,
      "duration": 0.1653,
      "velocity": 126,
      "chip": "ym2612"
    },
    {
      "channel": 4,
      "note": 55,
      "start": 85.2466,
      "duration": 0.0973,
      "velocity": 127,
      "chip": "ym2612"
    },
    {
      "channel": 0,
      "note": 46,
      "start": 85.4085,
      "duration": 0.0821,
      "velocity": 112,
      "chip": "ym2612"
    },
    {
      "channel": 1,
      "note": 58,
      "start": 85.4098,
      "duration": 0.1645,
      "velocity": 127,
      "chip": "ym2612"
    },
    {
      "channel": 2,
      "note": 19,
      "start": 85.4104,
      "duration": 0.1651,
      "velocity": 113,
      "chip": "ym2612"
    },
    {
      "channel": 3,
      "note": 26,
      "start": 85.4113,
      "duration": 0.1654,
      "velocity": 126,
      "chip": "ym2612"
    },
    {
      "channel": 4,
      "note": 55,
      "start": 85.4126,
      "duration": 0.0968,
      "velocity": 127,
      "chip": "ym2612"
    },
    {
      "channel": 0,
      "note": 46,
      "start": 85.5742,
      "duration": 0.1643,
      "velocity": 114,
      "chip": "ym2612"
    },
    {
      "channel": 1,
      "note": 62,
      "start": 85.5754,
      "duration": 0.1475,
      "velocity": 118,
      "chip": "ym2612"
    },
    {
      "channel": 2,
      "note": 19,
      "start": 85.5766,
      "duration": 0.1633,
      "velocity": 1,
      "chip": "ym2612"
    },
    {
      "channel": 3,
      "note": 38,
      "start": 85.5775,
      "duration": 0.1636,
      "velocity": 126,
      "chip": "ym2612"
    },
    {
      "channel": 4,
      "note": 55,
      "start": 85.5788,
      "duration": 0.0962,
      "velocity": 127,
      "chip": "ym2612"
    },
    {
      "channel": 0,
      "note": 46,
      "start": 85.7391,
      "duration": 0.1649,
      "velocity": 114,
      "chip": "ym2612"
    },
    {
      "channel": 1,
      "note": 62,
      "start": 85.7398,
      "duration": 0.1487,
      "velocity": 118,
      "chip": "ym2612"
    },
    {
      "channel": 2,
      "note": 17,
      "start": 85.741,
      "duration": 0.1652,
      "velocity": 113,
      "chip": "ym2612"
    },
    {
      "channel": 3,
      "note": 41,
      "start": 85.7419,
      "duration": 0.1649,
      "velocity": 126,
      "chip": "ym2612"
    },
    {
      "channel": 4,
      "note": 55,
      "start": 85.7431,
      "duration": 0.0973,
      "velocity": 127,
      "chip": "ym2612"
    },
    {
      "channel": 0,
      "note": 46,
      "start": 85.9047,
      "duration": 0.1648,
      "velocity": 114,
      "chip": "ym2612"
    },
    {
      "channel": 1,
      "note": 58,
      "start": 85.906,
      "duration": 0.1644,
      "velocity": 127,
      "chip": "ym2612"
    },
    {
      "channel": 2,
      "note": 19,
      "start": 85.9066,
      "duration": 0.1651,
      "velocity": 113,
      "chip": "ym2612"
    },
    {
      "channel": 3,
      "note": 38,
      "start": 85.9075,
      "duration": 0.1648,
      "velocity": 126,
      "chip": "ym2612"
    },
    {
      "channel": 4,
      "note": 55,
      "start": 85.9088,
      "duration": 0.0973,
      "velocity": 127,
      "chip": "ym2612"
    },
    {
      "channel": 0,
      "note": 46,
      "start": 86.0702,
      "duration": 0.1649,
      "velocity": 114,
      "chip": "ym2612"
    },
    {
      "channel": 1,
      "note": 29,
      "start": 86.0715,
      "duration": 0.1643,
      "velocity": 1,
      "chip": "ym2612"
    },
    {
      "channel": 2,
      "note": 19,
      "start": 86.0721,
      "duration": 0.165,
      "velocity": 113,
      "chip": "ym2612"
    },
    {
      "channel": 3,
      "note": 43,
      "start": 86.073,
      "duration": 0.1647,
      "velocity": 126,
      "chip": "ym2612"
    },
    {
      "channel": 4,
      "note": 55,
      "start": 86.0743,
      "duration": 0.0973,
      "velocity": 127,
      "chip": "ym2612"
    },
    {
      "channel": 0,
      "note": 46,
      "start": 86.2357,
      "duration": 0.1649,
      "velocity": 114,
      "chip": "ym2612"
    },
    {
      "channel": 1,
      "note": 62,
      "start": 86.237,
      "duration": 0.148,
      "velocity": 118,
      "chip": "ym2612"
    },
    {
      "channel": 2,
      "note": 19,
      "start": 86.2376,
      "duration": 0.1644,
      "velocity": 113,
      "chip": "ym2612"
    },
    {
      "channel": 3,
      "note": 43,
      "start": 86.2385,
      "duration": 0.1648,
      "velocity": 126,
      "chip": "ym2612"
    },
    {
      "channel": 4,
      "note": 55,
      "start": 86.2398,
      "duration": 0.0973,
      "velocity": 127,
      "chip": "ym2612"
    },
    {
      "channel": 0,
      "note": 46,
      "start": 86.4013,
      "duration": 0.1648,
      "velocity": 114,
      "chip": "ym2612"
    },
    {
      "channel": 1,
      "note": 62,
      "start": 86.4019,
      "duration": 0.1487,
      "velocity": 118,
      "chip": "ym2612"
    },
    {
      "channel": 2,
      "note": 19,
      "start": 86.4031,
      "duration": 0.1644,
      "velocity": 1,
      "chip": "ym2612"
    },
    {
      "channel": 3,
      "note": 38,
      "start": 86.404,
      "duration": 0.1648,
      "velocity": 126,
      "chip": "ym2612"
    },
    {
      "channel": 4,
      "note": 55,
      "start": 86.4053,
      "duration": 0.0973,
      "velocity": 127,
      "chip": "ym2612"
    },
    {
      "channel": 0,
      "note": 46,
      "start": 86.5668,
      "duration": 0.1648,
      "velocity": 114,
      "chip": "ym2612"
    },
    {
      "channel": 1,
      "note": 62,
      "start": 86.5674,
      "duration": 0.1487,
      "velocity": 118,
      "chip": "ym2612"
    },
    {
      "channel": 2,
      "note": 19,
      "start": 86.5686,
      "duration": 0.1656,
      "velocity": 113,
      "chip": "ym2612"
    },
    {
      "channel": 3,
      "note": 41,
      "start": 86.5695,
      "duration": 0.1653,
      "velocity": 126,
      "chip": "ym2612"
    },
    {
      "channel": 4,
      "note": 55,
      "start": 86.5708,
      "duration": 0.0973,
      "velocity": 127,
      "chip": "ym2612"
    },
    {
      "channel": 0,
      "note": 46,
      "start": 86.7327,
      "duration": 0.0821,
      "velocity": 112,
      "chip": "ym2612"
    },
    {
      "channel": 1,
      "note": 58,
      "start": 86.734,
      "duration": 0.1646,
      "velocity": 127,
      "chip": "ym2612"
    },
    {
      "channel": 2,
      "note": 19,
      "start": 86.7346,
      "duration": 0.1651,
      "velocity": 113,
      "chip": "ym2612"
    },
    {
      "channel": 3,
      "note": 26,
      "start": 86.7355,
      "duration": 0.1654,
      "velocity": 126,
      "chip": "ym2612"
    },
    {
      "channel": 4,
      "note": 55,
      "start": 86.7368,
      "duration": 0.0968,
      "velocity": 127,
      "chip": "ym2612"
    },
    {
      "channel": 0,
      "note": 46,
      "start": 86.8984,
      "duration": 0.1642,
      "velocity": 114,
      "chip": "ym2612"
    },
    {
      "channel": 1,
      "note": 62,
      "start": 86.8996,
      "duration": 0.1475,
      "velocity": 118,
      "chip": "ym2612"
    },
    {
      "channel": 2,
      "note": 19,
      "start": 86.9008,
      "duration": 0.1633,
      "velocity": 1,
      "chip": "ym2612"
    },
    {
      "channel": 3,
      "note": 38,
      "start": 86.9017,
      "duration": 0.1637,
      "velocity": 126,
      "chip": "ym2612"
    },
    {
      "channel": 4,
      "note": 55,
      "start": 86.9029,
      "duration": 0.0962,
      "velocity": 127,
      "chip": "ym2612"
    },
    {
      "channel": 0,
      "note": 46,
      "start": 87.0634,
      "duration": 0.1648,
      "velocity": 114,
      "chip": "ym2612"
    },
    {
      "channel": 1,
      "note": 62,
      "start": 87.0639,
      "duration": 0.1487,
      "velocity": 118,
      "chip": "ym2612"
    },
    {
      "channel": 2,
      "note": 19,
      "start": 87.0652,
      "duration": 0.1644,
      "velocity": 113,
      "chip": "ym2612"
    },
    {
      "channel": 3,
      "note": 41,
      "start": 87.066,
      "duration": 0.1643,
      "velocity": 126,
      "chip": "ym2612"
    },
    {
      "channel": 4,
      "note": 55,
      "start": 87.0673,
      "duration": 0.0973,
      "velocity": 127,
      "chip": "ym2612"
    },
    {
      "channel": 0,
      "note": 46,
      "start": 87.2289,
      "duration": 0.1648,
      "velocity": 114,
      "chip": "ym2612"
    },
    {
      "channel": 1,
      "note": 62,
      "start": 87.2295,
      "duration": 0.1487,
      "velocity": 118,
      "chip": "ym2612"
    },
    {
      "channel": 2,
      "note": 19,
      "start": 87.2301,
      "duration": 0.1658,
      "velocity": 113,
      "chip": "ym2612"
    },
    {
      "channel": 3,
      "note": 38,
      "start": 87.231,
      "duration": 0.1655,
      "velocity": 126,
      "chip": "ym2612"
    },
    {
      "channel": 4,
      "note": 55,
      "start": 87.2323,
      "duration": 0.098,
      "velocity": 127,
      "chip": "ym2612"
    },
    {
      "channel": 0,
      "note": 46,
      "start": 87.3944,
      "duration": 0.1648,
      "velocity": 114,
      "chip": "ym2612"
    },
    {
      "channel": 1,
      "note": 29,
      "start": 87.3957,
      "duration": 0.1644,
      "velocity": 1,
      "chip": "ym2612"
    },
    {
      "channel": 2,
      "note": 19,
      "start": 87.3963,
      "duration": 0.165,
      "velocity": 113,
      "chip": "ym2612"
    },
    {
      "channel": 3,
      "note": 31,
      "start": 87.3972,
      "duration": 0.1647,
      "velocity": 126,
      "chip": "ym2612"
    },
    {
      "channel": 4,
      "note": 55,
      "start": 87.3979,
      "duration": 0.0979,
      "velocity": 127,
      "chip": "ym2612"
    },
    {
      "channel": 5,
      "note": 53,
      "start": 87.3985,
      "duration": 0.0978,
      "velocity": 1,
      "chip": "ym2612"
    },
    {
      "channel": 0,
      "note": 46,
      "start": 87.5599,
      "duration": 0.1648,
      "velocity": 114,
      "chip": "ym2612"
    },
    {
      "channel": 1,
      "note": 62,
      "start": 87.5611,
      "duration": 0.148,
      "velocity": 118,
      "chip": "ym2612"
    },
    {
      "channel": 2,
      "note": 19,
      "start": 87.5618,
      "duration": 0.1644,
      "velocity": 113,
      "chip": "ym2612"
    },
    {
      "channel": 3,
      "note": 43,
      "start": 87.5627,
      "duration": 0.1648,
      "velocity": 126,
      "chip": "ym2612"
    },
    {
      "channel": 4,
      "note": 55,
      "start": 87.5639,
      "duration": 0.0973,
      "velocity": 127,
      "chip": "ym2612"
    },
    {
      "channel": 0,
      "note": 46,
      "start": 87.7254,
      "duration": 0.1648,
      "velocity": 114,
      "chip": "ym2612"
    },
    {
      "channel": 1,
      "note": 62,
      "start": 87.7261,
      "duration": 0.1486,
      "velocity": 118,
      "chip": "ym2612"
    },
    {
      "channel": 2,
      "note": 19,
      "start": 87.7273,
      "duration": 0.1644,
      "velocity": 1,
      "chip": "ym2612"
    },
    {
      "channel": 3,
      "note": 38,
      "start": 87.7282,
      "duration": 0.1648,
      "velocity": 126,
      "chip": "ym2612"
    },
    {
      "channel": 4,
      "note": 55,
      "start": 87.7295,
      "duration": 0.0973,
      "velocity": 127,
      "chip": "ym2612"
    },
    {
      "channel": 0,
      "note": 46,
      "start": 87.891,
      "duration": 0.1648,
      "velocity": 114,
      "chip": "ym2612"
    },
    {
      "channel": 1,
      "note": 62,
      "start": 87.8916,
      "duration": 0.1486,
      "velocity": 118,
      "chip": "ym2612"
    },
    {
      "channel": 2,
      "note": 19,
      "start": 87.8928,
      "duration": 0.1656,
      "velocity": 113,
      "chip": "ym2612"
    },
    {
      "channel": 3,
      "note": 41,
      "start": 87.8937,
      "duration": 0.1653,
      "velocity": 126,
      "chip": "ym2612"
    },
    {
      "channel": 4,
      "note": 55,
      "start": 87.895,
      "duration": 0.0973,
      "velocity": 127,
      "chip": "ym2612"
    },
    {
      "channel": 0,
      "note": 46,
      "start": 88.0569,
      "duration": 0.082,
      "velocity": 112,
      "chip": "ym2612"
    },
    {
      "channel": 1,
      "note": 58,
      "start": 88.0582,
      "duration": 0.1645,
      "velocity": 127,
      "chip": "ym2612"
    },
    {
      "channel": 2,
      "note": 19,
      "start": 88.0588,
      "duration": 0.1651,
      "velocity": 113,
      "chip": "ym2612"
    },
    {
      "channel": 3,
      "note": 26,
      "start": 88.0597,
      "duration": 0.1655,
      "velocity": 126,
      "chip": "ym2612"
    },
    {
      "channel": 4,
      "note": 55,
      "start": 88.061,
      "duration": 0.0967,
      "velocity": 127,
      "chip": "ym2612"
    },
    {
      "channel": 0,
      "note": 46,
      "start": 88.2226,
      "duration": 0.1643,
      "velocity": 114,
      "chip": "ym2612"
    },
    {
      "channel": 1,
      "note": 62,
      "start": 88.2238,
      "duration": 0.1475,
      "velocity": 118,
      "chip": "ym2612"
    },
    {
      "channel": 2,
      "note": 19,
      "start": 88.225,
      "duration": 0.1634,
      "velocity": 1,
      "chip": "ym2612"
    },
    {
      "channel": 3,
      "note": 38,
      "start": 88.2259,
      "duration": 0.1637,
      "velocity": 126,
      "chip": "ym2612"
    },
    {
      "channel": 4,
      "note": 55,
      "start": 88.2272,
      "duration": 0.0963,
      "velocity": 127,
      "chip": "ym2612"
    },
    {
      "channel": 0,
      "note": 46,
      "start": 88.3876,
      "duration": 0.1648,
      "velocity": 114,
      "chip": "ym2612"
    },
    {
      "channel": 1,
      "note": 62,
      "start": 88.3882,
      "duration": 0.1486,
      "velocity": 118,
      "chip": "ym2612"
    },
    {
      "channel": 2,
      "note": 17,
      "start": 88.3895,
      "duration": 0.1651,
      "velocity": 113,
      "chip": "ym2612"
    },
    {
      "channel": 3,
      "note": 41,
      "start": 88.3903,
      "duration": 0.1649,
      "velocity": 126,
      "chip": "ym2612"
    },
    {
      "channel": 4,
      "note": 55,
      "start": 88.3916,
      "duration": 0.0973,
      "velocity": 127,
      "chip": "ym2612"
    },
    {
      "channel": 0,
      "note": 46,
      "start": 88.5531,
      "duration": 0.1648,
      "velocity": 114,
      "chip": "ym2612"
    },
    {
      "channel": 1,
      "note": 58,
      "start": 88.5544,
      "duration": 0.1643,
      "velocity": 127,
      "chip": "ym2612"
    },
    {
      "channel": 2,
      "note": 19,
      "start": 88.555,
      "duration": 0.165,
      "velocity": 113,
      "chip": "ym2612"
    },
    {
      "channel": 3,
      "note": 38,
      "start": 88.5559,
      "duration": 0.1648,
      "velocity": 126,
      "chip": "ym2612"
    },
    {
      "channel": 4,
      "note": 55,
      "start": 88.5572,
      "duration": 0.0973,
      "velocity": 127,
      "chip": "ym2612"
    },
    {
      "channel": 0,
      "note": 46,
      "start": 88.7186,
      "duration": 0.1648,
      "velocity": 114,
      "chip": "ym2612"
    },
    {
      "channel": 1,
      "note": 29,
      "start": 88.7198,
      "duration": 0.1644,
      "velocity": 1,
      "chip": "ym2612"
    },
    {
      "channel": 2,
      "note": 19,
      "start": 88.7205,
      "duration": 0.165,
      "velocity": 113,
      "chip": "ym2612"
    },
    {
      "channel": 3,
      "note": 43,
      "start": 88.7215,
      "duration": 0.1646,
      "velocity": 126,
      "chip": "ym2612"
    },
    {
      "channel": 4,
      "note": 55,
      "start": 88.7227,
      "duration": 0.0973,
      "velocity": 127,
      "chip": "ym2612"
    },
    {
      "channel": 0,
      "note": 46,
      "start": 88.8841,
      "duration": 0.1649,
      "velocity": 114,
      "chip": "ym2612"
    },
    {
      "channel": 1,
      "note": 62,
      "start": 88.8853,
      "duration": 0.1481,
      "velocity": 118,
      "chip": "ym2612"
    },
    {
      "channel": 2,
      "note": 19,
      "start": 88.8859,
      "duration": 0.1644,
      "velocity": 113,
      "chip": "ym2612"
    },
    {
      "channel": 3,
      "note": 43,
      "start": 88.8868,
      "duration": 0.1647,
      "velocity": 126,
      "chip": "ym2612"
    },
    {
      "channel": 4,
      "note": 55,
      "start": 88.8881,
      "duration": 0.0973,
      "velocity": 127,
      "chip": "ym2612"
    },
    {
      "channel": 0,
      "note": 46,
      "start": 89.0496,
      "duration": 0.1649,
      "velocity": 114,
      "chip": "ym2612"
    },
    {
      "channel": 1,
      "note": 62,
      "start": 89.0502,
      "duration": 0.1487,
      "velocity": 118,
      "chip": "ym2612"
    },
    {
      "channel": 2,
      "note": 19,
      "start": 89.0515,
      "duration": 0.1644,
      "velocity": 1,
      "chip": "ym2612"
    },
    {
      "channel": 3,
      "note": 38,
      "start": 89.0524,
      "duration": 0.1648,
      "velocity": 126,
      "chip": "ym2612"
    },
    {
      "channel": 4,
      "note": 55,
      "start": 89.0536,
      "duration": 0.0973,
      "velocity": 127,
      "chip": "ym2612"
    },
    {
      "channel": 0,
      "note": 46,
      "start": 89.2151,
      "duration": 0.1648,
      "velocity": 114,
      "chip": "ym2612"
    },
    {
      "channel": 1,
      "note": 62,
      "start": 89.2158,
      "duration": 0.1487,
      "velocity": 118,
      "chip": "ym2612"
    },
    {
      "channel": 2,
      "note": 19,
      "start": 89.217,
      "duration": 0.1656,
      "velocity": 113,
      "chip": "ym2612"
    },
    {
      "channel": 3,
      "note": 41,
      "start": 89.2179,
      "duration": 0.1653,
      "velocity": 126,
      "chip": "ym2612"
    },
    {
      "channel": 4,
      "note": 55,
      "start": 89.2192,
      "duration": 0.0973,
      "velocity": 127,
      "chip": "ym2612"
    },
    {
      "channel": 0,
      "note": 46,
      "start": 89.3811,
      "duration": 0.0821,
      "velocity": 112,
      "chip": "ym2612"
    },
    {
      "channel": 1,
      "note": 58,
      "start": 89.3824,
      "duration": 0.1646,
      "velocity": 127,
      "chip": "ym2612"
    },
    {
      "channel": 2,
      "note": 19,
      "start": 89.383,
      "duration": 0.1651,
      "velocity": 113,
      "chip": "ym2612"
    },
    {
      "channel": 3,
      "note": 26,
      "start": 89.3839,
      "duration": 0.1655,
      "velocity": 126,
      "chip": "ym2612"
    },
    {
      "channel": 4,
      "note": 55,
      "start": 89.3852,
      "duration": 0.0967,
      "velocity": 127,
      "chip": "ym2612"
    },
    {
      "channel": 0,
      "note": 46,
      "start": 89.5468,
      "duration": 0.1642,
      "velocity": 114,
      "chip": "ym2612"
    },
    {
      "channel": 1,
      "note": 62,
      "start": 89.548,
      "duration": 0.1475,
      "velocity": 118,
      "chip": "ym2612"
    },
    {
      "channel": 2,
      "note": 19,
      "start": 89.5493,
      "duration": 0.1632,
      "velocity": 1,
      "chip": "ym2612"
    },
    {
      "channel": 3,
      "note": 38,
      "start": 89.5501,
      "duration": 0.1637,
      "velocity": 126,
      "chip": "ym2612"
    },
    {
      "channel": 4,
      "note": 55,
      "start": 89.5513,
      "duration": 0.0962,
      "velocity": 127,
      "chip": "ym2612"
    },
    {
      "channel": 0,
      "note": 46,
      "start": 89.7118,
      "duration": 0.1648,
      "velocity": 114,
      "chip": "ym2612"
    },
    {
      "channel": 1,
      "note": 62,
      "start": 89.7123,
      "duration": 0.1487,
      "velocity": 118,
      "chip": "ym2612"
    },
    {
      "channel": 2,
      "note": 19,
      "start": 89.7136,
      "duration": 0.1645,
      "velocity": 113,
      "chip": "ym2612"
    },
    {
      "channel": 3,
      "note": 41,
      "start": 89.7144,
      "duration": 0.1642,
      "velocity": 126,
      "chip": "ym2612"
    },
    {
      "channel": 4,
      "note": 55,
      "start": 89.7157,
      "duration": 0.0973,
      "velocity": 127,
      "chip": "ym2612"
    },
    {
      "channel": 0,
      "note": 46,
      "start": 89.8773,
      "duration": 0.1648,
      "velocity": 114,
      "chip": "ym2612"
    },
    {
      "channel": 1,
      "note": 62,
      "start": 89.8779,
      "duration": 0.1487,
      "velocity": 118,
      "chip": "ym2612"
    },
    {
      "channel": 2,
      "note": 19,
      "start": 89.8785,
      "duration": 0.1657,
      "velocity": 113,
      "chip": "ym2612"
    },
    {
      "channel": 3,
      "note": 38,
      "start": 89.8794,
      "duration": 0.1655,
      "velocity": 126,
      "chip": "ym2612"
    },
    {
      "channel": 4,
      "note": 55,
      "start": 89.8807,
      "duration": 0.0979,
      "velocity": 127,
      "chip": "ym2612"
    },
    {
      "channel": 0,
      "note": 46,
      "start": 90.0428,
      "duration": 0.1648,
      "velocity": 114,
      "chip": "ym2612"
    },
    {
      "channel": 1,
      "note": 29,
      "start": 90.0441,
      "duration": 0.1644,
      "velocity": 1,
      "chip": "ym2612"
    },
    {
      "channel": 2,
      "note": 19,
      "start": 90.0447,
      "duration": 0.165,
      "velocity": 113,
      "chip": "ym2612"
    },
    {
      "channel": 3,
      "note": 31,
      "start": 90.0456,
      "duration": 0.1648,
      "velocity": 126,
      "chip": "ym2612"
    },
    {
      "channel": 4,
      "note": 55,
      "start": 90.0463,
      "duration": 0.0979,
      "velocity": 127,
      "chip": "ym2612"
    },
    {
      "channel": 5,
      "note": 17,
      "start": 90.0475,
      "duration": 5.2957,
      "velocity": 124,
      "chip": "ym2612"
    },
    {
      "channel": 0,
      "note": 44,
      "start": 90.2083,
      "duration": 0.1648,
      "velocity": 114,
      "chip": "ym2612"
    },
    {
      "channel": 1,
      "note": 62,
      "start": 90.2095,
      "duration": 0.1481,
      "velocity": 118,
      "chip": "ym2612"
    },
    {
      "channel": 2,
      "note": 17,
      "start": 90.2101,
      "duration": 0.1645,
      "velocity": 113,
      "chip": "ym2612"
    },
    {
      "channel": 3,
      "note": 41,
      "start": 90.211,
      "duration": 0.1648,
      "velocity": 126,
      "chip": "ym2612"
    },
    {
      "channel": 4,
      "note": 53,
      "start": 90.2123,
      "duration": 0.0973,
      "velocity": 127,
      "chip": "ym2612"
    },
    {
      "channel": 0,
      "note": 44,
      "start": 90.3739,
      "duration": 0.1648,
      "velocity": 114,
      "chip": "ym2612"
    },
    {
      "channel": 1,
      "note": 62,
      "start": 90.3744,
      "duration": 0.1487,
      "velocity": 118,
      "chip": "ym2612"
    },
    {
      "channel": 2,
      "note": 17,
      "start": 90.3757,
      "duration": 0.1644,
      "velocity": 1,
      "chip": "ym2612"
    },
    {
      "channel": 3,
      "note": 36,
      "start": 90.3765,
      "duration": 0.1648,
      "velocity": 126,
      "chip": "ym2612"
    },
    {
      "channel": 4,
      "note": 53,
      "start": 90.3778,
      "duration": 0.0974,
      "velocity": 127,
      "chip": "ym2612"
    },
    {
      "channel": 0,
      "note": 44,
      "start": 90.5394,
      "duration": 0.1648,
      "velocity": 114,
      "chip": "ym2612"
    },
    {
      "channel": 1,
      "note": 62,
      "start": 90.54,
      "duration": 0.1487,
      "velocity": 118,
      "chip": "ym2612"
    },
    {
      "channel": 2,
      "note": 17,
      "start": 90.5412,
      "duration": 0.1656,
      "velocity": 113,
      "chip": "ym2612"
    },
    {
      "channel": 3,
      "note": 39,
      "start": 90.5421,
      "duration": 0.1653,
      "velocity": 126,
      "chip": "ym2612"
    },
    {
      "channel": 4,
      "note": 53,
      "start": 90.5433,
      "duration": 0.0974,
      "velocity": 127,
      "chip": "ym2612"
    },
    {
      "channel": 0,
      "note": 44,
      "start": 90.7054,
      "duration": 0.0821,
      "velocity": 112,
      "chip": "ym2612"
    },
    {
      "channel": 1,
      "note": 58,
      "start": 90.7066,
      "duration": 0.1646,
      "velocity": 127,
      "chip": "ym2612"
    },
    {
      "channel": 2,
      "note": 17,
      "start": 90.7073,
      "duration": 0.1651,
      "velocity": 113,
      "chip": "ym2612"
    },
    {
      "channel": 3,
      "note": 24,
      "start": 90.7081,
      "duration": 0.1655,
      "velocity": 126,
      "chip": "ym2612"
    },
    {
      "channel": 4,
      "note": 53,
      "start": 90.7094,
      "duration": 0.0968,
      "velocity": 127,
      "chip": "ym2612"
    },
    {
      "channel": 0,
      "note": 44,
      "start": 90.8711,
      "duration": 0.1642,
      "velocity": 114,
      "chip": "ym2612"
    },
    {
      "channel": 1,
      "note": 62,
      "start": 90.8723,
      "duration": 0.1474,
      "velocity": 118,
      "chip": "ym2612"
    },
    {
      "channel": 2,
      "note": 17,
      "start": 90.8735,
      "duration": 0.1632,
      "velocity": 1,
      "chip": "ym2612"
    },
    {
      "channel": 3,
      "note": 36,
      "start": 90.8743,
      "duration": 0.1637,
      "velocity": 126,
      "chip": "ym2612"
    },
    {
      "channel": 4,
      "note": 53,
      "start": 90.8756,
      "duration": 0.0962,
      "velocity": 127,
      "chip": "ym2612"
    },
    {
      "channel": 0,
      "note": 44,
      "start": 91.0359,
      "duration": 0.1648,
      "velocity": 114,
      "chip": "ym2612"
    },
    {
      "channel": 1,
      "note": 62,
      "start": 91.0366,
      "duration": 0.1486,
      "velocity": 118,
      "chip": "ym2612"
    },
    {
      "channel": 2,
      "note": 15,
      "start": 91.0378,
      "duration": 0.1651,
      "velocity": 113,
      "chip": "ym2612"
    },
    {
      "channel": 3,
      "note": 39,
      "start": 91.0387,
      "duration": 0.1649,
      "velocity": 126,
      "chip": "ym2612"
    },
    {
      "channel": 4,
      "note": 53,
      "start": 91.04,
      "duration": 0.0973,
      "velocity": 127,
      "chip": "ym2612"
    },
    {
      "channel": 0,
      "note": 44,
      "start": 91.2015,
      "duration": 0.1648,
      "velocity": 114,
      "chip": "ym2612"
    },
    {
      "channel": 1,
      "note": 58,
      "start": 91.2027,
      "duration": 0.1644,
      "velocity": 127,
      "chip": "ym2612"
    },
    {
      "channel": 2,
      "note": 17,
      "start": 91.2034,
      "duration": 0.1651,
      "velocity": 113,
      "chip": "ym2612"
    },
    {
      "channel": 3,
      "note": 36,
      "start": 91.2043,
      "duration": 0.1648,
      "velocity": 126,
      "chip": "ym2612"
    },
    {
      "channel": 4,
      "note": 53,
      "start": 91.2056,
      "duration": 0.0973,
      "velocity": 127,
      "chip": "ym2612"
    },
    {
      "channel": 0,
      "note": 44,
      "start": 91.367,
      "duration": 0.1648,
      "velocity": 114,
      "chip": "ym2612"
    },
    {
      "channel": 1,
      "note": 29,
      "start": 91.3683,
      "duration": 0.1644,
      "velocity": 1,
      "chip": "ym2612"
    },
    {
      "channel": 2,
      "note": 17,
      "start": 91.3689,
      "duration": 0.165,
      "velocity": 113,
      "chip": "ym2612"
    },
    {
      "channel": 3,
      "note": 41,
      "start": 91.3698,
      "duration": 0.1647,
      "velocity": 126,
      "chip": "ym2612"
    },
    {
      "channel": 4,
      "note": 53,
      "start": 91.3711,
      "duration": 0.0973,
      "velocity": 127,
      "chip": "ym2612"
    },
    {
      "channel": 0,
      "note": 44,
      "start": 91.5325,
      "duration": 0.1648,
      "velocity": 114,
      "chip": "ym2612"
    },
    {
      "channel": 1,
      "note": 62,
      "start": 91.5337,
      "duration": 0.1481,
      "velocity": 118,
      "chip": "ym2612"
    },
    {
      "channel": 2,
      "note": 17,
      "start": 91.5344,
      "duration": 0.1644,
      "velocity": 113,
      "chip": "ym2612"
    },
    {
      "channel": 3,
      "note": 41,
      "start": 91.5352,
      "duration": 0.1648,
      "velocity": 126,
      "chip": "ym2612"
    },
    {
      "channel": 4,
      "note": 53,
      "start": 91.5365,
      "duration": 0.0973,
      "velocity": 127,
      "chip": "ym2612"
    },
    {
      "channel": 0,
      "note": 44,
      "start": 91.698,
      "duration": 0.1648,
      "velocity": 114,
      "chip": "ym2612"
    },
    {
      "channel": 1,
      "note": 62,
      "start": 91.6987,
      "duration": 0.1487,
      "velocity": 118,
      "chip": "ym2612"
    },
    {
      "channel": 2,
      "note": 17,
      "start": 91.6999,
      "duration": 0.1644,
      "velocity": 1,
      "chip": "ym2612"
    },
    {
      "channel": 3,
      "note": 36,
      "start": 91.7008,
      "duration": 0.1648,
      "velocity": 126,
      "chip": "ym2612"
    },
    {
      "channel": 4,
      "note": 53,
      "start": 91.702,
      "duration": 0.0973,
      "velocity": 127,
      "chip": "ym2612"
    },
    {
      "channel": 0,
      "note": 44,
      "start": 91.8636,
      "duration": 0.1648,
      "velocity": 114,
      "chip": "ym2612"
    },
    {
      "channel": 1,
      "note": 62,
      "start": 91.8642,
      "duration": 0.1487,
      "velocity": 118,
      "chip": "ym2612"
    },
    {
      "channel": 2,
      "note": 17,
      "start": 91.8654,
      "duration": 0.1656,
      "velocity": 113,
      "chip": "ym2612"
    },
    {
      "channel": 3,
      "note": 39,
      "start": 91.8663,
      "duration": 0.1653,
      "velocity": 126,
      "chip": "ym2612"
    },
    {
      "channel": 4,
      "note": 53,
      "start": 91.8676,
      "duration": 0.0973,
      "velocity": 127,
      "chip": "ym2612"
    },
    {
      "channel": 0,
      "note": 44,
      "start": 92.0295,
      "duration": 0.0821,
      "velocity": 112,
      "chip": "ym2612"
    },
    {
      "channel": 1,
      "note": 58,
      "start": 92.0308,
      "duration": 0.1646,
      "velocity": 127,
      "chip": "ym2612"
    },
    {
      "channel": 2,
      "note": 17,
      "start": 92.0314,
      "duration": 0.1651,
      "velocity": 113,
      "chip": "ym2612"
    },
    {
      "channel": 3,
      "note": 24,
      "start": 92.0323,
      "duration": 0.1655,
      "velocity": 126,
      "chip": "ym2612"
    },
    {
      "channel": 4,
      "note": 53,
      "start": 92.0336,
      "duration": 0.0968,
      "velocity": 127,
      "chip": "ym2612"
    },
    {
      "channel": 0,
      "note": 44,
      "start": 92.1952,
      "duration": 0.1642,
      "velocity": 114,
      "chip": "ym2612"
    },
    {
      "channel": 1,
      "note": 62,
      "start": 92.1964,
      "duration": 0.1475,
      "velocity": 118,
      "chip": "ym2612"
    },
    {
      "channel": 2,
      "note": 17,
      "start": 92.1976,
      "duration": 0.1632,
      "velocity": 1,
      "chip": "ym2612"
    },
    {
      "channel": 3,
      "note": 36,
      "start": 92.1985,
      "duration": 0.1637,
      "velocity": 126,
      "chip": "ym2612"
    },
    {
      "channel": 4,
      "note": 53,
      "start": 92.1998,
      "duration": 0.0962,
      "velocity": 127,
      "chip": "ym2612"
    },
    {
      "channel": 0,
      "note": 44,
      "start": 92.3601,
      "duration": 0.1649,
      "velocity": 114,
      "chip": "ym2612"
    },
    {
      "channel": 1,
      "note": 62,
      "start": 92.3607,
      "duration": 0.1487,
      "velocity": 118,
      "chip": "ym2612"
    },
    {
      "channel": 2,
      "note": 17,
      "start": 92.362,
      "duration": 0.1645,
      "velocity": 113,
      "chip": "ym2612"
    },
    {
      "channel": 3,
      "note": 39,
      "start": 92.3629,
      "duration": 0.1642,
      "velocity": 126,
      "chip": "ym2612"
    },
    {
      "channel": 4,
      "note": 53,
      "start": 92.3641,
      "duration": 0.0973,
      "velocity": 127,
      "chip": "ym2612"
    },
    {
      "channel": 0,
      "note": 44,
      "start": 92.5256,
      "duration": 0.1649,
      "velocity": 114,
      "chip": "ym2612"
    },
    {
      "channel": 1,
      "note": 62,
      "start": 92.5263,
      "duration": 0.1487,
      "velocity": 118,
      "chip": "ym2612"
    },
    {
      "channel": 2,
      "note": 17,
      "start": 92.5269,
      "duration": 0.1657,
      "velocity": 113,
      "chip": "ym2612"
    },
    {
      "channel": 3,
      "note": 36,
      "start": 92.5278,
      "duration": 0.1655,
      "velocity": 126,
      "chip": "ym2612"
    },
    {
      "channel": 4,
      "note": 53,
      "start": 92.5291,
      "duration": 0.0979,
      "velocity": 127,
      "chip": "ym2612"
    },
    {
      "channel": 0,
      "note": 44,
      "start": 92.6912,
      "duration": 0.1648,
      "velocity": 114,
      "chip": "ym2612"
    },
    {
      "channel": 1,
      "note": 29,
      "start": 92.6925,
      "duration": 0.1644,
      "velocity": 1,
      "chip": "ym2612"
    },
    {
      "channel": 2,
      "note": 17,
      "start": 92.6931,
      "duration": 0.1649,
      "velocity": 113,
      "chip": "ym2612"
    },
    {
      "channel": 3,
      "note": 29,
      "start": 92.694,
      "duration": 0.1648,
      "velocity": 126,
      "chip": "ym2612"
    },
    {
      "channel": 4,
      "note": 53,
      "start": 92.6947,
      "duration": 0.0979,
      "velocity": 127,
      "chip": "ym2612"
    },
    {
      "channel": 0,
      "note": 44,
      "start": 92.8568,
      "duration": 0.1648,
      "velocity": 114,
      "chip": "ym2612"
    },
    {
      "channel": 1,
      "note": 62,
      "start": 92.8579,
      "duration": 0.1481,
      "velocity": 118,
      "chip": "ym2612"
    },
    {
      "channel": 2,
      "note": 17,
      "start": 92.8585,
      "duration": 0.1644,
      "velocity": 113,
      "chip": "ym2612"
    },
    {
      "channel": 3,
      "note": 41,
      "start": 92.8594,
      "duration": 0.1648,
      "velocity": 126,
      "chip": "ym2612"
    },
    {
      "channel": 4,
      "note": 53,
      "start": 92.8607,
      "duration": 0.0973,
      "velocity": 127,
      "chip": "ym2612"
    },
    {
      "channel": 0,
      "note": 44,
      "start": 93.0223,
      "duration": 0.1649,
      "velocity": 114,
      "chip": "ym2612"
    },
    {
      "channel": 1,
      "note": 62,
      "start": 93.0228,
      "duration": 0.1487,
      "velocity": 118,
      "chip": "ym2612"
    },
    {
      "channel": 2,
      "note": 17,
      "start": 93.0241,
      "duration": 0.1645,
      "velocity": 1,
      "chip": "ym2612"
    },
    {
      "channel": 3,
      "note": 36,
      "start": 93.0249,
      "duration": 0.1649,
      "velocity": 126,
      "chip": "ym2612"
    },
    {
      "channel": 4,
      "note": 53,
      "start": 93.0262,
      "duration": 0.0973,
      "velocity": 127,
      "chip": "ym2612"
    },
    {
      "channel": 0,
      "note": 44,
      "start": 93.1878,
      "duration": 0.1647,
      "velocity": 114,
      "chip": "ym2612"
    },
    {
      "channel": 1,
      "note": 62,
      "start": 93.1884,
      "duration": 0.1487,
      "velocity": 118,
      "chip": "ym2612"
    },
    {
      "channel": 2,
      "note": 17,
      "start": 93.1896,
      "duration": 0.1656,
      "velocity": 113,
      "chip": "ym2612"
    },
    {
      "channel": 3,
      "note": 39,
      "start": 93.1905,
      "duration": 0.1653,
      "velocity": 126,
      "chip": "ym2612"
    },
    {
      "channel": 4,
      "note": 53,
      "start": 93.1918,
      "duration": 0.0973,
      "velocity": 127,
      "chip": "ym2612"
    },
    {
      "channel": 0,
      "note": 44,
      "start": 93.3538,
      "duration": 0.082,
      "velocity": 112,
      "chip": "ym2612"
    },
    {
      "channel": 1,
      "note": 58,
      "start": 93.355,
      "duration": 0.1645,
      "velocity": 127,
      "chip": "ym2612"
    },
    {
      "channel": 2,
      "note": 17,
      "start": 93.3557,
      "duration": 0.1651,
      "velocity": 113,
      "chip": "ym2612"
    },
    {
      "channel": 3,
      "note": 24,
      "start": 93.3566,
      "duration": 0.1655,
      "velocity": 126,
      "chip": "ym2612"
    },
    {
      "channel": 4,
      "note": 53,
      "start": 93.3578,
      "duration": 0.0968,
      "velocity": 127,
      "chip": "ym2612"
    },
    {
      "channel": 0,
      "note": 44,
      "start": 93.5194,
      "duration": 0.1642,
      "velocity": 114,
      "chip": "ym2612"
    },
    {
      "channel": 1,
      "note": 62,
      "start": 93.5207,
      "duration": 0.1474,
      "velocity": 118,
      "chip": "ym2612"
    },
    {
      "channel": 2,
      "note": 17,
      "start": 93.5219,
      "duration": 0.1632,
      "velocity": 1,
      "chip": "ym2612"
    },
    {
      "channel": 3,
      "note": 36,
      "start": 93.5228,
      "duration": 0.1635,
      "velocity": 126,
      "chip": "ym2612"
    },
    {
      "channel": 4,
      "note": 53,
      "start": 93.5241,
      "duration": 0.0961,
      "velocity": 127,
      "chip": "ym2612"
    },
    {
      "channel": 0,
      "note": 44,
      "start": 93.6844,
      "duration": 0.1648,
      "velocity": 114,
      "chip": "ym2612"
    },
    {
      "channel": 1,
      "note": 62,
      "start": 93.685,
      "duration": 0.1486,
      "velocity": 118,
      "chip": "ym2612"
    },
    {
      "channel": 2,
      "note": 15,
      "start": 93.6862,
      "duration": 0.1651,
      "velocity": 113,
      "chip": "ym2612"
    },
    {
      "channel": 3,
      "note": 39,
      "start": 93.6871,
      "duration": 0.1649,
      "velocity": 126,
      "chip": "ym2612"
    },
    {
      "channel": 4,
      "note": 53,
      "start": 93.6884,
      "duration": 0.0973,
      "velocity": 127,
      "chip": "ym2612"
    },
    {
      "channel": 0,
      "note": 44,
      "start": 93.8499,
      "duration": 0.1648,
      "velocity": 114,
      "chip": "ym2612"
    },
    {
      "channel": 1,
      "note": 58,
      "start": 93.8512,
      "duration": 0.1644,
      "velocity": 127,
      "chip": "ym2612"
    },
    {
      "channel": 2,
      "note": 17,
      "start": 93.8518,
      "duration": 0.1651,
      "velocity": 113,
      "chip": "ym2612"
    },
    {
      "channel": 3,
      "note": 36,
      "start": 93.8527,
      "duration": 0.1648,
      "velocity": 126,
      "chip": "ym2612"
    },
    {
      "channel": 4,
      "note": 53,
      "start": 93.854,
      "duration": 0.0973,
      "velocity": 127,
      "chip": "ym2612"
    },
    {
      "channel": 0,
      "note": 44,
      "start": 94.0154,
      "duration": 0.1648,
      "velocity": 114,
      "chip": "ym2612"
    },
    {
      "channel": 1,
      "note": 29,
      "start": 94.0167,
      "duration": 0.1644,
      "velocity": 1,
      "chip": "ym2612"
    },
    {
      "channel": 2,
      "note": 17,
      "start": 94.0173,
      "duration": 0.165,
      "velocity": 113,
      "chip": "ym2612"
    },
    {
      "channel": 3,
      "note": 41,
      "start": 94.0182,
      "duration": 0.1647,
      "velocity": 126,
      "chip": "ym2612"
    },
    {
      "channel": 4,
      "note": 53,
      "start": 94.0195,
      "duration": 0.0973,
      "velocity": 127,
      "chip": "ym2612"
    },
    {
      "channel": 0,
      "note": 44,
      "start": 94.1809,
      "duration": 0.1648,
      "velocity": 114,
      "chip": "ym2612"
    },
    {
      "channel": 1,
      "note": 62,
      "start": 94.1821,
      "duration": 0.148,
      "velocity": 118,
      "chip": "ym2612"
    },
    {
      "channel": 2,
      "note": 17,
      "start": 94.1828,
      "duration": 0.1644,
      "velocity": 113,
      "chip": "ym2612"
    },
    {
      "channel": 3,
      "note": 41,
      "start": 94.1837,
      "duration": 0.1648,
      "velocity": 126,
      "chip": "ym2612"
    },
    {
      "channel": 4,
      "note": 53,
      "start": 94.1849,
      "duration": 0.0973,
      "velocity": 127,
      "chip": "ym2612"
    },
    {
      "channel": 0,
      "note": 44,
      "start": 94.3464,
      "duration": 0.1648,
      "velocity": 114,
      "chip": "ym2612"
    },
    {
      "channel": 1,
      "note": 62,
      "start": 94.3471,
      "duration": 0.1486,
      "velocity": 118,
      "chip": "ym2612"
    },
    {
      "channel": 2,
      "note": 17,
      "start": 94.3483,
      "duration": 0.1644,
      "velocity": 1,
      "chip": "ym2612"
    },
    {
      "channel": 3,
      "note": 36,
      "start": 94.3492,
      "duration": 0.1648,
      "velocity": 126,
      "chip": "ym2612"
    },
    {
      "channel": 4,
      "note": 53,
      "start": 94.3505,
      "duration": 0.0973,
      "velocity": 127,
      "chip": "ym2612"
    },
    {
      "channel": 0,
      "note": 44,
      "start": 94.512,
      "duration": 0.1648,
      "velocity": 114,
      "chip": "ym2612"
    },
    {
      "channel": 1,
      "note": 62,
      "start": 94.5126,
      "duration": 0.1486,
      "velocity": 118,
      "chip": "ym2612"
    },
    {
      "channel": 2,
      "note": 17,
      "start": 94.5138,
      "duration": 0.1656,
      "velocity": 113,
      "chip": "ym2612"
    },
    {
      "channel": 3,
      "note": 39,
      "start": 94.5147,
      "duration": 0.1653,
      "velocity": 126,
      "chip": "ym2612"
    },
    {
      "channel": 4,
      "note": 53,
      "start": 94.516,
      "duration": 0.0973,
      "velocity": 127,
      "chip": "ym2612"
    },
    {
      "channel": 0,
      "note": 44,
      "start": 94.6779,
      "duration": 0.0821,
      "velocity": 112,
      "chip": "ym2612"
    },
    {
      "channel": 1,
      "note": 58,
      "start": 94.6792,
      "duration": 0.1645,
      "velocity": 127,
      "chip": "ym2612"
    },
    {
      "channel": 2,
      "note": 17,
      "start": 94.6798,
      "duration": 0.1651,
      "velocity": 113,
      "chip": "ym2612"
    },
    {
      "channel": 3,
      "note": 24,
      "start": 94.6807,
      "duration": 0.1655,
      "velocity": 126,
      "chip": "ym2612"
    },
    {
      "channel": 4,
      "note": 53,
      "start": 94.682,
      "duration": 0.0968,
      "velocity": 127,
      "chip": "ym2612"
    },
    {
      "channel": 0,
      "note": 44,
      "start": 94.8436,
      "duration": 0.1642,
      "velocity": 114,
      "chip": "ym2612"
    },
    {
      "channel": 1,
      "note": 62,
      "start": 94.8448,
      "duration": 0.1475,
      "velocity": 118,
      "chip": "ym2612"
    },
    {
      "channel": 2,
      "note": 17,
      "start": 94.846,
      "duration": 0.1633,
      "velocity": 1,
      "chip": "ym2612"
    },
    {
      "channel": 3,
      "note": 36,
      "start": 94.8469,
      "duration": 0.1636,
      "velocity": 126,
      "chip": "ym2612"
    },
    {
      "channel": 4,
      "note": 53,
      "start": 94.8482,
      "duration": 0.0962,
      "velocity": 127,
      "chip": "ym2612"
    },
    {
      "channel": 0,
      "note": 44,
      "start": 95.0085,
      "duration": 0.1648,
      "velocity": 114,
      "chip": "ym2612"
    },
    {
      "channel": 1,
      "note": 62,
      "start": 95.0092,
      "duration": 0.1487,
      "velocity": 118,
      "chip": "ym2612"
    },
    {
      "channel": 2,
      "note": 17,
      "start": 95.0104,
      "duration": 0.1644,
      "velocity": 113,
      "chip": "ym2612"
    },
    {
      "channel": 3,
      "note": 39,
      "start": 95.0113,
      "duration": 0.1642,
      "velocity": 126,
      "chip": "ym2612"
    },
    {
      "channel": 4,
      "note": 53,
      "start": 95.0125,
      "duration": 0.0973,
      "velocity": 127,
      "chip": "ym2612"
    },
    {
      "channel": 0,
      "note": 44,
      "start": 95.1741,
      "duration": 0.1649,
      "velocity": 114,
      "chip": "ym2612"
    },
    {
      "channel": 1,
      "note": 62,
      "start": 95.1747,
      "duration": 0.1487,
      "velocity": 118,
      "chip": "ym2612"
    },
    {
      "channel": 2,
      "note": 17,
      "start": 95.1753,
      "duration": 0.1657,
      "velocity": 113,
      "chip": "ym2612"
    },
    {
      "channel": 3,
      "note": 36,
      "start": 95.1761,
      "duration": 0.1655,
      "velocity": 126,
      "chip": "ym2612"
    },
    {
      "channel": 4,
      "note": 53,
      "start": 95.1774,
      "duration": 0.098,
      "velocity": 127,
      "chip": "ym2612"
    },
    {
      "channel": 0,
      "note": 44,
      "start": 95.3396,
      "duration": 0.1649,
      "velocity": 114,
      "chip": "ym2612"
    },
    {
      "channel": 1,
      "note": 29,
      "start": 95.3408,
      "duration": 0.1644,
      "velocity": 1,
      "chip": "ym2612"
    },
    {
      "channel": 2,
      "note": 17,
      "start": 95.3415,
      "duration": 0.165,
      "velocity": 113,
      "chip": "ym2612"
    },
    {
      "channel": 3,
      "note": 29,
      "start": 95.3424,
      "duration": 0.1647,
      "velocity": 126,
      "chip": "ym2612"
    },
    {
      "channel": 4,
      "note": 53,
      "start": 95.3431,
      "duration": 0.0979,
      "velocity": 127,
      "chip": "ym2612"
    },
    {
      "channel": 5,
      "note": 53,
      "start": 95.3443,
      "duration": 0.0972,
      "velocity": 1,
      "chip": "ym2612"
    },
    {
      "channel": 0,
      "note": 44,
      "start": 95.5051,
      "duration": 0.1649,
      "velocity": 114,
      "chip": "ym2612"
    },
    {
      "channel": 1,
      "note": 62,
      "start": 95.5063,
      "duration": 0.1482,
      "velocity": 118,
      "chip": "ym2612"
    },
    {
      "channel": 2,
      "note": 17,
      "start": 95.5069,
      "duration": 0.1645,
      "velocity": 113,
      "chip": "ym2612"
    },
    {
      "channel": 3,
      "note": 41,
      "start": 95.5078,
      "duration": 0.1649,
      "velocity": 126,
      "chip": "ym2612"
    },
    {
      "channel": 4,
      "note": 53,
      "start": 95.5091,
      "duration": 0.0974,
      "velocity": 127,
      "chip": "ym2612"
    },
    {
      "channel": 0,
      "note": 44,
      "start": 95.6707,
      "duration": 0.1648,
      "velocity": 114,
      "chip": "ym2612"
    },
    {
      "channel": 1,
      "note": 62,
      "start": 95.6713,
      "duration": 0.1486,
      "velocity": 118,
      "chip": "ym2612"
    },
    {
      "channel": 2,
      "note": 17,
      "start": 95.6725,
      "duration": 0.1644,
      "velocity": 1,
      "chip": "ym2612"
    },
    {
      "channel": 3,
      "note": 36,
      "start": 95.6734,
      "duration": 0.1648,
      "velocity": 126,
      "chip": "ym2612"
    },
    {
      "channel": 4,
      "note": 53,
      "start": 95.6747,
      "duration": 0.0973,
      "velocity": 127,
      "chip": "ym2612"
    },
    {
      "channel": 0,
      "note": 44,
      "start": 95.8362,
      "duration": 0.1648,
      "velocity": 114,
      "chip": "ym2612"
    },
    {
      "channel": 1,
      "note": 62,
      "start": 95.8368,
      "duration": 0.1487,
      "velocity": 118,
      "chip": "ym2612"
    },
    {
      "channel": 2,
      "note": 17,
      "start": 95.838,
      "duration": 0.1656,
      "velocity": 113,
      "chip": "ym2612"
    },
    {
      "channel": 3,
      "note": 39,
      "start": 95.8389,
      "duration": 0.1653,
      "velocity": 126,
      "chip": "ym2612"
    },
    {
      "channel": 4,
      "note": 53,
      "start": 95.8402,
      "duration": 0.0973,
      "velocity": 127,
      "chip": "ym2612"
    },
    {
      "channel": 0,
      "note": 44,
      "start": 96.0021,
      "duration": 0.0821,
      "velocity": 112,
      "chip": "ym2612"
    },
    {
      "channel": 1,
      "note": 58,
      "start": 96.0034,
      "duration": 0.1646,
      "velocity": 127,
      "chip": "ym2612"
    },
    {
      "channel": 2,
      "note": 17,
      "start": 96.0041,
      "duration": 0.1651,
      "velocity": 113,
      "chip": "ym2612"
    },
    {
      "channel": 3,
      "note": 24,
      "start": 96.005,
      "duration": 0.1655,
      "velocity": 126,
      "chip": "ym2612"
    },
    {
      "channel": 4,
      "note": 53,
      "start": 96.0062,
      "duration": 0.0967,
      "velocity": 127,
      "chip": "ym2612"
    },
    {
      "channel": 0,
      "note": 44,
      "start": 96.1678,
      "duration": 0.1642,
      "velocity": 114,
      "chip": "ym2612"
    },
    {
      "channel": 1,
      "note": 62,
      "start": 96.169,
      "duration": 0.1475,
      "velocity": 118,
      "chip": "ym2612"
    },
    {
      "channel": 2,
      "note": 17,
      "start": 96.1702,
      "duration": 0.1632,
      "velocity": 1,
      "chip": "ym2612"
    },
    {
      "channel": 3,
      "note": 36,
      "start": 96.1711,
      "duration": 0.1636,
      "velocity": 126,
      "chip": "ym2612"
    },
    {
      "channel": 4,
      "note": 53,
      "start": 96.1724,
      "duration": 0.0961,
      "velocity": 127,
      "chip": "ym2612"
    },
    {
      "channel": 0,
      "note": 44,
      "start": 96.3328,
      "duration": 0.1648,
      "velocity": 114,
      "chip": "ym2612"
    },
    {
      "channel": 1,
      "note": 62,
      "start": 96.3333,
      "duration": 0.1487,
      "velocity": 118,
      "chip": "ym2612"
    },
    {
      "channel": 2,
      "note": 15,
      "start": 96.3346,
      "duration": 0.1652,
      "velocity": 113,
      "chip": "ym2612"
    },
    {
      "channel": 3,
      "note": 39,
      "start": 96.3354,
      "duration": 0.1649,
      "velocity": 126,
      "chip": "ym2612"
    },
    {
      "channel": 4,
      "note": 53,
      "start": 96.3367,
      "duration": 0.0973,
      "velocity": 127,
      "chip": "ym2612"
    },
    {
      "channel": 0,
      "note": 44,
      "start": 96.4983,
      "duration": 0.1648,
      "velocity": 114,
      "chip": "ym2612"
    },
    {
      "channel": 1,
      "note": 58,
      "start": 96.4996,
      "duration": 0.1644,
      "velocity": 127,
      "chip": "ym2612"
    },
    {
      "channel": 2,
      "note": 17,
      "start": 96.5002,
      "duration": 0.1651,
      "velocity": 113,
      "chip": "ym2612"
    },
    {
      "channel": 3,
      "note": 36,
      "start": 96.5011,
      "duration": 0.1648,
      "velocity": 126,
      "chip": "ym2612"
    },
    {
      "channel": 4,
      "note": 53,
      "start": 96.5024,
      "duration": 0.0973,
      "velocity": 127,
      "chip": "ym2612"
    },
    {
      "channel": 0,
      "note": 44,
      "start": 96.6638,
      "duration": 0.1648,
      "velocity": 114,
      "chip": "ym2612"
    },
    {
      "channel": 1,
      "note": 29,
      "start": 96.6651,
      "duration": 0.1644,
      "velocity": 1,
      "chip": "ym2612"
    },
    {
      "channel": 2,
      "note": 17,
      "start": 96.6657,
      "duration": 0.165,
      "velocity": 113,
      "chip": "ym2612"
    },
    {
      "channel": 3,
      "note": 41,
      "start": 96.6666,
      "duration": 0.1647,
      "velocity": 126,
      "chip": "ym2612"
    },
    {
      "channel": 4,
      "note": 53,
      "start": 96.6679,
      "duration": 0.0973,
      "velocity": 127,
      "chip": "ym2612"
    },
    {
      "channel": 0,
      "note": 44,
      "start": 96.8293,
      "duration": 0.1648,
      "velocity": 114,
      "chip": "ym2612"
    },
    {
      "channel": 1,
      "note": 62,
      "start": 96.8305,
      "duration": 0.148,
      "velocity": 118,
      "chip": "ym2612"
    },
    {
      "channel": 2,
      "note": 17,
      "start": 96.8312,
      "duration": 0.1644,
      "velocity": 113,
      "chip": "ym2612"
    },
    {
      "channel": 3,
      "note": 41,
      "start": 96.8321,
      "duration": 0.1648,
      "velocity": 126,
      "chip": "ym2612"
    },
    {
      "channel": 4,
      "note": 53,
      "start": 96.8333,
      "duration": 0.0973,
      "velocity": 127,
      "chip": "ym2612"
    },
    {
      "channel": 0,
      "note": 44,
      "start": 96.9949,
      "duration": 0.1648,
      "velocity": 114,
      "chip": "ym2612"
    },
    {
      "channel": 1,
      "note": 62,
      "start": 96.9955,
      "duration": 0.1486,
      "velocity": 118,
      "chip": "ym2612"
    },
    {
      "channel": 2,
      "note": 17,
      "start": 96.9967,
      "duration": 0.1644,
      "velocity": 1,
      "chip": "ym2612"
    },
    {
      "channel": 3,
      "note": 36,
      "start": 96.9976,
      "duration": 0.1647,
      "velocity": 126,
      "chip": "ym2612"
    },
    {
      "channel": 4,
      "note": 53,
      "start": 96.9989,
      "duration": 0.0973,
      "velocity": 127,
      "chip": "ym2612"
    },
    {
      "channel": 0,
      "note": 44,
      "start": 97.1604,
      "duration": 0.1648,
      "velocity": 114,
      "chip": "ym2612"
    },
    {
      "channel": 1,
      "note": 62,
      "start": 97.161,
      "duration": 0.1486,
      "velocity": 118,
      "chip": "ym2612"
    },
    {
      "channel": 2,
      "note": 17,
      "start": 97.1622,
      "duration": 0.1656,
      "velocity": 113,
      "chip": "ym2612"
    },
    {
      "channel": 3,
      "note": 39,
      "start": 97.1631,
      "duration": 0.1653,
      "velocity": 126,
      "chip": "ym2612"
    },
    {
      "channel": 4,
      "note": 53,
      "start": 97.1644,
      "duration": 0.0973,
      "velocity": 127,
      "chip": "ym2612"
    },
    {
      "channel": 0,
      "note": 44,
      "start": 97.3263,
      "duration": 0.082,
      "velocity": 112,
      "chip": "ym2612"
    },
    {
      "channel": 1,
      "note": 58,
      "start": 97.3276,
      "duration": 0.1645,
      "velocity": 127,
      "chip": "ym2612"
    },
    {
      "channel": 2,
      "note": 17,
      "start": 97.3283,
      "duration": 0.1651,
      "velocity": 113,
      "chip": "ym2612"
    },
    {
      "channel": 3,
      "note": 24,
      "start": 97.3291,
      "duration": 0.1655,
      "velocity": 126,
      "chip": "ym2612"
    },
    {
      "channel": 4,
      "note": 53,
      "start": 97.3304,
      "duration": 0.0968,
      "velocity": 127,
      "chip": "ym2612"
    },
    {
      "channel": 0,
      "note": 44,
      "start": 97.492,
      "duration": 0.1642,
      "velocity": 114,
      "chip": "ym2612"
    },
    {
      "channel": 1,
      "note": 62,
      "start": 97.4932,
      "duration": 0.1475,
      "velocity": 118,
      "chip": "ym2612"
    },
    {
      "channel": 2,
      "note": 17,
      "start": 97.4944,
      "duration": 0.1633,
      "velocity": 1,
      "chip": "ym2612"
    },
    {
      "channel": 3,
      "note": 36,
      "start": 97.4953,
      "duration": 0.1636,
      "velocity": 126,
      "chip": "ym2612"
    },
    {
      "channel": 4,
      "note": 53,
      "start": 97.4966,
      "duration": 0.0962,
      "velocity": 127,
      "chip": "ym2612"
    },
    {
      "channel": 0,
      "note": 44,
      "start": 97.6569,
      "duration": 0.1648,
      "velocity": 114,
      "chip": "ym2612"
    },
    {
      "channel": 1,
      "note": 62,
      "start": 97.6576,
      "duration": 0.1486,
      "velocity": 118,
      "chip": "ym2612"
    },
    {
      "channel": 2,
      "note": 17,
      "start": 97.6588,
      "duration": 0.1644,
      "velocity": 113,
      "chip": "ym2612"
    },
    {
      "channel": 3,
      "note": 39,
      "start": 97.6597,
      "duration": 0.1642,
      "velocity": 126,
      "chip": "ym2612"
    },
    {
      "channel": 4,
      "note": 53,
      "start": 97.661,
      "duration": 0.0973,
      "velocity": 127,
      "chip": "ym2612"
    },
    {
      "channel": 0,
      "note": 44,
      "start": 97.8224,
      "duration": 0.1649,
      "velocity": 114,
      "chip": "ym2612"
    },
    {
      "channel": 1,
      "note": 62,
      "start": 97.8231,
      "duration": 0.1486,
      "velocity": 118,
      "chip": "ym2612"
    },
    {
      "channel": 2,
      "note": 17,
      "start": 97.8237,
      "duration": 0.1658,
      "velocity": 113,
      "chip": "ym2612"
    },
    {
      "channel": 3,
      "note": 36,
      "start": 97.8246,
      "duration": 0.1656,
      "velocity": 126,
      "chip": "ym2612"
    },
    {
      "channel": 4,
      "note": 53,
      "start": 97.8258,
      "duration": 0.098,
      "velocity": 127,
      "chip": "ym2612"
    },
    {
      "channel": 0,
      "note": 44,
      "start": 97.988,
      "duration": 0.1648,
      "velocity": 114,
      "chip": "ym2612"
    },
    {
      "channel": 1,
      "note": 29,
      "start": 97.9893,
      "duration": 0.1644,
      "velocity": 1,
      "chip": "ym2612"
    },
    {
      "channel": 2,
      "note": 17,
      "start": 97.99,
      "duration": 0.1649,
      "velocity": 113,
      "chip": "ym2612"
    },
    {
      "channel": 3,
      "note": 29,
      "start": 97.9908,
      "duration": 0.1647,
      "velocity": 126,
      "chip": "ym2612"
    },
    {
      "channel": 4,
      "note": 53,
      "start": 97.9915,
      "duration": 0.0979,
      "velocity": 127,
      "chip": "ym2612"
    },
    {
      "channel": 5,
      "note": 53,
      "start": 97.9922,
      "duration": 0.0978,
      "velocity": 1,
      "chip": "ym2612"
    },
    {
      "channel": 0,
      "note": 44,
      "start": 98.1535,
      "duration": 0.1649,
      "velocity": 114,
      "chip": "ym2612"
    },
    {
      "channel": 1,
      "note": 62,
      "start": 98.1548,
      "duration": 0.148,
      "velocity": 118,
      "chip": "ym2612"
    },
    {
      "channel": 2,
      "note": 17,
      "start": 98.1554,
      "duration": 0.1644,
      "velocity": 113,
      "chip": "ym2612"
    },
    {
      "channel": 3,
      "note": 41,
      "start": 98.1562,
      "duration": 0.1648,
      "velocity": 126,
      "chip": "ym2612"
    },
    {
      "channel": 4,
      "note": 53,
      "start": 98.1575,
      "duration": 0.0974,
      "velocity": 127,
      "chip": "ym2612"
    },
    {
      "channel": 0,
      "note": 44,
      "start": 98.319,
      "duration": 0.1649,
      "velocity": 114,
      "chip": "ym2612"
    },
    {
      "channel": 1,
      "note": 62,
      "start": 98.3197,
      "duration": 0.1487,
      "velocity": 118,
      "chip": "ym2612"
    },
    {
      "channel": 2,
      "note": 17,
      "start": 98.3209,
      "duration": 0.1644,
      "velocity": 1,
      "chip": "ym2612"
    },
    {
      "channel": 3,
      "note": 36,
      "start": 98.3218,
      "duration": 0.1647,
      "velocity": 126,
      "chip": "ym2612"
    },
    {
      "channel": 4,
      "note": 53,
      "start": 98.323,
      "duration": 0.0974,
      "velocity": 127,
      "chip": "ym2612"
    },
    {
      "channel": 0,
      "note": 44,
      "start": 98.4846,
      "duration": 0.1648,
      "velocity": 114,
      "chip": "ym2612"
    },
    {
      "channel": 1,
      "note": 62,
      "start": 98.4852,
      "duration": 0.1487,
      "velocity": 118,
      "chip": "ym2612"
    },
    {
      "channel": 2,
      "note": 17,
      "start": 98.4864,
      "duration": 0.1656,
      "velocity": 113,
      "chip": "ym2612"
    },
    {
      "channel": 3,
      "note": 39,
      "start": 98.4873,
      "duration": 0.1653,
      "velocity": 126,
      "chip": "ym2612"
    },
    {
      "channel": 4,
      "note": 53,
      "start": 98.4886,
      "duration": 0.0973,
      "velocity": 127,
      "chip": "ym2612"
    },
    {
      "channel": 0,
      "note": 44,
      "start": 98.6505,
      "duration": 0.0821,
      "velocity": 112,
      "chip": "ym2612"
    },
    {
      "channel": 1,
      "note": 58,
      "start": 98.6518,
      "duration": 0.1646,
      "velocity": 127,
      "chip": "ym2612"
    },
    {
      "channel": 2,
      "note": 17,
      "start": 98.6524,
      "duration": 0.1651,
      "velocity": 113,
      "chip": "ym2612"
    },
    {
      "channel": 3,
      "note": 24,
      "start": 98.6533,
      "duration": 0.1655,
      "velocity": 126,
      "chip": "ym2612"
    },
    {
      "channel": 4,
      "note": 53,
      "start": 98.6546,
      "duration": 0.0967,
      "velocity": 127,
      "chip": "ym2612"
    },
    {
      "channel": 0,
      "note": 44,
      "start": 98.8162,
      "duration": 0.1642,
      "velocity": 114,
      "chip": "ym2612"
    },
    {
      "channel": 1,
      "note": 62,
      "start": 98.8174,
      "duration": 0.1475,
      "velocity": 118,
      "chip": "ym2612"
    },
    {
      "channel": 2,
      "note": 17,
      "start": 98.8186,
      "duration": 0.1632,
      "velocity": 1,
      "chip": "ym2612"
    },
    {
      "channel": 3,
      "note": 36,
      "start": 98.8195,
      "duration": 0.1637,
      "velocity": 126,
      "chip": "ym2612"
    },
    {
      "channel": 4,
      "note": 53,
      "start": 98.8208,
      "duration": 0.0961,
      "velocity": 127,
      "chip": "ym2612"
    },
    {
      "channel": 0,
      "note": 44,
      "start": 98.9812,
      "duration": 0.1648,
      "velocity": 114,
      "chip": "ym2612"
    },
    {
      "channel": 1,
      "note": 62,
      "start": 98.9817,
      "duration": 0.1487,
      "velocity": 118,
      "chip": "ym2612"
    },
    {
      "channel": 2,
      "note": 15,
      "start": 98.9829,
      "duration": 0.1652,
      "velocity": 113,
      "chip": "ym2612"
    },
    {
      "channel": 3,
      "note": 39,
      "start": 98.9839,
      "duration": 0.1649,
      "velocity": 126,
      "chip": "ym2612"
    },
    {
      "channel": 4,
      "note": 53,
      "start": 98.9851,
      "duration": 0.0973,
      "velocity": 127,
      "chip": "ym2612"
    },
    {
      "channel": 0,
      "note": 44,
      "start": 99.1467,
      "duration": 0.1648,
      "velocity": 114,
      "chip": "ym2612"
    },
    {
      "channel": 1,
      "note": 58,
      "start": 99.148,
      "duration": 0.1644,
      "velocity": 127,
      "chip": "ym2612"
    },
    {
      "channel": 2,
      "note": 17,
      "start": 99.1486,
      "duration": 0.1651,
      "velocity": 113,
      "chip": "ym2612"
    },
    {
      "channel": 3,
      "note": 36,
      "start": 99.1495,
      "duration": 0.1648,
      "velocity": 126,
      "chip": "ym2612"
    },
    {
      "channel": 4,
      "note": 53,
      "start": 99.1508,
      "duration": 0.0973,
      "velocity": 127,
      "chip": "ym2612"
    },
    {
      "channel": 0,
      "note": 44,
      "start": 99.3122,
      "duration": 0.1648,
      "velocity": 114,
      "chip": "ym2612"
    },
    {
      "channel": 1,
      "note": 29,
      "start": 99.3135,
      "duration": 0.1644,
      "velocity": 1,
      "chip": "ym2612"
    },
    {
      "channel": 2,
      "note": 17,
      "start": 99.3141,
      "duration": 0.1649,
      "velocity": 113,
      "chip": "ym2612"
    },
    {
      "channel": 3,
      "note": 41,
      "start": 99.315,
      "duration": 0.1647,
      "velocity": 126,
      "chip": "ym2612"
    },
    {
      "channel": 4,
      "note": 53,
      "start": 99.3163,
      "duration": 0.0973,
      "velocity": 127,
      "chip": "ym2612"
    },
    {
      "channel": 0,
      "note": 44,
      "start": 99.4777,
      "duration": 0.1648,
      "velocity": 114,
      "chip": "ym2612"
    },
    {
      "channel": 1,
      "note": 62,
      "start": 99.479,
      "duration": 0.148,
      "velocity": 118,
      "chip": "ym2612"
    },
    {
      "channel": 2,
      "note": 17,
      "start": 99.4796,
      "duration": 0.1644,
      "velocity": 113,
      "chip": "ym2612"
    },
    {
      "channel": 3,
      "note": 41,
      "start": 99.4804,
      "duration": 0.1648,
      "velocity": 126,
      "chip": "ym2612"
    },
    {
      "channel": 4,
      "note": 53,
      "start": 99.4817,
      "duration": 0.0973,
      "velocity": 127,
      "chip": "ym2612"
    },
    {
      "channel": 0,
      "note": 44,
      "start": 99.6433,
      "duration": 0.1648,
      "velocity": 114,
      "chip": "ym2612"
    },
    {
      "channel": 1,
      "note": 62,
      "start": 99.6438,
      "duration": 0.1487,
      "velocity": 118,
      "chip": "ym2612"
    },
    {
      "channel": 2,
      "note": 17,
      "start": 99.6451,
      "duration": 0.1644,
      "velocity": 1,
      "chip": "ym2612"
    },
    {
      "channel": 3,
      "note": 36,
      "start": 99.6459,
      "duration": 0.1648,
      "velocity": 126,
      "chip": "ym2612"
    },
    {
      "channel": 4,
      "note": 53,
      "start": 99.6472,
      "duration": 0.0973,
      "velocity": 127,
      "chip": "ym2612"
    },
    {
      "channel": 0,
      "note": 44,
      "start": 99.8088,
      "duration": 0.1648,
      "velocity": 114,
      "chip": "ym2612"
    },
    {
      "channel": 1,
      "note": 62,
      "start": 99.8094,
      "duration": 0.1486,
      "velocity": 118,
      "chip": "ym2612"
    },
    {
      "channel": 2,
      "note": 17,
      "start": 99.8106,
      "duration": 0.1656,
      "velocity": 113,
      "chip": "ym2612"
    },
    {
      "channel": 3,
      "note": 39,
      "start": 99.8115,
      "duration": 0.1653,
      "velocity": 126,
      "chip": "ym2612"
    },
    {
      "channel": 4,
      "note": 53,
      "start": 99.8128,
      "duration": 0.0973,
      "velocity": 127,
      "chip": "ym2612"
    },
    {
      "channel": 0,
      "note": 44,
      "start": 99.9747,
      "duration": 0.082,
      "velocity": 112,
      "chip": "ym2612"
    },
    {
      "channel": 1,
      "note": 58,
      "start": 99.976,
      "duration": 0.1645,
      "velocity": 127,
      "chip": "ym2612"
    },
    {
      "channel": 2,
      "note": 17,
      "start": 99.9767,
      "duration": 0.1651,
      "velocity": 113,
      "chip": "ym2612"
    },
    {
      "channel": 3,
      "note": 24,
      "start": 99.9776,
      "duration": 0.1655,
      "velocity": 126,
      "chip": "ym2612"
    },
    {
      "channel": 4,
      "note": 53,
      "start": 99.9788,
      "duration": 0.0967,
      "velocity": 127,
      "chip": "ym2612"
    },
    {
      "channel": 0,
      "note": 44,
      "start": 100.1404,
      "duration": 0.1642,
      "velocity": 114,
      "chip": "ym2612"
    },
    {
      "channel": 1,
      "note": 62,
      "start": 100.1416,
      "duration": 0.1475,
      "velocity": 118,
      "chip": "ym2612"
    },
    {
      "channel": 2,
      "note": 17,
      "start": 100.1428,
      "duration": 0.1633,
      "velocity": 1,
      "chip": "ym2612"
    },
    {
      "channel": 3,
      "note": 36,
      "start": 100.1437,
      "duration": 0.1636,
      "velocity": 126,
      "chip": "ym2612"
    },
    {
      "channel": 4,
      "note": 53,
      "start": 100.145,
      "duration": 0.0962,
      "velocity": 127,
      "chip": "ym2612"
    },
    {
      "channel": 0,
      "note": 44,
      "start": 100.3054,
      "duration": 0.1648,
      "velocity": 114,
      "chip": "ym2612"
    },
    {
      "channel": 1,
      "note": 62,
      "start": 100.306,
      "duration": 0.1487,
      "velocity": 118,
      "chip": "ym2612"
    },
    {
      "channel": 2,
      "note": 17,
      "start": 100.3072,
      "duration": 0.1645,
      "velocity": 113,
      "chip": "ym2612"
    },
    {
      "channel": 3,
      "note": 39,
      "start": 100.3081,
      "duration": 0.1643,
      "velocity": 126,
      "chip": "ym2612"
    },
    {
      "channel": 4,
      "note": 53,
      "start": 100.3094,
      "duration": 0.0973,
      "velocity": 127,
      "chip": "ym2612"
    },
    {
      "channel": 0,
      "note": 44,
      "start": 100.4709,
      "duration": 0.1648,
      "velocity": 114,
      "chip": "ym2612"
    },
    {
      "channel": 1,
      "note": 62,
      "start": 100.4715,
      "duration": 0.1486,
      "velocity": 118,
      "chip": "ym2612"
    },
    {
      "channel": 2,
      "note": 17,
      "start": 100.4721,
      "duration": 0.1661,
      "velocity": 113,
      "chip": "ym2612"
    },
    {
      "channel": 3,
      "note": 36,
      "start": 100.473,
      "duration": 0.1664,
      "velocity": 126,
      "chip": "ym2612"
    },
    {
      "channel": 4,
      "note": 53,
      "start": 100.4743,
      "duration": 0.0979,
      "velocity": 127,
      "chip": "ym2612"
    },
    {
      "channel": 0,
      "note": 17,
      "start": 100.6368,
      "duration": 0.1648,
      "velocity": 113,
      "chip": "ym2612"
    },
    {
      "channel": 1,
      "note": 53,
      "start": 100.6381,
      "duration": 0.0978,
      "velocity": 127,
      "chip": "ym2612"
    },
    {
      "channel": 2,
      "note": 53,
      "start": 100.6393,
      "duration": 0.0971,
      "velocity": 1,
      "chip": "ym2612"
    },
    {
      "channel": 3,
      "note": 53,
      "start": 100.6405,
      "duration": 0.0963,
      "velocity": 1,
      "chip": "ym2612"
    },
    {
      "channel": 4,
      "note": 53,
      "start": 100.6417,
      "duration": 0.0957,
      "velocity": 1,
      "chip": "ym2612"
    },
    {
      "channel": 5,
      "note": 53,
      "start": 100.6424,
      "duration": 0.0955,
      "velocity": 1,
      "chip": "ym2612"
    },
    {
      "channel": 1,
      "note": 53,
      "start": 100.8029,
      "duration": 0.0985,
      "velocity": 127,
      "chip": "ym2612"
    },
    {
      "channel": 0,
      "note": 17,
      "start": 100.9672,
      "duration": 0.1654,
      "velocity": 113,
      "chip": "ym2612"
    },
    {
      "channel": 1,
      "note": 53,
      "start": 100.9685,
      "duration": 0.0984,
      "velocity": 127,
      "chip": "ym2612"
    },
    {
      "channel": 1,
      "note": 53,
      "start": 101.1339,
      "duration": 0.0985,
      "velocity": 127,
      "chip": "ym2612"
    },
    {
      "channel": 0,
      "note": 17,
      "start": 101.2989,
      "duration": 0.1151,
      "velocity": 127,
      "chip": "ym2612"
    },
    {
      "channel": 1,
      "note": 53,
      "start": 101.3002,
      "duration": 0.0978,
      "velocity": 127,
      "chip": "ym2612"
    },
    {
      "channel": 1,
      "note": 53,
      "start": 101.4649,
      "duration": 0.0986,
      "velocity": 127,
      "chip": "ym2612"
    },
    {
      "channel": 0,
      "note": 17,
      "start": 101.6299,
      "duration": 0.1645,
      "velocity": 113,
      "chip": "ym2612"
    },
    {
      "channel": 1,
      "note": 53,
      "start": 101.6312,
      "duration": 0.0978,
      "velocity": 127,
      "chip": "ym2612"
    },
    {
      "channel": 0,
      "note": 17,
      "start": 101.7949,
      "duration": 0.1654,
      "velocity": 113,
      "chip": "ym2612"
    },
    {
      "channel": 1,
      "note": 53,
      "start": 101.7961,
      "duration": 0.0984,
      "velocity": 127,
      "chip": "ym2612"
    },
    {
      "channel": 1,
      "note": 53,
      "start": 101.9615,
      "duration": 0.0985,
      "velocity": 127,
      "chip": "ym2612"
    },
    {
      "channel": 1,
      "note": 53,
      "start": 102.127,
      "duration": 0.0985,
      "velocity": 127,
      "chip": "ym2612"
    },
    {
      "channel": 0,
      "note": 17,
      "start": 102.2914,
      "duration": 0.1654,
      "velocity": 113,
      "chip": "ym2612"
    },
    {
      "channel": 1,
      "note": 53,
      "start": 102.2927,
      "duration": 0.0985,
      "velocity": 127,
      "chip": "ym2612"
    },
    {
      "channel": 1,
      "note": 53,
      "start": 102.4581,
      "duration": 0.0985,
      "velocity": 127,
      "chip": "ym2612"
    },
    {
      "channel": 0,
      "note": 17,
      "start": 102.6231,
      "duration": 0.1151,
      "velocity": 127,
      "chip": "ym2612"
    },
    {
      "channel": 1,
      "note": 53,
      "start": 102.6244,
      "duration": 0.0979,
      "velocity": 127,
      "chip": "ym2612"
    },
    {
      "channel": 1,
      "note": 53,
      "start": 102.7892,
      "duration": 0.0986,
      "velocity": 127,
      "chip": "ym2612"
    },
    {
      "channel": 1,
      "note": 53,
      "start": 102.9548,
      "duration": 0.0985,
      "velocity": 127,
      "chip": "ym2612"
    },
    {
      "channel": 1,
      "note": 53,
      "start": 103.1202,
      "duration": 0.0985,
      "velocity": 127,
      "chip": "ym2612"
    },
    {
      "channel": 0,
      "note": 17,
      "start": 103.2852,
      "duration": 0.1647,
      "velocity": 113,
      "chip": "ym2612"
    },
    {
      "channel": 1,
      "note": 53,
      "start": 103.2859,
      "duration": 0.0984,
      "velocity": 127,
      "chip": "ym2612"
    },
    {
      "channel": 2,
      "note": 53,
      "start": 103.2865,
      "duration": 0.0982,
      "velocity": 1,
      "chip": "ym2612"
    },
    {
      "channel": 3,
      "note": 53,
      "start": 103.2872,
      "duration": 0.0981,
      "velocity": 1,
      "chip": "ym2612"
    },
    {
      "channel": 4,
      "note": 53,
      "start": 103.2878,
      "duration": 0.098,
      "velocity": 1,
      "chip": "ym2612"
    },
    {
      "channel": 5,
      "note": 53,
      "start": 103.2884,
      "duration": 0.0978,
      "velocity": 1,
      "chip": "ym2612"
    },
    {
      "channel": 1,
      "note": 53,
      "start": 103.4512,
      "duration": 0.0986,
      "velocity": 127,
      "chip": "ym2612"
    },
    {
      "channel": 0,
      "note": 17,
      "start": 103.6156,
      "duration": 0.1653,
      "velocity": 113,
      "chip": "ym2612"
    },
    {
      "channel": 1,
      "note": 53,
      "start": 103.6169,
      "duration": 0.0984,
      "velocity": 127,
      "chip": "ym2612"
    },
    {
      "channel": 1,
      "note": 53,
      "start": 103.7823,
      "duration": 0.0985,
      "velocity": 127,
      "chip": "ym2612"
    },
    {
      "channel": 0,
      "note": 17,
      "start": 103.9473,
      "duration": 0.1151,
      "velocity": 127,
      "chip": "ym2612"
    },
    {
      "channel": 1,
      "note": 53,
      "start": 103.9486,
      "duration": 0.0978,
      "velocity": 127,
      "chip": "ym2612"
    },
    {
      "channel": 1,
      "note": 53,
      "start": 104.1134,
      "duration": 0.0986,
      "velocity": 127,
      "chip": "ym2612"
    },
    {
      "channel": 0,
      "note": 17,
      "start": 104.2783,
      "duration": 0.1644,
      "velocity": 113,
      "chip": "ym2612"
    },
    {
      "channel": 1,
      "note": 53,
      "start": 104.2796,
      "duration": 0.0978,
      "velocity": 127,
      "chip": "ym2612"
    },
    {
      "channel": 0,
      "note": 17,
      "start": 104.4433,
      "duration": 0.1654,
      "velocity": 113,
      "chip": "ym2612"
    },
    {
      "channel": 1,
      "note": 53,
      "start": 104.4445,
      "duration": 0.0984,
      "velocity": 127,
      "chip": "ym2612"
    },
    {
      "channel": 1,
      "note": 53,
      "start": 104.6099,
      "duration": 0.0985,
      "velocity": 127,
      "chip": "ym2612"
    },
    {
      "channel": 1,
      "note": 53,
      "start": 104.7754,
      "duration": 0.0986,
      "velocity": 127,
      "chip": "ym2612"
    },
    {
      "channel": 0,
      "note": 17,
      "start": 104.9398,
      "duration": 0.1654,
      "velocity": 113,
      "chip": "ym2612"
    },
    {
      "channel": 1,
      "note": 53,
      "start": 104.9411,
      "duration": 0.0984,
      "velocity": 127,
      "chip": "ym2612"
    },
    {
      "channel": 1,
      "note": 53,
      "start": 105.1065,
      "duration": 0.0985,
      "velocity": 127,
      "chip": "ym2612"
    },
    {
      "channel": 0,
      "note": 17,
      "start": 105.2716,
      "duration": 0.1151,
      "velocity": 127,
      "chip": "ym2612"
    },
    {
      "channel": 1,
      "note": 53,
      "start": 105.2728,
      "duration": 0.0978,
      "velocity": 127,
      "chip": "ym2612"
    },
    {
      "channel": 1,
      "note": 53,
      "start": 105.4376,
      "duration": 0.0985,
      "velocity": 127,
      "chip": "ym2612"
    },
    {
      "channel": 1,
      "note": 53,
      "start": 105.6031,
      "duration": 0.0985,
      "velocity": 127,
      "chip": "ym2612"
    },
    {
      "channel": 1,
      "note": 53,
      "start": 105.7686,
      "duration": 0.0986,
      "velocity": 127,
      "chip": "ym2612"
    },
    {
      "channel": 0,
      "note": 17,
      "start": 105.9336,
      "duration": 5.2957,
      "velocity": 124,
      "chip": "ym2612"
    },
    {
      "channel": 1,
      "note": 53,
      "start": 105.9343,
      "duration": 0.0984,
      "velocity": 127,
      "chip": "ym2612"
    },
    {
      "channel": 2,
      "note": 53,
      "start": 105.9349,
      "duration": 0.0982,
      "velocity": 1,
      "chip": "ym2612"
    },
    {
      "channel": 3,
      "note": 53,
      "start": 105.9356,
      "duration": 0.0981,
      "velocity": 1,
      "chip": "ym2612"
    },
    {
      "channel": 4,
      "note": 53,
      "start": 105.9362,
      "duration": 0.098,
      "velocity": 1,
      "chip": "ym2612"
    },
    {
      "channel": 5,
      "note": 53,
      "start": 105.9368,
      "duration": 0.0978,
      "velocity": 1,
      "chip": "ym2612"
    },
    {
      "channel": 1,
      "note": 53,
      "start": 106.0996,
      "duration": 0.0986,
      "velocity": 127,
      "chip": "ym2612"
    },
    {
      "channel": 1,
      "note": 53,
      "start": 106.2651,
      "duration": 0.0986,
      "velocity": 127,
      "chip": "ym2612"
    },
    {
      "channel": 1,
      "note": 53,
      "start": 106.4307,
      "duration": 0.0986,
      "velocity": 127,
      "chip": "ym2612"
    },
    {
      "channel": 1,
      "note": 53,
      "start": 106.5962,
      "duration": 0.0986,
      "velocity": 127,
      "chip": "ym2612"
    },
    {
      "channel": 1,
      "note": 53,
      "start": 106.7617,
      "duration": 0.0986,
      "velocity": 127,
      "chip": "ym2612"
    },
    {
      "channel": 1,
      "note": 53,
      "start": 106.9272,
      "duration": 0.0986,
      "velocity": 127,
      "chip": "ym2612"
    },
    {
      "channel": 1,
      "note": 53,
      "start": 107.0927,
      "duration": 0.0986,
      "velocity": 127,
      "chip": "ym2612"
    },
    {
      "channel": 1,
      "note": 53,
      "start": 107.2583,
      "duration": 0.0986,
      "velocity": 127,
      "chip": "ym2612"
    },
    {
      "channel": 1,
      "note": 53,
      "start": 107.4238,
      "duration": 0.0986,
      "velocity": 127,
      "chip": "ym2612"
    },
    {
      "channel": 1,
      "note": 53,
      "start": 107.5893,
      "duration": 0.0987,
      "velocity": 127,
      "chip": "ym2612"
    },
    {
      "channel": 1,
      "note": 53,
      "start": 107.7549,
      "duration": 0.0985,
      "velocity": 127,
      "chip": "ym2612"
    },
    {
      "channel": 1,
      "note": 53,
      "start": 107.9204,
      "duration": 0.0985,
      "velocity": 127,
      "chip": "ym2612"
    },
    {
      "channel": 1,
      "note": 53,
      "start": 108.0859,
      "duration": 0.0986,
      "velocity": 127,
      "chip": "ym2612"
    },
    {
      "channel": 1,
      "note": 53,
      "start": 108.2515,
      "duration": 0.0985,
      "velocity": 127,
      "chip": "ym2612"
    },
    {
      "channel": 1,
      "note": 53,
      "start": 108.417,
      "duration": 0.0985,
      "velocity": 127,
      "chip": "ym2612"
    },
    {
      "channel": 1,
      "note": 53,
      "start": 108.5819,
      "duration": 0.0992,
      "velocity": 127,
      "chip": "ym2612"
    },
    {
      "channel": 2,
      "note": 53,
      "start": 108.5825,
      "duration": 0.099,
      "velocity": 1,
      "chip": "ym2612"
    },
    {
      "channel": 3,
      "note": 53,
      "start": 108.5832,
      "duration": 0.0989,
      "velocity": 1,
      "chip": "ym2612"
    },
    {
      "channel": 4,
      "note": 53,
      "start": 108.5838,
      "duration": 0.0988,
      "velocity": 1,
      "chip": "ym2612"
    },
    {
      "channel": 5,
      "note": 53,
      "start": 108.5844,
      "duration": 0.0986,
      "velocity": 1,
      "chip": "ym2612"
    },
    {
      "channel": 1,
      "note": 53,
      "start": 108.748,
      "duration": 0.0985,
      "velocity": 127,
      "chip": "ym2612"
    },
    {
      "channel": 1,
      "note": 53,
      "start": 108.9136,
      "duration": 0.0986,
      "velocity": 127,
      "chip": "ym2612"
    },
    {
      "channel": 1,
      "note": 53,
      "start": 109.0791,
      "duration": 0.0986,
      "velocity": 127,
      "chip": "ym2612"
    },
    {
      "channel": 1,
      "note": 53,
      "start": 109.2446,
      "duration": 0.0986,
      "velocity": 127,
      "chip": "ym2612"
    },
    {
      "channel": 1,
      "note": 53,
      "start": 109.4101,
      "duration": 0.0986,
      "velocity": 127,
      "chip": "ym2612"
    },
    {
      "channel": 1,
      "note": 53,
      "start": 109.5756,
      "duration": 0.0986,
      "velocity": 127,
      "chip": "ym2612"
    },
    {
      "channel": 1,
      "note": 53,
      "start": 109.7412,
      "duration": 0.0986,
      "velocity": 127,
      "chip": "ym2612"
    },
    {
      "channel": 1,
      "note": 53,
      "start": 109.9067,
      "duration": 0.0986,
      "velocity": 127,
      "chip": "ym2612"
    },
    {
      "channel": 1,
      "note": 53,
      "start": 110.0723,
      "duration": 0.0985,
      "velocity": 127,
      "chip": "ym2612"
    },
    {
      "channel": 1,
      "note": 53,
      "start": 110.2378,
      "duration": 0.0985,
      "velocity": 127,
      "chip": "ym2612"
    },
    {
      "channel": 1,
      "note": 53,
      "start": 110.4032,
      "duration": 0.0986,
      "velocity": 127,
      "chip": "ym2612"
    },
    {
      "channel": 1,
      "note": 53,
      "start": 110.5688,
      "duration": 0.0986,
      "velocity": 127,
      "chip": "ym2612"
    },
    {
      "channel": 1,
      "note": 53,
      "start": 110.7343,
      "duration": 0.0986,
      "velocity": 127,
      "chip": "ym2612"
    },
    {
      "channel": 1,
      "note": 53,
      "start": 110.8998,
      "duration": 0.0986,
      "velocity": 127,
      "chip": "ym2612"
    },
    {
      "channel": 1,
      "note": 53,
      "start": 111.0653,
      "duration": 0.0986,
      "velocity": 127,
      "chip": "ym2612"
    },
    {
      "channel": 0,
      "note": 48,
      "start": 111.2305,
      "duration": 0.1643,
      "velocity": 85,
      "chip": "ym2612"
    },
    {
      "channel": 1,
      "note": 29,
      "start": 111.2317,
      "duration": 0.1639,
      "velocity": 1,
      "chip": "ym2612"
    },
    {
      "channel": 2,
      "note": 53,
      "start": 111.2324,
      "duration": 0.0976,
      "velocity": 1,
      "chip": "ym2612"
    },
    {
      "channel": 4,
      "note": 53,
      "start": 111.2335,
      "duration": 0.0975,
      "velocity": 1,
      "chip": "ym2612"
    },
    {
      "channel": 5,
      "note": 53,
      "start": 111.2341,
      "duration": 0.0974,
      "velocity": 1,
      "chip": "ym2612"
    },
    {
      "channel": 0,
      "note": 49,
      "start": 111.3955,
      "duration": 0.1649,
      "velocity": 87,
      "chip": "ym2612"
    },
    {
      "channel": 1,
      "note": 29,
      "start": 111.3961,
      "duration": 0.165,
      "velocity": 1,
      "chip": "ym2612"
    },
    {
      "channel": 0,
      "note": 51,
      "start": 111.561,
      "duration": 0.1649,
      "velocity": 86,
      "chip": "ym2612"
    },
    {
      "channel": 1,
      "note": 18,
      "start": 111.5622,
      "duration": 0.1482,
      "velocity": 127,
      "chip": "ym2612"
    },
    {
      "channel": 0,
      "note": 53,
      "start": 111.7265,
      "duration": 0.1649,
      "velocity": 85,
      "chip": "ym2612"
    },
    {
      "channel": 1,
      "note": 29,
      "start": 111.7277,
      "duration": 0.1644,
      "velocity": 1,
      "chip": "ym2612"
    },
    {
      "channel": 0,
      "note": 51,
      "start": 111.8921,
      "duration": 0.1649,
      "velocity": 84,
      "chip": "ym2612"
    },
    {
      "channel": 1,
      "note": 29,
      "start": 111.8927,
      "duration": 0.165,
      "velocity": 1,
      "chip": "ym2612"
    },
    {
      "channel": 3,
      "note": 17,
      "start": 111.8944,
      "duration": 0.1148,
      "velocity": 127,
      "chip": "ym2612"
    },
    {
      "channel": 0,
      "note": 49,
      "start": 112.0576,
      "duration": 0.1649,
      "velocity": 83,
      "chip": "ym2612"
    },
    {
      "channel": 1,
      "note": 18,
      "start": 112.0588,
      "duration": 0.1481,
      "velocity": 127,
      "chip": "ym2612"
    },
    {
      "channel": 0,
      "note": 48,
      "start": 112.2231,
      "duration": 0.1649,
      "velocity": 82,
      "chip": "ym2612"
    },
    {
      "channel": 1,
      "note": 29,
      "start": 112.2243,
      "duration": 0.1645,
      "velocity": 1,
      "chip": "ym2612"
    },
    {
      "channel": 0,
      "note": 49,
      "start": 112.3886,
      "duration": 0.1649,
      "velocity": 81,
      "chip": "ym2612"
    },
    {
      "channel": 1,
      "note": 29,
      "start": 112.3893,
      "duration": 0.1651,
      "velocity": 1,
      "chip": "ym2612"
    },
    {
      "channel": 0,
      "note": 48,
      "start": 112.5542,
      "duration": 0.1648,
      "velocity": 80,
      "chip": "ym2612"
    },
    {
      "channel": 1,
      "note": 29,
      "start": 112.5548,
      "duration": 0.165,
      "velocity": 1,
      "chip": "ym2612"
    },
    {
      "channel": 0,
      "note": 49,
      "start": 112.7197,
      "duration": 0.1649,
      "velocity": 81,
      "chip": "ym2612"
    },
    {
      "channel": 1,
      "note": 29,
      "start": 112.7204,
      "duration": 0.1649,
      "velocity": 1,
      "chip": "ym2612"
    },
    {
      "channel": 0,
      "note": 51,
      "start": 112.8852,
      "duration": 0.1649,
      "velocity": 82,
      "chip": "ym2612"
    },
    {
      "channel": 1,
      "note": 18,
      "start": 112.8864,
      "duration": 0.1481,
      "velocity": 127,
      "chip": "ym2612"
    },
    {
      "channel": 0,
      "note": 53,
      "start": 113.0507,
      "duration": 0.1649,
      "velocity": 83,
      "chip": "ym2612"
    },
    {
      "channel": 1,
      "note": 29,
      "start": 113.0519,
      "duration": 0.1645,
      "velocity": 1,
      "chip": "ym2612"
    },
    {
      "channel": 0,
      "note": 51,
      "start": 113.2162,
      "duration": 0.1649,
      "velocity": 84,
      "chip": "ym2612"
    },
    {
      "channel": 1,
      "note": 29,
      "start": 113.2169,
      "duration": 0.165,
      "velocity": 1,
      "chip": "ym2612"
    },
    {
      "channel": 3,
      "note": 17,
      "start": 113.218,
      "duration": 0.1154,
      "velocity": 127,
      "chip": "ym2612"
    },
    {
      "channel": 0,
      "note": 49,
      "start": 113.3817,
      "duration": 0.1649,
      "velocity": 85,
      "chip": "ym2612"
    },
    {
      "channel": 1,
      "note": 18,
      "start": 113.3829,
      "duration": 0.1481,
      "velocity": 127,
      "chip": "ym2612"
    },
    {
      "channel": 0,
      "note": 48,
      "start": 113.5473,
      "duration": 0.1649,
      "velocity": 86,
      "chip": "ym2612"
    },
    {
      "channel": 1,
      "note": 29,
      "start": 113.5485,
      "duration": 0.1645,
      "velocity": 1,
      "chip": "ym2612"
    },
    {
      "channel": 0,
      "note": 46,
      "start": 113.7128,
      "duration": 0.1649,
      "velocity": 87,
      "chip": "ym2612"
    },
    {
      "channel": 1,
      "note": 29,
      "start": 113.7134,
      "duration": 0.1651,
      "velocity": 1,
      "chip": "ym2612"
    },
    {
      "channel": 0,
      "note": 48,
      "start": 113.8783,
      "duration": 0.1649,
      "velocity": 85,
      "chip": "ym2612"
    },
    {
      "channel": 1,
      "note": 29,
      "start": 113.879,
      "duration": 0.1651,
      "velocity": 1,
      "chip": "ym2612"
    },
    {
      "channel": 2,
      "note": 53,
      "start": 113.8796,
      "duration": 0.0988,
      "velocity": 1,
      "chip": "ym2612"
    },
    {
      "channel": 4,
      "note": 53,
      "start": 113.8807,
      "duration": 0.0987,
      "velocity": 1,
      "chip": "ym2612"
    },
    {
      "channel": 5,
      "note": 53,
      "start": 113.8814,
      "duration": 0.0986,
      "velocity": 1,
      "chip": "ym2612"
    },
    {
      "channel": 0,
      "note": 49,
      "start": 114.0438,
      "duration": 0.1649,
      "velocity": 87,
      "chip": "ym2612"
    },
    {
      "channel": 1,
      "note": 29,
      "start": 114.0445,
      "duration": 0.1651,
      "velocity": 1,
      "chip": "ym2612"
    },
    {
      "channel": 0,
      "note": 51,
      "start": 114.2094,
      "duration": 0.1649,
      "velocity": 86,
      "chip": "ym2612"
    },
    {
      "channel": 1,
      "note": 18,
      "start": 114.2106,
      "duration": 0.1481,
      "velocity": 127,
      "chip": "ym2612"
    },
    {
      "channel": 0,
      "note": 53,
      "start": 114.3749,
      "duration": 0.1649,
      "velocity": 85,
      "chip": "ym2612"
    },
    {
      "channel": 1,
      "note": 29,
      "start": 114.3761,
      "duration": 0.1644,
      "velocity": 1,
      "chip": "ym2612"
    },
    {
      "channel": 0,
      "note": 51,
      "start": 114.5405,
      "duration": 0.1649,
      "velocity": 84,
      "chip": "ym2612"
    },
    {
      "channel": 1,
      "note": 29,
      "start": 114.5411,
      "duration": 0.165,
      "velocity": 1,
      "chip": "ym2612"
    },
    {
      "channel": 3,
      "note": 17,
      "start": 114.5422,
      "duration": 0.1154,
      "velocity": 127,
      "chip": "ym2612"
    },
    {
      "channel": 0,
      "note": 49,
      "start": 114.706,
      "duration": 0.1649,
      "velocity": 83,
      "chip": "ym2612"
    },
    {
      "channel": 1,
      "note": 18,
      "start": 114.7071,
      "duration": 0.1482,
      "velocity": 127,
      "chip": "ym2612"
    },
    {
      "channel": 0,
      "note": 48,
      "start": 114.8715,
      "duration": 0.1649,
      "velocity": 82,
      "chip": "ym2612"
    },
    {
      "channel": 1,
      "note": 29,
      "start": 114.8727,
      "duration": 0.1645,
      "velocity": 1,
      "chip": "ym2612"
    },
    {
      "channel": 0,
      "note": 49,
      "start": 115.037,
      "duration": 0.1649,
      "velocity": 81,
      "chip": "ym2612"
    },
    {
      "channel": 1,
      "note": 29,
      "start": 115.0377,
      "duration": 0.165,
      "velocity": 1,
      "chip": "ym2612"
    },
    {
      "channel": 0,
      "note": 48,
      "start": 115.2025,
      "duration": 0.1649,
      "velocity": 80,
      "chip": "ym2612"
    },
    {
      "channel": 1,
      "note": 29,
      "start": 115.2032,
      "duration": 0.165,
      "velocity": 1,
      "chip": "ym2612"
    },
    {
      "channel": 0,
      "note": 49,
      "start": 115.3681,
      "duration": 0.1649,
      "velocity": 81,
      "chip": "ym2612"
    },
    {
      "channel": 1,
      "note": 29,
      "start": 115.3687,
      "duration": 0.165,
      "velocity": 1,
      "chip": "ym2612"
    },
    {
      "channel": 0,
      "note": 51,
      "start": 115.5336,
      "duration": 0.1649,
      "velocity": 82,
      "chip": "ym2612"
    },
    {
      "channel": 1,
      "note": 18,
      "start": 115.5348,
      "duration": 0.1481,
      "velocity": 127,
      "chip": "ym2612"
    },
    {
      "channel": 0,
      "note": 53,
      "start": 115.6991,
      "duration": 0.1649,
      "velocity": 83,
      "chip": "ym2612"
    },
    {
      "channel": 1,
      "note": 29,
      "start": 115.7003,
      "duration": 0.1645,
      "velocity": 1,
      "chip": "ym2612"
    },
    {
      "channel": 0,
      "note": 51,
      "start": 115.8646,
      "duration": 0.1649,
      "velocity": 84,
      "chip": "ym2612"
    },
    {
      "channel": 1,
      "note": 29,
      "start": 115.8653,
      "duration": 0.165,
      "velocity": 1,
      "chip": "ym2612"
    },
    {
      "channel": 3,
      "note": 17,
      "start": 115.8664,
      "duration": 0.1154,
      "velocity": 127,
      "chip": "ym2612"
    },
    {
      "channel": 0,
      "note": 49,
      "start": 116.0302,
      "duration": 0.1649,
      "velocity": 85,
      "chip": "ym2612"
    },
    {
      "channel": 1,
      "note": 18,
      "start": 116.0314,
      "duration": 0.1481,
      "velocity": 127,
      "chip": "ym2612"
    },
    {
      "channel": 0,
      "note": 48,
      "start": 116.1957,
      "duration": 0.1649,
      "velocity": 86,
      "chip": "ym2612"
    },
    {
      "channel": 1,
      "note": 29,
      "start": 116.1969,
      "duration": 0.1645,
      "velocity": 1,
      "chip": "ym2612"
    },
    {
      "channel": 0,
      "note": 46,
      "start": 116.3612,
      "duration": 0.1649,
      "velocity": 87,
      "chip": "ym2612"
    },
    {
      "channel": 1,
      "note": 29,
      "start": 116.3618,
      "duration": 0.1651,
      "velocity": 1,
      "chip": "ym2612"
    },
    {
      "channel": 0,
      "note": 48,
      "start": 116.5267,
      "duration": 0.1649,
      "velocity": 85,
      "chip": "ym2612"
    },
    {
      "channel": 1,
      "note": 29,
      "start": 116.5274,
      "duration": 0.1651,
      "velocity": 1,
      "chip": "ym2612"
    },
    {
      "channel": 2,
      "note": 53,
      "start": 116.528,
      "duration": 0.0988,
      "velocity": 1,
      "chip": "ym2612"
    },
    {
      "channel": 4,
      "note": 53,
      "start": 116.5291,
      "duration": 0.0987,
      "velocity": 1,
      "chip": "ym2612"
    },
    {
      "channel": 5,
      "note": 53,
      "start": 116.5298,
      "duration": 0.0986,
      "velocity": 1,
      "chip": "ym2612"
    },
    {
      "channel": 0,
      "note": 49,
      "start": 116.6922,
      "duration": 0.1649,
      "velocity": 87,
      "chip": "ym2612"
    },
    {
      "channel": 1,
      "note": 29,
      "start": 116.6929,
      "duration": 0.165,
      "velocity": 1,
      "chip": "ym2612"
    },
    {
      "channel": 0,
      "note": 51,
      "start": 116.8578,
      "duration": 0.165,
      "velocity": 86,
      "chip": "ym2612"
    },
    {
      "channel": 1,
      "note": 18,
      "start": 116.859,
      "duration": 0.1481,
      "velocity": 127,
      "chip": "ym2612"
    },
    {
      "channel": 0,
      "note": 53,
      "start": 117.0233,
      "duration": 0.1649,
      "velocity": 85,
      "chip": "ym2612"
    },
    {
      "channel": 1,
      "note": 29,
      "start": 117.0245,
      "duration": 0.1645,
      "velocity": 1,
      "chip": "ym2612"
    },
    {
      "channel": 0,
      "note": 51,
      "start": 117.1888,
      "duration": 0.165,
      "velocity": 84,
      "chip": "ym2612"
    },
    {
      "channel": 1,
      "note": 29,
      "start": 117.1895,
      "duration": 0.1651,
      "velocity": 1,
      "chip": "ym2612"
    },
    {
      "channel": 3,
      "note": 17,
      "start": 117.1906,
      "duration": 0.1155,
      "velocity": 127,
      "chip": "ym2612"
    },
    {
      "channel": 0,
      "note": 49,
      "start": 117.3544,
      "duration": 0.1649,
      "velocity": 83,
      "chip": "ym2612"
    },
    {
      "channel": 1,
      "note": 18,
      "start": 117.3556,
      "duration": 0.1481,
      "velocity": 127,
      "chip": "ym2612"
    },
    {
      "channel": 0,
      "note": 48,
      "start": 117.5199,
      "duration": 0.1649,
      "velocity": 82,
      "chip": "ym2612"
    },
    {
      "channel": 1,
      "note": 29,
      "start": 117.5212,
      "duration": 0.1644,
      "velocity": 1,
      "chip": "ym2612"
    },
    {
      "channel": 0,
      "note": 49,
      "start": 117.6854,
      "duration": 0.1649,
      "velocity": 81,
      "chip": "ym2612"
    },
    {
      "channel": 1,
      "note": 29,
      "start": 117.6861,
      "duration": 0.165,
      "velocity": 1,
      "chip": "ym2612"
    },
    {
      "channel": 0,
      "note": 48,
      "start": 117.851,
      "duration": 0.1649,
      "velocity": 80,
      "chip": "ym2612"
    },
    {
      "channel": 1,
      "note": 29,
      "start": 117.8516,
      "duration": 0.165,
      "velocity": 1,
      "chip": "ym2612"
    },
    {
      "channel": 0,
      "note": 49,
      "start": 118.0165,
      "duration": 0.1649,
      "velocity": 81,
      "chip": "ym2612"
    },
    {
      "channel": 1,
      "note": 29,
      "start": 118.0171,
      "duration": 0.165,
      "velocity": 1,
      "chip": "ym2612"
    },
    {
      "channel": 0,
      "note": 51,
      "start": 118.182,
      "duration": 0.1649,
      "velocity": 82,
      "chip": "ym2612"
    },
    {
      "channel": 1,
      "note": 18,
      "start": 118.1832,
      "duration": 0.1481,
      "velocity": 127,
      "chip": "ym2612"
    },
    {
      "channel": 0,
      "note": 53,
      "start": 118.3475,
      "duration": 0.1649,
      "velocity": 83,
      "chip": "ym2612"
    },
    {
      "channel": 1,
      "note": 29,
      "start": 118.3487,
      "duration": 0.1645,
      "velocity": 1,
      "chip": "ym2612"
    },
    {
      "channel": 0,
      "note": 51,
      "start": 118.513,
      "duration": 0.1649,
      "velocity": 84,
      "chip": "ym2612"
    },
    {
      "channel": 1,
      "note": 29,
      "start": 118.5137,
      "duration": 0.165,
      "velocity": 1,
      "chip": "ym2612"
    },
    {
      "channel": 3,
      "note": 17,
      "start": 118.5148,
      "duration": 0.1154,
      "velocity": 127,
      "chip": "ym2612"
    },
    {
      "channel": 0,
      "note": 49,
      "start": 118.6786,
      "duration": 0.1649,
      "velocity": 85,
      "chip": "ym2612"
    },
    {
      "channel": 1,
      "note": 18,
      "start": 118.6798,
      "duration": 0.1481,
      "velocity": 127,
      "chip": "ym2612"
    },
    {
      "channel": 0,
      "note": 48,
      "start": 118.8441,
      "duration": 0.1649,
      "velocity": 86,
      "chip": "ym2612"
    },
    {
      "channel": 1,
      "note": 29,
      "start": 118.8453,
      "duration": 0.1645,
      "velocity": 1,
      "chip": "ym2612"
    },
    {
      "channel": 0,
      "note": 46,
      "start": 119.0096,
      "duration": 0.1649,
      "velocity": 87,
      "chip": "ym2612"
    },
    {
      "channel": 1,
      "note": 29,
      "start": 119.0102,
      "duration": 0.1651,
      "velocity": 1,
      "chip": "ym2612"
    },
    {
      "channel": 0,
      "note": 48,
      "start": 119.1751,
      "duration": 0.1649,
      "velocity": 85,
      "chip": "ym2612"
    },
    {
      "channel": 1,
      "note": 29,
      "start": 119.1758,
      "duration": 0.1651,
      "velocity": 1,
      "chip": "ym2612"
    },
    {
      "channel": 2,
      "note": 53,
      "start": 119.1764,
      "duration": 0.0988,
      "velocity": 1,
      "chip": "ym2612"
    },
    {
      "channel": 4,
      "note": 53,
      "start": 119.1776,
      "duration": 0.0987,
      "velocity": 1,
      "chip": "ym2612"
    },
    {
      "channel": 5,
      "note": 53,
      "start": 119.1782,
      "duration": 0.0985,
      "velocity": 1,
      "chip": "ym2612"
    },
    {
      "channel": 0,
      "note": 49,
      "start": 119.3407,
      "duration": 0.1649,
      "velocity": 87,
      "chip": "ym2612"
    },
    {
      "channel": 1,
      "note": 29,
      "start": 119.3413,
      "duration": 0.165,
      "velocity": 1,
      "chip": "ym2612"
    },
    {
      "channel": 0,
      "note": 51,
      "start": 119.5062,
      "duration": 0.1649,
      "velocity": 86,
      "chip": "ym2612"
    },
    {
      "channel": 1,
      "note": 18,
      "start": 119.5074,
      "duration": 0.1481,
      "velocity": 127,
      "chip": "ym2612"
    },
    {
      "channel": 0,
      "note": 53,
      "start": 119.6717,
      "duration": 0.1649,
      "velocity": 85,
      "chip": "ym2612"
    },
    {
      "channel": 1,
      "note": 29,
      "start": 119.6729,
      "duration": 0.1646,
      "velocity": 1,
      "chip": "ym2612"
    },
    {
      "channel": 0,
      "note": 51,
      "start": 119.8373,
      "duration": 0.1648,
      "velocity": 84,
      "chip": "ym2612"
    },
    {
      "channel": 1,
      "note": 29,
      "start": 119.8379,
      "duration": 0.1649,
      "velocity": 1,
      "chip": "ym2612"
    },
    {
      "channel": 3,
      "note": 17,
      "start": 119.8391,
      "duration": 0.1154,
      "velocity": 127,
      "chip": "ym2612"
    },
    {
      "channel": 0,
      "note": 49,
      "start": 120.0027,
      "duration": 0.1649,
      "velocity": 83,
      "chip": "ym2612"
    },
    {
      "channel": 1,
      "note": 18,
      "start": 120.004,
      "duration": 0.148,
      "velocity": 127,
      "chip": "ym2612"
    },
    {
      "channel": 0,
      "note": 48,
      "start": 120.1683,
      "duration": 0.165,
      "velocity": 82,
      "chip": "ym2612"
    },
    {
      "channel": 1,
      "note": 29,
      "start": 120.1695,
      "duration": 0.1645,
      "velocity": 1,
      "chip": "ym2612"
    },
    {
      "channel": 0,
      "note": 49,
      "start": 120.3338,
      "duration": 0.1649,
      "velocity": 81,
      "chip": "ym2612"
    },
    {
      "channel": 1,
      "note": 29,
      "start": 120.3344,
      "duration": 0.1651,
      "velocity": 1,
      "chip": "ym2612"
    },
    {
      "channel": 0,
      "note": 48,
      "start": 120.4994,
      "duration": 0.1649,
      "velocity": 80,
      "chip": "ym2612"
    },
    {
      "channel": 1,
      "note": 29,
      "start": 120.5,
      "duration": 0.165,
      "velocity": 1,
      "chip": "ym2612"
    },
    {
      "channel": 0,
      "note": 49,
      "start": 120.6649,
      "duration": 0.1649,
      "velocity": 81,
      "chip": "ym2612"
    },
    {
      "channel": 1,
      "note": 29,
      "start": 120.6655,
      "duration": 0.165,
      "velocity": 1,
      "chip": "ym2612"
    },
    {
      "channel": 0,
      "note": 51,
      "start": 120.8304,
      "duration": 0.1649,
      "velocity": 82,
      "chip": "ym2612"
    },
    {
      "channel": 1,
      "note": 18,
      "start": 120.8316,
      "duration": 0.1481,
      "velocity": 127,
      "chip": "ym2612"
    },
    {
      "channel": 0,
      "note": 53,
      "start": 120.9959,
      "duration": 0.1649,
      "velocity": 83,
      "chip": "ym2612"
    },
    {
      "channel": 1,
      "note": 29,
      "start": 120.9971,
      "duration": 0.1644,
      "velocity": 1,
      "chip": "ym2612"
    },
    {
      "channel": 0,
      "note": 51,
      "start": 121.1615,
      "duration": 0.1649,
      "velocity": 84,
      "chip": "ym2612"
    },
    {
      "channel": 1,
      "note": 29,
      "start": 121.1621,
      "duration": 0.165,
      "velocity": 1,
      "chip": "ym2612"
    },
    {
      "channel": 3,
      "note": 17,
      "start": 121.1632,
      "duration": 0.1154,
      "velocity": 127,
      "chip": "ym2612"
    },
    {
      "channel": 0,
      "note": 49,
      "start": 121.327,
      "duration": 0.1649,
      "velocity": 85,
      "chip": "ym2612"
    },
    {
      "channel": 1,
      "note": 18,
      "start": 121.3282,
      "duration": 0.1481,
      "velocity": 127,
      "chip": "ym2612"
    },
    {
      "channel": 0,
      "note": 48,
      "start": 121.4925,
      "duration": 0.1649,
      "velocity": 86,
      "chip": "ym2612"
    },
    {
      "channel": 1,
      "note": 29,
      "start": 121.4937,
      "duration": 0.1644,
      "velocity": 1,
      "chip": "ym2612"
    },
    {
      "channel": 0,
      "note": 46,
      "start": 121.658,
      "duration": 0.3304,
      "velocity": 88,
      "chip": "ym2612"
    },
    {
      "channel": 1,
      "note": 29,
      "start": 121.6587,
      "duration": 0.1648,
      "velocity": 1,
      "chip": "ym2612"
    },
    {
      "channel": 1,
      "note": 48,
      "start": 121.8247,
      "duration": 0.1645,
      "velocity": 80,
      "chip": "ym2612"
    },
    {
      "channel": 2,
      "note": 17,
      "start": 121.8261,
      "duration": 0.0978,
      "velocity": 114,
      "chip": "ym2612"
    },
    {
      "channel": 3,
      "note": 53,
      "start": 121.8274,
      "duration": 0.097,
      "velocity": 1,
      "chip": "ym2612"
    },
    {
      "channel": 4,
      "note": 53,
      "start": 121.828,
      "duration": 0.0969,
      "velocity": 1,
      "chip": "ym2612"
    },
    {
      "channel": 5,
      "note": 53,
      "start": 121.8287,
      "duration": 0.0968,
      "velocity": 1,
      "chip": "ym2612"
    },
    {
      "channel": 0,
      "note": 48,
      "start": 121.9891,
      "duration": 0.1649,
      "velocity": 64,
      "chip": "ym2612"
    },
    {
      "channel": 1,
      "note": 49,
      "start": 121.9898,
      "duration": 0.165,
      "velocity": 80,
      "chip": "ym2612"
    },
    {
      "channel": 2,
      "note": 29,
      "start": 121.9907,
      "duration": 0.0988,
      "velocity": 114,
      "chip": "ym2612"
    },
    {
      "channel": 0,
      "note": 49,
      "start": 122.1546,
      "duration": 0.1648,
      "velocity": 64,
      "chip": "ym2612"
    },
    {
      "channel": 1,
      "note": 51,
      "start": 122.1554,
      "duration": 0.1649,
      "velocity": 80,
      "chip": "ym2612"
    },
    {
      "channel": 2,
      "note": 17,
      "start": 122.1563,
      "duration": 0.0988,
      "velocity": 113,
      "chip": "ym2612"
    },
    {
      "channel": 0,
      "note": 51,
      "start": 122.3201,
      "duration": 0.1649,
      "velocity": 64,
      "chip": "ym2612"
    },
    {
      "channel": 1,
      "note": 53,
      "start": 122.3209,
      "duration": 0.1649,
      "velocity": 80,
      "chip": "ym2612"
    },
    {
      "channel": 2,
      "note": 17,
      "start": 122.3218,
      "duration": 0.0988,
      "velocity": 113,
      "chip": "ym2612"
    },
    {
      "channel": 0,
      "note": 53,
      "start": 122.4856,
      "duration": 0.1649,
      "velocity": 64,
      "chip": "ym2612"
    },
    {
      "channel": 1,
      "note": 51,
      "start": 122.4864,
      "duration": 0.1649,
      "velocity": 80,
      "chip": "ym2612"
    },
    {
      "channel": 2,
      "note": 29,
      "start": 122.4873,
      "duration": 0.0987,
      "velocity": 112,
      "chip": "ym2612"
    },
    {
      "channel": 0,
      "note": 51,
      "start": 122.6512,
      "duration": 0.1649,
      "velocity": 64,
      "chip": "ym2612"
    },
    {
      "channel": 1,
      "note": 49,
      "start": 122.652,
      "duration": 0.1649,
      "velocity": 80,
      "chip": "ym2612"
    },
    {
      "channel": 2,
      "note": 17,
      "start": 122.6528,
      "duration": 0.0988,
      "velocity": 112,
      "chip": "ym2612"
    },
    {
      "channel": 0,
      "note": 49,
      "start": 122.8167,
      "duration": 0.1649,
      "velocity": 64,
      "chip": "ym2612"
    },
    {
      "channel": 1,
      "note": 48,
      "start": 122.8175,
      "duration": 0.1649,
      "velocity": 80,
      "chip": "ym2612"
    },
    {
      "channel": 2,
      "note": 17,
      "start": 122.8183,
      "duration": 0.0988,
      "velocity": 111,
      "chip": "ym2612"
    },
    {
      "channel": 0,
      "note": 48,
      "start": 122.9822,
      "duration": 0.1649,
      "velocity": 64,
      "chip": "ym2612"
    },
    {
      "channel": 1,
      "note": 49,
      "start": 122.983,
      "duration": 0.1649,
      "velocity": 80,
      "chip": "ym2612"
    },
    {
      "channel": 2,
      "note": 29,
      "start": 122.9839,
      "duration": 0.0988,
      "velocity": 111,
      "chip": "ym2612"
    },
    {
      "channel": 0,
      "note": 49,
      "start": 123.1477,
      "duration": 0.1649,
      "velocity": 64,
      "chip": "ym2612"
    },
    {
      "channel": 1,
      "note": 48,
      "start": 123.1485,
      "duration": 0.1649,
      "velocity": 80,
      "chip": "ym2612"
    },
    {
      "channel": 2,
      "note": 17,
      "start": 123.1494,
      "duration": 0.0988,
      "velocity": 110,
      "chip": "ym2612"
    },
    {
      "channel": 0,
      "note": 48,
      "start": 123.3132,
      "duration": 0.1649,
      "velocity": 64,
      "chip": "ym2612"
    },
    {
      "channel": 1,
      "note": 49,
      "start": 123.3141,
      "duration": 0.1649,
      "velocity": 80,
      "chip": "ym2612"
    },
    {
      "channel": 2,
      "note": 29,
      "start": 123.3149,
      "duration": 0.0988,
      "velocity": 110,
      "chip": "ym2612"
    },
    {
      "channel": 0,
      "note": 49,
      "start": 123.4788,
      "duration": 0.1649,
      "velocity": 64,
      "chip": "ym2612"
    },
    {
      "channel": 1,
      "note": 51,
      "start": 123.4796,
      "duration": 0.1649,
      "velocity": 80,
      "chip": "ym2612"
    },
    {
      "channel": 2,
      "note": 17,
      "start": 123.4804,
      "duration": 0.0989,
      "velocity": 109,
      "chip": "ym2612"
    },
    {
      "channel": 0,
      "note": 51,
      "start": 123.6444,
      "duration": 0.1649,
      "velocity": 64,
      "chip": "ym2612"
    },
    {
      "channel": 1,
      "note": 53,
      "start": 123.6451,
      "duration": 0.1649,
      "velocity": 80,
      "chip": "ym2612"
    },
    {
      "channel": 2,
      "note": 17,
      "start": 123.6459,
      "duration": 0.0988,
      "velocity": 109,
      "chip": "ym2612"
    },
    {
      "channel": 0,
      "note": 53,
      "start": 123.8099,
      "duration": 0.1649,
      "velocity": 64,
      "chip": "ym2612"
    },
    {
      "channel": 1,
      "note": 51,
      "start": 123.8106,
      "duration": 0.1649,
      "velocity": 80,
      "chip": "ym2612"
    },
    {
      "channel": 2,
      "note": 29,
      "start": 123.8115,
      "duration": 0.0989,
      "velocity": 108,
      "chip": "ym2612"
    },
    {
      "channel": 0,
      "note": 51,
      "start": 123.9754,
      "duration": 0.1649,
      "velocity": 64,
      "chip": "ym2612"
    },
    {
      "channel": 1,
      "note": 49,
      "start": 123.9761,
      "duration": 0.1649,
      "velocity": 80,
      "chip": "ym2612"
    },
    {
      "channel": 2,
      "note": 17,
      "start": 123.977,
      "duration": 0.0988,
      "velocity": 108,
      "chip": "ym2612"
    },
    {
      "channel": 0,
      "note": 49,
      "start": 124.1409,
      "duration": 0.1649,
      "velocity": 64,
      "chip": "ym2612"
    },
    {
      "channel": 1,
      "note": 48,
      "start": 124.1417,
      "duration": 0.1649,
      "velocity": 80,
      "chip": "ym2612"
    },
    {
      "channel": 2,
      "note": 17,
      "start": 124.1425,
      "duration": 0.0989,
      "velocity": 107,
      "chip": "ym2612"
    },
    {
      "channel": 0,
      "note": 48,
      "start": 124.3064,
      "duration": 0.3304,
      "velocity": 88,
      "chip": "ym2612"
    },
    {
      "channel": 1,
      "note": 46,
      "start": 124.3072,
      "duration": 0.1648,
      "velocity": 80,
      "chip": "ym2612"
    },
    {
      "channel": 2,
      "note": 29,
      "start": 124.308,
      "duration": 0.0988,
      "velocity": 107,
      "chip": "ym2612"
    },
    {
      "channel": 1,
      "note": 48,
      "start": 124.4725,
      "duration": 0.1651,
      "velocity": 80,
      "chip": "ym2612"
    },
    {
      "channel": 2,
      "note": 17,
      "start": 124.4734,
      "duration": 0.099,
      "velocity": 106,
      "chip": "ym2612"
    },
    {
      "channel": 3,
      "note": 53,
      "start": 124.4741,
      "duration": 0.0988,
      "velocity": 1,
      "chip": "ym2612"
    },
    {
      "channel": 4,
      "note": 53,
      "start": 124.4747,
      "duration": 0.0987,
      "velocity": 1,
      "chip": "ym2612"
    },
    {
      "channel": 5,
      "note": 53,
      "start": 124.4753,
      "duration": 0.0986,
      "velocity": 1,
      "chip": "ym2612"
    },
    {
      "channel": 0,
      "note": 48,
      "start": 124.6375,
      "duration": 0.1648,
      "velocity": 64,
      "chip": "ym2612"
    },
    {
      "channel": 1,
      "note": 49,
      "start": 124.6383,
      "duration": 0.1649,
      "velocity": 80,
      "chip": "ym2612"
    },
    {
      "channel": 2,
      "note": 29,
      "start": 124.6391,
      "duration": 0.0989,
      "velocity": 106,
      "chip": "ym2612"
    },
    {
      "channel": 0,
      "note": 49,
      "start": 124.803,
      "duration": 0.1649,
      "velocity": 64,
      "chip": "ym2612"
    },
    {
      "channel": 1,
      "note": 51,
      "start": 124.8038,
      "duration": 0.1649,
      "velocity": 80,
      "chip": "ym2612"
    },
    {
      "channel": 2,
      "note": 17,
      "start": 124.8047,
      "duration": 0.0987,
      "velocity": 107,
      "chip": "ym2612"
    },
    {
      "channel": 0,
      "note": 51,
      "start": 124.9685,
      "duration": 0.1649,
      "velocity": 64,
      "chip": "ym2612"
    },
    {
      "channel": 1,
      "note": 53,
      "start": 124.9693,
      "duration": 0.1649,
      "velocity": 80,
      "chip": "ym2612"
    },
    {
      "channel": 2,
      "note": 17,
      "start": 124.9702,
      "duration": 0.0988,
      "velocity": 107,
      "chip": "ym2612"
    },
    {
      "channel": 0,
      "note": 53,
      "start": 125.134,
      "duration": 0.1649,
      "velocity": 64,
      "chip": "ym2612"
    },
    {
      "channel": 1,
      "note": 51,
      "start": 125.1348,
      "duration": 0.1649,
      "velocity": 80,
      "chip": "ym2612"
    },
    {
      "channel": 2,
      "note": 29,
      "start": 125.1357,
      "duration": 0.0988,
      "velocity": 108,
      "chip": "ym2612"
    },
    {
      "channel": 0,
      "note": 51,
      "start": 125.2996,
      "duration": 0.1649,
      "velocity": 64,
      "chip": "ym2612"
    },
    {
      "channel": 1,
      "note": 49,
      "start": 125.3003,
      "duration": 0.1649,
      "velocity": 80,
      "chip": "ym2612"
    },
    {
      "channel": 2,
      "note": 17,
      "start": 125.3012,
      "duration": 0.0988,
      "velocity": 108,
      "chip": "ym2612"
    },
    {
      "channel": 0,
      "note": 49,
      "start": 125.4651,
      "duration": 0.1649,
      "velocity": 64,
      "chip": "ym2612"
    },
    {
      "channel": 1,
      "note": 48,
      "start": 125.4659,
      "duration": 0.1649,
      "velocity": 80,
      "chip": "ym2612"
    },
    {
      "channel": 2,
      "note": 17,
      "start": 125.4667,
      "duration": 0.0988,
      "velocity": 109,
      "chip": "ym2612"
    },
    {
      "channel": 0,
      "note": 48,
      "start": 125.6306,
      "duration": 0.1649,
      "velocity": 64,
      "chip": "ym2612"
    },
    {
      "channel": 1,
      "note": 49,
      "start": 125.6314,
      "duration": 0.1649,
      "velocity": 80,
      "chip": "ym2612"
    },
    {
      "channel": 2,
      "note": 29,
      "start": 125.6323,
      "duration": 0.0988,
      "velocity": 109,
      "chip": "ym2612"
    },
    {
      "channel": 0,
      "note": 49,
      "start": 125.7961,
      "duration": 0.1649,
      "velocity": 64,
      "chip": "ym2612"
    },
    {
      "channel": 1,
      "note": 48,
      "start": 125.797,
      "duration": 0.1649,
      "velocity": 80,
      "chip": "ym2612"
    },
    {
      "channel": 2,
      "note": 17,
      "start": 125.7978,
      "duration": 0.0988,
      "velocity": 110,
      "chip": "ym2612"
    },
    {
      "channel": 0,
      "note": 48,
      "start": 125.9617,
      "duration": 0.1649,
      "velocity": 64,
      "chip": "ym2612"
    },
    {
      "channel": 1,
      "note": 49,
      "start": 125.9625,
      "duration": 0.1649,
      "velocity": 80,
      "chip": "ym2612"
    },
    {
      "channel": 2,
      "note": 29,
      "start": 125.9633,
      "duration": 0.0988,
      "velocity": 110,
      "chip": "ym2612"
    },
    {
      "channel": 0,
      "note": 49,
      "start": 126.1272,
      "duration": 0.1649,
      "velocity": 64,
      "chip": "ym2612"
    },
    {
      "channel": 1,
      "note": 51,
      "start": 126.128,
      "duration": 0.1649,
      "velocity": 80,
      "chip": "ym2612"
    },
    {
      "channel": 2,
      "note": 17,
      "start": 126.1288,
      "duration": 0.0988,
      "velocity": 111,
      "chip": "ym2612"
    },
    {
      "channel": 0,
      "note": 51,
      "start": 126.2927,
      "duration": 0.1649,
      "velocity": 64,
      "chip": "ym2612"
    },
    {
      "channel": 1,
      "note": 53,
      "start": 126.2935,
      "duration": 0.1649,
      "velocity": 80,
      "chip": "ym2612"
    },
    {
      "channel": 2,
      "note": 29,
      "start": 126.2944,
      "duration": 0.0988,
      "velocity": 111,
      "chip": "ym2612"
    },
    {
      "channel": 0,
      "note": 53,
      "start": 126.4582,
      "duration": 0.1649,
      "velocity": 64,
      "chip": "ym2612"
    },
    {
      "channel": 1,
      "note": 51,
      "start": 126.459,
      "duration": 0.1649,
      "velocity": 80,
      "chip": "ym2612"
    },
    {
      "channel": 2,
      "note": 29,
      "start": 126.4599,
      "duration": 0.0988,
      "velocity": 112,
      "chip": "ym2612"
    },
    {
      "channel": 0,
      "note": 51,
      "start": 126.6238,
      "duration": 0.1649,
      "velocity": 64,
      "chip": "ym2612"
    },
    {
      "channel": 1,
      "note": 49,
      "start": 126.6246,
      "duration": 0.1649,
      "velocity": 80,
      "chip": "ym2612"
    },
    {
      "channel": 2,
      "note": 17,
      "start": 126.6254,
      "duration": 0.0988,
      "velocity": 112,
      "chip": "ym2612"
    },
    {
      "channel": 0,
      "note": 49,
      "start": 126.7893,
      "duration": 0.1649,
      "velocity": 64,
      "chip": "ym2612"
    },
    {
      "channel": 1,
      "note": 48,
      "start": 126.7901,
      "duration": 0.1649,
      "velocity": 80,
      "chip": "ym2612"
    },
    {
      "channel": 2,
      "note": 29,
      "start": 126.7909,
      "duration": 0.0989,
      "velocity": 113,
      "chip": "ym2612"
    },
    {
      "channel": 0,
      "note": 48,
      "start": 126.9548,
      "duration": 0.1648,
      "velocity": 64,
      "chip": "ym2612"
    },
    {
      "channel": 1,
      "note": 46,
      "start": 126.9556,
      "duration": 0.1656,
      "velocity": 80,
      "chip": "ym2612"
    },
    {
      "channel": 2,
      "note": 29,
      "start": 126.9564,
      "duration": 0.0988,
      "velocity": 113,
      "chip": "ym2612"
    },
    {
      "channel": 0,
      "note": 17,
      "start": 127.1211,
      "duration": 0.0985,
      "velocity": 114,
      "chip": "ym2612"
    },
    {
      "channel": 1,
      "note": 29,
      "start": 127.1223,
      "duration": 0.1638,
      "velocity": 1,
      "chip": "ym2612"
    },
    {
      "channel": 2,
      "note": 17,
      "start": 127.1235,
      "duration": 0.1636,
      "velocity": 113,
      "chip": "ym2612"
    },
    {
      "channel": 3,
      "note": 44,
      "start": 127.1249,
      "duration": 0.1624,
      "velocity": 114,
      "chip": "ym2612"
    },
    {
      "channel": 4,
      "note": 53,
      "start": 127.1255,
      "duration": 0.0962,
      "velocity": 1,
      "chip": "ym2612"
    },
    {
      "channel": 5,
      "note": 53,
      "start": 127.1261,
      "duration": 0.0961,
      "velocity": 1,
      "chip": "ym2612"
    },
    {
      "channel": 0,
      "note": 29,
      "start": 127.2859,
      "duration": 0.0991,
      "velocity": 114,
      "chip": "ym2612"
    },
    {
      "channel": 1,
      "note": 29,
      "start": 127.2866,
      "duration": 0.165,
      "velocity": 1,
      "chip": "ym2612"
    },
    {
      "channel": 3,
      "note": 44,
      "start": 127.288,
      "duration": 0.1655,
      "velocity": 114,
      "chip": "ym2612"
    },
    {
      "channel": 0,
      "note": 17,
      "start": 127.4515,
      "duration": 0.0991,
      "velocity": 113,
      "chip": "ym2612"
    },
    {
      "channel": 1,
      "note": 18,
      "start": 127.4526,
      "duration": 0.1481,
      "velocity": 127,
      "chip": "ym2612"
    },
    {
      "channel": 2,
      "note": 17,
      "start": 127.4532,
      "duration": 0.1655,
      "velocity": 113,
      "chip": "ym2612"
    },
    {
      "channel": 3,
      "note": 44,
      "start": 127.4542,
      "duration": 0.1646,
      "velocity": 114,
      "chip": "ym2612"
    },
    {
      "channel": 0,
      "note": 17,
      "start": 127.617,
      "duration": 0.0992,
      "velocity": 113,
      "chip": "ym2612"
    },
    {
      "channel": 1,
      "note": 29,
      "start": 127.6182,
      "duration": 0.1644,
      "velocity": 1,
      "chip": "ym2612"
    },
    {
      "channel": 3,
      "note": 44,
      "start": 127.6195,
      "duration": 0.165,
      "velocity": 114,
      "chip": "ym2612"
    },
    {
      "channel": 0,
      "note": 29,
      "start": 127.7825,
      "duration": 0.0992,
      "velocity": 112,
      "chip": "ym2612"
    },
    {
      "channel": 1,
      "note": 29,
      "start": 127.7832,
      "duration": 0.165,
      "velocity": 1,
      "chip": "ym2612"
    },
    {
      "channel": 2,
      "note": 17,
      "start": 127.7844,
      "duration": 0.1148,
      "velocity": 127,
      "chip": "ym2612"
    },
    {
      "channel": 3,
      "note": 44,
      "start": 127.7857,
      "duration": 0.081,
      "velocity": 112,
      "chip": "ym2612"
    },
    {
      "channel": 0,
      "note": 17,
      "start": 127.948,
      "duration": 0.0992,
      "velocity": 112,
      "chip": "ym2612"
    },
    {
      "channel": 1,
      "note": 18,
      "start": 127.9493,
      "duration": 0.148,
      "velocity": 127,
      "chip": "ym2612"
    },
    {
      "channel": 3,
      "note": 44,
      "start": 127.9512,
      "duration": 0.1649,
      "velocity": 114,
      "chip": "ym2612"
    },
    {
      "channel": 0,
      "note": 17,
      "start": 128.1136,
      "duration": 0.0992,
      "velocity": 111,
      "chip": "ym2612"
    },
    {
      "channel": 1,
      "note": 29,
      "start": 128.1148,
      "duration": 0.1645,
      "velocity": 1,
      "chip": "ym2612"
    },
    {
      "channel": 2,
      "note": 17,
      "start": 128.116,
      "duration": 0.1639,
      "velocity": 113,
      "chip": "ym2612"
    },
    {
      "channel": 3,
      "note": 44,
      "start": 128.1169,
      "duration": 0.1637,
      "velocity": 114,
      "chip": "ym2612"
    },
    {
      "channel": 0,
      "note": 29,
      "start": 128.2791,
      "duration": 0.0992,
      "velocity": 111,
      "chip": "ym2612"
    },
    {
      "channel": 1,
      "note": 29,
      "start": 128.2797,
      "duration": 0.1651,
      "velocity": 1,
      "chip": "ym2612"
    },
    {
      "channel": 2,
      "note": 17,
      "start": 128.2803,
      "duration": 0.1654,
      "velocity": 113,
      "chip": "ym2612"
    },
    {
      "channel": 3,
      "note": 44,
      "start": 128.2812,
      "duration": 0.1648,
      "velocity": 114,
      "chip": "ym2612"
    },
    {
      "channel": 0,
      "note": 17,
      "start": 128.4446,
      "duration": 0.0992,
      "velocity": 110,
      "chip": "ym2612"
    },
    {
      "channel": 1,
      "note": 29,
      "start": 128.4452,
      "duration": 0.1651,
      "velocity": 1,
      "chip": "ym2612"
    },
    {
      "channel": 3,
      "note": 44,
      "start": 128.4466,
      "duration": 0.1648,
      "velocity": 114,
      "chip": "ym2612"
    },
    {
      "channel": 0,
      "note": 29,
      "start": 128.6101,
      "duration": 0.0992,
      "velocity": 110,
      "chip": "ym2612"
    },
    {
      "channel": 1,
      "note": 29,
      "start": 128.6107,
      "duration": 0.165,
      "velocity": 1,
      "chip": "ym2612"
    },
    {
      "channel": 3,
      "note": 44,
      "start": 128.6121,
      "duration": 0.1656,
      "velocity": 114,
      "chip": "ym2612"
    },
    {
      "channel": 0,
      "note": 17,
      "start": 128.7756,
      "duration": 0.0992,
      "velocity": 109,
      "chip": "ym2612"
    },
    {
      "channel": 1,
      "note": 18,
      "start": 128.7768,
      "duration": 0.1481,
      "velocity": 127,
      "chip": "ym2612"
    },
    {
      "channel": 2,
      "note": 17,
      "start": 128.7775,
      "duration": 0.1654,
      "velocity": 113,
      "chip": "ym2612"
    },
    {
      "channel": 3,
      "note": 44,
      "start": 128.7783,
      "duration": 0.1647,
      "velocity": 114,
      "chip": "ym2612"
    },
    {
      "channel": 0,
      "note": 17,
      "start": 128.9412,
      "duration": 0.0992,
      "velocity": 109,
      "chip": "ym2612"
    },
    {
      "channel": 1,
      "note": 29,
      "start": 128.9424,
      "duration": 0.1645,
      "velocity": 1,
      "chip": "ym2612"
    },
    {
      "channel": 3,
      "note": 44,
      "start": 128.9438,
      "duration": 0.165,
      "velocity": 114,
      "chip": "ym2612"
    },
    {
      "channel": 0,
      "note": 29,
      "start": 129.1067,
      "duration": 0.0992,
      "velocity": 108,
      "chip": "ym2612"
    },
    {
      "channel": 1,
      "note": 29,
      "start": 129.1073,
      "duration": 0.165,
      "velocity": 1,
      "chip": "ym2612"
    },
    {
      "channel": 2,
      "note": 17,
      "start": 129.1086,
      "duration": 0.1148,
      "velocity": 127,
      "chip": "ym2612"
    },
    {
      "channel": 3,
      "note": 44,
      "start": 129.1099,
      "duration": 0.081,
      "velocity": 112,
      "chip": "ym2612"
    },
    {
      "channel": 0,
      "note": 17,
      "start": 129.2722,
      "duration": 0.0992,
      "velocity": 108,
      "chip": "ym2612"
    },
    {
      "channel": 1,
      "note": 18,
      "start": 129.2734,
      "duration": 0.1481,
      "velocity": 127,
      "chip": "ym2612"
    },
    {
      "channel": 3,
      "note": 44,
      "start": 129.2754,
      "duration": 0.1643,
      "velocity": 114,
      "chip": "ym2612"
    },
    {
      "channel": 0,
      "note": 17,
      "start": 129.4378,
      "duration": 0.0991,
      "velocity": 107,
      "chip": "ym2612"
    },
    {
      "channel": 1,
      "note": 29,
      "start": 129.439,
      "duration": 0.1644,
      "velocity": 1,
      "chip": "ym2612"
    },
    {
      "channel": 3,
      "note": 44,
      "start": 129.4404,
      "duration": 0.1642,
      "velocity": 114,
      "chip": "ym2612"
    },
    {
      "channel": 0,
      "note": 29,
      "start": 129.6032,
      "duration": 0.0992,
      "velocity": 107,
      "chip": "ym2612"
    },
    {
      "channel": 1,
      "note": 29,
      "start": 129.6039,
      "duration": 0.165,
      "velocity": 1,
      "chip": "ym2612"
    },
    {
      "channel": 3,
      "note": 44,
      "start": 129.6054,
      "duration": 0.1655,
      "velocity": 114,
      "chip": "ym2612"
    },
    {
      "channel": 0,
      "note": 17,
      "start": 129.7688,
      "duration": 0.0991,
      "velocity": 106,
      "chip": "ym2612"
    },
    {
      "channel": 1,
      "note": 29,
      "start": 129.7695,
      "duration": 0.165,
      "velocity": 1,
      "chip": "ym2612"
    },
    {
      "channel": 2,
      "note": 17,
      "start": 129.7707,
      "duration": 0.1647,
      "velocity": 113,
      "chip": "ym2612"
    },
    {
      "channel": 3,
      "note": 44,
      "start": 129.7716,
      "duration": 0.1641,
      "velocity": 114,
      "chip": "ym2612"
    },
    {
      "channel": 4,
      "note": 53,
      "start": 129.7722,
      "duration": 0.0979,
      "velocity": 1,
      "chip": "ym2612"
    },
    {
      "channel": 5,
      "note": 53,
      "start": 129.7728,
      "duration": 0.0978,
      "velocity": 1,
      "chip": "ym2612"
    },
    {
      "channel": 0,
      "note": 29,
      "start": 129.9344,
      "duration": 0.0991,
      "velocity": 106,
      "chip": "ym2612"
    },
    {
      "channel": 1,
      "note": 29,
      "start": 129.935,
      "duration": 0.165,
      "velocity": 1,
      "chip": "ym2612"
    },
    {
      "channel": 3,
      "note": 44,
      "start": 129.9363,
      "duration": 0.1655,
      "velocity": 114,
      "chip": "ym2612"
    },
    {
      "channel": 0,
      "note": 17,
      "start": 130.0999,
      "duration": 0.0991,
      "velocity": 107,
      "chip": "ym2612"
    },
    {
      "channel": 1,
      "note": 18,
      "start": 130.101,
      "duration": 0.1481,
      "velocity": 127,
      "chip": "ym2612"
    },
    {
      "channel": 2,
      "note": 17,
      "start": 130.1017,
      "duration": 0.1655,
      "velocity": 113,
      "chip": "ym2612"
    },
    {
      "channel": 3,
      "note": 44,
      "start": 130.1025,
      "duration": 0.1647,
      "velocity": 114,
      "chip": "ym2612"
    },
    {
      "channel": 0,
      "note": 17,
      "start": 130.2654,
      "duration": 0.0991,
      "velocity": 107,
      "chip": "ym2612"
    },
    {
      "channel": 1,
      "note": 29,
      "start": 130.2666,
      "duration": 0.1644,
      "velocity": 1,
      "chip": "ym2612"
    },
    {
      "channel": 3,
      "note": 44,
      "start": 130.2679,
      "duration": 0.165,
      "velocity": 114,
      "chip": "ym2612"
    },
    {
      "channel": 0,
      "note": 29,
      "start": 130.4309,
      "duration": 0.0991,
      "velocity": 108,
      "chip": "ym2612"
    },
    {
      "channel": 1,
      "note": 29,
      "start": 130.4316,
      "duration": 0.165,
      "velocity": 1,
      "chip": "ym2612"
    },
    {
      "channel": 2,
      "note": 17,
      "start": 130.4328,
      "duration": 0.1148,
      "velocity": 127,
      "chip": "ym2612"
    },
    {
      "channel": 3,
      "note": 44,
      "start": 130.4341,
      "duration": 0.081,
      "velocity": 112,
      "chip": "ym2612"
    },
    {
      "channel": 0,
      "note": 17,
      "start": 130.5964,
      "duration": 0.0991,
      "velocity": 108,
      "chip": "ym2612"
    },
    {
      "channel": 1,
      "note": 18,
      "start": 130.5976,
      "duration": 0.148,
      "velocity": 127,
      "chip": "ym2612"
    },
    {
      "channel": 3,
      "note": 44,
      "start": 130.5996,
      "duration": 0.165,
      "velocity": 114,
      "chip": "ym2612"
    },
    {
      "channel": 0,
      "note": 17,
      "start": 130.762,
      "duration": 0.0992,
      "velocity": 109,
      "chip": "ym2612"
    },
    {
      "channel": 1,
      "note": 29,
      "start": 130.7632,
      "duration": 0.1645,
      "velocity": 1,
      "chip": "ym2612"
    },
    {
      "channel": 2,
      "note": 17,
      "start": 130.7644,
      "duration": 0.1639,
      "velocity": 113,
      "chip": "ym2612"
    },
    {
      "channel": 3,
      "note": 44,
      "start": 130.7653,
      "duration": 0.1637,
      "velocity": 114,
      "chip": "ym2612"
    },
    {
      "channel": 0,
      "note": 29,
      "start": 130.9275,
      "duration": 0.0992,
      "velocity": 109,
      "chip": "ym2612"
    },
    {
      "channel": 1,
      "note": 29,
      "start": 130.9281,
      "duration": 0.1651,
      "velocity": 1,
      "chip": "ym2612"
    },
    {
      "channel": 2,
      "note": 17,
      "start": 130.9288,
      "duration": 0.1654,
      "velocity": 113,
      "chip": "ym2612"
    },
    {
      "channel": 3,
      "note": 44,
      "start": 130.9296,
      "duration": 0.1648,
      "velocity": 114,
      "chip": "ym2612"
    },
    {
      "channel": 0,
      "note": 17,
      "start": 131.093,
      "duration": 0.0992,
      "velocity": 110,
      "chip": "ym2612"
    },
    {
      "channel": 1,
      "note": 29,
      "start": 131.0937,
      "duration": 0.1651,
      "velocity": 1,
      "chip": "ym2612"
    },
    {
      "channel": 3,
      "note": 44,
      "start": 131.095,
      "duration": 0.1648,
      "velocity": 114,
      "chip": "ym2612"
    },
    {
      "channel": 0,
      "note": 29,
      "start": 131.2585,
      "duration": 0.0992,
      "velocity": 110,
      "chip": "ym2612"
    },
    {
      "channel": 1,
      "note": 29,
      "start": 131.2592,
      "duration": 0.165,
      "velocity": 1,
      "chip": "ym2612"
    },
    {
      "channel": 3,
      "note": 44,
      "start": 131.2605,
      "duration": 0.1656,
      "velocity": 114,
      "chip": "ym2612"
    },
    {
      "channel": 0,
      "note": 17,
      "start": 131.4241,
      "duration": 0.0992,
      "velocity": 111,
      "chip": "ym2612"
    },
    {
      "channel": 1,
      "note": 18,
      "start": 131.4253,
      "duration": 0.1481,
      "velocity": 127,
      "chip": "ym2612"
    },
    {
      "channel": 2,
      "note": 17,
      "start": 131.4259,
      "duration": 0.1654,
      "velocity": 113,
      "chip": "ym2612"
    },
    {
      "channel": 3,
      "note": 44,
      "start": 131.4267,
      "duration": 0.1648,
      "velocity": 114,
      "chip": "ym2612"
    },
    {
      "channel": 0,
      "note": 29,
      "start": 131.5896,
      "duration": 0.0992,
      "velocity": 111,
      "chip": "ym2612"
    },
    {
      "channel": 1,
      "note": 29,
      "start": 131.5908,
      "duration": 0.1645,
      "velocity": 1,
      "chip": "ym2612"
    },
    {
      "channel": 3,
      "note": 44,
      "start": 131.5922,
      "duration": 0.1649,
      "velocity": 114,
      "chip": "ym2612"
    },
    {
      "channel": 0,
      "note": 29,
      "start": 131.7551,
      "duration": 0.0992,
      "velocity": 112,
      "chip": "ym2612"
    },
    {
      "channel": 1,
      "note": 29,
      "start": 131.7557,
      "duration": 0.1651,
      "velocity": 1,
      "chip": "ym2612"
    },
    {
      "channel": 2,
      "note": 17,
      "start": 131.757,
      "duration": 0.1148,
      "velocity": 127,
      "chip": "ym2612"
    },
    {
      "channel": 3,
      "note": 44,
      "start": 131.7583,
      "duration": 0.081,
      "velocity": 112,
      "chip": "ym2612"
    },
    {
      "channel": 0,
      "note": 17,
      "start": 131.9207,
      "duration": 0.0991,
      "velocity": 112,
      "chip": "ym2612"
    },
    {
      "channel": 1,
      "note": 18,
      "start": 131.9219,
      "duration": 0.148,
      "velocity": 127,
      "chip": "ym2612"
    },
    {
      "channel": 3,
      "note": 44,
      "start": 131.9239,
      "duration": 0.1643,
      "velocity": 114,
      "chip": "ym2612"
    },
    {
      "channel": 0,
      "note": 29,
      "start": 132.0861,
      "duration": 0.0992,
      "velocity": 113,
      "chip": "ym2612"
    },
    {
      "channel": 1,
      "note": 29,
      "start": 132.0874,
      "duration": 0.1644,
      "velocity": 1,
      "chip": "ym2612"
    },
    {
      "channel": 3,
      "note": 44,
      "start": 132.0888,
      "duration": 0.1642,
      "velocity": 114,
      "chip": "ym2612"
    },
    {
      "channel": 0,
      "note": 29,
      "start": 132.2517,
      "duration": 0.0992,
      "velocity": 113,
      "chip": "ym2612"
    },
    {
      "channel": 1,
      "note": 29,
      "start": 132.2523,
      "duration": 0.1651,
      "velocity": 1,
      "chip": "ym2612"
    },
    {
      "channel": 3,
      "note": 44,
      "start": 132.2538,
      "duration": 0.1654,
      "velocity": 114,
      "chip": "ym2612"
    },
    {
      "channel": 0,
      "note": 17,
      "start": 132.4172,
      "duration": 0.0992,
      "velocity": 114,
      "chip": "ym2612"
    },
    {
      "channel": 1,
      "note": 29,
      "start": 132.4178,
      "duration": 0.1651,
      "velocity": 1,
      "chip": "ym2612"
    },
    {
      "channel": 2,
      "note": 17,
      "start": 132.419,
      "duration": 0.1648,
      "velocity": 113,
      "chip": "ym2612"
    },
    {
      "channel": 3,
      "note": 44,
      "start": 132.4199,
      "duration": 0.1641,
      "velocity": 114,
      "chip": "ym2612"
    },
    {
      "channel": 4,
      "note": 53,
      "start": 132.4206,
      "duration": 0.0978,
      "velocity": 1,
      "chip": "ym2612"
    },
    {
      "channel": 5,
      "note": 53,
      "start": 132.4212,
      "duration": 0.0977,
      "velocity": 1,
      "chip": "ym2612"
    },
    {
      "channel": 0,
      "note": 29,
      "start": 132.5827,
      "duration": 0.0992,
      "velocity": 114,
      "chip": "ym2612"
    },
    {
      "channel": 1,
      "note": 29,
      "start": 132.5834,
      "duration": 0.1649,
      "velocity": 1,
      "chip": "ym2612"
    },
    {
      "channel": 3,
      "note": 44,
      "start": 132.5847,
      "duration": 0.1655,
      "velocity": 114,
      "chip": "ym2612"
    },
    {
      "channel": 0,
      "note": 17,
      "start": 132.7482,
      "duration": 0.0992,
      "velocity": 113,
      "chip": "ym2612"
    },
    {
      "channel": 1,
      "note": 18,
      "start": 132.7494,
      "duration": 0.1481,
      "velocity": 127,
      "chip": "ym2612"
    },
    {
      "channel": 2,
      "note": 17,
      "start": 132.7501,
      "duration": 0.1655,
      "velocity": 113,
      "chip": "ym2612"
    },
    {
      "channel": 3,
      "note": 44,
      "start": 132.7509,
      "duration": 0.1648,
      "velocity": 114,
      "chip": "ym2612"
    },
    {
      "channel": 0,
      "note": 17,
      "start": 132.9138,
      "duration": 0.0991,
      "velocity": 113,
      "chip": "ym2612"
    },
    {
      "channel": 1,
      "note": 29,
      "start": 132.915,
      "duration": 0.1644,
      "velocity": 1,
      "chip": "ym2612"
    },
    {
      "channel": 3,
      "note": 44,
      "start": 132.9163,
      "duration": 0.165,
      "velocity": 114,
      "chip": "ym2612"
    },
    {
      "channel": 0,
      "note": 29,
      "start": 133.0793,
      "duration": 0.0991,
      "velocity": 112,
      "chip": "ym2612"
    },
    {
      "channel": 1,
      "note": 29,
      "start": 133.08,
      "duration": 0.165,
      "velocity": 1,
      "chip": "ym2612"
    },
    {
      "channel": 2,
      "note": 17,
      "start": 133.0812,
      "duration": 0.1147,
      "velocity": 127,
      "chip": "ym2612"
    },
    {
      "channel": 3,
      "note": 44,
      "start": 133.0825,
      "duration": 0.081,
      "velocity": 112,
      "chip": "ym2612"
    },
    {
      "channel": 0,
      "note": 17,
      "start": 133.2449,
      "duration": 0.0991,
      "velocity": 112,
      "chip": "ym2612"
    },
    {
      "channel": 1,
      "note": 18,
      "start": 133.246,
      "duration": 0.1481,
      "velocity": 127,
      "chip": "ym2612"
    },
    {
      "channel": 3,
      "note": 44,
      "start": 133.248,
      "duration": 0.165,
      "velocity": 114,
      "chip": "ym2612"
    },
    {
      "channel": 0,
      "note": 17,
      "start": 133.4104,
      "duration": 0.0991,
      "velocity": 111,
      "chip": "ym2612"
    },
    {
      "channel": 1,
      "note": 29,
      "start": 133.4116,
      "duration": 0.1644,
      "velocity": 1,
      "chip": "ym2612"
    },
    {
      "channel": 2,
      "note": 17,
      "start": 133.4128,
      "duration": 0.1639,
      "velocity": 113,
      "chip": "ym2612"
    },
    {
      "channel": 3,
      "note": 44,
      "start": 133.4136,
      "duration": 0.1637,
      "velocity": 114,
      "chip": "ym2612"
    },
    {
      "channel": 0,
      "note": 29,
      "start": 133.5759,
      "duration": 0.0991,
      "velocity": 111,
      "chip": "ym2612"
    },
    {
      "channel": 1,
      "note": 29,
      "start": 133.5765,
      "duration": 0.165,
      "velocity": 1,
      "chip": "ym2612"
    },
    {
      "channel": 2,
      "note": 17,
      "start": 133.5772,
      "duration": 0.1654,
      "velocity": 113,
      "chip": "ym2612"
    },
    {
      "channel": 3,
      "note": 44,
      "start": 133.578,
      "duration": 0.1647,
      "velocity": 114,
      "chip": "ym2612"
    },
    {
      "channel": 0,
      "note": 17,
      "start": 133.7414,
      "duration": 0.0992,
      "velocity": 110,
      "chip": "ym2612"
    },
    {
      "channel": 1,
      "note": 29,
      "start": 133.7421,
      "duration": 0.165,
      "velocity": 1,
      "chip": "ym2612"
    },
    {
      "channel": 3,
      "note": 44,
      "start": 133.7434,
      "duration": 0.1648,
      "velocity": 114,
      "chip": "ym2612"
    },
    {
      "channel": 0,
      "note": 29,
      "start": 133.9069,
      "duration": 0.0992,
      "velocity": 110,
      "chip": "ym2612"
    },
    {
      "channel": 1,
      "note": 29,
      "start": 133.9076,
      "duration": 0.165,
      "velocity": 1,
      "chip": "ym2612"
    },
    {
      "channel": 3,
      "note": 44,
      "start": 133.9089,
      "duration": 0.1656,
      "velocity": 114,
      "chip": "ym2612"
    },
    {
      "channel": 0,
      "note": 17,
      "start": 134.0724,
      "duration": 0.0992,
      "velocity": 109,
      "chip": "ym2612"
    },
    {
      "channel": 1,
      "note": 18,
      "start": 134.0737,
      "duration": 0.1481,
      "velocity": 127,
      "chip": "ym2612"
    },
    {
      "channel": 2,
      "note": 17,
      "start": 134.0743,
      "duration": 0.1655,
      "velocity": 113,
      "chip": "ym2612"
    },
    {
      "channel": 3,
      "note": 44,
      "start": 134.0751,
      "duration": 0.1648,
      "velocity": 114,
      "chip": "ym2612"
    },
    {
      "channel": 0,
      "note": 17,
      "start": 134.238,
      "duration": 0.0991,
      "velocity": 109,
      "chip": "ym2612"
    },
    {
      "channel": 1,
      "note": 29,
      "start": 134.2393,
      "duration": 0.1645,
      "velocity": 1,
      "chip": "ym2612"
    },
    {
      "channel": 3,
      "note": 44,
      "start": 134.2406,
      "duration": 0.165,
      "velocity": 114,
      "chip": "ym2612"
    },
    {
      "channel": 0,
      "note": 29,
      "start": 134.4035,
      "duration": 0.0992,
      "velocity": 108,
      "chip": "ym2612"
    },
    {
      "channel": 1,
      "note": 29,
      "start": 134.4042,
      "duration": 0.165,
      "velocity": 1,
      "chip": "ym2612"
    },
    {
      "channel": 2,
      "note": 17,
      "start": 134.4055,
      "duration": 0.1148,
      "velocity": 127,
      "chip": "ym2612"
    },
    {
      "channel": 3,
      "note": 44,
      "start": 134.4068,
      "duration": 0.081,
      "velocity": 112,
      "chip": "ym2612"
    },
    {
      "channel": 0,
      "note": 17,
      "start": 134.569,
      "duration": 0.0992,
      "velocity": 108,
      "chip": "ym2612"
    },
    {
      "channel": 1,
      "note": 18,
      "start": 134.5703,
      "duration": 0.148,
      "velocity": 127,
      "chip": "ym2612"
    },
    {
      "channel": 3,
      "note": 44,
      "start": 134.5723,
      "duration": 0.1642,
      "velocity": 114,
      "chip": "ym2612"
    },
    {
      "channel": 0,
      "note": 17,
      "start": 134.7346,
      "duration": 0.0992,
      "velocity": 107,
      "chip": "ym2612"
    },
    {
      "channel": 1,
      "note": 29,
      "start": 134.7358,
      "duration": 0.1645,
      "velocity": 1,
      "chip": "ym2612"
    },
    {
      "channel": 3,
      "note": 44,
      "start": 134.7372,
      "duration": 0.1642,
      "velocity": 114,
      "chip": "ym2612"
    },
    {
      "channel": 0,
      "note": 29,
      "start": 134.9001,
      "duration": 0.0992,
      "velocity": 107,
      "chip": "ym2612"
    },
    {
      "channel": 1,
      "note": 29,
      "start": 134.9007,
      "duration": 0.1651,
      "velocity": 1,
      "chip": "ym2612"
    },
    {
      "channel": 3,
      "note": 44,
      "start": 134.9021,
      "duration": 0.1655,
      "velocity": 114,
      "chip": "ym2612"
    },
    {
      "channel": 0,
      "note": 17,
      "start": 135.0656,
      "duration": 0.0992,
      "velocity": 106,
      "chip": "ym2612"
    },
    {
      "channel": 1,
      "note": 29,
      "start": 135.0662,
      "duration": 0.1651,
      "velocity": 1,
      "chip": "ym2612"
    },
    {
      "channel": 2,
      "note": 17,
      "start": 135.0674,
      "duration": 0.1648,
      "velocity": 113,
      "chip": "ym2612"
    },
    {
      "channel": 3,
      "note": 44,
      "start": 135.0683,
      "duration": 0.1641,
      "velocity": 114,
      "chip": "ym2612"
    },
    {
      "channel": 4,
      "note": 53,
      "start": 135.069,
      "duration": 0.0979,
      "velocity": 1,
      "chip": "ym2612"
    },
    {
      "channel": 5,
      "note": 53,
      "start": 135.0696,
      "duration": 0.0978,
      "velocity": 1,
      "chip": "ym2612"
    },
    {
      "channel": 0,
      "note": 29,
      "start": 135.2311,
      "duration": 0.0992,
      "velocity": 106,
      "chip": "ym2612"
    },
    {
      "channel": 1,
      "note": 29,
      "start": 135.2317,
      "duration": 0.165,
      "velocity": 1,
      "chip": "ym2612"
    },
    {
      "channel": 3,
      "note": 44,
      "start": 135.2332,
      "duration": 0.1655,
      "velocity": 114,
      "chip": "ym2612"
    },
    {
      "channel": 0,
      "note": 17,
      "start": 135.3966,
      "duration": 0.0992,
      "velocity": 107,
      "chip": "ym2612"
    },
    {
      "channel": 1,
      "note": 18,
      "start": 135.3978,
      "duration": 0.1481,
      "velocity": 127,
      "chip": "ym2612"
    },
    {
      "channel": 2,
      "note": 17,
      "start": 135.3985,
      "duration": 0.1654,
      "velocity": 113,
      "chip": "ym2612"
    },
    {
      "channel": 3,
      "note": 44,
      "start": 135.3993,
      "duration": 0.1648,
      "velocity": 114,
      "chip": "ym2612"
    },
    {
      "channel": 0,
      "note": 17,
      "start": 135.5622,
      "duration": 0.0992,
      "velocity": 107,
      "chip": "ym2612"
    },
    {
      "channel": 1,
      "note": 29,
      "start": 135.5634,
      "duration": 0.1644,
      "velocity": 1,
      "chip": "ym2612"
    },
    {
      "channel": 3,
      "note": 44,
      "start": 135.5648,
      "duration": 0.165,
      "velocity": 114,
      "chip": "ym2612"
    },
    {
      "channel": 0,
      "note": 29,
      "start": 135.7277,
      "duration": 0.0992,
      "velocity": 108,
      "chip": "ym2612"
    },
    {
      "channel": 1,
      "note": 29,
      "start": 135.7284,
      "duration": 0.165,
      "velocity": 1,
      "chip": "ym2612"
    },
    {
      "channel": 2,
      "note": 17,
      "start": 135.7296,
      "duration": 0.1148,
      "velocity": 127,
      "chip": "ym2612"
    },
    {
      "channel": 3,
      "note": 44,
      "start": 135.7309,
      "duration": 0.0809,
      "velocity": 112,
      "chip": "ym2612"
    },
    {
      "channel": 0,
      "note": 17,
      "start": 135.8932,
      "duration": 0.0992,
      "velocity": 108,
      "chip": "ym2612"
    },
    {
      "channel": 1,
      "note": 18,
      "start": 135.8944,
      "duration": 0.1481,
      "velocity": 127,
      "chip": "ym2612"
    },
    {
      "channel": 3,
      "note": 44,
      "start": 135.8964,
      "duration": 0.165,
      "velocity": 114,
      "chip": "ym2612"
    },
    {
      "channel": 0,
      "note": 17,
      "start": 136.0588,
      "duration": 0.0991,
      "velocity": 109,
      "chip": "ym2612"
    },
    {
      "channel": 1,
      "note": 29,
      "start": 136.06,
      "duration": 0.1644,
      "velocity": 1,
      "chip": "ym2612"
    },
    {
      "channel": 2,
      "note": 17,
      "start": 136.0612,
      "duration": 0.1639,
      "velocity": 113,
      "chip": "ym2612"
    },
    {
      "channel": 3,
      "note": 44,
      "start": 136.062,
      "duration": 0.1637,
      "velocity": 114,
      "chip": "ym2612"
    },
    {
      "channel": 0,
      "note": 29,
      "start": 136.2243,
      "duration": 0.0991,
      "velocity": 109,
      "chip": "ym2612"
    },
    {
      "channel": 1,
      "note": 29,
      "start": 136.2249,
      "duration": 0.165,
      "velocity": 1,
      "chip": "ym2612"
    },
    {
      "channel": 2,
      "note": 17,
      "start": 136.2256,
      "duration": 0.1653,
      "velocity": 113,
      "chip": "ym2612"
    },
    {
      "channel": 3,
      "note": 44,
      "start": 136.2264,
      "duration": 0.1647,
      "velocity": 114,
      "chip": "ym2612"
    },
    {
      "channel": 0,
      "note": 17,
      "start": 136.3898,
      "duration": 0.0991,
      "velocity": 110,
      "chip": "ym2612"
    },
    {
      "channel": 1,
      "note": 29,
      "start": 136.3905,
      "duration": 0.165,
      "velocity": 1,
      "chip": "ym2612"
    },
    {
      "channel": 3,
      "note": 44,
      "start": 136.3918,
      "duration": 0.1648,
      "velocity": 114,
      "chip": "ym2612"
    },
    {
      "channel": 0,
      "note": 29,
      "start": 136.5554,
      "duration": 0.0992,
      "velocity": 110,
      "chip": "ym2612"
    },
    {
      "channel": 1,
      "note": 29,
      "start": 136.556,
      "duration": 0.165,
      "velocity": 1,
      "chip": "ym2612"
    },
    {
      "channel": 3,
      "note": 44,
      "start": 136.5573,
      "duration": 0.1656,
      "velocity": 114,
      "chip": "ym2612"
    },
    {
      "channel": 0,
      "note": 17,
      "start": 136.7209,
      "duration": 0.0991,
      "velocity": 111,
      "chip": "ym2612"
    },
    {
      "channel": 1,
      "note": 18,
      "start": 136.7221,
      "duration": 0.148,
      "velocity": 127,
      "chip": "ym2612"
    },
    {
      "channel": 2,
      "note": 17,
      "start": 136.7227,
      "duration": 0.1654,
      "velocity": 113,
      "chip": "ym2612"
    },
    {
      "channel": 3,
      "note": 44,
      "start": 136.7236,
      "duration": 0.1647,
      "velocity": 114,
      "chip": "ym2612"
    },
    {
      "channel": 0,
      "note": 29,
      "start": 136.8864,
      "duration": 0.0991,
      "velocity": 111,
      "chip": "ym2612"
    },
    {
      "channel": 1,
      "note": 29,
      "start": 136.8877,
      "duration": 0.1644,
      "velocity": 1,
      "chip": "ym2612"
    },
    {
      "channel": 3,
      "note": 44,
      "start": 136.889,
      "duration": 0.165,
      "velocity": 114,
      "chip": "ym2612"
    },
    {
      "channel": 0,
      "note": 29,
      "start": 137.0519,
      "duration": 0.0992,
      "velocity": 112,
      "chip": "ym2612"
    },
    {
      "channel": 1,
      "note": 29,
      "start": 137.0525,
      "duration": 0.165,
      "velocity": 1,
      "chip": "ym2612"
    },
    {
      "channel": 2,
      "note": 17,
      "start": 137.0538,
      "duration": 0.1147,
      "velocity": 127,
      "chip": "ym2612"
    },
    {
      "channel": 3,
      "note": 44,
      "start": 137.0551,
      "duration": 0.0809,
      "velocity": 112,
      "chip": "ym2612"
    },
    {
      "channel": 0,
      "note": 17,
      "start": 137.2174,
      "duration": 0.0992,
      "velocity": 112,
      "chip": "ym2612"
    },
    {
      "channel": 1,
      "note": 18,
      "start": 137.2186,
      "duration": 0.148,
      "velocity": 127,
      "chip": "ym2612"
    },
    {
      "channel": 3,
      "note": 44,
      "start": 137.2207,
      "duration": 0.1642,
      "velocity": 114,
      "chip": "ym2612"
    },
    {
      "channel": 0,
      "note": 29,
      "start": 137.3829,
      "duration": 0.0992,
      "velocity": 113,
      "chip": "ym2612"
    },
    {
      "channel": 1,
      "note": 29,
      "start": 137.3842,
      "duration": 0.1645,
      "velocity": 1,
      "chip": "ym2612"
    },
    {
      "channel": 3,
      "note": 44,
      "start": 137.3856,
      "duration": 0.1643,
      "velocity": 114,
      "chip": "ym2612"
    },
    {
      "channel": 0,
      "note": 29,
      "start": 137.5485,
      "duration": 0.0992,
      "velocity": 113,
      "chip": "ym2612"
    },
    {
      "channel": 1,
      "note": 29,
      "start": 137.5491,
      "duration": 0.1656,
      "velocity": 1,
      "chip": "ym2612"
    },
    {
      "channel": 3,
      "note": 44,
      "start": 137.5505,
      "duration": 0.166,
      "velocity": 114,
      "chip": "ym2612"
    },
    {
      "channel": 0,
      "note": 48,
      "start": 137.7145,
      "duration": 0.1643,
      "velocity": 85,
      "chip": "ym2612"
    },
    {
      "channel": 1,
      "note": 29,
      "start": 137.7151,
      "duration": 0.1645,
      "velocity": 1,
      "chip": "ym2612"
    },
    {
      "channel": 2,
      "note": 17,
      "start": 137.7163,
      "duration": 0.1643,
      "velocity": 113,
      "chip": "ym2612"
    },
    {
      "channel": 3,
      "note": 53,
      "start": 137.7176,
      "duration": 0.0969,
      "velocity": 1,
      "chip": "ym2612"
    },
    {
      "channel": 4,
      "note": 53,
      "start": 137.7183,
      "duration": 0.0968,
      "velocity": 1,
      "chip": "ym2612"
    },
    {
      "channel": 5,
      "note": 53,
      "start": 137.7189,
      "duration": 0.0966,
      "velocity": 1,
      "chip": "ym2612"
    },
    {
      "channel": 0,
      "note": 49,
      "start": 137.8795,
      "duration": 0.1649,
      "velocity": 87,
      "chip": "ym2612"
    },
    {
      "channel": 1,
      "note": 29,
      "start": 137.8801,
      "duration": 0.165,
      "velocity": 1,
      "chip": "ym2612"
    },
    {
      "channel": 0,
      "note": 51,
      "start": 138.045,
      "duration": 0.1649,
      "velocity": 86,
      "chip": "ym2612"
    },
    {
      "channel": 1,
      "note": 18,
      "start": 138.0462,
      "duration": 0.1481,
      "velocity": 127,
      "chip": "ym2612"
    },
    {
      "channel": 2,
      "note": 17,
      "start": 138.0468,
      "duration": 0.1654,
      "velocity": 113,
      "chip": "ym2612"
    },
    {
      "channel": 0,
      "note": 53,
      "start": 138.2105,
      "duration": 0.1649,
      "velocity": 85,
      "chip": "ym2612"
    },
    {
      "channel": 1,
      "note": 29,
      "start": 138.2117,
      "duration": 0.1645,
      "velocity": 1,
      "chip": "ym2612"
    },
    {
      "channel": 0,
      "note": 51,
      "start": 138.376,
      "duration": 0.1649,
      "velocity": 84,
      "chip": "ym2612"
    },
    {
      "channel": 1,
      "note": 29,
      "start": 138.3767,
      "duration": 0.165,
      "velocity": 1,
      "chip": "ym2612"
    },
    {
      "channel": 2,
      "note": 17,
      "start": 138.3779,
      "duration": 0.1148,
      "velocity": 127,
      "chip": "ym2612"
    },
    {
      "channel": 0,
      "note": 49,
      "start": 138.5415,
      "duration": 0.1649,
      "velocity": 83,
      "chip": "ym2612"
    },
    {
      "channel": 1,
      "note": 18,
      "start": 138.5427,
      "duration": 0.1481,
      "velocity": 127,
      "chip": "ym2612"
    },
    {
      "channel": 0,
      "note": 48,
      "start": 138.7071,
      "duration": 0.1649,
      "velocity": 82,
      "chip": "ym2612"
    },
    {
      "channel": 1,
      "note": 29,
      "start": 138.7083,
      "duration": 0.1645,
      "velocity": 1,
      "chip": "ym2612"
    },
    {
      "channel": 2,
      "note": 17,
      "start": 138.7095,
      "duration": 0.1639,
      "velocity": 113,
      "chip": "ym2612"
    },
    {
      "channel": 0,
      "note": 49,
      "start": 138.8726,
      "duration": 0.1649,
      "velocity": 81,
      "chip": "ym2612"
    },
    {
      "channel": 1,
      "note": 29,
      "start": 138.8732,
      "duration": 0.1651,
      "velocity": 1,
      "chip": "ym2612"
    },
    {
      "channel": 2,
      "note": 17,
      "start": 138.8739,
      "duration": 0.1654,
      "velocity": 113,
      "chip": "ym2612"
    },
    {
      "channel": 0,
      "note": 48,
      "start": 139.0382,
      "duration": 0.1649,
      "velocity": 80,
      "chip": "ym2612"
    },
    {
      "channel": 1,
      "note": 29,
      "start": 139.0388,
      "duration": 0.1651,
      "velocity": 1,
      "chip": "ym2612"
    },
    {
      "channel": 0,
      "note": 49,
      "start": 139.2037,
      "duration": 0.1649,
      "velocity": 81,
      "chip": "ym2612"
    },
    {
      "channel": 1,
      "note": 29,
      "start": 139.2043,
      "duration": 0.165,
      "velocity": 1,
      "chip": "ym2612"
    },
    {
      "channel": 0,
      "note": 51,
      "start": 139.3692,
      "duration": 0.1649,
      "velocity": 82,
      "chip": "ym2612"
    },
    {
      "channel": 1,
      "note": 18,
      "start": 139.3704,
      "duration": 0.148,
      "velocity": 127,
      "chip": "ym2612"
    },
    {
      "channel": 2,
      "note": 17,
      "start": 139.3711,
      "duration": 0.1654,
      "velocity": 113,
      "chip": "ym2612"
    },
    {
      "channel": 0,
      "note": 53,
      "start": 139.5347,
      "duration": 0.1649,
      "velocity": 83,
      "chip": "ym2612"
    },
    {
      "channel": 1,
      "note": 29,
      "start": 139.5359,
      "duration": 0.1644,
      "velocity": 1,
      "chip": "ym2612"
    },
    {
      "channel": 0,
      "note": 51,
      "start": 139.7002,
      "duration": 0.1649,
      "velocity": 84,
      "chip": "ym2612"
    },
    {
      "channel": 1,
      "note": 29,
      "start": 139.7009,
      "duration": 0.165,
      "velocity": 1,
      "chip": "ym2612"
    },
    {
      "channel": 2,
      "note": 17,
      "start": 139.7022,
      "duration": 0.1147,
      "velocity": 127,
      "chip": "ym2612"
    },
    {
      "channel": 0,
      "note": 49,
      "start": 139.8658,
      "duration": 0.1649,
      "velocity": 85,
      "chip": "ym2612"
    },
    {
      "channel": 1,
      "note": 18,
      "start": 139.8669,
      "duration": 0.1482,
      "velocity": 127,
      "chip": "ym2612"
    },
    {
      "channel": 0,
      "note": 48,
      "start": 140.0313,
      "duration": 0.1649,
      "velocity": 86,
      "chip": "ym2612"
    },
    {
      "channel": 1,
      "note": 29,
      "start": 140.0325,
      "duration": 0.1644,
      "velocity": 1,
      "chip": "ym2612"
    },
    {
      "channel": 0,
      "note": 46,
      "start": 140.1968,
      "duration": 0.1649,
      "velocity": 87,
      "chip": "ym2612"
    },
    {
      "channel": 1,
      "note": 29,
      "start": 140.1975,
      "duration": 0.1651,
      "velocity": 1,
      "chip": "ym2612"
    },
    {
      "channel": 0,
      "note": 48,
      "start": 140.3623,
      "duration": 0.1649,
      "velocity": 85,
      "chip": "ym2612"
    },
    {
      "channel": 1,
      "note": 29,
      "start": 140.363,
      "duration": 0.1651,
      "velocity": 1,
      "chip": "ym2612"
    },
    {
      "channel": 2,
      "note": 17,
      "start": 140.3642,
      "duration": 0.1648,
      "velocity": 113,
      "chip": "ym2612"
    },
    {
      "channel": 3,
      "note": 53,
      "start": 140.3648,
      "duration": 0.0981,
      "velocity": 1,
      "chip": "ym2612"
    },
    {
      "channel": 4,
      "note": 53,
      "start": 140.3655,
      "duration": 0.098,
      "velocity": 1,
      "chip": "ym2612"
    },
    {
      "channel": 5,
      "note": 53,
      "start": 140.3661,
      "duration": 0.0978,
      "velocity": 1,
      "chip": "ym2612"
    },
    {
      "channel": 0,
      "note": 49,
      "start": 140.5279,
      "duration": 0.1649,
      "velocity": 87,
      "chip": "ym2612"
    },
    {
      "channel": 1,
      "note": 29,
      "start": 140.5285,
      "duration": 0.165,
      "velocity": 1,
      "chip": "ym2612"
    },
    {
      "channel": 0,
      "note": 51,
      "start": 140.6934,
      "duration": 0.1649,
      "velocity": 86,
      "chip": "ym2612"
    },
    {
      "channel": 1,
      "note": 18,
      "start": 140.6946,
      "duration": 0.1481,
      "velocity": 127,
      "chip": "ym2612"
    },
    {
      "channel": 2,
      "note": 17,
      "start": 140.6952,
      "duration": 0.1654,
      "velocity": 113,
      "chip": "ym2612"
    },
    {
      "channel": 0,
      "note": 53,
      "start": 140.8589,
      "duration": 0.1649,
      "velocity": 85,
      "chip": "ym2612"
    },
    {
      "channel": 1,
      "note": 29,
      "start": 140.8601,
      "duration": 0.1645,
      "velocity": 1,
      "chip": "ym2612"
    },
    {
      "channel": 0,
      "note": 51,
      "start": 141.0244,
      "duration": 0.1649,
      "velocity": 84,
      "chip": "ym2612"
    },
    {
      "channel": 1,
      "note": 29,
      "start": 141.0251,
      "duration": 0.165,
      "velocity": 1,
      "chip": "ym2612"
    },
    {
      "channel": 2,
      "note": 17,
      "start": 141.0263,
      "duration": 0.1148,
      "velocity": 127,
      "chip": "ym2612"
    },
    {
      "channel": 0,
      "note": 49,
      "start": 141.19,
      "duration": 0.1649,
      "velocity": 83,
      "chip": "ym2612"
    },
    {
      "channel": 1,
      "note": 18,
      "start": 141.1912,
      "duration": 0.1481,
      "velocity": 127,
      "chip": "ym2612"
    },
    {
      "channel": 0,
      "note": 48,
      "start": 141.3555,
      "duration": 0.165,
      "velocity": 82,
      "chip": "ym2612"
    },
    {
      "channel": 1,
      "note": 29,
      "start": 141.3567,
      "duration": 0.1645,
      "velocity": 1,
      "chip": "ym2612"
    },
    {
      "channel": 2,
      "note": 17,
      "start": 141.3579,
      "duration": 0.1639,
      "velocity": 113,
      "chip": "ym2612"
    },
    {
      "channel": 0,
      "note": 49,
      "start": 141.5211,
      "duration": 0.1649,
      "velocity": 81,
      "chip": "ym2612"
    },
    {
      "channel": 1,
      "note": 29,
      "start": 141.5217,
      "duration": 0.165,
      "velocity": 1,
      "chip": "ym2612"
    },
    {
      "channel": 2,
      "note": 17,
      "start": 141.5223,
      "duration": 0.1654,
      "velocity": 113,
      "chip": "ym2612"
    },
    {
      "channel": 0,
      "note": 48,
      "start": 141.6865,
      "duration": 0.165,
      "velocity": 80,
      "chip": "ym2612"
    },
    {
      "channel": 1,
      "note": 29,
      "start": 141.6872,
      "duration": 0.165,
      "velocity": 1,
      "chip": "ym2612"
    },
    {
      "channel": 0,
      "note": 49,
      "start": 141.852,
      "duration": 0.1649,
      "velocity": 81,
      "chip": "ym2612"
    },
    {
      "channel": 1,
      "note": 29,
      "start": 141.8527,
      "duration": 0.165,
      "velocity": 1,
      "chip": "ym2612"
    },
    {
      "channel": 0,
      "note": 51,
      "start": 142.0176,
      "duration": 0.165,
      "velocity": 82,
      "chip": "ym2612"
    },
    {
      "channel": 1,
      "note": 18,
      "start": 142.0188,
      "duration": 0.1481,
      "velocity": 127,
      "chip": "ym2612"
    },
    {
      "channel": 2,
      "note": 17,
      "start": 142.0194,
      "duration": 0.1655,
      "velocity": 113,
      "chip": "ym2612"
    },
    {
      "channel": 0,
      "note": 53,
      "start": 142.1832,
      "duration": 0.1649,
      "velocity": 83,
      "chip": "ym2612"
    },
    {
      "channel": 1,
      "note": 29,
      "start": 142.1844,
      "duration": 0.1644,
      "velocity": 1,
      "chip": "ym2612"
    },
    {
      "channel": 0,
      "note": 51,
      "start": 142.3487,
      "duration": 0.1649,
      "velocity": 84,
      "chip": "ym2612"
    },
    {
      "channel": 1,
      "note": 29,
      "start": 142.3493,
      "duration": 0.165,
      "velocity": 1,
      "chip": "ym2612"
    },
    {
      "channel": 2,
      "note": 17,
      "start": 142.3506,
      "duration": 0.1148,
      "velocity": 127,
      "chip": "ym2612"
    },
    {
      "channel": 0,
      "note": 49,
      "start": 142.5142,
      "duration": 0.1649,
      "velocity": 85,
      "chip": "ym2612"
    },
    {
      "channel": 1,
      "note": 18,
      "start": 142.5153,
      "duration": 0.1482,
      "velocity": 127,
      "chip": "ym2612"
    },
    {
      "channel": 0,
      "note": 48,
      "start": 142.6797,
      "duration": 0.1649,
      "velocity": 86,
      "chip": "ym2612"
    },
    {
      "channel": 1,
      "note": 29,
      "start": 142.6809,
      "duration": 0.1644,
      "velocity": 1,
      "chip": "ym2612"
    },
    {
      "channel": 0,
      "note": 46,
      "start": 142.8452,
      "duration": 0.1649,
      "velocity": 87,
      "chip": "ym2612"
    },
    {
      "channel": 1,
      "note": 29,
      "start": 142.8459,
      "duration": 0.165,
      "velocity": 1,
      "chip": "ym2612"
    },
    {
      "channel": 0,
      "note": 48,
      "start": 143.0107,
      "duration": 0.1649,
      "velocity": 85,
      "chip": "ym2612"
    },
    {
      "channel": 1,
      "note": 29,
      "start": 143.0114,
      "duration": 0.165,
      "velocity": 1,
      "chip": "ym2612"
    },
    {
      "channel": 2,
      "note": 17,
      "start": 143.0126,
      "duration": 0.1648,
      "velocity": 113,
      "chip": "ym2612"
    },
    {
      "channel": 3,
      "note": 53,
      "start": 143.0132,
      "duration": 0.0981,
      "velocity": 1,
      "chip": "ym2612"
    },
    {
      "channel": 4,
      "note": 53,
      "start": 143.0139,
      "duration": 0.098,
      "velocity": 1,
      "chip": "ym2612"
    },
    {
      "channel": 5,
      "note": 53,
      "start": 143.0145,
      "duration": 0.0978,
      "velocity": 1,
      "chip": "ym2612"
    },
    {
      "channel": 0,
      "note": 49,
      "start": 143.1763,
      "duration": 0.1649,
      "velocity": 87,
      "chip": "ym2612"
    },
    {
      "channel": 1,
      "note": 29,
      "start": 143.1769,
      "duration": 0.165,
      "velocity": 1,
      "chip": "ym2612"
    },
    {
      "channel": 0,
      "note": 51,
      "start": 143.3418,
      "duration": 0.1649,
      "velocity": 86,
      "chip": "ym2612"
    },
    {
      "channel": 1,
      "note": 18,
      "start": 143.343,
      "duration": 0.1481,
      "velocity": 127,
      "chip": "ym2612"
    },
    {
      "channel": 2,
      "note": 17,
      "start": 143.3437,
      "duration": 0.1654,
      "velocity": 113,
      "chip": "ym2612"
    },
    {
      "channel": 0,
      "note": 53,
      "start": 143.5073,
      "duration": 0.1649,
      "velocity": 85,
      "chip": "ym2612"
    },
    {
      "channel": 1,
      "note": 29,
      "start": 143.5085,
      "duration": 0.1645,
      "velocity": 1,
      "chip": "ym2612"
    },
    {
      "channel": 0,
      "note": 51,
      "start": 143.6728,
      "duration": 0.1649,
      "velocity": 84,
      "chip": "ym2612"
    },
    {
      "channel": 1,
      "note": 29,
      "start": 143.6735,
      "duration": 0.165,
      "velocity": 1,
      "chip": "ym2612"
    },
    {
      "channel": 2,
      "note": 17,
      "start": 143.6747,
      "duration": 0.1148,
      "velocity": 127,
      "chip": "ym2612"
    },
    {
      "channel": 0,
      "note": 49,
      "start": 143.8384,
      "duration": 0.1649,
      "velocity": 83,
      "chip": "ym2612"
    },
    {
      "channel": 1,
      "note": 18,
      "start": 143.8396,
      "duration": 0.1482,
      "velocity": 127,
      "chip": "ym2612"
    },
    {
      "channel": 0,
      "note": 48,
      "start": 144.0039,
      "duration": 0.1648,
      "velocity": 82,
      "chip": "ym2612"
    },
    {
      "channel": 1,
      "note": 29,
      "start": 144.0051,
      "duration": 0.1644,
      "velocity": 1,
      "chip": "ym2612"
    },
    {
      "channel": 2,
      "note": 17,
      "start": 144.0064,
      "duration": 0.1639,
      "velocity": 113,
      "chip": "ym2612"
    },
    {
      "channel": 0,
      "note": 49,
      "start": 144.1694,
      "duration": 0.1649,
      "velocity": 81,
      "chip": "ym2612"
    },
    {
      "channel": 1,
      "note": 29,
      "start": 144.17,
      "duration": 0.1651,
      "velocity": 1,
      "chip": "ym2612"
    },
    {
      "channel": 2,
      "note": 17,
      "start": 144.1707,
      "duration": 0.1653,
      "velocity": 113,
      "chip": "ym2612"
    },
    {
      "channel": 0,
      "note": 48,
      "start": 144.3349,
      "duration": 0.1649,
      "velocity": 80,
      "chip": "ym2612"
    },
    {
      "channel": 1,
      "note": 29,
      "start": 144.3356,
      "duration": 0.1651,
      "velocity": 1,
      "chip": "ym2612"
    },
    {
      "channel": 0,
      "note": 49,
      "start": 144.5005,
      "duration": 0.1649,
      "velocity": 81,
      "chip": "ym2612"
    },
    {
      "channel": 1,
      "note": 29,
      "start": 144.5011,
      "duration": 0.165,
      "velocity": 1,
      "chip": "ym2612"
    },
    {
      "channel": 0,
      "note": 51,
      "start": 144.666,
      "duration": 0.165,
      "velocity": 82,
      "chip": "ym2612"
    },
    {
      "channel": 1,
      "note": 18,
      "start": 144.6672,
      "duration": 0.1481,
      "velocity": 127,
      "chip": "ym2612"
    },
    {
      "channel": 2,
      "note": 17,
      "start": 144.6678,
      "duration": 0.1654,
      "velocity": 113,
      "chip": "ym2612"
    },
    {
      "channel": 0,
      "note": 53,
      "start": 144.8315,
      "duration": 0.1649,
      "velocity": 83,
      "chip": "ym2612"
    },
    {
      "channel": 1,
      "note": 29,
      "start": 144.8327,
      "duration": 0.1645,
      "velocity": 1,
      "chip": "ym2612"
    },
    {
      "channel": 0,
      "note": 51,
      "start": 144.997,
      "duration": 0.165,
      "velocity": 84,
      "chip": "ym2612"
    },
    {
      "channel": 1,
      "note": 29,
      "start": 144.9976,
      "duration": 0.1651,
      "velocity": 1,
      "chip": "ym2612"
    },
    {
      "channel": 2,
      "note": 17,
      "start": 144.9989,
      "duration": 0.1148,
      "velocity": 127,
      "chip": "ym2612"
    },
    {
      "channel": 0,
      "note": 49,
      "start": 145.1626,
      "duration": 0.1649,
      "velocity": 85,
      "chip": "ym2612"
    },
    {
      "channel": 1,
      "note": 18,
      "start": 145.1637,
      "duration": 0.1481,
      "velocity": 127,
      "chip": "ym2612"
    },
    {
      "channel": 0,
      "note": 48,
      "start": 145.3281,
      "duration": 0.1649,
      "velocity": 86,
      "chip": "ym2612"
    },
    {
      "channel": 1,
      "note": 29,
      "start": 145.3293,
      "duration": 0.1644,
      "velocity": 1,
      "chip": "ym2612"
    },
    {
      "channel": 0,
      "note": 46,
      "start": 145.4937,
      "duration": 0.1649,
      "velocity": 87,
      "chip": "ym2612"
    },
    {
      "channel": 1,
      "note": 29,
      "start": 145.4943,
      "duration": 0.165,
      "velocity": 1,
      "chip": "ym2612"
    },
    {
      "channel": 0,
      "note": 48,
      "start": 145.6592,
      "duration": 0.1649,
      "velocity": 85,
      "chip": "ym2612"
    },
    {
      "channel": 1,
      "note": 29,
      "start": 145.6598,
      "duration": 0.165,
      "velocity": 1,
      "chip": "ym2612"
    },
    {
      "channel": 2,
      "note": 17,
      "start": 145.661,
      "duration": 0.1647,
      "velocity": 113,
      "chip": "ym2612"
    },
    {
      "channel": 3,
      "note": 53,
      "start": 145.6617,
      "duration": 0.0981,
      "velocity": 1,
      "chip": "ym2612"
    },
    {
      "channel": 4,
      "note": 53,
      "start": 145.6623,
      "duration": 0.098,
      "velocity": 1,
      "chip": "ym2612"
    },
    {
      "channel": 5,
      "note": 53,
      "start": 145.6629,
      "duration": 0.0978,
      "velocity": 1,
      "chip": "ym2612"
    },
    {
      "channel": 0,
      "note": 49,
      "start": 145.8247,
      "duration": 0.1649,
      "velocity": 87,
      "chip": "ym2612"
    },
    {
      "channel": 1,
      "note": 29,
      "start": 145.8253,
      "duration": 0.165,
      "velocity": 1,
      "chip": "ym2612"
    },
    {
      "channel": 0,
      "note": 51,
      "start": 145.9902,
      "duration": 0.1649,
      "velocity": 86,
      "chip": "ym2612"
    },
    {
      "channel": 1,
      "note": 18,
      "start": 145.9914,
      "duration": 0.1481,
      "velocity": 127,
      "chip": "ym2612"
    },
    {
      "channel": 2,
      "note": 17,
      "start": 145.992,
      "duration": 0.1654,
      "velocity": 113,
      "chip": "ym2612"
    },
    {
      "channel": 0,
      "note": 53,
      "start": 146.1557,
      "duration": 0.1649,
      "velocity": 85,
      "chip": "ym2612"
    },
    {
      "channel": 1,
      "note": 29,
      "start": 146.1569,
      "duration": 0.1645,
      "velocity": 1,
      "chip": "ym2612"
    },
    {
      "channel": 0,
      "note": 51,
      "start": 146.3213,
      "duration": 0.1648,
      "velocity": 84,
      "chip": "ym2612"
    },
    {
      "channel": 1,
      "note": 29,
      "start": 146.322,
      "duration": 0.165,
      "velocity": 1,
      "chip": "ym2612"
    },
    {
      "channel": 2,
      "note": 17,
      "start": 146.3232,
      "duration": 0.1148,
      "velocity": 127,
      "chip": "ym2612"
    },
    {
      "channel": 0,
      "note": 49,
      "start": 146.4868,
      "duration": 0.1649,
      "velocity": 83,
      "chip": "ym2612"
    },
    {
      "channel": 1,
      "note": 18,
      "start": 146.488,
      "duration": 0.148,
      "velocity": 127,
      "chip": "ym2612"
    },
    {
      "channel": 0,
      "note": 48,
      "start": 146.6523,
      "duration": 0.1649,
      "velocity": 82,
      "chip": "ym2612"
    },
    {
      "channel": 1,
      "note": 29,
      "start": 146.6535,
      "duration": 0.1645,
      "velocity": 1,
      "chip": "ym2612"
    },
    {
      "channel": 2,
      "note": 17,
      "start": 146.6548,
      "duration": 0.1639,
      "velocity": 113,
      "chip": "ym2612"
    },
    {
      "channel": 0,
      "note": 49,
      "start": 146.8178,
      "duration": 0.1649,
      "velocity": 81,
      "chip": "ym2612"
    },
    {
      "channel": 1,
      "note": 29,
      "start": 146.8185,
      "duration": 0.1651,
      "velocity": 1,
      "chip": "ym2612"
    },
    {
      "channel": 2,
      "note": 17,
      "start": 146.8191,
      "duration": 0.1654,
      "velocity": 113,
      "chip": "ym2612"
    },
    {
      "channel": 0,
      "note": 48,
      "start": 146.9833,
      "duration": 0.1649,
      "velocity": 80,
      "chip": "ym2612"
    },
    {
      "channel": 1,
      "note": 29,
      "start": 146.984,
      "duration": 0.1651,
      "velocity": 1,
      "chip": "ym2612"
    },
    {
      "channel": 0,
      "note": 49,
      "start": 147.1489,
      "duration": 0.1649,
      "velocity": 81,
      "chip": "ym2612"
    },
    {
      "channel": 1,
      "note": 29,
      "start": 147.1495,
      "duration": 0.165,
      "velocity": 1,
      "chip": "ym2612"
    },
    {
      "channel": 0,
      "note": 51,
      "start": 147.3144,
      "duration": 0.1649,
      "velocity": 82,
      "chip": "ym2612"
    },
    {
      "channel": 1,
      "note": 18,
      "start": 147.3156,
      "duration": 0.1481,
      "velocity": 127,
      "chip": "ym2612"
    },
    {
      "channel": 2,
      "note": 17,
      "start": 147.3162,
      "duration": 0.1654,
      "velocity": 113,
      "chip": "ym2612"
    },
    {
      "channel": 0,
      "note": 53,
      "start": 147.4799,
      "duration": 0.1649,
      "velocity": 83,
      "chip": "ym2612"
    },
    {
      "channel": 1,
      "note": 29,
      "start": 147.4811,
      "duration": 0.1645,
      "velocity": 1,
      "chip": "ym2612"
    },
    {
      "channel": 0,
      "note": 51,
      "start": 147.6454,
      "duration": 0.1649,
      "velocity": 84,
      "chip": "ym2612"
    },
    {
      "channel": 1,
      "note": 29,
      "start": 147.6461,
      "duration": 0.165,
      "velocity": 1,
      "chip": "ym2612"
    },
    {
      "channel": 2,
      "note": 17,
      "start": 147.6473,
      "duration": 0.1148,
      "velocity": 127,
      "chip": "ym2612"
    },
    {
      "channel": 0,
      "note": 49,
      "start": 147.811,
      "duration": 0.1649,
      "velocity": 85,
      "chip": "ym2612"
    },
    {
      "channel": 1,
      "note": 18,
      "start": 147.8122,
      "duration": 0.1481,
      "velocity": 127,
      "chip": "ym2612"
    },
    {
      "channel": 0,
      "note": 48,
      "start": 147.9765,
      "duration": 0.1649,
      "velocity": 86,
      "chip": "ym2612"
    },
    {
      "channel": 1,
      "note": 29,
      "start": 147.9777,
      "duration": 0.1645,
      "velocity": 1,
      "chip": "ym2612"
    },
    {
      "channel": 0,
      "note": 46,
      "start": 148.142,
      "duration": 0.1649,
      "velocity": 87,
      "chip": "ym2612"
    },
    {
      "channel": 1,
      "note": 29,
      "start": 148.1426,
      "duration": 0.1651,
      "velocity": 1,
      "chip": "ym2612"
    },
    {
      "channel": 0,
      "note": 48,
      "start": 148.3075,
      "duration": 0.1649,
      "velocity": 85,
      "chip": "ym2612"
    },
    {
      "channel": 1,
      "note": 29,
      "start": 148.3081,
      "duration": 0.1651,
      "velocity": 1,
      "chip": "ym2612"
    },
    {
      "channel": 2,
      "note": 17,
      "start": 148.3094,
      "duration": 0.1645,
      "velocity": 113,
      "chip": "ym2612"
    },
    {
      "channel": 3,
      "note": 29,
      "start": 148.3107,
      "duration": 0.1638,
      "velocity": 1,
      "chip": "ym2612"
    },
    {
      "channel": 4,
      "note": 53,
      "start": 148.312,
      "duration": 0.0968,
      "velocity": 127,
      "chip": "ym2612"
    },
    {
      "channel": 5,
      "note": 53,
      "start": 148.3126,
      "duration": 0.0966,
      "velocity": 1,
      "chip": "ym2612"
    },
    {
      "channel": 0,
      "note": 49,
      "start": 148.4731,
      "duration": 0.1649,
      "velocity": 87,
      "chip": "ym2612"
    },
    {
      "channel": 1,
      "note": 29,
      "start": 148.4737,
      "duration": 0.165,
      "velocity": 1,
      "chip": "ym2612"
    },
    {
      "channel": 2,
      "note": 17,
      "start": 148.4744,
      "duration": 0.1656,
      "velocity": 113,
      "chip": "ym2612"
    },
    {
      "channel": 3,
      "note": 62,
      "start": 148.4755,
      "duration": 0.1478,
      "velocity": 118,
      "chip": "ym2612"
    },
    {
      "channel": 4,
      "note": 53,
      "start": 148.4768,
      "duration": 0.0973,
      "velocity": 127,
      "chip": "ym2612"
    },
    {
      "channel": 0,
      "note": 51,
      "start": 148.6386,
      "duration": 0.1649,
      "velocity": 86,
      "chip": "ym2612"
    },
    {
      "channel": 1,
      "note": 18,
      "start": 148.6398,
      "duration": 0.1481,
      "velocity": 127,
      "chip": "ym2612"
    },
    {
      "channel": 2,
      "note": 17,
      "start": 148.641,
      "duration": 0.1644,
      "velocity": 1,
      "chip": "ym2612"
    },
    {
      "channel": 3,
      "note": 62,
      "start": 148.6416,
      "duration": 0.1473,
      "velocity": 118,
      "chip": "ym2612"
    },
    {
      "channel": 4,
      "note": 53,
      "start": 148.6429,
      "duration": 0.0968,
      "velocity": 127,
      "chip": "ym2612"
    },
    {
      "channel": 0,
      "note": 53,
      "start": 148.8041,
      "duration": 0.1649,
      "velocity": 85,
      "chip": "ym2612"
    },
    {
      "channel": 1,
      "note": 29,
      "start": 148.8054,
      "duration": 0.1644,
      "velocity": 1,
      "chip": "ym2612"
    },
    {
      "channel": 2,
      "note": 17,
      "start": 148.8066,
      "duration": 0.1639,
      "velocity": 113,
      "chip": "ym2612"
    },
    {
      "channel": 3,
      "note": 62,
      "start": 148.8072,
      "duration": 0.1472,
      "velocity": 118,
      "chip": "ym2612"
    },
    {
      "channel": 4,
      "note": 53,
      "start": 148.8085,
      "duration": 0.0968,
      "velocity": 127,
      "chip": "ym2612"
    },
    {
      "channel": 0,
      "note": 51,
      "start": 148.9697,
      "duration": 0.1649,
      "velocity": 84,
      "chip": "ym2612"
    },
    {
      "channel": 1,
      "note": 29,
      "start": 148.9703,
      "duration": 0.165,
      "velocity": 1,
      "chip": "ym2612"
    },
    {
      "channel": 2,
      "note": 17,
      "start": 148.9709,
      "duration": 0.1656,
      "velocity": 113,
      "chip": "ym2612"
    },
    {
      "channel": 3,
      "note": 58,
      "start": 148.9723,
      "duration": 0.1655,
      "velocity": 127,
      "chip": "ym2612"
    },
    {
      "channel": 4,
      "note": 53,
      "start": 148.9735,
      "duration": 0.0973,
      "velocity": 127,
      "chip": "ym2612"
    },
    {
      "channel": 0,
      "note": 49,
      "start": 149.1352,
      "duration": 0.1649,
      "velocity": 83,
      "chip": "ym2612"
    },
    {
      "channel": 1,
      "note": 18,
      "start": 149.1364,
      "duration": 0.1481,
      "velocity": 127,
      "chip": "ym2612"
    },
    {
      "channel": 2,
      "note": 17,
      "start": 149.1377,
      "duration": 0.1644,
      "velocity": 1,
      "chip": "ym2612"
    },
    {
      "channel": 3,
      "note": 62,
      "start": 149.1389,
      "duration": 0.1466,
      "velocity": 118,
      "chip": "ym2612"
    },
    {
      "channel": 4,
      "note": 53,
      "start": 149.1401,
      "duration": 0.0962,
      "velocity": 127,
      "chip": "ym2612"
    },
    {
      "channel": 0,
      "note": 48,
      "start": 149.3007,
      "duration": 0.1649,
      "velocity": 82,
      "chip": "ym2612"
    },
    {
      "channel": 1,
      "note": 29,
      "start": 149.3019,
      "duration": 0.1645,
      "velocity": 1,
      "chip": "ym2612"
    },
    {
      "channel": 2,
      "note": 15,
      "start": 149.3031,
      "duration": 0.1639,
      "velocity": 113,
      "chip": "ym2612"
    },
    {
      "channel": 3,
      "note": 62,
      "start": 149.3038,
      "duration": 0.1471,
      "velocity": 118,
      "chip": "ym2612"
    },
    {
      "channel": 4,
      "note": 53,
      "start": 149.3051,
      "duration": 0.0968,
      "velocity": 127,
      "chip": "ym2612"
    },
    {
      "channel": 0,
      "note": 49,
      "start": 149.4662,
      "duration": 0.1649,
      "velocity": 81,
      "chip": "ym2612"
    },
    {
      "channel": 1,
      "note": 29,
      "start": 149.4669,
      "duration": 0.1651,
      "velocity": 1,
      "chip": "ym2612"
    },
    {
      "channel": 2,
      "note": 17,
      "start": 149.4675,
      "duration": 0.1651,
      "velocity": 113,
      "chip": "ym2612"
    },
    {
      "channel": 3,
      "note": 58,
      "start": 149.4688,
      "duration": 0.1644,
      "velocity": 127,
      "chip": "ym2612"
    },
    {
      "channel": 4,
      "note": 53,
      "start": 149.47,
      "duration": 0.0974,
      "velocity": 127,
      "chip": "ym2612"
    },
    {
      "channel": 0,
      "note": 48,
      "start": 149.6317,
      "duration": 0.1649,
      "velocity": 80,
      "chip": "ym2612"
    },
    {
      "channel": 1,
      "note": 29,
      "start": 149.6324,
      "duration": 0.1651,
      "velocity": 1,
      "chip": "ym2612"
    },
    {
      "channel": 2,
      "note": 17,
      "start": 149.633,
      "duration": 0.1651,
      "velocity": 113,
      "chip": "ym2612"
    },
    {
      "channel": 3,
      "note": 29,
      "start": 149.6343,
      "duration": 0.1644,
      "velocity": 1,
      "chip": "ym2612"
    },
    {
      "channel": 4,
      "note": 53,
      "start": 149.6356,
      "duration": 0.0974,
      "velocity": 127,
      "chip": "ym2612"
    },
    {
      "channel": 0,
      "note": 49,
      "start": 149.7973,
      "duration": 0.1649,
      "velocity": 81,
      "chip": "ym2612"
    },
    {
      "channel": 1,
      "note": 29,
      "start": 149.7979,
      "duration": 0.165,
      "velocity": 1,
      "chip": "ym2612"
    },
    {
      "channel": 2,
      "note": 17,
      "start": 149.7985,
      "duration": 0.1656,
      "velocity": 113,
      "chip": "ym2612"
    },
    {
      "channel": 3,
      "note": 62,
      "start": 149.7998,
      "duration": 0.1477,
      "velocity": 118,
      "chip": "ym2612"
    },
    {
      "channel": 4,
      "note": 53,
      "start": 149.801,
      "duration": 0.0974,
      "velocity": 127,
      "chip": "ym2612"
    },
    {
      "channel": 0,
      "note": 51,
      "start": 149.9628,
      "duration": 0.1649,
      "velocity": 82,
      "chip": "ym2612"
    },
    {
      "channel": 1,
      "note": 18,
      "start": 149.964,
      "duration": 0.1481,
      "velocity": 127,
      "chip": "ym2612"
    },
    {
      "channel": 2,
      "note": 17,
      "start": 149.9652,
      "duration": 0.1644,
      "velocity": 1,
      "chip": "ym2612"
    },
    {
      "channel": 3,
      "note": 62,
      "start": 149.9659,
      "duration": 0.1472,
      "velocity": 118,
      "chip": "ym2612"
    },
    {
      "channel": 4,
      "note": 53,
      "start": 149.9671,
      "duration": 0.0968,
      "velocity": 127,
      "chip": "ym2612"
    },
    {
      "channel": 0,
      "note": 53,
      "start": 150.1283,
      "duration": 0.1649,
      "velocity": 83,
      "chip": "ym2612"
    },
    {
      "channel": 1,
      "note": 29,
      "start": 150.1295,
      "duration": 0.1645,
      "velocity": 1,
      "chip": "ym2612"
    },
    {
      "channel": 2,
      "note": 17,
      "start": 150.1307,
      "duration": 0.1639,
      "velocity": 113,
      "chip": "ym2612"
    },
    {
      "channel": 3,
      "note": 62,
      "start": 150.1314,
      "duration": 0.1472,
      "velocity": 118,
      "chip": "ym2612"
    },
    {
      "channel": 4,
      "note": 53,
      "start": 150.1326,
      "duration": 0.0968,
      "velocity": 127,
      "chip": "ym2612"
    },
    {
      "channel": 0,
      "note": 51,
      "start": 150.2938,
      "duration": 0.1649,
      "velocity": 84,
      "chip": "ym2612"
    },
    {
      "channel": 1,
      "note": 29,
      "start": 150.2945,
      "duration": 0.165,
      "velocity": 1,
      "chip": "ym2612"
    },
    {
      "channel": 2,
      "note": 17,
      "start": 150.2951,
      "duration": 0.1656,
      "velocity": 113,
      "chip": "ym2612"
    },
    {
      "channel": 3,
      "note": 58,
      "start": 150.2964,
      "duration": 0.1655,
      "velocity": 127,
      "chip": "ym2612"
    },
    {
      "channel": 4,
      "note": 53,
      "start": 150.2976,
      "duration": 0.0974,
      "velocity": 127,
      "chip": "ym2612"
    },
    {
      "channel": 0,
      "note": 49,
      "start": 150.4594,
      "duration": 0.1649,
      "velocity": 85,
      "chip": "ym2612"
    },
    {
      "channel": 1,
      "note": 18,
      "start": 150.4606,
      "duration": 0.1481,
      "velocity": 127,
      "chip": "ym2612"
    },
    {
      "channel": 2,
      "note": 17,
      "start": 150.4618,
      "duration": 0.1644,
      "velocity": 1,
      "chip": "ym2612"
    },
    {
      "channel": 3,
      "note": 62,
      "start": 150.463,
      "duration": 0.1466,
      "velocity": 118,
      "chip": "ym2612"
    },
    {
      "channel": 4,
      "note": 53,
      "start": 150.4643,
      "duration": 0.0962,
      "velocity": 127,
      "chip": "ym2612"
    },
    {
      "channel": 0,
      "note": 48,
      "start": 150.6249,
      "duration": 0.1649,
      "velocity": 86,
      "chip": "ym2612"
    },
    {
      "channel": 1,
      "note": 29,
      "start": 150.6261,
      "duration": 0.1645,
      "velocity": 1,
      "chip": "ym2612"
    },
    {
      "channel": 2,
      "note": 17,
      "start": 150.6273,
      "duration": 0.1639,
      "velocity": 113,
      "chip": "ym2612"
    },
    {
      "channel": 3,
      "note": 62,
      "start": 150.6279,
      "duration": 0.1472,
      "velocity": 118,
      "chip": "ym2612"
    },
    {
      "channel": 4,
      "note": 53,
      "start": 150.6293,
      "duration": 0.0968,
      "velocity": 127,
      "chip": "ym2612"
    },
    {
      "channel": 0,
      "note": 46,
      "start": 150.7904,
      "duration": 0.1649,
      "velocity": 87,
      "chip": "ym2612"
    },
    {
      "channel": 1,
      "note": 29,
      "start": 150.791,
      "duration": 0.1651,
      "velocity": 1,
      "chip": "ym2612"
    },
    {
      "channel": 2,
      "note": 17,
      "start": 150.7917,
      "duration": 0.1651,
      "velocity": 113,
      "chip": "ym2612"
    },
    {
      "channel": 3,
      "note": 62,
      "start": 150.7923,
      "duration": 0.1483,
      "velocity": 118,
      "chip": "ym2612"
    },
    {
      "channel": 4,
      "note": 53,
      "start": 150.7936,
      "duration": 0.098,
      "velocity": 127,
      "chip": "ym2612"
    },
    {
      "channel": 0,
      "note": 48,
      "start": 150.9559,
      "duration": 0.1649,
      "velocity": 85,
      "chip": "ym2612"
    },
    {
      "channel": 1,
      "note": 29,
      "start": 150.9566,
      "duration": 0.1651,
      "velocity": 1,
      "chip": "ym2612"
    },
    {
      "channel": 2,
      "note": 17,
      "start": 150.9572,
      "duration": 0.1651,
      "velocity": 113,
      "chip": "ym2612"
    },
    {
      "channel": 3,
      "note": 29,
      "start": 150.9585,
      "duration": 0.1644,
      "velocity": 1,
      "chip": "ym2612"
    },
    {
      "channel": 4,
      "note": 53,
      "start": 150.9592,
      "duration": 0.098,
      "velocity": 127,
      "chip": "ym2612"
    },
    {
      "channel": 5,
      "note": 53,
      "start": 150.9598,
      "duration": 0.0978,
      "velocity": 1,
      "chip": "ym2612"
    },
    {
      "channel": 0,
      "note": 49,
      "start": 151.1215,
      "duration": 0.1649,
      "velocity": 87,
      "chip": "ym2612"
    },
    {
      "channel": 1,
      "note": 29,
      "start": 151.1221,
      "duration": 0.1651,
      "velocity": 1,
      "chip": "ym2612"
    },
    {
      "channel": 2,
      "note": 17,
      "start": 151.1227,
      "duration": 0.1656,
      "velocity": 113,
      "chip": "ym2612"
    },
    {
      "channel": 3,
      "note": 62,
      "start": 151.1239,
      "duration": 0.1478,
      "velocity": 118,
      "chip": "ym2612"
    },
    {
      "channel": 4,
      "note": 53,
      "start": 151.1252,
      "duration": 0.0975,
      "velocity": 127,
      "chip": "ym2612"
    },
    {
      "channel": 0,
      "note": 51,
      "start": 151.287,
      "duration": 0.1649,
      "velocity": 86,
      "chip": "ym2612"
    },
    {
      "channel": 1,
      "note": 18,
      "start": 151.2882,
      "duration": 0.148,
      "velocity": 127,
      "chip": "ym2612"
    },
    {
      "channel": 2,
      "note": 17,
      "start": 151.2895,
      "duration": 0.1645,
      "velocity": 1,
      "chip": "ym2612"
    },
    {
      "channel": 3,
      "note": 62,
      "start": 151.2901,
      "duration": 0.1472,
      "velocity": 118,
      "chip": "ym2612"
    },
    {
      "channel": 4,
      "note": 53,
      "start": 151.2914,
      "duration": 0.0968,
      "velocity": 127,
      "chip": "ym2612"
    },
    {
      "channel": 0,
      "note": 53,
      "start": 151.4525,
      "duration": 0.1649,
      "velocity": 85,
      "chip": "ym2612"
    },
    {
      "channel": 1,
      "note": 29,
      "start": 151.4538,
      "duration": 0.1644,
      "velocity": 1,
      "chip": "ym2612"
    },
    {
      "channel": 2,
      "note": 17,
      "start": 151.455,
      "duration": 0.1638,
      "velocity": 113,
      "chip": "ym2612"
    },
    {
      "channel": 3,
      "note": 62,
      "start": 151.4556,
      "duration": 0.1471,
      "velocity": 118,
      "chip": "ym2612"
    },
    {
      "channel": 4,
      "note": 53,
      "start": 151.4569,
      "duration": 0.0968,
      "velocity": 127,
      "chip": "ym2612"
    },
    {
      "channel": 0,
      "note": 51,
      "start": 151.6181,
      "duration": 0.1649,
      "velocity": 84,
      "chip": "ym2612"
    },
    {
      "channel": 1,
      "note": 29,
      "start": 151.6187,
      "duration": 0.165,
      "velocity": 1,
      "chip": "ym2612"
    },
    {
      "channel": 2,
      "note": 17,
      "start": 151.6193,
      "duration": 0.1656,
      "velocity": 113,
      "chip": "ym2612"
    },
    {
      "channel": 3,
      "note": 58,
      "start": 151.6207,
      "duration": 0.1655,
      "velocity": 127,
      "chip": "ym2612"
    },
    {
      "channel": 4,
      "note": 53,
      "start": 151.622,
      "duration": 0.0973,
      "velocity": 127,
      "chip": "ym2612"
    },
    {
      "channel": 0,
      "note": 49,
      "start": 151.7836,
      "duration": 0.1649,
      "velocity": 83,
      "chip": "ym2612"
    },
    {
      "channel": 1,
      "note": 18,
      "start": 151.7847,
      "duration": 0.1481,
      "velocity": 127,
      "chip": "ym2612"
    },
    {
      "channel": 2,
      "note": 17,
      "start": 151.786,
      "duration": 0.1644,
      "velocity": 1,
      "chip": "ym2612"
    },
    {
      "channel": 3,
      "note": 62,
      "start": 151.7872,
      "duration": 0.1466,
      "velocity": 118,
      "chip": "ym2612"
    },
    {
      "channel": 4,
      "note": 53,
      "start": 151.7885,
      "duration": 0.0963,
      "velocity": 127,
      "chip": "ym2612"
    },
    {
      "channel": 0,
      "note": 48,
      "start": 151.9491,
      "duration": 0.1649,
      "velocity": 82,
      "chip": "ym2612"
    },
    {
      "channel": 1,
      "note": 29,
      "start": 151.9503,
      "duration": 0.1644,
      "velocity": 1,
      "chip": "ym2612"
    },
    {
      "channel": 2,
      "note": 15,
      "start": 151.9515,
      "duration": 0.1639,
      "velocity": 113,
      "chip": "ym2612"
    },
    {
      "channel": 3,
      "note": 62,
      "start": 151.9522,
      "duration": 0.1471,
      "velocity": 118,
      "chip": "ym2612"
    },
    {
      "channel": 4,
      "note": 53,
      "start": 151.9534,
      "duration": 0.0968,
      "velocity": 127,
      "chip": "ym2612"
    },
    {
      "channel": 0,
      "note": 49,
      "start": 152.1146,
      "duration": 0.1649,
      "velocity": 81,
      "chip": "ym2612"
    },
    {
      "channel": 1,
      "note": 29,
      "start": 152.1153,
      "duration": 0.165,
      "velocity": 1,
      "chip": "ym2612"
    },
    {
      "channel": 2,
      "note": 17,
      "start": 152.1159,
      "duration": 0.165,
      "velocity": 113,
      "chip": "ym2612"
    },
    {
      "channel": 3,
      "note": 58,
      "start": 152.1172,
      "duration": 0.1644,
      "velocity": 127,
      "chip": "ym2612"
    },
    {
      "channel": 4,
      "note": 53,
      "start": 152.1185,
      "duration": 0.0974,
      "velocity": 127,
      "chip": "ym2612"
    },
    {
      "channel": 0,
      "note": 48,
      "start": 152.2802,
      "duration": 0.1649,
      "velocity": 80,
      "chip": "ym2612"
    },
    {
      "channel": 1,
      "note": 29,
      "start": 152.2808,
      "duration": 0.165,
      "velocity": 1,
      "chip": "ym2612"
    },
    {
      "channel": 2,
      "note": 17,
      "start": 152.2814,
      "duration": 0.165,
      "velocity": 113,
      "chip": "ym2612"
    },
    {
      "channel": 3,
      "note": 29,
      "start": 152.2827,
      "duration": 0.1644,
      "velocity": 1,
      "chip": "ym2612"
    },
    {
      "channel": 4,
      "note": 53,
      "start": 152.284,
      "duration": 0.0974,
      "velocity": 127,
      "chip": "ym2612"
    },
    {
      "channel": 0,
      "note": 49,
      "start": 152.4457,
      "duration": 0.1649,
      "velocity": 81,
      "chip": "ym2612"
    },
    {
      "channel": 1,
      "note": 29,
      "start": 152.4463,
      "duration": 0.165,
      "velocity": 1,
      "chip": "ym2612"
    },
    {
      "channel": 2,
      "note": 17,
      "start": 152.447,
      "duration": 0.1656,
      "velocity": 113,
      "chip": "ym2612"
    },
    {
      "channel": 3,
      "note": 62,
      "start": 152.4481,
      "duration": 0.1478,
      "velocity": 118,
      "chip": "ym2612"
    },
    {
      "channel": 4,
      "note": 53,
      "start": 152.4494,
      "duration": 0.0974,
      "velocity": 127,
      "chip": "ym2612"
    },
    {
      "channel": 0,
      "note": 51,
      "start": 152.6112,
      "duration": 0.1649,
      "velocity": 82,
      "chip": "ym2612"
    },
    {
      "channel": 1,
      "note": 18,
      "start": 152.6124,
      "duration": 0.1481,
      "velocity": 127,
      "chip": "ym2612"
    },
    {
      "channel": 2,
      "note": 17,
      "start": 152.6136,
      "duration": 0.1644,
      "velocity": 1,
      "chip": "ym2612"
    },
    {
      "channel": 3,
      "note": 62,
      "start": 152.6143,
      "duration": 0.1472,
      "velocity": 118,
      "chip": "ym2612"
    },
    {
      "channel": 4,
      "note": 53,
      "start": 152.6155,
      "duration": 0.0968,
      "velocity": 127,
      "chip": "ym2612"
    },
    {
      "channel": 0,
      "note": 53,
      "start": 152.7767,
      "duration": 0.1649,
      "velocity": 83,
      "chip": "ym2612"
    },
    {
      "channel": 1,
      "note": 29,
      "start": 152.7779,
      "duration": 0.1645,
      "velocity": 1,
      "chip": "ym2612"
    },
    {
      "channel": 2,
      "note": 17,
      "start": 152.7791,
      "duration": 0.1639,
      "velocity": 113,
      "chip": "ym2612"
    },
    {
      "channel": 3,
      "note": 62,
      "start": 152.7798,
      "duration": 0.1471,
      "velocity": 118,
      "chip": "ym2612"
    },
    {
      "channel": 4,
      "note": 53,
      "start": 152.781,
      "duration": 0.0968,
      "velocity": 127,
      "chip": "ym2612"
    },
    {
      "channel": 0,
      "note": 51,
      "start": 152.9422,
      "duration": 0.1649,
      "velocity": 84,
      "chip": "ym2612"
    },
    {
      "channel": 1,
      "note": 29,
      "start": 152.9429,
      "duration": 0.165,
      "velocity": 1,
      "chip": "ym2612"
    },
    {
      "channel": 2,
      "note": 17,
      "start": 152.9435,
      "duration": 0.1656,
      "velocity": 113,
      "chip": "ym2612"
    },
    {
      "channel": 3,
      "note": 58,
      "start": 152.9448,
      "duration": 0.1655,
      "velocity": 127,
      "chip": "ym2612"
    },
    {
      "channel": 4,
      "note": 53,
      "start": 152.9461,
      "duration": 0.0974,
      "velocity": 127,
      "chip": "ym2612"
    },
    {
      "channel": 0,
      "note": 49,
      "start": 153.1078,
      "duration": 0.1649,
      "velocity": 85,
      "chip": "ym2612"
    },
    {
      "channel": 1,
      "note": 18,
      "start": 153.109,
      "duration": 0.1481,
      "velocity": 127,
      "chip": "ym2612"
    },
    {
      "channel": 2,
      "note": 17,
      "start": 153.1102,
      "duration": 0.1644,
      "velocity": 1,
      "chip": "ym2612"
    },
    {
      "channel": 3,
      "note": 62,
      "start": 153.1114,
      "duration": 0.1466,
      "velocity": 118,
      "chip": "ym2612"
    },
    {
      "channel": 4,
      "note": 53,
      "start": 153.1127,
      "duration": 0.0963,
      "velocity": 127,
      "chip": "ym2612"
    },
    {
      "channel": 0,
      "note": 48,
      "start": 153.2733,
      "duration": 0.1649,
      "velocity": 86,
      "chip": "ym2612"
    },
    {
      "channel": 1,
      "note": 29,
      "start": 153.2745,
      "duration": 0.1645,
      "velocity": 1,
      "chip": "ym2612"
    },
    {
      "channel": 2,
      "note": 17,
      "start": 153.2757,
      "duration": 0.1639,
      "velocity": 113,
      "chip": "ym2612"
    },
    {
      "channel": 3,
      "note": 62,
      "start": 153.2763,
      "duration": 0.1472,
      "velocity": 118,
      "chip": "ym2612"
    },
    {
      "channel": 4,
      "note": 53,
      "start": 153.2776,
      "duration": 0.0968,
      "velocity": 127,
      "chip": "ym2612"
    },
    {
      "channel": 0,
      "note": 46,
      "start": 153.4388,
      "duration": 0.165,
      "velocity": 87,
      "chip": "ym2612"
    },
    {
      "channel": 1,
      "note": 29,
      "start": 153.4395,
      "duration": 0.1651,
      "velocity": 1,
      "chip": "ym2612"
    },
    {
      "channel": 2,
      "note": 17,
      "start": 153.4401,
      "duration": 0.1651,
      "velocity": 113,
      "chip": "ym2612"
    },
    {
      "channel": 3,
      "note": 62,
      "start": 153.4407,
      "duration": 0.1483,
      "velocity": 118,
      "chip": "ym2612"
    },
    {
      "channel": 4,
      "note": 53,
      "start": 153.442,
      "duration": 0.098,
      "velocity": 127,
      "chip": "ym2612"
    },
    {
      "channel": 0,
      "note": 48,
      "start": 153.6044,
      "duration": 0.1648,
      "velocity": 85,
      "chip": "ym2612"
    },
    {
      "channel": 1,
      "note": 29,
      "start": 153.605,
      "duration": 0.165,
      "velocity": 1,
      "chip": "ym2612"
    },
    {
      "channel": 2,
      "note": 17,
      "start": 153.6057,
      "duration": 0.1651,
      "velocity": 113,
      "chip": "ym2612"
    },
    {
      "channel": 3,
      "note": 29,
      "start": 153.6069,
      "duration": 0.1644,
      "velocity": 1,
      "chip": "ym2612"
    },
    {
      "channel": 4,
      "note": 53,
      "start": 153.6076,
      "duration": 0.098,
      "velocity": 127,
      "chip": "ym2612"
    },
    {
      "channel": 5,
      "note": 53,
      "start": 153.6083,
      "duration": 0.0978,
      "velocity": 1,
      "chip": "ym2612"
    },
    {
      "channel": 0,
      "note": 49,
      "start": 153.7698,
      "duration": 0.1649,
      "velocity": 87,
      "chip": "ym2612"
    },
    {
      "channel": 1,
      "note": 29,
      "start": 153.7705,
      "duration": 0.165,
      "velocity": 1,
      "chip": "ym2612"
    },
    {
      "channel": 2,
      "note": 17,
      "start": 153.7712,
      "duration": 0.1655,
      "velocity": 113,
      "chip": "ym2612"
    },
    {
      "channel": 3,
      "note": 62,
      "start": 153.7724,
      "duration": 0.1477,
      "velocity": 118,
      "chip": "ym2612"
    },
    {
      "channel": 4,
      "note": 53,
      "start": 153.7737,
      "duration": 0.0974,
      "velocity": 127,
      "chip": "ym2612"
    },
    {
      "channel": 0,
      "note": 51,
      "start": 153.9354,
      "duration": 0.1649,
      "velocity": 86,
      "chip": "ym2612"
    },
    {
      "channel": 1,
      "note": 18,
      "start": 153.9366,
      "duration": 0.1481,
      "velocity": 127,
      "chip": "ym2612"
    },
    {
      "channel": 2,
      "note": 17,
      "start": 153.9378,
      "duration": 0.1644,
      "velocity": 1,
      "chip": "ym2612"
    },
    {
      "channel": 3,
      "note": 62,
      "start": 153.9385,
      "duration": 0.1471,
      "velocity": 118,
      "chip": "ym2612"
    },
    {
      "channel": 4,
      "note": 53,
      "start": 153.9398,
      "duration": 0.0967,
      "velocity": 127,
      "chip": "ym2612"
    },
    {
      "channel": 0,
      "note": 53,
      "start": 154.1009,
      "duration": 0.165,
      "velocity": 85,
      "chip": "ym2612"
    },
    {
      "channel": 1,
      "note": 29,
      "start": 154.1021,
      "duration": 0.1645,
      "velocity": 1,
      "chip": "ym2612"
    },
    {
      "channel": 2,
      "note": 17,
      "start": 154.1033,
      "duration": 0.1639,
      "velocity": 113,
      "chip": "ym2612"
    },
    {
      "channel": 3,
      "note": 62,
      "start": 154.104,
      "duration": 0.1471,
      "velocity": 118,
      "chip": "ym2612"
    },
    {
      "channel": 4,
      "note": 53,
      "start": 154.1053,
      "duration": 0.0968,
      "velocity": 127,
      "chip": "ym2612"
    },
    {
      "channel": 0,
      "note": 51,
      "start": 154.2664,
      "duration": 0.1649,
      "velocity": 84,
      "chip": "ym2612"
    },
    {
      "channel": 1,
      "note": 29,
      "start": 154.2671,
      "duration": 0.165,
      "velocity": 1,
      "chip": "ym2612"
    },
    {
      "channel": 2,
      "note": 17,
      "start": 154.2677,
      "duration": 0.1656,
      "velocity": 113,
      "chip": "ym2612"
    },
    {
      "channel": 3,
      "note": 58,
      "start": 154.269,
      "duration": 0.1656,
      "velocity": 127,
      "chip": "ym2612"
    },
    {
      "channel": 4,
      "note": 53,
      "start": 154.2703,
      "duration": 0.0973,
      "velocity": 127,
      "chip": "ym2612"
    },
    {
      "channel": 0,
      "note": 49,
      "start": 154.4319,
      "duration": 0.165,
      "velocity": 83,
      "chip": "ym2612"
    },
    {
      "channel": 1,
      "note": 18,
      "start": 154.4332,
      "duration": 0.1481,
      "velocity": 127,
      "chip": "ym2612"
    },
    {
      "channel": 2,
      "note": 17,
      "start": 154.4344,
      "duration": 0.1645,
      "velocity": 1,
      "chip": "ym2612"
    },
    {
      "channel": 3,
      "note": 62,
      "start": 154.4356,
      "duration": 0.1466,
      "velocity": 118,
      "chip": "ym2612"
    },
    {
      "channel": 4,
      "note": 53,
      "start": 154.4369,
      "duration": 0.0962,
      "velocity": 127,
      "chip": "ym2612"
    },
    {
      "channel": 0,
      "note": 48,
      "start": 154.5975,
      "duration": 0.1649,
      "velocity": 82,
      "chip": "ym2612"
    },
    {
      "channel": 1,
      "note": 29,
      "start": 154.5987,
      "duration": 0.1644,
      "velocity": 1,
      "chip": "ym2612"
    },
    {
      "channel": 2,
      "note": 15,
      "start": 154.5999,
      "duration": 0.1639,
      "velocity": 113,
      "chip": "ym2612"
    },
    {
      "channel": 3,
      "note": 62,
      "start": 154.6006,
      "duration": 0.1471,
      "velocity": 118,
      "chip": "ym2612"
    },
    {
      "channel": 4,
      "note": 53,
      "start": 154.6019,
      "duration": 0.0967,
      "velocity": 127,
      "chip": "ym2612"
    },
    {
      "channel": 0,
      "note": 49,
      "start": 154.763,
      "duration": 0.1649,
      "velocity": 81,
      "chip": "ym2612"
    },
    {
      "channel": 1,
      "note": 29,
      "start": 154.7637,
      "duration": 0.165,
      "velocity": 1,
      "chip": "ym2612"
    },
    {
      "channel": 2,
      "note": 17,
      "start": 154.7643,
      "duration": 0.165,
      "velocity": 113,
      "chip": "ym2612"
    },
    {
      "channel": 3,
      "note": 58,
      "start": 154.7656,
      "duration": 0.1644,
      "velocity": 127,
      "chip": "ym2612"
    },
    {
      "channel": 4,
      "note": 53,
      "start": 154.7669,
      "duration": 0.0973,
      "velocity": 127,
      "chip": "ym2612"
    },
    {
      "channel": 0,
      "note": 48,
      "start": 154.9286,
      "duration": 0.1649,
      "velocity": 80,
      "chip": "ym2612"
    },
    {
      "channel": 1,
      "note": 29,
      "start": 154.9292,
      "duration": 0.165,
      "velocity": 1,
      "chip": "ym2612"
    },
    {
      "channel": 2,
      "note": 17,
      "start": 154.9298,
      "duration": 0.165,
      "velocity": 113,
      "chip": "ym2612"
    },
    {
      "channel": 3,
      "note": 29,
      "start": 154.9311,
      "duration": 0.1644,
      "velocity": 1,
      "chip": "ym2612"
    },
    {
      "channel": 4,
      "note": 53,
      "start": 154.9324,
      "duration": 0.0974,
      "velocity": 127,
      "chip": "ym2612"
    },
    {
      "channel": 0,
      "note": 49,
      "start": 155.0941,
      "duration": 0.1649,
      "velocity": 81,
      "chip": "ym2612"
    },
    {
      "channel": 1,
      "note": 29,
      "start": 155.0947,
      "duration": 0.165,
      "velocity": 1,
      "chip": "ym2612"
    },
    {
      "channel": 2,
      "note": 17,
      "start": 155.0954,
      "duration": 0.1656,
      "velocity": 113,
      "chip": "ym2612"
    },
    {
      "channel": 3,
      "note": 62,
      "start": 155.0965,
      "duration": 0.1478,
      "velocity": 118,
      "chip": "ym2612"
    },
    {
      "channel": 4,
      "note": 53,
      "start": 155.0978,
      "duration": 0.0974,
      "velocity": 127,
      "chip": "ym2612"
    },
    {
      "channel": 0,
      "note": 51,
      "start": 155.2596,
      "duration": 0.1649,
      "velocity": 82,
      "chip": "ym2612"
    },
    {
      "channel": 1,
      "note": 18,
      "start": 155.2608,
      "duration": 0.1481,
      "velocity": 127,
      "chip": "ym2612"
    },
    {
      "channel": 2,
      "note": 17,
      "start": 155.262,
      "duration": 0.1644,
      "velocity": 1,
      "chip": "ym2612"
    },
    {
      "channel": 3,
      "note": 62,
      "start": 155.2627,
      "duration": 0.1472,
      "velocity": 118,
      "chip": "ym2612"
    },
    {
      "channel": 4,
      "note": 53,
      "start": 155.2639,
      "duration": 0.0968,
      "velocity": 127,
      "chip": "ym2612"
    },
    {
      "channel": 0,
      "note": 53,
      "start": 155.4251,
      "duration": 0.1649,
      "velocity": 83,
      "chip": "ym2612"
    },
    {
      "channel": 1,
      "note": 29,
      "start": 155.4263,
      "duration": 0.1644,
      "velocity": 1,
      "chip": "ym2612"
    },
    {
      "channel": 2,
      "note": 17,
      "start": 155.4276,
      "duration": 0.1639,
      "velocity": 113,
      "chip": "ym2612"
    },
    {
      "channel": 3,
      "note": 62,
      "start": 155.4282,
      "duration": 0.1471,
      "velocity": 118,
      "chip": "ym2612"
    },
    {
      "channel": 4,
      "note": 53,
      "start": 155.4295,
      "duration": 0.0968,
      "velocity": 127,
      "chip": "ym2612"
    },
    {
      "channel": 0,
      "note": 51,
      "start": 155.5907,
      "duration": 0.1649,
      "velocity": 84,
      "chip": "ym2612"
    },
    {
      "channel": 1,
      "note": 29,
      "start": 155.5913,
      "duration": 0.165,
      "velocity": 1,
      "chip": "ym2612"
    },
    {
      "channel": 2,
      "note": 17,
      "start": 155.5919,
      "duration": 0.1656,
      "velocity": 113,
      "chip": "ym2612"
    },
    {
      "channel": 3,
      "note": 58,
      "start": 155.5932,
      "duration": 0.1655,
      "velocity": 127,
      "chip": "ym2612"
    },
    {
      "channel": 4,
      "note": 53,
      "start": 155.5945,
      "duration": 0.0974,
      "velocity": 127,
      "chip": "ym2612"
    },
    {
      "channel": 0,
      "note": 49,
      "start": 155.7562,
      "duration": 0.1649,
      "velocity": 85,
      "chip": "ym2612"
    },
    {
      "channel": 1,
      "note": 18,
      "start": 155.7574,
      "duration": 0.1481,
      "velocity": 127,
      "chip": "ym2612"
    },
    {
      "channel": 2,
      "note": 17,
      "start": 155.7586,
      "duration": 0.1644,
      "velocity": 1,
      "chip": "ym2612"
    },
    {
      "channel": 3,
      "note": 62,
      "start": 155.7598,
      "duration": 0.1466,
      "velocity": 118,
      "chip": "ym2612"
    },
    {
      "channel": 4,
      "note": 53,
      "start": 155.7611,
      "duration": 0.0963,
      "velocity": 127,
      "chip": "ym2612"
    },
    {
      "channel": 0,
      "note": 48,
      "start": 155.9217,
      "duration": 0.1649,
      "velocity": 86,
      "chip": "ym2612"
    },
    {
      "channel": 1,
      "note": 29,
      "start": 155.9229,
      "duration": 0.1645,
      "velocity": 1,
      "chip": "ym2612"
    },
    {
      "channel": 2,
      "note": 17,
      "start": 155.9241,
      "duration": 0.1639,
      "velocity": 113,
      "chip": "ym2612"
    },
    {
      "channel": 3,
      "note": 62,
      "start": 155.9247,
      "duration": 0.1472,
      "velocity": 118,
      "chip": "ym2612"
    },
    {
      "channel": 4,
      "note": 53,
      "start": 155.926,
      "duration": 0.0968,
      "velocity": 127,
      "chip": "ym2612"
    },
    {
      "channel": 0,
      "note": 46,
      "start": 156.0873,
      "duration": 0.1648,
      "velocity": 87,
      "chip": "ym2612"
    },
    {
      "channel": 1,
      "note": 29,
      "start": 156.0879,
      "duration": 0.165,
      "velocity": 1,
      "chip": "ym2612"
    },
    {
      "channel": 2,
      "note": 17,
      "start": 156.0885,
      "duration": 0.165,
      "velocity": 113,
      "chip": "ym2612"
    },
    {
      "channel": 3,
      "note": 62,
      "start": 156.0891,
      "duration": 0.1484,
      "velocity": 118,
      "chip": "ym2612"
    },
    {
      "channel": 4,
      "note": 53,
      "start": 156.0905,
      "duration": 0.0979,
      "velocity": 127,
      "chip": "ym2612"
    },
    {
      "channel": 0,
      "note": 48,
      "start": 156.2527,
      "duration": 0.1649,
      "velocity": 85,
      "chip": "ym2612"
    },
    {
      "channel": 1,
      "note": 29,
      "start": 156.2534,
      "duration": 0.1651,
      "velocity": 1,
      "chip": "ym2612"
    },
    {
      "channel": 2,
      "note": 17,
      "start": 156.2541,
      "duration": 0.165,
      "velocity": 113,
      "chip": "ym2612"
    },
    {
      "channel": 3,
      "note": 29,
      "start": 156.2554,
      "duration": 0.1643,
      "velocity": 1,
      "chip": "ym2612"
    },
    {
      "channel": 4,
      "note": 53,
      "start": 156.2561,
      "duration": 0.0979,
      "velocity": 127,
      "chip": "ym2612"
    },
    {
      "channel": 5,
      "note": 53,
      "start": 156.2567,
      "duration": 0.0978,
      "velocity": 1,
      "chip": "ym2612"
    },
    {
      "channel": 0,
      "note": 49,
      "start": 156.4183,
      "duration": 0.1649,
      "velocity": 87,
      "chip": "ym2612"
    },
    {
      "channel": 1,
      "note": 29,
      "start": 156.4189,
      "duration": 0.165,
      "velocity": 1,
      "chip": "ym2612"
    },
    {
      "channel": 2,
      "note": 17,
      "start": 156.4195,
      "duration": 0.1656,
      "velocity": 113,
      "chip": "ym2612"
    },
    {
      "channel": 3,
      "note": 62,
      "start": 156.4207,
      "duration": 0.1478,
      "velocity": 118,
      "chip": "ym2612"
    },
    {
      "channel": 4,
      "note": 53,
      "start": 156.4221,
      "duration": 0.0973,
      "velocity": 127,
      "chip": "ym2612"
    },
    {
      "channel": 0,
      "note": 51,
      "start": 156.5838,
      "duration": 0.1649,
      "velocity": 86,
      "chip": "ym2612"
    },
    {
      "channel": 1,
      "note": 18,
      "start": 156.585,
      "duration": 0.1481,
      "velocity": 127,
      "chip": "ym2612"
    },
    {
      "channel": 2,
      "note": 17,
      "start": 156.5862,
      "duration": 0.1644,
      "velocity": 1,
      "chip": "ym2612"
    },
    {
      "channel": 3,
      "note": 62,
      "start": 156.5868,
      "duration": 0.1472,
      "velocity": 118,
      "chip": "ym2612"
    },
    {
      "channel": 4,
      "note": 53,
      "start": 156.5882,
      "duration": 0.0968,
      "velocity": 127,
      "chip": "ym2612"
    },
    {
      "channel": 0,
      "note": 53,
      "start": 156.7493,
      "duration": 0.1649,
      "velocity": 85,
      "chip": "ym2612"
    },
    {
      "channel": 1,
      "note": 29,
      "start": 156.7505,
      "duration": 0.1645,
      "velocity": 1,
      "chip": "ym2612"
    },
    {
      "channel": 2,
      "note": 17,
      "start": 156.7517,
      "duration": 0.1639,
      "velocity": 113,
      "chip": "ym2612"
    },
    {
      "channel": 3,
      "note": 62,
      "start": 156.7524,
      "duration": 0.1472,
      "velocity": 118,
      "chip": "ym2612"
    },
    {
      "channel": 4,
      "note": 53,
      "start": 156.7537,
      "duration": 0.0968,
      "velocity": 127,
      "chip": "ym2612"
    },
    {
      "channel": 0,
      "note": 51,
      "start": 156.9148,
      "duration": 0.1649,
      "velocity": 84,
      "chip": "ym2612"
    },
    {
      "channel": 1,
      "note": 29,
      "start": 156.9155,
      "duration": 0.165,
      "velocity": 1,
      "chip": "ym2612"
    },
    {
      "channel": 2,
      "note": 17,
      "start": 156.9161,
      "duration": 0.1656,
      "velocity": 113,
      "chip": "ym2612"
    },
    {
      "channel": 3,
      "note": 58,
      "start": 156.9174,
      "duration": 0.1655,
      "velocity": 127,
      "chip": "ym2612"
    },
    {
      "channel": 4,
      "note": 53,
      "start": 156.9187,
      "duration": 0.0973,
      "velocity": 127,
      "chip": "ym2612"
    },
    {
      "channel": 0,
      "note": 49,
      "start": 157.0803,
      "duration": 0.165,
      "velocity": 83,
      "chip": "ym2612"
    },
    {
      "channel": 1,
      "note": 18,
      "start": 157.0816,
      "duration": 0.1481,
      "velocity": 127,
      "chip": "ym2612"
    },
    {
      "channel": 2,
      "note": 17,
      "start": 157.0828,
      "duration": 0.1644,
      "velocity": 1,
      "chip": "ym2612"
    },
    {
      "channel": 3,
      "note": 62,
      "start": 157.084,
      "duration": 0.1466,
      "velocity": 118,
      "chip": "ym2612"
    },
    {
      "channel": 4,
      "note": 53,
      "start": 157.0852,
      "duration": 0.0963,
      "velocity": 127,
      "chip": "ym2612"
    },
    {
      "channel": 0,
      "note": 48,
      "start": 157.2459,
      "duration": 0.1649,
      "velocity": 82,
      "chip": "ym2612"
    },
    {
      "channel": 1,
      "note": 29,
      "start": 157.2471,
      "duration": 0.1645,
      "velocity": 1,
      "chip": "ym2612"
    },
    {
      "channel": 2,
      "note": 15,
      "start": 157.2483,
      "duration": 0.1639,
      "velocity": 113,
      "chip": "ym2612"
    },
    {
      "channel": 3,
      "note": 62,
      "start": 157.2489,
      "duration": 0.1472,
      "velocity": 118,
      "chip": "ym2612"
    },
    {
      "channel": 4,
      "note": 53,
      "start": 157.2502,
      "duration": 0.0968,
      "velocity": 127,
      "chip": "ym2612"
    },
    {
      "channel": 0,
      "note": 49,
      "start": 157.4114,
      "duration": 0.165,
      "velocity": 81,
      "chip": "ym2612"
    },
    {
      "channel": 1,
      "note": 29,
      "start": 157.412,
      "duration": 0.1651,
      "velocity": 1,
      "chip": "ym2612"
    },
    {
      "channel": 2,
      "note": 17,
      "start": 157.4127,
      "duration": 0.1651,
      "velocity": 113,
      "chip": "ym2612"
    },
    {
      "channel": 3,
      "note": 58,
      "start": 157.4139,
      "duration": 0.1644,
      "velocity": 127,
      "chip": "ym2612"
    },
    {
      "channel": 4,
      "note": 53,
      "start": 157.4153,
      "duration": 0.0973,
      "velocity": 127,
      "chip": "ym2612"
    },
    {
      "channel": 0,
      "note": 48,
      "start": 157.577,
      "duration": 0.1649,
      "velocity": 80,
      "chip": "ym2612"
    },
    {
      "channel": 1,
      "note": 29,
      "start": 157.5776,
      "duration": 0.165,
      "velocity": 1,
      "chip": "ym2612"
    },
    {
      "channel": 2,
      "note": 17,
      "start": 157.5783,
      "duration": 0.165,
      "velocity": 113,
      "chip": "ym2612"
    },
    {
      "channel": 3,
      "note": 29,
      "start": 157.5795,
      "duration": 0.1644,
      "velocity": 1,
      "chip": "ym2612"
    },
    {
      "channel": 4,
      "note": 53,
      "start": 157.5808,
      "duration": 0.0973,
      "velocity": 127,
      "chip": "ym2612"
    },
    {
      "channel": 0,
      "note": 49,
      "start": 157.7425,
      "duration": 0.1649,
      "velocity": 81,
      "chip": "ym2612"
    },
    {
      "channel": 1,
      "note": 29,
      "start": 157.7431,
      "duration": 0.165,
      "velocity": 1,
      "chip": "ym2612"
    },
    {
      "channel": 2,
      "note": 17,
      "start": 157.7438,
      "duration": 0.1656,
      "velocity": 113,
      "chip": "ym2612"
    },
    {
      "channel": 3,
      "note": 62,
      "start": 157.7449,
      "duration": 0.1478,
      "velocity": 118,
      "chip": "ym2612"
    },
    {
      "channel": 4,
      "note": 53,
      "start": 157.7463,
      "duration": 0.0973,
      "velocity": 127,
      "chip": "ym2612"
    },
    {
      "channel": 0,
      "note": 51,
      "start": 157.908,
      "duration": 0.1649,
      "velocity": 82,
      "chip": "ym2612"
    },
    {
      "channel": 1,
      "note": 18,
      "start": 157.9092,
      "duration": 0.1481,
      "velocity": 127,
      "chip": "ym2612"
    },
    {
      "channel": 2,
      "note": 17,
      "start": 157.9104,
      "duration": 0.1644,
      "velocity": 1,
      "chip": "ym2612"
    },
    {
      "channel": 3,
      "note": 62,
      "start": 157.911,
      "duration": 0.1473,
      "velocity": 118,
      "chip": "ym2612"
    },
    {
      "channel": 4,
      "note": 53,
      "start": 157.9123,
      "duration": 0.0968,
      "velocity": 127,
      "chip": "ym2612"
    },
    {
      "channel": 0,
      "note": 53,
      "start": 158.0735,
      "duration": 0.1649,
      "velocity": 83,
      "chip": "ym2612"
    },
    {
      "channel": 1,
      "note": 29,
      "start": 158.0747,
      "duration": 0.1644,
      "velocity": 1,
      "chip": "ym2612"
    },
    {
      "channel": 2,
      "note": 17,
      "start": 158.076,
      "duration": 0.1639,
      "velocity": 113,
      "chip": "ym2612"
    },
    {
      "channel": 3,
      "note": 62,
      "start": 158.0766,
      "duration": 0.1471,
      "velocity": 118,
      "chip": "ym2612"
    },
    {
      "channel": 4,
      "note": 53,
      "start": 158.0779,
      "duration": 0.0968,
      "velocity": 127,
      "chip": "ym2612"
    },
    {
      "channel": 0,
      "note": 51,
      "start": 158.2391,
      "duration": 0.1649,
      "velocity": 84,
      "chip": "ym2612"
    },
    {
      "channel": 1,
      "note": 29,
      "start": 158.2397,
      "duration": 0.1651,
      "velocity": 1,
      "chip": "ym2612"
    },
    {
      "channel": 2,
      "note": 17,
      "start": 158.2403,
      "duration": 0.1656,
      "velocity": 113,
      "chip": "ym2612"
    },
    {
      "channel": 3,
      "note": 58,
      "start": 158.2416,
      "duration": 0.1656,
      "velocity": 127,
      "chip": "ym2612"
    },
    {
      "channel": 4,
      "note": 53,
      "start": 158.2429,
      "duration": 0.0974,
      "velocity": 127,
      "chip": "ym2612"
    },
    {
      "channel": 0,
      "note": 49,
      "start": 158.4046,
      "duration": 0.1648,
      "velocity": 85,
      "chip": "ym2612"
    },
    {
      "channel": 1,
      "note": 18,
      "start": 158.4058,
      "duration": 0.1481,
      "velocity": 127,
      "chip": "ym2612"
    },
    {
      "channel": 2,
      "note": 17,
      "start": 158.4071,
      "duration": 0.1644,
      "velocity": 1,
      "chip": "ym2612"
    },
    {
      "channel": 3,
      "note": 62,
      "start": 158.4083,
      "duration": 0.1466,
      "velocity": 118,
      "chip": "ym2612"
    },
    {
      "channel": 4,
      "note": 53,
      "start": 158.4095,
      "duration": 0.0962,
      "velocity": 127,
      "chip": "ym2612"
    },
    {
      "channel": 0,
      "note": 48,
      "start": 158.5701,
      "duration": 0.1649,
      "velocity": 86,
      "chip": "ym2612"
    },
    {
      "channel": 1,
      "note": 29,
      "start": 158.5714,
      "duration": 0.1644,
      "velocity": 1,
      "chip": "ym2612"
    },
    {
      "channel": 2,
      "note": 17,
      "start": 158.5726,
      "duration": 0.1639,
      "velocity": 113,
      "chip": "ym2612"
    },
    {
      "channel": 3,
      "note": 62,
      "start": 158.5732,
      "duration": 0.1471,
      "velocity": 118,
      "chip": "ym2612"
    },
    {
      "channel": 4,
      "note": 53,
      "start": 158.5745,
      "duration": 0.0968,
      "velocity": 127,
      "chip": "ym2612"
    },
    {
      "channel": 0,
      "note": 46,
      "start": 158.7356,
      "duration": 0.1649,
      "velocity": 87,
      "chip": "ym2612"
    },
    {
      "channel": 1,
      "note": 29,
      "start": 158.7363,
      "duration": 0.1656,
      "velocity": 1,
      "chip": "ym2612"
    },
    {
      "channel": 2,
      "note": 17,
      "start": 158.7369,
      "duration": 0.1663,
      "velocity": 113,
      "chip": "ym2612"
    },
    {
      "channel": 3,
      "note": 62,
      "start": 158.7375,
      "duration": 0.1483,
      "velocity": 118,
      "chip": "ym2612"
    },
    {
      "channel": 4,
      "note": 53,
      "start": 158.7389,
      "duration": 0.0979,
      "velocity": 127,
      "chip": "ym2612"
    },
    {
      "channel": 0,
      "note": 44,
      "start": 158.9018,
      "duration": 0.1642,
      "velocity": 114,
      "chip": "ym2612"
    },
    {
      "channel": 1,
      "note": 48,
      "start": 158.9031,
      "duration": 0.1639,
      "velocity": 108,
      "chip": "ym2612"
    },
    {
      "channel": 2,
      "note": 17,
      "start": 158.9038,
      "duration": 0.1639,
      "velocity": 113,
      "chip": "ym2612"
    },
    {
      "channel": 3,
      "note": 29,
      "start": 158.905,
      "duration": 0.1632,
      "velocity": 1,
      "chip": "ym2612"
    },
    {
      "channel": 4,
      "note": 53,
      "start": 158.9057,
      "duration": 0.0968,
      "velocity": 127,
      "chip": "ym2612"
    },
    {
      "channel": 5,
      "note": 29,
      "start": 158.9072,
      "duration": 0.1636,
      "velocity": 126,
      "chip": "ym2612"
    },
    {
      "channel": 0,
      "note": 44,
      "start": 159.0667,
      "duration": 0.1648,
      "velocity": 114,
      "chip": "ym2612"
    },
    {
      "channel": 1,
      "note": 41,
      "start": 159.0674,
      "duration": 0.165,
      "velocity": 108,
      "chip": "ym2612"
    },
    {
      "channel": 2,
      "note": 17,
      "start": 159.0681,
      "duration": 0.165,
      "velocity": 113,
      "chip": "ym2612"
    },
    {
      "channel": 3,
      "note": 62,
      "start": 159.0693,
      "duration": 0.1478,
      "velocity": 118,
      "chip": "ym2612"
    },
    {
      "channel": 4,
      "note": 53,
      "start": 159.0706,
      "duration": 0.0973,
      "velocity": 127,
      "chip": "ym2612"
    },
    {
      "channel": 5,
      "note": 41,
      "start": 159.0715,
      "duration": 0.1648,
      "velocity": 126,
      "chip": "ym2612"
    },
    {
      "channel": 0,
      "note": 44,
      "start": 159.2323,
      "duration": 0.1648,
      "velocity": 114,
      "chip": "ym2612"
    },
    {
      "channel": 1,
      "note": 44,
      "start": 159.2329,
      "duration": 0.165,
      "velocity": 108,
      "chip": "ym2612"
    },
    {
      "channel": 2,
      "note": 17,
      "start": 159.2342,
      "duration": 0.1644,
      "velocity": 1,
      "chip": "ym2612"
    },
    {
      "channel": 3,
      "note": 62,
      "start": 159.2348,
      "duration": 0.1478,
      "velocity": 118,
      "chip": "ym2612"
    },
    {
      "channel": 4,
      "note": 53,
      "start": 159.2361,
      "duration": 0.0973,
      "velocity": 127,
      "chip": "ym2612"
    },
    {
      "channel": 5,
      "note": 36,
      "start": 159.237,
      "duration": 0.1648,
      "velocity": 126,
      "chip": "ym2612"
    },
    {
      "channel": 0,
      "note": 44,
      "start": 159.3978,
      "duration": 0.1648,
      "velocity": 114,
      "chip": "ym2612"
    },
    {
      "channel": 1,
      "note": 48,
      "start": 159.3985,
      "duration": 0.1654,
      "velocity": 108,
      "chip": "ym2612"
    },
    {
      "channel": 2,
      "note": 17,
      "start": 159.3997,
      "duration": 0.1649,
      "velocity": 113,
      "chip": "ym2612"
    },
    {
      "channel": 3,
      "note": 62,
      "start": 159.4003,
      "duration": 0.1478,
      "velocity": 118,
      "chip": "ym2612"
    },
    {
      "channel": 4,
      "note": 53,
      "start": 159.4017,
      "duration": 0.0973,
      "velocity": 127,
      "chip": "ym2612"
    },
    {
      "channel": 5,
      "note": 39,
      "start": 159.4025,
      "duration": 0.1653,
      "velocity": 126,
      "chip": "ym2612"
    },
    {
      "channel": 0,
      "note": 44,
      "start": 159.5637,
      "duration": 0.082,
      "velocity": 112,
      "chip": "ym2612"
    },
    {
      "channel": 1,
      "note": 49,
      "start": 159.5644,
      "duration": 0.1651,
      "velocity": 108,
      "chip": "ym2612"
    },
    {
      "channel": 2,
      "note": 17,
      "start": 159.5651,
      "duration": 0.1652,
      "velocity": 113,
      "chip": "ym2612"
    },
    {
      "channel": 3,
      "note": 58,
      "start": 159.5663,
      "duration": 0.1651,
      "velocity": 127,
      "chip": "ym2612"
    },
    {
      "channel": 4,
      "note": 53,
      "start": 159.5676,
      "duration": 0.0968,
      "velocity": 127,
      "chip": "ym2612"
    },
    {
      "channel": 5,
      "note": 24,
      "start": 159.5685,
      "duration": 0.1654,
      "velocity": 126,
      "chip": "ym2612"
    },
    {
      "channel": 0,
      "note": 44,
      "start": 159.7294,
      "duration": 0.1643,
      "velocity": 114,
      "chip": "ym2612"
    },
    {
      "channel": 1,
      "note": 41,
      "start": 159.7302,
      "duration": 0.1644,
      "velocity": 108,
      "chip": "ym2612"
    },
    {
      "channel": 2,
      "note": 17,
      "start": 159.7314,
      "duration": 0.1638,
      "velocity": 1,
      "chip": "ym2612"
    },
    {
      "channel": 3,
      "note": 62,
      "start": 159.7326,
      "duration": 0.1466,
      "velocity": 118,
      "chip": "ym2612"
    },
    {
      "channel": 4,
      "note": 53,
      "start": 159.7339,
      "duration": 0.0962,
      "velocity": 127,
      "chip": "ym2612"
    },
    {
      "channel": 5,
      "note": 36,
      "start": 159.7347,
      "duration": 0.1636,
      "velocity": 126,
      "chip": "ym2612"
    },
    {
      "channel": 0,
      "note": 44,
      "start": 159.8944,
      "duration": 0.1648,
      "velocity": 114,
      "chip": "ym2612"
    },
    {
      "channel": 1,
      "note": 44,
      "start": 159.895,
      "duration": 0.165,
      "velocity": 108,
      "chip": "ym2612"
    },
    {
      "channel": 2,
      "note": 15,
      "start": 159.8963,
      "duration": 0.1645,
      "velocity": 113,
      "chip": "ym2612"
    },
    {
      "channel": 3,
      "note": 62,
      "start": 159.8969,
      "duration": 0.1478,
      "velocity": 118,
      "chip": "ym2612"
    },
    {
      "channel": 4,
      "note": 53,
      "start": 159.8982,
      "duration": 0.0973,
      "velocity": 127,
      "chip": "ym2612"
    },
    {
      "channel": 5,
      "note": 39,
      "start": 159.899,
      "duration": 0.1649,
      "velocity": 126,
      "chip": "ym2612"
    },
    {
      "channel": 0,
      "note": 44,
      "start": 160.0599,
      "duration": 0.1649,
      "velocity": 114,
      "chip": "ym2612"
    },
    {
      "channel": 1,
      "note": 49,
      "start": 160.0606,
      "duration": 0.165,
      "velocity": 108,
      "chip": "ym2612"
    },
    {
      "channel": 2,
      "note": 17,
      "start": 160.0612,
      "duration": 0.1651,
      "velocity": 113,
      "chip": "ym2612"
    },
    {
      "channel": 3,
      "note": 58,
      "start": 160.0625,
      "duration": 0.1643,
      "velocity": 127,
      "chip": "ym2612"
    },
    {
      "channel": 4,
      "note": 53,
      "start": 160.0638,
      "duration": 0.0973,
      "velocity": 127,
      "chip": "ym2612"
    },
    {
      "channel": 5,
      "note": 36,
      "start": 160.0647,
      "duration": 0.1648,
      "velocity": 126,
      "chip": "ym2612"
    },
    {
      "channel": 0,
      "note": 44,
      "start": 160.2254,
      "duration": 0.1649,
      "velocity": 114,
      "chip": "ym2612"
    },
    {
      "channel": 1,
      "note": 48,
      "start": 160.2261,
      "duration": 0.165,
      "velocity": 108,
      "chip": "ym2612"
    },
    {
      "channel": 2,
      "note": 17,
      "start": 160.2267,
      "duration": 0.1651,
      "velocity": 113,
      "chip": "ym2612"
    },
    {
      "channel": 3,
      "note": 29,
      "start": 160.228,
      "duration": 0.1644,
      "velocity": 1,
      "chip": "ym2612"
    },
    {
      "channel": 4,
      "note": 53,
      "start": 160.2293,
      "duration": 0.0973,
      "velocity": 127,
      "chip": "ym2612"
    },
    {
      "channel": 5,
      "note": 41,
      "start": 160.2302,
      "duration": 0.1648,
      "velocity": 126,
      "chip": "ym2612"
    },
    {
      "channel": 0,
      "note": 44,
      "start": 160.3909,
      "duration": 0.1649,
      "velocity": 114,
      "chip": "ym2612"
    },
    {
      "channel": 1,
      "note": 41,
      "start": 160.3917,
      "duration": 0.1649,
      "velocity": 108,
      "chip": "ym2612"
    },
    {
      "channel": 2,
      "note": 17,
      "start": 160.3923,
      "duration": 0.165,
      "velocity": 113,
      "chip": "ym2612"
    },
    {
      "channel": 3,
      "note": 62,
      "start": 160.3934,
      "duration": 0.1478,
      "velocity": 118,
      "chip": "ym2612"
    },
    {
      "channel": 4,
      "note": 53,
      "start": 160.3948,
      "duration": 0.0973,
      "velocity": 127,
      "chip": "ym2612"
    },
    {
      "channel": 5,
      "note": 41,
      "start": 160.3956,
      "duration": 0.1648,
      "velocity": 126,
      "chip": "ym2612"
    },
    {
      "channel": 0,
      "note": 44,
      "start": 160.5564,
      "duration": 0.1649,
      "velocity": 114,
      "chip": "ym2612"
    },
    {
      "channel": 1,
      "note": 44,
      "start": 160.5572,
      "duration": 0.1649,
      "velocity": 108,
      "chip": "ym2612"
    },
    {
      "channel": 2,
      "note": 17,
      "start": 160.5584,
      "duration": 0.1644,
      "velocity": 1,
      "chip": "ym2612"
    },
    {
      "channel": 3,
      "note": 62,
      "start": 160.559,
      "duration": 0.1478,
      "velocity": 118,
      "chip": "ym2612"
    },
    {
      "channel": 4,
      "note": 53,
      "start": 160.5603,
      "duration": 0.0973,
      "velocity": 127,
      "chip": "ym2612"
    },
    {
      "channel": 5,
      "note": 36,
      "start": 160.5611,
      "duration": 0.1648,
      "velocity": 126,
      "chip": "ym2612"
    },
    {
      "channel": 0,
      "note": 44,
      "start": 160.722,
      "duration": 0.1648,
      "velocity": 114,
      "chip": "ym2612"
    },
    {
      "channel": 1,
      "note": 48,
      "start": 160.7227,
      "duration": 0.1654,
      "velocity": 108,
      "chip": "ym2612"
    },
    {
      "channel": 2,
      "note": 17,
      "start": 160.7239,
      "duration": 0.1649,
      "velocity": 113,
      "chip": "ym2612"
    },
    {
      "channel": 3,
      "note": 62,
      "start": 160.7245,
      "duration": 0.1478,
      "velocity": 118,
      "chip": "ym2612"
    },
    {
      "channel": 4,
      "note": 53,
      "start": 160.7258,
      "duration": 0.0974,
      "velocity": 127,
      "chip": "ym2612"
    },
    {
      "channel": 5,
      "note": 39,
      "start": 160.7267,
      "duration": 0.1654,
      "velocity": 126,
      "chip": "ym2612"
    },
    {
      "channel": 0,
      "note": 44,
      "start": 160.888,
      "duration": 0.082,
      "velocity": 112,
      "chip": "ym2612"
    },
    {
      "channel": 1,
      "note": 49,
      "start": 160.8887,
      "duration": 0.1651,
      "velocity": 108,
      "chip": "ym2612"
    },
    {
      "channel": 2,
      "note": 17,
      "start": 160.8893,
      "duration": 0.1652,
      "velocity": 113,
      "chip": "ym2612"
    },
    {
      "channel": 3,
      "note": 58,
      "start": 160.8906,
      "duration": 0.1651,
      "velocity": 127,
      "chip": "ym2612"
    },
    {
      "channel": 4,
      "note": 53,
      "start": 160.8919,
      "duration": 0.0968,
      "velocity": 127,
      "chip": "ym2612"
    },
    {
      "channel": 5,
      "note": 24,
      "start": 160.8927,
      "duration": 0.1655,
      "velocity": 126,
      "chip": "ym2612"
    },
    {
      "channel": 0,
      "note": 44,
      "start": 161.0537,
      "duration": 0.1642,
      "velocity": 114,
      "chip": "ym2612"
    },
    {
      "channel": 1,
      "note": 41,
      "start": 161.0544,
      "duration": 0.1643,
      "velocity": 108,
      "chip": "ym2612"
    },
    {
      "channel": 2,
      "note": 17,
      "start": 161.0556,
      "duration": 0.1638,
      "velocity": 1,
      "chip": "ym2612"
    },
    {
      "channel": 3,
      "note": 62,
      "start": 161.0568,
      "duration": 0.1465,
      "velocity": 118,
      "chip": "ym2612"
    },
    {
      "channel": 4,
      "note": 53,
      "start": 161.0581,
      "duration": 0.0962,
      "velocity": 127,
      "chip": "ym2612"
    },
    {
      "channel": 5,
      "note": 36,
      "start": 161.059,
      "duration": 0.1636,
      "velocity": 126,
      "chip": "ym2612"
    },
    {
      "channel": 0,
      "note": 44,
      "start": 161.2186,
      "duration": 0.1648,
      "velocity": 114,
      "chip": "ym2612"
    },
    {
      "channel": 1,
      "note": 44,
      "start": 161.2193,
      "duration": 0.1649,
      "velocity": 108,
      "chip": "ym2612"
    },
    {
      "channel": 2,
      "note": 17,
      "start": 161.2205,
      "duration": 0.1644,
      "velocity": 113,
      "chip": "ym2612"
    },
    {
      "channel": 3,
      "note": 62,
      "start": 161.2211,
      "duration": 0.1477,
      "velocity": 118,
      "chip": "ym2612"
    },
    {
      "channel": 4,
      "note": 53,
      "start": 161.2224,
      "duration": 0.0973,
      "velocity": 127,
      "chip": "ym2612"
    },
    {
      "channel": 5,
      "note": 39,
      "start": 161.2233,
      "duration": 0.1642,
      "velocity": 126,
      "chip": "ym2612"
    },
    {
      "channel": 0,
      "note": 44,
      "start": 161.3841,
      "duration": 0.1648,
      "velocity": 114,
      "chip": "ym2612"
    },
    {
      "channel": 1,
      "note": 49,
      "start": 161.3848,
      "duration": 0.1649,
      "velocity": 108,
      "chip": "ym2612"
    },
    {
      "channel": 2,
      "note": 17,
      "start": 161.3854,
      "duration": 0.1651,
      "velocity": 113,
      "chip": "ym2612"
    },
    {
      "channel": 3,
      "note": 62,
      "start": 161.386,
      "duration": 0.1483,
      "velocity": 118,
      "chip": "ym2612"
    },
    {
      "channel": 4,
      "note": 53,
      "start": 161.3873,
      "duration": 0.0979,
      "velocity": 127,
      "chip": "ym2612"
    },
    {
      "channel": 5,
      "note": 36,
      "start": 161.3882,
      "duration": 0.1648,
      "velocity": 126,
      "chip": "ym2612"
    },
    {
      "channel": 0,
      "note": 44,
      "start": 161.5496,
      "duration": 0.1648,
      "velocity": 114,
      "chip": "ym2612"
    },
    {
      "channel": 1,
      "note": 50,
      "start": 161.5503,
      "duration": 0.1649,
      "velocity": 108,
      "chip": "ym2612"
    },
    {
      "channel": 2,
      "note": 17,
      "start": 161.551,
      "duration": 0.1651,
      "velocity": 113,
      "chip": "ym2612"
    },
    {
      "channel": 3,
      "note": 29,
      "start": 161.5522,
      "duration": 0.1644,
      "velocity": 1,
      "chip": "ym2612"
    },
    {
      "channel": 4,
      "note": 53,
      "start": 161.5529,
      "duration": 0.0979,
      "velocity": 127,
      "chip": "ym2612"
    },
    {
      "channel": 5,
      "note": 29,
      "start": 161.5538,
      "duration": 0.1653,
      "velocity": 126,
      "chip": "ym2612"
    },
    {
      "channel": 0,
      "note": 46,
      "start": 161.7151,
      "duration": 0.1648,
      "velocity": 114,
      "chip": "ym2612"
    },
    {
      "channel": 1,
      "note": 43,
      "start": 161.7159,
      "duration": 0.165,
      "velocity": 108,
      "chip": "ym2612"
    },
    {
      "channel": 2,
      "note": 19,
      "start": 161.7165,
      "duration": 0.165,
      "velocity": 113,
      "chip": "ym2612"
    },
    {
      "channel": 3,
      "note": 62,
      "start": 161.7177,
      "duration": 0.1477,
      "velocity": 118,
      "chip": "ym2612"
    },
    {
      "channel": 4,
      "note": 53,
      "start": 161.719,
      "duration": 0.0973,
      "velocity": 127,
      "chip": "ym2612"
    },
    {
      "channel": 5,
      "note": 43,
      "start": 161.7198,
      "duration": 0.1648,
      "velocity": 126,
      "chip": "ym2612"
    },
    {
      "channel": 0,
      "note": 46,
      "start": 161.8807,
      "duration": 0.1648,
      "velocity": 114,
      "chip": "ym2612"
    },
    {
      "channel": 1,
      "note": 46,
      "start": 161.8814,
      "duration": 0.165,
      "velocity": 108,
      "chip": "ym2612"
    },
    {
      "channel": 2,
      "note": 19,
      "start": 161.8826,
      "duration": 0.1644,
      "velocity": 1,
      "chip": "ym2612"
    },
    {
      "channel": 3,
      "note": 62,
      "start": 161.8832,
      "duration": 0.1478,
      "velocity": 118,
      "chip": "ym2612"
    },
    {
      "channel": 4,
      "note": 53,
      "start": 161.8846,
      "duration": 0.0973,
      "velocity": 127,
      "chip": "ym2612"
    },
    {
      "channel": 5,
      "note": 38,
      "start": 161.8854,
      "duration": 0.1648,
      "velocity": 126,
      "chip": "ym2612"
    },
    {
      "channel": 0,
      "note": 46,
      "start": 162.0462,
      "duration": 0.1648,
      "velocity": 114,
      "chip": "ym2612"
    },
    {
      "channel": 1,
      "note": 50,
      "start": 162.0469,
      "duration": 0.1654,
      "velocity": 108,
      "chip": "ym2612"
    },
    {
      "channel": 2,
      "note": 19,
      "start": 162.0481,
      "duration": 0.1649,
      "velocity": 113,
      "chip": "ym2612"
    },
    {
      "channel": 3,
      "note": 62,
      "start": 162.0487,
      "duration": 0.1478,
      "velocity": 118,
      "chip": "ym2612"
    },
    {
      "channel": 4,
      "note": 53,
      "start": 162.0501,
      "duration": 0.0973,
      "velocity": 127,
      "chip": "ym2612"
    },
    {
      "channel": 5,
      "note": 41,
      "start": 162.0509,
      "duration": 0.1654,
      "velocity": 126,
      "chip": "ym2612"
    },
    {
      "channel": 0,
      "note": 46,
      "start": 162.2122,
      "duration": 0.082,
      "velocity": 112,
      "chip": "ym2612"
    },
    {
      "channel": 1,
      "note": 51,
      "start": 162.2129,
      "duration": 0.1651,
      "velocity": 108,
      "chip": "ym2612"
    },
    {
      "channel": 2,
      "note": 19,
      "start": 162.2135,
      "duration": 0.1651,
      "velocity": 113,
      "chip": "ym2612"
    },
    {
      "channel": 3,
      "note": 58,
      "start": 162.2148,
      "duration": 0.1651,
      "velocity": 127,
      "chip": "ym2612"
    },
    {
      "channel": 4,
      "note": 53,
      "start": 162.216,
      "duration": 0.0968,
      "velocity": 127,
      "chip": "ym2612"
    },
    {
      "channel": 5,
      "note": 26,
      "start": 162.2169,
      "duration": 0.1655,
      "velocity": 126,
      "chip": "ym2612"
    },
    {
      "channel": 0,
      "note": 46,
      "start": 162.3778,
      "duration": 0.1643,
      "velocity": 114,
      "chip": "ym2612"
    },
    {
      "channel": 1,
      "note": 43,
      "start": 162.3785,
      "duration": 0.1644,
      "velocity": 108,
      "chip": "ym2612"
    },
    {
      "channel": 2,
      "note": 19,
      "start": 162.3797,
      "duration": 0.1639,
      "velocity": 1,
      "chip": "ym2612"
    },
    {
      "channel": 3,
      "note": 62,
      "start": 162.3809,
      "duration": 0.1466,
      "velocity": 118,
      "chip": "ym2612"
    },
    {
      "channel": 4,
      "note": 53,
      "start": 162.3823,
      "duration": 0.0962,
      "velocity": 127,
      "chip": "ym2612"
    },
    {
      "channel": 5,
      "note": 38,
      "start": 162.3831,
      "duration": 0.1637,
      "velocity": 126,
      "chip": "ym2612"
    },
    {
      "channel": 0,
      "note": 46,
      "start": 162.5427,
      "duration": 0.1648,
      "velocity": 114,
      "chip": "ym2612"
    },
    {
      "channel": 1,
      "note": 46,
      "start": 162.5434,
      "duration": 0.165,
      "velocity": 108,
      "chip": "ym2612"
    },
    {
      "channel": 2,
      "note": 17,
      "start": 162.5447,
      "duration": 0.1645,
      "velocity": 113,
      "chip": "ym2612"
    },
    {
      "channel": 3,
      "note": 62,
      "start": 162.5453,
      "duration": 0.1478,
      "velocity": 118,
      "chip": "ym2612"
    },
    {
      "channel": 4,
      "note": 53,
      "start": 162.5466,
      "duration": 0.0973,
      "velocity": 127,
      "chip": "ym2612"
    },
    {
      "channel": 5,
      "note": 41,
      "start": 162.5475,
      "duration": 0.1649,
      "velocity": 126,
      "chip": "ym2612"
    },
    {
      "channel": 0,
      "note": 46,
      "start": 162.7083,
      "duration": 0.1648,
      "velocity": 114,
      "chip": "ym2612"
    },
    {
      "channel": 1,
      "note": 51,
      "start": 162.709,
      "duration": 0.165,
      "velocity": 108,
      "chip": "ym2612"
    },
    {
      "channel": 2,
      "note": 19,
      "start": 162.7096,
      "duration": 0.1651,
      "velocity": 113,
      "chip": "ym2612"
    },
    {
      "channel": 3,
      "note": 58,
      "start": 162.711,
      "duration": 0.1643,
      "velocity": 127,
      "chip": "ym2612"
    },
    {
      "channel": 4,
      "note": 53,
      "start": 162.7122,
      "duration": 0.0973,
      "velocity": 127,
      "chip": "ym2612"
    },
    {
      "channel": 5,
      "note": 38,
      "start": 162.7131,
      "duration": 0.1648,
      "velocity": 126,
      "chip": "ym2612"
    },
    {
      "channel": 0,
      "note": 46,
      "start": 162.8738,
      "duration": 0.1648,
      "velocity": 114,
      "chip": "ym2612"
    },
    {
      "channel": 1,
      "note": 50,
      "start": 162.8745,
      "duration": 0.165,
      "velocity": 108,
      "chip": "ym2612"
    },
    {
      "channel": 2,
      "note": 19,
      "start": 162.8751,
      "duration": 0.1651,
      "velocity": 113,
      "chip": "ym2612"
    },
    {
      "channel": 3,
      "note": 29,
      "start": 162.8764,
      "duration": 0.1644,
      "velocity": 1,
      "chip": "ym2612"
    },
    {
      "channel": 4,
      "note": 53,
      "start": 162.8777,
      "duration": 0.0973,
      "velocity": 127,
      "chip": "ym2612"
    },
    {
      "channel": 5,
      "note": 43,
      "start": 162.8786,
      "duration": 0.1648,
      "velocity": 126,
      "chip": "ym2612"
    },
    {
      "channel": 0,
      "note": 46,
      "start": 163.0393,
      "duration": 0.1648,
      "velocity": 114,
      "chip": "ym2612"
    },
    {
      "channel": 1,
      "note": 43,
      "start": 163.04,
      "duration": 0.165,
      "velocity": 108,
      "chip": "ym2612"
    },
    {
      "channel": 2,
      "note": 19,
      "start": 163.0407,
      "duration": 0.165,
      "velocity": 113,
      "chip": "ym2612"
    },
    {
      "channel": 3,
      "note": 62,
      "start": 163.0419,
      "duration": 0.1478,
      "velocity": 118,
      "chip": "ym2612"
    },
    {
      "channel": 4,
      "note": 53,
      "start": 163.0431,
      "duration": 0.0974,
      "velocity": 127,
      "chip": "ym2612"
    },
    {
      "channel": 5,
      "note": 43,
      "start": 163.044,
      "duration": 0.1648,
      "velocity": 126,
      "chip": "ym2612"
    },
    {
      "channel": 0,
      "note": 46,
      "start": 163.2048,
      "duration": 0.1649,
      "velocity": 114,
      "chip": "ym2612"
    },
    {
      "channel": 1,
      "note": 46,
      "start": 163.2055,
      "duration": 0.1651,
      "velocity": 108,
      "chip": "ym2612"
    },
    {
      "channel": 2,
      "note": 19,
      "start": 163.2068,
      "duration": 0.1645,
      "velocity": 1,
      "chip": "ym2612"
    },
    {
      "channel": 3,
      "note": 62,
      "start": 163.2074,
      "duration": 0.1478,
      "velocity": 118,
      "chip": "ym2612"
    },
    {
      "channel": 4,
      "note": 53,
      "start": 163.2087,
      "duration": 0.0974,
      "velocity": 127,
      "chip": "ym2612"
    },
    {
      "channel": 5,
      "note": 38,
      "start": 163.2095,
      "duration": 0.1648,
      "velocity": 126,
      "chip": "ym2612"
    },
    {
      "channel": 0,
      "note": 46,
      "start": 163.3704,
      "duration": 0.1648,
      "velocity": 114,
      "chip": "ym2612"
    },
    {
      "channel": 1,
      "note": 50,
      "start": 163.3711,
      "duration": 0.1654,
      "velocity": 108,
      "chip": "ym2612"
    },
    {
      "channel": 2,
      "note": 19,
      "start": 163.3723,
      "duration": 0.1649,
      "velocity": 113,
      "chip": "ym2612"
    },
    {
      "channel": 3,
      "note": 62,
      "start": 163.373,
      "duration": 0.1478,
      "velocity": 118,
      "chip": "ym2612"
    },
    {
      "channel": 4,
      "note": 53,
      "start": 163.3742,
      "duration": 0.0974,
      "velocity": 127,
      "chip": "ym2612"
    },
    {
      "channel": 5,
      "note": 41,
      "start": 163.3751,
      "duration": 0.1653,
      "velocity": 126,
      "chip": "ym2612"
    },
    {
      "channel": 0,
      "note": 46,
      "start": 163.5363,
      "duration": 0.0821,
      "velocity": 112,
      "chip": "ym2612"
    },
    {
      "channel": 1,
      "note": 51,
      "start": 163.5371,
      "duration": 0.1651,
      "velocity": 108,
      "chip": "ym2612"
    },
    {
      "channel": 2,
      "note": 19,
      "start": 163.5377,
      "duration": 0.1651,
      "velocity": 113,
      "chip": "ym2612"
    },
    {
      "channel": 3,
      "note": 58,
      "start": 163.539,
      "duration": 0.1651,
      "velocity": 127,
      "chip": "ym2612"
    },
    {
      "channel": 4,
      "note": 53,
      "start": 163.5403,
      "duration": 0.0968,
      "velocity": 127,
      "chip": "ym2612"
    },
    {
      "channel": 5,
      "note": 26,
      "start": 163.5412,
      "duration": 0.1655,
      "velocity": 126,
      "chip": "ym2612"
    },
    {
      "channel": 0,
      "note": 46,
      "start": 163.702,
      "duration": 0.1643,
      "velocity": 114,
      "chip": "ym2612"
    },
    {
      "channel": 1,
      "note": 43,
      "start": 163.7027,
      "duration": 0.1644,
      "velocity": 108,
      "chip": "ym2612"
    },
    {
      "channel": 2,
      "note": 19,
      "start": 163.7039,
      "duration": 0.1639,
      "velocity": 1,
      "chip": "ym2612"
    },
    {
      "channel": 3,
      "note": 62,
      "start": 163.7051,
      "duration": 0.1466,
      "velocity": 118,
      "chip": "ym2612"
    },
    {
      "channel": 4,
      "note": 53,
      "start": 163.7065,
      "duration": 0.0961,
      "velocity": 127,
      "chip": "ym2612"
    },
    {
      "channel": 5,
      "note": 38,
      "start": 163.7073,
      "duration": 0.1637,
      "velocity": 126,
      "chip": "ym2612"
    },
    {
      "channel": 0,
      "note": 46,
      "start": 163.867,
      "duration": 0.1648,
      "velocity": 114,
      "chip": "ym2612"
    },
    {
      "channel": 1,
      "note": 46,
      "start": 163.8677,
      "duration": 0.1649,
      "velocity": 108,
      "chip": "ym2612"
    },
    {
      "channel": 2,
      "note": 19,
      "start": 163.8689,
      "duration": 0.1644,
      "velocity": 113,
      "chip": "ym2612"
    },
    {
      "channel": 3,
      "note": 62,
      "start": 163.8695,
      "duration": 0.1477,
      "velocity": 118,
      "chip": "ym2612"
    },
    {
      "channel": 4,
      "note": 53,
      "start": 163.8709,
      "duration": 0.0973,
      "velocity": 127,
      "chip": "ym2612"
    },
    {
      "channel": 5,
      "note": 41,
      "start": 163.8717,
      "duration": 0.1642,
      "velocity": 126,
      "chip": "ym2612"
    },
    {
      "channel": 0,
      "note": 46,
      "start": 164.0325,
      "duration": 0.1648,
      "velocity": 114,
      "chip": "ym2612"
    },
    {
      "channel": 1,
      "note": 51,
      "start": 164.0332,
      "duration": 0.1649,
      "velocity": 108,
      "chip": "ym2612"
    },
    {
      "channel": 2,
      "note": 19,
      "start": 164.0339,
      "duration": 0.165,
      "velocity": 113,
      "chip": "ym2612"
    },
    {
      "channel": 3,
      "note": 62,
      "start": 164.0344,
      "duration": 0.1483,
      "velocity": 118,
      "chip": "ym2612"
    },
    {
      "channel": 4,
      "note": 53,
      "start": 164.0358,
      "duration": 0.0979,
      "velocity": 127,
      "chip": "ym2612"
    },
    {
      "channel": 5,
      "note": 38,
      "start": 164.0366,
      "duration": 0.1649,
      "velocity": 126,
      "chip": "ym2612"
    },
    {
      "channel": 0,
      "note": 46,
      "start": 164.198,
      "duration": 0.1648,
      "velocity": 114,
      "chip": "ym2612"
    },
    {
      "channel": 1,
      "note": 48,
      "start": 164.1987,
      "duration": 0.1649,
      "velocity": 108,
      "chip": "ym2612"
    },
    {
      "channel": 2,
      "note": 19,
      "start": 164.1994,
      "duration": 0.165,
      "velocity": 113,
      "chip": "ym2612"
    },
    {
      "channel": 3,
      "note": 29,
      "start": 164.2006,
      "duration": 0.1644,
      "velocity": 1,
      "chip": "ym2612"
    },
    {
      "channel": 4,
      "note": 53,
      "start": 164.2013,
      "duration": 0.0979,
      "velocity": 127,
      "chip": "ym2612"
    },
    {
      "channel": 5,
      "note": 31,
      "start": 164.2022,
      "duration": 0.1653,
      "velocity": 126,
      "chip": "ym2612"
    },
    {
      "channel": 0,
      "note": 44,
      "start": 164.3636,
      "duration": 0.1648,
      "velocity": 114,
      "chip": "ym2612"
    },
    {
      "channel": 1,
      "note": 41,
      "start": 164.3643,
      "duration": 0.1649,
      "velocity": 108,
      "chip": "ym2612"
    },
    {
      "channel": 2,
      "note": 17,
      "start": 164.3649,
      "duration": 0.165,
      "velocity": 113,
      "chip": "ym2612"
    },
    {
      "channel": 3,
      "note": 62,
      "start": 164.366,
      "duration": 0.1478,
      "velocity": 118,
      "chip": "ym2612"
    },
    {
      "channel": 4,
      "note": 53,
      "start": 164.3674,
      "duration": 0.0973,
      "velocity": 127,
      "chip": "ym2612"
    },
    {
      "channel": 5,
      "note": 41,
      "start": 164.3682,
      "duration": 0.1648,
      "velocity": 126,
      "chip": "ym2612"
    },
    {
      "channel": 0,
      "note": 44,
      "start": 164.5291,
      "duration": 0.1648,
      "velocity": 114,
      "chip": "ym2612"
    },
    {
      "channel": 1,
      "note": 44,
      "start": 164.5298,
      "duration": 0.1649,
      "velocity": 108,
      "chip": "ym2612"
    },
    {
      "channel": 2,
      "note": 17,
      "start": 164.531,
      "duration": 0.1644,
      "velocity": 1,
      "chip": "ym2612"
    },
    {
      "channel": 3,
      "note": 62,
      "start": 164.5316,
      "duration": 0.1477,
      "velocity": 118,
      "chip": "ym2612"
    },
    {
      "channel": 4,
      "note": 53,
      "start": 164.5329,
      "duration": 0.0973,
      "velocity": 127,
      "chip": "ym2612"
    },
    {
      "channel": 5,
      "note": 36,
      "start": 164.5338,
      "duration": 0.1648,
      "velocity": 126,
      "chip": "ym2612"
    },
    {
      "channel": 0,
      "note": 44,
      "start": 164.6946,
      "duration": 0.1648,
      "velocity": 114,
      "chip": "ym2612"
    },
    {
      "channel": 1,
      "note": 48,
      "start": 164.6953,
      "duration": 0.1654,
      "velocity": 108,
      "chip": "ym2612"
    },
    {
      "channel": 2,
      "note": 17,
      "start": 164.6965,
      "duration": 0.1649,
      "velocity": 113,
      "chip": "ym2612"
    },
    {
      "channel": 3,
      "note": 62,
      "start": 164.6971,
      "duration": 0.1477,
      "velocity": 118,
      "chip": "ym2612"
    },
    {
      "channel": 4,
      "note": 53,
      "start": 164.6984,
      "duration": 0.0974,
      "velocity": 127,
      "chip": "ym2612"
    },
    {
      "channel": 5,
      "note": 39,
      "start": 164.6993,
      "duration": 0.1653,
      "velocity": 126,
      "chip": "ym2612"
    },
    {
      "channel": 0,
      "note": 44,
      "start": 164.8605,
      "duration": 0.0821,
      "velocity": 112,
      "chip": "ym2612"
    },
    {
      "channel": 1,
      "note": 49,
      "start": 164.8613,
      "duration": 0.1651,
      "velocity": 108,
      "chip": "ym2612"
    },
    {
      "channel": 2,
      "note": 17,
      "start": 164.8619,
      "duration": 0.1651,
      "velocity": 113,
      "chip": "ym2612"
    },
    {
      "channel": 3,
      "note": 58,
      "start": 164.8632,
      "duration": 0.1651,
      "velocity": 127,
      "chip": "ym2612"
    },
    {
      "channel": 4,
      "note": 53,
      "start": 164.8644,
      "duration": 0.0968,
      "velocity": 127,
      "chip": "ym2612"
    },
    {
      "channel": 5,
      "note": 24,
      "start": 164.8653,
      "duration": 0.1655,
      "velocity": 126,
      "chip": "ym2612"
    },
    {
      "channel": 0,
      "note": 44,
      "start": 165.0262,
      "duration": 0.1642,
      "velocity": 114,
      "chip": "ym2612"
    },
    {
      "channel": 1,
      "note": 41,
      "start": 165.0269,
      "duration": 0.1644,
      "velocity": 108,
      "chip": "ym2612"
    },
    {
      "channel": 2,
      "note": 17,
      "start": 165.0281,
      "duration": 0.1639,
      "velocity": 1,
      "chip": "ym2612"
    },
    {
      "channel": 3,
      "note": 62,
      "start": 165.0293,
      "duration": 0.1466,
      "velocity": 118,
      "chip": "ym2612"
    },
    {
      "channel": 4,
      "note": 53,
      "start": 165.0307,
      "duration": 0.0962,
      "velocity": 127,
      "chip": "ym2612"
    },
    {
      "channel": 5,
      "note": 36,
      "start": 165.0315,
      "duration": 0.1637,
      "velocity": 126,
      "chip": "ym2612"
    },
    {
      "channel": 0,
      "note": 44,
      "start": 165.1912,
      "duration": 0.1648,
      "velocity": 114,
      "chip": "ym2612"
    },
    {
      "channel": 1,
      "note": 44,
      "start": 165.1919,
      "duration": 0.165,
      "velocity": 108,
      "chip": "ym2612"
    },
    {
      "channel": 2,
      "note": 15,
      "start": 165.1931,
      "duration": 0.1645,
      "velocity": 113,
      "chip": "ym2612"
    },
    {
      "channel": 3,
      "note": 62,
      "start": 165.1937,
      "duration": 0.1477,
      "velocity": 118,
      "chip": "ym2612"
    },
    {
      "channel": 4,
      "note": 53,
      "start": 165.195,
      "duration": 0.0973,
      "velocity": 127,
      "chip": "ym2612"
    },
    {
      "channel": 5,
      "note": 39,
      "start": 165.1959,
      "duration": 0.1649,
      "velocity": 126,
      "chip": "ym2612"
    },
    {
      "channel": 0,
      "note": 44,
      "start": 165.3567,
      "duration": 0.1648,
      "velocity": 114,
      "chip": "ym2612"
    },
    {
      "channel": 1,
      "note": 49,
      "start": 165.3574,
      "duration": 0.165,
      "velocity": 108,
      "chip": "ym2612"
    },
    {
      "channel": 2,
      "note": 17,
      "start": 165.358,
      "duration": 0.1651,
      "velocity": 113,
      "chip": "ym2612"
    },
    {
      "channel": 3,
      "note": 58,
      "start": 165.3594,
      "duration": 0.1643,
      "velocity": 127,
      "chip": "ym2612"
    },
    {
      "channel": 4,
      "note": 53,
      "start": 165.3606,
      "duration": 0.0973,
      "velocity": 127,
      "chip": "ym2612"
    },
    {
      "channel": 5,
      "note": 36,
      "start": 165.3615,
      "duration": 0.1648,
      "velocity": 126,
      "chip": "ym2612"
    },
    {
      "channel": 0,
      "note": 44,
      "start": 165.5222,
      "duration": 0.1649,
      "velocity": 114,
      "chip": "ym2612"
    },
    {
      "channel": 1,
      "note": 48,
      "start": 165.5229,
      "duration": 0.165,
      "velocity": 108,
      "chip": "ym2612"
    },
    {
      "channel": 2,
      "note": 17,
      "start": 165.5235,
      "duration": 0.1651,
      "velocity": 113,
      "chip": "ym2612"
    },
    {
      "channel": 3,
      "note": 29,
      "start": 165.5248,
      "duration": 0.1644,
      "velocity": 1,
      "chip": "ym2612"
    },
    {
      "channel": 4,
      "note": 53,
      "start": 165.5261,
      "duration": 0.0973,
      "velocity": 127,
      "chip": "ym2612"
    },
    {
      "channel": 5,
      "note": 41,
      "start": 165.527,
      "duration": 0.1648,
      "velocity": 126,
      "chip": "ym2612"
    },
    {
      "channel": 0,
      "note": 44,
      "start": 165.6878,
      "duration": 0.1647,
      "velocity": 114,
      "chip": "ym2612"
    },
    {
      "channel": 1,
      "note": 41,
      "start": 165.6885,
      "duration": 0.165,
      "velocity": 108,
      "chip": "ym2612"
    },
    {
      "channel": 2,
      "note": 17,
      "start": 165.6891,
      "duration": 0.165,
      "velocity": 113,
      "chip": "ym2612"
    },
    {
      "channel": 3,
      "note": 62,
      "start": 165.6903,
      "duration": 0.1478,
      "velocity": 118,
      "chip": "ym2612"
    },
    {
      "channel": 4,
      "note": 53,
      "start": 165.6916,
      "duration": 0.0974,
      "velocity": 127,
      "chip": "ym2612"
    },
    {
      "channel": 5,
      "note": 41,
      "start": 165.6925,
      "duration": 0.1648,
      "velocity": 126,
      "chip": "ym2612"
    },
    {
      "channel": 0,
      "note": 44,
      "start": 165.8532,
      "duration": 0.1648,
      "velocity": 114,
      "chip": "ym2612"
    },
    {
      "channel": 1,
      "note": 44,
      "start": 165.854,
      "duration": 0.1649,
      "velocity": 108,
      "chip": "ym2612"
    },
    {
      "channel": 2,
      "note": 17,
      "start": 165.8552,
      "duration": 0.1644,
      "velocity": 1,
      "chip": "ym2612"
    },
    {
      "channel": 3,
      "note": 62,
      "start": 165.8559,
      "duration": 0.1478,
      "velocity": 118,
      "chip": "ym2612"
    },
    {
      "channel": 4,
      "note": 53,
      "start": 165.8571,
      "duration": 0.0973,
      "velocity": 127,
      "chip": "ym2612"
    },
    {
      "channel": 5,
      "note": 36,
      "start": 165.858,
      "duration": 0.1648,
      "velocity": 126,
      "chip": "ym2612"
    },
    {
      "channel": 0,
      "note": 44,
      "start": 166.0188,
      "duration": 0.1648,
      "velocity": 114,
      "chip": "ym2612"
    },
    {
      "channel": 1,
      "note": 48,
      "start": 166.0195,
      "duration": 0.1654,
      "velocity": 108,
      "chip": "ym2612"
    },
    {
      "channel": 2,
      "note": 17,
      "start": 166.0207,
      "duration": 0.1649,
      "velocity": 113,
      "chip": "ym2612"
    },
    {
      "channel": 3,
      "note": 62,
      "start": 166.0214,
      "duration": 0.1477,
      "velocity": 118,
      "chip": "ym2612"
    },
    {
      "channel": 4,
      "note": 53,
      "start": 166.0227,
      "duration": 0.0973,
      "velocity": 127,
      "chip": "ym2612"
    },
    {
      "channel": 5,
      "note": 39,
      "start": 166.0235,
      "duration": 0.1653,
      "velocity": 126,
      "chip": "ym2612"
    },
    {
      "channel": 0,
      "note": 44,
      "start": 166.1847,
      "duration": 0.0821,
      "velocity": 112,
      "chip": "ym2612"
    },
    {
      "channel": 1,
      "note": 49,
      "start": 166.1854,
      "duration": 0.1651,
      "velocity": 108,
      "chip": "ym2612"
    },
    {
      "channel": 2,
      "note": 17,
      "start": 166.1861,
      "duration": 0.1652,
      "velocity": 113,
      "chip": "ym2612"
    },
    {
      "channel": 3,
      "note": 58,
      "start": 166.1874,
      "duration": 0.1651,
      "velocity": 127,
      "chip": "ym2612"
    },
    {
      "channel": 4,
      "note": 53,
      "start": 166.1887,
      "duration": 0.0968,
      "velocity": 127,
      "chip": "ym2612"
    },
    {
      "channel": 5,
      "note": 24,
      "start": 166.1896,
      "duration": 0.1655,
      "velocity": 126,
      "chip": "ym2612"
    },
    {
      "channel": 0,
      "note": 44,
      "start": 166.3504,
      "duration": 0.1643,
      "velocity": 114,
      "chip": "ym2612"
    },
    {
      "channel": 1,
      "note": 41,
      "start": 166.3512,
      "duration": 0.1644,
      "velocity": 108,
      "chip": "ym2612"
    },
    {
      "channel": 2,
      "note": 17,
      "start": 166.3524,
      "duration": 0.1638,
      "velocity": 1,
      "chip": "ym2612"
    },
    {
      "channel": 3,
      "note": 62,
      "start": 166.3536,
      "duration": 0.1466,
      "velocity": 118,
      "chip": "ym2612"
    },
    {
      "channel": 4,
      "note": 53,
      "start": 166.3549,
      "duration": 0.0961,
      "velocity": 127,
      "chip": "ym2612"
    },
    {
      "channel": 5,
      "note": 36,
      "start": 166.3557,
      "duration": 0.1636,
      "velocity": 126,
      "chip": "ym2612"
    },
    {
      "channel": 0,
      "note": 44,
      "start": 166.5153,
      "duration": 0.1649,
      "velocity": 114,
      "chip": "ym2612"
    },
    {
      "channel": 1,
      "note": 44,
      "start": 166.516,
      "duration": 0.165,
      "velocity": 108,
      "chip": "ym2612"
    },
    {
      "channel": 2,
      "note": 17,
      "start": 166.5172,
      "duration": 0.1645,
      "velocity": 113,
      "chip": "ym2612"
    },
    {
      "channel": 3,
      "note": 62,
      "start": 166.5179,
      "duration": 0.1478,
      "velocity": 118,
      "chip": "ym2612"
    },
    {
      "channel": 4,
      "note": 53,
      "start": 166.5192,
      "duration": 0.0973,
      "velocity": 127,
      "chip": "ym2612"
    },
    {
      "channel": 5,
      "note": 39,
      "start": 166.52,
      "duration": 0.1642,
      "velocity": 126,
      "chip": "ym2612"
    },
    {
      "channel": 0,
      "note": 44,
      "start": 166.6809,
      "duration": 0.1649,
      "velocity": 114,
      "chip": "ym2612"
    },
    {
      "channel": 1,
      "note": 49,
      "start": 166.6816,
      "duration": 0.165,
      "velocity": 108,
      "chip": "ym2612"
    },
    {
      "channel": 2,
      "note": 17,
      "start": 166.6823,
      "duration": 0.165,
      "velocity": 113,
      "chip": "ym2612"
    },
    {
      "channel": 3,
      "note": 62,
      "start": 166.6828,
      "duration": 0.1483,
      "velocity": 118,
      "chip": "ym2612"
    },
    {
      "channel": 4,
      "note": 53,
      "start": 166.6842,
      "duration": 0.0979,
      "velocity": 127,
      "chip": "ym2612"
    },
    {
      "channel": 5,
      "note": 36,
      "start": 166.685,
      "duration": 0.1649,
      "velocity": 126,
      "chip": "ym2612"
    },
    {
      "channel": 0,
      "note": 44,
      "start": 166.8464,
      "duration": 0.1649,
      "velocity": 114,
      "chip": "ym2612"
    },
    {
      "channel": 1,
      "note": 50,
      "start": 166.8471,
      "duration": 0.1649,
      "velocity": 108,
      "chip": "ym2612"
    },
    {
      "channel": 2,
      "note": 17,
      "start": 166.8478,
      "duration": 0.165,
      "velocity": 113,
      "chip": "ym2612"
    },
    {
      "channel": 3,
      "note": 29,
      "start": 166.849,
      "duration": 0.1644,
      "velocity": 1,
      "chip": "ym2612"
    },
    {
      "channel": 4,
      "note": 53,
      "start": 166.8498,
      "duration": 0.0979,
      "velocity": 127,
      "chip": "ym2612"
    },
    {
      "channel": 5,
      "note": 29,
      "start": 166.8506,
      "duration": 0.1654,
      "velocity": 126,
      "chip": "ym2612"
    },
    {
      "channel": 0,
      "note": 46,
      "start": 167.0119,
      "duration": 0.1649,
      "velocity": 114,
      "chip": "ym2612"
    },
    {
      "channel": 1,
      "note": 43,
      "start": 167.0127,
      "duration": 0.165,
      "velocity": 108,
      "chip": "ym2612"
    },
    {
      "channel": 2,
      "note": 19,
      "start": 167.0133,
      "duration": 0.165,
      "velocity": 113,
      "chip": "ym2612"
    },
    {
      "channel": 3,
      "note": 62,
      "start": 167.0144,
      "duration": 0.1478,
      "velocity": 118,
      "chip": "ym2612"
    },
    {
      "channel": 4,
      "note": 53,
      "start": 167.0158,
      "duration": 0.0973,
      "velocity": 127,
      "chip": "ym2612"
    },
    {
      "channel": 5,
      "note": 43,
      "start": 167.0166,
      "duration": 0.1648,
      "velocity": 126,
      "chip": "ym2612"
    },
    {
      "channel": 0,
      "note": 46,
      "start": 167.1775,
      "duration": 0.1648,
      "velocity": 114,
      "chip": "ym2612"
    },
    {
      "channel": 1,
      "note": 46,
      "start": 167.1782,
      "duration": 0.1649,
      "velocity": 108,
      "chip": "ym2612"
    },
    {
      "channel": 2,
      "note": 19,
      "start": 167.1794,
      "duration": 0.1644,
      "velocity": 1,
      "chip": "ym2612"
    },
    {
      "channel": 3,
      "note": 62,
      "start": 167.18,
      "duration": 0.1477,
      "velocity": 118,
      "chip": "ym2612"
    },
    {
      "channel": 4,
      "note": 53,
      "start": 167.1813,
      "duration": 0.0973,
      "velocity": 127,
      "chip": "ym2612"
    },
    {
      "channel": 5,
      "note": 38,
      "start": 167.1822,
      "duration": 0.1648,
      "velocity": 126,
      "chip": "ym2612"
    },
    {
      "channel": 0,
      "note": 46,
      "start": 167.343,
      "duration": 0.1647,
      "velocity": 114,
      "chip": "ym2612"
    },
    {
      "channel": 1,
      "note": 50,
      "start": 167.3437,
      "duration": 0.1654,
      "velocity": 108,
      "chip": "ym2612"
    },
    {
      "channel": 2,
      "note": 19,
      "start": 167.3449,
      "duration": 0.1649,
      "velocity": 113,
      "chip": "ym2612"
    },
    {
      "channel": 3,
      "note": 62,
      "start": 167.3456,
      "duration": 0.1477,
      "velocity": 118,
      "chip": "ym2612"
    },
    {
      "channel": 4,
      "note": 53,
      "start": 167.3468,
      "duration": 0.0973,
      "velocity": 127,
      "chip": "ym2612"
    },
    {
      "channel": 5,
      "note": 41,
      "start": 167.3477,
      "duration": 0.1653,
      "velocity": 126,
      "chip": "ym2612"
    },
    {
      "channel": 0,
      "note": 46,
      "start": 167.5089,
      "duration": 0.0821,
      "velocity": 112,
      "chip": "ym2612"
    },
    {
      "channel": 1,
      "note": 51,
      "start": 167.5096,
      "duration": 0.1652,
      "velocity": 108,
      "chip": "ym2612"
    },
    {
      "channel": 2,
      "note": 19,
      "start": 167.5102,
      "duration": 0.1652,
      "velocity": 113,
      "chip": "ym2612"
    },
    {
      "channel": 3,
      "note": 58,
      "start": 167.5116,
      "duration": 0.1651,
      "velocity": 127,
      "chip": "ym2612"
    },
    {
      "channel": 4,
      "note": 53,
      "start": 167.5129,
      "duration": 0.0968,
      "velocity": 127,
      "chip": "ym2612"
    },
    {
      "channel": 5,
      "note": 26,
      "start": 167.5137,
      "duration": 0.1655,
      "velocity": 126,
      "chip": "ym2612"
    },
    {
      "channel": 0,
      "note": 46,
      "start": 167.6746,
      "duration": 0.1642,
      "velocity": 114,
      "chip": "ym2612"
    },
    {
      "channel": 1,
      "note": 43,
      "start": 167.6753,
      "duration": 0.1644,
      "velocity": 108,
      "chip": "ym2612"
    },
    {
      "channel": 2,
      "note": 19,
      "start": 167.6765,
      "duration": 0.1639,
      "velocity": 1,
      "chip": "ym2612"
    },
    {
      "channel": 3,
      "note": 62,
      "start": 167.6777,
      "duration": 0.1466,
      "velocity": 118,
      "chip": "ym2612"
    },
    {
      "channel": 4,
      "note": 53,
      "start": 167.679,
      "duration": 0.0962,
      "velocity": 127,
      "chip": "ym2612"
    },
    {
      "channel": 5,
      "note": 38,
      "start": 167.6799,
      "duration": 0.1636,
      "velocity": 126,
      "chip": "ym2612"
    },
    {
      "channel": 0,
      "note": 46,
      "start": 167.8396,
      "duration": 0.1648,
      "velocity": 114,
      "chip": "ym2612"
    },
    {
      "channel": 1,
      "note": 46,
      "start": 167.8403,
      "duration": 0.165,
      "velocity": 108,
      "chip": "ym2612"
    },
    {
      "channel": 2,
      "note": 17,
      "start": 167.8415,
      "duration": 0.1645,
      "velocity": 113,
      "chip": "ym2612"
    },
    {
      "channel": 3,
      "note": 62,
      "start": 167.8421,
      "duration": 0.1477,
      "velocity": 118,
      "chip": "ym2612"
    },
    {
      "channel": 4,
      "note": 53,
      "start": 167.8434,
      "duration": 0.0973,
      "velocity": 127,
      "chip": "ym2612"
    },
    {
      "channel": 5,
      "note": 41,
      "start": 167.8443,
      "duration": 0.1649,
      "velocity": 126,
      "chip": "ym2612"
    },
    {
      "channel": 0,
      "note": 46,
      "start": 168.0051,
      "duration": 0.1648,
      "velocity": 114,
      "chip": "ym2612"
    },
    {
      "channel": 1,
      "note": 51,
      "start": 168.0058,
      "duration": 0.165,
      "velocity": 108,
      "chip": "ym2612"
    },
    {
      "channel": 2,
      "note": 19,
      "start": 168.0064,
      "duration": 0.1651,
      "velocity": 113,
      "chip": "ym2612"
    },
    {
      "channel": 3,
      "note": 58,
      "start": 168.0078,
      "duration": 0.1644,
      "velocity": 127,
      "chip": "ym2612"
    },
    {
      "channel": 4,
      "note": 53,
      "start": 168.009,
      "duration": 0.0973,
      "velocity": 127,
      "chip": "ym2612"
    },
    {
      "channel": 5,
      "note": 38,
      "start": 168.0099,
      "duration": 0.1648,
      "velocity": 126,
      "chip": "ym2612"
    },
    {
      "channel": 0,
      "note": 46,
      "start": 168.1707,
      "duration": 0.1648,
      "velocity": 114,
      "chip": "ym2612"
    },
    {
      "channel": 1,
      "note": 50,
      "start": 168.1714,
      "duration": 0.1649,
      "velocity": 108,
      "chip": "ym2612"
    },
    {
      "channel": 2,
      "note": 19,
      "start": 168.172,
      "duration": 0.1651,
      "velocity": 113,
      "chip": "ym2612"
    },
    {
      "channel": 3,
      "note": 29,
      "start": 168.1733,
      "duration": 0.1644,
      "velocity": 1,
      "chip": "ym2612"
    },
    {
      "channel": 4,
      "note": 53,
      "start": 168.1746,
      "duration": 0.0974,
      "velocity": 127,
      "chip": "ym2612"
    },
    {
      "channel": 5,
      "note": 43,
      "start": 168.1754,
      "duration": 0.1648,
      "velocity": 126,
      "chip": "ym2612"
    },
    {
      "channel": 0,
      "note": 46,
      "start": 168.3361,
      "duration": 0.1648,
      "velocity": 114,
      "chip": "ym2612"
    },
    {
      "channel": 1,
      "note": 43,
      "start": 168.3368,
      "duration": 0.165,
      "velocity": 108,
      "chip": "ym2612"
    },
    {
      "channel": 2,
      "note": 19,
      "start": 168.3375,
      "duration": 0.165,
      "velocity": 113,
      "chip": "ym2612"
    },
    {
      "channel": 3,
      "note": 62,
      "start": 168.3388,
      "duration": 0.1477,
      "velocity": 118,
      "chip": "ym2612"
    },
    {
      "channel": 4,
      "note": 53,
      "start": 168.34,
      "duration": 0.0973,
      "velocity": 127,
      "chip": "ym2612"
    },
    {
      "channel": 5,
      "note": 43,
      "start": 168.3409,
      "duration": 0.1648,
      "velocity": 126,
      "chip": "ym2612"
    },
    {
      "channel": 0,
      "note": 46,
      "start": 168.5017,
      "duration": 0.1648,
      "velocity": 114,
      "chip": "ym2612"
    },
    {
      "channel": 1,
      "note": 46,
      "start": 168.5024,
      "duration": 0.165,
      "velocity": 108,
      "chip": "ym2612"
    },
    {
      "channel": 2,
      "note": 19,
      "start": 168.5036,
      "duration": 0.1644,
      "velocity": 1,
      "chip": "ym2612"
    },
    {
      "channel": 3,
      "note": 62,
      "start": 168.5043,
      "duration": 0.1477,
      "velocity": 118,
      "chip": "ym2612"
    },
    {
      "channel": 4,
      "note": 53,
      "start": 168.5055,
      "duration": 0.0973,
      "velocity": 127,
      "chip": "ym2612"
    },
    {
      "channel": 5,
      "note": 38,
      "start": 168.5064,
      "duration": 0.1648,
      "velocity": 126,
      "chip": "ym2612"
    },
    {
      "channel": 0,
      "note": 46,
      "start": 168.6672,
      "duration": 0.1648,
      "velocity": 114,
      "chip": "ym2612"
    },
    {
      "channel": 1,
      "note": 50,
      "start": 168.6679,
      "duration": 0.1654,
      "velocity": 108,
      "chip": "ym2612"
    },
    {
      "channel": 2,
      "note": 19,
      "start": 168.6691,
      "duration": 0.1649,
      "velocity": 113,
      "chip": "ym2612"
    },
    {
      "channel": 3,
      "note": 62,
      "start": 168.6697,
      "duration": 0.1478,
      "velocity": 118,
      "chip": "ym2612"
    },
    {
      "channel": 4,
      "note": 53,
      "start": 168.6711,
      "duration": 0.0973,
      "velocity": 127,
      "chip": "ym2612"
    },
    {
      "channel": 5,
      "note": 41,
      "start": 168.672,
      "duration": 0.1653,
      "velocity": 126,
      "chip": "ym2612"
    },
    {
      "channel": 0,
      "note": 46,
      "start": 168.8332,
      "duration": 0.082,
      "velocity": 112,
      "chip": "ym2612"
    },
    {
      "channel": 1,
      "note": 51,
      "start": 168.8339,
      "duration": 0.1651,
      "velocity": 108,
      "chip": "ym2612"
    },
    {
      "channel": 2,
      "note": 19,
      "start": 168.8345,
      "duration": 0.1652,
      "velocity": 113,
      "chip": "ym2612"
    },
    {
      "channel": 3,
      "note": 58,
      "start": 168.8358,
      "duration": 0.1651,
      "velocity": 127,
      "chip": "ym2612"
    },
    {
      "channel": 4,
      "note": 53,
      "start": 168.8371,
      "duration": 0.0968,
      "velocity": 127,
      "chip": "ym2612"
    },
    {
      "channel": 5,
      "note": 26,
      "start": 168.838,
      "duration": 0.1654,
      "velocity": 126,
      "chip": "ym2612"
    },
    {
      "channel": 0,
      "note": 46,
      "start": 168.9988,
      "duration": 0.1642,
      "velocity": 114,
      "chip": "ym2612"
    },
    {
      "channel": 1,
      "note": 43,
      "start": 168.9996,
      "duration": 0.1644,
      "velocity": 108,
      "chip": "ym2612"
    },
    {
      "channel": 2,
      "note": 19,
      "start": 169.0008,
      "duration": 0.1638,
      "velocity": 1,
      "chip": "ym2612"
    },
    {
      "channel": 3,
      "note": 62,
      "start": 169.002,
      "duration": 0.1466,
      "velocity": 118,
      "chip": "ym2612"
    },
    {
      "channel": 4,
      "note": 53,
      "start": 169.0032,
      "duration": 0.0962,
      "velocity": 127,
      "chip": "ym2612"
    },
    {
      "channel": 5,
      "note": 38,
      "start": 169.0041,
      "duration": 0.1636,
      "velocity": 126,
      "chip": "ym2612"
    },
    {
      "channel": 0,
      "note": 46,
      "start": 169.1637,
      "duration": 0.1648,
      "velocity": 114,
      "chip": "ym2612"
    },
    {
      "channel": 1,
      "note": 46,
      "start": 169.1644,
      "duration": 0.165,
      "velocity": 108,
      "chip": "ym2612"
    },
    {
      "channel": 2,
      "note": 19,
      "start": 169.1656,
      "duration": 0.1645,
      "velocity": 113,
      "chip": "ym2612"
    },
    {
      "channel": 3,
      "note": 62,
      "start": 169.1663,
      "duration": 0.1478,
      "velocity": 118,
      "chip": "ym2612"
    },
    {
      "channel": 4,
      "note": 53,
      "start": 169.1676,
      "duration": 0.0973,
      "velocity": 127,
      "chip": "ym2612"
    },
    {
      "channel": 5,
      "note": 41,
      "start": 169.1685,
      "duration": 0.1642,
      "velocity": 126,
      "chip": "ym2612"
    },
    {
      "channel": 0,
      "note": 46,
      "start": 169.3293,
      "duration": 0.1649,
      "velocity": 114,
      "chip": "ym2612"
    },
    {
      "channel": 1,
      "note": 51,
      "start": 169.33,
      "duration": 0.165,
      "velocity": 108,
      "chip": "ym2612"
    },
    {
      "channel": 2,
      "note": 19,
      "start": 169.3306,
      "duration": 0.1651,
      "velocity": 113,
      "chip": "ym2612"
    },
    {
      "channel": 3,
      "note": 62,
      "start": 169.3312,
      "duration": 0.1483,
      "velocity": 118,
      "chip": "ym2612"
    },
    {
      "channel": 4,
      "note": 53,
      "start": 169.3325,
      "duration": 0.098,
      "velocity": 127,
      "chip": "ym2612"
    },
    {
      "channel": 5,
      "note": 38,
      "start": 169.3334,
      "duration": 0.1649,
      "velocity": 126,
      "chip": "ym2612"
    },
    {
      "channel": 0,
      "note": 46,
      "start": 169.4948,
      "duration": 0.1649,
      "velocity": 114,
      "chip": "ym2612"
    },
    {
      "channel": 1,
      "note": 48,
      "start": 169.4955,
      "duration": 0.165,
      "velocity": 108,
      "chip": "ym2612"
    },
    {
      "channel": 2,
      "note": 19,
      "start": 169.4961,
      "duration": 0.1651,
      "velocity": 113,
      "chip": "ym2612"
    },
    {
      "channel": 3,
      "note": 29,
      "start": 169.4974,
      "duration": 0.1644,
      "velocity": 1,
      "chip": "ym2612"
    },
    {
      "channel": 4,
      "note": 53,
      "start": 169.4981,
      "duration": 0.098,
      "velocity": 127,
      "chip": "ym2612"
    },
    {
      "channel": 5,
      "note": 31,
      "start": 169.499,
      "duration": 0.1653,
      "velocity": 126,
      "chip": "ym2612"
    },
    {
      "channel": 0,
      "note": 49,
      "start": 169.6603,
      "duration": 0.1649,
      "velocity": 114,
      "chip": "ym2612"
    },
    {
      "channel": 1,
      "note": 46,
      "start": 169.661,
      "duration": 0.165,
      "velocity": 108,
      "chip": "ym2612"
    },
    {
      "channel": 2,
      "note": 22,
      "start": 169.6617,
      "duration": 0.1651,
      "velocity": 113,
      "chip": "ym2612"
    },
    {
      "channel": 3,
      "note": 62,
      "start": 169.6629,
      "duration": 0.1478,
      "velocity": 118,
      "chip": "ym2612"
    },
    {
      "channel": 4,
      "note": 53,
      "start": 169.6641,
      "duration": 0.0974,
      "velocity": 127,
      "chip": "ym2612"
    },
    {
      "channel": 5,
      "note": 46,
      "start": 169.665,
      "duration": 0.1648,
      "velocity": 126,
      "chip": "ym2612"
    },
    {
      "channel": 0,
      "note": 49,
      "start": 169.8258,
      "duration": 0.1649,
      "velocity": 114,
      "chip": "ym2612"
    },
    {
      "channel": 1,
      "note": 49,
      "start": 169.8266,
      "duration": 0.1649,
      "velocity": 108,
      "chip": "ym2612"
    },
    {
      "channel": 2,
      "note": 22,
      "start": 169.8278,
      "duration": 0.1644,
      "velocity": 1,
      "chip": "ym2612"
    },
    {
      "channel": 3,
      "note": 62,
      "start": 169.8284,
      "duration": 0.1478,
      "velocity": 118,
      "chip": "ym2612"
    },
    {
      "channel": 4,
      "note": 53,
      "start": 169.8297,
      "duration": 0.0973,
      "velocity": 127,
      "chip": "ym2612"
    },
    {
      "channel": 5,
      "note": 41,
      "start": 169.8305,
      "duration": 0.1648,
      "velocity": 126,
      "chip": "ym2612"
    },
    {
      "channel": 0,
      "note": 49,
      "start": 169.9914,
      "duration": 0.1648,
      "velocity": 114,
      "chip": "ym2612"
    },
    {
      "channel": 1,
      "note": 53,
      "start": 169.9921,
      "duration": 0.1654,
      "velocity": 108,
      "chip": "ym2612"
    },
    {
      "channel": 2,
      "note": 22,
      "start": 169.9933,
      "duration": 0.1649,
      "velocity": 113,
      "chip": "ym2612"
    },
    {
      "channel": 3,
      "note": 62,
      "start": 169.994,
      "duration": 0.1477,
      "velocity": 118,
      "chip": "ym2612"
    },
    {
      "channel": 4,
      "note": 53,
      "start": 169.9952,
      "duration": 0.0973,
      "velocity": 127,
      "chip": "ym2612"
    },
    {
      "channel": 5,
      "note": 44,
      "start": 169.9961,
      "duration": 0.1653,
      "velocity": 126,
      "chip": "ym2612"
    },
    {
      "channel": 0,
      "note": 49,
      "start": 170.1573,
      "duration": 0.0821,
      "velocity": 112,
      "chip": "ym2612"
    },
    {
      "channel": 1,
      "note": 54,
      "start": 170.158,
      "duration": 0.1651,
      "velocity": 108,
      "chip": "ym2612"
    },
    {
      "channel": 2,
      "note": 22,
      "start": 170.1587,
      "duration": 0.1652,
      "velocity": 113,
      "chip": "ym2612"
    },
    {
      "channel": 3,
      "note": 58,
      "start": 170.16,
      "duration": 0.1651,
      "velocity": 127,
      "chip": "ym2612"
    },
    {
      "channel": 4,
      "note": 53,
      "start": 170.1613,
      "duration": 0.0968,
      "velocity": 127,
      "chip": "ym2612"
    },
    {
      "channel": 5,
      "note": 29,
      "start": 170.1622,
      "duration": 0.1654,
      "velocity": 126,
      "chip": "ym2612"
    },
    {
      "channel": 0,
      "note": 49,
      "start": 170.323,
      "duration": 0.1643,
      "velocity": 114,
      "chip": "ym2612"
    },
    {
      "channel": 1,
      "note": 46,
      "start": 170.3237,
      "duration": 0.1644,
      "velocity": 108,
      "chip": "ym2612"
    },
    {
      "channel": 2,
      "note": 22,
      "start": 170.3249,
      "duration": 0.1639,
      "velocity": 1,
      "chip": "ym2612"
    },
    {
      "channel": 3,
      "note": 62,
      "start": 170.3261,
      "duration": 0.1466,
      "velocity": 118,
      "chip": "ym2612"
    },
    {
      "channel": 4,
      "note": 53,
      "start": 170.3274,
      "duration": 0.0962,
      "velocity": 127,
      "chip": "ym2612"
    },
    {
      "channel": 5,
      "note": 41,
      "start": 170.3283,
      "duration": 0.1637,
      "velocity": 126,
      "chip": "ym2612"
    },
    {
      "channel": 0,
      "note": 49,
      "start": 170.488,
      "duration": 0.1648,
      "velocity": 114,
      "chip": "ym2612"
    },
    {
      "channel": 1,
      "note": 49,
      "start": 170.4887,
      "duration": 0.165,
      "velocity": 108,
      "chip": "ym2612"
    },
    {
      "channel": 2,
      "note": 20,
      "start": 170.4899,
      "duration": 0.1645,
      "velocity": 113,
      "chip": "ym2612"
    },
    {
      "channel": 3,
      "note": 62,
      "start": 170.4905,
      "duration": 0.1478,
      "velocity": 118,
      "chip": "ym2612"
    },
    {
      "channel": 4,
      "note": 53,
      "start": 170.4919,
      "duration": 0.0973,
      "velocity": 127,
      "chip": "ym2612"
    },
    {
      "channel": 5,
      "note": 44,
      "start": 170.4927,
      "duration": 0.1649,
      "velocity": 126,
      "chip": "ym2612"
    },
    {
      "channel": 0,
      "note": 49,
      "start": 170.6535,
      "duration": 0.1648,
      "velocity": 114,
      "chip": "ym2612"
    },
    {
      "channel": 1,
      "note": 54,
      "start": 170.6543,
      "duration": 0.1649,
      "velocity": 108,
      "chip": "ym2612"
    },
    {
      "channel": 2,
      "note": 22,
      "start": 170.6549,
      "duration": 0.165,
      "velocity": 113,
      "chip": "ym2612"
    },
    {
      "channel": 3,
      "note": 58,
      "start": 170.6562,
      "duration": 0.1644,
      "velocity": 127,
      "chip": "ym2612"
    },
    {
      "channel": 4,
      "note": 53,
      "start": 170.6574,
      "duration": 0.0973,
      "velocity": 127,
      "chip": "ym2612"
    },
    {
      "channel": 5,
      "note": 41,
      "start": 170.6583,
      "duration": 0.1648,
      "velocity": 126,
      "chip": "ym2612"
    },
    {
      "channel": 0,
      "note": 49,
      "start": 170.819,
      "duration": 0.1648,
      "velocity": 114,
      "chip": "ym2612"
    },
    {
      "channel": 1,
      "note": 53,
      "start": 170.8197,
      "duration": 0.1649,
      "velocity": 108,
      "chip": "ym2612"
    },
    {
      "channel": 2,
      "note": 22,
      "start": 170.8204,
      "duration": 0.1651,
      "velocity": 113,
      "chip": "ym2612"
    },
    {
      "channel": 3,
      "note": 29,
      "start": 170.8217,
      "duration": 0.1643,
      "velocity": 1,
      "chip": "ym2612"
    },
    {
      "channel": 4,
      "note": 53,
      "start": 170.823,
      "duration": 0.0973,
      "velocity": 127,
      "chip": "ym2612"
    },
    {
      "channel": 5,
      "note": 46,
      "start": 170.8239,
      "duration": 0.1647,
      "velocity": 126,
      "chip": "ym2612"
    },
    {
      "channel": 0,
      "note": 49,
      "start": 170.9846,
      "duration": 0.1648,
      "velocity": 114,
      "chip": "ym2612"
    },
    {
      "channel": 1,
      "note": 46,
      "start": 170.9852,
      "duration": 0.165,
      "velocity": 108,
      "chip": "ym2612"
    },
    {
      "channel": 2,
      "note": 22,
      "start": 170.9859,
      "duration": 0.165,
      "velocity": 113,
      "chip": "ym2612"
    },
    {
      "channel": 3,
      "note": 62,
      "start": 170.9871,
      "duration": 0.1477,
      "velocity": 118,
      "chip": "ym2612"
    },
    {
      "channel": 4,
      "note": 53,
      "start": 170.9884,
      "duration": 0.0973,
      "velocity": 127,
      "chip": "ym2612"
    },
    {
      "channel": 5,
      "note": 46,
      "start": 170.9893,
      "duration": 0.1648,
      "velocity": 126,
      "chip": "ym2612"
    },
    {
      "channel": 0,
      "note": 49,
      "start": 171.1501,
      "duration": 0.1648,
      "velocity": 114,
      "chip": "ym2612"
    },
    {
      "channel": 1,
      "note": 49,
      "start": 171.1508,
      "duration": 0.165,
      "velocity": 108,
      "chip": "ym2612"
    },
    {
      "channel": 2,
      "note": 22,
      "start": 171.152,
      "duration": 0.1644,
      "velocity": 1,
      "chip": "ym2612"
    },
    {
      "channel": 3,
      "note": 62,
      "start": 171.1526,
      "duration": 0.1477,
      "velocity": 118,
      "chip": "ym2612"
    },
    {
      "channel": 4,
      "note": 53,
      "start": 171.1539,
      "duration": 0.0974,
      "velocity": 127,
      "chip": "ym2612"
    },
    {
      "channel": 5,
      "note": 41,
      "start": 171.1548,
      "duration": 0.1648,
      "velocity": 126,
      "chip": "ym2612"
    },
    {
      "channel": 0,
      "note": 49,
      "start": 171.3156,
      "duration": 0.1648,
      "velocity": 114,
      "chip": "ym2612"
    },
    {
      "channel": 1,
      "note": 53,
      "start": 171.3163,
      "duration": 0.1654,
      "velocity": 108,
      "chip": "ym2612"
    },
    {
      "channel": 2,
      "note": 22,
      "start": 171.3175,
      "duration": 0.1649,
      "velocity": 113,
      "chip": "ym2612"
    },
    {
      "channel": 3,
      "note": 62,
      "start": 171.3181,
      "duration": 0.1477,
      "velocity": 118,
      "chip": "ym2612"
    },
    {
      "channel": 4,
      "note": 53,
      "start": 171.3195,
      "duration": 0.0973,
      "velocity": 127,
      "chip": "ym2612"
    },
    {
      "channel": 5,
      "note": 44,
      "start": 171.3204,
      "duration": 0.1653,
      "velocity": 126,
      "chip": "ym2612"
    },
    {
      "channel": 0,
      "note": 49,
      "start": 171.4816,
      "duration": 0.082,
      "velocity": 112,
      "chip": "ym2612"
    },
    {
      "channel": 1,
      "note": 54,
      "start": 171.4823,
      "duration": 0.1651,
      "velocity": 108,
      "chip": "ym2612"
    },
    {
      "channel": 2,
      "note": 22,
      "start": 171.4829,
      "duration": 0.1651,
      "velocity": 113,
      "chip": "ym2612"
    },
    {
      "channel": 3,
      "note": 58,
      "start": 171.4842,
      "duration": 0.1651,
      "velocity": 127,
      "chip": "ym2612"
    },
    {
      "channel": 4,
      "note": 53,
      "start": 171.4854,
      "duration": 0.0968,
      "velocity": 127,
      "chip": "ym2612"
    },
    {
      "channel": 5,
      "note": 29,
      "start": 171.4863,
      "duration": 0.1655,
      "velocity": 126,
      "chip": "ym2612"
    },
    {
      "channel": 0,
      "note": 49,
      "start": 171.6472,
      "duration": 0.1642,
      "velocity": 114,
      "chip": "ym2612"
    },
    {
      "channel": 1,
      "note": 46,
      "start": 171.6479,
      "duration": 0.1644,
      "velocity": 108,
      "chip": "ym2612"
    },
    {
      "channel": 2,
      "note": 22,
      "start": 171.6491,
      "duration": 0.1639,
      "velocity": 1,
      "chip": "ym2612"
    },
    {
      "channel": 3,
      "note": 62,
      "start": 171.6503,
      "duration": 0.1466,
      "velocity": 118,
      "chip": "ym2612"
    },
    {
      "channel": 4,
      "note": 53,
      "start": 171.6517,
      "duration": 0.0962,
      "velocity": 127,
      "chip": "ym2612"
    },
    {
      "channel": 5,
      "note": 41,
      "start": 171.6525,
      "duration": 0.1637,
      "velocity": 126,
      "chip": "ym2612"
    },
    {
      "channel": 0,
      "note": 49,
      "start": 171.8122,
      "duration": 0.1648,
      "velocity": 114,
      "chip": "ym2612"
    },
    {
      "channel": 1,
      "note": 49,
      "start": 171.8129,
      "duration": 0.165,
      "velocity": 108,
      "chip": "ym2612"
    },
    {
      "channel": 2,
      "note": 22,
      "start": 171.8141,
      "duration": 0.1645,
      "velocity": 113,
      "chip": "ym2612"
    },
    {
      "channel": 3,
      "note": 62,
      "start": 171.8147,
      "duration": 0.1478,
      "velocity": 118,
      "chip": "ym2612"
    },
    {
      "channel": 4,
      "note": 53,
      "start": 171.816,
      "duration": 0.0973,
      "velocity": 127,
      "chip": "ym2612"
    },
    {
      "channel": 5,
      "note": 44,
      "start": 171.8169,
      "duration": 0.1642,
      "velocity": 126,
      "chip": "ym2612"
    },
    {
      "channel": 0,
      "note": 49,
      "start": 171.9777,
      "duration": 0.1648,
      "velocity": 114,
      "chip": "ym2612"
    },
    {
      "channel": 1,
      "note": 54,
      "start": 171.9784,
      "duration": 0.165,
      "velocity": 108,
      "chip": "ym2612"
    },
    {
      "channel": 2,
      "note": 22,
      "start": 171.979,
      "duration": 0.1651,
      "velocity": 113,
      "chip": "ym2612"
    },
    {
      "channel": 3,
      "note": 62,
      "start": 171.9796,
      "duration": 0.1484,
      "velocity": 118,
      "chip": "ym2612"
    },
    {
      "channel": 4,
      "note": 53,
      "start": 171.9809,
      "duration": 0.098,
      "velocity": 127,
      "chip": "ym2612"
    },
    {
      "channel": 5,
      "note": 41,
      "start": 171.9818,
      "duration": 0.1649,
      "velocity": 126,
      "chip": "ym2612"
    },
    {
      "channel": 0,
      "note": 49,
      "start": 172.1432,
      "duration": 0.1648,
      "velocity": 114,
      "chip": "ym2612"
    },
    {
      "channel": 1,
      "note": 55,
      "start": 172.1439,
      "duration": 0.165,
      "velocity": 108,
      "chip": "ym2612"
    },
    {
      "channel": 2,
      "note": 22,
      "start": 172.1445,
      "duration": 0.1651,
      "velocity": 113,
      "chip": "ym2612"
    },
    {
      "channel": 3,
      "note": 29,
      "start": 172.1458,
      "duration": 0.1644,
      "velocity": 1,
      "chip": "ym2612"
    },
    {
      "channel": 4,
      "note": 53,
      "start": 172.1465,
      "duration": 0.098,
      "velocity": 127,
      "chip": "ym2612"
    },
    {
      "channel": 5,
      "note": 34,
      "start": 172.1474,
      "duration": 0.1653,
      "velocity": 126,
      "chip": "ym2612"
    },
    {
      "channel": 0,
      "note": 51,
      "start": 172.3087,
      "duration": 0.1648,
      "velocity": 114,
      "chip": "ym2612"
    },
    {
      "channel": 1,
      "note": 48,
      "start": 172.3094,
      "duration": 0.165,
      "velocity": 108,
      "chip": "ym2612"
    },
    {
      "channel": 2,
      "note": 24,
      "start": 172.31,
      "duration": 0.165,
      "velocity": 113,
      "chip": "ym2612"
    },
    {
      "channel": 3,
      "note": 62,
      "start": 172.3113,
      "duration": 0.1478,
      "velocity": 118,
      "chip": "ym2612"
    },
    {
      "channel": 4,
      "note": 53,
      "start": 172.3125,
      "duration": 0.0974,
      "velocity": 127,
      "chip": "ym2612"
    },
    {
      "channel": 5,
      "note": 48,
      "start": 172.3134,
      "duration": 0.1648,
      "velocity": 126,
      "chip": "ym2612"
    },
    {
      "channel": 0,
      "note": 51,
      "start": 172.4742,
      "duration": 0.1648,
      "velocity": 114,
      "chip": "ym2612"
    },
    {
      "channel": 1,
      "note": 51,
      "start": 172.4749,
      "duration": 0.165,
      "velocity": 108,
      "chip": "ym2612"
    },
    {
      "channel": 2,
      "note": 24,
      "start": 172.4761,
      "duration": 0.1644,
      "velocity": 1,
      "chip": "ym2612"
    },
    {
      "channel": 3,
      "note": 62,
      "start": 172.4768,
      "duration": 0.1478,
      "velocity": 118,
      "chip": "ym2612"
    },
    {
      "channel": 4,
      "note": 53,
      "start": 172.4781,
      "duration": 0.0973,
      "velocity": 127,
      "chip": "ym2612"
    },
    {
      "channel": 5,
      "note": 43,
      "start": 172.479,
      "duration": 0.1648,
      "velocity": 126,
      "chip": "ym2612"
    },
    {
      "channel": 0,
      "note": 51,
      "start": 172.6398,
      "duration": 0.1648,
      "velocity": 114,
      "chip": "ym2612"
    },
    {
      "channel": 1,
      "note": 55,
      "start": 172.6405,
      "duration": 0.1655,
      "velocity": 108,
      "chip": "ym2612"
    },
    {
      "channel": 2,
      "note": 24,
      "start": 172.6417,
      "duration": 0.1649,
      "velocity": 113,
      "chip": "ym2612"
    },
    {
      "channel": 3,
      "note": 62,
      "start": 172.6423,
      "duration": 0.1478,
      "velocity": 118,
      "chip": "ym2612"
    },
    {
      "channel": 4,
      "note": 53,
      "start": 172.6437,
      "duration": 0.0973,
      "velocity": 127,
      "chip": "ym2612"
    },
    {
      "channel": 5,
      "note": 46,
      "start": 172.6445,
      "duration": 0.1653,
      "velocity": 126,
      "chip": "ym2612"
    },
    {
      "channel": 0,
      "note": 51,
      "start": 172.8057,
      "duration": 0.0821,
      "velocity": 112,
      "chip": "ym2612"
    },
    {
      "channel": 1,
      "note": 56,
      "start": 172.8064,
      "duration": 0.1652,
      "velocity": 108,
      "chip": "ym2612"
    },
    {
      "channel": 2,
      "note": 24,
      "start": 172.8071,
      "duration": 0.1652,
      "velocity": 113,
      "chip": "ym2612"
    },
    {
      "channel": 3,
      "note": 58,
      "start": 172.8084,
      "duration": 0.1651,
      "velocity": 127,
      "chip": "ym2612"
    },
    {
      "channel": 4,
      "note": 53,
      "start": 172.8097,
      "duration": 0.0968,
      "velocity": 127,
      "chip": "ym2612"
    },
    {
      "channel": 5,
      "note": 31,
      "start": 172.8106,
      "duration": 0.1655,
      "velocity": 126,
      "chip": "ym2612"
    },
    {
      "channel": 0,
      "note": 51,
      "start": 172.9715,
      "duration": 0.1642,
      "velocity": 114,
      "chip": "ym2612"
    },
    {
      "channel": 1,
      "note": 48,
      "start": 172.9721,
      "duration": 0.1644,
      "velocity": 108,
      "chip": "ym2612"
    },
    {
      "channel": 2,
      "note": 24,
      "start": 172.9734,
      "duration": 0.1639,
      "velocity": 1,
      "chip": "ym2612"
    },
    {
      "channel": 3,
      "note": 62,
      "start": 172.9746,
      "duration": 0.1466,
      "velocity": 118,
      "chip": "ym2612"
    },
    {
      "channel": 4,
      "note": 53,
      "start": 172.9759,
      "duration": 0.0962,
      "velocity": 127,
      "chip": "ym2612"
    },
    {
      "channel": 5,
      "note": 43,
      "start": 172.9767,
      "duration": 0.1637,
      "velocity": 126,
      "chip": "ym2612"
    },
    {
      "channel": 0,
      "note": 51,
      "start": 173.1364,
      "duration": 0.1648,
      "velocity": 114,
      "chip": "ym2612"
    },
    {
      "channel": 1,
      "note": 51,
      "start": 173.1372,
      "duration": 0.1649,
      "velocity": 108,
      "chip": "ym2612"
    },
    {
      "channel": 2,
      "note": 22,
      "start": 173.1384,
      "duration": 0.1644,
      "velocity": 113,
      "chip": "ym2612"
    },
    {
      "channel": 3,
      "note": 62,
      "start": 173.1389,
      "duration": 0.1477,
      "velocity": 118,
      "chip": "ym2612"
    },
    {
      "channel": 4,
      "note": 53,
      "start": 173.1403,
      "duration": 0.0973,
      "velocity": 127,
      "chip": "ym2612"
    },
    {
      "channel": 5,
      "note": 46,
      "start": 173.1411,
      "duration": 0.1649,
      "velocity": 126,
      "chip": "ym2612"
    },
    {
      "channel": 0,
      "note": 51,
      "start": 173.3019,
      "duration": 0.1648,
      "velocity": 114,
      "chip": "ym2612"
    },
    {
      "channel": 1,
      "note": 56,
      "start": 173.3026,
      "duration": 0.1649,
      "velocity": 108,
      "chip": "ym2612"
    },
    {
      "channel": 2,
      "note": 24,
      "start": 173.3032,
      "duration": 0.165,
      "velocity": 113,
      "chip": "ym2612"
    },
    {
      "channel": 3,
      "note": 58,
      "start": 173.3046,
      "duration": 0.1643,
      "velocity": 127,
      "chip": "ym2612"
    },
    {
      "channel": 4,
      "note": 53,
      "start": 173.3059,
      "duration": 0.0973,
      "velocity": 127,
      "chip": "ym2612"
    },
    {
      "channel": 5,
      "note": 43,
      "start": 173.3068,
      "duration": 0.1647,
      "velocity": 126,
      "chip": "ym2612"
    },
    {
      "channel": 0,
      "note": 51,
      "start": 173.4674,
      "duration": 0.1648,
      "velocity": 114,
      "chip": "ym2612"
    },
    {
      "channel": 1,
      "note": 55,
      "start": 173.4681,
      "duration": 0.1649,
      "velocity": 108,
      "chip": "ym2612"
    },
    {
      "channel": 2,
      "note": 24,
      "start": 173.4688,
      "duration": 0.165,
      "velocity": 113,
      "chip": "ym2612"
    },
    {
      "channel": 3,
      "note": 29,
      "start": 173.47,
      "duration": 0.1644,
      "velocity": 1,
      "chip": "ym2612"
    },
    {
      "channel": 4,
      "note": 53,
      "start": 173.4714,
      "duration": 0.0973,
      "velocity": 127,
      "chip": "ym2612"
    },
    {
      "channel": 5,
      "note": 48,
      "start": 173.4722,
      "duration": 0.1648,
      "velocity": 126,
      "chip": "ym2612"
    },
    {
      "channel": 0,
      "note": 51,
      "start": 173.6329,
      "duration": 0.1648,
      "velocity": 114,
      "chip": "ym2612"
    },
    {
      "channel": 1,
      "note": 48,
      "start": 173.6337,
      "duration": 0.1649,
      "velocity": 108,
      "chip": "ym2612"
    },
    {
      "channel": 2,
      "note": 24,
      "start": 173.6343,
      "duration": 0.165,
      "velocity": 113,
      "chip": "ym2612"
    },
    {
      "channel": 3,
      "note": 62,
      "start": 173.6354,
      "duration": 0.1478,
      "velocity": 118,
      "chip": "ym2612"
    },
    {
      "channel": 4,
      "note": 53,
      "start": 173.6368,
      "duration": 0.0973,
      "velocity": 127,
      "chip": "ym2612"
    },
    {
      "channel": 5,
      "note": 48,
      "start": 173.6377,
      "duration": 0.1648,
      "velocity": 126,
      "chip": "ym2612"
    },
    {
      "channel": 0,
      "note": 51,
      "start": 173.7985,
      "duration": 0.1648,
      "velocity": 114,
      "chip": "ym2612"
    },
    {
      "channel": 1,
      "note": 51,
      "start": 173.7992,
      "duration": 0.1649,
      "velocity": 108,
      "chip": "ym2612"
    },
    {
      "channel": 2,
      "note": 24,
      "start": 173.8004,
      "duration": 0.1644,
      "velocity": 1,
      "chip": "ym2612"
    },
    {
      "channel": 3,
      "note": 62,
      "start": 173.801,
      "duration": 0.1477,
      "velocity": 118,
      "chip": "ym2612"
    },
    {
      "channel": 4,
      "note": 53,
      "start": 173.8023,
      "duration": 0.0973,
      "velocity": 127,
      "chip": "ym2612"
    },
    {
      "channel": 5,
      "note": 43,
      "start": 173.8032,
      "duration": 0.1648,
      "velocity": 126,
      "chip": "ym2612"
    },
    {
      "channel": 0,
      "note": 51,
      "start": 173.964,
      "duration": 0.1648,
      "velocity": 114,
      "chip": "ym2612"
    },
    {
      "channel": 1,
      "note": 55,
      "start": 173.9647,
      "duration": 0.1654,
      "velocity": 108,
      "chip": "ym2612"
    },
    {
      "channel": 2,
      "note": 24,
      "start": 173.9659,
      "duration": 0.1649,
      "velocity": 113,
      "chip": "ym2612"
    },
    {
      "channel": 3,
      "note": 62,
      "start": 173.9666,
      "duration": 0.1477,
      "velocity": 118,
      "chip": "ym2612"
    },
    {
      "channel": 4,
      "note": 53,
      "start": 173.9678,
      "duration": 0.0973,
      "velocity": 127,
      "chip": "ym2612"
    },
    {
      "channel": 5,
      "note": 46,
      "start": 173.9687,
      "duration": 0.1653,
      "velocity": 126,
      "chip": "ym2612"
    },
    {
      "channel": 0,
      "note": 51,
      "start": 174.1299,
      "duration": 0.0821,
      "velocity": 112,
      "chip": "ym2612"
    },
    {
      "channel": 1,
      "note": 56,
      "start": 174.1307,
      "duration": 0.1651,
      "velocity": 108,
      "chip": "ym2612"
    },
    {
      "channel": 2,
      "note": 24,
      "start": 174.1313,
      "duration": 0.1651,
      "velocity": 113,
      "chip": "ym2612"
    },
    {
      "channel": 3,
      "note": 58,
      "start": 174.1326,
      "duration": 0.1651,
      "velocity": 127,
      "chip": "ym2612"
    },
    {
      "channel": 4,
      "note": 53,
      "start": 174.1339,
      "duration": 0.0968,
      "velocity": 127,
      "chip": "ym2612"
    },
    {
      "channel": 5,
      "note": 31,
      "start": 174.1347,
      "duration": 0.1655,
      "velocity": 126,
      "chip": "ym2612"
    },
    {
      "channel": 0,
      "note": 51,
      "start": 174.2956,
      "duration": 0.1642,
      "velocity": 114,
      "chip": "ym2612"
    },
    {
      "channel": 1,
      "note": 48,
      "start": 174.2963,
      "duration": 0.1644,
      "velocity": 108,
      "chip": "ym2612"
    },
    {
      "channel": 2,
      "note": 24,
      "start": 174.2975,
      "duration": 0.1639,
      "velocity": 1,
      "chip": "ym2612"
    },
    {
      "channel": 3,
      "note": 62,
      "start": 174.2987,
      "duration": 0.1466,
      "velocity": 118,
      "chip": "ym2612"
    },
    {
      "channel": 4,
      "note": 53,
      "start": 174.3001,
      "duration": 0.0962,
      "velocity": 127,
      "chip": "ym2612"
    },
    {
      "channel": 5,
      "note": 43,
      "start": 174.3009,
      "duration": 0.1637,
      "velocity": 126,
      "chip": "ym2612"
    },
    {
      "channel": 0,
      "note": 51,
      "start": 174.4606,
      "duration": 0.1648,
      "velocity": 114,
      "chip": "ym2612"
    },
    {
      "channel": 1,
      "note": 51,
      "start": 174.4613,
      "duration": 0.165,
      "velocity": 108,
      "chip": "ym2612"
    },
    {
      "channel": 2,
      "note": 24,
      "start": 174.4625,
      "duration": 0.1645,
      "velocity": 113,
      "chip": "ym2612"
    },
    {
      "channel": 3,
      "note": 62,
      "start": 174.4631,
      "duration": 0.1478,
      "velocity": 118,
      "chip": "ym2612"
    },
    {
      "channel": 4,
      "note": 53,
      "start": 174.4644,
      "duration": 0.0973,
      "velocity": 127,
      "chip": "ym2612"
    },
    {
      "channel": 5,
      "note": 46,
      "start": 174.4653,
      "duration": 0.1643,
      "velocity": 126,
      "chip": "ym2612"
    },
    {
      "channel": 0,
      "note": 51,
      "start": 174.6261,
      "duration": 0.1648,
      "velocity": 114,
      "chip": "ym2612"
    },
    {
      "channel": 1,
      "note": 56,
      "start": 174.6268,
      "duration": 0.165,
      "velocity": 108,
      "chip": "ym2612"
    },
    {
      "channel": 2,
      "note": 24,
      "start": 174.6274,
      "duration": 0.1651,
      "velocity": 113,
      "chip": "ym2612"
    },
    {
      "channel": 3,
      "note": 62,
      "start": 174.628,
      "duration": 0.1483,
      "velocity": 118,
      "chip": "ym2612"
    },
    {
      "channel": 4,
      "note": 53,
      "start": 174.6293,
      "duration": 0.098,
      "velocity": 127,
      "chip": "ym2612"
    },
    {
      "channel": 5,
      "note": 43,
      "start": 174.6302,
      "duration": 0.1649,
      "velocity": 126,
      "chip": "ym2612"
    },
    {
      "channel": 0,
      "note": 51,
      "start": 174.7916,
      "duration": 0.1648,
      "velocity": 114,
      "chip": "ym2612"
    },
    {
      "channel": 1,
      "note": 53,
      "start": 174.7923,
      "duration": 0.165,
      "velocity": 108,
      "chip": "ym2612"
    },
    {
      "channel": 2,
      "note": 24,
      "start": 174.7929,
      "duration": 0.1651,
      "velocity": 113,
      "chip": "ym2612"
    },
    {
      "channel": 3,
      "note": 29,
      "start": 174.7942,
      "duration": 0.1644,
      "velocity": 1,
      "chip": "ym2612"
    },
    {
      "channel": 4,
      "note": 53,
      "start": 174.7949,
      "duration": 0.098,
      "velocity": 127,
      "chip": "ym2612"
    },
    {
      "channel": 5,
      "note": 36,
      "start": 174.7958,
      "duration": 0.1653,
      "velocity": 126,
      "chip": "ym2612"
    },
    {
      "channel": 0,
      "note": 49,
      "start": 174.9571,
      "duration": 0.1648,
      "velocity": 114,
      "chip": "ym2612"
    },
    {
      "channel": 1,
      "note": 46,
      "start": 174.9578,
      "duration": 0.165,
      "velocity": 108,
      "chip": "ym2612"
    },
    {
      "channel": 2,
      "note": 22,
      "start": 174.9585,
      "duration": 0.165,
      "velocity": 113,
      "chip": "ym2612"
    },
    {
      "channel": 3,
      "note": 62,
      "start": 174.9597,
      "duration": 0.1478,
      "velocity": 118,
      "chip": "ym2612"
    },
    {
      "channel": 4,
      "note": 53,
      "start": 174.961,
      "duration": 0.0974,
      "velocity": 127,
      "chip": "ym2612"
    },
    {
      "channel": 5,
      "note": 46,
      "start": 174.9618,
      "duration": 0.1648,
      "velocity": 126,
      "chip": "ym2612"
    },
    {
      "channel": 0,
      "note": 49,
      "start": 175.1227,
      "duration": 0.1648,
      "velocity": 114,
      "chip": "ym2612"
    },
    {
      "channel": 1,
      "note": 49,
      "start": 175.1234,
      "duration": 0.165,
      "velocity": 108,
      "chip": "ym2612"
    },
    {
      "channel": 2,
      "note": 22,
      "start": 175.1246,
      "duration": 0.1644,
      "velocity": 1,
      "chip": "ym2612"
    },
    {
      "channel": 3,
      "note": 62,
      "start": 175.1252,
      "duration": 0.1478,
      "velocity": 118,
      "chip": "ym2612"
    },
    {
      "channel": 4,
      "note": 53,
      "start": 175.1265,
      "duration": 0.0973,
      "velocity": 127,
      "chip": "ym2612"
    },
    {
      "channel": 5,
      "note": 41,
      "start": 175.1274,
      "duration": 0.1648,
      "velocity": 126,
      "chip": "ym2612"
    },
    {
      "channel": 0,
      "note": 49,
      "start": 175.2882,
      "duration": 0.1648,
      "velocity": 114,
      "chip": "ym2612"
    },
    {
      "channel": 1,
      "note": 53,
      "start": 175.2889,
      "duration": 0.1655,
      "velocity": 108,
      "chip": "ym2612"
    },
    {
      "channel": 2,
      "note": 22,
      "start": 175.2901,
      "duration": 0.1649,
      "velocity": 113,
      "chip": "ym2612"
    },
    {
      "channel": 3,
      "note": 62,
      "start": 175.2907,
      "duration": 0.1478,
      "velocity": 118,
      "chip": "ym2612"
    },
    {
      "channel": 4,
      "note": 53,
      "start": 175.2921,
      "duration": 0.0974,
      "velocity": 127,
      "chip": "ym2612"
    },
    {
      "channel": 5,
      "note": 44,
      "start": 175.2929,
      "duration": 0.1654,
      "velocity": 126,
      "chip": "ym2612"
    },
    {
      "channel": 0,
      "note": 49,
      "start": 175.4542,
      "duration": 0.082,
      "velocity": 112,
      "chip": "ym2612"
    },
    {
      "channel": 1,
      "note": 54,
      "start": 175.4549,
      "duration": 0.1651,
      "velocity": 108,
      "chip": "ym2612"
    },
    {
      "channel": 2,
      "note": 22,
      "start": 175.4555,
      "duration": 0.1651,
      "velocity": 113,
      "chip": "ym2612"
    },
    {
      "channel": 3,
      "note": 58,
      "start": 175.4568,
      "duration": 0.1651,
      "velocity": 127,
      "chip": "ym2612"
    },
    {
      "channel": 4,
      "note": 53,
      "start": 175.4581,
      "duration": 0.0968,
      "velocity": 127,
      "chip": "ym2612"
    },
    {
      "channel": 5,
      "note": 29,
      "start": 175.459,
      "duration": 0.1654,
      "velocity": 126,
      "chip": "ym2612"
    },
    {
      "channel": 0,
      "note": 49,
      "start": 175.6198,
      "duration": 0.1643,
      "velocity": 114,
      "chip": "ym2612"
    },
    {
      "channel": 1,
      "note": 46,
      "start": 175.6205,
      "duration": 0.1644,
      "velocity": 108,
      "chip": "ym2612"
    },
    {
      "channel": 2,
      "note": 22,
      "start": 175.6218,
      "duration": 0.1638,
      "velocity": 1,
      "chip": "ym2612"
    },
    {
      "channel": 3,
      "note": 62,
      "start": 175.623,
      "duration": 0.1466,
      "velocity": 118,
      "chip": "ym2612"
    },
    {
      "channel": 4,
      "note": 53,
      "start": 175.6243,
      "duration": 0.0961,
      "velocity": 127,
      "chip": "ym2612"
    },
    {
      "channel": 5,
      "note": 41,
      "start": 175.6251,
      "duration": 0.1637,
      "velocity": 126,
      "chip": "ym2612"
    },
    {
      "channel": 0,
      "note": 49,
      "start": 175.7847,
      "duration": 0.1649,
      "velocity": 114,
      "chip": "ym2612"
    },
    {
      "channel": 1,
      "note": 49,
      "start": 175.7854,
      "duration": 0.165,
      "velocity": 108,
      "chip": "ym2612"
    },
    {
      "channel": 2,
      "note": 20,
      "start": 175.7866,
      "duration": 0.1645,
      "velocity": 113,
      "chip": "ym2612"
    },
    {
      "channel": 3,
      "note": 62,
      "start": 175.7873,
      "duration": 0.1477,
      "velocity": 118,
      "chip": "ym2612"
    },
    {
      "channel": 4,
      "note": 53,
      "start": 175.7886,
      "duration": 0.0973,
      "velocity": 127,
      "chip": "ym2612"
    },
    {
      "channel": 5,
      "note": 44,
      "start": 175.7895,
      "duration": 0.1649,
      "velocity": 126,
      "chip": "ym2612"
    },
    {
      "channel": 0,
      "note": 49,
      "start": 175.9502,
      "duration": 0.1649,
      "velocity": 114,
      "chip": "ym2612"
    },
    {
      "channel": 1,
      "note": 54,
      "start": 175.951,
      "duration": 0.165,
      "velocity": 108,
      "chip": "ym2612"
    },
    {
      "channel": 2,
      "note": 22,
      "start": 175.9516,
      "duration": 0.1651,
      "velocity": 113,
      "chip": "ym2612"
    },
    {
      "channel": 3,
      "note": 58,
      "start": 175.9529,
      "duration": 0.1644,
      "velocity": 127,
      "chip": "ym2612"
    },
    {
      "channel": 4,
      "note": 53,
      "start": 175.9543,
      "duration": 0.0973,
      "velocity": 127,
      "chip": "ym2612"
    },
    {
      "channel": 5,
      "note": 41,
      "start": 175.9551,
      "duration": 0.1647,
      "velocity": 126,
      "chip": "ym2612"
    },
    {
      "channel": 0,
      "note": 49,
      "start": 176.1158,
      "duration": 0.1649,
      "velocity": 114,
      "chip": "ym2612"
    },
    {
      "channel": 1,
      "note": 53,
      "start": 176.1166,
      "duration": 0.1649,
      "velocity": 108,
      "chip": "ym2612"
    },
    {
      "channel": 2,
      "note": 22,
      "start": 176.1172,
      "duration": 0.165,
      "velocity": 113,
      "chip": "ym2612"
    },
    {
      "channel": 3,
      "note": 29,
      "start": 176.1185,
      "duration": 0.1644,
      "velocity": 1,
      "chip": "ym2612"
    },
    {
      "channel": 4,
      "note": 53,
      "start": 176.1197,
      "duration": 0.0973,
      "velocity": 127,
      "chip": "ym2612"
    },
    {
      "channel": 5,
      "note": 46,
      "start": 176.1206,
      "duration": 0.1647,
      "velocity": 126,
      "chip": "ym2612"
    },
    {
      "channel": 0,
      "note": 49,
      "start": 176.2814,
      "duration": 0.1648,
      "velocity": 114,
      "chip": "ym2612"
    },
    {
      "channel": 1,
      "note": 46,
      "start": 176.2821,
      "duration": 0.1649,
      "velocity": 108,
      "chip": "ym2612"
    },
    {
      "channel": 2,
      "note": 22,
      "start": 176.2827,
      "duration": 0.165,
      "velocity": 113,
      "chip": "ym2612"
    },
    {
      "channel": 3,
      "note": 62,
      "start": 176.2839,
      "duration": 0.1478,
      "velocity": 118,
      "chip": "ym2612"
    },
    {
      "channel": 4,
      "note": 53,
      "start": 176.2852,
      "duration": 0.0973,
      "velocity": 127,
      "chip": "ym2612"
    },
    {
      "channel": 5,
      "note": 46,
      "start": 176.286,
      "duration": 0.1648,
      "velocity": 126,
      "chip": "ym2612"
    },
    {
      "channel": 0,
      "note": 49,
      "start": 176.4469,
      "duration": 0.1648,
      "velocity": 114,
      "chip": "ym2612"
    },
    {
      "channel": 1,
      "note": 49,
      "start": 176.4476,
      "duration": 0.1649,
      "velocity": 108,
      "chip": "ym2612"
    },
    {
      "channel": 2,
      "note": 22,
      "start": 176.4488,
      "duration": 0.1644,
      "velocity": 1,
      "chip": "ym2612"
    },
    {
      "channel": 3,
      "note": 62,
      "start": 176.4494,
      "duration": 0.1477,
      "velocity": 118,
      "chip": "ym2612"
    },
    {
      "channel": 4,
      "note": 53,
      "start": 176.4507,
      "duration": 0.0973,
      "velocity": 127,
      "chip": "ym2612"
    },
    {
      "channel": 5,
      "note": 41,
      "start": 176.4516,
      "duration": 0.1648,
      "velocity": 126,
      "chip": "ym2612"
    },
    {
      "channel": 0,
      "note": 49,
      "start": 176.6124,
      "duration": 0.1648,
      "velocity": 114,
      "chip": "ym2612"
    },
    {
      "channel": 1,
      "note": 53,
      "start": 176.6131,
      "duration": 0.1654,
      "velocity": 108,
      "chip": "ym2612"
    },
    {
      "channel": 2,
      "note": 22,
      "start": 176.6143,
      "duration": 0.1649,
      "velocity": 113,
      "chip": "ym2612"
    },
    {
      "channel": 3,
      "note": 62,
      "start": 176.6149,
      "duration": 0.1477,
      "velocity": 118,
      "chip": "ym2612"
    },
    {
      "channel": 4,
      "note": 53,
      "start": 176.6162,
      "duration": 0.0973,
      "velocity": 127,
      "chip": "ym2612"
    },
    {
      "channel": 5,
      "note": 44,
      "start": 176.6171,
      "duration": 0.1653,
      "velocity": 126,
      "chip": "ym2612"
    },
    {
      "channel": 0,
      "note": 49,
      "start": 176.7783,
      "duration": 0.082,
      "velocity": 112,
      "chip": "ym2612"
    },
    {
      "channel": 1,
      "note": 54,
      "start": 176.779,
      "duration": 0.1651,
      "velocity": 108,
      "chip": "ym2612"
    },
    {
      "channel": 2,
      "note": 22,
      "start": 176.7796,
      "duration": 0.1652,
      "velocity": 113,
      "chip": "ym2612"
    },
    {
      "channel": 3,
      "note": 58,
      "start": 176.781,
      "duration": 0.1651,
      "velocity": 127,
      "chip": "ym2612"
    },
    {
      "channel": 4,
      "note": 53,
      "start": 176.7823,
      "duration": 0.0967,
      "velocity": 127,
      "chip": "ym2612"
    },
    {
      "channel": 5,
      "note": 29,
      "start": 176.7832,
      "duration": 0.1654,
      "velocity": 126,
      "chip": "ym2612"
    },
    {
      "channel": 0,
      "note": 49,
      "start": 176.944,
      "duration": 0.1642,
      "velocity": 114,
      "chip": "ym2612"
    },
    {
      "channel": 1,
      "note": 46,
      "start": 176.9447,
      "duration": 0.1644,
      "velocity": 108,
      "chip": "ym2612"
    },
    {
      "channel": 2,
      "note": 22,
      "start": 176.9459,
      "duration": 0.1639,
      "velocity": 1,
      "chip": "ym2612"
    },
    {
      "channel": 3,
      "note": 62,
      "start": 176.9471,
      "duration": 0.1466,
      "velocity": 118,
      "chip": "ym2612"
    },
    {
      "channel": 4,
      "note": 53,
      "start": 176.9484,
      "duration": 0.0962,
      "velocity": 127,
      "chip": "ym2612"
    },
    {
      "channel": 5,
      "note": 41,
      "start": 176.9493,
      "duration": 0.1636,
      "velocity": 126,
      "chip": "ym2612"
    },
    {
      "channel": 0,
      "note": 49,
      "start": 177.109,
      "duration": 0.1648,
      "velocity": 114,
      "chip": "ym2612"
    },
    {
      "channel": 1,
      "note": 49,
      "start": 177.1097,
      "duration": 0.1649,
      "velocity": 108,
      "chip": "ym2612"
    },
    {
      "channel": 2,
      "note": 22,
      "start": 177.1109,
      "duration": 0.1645,
      "velocity": 113,
      "chip": "ym2612"
    },
    {
      "channel": 3,
      "note": 62,
      "start": 177.1115,
      "duration": 0.1477,
      "velocity": 118,
      "chip": "ym2612"
    },
    {
      "channel": 4,
      "note": 53,
      "start": 177.1128,
      "duration": 0.0974,
      "velocity": 127,
      "chip": "ym2612"
    },
    {
      "channel": 5,
      "note": 44,
      "start": 177.1137,
      "duration": 0.1642,
      "velocity": 126,
      "chip": "ym2612"
    },
    {
      "channel": 0,
      "note": 49,
      "start": 177.2745,
      "duration": 0.1648,
      "velocity": 114,
      "chip": "ym2612"
    },
    {
      "channel": 1,
      "note": 54,
      "start": 177.2752,
      "duration": 0.1649,
      "velocity": 108,
      "chip": "ym2612"
    },
    {
      "channel": 2,
      "note": 22,
      "start": 177.2758,
      "duration": 0.1651,
      "velocity": 113,
      "chip": "ym2612"
    },
    {
      "channel": 3,
      "note": 62,
      "start": 177.2764,
      "duration": 0.1483,
      "velocity": 118,
      "chip": "ym2612"
    },
    {
      "channel": 4,
      "note": 53,
      "start": 177.2777,
      "duration": 0.098,
      "velocity": 127,
      "chip": "ym2612"
    },
    {
      "channel": 5,
      "note": 41,
      "start": 177.2786,
      "duration": 0.1649,
      "velocity": 126,
      "chip": "ym2612"
    },
    {
      "channel": 0,
      "note": 49,
      "start": 177.44,
      "duration": 0.1648,
      "velocity": 114,
      "chip": "ym2612"
    },
    {
      "channel": 1,
      "note": 55,
      "start": 177.4407,
      "duration": 0.165,
      "velocity": 108,
      "chip": "ym2612"
    },
    {
      "channel": 2,
      "note": 22,
      "start": 177.4414,
      "duration": 0.1651,
      "velocity": 113,
      "chip": "ym2612"
    },
    {
      "channel": 3,
      "note": 29,
      "start": 177.4426,
      "duration": 0.1644,
      "velocity": 1,
      "chip": "ym2612"
    },
    {
      "channel": 4,
      "note": 53,
      "start": 177.4433,
      "duration": 0.098,
      "velocity": 127,
      "chip": "ym2612"
    },
    {
      "channel": 5,
      "note": 34,
      "start": 177.4442,
      "duration": 0.1653,
      "velocity": 126,
      "chip": "ym2612"
    },
    {
      "channel": 0,
      "note": 51,
      "start": 177.6055,
      "duration": 0.1649,
      "velocity": 114,
      "chip": "ym2612"
    },
    {
      "channel": 1,
      "note": 48,
      "start": 177.6062,
      "duration": 0.165,
      "velocity": 108,
      "chip": "ym2612"
    },
    {
      "channel": 2,
      "note": 24,
      "start": 177.6069,
      "duration": 0.1651,
      "velocity": 113,
      "chip": "ym2612"
    },
    {
      "channel": 3,
      "note": 62,
      "start": 177.6081,
      "duration": 0.1478,
      "velocity": 118,
      "chip": "ym2612"
    },
    {
      "channel": 4,
      "note": 53,
      "start": 177.6094,
      "duration": 0.0974,
      "velocity": 127,
      "chip": "ym2612"
    },
    {
      "channel": 5,
      "note": 48,
      "start": 177.6102,
      "duration": 0.1648,
      "velocity": 126,
      "chip": "ym2612"
    },
    {
      "channel": 0,
      "note": 51,
      "start": 177.7711,
      "duration": 0.1647,
      "velocity": 114,
      "chip": "ym2612"
    },
    {
      "channel": 1,
      "note": 51,
      "start": 177.7718,
      "duration": 0.165,
      "velocity": 108,
      "chip": "ym2612"
    },
    {
      "channel": 2,
      "note": 24,
      "start": 177.773,
      "duration": 0.1644,
      "velocity": 1,
      "chip": "ym2612"
    },
    {
      "channel": 3,
      "note": 62,
      "start": 177.7737,
      "duration": 0.1478,
      "velocity": 118,
      "chip": "ym2612"
    },
    {
      "channel": 4,
      "note": 53,
      "start": 177.7749,
      "duration": 0.0973,
      "velocity": 127,
      "chip": "ym2612"
    },
    {
      "channel": 5,
      "note": 43,
      "start": 177.7758,
      "duration": 0.1648,
      "velocity": 126,
      "chip": "ym2612"
    },
    {
      "channel": 0,
      "note": 51,
      "start": 177.9366,
      "duration": 0.1648,
      "velocity": 114,
      "chip": "ym2612"
    },
    {
      "channel": 1,
      "note": 55,
      "start": 177.9373,
      "duration": 0.1653,
      "velocity": 108,
      "chip": "ym2612"
    },
    {
      "channel": 2,
      "note": 24,
      "start": 177.9385,
      "duration": 0.1649,
      "velocity": 113,
      "chip": "ym2612"
    },
    {
      "channel": 3,
      "note": 62,
      "start": 177.9392,
      "duration": 0.1478,
      "velocity": 118,
      "chip": "ym2612"
    },
    {
      "channel": 4,
      "note": 53,
      "start": 177.9405,
      "duration": 0.0973,
      "velocity": 127,
      "chip": "ym2612"
    },
    {
      "channel": 5,
      "note": 46,
      "start": 177.9414,
      "duration": 0.1653,
      "velocity": 126,
      "chip": "ym2612"
    },
    {
      "channel": 0,
      "note": 51,
      "start": 178.1025,
      "duration": 0.082,
      "velocity": 112,
      "chip": "ym2612"
    },
    {
      "channel": 1,
      "note": 56,
      "start": 178.1032,
      "duration": 0.1651,
      "velocity": 108,
      "chip": "ym2612"
    },
    {
      "channel": 2,
      "note": 24,
      "start": 178.1039,
      "duration": 0.1651,
      "velocity": 113,
      "chip": "ym2612"
    },
    {
      "channel": 3,
      "note": 58,
      "start": 178.1052,
      "duration": 0.1651,
      "velocity": 127,
      "chip": "ym2612"
    },
    {
      "channel": 4,
      "note": 53,
      "start": 178.1065,
      "duration": 0.0968,
      "velocity": 127,
      "chip": "ym2612"
    },
    {
      "channel": 5,
      "note": 31,
      "start": 178.1074,
      "duration": 0.1654,
      "velocity": 126,
      "chip": "ym2612"
    },
    {
      "channel": 0,
      "note": 51,
      "start": 178.2682,
      "duration": 0.1642,
      "velocity": 114,
      "chip": "ym2612"
    },
    {
      "channel": 1,
      "note": 48,
      "start": 178.2689,
      "duration": 0.1644,
      "velocity": 108,
      "chip": "ym2612"
    },
    {
      "channel": 2,
      "note": 24,
      "start": 178.2701,
      "duration": 0.1639,
      "velocity": 1,
      "chip": "ym2612"
    },
    {
      "channel": 3,
      "note": 62,
      "start": 178.2714,
      "duration": 0.1466,
      "velocity": 118,
      "chip": "ym2612"
    },
    {
      "channel": 4,
      "note": 53,
      "start": 178.2727,
      "duration": 0.0962,
      "velocity": 127,
      "chip": "ym2612"
    },
    {
      "channel": 5,
      "note": 43,
      "start": 178.2735,
      "duration": 0.1637,
      "velocity": 126,
      "chip": "ym2612"
    },
    {
      "channel": 0,
      "note": 51,
      "start": 178.4332,
      "duration": 0.1648,
      "velocity": 114,
      "chip": "ym2612"
    },
    {
      "channel": 1,
      "note": 51,
      "start": 178.4339,
      "duration": 0.165,
      "velocity": 108,
      "chip": "ym2612"
    },
    {
      "channel": 2,
      "note": 22,
      "start": 178.4351,
      "duration": 0.1645,
      "velocity": 113,
      "chip": "ym2612"
    },
    {
      "channel": 3,
      "note": 62,
      "start": 178.4357,
      "duration": 0.1478,
      "velocity": 118,
      "chip": "ym2612"
    },
    {
      "channel": 4,
      "note": 53,
      "start": 178.437,
      "duration": 0.0973,
      "velocity": 127,
      "chip": "ym2612"
    },
    {
      "channel": 5,
      "note": 46,
      "start": 178.4379,
      "duration": 0.1648,
      "velocity": 126,
      "chip": "ym2612"
    },
    {
      "channel": 0,
      "note": 51,
      "start": 178.5987,
      "duration": 0.1648,
      "velocity": 114,
      "chip": "ym2612"
    },
    {
      "channel": 1,
      "note": 56,
      "start": 178.5994,
      "duration": 0.165,
      "velocity": 108,
      "chip": "ym2612"
    },
    {
      "channel": 2,
      "note": 24,
      "start": 178.6,
      "duration": 0.1651,
      "velocity": 113,
      "chip": "ym2612"
    },
    {
      "channel": 3,
      "note": 58,
      "start": 178.6013,
      "duration": 0.1643,
      "velocity": 127,
      "chip": "ym2612"
    },
    {
      "channel": 4,
      "note": 53,
      "start": 178.6026,
      "duration": 0.0973,
      "velocity": 127,
      "chip": "ym2612"
    },
    {
      "channel": 5,
      "note": 43,
      "start": 178.6035,
      "duration": 0.1647,
      "velocity": 126,
      "chip": "ym2612"
    },
    {
      "channel": 0,
      "note": 51,
      "start": 178.7642,
      "duration": 0.1649,
      "velocity": 114,
      "chip": "ym2612"
    },
    {
      "channel": 1,
      "note": 55,
      "start": 178.7649,
      "duration": 0.165,
      "velocity": 108,
      "chip": "ym2612"
    },
    {
      "channel": 2,
      "note": 24,
      "start": 178.7655,
      "duration": 0.1651,
      "velocity": 113,
      "chip": "ym2612"
    },
    {
      "channel": 3,
      "note": 29,
      "start": 178.7668,
      "duration": 0.1644,
      "velocity": 1,
      "chip": "ym2612"
    },
    {
      "channel": 4,
      "note": 53,
      "start": 178.7681,
      "duration": 0.0973,
      "velocity": 127,
      "chip": "ym2612"
    },
    {
      "channel": 5,
      "note": 48,
      "start": 178.769,
      "duration": 0.1648,
      "velocity": 126,
      "chip": "ym2612"
    },
    {
      "channel": 0,
      "note": 51,
      "start": 178.9297,
      "duration": 0.1649,
      "velocity": 114,
      "chip": "ym2612"
    },
    {
      "channel": 1,
      "note": 48,
      "start": 178.9304,
      "duration": 0.165,
      "velocity": 108,
      "chip": "ym2612"
    },
    {
      "channel": 2,
      "note": 24,
      "start": 178.931,
      "duration": 0.1651,
      "velocity": 113,
      "chip": "ym2612"
    },
    {
      "channel": 3,
      "note": 62,
      "start": 178.9323,
      "duration": 0.1478,
      "velocity": 118,
      "chip": "ym2612"
    },
    {
      "channel": 4,
      "note": 53,
      "start": 178.9335,
      "duration": 0.0974,
      "velocity": 127,
      "chip": "ym2612"
    },
    {
      "channel": 5,
      "note": 48,
      "start": 178.9344,
      "duration": 0.1648,
      "velocity": 126,
      "chip": "ym2612"
    },
    {
      "channel": 0,
      "note": 51,
      "start": 179.0952,
      "duration": 0.1649,
      "velocity": 114,
      "chip": "ym2612"
    },
    {
      "channel": 1,
      "note": 51,
      "start": 179.096,
      "duration": 0.165,
      "velocity": 108,
      "chip": "ym2612"
    },
    {
      "channel": 2,
      "note": 24,
      "start": 179.0972,
      "duration": 0.1644,
      "velocity": 1,
      "chip": "ym2612"
    },
    {
      "channel": 3,
      "note": 62,
      "start": 179.0978,
      "duration": 0.1478,
      "velocity": 118,
      "chip": "ym2612"
    },
    {
      "channel": 4,
      "note": 53,
      "start": 179.0991,
      "duration": 0.0973,
      "velocity": 127,
      "chip": "ym2612"
    },
    {
      "channel": 5,
      "note": 43,
      "start": 179.0999,
      "duration": 0.1648,
      "velocity": 126,
      "chip": "ym2612"
    },
    {
      "channel": 0,
      "note": 51,
      "start": 179.2607,
      "duration": 0.1648,
      "velocity": 114,
      "chip": "ym2612"
    },
    {
      "channel": 1,
      "note": 55,
      "start": 179.2615,
      "duration": 0.1654,
      "velocity": 108,
      "chip": "ym2612"
    },
    {
      "channel": 2,
      "note": 24,
      "start": 179.2627,
      "duration": 0.1649,
      "velocity": 113,
      "chip": "ym2612"
    },
    {
      "channel": 3,
      "note": 62,
      "start": 179.2633,
      "duration": 0.1478,
      "velocity": 118,
      "chip": "ym2612"
    },
    {
      "channel": 4,
      "note": 53,
      "start": 179.2646,
      "duration": 0.0973,
      "velocity": 127,
      "chip": "ym2612"
    },
    {
      "channel": 5,
      "note": 46,
      "start": 179.2655,
      "duration": 0.1653,
      "velocity": 126,
      "chip": "ym2612"
    },
    {
      "channel": 0,
      "note": 51,
      "start": 179.4267,
      "duration": 0.0821,
      "velocity": 112,
      "chip": "ym2612"
    },
    {
      "channel": 1,
      "note": 56,
      "start": 179.4274,
      "duration": 0.1651,
      "velocity": 108,
      "chip": "ym2612"
    },
    {
      "channel": 2,
      "note": 24,
      "start": 179.428,
      "duration": 0.1652,
      "velocity": 113,
      "chip": "ym2612"
    },
    {
      "channel": 3,
      "note": 58,
      "start": 179.4294,
      "duration": 0.1651,
      "velocity": 127,
      "chip": "ym2612"
    },
    {
      "channel": 4,
      "note": 53,
      "start": 179.4307,
      "duration": 0.0968,
      "velocity": 127,
      "chip": "ym2612"
    },
    {
      "channel": 5,
      "note": 31,
      "start": 179.4316,
      "duration": 0.1654,
      "velocity": 126,
      "chip": "ym2612"
    },
    {
      "channel": 0,
      "note": 51,
      "start": 179.5924,
      "duration": 0.1643,
      "velocity": 114,
      "chip": "ym2612"
    },
    {
      "channel": 1,
      "note": 48,
      "start": 179.5931,
      "duration": 0.1644,
      "velocity": 108,
      "chip": "ym2612"
    },
    {
      "channel": 2,
      "note": 24,
      "start": 179.5944,
      "duration": 0.1639,
      "velocity": 1,
      "chip": "ym2612"
    },
    {
      "channel": 3,
      "note": 62,
      "start": 179.5956,
      "duration": 0.1466,
      "velocity": 118,
      "chip": "ym2612"
    },
    {
      "channel": 4,
      "note": 53,
      "start": 179.5968,
      "duration": 0.0962,
      "velocity": 127,
      "chip": "ym2612"
    },
    {
      "channel": 5,
      "note": 43,
      "start": 179.5977,
      "duration": 0.1636,
      "velocity": 126,
      "chip": "ym2612"
    },
    {
      "channel": 0,
      "note": 51,
      "start": 179.7574,
      "duration": 0.1648,
      "velocity": 114,
      "chip": "ym2612"
    },
    {
      "channel": 1,
      "note": 51,
      "start": 179.7581,
      "duration": 0.165,
      "velocity": 108,
      "chip": "ym2612"
    },
    {
      "channel": 2,
      "note": 24,
      "start": 179.7593,
      "duration": 0.1645,
      "velocity": 113,
      "chip": "ym2612"
    },
    {
      "channel": 3,
      "note": 62,
      "start": 179.7599,
      "duration": 0.1477,
      "velocity": 118,
      "chip": "ym2612"
    },
    {
      "channel": 4,
      "note": 53,
      "start": 179.7612,
      "duration": 0.0973,
      "velocity": 127,
      "chip": "ym2612"
    },
    {
      "channel": 5,
      "note": 46,
      "start": 179.7621,
      "duration": 0.1642,
      "velocity": 126,
      "chip": "ym2612"
    },
    {
      "channel": 0,
      "note": 51,
      "start": 179.9229,
      "duration": 0.1648,
      "velocity": 114,
      "chip": "ym2612"
    },
    {
      "channel": 1,
      "note": 56,
      "start": 179.9236,
      "duration": 0.1649,
      "velocity": 108,
      "chip": "ym2612"
    },
    {
      "channel": 2,
      "note": 24,
      "start": 179.9242,
      "duration": 0.1651,
      "velocity": 113,
      "chip": "ym2612"
    },
    {
      "channel": 3,
      "note": 62,
      "start": 179.9248,
      "duration": 0.1483,
      "velocity": 118,
      "chip": "ym2612"
    },
    {
      "channel": 4,
      "note": 53,
      "start": 179.9261,
      "duration": 0.0979,
      "velocity": 127,
      "chip": "ym2612"
    },
    {
      "channel": 5,
      "note": 43,
      "start": 179.927,
      "duration": 0.1649,
      "velocity": 126,
      "chip": "ym2612"
    },
    {
      "channel": 0,
      "note": 51,
      "start": 180.0884,
      "duration": 0.1648,
      "velocity": 114,
      "chip": "ym2612"
    },
    {
      "channel": 1,
      "note": 53,
      "start": 180.0891,
      "duration": 0.165,
      "velocity": 108,
      "chip": "ym2612"
    },
    {
      "channel": 2,
      "note": 24,
      "start": 180.0898,
      "duration": 0.1651,
      "velocity": 113,
      "chip": "ym2612"
    },
    {
      "channel": 3,
      "note": 29,
      "start": 180.091,
      "duration": 0.1644,
      "velocity": 1,
      "chip": "ym2612"
    },
    {
      "channel": 4,
      "note": 53,
      "start": 180.0917,
      "duration": 0.098,
      "velocity": 127,
      "chip": "ym2612"
    },
    {
      "channel": 5,
      "note": 36,
      "start": 180.0926,
      "duration": 0.1653,
      "velocity": 126,
      "chip": "ym2612"
    },
    {
      "channel": 0,
      "note": 44,
      "start": 180.254,
      "duration": 0.1648,
      "velocity": 114,
      "chip": "ym2612"
    },
    {
      "channel": 1,
      "note": 41,
      "start": 180.2547,
      "duration": 0.1649,
      "velocity": 108,
      "chip": "ym2612"
    },
    {
      "channel": 2,
      "note": 17,
      "start": 180.2554,
      "duration": 0.165,
      "velocity": 113,
      "chip": "ym2612"
    },
    {
      "channel": 3,
      "note": 62,
      "start": 180.2565,
      "duration": 0.1478,
      "velocity": 118,
      "chip": "ym2612"
    },
    {
      "channel": 4,
      "note": 53,
      "start": 180.2578,
      "duration": 0.0973,
      "velocity": 127,
      "chip": "ym2612"
    },
    {
      "channel": 5,
      "note": 41,
      "start": 180.2587,
      "duration": 0.1648,
      "velocity": 126,
      "chip": "ym2612"
    },
    {
      "channel": 0,
      "note": 44,
      "start": 180.4195,
      "duration": 0.1648,
      "velocity": 114,
      "chip": "ym2612"
    },
    {
      "channel": 1,
      "note": 44,
      "start": 180.4202,
      "duration": 0.165,
      "velocity": 108,
      "chip": "ym2612"
    },
    {
      "channel": 2,
      "note": 17,
      "start": 180.4215,
      "duration": 0.1644,
      "velocity": 1,
      "chip": "ym2612"
    },
    {
      "channel": 3,
      "note": 62,
      "start": 180.4221,
      "duration": 0.1476,
      "velocity": 118,
      "chip": "ym2612"
    },
    {
      "channel": 4,
      "note": 53,
      "start": 180.4234,
      "duration": 0.0973,
      "velocity": 127,
      "chip": "ym2612"
    },
    {
      "channel": 5,
      "note": 36,
      "start": 180.4242,
      "duration": 0.1648,
      "velocity": 126,
      "chip": "ym2612"
    },
    {
      "channel": 0,
      "note": 44,
      "start": 180.585,
      "duration": 0.1648,
      "velocity": 114,
      "chip": "ym2612"
    },
    {
      "channel": 1,
      "note": 48,
      "start": 180.5857,
      "duration": 0.1654,
      "velocity": 108,
      "chip": "ym2612"
    },
    {
      "channel": 2,
      "note": 17,
      "start": 180.587,
      "duration": 0.1648,
      "velocity": 113,
      "chip": "ym2612"
    },
    {
      "channel": 3,
      "note": 62,
      "start": 180.5876,
      "duration": 0.1476,
      "velocity": 118,
      "chip": "ym2612"
    },
    {
      "channel": 4,
      "note": 53,
      "start": 180.5889,
      "duration": 0.0973,
      "velocity": 127,
      "chip": "ym2612"
    },
    {
      "channel": 5,
      "note": 39,
      "start": 180.5898,
      "duration": 0.1653,
      "velocity": 126,
      "chip": "ym2612"
    },
    {
      "channel": 0,
      "note": 44,
      "start": 180.751,
      "duration": 0.082,
      "velocity": 112,
      "chip": "ym2612"
    },
    {
      "channel": 1,
      "note": 49,
      "start": 180.7517,
      "duration": 0.1651,
      "velocity": 108,
      "chip": "ym2612"
    },
    {
      "channel": 2,
      "note": 17,
      "start": 180.7523,
      "duration": 0.1651,
      "velocity": 113,
      "chip": "ym2612"
    },
    {
      "channel": 3,
      "note": 58,
      "start": 180.7536,
      "duration": 0.1651,
      "velocity": 127,
      "chip": "ym2612"
    },
    {
      "channel": 4,
      "note": 53,
      "start": 180.7549,
      "duration": 0.0968,
      "velocity": 127,
      "chip": "ym2612"
    },
    {
      "channel": 5,
      "note": 24,
      "start": 180.7558,
      "duration": 0.1655,
      "velocity": 126,
      "chip": "ym2612"
    },
    {
      "channel": 0,
      "note": 44,
      "start": 180.9166,
      "duration": 0.1643,
      "velocity": 114,
      "chip": "ym2612"
    },
    {
      "channel": 1,
      "note": 41,
      "start": 180.9173,
      "duration": 0.1644,
      "velocity": 108,
      "chip": "ym2612"
    },
    {
      "channel": 2,
      "note": 17,
      "start": 180.9185,
      "duration": 0.1639,
      "velocity": 1,
      "chip": "ym2612"
    },
    {
      "channel": 3,
      "note": 62,
      "start": 180.9197,
      "duration": 0.1466,
      "velocity": 118,
      "chip": "ym2612"
    },
    {
      "channel": 4,
      "note": 53,
      "start": 180.9211,
      "duration": 0.0962,
      "velocity": 127,
      "chip": "ym2612"
    },
    {
      "channel": 5,
      "note": 36,
      "start": 180.922,
      "duration": 0.1636,
      "velocity": 126,
      "chip": "ym2612"
    },
    {
      "channel": 0,
      "note": 44,
      "start": 181.0816,
      "duration": 0.1648,
      "velocity": 114,
      "chip": "ym2612"
    },
    {
      "channel": 1,
      "note": 44,
      "start": 181.0823,
      "duration": 0.165,
      "velocity": 108,
      "chip": "ym2612"
    },
    {
      "channel": 2,
      "note": 15,
      "start": 181.0835,
      "duration": 0.1645,
      "velocity": 113,
      "chip": "ym2612"
    },
    {
      "channel": 3,
      "note": 62,
      "start": 181.0841,
      "duration": 0.1478,
      "velocity": 118,
      "chip": "ym2612"
    },
    {
      "channel": 4,
      "note": 53,
      "start": 181.0854,
      "duration": 0.0973,
      "velocity": 127,
      "chip": "ym2612"
    },
    {
      "channel": 5,
      "note": 39,
      "start": 181.0863,
      "duration": 0.1649,
      "velocity": 126,
      "chip": "ym2612"
    },
    {
      "channel": 0,
      "note": 44,
      "start": 181.2471,
      "duration": 0.1648,
      "velocity": 114,
      "chip": "ym2612"
    },
    {
      "channel": 1,
      "note": 49,
      "start": 181.2478,
      "duration": 0.165,
      "velocity": 108,
      "chip": "ym2612"
    },
    {
      "channel": 2,
      "note": 17,
      "start": 181.2484,
      "duration": 0.1651,
      "velocity": 113,
      "chip": "ym2612"
    },
    {
      "channel": 3,
      "note": 58,
      "start": 181.2498,
      "duration": 0.1643,
      "velocity": 127,
      "chip": "ym2612"
    },
    {
      "channel": 4,
      "note": 53,
      "start": 181.251,
      "duration": 0.0973,
      "velocity": 127,
      "chip": "ym2612"
    },
    {
      "channel": 5,
      "note": 36,
      "start": 181.2519,
      "duration": 0.1648,
      "velocity": 126,
      "chip": "ym2612"
    },
    {
      "channel": 0,
      "note": 44,
      "start": 181.4126,
      "duration": 0.1648,
      "velocity": 114,
      "chip": "ym2612"
    },
    {
      "channel": 1,
      "note": 48,
      "start": 181.4133,
      "duration": 0.165,
      "velocity": 108,
      "chip": "ym2612"
    },
    {
      "channel": 2,
      "note": 17,
      "start": 181.4139,
      "duration": 0.1651,
      "velocity": 113,
      "chip": "ym2612"
    },
    {
      "channel": 3,
      "note": 29,
      "start": 181.4152,
      "duration": 0.1644,
      "velocity": 1,
      "chip": "ym2612"
    },
    {
      "channel": 4,
      "note": 53,
      "start": 181.4166,
      "duration": 0.0973,
      "velocity": 127,
      "chip": "ym2612"
    },
    {
      "channel": 5,
      "note": 41,
      "start": 181.4174,
      "duration": 0.1648,
      "velocity": 126,
      "chip": "ym2612"
    },
    {
      "channel": 0,
      "note": 44,
      "start": 181.5781,
      "duration": 0.1648,
      "velocity": 114,
      "chip": "ym2612"
    },
    {
      "channel": 1,
      "note": 41,
      "start": 181.5788,
      "duration": 0.165,
      "velocity": 108,
      "chip": "ym2612"
    },
    {
      "channel": 2,
      "note": 17,
      "start": 181.5795,
      "duration": 0.165,
      "velocity": 113,
      "chip": "ym2612"
    },
    {
      "channel": 3,
      "note": 62,
      "start": 181.5807,
      "duration": 0.1478,
      "velocity": 118,
      "chip": "ym2612"
    },
    {
      "channel": 4,
      "note": 53,
      "start": 181.5819,
      "duration": 0.0974,
      "velocity": 127,
      "chip": "ym2612"
    },
    {
      "channel": 5,
      "note": 41,
      "start": 181.5828,
      "duration": 0.1648,
      "velocity": 126,
      "chip": "ym2612"
    },
    {
      "channel": 0,
      "note": 44,
      "start": 181.7437,
      "duration": 0.1649,
      "velocity": 114,
      "chip": "ym2612"
    },
    {
      "channel": 1,
      "note": 44,
      "start": 181.7444,
      "duration": 0.165,
      "velocity": 108,
      "chip": "ym2612"
    },
    {
      "channel": 2,
      "note": 17,
      "start": 181.7456,
      "duration": 0.1644,
      "velocity": 1,
      "chip": "ym2612"
    },
    {
      "channel": 3,
      "note": 62,
      "start": 181.7462,
      "duration": 0.1478,
      "velocity": 118,
      "chip": "ym2612"
    },
    {
      "channel": 4,
      "note": 53,
      "start": 181.7475,
      "duration": 0.0973,
      "velocity": 127,
      "chip": "ym2612"
    },
    {
      "channel": 5,
      "note": 36,
      "start": 181.7483,
      "duration": 0.1648,
      "velocity": 126,
      "chip": "ym2612"
    },
    {
      "channel": 0,
      "note": 44,
      "start": 181.9092,
      "duration": 0.1648,
      "velocity": 114,
      "chip": "ym2612"
    },
    {
      "channel": 1,
      "note": 48,
      "start": 181.9099,
      "duration": 0.1654,
      "velocity": 108,
      "chip": "ym2612"
    },
    {
      "channel": 2,
      "note": 17,
      "start": 181.9111,
      "duration": 0.165,
      "velocity": 113,
      "chip": "ym2612"
    },
    {
      "channel": 3,
      "note": 62,
      "start": 181.9117,
      "duration": 0.1478,
      "velocity": 118,
      "chip": "ym2612"
    },
    {
      "channel": 4,
      "note": 53,
      "start": 181.913,
      "duration": 0.0973,
      "velocity": 127,
      "chip": "ym2612"
    },
    {
      "channel": 5,
      "note": 39,
      "start": 181.9139,
      "duration": 0.1653,
      "velocity": 126,
      "chip": "ym2612"
    },
    {
      "channel": 0,
      "note": 44,
      "start": 182.0751,
      "duration": 0.0821,
      "velocity": 112,
      "chip": "ym2612"
    },
    {
      "channel": 1,
      "note": 49,
      "start": 182.0758,
      "duration": 0.1651,
      "velocity": 108,
      "chip": "ym2612"
    },
    {
      "channel": 2,
      "note": 17,
      "start": 182.0765,
      "duration": 0.1652,
      "velocity": 113,
      "chip": "ym2612"
    },
    {
      "channel": 3,
      "note": 58,
      "start": 182.0777,
      "duration": 0.1651,
      "velocity": 127,
      "chip": "ym2612"
    },
    {
      "channel": 4,
      "note": 53,
      "start": 182.079,
      "duration": 0.0968,
      "velocity": 127,
      "chip": "ym2612"
    },
    {
      "channel": 5,
      "note": 24,
      "start": 182.0799,
      "duration": 0.1654,
      "velocity": 126,
      "chip": "ym2612"
    },
    {
      "channel": 0,
      "note": 44,
      "start": 182.2408,
      "duration": 0.1643,
      "velocity": 114,
      "chip": "ym2612"
    },
    {
      "channel": 1,
      "note": 41,
      "start": 182.2415,
      "duration": 0.1644,
      "velocity": 108,
      "chip": "ym2612"
    },
    {
      "channel": 2,
      "note": 17,
      "start": 182.2427,
      "duration": 0.1639,
      "velocity": 1,
      "chip": "ym2612"
    },
    {
      "channel": 3,
      "note": 62,
      "start": 182.244,
      "duration": 0.1466,
      "velocity": 118,
      "chip": "ym2612"
    },
    {
      "channel": 4,
      "note": 53,
      "start": 182.2452,
      "duration": 0.0962,
      "velocity": 127,
      "chip": "ym2612"
    },
    {
      "channel": 5,
      "note": 36,
      "start": 182.2461,
      "duration": 0.1636,
      "velocity": 126,
      "chip": "ym2612"
    },
    {
      "channel": 0,
      "note": 44,
      "start": 182.4058,
      "duration": 0.1648,
      "velocity": 114,
      "chip": "ym2612"
    },
    {
      "channel": 1,
      "note": 44,
      "start": 182.4065,
      "duration": 0.165,
      "velocity": 108,
      "chip": "ym2612"
    },
    {
      "channel": 2,
      "note": 17,
      "start": 182.4077,
      "duration": 0.1645,
      "velocity": 113,
      "chip": "ym2612"
    },
    {
      "channel": 3,
      "note": 62,
      "start": 182.4083,
      "duration": 0.1478,
      "velocity": 118,
      "chip": "ym2612"
    },
    {
      "channel": 4,
      "note": 53,
      "start": 182.4096,
      "duration": 0.0973,
      "velocity": 127,
      "chip": "ym2612"
    },
    {
      "channel": 5,
      "note": 39,
      "start": 182.4105,
      "duration": 0.1642,
      "velocity": 126,
      "chip": "ym2612"
    },
    {
      "channel": 0,
      "note": 44,
      "start": 182.5713,
      "duration": 0.1648,
      "velocity": 114,
      "chip": "ym2612"
    },
    {
      "channel": 1,
      "note": 49,
      "start": 182.572,
      "duration": 0.165,
      "velocity": 108,
      "chip": "ym2612"
    },
    {
      "channel": 2,
      "note": 17,
      "start": 182.5727,
      "duration": 0.1651,
      "velocity": 113,
      "chip": "ym2612"
    },
    {
      "channel": 3,
      "note": 62,
      "start": 182.5733,
      "duration": 0.1483,
      "velocity": 118,
      "chip": "ym2612"
    },
    {
      "channel": 4,
      "note": 53,
      "start": 182.5746,
      "duration": 0.098,
      "velocity": 127,
      "chip": "ym2612"
    },
    {
      "channel": 5,
      "note": 36,
      "start": 182.5754,
      "duration": 0.1649,
      "velocity": 126,
      "chip": "ym2612"
    },
    {
      "channel": 0,
      "note": 44,
      "start": 182.7368,
      "duration": 0.1648,
      "velocity": 114,
      "chip": "ym2612"
    },
    {
      "channel": 1,
      "note": 48,
      "start": 182.7376,
      "duration": 0.1649,
      "velocity": 108,
      "chip": "ym2612"
    },
    {
      "channel": 2,
      "note": 17,
      "start": 182.7382,
      "duration": 0.1649,
      "velocity": 113,
      "chip": "ym2612"
    },
    {
      "channel": 3,
      "note": 29,
      "start": 182.7395,
      "duration": 0.1643,
      "velocity": 1,
      "chip": "ym2612"
    },
    {
      "channel": 4,
      "note": 53,
      "start": 182.7402,
      "duration": 0.0979,
      "velocity": 127,
      "chip": "ym2612"
    },
    {
      "channel": 5,
      "note": 29,
      "start": 182.741,
      "duration": 0.1653,
      "velocity": 126,
      "chip": "ym2612"
    },
    {
      "channel": 0,
      "note": 44,
      "start": 182.9024,
      "duration": 0.1648,
      "velocity": 114,
      "chip": "ym2612"
    },
    {
      "channel": 1,
      "note": 41,
      "start": 182.9031,
      "duration": 0.1649,
      "velocity": 108,
      "chip": "ym2612"
    },
    {
      "channel": 2,
      "note": 17,
      "start": 182.9037,
      "duration": 0.165,
      "velocity": 113,
      "chip": "ym2612"
    },
    {
      "channel": 3,
      "note": 62,
      "start": 182.9049,
      "duration": 0.1477,
      "velocity": 118,
      "chip": "ym2612"
    },
    {
      "channel": 4,
      "note": 53,
      "start": 182.9062,
      "duration": 0.0973,
      "velocity": 127,
      "chip": "ym2612"
    },
    {
      "channel": 5,
      "note": 41,
      "start": 182.9071,
      "duration": 0.1648,
      "velocity": 126,
      "chip": "ym2612"
    },
    {
      "channel": 0,
      "note": 44,
      "start": 183.0679,
      "duration": 0.1648,
      "velocity": 114,
      "chip": "ym2612"
    },
    {
      "channel": 1,
      "note": 44,
      "start": 183.0686,
      "duration": 0.165,
      "velocity": 108,
      "chip": "ym2612"
    },
    {
      "channel": 2,
      "note": 17,
      "start": 183.0698,
      "duration": 0.1644,
      "velocity": 1,
      "chip": "ym2612"
    },
    {
      "channel": 3,
      "note": 62,
      "start": 183.0704,
      "duration": 0.1477,
      "velocity": 118,
      "chip": "ym2612"
    },
    {
      "channel": 4,
      "note": 53,
      "start": 183.0718,
      "duration": 0.0973,
      "velocity": 127,
      "chip": "ym2612"
    },
    {
      "channel": 5,
      "note": 36,
      "start": 183.0726,
      "duration": 0.1648,
      "velocity": 126,
      "chip": "ym2612"
    },
    {
      "channel": 0,
      "note": 44,
      "start": 183.2334,
      "duration": 0.1648,
      "velocity": 114,
      "chip": "ym2612"
    },
    {
      "channel": 1,
      "note": 48,
      "start": 183.2341,
      "duration": 0.1654,
      "velocity": 108,
      "chip": "ym2612"
    },
    {
      "channel": 2,
      "note": 17,
      "start": 183.2353,
      "duration": 0.1649,
      "velocity": 113,
      "chip": "ym2612"
    },
    {
      "channel": 3,
      "note": 62,
      "start": 183.2359,
      "duration": 0.1477,
      "velocity": 118,
      "chip": "ym2612"
    },
    {
      "channel": 4,
      "note": 53,
      "start": 183.2372,
      "duration": 0.0973,
      "velocity": 127,
      "chip": "ym2612"
    },
    {
      "channel": 5,
      "note": 39,
      "start": 183.2381,
      "duration": 0.1653,
      "velocity": 126,
      "chip": "ym2612"
    },
    {
      "channel": 0,
      "note": 44,
      "start": 183.3993,
      "duration": 0.0821,
      "velocity": 112,
      "chip": "ym2612"
    },
    {
      "channel": 1,
      "note": 49,
      "start": 183.4001,
      "duration": 0.1651,
      "velocity": 108,
      "chip": "ym2612"
    },
    {
      "channel": 2,
      "note": 17,
      "start": 183.4007,
      "duration": 0.1651,
      "velocity": 113,
      "chip": "ym2612"
    },
    {
      "channel": 3,
      "note": 58,
      "start": 183.402,
      "duration": 0.1651,
      "velocity": 127,
      "chip": "ym2612"
    },
    {
      "channel": 4,
      "note": 53,
      "start": 183.4032,
      "duration": 0.0968,
      "velocity": 127,
      "chip": "ym2612"
    },
    {
      "channel": 5,
      "note": 24,
      "start": 183.4042,
      "duration": 0.1654,
      "velocity": 126,
      "chip": "ym2612"
    },
    {
      "channel": 0,
      "note": 44,
      "start": 183.565,
      "duration": 0.1643,
      "velocity": 114,
      "chip": "ym2612"
    },
    {
      "channel": 1,
      "note": 41,
      "start": 183.5657,
      "duration": 0.1644,
      "velocity": 108,
      "chip": "ym2612"
    },
    {
      "channel": 2,
      "note": 17,
      "start": 183.5669,
      "duration": 0.1639,
      "velocity": 1,
      "chip": "ym2612"
    },
    {
      "channel": 3,
      "note": 62,
      "start": 183.5681,
      "duration": 0.1466,
      "velocity": 118,
      "chip": "ym2612"
    },
    {
      "channel": 4,
      "note": 53,
      "start": 183.5695,
      "duration": 0.0962,
      "velocity": 127,
      "chip": "ym2612"
    },
    {
      "channel": 5,
      "note": 36,
      "start": 183.5704,
      "duration": 0.1636,
      "velocity": 126,
      "chip": "ym2612"
    },
    {
      "channel": 0,
      "note": 44,
      "start": 183.73,
      "duration": 0.1648,
      "velocity": 114,
      "chip": "ym2612"
    },
    {
      "channel": 1,
      "note": 44,
      "start": 183.7307,
      "duration": 0.165,
      "velocity": 108,
      "chip": "ym2612"
    },
    {
      "channel": 2,
      "note": 15,
      "start": 183.7319,
      "duration": 0.1645,
      "velocity": 113,
      "chip": "ym2612"
    },
    {
      "channel": 3,
      "note": 62,
      "start": 183.7325,
      "duration": 0.1478,
      "velocity": 118,
      "chip": "ym2612"
    },
    {
      "channel": 4,
      "note": 53,
      "start": 183.7339,
      "duration": 0.0973,
      "velocity": 127,
      "chip": "ym2612"
    },
    {
      "channel": 5,
      "note": 39,
      "start": 183.7347,
      "duration": 0.1649,
      "velocity": 126,
      "chip": "ym2612"
    },
    {
      "channel": 0,
      "note": 44,
      "start": 183.8955,
      "duration": 0.1648,
      "velocity": 114,
      "chip": "ym2612"
    },
    {
      "channel": 1,
      "note": 49,
      "start": 183.8962,
      "duration": 0.165,
      "velocity": 108,
      "chip": "ym2612"
    },
    {
      "channel": 2,
      "note": 17,
      "start": 183.8968,
      "duration": 0.1651,
      "velocity": 113,
      "chip": "ym2612"
    },
    {
      "channel": 3,
      "note": 58,
      "start": 183.8982,
      "duration": 0.1643,
      "velocity": 127,
      "chip": "ym2612"
    },
    {
      "channel": 4,
      "note": 53,
      "start": 183.8994,
      "duration": 0.0973,
      "velocity": 127,
      "chip": "ym2612"
    },
    {
      "channel": 5,
      "note": 36,
      "start": 183.9003,
      "duration": 0.1648,
      "velocity": 126,
      "chip": "ym2612"
    },
    {
      "channel": 0,
      "note": 44,
      "start": 184.061,
      "duration": 0.1648,
      "velocity": 114,
      "chip": "ym2612"
    },
    {
      "channel": 1,
      "note": 48,
      "start": 184.0617,
      "duration": 0.165,
      "velocity": 108,
      "chip": "ym2612"
    },
    {
      "channel": 2,
      "note": 17,
      "start": 184.0623,
      "duration": 0.1651,
      "velocity": 113,
      "chip": "ym2612"
    },
    {
      "channel": 3,
      "note": 29,
      "start": 184.0636,
      "duration": 0.1644,
      "velocity": 1,
      "chip": "ym2612"
    },
    {
      "channel": 4,
      "note": 53,
      "start": 184.0649,
      "duration": 0.0973,
      "velocity": 127,
      "chip": "ym2612"
    },
    {
      "channel": 5,
      "note": 41,
      "start": 184.0658,
      "duration": 0.1648,
      "velocity": 126,
      "chip": "ym2612"
    },
    {
      "channel": 0,
      "note": 44,
      "start": 184.2265,
      "duration": 0.1648,
      "velocity": 114,
      "chip": "ym2612"
    },
    {
      "channel": 1,
      "note": 41,
      "start": 184.2272,
      "duration": 0.165,
      "velocity": 108,
      "chip": "ym2612"
    },
    {
      "channel": 2,
      "note": 17,
      "start": 184.2279,
      "duration": 0.165,
      "velocity": 113,
      "chip": "ym2612"
    },
    {
      "channel": 3,
      "note": 62,
      "start": 184.2291,
      "duration": 0.1478,
      "velocity": 118,
      "chip": "ym2612"
    },
    {
      "channel": 4,
      "note": 53,
      "start": 184.2303,
      "duration": 0.0974,
      "velocity": 127,
      "chip": "ym2612"
    },
    {
      "channel": 5,
      "note": 41,
      "start": 184.2312,
      "duration": 0.1648,
      "velocity": 126,
      "chip": "ym2612"
    },
    {
      "channel": 0,
      "note": 44,
      "start": 184.3921,
      "duration": 0.1648,
      "velocity": 114,
      "chip": "ym2612"
    },
    {
      "channel": 1,
      "note": 44,
      "start": 184.3927,
      "duration": 0.165,
      "velocity": 108,
      "chip": "ym2612"
    },
    {
      "channel": 2,
      "note": 17,
      "start": 184.394,
      "duration": 0.1644,
      "velocity": 1,
      "chip": "ym2612"
    },
    {
      "channel": 3,
      "note": 62,
      "start": 184.3946,
      "duration": 0.1478,
      "velocity": 118,
      "chip": "ym2612"
    },
    {
      "channel": 4,
      "note": 53,
      "start": 184.3959,
      "duration": 0.0973,
      "velocity": 127,
      "chip": "ym2612"
    },
    {
      "channel": 5,
      "note": 36,
      "start": 184.3968,
      "duration": 0.1648,
      "velocity": 126,
      "chip": "ym2612"
    },
    {
      "channel": 0,
      "note": 44,
      "start": 184.5576,
      "duration": 0.1648,
      "velocity": 114,
      "chip": "ym2612"
    },
    {
      "channel": 1,
      "note": 48,
      "start": 184.5583,
      "duration": 0.1654,
      "velocity": 108,
      "chip": "ym2612"
    },
    {
      "channel": 2,
      "note": 17,
      "start": 184.5595,
      "duration": 0.1649,
      "velocity": 113,
      "chip": "ym2612"
    },
    {
      "channel": 3,
      "note": 62,
      "start": 184.5601,
      "duration": 0.1478,
      "velocity": 118,
      "chip": "ym2612"
    },
    {
      "channel": 4,
      "note": 53,
      "start": 184.5615,
      "duration": 0.0973,
      "velocity": 127,
      "chip": "ym2612"
    },
    {
      "channel": 5,
      "note": 39,
      "start": 184.5623,
      "duration": 0.1653,
      "velocity": 126,
      "chip": "ym2612"
    },
    {
      "channel": 0,
      "note": 44,
      "start": 184.7235,
      "duration": 0.0821,
      "velocity": 112,
      "chip": "ym2612"
    },
    {
      "channel": 1,
      "note": 49,
      "start": 184.7242,
      "duration": 0.1651,
      "velocity": 108,
      "chip": "ym2612"
    },
    {
      "channel": 2,
      "note": 17,
      "start": 184.7249,
      "duration": 0.1652,
      "velocity": 113,
      "chip": "ym2612"
    },
    {
      "channel": 3,
      "note": 58,
      "start": 184.7261,
      "duration": 0.1651,
      "velocity": 127,
      "chip": "ym2612"
    },
    {
      "channel": 4,
      "note": 53,
      "start": 184.7274,
      "duration": 0.0968,
      "velocity": 127,
      "chip": "ym2612"
    },
    {
      "channel": 5,
      "note": 24,
      "start": 184.7283,
      "duration": 0.1654,
      "velocity": 126,
      "chip": "ym2612"
    },
    {
      "channel": 0,
      "note": 44,
      "start": 184.8892,
      "duration": 0.1643,
      "velocity": 114,
      "chip": "ym2612"
    },
    {
      "channel": 1,
      "note": 41,
      "start": 184.89,
      "duration": 0.1644,
      "velocity": 108,
      "chip": "ym2612"
    },
    {
      "channel": 2,
      "note": 17,
      "start": 184.8912,
      "duration": 0.1639,
      "velocity": 1,
      "chip": "ym2612"
    },
    {
      "channel": 3,
      "note": 62,
      "start": 184.8924,
      "duration": 0.1466,
      "velocity": 118,
      "chip": "ym2612"
    },
    {
      "channel": 4,
      "note": 53,
      "start": 184.8937,
      "duration": 0.0962,
      "velocity": 127,
      "chip": "ym2612"
    },
    {
      "channel": 5,
      "note": 36,
      "start": 184.8945,
      "duration": 0.1637,
      "velocity": 126,
      "chip": "ym2612"
    },
    {
      "channel": 0,
      "note": 44,
      "start": 185.0542,
      "duration": 0.1648,
      "velocity": 114,
      "chip": "ym2612"
    },
    {
      "channel": 1,
      "note": 44,
      "start": 185.0549,
      "duration": 0.1649,
      "velocity": 108,
      "chip": "ym2612"
    },
    {
      "channel": 2,
      "note": 17,
      "start": 185.0561,
      "duration": 0.1645,
      "velocity": 113,
      "chip": "ym2612"
    },
    {
      "channel": 3,
      "note": 62,
      "start": 185.0568,
      "duration": 0.1478,
      "velocity": 118,
      "chip": "ym2612"
    },
    {
      "channel": 4,
      "note": 53,
      "start": 185.0581,
      "duration": 0.0973,
      "velocity": 127,
      "chip": "ym2612"
    },
    {
      "channel": 5,
      "note": 39,
      "start": 185.0589,
      "duration": 0.1642,
      "velocity": 126,
      "chip": "ym2612"
    },
    {
      "channel": 0,
      "note": 44,
      "start": 185.2197,
      "duration": 0.1648,
      "velocity": 114,
      "chip": "ym2612"
    },
    {
      "channel": 1,
      "note": 49,
      "start": 185.2204,
      "duration": 0.1654,
      "velocity": 108,
      "chip": "ym2612"
    },
    {
      "channel": 2,
      "note": 17,
      "start": 185.2211,
      "duration": 0.1661,
      "velocity": 113,
      "chip": "ym2612"
    },
    {
      "channel": 3,
      "note": 62,
      "start": 185.2217,
      "duration": 0.1483,
      "velocity": 118,
      "chip": "ym2612"
    },
    {
      "channel": 4,
      "note": 53,
      "start": 185.223,
      "duration": 0.0978,
      "velocity": 127,
      "chip": "ym2612"
    },
    {
      "channel": 5,
      "note": 36,
      "start": 185.2239,
      "duration": 0.1659,
      "velocity": 126,
      "chip": "ym2612"
    },
    {
      "channel": 0,
      "note": 48,
      "start": 185.3857,
      "duration": 0.1644,
      "velocity": 85,
      "chip": "ym2612"
    },
    {
      "channel": 1,
      "note": 29,
      "start": 185.387,
      "duration": 0.1639,
      "velocity": 1,
      "chip": "ym2612"
    },
    {
      "channel": 2,
      "note": 17,
      "start": 185.3876,
      "duration": 0.1639,
      "velocity": 113,
      "chip": "ym2612"
    },
    {
      "channel": 3,
      "note": 29,
      "start": 185.3889,
      "duration": 0.1632,
      "velocity": 1,
      "chip": "ym2612"
    },
    {
      "channel": 4,
      "note": 53,
      "start": 185.3896,
      "duration": 0.0967,
      "velocity": 127,
      "chip": "ym2612"
    },
    {
      "channel": 5,
      "note": 53,
      "start": 185.3908,
      "duration": 0.096,
      "velocity": 1,
      "chip": "ym2612"
    },
    {
      "channel": 0,
      "note": 49,
      "start": 185.5506,
      "duration": 0.165,
      "velocity": 87,
      "chip": "ym2612"
    },
    {
      "channel": 1,
      "note": 29,
      "start": 185.5513,
      "duration": 0.1651,
      "velocity": 1,
      "chip": "ym2612"
    },
    {
      "channel": 2,
      "note": 17,
      "start": 185.5519,
      "duration": 0.1656,
      "velocity": 113,
      "chip": "ym2612"
    },
    {
      "channel": 3,
      "note": 62,
      "start": 185.5531,
      "duration": 0.1478,
      "velocity": 118,
      "chip": "ym2612"
    },
    {
      "channel": 4,
      "note": 53,
      "start": 185.5545,
      "duration": 0.0973,
      "velocity": 127,
      "chip": "ym2612"
    },
    {
      "channel": 0,
      "note": 51,
      "start": 185.7162,
      "duration": 0.1649,
      "velocity": 86,
      "chip": "ym2612"
    },
    {
      "channel": 1,
      "note": 18,
      "start": 185.7174,
      "duration": 0.1482,
      "velocity": 127,
      "chip": "ym2612"
    },
    {
      "channel": 2,
      "note": 17,
      "start": 185.7186,
      "duration": 0.1644,
      "velocity": 1,
      "chip": "ym2612"
    },
    {
      "channel": 3,
      "note": 62,
      "start": 185.7192,
      "duration": 0.1473,
      "velocity": 118,
      "chip": "ym2612"
    },
    {
      "channel": 4,
      "note": 53,
      "start": 185.7205,
      "duration": 0.0968,
      "velocity": 127,
      "chip": "ym2612"
    },
    {
      "channel": 0,
      "note": 53,
      "start": 185.8817,
      "duration": 0.1649,
      "velocity": 85,
      "chip": "ym2612"
    },
    {
      "channel": 1,
      "note": 29,
      "start": 185.8829,
      "duration": 0.1644,
      "velocity": 1,
      "chip": "ym2612"
    },
    {
      "channel": 2,
      "note": 17,
      "start": 185.8842,
      "duration": 0.1639,
      "velocity": 113,
      "chip": "ym2612"
    },
    {
      "channel": 3,
      "note": 62,
      "start": 185.8848,
      "duration": 0.1471,
      "velocity": 118,
      "chip": "ym2612"
    },
    {
      "channel": 4,
      "note": 53,
      "start": 185.8861,
      "duration": 0.0968,
      "velocity": 127,
      "chip": "ym2612"
    },
    {
      "channel": 0,
      "note": 51,
      "start": 186.0473,
      "duration": 0.1649,
      "velocity": 84,
      "chip": "ym2612"
    },
    {
      "channel": 1,
      "note": 29,
      "start": 186.0479,
      "duration": 0.165,
      "velocity": 1,
      "chip": "ym2612"
    },
    {
      "channel": 2,
      "note": 17,
      "start": 186.0485,
      "duration": 0.1656,
      "velocity": 113,
      "chip": "ym2612"
    },
    {
      "channel": 3,
      "note": 58,
      "start": 186.0498,
      "duration": 0.1655,
      "velocity": 127,
      "chip": "ym2612"
    },
    {
      "channel": 4,
      "note": 53,
      "start": 186.0511,
      "duration": 0.0973,
      "velocity": 127,
      "chip": "ym2612"
    },
    {
      "channel": 0,
      "note": 49,
      "start": 186.2128,
      "duration": 0.1649,
      "velocity": 83,
      "chip": "ym2612"
    },
    {
      "channel": 1,
      "note": 18,
      "start": 186.214,
      "duration": 0.1481,
      "velocity": 127,
      "chip": "ym2612"
    },
    {
      "channel": 2,
      "note": 17,
      "start": 186.2152,
      "duration": 0.1644,
      "velocity": 1,
      "chip": "ym2612"
    },
    {
      "channel": 3,
      "note": 62,
      "start": 186.2164,
      "duration": 0.1466,
      "velocity": 118,
      "chip": "ym2612"
    },
    {
      "channel": 4,
      "note": 53,
      "start": 186.2177,
      "duration": 0.0963,
      "velocity": 127,
      "chip": "ym2612"
    },
    {
      "channel": 0,
      "note": 48,
      "start": 186.3783,
      "duration": 0.1649,
      "velocity": 82,
      "chip": "ym2612"
    },
    {
      "channel": 1,
      "note": 29,
      "start": 186.3795,
      "duration": 0.1644,
      "velocity": 1,
      "chip": "ym2612"
    },
    {
      "channel": 2,
      "note": 15,
      "start": 186.3807,
      "duration": 0.1639,
      "velocity": 113,
      "chip": "ym2612"
    },
    {
      "channel": 3,
      "note": 62,
      "start": 186.3814,
      "duration": 0.1471,
      "velocity": 118,
      "chip": "ym2612"
    },
    {
      "channel": 4,
      "note": 53,
      "start": 186.3826,
      "duration": 0.0968,
      "velocity": 127,
      "chip": "ym2612"
    },
    {
      "channel": 0,
      "note": 49,
      "start": 186.5438,
      "duration": 0.1649,
      "velocity": 81,
      "chip": "ym2612"
    },
    {
      "channel": 1,
      "note": 29,
      "start": 186.5445,
      "duration": 0.1651,
      "velocity": 1,
      "chip": "ym2612"
    },
    {
      "channel": 2,
      "note": 17,
      "start": 186.5451,
      "duration": 0.1651,
      "velocity": 113,
      "chip": "ym2612"
    },
    {
      "channel": 3,
      "note": 58,
      "start": 186.5464,
      "duration": 0.1644,
      "velocity": 127,
      "chip": "ym2612"
    },
    {
      "channel": 4,
      "note": 53,
      "start": 186.5476,
      "duration": 0.0974,
      "velocity": 127,
      "chip": "ym2612"
    },
    {
      "channel": 0,
      "note": 48,
      "start": 186.7094,
      "duration": 0.1649,
      "velocity": 80,
      "chip": "ym2612"
    },
    {
      "channel": 1,
      "note": 29,
      "start": 186.71,
      "duration": 0.1651,
      "velocity": 1,
      "chip": "ym2612"
    },
    {
      "channel": 2,
      "note": 17,
      "start": 186.7106,
      "duration": 0.1651,
      "velocity": 113,
      "chip": "ym2612"
    },
    {
      "channel": 3,
      "note": 29,
      "start": 186.7119,
      "duration": 0.1644,
      "velocity": 1,
      "chip": "ym2612"
    },
    {
      "channel": 4,
      "note": 53,
      "start": 186.7132,
      "duration": 0.0974,
      "velocity": 127,
      "chip": "ym2612"
    },
    {
      "channel": 0,
      "note": 49,
      "start": 186.8749,
      "duration": 0.1649,
      "velocity": 81,
      "chip": "ym2612"
    },
    {
      "channel": 1,
      "note": 29,
      "start": 186.8755,
      "duration": 0.165,
      "velocity": 1,
      "chip": "ym2612"
    },
    {
      "channel": 2,
      "note": 17,
      "start": 186.8761,
      "duration": 0.1656,
      "velocity": 113,
      "chip": "ym2612"
    },
    {
      "channel": 3,
      "note": 62,
      "start": 186.8774,
      "duration": 0.1477,
      "velocity": 118,
      "chip": "ym2612"
    },
    {
      "channel": 4,
      "note": 53,
      "start": 186.8786,
      "duration": 0.0974,
      "velocity": 127,
      "chip": "ym2612"
    },
    {
      "channel": 0,
      "note": 51,
      "start": 187.0404,
      "duration": 0.1649,
      "velocity": 82,
      "chip": "ym2612"
    },
    {
      "channel": 1,
      "note": 18,
      "start": 187.0416,
      "duration": 0.1481,
      "velocity": 127,
      "chip": "ym2612"
    },
    {
      "channel": 2,
      "note": 17,
      "start": 187.0428,
      "duration": 0.1644,
      "velocity": 1,
      "chip": "ym2612"
    },
    {
      "channel": 3,
      "note": 62,
      "start": 187.0434,
      "duration": 0.1472,
      "velocity": 118,
      "chip": "ym2612"
    },
    {
      "channel": 4,
      "note": 53,
      "start": 187.0447,
      "duration": 0.0968,
      "velocity": 127,
      "chip": "ym2612"
    },
    {
      "channel": 0,
      "note": 53,
      "start": 187.2059,
      "duration": 0.1649,
      "velocity": 83,
      "chip": "ym2612"
    },
    {
      "channel": 1,
      "note": 29,
      "start": 187.2071,
      "duration": 0.1645,
      "velocity": 1,
      "chip": "ym2612"
    },
    {
      "channel": 2,
      "note": 17,
      "start": 187.2083,
      "duration": 0.1639,
      "velocity": 113,
      "chip": "ym2612"
    },
    {
      "channel": 3,
      "note": 62,
      "start": 187.209,
      "duration": 0.1472,
      "velocity": 118,
      "chip": "ym2612"
    },
    {
      "channel": 4,
      "note": 53,
      "start": 187.2102,
      "duration": 0.0968,
      "velocity": 127,
      "chip": "ym2612"
    },
    {
      "channel": 0,
      "note": 51,
      "start": 187.3715,
      "duration": 0.1649,
      "velocity": 84,
      "chip": "ym2612"
    },
    {
      "channel": 1,
      "note": 29,
      "start": 187.3721,
      "duration": 0.1651,
      "velocity": 1,
      "chip": "ym2612"
    },
    {
      "channel": 2,
      "note": 17,
      "start": 187.3727,
      "duration": 0.1656,
      "velocity": 113,
      "chip": "ym2612"
    },
    {
      "channel": 3,
      "note": 58,
      "start": 187.374,
      "duration": 0.1656,
      "velocity": 127,
      "chip": "ym2612"
    },
    {
      "channel": 4,
      "note": 53,
      "start": 187.3753,
      "duration": 0.0975,
      "velocity": 127,
      "chip": "ym2612"
    },
    {
      "channel": 0,
      "note": 49,
      "start": 187.537,
      "duration": 0.1648,
      "velocity": 85,
      "chip": "ym2612"
    },
    {
      "channel": 1,
      "note": 18,
      "start": 187.5382,
      "duration": 0.148,
      "velocity": 127,
      "chip": "ym2612"
    },
    {
      "channel": 2,
      "note": 17,
      "start": 187.5395,
      "duration": 0.1644,
      "velocity": 1,
      "chip": "ym2612"
    },
    {
      "channel": 3,
      "note": 62,
      "start": 187.5407,
      "duration": 0.1466,
      "velocity": 118,
      "chip": "ym2612"
    },
    {
      "channel": 4,
      "note": 53,
      "start": 187.5419,
      "duration": 0.0962,
      "velocity": 127,
      "chip": "ym2612"
    },
    {
      "channel": 0,
      "note": 48,
      "start": 187.7025,
      "duration": 0.1649,
      "velocity": 86,
      "chip": "ym2612"
    },
    {
      "channel": 1,
      "note": 29,
      "start": 187.7038,
      "duration": 0.1644,
      "velocity": 1,
      "chip": "ym2612"
    },
    {
      "channel": 2,
      "note": 17,
      "start": 187.705,
      "duration": 0.1639,
      "velocity": 113,
      "chip": "ym2612"
    },
    {
      "channel": 3,
      "note": 62,
      "start": 187.7056,
      "duration": 0.1471,
      "velocity": 118,
      "chip": "ym2612"
    },
    {
      "channel": 4,
      "note": 53,
      "start": 187.7069,
      "duration": 0.0968,
      "velocity": 127,
      "chip": "ym2612"
    },
    {
      "channel": 0,
      "note": 46,
      "start": 187.868,
      "duration": 0.1649,
      "velocity": 87,
      "chip": "ym2612"
    },
    {
      "channel": 1,
      "note": 29,
      "start": 187.8686,
      "duration": 0.1651,
      "velocity": 1,
      "chip": "ym2612"
    },
    {
      "channel": 2,
      "note": 17,
      "start": 187.8693,
      "duration": 0.1651,
      "velocity": 113,
      "chip": "ym2612"
    },
    {
      "channel": 3,
      "note": 62,
      "start": 187.8699,
      "duration": 0.1483,
      "velocity": 118,
      "chip": "ym2612"
    },
    {
      "channel": 4,
      "note": 53,
      "start": 187.8712,
      "duration": 0.0979,
      "velocity": 127,
      "chip": "ym2612"
    },
    {
      "channel": 0,
      "note": 48,
      "start": 188.0335,
      "duration": 0.1649,
      "velocity": 85,
      "chip": "ym2612"
    },
    {
      "channel": 1,
      "note": 29,
      "start": 188.0342,
      "duration": 0.1651,
      "velocity": 1,
      "chip": "ym2612"
    },
    {
      "channel": 2,
      "note": 17,
      "start": 188.0348,
      "duration": 0.1651,
      "velocity": 113,
      "chip": "ym2612"
    },
    {
      "channel": 3,
      "note": 29,
      "start": 188.0361,
      "duration": 0.1644,
      "velocity": 1,
      "chip": "ym2612"
    },
    {
      "channel": 4,
      "note": 53,
      "start": 188.0368,
      "duration": 0.098,
      "velocity": 127,
      "chip": "ym2612"
    },
    {
      "channel": 5,
      "note": 53,
      "start": 188.0375,
      "duration": 0.0978,
      "velocity": 1,
      "chip": "ym2612"
    },
    {
      "channel": 0,
      "note": 49,
      "start": 188.199,
      "duration": 0.1649,
      "velocity": 87,
      "chip": "ym2612"
    },
    {
      "channel": 1,
      "note": 29,
      "start": 188.1997,
      "duration": 0.165,
      "velocity": 1,
      "chip": "ym2612"
    },
    {
      "channel": 2,
      "note": 17,
      "start": 188.2003,
      "duration": 0.1656,
      "velocity": 113,
      "chip": "ym2612"
    },
    {
      "channel": 3,
      "note": 62,
      "start": 188.2015,
      "duration": 0.1478,
      "velocity": 118,
      "chip": "ym2612"
    },
    {
      "channel": 4,
      "note": 53,
      "start": 188.2028,
      "duration": 0.0974,
      "velocity": 127,
      "chip": "ym2612"
    },
    {
      "channel": 0,
      "note": 51,
      "start": 188.3646,
      "duration": 0.1649,
      "velocity": 86,
      "chip": "ym2612"
    },
    {
      "channel": 1,
      "note": 18,
      "start": 188.3658,
      "duration": 0.1481,
      "velocity": 127,
      "chip": "ym2612"
    },
    {
      "channel": 2,
      "note": 17,
      "start": 188.367,
      "duration": 0.1645,
      "velocity": 1,
      "chip": "ym2612"
    },
    {
      "channel": 3,
      "note": 62,
      "start": 188.3676,
      "duration": 0.1472,
      "velocity": 118,
      "chip": "ym2612"
    },
    {
      "channel": 4,
      "note": 53,
      "start": 188.3689,
      "duration": 0.0968,
      "velocity": 127,
      "chip": "ym2612"
    },
    {
      "channel": 0,
      "note": 53,
      "start": 188.5301,
      "duration": 0.1649,
      "velocity": 85,
      "chip": "ym2612"
    },
    {
      "channel": 1,
      "note": 29,
      "start": 188.5314,
      "duration": 0.1644,
      "velocity": 1,
      "chip": "ym2612"
    },
    {
      "channel": 2,
      "note": 17,
      "start": 188.5326,
      "duration": 0.1639,
      "velocity": 113,
      "chip": "ym2612"
    },
    {
      "channel": 3,
      "note": 62,
      "start": 188.5332,
      "duration": 0.1471,
      "velocity": 118,
      "chip": "ym2612"
    },
    {
      "channel": 4,
      "note": 53,
      "start": 188.5345,
      "duration": 0.0968,
      "velocity": 127,
      "chip": "ym2612"
    },
    {
      "channel": 0,
      "note": 51,
      "start": 188.6957,
      "duration": 0.1649,
      "velocity": 84,
      "chip": "ym2612"
    },
    {
      "channel": 1,
      "note": 29,
      "start": 188.6963,
      "duration": 0.165,
      "velocity": 1,
      "chip": "ym2612"
    },
    {
      "channel": 2,
      "note": 17,
      "start": 188.697,
      "duration": 0.1656,
      "velocity": 113,
      "chip": "ym2612"
    },
    {
      "channel": 3,
      "note": 58,
      "start": 188.6982,
      "duration": 0.1655,
      "velocity": 127,
      "chip": "ym2612"
    },
    {
      "channel": 4,
      "note": 53,
      "start": 188.6995,
      "duration": 0.0973,
      "velocity": 127,
      "chip": "ym2612"
    },
    {
      "channel": 0,
      "note": 49,
      "start": 188.8612,
      "duration": 0.1649,
      "velocity": 83,
      "chip": "ym2612"
    },
    {
      "channel": 1,
      "note": 18,
      "start": 188.8623,
      "duration": 0.1481,
      "velocity": 127,
      "chip": "ym2612"
    },
    {
      "channel": 2,
      "note": 17,
      "start": 188.8636,
      "duration": 0.1644,
      "velocity": 1,
      "chip": "ym2612"
    },
    {
      "channel": 3,
      "note": 62,
      "start": 188.8648,
      "duration": 0.1466,
      "velocity": 118,
      "chip": "ym2612"
    },
    {
      "channel": 4,
      "note": 53,
      "start": 188.8661,
      "duration": 0.0962,
      "velocity": 127,
      "chip": "ym2612"
    },
    {
      "channel": 0,
      "note": 48,
      "start": 189.0267,
      "duration": 0.1649,
      "velocity": 82,
      "chip": "ym2612"
    },
    {
      "channel": 1,
      "note": 29,
      "start": 189.0279,
      "duration": 0.1644,
      "velocity": 1,
      "chip": "ym2612"
    },
    {
      "channel": 2,
      "note": 15,
      "start": 189.0291,
      "duration": 0.1639,
      "velocity": 113,
      "chip": "ym2612"
    },
    {
      "channel": 3,
      "note": 62,
      "start": 189.0298,
      "duration": 0.1471,
      "velocity": 118,
      "chip": "ym2612"
    },
    {
      "channel": 4,
      "note": 53,
      "start": 189.031,
      "duration": 0.0968,
      "velocity": 127,
      "chip": "ym2612"
    },
    {
      "channel": 0,
      "note": 49,
      "start": 189.1922,
      "duration": 0.1649,
      "velocity": 81,
      "chip": "ym2612"
    },
    {
      "channel": 1,
      "note": 29,
      "start": 189.1929,
      "duration": 0.165,
      "velocity": 1,
      "chip": "ym2612"
    },
    {
      "channel": 2,
      "note": 17,
      "start": 189.1935,
      "duration": 0.165,
      "velocity": 113,
      "chip": "ym2612"
    },
    {
      "channel": 3,
      "note": 58,
      "start": 189.1948,
      "duration": 0.1644,
      "velocity": 127,
      "chip": "ym2612"
    },
    {
      "channel": 4,
      "note": 53,
      "start": 189.1961,
      "duration": 0.0974,
      "velocity": 127,
      "chip": "ym2612"
    },
    {
      "channel": 0,
      "note": 48,
      "start": 189.3578,
      "duration": 0.1649,
      "velocity": 80,
      "chip": "ym2612"
    },
    {
      "channel": 1,
      "note": 29,
      "start": 189.3584,
      "duration": 0.165,
      "velocity": 1,
      "chip": "ym2612"
    },
    {
      "channel": 2,
      "note": 17,
      "start": 189.359,
      "duration": 0.165,
      "velocity": 113,
      "chip": "ym2612"
    },
    {
      "channel": 3,
      "note": 29,
      "start": 189.3603,
      "duration": 0.1644,
      "velocity": 1,
      "chip": "ym2612"
    },
    {
      "channel": 4,
      "note": 53,
      "start": 189.3616,
      "duration": 0.0974,
      "velocity": 127,
      "chip": "ym2612"
    },
    {
      "channel": 0,
      "note": 49,
      "start": 189.5233,
      "duration": 0.1649,
      "velocity": 81,
      "chip": "ym2612"
    },
    {
      "channel": 1,
      "note": 29,
      "start": 189.5239,
      "duration": 0.165,
      "velocity": 1,
      "chip": "ym2612"
    },
    {
      "channel": 2,
      "note": 17,
      "start": 189.5246,
      "duration": 0.1656,
      "velocity": 113,
      "chip": "ym2612"
    },
    {
      "channel": 3,
      "note": 62,
      "start": 189.5257,
      "duration": 0.1478,
      "velocity": 118,
      "chip": "ym2612"
    },
    {
      "channel": 4,
      "note": 53,
      "start": 189.527,
      "duration": 0.0974,
      "velocity": 127,
      "chip": "ym2612"
    },
    {
      "channel": 0,
      "note": 51,
      "start": 189.6888,
      "duration": 0.165,
      "velocity": 82,
      "chip": "ym2612"
    },
    {
      "channel": 1,
      "note": 18,
      "start": 189.69,
      "duration": 0.1481,
      "velocity": 127,
      "chip": "ym2612"
    },
    {
      "channel": 2,
      "note": 17,
      "start": 189.6912,
      "duration": 0.1645,
      "velocity": 1,
      "chip": "ym2612"
    },
    {
      "channel": 3,
      "note": 62,
      "start": 189.6919,
      "duration": 0.1473,
      "velocity": 118,
      "chip": "ym2612"
    },
    {
      "channel": 4,
      "note": 53,
      "start": 189.6931,
      "duration": 0.0968,
      "velocity": 127,
      "chip": "ym2612"
    },
    {
      "channel": 0,
      "note": 53,
      "start": 189.8544,
      "duration": 0.1648,
      "velocity": 83,
      "chip": "ym2612"
    },
    {
      "channel": 1,
      "note": 29,
      "start": 189.8556,
      "duration": 0.1644,
      "velocity": 1,
      "chip": "ym2612"
    },
    {
      "channel": 2,
      "note": 17,
      "start": 189.8568,
      "duration": 0.1639,
      "velocity": 113,
      "chip": "ym2612"
    },
    {
      "channel": 3,
      "note": 62,
      "start": 189.8574,
      "duration": 0.1471,
      "velocity": 118,
      "chip": "ym2612"
    },
    {
      "channel": 4,
      "note": 53,
      "start": 189.8587,
      "duration": 0.0967,
      "velocity": 127,
      "chip": "ym2612"
    },
    {
      "channel": 0,
      "note": 51,
      "start": 190.0198,
      "duration": 0.1649,
      "velocity": 84,
      "chip": "ym2612"
    },
    {
      "channel": 1,
      "note": 29,
      "start": 190.0205,
      "duration": 0.165,
      "velocity": 1,
      "chip": "ym2612"
    },
    {
      "channel": 2,
      "note": 17,
      "start": 190.0212,
      "duration": 0.1655,
      "velocity": 113,
      "chip": "ym2612"
    },
    {
      "channel": 3,
      "note": 58,
      "start": 190.0224,
      "duration": 0.1655,
      "velocity": 127,
      "chip": "ym2612"
    },
    {
      "channel": 4,
      "note": 53,
      "start": 190.0237,
      "duration": 0.0973,
      "velocity": 127,
      "chip": "ym2612"
    },
    {
      "channel": 0,
      "note": 49,
      "start": 190.1854,
      "duration": 0.1649,
      "velocity": 85,
      "chip": "ym2612"
    },
    {
      "channel": 1,
      "note": 18,
      "start": 190.1866,
      "duration": 0.1481,
      "velocity": 127,
      "chip": "ym2612"
    },
    {
      "channel": 2,
      "note": 17,
      "start": 190.1878,
      "duration": 0.1644,
      "velocity": 1,
      "chip": "ym2612"
    },
    {
      "channel": 3,
      "note": 62,
      "start": 190.1891,
      "duration": 0.1466,
      "velocity": 118,
      "chip": "ym2612"
    },
    {
      "channel": 4,
      "note": 53,
      "start": 190.1903,
      "duration": 0.0962,
      "velocity": 127,
      "chip": "ym2612"
    },
    {
      "channel": 0,
      "note": 48,
      "start": 190.3509,
      "duration": 0.1649,
      "velocity": 86,
      "chip": "ym2612"
    },
    {
      "channel": 1,
      "note": 29,
      "start": 190.3521,
      "duration": 0.1645,
      "velocity": 1,
      "chip": "ym2612"
    },
    {
      "channel": 2,
      "note": 17,
      "start": 190.3533,
      "duration": 0.1639,
      "velocity": 113,
      "chip": "ym2612"
    },
    {
      "channel": 3,
      "note": 62,
      "start": 190.354,
      "duration": 0.1471,
      "velocity": 118,
      "chip": "ym2612"
    },
    {
      "channel": 4,
      "note": 53,
      "start": 190.3553,
      "duration": 0.0968,
      "velocity": 127,
      "chip": "ym2612"
    },
    {
      "channel": 0,
      "note": 46,
      "start": 190.5164,
      "duration": 0.1649,
      "velocity": 87,
      "chip": "ym2612"
    },
    {
      "channel": 1,
      "note": 29,
      "start": 190.5171,
      "duration": 0.1651,
      "velocity": 1,
      "chip": "ym2612"
    },
    {
      "channel": 2,
      "note": 17,
      "start": 190.5177,
      "duration": 0.1651,
      "velocity": 113,
      "chip": "ym2612"
    },
    {
      "channel": 3,
      "note": 62,
      "start": 190.5183,
      "duration": 0.1483,
      "velocity": 118,
      "chip": "ym2612"
    },
    {
      "channel": 4,
      "note": 53,
      "start": 190.5196,
      "duration": 0.098,
      "velocity": 127,
      "chip": "ym2612"
    },
    {
      "channel": 0,
      "note": 48,
      "start": 190.6819,
      "duration": 0.1649,
      "velocity": 85,
      "chip": "ym2612"
    },
    {
      "channel": 1,
      "note": 29,
      "start": 190.6826,
      "duration": 0.1651,
      "velocity": 1,
      "chip": "ym2612"
    },
    {
      "channel": 2,
      "note": 17,
      "start": 190.6832,
      "duration": 0.1651,
      "velocity": 113,
      "chip": "ym2612"
    },
    {
      "channel": 3,
      "note": 29,
      "start": 190.6845,
      "duration": 0.1644,
      "velocity": 1,
      "chip": "ym2612"
    },
    {
      "channel": 4,
      "note": 53,
      "start": 190.6852,
      "duration": 0.098,
      "velocity": 127,
      "chip": "ym2612"
    },
    {
      "channel": 5,
      "note": 53,
      "start": 190.6858,
      "duration": 0.0978,
      "velocity": 1,
      "chip": "ym2612"
    },
    {
      "channel": 0,
      "note": 49,
      "start": 190.8475,
      "duration": 0.1649,
      "velocity": 87,
      "chip": "ym2612"
    },
    {
      "channel": 1,
      "note": 29,
      "start": 190.8481,
      "duration": 0.165,
      "velocity": 1,
      "chip": "ym2612"
    },
    {
      "channel": 2,
      "note": 17,
      "start": 190.8487,
      "duration": 0.1656,
      "velocity": 113,
      "chip": "ym2612"
    },
    {
      "channel": 3,
      "note": 62,
      "start": 190.8499,
      "duration": 0.1478,
      "velocity": 118,
      "chip": "ym2612"
    },
    {
      "channel": 4,
      "note": 53,
      "start": 190.8512,
      "duration": 0.0974,
      "velocity": 127,
      "chip": "ym2612"
    },
    {
      "channel": 0,
      "note": 51,
      "start": 191.013,
      "duration": 0.1649,
      "velocity": 86,
      "chip": "ym2612"
    },
    {
      "channel": 1,
      "note": 18,
      "start": 191.0142,
      "duration": 0.1481,
      "velocity": 127,
      "chip": "ym2612"
    },
    {
      "channel": 2,
      "note": 17,
      "start": 191.0154,
      "duration": 0.1644,
      "velocity": 1,
      "chip": "ym2612"
    },
    {
      "channel": 3,
      "note": 62,
      "start": 191.016,
      "duration": 0.1472,
      "velocity": 118,
      "chip": "ym2612"
    },
    {
      "channel": 4,
      "note": 53,
      "start": 191.0173,
      "duration": 0.0968,
      "velocity": 127,
      "chip": "ym2612"
    },
    {
      "channel": 0,
      "note": 53,
      "start": 191.1785,
      "duration": 0.1649,
      "velocity": 85,
      "chip": "ym2612"
    },
    {
      "channel": 1,
      "note": 29,
      "start": 191.1797,
      "duration": 0.1645,
      "velocity": 1,
      "chip": "ym2612"
    },
    {
      "channel": 2,
      "note": 17,
      "start": 191.1809,
      "duration": 0.1639,
      "velocity": 113,
      "chip": "ym2612"
    },
    {
      "channel": 3,
      "note": 62,
      "start": 191.1816,
      "duration": 0.1472,
      "velocity": 118,
      "chip": "ym2612"
    },
    {
      "channel": 4,
      "note": 53,
      "start": 191.1829,
      "duration": 0.0967,
      "velocity": 127,
      "chip": "ym2612"
    },
    {
      "channel": 0,
      "note": 51,
      "start": 191.344,
      "duration": 0.1649,
      "velocity": 84,
      "chip": "ym2612"
    },
    {
      "channel": 1,
      "note": 29,
      "start": 191.3447,
      "duration": 0.165,
      "velocity": 1,
      "chip": "ym2612"
    },
    {
      "channel": 2,
      "note": 17,
      "start": 191.3453,
      "duration": 0.1656,
      "velocity": 113,
      "chip": "ym2612"
    },
    {
      "channel": 3,
      "note": 58,
      "start": 191.3466,
      "duration": 0.1655,
      "velocity": 127,
      "chip": "ym2612"
    },
    {
      "channel": 4,
      "note": 53,
      "start": 191.3479,
      "duration": 0.0973,
      "velocity": 127,
      "chip": "ym2612"
    },
    {
      "channel": 0,
      "note": 49,
      "start": 191.5095,
      "duration": 0.1649,
      "velocity": 83,
      "chip": "ym2612"
    },
    {
      "channel": 1,
      "note": 18,
      "start": 191.5107,
      "duration": 0.1481,
      "velocity": 127,
      "chip": "ym2612"
    },
    {
      "channel": 2,
      "note": 17,
      "start": 191.512,
      "duration": 0.1645,
      "velocity": 1,
      "chip": "ym2612"
    },
    {
      "channel": 3,
      "note": 62,
      "start": 191.5132,
      "duration": 0.1466,
      "velocity": 118,
      "chip": "ym2612"
    },
    {
      "channel": 4,
      "note": 53,
      "start": 191.5145,
      "duration": 0.0962,
      "velocity": 127,
      "chip": "ym2612"
    },
    {
      "channel": 0,
      "note": 48,
      "start": 191.6751,
      "duration": 0.1649,
      "velocity": 82,
      "chip": "ym2612"
    },
    {
      "channel": 1,
      "note": 29,
      "start": 191.6763,
      "duration": 0.1644,
      "velocity": 1,
      "chip": "ym2612"
    },
    {
      "channel": 2,
      "note": 15,
      "start": 191.6776,
      "duration": 0.1639,
      "velocity": 113,
      "chip": "ym2612"
    },
    {
      "channel": 3,
      "note": 62,
      "start": 191.6782,
      "duration": 0.1471,
      "velocity": 118,
      "chip": "ym2612"
    },
    {
      "channel": 4,
      "note": 53,
      "start": 191.6795,
      "duration": 0.0968,
      "velocity": 127,
      "chip": "ym2612"
    },
    {
      "channel": 0,
      "note": 49,
      "start": 191.8407,
      "duration": 0.1649,
      "velocity": 81,
      "chip": "ym2612"
    },
    {
      "channel": 1,
      "note": 29,
      "start": 191.8413,
      "duration": 0.165,
      "velocity": 1,
      "chip": "ym2612"
    },
    {
      "channel": 2,
      "note": 17,
      "start": 191.8419,
      "duration": 0.165,
      "velocity": 113,
      "chip": "ym2612"
    },
    {
      "channel": 3,
      "note": 58,
      "start": 191.8432,
      "duration": 0.1644,
      "velocity": 127,
      "chip": "ym2612"
    },
    {
      "channel": 4,
      "note": 53,
      "start": 191.8445,
      "duration": 0.0973,
      "velocity": 127,
      "chip": "ym2612"
    },
    {
      "channel": 0,
      "note": 48,
      "start": 192.0062,
      "duration": 0.1649,
      "velocity": 80,
      "chip": "ym2612"
    },
    {
      "channel": 1,
      "note": 29,
      "start": 192.0068,
      "duration": 0.165,
      "velocity": 1,
      "chip": "ym2612"
    },
    {
      "channel": 2,
      "note": 17,
      "start": 192.0074,
      "duration": 0.165,
      "velocity": 113,
      "chip": "ym2612"
    },
    {
      "channel": 3,
      "note": 29,
      "start": 192.0087,
      "duration": 0.1644,
      "velocity": 1,
      "chip": "ym2612"
    },
    {
      "channel": 4,
      "note": 53,
      "start": 192.01,
      "duration": 0.0974,
      "velocity": 127,
      "chip": "ym2612"
    },
    {
      "channel": 0,
      "note": 49,
      "start": 192.1717,
      "duration": 0.1649,
      "velocity": 81,
      "chip": "ym2612"
    },
    {
      "channel": 1,
      "note": 29,
      "start": 192.1723,
      "duration": 0.1651,
      "velocity": 1,
      "chip": "ym2612"
    },
    {
      "channel": 2,
      "note": 17,
      "start": 192.173,
      "duration": 0.1656,
      "velocity": 113,
      "chip": "ym2612"
    },
    {
      "channel": 3,
      "note": 62,
      "start": 192.1741,
      "duration": 0.1478,
      "velocity": 118,
      "chip": "ym2612"
    },
    {
      "channel": 4,
      "note": 53,
      "start": 192.1754,
      "duration": 0.0974,
      "velocity": 127,
      "chip": "ym2612"
    },
    {
      "channel": 0,
      "note": 51,
      "start": 192.3373,
      "duration": 0.1648,
      "velocity": 82,
      "chip": "ym2612"
    },
    {
      "channel": 1,
      "note": 18,
      "start": 192.3384,
      "duration": 0.1481,
      "velocity": 127,
      "chip": "ym2612"
    },
    {
      "channel": 2,
      "note": 17,
      "start": 192.3397,
      "duration": 0.1644,
      "velocity": 1,
      "chip": "ym2612"
    },
    {
      "channel": 3,
      "note": 62,
      "start": 192.3403,
      "duration": 0.1473,
      "velocity": 118,
      "chip": "ym2612"
    },
    {
      "channel": 4,
      "note": 53,
      "start": 192.3416,
      "duration": 0.0968,
      "velocity": 127,
      "chip": "ym2612"
    },
    {
      "channel": 0,
      "note": 53,
      "start": 192.5027,
      "duration": 0.1649,
      "velocity": 83,
      "chip": "ym2612"
    },
    {
      "channel": 1,
      "note": 29,
      "start": 192.5039,
      "duration": 0.1644,
      "velocity": 1,
      "chip": "ym2612"
    },
    {
      "channel": 2,
      "note": 17,
      "start": 192.5052,
      "duration": 0.1638,
      "velocity": 113,
      "chip": "ym2612"
    },
    {
      "channel": 3,
      "note": 62,
      "start": 192.5058,
      "duration": 0.1471,
      "velocity": 118,
      "chip": "ym2612"
    },
    {
      "channel": 4,
      "note": 53,
      "start": 192.5071,
      "duration": 0.0968,
      "velocity": 127,
      "chip": "ym2612"
    },
    {
      "channel": 0,
      "note": 51,
      "start": 192.6683,
      "duration": 0.1649,
      "velocity": 84,
      "chip": "ym2612"
    },
    {
      "channel": 1,
      "note": 29,
      "start": 192.6689,
      "duration": 0.165,
      "velocity": 1,
      "chip": "ym2612"
    },
    {
      "channel": 2,
      "note": 17,
      "start": 192.6695,
      "duration": 0.1656,
      "velocity": 113,
      "chip": "ym2612"
    },
    {
      "channel": 3,
      "note": 58,
      "start": 192.6709,
      "duration": 0.1655,
      "velocity": 127,
      "chip": "ym2612"
    },
    {
      "channel": 4,
      "note": 53,
      "start": 192.6721,
      "duration": 0.0973,
      "velocity": 127,
      "chip": "ym2612"
    },
    {
      "channel": 0,
      "note": 49,
      "start": 192.8338,
      "duration": 0.1649,
      "velocity": 85,
      "chip": "ym2612"
    },
    {
      "channel": 1,
      "note": 18,
      "start": 192.835,
      "duration": 0.1481,
      "velocity": 127,
      "chip": "ym2612"
    },
    {
      "channel": 2,
      "note": 17,
      "start": 192.8362,
      "duration": 0.1644,
      "velocity": 1,
      "chip": "ym2612"
    },
    {
      "channel": 3,
      "note": 62,
      "start": 192.8375,
      "duration": 0.1466,
      "velocity": 118,
      "chip": "ym2612"
    },
    {
      "channel": 4,
      "note": 53,
      "start": 192.8388,
      "duration": 0.0962,
      "velocity": 127,
      "chip": "ym2612"
    },
    {
      "channel": 0,
      "note": 48,
      "start": 192.9993,
      "duration": 0.1649,
      "velocity": 86,
      "chip": "ym2612"
    },
    {
      "channel": 1,
      "note": 29,
      "start": 193.0005,
      "duration": 0.1645,
      "velocity": 1,
      "chip": "ym2612"
    },
    {
      "channel": 2,
      "note": 17,
      "start": 193.0017,
      "duration": 0.1639,
      "velocity": 113,
      "chip": "ym2612"
    },
    {
      "channel": 3,
      "note": 62,
      "start": 193.0024,
      "duration": 0.1471,
      "velocity": 118,
      "chip": "ym2612"
    },
    {
      "channel": 4,
      "note": 53,
      "start": 193.0037,
      "duration": 0.0968,
      "velocity": 127,
      "chip": "ym2612"
    },
    {
      "channel": 0,
      "note": 46,
      "start": 193.1648,
      "duration": 0.1649,
      "velocity": 87,
      "chip": "ym2612"
    },
    {
      "channel": 1,
      "note": 29,
      "start": 193.1655,
      "duration": 0.1651,
      "velocity": 1,
      "chip": "ym2612"
    },
    {
      "channel": 2,
      "note": 17,
      "start": 193.1661,
      "duration": 0.1651,
      "velocity": 113,
      "chip": "ym2612"
    },
    {
      "channel": 3,
      "note": 62,
      "start": 193.1667,
      "duration": 0.1483,
      "velocity": 118,
      "chip": "ym2612"
    },
    {
      "channel": 4,
      "note": 53,
      "start": 193.168,
      "duration": 0.098,
      "velocity": 127,
      "chip": "ym2612"
    },
    {
      "channel": 0,
      "note": 48,
      "start": 193.3303,
      "duration": 0.1649,
      "velocity": 85,
      "chip": "ym2612"
    },
    {
      "channel": 1,
      "note": 29,
      "start": 193.331,
      "duration": 0.1651,
      "velocity": 1,
      "chip": "ym2612"
    },
    {
      "channel": 2,
      "note": 17,
      "start": 193.3316,
      "duration": 0.1651,
      "velocity": 113,
      "chip": "ym2612"
    },
    {
      "channel": 3,
      "note": 29,
      "start": 193.3329,
      "duration": 0.1644,
      "velocity": 1,
      "chip": "ym2612"
    },
    {
      "channel": 4,
      "note": 53,
      "start": 193.3336,
      "duration": 0.098,
      "velocity": 127,
      "chip": "ym2612"
    },
    {
      "channel": 5,
      "note": 53,
      "start": 193.3342,
      "duration": 0.0978,
      "velocity": 1,
      "chip": "ym2612"
    },
    {
      "channel": 0,
      "note": 49,
      "start": 193.4959,
      "duration": 0.1649,
      "velocity": 87,
      "chip": "ym2612"
    },
    {
      "channel": 1,
      "note": 29,
      "start": 193.4965,
      "duration": 0.165,
      "velocity": 1,
      "chip": "ym2612"
    },
    {
      "channel": 2,
      "note": 17,
      "start": 193.4971,
      "duration": 0.1656,
      "velocity": 113,
      "chip": "ym2612"
    },
    {
      "channel": 3,
      "note": 62,
      "start": 193.4983,
      "duration": 0.1478,
      "velocity": 118,
      "chip": "ym2612"
    },
    {
      "channel": 4,
      "note": 53,
      "start": 193.4996,
      "duration": 0.0974,
      "velocity": 127,
      "chip": "ym2612"
    },
    {
      "channel": 0,
      "note": 51,
      "start": 193.6614,
      "duration": 0.1649,
      "velocity": 86,
      "chip": "ym2612"
    },
    {
      "channel": 1,
      "note": 18,
      "start": 193.6626,
      "duration": 0.1481,
      "velocity": 127,
      "chip": "ym2612"
    },
    {
      "channel": 2,
      "note": 17,
      "start": 193.6638,
      "duration": 0.1644,
      "velocity": 1,
      "chip": "ym2612"
    },
    {
      "channel": 3,
      "note": 62,
      "start": 193.6644,
      "duration": 0.1472,
      "velocity": 118,
      "chip": "ym2612"
    },
    {
      "channel": 4,
      "note": 53,
      "start": 193.6657,
      "duration": 0.0968,
      "velocity": 127,
      "chip": "ym2612"
    },
    {
      "channel": 0,
      "note": 53,
      "start": 193.8269,
      "duration": 0.1649,
      "velocity": 85,
      "chip": "ym2612"
    },
    {
      "channel": 1,
      "note": 29,
      "start": 193.8281,
      "duration": 0.1645,
      "velocity": 1,
      "chip": "ym2612"
    },
    {
      "channel": 2,
      "note": 17,
      "start": 193.8293,
      "duration": 0.1639,
      "velocity": 113,
      "chip": "ym2612"
    },
    {
      "channel": 3,
      "note": 62,
      "start": 193.83,
      "duration": 0.1472,
      "velocity": 118,
      "chip": "ym2612"
    },
    {
      "channel": 4,
      "note": 53,
      "start": 193.8312,
      "duration": 0.0968,
      "velocity": 127,
      "chip": "ym2612"
    },
    {
      "channel": 0,
      "note": 51,
      "start": 193.9924,
      "duration": 0.1649,
      "velocity": 84,
      "chip": "ym2612"
    },
    {
      "channel": 1,
      "note": 29,
      "start": 193.9931,
      "duration": 0.165,
      "velocity": 1,
      "chip": "ym2612"
    },
    {
      "channel": 2,
      "note": 17,
      "start": 193.9937,
      "duration": 0.1656,
      "velocity": 113,
      "chip": "ym2612"
    },
    {
      "channel": 3,
      "note": 58,
      "start": 193.995,
      "duration": 0.1655,
      "velocity": 127,
      "chip": "ym2612"
    },
    {
      "channel": 4,
      "note": 53,
      "start": 193.9963,
      "duration": 0.0973,
      "velocity": 127,
      "chip": "ym2612"
    },
    {
      "channel": 0,
      "note": 49,
      "start": 194.158,
      "duration": 0.1649,
      "velocity": 83,
      "chip": "ym2612"
    },
    {
      "channel": 1,
      "note": 18,
      "start": 194.1592,
      "duration": 0.1481,
      "velocity": 127,
      "chip": "ym2612"
    },
    {
      "channel": 2,
      "note": 17,
      "start": 194.1604,
      "duration": 0.1644,
      "velocity": 1,
      "chip": "ym2612"
    },
    {
      "channel": 3,
      "note": 62,
      "start": 194.1616,
      "duration": 0.1466,
      "velocity": 118,
      "chip": "ym2612"
    },
    {
      "channel": 4,
      "note": 53,
      "start": 194.1629,
      "duration": 0.0962,
      "velocity": 127,
      "chip": "ym2612"
    },
    {
      "channel": 0,
      "note": 48,
      "start": 194.3235,
      "duration": 0.165,
      "velocity": 82,
      "chip": "ym2612"
    },
    {
      "channel": 1,
      "note": 29,
      "start": 194.3247,
      "duration": 0.1645,
      "velocity": 1,
      "chip": "ym2612"
    },
    {
      "channel": 2,
      "note": 15,
      "start": 194.3259,
      "duration": 0.1639,
      "velocity": 113,
      "chip": "ym2612"
    },
    {
      "channel": 3,
      "note": 62,
      "start": 194.3265,
      "duration": 0.1472,
      "velocity": 118,
      "chip": "ym2612"
    },
    {
      "channel": 4,
      "note": 53,
      "start": 194.3279,
      "duration": 0.0968,
      "velocity": 127,
      "chip": "ym2612"
    },
    {
      "channel": 0,
      "note": 49,
      "start": 194.489,
      "duration": 0.1649,
      "velocity": 81,
      "chip": "ym2612"
    },
    {
      "channel": 1,
      "note": 29,
      "start": 194.4896,
      "duration": 0.1651,
      "velocity": 1,
      "chip": "ym2612"
    },
    {
      "channel": 2,
      "note": 17,
      "start": 194.4903,
      "duration": 0.1651,
      "velocity": 113,
      "chip": "ym2612"
    },
    {
      "channel": 3,
      "note": 58,
      "start": 194.4915,
      "duration": 0.1644,
      "velocity": 127,
      "chip": "ym2612"
    },
    {
      "channel": 4,
      "note": 53,
      "start": 194.4929,
      "duration": 0.0973,
      "velocity": 127,
      "chip": "ym2612"
    },
    {
      "channel": 0,
      "note": 48,
      "start": 194.6546,
      "duration": 0.1649,
      "velocity": 80,
      "chip": "ym2612"
    },
    {
      "channel": 1,
      "note": 29,
      "start": 194.6552,
      "duration": 0.1651,
      "velocity": 1,
      "chip": "ym2612"
    },
    {
      "channel": 2,
      "note": 17,
      "start": 194.6559,
      "duration": 0.1651,
      "velocity": 113,
      "chip": "ym2612"
    },
    {
      "channel": 3,
      "note": 29,
      "start": 194.6571,
      "duration": 0.1644,
      "velocity": 1,
      "chip": "ym2612"
    },
    {
      "channel": 4,
      "note": 53,
      "start": 194.6584,
      "duration": 0.0974,
      "velocity": 127,
      "chip": "ym2612"
    },
    {
      "channel": 0,
      "note": 49,
      "start": 194.8201,
      "duration": 0.1649,
      "velocity": 81,
      "chip": "ym2612"
    },
    {
      "channel": 1,
      "note": 29,
      "start": 194.8207,
      "duration": 0.165,
      "velocity": 1,
      "chip": "ym2612"
    },
    {
      "channel": 2,
      "note": 17,
      "start": 194.8214,
      "duration": 0.1656,
      "velocity": 113,
      "chip": "ym2612"
    },
    {
      "channel": 3,
      "note": 62,
      "start": 194.8226,
      "duration": 0.1478,
      "velocity": 118,
      "chip": "ym2612"
    },
    {
      "channel": 4,
      "note": 53,
      "start": 194.8239,
      "duration": 0.0974,
      "velocity": 127,
      "chip": "ym2612"
    },
    {
      "channel": 0,
      "note": 51,
      "start": 194.9856,
      "duration": 0.1649,
      "velocity": 82,
      "chip": "ym2612"
    },
    {
      "channel": 1,
      "note": 18,
      "start": 194.9868,
      "duration": 0.1481,
      "velocity": 127,
      "chip": "ym2612"
    },
    {
      "channel": 2,
      "note": 17,
      "start": 194.988,
      "duration": 0.1644,
      "velocity": 1,
      "chip": "ym2612"
    },
    {
      "channel": 3,
      "note": 62,
      "start": 194.9887,
      "duration": 0.1472,
      "velocity": 118,
      "chip": "ym2612"
    },
    {
      "channel": 4,
      "note": 53,
      "start": 194.99,
      "duration": 0.0968,
      "velocity": 127,
      "chip": "ym2612"
    },
    {
      "channel": 0,
      "note": 53,
      "start": 195.1512,
      "duration": 0.1649,
      "velocity": 83,
      "chip": "ym2612"
    },
    {
      "channel": 1,
      "note": 29,
      "start": 195.1524,
      "duration": 0.1644,
      "velocity": 1,
      "chip": "ym2612"
    },
    {
      "channel": 2,
      "note": 17,
      "start": 195.1536,
      "duration": 0.1639,
      "velocity": 113,
      "chip": "ym2612"
    },
    {
      "channel": 3,
      "note": 62,
      "start": 195.1542,
      "duration": 0.1471,
      "velocity": 118,
      "chip": "ym2612"
    },
    {
      "channel": 4,
      "note": 53,
      "start": 195.1555,
      "duration": 0.0967,
      "velocity": 127,
      "chip": "ym2612"
    },
    {
      "channel": 0,
      "note": 51,
      "start": 195.3167,
      "duration": 0.1649,
      "velocity": 84,
      "chip": "ym2612"
    },
    {
      "channel": 1,
      "note": 29,
      "start": 195.3173,
      "duration": 0.165,
      "velocity": 1,
      "chip": "ym2612"
    },
    {
      "channel": 2,
      "note": 17,
      "start": 195.3179,
      "duration": 0.1656,
      "velocity": 113,
      "chip": "ym2612"
    },
    {
      "channel": 3,
      "note": 58,
      "start": 195.3192,
      "duration": 0.1655,
      "velocity": 127,
      "chip": "ym2612"
    },
    {
      "channel": 4,
      "note": 53,
      "start": 195.3205,
      "duration": 0.0973,
      "velocity": 127,
      "chip": "ym2612"
    },
    {
      "channel": 0,
      "note": 49,
      "start": 195.4822,
      "duration": 0.1649,
      "velocity": 85,
      "chip": "ym2612"
    },
    {
      "channel": 1,
      "note": 18,
      "start": 195.4833,
      "duration": 0.1482,
      "velocity": 127,
      "chip": "ym2612"
    },
    {
      "channel": 2,
      "note": 17,
      "start": 195.4846,
      "duration": 0.1644,
      "velocity": 1,
      "chip": "ym2612"
    },
    {
      "channel": 3,
      "note": 62,
      "start": 195.4858,
      "duration": 0.1466,
      "velocity": 118,
      "chip": "ym2612"
    },
    {
      "channel": 4,
      "note": 53,
      "start": 195.4871,
      "duration": 0.0962,
      "velocity": 127,
      "chip": "ym2612"
    },
    {
      "channel": 0,
      "note": 48,
      "start": 195.6477,
      "duration": 0.1649,
      "velocity": 86,
      "chip": "ym2612"
    },
    {
      "channel": 1,
      "note": 29,
      "start": 195.6489,
      "duration": 0.1644,
      "velocity": 1,
      "chip": "ym2612"
    },
    {
      "channel": 2,
      "note": 17,
      "start": 195.6501,
      "duration": 0.1639,
      "velocity": 113,
      "chip": "ym2612"
    },
    {
      "channel": 3,
      "note": 62,
      "start": 195.6508,
      "duration": 0.1471,
      "velocity": 118,
      "chip": "ym2612"
    },
    {
      "channel": 4,
      "note": 53,
      "start": 195.652,
      "duration": 0.0968,
      "velocity": 127,
      "chip": "ym2612"
    },
    {
      "channel": 0,
      "note": 46,
      "start": 195.8132,
      "duration": 0.1649,
      "velocity": 87,
      "chip": "ym2612"
    },
    {
      "channel": 1,
      "note": 29,
      "start": 195.8139,
      "duration": 0.165,
      "velocity": 1,
      "chip": "ym2612"
    },
    {
      "channel": 2,
      "note": 17,
      "start": 195.8145,
      "duration": 0.165,
      "velocity": 113,
      "chip": "ym2612"
    },
    {
      "channel": 3,
      "note": 62,
      "start": 195.8151,
      "duration": 0.1483,
      "velocity": 118,
      "chip": "ym2612"
    },
    {
      "channel": 4,
      "note": 53,
      "start": 195.8164,
      "duration": 0.098,
      "velocity": 127,
      "chip": "ym2612"
    },
    {
      "channel": 0,
      "note": 48,
      "start": 195.9788,
      "duration": 0.1649,
      "velocity": 85,
      "chip": "ym2612"
    },
    {
      "channel": 1,
      "note": 29,
      "start": 195.9794,
      "duration": 0.1651,
      "velocity": 1,
      "chip": "ym2612"
    },
    {
      "channel": 2,
      "note": 53,
      "start": 195.9806,
      "duration": 0.0982,
      "velocity": 1,
      "chip": "ym2612"
    },
    {
      "channel": 4,
      "note": 53,
      "start": 195.9823,
      "duration": 0.0975,
      "velocity": 1,
      "chip": "ym2612"
    },
    {
      "channel": 5,
      "note": 53,
      "start": 195.9829,
      "duration": 0.0974,
      "velocity": 1,
      "chip": "ym2612"
    },
    {
      "channel": 0,
      "note": 49,
      "start": 196.1443,
      "duration": 0.1649,
      "velocity": 87,
      "chip": "ym2612"
    },
    {
      "channel": 1,
      "note": 29,
      "start": 196.1449,
      "duration": 0.165,
      "velocity": 1,
      "chip": "ym2612"
    },
    {
      "channel": 0,
      "note": 51,
      "start": 196.3098,
      "duration": 0.1649,
      "velocity": 86,
      "chip": "ym2612"
    },
    {
      "channel": 1,
      "note": 18,
      "start": 196.311,
      "duration": 0.1481,
      "velocity": 127,
      "chip": "ym2612"
    },
    {
      "channel": 0,
      "note": 53,
      "start": 196.4753,
      "duration": 0.1649,
      "velocity": 85,
      "chip": "ym2612"
    },
    {
      "channel": 1,
      "note": 29,
      "start": 196.4765,
      "duration": 0.1645,
      "velocity": 1,
      "chip": "ym2612"
    },
    {
      "channel": 0,
      "note": 51,
      "start": 196.6408,
      "duration": 0.1649,
      "velocity": 84,
      "chip": "ym2612"
    },
    {
      "channel": 1,
      "note": 29,
      "start": 196.6415,
      "duration": 0.165,
      "velocity": 1,
      "chip": "ym2612"
    },
    {
      "channel": 3,
      "note": 17,
      "start": 196.6432,
      "duration": 0.1148,
      "velocity": 127,
      "chip": "ym2612"
    },
    {
      "channel": 0,
      "note": 49,
      "start": 196.8064,
      "duration": 0.1649,
      "velocity": 83,
      "chip": "ym2612"
    },
    {
      "channel": 1,
      "note": 18,
      "start": 196.8076,
      "duration": 0.1481,
      "velocity": 127,
      "chip": "ym2612"
    },
    {
      "channel": 0,
      "note": 48,
      "start": 196.9719,
      "duration": 0.1649,
      "velocity": 82,
      "chip": "ym2612"
    },
    {
      "channel": 1,
      "note": 29,
      "start": 196.9731,
      "duration": 0.1646,
      "velocity": 1,
      "chip": "ym2612"
    },
    {
      "channel": 0,
      "note": 49,
      "start": 197.1375,
      "duration": 0.1648,
      "velocity": 81,
      "chip": "ym2612"
    },
    {
      "channel": 1,
      "note": 29,
      "start": 197.1381,
      "duration": 0.165,
      "velocity": 1,
      "chip": "ym2612"
    },
    {
      "channel": 0,
      "note": 48,
      "start": 197.3029,
      "duration": 0.165,
      "velocity": 80,
      "chip": "ym2612"
    },
    {
      "channel": 1,
      "note": 29,
      "start": 197.3036,
      "duration": 0.165,
      "velocity": 1,
      "chip": "ym2612"
    },
    {
      "channel": 0,
      "note": 49,
      "start": 197.4685,
      "duration": 0.1649,
      "velocity": 81,
      "chip": "ym2612"
    },
    {
      "channel": 1,
      "note": 29,
      "start": 197.4691,
      "duration": 0.165,
      "velocity": 1,
      "chip": "ym2612"
    },
    {
      "channel": 0,
      "note": 51,
      "start": 197.634,
      "duration": 0.165,
      "velocity": 82,
      "chip": "ym2612"
    },
    {
      "channel": 1,
      "note": 18,
      "start": 197.6352,
      "duration": 0.1481,
      "velocity": 127,
      "chip": "ym2612"
    },
    {
      "channel": 0,
      "note": 53,
      "start": 197.7995,
      "duration": 0.1649,
      "velocity": 83,
      "chip": "ym2612"
    },
    {
      "channel": 1,
      "note": 29,
      "start": 197.8008,
      "duration": 0.1644,
      "velocity": 1,
      "chip": "ym2612"
    },
    {
      "channel": 0,
      "note": 51,
      "start": 197.965,
      "duration": 0.165,
      "velocity": 84,
      "chip": "ym2612"
    },
    {
      "channel": 1,
      "note": 29,
      "start": 197.9656,
      "duration": 0.1651,
      "velocity": 1,
      "chip": "ym2612"
    },
    {
      "channel": 3,
      "note": 17,
      "start": 197.9668,
      "duration": 0.1155,
      "velocity": 127,
      "chip": "ym2612"
    },
    {
      "channel": 0,
      "note": 49,
      "start": 198.1306,
      "duration": 0.1649,
      "velocity": 85,
      "chip": "ym2612"
    },
    {
      "channel": 1,
      "note": 18,
      "start": 198.1317,
      "duration": 0.1482,
      "velocity": 127,
      "chip": "ym2612"
    },
    {
      "channel": 0,
      "note": 48,
      "start": 198.2961,
      "duration": 0.1649,
      "velocity": 86,
      "chip": "ym2612"
    },
    {
      "channel": 1,
      "note": 29,
      "start": 198.2973,
      "duration": 0.1644,
      "velocity": 1,
      "chip": "ym2612"
    },
    {
      "channel": 0,
      "note": 46,
      "start": 198.4617,
      "duration": 0.1649,
      "velocity": 87,
      "chip": "ym2612"
    },
    {
      "channel": 1,
      "note": 29,
      "start": 198.4623,
      "duration": 0.165,
      "velocity": 1,
      "chip": "ym2612"
    },
    {
      "channel": 0,
      "note": 48,
      "start": 198.6272,
      "duration": 0.1649,
      "velocity": 85,
      "chip": "ym2612"
    },
    {
      "channel": 1,
      "note": 29,
      "start": 198.6278,
      "duration": 0.165,
      "velocity": 1,
      "chip": "ym2612"
    },
    {
      "channel": 2,
      "note": 53,
      "start": 198.6284,
      "duration": 0.0988,
      "velocity": 1,
      "chip": "ym2612"
    },
    {
      "channel": 4,
      "note": 53,
      "start": 198.6296,
      "duration": 0.0987,
      "velocity": 1,
      "chip": "ym2612"
    },
    {
      "channel": 5,
      "note": 53,
      "start": 198.6302,
      "duration": 0.0985,
      "velocity": 1,
      "chip": "ym2612"
    },
    {
      "channel": 0,
      "note": 49,
      "start": 198.7927,
      "duration": 0.1649,
      "velocity": 87,
      "chip": "ym2612"
    },
    {
      "channel": 1,
      "note": 29,
      "start": 198.7933,
      "duration": 0.165,
      "velocity": 1,
      "chip": "ym2612"
    },
    {
      "channel": 0,
      "note": 51,
      "start": 198.9582,
      "duration": 0.1649,
      "velocity": 86,
      "chip": "ym2612"
    },
    {
      "channel": 1,
      "note": 18,
      "start": 198.9594,
      "duration": 0.1481,
      "velocity": 127,
      "chip": "ym2612"
    },
    {
      "channel": 0,
      "note": 53,
      "start": 199.1237,
      "duration": 0.1649,
      "velocity": 85,
      "chip": "ym2612"
    },
    {
      "channel": 1,
      "note": 29,
      "start": 199.1249,
      "duration": 0.1645,
      "velocity": 1,
      "chip": "ym2612"
    },
    {
      "channel": 0,
      "note": 51,
      "start": 199.2893,
      "duration": 0.1649,
      "velocity": 84,
      "chip": "ym2612"
    },
    {
      "channel": 1,
      "note": 29,
      "start": 199.2899,
      "duration": 0.165,
      "velocity": 1,
      "chip": "ym2612"
    },
    {
      "channel": 3,
      "note": 17,
      "start": 199.291,
      "duration": 0.1154,
      "velocity": 127,
      "chip": "ym2612"
    },
    {
      "channel": 0,
      "note": 49,
      "start": 199.4548,
      "duration": 0.1649,
      "velocity": 83,
      "chip": "ym2612"
    },
    {
      "channel": 1,
      "note": 18,
      "start": 199.456,
      "duration": 0.1481,
      "velocity": 127,
      "chip": "ym2612"
    },
    {
      "channel": 0,
      "note": 48,
      "start": 199.6204,
      "duration": 0.1648,
      "velocity": 82,
      "chip": "ym2612"
    },
    {
      "channel": 1,
      "note": 29,
      "start": 199.6216,
      "duration": 0.1644,
      "velocity": 1,
      "chip": "ym2612"
    },
    {
      "channel": 0,
      "note": 49,
      "start": 199.7858,
      "duration": 0.1649,
      "velocity": 81,
      "chip": "ym2612"
    },
    {
      "channel": 1,
      "note": 29,
      "start": 199.7865,
      "duration": 0.1651,
      "velocity": 1,
      "chip": "ym2612"
    },
    {
      "channel": 0,
      "note": 48,
      "start": 199.9513,
      "duration": 0.1649,
      "velocity": 80,
      "chip": "ym2612"
    },
    {
      "channel": 1,
      "note": 29,
      "start": 199.952,
      "duration": 0.1651,
      "velocity": 1,
      "chip": "ym2612"
    },
    {
      "channel": 0,
      "note": 49,
      "start": 200.1169,
      "duration": 0.1649,
      "velocity": 81,
      "chip": "ym2612"
    },
    {
      "channel": 1,
      "note": 29,
      "start": 200.1175,
      "duration": 0.165,
      "velocity": 1,
      "chip": "ym2612"
    },
    {
      "channel": 0,
      "note": 51,
      "start": 200.2824,
      "duration": 0.1649,
      "velocity": 82,
      "chip": "ym2612"
    },
    {
      "channel": 1,
      "note": 18,
      "start": 200.2836,
      "duration": 0.1481,
      "velocity": 127,
      "chip": "ym2612"
    },
    {
      "channel": 0,
      "note": 53,
      "start": 200.4479,
      "duration": 0.1649,
      "velocity": 83,
      "chip": "ym2612"
    },
    {
      "channel": 1,
      "note": 29,
      "start": 200.4491,
      "duration": 0.1645,
      "velocity": 1,
      "chip": "ym2612"
    },
    {
      "channel": 0,
      "note": 51,
      "start": 200.6134,
      "duration": 0.1649,
      "velocity": 84,
      "chip": "ym2612"
    },
    {
      "channel": 1,
      "note": 29,
      "start": 200.6141,
      "duration": 0.165,
      "velocity": 1,
      "chip": "ym2612"
    },
    {
      "channel": 3,
      "note": 17,
      "start": 200.6152,
      "duration": 0.1154,
      "velocity": 127,
      "chip": "ym2612"
    },
    {
      "channel": 0,
      "note": 49,
      "start": 200.779,
      "duration": 0.1649,
      "velocity": 85,
      "chip": "ym2612"
    },
    {
      "channel": 1,
      "note": 18,
      "start": 200.7802,
      "duration": 0.1481,
      "velocity": 127,
      "chip": "ym2612"
    },
    {
      "channel": 0,
      "note": 48,
      "start": 200.9445,
      "duration": 0.1649,
      "velocity": 86,
      "chip": "ym2612"
    },
    {
      "channel": 1,
      "note": 29,
      "start": 200.9457,
      "duration": 0.1645,
      "velocity": 1,
      "chip": "ym2612"
    },
    {
      "channel": 0,
      "note": 46,
      "start": 201.11,
      "duration": 0.1649,
      "velocity": 87,
      "chip": "ym2612"
    },
    {
      "channel": 1,
      "note": 29,
      "start": 201.1107,
      "duration": 0.165,
      "velocity": 1,
      "chip": "ym2612"
    },
    {
      "channel": 0,
      "note": 48,
      "start": 201.2756,
      "duration": 0.1649,
      "velocity": 85,
      "chip": "ym2612"
    },
    {
      "channel": 1,
      "note": 29,
      "start": 201.2762,
      "duration": 0.165,
      "velocity": 1,
      "chip": "ym2612"
    },
    {
      "channel": 2,
      "note": 53,
      "start": 201.2768,
      "duration": 0.0988,
      "velocity": 1,
      "chip": "ym2612"
    },
    {
      "channel": 4,
      "note": 53,
      "start": 201.278,
      "duration": 0.0987,
      "velocity": 1,
      "chip": "ym2612"
    },
    {
      "channel": 5,
      "note": 53,
      "start": 201.2786,
      "duration": 0.0985,
      "velocity": 1,
      "chip": "ym2612"
    },
    {
      "channel": 0,
      "note": 49,
      "start": 201.4411,
      "duration": 0.1649,
      "velocity": 87,
      "chip": "ym2612"
    },
    {
      "channel": 1,
      "note": 29,
      "start": 201.4417,
      "duration": 0.165,
      "velocity": 1,
      "chip": "ym2612"
    },
    {
      "channel": 0,
      "note": 51,
      "start": 201.6066,
      "duration": 0.1649,
      "velocity": 86,
      "chip": "ym2612"
    },
    {
      "channel": 1,
      "note": 18,
      "start": 201.6078,
      "duration": 0.1482,
      "velocity": 127,
      "chip": "ym2612"
    },
    {
      "channel": 0,
      "note": 53,
      "start": 201.7721,
      "duration": 0.165,
      "velocity": 85,
      "chip": "ym2612"
    },
    {
      "channel": 1,
      "note": 29,
      "start": 201.7734,
      "duration": 0.1645,
      "velocity": 1,
      "chip": "ym2612"
    },
    {
      "channel": 0,
      "note": 51,
      "start": 201.9377,
      "duration": 0.1649,
      "velocity": 84,
      "chip": "ym2612"
    },
    {
      "channel": 1,
      "note": 29,
      "start": 201.9383,
      "duration": 0.165,
      "velocity": 1,
      "chip": "ym2612"
    },
    {
      "channel": 3,
      "note": 17,
      "start": 201.9395,
      "duration": 0.1154,
      "velocity": 127,
      "chip": "ym2612"
    },
    {
      "channel": 0,
      "note": 49,
      "start": 202.1032,
      "duration": 0.1649,
      "velocity": 83,
      "chip": "ym2612"
    },
    {
      "channel": 1,
      "note": 18,
      "start": 202.1044,
      "duration": 0.1481,
      "velocity": 127,
      "chip": "ym2612"
    },
    {
      "channel": 0,
      "note": 48,
      "start": 202.2687,
      "duration": 0.1649,
      "velocity": 82,
      "chip": "ym2612"
    },
    {
      "channel": 1,
      "note": 29,
      "start": 202.2699,
      "duration": 0.1645,
      "velocity": 1,
      "chip": "ym2612"
    },
    {
      "channel": 0,
      "note": 49,
      "start": 202.4342,
      "duration": 0.1649,
      "velocity": 81,
      "chip": "ym2612"
    },
    {
      "channel": 1,
      "note": 29,
      "start": 202.4349,
      "duration": 0.1651,
      "velocity": 1,
      "chip": "ym2612"
    },
    {
      "channel": 0,
      "note": 48,
      "start": 202.5998,
      "duration": 0.1649,
      "velocity": 80,
      "chip": "ym2612"
    },
    {
      "channel": 1,
      "note": 29,
      "start": 202.6004,
      "duration": 0.1651,
      "velocity": 1,
      "chip": "ym2612"
    },
    {
      "channel": 0,
      "note": 49,
      "start": 202.7653,
      "duration": 0.1649,
      "velocity": 81,
      "chip": "ym2612"
    },
    {
      "channel": 1,
      "note": 29,
      "start": 202.7659,
      "duration": 0.165,
      "velocity": 1,
      "chip": "ym2612"
    },
    {
      "channel": 0,
      "note": 51,
      "start": 202.9308,
      "duration": 0.1649,
      "velocity": 82,
      "chip": "ym2612"
    },
    {
      "channel": 1,
      "note": 18,
      "start": 202.932,
      "duration": 0.1481,
      "velocity": 127,
      "chip": "ym2612"
    },
    {
      "channel": 0,
      "note": 53,
      "start": 203.0963,
      "duration": 0.1649,
      "velocity": 83,
      "chip": "ym2612"
    },
    {
      "channel": 1,
      "note": 29,
      "start": 203.0975,
      "duration": 0.1645,
      "velocity": 1,
      "chip": "ym2612"
    },
    {
      "channel": 0,
      "note": 51,
      "start": 203.2618,
      "duration": 0.1649,
      "velocity": 84,
      "chip": "ym2612"
    },
    {
      "channel": 1,
      "note": 29,
      "start": 203.2625,
      "duration": 0.165,
      "velocity": 1,
      "chip": "ym2612"
    },
    {
      "channel": 3,
      "note": 17,
      "start": 203.2636,
      "duration": 0.1154,
      "velocity": 127,
      "chip": "ym2612"
    },
    {
      "channel": 0,
      "note": 49,
      "start": 203.4274,
      "duration": 0.1649,
      "velocity": 85,
      "chip": "ym2612"
    },
    {
      "channel": 1,
      "note": 18,
      "start": 203.4286,
      "duration": 0.1481,
      "velocity": 127,
      "chip": "ym2612"
    },
    {
      "channel": 0,
      "note": 48,
      "start": 203.5929,
      "duration": 0.1649,
      "velocity": 86,
      "chip": "ym2612"
    },
    {
      "channel": 1,
      "note": 29,
      "start": 203.5941,
      "duration": 0.1645,
      "velocity": 1,
      "chip": "ym2612"
    },
    {
      "channel": 0,
      "note": 46,
      "start": 203.7584,
      "duration": 0.1649,
      "velocity": 87,
      "chip": "ym2612"
    },
    {
      "channel": 1,
      "note": 29,
      "start": 203.759,
      "duration": 0.1651,
      "velocity": 1,
      "chip": "ym2612"
    },
    {
      "channel": 0,
      "note": 48,
      "start": 203.9239,
      "duration": 0.1649,
      "velocity": 85,
      "chip": "ym2612"
    },
    {
      "channel": 1,
      "note": 29,
      "start": 203.9246,
      "duration": 0.1651,
      "velocity": 1,
      "chip": "ym2612"
    },
    {
      "channel": 2,
      "note": 53,
      "start": 203.9252,
      "duration": 0.0989,
      "velocity": 1,
      "chip": "ym2612"
    },
    {
      "channel": 4,
      "note": 53,
      "start": 203.9263,
      "duration": 0.0987,
      "velocity": 1,
      "chip": "ym2612"
    },
    {
      "channel": 5,
      "note": 53,
      "start": 203.927,
      "duration": 0.0986,
      "velocity": 1,
      "chip": "ym2612"
    },
    {
      "channel": 0,
      "note": 49,
      "start": 204.0895,
      "duration": 0.1649,
      "velocity": 87,
      "chip": "ym2612"
    },
    {
      "channel": 1,
      "note": 29,
      "start": 204.0901,
      "duration": 0.1651,
      "velocity": 1,
      "chip": "ym2612"
    },
    {
      "channel": 0,
      "note": 51,
      "start": 204.255,
      "duration": 0.1649,
      "velocity": 86,
      "chip": "ym2612"
    },
    {
      "channel": 1,
      "note": 18,
      "start": 204.2562,
      "duration": 0.1482,
      "velocity": 127,
      "chip": "ym2612"
    },
    {
      "channel": 0,
      "note": 53,
      "start": 204.4205,
      "duration": 0.1649,
      "velocity": 85,
      "chip": "ym2612"
    },
    {
      "channel": 1,
      "note": 29,
      "start": 204.4218,
      "duration": 0.1644,
      "velocity": 1,
      "chip": "ym2612"
    },
    {
      "channel": 0,
      "note": 51,
      "start": 204.5861,
      "duration": 0.1649,
      "velocity": 84,
      "chip": "ym2612"
    },
    {
      "channel": 1,
      "note": 29,
      "start": 204.5867,
      "duration": 0.165,
      "velocity": 1,
      "chip": "ym2612"
    },
    {
      "channel": 3,
      "note": 17,
      "start": 204.5878,
      "duration": 0.1154,
      "velocity": 127,
      "chip": "ym2612"
    },
    {
      "channel": 0,
      "note": 49,
      "start": 204.7516,
      "duration": 0.1649,
      "velocity": 83,
      "chip": "ym2612"
    },
    {
      "channel": 1,
      "note": 18,
      "start": 204.7527,
      "duration": 0.1481,
      "velocity": 127,
      "chip": "ym2612"
    },
    {
      "channel": 0,
      "note": 48,
      "start": 204.9171,
      "duration": 0.1649,
      "velocity": 82,
      "chip": "ym2612"
    },
    {
      "channel": 1,
      "note": 29,
      "start": 204.9183,
      "duration": 0.1644,
      "velocity": 1,
      "chip": "ym2612"
    },
    {
      "channel": 0,
      "note": 49,
      "start": 205.0826,
      "duration": 0.1649,
      "velocity": 81,
      "chip": "ym2612"
    },
    {
      "channel": 1,
      "note": 29,
      "start": 205.0833,
      "duration": 0.1651,
      "velocity": 1,
      "chip": "ym2612"
    },
    {
      "channel": 0,
      "note": 48,
      "start": 205.2482,
      "duration": 0.1649,
      "velocity": 80,
      "chip": "ym2612"
    },
    {
      "channel": 1,
      "note": 29,
      "start": 205.2488,
      "duration": 0.1651,
      "velocity": 1,
      "chip": "ym2612"
    },
    {
      "channel": 0,
      "note": 49,
      "start": 205.4137,
      "duration": 0.1649,
      "velocity": 81,
      "chip": "ym2612"
    },
    {
      "channel": 1,
      "note": 29,
      "start": 205.4143,
      "duration": 0.165,
      "velocity": 1,
      "chip": "ym2612"
    },
    {
      "channel": 0,
      "note": 51,
      "start": 205.5792,
      "duration": 0.1649,
      "velocity": 82,
      "chip": "ym2612"
    },
    {
      "channel": 1,
      "note": 18,
      "start": 205.5804,
      "duration": 0.1481,
      "velocity": 127,
      "chip": "ym2612"
    },
    {
      "channel": 0,
      "note": 53,
      "start": 205.7447,
      "duration": 0.1649,
      "velocity": 83,
      "chip": "ym2612"
    },
    {
      "channel": 1,
      "note": 29,
      "start": 205.7459,
      "duration": 0.1645,
      "velocity": 1,
      "chip": "ym2612"
    },
    {
      "channel": 0,
      "note": 51,
      "start": 205.9102,
      "duration": 0.1649,
      "velocity": 84,
      "chip": "ym2612"
    },
    {
      "channel": 1,
      "note": 29,
      "start": 205.9109,
      "duration": 0.165,
      "velocity": 1,
      "chip": "ym2612"
    },
    {
      "channel": 3,
      "note": 17,
      "start": 205.912,
      "duration": 0.1154,
      "velocity": 127,
      "chip": "ym2612"
    },
    {
      "channel": 0,
      "note": 49,
      "start": 206.0758,
      "duration": 0.1649,
      "velocity": 85,
      "chip": "ym2612"
    },
    {
      "channel": 1,
      "note": 18,
      "start": 206.077,
      "duration": 0.1481,
      "velocity": 127,
      "chip": "ym2612"
    },
    {
      "channel": 0,
      "note": 48,
      "start": 206.2413,
      "duration": 0.1649,
      "velocity": 86,
      "chip": "ym2612"
    },
    {
      "channel": 1,
      "note": 29,
      "start": 206.2425,
      "duration": 0.1645,
      "velocity": 1,
      "chip": "ym2612"
    },
    {
      "channel": 0,
      "note": 46,
      "start": 206.4068,
      "duration": 0.1649,
      "velocity": 87,
      "chip": "ym2612"
    },
    {
      "channel": 1,
      "note": 29,
      "start": 206.4074,
      "duration": 0.1651,
      "velocity": 1,
      "chip": "ym2612"
    },
    {
      "channel": 0,
      "note": 48,
      "start": 206.5723,
      "duration": 0.1649,
      "velocity": 85,
      "chip": "ym2612"
    },
    {
      "channel": 1,
      "note": 29,
      "start": 206.573,
      "duration": 0.1651,
      "velocity": 1,
      "chip": "ym2612"
    },
    {
      "channel": 2,
      "note": 17,
      "start": 206.5742,
      "duration": 0.1646,
      "velocity": 113,
      "chip": "ym2612"
    },
    {
      "channel": 3,
      "note": 29,
      "start": 206.5754,
      "duration": 0.1639,
      "velocity": 1,
      "chip": "ym2612"
    },
    {
      "channel": 4,
      "note": 53,
      "start": 206.5768,
      "duration": 0.0968,
      "velocity": 127,
      "chip": "ym2612"
    },
    {
      "channel": 5,
      "note": 53,
      "start": 206.5774,
      "duration": 0.0966,
      "velocity": 1,
      "chip": "ym2612"
    },
    {
      "channel": 0,
      "note": 51,
      "start": 206.7379,
      "duration": 0.1649,
      "velocity": 87,
      "chip": "ym2612"
    },
    {
      "channel": 1,
      "note": 31,
      "start": 206.7385,
      "duration": 0.165,
      "velocity": 1,
      "chip": "ym2612"
    },
    {
      "channel": 2,
      "note": 19,
      "start": 206.7392,
      "duration": 0.1656,
      "velocity": 113,
      "chip": "ym2612"
    },
    {
      "channel": 3,
      "note": 62,
      "start": 206.7404,
      "duration": 0.1478,
      "velocity": 118,
      "chip": "ym2612"
    },
    {
      "channel": 4,
      "note": 55,
      "start": 206.7417,
      "duration": 0.0974,
      "velocity": 127,
      "chip": "ym2612"
    },
    {
      "channel": 0,
      "note": 53,
      "start": 206.9034,
      "duration": 0.1649,
      "velocity": 86,
      "chip": "ym2612"
    },
    {
      "channel": 1,
      "note": 20,
      "start": 206.9046,
      "duration": 0.148,
      "velocity": 127,
      "chip": "ym2612"
    },
    {
      "channel": 2,
      "note": 19,
      "start": 206.9059,
      "duration": 0.1644,
      "velocity": 1,
      "chip": "ym2612"
    },
    {
      "channel": 3,
      "note": 62,
      "start": 206.9065,
      "duration": 0.1472,
      "velocity": 118,
      "chip": "ym2612"
    },
    {
      "channel": 4,
      "note": 55,
      "start": 206.9078,
      "duration": 0.0968,
      "velocity": 127,
      "chip": "ym2612"
    },
    {
      "channel": 0,
      "note": 55,
      "start": 207.0689,
      "duration": 0.165,
      "velocity": 85,
      "chip": "ym2612"
    },
    {
      "channel": 1,
      "note": 31,
      "start": 207.0701,
      "duration": 0.1645,
      "velocity": 1,
      "chip": "ym2612"
    },
    {
      "channel": 2,
      "note": 19,
      "start": 207.0714,
      "duration": 0.1639,
      "velocity": 113,
      "chip": "ym2612"
    },
    {
      "channel": 3,
      "note": 62,
      "start": 207.072,
      "duration": 0.1471,
      "velocity": 118,
      "chip": "ym2612"
    },
    {
      "channel": 4,
      "note": 55,
      "start": 207.0733,
      "duration": 0.0968,
      "velocity": 127,
      "chip": "ym2612"
    },
    {
      "channel": 0,
      "note": 53,
      "start": 207.2345,
      "duration": 0.1649,
      "velocity": 84,
      "chip": "ym2612"
    },
    {
      "channel": 1,
      "note": 31,
      "start": 207.2351,
      "duration": 0.165,
      "velocity": 1,
      "chip": "ym2612"
    },
    {
      "channel": 2,
      "note": 19,
      "start": 207.2358,
      "duration": 0.1656,
      "velocity": 113,
      "chip": "ym2612"
    },
    {
      "channel": 3,
      "note": 58,
      "start": 207.2371,
      "duration": 0.1654,
      "velocity": 127,
      "chip": "ym2612"
    },
    {
      "channel": 4,
      "note": 55,
      "start": 207.2384,
      "duration": 0.0973,
      "velocity": 127,
      "chip": "ym2612"
    },
    {
      "channel": 0,
      "note": 51,
      "start": 207.4,
      "duration": 0.1649,
      "velocity": 83,
      "chip": "ym2612"
    },
    {
      "channel": 1,
      "note": 20,
      "start": 207.4012,
      "duration": 0.1481,
      "velocity": 127,
      "chip": "ym2612"
    },
    {
      "channel": 2,
      "note": 19,
      "start": 207.4024,
      "duration": 0.1644,
      "velocity": 1,
      "chip": "ym2612"
    },
    {
      "channel": 3,
      "note": 62,
      "start": 207.4036,
      "duration": 0.1466,
      "velocity": 118,
      "chip": "ym2612"
    },
    {
      "channel": 4,
      "note": 55,
      "start": 207.405,
      "duration": 0.0961,
      "velocity": 127,
      "chip": "ym2612"
    },
    {
      "channel": 0,
      "note": 50,
      "start": 207.5655,
      "duration": 0.1649,
      "velocity": 82,
      "chip": "ym2612"
    },
    {
      "channel": 1,
      "note": 31,
      "start": 207.5667,
      "duration": 0.1644,
      "velocity": 1,
      "chip": "ym2612"
    },
    {
      "channel": 2,
      "note": 17,
      "start": 207.5679,
      "duration": 0.1639,
      "velocity": 113,
      "chip": "ym2612"
    },
    {
      "channel": 3,
      "note": 62,
      "start": 207.5686,
      "duration": 0.1471,
      "velocity": 118,
      "chip": "ym2612"
    },
    {
      "channel": 4,
      "note": 55,
      "start": 207.5698,
      "duration": 0.0968,
      "velocity": 127,
      "chip": "ym2612"
    },
    {
      "channel": 0,
      "note": 51,
      "start": 207.731,
      "duration": 0.1649,
      "velocity": 81,
      "chip": "ym2612"
    },
    {
      "channel": 1,
      "note": 31,
      "start": 207.7317,
      "duration": 0.165,
      "velocity": 1,
      "chip": "ym2612"
    },
    {
      "channel": 2,
      "note": 19,
      "start": 207.7323,
      "duration": 0.165,
      "velocity": 113,
      "chip": "ym2612"
    },
    {
      "channel": 3,
      "note": 58,
      "start": 207.7336,
      "duration": 0.1644,
      "velocity": 127,
      "chip": "ym2612"
    },
    {
      "channel": 4,
      "note": 55,
      "start": 207.7349,
      "duration": 0.0973,
      "velocity": 127,
      "chip": "ym2612"
    },
    {
      "channel": 0,
      "note": 50,
      "start": 207.8966,
      "duration": 0.1649,
      "velocity": 80,
      "chip": "ym2612"
    },
    {
      "channel": 1,
      "note": 31,
      "start": 207.8972,
      "duration": 0.165,
      "velocity": 1,
      "chip": "ym2612"
    },
    {
      "channel": 2,
      "note": 19,
      "start": 207.8978,
      "duration": 0.165,
      "velocity": 113,
      "chip": "ym2612"
    },
    {
      "channel": 3,
      "note": 29,
      "start": 207.8991,
      "duration": 0.1644,
      "velocity": 1,
      "chip": "ym2612"
    },
    {
      "channel": 4,
      "note": 55,
      "start": 207.9004,
      "duration": 0.0974,
      "velocity": 127,
      "chip": "ym2612"
    },
    {
      "channel": 0,
      "note": 51,
      "start": 208.0621,
      "duration": 0.1649,
      "velocity": 81,
      "chip": "ym2612"
    },
    {
      "channel": 1,
      "note": 31,
      "start": 208.0627,
      "duration": 0.165,
      "velocity": 1,
      "chip": "ym2612"
    },
    {
      "channel": 2,
      "note": 19,
      "start": 208.0634,
      "duration": 0.1656,
      "velocity": 113,
      "chip": "ym2612"
    },
    {
      "channel": 3,
      "note": 62,
      "start": 208.0645,
      "duration": 0.1478,
      "velocity": 118,
      "chip": "ym2612"
    },
    {
      "channel": 4,
      "note": 55,
      "start": 208.0659,
      "duration": 0.0974,
      "velocity": 127,
      "chip": "ym2612"
    },
    {
      "channel": 0,
      "note": 53,
      "start": 208.2276,
      "duration": 0.1649,
      "velocity": 82,
      "chip": "ym2612"
    },
    {
      "channel": 1,
      "note": 20,
      "start": 208.2288,
      "duration": 0.1481,
      "velocity": 127,
      "chip": "ym2612"
    },
    {
      "channel": 2,
      "note": 19,
      "start": 208.23,
      "duration": 0.1644,
      "velocity": 1,
      "chip": "ym2612"
    },
    {
      "channel": 3,
      "note": 62,
      "start": 208.2307,
      "duration": 0.1472,
      "velocity": 118,
      "chip": "ym2612"
    },
    {
      "channel": 4,
      "note": 55,
      "start": 208.2319,
      "duration": 0.0968,
      "velocity": 127,
      "chip": "ym2612"
    },
    {
      "channel": 0,
      "note": 55,
      "start": 208.3931,
      "duration": 0.1649,
      "velocity": 83,
      "chip": "ym2612"
    },
    {
      "channel": 1,
      "note": 31,
      "start": 208.3944,
      "duration": 0.1645,
      "velocity": 1,
      "chip": "ym2612"
    },
    {
      "channel": 2,
      "note": 19,
      "start": 208.3956,
      "duration": 0.1639,
      "velocity": 113,
      "chip": "ym2612"
    },
    {
      "channel": 3,
      "note": 62,
      "start": 208.3962,
      "duration": 0.1471,
      "velocity": 118,
      "chip": "ym2612"
    },
    {
      "channel": 4,
      "note": 55,
      "start": 208.3975,
      "duration": 0.0968,
      "velocity": 127,
      "chip": "ym2612"
    },
    {
      "channel": 0,
      "note": 53,
      "start": 208.5587,
      "duration": 0.1649,
      "velocity": 84,
      "chip": "ym2612"
    },
    {
      "channel": 1,
      "note": 31,
      "start": 208.5593,
      "duration": 0.165,
      "velocity": 1,
      "chip": "ym2612"
    },
    {
      "channel": 2,
      "note": 19,
      "start": 208.5599,
      "duration": 0.1656,
      "velocity": 113,
      "chip": "ym2612"
    },
    {
      "channel": 3,
      "note": 58,
      "start": 208.5612,
      "duration": 0.1655,
      "velocity": 127,
      "chip": "ym2612"
    },
    {
      "channel": 4,
      "note": 55,
      "start": 208.5625,
      "duration": 0.0974,
      "velocity": 127,
      "chip": "ym2612"
    },
    {
      "channel": 0,
      "note": 51,
      "start": 208.7242,
      "duration": 0.1649,
      "velocity": 85,
      "chip": "ym2612"
    },
    {
      "channel": 1,
      "note": 20,
      "start": 208.7254,
      "duration": 0.1481,
      "velocity": 127,
      "chip": "ym2612"
    },
    {
      "channel": 2,
      "note": 19,
      "start": 208.7266,
      "duration": 0.1644,
      "velocity": 1,
      "chip": "ym2612"
    },
    {
      "channel": 3,
      "note": 62,
      "start": 208.7278,
      "duration": 0.1466,
      "velocity": 118,
      "chip": "ym2612"
    },
    {
      "channel": 4,
      "note": 55,
      "start": 208.7291,
      "duration": 0.0963,
      "velocity": 127,
      "chip": "ym2612"
    },
    {
      "channel": 0,
      "note": 50,
      "start": 208.8897,
      "duration": 0.1649,
      "velocity": 86,
      "chip": "ym2612"
    },
    {
      "channel": 1,
      "note": 31,
      "start": 208.8909,
      "duration": 0.1645,
      "velocity": 1,
      "chip": "ym2612"
    },
    {
      "channel": 2,
      "note": 19,
      "start": 208.8921,
      "duration": 0.1639,
      "velocity": 113,
      "chip": "ym2612"
    },
    {
      "channel": 3,
      "note": 62,
      "start": 208.8927,
      "duration": 0.1472,
      "velocity": 118,
      "chip": "ym2612"
    },
    {
      "channel": 4,
      "note": 55,
      "start": 208.894,
      "duration": 0.0968,
      "velocity": 127,
      "chip": "ym2612"
    },
    {
      "channel": 0,
      "note": 48,
      "start": 209.0552,
      "duration": 0.1649,
      "velocity": 87,
      "chip": "ym2612"
    },
    {
      "channel": 1,
      "note": 31,
      "start": 209.0559,
      "duration": 0.1651,
      "velocity": 1,
      "chip": "ym2612"
    },
    {
      "channel": 2,
      "note": 19,
      "start": 209.0565,
      "duration": 0.1651,
      "velocity": 113,
      "chip": "ym2612"
    },
    {
      "channel": 3,
      "note": 62,
      "start": 209.0571,
      "duration": 0.1484,
      "velocity": 118,
      "chip": "ym2612"
    },
    {
      "channel": 4,
      "note": 55,
      "start": 209.0584,
      "duration": 0.098,
      "velocity": 127,
      "chip": "ym2612"
    },
    {
      "channel": 0,
      "note": 50,
      "start": 209.2208,
      "duration": 0.1648,
      "velocity": 85,
      "chip": "ym2612"
    },
    {
      "channel": 1,
      "note": 31,
      "start": 209.2215,
      "duration": 0.165,
      "velocity": 1,
      "chip": "ym2612"
    },
    {
      "channel": 2,
      "note": 19,
      "start": 209.2221,
      "duration": 0.165,
      "velocity": 113,
      "chip": "ym2612"
    },
    {
      "channel": 3,
      "note": 29,
      "start": 209.2234,
      "duration": 0.1644,
      "velocity": 1,
      "chip": "ym2612"
    },
    {
      "channel": 4,
      "note": 55,
      "start": 209.2241,
      "duration": 0.098,
      "velocity": 127,
      "chip": "ym2612"
    },
    {
      "channel": 5,
      "note": 53,
      "start": 209.2247,
      "duration": 0.0978,
      "velocity": 1,
      "chip": "ym2612"
    },
    {
      "channel": 0,
      "note": 51,
      "start": 209.3863,
      "duration": 0.1649,
      "velocity": 87,
      "chip": "ym2612"
    },
    {
      "channel": 1,
      "note": 31,
      "start": 209.387,
      "duration": 0.1649,
      "velocity": 1,
      "chip": "ym2612"
    },
    {
      "channel": 2,
      "note": 19,
      "start": 209.3876,
      "duration": 0.1655,
      "velocity": 113,
      "chip": "ym2612"
    },
    {
      "channel": 3,
      "note": 62,
      "start": 209.3888,
      "duration": 0.1477,
      "velocity": 118,
      "chip": "ym2612"
    },
    {
      "channel": 4,
      "note": 55,
      "start": 209.3901,
      "duration": 0.0974,
      "velocity": 127,
      "chip": "ym2612"
    },
    {
      "channel": 0,
      "note": 53,
      "start": 209.5518,
      "duration": 0.1649,
      "velocity": 86,
      "chip": "ym2612"
    },
    {
      "channel": 1,
      "note": 20,
      "start": 209.553,
      "duration": 0.1481,
      "velocity": 127,
      "chip": "ym2612"
    },
    {
      "channel": 2,
      "note": 19,
      "start": 209.5543,
      "duration": 0.1644,
      "velocity": 1,
      "chip": "ym2612"
    },
    {
      "channel": 3,
      "note": 62,
      "start": 209.5549,
      "duration": 0.1471,
      "velocity": 118,
      "chip": "ym2612"
    },
    {
      "channel": 4,
      "note": 55,
      "start": 209.5562,
      "duration": 0.0968,
      "velocity": 127,
      "chip": "ym2612"
    },
    {
      "channel": 0,
      "note": 55,
      "start": 209.7173,
      "duration": 0.165,
      "velocity": 85,
      "chip": "ym2612"
    },
    {
      "channel": 1,
      "note": 31,
      "start": 209.7185,
      "duration": 0.1645,
      "velocity": 1,
      "chip": "ym2612"
    },
    {
      "channel": 2,
      "note": 19,
      "start": 209.7197,
      "duration": 0.1639,
      "velocity": 113,
      "chip": "ym2612"
    },
    {
      "channel": 3,
      "note": 62,
      "start": 209.7204,
      "duration": 0.1471,
      "velocity": 118,
      "chip": "ym2612"
    },
    {
      "channel": 4,
      "note": 55,
      "start": 209.7217,
      "duration": 0.0968,
      "velocity": 127,
      "chip": "ym2612"
    },
    {
      "channel": 0,
      "note": 53,
      "start": 209.8828,
      "duration": 0.1649,
      "velocity": 84,
      "chip": "ym2612"
    },
    {
      "channel": 1,
      "note": 31,
      "start": 209.8835,
      "duration": 0.165,
      "velocity": 1,
      "chip": "ym2612"
    },
    {
      "channel": 2,
      "note": 19,
      "start": 209.8841,
      "duration": 0.1656,
      "velocity": 113,
      "chip": "ym2612"
    },
    {
      "channel": 3,
      "note": 58,
      "start": 209.8854,
      "duration": 0.1656,
      "velocity": 127,
      "chip": "ym2612"
    },
    {
      "channel": 4,
      "note": 55,
      "start": 209.8867,
      "duration": 0.0973,
      "velocity": 127,
      "chip": "ym2612"
    },
    {
      "channel": 0,
      "note": 51,
      "start": 210.0483,
      "duration": 0.165,
      "velocity": 83,
      "chip": "ym2612"
    },
    {
      "channel": 1,
      "note": 20,
      "start": 210.0496,
      "duration": 0.1481,
      "velocity": 127,
      "chip": "ym2612"
    },
    {
      "channel": 2,
      "note": 19,
      "start": 210.0508,
      "duration": 0.1645,
      "velocity": 1,
      "chip": "ym2612"
    },
    {
      "channel": 3,
      "note": 62,
      "start": 210.052,
      "duration": 0.1466,
      "velocity": 118,
      "chip": "ym2612"
    },
    {
      "channel": 4,
      "note": 55,
      "start": 210.0533,
      "duration": 0.0962,
      "velocity": 127,
      "chip": "ym2612"
    },
    {
      "channel": 0,
      "note": 50,
      "start": 210.2139,
      "duration": 0.1649,
      "velocity": 82,
      "chip": "ym2612"
    },
    {
      "channel": 1,
      "note": 31,
      "start": 210.2151,
      "duration": 0.1644,
      "velocity": 1,
      "chip": "ym2612"
    },
    {
      "channel": 2,
      "note": 17,
      "start": 210.2163,
      "duration": 0.1639,
      "velocity": 113,
      "chip": "ym2612"
    },
    {
      "channel": 3,
      "note": 62,
      "start": 210.217,
      "duration": 0.1471,
      "velocity": 118,
      "chip": "ym2612"
    },
    {
      "channel": 4,
      "note": 55,
      "start": 210.2183,
      "duration": 0.0968,
      "velocity": 127,
      "chip": "ym2612"
    },
    {
      "channel": 0,
      "note": 51,
      "start": 210.3795,
      "duration": 0.1649,
      "velocity": 81,
      "chip": "ym2612"
    },
    {
      "channel": 1,
      "note": 31,
      "start": 210.3801,
      "duration": 0.165,
      "velocity": 1,
      "chip": "ym2612"
    },
    {
      "channel": 2,
      "note": 19,
      "start": 210.3807,
      "duration": 0.165,
      "velocity": 113,
      "chip": "ym2612"
    },
    {
      "channel": 3,
      "note": 58,
      "start": 210.382,
      "duration": 0.1644,
      "velocity": 127,
      "chip": "ym2612"
    },
    {
      "channel": 4,
      "note": 55,
      "start": 210.3833,
      "duration": 0.0973,
      "velocity": 127,
      "chip": "ym2612"
    },
    {
      "channel": 0,
      "note": 50,
      "start": 210.545,
      "duration": 0.1649,
      "velocity": 80,
      "chip": "ym2612"
    },
    {
      "channel": 1,
      "note": 31,
      "start": 210.5456,
      "duration": 0.165,
      "velocity": 1,
      "chip": "ym2612"
    },
    {
      "channel": 2,
      "note": 19,
      "start": 210.5463,
      "duration": 0.165,
      "velocity": 113,
      "chip": "ym2612"
    },
    {
      "channel": 3,
      "note": 29,
      "start": 210.5475,
      "duration": 0.1644,
      "velocity": 1,
      "chip": "ym2612"
    },
    {
      "channel": 4,
      "note": 55,
      "start": 210.5488,
      "duration": 0.0974,
      "velocity": 127,
      "chip": "ym2612"
    },
    {
      "channel": 0,
      "note": 51,
      "start": 210.7105,
      "duration": 0.1649,
      "velocity": 81,
      "chip": "ym2612"
    },
    {
      "channel": 1,
      "note": 31,
      "start": 210.7111,
      "duration": 0.165,
      "velocity": 1,
      "chip": "ym2612"
    },
    {
      "channel": 2,
      "note": 19,
      "start": 210.7118,
      "duration": 0.1656,
      "velocity": 113,
      "chip": "ym2612"
    },
    {
      "channel": 3,
      "note": 62,
      "start": 210.7129,
      "duration": 0.1478,
      "velocity": 118,
      "chip": "ym2612"
    },
    {
      "channel": 4,
      "note": 55,
      "start": 210.7143,
      "duration": 0.0973,
      "velocity": 127,
      "chip": "ym2612"
    },
    {
      "channel": 0,
      "note": 53,
      "start": 210.876,
      "duration": 0.1649,
      "velocity": 82,
      "chip": "ym2612"
    },
    {
      "channel": 1,
      "note": 20,
      "start": 210.8772,
      "duration": 0.1482,
      "velocity": 127,
      "chip": "ym2612"
    },
    {
      "channel": 2,
      "note": 19,
      "start": 210.8784,
      "duration": 0.1644,
      "velocity": 1,
      "chip": "ym2612"
    },
    {
      "channel": 3,
      "note": 62,
      "start": 210.879,
      "duration": 0.1473,
      "velocity": 118,
      "chip": "ym2612"
    },
    {
      "channel": 4,
      "note": 55,
      "start": 210.8803,
      "duration": 0.0968,
      "velocity": 127,
      "chip": "ym2612"
    },
    {
      "channel": 0,
      "note": 55,
      "start": 211.0415,
      "duration": 0.1649,
      "velocity": 83,
      "chip": "ym2612"
    },
    {
      "channel": 1,
      "note": 31,
      "start": 211.0427,
      "duration": 0.1644,
      "velocity": 1,
      "chip": "ym2612"
    },
    {
      "channel": 2,
      "note": 19,
      "start": 211.044,
      "duration": 0.1639,
      "velocity": 113,
      "chip": "ym2612"
    },
    {
      "channel": 3,
      "note": 62,
      "start": 211.0446,
      "duration": 0.1471,
      "velocity": 118,
      "chip": "ym2612"
    },
    {
      "channel": 4,
      "note": 55,
      "start": 211.0459,
      "duration": 0.0968,
      "velocity": 127,
      "chip": "ym2612"
    },
    {
      "channel": 0,
      "note": 53,
      "start": 211.2071,
      "duration": 0.1649,
      "velocity": 84,
      "chip": "ym2612"
    },
    {
      "channel": 1,
      "note": 31,
      "start": 211.2077,
      "duration": 0.165,
      "velocity": 1,
      "chip": "ym2612"
    },
    {
      "channel": 2,
      "note": 19,
      "start": 211.2083,
      "duration": 0.1656,
      "velocity": 113,
      "chip": "ym2612"
    },
    {
      "channel": 3,
      "note": 58,
      "start": 211.2096,
      "duration": 0.1655,
      "velocity": 127,
      "chip": "ym2612"
    },
    {
      "channel": 4,
      "note": 55,
      "start": 211.2109,
      "duration": 0.0974,
      "velocity": 127,
      "chip": "ym2612"
    },
    {
      "channel": 0,
      "note": 51,
      "start": 211.3726,
      "duration": 0.1649,
      "velocity": 85,
      "chip": "ym2612"
    },
    {
      "channel": 1,
      "note": 20,
      "start": 211.3738,
      "duration": 0.1481,
      "velocity": 127,
      "chip": "ym2612"
    },
    {
      "channel": 2,
      "note": 19,
      "start": 211.375,
      "duration": 0.1644,
      "velocity": 1,
      "chip": "ym2612"
    },
    {
      "channel": 3,
      "note": 62,
      "start": 211.3762,
      "duration": 0.1466,
      "velocity": 118,
      "chip": "ym2612"
    },
    {
      "channel": 4,
      "note": 55,
      "start": 211.3775,
      "duration": 0.0963,
      "velocity": 127,
      "chip": "ym2612"
    },
    {
      "channel": 0,
      "note": 50,
      "start": 211.5381,
      "duration": 0.1649,
      "velocity": 86,
      "chip": "ym2612"
    },
    {
      "channel": 1,
      "note": 31,
      "start": 211.5393,
      "duration": 0.1645,
      "velocity": 1,
      "chip": "ym2612"
    },
    {
      "channel": 2,
      "note": 19,
      "start": 211.5405,
      "duration": 0.1639,
      "velocity": 113,
      "chip": "ym2612"
    },
    {
      "channel": 3,
      "note": 62,
      "start": 211.5412,
      "duration": 0.1472,
      "velocity": 118,
      "chip": "ym2612"
    },
    {
      "channel": 4,
      "note": 55,
      "start": 211.5424,
      "duration": 0.0968,
      "velocity": 127,
      "chip": "ym2612"
    },
    {
      "channel": 0,
      "note": 48,
      "start": 211.7037,
      "duration": 0.1648,
      "velocity": 87,
      "chip": "ym2612"
    },
    {
      "channel": 1,
      "note": 31,
      "start": 211.7043,
      "duration": 0.165,
      "velocity": 1,
      "chip": "ym2612"
    },
    {
      "channel": 2,
      "note": 19,
      "start": 211.705,
      "duration": 0.165,
      "velocity": 113,
      "chip": "ym2612"
    },
    {
      "channel": 3,
      "note": 62,
      "start": 211.7055,
      "duration": 0.1483,
      "velocity": 118,
      "chip": "ym2612"
    },
    {
      "channel": 4,
      "note": 55,
      "start": 211.7069,
      "duration": 0.0979,
      "velocity": 127,
      "chip": "ym2612"
    },
    {
      "channel": 0,
      "note": 50,
      "start": 211.8692,
      "duration": 0.1649,
      "velocity": 85,
      "chip": "ym2612"
    },
    {
      "channel": 1,
      "note": 31,
      "start": 211.8698,
      "duration": 0.1651,
      "velocity": 1,
      "chip": "ym2612"
    },
    {
      "channel": 2,
      "note": 19,
      "start": 211.8705,
      "duration": 0.165,
      "velocity": 113,
      "chip": "ym2612"
    },
    {
      "channel": 3,
      "note": 29,
      "start": 211.8718,
      "duration": 0.1643,
      "velocity": 1,
      "chip": "ym2612"
    },
    {
      "channel": 4,
      "note": 55,
      "start": 211.8724,
      "duration": 0.0979,
      "velocity": 127,
      "chip": "ym2612"
    },
    {
      "channel": 5,
      "note": 53,
      "start": 211.8731,
      "duration": 0.0978,
      "velocity": 1,
      "chip": "ym2612"
    },
    {
      "channel": 0,
      "note": 51,
      "start": 212.0347,
      "duration": 0.1649,
      "velocity": 87,
      "chip": "ym2612"
    },
    {
      "channel": 1,
      "note": 31,
      "start": 212.0353,
      "duration": 0.165,
      "velocity": 1,
      "chip": "ym2612"
    },
    {
      "channel": 2,
      "note": 19,
      "start": 212.0359,
      "duration": 0.1656,
      "velocity": 113,
      "chip": "ym2612"
    },
    {
      "channel": 3,
      "note": 62,
      "start": 212.0372,
      "duration": 0.1478,
      "velocity": 118,
      "chip": "ym2612"
    },
    {
      "channel": 4,
      "note": 55,
      "start": 212.0385,
      "duration": 0.0973,
      "velocity": 127,
      "chip": "ym2612"
    },
    {
      "channel": 0,
      "note": 53,
      "start": 212.2002,
      "duration": 0.1649,
      "velocity": 86,
      "chip": "ym2612"
    },
    {
      "channel": 1,
      "note": 20,
      "start": 212.2014,
      "duration": 0.1481,
      "velocity": 127,
      "chip": "ym2612"
    },
    {
      "channel": 2,
      "note": 19,
      "start": 212.2026,
      "duration": 0.1644,
      "velocity": 1,
      "chip": "ym2612"
    },
    {
      "channel": 3,
      "note": 62,
      "start": 212.2032,
      "duration": 0.1472,
      "velocity": 118,
      "chip": "ym2612"
    },
    {
      "channel": 4,
      "note": 55,
      "start": 212.2046,
      "duration": 0.0968,
      "velocity": 127,
      "chip": "ym2612"
    },
    {
      "channel": 0,
      "note": 55,
      "start": 212.3657,
      "duration": 0.1649,
      "velocity": 85,
      "chip": "ym2612"
    },
    {
      "channel": 1,
      "note": 31,
      "start": 212.3669,
      "duration": 0.1645,
      "velocity": 1,
      "chip": "ym2612"
    },
    {
      "channel": 2,
      "note": 19,
      "start": 212.3681,
      "duration": 0.1639,
      "velocity": 113,
      "chip": "ym2612"
    },
    {
      "channel": 3,
      "note": 62,
      "start": 212.3688,
      "duration": 0.1472,
      "velocity": 118,
      "chip": "ym2612"
    },
    {
      "channel": 4,
      "note": 55,
      "start": 212.37,
      "duration": 0.0968,
      "velocity": 127,
      "chip": "ym2612"
    },
    {
      "channel": 0,
      "note": 53,
      "start": 212.5312,
      "duration": 0.1649,
      "velocity": 84,
      "chip": "ym2612"
    },
    {
      "channel": 1,
      "note": 31,
      "start": 212.5319,
      "duration": 0.165,
      "velocity": 1,
      "chip": "ym2612"
    },
    {
      "channel": 2,
      "note": 19,
      "start": 212.5325,
      "duration": 0.1656,
      "velocity": 113,
      "chip": "ym2612"
    },
    {
      "channel": 3,
      "note": 58,
      "start": 212.5338,
      "duration": 0.1655,
      "velocity": 127,
      "chip": "ym2612"
    },
    {
      "channel": 4,
      "note": 55,
      "start": 212.5351,
      "duration": 0.0973,
      "velocity": 127,
      "chip": "ym2612"
    },
    {
      "channel": 0,
      "note": 51,
      "start": 212.6968,
      "duration": 0.1649,
      "velocity": 83,
      "chip": "ym2612"
    },
    {
      "channel": 1,
      "note": 20,
      "start": 212.698,
      "duration": 0.1481,
      "velocity": 127,
      "chip": "ym2612"
    },
    {
      "channel": 2,
      "note": 19,
      "start": 212.6992,
      "duration": 0.1644,
      "velocity": 1,
      "chip": "ym2612"
    },
    {
      "channel": 3,
      "note": 62,
      "start": 212.7004,
      "duration": 0.1466,
      "velocity": 118,
      "chip": "ym2612"
    },
    {
      "channel": 4,
      "note": 55,
      "start": 212.7017,
      "duration": 0.0963,
      "velocity": 127,
      "chip": "ym2612"
    },
    {
      "channel": 0,
      "note": 50,
      "start": 212.8623,
      "duration": 0.1649,
      "velocity": 82,
      "chip": "ym2612"
    },
    {
      "channel": 1,
      "note": 31,
      "start": 212.8635,
      "duration": 0.1645,
      "velocity": 1,
      "chip": "ym2612"
    },
    {
      "channel": 2,
      "note": 17,
      "start": 212.8647,
      "duration": 0.1639,
      "velocity": 113,
      "chip": "ym2612"
    },
    {
      "channel": 3,
      "note": 62,
      "start": 212.8653,
      "duration": 0.1472,
      "velocity": 118,
      "chip": "ym2612"
    },
    {
      "channel": 4,
      "note": 55,
      "start": 212.8667,
      "duration": 0.0968,
      "velocity": 127,
      "chip": "ym2612"
    },
    {
      "channel": 0,
      "note": 51,
      "start": 213.0278,
      "duration": 0.1649,
      "velocity": 81,
      "chip": "ym2612"
    },
    {
      "channel": 1,
      "note": 31,
      "start": 213.0284,
      "duration": 0.1651,
      "velocity": 1,
      "chip": "ym2612"
    },
    {
      "channel": 2,
      "note": 19,
      "start": 213.0291,
      "duration": 0.1651,
      "velocity": 113,
      "chip": "ym2612"
    },
    {
      "channel": 3,
      "note": 58,
      "start": 213.0303,
      "duration": 0.1644,
      "velocity": 127,
      "chip": "ym2612"
    },
    {
      "channel": 4,
      "note": 55,
      "start": 213.0317,
      "duration": 0.0973,
      "velocity": 127,
      "chip": "ym2612"
    },
    {
      "channel": 0,
      "note": 50,
      "start": 213.1933,
      "duration": 0.1649,
      "velocity": 80,
      "chip": "ym2612"
    },
    {
      "channel": 1,
      "note": 31,
      "start": 213.194,
      "duration": 0.1651,
      "velocity": 1,
      "chip": "ym2612"
    },
    {
      "channel": 2,
      "note": 19,
      "start": 213.1946,
      "duration": 0.1651,
      "velocity": 113,
      "chip": "ym2612"
    },
    {
      "channel": 3,
      "note": 29,
      "start": 213.1959,
      "duration": 0.1644,
      "velocity": 1,
      "chip": "ym2612"
    },
    {
      "channel": 4,
      "note": 55,
      "start": 213.1971,
      "duration": 0.0974,
      "velocity": 127,
      "chip": "ym2612"
    },
    {
      "channel": 0,
      "note": 51,
      "start": 213.3588,
      "duration": 0.1649,
      "velocity": 81,
      "chip": "ym2612"
    },
    {
      "channel": 1,
      "note": 31,
      "start": 213.3595,
      "duration": 0.1651,
      "velocity": 1,
      "chip": "ym2612"
    },
    {
      "channel": 2,
      "note": 19,
      "start": 213.3601,
      "duration": 0.1656,
      "velocity": 113,
      "chip": "ym2612"
    },
    {
      "channel": 3,
      "note": 62,
      "start": 213.3613,
      "duration": 0.1478,
      "velocity": 118,
      "chip": "ym2612"
    },
    {
      "channel": 4,
      "note": 55,
      "start": 213.3626,
      "duration": 0.0974,
      "velocity": 127,
      "chip": "ym2612"
    },
    {
      "channel": 0,
      "note": 53,
      "start": 213.5244,
      "duration": 0.1649,
      "velocity": 82,
      "chip": "ym2612"
    },
    {
      "channel": 1,
      "note": 20,
      "start": 213.5256,
      "duration": 0.1481,
      "velocity": 127,
      "chip": "ym2612"
    },
    {
      "channel": 2,
      "note": 19,
      "start": 213.5268,
      "duration": 0.1644,
      "velocity": 1,
      "chip": "ym2612"
    },
    {
      "channel": 3,
      "note": 62,
      "start": 213.5274,
      "duration": 0.1473,
      "velocity": 118,
      "chip": "ym2612"
    },
    {
      "channel": 4,
      "note": 55,
      "start": 213.5288,
      "duration": 0.0968,
      "velocity": 127,
      "chip": "ym2612"
    },
    {
      "channel": 0,
      "note": 55,
      "start": 213.69,
      "duration": 0.1649,
      "velocity": 83,
      "chip": "ym2612"
    },
    {
      "channel": 1,
      "note": 31,
      "start": 213.6912,
      "duration": 0.1644,
      "velocity": 1,
      "chip": "ym2612"
    },
    {
      "channel": 2,
      "note": 19,
      "start": 213.6924,
      "duration": 0.1639,
      "velocity": 113,
      "chip": "ym2612"
    },
    {
      "channel": 3,
      "note": 62,
      "start": 213.693,
      "duration": 0.1471,
      "velocity": 118,
      "chip": "ym2612"
    },
    {
      "channel": 4,
      "note": 55,
      "start": 213.6943,
      "duration": 0.0968,
      "velocity": 127,
      "chip": "ym2612"
    },
    {
      "channel": 0,
      "note": 53,
      "start": 213.8555,
      "duration": 0.165,
      "velocity": 84,
      "chip": "ym2612"
    },
    {
      "channel": 1,
      "note": 31,
      "start": 213.8561,
      "duration": 0.165,
      "velocity": 1,
      "chip": "ym2612"
    },
    {
      "channel": 2,
      "note": 19,
      "start": 213.8568,
      "duration": 0.1656,
      "velocity": 113,
      "chip": "ym2612"
    },
    {
      "channel": 3,
      "note": 58,
      "start": 213.858,
      "duration": 0.1656,
      "velocity": 127,
      "chip": "ym2612"
    },
    {
      "channel": 4,
      "note": 55,
      "start": 213.8593,
      "duration": 0.0974,
      "velocity": 127,
      "chip": "ym2612"
    },
    {
      "channel": 0,
      "note": 51,
      "start": 214.021,
      "duration": 0.1649,
      "velocity": 85,
      "chip": "ym2612"
    },
    {
      "channel": 1,
      "note": 20,
      "start": 214.0222,
      "duration": 0.1481,
      "velocity": 127,
      "chip": "ym2612"
    },
    {
      "channel": 2,
      "note": 19,
      "start": 214.0234,
      "duration": 0.1645,
      "velocity": 1,
      "chip": "ym2612"
    },
    {
      "channel": 3,
      "note": 62,
      "start": 214.0246,
      "duration": 0.1467,
      "velocity": 118,
      "chip": "ym2612"
    },
    {
      "channel": 4,
      "note": 55,
      "start": 214.026,
      "duration": 0.0962,
      "velocity": 127,
      "chip": "ym2612"
    },
    {
      "channel": 0,
      "note": 50,
      "start": 214.1865,
      "duration": 0.1649,
      "velocity": 86,
      "chip": "ym2612"
    },
    {
      "channel": 1,
      "note": 31,
      "start": 214.1878,
      "duration": 0.1644,
      "velocity": 1,
      "chip": "ym2612"
    },
    {
      "channel": 2,
      "note": 19,
      "start": 214.189,
      "duration": 0.1638,
      "velocity": 113,
      "chip": "ym2612"
    },
    {
      "channel": 3,
      "note": 62,
      "start": 214.1896,
      "duration": 0.1471,
      "velocity": 118,
      "chip": "ym2612"
    },
    {
      "channel": 4,
      "note": 55,
      "start": 214.1909,
      "duration": 0.0968,
      "velocity": 127,
      "chip": "ym2612"
    },
    {
      "channel": 0,
      "note": 48,
      "start": 214.352,
      "duration": 0.1649,
      "velocity": 87,
      "chip": "ym2612"
    },
    {
      "channel": 1,
      "note": 31,
      "start": 214.3527,
      "duration": 0.1651,
      "velocity": 1,
      "chip": "ym2612"
    },
    {
      "channel": 2,
      "note": 19,
      "start": 214.3533,
      "duration": 0.1651,
      "velocity": 113,
      "chip": "ym2612"
    },
    {
      "channel": 3,
      "note": 62,
      "start": 214.3539,
      "duration": 0.1483,
      "velocity": 118,
      "chip": "ym2612"
    },
    {
      "channel": 4,
      "note": 55,
      "start": 214.3552,
      "duration": 0.098,
      "velocity": 127,
      "chip": "ym2612"
    },
    {
      "channel": 0,
      "note": 50,
      "start": 214.5176,
      "duration": 0.1649,
      "velocity": 85,
      "chip": "ym2612"
    },
    {
      "channel": 1,
      "note": 31,
      "start": 214.5182,
      "duration": 0.1651,
      "velocity": 1,
      "chip": "ym2612"
    },
    {
      "channel": 2,
      "note": 19,
      "start": 214.5188,
      "duration": 0.1651,
      "velocity": 113,
      "chip": "ym2612"
    },
    {
      "channel": 3,
      "note": 29,
      "start": 214.5201,
      "duration": 0.1644,
      "velocity": 1,
      "chip": "ym2612"
    },
    {
      "channel": 4,
      "note": 55,
      "start": 214.5209,
      "duration": 0.0979,
      "velocity": 127,
      "chip": "ym2612"
    },
    {
      "channel": 5,
      "note": 53,
      "start": 214.5215,
      "duration": 0.0977,
      "velocity": 1,
      "chip": "ym2612"
    },
    {
      "channel": 0,
      "note": 51,
      "start": 214.6831,
      "duration": 0.1649,
      "velocity": 87,
      "chip": "ym2612"
    },
    {
      "channel": 1,
      "note": 31,
      "start": 214.6837,
      "duration": 0.165,
      "velocity": 1,
      "chip": "ym2612"
    },
    {
      "channel": 2,
      "note": 19,
      "start": 214.6844,
      "duration": 0.1656,
      "velocity": 113,
      "chip": "ym2612"
    },
    {
      "channel": 3,
      "note": 62,
      "start": 214.6856,
      "duration": 0.1477,
      "velocity": 118,
      "chip": "ym2612"
    },
    {
      "channel": 4,
      "note": 55,
      "start": 214.6868,
      "duration": 0.0974,
      "velocity": 127,
      "chip": "ym2612"
    },
    {
      "channel": 0,
      "note": 53,
      "start": 214.8486,
      "duration": 0.1649,
      "velocity": 86,
      "chip": "ym2612"
    },
    {
      "channel": 1,
      "note": 20,
      "start": 214.8498,
      "duration": 0.1481,
      "velocity": 127,
      "chip": "ym2612"
    },
    {
      "channel": 2,
      "note": 19,
      "start": 214.851,
      "duration": 0.1644,
      "velocity": 1,
      "chip": "ym2612"
    },
    {
      "channel": 3,
      "note": 62,
      "start": 214.8517,
      "duration": 0.1472,
      "velocity": 118,
      "chip": "ym2612"
    },
    {
      "channel": 4,
      "note": 55,
      "start": 214.8529,
      "duration": 0.0968,
      "velocity": 127,
      "chip": "ym2612"
    },
    {
      "channel": 0,
      "note": 55,
      "start": 215.0141,
      "duration": 0.1649,
      "velocity": 85,
      "chip": "ym2612"
    },
    {
      "channel": 1,
      "note": 31,
      "start": 215.0153,
      "duration": 0.1645,
      "velocity": 1,
      "chip": "ym2612"
    },
    {
      "channel": 2,
      "note": 19,
      "start": 215.0166,
      "duration": 0.1639,
      "velocity": 113,
      "chip": "ym2612"
    },
    {
      "channel": 3,
      "note": 62,
      "start": 215.0172,
      "duration": 0.1472,
      "velocity": 118,
      "chip": "ym2612"
    },
    {
      "channel": 4,
      "note": 55,
      "start": 215.0185,
      "duration": 0.0968,
      "velocity": 127,
      "chip": "ym2612"
    },
    {
      "channel": 0,
      "note": 53,
      "start": 215.1796,
      "duration": 0.1649,
      "velocity": 84,
      "chip": "ym2612"
    },
    {
      "channel": 1,
      "note": 31,
      "start": 215.1803,
      "duration": 0.165,
      "velocity": 1,
      "chip": "ym2612"
    },
    {
      "channel": 2,
      "note": 19,
      "start": 215.1809,
      "duration": 0.1656,
      "velocity": 113,
      "chip": "ym2612"
    },
    {
      "channel": 3,
      "note": 58,
      "start": 215.1822,
      "duration": 0.1655,
      "velocity": 127,
      "chip": "ym2612"
    },
    {
      "channel": 4,
      "note": 55,
      "start": 215.1835,
      "duration": 0.0974,
      "velocity": 127,
      "chip": "ym2612"
    },
    {
      "channel": 0,
      "note": 51,
      "start": 215.3452,
      "duration": 0.1649,
      "velocity": 83,
      "chip": "ym2612"
    },
    {
      "channel": 1,
      "note": 20,
      "start": 215.3464,
      "duration": 0.1481,
      "velocity": 127,
      "chip": "ym2612"
    },
    {
      "channel": 2,
      "note": 19,
      "start": 215.3476,
      "duration": 0.1644,
      "velocity": 1,
      "chip": "ym2612"
    },
    {
      "channel": 3,
      "note": 62,
      "start": 215.3488,
      "duration": 0.1466,
      "velocity": 118,
      "chip": "ym2612"
    },
    {
      "channel": 4,
      "note": 55,
      "start": 215.3501,
      "duration": 0.0962,
      "velocity": 127,
      "chip": "ym2612"
    },
    {
      "channel": 0,
      "note": 50,
      "start": 215.5107,
      "duration": 0.1649,
      "velocity": 82,
      "chip": "ym2612"
    },
    {
      "channel": 1,
      "note": 31,
      "start": 215.5119,
      "duration": 0.1645,
      "velocity": 1,
      "chip": "ym2612"
    },
    {
      "channel": 2,
      "note": 17,
      "start": 215.5131,
      "duration": 0.1639,
      "velocity": 113,
      "chip": "ym2612"
    },
    {
      "channel": 3,
      "note": 62,
      "start": 215.5137,
      "duration": 0.1472,
      "velocity": 118,
      "chip": "ym2612"
    },
    {
      "channel": 4,
      "note": 55,
      "start": 215.515,
      "duration": 0.0968,
      "velocity": 127,
      "chip": "ym2612"
    },
    {
      "channel": 0,
      "note": 51,
      "start": 215.6762,
      "duration": 0.1649,
      "velocity": 81,
      "chip": "ym2612"
    },
    {
      "channel": 1,
      "note": 31,
      "start": 215.6768,
      "duration": 0.1651,
      "velocity": 1,
      "chip": "ym2612"
    },
    {
      "channel": 2,
      "note": 19,
      "start": 215.6775,
      "duration": 0.1651,
      "velocity": 113,
      "chip": "ym2612"
    },
    {
      "channel": 3,
      "note": 58,
      "start": 215.6788,
      "duration": 0.1644,
      "velocity": 127,
      "chip": "ym2612"
    },
    {
      "channel": 4,
      "note": 55,
      "start": 215.6801,
      "duration": 0.0973,
      "velocity": 127,
      "chip": "ym2612"
    },
    {
      "channel": 0,
      "note": 50,
      "start": 215.8417,
      "duration": 0.1649,
      "velocity": 80,
      "chip": "ym2612"
    },
    {
      "channel": 1,
      "note": 31,
      "start": 215.8424,
      "duration": 0.1651,
      "velocity": 1,
      "chip": "ym2612"
    },
    {
      "channel": 2,
      "note": 19,
      "start": 215.843,
      "duration": 0.1651,
      "velocity": 113,
      "chip": "ym2612"
    },
    {
      "channel": 3,
      "note": 29,
      "start": 215.8443,
      "duration": 0.1644,
      "velocity": 1,
      "chip": "ym2612"
    },
    {
      "channel": 4,
      "note": 55,
      "start": 215.8456,
      "duration": 0.0974,
      "velocity": 127,
      "chip": "ym2612"
    },
    {
      "channel": 0,
      "note": 51,
      "start": 216.0073,
      "duration": 0.1649,
      "velocity": 81,
      "chip": "ym2612"
    },
    {
      "channel": 1,
      "note": 31,
      "start": 216.0079,
      "duration": 0.165,
      "velocity": 1,
      "chip": "ym2612"
    },
    {
      "channel": 2,
      "note": 19,
      "start": 216.0085,
      "duration": 0.1656,
      "velocity": 113,
      "chip": "ym2612"
    },
    {
      "channel": 3,
      "note": 62,
      "start": 216.0097,
      "duration": 0.1478,
      "velocity": 118,
      "chip": "ym2612"
    },
    {
      "channel": 4,
      "note": 55,
      "start": 216.011,
      "duration": 0.0974,
      "velocity": 127,
      "chip": "ym2612"
    },
    {
      "channel": 0,
      "note": 53,
      "start": 216.1728,
      "duration": 0.1649,
      "velocity": 82,
      "chip": "ym2612"
    },
    {
      "channel": 1,
      "note": 20,
      "start": 216.174,
      "duration": 0.1481,
      "velocity": 127,
      "chip": "ym2612"
    },
    {
      "channel": 2,
      "note": 19,
      "start": 216.1752,
      "duration": 0.1645,
      "velocity": 1,
      "chip": "ym2612"
    },
    {
      "channel": 3,
      "note": 62,
      "start": 216.1758,
      "duration": 0.1472,
      "velocity": 118,
      "chip": "ym2612"
    },
    {
      "channel": 4,
      "note": 55,
      "start": 216.1771,
      "duration": 0.0968,
      "velocity": 127,
      "chip": "ym2612"
    },
    {
      "channel": 0,
      "note": 55,
      "start": 216.3383,
      "duration": 0.1649,
      "velocity": 83,
      "chip": "ym2612"
    },
    {
      "channel": 1,
      "note": 31,
      "start": 216.3396,
      "duration": 0.1645,
      "velocity": 1,
      "chip": "ym2612"
    },
    {
      "channel": 2,
      "note": 19,
      "start": 216.3408,
      "duration": 0.1639,
      "velocity": 113,
      "chip": "ym2612"
    },
    {
      "channel": 3,
      "note": 62,
      "start": 216.3414,
      "duration": 0.1472,
      "velocity": 118,
      "chip": "ym2612"
    },
    {
      "channel": 4,
      "note": 55,
      "start": 216.3427,
      "duration": 0.0968,
      "velocity": 127,
      "chip": "ym2612"
    },
    {
      "channel": 0,
      "note": 53,
      "start": 216.5039,
      "duration": 0.1649,
      "velocity": 84,
      "chip": "ym2612"
    },
    {
      "channel": 1,
      "note": 31,
      "start": 216.5045,
      "duration": 0.165,
      "velocity": 1,
      "chip": "ym2612"
    },
    {
      "channel": 2,
      "note": 19,
      "start": 216.5051,
      "duration": 0.1656,
      "velocity": 113,
      "chip": "ym2612"
    },
    {
      "channel": 3,
      "note": 58,
      "start": 216.5064,
      "duration": 0.1656,
      "velocity": 127,
      "chip": "ym2612"
    },
    {
      "channel": 4,
      "note": 55,
      "start": 216.5078,
      "duration": 0.0973,
      "velocity": 127,
      "chip": "ym2612"
    },
    {
      "channel": 0,
      "note": 51,
      "start": 216.6694,
      "duration": 0.1649,
      "velocity": 85,
      "chip": "ym2612"
    },
    {
      "channel": 1,
      "note": 20,
      "start": 216.6706,
      "duration": 0.1481,
      "velocity": 127,
      "chip": "ym2612"
    },
    {
      "channel": 2,
      "note": 19,
      "start": 216.6718,
      "duration": 0.1644,
      "velocity": 1,
      "chip": "ym2612"
    },
    {
      "channel": 3,
      "note": 62,
      "start": 216.673,
      "duration": 0.1466,
      "velocity": 118,
      "chip": "ym2612"
    },
    {
      "channel": 4,
      "note": 55,
      "start": 216.6744,
      "duration": 0.0962,
      "velocity": 127,
      "chip": "ym2612"
    },
    {
      "channel": 0,
      "note": 50,
      "start": 216.8349,
      "duration": 0.1649,
      "velocity": 86,
      "chip": "ym2612"
    },
    {
      "channel": 1,
      "note": 31,
      "start": 216.8361,
      "duration": 0.1644,
      "velocity": 1,
      "chip": "ym2612"
    },
    {
      "channel": 2,
      "note": 19,
      "start": 216.8374,
      "duration": 0.1638,
      "velocity": 113,
      "chip": "ym2612"
    },
    {
      "channel": 3,
      "note": 62,
      "start": 216.838,
      "duration": 0.1471,
      "velocity": 118,
      "chip": "ym2612"
    },
    {
      "channel": 4,
      "note": 55,
      "start": 216.8393,
      "duration": 0.0967,
      "velocity": 127,
      "chip": "ym2612"
    },
    {
      "channel": 0,
      "note": 48,
      "start": 217.0005,
      "duration": 0.1649,
      "velocity": 87,
      "chip": "ym2612"
    },
    {
      "channel": 1,
      "note": 31,
      "start": 217.0011,
      "duration": 0.165,
      "velocity": 1,
      "chip": "ym2612"
    },
    {
      "channel": 2,
      "note": 19,
      "start": 217.0017,
      "duration": 0.165,
      "velocity": 113,
      "chip": "ym2612"
    },
    {
      "channel": 3,
      "note": 62,
      "start": 217.0023,
      "duration": 0.1483,
      "velocity": 118,
      "chip": "ym2612"
    },
    {
      "channel": 4,
      "note": 55,
      "start": 217.0036,
      "duration": 0.0979,
      "velocity": 127,
      "chip": "ym2612"
    },
    {
      "channel": 0,
      "note": 50,
      "start": 217.166,
      "duration": 0.1649,
      "velocity": 85,
      "chip": "ym2612"
    },
    {
      "channel": 1,
      "note": 31,
      "start": 217.1666,
      "duration": 0.165,
      "velocity": 1,
      "chip": "ym2612"
    },
    {
      "channel": 2,
      "note": 19,
      "start": 217.1672,
      "duration": 0.165,
      "velocity": 113,
      "chip": "ym2612"
    },
    {
      "channel": 3,
      "note": 53,
      "start": 217.1685,
      "duration": 0.0981,
      "velocity": 1,
      "chip": "ym2612"
    },
    {
      "channel": 4,
      "note": 55,
      "start": 217.1697,
      "duration": 0.0974,
      "velocity": 1,
      "chip": "ym2612"
    },
    {
      "channel": 5,
      "note": 53,
      "start": 217.1704,
      "duration": 0.0972,
      "velocity": 1,
      "chip": "ym2612"
    },
    {
      "channel": 0,
      "note": 49,
      "start": 217.3315,
      "duration": 0.1649,
      "velocity": 87,
      "chip": "ym2612"
    },
    {
      "channel": 1,
      "note": 29,
      "start": 217.3321,
      "duration": 0.165,
      "velocity": 1,
      "chip": "ym2612"
    },
    {
      "channel": 2,
      "note": 17,
      "start": 217.3328,
      "duration": 0.1656,
      "velocity": 113,
      "chip": "ym2612"
    },
    {
      "channel": 0,
      "note": 51,
      "start": 217.497,
      "duration": 0.1649,
      "velocity": 86,
      "chip": "ym2612"
    },
    {
      "channel": 1,
      "note": 18,
      "start": 217.4982,
      "duration": 0.1481,
      "velocity": 127,
      "chip": "ym2612"
    },
    {
      "channel": 2,
      "note": 17,
      "start": 217.4994,
      "duration": 0.1644,
      "velocity": 1,
      "chip": "ym2612"
    },
    {
      "channel": 0,
      "note": 53,
      "start": 217.6625,
      "duration": 0.1649,
      "velocity": 85,
      "chip": "ym2612"
    },
    {
      "channel": 1,
      "note": 29,
      "start": 217.6637,
      "duration": 0.1645,
      "velocity": 1,
      "chip": "ym2612"
    },
    {
      "channel": 2,
      "note": 17,
      "start": 217.6649,
      "duration": 0.1639,
      "velocity": 113,
      "chip": "ym2612"
    },
    {
      "channel": 0,
      "note": 51,
      "start": 217.828,
      "duration": 0.1649,
      "velocity": 84,
      "chip": "ym2612"
    },
    {
      "channel": 1,
      "note": 29,
      "start": 217.8287,
      "duration": 0.165,
      "velocity": 1,
      "chip": "ym2612"
    },
    {
      "channel": 2,
      "note": 17,
      "start": 217.8293,
      "duration": 0.1656,
      "velocity": 113,
      "chip": "ym2612"
    },
    {
      "channel": 0,
      "note": 49,
      "start": 217.9936,
      "duration": 0.1649,
      "velocity": 83,
      "chip": "ym2612"
    },
    {
      "channel": 1,
      "note": 18,
      "start": 217.9948,
      "duration": 0.1481,
      "velocity": 127,
      "chip": "ym2612"
    },
    {
      "channel": 2,
      "note": 17,
      "start": 217.996,
      "duration": 0.1644,
      "velocity": 1,
      "chip": "ym2612"
    },
    {
      "channel": 0,
      "note": 48,
      "start": 218.1591,
      "duration": 0.1649,
      "velocity": 82,
      "chip": "ym2612"
    },
    {
      "channel": 1,
      "note": 29,
      "start": 218.1603,
      "duration": 0.1645,
      "velocity": 1,
      "chip": "ym2612"
    },
    {
      "channel": 2,
      "note": 15,
      "start": 218.1615,
      "duration": 0.1639,
      "velocity": 113,
      "chip": "ym2612"
    },
    {
      "channel": 0,
      "note": 49,
      "start": 218.3246,
      "duration": 0.1649,
      "velocity": 81,
      "chip": "ym2612"
    },
    {
      "channel": 1,
      "note": 29,
      "start": 218.3253,
      "duration": 0.1651,
      "velocity": 1,
      "chip": "ym2612"
    },
    {
      "channel": 2,
      "note": 17,
      "start": 218.3259,
      "duration": 0.1651,
      "velocity": 113,
      "chip": "ym2612"
    },
    {
      "channel": 0,
      "note": 48,
      "start": 218.4901,
      "duration": 0.1649,
      "velocity": 80,
      "chip": "ym2612"
    },
    {
      "channel": 1,
      "note": 29,
      "start": 218.4908,
      "duration": 0.1651,
      "velocity": 1,
      "chip": "ym2612"
    },
    {
      "channel": 2,
      "note": 17,
      "start": 218.4914,
      "duration": 0.1651,
      "velocity": 113,
      "chip": "ym2612"
    },
    {
      "channel": 0,
      "note": 49,
      "start": 218.6557,
      "duration": 0.1649,
      "velocity": 81,
      "chip": "ym2612"
    },
    {
      "channel": 1,
      "note": 29,
      "start": 218.6563,
      "duration": 0.1651,
      "velocity": 1,
      "chip": "ym2612"
    },
    {
      "channel": 2,
      "note": 17,
      "start": 218.6569,
      "duration": 0.1656,
      "velocity": 113,
      "chip": "ym2612"
    },
    {
      "channel": 0,
      "note": 51,
      "start": 218.8212,
      "duration": 0.1648,
      "velocity": 82,
      "chip": "ym2612"
    },
    {
      "channel": 1,
      "note": 18,
      "start": 218.8224,
      "duration": 0.1481,
      "velocity": 127,
      "chip": "ym2612"
    },
    {
      "channel": 2,
      "note": 17,
      "start": 218.8237,
      "duration": 0.1644,
      "velocity": 1,
      "chip": "ym2612"
    },
    {
      "channel": 0,
      "note": 53,
      "start": 218.9867,
      "duration": 0.1649,
      "velocity": 83,
      "chip": "ym2612"
    },
    {
      "channel": 1,
      "note": 29,
      "start": 218.988,
      "duration": 0.1644,
      "velocity": 1,
      "chip": "ym2612"
    },
    {
      "channel": 2,
      "note": 17,
      "start": 218.9892,
      "duration": 0.1639,
      "velocity": 113,
      "chip": "ym2612"
    },
    {
      "channel": 0,
      "note": 51,
      "start": 219.1522,
      "duration": 0.165,
      "velocity": 84,
      "chip": "ym2612"
    },
    {
      "channel": 1,
      "note": 29,
      "start": 219.1529,
      "duration": 0.165,
      "velocity": 1,
      "chip": "ym2612"
    },
    {
      "channel": 2,
      "note": 17,
      "start": 219.1535,
      "duration": 0.1656,
      "velocity": 113,
      "chip": "ym2612"
    },
    {
      "channel": 0,
      "note": 49,
      "start": 219.3178,
      "duration": 0.1649,
      "velocity": 85,
      "chip": "ym2612"
    },
    {
      "channel": 1,
      "note": 18,
      "start": 219.319,
      "duration": 0.1481,
      "velocity": 127,
      "chip": "ym2612"
    },
    {
      "channel": 2,
      "note": 17,
      "start": 219.3202,
      "duration": 0.1644,
      "velocity": 1,
      "chip": "ym2612"
    },
    {
      "channel": 0,
      "note": 48,
      "start": 219.4833,
      "duration": 0.165,
      "velocity": 86,
      "chip": "ym2612"
    },
    {
      "channel": 1,
      "note": 29,
      "start": 219.4845,
      "duration": 0.1645,
      "velocity": 1,
      "chip": "ym2612"
    },
    {
      "channel": 2,
      "note": 17,
      "start": 219.4857,
      "duration": 0.1639,
      "velocity": 113,
      "chip": "ym2612"
    },
    {
      "channel": 0,
      "note": 46,
      "start": 219.6489,
      "duration": 0.1649,
      "velocity": 87,
      "chip": "ym2612"
    },
    {
      "channel": 1,
      "note": 29,
      "start": 219.6495,
      "duration": 0.165,
      "velocity": 1,
      "chip": "ym2612"
    },
    {
      "channel": 2,
      "note": 17,
      "start": 219.6501,
      "duration": 0.165,
      "velocity": 113,
      "chip": "ym2612"
    },
    {
      "channel": 0,
      "note": 48,
      "start": 219.8144,
      "duration": 0.1649,
      "velocity": 85,
      "chip": "ym2612"
    },
    {
      "channel": 1,
      "note": 29,
      "start": 219.815,
      "duration": 0.165,
      "velocity": 1,
      "chip": "ym2612"
    },
    {
      "channel": 2,
      "note": 17,
      "start": 219.8156,
      "duration": 0.165,
      "velocity": 113,
      "chip": "ym2612"
    },
    {
      "channel": 3,
      "note": 53,
      "start": 219.8163,
      "duration": 0.0986,
      "velocity": 1,
      "chip": "ym2612"
    },
    {
      "channel": 4,
      "note": 53,
      "start": 219.8169,
      "duration": 0.0985,
      "velocity": 1,
      "chip": "ym2612"
    },
    {
      "channel": 5,
      "note": 53,
      "start": 219.8176,
      "duration": 0.0984,
      "velocity": 1,
      "chip": "ym2612"
    },
    {
      "channel": 0,
      "note": 49,
      "start": 219.9799,
      "duration": 0.1649,
      "velocity": 87,
      "chip": "ym2612"
    },
    {
      "channel": 1,
      "note": 29,
      "start": 219.9805,
      "duration": 0.165,
      "velocity": 1,
      "chip": "ym2612"
    },
    {
      "channel": 2,
      "note": 17,
      "start": 219.9812,
      "duration": 0.1656,
      "velocity": 113,
      "chip": "ym2612"
    },
    {
      "channel": 0,
      "note": 51,
      "start": 220.1454,
      "duration": 0.1649,
      "velocity": 86,
      "chip": "ym2612"
    },
    {
      "channel": 1,
      "note": 18,
      "start": 220.1466,
      "duration": 0.1481,
      "velocity": 127,
      "chip": "ym2612"
    },
    {
      "channel": 2,
      "note": 17,
      "start": 220.1478,
      "duration": 0.1644,
      "velocity": 1,
      "chip": "ym2612"
    },
    {
      "channel": 0,
      "note": 53,
      "start": 220.311,
      "duration": 0.1649,
      "velocity": 85,
      "chip": "ym2612"
    },
    {
      "channel": 1,
      "note": 29,
      "start": 220.3122,
      "duration": 0.1644,
      "velocity": 1,
      "chip": "ym2612"
    },
    {
      "channel": 2,
      "note": 17,
      "start": 220.3134,
      "duration": 0.1639,
      "velocity": 113,
      "chip": "ym2612"
    },
    {
      "channel": 0,
      "note": 51,
      "start": 220.4765,
      "duration": 0.1649,
      "velocity": 84,
      "chip": "ym2612"
    },
    {
      "channel": 1,
      "note": 29,
      "start": 220.4771,
      "duration": 0.165,
      "velocity": 1,
      "chip": "ym2612"
    },
    {
      "channel": 2,
      "note": 17,
      "start": 220.4777,
      "duration": 0.1656,
      "velocity": 113,
      "chip": "ym2612"
    },
    {
      "channel": 0,
      "note": 49,
      "start": 220.642,
      "duration": 0.1649,
      "velocity": 83,
      "chip": "ym2612"
    },
    {
      "channel": 1,
      "note": 18,
      "start": 220.6432,
      "duration": 0.1481,
      "velocity": 127,
      "chip": "ym2612"
    },
    {
      "channel": 2,
      "note": 17,
      "start": 220.6444,
      "duration": 0.1644,
      "velocity": 1,
      "chip": "ym2612"
    },
    {
      "channel": 0,
      "note": 48,
      "start": 220.8075,
      "duration": 0.1649,
      "velocity": 82,
      "chip": "ym2612"
    },
    {
      "channel": 1,
      "note": 29,
      "start": 220.8087,
      "duration": 0.1645,
      "velocity": 1,
      "chip": "ym2612"
    },
    {
      "channel": 2,
      "note": 15,
      "start": 220.8099,
      "duration": 0.1639,
      "velocity": 113,
      "chip": "ym2612"
    },
    {
      "channel": 0,
      "note": 49,
      "start": 220.973,
      "duration": 0.1649,
      "velocity": 81,
      "chip": "ym2612"
    },
    {
      "channel": 1,
      "note": 29,
      "start": 220.9737,
      "duration": 0.1651,
      "velocity": 1,
      "chip": "ym2612"
    },
    {
      "channel": 2,
      "note": 17,
      "start": 220.9743,
      "duration": 0.1651,
      "velocity": 113,
      "chip": "ym2612"
    },
    {
      "channel": 0,
      "note": 48,
      "start": 221.1385,
      "duration": 0.1649,
      "velocity": 80,
      "chip": "ym2612"
    },
    {
      "channel": 1,
      "note": 29,
      "start": 221.1392,
      "duration": 0.1651,
      "velocity": 1,
      "chip": "ym2612"
    },
    {
      "channel": 2,
      "note": 17,
      "start": 221.1398,
      "duration": 0.1651,
      "velocity": 113,
      "chip": "ym2612"
    },
    {
      "channel": 0,
      "note": 49,
      "start": 221.3041,
      "duration": 0.1648,
      "velocity": 81,
      "chip": "ym2612"
    },
    {
      "channel": 1,
      "note": 29,
      "start": 221.3048,
      "duration": 0.1649,
      "velocity": 1,
      "chip": "ym2612"
    },
    {
      "channel": 2,
      "note": 17,
      "start": 221.3054,
      "duration": 0.1656,
      "velocity": 113,
      "chip": "ym2612"
    },
    {
      "channel": 0,
      "note": 51,
      "start": 221.4696,
      "duration": 0.1649,
      "velocity": 82,
      "chip": "ym2612"
    },
    {
      "channel": 1,
      "note": 18,
      "start": 221.4709,
      "duration": 0.148,
      "velocity": 127,
      "chip": "ym2612"
    },
    {
      "channel": 2,
      "note": 17,
      "start": 221.4721,
      "duration": 0.1644,
      "velocity": 1,
      "chip": "ym2612"
    },
    {
      "channel": 0,
      "note": 53,
      "start": 221.6351,
      "duration": 0.1649,
      "velocity": 83,
      "chip": "ym2612"
    },
    {
      "channel": 1,
      "note": 29,
      "start": 221.6363,
      "duration": 0.1645,
      "velocity": 1,
      "chip": "ym2612"
    },
    {
      "channel": 2,
      "note": 17,
      "start": 221.6376,
      "duration": 0.1639,
      "velocity": 113,
      "chip": "ym2612"
    },
    {
      "channel": 0,
      "note": 51,
      "start": 221.8006,
      "duration": 0.1649,
      "velocity": 84,
      "chip": "ym2612"
    },
    {
      "channel": 1,
      "note": 29,
      "start": 221.8013,
      "duration": 0.165,
      "velocity": 1,
      "chip": "ym2612"
    },
    {
      "channel": 2,
      "note": 17,
      "start": 221.8019,
      "duration": 0.1656,
      "velocity": 113,
      "chip": "ym2612"
    },
    {
      "channel": 0,
      "note": 49,
      "start": 221.9662,
      "duration": 0.1649,
      "velocity": 85,
      "chip": "ym2612"
    },
    {
      "channel": 1,
      "note": 18,
      "start": 221.9674,
      "duration": 0.1481,
      "velocity": 127,
      "chip": "ym2612"
    },
    {
      "channel": 2,
      "note": 17,
      "start": 221.9686,
      "duration": 0.1644,
      "velocity": 1,
      "chip": "ym2612"
    },
    {
      "channel": 0,
      "note": 48,
      "start": 222.1317,
      "duration": 0.1649,
      "velocity": 86,
      "chip": "ym2612"
    },
    {
      "channel": 1,
      "note": 29,
      "start": 222.1329,
      "duration": 0.1645,
      "velocity": 1,
      "chip": "ym2612"
    },
    {
      "channel": 2,
      "note": 17,
      "start": 222.1341,
      "duration": 0.1639,
      "velocity": 113,
      "chip": "ym2612"
    },
    {
      "channel": 0,
      "note": 46,
      "start": 222.2972,
      "duration": 0.1649,
      "velocity": 87,
      "chip": "ym2612"
    },
    {
      "channel": 1,
      "note": 29,
      "start": 222.2978,
      "duration": 0.1651,
      "velocity": 1,
      "chip": "ym2612"
    },
    {
      "channel": 2,
      "note": 17,
      "start": 222.2985,
      "duration": 0.1651,
      "velocity": 113,
      "chip": "ym2612"
    },
    {
      "channel": 0,
      "note": 48,
      "start": 222.4627,
      "duration": 0.165,
      "velocity": 85,
      "chip": "ym2612"
    },
    {
      "channel": 1,
      "note": 29,
      "start": 222.4634,
      "duration": 0.1651,
      "velocity": 1,
      "chip": "ym2612"
    },
    {
      "channel": 2,
      "note": 17,
      "start": 222.464,
      "duration": 0.1651,
      "velocity": 113,
      "chip": "ym2612"
    },
    {
      "channel": 3,
      "note": 53,
      "start": 222.4647,
      "duration": 0.0986,
      "velocity": 1,
      "chip": "ym2612"
    },
    {
      "channel": 4,
      "note": 53,
      "start": 222.4653,
      "duration": 0.0985,
      "velocity": 1,
      "chip": "ym2612"
    },
    {
      "channel": 5,
      "note": 53,
      "start": 222.466,
      "duration": 0.0983,
      "velocity": 1,
      "chip": "ym2612"
    },
    {
      "channel": 0,
      "note": 49,
      "start": 222.6283,
      "duration": 0.1649,
      "velocity": 87,
      "chip": "ym2612"
    },
    {
      "channel": 1,
      "note": 29,
      "start": 222.6289,
      "duration": 0.165,
      "velocity": 1,
      "chip": "ym2612"
    },
    {
      "channel": 2,
      "note": 17,
      "start": 222.6295,
      "duration": 0.1656,
      "velocity": 113,
      "chip": "ym2612"
    },
    {
      "channel": 0,
      "note": 51,
      "start": 222.7938,
      "duration": 0.165,
      "velocity": 86,
      "chip": "ym2612"
    },
    {
      "channel": 1,
      "note": 18,
      "start": 222.795,
      "duration": 0.1481,
      "velocity": 127,
      "chip": "ym2612"
    },
    {
      "channel": 2,
      "note": 17,
      "start": 222.7962,
      "duration": 0.1645,
      "velocity": 1,
      "chip": "ym2612"
    },
    {
      "channel": 0,
      "note": 53,
      "start": 222.9594,
      "duration": 0.1649,
      "velocity": 85,
      "chip": "ym2612"
    },
    {
      "channel": 1,
      "note": 29,
      "start": 222.9606,
      "duration": 0.1644,
      "velocity": 1,
      "chip": "ym2612"
    },
    {
      "channel": 2,
      "note": 17,
      "start": 222.9618,
      "duration": 0.1639,
      "velocity": 113,
      "chip": "ym2612"
    },
    {
      "channel": 0,
      "note": 51,
      "start": 223.1249,
      "duration": 0.1649,
      "velocity": 84,
      "chip": "ym2612"
    },
    {
      "channel": 1,
      "note": 29,
      "start": 223.1255,
      "duration": 0.165,
      "velocity": 1,
      "chip": "ym2612"
    },
    {
      "channel": 2,
      "note": 17,
      "start": 223.1261,
      "duration": 0.1656,
      "velocity": 113,
      "chip": "ym2612"
    },
    {
      "channel": 0,
      "note": 49,
      "start": 223.2904,
      "duration": 0.1649,
      "velocity": 83,
      "chip": "ym2612"
    },
    {
      "channel": 1,
      "note": 18,
      "start": 223.2915,
      "duration": 0.1482,
      "velocity": 127,
      "chip": "ym2612"
    },
    {
      "channel": 2,
      "note": 17,
      "start": 223.2928,
      "duration": 0.1644,
      "velocity": 1,
      "chip": "ym2612"
    },
    {
      "channel": 0,
      "note": 48,
      "start": 223.4559,
      "duration": 0.1649,
      "velocity": 82,
      "chip": "ym2612"
    },
    {
      "channel": 1,
      "note": 29,
      "start": 223.4571,
      "duration": 0.1644,
      "velocity": 1,
      "chip": "ym2612"
    },
    {
      "channel": 2,
      "note": 15,
      "start": 223.4583,
      "duration": 0.1639,
      "velocity": 113,
      "chip": "ym2612"
    },
    {
      "channel": 0,
      "note": 49,
      "start": 223.6215,
      "duration": 0.1649,
      "velocity": 81,
      "chip": "ym2612"
    },
    {
      "channel": 1,
      "note": 29,
      "start": 223.6221,
      "duration": 0.1651,
      "velocity": 1,
      "chip": "ym2612"
    },
    {
      "channel": 2,
      "note": 17,
      "start": 223.6227,
      "duration": 0.1651,
      "velocity": 113,
      "chip": "ym2612"
    },
    {
      "channel": 0,
      "note": 48,
      "start": 223.787,
      "duration": 0.1649,
      "velocity": 80,
      "chip": "ym2612"
    },
    {
      "channel": 1,
      "note": 29,
      "start": 223.7877,
      "duration": 0.165,
      "velocity": 1,
      "chip": "ym2612"
    },
    {
      "channel": 2,
      "note": 17,
      "start": 223.7883,
      "duration": 0.165,
      "velocity": 113,
      "chip": "ym2612"
    },
    {
      "channel": 0,
      "note": 49,
      "start": 223.9525,
      "duration": 0.1649,
      "velocity": 81,
      "chip": "ym2612"
    },
    {
      "channel": 1,
      "note": 29,
      "start": 223.9531,
      "duration": 0.165,
      "velocity": 1,
      "chip": "ym2612"
    },
    {
      "channel": 2,
      "note": 17,
      "start": 223.9538,
      "duration": 0.1655,
      "velocity": 113,
      "chip": "ym2612"
    },
    {
      "channel": 0,
      "note": 51,
      "start": 224.118,
      "duration": 0.1649,
      "velocity": 82,
      "chip": "ym2612"
    },
    {
      "channel": 1,
      "note": 18,
      "start": 224.1192,
      "duration": 0.1481,
      "velocity": 127,
      "chip": "ym2612"
    },
    {
      "channel": 2,
      "note": 17,
      "start": 224.1205,
      "duration": 0.1644,
      "velocity": 1,
      "chip": "ym2612"
    },
    {
      "channel": 0,
      "note": 53,
      "start": 224.2835,
      "duration": 0.1649,
      "velocity": 83,
      "chip": "ym2612"
    },
    {
      "channel": 1,
      "note": 29,
      "start": 224.2847,
      "duration": 0.1645,
      "velocity": 1,
      "chip": "ym2612"
    },
    {
      "channel": 2,
      "note": 17,
      "start": 224.2859,
      "duration": 0.1639,
      "velocity": 113,
      "chip": "ym2612"
    },
    {
      "channel": 0,
      "note": 51,
      "start": 224.449,
      "duration": 0.1649,
      "velocity": 84,
      "chip": "ym2612"
    },
    {
      "channel": 1,
      "note": 29,
      "start": 224.4497,
      "duration": 0.165,
      "velocity": 1,
      "chip": "ym2612"
    },
    {
      "channel": 2,
      "note": 17,
      "start": 224.4503,
      "duration": 0.1656,
      "velocity": 113,
      "chip": "ym2612"
    },
    {
      "channel": 0,
      "note": 49,
      "start": 224.6146,
      "duration": 0.1649,
      "velocity": 85,
      "chip": "ym2612"
    },
    {
      "channel": 1,
      "note": 18,
      "start": 224.6158,
      "duration": 0.1481,
      "velocity": 127,
      "chip": "ym2612"
    },
    {
      "channel": 2,
      "note": 17,
      "start": 224.617,
      "duration": 0.1644,
      "velocity": 1,
      "chip": "ym2612"
    },
    {
      "channel": 0,
      "note": 48,
      "start": 224.7801,
      "duration": 0.1649,
      "velocity": 86,
      "chip": "ym2612"
    },
    {
      "channel": 1,
      "note": 29,
      "start": 224.7813,
      "duration": 0.1645,
      "velocity": 1,
      "chip": "ym2612"
    },
    {
      "channel": 2,
      "note": 17,
      "start": 224.7825,
      "duration": 0.1639,
      "velocity": 113,
      "chip": "ym2612"
    },
    {
      "channel": 0,
      "note": 46,
      "start": 224.9456,
      "duration": 0.1649,
      "velocity": 87,
      "chip": "ym2612"
    },
    {
      "channel": 1,
      "note": 29,
      "start": 224.9463,
      "duration": 0.1651,
      "velocity": 1,
      "chip": "ym2612"
    },
    {
      "channel": 2,
      "note": 17,
      "start": 224.9469,
      "duration": 0.1651,
      "velocity": 113,
      "chip": "ym2612"
    },
    {
      "channel": 0,
      "note": 48,
      "start": 225.1111,
      "duration": 0.1649,
      "velocity": 85,
      "chip": "ym2612"
    },
    {
      "channel": 1,
      "note": 29,
      "start": 225.1118,
      "duration": 0.1651,
      "velocity": 1,
      "chip": "ym2612"
    },
    {
      "channel": 2,
      "note": 17,
      "start": 225.1124,
      "duration": 0.1651,
      "velocity": 113,
      "chip": "ym2612"
    },
    {
      "channel": 3,
      "note": 53,
      "start": 225.113,
      "duration": 0.0987,
      "velocity": 1,
      "chip": "ym2612"
    },
    {
      "channel": 4,
      "note": 53,
      "start": 225.1137,
      "duration": 0.0985,
      "velocity": 1,
      "chip": "ym2612"
    },
    {
      "channel": 5,
      "note": 53,
      "start": 225.1143,
      "duration": 0.0984,
      "velocity": 1,
      "chip": "ym2612"
    },
    {
      "channel": 0,
      "note": 49,
      "start": 225.2767,
      "duration": 0.1649,
      "velocity": 87,
      "chip": "ym2612"
    },
    {
      "channel": 1,
      "note": 29,
      "start": 225.2773,
      "duration": 0.165,
      "velocity": 1,
      "chip": "ym2612"
    },
    {
      "channel": 2,
      "note": 17,
      "start": 225.2779,
      "duration": 0.1656,
      "velocity": 113,
      "chip": "ym2612"
    },
    {
      "channel": 0,
      "note": 51,
      "start": 225.4422,
      "duration": 0.1649,
      "velocity": 86,
      "chip": "ym2612"
    },
    {
      "channel": 1,
      "note": 18,
      "start": 225.4434,
      "duration": 0.1481,
      "velocity": 127,
      "chip": "ym2612"
    },
    {
      "channel": 2,
      "note": 17,
      "start": 225.4446,
      "duration": 0.1644,
      "velocity": 1,
      "chip": "ym2612"
    },
    {
      "channel": 0,
      "note": 53,
      "start": 225.6077,
      "duration": 0.1649,
      "velocity": 85,
      "chip": "ym2612"
    },
    {
      "channel": 1,
      "note": 29,
      "start": 225.6089,
      "duration": 0.1645,
      "velocity": 1,
      "chip": "ym2612"
    },
    {
      "channel": 2,
      "note": 17,
      "start": 225.6101,
      "duration": 0.1639,
      "velocity": 113,
      "chip": "ym2612"
    },
    {
      "channel": 0,
      "note": 51,
      "start": 225.7733,
      "duration": 0.1649,
      "velocity": 84,
      "chip": "ym2612"
    },
    {
      "channel": 1,
      "note": 29,
      "start": 225.7739,
      "duration": 0.165,
      "velocity": 1,
      "chip": "ym2612"
    },
    {
      "channel": 2,
      "note": 17,
      "start": 225.7746,
      "duration": 0.1656,
      "velocity": 113,
      "chip": "ym2612"
    },
    {
      "channel": 0,
      "note": 49,
      "start": 225.9388,
      "duration": 0.165,
      "velocity": 83,
      "chip": "ym2612"
    },
    {
      "channel": 1,
      "note": 18,
      "start": 225.94,
      "duration": 0.1482,
      "velocity": 127,
      "chip": "ym2612"
    },
    {
      "channel": 2,
      "note": 17,
      "start": 225.9412,
      "duration": 0.1644,
      "velocity": 1,
      "chip": "ym2612"
    },
    {
      "channel": 0,
      "note": 48,
      "start": 226.1043,
      "duration": 0.1649,
      "velocity": 82,
      "chip": "ym2612"
    },
    {
      "channel": 1,
      "note": 29,
      "start": 226.1055,
      "duration": 0.1644,
      "velocity": 1,
      "chip": "ym2612"
    },
    {
      "channel": 2,
      "note": 15,
      "start": 226.1068,
      "duration": 0.1639,
      "velocity": 113,
      "chip": "ym2612"
    },
    {
      "channel": 0,
      "note": 49,
      "start": 226.2698,
      "duration": 0.1649,
      "velocity": 81,
      "chip": "ym2612"
    },
    {
      "channel": 1,
      "note": 29,
      "start": 226.2705,
      "duration": 0.165,
      "velocity": 1,
      "chip": "ym2612"
    },
    {
      "channel": 2,
      "note": 17,
      "start": 226.2712,
      "duration": 0.165,
      "velocity": 113,
      "chip": "ym2612"
    },
    {
      "channel": 0,
      "note": 48,
      "start": 226.4354,
      "duration": 0.1649,
      "velocity": 80,
      "chip": "ym2612"
    },
    {
      "channel": 1,
      "note": 29,
      "start": 226.436,
      "duration": 0.165,
      "velocity": 1,
      "chip": "ym2612"
    },
    {
      "channel": 2,
      "note": 17,
      "start": 226.4366,
      "duration": 0.165,
      "velocity": 113,
      "chip": "ym2612"
    },
    {
      "channel": 0,
      "note": 49,
      "start": 226.6009,
      "duration": 0.1649,
      "velocity": 81,
      "chip": "ym2612"
    },
    {
      "channel": 1,
      "note": 29,
      "start": 226.6015,
      "duration": 0.165,
      "velocity": 1,
      "chip": "ym2612"
    },
    {
      "channel": 2,
      "note": 17,
      "start": 226.6022,
      "duration": 0.1656,
      "velocity": 113,
      "chip": "ym2612"
    },
    {
      "channel": 0,
      "note": 51,
      "start": 226.7664,
      "duration": 0.1649,
      "velocity": 82,
      "chip": "ym2612"
    },
    {
      "channel": 1,
      "note": 18,
      "start": 226.7676,
      "duration": 0.1481,
      "velocity": 127,
      "chip": "ym2612"
    },
    {
      "channel": 2,
      "note": 17,
      "start": 226.7688,
      "duration": 0.1644,
      "velocity": 1,
      "chip": "ym2612"
    },
    {
      "channel": 0,
      "note": 53,
      "start": 226.9319,
      "duration": 0.1649,
      "velocity": 83,
      "chip": "ym2612"
    },
    {
      "channel": 1,
      "note": 29,
      "start": 226.9332,
      "duration": 0.1645,
      "velocity": 1,
      "chip": "ym2612"
    },
    {
      "channel": 2,
      "note": 17,
      "start": 226.9344,
      "duration": 0.1639,
      "velocity": 113,
      "chip": "ym2612"
    },
    {
      "channel": 0,
      "note": 51,
      "start": 227.0975,
      "duration": 0.1649,
      "velocity": 84,
      "chip": "ym2612"
    },
    {
      "channel": 1,
      "note": 29,
      "start": 227.0981,
      "duration": 0.165,
      "velocity": 1,
      "chip": "ym2612"
    },
    {
      "channel": 2,
      "note": 17,
      "start": 227.0987,
      "duration": 0.1656,
      "velocity": 113,
      "chip": "ym2612"
    },
    {
      "channel": 0,
      "note": 49,
      "start": 227.263,
      "duration": 0.1649,
      "velocity": 85,
      "chip": "ym2612"
    },
    {
      "channel": 1,
      "note": 18,
      "start": 227.2642,
      "duration": 0.1481,
      "velocity": 127,
      "chip": "ym2612"
    },
    {
      "channel": 2,
      "note": 17,
      "start": 227.2654,
      "duration": 0.1644,
      "velocity": 1,
      "chip": "ym2612"
    },
    {
      "channel": 0,
      "note": 48,
      "start": 227.4285,
      "duration": 0.1649,
      "velocity": 86,
      "chip": "ym2612"
    },
    {
      "channel": 1,
      "note": 29,
      "start": 227.4297,
      "duration": 0.1645,
      "velocity": 1,
      "chip": "ym2612"
    },
    {
      "channel": 2,
      "note": 17,
      "start": 227.4309,
      "duration": 0.1639,
      "velocity": 113,
      "chip": "ym2612"
    },
    {
      "channel": 0,
      "note": 46,
      "start": 227.594,
      "duration": 0.1649,
      "velocity": 87,
      "chip": "ym2612"
    },
    {
      "channel": 1,
      "note": 29,
      "start": 227.5947,
      "duration": 0.1654,
      "velocity": 1,
      "chip": "ym2612"
    },
    {
      "channel": 2,
      "note": 17,
      "start": 227.5953,
      "duration": 0.166,
      "velocity": 113,
      "chip": "ym2612"
    },
    {
      "channel": 0,
      "note": 53,
      "start": 227.76,
      "duration": 0.0985,
      "velocity": 1,
      "chip": "ym2612"
    },
    {
      "channel": 1,
      "note": 53,
      "start": 227.7612,
      "duration": 0.0978,
      "velocity": 1,
      "chip": "ym2612"
    },
    {
      "channel": 2,
      "note": 53,
      "start": 227.7625,
      "duration": 0.0971,
      "velocity": 127,
      "chip": "ym2612"
    },
    {
      "channel": 3,
      "note": 17,
      "start": 227.7637,
      "duration": 0.6594,
      "velocity": 124,
      "chip": "ym2612"
    },
    {
      "channel": 4,
      "note": 53,
      "start": 227.7643,
      "duration": 0.0963,
      "velocity": 1,
      "chip": "ym2612"
    },
    {
      "channel": 5,
      "note": 53,
      "start": 227.7649,
      "duration": 0.0961,
      "velocity": 1,
      "chip": "ym2612"
    },
    {
      "channel": 2,
      "note": 53,
      "start": 227.9265,
      "duration": 0.0986,
      "velocity": 127,
      "chip": "ym2612"
    },
    {
      "channel": 2,
      "note": 53,
      "start": 228.092,
      "duration": 0.0986,
      "velocity": 127,
      "chip": "ym2612"
    },
    {
      "channel": 2,
      "note": 53,
      "start": 228.2575,
      "duration": 0.0986,
      "velocity": 127,
      "chip": "ym2612"
    },
    {
      "channel": 2,
      "note": 53,
      "start": 228.423,
      "duration": 0.0,
      "velocity": 127,
      "chip": "ym2612"
    }
  ]
}