{
  "track_name": "15 - Round 4-P",
  "duration_sec": 60.542,
  "sample_rate": 44100,
  "note_count": 841,
  "unique_pitches": 60,
  "pitch_range": 76,
  "avg_note_duration": 0.356,
  "reconstruction_stats": {
    "notes_reconstructed": 841,
    "keyon_events": 841,
    "keyoff_events": 835,
    "orphan_keyons": 6,
    "unique_pitches": 60,
    "pitch_range": 76,
    "avg_duration_sec": 0.356
  },
  "metadata": {
    "source": "W\\World of Illusion\\15 - Round 4-P.vgz"
  },
  "notes": [
    {
      "channel": 0,
      "note": 81,
      "start": 1.7337,
      "duration": 0.1136,
      "velocity": 81,
      "chip": "ym2612"
    },
    {
      "channel": 0,
      "note": 85,
      "start": 1.8479,
      "duration": 0.1333,
      "velocity": 81,
      "chip": "ym2612"
    },
    {
      "channel": 5,
      "note": 81,
      "start": 1.8517,
      "duration": 0.1412,
      "velocity": 81,
      "chip": "ym2612"
    },
    {
      "channel": 0,
      "note": 88,
      "start": 1.9818,
      "duration": 0.2326,
      "velocity": 81,
      "chip": "ym2612"
    },
    {
      "channel": 1,
      "note": 33,
      "start": 1.9854,
      "duration": 0.2298,
      "velocity": 103,
      "chip": "ym2612"
    },
    {
      "channel": 2,
      "note": 61,
      "start": 1.9889,
      "duration": 1.9633,
      "velocity": 95,
      "chip": "ym2612"
    },
    {
      "channel": 4,
      "note": 76,
      "start": 1.9927,
      "duration": 0.4739,
      "velocity": 127,
      "chip": "ym2612"
    },
    {
      "channel": 5,
      "note": 85,
      "start": 1.9935,
      "duration": 0.1059,
      "velocity": 81,
      "chip": "ym2612"
    },
    {
      "channel": 5,
      "note": 88,
      "start": 2.1,
      "duration": 0.249,
      "velocity": 81,
      "chip": "ym2612"
    },
    {
      "channel": 0,
      "note": 88,
      "start": 2.2151,
      "duration": 0.2497,
      "velocity": 81,
      "chip": "ym2612"
    },
    {
      "channel": 5,
      "note": 88,
      "start": 2.3497,
      "duration": 0.2499,
      "velocity": 81,
      "chip": "ym2612"
    },
    {
      "channel": 0,
      "note": 88,
      "start": 2.4654,
      "duration": 0.2497,
      "velocity": 81,
      "chip": "ym2612"
    },
    {
      "channel": 1,
      "note": 32,
      "start": 2.4661,
      "duration": 0.2498,
      "velocity": 103,
      "chip": "ym2612"
    },
    {
      "channel": 4,
      "note": 76,
      "start": 2.4672,
      "duration": 0.5005,
      "velocity": 127,
      "chip": "ym2612"
    },
    {
      "channel": 5,
      "note": 88,
      "start": 2.6003,
      "duration": 0.2327,
      "velocity": 81,
      "chip": "ym2612"
    },
    {
      "channel": 0,
      "note": 90,
      "start": 2.7157,
      "duration": 0.2497,
      "velocity": 81,
      "chip": "ym2612"
    },
    {
      "channel": 5,
      "note": 90,
      "start": 2.8337,
      "duration": 0.2499,
      "velocity": 81,
      "chip": "ym2612"
    },
    {
      "channel": 0,
      "note": 88,
      "start": 2.966,
      "duration": 0.4833,
      "velocity": 81,
      "chip": "ym2612"
    },
    {
      "channel": 1,
      "note": 30,
      "start": 2.9668,
      "duration": 0.2494,
      "velocity": 103,
      "chip": "ym2612"
    },
    {
      "channel": 4,
      "note": 76,
      "start": 2.9682,
      "duration": 0.4828,
      "velocity": 127,
      "chip": "ym2612"
    },
    {
      "channel": 5,
      "note": 88,
      "start": 3.0842,
      "duration": 0.5,
      "velocity": 81,
      "chip": "ym2612"
    },
    {
      "channel": 0,
      "note": 88,
      "start": 3.4498,
      "duration": 0.2498,
      "velocity": 81,
      "chip": "ym2612"
    },
    {
      "channel": 1,
      "note": 28,
      "start": 3.4505,
      "duration": 0.2499,
      "velocity": 103,
      "chip": "ym2612"
    },
    {
      "channel": 4,
      "note": 76,
      "start": 3.4516,
      "duration": 0.2495,
      "velocity": 127,
      "chip": "ym2612"
    },
    {
      "channel": 5,
      "note": 88,
      "start": 3.5847,
      "duration": 0.2333,
      "velocity": 81,
      "chip": "ym2612"
    },
    {
      "channel": 0,
      "note": 93,
      "start": 3.7003,
      "duration": 0.2497,
      "velocity": 81,
      "chip": "ym2612"
    },
    {
      "channel": 4,
      "note": 76,
      "start": 3.7015,
      "duration": 0.1158,
      "velocity": 127,
      "chip": "ym2612"
    },
    {
      "channel": 4,
      "note": 76,
      "start": 3.8179,
      "duration": 0.1382,
      "velocity": 127,
      "chip": "ym2612"
    },
    {
      "channel": 5,
      "note": 93,
      "start": 3.8187,
      "duration": 0.2495,
      "velocity": 81,
      "chip": "ym2612"
    },
    {
      "channel": 0,
      "note": 88,
      "start": 3.9506,
      "duration": 0.4833,
      "velocity": 81,
      "chip": "ym2612"
    },
    {
      "channel": 1,
      "note": 33,
      "start": 3.952,
      "duration": 0.2487,
      "velocity": 103,
      "chip": "ym2612"
    },
    {
      "channel": 2,
      "note": 61,
      "start": 3.9527,
      "duration": 0.9839,
      "velocity": 95,
      "chip": "ym2612"
    },
    {
      "channel": 4,
      "note": 76,
      "start": 3.9566,
      "duration": 0.479,
      "velocity": 127,
      "chip": "ym2612"
    },
    {
      "channel": 5,
      "note": 88,
      "start": 4.0688,
      "duration": 0.5,
      "velocity": 81,
      "chip": "ym2612"
    },
    {
      "channel": 0,
      "note": 88,
      "start": 4.4344,
      "duration": 0.2498,
      "velocity": 81,
      "chip": "ym2612"
    },
    {
      "channel": 1,
      "note": 32,
      "start": 4.4351,
      "duration": 0.2499,
      "velocity": 103,
      "chip": "ym2612"
    },
    {
      "channel": 4,
      "note": 76,
      "start": 4.4362,
      "duration": 0.5014,
      "velocity": 127,
      "chip": "ym2612"
    },
    {
      "channel": 5,
      "note": 88,
      "start": 4.5693,
      "duration": 0.2496,
      "velocity": 81,
      "chip": "ym2612"
    },
    {
      "channel": 0,
      "note": 86,
      "start": 4.6849,
      "duration": 0.2497,
      "velocity": 81,
      "chip": "ym2612"
    },
    {
      "channel": 5,
      "note": 86,
      "start": 4.8195,
      "duration": 0.2332,
      "velocity": 81,
      "chip": "ym2612"
    },
    {
      "channel": 0,
      "note": 85,
      "start": 4.9352,
      "duration": 0.7336,
      "velocity": 81,
      "chip": "ym2612"
    },
    {
      "channel": 1,
      "note": 30,
      "start": 4.936,
      "duration": 0.2494,
      "velocity": 103,
      "chip": "ym2612"
    },
    {
      "channel": 2,
      "note": 52,
      "start": 4.9371,
      "duration": 0.2485,
      "velocity": 95,
      "chip": "ym2612"
    },
    {
      "channel": 4,
      "note": 76,
      "start": 4.9381,
      "duration": 0.4823,
      "velocity": 127,
      "chip": "ym2612"
    },
    {
      "channel": 5,
      "note": 85,
      "start": 5.0534,
      "duration": 0.7512,
      "velocity": 81,
      "chip": "ym2612"
    },
    {
      "channel": 2,
      "note": 54,
      "start": 5.1861,
      "duration": 0.1161,
      "velocity": 95,
      "chip": "ym2612"
    },
    {
      "channel": 2,
      "note": 56,
      "start": 5.3027,
      "duration": 0.1169,
      "velocity": 95,
      "chip": "ym2612"
    },
    {
      "channel": 1,
      "note": 28,
      "start": 5.4195,
      "duration": 0.2501,
      "velocity": 103,
      "chip": "ym2612"
    },
    {
      "channel": 2,
      "note": 57,
      "start": 5.4202,
      "duration": 0.1326,
      "velocity": 95,
      "chip": "ym2612"
    },
    {
      "channel": 4,
      "note": 76,
      "start": 5.421,
      "duration": 0.2497,
      "velocity": 127,
      "chip": "ym2612"
    },
    {
      "channel": 2,
      "note": 59,
      "start": 5.5533,
      "duration": 0.1167,
      "velocity": 95,
      "chip": "ym2612"
    },
    {
      "channel": 0,
      "note": 81,
      "start": 5.6695,
      "duration": 0.1329,
      "velocity": 81,
      "chip": "ym2612"
    },
    {
      "channel": 2,
      "note": 61,
      "start": 5.6705,
      "duration": 0.1327,
      "velocity": 95,
      "chip": "ym2612"
    },
    {
      "channel": 4,
      "note": 76,
      "start": 5.6711,
      "duration": 0.1329,
      "velocity": 127,
      "chip": "ym2612"
    },
    {
      "channel": 0,
      "note": 85,
      "start": 5.803,
      "duration": 0.1166,
      "velocity": 81,
      "chip": "ym2612"
    },
    {
      "channel": 2,
      "note": 62,
      "start": 5.8038,
      "duration": 0.118,
      "velocity": 95,
      "chip": "ym2612"
    },
    {
      "channel": 4,
      "note": 76,
      "start": 5.8045,
      "duration": 0.1211,
      "velocity": 127,
      "chip": "ym2612"
    },
    {
      "channel": 5,
      "note": 81,
      "start": 5.8053,
      "duration": 0.121,
      "velocity": 81,
      "chip": "ym2612"
    },
    {
      "channel": 0,
      "note": 88,
      "start": 5.9202,
      "duration": 0.2493,
      "velocity": 81,
      "chip": "ym2612"
    },
    {
      "channel": 1,
      "note": 33,
      "start": 5.9216,
      "duration": 0.2487,
      "velocity": 103,
      "chip": "ym2612"
    },
    {
      "channel": 2,
      "note": 61,
      "start": 5.9223,
      "duration": 0.9838,
      "velocity": 95,
      "chip": "ym2612"
    },
    {
      "channel": 4,
      "note": 76,
      "start": 5.9262,
      "duration": 0.4955,
      "velocity": 127,
      "chip": "ym2612"
    },
    {
      "channel": 5,
      "note": 85,
      "start": 5.927,
      "duration": 0.1108,
      "velocity": 81,
      "chip": "ym2612"
    },
    {
      "channel": 5,
      "note": 88,
      "start": 6.0384,
      "duration": 0.249,
      "velocity": 81,
      "chip": "ym2612"
    },
    {
      "channel": 0,
      "note": 88,
      "start": 6.1701,
      "duration": 0.2497,
      "velocity": 81,
      "chip": "ym2612"
    },
    {
      "channel": 5,
      "note": 88,
      "start": 6.2881,
      "duration": 0.2499,
      "velocity": 81,
      "chip": "ym2612"
    },
    {
      "channel": 0,
      "note": 88,
      "start": 6.4205,
      "duration": 0.233,
      "velocity": 81,
      "chip": "ym2612"
    },
    {
      "channel": 1,
      "note": 32,
      "start": 6.4212,
      "duration": 0.233,
      "velocity": 103,
      "chip": "ym2612"
    },
    {
      "channel": 4,
      "note": 76,
      "start": 6.4222,
      "duration": 0.4848,
      "velocity": 127,
      "chip": "ym2612"
    },
    {
      "channel": 5,
      "note": 88,
      "start": 6.5387,
      "duration": 0.2495,
      "velocity": 81,
      "chip": "ym2612"
    },
    {
      "channel": 0,
      "note": 90,
      "start": 6.6541,
      "duration": 0.2501,
      "velocity": 81,
      "chip": "ym2612"
    },
    {
      "channel": 5,
      "note": 90,
      "start": 6.7888,
      "duration": 0.2336,
      "velocity": 81,
      "chip": "ym2612"
    },
    {
      "channel": 0,
      "note": 88,
      "start": 6.9048,
      "duration": 0.4996,
      "velocity": 81,
      "chip": "ym2612"
    },
    {
      "channel": 1,
      "note": 30,
      "start": 6.9056,
      "duration": 0.249,
      "velocity": 103,
      "chip": "ym2612"
    },
    {
      "channel": 2,
      "note": 57,
      "start": 6.9066,
      "duration": 0.9838,
      "velocity": 95,
      "chip": "ym2612"
    },
    {
      "channel": 4,
      "note": 76,
      "start": 6.9076,
      "duration": 0.4987,
      "velocity": 127,
      "chip": "ym2612"
    },
    {
      "channel": 5,
      "note": 88,
      "start": 7.023,
      "duration": 0.4996,
      "velocity": 81,
      "chip": "ym2612"
    },
    {
      "channel": 0,
      "note": 86,
      "start": 7.4051,
      "duration": 0.233,
      "velocity": 81,
      "chip": "ym2612"
    },
    {
      "channel": 1,
      "note": 28,
      "start": 7.4058,
      "duration": 0.233,
      "velocity": 103,
      "chip": "ym2612"
    },
    {
      "channel": 4,
      "note": 76,
      "start": 7.4069,
      "duration": 0.2326,
      "velocity": 127,
      "chip": "ym2612"
    },
    {
      "channel": 5,
      "note": 86,
      "start": 7.5233,
      "duration": 0.2498,
      "velocity": 81,
      "chip": "ym2612"
    },
    {
      "channel": 0,
      "note": 85,
      "start": 7.6387,
      "duration": 0.2497,
      "velocity": 81,
      "chip": "ym2612"
    },
    {
      "channel": 4,
      "note": 76,
      "start": 7.6399,
      "duration": 0.1325,
      "velocity": 127,
      "chip": "ym2612"
    },
    {
      "channel": 4,
      "note": 76,
      "start": 7.773,
      "duration": 0.1213,
      "velocity": 127,
      "chip": "ym2612"
    },
    {
      "channel": 5,
      "note": 85,
      "start": 7.7737,
      "duration": 0.2495,
      "velocity": 81,
      "chip": "ym2612"
    },
    {
      "channel": 0,
      "note": 88,
      "start": 7.889,
      "duration": 0.2497,
      "velocity": 81,
      "chip": "ym2612"
    },
    {
      "channel": 1,
      "note": 35,
      "start": 7.8898,
      "duration": 0.2497,
      "velocity": 103,
      "chip": "ym2612"
    },
    {
      "channel": 2,
      "note": 57,
      "start": 7.8909,
      "duration": 0.984,
      "velocity": 95,
      "chip": "ym2612"
    },
    {
      "channel": 4,
      "note": 76,
      "start": 7.8949,
      "duration": 0.4961,
      "velocity": 127,
      "chip": "ym2612"
    },
    {
      "channel": 5,
      "note": 88,
      "start": 8.0239,
      "duration": 0.2327,
      "velocity": 81,
      "chip": "ym2612"
    },
    {
      "channel": 0,
      "note": 86,
      "start": 8.1393,
      "duration": 0.2497,
      "velocity": 81,
      "chip": "ym2612"
    },
    {
      "channel": 5,
      "note": 86,
      "start": 8.2573,
      "duration": 0.2499,
      "velocity": 81,
      "chip": "ym2612"
    },
    {
      "channel": 0,
      "note": 85,
      "start": 8.3897,
      "duration": 0.233,
      "velocity": 81,
      "chip": "ym2612"
    },
    {
      "channel": 1,
      "note": 35,
      "start": 8.3904,
      "duration": 0.233,
      "velocity": 103,
      "chip": "ym2612"
    },
    {
      "channel": 4,
      "note": 76,
      "start": 8.3915,
      "duration": 0.4844,
      "velocity": 127,
      "chip": "ym2612"
    },
    {
      "channel": 5,
      "note": 85,
      "start": 8.5079,
      "duration": 0.2495,
      "velocity": 81,
      "chip": "ym2612"
    },
    {
      "channel": 0,
      "note": 83,
      "start": 8.6233,
      "duration": 0.2497,
      "velocity": 81,
      "chip": "ym2612"
    },
    {
      "channel": 5,
      "note": 83,
      "start": 8.758,
      "duration": 0.2499,
      "velocity": 81,
      "chip": "ym2612"
    },
    {
      "channel": 0,
      "note": 88,
      "start": 8.8736,
      "duration": 0.7503,
      "velocity": 81,
      "chip": "ym2612"
    },
    {
      "channel": 1,
      "note": 28,
      "start": 8.8744,
      "duration": 0.2494,
      "velocity": 103,
      "chip": "ym2612"
    },
    {
      "channel": 2,
      "note": 56,
      "start": 8.8754,
      "duration": 0.4995,
      "velocity": 95,
      "chip": "ym2612"
    },
    {
      "channel": 4,
      "note": 76,
      "start": 8.8764,
      "duration": 0.5016,
      "velocity": 127,
      "chip": "ym2612"
    },
    {
      "channel": 5,
      "note": 88,
      "start": 9.0085,
      "duration": 0.7339,
      "velocity": 81,
      "chip": "ym2612"
    },
    {
      "channel": 1,
      "note": 28,
      "start": 9.3746,
      "duration": 0.2499,
      "velocity": 103,
      "chip": "ym2612"
    },
    {
      "channel": 4,
      "note": 76,
      "start": 9.3786,
      "duration": 0.2466,
      "velocity": 127,
      "chip": "ym2612"
    },
    {
      "channel": 0,
      "note": 88,
      "start": 9.6244,
      "duration": 0.1163,
      "velocity": 81,
      "chip": "ym2612"
    },
    {
      "channel": 4,
      "note": 76,
      "start": 9.6256,
      "duration": 0.1161,
      "velocity": 127,
      "chip": "ym2612"
    },
    {
      "channel": 0,
      "note": 90,
      "start": 9.7414,
      "duration": 0.1166,
      "velocity": 81,
      "chip": "ym2612"
    },
    {
      "channel": 4,
      "note": 76,
      "start": 9.7423,
      "duration": 0.1192,
      "velocity": 127,
      "chip": "ym2612"
    },
    {
      "channel": 5,
      "note": 88,
      "start": 9.7429,
      "duration": 0.1192,
      "velocity": 81,
      "chip": "ym2612"
    },
    {
      "channel": 0,
      "note": 91,
      "start": 9.8586,
      "duration": 0.2493,
      "velocity": 81,
      "chip": "ym2612"
    },
    {
      "channel": 1,
      "note": 28,
      "start": 9.8594,
      "duration": 0.2493,
      "velocity": 103,
      "chip": "ym2612"
    },
    {
      "channel": 3,
      "note": 71,
      "start": 9.8612,
      "duration": 0.9839,
      "velocity": 96,
      "chip": "ym2612"
    },
    {
      "channel": 4,
      "note": 76,
      "start": 9.862,
      "duration": 0.4982,
      "velocity": 127,
      "chip": "ym2612"
    },
    {
      "channel": 5,
      "note": 90,
      "start": 9.8628,
      "duration": 0.1301,
      "velocity": 81,
      "chip": "ym2612"
    },
    {
      "channel": 5,
      "note": 91,
      "start": 9.9935,
      "duration": 0.2324,
      "velocity": 81,
      "chip": "ym2612"
    },
    {
      "channel": 0,
      "note": 91,
      "start": 10.1085,
      "duration": 0.2497,
      "velocity": 81,
      "chip": "ym2612"
    },
    {
      "channel": 5,
      "note": 91,
      "start": 10.2266,
      "duration": 0.25,
      "velocity": 81,
      "chip": "ym2612"
    },
    {
      "channel": 0,
      "note": 91,
      "start": 10.3589,
      "duration": 0.2497,
      "velocity": 81,
      "chip": "ym2612"
    },
    {
      "channel": 1,
      "note": 28,
      "start": 10.3596,
      "duration": 0.2498,
      "velocity": 103,
      "chip": "ym2612"
    },
    {
      "channel": 4,
      "note": 76,
      "start": 10.3608,
      "duration": 0.4852,
      "velocity": 127,
      "chip": "ym2612"
    },
    {
      "channel": 5,
      "note": 91,
      "start": 10.4772,
      "duration": 0.2497,
      "velocity": 81,
      "chip": "ym2612"
    },
    {
      "channel": 0,
      "note": 93,
      "start": 10.6092,
      "duration": 0.233,
      "velocity": 81,
      "chip": "ym2612"
    },
    {
      "channel": 2,
      "note": 62,
      "start": 10.6102,
      "duration": 0.2343,
      "velocity": 95,
      "chip": "ym2612"
    },
    {
      "channel": 5,
      "note": 93,
      "start": 10.7275,
      "duration": 0.2498,
      "velocity": 81,
      "chip": "ym2612"
    },
    {
      "channel": 0,
      "note": 95,
      "start": 10.8429,
      "duration": 0.7503,
      "velocity": 81,
      "chip": "ym2612"
    },
    {
      "channel": 1,
      "note": 21,
      "start": 10.844,
      "duration": 0.249,
      "velocity": 103,
      "chip": "ym2612"
    },
    {
      "channel": 2,
      "note": 55,
      "start": 10.845,
      "duration": 0.9834,
      "velocity": 95,
      "chip": "ym2612"
    },
    {
      "channel": 3,
      "note": 64,
      "start": 10.8458,
      "duration": 0.9829,
      "velocity": 96,
      "chip": "ym2612"
    },
    {
      "channel": 4,
      "note": 76,
      "start": 10.8465,
      "duration": 0.4986,
      "velocity": 127,
      "chip": "ym2612"
    },
    {
      "channel": 5,
      "note": 95,
      "start": 10.978,
      "duration": 0.7345,
      "velocity": 81,
      "chip": "ym2612"
    },
    {
      "channel": 1,
      "note": 23,
      "start": 11.3442,
      "duration": 0.2497,
      "velocity": 103,
      "chip": "ym2612"
    },
    {
      "channel": 4,
      "note": 76,
      "start": 11.3456,
      "duration": 0.2498,
      "velocity": 127,
      "chip": "ym2612"
    },
    {
      "channel": 0,
      "note": 93,
      "start": 11.5938,
      "duration": 0.1162,
      "velocity": 81,
      "chip": "ym2612"
    },
    {
      "channel": 1,
      "note": 25,
      "start": 11.5945,
      "duration": 0.233,
      "velocity": 103,
      "chip": "ym2612"
    },
    {
      "channel": 4,
      "note": 76,
      "start": 11.5958,
      "duration": 0.116,
      "velocity": 127,
      "chip": "ym2612"
    },
    {
      "channel": 0,
      "note": 91,
      "start": 11.7106,
      "duration": 0.1162,
      "velocity": 81,
      "chip": "ym2612"
    },
    {
      "channel": 4,
      "note": 76,
      "start": 11.7123,
      "duration": 0.1173,
      "velocity": 127,
      "chip": "ym2612"
    },
    {
      "channel": 5,
      "note": 93,
      "start": 11.7131,
      "duration": 0.1172,
      "velocity": 81,
      "chip": "ym2612"
    },
    {
      "channel": 0,
      "note": 90,
      "start": 11.8274,
      "duration": 0.2497,
      "velocity": 81,
      "chip": "ym2612"
    },
    {
      "channel": 1,
      "note": 26,
      "start": 11.8282,
      "duration": 0.2497,
      "velocity": 103,
      "chip": "ym2612"
    },
    {
      "channel": 3,
      "note": 69,
      "start": 11.8294,
      "duration": 1.0017,
      "velocity": 96,
      "chip": "ym2612"
    },
    {
      "channel": 4,
      "note": 76,
      "start": 11.8302,
      "duration": 0.4993,
      "velocity": 127,
      "chip": "ym2612"
    },
    {
      "channel": 5,
      "note": 91,
      "start": 11.8309,
      "duration": 0.1308,
      "velocity": 81,
      "chip": "ym2612"
    },
    {
      "channel": 5,
      "note": 90,
      "start": 11.9623,
      "duration": 0.2496,
      "velocity": 81,
      "chip": "ym2612"
    },
    {
      "channel": 0,
      "note": 90,
      "start": 12.0778,
      "duration": 0.2497,
      "velocity": 81,
      "chip": "ym2612"
    },
    {
      "channel": 5,
      "note": 90,
      "start": 12.2125,
      "duration": 0.2332,
      "velocity": 81,
      "chip": "ym2612"
    },
    {
      "channel": 0,
      "note": 90,
      "start": 12.3281,
      "duration": 0.2497,
      "velocity": 81,
      "chip": "ym2612"
    },
    {
      "channel": 1,
      "note": 26,
      "start": 12.3288,
      "duration": 0.2498,
      "velocity": 103,
      "chip": "ym2612"
    },
    {
      "channel": 4,
      "note": 76,
      "start": 12.33,
      "duration": 0.5019,
      "velocity": 127,
      "chip": "ym2612"
    },
    {
      "channel": 5,
      "note": 90,
      "start": 12.4464,
      "duration": 0.2497,
      "velocity": 81,
      "chip": "ym2612"
    },
    {
      "channel": 0,
      "note": 93,
      "start": 12.5784,
      "duration": 0.2497,
      "velocity": 81,
      "chip": "ym2612"
    },
    {
      "channel": 2,
      "note": 61,
      "start": 12.5798,
      "duration": 0.2506,
      "velocity": 95,
      "chip": "ym2612"
    },
    {
      "channel": 5,
      "note": 93,
      "start": 12.6967,
      "duration": 0.2498,
      "velocity": 81,
      "chip": "ym2612"
    },
    {
      "channel": 0,
      "note": 86,
      "start": 12.8287,
      "duration": 0.7336,
      "velocity": 81,
      "chip": "ym2612"
    },
    {
      "channel": 1,
      "note": 23,
      "start": 12.8298,
      "duration": 0.2323,
      "velocity": 103,
      "chip": "ym2612"
    },
    {
      "channel": 2,
      "note": 54,
      "start": 12.8309,
      "duration": 0.9834,
      "velocity": 95,
      "chip": "ym2612"
    },
    {
      "channel": 3,
      "note": 69,
      "start": 12.8317,
      "duration": 0.9829,
      "velocity": 96,
      "chip": "ym2612"
    },
    {
      "channel": 4,
      "note": 76,
      "start": 12.8324,
      "duration": 0.4815,
      "velocity": 127,
      "chip": "ym2612"
    },
    {
      "channel": 5,
      "note": 86,
      "start": 12.9472,
      "duration": 0.7343,
      "velocity": 81,
      "chip": "ym2612"
    },
    {
      "channel": 1,
      "note": 23,
      "start": 13.313,
      "duration": 0.2501,
      "velocity": 103,
      "chip": "ym2612"
    },
    {
      "channel": 4,
      "note": 76,
      "start": 13.3145,
      "duration": 0.2497,
      "velocity": 127,
      "chip": "ym2612"
    },
    {
      "channel": 0,
      "note": 88,
      "start": 13.563,
      "duration": 0.1162,
      "velocity": 81,
      "chip": "ym2612"
    },
    {
      "channel": 4,
      "note": 76,
      "start": 13.5645,
      "duration": 0.1162,
      "velocity": 127,
      "chip": "ym2612"
    },
    {
      "channel": 0,
      "note": 90,
      "start": 13.6798,
      "duration": 0.1329,
      "velocity": 81,
      "chip": "ym2612"
    },
    {
      "channel": 4,
      "note": 76,
      "start": 13.6813,
      "duration": 0.1342,
      "velocity": 127,
      "chip": "ym2612"
    },
    {
      "channel": 5,
      "note": 88,
      "start": 13.6821,
      "duration": 0.1341,
      "velocity": 81,
      "chip": "ym2612"
    },
    {
      "channel": 0,
      "note": 92,
      "start": 13.8133,
      "duration": 0.233,
      "velocity": 81,
      "chip": "ym2612"
    },
    {
      "channel": 1,
      "note": 28,
      "start": 13.8141,
      "duration": 0.233,
      "velocity": 103,
      "chip": "ym2612"
    },
    {
      "channel": 3,
      "note": 71,
      "start": 13.8153,
      "duration": 0.9846,
      "velocity": 96,
      "chip": "ym2612"
    },
    {
      "channel": 4,
      "note": 76,
      "start": 13.8161,
      "duration": 0.483,
      "velocity": 127,
      "chip": "ym2612"
    },
    {
      "channel": 5,
      "note": 90,
      "start": 13.8168,
      "duration": 0.1141,
      "velocity": 81,
      "chip": "ym2612"
    },
    {
      "channel": 5,
      "note": 92,
      "start": 13.9315,
      "duration": 0.2495,
      "velocity": 81,
      "chip": "ym2612"
    },
    {
      "channel": 0,
      "note": 92,
      "start": 14.047,
      "duration": 0.2497,
      "velocity": 81,
      "chip": "ym2612"
    },
    {
      "channel": 5,
      "note": 92,
      "start": 14.1817,
      "duration": 0.25,
      "velocity": 81,
      "chip": "ym2612"
    },
    {
      "channel": 0,
      "note": 92,
      "start": 14.2973,
      "duration": 0.2497,
      "velocity": 81,
      "chip": "ym2612"
    },
    {
      "channel": 1,
      "note": 28,
      "start": 14.2984,
      "duration": 0.2494,
      "velocity": 103,
      "chip": "ym2612"
    },
    {
      "channel": 4,
      "note": 76,
      "start": 14.2996,
      "duration": 0.5011,
      "velocity": 127,
      "chip": "ym2612"
    },
    {
      "channel": 5,
      "note": 92,
      "start": 14.4323,
      "duration": 0.233,
      "velocity": 81,
      "chip": "ym2612"
    },
    {
      "channel": 0,
      "note": 94,
      "start": 14.5476,
      "duration": 0.2497,
      "velocity": 81,
      "chip": "ym2612"
    },
    {
      "channel": 2,
      "note": 62,
      "start": 14.549,
      "duration": 0.2498,
      "velocity": 95,
      "chip": "ym2612"
    },
    {
      "channel": 5,
      "note": 94,
      "start": 14.6659,
      "duration": 0.2498,
      "velocity": 81,
      "chip": "ym2612"
    },
    {
      "channel": 0,
      "note": 95,
      "start": 14.7979,
      "duration": 0.7336,
      "velocity": 81,
      "chip": "ym2612"
    },
    {
      "channel": 1,
      "note": 28,
      "start": 14.7987,
      "duration": 0.2327,
      "velocity": 103,
      "chip": "ym2612"
    },
    {
      "channel": 2,
      "note": 56,
      "start": 14.7993,
      "duration": 0.9845,
      "velocity": 95,
      "chip": "ym2612"
    },
    {
      "channel": 3,
      "note": 74,
      "start": 14.8005,
      "duration": 0.9844,
      "velocity": 96,
      "chip": "ym2612"
    },
    {
      "channel": 4,
      "note": 76,
      "start": 14.8012,
      "duration": 0.4819,
      "velocity": 127,
      "chip": "ym2612"
    },
    {
      "channel": 5,
      "note": 95,
      "start": 14.9164,
      "duration": 0.7343,
      "velocity": 81,
      "chip": "ym2612"
    },
    {
      "channel": 1,
      "note": 28,
      "start": 15.2822,
      "duration": 0.2501,
      "velocity": 103,
      "chip": "ym2612"
    },
    {
      "channel": 4,
      "note": 76,
      "start": 15.2837,
      "duration": 0.2497,
      "velocity": 127,
      "chip": "ym2612"
    },
    {
      "channel": 0,
      "note": 94,
      "start": 15.5322,
      "duration": 0.1162,
      "velocity": 81,
      "chip": "ym2612"
    },
    {
      "channel": 4,
      "note": 76,
      "start": 15.5338,
      "duration": 0.1162,
      "velocity": 127,
      "chip": "ym2612"
    },
    {
      "channel": 0,
      "note": 92,
      "start": 15.649,
      "duration": 0.1329,
      "velocity": 81,
      "chip": "ym2612"
    },
    {
      "channel": 4,
      "note": 76,
      "start": 15.6505,
      "duration": 0.1353,
      "velocity": 127,
      "chip": "ym2612"
    },
    {
      "channel": 5,
      "note": 94,
      "start": 15.6513,
      "duration": 0.1351,
      "velocity": 81,
      "chip": "ym2612"
    },
    {
      "channel": 0,
      "note": 97,
      "start": 15.7825,
      "duration": 0.2501,
      "velocity": 81,
      "chip": "ym2612"
    },
    {
      "channel": 1,
      "note": 30,
      "start": 15.7833,
      "duration": 1.9717,
      "velocity": 103,
      "chip": "ym2612"
    },
    {
      "channel": 2,
      "note": 58,
      "start": 15.7844,
      "duration": 1.9741,
      "velocity": 96,
      "chip": "ym2612"
    },
    {
      "channel": 3,
      "note": 73,
      "start": 15.7855,
      "duration": 1.9733,
      "velocity": 96,
      "chip": "ym2612"
    },
    {
      "channel": 4,
      "note": 76,
      "start": 15.7863,
      "duration": 0.4814,
      "velocity": 127,
      "chip": "ym2612"
    },
    {
      "channel": 5,
      "note": 92,
      "start": 15.7871,
      "duration": 0.1132,
      "velocity": 81,
      "chip": "ym2612"
    },
    {
      "channel": 5,
      "note": 97,
      "start": 15.901,
      "duration": 0.2503,
      "velocity": 81,
      "chip": "ym2612"
    },
    {
      "channel": 0,
      "note": 78,
      "start": 16.0332,
      "duration": 0.2326,
      "velocity": 81,
      "chip": "ym2612"
    },
    {
      "channel": 5,
      "note": 78,
      "start": 16.1519,
      "duration": 0.2493,
      "velocity": 81,
      "chip": "ym2612"
    },
    {
      "channel": 0,
      "note": 80,
      "start": 16.2665,
      "duration": 0.2497,
      "velocity": 81,
      "chip": "ym2612"
    },
    {
      "channel": 4,
      "note": 76,
      "start": 16.2683,
      "duration": 0.5011,
      "velocity": 127,
      "chip": "ym2612"
    },
    {
      "channel": 5,
      "note": 80,
      "start": 16.4018,
      "duration": 0.233,
      "velocity": 81,
      "chip": "ym2612"
    },
    {
      "channel": 0,
      "note": 82,
      "start": 16.5168,
      "duration": 0.2501,
      "velocity": 81,
      "chip": "ym2612"
    },
    {
      "channel": 5,
      "note": 82,
      "start": 16.6355,
      "duration": 0.2501,
      "velocity": 81,
      "chip": "ym2612"
    },
    {
      "channel": 0,
      "note": 83,
      "start": 16.7675,
      "duration": 0.2493,
      "velocity": 81,
      "chip": "ym2612"
    },
    {
      "channel": 4,
      "note": 76,
      "start": 16.77,
      "duration": 0.4824,
      "velocity": 127,
      "chip": "ym2612"
    },
    {
      "channel": 5,
      "note": 83,
      "start": 16.8862,
      "duration": 0.2493,
      "velocity": 81,
      "chip": "ym2612"
    },
    {
      "channel": 0,
      "note": 85,
      "start": 17.0175,
      "duration": 0.233,
      "velocity": 81,
      "chip": "ym2612"
    },
    {
      "channel": 5,
      "note": 85,
      "start": 17.1361,
      "duration": 0.2497,
      "velocity": 81,
      "chip": "ym2612"
    },
    {
      "channel": 0,
      "note": 87,
      "start": 17.2511,
      "duration": 0.2497,
      "velocity": 81,
      "chip": "ym2612"
    },
    {
      "channel": 4,
      "note": 76,
      "start": 17.2529,
      "duration": 0.2498,
      "velocity": 127,
      "chip": "ym2612"
    },
    {
      "channel": 5,
      "note": 87,
      "start": 17.3864,
      "duration": 0.2501,
      "velocity": 81,
      "chip": "ym2612"
    },
    {
      "channel": 0,
      "note": 88,
      "start": 17.5014,
      "duration": 0.2523,
      "velocity": 113,
      "chip": "ym2612"
    },
    {
      "channel": 4,
      "note": 76,
      "start": 17.5031,
      "duration": 0.1327,
      "velocity": 127,
      "chip": "ym2612"
    },
    {
      "channel": 4,
      "note": 76,
      "start": 17.6364,
      "duration": 0.1229,
      "velocity": 127,
      "chip": "ym2612"
    },
    {
      "channel": 5,
      "note": 88,
      "start": 17.6371,
      "duration": 0.2346,
      "velocity": 113,
      "chip": "ym2612"
    },
    {
      "channel": 0,
      "note": 90,
      "start": 17.7544,
      "duration": 1.0147,
      "velocity": 113,
      "chip": "ym2612"
    },
    {
      "channel": 1,
      "note": 27,
      "start": 17.7555,
      "duration": 0.9812,
      "velocity": 103,
      "chip": "ym2612"
    },
    {
      "channel": 4,
      "note": 56,
      "start": 17.7598,
      "duration": 0.2439,
      "velocity": 127,
      "chip": "ym2612"
    },
    {
      "channel": 5,
      "note": 90,
      "start": 17.8724,
      "duration": 1.0316,
      "velocity": 113,
      "chip": "ym2612"
    },
    {
      "channel": 2,
      "note": 73,
      "start": 18.0028,
      "duration": 0.2331,
      "velocity": 96,
      "chip": "ym2612"
    },
    {
      "channel": 3,
      "note": 70,
      "start": 18.0035,
      "duration": 0.4838,
      "velocity": 96,
      "chip": "ym2612"
    },
    {
      "channel": 4,
      "note": 61,
      "start": 18.0042,
      "duration": 0.2323,
      "velocity": 127,
      "chip": "ym2612"
    },
    {
      "channel": 4,
      "note": 61,
      "start": 18.2371,
      "duration": 0.2508,
      "velocity": 127,
      "chip": "ym2612"
    },
    {
      "channel": 2,
      "note": 73,
      "start": 18.4872,
      "duration": 0.2503,
      "velocity": 96,
      "chip": "ym2612"
    },
    {
      "channel": 3,
      "note": 70,
      "start": 18.4878,
      "duration": 0.2504,
      "velocity": 96,
      "chip": "ym2612"
    },
    {
      "channel": 4,
      "note": 61,
      "start": 18.4885,
      "duration": 0.2505,
      "velocity": 127,
      "chip": "ym2612"
    },
    {
      "channel": 1,
      "note": 32,
      "start": 18.7373,
      "duration": 0.5002,
      "velocity": 103,
      "chip": "ym2612"
    },
    {
      "channel": 2,
      "note": 72,
      "start": 18.738,
      "duration": 0.9844,
      "velocity": 96,
      "chip": "ym2612"
    },
    {
      "channel": 3,
      "note": 68,
      "start": 18.7388,
      "duration": 0.984,
      "velocity": 96,
      "chip": "ym2612"
    },
    {
      "channel": 4,
      "note": 56,
      "start": 18.7394,
      "duration": 0.2483,
      "velocity": 127,
      "chip": "ym2612"
    },
    {
      "channel": 0,
      "note": 90,
      "start": 18.9865,
      "duration": 0.2502,
      "velocity": 113,
      "chip": "ym2612"
    },
    {
      "channel": 4,
      "note": 61,
      "start": 18.9883,
      "duration": 0.2506,
      "velocity": 127,
      "chip": "ym2612"
    },
    {
      "channel": 5,
      "note": 90,
      "start": 19.105,
      "duration": 0.2502,
      "velocity": 113,
      "chip": "ym2612"
    },
    {
      "channel": 0,
      "note": 88,
      "start": 19.2374,
      "duration": 0.2326,
      "velocity": 113,
      "chip": "ym2612"
    },
    {
      "channel": 1,
      "note": 30,
      "start": 19.2381,
      "duration": 0.4834,
      "velocity": 103,
      "chip": "ym2612"
    },
    {
      "channel": 4,
      "note": 56,
      "start": 19.2395,
      "duration": 0.2323,
      "velocity": 127,
      "chip": "ym2612"
    },
    {
      "channel": 5,
      "note": 88,
      "start": 19.3559,
      "duration": 0.2493,
      "velocity": 113,
      "chip": "ym2612"
    },
    {
      "channel": 0,
      "note": 87,
      "start": 19.4706,
      "duration": 0.2501,
      "velocity": 113,
      "chip": "ym2612"
    },
    {
      "channel": 4,
      "note": 61,
      "start": 19.4723,
      "duration": 0.2509,
      "velocity": 127,
      "chip": "ym2612"
    },
    {
      "channel": 5,
      "note": 87,
      "start": 19.6059,
      "duration": 0.2327,
      "velocity": 113,
      "chip": "ym2612"
    },
    {
      "channel": 0,
      "note": 92,
      "start": 19.7213,
      "duration": 1.0336,
      "velocity": 113,
      "chip": "ym2612"
    },
    {
      "channel": 1,
      "note": 29,
      "start": 19.7221,
      "duration": 0.9838,
      "velocity": 103,
      "chip": "ym2612"
    },
    {
      "channel": 4,
      "note": 56,
      "start": 19.7237,
      "duration": 0.2492,
      "velocity": 127,
      "chip": "ym2612"
    },
    {
      "channel": 5,
      "note": 92,
      "start": 19.8392,
      "duration": 1.034,
      "velocity": 113,
      "chip": "ym2612"
    },
    {
      "channel": 2,
      "note": 75,
      "start": 19.972,
      "duration": 0.2498,
      "velocity": 96,
      "chip": "ym2612"
    },
    {
      "channel": 3,
      "note": 71,
      "start": 19.9727,
      "duration": 0.4838,
      "velocity": 96,
      "chip": "ym2612"
    },
    {
      "channel": 4,
      "note": 61,
      "start": 19.9734,
      "duration": 0.249,
      "velocity": 127,
      "chip": "ym2612"
    },
    {
      "channel": 4,
      "note": 61,
      "start": 20.223,
      "duration": 0.2341,
      "velocity": 127,
      "chip": "ym2612"
    },
    {
      "channel": 2,
      "note": 75,
      "start": 20.4564,
      "duration": 0.2503,
      "velocity": 96,
      "chip": "ym2612"
    },
    {
      "channel": 3,
      "note": 71,
      "start": 20.457,
      "duration": 0.2504,
      "velocity": 96,
      "chip": "ym2612"
    },
    {
      "channel": 4,
      "note": 61,
      "start": 20.4577,
      "duration": 0.2505,
      "velocity": 127,
      "chip": "ym2612"
    },
    {
      "channel": 1,
      "note": 34,
      "start": 20.7065,
      "duration": 0.5006,
      "velocity": 103,
      "chip": "ym2612"
    },
    {
      "channel": 2,
      "note": 74,
      "start": 20.7072,
      "duration": 0.9844,
      "velocity": 96,
      "chip": "ym2612"
    },
    {
      "channel": 3,
      "note": 70,
      "start": 20.708,
      "duration": 0.984,
      "velocity": 96,
      "chip": "ym2612"
    },
    {
      "channel": 4,
      "note": 56,
      "start": 20.7086,
      "duration": 0.2483,
      "velocity": 127,
      "chip": "ym2612"
    },
    {
      "channel": 0,
      "note": 92,
      "start": 20.9557,
      "duration": 0.2502,
      "velocity": 113,
      "chip": "ym2612"
    },
    {
      "channel": 4,
      "note": 61,
      "start": 20.9575,
      "duration": 0.251,
      "velocity": 127,
      "chip": "ym2612"
    },
    {
      "channel": 5,
      "note": 92,
      "start": 21.0742,
      "duration": 0.2502,
      "velocity": 113,
      "chip": "ym2612"
    },
    {
      "channel": 0,
      "note": 90,
      "start": 21.2066,
      "duration": 0.2326,
      "velocity": 113,
      "chip": "ym2612"
    },
    {
      "channel": 1,
      "note": 32,
      "start": 21.2077,
      "duration": 0.483,
      "velocity": 103,
      "chip": "ym2612"
    },
    {
      "channel": 4,
      "note": 56,
      "start": 21.2091,
      "duration": 0.2319,
      "velocity": 127,
      "chip": "ym2612"
    },
    {
      "channel": 5,
      "note": 90,
      "start": 21.3251,
      "duration": 0.2493,
      "velocity": 113,
      "chip": "ym2612"
    },
    {
      "channel": 0,
      "note": 89,
      "start": 21.4398,
      "duration": 0.2501,
      "velocity": 113,
      "chip": "ym2612"
    },
    {
      "channel": 4,
      "note": 61,
      "start": 21.4415,
      "duration": 0.2509,
      "velocity": 127,
      "chip": "ym2612"
    },
    {
      "channel": 5,
      "note": 89,
      "start": 21.575,
      "duration": 0.2494,
      "velocity": 113,
      "chip": "ym2612"
    },
    {
      "channel": 0,
      "note": 94,
      "start": 21.6905,
      "duration": 1.0336,
      "velocity": 113,
      "chip": "ym2612"
    },
    {
      "channel": 1,
      "note": 31,
      "start": 21.6913,
      "duration": 0.9838,
      "velocity": 103,
      "chip": "ym2612"
    },
    {
      "channel": 4,
      "note": 56,
      "start": 21.6929,
      "duration": 0.2492,
      "velocity": 127,
      "chip": "ym2612"
    },
    {
      "channel": 5,
      "note": 94,
      "start": 21.8251,
      "duration": 1.0172,
      "velocity": 113,
      "chip": "ym2612"
    },
    {
      "channel": 2,
      "note": 77,
      "start": 21.9412,
      "duration": 0.2498,
      "velocity": 96,
      "chip": "ym2612"
    },
    {
      "channel": 3,
      "note": 74,
      "start": 21.942,
      "duration": 0.5,
      "velocity": 96,
      "chip": "ym2612"
    },
    {
      "channel": 4,
      "note": 61,
      "start": 21.9426,
      "duration": 0.249,
      "velocity": 127,
      "chip": "ym2612"
    },
    {
      "channel": 4,
      "note": 61,
      "start": 22.1922,
      "duration": 0.2504,
      "velocity": 127,
      "chip": "ym2612"
    },
    {
      "channel": 2,
      "note": 77,
      "start": 22.4418,
      "duration": 0.2344,
      "velocity": 96,
      "chip": "ym2612"
    },
    {
      "channel": 3,
      "note": 74,
      "start": 22.4424,
      "duration": 0.2345,
      "velocity": 96,
      "chip": "ym2612"
    },
    {
      "channel": 4,
      "note": 61,
      "start": 22.4431,
      "duration": 0.2346,
      "velocity": 127,
      "chip": "ym2612"
    },
    {
      "channel": 1,
      "note": 36,
      "start": 22.6757,
      "duration": 0.9846,
      "velocity": 103,
      "chip": "ym2612"
    },
    {
      "channel": 2,
      "note": 75,
      "start": 22.6768,
      "duration": 0.9843,
      "velocity": 96,
      "chip": "ym2612"
    },
    {
      "channel": 3,
      "note": 70,
      "start": 22.6776,
      "duration": 0.984,
      "velocity": 96,
      "chip": "ym2612"
    },
    {
      "channel": 4,
      "note": 56,
      "start": 22.6782,
      "duration": 0.2481,
      "velocity": 127,
      "chip": "ym2612"
    },
    {
      "channel": 0,
      "note": 87,
      "start": 22.9251,
      "duration": 0.2497,
      "velocity": 113,
      "chip": "ym2612"
    },
    {
      "channel": 4,
      "note": 61,
      "start": 22.9269,
      "duration": 0.2498,
      "velocity": 127,
      "chip": "ym2612"
    },
    {
      "channel": 5,
      "note": 87,
      "start": 23.0436,
      "duration": 0.2497,
      "velocity": 113,
      "chip": "ym2612"
    },
    {
      "channel": 0,
      "note": 89,
      "start": 23.1754,
      "duration": 0.2501,
      "velocity": 113,
      "chip": "ym2612"
    },
    {
      "channel": 4,
      "note": 56,
      "start": 23.1772,
      "duration": 0.2502,
      "velocity": 127,
      "chip": "ym2612"
    },
    {
      "channel": 5,
      "note": 89,
      "start": 23.2939,
      "duration": 0.2501,
      "velocity": 113,
      "chip": "ym2612"
    },
    {
      "channel": 0,
      "note": 91,
      "start": 23.4261,
      "duration": 0.233,
      "velocity": 113,
      "chip": "ym2612"
    },
    {
      "channel": 4,
      "note": 61,
      "start": 23.4279,
      "duration": 0.234,
      "velocity": 127,
      "chip": "ym2612"
    },
    {
      "channel": 5,
      "note": 91,
      "start": 23.5447,
      "duration": 0.249,
      "velocity": 113,
      "chip": "ym2612"
    },
    {
      "channel": 0,
      "note": 92,
      "start": 23.6597,
      "duration": 0.2493,
      "velocity": 113,
      "chip": "ym2612"
    },
    {
      "channel": 1,
      "note": 29,
      "start": 23.6609,
      "duration": 0.9836,
      "velocity": 103,
      "chip": "ym2612"
    },
    {
      "channel": 4,
      "note": 56,
      "start": 23.6625,
      "duration": 0.2479,
      "velocity": 127,
      "chip": "ym2612"
    },
    {
      "channel": 5,
      "note": 92,
      "start": 23.7943,
      "duration": 0.2494,
      "velocity": 113,
      "chip": "ym2612"
    },
    {
      "channel": 0,
      "note": 87,
      "start": 23.9097,
      "duration": 0.2497,
      "velocity": 113,
      "chip": "ym2612"
    },
    {
      "channel": 4,
      "note": 61,
      "start": 23.9109,
      "duration": 0.2498,
      "velocity": 127,
      "chip": "ym2612"
    },
    {
      "channel": 5,
      "note": 87,
      "start": 24.0443,
      "duration": 0.233,
      "velocity": 113,
      "chip": "ym2612"
    },
    {
      "channel": 0,
      "note": 86,
      "start": 24.16,
      "duration": 0.2497,
      "velocity": 113,
      "chip": "ym2612"
    },
    {
      "channel": 4,
      "note": 61,
      "start": 24.1612,
      "duration": 0.2515,
      "velocity": 127,
      "chip": "ym2612"
    },
    {
      "channel": 5,
      "note": 86,
      "start": 24.2779,
      "duration": 0.2502,
      "velocity": 113,
      "chip": "ym2612"
    },
    {
      "channel": 0,
      "note": 84,
      "start": 24.4103,
      "duration": 0.233,
      "velocity": 113,
      "chip": "ym2612"
    },
    {
      "channel": 2,
      "note": 79,
      "start": 24.4118,
      "duration": 0.2334,
      "velocity": 96,
      "chip": "ym2612"
    },
    {
      "channel": 3,
      "note": 75,
      "start": 24.4126,
      "duration": 0.2333,
      "velocity": 96,
      "chip": "ym2612"
    },
    {
      "channel": 4,
      "note": 61,
      "start": 24.4132,
      "duration": 0.2334,
      "velocity": 127,
      "chip": "ym2612"
    },
    {
      "channel": 5,
      "note": 84,
      "start": 24.5288,
      "duration": 0.2495,
      "velocity": 113,
      "chip": "ym2612"
    },
    {
      "channel": 0,
      "note": 86,
      "start": 24.6439,
      "duration": 0.2497,
      "velocity": 113,
      "chip": "ym2612"
    },
    {
      "channel": 1,
      "note": 34,
      "start": 24.6451,
      "duration": 1.0034,
      "velocity": 103,
      "chip": "ym2612"
    },
    {
      "channel": 2,
      "note": 77,
      "start": 24.6458,
      "duration": 1.0061,
      "velocity": 96,
      "chip": "ym2612"
    },
    {
      "channel": 3,
      "note": 74,
      "start": 24.6465,
      "duration": 1.0061,
      "velocity": 96,
      "chip": "ym2612"
    },
    {
      "channel": 4,
      "note": 56,
      "start": 24.6472,
      "duration": 0.2483,
      "velocity": 127,
      "chip": "ym2612"
    },
    {
      "channel": 5,
      "note": 86,
      "start": 24.779,
      "duration": 0.2499,
      "velocity": 113,
      "chip": "ym2612"
    },
    {
      "channel": 0,
      "note": 82,
      "start": 24.8943,
      "duration": 0.2501,
      "velocity": 113,
      "chip": "ym2612"
    },
    {
      "channel": 4,
      "note": 61,
      "start": 24.8961,
      "duration": 0.2502,
      "velocity": 127,
      "chip": "ym2612"
    },
    {
      "channel": 5,
      "note": 82,
      "start": 25.0295,
      "duration": 0.2334,
      "velocity": 113,
      "chip": "ym2612"
    },
    {
      "channel": 0,
      "note": 84,
      "start": 25.145,
      "duration": 0.2493,
      "velocity": 113,
      "chip": "ym2612"
    },
    {
      "channel": 4,
      "note": 56,
      "start": 25.1468,
      "duration": 0.2494,
      "velocity": 127,
      "chip": "ym2612"
    },
    {
      "channel": 5,
      "note": 84,
      "start": 25.2636,
      "duration": 0.2493,
      "velocity": 113,
      "chip": "ym2612"
    },
    {
      "channel": 0,
      "note": 86,
      "start": 25.3949,
      "duration": 0.2523,
      "velocity": 95,
      "chip": "ym2612"
    },
    {
      "channel": 4,
      "note": 61,
      "start": 25.3967,
      "duration": 0.2568,
      "velocity": 127,
      "chip": "ym2612"
    },
    {
      "channel": 5,
      "note": 86,
      "start": 25.5135,
      "duration": 0.2522,
      "velocity": 95,
      "chip": "ym2612"
    },
    {
      "channel": 0,
      "note": 72,
      "start": 25.6479,
      "duration": 0.9813,
      "velocity": 95,
      "chip": "ym2612"
    },
    {
      "channel": 1,
      "note": 32,
      "start": 25.649,
      "duration": 1.966,
      "velocity": 103,
      "chip": "ym2612"
    },
    {
      "channel": 2,
      "note": 63,
      "start": 25.6524,
      "duration": 0.2265,
      "velocity": 96,
      "chip": "ym2612"
    },
    {
      "channel": 3,
      "note": 75,
      "start": 25.6533,
      "duration": 0.978,
      "velocity": 96,
      "chip": "ym2612"
    },
    {
      "channel": 4,
      "note": 56,
      "start": 25.6541,
      "duration": 0.2258,
      "velocity": 127,
      "chip": "ym2612"
    },
    {
      "channel": 5,
      "note": 72,
      "start": 25.7663,
      "duration": 0.9817,
      "velocity": 95,
      "chip": "ym2612"
    },
    {
      "channel": 2,
      "note": 63,
      "start": 25.8793,
      "duration": 0.1332,
      "velocity": 96,
      "chip": "ym2612"
    },
    {
      "channel": 4,
      "note": 61,
      "start": 25.8804,
      "duration": 0.2501,
      "velocity": 127,
      "chip": "ym2612"
    },
    {
      "channel": 2,
      "note": 63,
      "start": 26.0131,
      "duration": 0.1163,
      "velocity": 96,
      "chip": "ym2612"
    },
    {
      "channel": 2,
      "note": 63,
      "start": 26.1299,
      "duration": 0.2498,
      "velocity": 96,
      "chip": "ym2612"
    },
    {
      "channel": 4,
      "note": 61,
      "start": 26.131,
      "duration": 0.2498,
      "velocity": 127,
      "chip": "ym2612"
    },
    {
      "channel": 2,
      "note": 63,
      "start": 26.3802,
      "duration": 0.2504,
      "velocity": 96,
      "chip": "ym2612"
    },
    {
      "channel": 4,
      "note": 61,
      "start": 26.3813,
      "duration": 0.2507,
      "velocity": 127,
      "chip": "ym2612"
    },
    {
      "channel": 0,
      "note": 75,
      "start": 26.6298,
      "duration": 0.4837,
      "velocity": 95,
      "chip": "ym2612"
    },
    {
      "channel": 2,
      "note": 63,
      "start": 26.6311,
      "duration": 0.1156,
      "velocity": 96,
      "chip": "ym2612"
    },
    {
      "channel": 3,
      "note": 72,
      "start": 26.6319,
      "duration": 0.9848,
      "velocity": 96,
      "chip": "ym2612"
    },
    {
      "channel": 4,
      "note": 61,
      "start": 26.6326,
      "duration": 0.2322,
      "velocity": 127,
      "chip": "ym2612"
    },
    {
      "channel": 2,
      "note": 63,
      "start": 26.7473,
      "duration": 0.1164,
      "velocity": 96,
      "chip": "ym2612"
    },
    {
      "channel": 5,
      "note": 75,
      "start": 26.7486,
      "duration": 0.5002,
      "velocity": 95,
      "chip": "ym2612"
    },
    {
      "channel": 2,
      "note": 63,
      "start": 26.8642,
      "duration": 0.2506,
      "velocity": 96,
      "chip": "ym2612"
    },
    {
      "channel": 4,
      "note": 61,
      "start": 26.8653,
      "duration": 0.2506,
      "velocity": 127,
      "chip": "ym2612"
    },
    {
      "channel": 0,
      "note": 80,
      "start": 27.1142,
      "duration": 0.5,
      "velocity": 95,
      "chip": "ym2612"
    },
    {
      "channel": 2,
      "note": 63,
      "start": 27.1153,
      "duration": 0.249,
      "velocity": 96,
      "chip": "ym2612"
    },
    {
      "channel": 4,
      "note": 61,
      "start": 27.1164,
      "duration": 0.249,
      "velocity": 127,
      "chip": "ym2612"
    },
    {
      "channel": 5,
      "note": 80,
      "start": 27.2495,
      "duration": 0.4831,
      "velocity": 95,
      "chip": "ym2612"
    },
    {
      "channel": 2,
      "note": 63,
      "start": 27.3648,
      "duration": 0.1163,
      "velocity": 96,
      "chip": "ym2612"
    },
    {
      "channel": 4,
      "note": 61,
      "start": 27.3659,
      "duration": 0.1163,
      "velocity": 127,
      "chip": "ym2612"
    },
    {
      "channel": 2,
      "note": 63,
      "start": 27.4816,
      "duration": 0.1339,
      "velocity": 96,
      "chip": "ym2612"
    },
    {
      "channel": 4,
      "note": 61,
      "start": 27.4827,
      "duration": 0.1347,
      "velocity": 127,
      "chip": "ym2612"
    },
    {
      "channel": 0,
      "note": 84,
      "start": 27.6148,
      "duration": 0.9836,
      "velocity": 95,
      "chip": "ym2612"
    },
    {
      "channel": 1,
      "note": 32,
      "start": 27.6154,
      "duration": 1.9687,
      "velocity": 103,
      "chip": "ym2612"
    },
    {
      "channel": 2,
      "note": 64,
      "start": 27.6161,
      "duration": 0.232,
      "velocity": 96,
      "chip": "ym2612"
    },
    {
      "channel": 3,
      "note": 76,
      "start": 27.6173,
      "duration": 0.9832,
      "velocity": 96,
      "chip": "ym2612"
    },
    {
      "channel": 4,
      "note": 56,
      "start": 27.618,
      "duration": 0.2311,
      "velocity": 127,
      "chip": "ym2612"
    },
    {
      "channel": 5,
      "note": 84,
      "start": 27.7332,
      "duration": 0.984,
      "velocity": 95,
      "chip": "ym2612"
    },
    {
      "channel": 2,
      "note": 64,
      "start": 27.8485,
      "duration": 0.1332,
      "velocity": 96,
      "chip": "ym2612"
    },
    {
      "channel": 4,
      "note": 61,
      "start": 27.8496,
      "duration": 0.1332,
      "velocity": 127,
      "chip": "ym2612"
    },
    {
      "channel": 2,
      "note": 64,
      "start": 27.9823,
      "duration": 0.1163,
      "velocity": 96,
      "chip": "ym2612"
    },
    {
      "channel": 4,
      "note": 61,
      "start": 27.9834,
      "duration": 0.1163,
      "velocity": 127,
      "chip": "ym2612"
    },
    {
      "channel": 2,
      "note": 64,
      "start": 28.0991,
      "duration": 0.2498,
      "velocity": 96,
      "chip": "ym2612"
    },
    {
      "channel": 4,
      "note": 61,
      "start": 28.1002,
      "duration": 0.2498,
      "velocity": 127,
      "chip": "ym2612"
    },
    {
      "channel": 2,
      "note": 64,
      "start": 28.3494,
      "duration": 0.2504,
      "velocity": 96,
      "chip": "ym2612"
    },
    {
      "channel": 4,
      "note": 61,
      "start": 28.3505,
      "duration": 0.2507,
      "velocity": 127,
      "chip": "ym2612"
    },
    {
      "channel": 0,
      "note": 82,
      "start": 28.599,
      "duration": 0.4833,
      "velocity": 95,
      "chip": "ym2612"
    },
    {
      "channel": 2,
      "note": 64,
      "start": 28.6003,
      "duration": 0.1156,
      "velocity": 96,
      "chip": "ym2612"
    },
    {
      "channel": 3,
      "note": 72,
      "start": 28.6011,
      "duration": 0.9851,
      "velocity": 96,
      "chip": "ym2612"
    },
    {
      "channel": 4,
      "note": 61,
      "start": 28.6018,
      "duration": 0.2493,
      "velocity": 127,
      "chip": "ym2612"
    },
    {
      "channel": 2,
      "note": 64,
      "start": 28.7165,
      "duration": 0.1335,
      "velocity": 96,
      "chip": "ym2612"
    },
    {
      "channel": 5,
      "note": 82,
      "start": 28.7179,
      "duration": 0.4998,
      "velocity": 95,
      "chip": "ym2612"
    },
    {
      "channel": 2,
      "note": 64,
      "start": 28.8505,
      "duration": 0.2331,
      "velocity": 96,
      "chip": "ym2612"
    },
    {
      "channel": 4,
      "note": 61,
      "start": 28.8516,
      "duration": 0.2331,
      "velocity": 127,
      "chip": "ym2612"
    },
    {
      "channel": 0,
      "note": 80,
      "start": 29.083,
      "duration": 0.5004,
      "velocity": 95,
      "chip": "ym2612"
    },
    {
      "channel": 2,
      "note": 64,
      "start": 29.0841,
      "duration": 0.2494,
      "velocity": 96,
      "chip": "ym2612"
    },
    {
      "channel": 4,
      "note": 61,
      "start": 29.0852,
      "duration": 0.2494,
      "velocity": 127,
      "chip": "ym2612"
    },
    {
      "channel": 5,
      "note": 80,
      "start": 29.2183,
      "duration": 0.4835,
      "velocity": 95,
      "chip": "ym2612"
    },
    {
      "channel": 2,
      "note": 64,
      "start": 29.334,
      "duration": 0.1163,
      "velocity": 96,
      "chip": "ym2612"
    },
    {
      "channel": 4,
      "note": 61,
      "start": 29.3351,
      "duration": 0.2519,
      "velocity": 127,
      "chip": "ym2612"
    },
    {
      "channel": 2,
      "note": 64,
      "start": 29.4508,
      "duration": 0.1343,
      "velocity": 96,
      "chip": "ym2612"
    },
    {
      "channel": 0,
      "note": 84,
      "start": 29.584,
      "duration": 0.9836,
      "velocity": 95,
      "chip": "ym2612"
    },
    {
      "channel": 1,
      "note": 32,
      "start": 29.5846,
      "duration": 1.9687,
      "velocity": 103,
      "chip": "ym2612"
    },
    {
      "channel": 2,
      "note": 65,
      "start": 29.5857,
      "duration": 0.2484,
      "velocity": 96,
      "chip": "ym2612"
    },
    {
      "channel": 3,
      "note": 77,
      "start": 29.5869,
      "duration": 0.9828,
      "velocity": 96,
      "chip": "ym2612"
    },
    {
      "channel": 4,
      "note": 56,
      "start": 29.5876,
      "duration": 0.2475,
      "velocity": 127,
      "chip": "ym2612"
    },
    {
      "channel": 5,
      "note": 84,
      "start": 29.7024,
      "duration": 0.984,
      "velocity": 95,
      "chip": "ym2612"
    },
    {
      "channel": 2,
      "note": 65,
      "start": 29.8345,
      "duration": 0.1164,
      "velocity": 96,
      "chip": "ym2612"
    },
    {
      "channel": 4,
      "note": 61,
      "start": 29.8356,
      "duration": 0.1164,
      "velocity": 127,
      "chip": "ym2612"
    },
    {
      "channel": 2,
      "note": 65,
      "start": 29.9515,
      "duration": 0.1163,
      "velocity": 96,
      "chip": "ym2612"
    },
    {
      "channel": 4,
      "note": 61,
      "start": 29.9526,
      "duration": 0.1163,
      "velocity": 127,
      "chip": "ym2612"
    },
    {
      "channel": 2,
      "note": 65,
      "start": 30.0683,
      "duration": 0.2502,
      "velocity": 96,
      "chip": "ym2612"
    },
    {
      "channel": 4,
      "note": 61,
      "start": 30.0695,
      "duration": 0.2501,
      "velocity": 127,
      "chip": "ym2612"
    },
    {
      "channel": 2,
      "note": 65,
      "start": 30.319,
      "duration": 0.25,
      "velocity": 96,
      "chip": "ym2612"
    },
    {
      "channel": 4,
      "note": 61,
      "start": 30.3201,
      "duration": 0.2503,
      "velocity": 127,
      "chip": "ym2612"
    },
    {
      "channel": 0,
      "note": 82,
      "start": 30.5682,
      "duration": 0.4833,
      "velocity": 95,
      "chip": "ym2612"
    },
    {
      "channel": 2,
      "note": 65,
      "start": 30.5695,
      "duration": 0.1156,
      "velocity": 96,
      "chip": "ym2612"
    },
    {
      "channel": 3,
      "note": 72,
      "start": 30.5703,
      "duration": 0.9849,
      "velocity": 96,
      "chip": "ym2612"
    },
    {
      "channel": 4,
      "note": 61,
      "start": 30.571,
      "duration": 0.2488,
      "velocity": 127,
      "chip": "ym2612"
    },
    {
      "channel": 2,
      "note": 65,
      "start": 30.6856,
      "duration": 0.1331,
      "velocity": 96,
      "chip": "ym2612"
    },
    {
      "channel": 5,
      "note": 82,
      "start": 30.6871,
      "duration": 0.5002,
      "velocity": 95,
      "chip": "ym2612"
    },
    {
      "channel": 2,
      "note": 65,
      "start": 30.8193,
      "duration": 0.2335,
      "velocity": 96,
      "chip": "ym2612"
    },
    {
      "channel": 4,
      "note": 61,
      "start": 30.8204,
      "duration": 0.2335,
      "velocity": 127,
      "chip": "ym2612"
    },
    {
      "channel": 0,
      "note": 80,
      "start": 31.0522,
      "duration": 0.5004,
      "velocity": 95,
      "chip": "ym2612"
    },
    {
      "channel": 2,
      "note": 65,
      "start": 31.0533,
      "duration": 0.2494,
      "velocity": 96,
      "chip": "ym2612"
    },
    {
      "channel": 4,
      "note": 61,
      "start": 31.0544,
      "duration": 0.1321,
      "velocity": 127,
      "chip": "ym2612"
    },
    {
      "channel": 4,
      "note": 61,
      "start": 31.1871,
      "duration": 0.1167,
      "velocity": 127,
      "chip": "ym2612"
    },
    {
      "channel": 5,
      "note": 80,
      "start": 31.1878,
      "duration": 0.4831,
      "velocity": 95,
      "chip": "ym2612"
    },
    {
      "channel": 2,
      "note": 65,
      "start": 31.3032,
      "duration": 0.133,
      "velocity": 96,
      "chip": "ym2612"
    },
    {
      "channel": 4,
      "note": 61,
      "start": 31.3043,
      "duration": 0.133,
      "velocity": 127,
      "chip": "ym2612"
    },
    {
      "channel": 2,
      "note": 65,
      "start": 31.4368,
      "duration": 0.1173,
      "velocity": 96,
      "chip": "ym2612"
    },
    {
      "channel": 4,
      "note": 61,
      "start": 31.4378,
      "duration": 0.1181,
      "velocity": 127,
      "chip": "ym2612"
    },
    {
      "channel": 0,
      "note": 84,
      "start": 31.5532,
      "duration": 0.9836,
      "velocity": 95,
      "chip": "ym2612"
    },
    {
      "channel": 1,
      "note": 33,
      "start": 31.554,
      "duration": 1.9713,
      "velocity": 103,
      "chip": "ym2612"
    },
    {
      "channel": 2,
      "note": 66,
      "start": 31.5546,
      "duration": 0.2487,
      "velocity": 96,
      "chip": "ym2612"
    },
    {
      "channel": 3,
      "note": 78,
      "start": 31.5558,
      "duration": 0.9831,
      "velocity": 96,
      "chip": "ym2612"
    },
    {
      "channel": 4,
      "note": 56,
      "start": 31.5565,
      "duration": 0.2478,
      "velocity": 127,
      "chip": "ym2612"
    },
    {
      "channel": 5,
      "note": 84,
      "start": 31.6716,
      "duration": 0.984,
      "velocity": 95,
      "chip": "ym2612"
    },
    {
      "channel": 2,
      "note": 66,
      "start": 31.8037,
      "duration": 0.1164,
      "velocity": 96,
      "chip": "ym2612"
    },
    {
      "channel": 4,
      "note": 61,
      "start": 31.8049,
      "duration": 0.1164,
      "velocity": 127,
      "chip": "ym2612"
    },
    {
      "channel": 2,
      "note": 66,
      "start": 31.9207,
      "duration": 0.133,
      "velocity": 96,
      "chip": "ym2612"
    },
    {
      "channel": 4,
      "note": 61,
      "start": 31.9218,
      "duration": 0.133,
      "velocity": 127,
      "chip": "ym2612"
    },
    {
      "channel": 2,
      "note": 66,
      "start": 32.0542,
      "duration": 0.2331,
      "velocity": 96,
      "chip": "ym2612"
    },
    {
      "channel": 4,
      "note": 61,
      "start": 32.0553,
      "duration": 0.2331,
      "velocity": 127,
      "chip": "ym2612"
    },
    {
      "channel": 2,
      "note": 66,
      "start": 32.2878,
      "duration": 0.2504,
      "velocity": 96,
      "chip": "ym2612"
    },
    {
      "channel": 4,
      "note": 61,
      "start": 32.2889,
      "duration": 0.2507,
      "velocity": 127,
      "chip": "ym2612"
    },
    {
      "channel": 0,
      "note": 86,
      "start": 32.5374,
      "duration": 0.5004,
      "velocity": 95,
      "chip": "ym2612"
    },
    {
      "channel": 2,
      "note": 66,
      "start": 32.5387,
      "duration": 0.1156,
      "velocity": 96,
      "chip": "ym2612"
    },
    {
      "channel": 3,
      "note": 72,
      "start": 32.5395,
      "duration": 0.9901,
      "velocity": 96,
      "chip": "ym2612"
    },
    {
      "channel": 4,
      "note": 61,
      "start": 32.5402,
      "duration": 0.2493,
      "velocity": 127,
      "chip": "ym2612"
    },
    {
      "channel": 2,
      "note": 66,
      "start": 32.6549,
      "duration": 0.1335,
      "velocity": 96,
      "chip": "ym2612"
    },
    {
      "channel": 5,
      "note": 86,
      "start": 32.6563,
      "duration": 0.5002,
      "velocity": 95,
      "chip": "ym2612"
    },
    {
      "channel": 2,
      "note": 66,
      "start": 32.7889,
      "duration": 0.2502,
      "velocity": 96,
      "chip": "ym2612"
    },
    {
      "channel": 4,
      "note": 61,
      "start": 32.79,
      "duration": 0.2501,
      "velocity": 127,
      "chip": "ym2612"
    },
    {
      "channel": 0,
      "note": 87,
      "start": 33.0385,
      "duration": 0.4856,
      "velocity": 101,
      "chip": "ym2612"
    },
    {
      "channel": 2,
      "note": 66,
      "start": 33.0395,
      "duration": 0.2323,
      "velocity": 96,
      "chip": "ym2612"
    },
    {
      "channel": 4,
      "note": 61,
      "start": 33.0407,
      "duration": 0.4897,
      "velocity": 127,
      "chip": "ym2612"
    },
    {
      "channel": 5,
      "note": 87,
      "start": 33.1571,
      "duration": 0.5019,
      "velocity": 101,
      "chip": "ym2612"
    },
    {
      "channel": 2,
      "note": 66,
      "start": 33.2724,
      "duration": 0.133,
      "velocity": 96,
      "chip": "ym2612"
    },
    {
      "channel": 2,
      "note": 66,
      "start": 33.4059,
      "duration": 0.1228,
      "velocity": 101,
      "chip": "ym2612"
    },
    {
      "channel": 0,
      "note": 91,
      "start": 33.5247,
      "duration": 0.0968,
      "velocity": 101,
      "chip": "ym2612"
    },
    {
      "channel": 1,
      "note": 34,
      "start": 33.5258,
      "duration": 1.9655,
      "velocity": 103,
      "chip": "ym2612"
    },
    {
      "channel": 2,
      "note": 63,
      "start": 33.5293,
      "duration": 1.9628,
      "velocity": 101,
      "chip": "ym2612"
    },
    {
      "channel": 3,
      "note": 79,
      "start": 33.5302,
      "duration": 1.9626,
      "velocity": 96,
      "chip": "ym2612"
    },
    {
      "channel": 4,
      "note": 56,
      "start": 33.5309,
      "duration": 0.2427,
      "velocity": 127,
      "chip": "ym2612"
    },
    {
      "channel": 5,
      "note": 91,
      "start": 33.6596,
      "duration": 0.0968,
      "velocity": 101,
      "chip": "ym2612"
    },
    {
      "channel": 0,
      "note": 87,
      "start": 33.7724,
      "duration": 0.1162,
      "velocity": 101,
      "chip": "ym2612"
    },
    {
      "channel": 4,
      "note": 61,
      "start": 33.7742,
      "duration": 0.1163,
      "velocity": 127,
      "chip": "ym2612"
    },
    {
      "channel": 0,
      "note": 84,
      "start": 33.8892,
      "duration": 0.1329,
      "velocity": 101,
      "chip": "ym2612"
    },
    {
      "channel": 4,
      "note": 61,
      "start": 33.891,
      "duration": 0.133,
      "velocity": 127,
      "chip": "ym2612"
    },
    {
      "channel": 5,
      "note": 87,
      "start": 33.8918,
      "duration": 0.1329,
      "velocity": 101,
      "chip": "ym2612"
    },
    {
      "channel": 0,
      "note": 82,
      "start": 34.0227,
      "duration": 0.0995,
      "velocity": 101,
      "chip": "ym2612"
    },
    {
      "channel": 4,
      "note": 61,
      "start": 34.0245,
      "duration": 0.2331,
      "velocity": 127,
      "chip": "ym2612"
    },
    {
      "channel": 5,
      "note": 84,
      "start": 34.0253,
      "duration": 0.1151,
      "velocity": 101,
      "chip": "ym2612"
    },
    {
      "channel": 5,
      "note": 82,
      "start": 34.141,
      "duration": 0.0995,
      "velocity": 101,
      "chip": "ym2612"
    },
    {
      "channel": 0,
      "note": 79,
      "start": 34.2563,
      "duration": 0.1162,
      "velocity": 101,
      "chip": "ym2612"
    },
    {
      "channel": 4,
      "note": 61,
      "start": 34.2581,
      "duration": 0.2504,
      "velocity": 127,
      "chip": "ym2612"
    },
    {
      "channel": 5,
      "note": 79,
      "start": 34.3913,
      "duration": 0.0995,
      "velocity": 101,
      "chip": "ym2612"
    },
    {
      "channel": 0,
      "note": 75,
      "start": 34.5066,
      "duration": 0.0995,
      "velocity": 101,
      "chip": "ym2612"
    },
    {
      "channel": 4,
      "note": 56,
      "start": 34.5091,
      "duration": 0.2491,
      "velocity": 127,
      "chip": "ym2612"
    },
    {
      "channel": 5,
      "note": 75,
      "start": 34.6417,
      "duration": 0.0995,
      "velocity": 101,
      "chip": "ym2612"
    },
    {
      "channel": 0,
      "note": 72,
      "start": 34.757,
      "duration": 0.0995,
      "velocity": 101,
      "chip": "ym2612"
    },
    {
      "channel": 4,
      "note": 61,
      "start": 34.7588,
      "duration": 0.2498,
      "velocity": 127,
      "chip": "ym2612"
    },
    {
      "channel": 5,
      "note": 72,
      "start": 34.8753,
      "duration": 0.1162,
      "velocity": 101,
      "chip": "ym2612"
    },
    {
      "channel": 0,
      "note": 70,
      "start": 35.0073,
      "duration": 0.0995,
      "velocity": 101,
      "chip": "ym2612"
    },
    {
      "channel": 4,
      "note": 56,
      "start": 35.0091,
      "duration": 0.2498,
      "velocity": 127,
      "chip": "ym2612"
    },
    {
      "channel": 5,
      "note": 70,
      "start": 35.1256,
      "duration": 0.0995,
      "velocity": 101,
      "chip": "ym2612"
    },
    {
      "channel": 0,
      "note": 67,
      "start": 35.2576,
      "duration": 0.1162,
      "velocity": 101,
      "chip": "ym2612"
    },
    {
      "channel": 4,
      "note": 61,
      "start": 35.2594,
      "duration": 0.2343,
      "velocity": 127,
      "chip": "ym2612"
    },
    {
      "channel": 0,
      "note": 63,
      "start": 35.3744,
      "duration": 0.1162,
      "velocity": 101,
      "chip": "ym2612"
    },
    {
      "channel": 5,
      "note": 67,
      "start": 35.3766,
      "duration": 0.1178,
      "velocity": 101,
      "chip": "ym2612"
    },
    {
      "channel": 0,
      "note": 58,
      "start": 35.4912,
      "duration": 0.0995,
      "velocity": 101,
      "chip": "ym2612"
    },
    {
      "channel": 1,
      "note": 34,
      "start": 35.492,
      "duration": 1.9686,
      "velocity": 103,
      "chip": "ym2612"
    },
    {
      "channel": 2,
      "note": 62,
      "start": 35.4927,
      "duration": 1.969,
      "velocity": 101,
      "chip": "ym2612"
    },
    {
      "channel": 3,
      "note": 80,
      "start": 35.4935,
      "duration": 1.969,
      "velocity": 96,
      "chip": "ym2612"
    },
    {
      "channel": 4,
      "note": 56,
      "start": 35.4943,
      "duration": 0.2486,
      "velocity": 127,
      "chip": "ym2612"
    },
    {
      "channel": 5,
      "note": 63,
      "start": 35.495,
      "duration": 0.1304,
      "velocity": 101,
      "chip": "ym2612"
    },
    {
      "channel": 5,
      "note": 58,
      "start": 35.626,
      "duration": 0.0996,
      "velocity": 101,
      "chip": "ym2612"
    },
    {
      "channel": 0,
      "note": 60,
      "start": 35.7415,
      "duration": 0.1162,
      "velocity": 101,
      "chip": "ym2612"
    },
    {
      "channel": 4,
      "note": 61,
      "start": 35.7434,
      "duration": 0.1162,
      "velocity": 127,
      "chip": "ym2612"
    },
    {
      "channel": 0,
      "note": 62,
      "start": 35.8583,
      "duration": 0.1333,
      "velocity": 101,
      "chip": "ym2612"
    },
    {
      "channel": 4,
      "note": 61,
      "start": 35.8602,
      "duration": 0.1334,
      "velocity": 127,
      "chip": "ym2612"
    },
    {
      "channel": 5,
      "note": 60,
      "start": 35.8609,
      "duration": 0.1333,
      "velocity": 101,
      "chip": "ym2612"
    },
    {
      "channel": 0,
      "note": 63,
      "start": 35.9922,
      "duration": 0.1158,
      "velocity": 101,
      "chip": "ym2612"
    },
    {
      "channel": 4,
      "note": 61,
      "start": 35.9941,
      "duration": 0.2494,
      "velocity": 127,
      "chip": "ym2612"
    },
    {
      "channel": 5,
      "note": 62,
      "start": 35.9948,
      "duration": 0.1159,
      "velocity": 101,
      "chip": "ym2612"
    },
    {
      "channel": 0,
      "note": 65,
      "start": 36.1087,
      "duration": 0.1329,
      "velocity": 101,
      "chip": "ym2612"
    },
    {
      "channel": 5,
      "note": 63,
      "start": 36.1113,
      "duration": 0.1329,
      "velocity": 101,
      "chip": "ym2612"
    },
    {
      "channel": 0,
      "note": 67,
      "start": 36.2422,
      "duration": 0.1162,
      "velocity": 101,
      "chip": "ym2612"
    },
    {
      "channel": 4,
      "note": 61,
      "start": 36.244,
      "duration": 0.2337,
      "velocity": 127,
      "chip": "ym2612"
    },
    {
      "channel": 5,
      "note": 65,
      "start": 36.2448,
      "duration": 0.1158,
      "velocity": 101,
      "chip": "ym2612"
    },
    {
      "channel": 0,
      "note": 68,
      "start": 36.359,
      "duration": 0.1162,
      "velocity": 101,
      "chip": "ym2612"
    },
    {
      "channel": 5,
      "note": 67,
      "start": 36.3612,
      "duration": 0.1172,
      "velocity": 101,
      "chip": "ym2612"
    },
    {
      "channel": 0,
      "note": 70,
      "start": 36.4758,
      "duration": 0.1329,
      "velocity": 101,
      "chip": "ym2612"
    },
    {
      "channel": 4,
      "note": 56,
      "start": 36.4783,
      "duration": 0.2491,
      "velocity": 127,
      "chip": "ym2612"
    },
    {
      "channel": 5,
      "note": 68,
      "start": 36.479,
      "duration": 0.1319,
      "velocity": 101,
      "chip": "ym2612"
    },
    {
      "channel": 0,
      "note": 72,
      "start": 36.6093,
      "duration": 0.1162,
      "velocity": 101,
      "chip": "ym2612"
    },
    {
      "channel": 5,
      "note": 70,
      "start": 36.6116,
      "duration": 0.1165,
      "velocity": 101,
      "chip": "ym2612"
    },
    {
      "channel": 0,
      "note": 70,
      "start": 36.7261,
      "duration": 0.1333,
      "velocity": 101,
      "chip": "ym2612"
    },
    {
      "channel": 4,
      "note": 61,
      "start": 36.728,
      "duration": 0.2498,
      "velocity": 127,
      "chip": "ym2612"
    },
    {
      "channel": 5,
      "note": 72,
      "start": 36.7287,
      "duration": 0.1329,
      "velocity": 101,
      "chip": "ym2612"
    },
    {
      "channel": 0,
      "note": 72,
      "start": 36.86,
      "duration": 0.1158,
      "velocity": 101,
      "chip": "ym2612"
    },
    {
      "channel": 5,
      "note": 70,
      "start": 36.8622,
      "duration": 0.1166,
      "velocity": 101,
      "chip": "ym2612"
    },
    {
      "channel": 0,
      "note": 70,
      "start": 36.9765,
      "duration": 0.0995,
      "velocity": 101,
      "chip": "ym2612"
    },
    {
      "channel": 4,
      "note": 56,
      "start": 36.9783,
      "duration": 0.2498,
      "velocity": 127,
      "chip": "ym2612"
    },
    {
      "channel": 5,
      "note": 72,
      "start": 36.9795,
      "duration": 0.1147,
      "velocity": 101,
      "chip": "ym2612"
    },
    {
      "channel": 5,
      "note": 70,
      "start": 37.0948,
      "duration": 0.0995,
      "velocity": 101,
      "chip": "ym2612"
    },
    {
      "channel": 0,
      "note": 79,
      "start": 37.2268,
      "duration": 0.0995,
      "velocity": 101,
      "chip": "ym2612"
    },
    {
      "channel": 4,
      "note": 61,
      "start": 37.2286,
      "duration": 0.2347,
      "velocity": 127,
      "chip": "ym2612"
    },
    {
      "channel": 5,
      "note": 79,
      "start": 37.3451,
      "duration": 0.0995,
      "velocity": 101,
      "chip": "ym2612"
    },
    {
      "channel": 0,
      "note": 75,
      "start": 37.4604,
      "duration": 0.1162,
      "velocity": 101,
      "chip": "ym2612"
    },
    {
      "channel": 1,
      "note": 39,
      "start": 37.4612,
      "duration": 1.9857,
      "velocity": 103,
      "chip": "ym2612"
    },
    {
      "channel": 2,
      "note": 63,
      "start": 37.4623,
      "duration": 1.9853,
      "velocity": 101,
      "chip": "ym2612"
    },
    {
      "channel": 3,
      "note": 79,
      "start": 37.4631,
      "duration": 1.9853,
      "velocity": 96,
      "chip": "ym2612"
    },
    {
      "channel": 4,
      "note": 56,
      "start": 37.4639,
      "duration": 0.248,
      "velocity": 127,
      "chip": "ym2612"
    },
    {
      "channel": 5,
      "note": 75,
      "start": 37.5952,
      "duration": 0.0996,
      "velocity": 101,
      "chip": "ym2612"
    },
    {
      "channel": 0,
      "note": 75,
      "start": 37.7106,
      "duration": 0.133,
      "velocity": 101,
      "chip": "ym2612"
    },
    {
      "channel": 4,
      "note": 61,
      "start": 37.7124,
      "duration": 0.1331,
      "velocity": 127,
      "chip": "ym2612"
    },
    {
      "channel": 0,
      "note": 75,
      "start": 37.8443,
      "duration": 0.1162,
      "velocity": 101,
      "chip": "ym2612"
    },
    {
      "channel": 4,
      "note": 61,
      "start": 37.8461,
      "duration": 0.1163,
      "velocity": 127,
      "chip": "ym2612"
    },
    {
      "channel": 5,
      "note": 75,
      "start": 37.8467,
      "duration": 0.1163,
      "velocity": 101,
      "chip": "ym2612"
    },
    {
      "channel": 0,
      "note": 75,
      "start": 37.9611,
      "duration": 0.0995,
      "velocity": 101,
      "chip": "ym2612"
    },
    {
      "channel": 4,
      "note": 61,
      "start": 37.9629,
      "duration": 0.2497,
      "velocity": 127,
      "chip": "ym2612"
    },
    {
      "channel": 5,
      "note": 75,
      "start": 37.9637,
      "duration": 0.1151,
      "velocity": 101,
      "chip": "ym2612"
    },
    {
      "channel": 5,
      "note": 75,
      "start": 38.0794,
      "duration": 0.1162,
      "velocity": 101,
      "chip": "ym2612"
    },
    {
      "channel": 0,
      "note": 75,
      "start": 38.2112,
      "duration": 0.0997,
      "velocity": 101,
      "chip": "ym2612"
    },
    {
      "channel": 4,
      "note": 61,
      "start": 38.2131,
      "duration": 0.2504,
      "velocity": 127,
      "chip": "ym2612"
    },
    {
      "channel": 5,
      "note": 75,
      "start": 38.3296,
      "duration": 0.0996,
      "velocity": 101,
      "chip": "ym2612"
    },
    {
      "channel": 0,
      "note": 75,
      "start": 38.4616,
      "duration": 0.0997,
      "velocity": 101,
      "chip": "ym2612"
    },
    {
      "channel": 4,
      "note": 61,
      "start": 38.464,
      "duration": 0.2324,
      "velocity": 127,
      "chip": "ym2612"
    },
    {
      "channel": 5,
      "note": 75,
      "start": 38.5799,
      "duration": 0.0997,
      "velocity": 101,
      "chip": "ym2612"
    },
    {
      "channel": 0,
      "note": 75,
      "start": 38.6952,
      "duration": 0.0997,
      "velocity": 101,
      "chip": "ym2612"
    },
    {
      "channel": 4,
      "note": 61,
      "start": 38.697,
      "duration": 0.2498,
      "velocity": 127,
      "chip": "ym2612"
    },
    {
      "channel": 5,
      "note": 75,
      "start": 38.8302,
      "duration": 0.0997,
      "velocity": 101,
      "chip": "ym2612"
    },
    {
      "channel": 0,
      "note": 75,
      "start": 38.9455,
      "duration": 0.0997,
      "velocity": 101,
      "chip": "ym2612"
    },
    {
      "channel": 4,
      "note": 61,
      "start": 38.9473,
      "duration": 0.2498,
      "velocity": 127,
      "chip": "ym2612"
    },
    {
      "channel": 5,
      "note": 75,
      "start": 39.0639,
      "duration": 0.1163,
      "velocity": 101,
      "chip": "ym2612"
    },
    {
      "channel": 0,
      "note": 75,
      "start": 39.1959,
      "duration": 0.0997,
      "velocity": 101,
      "chip": "ym2612"
    },
    {
      "channel": 4,
      "note": 61,
      "start": 39.1977,
      "duration": 0.2515,
      "velocity": 127,
      "chip": "ym2612"
    },
    {
      "channel": 5,
      "note": 75,
      "start": 39.3142,
      "duration": 0.0996,
      "velocity": 101,
      "chip": "ym2612"
    },
    {
      "channel": 0,
      "note": 76,
      "start": 39.4463,
      "duration": 0.0995,
      "velocity": 101,
      "chip": "ym2612"
    },
    {
      "channel": 1,
      "note": 35,
      "start": 39.4475,
      "duration": 0.9834,
      "velocity": 103,
      "chip": "ym2612"
    },
    {
      "channel": 2,
      "note": 59,
      "start": 39.4482,
      "duration": 1.9686,
      "velocity": 101,
      "chip": "ym2612"
    },
    {
      "channel": 3,
      "note": 80,
      "start": 39.449,
      "duration": 0.9832,
      "velocity": 96,
      "chip": "ym2612"
    },
    {
      "channel": 4,
      "note": 56,
      "start": 39.4497,
      "duration": 0.2313,
      "velocity": 127,
      "chip": "ym2612"
    },
    {
      "channel": 5,
      "note": 76,
      "start": 39.5644,
      "duration": 0.0996,
      "velocity": 101,
      "chip": "ym2612"
    },
    {
      "channel": 0,
      "note": 76,
      "start": 39.6798,
      "duration": 0.133,
      "velocity": 101,
      "chip": "ym2612"
    },
    {
      "channel": 4,
      "note": 61,
      "start": 39.6815,
      "duration": 0.1332,
      "velocity": 127,
      "chip": "ym2612"
    },
    {
      "channel": 0,
      "note": 76,
      "start": 39.8135,
      "duration": 0.1162,
      "velocity": 101,
      "chip": "ym2612"
    },
    {
      "channel": 4,
      "note": 61,
      "start": 39.8153,
      "duration": 0.1163,
      "velocity": 127,
      "chip": "ym2612"
    },
    {
      "channel": 5,
      "note": 76,
      "start": 39.8159,
      "duration": 0.1164,
      "velocity": 101,
      "chip": "ym2612"
    },
    {
      "channel": 0,
      "note": 76,
      "start": 39.9303,
      "duration": 0.0995,
      "velocity": 101,
      "chip": "ym2612"
    },
    {
      "channel": 4,
      "note": 61,
      "start": 39.9321,
      "duration": 0.2496,
      "velocity": 127,
      "chip": "ym2612"
    },
    {
      "channel": 5,
      "note": 76,
      "start": 39.9329,
      "duration": 0.1318,
      "velocity": 101,
      "chip": "ym2612"
    },
    {
      "channel": 5,
      "note": 76,
      "start": 40.0653,
      "duration": 0.0995,
      "velocity": 101,
      "chip": "ym2612"
    },
    {
      "channel": 0,
      "note": 76,
      "start": 40.1805,
      "duration": 0.0997,
      "velocity": 101,
      "chip": "ym2612"
    },
    {
      "channel": 4,
      "note": 61,
      "start": 40.1823,
      "duration": 0.2507,
      "velocity": 127,
      "chip": "ym2612"
    },
    {
      "channel": 5,
      "note": 76,
      "start": 40.2988,
      "duration": 0.0997,
      "velocity": 101,
      "chip": "ym2612"
    },
    {
      "channel": 0,
      "note": 76,
      "start": 40.4308,
      "duration": 0.0997,
      "velocity": 101,
      "chip": "ym2612"
    },
    {
      "channel": 1,
      "note": 40,
      "start": 40.4315,
      "duration": 0.2334,
      "velocity": 103,
      "chip": "ym2612"
    },
    {
      "channel": 3,
      "note": 80,
      "start": 40.4328,
      "duration": 0.9848,
      "velocity": 96,
      "chip": "ym2612"
    },
    {
      "channel": 4,
      "note": 61,
      "start": 40.4335,
      "duration": 0.4834,
      "velocity": 127,
      "chip": "ym2612"
    },
    {
      "channel": 5,
      "note": 76,
      "start": 40.5489,
      "duration": 0.0998,
      "velocity": 101,
      "chip": "ym2612"
    },
    {
      "channel": 0,
      "note": 76,
      "start": 40.6644,
      "duration": 0.1163,
      "velocity": 101,
      "chip": "ym2612"
    },
    {
      "channel": 1,
      "note": 40,
      "start": 40.6655,
      "duration": 0.2499,
      "velocity": 103,
      "chip": "ym2612"
    },
    {
      "channel": 5,
      "note": 76,
      "start": 40.7993,
      "duration": 0.0997,
      "velocity": 101,
      "chip": "ym2612"
    },
    {
      "channel": 0,
      "note": 78,
      "start": 40.9153,
      "duration": 0.0991,
      "velocity": 101,
      "chip": "ym2612"
    },
    {
      "channel": 1,
      "note": 40,
      "start": 40.916,
      "duration": 0.2493,
      "velocity": 103,
      "chip": "ym2612"
    },
    {
      "channel": 4,
      "note": 61,
      "start": 40.9174,
      "duration": 0.5009,
      "velocity": 127,
      "chip": "ym2612"
    },
    {
      "channel": 5,
      "note": 78,
      "start": 41.0502,
      "duration": 0.0991,
      "velocity": 101,
      "chip": "ym2612"
    },
    {
      "channel": 0,
      "note": 80,
      "start": 41.1652,
      "duration": 0.0995,
      "velocity": 101,
      "chip": "ym2612"
    },
    {
      "channel": 5,
      "note": 80,
      "start": 41.2832,
      "duration": 0.1161,
      "velocity": 101,
      "chip": "ym2612"
    },
    {
      "channel": 0,
      "note": 81,
      "start": 41.4159,
      "duration": 0.0991,
      "velocity": 101,
      "chip": "ym2612"
    },
    {
      "channel": 1,
      "note": 33,
      "start": 41.4167,
      "duration": 0.2492,
      "velocity": 103,
      "chip": "ym2612"
    },
    {
      "channel": 2,
      "note": 57,
      "start": 41.4174,
      "duration": 0.4834,
      "velocity": 101,
      "chip": "ym2612"
    },
    {
      "channel": 3,
      "note": 81,
      "start": 41.4182,
      "duration": 0.4833,
      "velocity": 96,
      "chip": "ym2612"
    },
    {
      "channel": 4,
      "note": 61,
      "start": 41.4189,
      "duration": 0.248,
      "velocity": 127,
      "chip": "ym2612"
    },
    {
      "channel": 5,
      "note": 81,
      "start": 41.5341,
      "duration": 0.0992,
      "velocity": 101,
      "chip": "ym2612"
    },
    {
      "channel": 0,
      "note": 81,
      "start": 41.6657,
      "duration": 0.1167,
      "velocity": 101,
      "chip": "ym2612"
    },
    {
      "channel": 4,
      "note": 61,
      "start": 41.6673,
      "duration": 0.1167,
      "velocity": 127,
      "chip": "ym2612"
    },
    {
      "channel": 0,
      "note": 81,
      "start": 41.7831,
      "duration": 0.1158,
      "velocity": 101,
      "chip": "ym2612"
    },
    {
      "channel": 4,
      "note": 61,
      "start": 41.7845,
      "duration": 0.1178,
      "velocity": 127,
      "chip": "ym2612"
    },
    {
      "channel": 5,
      "note": 81,
      "start": 41.7851,
      "duration": 0.1183,
      "velocity": 101,
      "chip": "ym2612"
    },
    {
      "channel": 0,
      "note": 81,
      "start": 41.8995,
      "duration": 0.0995,
      "velocity": 101,
      "chip": "ym2612"
    },
    {
      "channel": 1,
      "note": 33,
      "start": 41.9006,
      "duration": 0.2492,
      "velocity": 103,
      "chip": "ym2612"
    },
    {
      "channel": 2,
      "note": 57,
      "start": 41.9014,
      "duration": 0.4995,
      "velocity": 101,
      "chip": "ym2612"
    },
    {
      "channel": 3,
      "note": 81,
      "start": 41.9022,
      "duration": 0.4994,
      "velocity": 96,
      "chip": "ym2612"
    },
    {
      "channel": 4,
      "note": 61,
      "start": 41.9029,
      "duration": 0.248,
      "velocity": 127,
      "chip": "ym2612"
    },
    {
      "channel": 5,
      "note": 81,
      "start": 41.904,
      "duration": 0.1296,
      "velocity": 101,
      "chip": "ym2612"
    },
    {
      "channel": 5,
      "note": 81,
      "start": 42.0343,
      "duration": 0.0996,
      "velocity": 101,
      "chip": "ym2612"
    },
    {
      "channel": 0,
      "note": 81,
      "start": 42.1497,
      "duration": 0.0996,
      "velocity": 101,
      "chip": "ym2612"
    },
    {
      "channel": 4,
      "note": 61,
      "start": 42.1514,
      "duration": 0.251,
      "velocity": 127,
      "chip": "ym2612"
    },
    {
      "channel": 5,
      "note": 81,
      "start": 42.2676,
      "duration": 0.1164,
      "velocity": 101,
      "chip": "ym2612"
    },
    {
      "channel": 0,
      "note": 81,
      "start": 42.4,
      "duration": 0.0997,
      "velocity": 101,
      "chip": "ym2612"
    },
    {
      "channel": 1,
      "note": 33,
      "start": 42.4007,
      "duration": 0.2492,
      "velocity": 103,
      "chip": "ym2612"
    },
    {
      "channel": 2,
      "note": 57,
      "start": 42.4015,
      "duration": 0.4826,
      "velocity": 101,
      "chip": "ym2612"
    },
    {
      "channel": 3,
      "note": 81,
      "start": 42.4022,
      "duration": 0.4821,
      "velocity": 96,
      "chip": "ym2612"
    },
    {
      "channel": 4,
      "note": 61,
      "start": 42.4029,
      "duration": 0.4817,
      "velocity": 127,
      "chip": "ym2612"
    },
    {
      "channel": 5,
      "note": 81,
      "start": 42.5181,
      "duration": 0.0998,
      "velocity": 101,
      "chip": "ym2612"
    },
    {
      "channel": 4,
      "note": 61,
      "start": 42.8852,
      "duration": 0.5108,
      "velocity": 127,
      "chip": "ym2612"
    },
    {
      "channel": 0,
      "note": 81,
      "start": 43.137,
      "duration": 0.1303,
      "velocity": 81,
      "chip": "ym2612"
    },
    {
      "channel": 0,
      "note": 85,
      "start": 43.2679,
      "duration": 0.1166,
      "velocity": 81,
      "chip": "ym2612"
    },
    {
      "channel": 5,
      "note": 81,
      "start": 43.2719,
      "duration": 0.1248,
      "velocity": 81,
      "chip": "ym2612"
    },
    {
      "channel": 0,
      "note": 88,
      "start": 43.3852,
      "duration": 0.2492,
      "velocity": 81,
      "chip": "ym2612"
    },
    {
      "channel": 1,
      "note": 33,
      "start": 43.3889,
      "duration": 0.2463,
      "velocity": 103,
      "chip": "ym2612"
    },
    {
      "channel": 2,
      "note": 61,
      "start": 43.3925,
      "duration": 1.9629,
      "velocity": 95,
      "chip": "ym2612"
    },
    {
      "channel": 4,
      "note": 76,
      "start": 43.3965,
      "duration": 0.4734,
      "velocity": 127,
      "chip": "ym2612"
    },
    {
      "channel": 5,
      "note": 85,
      "start": 43.3973,
      "duration": 0.1054,
      "velocity": 81,
      "chip": "ym2612"
    },
    {
      "channel": 5,
      "note": 88,
      "start": 43.5033,
      "duration": 0.249,
      "velocity": 81,
      "chip": "ym2612"
    },
    {
      "channel": 0,
      "note": 88,
      "start": 43.6351,
      "duration": 0.233,
      "velocity": 81,
      "chip": "ym2612"
    },
    {
      "channel": 5,
      "note": 88,
      "start": 43.7529,
      "duration": 0.2499,
      "velocity": 81,
      "chip": "ym2612"
    },
    {
      "channel": 0,
      "note": 88,
      "start": 43.8687,
      "duration": 0.2497,
      "velocity": 81,
      "chip": "ym2612"
    },
    {
      "channel": 1,
      "note": 32,
      "start": 43.8694,
      "duration": 0.2498,
      "velocity": 103,
      "chip": "ym2612"
    },
    {
      "channel": 4,
      "note": 76,
      "start": 43.8705,
      "duration": 0.5005,
      "velocity": 127,
      "chip": "ym2612"
    },
    {
      "channel": 5,
      "note": 88,
      "start": 44.0035,
      "duration": 0.2494,
      "velocity": 81,
      "chip": "ym2612"
    },
    {
      "channel": 0,
      "note": 90,
      "start": 44.119,
      "duration": 0.2497,
      "velocity": 81,
      "chip": "ym2612"
    },
    {
      "channel": 5,
      "note": 90,
      "start": 44.2536,
      "duration": 0.2332,
      "velocity": 81,
      "chip": "ym2612"
    },
    {
      "channel": 0,
      "note": 88,
      "start": 44.3693,
      "duration": 0.5,
      "velocity": 81,
      "chip": "ym2612"
    },
    {
      "channel": 1,
      "note": 30,
      "start": 44.3701,
      "duration": 0.2494,
      "velocity": 103,
      "chip": "ym2612"
    },
    {
      "channel": 4,
      "note": 76,
      "start": 44.3716,
      "duration": 0.4995,
      "velocity": 127,
      "chip": "ym2612"
    },
    {
      "channel": 5,
      "note": 88,
      "start": 44.4875,
      "duration": 0.5,
      "velocity": 81,
      "chip": "ym2612"
    },
    {
      "channel": 0,
      "note": 88,
      "start": 44.8698,
      "duration": 0.2332,
      "velocity": 81,
      "chip": "ym2612"
    },
    {
      "channel": 1,
      "note": 28,
      "start": 44.8705,
      "duration": 0.2332,
      "velocity": 103,
      "chip": "ym2612"
    },
    {
      "channel": 4,
      "note": 76,
      "start": 44.8716,
      "duration": 0.2328,
      "velocity": 127,
      "chip": "ym2612"
    },
    {
      "channel": 5,
      "note": 88,
      "start": 44.9879,
      "duration": 0.25,
      "velocity": 81,
      "chip": "ym2612"
    },
    {
      "channel": 0,
      "note": 93,
      "start": 45.1036,
      "duration": 0.2497,
      "velocity": 81,
      "chip": "ym2612"
    },
    {
      "channel": 4,
      "note": 76,
      "start": 45.1048,
      "duration": 0.1324,
      "velocity": 127,
      "chip": "ym2612"
    },
    {
      "channel": 4,
      "note": 76,
      "start": 45.2378,
      "duration": 0.1217,
      "velocity": 127,
      "chip": "ym2612"
    },
    {
      "channel": 5,
      "note": 93,
      "start": 45.2386,
      "duration": 0.2328,
      "velocity": 81,
      "chip": "ym2612"
    },
    {
      "channel": 0,
      "note": 88,
      "start": 45.3539,
      "duration": 0.5,
      "velocity": 81,
      "chip": "ym2612"
    },
    {
      "channel": 1,
      "note": 33,
      "start": 45.3553,
      "duration": 0.2487,
      "velocity": 103,
      "chip": "ym2612"
    },
    {
      "channel": 2,
      "note": 61,
      "start": 45.3561,
      "duration": 0.9839,
      "velocity": 95,
      "chip": "ym2612"
    },
    {
      "channel": 4,
      "note": 76,
      "start": 45.36,
      "duration": 0.4957,
      "velocity": 127,
      "chip": "ym2612"
    },
    {
      "channel": 5,
      "note": 88,
      "start": 45.4721,
      "duration": 0.5,
      "velocity": 81,
      "chip": "ym2612"
    },
    {
      "channel": 0,
      "note": 88,
      "start": 45.8544,
      "duration": 0.2332,
      "velocity": 81,
      "chip": "ym2612"
    },
    {
      "channel": 1,
      "note": 32,
      "start": 45.8551,
      "duration": 0.2332,
      "velocity": 103,
      "chip": "ym2612"
    },
    {
      "channel": 4,
      "note": 76,
      "start": 45.8562,
      "duration": 0.4848,
      "velocity": 127,
      "chip": "ym2612"
    },
    {
      "channel": 5,
      "note": 88,
      "start": 45.9725,
      "duration": 0.2496,
      "velocity": 81,
      "chip": "ym2612"
    },
    {
      "channel": 0,
      "note": 86,
      "start": 46.0882,
      "duration": 0.2497,
      "velocity": 81,
      "chip": "ym2612"
    },
    {
      "channel": 5,
      "note": 86,
      "start": 46.2228,
      "duration": 0.2499,
      "velocity": 81,
      "chip": "ym2612"
    },
    {
      "channel": 0,
      "note": 85,
      "start": 46.3385,
      "duration": 0.7336,
      "velocity": 81,
      "chip": "ym2612"
    },
    {
      "channel": 1,
      "note": 30,
      "start": 46.3393,
      "duration": 0.2494,
      "velocity": 103,
      "chip": "ym2612"
    },
    {
      "channel": 2,
      "note": 52,
      "start": 46.3405,
      "duration": 0.2484,
      "velocity": 95,
      "chip": "ym2612"
    },
    {
      "channel": 4,
      "note": 76,
      "start": 46.3415,
      "duration": 0.499,
      "velocity": 127,
      "chip": "ym2612"
    },
    {
      "channel": 5,
      "note": 85,
      "start": 46.4733,
      "duration": 0.7347,
      "velocity": 81,
      "chip": "ym2612"
    },
    {
      "channel": 2,
      "note": 54,
      "start": 46.5895,
      "duration": 0.116,
      "velocity": 95,
      "chip": "ym2612"
    },
    {
      "channel": 2,
      "note": 56,
      "start": 46.7061,
      "duration": 0.1336,
      "velocity": 95,
      "chip": "ym2612"
    },
    {
      "channel": 1,
      "note": 28,
      "start": 46.8395,
      "duration": 0.2334,
      "velocity": 103,
      "chip": "ym2612"
    },
    {
      "channel": 2,
      "note": 57,
      "start": 46.8403,
      "duration": 0.1158,
      "velocity": 95,
      "chip": "ym2612"
    },
    {
      "channel": 4,
      "note": 76,
      "start": 46.8411,
      "duration": 0.233,
      "velocity": 127,
      "chip": "ym2612"
    },
    {
      "channel": 2,
      "note": 59,
      "start": 46.9567,
      "duration": 0.1166,
      "velocity": 95,
      "chip": "ym2612"
    },
    {
      "channel": 0,
      "note": 81,
      "start": 47.0728,
      "duration": 0.1329,
      "velocity": 81,
      "chip": "ym2612"
    },
    {
      "channel": 2,
      "note": 61,
      "start": 47.0739,
      "duration": 0.1327,
      "velocity": 95,
      "chip": "ym2612"
    },
    {
      "channel": 4,
      "note": 76,
      "start": 47.0745,
      "duration": 0.1329,
      "velocity": 127,
      "chip": "ym2612"
    },
    {
      "channel": 0,
      "note": 85,
      "start": 47.2063,
      "duration": 0.1166,
      "velocity": 81,
      "chip": "ym2612"
    },
    {
      "channel": 2,
      "note": 62,
      "start": 47.2071,
      "duration": 0.1179,
      "velocity": 95,
      "chip": "ym2612"
    },
    {
      "channel": 4,
      "note": 76,
      "start": 47.2079,
      "duration": 0.1211,
      "velocity": 127,
      "chip": "ym2612"
    },
    {
      "channel": 5,
      "note": 81,
      "start": 47.2087,
      "duration": 0.121,
      "velocity": 81,
      "chip": "ym2612"
    },
    {
      "channel": 0,
      "note": 88,
      "start": 47.3235,
      "duration": 0.2493,
      "velocity": 81,
      "chip": "ym2612"
    },
    {
      "channel": 1,
      "note": 33,
      "start": 47.3249,
      "duration": 0.2487,
      "velocity": 103,
      "chip": "ym2612"
    },
    {
      "channel": 2,
      "note": 61,
      "start": 47.3256,
      "duration": 0.9837,
      "velocity": 95,
      "chip": "ym2612"
    },
    {
      "channel": 4,
      "note": 76,
      "start": 47.3296,
      "duration": 0.4954,
      "velocity": 127,
      "chip": "ym2612"
    },
    {
      "channel": 5,
      "note": 85,
      "start": 47.3304,
      "duration": 0.1273,
      "velocity": 81,
      "chip": "ym2612"
    },
    {
      "channel": 5,
      "note": 88,
      "start": 47.4583,
      "duration": 0.2324,
      "velocity": 81,
      "chip": "ym2612"
    },
    {
      "channel": 0,
      "note": 88,
      "start": 47.5734,
      "duration": 0.2497,
      "velocity": 81,
      "chip": "ym2612"
    },
    {
      "channel": 5,
      "note": 88,
      "start": 47.6913,
      "duration": 0.2499,
      "velocity": 81,
      "chip": "ym2612"
    },
    {
      "channel": 0,
      "note": 88,
      "start": 47.8238,
      "duration": 0.2497,
      "velocity": 81,
      "chip": "ym2612"
    },
    {
      "channel": 1,
      "note": 32,
      "start": 47.8245,
      "duration": 0.2497,
      "velocity": 103,
      "chip": "ym2612"
    },
    {
      "channel": 4,
      "note": 76,
      "start": 47.8256,
      "duration": 0.4849,
      "velocity": 127,
      "chip": "ym2612"
    },
    {
      "channel": 5,
      "note": 88,
      "start": 47.9419,
      "duration": 0.2494,
      "velocity": 81,
      "chip": "ym2612"
    },
    {
      "channel": 0,
      "note": 90,
      "start": 48.0741,
      "duration": 0.2334,
      "velocity": 81,
      "chip": "ym2612"
    },
    {
      "channel": 5,
      "note": 90,
      "start": 48.192,
      "duration": 0.2503,
      "velocity": 81,
      "chip": "ym2612"
    },
    {
      "channel": 0,
      "note": 88,
      "start": 48.3081,
      "duration": 0.4996,
      "velocity": 81,
      "chip": "ym2612"
    },
    {
      "channel": 1,
      "note": 30,
      "start": 48.3089,
      "duration": 0.249,
      "velocity": 103,
      "chip": "ym2612"
    },
    {
      "channel": 2,
      "note": 57,
      "start": 48.31,
      "duration": 0.9837,
      "velocity": 95,
      "chip": "ym2612"
    },
    {
      "channel": 4,
      "note": 76,
      "start": 48.311,
      "duration": 0.4986,
      "velocity": 127,
      "chip": "ym2612"
    },
    {
      "channel": 5,
      "note": 88,
      "start": 48.4429,
      "duration": 0.4829,
      "velocity": 81,
      "chip": "ym2612"
    },
    {
      "channel": 0,
      "note": 86,
      "start": 48.8084,
      "duration": 0.2497,
      "velocity": 81,
      "chip": "ym2612"
    },
    {
      "channel": 1,
      "note": 28,
      "start": 48.8091,
      "duration": 0.2497,
      "velocity": 103,
      "chip": "ym2612"
    },
    {
      "channel": 4,
      "note": 76,
      "start": 48.8102,
      "duration": 0.2493,
      "velocity": 127,
      "chip": "ym2612"
    },
    {
      "channel": 5,
      "note": 86,
      "start": 48.9265,
      "duration": 0.2498,
      "velocity": 81,
      "chip": "ym2612"
    },
    {
      "channel": 0,
      "note": 85,
      "start": 49.0587,
      "duration": 0.233,
      "velocity": 81,
      "chip": "ym2612"
    },
    {
      "channel": 4,
      "note": 76,
      "start": 49.0599,
      "duration": 0.1157,
      "velocity": 127,
      "chip": "ym2612"
    },
    {
      "channel": 4,
      "note": 76,
      "start": 49.1762,
      "duration": 0.1215,
      "velocity": 127,
      "chip": "ym2612"
    },
    {
      "channel": 5,
      "note": 85,
      "start": 49.177,
      "duration": 0.2495,
      "velocity": 81,
      "chip": "ym2612"
    },
    {
      "channel": 0,
      "note": 88,
      "start": 49.2923,
      "duration": 0.2497,
      "velocity": 81,
      "chip": "ym2612"
    },
    {
      "channel": 1,
      "note": 35,
      "start": 49.2932,
      "duration": 0.2496,
      "velocity": 103,
      "chip": "ym2612"
    },
    {
      "channel": 2,
      "note": 57,
      "start": 49.2943,
      "duration": 0.9839,
      "velocity": 95,
      "chip": "ym2612"
    },
    {
      "channel": 4,
      "note": 76,
      "start": 49.2983,
      "duration": 0.496,
      "velocity": 127,
      "chip": "ym2612"
    },
    {
      "channel": 5,
      "note": 88,
      "start": 49.4271,
      "duration": 0.2494,
      "velocity": 81,
      "chip": "ym2612"
    },
    {
      "channel": 0,
      "note": 86,
      "start": 49.5427,
      "duration": 0.2497,
      "velocity": 81,
      "chip": "ym2612"
    },
    {
      "channel": 5,
      "note": 86,
      "start": 49.6772,
      "duration": 0.2332,
      "velocity": 81,
      "chip": "ym2612"
    },
    {
      "channel": 0,
      "note": 85,
      "start": 49.793,
      "duration": 0.2497,
      "velocity": 81,
      "chip": "ym2612"
    },
    {
      "channel": 1,
      "note": 35,
      "start": 49.7937,
      "duration": 0.2497,
      "velocity": 103,
      "chip": "ym2612"
    },
    {
      "channel": 4,
      "note": 76,
      "start": 49.7948,
      "duration": 0.4845,
      "velocity": 127,
      "chip": "ym2612"
    },
    {
      "channel": 5,
      "note": 85,
      "start": 49.9111,
      "duration": 0.2495,
      "velocity": 81,
      "chip": "ym2612"
    },
    {
      "channel": 0,
      "note": 83,
      "start": 50.0433,
      "duration": 0.233,
      "velocity": 81,
      "chip": "ym2612"
    },
    {
      "channel": 5,
      "note": 83,
      "start": 50.1612,
      "duration": 0.2499,
      "velocity": 81,
      "chip": "ym2612"
    },
    {
      "channel": 0,
      "note": 88,
      "start": 50.2769,
      "duration": 0.7503,
      "velocity": 81,
      "chip": "ym2612"
    },
    {
      "channel": 1,
      "note": 28,
      "start": 50.2777,
      "duration": 0.2494,
      "velocity": 103,
      "chip": "ym2612"
    },
    {
      "channel": 2,
      "note": 56,
      "start": 50.2788,
      "duration": 0.4994,
      "velocity": 95,
      "chip": "ym2612"
    },
    {
      "channel": 4,
      "note": 76,
      "start": 50.2798,
      "duration": 0.5015,
      "velocity": 127,
      "chip": "ym2612"
    },
    {
      "channel": 5,
      "note": 88,
      "start": 50.4117,
      "duration": 0.734,
      "velocity": 81,
      "chip": "ym2612"
    },
    {
      "channel": 1,
      "note": 28,
      "start": 50.7779,
      "duration": 0.25,
      "velocity": 103,
      "chip": "ym2612"
    },
    {
      "channel": 4,
      "note": 76,
      "start": 50.7819,
      "duration": 0.2467,
      "velocity": 127,
      "chip": "ym2612"
    },
    {
      "channel": 0,
      "note": 88,
      "start": 51.0278,
      "duration": 0.1163,
      "velocity": 81,
      "chip": "ym2612"
    },
    {
      "channel": 4,
      "note": 76,
      "start": 51.0289,
      "duration": 0.1161,
      "velocity": 127,
      "chip": "ym2612"
    },
    {
      "channel": 0,
      "note": 90,
      "start": 51.1447,
      "duration": 0.1332,
      "velocity": 81,
      "chip": "ym2612"
    },
    {
      "channel": 4,
      "note": 76,
      "start": 51.1456,
      "duration": 0.1358,
      "velocity": 127,
      "chip": "ym2612"
    },
    {
      "channel": 5,
      "note": 88,
      "start": 51.1462,
      "duration": 0.1359,
      "velocity": 81,
      "chip": "ym2612"
    },
    {
      "channel": 0,
      "note": 91,
      "start": 51.2786,
      "duration": 0.2326,
      "velocity": 81,
      "chip": "ym2612"
    },
    {
      "channel": 1,
      "note": 28,
      "start": 51.2793,
      "duration": 0.2327,
      "velocity": 103,
      "chip": "ym2612"
    },
    {
      "channel": 3,
      "note": 71,
      "start": 51.2812,
      "duration": 0.984,
      "velocity": 96,
      "chip": "ym2612"
    },
    {
      "channel": 4,
      "note": 76,
      "start": 51.282,
      "duration": 0.4815,
      "velocity": 127,
      "chip": "ym2612"
    },
    {
      "channel": 5,
      "note": 90,
      "start": 51.2828,
      "duration": 0.1133,
      "velocity": 81,
      "chip": "ym2612"
    },
    {
      "channel": 5,
      "note": 91,
      "start": 51.3968,
      "duration": 0.2491,
      "velocity": 81,
      "chip": "ym2612"
    },
    {
      "channel": 0,
      "note": 91,
      "start": 51.5119,
      "duration": 0.2497,
      "velocity": 81,
      "chip": "ym2612"
    },
    {
      "channel": 5,
      "note": 91,
      "start": 51.6465,
      "duration": 0.2332,
      "velocity": 81,
      "chip": "ym2612"
    },
    {
      "channel": 0,
      "note": 91,
      "start": 51.7622,
      "duration": 0.2497,
      "velocity": 81,
      "chip": "ym2612"
    },
    {
      "channel": 1,
      "note": 28,
      "start": 51.7629,
      "duration": 0.2497,
      "velocity": 103,
      "chip": "ym2612"
    },
    {
      "channel": 4,
      "note": 76,
      "start": 51.7641,
      "duration": 0.5019,
      "velocity": 127,
      "chip": "ym2612"
    },
    {
      "channel": 5,
      "note": 91,
      "start": 51.8804,
      "duration": 0.2497,
      "velocity": 81,
      "chip": "ym2612"
    },
    {
      "channel": 0,
      "note": 93,
      "start": 52.0125,
      "duration": 0.2497,
      "velocity": 81,
      "chip": "ym2612"
    },
    {
      "channel": 2,
      "note": 62,
      "start": 52.0136,
      "duration": 0.251,
      "velocity": 95,
      "chip": "ym2612"
    },
    {
      "channel": 5,
      "note": 93,
      "start": 52.1307,
      "duration": 0.2498,
      "velocity": 81,
      "chip": "ym2612"
    },
    {
      "channel": 0,
      "note": 95,
      "start": 52.2629,
      "duration": 0.7336,
      "velocity": 81,
      "chip": "ym2612"
    },
    {
      "channel": 1,
      "note": 21,
      "start": 52.264,
      "duration": 0.2322,
      "velocity": 103,
      "chip": "ym2612"
    },
    {
      "channel": 2,
      "note": 55,
      "start": 52.2651,
      "duration": 0.9833,
      "velocity": 95,
      "chip": "ym2612"
    },
    {
      "channel": 3,
      "note": 64,
      "start": 52.2659,
      "duration": 0.9829,
      "velocity": 96,
      "chip": "ym2612"
    },
    {
      "channel": 4,
      "note": 76,
      "start": 52.2666,
      "duration": 0.4819,
      "velocity": 127,
      "chip": "ym2612"
    },
    {
      "channel": 5,
      "note": 95,
      "start": 52.3812,
      "duration": 0.7346,
      "velocity": 81,
      "chip": "ym2612"
    },
    {
      "channel": 1,
      "note": 23,
      "start": 52.7476,
      "duration": 0.2497,
      "velocity": 103,
      "chip": "ym2612"
    },
    {
      "channel": 4,
      "note": 76,
      "start": 52.749,
      "duration": 0.2497,
      "velocity": 127,
      "chip": "ym2612"
    },
    {
      "channel": 0,
      "note": 93,
      "start": 52.9971,
      "duration": 0.1162,
      "velocity": 81,
      "chip": "ym2612"
    },
    {
      "channel": 1,
      "note": 25,
      "start": 52.9978,
      "duration": 0.2497,
      "velocity": 103,
      "chip": "ym2612"
    },
    {
      "channel": 4,
      "note": 76,
      "start": 52.9991,
      "duration": 0.116,
      "velocity": 127,
      "chip": "ym2612"
    },
    {
      "channel": 0,
      "note": 91,
      "start": 53.1139,
      "duration": 0.1329,
      "velocity": 81,
      "chip": "ym2612"
    },
    {
      "channel": 4,
      "note": 76,
      "start": 53.1157,
      "duration": 0.1339,
      "velocity": 127,
      "chip": "ym2612"
    },
    {
      "channel": 5,
      "note": 93,
      "start": 53.1165,
      "duration": 0.1338,
      "velocity": 81,
      "chip": "ym2612"
    },
    {
      "channel": 0,
      "note": 90,
      "start": 53.2474,
      "duration": 0.233,
      "velocity": 81,
      "chip": "ym2612"
    },
    {
      "channel": 1,
      "note": 26,
      "start": 53.2482,
      "duration": 0.233,
      "velocity": 103,
      "chip": "ym2612"
    },
    {
      "channel": 3,
      "note": 69,
      "start": 53.2494,
      "duration": 0.9851,
      "velocity": 96,
      "chip": "ym2612"
    },
    {
      "channel": 4,
      "note": 76,
      "start": 53.2502,
      "duration": 0.4826,
      "velocity": 127,
      "chip": "ym2612"
    },
    {
      "channel": 5,
      "note": 91,
      "start": 53.2509,
      "duration": 0.114,
      "velocity": 81,
      "chip": "ym2612"
    },
    {
      "channel": 5,
      "note": 90,
      "start": 53.3656,
      "duration": 0.2495,
      "velocity": 81,
      "chip": "ym2612"
    },
    {
      "channel": 0,
      "note": 90,
      "start": 53.4811,
      "duration": 0.2497,
      "velocity": 81,
      "chip": "ym2612"
    },
    {
      "channel": 5,
      "note": 90,
      "start": 53.6157,
      "duration": 0.25,
      "velocity": 81,
      "chip": "ym2612"
    },
    {
      "channel": 0,
      "note": 90,
      "start": 53.7314,
      "duration": 0.2497,
      "velocity": 81,
      "chip": "ym2612"
    },
    {
      "channel": 1,
      "note": 26,
      "start": 53.7321,
      "duration": 0.2497,
      "velocity": 103,
      "chip": "ym2612"
    },
    {
      "channel": 4,
      "note": 76,
      "start": 53.7333,
      "duration": 0.5019,
      "velocity": 127,
      "chip": "ym2612"
    },
    {
      "channel": 5,
      "note": 90,
      "start": 53.8663,
      "duration": 0.233,
      "velocity": 81,
      "chip": "ym2612"
    },
    {
      "channel": 0,
      "note": 93,
      "start": 53.9817,
      "duration": 0.2497,
      "velocity": 81,
      "chip": "ym2612"
    },
    {
      "channel": 2,
      "note": 61,
      "start": 53.9832,
      "duration": 0.2505,
      "velocity": 95,
      "chip": "ym2612"
    },
    {
      "channel": 5,
      "note": 93,
      "start": 54.1,
      "duration": 0.2498,
      "velocity": 81,
      "chip": "ym2612"
    },
    {
      "channel": 0,
      "note": 86,
      "start": 54.232,
      "duration": 0.7337,
      "velocity": 81,
      "chip": "ym2612"
    },
    {
      "channel": 1,
      "note": 23,
      "start": 54.2332,
      "duration": 0.249,
      "velocity": 103,
      "chip": "ym2612"
    },
    {
      "channel": 2,
      "note": 54,
      "start": 54.2343,
      "duration": 0.9833,
      "velocity": 95,
      "chip": "ym2612"
    },
    {
      "channel": 3,
      "note": 69,
      "start": 54.2351,
      "duration": 0.9829,
      "velocity": 96,
      "chip": "ym2612"
    },
    {
      "channel": 4,
      "note": 76,
      "start": 54.2358,
      "duration": 0.4815,
      "velocity": 127,
      "chip": "ym2612"
    },
    {
      "channel": 5,
      "note": 86,
      "start": 54.3504,
      "duration": 0.7344,
      "velocity": 81,
      "chip": "ym2612"
    },
    {
      "channel": 1,
      "note": 23,
      "start": 54.7164,
      "duration": 0.2501,
      "velocity": 103,
      "chip": "ym2612"
    },
    {
      "channel": 4,
      "note": 76,
      "start": 54.7178,
      "duration": 0.2497,
      "velocity": 127,
      "chip": "ym2612"
    },
    {
      "channel": 0,
      "note": 88,
      "start": 54.9663,
      "duration": 0.1162,
      "velocity": 81,
      "chip": "ym2612"
    },
    {
      "channel": 4,
      "note": 76,
      "start": 54.9679,
      "duration": 0.1162,
      "velocity": 127,
      "chip": "ym2612"
    },
    {
      "channel": 0,
      "note": 90,
      "start": 55.0831,
      "duration": 0.1329,
      "velocity": 81,
      "chip": "ym2612"
    },
    {
      "channel": 4,
      "note": 76,
      "start": 55.0846,
      "duration": 0.1342,
      "velocity": 127,
      "chip": "ym2612"
    },
    {
      "channel": 5,
      "note": 88,
      "start": 55.0854,
      "duration": 0.1341,
      "velocity": 81,
      "chip": "ym2612"
    },
    {
      "channel": 0,
      "note": 92,
      "start": 55.2166,
      "duration": 0.2497,
      "velocity": 81,
      "chip": "ym2612"
    },
    {
      "channel": 1,
      "note": 28,
      "start": 55.2174,
      "duration": 0.2497,
      "velocity": 103,
      "chip": "ym2612"
    },
    {
      "channel": 3,
      "note": 71,
      "start": 55.2186,
      "duration": 0.9847,
      "velocity": 96,
      "chip": "ym2612"
    },
    {
      "channel": 4,
      "note": 76,
      "start": 55.2194,
      "duration": 0.483,
      "velocity": 127,
      "chip": "ym2612"
    },
    {
      "channel": 5,
      "note": 90,
      "start": 55.2201,
      "duration": 0.114,
      "velocity": 81,
      "chip": "ym2612"
    },
    {
      "channel": 5,
      "note": 92,
      "start": 55.3348,
      "duration": 0.2495,
      "velocity": 81,
      "chip": "ym2612"
    },
    {
      "channel": 0,
      "note": 92,
      "start": 55.467,
      "duration": 0.233,
      "velocity": 81,
      "chip": "ym2612"
    },
    {
      "channel": 5,
      "note": 92,
      "start": 55.5849,
      "duration": 0.2499,
      "velocity": 81,
      "chip": "ym2612"
    },
    {
      "channel": 0,
      "note": 92,
      "start": 55.7006,
      "duration": 0.2497,
      "velocity": 81,
      "chip": "ym2612"
    },
    {
      "channel": 1,
      "note": 28,
      "start": 55.7017,
      "duration": 0.2494,
      "velocity": 103,
      "chip": "ym2612"
    },
    {
      "channel": 4,
      "note": 76,
      "start": 55.7029,
      "duration": 0.5012,
      "velocity": 127,
      "chip": "ym2612"
    },
    {
      "channel": 5,
      "note": 92,
      "start": 55.8355,
      "duration": 0.2497,
      "velocity": 81,
      "chip": "ym2612"
    },
    {
      "channel": 0,
      "note": 94,
      "start": 55.9509,
      "duration": 0.2497,
      "velocity": 81,
      "chip": "ym2612"
    },
    {
      "channel": 2,
      "note": 62,
      "start": 55.9524,
      "duration": 0.2498,
      "velocity": 95,
      "chip": "ym2612"
    },
    {
      "channel": 5,
      "note": 94,
      "start": 56.0858,
      "duration": 0.2331,
      "velocity": 81,
      "chip": "ym2612"
    },
    {
      "channel": 0,
      "note": 95,
      "start": 56.2012,
      "duration": 0.7337,
      "velocity": 81,
      "chip": "ym2612"
    },
    {
      "channel": 1,
      "note": 28,
      "start": 56.202,
      "duration": 0.2494,
      "velocity": 103,
      "chip": "ym2612"
    },
    {
      "channel": 2,
      "note": 56,
      "start": 56.2027,
      "duration": 0.9844,
      "velocity": 95,
      "chip": "ym2612"
    },
    {
      "channel": 3,
      "note": 74,
      "start": 56.2039,
      "duration": 0.9844,
      "velocity": 96,
      "chip": "ym2612"
    },
    {
      "channel": 4,
      "note": 76,
      "start": 56.2046,
      "duration": 0.4819,
      "velocity": 127,
      "chip": "ym2612"
    },
    {
      "channel": 5,
      "note": 95,
      "start": 56.3196,
      "duration": 0.751,
      "velocity": 81,
      "chip": "ym2612"
    },
    {
      "channel": 1,
      "note": 28,
      "start": 56.6856,
      "duration": 0.2501,
      "velocity": 103,
      "chip": "ym2612"
    },
    {
      "channel": 4,
      "note": 76,
      "start": 56.687,
      "duration": 0.2497,
      "velocity": 127,
      "chip": "ym2612"
    },
    {
      "channel": 0,
      "note": 94,
      "start": 56.9355,
      "duration": 0.1329,
      "velocity": 81,
      "chip": "ym2612"
    },
    {
      "channel": 4,
      "note": 76,
      "start": 56.9371,
      "duration": 0.1329,
      "velocity": 127,
      "chip": "ym2612"
    },
    {
      "channel": 0,
      "note": 92,
      "start": 57.069,
      "duration": 0.1162,
      "velocity": 81,
      "chip": "ym2612"
    },
    {
      "channel": 4,
      "note": 76,
      "start": 57.0705,
      "duration": 0.1187,
      "velocity": 127,
      "chip": "ym2612"
    },
    {
      "channel": 5,
      "note": 94,
      "start": 57.0713,
      "duration": 0.1186,
      "velocity": 81,
      "chip": "ym2612"
    },
    {
      "channel": 0,
      "note": 97,
      "start": 57.1859,
      "duration": 0.2501,
      "velocity": 81,
      "chip": "ym2612"
    },
    {
      "channel": 1,
      "note": 30,
      "start": 57.1866,
      "duration": 1.9717,
      "velocity": 103,
      "chip": "ym2612"
    },
    {
      "channel": 2,
      "note": 58,
      "start": 57.1877,
      "duration": 1.974,
      "velocity": 96,
      "chip": "ym2612"
    },
    {
      "channel": 3,
      "note": 73,
      "start": 57.1889,
      "duration": 1.9733,
      "velocity": 96,
      "chip": "ym2612"
    },
    {
      "channel": 4,
      "note": 76,
      "start": 57.1897,
      "duration": 0.498,
      "velocity": 127,
      "chip": "ym2612"
    },
    {
      "channel": 5,
      "note": 92,
      "start": 57.1905,
      "duration": 0.1131,
      "velocity": 81,
      "chip": "ym2612"
    },
    {
      "channel": 5,
      "note": 97,
      "start": 57.3042,
      "duration": 0.2503,
      "velocity": 81,
      "chip": "ym2612"
    },
    {
      "channel": 0,
      "note": 78,
      "start": 57.4365,
      "duration": 0.2493,
      "velocity": 81,
      "chip": "ym2612"
    },
    {
      "channel": 5,
      "note": 78,
      "start": 57.5551,
      "duration": 0.2493,
      "velocity": 81,
      "chip": "ym2612"
    },
    {
      "channel": 0,
      "note": 80,
      "start": 57.6865,
      "duration": 0.233,
      "velocity": 81,
      "chip": "ym2612"
    },
    {
      "channel": 4,
      "note": 76,
      "start": 57.6883,
      "duration": 0.4844,
      "velocity": 127,
      "chip": "ym2612"
    },
    {
      "channel": 5,
      "note": 80,
      "start": 57.8051,
      "duration": 0.2497,
      "velocity": 81,
      "chip": "ym2612"
    },
    {
      "channel": 0,
      "note": 82,
      "start": 57.9201,
      "duration": 0.2501,
      "velocity": 81,
      "chip": "ym2612"
    },
    {
      "channel": 5,
      "note": 82,
      "start": 58.0554,
      "duration": 0.2334,
      "velocity": 81,
      "chip": "ym2612"
    },
    {
      "channel": 0,
      "note": 83,
      "start": 58.1708,
      "duration": 0.2493,
      "velocity": 81,
      "chip": "ym2612"
    },
    {
      "channel": 4,
      "note": 76,
      "start": 58.1733,
      "duration": 0.4991,
      "velocity": 127,
      "chip": "ym2612"
    },
    {
      "channel": 5,
      "note": 83,
      "start": 58.2894,
      "duration": 0.2493,
      "velocity": 81,
      "chip": "ym2612"
    },
    {
      "channel": 0,
      "note": 85,
      "start": 58.4208,
      "duration": 0.2497,
      "velocity": 81,
      "chip": "ym2612"
    },
    {
      "channel": 5,
      "note": 85,
      "start": 58.5393,
      "duration": 0.2497,
      "velocity": 81,
      "chip": "ym2612"
    },
    {
      "channel": 0,
      "note": 87,
      "start": 58.6711,
      "duration": 0.233,
      "velocity": 81,
      "chip": "ym2612"
    },
    {
      "channel": 4,
      "note": 76,
      "start": 58.6729,
      "duration": 0.2331,
      "velocity": 127,
      "chip": "ym2612"
    },
    {
      "channel": 5,
      "note": 87,
      "start": 58.7897,
      "duration": 0.2501,
      "velocity": 81,
      "chip": "ym2612"
    },
    {
      "channel": 0,
      "note": 88,
      "start": 58.9047,
      "duration": 0.2523,
      "velocity": 113,
      "chip": "ym2612"
    },
    {
      "channel": 4,
      "note": 76,
      "start": 58.9064,
      "duration": 0.1327,
      "velocity": 127,
      "chip": "ym2612"
    },
    {
      "channel": 4,
      "note": 76,
      "start": 59.0396,
      "duration": 0.123,
      "velocity": 127,
      "chip": "ym2612"
    },
    {
      "channel": 5,
      "note": 88,
      "start": 59.0404,
      "duration": 0.2513,
      "velocity": 113,
      "chip": "ym2612"
    },
    {
      "channel": 0,
      "note": 90,
      "start": 59.1577,
      "duration": 1.0314,
      "velocity": 113,
      "chip": "ym2612"
    },
    {
      "channel": 1,
      "note": 27,
      "start": 59.1588,
      "duration": 0.9812,
      "velocity": 103,
      "chip": "ym2612"
    },
    {
      "channel": 4,
      "note": 56,
      "start": 59.1631,
      "duration": 0.244,
      "velocity": 127,
      "chip": "ym2612"
    },
    {
      "channel": 5,
      "note": 90,
      "start": 59.2924,
      "duration": 1.0149,
      "velocity": 113,
      "chip": "ym2612"
    },
    {
      "channel": 2,
      "note": 73,
      "start": 59.4062,
      "duration": 0.2497,
      "velocity": 96,
      "chip": "ym2612"
    },
    {
      "channel": 3,
      "note": 70,
      "start": 59.4069,
      "duration": 0.4838,
      "velocity": 96,
      "chip": "ym2612"
    },
    {
      "channel": 4,
      "note": 61,
      "start": 59.4076,
      "duration": 0.249,
      "velocity": 127,
      "chip": "ym2612"
    },
    {
      "channel": 4,
      "note": 61,
      "start": 59.6571,
      "duration": 0.2342,
      "velocity": 127,
      "chip": "ym2612"
    },
    {
      "channel": 2,
      "note": 73,
      "start": 59.8906,
      "duration": 0.2502,
      "velocity": 96,
      "chip": "ym2612"
    },
    {
      "channel": 3,
      "note": 70,
      "start": 59.8912,
      "duration": 0.2503,
      "velocity": 96,
      "chip": "ym2612"
    },
    {
      "channel": 4,
      "note": 61,
      "start": 59.8919,
      "duration": 0.2504,
      "velocity": 127,
      "chip": "ym2612"
    },
    {
      "channel": 1,
      "note": 32,
      "start": 60.1406,
      "duration": 0.4018,
      "velocity": 103,
      "chip": "ym2612"
    },
    {
      "channel": 2,
      "note": 72,
      "start": 60.1414,
      "duration": 0.401,
      "velocity": 96,
      "chip": "ym2612"
    },
    {
      "channel": 3,
      "note": 68,
      "start": 60.1422,
      "duration": 0.4002,
      "velocity": 96,
      "chip": "ym2612"
    },
    {
      "channel": 4,
      "note": 56,
      "start": 60.1428,
      "duration": 0.2483,
      "velocity": 127,
      "chip": "ym2612"
    },
    {
      "channel": 0,
      "note": 90,
      "start": 60.3898,
      "duration": 0.1526,
      "velocity": 113,
      "chip": "ym2612"
    },
    {
      "channel": 4,
      "note": 61,
      "start": 60.3916,
      "duration": 0.1508,
      "velocity": 127,
      "chip": "ym2612"
    },
    {
      "channel": 5,
      "note": 90,
      "start": 60.5084,
      "duration": 0.034,
      "velocity": 113,
      "chip": "ym2612"
    }
  ]
}