{
  "track_name": "15 - Silver Dance",
  "duration_sec": 50.425,
  "sample_rate": 44100,
  "note_count": 1179,
  "unique_pitches": 30,
  "pitch_range": 60,
  "avg_note_duration": 0.1914,
  "reconstruction_stats": {
    "notes_reconstructed": 1179,
    "keyon_events": 1179,
    "keyoff_events": 1175,
    "orphan_keyons": 4,
    "unique_pitches": 30,
    "pitch_range": 60,
    "avg_duration_sec": 0.1914
  },
  "metadata": {
    "source": "V\\Viper-V12\\15 - Silver Dance.vgz"
  },
  "notes": [
    {
      "channel": 0,
      "note": 41,
      "start": 0.0024,
      "duration": 0.2157,
      "velocity": 127,
      "chip": "ym2612"
    },
    {
      "channel": 1,
      "note": 75,
      "start": 0.0045,
      "duration": 0.1577,
      "velocity": 88,
      "chip": "ym2612"
    },
    {
      "channel": 2,
      "note": 77,
      "start": 0.0066,
      "duration": 0.1557,
      "velocity": 88,
      "chip": "ym2612"
    },
    {
      "channel": 4,
      "note": 89,
      "start": 0.0089,
      "duration": 0.0105,
      "velocity": 97,
      "chip": "ym2612"
    },
    {
      "channel": 5,
      "note": 53,
      "start": 0.011,
      "duration": 0.4353,
      "velocity": 47,
      "chip": "ym2612"
    },
    {
      "channel": 4,
      "note": 89,
      "start": 0.1108,
      "duration": 0.0138,
      "velocity": 97,
      "chip": "ym2612"
    },
    {
      "channel": 0,
      "note": 53,
      "start": 0.2201,
      "duration": 0.2226,
      "velocity": 121,
      "chip": "ym2612"
    },
    {
      "channel": 1,
      "note": 75,
      "start": 0.2205,
      "duration": 0.1661,
      "velocity": 88,
      "chip": "ym2612"
    },
    {
      "channel": 2,
      "note": 77,
      "start": 0.2208,
      "duration": 0.1658,
      "velocity": 88,
      "chip": "ym2612"
    },
    {
      "channel": 3,
      "note": 77,
      "start": 0.2232,
      "duration": 0.1635,
      "velocity": 88,
      "chip": "ym2612"
    },
    {
      "channel": 4,
      "note": 101,
      "start": 0.2235,
      "duration": 0.0133,
      "velocity": 97,
      "chip": "ym2612"
    },
    {
      "channel": 4,
      "note": 101,
      "start": 0.3308,
      "duration": 0.0184,
      "velocity": 97,
      "chip": "ym2612"
    },
    {
      "channel": 0,
      "note": 41,
      "start": 0.4447,
      "duration": 0.2226,
      "velocity": 127,
      "chip": "ym2612"
    },
    {
      "channel": 1,
      "note": 75,
      "start": 0.4451,
      "duration": 0.1662,
      "velocity": 88,
      "chip": "ym2612"
    },
    {
      "channel": 2,
      "note": 77,
      "start": 0.4455,
      "duration": 0.1659,
      "velocity": 88,
      "chip": "ym2612"
    },
    {
      "channel": 3,
      "note": 77,
      "start": 0.4459,
      "duration": 0.1656,
      "velocity": 88,
      "chip": "ym2612"
    },
    {
      "channel": 4,
      "note": 89,
      "start": 0.4463,
      "duration": 0.0153,
      "velocity": 97,
      "chip": "ym2612"
    },
    {
      "channel": 4,
      "note": 99,
      "start": 0.5555,
      "duration": 0.0184,
      "velocity": 97,
      "chip": "ym2612"
    },
    {
      "channel": 0,
      "note": 53,
      "start": 0.6694,
      "duration": 0.2227,
      "velocity": 121,
      "chip": "ym2612"
    },
    {
      "channel": 1,
      "note": 75,
      "start": 0.6698,
      "duration": 0.0538,
      "velocity": 88,
      "chip": "ym2612"
    },
    {
      "channel": 2,
      "note": 77,
      "start": 0.6701,
      "duration": 0.0535,
      "velocity": 88,
      "chip": "ym2612"
    },
    {
      "channel": 3,
      "note": 77,
      "start": 0.6705,
      "duration": 0.1654,
      "velocity": 88,
      "chip": "ym2612"
    },
    {
      "channel": 4,
      "note": 101,
      "start": 0.6709,
      "duration": 0.0152,
      "velocity": 97,
      "chip": "ym2612"
    },
    {
      "channel": 1,
      "note": 75,
      "start": 0.78,
      "duration": 0.1683,
      "velocity": 88,
      "chip": "ym2612"
    },
    {
      "channel": 2,
      "note": 77,
      "start": 0.7804,
      "duration": 0.1679,
      "velocity": 88,
      "chip": "ym2612"
    },
    {
      "channel": 4,
      "note": 89,
      "start": 0.7808,
      "duration": 0.0176,
      "velocity": 97,
      "chip": "ym2612"
    },
    {
      "channel": 0,
      "note": 41,
      "start": 0.894,
      "duration": 0.2226,
      "velocity": 127,
      "chip": "ym2612"
    },
    {
      "channel": 3,
      "note": 77,
      "start": 0.8944,
      "duration": 0.054,
      "velocity": 88,
      "chip": "ym2612"
    },
    {
      "channel": 4,
      "note": 99,
      "start": 0.8948,
      "duration": 0.0161,
      "velocity": 97,
      "chip": "ym2612"
    },
    {
      "channel": 1,
      "note": 74,
      "start": 1.0048,
      "duration": 0.0559,
      "velocity": 88,
      "chip": "ym2612"
    },
    {
      "channel": 2,
      "note": 77,
      "start": 1.0051,
      "duration": 0.0555,
      "velocity": 88,
      "chip": "ym2612"
    },
    {
      "channel": 3,
      "note": 77,
      "start": 1.0055,
      "duration": 0.1673,
      "velocity": 88,
      "chip": "ym2612"
    },
    {
      "channel": 4,
      "note": 89,
      "start": 1.0059,
      "duration": 0.0173,
      "velocity": 97,
      "chip": "ym2612"
    },
    {
      "channel": 0,
      "note": 53,
      "start": 1.1186,
      "duration": 0.2227,
      "velocity": 121,
      "chip": "ym2612"
    },
    {
      "channel": 1,
      "note": 74,
      "start": 1.119,
      "duration": 0.1661,
      "velocity": 88,
      "chip": "ym2612"
    },
    {
      "channel": 2,
      "note": 77,
      "start": 1.1194,
      "duration": 0.1658,
      "velocity": 88,
      "chip": "ym2612"
    },
    {
      "channel": 4,
      "note": 101,
      "start": 1.1198,
      "duration": 0.0156,
      "velocity": 97,
      "chip": "ym2612"
    },
    {
      "channel": 3,
      "note": 77,
      "start": 1.2293,
      "duration": 0.0559,
      "velocity": 88,
      "chip": "ym2612"
    },
    {
      "channel": 4,
      "note": 89,
      "start": 1.2297,
      "duration": 0.018,
      "velocity": 97,
      "chip": "ym2612"
    },
    {
      "channel": 0,
      "note": 41,
      "start": 1.3436,
      "duration": 0.2224,
      "velocity": 127,
      "chip": "ym2612"
    },
    {
      "channel": 1,
      "note": 74,
      "start": 1.3439,
      "duration": 0.166,
      "velocity": 88,
      "chip": "ym2612"
    },
    {
      "channel": 2,
      "note": 77,
      "start": 1.3443,
      "duration": 0.1656,
      "velocity": 88,
      "chip": "ym2612"
    },
    {
      "channel": 3,
      "note": 77,
      "start": 1.3447,
      "duration": 0.1653,
      "velocity": 88,
      "chip": "ym2612"
    },
    {
      "channel": 4,
      "note": 94,
      "start": 1.3451,
      "duration": 0.0151,
      "velocity": 97,
      "chip": "ym2612"
    },
    {
      "channel": 4,
      "note": 89,
      "start": 1.4541,
      "duration": 0.0184,
      "velocity": 97,
      "chip": "ym2612"
    },
    {
      "channel": 0,
      "note": 53,
      "start": 1.5679,
      "duration": 0.2227,
      "velocity": 121,
      "chip": "ym2612"
    },
    {
      "channel": 1,
      "note": 74,
      "start": 1.5683,
      "duration": 0.0538,
      "velocity": 88,
      "chip": "ym2612"
    },
    {
      "channel": 2,
      "note": 77,
      "start": 1.5687,
      "duration": 0.0535,
      "velocity": 88,
      "chip": "ym2612"
    },
    {
      "channel": 3,
      "note": 77,
      "start": 1.5691,
      "duration": 0.1654,
      "velocity": 88,
      "chip": "ym2612"
    },
    {
      "channel": 4,
      "note": 99,
      "start": 1.5695,
      "duration": 0.0152,
      "velocity": 97,
      "chip": "ym2612"
    },
    {
      "channel": 1,
      "note": 74,
      "start": 1.6786,
      "duration": 0.1683,
      "velocity": 88,
      "chip": "ym2612"
    },
    {
      "channel": 2,
      "note": 77,
      "start": 1.679,
      "duration": 0.1679,
      "velocity": 88,
      "chip": "ym2612"
    },
    {
      "channel": 4,
      "note": 101,
      "start": 1.6793,
      "duration": 0.0177,
      "velocity": 97,
      "chip": "ym2612"
    },
    {
      "channel": 0,
      "note": 41,
      "start": 1.7928,
      "duration": 0.2224,
      "velocity": 127,
      "chip": "ym2612"
    },
    {
      "channel": 3,
      "note": 77,
      "start": 1.7932,
      "duration": 0.0537,
      "velocity": 88,
      "chip": "ym2612"
    },
    {
      "channel": 4,
      "note": 89,
      "start": 1.7936,
      "duration": 0.0158,
      "velocity": 97,
      "chip": "ym2612"
    },
    {
      "channel": 1,
      "note": 73,
      "start": 1.9033,
      "duration": 0.0558,
      "velocity": 88,
      "chip": "ym2612"
    },
    {
      "channel": 2,
      "note": 77,
      "start": 1.9037,
      "duration": 0.0555,
      "velocity": 88,
      "chip": "ym2612"
    },
    {
      "channel": 3,
      "note": 77,
      "start": 1.9041,
      "duration": 0.1673,
      "velocity": 88,
      "chip": "ym2612"
    },
    {
      "channel": 4,
      "note": 89,
      "start": 1.9045,
      "duration": 0.0175,
      "velocity": 97,
      "chip": "ym2612"
    },
    {
      "channel": 0,
      "note": 53,
      "start": 2.0172,
      "duration": 0.2226,
      "velocity": 121,
      "chip": "ym2612"
    },
    {
      "channel": 1,
      "note": 73,
      "start": 2.0176,
      "duration": 0.1661,
      "velocity": 88,
      "chip": "ym2612"
    },
    {
      "channel": 2,
      "note": 77,
      "start": 2.018,
      "duration": 0.1658,
      "velocity": 88,
      "chip": "ym2612"
    },
    {
      "channel": 4,
      "note": 101,
      "start": 2.0183,
      "duration": 0.0156,
      "velocity": 97,
      "chip": "ym2612"
    },
    {
      "channel": 3,
      "note": 77,
      "start": 2.1279,
      "duration": 0.0559,
      "velocity": 88,
      "chip": "ym2612"
    },
    {
      "channel": 4,
      "note": 101,
      "start": 2.1283,
      "duration": 0.018,
      "velocity": 97,
      "chip": "ym2612"
    },
    {
      "channel": 0,
      "note": 41,
      "start": 2.2421,
      "duration": 0.2224,
      "velocity": 127,
      "chip": "ym2612"
    },
    {
      "channel": 1,
      "note": 73,
      "start": 2.2425,
      "duration": 0.1659,
      "velocity": 88,
      "chip": "ym2612"
    },
    {
      "channel": 2,
      "note": 77,
      "start": 2.2429,
      "duration": 0.1656,
      "velocity": 88,
      "chip": "ym2612"
    },
    {
      "channel": 3,
      "note": 77,
      "start": 2.2432,
      "duration": 0.1653,
      "velocity": 88,
      "chip": "ym2612"
    },
    {
      "channel": 4,
      "note": 89,
      "start": 2.2436,
      "duration": 0.0151,
      "velocity": 97,
      "chip": "ym2612"
    },
    {
      "channel": 4,
      "note": 99,
      "start": 2.3526,
      "duration": 0.0184,
      "velocity": 97,
      "chip": "ym2612"
    },
    {
      "channel": 0,
      "note": 53,
      "start": 2.4665,
      "duration": 0.2227,
      "velocity": 121,
      "chip": "ym2612"
    },
    {
      "channel": 1,
      "note": 73,
      "start": 2.4669,
      "duration": 0.0538,
      "velocity": 88,
      "chip": "ym2612"
    },
    {
      "channel": 2,
      "note": 77,
      "start": 2.4672,
      "duration": 0.0535,
      "velocity": 88,
      "chip": "ym2612"
    },
    {
      "channel": 3,
      "note": 77,
      "start": 2.4676,
      "duration": 0.1654,
      "velocity": 88,
      "chip": "ym2612"
    },
    {
      "channel": 4,
      "note": 101,
      "start": 2.468,
      "duration": 0.0152,
      "velocity": 97,
      "chip": "ym2612"
    },
    {
      "channel": 1,
      "note": 73,
      "start": 2.5771,
      "duration": 0.1683,
      "velocity": 88,
      "chip": "ym2612"
    },
    {
      "channel": 2,
      "note": 77,
      "start": 2.5775,
      "duration": 0.1679,
      "velocity": 88,
      "chip": "ym2612"
    },
    {
      "channel": 4,
      "note": 89,
      "start": 2.5779,
      "duration": 0.0176,
      "velocity": 97,
      "chip": "ym2612"
    },
    {
      "channel": 0,
      "note": 41,
      "start": 2.6911,
      "duration": 0.2226,
      "velocity": 127,
      "chip": "ym2612"
    },
    {
      "channel": 3,
      "note": 77,
      "start": 2.6915,
      "duration": 0.054,
      "velocity": 88,
      "chip": "ym2612"
    },
    {
      "channel": 4,
      "note": 99,
      "start": 2.6922,
      "duration": 0.0158,
      "velocity": 97,
      "chip": "ym2612"
    },
    {
      "channel": 1,
      "note": 72,
      "start": 2.8021,
      "duration": 0.0556,
      "velocity": 88,
      "chip": "ym2612"
    },
    {
      "channel": 2,
      "note": 77,
      "start": 2.8025,
      "duration": 0.0553,
      "velocity": 88,
      "chip": "ym2612"
    },
    {
      "channel": 3,
      "note": 77,
      "start": 2.8029,
      "duration": 0.1671,
      "velocity": 88,
      "chip": "ym2612"
    },
    {
      "channel": 4,
      "note": 89,
      "start": 2.8033,
      "duration": 0.017,
      "velocity": 97,
      "chip": "ym2612"
    },
    {
      "channel": 0,
      "note": 53,
      "start": 2.9158,
      "duration": 0.2227,
      "velocity": 121,
      "chip": "ym2612"
    },
    {
      "channel": 1,
      "note": 72,
      "start": 2.9161,
      "duration": 0.1661,
      "velocity": 88,
      "chip": "ym2612"
    },
    {
      "channel": 2,
      "note": 77,
      "start": 2.9165,
      "duration": 0.1658,
      "velocity": 88,
      "chip": "ym2612"
    },
    {
      "channel": 4,
      "note": 101,
      "start": 2.9169,
      "duration": 0.0156,
      "velocity": 97,
      "chip": "ym2612"
    },
    {
      "channel": 3,
      "note": 77,
      "start": 3.0264,
      "duration": 0.0559,
      "velocity": 88,
      "chip": "ym2612"
    },
    {
      "channel": 4,
      "note": 89,
      "start": 3.0268,
      "duration": 0.018,
      "velocity": 97,
      "chip": "ym2612"
    },
    {
      "channel": 0,
      "note": 41,
      "start": 3.1404,
      "duration": 0.2227,
      "velocity": 127,
      "chip": "ym2612"
    },
    {
      "channel": 1,
      "note": 72,
      "start": 3.1408,
      "duration": 0.0539,
      "velocity": 88,
      "chip": "ym2612"
    },
    {
      "channel": 2,
      "note": 77,
      "start": 3.1412,
      "duration": 0.0536,
      "velocity": 88,
      "chip": "ym2612"
    },
    {
      "channel": 3,
      "note": 77,
      "start": 3.1416,
      "duration": 0.1656,
      "velocity": 88,
      "chip": "ym2612"
    },
    {
      "channel": 4,
      "note": 94,
      "start": 3.1422,
      "duration": 0.0151,
      "velocity": 97,
      "chip": "ym2612"
    },
    {
      "channel": 1,
      "note": 72,
      "start": 3.2512,
      "duration": 0.0559,
      "velocity": 88,
      "chip": "ym2612"
    },
    {
      "channel": 2,
      "note": 77,
      "start": 3.2515,
      "duration": 0.0556,
      "velocity": 88,
      "chip": "ym2612"
    },
    {
      "channel": 4,
      "note": 89,
      "start": 3.2522,
      "duration": 0.0174,
      "velocity": 97,
      "chip": "ym2612"
    },
    {
      "channel": 0,
      "note": 53,
      "start": 3.365,
      "duration": 0.2227,
      "velocity": 121,
      "chip": "ym2612"
    },
    {
      "channel": 1,
      "note": 73,
      "start": 3.3654,
      "duration": 0.0538,
      "velocity": 88,
      "chip": "ym2612"
    },
    {
      "channel": 2,
      "note": 77,
      "start": 3.3658,
      "duration": 0.0535,
      "velocity": 88,
      "chip": "ym2612"
    },
    {
      "channel": 3,
      "note": 77,
      "start": 3.3662,
      "duration": 0.0532,
      "velocity": 88,
      "chip": "ym2612"
    },
    {
      "channel": 4,
      "note": 99,
      "start": 3.3666,
      "duration": 0.0155,
      "velocity": 97,
      "chip": "ym2612"
    },
    {
      "channel": 1,
      "note": 74,
      "start": 3.4757,
      "duration": 0.0559,
      "velocity": 88,
      "chip": "ym2612"
    },
    {
      "channel": 2,
      "note": 77,
      "start": 3.4761,
      "duration": 0.0555,
      "velocity": 88,
      "chip": "ym2612"
    },
    {
      "channel": 3,
      "note": 77,
      "start": 3.4765,
      "duration": 0.0552,
      "velocity": 88,
      "chip": "ym2612"
    },
    {
      "channel": 4,
      "note": 101,
      "start": 3.4768,
      "duration": 0.0173,
      "velocity": 97,
      "chip": "ym2612"
    },
    {
      "channel": 0,
      "note": 41,
      "start": 3.5898,
      "duration": 0.2226,
      "velocity": 127,
      "chip": "ym2612"
    },
    {
      "channel": 1,
      "note": 75,
      "start": 3.5901,
      "duration": 0.1661,
      "velocity": 88,
      "chip": "ym2612"
    },
    {
      "channel": 2,
      "note": 77,
      "start": 3.5905,
      "duration": 0.1658,
      "velocity": 88,
      "chip": "ym2612"
    },
    {
      "channel": 3,
      "note": 77,
      "start": 3.5909,
      "duration": 0.0531,
      "velocity": 88,
      "chip": "ym2612"
    },
    {
      "channel": 4,
      "note": 89,
      "start": 3.5913,
      "duration": 0.0153,
      "velocity": 97,
      "chip": "ym2612"
    },
    {
      "channel": 5,
      "note": 53,
      "start": 3.5919,
      "duration": 0.4487,
      "velocity": 47,
      "chip": "ym2612"
    },
    {
      "channel": 3,
      "note": 77,
      "start": 3.7005,
      "duration": 0.0559,
      "velocity": 88,
      "chip": "ym2612"
    },
    {
      "channel": 4,
      "note": 89,
      "start": 3.7008,
      "duration": 0.018,
      "velocity": 97,
      "chip": "ym2612"
    },
    {
      "channel": 0,
      "note": 53,
      "start": 3.8143,
      "duration": 0.2226,
      "velocity": 121,
      "chip": "ym2612"
    },
    {
      "channel": 1,
      "note": 75,
      "start": 3.8147,
      "duration": 0.1661,
      "velocity": 88,
      "chip": "ym2612"
    },
    {
      "channel": 2,
      "note": 77,
      "start": 3.8151,
      "duration": 0.1658,
      "velocity": 88,
      "chip": "ym2612"
    },
    {
      "channel": 3,
      "note": 77,
      "start": 3.8155,
      "duration": 0.1655,
      "velocity": 88,
      "chip": "ym2612"
    },
    {
      "channel": 4,
      "note": 101,
      "start": 3.8159,
      "duration": 0.0153,
      "velocity": 97,
      "chip": "ym2612"
    },
    {
      "channel": 4,
      "note": 101,
      "start": 3.925,
      "duration": 0.0184,
      "velocity": 97,
      "chip": "ym2612"
    },
    {
      "channel": 0,
      "note": 41,
      "start": 4.039,
      "duration": 0.2226,
      "velocity": 127,
      "chip": "ym2612"
    },
    {
      "channel": 1,
      "note": 75,
      "start": 4.0394,
      "duration": 0.1662,
      "velocity": 88,
      "chip": "ym2612"
    },
    {
      "channel": 2,
      "note": 77,
      "start": 4.0398,
      "duration": 0.1659,
      "velocity": 88,
      "chip": "ym2612"
    },
    {
      "channel": 3,
      "note": 77,
      "start": 4.0402,
      "duration": 0.1656,
      "velocity": 88,
      "chip": "ym2612"
    },
    {
      "channel": 4,
      "note": 89,
      "start": 4.0405,
      "duration": 0.0153,
      "velocity": 97,
      "chip": "ym2612"
    },
    {
      "channel": 4,
      "note": 99,
      "start": 4.1498,
      "duration": 0.0184,
      "velocity": 97,
      "chip": "ym2612"
    },
    {
      "channel": 0,
      "note": 53,
      "start": 4.2639,
      "duration": 0.2224,
      "velocity": 121,
      "chip": "ym2612"
    },
    {
      "channel": 1,
      "note": 75,
      "start": 4.2642,
      "duration": 0.0535,
      "velocity": 88,
      "chip": "ym2612"
    },
    {
      "channel": 2,
      "note": 77,
      "start": 4.2646,
      "duration": 0.0532,
      "velocity": 88,
      "chip": "ym2612"
    },
    {
      "channel": 3,
      "note": 77,
      "start": 4.265,
      "duration": 0.1651,
      "velocity": 88,
      "chip": "ym2612"
    },
    {
      "channel": 4,
      "note": 101,
      "start": 4.2654,
      "duration": 0.015,
      "velocity": 97,
      "chip": "ym2612"
    },
    {
      "channel": 1,
      "note": 75,
      "start": 4.3743,
      "duration": 0.1683,
      "velocity": 88,
      "chip": "ym2612"
    },
    {
      "channel": 2,
      "note": 77,
      "start": 4.3746,
      "duration": 0.1679,
      "velocity": 88,
      "chip": "ym2612"
    },
    {
      "channel": 4,
      "note": 89,
      "start": 4.375,
      "duration": 0.0176,
      "velocity": 97,
      "chip": "ym2612"
    },
    {
      "channel": 0,
      "note": 41,
      "start": 4.4883,
      "duration": 0.2226,
      "velocity": 127,
      "chip": "ym2612"
    },
    {
      "channel": 3,
      "note": 77,
      "start": 4.4887,
      "duration": 0.054,
      "velocity": 88,
      "chip": "ym2612"
    },
    {
      "channel": 4,
      "note": 99,
      "start": 4.4891,
      "duration": 0.016,
      "velocity": 97,
      "chip": "ym2612"
    },
    {
      "channel": 1,
      "note": 74,
      "start": 4.599,
      "duration": 0.0559,
      "velocity": 88,
      "chip": "ym2612"
    },
    {
      "channel": 2,
      "note": 77,
      "start": 4.5994,
      "duration": 0.0555,
      "velocity": 88,
      "chip": "ym2612"
    },
    {
      "channel": 3,
      "note": 77,
      "start": 4.5998,
      "duration": 0.1673,
      "velocity": 88,
      "chip": "ym2612"
    },
    {
      "channel": 4,
      "note": 89,
      "start": 4.6002,
      "duration": 0.0173,
      "velocity": 97,
      "chip": "ym2612"
    },
    {
      "channel": 0,
      "note": 53,
      "start": 4.7131,
      "duration": 0.2224,
      "velocity": 121,
      "chip": "ym2612"
    },
    {
      "channel": 1,
      "note": 74,
      "start": 4.7135,
      "duration": 0.1659,
      "velocity": 88,
      "chip": "ym2612"
    },
    {
      "channel": 2,
      "note": 77,
      "start": 4.7139,
      "duration": 0.1655,
      "velocity": 88,
      "chip": "ym2612"
    },
    {
      "channel": 4,
      "note": 101,
      "start": 4.7143,
      "duration": 0.0154,
      "velocity": 97,
      "chip": "ym2612"
    },
    {
      "channel": 3,
      "note": 77,
      "start": 4.8236,
      "duration": 0.0559,
      "velocity": 88,
      "chip": "ym2612"
    },
    {
      "channel": 4,
      "note": 89,
      "start": 4.8239,
      "duration": 0.0181,
      "velocity": 97,
      "chip": "ym2612"
    },
    {
      "channel": 0,
      "note": 41,
      "start": 4.9375,
      "duration": 0.2227,
      "velocity": 127,
      "chip": "ym2612"
    },
    {
      "channel": 1,
      "note": 74,
      "start": 4.9379,
      "duration": 0.1662,
      "velocity": 88,
      "chip": "ym2612"
    },
    {
      "channel": 2,
      "note": 77,
      "start": 4.9383,
      "duration": 0.1659,
      "velocity": 88,
      "chip": "ym2612"
    },
    {
      "channel": 3,
      "note": 77,
      "start": 4.9387,
      "duration": 0.1656,
      "velocity": 88,
      "chip": "ym2612"
    },
    {
      "channel": 4,
      "note": 94,
      "start": 4.9391,
      "duration": 0.0153,
      "velocity": 97,
      "chip": "ym2612"
    },
    {
      "channel": 4,
      "note": 89,
      "start": 5.0483,
      "duration": 0.0184,
      "velocity": 97,
      "chip": "ym2612"
    },
    {
      "channel": 0,
      "note": 53,
      "start": 5.1625,
      "duration": 0.2223,
      "velocity": 121,
      "chip": "ym2612"
    },
    {
      "channel": 1,
      "note": 74,
      "start": 5.1629,
      "duration": 0.0534,
      "velocity": 88,
      "chip": "ym2612"
    },
    {
      "channel": 2,
      "note": 77,
      "start": 5.1633,
      "duration": 0.0531,
      "velocity": 88,
      "chip": "ym2612"
    },
    {
      "channel": 3,
      "note": 77,
      "start": 5.1637,
      "duration": 0.165,
      "velocity": 88,
      "chip": "ym2612"
    },
    {
      "channel": 4,
      "note": 99,
      "start": 5.1641,
      "duration": 0.0148,
      "velocity": 97,
      "chip": "ym2612"
    },
    {
      "channel": 1,
      "note": 74,
      "start": 5.2728,
      "duration": 0.1683,
      "velocity": 88,
      "chip": "ym2612"
    },
    {
      "channel": 2,
      "note": 77,
      "start": 5.2732,
      "duration": 0.1679,
      "velocity": 88,
      "chip": "ym2612"
    },
    {
      "channel": 4,
      "note": 101,
      "start": 5.2736,
      "duration": 0.0177,
      "velocity": 97,
      "chip": "ym2612"
    },
    {
      "channel": 0,
      "note": 63,
      "start": 5.3868,
      "duration": 0.0916,
      "velocity": 112,
      "chip": "ym2612"
    },
    {
      "channel": 3,
      "note": 77,
      "start": 5.3872,
      "duration": 0.054,
      "velocity": 88,
      "chip": "ym2612"
    },
    {
      "channel": 4,
      "note": 89,
      "start": 5.3876,
      "duration": 0.0161,
      "velocity": 97,
      "chip": "ym2612"
    },
    {
      "channel": 0,
      "note": 59,
      "start": 5.4973,
      "duration": 0.0934,
      "velocity": 112,
      "chip": "ym2612"
    },
    {
      "channel": 1,
      "note": 73,
      "start": 5.4977,
      "duration": 0.0557,
      "velocity": 88,
      "chip": "ym2612"
    },
    {
      "channel": 2,
      "note": 77,
      "start": 5.4981,
      "duration": 0.0554,
      "velocity": 88,
      "chip": "ym2612"
    },
    {
      "channel": 3,
      "note": 77,
      "start": 5.4985,
      "duration": 0.1672,
      "velocity": 88,
      "chip": "ym2612"
    },
    {
      "channel": 4,
      "note": 89,
      "start": 5.4989,
      "duration": 0.0171,
      "velocity": 97,
      "chip": "ym2612"
    },
    {
      "channel": 0,
      "note": 56,
      "start": 5.6097,
      "duration": 0.0934,
      "velocity": 112,
      "chip": "ym2612"
    },
    {
      "channel": 1,
      "note": 73,
      "start": 5.61,
      "duration": 0.168,
      "velocity": 88,
      "chip": "ym2612"
    },
    {
      "channel": 2,
      "note": 77,
      "start": 5.6104,
      "duration": 0.1677,
      "velocity": 88,
      "chip": "ym2612"
    },
    {
      "channel": 4,
      "note": 101,
      "start": 5.6108,
      "duration": 0.0175,
      "velocity": 97,
      "chip": "ym2612"
    },
    {
      "channel": 0,
      "note": 41,
      "start": 5.7241,
      "duration": 0.0913,
      "velocity": 127,
      "chip": "ym2612"
    },
    {
      "channel": 3,
      "note": 77,
      "start": 5.7244,
      "duration": 0.0537,
      "velocity": 88,
      "chip": "ym2612"
    },
    {
      "channel": 4,
      "note": 101,
      "start": 5.7248,
      "duration": 0.0158,
      "velocity": 97,
      "chip": "ym2612"
    },
    {
      "channel": 0,
      "note": 43,
      "start": 5.8361,
      "duration": 0.2975,
      "velocity": 127,
      "chip": "ym2612"
    },
    {
      "channel": 1,
      "note": 73,
      "start": 5.8365,
      "duration": 0.1662,
      "velocity": 88,
      "chip": "ym2612"
    },
    {
      "channel": 2,
      "note": 77,
      "start": 5.8368,
      "duration": 0.1659,
      "velocity": 88,
      "chip": "ym2612"
    },
    {
      "channel": 3,
      "note": 77,
      "start": 5.8372,
      "duration": 0.1656,
      "velocity": 88,
      "chip": "ym2612"
    },
    {
      "channel": 4,
      "note": 89,
      "start": 5.8376,
      "duration": 0.0153,
      "velocity": 97,
      "chip": "ym2612"
    },
    {
      "channel": 4,
      "note": 99,
      "start": 5.9469,
      "duration": 0.0184,
      "velocity": 97,
      "chip": "ym2612"
    },
    {
      "channel": 1,
      "note": 73,
      "start": 6.0592,
      "duration": 0.0559,
      "velocity": 88,
      "chip": "ym2612"
    },
    {
      "channel": 2,
      "note": 77,
      "start": 6.0595,
      "duration": 0.0555,
      "velocity": 88,
      "chip": "ym2612"
    },
    {
      "channel": 3,
      "note": 77,
      "start": 6.0599,
      "duration": 0.1674,
      "velocity": 88,
      "chip": "ym2612"
    },
    {
      "channel": 4,
      "note": 101,
      "start": 6.0603,
      "duration": 0.0173,
      "velocity": 97,
      "chip": "ym2612"
    },
    {
      "channel": 0,
      "note": 43,
      "start": 6.1713,
      "duration": 0.0746,
      "velocity": 127,
      "chip": "ym2612"
    },
    {
      "channel": 1,
      "note": 73,
      "start": 6.172,
      "duration": 0.1677,
      "velocity": 88,
      "chip": "ym2612"
    },
    {
      "channel": 2,
      "note": 77,
      "start": 6.1724,
      "duration": 0.1673,
      "velocity": 88,
      "chip": "ym2612"
    },
    {
      "channel": 4,
      "note": 89,
      "start": 6.1728,
      "duration": 0.0171,
      "velocity": 97,
      "chip": "ym2612"
    },
    {
      "channel": 0,
      "note": 41,
      "start": 6.2854,
      "duration": 0.0729,
      "velocity": 127,
      "chip": "ym2612"
    },
    {
      "channel": 3,
      "note": 77,
      "start": 6.2858,
      "duration": 0.054,
      "velocity": 88,
      "chip": "ym2612"
    },
    {
      "channel": 4,
      "note": 99,
      "start": 6.2861,
      "duration": 0.0161,
      "velocity": 97,
      "chip": "ym2612"
    },
    {
      "channel": 0,
      "note": 43,
      "start": 6.3977,
      "duration": 0.0729,
      "velocity": 127,
      "chip": "ym2612"
    },
    {
      "channel": 1,
      "note": 72,
      "start": 6.3981,
      "duration": 0.0541,
      "velocity": 88,
      "chip": "ym2612"
    },
    {
      "channel": 2,
      "note": 77,
      "start": 6.3985,
      "duration": 0.0537,
      "velocity": 88,
      "chip": "ym2612"
    },
    {
      "channel": 3,
      "note": 77,
      "start": 6.3988,
      "duration": 0.1655,
      "velocity": 88,
      "chip": "ym2612"
    },
    {
      "channel": 4,
      "note": 89,
      "start": 6.3992,
      "duration": 0.0153,
      "velocity": 97,
      "chip": "ym2612"
    },
    {
      "channel": 0,
      "note": 43,
      "start": 6.5083,
      "duration": 0.0746,
      "velocity": 127,
      "chip": "ym2612"
    },
    {
      "channel": 1,
      "note": 72,
      "start": 6.5087,
      "duration": 0.1679,
      "velocity": 88,
      "chip": "ym2612"
    },
    {
      "channel": 2,
      "note": 77,
      "start": 6.509,
      "duration": 0.1676,
      "velocity": 88,
      "chip": "ym2612"
    },
    {
      "channel": 4,
      "note": 101,
      "start": 6.5094,
      "duration": 0.0174,
      "velocity": 97,
      "chip": "ym2612"
    },
    {
      "channel": 0,
      "note": 43,
      "start": 6.6206,
      "duration": 0.0746,
      "velocity": 127,
      "chip": "ym2612"
    },
    {
      "channel": 3,
      "note": 77,
      "start": 6.621,
      "duration": 0.0557,
      "velocity": 88,
      "chip": "ym2612"
    },
    {
      "channel": 4,
      "note": 89,
      "start": 6.6214,
      "duration": 0.0178,
      "velocity": 97,
      "chip": "ym2612"
    },
    {
      "channel": 0,
      "note": 41,
      "start": 6.7346,
      "duration": 0.0729,
      "velocity": 127,
      "chip": "ym2612"
    },
    {
      "channel": 1,
      "note": 72,
      "start": 6.735,
      "duration": 0.0539,
      "velocity": 88,
      "chip": "ym2612"
    },
    {
      "channel": 2,
      "note": 77,
      "start": 6.7354,
      "duration": 0.0536,
      "velocity": 88,
      "chip": "ym2612"
    },
    {
      "channel": 3,
      "note": 77,
      "start": 6.7358,
      "duration": 0.1656,
      "velocity": 88,
      "chip": "ym2612"
    },
    {
      "channel": 4,
      "note": 94,
      "start": 6.7362,
      "duration": 0.0153,
      "velocity": 97,
      "chip": "ym2612"
    },
    {
      "channel": 0,
      "note": 43,
      "start": 6.847,
      "duration": 0.0729,
      "velocity": 127,
      "chip": "ym2612"
    },
    {
      "channel": 1,
      "note": 72,
      "start": 6.8473,
      "duration": 0.0539,
      "velocity": 88,
      "chip": "ym2612"
    },
    {
      "channel": 2,
      "note": 77,
      "start": 6.8477,
      "duration": 0.0536,
      "velocity": 88,
      "chip": "ym2612"
    },
    {
      "channel": 4,
      "note": 89,
      "start": 6.8481,
      "duration": 0.0157,
      "velocity": 97,
      "chip": "ym2612"
    },
    {
      "channel": 0,
      "note": 43,
      "start": 6.9576,
      "duration": 0.0746,
      "velocity": 127,
      "chip": "ym2612"
    },
    {
      "channel": 1,
      "note": 73,
      "start": 6.9579,
      "duration": 0.0556,
      "velocity": 88,
      "chip": "ym2612"
    },
    {
      "channel": 2,
      "note": 77,
      "start": 6.9583,
      "duration": 0.0553,
      "velocity": 88,
      "chip": "ym2612"
    },
    {
      "channel": 3,
      "note": 77,
      "start": 6.9587,
      "duration": 0.055,
      "velocity": 88,
      "chip": "ym2612"
    },
    {
      "channel": 4,
      "note": 99,
      "start": 6.9591,
      "duration": 0.0171,
      "velocity": 97,
      "chip": "ym2612"
    },
    {
      "channel": 0,
      "note": 43,
      "start": 7.0699,
      "duration": 0.0746,
      "velocity": 127,
      "chip": "ym2612"
    },
    {
      "channel": 1,
      "note": 74,
      "start": 7.0703,
      "duration": 0.0556,
      "velocity": 88,
      "chip": "ym2612"
    },
    {
      "channel": 2,
      "note": 77,
      "start": 7.0706,
      "duration": 0.0553,
      "velocity": 88,
      "chip": "ym2612"
    },
    {
      "channel": 3,
      "note": 77,
      "start": 7.071,
      "duration": 0.055,
      "velocity": 88,
      "chip": "ym2612"
    },
    {
      "channel": 4,
      "note": 101,
      "start": 7.0714,
      "duration": 0.0171,
      "velocity": 97,
      "chip": "ym2612"
    },
    {
      "channel": 0,
      "note": 41,
      "start": 7.184,
      "duration": 0.0728,
      "velocity": 127,
      "chip": "ym2612"
    },
    {
      "channel": 1,
      "note": 53,
      "start": 7.186,
      "duration": 0.1644,
      "velocity": 99,
      "chip": "ym2612"
    },
    {
      "channel": 2,
      "note": 65,
      "start": 7.188,
      "duration": 0.1083,
      "velocity": 92,
      "chip": "ym2612"
    },
    {
      "channel": 3,
      "note": 75,
      "start": 7.19,
      "duration": 0.1605,
      "velocity": 88,
      "chip": "ym2612"
    },
    {
      "channel": 4,
      "note": 89,
      "start": 7.1904,
      "duration": 0.0104,
      "velocity": 97,
      "chip": "ym2612"
    },
    {
      "channel": 5,
      "note": 53,
      "start": 7.1908,
      "duration": 0.2174,
      "velocity": 47,
      "chip": "ym2612"
    },
    {
      "channel": 0,
      "note": 53,
      "start": 7.2962,
      "duration": 0.1103,
      "velocity": 121,
      "chip": "ym2612"
    },
    {
      "channel": 4,
      "note": 89,
      "start": 7.2967,
      "duration": 0.0163,
      "velocity": 97,
      "chip": "ym2612"
    },
    {
      "channel": 0,
      "note": 53,
      "start": 7.4068,
      "duration": 0.112,
      "velocity": 121,
      "chip": "ym2612"
    },
    {
      "channel": 1,
      "note": 51,
      "start": 7.4071,
      "duration": 0.1679,
      "velocity": 99,
      "chip": "ym2612"
    },
    {
      "channel": 2,
      "note": 63,
      "start": 7.4074,
      "duration": 0.1118,
      "velocity": 92,
      "chip": "ym2612"
    },
    {
      "channel": 3,
      "note": 75,
      "start": 7.4078,
      "duration": 0.1674,
      "velocity": 88,
      "chip": "ym2612"
    },
    {
      "channel": 4,
      "note": 101,
      "start": 7.4082,
      "duration": 0.0171,
      "velocity": 97,
      "chip": "ym2612"
    },
    {
      "channel": 5,
      "note": 51,
      "start": 7.4086,
      "duration": 0.2263,
      "velocity": 47,
      "chip": "ym2612"
    },
    {
      "channel": 0,
      "note": 53,
      "start": 7.5192,
      "duration": 0.112,
      "velocity": 121,
      "chip": "ym2612"
    },
    {
      "channel": 4,
      "note": 101,
      "start": 7.5196,
      "duration": 0.0181,
      "velocity": 97,
      "chip": "ym2612"
    },
    {
      "channel": 0,
      "note": 43,
      "start": 7.6335,
      "duration": 0.1849,
      "velocity": 127,
      "chip": "ym2612"
    },
    {
      "channel": 1,
      "note": 53,
      "start": 7.6337,
      "duration": 0.2783,
      "velocity": 99,
      "chip": "ym2612"
    },
    {
      "channel": 2,
      "note": 65,
      "start": 7.634,
      "duration": 0.1096,
      "velocity": 92,
      "chip": "ym2612"
    },
    {
      "channel": 3,
      "note": 75,
      "start": 7.6344,
      "duration": 0.1655,
      "velocity": 88,
      "chip": "ym2612"
    },
    {
      "channel": 4,
      "note": 89,
      "start": 7.6348,
      "duration": 0.0153,
      "velocity": 97,
      "chip": "ym2612"
    },
    {
      "channel": 5,
      "note": 53,
      "start": 7.6352,
      "duration": 0.448,
      "velocity": 47,
      "chip": "ym2612"
    },
    {
      "channel": 4,
      "note": 99,
      "start": 7.744,
      "duration": 0.0184,
      "velocity": 97,
      "chip": "ym2612"
    },
    {
      "channel": 0,
      "note": 53,
      "start": 7.8578,
      "duration": 0.1103,
      "velocity": 121,
      "chip": "ym2612"
    },
    {
      "channel": 2,
      "note": 63,
      "start": 7.8581,
      "duration": 0.0164,
      "velocity": 92,
      "chip": "ym2612"
    },
    {
      "channel": 3,
      "note": 75,
      "start": 7.8585,
      "duration": 0.0536,
      "velocity": 88,
      "chip": "ym2612"
    },
    {
      "channel": 4,
      "note": 101,
      "start": 7.8589,
      "duration": 0.0158,
      "velocity": 97,
      "chip": "ym2612"
    },
    {
      "channel": 0,
      "note": 43,
      "start": 7.9702,
      "duration": 0.0729,
      "velocity": 127,
      "chip": "ym2612"
    },
    {
      "channel": 1,
      "note": 46,
      "start": 7.9705,
      "duration": 0.1663,
      "velocity": 99,
      "chip": "ym2612"
    },
    {
      "channel": 2,
      "note": 65,
      "start": 7.9707,
      "duration": 0.1121,
      "velocity": 92,
      "chip": "ym2612"
    },
    {
      "channel": 3,
      "note": 75,
      "start": 7.9711,
      "duration": 0.1658,
      "velocity": 88,
      "chip": "ym2612"
    },
    {
      "channel": 4,
      "note": 89,
      "start": 7.9715,
      "duration": 0.0155,
      "velocity": 97,
      "chip": "ym2612"
    },
    {
      "channel": 0,
      "note": 41,
      "start": 8.0827,
      "duration": 0.0726,
      "velocity": 127,
      "chip": "ym2612"
    },
    {
      "channel": 4,
      "note": 99,
      "start": 8.0832,
      "duration": 0.0162,
      "velocity": 97,
      "chip": "ym2612"
    },
    {
      "channel": 0,
      "note": 53,
      "start": 8.1948,
      "duration": 0.1103,
      "velocity": 121,
      "chip": "ym2612"
    },
    {
      "channel": 1,
      "note": 46,
      "start": 8.1951,
      "duration": 0.0539,
      "velocity": 99,
      "chip": "ym2612"
    },
    {
      "channel": 2,
      "note": 65,
      "start": 8.1954,
      "duration": 0.0162,
      "velocity": 92,
      "chip": "ym2612"
    },
    {
      "channel": 3,
      "note": 74,
      "start": 8.1958,
      "duration": 0.0533,
      "velocity": 88,
      "chip": "ym2612"
    },
    {
      "channel": 4,
      "note": 89,
      "start": 8.1961,
      "duration": 0.0155,
      "velocity": 97,
      "chip": "ym2612"
    },
    {
      "channel": 1,
      "note": 47,
      "start": 8.3054,
      "duration": 0.0559,
      "velocity": 99,
      "chip": "ym2612"
    },
    {
      "channel": 2,
      "note": 63,
      "start": 8.3057,
      "duration": 0.1123,
      "velocity": 92,
      "chip": "ym2612"
    },
    {
      "channel": 3,
      "note": 74,
      "start": 8.3061,
      "duration": 0.1676,
      "velocity": 88,
      "chip": "ym2612"
    },
    {
      "channel": 4,
      "note": 101,
      "start": 8.3065,
      "duration": 0.0174,
      "velocity": 97,
      "chip": "ym2612"
    },
    {
      "channel": 0,
      "note": 53,
      "start": 8.4177,
      "duration": 0.1121,
      "velocity": 121,
      "chip": "ym2612"
    },
    {
      "channel": 1,
      "note": 48,
      "start": 8.418,
      "duration": 0.0556,
      "velocity": 99,
      "chip": "ym2612"
    },
    {
      "channel": 4,
      "note": 89,
      "start": 8.4184,
      "duration": 0.0178,
      "velocity": 97,
      "chip": "ym2612"
    },
    {
      "channel": 0,
      "note": 43,
      "start": 8.5321,
      "duration": 0.1849,
      "velocity": 127,
      "chip": "ym2612"
    },
    {
      "channel": 1,
      "note": 51,
      "start": 8.5323,
      "duration": 0.166,
      "velocity": 99,
      "chip": "ym2612"
    },
    {
      "channel": 2,
      "note": 65,
      "start": 8.5326,
      "duration": 0.1096,
      "velocity": 92,
      "chip": "ym2612"
    },
    {
      "channel": 3,
      "note": 74,
      "start": 8.533,
      "duration": 0.1655,
      "velocity": 88,
      "chip": "ym2612"
    },
    {
      "channel": 4,
      "note": 94,
      "start": 8.5334,
      "duration": 0.0152,
      "velocity": 97,
      "chip": "ym2612"
    },
    {
      "channel": 4,
      "note": 89,
      "start": 8.6426,
      "duration": 0.0184,
      "velocity": 97,
      "chip": "ym2612"
    },
    {
      "channel": 0,
      "note": 53,
      "start": 8.7564,
      "duration": 0.1103,
      "velocity": 121,
      "chip": "ym2612"
    },
    {
      "channel": 1,
      "note": 53,
      "start": 8.7567,
      "duration": 0.3908,
      "velocity": 99,
      "chip": "ym2612"
    },
    {
      "channel": 2,
      "note": 68,
      "start": 8.757,
      "duration": 0.1101,
      "velocity": 92,
      "chip": "ym2612"
    },
    {
      "channel": 3,
      "note": 74,
      "start": 8.7574,
      "duration": 0.0532,
      "velocity": 88,
      "chip": "ym2612"
    },
    {
      "channel": 4,
      "note": 99,
      "start": 8.7578,
      "duration": 0.0154,
      "velocity": 97,
      "chip": "ym2612"
    },
    {
      "channel": 0,
      "note": 53,
      "start": 8.867,
      "duration": 0.112,
      "velocity": 121,
      "chip": "ym2612"
    },
    {
      "channel": 3,
      "note": 74,
      "start": 8.8675,
      "duration": 0.1679,
      "velocity": 88,
      "chip": "ym2612"
    },
    {
      "channel": 4,
      "note": 101,
      "start": 8.8678,
      "duration": 0.0177,
      "velocity": 97,
      "chip": "ym2612"
    },
    {
      "channel": 0,
      "note": 41,
      "start": 8.9811,
      "duration": 0.1103,
      "velocity": 127,
      "chip": "ym2612"
    },
    {
      "channel": 2,
      "note": 65,
      "start": 8.9813,
      "duration": 0.1123,
      "velocity": 92,
      "chip": "ym2612"
    },
    {
      "channel": 4,
      "note": 89,
      "start": 8.982,
      "duration": 0.0159,
      "velocity": 97,
      "chip": "ym2612"
    },
    {
      "channel": 0,
      "note": 53,
      "start": 9.0936,
      "duration": 0.1101,
      "velocity": 121,
      "chip": "ym2612"
    },
    {
      "channel": 3,
      "note": 73,
      "start": 9.0941,
      "duration": 0.0536,
      "velocity": 88,
      "chip": "ym2612"
    },
    {
      "channel": 4,
      "note": 89,
      "start": 9.0944,
      "duration": 0.0157,
      "velocity": 97,
      "chip": "ym2612"
    },
    {
      "channel": 0,
      "note": 53,
      "start": 9.204,
      "duration": 0.112,
      "velocity": 121,
      "chip": "ym2612"
    },
    {
      "channel": 1,
      "note": 51,
      "start": 9.2042,
      "duration": 0.1679,
      "velocity": 99,
      "chip": "ym2612"
    },
    {
      "channel": 2,
      "note": 63,
      "start": 9.2045,
      "duration": 0.1118,
      "velocity": 92,
      "chip": "ym2612"
    },
    {
      "channel": 3,
      "note": 73,
      "start": 9.2049,
      "duration": 0.1674,
      "velocity": 88,
      "chip": "ym2612"
    },
    {
      "channel": 4,
      "note": 101,
      "start": 9.2053,
      "duration": 0.0171,
      "velocity": 97,
      "chip": "ym2612"
    },
    {
      "channel": 0,
      "note": 53,
      "start": 9.3163,
      "duration": 0.112,
      "velocity": 121,
      "chip": "ym2612"
    },
    {
      "channel": 4,
      "note": 101,
      "start": 9.3167,
      "duration": 0.0181,
      "velocity": 97,
      "chip": "ym2612"
    },
    {
      "channel": 0,
      "note": 43,
      "start": 9.4303,
      "duration": 0.1852,
      "velocity": 127,
      "chip": "ym2612"
    },
    {
      "channel": 1,
      "note": 53,
      "start": 9.4306,
      "duration": 0.2785,
      "velocity": 99,
      "chip": "ym2612"
    },
    {
      "channel": 2,
      "note": 65,
      "start": 9.4309,
      "duration": 0.1099,
      "velocity": 92,
      "chip": "ym2612"
    },
    {
      "channel": 3,
      "note": 73,
      "start": 9.4313,
      "duration": 0.1657,
      "velocity": 88,
      "chip": "ym2612"
    },
    {
      "channel": 4,
      "note": 89,
      "start": 9.4317,
      "duration": 0.0155,
      "velocity": 97,
      "chip": "ym2612"
    },
    {
      "channel": 4,
      "note": 99,
      "start": 9.5412,
      "duration": 0.0184,
      "velocity": 97,
      "chip": "ym2612"
    },
    {
      "channel": 0,
      "note": 53,
      "start": 9.655,
      "duration": 0.1103,
      "velocity": 121,
      "chip": "ym2612"
    },
    {
      "channel": 2,
      "note": 63,
      "start": 9.6553,
      "duration": 0.0167,
      "velocity": 92,
      "chip": "ym2612"
    },
    {
      "channel": 3,
      "note": 73,
      "start": 9.6557,
      "duration": 0.0536,
      "velocity": 88,
      "chip": "ym2612"
    },
    {
      "channel": 4,
      "note": 101,
      "start": 9.6561,
      "duration": 0.016,
      "velocity": 97,
      "chip": "ym2612"
    },
    {
      "channel": 0,
      "note": 43,
      "start": 9.7673,
      "duration": 0.0729,
      "velocity": 127,
      "chip": "ym2612"
    },
    {
      "channel": 1,
      "note": 53,
      "start": 9.7676,
      "duration": 0.1663,
      "velocity": 99,
      "chip": "ym2612"
    },
    {
      "channel": 2,
      "note": 65,
      "start": 9.7678,
      "duration": 0.1118,
      "velocity": 92,
      "chip": "ym2612"
    },
    {
      "channel": 3,
      "note": 73,
      "start": 9.7682,
      "duration": 0.1658,
      "velocity": 88,
      "chip": "ym2612"
    },
    {
      "channel": 4,
      "note": 89,
      "start": 9.7686,
      "duration": 0.0155,
      "velocity": 97,
      "chip": "ym2612"
    },
    {
      "channel": 0,
      "note": 41,
      "start": 9.8796,
      "duration": 0.0729,
      "velocity": 127,
      "chip": "ym2612"
    },
    {
      "channel": 4,
      "note": 99,
      "start": 9.8801,
      "duration": 0.0164,
      "velocity": 97,
      "chip": "ym2612"
    },
    {
      "channel": 0,
      "note": 53,
      "start": 9.9922,
      "duration": 0.1101,
      "velocity": 121,
      "chip": "ym2612"
    },
    {
      "channel": 1,
      "note": 65,
      "start": 9.9924,
      "duration": 0.166,
      "velocity": 99,
      "chip": "ym2612"
    },
    {
      "channel": 2,
      "note": 65,
      "start": 9.9927,
      "duration": 0.0159,
      "velocity": 92,
      "chip": "ym2612"
    },
    {
      "channel": 3,
      "note": 72,
      "start": 9.9931,
      "duration": 0.053,
      "velocity": 88,
      "chip": "ym2612"
    },
    {
      "channel": 4,
      "note": 89,
      "start": 9.9935,
      "duration": 0.0152,
      "velocity": 97,
      "chip": "ym2612"
    },
    {
      "channel": 2,
      "note": 63,
      "start": 10.1025,
      "duration": 0.1126,
      "velocity": 92,
      "chip": "ym2612"
    },
    {
      "channel": 3,
      "note": 72,
      "start": 10.1029,
      "duration": 0.1679,
      "velocity": 88,
      "chip": "ym2612"
    },
    {
      "channel": 4,
      "note": 101,
      "start": 10.1033,
      "duration": 0.0177,
      "velocity": 97,
      "chip": "ym2612"
    },
    {
      "channel": 0,
      "note": 53,
      "start": 10.2148,
      "duration": 0.1121,
      "velocity": 121,
      "chip": "ym2612"
    },
    {
      "channel": 1,
      "note": 53,
      "start": 10.2151,
      "duration": 0.0556,
      "velocity": 99,
      "chip": "ym2612"
    },
    {
      "channel": 4,
      "note": 89,
      "start": 10.2155,
      "duration": 0.0178,
      "velocity": 97,
      "chip": "ym2612"
    },
    {
      "channel": 0,
      "note": 43,
      "start": 10.3289,
      "duration": 0.1852,
      "velocity": 127,
      "chip": "ym2612"
    },
    {
      "channel": 1,
      "note": 46,
      "start": 10.3292,
      "duration": 0.1663,
      "velocity": 99,
      "chip": "ym2612"
    },
    {
      "channel": 2,
      "note": 70,
      "start": 10.3295,
      "duration": 0.1099,
      "velocity": 92,
      "chip": "ym2612"
    },
    {
      "channel": 3,
      "note": 72,
      "start": 10.3298,
      "duration": 0.0533,
      "velocity": 88,
      "chip": "ym2612"
    },
    {
      "channel": 4,
      "note": 94,
      "start": 10.3302,
      "duration": 0.0155,
      "velocity": 97,
      "chip": "ym2612"
    },
    {
      "channel": 5,
      "note": 53,
      "start": 10.3306,
      "duration": 0.2246,
      "velocity": 47,
      "chip": "ym2612"
    },
    {
      "channel": 3,
      "note": 72,
      "start": 10.4397,
      "duration": 0.0559,
      "velocity": 88,
      "chip": "ym2612"
    },
    {
      "channel": 4,
      "note": 89,
      "start": 10.4401,
      "duration": 0.018,
      "velocity": 97,
      "chip": "ym2612"
    },
    {
      "channel": 0,
      "note": 53,
      "start": 10.5538,
      "duration": 0.1101,
      "velocity": 121,
      "chip": "ym2612"
    },
    {
      "channel": 1,
      "note": 48,
      "start": 10.5541,
      "duration": 0.166,
      "velocity": 99,
      "chip": "ym2612"
    },
    {
      "channel": 2,
      "note": 68,
      "start": 10.5544,
      "duration": 0.1098,
      "velocity": 92,
      "chip": "ym2612"
    },
    {
      "channel": 3,
      "note": 73,
      "start": 10.5547,
      "duration": 0.053,
      "velocity": 88,
      "chip": "ym2612"
    },
    {
      "channel": 4,
      "note": 99,
      "start": 10.5551,
      "duration": 0.0152,
      "velocity": 97,
      "chip": "ym2612"
    },
    {
      "channel": 5,
      "note": 51,
      "start": 10.5555,
      "duration": 0.2241,
      "velocity": 47,
      "chip": "ym2612"
    },
    {
      "channel": 0,
      "note": 53,
      "start": 10.6641,
      "duration": 0.112,
      "velocity": 121,
      "chip": "ym2612"
    },
    {
      "channel": 3,
      "note": 74,
      "start": 10.6646,
      "duration": 0.0556,
      "velocity": 88,
      "chip": "ym2612"
    },
    {
      "channel": 4,
      "note": 101,
      "start": 10.6649,
      "duration": 0.0177,
      "velocity": 97,
      "chip": "ym2612"
    },
    {
      "channel": 0,
      "note": 41,
      "start": 10.7782,
      "duration": 0.1103,
      "velocity": 127,
      "chip": "ym2612"
    },
    {
      "channel": 1,
      "note": 53,
      "start": 10.7785,
      "duration": 0.1662,
      "velocity": 99,
      "chip": "ym2612"
    },
    {
      "channel": 2,
      "note": 65,
      "start": 10.7788,
      "duration": 0.1118,
      "velocity": 92,
      "chip": "ym2612"
    },
    {
      "channel": 3,
      "note": 75,
      "start": 10.7791,
      "duration": 0.1656,
      "velocity": 88,
      "chip": "ym2612"
    },
    {
      "channel": 4,
      "note": 89,
      "start": 10.7795,
      "duration": 0.0155,
      "velocity": 97,
      "chip": "ym2612"
    },
    {
      "channel": 5,
      "note": 53,
      "start": 10.78,
      "duration": 0.2227,
      "velocity": 47,
      "chip": "ym2612"
    },
    {
      "channel": 0,
      "note": 53,
      "start": 10.8905,
      "duration": 0.1103,
      "velocity": 121,
      "chip": "ym2612"
    },
    {
      "channel": 4,
      "note": 89,
      "start": 10.891,
      "duration": 0.0163,
      "velocity": 97,
      "chip": "ym2612"
    },
    {
      "channel": 0,
      "note": 53,
      "start": 11.0011,
      "duration": 0.112,
      "velocity": 121,
      "chip": "ym2612"
    },
    {
      "channel": 1,
      "note": 51,
      "start": 11.0014,
      "duration": 0.1679,
      "velocity": 99,
      "chip": "ym2612"
    },
    {
      "channel": 2,
      "note": 63,
      "start": 11.0017,
      "duration": 0.1118,
      "velocity": 92,
      "chip": "ym2612"
    },
    {
      "channel": 3,
      "note": 75,
      "start": 11.0023,
      "duration": 0.1671,
      "velocity": 88,
      "chip": "ym2612"
    },
    {
      "channel": 4,
      "note": 101,
      "start": 11.0027,
      "duration": 0.0169,
      "velocity": 97,
      "chip": "ym2612"
    },
    {
      "channel": 5,
      "note": 51,
      "start": 11.0031,
      "duration": 0.2258,
      "velocity": 47,
      "chip": "ym2612"
    },
    {
      "channel": 0,
      "note": 53,
      "start": 11.1134,
      "duration": 0.112,
      "velocity": 121,
      "chip": "ym2612"
    },
    {
      "channel": 4,
      "note": 101,
      "start": 11.1139,
      "duration": 0.0182,
      "velocity": 97,
      "chip": "ym2612"
    },
    {
      "channel": 0,
      "note": 43,
      "start": 11.2275,
      "duration": 0.1852,
      "velocity": 127,
      "chip": "ym2612"
    },
    {
      "channel": 1,
      "note": 53,
      "start": 11.2277,
      "duration": 0.2785,
      "velocity": 99,
      "chip": "ym2612"
    },
    {
      "channel": 2,
      "note": 65,
      "start": 11.228,
      "duration": 0.1099,
      "velocity": 92,
      "chip": "ym2612"
    },
    {
      "channel": 3,
      "note": 75,
      "start": 11.2284,
      "duration": 0.1657,
      "velocity": 88,
      "chip": "ym2612"
    },
    {
      "channel": 4,
      "note": 89,
      "start": 11.2288,
      "duration": 0.0155,
      "velocity": 97,
      "chip": "ym2612"
    },
    {
      "channel": 5,
      "note": 53,
      "start": 11.2292,
      "duration": 0.448,
      "velocity": 47,
      "chip": "ym2612"
    },
    {
      "channel": 4,
      "note": 99,
      "start": 11.3383,
      "duration": 0.0184,
      "velocity": 97,
      "chip": "ym2612"
    },
    {
      "channel": 0,
      "note": 53,
      "start": 11.4523,
      "duration": 0.1101,
      "velocity": 121,
      "chip": "ym2612"
    },
    {
      "channel": 2,
      "note": 63,
      "start": 11.4526,
      "duration": 0.0162,
      "velocity": 92,
      "chip": "ym2612"
    },
    {
      "channel": 3,
      "note": 75,
      "start": 11.453,
      "duration": 0.0534,
      "velocity": 88,
      "chip": "ym2612"
    },
    {
      "channel": 4,
      "note": 101,
      "start": 11.4534,
      "duration": 0.0155,
      "velocity": 97,
      "chip": "ym2612"
    },
    {
      "channel": 0,
      "note": 43,
      "start": 11.5644,
      "duration": 0.0729,
      "velocity": 127,
      "chip": "ym2612"
    },
    {
      "channel": 1,
      "note": 46,
      "start": 11.5647,
      "duration": 0.1663,
      "velocity": 99,
      "chip": "ym2612"
    },
    {
      "channel": 2,
      "note": 65,
      "start": 11.565,
      "duration": 0.1118,
      "velocity": 92,
      "chip": "ym2612"
    },
    {
      "channel": 3,
      "note": 75,
      "start": 11.5654,
      "duration": 0.1658,
      "velocity": 88,
      "chip": "ym2612"
    },
    {
      "channel": 4,
      "note": 89,
      "start": 11.5657,
      "duration": 0.0155,
      "velocity": 97,
      "chip": "ym2612"
    },
    {
      "channel": 0,
      "note": 41,
      "start": 11.6767,
      "duration": 0.0729,
      "velocity": 127,
      "chip": "ym2612"
    },
    {
      "channel": 4,
      "note": 99,
      "start": 11.6772,
      "duration": 0.0164,
      "velocity": 97,
      "chip": "ym2612"
    },
    {
      "channel": 0,
      "note": 53,
      "start": 11.7891,
      "duration": 0.1103,
      "velocity": 121,
      "chip": "ym2612"
    },
    {
      "channel": 1,
      "note": 46,
      "start": 11.7894,
      "duration": 0.0539,
      "velocity": 99,
      "chip": "ym2612"
    },
    {
      "channel": 2,
      "note": 65,
      "start": 11.7896,
      "duration": 0.0161,
      "velocity": 92,
      "chip": "ym2612"
    },
    {
      "channel": 3,
      "note": 74,
      "start": 11.79,
      "duration": 0.0533,
      "velocity": 88,
      "chip": "ym2612"
    },
    {
      "channel": 4,
      "note": 89,
      "start": 11.7904,
      "duration": 0.0154,
      "velocity": 97,
      "chip": "ym2612"
    },
    {
      "channel": 1,
      "note": 47,
      "start": 11.8997,
      "duration": 0.0559,
      "velocity": 99,
      "chip": "ym2612"
    },
    {
      "channel": 2,
      "note": 63,
      "start": 11.8999,
      "duration": 0.1126,
      "velocity": 92,
      "chip": "ym2612"
    },
    {
      "channel": 3,
      "note": 74,
      "start": 11.9003,
      "duration": 0.1677,
      "velocity": 88,
      "chip": "ym2612"
    },
    {
      "channel": 4,
      "note": 101,
      "start": 11.9007,
      "duration": 0.0174,
      "velocity": 97,
      "chip": "ym2612"
    },
    {
      "channel": 0,
      "note": 53,
      "start": 12.0122,
      "duration": 0.1118,
      "velocity": 121,
      "chip": "ym2612"
    },
    {
      "channel": 1,
      "note": 48,
      "start": 12.0124,
      "duration": 0.0554,
      "velocity": 99,
      "chip": "ym2612"
    },
    {
      "channel": 4,
      "note": 89,
      "start": 12.0129,
      "duration": 0.0176,
      "velocity": 97,
      "chip": "ym2612"
    },
    {
      "channel": 0,
      "note": 43,
      "start": 12.126,
      "duration": 0.1852,
      "velocity": 127,
      "chip": "ym2612"
    },
    {
      "channel": 1,
      "note": 51,
      "start": 12.1263,
      "duration": 0.1663,
      "velocity": 99,
      "chip": "ym2612"
    },
    {
      "channel": 2,
      "note": 65,
      "start": 12.1266,
      "duration": 0.1099,
      "velocity": 92,
      "chip": "ym2612"
    },
    {
      "channel": 3,
      "note": 74,
      "start": 12.127,
      "duration": 0.1658,
      "velocity": 88,
      "chip": "ym2612"
    },
    {
      "channel": 4,
      "note": 94,
      "start": 12.1273,
      "duration": 0.0155,
      "velocity": 97,
      "chip": "ym2612"
    },
    {
      "channel": 4,
      "note": 89,
      "start": 12.2368,
      "duration": 0.0184,
      "velocity": 97,
      "chip": "ym2612"
    },
    {
      "channel": 0,
      "note": 53,
      "start": 12.3506,
      "duration": 0.1103,
      "velocity": 121,
      "chip": "ym2612"
    },
    {
      "channel": 1,
      "note": 53,
      "start": 12.3509,
      "duration": 0.3911,
      "velocity": 99,
      "chip": "ym2612"
    },
    {
      "channel": 2,
      "note": 68,
      "start": 12.3512,
      "duration": 0.1101,
      "velocity": 92,
      "chip": "ym2612"
    },
    {
      "channel": 3,
      "note": 74,
      "start": 12.3516,
      "duration": 0.0532,
      "velocity": 88,
      "chip": "ym2612"
    },
    {
      "channel": 4,
      "note": 99,
      "start": 12.3522,
      "duration": 0.0152,
      "velocity": 97,
      "chip": "ym2612"
    },
    {
      "channel": 0,
      "note": 53,
      "start": 12.4612,
      "duration": 0.112,
      "velocity": 121,
      "chip": "ym2612"
    },
    {
      "channel": 3,
      "note": 74,
      "start": 12.462,
      "duration": 0.1676,
      "velocity": 88,
      "chip": "ym2612"
    },
    {
      "channel": 4,
      "note": 101,
      "start": 12.4623,
      "duration": 0.0175,
      "velocity": 97,
      "chip": "ym2612"
    },
    {
      "channel": 0,
      "note": 41,
      "start": 12.5753,
      "duration": 0.1103,
      "velocity": 127,
      "chip": "ym2612"
    },
    {
      "channel": 2,
      "note": 65,
      "start": 12.5756,
      "duration": 0.1121,
      "velocity": 92,
      "chip": "ym2612"
    },
    {
      "channel": 4,
      "note": 89,
      "start": 12.576,
      "duration": 0.0162,
      "velocity": 97,
      "chip": "ym2612"
    },
    {
      "channel": 0,
      "note": 53,
      "start": 12.6876,
      "duration": 0.1103,
      "velocity": 121,
      "chip": "ym2612"
    },
    {
      "channel": 3,
      "note": 73,
      "start": 12.688,
      "duration": 0.0541,
      "velocity": 88,
      "chip": "ym2612"
    },
    {
      "channel": 4,
      "note": 89,
      "start": 12.6884,
      "duration": 0.016,
      "velocity": 97,
      "chip": "ym2612"
    },
    {
      "channel": 0,
      "note": 53,
      "start": 12.7982,
      "duration": 0.112,
      "velocity": 121,
      "chip": "ym2612"
    },
    {
      "channel": 1,
      "note": 51,
      "start": 12.7985,
      "duration": 0.1679,
      "velocity": 99,
      "chip": "ym2612"
    },
    {
      "channel": 2,
      "note": 63,
      "start": 12.7988,
      "duration": 0.1118,
      "velocity": 92,
      "chip": "ym2612"
    },
    {
      "channel": 3,
      "note": 73,
      "start": 12.7992,
      "duration": 0.1674,
      "velocity": 88,
      "chip": "ym2612"
    },
    {
      "channel": 4,
      "note": 101,
      "start": 12.7995,
      "duration": 0.0171,
      "velocity": 97,
      "chip": "ym2612"
    },
    {
      "channel": 0,
      "note": 53,
      "start": 12.9105,
      "duration": 0.112,
      "velocity": 121,
      "chip": "ym2612"
    },
    {
      "channel": 4,
      "note": 101,
      "start": 12.911,
      "duration": 0.0181,
      "velocity": 97,
      "chip": "ym2612"
    },
    {
      "channel": 0,
      "note": 43,
      "start": 13.0246,
      "duration": 0.1852,
      "velocity": 127,
      "chip": "ym2612"
    },
    {
      "channel": 1,
      "note": 53,
      "start": 13.0249,
      "duration": 0.2785,
      "velocity": 99,
      "chip": "ym2612"
    },
    {
      "channel": 2,
      "note": 65,
      "start": 13.0251,
      "duration": 0.1099,
      "velocity": 92,
      "chip": "ym2612"
    },
    {
      "channel": 3,
      "note": 73,
      "start": 13.0255,
      "duration": 0.1657,
      "velocity": 88,
      "chip": "ym2612"
    },
    {
      "channel": 4,
      "note": 89,
      "start": 13.0259,
      "duration": 0.0155,
      "velocity": 97,
      "chip": "ym2612"
    },
    {
      "channel": 4,
      "note": 99,
      "start": 13.1354,
      "duration": 0.0184,
      "velocity": 97,
      "chip": "ym2612"
    },
    {
      "channel": 0,
      "note": 53,
      "start": 13.2492,
      "duration": 0.1103,
      "velocity": 121,
      "chip": "ym2612"
    },
    {
      "channel": 2,
      "note": 63,
      "start": 13.2495,
      "duration": 0.0164,
      "velocity": 92,
      "chip": "ym2612"
    },
    {
      "channel": 3,
      "note": 73,
      "start": 13.2499,
      "duration": 0.0536,
      "velocity": 88,
      "chip": "ym2612"
    },
    {
      "channel": 4,
      "note": 101,
      "start": 13.2502,
      "duration": 0.0158,
      "velocity": 97,
      "chip": "ym2612"
    },
    {
      "channel": 0,
      "note": 43,
      "start": 13.3615,
      "duration": 0.0729,
      "velocity": 127,
      "chip": "ym2612"
    },
    {
      "channel": 1,
      "note": 53,
      "start": 13.3621,
      "duration": 0.1661,
      "velocity": 99,
      "chip": "ym2612"
    },
    {
      "channel": 2,
      "note": 65,
      "start": 13.3624,
      "duration": 0.1118,
      "velocity": 92,
      "chip": "ym2612"
    },
    {
      "channel": 3,
      "note": 73,
      "start": 13.3627,
      "duration": 0.1655,
      "velocity": 88,
      "chip": "ym2612"
    },
    {
      "channel": 4,
      "note": 89,
      "start": 13.3631,
      "duration": 0.0153,
      "velocity": 97,
      "chip": "ym2612"
    },
    {
      "channel": 0,
      "note": 41,
      "start": 13.4741,
      "duration": 0.0727,
      "velocity": 127,
      "chip": "ym2612"
    },
    {
      "channel": 4,
      "note": 99,
      "start": 13.4745,
      "duration": 0.0162,
      "velocity": 97,
      "chip": "ym2612"
    },
    {
      "channel": 0,
      "note": 53,
      "start": 13.5862,
      "duration": 0.1103,
      "velocity": 121,
      "chip": "ym2612"
    },
    {
      "channel": 1,
      "note": 65,
      "start": 13.5864,
      "duration": 0.1662,
      "velocity": 99,
      "chip": "ym2612"
    },
    {
      "channel": 2,
      "note": 65,
      "start": 13.5867,
      "duration": 0.0162,
      "velocity": 92,
      "chip": "ym2612"
    },
    {
      "channel": 3,
      "note": 72,
      "start": 13.5871,
      "duration": 0.0533,
      "velocity": 88,
      "chip": "ym2612"
    },
    {
      "channel": 4,
      "note": 89,
      "start": 13.5875,
      "duration": 0.0155,
      "velocity": 97,
      "chip": "ym2612"
    },
    {
      "channel": 2,
      "note": 63,
      "start": 13.6968,
      "duration": 0.1126,
      "velocity": 92,
      "chip": "ym2612"
    },
    {
      "channel": 3,
      "note": 72,
      "start": 13.6972,
      "duration": 0.1679,
      "velocity": 88,
      "chip": "ym2612"
    },
    {
      "channel": 4,
      "note": 101,
      "start": 13.6976,
      "duration": 0.0177,
      "velocity": 97,
      "chip": "ym2612"
    },
    {
      "channel": 0,
      "note": 53,
      "start": 13.809,
      "duration": 0.1121,
      "velocity": 121,
      "chip": "ym2612"
    },
    {
      "channel": 1,
      "note": 53,
      "start": 13.8093,
      "duration": 0.0556,
      "velocity": 99,
      "chip": "ym2612"
    },
    {
      "channel": 4,
      "note": 89,
      "start": 13.8098,
      "duration": 0.0178,
      "velocity": 97,
      "chip": "ym2612"
    },
    {
      "channel": 0,
      "note": 43,
      "start": 13.9234,
      "duration": 0.1849,
      "velocity": 127,
      "chip": "ym2612"
    },
    {
      "channel": 1,
      "note": 46,
      "start": 13.9237,
      "duration": 0.166,
      "velocity": 99,
      "chip": "ym2612"
    },
    {
      "channel": 2,
      "note": 70,
      "start": 13.924,
      "duration": 0.1096,
      "velocity": 92,
      "chip": "ym2612"
    },
    {
      "channel": 3,
      "note": 72,
      "start": 13.9244,
      "duration": 0.053,
      "velocity": 88,
      "chip": "ym2612"
    },
    {
      "channel": 4,
      "note": 94,
      "start": 13.9247,
      "duration": 0.0152,
      "velocity": 97,
      "chip": "ym2612"
    },
    {
      "channel": 5,
      "note": 53,
      "start": 13.9251,
      "duration": 0.224,
      "velocity": 47,
      "chip": "ym2612"
    },
    {
      "channel": 3,
      "note": 72,
      "start": 14.0339,
      "duration": 0.0559,
      "velocity": 88,
      "chip": "ym2612"
    },
    {
      "channel": 4,
      "note": 89,
      "start": 14.0343,
      "duration": 0.018,
      "velocity": 97,
      "chip": "ym2612"
    },
    {
      "channel": 0,
      "note": 53,
      "start": 14.1478,
      "duration": 0.1103,
      "velocity": 121,
      "chip": "ym2612"
    },
    {
      "channel": 1,
      "note": 48,
      "start": 14.148,
      "duration": 0.1662,
      "velocity": 99,
      "chip": "ym2612"
    },
    {
      "channel": 2,
      "note": 68,
      "start": 14.1483,
      "duration": 0.1101,
      "velocity": 92,
      "chip": "ym2612"
    },
    {
      "channel": 3,
      "note": 73,
      "start": 14.1487,
      "duration": 0.0533,
      "velocity": 88,
      "chip": "ym2612"
    },
    {
      "channel": 4,
      "note": 99,
      "start": 14.1491,
      "duration": 0.0154,
      "velocity": 97,
      "chip": "ym2612"
    },
    {
      "channel": 5,
      "note": 51,
      "start": 14.1495,
      "duration": 0.2279,
      "velocity": 47,
      "chip": "ym2612"
    },
    {
      "channel": 0,
      "note": 53,
      "start": 14.2584,
      "duration": 0.112,
      "velocity": 121,
      "chip": "ym2612"
    },
    {
      "channel": 3,
      "note": 74,
      "start": 14.2588,
      "duration": 0.0556,
      "velocity": 88,
      "chip": "ym2612"
    },
    {
      "channel": 4,
      "note": 101,
      "start": 14.2592,
      "duration": 0.0177,
      "velocity": 97,
      "chip": "ym2612"
    },
    {
      "channel": 0,
      "note": 41,
      "start": 14.3727,
      "duration": 0.11,
      "velocity": 127,
      "chip": "ym2612"
    },
    {
      "channel": 1,
      "note": 53,
      "start": 14.3747,
      "duration": 0.1642,
      "velocity": 99,
      "chip": "ym2612"
    },
    {
      "channel": 2,
      "note": 65,
      "start": 14.375,
      "duration": 0.1098,
      "velocity": 92,
      "chip": "ym2612"
    },
    {
      "channel": 3,
      "note": 75,
      "start": 14.377,
      "duration": 0.162,
      "velocity": 88,
      "chip": "ym2612"
    },
    {
      "channel": 4,
      "note": 89,
      "start": 14.3774,
      "duration": 0.0119,
      "velocity": 97,
      "chip": "ym2612"
    },
    {
      "channel": 5,
      "note": 53,
      "start": 14.3778,
      "duration": 0.2189,
      "velocity": 47,
      "chip": "ym2612"
    },
    {
      "channel": 0,
      "note": 53,
      "start": 14.4847,
      "duration": 0.1103,
      "velocity": 121,
      "chip": "ym2612"
    },
    {
      "channel": 4,
      "note": 89,
      "start": 14.4852,
      "duration": 0.0163,
      "velocity": 97,
      "chip": "ym2612"
    },
    {
      "channel": 0,
      "note": 53,
      "start": 14.5953,
      "duration": 0.112,
      "velocity": 121,
      "chip": "ym2612"
    },
    {
      "channel": 1,
      "note": 51,
      "start": 14.5956,
      "duration": 0.1679,
      "velocity": 99,
      "chip": "ym2612"
    },
    {
      "channel": 2,
      "note": 63,
      "start": 14.5959,
      "duration": 0.1118,
      "velocity": 92,
      "chip": "ym2612"
    },
    {
      "channel": 3,
      "note": 75,
      "start": 14.5963,
      "duration": 0.1674,
      "velocity": 88,
      "chip": "ym2612"
    },
    {
      "channel": 4,
      "note": 101,
      "start": 14.5966,
      "duration": 0.0171,
      "velocity": 97,
      "chip": "ym2612"
    },
    {
      "channel": 5,
      "note": 51,
      "start": 14.5971,
      "duration": 0.2263,
      "velocity": 47,
      "chip": "ym2612"
    },
    {
      "channel": 0,
      "note": 53,
      "start": 14.7076,
      "duration": 0.112,
      "velocity": 121,
      "chip": "ym2612"
    },
    {
      "channel": 4,
      "note": 101,
      "start": 14.7081,
      "duration": 0.0181,
      "velocity": 97,
      "chip": "ym2612"
    },
    {
      "channel": 0,
      "note": 43,
      "start": 14.822,
      "duration": 0.1849,
      "velocity": 127,
      "chip": "ym2612"
    },
    {
      "channel": 1,
      "note": 53,
      "start": 14.8222,
      "duration": 0.2783,
      "velocity": 99,
      "chip": "ym2612"
    },
    {
      "channel": 2,
      "note": 65,
      "start": 14.8225,
      "duration": 0.1096,
      "velocity": 92,
      "chip": "ym2612"
    },
    {
      "channel": 3,
      "note": 75,
      "start": 14.8229,
      "duration": 0.1654,
      "velocity": 88,
      "chip": "ym2612"
    },
    {
      "channel": 4,
      "note": 89,
      "start": 14.8233,
      "duration": 0.0152,
      "velocity": 97,
      "chip": "ym2612"
    },
    {
      "channel": 5,
      "note": 53,
      "start": 14.8237,
      "duration": 0.4477,
      "velocity": 47,
      "chip": "ym2612"
    },
    {
      "channel": 4,
      "note": 99,
      "start": 14.9325,
      "duration": 0.0184,
      "velocity": 97,
      "chip": "ym2612"
    },
    {
      "channel": 0,
      "note": 53,
      "start": 15.0463,
      "duration": 0.1103,
      "velocity": 121,
      "chip": "ym2612"
    },
    {
      "channel": 2,
      "note": 63,
      "start": 15.0466,
      "duration": 0.0164,
      "velocity": 92,
      "chip": "ym2612"
    },
    {
      "channel": 3,
      "note": 75,
      "start": 15.047,
      "duration": 0.0536,
      "velocity": 88,
      "chip": "ym2612"
    },
    {
      "channel": 4,
      "note": 101,
      "start": 15.0474,
      "duration": 0.0158,
      "velocity": 97,
      "chip": "ym2612"
    },
    {
      "channel": 0,
      "note": 43,
      "start": 15.1587,
      "duration": 0.0729,
      "velocity": 127,
      "chip": "ym2612"
    },
    {
      "channel": 1,
      "note": 46,
      "start": 15.1589,
      "duration": 0.1663,
      "velocity": 99,
      "chip": "ym2612"
    },
    {
      "channel": 2,
      "note": 65,
      "start": 15.1592,
      "duration": 0.1118,
      "velocity": 92,
      "chip": "ym2612"
    },
    {
      "channel": 3,
      "note": 75,
      "start": 15.1596,
      "duration": 0.1658,
      "velocity": 88,
      "chip": "ym2612"
    },
    {
      "channel": 4,
      "note": 89,
      "start": 15.16,
      "duration": 0.0155,
      "velocity": 97,
      "chip": "ym2612"
    },
    {
      "channel": 0,
      "note": 41,
      "start": 15.271,
      "duration": 0.0729,
      "velocity": 127,
      "chip": "ym2612"
    },
    {
      "channel": 4,
      "note": 99,
      "start": 15.2714,
      "duration": 0.0164,
      "velocity": 97,
      "chip": "ym2612"
    },
    {
      "channel": 0,
      "note": 53,
      "start": 15.3835,
      "duration": 0.1101,
      "velocity": 121,
      "chip": "ym2612"
    },
    {
      "channel": 1,
      "note": 46,
      "start": 15.3838,
      "duration": 0.0537,
      "velocity": 99,
      "chip": "ym2612"
    },
    {
      "channel": 2,
      "note": 65,
      "start": 15.3841,
      "duration": 0.0159,
      "velocity": 92,
      "chip": "ym2612"
    },
    {
      "channel": 3,
      "note": 74,
      "start": 15.3845,
      "duration": 0.0531,
      "velocity": 88,
      "chip": "ym2612"
    },
    {
      "channel": 4,
      "note": 89,
      "start": 15.3849,
      "duration": 0.0152,
      "velocity": 97,
      "chip": "ym2612"
    },
    {
      "channel": 1,
      "note": 47,
      "start": 15.4939,
      "duration": 0.0559,
      "velocity": 99,
      "chip": "ym2612"
    },
    {
      "channel": 2,
      "note": 63,
      "start": 15.4942,
      "duration": 0.1123,
      "velocity": 92,
      "chip": "ym2612"
    },
    {
      "channel": 3,
      "note": 74,
      "start": 15.4946,
      "duration": 0.1677,
      "velocity": 88,
      "chip": "ym2612"
    },
    {
      "channel": 4,
      "note": 101,
      "start": 15.4949,
      "duration": 0.0174,
      "velocity": 97,
      "chip": "ym2612"
    },
    {
      "channel": 0,
      "note": 53,
      "start": 15.6061,
      "duration": 0.1121,
      "velocity": 121,
      "chip": "ym2612"
    },
    {
      "channel": 1,
      "note": 48,
      "start": 15.6064,
      "duration": 0.0556,
      "velocity": 99,
      "chip": "ym2612"
    },
    {
      "channel": 4,
      "note": 89,
      "start": 15.6069,
      "duration": 0.0178,
      "velocity": 97,
      "chip": "ym2612"
    },
    {
      "channel": 0,
      "note": 43,
      "start": 15.7202,
      "duration": 0.1852,
      "velocity": 127,
      "chip": "ym2612"
    },
    {
      "channel": 1,
      "note": 51,
      "start": 15.7205,
      "duration": 0.1663,
      "velocity": 99,
      "chip": "ym2612"
    },
    {
      "channel": 2,
      "note": 65,
      "start": 15.7208,
      "duration": 0.1099,
      "velocity": 92,
      "chip": "ym2612"
    },
    {
      "channel": 3,
      "note": 74,
      "start": 15.7212,
      "duration": 0.1658,
      "velocity": 88,
      "chip": "ym2612"
    },
    {
      "channel": 4,
      "note": 94,
      "start": 15.7216,
      "duration": 0.0155,
      "velocity": 97,
      "chip": "ym2612"
    },
    {
      "channel": 4,
      "note": 89,
      "start": 15.8311,
      "duration": 0.0184,
      "velocity": 97,
      "chip": "ym2612"
    },
    {
      "channel": 0,
      "note": 53,
      "start": 15.9449,
      "duration": 0.1103,
      "velocity": 121,
      "chip": "ym2612"
    },
    {
      "channel": 1,
      "note": 53,
      "start": 15.9452,
      "duration": 0.3908,
      "velocity": 99,
      "chip": "ym2612"
    },
    {
      "channel": 2,
      "note": 68,
      "start": 15.9454,
      "duration": 0.1101,
      "velocity": 92,
      "chip": "ym2612"
    },
    {
      "channel": 3,
      "note": 74,
      "start": 15.9458,
      "duration": 0.0532,
      "velocity": 88,
      "chip": "ym2612"
    },
    {
      "channel": 4,
      "note": 99,
      "start": 15.9462,
      "duration": 0.0154,
      "velocity": 97,
      "chip": "ym2612"
    },
    {
      "channel": 0,
      "note": 53,
      "start": 16.0555,
      "duration": 0.112,
      "velocity": 121,
      "chip": "ym2612"
    },
    {
      "channel": 3,
      "note": 74,
      "start": 16.056,
      "duration": 0.1678,
      "velocity": 88,
      "chip": "ym2612"
    },
    {
      "channel": 4,
      "note": 101,
      "start": 16.0563,
      "duration": 0.0177,
      "velocity": 97,
      "chip": "ym2612"
    },
    {
      "channel": 0,
      "note": 41,
      "start": 16.1695,
      "duration": 0.1103,
      "velocity": 127,
      "chip": "ym2612"
    },
    {
      "channel": 2,
      "note": 65,
      "start": 16.1698,
      "duration": 0.1123,
      "velocity": 92,
      "chip": "ym2612"
    },
    {
      "channel": 4,
      "note": 89,
      "start": 16.1702,
      "duration": 0.0162,
      "velocity": 97,
      "chip": "ym2612"
    },
    {
      "channel": 0,
      "note": 53,
      "start": 16.2821,
      "duration": 0.1101,
      "velocity": 121,
      "chip": "ym2612"
    },
    {
      "channel": 3,
      "note": 73,
      "start": 16.2825,
      "duration": 0.0536,
      "velocity": 88,
      "chip": "ym2612"
    },
    {
      "channel": 4,
      "note": 89,
      "start": 16.2829,
      "duration": 0.0157,
      "velocity": 97,
      "chip": "ym2612"
    },
    {
      "channel": 0,
      "note": 53,
      "start": 16.3924,
      "duration": 0.112,
      "velocity": 121,
      "chip": "ym2612"
    },
    {
      "channel": 1,
      "note": 51,
      "start": 16.3927,
      "duration": 0.1679,
      "velocity": 99,
      "chip": "ym2612"
    },
    {
      "channel": 2,
      "note": 63,
      "start": 16.393,
      "duration": 0.1118,
      "velocity": 92,
      "chip": "ym2612"
    },
    {
      "channel": 3,
      "note": 73,
      "start": 16.3934,
      "duration": 0.1674,
      "velocity": 88,
      "chip": "ym2612"
    },
    {
      "channel": 4,
      "note": 101,
      "start": 16.3938,
      "duration": 0.0171,
      "velocity": 97,
      "chip": "ym2612"
    },
    {
      "channel": 0,
      "note": 53,
      "start": 16.5048,
      "duration": 0.112,
      "velocity": 121,
      "chip": "ym2612"
    },
    {
      "channel": 4,
      "note": 101,
      "start": 16.5052,
      "duration": 0.0181,
      "velocity": 97,
      "chip": "ym2612"
    },
    {
      "channel": 0,
      "note": 43,
      "start": 16.6188,
      "duration": 0.1852,
      "velocity": 127,
      "chip": "ym2612"
    },
    {
      "channel": 1,
      "note": 53,
      "start": 16.6191,
      "duration": 0.2785,
      "velocity": 99,
      "chip": "ym2612"
    },
    {
      "channel": 2,
      "note": 65,
      "start": 16.6194,
      "duration": 0.1099,
      "velocity": 92,
      "chip": "ym2612"
    },
    {
      "channel": 3,
      "note": 73,
      "start": 16.6198,
      "duration": 0.1657,
      "velocity": 88,
      "chip": "ym2612"
    },
    {
      "channel": 4,
      "note": 89,
      "start": 16.6201,
      "duration": 0.0155,
      "velocity": 97,
      "chip": "ym2612"
    },
    {
      "channel": 4,
      "note": 99,
      "start": 16.7296,
      "duration": 0.0184,
      "velocity": 97,
      "chip": "ym2612"
    },
    {
      "channel": 0,
      "note": 53,
      "start": 16.8437,
      "duration": 0.1101,
      "velocity": 121,
      "chip": "ym2612"
    },
    {
      "channel": 2,
      "note": 63,
      "start": 16.844,
      "duration": 0.0162,
      "velocity": 92,
      "chip": "ym2612"
    },
    {
      "channel": 3,
      "note": 73,
      "start": 16.8444,
      "duration": 0.0534,
      "velocity": 88,
      "chip": "ym2612"
    },
    {
      "channel": 4,
      "note": 101,
      "start": 16.8447,
      "duration": 0.0155,
      "velocity": 97,
      "chip": "ym2612"
    },
    {
      "channel": 0,
      "note": 43,
      "start": 16.9558,
      "duration": 0.0728,
      "velocity": 127,
      "chip": "ym2612"
    },
    {
      "channel": 1,
      "note": 53,
      "start": 16.9561,
      "duration": 0.1663,
      "velocity": 99,
      "chip": "ym2612"
    },
    {
      "channel": 2,
      "note": 65,
      "start": 16.9564,
      "duration": 0.1118,
      "velocity": 92,
      "chip": "ym2612"
    },
    {
      "channel": 3,
      "note": 73,
      "start": 16.9568,
      "duration": 0.1658,
      "velocity": 88,
      "chip": "ym2612"
    },
    {
      "channel": 4,
      "note": 89,
      "start": 16.9571,
      "duration": 0.0155,
      "velocity": 97,
      "chip": "ym2612"
    },
    {
      "channel": 0,
      "note": 41,
      "start": 17.0681,
      "duration": 0.0729,
      "velocity": 127,
      "chip": "ym2612"
    },
    {
      "channel": 4,
      "note": 99,
      "start": 17.0685,
      "duration": 0.0164,
      "velocity": 97,
      "chip": "ym2612"
    },
    {
      "channel": 0,
      "note": 53,
      "start": 17.1804,
      "duration": 0.1103,
      "velocity": 121,
      "chip": "ym2612"
    },
    {
      "channel": 1,
      "note": 65,
      "start": 17.1807,
      "duration": 0.1662,
      "velocity": 99,
      "chip": "ym2612"
    },
    {
      "channel": 2,
      "note": 65,
      "start": 17.181,
      "duration": 0.0162,
      "velocity": 92,
      "chip": "ym2612"
    },
    {
      "channel": 3,
      "note": 72,
      "start": 17.1813,
      "duration": 0.0533,
      "velocity": 88,
      "chip": "ym2612"
    },
    {
      "channel": 4,
      "note": 89,
      "start": 17.182,
      "duration": 0.0152,
      "velocity": 97,
      "chip": "ym2612"
    },
    {
      "channel": 2,
      "note": 63,
      "start": 17.291,
      "duration": 0.1126,
      "velocity": 92,
      "chip": "ym2612"
    },
    {
      "channel": 3,
      "note": 72,
      "start": 17.2914,
      "duration": 0.1679,
      "velocity": 88,
      "chip": "ym2612"
    },
    {
      "channel": 4,
      "note": 101,
      "start": 17.292,
      "duration": 0.0174,
      "velocity": 97,
      "chip": "ym2612"
    },
    {
      "channel": 0,
      "note": 53,
      "start": 17.4033,
      "duration": 0.1121,
      "velocity": 121,
      "chip": "ym2612"
    },
    {
      "channel": 1,
      "note": 53,
      "start": 17.4036,
      "duration": 0.0556,
      "velocity": 99,
      "chip": "ym2612"
    },
    {
      "channel": 4,
      "note": 89,
      "start": 17.404,
      "duration": 0.018,
      "velocity": 97,
      "chip": "ym2612"
    },
    {
      "channel": 0,
      "note": 43,
      "start": 17.5174,
      "duration": 0.1852,
      "velocity": 127,
      "chip": "ym2612"
    },
    {
      "channel": 1,
      "note": 46,
      "start": 17.5177,
      "duration": 0.1663,
      "velocity": 99,
      "chip": "ym2612"
    },
    {
      "channel": 2,
      "note": 70,
      "start": 17.5179,
      "duration": 0.1099,
      "velocity": 92,
      "chip": "ym2612"
    },
    {
      "channel": 3,
      "note": 72,
      "start": 17.5183,
      "duration": 0.0533,
      "velocity": 88,
      "chip": "ym2612"
    },
    {
      "channel": 4,
      "note": 94,
      "start": 17.5187,
      "duration": 0.0155,
      "velocity": 97,
      "chip": "ym2612"
    },
    {
      "channel": 5,
      "note": 53,
      "start": 17.5191,
      "duration": 0.2246,
      "velocity": 47,
      "chip": "ym2612"
    },
    {
      "channel": 3,
      "note": 72,
      "start": 17.6282,
      "duration": 0.0559,
      "velocity": 88,
      "chip": "ym2612"
    },
    {
      "channel": 4,
      "note": 89,
      "start": 17.6286,
      "duration": 0.018,
      "velocity": 97,
      "chip": "ym2612"
    },
    {
      "channel": 0,
      "note": 53,
      "start": 17.7422,
      "duration": 0.1101,
      "velocity": 121,
      "chip": "ym2612"
    },
    {
      "channel": 1,
      "note": 48,
      "start": 17.7425,
      "duration": 0.166,
      "velocity": 99,
      "chip": "ym2612"
    },
    {
      "channel": 2,
      "note": 68,
      "start": 17.7428,
      "duration": 0.1098,
      "velocity": 92,
      "chip": "ym2612"
    },
    {
      "channel": 3,
      "note": 73,
      "start": 17.7432,
      "duration": 0.053,
      "velocity": 88,
      "chip": "ym2612"
    },
    {
      "channel": 4,
      "note": 99,
      "start": 17.7436,
      "duration": 0.0152,
      "velocity": 97,
      "chip": "ym2612"
    },
    {
      "channel": 5,
      "note": 51,
      "start": 17.744,
      "duration": 0.2241,
      "velocity": 47,
      "chip": "ym2612"
    },
    {
      "channel": 0,
      "note": 53,
      "start": 17.8526,
      "duration": 0.112,
      "velocity": 121,
      "chip": "ym2612"
    },
    {
      "channel": 3,
      "note": 74,
      "start": 17.8531,
      "duration": 0.0556,
      "velocity": 88,
      "chip": "ym2612"
    },
    {
      "channel": 4,
      "note": 101,
      "start": 17.8534,
      "duration": 0.0177,
      "velocity": 97,
      "chip": "ym2612"
    },
    {
      "channel": 0,
      "note": 41,
      "start": 17.9667,
      "duration": 0.1103,
      "velocity": 127,
      "chip": "ym2612"
    },
    {
      "channel": 1,
      "note": 53,
      "start": 17.9669,
      "duration": 0.1662,
      "velocity": 99,
      "chip": "ym2612"
    },
    {
      "channel": 2,
      "note": 65,
      "start": 17.9672,
      "duration": 0.1118,
      "velocity": 92,
      "chip": "ym2612"
    },
    {
      "channel": 3,
      "note": 75,
      "start": 17.9676,
      "duration": 0.1656,
      "velocity": 88,
      "chip": "ym2612"
    },
    {
      "channel": 4,
      "note": 89,
      "start": 17.968,
      "duration": 0.0155,
      "velocity": 97,
      "chip": "ym2612"
    },
    {
      "channel": 5,
      "note": 53,
      "start": 17.9684,
      "duration": 0.2225,
      "velocity": 47,
      "chip": "ym2612"
    },
    {
      "channel": 0,
      "note": 53,
      "start": 18.079,
      "duration": 0.1103,
      "velocity": 121,
      "chip": "ym2612"
    },
    {
      "channel": 4,
      "note": 89,
      "start": 18.0794,
      "duration": 0.0163,
      "velocity": 97,
      "chip": "ym2612"
    },
    {
      "channel": 0,
      "note": 53,
      "start": 18.1896,
      "duration": 0.112,
      "velocity": 121,
      "chip": "ym2612"
    },
    {
      "channel": 1,
      "note": 51,
      "start": 18.1898,
      "duration": 0.1679,
      "velocity": 99,
      "chip": "ym2612"
    },
    {
      "channel": 2,
      "note": 63,
      "start": 18.1901,
      "duration": 0.1121,
      "velocity": 92,
      "chip": "ym2612"
    },
    {
      "channel": 3,
      "note": 75,
      "start": 18.1905,
      "duration": 0.1674,
      "velocity": 88,
      "chip": "ym2612"
    },
    {
      "channel": 4,
      "note": 101,
      "start": 18.1909,
      "duration": 0.0171,
      "velocity": 97,
      "chip": "ym2612"
    },
    {
      "channel": 5,
      "note": 51,
      "start": 18.1913,
      "duration": 0.226,
      "velocity": 47,
      "chip": "ym2612"
    },
    {
      "channel": 0,
      "note": 53,
      "start": 18.3021,
      "duration": 0.1118,
      "velocity": 121,
      "chip": "ym2612"
    },
    {
      "channel": 4,
      "note": 101,
      "start": 18.3026,
      "duration": 0.0178,
      "velocity": 97,
      "chip": "ym2612"
    },
    {
      "channel": 0,
      "note": 43,
      "start": 18.4159,
      "duration": 0.1852,
      "velocity": 127,
      "chip": "ym2612"
    },
    {
      "channel": 1,
      "note": 53,
      "start": 18.4162,
      "duration": 0.2785,
      "velocity": 99,
      "chip": "ym2612"
    },
    {
      "channel": 2,
      "note": 65,
      "start": 18.4165,
      "duration": 0.1099,
      "velocity": 92,
      "chip": "ym2612"
    },
    {
      "channel": 3,
      "note": 75,
      "start": 18.4169,
      "duration": 0.1657,
      "velocity": 88,
      "chip": "ym2612"
    },
    {
      "channel": 4,
      "note": 89,
      "start": 18.4173,
      "duration": 0.0155,
      "velocity": 97,
      "chip": "ym2612"
    },
    {
      "channel": 5,
      "note": 53,
      "start": 18.4177,
      "duration": 0.448,
      "velocity": 47,
      "chip": "ym2612"
    },
    {
      "channel": 4,
      "note": 99,
      "start": 18.5268,
      "duration": 0.0184,
      "velocity": 97,
      "chip": "ym2612"
    },
    {
      "channel": 0,
      "note": 53,
      "start": 18.6406,
      "duration": 0.1103,
      "velocity": 121,
      "chip": "ym2612"
    },
    {
      "channel": 2,
      "note": 63,
      "start": 18.6409,
      "duration": 0.0164,
      "velocity": 92,
      "chip": "ym2612"
    },
    {
      "channel": 3,
      "note": 75,
      "start": 18.6413,
      "duration": 0.0536,
      "velocity": 88,
      "chip": "ym2612"
    },
    {
      "channel": 4,
      "note": 101,
      "start": 18.6417,
      "duration": 0.0157,
      "velocity": 97,
      "chip": "ym2612"
    },
    {
      "channel": 0,
      "note": 43,
      "start": 18.7532,
      "duration": 0.0726,
      "velocity": 127,
      "chip": "ym2612"
    },
    {
      "channel": 1,
      "note": 46,
      "start": 18.7534,
      "duration": 0.1661,
      "velocity": 99,
      "chip": "ym2612"
    },
    {
      "channel": 2,
      "note": 65,
      "start": 18.7537,
      "duration": 0.1116,
      "velocity": 92,
      "chip": "ym2612"
    },
    {
      "channel": 3,
      "note": 75,
      "start": 18.7541,
      "duration": 0.1655,
      "velocity": 88,
      "chip": "ym2612"
    },
    {
      "channel": 4,
      "note": 89,
      "start": 18.7545,
      "duration": 0.0153,
      "velocity": 97,
      "chip": "ym2612"
    },
    {
      "channel": 0,
      "note": 41,
      "start": 18.8652,
      "duration": 0.0729,
      "velocity": 127,
      "chip": "ym2612"
    },
    {
      "channel": 4,
      "note": 99,
      "start": 18.8657,
      "duration": 0.0165,
      "velocity": 97,
      "chip": "ym2612"
    },
    {
      "channel": 0,
      "note": 53,
      "start": 18.9775,
      "duration": 0.1103,
      "velocity": 121,
      "chip": "ym2612"
    },
    {
      "channel": 1,
      "note": 46,
      "start": 18.9778,
      "duration": 0.0541,
      "velocity": 99,
      "chip": "ym2612"
    },
    {
      "channel": 2,
      "note": 65,
      "start": 18.9781,
      "duration": 0.0162,
      "velocity": 92,
      "chip": "ym2612"
    },
    {
      "channel": 3,
      "note": 74,
      "start": 18.9785,
      "duration": 0.0536,
      "velocity": 88,
      "chip": "ym2612"
    },
    {
      "channel": 4,
      "note": 89,
      "start": 18.9788,
      "duration": 0.0155,
      "velocity": 97,
      "chip": "ym2612"
    },
    {
      "channel": 1,
      "note": 47,
      "start": 19.0881,
      "duration": 0.0559,
      "velocity": 99,
      "chip": "ym2612"
    },
    {
      "channel": 2,
      "note": 63,
      "start": 19.0884,
      "duration": 0.1123,
      "velocity": 92,
      "chip": "ym2612"
    },
    {
      "channel": 3,
      "note": 74,
      "start": 19.0888,
      "duration": 0.1677,
      "velocity": 88,
      "chip": "ym2612"
    },
    {
      "channel": 4,
      "note": 101,
      "start": 19.0892,
      "duration": 0.0174,
      "velocity": 97,
      "chip": "ym2612"
    },
    {
      "channel": 0,
      "note": 53,
      "start": 19.2004,
      "duration": 0.1121,
      "velocity": 121,
      "chip": "ym2612"
    },
    {
      "channel": 1,
      "note": 48,
      "start": 19.2007,
      "duration": 0.0556,
      "velocity": 99,
      "chip": "ym2612"
    },
    {
      "channel": 4,
      "note": 89,
      "start": 19.2011,
      "duration": 0.0178,
      "velocity": 97,
      "chip": "ym2612"
    },
    {
      "channel": 0,
      "note": 43,
      "start": 19.3145,
      "duration": 0.1852,
      "velocity": 127,
      "chip": "ym2612"
    },
    {
      "channel": 1,
      "note": 51,
      "start": 19.3148,
      "duration": 0.1663,
      "velocity": 99,
      "chip": "ym2612"
    },
    {
      "channel": 2,
      "note": 65,
      "start": 19.3151,
      "duration": 0.1099,
      "velocity": 92,
      "chip": "ym2612"
    },
    {
      "channel": 3,
      "note": 74,
      "start": 19.3154,
      "duration": 0.1658,
      "velocity": 88,
      "chip": "ym2612"
    },
    {
      "channel": 4,
      "note": 94,
      "start": 19.3158,
      "duration": 0.0155,
      "velocity": 97,
      "chip": "ym2612"
    },
    {
      "channel": 4,
      "note": 89,
      "start": 19.4253,
      "duration": 0.0184,
      "velocity": 97,
      "chip": "ym2612"
    },
    {
      "channel": 0,
      "note": 53,
      "start": 19.5391,
      "duration": 0.1103,
      "velocity": 121,
      "chip": "ym2612"
    },
    {
      "channel": 1,
      "note": 53,
      "start": 19.5394,
      "duration": 0.391,
      "velocity": 99,
      "chip": "ym2612"
    },
    {
      "channel": 2,
      "note": 68,
      "start": 19.5397,
      "duration": 0.1101,
      "velocity": 92,
      "chip": "ym2612"
    },
    {
      "channel": 3,
      "note": 74,
      "start": 19.5401,
      "duration": 0.0532,
      "velocity": 88,
      "chip": "ym2612"
    },
    {
      "channel": 4,
      "note": 99,
      "start": 19.5405,
      "duration": 0.0154,
      "velocity": 97,
      "chip": "ym2612"
    },
    {
      "channel": 0,
      "note": 53,
      "start": 19.6497,
      "duration": 0.1123,
      "velocity": 121,
      "chip": "ym2612"
    },
    {
      "channel": 3,
      "note": 74,
      "start": 19.6502,
      "duration": 0.1679,
      "velocity": 88,
      "chip": "ym2612"
    },
    {
      "channel": 4,
      "note": 101,
      "start": 19.6505,
      "duration": 0.0177,
      "velocity": 97,
      "chip": "ym2612"
    },
    {
      "channel": 0,
      "note": 43,
      "start": 19.764,
      "duration": 0.0726,
      "velocity": 127,
      "chip": "ym2612"
    },
    {
      "channel": 2,
      "note": 65,
      "start": 19.7643,
      "duration": 0.1101,
      "velocity": 92,
      "chip": "ym2612"
    },
    {
      "channel": 4,
      "note": 89,
      "start": 19.7647,
      "duration": 0.0159,
      "velocity": 97,
      "chip": "ym2612"
    },
    {
      "channel": 0,
      "note": 43,
      "start": 19.8744,
      "duration": 0.0746,
      "velocity": 127,
      "chip": "ym2612"
    },
    {
      "channel": 3,
      "note": 73,
      "start": 19.8748,
      "duration": 0.0557,
      "velocity": 88,
      "chip": "ym2612"
    },
    {
      "channel": 4,
      "note": 89,
      "start": 19.8752,
      "duration": 0.0178,
      "velocity": 97,
      "chip": "ym2612"
    },
    {
      "channel": 0,
      "note": 43,
      "start": 19.9867,
      "duration": 0.0746,
      "velocity": 127,
      "chip": "ym2612"
    },
    {
      "channel": 1,
      "note": 51,
      "start": 19.987,
      "duration": 0.168,
      "velocity": 99,
      "chip": "ym2612"
    },
    {
      "channel": 2,
      "note": 63,
      "start": 19.9873,
      "duration": 0.1118,
      "velocity": 92,
      "chip": "ym2612"
    },
    {
      "channel": 3,
      "note": 73,
      "start": 19.9876,
      "duration": 0.1675,
      "velocity": 88,
      "chip": "ym2612"
    },
    {
      "channel": 4,
      "note": 101,
      "start": 19.988,
      "duration": 0.0173,
      "velocity": 97,
      "chip": "ym2612"
    },
    {
      "channel": 0,
      "note": 43,
      "start": 20.099,
      "duration": 0.0746,
      "velocity": 127,
      "chip": "ym2612"
    },
    {
      "channel": 4,
      "note": 101,
      "start": 20.0995,
      "duration": 0.0182,
      "velocity": 97,
      "chip": "ym2612"
    },
    {
      "channel": 0,
      "note": 43,
      "start": 20.2113,
      "duration": 0.2993,
      "velocity": 127,
      "chip": "ym2612"
    },
    {
      "channel": 1,
      "note": 53,
      "start": 20.2116,
      "duration": 0.2805,
      "velocity": 99,
      "chip": "ym2612"
    },
    {
      "channel": 2,
      "note": 65,
      "start": 20.2121,
      "duration": 0.1114,
      "velocity": 92,
      "chip": "ym2612"
    },
    {
      "channel": 3,
      "note": 73,
      "start": 20.2125,
      "duration": 0.1672,
      "velocity": 88,
      "chip": "ym2612"
    },
    {
      "channel": 4,
      "note": 89,
      "start": 20.2129,
      "duration": 0.017,
      "velocity": 97,
      "chip": "ym2612"
    },
    {
      "channel": 4,
      "note": 99,
      "start": 20.3239,
      "duration": 0.0184,
      "velocity": 97,
      "chip": "ym2612"
    },
    {
      "channel": 2,
      "note": 63,
      "start": 20.436,
      "duration": 0.0185,
      "velocity": 92,
      "chip": "ym2612"
    },
    {
      "channel": 3,
      "note": 73,
      "start": 20.4364,
      "duration": 0.0558,
      "velocity": 88,
      "chip": "ym2612"
    },
    {
      "channel": 4,
      "note": 101,
      "start": 20.4368,
      "duration": 0.0178,
      "velocity": 97,
      "chip": "ym2612"
    },
    {
      "channel": 0,
      "note": 43,
      "start": 20.5483,
      "duration": 0.0746,
      "velocity": 127,
      "chip": "ym2612"
    },
    {
      "channel": 1,
      "note": 53,
      "start": 20.5486,
      "duration": 0.168,
      "velocity": 99,
      "chip": "ym2612"
    },
    {
      "channel": 2,
      "note": 65,
      "start": 20.5488,
      "duration": 0.1118,
      "velocity": 92,
      "chip": "ym2612"
    },
    {
      "channel": 3,
      "note": 73,
      "start": 20.5492,
      "duration": 0.1675,
      "velocity": 88,
      "chip": "ym2612"
    },
    {
      "channel": 4,
      "note": 89,
      "start": 20.5496,
      "duration": 0.0173,
      "velocity": 97,
      "chip": "ym2612"
    },
    {
      "channel": 0,
      "note": 43,
      "start": 20.6606,
      "duration": 0.0746,
      "velocity": 127,
      "chip": "ym2612"
    },
    {
      "channel": 4,
      "note": 99,
      "start": 20.6611,
      "duration": 0.0182,
      "velocity": 97,
      "chip": "ym2612"
    },
    {
      "channel": 0,
      "note": 43,
      "start": 20.7729,
      "duration": 0.0746,
      "velocity": 127,
      "chip": "ym2612"
    },
    {
      "channel": 1,
      "note": 65,
      "start": 20.7732,
      "duration": 0.168,
      "velocity": 99,
      "chip": "ym2612"
    },
    {
      "channel": 2,
      "note": 65,
      "start": 20.7735,
      "duration": 0.018,
      "velocity": 92,
      "chip": "ym2612"
    },
    {
      "channel": 3,
      "note": 72,
      "start": 20.7739,
      "duration": 0.0551,
      "velocity": 88,
      "chip": "ym2612"
    },
    {
      "channel": 4,
      "note": 89,
      "start": 20.7743,
      "duration": 0.0173,
      "velocity": 97,
      "chip": "ym2612"
    },
    {
      "channel": 0,
      "note": 43,
      "start": 20.8852,
      "duration": 0.0746,
      "velocity": 127,
      "chip": "ym2612"
    },
    {
      "channel": 2,
      "note": 63,
      "start": 20.8855,
      "duration": 0.1124,
      "velocity": 92,
      "chip": "ym2612"
    },
    {
      "channel": 3,
      "note": 72,
      "start": 20.8859,
      "duration": 0.1678,
      "velocity": 88,
      "chip": "ym2612"
    },
    {
      "channel": 4,
      "note": 101,
      "start": 20.8863,
      "duration": 0.0175,
      "velocity": 97,
      "chip": "ym2612"
    },
    {
      "channel": 0,
      "note": 43,
      "start": 20.9976,
      "duration": 0.0746,
      "velocity": 127,
      "chip": "ym2612"
    },
    {
      "channel": 1,
      "note": 53,
      "start": 20.9978,
      "duration": 0.0557,
      "velocity": 99,
      "chip": "ym2612"
    },
    {
      "channel": 4,
      "note": 89,
      "start": 20.9983,
      "duration": 0.0179,
      "velocity": 97,
      "chip": "ym2612"
    },
    {
      "channel": 0,
      "note": 63,
      "start": 21.1119,
      "duration": 0.0913,
      "velocity": 112,
      "chip": "ym2612"
    },
    {
      "channel": 1,
      "note": 46,
      "start": 21.1122,
      "duration": 0.166,
      "velocity": 99,
      "chip": "ym2612"
    },
    {
      "channel": 2,
      "note": 70,
      "start": 21.1125,
      "duration": 0.1099,
      "velocity": 92,
      "chip": "ym2612"
    },
    {
      "channel": 3,
      "note": 72,
      "start": 21.1129,
      "duration": 0.053,
      "velocity": 88,
      "chip": "ym2612"
    },
    {
      "channel": 4,
      "note": 94,
      "start": 21.1132,
      "duration": 0.0152,
      "velocity": 97,
      "chip": "ym2612"
    },
    {
      "channel": 0,
      "note": 59,
      "start": 21.2223,
      "duration": 0.0932,
      "velocity": 112,
      "chip": "ym2612"
    },
    {
      "channel": 3,
      "note": 72,
      "start": 21.2227,
      "duration": 0.0556,
      "velocity": 88,
      "chip": "ym2612"
    },
    {
      "channel": 4,
      "note": 89,
      "start": 21.2231,
      "duration": 0.0177,
      "velocity": 97,
      "chip": "ym2612"
    },
    {
      "channel": 0,
      "note": 56,
      "start": 21.3345,
      "duration": 0.0933,
      "velocity": 112,
      "chip": "ym2612"
    },
    {
      "channel": 1,
      "note": 48,
      "start": 21.3348,
      "duration": 0.168,
      "velocity": 99,
      "chip": "ym2612"
    },
    {
      "channel": 2,
      "note": 56,
      "start": 21.3368,
      "duration": 0.0912,
      "velocity": 117,
      "chip": "ym2612"
    },
    {
      "channel": 3,
      "note": 73,
      "start": 21.3372,
      "duration": 0.0534,
      "velocity": 88,
      "chip": "ym2612"
    },
    {
      "channel": 4,
      "note": 99,
      "start": 21.3376,
      "duration": 0.0155,
      "velocity": 97,
      "chip": "ym2612"
    },
    {
      "channel": 0,
      "note": 52,
      "start": 21.4468,
      "duration": 0.0933,
      "velocity": 112,
      "chip": "ym2612"
    },
    {
      "channel": 2,
      "note": 58,
      "start": 21.4472,
      "duration": 0.0932,
      "velocity": 117,
      "chip": "ym2612"
    },
    {
      "channel": 3,
      "note": 74,
      "start": 21.4476,
      "duration": 0.0553,
      "velocity": 88,
      "chip": "ym2612"
    },
    {
      "channel": 4,
      "note": 101,
      "start": 21.448,
      "duration": 0.0174,
      "velocity": 97,
      "chip": "ym2612"
    },
    {
      "channel": 0,
      "note": 41,
      "start": 21.5609,
      "duration": 0.0916,
      "velocity": 127,
      "chip": "ym2612"
    },
    {
      "channel": 1,
      "note": 56,
      "start": 21.5612,
      "duration": 0.1662,
      "velocity": 99,
      "chip": "ym2612"
    },
    {
      "channel": 2,
      "note": 60,
      "start": 21.5616,
      "duration": 0.4279,
      "velocity": 117,
      "chip": "ym2612"
    },
    {
      "channel": 3,
      "note": 51,
      "start": 21.5639,
      "duration": 1.7735,
      "velocity": 89,
      "chip": "ym2612"
    },
    {
      "channel": 4,
      "note": 60,
      "start": 21.566,
      "duration": 1.7715,
      "velocity": 89,
      "chip": "ym2612"
    },
    {
      "channel": 5,
      "note": 56,
      "start": 21.568,
      "duration": 1.7695,
      "velocity": 89,
      "chip": "ym2612"
    },
    {
      "channel": 0,
      "note": 53,
      "start": 21.6735,
      "duration": 0.11,
      "velocity": 121,
      "chip": "ym2612"
    },
    {
      "channel": 0,
      "note": 53,
      "start": 21.7838,
      "duration": 0.112,
      "velocity": 121,
      "chip": "ym2612"
    },
    {
      "channel": 1,
      "note": 56,
      "start": 21.7841,
      "duration": 0.1679,
      "velocity": 99,
      "chip": "ym2612"
    },
    {
      "channel": 0,
      "note": 53,
      "start": 21.8961,
      "duration": 0.112,
      "velocity": 121,
      "chip": "ym2612"
    },
    {
      "channel": 0,
      "note": 43,
      "start": 22.0102,
      "duration": 0.1852,
      "velocity": 127,
      "chip": "ym2612"
    },
    {
      "channel": 1,
      "note": 56,
      "start": 22.0105,
      "duration": 0.2785,
      "velocity": 99,
      "chip": "ym2612"
    },
    {
      "channel": 2,
      "note": 61,
      "start": 22.0108,
      "duration": 0.2034,
      "velocity": 117,
      "chip": "ym2612"
    },
    {
      "channel": 0,
      "note": 53,
      "start": 22.2348,
      "duration": 0.1103,
      "velocity": 121,
      "chip": "ym2612"
    },
    {
      "channel": 2,
      "note": 63,
      "start": 22.2352,
      "duration": 0.4282,
      "velocity": 117,
      "chip": "ym2612"
    },
    {
      "channel": 0,
      "note": 43,
      "start": 22.3471,
      "duration": 0.0729,
      "velocity": 127,
      "chip": "ym2612"
    },
    {
      "channel": 1,
      "note": 56,
      "start": 22.3474,
      "duration": 0.1663,
      "velocity": 99,
      "chip": "ym2612"
    },
    {
      "channel": 0,
      "note": 41,
      "start": 22.4595,
      "duration": 0.0729,
      "velocity": 127,
      "chip": "ym2612"
    },
    {
      "channel": 0,
      "note": 53,
      "start": 22.572,
      "duration": 0.1101,
      "velocity": 121,
      "chip": "ym2612"
    },
    {
      "channel": 1,
      "note": 56,
      "start": 22.5723,
      "duration": 0.0537,
      "velocity": 99,
      "chip": "ym2612"
    },
    {
      "channel": 1,
      "note": 48,
      "start": 22.6824,
      "duration": 0.0559,
      "velocity": 99,
      "chip": "ym2612"
    },
    {
      "channel": 2,
      "note": 56,
      "start": 22.6827,
      "duration": 0.4301,
      "velocity": 117,
      "chip": "ym2612"
    },
    {
      "channel": 0,
      "note": 53,
      "start": 22.7946,
      "duration": 0.1121,
      "velocity": 121,
      "chip": "ym2612"
    },
    {
      "channel": 1,
      "note": 49,
      "start": 22.7949,
      "duration": 0.0556,
      "velocity": 99,
      "chip": "ym2612"
    },
    {
      "channel": 0,
      "note": 43,
      "start": 22.9087,
      "duration": 0.1852,
      "velocity": 127,
      "chip": "ym2612"
    },
    {
      "channel": 1,
      "note": 50,
      "start": 22.909,
      "duration": 0.1663,
      "velocity": 99,
      "chip": "ym2612"
    },
    {
      "channel": 0,
      "note": 53,
      "start": 23.1336,
      "duration": 0.1101,
      "velocity": 121,
      "chip": "ym2612"
    },
    {
      "channel": 1,
      "note": 51,
      "start": 23.1339,
      "duration": 0.166,
      "velocity": 99,
      "chip": "ym2612"
    },
    {
      "channel": 2,
      "note": 67,
      "start": 23.1343,
      "duration": 0.6524,
      "velocity": 117,
      "chip": "ym2612"
    },
    {
      "channel": 0,
      "note": 53,
      "start": 23.244,
      "duration": 0.112,
      "velocity": 121,
      "chip": "ym2612"
    },
    {
      "channel": 0,
      "note": 41,
      "start": 23.358,
      "duration": 0.1103,
      "velocity": 127,
      "chip": "ym2612"
    },
    {
      "channel": 1,
      "note": 49,
      "start": 23.3583,
      "duration": 0.1662,
      "velocity": 99,
      "chip": "ym2612"
    },
    {
      "channel": 3,
      "note": 49,
      "start": 23.3586,
      "duration": 1.7759,
      "velocity": 89,
      "chip": "ym2612"
    },
    {
      "channel": 4,
      "note": 56,
      "start": 23.359,
      "duration": 1.7756,
      "velocity": 89,
      "chip": "ym2612"
    },
    {
      "channel": 5,
      "note": 53,
      "start": 23.3593,
      "duration": 1.7754,
      "velocity": 89,
      "chip": "ym2612"
    },
    {
      "channel": 0,
      "note": 53,
      "start": 23.4703,
      "duration": 0.1103,
      "velocity": 121,
      "chip": "ym2612"
    },
    {
      "channel": 0,
      "note": 53,
      "start": 23.5809,
      "duration": 0.112,
      "velocity": 121,
      "chip": "ym2612"
    },
    {
      "channel": 1,
      "note": 49,
      "start": 23.5812,
      "duration": 0.1679,
      "velocity": 99,
      "chip": "ym2612"
    },
    {
      "channel": 0,
      "note": 53,
      "start": 23.6932,
      "duration": 0.112,
      "velocity": 121,
      "chip": "ym2612"
    },
    {
      "channel": 0,
      "note": 43,
      "start": 23.8073,
      "duration": 0.1852,
      "velocity": 127,
      "chip": "ym2612"
    },
    {
      "channel": 1,
      "note": 49,
      "start": 23.8076,
      "duration": 0.2785,
      "velocity": 99,
      "chip": "ym2612"
    },
    {
      "channel": 2,
      "note": 68,
      "start": 23.808,
      "duration": 0.2034,
      "velocity": 117,
      "chip": "ym2612"
    },
    {
      "channel": 0,
      "note": 53,
      "start": 24.0322,
      "duration": 0.1101,
      "velocity": 121,
      "chip": "ym2612"
    },
    {
      "channel": 2,
      "note": 65,
      "start": 24.0326,
      "duration": 0.8774,
      "velocity": 117,
      "chip": "ym2612"
    },
    {
      "channel": 0,
      "note": 43,
      "start": 24.1443,
      "duration": 0.0729,
      "velocity": 127,
      "chip": "ym2612"
    },
    {
      "channel": 1,
      "note": 49,
      "start": 24.1445,
      "duration": 0.1663,
      "velocity": 99,
      "chip": "ym2612"
    },
    {
      "channel": 0,
      "note": 41,
      "start": 24.2566,
      "duration": 0.0728,
      "velocity": 127,
      "chip": "ym2612"
    },
    {
      "channel": 0,
      "note": 53,
      "start": 24.3689,
      "duration": 0.1103,
      "velocity": 121,
      "chip": "ym2612"
    },
    {
      "channel": 1,
      "note": 49,
      "start": 24.3692,
      "duration": 0.0539,
      "velocity": 99,
      "chip": "ym2612"
    },
    {
      "channel": 1,
      "note": 49,
      "start": 24.4795,
      "duration": 0.0559,
      "velocity": 99,
      "chip": "ym2612"
    },
    {
      "channel": 0,
      "note": 53,
      "start": 24.592,
      "duration": 0.1118,
      "velocity": 121,
      "chip": "ym2612"
    },
    {
      "channel": 1,
      "note": 49,
      "start": 24.5923,
      "duration": 0.0554,
      "velocity": 99,
      "chip": "ym2612"
    },
    {
      "channel": 0,
      "note": 43,
      "start": 24.7059,
      "duration": 0.1851,
      "velocity": 127,
      "chip": "ym2612"
    },
    {
      "channel": 1,
      "note": 61,
      "start": 24.7062,
      "duration": 0.1663,
      "velocity": 99,
      "chip": "ym2612"
    },
    {
      "channel": 0,
      "note": 53,
      "start": 24.9305,
      "duration": 0.1103,
      "velocity": 121,
      "chip": "ym2612"
    },
    {
      "channel": 1,
      "note": 49,
      "start": 24.9308,
      "duration": 0.1662,
      "velocity": 99,
      "chip": "ym2612"
    },
    {
      "channel": 2,
      "note": 65,
      "start": 24.9312,
      "duration": 0.091,
      "velocity": 117,
      "chip": "ym2612"
    },
    {
      "channel": 0,
      "note": 53,
      "start": 25.0411,
      "duration": 0.112,
      "velocity": 121,
      "chip": "ym2612"
    },
    {
      "channel": 2,
      "note": 63,
      "start": 25.0415,
      "duration": 0.093,
      "velocity": 117,
      "chip": "ym2612"
    },
    {
      "channel": 0,
      "note": 41,
      "start": 25.1551,
      "duration": 0.1103,
      "velocity": 127,
      "chip": "ym2612"
    },
    {
      "channel": 1,
      "note": 58,
      "start": 25.1554,
      "duration": 0.1662,
      "velocity": 99,
      "chip": "ym2612"
    },
    {
      "channel": 2,
      "note": 61,
      "start": 25.1558,
      "duration": 0.4279,
      "velocity": 117,
      "chip": "ym2612"
    },
    {
      "channel": 3,
      "note": 53,
      "start": 25.1562,
      "duration": 1.7754,
      "velocity": 89,
      "chip": "ym2612"
    },
    {
      "channel": 4,
      "note": 61,
      "start": 25.1565,
      "duration": 1.7751,
      "velocity": 89,
      "chip": "ym2612"
    },
    {
      "channel": 5,
      "note": 56,
      "start": 25.1568,
      "duration": 1.7751,
      "velocity": 89,
      "chip": "ym2612"
    },
    {
      "channel": 0,
      "note": 53,
      "start": 25.2674,
      "duration": 0.1103,
      "velocity": 121,
      "chip": "ym2612"
    },
    {
      "channel": 0,
      "note": 53,
      "start": 25.378,
      "duration": 0.112,
      "velocity": 121,
      "chip": "ym2612"
    },
    {
      "channel": 1,
      "note": 58,
      "start": 25.3783,
      "duration": 0.1679,
      "velocity": 99,
      "chip": "ym2612"
    },
    {
      "channel": 0,
      "note": 53,
      "start": 25.4904,
      "duration": 0.112,
      "velocity": 121,
      "chip": "ym2612"
    },
    {
      "channel": 0,
      "note": 43,
      "start": 25.6044,
      "duration": 0.1852,
      "velocity": 127,
      "chip": "ym2612"
    },
    {
      "channel": 1,
      "note": 58,
      "start": 25.6047,
      "duration": 0.2785,
      "velocity": 99,
      "chip": "ym2612"
    },
    {
      "channel": 2,
      "note": 63,
      "start": 25.6051,
      "duration": 0.2034,
      "velocity": 117,
      "chip": "ym2612"
    },
    {
      "channel": 0,
      "note": 53,
      "start": 25.829,
      "duration": 0.1103,
      "velocity": 121,
      "chip": "ym2612"
    },
    {
      "channel": 2,
      "note": 65,
      "start": 25.8294,
      "duration": 0.4282,
      "velocity": 117,
      "chip": "ym2612"
    },
    {
      "channel": 0,
      "note": 43,
      "start": 25.9414,
      "duration": 0.0729,
      "velocity": 127,
      "chip": "ym2612"
    },
    {
      "channel": 1,
      "note": 58,
      "start": 25.9417,
      "duration": 0.1663,
      "velocity": 99,
      "chip": "ym2612"
    },
    {
      "channel": 0,
      "note": 41,
      "start": 26.0539,
      "duration": 0.0726,
      "velocity": 127,
      "chip": "ym2612"
    },
    {
      "channel": 0,
      "note": 53,
      "start": 26.166,
      "duration": 0.1103,
      "velocity": 121,
      "chip": "ym2612"
    },
    {
      "channel": 1,
      "note": 58,
      "start": 26.1663,
      "duration": 0.0539,
      "velocity": 99,
      "chip": "ym2612"
    },
    {
      "channel": 1,
      "note": 50,
      "start": 26.2766,
      "duration": 0.0559,
      "velocity": 99,
      "chip": "ym2612"
    },
    {
      "channel": 2,
      "note": 68,
      "start": 26.277,
      "duration": 0.4301,
      "velocity": 117,
      "chip": "ym2612"
    },
    {
      "channel": 0,
      "note": 53,
      "start": 26.3889,
      "duration": 0.1121,
      "velocity": 121,
      "chip": "ym2612"
    },
    {
      "channel": 1,
      "note": 51,
      "start": 26.3892,
      "duration": 0.0556,
      "velocity": 99,
      "chip": "ym2612"
    },
    {
      "channel": 0,
      "note": 43,
      "start": 26.5032,
      "duration": 0.1849,
      "velocity": 127,
      "chip": "ym2612"
    },
    {
      "channel": 1,
      "note": 52,
      "start": 26.5035,
      "duration": 0.1661,
      "velocity": 99,
      "chip": "ym2612"
    },
    {
      "channel": 0,
      "note": 53,
      "start": 26.7276,
      "duration": 0.1103,
      "velocity": 121,
      "chip": "ym2612"
    },
    {
      "channel": 1,
      "note": 53,
      "start": 26.7279,
      "duration": 0.1662,
      "velocity": 99,
      "chip": "ym2612"
    },
    {
      "channel": 2,
      "note": 67,
      "start": 26.7283,
      "duration": 0.428,
      "velocity": 117,
      "chip": "ym2612"
    },
    {
      "channel": 0,
      "note": 53,
      "start": 26.8382,
      "duration": 0.112,
      "velocity": 121,
      "chip": "ym2612"
    },
    {
      "channel": 0,
      "note": 41,
      "start": 26.9525,
      "duration": 0.11,
      "velocity": 127,
      "chip": "ym2612"
    },
    {
      "channel": 1,
      "note": 51,
      "start": 26.9528,
      "duration": 0.1659,
      "velocity": 99,
      "chip": "ym2612"
    },
    {
      "channel": 3,
      "note": 55,
      "start": 26.9531,
      "duration": 1.7756,
      "velocity": 89,
      "chip": "ym2612"
    },
    {
      "channel": 4,
      "note": 63,
      "start": 26.9535,
      "duration": 1.7754,
      "velocity": 89,
      "chip": "ym2612"
    },
    {
      "channel": 5,
      "note": 58,
      "start": 26.9538,
      "duration": 1.7751,
      "velocity": 89,
      "chip": "ym2612"
    },
    {
      "channel": 0,
      "note": 53,
      "start": 27.0646,
      "duration": 0.1103,
      "velocity": 121,
      "chip": "ym2612"
    },
    {
      "channel": 0,
      "note": 53,
      "start": 27.1752,
      "duration": 0.112,
      "velocity": 121,
      "chip": "ym2612"
    },
    {
      "channel": 1,
      "note": 51,
      "start": 27.1754,
      "duration": 0.1679,
      "velocity": 99,
      "chip": "ym2612"
    },
    {
      "channel": 2,
      "note": 65,
      "start": 27.1758,
      "duration": 0.2051,
      "velocity": 117,
      "chip": "ym2612"
    },
    {
      "channel": 0,
      "note": 53,
      "start": 27.2875,
      "duration": 0.112,
      "velocity": 121,
      "chip": "ym2612"
    },
    {
      "channel": 0,
      "note": 43,
      "start": 27.4015,
      "duration": 0.1852,
      "velocity": 127,
      "chip": "ym2612"
    },
    {
      "channel": 1,
      "note": 51,
      "start": 27.4021,
      "duration": 0.2783,
      "velocity": 99,
      "chip": "ym2612"
    },
    {
      "channel": 2,
      "note": 67,
      "start": 27.4024,
      "duration": 0.2032,
      "velocity": 117,
      "chip": "ym2612"
    },
    {
      "channel": 0,
      "note": 53,
      "start": 27.6262,
      "duration": 0.1103,
      "velocity": 121,
      "chip": "ym2612"
    },
    {
      "channel": 2,
      "note": 63,
      "start": 27.6266,
      "duration": 0.8777,
      "velocity": 117,
      "chip": "ym2612"
    },
    {
      "channel": 0,
      "note": 43,
      "start": 27.7385,
      "duration": 0.0729,
      "velocity": 127,
      "chip": "ym2612"
    },
    {
      "channel": 1,
      "note": 51,
      "start": 27.7388,
      "duration": 0.1663,
      "velocity": 99,
      "chip": "ym2612"
    },
    {
      "channel": 0,
      "note": 41,
      "start": 27.8508,
      "duration": 0.0729,
      "velocity": 127,
      "chip": "ym2612"
    },
    {
      "channel": 0,
      "note": 53,
      "start": 27.9634,
      "duration": 0.1101,
      "velocity": 121,
      "chip": "ym2612"
    },
    {
      "channel": 1,
      "note": 51,
      "start": 27.9637,
      "duration": 0.0537,
      "velocity": 99,
      "chip": "ym2612"
    },
    {
      "channel": 1,
      "note": 51,
      "start": 28.0737,
      "duration": 0.0559,
      "velocity": 99,
      "chip": "ym2612"
    },
    {
      "channel": 0,
      "note": 53,
      "start": 28.186,
      "duration": 0.1121,
      "velocity": 121,
      "chip": "ym2612"
    },
    {
      "channel": 1,
      "note": 51,
      "start": 28.1863,
      "duration": 0.0557,
      "velocity": 99,
      "chip": "ym2612"
    },
    {
      "channel": 0,
      "note": 43,
      "start": 28.3001,
      "duration": 0.1852,
      "velocity": 127,
      "chip": "ym2612"
    },
    {
      "channel": 1,
      "note": 63,
      "start": 28.3004,
      "duration": 0.1663,
      "velocity": 99,
      "chip": "ym2612"
    },
    {
      "channel": 0,
      "note": 53,
      "start": 28.5247,
      "duration": 0.1103,
      "velocity": 121,
      "chip": "ym2612"
    },
    {
      "channel": 1,
      "note": 51,
      "start": 28.525,
      "duration": 0.1662,
      "velocity": 99,
      "chip": "ym2612"
    },
    {
      "channel": 2,
      "note": 63,
      "start": 28.5254,
      "duration": 0.091,
      "velocity": 117,
      "chip": "ym2612"
    },
    {
      "channel": 0,
      "note": 53,
      "start": 28.6353,
      "duration": 0.112,
      "velocity": 121,
      "chip": "ym2612"
    },
    {
      "channel": 2,
      "note": 61,
      "start": 28.6357,
      "duration": 0.093,
      "velocity": 117,
      "chip": "ym2612"
    },
    {
      "channel": 0,
      "note": 41,
      "start": 28.7494,
      "duration": 0.1103,
      "velocity": 127,
      "chip": "ym2612"
    },
    {
      "channel": 1,
      "note": 56,
      "start": 28.7497,
      "duration": 0.1662,
      "velocity": 99,
      "chip": "ym2612"
    },
    {
      "channel": 2,
      "note": 60,
      "start": 28.75,
      "duration": 0.428,
      "velocity": 117,
      "chip": "ym2612"
    },
    {
      "channel": 3,
      "note": 51,
      "start": 28.7504,
      "duration": 1.7755,
      "velocity": 89,
      "chip": "ym2612"
    },
    {
      "channel": 4,
      "note": 60,
      "start": 28.7507,
      "duration": 1.7752,
      "velocity": 89,
      "chip": "ym2612"
    },
    {
      "channel": 5,
      "note": 56,
      "start": 28.751,
      "duration": 1.7749,
      "velocity": 89,
      "chip": "ym2612"
    },
    {
      "channel": 0,
      "note": 53,
      "start": 28.8619,
      "duration": 0.1101,
      "velocity": 121,
      "chip": "ym2612"
    },
    {
      "channel": 0,
      "note": 53,
      "start": 28.9723,
      "duration": 0.112,
      "velocity": 121,
      "chip": "ym2612"
    },
    {
      "channel": 1,
      "note": 56,
      "start": 28.9726,
      "duration": 0.1679,
      "velocity": 99,
      "chip": "ym2612"
    },
    {
      "channel": 0,
      "note": 53,
      "start": 29.0846,
      "duration": 0.112,
      "velocity": 121,
      "chip": "ym2612"
    },
    {
      "channel": 0,
      "note": 43,
      "start": 29.1987,
      "duration": 0.1852,
      "velocity": 127,
      "chip": "ym2612"
    },
    {
      "channel": 1,
      "note": 56,
      "start": 29.1989,
      "duration": 0.2785,
      "velocity": 99,
      "chip": "ym2612"
    },
    {
      "channel": 2,
      "note": 61,
      "start": 29.1993,
      "duration": 0.2034,
      "velocity": 117,
      "chip": "ym2612"
    },
    {
      "channel": 0,
      "note": 53,
      "start": 29.4235,
      "duration": 0.1101,
      "velocity": 121,
      "chip": "ym2612"
    },
    {
      "channel": 2,
      "note": 63,
      "start": 29.4239,
      "duration": 0.4282,
      "velocity": 117,
      "chip": "ym2612"
    },
    {
      "channel": 0,
      "note": 43,
      "start": 29.5356,
      "duration": 0.0729,
      "velocity": 127,
      "chip": "ym2612"
    },
    {
      "channel": 1,
      "note": 56,
      "start": 29.5359,
      "duration": 0.1663,
      "velocity": 99,
      "chip": "ym2612"
    },
    {
      "channel": 0,
      "note": 41,
      "start": 29.6479,
      "duration": 0.0729,
      "velocity": 127,
      "chip": "ym2612"
    },
    {
      "channel": 0,
      "note": 53,
      "start": 29.7602,
      "duration": 0.1103,
      "velocity": 121,
      "chip": "ym2612"
    },
    {
      "channel": 1,
      "note": 56,
      "start": 29.7605,
      "duration": 0.0539,
      "velocity": 99,
      "chip": "ym2612"
    },
    {
      "channel": 1,
      "note": 48,
      "start": 29.8709,
      "duration": 0.0559,
      "velocity": 99,
      "chip": "ym2612"
    },
    {
      "channel": 2,
      "note": 56,
      "start": 29.8712,
      "duration": 0.4301,
      "velocity": 117,
      "chip": "ym2612"
    },
    {
      "channel": 0,
      "note": 53,
      "start": 29.9831,
      "duration": 0.1121,
      "velocity": 121,
      "chip": "ym2612"
    },
    {
      "channel": 1,
      "note": 49,
      "start": 29.9834,
      "duration": 0.0557,
      "velocity": 99,
      "chip": "ym2612"
    },
    {
      "channel": 0,
      "note": 43,
      "start": 30.0972,
      "duration": 0.1852,
      "velocity": 127,
      "chip": "ym2612"
    },
    {
      "channel": 1,
      "note": 50,
      "start": 30.0975,
      "duration": 0.1663,
      "velocity": 99,
      "chip": "ym2612"
    },
    {
      "channel": 0,
      "note": 53,
      "start": 30.3221,
      "duration": 0.1101,
      "velocity": 121,
      "chip": "ym2612"
    },
    {
      "channel": 1,
      "note": 51,
      "start": 30.3224,
      "duration": 0.1659,
      "velocity": 99,
      "chip": "ym2612"
    },
    {
      "channel": 2,
      "note": 67,
      "start": 30.3228,
      "duration": 0.6523,
      "velocity": 117,
      "chip": "ym2612"
    },
    {
      "channel": 0,
      "note": 53,
      "start": 30.4324,
      "duration": 0.112,
      "velocity": 121,
      "chip": "ym2612"
    },
    {
      "channel": 0,
      "note": 41,
      "start": 30.5465,
      "duration": 0.1103,
      "velocity": 127,
      "chip": "ym2612"
    },
    {
      "channel": 1,
      "note": 49,
      "start": 30.5468,
      "duration": 0.1662,
      "velocity": 99,
      "chip": "ym2612"
    },
    {
      "channel": 3,
      "note": 49,
      "start": 30.5471,
      "duration": 1.7759,
      "velocity": 89,
      "chip": "ym2612"
    },
    {
      "channel": 4,
      "note": 56,
      "start": 30.5475,
      "duration": 1.7756,
      "velocity": 89,
      "chip": "ym2612"
    },
    {
      "channel": 5,
      "note": 53,
      "start": 30.5478,
      "duration": 1.7754,
      "velocity": 89,
      "chip": "ym2612"
    },
    {
      "channel": 0,
      "note": 53,
      "start": 30.6588,
      "duration": 0.1103,
      "velocity": 121,
      "chip": "ym2612"
    },
    {
      "channel": 0,
      "note": 53,
      "start": 30.7694,
      "duration": 0.112,
      "velocity": 121,
      "chip": "ym2612"
    },
    {
      "channel": 1,
      "note": 49,
      "start": 30.7697,
      "duration": 0.1679,
      "velocity": 99,
      "chip": "ym2612"
    },
    {
      "channel": 0,
      "note": 53,
      "start": 30.882,
      "duration": 0.1118,
      "velocity": 121,
      "chip": "ym2612"
    },
    {
      "channel": 0,
      "note": 43,
      "start": 30.9958,
      "duration": 0.1852,
      "velocity": 127,
      "chip": "ym2612"
    },
    {
      "channel": 1,
      "note": 49,
      "start": 30.9961,
      "duration": 0.2785,
      "velocity": 99,
      "chip": "ym2612"
    },
    {
      "channel": 2,
      "note": 68,
      "start": 30.9964,
      "duration": 0.2034,
      "velocity": 117,
      "chip": "ym2612"
    },
    {
      "channel": 0,
      "note": 53,
      "start": 31.2204,
      "duration": 0.1103,
      "velocity": 121,
      "chip": "ym2612"
    },
    {
      "channel": 2,
      "note": 65,
      "start": 31.2208,
      "duration": 0.8777,
      "velocity": 117,
      "chip": "ym2612"
    },
    {
      "channel": 0,
      "note": 43,
      "start": 31.333,
      "duration": 0.0727,
      "velocity": 127,
      "chip": "ym2612"
    },
    {
      "channel": 1,
      "note": 49,
      "start": 31.3333,
      "duration": 0.1661,
      "velocity": 99,
      "chip": "ym2612"
    },
    {
      "channel": 0,
      "note": 41,
      "start": 31.4451,
      "duration": 0.0729,
      "velocity": 127,
      "chip": "ym2612"
    },
    {
      "channel": 0,
      "note": 53,
      "start": 31.5574,
      "duration": 0.1103,
      "velocity": 121,
      "chip": "ym2612"
    },
    {
      "channel": 1,
      "note": 49,
      "start": 31.5576,
      "duration": 0.0539,
      "velocity": 99,
      "chip": "ym2612"
    },
    {
      "channel": 1,
      "note": 49,
      "start": 31.668,
      "duration": 0.0559,
      "velocity": 99,
      "chip": "ym2612"
    },
    {
      "channel": 0,
      "note": 53,
      "start": 31.7802,
      "duration": 0.1121,
      "velocity": 121,
      "chip": "ym2612"
    },
    {
      "channel": 1,
      "note": 49,
      "start": 31.7805,
      "duration": 0.0556,
      "velocity": 99,
      "chip": "ym2612"
    },
    {
      "channel": 0,
      "note": 43,
      "start": 31.8943,
      "duration": 0.1852,
      "velocity": 127,
      "chip": "ym2612"
    },
    {
      "channel": 1,
      "note": 61,
      "start": 31.8946,
      "duration": 0.1663,
      "velocity": 99,
      "chip": "ym2612"
    },
    {
      "channel": 0,
      "note": 53,
      "start": 32.119,
      "duration": 0.1103,
      "velocity": 121,
      "chip": "ym2612"
    },
    {
      "channel": 1,
      "note": 49,
      "start": 32.1193,
      "duration": 0.1662,
      "velocity": 99,
      "chip": "ym2612"
    },
    {
      "channel": 2,
      "note": 65,
      "start": 32.1196,
      "duration": 0.091,
      "velocity": 117,
      "chip": "ym2612"
    },
    {
      "channel": 0,
      "note": 53,
      "start": 32.2296,
      "duration": 0.112,
      "velocity": 121,
      "chip": "ym2612"
    },
    {
      "channel": 2,
      "note": 67,
      "start": 32.23,
      "duration": 0.093,
      "velocity": 117,
      "chip": "ym2612"
    },
    {
      "channel": 0,
      "note": 41,
      "start": 32.3439,
      "duration": 0.11,
      "velocity": 127,
      "chip": "ym2612"
    },
    {
      "channel": 1,
      "note": 58,
      "start": 32.3441,
      "duration": 0.1659,
      "velocity": 99,
      "chip": "ym2612"
    },
    {
      "channel": 2,
      "note": 68,
      "start": 32.3445,
      "duration": 0.4277,
      "velocity": 117,
      "chip": "ym2612"
    },
    {
      "channel": 3,
      "note": 53,
      "start": 32.3449,
      "duration": 1.7752,
      "velocity": 89,
      "chip": "ym2612"
    },
    {
      "channel": 4,
      "note": 61,
      "start": 32.3452,
      "duration": 1.7749,
      "velocity": 89,
      "chip": "ym2612"
    },
    {
      "channel": 5,
      "note": 56,
      "start": 32.3455,
      "duration": 1.7747,
      "velocity": 89,
      "chip": "ym2612"
    },
    {
      "channel": 0,
      "note": 53,
      "start": 32.456,
      "duration": 0.1103,
      "velocity": 121,
      "chip": "ym2612"
    },
    {
      "channel": 0,
      "note": 53,
      "start": 32.5665,
      "duration": 0.112,
      "velocity": 121,
      "chip": "ym2612"
    },
    {
      "channel": 1,
      "note": 58,
      "start": 32.5668,
      "duration": 0.1679,
      "velocity": 99,
      "chip": "ym2612"
    },
    {
      "channel": 0,
      "note": 53,
      "start": 32.6788,
      "duration": 0.112,
      "velocity": 121,
      "chip": "ym2612"
    },
    {
      "channel": 0,
      "note": 43,
      "start": 32.7932,
      "duration": 0.1849,
      "velocity": 127,
      "chip": "ym2612"
    },
    {
      "channel": 1,
      "note": 58,
      "start": 32.7934,
      "duration": 0.2785,
      "velocity": 99,
      "chip": "ym2612"
    },
    {
      "channel": 2,
      "note": 68,
      "start": 32.7938,
      "duration": 0.2032,
      "velocity": 117,
      "chip": "ym2612"
    },
    {
      "channel": 0,
      "note": 53,
      "start": 33.0175,
      "duration": 0.1103,
      "velocity": 121,
      "chip": "ym2612"
    },
    {
      "channel": 2,
      "note": 65,
      "start": 33.0179,
      "duration": 0.4282,
      "velocity": 117,
      "chip": "ym2612"
    },
    {
      "channel": 0,
      "note": 43,
      "start": 33.1299,
      "duration": 0.0729,
      "velocity": 127,
      "chip": "ym2612"
    },
    {
      "channel": 1,
      "note": 58,
      "start": 33.1301,
      "duration": 0.1663,
      "velocity": 99,
      "chip": "ym2612"
    },
    {
      "channel": 0,
      "note": 41,
      "start": 33.2424,
      "duration": 0.0726,
      "velocity": 127,
      "chip": "ym2612"
    },
    {
      "channel": 0,
      "note": 53,
      "start": 33.3545,
      "duration": 0.1103,
      "velocity": 121,
      "chip": "ym2612"
    },
    {
      "channel": 1,
      "note": 58,
      "start": 33.3548,
      "duration": 0.0539,
      "velocity": 99,
      "chip": "ym2612"
    },
    {
      "channel": 1,
      "note": 50,
      "start": 33.4651,
      "duration": 0.0559,
      "velocity": 99,
      "chip": "ym2612"
    },
    {
      "channel": 2,
      "note": 68,
      "start": 33.4655,
      "duration": 0.4301,
      "velocity": 117,
      "chip": "ym2612"
    },
    {
      "channel": 0,
      "note": 53,
      "start": 33.5773,
      "duration": 0.1121,
      "velocity": 121,
      "chip": "ym2612"
    },
    {
      "channel": 1,
      "note": 51,
      "start": 33.5776,
      "duration": 0.0556,
      "velocity": 99,
      "chip": "ym2612"
    },
    {
      "channel": 0,
      "note": 43,
      "start": 33.6915,
      "duration": 0.1852,
      "velocity": 127,
      "chip": "ym2612"
    },
    {
      "channel": 1,
      "note": 52,
      "start": 33.692,
      "duration": 0.1661,
      "velocity": 99,
      "chip": "ym2612"
    },
    {
      "channel": 0,
      "note": 53,
      "start": 33.9161,
      "duration": 0.1103,
      "velocity": 121,
      "chip": "ym2612"
    },
    {
      "channel": 1,
      "note": 53,
      "start": 33.9164,
      "duration": 0.1662,
      "velocity": 99,
      "chip": "ym2612"
    },
    {
      "channel": 2,
      "note": 72,
      "start": 33.9167,
      "duration": 0.4281,
      "velocity": 117,
      "chip": "ym2612"
    },
    {
      "channel": 0,
      "note": 53,
      "start": 34.0267,
      "duration": 0.112,
      "velocity": 121,
      "chip": "ym2612"
    },
    {
      "channel": 0,
      "note": 43,
      "start": 34.1408,
      "duration": 0.0728,
      "velocity": 127,
      "chip": "ym2612"
    },
    {
      "channel": 1,
      "note": 60,
      "start": 34.1411,
      "duration": 0.1663,
      "velocity": 99,
      "chip": "ym2612"
    },
    {
      "channel": 3,
      "note": 52,
      "start": 34.1414,
      "duration": 1.776,
      "velocity": 89,
      "chip": "ym2612"
    },
    {
      "channel": 4,
      "note": 60,
      "start": 34.142,
      "duration": 1.7755,
      "velocity": 89,
      "chip": "ym2612"
    },
    {
      "channel": 5,
      "note": 55,
      "start": 34.1423,
      "duration": 1.7752,
      "velocity": 89,
      "chip": "ym2612"
    },
    {
      "channel": 0,
      "note": 43,
      "start": 34.2513,
      "duration": 0.0746,
      "velocity": 127,
      "chip": "ym2612"
    },
    {
      "channel": 0,
      "note": 43,
      "start": 34.3637,
      "duration": 0.0746,
      "velocity": 127,
      "chip": "ym2612"
    },
    {
      "channel": 1,
      "note": 60,
      "start": 34.3639,
      "duration": 0.1682,
      "velocity": 99,
      "chip": "ym2612"
    },
    {
      "channel": 2,
      "note": 70,
      "start": 34.3643,
      "duration": 0.2052,
      "velocity": 117,
      "chip": "ym2612"
    },
    {
      "channel": 0,
      "note": 43,
      "start": 34.476,
      "duration": 0.0746,
      "velocity": 127,
      "chip": "ym2612"
    },
    {
      "channel": 0,
      "note": 43,
      "start": 34.5883,
      "duration": 0.2993,
      "velocity": 127,
      "chip": "ym2612"
    },
    {
      "channel": 1,
      "note": 60,
      "start": 34.5886,
      "duration": 0.2804,
      "velocity": 99,
      "chip": "ym2612"
    },
    {
      "channel": 2,
      "note": 72,
      "start": 34.589,
      "duration": 0.2051,
      "velocity": 117,
      "chip": "ym2612"
    },
    {
      "channel": 2,
      "note": 70,
      "start": 34.8131,
      "duration": 1.1042,
      "velocity": 117,
      "chip": "ym2612"
    },
    {
      "channel": 0,
      "note": 43,
      "start": 34.9252,
      "duration": 0.0746,
      "velocity": 127,
      "chip": "ym2612"
    },
    {
      "channel": 1,
      "note": 60,
      "start": 34.9255,
      "duration": 0.168,
      "velocity": 99,
      "chip": "ym2612"
    },
    {
      "channel": 0,
      "note": 43,
      "start": 35.0376,
      "duration": 0.0746,
      "velocity": 127,
      "chip": "ym2612"
    },
    {
      "channel": 0,
      "note": 43,
      "start": 35.1499,
      "duration": 0.0746,
      "velocity": 127,
      "chip": "ym2612"
    },
    {
      "channel": 1,
      "note": 60,
      "start": 35.1502,
      "duration": 0.0557,
      "velocity": 99,
      "chip": "ym2612"
    },
    {
      "channel": 0,
      "note": 43,
      "start": 35.2623,
      "duration": 0.0745,
      "velocity": 127,
      "chip": "ym2612"
    },
    {
      "channel": 1,
      "note": 60,
      "start": 35.2626,
      "duration": 0.0556,
      "velocity": 99,
      "chip": "ym2612"
    },
    {
      "channel": 0,
      "note": 43,
      "start": 35.3745,
      "duration": 0.0746,
      "velocity": 127,
      "chip": "ym2612"
    },
    {
      "channel": 1,
      "note": 60,
      "start": 35.3748,
      "duration": 0.0557,
      "velocity": 99,
      "chip": "ym2612"
    },
    {
      "channel": 0,
      "note": 63,
      "start": 35.4886,
      "duration": 0.0916,
      "velocity": 112,
      "chip": "ym2612"
    },
    {
      "channel": 1,
      "note": 72,
      "start": 35.4889,
      "duration": 0.1663,
      "velocity": 99,
      "chip": "ym2612"
    },
    {
      "channel": 0,
      "note": 59,
      "start": 35.5991,
      "duration": 0.0934,
      "velocity": 112,
      "chip": "ym2612"
    },
    {
      "channel": 0,
      "note": 56,
      "start": 35.7114,
      "duration": 0.0934,
      "velocity": 112,
      "chip": "ym2612"
    },
    {
      "channel": 1,
      "note": 60,
      "start": 35.712,
      "duration": 0.1678,
      "velocity": 99,
      "chip": "ym2612"
    },
    {
      "channel": 0,
      "note": 52,
      "start": 35.8238,
      "duration": 0.0934,
      "velocity": 112,
      "chip": "ym2612"
    },
    {
      "channel": 0,
      "note": 41,
      "start": 35.9379,
      "duration": 0.0916,
      "velocity": 127,
      "chip": "ym2612"
    },
    {
      "channel": 1,
      "note": 56,
      "start": 35.9381,
      "duration": 0.1662,
      "velocity": 99,
      "chip": "ym2612"
    },
    {
      "channel": 2,
      "note": 60,
      "start": 35.9385,
      "duration": 0.428,
      "velocity": 117,
      "chip": "ym2612"
    },
    {
      "channel": 3,
      "note": 51,
      "start": 35.9406,
      "duration": 1.7737,
      "velocity": 89,
      "chip": "ym2612"
    },
    {
      "channel": 4,
      "note": 60,
      "start": 35.9429,
      "duration": 1.7715,
      "velocity": 89,
      "chip": "ym2612"
    },
    {
      "channel": 5,
      "note": 56,
      "start": 35.945,
      "duration": 1.7695,
      "velocity": 89,
      "chip": "ym2612"
    },
    {
      "channel": 0,
      "note": 53,
      "start": 36.0502,
      "duration": 0.1103,
      "velocity": 121,
      "chip": "ym2612"
    },
    {
      "channel": 0,
      "note": 53,
      "start": 36.1608,
      "duration": 0.112,
      "velocity": 121,
      "chip": "ym2612"
    },
    {
      "channel": 1,
      "note": 56,
      "start": 36.161,
      "duration": 0.1679,
      "velocity": 99,
      "chip": "ym2612"
    },
    {
      "channel": 0,
      "note": 53,
      "start": 36.2731,
      "duration": 0.112,
      "velocity": 121,
      "chip": "ym2612"
    },
    {
      "channel": 0,
      "note": 43,
      "start": 36.3871,
      "duration": 0.1852,
      "velocity": 127,
      "chip": "ym2612"
    },
    {
      "channel": 1,
      "note": 56,
      "start": 36.3874,
      "duration": 0.2785,
      "velocity": 99,
      "chip": "ym2612"
    },
    {
      "channel": 2,
      "note": 61,
      "start": 36.3878,
      "duration": 0.2034,
      "velocity": 117,
      "chip": "ym2612"
    },
    {
      "channel": 0,
      "note": 53,
      "start": 36.612,
      "duration": 0.1101,
      "velocity": 121,
      "chip": "ym2612"
    },
    {
      "channel": 2,
      "note": 63,
      "start": 36.6124,
      "duration": 0.428,
      "velocity": 117,
      "chip": "ym2612"
    },
    {
      "channel": 0,
      "note": 43,
      "start": 36.7242,
      "duration": 0.0728,
      "velocity": 127,
      "chip": "ym2612"
    },
    {
      "channel": 1,
      "note": 56,
      "start": 36.7244,
      "duration": 0.1662,
      "velocity": 99,
      "chip": "ym2612"
    },
    {
      "channel": 0,
      "note": 41,
      "start": 36.8364,
      "duration": 0.0729,
      "velocity": 127,
      "chip": "ym2612"
    },
    {
      "channel": 0,
      "note": 53,
      "start": 36.9487,
      "duration": 0.1103,
      "velocity": 121,
      "chip": "ym2612"
    },
    {
      "channel": 1,
      "note": 56,
      "start": 36.949,
      "duration": 0.0539,
      "velocity": 99,
      "chip": "ym2612"
    },
    {
      "channel": 1,
      "note": 48,
      "start": 37.0593,
      "duration": 0.0559,
      "velocity": 99,
      "chip": "ym2612"
    },
    {
      "channel": 2,
      "note": 56,
      "start": 37.0597,
      "duration": 0.4301,
      "velocity": 117,
      "chip": "ym2612"
    },
    {
      "channel": 0,
      "note": 53,
      "start": 37.1716,
      "duration": 0.1121,
      "velocity": 121,
      "chip": "ym2612"
    },
    {
      "channel": 1,
      "note": 49,
      "start": 37.1721,
      "duration": 0.0554,
      "velocity": 99,
      "chip": "ym2612"
    },
    {
      "channel": 0,
      "note": 43,
      "start": 37.2857,
      "duration": 0.1852,
      "velocity": 127,
      "chip": "ym2612"
    },
    {
      "channel": 1,
      "note": 50,
      "start": 37.286,
      "duration": 0.1663,
      "velocity": 99,
      "chip": "ym2612"
    },
    {
      "channel": 0,
      "note": 53,
      "start": 37.5103,
      "duration": 0.1103,
      "velocity": 121,
      "chip": "ym2612"
    },
    {
      "channel": 1,
      "note": 51,
      "start": 37.5106,
      "duration": 0.1662,
      "velocity": 99,
      "chip": "ym2612"
    },
    {
      "channel": 2,
      "note": 67,
      "start": 37.511,
      "duration": 0.6526,
      "velocity": 117,
      "chip": "ym2612"
    },
    {
      "channel": 0,
      "note": 53,
      "start": 37.6209,
      "duration": 0.112,
      "velocity": 121,
      "chip": "ym2612"
    },
    {
      "channel": 0,
      "note": 41,
      "start": 37.735,
      "duration": 0.1103,
      "velocity": 127,
      "chip": "ym2612"
    },
    {
      "channel": 1,
      "note": 49,
      "start": 37.7353,
      "duration": 0.1662,
      "velocity": 99,
      "chip": "ym2612"
    },
    {
      "channel": 3,
      "note": 49,
      "start": 37.7356,
      "duration": 1.7759,
      "velocity": 89,
      "chip": "ym2612"
    },
    {
      "channel": 4,
      "note": 56,
      "start": 37.7359,
      "duration": 1.7756,
      "velocity": 89,
      "chip": "ym2612"
    },
    {
      "channel": 5,
      "note": 53,
      "start": 37.7363,
      "duration": 1.7754,
      "velocity": 89,
      "chip": "ym2612"
    },
    {
      "channel": 0,
      "note": 53,
      "start": 37.8473,
      "duration": 0.1103,
      "velocity": 121,
      "chip": "ym2612"
    },
    {
      "channel": 0,
      "note": 53,
      "start": 37.9579,
      "duration": 0.112,
      "velocity": 121,
      "chip": "ym2612"
    },
    {
      "channel": 1,
      "note": 49,
      "start": 37.9582,
      "duration": 0.1679,
      "velocity": 99,
      "chip": "ym2612"
    },
    {
      "channel": 0,
      "note": 53,
      "start": 38.0702,
      "duration": 0.112,
      "velocity": 121,
      "chip": "ym2612"
    },
    {
      "channel": 0,
      "note": 43,
      "start": 38.1843,
      "duration": 0.1852,
      "velocity": 127,
      "chip": "ym2612"
    },
    {
      "channel": 1,
      "note": 49,
      "start": 38.1845,
      "duration": 0.2785,
      "velocity": 99,
      "chip": "ym2612"
    },
    {
      "channel": 2,
      "note": 68,
      "start": 38.1849,
      "duration": 0.2034,
      "velocity": 117,
      "chip": "ym2612"
    },
    {
      "channel": 0,
      "note": 53,
      "start": 38.4089,
      "duration": 0.1103,
      "velocity": 121,
      "chip": "ym2612"
    },
    {
      "channel": 2,
      "note": 65,
      "start": 38.4093,
      "duration": 0.8777,
      "velocity": 117,
      "chip": "ym2612"
    },
    {
      "channel": 0,
      "note": 43,
      "start": 38.5212,
      "duration": 0.0729,
      "velocity": 127,
      "chip": "ym2612"
    },
    {
      "channel": 1,
      "note": 49,
      "start": 38.5215,
      "duration": 0.1663,
      "velocity": 99,
      "chip": "ym2612"
    },
    {
      "channel": 0,
      "note": 41,
      "start": 38.6338,
      "duration": 0.0726,
      "velocity": 127,
      "chip": "ym2612"
    },
    {
      "channel": 0,
      "note": 53,
      "start": 38.7459,
      "duration": 0.1103,
      "velocity": 121,
      "chip": "ym2612"
    },
    {
      "channel": 1,
      "note": 49,
      "start": 38.7461,
      "duration": 0.0539,
      "velocity": 99,
      "chip": "ym2612"
    },
    {
      "channel": 1,
      "note": 49,
      "start": 38.8565,
      "duration": 0.0559,
      "velocity": 99,
      "chip": "ym2612"
    },
    {
      "channel": 0,
      "note": 53,
      "start": 38.9687,
      "duration": 0.1121,
      "velocity": 121,
      "chip": "ym2612"
    },
    {
      "channel": 1,
      "note": 49,
      "start": 38.969,
      "duration": 0.0556,
      "velocity": 99,
      "chip": "ym2612"
    },
    {
      "channel": 0,
      "note": 43,
      "start": 39.0831,
      "duration": 0.1849,
      "velocity": 127,
      "chip": "ym2612"
    },
    {
      "channel": 1,
      "note": 61,
      "start": 39.0834,
      "duration": 0.1661,
      "velocity": 99,
      "chip": "ym2612"
    },
    {
      "channel": 0,
      "note": 53,
      "start": 39.3075,
      "duration": 0.1103,
      "velocity": 121,
      "chip": "ym2612"
    },
    {
      "channel": 1,
      "note": 49,
      "start": 39.3078,
      "duration": 0.1662,
      "velocity": 99,
      "chip": "ym2612"
    },
    {
      "channel": 2,
      "note": 65,
      "start": 39.3081,
      "duration": 0.0909,
      "velocity": 117,
      "chip": "ym2612"
    },
    {
      "channel": 0,
      "note": 53,
      "start": 39.418,
      "duration": 0.112,
      "velocity": 121,
      "chip": "ym2612"
    },
    {
      "channel": 2,
      "note": 63,
      "start": 39.4184,
      "duration": 0.093,
      "velocity": 117,
      "chip": "ym2612"
    },
    {
      "channel": 0,
      "note": 41,
      "start": 39.5324,
      "duration": 0.11,
      "velocity": 127,
      "chip": "ym2612"
    },
    {
      "channel": 1,
      "note": 58,
      "start": 39.5326,
      "duration": 0.1659,
      "velocity": 99,
      "chip": "ym2612"
    },
    {
      "channel": 2,
      "note": 61,
      "start": 39.533,
      "duration": 0.4277,
      "velocity": 117,
      "chip": "ym2612"
    },
    {
      "channel": 3,
      "note": 53,
      "start": 39.5333,
      "duration": 1.7752,
      "velocity": 89,
      "chip": "ym2612"
    },
    {
      "channel": 4,
      "note": 61,
      "start": 39.5337,
      "duration": 1.7749,
      "velocity": 89,
      "chip": "ym2612"
    },
    {
      "channel": 5,
      "note": 56,
      "start": 39.534,
      "duration": 1.7747,
      "velocity": 89,
      "chip": "ym2612"
    },
    {
      "channel": 0,
      "note": 53,
      "start": 39.6444,
      "duration": 0.1103,
      "velocity": 121,
      "chip": "ym2612"
    },
    {
      "channel": 0,
      "note": 53,
      "start": 39.755,
      "duration": 0.112,
      "velocity": 121,
      "chip": "ym2612"
    },
    {
      "channel": 1,
      "note": 58,
      "start": 39.7553,
      "duration": 0.1679,
      "velocity": 99,
      "chip": "ym2612"
    },
    {
      "channel": 0,
      "note": 53,
      "start": 39.8673,
      "duration": 0.112,
      "velocity": 121,
      "chip": "ym2612"
    },
    {
      "channel": 0,
      "note": 43,
      "start": 39.9814,
      "duration": 0.1852,
      "velocity": 127,
      "chip": "ym2612"
    },
    {
      "channel": 1,
      "note": 58,
      "start": 39.9817,
      "duration": 0.2785,
      "velocity": 99,
      "chip": "ym2612"
    },
    {
      "channel": 2,
      "note": 63,
      "start": 39.9823,
      "duration": 0.2032,
      "velocity": 117,
      "chip": "ym2612"
    },
    {
      "channel": 0,
      "note": 53,
      "start": 40.206,
      "duration": 0.1103,
      "velocity": 121,
      "chip": "ym2612"
    },
    {
      "channel": 2,
      "note": 65,
      "start": 40.2064,
      "duration": 0.4282,
      "velocity": 117,
      "chip": "ym2612"
    },
    {
      "channel": 0,
      "note": 43,
      "start": 40.3183,
      "duration": 0.0729,
      "velocity": 127,
      "chip": "ym2612"
    },
    {
      "channel": 1,
      "note": 58,
      "start": 40.3186,
      "duration": 0.1663,
      "velocity": 99,
      "chip": "ym2612"
    },
    {
      "channel": 0,
      "note": 41,
      "start": 40.4307,
      "duration": 0.0729,
      "velocity": 127,
      "chip": "ym2612"
    },
    {
      "channel": 0,
      "note": 53,
      "start": 40.5432,
      "duration": 0.1101,
      "velocity": 121,
      "chip": "ym2612"
    },
    {
      "channel": 1,
      "note": 58,
      "start": 40.5435,
      "duration": 0.0537,
      "velocity": 99,
      "chip": "ym2612"
    },
    {
      "channel": 1,
      "note": 50,
      "start": 40.6536,
      "duration": 0.0559,
      "velocity": 99,
      "chip": "ym2612"
    },
    {
      "channel": 2,
      "note": 68,
      "start": 40.6539,
      "duration": 0.4301,
      "velocity": 117,
      "chip": "ym2612"
    },
    {
      "channel": 0,
      "note": 53,
      "start": 40.7658,
      "duration": 0.1121,
      "velocity": 121,
      "chip": "ym2612"
    },
    {
      "channel": 1,
      "note": 51,
      "start": 40.7661,
      "duration": 0.0559,
      "velocity": 99,
      "chip": "ym2612"
    },
    {
      "channel": 0,
      "note": 43,
      "start": 40.8799,
      "duration": 0.1852,
      "velocity": 127,
      "chip": "ym2612"
    },
    {
      "channel": 1,
      "note": 52,
      "start": 40.8802,
      "duration": 0.1663,
      "velocity": 99,
      "chip": "ym2612"
    },
    {
      "channel": 0,
      "note": 53,
      "start": 41.1046,
      "duration": 0.1103,
      "velocity": 121,
      "chip": "ym2612"
    },
    {
      "channel": 1,
      "note": 53,
      "start": 41.1049,
      "duration": 0.1662,
      "velocity": 99,
      "chip": "ym2612"
    },
    {
      "channel": 2,
      "note": 67,
      "start": 41.1052,
      "duration": 0.428,
      "velocity": 117,
      "chip": "ym2612"
    },
    {
      "channel": 0,
      "note": 53,
      "start": 41.2152,
      "duration": 0.112,
      "velocity": 121,
      "chip": "ym2612"
    },
    {
      "channel": 0,
      "note": 41,
      "start": 41.3292,
      "duration": 0.1103,
      "velocity": 127,
      "chip": "ym2612"
    },
    {
      "channel": 1,
      "note": 51,
      "start": 41.3295,
      "duration": 0.1662,
      "velocity": 99,
      "chip": "ym2612"
    },
    {
      "channel": 3,
      "note": 55,
      "start": 41.3298,
      "duration": 1.7759,
      "velocity": 89,
      "chip": "ym2612"
    },
    {
      "channel": 4,
      "note": 63,
      "start": 41.3302,
      "duration": 1.7756,
      "velocity": 89,
      "chip": "ym2612"
    },
    {
      "channel": 5,
      "note": 58,
      "start": 41.3305,
      "duration": 1.7754,
      "velocity": 89,
      "chip": "ym2612"
    },
    {
      "channel": 0,
      "note": 53,
      "start": 41.4415,
      "duration": 0.1105,
      "velocity": 121,
      "chip": "ym2612"
    },
    {
      "channel": 0,
      "note": 53,
      "start": 41.5523,
      "duration": 0.1119,
      "velocity": 121,
      "chip": "ym2612"
    },
    {
      "channel": 1,
      "note": 51,
      "start": 41.5526,
      "duration": 0.1678,
      "velocity": 99,
      "chip": "ym2612"
    },
    {
      "channel": 2,
      "note": 65,
      "start": 41.5529,
      "duration": 0.2049,
      "velocity": 117,
      "chip": "ym2612"
    },
    {
      "channel": 0,
      "note": 53,
      "start": 41.6644,
      "duration": 0.112,
      "velocity": 121,
      "chip": "ym2612"
    },
    {
      "channel": 0,
      "note": 43,
      "start": 41.7785,
      "duration": 0.1852,
      "velocity": 127,
      "chip": "ym2612"
    },
    {
      "channel": 1,
      "note": 51,
      "start": 41.7788,
      "duration": 0.2785,
      "velocity": 99,
      "chip": "ym2612"
    },
    {
      "channel": 2,
      "note": 67,
      "start": 41.7792,
      "duration": 0.2034,
      "velocity": 117,
      "chip": "ym2612"
    },
    {
      "channel": 0,
      "note": 53,
      "start": 42.0034,
      "duration": 0.1101,
      "velocity": 121,
      "chip": "ym2612"
    },
    {
      "channel": 2,
      "note": 63,
      "start": 42.0038,
      "duration": 0.8774,
      "velocity": 117,
      "chip": "ym2612"
    },
    {
      "channel": 0,
      "note": 43,
      "start": 42.1154,
      "duration": 0.0729,
      "velocity": 127,
      "chip": "ym2612"
    },
    {
      "channel": 1,
      "note": 51,
      "start": 42.1157,
      "duration": 0.1664,
      "velocity": 99,
      "chip": "ym2612"
    },
    {
      "channel": 0,
      "note": 41,
      "start": 42.2278,
      "duration": 0.0729,
      "velocity": 127,
      "chip": "ym2612"
    },
    {
      "channel": 0,
      "note": 53,
      "start": 42.3401,
      "duration": 0.1103,
      "velocity": 121,
      "chip": "ym2612"
    },
    {
      "channel": 1,
      "note": 51,
      "start": 42.3404,
      "duration": 0.0539,
      "velocity": 99,
      "chip": "ym2612"
    },
    {
      "channel": 1,
      "note": 51,
      "start": 42.4507,
      "duration": 0.0559,
      "velocity": 99,
      "chip": "ym2612"
    },
    {
      "channel": 0,
      "note": 53,
      "start": 42.5629,
      "duration": 0.1121,
      "velocity": 121,
      "chip": "ym2612"
    },
    {
      "channel": 1,
      "note": 51,
      "start": 42.5632,
      "duration": 0.0556,
      "velocity": 99,
      "chip": "ym2612"
    },
    {
      "channel": 0,
      "note": 43,
      "start": 42.6771,
      "duration": 0.1852,
      "velocity": 127,
      "chip": "ym2612"
    },
    {
      "channel": 1,
      "note": 63,
      "start": 42.6773,
      "duration": 0.1663,
      "velocity": 99,
      "chip": "ym2612"
    },
    {
      "channel": 0,
      "note": 53,
      "start": 42.9019,
      "duration": 0.1101,
      "velocity": 121,
      "chip": "ym2612"
    },
    {
      "channel": 1,
      "note": 51,
      "start": 42.9022,
      "duration": 0.166,
      "velocity": 99,
      "chip": "ym2612"
    },
    {
      "channel": 2,
      "note": 63,
      "start": 42.9026,
      "duration": 0.0907,
      "velocity": 117,
      "chip": "ym2612"
    },
    {
      "channel": 0,
      "note": 53,
      "start": 43.0123,
      "duration": 0.112,
      "velocity": 121,
      "chip": "ym2612"
    },
    {
      "channel": 2,
      "note": 61,
      "start": 43.0127,
      "duration": 0.093,
      "velocity": 117,
      "chip": "ym2612"
    },
    {
      "channel": 0,
      "note": 41,
      "start": 43.1263,
      "duration": 0.1103,
      "velocity": 127,
      "chip": "ym2612"
    },
    {
      "channel": 1,
      "note": 56,
      "start": 43.1266,
      "duration": 0.1662,
      "velocity": 99,
      "chip": "ym2612"
    },
    {
      "channel": 2,
      "note": 60,
      "start": 43.127,
      "duration": 0.4279,
      "velocity": 117,
      "chip": "ym2612"
    },
    {
      "channel": 3,
      "note": 51,
      "start": 43.1273,
      "duration": 1.7755,
      "velocity": 89,
      "chip": "ym2612"
    },
    {
      "channel": 4,
      "note": 60,
      "start": 43.1277,
      "duration": 1.7752,
      "velocity": 89,
      "chip": "ym2612"
    },
    {
      "channel": 5,
      "note": 56,
      "start": 43.128,
      "duration": 1.7749,
      "velocity": 89,
      "chip": "ym2612"
    },
    {
      "channel": 0,
      "note": 53,
      "start": 43.2386,
      "duration": 0.1103,
      "velocity": 121,
      "chip": "ym2612"
    },
    {
      "channel": 0,
      "note": 53,
      "start": 43.3493,
      "duration": 0.112,
      "velocity": 121,
      "chip": "ym2612"
    },
    {
      "channel": 1,
      "note": 56,
      "start": 43.3495,
      "duration": 0.1679,
      "velocity": 99,
      "chip": "ym2612"
    },
    {
      "channel": 0,
      "note": 53,
      "start": 43.4616,
      "duration": 0.112,
      "velocity": 121,
      "chip": "ym2612"
    },
    {
      "channel": 0,
      "note": 43,
      "start": 43.5756,
      "duration": 0.1852,
      "velocity": 127,
      "chip": "ym2612"
    },
    {
      "channel": 1,
      "note": 56,
      "start": 43.5759,
      "duration": 0.2785,
      "velocity": 99,
      "chip": "ym2612"
    },
    {
      "channel": 2,
      "note": 61,
      "start": 43.5763,
      "duration": 0.2034,
      "velocity": 117,
      "chip": "ym2612"
    },
    {
      "channel": 0,
      "note": 53,
      "start": 43.8002,
      "duration": 0.1103,
      "velocity": 121,
      "chip": "ym2612"
    },
    {
      "channel": 2,
      "note": 63,
      "start": 43.8006,
      "duration": 0.4282,
      "velocity": 117,
      "chip": "ym2612"
    },
    {
      "channel": 0,
      "note": 43,
      "start": 43.9128,
      "duration": 0.0726,
      "velocity": 127,
      "chip": "ym2612"
    },
    {
      "channel": 1,
      "note": 56,
      "start": 43.9131,
      "duration": 0.1661,
      "velocity": 99,
      "chip": "ym2612"
    },
    {
      "channel": 0,
      "note": 41,
      "start": 44.0249,
      "duration": 0.0729,
      "velocity": 127,
      "chip": "ym2612"
    },
    {
      "channel": 0,
      "note": 53,
      "start": 44.1372,
      "duration": 0.1103,
      "velocity": 121,
      "chip": "ym2612"
    },
    {
      "channel": 1,
      "note": 56,
      "start": 44.1375,
      "duration": 0.0539,
      "velocity": 99,
      "chip": "ym2612"
    },
    {
      "channel": 1,
      "note": 48,
      "start": 44.2478,
      "duration": 0.0559,
      "velocity": 99,
      "chip": "ym2612"
    },
    {
      "channel": 2,
      "note": 56,
      "start": 44.2482,
      "duration": 0.4301,
      "velocity": 117,
      "chip": "ym2612"
    },
    {
      "channel": 0,
      "note": 53,
      "start": 44.3601,
      "duration": 0.1121,
      "velocity": 121,
      "chip": "ym2612"
    },
    {
      "channel": 1,
      "note": 49,
      "start": 44.3604,
      "duration": 0.0556,
      "velocity": 99,
      "chip": "ym2612"
    },
    {
      "channel": 0,
      "note": 43,
      "start": 44.4742,
      "duration": 0.1851,
      "velocity": 127,
      "chip": "ym2612"
    },
    {
      "channel": 1,
      "note": 50,
      "start": 44.4745,
      "duration": 0.1663,
      "velocity": 99,
      "chip": "ym2612"
    },
    {
      "channel": 0,
      "note": 53,
      "start": 44.6988,
      "duration": 0.1103,
      "velocity": 121,
      "chip": "ym2612"
    },
    {
      "channel": 1,
      "note": 51,
      "start": 44.6991,
      "duration": 0.1662,
      "velocity": 99,
      "chip": "ym2612"
    },
    {
      "channel": 2,
      "note": 67,
      "start": 44.6995,
      "duration": 0.6526,
      "velocity": 117,
      "chip": "ym2612"
    },
    {
      "channel": 0,
      "note": 53,
      "start": 44.8094,
      "duration": 0.112,
      "velocity": 121,
      "chip": "ym2612"
    },
    {
      "channel": 0,
      "note": 41,
      "start": 44.9237,
      "duration": 0.11,
      "velocity": 127,
      "chip": "ym2612"
    },
    {
      "channel": 1,
      "note": 49,
      "start": 44.924,
      "duration": 0.1659,
      "velocity": 99,
      "chip": "ym2612"
    },
    {
      "channel": 3,
      "note": 49,
      "start": 44.9243,
      "duration": 1.7756,
      "velocity": 89,
      "chip": "ym2612"
    },
    {
      "channel": 4,
      "note": 56,
      "start": 44.9247,
      "duration": 1.7754,
      "velocity": 89,
      "chip": "ym2612"
    },
    {
      "channel": 5,
      "note": 53,
      "start": 44.925,
      "duration": 1.7751,
      "velocity": 89,
      "chip": "ym2612"
    },
    {
      "channel": 0,
      "note": 53,
      "start": 45.0358,
      "duration": 0.1103,
      "velocity": 121,
      "chip": "ym2612"
    },
    {
      "channel": 0,
      "note": 53,
      "start": 45.1464,
      "duration": 0.112,
      "velocity": 121,
      "chip": "ym2612"
    },
    {
      "channel": 1,
      "note": 49,
      "start": 45.1466,
      "duration": 0.1679,
      "velocity": 99,
      "chip": "ym2612"
    },
    {
      "channel": 0,
      "note": 53,
      "start": 45.2587,
      "duration": 0.112,
      "velocity": 121,
      "chip": "ym2612"
    },
    {
      "channel": 0,
      "note": 43,
      "start": 45.373,
      "duration": 0.1849,
      "velocity": 127,
      "chip": "ym2612"
    },
    {
      "channel": 1,
      "note": 49,
      "start": 45.3733,
      "duration": 0.2782,
      "velocity": 99,
      "chip": "ym2612"
    },
    {
      "channel": 2,
      "note": 68,
      "start": 45.3737,
      "duration": 0.2032,
      "velocity": 117,
      "chip": "ym2612"
    },
    {
      "channel": 0,
      "note": 53,
      "start": 45.5974,
      "duration": 0.1103,
      "velocity": 121,
      "chip": "ym2612"
    },
    {
      "channel": 2,
      "note": 65,
      "start": 45.5978,
      "duration": 0.8776,
      "velocity": 117,
      "chip": "ym2612"
    },
    {
      "channel": 0,
      "note": 43,
      "start": 45.7097,
      "duration": 0.0729,
      "velocity": 127,
      "chip": "ym2612"
    },
    {
      "channel": 1,
      "note": 49,
      "start": 45.71,
      "duration": 0.1663,
      "velocity": 99,
      "chip": "ym2612"
    },
    {
      "channel": 0,
      "note": 41,
      "start": 45.8223,
      "duration": 0.0726,
      "velocity": 127,
      "chip": "ym2612"
    },
    {
      "channel": 0,
      "note": 53,
      "start": 45.9343,
      "duration": 0.1103,
      "velocity": 121,
      "chip": "ym2612"
    },
    {
      "channel": 1,
      "note": 49,
      "start": 45.9346,
      "duration": 0.0539,
      "velocity": 99,
      "chip": "ym2612"
    },
    {
      "channel": 1,
      "note": 49,
      "start": 46.0449,
      "duration": 0.0559,
      "velocity": 99,
      "chip": "ym2612"
    },
    {
      "channel": 0,
      "note": 53,
      "start": 46.1572,
      "duration": 0.1121,
      "velocity": 121,
      "chip": "ym2612"
    },
    {
      "channel": 1,
      "note": 49,
      "start": 46.1575,
      "duration": 0.0556,
      "velocity": 99,
      "chip": "ym2612"
    },
    {
      "channel": 0,
      "note": 43,
      "start": 46.2713,
      "duration": 0.1852,
      "velocity": 127,
      "chip": "ym2612"
    },
    {
      "channel": 1,
      "note": 61,
      "start": 46.2716,
      "duration": 0.1663,
      "velocity": 99,
      "chip": "ym2612"
    },
    {
      "channel": 0,
      "note": 53,
      "start": 46.4959,
      "duration": 0.1103,
      "velocity": 121,
      "chip": "ym2612"
    },
    {
      "channel": 1,
      "note": 49,
      "start": 46.4962,
      "duration": 0.1662,
      "velocity": 99,
      "chip": "ym2612"
    },
    {
      "channel": 2,
      "note": 65,
      "start": 46.4966,
      "duration": 0.091,
      "velocity": 117,
      "chip": "ym2612"
    },
    {
      "channel": 0,
      "note": 53,
      "start": 46.6065,
      "duration": 0.112,
      "velocity": 121,
      "chip": "ym2612"
    },
    {
      "channel": 2,
      "note": 67,
      "start": 46.6069,
      "duration": 0.093,
      "velocity": 117,
      "chip": "ym2612"
    },
    {
      "channel": 0,
      "note": 41,
      "start": 46.7206,
      "duration": 0.1103,
      "velocity": 127,
      "chip": "ym2612"
    },
    {
      "channel": 1,
      "note": 58,
      "start": 46.7209,
      "duration": 0.1662,
      "velocity": 99,
      "chip": "ym2612"
    },
    {
      "channel": 2,
      "note": 68,
      "start": 46.7212,
      "duration": 0.4279,
      "velocity": 117,
      "chip": "ym2612"
    },
    {
      "channel": 3,
      "note": 53,
      "start": 46.7216,
      "duration": 1.7755,
      "velocity": 89,
      "chip": "ym2612"
    },
    {
      "channel": 4,
      "note": 61,
      "start": 46.7222,
      "duration": 1.7749,
      "velocity": 89,
      "chip": "ym2612"
    },
    {
      "channel": 5,
      "note": 56,
      "start": 46.7225,
      "duration": 1.7746,
      "velocity": 89,
      "chip": "ym2612"
    },
    {
      "channel": 0,
      "note": 53,
      "start": 46.8331,
      "duration": 0.1101,
      "velocity": 121,
      "chip": "ym2612"
    },
    {
      "channel": 0,
      "note": 53,
      "start": 46.9435,
      "duration": 0.112,
      "velocity": 121,
      "chip": "ym2612"
    },
    {
      "channel": 1,
      "note": 58,
      "start": 46.9438,
      "duration": 0.1682,
      "velocity": 99,
      "chip": "ym2612"
    },
    {
      "channel": 0,
      "note": 53,
      "start": 47.0559,
      "duration": 0.112,
      "velocity": 121,
      "chip": "ym2612"
    },
    {
      "channel": 0,
      "note": 43,
      "start": 47.1699,
      "duration": 0.1852,
      "velocity": 127,
      "chip": "ym2612"
    },
    {
      "channel": 1,
      "note": 58,
      "start": 47.1701,
      "duration": 0.2785,
      "velocity": 99,
      "chip": "ym2612"
    },
    {
      "channel": 2,
      "note": 68,
      "start": 47.1705,
      "duration": 0.2034,
      "velocity": 117,
      "chip": "ym2612"
    },
    {
      "channel": 0,
      "note": 53,
      "start": 47.3945,
      "duration": 0.1103,
      "velocity": 121,
      "chip": "ym2612"
    },
    {
      "channel": 2,
      "note": 65,
      "start": 47.3949,
      "duration": 0.4282,
      "velocity": 117,
      "chip": "ym2612"
    },
    {
      "channel": 0,
      "note": 43,
      "start": 47.5068,
      "duration": 0.0728,
      "velocity": 127,
      "chip": "ym2612"
    },
    {
      "channel": 1,
      "note": 58,
      "start": 47.5071,
      "duration": 0.1663,
      "velocity": 99,
      "chip": "ym2612"
    },
    {
      "channel": 0,
      "note": 41,
      "start": 47.6191,
      "duration": 0.0729,
      "velocity": 127,
      "chip": "ym2612"
    },
    {
      "channel": 0,
      "note": 53,
      "start": 47.7315,
      "duration": 0.1106,
      "velocity": 121,
      "chip": "ym2612"
    },
    {
      "channel": 1,
      "note": 58,
      "start": 47.732,
      "duration": 0.0537,
      "velocity": 99,
      "chip": "ym2612"
    },
    {
      "channel": 1,
      "note": 50,
      "start": 47.8423,
      "duration": 0.0556,
      "velocity": 99,
      "chip": "ym2612"
    },
    {
      "channel": 2,
      "note": 68,
      "start": 47.8427,
      "duration": 0.4299,
      "velocity": 117,
      "chip": "ym2612"
    },
    {
      "channel": 0,
      "note": 53,
      "start": 47.9543,
      "duration": 0.1121,
      "velocity": 121,
      "chip": "ym2612"
    },
    {
      "channel": 1,
      "note": 51,
      "start": 47.9546,
      "duration": 0.0556,
      "velocity": 99,
      "chip": "ym2612"
    },
    {
      "channel": 0,
      "note": 43,
      "start": 48.0684,
      "duration": 0.1852,
      "velocity": 127,
      "chip": "ym2612"
    },
    {
      "channel": 1,
      "note": 52,
      "start": 48.0687,
      "duration": 0.1663,
      "velocity": 99,
      "chip": "ym2612"
    },
    {
      "channel": 0,
      "note": 53,
      "start": 48.2933,
      "duration": 0.1101,
      "velocity": 121,
      "chip": "ym2612"
    },
    {
      "channel": 1,
      "note": 53,
      "start": 48.2936,
      "duration": 0.166,
      "velocity": 99,
      "chip": "ym2612"
    },
    {
      "channel": 2,
      "note": 72,
      "start": 48.294,
      "duration": 0.4281,
      "velocity": 117,
      "chip": "ym2612"
    },
    {
      "channel": 0,
      "note": 53,
      "start": 48.4037,
      "duration": 0.112,
      "velocity": 121,
      "chip": "ym2612"
    },
    {
      "channel": 0,
      "note": 43,
      "start": 48.5177,
      "duration": 0.0729,
      "velocity": 127,
      "chip": "ym2612"
    },
    {
      "channel": 1,
      "note": 60,
      "start": 48.518,
      "duration": 0.1663,
      "velocity": 99,
      "chip": "ym2612"
    },
    {
      "channel": 3,
      "note": 52,
      "start": 48.5183,
      "duration": 1.7761,
      "velocity": 89,
      "chip": "ym2612"
    },
    {
      "channel": 4,
      "note": 60,
      "start": 48.5187,
      "duration": 1.7758,
      "velocity": 89,
      "chip": "ym2612"
    },
    {
      "channel": 5,
      "note": 55,
      "start": 48.519,
      "duration": 1.7756,
      "velocity": 89,
      "chip": "ym2612"
    },
    {
      "channel": 0,
      "note": 43,
      "start": 48.6283,
      "duration": 0.0746,
      "velocity": 127,
      "chip": "ym2612"
    },
    {
      "channel": 0,
      "note": 43,
      "start": 48.7406,
      "duration": 0.0746,
      "velocity": 127,
      "chip": "ym2612"
    },
    {
      "channel": 1,
      "note": 60,
      "start": 48.7409,
      "duration": 0.168,
      "velocity": 99,
      "chip": "ym2612"
    },
    {
      "channel": 2,
      "note": 70,
      "start": 48.7413,
      "duration": 0.2052,
      "velocity": 117,
      "chip": "ym2612"
    },
    {
      "channel": 0,
      "note": 43,
      "start": 48.8529,
      "duration": 0.0746,
      "velocity": 127,
      "chip": "ym2612"
    },
    {
      "channel": 0,
      "note": 43,
      "start": 48.9652,
      "duration": 0.2993,
      "velocity": 127,
      "chip": "ym2612"
    },
    {
      "channel": 1,
      "note": 60,
      "start": 48.9655,
      "duration": 0.2803,
      "velocity": 99,
      "chip": "ym2612"
    },
    {
      "channel": 2,
      "note": 72,
      "start": 48.9659,
      "duration": 0.2051,
      "velocity": 117,
      "chip": "ym2612"
    },
    {
      "channel": 2,
      "note": 70,
      "start": 49.19,
      "duration": 1.1043,
      "velocity": 117,
      "chip": "ym2612"
    },
    {
      "channel": 0,
      "note": 43,
      "start": 49.3023,
      "duration": 0.0745,
      "velocity": 127,
      "chip": "ym2612"
    },
    {
      "channel": 1,
      "note": 60,
      "start": 49.3026,
      "duration": 0.168,
      "velocity": 99,
      "chip": "ym2612"
    },
    {
      "channel": 0,
      "note": 43,
      "start": 49.4145,
      "duration": 0.0746,
      "velocity": 127,
      "chip": "ym2612"
    },
    {
      "channel": 0,
      "note": 43,
      "start": 49.5268,
      "duration": 0.0746,
      "velocity": 127,
      "chip": "ym2612"
    },
    {
      "channel": 1,
      "note": 60,
      "start": 49.5271,
      "duration": 0.0557,
      "velocity": 99,
      "chip": "ym2612"
    },
    {
      "channel": 0,
      "note": 43,
      "start": 49.6392,
      "duration": 0.0746,
      "velocity": 127,
      "chip": "ym2612"
    },
    {
      "channel": 1,
      "note": 60,
      "start": 49.6395,
      "duration": 0.0557,
      "velocity": 99,
      "chip": "ym2612"
    },
    {
      "channel": 0,
      "note": 43,
      "start": 49.7515,
      "duration": 0.0746,
      "velocity": 127,
      "chip": "ym2612"
    },
    {
      "channel": 1,
      "note": 60,
      "start": 49.752,
      "duration": 0.0555,
      "velocity": 99,
      "chip": "ym2612"
    },
    {
      "channel": 0,
      "note": 63,
      "start": 49.8655,
      "duration": 0.0916,
      "velocity": 112,
      "chip": "ym2612"
    },
    {
      "channel": 1,
      "note": 72,
      "start": 49.8658,
      "duration": 0.1663,
      "velocity": 99,
      "chip": "ym2612"
    },
    {
      "channel": 0,
      "note": 59,
      "start": 49.9761,
      "duration": 0.0934,
      "velocity": 112,
      "chip": "ym2612"
    },
    {
      "channel": 0,
      "note": 56,
      "start": 50.0884,
      "duration": 0.0936,
      "velocity": 112,
      "chip": "ym2612"
    },
    {
      "channel": 1,
      "note": 60,
      "start": 50.0887,
      "duration": 0.1681,
      "velocity": 99,
      "chip": "ym2612"
    },
    {
      "channel": 0,
      "note": 52,
      "start": 50.2007,
      "duration": 0.0934,
      "velocity": 112,
      "chip": "ym2612"
    },
    {
      "channel": 0,
      "note": 41,
      "start": 50.3149,
      "duration": 0.1103,
      "velocity": 127,
      "chip": "ym2612"
    },
    {
      "channel": 1,
      "note": 75,
      "start": 50.3169,
      "duration": 0.1083,
      "velocity": 88,
      "chip": "ym2612"
    },
    {
      "channel": 2,
      "note": 77,
      "start": 50.3189,
      "duration": 0.1062,
      "velocity": 88,
      "chip": "ym2612"
    },
    {
      "channel": 4,
      "note": 89,
      "start": 50.3211,
      "duration": 0.0108,
      "velocity": 97,
      "chip": "ym2612"
    },
    {
      "channel": 5,
      "note": 53,
      "start": 50.3235,
      "duration": 0.1017,
      "velocity": 47,
      "chip": "ym2612"
    }
  ]
}