{
  "track_name": "15 - Tragedy",
  "duration_sec": 20.396,
  "sample_rate": 44100,
  "note_count": 119,
  "unique_pitches": 12,
  "pitch_range": 36,
  "avg_note_duration": 1.0459,
  "reconstruction_stats": {
    "notes_reconstructed": 119,
    "keyon_events": 119,
    "keyoff_events": 111,
    "orphan_keyons": 6,
    "unique_pitches": 12,
    "pitch_range": 36,
    "avg_duration_sec": 1.0459
  },
  "metadata": {
    "source": "F\\Fushigi no Umi no Nadia\\15 - Tragedy.vgz"
  },
  "notes": [
    {
      "channel": 0,
      "note": 54,
      "start": 0.0,
      "duration": 19.1971,
      "velocity": 106,
      "chip": "ym2612"
    },
    {
      "channel": 3,
      "note": -1,
      "start": 0.0,
      "duration": 0.0,
      "velocity": 1,
      "chip": "ym2612"
    },
    {
      "channel": 3,
      "note": -1,
      "start": 0.0,
      "duration": 0.0106,
      "velocity": 89,
      "chip": "ym2612"
    },
    {
      "channel": 4,
      "note": -1,
      "start": 0.0,
      "duration": 0.0,
      "velocity": 1,
      "chip": "ym2612"
    },
    {
      "channel": 4,
      "note": -1,
      "start": 0.0,
      "duration": 0.2002,
      "velocity": 89,
      "chip": "ym2612"
    },
    {
      "channel": 5,
      "note": -1,
      "start": 0.0,
      "duration": 20.3965,
      "velocity": 127,
      "chip": "ym2612"
    },
    {
      "channel": 1,
      "note": 61,
      "start": 0.0035,
      "duration": 4.7936,
      "velocity": 106,
      "chip": "ym2612"
    },
    {
      "channel": 2,
      "note": 80,
      "start": 0.0071,
      "duration": 0.39,
      "velocity": 89,
      "chip": "ym2612"
    },
    {
      "channel": 3,
      "note": 85,
      "start": 0.0106,
      "duration": 4.7877,
      "velocity": 89,
      "chip": "ym2612"
    },
    {
      "channel": 4,
      "note": 80,
      "start": 0.2002,
      "duration": 0.3969,
      "velocity": 89,
      "chip": "ym2612"
    },
    {
      "channel": 2,
      "note": 81,
      "start": 0.3971,
      "duration": 0.3999,
      "velocity": 89,
      "chip": "ym2612"
    },
    {
      "channel": 4,
      "note": 81,
      "start": 0.5973,
      "duration": 0.3999,
      "velocity": 89,
      "chip": "ym2612"
    },
    {
      "channel": 2,
      "note": 83,
      "start": 0.7971,
      "duration": 0.4,
      "velocity": 89,
      "chip": "ym2612"
    },
    {
      "channel": 4,
      "note": 83,
      "start": 0.9973,
      "duration": 0.3999,
      "velocity": 89,
      "chip": "ym2612"
    },
    {
      "channel": 2,
      "note": 80,
      "start": 1.1971,
      "duration": 0.4,
      "velocity": 89,
      "chip": "ym2612"
    },
    {
      "channel": 4,
      "note": 80,
      "start": 1.3973,
      "duration": 0.3999,
      "velocity": 89,
      "chip": "ym2612"
    },
    {
      "channel": 2,
      "note": 81,
      "start": 1.5971,
      "duration": 0.4,
      "velocity": 89,
      "chip": "ym2612"
    },
    {
      "channel": 4,
      "note": 81,
      "start": 1.7973,
      "duration": 0.3999,
      "velocity": 89,
      "chip": "ym2612"
    },
    {
      "channel": 2,
      "note": 78,
      "start": 1.9971,
      "duration": 0.4,
      "velocity": 89,
      "chip": "ym2612"
    },
    {
      "channel": 4,
      "note": 78,
      "start": 2.1973,
      "duration": 0.3999,
      "velocity": 89,
      "chip": "ym2612"
    },
    {
      "channel": 2,
      "note": 80,
      "start": 2.3971,
      "duration": 0.4001,
      "velocity": 89,
      "chip": "ym2612"
    },
    {
      "channel": 4,
      "note": 80,
      "start": 2.5973,
      "duration": 0.3999,
      "velocity": 89,
      "chip": "ym2612"
    },
    {
      "channel": 2,
      "note": 81,
      "start": 2.7971,
      "duration": 0.3999,
      "velocity": 89,
      "chip": "ym2612"
    },
    {
      "channel": 4,
      "note": 81,
      "start": 2.9973,
      "duration": 0.3999,
      "velocity": 89,
      "chip": "ym2612"
    },
    {
      "channel": 2,
      "note": 83,
      "start": 3.1971,
      "duration": 0.4,
      "velocity": 89,
      "chip": "ym2612"
    },
    {
      "channel": 4,
      "note": 83,
      "start": 3.3973,
      "duration": 0.3999,
      "velocity": 89,
      "chip": "ym2612"
    },
    {
      "channel": 2,
      "note": 80,
      "start": 3.5971,
      "duration": 0.4,
      "velocity": 89,
      "chip": "ym2612"
    },
    {
      "channel": 4,
      "note": 80,
      "start": 3.7973,
      "duration": 0.3999,
      "velocity": 89,
      "chip": "ym2612"
    },
    {
      "channel": 2,
      "note": 81,
      "start": 3.9971,
      "duration": 0.4,
      "velocity": 89,
      "chip": "ym2612"
    },
    {
      "channel": 4,
      "note": 81,
      "start": 4.1973,
      "duration": 0.3999,
      "velocity": 89,
      "chip": "ym2612"
    },
    {
      "channel": 2,
      "note": 78,
      "start": 4.3971,
      "duration": 0.4007,
      "velocity": 89,
      "chip": "ym2612"
    },
    {
      "channel": 4,
      "note": 78,
      "start": 4.5973,
      "duration": 0.3999,
      "velocity": 89,
      "chip": "ym2612"
    },
    {
      "channel": 1,
      "note": 74,
      "start": 4.7971,
      "duration": 4.8,
      "velocity": 106,
      "chip": "ym2612"
    },
    {
      "channel": 2,
      "note": 81,
      "start": 4.7978,
      "duration": 0.3993,
      "velocity": 89,
      "chip": "ym2612"
    },
    {
      "channel": 3,
      "note": 86,
      "start": 4.7984,
      "duration": 4.7999,
      "velocity": 89,
      "chip": "ym2612"
    },
    {
      "channel": 4,
      "note": 81,
      "start": 4.9973,
      "duration": 0.3999,
      "velocity": 89,
      "chip": "ym2612"
    },
    {
      "channel": 2,
      "note": 83,
      "start": 5.1971,
      "duration": 0.4,
      "velocity": 89,
      "chip": "ym2612"
    },
    {
      "channel": 4,
      "note": 83,
      "start": 5.3973,
      "duration": 0.3999,
      "velocity": 89,
      "chip": "ym2612"
    },
    {
      "channel": 2,
      "note": 85,
      "start": 5.5971,
      "duration": 0.4,
      "velocity": 89,
      "chip": "ym2612"
    },
    {
      "channel": 4,
      "note": 85,
      "start": 5.7973,
      "duration": 0.3999,
      "velocity": 89,
      "chip": "ym2612"
    },
    {
      "channel": 2,
      "note": 81,
      "start": 5.9971,
      "duration": 0.4,
      "velocity": 89,
      "chip": "ym2612"
    },
    {
      "channel": 4,
      "note": 81,
      "start": 6.1973,
      "duration": 0.3999,
      "velocity": 89,
      "chip": "ym2612"
    },
    {
      "channel": 2,
      "note": 83,
      "start": 6.3971,
      "duration": 0.4,
      "velocity": 89,
      "chip": "ym2612"
    },
    {
      "channel": 4,
      "note": 83,
      "start": 6.5973,
      "duration": 0.3999,
      "velocity": 89,
      "chip": "ym2612"
    },
    {
      "channel": 2,
      "note": 80,
      "start": 6.7971,
      "duration": 0.4001,
      "velocity": 89,
      "chip": "ym2612"
    },
    {
      "channel": 4,
      "note": 80,
      "start": 6.9973,
      "duration": 0.3999,
      "velocity": 89,
      "chip": "ym2612"
    },
    {
      "channel": 2,
      "note": 81,
      "start": 7.1971,
      "duration": 0.4,
      "velocity": 89,
      "chip": "ym2612"
    },
    {
      "channel": 4,
      "note": 81,
      "start": 7.3973,
      "duration": 0.3999,
      "velocity": 89,
      "chip": "ym2612"
    },
    {
      "channel": 2,
      "note": 83,
      "start": 7.5971,
      "duration": 0.3999,
      "velocity": 89,
      "chip": "ym2612"
    },
    {
      "channel": 4,
      "note": 83,
      "start": 7.7973,
      "duration": 0.3999,
      "velocity": 89,
      "chip": "ym2612"
    },
    {
      "channel": 2,
      "note": 85,
      "start": 7.9971,
      "duration": 0.4,
      "velocity": 89,
      "chip": "ym2612"
    },
    {
      "channel": 4,
      "note": 85,
      "start": 8.1973,
      "duration": 0.3999,
      "velocity": 89,
      "chip": "ym2612"
    },
    {
      "channel": 2,
      "note": 81,
      "start": 8.3971,
      "duration": 0.4,
      "velocity": 89,
      "chip": "ym2612"
    },
    {
      "channel": 4,
      "note": 81,
      "start": 8.5973,
      "duration": 0.3999,
      "velocity": 89,
      "chip": "ym2612"
    },
    {
      "channel": 2,
      "note": 83,
      "start": 8.7971,
      "duration": 0.4,
      "velocity": 89,
      "chip": "ym2612"
    },
    {
      "channel": 4,
      "note": 83,
      "start": 8.9973,
      "duration": 0.3999,
      "velocity": 89,
      "chip": "ym2612"
    },
    {
      "channel": 2,
      "note": 80,
      "start": 9.1971,
      "duration": 0.4007,
      "velocity": 89,
      "chip": "ym2612"
    },
    {
      "channel": 4,
      "note": 80,
      "start": 9.3973,
      "duration": 0.3999,
      "velocity": 89,
      "chip": "ym2612"
    },
    {
      "channel": 1,
      "note": 77,
      "start": 9.5971,
      "duration": 4.8,
      "velocity": 106,
      "chip": "ym2612"
    },
    {
      "channel": 2,
      "note": 83,
      "start": 9.5978,
      "duration": 0.3993,
      "velocity": 89,
      "chip": "ym2612"
    },
    {
      "channel": 3,
      "note": 89,
      "start": 9.5984,
      "duration": 4.7999,
      "velocity": 89,
      "chip": "ym2612"
    },
    {
      "channel": 4,
      "note": 83,
      "start": 9.7973,
      "duration": 0.3999,
      "velocity": 89,
      "chip": "ym2612"
    },
    {
      "channel": 2,
      "note": 85,
      "start": 9.9971,
      "duration": 0.4,
      "velocity": 89,
      "chip": "ym2612"
    },
    {
      "channel": 4,
      "note": 85,
      "start": 10.1973,
      "duration": 0.3999,
      "velocity": 89,
      "chip": "ym2612"
    },
    {
      "channel": 2,
      "note": 86,
      "start": 10.3971,
      "duration": 0.4,
      "velocity": 89,
      "chip": "ym2612"
    },
    {
      "channel": 4,
      "note": 86,
      "start": 10.5973,
      "duration": 0.3999,
      "velocity": 89,
      "chip": "ym2612"
    },
    {
      "channel": 2,
      "note": 83,
      "start": 10.7971,
      "duration": 0.4,
      "velocity": 89,
      "chip": "ym2612"
    },
    {
      "channel": 4,
      "note": 83,
      "start": 10.9973,
      "duration": 0.3999,
      "velocity": 89,
      "chip": "ym2612"
    },
    {
      "channel": 2,
      "note": 86,
      "start": 11.1971,
      "duration": 0.4,
      "velocity": 89,
      "chip": "ym2612"
    },
    {
      "channel": 4,
      "note": 86,
      "start": 11.3973,
      "duration": 0.3999,
      "velocity": 89,
      "chip": "ym2612"
    },
    {
      "channel": 2,
      "note": 80,
      "start": 11.5971,
      "duration": 0.4001,
      "velocity": 89,
      "chip": "ym2612"
    },
    {
      "channel": 4,
      "note": 80,
      "start": 11.7973,
      "duration": 0.3999,
      "velocity": 89,
      "chip": "ym2612"
    },
    {
      "channel": 2,
      "note": 83,
      "start": 11.9971,
      "duration": 0.4,
      "velocity": 89,
      "chip": "ym2612"
    },
    {
      "channel": 4,
      "note": 83,
      "start": 12.1973,
      "duration": 0.3999,
      "velocity": 89,
      "chip": "ym2612"
    },
    {
      "channel": 2,
      "note": 85,
      "start": 12.3971,
      "duration": 0.3999,
      "velocity": 89,
      "chip": "ym2612"
    },
    {
      "channel": 4,
      "note": 85,
      "start": 12.5973,
      "duration": 0.3999,
      "velocity": 89,
      "chip": "ym2612"
    },
    {
      "channel": 2,
      "note": 86,
      "start": 12.7971,
      "duration": 0.4,
      "velocity": 89,
      "chip": "ym2612"
    },
    {
      "channel": 4,
      "note": 86,
      "start": 12.9973,
      "duration": 0.3999,
      "velocity": 89,
      "chip": "ym2612"
    },
    {
      "channel": 2,
      "note": 83,
      "start": 13.1971,
      "duration": 0.4,
      "velocity": 89,
      "chip": "ym2612"
    },
    {
      "channel": 4,
      "note": 83,
      "start": 13.3973,
      "duration": 0.3999,
      "velocity": 89,
      "chip": "ym2612"
    },
    {
      "channel": 2,
      "note": 86,
      "start": 13.5971,
      "duration": 0.4,
      "velocity": 89,
      "chip": "ym2612"
    },
    {
      "channel": 4,
      "note": 86,
      "start": 13.7973,
      "duration": 0.3999,
      "velocity": 89,
      "chip": "ym2612"
    },
    {
      "channel": 2,
      "note": 80,
      "start": 13.9971,
      "duration": 0.4007,
      "velocity": 89,
      "chip": "ym2612"
    },
    {
      "channel": 4,
      "note": 80,
      "start": 14.1973,
      "duration": 0.3999,
      "velocity": 89,
      "chip": "ym2612"
    },
    {
      "channel": 1,
      "note": 78,
      "start": 14.3971,
      "duration": 4.8006,
      "velocity": 106,
      "chip": "ym2612"
    },
    {
      "channel": 2,
      "note": 81,
      "start": 14.3978,
      "duration": 0.3993,
      "velocity": 89,
      "chip": "ym2612"
    },
    {
      "channel": 3,
      "note": 90,
      "start": 14.3984,
      "duration": 4.8005,
      "velocity": 89,
      "chip": "ym2612"
    },
    {
      "channel": 4,
      "note": 81,
      "start": 14.5973,
      "duration": 0.3999,
      "velocity": 89,
      "chip": "ym2612"
    },
    {
      "channel": 2,
      "note": 83,
      "start": 14.7971,
      "duration": 0.4,
      "velocity": 89,
      "chip": "ym2612"
    },
    {
      "channel": 4,
      "note": 83,
      "start": 14.9973,
      "duration": 0.3999,
      "velocity": 89,
      "chip": "ym2612"
    },
    {
      "channel": 2,
      "note": 85,
      "start": 15.1971,
      "duration": 0.4,
      "velocity": 89,
      "chip": "ym2612"
    },
    {
      "channel": 4,
      "note": 85,
      "start": 15.3973,
      "duration": 0.3999,
      "velocity": 89,
      "chip": "ym2612"
    },
    {
      "channel": 2,
      "note": 78,
      "start": 15.5971,
      "duration": 0.4,
      "velocity": 89,
      "chip": "ym2612"
    },
    {
      "channel": 4,
      "note": 78,
      "start": 15.7973,
      "duration": 0.3999,
      "velocity": 89,
      "chip": "ym2612"
    },
    {
      "channel": 2,
      "note": 85,
      "start": 15.9971,
      "duration": 0.4,
      "velocity": 89,
      "chip": "ym2612"
    },
    {
      "channel": 4,
      "note": 85,
      "start": 16.1973,
      "duration": 0.3999,
      "velocity": 89,
      "chip": "ym2612"
    },
    {
      "channel": 2,
      "note": 86,
      "start": 16.3971,
      "duration": 0.4001,
      "velocity": 89,
      "chip": "ym2612"
    },
    {
      "channel": 4,
      "note": 86,
      "start": 16.5973,
      "duration": 0.3999,
      "velocity": 89,
      "chip": "ym2612"
    },
    {
      "channel": 2,
      "note": 81,
      "start": 16.7971,
      "duration": 0.4,
      "velocity": 89,
      "chip": "ym2612"
    },
    {
      "channel": 4,
      "note": 81,
      "start": 16.9973,
      "duration": 0.3999,
      "velocity": 89,
      "chip": "ym2612"
    },
    {
      "channel": 2,
      "note": 83,
      "start": 17.1971,
      "duration": 0.3999,
      "velocity": 89,
      "chip": "ym2612"
    },
    {
      "channel": 4,
      "note": 83,
      "start": 17.3973,
      "duration": 0.3999,
      "velocity": 89,
      "chip": "ym2612"
    },
    {
      "channel": 2,
      "note": 85,
      "start": 17.5971,
      "duration": 0.4,
      "velocity": 89,
      "chip": "ym2612"
    },
    {
      "channel": 4,
      "note": 85,
      "start": 17.7973,
      "duration": 0.3999,
      "velocity": 89,
      "chip": "ym2612"
    },
    {
      "channel": 2,
      "note": 78,
      "start": 17.9971,
      "duration": 0.4,
      "velocity": 89,
      "chip": "ym2612"
    },
    {
      "channel": 4,
      "note": 78,
      "start": 18.1973,
      "duration": 0.3999,
      "velocity": 89,
      "chip": "ym2612"
    },
    {
      "channel": 2,
      "note": 85,
      "start": 18.3971,
      "duration": 0.4,
      "velocity": 89,
      "chip": "ym2612"
    },
    {
      "channel": 4,
      "note": 85,
      "start": 18.5973,
      "duration": 0.3999,
      "velocity": 89,
      "chip": "ym2612"
    },
    {
      "channel": 2,
      "note": 86,
      "start": 18.7971,
      "duration": 0.4012,
      "velocity": 89,
      "chip": "ym2612"
    },
    {
      "channel": 4,
      "note": 86,
      "start": 18.9973,
      "duration": 0.4,
      "velocity": 89,
      "chip": "ym2612"
    },
    {
      "channel": 0,
      "note": 54,
      "start": 19.1971,
      "duration": 1.1994,
      "velocity": 106,
      "chip": "ym2612"
    },
    {
      "channel": 1,
      "note": 61,
      "start": 19.1977,
      "duration": 1.1988,
      "velocity": 106,
      "chip": "ym2612"
    },
    {
      "channel": 2,
      "note": 80,
      "start": 19.1983,
      "duration": 0.3987,
      "velocity": 89,
      "chip": "ym2612"
    },
    {
      "channel": 3,
      "note": 85,
      "start": 19.1989,
      "duration": 1.1976,
      "velocity": 89,
      "chip": "ym2612"
    },
    {
      "channel": 4,
      "note": 80,
      "start": 19.3973,
      "duration": 0.3999,
      "velocity": 89,
      "chip": "ym2612"
    },
    {
      "channel": 2,
      "note": 81,
      "start": 19.5971,
      "duration": 0.4,
      "velocity": 89,
      "chip": "ym2612"
    },
    {
      "channel": 4,
      "note": 81,
      "start": 19.7973,
      "duration": 0.3999,
      "velocity": 89,
      "chip": "ym2612"
    },
    {
      "channel": 2,
      "note": 83,
      "start": 19.9971,
      "duration": 0.3994,
      "velocity": 89,
      "chip": "ym2612"
    },
    {
      "channel": 4,
      "note": 83,
      "start": 20.1973,
      "duration": 0.1992,
      "velocity": 89,
      "chip": "ym2612"
    }
  ]
}