{
  "track_name": "15 - Track 16",
  "duration_sec": 67.791,
  "sample_rate": 44100,
  "note_count": 1292,
  "unique_pitches": 39,
  "pitch_range": 55,
  "avg_note_duration": 0.1149,
  "reconstruction_stats": {
    "notes_reconstructed": 1292,
    "keyon_events": 1292,
    "keyoff_events": 1288,
    "orphan_keyons": 0,
    "unique_pitches": 39,
    "pitch_range": 55,
    "avg_duration_sec": 0.1149
  },
  "metadata": {
    "source": "L\\Lord Monarch - Tokoton Sentou Densetsu\\15 - Track 16.vgz"
  },
  "notes": [
    {
      "channel": 2,
      "note": 54,
      "start": 0.0004,
      "duration": 0.0207,
      "velocity": 82,
      "chip": "ym2612"
    },
    {
      "channel": 2,
      "note": 59,
      "start": 0.0434,
      "duration": 0.0253,
      "velocity": 82,
      "chip": "ym2612"
    },
    {
      "channel": 3,
      "note": 45,
      "start": 0.0468,
      "duration": 0.0221,
      "velocity": 97,
      "chip": "ym2612"
    },
    {
      "channel": 0,
      "note": 59,
      "start": 0.0548,
      "duration": 0.0222,
      "velocity": 82,
      "chip": "ym2612"
    },
    {
      "channel": 1,
      "note": 62,
      "start": 0.0573,
      "duration": 0.02,
      "velocity": 97,
      "chip": "ym2612"
    },
    {
      "channel": 2,
      "note": 59,
      "start": 0.0907,
      "duration": 0.0186,
      "velocity": 82,
      "chip": "ym2612"
    },
    {
      "channel": 3,
      "note": 62,
      "start": 0.0937,
      "duration": 0.0159,
      "velocity": 97,
      "chip": "ym2612"
    },
    {
      "channel": 0,
      "note": 59,
      "start": 0.1011,
      "duration": 0.0134,
      "velocity": 82,
      "chip": "ym2612"
    },
    {
      "channel": 1,
      "note": 62,
      "start": 0.1035,
      "duration": 0.0112,
      "velocity": 97,
      "chip": "ym2612"
    },
    {
      "channel": 2,
      "note": 59,
      "start": 0.1328,
      "duration": 0.0118,
      "velocity": 82,
      "chip": "ym2612"
    },
    {
      "channel": 3,
      "note": 62,
      "start": 0.1334,
      "duration": 0.0114,
      "velocity": 97,
      "chip": "ym2612"
    },
    {
      "channel": 0,
      "note": 59,
      "start": 0.1384,
      "duration": 0.0153,
      "velocity": 82,
      "chip": "ym2612"
    },
    {
      "channel": 1,
      "note": 62,
      "start": 0.1389,
      "duration": 0.0151,
      "velocity": 97,
      "chip": "ym2612"
    },
    {
      "channel": 2,
      "note": 59,
      "start": 0.2681,
      "duration": 0.0756,
      "velocity": 82,
      "chip": "ym2612"
    },
    {
      "channel": 3,
      "note": 62,
      "start": 0.269,
      "duration": 0.0751,
      "velocity": 97,
      "chip": "ym2612"
    },
    {
      "channel": 0,
      "note": 59,
      "start": 0.3056,
      "duration": 0.0756,
      "velocity": 82,
      "chip": "ym2612"
    },
    {
      "channel": 1,
      "note": 62,
      "start": 0.3061,
      "duration": 0.0754,
      "velocity": 97,
      "chip": "ym2612"
    },
    {
      "channel": 2,
      "note": 59,
      "start": 0.4956,
      "duration": 0.0756,
      "velocity": 82,
      "chip": "ym2612"
    },
    {
      "channel": 3,
      "note": 62,
      "start": 0.4962,
      "duration": 0.0754,
      "velocity": 97,
      "chip": "ym2612"
    },
    {
      "channel": 0,
      "note": 59,
      "start": 0.5331,
      "duration": 0.0756,
      "velocity": 82,
      "chip": "ym2612"
    },
    {
      "channel": 1,
      "note": 62,
      "start": 0.5336,
      "duration": 0.0754,
      "velocity": 97,
      "chip": "ym2612"
    },
    {
      "channel": 2,
      "note": 59,
      "start": 0.7231,
      "duration": 0.0756,
      "velocity": 82,
      "chip": "ym2612"
    },
    {
      "channel": 3,
      "note": 62,
      "start": 0.7237,
      "duration": 0.0753,
      "velocity": 97,
      "chip": "ym2612"
    },
    {
      "channel": 0,
      "note": 59,
      "start": 0.7606,
      "duration": 0.0759,
      "velocity": 82,
      "chip": "ym2612"
    },
    {
      "channel": 1,
      "note": 62,
      "start": 0.7611,
      "duration": 0.0756,
      "velocity": 97,
      "chip": "ym2612"
    },
    {
      "channel": 4,
      "note": 82,
      "start": 0.8568,
      "duration": 0.0753,
      "velocity": 100,
      "chip": "ym2612"
    },
    {
      "channel": 2,
      "note": 59,
      "start": 0.9507,
      "duration": 0.0756,
      "velocity": 82,
      "chip": "ym2612"
    },
    {
      "channel": 3,
      "note": 62,
      "start": 0.9512,
      "duration": 0.0754,
      "velocity": 97,
      "chip": "ym2612"
    },
    {
      "channel": 4,
      "note": 95,
      "start": 0.9523,
      "duration": 0.0937,
      "velocity": 100,
      "chip": "ym2612"
    },
    {
      "channel": 0,
      "note": 59,
      "start": 0.9881,
      "duration": 0.0756,
      "velocity": 82,
      "chip": "ym2612"
    },
    {
      "channel": 1,
      "note": 62,
      "start": 0.9886,
      "duration": 0.0754,
      "velocity": 97,
      "chip": "ym2612"
    },
    {
      "channel": 4,
      "note": 97,
      "start": 1.0652,
      "duration": 0.0945,
      "velocity": 100,
      "chip": "ym2612"
    },
    {
      "channel": 2,
      "note": 59,
      "start": 1.1782,
      "duration": 0.0756,
      "velocity": 82,
      "chip": "ym2612"
    },
    {
      "channel": 3,
      "note": 62,
      "start": 1.1788,
      "duration": 0.0754,
      "velocity": 97,
      "chip": "ym2612"
    },
    {
      "channel": 4,
      "note": 98,
      "start": 1.1795,
      "duration": 0.094,
      "velocity": 100,
      "chip": "ym2612"
    },
    {
      "channel": 0,
      "note": 59,
      "start": 1.2157,
      "duration": 0.0756,
      "velocity": 82,
      "chip": "ym2612"
    },
    {
      "channel": 1,
      "note": 62,
      "start": 1.2162,
      "duration": 0.0754,
      "velocity": 97,
      "chip": "ym2612"
    },
    {
      "channel": 4,
      "note": 100,
      "start": 1.2928,
      "duration": 0.0946,
      "velocity": 100,
      "chip": "ym2612"
    },
    {
      "channel": 2,
      "note": 59,
      "start": 1.4057,
      "duration": 0.1141,
      "velocity": 82,
      "chip": "ym2612"
    },
    {
      "channel": 3,
      "note": 62,
      "start": 1.4087,
      "duration": 0.0729,
      "velocity": 97,
      "chip": "ym2612"
    },
    {
      "channel": 4,
      "note": 98,
      "start": 1.4095,
      "duration": 0.0915,
      "velocity": 100,
      "chip": "ym2612"
    },
    {
      "channel": 0,
      "note": 59,
      "start": 1.4432,
      "duration": 0.0946,
      "velocity": 82,
      "chip": "ym2612"
    },
    {
      "channel": 1,
      "note": 62,
      "start": 1.4454,
      "duration": 0.0742,
      "velocity": 97,
      "chip": "ym2612"
    },
    {
      "channel": 4,
      "note": 97,
      "start": 1.5207,
      "duration": 0.094,
      "velocity": 100,
      "chip": "ym2612"
    },
    {
      "channel": 2,
      "note": 59,
      "start": 1.6332,
      "duration": 0.0756,
      "velocity": 82,
      "chip": "ym2612"
    },
    {
      "channel": 3,
      "note": 62,
      "start": 1.6339,
      "duration": 0.0753,
      "velocity": 97,
      "chip": "ym2612"
    },
    {
      "channel": 4,
      "note": 98,
      "start": 1.6346,
      "duration": 0.0939,
      "velocity": 100,
      "chip": "ym2612"
    },
    {
      "channel": 0,
      "note": 59,
      "start": 1.6707,
      "duration": 0.0756,
      "velocity": 82,
      "chip": "ym2612"
    },
    {
      "channel": 1,
      "note": 62,
      "start": 1.6712,
      "duration": 0.0754,
      "velocity": 97,
      "chip": "ym2612"
    },
    {
      "channel": 4,
      "note": 97,
      "start": 1.7478,
      "duration": 0.1735,
      "velocity": 100,
      "chip": "ym2612"
    },
    {
      "channel": 2,
      "note": 59,
      "start": 1.8607,
      "duration": 0.076,
      "velocity": 82,
      "chip": "ym2612"
    },
    {
      "channel": 3,
      "note": 62,
      "start": 1.8613,
      "duration": 0.0756,
      "velocity": 97,
      "chip": "ym2612"
    },
    {
      "channel": 0,
      "note": 59,
      "start": 1.8982,
      "duration": 0.0756,
      "velocity": 82,
      "chip": "ym2612"
    },
    {
      "channel": 1,
      "note": 62,
      "start": 1.8988,
      "duration": 0.0754,
      "velocity": 97,
      "chip": "ym2612"
    },
    {
      "channel": 4,
      "note": 98,
      "start": 1.9213,
      "duration": 1.4188,
      "velocity": 100,
      "chip": "ym2612"
    },
    {
      "channel": 2,
      "note": 59,
      "start": 2.0883,
      "duration": 0.0756,
      "velocity": 82,
      "chip": "ym2612"
    },
    {
      "channel": 3,
      "note": 62,
      "start": 2.0889,
      "duration": 0.0753,
      "velocity": 97,
      "chip": "ym2612"
    },
    {
      "channel": 0,
      "note": 59,
      "start": 2.1257,
      "duration": 0.0757,
      "velocity": 82,
      "chip": "ym2612"
    },
    {
      "channel": 1,
      "note": 62,
      "start": 2.1262,
      "duration": 0.0754,
      "velocity": 97,
      "chip": "ym2612"
    },
    {
      "channel": 2,
      "note": 59,
      "start": 2.3158,
      "duration": 0.0756,
      "velocity": 82,
      "chip": "ym2612"
    },
    {
      "channel": 3,
      "note": 62,
      "start": 2.3191,
      "duration": 0.0727,
      "velocity": 97,
      "chip": "ym2612"
    },
    {
      "channel": 0,
      "note": 59,
      "start": 2.3534,
      "duration": 0.0754,
      "velocity": 82,
      "chip": "ym2612"
    },
    {
      "channel": 1,
      "note": 62,
      "start": 2.3557,
      "duration": 0.0735,
      "velocity": 97,
      "chip": "ym2612"
    },
    {
      "channel": 2,
      "note": 59,
      "start": 2.5433,
      "duration": 0.076,
      "velocity": 82,
      "chip": "ym2612"
    },
    {
      "channel": 3,
      "note": 62,
      "start": 2.5439,
      "duration": 0.0758,
      "velocity": 97,
      "chip": "ym2612"
    },
    {
      "channel": 0,
      "note": 59,
      "start": 2.5808,
      "duration": 0.0756,
      "velocity": 82,
      "chip": "ym2612"
    },
    {
      "channel": 1,
      "note": 62,
      "start": 2.5813,
      "duration": 0.0754,
      "velocity": 97,
      "chip": "ym2612"
    },
    {
      "channel": 2,
      "note": 59,
      "start": 2.7708,
      "duration": 0.0756,
      "velocity": 82,
      "chip": "ym2612"
    },
    {
      "channel": 3,
      "note": 62,
      "start": 2.7714,
      "duration": 0.0754,
      "velocity": 97,
      "chip": "ym2612"
    },
    {
      "channel": 0,
      "note": 59,
      "start": 2.8083,
      "duration": 0.0757,
      "velocity": 82,
      "chip": "ym2612"
    },
    {
      "channel": 1,
      "note": 62,
      "start": 2.8088,
      "duration": 0.0754,
      "velocity": 97,
      "chip": "ym2612"
    },
    {
      "channel": 2,
      "note": 59,
      "start": 2.9984,
      "duration": 0.0756,
      "velocity": 82,
      "chip": "ym2612"
    },
    {
      "channel": 3,
      "note": 62,
      "start": 2.9989,
      "duration": 0.0754,
      "velocity": 97,
      "chip": "ym2612"
    },
    {
      "channel": 0,
      "note": 59,
      "start": 3.036,
      "duration": 0.0755,
      "velocity": 82,
      "chip": "ym2612"
    },
    {
      "channel": 1,
      "note": 62,
      "start": 3.0367,
      "duration": 0.075,
      "velocity": 97,
      "chip": "ym2612"
    },
    {
      "channel": 2,
      "note": 59,
      "start": 3.2278,
      "duration": 0.1116,
      "velocity": 82,
      "chip": "ym2612"
    },
    {
      "channel": 3,
      "note": 62,
      "start": 3.231,
      "duration": 0.1087,
      "velocity": 97,
      "chip": "ym2612"
    },
    {
      "channel": 0,
      "note": 59,
      "start": 3.2652,
      "duration": 0.1117,
      "velocity": 82,
      "chip": "ym2612"
    },
    {
      "channel": 1,
      "note": 62,
      "start": 3.2676,
      "duration": 0.1096,
      "velocity": 97,
      "chip": "ym2612"
    },
    {
      "channel": 2,
      "note": 59,
      "start": 3.4553,
      "duration": 0.0737,
      "velocity": 82,
      "chip": "ym2612"
    },
    {
      "channel": 3,
      "note": 62,
      "start": 3.4583,
      "duration": 0.0711,
      "velocity": 97,
      "chip": "ym2612"
    },
    {
      "channel": 0,
      "note": 59,
      "start": 3.4925,
      "duration": 0.074,
      "velocity": 82,
      "chip": "ym2612"
    },
    {
      "channel": 1,
      "note": 62,
      "start": 3.4947,
      "duration": 0.0721,
      "velocity": 97,
      "chip": "ym2612"
    },
    {
      "channel": 2,
      "note": 59,
      "start": 3.6809,
      "duration": 0.0757,
      "velocity": 82,
      "chip": "ym2612"
    },
    {
      "channel": 3,
      "note": 62,
      "start": 3.6815,
      "duration": 0.0754,
      "velocity": 97,
      "chip": "ym2612"
    },
    {
      "channel": 0,
      "note": 59,
      "start": 3.7184,
      "duration": 0.0756,
      "velocity": 82,
      "chip": "ym2612"
    },
    {
      "channel": 1,
      "note": 62,
      "start": 3.7192,
      "duration": 0.0751,
      "velocity": 97,
      "chip": "ym2612"
    },
    {
      "channel": 2,
      "note": 59,
      "start": 3.9085,
      "duration": 0.0756,
      "velocity": 82,
      "chip": "ym2612"
    },
    {
      "channel": 3,
      "note": 62,
      "start": 3.909,
      "duration": 0.0753,
      "velocity": 97,
      "chip": "ym2612"
    },
    {
      "channel": 0,
      "note": 59,
      "start": 3.9459,
      "duration": 0.0756,
      "velocity": 82,
      "chip": "ym2612"
    },
    {
      "channel": 1,
      "note": 62,
      "start": 3.9465,
      "duration": 0.0754,
      "velocity": 97,
      "chip": "ym2612"
    },
    {
      "channel": 2,
      "note": 59,
      "start": 4.1365,
      "duration": 0.0751,
      "velocity": 82,
      "chip": "ym2612"
    },
    {
      "channel": 3,
      "note": 62,
      "start": 4.137,
      "duration": 0.0749,
      "velocity": 97,
      "chip": "ym2612"
    },
    {
      "channel": 0,
      "note": 59,
      "start": 4.1735,
      "duration": 0.0756,
      "velocity": 82,
      "chip": "ym2612"
    },
    {
      "channel": 1,
      "note": 62,
      "start": 4.1739,
      "duration": 0.0754,
      "velocity": 97,
      "chip": "ym2612"
    },
    {
      "channel": 2,
      "note": 59,
      "start": 4.3635,
      "duration": 0.0756,
      "velocity": 82,
      "chip": "ym2612"
    },
    {
      "channel": 3,
      "note": 62,
      "start": 4.3641,
      "duration": 0.0753,
      "velocity": 97,
      "chip": "ym2612"
    },
    {
      "channel": 0,
      "note": 59,
      "start": 4.401,
      "duration": 0.0756,
      "velocity": 82,
      "chip": "ym2612"
    },
    {
      "channel": 1,
      "note": 62,
      "start": 4.4015,
      "duration": 0.0754,
      "velocity": 97,
      "chip": "ym2612"
    },
    {
      "channel": 4,
      "note": 98,
      "start": 4.4972,
      "duration": 0.0753,
      "velocity": 100,
      "chip": "ym2612"
    },
    {
      "channel": 2,
      "note": 59,
      "start": 4.591,
      "duration": 0.0756,
      "velocity": 82,
      "chip": "ym2612"
    },
    {
      "channel": 3,
      "note": 62,
      "start": 4.5916,
      "duration": 0.0753,
      "velocity": 97,
      "chip": "ym2612"
    },
    {
      "channel": 4,
      "note": 95,
      "start": 4.5924,
      "duration": 0.0945,
      "velocity": 100,
      "chip": "ym2612"
    },
    {
      "channel": 0,
      "note": 59,
      "start": 4.6285,
      "duration": 0.0757,
      "velocity": 82,
      "chip": "ym2612"
    },
    {
      "channel": 1,
      "note": 62,
      "start": 4.629,
      "duration": 0.0754,
      "velocity": 97,
      "chip": "ym2612"
    },
    {
      "channel": 4,
      "note": 97,
      "start": 4.7056,
      "duration": 0.0945,
      "velocity": 100,
      "chip": "ym2612"
    },
    {
      "channel": 2,
      "note": 59,
      "start": 4.8188,
      "duration": 0.0754,
      "velocity": 82,
      "chip": "ym2612"
    },
    {
      "channel": 3,
      "note": 62,
      "start": 4.8196,
      "duration": 0.0749,
      "velocity": 97,
      "chip": "ym2612"
    },
    {
      "channel": 4,
      "note": 98,
      "start": 4.8204,
      "duration": 0.0936,
      "velocity": 100,
      "chip": "ym2612"
    },
    {
      "channel": 0,
      "note": 59,
      "start": 4.856,
      "duration": 0.0756,
      "velocity": 82,
      "chip": "ym2612"
    },
    {
      "channel": 1,
      "note": 62,
      "start": 4.8565,
      "duration": 0.0754,
      "velocity": 97,
      "chip": "ym2612"
    },
    {
      "channel": 4,
      "note": 100,
      "start": 4.9331,
      "duration": 0.0944,
      "velocity": 100,
      "chip": "ym2612"
    },
    {
      "channel": 2,
      "note": 59,
      "start": 5.0461,
      "duration": 0.1135,
      "velocity": 82,
      "chip": "ym2612"
    },
    {
      "channel": 3,
      "note": 62,
      "start": 5.0491,
      "duration": 0.0729,
      "velocity": 97,
      "chip": "ym2612"
    },
    {
      "channel": 4,
      "note": 98,
      "start": 5.0499,
      "duration": 0.0914,
      "velocity": 100,
      "chip": "ym2612"
    },
    {
      "channel": 0,
      "note": 59,
      "start": 5.0835,
      "duration": 0.0946,
      "velocity": 82,
      "chip": "ym2612"
    },
    {
      "channel": 1,
      "note": 62,
      "start": 5.086,
      "duration": 0.0733,
      "velocity": 97,
      "chip": "ym2612"
    },
    {
      "channel": 4,
      "note": 97,
      "start": 5.1606,
      "duration": 0.0945,
      "velocity": 100,
      "chip": "ym2612"
    },
    {
      "channel": 2,
      "note": 59,
      "start": 5.2736,
      "duration": 0.0756,
      "velocity": 82,
      "chip": "ym2612"
    },
    {
      "channel": 3,
      "note": 62,
      "start": 5.2742,
      "duration": 0.0753,
      "velocity": 97,
      "chip": "ym2612"
    },
    {
      "channel": 4,
      "note": 98,
      "start": 5.2749,
      "duration": 0.0943,
      "velocity": 100,
      "chip": "ym2612"
    },
    {
      "channel": 0,
      "note": 59,
      "start": 5.3111,
      "duration": 0.0756,
      "velocity": 82,
      "chip": "ym2612"
    },
    {
      "channel": 1,
      "note": 62,
      "start": 5.3116,
      "duration": 0.0753,
      "velocity": 97,
      "chip": "ym2612"
    },
    {
      "channel": 4,
      "note": 97,
      "start": 5.3882,
      "duration": 0.173,
      "velocity": 100,
      "chip": "ym2612"
    },
    {
      "channel": 2,
      "note": 59,
      "start": 5.5011,
      "duration": 0.0756,
      "velocity": 82,
      "chip": "ym2612"
    },
    {
      "channel": 3,
      "note": 62,
      "start": 5.5017,
      "duration": 0.0753,
      "velocity": 97,
      "chip": "ym2612"
    },
    {
      "channel": 0,
      "note": 59,
      "start": 5.5386,
      "duration": 0.0756,
      "velocity": 82,
      "chip": "ym2612"
    },
    {
      "channel": 1,
      "note": 62,
      "start": 5.5391,
      "duration": 0.0754,
      "velocity": 97,
      "chip": "ym2612"
    },
    {
      "channel": 4,
      "note": 98,
      "start": 5.5612,
      "duration": 1.4192,
      "velocity": 100,
      "chip": "ym2612"
    },
    {
      "channel": 2,
      "note": 59,
      "start": 5.7286,
      "duration": 0.0756,
      "velocity": 82,
      "chip": "ym2612"
    },
    {
      "channel": 3,
      "note": 62,
      "start": 5.7292,
      "duration": 0.0753,
      "velocity": 97,
      "chip": "ym2612"
    },
    {
      "channel": 0,
      "note": 59,
      "start": 5.7661,
      "duration": 0.0756,
      "velocity": 82,
      "chip": "ym2612"
    },
    {
      "channel": 1,
      "note": 62,
      "start": 5.7666,
      "duration": 0.0754,
      "velocity": 97,
      "chip": "ym2612"
    },
    {
      "channel": 2,
      "note": 59,
      "start": 5.9561,
      "duration": 0.0756,
      "velocity": 82,
      "chip": "ym2612"
    },
    {
      "channel": 3,
      "note": 62,
      "start": 5.9592,
      "duration": 0.0729,
      "velocity": 97,
      "chip": "ym2612"
    },
    {
      "channel": 0,
      "note": 59,
      "start": 5.9937,
      "duration": 0.0756,
      "velocity": 82,
      "chip": "ym2612"
    },
    {
      "channel": 1,
      "note": 62,
      "start": 5.9958,
      "duration": 0.0739,
      "velocity": 97,
      "chip": "ym2612"
    },
    {
      "channel": 2,
      "note": 59,
      "start": 6.1837,
      "duration": 0.0756,
      "velocity": 82,
      "chip": "ym2612"
    },
    {
      "channel": 3,
      "note": 62,
      "start": 6.1842,
      "duration": 0.0754,
      "velocity": 97,
      "chip": "ym2612"
    },
    {
      "channel": 0,
      "note": 59,
      "start": 6.2211,
      "duration": 0.0756,
      "velocity": 82,
      "chip": "ym2612"
    },
    {
      "channel": 1,
      "note": 62,
      "start": 6.2217,
      "duration": 0.0754,
      "velocity": 97,
      "chip": "ym2612"
    },
    {
      "channel": 2,
      "note": 59,
      "start": 6.4112,
      "duration": 0.0759,
      "velocity": 82,
      "chip": "ym2612"
    },
    {
      "channel": 3,
      "note": 62,
      "start": 6.4118,
      "duration": 0.0756,
      "velocity": 97,
      "chip": "ym2612"
    },
    {
      "channel": 0,
      "note": 59,
      "start": 6.4487,
      "duration": 0.0756,
      "velocity": 82,
      "chip": "ym2612"
    },
    {
      "channel": 1,
      "note": 62,
      "start": 6.4492,
      "duration": 0.0754,
      "velocity": 97,
      "chip": "ym2612"
    },
    {
      "channel": 2,
      "note": 59,
      "start": 6.6387,
      "duration": 0.0756,
      "velocity": 82,
      "chip": "ym2612"
    },
    {
      "channel": 3,
      "note": 62,
      "start": 6.6393,
      "duration": 0.0753,
      "velocity": 97,
      "chip": "ym2612"
    },
    {
      "channel": 0,
      "note": 59,
      "start": 6.6762,
      "duration": 0.0759,
      "velocity": 82,
      "chip": "ym2612"
    },
    {
      "channel": 1,
      "note": 62,
      "start": 6.6767,
      "duration": 0.0757,
      "velocity": 97,
      "chip": "ym2612"
    },
    {
      "channel": 2,
      "note": 59,
      "start": 6.8681,
      "duration": 0.1117,
      "velocity": 82,
      "chip": "ym2612"
    },
    {
      "channel": 3,
      "note": 62,
      "start": 6.8693,
      "duration": 0.1108,
      "velocity": 97,
      "chip": "ym2612"
    },
    {
      "channel": 0,
      "note": 59,
      "start": 6.9038,
      "duration": 0.1134,
      "velocity": 82,
      "chip": "ym2612"
    },
    {
      "channel": 1,
      "note": 62,
      "start": 6.9046,
      "duration": 0.1129,
      "velocity": 97,
      "chip": "ym2612"
    },
    {
      "channel": 2,
      "note": 59,
      "start": 7.0954,
      "duration": 0.0744,
      "velocity": 82,
      "chip": "ym2612"
    },
    {
      "channel": 3,
      "note": 62,
      "start": 7.0984,
      "duration": 0.0717,
      "velocity": 97,
      "chip": "ym2612"
    },
    {
      "channel": 0,
      "note": 59,
      "start": 7.1312,
      "duration": 0.0757,
      "velocity": 82,
      "chip": "ym2612"
    },
    {
      "channel": 1,
      "note": 62,
      "start": 7.1334,
      "duration": 0.0737,
      "velocity": 97,
      "chip": "ym2612"
    },
    {
      "channel": 0,
      "note": 90,
      "start": 7.3227,
      "duration": 0.434,
      "velocity": 99,
      "chip": "ym2612"
    },
    {
      "channel": 2,
      "note": 59,
      "start": 7.3234,
      "duration": 0.0735,
      "velocity": 82,
      "chip": "ym2612"
    },
    {
      "channel": 3,
      "note": 62,
      "start": 7.324,
      "duration": 0.0732,
      "velocity": 97,
      "chip": "ym2612"
    },
    {
      "channel": 1,
      "note": 62,
      "start": 7.359,
      "duration": 0.0756,
      "velocity": 97,
      "chip": "ym2612"
    },
    {
      "channel": 4,
      "note": 98,
      "start": 7.42,
      "duration": 0.4331,
      "velocity": 99,
      "chip": "ym2612"
    },
    {
      "channel": 2,
      "note": 59,
      "start": 7.5488,
      "duration": 0.0757,
      "velocity": 82,
      "chip": "ym2612"
    },
    {
      "channel": 3,
      "note": 62,
      "start": 7.5494,
      "duration": 0.0753,
      "velocity": 97,
      "chip": "ym2612"
    },
    {
      "channel": 1,
      "note": 62,
      "start": 7.5867,
      "duration": 0.0754,
      "velocity": 97,
      "chip": "ym2612"
    },
    {
      "channel": 0,
      "note": 89,
      "start": 7.7759,
      "duration": 0.4359,
      "velocity": 99,
      "chip": "ym2612"
    },
    {
      "channel": 2,
      "note": 59,
      "start": 7.7766,
      "duration": 0.0756,
      "velocity": 82,
      "chip": "ym2612"
    },
    {
      "channel": 3,
      "note": 62,
      "start": 7.7772,
      "duration": 0.0754,
      "velocity": 97,
      "chip": "ym2612"
    },
    {
      "channel": 1,
      "note": 62,
      "start": 7.814,
      "duration": 0.0756,
      "velocity": 97,
      "chip": "ym2612"
    },
    {
      "channel": 4,
      "note": 90,
      "start": 7.8719,
      "duration": 0.4357,
      "velocity": 99,
      "chip": "ym2612"
    },
    {
      "channel": 2,
      "note": 59,
      "start": 8.0039,
      "duration": 0.0756,
      "velocity": 82,
      "chip": "ym2612"
    },
    {
      "channel": 3,
      "note": 62,
      "start": 8.0045,
      "duration": 0.0752,
      "velocity": 97,
      "chip": "ym2612"
    },
    {
      "channel": 1,
      "note": 62,
      "start": 8.0416,
      "duration": 0.0756,
      "velocity": 97,
      "chip": "ym2612"
    },
    {
      "channel": 0,
      "note": 85,
      "start": 8.2309,
      "duration": 0.4359,
      "velocity": 99,
      "chip": "ym2612"
    },
    {
      "channel": 2,
      "note": 59,
      "start": 8.2316,
      "duration": 0.0754,
      "velocity": 82,
      "chip": "ym2612"
    },
    {
      "channel": 3,
      "note": 62,
      "start": 8.2323,
      "duration": 0.0751,
      "velocity": 97,
      "chip": "ym2612"
    },
    {
      "channel": 1,
      "note": 62,
      "start": 8.2696,
      "duration": 0.0751,
      "velocity": 97,
      "chip": "ym2612"
    },
    {
      "channel": 4,
      "note": 89,
      "start": 8.3269,
      "duration": 0.4357,
      "velocity": 99,
      "chip": "ym2612"
    },
    {
      "channel": 2,
      "note": 59,
      "start": 8.4589,
      "duration": 0.0756,
      "velocity": 82,
      "chip": "ym2612"
    },
    {
      "channel": 3,
      "note": 62,
      "start": 8.4595,
      "duration": 0.0753,
      "velocity": 97,
      "chip": "ym2612"
    },
    {
      "channel": 1,
      "note": 62,
      "start": 8.4966,
      "duration": 0.0756,
      "velocity": 97,
      "chip": "ym2612"
    },
    {
      "channel": 0,
      "note": 88,
      "start": 8.686,
      "duration": 0.4359,
      "velocity": 99,
      "chip": "ym2612"
    },
    {
      "channel": 2,
      "note": 59,
      "start": 8.687,
      "duration": 0.1129,
      "velocity": 82,
      "chip": "ym2612"
    },
    {
      "channel": 3,
      "note": 62,
      "start": 8.6878,
      "duration": 0.1125,
      "velocity": 97,
      "chip": "ym2612"
    },
    {
      "channel": 1,
      "note": 62,
      "start": 8.7243,
      "duration": 0.1134,
      "velocity": 97,
      "chip": "ym2612"
    },
    {
      "channel": 4,
      "note": 85,
      "start": 8.7818,
      "duration": 0.436,
      "velocity": 99,
      "chip": "ym2612"
    },
    {
      "channel": 2,
      "note": 59,
      "start": 8.9155,
      "duration": 0.074,
      "velocity": 82,
      "chip": "ym2612"
    },
    {
      "channel": 3,
      "note": 62,
      "start": 8.9189,
      "duration": 0.0709,
      "velocity": 97,
      "chip": "ym2612"
    },
    {
      "channel": 1,
      "note": 62,
      "start": 8.9538,
      "duration": 0.0734,
      "velocity": 97,
      "chip": "ym2612"
    },
    {
      "channel": 0,
      "note": 86,
      "start": 9.141,
      "duration": 0.8909,
      "velocity": 99,
      "chip": "ym2612"
    },
    {
      "channel": 2,
      "note": 59,
      "start": 9.1417,
      "duration": 0.0753,
      "velocity": 82,
      "chip": "ym2612"
    },
    {
      "channel": 3,
      "note": 62,
      "start": 9.1423,
      "duration": 0.0751,
      "velocity": 97,
      "chip": "ym2612"
    },
    {
      "channel": 1,
      "note": 62,
      "start": 9.1792,
      "duration": 0.0756,
      "velocity": 97,
      "chip": "ym2612"
    },
    {
      "channel": 4,
      "note": 88,
      "start": 9.2374,
      "duration": 0.8904,
      "velocity": 99,
      "chip": "ym2612"
    },
    {
      "channel": 2,
      "note": 59,
      "start": 9.3692,
      "duration": 0.0754,
      "velocity": 82,
      "chip": "ym2612"
    },
    {
      "channel": 3,
      "note": 62,
      "start": 9.37,
      "duration": 0.0749,
      "velocity": 97,
      "chip": "ym2612"
    },
    {
      "channel": 1,
      "note": 62,
      "start": 9.4066,
      "duration": 0.0757,
      "velocity": 97,
      "chip": "ym2612"
    },
    {
      "channel": 2,
      "note": 59,
      "start": 9.5965,
      "duration": 0.0756,
      "velocity": 82,
      "chip": "ym2612"
    },
    {
      "channel": 3,
      "note": 62,
      "start": 9.5971,
      "duration": 0.0754,
      "velocity": 97,
      "chip": "ym2612"
    },
    {
      "channel": 1,
      "note": 62,
      "start": 9.6342,
      "duration": 0.0756,
      "velocity": 97,
      "chip": "ym2612"
    },
    {
      "channel": 2,
      "note": 59,
      "start": 9.8241,
      "duration": 0.0756,
      "velocity": 82,
      "chip": "ym2612"
    },
    {
      "channel": 3,
      "note": 62,
      "start": 9.8246,
      "duration": 0.0753,
      "velocity": 97,
      "chip": "ym2612"
    },
    {
      "channel": 1,
      "note": 62,
      "start": 9.8617,
      "duration": 0.0757,
      "velocity": 97,
      "chip": "ym2612"
    },
    {
      "channel": 2,
      "note": 59,
      "start": 10.0516,
      "duration": 0.0756,
      "velocity": 82,
      "chip": "ym2612"
    },
    {
      "channel": 3,
      "note": 62,
      "start": 10.0525,
      "duration": 0.0749,
      "velocity": 97,
      "chip": "ym2612"
    },
    {
      "channel": 1,
      "note": 62,
      "start": 10.0892,
      "duration": 0.0756,
      "velocity": 97,
      "chip": "ym2612"
    },
    {
      "channel": 0,
      "note": 83,
      "start": 10.2786,
      "duration": 0.0947,
      "velocity": 99,
      "chip": "ym2612"
    },
    {
      "channel": 2,
      "note": 59,
      "start": 10.2793,
      "duration": 0.0753,
      "velocity": 82,
      "chip": "ym2612"
    },
    {
      "channel": 3,
      "note": 62,
      "start": 10.2799,
      "duration": 0.0751,
      "velocity": 97,
      "chip": "ym2612"
    },
    {
      "channel": 1,
      "note": 62,
      "start": 10.3168,
      "duration": 0.0759,
      "velocity": 97,
      "chip": "ym2612"
    },
    {
      "channel": 4,
      "note": 86,
      "start": 10.3747,
      "duration": 0.0946,
      "velocity": 99,
      "chip": "ym2612"
    },
    {
      "channel": 0,
      "note": 85,
      "start": 10.3924,
      "duration": 0.0946,
      "velocity": 99,
      "chip": "ym2612"
    },
    {
      "channel": 4,
      "note": 83,
      "start": 10.4883,
      "duration": 0.0945,
      "velocity": 99,
      "chip": "ym2612"
    },
    {
      "channel": 0,
      "note": 86,
      "start": 10.5061,
      "duration": 0.2084,
      "velocity": 99,
      "chip": "ym2612"
    },
    {
      "channel": 2,
      "note": 59,
      "start": 10.507,
      "duration": 0.1134,
      "velocity": 82,
      "chip": "ym2612"
    },
    {
      "channel": 3,
      "note": 62,
      "start": 10.5077,
      "duration": 0.1129,
      "velocity": 97,
      "chip": "ym2612"
    },
    {
      "channel": 1,
      "note": 62,
      "start": 10.5444,
      "duration": 0.1134,
      "velocity": 97,
      "chip": "ym2612"
    },
    {
      "channel": 4,
      "note": 85,
      "start": 10.6022,
      "duration": 0.2081,
      "velocity": 99,
      "chip": "ym2612"
    },
    {
      "channel": 0,
      "note": 90,
      "start": 10.7337,
      "duration": 0.2083,
      "velocity": 99,
      "chip": "ym2612"
    },
    {
      "channel": 2,
      "note": 59,
      "start": 10.7365,
      "duration": 0.0732,
      "velocity": 82,
      "chip": "ym2612"
    },
    {
      "channel": 3,
      "note": 62,
      "start": 10.7396,
      "duration": 0.0704,
      "velocity": 97,
      "chip": "ym2612"
    },
    {
      "channel": 1,
      "note": 62,
      "start": 10.7735,
      "duration": 0.0739,
      "velocity": 97,
      "chip": "ym2612"
    },
    {
      "channel": 4,
      "note": 86,
      "start": 10.8297,
      "duration": 0.2083,
      "velocity": 99,
      "chip": "ym2612"
    },
    {
      "channel": 0,
      "note": 93,
      "start": 10.9612,
      "duration": 0.2086,
      "velocity": 99,
      "chip": "ym2612"
    },
    {
      "channel": 2,
      "note": 59,
      "start": 10.9619,
      "duration": 0.0754,
      "velocity": 82,
      "chip": "ym2612"
    },
    {
      "channel": 3,
      "note": 62,
      "start": 10.9625,
      "duration": 0.0751,
      "velocity": 97,
      "chip": "ym2612"
    },
    {
      "channel": 1,
      "note": 62,
      "start": 10.9993,
      "duration": 0.0756,
      "velocity": 97,
      "chip": "ym2612"
    },
    {
      "channel": 4,
      "note": 90,
      "start": 11.0572,
      "duration": 0.2082,
      "velocity": 99,
      "chip": "ym2612"
    },
    {
      "channel": 0,
      "note": 92,
      "start": 11.1887,
      "duration": 0.4359,
      "velocity": 99,
      "chip": "ym2612"
    },
    {
      "channel": 2,
      "note": 59,
      "start": 11.1894,
      "duration": 0.0754,
      "velocity": 82,
      "chip": "ym2612"
    },
    {
      "channel": 3,
      "note": 62,
      "start": 11.19,
      "duration": 0.075,
      "velocity": 97,
      "chip": "ym2612"
    },
    {
      "channel": 1,
      "note": 62,
      "start": 11.2268,
      "duration": 0.0761,
      "velocity": 97,
      "chip": "ym2612"
    },
    {
      "channel": 4,
      "note": 93,
      "start": 11.2847,
      "duration": 0.4359,
      "velocity": 99,
      "chip": "ym2612"
    },
    {
      "channel": 2,
      "note": 59,
      "start": 11.4166,
      "duration": 0.0757,
      "velocity": 82,
      "chip": "ym2612"
    },
    {
      "channel": 3,
      "note": 62,
      "start": 11.4173,
      "duration": 0.0754,
      "velocity": 97,
      "chip": "ym2612"
    },
    {
      "channel": 1,
      "note": 62,
      "start": 11.4544,
      "duration": 0.0756,
      "velocity": 97,
      "chip": "ym2612"
    },
    {
      "channel": 0,
      "note": 88,
      "start": 11.6437,
      "duration": 0.2087,
      "velocity": 99,
      "chip": "ym2612"
    },
    {
      "channel": 2,
      "note": 59,
      "start": 11.6445,
      "duration": 0.0756,
      "velocity": 82,
      "chip": "ym2612"
    },
    {
      "channel": 3,
      "note": 62,
      "start": 11.6451,
      "duration": 0.0753,
      "velocity": 97,
      "chip": "ym2612"
    },
    {
      "channel": 1,
      "note": 62,
      "start": 11.6819,
      "duration": 0.0756,
      "velocity": 97,
      "chip": "ym2612"
    },
    {
      "channel": 4,
      "note": 92,
      "start": 11.7398,
      "duration": 0.2081,
      "velocity": 99,
      "chip": "ym2612"
    },
    {
      "channel": 0,
      "note": 91,
      "start": 11.8713,
      "duration": 0.2083,
      "velocity": 99,
      "chip": "ym2612"
    },
    {
      "channel": 2,
      "note": 59,
      "start": 11.872,
      "duration": 0.0754,
      "velocity": 82,
      "chip": "ym2612"
    },
    {
      "channel": 3,
      "note": 62,
      "start": 11.8726,
      "duration": 0.075,
      "velocity": 97,
      "chip": "ym2612"
    },
    {
      "channel": 1,
      "note": 62,
      "start": 11.9094,
      "duration": 0.0757,
      "velocity": 97,
      "chip": "ym2612"
    },
    {
      "channel": 4,
      "note": 88,
      "start": 11.9673,
      "duration": 0.2082,
      "velocity": 99,
      "chip": "ym2612"
    },
    {
      "channel": 0,
      "note": 90,
      "start": 12.0988,
      "duration": 0.4359,
      "velocity": 99,
      "chip": "ym2612"
    },
    {
      "channel": 2,
      "note": 59,
      "start": 12.0995,
      "duration": 0.0753,
      "velocity": 82,
      "chip": "ym2612"
    },
    {
      "channel": 3,
      "note": 62,
      "start": 12.1001,
      "duration": 0.075,
      "velocity": 97,
      "chip": "ym2612"
    },
    {
      "channel": 1,
      "note": 62,
      "start": 12.137,
      "duration": 0.0756,
      "velocity": 97,
      "chip": "ym2612"
    },
    {
      "channel": 4,
      "note": 91,
      "start": 12.1948,
      "duration": 0.4357,
      "velocity": 99,
      "chip": "ym2612"
    },
    {
      "channel": 2,
      "note": 59,
      "start": 12.3269,
      "duration": 0.1134,
      "velocity": 82,
      "chip": "ym2612"
    },
    {
      "channel": 3,
      "note": 62,
      "start": 12.3276,
      "duration": 0.113,
      "velocity": 97,
      "chip": "ym2612"
    },
    {
      "channel": 1,
      "note": 62,
      "start": 12.3646,
      "duration": 0.1134,
      "velocity": 97,
      "chip": "ym2612"
    },
    {
      "channel": 0,
      "note": 86,
      "start": 12.5538,
      "duration": 0.2083,
      "velocity": 99,
      "chip": "ym2612"
    },
    {
      "channel": 2,
      "note": 59,
      "start": 12.5562,
      "duration": 0.0737,
      "velocity": 82,
      "chip": "ym2612"
    },
    {
      "channel": 3,
      "note": 62,
      "start": 12.5593,
      "duration": 0.071,
      "velocity": 97,
      "chip": "ym2612"
    },
    {
      "channel": 1,
      "note": 62,
      "start": 12.5937,
      "duration": 0.0739,
      "velocity": 97,
      "chip": "ym2612"
    },
    {
      "channel": 4,
      "note": 90,
      "start": 12.6498,
      "duration": 0.2083,
      "velocity": 99,
      "chip": "ym2612"
    },
    {
      "channel": 0,
      "note": 90,
      "start": 12.7813,
      "duration": 0.2084,
      "velocity": 99,
      "chip": "ym2612"
    },
    {
      "channel": 2,
      "note": 59,
      "start": 12.782,
      "duration": 0.0754,
      "velocity": 82,
      "chip": "ym2612"
    },
    {
      "channel": 3,
      "note": 62,
      "start": 12.7827,
      "duration": 0.0751,
      "velocity": 97,
      "chip": "ym2612"
    },
    {
      "channel": 1,
      "note": 62,
      "start": 12.8197,
      "duration": 0.0754,
      "velocity": 97,
      "chip": "ym2612"
    },
    {
      "channel": 4,
      "note": 86,
      "start": 12.8774,
      "duration": 0.2085,
      "velocity": 99,
      "chip": "ym2612"
    },
    {
      "channel": 0,
      "note": 89,
      "start": 13.0089,
      "duration": 0.4359,
      "velocity": 99,
      "chip": "ym2612"
    },
    {
      "channel": 2,
      "note": 59,
      "start": 13.0096,
      "duration": 0.0754,
      "velocity": 82,
      "chip": "ym2612"
    },
    {
      "channel": 3,
      "note": 62,
      "start": 13.0102,
      "duration": 0.0754,
      "velocity": 97,
      "chip": "ym2612"
    },
    {
      "channel": 1,
      "note": 62,
      "start": 13.047,
      "duration": 0.0756,
      "velocity": 97,
      "chip": "ym2612"
    },
    {
      "channel": 4,
      "note": 90,
      "start": 13.1049,
      "duration": 0.4357,
      "velocity": 99,
      "chip": "ym2612"
    },
    {
      "channel": 2,
      "note": 59,
      "start": 13.237,
      "duration": 0.0755,
      "velocity": 82,
      "chip": "ym2612"
    },
    {
      "channel": 3,
      "note": 62,
      "start": 13.2377,
      "duration": 0.0751,
      "velocity": 97,
      "chip": "ym2612"
    },
    {
      "channel": 1,
      "note": 62,
      "start": 13.2745,
      "duration": 0.0756,
      "velocity": 97,
      "chip": "ym2612"
    },
    {
      "channel": 0,
      "note": 85,
      "start": 13.4639,
      "duration": 0.2084,
      "velocity": 99,
      "chip": "ym2612"
    },
    {
      "channel": 2,
      "note": 59,
      "start": 13.4646,
      "duration": 0.0754,
      "velocity": 82,
      "chip": "ym2612"
    },
    {
      "channel": 3,
      "note": 62,
      "start": 13.4652,
      "duration": 0.0751,
      "velocity": 97,
      "chip": "ym2612"
    },
    {
      "channel": 1,
      "note": 62,
      "start": 13.5023,
      "duration": 0.0754,
      "velocity": 97,
      "chip": "ym2612"
    },
    {
      "channel": 4,
      "note": 89,
      "start": 13.5599,
      "duration": 0.2083,
      "velocity": 99,
      "chip": "ym2612"
    },
    {
      "channel": 0,
      "note": 88,
      "start": 13.6914,
      "duration": 0.2083,
      "velocity": 99,
      "chip": "ym2612"
    },
    {
      "channel": 2,
      "note": 59,
      "start": 13.6921,
      "duration": 0.0754,
      "velocity": 82,
      "chip": "ym2612"
    },
    {
      "channel": 3,
      "note": 62,
      "start": 13.6928,
      "duration": 0.0751,
      "velocity": 97,
      "chip": "ym2612"
    },
    {
      "channel": 1,
      "note": 62,
      "start": 13.7296,
      "duration": 0.0756,
      "velocity": 97,
      "chip": "ym2612"
    },
    {
      "channel": 4,
      "note": 85,
      "start": 13.7877,
      "duration": 0.208,
      "velocity": 99,
      "chip": "ym2612"
    },
    {
      "channel": 0,
      "note": 86,
      "start": 13.9193,
      "duration": 2.0474,
      "velocity": 99,
      "chip": "ym2612"
    },
    {
      "channel": 2,
      "note": 59,
      "start": 13.9202,
      "duration": 0.0748,
      "velocity": 82,
      "chip": "ym2612"
    },
    {
      "channel": 3,
      "note": 62,
      "start": 13.9209,
      "duration": 0.0745,
      "velocity": 97,
      "chip": "ym2612"
    },
    {
      "channel": 1,
      "note": 62,
      "start": 13.9571,
      "duration": 0.0757,
      "velocity": 97,
      "chip": "ym2612"
    },
    {
      "channel": 4,
      "note": 88,
      "start": 14.0174,
      "duration": 0.6229,
      "velocity": 99,
      "chip": "ym2612"
    },
    {
      "channel": 2,
      "note": 59,
      "start": 14.147,
      "duration": 0.1134,
      "velocity": 82,
      "chip": "ym2612"
    },
    {
      "channel": 3,
      "note": 62,
      "start": 14.1478,
      "duration": 0.113,
      "velocity": 97,
      "chip": "ym2612"
    },
    {
      "channel": 1,
      "note": 62,
      "start": 14.1847,
      "duration": 0.1134,
      "velocity": 97,
      "chip": "ym2612"
    },
    {
      "channel": 2,
      "note": 59,
      "start": 14.3761,
      "duration": 0.074,
      "velocity": 82,
      "chip": "ym2612"
    },
    {
      "channel": 3,
      "note": 62,
      "start": 14.3792,
      "duration": 0.0713,
      "velocity": 97,
      "chip": "ym2612"
    },
    {
      "channel": 1,
      "note": 62,
      "start": 14.4122,
      "duration": 0.0757,
      "velocity": 97,
      "chip": "ym2612"
    },
    {
      "channel": 1,
      "note": 78,
      "start": 14.6041,
      "duration": 0.4335,
      "velocity": 97,
      "chip": "ym2612"
    },
    {
      "channel": 2,
      "note": 59,
      "start": 14.6047,
      "duration": 0.0729,
      "velocity": 82,
      "chip": "ym2612"
    },
    {
      "channel": 3,
      "note": 62,
      "start": 14.6052,
      "duration": 0.0727,
      "velocity": 97,
      "chip": "ym2612"
    },
    {
      "channel": 4,
      "note": 86,
      "start": 14.6621,
      "duration": 0.4332,
      "velocity": 97,
      "chip": "ym2612"
    },
    {
      "channel": 2,
      "note": 59,
      "start": 14.8295,
      "duration": 0.0757,
      "velocity": 82,
      "chip": "ym2612"
    },
    {
      "channel": 3,
      "note": 62,
      "start": 14.8301,
      "duration": 0.0754,
      "velocity": 97,
      "chip": "ym2612"
    },
    {
      "channel": 1,
      "note": 77,
      "start": 15.0568,
      "duration": 0.4359,
      "velocity": 97,
      "chip": "ym2612"
    },
    {
      "channel": 2,
      "note": 59,
      "start": 15.0573,
      "duration": 0.0754,
      "velocity": 82,
      "chip": "ym2612"
    },
    {
      "channel": 3,
      "note": 62,
      "start": 15.0579,
      "duration": 0.0751,
      "velocity": 97,
      "chip": "ym2612"
    },
    {
      "channel": 4,
      "note": 78,
      "start": 15.1146,
      "duration": 0.4358,
      "velocity": 97,
      "chip": "ym2612"
    },
    {
      "channel": 2,
      "note": 59,
      "start": 15.2846,
      "duration": 0.0756,
      "velocity": 82,
      "chip": "ym2612"
    },
    {
      "channel": 3,
      "note": 62,
      "start": 15.2854,
      "duration": 0.0751,
      "velocity": 97,
      "chip": "ym2612"
    },
    {
      "channel": 1,
      "note": 73,
      "start": 15.5119,
      "duration": 0.4359,
      "velocity": 97,
      "chip": "ym2612"
    },
    {
      "channel": 2,
      "note": 59,
      "start": 15.5124,
      "duration": 0.0754,
      "velocity": 82,
      "chip": "ym2612"
    },
    {
      "channel": 3,
      "note": 62,
      "start": 15.513,
      "duration": 0.0751,
      "velocity": 97,
      "chip": "ym2612"
    },
    {
      "channel": 4,
      "note": 77,
      "start": 15.57,
      "duration": 0.4353,
      "velocity": 97,
      "chip": "ym2612"
    },
    {
      "channel": 2,
      "note": 59,
      "start": 15.7396,
      "duration": 0.0756,
      "velocity": 82,
      "chip": "ym2612"
    },
    {
      "channel": 3,
      "note": 62,
      "start": 15.7402,
      "duration": 0.0753,
      "velocity": 97,
      "chip": "ym2612"
    },
    {
      "channel": 0,
      "note": 86,
      "start": 15.9667,
      "duration": 3.6404,
      "velocity": 99,
      "chip": "ym2612"
    },
    {
      "channel": 1,
      "note": 76,
      "start": 15.9672,
      "duration": 0.4359,
      "velocity": 97,
      "chip": "ym2612"
    },
    {
      "channel": 2,
      "note": 59,
      "start": 15.9678,
      "duration": 0.1129,
      "velocity": 82,
      "chip": "ym2612"
    },
    {
      "channel": 3,
      "note": 62,
      "start": 15.9688,
      "duration": 0.1122,
      "velocity": 97,
      "chip": "ym2612"
    },
    {
      "channel": 4,
      "note": 73,
      "start": 16.0246,
      "duration": 0.4359,
      "velocity": 97,
      "chip": "ym2612"
    },
    {
      "channel": 2,
      "note": 59,
      "start": 16.1963,
      "duration": 0.0741,
      "velocity": 82,
      "chip": "ym2612"
    },
    {
      "channel": 3,
      "note": 62,
      "start": 16.1993,
      "duration": 0.0713,
      "velocity": 97,
      "chip": "ym2612"
    },
    {
      "channel": 1,
      "note": 74,
      "start": 16.422,
      "duration": 0.8909,
      "velocity": 97,
      "chip": "ym2612"
    },
    {
      "channel": 2,
      "note": 59,
      "start": 16.4224,
      "duration": 0.0754,
      "velocity": 82,
      "chip": "ym2612"
    },
    {
      "channel": 3,
      "note": 62,
      "start": 16.423,
      "duration": 0.0751,
      "velocity": 97,
      "chip": "ym2612"
    },
    {
      "channel": 4,
      "note": 76,
      "start": 16.4797,
      "duration": 0.8911,
      "velocity": 97,
      "chip": "ym2612"
    },
    {
      "channel": 2,
      "note": 59,
      "start": 16.6496,
      "duration": 0.0757,
      "velocity": 82,
      "chip": "ym2612"
    },
    {
      "channel": 3,
      "note": 62,
      "start": 16.6503,
      "duration": 0.0754,
      "velocity": 97,
      "chip": "ym2612"
    },
    {
      "channel": 2,
      "note": 59,
      "start": 16.8772,
      "duration": 0.076,
      "velocity": 82,
      "chip": "ym2612"
    },
    {
      "channel": 3,
      "note": 62,
      "start": 16.8778,
      "duration": 0.0757,
      "velocity": 97,
      "chip": "ym2612"
    },
    {
      "channel": 2,
      "note": 59,
      "start": 17.1047,
      "duration": 0.0757,
      "velocity": 82,
      "chip": "ym2612"
    },
    {
      "channel": 3,
      "note": 62,
      "start": 17.1054,
      "duration": 0.0753,
      "velocity": 97,
      "chip": "ym2612"
    },
    {
      "channel": 2,
      "note": 59,
      "start": 17.3323,
      "duration": 0.0756,
      "velocity": 82,
      "chip": "ym2612"
    },
    {
      "channel": 3,
      "note": 62,
      "start": 17.333,
      "duration": 0.0753,
      "velocity": 97,
      "chip": "ym2612"
    },
    {
      "channel": 1,
      "note": 71,
      "start": 17.5596,
      "duration": 0.0946,
      "velocity": 97,
      "chip": "ym2612"
    },
    {
      "channel": 2,
      "note": 59,
      "start": 17.5601,
      "duration": 0.0756,
      "velocity": 82,
      "chip": "ym2612"
    },
    {
      "channel": 3,
      "note": 62,
      "start": 17.5606,
      "duration": 0.0756,
      "velocity": 97,
      "chip": "ym2612"
    },
    {
      "channel": 4,
      "note": 74,
      "start": 17.6173,
      "duration": 0.0946,
      "velocity": 97,
      "chip": "ym2612"
    },
    {
      "channel": 1,
      "note": 73,
      "start": 17.6733,
      "duration": 0.0946,
      "velocity": 97,
      "chip": "ym2612"
    },
    {
      "channel": 4,
      "note": 71,
      "start": 17.7311,
      "duration": 0.0945,
      "velocity": 97,
      "chip": "ym2612"
    },
    {
      "channel": 1,
      "note": 74,
      "start": 17.7871,
      "duration": 0.2083,
      "velocity": 97,
      "chip": "ym2612"
    },
    {
      "channel": 2,
      "note": 59,
      "start": 17.7877,
      "duration": 0.1131,
      "velocity": 82,
      "chip": "ym2612"
    },
    {
      "channel": 3,
      "note": 62,
      "start": 17.7884,
      "duration": 0.1127,
      "velocity": 97,
      "chip": "ym2612"
    },
    {
      "channel": 4,
      "note": 73,
      "start": 17.8447,
      "duration": 0.2088,
      "velocity": 97,
      "chip": "ym2612"
    },
    {
      "channel": 1,
      "note": 78,
      "start": 18.0146,
      "duration": 0.2084,
      "velocity": 97,
      "chip": "ym2612"
    },
    {
      "channel": 2,
      "note": 59,
      "start": 18.0168,
      "duration": 0.0737,
      "velocity": 82,
      "chip": "ym2612"
    },
    {
      "channel": 3,
      "note": 62,
      "start": 18.0203,
      "duration": 0.0704,
      "velocity": 97,
      "chip": "ym2612"
    },
    {
      "channel": 4,
      "note": 74,
      "start": 18.0723,
      "duration": 0.2083,
      "velocity": 97,
      "chip": "ym2612"
    },
    {
      "channel": 1,
      "note": 81,
      "start": 18.2421,
      "duration": 0.2083,
      "velocity": 97,
      "chip": "ym2612"
    },
    {
      "channel": 2,
      "note": 59,
      "start": 18.2426,
      "duration": 0.0754,
      "velocity": 82,
      "chip": "ym2612"
    },
    {
      "channel": 3,
      "note": 62,
      "start": 18.2432,
      "duration": 0.0751,
      "velocity": 97,
      "chip": "ym2612"
    },
    {
      "channel": 4,
      "note": 78,
      "start": 18.2999,
      "duration": 0.2083,
      "velocity": 97,
      "chip": "ym2612"
    },
    {
      "channel": 1,
      "note": 80,
      "start": 18.4699,
      "duration": 0.4357,
      "velocity": 97,
      "chip": "ym2612"
    },
    {
      "channel": 2,
      "note": 59,
      "start": 18.4704,
      "duration": 0.0751,
      "velocity": 82,
      "chip": "ym2612"
    },
    {
      "channel": 3,
      "note": 62,
      "start": 18.471,
      "duration": 0.0749,
      "velocity": 97,
      "chip": "ym2612"
    },
    {
      "channel": 4,
      "note": 81,
      "start": 18.5273,
      "duration": 0.4359,
      "velocity": 97,
      "chip": "ym2612"
    },
    {
      "channel": 2,
      "note": 59,
      "start": 18.6974,
      "duration": 0.0756,
      "velocity": 82,
      "chip": "ym2612"
    },
    {
      "channel": 3,
      "note": 62,
      "start": 18.698,
      "duration": 0.0754,
      "velocity": 97,
      "chip": "ym2612"
    },
    {
      "channel": 1,
      "note": 76,
      "start": 18.9247,
      "duration": 0.2084,
      "velocity": 97,
      "chip": "ym2612"
    },
    {
      "channel": 2,
      "note": 59,
      "start": 18.9251,
      "duration": 0.0754,
      "velocity": 82,
      "chip": "ym2612"
    },
    {
      "channel": 3,
      "note": 62,
      "start": 18.9258,
      "duration": 0.0751,
      "velocity": 97,
      "chip": "ym2612"
    },
    {
      "channel": 4,
      "note": 80,
      "start": 18.9823,
      "duration": 0.2084,
      "velocity": 97,
      "chip": "ym2612"
    },
    {
      "channel": 1,
      "note": 79,
      "start": 19.1525,
      "duration": 0.2081,
      "velocity": 97,
      "chip": "ym2612"
    },
    {
      "channel": 2,
      "note": 59,
      "start": 19.1532,
      "duration": 0.0749,
      "velocity": 82,
      "chip": "ym2612"
    },
    {
      "channel": 3,
      "note": 62,
      "start": 19.1538,
      "duration": 0.0746,
      "velocity": 97,
      "chip": "ym2612"
    },
    {
      "channel": 4,
      "note": 76,
      "start": 19.2099,
      "duration": 0.2083,
      "velocity": 97,
      "chip": "ym2612"
    },
    {
      "channel": 1,
      "note": 78,
      "start": 19.3797,
      "duration": 0.4359,
      "velocity": 97,
      "chip": "ym2612"
    },
    {
      "channel": 2,
      "note": 59,
      "start": 19.3802,
      "duration": 0.0754,
      "velocity": 82,
      "chip": "ym2612"
    },
    {
      "channel": 3,
      "note": 62,
      "start": 19.3808,
      "duration": 0.0751,
      "velocity": 97,
      "chip": "ym2612"
    },
    {
      "channel": 4,
      "note": 79,
      "start": 19.4377,
      "duration": 0.4356,
      "velocity": 97,
      "chip": "ym2612"
    },
    {
      "channel": 0,
      "note": 86,
      "start": 19.6071,
      "duration": 1.4003,
      "velocity": 99,
      "chip": "ym2612"
    },
    {
      "channel": 2,
      "note": 59,
      "start": 19.608,
      "duration": 0.0944,
      "velocity": 82,
      "chip": "ym2612"
    },
    {
      "channel": 3,
      "note": 62,
      "start": 19.6087,
      "duration": 0.0747,
      "velocity": 97,
      "chip": "ym2612"
    },
    {
      "channel": 1,
      "note": 74,
      "start": 19.8347,
      "duration": 0.2084,
      "velocity": 97,
      "chip": "ym2612"
    },
    {
      "channel": 2,
      "note": 59,
      "start": 19.8355,
      "duration": 0.0751,
      "velocity": 82,
      "chip": "ym2612"
    },
    {
      "channel": 3,
      "note": 62,
      "start": 19.8363,
      "duration": 0.0745,
      "velocity": 97,
      "chip": "ym2612"
    },
    {
      "channel": 4,
      "note": 78,
      "start": 19.8924,
      "duration": 0.2083,
      "velocity": 97,
      "chip": "ym2612"
    },
    {
      "channel": 1,
      "note": 78,
      "start": 20.0623,
      "duration": 0.2084,
      "velocity": 97,
      "chip": "ym2612"
    },
    {
      "channel": 2,
      "note": 59,
      "start": 20.0628,
      "duration": 0.0753,
      "velocity": 82,
      "chip": "ym2612"
    },
    {
      "channel": 3,
      "note": 62,
      "start": 20.0634,
      "duration": 0.0751,
      "velocity": 97,
      "chip": "ym2612"
    },
    {
      "channel": 4,
      "note": 74,
      "start": 20.1205,
      "duration": 0.2078,
      "velocity": 97,
      "chip": "ym2612"
    },
    {
      "channel": 1,
      "note": 77,
      "start": 20.2898,
      "duration": 0.4359,
      "velocity": 97,
      "chip": "ym2612"
    },
    {
      "channel": 2,
      "note": 59,
      "start": 20.2903,
      "duration": 0.0753,
      "velocity": 82,
      "chip": "ym2612"
    },
    {
      "channel": 3,
      "note": 62,
      "start": 20.2909,
      "duration": 0.0751,
      "velocity": 97,
      "chip": "ym2612"
    },
    {
      "channel": 4,
      "note": 78,
      "start": 20.3475,
      "duration": 0.4359,
      "velocity": 97,
      "chip": "ym2612"
    },
    {
      "channel": 2,
      "note": 59,
      "start": 20.5176,
      "duration": 0.0756,
      "velocity": 82,
      "chip": "ym2612"
    },
    {
      "channel": 3,
      "note": 62,
      "start": 20.5181,
      "duration": 0.0754,
      "velocity": 97,
      "chip": "ym2612"
    },
    {
      "channel": 1,
      "note": 73,
      "start": 20.7449,
      "duration": 0.2086,
      "velocity": 97,
      "chip": "ym2612"
    },
    {
      "channel": 2,
      "note": 59,
      "start": 20.7453,
      "duration": 0.0754,
      "velocity": 82,
      "chip": "ym2612"
    },
    {
      "channel": 3,
      "note": 62,
      "start": 20.7459,
      "duration": 0.0751,
      "velocity": 97,
      "chip": "ym2612"
    },
    {
      "channel": 4,
      "note": 77,
      "start": 20.8031,
      "duration": 0.1774,
      "velocity": 97,
      "chip": "ym2612"
    },
    {
      "channel": 1,
      "note": 77,
      "start": 20.9724,
      "duration": 0.0353,
      "velocity": 97,
      "chip": "ym2612"
    },
    {
      "channel": 2,
      "note": 59,
      "start": 20.9729,
      "duration": 0.0141,
      "velocity": 82,
      "chip": "ym2612"
    },
    {
      "channel": 3,
      "note": 62,
      "start": 20.9735,
      "duration": 0.0137,
      "velocity": 97,
      "chip": "ym2612"
    },
    {
      "channel": 4,
      "note": 73,
      "start": 20.9834,
      "duration": 0.0432,
      "velocity": 97,
      "chip": "ym2612"
    },
    {
      "channel": 0,
      "note": 90,
      "start": 21.0132,
      "duration": 1.0438,
      "velocity": 99,
      "chip": "ym2612"
    },
    {
      "channel": 1,
      "note": 78,
      "start": 21.014,
      "duration": 0.8845,
      "velocity": 97,
      "chip": "ym2612"
    },
    {
      "channel": 2,
      "note": 54,
      "start": 21.0163,
      "duration": 0.0557,
      "velocity": 82,
      "chip": "ym2612"
    },
    {
      "channel": 3,
      "note": 62,
      "start": 21.0194,
      "duration": 0.05,
      "velocity": 97,
      "chip": "ym2612"
    },
    {
      "channel": 4,
      "note": 77,
      "start": 21.0324,
      "duration": 1.0402,
      "velocity": 99,
      "chip": "ym2612"
    },
    {
      "channel": 2,
      "note": 54,
      "start": 21.0955,
      "duration": 0.0131,
      "velocity": 82,
      "chip": "ym2612"
    },
    {
      "channel": 3,
      "note": 61,
      "start": 21.096,
      "duration": 0.0128,
      "velocity": 97,
      "chip": "ym2612"
    },
    {
      "channel": 2,
      "note": 54,
      "start": 21.2353,
      "duration": 0.0756,
      "velocity": 82,
      "chip": "ym2612"
    },
    {
      "channel": 3,
      "note": 61,
      "start": 21.2359,
      "duration": 0.0754,
      "velocity": 97,
      "chip": "ym2612"
    },
    {
      "channel": 2,
      "note": 54,
      "start": 21.4628,
      "duration": 0.0761,
      "velocity": 82,
      "chip": "ym2612"
    },
    {
      "channel": 3,
      "note": 61,
      "start": 21.4634,
      "duration": 0.0759,
      "velocity": 97,
      "chip": "ym2612"
    },
    {
      "channel": 2,
      "note": 54,
      "start": 21.6903,
      "duration": 0.0756,
      "velocity": 82,
      "chip": "ym2612"
    },
    {
      "channel": 3,
      "note": 61,
      "start": 21.6909,
      "duration": 0.0753,
      "velocity": 97,
      "chip": "ym2612"
    },
    {
      "channel": 1,
      "note": 70,
      "start": 21.9193,
      "duration": 0.0187,
      "velocity": 97,
      "chip": "ym2612"
    },
    {
      "channel": 2,
      "note": 58,
      "start": 21.9198,
      "duration": 0.0218,
      "velocity": 82,
      "chip": "ym2612"
    },
    {
      "channel": 3,
      "note": 61,
      "start": 21.9205,
      "duration": 0.0149,
      "velocity": 97,
      "chip": "ym2612"
    },
    {
      "channel": 1,
      "note": 71,
      "start": 21.9413,
      "duration": 0.0152,
      "velocity": 97,
      "chip": "ym2612"
    },
    {
      "channel": 2,
      "note": 59,
      "start": 21.9418,
      "duration": 0.018,
      "velocity": 82,
      "chip": "ym2612"
    },
    {
      "channel": 1,
      "note": 73,
      "start": 21.9595,
      "duration": 0.0183,
      "velocity": 97,
      "chip": "ym2612"
    },
    {
      "channel": 2,
      "note": 61,
      "start": 21.96,
      "duration": 0.0216,
      "velocity": 82,
      "chip": "ym2612"
    },
    {
      "channel": 3,
      "note": 61,
      "start": 21.9607,
      "duration": 0.0144,
      "velocity": 97,
      "chip": "ym2612"
    },
    {
      "channel": 1,
      "note": 71,
      "start": 21.9813,
      "duration": 0.0147,
      "velocity": 97,
      "chip": "ym2612"
    },
    {
      "channel": 2,
      "note": 59,
      "start": 21.9818,
      "duration": 0.0184,
      "velocity": 82,
      "chip": "ym2612"
    },
    {
      "channel": 1,
      "note": 70,
      "start": 21.9999,
      "duration": 0.0168,
      "velocity": 97,
      "chip": "ym2612"
    },
    {
      "channel": 2,
      "note": 58,
      "start": 22.0004,
      "duration": 0.0197,
      "velocity": 82,
      "chip": "ym2612"
    },
    {
      "channel": 3,
      "note": 61,
      "start": 22.001,
      "duration": 0.0132,
      "velocity": 97,
      "chip": "ym2612"
    },
    {
      "channel": 1,
      "note": 67,
      "start": 22.0198,
      "duration": 0.0162,
      "velocity": 97,
      "chip": "ym2612"
    },
    {
      "channel": 2,
      "note": 55,
      "start": 22.0203,
      "duration": 0.0192,
      "velocity": 82,
      "chip": "ym2612"
    },
    {
      "channel": 1,
      "note": 66,
      "start": 22.0392,
      "duration": 0.4303,
      "velocity": 97,
      "chip": "ym2612"
    },
    {
      "channel": 2,
      "note": 54,
      "start": 22.0398,
      "duration": 0.0177,
      "velocity": 82,
      "chip": "ym2612"
    },
    {
      "channel": 3,
      "note": 61,
      "start": 22.0405,
      "duration": 0.0142,
      "velocity": 97,
      "chip": "ym2612"
    },
    {
      "channel": 0,
      "note": 78,
      "start": 22.0602,
      "duration": 0.0142,
      "velocity": 99,
      "chip": "ym2612"
    },
    {
      "channel": 4,
      "note": 90,
      "start": 22.0759,
      "duration": 0.0161,
      "velocity": 99,
      "chip": "ym2612"
    },
    {
      "channel": 0,
      "note": 79,
      "start": 22.0778,
      "duration": 0.0171,
      "velocity": 99,
      "chip": "ym2612"
    },
    {
      "channel": 2,
      "note": 54,
      "start": 22.0785,
      "duration": 0.0169,
      "velocity": 82,
      "chip": "ym2612"
    },
    {
      "channel": 3,
      "note": 61,
      "start": 22.0791,
      "duration": 0.0124,
      "velocity": 97,
      "chip": "ym2612"
    },
    {
      "channel": 4,
      "note": 78,
      "start": 22.0963,
      "duration": 0.0138,
      "velocity": 99,
      "chip": "ym2612"
    },
    {
      "channel": 0,
      "note": 82,
      "start": 22.0983,
      "duration": 0.0136,
      "velocity": 99,
      "chip": "ym2612"
    },
    {
      "channel": 4,
      "note": 79,
      "start": 22.1134,
      "duration": 0.0173,
      "velocity": 99,
      "chip": "ym2612"
    },
    {
      "channel": 0,
      "note": 83,
      "start": 22.1159,
      "duration": 0.0171,
      "velocity": 99,
      "chip": "ym2612"
    },
    {
      "channel": 2,
      "note": 54,
      "start": 22.1168,
      "duration": 0.0167,
      "velocity": 82,
      "chip": "ym2612"
    },
    {
      "channel": 3,
      "note": 61,
      "start": 22.1174,
      "duration": 0.0129,
      "velocity": 97,
      "chip": "ym2612"
    },
    {
      "channel": 4,
      "note": 82,
      "start": 22.1344,
      "duration": 0.0894,
      "velocity": 99,
      "chip": "ym2612"
    },
    {
      "channel": 0,
      "note": 85,
      "start": 22.1471,
      "duration": 0.0946,
      "velocity": 99,
      "chip": "ym2612"
    },
    {
      "channel": 4,
      "note": 83,
      "start": 22.2432,
      "duration": 0.0945,
      "velocity": 99,
      "chip": "ym2612"
    },
    {
      "channel": 0,
      "note": 86,
      "start": 22.2609,
      "duration": 0.0946,
      "velocity": 99,
      "chip": "ym2612"
    },
    {
      "channel": 2,
      "note": 54,
      "start": 22.2617,
      "duration": 0.0943,
      "velocity": 82,
      "chip": "ym2612"
    },
    {
      "channel": 3,
      "note": 61,
      "start": 22.2622,
      "duration": 0.0751,
      "velocity": 97,
      "chip": "ym2612"
    },
    {
      "channel": 4,
      "note": 85,
      "start": 22.3569,
      "duration": 0.0946,
      "velocity": 99,
      "chip": "ym2612"
    },
    {
      "channel": 0,
      "note": 88,
      "start": 22.3746,
      "duration": 0.0946,
      "velocity": 99,
      "chip": "ym2612"
    },
    {
      "channel": 4,
      "note": 86,
      "start": 22.4707,
      "duration": 0.0944,
      "velocity": 99,
      "chip": "ym2612"
    },
    {
      "channel": 0,
      "note": 90,
      "start": 22.4885,
      "duration": 0.0949,
      "velocity": 99,
      "chip": "ym2612"
    },
    {
      "channel": 1,
      "note": 70,
      "start": 22.4889,
      "duration": 0.4357,
      "velocity": 97,
      "chip": "ym2612"
    },
    {
      "channel": 2,
      "note": 58,
      "start": 22.4894,
      "duration": 0.0946,
      "velocity": 82,
      "chip": "ym2612"
    },
    {
      "channel": 3,
      "note": 61,
      "start": 22.49,
      "duration": 0.0747,
      "velocity": 97,
      "chip": "ym2612"
    },
    {
      "channel": 4,
      "note": 88,
      "start": 22.585,
      "duration": 0.0939,
      "velocity": 99,
      "chip": "ym2612"
    },
    {
      "channel": 0,
      "note": 88,
      "start": 22.6022,
      "duration": 0.0946,
      "velocity": 99,
      "chip": "ym2612"
    },
    {
      "channel": 4,
      "note": 90,
      "start": 22.6981,
      "duration": 0.0945,
      "velocity": 99,
      "chip": "ym2612"
    },
    {
      "channel": 0,
      "note": 86,
      "start": 22.7159,
      "duration": 0.0946,
      "velocity": 99,
      "chip": "ym2612"
    },
    {
      "channel": 2,
      "note": 58,
      "start": 22.717,
      "duration": 0.0941,
      "velocity": 82,
      "chip": "ym2612"
    },
    {
      "channel": 3,
      "note": 61,
      "start": 22.7178,
      "duration": 0.0745,
      "velocity": 97,
      "chip": "ym2612"
    },
    {
      "channel": 4,
      "note": 88,
      "start": 22.812,
      "duration": 0.0943,
      "velocity": 99,
      "chip": "ym2612"
    },
    {
      "channel": 0,
      "note": 85,
      "start": 22.8297,
      "duration": 0.0946,
      "velocity": 99,
      "chip": "ym2612"
    },
    {
      "channel": 4,
      "note": 86,
      "start": 22.9257,
      "duration": 0.0944,
      "velocity": 99,
      "chip": "ym2612"
    },
    {
      "channel": 0,
      "note": 83,
      "start": 22.9435,
      "duration": 0.0946,
      "velocity": 99,
      "chip": "ym2612"
    },
    {
      "channel": 1,
      "note": 73,
      "start": 22.944,
      "duration": 0.2619,
      "velocity": 97,
      "chip": "ym2612"
    },
    {
      "channel": 2,
      "note": 61,
      "start": 22.9445,
      "duration": 0.0941,
      "velocity": 82,
      "chip": "ym2612"
    },
    {
      "channel": 3,
      "note": 61,
      "start": 22.9451,
      "duration": 0.0747,
      "velocity": 97,
      "chip": "ym2612"
    },
    {
      "channel": 4,
      "note": 85,
      "start": 23.0395,
      "duration": 0.0949,
      "velocity": 99,
      "chip": "ym2612"
    },
    {
      "channel": 0,
      "note": 82,
      "start": 23.0572,
      "duration": 0.0946,
      "velocity": 99,
      "chip": "ym2612"
    },
    {
      "channel": 4,
      "note": 83,
      "start": 23.1532,
      "duration": 0.0327,
      "velocity": 99,
      "chip": "ym2612"
    },
    {
      "channel": 0,
      "note": 79,
      "start": 23.171,
      "duration": 0.0173,
      "velocity": 99,
      "chip": "ym2612"
    },
    {
      "channel": 2,
      "note": 61,
      "start": 23.1717,
      "duration": 0.017,
      "velocity": 82,
      "chip": "ym2612"
    },
    {
      "channel": 3,
      "note": 61,
      "start": 23.1723,
      "duration": 0.0132,
      "velocity": 97,
      "chip": "ym2612"
    },
    {
      "channel": 4,
      "note": 82,
      "start": 23.1901,
      "duration": 0.0137,
      "velocity": 99,
      "chip": "ym2612"
    },
    {
      "channel": 0,
      "note": 77,
      "start": 23.1921,
      "duration": 0.0135,
      "velocity": 99,
      "chip": "ym2612"
    },
    {
      "channel": 4,
      "note": 79,
      "start": 23.2071,
      "duration": 0.018,
      "velocity": 99,
      "chip": "ym2612"
    },
    {
      "channel": 0,
      "note": 78,
      "start": 23.2094,
      "duration": 0.8165,
      "velocity": 99,
      "chip": "ym2612"
    },
    {
      "channel": 1,
      "note": 66,
      "start": 23.21,
      "duration": 0.6586,
      "velocity": 97,
      "chip": "ym2612"
    },
    {
      "channel": 2,
      "note": 54,
      "start": 23.2108,
      "duration": 0.0167,
      "velocity": 82,
      "chip": "ym2612"
    },
    {
      "channel": 3,
      "note": 61,
      "start": 23.2118,
      "duration": 0.013,
      "velocity": 97,
      "chip": "ym2612"
    },
    {
      "channel": 4,
      "note": 77,
      "start": 23.2285,
      "duration": 0.8133,
      "velocity": 99,
      "chip": "ym2612"
    },
    {
      "channel": 2,
      "note": 54,
      "start": 23.2476,
      "duration": 0.0139,
      "velocity": 82,
      "chip": "ym2612"
    },
    {
      "channel": 3,
      "note": 61,
      "start": 23.2482,
      "duration": 0.0136,
      "velocity": 97,
      "chip": "ym2612"
    },
    {
      "channel": 2,
      "note": 54,
      "start": 23.2853,
      "duration": 0.0138,
      "velocity": 82,
      "chip": "ym2612"
    },
    {
      "channel": 3,
      "note": 61,
      "start": 23.2859,
      "duration": 0.0135,
      "velocity": 97,
      "chip": "ym2612"
    },
    {
      "channel": 2,
      "note": 54,
      "start": 23.4328,
      "duration": 0.0756,
      "velocity": 82,
      "chip": "ym2612"
    },
    {
      "channel": 3,
      "note": 61,
      "start": 23.4334,
      "duration": 0.0754,
      "velocity": 97,
      "chip": "ym2612"
    },
    {
      "channel": 2,
      "note": 54,
      "start": 23.6603,
      "duration": 0.0757,
      "velocity": 82,
      "chip": "ym2612"
    },
    {
      "channel": 3,
      "note": 61,
      "start": 23.6609,
      "duration": 0.0754,
      "velocity": 97,
      "chip": "ym2612"
    },
    {
      "channel": 1,
      "note": 70,
      "start": 23.8876,
      "duration": 0.0173,
      "velocity": 97,
      "chip": "ym2612"
    },
    {
      "channel": 2,
      "note": 58,
      "start": 23.8881,
      "duration": 0.0208,
      "velocity": 82,
      "chip": "ym2612"
    },
    {
      "channel": 3,
      "note": 61,
      "start": 23.8888,
      "duration": 0.0132,
      "velocity": 97,
      "chip": "ym2612"
    },
    {
      "channel": 1,
      "note": 71,
      "start": 23.9087,
      "duration": 0.0155,
      "velocity": 97,
      "chip": "ym2612"
    },
    {
      "channel": 2,
      "note": 59,
      "start": 23.9092,
      "duration": 0.0185,
      "velocity": 82,
      "chip": "ym2612"
    },
    {
      "channel": 1,
      "note": 73,
      "start": 23.9275,
      "duration": 0.0177,
      "velocity": 97,
      "chip": "ym2612"
    },
    {
      "channel": 2,
      "note": 61,
      "start": 23.928,
      "duration": 0.0205,
      "velocity": 82,
      "chip": "ym2612"
    },
    {
      "channel": 3,
      "note": 61,
      "start": 23.9286,
      "duration": 0.014,
      "velocity": 97,
      "chip": "ym2612"
    },
    {
      "channel": 1,
      "note": 71,
      "start": 23.9482,
      "duration": 0.0153,
      "velocity": 97,
      "chip": "ym2612"
    },
    {
      "channel": 2,
      "note": 59,
      "start": 23.9488,
      "duration": 0.0181,
      "velocity": 82,
      "chip": "ym2612"
    },
    {
      "channel": 1,
      "note": 70,
      "start": 23.9665,
      "duration": 0.0181,
      "velocity": 97,
      "chip": "ym2612"
    },
    {
      "channel": 2,
      "note": 58,
      "start": 23.967,
      "duration": 0.0213,
      "velocity": 82,
      "chip": "ym2612"
    },
    {
      "channel": 3,
      "note": 61,
      "start": 23.9676,
      "duration": 0.0144,
      "velocity": 97,
      "chip": "ym2612"
    },
    {
      "channel": 1,
      "note": 67,
      "start": 23.988,
      "duration": 0.0157,
      "velocity": 97,
      "chip": "ym2612"
    },
    {
      "channel": 2,
      "note": 55,
      "start": 23.9885,
      "duration": 0.021,
      "velocity": 82,
      "chip": "ym2612"
    },
    {
      "channel": 1,
      "note": 66,
      "start": 24.0092,
      "duration": 0.4313,
      "velocity": 97,
      "chip": "ym2612"
    },
    {
      "channel": 2,
      "note": 54,
      "start": 24.0098,
      "duration": 0.0136,
      "velocity": 82,
      "chip": "ym2612"
    },
    {
      "channel": 3,
      "note": 61,
      "start": 24.0105,
      "duration": 0.0132,
      "velocity": 97,
      "chip": "ym2612"
    },
    {
      "channel": 0,
      "note": 78,
      "start": 24.029,
      "duration": 0.0144,
      "velocity": 99,
      "chip": "ym2612"
    },
    {
      "channel": 4,
      "note": 78,
      "start": 24.0448,
      "duration": 0.0201,
      "velocity": 99,
      "chip": "ym2612"
    },
    {
      "channel": 0,
      "note": 79,
      "start": 24.0468,
      "duration": 0.0205,
      "velocity": 99,
      "chip": "ym2612"
    },
    {
      "channel": 2,
      "note": 54,
      "start": 24.0475,
      "duration": 0.0169,
      "velocity": 82,
      "chip": "ym2612"
    },
    {
      "channel": 3,
      "note": 61,
      "start": 24.0513,
      "duration": 0.0093,
      "velocity": 127,
      "chip": "ym2612"
    },
    {
      "channel": 4,
      "note": 78,
      "start": 24.0686,
      "duration": 0.0152,
      "velocity": 99,
      "chip": "ym2612"
    },
    {
      "channel": 0,
      "note": 82,
      "start": 24.0705,
      "duration": 0.0151,
      "velocity": 99,
      "chip": "ym2612"
    },
    {
      "channel": 3,
      "note": 73,
      "start": 24.0716,
      "duration": 0.0092,
      "velocity": 127,
      "chip": "ym2612"
    },
    {
      "channel": 4,
      "note": 79,
      "start": 24.0869,
      "duration": 0.0198,
      "velocity": 99,
      "chip": "ym2612"
    },
    {
      "channel": 0,
      "note": 83,
      "start": 24.0888,
      "duration": 0.0199,
      "velocity": 99,
      "chip": "ym2612"
    },
    {
      "channel": 2,
      "note": 54,
      "start": 24.0896,
      "duration": 0.0162,
      "velocity": 82,
      "chip": "ym2612"
    },
    {
      "channel": 3,
      "note": 73,
      "start": 24.0927,
      "duration": 0.0137,
      "velocity": 127,
      "chip": "ym2612"
    },
    {
      "channel": 4,
      "note": 82,
      "start": 24.1101,
      "duration": 0.0846,
      "velocity": 99,
      "chip": "ym2612"
    },
    {
      "channel": 0,
      "note": 85,
      "start": 24.118,
      "duration": 0.0946,
      "velocity": 99,
      "chip": "ym2612"
    },
    {
      "channel": 4,
      "note": 83,
      "start": 24.2145,
      "duration": 0.094,
      "velocity": 99,
      "chip": "ym2612"
    },
    {
      "channel": 0,
      "note": 86,
      "start": 24.2318,
      "duration": 0.0946,
      "velocity": 99,
      "chip": "ym2612"
    },
    {
      "channel": 2,
      "note": 54,
      "start": 24.2326,
      "duration": 0.0754,
      "velocity": 82,
      "chip": "ym2612"
    },
    {
      "channel": 3,
      "note": 73,
      "start": 24.2332,
      "duration": 0.056,
      "velocity": 127,
      "chip": "ym2612"
    },
    {
      "channel": 4,
      "note": 85,
      "start": 24.3278,
      "duration": 0.0944,
      "velocity": 99,
      "chip": "ym2612"
    },
    {
      "channel": 0,
      "note": 88,
      "start": 24.3455,
      "duration": 0.0946,
      "velocity": 99,
      "chip": "ym2612"
    },
    {
      "channel": 3,
      "note": 73,
      "start": 24.3466,
      "duration": 0.0563,
      "velocity": 127,
      "chip": "ym2612"
    },
    {
      "channel": 4,
      "note": 86,
      "start": 24.4415,
      "duration": 0.0945,
      "velocity": 99,
      "chip": "ym2612"
    },
    {
      "channel": 0,
      "note": 90,
      "start": 24.4593,
      "duration": 0.0946,
      "velocity": 99,
      "chip": "ym2612"
    },
    {
      "channel": 1,
      "note": 70,
      "start": 24.4598,
      "duration": 0.4357,
      "velocity": 97,
      "chip": "ym2612"
    },
    {
      "channel": 2,
      "note": 58,
      "start": 24.4603,
      "duration": 0.0751,
      "velocity": 82,
      "chip": "ym2612"
    },
    {
      "channel": 3,
      "note": 73,
      "start": 24.4637,
      "duration": 0.072,
      "velocity": 127,
      "chip": "ym2612"
    },
    {
      "channel": 4,
      "note": 88,
      "start": 24.5553,
      "duration": 0.0945,
      "velocity": 99,
      "chip": "ym2612"
    },
    {
      "channel": 0,
      "note": 88,
      "start": 24.5731,
      "duration": 0.0946,
      "velocity": 99,
      "chip": "ym2612"
    },
    {
      "channel": 4,
      "note": 90,
      "start": 24.669,
      "duration": 0.0948,
      "velocity": 99,
      "chip": "ym2612"
    },
    {
      "channel": 0,
      "note": 86,
      "start": 24.6868,
      "duration": 0.0947,
      "velocity": 99,
      "chip": "ym2612"
    },
    {
      "channel": 2,
      "note": 58,
      "start": 24.6876,
      "duration": 0.0753,
      "velocity": 82,
      "chip": "ym2612"
    },
    {
      "channel": 3,
      "note": 73,
      "start": 24.6883,
      "duration": 0.056,
      "velocity": 127,
      "chip": "ym2612"
    },
    {
      "channel": 4,
      "note": 88,
      "start": 24.7828,
      "duration": 0.0944,
      "velocity": 99,
      "chip": "ym2612"
    },
    {
      "channel": 0,
      "note": 85,
      "start": 24.8006,
      "duration": 0.0946,
      "velocity": 99,
      "chip": "ym2612"
    },
    {
      "channel": 3,
      "note": 73,
      "start": 24.8016,
      "duration": 0.0564,
      "velocity": 127,
      "chip": "ym2612"
    },
    {
      "channel": 4,
      "note": 86,
      "start": 24.8966,
      "duration": 0.0944,
      "velocity": 99,
      "chip": "ym2612"
    },
    {
      "channel": 0,
      "note": 83,
      "start": 24.9146,
      "duration": 0.0944,
      "velocity": 99,
      "chip": "ym2612"
    },
    {
      "channel": 1,
      "note": 73,
      "start": 24.9151,
      "duration": 0.4354,
      "velocity": 97,
      "chip": "ym2612"
    },
    {
      "channel": 2,
      "note": 61,
      "start": 24.9156,
      "duration": 0.0748,
      "velocity": 82,
      "chip": "ym2612"
    },
    {
      "channel": 3,
      "note": 73,
      "start": 24.9186,
      "duration": 0.0531,
      "velocity": 127,
      "chip": "ym2612"
    },
    {
      "channel": 4,
      "note": 85,
      "start": 25.0103,
      "duration": 0.0944,
      "velocity": 99,
      "chip": "ym2612"
    },
    {
      "channel": 0,
      "note": 82,
      "start": 25.0281,
      "duration": 0.0946,
      "velocity": 99,
      "chip": "ym2612"
    },
    {
      "channel": 3,
      "note": 73,
      "start": 25.0292,
      "duration": 0.0563,
      "velocity": 127,
      "chip": "ym2612"
    },
    {
      "channel": 4,
      "note": 83,
      "start": 25.124,
      "duration": 0.0945,
      "velocity": 99,
      "chip": "ym2612"
    },
    {
      "channel": 0,
      "note": 79,
      "start": 25.1419,
      "duration": 0.0946,
      "velocity": 99,
      "chip": "ym2612"
    },
    {
      "channel": 2,
      "note": 61,
      "start": 25.1426,
      "duration": 0.0754,
      "velocity": 82,
      "chip": "ym2612"
    },
    {
      "channel": 3,
      "note": 73,
      "start": 25.1432,
      "duration": 0.056,
      "velocity": 127,
      "chip": "ym2612"
    },
    {
      "channel": 4,
      "note": 82,
      "start": 25.2378,
      "duration": 0.0946,
      "velocity": 99,
      "chip": "ym2612"
    },
    {
      "channel": 0,
      "note": 78,
      "start": 25.2556,
      "duration": 0.0946,
      "velocity": 99,
      "chip": "ym2612"
    },
    {
      "channel": 3,
      "note": 73,
      "start": 25.2567,
      "duration": 0.0563,
      "velocity": 127,
      "chip": "ym2612"
    },
    {
      "channel": 4,
      "note": 79,
      "start": 25.3516,
      "duration": 0.0379,
      "velocity": 99,
      "chip": "ym2612"
    },
    {
      "channel": 0,
      "note": 83,
      "start": 25.3712,
      "duration": 0.041,
      "velocity": 103,
      "chip": "ym2612"
    },
    {
      "channel": 1,
      "note": 71,
      "start": 25.3723,
      "duration": 0.2985,
      "velocity": 97,
      "chip": "ym2612"
    },
    {
      "channel": 2,
      "note": 59,
      "start": 25.3731,
      "duration": 0.0158,
      "velocity": 82,
      "chip": "ym2612"
    },
    {
      "channel": 3,
      "note": 73,
      "start": 25.3766,
      "duration": 0.0125,
      "velocity": 97,
      "chip": "ym2612"
    },
    {
      "channel": 4,
      "note": 78,
      "start": 25.3964,
      "duration": 0.033,
      "velocity": 103,
      "chip": "ym2612"
    },
    {
      "channel": 0,
      "note": 86,
      "start": 25.4159,
      "duration": 0.0334,
      "velocity": 103,
      "chip": "ym2612"
    },
    {
      "channel": 2,
      "note": 59,
      "start": 25.4168,
      "duration": 0.012,
      "velocity": 82,
      "chip": "ym2612"
    },
    {
      "channel": 3,
      "note": 62,
      "start": 25.4174,
      "duration": 0.0117,
      "velocity": 97,
      "chip": "ym2612"
    },
    {
      "channel": 4,
      "note": 83,
      "start": 25.4328,
      "duration": 0.0341,
      "velocity": 103,
      "chip": "ym2612"
    },
    {
      "channel": 0,
      "note": 93,
      "start": 25.4527,
      "duration": 0.0337,
      "velocity": 103,
      "chip": "ym2612"
    },
    {
      "channel": 2,
      "note": 59,
      "start": 25.4534,
      "duration": 0.0128,
      "velocity": 82,
      "chip": "ym2612"
    },
    {
      "channel": 3,
      "note": 62,
      "start": 25.454,
      "duration": 0.0126,
      "velocity": 97,
      "chip": "ym2612"
    },
    {
      "channel": 4,
      "note": 86,
      "start": 25.4702,
      "duration": 0.0324,
      "velocity": 103,
      "chip": "ym2612"
    },
    {
      "channel": 0,
      "note": 92,
      "start": 25.4894,
      "duration": 0.0702,
      "velocity": 103,
      "chip": "ym2612"
    },
    {
      "channel": 2,
      "note": 59,
      "start": 25.4902,
      "duration": 0.0117,
      "velocity": 82,
      "chip": "ym2612"
    },
    {
      "channel": 3,
      "note": 62,
      "start": 25.4907,
      "duration": 0.0115,
      "velocity": 97,
      "chip": "ym2612"
    },
    {
      "channel": 4,
      "note": 93,
      "start": 25.5068,
      "duration": 0.07,
      "velocity": 103,
      "chip": "ym2612"
    },
    {
      "channel": 2,
      "note": 59,
      "start": 25.5266,
      "duration": 0.0129,
      "velocity": 82,
      "chip": "ym2612"
    },
    {
      "channel": 3,
      "note": 62,
      "start": 25.5275,
      "duration": 0.0124,
      "velocity": 97,
      "chip": "ym2612"
    },
    {
      "channel": 0,
      "note": 88,
      "start": 25.5627,
      "duration": 0.0337,
      "velocity": 103,
      "chip": "ym2612"
    },
    {
      "channel": 2,
      "note": 59,
      "start": 25.5635,
      "duration": 0.0127,
      "velocity": 82,
      "chip": "ym2612"
    },
    {
      "channel": 3,
      "note": 62,
      "start": 25.564,
      "duration": 0.0124,
      "velocity": 97,
      "chip": "ym2612"
    },
    {
      "channel": 4,
      "note": 92,
      "start": 25.5802,
      "duration": 0.0339,
      "velocity": 103,
      "chip": "ym2612"
    },
    {
      "channel": 0,
      "note": 92,
      "start": 25.6002,
      "duration": 0.0332,
      "velocity": 103,
      "chip": "ym2612"
    },
    {
      "channel": 2,
      "note": 59,
      "start": 25.6009,
      "duration": 0.0125,
      "velocity": 82,
      "chip": "ym2612"
    },
    {
      "channel": 3,
      "note": 62,
      "start": 25.6015,
      "duration": 0.0123,
      "velocity": 97,
      "chip": "ym2612"
    },
    {
      "channel": 4,
      "note": 88,
      "start": 25.618,
      "duration": 0.0323,
      "velocity": 103,
      "chip": "ym2612"
    },
    {
      "channel": 0,
      "note": 91,
      "start": 25.6365,
      "duration": 0.0714,
      "velocity": 103,
      "chip": "ym2612"
    },
    {
      "channel": 2,
      "note": 59,
      "start": 25.6373,
      "duration": 0.0124,
      "velocity": 82,
      "chip": "ym2612"
    },
    {
      "channel": 3,
      "note": 62,
      "start": 25.6381,
      "duration": 0.0119,
      "velocity": 97,
      "chip": "ym2612"
    },
    {
      "channel": 4,
      "note": 92,
      "start": 25.6537,
      "duration": 0.0702,
      "velocity": 103,
      "chip": "ym2612"
    },
    {
      "channel": 1,
      "note": 70,
      "start": 25.6744,
      "duration": 0.2953,
      "velocity": 97,
      "chip": "ym2612"
    },
    {
      "channel": 2,
      "note": 59,
      "start": 25.675,
      "duration": 0.013,
      "velocity": 82,
      "chip": "ym2612"
    },
    {
      "channel": 3,
      "note": 62,
      "start": 25.6758,
      "duration": 0.0125,
      "velocity": 97,
      "chip": "ym2612"
    },
    {
      "channel": 0,
      "note": 88,
      "start": 25.7109,
      "duration": 0.0334,
      "velocity": 103,
      "chip": "ym2612"
    },
    {
      "channel": 2,
      "note": 59,
      "start": 25.7116,
      "duration": 0.0116,
      "velocity": 82,
      "chip": "ym2612"
    },
    {
      "channel": 3,
      "note": 62,
      "start": 25.7122,
      "duration": 0.0113,
      "velocity": 97,
      "chip": "ym2612"
    },
    {
      "channel": 4,
      "note": 91,
      "start": 25.7273,
      "duration": 0.0366,
      "velocity": 103,
      "chip": "ym2612"
    },
    {
      "channel": 0,
      "note": 91,
      "start": 25.7487,
      "duration": 0.0353,
      "velocity": 103,
      "chip": "ym2612"
    },
    {
      "channel": 2,
      "note": 59,
      "start": 25.7494,
      "duration": 0.0138,
      "velocity": 82,
      "chip": "ym2612"
    },
    {
      "channel": 3,
      "note": 62,
      "start": 25.75,
      "duration": 0.0136,
      "velocity": 97,
      "chip": "ym2612"
    },
    {
      "channel": 4,
      "note": 88,
      "start": 25.7677,
      "duration": 0.0337,
      "velocity": 103,
      "chip": "ym2612"
    },
    {
      "channel": 0,
      "note": 90,
      "start": 25.787,
      "duration": 0.0703,
      "velocity": 103,
      "chip": "ym2612"
    },
    {
      "channel": 2,
      "note": 59,
      "start": 25.7878,
      "duration": 0.0129,
      "velocity": 82,
      "chip": "ym2612"
    },
    {
      "channel": 3,
      "note": 62,
      "start": 25.7884,
      "duration": 0.0126,
      "velocity": 97,
      "chip": "ym2612"
    },
    {
      "channel": 4,
      "note": 91,
      "start": 25.8048,
      "duration": 0.07,
      "velocity": 103,
      "chip": "ym2612"
    },
    {
      "channel": 2,
      "note": 59,
      "start": 25.825,
      "duration": 0.0124,
      "velocity": 82,
      "chip": "ym2612"
    },
    {
      "channel": 3,
      "note": 62,
      "start": 25.8256,
      "duration": 0.0122,
      "velocity": 97,
      "chip": "ym2612"
    },
    {
      "channel": 0,
      "note": 86,
      "start": 25.8604,
      "duration": 0.0342,
      "velocity": 103,
      "chip": "ym2612"
    },
    {
      "channel": 2,
      "note": 59,
      "start": 25.8612,
      "duration": 0.0129,
      "velocity": 82,
      "chip": "ym2612"
    },
    {
      "channel": 3,
      "note": 62,
      "start": 25.8618,
      "duration": 0.0126,
      "velocity": 97,
      "chip": "ym2612"
    },
    {
      "channel": 4,
      "note": 90,
      "start": 25.8781,
      "duration": 0.0351,
      "velocity": 103,
      "chip": "ym2612"
    },
    {
      "channel": 0,
      "note": 83,
      "start": 25.8988,
      "duration": 0.0332,
      "velocity": 103,
      "chip": "ym2612"
    },
    {
      "channel": 2,
      "note": 59,
      "start": 25.8995,
      "duration": 0.013,
      "velocity": 82,
      "chip": "ym2612"
    },
    {
      "channel": 3,
      "note": 62,
      "start": 25.9001,
      "duration": 0.0127,
      "velocity": 97,
      "chip": "ym2612"
    },
    {
      "channel": 4,
      "note": 86,
      "start": 25.9166,
      "duration": 0.0328,
      "velocity": 103,
      "chip": "ym2612"
    },
    {
      "channel": 0,
      "note": 78,
      "start": 25.9356,
      "duration": 0.0339,
      "velocity": 103,
      "chip": "ym2612"
    },
    {
      "channel": 2,
      "note": 59,
      "start": 25.9363,
      "duration": 0.0125,
      "velocity": 82,
      "chip": "ym2612"
    },
    {
      "channel": 3,
      "note": 62,
      "start": 25.9369,
      "duration": 0.0122,
      "velocity": 97,
      "chip": "ym2612"
    },
    {
      "channel": 4,
      "note": 83,
      "start": 25.9529,
      "duration": 0.0973,
      "velocity": 103,
      "chip": "ym2612"
    },
    {
      "channel": 0,
      "note": 53,
      "start": 25.9747,
      "duration": 0.4342,
      "velocity": 103,
      "chip": "ym2612"
    },
    {
      "channel": 1,
      "note": 71,
      "start": 25.9752,
      "duration": 0.434,
      "velocity": 97,
      "chip": "ym2612"
    },
    {
      "channel": 2,
      "note": 46,
      "start": 25.9782,
      "duration": 0.0709,
      "velocity": 97,
      "chip": "ym2612"
    },
    {
      "channel": 3,
      "note": 62,
      "start": 25.9816,
      "duration": 0.0302,
      "velocity": 127,
      "chip": "ym2612"
    },
    {
      "channel": 3,
      "note": 73,
      "start": 26.012,
      "duration": 0.0374,
      "velocity": 127,
      "chip": "ym2612"
    },
    {
      "channel": 3,
      "note": 73,
      "start": 26.0497,
      "duration": 0.0378,
      "velocity": 127,
      "chip": "ym2612"
    },
    {
      "channel": 4,
      "note": 78,
      "start": 26.0714,
      "duration": 0.4333,
      "velocity": 103,
      "chip": "ym2612"
    },
    {
      "channel": 2,
      "note": 46,
      "start": 26.0873,
      "duration": 0.0756,
      "velocity": 97,
      "chip": "ym2612"
    },
    {
      "channel": 3,
      "note": 73,
      "start": 26.0879,
      "duration": 0.0373,
      "velocity": 127,
      "chip": "ym2612"
    },
    {
      "channel": 3,
      "note": 73,
      "start": 26.1256,
      "duration": 0.0376,
      "velocity": 127,
      "chip": "ym2612"
    },
    {
      "channel": 3,
      "note": 73,
      "start": 26.1635,
      "duration": 0.0379,
      "velocity": 127,
      "chip": "ym2612"
    },
    {
      "channel": 2,
      "note": 46,
      "start": 26.201,
      "duration": 0.0759,
      "velocity": 97,
      "chip": "ym2612"
    },
    {
      "channel": 3,
      "note": 73,
      "start": 26.2016,
      "duration": 0.0373,
      "velocity": 127,
      "chip": "ym2612"
    },
    {
      "channel": 3,
      "note": 73,
      "start": 26.2393,
      "duration": 0.0379,
      "velocity": 127,
      "chip": "ym2612"
    },
    {
      "channel": 3,
      "note": 73,
      "start": 26.2802,
      "duration": 0.0349,
      "velocity": 127,
      "chip": "ym2612"
    },
    {
      "channel": 2,
      "note": 46,
      "start": 26.3147,
      "duration": 0.0757,
      "velocity": 97,
      "chip": "ym2612"
    },
    {
      "channel": 3,
      "note": 73,
      "start": 26.3154,
      "duration": 0.0373,
      "velocity": 127,
      "chip": "ym2612"
    },
    {
      "channel": 3,
      "note": 73,
      "start": 26.353,
      "duration": 0.0376,
      "velocity": 127,
      "chip": "ym2612"
    },
    {
      "channel": 3,
      "note": 73,
      "start": 26.391,
      "duration": 0.0386,
      "velocity": 127,
      "chip": "ym2612"
    },
    {
      "channel": 0,
      "note": 54,
      "start": 26.4283,
      "duration": 0.1134,
      "velocity": 103,
      "chip": "ym2612"
    },
    {
      "channel": 1,
      "note": 74,
      "start": 26.4288,
      "duration": 0.0941,
      "velocity": 97,
      "chip": "ym2612"
    },
    {
      "channel": 2,
      "note": 47,
      "start": 26.4293,
      "duration": 0.0749,
      "velocity": 97,
      "chip": "ym2612"
    },
    {
      "channel": 3,
      "note": 73,
      "start": 26.4325,
      "duration": 0.2995,
      "velocity": 127,
      "chip": "ym2612"
    },
    {
      "channel": 4,
      "note": 53,
      "start": 26.5239,
      "duration": 0.1135,
      "velocity": 103,
      "chip": "ym2612"
    },
    {
      "channel": 0,
      "note": 53,
      "start": 26.8831,
      "duration": 0.4359,
      "velocity": 103,
      "chip": "ym2612"
    },
    {
      "channel": 1,
      "note": 71,
      "start": 26.8836,
      "duration": 0.4357,
      "velocity": 97,
      "chip": "ym2612"
    },
    {
      "channel": 2,
      "note": 46,
      "start": 26.8841,
      "duration": 0.0751,
      "velocity": 97,
      "chip": "ym2612"
    },
    {
      "channel": 3,
      "note": 73,
      "start": 26.8872,
      "duration": 0.0344,
      "velocity": 127,
      "chip": "ym2612"
    },
    {
      "channel": 3,
      "note": 73,
      "start": 26.9219,
      "duration": 0.0377,
      "velocity": 127,
      "chip": "ym2612"
    },
    {
      "channel": 3,
      "note": 73,
      "start": 26.9598,
      "duration": 0.0378,
      "velocity": 127,
      "chip": "ym2612"
    },
    {
      "channel": 4,
      "note": 54,
      "start": 26.9792,
      "duration": 0.4357,
      "velocity": 103,
      "chip": "ym2612"
    },
    {
      "channel": 2,
      "note": 46,
      "start": 26.9973,
      "duration": 0.0757,
      "velocity": 97,
      "chip": "ym2612"
    },
    {
      "channel": 3,
      "note": 73,
      "start": 26.998,
      "duration": 0.0373,
      "velocity": 127,
      "chip": "ym2612"
    },
    {
      "channel": 3,
      "note": 73,
      "start": 27.0357,
      "duration": 0.0376,
      "velocity": 127,
      "chip": "ym2612"
    },
    {
      "channel": 3,
      "note": 73,
      "start": 27.0736,
      "duration": 0.0382,
      "velocity": 127,
      "chip": "ym2612"
    },
    {
      "channel": 2,
      "note": 46,
      "start": 27.1115,
      "duration": 0.0752,
      "velocity": 97,
      "chip": "ym2612"
    },
    {
      "channel": 3,
      "note": 73,
      "start": 27.1121,
      "duration": 0.037,
      "velocity": 127,
      "chip": "ym2612"
    },
    {
      "channel": 3,
      "note": 73,
      "start": 27.1494,
      "duration": 0.0376,
      "velocity": 127,
      "chip": "ym2612"
    },
    {
      "channel": 3,
      "note": 73,
      "start": 27.1898,
      "duration": 0.0354,
      "velocity": 127,
      "chip": "ym2612"
    },
    {
      "channel": 2,
      "note": 46,
      "start": 27.2249,
      "duration": 0.0756,
      "velocity": 97,
      "chip": "ym2612"
    },
    {
      "channel": 3,
      "note": 73,
      "start": 27.2255,
      "duration": 0.0373,
      "velocity": 127,
      "chip": "ym2612"
    },
    {
      "channel": 3,
      "note": 73,
      "start": 27.2632,
      "duration": 0.0376,
      "velocity": 127,
      "chip": "ym2612"
    },
    {
      "channel": 3,
      "note": 73,
      "start": 27.3011,
      "duration": 0.0384,
      "velocity": 127,
      "chip": "ym2612"
    },
    {
      "channel": 0,
      "note": 54,
      "start": 27.3381,
      "duration": 0.1136,
      "velocity": 103,
      "chip": "ym2612"
    },
    {
      "channel": 1,
      "note": 74,
      "start": 27.3387,
      "duration": 0.0943,
      "velocity": 97,
      "chip": "ym2612"
    },
    {
      "channel": 2,
      "note": 47,
      "start": 27.3392,
      "duration": 0.0751,
      "velocity": 97,
      "chip": "ym2612"
    },
    {
      "channel": 3,
      "note": 73,
      "start": 27.3423,
      "duration": 0.2997,
      "velocity": 127,
      "chip": "ym2612"
    },
    {
      "channel": 4,
      "note": 53,
      "start": 27.434,
      "duration": 0.1135,
      "velocity": 103,
      "chip": "ym2612"
    },
    {
      "channel": 0,
      "note": 66,
      "start": 27.7956,
      "duration": 0.0922,
      "velocity": 100,
      "chip": "ym2612"
    },
    {
      "channel": 1,
      "note": 78,
      "start": 27.7962,
      "duration": 0.8882,
      "velocity": 97,
      "chip": "ym2612"
    },
    {
      "channel": 2,
      "note": 54,
      "start": 27.7986,
      "duration": 0.0707,
      "velocity": 82,
      "chip": "ym2612"
    },
    {
      "channel": 3,
      "note": 73,
      "start": 27.8017,
      "duration": 0.0678,
      "velocity": 127,
      "chip": "ym2612"
    },
    {
      "channel": 4,
      "note": 54,
      "start": 27.892,
      "duration": 0.0917,
      "velocity": 100,
      "chip": "ym2612"
    },
    {
      "channel": 0,
      "note": 67,
      "start": 28.0208,
      "duration": 0.0946,
      "velocity": 100,
      "chip": "ym2612"
    },
    {
      "channel": 2,
      "note": 55,
      "start": 28.0215,
      "duration": 0.0753,
      "velocity": 82,
      "chip": "ym2612"
    },
    {
      "channel": 3,
      "note": 73,
      "start": 28.0245,
      "duration": 0.0726,
      "velocity": 127,
      "chip": "ym2612"
    },
    {
      "channel": 4,
      "note": 66,
      "start": 28.1167,
      "duration": 0.0949,
      "velocity": 100,
      "chip": "ym2612"
    },
    {
      "channel": 0,
      "note": 66,
      "start": 28.2483,
      "duration": 0.0946,
      "velocity": 100,
      "chip": "ym2612"
    },
    {
      "channel": 2,
      "note": 54,
      "start": 28.249,
      "duration": 0.0753,
      "velocity": 82,
      "chip": "ym2612"
    },
    {
      "channel": 3,
      "note": 73,
      "start": 28.2496,
      "duration": 0.0751,
      "velocity": 127,
      "chip": "ym2612"
    },
    {
      "channel": 4,
      "note": 67,
      "start": 28.3448,
      "duration": 0.0939,
      "velocity": 100,
      "chip": "ym2612"
    },
    {
      "channel": 0,
      "note": 65,
      "start": 28.4758,
      "duration": 0.0946,
      "velocity": 100,
      "chip": "ym2612"
    },
    {
      "channel": 2,
      "note": 53,
      "start": 28.4766,
      "duration": 0.0754,
      "velocity": 82,
      "chip": "ym2612"
    },
    {
      "channel": 3,
      "note": 73,
      "start": 28.4774,
      "duration": 0.0748,
      "velocity": 127,
      "chip": "ym2612"
    },
    {
      "channel": 4,
      "note": 66,
      "start": 28.5718,
      "duration": 0.0944,
      "velocity": 100,
      "chip": "ym2612"
    },
    {
      "channel": 0,
      "note": 66,
      "start": 28.7033,
      "duration": 0.0946,
      "velocity": 100,
      "chip": "ym2612"
    },
    {
      "channel": 1,
      "note": 82,
      "start": 28.7038,
      "duration": 0.8909,
      "velocity": 97,
      "chip": "ym2612"
    },
    {
      "channel": 2,
      "note": 54,
      "start": 28.7043,
      "duration": 0.0751,
      "velocity": 82,
      "chip": "ym2612"
    },
    {
      "channel": 3,
      "note": 73,
      "start": 28.7049,
      "duration": 0.0748,
      "velocity": 127,
      "chip": "ym2612"
    },
    {
      "channel": 4,
      "note": 65,
      "start": 28.7993,
      "duration": 0.0947,
      "velocity": 100,
      "chip": "ym2612"
    },
    {
      "channel": 0,
      "note": 61,
      "start": 28.9308,
      "duration": 0.0946,
      "velocity": 100,
      "chip": "ym2612"
    },
    {
      "channel": 2,
      "note": 54,
      "start": 28.9315,
      "duration": 0.0754,
      "velocity": 82,
      "chip": "ym2612"
    },
    {
      "channel": 3,
      "note": 73,
      "start": 28.9346,
      "duration": 0.0727,
      "velocity": 127,
      "chip": "ym2612"
    },
    {
      "channel": 4,
      "note": 66,
      "start": 29.0271,
      "duration": 0.0941,
      "velocity": 100,
      "chip": "ym2612"
    },
    {
      "channel": 0,
      "note": 58,
      "start": 29.1584,
      "duration": 0.0946,
      "velocity": 100,
      "chip": "ym2612"
    },
    {
      "channel": 2,
      "note": 54,
      "start": 29.1591,
      "duration": 0.0753,
      "velocity": 82,
      "chip": "ym2612"
    },
    {
      "channel": 3,
      "note": 73,
      "start": 29.1627,
      "duration": 0.0531,
      "velocity": 127,
      "chip": "ym2612"
    },
    {
      "channel": 4,
      "note": 61,
      "start": 29.2544,
      "duration": 0.0944,
      "velocity": 100,
      "chip": "ym2612"
    },
    {
      "channel": 3,
      "note": 73,
      "start": 29.273,
      "duration": 0.0566,
      "velocity": 127,
      "chip": "ym2612"
    },
    {
      "channel": 0,
      "note": 54,
      "start": 29.3859,
      "duration": 0.0946,
      "velocity": 100,
      "chip": "ym2612"
    },
    {
      "channel": 2,
      "note": 54,
      "start": 29.3866,
      "duration": 0.0754,
      "velocity": 82,
      "chip": "ym2612"
    },
    {
      "channel": 3,
      "note": 73,
      "start": 29.3872,
      "duration": 0.0561,
      "velocity": 127,
      "chip": "ym2612"
    },
    {
      "channel": 4,
      "note": 58,
      "start": 29.4819,
      "duration": 0.0944,
      "velocity": 100,
      "chip": "ym2612"
    },
    {
      "channel": 3,
      "note": 73,
      "start": 29.5005,
      "duration": 0.0566,
      "velocity": 127,
      "chip": "ym2612"
    },
    {
      "channel": 0,
      "note": 83,
      "start": 29.6152,
      "duration": 0.0405,
      "velocity": 103,
      "chip": "ym2612"
    },
    {
      "channel": 1,
      "note": 71,
      "start": 29.6159,
      "duration": 0.3008,
      "velocity": 97,
      "chip": "ym2612"
    },
    {
      "channel": 2,
      "note": 59,
      "start": 29.6166,
      "duration": 0.0156,
      "velocity": 82,
      "chip": "ym2612"
    },
    {
      "channel": 3,
      "note": 73,
      "start": 29.6202,
      "duration": 0.0123,
      "velocity": 97,
      "chip": "ym2612"
    },
    {
      "channel": 4,
      "note": 54,
      "start": 29.6396,
      "duration": 0.0339,
      "velocity": 103,
      "chip": "ym2612"
    },
    {
      "channel": 0,
      "note": 86,
      "start": 29.6588,
      "duration": 0.0341,
      "velocity": 103,
      "chip": "ym2612"
    },
    {
      "channel": 2,
      "note": 59,
      "start": 29.6594,
      "duration": 0.0134,
      "velocity": 82,
      "chip": "ym2612"
    },
    {
      "channel": 3,
      "note": 62,
      "start": 29.6601,
      "duration": 0.0131,
      "velocity": 97,
      "chip": "ym2612"
    },
    {
      "channel": 4,
      "note": 83,
      "start": 29.6768,
      "duration": 0.0342,
      "velocity": 103,
      "chip": "ym2612"
    },
    {
      "channel": 0,
      "note": 93,
      "start": 29.6968,
      "duration": 0.034,
      "velocity": 103,
      "chip": "ym2612"
    },
    {
      "channel": 2,
      "note": 59,
      "start": 29.6976,
      "duration": 0.0129,
      "velocity": 82,
      "chip": "ym2612"
    },
    {
      "channel": 3,
      "note": 62,
      "start": 29.6981,
      "duration": 0.0127,
      "velocity": 97,
      "chip": "ym2612"
    },
    {
      "channel": 4,
      "note": 86,
      "start": 29.7145,
      "duration": 0.0326,
      "velocity": 103,
      "chip": "ym2612"
    },
    {
      "channel": 0,
      "note": 92,
      "start": 29.7341,
      "duration": 0.0709,
      "velocity": 103,
      "chip": "ym2612"
    },
    {
      "channel": 2,
      "note": 59,
      "start": 29.7348,
      "duration": 0.0117,
      "velocity": 82,
      "chip": "ym2612"
    },
    {
      "channel": 3,
      "note": 62,
      "start": 29.7354,
      "duration": 0.0114,
      "velocity": 97,
      "chip": "ym2612"
    },
    {
      "channel": 4,
      "note": 93,
      "start": 29.7505,
      "duration": 0.0716,
      "velocity": 103,
      "chip": "ym2612"
    },
    {
      "channel": 2,
      "note": 59,
      "start": 29.7712,
      "duration": 0.0132,
      "velocity": 82,
      "chip": "ym2612"
    },
    {
      "channel": 3,
      "note": 62,
      "start": 29.7717,
      "duration": 0.0129,
      "velocity": 97,
      "chip": "ym2612"
    },
    {
      "channel": 0,
      "note": 88,
      "start": 29.808,
      "duration": 0.0343,
      "velocity": 103,
      "chip": "ym2612"
    },
    {
      "channel": 2,
      "note": 59,
      "start": 29.8087,
      "duration": 0.0125,
      "velocity": 82,
      "chip": "ym2612"
    },
    {
      "channel": 3,
      "note": 62,
      "start": 29.8094,
      "duration": 0.0124,
      "velocity": 97,
      "chip": "ym2612"
    },
    {
      "channel": 4,
      "note": 92,
      "start": 29.8258,
      "duration": 0.0347,
      "velocity": 103,
      "chip": "ym2612"
    },
    {
      "channel": 0,
      "note": 92,
      "start": 29.8466,
      "duration": 0.0337,
      "velocity": 103,
      "chip": "ym2612"
    },
    {
      "channel": 2,
      "note": 59,
      "start": 29.8474,
      "duration": 0.0125,
      "velocity": 82,
      "chip": "ym2612"
    },
    {
      "channel": 3,
      "note": 62,
      "start": 29.848,
      "duration": 0.0122,
      "velocity": 97,
      "chip": "ym2612"
    },
    {
      "channel": 4,
      "note": 88,
      "start": 29.864,
      "duration": 0.0331,
      "velocity": 103,
      "chip": "ym2612"
    },
    {
      "channel": 0,
      "note": 91,
      "start": 29.8834,
      "duration": 0.0702,
      "velocity": 103,
      "chip": "ym2612"
    },
    {
      "channel": 2,
      "note": 59,
      "start": 29.8842,
      "duration": 0.0123,
      "velocity": 82,
      "chip": "ym2612"
    },
    {
      "channel": 3,
      "note": 62,
      "start": 29.8848,
      "duration": 0.012,
      "velocity": 97,
      "chip": "ym2612"
    },
    {
      "channel": 4,
      "note": 92,
      "start": 29.9006,
      "duration": 0.0707,
      "velocity": 103,
      "chip": "ym2612"
    },
    {
      "channel": 1,
      "note": 70,
      "start": 29.9205,
      "duration": 0.293,
      "velocity": 97,
      "chip": "ym2612"
    },
    {
      "channel": 2,
      "note": 59,
      "start": 29.9212,
      "duration": 0.0124,
      "velocity": 82,
      "chip": "ym2612"
    },
    {
      "channel": 3,
      "note": 62,
      "start": 29.9219,
      "duration": 0.0123,
      "velocity": 97,
      "chip": "ym2612"
    },
    {
      "channel": 0,
      "note": 88,
      "start": 29.9575,
      "duration": 0.0328,
      "velocity": 103,
      "chip": "ym2612"
    },
    {
      "channel": 2,
      "note": 59,
      "start": 29.9582,
      "duration": 0.0124,
      "velocity": 82,
      "chip": "ym2612"
    },
    {
      "channel": 3,
      "note": 62,
      "start": 29.9588,
      "duration": 0.0121,
      "velocity": 97,
      "chip": "ym2612"
    },
    {
      "channel": 4,
      "note": 91,
      "start": 29.9746,
      "duration": 0.0341,
      "velocity": 103,
      "chip": "ym2612"
    },
    {
      "channel": 0,
      "note": 91,
      "start": 29.9943,
      "duration": 0.0338,
      "velocity": 103,
      "chip": "ym2612"
    },
    {
      "channel": 2,
      "note": 59,
      "start": 29.9951,
      "duration": 0.0131,
      "velocity": 82,
      "chip": "ym2612"
    },
    {
      "channel": 3,
      "note": 62,
      "start": 29.9956,
      "duration": 0.0128,
      "velocity": 97,
      "chip": "ym2612"
    },
    {
      "channel": 4,
      "note": 88,
      "start": 30.0122,
      "duration": 0.0325,
      "velocity": 103,
      "chip": "ym2612"
    },
    {
      "channel": 0,
      "note": 90,
      "start": 30.0311,
      "duration": 0.0703,
      "velocity": 103,
      "chip": "ym2612"
    },
    {
      "channel": 2,
      "note": 59,
      "start": 30.0319,
      "duration": 0.0121,
      "velocity": 82,
      "chip": "ym2612"
    },
    {
      "channel": 3,
      "note": 62,
      "start": 30.0325,
      "duration": 0.0119,
      "velocity": 97,
      "chip": "ym2612"
    },
    {
      "channel": 4,
      "note": 91,
      "start": 30.0488,
      "duration": 0.0695,
      "velocity": 103,
      "chip": "ym2612"
    },
    {
      "channel": 2,
      "note": 59,
      "start": 30.0695,
      "duration": 0.0121,
      "velocity": 82,
      "chip": "ym2612"
    },
    {
      "channel": 3,
      "note": 62,
      "start": 30.0701,
      "duration": 0.0118,
      "velocity": 97,
      "chip": "ym2612"
    },
    {
      "channel": 0,
      "note": 86,
      "start": 30.1045,
      "duration": 0.0333,
      "velocity": 103,
      "chip": "ym2612"
    },
    {
      "channel": 2,
      "note": 59,
      "start": 30.1053,
      "duration": 0.0124,
      "velocity": 82,
      "chip": "ym2612"
    },
    {
      "channel": 3,
      "note": 62,
      "start": 30.1059,
      "duration": 0.012,
      "velocity": 97,
      "chip": "ym2612"
    },
    {
      "channel": 4,
      "note": 90,
      "start": 30.1217,
      "duration": 0.0337,
      "velocity": 103,
      "chip": "ym2612"
    },
    {
      "channel": 0,
      "note": 83,
      "start": 30.1415,
      "duration": 0.0339,
      "velocity": 103,
      "chip": "ym2612"
    },
    {
      "channel": 2,
      "note": 59,
      "start": 30.1422,
      "duration": 0.0125,
      "velocity": 82,
      "chip": "ym2612"
    },
    {
      "channel": 3,
      "note": 62,
      "start": 30.1428,
      "duration": 0.0123,
      "velocity": 97,
      "chip": "ym2612"
    },
    {
      "channel": 4,
      "note": 86,
      "start": 30.1597,
      "duration": 0.0333,
      "velocity": 103,
      "chip": "ym2612"
    },
    {
      "channel": 0,
      "note": 78,
      "start": 30.1789,
      "duration": 0.0344,
      "velocity": 103,
      "chip": "ym2612"
    },
    {
      "channel": 2,
      "note": 59,
      "start": 30.1799,
      "duration": 0.0124,
      "velocity": 82,
      "chip": "ym2612"
    },
    {
      "channel": 3,
      "note": 62,
      "start": 30.1808,
      "duration": 0.0119,
      "velocity": 97,
      "chip": "ym2612"
    },
    {
      "channel": 4,
      "note": 83,
      "start": 30.1963,
      "duration": 0.0975,
      "velocity": 103,
      "chip": "ym2612"
    },
    {
      "channel": 0,
      "note": 53,
      "start": 30.2184,
      "duration": 0.4342,
      "velocity": 103,
      "chip": "ym2612"
    },
    {
      "channel": 1,
      "note": 71,
      "start": 30.2189,
      "duration": 0.434,
      "velocity": 97,
      "chip": "ym2612"
    },
    {
      "channel": 2,
      "note": 46,
      "start": 30.2214,
      "duration": 0.0715,
      "velocity": 97,
      "chip": "ym2612"
    },
    {
      "channel": 3,
      "note": 62,
      "start": 30.2253,
      "duration": 0.0298,
      "velocity": 127,
      "chip": "ym2612"
    },
    {
      "channel": 3,
      "note": 73,
      "start": 30.2555,
      "duration": 0.0377,
      "velocity": 127,
      "chip": "ym2612"
    },
    {
      "channel": 3,
      "note": 73,
      "start": 30.2934,
      "duration": 0.0378,
      "velocity": 127,
      "chip": "ym2612"
    },
    {
      "channel": 4,
      "note": 78,
      "start": 30.3151,
      "duration": 0.4333,
      "velocity": 103,
      "chip": "ym2612"
    },
    {
      "channel": 2,
      "note": 46,
      "start": 30.3309,
      "duration": 0.076,
      "velocity": 97,
      "chip": "ym2612"
    },
    {
      "channel": 3,
      "note": 73,
      "start": 30.3316,
      "duration": 0.0373,
      "velocity": 127,
      "chip": "ym2612"
    },
    {
      "channel": 3,
      "note": 73,
      "start": 30.3692,
      "duration": 0.0382,
      "velocity": 127,
      "chip": "ym2612"
    },
    {
      "channel": 3,
      "note": 73,
      "start": 30.4077,
      "duration": 0.0374,
      "velocity": 127,
      "chip": "ym2612"
    },
    {
      "channel": 2,
      "note": 46,
      "start": 30.4447,
      "duration": 0.0756,
      "velocity": 97,
      "chip": "ym2612"
    },
    {
      "channel": 3,
      "note": 73,
      "start": 30.4454,
      "duration": 0.0373,
      "velocity": 127,
      "chip": "ym2612"
    },
    {
      "channel": 3,
      "note": 73,
      "start": 30.4829,
      "duration": 0.0377,
      "velocity": 127,
      "chip": "ym2612"
    },
    {
      "channel": 3,
      "note": 73,
      "start": 30.5237,
      "duration": 0.0351,
      "velocity": 127,
      "chip": "ym2612"
    },
    {
      "channel": 2,
      "note": 46,
      "start": 30.5585,
      "duration": 0.0756,
      "velocity": 97,
      "chip": "ym2612"
    },
    {
      "channel": 3,
      "note": 73,
      "start": 30.5591,
      "duration": 0.0373,
      "velocity": 127,
      "chip": "ym2612"
    },
    {
      "channel": 3,
      "note": 73,
      "start": 30.5968,
      "duration": 0.0376,
      "velocity": 127,
      "chip": "ym2612"
    },
    {
      "channel": 3,
      "note": 73,
      "start": 30.6347,
      "duration": 0.0387,
      "velocity": 127,
      "chip": "ym2612"
    },
    {
      "channel": 0,
      "note": 54,
      "start": 30.6718,
      "duration": 0.1135,
      "velocity": 103,
      "chip": "ym2612"
    },
    {
      "channel": 1,
      "note": 74,
      "start": 30.6723,
      "duration": 0.0943,
      "velocity": 97,
      "chip": "ym2612"
    },
    {
      "channel": 2,
      "note": 47,
      "start": 30.6728,
      "duration": 0.0751,
      "velocity": 97,
      "chip": "ym2612"
    },
    {
      "channel": 3,
      "note": 73,
      "start": 30.6765,
      "duration": 0.2992,
      "velocity": 127,
      "chip": "ym2612"
    },
    {
      "channel": 4,
      "note": 53,
      "start": 30.7676,
      "duration": 0.1135,
      "velocity": 103,
      "chip": "ym2612"
    },
    {
      "channel": 0,
      "note": 53,
      "start": 31.1268,
      "duration": 0.4359,
      "velocity": 103,
      "chip": "ym2612"
    },
    {
      "channel": 1,
      "note": 71,
      "start": 31.1273,
      "duration": 0.4356,
      "velocity": 97,
      "chip": "ym2612"
    },
    {
      "channel": 2,
      "note": 46,
      "start": 31.1278,
      "duration": 0.075,
      "velocity": 97,
      "chip": "ym2612"
    },
    {
      "channel": 3,
      "note": 73,
      "start": 31.1309,
      "duration": 0.0344,
      "velocity": 127,
      "chip": "ym2612"
    },
    {
      "channel": 3,
      "note": 73,
      "start": 31.1656,
      "duration": 0.0376,
      "velocity": 127,
      "chip": "ym2612"
    },
    {
      "channel": 3,
      "note": 73,
      "start": 31.2035,
      "duration": 0.0381,
      "velocity": 127,
      "chip": "ym2612"
    },
    {
      "channel": 4,
      "note": 54,
      "start": 31.2226,
      "duration": 0.4361,
      "velocity": 103,
      "chip": "ym2612"
    },
    {
      "channel": 2,
      "note": 46,
      "start": 31.2412,
      "duration": 0.0755,
      "velocity": 97,
      "chip": "ym2612"
    },
    {
      "channel": 3,
      "note": 73,
      "start": 31.2419,
      "duration": 0.0371,
      "velocity": 127,
      "chip": "ym2612"
    },
    {
      "channel": 3,
      "note": 73,
      "start": 31.2793,
      "duration": 0.0377,
      "velocity": 127,
      "chip": "ym2612"
    },
    {
      "channel": 3,
      "note": 73,
      "start": 31.3173,
      "duration": 0.0378,
      "velocity": 127,
      "chip": "ym2612"
    },
    {
      "channel": 2,
      "note": 46,
      "start": 31.3548,
      "duration": 0.0756,
      "velocity": 97,
      "chip": "ym2612"
    },
    {
      "channel": 3,
      "note": 73,
      "start": 31.3555,
      "duration": 0.0373,
      "velocity": 127,
      "chip": "ym2612"
    },
    {
      "channel": 3,
      "note": 73,
      "start": 31.3931,
      "duration": 0.0377,
      "velocity": 127,
      "chip": "ym2612"
    },
    {
      "channel": 3,
      "note": 73,
      "start": 31.4334,
      "duration": 0.0355,
      "velocity": 127,
      "chip": "ym2612"
    },
    {
      "channel": 2,
      "note": 46,
      "start": 31.4686,
      "duration": 0.0756,
      "velocity": 97,
      "chip": "ym2612"
    },
    {
      "channel": 3,
      "note": 73,
      "start": 31.4692,
      "duration": 0.0376,
      "velocity": 127,
      "chip": "ym2612"
    },
    {
      "channel": 3,
      "note": 73,
      "start": 31.5071,
      "duration": 0.0373,
      "velocity": 127,
      "chip": "ym2612"
    },
    {
      "channel": 3,
      "note": 73,
      "start": 31.5448,
      "duration": 0.0384,
      "velocity": 127,
      "chip": "ym2612"
    },
    {
      "channel": 0,
      "note": 54,
      "start": 31.5819,
      "duration": 0.1136,
      "velocity": 103,
      "chip": "ym2612"
    },
    {
      "channel": 1,
      "note": 74,
      "start": 31.5824,
      "duration": 0.0943,
      "velocity": 97,
      "chip": "ym2612"
    },
    {
      "channel": 2,
      "note": 47,
      "start": 31.5829,
      "duration": 0.0753,
      "velocity": 97,
      "chip": "ym2612"
    },
    {
      "channel": 3,
      "note": 73,
      "start": 31.5861,
      "duration": 0.2997,
      "velocity": 127,
      "chip": "ym2612"
    },
    {
      "channel": 4,
      "note": 53,
      "start": 31.6777,
      "duration": 0.1137,
      "velocity": 103,
      "chip": "ym2612"
    },
    {
      "channel": 0,
      "note": 90,
      "start": 32.0395,
      "duration": 1.3384,
      "velocity": 105,
      "chip": "ym2612"
    },
    {
      "channel": 1,
      "note": 85,
      "start": 32.0427,
      "duration": 0.4254,
      "velocity": 97,
      "chip": "ym2612"
    },
    {
      "channel": 2,
      "note": 54,
      "start": 32.0457,
      "duration": 0.0157,
      "velocity": 82,
      "chip": "ym2612"
    },
    {
      "channel": 3,
      "note": 73,
      "start": 32.0497,
      "duration": 0.0152,
      "velocity": 127,
      "chip": "ym2612"
    },
    {
      "channel": 4,
      "note": 54,
      "start": 32.0722,
      "duration": 1.3435,
      "velocity": 105,
      "chip": "ym2612"
    },
    {
      "channel": 2,
      "note": 54,
      "start": 32.0923,
      "duration": 0.0114,
      "velocity": 82,
      "chip": "ym2612"
    },
    {
      "channel": 3,
      "note": 45,
      "start": 32.0954,
      "duration": 0.0085,
      "velocity": 127,
      "chip": "ym2612"
    },
    {
      "channel": 3,
      "note": 73,
      "start": 32.1136,
      "duration": 0.0081,
      "velocity": 127,
      "chip": "ym2612"
    },
    {
      "channel": 2,
      "note": 54,
      "start": 32.131,
      "duration": 0.0116,
      "velocity": 82,
      "chip": "ym2612"
    },
    {
      "channel": 3,
      "note": 73,
      "start": 32.1342,
      "duration": 0.0121,
      "velocity": 127,
      "chip": "ym2612"
    },
    {
      "channel": 2,
      "note": 54,
      "start": 32.2599,
      "duration": 0.0567,
      "velocity": 82,
      "chip": "ym2612"
    },
    {
      "channel": 3,
      "note": 73,
      "start": 32.2606,
      "duration": 0.0563,
      "velocity": 127,
      "chip": "ym2612"
    },
    {
      "channel": 3,
      "note": 73,
      "start": 32.374,
      "duration": 0.0571,
      "velocity": 127,
      "chip": "ym2612"
    },
    {
      "channel": 2,
      "note": 54,
      "start": 32.4876,
      "duration": 0.1137,
      "velocity": 82,
      "chip": "ym2612"
    },
    {
      "channel": 3,
      "note": 73,
      "start": 32.4907,
      "duration": 0.0729,
      "velocity": 127,
      "chip": "ym2612"
    },
    {
      "channel": 1,
      "note": 78,
      "start": 32.601,
      "duration": 0.0946,
      "velocity": 97,
      "chip": "ym2612"
    },
    {
      "channel": 2,
      "note": 54,
      "start": 32.6015,
      "duration": 0.1137,
      "velocity": 82,
      "chip": "ym2612"
    },
    {
      "channel": 1,
      "note": 82,
      "start": 32.7148,
      "duration": 0.0945,
      "velocity": 97,
      "chip": "ym2612"
    },
    {
      "channel": 2,
      "note": 58,
      "start": 32.7154,
      "duration": 0.1135,
      "velocity": 82,
      "chip": "ym2612"
    },
    {
      "channel": 3,
      "note": 73,
      "start": 32.7161,
      "duration": 0.0559,
      "velocity": 127,
      "chip": "ym2612"
    },
    {
      "channel": 1,
      "note": 83,
      "start": 32.8285,
      "duration": 0.0946,
      "velocity": 97,
      "chip": "ym2612"
    },
    {
      "channel": 2,
      "note": 59,
      "start": 32.829,
      "duration": 0.1136,
      "velocity": 82,
      "chip": "ym2612"
    },
    {
      "channel": 3,
      "note": 73,
      "start": 32.8299,
      "duration": 0.0557,
      "velocity": 127,
      "chip": "ym2612"
    },
    {
      "channel": 1,
      "note": 85,
      "start": 32.9423,
      "duration": 0.0946,
      "velocity": 97,
      "chip": "ym2612"
    },
    {
      "channel": 2,
      "note": 61,
      "start": 32.9428,
      "duration": 0.1136,
      "velocity": 82,
      "chip": "ym2612"
    },
    {
      "channel": 3,
      "note": 73,
      "start": 32.9458,
      "duration": 0.0536,
      "velocity": 127,
      "chip": "ym2612"
    },
    {
      "channel": 1,
      "note": 83,
      "start": 33.056,
      "duration": 0.0946,
      "velocity": 97,
      "chip": "ym2612"
    },
    {
      "channel": 2,
      "note": 59,
      "start": 33.0566,
      "duration": 0.1135,
      "velocity": 82,
      "chip": "ym2612"
    },
    {
      "channel": 3,
      "note": 73,
      "start": 33.0571,
      "duration": 0.0564,
      "velocity": 127,
      "chip": "ym2612"
    },
    {
      "channel": 1,
      "note": 82,
      "start": 33.1698,
      "duration": 0.0949,
      "velocity": 97,
      "chip": "ym2612"
    },
    {
      "channel": 2,
      "note": 58,
      "start": 33.1703,
      "duration": 0.1135,
      "velocity": 82,
      "chip": "ym2612"
    },
    {
      "channel": 3,
      "note": 73,
      "start": 33.171,
      "duration": 0.056,
      "velocity": 127,
      "chip": "ym2612"
    },
    {
      "channel": 1,
      "note": 79,
      "start": 33.2835,
      "duration": 0.0946,
      "velocity": 97,
      "chip": "ym2612"
    },
    {
      "channel": 2,
      "note": 55,
      "start": 33.2841,
      "duration": 0.1158,
      "velocity": 82,
      "chip": "ym2612"
    },
    {
      "channel": 3,
      "note": 73,
      "start": 33.2847,
      "duration": 0.056,
      "velocity": 127,
      "chip": "ym2612"
    },
    {
      "channel": 0,
      "note": 94,
      "start": 33.3971,
      "duration": 0.0785,
      "velocity": 105,
      "chip": "ym2612"
    },
    {
      "channel": 1,
      "note": 78,
      "start": 33.3995,
      "duration": 0.1514,
      "velocity": 97,
      "chip": "ym2612"
    },
    {
      "channel": 2,
      "note": 54,
      "start": 33.4001,
      "duration": 0.0149,
      "velocity": 82,
      "chip": "ym2612"
    },
    {
      "channel": 3,
      "note": 73,
      "start": 33.4033,
      "duration": 0.0121,
      "velocity": 127,
      "chip": "ym2612"
    },
    {
      "channel": 4,
      "note": 90,
      "start": 33.4189,
      "duration": 0.076,
      "velocity": 105,
      "chip": "ym2612"
    },
    {
      "channel": 2,
      "note": 54,
      "start": 33.4393,
      "duration": 0.0151,
      "velocity": 82,
      "chip": "ym2612"
    },
    {
      "channel": 3,
      "note": 73,
      "start": 33.4424,
      "duration": 0.0095,
      "velocity": 127,
      "chip": "ym2612"
    },
    {
      "channel": 3,
      "note": 73,
      "start": 33.4609,
      "duration": 0.0087,
      "velocity": 127,
      "chip": "ym2612"
    },
    {
      "channel": 0,
      "note": 95,
      "start": 33.4787,
      "duration": 0.072,
      "velocity": 105,
      "chip": "ym2612"
    },
    {
      "channel": 2,
      "note": 54,
      "start": 33.4795,
      "duration": 0.0147,
      "velocity": 82,
      "chip": "ym2612"
    },
    {
      "channel": 3,
      "note": 73,
      "start": 33.4826,
      "duration": 0.0119,
      "velocity": 127,
      "chip": "ym2612"
    },
    {
      "channel": 4,
      "note": 94,
      "start": 33.4988,
      "duration": 0.0727,
      "velocity": 105,
      "chip": "ym2612"
    },
    {
      "channel": 2,
      "note": 54,
      "start": 33.5185,
      "duration": 0.0118,
      "velocity": 82,
      "chip": "ym2612"
    },
    {
      "channel": 3,
      "note": 73,
      "start": 33.5194,
      "duration": 0.0085,
      "velocity": 127,
      "chip": "ym2612"
    },
    {
      "channel": 3,
      "note": 73,
      "start": 33.5364,
      "duration": 0.009,
      "velocity": 127,
      "chip": "ym2612"
    },
    {
      "channel": 0,
      "note": 97,
      "start": 33.554,
      "duration": 0.0724,
      "velocity": 105,
      "chip": "ym2612"
    },
    {
      "channel": 1,
      "note": 73,
      "start": 33.5545,
      "duration": 0.0722,
      "velocity": 97,
      "chip": "ym2612"
    },
    {
      "channel": 2,
      "note": 54,
      "start": 33.555,
      "duration": 0.0158,
      "velocity": 82,
      "chip": "ym2612"
    },
    {
      "channel": 3,
      "note": 73,
      "start": 33.5581,
      "duration": 0.013,
      "velocity": 127,
      "chip": "ym2612"
    },
    {
      "channel": 4,
      "note": 95,
      "start": 33.5746,
      "duration": 0.0723,
      "velocity": 105,
      "chip": "ym2612"
    },
    {
      "channel": 2,
      "note": 54,
      "start": 33.595,
      "duration": 0.0115,
      "velocity": 82,
      "chip": "ym2612"
    },
    {
      "channel": 3,
      "note": 73,
      "start": 33.5956,
      "duration": 0.0084,
      "velocity": 127,
      "chip": "ym2612"
    },
    {
      "channel": 3,
      "note": 73,
      "start": 33.6131,
      "duration": 0.0084,
      "velocity": 127,
      "chip": "ym2612"
    },
    {
      "channel": 0,
      "note": 94,
      "start": 33.6302,
      "duration": 0.0738,
      "velocity": 105,
      "chip": "ym2612"
    },
    {
      "channel": 1,
      "note": 70,
      "start": 33.6307,
      "duration": 0.0736,
      "velocity": 97,
      "chip": "ym2612"
    },
    {
      "channel": 2,
      "note": 54,
      "start": 33.6315,
      "duration": 0.0148,
      "velocity": 82,
      "chip": "ym2612"
    },
    {
      "channel": 3,
      "note": 73,
      "start": 33.6347,
      "duration": 0.0091,
      "velocity": 127,
      "chip": "ym2612"
    },
    {
      "channel": 4,
      "note": 97,
      "start": 33.6501,
      "duration": 0.0817,
      "velocity": 105,
      "chip": "ym2612"
    },
    {
      "channel": 3,
      "note": 73,
      "start": 33.6531,
      "duration": 0.0091,
      "velocity": 127,
      "chip": "ym2612"
    },
    {
      "channel": 2,
      "note": 54,
      "start": 33.6707,
      "duration": 0.0127,
      "velocity": 82,
      "chip": "ym2612"
    },
    {
      "channel": 3,
      "note": 73,
      "start": 33.6713,
      "duration": 0.0095,
      "velocity": 127,
      "chip": "ym2612"
    },
    {
      "channel": 3,
      "note": 73,
      "start": 33.6898,
      "duration": 0.0088,
      "velocity": 127,
      "chip": "ym2612"
    },
    {
      "channel": 0,
      "note": 90,
      "start": 33.7089,
      "duration": 1.3398,
      "velocity": 105,
      "chip": "ym2612"
    },
    {
      "channel": 1,
      "note": 85,
      "start": 33.7112,
      "duration": 0.4276,
      "velocity": 97,
      "chip": "ym2612"
    },
    {
      "channel": 2,
      "note": 54,
      "start": 33.7135,
      "duration": 0.0176,
      "velocity": 82,
      "chip": "ym2612"
    },
    {
      "channel": 3,
      "note": 73,
      "start": 33.7168,
      "duration": 0.0329,
      "velocity": 127,
      "chip": "ym2612"
    },
    {
      "channel": 4,
      "note": 94,
      "start": 33.7384,
      "duration": 1.3488,
      "velocity": 105,
      "chip": "ym2612"
    },
    {
      "channel": 2,
      "note": 54,
      "start": 33.7581,
      "duration": 0.0149,
      "velocity": 82,
      "chip": "ym2612"
    },
    {
      "channel": 3,
      "note": 45,
      "start": 33.7617,
      "duration": 0.0088,
      "velocity": 127,
      "chip": "ym2612"
    },
    {
      "channel": 3,
      "note": 73,
      "start": 33.7793,
      "duration": 0.009,
      "velocity": 127,
      "chip": "ym2612"
    },
    {
      "channel": 2,
      "note": 54,
      "start": 33.7976,
      "duration": 0.0155,
      "velocity": 82,
      "chip": "ym2612"
    },
    {
      "channel": 3,
      "note": 73,
      "start": 33.8007,
      "duration": 0.0127,
      "velocity": 127,
      "chip": "ym2612"
    },
    {
      "channel": 2,
      "note": 54,
      "start": 33.9306,
      "duration": 0.0756,
      "velocity": 82,
      "chip": "ym2612"
    },
    {
      "channel": 3,
      "note": 73,
      "start": 33.9313,
      "duration": 0.0562,
      "velocity": 127,
      "chip": "ym2612"
    },
    {
      "channel": 3,
      "note": 73,
      "start": 34.0451,
      "duration": 0.0562,
      "velocity": 127,
      "chip": "ym2612"
    },
    {
      "channel": 2,
      "note": 54,
      "start": 34.1584,
      "duration": 0.1136,
      "velocity": 82,
      "chip": "ym2612"
    },
    {
      "channel": 3,
      "note": 73,
      "start": 34.162,
      "duration": 0.0721,
      "velocity": 127,
      "chip": "ym2612"
    },
    {
      "channel": 1,
      "note": 78,
      "start": 34.2717,
      "duration": 0.0946,
      "velocity": 97,
      "chip": "ym2612"
    },
    {
      "channel": 2,
      "note": 54,
      "start": 34.2722,
      "duration": 0.1135,
      "velocity": 82,
      "chip": "ym2612"
    },
    {
      "channel": 1,
      "note": 82,
      "start": 34.3854,
      "duration": 0.0947,
      "velocity": 97,
      "chip": "ym2612"
    },
    {
      "channel": 2,
      "note": 58,
      "start": 34.386,
      "duration": 0.1135,
      "velocity": 82,
      "chip": "ym2612"
    },
    {
      "channel": 3,
      "note": 73,
      "start": 34.3867,
      "duration": 0.056,
      "velocity": 127,
      "chip": "ym2612"
    },
    {
      "channel": 1,
      "note": 83,
      "start": 34.4992,
      "duration": 0.0949,
      "velocity": 97,
      "chip": "ym2612"
    },
    {
      "channel": 2,
      "note": 59,
      "start": 34.4997,
      "duration": 0.1135,
      "velocity": 82,
      "chip": "ym2612"
    },
    {
      "channel": 3,
      "note": 73,
      "start": 34.5004,
      "duration": 0.056,
      "velocity": 127,
      "chip": "ym2612"
    },
    {
      "channel": 1,
      "note": 85,
      "start": 34.6129,
      "duration": 0.0946,
      "velocity": 97,
      "chip": "ym2612"
    },
    {
      "channel": 2,
      "note": 61,
      "start": 34.6135,
      "duration": 0.1139,
      "velocity": 82,
      "chip": "ym2612"
    },
    {
      "channel": 3,
      "note": 73,
      "start": 34.6165,
      "duration": 0.0536,
      "velocity": 127,
      "chip": "ym2612"
    },
    {
      "channel": 1,
      "note": 83,
      "start": 34.727,
      "duration": 0.0944,
      "velocity": 97,
      "chip": "ym2612"
    },
    {
      "channel": 2,
      "note": 59,
      "start": 34.7278,
      "duration": 0.113,
      "velocity": 82,
      "chip": "ym2612"
    },
    {
      "channel": 3,
      "note": 73,
      "start": 34.7283,
      "duration": 0.0555,
      "velocity": 127,
      "chip": "ym2612"
    },
    {
      "channel": 1,
      "note": 82,
      "start": 34.8405,
      "duration": 0.0946,
      "velocity": 97,
      "chip": "ym2612"
    },
    {
      "channel": 2,
      "note": 58,
      "start": 34.841,
      "duration": 0.1136,
      "velocity": 82,
      "chip": "ym2612"
    },
    {
      "channel": 3,
      "note": 73,
      "start": 34.8416,
      "duration": 0.056,
      "velocity": 127,
      "chip": "ym2612"
    },
    {
      "channel": 1,
      "note": 79,
      "start": 34.9542,
      "duration": 0.0946,
      "velocity": 97,
      "chip": "ym2612"
    },
    {
      "channel": 2,
      "note": 55,
      "start": 34.9548,
      "duration": 0.1155,
      "velocity": 82,
      "chip": "ym2612"
    },
    {
      "channel": 3,
      "note": 73,
      "start": 34.9554,
      "duration": 0.0563,
      "velocity": 127,
      "chip": "ym2612"
    },
    {
      "channel": 0,
      "note": 94,
      "start": 35.0678,
      "duration": 0.0767,
      "velocity": 105,
      "chip": "ym2612"
    },
    {
      "channel": 1,
      "note": 78,
      "start": 35.07,
      "duration": 0.1515,
      "velocity": 97,
      "chip": "ym2612"
    },
    {
      "channel": 2,
      "note": 54,
      "start": 35.0706,
      "duration": 0.0157,
      "velocity": 82,
      "chip": "ym2612"
    },
    {
      "channel": 3,
      "note": 73,
      "start": 35.0737,
      "duration": 0.0131,
      "velocity": 127,
      "chip": "ym2612"
    },
    {
      "channel": 4,
      "note": 90,
      "start": 35.0903,
      "duration": 0.0749,
      "velocity": 105,
      "chip": "ym2612"
    },
    {
      "channel": 2,
      "note": 54,
      "start": 35.1099,
      "duration": 0.0143,
      "velocity": 82,
      "chip": "ym2612"
    },
    {
      "channel": 3,
      "note": 73,
      "start": 35.1131,
      "duration": 0.0086,
      "velocity": 127,
      "chip": "ym2612"
    },
    {
      "channel": 3,
      "note": 73,
      "start": 35.1307,
      "duration": 0.009,
      "velocity": 127,
      "chip": "ym2612"
    },
    {
      "channel": 0,
      "note": 95,
      "start": 35.148,
      "duration": 0.0732,
      "velocity": 105,
      "chip": "ym2612"
    },
    {
      "channel": 2,
      "note": 54,
      "start": 35.1487,
      "duration": 0.0159,
      "velocity": 82,
      "chip": "ym2612"
    },
    {
      "channel": 3,
      "note": 73,
      "start": 35.1521,
      "duration": 0.0128,
      "velocity": 127,
      "chip": "ym2612"
    },
    {
      "channel": 4,
      "note": 94,
      "start": 35.1685,
      "duration": 0.0732,
      "velocity": 105,
      "chip": "ym2612"
    },
    {
      "channel": 2,
      "note": 54,
      "start": 35.1887,
      "duration": 0.0121,
      "velocity": 82,
      "chip": "ym2612"
    },
    {
      "channel": 3,
      "note": 73,
      "start": 35.1894,
      "duration": 0.0085,
      "velocity": 127,
      "chip": "ym2612"
    },
    {
      "channel": 3,
      "note": 73,
      "start": 35.2074,
      "duration": 0.0085,
      "velocity": 127,
      "chip": "ym2612"
    },
    {
      "channel": 0,
      "note": 97,
      "start": 35.225,
      "duration": 0.0714,
      "velocity": 105,
      "chip": "ym2612"
    },
    {
      "channel": 1,
      "note": 73,
      "start": 35.2255,
      "duration": 0.0711,
      "velocity": 97,
      "chip": "ym2612"
    },
    {
      "channel": 2,
      "note": 54,
      "start": 35.226,
      "duration": 0.0151,
      "velocity": 82,
      "chip": "ym2612"
    },
    {
      "channel": 3,
      "note": 73,
      "start": 35.2291,
      "duration": 0.0123,
      "velocity": 127,
      "chip": "ym2612"
    },
    {
      "channel": 4,
      "note": 95,
      "start": 35.2448,
      "duration": 0.0715,
      "velocity": 105,
      "chip": "ym2612"
    },
    {
      "channel": 2,
      "note": 54,
      "start": 35.2646,
      "duration": 0.012,
      "velocity": 82,
      "chip": "ym2612"
    },
    {
      "channel": 3,
      "note": 73,
      "start": 35.2654,
      "duration": 0.0088,
      "velocity": 127,
      "chip": "ym2612"
    },
    {
      "channel": 3,
      "note": 73,
      "start": 35.2827,
      "duration": 0.0083,
      "velocity": 127,
      "chip": "ym2612"
    },
    {
      "channel": 0,
      "note": 94,
      "start": 35.2999,
      "duration": 0.0729,
      "velocity": 105,
      "chip": "ym2612"
    },
    {
      "channel": 1,
      "note": 70,
      "start": 35.3004,
      "duration": 0.0727,
      "velocity": 97,
      "chip": "ym2612"
    },
    {
      "channel": 2,
      "note": 54,
      "start": 35.3009,
      "duration": 0.0149,
      "velocity": 82,
      "chip": "ym2612"
    },
    {
      "channel": 3,
      "note": 73,
      "start": 35.3039,
      "duration": 0.009,
      "velocity": 127,
      "chip": "ym2612"
    },
    {
      "channel": 4,
      "note": 97,
      "start": 35.3206,
      "duration": 0.0811,
      "velocity": 105,
      "chip": "ym2612"
    },
    {
      "channel": 3,
      "note": 73,
      "start": 35.3232,
      "duration": 0.0084,
      "velocity": 127,
      "chip": "ym2612"
    },
    {
      "channel": 2,
      "note": 54,
      "start": 35.3409,
      "duration": 0.0114,
      "velocity": 82,
      "chip": "ym2612"
    },
    {
      "channel": 3,
      "note": 73,
      "start": 35.3415,
      "duration": 0.0083,
      "velocity": 127,
      "chip": "ym2612"
    },
    {
      "channel": 3,
      "note": 73,
      "start": 35.3588,
      "duration": 0.0092,
      "velocity": 127,
      "chip": "ym2612"
    },
    {
      "channel": 0,
      "note": 90,
      "start": 35.3788,
      "duration": 1.3373,
      "velocity": 105,
      "chip": "ym2612"
    },
    {
      "channel": 1,
      "note": 85,
      "start": 35.381,
      "duration": 0.4251,
      "velocity": 97,
      "chip": "ym2612"
    },
    {
      "channel": 2,
      "note": 54,
      "start": 35.3839,
      "duration": 0.0172,
      "velocity": 82,
      "chip": "ym2612"
    },
    {
      "channel": 3,
      "note": 73,
      "start": 35.3871,
      "duration": 0.0312,
      "velocity": 127,
      "chip": "ym2612"
    },
    {
      "channel": 4,
      "note": 94,
      "start": 35.4077,
      "duration": 1.3472,
      "velocity": 105,
      "chip": "ym2612"
    },
    {
      "channel": 2,
      "note": 54,
      "start": 35.4278,
      "duration": 0.0138,
      "velocity": 82,
      "chip": "ym2612"
    },
    {
      "channel": 3,
      "note": 45,
      "start": 35.431,
      "duration": 0.0081,
      "velocity": 127,
      "chip": "ym2612"
    },
    {
      "channel": 3,
      "note": 73,
      "start": 35.4484,
      "duration": 0.0083,
      "velocity": 127,
      "chip": "ym2612"
    },
    {
      "channel": 2,
      "note": 54,
      "start": 35.4659,
      "duration": 0.0152,
      "velocity": 82,
      "chip": "ym2612"
    },
    {
      "channel": 3,
      "note": 73,
      "start": 35.4692,
      "duration": 0.0121,
      "velocity": 127,
      "chip": "ym2612"
    },
    {
      "channel": 2,
      "note": 54,
      "start": 35.598,
      "duration": 0.0757,
      "velocity": 82,
      "chip": "ym2612"
    },
    {
      "channel": 3,
      "note": 73,
      "start": 35.5987,
      "duration": 0.0566,
      "velocity": 127,
      "chip": "ym2612"
    },
    {
      "channel": 3,
      "note": 73,
      "start": 35.7122,
      "duration": 0.0566,
      "velocity": 127,
      "chip": "ym2612"
    },
    {
      "channel": 2,
      "note": 54,
      "start": 35.8258,
      "duration": 0.1136,
      "velocity": 82,
      "chip": "ym2612"
    },
    {
      "channel": 3,
      "note": 73,
      "start": 35.8289,
      "duration": 0.0726,
      "velocity": 127,
      "chip": "ym2612"
    },
    {
      "channel": 1,
      "note": 78,
      "start": 35.9391,
      "duration": 0.0946,
      "velocity": 97,
      "chip": "ym2612"
    },
    {
      "channel": 2,
      "note": 54,
      "start": 35.9396,
      "duration": 0.1136,
      "velocity": 82,
      "chip": "ym2612"
    },
    {
      "channel": 1,
      "note": 82,
      "start": 36.0529,
      "duration": 0.0946,
      "velocity": 97,
      "chip": "ym2612"
    },
    {
      "channel": 2,
      "note": 58,
      "start": 36.0534,
      "duration": 0.1136,
      "velocity": 82,
      "chip": "ym2612"
    },
    {
      "channel": 3,
      "note": 73,
      "start": 36.0544,
      "duration": 0.0557,
      "velocity": 127,
      "chip": "ym2612"
    },
    {
      "channel": 1,
      "note": 83,
      "start": 36.1666,
      "duration": 0.0946,
      "velocity": 97,
      "chip": "ym2612"
    },
    {
      "channel": 2,
      "note": 59,
      "start": 36.1672,
      "duration": 0.1135,
      "velocity": 82,
      "chip": "ym2612"
    },
    {
      "channel": 3,
      "note": 73,
      "start": 36.1678,
      "duration": 0.0561,
      "velocity": 127,
      "chip": "ym2612"
    },
    {
      "channel": 1,
      "note": 85,
      "start": 36.2804,
      "duration": 0.0946,
      "velocity": 97,
      "chip": "ym2612"
    },
    {
      "channel": 2,
      "note": 61,
      "start": 36.2809,
      "duration": 0.1136,
      "velocity": 82,
      "chip": "ym2612"
    },
    {
      "channel": 3,
      "note": 73,
      "start": 36.2839,
      "duration": 0.0539,
      "velocity": 127,
      "chip": "ym2612"
    },
    {
      "channel": 1,
      "note": 83,
      "start": 36.3942,
      "duration": 0.0946,
      "velocity": 97,
      "chip": "ym2612"
    },
    {
      "channel": 2,
      "note": 59,
      "start": 36.3947,
      "duration": 0.1135,
      "velocity": 82,
      "chip": "ym2612"
    },
    {
      "channel": 3,
      "note": 73,
      "start": 36.3953,
      "duration": 0.0561,
      "velocity": 127,
      "chip": "ym2612"
    },
    {
      "channel": 1,
      "note": 82,
      "start": 36.5079,
      "duration": 0.0946,
      "velocity": 97,
      "chip": "ym2612"
    },
    {
      "channel": 2,
      "note": 58,
      "start": 36.5084,
      "duration": 0.1138,
      "velocity": 82,
      "chip": "ym2612"
    },
    {
      "channel": 3,
      "note": 73,
      "start": 36.509,
      "duration": 0.056,
      "velocity": 127,
      "chip": "ym2612"
    },
    {
      "channel": 1,
      "note": 79,
      "start": 36.6219,
      "duration": 0.0944,
      "velocity": 97,
      "chip": "ym2612"
    },
    {
      "channel": 2,
      "note": 55,
      "start": 36.6224,
      "duration": 0.1158,
      "velocity": 82,
      "chip": "ym2612"
    },
    {
      "channel": 3,
      "note": 73,
      "start": 36.623,
      "duration": 0.0559,
      "velocity": 127,
      "chip": "ym2612"
    },
    {
      "channel": 0,
      "note": 94,
      "start": 36.7352,
      "duration": 0.0781,
      "velocity": 105,
      "chip": "ym2612"
    },
    {
      "channel": 1,
      "note": 78,
      "start": 36.7377,
      "duration": 0.152,
      "velocity": 97,
      "chip": "ym2612"
    },
    {
      "channel": 2,
      "note": 54,
      "start": 36.7385,
      "duration": 0.0158,
      "velocity": 82,
      "chip": "ym2612"
    },
    {
      "channel": 3,
      "note": 73,
      "start": 36.7416,
      "duration": 0.0129,
      "velocity": 127,
      "chip": "ym2612"
    },
    {
      "channel": 4,
      "note": 90,
      "start": 36.7581,
      "duration": 0.0749,
      "velocity": 105,
      "chip": "ym2612"
    },
    {
      "channel": 2,
      "note": 54,
      "start": 36.7773,
      "duration": 0.0148,
      "velocity": 82,
      "chip": "ym2612"
    },
    {
      "channel": 3,
      "note": 73,
      "start": 36.7804,
      "duration": 0.0087,
      "velocity": 127,
      "chip": "ym2612"
    },
    {
      "channel": 3,
      "note": 73,
      "start": 36.7989,
      "duration": 0.0087,
      "velocity": 127,
      "chip": "ym2612"
    },
    {
      "channel": 0,
      "note": 95,
      "start": 36.8166,
      "duration": 0.0728,
      "velocity": 105,
      "chip": "ym2612"
    },
    {
      "channel": 2,
      "note": 54,
      "start": 36.8173,
      "duration": 0.0151,
      "velocity": 82,
      "chip": "ym2612"
    },
    {
      "channel": 3,
      "note": 73,
      "start": 36.8205,
      "duration": 0.0123,
      "velocity": 127,
      "chip": "ym2612"
    },
    {
      "channel": 4,
      "note": 94,
      "start": 36.8362,
      "duration": 0.0733,
      "velocity": 105,
      "chip": "ym2612"
    },
    {
      "channel": 2,
      "note": 54,
      "start": 36.8566,
      "duration": 0.0124,
      "velocity": 82,
      "chip": "ym2612"
    },
    {
      "channel": 3,
      "note": 73,
      "start": 36.8573,
      "duration": 0.0093,
      "velocity": 127,
      "chip": "ym2612"
    },
    {
      "channel": 3,
      "note": 73,
      "start": 36.8755,
      "duration": 0.009,
      "velocity": 127,
      "chip": "ym2612"
    },
    {
      "channel": 0,
      "note": 97,
      "start": 36.8927,
      "duration": 0.0719,
      "velocity": 105,
      "chip": "ym2612"
    },
    {
      "channel": 1,
      "note": 73,
      "start": 36.8932,
      "duration": 0.0716,
      "velocity": 97,
      "chip": "ym2612"
    },
    {
      "channel": 2,
      "note": 54,
      "start": 36.8937,
      "duration": 0.0152,
      "velocity": 82,
      "chip": "ym2612"
    },
    {
      "channel": 3,
      "note": 73,
      "start": 36.8968,
      "duration": 0.0124,
      "velocity": 127,
      "chip": "ym2612"
    },
    {
      "channel": 4,
      "note": 95,
      "start": 36.9128,
      "duration": 0.0729,
      "velocity": 105,
      "chip": "ym2612"
    },
    {
      "channel": 2,
      "note": 54,
      "start": 36.9324,
      "duration": 0.0119,
      "velocity": 82,
      "chip": "ym2612"
    },
    {
      "channel": 3,
      "note": 73,
      "start": 36.933,
      "duration": 0.0087,
      "velocity": 127,
      "chip": "ym2612"
    },
    {
      "channel": 3,
      "note": 73,
      "start": 36.9507,
      "duration": 0.009,
      "velocity": 127,
      "chip": "ym2612"
    },
    {
      "channel": 0,
      "note": 94,
      "start": 36.9683,
      "duration": 0.0724,
      "velocity": 105,
      "chip": "ym2612"
    },
    {
      "channel": 1,
      "note": 70,
      "start": 36.9688,
      "duration": 0.0723,
      "velocity": 97,
      "chip": "ym2612"
    },
    {
      "channel": 2,
      "note": 54,
      "start": 36.9693,
      "duration": 0.0158,
      "velocity": 82,
      "chip": "ym2612"
    },
    {
      "channel": 3,
      "note": 73,
      "start": 36.9728,
      "duration": 0.0098,
      "velocity": 127,
      "chip": "ym2612"
    },
    {
      "channel": 4,
      "note": 97,
      "start": 36.9889,
      "duration": 0.0774,
      "velocity": 105,
      "chip": "ym2612"
    },
    {
      "channel": 3,
      "note": 73,
      "start": 36.9915,
      "duration": 0.0092,
      "velocity": 127,
      "chip": "ym2612"
    },
    {
      "channel": 2,
      "note": 54,
      "start": 37.0088,
      "duration": 0.0117,
      "velocity": 82,
      "chip": "ym2612"
    },
    {
      "channel": 3,
      "note": 73,
      "start": 37.0095,
      "duration": 0.0083,
      "velocity": 127,
      "chip": "ym2612"
    },
    {
      "channel": 3,
      "note": 73,
      "start": 37.0272,
      "duration": 0.0087,
      "velocity": 127,
      "chip": "ym2612"
    },
    {
      "channel": 0,
      "note": 90,
      "start": 37.0462,
      "duration": 1.338,
      "velocity": 105,
      "chip": "ym2612"
    },
    {
      "channel": 1,
      "note": 85,
      "start": 37.0485,
      "duration": 0.4259,
      "velocity": 97,
      "chip": "ym2612"
    },
    {
      "channel": 2,
      "note": 54,
      "start": 37.0491,
      "duration": 0.0166,
      "velocity": 82,
      "chip": "ym2612"
    },
    {
      "channel": 3,
      "note": 73,
      "start": 37.0523,
      "duration": 0.032,
      "velocity": 127,
      "chip": "ym2612"
    },
    {
      "channel": 4,
      "note": 94,
      "start": 37.0726,
      "duration": 1.3475,
      "velocity": 105,
      "chip": "ym2612"
    },
    {
      "channel": 2,
      "note": 54,
      "start": 37.0923,
      "duration": 0.0155,
      "velocity": 82,
      "chip": "ym2612"
    },
    {
      "channel": 3,
      "note": 45,
      "start": 37.0955,
      "duration": 0.0094,
      "velocity": 127,
      "chip": "ym2612"
    },
    {
      "channel": 3,
      "note": 73,
      "start": 37.1141,
      "duration": 0.0084,
      "velocity": 127,
      "chip": "ym2612"
    },
    {
      "channel": 2,
      "note": 54,
      "start": 37.1313,
      "duration": 0.015,
      "velocity": 82,
      "chip": "ym2612"
    },
    {
      "channel": 3,
      "note": 73,
      "start": 37.1344,
      "duration": 0.0122,
      "velocity": 127,
      "chip": "ym2612"
    },
    {
      "channel": 2,
      "note": 54,
      "start": 37.2665,
      "duration": 0.0755,
      "velocity": 82,
      "chip": "ym2612"
    },
    {
      "channel": 3,
      "note": 73,
      "start": 37.2672,
      "duration": 0.0561,
      "velocity": 127,
      "chip": "ym2612"
    },
    {
      "channel": 3,
      "note": 73,
      "start": 37.3803,
      "duration": 0.0567,
      "velocity": 127,
      "chip": "ym2612"
    },
    {
      "channel": 2,
      "note": 54,
      "start": 37.4939,
      "duration": 0.1136,
      "velocity": 82,
      "chip": "ym2612"
    },
    {
      "channel": 3,
      "note": 73,
      "start": 37.4971,
      "duration": 0.0726,
      "velocity": 127,
      "chip": "ym2612"
    },
    {
      "channel": 1,
      "note": 78,
      "start": 37.6073,
      "duration": 0.0946,
      "velocity": 97,
      "chip": "ym2612"
    },
    {
      "channel": 2,
      "note": 54,
      "start": 37.6078,
      "duration": 0.1135,
      "velocity": 82,
      "chip": "ym2612"
    },
    {
      "channel": 1,
      "note": 82,
      "start": 37.721,
      "duration": 0.095,
      "velocity": 97,
      "chip": "ym2612"
    },
    {
      "channel": 2,
      "note": 58,
      "start": 37.7216,
      "duration": 0.1135,
      "velocity": 82,
      "chip": "ym2612"
    },
    {
      "channel": 3,
      "note": 73,
      "start": 37.7223,
      "duration": 0.056,
      "velocity": 127,
      "chip": "ym2612"
    },
    {
      "channel": 1,
      "note": 83,
      "start": 37.8348,
      "duration": 0.0947,
      "velocity": 97,
      "chip": "ym2612"
    },
    {
      "channel": 2,
      "note": 59,
      "start": 37.8354,
      "duration": 0.1141,
      "velocity": 82,
      "chip": "ym2612"
    },
    {
      "channel": 3,
      "note": 73,
      "start": 37.8359,
      "duration": 0.056,
      "velocity": 127,
      "chip": "ym2612"
    },
    {
      "channel": 1,
      "note": 85,
      "start": 37.9488,
      "duration": 0.0944,
      "velocity": 97,
      "chip": "ym2612"
    },
    {
      "channel": 2,
      "note": 61,
      "start": 37.9496,
      "duration": 0.113,
      "velocity": 82,
      "chip": "ym2612"
    },
    {
      "channel": 3,
      "note": 73,
      "start": 37.9527,
      "duration": 0.053,
      "velocity": 127,
      "chip": "ym2612"
    },
    {
      "channel": 1,
      "note": 83,
      "start": 38.0623,
      "duration": 0.0946,
      "velocity": 97,
      "chip": "ym2612"
    },
    {
      "channel": 2,
      "note": 59,
      "start": 38.0629,
      "duration": 0.1135,
      "velocity": 82,
      "chip": "ym2612"
    },
    {
      "channel": 3,
      "note": 73,
      "start": 38.0635,
      "duration": 0.056,
      "velocity": 127,
      "chip": "ym2612"
    },
    {
      "channel": 1,
      "note": 82,
      "start": 38.1761,
      "duration": 0.0946,
      "velocity": 97,
      "chip": "ym2612"
    },
    {
      "channel": 2,
      "note": 58,
      "start": 38.1766,
      "duration": 0.1135,
      "velocity": 82,
      "chip": "ym2612"
    },
    {
      "channel": 3,
      "note": 73,
      "start": 38.1772,
      "duration": 0.0563,
      "velocity": 127,
      "chip": "ym2612"
    },
    {
      "channel": 1,
      "note": 79,
      "start": 38.2899,
      "duration": 0.0946,
      "velocity": 97,
      "chip": "ym2612"
    },
    {
      "channel": 2,
      "note": 55,
      "start": 38.2904,
      "duration": 0.1138,
      "velocity": 82,
      "chip": "ym2612"
    },
    {
      "channel": 3,
      "note": 73,
      "start": 38.291,
      "duration": 0.0561,
      "velocity": 127,
      "chip": "ym2612"
    },
    {
      "channel": 0,
      "note": 94,
      "start": 38.4034,
      "duration": 0.0758,
      "velocity": 105,
      "chip": "ym2612"
    },
    {
      "channel": 1,
      "note": 78,
      "start": 38.4039,
      "duration": 0.0756,
      "velocity": 97,
      "chip": "ym2612"
    },
    {
      "channel": 2,
      "note": 54,
      "start": 38.4045,
      "duration": 0.0149,
      "velocity": 82,
      "chip": "ym2612"
    },
    {
      "channel": 3,
      "note": 73,
      "start": 38.4076,
      "duration": 0.0121,
      "velocity": 127,
      "chip": "ym2612"
    },
    {
      "channel": 4,
      "note": 90,
      "start": 38.424,
      "duration": 0.0756,
      "velocity": 105,
      "chip": "ym2612"
    },
    {
      "channel": 2,
      "note": 54,
      "start": 38.4432,
      "duration": 0.015,
      "velocity": 82,
      "chip": "ym2612"
    },
    {
      "channel": 3,
      "note": 73,
      "start": 38.4468,
      "duration": 0.0089,
      "velocity": 127,
      "chip": "ym2612"
    },
    {
      "channel": 3,
      "note": 73,
      "start": 38.4645,
      "duration": 0.0095,
      "velocity": 127,
      "chip": "ym2612"
    },
    {
      "channel": 0,
      "note": 95,
      "start": 38.4823,
      "duration": 0.0721,
      "velocity": 105,
      "chip": "ym2612"
    },
    {
      "channel": 1,
      "note": 79,
      "start": 38.4828,
      "duration": 0.0719,
      "velocity": 97,
      "chip": "ym2612"
    },
    {
      "channel": 2,
      "note": 54,
      "start": 38.4833,
      "duration": 0.0156,
      "velocity": 82,
      "chip": "ym2612"
    },
    {
      "channel": 3,
      "note": 73,
      "start": 38.4864,
      "duration": 0.0128,
      "velocity": 127,
      "chip": "ym2612"
    },
    {
      "channel": 4,
      "note": 94,
      "start": 38.5028,
      "duration": 0.0731,
      "velocity": 105,
      "chip": "ym2612"
    },
    {
      "channel": 2,
      "note": 54,
      "start": 38.5222,
      "duration": 0.0121,
      "velocity": 82,
      "chip": "ym2612"
    },
    {
      "channel": 3,
      "note": 73,
      "start": 38.5228,
      "duration": 0.0089,
      "velocity": 127,
      "chip": "ym2612"
    },
    {
      "channel": 3,
      "note": 73,
      "start": 38.5408,
      "duration": 0.0088,
      "velocity": 127,
      "chip": "ym2612"
    },
    {
      "channel": 0,
      "note": 97,
      "start": 38.5585,
      "duration": 0.0728,
      "velocity": 105,
      "chip": "ym2612"
    },
    {
      "channel": 1,
      "note": 78,
      "start": 38.559,
      "duration": 0.0726,
      "velocity": 97,
      "chip": "ym2612"
    },
    {
      "channel": 2,
      "note": 54,
      "start": 38.5595,
      "duration": 0.0157,
      "velocity": 82,
      "chip": "ym2612"
    },
    {
      "channel": 3,
      "note": 73,
      "start": 38.5632,
      "duration": 0.0124,
      "velocity": 127,
      "chip": "ym2612"
    },
    {
      "channel": 4,
      "note": 95,
      "start": 38.579,
      "duration": 0.0716,
      "velocity": 105,
      "chip": "ym2612"
    },
    {
      "channel": 2,
      "note": 54,
      "start": 38.5986,
      "duration": 0.0125,
      "velocity": 82,
      "chip": "ym2612"
    },
    {
      "channel": 3,
      "note": 73,
      "start": 38.5993,
      "duration": 0.0092,
      "velocity": 127,
      "chip": "ym2612"
    },
    {
      "channel": 3,
      "note": 73,
      "start": 38.6171,
      "duration": 0.0087,
      "velocity": 127,
      "chip": "ym2612"
    },
    {
      "channel": 0,
      "note": 94,
      "start": 38.6345,
      "duration": 0.0729,
      "velocity": 105,
      "chip": "ym2612"
    },
    {
      "channel": 1,
      "note": 82,
      "start": 38.635,
      "duration": 0.0726,
      "velocity": 97,
      "chip": "ym2612"
    },
    {
      "channel": 2,
      "note": 54,
      "start": 38.6355,
      "duration": 0.0145,
      "velocity": 82,
      "chip": "ym2612"
    },
    {
      "channel": 3,
      "note": 73,
      "start": 38.6386,
      "duration": 0.0089,
      "velocity": 127,
      "chip": "ym2612"
    },
    {
      "channel": 4,
      "note": 97,
      "start": 38.6538,
      "duration": 0.0761,
      "velocity": 105,
      "chip": "ym2612"
    },
    {
      "channel": 3,
      "note": 73,
      "start": 38.6572,
      "duration": 0.0088,
      "velocity": 127,
      "chip": "ym2612"
    },
    {
      "channel": 2,
      "note": 54,
      "start": 38.6745,
      "duration": 0.0158,
      "velocity": 82,
      "chip": "ym2612"
    },
    {
      "channel": 3,
      "note": 73,
      "start": 38.6751,
      "duration": 0.0099,
      "velocity": 127,
      "chip": "ym2612"
    },
    {
      "channel": 3,
      "note": 73,
      "start": 38.6936,
      "duration": 0.0089,
      "velocity": 127,
      "chip": "ym2612"
    },
    {
      "channel": 0,
      "note": 95,
      "start": 38.7106,
      "duration": 0.0215,
      "velocity": 105,
      "chip": "ym2612"
    },
    {
      "channel": 1,
      "note": 83,
      "start": 38.7111,
      "duration": 0.0213,
      "velocity": 97,
      "chip": "ym2612"
    },
    {
      "channel": 2,
      "note": 59,
      "start": 38.7133,
      "duration": 0.0194,
      "velocity": 82,
      "chip": "ym2612"
    },
    {
      "channel": 3,
      "note": 73,
      "start": 38.7165,
      "duration": 0.0199,
      "velocity": 127,
      "chip": "ym2612"
    },
    {
      "channel": 4,
      "note": 94,
      "start": 38.7336,
      "duration": 0.0146,
      "velocity": 105,
      "chip": "ym2612"
    },
    {
      "channel": 0,
      "note": 83,
      "start": 38.7553,
      "duration": 0.0239,
      "velocity": 103,
      "chip": "ym2612"
    },
    {
      "channel": 1,
      "note": 86,
      "start": 38.7575,
      "duration": 0.022,
      "velocity": 103,
      "chip": "ym2612"
    },
    {
      "channel": 2,
      "note": 90,
      "start": 38.7599,
      "duration": 0.0142,
      "velocity": 97,
      "chip": "ym2612"
    },
    {
      "channel": 4,
      "note": 95,
      "start": 38.7662,
      "duration": 0.0182,
      "velocity": 103,
      "chip": "ym2612"
    },
    {
      "channel": 3,
      "note": 73,
      "start": 38.7716,
      "duration": 0.0153,
      "velocity": 103,
      "chip": "ym2612"
    },
    {
      "channel": 0,
      "note": 83,
      "start": 38.7822,
      "duration": 0.0155,
      "velocity": 103,
      "chip": "ym2612"
    },
    {
      "channel": 1,
      "note": 86,
      "start": 38.783,
      "duration": 0.015,
      "velocity": 103,
      "chip": "ym2612"
    },
    {
      "channel": 2,
      "note": 90,
      "start": 38.7838,
      "duration": 0.0089,
      "velocity": 97,
      "chip": "ym2612"
    },
    {
      "channel": 4,
      "note": 83,
      "start": 38.7875,
      "duration": 0.0149,
      "velocity": 103,
      "chip": "ym2612"
    },
    {
      "channel": 3,
      "note": 86,
      "start": 38.7901,
      "duration": 0.0149,
      "velocity": 103,
      "chip": "ym2612"
    },
    {
      "channel": 0,
      "note": 83,
      "start": 38.8007,
      "duration": 0.0163,
      "velocity": 103,
      "chip": "ym2612"
    },
    {
      "channel": 1,
      "note": 86,
      "start": 38.8012,
      "duration": 0.016,
      "velocity": 103,
      "chip": "ym2612"
    },
    {
      "channel": 2,
      "note": 90,
      "start": 38.8017,
      "duration": 0.0101,
      "velocity": 97,
      "chip": "ym2612"
    },
    {
      "channel": 4,
      "note": 83,
      "start": 38.8059,
      "duration": 0.0194,
      "velocity": 103,
      "chip": "ym2612"
    },
    {
      "channel": 3,
      "note": 86,
      "start": 38.8092,
      "duration": 0.0339,
      "velocity": 103,
      "chip": "ym2612"
    },
    {
      "channel": 0,
      "note": 83,
      "start": 38.8236,
      "duration": 0.0946,
      "velocity": 103,
      "chip": "ym2612"
    },
    {
      "channel": 1,
      "note": 86,
      "start": 38.8241,
      "duration": 0.0943,
      "velocity": 103,
      "chip": "ym2612"
    },
    {
      "channel": 2,
      "note": 90,
      "start": 38.8246,
      "duration": 0.0563,
      "velocity": 97,
      "chip": "ym2612"
    },
    {
      "channel": 4,
      "note": 83,
      "start": 38.8437,
      "duration": 0.0954,
      "velocity": 103,
      "chip": "ym2612"
    },
    {
      "channel": 3,
      "note": 86,
      "start": 38.8622,
      "duration": 0.0946,
      "velocity": 103,
      "chip": "ym2612"
    },
    {
      "channel": 0,
      "note": 83,
      "start": 38.9373,
      "duration": 0.0946,
      "velocity": 103,
      "chip": "ym2612"
    },
    {
      "channel": 1,
      "note": 86,
      "start": 38.9379,
      "duration": 0.0943,
      "velocity": 103,
      "chip": "ym2612"
    },
    {
      "channel": 2,
      "note": 90,
      "start": 38.9384,
      "duration": 0.0561,
      "velocity": 97,
      "chip": "ym2612"
    },
    {
      "channel": 4,
      "note": 83,
      "start": 38.9574,
      "duration": 0.0954,
      "velocity": 103,
      "chip": "ym2612"
    },
    {
      "channel": 3,
      "note": 86,
      "start": 38.976,
      "duration": 0.0946,
      "velocity": 103,
      "chip": "ym2612"
    },
    {
      "channel": 0,
      "note": 83,
      "start": 39.0511,
      "duration": 0.0946,
      "velocity": 103,
      "chip": "ym2612"
    },
    {
      "channel": 1,
      "note": 86,
      "start": 39.0516,
      "duration": 0.0944,
      "velocity": 103,
      "chip": "ym2612"
    },
    {
      "channel": 2,
      "note": 90,
      "start": 39.0521,
      "duration": 0.0561,
      "velocity": 97,
      "chip": "ym2612"
    },
    {
      "channel": 4,
      "note": 83,
      "start": 39.0712,
      "duration": 0.0954,
      "velocity": 103,
      "chip": "ym2612"
    },
    {
      "channel": 3,
      "note": 86,
      "start": 39.0898,
      "duration": 0.0946,
      "velocity": 103,
      "chip": "ym2612"
    },
    {
      "channel": 0,
      "note": 83,
      "start": 39.1649,
      "duration": 0.0946,
      "velocity": 103,
      "chip": "ym2612"
    },
    {
      "channel": 1,
      "note": 86,
      "start": 39.1654,
      "duration": 0.0944,
      "velocity": 103,
      "chip": "ym2612"
    },
    {
      "channel": 2,
      "note": 90,
      "start": 39.1659,
      "duration": 0.0562,
      "velocity": 97,
      "chip": "ym2612"
    },
    {
      "channel": 4,
      "note": 83,
      "start": 39.1849,
      "duration": 0.095,
      "velocity": 103,
      "chip": "ym2612"
    },
    {
      "channel": 3,
      "note": 86,
      "start": 39.2036,
      "duration": 0.0947,
      "velocity": 103,
      "chip": "ym2612"
    },
    {
      "channel": 0,
      "note": 85,
      "start": 39.3924,
      "duration": 0.1136,
      "velocity": 103,
      "chip": "ym2612"
    },
    {
      "channel": 1,
      "note": 88,
      "start": 39.3929,
      "duration": 0.1134,
      "velocity": 103,
      "chip": "ym2612"
    },
    {
      "channel": 2,
      "note": 94,
      "start": 39.3934,
      "duration": 0.0751,
      "velocity": 97,
      "chip": "ym2612"
    },
    {
      "channel": 4,
      "note": 83,
      "start": 39.4125,
      "duration": 0.1136,
      "velocity": 103,
      "chip": "ym2612"
    },
    {
      "channel": 3,
      "note": 86,
      "start": 39.4313,
      "duration": 0.1133,
      "velocity": 103,
      "chip": "ym2612"
    },
    {
      "channel": 0,
      "note": 86,
      "start": 39.6199,
      "duration": 0.2084,
      "velocity": 103,
      "chip": "ym2612"
    },
    {
      "channel": 1,
      "note": 90,
      "start": 39.6204,
      "duration": 0.2081,
      "velocity": 103,
      "chip": "ym2612"
    },
    {
      "channel": 2,
      "note": 95,
      "start": 39.6209,
      "duration": 0.2079,
      "velocity": 97,
      "chip": "ym2612"
    },
    {
      "channel": 4,
      "note": 85,
      "start": 39.64,
      "duration": 0.2178,
      "velocity": 103,
      "chip": "ym2612"
    },
    {
      "channel": 3,
      "note": 88,
      "start": 39.6586,
      "duration": 0.1705,
      "velocity": 103,
      "chip": "ym2612"
    },
    {
      "channel": 0,
      "note": 90,
      "start": 39.8494,
      "duration": 0.0275,
      "velocity": 99,
      "chip": "ym2612"
    },
    {
      "channel": 1,
      "note": 83,
      "start": 39.8517,
      "duration": 0.0227,
      "velocity": 97,
      "chip": "ym2612"
    },
    {
      "channel": 2,
      "note": 54,
      "start": 39.854,
      "duration": 0.0206,
      "velocity": 82,
      "chip": "ym2612"
    },
    {
      "channel": 3,
      "note": 90,
      "start": 39.8573,
      "duration": 0.0147,
      "velocity": 127,
      "chip": "ym2612"
    },
    {
      "channel": 4,
      "note": 86,
      "start": 39.8642,
      "duration": 0.0178,
      "velocity": 99,
      "chip": "ym2612"
    },
    {
      "channel": 0,
      "note": 97,
      "start": 39.8949,
      "duration": 0.0198,
      "velocity": 99,
      "chip": "ym2612"
    },
    {
      "channel": 1,
      "note": 85,
      "start": 39.8954,
      "duration": 0.0164,
      "velocity": 97,
      "chip": "ym2612"
    },
    {
      "channel": 2,
      "note": 61,
      "start": 39.8959,
      "duration": 0.0161,
      "velocity": 82,
      "chip": "ym2612"
    },
    {
      "channel": 3,
      "note": 73,
      "start": 39.8965,
      "duration": 0.0128,
      "velocity": 127,
      "chip": "ym2612"
    },
    {
      "channel": 4,
      "note": 90,
      "start": 39.9008,
      "duration": 0.0186,
      "velocity": 99,
      "chip": "ym2612"
    },
    {
      "channel": 0,
      "note": 85,
      "start": 39.935,
      "duration": 0.0247,
      "velocity": 103,
      "chip": "ym2612"
    },
    {
      "channel": 1,
      "note": 88,
      "start": 39.9372,
      "duration": 0.0228,
      "velocity": 103,
      "chip": "ym2612"
    },
    {
      "channel": 2,
      "note": 94,
      "start": 39.9395,
      "duration": 0.0143,
      "velocity": 97,
      "chip": "ym2612"
    },
    {
      "channel": 4,
      "note": 97,
      "start": 39.9459,
      "duration": 0.0188,
      "velocity": 103,
      "chip": "ym2612"
    },
    {
      "channel": 3,
      "note": 73,
      "start": 39.9512,
      "duration": 0.0159,
      "velocity": 103,
      "chip": "ym2612"
    },
    {
      "channel": 0,
      "note": 85,
      "start": 39.963,
      "duration": 0.015,
      "velocity": 103,
      "chip": "ym2612"
    },
    {
      "channel": 1,
      "note": 88,
      "start": 39.9635,
      "duration": 0.0147,
      "velocity": 103,
      "chip": "ym2612"
    },
    {
      "channel": 2,
      "note": 94,
      "start": 39.9641,
      "duration": 0.0088,
      "velocity": 97,
      "chip": "ym2612"
    },
    {
      "channel": 4,
      "note": 85,
      "start": 39.9677,
      "duration": 0.0154,
      "velocity": 103,
      "chip": "ym2612"
    },
    {
      "channel": 3,
      "note": 88,
      "start": 39.9704,
      "duration": 0.0152,
      "velocity": 103,
      "chip": "ym2612"
    },
    {
      "channel": 0,
      "note": 85,
      "start": 39.9813,
      "duration": 0.0157,
      "velocity": 103,
      "chip": "ym2612"
    },
    {
      "channel": 1,
      "note": 88,
      "start": 39.982,
      "duration": 0.0153,
      "velocity": 103,
      "chip": "ym2612"
    },
    {
      "channel": 2,
      "note": 94,
      "start": 39.9825,
      "duration": 0.009,
      "velocity": 97,
      "chip": "ym2612"
    },
    {
      "channel": 4,
      "note": 85,
      "start": 39.9862,
      "duration": 0.0229,
      "velocity": 103,
      "chip": "ym2612"
    },
    {
      "channel": 3,
      "note": 88,
      "start": 39.989,
      "duration": 0.0382,
      "velocity": 103,
      "chip": "ym2612"
    },
    {
      "channel": 0,
      "note": 85,
      "start": 40.0075,
      "duration": 0.0946,
      "velocity": 103,
      "chip": "ym2612"
    },
    {
      "channel": 1,
      "note": 88,
      "start": 40.0079,
      "duration": 0.0944,
      "velocity": 103,
      "chip": "ym2612"
    },
    {
      "channel": 2,
      "note": 94,
      "start": 40.0085,
      "duration": 0.0562,
      "velocity": 97,
      "chip": "ym2612"
    },
    {
      "channel": 4,
      "note": 85,
      "start": 40.028,
      "duration": 0.0948,
      "velocity": 103,
      "chip": "ym2612"
    },
    {
      "channel": 3,
      "note": 88,
      "start": 40.0462,
      "duration": 0.0945,
      "velocity": 103,
      "chip": "ym2612"
    },
    {
      "channel": 0,
      "note": 85,
      "start": 40.1212,
      "duration": 0.0946,
      "velocity": 103,
      "chip": "ym2612"
    },
    {
      "channel": 1,
      "note": 88,
      "start": 40.1217,
      "duration": 0.0943,
      "velocity": 103,
      "chip": "ym2612"
    },
    {
      "channel": 2,
      "note": 94,
      "start": 40.1222,
      "duration": 0.0562,
      "velocity": 97,
      "chip": "ym2612"
    },
    {
      "channel": 4,
      "note": 85,
      "start": 40.1413,
      "duration": 0.0954,
      "velocity": 103,
      "chip": "ym2612"
    },
    {
      "channel": 3,
      "note": 88,
      "start": 40.1602,
      "duration": 0.0943,
      "velocity": 103,
      "chip": "ym2612"
    },
    {
      "channel": 0,
      "note": 85,
      "start": 40.235,
      "duration": 0.0947,
      "velocity": 103,
      "chip": "ym2612"
    },
    {
      "channel": 1,
      "note": 88,
      "start": 40.2355,
      "duration": 0.0944,
      "velocity": 103,
      "chip": "ym2612"
    },
    {
      "channel": 2,
      "note": 94,
      "start": 40.236,
      "duration": 0.0562,
      "velocity": 97,
      "chip": "ym2612"
    },
    {
      "channel": 4,
      "note": 85,
      "start": 40.2551,
      "duration": 0.0954,
      "velocity": 103,
      "chip": "ym2612"
    },
    {
      "channel": 3,
      "note": 88,
      "start": 40.2737,
      "duration": 0.0945,
      "velocity": 103,
      "chip": "ym2612"
    },
    {
      "channel": 0,
      "note": 85,
      "start": 40.3488,
      "duration": 0.0949,
      "velocity": 103,
      "chip": "ym2612"
    },
    {
      "channel": 1,
      "note": 88,
      "start": 40.3493,
      "duration": 0.0946,
      "velocity": 103,
      "chip": "ym2612"
    },
    {
      "channel": 2,
      "note": 94,
      "start": 40.3498,
      "duration": 0.0561,
      "velocity": 97,
      "chip": "ym2612"
    },
    {
      "channel": 4,
      "note": 85,
      "start": 40.3688,
      "duration": 0.0947,
      "velocity": 103,
      "chip": "ym2612"
    },
    {
      "channel": 3,
      "note": 88,
      "start": 40.3874,
      "duration": 0.0946,
      "velocity": 103,
      "chip": "ym2612"
    },
    {
      "channel": 0,
      "note": 86,
      "start": 40.5763,
      "duration": 0.1135,
      "velocity": 103,
      "chip": "ym2612"
    },
    {
      "channel": 1,
      "note": 90,
      "start": 40.5771,
      "duration": 0.113,
      "velocity": 103,
      "chip": "ym2612"
    },
    {
      "channel": 2,
      "note": 95,
      "start": 40.5778,
      "duration": 0.0745,
      "velocity": 97,
      "chip": "ym2612"
    },
    {
      "channel": 4,
      "note": 85,
      "start": 40.5964,
      "duration": 0.1139,
      "velocity": 103,
      "chip": "ym2612"
    },
    {
      "channel": 3,
      "note": 88,
      "start": 40.6149,
      "duration": 0.1137,
      "velocity": 103,
      "chip": "ym2612"
    },
    {
      "channel": 0,
      "note": 88,
      "start": 40.8038,
      "duration": 0.2084,
      "velocity": 103,
      "chip": "ym2612"
    },
    {
      "channel": 1,
      "note": 91,
      "start": 40.8043,
      "duration": 0.2081,
      "velocity": 103,
      "chip": "ym2612"
    },
    {
      "channel": 2,
      "note": 97,
      "start": 40.8048,
      "duration": 0.2079,
      "velocity": 97,
      "chip": "ym2612"
    },
    {
      "channel": 4,
      "note": 86,
      "start": 40.8239,
      "duration": 0.2175,
      "velocity": 103,
      "chip": "ym2612"
    },
    {
      "channel": 3,
      "note": 90,
      "start": 40.8425,
      "duration": 0.1706,
      "velocity": 103,
      "chip": "ym2612"
    },
    {
      "channel": 0,
      "note": 90,
      "start": 41.0331,
      "duration": 0.0456,
      "velocity": 99,
      "chip": "ym2612"
    },
    {
      "channel": 1,
      "note": 78,
      "start": 41.0354,
      "duration": 0.0408,
      "velocity": 97,
      "chip": "ym2612"
    },
    {
      "channel": 2,
      "note": 54,
      "start": 41.0376,
      "duration": 0.0388,
      "velocity": 82,
      "chip": "ym2612"
    },
    {
      "channel": 3,
      "note": 91,
      "start": 41.041,
      "duration": 0.0154,
      "velocity": 127,
      "chip": "ym2612"
    },
    {
      "channel": 4,
      "note": 88,
      "start": 41.0481,
      "duration": 0.038,
      "velocity": 99,
      "chip": "ym2612"
    },
    {
      "channel": 0,
      "note": 90,
      "start": 41.0814,
      "duration": 0.0352,
      "velocity": 97,
      "chip": "ym2612"
    },
    {
      "channel": 1,
      "note": 78,
      "start": 41.0819,
      "duration": 0.0376,
      "velocity": 97,
      "chip": "ym2612"
    },
    {
      "channel": 3,
      "note": 73,
      "start": 41.0916,
      "duration": 0.0344,
      "velocity": 97,
      "chip": "ym2612"
    },
    {
      "channel": 4,
      "note": 90,
      "start": 41.1036,
      "duration": 0.0293,
      "velocity": 97,
      "chip": "ym2612"
    },
    {
      "channel": 0,
      "note": 89,
      "start": 41.1222,
      "duration": 0.0938,
      "velocity": 97,
      "chip": "ym2612"
    },
    {
      "channel": 1,
      "note": 77,
      "start": 41.1227,
      "duration": 0.1124,
      "velocity": 97,
      "chip": "ym2612"
    },
    {
      "channel": 3,
      "note": 78,
      "start": 41.129,
      "duration": 0.1446,
      "velocity": 97,
      "chip": "ym2612"
    },
    {
      "channel": 4,
      "note": 90,
      "start": 41.1387,
      "duration": 0.1732,
      "velocity": 97,
      "chip": "ym2612"
    },
    {
      "channel": 0,
      "note": 85,
      "start": 41.2541,
      "duration": 0.1894,
      "velocity": 97,
      "chip": "ym2612"
    },
    {
      "channel": 1,
      "note": 73,
      "start": 41.2546,
      "duration": 0.2081,
      "velocity": 97,
      "chip": "ym2612"
    },
    {
      "channel": 3,
      "note": 77,
      "start": 41.2928,
      "duration": 0.2088,
      "velocity": 97,
      "chip": "ym2612"
    },
    {
      "channel": 4,
      "note": 89,
      "start": 41.35,
      "duration": 0.1893,
      "velocity": 97,
      "chip": "ym2612"
    },
    {
      "channel": 0,
      "note": 88,
      "start": 41.4816,
      "duration": 0.1894,
      "velocity": 97,
      "chip": "ym2612"
    },
    {
      "channel": 1,
      "note": 76,
      "start": 41.4821,
      "duration": 0.2081,
      "velocity": 97,
      "chip": "ym2612"
    },
    {
      "channel": 3,
      "note": 73,
      "start": 41.5203,
      "duration": 0.2083,
      "velocity": 97,
      "chip": "ym2612"
    },
    {
      "channel": 4,
      "note": 85,
      "start": 41.5775,
      "duration": 0.1897,
      "velocity": 97,
      "chip": "ym2612"
    },
    {
      "channel": 0,
      "note": 86,
      "start": 41.7091,
      "duration": 0.1894,
      "velocity": 97,
      "chip": "ym2612"
    },
    {
      "channel": 1,
      "note": 74,
      "start": 41.7097,
      "duration": 0.2083,
      "velocity": 97,
      "chip": "ym2612"
    },
    {
      "channel": 3,
      "note": 76,
      "start": 41.7478,
      "duration": 0.2083,
      "velocity": 97,
      "chip": "ym2612"
    },
    {
      "channel": 4,
      "note": 88,
      "start": 41.8051,
      "duration": 0.1894,
      "velocity": 97,
      "chip": "ym2612"
    },
    {
      "channel": 0,
      "note": 83,
      "start": 41.9366,
      "duration": 0.1895,
      "velocity": 97,
      "chip": "ym2612"
    },
    {
      "channel": 1,
      "note": 71,
      "start": 41.9371,
      "duration": 0.2081,
      "velocity": 97,
      "chip": "ym2612"
    },
    {
      "channel": 3,
      "note": 74,
      "start": 41.9754,
      "duration": 0.1705,
      "velocity": 97,
      "chip": "ym2612"
    },
    {
      "channel": 4,
      "note": 86,
      "start": 42.0326,
      "duration": 0.1893,
      "velocity": 97,
      "chip": "ym2612"
    },
    {
      "channel": 0,
      "note": 90,
      "start": 42.1644,
      "duration": 0.1892,
      "velocity": 97,
      "chip": "ym2612"
    },
    {
      "channel": 1,
      "note": 78,
      "start": 42.1648,
      "duration": 0.208,
      "velocity": 97,
      "chip": "ym2612"
    },
    {
      "channel": 2,
      "note": 66,
      "start": 42.1673,
      "duration": 0.2058,
      "velocity": 82,
      "chip": "ym2612"
    },
    {
      "channel": 3,
      "note": 71,
      "start": 42.1707,
      "duration": 0.2027,
      "velocity": 97,
      "chip": "ym2612"
    },
    {
      "channel": 4,
      "note": 83,
      "start": 42.2627,
      "duration": 0.1867,
      "velocity": 97,
      "chip": "ym2612"
    },
    {
      "channel": 0,
      "note": 89,
      "start": 42.3917,
      "duration": 0.1894,
      "velocity": 97,
      "chip": "ym2612"
    },
    {
      "channel": 1,
      "note": 77,
      "start": 42.3922,
      "duration": 0.2083,
      "velocity": 97,
      "chip": "ym2612"
    },
    {
      "channel": 2,
      "note": 65,
      "start": 42.3927,
      "duration": 0.2081,
      "velocity": 82,
      "chip": "ym2612"
    },
    {
      "channel": 3,
      "note": 66,
      "start": 42.3933,
      "duration": 0.2081,
      "velocity": 97,
      "chip": "ym2612"
    },
    {
      "channel": 4,
      "note": 90,
      "start": 42.4875,
      "duration": 0.1894,
      "velocity": 97,
      "chip": "ym2612"
    },
    {
      "channel": 0,
      "note": 85,
      "start": 42.6193,
      "duration": 0.1894,
      "velocity": 97,
      "chip": "ym2612"
    },
    {
      "channel": 1,
      "note": 73,
      "start": 42.6198,
      "duration": 0.208,
      "velocity": 97,
      "chip": "ym2612"
    },
    {
      "channel": 2,
      "note": 61,
      "start": 42.6203,
      "duration": 0.2078,
      "velocity": 82,
      "chip": "ym2612"
    },
    {
      "channel": 3,
      "note": 65,
      "start": 42.6209,
      "duration": 0.2075,
      "velocity": 97,
      "chip": "ym2612"
    },
    {
      "channel": 4,
      "note": 89,
      "start": 42.7151,
      "duration": 0.1894,
      "velocity": 97,
      "chip": "ym2612"
    },
    {
      "channel": 0,
      "note": 88,
      "start": 42.8467,
      "duration": 0.1895,
      "velocity": 97,
      "chip": "ym2612"
    },
    {
      "channel": 1,
      "note": 76,
      "start": 42.8473,
      "duration": 0.2081,
      "velocity": 97,
      "chip": "ym2612"
    },
    {
      "channel": 2,
      "note": 64,
      "start": 42.8478,
      "duration": 0.2078,
      "velocity": 82,
      "chip": "ym2612"
    },
    {
      "channel": 3,
      "note": 61,
      "start": 42.8484,
      "duration": 0.2075,
      "velocity": 97,
      "chip": "ym2612"
    },
    {
      "channel": 4,
      "note": 85,
      "start": 42.9425,
      "duration": 0.1895,
      "velocity": 97,
      "chip": "ym2612"
    },
    {
      "channel": 0,
      "note": 86,
      "start": 43.0743,
      "duration": 0.1894,
      "velocity": 97,
      "chip": "ym2612"
    },
    {
      "channel": 1,
      "note": 74,
      "start": 43.0748,
      "duration": 0.2081,
      "velocity": 97,
      "chip": "ym2612"
    },
    {
      "channel": 2,
      "note": 62,
      "start": 43.0753,
      "duration": 0.2078,
      "velocity": 82,
      "chip": "ym2612"
    },
    {
      "channel": 3,
      "note": 64,
      "start": 43.0759,
      "duration": 0.2078,
      "velocity": 97,
      "chip": "ym2612"
    },
    {
      "channel": 4,
      "note": 88,
      "start": 43.1702,
      "duration": 0.1893,
      "velocity": 97,
      "chip": "ym2612"
    },
    {
      "channel": 0,
      "note": 83,
      "start": 43.3018,
      "duration": 0.1894,
      "velocity": 97,
      "chip": "ym2612"
    },
    {
      "channel": 1,
      "note": 71,
      "start": 43.3023,
      "duration": 0.208,
      "velocity": 97,
      "chip": "ym2612"
    },
    {
      "channel": 2,
      "note": 59,
      "start": 43.3029,
      "duration": 0.2078,
      "velocity": 82,
      "chip": "ym2612"
    },
    {
      "channel": 3,
      "note": 62,
      "start": 43.3034,
      "duration": 0.2075,
      "velocity": 97,
      "chip": "ym2612"
    },
    {
      "channel": 4,
      "note": 86,
      "start": 43.3976,
      "duration": 0.1456,
      "velocity": 97,
      "chip": "ym2612"
    },
    {
      "channel": 0,
      "note": 78,
      "start": 43.5294,
      "duration": 2.9852,
      "velocity": 97,
      "chip": "ym2612"
    },
    {
      "channel": 1,
      "note": 70,
      "start": 43.53,
      "duration": 0.0409,
      "velocity": 97,
      "chip": "ym2612"
    },
    {
      "channel": 2,
      "note": 54,
      "start": 43.5321,
      "duration": 0.0161,
      "velocity": 82,
      "chip": "ym2612"
    },
    {
      "channel": 3,
      "note": 59,
      "start": 43.5327,
      "duration": 1.338,
      "velocity": 97,
      "chip": "ym2612"
    },
    {
      "channel": 4,
      "note": 83,
      "start": 43.5541,
      "duration": 1.279,
      "velocity": 97,
      "chip": "ym2612"
    },
    {
      "channel": 1,
      "note": 70,
      "start": 43.5755,
      "duration": 0.0142,
      "velocity": 97,
      "chip": "ym2612"
    },
    {
      "channel": 2,
      "note": 54,
      "start": 43.576,
      "duration": 0.014,
      "velocity": 82,
      "chip": "ym2612"
    },
    {
      "channel": 1,
      "note": 70,
      "start": 43.61,
      "duration": 0.0144,
      "velocity": 97,
      "chip": "ym2612"
    },
    {
      "channel": 2,
      "note": 54,
      "start": 43.6105,
      "duration": 0.0141,
      "velocity": 82,
      "chip": "ym2612"
    },
    {
      "channel": 1,
      "note": 70,
      "start": 43.7516,
      "duration": 0.0946,
      "velocity": 97,
      "chip": "ym2612"
    },
    {
      "channel": 2,
      "note": 54,
      "start": 43.7521,
      "duration": 0.0943,
      "velocity": 82,
      "chip": "ym2612"
    },
    {
      "channel": 1,
      "note": 70,
      "start": 43.9791,
      "duration": 0.0949,
      "velocity": 97,
      "chip": "ym2612"
    },
    {
      "channel": 2,
      "note": 54,
      "start": 43.9796,
      "duration": 0.0946,
      "velocity": 82,
      "chip": "ym2612"
    },
    {
      "channel": 1,
      "note": 70,
      "start": 44.207,
      "duration": 0.0943,
      "velocity": 97,
      "chip": "ym2612"
    },
    {
      "channel": 2,
      "note": 54,
      "start": 44.2077,
      "duration": 0.0938,
      "velocity": 82,
      "chip": "ym2612"
    },
    {
      "channel": 1,
      "note": 70,
      "start": 44.4342,
      "duration": 0.0946,
      "velocity": 97,
      "chip": "ym2612"
    },
    {
      "channel": 2,
      "note": 54,
      "start": 44.4347,
      "duration": 0.0943,
      "velocity": 82,
      "chip": "ym2612"
    },
    {
      "channel": 1,
      "note": 70,
      "start": 44.6617,
      "duration": 0.0949,
      "velocity": 97,
      "chip": "ym2612"
    },
    {
      "channel": 2,
      "note": 54,
      "start": 44.6622,
      "duration": 0.0946,
      "velocity": 82,
      "chip": "ym2612"
    },
    {
      "channel": 4,
      "note": 78,
      "start": 44.8742,
      "duration": 1.658,
      "velocity": 97,
      "chip": "ym2612"
    },
    {
      "channel": 1,
      "note": 70,
      "start": 44.8892,
      "duration": 0.0946,
      "velocity": 97,
      "chip": "ym2612"
    },
    {
      "channel": 2,
      "note": 54,
      "start": 44.8919,
      "duration": 0.0922,
      "velocity": 82,
      "chip": "ym2612"
    },
    {
      "channel": 3,
      "note": 54,
      "start": 44.8924,
      "duration": 1.6266,
      "velocity": 97,
      "chip": "ym2612"
    },
    {
      "channel": 1,
      "note": 70,
      "start": 45.1168,
      "duration": 0.0946,
      "velocity": 97,
      "chip": "ym2612"
    },
    {
      "channel": 2,
      "note": 54,
      "start": 45.1173,
      "duration": 0.0944,
      "velocity": 82,
      "chip": "ym2612"
    },
    {
      "channel": 1,
      "note": 70,
      "start": 45.3442,
      "duration": 0.0946,
      "velocity": 97,
      "chip": "ym2612"
    },
    {
      "channel": 2,
      "note": 54,
      "start": 45.3447,
      "duration": 0.0944,
      "velocity": 82,
      "chip": "ym2612"
    },
    {
      "channel": 1,
      "note": 70,
      "start": 45.5718,
      "duration": 0.0946,
      "velocity": 97,
      "chip": "ym2612"
    },
    {
      "channel": 2,
      "note": 54,
      "start": 45.5723,
      "duration": 0.0943,
      "velocity": 82,
      "chip": "ym2612"
    },
    {
      "channel": 1,
      "note": 70,
      "start": 45.7993,
      "duration": 0.0946,
      "velocity": 97,
      "chip": "ym2612"
    },
    {
      "channel": 2,
      "note": 54,
      "start": 45.7998,
      "duration": 0.0943,
      "velocity": 82,
      "chip": "ym2612"
    },
    {
      "channel": 1,
      "note": 70,
      "start": 46.0269,
      "duration": 0.0945,
      "velocity": 97,
      "chip": "ym2612"
    },
    {
      "channel": 2,
      "note": 54,
      "start": 46.0273,
      "duration": 0.0943,
      "velocity": 82,
      "chip": "ym2612"
    },
    {
      "channel": 1,
      "note": 70,
      "start": 46.2544,
      "duration": 0.0946,
      "velocity": 97,
      "chip": "ym2612"
    },
    {
      "channel": 2,
      "note": 54,
      "start": 46.2549,
      "duration": 0.0944,
      "velocity": 82,
      "chip": "ym2612"
    },
    {
      "channel": 1,
      "note": 70,
      "start": 46.4819,
      "duration": 0.0366,
      "velocity": 97,
      "chip": "ym2612"
    },
    {
      "channel": 2,
      "note": 54,
      "start": 46.4841,
      "duration": 0.0347,
      "velocity": 82,
      "chip": "ym2612"
    },
    {
      "channel": 2,
      "note": 59,
      "start": 46.5243,
      "duration": 0.0269,
      "velocity": 82,
      "chip": "ym2612"
    },
    {
      "channel": 3,
      "note": 58,
      "start": 46.5278,
      "duration": 0.0237,
      "velocity": 97,
      "chip": "ym2612"
    },
    {
      "channel": 0,
      "note": 59,
      "start": 46.5366,
      "duration": 0.0173,
      "velocity": 82,
      "chip": "ym2612"
    },
    {
      "channel": 1,
      "note": 62,
      "start": 46.5391,
      "duration": 0.0207,
      "velocity": 97,
      "chip": "ym2612"
    },
    {
      "channel": 2,
      "note": 59,
      "start": 46.5733,
      "duration": 0.0192,
      "velocity": 82,
      "chip": "ym2612"
    },
    {
      "channel": 3,
      "note": 62,
      "start": 46.5768,
      "duration": 0.0159,
      "velocity": 97,
      "chip": "ym2612"
    },
    {
      "channel": 0,
      "note": 59,
      "start": 46.5841,
      "duration": 0.0107,
      "velocity": 82,
      "chip": "ym2612"
    },
    {
      "channel": 1,
      "note": 62,
      "start": 46.5863,
      "duration": 0.012,
      "velocity": 97,
      "chip": "ym2612"
    },
    {
      "channel": 2,
      "note": 59,
      "start": 46.6169,
      "duration": 0.0131,
      "velocity": 82,
      "chip": "ym2612"
    },
    {
      "channel": 3,
      "note": 62,
      "start": 46.6175,
      "duration": 0.0127,
      "velocity": 97,
      "chip": "ym2612"
    },
    {
      "channel": 0,
      "note": 59,
      "start": 46.6227,
      "duration": 0.0097,
      "velocity": 82,
      "chip": "ym2612"
    },
    {
      "channel": 1,
      "note": 62,
      "start": 46.6232,
      "duration": 0.0124,
      "velocity": 97,
      "chip": "ym2612"
    },
    {
      "channel": 2,
      "note": 59,
      "start": 46.7495,
      "duration": 0.0756,
      "velocity": 82,
      "chip": "ym2612"
    },
    {
      "channel": 3,
      "note": 62,
      "start": 46.7501,
      "duration": 0.0753,
      "velocity": 97,
      "chip": "ym2612"
    },
    {
      "channel": 0,
      "note": 59,
      "start": 46.7869,
      "duration": 0.0567,
      "velocity": 82,
      "chip": "ym2612"
    },
    {
      "channel": 1,
      "note": 62,
      "start": 46.7874,
      "duration": 0.0754,
      "velocity": 97,
      "chip": "ym2612"
    },
    {
      "channel": 2,
      "note": 59,
      "start": 46.977,
      "duration": 0.0756,
      "velocity": 82,
      "chip": "ym2612"
    },
    {
      "channel": 3,
      "note": 62,
      "start": 46.9776,
      "duration": 0.0753,
      "velocity": 97,
      "chip": "ym2612"
    },
    {
      "channel": 0,
      "note": 59,
      "start": 47.0147,
      "duration": 0.0565,
      "velocity": 82,
      "chip": "ym2612"
    },
    {
      "channel": 1,
      "note": 62,
      "start": 47.0152,
      "duration": 0.0752,
      "velocity": 97,
      "chip": "ym2612"
    }
  ]
}