{
  "track_name": "15 - Postwar Processing",
  "duration_sec": 20.156,
  "sample_rate": 44100,
  "note_count": 222,
  "unique_pitches": 21,
  "pitch_range": 43,
  "avg_note_duration": 0.1812,
  "reconstruction_stats": {
    "notes_reconstructed": 222,
    "keyon_events": 222,
    "keyoff_events": 220,
    "orphan_keyons": 2,
    "unique_pitches": 21,
    "pitch_range": 43,
    "avg_duration_sec": 0.1812
  },
  "metadata": {
    "source": "D\\Daikoukai Jidai II\\15 - Postwar Processing.vgz"
  },
  "notes": [
    {
      "channel": 3,
      "note": 60,
      "start": 0.0145,
      "duration": 0.0841,
      "velocity": 84,
      "chip": "ym2612"
    },
    {
      "channel": 4,
      "note": 60,
      "start": 0.017,
      "duration": 0.089,
      "velocity": 84,
      "chip": "ym2612"
    },
    {
      "channel": 3,
      "note": 67,
      "start": 0.36,
      "duration": 0.1335,
      "velocity": 84,
      "chip": "ym2612"
    },
    {
      "channel": 4,
      "note": 67,
      "start": 0.3747,
      "duration": 0.1337,
      "velocity": 84,
      "chip": "ym2612"
    },
    {
      "channel": 0,
      "note": 103,
      "start": 0.7174,
      "duration": 0.1039,
      "velocity": 105,
      "chip": "ym2612"
    },
    {
      "channel": 3,
      "note": 76,
      "start": 0.718,
      "duration": 0.1183,
      "velocity": 84,
      "chip": "ym2612"
    },
    {
      "channel": 4,
      "note": 76,
      "start": 0.7324,
      "duration": 0.1188,
      "velocity": 84,
      "chip": "ym2612"
    },
    {
      "channel": 1,
      "note": 103,
      "start": 0.7473,
      "duration": 0.104,
      "velocity": 105,
      "chip": "ym2612"
    },
    {
      "channel": 2,
      "note": 103,
      "start": 0.8069,
      "duration": 0.3574,
      "velocity": 105,
      "chip": "ym2612"
    },
    {
      "channel": 0,
      "note": 103,
      "start": 1.0751,
      "duration": 0.1039,
      "velocity": 105,
      "chip": "ym2612"
    },
    {
      "channel": 3,
      "note": 67,
      "start": 1.0757,
      "duration": 0.0885,
      "velocity": 84,
      "chip": "ym2612"
    },
    {
      "channel": 4,
      "note": 67,
      "start": 1.0901,
      "duration": 0.0893,
      "velocity": 84,
      "chip": "ym2612"
    },
    {
      "channel": 1,
      "note": 103,
      "start": 1.105,
      "duration": 0.104,
      "velocity": 105,
      "chip": "ym2612"
    },
    {
      "channel": 2,
      "note": 103,
      "start": 1.1648,
      "duration": 0.3571,
      "velocity": 105,
      "chip": "ym2612"
    },
    {
      "channel": 0,
      "note": 101,
      "start": 1.4328,
      "duration": 0.1188,
      "velocity": 105,
      "chip": "ym2612"
    },
    {
      "channel": 3,
      "note": 62,
      "start": 1.4334,
      "duration": 0.1332,
      "velocity": 84,
      "chip": "ym2612"
    },
    {
      "channel": 4,
      "note": 62,
      "start": 1.4478,
      "duration": 0.1341,
      "velocity": 84,
      "chip": "ym2612"
    },
    {
      "channel": 1,
      "note": 101,
      "start": 1.4627,
      "duration": 0.1193,
      "velocity": 105,
      "chip": "ym2612"
    },
    {
      "channel": 2,
      "note": 101,
      "start": 1.5224,
      "duration": 0.3572,
      "velocity": 105,
      "chip": "ym2612"
    },
    {
      "channel": 0,
      "note": 100,
      "start": 1.7905,
      "duration": 0.119,
      "velocity": 105,
      "chip": "ym2612"
    },
    {
      "channel": 3,
      "note": 69,
      "start": 1.7911,
      "duration": 0.0886,
      "velocity": 84,
      "chip": "ym2612"
    },
    {
      "channel": 4,
      "note": 69,
      "start": 1.8055,
      "duration": 0.089,
      "velocity": 84,
      "chip": "ym2612"
    },
    {
      "channel": 1,
      "note": 100,
      "start": 1.8203,
      "duration": 0.1191,
      "velocity": 105,
      "chip": "ym2612"
    },
    {
      "channel": 2,
      "note": 100,
      "start": 1.8802,
      "duration": 0.3608,
      "velocity": 105,
      "chip": "ym2612"
    },
    {
      "channel": 0,
      "note": 98,
      "start": 2.152,
      "duration": 0.1337,
      "velocity": 105,
      "chip": "ym2612"
    },
    {
      "channel": 3,
      "note": 77,
      "start": 2.1525,
      "duration": 0.1481,
      "velocity": 84,
      "chip": "ym2612"
    },
    {
      "channel": 4,
      "note": 77,
      "start": 2.1669,
      "duration": 0.1486,
      "velocity": 84,
      "chip": "ym2612"
    },
    {
      "channel": 1,
      "note": 98,
      "start": 2.1818,
      "duration": 0.1338,
      "velocity": 105,
      "chip": "ym2612"
    },
    {
      "channel": 2,
      "note": 98,
      "start": 2.2415,
      "duration": 0.3572,
      "velocity": 105,
      "chip": "ym2612"
    },
    {
      "channel": 0,
      "note": 96,
      "start": 2.5099,
      "duration": 0.1037,
      "velocity": 105,
      "chip": "ym2612"
    },
    {
      "channel": 3,
      "note": 69,
      "start": 2.5104,
      "duration": 0.1032,
      "velocity": 84,
      "chip": "ym2612"
    },
    {
      "channel": 4,
      "note": 69,
      "start": 2.5246,
      "duration": 0.1039,
      "velocity": 84,
      "chip": "ym2612"
    },
    {
      "channel": 1,
      "note": 96,
      "start": 2.5401,
      "duration": 0.1032,
      "velocity": 105,
      "chip": "ym2612"
    },
    {
      "channel": 2,
      "note": 96,
      "start": 2.5995,
      "duration": 0.3569,
      "velocity": 105,
      "chip": "ym2612"
    },
    {
      "channel": 0,
      "note": 91,
      "start": 2.8673,
      "duration": 0.089,
      "velocity": 105,
      "chip": "ym2612"
    },
    {
      "channel": 3,
      "note": 64,
      "start": 2.8679,
      "duration": 0.0736,
      "velocity": 84,
      "chip": "ym2612"
    },
    {
      "channel": 4,
      "note": 64,
      "start": 2.8823,
      "duration": 0.0743,
      "velocity": 84,
      "chip": "ym2612"
    },
    {
      "channel": 1,
      "note": 91,
      "start": 2.8972,
      "duration": 0.089,
      "velocity": 105,
      "chip": "ym2612"
    },
    {
      "channel": 2,
      "note": 91,
      "start": 2.9571,
      "duration": 0.357,
      "velocity": 105,
      "chip": "ym2612"
    },
    {
      "channel": 0,
      "note": 96,
      "start": 3.2253,
      "duration": 0.0888,
      "velocity": 105,
      "chip": "ym2612"
    },
    {
      "channel": 3,
      "note": 72,
      "start": 3.2259,
      "duration": 0.1329,
      "velocity": 84,
      "chip": "ym2612"
    },
    {
      "channel": 4,
      "note": 72,
      "start": 3.24,
      "duration": 0.1337,
      "velocity": 84,
      "chip": "ym2612"
    },
    {
      "channel": 1,
      "note": 96,
      "start": 3.255,
      "duration": 0.0889,
      "velocity": 105,
      "chip": "ym2612"
    },
    {
      "channel": 2,
      "note": 96,
      "start": 3.3147,
      "duration": 0.7149,
      "velocity": 105,
      "chip": "ym2612"
    },
    {
      "channel": 3,
      "note": 79,
      "start": 3.5828,
      "duration": 0.1188,
      "velocity": 84,
      "chip": "ym2612"
    },
    {
      "channel": 4,
      "note": 79,
      "start": 3.5978,
      "duration": 0.1187,
      "velocity": 84,
      "chip": "ym2612"
    },
    {
      "channel": 0,
      "note": 96,
      "start": 3.9405,
      "duration": 0.0892,
      "velocity": 105,
      "chip": "ym2612"
    },
    {
      "channel": 3,
      "note": 72,
      "start": 3.941,
      "duration": 0.1332,
      "velocity": 84,
      "chip": "ym2612"
    },
    {
      "channel": 4,
      "note": 72,
      "start": 3.9554,
      "duration": 0.1337,
      "velocity": 84,
      "chip": "ym2612"
    },
    {
      "channel": 1,
      "note": 96,
      "start": 3.9704,
      "duration": 0.0892,
      "velocity": 105,
      "chip": "ym2612"
    },
    {
      "channel": 2,
      "note": 96,
      "start": 4.0301,
      "duration": 0.3607,
      "velocity": 105,
      "chip": "ym2612"
    },
    {
      "channel": 0,
      "note": 98,
      "start": 4.3019,
      "duration": 0.1188,
      "velocity": 105,
      "chip": "ym2612"
    },
    {
      "channel": 3,
      "note": 64,
      "start": 4.3024,
      "duration": 0.1332,
      "velocity": 84,
      "chip": "ym2612"
    },
    {
      "channel": 4,
      "note": 64,
      "start": 4.3168,
      "duration": 0.1337,
      "velocity": 84,
      "chip": "ym2612"
    },
    {
      "channel": 1,
      "note": 98,
      "start": 4.3317,
      "duration": 0.1189,
      "velocity": 105,
      "chip": "ym2612"
    },
    {
      "channel": 2,
      "note": 98,
      "start": 4.3914,
      "duration": 0.3572,
      "velocity": 105,
      "chip": "ym2612"
    },
    {
      "channel": 0,
      "note": 96,
      "start": 4.6598,
      "duration": 0.0889,
      "velocity": 105,
      "chip": "ym2612"
    },
    {
      "channel": 3,
      "note": 71,
      "start": 4.6603,
      "duration": 0.1627,
      "velocity": 84,
      "chip": "ym2612"
    },
    {
      "channel": 4,
      "note": 71,
      "start": 4.6745,
      "duration": 0.1635,
      "velocity": 84,
      "chip": "ym2612"
    },
    {
      "channel": 1,
      "note": 96,
      "start": 4.6896,
      "duration": 0.0888,
      "velocity": 105,
      "chip": "ym2612"
    },
    {
      "channel": 2,
      "note": 96,
      "start": 4.7494,
      "duration": 0.3568,
      "velocity": 105,
      "chip": "ym2612"
    },
    {
      "channel": 0,
      "note": 95,
      "start": 5.0173,
      "duration": 0.1337,
      "velocity": 105,
      "chip": "ym2612"
    },
    {
      "channel": 3,
      "note": 79,
      "start": 5.0178,
      "duration": 0.1183,
      "velocity": 84,
      "chip": "ym2612"
    },
    {
      "channel": 4,
      "note": 79,
      "start": 5.0322,
      "duration": 0.1189,
      "velocity": 84,
      "chip": "ym2612"
    },
    {
      "channel": 1,
      "note": 95,
      "start": 5.0471,
      "duration": 0.1337,
      "velocity": 105,
      "chip": "ym2612"
    },
    {
      "channel": 2,
      "note": 95,
      "start": 5.1068,
      "duration": 0.3572,
      "velocity": 105,
      "chip": "ym2612"
    },
    {
      "channel": 0,
      "note": 91,
      "start": 5.3749,
      "duration": 0.1039,
      "velocity": 105,
      "chip": "ym2612"
    },
    {
      "channel": 3,
      "note": 71,
      "start": 5.3755,
      "duration": 0.1481,
      "velocity": 84,
      "chip": "ym2612"
    },
    {
      "channel": 4,
      "note": 71,
      "start": 5.39,
      "duration": 0.1485,
      "velocity": 84,
      "chip": "ym2612"
    },
    {
      "channel": 1,
      "note": 91,
      "start": 5.4048,
      "duration": 0.1039,
      "velocity": 105,
      "chip": "ym2612"
    },
    {
      "channel": 2,
      "note": 91,
      "start": 5.4645,
      "duration": 0.7151,
      "velocity": 105,
      "chip": "ym2612"
    },
    {
      "channel": 3,
      "note": 65,
      "start": 5.7327,
      "duration": 0.089,
      "velocity": 84,
      "chip": "ym2612"
    },
    {
      "channel": 4,
      "note": 65,
      "start": 5.7476,
      "duration": 0.089,
      "velocity": 84,
      "chip": "ym2612"
    },
    {
      "channel": 0,
      "note": 93,
      "start": 6.0903,
      "duration": 0.1039,
      "velocity": 105,
      "chip": "ym2612"
    },
    {
      "channel": 3,
      "note": 72,
      "start": 6.0909,
      "duration": 0.1035,
      "velocity": 84,
      "chip": "ym2612"
    },
    {
      "channel": 4,
      "note": 72,
      "start": 6.1053,
      "duration": 0.1076,
      "velocity": 84,
      "chip": "ym2612"
    },
    {
      "channel": 1,
      "note": 93,
      "start": 6.1202,
      "duration": 0.1076,
      "velocity": 105,
      "chip": "ym2612"
    },
    {
      "channel": 2,
      "note": 93,
      "start": 6.18,
      "duration": 0.3608,
      "velocity": 105,
      "chip": "ym2612"
    },
    {
      "channel": 0,
      "note": 93,
      "start": 6.4518,
      "duration": 0.0892,
      "velocity": 105,
      "chip": "ym2612"
    },
    {
      "channel": 3,
      "note": 79,
      "start": 6.4523,
      "duration": 0.1481,
      "velocity": 84,
      "chip": "ym2612"
    },
    {
      "channel": 4,
      "note": 79,
      "start": 6.4667,
      "duration": 0.1486,
      "velocity": 84,
      "chip": "ym2612"
    },
    {
      "channel": 1,
      "note": 93,
      "start": 6.4816,
      "duration": 0.089,
      "velocity": 105,
      "chip": "ym2612"
    },
    {
      "channel": 2,
      "note": 93,
      "start": 6.5414,
      "duration": 2.6858,
      "velocity": 105,
      "chip": "ym2612"
    },
    {
      "channel": 3,
      "note": 72,
      "start": 6.8097,
      "duration": 0.1037,
      "velocity": 84,
      "chip": "ym2612"
    },
    {
      "channel": 4,
      "note": 72,
      "start": 6.8244,
      "duration": 0.1039,
      "velocity": 84,
      "chip": "ym2612"
    },
    {
      "channel": 3,
      "note": 81,
      "start": 7.1672,
      "duration": 0.1486,
      "velocity": 84,
      "chip": "ym2612"
    },
    {
      "channel": 4,
      "note": 81,
      "start": 7.1821,
      "duration": 0.1486,
      "velocity": 84,
      "chip": "ym2612"
    },
    {
      "channel": 3,
      "note": 72,
      "start": 7.5249,
      "duration": 0.1039,
      "velocity": 84,
      "chip": "ym2612"
    },
    {
      "channel": 4,
      "note": 72,
      "start": 7.54,
      "duration": 0.1037,
      "velocity": 84,
      "chip": "ym2612"
    },
    {
      "channel": 3,
      "note": 79,
      "start": 7.8826,
      "duration": 0.1039,
      "velocity": 84,
      "chip": "ym2612"
    },
    {
      "channel": 4,
      "note": 79,
      "start": 7.8975,
      "duration": 0.1039,
      "velocity": 84,
      "chip": "ym2612"
    },
    {
      "channel": 3,
      "note": 60,
      "start": 8.2403,
      "duration": 0.1374,
      "velocity": 84,
      "chip": "ym2612"
    },
    {
      "channel": 4,
      "note": 60,
      "start": 8.2553,
      "duration": 0.1373,
      "velocity": 84,
      "chip": "ym2612"
    },
    {
      "channel": 3,
      "note": 65,
      "start": 8.6017,
      "duration": 0.0592,
      "velocity": 84,
      "chip": "ym2612"
    },
    {
      "channel": 4,
      "note": 65,
      "start": 8.6166,
      "duration": 0.0592,
      "velocity": 84,
      "chip": "ym2612"
    },
    {
      "channel": 3,
      "note": 72,
      "start": 8.9596,
      "duration": 0.1185,
      "velocity": 84,
      "chip": "ym2612"
    },
    {
      "channel": 4,
      "note": 72,
      "start": 8.9743,
      "duration": 0.1188,
      "velocity": 84,
      "chip": "ym2612"
    },
    {
      "channel": 0,
      "note": 96,
      "start": 9.1382,
      "duration": 0.0742,
      "velocity": 105,
      "chip": "ym2612"
    },
    {
      "channel": 1,
      "note": 96,
      "start": 9.168,
      "duration": 0.0741,
      "velocity": 105,
      "chip": "ym2612"
    },
    {
      "channel": 2,
      "note": 96,
      "start": 9.2277,
      "duration": 0.1783,
      "velocity": 105,
      "chip": "ym2612"
    },
    {
      "channel": 0,
      "note": 96,
      "start": 9.3171,
      "duration": 0.0891,
      "velocity": 105,
      "chip": "ym2612"
    },
    {
      "channel": 3,
      "note": 81,
      "start": 9.3176,
      "duration": 0.1481,
      "velocity": 84,
      "chip": "ym2612"
    },
    {
      "channel": 4,
      "note": 81,
      "start": 9.332,
      "duration": 0.1486,
      "velocity": 84,
      "chip": "ym2612"
    },
    {
      "channel": 1,
      "note": 96,
      "start": 9.3469,
      "duration": 0.089,
      "velocity": 105,
      "chip": "ym2612"
    },
    {
      "channel": 2,
      "note": 96,
      "start": 9.4067,
      "duration": 0.1788,
      "velocity": 105,
      "chip": "ym2612"
    },
    {
      "channel": 0,
      "note": 96,
      "start": 9.4959,
      "duration": 0.1039,
      "velocity": 105,
      "chip": "ym2612"
    },
    {
      "channel": 1,
      "note": 96,
      "start": 9.5257,
      "duration": 0.1039,
      "velocity": 105,
      "chip": "ym2612"
    },
    {
      "channel": 2,
      "note": 96,
      "start": 9.5859,
      "duration": 0.3567,
      "velocity": 105,
      "chip": "ym2612"
    },
    {
      "channel": 3,
      "note": 72,
      "start": 9.6748,
      "duration": 0.1188,
      "velocity": 84,
      "chip": "ym2612"
    },
    {
      "channel": 4,
      "note": 72,
      "start": 9.6899,
      "duration": 0.1185,
      "velocity": 84,
      "chip": "ym2612"
    },
    {
      "channel": 0,
      "note": 95,
      "start": 9.8536,
      "duration": 0.1039,
      "velocity": 105,
      "chip": "ym2612"
    },
    {
      "channel": 1,
      "note": 95,
      "start": 9.8834,
      "duration": 0.1039,
      "velocity": 105,
      "chip": "ym2612"
    },
    {
      "channel": 2,
      "note": 95,
      "start": 9.9431,
      "duration": 0.5398,
      "velocity": 105,
      "chip": "ym2612"
    },
    {
      "channel": 3,
      "note": 65,
      "start": 10.0325,
      "duration": 0.1188,
      "velocity": 84,
      "chip": "ym2612"
    },
    {
      "channel": 4,
      "note": 65,
      "start": 10.0474,
      "duration": 0.1188,
      "velocity": 84,
      "chip": "ym2612"
    },
    {
      "channel": 0,
      "note": 93,
      "start": 10.3939,
      "duration": 0.0891,
      "velocity": 105,
      "chip": "ym2612"
    },
    {
      "channel": 3,
      "note": 74,
      "start": 10.3944,
      "duration": 0.1183,
      "velocity": 84,
      "chip": "ym2612"
    },
    {
      "channel": 4,
      "note": 74,
      "start": 10.4088,
      "duration": 0.1188,
      "velocity": 84,
      "chip": "ym2612"
    },
    {
      "channel": 1,
      "note": 93,
      "start": 10.4237,
      "duration": 0.0892,
      "velocity": 105,
      "chip": "ym2612"
    },
    {
      "channel": 2,
      "note": 93,
      "start": 10.4835,
      "duration": 0.3571,
      "velocity": 105,
      "chip": "ym2612"
    },
    {
      "channel": 0,
      "note": 91,
      "start": 10.7516,
      "duration": 0.1039,
      "velocity": 105,
      "chip": "ym2612"
    },
    {
      "channel": 3,
      "note": 79,
      "start": 10.7521,
      "duration": 0.1183,
      "velocity": 84,
      "chip": "ym2612"
    },
    {
      "channel": 4,
      "note": 79,
      "start": 10.7665,
      "duration": 0.1188,
      "velocity": 84,
      "chip": "ym2612"
    },
    {
      "channel": 1,
      "note": 91,
      "start": 10.7814,
      "duration": 0.104,
      "velocity": 105,
      "chip": "ym2612"
    },
    {
      "channel": 2,
      "note": 91,
      "start": 10.8411,
      "duration": 0.3572,
      "velocity": 105,
      "chip": "ym2612"
    },
    {
      "channel": 0,
      "note": 93,
      "start": 11.1095,
      "duration": 0.1186,
      "velocity": 105,
      "chip": "ym2612"
    },
    {
      "channel": 3,
      "note": 74,
      "start": 11.11,
      "duration": 0.1031,
      "velocity": 84,
      "chip": "ym2612"
    },
    {
      "channel": 4,
      "note": 74,
      "start": 11.1242,
      "duration": 0.104,
      "velocity": 84,
      "chip": "ym2612"
    },
    {
      "channel": 1,
      "note": 93,
      "start": 11.1391,
      "duration": 0.1188,
      "velocity": 105,
      "chip": "ym2612"
    },
    {
      "channel": 2,
      "note": 93,
      "start": 11.1988,
      "duration": 0.8937,
      "velocity": 105,
      "chip": "ym2612"
    },
    {
      "channel": 3,
      "note": 65,
      "start": 11.467,
      "duration": 0.0592,
      "velocity": 84,
      "chip": "ym2612"
    },
    {
      "channel": 4,
      "note": 65,
      "start": 11.4819,
      "duration": 0.0592,
      "velocity": 84,
      "chip": "ym2612"
    },
    {
      "channel": 3,
      "note": 72,
      "start": 11.8247,
      "duration": 0.1189,
      "velocity": 84,
      "chip": "ym2612"
    },
    {
      "channel": 4,
      "note": 72,
      "start": 11.8398,
      "duration": 0.1185,
      "velocity": 84,
      "chip": "ym2612"
    },
    {
      "channel": 0,
      "note": 96,
      "start": 12.0035,
      "duration": 0.0741,
      "velocity": 105,
      "chip": "ym2612"
    },
    {
      "channel": 1,
      "note": 96,
      "start": 12.0333,
      "duration": 0.0741,
      "velocity": 105,
      "chip": "ym2612"
    },
    {
      "channel": 2,
      "note": 96,
      "start": 12.093,
      "duration": 0.1783,
      "velocity": 105,
      "chip": "ym2612"
    },
    {
      "channel": 0,
      "note": 96,
      "start": 12.1824,
      "duration": 0.0743,
      "velocity": 105,
      "chip": "ym2612"
    },
    {
      "channel": 3,
      "note": 81,
      "start": 12.1829,
      "duration": 0.1332,
      "velocity": 84,
      "chip": "ym2612"
    },
    {
      "channel": 4,
      "note": 81,
      "start": 12.1973,
      "duration": 0.1337,
      "velocity": 84,
      "chip": "ym2612"
    },
    {
      "channel": 1,
      "note": 96,
      "start": 12.2122,
      "duration": 0.0742,
      "velocity": 105,
      "chip": "ym2612"
    },
    {
      "channel": 2,
      "note": 96,
      "start": 12.2719,
      "duration": 0.1783,
      "velocity": 105,
      "chip": "ym2612"
    },
    {
      "channel": 0,
      "note": 96,
      "start": 12.3612,
      "duration": 0.0891,
      "velocity": 105,
      "chip": "ym2612"
    },
    {
      "channel": 1,
      "note": 96,
      "start": 12.391,
      "duration": 0.0927,
      "velocity": 105,
      "chip": "ym2612"
    },
    {
      "channel": 2,
      "note": 96,
      "start": 12.4508,
      "duration": 0.3608,
      "velocity": 105,
      "chip": "ym2612"
    },
    {
      "channel": 3,
      "note": 72,
      "start": 12.5438,
      "duration": 0.1337,
      "velocity": 84,
      "chip": "ym2612"
    },
    {
      "channel": 4,
      "note": 72,
      "start": 12.5588,
      "duration": 0.1336,
      "velocity": 84,
      "chip": "ym2612"
    },
    {
      "channel": 0,
      "note": 98,
      "start": 12.7226,
      "duration": 0.0891,
      "velocity": 105,
      "chip": "ym2612"
    },
    {
      "channel": 1,
      "note": 98,
      "start": 12.7524,
      "duration": 0.089,
      "velocity": 105,
      "chip": "ym2612"
    },
    {
      "channel": 2,
      "note": 98,
      "start": 12.8122,
      "duration": 0.5359,
      "velocity": 105,
      "chip": "ym2612"
    },
    {
      "channel": 3,
      "note": 65,
      "start": 12.9016,
      "duration": 0.1187,
      "velocity": 84,
      "chip": "ym2612"
    },
    {
      "channel": 4,
      "note": 65,
      "start": 12.9164,
      "duration": 0.1188,
      "velocity": 84,
      "chip": "ym2612"
    },
    {
      "channel": 0,
      "note": 96,
      "start": 13.2594,
      "duration": 0.0889,
      "velocity": 105,
      "chip": "ym2612"
    },
    {
      "channel": 3,
      "note": 74,
      "start": 13.26,
      "duration": 0.1329,
      "velocity": 84,
      "chip": "ym2612"
    },
    {
      "channel": 4,
      "note": 74,
      "start": 13.2742,
      "duration": 0.1336,
      "velocity": 84,
      "chip": "ym2612"
    },
    {
      "channel": 1,
      "note": 96,
      "start": 13.289,
      "duration": 0.089,
      "velocity": 105,
      "chip": "ym2612"
    },
    {
      "channel": 2,
      "note": 96,
      "start": 13.3488,
      "duration": 0.3571,
      "velocity": 105,
      "chip": "ym2612"
    },
    {
      "channel": 0,
      "note": 95,
      "start": 13.617,
      "duration": 0.089,
      "velocity": 105,
      "chip": "ym2612"
    },
    {
      "channel": 3,
      "note": 79,
      "start": 13.6175,
      "duration": 0.1331,
      "velocity": 84,
      "chip": "ym2612"
    },
    {
      "channel": 4,
      "note": 79,
      "start": 13.6318,
      "duration": 0.1337,
      "velocity": 84,
      "chip": "ym2612"
    },
    {
      "channel": 1,
      "note": 95,
      "start": 13.6467,
      "duration": 0.089,
      "velocity": 105,
      "chip": "ym2612"
    },
    {
      "channel": 2,
      "note": 95,
      "start": 13.7065,
      "duration": 0.3571,
      "velocity": 105,
      "chip": "ym2612"
    },
    {
      "channel": 0,
      "note": 91,
      "start": 13.9746,
      "duration": 0.1039,
      "velocity": 105,
      "chip": "ym2612"
    },
    {
      "channel": 3,
      "note": 74,
      "start": 13.9751,
      "duration": 0.1035,
      "velocity": 84,
      "chip": "ym2612"
    },
    {
      "channel": 4,
      "note": 74,
      "start": 13.9898,
      "duration": 0.1035,
      "velocity": 84,
      "chip": "ym2612"
    },
    {
      "channel": 1,
      "note": 91,
      "start": 14.0044,
      "duration": 0.1039,
      "velocity": 105,
      "chip": "ym2612"
    },
    {
      "channel": 2,
      "note": 91,
      "start": 14.0641,
      "duration": 0.3572,
      "velocity": 105,
      "chip": "ym2612"
    },
    {
      "channel": 0,
      "note": 93,
      "start": 14.3322,
      "duration": 0.1039,
      "velocity": 105,
      "chip": "ym2612"
    },
    {
      "channel": 3,
      "note": 62,
      "start": 14.3329,
      "duration": 0.1182,
      "velocity": 84,
      "chip": "ym2612"
    },
    {
      "channel": 4,
      "note": 62,
      "start": 14.3472,
      "duration": 0.1188,
      "velocity": 84,
      "chip": "ym2612"
    },
    {
      "channel": 1,
      "note": 93,
      "start": 14.3621,
      "duration": 0.104,
      "velocity": 105,
      "chip": "ym2612"
    },
    {
      "channel": 2,
      "note": 93,
      "start": 14.4218,
      "duration": 0.3609,
      "velocity": 105,
      "chip": "ym2612"
    },
    {
      "channel": 0,
      "note": 95,
      "start": 14.6937,
      "duration": 0.1337,
      "velocity": 105,
      "chip": "ym2612"
    },
    {
      "channel": 3,
      "note": 69,
      "start": 14.6942,
      "duration": 0.1183,
      "velocity": 84,
      "chip": "ym2612"
    },
    {
      "channel": 4,
      "note": 69,
      "start": 14.7086,
      "duration": 0.1189,
      "velocity": 84,
      "chip": "ym2612"
    },
    {
      "channel": 1,
      "note": 95,
      "start": 14.7235,
      "duration": 0.1337,
      "velocity": 105,
      "chip": "ym2612"
    },
    {
      "channel": 2,
      "note": 95,
      "start": 14.7832,
      "duration": 0.3572,
      "velocity": 105,
      "chip": "ym2612"
    },
    {
      "channel": 0,
      "note": 96,
      "start": 15.0514,
      "duration": 0.1039,
      "velocity": 105,
      "chip": "ym2612"
    },
    {
      "channel": 3,
      "note": 72,
      "start": 15.0519,
      "duration": 0.1183,
      "velocity": 84,
      "chip": "ym2612"
    },
    {
      "channel": 4,
      "note": 72,
      "start": 15.0663,
      "duration": 0.1188,
      "velocity": 84,
      "chip": "ym2612"
    },
    {
      "channel": 1,
      "note": 96,
      "start": 15.0812,
      "duration": 0.104,
      "velocity": 105,
      "chip": "ym2612"
    },
    {
      "channel": 2,
      "note": 96,
      "start": 15.1409,
      "duration": 0.3572,
      "velocity": 105,
      "chip": "ym2612"
    },
    {
      "channel": 0,
      "note": 95,
      "start": 15.4091,
      "duration": 0.1039,
      "velocity": 105,
      "chip": "ym2612"
    },
    {
      "channel": 3,
      "note": 77,
      "start": 15.4099,
      "duration": 0.118,
      "velocity": 84,
      "chip": "ym2612"
    },
    {
      "channel": 4,
      "note": 77,
      "start": 15.424,
      "duration": 0.1188,
      "velocity": 84,
      "chip": "ym2612"
    },
    {
      "channel": 1,
      "note": 95,
      "start": 15.4389,
      "duration": 0.104,
      "velocity": 105,
      "chip": "ym2612"
    },
    {
      "channel": 2,
      "note": 95,
      "start": 15.4986,
      "duration": 0.3572,
      "velocity": 105,
      "chip": "ym2612"
    },
    {
      "channel": 0,
      "note": 95,
      "start": 15.7668,
      "duration": 0.1337,
      "velocity": 105,
      "chip": "ym2612"
    },
    {
      "channel": 3,
      "note": 67,
      "start": 15.7673,
      "duration": 0.1333,
      "velocity": 84,
      "chip": "ym2612"
    },
    {
      "channel": 4,
      "note": 67,
      "start": 15.7817,
      "duration": 0.1337,
      "velocity": 84,
      "chip": "ym2612"
    },
    {
      "channel": 1,
      "note": 95,
      "start": 15.7966,
      "duration": 0.1337,
      "velocity": 105,
      "chip": "ym2612"
    },
    {
      "channel": 2,
      "note": 95,
      "start": 15.8563,
      "duration": 0.3572,
      "velocity": 105,
      "chip": "ym2612"
    },
    {
      "channel": 0,
      "note": 98,
      "start": 16.1244,
      "duration": 0.1188,
      "velocity": 105,
      "chip": "ym2612"
    },
    {
      "channel": 3,
      "note": 72,
      "start": 16.125,
      "duration": 0.1332,
      "velocity": 84,
      "chip": "ym2612"
    },
    {
      "channel": 4,
      "note": 72,
      "start": 16.1396,
      "duration": 0.1334,
      "velocity": 84,
      "chip": "ym2612"
    },
    {
      "channel": 1,
      "note": 98,
      "start": 16.1543,
      "duration": 0.1189,
      "velocity": 105,
      "chip": "ym2612"
    },
    {
      "channel": 2,
      "note": 98,
      "start": 16.214,
      "duration": 0.7186,
      "velocity": 105,
      "chip": "ym2612"
    },
    {
      "channel": 3,
      "note": 77,
      "start": 16.4822,
      "duration": 0.1337,
      "velocity": 84,
      "chip": "ym2612"
    },
    {
      "channel": 4,
      "note": 77,
      "start": 16.4971,
      "duration": 0.1374,
      "velocity": 84,
      "chip": "ym2612"
    },
    {
      "channel": 0,
      "note": 91,
      "start": 16.8436,
      "duration": 0.1039,
      "velocity": 105,
      "chip": "ym2612"
    },
    {
      "channel": 3,
      "note": 71,
      "start": 16.8441,
      "duration": 0.1035,
      "velocity": 84,
      "chip": "ym2612"
    },
    {
      "channel": 4,
      "note": 71,
      "start": 16.8585,
      "duration": 0.1039,
      "velocity": 84,
      "chip": "ym2612"
    },
    {
      "channel": 1,
      "note": 91,
      "start": 16.8734,
      "duration": 0.1039,
      "velocity": 105,
      "chip": "ym2612"
    },
    {
      "channel": 2,
      "note": 91,
      "start": 16.9332,
      "duration": 3.2224,
      "velocity": 105,
      "chip": "ym2612"
    },
    {
      "channel": 3,
      "note": 60,
      "start": 17.2013,
      "duration": 0.0741,
      "velocity": 84,
      "chip": "ym2612"
    },
    {
      "channel": 4,
      "note": 60,
      "start": 17.2164,
      "duration": 0.0739,
      "velocity": 84,
      "chip": "ym2612"
    },
    {
      "channel": 3,
      "note": 67,
      "start": 17.5594,
      "duration": 0.1482,
      "velocity": 84,
      "chip": "ym2612"
    },
    {
      "channel": 4,
      "note": 67,
      "start": 17.5739,
      "duration": 0.1486,
      "velocity": 84,
      "chip": "ym2612"
    },
    {
      "channel": 3,
      "note": 76,
      "start": 17.9167,
      "duration": 0.1337,
      "velocity": 84,
      "chip": "ym2612"
    },
    {
      "channel": 4,
      "note": 76,
      "start": 17.9321,
      "duration": 0.1332,
      "velocity": 84,
      "chip": "ym2612"
    },
    {
      "channel": 3,
      "note": 67,
      "start": 18.2748,
      "duration": 0.1184,
      "velocity": 84,
      "chip": "ym2612"
    },
    {
      "channel": 4,
      "note": 67,
      "start": 18.2895,
      "duration": 0.1185,
      "velocity": 84,
      "chip": "ym2612"
    },
    {
      "channel": 3,
      "note": 69,
      "start": 18.6321,
      "duration": 0.1225,
      "velocity": 84,
      "chip": "ym2612"
    },
    {
      "channel": 4,
      "note": 69,
      "start": 18.6471,
      "duration": 0.1224,
      "velocity": 84,
      "chip": "ym2612"
    },
    {
      "channel": 3,
      "note": 77,
      "start": 18.9935,
      "duration": 0.1188,
      "velocity": 84,
      "chip": "ym2612"
    },
    {
      "channel": 4,
      "note": 77,
      "start": 19.0084,
      "duration": 0.1188,
      "velocity": 84,
      "chip": "ym2612"
    },
    {
      "channel": 3,
      "note": 71,
      "start": 19.3512,
      "duration": 0.1337,
      "velocity": 84,
      "chip": "ym2612"
    },
    {
      "channel": 4,
      "note": 71,
      "start": 19.3661,
      "duration": 0.1337,
      "velocity": 84,
      "chip": "ym2612"
    },
    {
      "channel": 3,
      "note": 79,
      "start": 19.7089,
      "duration": 0.1486,
      "velocity": 84,
      "chip": "ym2612"
    },
    {
      "channel": 4,
      "note": 79,
      "start": 19.7238,
      "duration": 0.1486,
      "velocity": 84,
      "chip": "ym2612"
    },
    {
      "channel": 3,
      "note": 60,
      "start": 20.0719,
      "duration": 0.0838,
      "velocity": 84,
      "chip": "ym2612"
    },
    {
      "channel": 4,
      "note": 60,
      "start": 20.0815,
      "duration": 0.0742,
      "velocity": 84,
      "chip": "ym2612"
    }
  ]
}