{
  "track_name": "15 - World of Hell",
  "duration_sec": 49.606,
  "sample_rate": 44100,
  "note_count": 1044,
  "unique_pitches": 27,
  "pitch_range": 56,
  "avg_note_duration": 0.1737,
  "reconstruction_stats": {
    "notes_reconstructed": 1044,
    "keyon_events": 1044,
    "keyoff_events": 1044,
    "orphan_keyons": 0,
    "unique_pitches": 27,
    "pitch_range": 56,
    "avg_duration_sec": 0.1737
  },
  "metadata": {
    "source": "M\\Maten no Soumetsu\\15 - World of Hell.vgz"
  },
  "notes": [
    {
      "channel": 0,
      "note": 70,
      "start": 0.1273,
      "duration": 0.2014,
      "velocity": 95,
      "chip": "ym2612"
    },
    {
      "channel": 3,
      "note": 78,
      "start": 0.1416,
      "duration": 0.0756,
      "velocity": 94,
      "chip": "ym2612"
    },
    {
      "channel": 4,
      "note": 78,
      "start": 0.1475,
      "duration": 0.1824,
      "velocity": 91,
      "chip": "ym2612"
    },
    {
      "channel": 3,
      "note": 33,
      "start": 0.237,
      "duration": 0.0926,
      "velocity": 94,
      "chip": "ym2612"
    },
    {
      "channel": 0,
      "note": 70,
      "start": 0.3474,
      "duration": 0.205,
      "velocity": 95,
      "chip": "ym2612"
    },
    {
      "channel": 3,
      "note": 33,
      "start": 0.3485,
      "duration": 0.0926,
      "velocity": 94,
      "chip": "ym2612"
    },
    {
      "channel": 4,
      "note": 58,
      "start": 0.3492,
      "duration": 0.2044,
      "velocity": 91,
      "chip": "ym2612"
    },
    {
      "channel": 3,
      "note": 33,
      "start": 0.46,
      "duration": 0.0931,
      "velocity": 94,
      "chip": "ym2612"
    },
    {
      "channel": 0,
      "note": 70,
      "start": 0.5713,
      "duration": 0.205,
      "velocity": 95,
      "chip": "ym2612"
    },
    {
      "channel": 3,
      "note": 33,
      "start": 0.5724,
      "duration": 0.0927,
      "velocity": 94,
      "chip": "ym2612"
    },
    {
      "channel": 4,
      "note": 58,
      "start": 0.5732,
      "duration": 0.2043,
      "velocity": 91,
      "chip": "ym2612"
    },
    {
      "channel": 3,
      "note": 33,
      "start": 0.684,
      "duration": 0.0931,
      "velocity": 94,
      "chip": "ym2612"
    },
    {
      "channel": 0,
      "note": 70,
      "start": 0.7957,
      "duration": 0.2045,
      "velocity": 95,
      "chip": "ym2612"
    },
    {
      "channel": 3,
      "note": 33,
      "start": 0.7968,
      "duration": 0.0922,
      "velocity": 94,
      "chip": "ym2612"
    },
    {
      "channel": 4,
      "note": 58,
      "start": 0.7975,
      "duration": 0.2039,
      "velocity": 91,
      "chip": "ym2612"
    },
    {
      "channel": 3,
      "note": 33,
      "start": 0.9079,
      "duration": 0.0931,
      "velocity": 94,
      "chip": "ym2612"
    },
    {
      "channel": 0,
      "note": 70,
      "start": 1.0193,
      "duration": 0.2047,
      "velocity": 95,
      "chip": "ym2612"
    },
    {
      "channel": 3,
      "note": 33,
      "start": 1.0205,
      "duration": 0.0926,
      "velocity": 94,
      "chip": "ym2612"
    },
    {
      "channel": 4,
      "note": 58,
      "start": 1.0213,
      "duration": 0.2039,
      "velocity": 91,
      "chip": "ym2612"
    },
    {
      "channel": 3,
      "note": 33,
      "start": 1.1319,
      "duration": 0.093,
      "velocity": 94,
      "chip": "ym2612"
    },
    {
      "channel": 0,
      "note": 70,
      "start": 1.2431,
      "duration": 0.205,
      "velocity": 95,
      "chip": "ym2612"
    },
    {
      "channel": 3,
      "note": 33,
      "start": 1.2442,
      "duration": 0.0927,
      "velocity": 94,
      "chip": "ym2612"
    },
    {
      "channel": 4,
      "note": 58,
      "start": 1.2454,
      "duration": 0.2039,
      "velocity": 91,
      "chip": "ym2612"
    },
    {
      "channel": 3,
      "note": 33,
      "start": 1.3558,
      "duration": 0.0931,
      "velocity": 94,
      "chip": "ym2612"
    },
    {
      "channel": 0,
      "note": 70,
      "start": 1.4669,
      "duration": 0.205,
      "velocity": 95,
      "chip": "ym2612"
    },
    {
      "channel": 3,
      "note": 33,
      "start": 1.4681,
      "duration": 0.0926,
      "velocity": 94,
      "chip": "ym2612"
    },
    {
      "channel": 4,
      "note": 58,
      "start": 1.4688,
      "duration": 0.2044,
      "velocity": 91,
      "chip": "ym2612"
    },
    {
      "channel": 3,
      "note": 33,
      "start": 1.5799,
      "duration": 0.093,
      "velocity": 94,
      "chip": "ym2612"
    },
    {
      "channel": 0,
      "note": 70,
      "start": 1.6908,
      "duration": 0.205,
      "velocity": 95,
      "chip": "ym2612"
    },
    {
      "channel": 1,
      "note": 70,
      "start": 1.6931,
      "duration": 0.1656,
      "velocity": 90,
      "chip": "ym2612"
    },
    {
      "channel": 2,
      "note": 65,
      "start": 1.6957,
      "duration": 0.1653,
      "velocity": 90,
      "chip": "ym2612"
    },
    {
      "channel": 3,
      "note": 33,
      "start": 1.6964,
      "duration": 0.0882,
      "velocity": 94,
      "chip": "ym2612"
    },
    {
      "channel": 4,
      "note": 58,
      "start": 1.6971,
      "duration": 0.1999,
      "velocity": 91,
      "chip": "ym2612"
    },
    {
      "channel": 3,
      "note": 33,
      "start": 1.8035,
      "duration": 0.0931,
      "velocity": 94,
      "chip": "ym2612"
    },
    {
      "channel": 1,
      "note": 70,
      "start": 1.8607,
      "duration": 0.166,
      "velocity": 90,
      "chip": "ym2612"
    },
    {
      "channel": 2,
      "note": 65,
      "start": 1.8634,
      "duration": 0.1636,
      "velocity": 90,
      "chip": "ym2612"
    },
    {
      "channel": 0,
      "note": 70,
      "start": 1.9149,
      "duration": 0.2048,
      "velocity": 95,
      "chip": "ym2612"
    },
    {
      "channel": 3,
      "note": 33,
      "start": 1.9162,
      "duration": 0.0924,
      "velocity": 94,
      "chip": "ym2612"
    },
    {
      "channel": 4,
      "note": 58,
      "start": 1.917,
      "duration": 0.2039,
      "velocity": 91,
      "chip": "ym2612"
    },
    {
      "channel": 3,
      "note": 33,
      "start": 2.0277,
      "duration": 0.0927,
      "velocity": 94,
      "chip": "ym2612"
    },
    {
      "channel": 0,
      "note": 70,
      "start": 2.1387,
      "duration": 0.205,
      "velocity": 95,
      "chip": "ym2612"
    },
    {
      "channel": 3,
      "note": 33,
      "start": 2.1398,
      "duration": 0.0926,
      "velocity": 94,
      "chip": "ym2612"
    },
    {
      "channel": 4,
      "note": 58,
      "start": 2.1405,
      "duration": 0.2048,
      "velocity": 91,
      "chip": "ym2612"
    },
    {
      "channel": 3,
      "note": 33,
      "start": 2.2513,
      "duration": 0.0931,
      "velocity": 94,
      "chip": "ym2612"
    },
    {
      "channel": 0,
      "note": 70,
      "start": 2.3627,
      "duration": 0.2049,
      "velocity": 95,
      "chip": "ym2612"
    },
    {
      "channel": 1,
      "note": 70,
      "start": 2.3649,
      "duration": 0.1655,
      "velocity": 90,
      "chip": "ym2612"
    },
    {
      "channel": 2,
      "note": 65,
      "start": 2.3673,
      "duration": 0.1655,
      "velocity": 90,
      "chip": "ym2612"
    },
    {
      "channel": 3,
      "note": 33,
      "start": 2.3679,
      "duration": 0.0884,
      "velocity": 94,
      "chip": "ym2612"
    },
    {
      "channel": 4,
      "note": 58,
      "start": 2.3686,
      "duration": 0.2001,
      "velocity": 91,
      "chip": "ym2612"
    },
    {
      "channel": 3,
      "note": 33,
      "start": 2.4752,
      "duration": 0.0931,
      "velocity": 94,
      "chip": "ym2612"
    },
    {
      "channel": 1,
      "note": 70,
      "start": 2.5324,
      "duration": 0.1659,
      "velocity": 90,
      "chip": "ym2612"
    },
    {
      "channel": 2,
      "note": 65,
      "start": 2.5348,
      "duration": 0.1639,
      "velocity": 90,
      "chip": "ym2612"
    },
    {
      "channel": 0,
      "note": 70,
      "start": 2.5865,
      "duration": 0.205,
      "velocity": 95,
      "chip": "ym2612"
    },
    {
      "channel": 3,
      "note": 33,
      "start": 2.5876,
      "duration": 0.0927,
      "velocity": 94,
      "chip": "ym2612"
    },
    {
      "channel": 4,
      "note": 58,
      "start": 2.5883,
      "duration": 0.2043,
      "velocity": 91,
      "chip": "ym2612"
    },
    {
      "channel": 3,
      "note": 33,
      "start": 2.6994,
      "duration": 0.0928,
      "velocity": 94,
      "chip": "ym2612"
    },
    {
      "channel": 0,
      "note": 70,
      "start": 2.8106,
      "duration": 0.2047,
      "velocity": 95,
      "chip": "ym2612"
    },
    {
      "channel": 3,
      "note": 33,
      "start": 2.8122,
      "duration": 0.092,
      "velocity": 94,
      "chip": "ym2612"
    },
    {
      "channel": 4,
      "note": 58,
      "start": 2.813,
      "duration": 0.2035,
      "velocity": 91,
      "chip": "ym2612"
    },
    {
      "channel": 3,
      "note": 33,
      "start": 2.923,
      "duration": 0.0931,
      "velocity": 94,
      "chip": "ym2612"
    },
    {
      "channel": 0,
      "note": 70,
      "start": 3.0344,
      "duration": 0.2049,
      "velocity": 95,
      "chip": "ym2612"
    },
    {
      "channel": 1,
      "note": 71,
      "start": 3.0367,
      "duration": 0.2219,
      "velocity": 90,
      "chip": "ym2612"
    },
    {
      "channel": 2,
      "note": 66,
      "start": 3.039,
      "duration": 0.2202,
      "velocity": 90,
      "chip": "ym2612"
    },
    {
      "channel": 3,
      "note": 33,
      "start": 3.0396,
      "duration": 0.0886,
      "velocity": 94,
      "chip": "ym2612"
    },
    {
      "channel": 4,
      "note": 58,
      "start": 3.0403,
      "duration": 0.2001,
      "velocity": 91,
      "chip": "ym2612"
    },
    {
      "channel": 3,
      "note": 33,
      "start": 3.1469,
      "duration": 0.0931,
      "velocity": 94,
      "chip": "ym2612"
    },
    {
      "channel": 0,
      "note": 70,
      "start": 3.2583,
      "duration": 0.2049,
      "velocity": 95,
      "chip": "ym2612"
    },
    {
      "channel": 1,
      "note": 73,
      "start": 3.2588,
      "duration": 0.2237,
      "velocity": 90,
      "chip": "ym2612"
    },
    {
      "channel": 2,
      "note": 68,
      "start": 3.2594,
      "duration": 0.2237,
      "velocity": 90,
      "chip": "ym2612"
    },
    {
      "channel": 3,
      "note": 33,
      "start": 3.26,
      "duration": 0.0919,
      "velocity": 94,
      "chip": "ym2612"
    },
    {
      "channel": 4,
      "note": 58,
      "start": 3.2607,
      "duration": 0.2036,
      "velocity": 91,
      "chip": "ym2612"
    },
    {
      "channel": 3,
      "note": 33,
      "start": 3.3709,
      "duration": 0.0931,
      "velocity": 94,
      "chip": "ym2612"
    },
    {
      "channel": 0,
      "note": 70,
      "start": 3.4821,
      "duration": 0.205,
      "velocity": 95,
      "chip": "ym2612"
    },
    {
      "channel": 1,
      "note": 70,
      "start": 3.4827,
      "duration": 0.2239,
      "velocity": 90,
      "chip": "ym2612"
    },
    {
      "channel": 2,
      "note": 65,
      "start": 3.4833,
      "duration": 0.2236,
      "velocity": 90,
      "chip": "ym2612"
    },
    {
      "channel": 3,
      "note": 33,
      "start": 3.484,
      "duration": 0.0919,
      "velocity": 94,
      "chip": "ym2612"
    },
    {
      "channel": 4,
      "note": 58,
      "start": 3.4846,
      "duration": 0.2037,
      "velocity": 91,
      "chip": "ym2612"
    },
    {
      "channel": 3,
      "note": 33,
      "start": 3.595,
      "duration": 0.0929,
      "velocity": 94,
      "chip": "ym2612"
    },
    {
      "channel": 0,
      "note": 70,
      "start": 3.7062,
      "duration": 0.2048,
      "velocity": 95,
      "chip": "ym2612"
    },
    {
      "channel": 3,
      "note": 33,
      "start": 3.7078,
      "duration": 0.0921,
      "velocity": 94,
      "chip": "ym2612"
    },
    {
      "channel": 4,
      "note": 58,
      "start": 3.7086,
      "duration": 0.204,
      "velocity": 91,
      "chip": "ym2612"
    },
    {
      "channel": 3,
      "note": 33,
      "start": 3.8186,
      "duration": 0.0936,
      "velocity": 94,
      "chip": "ym2612"
    },
    {
      "channel": 0,
      "note": 70,
      "start": 3.93,
      "duration": 0.205,
      "velocity": 95,
      "chip": "ym2612"
    },
    {
      "channel": 3,
      "note": 33,
      "start": 3.9311,
      "duration": 0.0926,
      "velocity": 94,
      "chip": "ym2612"
    },
    {
      "channel": 4,
      "note": 58,
      "start": 3.9317,
      "duration": 0.2044,
      "velocity": 91,
      "chip": "ym2612"
    },
    {
      "channel": 3,
      "note": 33,
      "start": 4.0426,
      "duration": 0.0931,
      "velocity": 94,
      "chip": "ym2612"
    },
    {
      "channel": 0,
      "note": 70,
      "start": 4.1539,
      "duration": 0.205,
      "velocity": 95,
      "chip": "ym2612"
    },
    {
      "channel": 3,
      "note": 33,
      "start": 4.155,
      "duration": 0.0926,
      "velocity": 94,
      "chip": "ym2612"
    },
    {
      "channel": 4,
      "note": 58,
      "start": 4.1557,
      "duration": 0.2043,
      "velocity": 91,
      "chip": "ym2612"
    },
    {
      "channel": 3,
      "note": 33,
      "start": 4.2666,
      "duration": 0.0931,
      "velocity": 94,
      "chip": "ym2612"
    },
    {
      "channel": 0,
      "note": 70,
      "start": 4.3777,
      "duration": 0.205,
      "velocity": 95,
      "chip": "ym2612"
    },
    {
      "channel": 3,
      "note": 33,
      "start": 4.3794,
      "duration": 0.0922,
      "velocity": 94,
      "chip": "ym2612"
    },
    {
      "channel": 4,
      "note": 58,
      "start": 4.38,
      "duration": 0.2039,
      "velocity": 91,
      "chip": "ym2612"
    },
    {
      "channel": 3,
      "note": 33,
      "start": 4.4905,
      "duration": 0.0931,
      "velocity": 94,
      "chip": "ym2612"
    },
    {
      "channel": 0,
      "note": 70,
      "start": 4.6019,
      "duration": 0.2048,
      "velocity": 95,
      "chip": "ym2612"
    },
    {
      "channel": 3,
      "note": 33,
      "start": 4.6031,
      "duration": 0.0929,
      "velocity": 94,
      "chip": "ym2612"
    },
    {
      "channel": 4,
      "note": 58,
      "start": 4.6039,
      "duration": 0.2039,
      "velocity": 91,
      "chip": "ym2612"
    },
    {
      "channel": 3,
      "note": 33,
      "start": 4.7144,
      "duration": 0.0931,
      "velocity": 94,
      "chip": "ym2612"
    },
    {
      "channel": 0,
      "note": 70,
      "start": 4.8256,
      "duration": 0.2049,
      "velocity": 95,
      "chip": "ym2612"
    },
    {
      "channel": 1,
      "note": 71,
      "start": 4.8262,
      "duration": 0.2236,
      "velocity": 90,
      "chip": "ym2612"
    },
    {
      "channel": 2,
      "note": 66,
      "start": 4.8268,
      "duration": 0.2237,
      "velocity": 90,
      "chip": "ym2612"
    },
    {
      "channel": 3,
      "note": 33,
      "start": 4.8274,
      "duration": 0.0919,
      "velocity": 94,
      "chip": "ym2612"
    },
    {
      "channel": 4,
      "note": 58,
      "start": 4.8283,
      "duration": 0.2034,
      "velocity": 91,
      "chip": "ym2612"
    },
    {
      "channel": 3,
      "note": 33,
      "start": 4.9382,
      "duration": 0.0931,
      "velocity": 94,
      "chip": "ym2612"
    },
    {
      "channel": 0,
      "note": 70,
      "start": 5.0495,
      "duration": 0.205,
      "velocity": 95,
      "chip": "ym2612"
    },
    {
      "channel": 1,
      "note": 70,
      "start": 5.0501,
      "duration": 0.2237,
      "velocity": 90,
      "chip": "ym2612"
    },
    {
      "channel": 2,
      "note": 65,
      "start": 5.0506,
      "duration": 0.2237,
      "velocity": 90,
      "chip": "ym2612"
    },
    {
      "channel": 3,
      "note": 33,
      "start": 5.0513,
      "duration": 0.092,
      "velocity": 94,
      "chip": "ym2612"
    },
    {
      "channel": 4,
      "note": 58,
      "start": 5.052,
      "duration": 0.2036,
      "velocity": 91,
      "chip": "ym2612"
    },
    {
      "channel": 3,
      "note": 33,
      "start": 5.1626,
      "duration": 0.0926,
      "velocity": 94,
      "chip": "ym2612"
    },
    {
      "channel": 0,
      "note": 70,
      "start": 5.2734,
      "duration": 0.2053,
      "velocity": 95,
      "chip": "ym2612"
    },
    {
      "channel": 1,
      "note": 69,
      "start": 5.274,
      "duration": 0.4476,
      "velocity": 90,
      "chip": "ym2612"
    },
    {
      "channel": 2,
      "note": 64,
      "start": 5.2746,
      "duration": 0.4476,
      "velocity": 90,
      "chip": "ym2612"
    },
    {
      "channel": 3,
      "note": 33,
      "start": 5.2753,
      "duration": 0.0919,
      "velocity": 94,
      "chip": "ym2612"
    },
    {
      "channel": 4,
      "note": 58,
      "start": 5.2759,
      "duration": 0.2039,
      "velocity": 91,
      "chip": "ym2612"
    },
    {
      "channel": 3,
      "note": 33,
      "start": 5.3861,
      "duration": 0.0934,
      "velocity": 94,
      "chip": "ym2612"
    },
    {
      "channel": 0,
      "note": 70,
      "start": 5.4975,
      "duration": 0.2048,
      "velocity": 95,
      "chip": "ym2612"
    },
    {
      "channel": 3,
      "note": 33,
      "start": 5.4987,
      "duration": 0.0923,
      "velocity": 94,
      "chip": "ym2612"
    },
    {
      "channel": 4,
      "note": 58,
      "start": 5.4996,
      "duration": 0.2039,
      "velocity": 91,
      "chip": "ym2612"
    },
    {
      "channel": 3,
      "note": 33,
      "start": 5.61,
      "duration": 0.0931,
      "velocity": 94,
      "chip": "ym2612"
    },
    {
      "channel": 0,
      "note": 70,
      "start": 5.7212,
      "duration": 0.205,
      "velocity": 95,
      "chip": "ym2612"
    },
    {
      "channel": 1,
      "note": 70,
      "start": 5.7218,
      "duration": 0.2242,
      "velocity": 90,
      "chip": "ym2612"
    },
    {
      "channel": 2,
      "note": 65,
      "start": 5.7224,
      "duration": 0.2239,
      "velocity": 90,
      "chip": "ym2612"
    },
    {
      "channel": 3,
      "note": 33,
      "start": 5.7231,
      "duration": 0.0919,
      "velocity": 94,
      "chip": "ym2612"
    },
    {
      "channel": 4,
      "note": 58,
      "start": 5.7237,
      "duration": 0.2036,
      "velocity": 91,
      "chip": "ym2612"
    },
    {
      "channel": 3,
      "note": 33,
      "start": 5.8339,
      "duration": 0.0931,
      "velocity": 94,
      "chip": "ym2612"
    },
    {
      "channel": 0,
      "note": 70,
      "start": 5.9456,
      "duration": 0.2044,
      "velocity": 95,
      "chip": "ym2612"
    },
    {
      "channel": 3,
      "note": 33,
      "start": 5.9471,
      "duration": 0.0918,
      "velocity": 94,
      "chip": "ym2612"
    },
    {
      "channel": 4,
      "note": 58,
      "start": 5.9478,
      "duration": 0.2034,
      "velocity": 91,
      "chip": "ym2612"
    },
    {
      "channel": 3,
      "note": 33,
      "start": 6.0578,
      "duration": 0.0931,
      "velocity": 94,
      "chip": "ym2612"
    },
    {
      "channel": 0,
      "note": 70,
      "start": 6.1691,
      "duration": 0.2049,
      "velocity": 95,
      "chip": "ym2612"
    },
    {
      "channel": 3,
      "note": 33,
      "start": 6.1702,
      "duration": 0.0928,
      "velocity": 94,
      "chip": "ym2612"
    },
    {
      "channel": 4,
      "note": 58,
      "start": 6.1709,
      "duration": 0.2043,
      "velocity": 91,
      "chip": "ym2612"
    },
    {
      "channel": 3,
      "note": 33,
      "start": 6.2817,
      "duration": 0.0931,
      "velocity": 94,
      "chip": "ym2612"
    },
    {
      "channel": 0,
      "note": 70,
      "start": 6.3931,
      "duration": 0.2048,
      "velocity": 95,
      "chip": "ym2612"
    },
    {
      "channel": 3,
      "note": 33,
      "start": 6.3943,
      "duration": 0.0925,
      "velocity": 94,
      "chip": "ym2612"
    },
    {
      "channel": 4,
      "note": 58,
      "start": 6.3956,
      "duration": 0.2036,
      "velocity": 91,
      "chip": "ym2612"
    },
    {
      "channel": 3,
      "note": 33,
      "start": 6.5057,
      "duration": 0.0931,
      "velocity": 94,
      "chip": "ym2612"
    },
    {
      "channel": 0,
      "note": 70,
      "start": 6.6169,
      "duration": 0.205,
      "velocity": 95,
      "chip": "ym2612"
    },
    {
      "channel": 3,
      "note": 33,
      "start": 6.6181,
      "duration": 0.0926,
      "velocity": 94,
      "chip": "ym2612"
    },
    {
      "channel": 4,
      "note": 58,
      "start": 6.6188,
      "duration": 0.2043,
      "velocity": 91,
      "chip": "ym2612"
    },
    {
      "channel": 3,
      "note": 33,
      "start": 6.7298,
      "duration": 0.0929,
      "velocity": 94,
      "chip": "ym2612"
    },
    {
      "channel": 0,
      "note": 70,
      "start": 6.8408,
      "duration": 0.0346,
      "velocity": 95,
      "chip": "ym2612"
    },
    {
      "channel": 3,
      "note": 33,
      "start": 6.8421,
      "duration": 0.0164,
      "velocity": 94,
      "chip": "ym2612"
    },
    {
      "channel": 4,
      "note": 58,
      "start": 6.8428,
      "duration": 0.0338,
      "velocity": 91,
      "chip": "ym2612"
    },
    {
      "channel": 3,
      "note": 33,
      "start": 6.8616,
      "duration": 0.0147,
      "velocity": 94,
      "chip": "ym2612"
    },
    {
      "channel": 0,
      "note": 70,
      "start": 6.8787,
      "duration": 0.0375,
      "velocity": 95,
      "chip": "ym2612"
    },
    {
      "channel": 1,
      "note": 70,
      "start": 6.8793,
      "duration": 0.0273,
      "velocity": 90,
      "chip": "ym2612"
    },
    {
      "channel": 2,
      "note": 65,
      "start": 6.8799,
      "duration": 0.029,
      "velocity": 90,
      "chip": "ym2612"
    },
    {
      "channel": 3,
      "note": 33,
      "start": 6.8806,
      "duration": 0.0144,
      "velocity": 94,
      "chip": "ym2612"
    },
    {
      "channel": 4,
      "note": 58,
      "start": 6.8812,
      "duration": 0.0361,
      "velocity": 91,
      "chip": "ym2612"
    },
    {
      "channel": 3,
      "note": 33,
      "start": 6.8981,
      "duration": 0.0189,
      "velocity": 94,
      "chip": "ym2612"
    },
    {
      "channel": 1,
      "note": 70,
      "start": 6.9086,
      "duration": 0.0309,
      "velocity": 90,
      "chip": "ym2612"
    },
    {
      "channel": 2,
      "note": 65,
      "start": 6.9109,
      "duration": 0.029,
      "velocity": 90,
      "chip": "ym2612"
    },
    {
      "channel": 0,
      "note": 70,
      "start": 6.9197,
      "duration": 0.0931,
      "velocity": 95,
      "chip": "ym2612"
    },
    {
      "channel": 3,
      "note": 33,
      "start": 6.921,
      "duration": 0.0161,
      "velocity": 94,
      "chip": "ym2612"
    },
    {
      "channel": 4,
      "note": 58,
      "start": 6.9218,
      "duration": 0.0925,
      "velocity": 91,
      "chip": "ym2612"
    },
    {
      "channel": 3,
      "note": 33,
      "start": 6.9406,
      "duration": 0.0731,
      "velocity": 94,
      "chip": "ym2612"
    },
    {
      "channel": 0,
      "note": 70,
      "start": 7.0319,
      "duration": 0.205,
      "velocity": 95,
      "chip": "ym2612"
    },
    {
      "channel": 3,
      "note": 33,
      "start": 7.0329,
      "duration": 0.0926,
      "velocity": 94,
      "chip": "ym2612"
    },
    {
      "channel": 4,
      "note": 58,
      "start": 7.0336,
      "duration": 0.2043,
      "velocity": 91,
      "chip": "ym2612"
    },
    {
      "channel": 3,
      "note": 33,
      "start": 7.1445,
      "duration": 0.0931,
      "velocity": 94,
      "chip": "ym2612"
    },
    {
      "channel": 0,
      "note": 70,
      "start": 7.2558,
      "duration": 0.2049,
      "velocity": 95,
      "chip": "ym2612"
    },
    {
      "channel": 1,
      "note": 70,
      "start": 7.2581,
      "duration": 0.1656,
      "velocity": 90,
      "chip": "ym2612"
    },
    {
      "channel": 2,
      "note": 65,
      "start": 7.2604,
      "duration": 0.1655,
      "velocity": 90,
      "chip": "ym2612"
    },
    {
      "channel": 3,
      "note": 33,
      "start": 7.261,
      "duration": 0.0884,
      "velocity": 94,
      "chip": "ym2612"
    },
    {
      "channel": 4,
      "note": 58,
      "start": 7.2617,
      "duration": 0.2001,
      "velocity": 91,
      "chip": "ym2612"
    },
    {
      "channel": 3,
      "note": 33,
      "start": 7.3684,
      "duration": 0.0931,
      "velocity": 94,
      "chip": "ym2612"
    },
    {
      "channel": 1,
      "note": 70,
      "start": 7.4256,
      "duration": 0.166,
      "velocity": 90,
      "chip": "ym2612"
    },
    {
      "channel": 2,
      "note": 65,
      "start": 7.4279,
      "duration": 0.1641,
      "velocity": 90,
      "chip": "ym2612"
    },
    {
      "channel": 0,
      "note": 70,
      "start": 7.4797,
      "duration": 0.2049,
      "velocity": 95,
      "chip": "ym2612"
    },
    {
      "channel": 3,
      "note": 33,
      "start": 7.4812,
      "duration": 0.0922,
      "velocity": 94,
      "chip": "ym2612"
    },
    {
      "channel": 4,
      "note": 58,
      "start": 7.4819,
      "duration": 0.2039,
      "velocity": 91,
      "chip": "ym2612"
    },
    {
      "channel": 3,
      "note": 33,
      "start": 7.5927,
      "duration": 0.0927,
      "velocity": 94,
      "chip": "ym2612"
    },
    {
      "channel": 0,
      "note": 70,
      "start": 7.7037,
      "duration": 0.2048,
      "velocity": 95,
      "chip": "ym2612"
    },
    {
      "channel": 3,
      "note": 33,
      "start": 7.7048,
      "duration": 0.0924,
      "velocity": 94,
      "chip": "ym2612"
    },
    {
      "channel": 4,
      "note": 58,
      "start": 7.7056,
      "duration": 0.204,
      "velocity": 91,
      "chip": "ym2612"
    },
    {
      "channel": 3,
      "note": 33,
      "start": 7.8162,
      "duration": 0.0931,
      "velocity": 94,
      "chip": "ym2612"
    },
    {
      "channel": 0,
      "note": 70,
      "start": 7.9275,
      "duration": 0.205,
      "velocity": 95,
      "chip": "ym2612"
    },
    {
      "channel": 1,
      "note": 71,
      "start": 7.9298,
      "duration": 0.222,
      "velocity": 90,
      "chip": "ym2612"
    },
    {
      "channel": 2,
      "note": 66,
      "start": 7.9326,
      "duration": 0.2198,
      "velocity": 90,
      "chip": "ym2612"
    },
    {
      "channel": 3,
      "note": 33,
      "start": 7.9332,
      "duration": 0.088,
      "velocity": 94,
      "chip": "ym2612"
    },
    {
      "channel": 4,
      "note": 58,
      "start": 7.9339,
      "duration": 0.1997,
      "velocity": 91,
      "chip": "ym2612"
    },
    {
      "channel": 3,
      "note": 33,
      "start": 8.0401,
      "duration": 0.0931,
      "velocity": 94,
      "chip": "ym2612"
    },
    {
      "channel": 0,
      "note": 70,
      "start": 8.1514,
      "duration": 0.205,
      "velocity": 95,
      "chip": "ym2612"
    },
    {
      "channel": 1,
      "note": 73,
      "start": 8.152,
      "duration": 0.2237,
      "velocity": 90,
      "chip": "ym2612"
    },
    {
      "channel": 2,
      "note": 68,
      "start": 8.1526,
      "duration": 0.2237,
      "velocity": 90,
      "chip": "ym2612"
    },
    {
      "channel": 3,
      "note": 33,
      "start": 8.1532,
      "duration": 0.0919,
      "velocity": 94,
      "chip": "ym2612"
    },
    {
      "channel": 4,
      "note": 58,
      "start": 8.1539,
      "duration": 0.2036,
      "velocity": 91,
      "chip": "ym2612"
    },
    {
      "channel": 3,
      "note": 33,
      "start": 8.2642,
      "duration": 0.0929,
      "velocity": 94,
      "chip": "ym2612"
    },
    {
      "channel": 0,
      "note": 70,
      "start": 8.3753,
      "duration": 0.205,
      "velocity": 95,
      "chip": "ym2612"
    },
    {
      "channel": 1,
      "note": 70,
      "start": 8.3759,
      "duration": 0.2239,
      "velocity": 90,
      "chip": "ym2612"
    },
    {
      "channel": 2,
      "note": 65,
      "start": 8.3765,
      "duration": 0.2236,
      "velocity": 90,
      "chip": "ym2612"
    },
    {
      "channel": 3,
      "note": 33,
      "start": 8.3771,
      "duration": 0.0919,
      "velocity": 94,
      "chip": "ym2612"
    },
    {
      "channel": 4,
      "note": 58,
      "start": 8.3778,
      "duration": 0.2041,
      "velocity": 91,
      "chip": "ym2612"
    },
    {
      "channel": 3,
      "note": 33,
      "start": 8.488,
      "duration": 0.0935,
      "velocity": 94,
      "chip": "ym2612"
    },
    {
      "channel": 0,
      "note": 70,
      "start": 8.5993,
      "duration": 0.2048,
      "velocity": 95,
      "chip": "ym2612"
    },
    {
      "channel": 3,
      "note": 33,
      "start": 8.6009,
      "duration": 0.092,
      "velocity": 94,
      "chip": "ym2612"
    },
    {
      "channel": 4,
      "note": 58,
      "start": 8.6018,
      "duration": 0.2036,
      "velocity": 91,
      "chip": "ym2612"
    },
    {
      "channel": 3,
      "note": 33,
      "start": 8.7119,
      "duration": 0.0931,
      "velocity": 94,
      "chip": "ym2612"
    },
    {
      "channel": 0,
      "note": 70,
      "start": 8.8231,
      "duration": 0.0342,
      "velocity": 95,
      "chip": "ym2612"
    },
    {
      "channel": 3,
      "note": 33,
      "start": 8.8242,
      "duration": 0.0159,
      "velocity": 94,
      "chip": "ym2612"
    },
    {
      "channel": 4,
      "note": 58,
      "start": 8.8249,
      "duration": 0.0337,
      "velocity": 91,
      "chip": "ym2612"
    },
    {
      "channel": 3,
      "note": 33,
      "start": 8.8434,
      "duration": 0.0148,
      "velocity": 94,
      "chip": "ym2612"
    },
    {
      "channel": 0,
      "note": 70,
      "start": 8.8623,
      "duration": 0.035,
      "velocity": 95,
      "chip": "ym2612"
    },
    {
      "channel": 3,
      "note": 33,
      "start": 8.864,
      "duration": 0.0156,
      "velocity": 94,
      "chip": "ym2612"
    },
    {
      "channel": 4,
      "note": 58,
      "start": 8.8646,
      "duration": 0.0339,
      "velocity": 91,
      "chip": "ym2612"
    },
    {
      "channel": 3,
      "note": 33,
      "start": 8.8828,
      "duration": 0.0153,
      "velocity": 94,
      "chip": "ym2612"
    },
    {
      "channel": 0,
      "note": 70,
      "start": 8.9007,
      "duration": 0.0348,
      "velocity": 95,
      "chip": "ym2612"
    },
    {
      "channel": 3,
      "note": 33,
      "start": 8.902,
      "duration": 0.0164,
      "velocity": 94,
      "chip": "ym2612"
    },
    {
      "channel": 4,
      "note": 58,
      "start": 8.9027,
      "duration": 0.0341,
      "velocity": 91,
      "chip": "ym2612"
    },
    {
      "channel": 3,
      "note": 33,
      "start": 8.9216,
      "duration": 0.0148,
      "velocity": 94,
      "chip": "ym2612"
    },
    {
      "channel": 0,
      "note": 70,
      "start": 8.939,
      "duration": 0.0349,
      "velocity": 95,
      "chip": "ym2612"
    },
    {
      "channel": 3,
      "note": 33,
      "start": 8.9402,
      "duration": 0.0162,
      "velocity": 94,
      "chip": "ym2612"
    },
    {
      "channel": 4,
      "note": 58,
      "start": 8.941,
      "duration": 0.0341,
      "velocity": 91,
      "chip": "ym2612"
    },
    {
      "channel": 3,
      "note": 33,
      "start": 8.9597,
      "duration": 0.0151,
      "velocity": 94,
      "chip": "ym2612"
    },
    {
      "channel": 0,
      "note": 70,
      "start": 8.9773,
      "duration": 0.1069,
      "velocity": 95,
      "chip": "ym2612"
    },
    {
      "channel": 1,
      "note": 71,
      "start": 8.9779,
      "duration": 0.1257,
      "velocity": 90,
      "chip": "ym2612"
    },
    {
      "channel": 2,
      "note": 66,
      "start": 8.9784,
      "duration": 0.1257,
      "velocity": 90,
      "chip": "ym2612"
    },
    {
      "channel": 3,
      "note": 33,
      "start": 8.9791,
      "duration": 0.0148,
      "velocity": 94,
      "chip": "ym2612"
    },
    {
      "channel": 4,
      "note": 58,
      "start": 8.9798,
      "duration": 0.1056,
      "velocity": 91,
      "chip": "ym2612"
    },
    {
      "channel": 3,
      "note": 33,
      "start": 8.9979,
      "duration": 0.0871,
      "velocity": 94,
      "chip": "ym2612"
    },
    {
      "channel": 0,
      "note": 70,
      "start": 9.1032,
      "duration": 0.2053,
      "velocity": 95,
      "chip": "ym2612"
    },
    {
      "channel": 1,
      "note": 70,
      "start": 9.1038,
      "duration": 0.2237,
      "velocity": 90,
      "chip": "ym2612"
    },
    {
      "channel": 2,
      "note": 65,
      "start": 9.1044,
      "duration": 0.2237,
      "velocity": 90,
      "chip": "ym2612"
    },
    {
      "channel": 3,
      "note": 33,
      "start": 9.105,
      "duration": 0.0919,
      "velocity": 94,
      "chip": "ym2612"
    },
    {
      "channel": 4,
      "note": 58,
      "start": 9.1057,
      "duration": 0.2039,
      "velocity": 91,
      "chip": "ym2612"
    },
    {
      "channel": 3,
      "note": 33,
      "start": 9.2158,
      "duration": 0.0934,
      "velocity": 94,
      "chip": "ym2612"
    },
    {
      "channel": 0,
      "note": 70,
      "start": 9.3271,
      "duration": 0.2049,
      "velocity": 95,
      "chip": "ym2612"
    },
    {
      "channel": 1,
      "note": 69,
      "start": 9.3276,
      "duration": 0.448,
      "velocity": 90,
      "chip": "ym2612"
    },
    {
      "channel": 2,
      "note": 64,
      "start": 9.3283,
      "duration": 0.448,
      "velocity": 90,
      "chip": "ym2612"
    },
    {
      "channel": 3,
      "note": 33,
      "start": 9.3289,
      "duration": 0.0919,
      "velocity": 94,
      "chip": "ym2612"
    },
    {
      "channel": 4,
      "note": 58,
      "start": 9.3295,
      "duration": 0.2036,
      "velocity": 91,
      "chip": "ym2612"
    },
    {
      "channel": 3,
      "note": 33,
      "start": 9.4397,
      "duration": 0.0931,
      "velocity": 94,
      "chip": "ym2612"
    },
    {
      "channel": 0,
      "note": 70,
      "start": 9.5511,
      "duration": 0.2048,
      "velocity": 95,
      "chip": "ym2612"
    },
    {
      "channel": 3,
      "note": 33,
      "start": 9.5524,
      "duration": 0.0923,
      "velocity": 94,
      "chip": "ym2612"
    },
    {
      "channel": 4,
      "note": 58,
      "start": 9.5532,
      "duration": 0.2039,
      "velocity": 91,
      "chip": "ym2612"
    },
    {
      "channel": 3,
      "note": 33,
      "start": 9.6637,
      "duration": 0.0931,
      "velocity": 94,
      "chip": "ym2612"
    },
    {
      "channel": 0,
      "note": 70,
      "start": 9.7753,
      "duration": 0.2046,
      "velocity": 95,
      "chip": "ym2612"
    },
    {
      "channel": 1,
      "note": 70,
      "start": 9.7759,
      "duration": 0.2232,
      "velocity": 90,
      "chip": "ym2612"
    },
    {
      "channel": 2,
      "note": 65,
      "start": 9.7765,
      "duration": 0.2239,
      "velocity": 90,
      "chip": "ym2612"
    },
    {
      "channel": 3,
      "note": 33,
      "start": 9.7771,
      "duration": 0.0915,
      "velocity": 94,
      "chip": "ym2612"
    },
    {
      "channel": 4,
      "note": 58,
      "start": 9.7778,
      "duration": 0.2032,
      "velocity": 91,
      "chip": "ym2612"
    },
    {
      "channel": 3,
      "note": 33,
      "start": 9.8875,
      "duration": 0.0931,
      "velocity": 94,
      "chip": "ym2612"
    },
    {
      "channel": 0,
      "note": 70,
      "start": 9.9988,
      "duration": 0.205,
      "velocity": 95,
      "chip": "ym2612"
    },
    {
      "channel": 1,
      "note": 75,
      "start": 9.9995,
      "duration": 0.0001,
      "velocity": 90,
      "chip": "ym2612"
    },
    {
      "channel": 1,
      "note": 80,
      "start": 9.9999,
      "duration": 1.3429,
      "velocity": 90,
      "chip": "ym2612"
    },
    {
      "channel": 2,
      "note": 70,
      "start": 10.0007,
      "duration": 0.0001,
      "velocity": 90,
      "chip": "ym2612"
    },
    {
      "channel": 2,
      "note": 73,
      "start": 10.0011,
      "duration": 1.3423,
      "velocity": 90,
      "chip": "ym2612"
    },
    {
      "channel": 3,
      "note": 33,
      "start": 10.0019,
      "duration": 0.091,
      "velocity": 94,
      "chip": "ym2612"
    },
    {
      "channel": 4,
      "note": 58,
      "start": 10.0026,
      "duration": 0.2024,
      "velocity": 91,
      "chip": "ym2612"
    },
    {
      "channel": 3,
      "note": 33,
      "start": 10.1115,
      "duration": 0.093,
      "velocity": 94,
      "chip": "ym2612"
    },
    {
      "channel": 0,
      "note": 70,
      "start": 10.2227,
      "duration": 0.205,
      "velocity": 95,
      "chip": "ym2612"
    },
    {
      "channel": 3,
      "note": 33,
      "start": 10.2238,
      "duration": 0.0926,
      "velocity": 94,
      "chip": "ym2612"
    },
    {
      "channel": 4,
      "note": 58,
      "start": 10.2247,
      "duration": 0.2042,
      "velocity": 91,
      "chip": "ym2612"
    },
    {
      "channel": 3,
      "note": 33,
      "start": 10.3353,
      "duration": 0.0932,
      "velocity": 94,
      "chip": "ym2612"
    },
    {
      "channel": 0,
      "note": 70,
      "start": 10.4468,
      "duration": 0.2048,
      "velocity": 95,
      "chip": "ym2612"
    },
    {
      "channel": 3,
      "note": 33,
      "start": 10.4479,
      "duration": 0.0925,
      "velocity": 94,
      "chip": "ym2612"
    },
    {
      "channel": 4,
      "note": 58,
      "start": 10.4488,
      "duration": 0.204,
      "velocity": 91,
      "chip": "ym2612"
    },
    {
      "channel": 3,
      "note": 33,
      "start": 10.5596,
      "duration": 0.0928,
      "velocity": 94,
      "chip": "ym2612"
    },
    {
      "channel": 0,
      "note": 70,
      "start": 10.6706,
      "duration": 0.2049,
      "velocity": 95,
      "chip": "ym2612"
    },
    {
      "channel": 3,
      "note": 33,
      "start": 10.6717,
      "duration": 0.0926,
      "velocity": 94,
      "chip": "ym2612"
    },
    {
      "channel": 4,
      "note": 58,
      "start": 10.6724,
      "duration": 0.2043,
      "velocity": 91,
      "chip": "ym2612"
    },
    {
      "channel": 3,
      "note": 33,
      "start": 10.7833,
      "duration": 0.093,
      "velocity": 94,
      "chip": "ym2612"
    },
    {
      "channel": 0,
      "note": 70,
      "start": 10.8944,
      "duration": 0.205,
      "velocity": 95,
      "chip": "ym2612"
    },
    {
      "channel": 3,
      "note": 33,
      "start": 10.8956,
      "duration": 0.0927,
      "velocity": 94,
      "chip": "ym2612"
    },
    {
      "channel": 4,
      "note": 58,
      "start": 10.8963,
      "duration": 0.2043,
      "velocity": 91,
      "chip": "ym2612"
    },
    {
      "channel": 3,
      "note": 33,
      "start": 11.0071,
      "duration": 0.0931,
      "velocity": 94,
      "chip": "ym2612"
    },
    {
      "channel": 0,
      "note": 70,
      "start": 11.1183,
      "duration": 0.205,
      "velocity": 95,
      "chip": "ym2612"
    },
    {
      "channel": 3,
      "note": 33,
      "start": 11.1195,
      "duration": 0.0926,
      "velocity": 94,
      "chip": "ym2612"
    },
    {
      "channel": 4,
      "note": 58,
      "start": 11.1202,
      "duration": 0.2045,
      "velocity": 91,
      "chip": "ym2612"
    },
    {
      "channel": 3,
      "note": 33,
      "start": 11.2311,
      "duration": 0.0931,
      "velocity": 94,
      "chip": "ym2612"
    },
    {
      "channel": 0,
      "note": 70,
      "start": 11.3424,
      "duration": 0.2048,
      "velocity": 95,
      "chip": "ym2612"
    },
    {
      "channel": 1,
      "note": 78,
      "start": 11.3431,
      "duration": 1.791,
      "velocity": 90,
      "chip": "ym2612"
    },
    {
      "channel": 2,
      "note": 71,
      "start": 11.3437,
      "duration": 1.7909,
      "velocity": 90,
      "chip": "ym2612"
    },
    {
      "channel": 3,
      "note": 33,
      "start": 11.3446,
      "duration": 0.0914,
      "velocity": 94,
      "chip": "ym2612"
    },
    {
      "channel": 4,
      "note": 58,
      "start": 11.3454,
      "duration": 0.203,
      "velocity": 91,
      "chip": "ym2612"
    },
    {
      "channel": 3,
      "note": 33,
      "start": 11.4549,
      "duration": 0.0931,
      "velocity": 94,
      "chip": "ym2612"
    },
    {
      "channel": 0,
      "note": 70,
      "start": 11.5662,
      "duration": 0.205,
      "velocity": 95,
      "chip": "ym2612"
    },
    {
      "channel": 3,
      "note": 33,
      "start": 11.5673,
      "duration": 0.0926,
      "velocity": 94,
      "chip": "ym2612"
    },
    {
      "channel": 4,
      "note": 58,
      "start": 11.568,
      "duration": 0.2044,
      "velocity": 91,
      "chip": "ym2612"
    },
    {
      "channel": 3,
      "note": 33,
      "start": 11.6788,
      "duration": 0.0931,
      "velocity": 94,
      "chip": "ym2612"
    },
    {
      "channel": 0,
      "note": 70,
      "start": 11.7901,
      "duration": 0.2049,
      "velocity": 95,
      "chip": "ym2612"
    },
    {
      "channel": 3,
      "note": 33,
      "start": 11.7917,
      "duration": 0.0922,
      "velocity": 94,
      "chip": "ym2612"
    },
    {
      "channel": 4,
      "note": 58,
      "start": 11.7924,
      "duration": 0.2038,
      "velocity": 91,
      "chip": "ym2612"
    },
    {
      "channel": 3,
      "note": 33,
      "start": 11.9028,
      "duration": 0.093,
      "velocity": 94,
      "chip": "ym2612"
    },
    {
      "channel": 0,
      "note": 70,
      "start": 12.014,
      "duration": 0.2049,
      "velocity": 95,
      "chip": "ym2612"
    },
    {
      "channel": 3,
      "note": 33,
      "start": 12.0152,
      "duration": 0.0928,
      "velocity": 94,
      "chip": "ym2612"
    },
    {
      "channel": 4,
      "note": 58,
      "start": 12.0159,
      "duration": 0.2043,
      "velocity": 91,
      "chip": "ym2612"
    },
    {
      "channel": 3,
      "note": 33,
      "start": 12.1267,
      "duration": 0.0931,
      "velocity": 94,
      "chip": "ym2612"
    },
    {
      "channel": 0,
      "note": 70,
      "start": 12.2381,
      "duration": 0.2048,
      "velocity": 95,
      "chip": "ym2612"
    },
    {
      "channel": 3,
      "note": 33,
      "start": 12.2392,
      "duration": 0.0926,
      "velocity": 94,
      "chip": "ym2612"
    },
    {
      "channel": 4,
      "note": 58,
      "start": 12.24,
      "duration": 0.204,
      "velocity": 91,
      "chip": "ym2612"
    },
    {
      "channel": 3,
      "note": 33,
      "start": 12.3506,
      "duration": 0.0931,
      "velocity": 94,
      "chip": "ym2612"
    },
    {
      "channel": 0,
      "note": 70,
      "start": 12.4619,
      "duration": 0.2049,
      "velocity": 95,
      "chip": "ym2612"
    },
    {
      "channel": 3,
      "note": 33,
      "start": 12.463,
      "duration": 0.0926,
      "velocity": 94,
      "chip": "ym2612"
    },
    {
      "channel": 4,
      "note": 58,
      "start": 12.4637,
      "duration": 0.2043,
      "velocity": 91,
      "chip": "ym2612"
    },
    {
      "channel": 3,
      "note": 33,
      "start": 12.5747,
      "duration": 0.0929,
      "velocity": 94,
      "chip": "ym2612"
    },
    {
      "channel": 0,
      "note": 70,
      "start": 12.6857,
      "duration": 0.205,
      "velocity": 95,
      "chip": "ym2612"
    },
    {
      "channel": 3,
      "note": 33,
      "start": 12.6869,
      "duration": 0.0926,
      "velocity": 94,
      "chip": "ym2612"
    },
    {
      "channel": 4,
      "note": 58,
      "start": 12.6876,
      "duration": 0.2048,
      "velocity": 91,
      "chip": "ym2612"
    },
    {
      "channel": 3,
      "note": 33,
      "start": 12.7984,
      "duration": 0.0937,
      "velocity": 94,
      "chip": "ym2612"
    },
    {
      "channel": 0,
      "note": 70,
      "start": 12.9096,
      "duration": 0.2049,
      "velocity": 95,
      "chip": "ym2612"
    },
    {
      "channel": 3,
      "note": 33,
      "start": 12.9108,
      "duration": 0.0926,
      "velocity": 94,
      "chip": "ym2612"
    },
    {
      "channel": 4,
      "note": 58,
      "start": 12.9115,
      "duration": 0.2043,
      "velocity": 91,
      "chip": "ym2612"
    },
    {
      "channel": 3,
      "note": 33,
      "start": 13.0224,
      "duration": 0.0931,
      "velocity": 94,
      "chip": "ym2612"
    },
    {
      "channel": 0,
      "note": 70,
      "start": 13.1337,
      "duration": 0.2048,
      "velocity": 95,
      "chip": "ym2612"
    },
    {
      "channel": 1,
      "note": 77,
      "start": 13.1343,
      "duration": 1.7915,
      "velocity": 90,
      "chip": "ym2612"
    },
    {
      "channel": 2,
      "note": 70,
      "start": 13.1349,
      "duration": 1.7913,
      "velocity": 90,
      "chip": "ym2612"
    },
    {
      "channel": 3,
      "note": 33,
      "start": 13.1356,
      "duration": 0.0916,
      "velocity": 94,
      "chip": "ym2612"
    },
    {
      "channel": 4,
      "note": 58,
      "start": 13.1365,
      "duration": 0.2032,
      "velocity": 91,
      "chip": "ym2612"
    },
    {
      "channel": 3,
      "note": 33,
      "start": 13.2462,
      "duration": 0.0931,
      "velocity": 94,
      "chip": "ym2612"
    },
    {
      "channel": 0,
      "note": 70,
      "start": 13.3575,
      "duration": 0.205,
      "velocity": 95,
      "chip": "ym2612"
    },
    {
      "channel": 3,
      "note": 33,
      "start": 13.359,
      "duration": 0.0922,
      "velocity": 94,
      "chip": "ym2612"
    },
    {
      "channel": 4,
      "note": 58,
      "start": 13.3597,
      "duration": 0.2039,
      "velocity": 91,
      "chip": "ym2612"
    },
    {
      "channel": 3,
      "note": 33,
      "start": 13.4701,
      "duration": 0.0931,
      "velocity": 94,
      "chip": "ym2612"
    },
    {
      "channel": 0,
      "note": 70,
      "start": 13.5814,
      "duration": 0.2049,
      "velocity": 95,
      "chip": "ym2612"
    },
    {
      "channel": 3,
      "note": 33,
      "start": 13.5825,
      "duration": 0.0931,
      "velocity": 94,
      "chip": "ym2612"
    },
    {
      "channel": 4,
      "note": 58,
      "start": 13.5832,
      "duration": 0.2043,
      "velocity": 91,
      "chip": "ym2612"
    },
    {
      "channel": 3,
      "note": 33,
      "start": 13.6941,
      "duration": 0.0931,
      "velocity": 94,
      "chip": "ym2612"
    },
    {
      "channel": 0,
      "note": 70,
      "start": 13.8053,
      "duration": 0.2049,
      "velocity": 95,
      "chip": "ym2612"
    },
    {
      "channel": 3,
      "note": 33,
      "start": 13.8065,
      "duration": 0.0926,
      "velocity": 94,
      "chip": "ym2612"
    },
    {
      "channel": 4,
      "note": 58,
      "start": 13.8071,
      "duration": 0.2043,
      "velocity": 91,
      "chip": "ym2612"
    },
    {
      "channel": 3,
      "note": 33,
      "start": 13.918,
      "duration": 0.0931,
      "velocity": 94,
      "chip": "ym2612"
    },
    {
      "channel": 0,
      "note": 70,
      "start": 14.0294,
      "duration": 0.2048,
      "velocity": 95,
      "chip": "ym2612"
    },
    {
      "channel": 3,
      "note": 33,
      "start": 14.0305,
      "duration": 0.0926,
      "velocity": 94,
      "chip": "ym2612"
    },
    {
      "channel": 4,
      "note": 58,
      "start": 14.0313,
      "duration": 0.204,
      "velocity": 91,
      "chip": "ym2612"
    },
    {
      "channel": 3,
      "note": 33,
      "start": 14.1423,
      "duration": 0.0926,
      "velocity": 94,
      "chip": "ym2612"
    },
    {
      "channel": 0,
      "note": 70,
      "start": 14.2531,
      "duration": 0.2054,
      "velocity": 95,
      "chip": "ym2612"
    },
    {
      "channel": 3,
      "note": 33,
      "start": 14.2542,
      "duration": 0.0927,
      "velocity": 94,
      "chip": "ym2612"
    },
    {
      "channel": 4,
      "note": 58,
      "start": 14.2549,
      "duration": 0.2048,
      "velocity": 91,
      "chip": "ym2612"
    },
    {
      "channel": 3,
      "note": 33,
      "start": 14.3658,
      "duration": 0.0935,
      "velocity": 94,
      "chip": "ym2612"
    },
    {
      "channel": 0,
      "note": 70,
      "start": 14.477,
      "duration": 0.205,
      "velocity": 95,
      "chip": "ym2612"
    },
    {
      "channel": 3,
      "note": 33,
      "start": 14.4781,
      "duration": 0.0927,
      "velocity": 94,
      "chip": "ym2612"
    },
    {
      "channel": 4,
      "note": 58,
      "start": 14.4788,
      "duration": 0.2044,
      "velocity": 91,
      "chip": "ym2612"
    },
    {
      "channel": 3,
      "note": 33,
      "start": 14.5897,
      "duration": 0.0932,
      "velocity": 94,
      "chip": "ym2612"
    },
    {
      "channel": 0,
      "note": 70,
      "start": 14.7009,
      "duration": 0.2049,
      "velocity": 95,
      "chip": "ym2612"
    },
    {
      "channel": 3,
      "note": 33,
      "start": 14.7021,
      "duration": 0.0926,
      "velocity": 94,
      "chip": "ym2612"
    },
    {
      "channel": 4,
      "note": 58,
      "start": 14.7028,
      "duration": 0.2043,
      "velocity": 91,
      "chip": "ym2612"
    },
    {
      "channel": 3,
      "note": 33,
      "start": 14.8137,
      "duration": 0.0931,
      "velocity": 94,
      "chip": "ym2612"
    },
    {
      "channel": 0,
      "note": 70,
      "start": 14.9254,
      "duration": 0.2044,
      "velocity": 95,
      "chip": "ym2612"
    },
    {
      "channel": 3,
      "note": 33,
      "start": 14.927,
      "duration": 0.0915,
      "velocity": 94,
      "chip": "ym2612"
    },
    {
      "channel": 4,
      "note": 58,
      "start": 14.9278,
      "duration": 0.2031,
      "velocity": 91,
      "chip": "ym2612"
    },
    {
      "channel": 3,
      "note": 33,
      "start": 15.0375,
      "duration": 0.0931,
      "velocity": 94,
      "chip": "ym2612"
    },
    {
      "channel": 0,
      "note": 70,
      "start": 15.1488,
      "duration": 0.2049,
      "velocity": 95,
      "chip": "ym2612"
    },
    {
      "channel": 3,
      "note": 33,
      "start": 15.1498,
      "duration": 0.0929,
      "velocity": 94,
      "chip": "ym2612"
    },
    {
      "channel": 4,
      "note": 58,
      "start": 15.1505,
      "duration": 0.2044,
      "velocity": 91,
      "chip": "ym2612"
    },
    {
      "channel": 3,
      "note": 33,
      "start": 15.2614,
      "duration": 0.0932,
      "velocity": 94,
      "chip": "ym2612"
    },
    {
      "channel": 0,
      "note": 70,
      "start": 15.3726,
      "duration": 0.205,
      "velocity": 95,
      "chip": "ym2612"
    },
    {
      "channel": 3,
      "note": 33,
      "start": 15.3738,
      "duration": 0.0926,
      "velocity": 94,
      "chip": "ym2612"
    },
    {
      "channel": 4,
      "note": 58,
      "start": 15.3747,
      "duration": 0.2041,
      "velocity": 91,
      "chip": "ym2612"
    },
    {
      "channel": 3,
      "note": 33,
      "start": 15.4854,
      "duration": 0.0931,
      "velocity": 94,
      "chip": "ym2612"
    },
    {
      "channel": 0,
      "note": 70,
      "start": 15.5965,
      "duration": 0.205,
      "velocity": 95,
      "chip": "ym2612"
    },
    {
      "channel": 3,
      "note": 33,
      "start": 15.5977,
      "duration": 0.0926,
      "velocity": 94,
      "chip": "ym2612"
    },
    {
      "channel": 4,
      "note": 58,
      "start": 15.5984,
      "duration": 0.2043,
      "velocity": 91,
      "chip": "ym2612"
    },
    {
      "channel": 3,
      "note": 33,
      "start": 15.7096,
      "duration": 0.0928,
      "velocity": 94,
      "chip": "ym2612"
    },
    {
      "channel": 0,
      "note": 70,
      "start": 15.8206,
      "duration": 0.2048,
      "velocity": 95,
      "chip": "ym2612"
    },
    {
      "channel": 3,
      "note": 33,
      "start": 15.8218,
      "duration": 0.0925,
      "velocity": 94,
      "chip": "ym2612"
    },
    {
      "channel": 4,
      "note": 58,
      "start": 15.8226,
      "duration": 0.204,
      "velocity": 91,
      "chip": "ym2612"
    },
    {
      "channel": 3,
      "note": 33,
      "start": 15.9332,
      "duration": 0.0931,
      "velocity": 94,
      "chip": "ym2612"
    },
    {
      "channel": 0,
      "note": 70,
      "start": 16.0444,
      "duration": 0.0352,
      "velocity": 95,
      "chip": "ym2612"
    },
    {
      "channel": 3,
      "note": 33,
      "start": 16.0456,
      "duration": 0.0157,
      "velocity": 94,
      "chip": "ym2612"
    },
    {
      "channel": 4,
      "note": 58,
      "start": 16.0463,
      "duration": 0.0346,
      "velocity": 91,
      "chip": "ym2612"
    },
    {
      "channel": 3,
      "note": 33,
      "start": 16.0645,
      "duration": 0.016,
      "velocity": 94,
      "chip": "ym2612"
    },
    {
      "channel": 0,
      "note": 70,
      "start": 16.0833,
      "duration": 0.0349,
      "velocity": 95,
      "chip": "ym2612"
    },
    {
      "channel": 3,
      "note": 33,
      "start": 16.0844,
      "duration": 0.0166,
      "velocity": 94,
      "chip": "ym2612"
    },
    {
      "channel": 4,
      "note": 58,
      "start": 16.0851,
      "duration": 0.0345,
      "velocity": 91,
      "chip": "ym2612"
    },
    {
      "channel": 3,
      "note": 33,
      "start": 16.1043,
      "duration": 0.0148,
      "velocity": 94,
      "chip": "ym2612"
    },
    {
      "channel": 0,
      "note": 70,
      "start": 16.1221,
      "duration": 0.0432,
      "velocity": 95,
      "chip": "ym2612"
    },
    {
      "channel": 1,
      "note": 70,
      "start": 16.1228,
      "duration": 0.0329,
      "velocity": 90,
      "chip": "ym2612"
    },
    {
      "channel": 2,
      "note": 65,
      "start": 16.1235,
      "duration": 0.0345,
      "velocity": 90,
      "chip": "ym2612"
    },
    {
      "channel": 3,
      "note": 33,
      "start": 16.1289,
      "duration": 0.0372,
      "velocity": 127,
      "chip": "ym2612"
    },
    {
      "channel": 4,
      "note": 58,
      "start": 16.1296,
      "duration": 0.0369,
      "velocity": 91,
      "chip": "ym2612"
    },
    {
      "channel": 1,
      "note": 70,
      "start": 16.1577,
      "duration": 0.0327,
      "velocity": 90,
      "chip": "ym2612"
    },
    {
      "channel": 2,
      "note": 65,
      "start": 16.16,
      "duration": 0.0308,
      "velocity": 90,
      "chip": "ym2612"
    },
    {
      "channel": 0,
      "note": 70,
      "start": 16.1688,
      "duration": 0.0385,
      "velocity": 95,
      "chip": "ym2612"
    },
    {
      "channel": 3,
      "note": 47,
      "start": 16.1724,
      "duration": 0.0156,
      "velocity": 127,
      "chip": "ym2612"
    },
    {
      "channel": 4,
      "note": 58,
      "start": 16.1732,
      "duration": 0.0352,
      "velocity": 91,
      "chip": "ym2612"
    },
    {
      "channel": 3,
      "note": 47,
      "start": 16.1939,
      "duration": 0.0141,
      "velocity": 127,
      "chip": "ym2612"
    },
    {
      "channel": 0,
      "note": 70,
      "start": 16.2107,
      "duration": 0.093,
      "velocity": 95,
      "chip": "ym2612"
    },
    {
      "channel": 3,
      "note": 47,
      "start": 16.2118,
      "duration": 0.015,
      "velocity": 127,
      "chip": "ym2612"
    },
    {
      "channel": 4,
      "note": 58,
      "start": 16.2129,
      "duration": 0.092,
      "velocity": 91,
      "chip": "ym2612"
    },
    {
      "channel": 3,
      "note": 47,
      "start": 16.2301,
      "duration": 0.0744,
      "velocity": 127,
      "chip": "ym2612"
    },
    {
      "channel": 0,
      "note": 70,
      "start": 16.3227,
      "duration": 0.0442,
      "velocity": 95,
      "chip": "ym2612"
    },
    {
      "channel": 1,
      "note": 70,
      "start": 16.325,
      "duration": 0.0323,
      "velocity": 90,
      "chip": "ym2612"
    },
    {
      "channel": 2,
      "note": 65,
      "start": 16.3273,
      "duration": 0.0323,
      "velocity": 90,
      "chip": "ym2612"
    },
    {
      "channel": 3,
      "note": 47,
      "start": 16.3304,
      "duration": 0.0373,
      "velocity": 127,
      "chip": "ym2612"
    },
    {
      "channel": 4,
      "note": 58,
      "start": 16.331,
      "duration": 0.037,
      "velocity": 91,
      "chip": "ym2612"
    },
    {
      "channel": 1,
      "note": 70,
      "start": 16.3593,
      "duration": 0.0324,
      "velocity": 90,
      "chip": "ym2612"
    },
    {
      "channel": 2,
      "note": 65,
      "start": 16.3616,
      "duration": 0.0304,
      "velocity": 90,
      "chip": "ym2612"
    },
    {
      "channel": 0,
      "note": 70,
      "start": 16.3702,
      "duration": 0.0369,
      "velocity": 95,
      "chip": "ym2612"
    },
    {
      "channel": 3,
      "note": 47,
      "start": 16.3741,
      "duration": 0.015,
      "velocity": 127,
      "chip": "ym2612"
    },
    {
      "channel": 4,
      "note": 58,
      "start": 16.3748,
      "duration": 0.0335,
      "velocity": 91,
      "chip": "ym2612"
    },
    {
      "channel": 3,
      "note": 47,
      "start": 16.3927,
      "duration": 0.0152,
      "velocity": 127,
      "chip": "ym2612"
    },
    {
      "channel": 0,
      "note": 70,
      "start": 16.4106,
      "duration": 0.0842,
      "velocity": 95,
      "chip": "ym2612"
    },
    {
      "channel": 3,
      "note": 47,
      "start": 16.4117,
      "duration": 0.015,
      "velocity": 127,
      "chip": "ym2612"
    },
    {
      "channel": 4,
      "note": 58,
      "start": 16.4125,
      "duration": 0.0835,
      "velocity": 91,
      "chip": "ym2612"
    },
    {
      "channel": 3,
      "note": 47,
      "start": 16.4299,
      "duration": 0.0657,
      "velocity": 127,
      "chip": "ym2612"
    },
    {
      "channel": 0,
      "note": 70,
      "start": 16.5138,
      "duration": 0.2049,
      "velocity": 95,
      "chip": "ym2612"
    },
    {
      "channel": 1,
      "note": 71,
      "start": 16.5161,
      "duration": 0.2219,
      "velocity": 90,
      "chip": "ym2612"
    },
    {
      "channel": 2,
      "note": 66,
      "start": 16.5185,
      "duration": 0.2202,
      "velocity": 90,
      "chip": "ym2612"
    },
    {
      "channel": 3,
      "note": 47,
      "start": 16.5219,
      "duration": 0.0856,
      "velocity": 127,
      "chip": "ym2612"
    },
    {
      "channel": 4,
      "note": 58,
      "start": 16.5226,
      "duration": 0.1976,
      "velocity": 91,
      "chip": "ym2612"
    },
    {
      "channel": 3,
      "note": 47,
      "start": 16.6288,
      "duration": 0.0911,
      "velocity": 127,
      "chip": "ym2612"
    },
    {
      "channel": 0,
      "note": 70,
      "start": 16.7377,
      "duration": 0.205,
      "velocity": 95,
      "chip": "ym2612"
    },
    {
      "channel": 1,
      "note": 73,
      "start": 16.7383,
      "duration": 0.2237,
      "velocity": 90,
      "chip": "ym2612"
    },
    {
      "channel": 2,
      "note": 68,
      "start": 16.7389,
      "duration": 0.2237,
      "velocity": 90,
      "chip": "ym2612"
    },
    {
      "channel": 3,
      "note": 47,
      "start": 16.7419,
      "duration": 0.0895,
      "velocity": 127,
      "chip": "ym2612"
    },
    {
      "channel": 4,
      "note": 58,
      "start": 16.7426,
      "duration": 0.2012,
      "velocity": 91,
      "chip": "ym2612"
    },
    {
      "channel": 3,
      "note": 47,
      "start": 16.8532,
      "duration": 0.0903,
      "velocity": 127,
      "chip": "ym2612"
    },
    {
      "channel": 0,
      "note": 70,
      "start": 16.9616,
      "duration": 0.205,
      "velocity": 95,
      "chip": "ym2612"
    },
    {
      "channel": 1,
      "note": 70,
      "start": 16.9622,
      "duration": 0.224,
      "velocity": 90,
      "chip": "ym2612"
    },
    {
      "channel": 2,
      "note": 65,
      "start": 16.9628,
      "duration": 0.2241,
      "velocity": 90,
      "chip": "ym2612"
    },
    {
      "channel": 3,
      "note": 47,
      "start": 16.9658,
      "duration": 0.0895,
      "velocity": 127,
      "chip": "ym2612"
    },
    {
      "channel": 4,
      "note": 58,
      "start": 16.9665,
      "duration": 0.2013,
      "velocity": 91,
      "chip": "ym2612"
    },
    {
      "channel": 3,
      "note": 47,
      "start": 17.0766,
      "duration": 0.0907,
      "velocity": 127,
      "chip": "ym2612"
    },
    {
      "channel": 0,
      "note": 70,
      "start": 17.1857,
      "duration": 0.2048,
      "velocity": 95,
      "chip": "ym2612"
    },
    {
      "channel": 3,
      "note": 47,
      "start": 17.1901,
      "duration": 0.0892,
      "velocity": 127,
      "chip": "ym2612"
    },
    {
      "channel": 4,
      "note": 58,
      "start": 17.1909,
      "duration": 0.2007,
      "velocity": 91,
      "chip": "ym2612"
    },
    {
      "channel": 3,
      "note": 47,
      "start": 17.3006,
      "duration": 0.0906,
      "velocity": 127,
      "chip": "ym2612"
    },
    {
      "channel": 0,
      "note": 70,
      "start": 17.4095,
      "duration": 0.0344,
      "velocity": 95,
      "chip": "ym2612"
    },
    {
      "channel": 3,
      "note": 47,
      "start": 17.4105,
      "duration": 0.0161,
      "velocity": 127,
      "chip": "ym2612"
    },
    {
      "channel": 4,
      "note": 58,
      "start": 17.4112,
      "duration": 0.0339,
      "velocity": 91,
      "chip": "ym2612"
    },
    {
      "channel": 3,
      "note": 47,
      "start": 17.4298,
      "duration": 0.015,
      "velocity": 127,
      "chip": "ym2612"
    },
    {
      "channel": 0,
      "note": 70,
      "start": 17.4485,
      "duration": 0.0372,
      "velocity": 95,
      "chip": "ym2612"
    },
    {
      "channel": 3,
      "note": 47,
      "start": 17.4524,
      "duration": 0.0341,
      "velocity": 127,
      "chip": "ym2612"
    },
    {
      "channel": 4,
      "note": 58,
      "start": 17.4531,
      "duration": 0.0338,
      "velocity": 91,
      "chip": "ym2612"
    },
    {
      "channel": 0,
      "note": 70,
      "start": 17.4892,
      "duration": 0.0371,
      "velocity": 95,
      "chip": "ym2612"
    },
    {
      "channel": 3,
      "note": 47,
      "start": 17.4927,
      "duration": 0.0155,
      "velocity": 127,
      "chip": "ym2612"
    },
    {
      "channel": 4,
      "note": 58,
      "start": 17.4934,
      "duration": 0.034,
      "velocity": 91,
      "chip": "ym2612"
    },
    {
      "channel": 3,
      "note": 47,
      "start": 17.5122,
      "duration": 0.0148,
      "velocity": 127,
      "chip": "ym2612"
    },
    {
      "channel": 0,
      "note": 70,
      "start": 17.5298,
      "duration": 0.0346,
      "velocity": 95,
      "chip": "ym2612"
    },
    {
      "channel": 3,
      "note": 47,
      "start": 17.5309,
      "duration": 0.0156,
      "velocity": 127,
      "chip": "ym2612"
    },
    {
      "channel": 4,
      "note": 58,
      "start": 17.5317,
      "duration": 0.0338,
      "velocity": 91,
      "chip": "ym2612"
    },
    {
      "channel": 3,
      "note": 47,
      "start": 17.5498,
      "duration": 0.0154,
      "velocity": 127,
      "chip": "ym2612"
    },
    {
      "channel": 0,
      "note": 70,
      "start": 17.5677,
      "duration": 0.1042,
      "velocity": 95,
      "chip": "ym2612"
    },
    {
      "channel": 1,
      "note": 71,
      "start": 17.5683,
      "duration": 0.1229,
      "velocity": 90,
      "chip": "ym2612"
    },
    {
      "channel": 2,
      "note": 66,
      "start": 17.5689,
      "duration": 0.1229,
      "velocity": 90,
      "chip": "ym2612"
    },
    {
      "channel": 3,
      "note": 47,
      "start": 17.5719,
      "duration": 0.0147,
      "velocity": 127,
      "chip": "ym2612"
    },
    {
      "channel": 4,
      "note": 58,
      "start": 17.5726,
      "duration": 0.1005,
      "velocity": 91,
      "chip": "ym2612"
    },
    {
      "channel": 3,
      "note": 47,
      "start": 17.5927,
      "duration": 0.08,
      "velocity": 127,
      "chip": "ym2612"
    },
    {
      "channel": 0,
      "note": 70,
      "start": 17.6909,
      "duration": 0.205,
      "velocity": 95,
      "chip": "ym2612"
    },
    {
      "channel": 1,
      "note": 70,
      "start": 17.6915,
      "duration": 0.2241,
      "velocity": 90,
      "chip": "ym2612"
    },
    {
      "channel": 2,
      "note": 65,
      "start": 17.692,
      "duration": 0.2241,
      "velocity": 90,
      "chip": "ym2612"
    },
    {
      "channel": 3,
      "note": 47,
      "start": 17.6951,
      "duration": 0.0895,
      "velocity": 127,
      "chip": "ym2612"
    },
    {
      "channel": 4,
      "note": 58,
      "start": 17.6958,
      "duration": 0.2012,
      "velocity": 91,
      "chip": "ym2612"
    },
    {
      "channel": 3,
      "note": 47,
      "start": 17.8059,
      "duration": 0.0907,
      "velocity": 127,
      "chip": "ym2612"
    },
    {
      "channel": 0,
      "note": 70,
      "start": 17.9152,
      "duration": 0.2046,
      "velocity": 95,
      "chip": "ym2612"
    },
    {
      "channel": 1,
      "note": 69,
      "start": 17.9158,
      "duration": 0.4472,
      "velocity": 90,
      "chip": "ym2612"
    },
    {
      "channel": 2,
      "note": 64,
      "start": 17.9164,
      "duration": 0.4471,
      "velocity": 90,
      "chip": "ym2612"
    },
    {
      "channel": 3,
      "note": 47,
      "start": 17.9194,
      "duration": 0.0891,
      "velocity": 127,
      "chip": "ym2612"
    },
    {
      "channel": 4,
      "note": 58,
      "start": 17.9201,
      "duration": 0.2008,
      "velocity": 91,
      "chip": "ym2612"
    },
    {
      "channel": 3,
      "note": 47,
      "start": 18.0298,
      "duration": 0.0907,
      "velocity": 127,
      "chip": "ym2612"
    },
    {
      "channel": 0,
      "note": 70,
      "start": 18.1389,
      "duration": 0.2048,
      "velocity": 95,
      "chip": "ym2612"
    },
    {
      "channel": 3,
      "note": 47,
      "start": 18.1425,
      "duration": 0.0901,
      "velocity": 127,
      "chip": "ym2612"
    },
    {
      "channel": 4,
      "note": 58,
      "start": 18.1433,
      "duration": 0.2016,
      "velocity": 91,
      "chip": "ym2612"
    },
    {
      "channel": 3,
      "note": 47,
      "start": 18.2537,
      "duration": 0.0908,
      "velocity": 127,
      "chip": "ym2612"
    },
    {
      "channel": 0,
      "note": 70,
      "start": 18.3627,
      "duration": 0.2049,
      "velocity": 95,
      "chip": "ym2612"
    },
    {
      "channel": 1,
      "note": 70,
      "start": 18.3632,
      "duration": 0.2237,
      "velocity": 90,
      "chip": "ym2612"
    },
    {
      "channel": 2,
      "note": 65,
      "start": 18.3638,
      "duration": 0.2235,
      "velocity": 90,
      "chip": "ym2612"
    },
    {
      "channel": 3,
      "note": 47,
      "start": 18.3644,
      "duration": 0.0919,
      "velocity": 127,
      "chip": "ym2612"
    },
    {
      "channel": 4,
      "note": 58,
      "start": 18.3655,
      "duration": 0.2032,
      "velocity": 91,
      "chip": "ym2612"
    },
    {
      "channel": 3,
      "note": 47,
      "start": 18.4753,
      "duration": 0.0931,
      "velocity": 127,
      "chip": "ym2612"
    },
    {
      "channel": 0,
      "note": 70,
      "start": 18.5865,
      "duration": 0.205,
      "velocity": 95,
      "chip": "ym2612"
    },
    {
      "channel": 3,
      "note": 47,
      "start": 18.5904,
      "duration": 0.2019,
      "velocity": 127,
      "chip": "ym2612"
    },
    {
      "channel": 4,
      "note": 58,
      "start": 18.591,
      "duration": 0.2016,
      "velocity": 91,
      "chip": "ym2612"
    },
    {
      "channel": 0,
      "note": 70,
      "start": 18.8105,
      "duration": 0.2049,
      "velocity": 95,
      "chip": "ym2612"
    },
    {
      "channel": 3,
      "note": 47,
      "start": 18.814,
      "duration": 0.0901,
      "velocity": 127,
      "chip": "ym2612"
    },
    {
      "channel": 4,
      "note": 58,
      "start": 18.8151,
      "duration": 0.2016,
      "velocity": 91,
      "chip": "ym2612"
    },
    {
      "channel": 3,
      "note": 47,
      "start": 18.9231,
      "duration": 0.0932,
      "velocity": 127,
      "chip": "ym2612"
    },
    {
      "channel": 0,
      "note": 70,
      "start": 19.0345,
      "duration": 0.2048,
      "velocity": 95,
      "chip": "ym2612"
    },
    {
      "channel": 3,
      "note": 47,
      "start": 19.0357,
      "duration": 0.0924,
      "velocity": 127,
      "chip": "ym2612"
    },
    {
      "channel": 4,
      "note": 58,
      "start": 19.0365,
      "duration": 0.204,
      "velocity": 91,
      "chip": "ym2612"
    },
    {
      "channel": 3,
      "note": 47,
      "start": 19.1471,
      "duration": 0.0931,
      "velocity": 127,
      "chip": "ym2612"
    },
    {
      "channel": 0,
      "note": 70,
      "start": 19.2583,
      "duration": 0.2049,
      "velocity": 95,
      "chip": "ym2612"
    },
    {
      "channel": 3,
      "note": 47,
      "start": 19.2618,
      "duration": 0.0902,
      "velocity": 127,
      "chip": "ym2612"
    },
    {
      "channel": 4,
      "note": 58,
      "start": 19.2625,
      "duration": 0.2019,
      "velocity": 91,
      "chip": "ym2612"
    },
    {
      "channel": 3,
      "note": 47,
      "start": 19.3734,
      "duration": 0.0907,
      "velocity": 127,
      "chip": "ym2612"
    },
    {
      "channel": 0,
      "note": 70,
      "start": 19.4823,
      "duration": 0.2048,
      "velocity": 95,
      "chip": "ym2612"
    },
    {
      "channel": 1,
      "note": 70,
      "start": 19.4829,
      "duration": 0.1112,
      "velocity": 90,
      "chip": "ym2612"
    },
    {
      "channel": 3,
      "note": 47,
      "start": 19.4862,
      "duration": 0.0898,
      "velocity": 127,
      "chip": "ym2612"
    },
    {
      "channel": 4,
      "note": 58,
      "start": 19.4868,
      "duration": 0.2015,
      "velocity": 91,
      "chip": "ym2612"
    },
    {
      "channel": 1,
      "note": 72,
      "start": 19.5943,
      "duration": 0.1121,
      "velocity": 90,
      "chip": "ym2612"
    },
    {
      "channel": 3,
      "note": 47,
      "start": 19.5976,
      "duration": 0.0903,
      "velocity": 127,
      "chip": "ym2612"
    },
    {
      "channel": 0,
      "note": 70,
      "start": 19.7061,
      "duration": 0.2049,
      "velocity": 95,
      "chip": "ym2612"
    },
    {
      "channel": 1,
      "note": 73,
      "start": 19.7067,
      "duration": 0.1113,
      "velocity": 90,
      "chip": "ym2612"
    },
    {
      "channel": 3,
      "note": 47,
      "start": 19.71,
      "duration": 0.0899,
      "velocity": 127,
      "chip": "ym2612"
    },
    {
      "channel": 4,
      "note": 58,
      "start": 19.7106,
      "duration": 0.2016,
      "velocity": 91,
      "chip": "ym2612"
    },
    {
      "channel": 1,
      "note": 75,
      "start": 19.8182,
      "duration": 0.1124,
      "velocity": 90,
      "chip": "ym2612"
    },
    {
      "channel": 3,
      "note": 47,
      "start": 19.8215,
      "duration": 0.0903,
      "velocity": 127,
      "chip": "ym2612"
    },
    {
      "channel": 0,
      "note": 68,
      "start": 19.9303,
      "duration": 0.2046,
      "velocity": 95,
      "chip": "ym2612"
    },
    {
      "channel": 1,
      "note": 77,
      "start": 19.9308,
      "duration": 0.1484,
      "velocity": 90,
      "chip": "ym2612"
    },
    {
      "channel": 2,
      "note": 72,
      "start": 19.9319,
      "duration": 0.1501,
      "velocity": 90,
      "chip": "ym2612"
    },
    {
      "channel": 3,
      "note": 47,
      "start": 19.9351,
      "duration": 0.0886,
      "velocity": 127,
      "chip": "ym2612"
    },
    {
      "channel": 4,
      "note": 58,
      "start": 19.936,
      "duration": 0.2001,
      "velocity": 91,
      "chip": "ym2612"
    },
    {
      "channel": 3,
      "note": 47,
      "start": 20.045,
      "duration": 0.0907,
      "velocity": 127,
      "chip": "ym2612"
    },
    {
      "channel": 1,
      "note": 77,
      "start": 20.0814,
      "duration": 0.1471,
      "velocity": 90,
      "chip": "ym2612"
    },
    {
      "channel": 2,
      "note": 72,
      "start": 20.084,
      "duration": 0.1449,
      "velocity": 90,
      "chip": "ym2612"
    },
    {
      "channel": 0,
      "note": 68,
      "start": 20.1539,
      "duration": 0.205,
      "velocity": 95,
      "chip": "ym2612"
    },
    {
      "channel": 3,
      "note": 47,
      "start": 20.155,
      "duration": 0.0925,
      "velocity": 127,
      "chip": "ym2612"
    },
    {
      "channel": 4,
      "note": 56,
      "start": 20.1557,
      "duration": 0.2043,
      "velocity": 91,
      "chip": "ym2612"
    },
    {
      "channel": 3,
      "note": 47,
      "start": 20.2665,
      "duration": 0.0931,
      "velocity": 127,
      "chip": "ym2612"
    },
    {
      "channel": 0,
      "note": 68,
      "start": 20.3779,
      "duration": 0.2049,
      "velocity": 95,
      "chip": "ym2612"
    },
    {
      "channel": 1,
      "note": 77,
      "start": 20.3802,
      "duration": 0.1469,
      "velocity": 90,
      "chip": "ym2612"
    },
    {
      "channel": 2,
      "note": 72,
      "start": 20.3829,
      "duration": 0.1464,
      "velocity": 90,
      "chip": "ym2612"
    },
    {
      "channel": 3,
      "note": 47,
      "start": 20.3859,
      "duration": 0.1976,
      "velocity": 127,
      "chip": "ym2612"
    },
    {
      "channel": 4,
      "note": 56,
      "start": 20.3866,
      "duration": 0.1973,
      "velocity": 91,
      "chip": "ym2612"
    },
    {
      "channel": 1,
      "note": 77,
      "start": 20.529,
      "duration": 0.1473,
      "velocity": 90,
      "chip": "ym2612"
    },
    {
      "channel": 2,
      "note": 72,
      "start": 20.5317,
      "duration": 0.1449,
      "velocity": 90,
      "chip": "ym2612"
    },
    {
      "channel": 0,
      "note": 68,
      "start": 20.6017,
      "duration": 0.2049,
      "velocity": 95,
      "chip": "ym2612"
    },
    {
      "channel": 3,
      "note": 47,
      "start": 20.6052,
      "duration": 0.0903,
      "velocity": 127,
      "chip": "ym2612"
    },
    {
      "channel": 4,
      "note": 56,
      "start": 20.6059,
      "duration": 0.2019,
      "velocity": 91,
      "chip": "ym2612"
    },
    {
      "channel": 3,
      "note": 47,
      "start": 20.7144,
      "duration": 0.0931,
      "velocity": 127,
      "chip": "ym2612"
    },
    {
      "channel": 0,
      "note": 68,
      "start": 20.8258,
      "duration": 0.2048,
      "velocity": 95,
      "chip": "ym2612"
    },
    {
      "channel": 3,
      "note": 47,
      "start": 20.8269,
      "duration": 0.0924,
      "velocity": 127,
      "chip": "ym2612"
    },
    {
      "channel": 4,
      "note": 56,
      "start": 20.8277,
      "duration": 0.2044,
      "velocity": 91,
      "chip": "ym2612"
    },
    {
      "channel": 3,
      "note": 47,
      "start": 20.9383,
      "duration": 0.0935,
      "velocity": 127,
      "chip": "ym2612"
    },
    {
      "channel": 0,
      "note": 68,
      "start": 21.0495,
      "duration": 0.2049,
      "velocity": 95,
      "chip": "ym2612"
    },
    {
      "channel": 1,
      "note": 78,
      "start": 21.0519,
      "duration": 0.2219,
      "velocity": 90,
      "chip": "ym2612"
    },
    {
      "channel": 2,
      "note": 72,
      "start": 21.0542,
      "duration": 0.2202,
      "velocity": 90,
      "chip": "ym2612"
    },
    {
      "channel": 3,
      "note": 47,
      "start": 21.0573,
      "duration": 0.086,
      "velocity": 127,
      "chip": "ym2612"
    },
    {
      "channel": 4,
      "note": 56,
      "start": 21.058,
      "duration": 0.1976,
      "velocity": 91,
      "chip": "ym2612"
    },
    {
      "channel": 3,
      "note": 47,
      "start": 21.1648,
      "duration": 0.0904,
      "velocity": 127,
      "chip": "ym2612"
    },
    {
      "channel": 0,
      "note": 68,
      "start": 21.2735,
      "duration": 0.2049,
      "velocity": 95,
      "chip": "ym2612"
    },
    {
      "channel": 1,
      "note": 80,
      "start": 21.274,
      "duration": 0.2237,
      "velocity": 90,
      "chip": "ym2612"
    },
    {
      "channel": 2,
      "note": 72,
      "start": 21.2746,
      "duration": 0.2241,
      "velocity": 90,
      "chip": "ym2612"
    },
    {
      "channel": 3,
      "note": 47,
      "start": 21.2777,
      "duration": 0.0895,
      "velocity": 127,
      "chip": "ym2612"
    },
    {
      "channel": 4,
      "note": 56,
      "start": 21.2783,
      "duration": 0.2012,
      "velocity": 91,
      "chip": "ym2612"
    },
    {
      "channel": 3,
      "note": 47,
      "start": 21.3885,
      "duration": 0.0907,
      "velocity": 127,
      "chip": "ym2612"
    },
    {
      "channel": 0,
      "note": 68,
      "start": 21.4974,
      "duration": 0.205,
      "velocity": 95,
      "chip": "ym2612"
    },
    {
      "channel": 1,
      "note": 77,
      "start": 21.4982,
      "duration": 0.2236,
      "velocity": 90,
      "chip": "ym2612"
    },
    {
      "channel": 2,
      "note": 72,
      "start": 21.499,
      "duration": 0.2232,
      "velocity": 90,
      "chip": "ym2612"
    },
    {
      "channel": 3,
      "note": 47,
      "start": 21.502,
      "duration": 0.089,
      "velocity": 127,
      "chip": "ym2612"
    },
    {
      "channel": 4,
      "note": 56,
      "start": 21.5027,
      "duration": 0.2008,
      "velocity": 91,
      "chip": "ym2612"
    },
    {
      "channel": 3,
      "note": 47,
      "start": 21.6124,
      "duration": 0.0907,
      "velocity": 127,
      "chip": "ym2612"
    },
    {
      "channel": 0,
      "note": 68,
      "start": 21.7214,
      "duration": 0.2048,
      "velocity": 95,
      "chip": "ym2612"
    },
    {
      "channel": 3,
      "note": 47,
      "start": 21.7254,
      "duration": 0.0901,
      "velocity": 127,
      "chip": "ym2612"
    },
    {
      "channel": 4,
      "note": 56,
      "start": 21.7262,
      "duration": 0.2011,
      "velocity": 91,
      "chip": "ym2612"
    },
    {
      "channel": 3,
      "note": 47,
      "start": 21.8363,
      "duration": 0.0906,
      "velocity": 127,
      "chip": "ym2612"
    },
    {
      "channel": 0,
      "note": 68,
      "start": 21.9452,
      "duration": 0.2049,
      "velocity": 95,
      "chip": "ym2612"
    },
    {
      "channel": 3,
      "note": 47,
      "start": 21.9463,
      "duration": 0.0926,
      "velocity": 127,
      "chip": "ym2612"
    },
    {
      "channel": 4,
      "note": 56,
      "start": 21.947,
      "duration": 0.2043,
      "velocity": 91,
      "chip": "ym2612"
    },
    {
      "channel": 3,
      "note": 47,
      "start": 22.0578,
      "duration": 0.0931,
      "velocity": 127,
      "chip": "ym2612"
    },
    {
      "channel": 0,
      "note": 68,
      "start": 22.1691,
      "duration": 0.205,
      "velocity": 95,
      "chip": "ym2612"
    },
    {
      "channel": 3,
      "note": 47,
      "start": 22.1727,
      "duration": 0.2022,
      "velocity": 127,
      "chip": "ym2612"
    },
    {
      "channel": 4,
      "note": 56,
      "start": 22.1733,
      "duration": 0.2019,
      "velocity": 91,
      "chip": "ym2612"
    },
    {
      "channel": 0,
      "note": 68,
      "start": 22.393,
      "duration": 0.2052,
      "velocity": 95,
      "chip": "ym2612"
    },
    {
      "channel": 3,
      "note": 47,
      "start": 22.3966,
      "duration": 0.0902,
      "velocity": 127,
      "chip": "ym2612"
    },
    {
      "channel": 4,
      "note": 56,
      "start": 22.3973,
      "duration": 0.2024,
      "velocity": 91,
      "chip": "ym2612"
    },
    {
      "channel": 3,
      "note": 47,
      "start": 22.5057,
      "duration": 0.0935,
      "velocity": 127,
      "chip": "ym2612"
    },
    {
      "channel": 0,
      "note": 68,
      "start": 22.6171,
      "duration": 0.2048,
      "velocity": 95,
      "chip": "ym2612"
    },
    {
      "channel": 3,
      "note": 47,
      "start": 22.6184,
      "duration": 0.0924,
      "velocity": 127,
      "chip": "ym2612"
    },
    {
      "channel": 4,
      "note": 56,
      "start": 22.6192,
      "duration": 0.2038,
      "velocity": 91,
      "chip": "ym2612"
    },
    {
      "channel": 3,
      "note": 47,
      "start": 22.7296,
      "duration": 0.0931,
      "velocity": 127,
      "chip": "ym2612"
    },
    {
      "channel": 0,
      "note": 68,
      "start": 22.8408,
      "duration": 0.2049,
      "velocity": 95,
      "chip": "ym2612"
    },
    {
      "channel": 1,
      "note": 78,
      "start": 22.8414,
      "duration": 0.2241,
      "velocity": 90,
      "chip": "ym2612"
    },
    {
      "channel": 2,
      "note": 72,
      "start": 22.842,
      "duration": 0.2241,
      "velocity": 90,
      "chip": "ym2612"
    },
    {
      "channel": 3,
      "note": 47,
      "start": 22.845,
      "duration": 0.0895,
      "velocity": 127,
      "chip": "ym2612"
    },
    {
      "channel": 4,
      "note": 56,
      "start": 22.8457,
      "duration": 0.2012,
      "velocity": 91,
      "chip": "ym2612"
    },
    {
      "channel": 3,
      "note": 47,
      "start": 22.9559,
      "duration": 0.0906,
      "velocity": 127,
      "chip": "ym2612"
    },
    {
      "channel": 0,
      "note": 68,
      "start": 23.0651,
      "duration": 0.2045,
      "velocity": 95,
      "chip": "ym2612"
    },
    {
      "channel": 1,
      "note": 80,
      "start": 23.0657,
      "duration": 0.2233,
      "velocity": 90,
      "chip": "ym2612"
    },
    {
      "channel": 2,
      "note": 72,
      "start": 23.0663,
      "duration": 0.2232,
      "velocity": 90,
      "chip": "ym2612"
    },
    {
      "channel": 3,
      "note": 47,
      "start": 23.0693,
      "duration": 0.0891,
      "velocity": 127,
      "chip": "ym2612"
    },
    {
      "channel": 4,
      "note": 56,
      "start": 23.07,
      "duration": 0.2007,
      "velocity": 91,
      "chip": "ym2612"
    },
    {
      "channel": 3,
      "note": 47,
      "start": 23.1798,
      "duration": 0.0906,
      "velocity": 127,
      "chip": "ym2612"
    },
    {
      "channel": 0,
      "note": 63,
      "start": 23.2887,
      "duration": 0.2049,
      "velocity": 95,
      "chip": "ym2612"
    },
    {
      "channel": 1,
      "note": 82,
      "start": 23.2893,
      "duration": 1.1193,
      "velocity": 90,
      "chip": "ym2612"
    },
    {
      "channel": 2,
      "note": 78,
      "start": 23.2898,
      "duration": 1.1193,
      "velocity": 90,
      "chip": "ym2612"
    },
    {
      "channel": 3,
      "note": 47,
      "start": 23.2929,
      "duration": 0.0898,
      "velocity": 127,
      "chip": "ym2612"
    },
    {
      "channel": 4,
      "note": 56,
      "start": 23.2935,
      "duration": 0.2012,
      "velocity": 91,
      "chip": "ym2612"
    },
    {
      "channel": 3,
      "note": 47,
      "start": 23.4037,
      "duration": 0.0906,
      "velocity": 127,
      "chip": "ym2612"
    },
    {
      "channel": 0,
      "note": 63,
      "start": 23.5126,
      "duration": 0.2049,
      "velocity": 95,
      "chip": "ym2612"
    },
    {
      "channel": 3,
      "note": 47,
      "start": 23.5167,
      "duration": 0.0896,
      "velocity": 127,
      "chip": "ym2612"
    },
    {
      "channel": 4,
      "note": 51,
      "start": 23.5174,
      "duration": 0.2013,
      "velocity": 91,
      "chip": "ym2612"
    },
    {
      "channel": 3,
      "note": 47,
      "start": 23.6276,
      "duration": 0.0907,
      "velocity": 127,
      "chip": "ym2612"
    },
    {
      "channel": 0,
      "note": 63,
      "start": 23.7365,
      "duration": 0.2049,
      "velocity": 95,
      "chip": "ym2612"
    },
    {
      "channel": 3,
      "note": 47,
      "start": 23.7377,
      "duration": 0.0926,
      "velocity": 127,
      "chip": "ym2612"
    },
    {
      "channel": 4,
      "note": 51,
      "start": 23.7384,
      "duration": 0.2042,
      "velocity": 91,
      "chip": "ym2612"
    },
    {
      "channel": 3,
      "note": 47,
      "start": 23.8496,
      "duration": 0.0926,
      "velocity": 127,
      "chip": "ym2612"
    },
    {
      "channel": 0,
      "note": 63,
      "start": 23.9604,
      "duration": 0.2049,
      "velocity": 95,
      "chip": "ym2612"
    },
    {
      "channel": 3,
      "note": 47,
      "start": 23.964,
      "duration": 0.2022,
      "velocity": 127,
      "chip": "ym2612"
    },
    {
      "channel": 4,
      "note": 51,
      "start": 23.9651,
      "duration": 0.2015,
      "velocity": 91,
      "chip": "ym2612"
    },
    {
      "channel": 0,
      "note": 63,
      "start": 24.1844,
      "duration": 0.2049,
      "velocity": 95,
      "chip": "ym2612"
    },
    {
      "channel": 3,
      "note": 47,
      "start": 24.1879,
      "duration": 0.0903,
      "velocity": 127,
      "chip": "ym2612"
    },
    {
      "channel": 4,
      "note": 51,
      "start": 24.1885,
      "duration": 0.2019,
      "velocity": 91,
      "chip": "ym2612"
    },
    {
      "channel": 3,
      "note": 47,
      "start": 24.297,
      "duration": 0.0931,
      "velocity": 127,
      "chip": "ym2612"
    },
    {
      "channel": 0,
      "note": 63,
      "start": 24.4082,
      "duration": 0.205,
      "velocity": 95,
      "chip": "ym2612"
    },
    {
      "channel": 1,
      "note": 82,
      "start": 24.4088,
      "duration": 0.2239,
      "velocity": 90,
      "chip": "ym2612"
    },
    {
      "channel": 2,
      "note": 78,
      "start": 24.4094,
      "duration": 0.2238,
      "velocity": 90,
      "chip": "ym2612"
    },
    {
      "channel": 3,
      "note": 47,
      "start": 24.41,
      "duration": 0.0919,
      "velocity": 127,
      "chip": "ym2612"
    },
    {
      "channel": 4,
      "note": 51,
      "start": 24.4107,
      "duration": 0.2036,
      "velocity": 91,
      "chip": "ym2612"
    },
    {
      "channel": 3,
      "note": 47,
      "start": 24.5208,
      "duration": 0.0931,
      "velocity": 127,
      "chip": "ym2612"
    },
    {
      "channel": 0,
      "note": 63,
      "start": 24.6323,
      "duration": 0.2047,
      "velocity": 95,
      "chip": "ym2612"
    },
    {
      "channel": 1,
      "note": 84,
      "start": 24.6329,
      "duration": 0.2235,
      "velocity": 90,
      "chip": "ym2612"
    },
    {
      "channel": 2,
      "note": 80,
      "start": 24.6334,
      "duration": 0.2235,
      "velocity": 90,
      "chip": "ym2612"
    },
    {
      "channel": 3,
      "note": 47,
      "start": 24.6365,
      "duration": 0.0893,
      "velocity": 127,
      "chip": "ym2612"
    },
    {
      "channel": 4,
      "note": 51,
      "start": 24.6371,
      "duration": 0.201,
      "velocity": 91,
      "chip": "ym2612"
    },
    {
      "channel": 3,
      "note": 47,
      "start": 24.7471,
      "duration": 0.0906,
      "velocity": 127,
      "chip": "ym2612"
    },
    {
      "channel": 0,
      "note": 63,
      "start": 24.856,
      "duration": 0.2049,
      "velocity": 95,
      "chip": "ym2612"
    },
    {
      "channel": 1,
      "note": 85,
      "start": 24.8566,
      "duration": 0.2237,
      "velocity": 90,
      "chip": "ym2612"
    },
    {
      "channel": 2,
      "note": 82,
      "start": 24.8572,
      "duration": 0.2237,
      "velocity": 90,
      "chip": "ym2612"
    },
    {
      "channel": 3,
      "note": 47,
      "start": 24.8602,
      "duration": 0.0895,
      "velocity": 127,
      "chip": "ym2612"
    },
    {
      "channel": 4,
      "note": 51,
      "start": 24.8609,
      "duration": 0.2012,
      "velocity": 91,
      "chip": "ym2612"
    },
    {
      "channel": 3,
      "note": 47,
      "start": 24.971,
      "duration": 0.0907,
      "velocity": 127,
      "chip": "ym2612"
    },
    {
      "channel": 0,
      "note": 65,
      "start": 25.08,
      "duration": 0.2049,
      "velocity": 95,
      "chip": "ym2612"
    },
    {
      "channel": 1,
      "note": 84,
      "start": 25.0805,
      "duration": 1.1193,
      "velocity": 90,
      "chip": "ym2612"
    },
    {
      "channel": 2,
      "note": 80,
      "start": 25.0811,
      "duration": 1.1191,
      "velocity": 90,
      "chip": "ym2612"
    },
    {
      "channel": 3,
      "note": 47,
      "start": 25.0846,
      "duration": 0.089,
      "velocity": 127,
      "chip": "ym2612"
    },
    {
      "channel": 4,
      "note": 51,
      "start": 25.0852,
      "duration": 0.2008,
      "velocity": 91,
      "chip": "ym2612"
    },
    {
      "channel": 3,
      "note": 47,
      "start": 25.195,
      "duration": 0.0907,
      "velocity": 127,
      "chip": "ym2612"
    },
    {
      "channel": 0,
      "note": 65,
      "start": 25.3039,
      "duration": 0.205,
      "velocity": 95,
      "chip": "ym2612"
    },
    {
      "channel": 3,
      "note": 47,
      "start": 25.3075,
      "duration": 0.0901,
      "velocity": 127,
      "chip": "ym2612"
    },
    {
      "channel": 4,
      "note": 53,
      "start": 25.3082,
      "duration": 0.2018,
      "velocity": 91,
      "chip": "ym2612"
    },
    {
      "channel": 3,
      "note": 47,
      "start": 25.4189,
      "duration": 0.0908,
      "velocity": 127,
      "chip": "ym2612"
    },
    {
      "channel": 0,
      "note": 65,
      "start": 25.5278,
      "duration": 0.2049,
      "velocity": 95,
      "chip": "ym2612"
    },
    {
      "channel": 3,
      "note": 47,
      "start": 25.5289,
      "duration": 0.0926,
      "velocity": 127,
      "chip": "ym2612"
    },
    {
      "channel": 4,
      "note": 53,
      "start": 25.5296,
      "duration": 0.2043,
      "velocity": 91,
      "chip": "ym2612"
    },
    {
      "channel": 3,
      "note": 47,
      "start": 25.6405,
      "duration": 0.0931,
      "velocity": 127,
      "chip": "ym2612"
    },
    {
      "channel": 0,
      "note": 65,
      "start": 25.7517,
      "duration": 0.2049,
      "velocity": 95,
      "chip": "ym2612"
    },
    {
      "channel": 3,
      "note": 47,
      "start": 25.7553,
      "duration": 0.2022,
      "velocity": 127,
      "chip": "ym2612"
    },
    {
      "channel": 4,
      "note": 53,
      "start": 25.7559,
      "duration": 0.2019,
      "velocity": 91,
      "chip": "ym2612"
    },
    {
      "channel": 0,
      "note": 65,
      "start": 25.9756,
      "duration": 0.2049,
      "velocity": 95,
      "chip": "ym2612"
    },
    {
      "channel": 3,
      "note": 47,
      "start": 25.9792,
      "duration": 0.0902,
      "velocity": 127,
      "chip": "ym2612"
    },
    {
      "channel": 4,
      "note": 53,
      "start": 25.9798,
      "duration": 0.2023,
      "velocity": 91,
      "chip": "ym2612"
    },
    {
      "channel": 3,
      "note": 47,
      "start": 26.0883,
      "duration": 0.0935,
      "velocity": 127,
      "chip": "ym2612"
    },
    {
      "channel": 0,
      "note": 65,
      "start": 26.1995,
      "duration": 0.205,
      "velocity": 95,
      "chip": "ym2612"
    },
    {
      "channel": 3,
      "note": 47,
      "start": 26.201,
      "duration": 0.0922,
      "velocity": 127,
      "chip": "ym2612"
    },
    {
      "channel": 4,
      "note": 53,
      "start": 26.2017,
      "duration": 0.2039,
      "velocity": 91,
      "chip": "ym2612"
    },
    {
      "channel": 3,
      "note": 47,
      "start": 26.3122,
      "duration": 0.0931,
      "velocity": 127,
      "chip": "ym2612"
    },
    {
      "channel": 0,
      "note": 65,
      "start": 26.4234,
      "duration": 0.205,
      "velocity": 95,
      "chip": "ym2612"
    },
    {
      "channel": 1,
      "note": 77,
      "start": 26.4273,
      "duration": 0.108,
      "velocity": 99,
      "chip": "ym2612"
    },
    {
      "channel": 2,
      "note": 72,
      "start": 26.4312,
      "duration": 0.1045,
      "velocity": 99,
      "chip": "ym2612"
    },
    {
      "channel": 3,
      "note": 47,
      "start": 26.4347,
      "duration": 0.0824,
      "velocity": 127,
      "chip": "ym2612"
    },
    {
      "channel": 4,
      "note": 53,
      "start": 26.4353,
      "duration": 0.1942,
      "velocity": 91,
      "chip": "ym2612"
    },
    {
      "channel": 3,
      "note": 47,
      "start": 26.5388,
      "duration": 0.0903,
      "velocity": 127,
      "chip": "ym2612"
    },
    {
      "channel": 0,
      "note": 65,
      "start": 26.6473,
      "duration": 0.205,
      "velocity": 95,
      "chip": "ym2612"
    },
    {
      "channel": 1,
      "note": 80,
      "start": 26.6481,
      "duration": 0.4475,
      "velocity": 99,
      "chip": "ym2612"
    },
    {
      "channel": 2,
      "note": 72,
      "start": 26.6489,
      "duration": 0.4495,
      "velocity": 99,
      "chip": "ym2612"
    },
    {
      "channel": 3,
      "note": 47,
      "start": 26.652,
      "duration": 0.089,
      "velocity": 127,
      "chip": "ym2612"
    },
    {
      "channel": 4,
      "note": 53,
      "start": 26.6526,
      "duration": 0.2008,
      "velocity": 91,
      "chip": "ym2612"
    },
    {
      "channel": 3,
      "note": 47,
      "start": 26.7623,
      "duration": 0.0907,
      "velocity": 127,
      "chip": "ym2612"
    },
    {
      "channel": 0,
      "note": 65,
      "start": 26.8712,
      "duration": 0.2049,
      "velocity": 95,
      "chip": "ym2612"
    },
    {
      "channel": 3,
      "note": 47,
      "start": 26.8747,
      "duration": 0.0907,
      "velocity": 127,
      "chip": "ym2612"
    },
    {
      "channel": 4,
      "note": 53,
      "start": 26.8754,
      "duration": 0.202,
      "velocity": 91,
      "chip": "ym2612"
    },
    {
      "channel": 3,
      "note": 47,
      "start": 26.9862,
      "duration": 0.0908,
      "velocity": 127,
      "chip": "ym2612"
    },
    {
      "channel": 0,
      "note": 66,
      "start": 27.0953,
      "duration": 0.2048,
      "velocity": 95,
      "chip": "ym2612"
    },
    {
      "channel": 1,
      "note": 82,
      "start": 27.0976,
      "duration": 0.296,
      "velocity": 99,
      "chip": "ym2612"
    },
    {
      "channel": 2,
      "note": 66,
      "start": 27.1006,
      "duration": 1.7887,
      "velocity": 99,
      "chip": "ym2612"
    },
    {
      "channel": 3,
      "note": 47,
      "start": 27.1037,
      "duration": 0.0851,
      "velocity": 127,
      "chip": "ym2612"
    },
    {
      "channel": 4,
      "note": 53,
      "start": 27.1046,
      "duration": 0.1966,
      "velocity": 91,
      "chip": "ym2612"
    },
    {
      "channel": 3,
      "note": 47,
      "start": 27.2101,
      "duration": 0.0908,
      "velocity": 127,
      "chip": "ym2612"
    },
    {
      "channel": 0,
      "note": 66,
      "start": 27.3191,
      "duration": 0.2049,
      "velocity": 95,
      "chip": "ym2612"
    },
    {
      "channel": 3,
      "note": 47,
      "start": 27.3202,
      "duration": 0.0926,
      "velocity": 127,
      "chip": "ym2612"
    },
    {
      "channel": 4,
      "note": 54,
      "start": 27.3209,
      "duration": 0.2043,
      "velocity": 91,
      "chip": "ym2612"
    },
    {
      "channel": 1,
      "note": 82,
      "start": 27.3956,
      "duration": 0.1477,
      "velocity": 99,
      "chip": "ym2612"
    },
    {
      "channel": 3,
      "note": 47,
      "start": 27.4321,
      "duration": 0.0927,
      "velocity": 127,
      "chip": "ym2612"
    },
    {
      "channel": 0,
      "note": 66,
      "start": 27.543,
      "duration": 0.2051,
      "velocity": 95,
      "chip": "ym2612"
    },
    {
      "channel": 1,
      "note": 85,
      "start": 27.5454,
      "duration": 0.2961,
      "velocity": 99,
      "chip": "ym2612"
    },
    {
      "channel": 3,
      "note": 47,
      "start": 27.549,
      "duration": 0.2001,
      "velocity": 127,
      "chip": "ym2612"
    },
    {
      "channel": 4,
      "note": 54,
      "start": 27.5498,
      "duration": 0.1997,
      "velocity": 91,
      "chip": "ym2612"
    },
    {
      "channel": 0,
      "note": 66,
      "start": 27.7669,
      "duration": 0.2049,
      "velocity": 95,
      "chip": "ym2612"
    },
    {
      "channel": 3,
      "note": 47,
      "start": 27.7704,
      "duration": 0.0902,
      "velocity": 127,
      "chip": "ym2612"
    },
    {
      "channel": 4,
      "note": 54,
      "start": 27.7711,
      "duration": 0.2019,
      "velocity": 91,
      "chip": "ym2612"
    },
    {
      "channel": 1,
      "note": 85,
      "start": 27.8434,
      "duration": 0.1478,
      "velocity": 99,
      "chip": "ym2612"
    },
    {
      "channel": 3,
      "note": 47,
      "start": 27.8795,
      "duration": 0.0931,
      "velocity": 127,
      "chip": "ym2612"
    },
    {
      "channel": 0,
      "note": 66,
      "start": 27.9909,
      "duration": 0.2048,
      "velocity": 95,
      "chip": "ym2612"
    },
    {
      "channel": 1,
      "note": 84,
      "start": 27.9933,
      "duration": 0.296,
      "velocity": 99,
      "chip": "ym2612"
    },
    {
      "channel": 3,
      "note": 47,
      "start": 27.9941,
      "duration": 0.0905,
      "velocity": 127,
      "chip": "ym2612"
    },
    {
      "channel": 4,
      "note": 54,
      "start": 27.995,
      "duration": 0.2019,
      "velocity": 91,
      "chip": "ym2612"
    },
    {
      "channel": 3,
      "note": 47,
      "start": 28.1034,
      "duration": 0.0931,
      "velocity": 127,
      "chip": "ym2612"
    },
    {
      "channel": 0,
      "note": 66,
      "start": 28.2151,
      "duration": 0.2044,
      "velocity": 95,
      "chip": "ym2612"
    },
    {
      "channel": 3,
      "note": 47,
      "start": 28.2186,
      "duration": 0.0898,
      "velocity": 127,
      "chip": "ym2612"
    },
    {
      "channel": 4,
      "note": 54,
      "start": 28.2193,
      "duration": 0.2015,
      "velocity": 91,
      "chip": "ym2612"
    },
    {
      "channel": 1,
      "note": 84,
      "start": 28.2912,
      "duration": 0.1477,
      "velocity": 99,
      "chip": "ym2612"
    },
    {
      "channel": 3,
      "note": 47,
      "start": 28.3298,
      "duration": 0.0906,
      "velocity": 127,
      "chip": "ym2612"
    },
    {
      "channel": 0,
      "note": 66,
      "start": 28.4386,
      "duration": 0.2049,
      "velocity": 95,
      "chip": "ym2612"
    },
    {
      "channel": 1,
      "note": 80,
      "start": 28.441,
      "duration": 0.2961,
      "velocity": 99,
      "chip": "ym2612"
    },
    {
      "channel": 3,
      "note": 47,
      "start": 28.4443,
      "duration": 0.0884,
      "velocity": 127,
      "chip": "ym2612"
    },
    {
      "channel": 4,
      "note": 54,
      "start": 28.4449,
      "duration": 0.1999,
      "velocity": 91,
      "chip": "ym2612"
    },
    {
      "channel": 3,
      "note": 47,
      "start": 28.5537,
      "duration": 0.0907,
      "velocity": 127,
      "chip": "ym2612"
    },
    {
      "channel": 0,
      "note": 66,
      "start": 28.6625,
      "duration": 0.2049,
      "velocity": 95,
      "chip": "ym2612"
    },
    {
      "channel": 3,
      "note": 47,
      "start": 28.6665,
      "duration": 0.0898,
      "velocity": 127,
      "chip": "ym2612"
    },
    {
      "channel": 4,
      "note": 54,
      "start": 28.6672,
      "duration": 0.2015,
      "velocity": 91,
      "chip": "ym2612"
    },
    {
      "channel": 1,
      "note": 80,
      "start": 28.739,
      "duration": 0.1478,
      "velocity": 99,
      "chip": "ym2612"
    },
    {
      "channel": 3,
      "note": 47,
      "start": 28.7776,
      "duration": 0.0908,
      "velocity": 127,
      "chip": "ym2612"
    },
    {
      "channel": 0,
      "note": 66,
      "start": 28.8866,
      "duration": 0.2048,
      "velocity": 95,
      "chip": "ym2612"
    },
    {
      "channel": 1,
      "note": 82,
      "start": 28.8889,
      "duration": 1.7894,
      "velocity": 99,
      "chip": "ym2612"
    },
    {
      "channel": 2,
      "note": 66,
      "start": 28.8895,
      "duration": 0.2956,
      "velocity": 99,
      "chip": "ym2612"
    },
    {
      "channel": 3,
      "note": 47,
      "start": 28.8927,
      "duration": 0.0874,
      "velocity": 127,
      "chip": "ym2612"
    },
    {
      "channel": 4,
      "note": 54,
      "start": 28.8935,
      "duration": 0.199,
      "velocity": 91,
      "chip": "ym2612"
    },
    {
      "channel": 3,
      "note": 47,
      "start": 29.0019,
      "duration": 0.0902,
      "velocity": 127,
      "chip": "ym2612"
    },
    {
      "channel": 0,
      "note": 66,
      "start": 29.1103,
      "duration": 0.205,
      "velocity": 95,
      "chip": "ym2612"
    },
    {
      "channel": 3,
      "note": 47,
      "start": 29.1114,
      "duration": 0.0927,
      "velocity": 127,
      "chip": "ym2612"
    },
    {
      "channel": 4,
      "note": 54,
      "start": 29.1121,
      "duration": 0.2044,
      "velocity": 91,
      "chip": "ym2612"
    },
    {
      "channel": 2,
      "note": 66,
      "start": 29.1871,
      "duration": 0.1477,
      "velocity": 99,
      "chip": "ym2612"
    },
    {
      "channel": 3,
      "note": 47,
      "start": 29.223,
      "duration": 0.0932,
      "velocity": 127,
      "chip": "ym2612"
    },
    {
      "channel": 0,
      "note": 66,
      "start": 29.3342,
      "duration": 0.205,
      "velocity": 95,
      "chip": "ym2612"
    },
    {
      "channel": 2,
      "note": 70,
      "start": 29.3368,
      "duration": 0.2961,
      "velocity": 99,
      "chip": "ym2612"
    },
    {
      "channel": 3,
      "note": 47,
      "start": 29.3399,
      "duration": 0.2001,
      "velocity": 127,
      "chip": "ym2612"
    },
    {
      "channel": 4,
      "note": 54,
      "start": 29.3406,
      "duration": 0.1997,
      "velocity": 91,
      "chip": "ym2612"
    },
    {
      "channel": 0,
      "note": 66,
      "start": 29.5581,
      "duration": 0.205,
      "velocity": 95,
      "chip": "ym2612"
    },
    {
      "channel": 3,
      "note": 47,
      "start": 29.5616,
      "duration": 0.0902,
      "velocity": 127,
      "chip": "ym2612"
    },
    {
      "channel": 4,
      "note": 54,
      "start": 29.5623,
      "duration": 0.2019,
      "velocity": 91,
      "chip": "ym2612"
    },
    {
      "channel": 2,
      "note": 70,
      "start": 29.635,
      "duration": 0.148,
      "velocity": 99,
      "chip": "ym2612"
    },
    {
      "channel": 3,
      "note": 47,
      "start": 29.6708,
      "duration": 0.0931,
      "velocity": 127,
      "chip": "ym2612"
    },
    {
      "channel": 0,
      "note": 66,
      "start": 29.7824,
      "duration": 0.2046,
      "velocity": 95,
      "chip": "ym2612"
    },
    {
      "channel": 2,
      "note": 68,
      "start": 29.7851,
      "duration": 0.2957,
      "velocity": 99,
      "chip": "ym2612"
    },
    {
      "channel": 3,
      "note": 47,
      "start": 29.7857,
      "duration": 0.0901,
      "velocity": 127,
      "chip": "ym2612"
    },
    {
      "channel": 4,
      "note": 54,
      "start": 29.7865,
      "duration": 0.2017,
      "velocity": 91,
      "chip": "ym2612"
    },
    {
      "channel": 3,
      "note": 47,
      "start": 29.8947,
      "duration": 0.0931,
      "velocity": 127,
      "chip": "ym2612"
    },
    {
      "channel": 0,
      "note": 66,
      "start": 30.006,
      "duration": 0.2049,
      "velocity": 95,
      "chip": "ym2612"
    },
    {
      "channel": 3,
      "note": 47,
      "start": 30.0095,
      "duration": 0.0903,
      "velocity": 127,
      "chip": "ym2612"
    },
    {
      "channel": 4,
      "note": 54,
      "start": 30.0102,
      "duration": 0.2019,
      "velocity": 91,
      "chip": "ym2612"
    },
    {
      "channel": 2,
      "note": 68,
      "start": 30.0832,
      "duration": 0.1473,
      "velocity": 99,
      "chip": "ym2612"
    },
    {
      "channel": 3,
      "note": 47,
      "start": 30.121,
      "duration": 0.0907,
      "velocity": 127,
      "chip": "ym2612"
    },
    {
      "channel": 0,
      "note": 66,
      "start": 30.2299,
      "duration": 0.2049,
      "velocity": 95,
      "chip": "ym2612"
    },
    {
      "channel": 2,
      "note": 65,
      "start": 30.2329,
      "duration": 0.2956,
      "velocity": 99,
      "chip": "ym2612"
    },
    {
      "channel": 3,
      "note": 47,
      "start": 30.236,
      "duration": 0.0876,
      "velocity": 127,
      "chip": "ym2612"
    },
    {
      "channel": 4,
      "note": 54,
      "start": 30.2366,
      "duration": 0.1994,
      "velocity": 91,
      "chip": "ym2612"
    },
    {
      "channel": 3,
      "note": 47,
      "start": 30.3449,
      "duration": 0.0908,
      "velocity": 127,
      "chip": "ym2612"
    },
    {
      "channel": 0,
      "note": 66,
      "start": 30.4538,
      "duration": 0.2049,
      "velocity": 95,
      "chip": "ym2612"
    },
    {
      "channel": 3,
      "note": 47,
      "start": 30.4573,
      "duration": 0.0903,
      "velocity": 127,
      "chip": "ym2612"
    },
    {
      "channel": 4,
      "note": 54,
      "start": 30.458,
      "duration": 0.2019,
      "velocity": 91,
      "chip": "ym2612"
    },
    {
      "channel": 2,
      "note": 65,
      "start": 30.5306,
      "duration": 0.1501,
      "velocity": 99,
      "chip": "ym2612"
    },
    {
      "channel": 3,
      "note": 47,
      "start": 30.5689,
      "duration": 0.0907,
      "velocity": 127,
      "chip": "ym2612"
    },
    {
      "channel": 0,
      "note": 63,
      "start": 30.678,
      "duration": 0.2046,
      "velocity": 95,
      "chip": "ym2612"
    },
    {
      "channel": 1,
      "note": 82,
      "start": 30.6803,
      "duration": 0.2959,
      "velocity": 99,
      "chip": "ym2612"
    },
    {
      "channel": 2,
      "note": 66,
      "start": 30.6833,
      "duration": 1.7885,
      "velocity": 99,
      "chip": "ym2612"
    },
    {
      "channel": 3,
      "note": 47,
      "start": 30.6864,
      "duration": 0.0849,
      "velocity": 127,
      "chip": "ym2612"
    },
    {
      "channel": 4,
      "note": 54,
      "start": 30.6874,
      "duration": 0.1964,
      "velocity": 91,
      "chip": "ym2612"
    },
    {
      "channel": 3,
      "note": 47,
      "start": 30.7927,
      "duration": 0.0907,
      "velocity": 127,
      "chip": "ym2612"
    },
    {
      "channel": 0,
      "note": 63,
      "start": 30.9016,
      "duration": 0.205,
      "velocity": 95,
      "chip": "ym2612"
    },
    {
      "channel": 3,
      "note": 47,
      "start": 30.9027,
      "duration": 0.0927,
      "velocity": 127,
      "chip": "ym2612"
    },
    {
      "channel": 4,
      "note": 51,
      "start": 30.9034,
      "duration": 0.2043,
      "velocity": 91,
      "chip": "ym2612"
    },
    {
      "channel": 1,
      "note": 82,
      "start": 30.9782,
      "duration": 0.1476,
      "velocity": 99,
      "chip": "ym2612"
    },
    {
      "channel": 3,
      "note": 47,
      "start": 31.0142,
      "duration": 0.0932,
      "velocity": 127,
      "chip": "ym2612"
    },
    {
      "channel": 0,
      "note": 63,
      "start": 31.1255,
      "duration": 0.2049,
      "velocity": 95,
      "chip": "ym2612"
    },
    {
      "channel": 1,
      "note": 85,
      "start": 31.1279,
      "duration": 0.2961,
      "velocity": 99,
      "chip": "ym2612"
    },
    {
      "channel": 3,
      "note": 47,
      "start": 31.1312,
      "duration": 0.2002,
      "velocity": 127,
      "chip": "ym2612"
    },
    {
      "channel": 4,
      "note": 51,
      "start": 31.1322,
      "duration": 0.1998,
      "velocity": 91,
      "chip": "ym2612"
    },
    {
      "channel": 0,
      "note": 63,
      "start": 31.3494,
      "duration": 0.2049,
      "velocity": 95,
      "chip": "ym2612"
    },
    {
      "channel": 3,
      "note": 47,
      "start": 31.3529,
      "duration": 0.0903,
      "velocity": 127,
      "chip": "ym2612"
    },
    {
      "channel": 4,
      "note": 51,
      "start": 31.3536,
      "duration": 0.2019,
      "velocity": 91,
      "chip": "ym2612"
    },
    {
      "channel": 1,
      "note": 85,
      "start": 31.4259,
      "duration": 0.1478,
      "velocity": 99,
      "chip": "ym2612"
    },
    {
      "channel": 3,
      "note": 47,
      "start": 31.4621,
      "duration": 0.0931,
      "velocity": 127,
      "chip": "ym2612"
    },
    {
      "channel": 0,
      "note": 63,
      "start": 31.5735,
      "duration": 0.2048,
      "velocity": 95,
      "chip": "ym2612"
    },
    {
      "channel": 1,
      "note": 84,
      "start": 31.5758,
      "duration": 0.296,
      "velocity": 99,
      "chip": "ym2612"
    },
    {
      "channel": 3,
      "note": 47,
      "start": 31.5767,
      "duration": 0.0904,
      "velocity": 127,
      "chip": "ym2612"
    },
    {
      "channel": 4,
      "note": 51,
      "start": 31.5776,
      "duration": 0.2019,
      "velocity": 91,
      "chip": "ym2612"
    },
    {
      "channel": 3,
      "note": 47,
      "start": 31.686,
      "duration": 0.0931,
      "velocity": 127,
      "chip": "ym2612"
    },
    {
      "channel": 0,
      "note": 63,
      "start": 31.7973,
      "duration": 0.2049,
      "velocity": 95,
      "chip": "ym2612"
    },
    {
      "channel": 3,
      "note": 47,
      "start": 31.8012,
      "duration": 0.0898,
      "velocity": 127,
      "chip": "ym2612"
    },
    {
      "channel": 4,
      "note": 51,
      "start": 31.8019,
      "duration": 0.2015,
      "velocity": 91,
      "chip": "ym2612"
    },
    {
      "channel": 1,
      "note": 84,
      "start": 31.8738,
      "duration": 0.1477,
      "velocity": 99,
      "chip": "ym2612"
    },
    {
      "channel": 3,
      "note": 47,
      "start": 31.9123,
      "duration": 0.0907,
      "velocity": 127,
      "chip": "ym2612"
    },
    {
      "channel": 0,
      "note": 63,
      "start": 32.0211,
      "duration": 0.205,
      "velocity": 95,
      "chip": "ym2612"
    },
    {
      "channel": 1,
      "note": 80,
      "start": 32.0235,
      "duration": 0.2962,
      "velocity": 99,
      "chip": "ym2612"
    },
    {
      "channel": 3,
      "note": 47,
      "start": 32.0268,
      "duration": 0.0885,
      "velocity": 127,
      "chip": "ym2612"
    },
    {
      "channel": 4,
      "note": 51,
      "start": 32.0275,
      "duration": 0.1999,
      "velocity": 91,
      "chip": "ym2612"
    },
    {
      "channel": 3,
      "note": 47,
      "start": 32.1362,
      "duration": 0.0908,
      "velocity": 127,
      "chip": "ym2612"
    },
    {
      "channel": 0,
      "note": 63,
      "start": 32.2451,
      "duration": 0.2049,
      "velocity": 95,
      "chip": "ym2612"
    },
    {
      "channel": 3,
      "note": 47,
      "start": 32.249,
      "duration": 0.0898,
      "velocity": 127,
      "chip": "ym2612"
    },
    {
      "channel": 4,
      "note": 51,
      "start": 32.2498,
      "duration": 0.2014,
      "velocity": 91,
      "chip": "ym2612"
    },
    {
      "channel": 1,
      "note": 80,
      "start": 32.3216,
      "duration": 0.1478,
      "velocity": 99,
      "chip": "ym2612"
    },
    {
      "channel": 3,
      "note": 47,
      "start": 32.3601,
      "duration": 0.0907,
      "velocity": 127,
      "chip": "ym2612"
    },
    {
      "channel": 0,
      "note": 63,
      "start": 32.4691,
      "duration": 0.2049,
      "velocity": 95,
      "chip": "ym2612"
    },
    {
      "channel": 1,
      "note": 82,
      "start": 32.4714,
      "duration": 1.7895,
      "velocity": 99,
      "chip": "ym2612"
    },
    {
      "channel": 2,
      "note": 66,
      "start": 32.472,
      "duration": 0.2957,
      "velocity": 99,
      "chip": "ym2612"
    },
    {
      "channel": 3,
      "note": 47,
      "start": 32.4752,
      "duration": 0.0875,
      "velocity": 127,
      "chip": "ym2612"
    },
    {
      "channel": 4,
      "note": 51,
      "start": 32.476,
      "duration": 0.199,
      "velocity": 91,
      "chip": "ym2612"
    },
    {
      "channel": 3,
      "note": 47,
      "start": 32.5844,
      "duration": 0.0902,
      "velocity": 127,
      "chip": "ym2612"
    },
    {
      "channel": 0,
      "note": 63,
      "start": 32.6929,
      "duration": 0.205,
      "velocity": 95,
      "chip": "ym2612"
    },
    {
      "channel": 3,
      "note": 47,
      "start": 32.6939,
      "duration": 0.0926,
      "velocity": 127,
      "chip": "ym2612"
    },
    {
      "channel": 4,
      "note": 51,
      "start": 32.6946,
      "duration": 0.2048,
      "velocity": 91,
      "chip": "ym2612"
    },
    {
      "channel": 2,
      "note": 66,
      "start": 32.7697,
      "duration": 0.1477,
      "velocity": 99,
      "chip": "ym2612"
    },
    {
      "channel": 3,
      "note": 47,
      "start": 32.8055,
      "duration": 0.0936,
      "velocity": 127,
      "chip": "ym2612"
    },
    {
      "channel": 0,
      "note": 63,
      "start": 32.9168,
      "duration": 0.205,
      "velocity": 95,
      "chip": "ym2612"
    },
    {
      "channel": 2,
      "note": 70,
      "start": 32.9194,
      "duration": 0.2964,
      "velocity": 99,
      "chip": "ym2612"
    },
    {
      "channel": 3,
      "note": 47,
      "start": 32.9224,
      "duration": 0.2001,
      "velocity": 127,
      "chip": "ym2612"
    },
    {
      "channel": 4,
      "note": 51,
      "start": 32.9231,
      "duration": 0.1998,
      "velocity": 91,
      "chip": "ym2612"
    },
    {
      "channel": 0,
      "note": 63,
      "start": 33.1407,
      "duration": 0.2049,
      "velocity": 95,
      "chip": "ym2612"
    },
    {
      "channel": 3,
      "note": 47,
      "start": 33.1443,
      "duration": 0.0902,
      "velocity": 127,
      "chip": "ym2612"
    },
    {
      "channel": 4,
      "note": 51,
      "start": 33.1449,
      "duration": 0.2019,
      "velocity": 91,
      "chip": "ym2612"
    },
    {
      "channel": 2,
      "note": 70,
      "start": 33.2178,
      "duration": 0.148,
      "velocity": 99,
      "chip": "ym2612"
    },
    {
      "channel": 3,
      "note": 47,
      "start": 33.2534,
      "duration": 0.0931,
      "velocity": 127,
      "chip": "ym2612"
    },
    {
      "channel": 0,
      "note": 63,
      "start": 33.3652,
      "duration": 0.2044,
      "velocity": 95,
      "chip": "ym2612"
    },
    {
      "channel": 2,
      "note": 68,
      "start": 33.3678,
      "duration": 0.2956,
      "velocity": 99,
      "chip": "ym2612"
    },
    {
      "channel": 3,
      "note": 47,
      "start": 33.3684,
      "duration": 0.09,
      "velocity": 127,
      "chip": "ym2612"
    },
    {
      "channel": 4,
      "note": 51,
      "start": 33.3693,
      "duration": 0.2015,
      "velocity": 91,
      "chip": "ym2612"
    },
    {
      "channel": 3,
      "note": 47,
      "start": 33.4773,
      "duration": 0.0931,
      "velocity": 127,
      "chip": "ym2612"
    },
    {
      "channel": 0,
      "note": 63,
      "start": 33.5885,
      "duration": 0.2049,
      "velocity": 95,
      "chip": "ym2612"
    },
    {
      "channel": 3,
      "note": 47,
      "start": 33.592,
      "duration": 0.0906,
      "velocity": 127,
      "chip": "ym2612"
    },
    {
      "channel": 4,
      "note": 51,
      "start": 33.5927,
      "duration": 0.2019,
      "velocity": 91,
      "chip": "ym2612"
    },
    {
      "channel": 2,
      "note": 68,
      "start": 33.6658,
      "duration": 0.1473,
      "velocity": 99,
      "chip": "ym2612"
    },
    {
      "channel": 3,
      "note": 47,
      "start": 33.7036,
      "duration": 0.0906,
      "velocity": 127,
      "chip": "ym2612"
    },
    {
      "channel": 0,
      "note": 63,
      "start": 33.8125,
      "duration": 0.2049,
      "velocity": 95,
      "chip": "ym2612"
    },
    {
      "channel": 2,
      "note": 65,
      "start": 33.8155,
      "duration": 0.2956,
      "velocity": 99,
      "chip": "ym2612"
    },
    {
      "channel": 3,
      "note": 47,
      "start": 33.8186,
      "duration": 0.0876,
      "velocity": 127,
      "chip": "ym2612"
    },
    {
      "channel": 4,
      "note": 51,
      "start": 33.8192,
      "duration": 0.1994,
      "velocity": 91,
      "chip": "ym2612"
    },
    {
      "channel": 3,
      "note": 47,
      "start": 33.9275,
      "duration": 0.0908,
      "velocity": 127,
      "chip": "ym2612"
    },
    {
      "channel": 0,
      "note": 63,
      "start": 34.0364,
      "duration": 0.2049,
      "velocity": 95,
      "chip": "ym2612"
    },
    {
      "channel": 3,
      "note": 47,
      "start": 34.0399,
      "duration": 0.0903,
      "velocity": 127,
      "chip": "ym2612"
    },
    {
      "channel": 4,
      "note": 51,
      "start": 34.0406,
      "duration": 0.2019,
      "velocity": 91,
      "chip": "ym2612"
    },
    {
      "channel": 2,
      "note": 65,
      "start": 34.1132,
      "duration": 0.1484,
      "velocity": 99,
      "chip": "ym2612"
    },
    {
      "channel": 3,
      "note": 47,
      "start": 34.1518,
      "duration": 0.0903,
      "velocity": 127,
      "chip": "ym2612"
    },
    {
      "channel": 0,
      "note": 60,
      "start": 34.2606,
      "duration": 0.2048,
      "velocity": 95,
      "chip": "ym2612"
    },
    {
      "channel": 1,
      "note": 82,
      "start": 34.2612,
      "duration": 0.2975,
      "velocity": 99,
      "chip": "ym2612"
    },
    {
      "channel": 2,
      "note": 66,
      "start": 34.2637,
      "duration": 1.7908,
      "velocity": 99,
      "chip": "ym2612"
    },
    {
      "channel": 3,
      "note": 47,
      "start": 34.2674,
      "duration": 0.0866,
      "velocity": 127,
      "chip": "ym2612"
    },
    {
      "channel": 4,
      "note": 51,
      "start": 34.2683,
      "duration": 0.1981,
      "velocity": 91,
      "chip": "ym2612"
    },
    {
      "channel": 3,
      "note": 47,
      "start": 34.3753,
      "duration": 0.0908,
      "velocity": 127,
      "chip": "ym2612"
    },
    {
      "channel": 0,
      "note": 60,
      "start": 34.4842,
      "duration": 0.2049,
      "velocity": 95,
      "chip": "ym2612"
    },
    {
      "channel": 3,
      "note": 47,
      "start": 34.4853,
      "duration": 0.0926,
      "velocity": 127,
      "chip": "ym2612"
    },
    {
      "channel": 4,
      "note": 48,
      "start": 34.486,
      "duration": 0.2043,
      "velocity": 91,
      "chip": "ym2612"
    },
    {
      "channel": 1,
      "note": 82,
      "start": 34.5607,
      "duration": 0.1476,
      "velocity": 99,
      "chip": "ym2612"
    },
    {
      "channel": 3,
      "note": 47,
      "start": 34.5968,
      "duration": 0.0932,
      "velocity": 127,
      "chip": "ym2612"
    },
    {
      "channel": 0,
      "note": 60,
      "start": 34.7081,
      "duration": 0.205,
      "velocity": 95,
      "chip": "ym2612"
    },
    {
      "channel": 1,
      "note": 85,
      "start": 34.7104,
      "duration": 0.2961,
      "velocity": 99,
      "chip": "ym2612"
    },
    {
      "channel": 3,
      "note": 47,
      "start": 34.7137,
      "duration": 0.2001,
      "velocity": 127,
      "chip": "ym2612"
    },
    {
      "channel": 4,
      "note": 48,
      "start": 34.7144,
      "duration": 0.1998,
      "velocity": 91,
      "chip": "ym2612"
    },
    {
      "channel": 0,
      "note": 60,
      "start": 34.9322,
      "duration": 0.2047,
      "velocity": 95,
      "chip": "ym2612"
    },
    {
      "channel": 3,
      "note": 47,
      "start": 34.9357,
      "duration": 0.09,
      "velocity": 127,
      "chip": "ym2612"
    },
    {
      "channel": 4,
      "note": 48,
      "start": 34.9364,
      "duration": 0.2017,
      "velocity": 91,
      "chip": "ym2612"
    },
    {
      "channel": 1,
      "note": 85,
      "start": 35.0085,
      "duration": 0.1479,
      "velocity": 99,
      "chip": "ym2612"
    },
    {
      "channel": 3,
      "note": 47,
      "start": 35.0446,
      "duration": 0.0931,
      "velocity": 127,
      "chip": "ym2612"
    },
    {
      "channel": 0,
      "note": 60,
      "start": 35.156,
      "duration": 0.2048,
      "velocity": 95,
      "chip": "ym2612"
    },
    {
      "channel": 1,
      "note": 84,
      "start": 35.1584,
      "duration": 0.296,
      "velocity": 99,
      "chip": "ym2612"
    },
    {
      "channel": 3,
      "note": 47,
      "start": 35.1593,
      "duration": 0.0904,
      "velocity": 127,
      "chip": "ym2612"
    },
    {
      "channel": 4,
      "note": 48,
      "start": 35.1601,
      "duration": 0.2019,
      "velocity": 91,
      "chip": "ym2612"
    },
    {
      "channel": 3,
      "note": 47,
      "start": 35.2686,
      "duration": 0.0931,
      "velocity": 127,
      "chip": "ym2612"
    },
    {
      "channel": 0,
      "note": 60,
      "start": 35.3798,
      "duration": 0.205,
      "velocity": 95,
      "chip": "ym2612"
    },
    {
      "channel": 3,
      "note": 47,
      "start": 35.3837,
      "duration": 0.0899,
      "velocity": 127,
      "chip": "ym2612"
    },
    {
      "channel": 4,
      "note": 48,
      "start": 35.3844,
      "duration": 0.2015,
      "velocity": 91,
      "chip": "ym2612"
    },
    {
      "channel": 1,
      "note": 84,
      "start": 35.4563,
      "duration": 0.1477,
      "velocity": 99,
      "chip": "ym2612"
    },
    {
      "channel": 3,
      "note": 47,
      "start": 35.4949,
      "duration": 0.0908,
      "velocity": 127,
      "chip": "ym2612"
    },
    {
      "channel": 0,
      "note": 60,
      "start": 35.6037,
      "duration": 0.2049,
      "velocity": 95,
      "chip": "ym2612"
    },
    {
      "channel": 1,
      "note": 82,
      "start": 35.6061,
      "duration": 0.2961,
      "velocity": 99,
      "chip": "ym2612"
    },
    {
      "channel": 3,
      "note": 47,
      "start": 35.6094,
      "duration": 0.0881,
      "velocity": 127,
      "chip": "ym2612"
    },
    {
      "channel": 4,
      "note": 48,
      "start": 35.61,
      "duration": 0.1998,
      "velocity": 91,
      "chip": "ym2612"
    },
    {
      "channel": 3,
      "note": 47,
      "start": 35.7188,
      "duration": 0.0907,
      "velocity": 127,
      "chip": "ym2612"
    },
    {
      "channel": 0,
      "note": 60,
      "start": 35.8277,
      "duration": 0.2049,
      "velocity": 95,
      "chip": "ym2612"
    },
    {
      "channel": 3,
      "note": 47,
      "start": 35.8314,
      "duration": 0.09,
      "velocity": 127,
      "chip": "ym2612"
    },
    {
      "channel": 4,
      "note": 48,
      "start": 35.8323,
      "duration": 0.2014,
      "velocity": 91,
      "chip": "ym2612"
    },
    {
      "channel": 1,
      "note": 82,
      "start": 35.9042,
      "duration": 0.148,
      "velocity": 99,
      "chip": "ym2612"
    },
    {
      "channel": 3,
      "note": 47,
      "start": 35.9427,
      "duration": 0.0907,
      "velocity": 127,
      "chip": "ym2612"
    },
    {
      "channel": 0,
      "note": 65,
      "start": 36.0518,
      "duration": 0.2046,
      "velocity": 95,
      "chip": "ym2612"
    },
    {
      "channel": 1,
      "note": 89,
      "start": 36.0541,
      "duration": 0.8936,
      "velocity": 99,
      "chip": "ym2612"
    },
    {
      "channel": 2,
      "note": 70,
      "start": 36.0548,
      "duration": 0.894,
      "velocity": 99,
      "chip": "ym2612"
    },
    {
      "channel": 3,
      "note": 47,
      "start": 36.058,
      "duration": 0.0873,
      "velocity": 127,
      "chip": "ym2612"
    },
    {
      "channel": 4,
      "note": 48,
      "start": 36.0589,
      "duration": 0.8705,
      "velocity": 91,
      "chip": "ym2612"
    },
    {
      "channel": 3,
      "note": 47,
      "start": 36.167,
      "duration": 0.0903,
      "velocity": 127,
      "chip": "ym2612"
    },
    {
      "channel": 0,
      "note": 65,
      "start": 36.2754,
      "duration": 0.205,
      "velocity": 95,
      "chip": "ym2612"
    },
    {
      "channel": 3,
      "note": 47,
      "start": 36.2765,
      "duration": 0.0926,
      "velocity": 127,
      "chip": "ym2612"
    },
    {
      "channel": 3,
      "note": 47,
      "start": 36.388,
      "duration": 0.0934,
      "velocity": 127,
      "chip": "ym2612"
    },
    {
      "channel": 0,
      "note": 65,
      "start": 36.4994,
      "duration": 0.205,
      "velocity": 95,
      "chip": "ym2612"
    },
    {
      "channel": 3,
      "note": 47,
      "start": 36.503,
      "duration": 0.2022,
      "velocity": 127,
      "chip": "ym2612"
    },
    {
      "channel": 0,
      "note": 65,
      "start": 36.7233,
      "duration": 0.2049,
      "velocity": 95,
      "chip": "ym2612"
    },
    {
      "channel": 3,
      "note": 47,
      "start": 36.7268,
      "duration": 0.0902,
      "velocity": 127,
      "chip": "ym2612"
    },
    {
      "channel": 3,
      "note": 47,
      "start": 36.8359,
      "duration": 0.0931,
      "velocity": 127,
      "chip": "ym2612"
    },
    {
      "channel": 0,
      "note": 65,
      "start": 36.9473,
      "duration": 0.2048,
      "velocity": 95,
      "chip": "ym2612"
    },
    {
      "channel": 1,
      "note": 77,
      "start": 36.9482,
      "duration": 0.5365,
      "velocity": 99,
      "chip": "ym2612"
    },
    {
      "channel": 2,
      "note": 69,
      "start": 36.9489,
      "duration": 0.5363,
      "velocity": 99,
      "chip": "ym2612"
    },
    {
      "channel": 3,
      "note": 47,
      "start": 36.9495,
      "duration": 0.0914,
      "velocity": 127,
      "chip": "ym2612"
    },
    {
      "channel": 4,
      "note": 53,
      "start": 36.9504,
      "duration": 0.5315,
      "velocity": 91,
      "chip": "ym2612"
    },
    {
      "channel": 3,
      "note": 47,
      "start": 37.0598,
      "duration": 0.0931,
      "velocity": 127,
      "chip": "ym2612"
    },
    {
      "channel": 0,
      "note": 65,
      "start": 37.1711,
      "duration": 0.2049,
      "velocity": 95,
      "chip": "ym2612"
    },
    {
      "channel": 3,
      "note": 47,
      "start": 37.1746,
      "duration": 0.0906,
      "velocity": 127,
      "chip": "ym2612"
    },
    {
      "channel": 3,
      "note": 47,
      "start": 37.2861,
      "duration": 0.0907,
      "velocity": 127,
      "chip": "ym2612"
    },
    {
      "channel": 0,
      "note": 65,
      "start": 37.395,
      "duration": 0.0411,
      "velocity": 95,
      "chip": "ym2612"
    },
    {
      "channel": 3,
      "note": 47,
      "start": 37.399,
      "duration": 0.0157,
      "velocity": 127,
      "chip": "ym2612"
    },
    {
      "channel": 3,
      "note": 47,
      "start": 37.4205,
      "duration": 0.0165,
      "velocity": 127,
      "chip": "ym2612"
    },
    {
      "channel": 0,
      "note": 65,
      "start": 37.4397,
      "duration": 0.041,
      "velocity": 95,
      "chip": "ym2612"
    },
    {
      "channel": 3,
      "note": 47,
      "start": 37.4432,
      "duration": 0.0154,
      "velocity": 127,
      "chip": "ym2612"
    },
    {
      "channel": 3,
      "note": 47,
      "start": 37.4657,
      "duration": 0.0158,
      "velocity": 127,
      "chip": "ym2612"
    },
    {
      "channel": 0,
      "note": 70,
      "start": 37.4843,
      "duration": 0.0344,
      "velocity": 95,
      "chip": "ym2612"
    },
    {
      "channel": 1,
      "note": 82,
      "start": 37.4849,
      "duration": 0.0545,
      "velocity": 99,
      "chip": "ym2612"
    },
    {
      "channel": 2,
      "note": 70,
      "start": 37.4855,
      "duration": 0.0583,
      "velocity": 99,
      "chip": "ym2612"
    },
    {
      "channel": 3,
      "note": 47,
      "start": 37.4863,
      "duration": 0.0759,
      "velocity": 127,
      "chip": "ym2612"
    },
    {
      "channel": 4,
      "note": 53,
      "start": 37.4872,
      "duration": 0.033,
      "velocity": 91,
      "chip": "ym2612"
    },
    {
      "channel": 0,
      "note": 70,
      "start": 37.5223,
      "duration": 0.0391,
      "velocity": 95,
      "chip": "ym2612"
    },
    {
      "channel": 4,
      "note": 58,
      "start": 37.5237,
      "duration": 0.0388,
      "velocity": 91,
      "chip": "ym2612"
    },
    {
      "channel": 1,
      "note": 82,
      "start": 37.5435,
      "duration": 0.0216,
      "velocity": 107,
      "chip": "ym2612"
    },
    {
      "channel": 0,
      "note": 70,
      "start": 37.5647,
      "duration": 0.0908,
      "velocity": 95,
      "chip": "ym2612"
    },
    {
      "channel": 1,
      "note": 77,
      "start": 37.5653,
      "duration": 0.221,
      "velocity": 107,
      "chip": "ym2612"
    },
    {
      "channel": 4,
      "note": 58,
      "start": 37.5715,
      "duration": 0.085,
      "velocity": 91,
      "chip": "ym2612"
    },
    {
      "channel": 2,
      "note": 82,
      "start": 37.5807,
      "duration": 0.0379,
      "velocity": 107,
      "chip": "ym2612"
    },
    {
      "channel": 2,
      "note": 77,
      "start": 37.6188,
      "duration": 0.3356,
      "velocity": 107,
      "chip": "ym2612"
    },
    {
      "channel": 3,
      "note": 47,
      "start": 37.6195,
      "duration": 0.0927,
      "velocity": 107,
      "chip": "ym2612"
    },
    {
      "channel": 0,
      "note": 70,
      "start": 37.6746,
      "duration": 0.2047,
      "velocity": 95,
      "chip": "ym2612"
    },
    {
      "channel": 4,
      "note": 58,
      "start": 37.6763,
      "duration": 0.2041,
      "velocity": 91,
      "chip": "ym2612"
    },
    {
      "channel": 3,
      "note": 82,
      "start": 37.7311,
      "duration": 0.317,
      "velocity": 107,
      "chip": "ym2612"
    },
    {
      "channel": 1,
      "note": 82,
      "start": 37.7882,
      "duration": 0.1106,
      "velocity": 107,
      "chip": "ym2612"
    },
    {
      "channel": 0,
      "note": 70,
      "start": 37.8985,
      "duration": 0.2048,
      "velocity": 95,
      "chip": "ym2612"
    },
    {
      "channel": 1,
      "note": 77,
      "start": 37.8991,
      "duration": 0.3351,
      "velocity": 107,
      "chip": "ym2612"
    },
    {
      "channel": 4,
      "note": 58,
      "start": 37.9003,
      "duration": 0.2041,
      "velocity": 91,
      "chip": "ym2612"
    },
    {
      "channel": 2,
      "note": 82,
      "start": 37.9563,
      "duration": 0.1101,
      "velocity": 107,
      "chip": "ym2612"
    },
    {
      "channel": 2,
      "note": 77,
      "start": 38.0667,
      "duration": 0.3356,
      "velocity": 107,
      "chip": "ym2612"
    },
    {
      "channel": 3,
      "note": 77,
      "start": 38.0697,
      "duration": 0.0903,
      "velocity": 107,
      "chip": "ym2612"
    },
    {
      "channel": 0,
      "note": 70,
      "start": 38.1222,
      "duration": 0.205,
      "velocity": 95,
      "chip": "ym2612"
    },
    {
      "channel": 4,
      "note": 58,
      "start": 38.1236,
      "duration": 0.2046,
      "velocity": 91,
      "chip": "ym2612"
    },
    {
      "channel": 3,
      "note": 82,
      "start": 38.1789,
      "duration": 0.3169,
      "velocity": 107,
      "chip": "ym2612"
    },
    {
      "channel": 1,
      "note": 82,
      "start": 38.236,
      "duration": 0.1105,
      "velocity": 107,
      "chip": "ym2612"
    },
    {
      "channel": 0,
      "note": 70,
      "start": 38.3461,
      "duration": 0.205,
      "velocity": 95,
      "chip": "ym2612"
    },
    {
      "channel": 1,
      "note": 77,
      "start": 38.3468,
      "duration": 0.3352,
      "velocity": 107,
      "chip": "ym2612"
    },
    {
      "channel": 4,
      "note": 58,
      "start": 38.3479,
      "duration": 0.2043,
      "velocity": 91,
      "chip": "ym2612"
    },
    {
      "channel": 2,
      "note": 82,
      "start": 38.4041,
      "duration": 0.1101,
      "velocity": 107,
      "chip": "ym2612"
    },
    {
      "channel": 2,
      "note": 77,
      "start": 38.5145,
      "duration": 0.3356,
      "velocity": 107,
      "chip": "ym2612"
    },
    {
      "channel": 3,
      "note": 77,
      "start": 38.5175,
      "duration": 0.0905,
      "velocity": 107,
      "chip": "ym2612"
    },
    {
      "channel": 0,
      "note": 70,
      "start": 38.5701,
      "duration": 0.2051,
      "velocity": 95,
      "chip": "ym2612"
    },
    {
      "channel": 4,
      "note": 58,
      "start": 38.5715,
      "duration": 0.2049,
      "velocity": 91,
      "chip": "ym2612"
    },
    {
      "channel": 3,
      "note": 82,
      "start": 38.6267,
      "duration": 0.317,
      "velocity": 107,
      "chip": "ym2612"
    },
    {
      "channel": 1,
      "note": 82,
      "start": 38.6838,
      "duration": 0.1107,
      "velocity": 107,
      "chip": "ym2612"
    },
    {
      "channel": 0,
      "note": 70,
      "start": 38.7941,
      "duration": 0.2048,
      "velocity": 95,
      "chip": "ym2612"
    },
    {
      "channel": 1,
      "note": 77,
      "start": 38.7947,
      "duration": 0.3351,
      "velocity": 107,
      "chip": "ym2612"
    },
    {
      "channel": 4,
      "note": 58,
      "start": 38.796,
      "duration": 0.204,
      "velocity": 91,
      "chip": "ym2612"
    },
    {
      "channel": 2,
      "note": 82,
      "start": 38.852,
      "duration": 0.11,
      "velocity": 107,
      "chip": "ym2612"
    },
    {
      "channel": 2,
      "note": 77,
      "start": 38.9623,
      "duration": 0.3357,
      "velocity": 107,
      "chip": "ym2612"
    },
    {
      "channel": 3,
      "note": 77,
      "start": 38.9654,
      "duration": 0.0903,
      "velocity": 107,
      "chip": "ym2612"
    },
    {
      "channel": 0,
      "note": 70,
      "start": 39.0179,
      "duration": 0.2049,
      "velocity": 95,
      "chip": "ym2612"
    },
    {
      "channel": 4,
      "note": 58,
      "start": 39.0193,
      "duration": 0.2046,
      "velocity": 91,
      "chip": "ym2612"
    },
    {
      "channel": 3,
      "note": 82,
      "start": 39.075,
      "duration": 0.317,
      "velocity": 107,
      "chip": "ym2612"
    },
    {
      "channel": 1,
      "note": 82,
      "start": 39.1316,
      "duration": 0.1107,
      "velocity": 107,
      "chip": "ym2612"
    },
    {
      "channel": 0,
      "note": 70,
      "start": 39.2421,
      "duration": 0.2047,
      "velocity": 95,
      "chip": "ym2612"
    },
    {
      "channel": 1,
      "note": 77,
      "start": 39.2427,
      "duration": 0.3349,
      "velocity": 107,
      "chip": "ym2612"
    },
    {
      "channel": 4,
      "note": 58,
      "start": 39.2438,
      "duration": 0.2041,
      "velocity": 91,
      "chip": "ym2612"
    },
    {
      "channel": 2,
      "note": 82,
      "start": 39.2998,
      "duration": 0.11,
      "velocity": 107,
      "chip": "ym2612"
    },
    {
      "channel": 2,
      "note": 77,
      "start": 39.4101,
      "duration": 0.3356,
      "velocity": 107,
      "chip": "ym2612"
    },
    {
      "channel": 3,
      "note": 77,
      "start": 39.4131,
      "duration": 0.0903,
      "velocity": 107,
      "chip": "ym2612"
    },
    {
      "channel": 0,
      "note": 70,
      "start": 39.4657,
      "duration": 0.2049,
      "velocity": 95,
      "chip": "ym2612"
    },
    {
      "channel": 4,
      "note": 58,
      "start": 39.4671,
      "duration": 0.2046,
      "velocity": 91,
      "chip": "ym2612"
    },
    {
      "channel": 3,
      "note": 82,
      "start": 39.5224,
      "duration": 0.3169,
      "velocity": 107,
      "chip": "ym2612"
    },
    {
      "channel": 1,
      "note": 82,
      "start": 39.5795,
      "duration": 0.1106,
      "velocity": 107,
      "chip": "ym2612"
    },
    {
      "channel": 0,
      "note": 70,
      "start": 39.6898,
      "duration": 0.2048,
      "velocity": 95,
      "chip": "ym2612"
    },
    {
      "channel": 1,
      "note": 77,
      "start": 39.6904,
      "duration": 0.4474,
      "velocity": 107,
      "chip": "ym2612"
    },
    {
      "channel": 4,
      "note": 58,
      "start": 39.6921,
      "duration": 0.2035,
      "velocity": 91,
      "chip": "ym2612"
    },
    {
      "channel": 2,
      "note": 82,
      "start": 39.7477,
      "duration": 0.1101,
      "velocity": 107,
      "chip": "ym2612"
    },
    {
      "channel": 2,
      "note": 77,
      "start": 39.8584,
      "duration": 0.4471,
      "velocity": 107,
      "chip": "ym2612"
    },
    {
      "channel": 3,
      "note": 77,
      "start": 39.8615,
      "duration": 0.0898,
      "velocity": 107,
      "chip": "ym2612"
    },
    {
      "channel": 0,
      "note": 70,
      "start": 39.9136,
      "duration": 0.2049,
      "velocity": 95,
      "chip": "ym2612"
    },
    {
      "channel": 4,
      "note": 58,
      "start": 39.915,
      "duration": 0.2046,
      "velocity": 91,
      "chip": "ym2612"
    },
    {
      "channel": 3,
      "note": 82,
      "start": 39.9702,
      "duration": 0.429,
      "velocity": 107,
      "chip": "ym2612"
    },
    {
      "channel": 0,
      "note": 70,
      "start": 40.1374,
      "duration": 0.2049,
      "velocity": 95,
      "chip": "ym2612"
    },
    {
      "channel": 4,
      "note": 58,
      "start": 40.139,
      "duration": 0.2044,
      "velocity": 91,
      "chip": "ym2612"
    },
    {
      "channel": 0,
      "note": 70,
      "start": 40.3614,
      "duration": 0.2049,
      "velocity": 95,
      "chip": "ym2612"
    },
    {
      "channel": 4,
      "note": 58,
      "start": 40.3628,
      "duration": 0.2046,
      "velocity": 91,
      "chip": "ym2612"
    },
    {
      "channel": 0,
      "note": 70,
      "start": 40.5893,
      "duration": 0.2009,
      "velocity": 95,
      "chip": "ym2612"
    },
    {
      "channel": 3,
      "note": 77,
      "start": 40.6041,
      "duration": 0.0749,
      "velocity": 94,
      "chip": "ym2612"
    },
    {
      "channel": 4,
      "note": 58,
      "start": 40.6107,
      "duration": 0.1811,
      "velocity": 91,
      "chip": "ym2612"
    },
    {
      "channel": 3,
      "note": 33,
      "start": 40.6979,
      "duration": 0.0931,
      "velocity": 94,
      "chip": "ym2612"
    },
    {
      "channel": 0,
      "note": 70,
      "start": 40.8092,
      "duration": 0.205,
      "velocity": 95,
      "chip": "ym2612"
    },
    {
      "channel": 3,
      "note": 33,
      "start": 40.8103,
      "duration": 0.0926,
      "velocity": 94,
      "chip": "ym2612"
    },
    {
      "channel": 4,
      "note": 58,
      "start": 40.811,
      "duration": 0.2044,
      "velocity": 91,
      "chip": "ym2612"
    },
    {
      "channel": 3,
      "note": 33,
      "start": 40.9218,
      "duration": 0.0931,
      "velocity": 94,
      "chip": "ym2612"
    },
    {
      "channel": 0,
      "note": 70,
      "start": 41.0331,
      "duration": 0.205,
      "velocity": 95,
      "chip": "ym2612"
    },
    {
      "channel": 3,
      "note": 33,
      "start": 41.0342,
      "duration": 0.0926,
      "velocity": 94,
      "chip": "ym2612"
    },
    {
      "channel": 4,
      "note": 58,
      "start": 41.0349,
      "duration": 0.2043,
      "velocity": 91,
      "chip": "ym2612"
    },
    {
      "channel": 3,
      "note": 33,
      "start": 41.1458,
      "duration": 0.0931,
      "velocity": 94,
      "chip": "ym2612"
    },
    {
      "channel": 0,
      "note": 70,
      "start": 41.257,
      "duration": 0.2049,
      "velocity": 95,
      "chip": "ym2612"
    },
    {
      "channel": 3,
      "note": 33,
      "start": 41.2586,
      "duration": 0.0922,
      "velocity": 94,
      "chip": "ym2612"
    },
    {
      "channel": 4,
      "note": 58,
      "start": 41.2593,
      "duration": 0.2038,
      "velocity": 91,
      "chip": "ym2612"
    },
    {
      "channel": 3,
      "note": 33,
      "start": 41.3697,
      "duration": 0.0931,
      "velocity": 94,
      "chip": "ym2612"
    },
    {
      "channel": 0,
      "note": 70,
      "start": 41.4811,
      "duration": 0.2048,
      "velocity": 95,
      "chip": "ym2612"
    },
    {
      "channel": 3,
      "note": 33,
      "start": 41.4822,
      "duration": 0.0931,
      "velocity": 94,
      "chip": "ym2612"
    },
    {
      "channel": 4,
      "note": 58,
      "start": 41.483,
      "duration": 0.2041,
      "velocity": 91,
      "chip": "ym2612"
    },
    {
      "channel": 3,
      "note": 33,
      "start": 41.5936,
      "duration": 0.0931,
      "velocity": 94,
      "chip": "ym2612"
    },
    {
      "channel": 0,
      "note": 70,
      "start": 41.7049,
      "duration": 0.2049,
      "velocity": 95,
      "chip": "ym2612"
    },
    {
      "channel": 3,
      "note": 33,
      "start": 41.706,
      "duration": 0.0926,
      "velocity": 94,
      "chip": "ym2612"
    },
    {
      "channel": 4,
      "note": 58,
      "start": 41.7067,
      "duration": 0.2043,
      "velocity": 91,
      "chip": "ym2612"
    },
    {
      "channel": 3,
      "note": 33,
      "start": 41.8175,
      "duration": 0.0931,
      "velocity": 94,
      "chip": "ym2612"
    },
    {
      "channel": 0,
      "note": 70,
      "start": 41.9288,
      "duration": 0.2049,
      "velocity": 95,
      "chip": "ym2612"
    },
    {
      "channel": 3,
      "note": 33,
      "start": 41.9299,
      "duration": 0.0926,
      "velocity": 94,
      "chip": "ym2612"
    },
    {
      "channel": 4,
      "note": 58,
      "start": 41.9306,
      "duration": 0.2044,
      "velocity": 91,
      "chip": "ym2612"
    },
    {
      "channel": 3,
      "note": 33,
      "start": 42.0419,
      "duration": 0.0927,
      "velocity": 94,
      "chip": "ym2612"
    },
    {
      "channel": 0,
      "note": 70,
      "start": 42.1526,
      "duration": 0.205,
      "velocity": 95,
      "chip": "ym2612"
    },
    {
      "channel": 1,
      "note": 70,
      "start": 42.1549,
      "duration": 0.1656,
      "velocity": 90,
      "chip": "ym2612"
    },
    {
      "channel": 2,
      "note": 65,
      "start": 42.1571,
      "duration": 0.1658,
      "velocity": 90,
      "chip": "ym2612"
    },
    {
      "channel": 3,
      "note": 33,
      "start": 42.1577,
      "duration": 0.0887,
      "velocity": 94,
      "chip": "ym2612"
    },
    {
      "channel": 4,
      "note": 58,
      "start": 42.1588,
      "duration": 0.2004,
      "velocity": 91,
      "chip": "ym2612"
    },
    {
      "channel": 3,
      "note": 33,
      "start": 42.2653,
      "duration": 0.0935,
      "velocity": 94,
      "chip": "ym2612"
    },
    {
      "channel": 1,
      "note": 70,
      "start": 42.3225,
      "duration": 0.166,
      "velocity": 90,
      "chip": "ym2612"
    },
    {
      "channel": 2,
      "note": 65,
      "start": 42.3253,
      "duration": 0.1635,
      "velocity": 90,
      "chip": "ym2612"
    },
    {
      "channel": 0,
      "note": 70,
      "start": 42.3767,
      "duration": 0.2047,
      "velocity": 95,
      "chip": "ym2612"
    },
    {
      "channel": 3,
      "note": 33,
      "start": 42.378,
      "duration": 0.0923,
      "velocity": 94,
      "chip": "ym2612"
    },
    {
      "channel": 4,
      "note": 58,
      "start": 42.3788,
      "duration": 0.2038,
      "velocity": 91,
      "chip": "ym2612"
    },
    {
      "channel": 3,
      "note": 33,
      "start": 42.4895,
      "duration": 0.0927,
      "velocity": 94,
      "chip": "ym2612"
    },
    {
      "channel": 0,
      "note": 70,
      "start": 42.6005,
      "duration": 0.205,
      "velocity": 95,
      "chip": "ym2612"
    },
    {
      "channel": 3,
      "note": 33,
      "start": 42.6015,
      "duration": 0.0926,
      "velocity": 94,
      "chip": "ym2612"
    },
    {
      "channel": 4,
      "note": 58,
      "start": 42.6022,
      "duration": 0.2043,
      "velocity": 91,
      "chip": "ym2612"
    },
    {
      "channel": 3,
      "note": 33,
      "start": 42.7131,
      "duration": 0.0931,
      "velocity": 94,
      "chip": "ym2612"
    },
    {
      "channel": 0,
      "note": 70,
      "start": 42.8244,
      "duration": 0.2049,
      "velocity": 95,
      "chip": "ym2612"
    },
    {
      "channel": 1,
      "note": 70,
      "start": 42.8271,
      "duration": 0.1651,
      "velocity": 90,
      "chip": "ym2612"
    },
    {
      "channel": 2,
      "note": 65,
      "start": 42.8294,
      "duration": 0.1651,
      "velocity": 90,
      "chip": "ym2612"
    },
    {
      "channel": 3,
      "note": 33,
      "start": 42.83,
      "duration": 0.088,
      "velocity": 94,
      "chip": "ym2612"
    },
    {
      "channel": 4,
      "note": 58,
      "start": 42.8307,
      "duration": 0.1997,
      "velocity": 91,
      "chip": "ym2612"
    },
    {
      "channel": 3,
      "note": 33,
      "start": 42.937,
      "duration": 0.0931,
      "velocity": 94,
      "chip": "ym2612"
    },
    {
      "channel": 1,
      "note": 70,
      "start": 42.9942,
      "duration": 0.1659,
      "velocity": 90,
      "chip": "ym2612"
    },
    {
      "channel": 2,
      "note": 65,
      "start": 42.9965,
      "duration": 0.1641,
      "velocity": 90,
      "chip": "ym2612"
    },
    {
      "channel": 0,
      "note": 70,
      "start": 43.0483,
      "duration": 0.2049,
      "velocity": 95,
      "chip": "ym2612"
    },
    {
      "channel": 3,
      "note": 33,
      "start": 43.0494,
      "duration": 0.0931,
      "velocity": 94,
      "chip": "ym2612"
    },
    {
      "channel": 4,
      "note": 58,
      "start": 43.0501,
      "duration": 0.2043,
      "velocity": 91,
      "chip": "ym2612"
    },
    {
      "channel": 3,
      "note": 33,
      "start": 43.1613,
      "duration": 0.0927,
      "velocity": 94,
      "chip": "ym2612"
    },
    {
      "channel": 0,
      "note": 70,
      "start": 43.2724,
      "duration": 0.2048,
      "velocity": 95,
      "chip": "ym2612"
    },
    {
      "channel": 3,
      "note": 33,
      "start": 43.2734,
      "duration": 0.0925,
      "velocity": 94,
      "chip": "ym2612"
    },
    {
      "channel": 4,
      "note": 58,
      "start": 43.2743,
      "duration": 0.2041,
      "velocity": 91,
      "chip": "ym2612"
    },
    {
      "channel": 3,
      "note": 33,
      "start": 43.3848,
      "duration": 0.0931,
      "velocity": 94,
      "chip": "ym2612"
    },
    {
      "channel": 0,
      "note": 70,
      "start": 43.4961,
      "duration": 0.2049,
      "velocity": 95,
      "chip": "ym2612"
    },
    {
      "channel": 1,
      "note": 71,
      "start": 43.4984,
      "duration": 0.222,
      "velocity": 90,
      "chip": "ym2612"
    },
    {
      "channel": 2,
      "note": 66,
      "start": 43.5008,
      "duration": 0.2202,
      "velocity": 90,
      "chip": "ym2612"
    },
    {
      "channel": 3,
      "note": 33,
      "start": 43.5014,
      "duration": 0.0884,
      "velocity": 94,
      "chip": "ym2612"
    },
    {
      "channel": 4,
      "note": 58,
      "start": 43.5021,
      "duration": 0.2,
      "velocity": 91,
      "chip": "ym2612"
    },
    {
      "channel": 3,
      "note": 33,
      "start": 43.6091,
      "duration": 0.0927,
      "velocity": 94,
      "chip": "ym2612"
    },
    {
      "channel": 0,
      "note": 70,
      "start": 43.7201,
      "duration": 0.2051,
      "velocity": 95,
      "chip": "ym2612"
    },
    {
      "channel": 1,
      "note": 73,
      "start": 43.7206,
      "duration": 0.2236,
      "velocity": 90,
      "chip": "ym2612"
    },
    {
      "channel": 2,
      "note": 68,
      "start": 43.7212,
      "duration": 0.2237,
      "velocity": 90,
      "chip": "ym2612"
    },
    {
      "channel": 3,
      "note": 33,
      "start": 43.7218,
      "duration": 0.0919,
      "velocity": 94,
      "chip": "ym2612"
    },
    {
      "channel": 4,
      "note": 58,
      "start": 43.7225,
      "duration": 0.2038,
      "velocity": 91,
      "chip": "ym2612"
    },
    {
      "channel": 3,
      "note": 33,
      "start": 43.8327,
      "duration": 0.0933,
      "velocity": 94,
      "chip": "ym2612"
    },
    {
      "channel": 0,
      "note": 70,
      "start": 43.9439,
      "duration": 0.205,
      "velocity": 95,
      "chip": "ym2612"
    },
    {
      "channel": 1,
      "note": 70,
      "start": 43.9445,
      "duration": 0.2239,
      "velocity": 90,
      "chip": "ym2612"
    },
    {
      "channel": 2,
      "note": 65,
      "start": 43.9451,
      "duration": 0.2237,
      "velocity": 90,
      "chip": "ym2612"
    },
    {
      "channel": 3,
      "note": 33,
      "start": 43.9457,
      "duration": 0.0919,
      "velocity": 94,
      "chip": "ym2612"
    },
    {
      "channel": 4,
      "note": 58,
      "start": 43.9464,
      "duration": 0.2036,
      "velocity": 91,
      "chip": "ym2612"
    },
    {
      "channel": 3,
      "note": 33,
      "start": 44.0566,
      "duration": 0.0931,
      "velocity": 94,
      "chip": "ym2612"
    },
    {
      "channel": 0,
      "note": 70,
      "start": 44.168,
      "duration": 0.2047,
      "velocity": 95,
      "chip": "ym2612"
    },
    {
      "channel": 3,
      "note": 33,
      "start": 44.1695,
      "duration": 0.092,
      "velocity": 94,
      "chip": "ym2612"
    },
    {
      "channel": 4,
      "note": 58,
      "start": 44.1704,
      "duration": 0.2035,
      "velocity": 91,
      "chip": "ym2612"
    },
    {
      "channel": 3,
      "note": 33,
      "start": 44.2805,
      "duration": 0.0931,
      "velocity": 94,
      "chip": "ym2612"
    },
    {
      "channel": 0,
      "note": 70,
      "start": 44.3921,
      "duration": 0.2046,
      "velocity": 95,
      "chip": "ym2612"
    },
    {
      "channel": 3,
      "note": 33,
      "start": 44.3932,
      "duration": 0.0923,
      "velocity": 94,
      "chip": "ym2612"
    },
    {
      "channel": 4,
      "note": 58,
      "start": 44.3939,
      "duration": 0.2041,
      "velocity": 91,
      "chip": "ym2612"
    },
    {
      "channel": 3,
      "note": 33,
      "start": 44.5044,
      "duration": 0.0931,
      "velocity": 94,
      "chip": "ym2612"
    },
    {
      "channel": 0,
      "note": 70,
      "start": 44.6157,
      "duration": 0.2049,
      "velocity": 95,
      "chip": "ym2612"
    },
    {
      "channel": 3,
      "note": 33,
      "start": 44.6168,
      "duration": 0.0926,
      "velocity": 94,
      "chip": "ym2612"
    },
    {
      "channel": 4,
      "note": 58,
      "start": 44.6175,
      "duration": 0.2042,
      "velocity": 91,
      "chip": "ym2612"
    },
    {
      "channel": 3,
      "note": 33,
      "start": 44.7284,
      "duration": 0.093,
      "velocity": 94,
      "chip": "ym2612"
    },
    {
      "channel": 0,
      "note": 70,
      "start": 44.8396,
      "duration": 0.2049,
      "velocity": 95,
      "chip": "ym2612"
    },
    {
      "channel": 3,
      "note": 33,
      "start": 44.8407,
      "duration": 0.0926,
      "velocity": 94,
      "chip": "ym2612"
    },
    {
      "channel": 4,
      "note": 58,
      "start": 44.8419,
      "duration": 0.2038,
      "velocity": 91,
      "chip": "ym2612"
    },
    {
      "channel": 3,
      "note": 33,
      "start": 44.9523,
      "duration": 0.093,
      "velocity": 94,
      "chip": "ym2612"
    },
    {
      "channel": 0,
      "note": 70,
      "start": 45.0636,
      "duration": 0.2048,
      "velocity": 95,
      "chip": "ym2612"
    },
    {
      "channel": 3,
      "note": 33,
      "start": 45.0649,
      "duration": 0.0924,
      "velocity": 94,
      "chip": "ym2612"
    },
    {
      "channel": 4,
      "note": 58,
      "start": 45.0657,
      "duration": 0.2039,
      "velocity": 91,
      "chip": "ym2612"
    },
    {
      "channel": 3,
      "note": 33,
      "start": 45.1763,
      "duration": 0.0929,
      "velocity": 94,
      "chip": "ym2612"
    }
  ]
}