{
  "track_name": "15 - Enter your Name",
  "duration_sec": 239.631,
  "sample_rate": 44100,
  "note_count": 4871,
  "unique_pitches": 51,
  "pitch_range": 55,
  "avg_note_duration": 0.1822,
  "reconstruction_stats": {
    "notes_reconstructed": 4871,
    "keyon_events": 4871,
    "keyoff_events": 4815,
    "orphan_keyons": 3,
    "unique_pitches": 51,
    "pitch_range": 55,
    "avg_duration_sec": 0.1822
  },
  "metadata": {
    "source": "D\\Darxide\\15 - Enter your Name.vgz"
  },
  "notes": [
    {
      "channel": 3,
      "note": 38,
      "start": 0.0,
      "duration": 0.0,
      "velocity": 1,
      "chip": "ym2612"
    },
    {
      "channel": 4,
      "note": 72,
      "start": 0.0,
      "duration": 0.0,
      "velocity": 85,
      "chip": "ym2612"
    },
    {
      "channel": 0,
      "note": 71,
      "start": 0.0005,
      "duration": 0.0734,
      "velocity": 93,
      "chip": "ym2612"
    },
    {
      "channel": 1,
      "note": 45,
      "start": 0.001,
      "duration": 0.153,
      "velocity": 99,
      "chip": "ym2612"
    },
    {
      "channel": 0,
      "note": 72,
      "start": 0.0739,
      "duration": 0.08,
      "velocity": 93,
      "chip": "ym2612"
    },
    {
      "channel": 0,
      "note": 76,
      "start": 0.154,
      "duration": 0.0799,
      "velocity": 93,
      "chip": "ym2612"
    },
    {
      "channel": 1,
      "note": 52,
      "start": 0.1541,
      "duration": 0.16,
      "velocity": 99,
      "chip": "ym2612"
    },
    {
      "channel": 0,
      "note": 79,
      "start": 0.2339,
      "duration": 0.0801,
      "velocity": 93,
      "chip": "ym2612"
    },
    {
      "channel": 0,
      "note": 83,
      "start": 0.314,
      "duration": 0.0999,
      "velocity": 93,
      "chip": "ym2612"
    },
    {
      "channel": 1,
      "note": 57,
      "start": 0.3141,
      "duration": 0.1799,
      "velocity": 99,
      "chip": "ym2612"
    },
    {
      "channel": 0,
      "note": 84,
      "start": 0.4139,
      "duration": 0.08,
      "velocity": 93,
      "chip": "ym2612"
    },
    {
      "channel": 0,
      "note": 83,
      "start": 0.494,
      "duration": 0.0799,
      "velocity": 93,
      "chip": "ym2612"
    },
    {
      "channel": 1,
      "note": 62,
      "start": 0.4941,
      "duration": 0.1599,
      "velocity": 99,
      "chip": "ym2612"
    },
    {
      "channel": 0,
      "note": 79,
      "start": 0.5739,
      "duration": 0.08,
      "velocity": 93,
      "chip": "ym2612"
    },
    {
      "channel": 0,
      "note": 76,
      "start": 0.654,
      "duration": 0.0999,
      "velocity": 93,
      "chip": "ym2612"
    },
    {
      "channel": 1,
      "note": 64,
      "start": 0.6541,
      "duration": 0.1799,
      "velocity": 99,
      "chip": "ym2612"
    },
    {
      "channel": 0,
      "note": 72,
      "start": 0.7539,
      "duration": 0.08,
      "velocity": 93,
      "chip": "ym2612"
    },
    {
      "channel": 0,
      "note": 71,
      "start": 0.834,
      "duration": 0.0799,
      "velocity": 93,
      "chip": "ym2612"
    },
    {
      "channel": 1,
      "note": 57,
      "start": 0.8341,
      "duration": 0.1599,
      "velocity": 99,
      "chip": "ym2612"
    },
    {
      "channel": 0,
      "note": 72,
      "start": 0.9139,
      "duration": 0.08,
      "velocity": 93,
      "chip": "ym2612"
    },
    {
      "channel": 0,
      "note": 76,
      "start": 0.994,
      "duration": 0.0999,
      "velocity": 93,
      "chip": "ym2612"
    },
    {
      "channel": 1,
      "note": 62,
      "start": 0.9941,
      "duration": 0.1799,
      "velocity": 99,
      "chip": "ym2612"
    },
    {
      "channel": 0,
      "note": 79,
      "start": 1.0939,
      "duration": 0.08,
      "velocity": 93,
      "chip": "ym2612"
    },
    {
      "channel": 0,
      "note": 83,
      "start": 1.174,
      "duration": 0.0799,
      "velocity": 93,
      "chip": "ym2612"
    },
    {
      "channel": 1,
      "note": 64,
      "start": 1.1741,
      "duration": 0.1599,
      "velocity": 99,
      "chip": "ym2612"
    },
    {
      "channel": 0,
      "note": 84,
      "start": 1.2539,
      "duration": 0.08,
      "velocity": 93,
      "chip": "ym2612"
    },
    {
      "channel": 0,
      "note": 83,
      "start": 1.334,
      "duration": 0.0999,
      "velocity": 93,
      "chip": "ym2612"
    },
    {
      "channel": 1,
      "note": 45,
      "start": 1.3341,
      "duration": 0.1799,
      "velocity": 99,
      "chip": "ym2612"
    },
    {
      "channel": 0,
      "note": 79,
      "start": 1.4339,
      "duration": 0.08,
      "velocity": 93,
      "chip": "ym2612"
    },
    {
      "channel": 0,
      "note": 76,
      "start": 1.514,
      "duration": 0.02,
      "velocity": 93,
      "chip": "ym2612"
    },
    {
      "channel": 1,
      "note": 52,
      "start": 1.5141,
      "duration": 0.16,
      "velocity": 99,
      "chip": "ym2612"
    },
    {
      "channel": 0,
      "note": 76,
      "start": 1.534,
      "duration": 0.0599,
      "velocity": 93,
      "chip": "ym2612"
    },
    {
      "channel": 0,
      "note": 72,
      "start": 1.5939,
      "duration": 0.0599,
      "velocity": 93,
      "chip": "ym2612"
    },
    {
      "channel": 0,
      "note": 71,
      "start": 1.674,
      "duration": 0.0999,
      "velocity": 93,
      "chip": "ym2612"
    },
    {
      "channel": 1,
      "note": 57,
      "start": 1.6741,
      "duration": 0.1799,
      "velocity": 99,
      "chip": "ym2612"
    },
    {
      "channel": 0,
      "note": 72,
      "start": 1.7739,
      "duration": 0.08,
      "velocity": 93,
      "chip": "ym2612"
    },
    {
      "channel": 0,
      "note": 76,
      "start": 1.854,
      "duration": 0.0799,
      "velocity": 93,
      "chip": "ym2612"
    },
    {
      "channel": 1,
      "note": 62,
      "start": 1.8541,
      "duration": 0.1599,
      "velocity": 99,
      "chip": "ym2612"
    },
    {
      "channel": 0,
      "note": 79,
      "start": 1.9339,
      "duration": 0.08,
      "velocity": 93,
      "chip": "ym2612"
    },
    {
      "channel": 0,
      "note": 83,
      "start": 2.014,
      "duration": 0.0999,
      "velocity": 93,
      "chip": "ym2612"
    },
    {
      "channel": 1,
      "note": 64,
      "start": 2.0141,
      "duration": 0.1799,
      "velocity": 99,
      "chip": "ym2612"
    },
    {
      "channel": 0,
      "note": 84,
      "start": 2.1139,
      "duration": 0.08,
      "velocity": 93,
      "chip": "ym2612"
    },
    {
      "channel": 0,
      "note": 83,
      "start": 2.194,
      "duration": 0.0799,
      "velocity": 93,
      "chip": "ym2612"
    },
    {
      "channel": 1,
      "note": 62,
      "start": 2.1941,
      "duration": 0.1599,
      "velocity": 99,
      "chip": "ym2612"
    },
    {
      "channel": 0,
      "note": 79,
      "start": 2.2739,
      "duration": 0.08,
      "velocity": 93,
      "chip": "ym2612"
    },
    {
      "channel": 0,
      "note": 76,
      "start": 2.354,
      "duration": 0.0999,
      "velocity": 93,
      "chip": "ym2612"
    },
    {
      "channel": 1,
      "note": 57,
      "start": 2.3541,
      "duration": 0.1799,
      "velocity": 99,
      "chip": "ym2612"
    },
    {
      "channel": 0,
      "note": 72,
      "start": 2.4539,
      "duration": 0.08,
      "velocity": 93,
      "chip": "ym2612"
    },
    {
      "channel": 0,
      "note": 71,
      "start": 2.534,
      "duration": 0.0799,
      "velocity": 93,
      "chip": "ym2612"
    },
    {
      "channel": 1,
      "note": 52,
      "start": 2.5341,
      "duration": 0.1599,
      "velocity": 99,
      "chip": "ym2612"
    },
    {
      "channel": 0,
      "note": 72,
      "start": 2.6139,
      "duration": 0.08,
      "velocity": 93,
      "chip": "ym2612"
    },
    {
      "channel": 0,
      "note": 73,
      "start": 2.694,
      "duration": 0.0999,
      "velocity": 93,
      "chip": "ym2612"
    },
    {
      "channel": 1,
      "note": 45,
      "start": 2.6941,
      "duration": 0.1799,
      "velocity": 99,
      "chip": "ym2612"
    },
    {
      "channel": 0,
      "note": 74,
      "start": 2.7939,
      "duration": 0.08,
      "velocity": 93,
      "chip": "ym2612"
    },
    {
      "channel": 0,
      "note": 78,
      "start": 2.874,
      "duration": 0.0799,
      "velocity": 93,
      "chip": "ym2612"
    },
    {
      "channel": 1,
      "note": 52,
      "start": 2.8741,
      "duration": 0.1599,
      "velocity": 99,
      "chip": "ym2612"
    },
    {
      "channel": 0,
      "note": 81,
      "start": 2.9539,
      "duration": 0.08,
      "velocity": 93,
      "chip": "ym2612"
    },
    {
      "channel": 0,
      "note": 85,
      "start": 3.034,
      "duration": 0.0799,
      "velocity": 93,
      "chip": "ym2612"
    },
    {
      "channel": 1,
      "note": 57,
      "start": 3.0341,
      "duration": 0.1799,
      "velocity": 99,
      "chip": "ym2612"
    },
    {
      "channel": 0,
      "note": 86,
      "start": 3.1139,
      "duration": 0.1,
      "velocity": 93,
      "chip": "ym2612"
    },
    {
      "channel": 0,
      "note": 85,
      "start": 3.214,
      "duration": 0.0799,
      "velocity": 93,
      "chip": "ym2612"
    },
    {
      "channel": 1,
      "note": 62,
      "start": 3.2141,
      "duration": 0.1599,
      "velocity": 99,
      "chip": "ym2612"
    },
    {
      "channel": 0,
      "note": 81,
      "start": 3.2939,
      "duration": 0.08,
      "velocity": 93,
      "chip": "ym2612"
    },
    {
      "channel": 0,
      "note": 78,
      "start": 3.374,
      "duration": 0.0799,
      "velocity": 93,
      "chip": "ym2612"
    },
    {
      "channel": 1,
      "note": 64,
      "start": 3.3741,
      "duration": 0.1799,
      "velocity": 99,
      "chip": "ym2612"
    },
    {
      "channel": 0,
      "note": 74,
      "start": 3.4539,
      "duration": 0.1,
      "velocity": 93,
      "chip": "ym2612"
    },
    {
      "channel": 0,
      "note": 73,
      "start": 3.554,
      "duration": 0.0799,
      "velocity": 93,
      "chip": "ym2612"
    },
    {
      "channel": 1,
      "note": 57,
      "start": 3.5541,
      "duration": 0.1599,
      "velocity": 99,
      "chip": "ym2612"
    },
    {
      "channel": 0,
      "note": 74,
      "start": 3.6339,
      "duration": 0.08,
      "velocity": 93,
      "chip": "ym2612"
    },
    {
      "channel": 0,
      "note": 78,
      "start": 3.7139,
      "duration": 0.08,
      "velocity": 93,
      "chip": "ym2612"
    },
    {
      "channel": 1,
      "note": 62,
      "start": 3.714,
      "duration": 0.1799,
      "velocity": 99,
      "chip": "ym2612"
    },
    {
      "channel": 0,
      "note": 81,
      "start": 3.7939,
      "duration": 0.1,
      "velocity": 93,
      "chip": "ym2612"
    },
    {
      "channel": 0,
      "note": 85,
      "start": 3.8939,
      "duration": 0.08,
      "velocity": 93,
      "chip": "ym2612"
    },
    {
      "channel": 1,
      "note": 64,
      "start": 3.894,
      "duration": 0.16,
      "velocity": 99,
      "chip": "ym2612"
    },
    {
      "channel": 0,
      "note": 86,
      "start": 3.9739,
      "duration": 0.08,
      "velocity": 93,
      "chip": "ym2612"
    },
    {
      "channel": 0,
      "note": 85,
      "start": 4.054,
      "duration": 0.0799,
      "velocity": 93,
      "chip": "ym2612"
    },
    {
      "channel": 1,
      "note": 45,
      "start": 4.0541,
      "duration": 0.1799,
      "velocity": 99,
      "chip": "ym2612"
    },
    {
      "channel": 0,
      "note": 81,
      "start": 4.1339,
      "duration": 0.1,
      "velocity": 93,
      "chip": "ym2612"
    },
    {
      "channel": 0,
      "note": 78,
      "start": 4.234,
      "duration": 0.0199,
      "velocity": 93,
      "chip": "ym2612"
    },
    {
      "channel": 1,
      "note": 52,
      "start": 4.2341,
      "duration": 0.1599,
      "velocity": 99,
      "chip": "ym2612"
    },
    {
      "channel": 0,
      "note": 78,
      "start": 4.2539,
      "duration": 0.06,
      "velocity": 93,
      "chip": "ym2612"
    },
    {
      "channel": 0,
      "note": 74,
      "start": 4.3139,
      "duration": 0.0599,
      "velocity": 93,
      "chip": "ym2612"
    },
    {
      "channel": 0,
      "note": 73,
      "start": 4.394,
      "duration": 0.0799,
      "velocity": 93,
      "chip": "ym2612"
    },
    {
      "channel": 1,
      "note": 57,
      "start": 4.3941,
      "duration": 0.1799,
      "velocity": 99,
      "chip": "ym2612"
    },
    {
      "channel": 0,
      "note": 74,
      "start": 4.4739,
      "duration": 0.1,
      "velocity": 93,
      "chip": "ym2612"
    },
    {
      "channel": 0,
      "note": 78,
      "start": 4.5739,
      "duration": 0.08,
      "velocity": 93,
      "chip": "ym2612"
    },
    {
      "channel": 1,
      "note": 62,
      "start": 4.574,
      "duration": 0.1599,
      "velocity": 99,
      "chip": "ym2612"
    },
    {
      "channel": 0,
      "note": 81,
      "start": 4.6539,
      "duration": 0.08,
      "velocity": 93,
      "chip": "ym2612"
    },
    {
      "channel": 0,
      "note": 85,
      "start": 4.7339,
      "duration": 0.08,
      "velocity": 93,
      "chip": "ym2612"
    },
    {
      "channel": 1,
      "note": 64,
      "start": 4.734,
      "duration": 0.1799,
      "velocity": 99,
      "chip": "ym2612"
    },
    {
      "channel": 0,
      "note": 86,
      "start": 4.8139,
      "duration": 0.1,
      "velocity": 93,
      "chip": "ym2612"
    },
    {
      "channel": 0,
      "note": 85,
      "start": 4.9139,
      "duration": 0.08,
      "velocity": 93,
      "chip": "ym2612"
    },
    {
      "channel": 1,
      "note": 62,
      "start": 4.914,
      "duration": 0.16,
      "velocity": 99,
      "chip": "ym2612"
    },
    {
      "channel": 0,
      "note": 81,
      "start": 4.9939,
      "duration": 0.08,
      "velocity": 93,
      "chip": "ym2612"
    },
    {
      "channel": 0,
      "note": 78,
      "start": 5.074,
      "duration": 0.0799,
      "velocity": 93,
      "chip": "ym2612"
    },
    {
      "channel": 1,
      "note": 57,
      "start": 5.0741,
      "duration": 0.1799,
      "velocity": 99,
      "chip": "ym2612"
    },
    {
      "channel": 0,
      "note": 74,
      "start": 5.1539,
      "duration": 0.1,
      "velocity": 93,
      "chip": "ym2612"
    },
    {
      "channel": 0,
      "note": 73,
      "start": 5.254,
      "duration": 0.0798,
      "velocity": 93,
      "chip": "ym2612"
    },
    {
      "channel": 1,
      "note": 52,
      "start": 5.2541,
      "duration": 0.1599,
      "velocity": 99,
      "chip": "ym2612"
    },
    {
      "channel": 0,
      "note": 74,
      "start": 5.3339,
      "duration": 0.08,
      "velocity": 93,
      "chip": "ym2612"
    },
    {
      "channel": 0,
      "note": 71,
      "start": 5.4139,
      "duration": 0.08,
      "velocity": 93,
      "chip": "ym2612"
    },
    {
      "channel": 1,
      "note": 45,
      "start": 5.414,
      "duration": 0.18,
      "velocity": 99,
      "chip": "ym2612"
    },
    {
      "channel": 0,
      "note": 72,
      "start": 5.4939,
      "duration": 0.1,
      "velocity": 93,
      "chip": "ym2612"
    },
    {
      "channel": 0,
      "note": 76,
      "start": 5.594,
      "duration": 0.0799,
      "velocity": 93,
      "chip": "ym2612"
    },
    {
      "channel": 1,
      "note": 52,
      "start": 5.5941,
      "duration": 0.1599,
      "velocity": 99,
      "chip": "ym2612"
    },
    {
      "channel": 0,
      "note": 79,
      "start": 5.6739,
      "duration": 0.08,
      "velocity": 93,
      "chip": "ym2612"
    },
    {
      "channel": 0,
      "note": 83,
      "start": 5.754,
      "duration": 0.0799,
      "velocity": 93,
      "chip": "ym2612"
    },
    {
      "channel": 1,
      "note": 57,
      "start": 5.7541,
      "duration": 0.1799,
      "velocity": 99,
      "chip": "ym2612"
    },
    {
      "channel": 0,
      "note": 84,
      "start": 5.8339,
      "duration": 0.1,
      "velocity": 93,
      "chip": "ym2612"
    },
    {
      "channel": 0,
      "note": 83,
      "start": 5.9339,
      "duration": 0.08,
      "velocity": 93,
      "chip": "ym2612"
    },
    {
      "channel": 1,
      "note": 62,
      "start": 5.934,
      "duration": 0.1599,
      "velocity": 99,
      "chip": "ym2612"
    },
    {
      "channel": 0,
      "note": 79,
      "start": 6.0139,
      "duration": 0.08,
      "velocity": 93,
      "chip": "ym2612"
    },
    {
      "channel": 0,
      "note": 76,
      "start": 6.0939,
      "duration": 0.08,
      "velocity": 93,
      "chip": "ym2612"
    },
    {
      "channel": 1,
      "note": 64,
      "start": 6.094,
      "duration": 0.1599,
      "velocity": 99,
      "chip": "ym2612"
    },
    {
      "channel": 0,
      "note": 72,
      "start": 6.1739,
      "duration": 0.08,
      "velocity": 93,
      "chip": "ym2612"
    },
    {
      "channel": 0,
      "note": 71,
      "start": 6.2539,
      "duration": 0.1,
      "velocity": 93,
      "chip": "ym2612"
    },
    {
      "channel": 1,
      "note": 57,
      "start": 6.254,
      "duration": 0.1799,
      "velocity": 99,
      "chip": "ym2612"
    },
    {
      "channel": 0,
      "note": 72,
      "start": 6.3539,
      "duration": 0.08,
      "velocity": 93,
      "chip": "ym2612"
    },
    {
      "channel": 0,
      "note": 76,
      "start": 6.4339,
      "duration": 0.08,
      "velocity": 93,
      "chip": "ym2612"
    },
    {
      "channel": 1,
      "note": 62,
      "start": 6.434,
      "duration": 0.16,
      "velocity": 99,
      "chip": "ym2612"
    },
    {
      "channel": 0,
      "note": 79,
      "start": 6.5139,
      "duration": 0.08,
      "velocity": 93,
      "chip": "ym2612"
    },
    {
      "channel": 0,
      "note": 83,
      "start": 6.594,
      "duration": 0.0999,
      "velocity": 93,
      "chip": "ym2612"
    },
    {
      "channel": 1,
      "note": 64,
      "start": 6.5941,
      "duration": 0.1799,
      "velocity": 99,
      "chip": "ym2612"
    },
    {
      "channel": 0,
      "note": 84,
      "start": 6.6939,
      "duration": 0.08,
      "velocity": 93,
      "chip": "ym2612"
    },
    {
      "channel": 0,
      "note": 83,
      "start": 6.774,
      "duration": 0.0799,
      "velocity": 93,
      "chip": "ym2612"
    },
    {
      "channel": 1,
      "note": 45,
      "start": 6.7741,
      "duration": 0.1599,
      "velocity": 99,
      "chip": "ym2612"
    },
    {
      "channel": 0,
      "note": 79,
      "start": 6.8539,
      "duration": 0.08,
      "velocity": 93,
      "chip": "ym2612"
    },
    {
      "channel": 0,
      "note": 76,
      "start": 6.9339,
      "duration": 0.04,
      "velocity": 93,
      "chip": "ym2612"
    },
    {
      "channel": 1,
      "note": 52,
      "start": 6.934,
      "duration": 0.18,
      "velocity": 99,
      "chip": "ym2612"
    },
    {
      "channel": 0,
      "note": 76,
      "start": 6.9739,
      "duration": 0.06,
      "velocity": 93,
      "chip": "ym2612"
    },
    {
      "channel": 0,
      "note": 72,
      "start": 7.0339,
      "duration": 0.0599,
      "velocity": 93,
      "chip": "ym2612"
    },
    {
      "channel": 0,
      "note": 71,
      "start": 7.114,
      "duration": 0.0799,
      "velocity": 93,
      "chip": "ym2612"
    },
    {
      "channel": 1,
      "note": 57,
      "start": 7.1141,
      "duration": 0.1599,
      "velocity": 99,
      "chip": "ym2612"
    },
    {
      "channel": 0,
      "note": 72,
      "start": 7.1939,
      "duration": 0.08,
      "velocity": 93,
      "chip": "ym2612"
    },
    {
      "channel": 0,
      "note": 76,
      "start": 7.2739,
      "duration": 0.1,
      "velocity": 93,
      "chip": "ym2612"
    },
    {
      "channel": 1,
      "note": 62,
      "start": 7.274,
      "duration": 0.18,
      "velocity": 99,
      "chip": "ym2612"
    },
    {
      "channel": 0,
      "note": 79,
      "start": 7.3739,
      "duration": 0.08,
      "velocity": 93,
      "chip": "ym2612"
    },
    {
      "channel": 0,
      "note": 83,
      "start": 7.454,
      "duration": 0.0799,
      "velocity": 93,
      "chip": "ym2612"
    },
    {
      "channel": 1,
      "note": 64,
      "start": 7.4541,
      "duration": 0.1599,
      "velocity": 99,
      "chip": "ym2612"
    },
    {
      "channel": 0,
      "note": 84,
      "start": 7.5339,
      "duration": 0.08,
      "velocity": 93,
      "chip": "ym2612"
    },
    {
      "channel": 0,
      "note": 83,
      "start": 7.6139,
      "duration": 0.1,
      "velocity": 93,
      "chip": "ym2612"
    },
    {
      "channel": 1,
      "note": 62,
      "start": 7.614,
      "duration": 0.1799,
      "velocity": 99,
      "chip": "ym2612"
    },
    {
      "channel": 0,
      "note": 79,
      "start": 7.7139,
      "duration": 0.08,
      "velocity": 93,
      "chip": "ym2612"
    },
    {
      "channel": 0,
      "note": 76,
      "start": 7.7939,
      "duration": 0.08,
      "velocity": 93,
      "chip": "ym2612"
    },
    {
      "channel": 1,
      "note": 57,
      "start": 7.794,
      "duration": 0.16,
      "velocity": 99,
      "chip": "ym2612"
    },
    {
      "channel": 0,
      "note": 72,
      "start": 7.8739,
      "duration": 0.08,
      "velocity": 93,
      "chip": "ym2612"
    },
    {
      "channel": 0,
      "note": 71,
      "start": 7.954,
      "duration": 0.0999,
      "velocity": 93,
      "chip": "ym2612"
    },
    {
      "channel": 1,
      "note": 52,
      "start": 7.9541,
      "duration": 0.1799,
      "velocity": 99,
      "chip": "ym2612"
    },
    {
      "channel": 0,
      "note": 72,
      "start": 8.0539,
      "duration": 0.08,
      "velocity": 93,
      "chip": "ym2612"
    },
    {
      "channel": 0,
      "note": 73,
      "start": 8.1339,
      "duration": 0.0799,
      "velocity": 93,
      "chip": "ym2612"
    },
    {
      "channel": 1,
      "note": 45,
      "start": 8.134,
      "duration": 0.16,
      "velocity": 99,
      "chip": "ym2612"
    },
    {
      "channel": 0,
      "note": 74,
      "start": 8.2139,
      "duration": 0.08,
      "velocity": 93,
      "chip": "ym2612"
    },
    {
      "channel": 0,
      "note": 78,
      "start": 8.294,
      "duration": 0.0999,
      "velocity": 93,
      "chip": "ym2612"
    },
    {
      "channel": 1,
      "note": 52,
      "start": 8.2941,
      "duration": 0.1799,
      "velocity": 99,
      "chip": "ym2612"
    },
    {
      "channel": 0,
      "note": 81,
      "start": 8.3939,
      "duration": 0.08,
      "velocity": 93,
      "chip": "ym2612"
    },
    {
      "channel": 0,
      "note": 85,
      "start": 8.474,
      "duration": 0.0799,
      "velocity": 93,
      "chip": "ym2612"
    },
    {
      "channel": 1,
      "note": 57,
      "start": 8.4741,
      "duration": 0.1599,
      "velocity": 99,
      "chip": "ym2612"
    },
    {
      "channel": 0,
      "note": 86,
      "start": 8.5539,
      "duration": 0.08,
      "velocity": 93,
      "chip": "ym2612"
    },
    {
      "channel": 0,
      "note": 85,
      "start": 8.6339,
      "duration": 0.1,
      "velocity": 93,
      "chip": "ym2612"
    },
    {
      "channel": 1,
      "note": 62,
      "start": 8.634,
      "duration": 0.18,
      "velocity": 99,
      "chip": "ym2612"
    },
    {
      "channel": 0,
      "note": 81,
      "start": 8.7339,
      "duration": 0.08,
      "velocity": 93,
      "chip": "ym2612"
    },
    {
      "channel": 0,
      "note": 78,
      "start": 8.814,
      "duration": 0.0799,
      "velocity": 93,
      "chip": "ym2612"
    },
    {
      "channel": 1,
      "note": 64,
      "start": 8.8141,
      "duration": 0.1599,
      "velocity": 99,
      "chip": "ym2612"
    },
    {
      "channel": 0,
      "note": 74,
      "start": 8.8939,
      "duration": 0.08,
      "velocity": 93,
      "chip": "ym2612"
    },
    {
      "channel": 0,
      "note": 73,
      "start": 8.9739,
      "duration": 0.1,
      "velocity": 93,
      "chip": "ym2612"
    },
    {
      "channel": 1,
      "note": 57,
      "start": 8.974,
      "duration": 0.1799,
      "velocity": 99,
      "chip": "ym2612"
    },
    {
      "channel": 0,
      "note": 74,
      "start": 9.0739,
      "duration": 0.08,
      "velocity": 93,
      "chip": "ym2612"
    },
    {
      "channel": 0,
      "note": 78,
      "start": 9.1539,
      "duration": 0.08,
      "velocity": 93,
      "chip": "ym2612"
    },
    {
      "channel": 1,
      "note": 62,
      "start": 9.154,
      "duration": 0.1599,
      "velocity": 99,
      "chip": "ym2612"
    },
    {
      "channel": 0,
      "note": 81,
      "start": 9.2339,
      "duration": 0.08,
      "velocity": 93,
      "chip": "ym2612"
    },
    {
      "channel": 0,
      "note": 85,
      "start": 9.3139,
      "duration": 0.08,
      "velocity": 93,
      "chip": "ym2612"
    },
    {
      "channel": 1,
      "note": 64,
      "start": 9.314,
      "duration": 0.18,
      "velocity": 99,
      "chip": "ym2612"
    },
    {
      "channel": 0,
      "note": 86,
      "start": 9.3939,
      "duration": 0.1,
      "velocity": 93,
      "chip": "ym2612"
    },
    {
      "channel": 0,
      "note": 85,
      "start": 9.494,
      "duration": 0.0799,
      "velocity": 93,
      "chip": "ym2612"
    },
    {
      "channel": 1,
      "note": 45,
      "start": 9.4941,
      "duration": 0.1599,
      "velocity": 99,
      "chip": "ym2612"
    },
    {
      "channel": 0,
      "note": 81,
      "start": 9.5739,
      "duration": 0.08,
      "velocity": 93,
      "chip": "ym2612"
    },
    {
      "channel": 0,
      "note": 78,
      "start": 9.654,
      "duration": 0.0399,
      "velocity": 93,
      "chip": "ym2612"
    },
    {
      "channel": 1,
      "note": 52,
      "start": 9.6541,
      "duration": 0.1799,
      "velocity": 99,
      "chip": "ym2612"
    },
    {
      "channel": 0,
      "note": 78,
      "start": 9.6939,
      "duration": 0.04,
      "velocity": 93,
      "chip": "ym2612"
    },
    {
      "channel": 0,
      "note": 74,
      "start": 9.7339,
      "duration": 0.0599,
      "velocity": 93,
      "chip": "ym2612"
    },
    {
      "channel": 0,
      "note": 73,
      "start": 9.834,
      "duration": 0.0799,
      "velocity": 93,
      "chip": "ym2612"
    },
    {
      "channel": 1,
      "note": 57,
      "start": 9.8341,
      "duration": 0.1599,
      "velocity": 99,
      "chip": "ym2612"
    },
    {
      "channel": 0,
      "note": 74,
      "start": 9.9139,
      "duration": 0.08,
      "velocity": 93,
      "chip": "ym2612"
    },
    {
      "channel": 0,
      "note": 78,
      "start": 9.9939,
      "duration": 0.08,
      "velocity": 93,
      "chip": "ym2612"
    },
    {
      "channel": 1,
      "note": 62,
      "start": 9.994,
      "duration": 0.1799,
      "velocity": 99,
      "chip": "ym2612"
    },
    {
      "channel": 0,
      "note": 81,
      "start": 10.0739,
      "duration": 0.1,
      "velocity": 93,
      "chip": "ym2612"
    },
    {
      "channel": 0,
      "note": 85,
      "start": 10.1739,
      "duration": 0.08,
      "velocity": 93,
      "chip": "ym2612"
    },
    {
      "channel": 1,
      "note": 64,
      "start": 10.174,
      "duration": 0.1599,
      "velocity": 99,
      "chip": "ym2612"
    },
    {
      "channel": 0,
      "note": 86,
      "start": 10.2539,
      "duration": 0.08,
      "velocity": 93,
      "chip": "ym2612"
    },
    {
      "channel": 0,
      "note": 85,
      "start": 10.3339,
      "duration": 0.08,
      "velocity": 93,
      "chip": "ym2612"
    },
    {
      "channel": 1,
      "note": 62,
      "start": 10.334,
      "duration": 0.18,
      "velocity": 99,
      "chip": "ym2612"
    },
    {
      "channel": 0,
      "note": 81,
      "start": 10.4139,
      "duration": 0.1,
      "velocity": 93,
      "chip": "ym2612"
    },
    {
      "channel": 0,
      "note": 78,
      "start": 10.514,
      "duration": 0.0799,
      "velocity": 93,
      "chip": "ym2612"
    },
    {
      "channel": 1,
      "note": 57,
      "start": 10.5141,
      "duration": 0.1599,
      "velocity": 99,
      "chip": "ym2612"
    },
    {
      "channel": 0,
      "note": 74,
      "start": 10.5939,
      "duration": 0.08,
      "velocity": 93,
      "chip": "ym2612"
    },
    {
      "channel": 0,
      "note": 73,
      "start": 10.674,
      "duration": 0.08,
      "velocity": 93,
      "chip": "ym2612"
    },
    {
      "channel": 1,
      "note": 52,
      "start": 10.6741,
      "duration": 0.1398,
      "velocity": 99,
      "chip": "ym2612"
    },
    {
      "channel": 0,
      "note": 74,
      "start": 10.7541,
      "duration": 0.1006,
      "velocity": 93,
      "chip": "ym2612"
    },
    {
      "channel": 0,
      "note": 71,
      "start": 10.8547,
      "duration": 0.001,
      "velocity": 93,
      "chip": "ym2612"
    },
    {
      "channel": 1,
      "note": 45,
      "start": 10.8548,
      "duration": 0.0362,
      "velocity": 99,
      "chip": "ym2612"
    },
    {
      "channel": 3,
      "note": 45,
      "start": 10.8549,
      "duration": 1.8278,
      "velocity": 95,
      "chip": "ym2612"
    },
    {
      "channel": 0,
      "note": 72,
      "start": 10.8557,
      "duration": 0.0352,
      "velocity": 93,
      "chip": "ym2612"
    },
    {
      "channel": 0,
      "note": 76,
      "start": 10.891,
      "duration": 0.0799,
      "velocity": 93,
      "chip": "ym2612"
    },
    {
      "channel": 1,
      "note": 52,
      "start": 10.8911,
      "duration": 0.18,
      "velocity": 99,
      "chip": "ym2612"
    },
    {
      "channel": 0,
      "note": 79,
      "start": 10.9709,
      "duration": 0.1001,
      "velocity": 93,
      "chip": "ym2612"
    },
    {
      "channel": 0,
      "note": 83,
      "start": 11.071,
      "duration": 0.0799,
      "velocity": 93,
      "chip": "ym2612"
    },
    {
      "channel": 1,
      "note": 57,
      "start": 11.0711,
      "duration": 0.1599,
      "velocity": 99,
      "chip": "ym2612"
    },
    {
      "channel": 0,
      "note": 84,
      "start": 11.1509,
      "duration": 0.08,
      "velocity": 93,
      "chip": "ym2612"
    },
    {
      "channel": 0,
      "note": 83,
      "start": 11.231,
      "duration": 0.0799,
      "velocity": 93,
      "chip": "ym2612"
    },
    {
      "channel": 1,
      "note": 62,
      "start": 11.2311,
      "duration": 0.18,
      "velocity": 99,
      "chip": "ym2612"
    },
    {
      "channel": 0,
      "note": 79,
      "start": 11.3109,
      "duration": 0.1001,
      "velocity": 93,
      "chip": "ym2612"
    },
    {
      "channel": 0,
      "note": 76,
      "start": 11.4111,
      "duration": 0.0009,
      "velocity": 93,
      "chip": "ym2612"
    },
    {
      "channel": 1,
      "note": 64,
      "start": 11.4111,
      "duration": 0.0017,
      "velocity": 99,
      "chip": "ym2612"
    },
    {
      "channel": 0,
      "note": 72,
      "start": 11.412,
      "duration": 0.0007,
      "velocity": 93,
      "chip": "ym2612"
    },
    {
      "channel": 0,
      "note": 71,
      "start": 11.4129,
      "duration": 0.0668,
      "velocity": 93,
      "chip": "ym2612"
    },
    {
      "channel": 1,
      "note": 57,
      "start": 11.4129,
      "duration": 0.1669,
      "velocity": 99,
      "chip": "ym2612"
    },
    {
      "channel": 0,
      "note": 72,
      "start": 11.4798,
      "duration": 0.1,
      "velocity": 93,
      "chip": "ym2612"
    },
    {
      "channel": 0,
      "note": 76,
      "start": 11.5798,
      "duration": 0.0799,
      "velocity": 93,
      "chip": "ym2612"
    },
    {
      "channel": 1,
      "note": 62,
      "start": 11.5799,
      "duration": 0.1599,
      "velocity": 99,
      "chip": "ym2612"
    },
    {
      "channel": 0,
      "note": 79,
      "start": 11.6598,
      "duration": 0.08,
      "velocity": 93,
      "chip": "ym2612"
    },
    {
      "channel": 0,
      "note": 83,
      "start": 11.7398,
      "duration": 0.0799,
      "velocity": 93,
      "chip": "ym2612"
    },
    {
      "channel": 1,
      "note": 64,
      "start": 11.7399,
      "duration": 0.18,
      "velocity": 99,
      "chip": "ym2612"
    },
    {
      "channel": 0,
      "note": 84,
      "start": 11.8198,
      "duration": 0.1001,
      "velocity": 93,
      "chip": "ym2612"
    },
    {
      "channel": 0,
      "note": 83,
      "start": 11.9199,
      "duration": 0.0009,
      "velocity": 93,
      "chip": "ym2612"
    },
    {
      "channel": 1,
      "note": 45,
      "start": 11.92,
      "duration": 0.0368,
      "velocity": 99,
      "chip": "ym2612"
    },
    {
      "channel": 0,
      "note": 79,
      "start": 11.9208,
      "duration": 0.0359,
      "velocity": 93,
      "chip": "ym2612"
    },
    {
      "channel": 0,
      "note": 76,
      "start": 11.9568,
      "duration": 0.02,
      "velocity": 93,
      "chip": "ym2612"
    },
    {
      "channel": 1,
      "note": 52,
      "start": 11.9568,
      "duration": 0.16,
      "velocity": 99,
      "chip": "ym2612"
    },
    {
      "channel": 0,
      "note": 76,
      "start": 11.9768,
      "duration": 0.0599,
      "velocity": 93,
      "chip": "ym2612"
    },
    {
      "channel": 0,
      "note": 72,
      "start": 12.0367,
      "duration": 0.0599,
      "velocity": 93,
      "chip": "ym2612"
    },
    {
      "channel": 0,
      "note": 71,
      "start": 12.1168,
      "duration": 0.0999,
      "velocity": 93,
      "chip": "ym2612"
    },
    {
      "channel": 1,
      "note": 57,
      "start": 12.1168,
      "duration": 0.18,
      "velocity": 99,
      "chip": "ym2612"
    },
    {
      "channel": 0,
      "note": 72,
      "start": 12.2167,
      "duration": 0.0801,
      "velocity": 93,
      "chip": "ym2612"
    },
    {
      "channel": 0,
      "note": 76,
      "start": 12.2968,
      "duration": 0.0009,
      "velocity": 93,
      "chip": "ym2612"
    },
    {
      "channel": 1,
      "note": 62,
      "start": 12.2969,
      "duration": 0.0368,
      "velocity": 99,
      "chip": "ym2612"
    },
    {
      "channel": 0,
      "note": 79,
      "start": 12.2978,
      "duration": 0.0359,
      "velocity": 93,
      "chip": "ym2612"
    },
    {
      "channel": 0,
      "note": 83,
      "start": 12.3338,
      "duration": 0.0011,
      "velocity": 93,
      "chip": "ym2612"
    },
    {
      "channel": 1,
      "note": 64,
      "start": 12.3338,
      "duration": 0.0087,
      "velocity": 99,
      "chip": "ym2612"
    },
    {
      "channel": 0,
      "note": 84,
      "start": 12.3349,
      "duration": 0.0075,
      "velocity": 93,
      "chip": "ym2612"
    },
    {
      "channel": 0,
      "note": 83,
      "start": 12.3425,
      "duration": 0.0799,
      "velocity": 93,
      "chip": "ym2612"
    },
    {
      "channel": 1,
      "note": 62,
      "start": 12.3426,
      "duration": 0.1599,
      "velocity": 99,
      "chip": "ym2612"
    },
    {
      "channel": 0,
      "note": 79,
      "start": 12.4224,
      "duration": 0.08,
      "velocity": 93,
      "chip": "ym2612"
    },
    {
      "channel": 0,
      "note": 76,
      "start": 12.5025,
      "duration": 0.0999,
      "velocity": 93,
      "chip": "ym2612"
    },
    {
      "channel": 1,
      "note": 57,
      "start": 12.5026,
      "duration": 0.18,
      "velocity": 99,
      "chip": "ym2612"
    },
    {
      "channel": 0,
      "note": 72,
      "start": 12.6024,
      "duration": 0.0801,
      "velocity": 93,
      "chip": "ym2612"
    },
    {
      "channel": 0,
      "note": 71,
      "start": 12.6826,
      "duration": 0.0799,
      "velocity": 93,
      "chip": "ym2612"
    },
    {
      "channel": 1,
      "note": 52,
      "start": 12.6827,
      "duration": 0.1601,
      "velocity": 99,
      "chip": "ym2612"
    },
    {
      "channel": 3,
      "note": 52,
      "start": 12.6827,
      "duration": 0.0798,
      "velocity": 95,
      "chip": "ym2612"
    },
    {
      "channel": 0,
      "note": 72,
      "start": 12.7625,
      "duration": 0.0801,
      "velocity": 93,
      "chip": "ym2612"
    },
    {
      "channel": 3,
      "note": 55,
      "start": 12.7626,
      "duration": 0.0802,
      "velocity": 95,
      "chip": "ym2612"
    },
    {
      "channel": 0,
      "note": 73,
      "start": 12.8427,
      "duration": 0.0012,
      "velocity": 93,
      "chip": "ym2612"
    },
    {
      "channel": 1,
      "note": 45,
      "start": 12.8427,
      "duration": 0.0569,
      "velocity": 99,
      "chip": "ym2612"
    },
    {
      "channel": 3,
      "note": 57,
      "start": 12.8428,
      "duration": 2.0081,
      "velocity": 95,
      "chip": "ym2612"
    },
    {
      "channel": 0,
      "note": 74,
      "start": 12.8439,
      "duration": 0.0556,
      "velocity": 93,
      "chip": "ym2612"
    },
    {
      "channel": 0,
      "note": 78,
      "start": 12.8996,
      "duration": 0.0799,
      "velocity": 93,
      "chip": "ym2612"
    },
    {
      "channel": 1,
      "note": 52,
      "start": 12.8996,
      "duration": 0.1599,
      "velocity": 99,
      "chip": "ym2612"
    },
    {
      "channel": 0,
      "note": 81,
      "start": 12.9795,
      "duration": 0.08,
      "velocity": 93,
      "chip": "ym2612"
    },
    {
      "channel": 0,
      "note": 85,
      "start": 13.0596,
      "duration": 0.0999,
      "velocity": 93,
      "chip": "ym2612"
    },
    {
      "channel": 1,
      "note": 57,
      "start": 13.0596,
      "duration": 0.1799,
      "velocity": 99,
      "chip": "ym2612"
    },
    {
      "channel": 0,
      "note": 86,
      "start": 13.1595,
      "duration": 0.08,
      "velocity": 93,
      "chip": "ym2612"
    },
    {
      "channel": 0,
      "note": 85,
      "start": 13.2396,
      "duration": 0.0799,
      "velocity": 93,
      "chip": "ym2612"
    },
    {
      "channel": 1,
      "note": 62,
      "start": 13.2396,
      "duration": 0.16,
      "velocity": 99,
      "chip": "ym2612"
    },
    {
      "channel": 0,
      "note": 81,
      "start": 13.3195,
      "duration": 0.0801,
      "velocity": 93,
      "chip": "ym2612"
    },
    {
      "channel": 0,
      "note": 78,
      "start": 13.3996,
      "duration": 0.0011,
      "velocity": 93,
      "chip": "ym2612"
    },
    {
      "channel": 1,
      "note": 64,
      "start": 13.3997,
      "duration": 0.0087,
      "velocity": 99,
      "chip": "ym2612"
    },
    {
      "channel": 0,
      "note": 74,
      "start": 13.4008,
      "duration": 0.0075,
      "velocity": 93,
      "chip": "ym2612"
    },
    {
      "channel": 0,
      "note": 73,
      "start": 13.4084,
      "duration": 0.0799,
      "velocity": 93,
      "chip": "ym2612"
    },
    {
      "channel": 1,
      "note": 57,
      "start": 13.4085,
      "duration": 0.1599,
      "velocity": 99,
      "chip": "ym2612"
    },
    {
      "channel": 0,
      "note": 74,
      "start": 13.4883,
      "duration": 0.08,
      "velocity": 93,
      "chip": "ym2612"
    },
    {
      "channel": 0,
      "note": 78,
      "start": 13.5683,
      "duration": 0.0999,
      "velocity": 93,
      "chip": "ym2612"
    },
    {
      "channel": 1,
      "note": 62,
      "start": 13.5684,
      "duration": 0.1799,
      "velocity": 99,
      "chip": "ym2612"
    },
    {
      "channel": 0,
      "note": 81,
      "start": 13.6683,
      "duration": 0.0799,
      "velocity": 93,
      "chip": "ym2612"
    },
    {
      "channel": 0,
      "note": 85,
      "start": 13.7483,
      "duration": 0.0799,
      "velocity": 93,
      "chip": "ym2612"
    },
    {
      "channel": 1,
      "note": 64,
      "start": 13.7484,
      "duration": 0.1601,
      "velocity": 99,
      "chip": "ym2612"
    },
    {
      "channel": 0,
      "note": 86,
      "start": 13.8283,
      "duration": 0.0801,
      "velocity": 93,
      "chip": "ym2612"
    },
    {
      "channel": 0,
      "note": 85,
      "start": 13.9085,
      "duration": 0.0009,
      "velocity": 93,
      "chip": "ym2612"
    },
    {
      "channel": 1,
      "note": 45,
      "start": 13.9085,
      "duration": 0.0567,
      "velocity": 99,
      "chip": "ym2612"
    },
    {
      "channel": 0,
      "note": 81,
      "start": 13.9094,
      "duration": 0.0558,
      "velocity": 93,
      "chip": "ym2612"
    },
    {
      "channel": 0,
      "note": 78,
      "start": 13.9652,
      "duration": 0.0199,
      "velocity": 93,
      "chip": "ym2612"
    },
    {
      "channel": 1,
      "note": 52,
      "start": 13.9653,
      "duration": 0.1599,
      "velocity": 99,
      "chip": "ym2612"
    },
    {
      "channel": 0,
      "note": 78,
      "start": 13.9852,
      "duration": 0.0599,
      "velocity": 93,
      "chip": "ym2612"
    },
    {
      "channel": 0,
      "note": 74,
      "start": 14.0451,
      "duration": 0.06,
      "velocity": 93,
      "chip": "ym2612"
    },
    {
      "channel": 0,
      "note": 73,
      "start": 14.1252,
      "duration": 0.0999,
      "velocity": 93,
      "chip": "ym2612"
    },
    {
      "channel": 1,
      "note": 57,
      "start": 14.1253,
      "duration": 0.1799,
      "velocity": 99,
      "chip": "ym2612"
    },
    {
      "channel": 0,
      "note": 74,
      "start": 14.2251,
      "duration": 0.0801,
      "velocity": 93,
      "chip": "ym2612"
    },
    {
      "channel": 0,
      "note": 78,
      "start": 14.3052,
      "duration": 0.0008,
      "velocity": 93,
      "chip": "ym2612"
    },
    {
      "channel": 1,
      "note": 62,
      "start": 14.3053,
      "duration": 0.0368,
      "velocity": 99,
      "chip": "ym2612"
    },
    {
      "channel": 0,
      "note": 81,
      "start": 14.3061,
      "duration": 0.0359,
      "velocity": 93,
      "chip": "ym2612"
    },
    {
      "channel": 0,
      "note": 85,
      "start": 14.3421,
      "duration": 0.0009,
      "velocity": 93,
      "chip": "ym2612"
    },
    {
      "channel": 1,
      "note": 64,
      "start": 14.3422,
      "duration": 0.0085,
      "velocity": 99,
      "chip": "ym2612"
    },
    {
      "channel": 0,
      "note": 86,
      "start": 14.343,
      "duration": 0.0075,
      "velocity": 93,
      "chip": "ym2612"
    },
    {
      "channel": 0,
      "note": 85,
      "start": 14.3506,
      "duration": 0.0799,
      "velocity": 93,
      "chip": "ym2612"
    },
    {
      "channel": 1,
      "note": 62,
      "start": 14.3507,
      "duration": 0.16,
      "velocity": 99,
      "chip": "ym2612"
    },
    {
      "channel": 0,
      "note": 81,
      "start": 14.4306,
      "duration": 0.0801,
      "velocity": 93,
      "chip": "ym2612"
    },
    {
      "channel": 0,
      "note": 78,
      "start": 14.5107,
      "duration": 0.0799,
      "velocity": 93,
      "chip": "ym2612"
    },
    {
      "channel": 1,
      "note": 57,
      "start": 14.5108,
      "duration": 0.1799,
      "velocity": 99,
      "chip": "ym2612"
    },
    {
      "channel": 0,
      "note": 74,
      "start": 14.5906,
      "duration": 0.1001,
      "velocity": 93,
      "chip": "ym2612"
    },
    {
      "channel": 0,
      "note": 73,
      "start": 14.6907,
      "duration": 0.0799,
      "velocity": 93,
      "chip": "ym2612"
    },
    {
      "channel": 1,
      "note": 52,
      "start": 14.6908,
      "duration": 0.1601,
      "velocity": 99,
      "chip": "ym2612"
    },
    {
      "channel": 0,
      "note": 74,
      "start": 14.7706,
      "duration": 0.0802,
      "velocity": 93,
      "chip": "ym2612"
    },
    {
      "channel": 0,
      "note": 71,
      "start": 14.8508,
      "duration": 0.0009,
      "velocity": 93,
      "chip": "ym2612"
    },
    {
      "channel": 1,
      "note": 45,
      "start": 14.8509,
      "duration": 0.0566,
      "velocity": 99,
      "chip": "ym2612"
    },
    {
      "channel": 3,
      "note": 45,
      "start": 14.851,
      "duration": 1.828,
      "velocity": 95,
      "chip": "ym2612"
    },
    {
      "channel": 0,
      "note": 72,
      "start": 14.8518,
      "duration": 0.0556,
      "velocity": 93,
      "chip": "ym2612"
    },
    {
      "channel": 0,
      "note": 76,
      "start": 14.9075,
      "duration": 0.0799,
      "velocity": 93,
      "chip": "ym2612"
    },
    {
      "channel": 1,
      "note": 52,
      "start": 14.9076,
      "duration": 0.1601,
      "velocity": 99,
      "chip": "ym2612"
    },
    {
      "channel": 0,
      "note": 79,
      "start": 14.9875,
      "duration": 0.0801,
      "velocity": 93,
      "chip": "ym2612"
    },
    {
      "channel": 0,
      "note": 83,
      "start": 15.0677,
      "duration": 0.0798,
      "velocity": 93,
      "chip": "ym2612"
    },
    {
      "channel": 1,
      "note": 57,
      "start": 15.0677,
      "duration": 0.1798,
      "velocity": 99,
      "chip": "ym2612"
    },
    {
      "channel": 0,
      "note": 84,
      "start": 15.1475,
      "duration": 0.1,
      "velocity": 93,
      "chip": "ym2612"
    },
    {
      "channel": 0,
      "note": 83,
      "start": 15.2475,
      "duration": 0.0799,
      "velocity": 93,
      "chip": "ym2612"
    },
    {
      "channel": 1,
      "note": 62,
      "start": 15.2476,
      "duration": 0.1601,
      "velocity": 99,
      "chip": "ym2612"
    },
    {
      "channel": 0,
      "note": 79,
      "start": 15.3275,
      "duration": 0.08,
      "velocity": 93,
      "chip": "ym2612"
    },
    {
      "channel": 0,
      "note": 76,
      "start": 15.4076,
      "duration": 0.0009,
      "velocity": 93,
      "chip": "ym2612"
    },
    {
      "channel": 1,
      "note": 64,
      "start": 15.4077,
      "duration": 0.0086,
      "velocity": 99,
      "chip": "ym2612"
    },
    {
      "channel": 0,
      "note": 72,
      "start": 15.4085,
      "duration": 0.0077,
      "velocity": 93,
      "chip": "ym2612"
    },
    {
      "channel": 0,
      "note": 71,
      "start": 15.4163,
      "duration": 0.0799,
      "velocity": 93,
      "chip": "ym2612"
    },
    {
      "channel": 1,
      "note": 57,
      "start": 15.4163,
      "duration": 0.1599,
      "velocity": 99,
      "chip": "ym2612"
    },
    {
      "channel": 0,
      "note": 72,
      "start": 15.4962,
      "duration": 0.08,
      "velocity": 93,
      "chip": "ym2612"
    },
    {
      "channel": 0,
      "note": 76,
      "start": 15.5763,
      "duration": 0.0799,
      "velocity": 93,
      "chip": "ym2612"
    },
    {
      "channel": 1,
      "note": 62,
      "start": 15.5763,
      "duration": 0.18,
      "velocity": 99,
      "chip": "ym2612"
    },
    {
      "channel": 0,
      "note": 79,
      "start": 15.6562,
      "duration": 0.1001,
      "velocity": 93,
      "chip": "ym2612"
    },
    {
      "channel": 0,
      "note": 83,
      "start": 15.7563,
      "duration": 0.0799,
      "velocity": 93,
      "chip": "ym2612"
    },
    {
      "channel": 1,
      "note": 64,
      "start": 15.7564,
      "duration": 0.16,
      "velocity": 99,
      "chip": "ym2612"
    },
    {
      "channel": 0,
      "note": 84,
      "start": 15.8362,
      "duration": 0.0801,
      "velocity": 93,
      "chip": "ym2612"
    },
    {
      "channel": 0,
      "note": 83,
      "start": 15.9164,
      "duration": 0.0008,
      "velocity": 93,
      "chip": "ym2612"
    },
    {
      "channel": 1,
      "note": 45,
      "start": 15.9165,
      "duration": 0.0567,
      "velocity": 99,
      "chip": "ym2612"
    },
    {
      "channel": 0,
      "note": 79,
      "start": 15.9173,
      "duration": 0.0559,
      "velocity": 93,
      "chip": "ym2612"
    },
    {
      "channel": 0,
      "note": 76,
      "start": 15.9732,
      "duration": 0.02,
      "velocity": 93,
      "chip": "ym2612"
    },
    {
      "channel": 1,
      "note": 52,
      "start": 15.9733,
      "duration": 0.16,
      "velocity": 99,
      "chip": "ym2612"
    },
    {
      "channel": 0,
      "note": 76,
      "start": 15.9932,
      "duration": 0.0599,
      "velocity": 93,
      "chip": "ym2612"
    },
    {
      "channel": 0,
      "note": 72,
      "start": 16.0531,
      "duration": 0.06,
      "velocity": 93,
      "chip": "ym2612"
    },
    {
      "channel": 0,
      "note": 71,
      "start": 16.1333,
      "duration": 0.0799,
      "velocity": 93,
      "chip": "ym2612"
    },
    {
      "channel": 1,
      "note": 57,
      "start": 16.1333,
      "duration": 0.1799,
      "velocity": 99,
      "chip": "ym2612"
    },
    {
      "channel": 0,
      "note": 72,
      "start": 16.2131,
      "duration": 0.1001,
      "velocity": 93,
      "chip": "ym2612"
    },
    {
      "channel": 0,
      "note": 76,
      "start": 16.3133,
      "duration": 0.0009,
      "velocity": 93,
      "chip": "ym2612"
    },
    {
      "channel": 1,
      "note": 62,
      "start": 16.3133,
      "duration": 0.0368,
      "velocity": 99,
      "chip": "ym2612"
    },
    {
      "channel": 0,
      "note": 79,
      "start": 16.3141,
      "duration": 0.036,
      "velocity": 93,
      "chip": "ym2612"
    },
    {
      "channel": 0,
      "note": 83,
      "start": 16.3502,
      "duration": 0.0009,
      "velocity": 93,
      "chip": "ym2612"
    },
    {
      "channel": 1,
      "note": 64,
      "start": 16.3502,
      "duration": 0.0016,
      "velocity": 99,
      "chip": "ym2612"
    },
    {
      "channel": 0,
      "note": 84,
      "start": 16.351,
      "duration": 0.0007,
      "velocity": 93,
      "chip": "ym2612"
    },
    {
      "channel": 0,
      "note": 83,
      "start": 16.3518,
      "duration": 0.0869,
      "velocity": 93,
      "chip": "ym2612"
    },
    {
      "channel": 1,
      "note": 62,
      "start": 16.3519,
      "duration": 0.1669,
      "velocity": 99,
      "chip": "ym2612"
    },
    {
      "channel": 0,
      "note": 79,
      "start": 16.4388,
      "duration": 0.0799,
      "velocity": 93,
      "chip": "ym2612"
    },
    {
      "channel": 0,
      "note": 76,
      "start": 16.5188,
      "duration": 0.0799,
      "velocity": 93,
      "chip": "ym2612"
    },
    {
      "channel": 1,
      "note": 57,
      "start": 16.5188,
      "duration": 0.1601,
      "velocity": 99,
      "chip": "ym2612"
    },
    {
      "channel": 0,
      "note": 72,
      "start": 16.5987,
      "duration": 0.0801,
      "velocity": 93,
      "chip": "ym2612"
    },
    {
      "channel": 0,
      "note": 71,
      "start": 16.6789,
      "duration": 0.0998,
      "velocity": 93,
      "chip": "ym2612"
    },
    {
      "channel": 1,
      "note": 52,
      "start": 16.679,
      "duration": 0.1801,
      "velocity": 99,
      "chip": "ym2612"
    },
    {
      "channel": 3,
      "note": 50,
      "start": 16.679,
      "duration": 0.0998,
      "velocity": 95,
      "chip": "ym2612"
    },
    {
      "channel": 0,
      "note": 72,
      "start": 16.7788,
      "duration": 0.0802,
      "velocity": 93,
      "chip": "ym2612"
    },
    {
      "channel": 3,
      "note": 52,
      "start": 16.7789,
      "duration": 0.0802,
      "velocity": 95,
      "chip": "ym2612"
    },
    {
      "channel": 0,
      "note": 73,
      "start": 16.859,
      "duration": 0.001,
      "velocity": 93,
      "chip": "ym2612"
    },
    {
      "channel": 1,
      "note": 45,
      "start": 16.859,
      "duration": 0.0367,
      "velocity": 99,
      "chip": "ym2612"
    },
    {
      "channel": 3,
      "note": 57,
      "start": 16.8591,
      "duration": 2.0082,
      "velocity": 95,
      "chip": "ym2612"
    },
    {
      "channel": 0,
      "note": 74,
      "start": 16.8599,
      "duration": 0.0357,
      "velocity": 93,
      "chip": "ym2612"
    },
    {
      "channel": 0,
      "note": 78,
      "start": 16.8957,
      "duration": 0.0999,
      "velocity": 93,
      "chip": "ym2612"
    },
    {
      "channel": 1,
      "note": 52,
      "start": 16.8958,
      "duration": 0.1801,
      "velocity": 99,
      "chip": "ym2612"
    },
    {
      "channel": 0,
      "note": 81,
      "start": 16.9957,
      "duration": 0.0801,
      "velocity": 93,
      "chip": "ym2612"
    },
    {
      "channel": 0,
      "note": 85,
      "start": 17.0758,
      "duration": 0.0799,
      "velocity": 93,
      "chip": "ym2612"
    },
    {
      "channel": 1,
      "note": 57,
      "start": 17.0759,
      "duration": 0.1599,
      "velocity": 99,
      "chip": "ym2612"
    },
    {
      "channel": 0,
      "note": 86,
      "start": 17.1556,
      "duration": 0.08,
      "velocity": 93,
      "chip": "ym2612"
    },
    {
      "channel": 0,
      "note": 85,
      "start": 17.2357,
      "duration": 0.0999,
      "velocity": 93,
      "chip": "ym2612"
    },
    {
      "channel": 1,
      "note": 62,
      "start": 17.2358,
      "duration": 0.1801,
      "velocity": 99,
      "chip": "ym2612"
    },
    {
      "channel": 0,
      "note": 81,
      "start": 17.3356,
      "duration": 0.0801,
      "velocity": 93,
      "chip": "ym2612"
    },
    {
      "channel": 0,
      "note": 78,
      "start": 17.4159,
      "duration": 0.0008,
      "velocity": 93,
      "chip": "ym2612"
    },
    {
      "channel": 1,
      "note": 64,
      "start": 17.4159,
      "duration": 0.0016,
      "velocity": 99,
      "chip": "ym2612"
    },
    {
      "channel": 0,
      "note": 74,
      "start": 17.4167,
      "duration": 0.0007,
      "velocity": 93,
      "chip": "ym2612"
    },
    {
      "channel": 0,
      "note": 73,
      "start": 17.4175,
      "duration": 0.0869,
      "velocity": 93,
      "chip": "ym2612"
    },
    {
      "channel": 1,
      "note": 57,
      "start": 17.4176,
      "duration": 0.1669,
      "velocity": 99,
      "chip": "ym2612"
    },
    {
      "channel": 0,
      "note": 74,
      "start": 17.5044,
      "duration": 0.08,
      "velocity": 93,
      "chip": "ym2612"
    },
    {
      "channel": 0,
      "note": 78,
      "start": 17.5844,
      "duration": 0.0799,
      "velocity": 93,
      "chip": "ym2612"
    },
    {
      "channel": 1,
      "note": 62,
      "start": 17.5845,
      "duration": 0.1599,
      "velocity": 99,
      "chip": "ym2612"
    },
    {
      "channel": 0,
      "note": 81,
      "start": 17.6644,
      "duration": 0.0799,
      "velocity": 93,
      "chip": "ym2612"
    },
    {
      "channel": 0,
      "note": 85,
      "start": 17.7444,
      "duration": 0.0999,
      "velocity": 93,
      "chip": "ym2612"
    },
    {
      "channel": 1,
      "note": 64,
      "start": 17.7445,
      "duration": 0.1801,
      "velocity": 99,
      "chip": "ym2612"
    },
    {
      "channel": 0,
      "note": 86,
      "start": 17.8444,
      "duration": 0.0801,
      "velocity": 93,
      "chip": "ym2612"
    },
    {
      "channel": 0,
      "note": 85,
      "start": 17.9246,
      "duration": 0.0009,
      "velocity": 93,
      "chip": "ym2612"
    },
    {
      "channel": 1,
      "note": 45,
      "start": 17.9246,
      "duration": 0.0368,
      "velocity": 99,
      "chip": "ym2612"
    },
    {
      "channel": 0,
      "note": 81,
      "start": 17.9254,
      "duration": 0.0359,
      "velocity": 93,
      "chip": "ym2612"
    },
    {
      "channel": 0,
      "note": 78,
      "start": 17.9615,
      "duration": 0.0399,
      "velocity": 93,
      "chip": "ym2612"
    },
    {
      "channel": 1,
      "note": 52,
      "start": 17.9615,
      "duration": 0.1799,
      "velocity": 99,
      "chip": "ym2612"
    },
    {
      "channel": 0,
      "note": 78,
      "start": 18.0014,
      "duration": 0.0599,
      "velocity": 93,
      "chip": "ym2612"
    },
    {
      "channel": 0,
      "note": 74,
      "start": 18.0613,
      "duration": 0.04,
      "velocity": 93,
      "chip": "ym2612"
    },
    {
      "channel": 0,
      "note": 73,
      "start": 18.1415,
      "duration": 0.0799,
      "velocity": 93,
      "chip": "ym2612"
    },
    {
      "channel": 1,
      "note": 57,
      "start": 18.1415,
      "duration": 0.1599,
      "velocity": 99,
      "chip": "ym2612"
    },
    {
      "channel": 0,
      "note": 74,
      "start": 18.2213,
      "duration": 0.0801,
      "velocity": 93,
      "chip": "ym2612"
    },
    {
      "channel": 0,
      "note": 78,
      "start": 18.3015,
      "duration": 0.0011,
      "velocity": 93,
      "chip": "ym2612"
    },
    {
      "channel": 1,
      "note": 62,
      "start": 18.3015,
      "duration": 0.0569,
      "velocity": 99,
      "chip": "ym2612"
    },
    {
      "channel": 0,
      "note": 81,
      "start": 18.3026,
      "duration": 0.0558,
      "velocity": 93,
      "chip": "ym2612"
    },
    {
      "channel": 0,
      "note": 85,
      "start": 18.3584,
      "duration": 0.0009,
      "velocity": 93,
      "chip": "ym2612"
    },
    {
      "channel": 1,
      "note": 64,
      "start": 18.3585,
      "duration": 0.0016,
      "velocity": 99,
      "chip": "ym2612"
    },
    {
      "channel": 0,
      "note": 86,
      "start": 18.3594,
      "duration": 0.0007,
      "velocity": 93,
      "chip": "ym2612"
    },
    {
      "channel": 0,
      "note": 85,
      "start": 18.3601,
      "duration": 0.0869,
      "velocity": 93,
      "chip": "ym2612"
    },
    {
      "channel": 1,
      "note": 62,
      "start": 18.3602,
      "duration": 0.167,
      "velocity": 99,
      "chip": "ym2612"
    },
    {
      "channel": 0,
      "note": 81,
      "start": 18.447,
      "duration": 0.0801,
      "velocity": 93,
      "chip": "ym2612"
    },
    {
      "channel": 0,
      "note": 78,
      "start": 18.5272,
      "duration": 0.0799,
      "velocity": 93,
      "chip": "ym2612"
    },
    {
      "channel": 1,
      "note": 57,
      "start": 18.5272,
      "duration": 0.1599,
      "velocity": 99,
      "chip": "ym2612"
    },
    {
      "channel": 0,
      "note": 74,
      "start": 18.607,
      "duration": 0.0801,
      "velocity": 93,
      "chip": "ym2612"
    },
    {
      "channel": 0,
      "note": 73,
      "start": 18.6872,
      "duration": 0.0799,
      "velocity": 93,
      "chip": "ym2612"
    },
    {
      "channel": 1,
      "note": 52,
      "start": 18.6872,
      "duration": 0.1398,
      "velocity": 99,
      "chip": "ym2612"
    },
    {
      "channel": 0,
      "note": 74,
      "start": 18.7672,
      "duration": 0.1001,
      "velocity": 93,
      "chip": "ym2612"
    },
    {
      "channel": 0,
      "note": 76,
      "start": 18.8673,
      "duration": 0.0009,
      "velocity": 93,
      "chip": "ym2612"
    },
    {
      "channel": 1,
      "note": 50,
      "start": 18.8674,
      "duration": 0.0366,
      "velocity": 99,
      "chip": "ym2612"
    },
    {
      "channel": 3,
      "note": 50,
      "start": 18.8674,
      "duration": 1.8278,
      "velocity": 95,
      "chip": "ym2612"
    },
    {
      "channel": 0,
      "note": 77,
      "start": 18.8682,
      "duration": 0.0358,
      "velocity": 93,
      "chip": "ym2612"
    },
    {
      "channel": 0,
      "note": 81,
      "start": 18.904,
      "duration": 0.0799,
      "velocity": 93,
      "chip": "ym2612"
    },
    {
      "channel": 1,
      "note": 57,
      "start": 18.9041,
      "duration": 0.1799,
      "velocity": 99,
      "chip": "ym2612"
    },
    {
      "channel": 0,
      "note": 84,
      "start": 18.9839,
      "duration": 0.1,
      "velocity": 93,
      "chip": "ym2612"
    },
    {
      "channel": 0,
      "note": 88,
      "start": 19.0839,
      "duration": 0.0799,
      "velocity": 93,
      "chip": "ym2612"
    },
    {
      "channel": 1,
      "note": 62,
      "start": 19.084,
      "duration": 0.16,
      "velocity": 99,
      "chip": "ym2612"
    },
    {
      "channel": 0,
      "note": 89,
      "start": 19.1639,
      "duration": 0.0801,
      "velocity": 93,
      "chip": "ym2612"
    },
    {
      "channel": 0,
      "note": 88,
      "start": 19.244,
      "duration": 0.0799,
      "velocity": 93,
      "chip": "ym2612"
    },
    {
      "channel": 1,
      "note": 67,
      "start": 19.2441,
      "duration": 0.18,
      "velocity": 99,
      "chip": "ym2612"
    },
    {
      "channel": 0,
      "note": 84,
      "start": 19.3239,
      "duration": 0.1001,
      "velocity": 93,
      "chip": "ym2612"
    },
    {
      "channel": 0,
      "note": 81,
      "start": 19.4241,
      "duration": 0.0008,
      "velocity": 93,
      "chip": "ym2612"
    },
    {
      "channel": 1,
      "note": 69,
      "start": 19.4241,
      "duration": 0.0016,
      "velocity": 99,
      "chip": "ym2612"
    },
    {
      "channel": 0,
      "note": 77,
      "start": 19.4249,
      "duration": 0.0007,
      "velocity": 93,
      "chip": "ym2612"
    },
    {
      "channel": 0,
      "note": 76,
      "start": 19.4258,
      "duration": 0.0668,
      "velocity": 93,
      "chip": "ym2612"
    },
    {
      "channel": 1,
      "note": 62,
      "start": 19.4258,
      "duration": 0.1669,
      "velocity": 99,
      "chip": "ym2612"
    },
    {
      "channel": 0,
      "note": 77,
      "start": 19.4926,
      "duration": 0.1001,
      "velocity": 93,
      "chip": "ym2612"
    },
    {
      "channel": 0,
      "note": 81,
      "start": 19.5927,
      "duration": 0.0799,
      "velocity": 93,
      "chip": "ym2612"
    },
    {
      "channel": 1,
      "note": 67,
      "start": 19.5928,
      "duration": 0.1599,
      "velocity": 99,
      "chip": "ym2612"
    },
    {
      "channel": 0,
      "note": 84,
      "start": 19.6726,
      "duration": 0.0801,
      "velocity": 93,
      "chip": "ym2612"
    },
    {
      "channel": 0,
      "note": 88,
      "start": 19.7527,
      "duration": 0.0799,
      "velocity": 93,
      "chip": "ym2612"
    },
    {
      "channel": 1,
      "note": 69,
      "start": 19.7528,
      "duration": 0.18,
      "velocity": 99,
      "chip": "ym2612"
    },
    {
      "channel": 0,
      "note": 89,
      "start": 19.8326,
      "duration": 0.1001,
      "velocity": 93,
      "chip": "ym2612"
    },
    {
      "channel": 0,
      "note": 88,
      "start": 19.9328,
      "duration": 0.0009,
      "velocity": 93,
      "chip": "ym2612"
    },
    {
      "channel": 1,
      "note": 50,
      "start": 19.9329,
      "duration": 0.0368,
      "velocity": 99,
      "chip": "ym2612"
    },
    {
      "channel": 0,
      "note": 84,
      "start": 19.9337,
      "duration": 0.0359,
      "velocity": 93,
      "chip": "ym2612"
    },
    {
      "channel": 0,
      "note": 81,
      "start": 19.9696,
      "duration": 0.0399,
      "velocity": 93,
      "chip": "ym2612"
    },
    {
      "channel": 1,
      "note": 57,
      "start": 19.9697,
      "duration": 0.1799,
      "velocity": 99,
      "chip": "ym2612"
    },
    {
      "channel": 0,
      "note": 81,
      "start": 20.0095,
      "duration": 0.0399,
      "velocity": 93,
      "chip": "ym2612"
    },
    {
      "channel": 0,
      "note": 77,
      "start": 20.0495,
      "duration": 0.0599,
      "velocity": 93,
      "chip": "ym2612"
    },
    {
      "channel": 0,
      "note": 76,
      "start": 20.1496,
      "duration": 0.0799,
      "velocity": 93,
      "chip": "ym2612"
    },
    {
      "channel": 1,
      "note": 62,
      "start": 20.1497,
      "duration": 0.16,
      "velocity": 99,
      "chip": "ym2612"
    },
    {
      "channel": 0,
      "note": 77,
      "start": 20.2295,
      "duration": 0.0801,
      "velocity": 93,
      "chip": "ym2612"
    },
    {
      "channel": 0,
      "note": 81,
      "start": 20.3097,
      "duration": 0.0008,
      "velocity": 93,
      "chip": "ym2612"
    },
    {
      "channel": 1,
      "note": 67,
      "start": 20.3098,
      "duration": 0.0568,
      "velocity": 99,
      "chip": "ym2612"
    },
    {
      "channel": 0,
      "note": 84,
      "start": 20.3105,
      "duration": 0.056,
      "velocity": 93,
      "chip": "ym2612"
    },
    {
      "channel": 0,
      "note": 88,
      "start": 20.3666,
      "duration": 0.0009,
      "velocity": 93,
      "chip": "ym2612"
    },
    {
      "channel": 1,
      "note": 69,
      "start": 20.3666,
      "duration": 0.0015,
      "velocity": 99,
      "chip": "ym2612"
    },
    {
      "channel": 0,
      "note": 89,
      "start": 20.3674,
      "duration": 0.0007,
      "velocity": 93,
      "chip": "ym2612"
    },
    {
      "channel": 0,
      "note": 88,
      "start": 20.3682,
      "duration": 0.0668,
      "velocity": 93,
      "chip": "ym2612"
    },
    {
      "channel": 1,
      "note": 67,
      "start": 20.3682,
      "duration": 0.1668,
      "velocity": 99,
      "chip": "ym2612"
    },
    {
      "channel": 0,
      "note": 84,
      "start": 20.435,
      "duration": 0.1,
      "velocity": 93,
      "chip": "ym2612"
    },
    {
      "channel": 0,
      "note": 81,
      "start": 20.5351,
      "duration": 0.0799,
      "velocity": 93,
      "chip": "ym2612"
    },
    {
      "channel": 1,
      "note": 62,
      "start": 20.5351,
      "duration": 0.16,
      "velocity": 99,
      "chip": "ym2612"
    },
    {
      "channel": 0,
      "note": 77,
      "start": 20.6151,
      "duration": 0.08,
      "velocity": 93,
      "chip": "ym2612"
    },
    {
      "channel": 0,
      "note": 76,
      "start": 20.6951,
      "duration": 0.0799,
      "velocity": 93,
      "chip": "ym2612"
    },
    {
      "channel": 1,
      "note": 57,
      "start": 20.6952,
      "duration": 0.1801,
      "velocity": 99,
      "chip": "ym2612"
    },
    {
      "channel": 3,
      "note": 55,
      "start": 20.6953,
      "duration": 0.0799,
      "velocity": 95,
      "chip": "ym2612"
    },
    {
      "channel": 0,
      "note": 77,
      "start": 20.7751,
      "duration": 0.1001,
      "velocity": 93,
      "chip": "ym2612"
    },
    {
      "channel": 3,
      "note": 57,
      "start": 20.7752,
      "duration": 0.1002,
      "velocity": 95,
      "chip": "ym2612"
    },
    {
      "channel": 0,
      "note": 78,
      "start": 20.8753,
      "duration": 0.001,
      "velocity": 93,
      "chip": "ym2612"
    },
    {
      "channel": 1,
      "note": 50,
      "start": 20.8753,
      "duration": 0.0368,
      "velocity": 99,
      "chip": "ym2612"
    },
    {
      "channel": 3,
      "note": 62,
      "start": 20.8754,
      "duration": 1.6478,
      "velocity": 95,
      "chip": "ym2612"
    },
    {
      "channel": 0,
      "note": 79,
      "start": 20.8762,
      "duration": 0.0358,
      "velocity": 93,
      "chip": "ym2612"
    },
    {
      "channel": 0,
      "note": 83,
      "start": 20.9121,
      "duration": 0.0799,
      "velocity": 93,
      "chip": "ym2612"
    },
    {
      "channel": 1,
      "note": 57,
      "start": 20.9122,
      "duration": 0.1599,
      "velocity": 99,
      "chip": "ym2612"
    },
    {
      "channel": 0,
      "note": 86,
      "start": 20.992,
      "duration": 0.08,
      "velocity": 93,
      "chip": "ym2612"
    },
    {
      "channel": 0,
      "note": 90,
      "start": 21.0721,
      "duration": 0.0999,
      "velocity": 93,
      "chip": "ym2612"
    },
    {
      "channel": 1,
      "note": 62,
      "start": 21.0721,
      "duration": 0.18,
      "velocity": 99,
      "chip": "ym2612"
    },
    {
      "channel": 0,
      "note": 91,
      "start": 21.172,
      "duration": 0.0801,
      "velocity": 93,
      "chip": "ym2612"
    },
    {
      "channel": 0,
      "note": 90,
      "start": 21.2521,
      "duration": 0.0799,
      "velocity": 93,
      "chip": "ym2612"
    },
    {
      "channel": 1,
      "note": 67,
      "start": 21.2522,
      "duration": 0.16,
      "velocity": 99,
      "chip": "ym2612"
    },
    {
      "channel": 0,
      "note": 86,
      "start": 21.332,
      "duration": 0.0801,
      "velocity": 93,
      "chip": "ym2612"
    },
    {
      "channel": 0,
      "note": 83,
      "start": 21.4122,
      "duration": 0.001,
      "velocity": 93,
      "chip": "ym2612"
    },
    {
      "channel": 1,
      "note": 69,
      "start": 21.4123,
      "duration": 0.0085,
      "velocity": 99,
      "chip": "ym2612"
    },
    {
      "channel": 0,
      "note": 79,
      "start": 21.4132,
      "duration": 0.0075,
      "velocity": 93,
      "chip": "ym2612"
    },
    {
      "channel": 0,
      "note": 78,
      "start": 21.4208,
      "duration": 0.0799,
      "velocity": 93,
      "chip": "ym2612"
    },
    {
      "channel": 1,
      "note": 62,
      "start": 21.4209,
      "duration": 0.1599,
      "velocity": 99,
      "chip": "ym2612"
    },
    {
      "channel": 0,
      "note": 79,
      "start": 21.5007,
      "duration": 0.0801,
      "velocity": 93,
      "chip": "ym2612"
    },
    {
      "channel": 0,
      "note": 83,
      "start": 21.5808,
      "duration": 0.0999,
      "velocity": 93,
      "chip": "ym2612"
    },
    {
      "channel": 1,
      "note": 67,
      "start": 21.5809,
      "duration": 0.1799,
      "velocity": 99,
      "chip": "ym2612"
    },
    {
      "channel": 0,
      "note": 86,
      "start": 21.6807,
      "duration": 0.0801,
      "velocity": 93,
      "chip": "ym2612"
    },
    {
      "channel": 0,
      "note": 90,
      "start": 21.7608,
      "duration": 0.0799,
      "velocity": 93,
      "chip": "ym2612"
    },
    {
      "channel": 1,
      "note": 69,
      "start": 21.7609,
      "duration": 0.1601,
      "velocity": 99,
      "chip": "ym2612"
    },
    {
      "channel": 0,
      "note": 91,
      "start": 21.8407,
      "duration": 0.0802,
      "velocity": 93,
      "chip": "ym2612"
    },
    {
      "channel": 0,
      "note": 90,
      "start": 21.9209,
      "duration": 0.001,
      "velocity": 93,
      "chip": "ym2612"
    },
    {
      "channel": 1,
      "note": 50,
      "start": 21.921,
      "duration": 0.0567,
      "velocity": 99,
      "chip": "ym2612"
    },
    {
      "channel": 0,
      "note": 86,
      "start": 21.9219,
      "duration": 0.0557,
      "velocity": 93,
      "chip": "ym2612"
    },
    {
      "channel": 0,
      "note": 83,
      "start": 21.9777,
      "duration": 0.0199,
      "velocity": 93,
      "chip": "ym2612"
    },
    {
      "channel": 1,
      "note": 57,
      "start": 21.9777,
      "duration": 0.1599,
      "velocity": 99,
      "chip": "ym2612"
    },
    {
      "channel": 0,
      "note": 83,
      "start": 21.9976,
      "duration": 0.0599,
      "velocity": 93,
      "chip": "ym2612"
    },
    {
      "channel": 0,
      "note": 79,
      "start": 22.0576,
      "duration": 0.0599,
      "velocity": 93,
      "chip": "ym2612"
    },
    {
      "channel": 0,
      "note": 78,
      "start": 22.1377,
      "duration": 0.0999,
      "velocity": 93,
      "chip": "ym2612"
    },
    {
      "channel": 1,
      "note": 62,
      "start": 22.1377,
      "duration": 0.18,
      "velocity": 99,
      "chip": "ym2612"
    },
    {
      "channel": 0,
      "note": 79,
      "start": 22.2375,
      "duration": 0.0801,
      "velocity": 93,
      "chip": "ym2612"
    },
    {
      "channel": 0,
      "note": 83,
      "start": 22.3177,
      "duration": 0.0008,
      "velocity": 93,
      "chip": "ym2612"
    },
    {
      "channel": 1,
      "note": 67,
      "start": 22.3178,
      "duration": 0.0368,
      "velocity": 99,
      "chip": "ym2612"
    },
    {
      "channel": 0,
      "note": 86,
      "start": 22.3186,
      "duration": 0.036,
      "velocity": 93,
      "chip": "ym2612"
    },
    {
      "channel": 0,
      "note": 90,
      "start": 22.3546,
      "duration": 0.001,
      "velocity": 93,
      "chip": "ym2612"
    },
    {
      "channel": 1,
      "note": 69,
      "start": 22.3547,
      "duration": 0.0085,
      "velocity": 99,
      "chip": "ym2612"
    },
    {
      "channel": 0,
      "note": 91,
      "start": 22.3556,
      "duration": 0.0075,
      "velocity": 93,
      "chip": "ym2612"
    },
    {
      "channel": 0,
      "note": 90,
      "start": 22.3632,
      "duration": 0.0799,
      "velocity": 93,
      "chip": "ym2612"
    },
    {
      "channel": 1,
      "note": 67,
      "start": 22.3633,
      "duration": 0.1599,
      "velocity": 99,
      "chip": "ym2612"
    },
    {
      "channel": 0,
      "note": 86,
      "start": 22.4431,
      "duration": 0.0801,
      "velocity": 93,
      "chip": "ym2612"
    },
    {
      "channel": 0,
      "note": 83,
      "start": 22.5232,
      "duration": 0.0999,
      "velocity": 93,
      "chip": "ym2612"
    },
    {
      "channel": 1,
      "note": 62,
      "start": 22.5233,
      "duration": 0.1799,
      "velocity": 99,
      "chip": "ym2612"
    },
    {
      "channel": 3,
      "note": 60,
      "start": 22.5234,
      "duration": 0.1799,
      "velocity": 95,
      "chip": "ym2612"
    },
    {
      "channel": 0,
      "note": 79,
      "start": 22.6232,
      "duration": 0.08,
      "velocity": 93,
      "chip": "ym2612"
    },
    {
      "channel": 0,
      "note": 78,
      "start": 22.7032,
      "duration": 0.0799,
      "velocity": 93,
      "chip": "ym2612"
    },
    {
      "channel": 1,
      "note": 57,
      "start": 22.7033,
      "duration": 0.1601,
      "velocity": 99,
      "chip": "ym2612"
    },
    {
      "channel": 3,
      "note": 62,
      "start": 22.7034,
      "duration": 0.1601,
      "velocity": 95,
      "chip": "ym2612"
    },
    {
      "channel": 0,
      "note": 79,
      "start": 22.7831,
      "duration": 0.0803,
      "velocity": 93,
      "chip": "ym2612"
    },
    {
      "channel": 0,
      "note": 76,
      "start": 22.8634,
      "duration": 0.001,
      "velocity": 93,
      "chip": "ym2612"
    },
    {
      "channel": 1,
      "note": 50,
      "start": 22.8635,
      "duration": 0.0566,
      "velocity": 99,
      "chip": "ym2612"
    },
    {
      "channel": 3,
      "note": 50,
      "start": 22.8635,
      "duration": 1.9708,
      "velocity": 95,
      "chip": "ym2612"
    },
    {
      "channel": 0,
      "note": 77,
      "start": 22.8644,
      "duration": 0.0556,
      "velocity": 93,
      "chip": "ym2612"
    },
    {
      "channel": 0,
      "note": 81,
      "start": 22.9201,
      "duration": 0.0799,
      "velocity": 93,
      "chip": "ym2612"
    },
    {
      "channel": 1,
      "note": 57,
      "start": 22.9202,
      "duration": 0.1599,
      "velocity": 99,
      "chip": "ym2612"
    },
    {
      "channel": 0,
      "note": 84,
      "start": 23.0,
      "duration": 0.08,
      "velocity": 93,
      "chip": "ym2612"
    },
    {
      "channel": 0,
      "note": 88,
      "start": 23.08,
      "duration": 0.0999,
      "velocity": 93,
      "chip": "ym2612"
    },
    {
      "channel": 1,
      "note": 62,
      "start": 23.0801,
      "duration": 0.18,
      "velocity": 99,
      "chip": "ym2612"
    },
    {
      "channel": 0,
      "note": 89,
      "start": 23.18,
      "duration": 0.0801,
      "velocity": 93,
      "chip": "ym2612"
    },
    {
      "channel": 0,
      "note": 88,
      "start": 23.2601,
      "duration": 0.0799,
      "velocity": 93,
      "chip": "ym2612"
    },
    {
      "channel": 1,
      "note": 67,
      "start": 23.2602,
      "duration": 0.16,
      "velocity": 99,
      "chip": "ym2612"
    },
    {
      "channel": 0,
      "note": 84,
      "start": 23.34,
      "duration": 0.0801,
      "velocity": 93,
      "chip": "ym2612"
    },
    {
      "channel": 0,
      "note": 81,
      "start": 23.4202,
      "duration": 0.0008,
      "velocity": 93,
      "chip": "ym2612"
    },
    {
      "channel": 1,
      "note": 69,
      "start": 23.4202,
      "duration": 0.0085,
      "velocity": 99,
      "chip": "ym2612"
    },
    {
      "channel": 0,
      "note": 77,
      "start": 23.4211,
      "duration": 0.0076,
      "velocity": 93,
      "chip": "ym2612"
    },
    {
      "channel": 0,
      "note": 76,
      "start": 23.4288,
      "duration": 0.0799,
      "velocity": 93,
      "chip": "ym2612"
    },
    {
      "channel": 1,
      "note": 62,
      "start": 23.4288,
      "duration": 0.1599,
      "velocity": 99,
      "chip": "ym2612"
    },
    {
      "channel": 0,
      "note": 77,
      "start": 23.5086,
      "duration": 0.0801,
      "velocity": 93,
      "chip": "ym2612"
    },
    {
      "channel": 0,
      "note": 81,
      "start": 23.5888,
      "duration": 0.0799,
      "velocity": 93,
      "chip": "ym2612"
    },
    {
      "channel": 1,
      "note": 67,
      "start": 23.5888,
      "duration": 0.1799,
      "velocity": 99,
      "chip": "ym2612"
    },
    {
      "channel": 0,
      "note": 84,
      "start": 23.6686,
      "duration": 0.1001,
      "velocity": 93,
      "chip": "ym2612"
    },
    {
      "channel": 0,
      "note": 88,
      "start": 23.7688,
      "duration": 0.0799,
      "velocity": 93,
      "chip": "ym2612"
    },
    {
      "channel": 1,
      "note": 69,
      "start": 23.7688,
      "duration": 0.1601,
      "velocity": 99,
      "chip": "ym2612"
    },
    {
      "channel": 0,
      "note": 89,
      "start": 23.8486,
      "duration": 0.0802,
      "velocity": 93,
      "chip": "ym2612"
    },
    {
      "channel": 0,
      "note": 88,
      "start": 23.9289,
      "duration": 0.0008,
      "velocity": 93,
      "chip": "ym2612"
    },
    {
      "channel": 1,
      "note": 50,
      "start": 23.929,
      "duration": 0.0567,
      "velocity": 99,
      "chip": "ym2612"
    },
    {
      "channel": 0,
      "note": 84,
      "start": 23.9297,
      "duration": 0.0559,
      "velocity": 93,
      "chip": "ym2612"
    },
    {
      "channel": 0,
      "note": 81,
      "start": 23.9857,
      "duration": 0.0199,
      "velocity": 93,
      "chip": "ym2612"
    },
    {
      "channel": 1,
      "note": 57,
      "start": 23.9857,
      "duration": 0.1599,
      "velocity": 99,
      "chip": "ym2612"
    },
    {
      "channel": 0,
      "note": 81,
      "start": 24.0056,
      "duration": 0.0599,
      "velocity": 93,
      "chip": "ym2612"
    },
    {
      "channel": 0,
      "note": 77,
      "start": 24.0656,
      "duration": 0.0599,
      "velocity": 93,
      "chip": "ym2612"
    },
    {
      "channel": 0,
      "note": 76,
      "start": 24.1457,
      "duration": 0.0799,
      "velocity": 93,
      "chip": "ym2612"
    },
    {
      "channel": 1,
      "note": 62,
      "start": 24.1457,
      "duration": 0.1799,
      "velocity": 99,
      "chip": "ym2612"
    },
    {
      "channel": 0,
      "note": 77,
      "start": 24.2255,
      "duration": 0.1001,
      "velocity": 93,
      "chip": "ym2612"
    },
    {
      "channel": 0,
      "note": 81,
      "start": 24.3257,
      "duration": 0.0799,
      "velocity": 93,
      "chip": "ym2612"
    },
    {
      "channel": 1,
      "note": 67,
      "start": 24.3257,
      "duration": 0.16,
      "velocity": 99,
      "chip": "ym2612"
    },
    {
      "channel": 0,
      "note": 84,
      "start": 24.4055,
      "duration": 0.0801,
      "velocity": 93,
      "chip": "ym2612"
    },
    {
      "channel": 0,
      "note": 88,
      "start": 24.4857,
      "duration": 0.0008,
      "velocity": 93,
      "chip": "ym2612"
    },
    {
      "channel": 1,
      "note": 69,
      "start": 24.4858,
      "duration": 0.0085,
      "velocity": 99,
      "chip": "ym2612"
    },
    {
      "channel": 0,
      "note": 89,
      "start": 24.4866,
      "duration": 0.0077,
      "velocity": 93,
      "chip": "ym2612"
    },
    {
      "channel": 0,
      "note": 88,
      "start": 24.4943,
      "duration": 0.0799,
      "velocity": 93,
      "chip": "ym2612"
    },
    {
      "channel": 1,
      "note": 67,
      "start": 24.4944,
      "duration": 0.1599,
      "velocity": 99,
      "chip": "ym2612"
    },
    {
      "channel": 0,
      "note": 84,
      "start": 24.5742,
      "duration": 0.08,
      "velocity": 93,
      "chip": "ym2612"
    },
    {
      "channel": 0,
      "note": 81,
      "start": 24.6542,
      "duration": 0.0799,
      "velocity": 93,
      "chip": "ym2612"
    },
    {
      "channel": 1,
      "note": 62,
      "start": 24.6543,
      "duration": 0.18,
      "velocity": 99,
      "chip": "ym2612"
    },
    {
      "channel": 0,
      "note": 77,
      "start": 24.7342,
      "duration": 0.1,
      "velocity": 93,
      "chip": "ym2612"
    },
    {
      "channel": 0,
      "note": 76,
      "start": 24.8343,
      "duration": 0.0799,
      "velocity": 93,
      "chip": "ym2612"
    },
    {
      "channel": 1,
      "note": 57,
      "start": 24.8344,
      "duration": 0.1601,
      "velocity": 99,
      "chip": "ym2612"
    },
    {
      "channel": 3,
      "note": 55,
      "start": 24.8344,
      "duration": 0.0799,
      "velocity": 95,
      "chip": "ym2612"
    },
    {
      "channel": 0,
      "note": 77,
      "start": 24.9143,
      "duration": 0.0801,
      "velocity": 93,
      "chip": "ym2612"
    },
    {
      "channel": 3,
      "note": 57,
      "start": 24.9144,
      "duration": 0.0801,
      "velocity": 95,
      "chip": "ym2612"
    },
    {
      "channel": 0,
      "note": 78,
      "start": 24.9944,
      "duration": 0.0009,
      "velocity": 93,
      "chip": "ym2612"
    },
    {
      "channel": 1,
      "note": 50,
      "start": 24.9945,
      "duration": 0.0566,
      "velocity": 99,
      "chip": "ym2612"
    },
    {
      "channel": 3,
      "note": 62,
      "start": 24.9946,
      "duration": 1.8367,
      "velocity": 95,
      "chip": "ym2612"
    },
    {
      "channel": 0,
      "note": 79,
      "start": 24.9953,
      "duration": 0.0558,
      "velocity": 93,
      "chip": "ym2612"
    },
    {
      "channel": 0,
      "note": 83,
      "start": 25.0512,
      "duration": 0.0799,
      "velocity": 93,
      "chip": "ym2612"
    },
    {
      "channel": 1,
      "note": 57,
      "start": 25.0512,
      "duration": 0.1599,
      "velocity": 99,
      "chip": "ym2612"
    },
    {
      "channel": 0,
      "note": 86,
      "start": 25.131,
      "duration": 0.08,
      "velocity": 93,
      "chip": "ym2612"
    },
    {
      "channel": 0,
      "note": 90,
      "start": 25.2111,
      "duration": 0.0799,
      "velocity": 93,
      "chip": "ym2612"
    },
    {
      "channel": 1,
      "note": 62,
      "start": 25.2112,
      "duration": 0.1799,
      "velocity": 99,
      "chip": "ym2612"
    },
    {
      "channel": 0,
      "note": 91,
      "start": 25.291,
      "duration": 0.1,
      "velocity": 93,
      "chip": "ym2612"
    },
    {
      "channel": 0,
      "note": 90,
      "start": 25.3911,
      "duration": 0.0799,
      "velocity": 93,
      "chip": "ym2612"
    },
    {
      "channel": 1,
      "note": 67,
      "start": 25.3912,
      "duration": 0.1601,
      "velocity": 99,
      "chip": "ym2612"
    },
    {
      "channel": 0,
      "note": 86,
      "start": 25.471,
      "duration": 0.0801,
      "velocity": 93,
      "chip": "ym2612"
    },
    {
      "channel": 0,
      "note": 83,
      "start": 25.5512,
      "duration": 0.0009,
      "velocity": 93,
      "chip": "ym2612"
    },
    {
      "channel": 1,
      "note": 69,
      "start": 25.5513,
      "duration": 0.0086,
      "velocity": 99,
      "chip": "ym2612"
    },
    {
      "channel": 0,
      "note": 79,
      "start": 25.5522,
      "duration": 0.0076,
      "velocity": 93,
      "chip": "ym2612"
    },
    {
      "channel": 0,
      "note": 78,
      "start": 25.5599,
      "duration": 0.0799,
      "velocity": 93,
      "chip": "ym2612"
    },
    {
      "channel": 1,
      "note": 62,
      "start": 25.56,
      "duration": 0.1599,
      "velocity": 99,
      "chip": "ym2612"
    },
    {
      "channel": 0,
      "note": 79,
      "start": 25.6398,
      "duration": 0.0801,
      "velocity": 93,
      "chip": "ym2612"
    },
    {
      "channel": 0,
      "note": 83,
      "start": 25.7199,
      "duration": 0.0799,
      "velocity": 93,
      "chip": "ym2612"
    },
    {
      "channel": 1,
      "note": 67,
      "start": 25.72,
      "duration": 0.16,
      "velocity": 99,
      "chip": "ym2612"
    },
    {
      "channel": 0,
      "note": 86,
      "start": 25.7998,
      "duration": 0.0801,
      "velocity": 93,
      "chip": "ym2612"
    },
    {
      "channel": 0,
      "note": 90,
      "start": 25.88,
      "duration": 0.001,
      "velocity": 93,
      "chip": "ym2612"
    },
    {
      "channel": 1,
      "note": 69,
      "start": 25.88,
      "duration": 0.0567,
      "velocity": 99,
      "chip": "ym2612"
    },
    {
      "channel": 0,
      "note": 91,
      "start": 25.8809,
      "duration": 0.0558,
      "velocity": 93,
      "chip": "ym2612"
    },
    {
      "channel": 0,
      "note": 90,
      "start": 25.9367,
      "duration": 0.0799,
      "velocity": 93,
      "chip": "ym2612"
    },
    {
      "channel": 1,
      "note": 50,
      "start": 25.9368,
      "duration": 0.1599,
      "velocity": 99,
      "chip": "ym2612"
    },
    {
      "channel": 0,
      "note": 86,
      "start": 26.0166,
      "duration": 0.0801,
      "velocity": 93,
      "chip": "ym2612"
    },
    {
      "channel": 0,
      "note": 83,
      "start": 26.0967,
      "duration": 0.0399,
      "velocity": 93,
      "chip": "ym2612"
    },
    {
      "channel": 1,
      "note": 57,
      "start": 26.0968,
      "duration": 0.1799,
      "velocity": 99,
      "chip": "ym2612"
    },
    {
      "channel": 0,
      "note": 83,
      "start": 26.1367,
      "duration": 0.0599,
      "velocity": 93,
      "chip": "ym2612"
    },
    {
      "channel": 0,
      "note": 79,
      "start": 26.1967,
      "duration": 0.0599,
      "velocity": 93,
      "chip": "ym2612"
    },
    {
      "channel": 0,
      "note": 78,
      "start": 26.2767,
      "duration": 0.0799,
      "velocity": 93,
      "chip": "ym2612"
    },
    {
      "channel": 1,
      "note": 62,
      "start": 26.2768,
      "duration": 0.16,
      "velocity": 99,
      "chip": "ym2612"
    },
    {
      "channel": 0,
      "note": 79,
      "start": 26.3566,
      "duration": 0.0801,
      "velocity": 93,
      "chip": "ym2612"
    },
    {
      "channel": 0,
      "note": 83,
      "start": 26.4368,
      "duration": 0.001,
      "velocity": 93,
      "chip": "ym2612"
    },
    {
      "channel": 1,
      "note": 67,
      "start": 26.4369,
      "duration": 0.0568,
      "velocity": 99,
      "chip": "ym2612"
    },
    {
      "channel": 0,
      "note": 86,
      "start": 26.4378,
      "duration": 0.0559,
      "velocity": 93,
      "chip": "ym2612"
    },
    {
      "channel": 0,
      "note": 90,
      "start": 26.4937,
      "duration": 0.0008,
      "velocity": 93,
      "chip": "ym2612"
    },
    {
      "channel": 1,
      "note": 69,
      "start": 26.4937,
      "duration": 0.0016,
      "velocity": 99,
      "chip": "ym2612"
    },
    {
      "channel": 0,
      "note": 91,
      "start": 26.4945,
      "duration": 0.0007,
      "velocity": 93,
      "chip": "ym2612"
    },
    {
      "channel": 0,
      "note": 90,
      "start": 26.4953,
      "duration": 0.0868,
      "velocity": 93,
      "chip": "ym2612"
    },
    {
      "channel": 1,
      "note": 67,
      "start": 26.4954,
      "duration": 0.1668,
      "velocity": 99,
      "chip": "ym2612"
    },
    {
      "channel": 0,
      "note": 86,
      "start": 26.5821,
      "duration": 0.08,
      "velocity": 93,
      "chip": "ym2612"
    },
    {
      "channel": 0,
      "note": 83,
      "start": 26.6622,
      "duration": 0.0799,
      "velocity": 93,
      "chip": "ym2612"
    },
    {
      "channel": 1,
      "note": 62,
      "start": 26.6623,
      "duration": 0.1601,
      "velocity": 99,
      "chip": "ym2612"
    },
    {
      "channel": 0,
      "note": 79,
      "start": 26.7422,
      "duration": 0.0801,
      "velocity": 93,
      "chip": "ym2612"
    },
    {
      "channel": 0,
      "note": 78,
      "start": 26.8224,
      "duration": 0.0011,
      "velocity": 93,
      "chip": "ym2612"
    },
    {
      "channel": 1,
      "note": 57,
      "start": 26.8225,
      "duration": 0.0015,
      "velocity": 99,
      "chip": "ym2612"
    },
    {
      "channel": 0,
      "note": 79,
      "start": 26.8235,
      "duration": 0.0076,
      "velocity": 93,
      "chip": "ym2612"
    },
    {
      "channel": 0,
      "note": 71,
      "start": 26.8312,
      "duration": 0.0009,
      "velocity": 93,
      "chip": "ym2612"
    },
    {
      "channel": 1,
      "note": 45,
      "start": 26.8313,
      "duration": 0.0367,
      "velocity": 99,
      "chip": "ym2612"
    },
    {
      "channel": 3,
      "note": 45,
      "start": 26.8313,
      "duration": 1.8286,
      "velocity": 95,
      "chip": "ym2612"
    },
    {
      "channel": 0,
      "note": 72,
      "start": 26.8322,
      "duration": 0.0357,
      "velocity": 93,
      "chip": "ym2612"
    },
    {
      "channel": 0,
      "note": 76,
      "start": 26.868,
      "duration": 0.0999,
      "velocity": 93,
      "chip": "ym2612"
    },
    {
      "channel": 1,
      "note": 52,
      "start": 26.868,
      "duration": 0.18,
      "velocity": 99,
      "chip": "ym2612"
    },
    {
      "channel": 0,
      "note": 79,
      "start": 26.9679,
      "duration": 0.0801,
      "velocity": 93,
      "chip": "ym2612"
    },
    {
      "channel": 0,
      "note": 83,
      "start": 27.048,
      "duration": 0.0799,
      "velocity": 93,
      "chip": "ym2612"
    },
    {
      "channel": 1,
      "note": 57,
      "start": 27.0481,
      "duration": 0.1599,
      "velocity": 99,
      "chip": "ym2612"
    },
    {
      "channel": 0,
      "note": 84,
      "start": 27.1279,
      "duration": 0.08,
      "velocity": 93,
      "chip": "ym2612"
    },
    {
      "channel": 0,
      "note": 83,
      "start": 27.208,
      "duration": 0.0999,
      "velocity": 93,
      "chip": "ym2612"
    },
    {
      "channel": 1,
      "note": 62,
      "start": 27.208,
      "duration": 0.1806,
      "velocity": 99,
      "chip": "ym2612"
    },
    {
      "channel": 0,
      "note": 79,
      "start": 27.308,
      "duration": 0.0806,
      "velocity": 93,
      "chip": "ym2612"
    },
    {
      "channel": 0,
      "note": 76,
      "start": 27.3885,
      "duration": 0.0013,
      "velocity": 93,
      "chip": "ym2612"
    },
    {
      "channel": 1,
      "note": 64,
      "start": 27.3886,
      "duration": 0.0024,
      "velocity": 99,
      "chip": "ym2612"
    },
    {
      "channel": 2,
      "note": 76,
      "start": 27.3887,
      "duration": 0.3285,
      "velocity": 127,
      "chip": "ym2612"
    },
    {
      "channel": 4,
      "note": 52,
      "start": 27.3889,
      "duration": 0.3284,
      "velocity": 93,
      "chip": "ym2612"
    },
    {
      "channel": 0,
      "note": 72,
      "start": 27.3899,
      "duration": 0.001,
      "velocity": 93,
      "chip": "ym2612"
    },
    {
      "channel": 0,
      "note": 71,
      "start": 27.3909,
      "duration": 0.0859,
      "velocity": 93,
      "chip": "ym2612"
    },
    {
      "channel": 1,
      "note": 57,
      "start": 27.391,
      "duration": 0.1659,
      "velocity": 99,
      "chip": "ym2612"
    },
    {
      "channel": 0,
      "note": 72,
      "start": 27.4768,
      "duration": 0.08,
      "velocity": 93,
      "chip": "ym2612"
    },
    {
      "channel": 0,
      "note": 76,
      "start": 27.5568,
      "duration": 0.0799,
      "velocity": 93,
      "chip": "ym2612"
    },
    {
      "channel": 1,
      "note": 62,
      "start": 27.5569,
      "duration": 0.1602,
      "velocity": 99,
      "chip": "ym2612"
    },
    {
      "channel": 0,
      "note": 79,
      "start": 27.6368,
      "duration": 0.0802,
      "velocity": 93,
      "chip": "ym2612"
    },
    {
      "channel": 0,
      "note": 83,
      "start": 27.717,
      "duration": 0.0798,
      "velocity": 93,
      "chip": "ym2612"
    },
    {
      "channel": 1,
      "note": 64,
      "start": 27.7171,
      "duration": 0.18,
      "velocity": 99,
      "chip": "ym2612"
    },
    {
      "channel": 2,
      "note": 83,
      "start": 27.7172,
      "duration": 0.18,
      "velocity": 127,
      "chip": "ym2612"
    },
    {
      "channel": 4,
      "note": 59,
      "start": 27.7173,
      "duration": 0.18,
      "velocity": 93,
      "chip": "ym2612"
    },
    {
      "channel": 0,
      "note": 84,
      "start": 27.7968,
      "duration": 0.1002,
      "velocity": 93,
      "chip": "ym2612"
    },
    {
      "channel": 0,
      "note": 83,
      "start": 27.897,
      "duration": 0.0013,
      "velocity": 93,
      "chip": "ym2612"
    },
    {
      "channel": 1,
      "note": 45,
      "start": 27.8972,
      "duration": 0.0368,
      "velocity": 99,
      "chip": "ym2612"
    },
    {
      "channel": 2,
      "note": 83,
      "start": 27.8972,
      "duration": 0.0368,
      "velocity": 127,
      "chip": "ym2612"
    },
    {
      "channel": 4,
      "note": 59,
      "start": 27.8973,
      "duration": 0.0368,
      "velocity": 93,
      "chip": "ym2612"
    },
    {
      "channel": 0,
      "note": 79,
      "start": 27.8984,
      "duration": 0.0355,
      "velocity": 93,
      "chip": "ym2612"
    },
    {
      "channel": 0,
      "note": 76,
      "start": 27.934,
      "duration": 0.0399,
      "velocity": 93,
      "chip": "ym2612"
    },
    {
      "channel": 1,
      "note": 52,
      "start": 27.934,
      "duration": 0.18,
      "velocity": 99,
      "chip": "ym2612"
    },
    {
      "channel": 2,
      "note": 84,
      "start": 27.9341,
      "duration": 0.1396,
      "velocity": 127,
      "chip": "ym2612"
    },
    {
      "channel": 4,
      "note": 60,
      "start": 27.9342,
      "duration": 0.1395,
      "velocity": 93,
      "chip": "ym2612"
    },
    {
      "channel": 0,
      "note": 76,
      "start": 27.9738,
      "duration": 0.0399,
      "velocity": 93,
      "chip": "ym2612"
    },
    {
      "channel": 0,
      "note": 72,
      "start": 28.0138,
      "duration": 0.0599,
      "velocity": 93,
      "chip": "ym2612"
    },
    {
      "channel": 0,
      "note": 71,
      "start": 28.114,
      "duration": 0.0798,
      "velocity": 93,
      "chip": "ym2612"
    },
    {
      "channel": 1,
      "note": 57,
      "start": 28.1141,
      "duration": 0.1598,
      "velocity": 99,
      "chip": "ym2612"
    },
    {
      "channel": 2,
      "note": 83,
      "start": 28.1141,
      "duration": 0.1615,
      "velocity": 127,
      "chip": "ym2612"
    },
    {
      "channel": 4,
      "note": 59,
      "start": 28.1143,
      "duration": 0.1614,
      "velocity": 93,
      "chip": "ym2612"
    },
    {
      "channel": 0,
      "note": 72,
      "start": 28.1938,
      "duration": 0.0801,
      "velocity": 93,
      "chip": "ym2612"
    },
    {
      "channel": 0,
      "note": 76,
      "start": 28.2739,
      "duration": 0.0011,
      "velocity": 93,
      "chip": "ym2612"
    },
    {
      "channel": 1,
      "note": 62,
      "start": 28.274,
      "duration": 0.0571,
      "velocity": 99,
      "chip": "ym2612"
    },
    {
      "channel": 0,
      "note": 79,
      "start": 28.275,
      "duration": 0.0559,
      "velocity": 93,
      "chip": "ym2612"
    },
    {
      "channel": 0,
      "note": 83,
      "start": 28.331,
      "duration": 0.0013,
      "velocity": 93,
      "chip": "ym2612"
    },
    {
      "channel": 1,
      "note": 64,
      "start": 28.331,
      "duration": 0.0024,
      "velocity": 99,
      "chip": "ym2612"
    },
    {
      "channel": 2,
      "note": 76,
      "start": 28.3311,
      "duration": 0.3288,
      "velocity": 127,
      "chip": "ym2612"
    },
    {
      "channel": 4,
      "note": 52,
      "start": 28.3312,
      "duration": 0.3288,
      "velocity": 93,
      "chip": "ym2612"
    },
    {
      "channel": 0,
      "note": 84,
      "start": 28.3323,
      "duration": 0.0011,
      "velocity": 93,
      "chip": "ym2612"
    },
    {
      "channel": 0,
      "note": 83,
      "start": 28.3334,
      "duration": 0.0661,
      "velocity": 93,
      "chip": "ym2612"
    },
    {
      "channel": 1,
      "note": 62,
      "start": 28.3335,
      "duration": 0.1661,
      "velocity": 99,
      "chip": "ym2612"
    },
    {
      "channel": 0,
      "note": 79,
      "start": 28.3995,
      "duration": 0.0999,
      "velocity": 93,
      "chip": "ym2612"
    },
    {
      "channel": 0,
      "note": 76,
      "start": 28.4995,
      "duration": 0.0799,
      "velocity": 93,
      "chip": "ym2612"
    },
    {
      "channel": 1,
      "note": 57,
      "start": 28.4996,
      "duration": 0.1602,
      "velocity": 99,
      "chip": "ym2612"
    },
    {
      "channel": 0,
      "note": 72,
      "start": 28.5795,
      "duration": 0.0802,
      "velocity": 93,
      "chip": "ym2612"
    },
    {
      "channel": 0,
      "note": 71,
      "start": 28.6598,
      "duration": 0.0798,
      "velocity": 93,
      "chip": "ym2612"
    },
    {
      "channel": 1,
      "note": 52,
      "start": 28.6599,
      "duration": 0.18,
      "velocity": 99,
      "chip": "ym2612"
    },
    {
      "channel": 2,
      "note": 81,
      "start": 28.6599,
      "duration": 0.18,
      "velocity": 127,
      "chip": "ym2612"
    },
    {
      "channel": 3,
      "note": 52,
      "start": 28.66,
      "duration": 0.0797,
      "velocity": 95,
      "chip": "ym2612"
    },
    {
      "channel": 4,
      "note": 57,
      "start": 28.6601,
      "duration": 0.1799,
      "velocity": 93,
      "chip": "ym2612"
    },
    {
      "channel": 0,
      "note": 72,
      "start": 28.7395,
      "duration": 0.1002,
      "velocity": 93,
      "chip": "ym2612"
    },
    {
      "channel": 3,
      "note": 55,
      "start": 28.7397,
      "duration": 0.1003,
      "velocity": 95,
      "chip": "ym2612"
    },
    {
      "channel": 0,
      "note": 73,
      "start": 28.8399,
      "duration": 0.0013,
      "velocity": 93,
      "chip": "ym2612"
    },
    {
      "channel": 1,
      "note": 45,
      "start": 28.8399,
      "duration": 0.0366,
      "velocity": 99,
      "chip": "ym2612"
    },
    {
      "channel": 2,
      "note": 81,
      "start": 28.84,
      "duration": 1.6479,
      "velocity": 127,
      "chip": "ym2612"
    },
    {
      "channel": 3,
      "note": 57,
      "start": 28.84,
      "duration": 1.9878,
      "velocity": 95,
      "chip": "ym2612"
    },
    {
      "channel": 4,
      "note": 57,
      "start": 28.8401,
      "duration": 1.6478,
      "velocity": 93,
      "chip": "ym2612"
    },
    {
      "channel": 0,
      "note": 74,
      "start": 28.8412,
      "duration": 0.0353,
      "velocity": 93,
      "chip": "ym2612"
    },
    {
      "channel": 0,
      "note": 78,
      "start": 28.8765,
      "duration": 0.0799,
      "velocity": 93,
      "chip": "ym2612"
    },
    {
      "channel": 1,
      "note": 52,
      "start": 28.8766,
      "duration": 0.18,
      "velocity": 99,
      "chip": "ym2612"
    },
    {
      "channel": 0,
      "note": 81,
      "start": 28.9565,
      "duration": 0.1,
      "velocity": 93,
      "chip": "ym2612"
    },
    {
      "channel": 0,
      "note": 85,
      "start": 29.0566,
      "duration": 0.0799,
      "velocity": 93,
      "chip": "ym2612"
    },
    {
      "channel": 1,
      "note": 57,
      "start": 29.0567,
      "duration": 0.1599,
      "velocity": 99,
      "chip": "ym2612"
    },
    {
      "channel": 0,
      "note": 86,
      "start": 29.1365,
      "duration": 0.08,
      "velocity": 93,
      "chip": "ym2612"
    },
    {
      "channel": 0,
      "note": 85,
      "start": 29.2165,
      "duration": 0.0799,
      "velocity": 93,
      "chip": "ym2612"
    },
    {
      "channel": 1,
      "note": 62,
      "start": 29.2166,
      "duration": 0.1801,
      "velocity": 99,
      "chip": "ym2612"
    },
    {
      "channel": 0,
      "note": 81,
      "start": 29.2965,
      "duration": 0.1001,
      "velocity": 93,
      "chip": "ym2612"
    },
    {
      "channel": 0,
      "note": 78,
      "start": 29.3967,
      "duration": 0.0011,
      "velocity": 93,
      "chip": "ym2612"
    },
    {
      "channel": 1,
      "note": 64,
      "start": 29.3967,
      "duration": 0.0021,
      "velocity": 99,
      "chip": "ym2612"
    },
    {
      "channel": 0,
      "note": 74,
      "start": 29.3978,
      "duration": 0.001,
      "velocity": 93,
      "chip": "ym2612"
    },
    {
      "channel": 0,
      "note": 73,
      "start": 29.3988,
      "duration": 0.0663,
      "velocity": 93,
      "chip": "ym2612"
    },
    {
      "channel": 1,
      "note": 57,
      "start": 29.3989,
      "duration": 0.1663,
      "velocity": 99,
      "chip": "ym2612"
    },
    {
      "channel": 0,
      "note": 74,
      "start": 29.4651,
      "duration": 0.1,
      "velocity": 93,
      "chip": "ym2612"
    },
    {
      "channel": 0,
      "note": 78,
      "start": 29.5652,
      "duration": 0.0799,
      "velocity": 93,
      "chip": "ym2612"
    },
    {
      "channel": 1,
      "note": 62,
      "start": 29.5653,
      "duration": 0.1599,
      "velocity": 99,
      "chip": "ym2612"
    },
    {
      "channel": 0,
      "note": 81,
      "start": 29.6452,
      "duration": 0.0799,
      "velocity": 93,
      "chip": "ym2612"
    },
    {
      "channel": 0,
      "note": 85,
      "start": 29.7252,
      "duration": 0.0799,
      "velocity": 93,
      "chip": "ym2612"
    },
    {
      "channel": 1,
      "note": 64,
      "start": 29.7253,
      "duration": 0.1801,
      "velocity": 99,
      "chip": "ym2612"
    },
    {
      "channel": 0,
      "note": 86,
      "start": 29.8051,
      "duration": 0.1001,
      "velocity": 93,
      "chip": "ym2612"
    },
    {
      "channel": 0,
      "note": 85,
      "start": 29.9054,
      "duration": 0.0011,
      "velocity": 93,
      "chip": "ym2612"
    },
    {
      "channel": 1,
      "note": 45,
      "start": 29.9054,
      "duration": 0.0368,
      "velocity": 99,
      "chip": "ym2612"
    },
    {
      "channel": 0,
      "note": 81,
      "start": 29.9065,
      "duration": 0.0357,
      "velocity": 93,
      "chip": "ym2612"
    },
    {
      "channel": 0,
      "note": 78,
      "start": 29.9422,
      "duration": 0.0199,
      "velocity": 93,
      "chip": "ym2612"
    },
    {
      "channel": 1,
      "note": 52,
      "start": 29.9423,
      "duration": 0.1599,
      "velocity": 99,
      "chip": "ym2612"
    },
    {
      "channel": 0,
      "note": 78,
      "start": 29.9621,
      "duration": 0.0599,
      "velocity": 93,
      "chip": "ym2612"
    },
    {
      "channel": 0,
      "note": 74,
      "start": 30.0221,
      "duration": 0.0599,
      "velocity": 93,
      "chip": "ym2612"
    },
    {
      "channel": 0,
      "note": 73,
      "start": 30.1022,
      "duration": 0.0999,
      "velocity": 93,
      "chip": "ym2612"
    },
    {
      "channel": 1,
      "note": 57,
      "start": 30.1023,
      "duration": 0.1799,
      "velocity": 99,
      "chip": "ym2612"
    },
    {
      "channel": 0,
      "note": 74,
      "start": 30.2021,
      "duration": 0.0801,
      "velocity": 93,
      "chip": "ym2612"
    },
    {
      "channel": 0,
      "note": 78,
      "start": 30.2822,
      "duration": 0.0012,
      "velocity": 93,
      "chip": "ym2612"
    },
    {
      "channel": 1,
      "note": 62,
      "start": 30.2823,
      "duration": 0.0369,
      "velocity": 99,
      "chip": "ym2612"
    },
    {
      "channel": 0,
      "note": 81,
      "start": 30.2834,
      "duration": 0.0357,
      "velocity": 93,
      "chip": "ym2612"
    },
    {
      "channel": 0,
      "note": 85,
      "start": 30.3192,
      "duration": 0.0013,
      "velocity": 93,
      "chip": "ym2612"
    },
    {
      "channel": 1,
      "note": 64,
      "start": 30.3192,
      "duration": 0.0085,
      "velocity": 99,
      "chip": "ym2612"
    },
    {
      "channel": 0,
      "note": 86,
      "start": 30.3205,
      "duration": 0.0072,
      "velocity": 93,
      "chip": "ym2612"
    },
    {
      "channel": 0,
      "note": 85,
      "start": 30.3277,
      "duration": 0.0799,
      "velocity": 93,
      "chip": "ym2612"
    },
    {
      "channel": 1,
      "note": 62,
      "start": 30.3278,
      "duration": 0.16,
      "velocity": 99,
      "chip": "ym2612"
    },
    {
      "channel": 0,
      "note": 81,
      "start": 30.4077,
      "duration": 0.0801,
      "velocity": 93,
      "chip": "ym2612"
    },
    {
      "channel": 0,
      "note": 78,
      "start": 30.4877,
      "duration": 0.0998,
      "velocity": 93,
      "chip": "ym2612"
    },
    {
      "channel": 1,
      "note": 57,
      "start": 30.4878,
      "duration": 0.1799,
      "velocity": 99,
      "chip": "ym2612"
    },
    {
      "channel": 0,
      "note": 74,
      "start": 30.5876,
      "duration": 0.08,
      "velocity": 93,
      "chip": "ym2612"
    },
    {
      "channel": 0,
      "note": 73,
      "start": 30.6677,
      "duration": 0.0799,
      "velocity": 93,
      "chip": "ym2612"
    },
    {
      "channel": 1,
      "note": 52,
      "start": 30.6677,
      "duration": 0.1601,
      "velocity": 99,
      "chip": "ym2612"
    },
    {
      "channel": 0,
      "note": 74,
      "start": 30.7476,
      "duration": 0.0801,
      "velocity": 93,
      "chip": "ym2612"
    },
    {
      "channel": 0,
      "note": 71,
      "start": 30.8278,
      "duration": 0.0011,
      "velocity": 93,
      "chip": "ym2612"
    },
    {
      "channel": 1,
      "note": 45,
      "start": 30.8279,
      "duration": 0.0567,
      "velocity": 99,
      "chip": "ym2612"
    },
    {
      "channel": 3,
      "note": 45,
      "start": 30.8279,
      "duration": 1.8485,
      "velocity": 95,
      "chip": "ym2612"
    },
    {
      "channel": 0,
      "note": 72,
      "start": 30.829,
      "duration": 0.0555,
      "velocity": 93,
      "chip": "ym2612"
    },
    {
      "channel": 0,
      "note": 76,
      "start": 30.8845,
      "duration": 0.0799,
      "velocity": 93,
      "chip": "ym2612"
    },
    {
      "channel": 1,
      "note": 52,
      "start": 30.8846,
      "duration": 0.16,
      "velocity": 99,
      "chip": "ym2612"
    },
    {
      "channel": 0,
      "note": 79,
      "start": 30.9645,
      "duration": 0.08,
      "velocity": 93,
      "chip": "ym2612"
    },
    {
      "channel": 0,
      "note": 83,
      "start": 31.0446,
      "duration": 0.0999,
      "velocity": 93,
      "chip": "ym2612"
    },
    {
      "channel": 1,
      "note": 57,
      "start": 31.0446,
      "duration": 0.1799,
      "velocity": 99,
      "chip": "ym2612"
    },
    {
      "channel": 0,
      "note": 84,
      "start": 31.1445,
      "duration": 0.08,
      "velocity": 93,
      "chip": "ym2612"
    },
    {
      "channel": 0,
      "note": 83,
      "start": 31.2245,
      "duration": 0.0799,
      "velocity": 93,
      "chip": "ym2612"
    },
    {
      "channel": 1,
      "note": 62,
      "start": 31.2246,
      "duration": 0.1603,
      "velocity": 99,
      "chip": "ym2612"
    },
    {
      "channel": 0,
      "note": 79,
      "start": 31.3045,
      "duration": 0.0803,
      "velocity": 93,
      "chip": "ym2612"
    },
    {
      "channel": 0,
      "note": 76,
      "start": 31.3849,
      "duration": 0.0015,
      "velocity": 93,
      "chip": "ym2612"
    },
    {
      "channel": 1,
      "note": 64,
      "start": 31.3849,
      "duration": 0.0085,
      "velocity": 99,
      "chip": "ym2612"
    },
    {
      "channel": 2,
      "note": 76,
      "start": 31.385,
      "duration": 0.3487,
      "velocity": 127,
      "chip": "ym2612"
    },
    {
      "channel": 4,
      "note": 52,
      "start": 31.3851,
      "duration": 0.3487,
      "velocity": 93,
      "chip": "ym2612"
    },
    {
      "channel": 0,
      "note": 72,
      "start": 31.3864,
      "duration": 0.007,
      "velocity": 93,
      "chip": "ym2612"
    },
    {
      "channel": 0,
      "note": 71,
      "start": 31.3935,
      "duration": 0.0799,
      "velocity": 93,
      "chip": "ym2612"
    },
    {
      "channel": 1,
      "note": 57,
      "start": 31.3935,
      "duration": 0.1599,
      "velocity": 99,
      "chip": "ym2612"
    },
    {
      "channel": 0,
      "note": 72,
      "start": 31.4733,
      "duration": 0.08,
      "velocity": 93,
      "chip": "ym2612"
    },
    {
      "channel": 0,
      "note": 76,
      "start": 31.5534,
      "duration": 0.0999,
      "velocity": 93,
      "chip": "ym2612"
    },
    {
      "channel": 1,
      "note": 62,
      "start": 31.5535,
      "duration": 0.1802,
      "velocity": 99,
      "chip": "ym2612"
    },
    {
      "channel": 0,
      "note": 79,
      "start": 31.6533,
      "duration": 0.0802,
      "velocity": 93,
      "chip": "ym2612"
    },
    {
      "channel": 0,
      "note": 83,
      "start": 31.7336,
      "duration": 0.0798,
      "velocity": 93,
      "chip": "ym2612"
    },
    {
      "channel": 1,
      "note": 64,
      "start": 31.7337,
      "duration": 0.16,
      "velocity": 99,
      "chip": "ym2612"
    },
    {
      "channel": 2,
      "note": 83,
      "start": 31.7337,
      "duration": 0.16,
      "velocity": 127,
      "chip": "ym2612"
    },
    {
      "channel": 4,
      "note": 59,
      "start": 31.7339,
      "duration": 0.16,
      "velocity": 93,
      "chip": "ym2612"
    },
    {
      "channel": 0,
      "note": 84,
      "start": 31.8133,
      "duration": 0.0802,
      "velocity": 93,
      "chip": "ym2612"
    },
    {
      "channel": 0,
      "note": 83,
      "start": 31.8936,
      "duration": 0.0015,
      "velocity": 93,
      "chip": "ym2612"
    },
    {
      "channel": 1,
      "note": 45,
      "start": 31.8937,
      "duration": 0.0568,
      "velocity": 99,
      "chip": "ym2612"
    },
    {
      "channel": 2,
      "note": 83,
      "start": 31.8938,
      "duration": 0.0568,
      "velocity": 127,
      "chip": "ym2612"
    },
    {
      "channel": 4,
      "note": 59,
      "start": 31.8939,
      "duration": 0.0568,
      "velocity": 93,
      "chip": "ym2612"
    },
    {
      "channel": 0,
      "note": 79,
      "start": 31.8952,
      "duration": 0.0553,
      "velocity": 93,
      "chip": "ym2612"
    },
    {
      "channel": 0,
      "note": 76,
      "start": 31.9505,
      "duration": 0.0199,
      "velocity": 93,
      "chip": "ym2612"
    },
    {
      "channel": 1,
      "note": 52,
      "start": 31.9506,
      "duration": 0.16,
      "velocity": 99,
      "chip": "ym2612"
    },
    {
      "channel": 2,
      "note": 84,
      "start": 31.9506,
      "duration": 0.16,
      "velocity": 127,
      "chip": "ym2612"
    },
    {
      "channel": 4,
      "note": 60,
      "start": 31.9508,
      "duration": 0.16,
      "velocity": 93,
      "chip": "ym2612"
    },
    {
      "channel": 0,
      "note": 76,
      "start": 31.9704,
      "duration": 0.0599,
      "velocity": 93,
      "chip": "ym2612"
    },
    {
      "channel": 0,
      "note": 72,
      "start": 32.0303,
      "duration": 0.0599,
      "velocity": 93,
      "chip": "ym2612"
    },
    {
      "channel": 0,
      "note": 71,
      "start": 32.1106,
      "duration": 0.0998,
      "velocity": 93,
      "chip": "ym2612"
    },
    {
      "channel": 1,
      "note": 57,
      "start": 32.1106,
      "duration": 0.1798,
      "velocity": 99,
      "chip": "ym2612"
    },
    {
      "channel": 2,
      "note": 83,
      "start": 32.1107,
      "duration": 0.1807,
      "velocity": 127,
      "chip": "ym2612"
    },
    {
      "channel": 4,
      "note": 59,
      "start": 32.1108,
      "duration": 0.2169,
      "velocity": 93,
      "chip": "ym2612"
    },
    {
      "channel": 0,
      "note": 72,
      "start": 32.2103,
      "duration": 0.0801,
      "velocity": 93,
      "chip": "ym2612"
    },
    {
      "channel": 0,
      "note": 76,
      "start": 32.2905,
      "duration": 0.0011,
      "velocity": 93,
      "chip": "ym2612"
    },
    {
      "channel": 1,
      "note": 62,
      "start": 32.2905,
      "duration": 0.0371,
      "velocity": 99,
      "chip": "ym2612"
    },
    {
      "channel": 0,
      "note": 79,
      "start": 32.2915,
      "duration": 0.036,
      "velocity": 93,
      "chip": "ym2612"
    },
    {
      "channel": 0,
      "note": 83,
      "start": 32.3276,
      "duration": 0.0013,
      "velocity": 93,
      "chip": "ym2612"
    },
    {
      "channel": 1,
      "note": 64,
      "start": 32.3276,
      "duration": 0.0084,
      "velocity": 99,
      "chip": "ym2612"
    },
    {
      "channel": 2,
      "note": 76,
      "start": 32.3277,
      "duration": 0.3487,
      "velocity": 127,
      "chip": "ym2612"
    },
    {
      "channel": 4,
      "note": 52,
      "start": 32.3278,
      "duration": 0.3487,
      "velocity": 93,
      "chip": "ym2612"
    },
    {
      "channel": 0,
      "note": 84,
      "start": 32.3288,
      "duration": 0.0071,
      "velocity": 93,
      "chip": "ym2612"
    },
    {
      "channel": 0,
      "note": 83,
      "start": 32.336,
      "duration": 0.0799,
      "velocity": 93,
      "chip": "ym2612"
    },
    {
      "channel": 1,
      "note": 62,
      "start": 32.3361,
      "duration": 0.1599,
      "velocity": 99,
      "chip": "ym2612"
    },
    {
      "channel": 0,
      "note": 79,
      "start": 32.416,
      "duration": 0.0799,
      "velocity": 93,
      "chip": "ym2612"
    },
    {
      "channel": 0,
      "note": 76,
      "start": 32.496,
      "duration": 0.0799,
      "velocity": 93,
      "chip": "ym2612"
    },
    {
      "channel": 1,
      "note": 57,
      "start": 32.4961,
      "duration": 0.1802,
      "velocity": 99,
      "chip": "ym2612"
    },
    {
      "channel": 0,
      "note": 72,
      "start": 32.576,
      "duration": 0.1002,
      "velocity": 93,
      "chip": "ym2612"
    },
    {
      "channel": 0,
      "note": 71,
      "start": 32.6763,
      "duration": 0.0797,
      "velocity": 93,
      "chip": "ym2612"
    },
    {
      "channel": 1,
      "note": 52,
      "start": 32.6763,
      "duration": 0.16,
      "velocity": 99,
      "chip": "ym2612"
    },
    {
      "channel": 2,
      "note": 81,
      "start": 32.6764,
      "duration": 0.16,
      "velocity": 127,
      "chip": "ym2612"
    },
    {
      "channel": 3,
      "note": 50,
      "start": 32.6765,
      "duration": 0.0797,
      "velocity": 95,
      "chip": "ym2612"
    },
    {
      "channel": 4,
      "note": 57,
      "start": 32.6766,
      "duration": 0.16,
      "velocity": 93,
      "chip": "ym2612"
    },
    {
      "channel": 0,
      "note": 72,
      "start": 32.756,
      "duration": 0.0802,
      "velocity": 93,
      "chip": "ym2612"
    },
    {
      "channel": 3,
      "note": 52,
      "start": 32.7562,
      "duration": 0.0803,
      "velocity": 95,
      "chip": "ym2612"
    },
    {
      "channel": 0,
      "note": 73,
      "start": 32.8363,
      "duration": 0.0013,
      "velocity": 93,
      "chip": "ym2612"
    },
    {
      "channel": 1,
      "note": 45,
      "start": 32.8364,
      "duration": 0.0566,
      "velocity": 99,
      "chip": "ym2612"
    },
    {
      "channel": 2,
      "note": 81,
      "start": 32.8365,
      "duration": 1.928,
      "velocity": 127,
      "chip": "ym2612"
    },
    {
      "channel": 3,
      "note": 57,
      "start": 32.8366,
      "duration": 2.0081,
      "velocity": 95,
      "chip": "ym2612"
    },
    {
      "channel": 4,
      "note": 57,
      "start": 32.8367,
      "duration": 2.0081,
      "velocity": 93,
      "chip": "ym2612"
    },
    {
      "channel": 0,
      "note": 74,
      "start": 32.8376,
      "duration": 0.0553,
      "velocity": 93,
      "chip": "ym2612"
    },
    {
      "channel": 0,
      "note": 78,
      "start": 32.893,
      "duration": 0.0799,
      "velocity": 93,
      "chip": "ym2612"
    },
    {
      "channel": 1,
      "note": 52,
      "start": 32.893,
      "duration": 0.16,
      "velocity": 99,
      "chip": "ym2612"
    },
    {
      "channel": 0,
      "note": 81,
      "start": 32.973,
      "duration": 0.08,
      "velocity": 93,
      "chip": "ym2612"
    },
    {
      "channel": 0,
      "note": 85,
      "start": 33.053,
      "duration": 0.0799,
      "velocity": 93,
      "chip": "ym2612"
    },
    {
      "channel": 1,
      "note": 57,
      "start": 33.0531,
      "duration": 0.1799,
      "velocity": 99,
      "chip": "ym2612"
    },
    {
      "channel": 0,
      "note": 86,
      "start": 33.1329,
      "duration": 0.1,
      "velocity": 93,
      "chip": "ym2612"
    },
    {
      "channel": 0,
      "note": 85,
      "start": 33.233,
      "duration": 0.0799,
      "velocity": 93,
      "chip": "ym2612"
    },
    {
      "channel": 1,
      "note": 62,
      "start": 33.233,
      "duration": 0.1601,
      "velocity": 99,
      "chip": "ym2612"
    },
    {
      "channel": 0,
      "note": 81,
      "start": 33.3129,
      "duration": 0.0801,
      "velocity": 93,
      "chip": "ym2612"
    },
    {
      "channel": 0,
      "note": 78,
      "start": 33.3931,
      "duration": 0.0011,
      "velocity": 93,
      "chip": "ym2612"
    },
    {
      "channel": 1,
      "note": 64,
      "start": 33.3932,
      "duration": 0.0086,
      "velocity": 99,
      "chip": "ym2612"
    },
    {
      "channel": 0,
      "note": 74,
      "start": 33.3942,
      "duration": 0.0075,
      "velocity": 93,
      "chip": "ym2612"
    },
    {
      "channel": 0,
      "note": 73,
      "start": 33.4018,
      "duration": 0.0799,
      "velocity": 93,
      "chip": "ym2612"
    },
    {
      "channel": 1,
      "note": 57,
      "start": 33.4019,
      "duration": 0.1599,
      "velocity": 99,
      "chip": "ym2612"
    },
    {
      "channel": 0,
      "note": 74,
      "start": 33.4817,
      "duration": 0.08,
      "velocity": 93,
      "chip": "ym2612"
    },
    {
      "channel": 0,
      "note": 78,
      "start": 33.5617,
      "duration": 0.0799,
      "velocity": 93,
      "chip": "ym2612"
    },
    {
      "channel": 1,
      "note": 62,
      "start": 33.5618,
      "duration": 0.1799,
      "velocity": 99,
      "chip": "ym2612"
    },
    {
      "channel": 0,
      "note": 81,
      "start": 33.6417,
      "duration": 0.0999,
      "velocity": 93,
      "chip": "ym2612"
    },
    {
      "channel": 0,
      "note": 85,
      "start": 33.7417,
      "duration": 0.0799,
      "velocity": 93,
      "chip": "ym2612"
    },
    {
      "channel": 1,
      "note": 64,
      "start": 33.7418,
      "duration": 0.1601,
      "velocity": 99,
      "chip": "ym2612"
    },
    {
      "channel": 0,
      "note": 86,
      "start": 33.8217,
      "duration": 0.0801,
      "velocity": 93,
      "chip": "ym2612"
    },
    {
      "channel": 0,
      "note": 85,
      "start": 33.9019,
      "duration": 0.0012,
      "velocity": 93,
      "chip": "ym2612"
    },
    {
      "channel": 1,
      "note": 45,
      "start": 33.9019,
      "duration": 0.0569,
      "velocity": 99,
      "chip": "ym2612"
    },
    {
      "channel": 0,
      "note": 81,
      "start": 33.903,
      "duration": 0.0557,
      "velocity": 93,
      "chip": "ym2612"
    },
    {
      "channel": 0,
      "note": 78,
      "start": 33.9588,
      "duration": 0.0199,
      "velocity": 93,
      "chip": "ym2612"
    },
    {
      "channel": 1,
      "note": 52,
      "start": 33.9589,
      "duration": 0.1599,
      "velocity": 99,
      "chip": "ym2612"
    },
    {
      "channel": 0,
      "note": 78,
      "start": 33.9787,
      "duration": 0.0599,
      "velocity": 93,
      "chip": "ym2612"
    },
    {
      "channel": 0,
      "note": 74,
      "start": 34.0387,
      "duration": 0.0599,
      "velocity": 93,
      "chip": "ym2612"
    },
    {
      "channel": 0,
      "note": 73,
      "start": 34.1188,
      "duration": 0.0799,
      "velocity": 93,
      "chip": "ym2612"
    },
    {
      "channel": 1,
      "note": 57,
      "start": 34.1189,
      "duration": 0.1799,
      "velocity": 99,
      "chip": "ym2612"
    },
    {
      "channel": 0,
      "note": 74,
      "start": 34.1987,
      "duration": 0.1001,
      "velocity": 93,
      "chip": "ym2612"
    },
    {
      "channel": 0,
      "note": 78,
      "start": 34.2988,
      "duration": 0.0011,
      "velocity": 93,
      "chip": "ym2612"
    },
    {
      "channel": 1,
      "note": 62,
      "start": 34.2989,
      "duration": 0.0369,
      "velocity": 99,
      "chip": "ym2612"
    },
    {
      "channel": 0,
      "note": 81,
      "start": 34.3,
      "duration": 0.0357,
      "velocity": 93,
      "chip": "ym2612"
    },
    {
      "channel": 0,
      "note": 85,
      "start": 34.3358,
      "duration": 0.0012,
      "velocity": 93,
      "chip": "ym2612"
    },
    {
      "channel": 1,
      "note": 64,
      "start": 34.3358,
      "duration": 0.0087,
      "velocity": 99,
      "chip": "ym2612"
    },
    {
      "channel": 0,
      "note": 86,
      "start": 34.337,
      "duration": 0.0075,
      "velocity": 93,
      "chip": "ym2612"
    },
    {
      "channel": 0,
      "note": 85,
      "start": 34.3445,
      "duration": 0.0799,
      "velocity": 93,
      "chip": "ym2612"
    },
    {
      "channel": 1,
      "note": 62,
      "start": 34.3446,
      "duration": 0.16,
      "velocity": 99,
      "chip": "ym2612"
    },
    {
      "channel": 0,
      "note": 81,
      "start": 34.4244,
      "duration": 0.0801,
      "velocity": 93,
      "chip": "ym2612"
    },
    {
      "channel": 0,
      "note": 78,
      "start": 34.5046,
      "duration": 0.0799,
      "velocity": 93,
      "chip": "ym2612"
    },
    {
      "channel": 1,
      "note": 57,
      "start": 34.5046,
      "duration": 0.1599,
      "velocity": 99,
      "chip": "ym2612"
    },
    {
      "channel": 0,
      "note": 74,
      "start": 34.5845,
      "duration": 0.08,
      "velocity": 93,
      "chip": "ym2612"
    },
    {
      "channel": 0,
      "note": 73,
      "start": 34.6646,
      "duration": 0.0998,
      "velocity": 93,
      "chip": "ym2612"
    },
    {
      "channel": 1,
      "note": 52,
      "start": 34.6646,
      "duration": 0.1597,
      "velocity": 99,
      "chip": "ym2612"
    },
    {
      "channel": 0,
      "note": 74,
      "start": 34.7644,
      "duration": 0.0801,
      "velocity": 93,
      "chip": "ym2612"
    },
    {
      "channel": 0,
      "note": 76,
      "start": 34.8446,
      "duration": 0.0009,
      "velocity": 93,
      "chip": "ym2612"
    },
    {
      "channel": 1,
      "note": 50,
      "start": 34.8447,
      "duration": 0.0368,
      "velocity": 99,
      "chip": "ym2612"
    },
    {
      "channel": 3,
      "note": 50,
      "start": 34.8448,
      "duration": 1.8284,
      "velocity": 95,
      "chip": "ym2612"
    },
    {
      "channel": 0,
      "note": 77,
      "start": 34.8456,
      "duration": 0.0357,
      "velocity": 93,
      "chip": "ym2612"
    },
    {
      "channel": 0,
      "note": 81,
      "start": 34.8814,
      "duration": 0.0999,
      "velocity": 93,
      "chip": "ym2612"
    },
    {
      "channel": 1,
      "note": 57,
      "start": 34.8815,
      "duration": 0.1799,
      "velocity": 99,
      "chip": "ym2612"
    },
    {
      "channel": 0,
      "note": 84,
      "start": 34.9813,
      "duration": 0.08,
      "velocity": 93,
      "chip": "ym2612"
    },
    {
      "channel": 0,
      "note": 88,
      "start": 35.0613,
      "duration": 0.0799,
      "velocity": 93,
      "chip": "ym2612"
    },
    {
      "channel": 1,
      "note": 62,
      "start": 35.0614,
      "duration": 0.16,
      "velocity": 99,
      "chip": "ym2612"
    },
    {
      "channel": 0,
      "note": 89,
      "start": 35.1413,
      "duration": 0.08,
      "velocity": 93,
      "chip": "ym2612"
    },
    {
      "channel": 0,
      "note": 88,
      "start": 35.2213,
      "duration": 0.0999,
      "velocity": 93,
      "chip": "ym2612"
    },
    {
      "channel": 1,
      "note": 67,
      "start": 35.2214,
      "duration": 0.1803,
      "velocity": 99,
      "chip": "ym2612"
    },
    {
      "channel": 0,
      "note": 84,
      "start": 35.3213,
      "duration": 0.0803,
      "velocity": 93,
      "chip": "ym2612"
    },
    {
      "channel": 0,
      "note": 81,
      "start": 35.4016,
      "duration": 0.0013,
      "velocity": 93,
      "chip": "ym2612"
    },
    {
      "channel": 1,
      "note": 69,
      "start": 35.4017,
      "duration": 0.0024,
      "velocity": 99,
      "chip": "ym2612"
    },
    {
      "channel": 2,
      "note": 81,
      "start": 35.4018,
      "duration": 0.3287,
      "velocity": 127,
      "chip": "ym2612"
    },
    {
      "channel": 4,
      "note": 57,
      "start": 35.402,
      "duration": 0.3287,
      "velocity": 93,
      "chip": "ym2612"
    },
    {
      "channel": 0,
      "note": 77,
      "start": 35.403,
      "duration": 0.001,
      "velocity": 93,
      "chip": "ym2612"
    },
    {
      "channel": 0,
      "note": 76,
      "start": 35.4041,
      "duration": 0.0861,
      "velocity": 93,
      "chip": "ym2612"
    },
    {
      "channel": 1,
      "note": 62,
      "start": 35.4042,
      "duration": 0.1662,
      "velocity": 99,
      "chip": "ym2612"
    },
    {
      "channel": 0,
      "note": 77,
      "start": 35.4902,
      "duration": 0.0801,
      "velocity": 93,
      "chip": "ym2612"
    },
    {
      "channel": 0,
      "note": 81,
      "start": 35.5704,
      "duration": 0.0799,
      "velocity": 93,
      "chip": "ym2612"
    },
    {
      "channel": 1,
      "note": 67,
      "start": 35.5704,
      "duration": 0.16,
      "velocity": 99,
      "chip": "ym2612"
    },
    {
      "channel": 0,
      "note": 84,
      "start": 35.6502,
      "duration": 0.0802,
      "velocity": 93,
      "chip": "ym2612"
    },
    {
      "channel": 0,
      "note": 88,
      "start": 35.7304,
      "duration": 0.0998,
      "velocity": 93,
      "chip": "ym2612"
    },
    {
      "channel": 1,
      "note": 69,
      "start": 35.7305,
      "duration": 0.1801,
      "velocity": 99,
      "chip": "ym2612"
    },
    {
      "channel": 2,
      "note": 88,
      "start": 35.7305,
      "duration": 0.1801,
      "velocity": 127,
      "chip": "ym2612"
    },
    {
      "channel": 4,
      "note": 64,
      "start": 35.7307,
      "duration": 0.1801,
      "velocity": 93,
      "chip": "ym2612"
    },
    {
      "channel": 0,
      "note": 89,
      "start": 35.8302,
      "duration": 0.0802,
      "velocity": 93,
      "chip": "ym2612"
    },
    {
      "channel": 0,
      "note": 88,
      "start": 35.9105,
      "duration": 0.0012,
      "velocity": 93,
      "chip": "ym2612"
    },
    {
      "channel": 1,
      "note": 50,
      "start": 35.9106,
      "duration": 0.0369,
      "velocity": 99,
      "chip": "ym2612"
    },
    {
      "channel": 2,
      "note": 88,
      "start": 35.9107,
      "duration": 0.0369,
      "velocity": 127,
      "chip": "ym2612"
    },
    {
      "channel": 4,
      "note": 64,
      "start": 35.9108,
      "duration": 0.0369,
      "velocity": 93,
      "chip": "ym2612"
    },
    {
      "channel": 0,
      "note": 84,
      "start": 35.9118,
      "duration": 0.0356,
      "velocity": 93,
      "chip": "ym2612"
    },
    {
      "channel": 0,
      "note": 81,
      "start": 35.9475,
      "duration": 0.0398,
      "velocity": 93,
      "chip": "ym2612"
    },
    {
      "channel": 1,
      "note": 57,
      "start": 35.9476,
      "duration": 0.1799,
      "velocity": 99,
      "chip": "ym2612"
    },
    {
      "channel": 2,
      "note": 89,
      "start": 35.9476,
      "duration": 0.1799,
      "velocity": 127,
      "chip": "ym2612"
    },
    {
      "channel": 4,
      "note": 65,
      "start": 35.9478,
      "duration": 0.1799,
      "velocity": 93,
      "chip": "ym2612"
    },
    {
      "channel": 0,
      "note": 81,
      "start": 35.9873,
      "duration": 0.0599,
      "velocity": 93,
      "chip": "ym2612"
    },
    {
      "channel": 0,
      "note": 77,
      "start": 36.0473,
      "duration": 0.0399,
      "velocity": 93,
      "chip": "ym2612"
    },
    {
      "channel": 0,
      "note": 76,
      "start": 36.1274,
      "duration": 0.0798,
      "velocity": 93,
      "chip": "ym2612"
    },
    {
      "channel": 1,
      "note": 62,
      "start": 36.1275,
      "duration": 0.16,
      "velocity": 99,
      "chip": "ym2612"
    },
    {
      "channel": 2,
      "note": 88,
      "start": 36.1276,
      "duration": 0.1616,
      "velocity": 127,
      "chip": "ym2612"
    },
    {
      "channel": 4,
      "note": 64,
      "start": 36.1277,
      "duration": 0.2169,
      "velocity": 93,
      "chip": "ym2612"
    },
    {
      "channel": 0,
      "note": 77,
      "start": 36.2072,
      "duration": 0.0801,
      "velocity": 93,
      "chip": "ym2612"
    },
    {
      "channel": 0,
      "note": 81,
      "start": 36.2874,
      "duration": 0.0013,
      "velocity": 93,
      "chip": "ym2612"
    },
    {
      "channel": 1,
      "note": 67,
      "start": 36.2875,
      "duration": 0.0569,
      "velocity": 99,
      "chip": "ym2612"
    },
    {
      "channel": 0,
      "note": 84,
      "start": 36.2888,
      "duration": 0.0556,
      "velocity": 93,
      "chip": "ym2612"
    },
    {
      "channel": 0,
      "note": 88,
      "start": 36.3444,
      "duration": 0.0013,
      "velocity": 93,
      "chip": "ym2612"
    },
    {
      "channel": 1,
      "note": 69,
      "start": 36.3444,
      "duration": 0.0024,
      "velocity": 99,
      "chip": "ym2612"
    },
    {
      "channel": 2,
      "note": 81,
      "start": 36.3446,
      "duration": 0.1686,
      "velocity": 127,
      "chip": "ym2612"
    },
    {
      "channel": 4,
      "note": 57,
      "start": 36.3447,
      "duration": 0.1687,
      "velocity": 93,
      "chip": "ym2612"
    },
    {
      "channel": 0,
      "note": 89,
      "start": 36.3456,
      "duration": 0.0011,
      "velocity": 93,
      "chip": "ym2612"
    },
    {
      "channel": 0,
      "note": 88,
      "start": 36.3468,
      "duration": 0.0861,
      "velocity": 93,
      "chip": "ym2612"
    },
    {
      "channel": 1,
      "note": 67,
      "start": 36.3469,
      "duration": 0.1663,
      "velocity": 99,
      "chip": "ym2612"
    },
    {
      "channel": 0,
      "note": 84,
      "start": 36.4329,
      "duration": 0.0801,
      "velocity": 93,
      "chip": "ym2612"
    },
    {
      "channel": 0,
      "note": 81,
      "start": 36.5132,
      "duration": 0.0798,
      "velocity": 93,
      "chip": "ym2612"
    },
    {
      "channel": 1,
      "note": 62,
      "start": 36.5132,
      "duration": 0.1599,
      "velocity": 99,
      "chip": "ym2612"
    },
    {
      "channel": 2,
      "note": 88,
      "start": 36.5133,
      "duration": 0.3401,
      "velocity": 127,
      "chip": "ym2612"
    },
    {
      "channel": 4,
      "note": 64,
      "start": 36.5134,
      "duration": 0.3402,
      "velocity": 93,
      "chip": "ym2612"
    },
    {
      "channel": 0,
      "note": 77,
      "start": 36.593,
      "duration": 0.08,
      "velocity": 93,
      "chip": "ym2612"
    },
    {
      "channel": 0,
      "note": 76,
      "start": 36.6731,
      "duration": 0.0999,
      "velocity": 93,
      "chip": "ym2612"
    },
    {
      "channel": 1,
      "note": 57,
      "start": 36.6732,
      "duration": 0.1802,
      "velocity": 99,
      "chip": "ym2612"
    },
    {
      "channel": 3,
      "note": 55,
      "start": 36.6733,
      "duration": 0.0999,
      "velocity": 95,
      "chip": "ym2612"
    },
    {
      "channel": 0,
      "note": 77,
      "start": 36.7731,
      "duration": 0.0802,
      "velocity": 93,
      "chip": "ym2612"
    },
    {
      "channel": 3,
      "note": 57,
      "start": 36.7732,
      "duration": 0.0803,
      "velocity": 95,
      "chip": "ym2612"
    },
    {
      "channel": 0,
      "note": 78,
      "start": 36.8533,
      "duration": 0.0013,
      "velocity": 93,
      "chip": "ym2612"
    },
    {
      "channel": 1,
      "note": 50,
      "start": 36.8534,
      "duration": 0.0366,
      "velocity": 99,
      "chip": "ym2612"
    },
    {
      "channel": 2,
      "note": 86,
      "start": 36.8535,
      "duration": 1.5016,
      "velocity": 127,
      "chip": "ym2612"
    },
    {
      "channel": 3,
      "note": 62,
      "start": 36.8535,
      "duration": 1.6682,
      "velocity": 95,
      "chip": "ym2612"
    },
    {
      "channel": 4,
      "note": 62,
      "start": 36.8537,
      "duration": 1.5015,
      "velocity": 93,
      "chip": "ym2612"
    },
    {
      "channel": 0,
      "note": 79,
      "start": 36.8547,
      "duration": 0.0353,
      "velocity": 93,
      "chip": "ym2612"
    },
    {
      "channel": 0,
      "note": 83,
      "start": 36.89,
      "duration": 0.0799,
      "velocity": 93,
      "chip": "ym2612"
    },
    {
      "channel": 1,
      "note": 57,
      "start": 36.8901,
      "duration": 0.1799,
      "velocity": 99,
      "chip": "ym2612"
    },
    {
      "channel": 0,
      "note": 86,
      "start": 36.9699,
      "duration": 0.1,
      "velocity": 93,
      "chip": "ym2612"
    },
    {
      "channel": 0,
      "note": 90,
      "start": 37.07,
      "duration": 0.0799,
      "velocity": 93,
      "chip": "ym2612"
    },
    {
      "channel": 1,
      "note": 62,
      "start": 37.07,
      "duration": 0.1599,
      "velocity": 99,
      "chip": "ym2612"
    },
    {
      "channel": 0,
      "note": 91,
      "start": 37.1499,
      "duration": 0.08,
      "velocity": 93,
      "chip": "ym2612"
    },
    {
      "channel": 0,
      "note": 90,
      "start": 37.23,
      "duration": 0.0799,
      "velocity": 93,
      "chip": "ym2612"
    },
    {
      "channel": 1,
      "note": 67,
      "start": 37.23,
      "duration": 0.1801,
      "velocity": 99,
      "chip": "ym2612"
    },
    {
      "channel": 0,
      "note": 86,
      "start": 37.3099,
      "duration": 0.1001,
      "velocity": 93,
      "chip": "ym2612"
    },
    {
      "channel": 0,
      "note": 83,
      "start": 37.4101,
      "duration": 0.0011,
      "velocity": 93,
      "chip": "ym2612"
    },
    {
      "channel": 1,
      "note": 69,
      "start": 37.4102,
      "duration": 0.0021,
      "velocity": 99,
      "chip": "ym2612"
    },
    {
      "channel": 0,
      "note": 79,
      "start": 37.4113,
      "duration": 0.0009,
      "velocity": 93,
      "chip": "ym2612"
    },
    {
      "channel": 0,
      "note": 78,
      "start": 37.4123,
      "duration": 0.0663,
      "velocity": 93,
      "chip": "ym2612"
    },
    {
      "channel": 1,
      "note": 62,
      "start": 37.4124,
      "duration": 0.1664,
      "velocity": 99,
      "chip": "ym2612"
    },
    {
      "channel": 0,
      "note": 79,
      "start": 37.4786,
      "duration": 0.1001,
      "velocity": 93,
      "chip": "ym2612"
    },
    {
      "channel": 0,
      "note": 83,
      "start": 37.5787,
      "duration": 0.0799,
      "velocity": 93,
      "chip": "ym2612"
    },
    {
      "channel": 1,
      "note": 67,
      "start": 37.5788,
      "duration": 0.1599,
      "velocity": 99,
      "chip": "ym2612"
    },
    {
      "channel": 0,
      "note": 86,
      "start": 37.6586,
      "duration": 0.0801,
      "velocity": 93,
      "chip": "ym2612"
    },
    {
      "channel": 0,
      "note": 90,
      "start": 37.7387,
      "duration": 0.0799,
      "velocity": 93,
      "chip": "ym2612"
    },
    {
      "channel": 1,
      "note": 69,
      "start": 37.7388,
      "duration": 0.18,
      "velocity": 99,
      "chip": "ym2612"
    },
    {
      "channel": 0,
      "note": 91,
      "start": 37.8186,
      "duration": 0.1001,
      "velocity": 93,
      "chip": "ym2612"
    },
    {
      "channel": 0,
      "note": 90,
      "start": 37.9188,
      "duration": 0.0011,
      "velocity": 93,
      "chip": "ym2612"
    },
    {
      "channel": 1,
      "note": 50,
      "start": 37.9188,
      "duration": 0.0368,
      "velocity": 99,
      "chip": "ym2612"
    },
    {
      "channel": 0,
      "note": 86,
      "start": 37.9199,
      "duration": 0.0357,
      "velocity": 93,
      "chip": "ym2612"
    },
    {
      "channel": 0,
      "note": 83,
      "start": 37.9557,
      "duration": 0.0399,
      "velocity": 93,
      "chip": "ym2612"
    },
    {
      "channel": 1,
      "note": 57,
      "start": 37.9557,
      "duration": 0.1799,
      "velocity": 99,
      "chip": "ym2612"
    },
    {
      "channel": 0,
      "note": 83,
      "start": 37.9956,
      "duration": 0.0399,
      "velocity": 93,
      "chip": "ym2612"
    },
    {
      "channel": 0,
      "note": 79,
      "start": 38.0356,
      "duration": 0.0599,
      "velocity": 93,
      "chip": "ym2612"
    },
    {
      "channel": 0,
      "note": 78,
      "start": 38.1356,
      "duration": 0.0799,
      "velocity": 93,
      "chip": "ym2612"
    },
    {
      "channel": 1,
      "note": 62,
      "start": 38.1357,
      "duration": 0.1601,
      "velocity": 99,
      "chip": "ym2612"
    },
    {
      "channel": 0,
      "note": 79,
      "start": 38.2155,
      "duration": 0.0801,
      "velocity": 93,
      "chip": "ym2612"
    },
    {
      "channel": 0,
      "note": 83,
      "start": 38.2957,
      "duration": 0.0011,
      "velocity": 93,
      "chip": "ym2612"
    },
    {
      "channel": 1,
      "note": 67,
      "start": 38.2958,
      "duration": 0.057,
      "velocity": 99,
      "chip": "ym2612"
    },
    {
      "channel": 0,
      "note": 86,
      "start": 38.2969,
      "duration": 0.0558,
      "velocity": 93,
      "chip": "ym2612"
    },
    {
      "channel": 0,
      "note": 90,
      "start": 38.3527,
      "duration": 0.0011,
      "velocity": 93,
      "chip": "ym2612"
    },
    {
      "channel": 1,
      "note": 69,
      "start": 38.3528,
      "duration": 0.0022,
      "velocity": 99,
      "chip": "ym2612"
    },
    {
      "channel": 0,
      "note": 91,
      "start": 38.3539,
      "duration": 0.0011,
      "velocity": 93,
      "chip": "ym2612"
    },
    {
      "channel": 0,
      "note": 90,
      "start": 38.355,
      "duration": 0.0663,
      "velocity": 93,
      "chip": "ym2612"
    },
    {
      "channel": 1,
      "note": 67,
      "start": 38.3551,
      "duration": 0.1665,
      "velocity": 99,
      "chip": "ym2612"
    },
    {
      "channel": 2,
      "note": 84,
      "start": 38.3551,
      "duration": 0.1665,
      "velocity": 127,
      "chip": "ym2612"
    },
    {
      "channel": 4,
      "note": 60,
      "start": 38.3553,
      "duration": 0.1665,
      "velocity": 93,
      "chip": "ym2612"
    },
    {
      "channel": 0,
      "note": 86,
      "start": 38.4213,
      "duration": 0.1002,
      "velocity": 93,
      "chip": "ym2612"
    },
    {
      "channel": 0,
      "note": 83,
      "start": 38.5216,
      "duration": 0.0798,
      "velocity": 93,
      "chip": "ym2612"
    },
    {
      "channel": 1,
      "note": 62,
      "start": 38.5216,
      "duration": 0.16,
      "velocity": 99,
      "chip": "ym2612"
    },
    {
      "channel": 2,
      "note": 83,
      "start": 38.5217,
      "duration": 0.16,
      "velocity": 127,
      "chip": "ym2612"
    },
    {
      "channel": 3,
      "note": 60,
      "start": 38.5218,
      "duration": 0.16,
      "velocity": 95,
      "chip": "ym2612"
    },
    {
      "channel": 4,
      "note": 59,
      "start": 38.5218,
      "duration": 0.16,
      "velocity": 93,
      "chip": "ym2612"
    },
    {
      "channel": 0,
      "note": 79,
      "start": 38.6014,
      "duration": 0.0802,
      "velocity": 93,
      "chip": "ym2612"
    },
    {
      "channel": 0,
      "note": 78,
      "start": 38.6816,
      "duration": 0.0797,
      "velocity": 93,
      "chip": "ym2612"
    },
    {
      "channel": 1,
      "note": 57,
      "start": 38.6817,
      "duration": 0.1802,
      "velocity": 99,
      "chip": "ym2612"
    },
    {
      "channel": 2,
      "note": 79,
      "start": 38.6818,
      "duration": 0.1802,
      "velocity": 127,
      "chip": "ym2612"
    },
    {
      "channel": 3,
      "note": 62,
      "start": 38.6818,
      "duration": 0.1802,
      "velocity": 95,
      "chip": "ym2612"
    },
    {
      "channel": 4,
      "note": 55,
      "start": 38.6819,
      "duration": 0.1802,
      "velocity": 93,
      "chip": "ym2612"
    },
    {
      "channel": 0,
      "note": 79,
      "start": 38.7613,
      "duration": 0.1005,
      "velocity": 93,
      "chip": "ym2612"
    },
    {
      "channel": 0,
      "note": 76,
      "start": 38.8618,
      "duration": 0.0013,
      "velocity": 93,
      "chip": "ym2612"
    },
    {
      "channel": 1,
      "note": 50,
      "start": 38.8619,
      "duration": 0.0365,
      "velocity": 99,
      "chip": "ym2612"
    },
    {
      "channel": 2,
      "note": 81,
      "start": 38.862,
      "duration": 0.3964,
      "velocity": 127,
      "chip": "ym2612"
    },
    {
      "channel": 3,
      "note": 50,
      "start": 38.8621,
      "duration": 1.9511,
      "velocity": 95,
      "chip": "ym2612"
    },
    {
      "channel": 4,
      "note": 57,
      "start": 38.8622,
      "duration": 0.3963,
      "velocity": 93,
      "chip": "ym2612"
    },
    {
      "channel": 0,
      "note": 77,
      "start": 38.8632,
      "duration": 0.0352,
      "velocity": 93,
      "chip": "ym2612"
    },
    {
      "channel": 0,
      "note": 81,
      "start": 38.8984,
      "duration": 0.0799,
      "velocity": 93,
      "chip": "ym2612"
    },
    {
      "channel": 1,
      "note": 57,
      "start": 38.8985,
      "duration": 0.1599,
      "velocity": 99,
      "chip": "ym2612"
    },
    {
      "channel": 0,
      "note": 84,
      "start": 38.9783,
      "duration": 0.08,
      "velocity": 93,
      "chip": "ym2612"
    },
    {
      "channel": 0,
      "note": 88,
      "start": 39.0583,
      "duration": 0.0999,
      "velocity": 93,
      "chip": "ym2612"
    },
    {
      "channel": 1,
      "note": 62,
      "start": 39.0584,
      "duration": 0.1799,
      "velocity": 99,
      "chip": "ym2612"
    },
    {
      "channel": 0,
      "note": 89,
      "start": 39.1583,
      "duration": 0.08,
      "velocity": 93,
      "chip": "ym2612"
    },
    {
      "channel": 0,
      "note": 88,
      "start": 39.2383,
      "duration": 0.0798,
      "velocity": 93,
      "chip": "ym2612"
    },
    {
      "channel": 1,
      "note": 67,
      "start": 39.2384,
      "duration": 0.1602,
      "velocity": 99,
      "chip": "ym2612"
    },
    {
      "channel": 0,
      "note": 84,
      "start": 39.3182,
      "duration": 0.0803,
      "velocity": 93,
      "chip": "ym2612"
    },
    {
      "channel": 0,
      "note": 81,
      "start": 39.3985,
      "duration": 0.0016,
      "velocity": 93,
      "chip": "ym2612"
    },
    {
      "channel": 1,
      "note": 69,
      "start": 39.3986,
      "duration": 0.0087,
      "velocity": 99,
      "chip": "ym2612"
    },
    {
      "channel": 2,
      "note": 81,
      "start": 39.3987,
      "duration": 0.3488,
      "velocity": 127,
      "chip": "ym2612"
    },
    {
      "channel": 4,
      "note": 57,
      "start": 39.3988,
      "duration": 0.3487,
      "velocity": 93,
      "chip": "ym2612"
    },
    {
      "channel": 0,
      "note": 77,
      "start": 39.4002,
      "duration": 0.007,
      "velocity": 93,
      "chip": "ym2612"
    },
    {
      "channel": 0,
      "note": 76,
      "start": 39.4073,
      "duration": 0.0799,
      "velocity": 93,
      "chip": "ym2612"
    },
    {
      "channel": 1,
      "note": 62,
      "start": 39.4073,
      "duration": 0.1599,
      "velocity": 99,
      "chip": "ym2612"
    },
    {
      "channel": 0,
      "note": 77,
      "start": 39.4871,
      "duration": 0.0801,
      "velocity": 93,
      "chip": "ym2612"
    },
    {
      "channel": 0,
      "note": 81,
      "start": 39.5673,
      "duration": 0.0999,
      "velocity": 93,
      "chip": "ym2612"
    },
    {
      "channel": 1,
      "note": 67,
      "start": 39.5673,
      "duration": 0.18,
      "velocity": 99,
      "chip": "ym2612"
    },
    {
      "channel": 0,
      "note": 84,
      "start": 39.6671,
      "duration": 0.0802,
      "velocity": 93,
      "chip": "ym2612"
    },
    {
      "channel": 0,
      "note": 88,
      "start": 39.7473,
      "duration": 0.0798,
      "velocity": 93,
      "chip": "ym2612"
    },
    {
      "channel": 1,
      "note": 69,
      "start": 39.7474,
      "duration": 0.1601,
      "velocity": 99,
      "chip": "ym2612"
    },
    {
      "channel": 2,
      "note": 88,
      "start": 39.7474,
      "duration": 0.1601,
      "velocity": 127,
      "chip": "ym2612"
    },
    {
      "channel": 4,
      "note": 64,
      "start": 39.7476,
      "duration": 0.1601,
      "velocity": 93,
      "chip": "ym2612"
    },
    {
      "channel": 0,
      "note": 89,
      "start": 39.8271,
      "duration": 0.0802,
      "velocity": 93,
      "chip": "ym2612"
    },
    {
      "channel": 0,
      "note": 88,
      "start": 39.9074,
      "duration": 0.0015,
      "velocity": 93,
      "chip": "ym2612"
    },
    {
      "channel": 1,
      "note": 50,
      "start": 39.9075,
      "duration": 0.0568,
      "velocity": 99,
      "chip": "ym2612"
    },
    {
      "channel": 2,
      "note": 88,
      "start": 39.9076,
      "duration": 0.0568,
      "velocity": 127,
      "chip": "ym2612"
    },
    {
      "channel": 4,
      "note": 64,
      "start": 39.9077,
      "duration": 0.0568,
      "velocity": 93,
      "chip": "ym2612"
    },
    {
      "channel": 0,
      "note": 84,
      "start": 39.9089,
      "duration": 0.0553,
      "velocity": 93,
      "chip": "ym2612"
    },
    {
      "channel": 0,
      "note": 81,
      "start": 39.9643,
      "duration": 0.0199,
      "velocity": 93,
      "chip": "ym2612"
    },
    {
      "channel": 1,
      "note": 57,
      "start": 39.9643,
      "duration": 0.16,
      "velocity": 99,
      "chip": "ym2612"
    },
    {
      "channel": 2,
      "note": 89,
      "start": 39.9644,
      "duration": 0.1599,
      "velocity": 127,
      "chip": "ym2612"
    },
    {
      "channel": 4,
      "note": 65,
      "start": 39.9646,
      "duration": 0.1599,
      "velocity": 93,
      "chip": "ym2612"
    },
    {
      "channel": 0,
      "note": 81,
      "start": 39.9841,
      "duration": 0.0599,
      "velocity": 93,
      "chip": "ym2612"
    },
    {
      "channel": 0,
      "note": 77,
      "start": 40.0441,
      "duration": 0.0599,
      "velocity": 93,
      "chip": "ym2612"
    },
    {
      "channel": 0,
      "note": 76,
      "start": 40.1243,
      "duration": 0.0998,
      "velocity": 93,
      "chip": "ym2612"
    },
    {
      "channel": 1,
      "note": 62,
      "start": 40.1243,
      "duration": 0.1799,
      "velocity": 99,
      "chip": "ym2612"
    },
    {
      "channel": 2,
      "note": 88,
      "start": 40.1244,
      "duration": 0.3487,
      "velocity": 127,
      "chip": "ym2612"
    },
    {
      "channel": 4,
      "note": 64,
      "start": 40.1245,
      "duration": 0.3486,
      "velocity": 93,
      "chip": "ym2612"
    },
    {
      "channel": 0,
      "note": 77,
      "start": 40.2241,
      "duration": 0.0801,
      "velocity": 93,
      "chip": "ym2612"
    },
    {
      "channel": 0,
      "note": 81,
      "start": 40.3042,
      "duration": 0.0799,
      "velocity": 93,
      "chip": "ym2612"
    },
    {
      "channel": 1,
      "note": 67,
      "start": 40.3043,
      "duration": 0.16,
      "velocity": 99,
      "chip": "ym2612"
    },
    {
      "channel": 0,
      "note": 84,
      "start": 40.3841,
      "duration": 0.0801,
      "velocity": 93,
      "chip": "ym2612"
    },
    {
      "channel": 0,
      "note": 88,
      "start": 40.4643,
      "duration": 0.0013,
      "velocity": 93,
      "chip": "ym2612"
    },
    {
      "channel": 1,
      "note": 69,
      "start": 40.4643,
      "duration": 0.0087,
      "velocity": 99,
      "chip": "ym2612"
    },
    {
      "channel": 0,
      "note": 89,
      "start": 40.4656,
      "duration": 0.0074,
      "velocity": 93,
      "chip": "ym2612"
    },
    {
      "channel": 0,
      "note": 88,
      "start": 40.473,
      "duration": 0.0798,
      "velocity": 93,
      "chip": "ym2612"
    },
    {
      "channel": 1,
      "note": 67,
      "start": 40.473,
      "duration": 0.16,
      "velocity": 99,
      "chip": "ym2612"
    },
    {
      "channel": 2,
      "note": 89,
      "start": 40.4731,
      "duration": 0.1599,
      "velocity": 127,
      "chip": "ym2612"
    },
    {
      "channel": 4,
      "note": 65,
      "start": 40.4732,
      "duration": 0.1599,
      "velocity": 93,
      "chip": "ym2612"
    },
    {
      "channel": 0,
      "note": 84,
      "start": 40.5528,
      "duration": 0.0801,
      "velocity": 93,
      "chip": "ym2612"
    },
    {
      "channel": 0,
      "note": 81,
      "start": 40.633,
      "duration": 0.0998,
      "velocity": 93,
      "chip": "ym2612"
    },
    {
      "channel": 1,
      "note": 62,
      "start": 40.633,
      "duration": 0.18,
      "velocity": 99,
      "chip": "ym2612"
    },
    {
      "channel": 2,
      "note": 91,
      "start": 40.6331,
      "duration": 0.18,
      "velocity": 127,
      "chip": "ym2612"
    },
    {
      "channel": 4,
      "note": 67,
      "start": 40.6332,
      "duration": 0.18,
      "velocity": 93,
      "chip": "ym2612"
    },
    {
      "channel": 0,
      "note": 77,
      "start": 40.7328,
      "duration": 0.0801,
      "velocity": 93,
      "chip": "ym2612"
    },
    {
      "channel": 0,
      "note": 76,
      "start": 40.813,
      "duration": 0.0798,
      "velocity": 93,
      "chip": "ym2612"
    },
    {
      "channel": 1,
      "note": 57,
      "start": 40.8131,
      "duration": 0.1601,
      "velocity": 99,
      "chip": "ym2612"
    },
    {
      "channel": 2,
      "note": 88,
      "start": 40.8132,
      "duration": 0.1395,
      "velocity": 127,
      "chip": "ym2612"
    },
    {
      "channel": 3,
      "note": 55,
      "start": 40.8132,
      "duration": 0.0798,
      "velocity": 95,
      "chip": "ym2612"
    },
    {
      "channel": 4,
      "note": 64,
      "start": 40.8133,
      "duration": 0.1395,
      "velocity": 93,
      "chip": "ym2612"
    },
    {
      "channel": 0,
      "note": 77,
      "start": 40.8929,
      "duration": 0.0802,
      "velocity": 93,
      "chip": "ym2612"
    },
    {
      "channel": 3,
      "note": 57,
      "start": 40.893,
      "duration": 0.0803,
      "velocity": 95,
      "chip": "ym2612"
    },
    {
      "channel": 0,
      "note": 78,
      "start": 40.9732,
      "duration": 0.0015,
      "velocity": 93,
      "chip": "ym2612"
    },
    {
      "channel": 1,
      "note": 50,
      "start": 40.9732,
      "duration": 0.0566,
      "velocity": 99,
      "chip": "ym2612"
    },
    {
      "channel": 2,
      "note": 86,
      "start": 40.9733,
      "duration": 1.8486,
      "velocity": 127,
      "chip": "ym2612"
    },
    {
      "channel": 3,
      "note": 62,
      "start": 40.9733,
      "duration": 1.8502,
      "velocity": 95,
      "chip": "ym2612"
    },
    {
      "channel": 4,
      "note": 62,
      "start": 40.9735,
      "duration": 1.8485,
      "velocity": 93,
      "chip": "ym2612"
    },
    {
      "channel": 0,
      "note": 79,
      "start": 40.9747,
      "duration": 0.0551,
      "velocity": 93,
      "chip": "ym2612"
    },
    {
      "channel": 0,
      "note": 83,
      "start": 41.0298,
      "duration": 0.0799,
      "velocity": 93,
      "chip": "ym2612"
    },
    {
      "channel": 1,
      "note": 57,
      "start": 41.0299,
      "duration": 0.1599,
      "velocity": 99,
      "chip": "ym2612"
    },
    {
      "channel": 0,
      "note": 86,
      "start": 41.1097,
      "duration": 0.08,
      "velocity": 93,
      "chip": "ym2612"
    },
    {
      "channel": 0,
      "note": 90,
      "start": 41.1898,
      "duration": 0.0999,
      "velocity": 93,
      "chip": "ym2612"
    },
    {
      "channel": 1,
      "note": 62,
      "start": 41.1898,
      "duration": 0.1799,
      "velocity": 99,
      "chip": "ym2612"
    },
    {
      "channel": 0,
      "note": 91,
      "start": 41.2897,
      "duration": 0.08,
      "velocity": 93,
      "chip": "ym2612"
    },
    {
      "channel": 0,
      "note": 90,
      "start": 41.3698,
      "duration": 0.0799,
      "velocity": 93,
      "chip": "ym2612"
    },
    {
      "channel": 1,
      "note": 67,
      "start": 41.3698,
      "duration": 0.1601,
      "velocity": 99,
      "chip": "ym2612"
    },
    {
      "channel": 0,
      "note": 86,
      "start": 41.4497,
      "duration": 0.0801,
      "velocity": 93,
      "chip": "ym2612"
    },
    {
      "channel": 0,
      "note": 83,
      "start": 41.5299,
      "duration": 0.0011,
      "velocity": 93,
      "chip": "ym2612"
    },
    {
      "channel": 1,
      "note": 69,
      "start": 41.53,
      "duration": 0.0087,
      "velocity": 99,
      "chip": "ym2612"
    },
    {
      "channel": 0,
      "note": 79,
      "start": 41.5311,
      "duration": 0.0075,
      "velocity": 93,
      "chip": "ym2612"
    },
    {
      "channel": 0,
      "note": 78,
      "start": 41.5387,
      "duration": 0.0798,
      "velocity": 93,
      "chip": "ym2612"
    },
    {
      "channel": 1,
      "note": 62,
      "start": 41.5387,
      "duration": 0.1599,
      "velocity": 99,
      "chip": "ym2612"
    },
    {
      "channel": 0,
      "note": 79,
      "start": 41.6185,
      "duration": 0.0801,
      "velocity": 93,
      "chip": "ym2612"
    },
    {
      "channel": 0,
      "note": 83,
      "start": 41.6987,
      "duration": 0.0799,
      "velocity": 93,
      "chip": "ym2612"
    },
    {
      "channel": 1,
      "note": 67,
      "start": 41.6987,
      "duration": 0.18,
      "velocity": 99,
      "chip": "ym2612"
    },
    {
      "channel": 0,
      "note": 86,
      "start": 41.7785,
      "duration": 0.1001,
      "velocity": 93,
      "chip": "ym2612"
    },
    {
      "channel": 0,
      "note": 90,
      "start": 41.8787,
      "duration": 0.0012,
      "velocity": 93,
      "chip": "ym2612"
    },
    {
      "channel": 1,
      "note": 69,
      "start": 41.8788,
      "duration": 0.0368,
      "velocity": 99,
      "chip": "ym2612"
    },
    {
      "channel": 0,
      "note": 91,
      "start": 41.8799,
      "duration": 0.0357,
      "velocity": 93,
      "chip": "ym2612"
    },
    {
      "channel": 0,
      "note": 90,
      "start": 41.9156,
      "duration": 0.0799,
      "velocity": 93,
      "chip": "ym2612"
    },
    {
      "channel": 1,
      "note": 50,
      "start": 41.9157,
      "duration": 0.1799,
      "velocity": 99,
      "chip": "ym2612"
    },
    {
      "channel": 0,
      "note": 86,
      "start": 41.9955,
      "duration": 0.1001,
      "velocity": 93,
      "chip": "ym2612"
    },
    {
      "channel": 0,
      "note": 83,
      "start": 42.0956,
      "duration": 0.0199,
      "velocity": 93,
      "chip": "ym2612"
    },
    {
      "channel": 1,
      "note": 57,
      "start": 42.0957,
      "duration": 0.1599,
      "velocity": 99,
      "chip": "ym2612"
    },
    {
      "channel": 0,
      "note": 83,
      "start": 42.1156,
      "duration": 0.0599,
      "velocity": 93,
      "chip": "ym2612"
    },
    {
      "channel": 0,
      "note": 79,
      "start": 42.1756,
      "duration": 0.0599,
      "velocity": 93,
      "chip": "ym2612"
    },
    {
      "channel": 0,
      "note": 78,
      "start": 42.2556,
      "duration": 0.0799,
      "velocity": 93,
      "chip": "ym2612"
    },
    {
      "channel": 1,
      "note": 62,
      "start": 42.2556,
      "duration": 0.1801,
      "velocity": 99,
      "chip": "ym2612"
    },
    {
      "channel": 0,
      "note": 79,
      "start": 42.3355,
      "duration": 0.1001,
      "velocity": 93,
      "chip": "ym2612"
    },
    {
      "channel": 0,
      "note": 83,
      "start": 42.4357,
      "duration": 0.0011,
      "velocity": 93,
      "chip": "ym2612"
    },
    {
      "channel": 1,
      "note": 67,
      "start": 42.4357,
      "duration": 0.0369,
      "velocity": 99,
      "chip": "ym2612"
    },
    {
      "channel": 0,
      "note": 86,
      "start": 42.4368,
      "duration": 0.0358,
      "velocity": 93,
      "chip": "ym2612"
    },
    {
      "channel": 0,
      "note": 90,
      "start": 42.4727,
      "duration": 0.0011,
      "velocity": 93,
      "chip": "ym2612"
    },
    {
      "channel": 1,
      "note": 69,
      "start": 42.4727,
      "duration": 0.0086,
      "velocity": 99,
      "chip": "ym2612"
    },
    {
      "channel": 0,
      "note": 91,
      "start": 42.4738,
      "duration": 0.0075,
      "velocity": 93,
      "chip": "ym2612"
    },
    {
      "channel": 0,
      "note": 90,
      "start": 42.4813,
      "duration": 0.0799,
      "velocity": 93,
      "chip": "ym2612"
    },
    {
      "channel": 1,
      "note": 67,
      "start": 42.4814,
      "duration": 0.1599,
      "velocity": 99,
      "chip": "ym2612"
    },
    {
      "channel": 0,
      "note": 86,
      "start": 42.5612,
      "duration": 0.0801,
      "velocity": 93,
      "chip": "ym2612"
    },
    {
      "channel": 0,
      "note": 83,
      "start": 42.6413,
      "duration": 0.0799,
      "velocity": 93,
      "chip": "ym2612"
    },
    {
      "channel": 1,
      "note": 62,
      "start": 42.6414,
      "duration": 0.1799,
      "velocity": 99,
      "chip": "ym2612"
    },
    {
      "channel": 0,
      "note": 79,
      "start": 42.7213,
      "duration": 0.1,
      "velocity": 93,
      "chip": "ym2612"
    },
    {
      "channel": 0,
      "note": 78,
      "start": 42.8213,
      "duration": 0.001,
      "velocity": 93,
      "chip": "ym2612"
    },
    {
      "channel": 1,
      "note": 57,
      "start": 42.8214,
      "duration": 0.0014,
      "velocity": 99,
      "chip": "ym2612"
    },
    {
      "channel": 0,
      "note": 79,
      "start": 42.8224,
      "duration": 0.001,
      "velocity": 93,
      "chip": "ym2612"
    },
    {
      "channel": 0,
      "note": 71,
      "start": 42.8235,
      "duration": 0.0009,
      "velocity": 93,
      "chip": "ym2612"
    },
    {
      "channel": 1,
      "note": 45,
      "start": 42.8236,
      "duration": 0.0567,
      "velocity": 99,
      "chip": "ym2612"
    },
    {
      "channel": 3,
      "note": 45,
      "start": 42.8236,
      "duration": 1.6683,
      "velocity": 95,
      "chip": "ym2612"
    },
    {
      "channel": 0,
      "note": 72,
      "start": 42.8245,
      "duration": 0.0557,
      "velocity": 93,
      "chip": "ym2612"
    },
    {
      "channel": 0,
      "note": 76,
      "start": 42.8802,
      "duration": 0.0799,
      "velocity": 93,
      "chip": "ym2612"
    },
    {
      "channel": 1,
      "note": 52,
      "start": 42.8802,
      "duration": 0.1601,
      "velocity": 99,
      "chip": "ym2612"
    },
    {
      "channel": 0,
      "note": 79,
      "start": 42.9602,
      "duration": 0.08,
      "velocity": 93,
      "chip": "ym2612"
    },
    {
      "channel": 0,
      "note": 83,
      "start": 43.0402,
      "duration": 0.0799,
      "velocity": 93,
      "chip": "ym2612"
    },
    {
      "channel": 1,
      "note": 57,
      "start": 43.0403,
      "duration": 0.1799,
      "velocity": 99,
      "chip": "ym2612"
    },
    {
      "channel": 0,
      "note": 84,
      "start": 43.1202,
      "duration": 0.1,
      "velocity": 93,
      "chip": "ym2612"
    },
    {
      "channel": 0,
      "note": 83,
      "start": 43.2202,
      "duration": 0.0799,
      "velocity": 93,
      "chip": "ym2612"
    },
    {
      "channel": 1,
      "note": 62,
      "start": 43.2202,
      "duration": 0.1603,
      "velocity": 99,
      "chip": "ym2612"
    },
    {
      "channel": 0,
      "note": 79,
      "start": 43.3002,
      "duration": 0.0803,
      "velocity": 93,
      "chip": "ym2612"
    },
    {
      "channel": 0,
      "note": 76,
      "start": 43.3805,
      "duration": 0.0012,
      "velocity": 93,
      "chip": "ym2612"
    },
    {
      "channel": 1,
      "note": 64,
      "start": 43.3806,
      "duration": 0.0084,
      "velocity": 99,
      "chip": "ym2612"
    },
    {
      "channel": 2,
      "note": 76,
      "start": 43.3807,
      "duration": 0.3287,
      "velocity": 127,
      "chip": "ym2612"
    },
    {
      "channel": 4,
      "note": 52,
      "start": 43.3808,
      "duration": 0.3286,
      "velocity": 93,
      "chip": "ym2612"
    },
    {
      "channel": 0,
      "note": 72,
      "start": 43.3818,
      "duration": 0.0072,
      "velocity": 93,
      "chip": "ym2612"
    },
    {
      "channel": 0,
      "note": 71,
      "start": 43.389,
      "duration": 0.0799,
      "velocity": 93,
      "chip": "ym2612"
    },
    {
      "channel": 1,
      "note": 57,
      "start": 43.3891,
      "duration": 0.1599,
      "velocity": 99,
      "chip": "ym2612"
    },
    {
      "channel": 0,
      "note": 72,
      "start": 43.469,
      "duration": 0.08,
      "velocity": 93,
      "chip": "ym2612"
    },
    {
      "channel": 0,
      "note": 76,
      "start": 43.549,
      "duration": 0.0799,
      "velocity": 93,
      "chip": "ym2612"
    },
    {
      "channel": 1,
      "note": 62,
      "start": 43.5491,
      "duration": 0.1602,
      "velocity": 99,
      "chip": "ym2612"
    },
    {
      "channel": 0,
      "note": 79,
      "start": 43.629,
      "duration": 0.0802,
      "velocity": 93,
      "chip": "ym2612"
    },
    {
      "channel": 0,
      "note": 83,
      "start": 43.7092,
      "duration": 0.0998,
      "velocity": 93,
      "chip": "ym2612"
    },
    {
      "channel": 1,
      "note": 64,
      "start": 43.7093,
      "duration": 0.18,
      "velocity": 99,
      "chip": "ym2612"
    },
    {
      "channel": 2,
      "note": 83,
      "start": 43.7093,
      "duration": 0.18,
      "velocity": 127,
      "chip": "ym2612"
    },
    {
      "channel": 4,
      "note": 59,
      "start": 43.7095,
      "duration": 0.18,
      "velocity": 93,
      "chip": "ym2612"
    },
    {
      "channel": 0,
      "note": 84,
      "start": 43.809,
      "duration": 0.0802,
      "velocity": 93,
      "chip": "ym2612"
    },
    {
      "channel": 0,
      "note": 83,
      "start": 43.8892,
      "duration": 0.0013,
      "velocity": 93,
      "chip": "ym2612"
    },
    {
      "channel": 1,
      "note": 45,
      "start": 43.8893,
      "duration": 0.0369,
      "velocity": 99,
      "chip": "ym2612"
    },
    {
      "channel": 2,
      "note": 83,
      "start": 43.8894,
      "duration": 0.0369,
      "velocity": 127,
      "chip": "ym2612"
    },
    {
      "channel": 4,
      "note": 59,
      "start": 43.8895,
      "duration": 0.0369,
      "velocity": 93,
      "chip": "ym2612"
    },
    {
      "channel": 0,
      "note": 79,
      "start": 43.8906,
      "duration": 0.0356,
      "velocity": 93,
      "chip": "ym2612"
    },
    {
      "channel": 0,
      "note": 76,
      "start": 43.9262,
      "duration": 0.0398,
      "velocity": 93,
      "chip": "ym2612"
    },
    {
      "channel": 1,
      "note": 52,
      "start": 43.9263,
      "duration": 0.1799,
      "velocity": 99,
      "chip": "ym2612"
    },
    {
      "channel": 2,
      "note": 84,
      "start": 43.9263,
      "duration": 0.1799,
      "velocity": 127,
      "chip": "ym2612"
    },
    {
      "channel": 4,
      "note": 60,
      "start": 43.9265,
      "duration": 0.1799,
      "velocity": 93,
      "chip": "ym2612"
    },
    {
      "channel": 0,
      "note": 76,
      "start": 43.966,
      "duration": 0.0599,
      "velocity": 93,
      "chip": "ym2612"
    },
    {
      "channel": 0,
      "note": 72,
      "start": 44.026,
      "duration": 0.0599,
      "velocity": 93,
      "chip": "ym2612"
    },
    {
      "channel": 0,
      "note": 71,
      "start": 44.1062,
      "duration": 0.0798,
      "velocity": 93,
      "chip": "ym2612"
    },
    {
      "channel": 1,
      "note": 57,
      "start": 44.1063,
      "duration": 0.1598,
      "velocity": 99,
      "chip": "ym2612"
    },
    {
      "channel": 2,
      "note": 83,
      "start": 44.1063,
      "duration": 0.2169,
      "velocity": 127,
      "chip": "ym2612"
    },
    {
      "channel": 4,
      "note": 59,
      "start": 44.1065,
      "duration": 0.2168,
      "velocity": 93,
      "chip": "ym2612"
    },
    {
      "channel": 0,
      "note": 72,
      "start": 44.186,
      "duration": 0.0801,
      "velocity": 93,
      "chip": "ym2612"
    },
    {
      "channel": 0,
      "note": 76,
      "start": 44.2661,
      "duration": 0.0013,
      "velocity": 93,
      "chip": "ym2612"
    },
    {
      "channel": 1,
      "note": 62,
      "start": 44.2662,
      "duration": 0.057,
      "velocity": 99,
      "chip": "ym2612"
    },
    {
      "channel": 0,
      "note": 79,
      "start": 44.2674,
      "duration": 0.0557,
      "velocity": 93,
      "chip": "ym2612"
    },
    {
      "channel": 0,
      "note": 83,
      "start": 44.3231,
      "duration": 0.0013,
      "velocity": 93,
      "chip": "ym2612"
    },
    {
      "channel": 1,
      "note": 64,
      "start": 44.3232,
      "duration": 0.0024,
      "velocity": 99,
      "chip": "ym2612"
    },
    {
      "channel": 2,
      "note": 76,
      "start": 44.3232,
      "duration": 0.3084,
      "velocity": 127,
      "chip": "ym2612"
    },
    {
      "channel": 4,
      "note": 52,
      "start": 44.3234,
      "duration": 0.3288,
      "velocity": 93,
      "chip": "ym2612"
    },
    {
      "channel": 0,
      "note": 84,
      "start": 44.3244,
      "duration": 0.0011,
      "velocity": 93,
      "chip": "ym2612"
    },
    {
      "channel": 0,
      "note": 83,
      "start": 44.3256,
      "duration": 0.0861,
      "velocity": 93,
      "chip": "ym2612"
    },
    {
      "channel": 1,
      "note": 57,
      "start": 44.3257,
      "duration": 0.1661,
      "velocity": 99,
      "chip": "ym2612"
    },
    {
      "channel": 0,
      "note": 79,
      "start": 44.4117,
      "duration": 0.08,
      "velocity": 93,
      "chip": "ym2612"
    },
    {
      "channel": 0,
      "note": 76,
      "start": 44.4918,
      "duration": 0.0799,
      "velocity": 93,
      "chip": "ym2612"
    },
    {
      "channel": 1,
      "note": 62,
      "start": 44.4919,
      "duration": 0.1601,
      "velocity": 99,
      "chip": "ym2612"
    },
    {
      "channel": 3,
      "note": 50,
      "start": 44.492,
      "duration": 0.1601,
      "velocity": 95,
      "chip": "ym2612"
    },
    {
      "channel": 0,
      "note": 72,
      "start": 44.5717,
      "duration": 0.0802,
      "velocity": 93,
      "chip": "ym2612"
    },
    {
      "channel": 0,
      "note": 71,
      "start": 44.652,
      "duration": 0.0997,
      "velocity": 93,
      "chip": "ym2612"
    },
    {
      "channel": 1,
      "note": 64,
      "start": 44.652,
      "duration": 0.18,
      "velocity": 99,
      "chip": "ym2612"
    },
    {
      "channel": 2,
      "note": 81,
      "start": 44.6521,
      "duration": 0.18,
      "velocity": 127,
      "chip": "ym2612"
    },
    {
      "channel": 3,
      "note": 52,
      "start": 44.6522,
      "duration": 0.18,
      "velocity": 95,
      "chip": "ym2612"
    },
    {
      "channel": 4,
      "note": 57,
      "start": 44.6522,
      "duration": 0.18,
      "velocity": 93,
      "chip": "ym2612"
    },
    {
      "channel": 0,
      "note": 72,
      "start": 44.7517,
      "duration": 0.0803,
      "velocity": 93,
      "chip": "ym2612"
    },
    {
      "channel": 0,
      "note": 64,
      "start": 44.832,
      "duration": 0.0013,
      "velocity": 93,
      "chip": "ym2612"
    },
    {
      "channel": 1,
      "note": 52,
      "start": 44.8321,
      "duration": 0.0367,
      "velocity": 99,
      "chip": "ym2612"
    },
    {
      "channel": 2,
      "note": 81,
      "start": 44.8322,
      "duration": 0.7255,
      "velocity": 127,
      "chip": "ym2612"
    },
    {
      "channel": 3,
      "note": 53,
      "start": 44.8322,
      "duration": 1.6683,
      "velocity": 95,
      "chip": "ym2612"
    },
    {
      "channel": 4,
      "note": 57,
      "start": 44.8323,
      "duration": 0.6452,
      "velocity": 93,
      "chip": "ym2612"
    },
    {
      "channel": 0,
      "note": 65,
      "start": 44.8333,
      "duration": 0.0354,
      "velocity": 93,
      "chip": "ym2612"
    },
    {
      "channel": 0,
      "note": 69,
      "start": 44.8688,
      "duration": 0.0999,
      "velocity": 93,
      "chip": "ym2612"
    },
    {
      "channel": 1,
      "note": 53,
      "start": 44.8689,
      "duration": 0.1799,
      "velocity": 99,
      "chip": "ym2612"
    },
    {
      "channel": 0,
      "note": 72,
      "start": 44.9687,
      "duration": 0.0801,
      "velocity": 93,
      "chip": "ym2612"
    },
    {
      "channel": 0,
      "note": 76,
      "start": 45.0488,
      "duration": 0.0799,
      "velocity": 93,
      "chip": "ym2612"
    },
    {
      "channel": 1,
      "note": 57,
      "start": 45.0489,
      "duration": 0.1599,
      "velocity": 99,
      "chip": "ym2612"
    },
    {
      "channel": 0,
      "note": 77,
      "start": 45.1287,
      "duration": 0.08,
      "velocity": 93,
      "chip": "ym2612"
    },
    {
      "channel": 0,
      "note": 76,
      "start": 45.2087,
      "duration": 0.0999,
      "velocity": 93,
      "chip": "ym2612"
    },
    {
      "channel": 1,
      "note": 60,
      "start": 45.2088,
      "duration": 0.18,
      "velocity": 99,
      "chip": "ym2612"
    },
    {
      "channel": 0,
      "note": 72,
      "start": 45.3087,
      "duration": 0.0801,
      "velocity": 93,
      "chip": "ym2612"
    },
    {
      "channel": 0,
      "note": 69,
      "start": 45.3888,
      "duration": 0.0012,
      "velocity": 93,
      "chip": "ym2612"
    },
    {
      "channel": 1,
      "note": 64,
      "start": 45.3889,
      "duration": 0.0022,
      "velocity": 99,
      "chip": "ym2612"
    },
    {
      "channel": 0,
      "note": 65,
      "start": 45.3901,
      "duration": 0.001,
      "velocity": 93,
      "chip": "ym2612"
    },
    {
      "channel": 0,
      "note": 64,
      "start": 45.391,
      "duration": 0.0863,
      "velocity": 93,
      "chip": "ym2612"
    },
    {
      "channel": 1,
      "note": 57,
      "start": 45.3911,
      "duration": 0.1666,
      "velocity": 99,
      "chip": "ym2612"
    },
    {
      "channel": 0,
      "note": 65,
      "start": 45.4774,
      "duration": 0.0802,
      "velocity": 93,
      "chip": "ym2612"
    },
    {
      "channel": 0,
      "note": 69,
      "start": 45.5576,
      "duration": 0.0797,
      "velocity": 93,
      "chip": "ym2612"
    },
    {
      "channel": 1,
      "note": 62,
      "start": 45.5576,
      "duration": 0.16,
      "velocity": 99,
      "chip": "ym2612"
    },
    {
      "channel": 2,
      "note": 81,
      "start": 45.5577,
      "duration": 0.16,
      "velocity": 127,
      "chip": "ym2612"
    },
    {
      "channel": 4,
      "note": 57,
      "start": 45.5578,
      "duration": 0.16,
      "velocity": 93,
      "chip": "ym2612"
    },
    {
      "channel": 0,
      "note": 72,
      "start": 45.6374,
      "duration": 0.0802,
      "velocity": 93,
      "chip": "ym2612"
    },
    {
      "channel": 0,
      "note": 76,
      "start": 45.7176,
      "duration": 0.0998,
      "velocity": 93,
      "chip": "ym2612"
    },
    {
      "channel": 1,
      "note": 64,
      "start": 45.7177,
      "duration": 0.1801,
      "velocity": 99,
      "chip": "ym2612"
    },
    {
      "channel": 2,
      "note": 79,
      "start": 45.7178,
      "duration": 0.1801,
      "velocity": 127,
      "chip": "ym2612"
    },
    {
      "channel": 4,
      "note": 55,
      "start": 45.7179,
      "duration": 0.18,
      "velocity": 93,
      "chip": "ym2612"
    },
    {
      "channel": 0,
      "note": 77,
      "start": 45.8174,
      "duration": 0.0803,
      "velocity": 93,
      "chip": "ym2612"
    },
    {
      "channel": 0,
      "note": 76,
      "start": 45.8977,
      "duration": 0.0013,
      "velocity": 93,
      "chip": "ym2612"
    },
    {
      "channel": 1,
      "note": 52,
      "start": 45.8978,
      "duration": 0.0367,
      "velocity": 99,
      "chip": "ym2612"
    },
    {
      "channel": 2,
      "note": 81,
      "start": 45.8978,
      "duration": 0.1765,
      "velocity": 127,
      "chip": "ym2612"
    },
    {
      "channel": 4,
      "note": 57,
      "start": 45.898,
      "duration": 0.1764,
      "velocity": 93,
      "chip": "ym2612"
    },
    {
      "channel": 0,
      "note": 72,
      "start": 45.899,
      "duration": 0.0354,
      "velocity": 93,
      "chip": "ym2612"
    },
    {
      "channel": 0,
      "note": 69,
      "start": 45.9344,
      "duration": 0.04,
      "velocity": 93,
      "chip": "ym2612"
    },
    {
      "channel": 1,
      "note": 53,
      "start": 45.9345,
      "duration": 0.1801,
      "velocity": 99,
      "chip": "ym2612"
    },
    {
      "channel": 0,
      "note": 69,
      "start": 45.9744,
      "duration": 0.0399,
      "velocity": 93,
      "chip": "ym2612"
    },
    {
      "channel": 0,
      "note": 65,
      "start": 46.0144,
      "duration": 0.0598,
      "velocity": 93,
      "chip": "ym2612"
    },
    {
      "channel": 0,
      "note": 64,
      "start": 46.1146,
      "duration": 0.0798,
      "velocity": 93,
      "chip": "ym2612"
    },
    {
      "channel": 1,
      "note": 57,
      "start": 46.1147,
      "duration": 0.1599,
      "velocity": 99,
      "chip": "ym2612"
    },
    {
      "channel": 2,
      "note": 83,
      "start": 46.1148,
      "duration": 0.2169,
      "velocity": 127,
      "chip": "ym2612"
    },
    {
      "channel": 4,
      "note": 59,
      "start": 46.1149,
      "duration": 0.2169,
      "velocity": 93,
      "chip": "ym2612"
    },
    {
      "channel": 0,
      "note": 65,
      "start": 46.1944,
      "duration": 0.0801,
      "velocity": 93,
      "chip": "ym2612"
    },
    {
      "channel": 0,
      "note": 69,
      "start": 46.2746,
      "duration": 0.0011,
      "velocity": 93,
      "chip": "ym2612"
    },
    {
      "channel": 1,
      "note": 60,
      "start": 46.2746,
      "duration": 0.057,
      "velocity": 99,
      "chip": "ym2612"
    },
    {
      "channel": 0,
      "note": 72,
      "start": 46.2757,
      "duration": 0.0559,
      "velocity": 93,
      "chip": "ym2612"
    },
    {
      "channel": 0,
      "note": 76,
      "start": 46.3316,
      "duration": 0.0013,
      "velocity": 93,
      "chip": "ym2612"
    },
    {
      "channel": 1,
      "note": 64,
      "start": 46.3317,
      "duration": 0.0022,
      "velocity": 99,
      "chip": "ym2612"
    },
    {
      "channel": 2,
      "note": 84,
      "start": 46.3317,
      "duration": 0.1687,
      "velocity": 127,
      "chip": "ym2612"
    },
    {
      "channel": 4,
      "note": 60,
      "start": 46.3319,
      "duration": 0.1687,
      "velocity": 93,
      "chip": "ym2612"
    },
    {
      "channel": 0,
      "note": 77,
      "start": 46.3329,
      "duration": 0.001,
      "velocity": 93,
      "chip": "ym2612"
    },
    {
      "channel": 0,
      "note": 76,
      "start": 46.3339,
      "duration": 0.0662,
      "velocity": 93,
      "chip": "ym2612"
    },
    {
      "channel": 1,
      "note": 57,
      "start": 46.334,
      "duration": 0.1664,
      "velocity": 99,
      "chip": "ym2612"
    },
    {
      "channel": 0,
      "note": 72,
      "start": 46.4001,
      "duration": 0.1002,
      "velocity": 93,
      "chip": "ym2612"
    },
    {
      "channel": 0,
      "note": 69,
      "start": 46.5003,
      "duration": 0.0798,
      "velocity": 93,
      "chip": "ym2612"
    },
    {
      "channel": 1,
      "note": 62,
      "start": 46.5004,
      "duration": 0.1598,
      "velocity": 99,
      "chip": "ym2612"
    },
    {
      "channel": 2,
      "note": 86,
      "start": 46.5005,
      "duration": 0.3401,
      "velocity": 127,
      "chip": "ym2612"
    },
    {
      "channel": 3,
      "note": 52,
      "start": 46.5005,
      "duration": 0.1598,
      "velocity": 95,
      "chip": "ym2612"
    },
    {
      "channel": 4,
      "note": 62,
      "start": 46.5006,
      "duration": 0.34,
      "velocity": 93,
      "chip": "ym2612"
    },
    {
      "channel": 0,
      "note": 65,
      "start": 46.5802,
      "duration": 0.08,
      "velocity": 93,
      "chip": "ym2612"
    },
    {
      "channel": 0,
      "note": 64,
      "start": 46.6602,
      "duration": 0.0799,
      "velocity": 93,
      "chip": "ym2612"
    },
    {
      "channel": 1,
      "note": 64,
      "start": 46.6603,
      "duration": 0.1802,
      "velocity": 99,
      "chip": "ym2612"
    },
    {
      "channel": 3,
      "note": 50,
      "start": 46.6604,
      "duration": 0.1802,
      "velocity": 95,
      "chip": "ym2612"
    },
    {
      "channel": 0,
      "note": 65,
      "start": 46.7401,
      "duration": 0.1003,
      "velocity": 93,
      "chip": "ym2612"
    },
    {
      "channel": 0,
      "note": 71,
      "start": 46.8405,
      "duration": 0.0013,
      "velocity": 93,
      "chip": "ym2612"
    },
    {
      "channel": 1,
      "note": 45,
      "start": 46.8405,
      "duration": 0.0365,
      "velocity": 99,
      "chip": "ym2612"
    },
    {
      "channel": 2,
      "note": 83,
      "start": 46.8406,
      "duration": 0.5164,
      "velocity": 127,
      "chip": "ym2612"
    },
    {
      "channel": 3,
      "note": 45,
      "start": 46.8407,
      "duration": 1.7712,
      "velocity": 95,
      "chip": "ym2612"
    },
    {
      "channel": 4,
      "note": 59,
      "start": 46.8407,
      "duration": 0.5163,
      "velocity": 93,
      "chip": "ym2612"
    },
    {
      "channel": 0,
      "note": 72,
      "start": 46.8418,
      "duration": 0.0352,
      "velocity": 93,
      "chip": "ym2612"
    },
    {
      "channel": 0,
      "note": 76,
      "start": 46.8771,
      "duration": 0.0799,
      "velocity": 93,
      "chip": "ym2612"
    },
    {
      "channel": 1,
      "note": 52,
      "start": 46.8771,
      "duration": 0.18,
      "velocity": 99,
      "chip": "ym2612"
    },
    {
      "channel": 0,
      "note": 79,
      "start": 46.957,
      "duration": 0.1001,
      "velocity": 93,
      "chip": "ym2612"
    },
    {
      "channel": 0,
      "note": 83,
      "start": 47.0571,
      "duration": 0.0799,
      "velocity": 93,
      "chip": "ym2612"
    },
    {
      "channel": 1,
      "note": 57,
      "start": 47.0572,
      "duration": 0.1599,
      "velocity": 99,
      "chip": "ym2612"
    },
    {
      "channel": 0,
      "note": 84,
      "start": 47.137,
      "duration": 0.08,
      "velocity": 93,
      "chip": "ym2612"
    },
    {
      "channel": 0,
      "note": 83,
      "start": 47.2171,
      "duration": 0.0799,
      "velocity": 93,
      "chip": "ym2612"
    },
    {
      "channel": 1,
      "note": 62,
      "start": 47.2171,
      "duration": 0.1802,
      "velocity": 99,
      "chip": "ym2612"
    },
    {
      "channel": 0,
      "note": 79,
      "start": 47.2971,
      "duration": 0.1002,
      "velocity": 93,
      "chip": "ym2612"
    },
    {
      "channel": 0,
      "note": 76,
      "start": 47.3973,
      "duration": 0.0013,
      "velocity": 93,
      "chip": "ym2612"
    },
    {
      "channel": 1,
      "note": 64,
      "start": 47.3974,
      "duration": 0.0024,
      "velocity": 99,
      "chip": "ym2612"
    },
    {
      "channel": 2,
      "note": 76,
      "start": 47.3975,
      "duration": 0.3288,
      "velocity": 127,
      "chip": "ym2612"
    },
    {
      "channel": 4,
      "note": 52,
      "start": 47.3976,
      "duration": 0.3288,
      "velocity": 93,
      "chip": "ym2612"
    },
    {
      "channel": 0,
      "note": 72,
      "start": 47.3986,
      "duration": 0.001,
      "velocity": 93,
      "chip": "ym2612"
    },
    {
      "channel": 0,
      "note": 71,
      "start": 47.3998,
      "duration": 0.0661,
      "velocity": 93,
      "chip": "ym2612"
    },
    {
      "channel": 1,
      "note": 57,
      "start": 47.3998,
      "duration": 0.1661,
      "velocity": 99,
      "chip": "ym2612"
    },
    {
      "channel": 0,
      "note": 72,
      "start": 47.4659,
      "duration": 0.1,
      "velocity": 93,
      "chip": "ym2612"
    },
    {
      "channel": 0,
      "note": 76,
      "start": 47.5659,
      "duration": 0.0799,
      "velocity": 93,
      "chip": "ym2612"
    },
    {
      "channel": 1,
      "note": 62,
      "start": 47.566,
      "duration": 0.1602,
      "velocity": 99,
      "chip": "ym2612"
    },
    {
      "channel": 0,
      "note": 79,
      "start": 47.6459,
      "duration": 0.0802,
      "velocity": 93,
      "chip": "ym2612"
    },
    {
      "channel": 0,
      "note": 83,
      "start": 47.7261,
      "duration": 0.0798,
      "velocity": 93,
      "chip": "ym2612"
    },
    {
      "channel": 1,
      "note": 64,
      "start": 47.7262,
      "duration": 0.18,
      "velocity": 99,
      "chip": "ym2612"
    },
    {
      "channel": 2,
      "note": 83,
      "start": 47.7263,
      "duration": 0.1197,
      "velocity": 127,
      "chip": "ym2612"
    },
    {
      "channel": 4,
      "note": 59,
      "start": 47.7264,
      "duration": 0.18,
      "velocity": 93,
      "chip": "ym2612"
    },
    {
      "channel": 0,
      "note": 84,
      "start": 47.8059,
      "duration": 0.1002,
      "velocity": 93,
      "chip": "ym2612"
    },
    {
      "channel": 0,
      "note": 83,
      "start": 47.9061,
      "duration": 0.0013,
      "velocity": 93,
      "chip": "ym2612"
    },
    {
      "channel": 1,
      "note": 45,
      "start": 47.9063,
      "duration": 0.0368,
      "velocity": 99,
      "chip": "ym2612"
    },
    {
      "channel": 2,
      "note": 83,
      "start": 47.9063,
      "duration": 0.0367,
      "velocity": 127,
      "chip": "ym2612"
    },
    {
      "channel": 4,
      "note": 59,
      "start": 47.9064,
      "duration": 0.0368,
      "velocity": 93,
      "chip": "ym2612"
    },
    {
      "channel": 0,
      "note": 79,
      "start": 47.9075,
      "duration": 0.0354,
      "velocity": 93,
      "chip": "ym2612"
    },
    {
      "channel": 0,
      "note": 76,
      "start": 47.943,
      "duration": 0.0199,
      "velocity": 93,
      "chip": "ym2612"
    },
    {
      "channel": 1,
      "note": 52,
      "start": 47.9431,
      "duration": 0.18,
      "velocity": 99,
      "chip": "ym2612"
    },
    {
      "channel": 2,
      "note": 84,
      "start": 47.9431,
      "duration": 0.18,
      "velocity": 127,
      "chip": "ym2612"
    },
    {
      "channel": 4,
      "note": 60,
      "start": 47.9433,
      "duration": 0.18,
      "velocity": 93,
      "chip": "ym2612"
    },
    {
      "channel": 0,
      "note": 76,
      "start": 47.9629,
      "duration": 0.0599,
      "velocity": 93,
      "chip": "ym2612"
    },
    {
      "channel": 0,
      "note": 72,
      "start": 48.0228,
      "duration": 0.0599,
      "velocity": 93,
      "chip": "ym2612"
    },
    {
      "channel": 0,
      "note": 71,
      "start": 48.1231,
      "duration": 0.0798,
      "velocity": 93,
      "chip": "ym2612"
    },
    {
      "channel": 1,
      "note": 57,
      "start": 48.1231,
      "duration": 0.1598,
      "velocity": 99,
      "chip": "ym2612"
    },
    {
      "channel": 2,
      "note": 83,
      "start": 48.1232,
      "duration": 0.2995,
      "velocity": 127,
      "chip": "ym2612"
    },
    {
      "channel": 4,
      "note": 59,
      "start": 48.1233,
      "duration": 0.2995,
      "velocity": 93,
      "chip": "ym2612"
    },
    {
      "channel": 0,
      "note": 72,
      "start": 48.2028,
      "duration": 0.08,
      "velocity": 93,
      "chip": "ym2612"
    },
    {
      "channel": 0,
      "note": 76,
      "start": 48.2829,
      "duration": 0.0799,
      "velocity": 93,
      "chip": "ym2612"
    },
    {
      "channel": 1,
      "note": 62,
      "start": 48.2829,
      "duration": 0.1602,
      "velocity": 99,
      "chip": "ym2612"
    },
    {
      "channel": 0,
      "note": 79,
      "start": 48.3628,
      "duration": 0.0803,
      "velocity": 93,
      "chip": "ym2612"
    },
    {
      "channel": 0,
      "note": 83,
      "start": 48.4431,
      "duration": 0.0016,
      "velocity": 93,
      "chip": "ym2612"
    },
    {
      "channel": 1,
      "note": 64,
      "start": 48.4432,
      "duration": 0.0085,
      "velocity": 99,
      "chip": "ym2612"
    },
    {
      "channel": 2,
      "note": 76,
      "start": 48.4433,
      "duration": 0.3488,
      "velocity": 127,
      "chip": "ym2612"
    },
    {
      "channel": 4,
      "note": 52,
      "start": 48.4434,
      "duration": 0.3488,
      "velocity": 93,
      "chip": "ym2612"
    },
    {
      "channel": 0,
      "note": 84,
      "start": 48.4447,
      "duration": 0.0069,
      "velocity": 93,
      "chip": "ym2612"
    },
    {
      "channel": 0,
      "note": 83,
      "start": 48.4517,
      "duration": 0.0799,
      "velocity": 93,
      "chip": "ym2612"
    },
    {
      "channel": 1,
      "note": 57,
      "start": 48.4518,
      "duration": 0.16,
      "velocity": 99,
      "chip": "ym2612"
    },
    {
      "channel": 0,
      "note": 79,
      "start": 48.5317,
      "duration": 0.08,
      "velocity": 93,
      "chip": "ym2612"
    },
    {
      "channel": 0,
      "note": 76,
      "start": 48.6118,
      "duration": 0.0999,
      "velocity": 93,
      "chip": "ym2612"
    },
    {
      "channel": 1,
      "note": 62,
      "start": 48.6118,
      "duration": 0.1801,
      "velocity": 99,
      "chip": "ym2612"
    },
    {
      "channel": 3,
      "note": 50,
      "start": 48.612,
      "duration": 0.1801,
      "velocity": 95,
      "chip": "ym2612"
    },
    {
      "channel": 0,
      "note": 72,
      "start": 48.7116,
      "duration": 0.0802,
      "velocity": 93,
      "chip": "ym2612"
    },
    {
      "channel": 0,
      "note": 71,
      "start": 48.792,
      "duration": 0.0797,
      "velocity": 93,
      "chip": "ym2612"
    },
    {
      "channel": 1,
      "note": 64,
      "start": 48.792,
      "duration": 0.16,
      "velocity": 99,
      "chip": "ym2612"
    },
    {
      "channel": 2,
      "note": 81,
      "start": 48.7921,
      "duration": 0.16,
      "velocity": 127,
      "chip": "ym2612"
    },
    {
      "channel": 3,
      "note": 52,
      "start": 48.7922,
      "duration": 0.16,
      "velocity": 95,
      "chip": "ym2612"
    },
    {
      "channel": 4,
      "note": 57,
      "start": 48.7922,
      "duration": 0.16,
      "velocity": 93,
      "chip": "ym2612"
    },
    {
      "channel": 0,
      "note": 72,
      "start": 48.8716,
      "duration": 0.0803,
      "velocity": 93,
      "chip": "ym2612"
    },
    {
      "channel": 0,
      "note": 64,
      "start": 48.952,
      "duration": 0.0015,
      "velocity": 93,
      "chip": "ym2612"
    },
    {
      "channel": 1,
      "note": 52,
      "start": 48.9521,
      "duration": 0.0567,
      "velocity": 99,
      "chip": "ym2612"
    },
    {
      "channel": 2,
      "note": 81,
      "start": 48.9522,
      "duration": 0.7256,
      "velocity": 127,
      "chip": "ym2612"
    },
    {
      "channel": 3,
      "note": 53,
      "start": 48.9522,
      "duration": 1.8481,
      "velocity": 95,
      "chip": "ym2612"
    },
    {
      "channel": 4,
      "note": 57,
      "start": 48.9523,
      "duration": 0.7255,
      "velocity": 93,
      "chip": "ym2612"
    },
    {
      "channel": 0,
      "note": 65,
      "start": 48.9536,
      "duration": 0.0551,
      "velocity": 93,
      "chip": "ym2612"
    },
    {
      "channel": 0,
      "note": 69,
      "start": 49.0088,
      "duration": 0.0799,
      "velocity": 93,
      "chip": "ym2612"
    },
    {
      "channel": 1,
      "note": 53,
      "start": 49.0088,
      "duration": 0.1599,
      "velocity": 99,
      "chip": "ym2612"
    },
    {
      "channel": 0,
      "note": 72,
      "start": 49.0886,
      "duration": 0.0801,
      "velocity": 93,
      "chip": "ym2612"
    },
    {
      "channel": 0,
      "note": 76,
      "start": 49.1688,
      "duration": 0.0999,
      "velocity": 93,
      "chip": "ym2612"
    },
    {
      "channel": 1,
      "note": 57,
      "start": 49.1688,
      "duration": 0.1799,
      "velocity": 99,
      "chip": "ym2612"
    },
    {
      "channel": 0,
      "note": 77,
      "start": 49.2686,
      "duration": 0.08,
      "velocity": 93,
      "chip": "ym2612"
    },
    {
      "channel": 0,
      "note": 76,
      "start": 49.3487,
      "duration": 0.0799,
      "velocity": 93,
      "chip": "ym2612"
    },
    {
      "channel": 1,
      "note": 62,
      "start": 49.3488,
      "duration": 0.16,
      "velocity": 99,
      "chip": "ym2612"
    },
    {
      "channel": 0,
      "note": 72,
      "start": 49.4286,
      "duration": 0.0801,
      "velocity": 93,
      "chip": "ym2612"
    },
    {
      "channel": 0,
      "note": 69,
      "start": 49.5088,
      "duration": 0.0014,
      "velocity": 93,
      "chip": "ym2612"
    },
    {
      "channel": 1,
      "note": 64,
      "start": 49.5088,
      "duration": 0.0086,
      "velocity": 99,
      "chip": "ym2612"
    },
    {
      "channel": 0,
      "note": 65,
      "start": 49.5102,
      "duration": 0.0072,
      "velocity": 93,
      "chip": "ym2612"
    },
    {
      "channel": 0,
      "note": 64,
      "start": 49.5175,
      "duration": 0.0799,
      "velocity": 93,
      "chip": "ym2612"
    },
    {
      "channel": 1,
      "note": 57,
      "start": 49.5175,
      "duration": 0.1601,
      "velocity": 99,
      "chip": "ym2612"
    },
    {
      "channel": 0,
      "note": 65,
      "start": 49.5974,
      "duration": 0.0802,
      "velocity": 93,
      "chip": "ym2612"
    },
    {
      "channel": 0,
      "note": 69,
      "start": 49.6776,
      "duration": 0.0998,
      "velocity": 93,
      "chip": "ym2612"
    },
    {
      "channel": 1,
      "note": 62,
      "start": 49.6776,
      "duration": 0.1801,
      "velocity": 99,
      "chip": "ym2612"
    },
    {
      "channel": 2,
      "note": 81,
      "start": 49.6777,
      "duration": 0.1801,
      "velocity": 127,
      "chip": "ym2612"
    },
    {
      "channel": 4,
      "note": 57,
      "start": 49.6778,
      "duration": 0.1801,
      "velocity": 93,
      "chip": "ym2612"
    },
    {
      "channel": 0,
      "note": 72,
      "start": 49.7774,
      "duration": 0.0802,
      "velocity": 93,
      "chip": "ym2612"
    },
    {
      "channel": 0,
      "note": 76,
      "start": 49.8577,
      "duration": 0.0012,
      "velocity": 93,
      "chip": "ym2612"
    },
    {
      "channel": 1,
      "note": 64,
      "start": 49.8578,
      "duration": 0.0368,
      "velocity": 99,
      "chip": "ym2612"
    },
    {
      "channel": 2,
      "note": 79,
      "start": 49.8578,
      "duration": 0.0368,
      "velocity": 127,
      "chip": "ym2612"
    },
    {
      "channel": 4,
      "note": 55,
      "start": 49.858,
      "duration": 0.0368,
      "velocity": 93,
      "chip": "ym2612"
    },
    {
      "channel": 0,
      "note": 77,
      "start": 49.8589,
      "duration": 0.0356,
      "velocity": 93,
      "chip": "ym2612"
    },
    {
      "channel": 0,
      "note": 76,
      "start": 49.8945,
      "duration": 0.0998,
      "velocity": 93,
      "chip": "ym2612"
    },
    {
      "channel": 1,
      "note": 52,
      "start": 49.8946,
      "duration": 0.1798,
      "velocity": 99,
      "chip": "ym2612"
    },
    {
      "channel": 2,
      "note": 81,
      "start": 49.8946,
      "duration": 0.3399,
      "velocity": 127,
      "chip": "ym2612"
    },
    {
      "channel": 4,
      "note": 57,
      "start": 49.8948,
      "duration": 0.3399,
      "velocity": 93,
      "chip": "ym2612"
    },
    {
      "channel": 0,
      "note": 72,
      "start": 49.9943,
      "duration": 0.08,
      "velocity": 93,
      "chip": "ym2612"
    },
    {
      "channel": 0,
      "note": 69,
      "start": 50.0743,
      "duration": 0.02,
      "velocity": 93,
      "chip": "ym2612"
    },
    {
      "channel": 1,
      "note": 53,
      "start": 50.0744,
      "duration": 0.1601,
      "velocity": 99,
      "chip": "ym2612"
    },
    {
      "channel": 0,
      "note": 69,
      "start": 50.0943,
      "duration": 0.0599,
      "velocity": 93,
      "chip": "ym2612"
    },
    {
      "channel": 0,
      "note": 65,
      "start": 50.1543,
      "duration": 0.0599,
      "velocity": 93,
      "chip": "ym2612"
    },
    {
      "channel": 0,
      "note": 64,
      "start": 50.2345,
      "duration": 0.0998,
      "velocity": 93,
      "chip": "ym2612"
    },
    {
      "channel": 1,
      "note": 57,
      "start": 50.2346,
      "duration": 0.1799,
      "velocity": 99,
      "chip": "ym2612"
    },
    {
      "channel": 2,
      "note": 83,
      "start": 50.2346,
      "duration": 0.2169,
      "velocity": 127,
      "chip": "ym2612"
    },
    {
      "channel": 4,
      "note": 59,
      "start": 50.2348,
      "duration": 0.2169,
      "velocity": 93,
      "chip": "ym2612"
    },
    {
      "channel": 0,
      "note": 65,
      "start": 50.3343,
      "duration": 0.0801,
      "velocity": 93,
      "chip": "ym2612"
    },
    {
      "channel": 0,
      "note": 69,
      "start": 50.4145,
      "duration": 0.0011,
      "velocity": 93,
      "chip": "ym2612"
    },
    {
      "channel": 1,
      "note": 60,
      "start": 50.4145,
      "duration": 0.0369,
      "velocity": 99,
      "chip": "ym2612"
    },
    {
      "channel": 0,
      "note": 72,
      "start": 50.4156,
      "duration": 0.0358,
      "velocity": 93,
      "chip": "ym2612"
    },
    {
      "channel": 0,
      "note": 76,
      "start": 50.4515,
      "duration": 0.0013,
      "velocity": 93,
      "chip": "ym2612"
    },
    {
      "channel": 1,
      "note": 64,
      "start": 50.4515,
      "duration": 0.0085,
      "velocity": 99,
      "chip": "ym2612"
    },
    {
      "channel": 2,
      "note": 84,
      "start": 50.4516,
      "duration": 0.1484,
      "velocity": 127,
      "chip": "ym2612"
    },
    {
      "channel": 4,
      "note": 60,
      "start": 50.4517,
      "duration": 0.1483,
      "velocity": 93,
      "chip": "ym2612"
    },
    {
      "channel": 0,
      "note": 77,
      "start": 50.4527,
      "duration": 0.0072,
      "velocity": 93,
      "chip": "ym2612"
    },
    {
      "channel": 0,
      "note": 76,
      "start": 50.46,
      "duration": 0.0799,
      "velocity": 93,
      "chip": "ym2612"
    },
    {
      "channel": 1,
      "note": 57,
      "start": 50.4601,
      "duration": 0.1601,
      "velocity": 99,
      "chip": "ym2612"
    },
    {
      "channel": 0,
      "note": 72,
      "start": 50.54,
      "duration": 0.0801,
      "velocity": 93,
      "chip": "ym2612"
    },
    {
      "channel": 0,
      "note": 69,
      "start": 50.6202,
      "duration": 0.0798,
      "velocity": 93,
      "chip": "ym2612"
    },
    {
      "channel": 1,
      "note": 62,
      "start": 50.6202,
      "duration": 0.18,
      "velocity": 99,
      "chip": "ym2612"
    },
    {
      "channel": 2,
      "note": 88,
      "start": 50.6203,
      "duration": 0.1825,
      "velocity": 127,
      "chip": "ym2612"
    },
    {
      "channel": 4,
      "note": 64,
      "start": 50.6204,
      "duration": 0.1824,
      "velocity": 93,
      "chip": "ym2612"
    },
    {
      "channel": 0,
      "note": 65,
      "start": 50.7,
      "duration": 0.1001,
      "velocity": 93,
      "chip": "ym2612"
    },
    {
      "channel": 0,
      "note": 64,
      "start": 50.8002,
      "duration": 0.0012,
      "velocity": 93,
      "chip": "ym2612"
    },
    {
      "channel": 1,
      "note": 64,
      "start": 50.8002,
      "duration": 0.0025,
      "velocity": 99,
      "chip": "ym2612"
    },
    {
      "channel": 3,
      "note": 53,
      "start": 50.8003,
      "duration": 0.0025,
      "velocity": 95,
      "chip": "ym2612"
    },
    {
      "channel": 0,
      "note": 65,
      "start": 50.8014,
      "duration": 0.0012,
      "velocity": 93,
      "chip": "ym2612"
    },
    {
      "channel": 0,
      "note": 69,
      "start": 50.8027,
      "duration": 0.0013,
      "velocity": 93,
      "chip": "ym2612"
    },
    {
      "channel": 1,
      "note": 43,
      "start": 50.8027,
      "duration": 0.0566,
      "velocity": 99,
      "chip": "ym2612"
    },
    {
      "channel": 2,
      "note": 86,
      "start": 50.8028,
      "duration": 0.5568,
      "velocity": 127,
      "chip": "ym2612"
    },
    {
      "channel": 3,
      "note": 55,
      "start": 50.8029,
      "duration": 1.8281,
      "velocity": 95,
      "chip": "ym2612"
    },
    {
      "channel": 4,
      "note": 62,
      "start": 50.8029,
      "duration": 0.5568,
      "velocity": 93,
      "chip": "ym2612"
    },
    {
      "channel": 0,
      "note": 70,
      "start": 50.804,
      "duration": 0.0554,
      "velocity": 93,
      "chip": "ym2612"
    },
    {
      "channel": 0,
      "note": 74,
      "start": 50.8594,
      "duration": 0.0799,
      "velocity": 93,
      "chip": "ym2612"
    },
    {
      "channel": 1,
      "note": 50,
      "start": 50.8595,
      "duration": 0.1599,
      "velocity": 99,
      "chip": "ym2612"
    },
    {
      "channel": 0,
      "note": 77,
      "start": 50.9393,
      "duration": 0.0801,
      "velocity": 93,
      "chip": "ym2612"
    },
    {
      "channel": 0,
      "note": 81,
      "start": 51.0194,
      "duration": 0.0799,
      "velocity": 93,
      "chip": "ym2612"
    },
    {
      "channel": 1,
      "note": 55,
      "start": 51.0195,
      "duration": 0.1799,
      "velocity": 99,
      "chip": "ym2612"
    },
    {
      "channel": 0,
      "note": 82,
      "start": 51.0993,
      "duration": 0.1001,
      "velocity": 93,
      "chip": "ym2612"
    },
    {
      "channel": 0,
      "note": 81,
      "start": 51.1994,
      "duration": 0.0799,
      "velocity": 93,
      "chip": "ym2612"
    },
    {
      "channel": 1,
      "note": 60,
      "start": 51.1995,
      "duration": 0.1601,
      "velocity": 99,
      "chip": "ym2612"
    },
    {
      "channel": 0,
      "note": 77,
      "start": 51.2793,
      "duration": 0.0802,
      "velocity": 93,
      "chip": "ym2612"
    },
    {
      "channel": 0,
      "note": 74,
      "start": 51.3596,
      "duration": 0.0013,
      "velocity": 93,
      "chip": "ym2612"
    },
    {
      "channel": 1,
      "note": 62,
      "start": 51.3596,
      "duration": 0.0085,
      "velocity": 99,
      "chip": "ym2612"
    },
    {
      "channel": 2,
      "note": 79,
      "start": 51.3597,
      "duration": 0.3486,
      "velocity": 127,
      "chip": "ym2612"
    },
    {
      "channel": 4,
      "note": 55,
      "start": 51.3598,
      "duration": 0.3486,
      "velocity": 93,
      "chip": "ym2612"
    },
    {
      "channel": 0,
      "note": 70,
      "start": 51.3609,
      "duration": 0.0072,
      "velocity": 93,
      "chip": "ym2612"
    },
    {
      "channel": 0,
      "note": 69,
      "start": 51.3681,
      "duration": 0.0799,
      "velocity": 93,
      "chip": "ym2612"
    },
    {
      "channel": 1,
      "note": 55,
      "start": 51.3682,
      "duration": 0.1599,
      "velocity": 99,
      "chip": "ym2612"
    },
    {
      "channel": 0,
      "note": 70,
      "start": 51.448,
      "duration": 0.0801,
      "velocity": 93,
      "chip": "ym2612"
    },
    {
      "channel": 0,
      "note": 74,
      "start": 51.5281,
      "duration": 0.0799,
      "velocity": 93,
      "chip": "ym2612"
    },
    {
      "channel": 1,
      "note": 60,
      "start": 51.5282,
      "duration": 0.1801,
      "velocity": 99,
      "chip": "ym2612"
    },
    {
      "channel": 0,
      "note": 77,
      "start": 51.608,
      "duration": 0.1002,
      "velocity": 93,
      "chip": "ym2612"
    },
    {
      "channel": 0,
      "note": 81,
      "start": 51.7082,
      "duration": 0.0798,
      "velocity": 93,
      "chip": "ym2612"
    },
    {
      "channel": 1,
      "note": 62,
      "start": 51.7083,
      "duration": 0.16,
      "velocity": 99,
      "chip": "ym2612"
    },
    {
      "channel": 2,
      "note": 86,
      "start": 51.7083,
      "duration": 0.16,
      "velocity": 127,
      "chip": "ym2612"
    },
    {
      "channel": 4,
      "note": 62,
      "start": 51.7085,
      "duration": 0.16,
      "velocity": 93,
      "chip": "ym2612"
    },
    {
      "channel": 0,
      "note": 82,
      "start": 51.788,
      "duration": 0.0802,
      "velocity": 93,
      "chip": "ym2612"
    },
    {
      "channel": 0,
      "note": 81,
      "start": 51.8683,
      "duration": 0.0013,
      "velocity": 93,
      "chip": "ym2612"
    },
    {
      "channel": 1,
      "note": 43,
      "start": 51.8683,
      "duration": 0.0568,
      "velocity": 99,
      "chip": "ym2612"
    },
    {
      "channel": 2,
      "note": 86,
      "start": 51.8684,
      "duration": 0.0568,
      "velocity": 127,
      "chip": "ym2612"
    },
    {
      "channel": 4,
      "note": 62,
      "start": 51.8685,
      "duration": 0.0569,
      "velocity": 93,
      "chip": "ym2612"
    },
    {
      "channel": 0,
      "note": 77,
      "start": 51.8696,
      "duration": 0.0555,
      "velocity": 93,
      "chip": "ym2612"
    },
    {
      "channel": 0,
      "note": 74,
      "start": 51.9252,
      "duration": 0.0198,
      "velocity": 93,
      "chip": "ym2612"
    },
    {
      "channel": 1,
      "note": 50,
      "start": 51.9253,
      "duration": 0.1599,
      "velocity": 99,
      "chip": "ym2612"
    },
    {
      "channel": 2,
      "note": 87,
      "start": 51.9253,
      "duration": 0.1599,
      "velocity": 127,
      "chip": "ym2612"
    },
    {
      "channel": 4,
      "note": 63,
      "start": 51.9255,
      "duration": 0.1599,
      "velocity": 93,
      "chip": "ym2612"
    },
    {
      "channel": 0,
      "note": 74,
      "start": 51.945,
      "duration": 0.0599,
      "velocity": 93,
      "chip": "ym2612"
    },
    {
      "channel": 0,
      "note": 70,
      "start": 52.0049,
      "duration": 0.0599,
      "velocity": 93,
      "chip": "ym2612"
    },
    {
      "channel": 0,
      "note": 69,
      "start": 52.0851,
      "duration": 0.0798,
      "velocity": 93,
      "chip": "ym2612"
    },
    {
      "channel": 1,
      "note": 55,
      "start": 52.0852,
      "duration": 0.18,
      "velocity": 99,
      "chip": "ym2612"
    },
    {
      "channel": 2,
      "note": 86,
      "start": 52.0853,
      "duration": 0.1966,
      "velocity": 127,
      "chip": "ym2612"
    },
    {
      "channel": 4,
      "note": 62,
      "start": 52.0854,
      "duration": 0.1966,
      "velocity": 93,
      "chip": "ym2612"
    },
    {
      "channel": 0,
      "note": 70,
      "start": 52.1649,
      "duration": 0.1001,
      "velocity": 93,
      "chip": "ym2612"
    },
    {
      "channel": 0,
      "note": 74,
      "start": 52.2651,
      "duration": 0.0011,
      "velocity": 93,
      "chip": "ym2612"
    },
    {
      "channel": 1,
      "note": 60,
      "start": 52.2652,
      "duration": 0.037,
      "velocity": 99,
      "chip": "ym2612"
    },
    {
      "channel": 0,
      "note": 77,
      "start": 52.2663,
      "duration": 0.0359,
      "velocity": 93,
      "chip": "ym2612"
    },
    {
      "channel": 0,
      "note": 81,
      "start": 52.3021,
      "duration": 0.0013,
      "velocity": 93,
      "chip": "ym2612"
    },
    {
      "channel": 1,
      "note": 62,
      "start": 52.3022,
      "duration": 0.0086,
      "velocity": 99,
      "chip": "ym2612"
    },
    {
      "channel": 2,
      "note": 82,
      "start": 52.3023,
      "duration": 0.1485,
      "velocity": 127,
      "chip": "ym2612"
    },
    {
      "channel": 4,
      "note": 58,
      "start": 52.3024,
      "duration": 0.1484,
      "velocity": 93,
      "chip": "ym2612"
    },
    {
      "channel": 0,
      "note": 82,
      "start": 52.3034,
      "duration": 0.0073,
      "velocity": 93,
      "chip": "ym2612"
    },
    {
      "channel": 0,
      "note": 81,
      "start": 52.3108,
      "duration": 0.0799,
      "velocity": 93,
      "chip": "ym2612"
    },
    {
      "channel": 1,
      "note": 60,
      "start": 52.3109,
      "duration": 0.1602,
      "velocity": 99,
      "chip": "ym2612"
    },
    {
      "channel": 0,
      "note": 77,
      "start": 52.3908,
      "duration": 0.0802,
      "velocity": 93,
      "chip": "ym2612"
    },
    {
      "channel": 0,
      "note": 74,
      "start": 52.471,
      "duration": 0.0798,
      "velocity": 93,
      "chip": "ym2612"
    },
    {
      "channel": 1,
      "note": 55,
      "start": 52.471,
      "duration": 0.1598,
      "velocity": 99,
      "chip": "ym2612"
    },
    {
      "channel": 2,
      "note": 79,
      "start": 52.4711,
      "duration": 0.3401,
      "velocity": 127,
      "chip": "ym2612"
    },
    {
      "channel": 4,
      "note": 55,
      "start": 52.4712,
      "duration": 0.3401,
      "velocity": 93,
      "chip": "ym2612"
    },
    {
      "channel": 0,
      "note": 70,
      "start": 52.5507,
      "duration": 0.0801,
      "velocity": 93,
      "chip": "ym2612"
    },
    {
      "channel": 0,
      "note": 69,
      "start": 52.6309,
      "duration": 0.0999,
      "velocity": 93,
      "chip": "ym2612"
    },
    {
      "channel": 1,
      "note": 50,
      "start": 52.6309,
      "duration": 0.1802,
      "velocity": 99,
      "chip": "ym2612"
    },
    {
      "channel": 3,
      "note": 50,
      "start": 52.631,
      "duration": 0.1802,
      "velocity": 95,
      "chip": "ym2612"
    },
    {
      "channel": 0,
      "note": 70,
      "start": 52.7307,
      "duration": 0.0804,
      "velocity": 93,
      "chip": "ym2612"
    },
    {
      "channel": 0,
      "note": 67,
      "start": 52.8112,
      "duration": 0.0012,
      "velocity": 93,
      "chip": "ym2612"
    },
    {
      "channel": 1,
      "note": 43,
      "start": 52.8112,
      "duration": 0.0365,
      "velocity": 99,
      "chip": "ym2612"
    },
    {
      "channel": 2,
      "note": 84,
      "start": 52.8113,
      "duration": 0.2167,
      "velocity": 127,
      "chip": "ym2612"
    },
    {
      "channel": 3,
      "note": 55,
      "start": 52.8114,
      "duration": 0.5567,
      "velocity": 95,
      "chip": "ym2612"
    },
    {
      "channel": 4,
      "note": 60,
      "start": 52.8114,
      "duration": 0.2167,
      "velocity": 93,
      "chip": "ym2612"
    },
    {
      "channel": 0,
      "note": 69,
      "start": 52.8124,
      "duration": 0.0353,
      "velocity": 93,
      "chip": "ym2612"
    },
    {
      "channel": 0,
      "note": 72,
      "start": 52.8478,
      "duration": 0.0999,
      "velocity": 93,
      "chip": "ym2612"
    },
    {
      "channel": 1,
      "note": 50,
      "start": 52.8478,
      "duration": 0.18,
      "velocity": 99,
      "chip": "ym2612"
    },
    {
      "channel": 0,
      "note": 76,
      "start": 52.9476,
      "duration": 0.0802,
      "velocity": 93,
      "chip": "ym2612"
    },
    {
      "channel": 0,
      "note": 79,
      "start": 53.0279,
      "duration": 0.0798,
      "velocity": 93,
      "chip": "ym2612"
    },
    {
      "channel": 1,
      "note": 55,
      "start": 53.028,
      "duration": 0.1598,
      "velocity": 99,
      "chip": "ym2612"
    },
    {
      "channel": 2,
      "note": 79,
      "start": 53.028,
      "duration": 0.2797,
      "velocity": 127,
      "chip": "ym2612"
    },
    {
      "channel": 4,
      "note": 55,
      "start": 53.0282,
      "duration": 0.34,
      "velocity": 93,
      "chip": "ym2612"
    },
    {
      "channel": 0,
      "note": 81,
      "start": 53.1077,
      "duration": 0.08,
      "velocity": 93,
      "chip": "ym2612"
    },
    {
      "channel": 0,
      "note": 79,
      "start": 53.1878,
      "duration": 0.0999,
      "velocity": 93,
      "chip": "ym2612"
    },
    {
      "channel": 1,
      "note": 60,
      "start": 53.1878,
      "duration": 0.1801,
      "velocity": 99,
      "chip": "ym2612"
    },
    {
      "channel": 0,
      "note": 76,
      "start": 53.2876,
      "duration": 0.0802,
      "velocity": 93,
      "chip": "ym2612"
    },
    {
      "channel": 0,
      "note": 72,
      "start": 53.368,
      "duration": 0.0013,
      "velocity": 93,
      "chip": "ym2612"
    },
    {
      "channel": 1,
      "note": 62,
      "start": 53.368,
      "duration": 0.0024,
      "velocity": 99,
      "chip": "ym2612"
    },
    {
      "channel": 2,
      "note": 79,
      "start": 53.3681,
      "duration": 0.3286,
      "velocity": 127,
      "chip": "ym2612"
    },
    {
      "channel": 3,
      "note": 55,
      "start": 53.3682,
      "duration": 1.2715,
      "velocity": 95,
      "chip": "ym2612"
    },
    {
      "channel": 4,
      "note": 55,
      "start": 53.3682,
      "duration": 0.3286,
      "velocity": 93,
      "chip": "ym2612"
    },
    {
      "channel": 0,
      "note": 69,
      "start": 53.3693,
      "duration": 0.0011,
      "velocity": 93,
      "chip": "ym2612"
    },
    {
      "channel": 0,
      "note": 67,
      "start": 53.3704,
      "duration": 0.0861,
      "velocity": 93,
      "chip": "ym2612"
    },
    {
      "channel": 1,
      "note": 55,
      "start": 53.3705,
      "duration": 0.1661,
      "velocity": 99,
      "chip": "ym2612"
    },
    {
      "channel": 0,
      "note": 69,
      "start": 53.4565,
      "duration": 0.08,
      "velocity": 93,
      "chip": "ym2612"
    },
    {
      "channel": 0,
      "note": 72,
      "start": 53.5366,
      "duration": 0.0799,
      "velocity": 93,
      "chip": "ym2612"
    },
    {
      "channel": 1,
      "note": 60,
      "start": 53.5367,
      "duration": 0.16,
      "velocity": 99,
      "chip": "ym2612"
    },
    {
      "channel": 0,
      "note": 76,
      "start": 53.6165,
      "duration": 0.0801,
      "velocity": 93,
      "chip": "ym2612"
    },
    {
      "channel": 0,
      "note": 79,
      "start": 53.6967,
      "duration": 0.0998,
      "velocity": 93,
      "chip": "ym2612"
    },
    {
      "channel": 1,
      "note": 62,
      "start": 53.6967,
      "duration": 0.1801,
      "velocity": 99,
      "chip": "ym2612"
    },
    {
      "channel": 2,
      "note": 77,
      "start": 53.6968,
      "duration": 0.1801,
      "velocity": 127,
      "chip": "ym2612"
    },
    {
      "channel": 4,
      "note": 53,
      "start": 53.6969,
      "duration": 0.1801,
      "velocity": 93,
      "chip": "ym2612"
    },
    {
      "channel": 0,
      "note": 81,
      "start": 53.7965,
      "duration": 0.0802,
      "velocity": 93,
      "chip": "ym2612"
    },
    {
      "channel": 0,
      "note": 79,
      "start": 53.8768,
      "duration": 0.0013,
      "velocity": 93,
      "chip": "ym2612"
    },
    {
      "channel": 1,
      "note": 43,
      "start": 53.8769,
      "duration": 0.0367,
      "velocity": 99,
      "chip": "ym2612"
    },
    {
      "channel": 2,
      "note": 79,
      "start": 53.877,
      "duration": 0.1764,
      "velocity": 127,
      "chip": "ym2612"
    },
    {
      "channel": 4,
      "note": 55,
      "start": 53.8771,
      "duration": 0.1764,
      "velocity": 93,
      "chip": "ym2612"
    },
    {
      "channel": 0,
      "note": 76,
      "start": 53.8782,
      "duration": 0.0354,
      "velocity": 93,
      "chip": "ym2612"
    },
    {
      "channel": 0,
      "note": 72,
      "start": 53.9136,
      "duration": 0.0999,
      "velocity": 93,
      "chip": "ym2612"
    },
    {
      "channel": 1,
      "note": 50,
      "start": 53.9137,
      "duration": 0.18,
      "velocity": 99,
      "chip": "ym2612"
    },
    {
      "channel": 0,
      "note": 69,
      "start": 54.0134,
      "duration": 0.0802,
      "velocity": 93,
      "chip": "ym2612"
    },
    {
      "channel": 0,
      "note": 67,
      "start": 54.0937,
      "duration": 0.0798,
      "velocity": 93,
      "chip": "ym2612"
    },
    {
      "channel": 1,
      "note": 55,
      "start": 54.0937,
      "duration": 0.16,
      "velocity": 99,
      "chip": "ym2612"
    },
    {
      "channel": 2,
      "note": 72,
      "start": 54.0938,
      "duration": 0.217,
      "velocity": 127,
      "chip": "ym2612"
    },
    {
      "channel": 4,
      "note": 48,
      "start": 54.0939,
      "duration": 0.217,
      "velocity": 93,
      "chip": "ym2612"
    },
    {
      "channel": 0,
      "note": 69,
      "start": 54.1735,
      "duration": 0.0801,
      "velocity": 93,
      "chip": "ym2612"
    },
    {
      "channel": 0,
      "note": 72,
      "start": 54.2537,
      "duration": 0.0014,
      "velocity": 93,
      "chip": "ym2612"
    },
    {
      "channel": 1,
      "note": 60,
      "start": 54.2537,
      "duration": 0.057,
      "velocity": 99,
      "chip": "ym2612"
    },
    {
      "channel": 0,
      "note": 76,
      "start": 54.255,
      "duration": 0.0556,
      "velocity": 93,
      "chip": "ym2612"
    },
    {
      "channel": 0,
      "note": 79,
      "start": 54.3107,
      "duration": 0.0013,
      "velocity": 93,
      "chip": "ym2612"
    },
    {
      "channel": 1,
      "note": 62,
      "start": 54.3107,
      "duration": 0.0023,
      "velocity": 99,
      "chip": "ym2612"
    },
    {
      "channel": 2,
      "note": 72,
      "start": 54.3108,
      "duration": 0.002,
      "velocity": 127,
      "chip": "ym2612"
    },
    {
      "channel": 4,
      "note": 48,
      "start": 54.3109,
      "duration": 0.002,
      "velocity": 93,
      "chip": "ym2612"
    },
    {
      "channel": 0,
      "note": 81,
      "start": 54.3119,
      "duration": 0.0011,
      "velocity": 93,
      "chip": "ym2612"
    },
    {
      "channel": 0,
      "note": 79,
      "start": 54.313,
      "duration": 0.0862,
      "velocity": 93,
      "chip": "ym2612"
    },
    {
      "channel": 1,
      "note": 60,
      "start": 54.313,
      "duration": 0.1664,
      "velocity": 99,
      "chip": "ym2612"
    },
    {
      "channel": 2,
      "note": 74,
      "start": 54.3131,
      "duration": 0.1664,
      "velocity": 127,
      "chip": "ym2612"
    },
    {
      "channel": 4,
      "note": 50,
      "start": 54.3132,
      "duration": 0.1664,
      "velocity": 93,
      "chip": "ym2612"
    },
    {
      "channel": 0,
      "note": 76,
      "start": 54.3992,
      "duration": 0.0802,
      "velocity": 93,
      "chip": "ym2612"
    },
    {
      "channel": 0,
      "note": 72,
      "start": 54.4794,
      "duration": 0.0798,
      "velocity": 93,
      "chip": "ym2612"
    },
    {
      "channel": 1,
      "note": 55,
      "start": 54.4794,
      "duration": 0.1601,
      "velocity": 99,
      "chip": "ym2612"
    },
    {
      "channel": 2,
      "note": 76,
      "start": 54.4796,
      "duration": 0.16,
      "velocity": 127,
      "chip": "ym2612"
    },
    {
      "channel": 4,
      "note": 52,
      "start": 54.4797,
      "duration": 0.16,
      "velocity": 93,
      "chip": "ym2612"
    },
    {
      "channel": 0,
      "note": 69,
      "start": 54.5592,
      "duration": 0.0802,
      "velocity": 93,
      "chip": "ym2612"
    },
    {
      "channel": 0,
      "note": 67,
      "start": 54.6394,
      "duration": 0.0998,
      "velocity": 93,
      "chip": "ym2612"
    },
    {
      "channel": 1,
      "note": 50,
      "start": 54.6395,
      "duration": 0.1801,
      "velocity": 99,
      "chip": "ym2612"
    },
    {
      "channel": 2,
      "note": 72,
      "start": 54.6396,
      "duration": 0.1801,
      "velocity": 127,
      "chip": "ym2612"
    },
    {
      "channel": 3,
      "note": 53,
      "start": 54.6397,
      "duration": 0.18,
      "velocity": 95,
      "chip": "ym2612"
    },
    {
      "channel": 4,
      "note": 48,
      "start": 54.6398,
      "duration": 0.18,
      "velocity": 93,
      "chip": "ym2612"
    },
    {
      "channel": 0,
      "note": 69,
      "start": 54.7393,
      "duration": 0.0802,
      "velocity": 93,
      "chip": "ym2612"
    },
    {
      "channel": 0,
      "note": 69,
      "start": 54.8195,
      "duration": 0.0014,
      "velocity": 93,
      "chip": "ym2612"
    },
    {
      "channel": 1,
      "note": 43,
      "start": 54.8196,
      "duration": 0.0367,
      "velocity": 99,
      "chip": "ym2612"
    },
    {
      "channel": 2,
      "note": 74,
      "start": 54.8196,
      "duration": 0.4365,
      "velocity": 127,
      "chip": "ym2612"
    },
    {
      "channel": 3,
      "note": 55,
      "start": 54.8198,
      "duration": 1.9514,
      "velocity": 95,
      "chip": "ym2612"
    },
    {
      "channel": 4,
      "note": 50,
      "start": 54.8198,
      "duration": 0.4364,
      "velocity": 93,
      "chip": "ym2612"
    },
    {
      "channel": 0,
      "note": 70,
      "start": 54.8209,
      "duration": 0.0353,
      "velocity": 93,
      "chip": "ym2612"
    },
    {
      "channel": 0,
      "note": 74,
      "start": 54.8563,
      "duration": 0.0799,
      "velocity": 93,
      "chip": "ym2612"
    },
    {
      "channel": 1,
      "note": 50,
      "start": 54.8563,
      "duration": 0.1799,
      "velocity": 99,
      "chip": "ym2612"
    },
    {
      "channel": 0,
      "note": 77,
      "start": 54.9361,
      "duration": 0.1001,
      "velocity": 93,
      "chip": "ym2612"
    },
    {
      "channel": 0,
      "note": 81,
      "start": 55.0363,
      "duration": 0.0799,
      "velocity": 93,
      "chip": "ym2612"
    },
    {
      "channel": 1,
      "note": 55,
      "start": 55.0363,
      "duration": 0.1599,
      "velocity": 99,
      "chip": "ym2612"
    },
    {
      "channel": 0,
      "note": 82,
      "start": 55.1161,
      "duration": 0.0801,
      "velocity": 93,
      "chip": "ym2612"
    },
    {
      "channel": 0,
      "note": 81,
      "start": 55.1963,
      "duration": 0.0797,
      "velocity": 93,
      "chip": "ym2612"
    },
    {
      "channel": 1,
      "note": 60,
      "start": 55.1963,
      "duration": 0.18,
      "velocity": 99,
      "chip": "ym2612"
    },
    {
      "channel": 0,
      "note": 77,
      "start": 55.2761,
      "duration": 0.1003,
      "velocity": 93,
      "chip": "ym2612"
    },
    {
      "channel": 0,
      "note": 74,
      "start": 55.3764,
      "duration": 0.0013,
      "velocity": 93,
      "chip": "ym2612"
    },
    {
      "channel": 1,
      "note": 62,
      "start": 55.3765,
      "duration": 0.0024,
      "velocity": 99,
      "chip": "ym2612"
    },
    {
      "channel": 2,
      "note": 79,
      "start": 55.3765,
      "duration": 0.3288,
      "velocity": 127,
      "chip": "ym2612"
    },
    {
      "channel": 4,
      "note": 55,
      "start": 55.3767,
      "duration": 0.3288,
      "velocity": 93,
      "chip": "ym2612"
    },
    {
      "channel": 0,
      "note": 70,
      "start": 55.3777,
      "duration": 0.0011,
      "velocity": 93,
      "chip": "ym2612"
    },
    {
      "channel": 0,
      "note": 69,
      "start": 55.3789,
      "duration": 0.0661,
      "velocity": 93,
      "chip": "ym2612"
    },
    {
      "channel": 1,
      "note": 55,
      "start": 55.3789,
      "duration": 0.1662,
      "velocity": 99,
      "chip": "ym2612"
    },
    {
      "channel": 0,
      "note": 70,
      "start": 55.445,
      "duration": 0.1001,
      "velocity": 93,
      "chip": "ym2612"
    },
    {
      "channel": 0,
      "note": 74,
      "start": 55.5451,
      "duration": 0.0799,
      "velocity": 93,
      "chip": "ym2612"
    },
    {
      "channel": 1,
      "note": 60,
      "start": 55.5452,
      "duration": 0.1601,
      "velocity": 99,
      "chip": "ym2612"
    },
    {
      "channel": 0,
      "note": 77,
      "start": 55.625,
      "duration": 0.0802,
      "velocity": 93,
      "chip": "ym2612"
    },
    {
      "channel": 0,
      "note": 81,
      "start": 55.7052,
      "duration": 0.0798,
      "velocity": 93,
      "chip": "ym2612"
    },
    {
      "channel": 1,
      "note": 62,
      "start": 55.7053,
      "duration": 0.1801,
      "velocity": 99,
      "chip": "ym2612"
    },
    {
      "channel": 2,
      "note": 86,
      "start": 55.7054,
      "duration": 0.1801,
      "velocity": 127,
      "chip": "ym2612"
    },
    {
      "channel": 4,
      "note": 62,
      "start": 55.7055,
      "duration": 0.18,
      "velocity": 93,
      "chip": "ym2612"
    },
    {
      "channel": 0,
      "note": 82,
      "start": 55.785,
      "duration": 0.1003,
      "velocity": 93,
      "chip": "ym2612"
    },
    {
      "channel": 0,
      "note": 81,
      "start": 55.8853,
      "duration": 0.0013,
      "velocity": 93,
      "chip": "ym2612"
    },
    {
      "channel": 1,
      "note": 43,
      "start": 55.8854,
      "duration": 0.0368,
      "velocity": 99,
      "chip": "ym2612"
    },
    {
      "channel": 2,
      "note": 86,
      "start": 55.8854,
      "duration": 0.0165,
      "velocity": 127,
      "chip": "ym2612"
    },
    {
      "channel": 4,
      "note": 62,
      "start": 55.8856,
      "duration": 0.0165,
      "velocity": 93,
      "chip": "ym2612"
    },
    {
      "channel": 0,
      "note": 77,
      "start": 55.8867,
      "duration": 0.0355,
      "velocity": 93,
      "chip": "ym2612"
    },
    {
      "channel": 0,
      "note": 74,
      "start": 55.9222,
      "duration": 0.0399,
      "velocity": 93,
      "chip": "ym2612"
    },
    {
      "channel": 1,
      "note": 50,
      "start": 55.9222,
      "duration": 0.18,
      "velocity": 99,
      "chip": "ym2612"
    },
    {
      "channel": 2,
      "note": 87,
      "start": 55.9223,
      "duration": 0.18,
      "velocity": 127,
      "chip": "ym2612"
    },
    {
      "channel": 4,
      "note": 63,
      "start": 55.9224,
      "duration": 0.1799,
      "velocity": 93,
      "chip": "ym2612"
    },
    {
      "channel": 0,
      "note": 74,
      "start": 55.962,
      "duration": 0.0399,
      "velocity": 93,
      "chip": "ym2612"
    },
    {
      "channel": 0,
      "note": 70,
      "start": 56.002,
      "duration": 0.0599,
      "velocity": 93,
      "chip": "ym2612"
    },
    {
      "channel": 0,
      "note": 69,
      "start": 56.1022,
      "duration": 0.0798,
      "velocity": 93,
      "chip": "ym2612"
    },
    {
      "channel": 1,
      "note": 55,
      "start": 56.1022,
      "duration": 0.1599,
      "velocity": 99,
      "chip": "ym2612"
    },
    {
      "channel": 2,
      "note": 86,
      "start": 56.1023,
      "duration": 0.5088,
      "velocity": 127,
      "chip": "ym2612"
    },
    {
      "channel": 4,
      "note": 62,
      "start": 56.1024,
      "duration": 0.5088,
      "velocity": 93,
      "chip": "ym2612"
    },
    {
      "channel": 0,
      "note": 70,
      "start": 56.182,
      "duration": 0.0801,
      "velocity": 93,
      "chip": "ym2612"
    },
    {
      "channel": 0,
      "note": 74,
      "start": 56.2621,
      "duration": 0.0799,
      "velocity": 93,
      "chip": "ym2612"
    },
    {
      "channel": 1,
      "note": 60,
      "start": 56.2622,
      "duration": 0.18,
      "velocity": 99,
      "chip": "ym2612"
    },
    {
      "channel": 0,
      "note": 77,
      "start": 56.342,
      "duration": 0.1001,
      "velocity": 93,
      "chip": "ym2612"
    },
    {
      "channel": 0,
      "note": 81,
      "start": 56.4422,
      "duration": 0.0012,
      "velocity": 93,
      "chip": "ym2612"
    },
    {
      "channel": 1,
      "note": 62,
      "start": 56.4422,
      "duration": 0.0023,
      "velocity": 99,
      "chip": "ym2612"
    },
    {
      "channel": 0,
      "note": 82,
      "start": 56.4434,
      "duration": 0.0011,
      "velocity": 93,
      "chip": "ym2612"
    },
    {
      "channel": 0,
      "note": 81,
      "start": 56.4445,
      "duration": 0.0663,
      "velocity": 93,
      "chip": "ym2612"
    },
    {
      "channel": 1,
      "note": 60,
      "start": 56.4446,
      "duration": 0.1665,
      "velocity": 99,
      "chip": "ym2612"
    },
    {
      "channel": 0,
      "note": 77,
      "start": 56.5109,
      "duration": 0.1001,
      "velocity": 93,
      "chip": "ym2612"
    },
    {
      "channel": 0,
      "note": 74,
      "start": 56.611,
      "duration": 0.0798,
      "velocity": 93,
      "chip": "ym2612"
    },
    {
      "channel": 1,
      "note": 55,
      "start": 56.611,
      "duration": 0.16,
      "velocity": 99,
      "chip": "ym2612"
    },
    {
      "channel": 2,
      "note": 84,
      "start": 56.6111,
      "duration": 0.1397,
      "velocity": 127,
      "chip": "ym2612"
    },
    {
      "channel": 4,
      "note": 60,
      "start": 56.6112,
      "duration": 0.1396,
      "velocity": 93,
      "chip": "ym2612"
    },
    {
      "channel": 0,
      "note": 70,
      "start": 56.6908,
      "duration": 0.0802,
      "velocity": 93,
      "chip": "ym2612"
    },
    {
      "channel": 0,
      "note": 69,
      "start": 56.771,
      "duration": 0.0798,
      "velocity": 93,
      "chip": "ym2612"
    },
    {
      "channel": 1,
      "note": 50,
      "start": 56.7711,
      "duration": 0.1801,
      "velocity": 99,
      "chip": "ym2612"
    },
    {
      "channel": 2,
      "note": 82,
      "start": 56.7712,
      "duration": 0.1801,
      "velocity": 127,
      "chip": "ym2612"
    },
    {
      "channel": 3,
      "note": 50,
      "start": 56.7712,
      "duration": 0.1801,
      "velocity": 95,
      "chip": "ym2612"
    },
    {
      "channel": 4,
      "note": 58,
      "start": 56.7713,
      "duration": 0.18,
      "velocity": 93,
      "chip": "ym2612"
    },
    {
      "channel": 0,
      "note": 70,
      "start": 56.8508,
      "duration": 0.1003,
      "velocity": 93,
      "chip": "ym2612"
    },
    {
      "channel": 0,
      "note": 67,
      "start": 56.9512,
      "duration": 0.0013,
      "velocity": 93,
      "chip": "ym2612"
    },
    {
      "channel": 1,
      "note": 43,
      "start": 56.9512,
      "duration": 0.0368,
      "velocity": 99,
      "chip": "ym2612"
    },
    {
      "channel": 2,
      "note": 84,
      "start": 56.9513,
      "duration": 0.0368,
      "velocity": 127,
      "chip": "ym2612"
    },
    {
      "channel": 3,
      "note": 55,
      "start": 56.9514,
      "duration": 0.5369,
      "velocity": 95,
      "chip": "ym2612"
    },
    {
      "channel": 4,
      "note": 60,
      "start": 56.9514,
      "duration": 0.0368,
      "velocity": 93,
      "chip": "ym2612"
    },
    {
      "channel": 0,
      "note": 69,
      "start": 56.9525,
      "duration": 0.0354,
      "velocity": 93,
      "chip": "ym2612"
    },
    {
      "channel": 0,
      "note": 72,
      "start": 56.988,
      "duration": 0.0798,
      "velocity": 93,
      "chip": "ym2612"
    },
    {
      "channel": 1,
      "note": 50,
      "start": 56.988,
      "duration": 0.18,
      "velocity": 99,
      "chip": "ym2612"
    },
    {
      "channel": 2,
      "note": 86,
      "start": 56.9881,
      "duration": 0.1799,
      "velocity": 127,
      "chip": "ym2612"
    },
    {
      "channel": 4,
      "note": 62,
      "start": 56.9883,
      "duration": 0.1799,
      "velocity": 93,
      "chip": "ym2612"
    },
    {
      "channel": 0,
      "note": 76,
      "start": 57.0678,
      "duration": 0.1001,
      "velocity": 93,
      "chip": "ym2612"
    },
    {
      "channel": 0,
      "note": 79,
      "start": 57.168,
      "duration": 0.0798,
      "velocity": 93,
      "chip": "ym2612"
    },
    {
      "channel": 1,
      "note": 55,
      "start": 57.168,
      "duration": 0.1599,
      "velocity": 99,
      "chip": "ym2612"
    },
    {
      "channel": 2,
      "note": 84,
      "start": 57.1681,
      "duration": 0.3201,
      "velocity": 127,
      "chip": "ym2612"
    },
    {
      "channel": 4,
      "note": 60,
      "start": 57.1682,
      "duration": 0.2397,
      "velocity": 93,
      "chip": "ym2612"
    },
    {
      "channel": 0,
      "note": 81,
      "start": 57.2478,
      "duration": 0.08,
      "velocity": 93,
      "chip": "ym2612"
    },
    {
      "channel": 0,
      "note": 79,
      "start": 57.3279,
      "duration": 0.0798,
      "velocity": 93,
      "chip": "ym2612"
    },
    {
      "channel": 1,
      "note": 60,
      "start": 57.328,
      "duration": 0.1602,
      "velocity": 99,
      "chip": "ym2612"
    },
    {
      "channel": 0,
      "note": 76,
      "start": 57.4078,
      "duration": 0.0803,
      "velocity": 93,
      "chip": "ym2612"
    },
    {
      "channel": 0,
      "note": 72,
      "start": 57.4881,
      "duration": 0.0015,
      "velocity": 93,
      "chip": "ym2612"
    },
    {
      "channel": 1,
      "note": 62,
      "start": 57.4882,
      "duration": 0.0085,
      "velocity": 99,
      "chip": "ym2612"
    },
    {
      "channel": 2,
      "note": 79,
      "start": 57.4883,
      "duration": 0.3283,
      "velocity": 127,
      "chip": "ym2612"
    },
    {
      "channel": 3,
      "note": 55,
      "start": 57.4883,
      "duration": 1.2935,
      "velocity": 95,
      "chip": "ym2612"
    },
    {
      "channel": 4,
      "note": 55,
      "start": 57.4884,
      "duration": 0.3282,
      "velocity": 93,
      "chip": "ym2612"
    },
    {
      "channel": 0,
      "note": 69,
      "start": 57.4896,
      "duration": 0.007,
      "velocity": 93,
      "chip": "ym2612"
    },
    {
      "channel": 0,
      "note": 67,
      "start": 57.4967,
      "duration": 0.0799,
      "velocity": 93,
      "chip": "ym2612"
    },
    {
      "channel": 1,
      "note": 55,
      "start": 57.4968,
      "duration": 0.1599,
      "velocity": 99,
      "chip": "ym2612"
    },
    {
      "channel": 0,
      "note": 69,
      "start": 57.5766,
      "duration": 0.08,
      "velocity": 93,
      "chip": "ym2612"
    },
    {
      "channel": 0,
      "note": 72,
      "start": 57.6567,
      "duration": 0.0999,
      "velocity": 93,
      "chip": "ym2612"
    },
    {
      "channel": 1,
      "note": 60,
      "start": 57.6568,
      "duration": 0.18,
      "velocity": 99,
      "chip": "ym2612"
    },
    {
      "channel": 0,
      "note": 76,
      "start": 57.7566,
      "duration": 0.0802,
      "velocity": 93,
      "chip": "ym2612"
    },
    {
      "channel": 0,
      "note": 79,
      "start": 57.8368,
      "duration": 0.0012,
      "velocity": 93,
      "chip": "ym2612"
    },
    {
      "channel": 1,
      "note": 62,
      "start": 57.8369,
      "duration": 0.0369,
      "velocity": 99,
      "chip": "ym2612"
    },
    {
      "channel": 2,
      "note": 77,
      "start": 57.8369,
      "duration": 0.0369,
      "velocity": 127,
      "chip": "ym2612"
    },
    {
      "channel": 4,
      "note": 53,
      "start": 57.8371,
      "duration": 0.0369,
      "velocity": 93,
      "chip": "ym2612"
    },
    {
      "channel": 0,
      "note": 81,
      "start": 57.8381,
      "duration": 0.0356,
      "velocity": 93,
      "chip": "ym2612"
    },
    {
      "channel": 0,
      "note": 79,
      "start": 57.8738,
      "duration": 0.0998,
      "velocity": 93,
      "chip": "ym2612"
    },
    {
      "channel": 1,
      "note": 43,
      "start": 57.8738,
      "duration": 0.1798,
      "velocity": 99,
      "chip": "ym2612"
    },
    {
      "channel": 2,
      "note": 79,
      "start": 57.8739,
      "duration": 0.3399,
      "velocity": 127,
      "chip": "ym2612"
    },
    {
      "channel": 4,
      "note": 55,
      "start": 57.874,
      "duration": 0.3399,
      "velocity": 93,
      "chip": "ym2612"
    },
    {
      "channel": 0,
      "note": 76,
      "start": 57.9735,
      "duration": 0.0801,
      "velocity": 93,
      "chip": "ym2612"
    },
    {
      "channel": 0,
      "note": 72,
      "start": 58.0537,
      "duration": 0.0799,
      "velocity": 93,
      "chip": "ym2612"
    },
    {
      "channel": 1,
      "note": 50,
      "start": 58.0537,
      "duration": 0.16,
      "velocity": 99,
      "chip": "ym2612"
    },
    {
      "channel": 0,
      "note": 69,
      "start": 58.1335,
      "duration": 0.0802,
      "velocity": 93,
      "chip": "ym2612"
    },
    {
      "channel": 0,
      "note": 67,
      "start": 58.2137,
      "duration": 0.0998,
      "velocity": 93,
      "chip": "ym2612"
    },
    {
      "channel": 1,
      "note": 55,
      "start": 58.2138,
      "duration": 0.18,
      "velocity": 99,
      "chip": "ym2612"
    },
    {
      "channel": 2,
      "note": 72,
      "start": 58.2138,
      "duration": 0.1967,
      "velocity": 127,
      "chip": "ym2612"
    },
    {
      "channel": 4,
      "note": 48,
      "start": 58.214,
      "duration": 0.1966,
      "velocity": 93,
      "chip": "ym2612"
    },
    {
      "channel": 0,
      "note": 69,
      "start": 58.3136,
      "duration": 0.0801,
      "velocity": 93,
      "chip": "ym2612"
    },
    {
      "channel": 0,
      "note": 72,
      "start": 58.3937,
      "duration": 0.0011,
      "velocity": 93,
      "chip": "ym2612"
    },
    {
      "channel": 1,
      "note": 60,
      "start": 58.3938,
      "duration": 0.037,
      "velocity": 99,
      "chip": "ym2612"
    },
    {
      "channel": 0,
      "note": 76,
      "start": 58.3949,
      "duration": 0.0359,
      "velocity": 93,
      "chip": "ym2612"
    },
    {
      "channel": 0,
      "note": 79,
      "start": 58.4308,
      "duration": 0.0015,
      "velocity": 93,
      "chip": "ym2612"
    },
    {
      "channel": 1,
      "note": 62,
      "start": 58.4308,
      "duration": 0.0085,
      "velocity": 99,
      "chip": "ym2612"
    },
    {
      "channel": 2,
      "note": 72,
      "start": 58.4309,
      "duration": 0.1686,
      "velocity": 127,
      "chip": "ym2612"
    },
    {
      "channel": 4,
      "note": 48,
      "start": 58.431,
      "duration": 0.1685,
      "velocity": 93,
      "chip": "ym2612"
    },
    {
      "channel": 0,
      "note": 81,
      "start": 58.4323,
      "duration": 0.007,
      "velocity": 93,
      "chip": "ym2612"
    },
    {
      "channel": 0,
      "note": 79,
      "start": 58.4393,
      "duration": 0.0799,
      "velocity": 93,
      "chip": "ym2612"
    },
    {
      "channel": 1,
      "note": 60,
      "start": 58.4394,
      "duration": 0.16,
      "velocity": 99,
      "chip": "ym2612"
    },
    {
      "channel": 0,
      "note": 76,
      "start": 58.5192,
      "duration": 0.0802,
      "velocity": 93,
      "chip": "ym2612"
    },
    {
      "channel": 0,
      "note": 72,
      "start": 58.5994,
      "duration": 0.0998,
      "velocity": 93,
      "chip": "ym2612"
    },
    {
      "channel": 1,
      "note": 55,
      "start": 58.5995,
      "duration": 0.18,
      "velocity": 99,
      "chip": "ym2612"
    },
    {
      "channel": 2,
      "note": 70,
      "start": 58.5995,
      "duration": 0.1814,
      "velocity": 127,
      "chip": "ym2612"
    },
    {
      "channel": 4,
      "note": 46,
      "start": 58.5997,
      "duration": 0.1813,
      "velocity": 93,
      "chip": "ym2612"
    },
    {
      "channel": 0,
      "note": 69,
      "start": 58.6992,
      "duration": 0.0801,
      "velocity": 93,
      "chip": "ym2612"
    },
    {
      "channel": 0,
      "note": 67,
      "start": 58.7794,
      "duration": 0.0011,
      "velocity": 93,
      "chip": "ym2612"
    },
    {
      "channel": 1,
      "note": 50,
      "start": 58.7795,
      "duration": 0.0017,
      "velocity": 99,
      "chip": "ym2612"
    },
    {
      "channel": 0,
      "note": 69,
      "start": 58.7806,
      "duration": 0.001,
      "velocity": 93,
      "chip": "ym2612"
    },
    {
      "channel": 0,
      "note": 74,
      "start": 58.7817,
      "duration": 0.0017,
      "velocity": 93,
      "chip": "ym2612"
    },
    {
      "channel": 1,
      "note": 55,
      "start": 58.7818,
      "duration": 0.0568,
      "velocity": 99,
      "chip": "ym2612"
    },
    {
      "channel": 2,
      "note": 72,
      "start": 58.7818,
      "duration": 0.2169,
      "velocity": 127,
      "chip": "ym2612"
    },
    {
      "channel": 3,
      "note": 48,
      "start": 58.7819,
      "duration": 2.0084,
      "velocity": 95,
      "chip": "ym2612"
    },
    {
      "channel": 4,
      "note": 48,
      "start": 58.782,
      "duration": 0.2169,
      "velocity": 93,
      "chip": "ym2612"
    },
    {
      "channel": 0,
      "note": 75,
      "start": 58.7834,
      "duration": 0.0551,
      "velocity": 93,
      "chip": "ym2612"
    },
    {
      "channel": 0,
      "note": 79,
      "start": 58.8385,
      "duration": 0.0799,
      "velocity": 93,
      "chip": "ym2612"
    },
    {
      "channel": 1,
      "note": 60,
      "start": 58.8386,
      "duration": 0.16,
      "velocity": 99,
      "chip": "ym2612"
    },
    {
      "channel": 0,
      "note": 82,
      "start": 58.9185,
      "duration": 0.0801,
      "velocity": 93,
      "chip": "ym2612"
    },
    {
      "channel": 0,
      "note": 86,
      "start": 58.9987,
      "duration": 0.0998,
      "velocity": 93,
      "chip": "ym2612"
    },
    {
      "channel": 1,
      "note": 62,
      "start": 58.9987,
      "duration": 0.1798,
      "velocity": 99,
      "chip": "ym2612"
    },
    {
      "channel": 2,
      "note": 67,
      "start": 58.9988,
      "duration": 0.3401,
      "velocity": 127,
      "chip": "ym2612"
    },
    {
      "channel": 4,
      "note": 43,
      "start": 58.9989,
      "duration": 0.34,
      "velocity": 93,
      "chip": "ym2612"
    },
    {
      "channel": 0,
      "note": 87,
      "start": 59.0984,
      "duration": 0.08,
      "velocity": 93,
      "chip": "ym2612"
    },
    {
      "channel": 0,
      "note": 86,
      "start": 59.1785,
      "duration": 0.0799,
      "velocity": 93,
      "chip": "ym2612"
    },
    {
      "channel": 1,
      "note": 65,
      "start": 59.1785,
      "duration": 0.1602,
      "velocity": 99,
      "chip": "ym2612"
    },
    {
      "channel": 0,
      "note": 82,
      "start": 59.2584,
      "duration": 0.0803,
      "velocity": 93,
      "chip": "ym2612"
    },
    {
      "channel": 0,
      "note": 79,
      "start": 59.3387,
      "duration": 0.0015,
      "velocity": 93,
      "chip": "ym2612"
    },
    {
      "channel": 1,
      "note": 67,
      "start": 59.3388,
      "duration": 0.0085,
      "velocity": 99,
      "chip": "ym2612"
    },
    {
      "channel": 2,
      "note": 72,
      "start": 59.3389,
      "duration": 0.1686,
      "velocity": 127,
      "chip": "ym2612"
    },
    {
      "channel": 4,
      "note": 48,
      "start": 59.339,
      "duration": 0.1686,
      "velocity": 93,
      "chip": "ym2612"
    },
    {
      "channel": 0,
      "note": 75,
      "start": 59.3403,
      "duration": 0.0069,
      "velocity": 93,
      "chip": "ym2612"
    },
    {
      "channel": 0,
      "note": 74,
      "start": 59.3473,
      "duration": 0.0799,
      "velocity": 93,
      "chip": "ym2612"
    },
    {
      "channel": 1,
      "note": 60,
      "start": 59.3473,
      "duration": 0.1601,
      "velocity": 99,
      "chip": "ym2612"
    },
    {
      "channel": 0,
      "note": 75,
      "start": 59.4272,
      "duration": 0.0801,
      "velocity": 93,
      "chip": "ym2612"
    },
    {
      "channel": 0,
      "note": 79,
      "start": 59.5074,
      "duration": 0.0798,
      "velocity": 93,
      "chip": "ym2612"
    },
    {
      "channel": 1,
      "note": 65,
      "start": 59.5074,
      "duration": 0.1798,
      "velocity": 99,
      "chip": "ym2612"
    },
    {
      "channel": 2,
      "note": 74,
      "start": 59.5075,
      "duration": 0.3197,
      "velocity": 127,
      "chip": "ym2612"
    },
    {
      "channel": 4,
      "note": 50,
      "start": 59.5076,
      "duration": 0.3196,
      "velocity": 93,
      "chip": "ym2612"
    },
    {
      "channel": 0,
      "note": 82,
      "start": 59.5873,
      "duration": 0.0999,
      "velocity": 93,
      "chip": "ym2612"
    },
    {
      "channel": 0,
      "note": 86,
      "start": 59.6873,
      "duration": 0.0799,
      "velocity": 93,
      "chip": "ym2612"
    },
    {
      "channel": 1,
      "note": 67,
      "start": 59.6873,
      "duration": 0.1602,
      "velocity": 99,
      "chip": "ym2612"
    },
    {
      "channel": 0,
      "note": 87,
      "start": 59.7672,
      "duration": 0.0802,
      "velocity": 93,
      "chip": "ym2612"
    },
    {
      "channel": 0,
      "note": 86,
      "start": 59.8474,
      "duration": 0.0013,
      "velocity": 93,
      "chip": "ym2612"
    },
    {
      "channel": 1,
      "note": 55,
      "start": 59.8475,
      "duration": 0.0569,
      "velocity": 99,
      "chip": "ym2612"
    },
    {
      "channel": 2,
      "note": 75,
      "start": 59.8476,
      "duration": 0.2169,
      "velocity": 127,
      "chip": "ym2612"
    },
    {
      "channel": 4,
      "note": 51,
      "start": 59.8478,
      "duration": 0.2168,
      "velocity": 93,
      "chip": "ym2612"
    },
    {
      "channel": 0,
      "note": 82,
      "start": 59.8488,
      "duration": 0.0556,
      "velocity": 93,
      "chip": "ym2612"
    },
    {
      "channel": 0,
      "note": 79,
      "start": 59.9043,
      "duration": 0.0199,
      "velocity": 93,
      "chip": "ym2612"
    },
    {
      "channel": 1,
      "note": 60,
      "start": 59.9044,
      "duration": 0.16,
      "velocity": 99,
      "chip": "ym2612"
    },
    {
      "channel": 0,
      "note": 79,
      "start": 59.9243,
      "duration": 0.0599,
      "velocity": 93,
      "chip": "ym2612"
    },
    {
      "channel": 0,
      "note": 75,
      "start": 59.9842,
      "duration": 0.0599,
      "velocity": 93,
      "chip": "ym2612"
    },
    {
      "channel": 0,
      "note": 74,
      "start": 60.0644,
      "duration": 0.0798,
      "velocity": 93,
      "chip": "ym2612"
    },
    {
      "channel": 1,
      "note": 62,
      "start": 60.0644,
      "duration": 0.1799,
      "velocity": 99,
      "chip": "ym2612"
    },
    {
      "channel": 2,
      "note": 77,
      "start": 60.0645,
      "duration": 0.2169,
      "velocity": 127,
      "chip": "ym2612"
    },
    {
      "channel": 4,
      "note": 53,
      "start": 60.0646,
      "duration": 0.2169,
      "velocity": 93,
      "chip": "ym2612"
    },
    {
      "channel": 0,
      "note": 75,
      "start": 60.1442,
      "duration": 0.1001,
      "velocity": 93,
      "chip": "ym2612"
    },
    {
      "channel": 0,
      "note": 79,
      "start": 60.2443,
      "duration": 0.0011,
      "velocity": 93,
      "chip": "ym2612"
    },
    {
      "channel": 1,
      "note": 65,
      "start": 60.2444,
      "duration": 0.0369,
      "velocity": 99,
      "chip": "ym2612"
    },
    {
      "channel": 0,
      "note": 82,
      "start": 60.2455,
      "duration": 0.0358,
      "velocity": 93,
      "chip": "ym2612"
    },
    {
      "channel": 0,
      "note": 86,
      "start": 60.2813,
      "duration": 0.0013,
      "velocity": 93,
      "chip": "ym2612"
    },
    {
      "channel": 1,
      "note": 67,
      "start": 60.2814,
      "duration": 0.0085,
      "velocity": 99,
      "chip": "ym2612"
    },
    {
      "channel": 2,
      "note": 79,
      "start": 60.2815,
      "duration": 0.1688,
      "velocity": 127,
      "chip": "ym2612"
    },
    {
      "channel": 4,
      "note": 55,
      "start": 60.2816,
      "duration": 0.1687,
      "velocity": 93,
      "chip": "ym2612"
    },
    {
      "channel": 0,
      "note": 87,
      "start": 60.2827,
      "duration": 0.0072,
      "velocity": 93,
      "chip": "ym2612"
    },
    {
      "channel": 0,
      "note": 86,
      "start": 60.29,
      "duration": 0.0799,
      "velocity": 93,
      "chip": "ym2612"
    },
    {
      "channel": 1,
      "note": 60,
      "start": 60.29,
      "duration": 0.1602,
      "velocity": 99,
      "chip": "ym2612"
    },
    {
      "channel": 0,
      "note": 82,
      "start": 60.3699,
      "duration": 0.0802,
      "velocity": 93,
      "chip": "ym2612"
    },
    {
      "channel": 0,
      "note": 79,
      "start": 60.4501,
      "duration": 0.0798,
      "velocity": 93,
      "chip": "ym2612"
    },
    {
      "channel": 1,
      "note": 65,
      "start": 60.4502,
      "duration": 0.1798,
      "velocity": 99,
      "chip": "ym2612"
    },
    {
      "channel": 2,
      "note": 82,
      "start": 60.4503,
      "duration": 0.34,
      "velocity": 127,
      "chip": "ym2612"
    },
    {
      "channel": 4,
      "note": 58,
      "start": 60.4504,
      "duration": 0.2596,
      "velocity": 93,
      "chip": "ym2612"
    },
    {
      "channel": 0,
      "note": 75,
      "start": 60.5299,
      "duration": 0.1,
      "velocity": 93,
      "chip": "ym2612"
    },
    {
      "channel": 0,
      "note": 74,
      "start": 60.63,
      "duration": 0.0799,
      "velocity": 93,
      "chip": "ym2612"
    },
    {
      "channel": 1,
      "note": 67,
      "start": 60.63,
      "duration": 0.1602,
      "velocity": 99,
      "chip": "ym2612"
    },
    {
      "channel": 0,
      "note": 75,
      "start": 60.7099,
      "duration": 0.0802,
      "velocity": 93,
      "chip": "ym2612"
    },
    {
      "channel": 0,
      "note": 76,
      "start": 60.7902,
      "duration": 0.0013,
      "velocity": 93,
      "chip": "ym2612"
    },
    {
      "channel": 1,
      "note": 57,
      "start": 60.7903,
      "duration": 0.0568,
      "velocity": 99,
      "chip": "ym2612"
    },
    {
      "channel": 2,
      "note": 81,
      "start": 60.7903,
      "duration": 0.1966,
      "velocity": 127,
      "chip": "ym2612"
    },
    {
      "channel": 3,
      "note": 50,
      "start": 60.7904,
      "duration": 2.0086,
      "velocity": 95,
      "chip": "ym2612"
    },
    {
      "channel": 4,
      "note": 57,
      "start": 60.7905,
      "duration": 0.1965,
      "velocity": 93,
      "chip": "ym2612"
    },
    {
      "channel": 0,
      "note": 77,
      "start": 60.7915,
      "duration": 0.0554,
      "velocity": 93,
      "chip": "ym2612"
    },
    {
      "channel": 0,
      "note": 81,
      "start": 60.847,
      "duration": 0.0799,
      "velocity": 93,
      "chip": "ym2612"
    },
    {
      "channel": 1,
      "note": 62,
      "start": 60.8471,
      "duration": 0.16,
      "velocity": 99,
      "chip": "ym2612"
    },
    {
      "channel": 0,
      "note": 84,
      "start": 60.9269,
      "duration": 0.0802,
      "velocity": 93,
      "chip": "ym2612"
    },
    {
      "channel": 0,
      "note": 88,
      "start": 61.0071,
      "duration": 0.0798,
      "velocity": 93,
      "chip": "ym2612"
    },
    {
      "channel": 1,
      "note": 64,
      "start": 61.0072,
      "duration": 0.1396,
      "velocity": 99,
      "chip": "ym2612"
    },
    {
      "channel": 2,
      "note": 77,
      "start": 61.0073,
      "duration": 0.34,
      "velocity": 127,
      "chip": "ym2612"
    },
    {
      "channel": 4,
      "note": 53,
      "start": 61.0074,
      "duration": 0.34,
      "velocity": 93,
      "chip": "ym2612"
    },
    {
      "channel": 0,
      "note": 89,
      "start": 61.0869,
      "duration": 0.1,
      "velocity": 93,
      "chip": "ym2612"
    },
    {
      "channel": 0,
      "note": 88,
      "start": 61.187,
      "duration": 0.0799,
      "velocity": 93,
      "chip": "ym2612"
    },
    {
      "channel": 1,
      "note": 67,
      "start": 61.187,
      "duration": 0.1602,
      "velocity": 99,
      "chip": "ym2612"
    },
    {
      "channel": 0,
      "note": 84,
      "start": 61.2669,
      "duration": 0.0802,
      "velocity": 93,
      "chip": "ym2612"
    },
    {
      "channel": 0,
      "note": 81,
      "start": 61.3471,
      "duration": 0.0014,
      "velocity": 93,
      "chip": "ym2612"
    },
    {
      "channel": 1,
      "note": 69,
      "start": 61.3473,
      "duration": 0.0086,
      "velocity": 99,
      "chip": "ym2612"
    },
    {
      "channel": 2,
      "note": 72,
      "start": 61.3473,
      "duration": 0.1687,
      "velocity": 127,
      "chip": "ym2612"
    },
    {
      "channel": 4,
      "note": 48,
      "start": 61.3475,
      "duration": 0.1687,
      "velocity": 93,
      "chip": "ym2612"
    },
    {
      "channel": 0,
      "note": 77,
      "start": 61.3486,
      "duration": 0.0072,
      "velocity": 93,
      "chip": "ym2612"
    },
    {
      "channel": 0,
      "note": 76,
      "start": 61.3559,
      "duration": 0.0799,
      "velocity": 93,
      "chip": "ym2612"
    },
    {
      "channel": 1,
      "note": 62,
      "start": 61.356,
      "duration": 0.16,
      "velocity": 99,
      "chip": "ym2612"
    },
    {
      "channel": 0,
      "note": 77,
      "start": 61.4358,
      "duration": 0.0802,
      "velocity": 93,
      "chip": "ym2612"
    },
    {
      "channel": 0,
      "note": 81,
      "start": 61.516,
      "duration": 0.0798,
      "velocity": 93,
      "chip": "ym2612"
    },
    {
      "channel": 1,
      "note": 67,
      "start": 61.516,
      "duration": 0.1599,
      "velocity": 99,
      "chip": "ym2612"
    },
    {
      "channel": 2,
      "note": 70,
      "start": 61.5161,
      "duration": 0.3197,
      "velocity": 127,
      "chip": "ym2612"
    },
    {
      "channel": 4,
      "note": 46,
      "start": 61.5162,
      "duration": 0.3196,
      "velocity": 93,
      "chip": "ym2612"
    },
    {
      "channel": 0,
      "note": 84,
      "start": 61.5958,
      "duration": 0.0801,
      "velocity": 93,
      "chip": "ym2612"
    },
    {
      "channel": 0,
      "note": 88,
      "start": 61.6759,
      "duration": 0.0999,
      "velocity": 93,
      "chip": "ym2612"
    },
    {
      "channel": 1,
      "note": 69,
      "start": 61.676,
      "duration": 0.1801,
      "velocity": 99,
      "chip": "ym2612"
    },
    {
      "channel": 0,
      "note": 89,
      "start": 61.7758,
      "duration": 0.0802,
      "velocity": 93,
      "chip": "ym2612"
    },
    {
      "channel": 0,
      "note": 88,
      "start": 61.856,
      "duration": 0.0013,
      "velocity": 93,
      "chip": "ym2612"
    },
    {
      "channel": 1,
      "note": 57,
      "start": 61.8561,
      "duration": 0.0368,
      "velocity": 99,
      "chip": "ym2612"
    },
    {
      "channel": 2,
      "note": 69,
      "start": 61.8562,
      "duration": 0.6026,
      "velocity": 127,
      "chip": "ym2612"
    },
    {
      "channel": 4,
      "note": 45,
      "start": 61.8563,
      "duration": 0.6027,
      "velocity": 93,
      "chip": "ym2612"
    },
    {
      "channel": 0,
      "note": 84,
      "start": 61.8573,
      "duration": 0.0354,
      "velocity": 93,
      "chip": "ym2612"
    },
    {
      "channel": 0,
      "note": 81,
      "start": 61.8928,
      "duration": 0.04,
      "velocity": 93,
      "chip": "ym2612"
    },
    {
      "channel": 1,
      "note": 62,
      "start": 61.8929,
      "duration": 0.18,
      "velocity": 99,
      "chip": "ym2612"
    },
    {
      "channel": 0,
      "note": 81,
      "start": 61.9328,
      "duration": 0.0599,
      "velocity": 93,
      "chip": "ym2612"
    },
    {
      "channel": 0,
      "note": 77,
      "start": 61.9928,
      "duration": 0.0599,
      "velocity": 93,
      "chip": "ym2612"
    },
    {
      "channel": 0,
      "note": 76,
      "start": 62.0728,
      "duration": 0.0799,
      "velocity": 93,
      "chip": "ym2612"
    },
    {
      "channel": 1,
      "note": 64,
      "start": 62.0729,
      "duration": 0.1601,
      "velocity": 99,
      "chip": "ym2612"
    },
    {
      "channel": 0,
      "note": 77,
      "start": 62.1528,
      "duration": 0.0801,
      "velocity": 93,
      "chip": "ym2612"
    },
    {
      "channel": 0,
      "note": 81,
      "start": 62.233,
      "duration": 0.0013,
      "velocity": 93,
      "chip": "ym2612"
    },
    {
      "channel": 1,
      "note": 67,
      "start": 62.233,
      "duration": 0.0569,
      "velocity": 99,
      "chip": "ym2612"
    },
    {
      "channel": 0,
      "note": 84,
      "start": 62.2343,
      "duration": 0.0555,
      "velocity": 93,
      "chip": "ym2612"
    },
    {
      "channel": 0,
      "note": 88,
      "start": 62.2899,
      "duration": 0.0012,
      "velocity": 93,
      "chip": "ym2612"
    },
    {
      "channel": 1,
      "note": 69,
      "start": 62.2899,
      "duration": 0.0023,
      "velocity": 99,
      "chip": "ym2612"
    },
    {
      "channel": 0,
      "note": 89,
      "start": 62.291,
      "duration": 0.0011,
      "velocity": 93,
      "chip": "ym2612"
    },
    {
      "channel": 0,
      "note": 88,
      "start": 62.2922,
      "duration": 0.0863,
      "velocity": 93,
      "chip": "ym2612"
    },
    {
      "channel": 1,
      "note": 62,
      "start": 62.2923,
      "duration": 0.1665,
      "velocity": 99,
      "chip": "ym2612"
    },
    {
      "channel": 0,
      "note": 84,
      "start": 62.3785,
      "duration": 0.0802,
      "velocity": 93,
      "chip": "ym2612"
    },
    {
      "channel": 0,
      "note": 81,
      "start": 62.4588,
      "duration": 0.0798,
      "velocity": 93,
      "chip": "ym2612"
    },
    {
      "channel": 1,
      "note": 67,
      "start": 62.4588,
      "duration": 0.1599,
      "velocity": 99,
      "chip": "ym2612"
    },
    {
      "channel": 2,
      "note": 67,
      "start": 62.4589,
      "duration": 0.1599,
      "velocity": 127,
      "chip": "ym2612"
    },
    {
      "channel": 4,
      "note": 43,
      "start": 62.459,
      "duration": 0.1599,
      "velocity": 93,
      "chip": "ym2612"
    },
    {
      "channel": 0,
      "note": 77,
      "start": 62.5386,
      "duration": 0.0801,
      "velocity": 93,
      "chip": "ym2612"
    },
    {
      "channel": 0,
      "note": 76,
      "start": 62.6187,
      "duration": 0.0998,
      "velocity": 93,
      "chip": "ym2612"
    },
    {
      "channel": 1,
      "note": 69,
      "start": 62.6188,
      "duration": 0.1801,
      "velocity": 99,
      "chip": "ym2612"
    },
    {
      "channel": 2,
      "note": 65,
      "start": 62.6188,
      "duration": 0.1397,
      "velocity": 127,
      "chip": "ym2612"
    },
    {
      "channel": 4,
      "note": 41,
      "start": 62.619,
      "duration": 0.1396,
      "velocity": 93,
      "chip": "ym2612"
    },
    {
      "channel": 0,
      "note": 77,
      "start": 62.7185,
      "duration": 0.0803,
      "velocity": 93,
      "chip": "ym2612"
    },
    {
      "channel": 0,
      "note": 74,
      "start": 62.7988,
      "duration": 0.0012,
      "velocity": 93,
      "chip": "ym2612"
    },
    {
      "channel": 1,
      "note": 55,
      "start": 62.7989,
      "duration": 0.0366,
      "velocity": 99,
      "chip": "ym2612"
    },
    {
      "channel": 2,
      "note": 67,
      "start": 62.799,
      "duration": 0.0765,
      "velocity": 127,
      "chip": "ym2612"
    },
    {
      "channel": 3,
      "note": 48,
      "start": 62.7991,
      "duration": 1.9511,
      "velocity": 95,
      "chip": "ym2612"
    },
    {
      "channel": 4,
      "note": 43,
      "start": 62.7992,
      "duration": 0.0764,
      "velocity": 93,
      "chip": "ym2612"
    },
    {
      "channel": 0,
      "note": 75,
      "start": 62.8001,
      "duration": 0.0354,
      "velocity": 93,
      "chip": "ym2612"
    },
    {
      "channel": 0,
      "note": 79,
      "start": 62.8355,
      "duration": 0.0997,
      "velocity": 93,
      "chip": "ym2612"
    },
    {
      "channel": 1,
      "note": 60,
      "start": 62.8356,
      "duration": 0.18,
      "velocity": 99,
      "chip": "ym2612"
    },
    {
      "channel": 0,
      "note": 82,
      "start": 62.9353,
      "duration": 0.0802,
      "velocity": 93,
      "chip": "ym2612"
    },
    {
      "channel": 0,
      "note": 86,
      "start": 63.0156,
      "duration": 0.0798,
      "velocity": 93,
      "chip": "ym2612"
    },
    {
      "channel": 1,
      "note": 62,
      "start": 63.0156,
      "duration": 0.1598,
      "velocity": 99,
      "chip": "ym2612"
    },
    {
      "channel": 2,
      "note": 67,
      "start": 63.0157,
      "duration": 0.3401,
      "velocity": 127,
      "chip": "ym2612"
    },
    {
      "channel": 4,
      "note": 43,
      "start": 63.0159,
      "duration": 0.3401,
      "velocity": 93,
      "chip": "ym2612"
    },
    {
      "channel": 0,
      "note": 87,
      "start": 63.0954,
      "duration": 0.08,
      "velocity": 93,
      "chip": "ym2612"
    },
    {
      "channel": 0,
      "note": 86,
      "start": 63.1755,
      "duration": 0.0999,
      "velocity": 93,
      "chip": "ym2612"
    },
    {
      "channel": 1,
      "note": 65,
      "start": 63.1755,
      "duration": 0.1802,
      "velocity": 99,
      "chip": "ym2612"
    },
    {
      "channel": 0,
      "note": 82,
      "start": 63.2754,
      "duration": 0.0803,
      "velocity": 93,
      "chip": "ym2612"
    },
    {
      "channel": 0,
      "note": 79,
      "start": 63.3557,
      "duration": 0.0013,
      "velocity": 93,
      "chip": "ym2612"
    },
    {
      "channel": 1,
      "note": 67,
      "start": 63.3558,
      "duration": 0.0023,
      "velocity": 99,
      "chip": "ym2612"
    },
    {
      "channel": 2,
      "note": 72,
      "start": 63.3559,
      "duration": 0.1686,
      "velocity": 127,
      "chip": "ym2612"
    },
    {
      "channel": 4,
      "note": 48,
      "start": 63.356,
      "duration": 0.1686,
      "velocity": 93,
      "chip": "ym2612"
    },
    {
      "channel": 0,
      "note": 75,
      "start": 63.357,
      "duration": 0.001,
      "velocity": 93,
      "chip": "ym2612"
    },
    {
      "channel": 0,
      "note": 74,
      "start": 63.3581,
      "duration": 0.0861,
      "velocity": 93,
      "chip": "ym2612"
    },
    {
      "channel": 1,
      "note": 60,
      "start": 63.3582,
      "duration": 0.1662,
      "velocity": 99,
      "chip": "ym2612"
    },
    {
      "channel": 0,
      "note": 75,
      "start": 63.4442,
      "duration": 0.0801,
      "velocity": 93,
      "chip": "ym2612"
    },
    {
      "channel": 0,
      "note": 79,
      "start": 63.5244,
      "duration": 0.0798,
      "velocity": 93,
      "chip": "ym2612"
    },
    {
      "channel": 1,
      "note": 65,
      "start": 63.5244,
      "duration": 0.1598,
      "velocity": 99,
      "chip": "ym2612"
    },
    {
      "channel": 2,
      "note": 74,
      "start": 63.5245,
      "duration": 0.3401,
      "velocity": 127,
      "chip": "ym2612"
    },
    {
      "channel": 4,
      "note": 50,
      "start": 63.5246,
      "duration": 0.3401,
      "velocity": 93,
      "chip": "ym2612"
    },
    {
      "channel": 0,
      "note": 82,
      "start": 63.6042,
      "duration": 0.0799,
      "velocity": 93,
      "chip": "ym2612"
    },
    {
      "channel": 0,
      "note": 86,
      "start": 63.6842,
      "duration": 0.0999,
      "velocity": 93,
      "chip": "ym2612"
    },
    {
      "channel": 1,
      "note": 67,
      "start": 63.6843,
      "duration": 0.1802,
      "velocity": 99,
      "chip": "ym2612"
    },
    {
      "channel": 0,
      "note": 87,
      "start": 63.7842,
      "duration": 0.0802,
      "velocity": 93,
      "chip": "ym2612"
    },
    {
      "channel": 0,
      "note": 86,
      "start": 63.8644,
      "duration": 0.0013,
      "velocity": 93,
      "chip": "ym2612"
    },
    {
      "channel": 1,
      "note": 55,
      "start": 63.8646,
      "duration": 0.0368,
      "velocity": 99,
      "chip": "ym2612"
    },
    {
      "channel": 2,
      "note": 75,
      "start": 63.8646,
      "duration": 0.2169,
      "velocity": 127,
      "chip": "ym2612"
    },
    {
      "channel": 4,
      "note": 51,
      "start": 63.8647,
      "duration": 0.2168,
      "velocity": 93,
      "chip": "ym2612"
    },
    {
      "channel": 0,
      "note": 82,
      "start": 63.8657,
      "duration": 0.0355,
      "velocity": 93,
      "chip": "ym2612"
    },
    {
      "channel": 0,
      "note": 79,
      "start": 63.9013,
      "duration": 0.0399,
      "velocity": 93,
      "chip": "ym2612"
    },
    {
      "channel": 1,
      "note": 60,
      "start": 63.9014,
      "duration": 0.18,
      "velocity": 99,
      "chip": "ym2612"
    },
    {
      "channel": 0,
      "note": 79,
      "start": 63.9412,
      "duration": 0.0399,
      "velocity": 93,
      "chip": "ym2612"
    },
    {
      "channel": 0,
      "note": 75,
      "start": 63.9812,
      "duration": 0.0599,
      "velocity": 93,
      "chip": "ym2612"
    },
    {
      "channel": 0,
      "note": 74,
      "start": 64.0814,
      "duration": 0.0798,
      "velocity": 93,
      "chip": "ym2612"
    },
    {
      "channel": 1,
      "note": 62,
      "start": 64.0814,
      "duration": 0.1598,
      "velocity": 99,
      "chip": "ym2612"
    },
    {
      "channel": 2,
      "note": 77,
      "start": 64.0815,
      "duration": 0.34,
      "velocity": 127,
      "chip": "ym2612"
    },
    {
      "channel": 4,
      "note": 53,
      "start": 64.0816,
      "duration": 0.34,
      "velocity": 93,
      "chip": "ym2612"
    },
    {
      "channel": 0,
      "note": 75,
      "start": 64.1612,
      "duration": 0.08,
      "velocity": 93,
      "chip": "ym2612"
    },
    {
      "channel": 0,
      "note": 79,
      "start": 64.2412,
      "duration": 0.0799,
      "velocity": 93,
      "chip": "ym2612"
    },
    {
      "channel": 1,
      "note": 65,
      "start": 64.2413,
      "duration": 0.1801,
      "velocity": 99,
      "chip": "ym2612"
    },
    {
      "channel": 0,
      "note": 82,
      "start": 64.3212,
      "duration": 0.1001,
      "velocity": 93,
      "chip": "ym2612"
    },
    {
      "channel": 0,
      "note": 86,
      "start": 64.4214,
      "duration": 0.0013,
      "velocity": 93,
      "chip": "ym2612"
    },
    {
      "channel": 1,
      "note": 67,
      "start": 64.4215,
      "duration": 0.0024,
      "velocity": 99,
      "chip": "ym2612"
    },
    {
      "channel": 2,
      "note": 79,
      "start": 64.4216,
      "duration": 0.1688,
      "velocity": 127,
      "chip": "ym2612"
    },
    {
      "channel": 4,
      "note": 55,
      "start": 64.4217,
      "duration": 0.1687,
      "velocity": 93,
      "chip": "ym2612"
    },
    {
      "channel": 0,
      "note": 87,
      "start": 64.4228,
      "duration": 0.001,
      "velocity": 93,
      "chip": "ym2612"
    },
    {
      "channel": 0,
      "note": 86,
      "start": 64.4239,
      "duration": 0.0661,
      "velocity": 93,
      "chip": "ym2612"
    },
    {
      "channel": 1,
      "note": 60,
      "start": 64.4239,
      "duration": 0.1664,
      "velocity": 99,
      "chip": "ym2612"
    },
    {
      "channel": 0,
      "note": 82,
      "start": 64.49,
      "duration": 0.1002,
      "velocity": 93,
      "chip": "ym2612"
    },
    {
      "channel": 0,
      "note": 79,
      "start": 64.5902,
      "duration": 0.0798,
      "velocity": 93,
      "chip": "ym2612"
    },
    {
      "channel": 1,
      "note": 65,
      "start": 64.5903,
      "duration": 0.1598,
      "velocity": 99,
      "chip": "ym2612"
    },
    {
      "channel": 2,
      "note": 82,
      "start": 64.5904,
      "duration": 0.34,
      "velocity": 127,
      "chip": "ym2612"
    },
    {
      "channel": 4,
      "note": 58,
      "start": 64.5905,
      "duration": 0.34,
      "velocity": 93,
      "chip": "ym2612"
    },
    {
      "channel": 0,
      "note": 75,
      "start": 64.67,
      "duration": 0.0801,
      "velocity": 93,
      "chip": "ym2612"
    },
    {
      "channel": 0,
      "note": 74,
      "start": 64.7501,
      "duration": 0.0799,
      "velocity": 93,
      "chip": "ym2612"
    },
    {
      "channel": 1,
      "note": 67,
      "start": 64.7502,
      "duration": 0.1801,
      "velocity": 99,
      "chip": "ym2612"
    },
    {
      "channel": 3,
      "note": 48,
      "start": 64.7503,
      "duration": 0.1801,
      "velocity": 95,
      "chip": "ym2612"
    },
    {
      "channel": 0,
      "note": 75,
      "start": 64.83,
      "duration": 0.1002,
      "velocity": 93,
      "chip": "ym2612"
    },
    {
      "channel": 0,
      "note": 76,
      "start": 64.9303,
      "duration": 0.0013,
      "velocity": 93,
      "chip": "ym2612"
    },
    {
      "channel": 1,
      "note": 57,
      "start": 64.9304,
      "duration": 0.0367,
      "velocity": 99,
      "chip": "ym2612"
    },
    {
      "channel": 2,
      "note": 84,
      "start": 64.9304,
      "duration": 0.2168,
      "velocity": 127,
      "chip": "ym2612"
    },
    {
      "channel": 3,
      "note": 50,
      "start": 64.9305,
      "duration": 1.831,
      "velocity": 95,
      "chip": "ym2612"
    },
    {
      "channel": 4,
      "note": 60,
      "start": 64.9305,
      "duration": 0.2168,
      "velocity": 93,
      "chip": "ym2612"
    },
    {
      "channel": 0,
      "note": 77,
      "start": 64.9316,
      "duration": 0.0354,
      "velocity": 93,
      "chip": "ym2612"
    },
    {
      "channel": 0,
      "note": 81,
      "start": 64.9671,
      "duration": 0.0799,
      "velocity": 93,
      "chip": "ym2612"
    },
    {
      "channel": 1,
      "note": 62,
      "start": 64.9671,
      "duration": 0.18,
      "velocity": 99,
      "chip": "ym2612"
    },
    {
      "channel": 0,
      "note": 84,
      "start": 65.0469,
      "duration": 0.1001,
      "velocity": 93,
      "chip": "ym2612"
    },
    {
      "channel": 0,
      "note": 88,
      "start": 65.1471,
      "duration": 0.0798,
      "velocity": 93,
      "chip": "ym2612"
    },
    {
      "channel": 1,
      "note": 64,
      "start": 65.1472,
      "duration": 0.1598,
      "velocity": 99,
      "chip": "ym2612"
    },
    {
      "channel": 2,
      "note": 81,
      "start": 65.1473,
      "duration": 0.3401,
      "velocity": 127,
      "chip": "ym2612"
    },
    {
      "channel": 4,
      "note": 57,
      "start": 65.1474,
      "duration": 0.3401,
      "velocity": 93,
      "chip": "ym2612"
    },
    {
      "channel": 0,
      "note": 89,
      "start": 65.2269,
      "duration": 0.08,
      "velocity": 93,
      "chip": "ym2612"
    },
    {
      "channel": 0,
      "note": 88,
      "start": 65.307,
      "duration": 0.0799,
      "velocity": 93,
      "chip": "ym2612"
    },
    {
      "channel": 1,
      "note": 67,
      "start": 65.3071,
      "duration": 0.1802,
      "velocity": 99,
      "chip": "ym2612"
    },
    {
      "channel": 0,
      "note": 84,
      "start": 65.3869,
      "duration": 0.1003,
      "velocity": 93,
      "chip": "ym2612"
    },
    {
      "channel": 0,
      "note": 81,
      "start": 65.4873,
      "duration": 0.0013,
      "velocity": 93,
      "chip": "ym2612"
    },
    {
      "channel": 1,
      "note": 69,
      "start": 65.4873,
      "duration": 0.0023,
      "velocity": 99,
      "chip": "ym2612"
    },
    {
      "channel": 2,
      "note": 77,
      "start": 65.4874,
      "duration": 0.1687,
      "velocity": 127,
      "chip": "ym2612"
    },
    {
      "channel": 4,
      "note": 53,
      "start": 65.4875,
      "duration": 0.1687,
      "velocity": 93,
      "chip": "ym2612"
    },
    {
      "channel": 0,
      "note": 77,
      "start": 65.4886,
      "duration": 0.001,
      "velocity": 93,
      "chip": "ym2612"
    },
    {
      "channel": 0,
      "note": 76,
      "start": 65.4897,
      "duration": 0.0661,
      "velocity": 93,
      "chip": "ym2612"
    },
    {
      "channel": 1,
      "note": 62,
      "start": 65.4897,
      "duration": 0.1663,
      "velocity": 99,
      "chip": "ym2612"
    },
    {
      "channel": 0,
      "note": 77,
      "start": 65.5557,
      "duration": 0.1002,
      "velocity": 93,
      "chip": "ym2612"
    },
    {
      "channel": 0,
      "note": 81,
      "start": 65.6559,
      "duration": 0.0798,
      "velocity": 93,
      "chip": "ym2612"
    },
    {
      "channel": 1,
      "note": 67,
      "start": 65.656,
      "duration": 0.16,
      "velocity": 99,
      "chip": "ym2612"
    },
    {
      "channel": 2,
      "note": 74,
      "start": 65.6561,
      "duration": 0.2169,
      "velocity": 127,
      "chip": "ym2612"
    },
    {
      "channel": 4,
      "note": 50,
      "start": 65.6563,
      "duration": 0.2169,
      "velocity": 93,
      "chip": "ym2612"
    },
    {
      "channel": 0,
      "note": 84,
      "start": 65.7357,
      "duration": 0.0801,
      "velocity": 93,
      "chip": "ym2612"
    },
    {
      "channel": 0,
      "note": 88,
      "start": 65.8159,
      "duration": 0.0012,
      "velocity": 93,
      "chip": "ym2612"
    },
    {
      "channel": 1,
      "note": 69,
      "start": 65.816,
      "duration": 0.057,
      "velocity": 99,
      "chip": "ym2612"
    },
    {
      "channel": 0,
      "note": 89,
      "start": 65.8171,
      "duration": 0.0558,
      "velocity": 93,
      "chip": "ym2612"
    },
    {
      "channel": 0,
      "note": 88,
      "start": 65.8729,
      "duration": 0.0798,
      "velocity": 93,
      "chip": "ym2612"
    },
    {
      "channel": 1,
      "note": 57,
      "start": 65.873,
      "duration": 0.1598,
      "velocity": 99,
      "chip": "ym2612"
    },
    {
      "channel": 2,
      "note": 72,
      "start": 65.8731,
      "duration": 0.3399,
      "velocity": 127,
      "chip": "ym2612"
    },
    {
      "channel": 4,
      "note": 48,
      "start": 65.8732,
      "duration": 0.3399,
      "velocity": 93,
      "chip": "ym2612"
    },
    {
      "channel": 0,
      "note": 84,
      "start": 65.9527,
      "duration": 0.08,
      "velocity": 93,
      "chip": "ym2612"
    },
    {
      "channel": 0,
      "note": 81,
      "start": 66.0328,
      "duration": 0.02,
      "velocity": 93,
      "chip": "ym2612"
    },
    {
      "channel": 1,
      "note": 62,
      "start": 66.0329,
      "duration": 0.1801,
      "velocity": 99,
      "chip": "ym2612"
    },
    {
      "channel": 0,
      "note": 81,
      "start": 66.0528,
      "duration": 0.0599,
      "velocity": 93,
      "chip": "ym2612"
    },
    {
      "channel": 0,
      "note": 77,
      "start": 66.1128,
      "duration": 0.0599,
      "velocity": 93,
      "chip": "ym2612"
    },
    {
      "channel": 0,
      "note": 76,
      "start": 66.2129,
      "duration": 0.0798,
      "velocity": 93,
      "chip": "ym2612"
    },
    {
      "channel": 1,
      "note": 64,
      "start": 66.213,
      "duration": 0.1397,
      "velocity": 99,
      "chip": "ym2612"
    },
    {
      "channel": 2,
      "note": 74,
      "start": 66.213,
      "duration": 0.1971,
      "velocity": 127,
      "chip": "ym2612"
    },
    {
      "channel": 4,
      "note": 50,
      "start": 66.2132,
      "duration": 0.1971,
      "velocity": 93,
      "chip": "ym2612"
    },
    {
      "channel": 0,
      "note": 77,
      "start": 66.2927,
      "duration": 0.0801,
      "velocity": 93,
      "chip": "ym2612"
    },
    {
      "channel": 0,
      "note": 81,
      "start": 66.3729,
      "duration": 0.0011,
      "velocity": 93,
      "chip": "ym2612"
    },
    {
      "channel": 1,
      "note": 67,
      "start": 66.373,
      "duration": 0.0371,
      "velocity": 99,
      "chip": "ym2612"
    },
    {
      "channel": 0,
      "note": 84,
      "start": 66.3741,
      "duration": 0.0359,
      "velocity": 93,
      "chip": "ym2612"
    },
    {
      "channel": 0,
      "note": 88,
      "start": 66.41,
      "duration": 0.0016,
      "velocity": 93,
      "chip": "ym2612"
    },
    {
      "channel": 1,
      "note": 69,
      "start": 66.41,
      "duration": 0.0088,
      "velocity": 99,
      "chip": "ym2612"
    },
    {
      "channel": 2,
      "note": 76,
      "start": 66.4102,
      "duration": 0.1485,
      "velocity": 127,
      "chip": "ym2612"
    },
    {
      "channel": 4,
      "note": 52,
      "start": 66.4103,
      "duration": 0.1484,
      "velocity": 93,
      "chip": "ym2612"
    },
    {
      "channel": 0,
      "note": 89,
      "start": 66.4116,
      "duration": 0.0071,
      "velocity": 93,
      "chip": "ym2612"
    },
    {
      "channel": 0,
      "note": 88,
      "start": 66.4188,
      "duration": 0.0799,
      "velocity": 93,
      "chip": "ym2612"
    },
    {
      "channel": 1,
      "note": 62,
      "start": 66.4189,
      "duration": 0.16,
      "velocity": 99,
      "chip": "ym2612"
    },
    {
      "channel": 0,
      "note": 84,
      "start": 66.4987,
      "duration": 0.0801,
      "velocity": 93,
      "chip": "ym2612"
    },
    {
      "channel": 0,
      "note": 81,
      "start": 66.5789,
      "duration": 0.0998,
      "velocity": 93,
      "chip": "ym2612"
    },
    {
      "channel": 1,
      "note": 67,
      "start": 66.5789,
      "duration": 0.18,
      "velocity": 99,
      "chip": "ym2612"
    },
    {
      "channel": 2,
      "note": 77,
      "start": 66.579,
      "duration": 0.1824,
      "velocity": 127,
      "chip": "ym2612"
    },
    {
      "channel": 4,
      "note": 53,
      "start": 66.5791,
      "duration": 0.1824,
      "velocity": 93,
      "chip": "ym2612"
    },
    {
      "channel": 0,
      "note": 77,
      "start": 66.6787,
      "duration": 0.0801,
      "velocity": 93,
      "chip": "ym2612"
    },
    {
      "channel": 0,
      "note": 76,
      "start": 66.7589,
      "duration": 0.0012,
      "velocity": 93,
      "chip": "ym2612"
    },
    {
      "channel": 1,
      "note": 69,
      "start": 66.7589,
      "duration": 0.002,
      "velocity": 99,
      "chip": "ym2612"
    },
    {
      "channel": 0,
      "note": 77,
      "start": 66.76,
      "duration": 0.0013,
      "velocity": 93,
      "chip": "ym2612"
    },
    {
      "channel": 0,
      "note": 71,
      "start": 66.7613,
      "duration": 0.0015,
      "velocity": 93,
      "chip": "ym2612"
    },
    {
      "channel": 1,
      "note": 45,
      "start": 66.7614,
      "duration": 0.0566,
      "velocity": 99,
      "chip": "ym2612"
    },
    {
      "channel": 2,
      "note": 76,
      "start": 66.7614,
      "duration": 0.5567,
      "velocity": 127,
      "chip": "ym2612"
    },
    {
      "channel": 3,
      "note": 45,
      "start": 66.7615,
      "duration": 1.8478,
      "velocity": 95,
      "chip": "ym2612"
    },
    {
      "channel": 4,
      "note": 52,
      "start": 66.7616,
      "duration": 0.5567,
      "velocity": 93,
      "chip": "ym2612"
    },
    {
      "channel": 0,
      "note": 72,
      "start": 66.7628,
      "duration": 0.055,
      "velocity": 93,
      "chip": "ym2612"
    },
    {
      "channel": 0,
      "note": 76,
      "start": 66.8179,
      "duration": 0.0799,
      "velocity": 93,
      "chip": "ym2612"
    },
    {
      "channel": 1,
      "note": 52,
      "start": 66.818,
      "duration": 0.16,
      "velocity": 99,
      "chip": "ym2612"
    },
    {
      "channel": 0,
      "note": 79,
      "start": 66.8978,
      "duration": 0.0801,
      "velocity": 93,
      "chip": "ym2612"
    },
    {
      "channel": 0,
      "note": 83,
      "start": 66.978,
      "duration": 0.0999,
      "velocity": 93,
      "chip": "ym2612"
    },
    {
      "channel": 1,
      "note": 57,
      "start": 66.978,
      "duration": 0.1799,
      "velocity": 99,
      "chip": "ym2612"
    },
    {
      "channel": 0,
      "note": 84,
      "start": 67.0778,
      "duration": 0.08,
      "velocity": 93,
      "chip": "ym2612"
    },
    {
      "channel": 0,
      "note": 83,
      "start": 67.1579,
      "duration": 0.0799,
      "velocity": 93,
      "chip": "ym2612"
    },
    {
      "channel": 1,
      "note": 62,
      "start": 67.158,
      "duration": 0.1601,
      "velocity": 99,
      "chip": "ym2612"
    },
    {
      "channel": 0,
      "note": 79,
      "start": 67.2379,
      "duration": 0.0801,
      "velocity": 93,
      "chip": "ym2612"
    },
    {
      "channel": 0,
      "note": 76,
      "start": 67.3181,
      "duration": 0.0015,
      "velocity": 93,
      "chip": "ym2612"
    },
    {
      "channel": 1,
      "note": 64,
      "start": 67.3182,
      "duration": 0.0085,
      "velocity": 99,
      "chip": "ym2612"
    },
    {
      "channel": 2,
      "note": 76,
      "start": 67.3182,
      "duration": 0.5089,
      "velocity": 127,
      "chip": "ym2612"
    },
    {
      "channel": 4,
      "note": 52,
      "start": 67.3184,
      "duration": 0.5088,
      "velocity": 93,
      "chip": "ym2612"
    },
    {
      "channel": 0,
      "note": 72,
      "start": 67.3196,
      "duration": 0.007,
      "velocity": 93,
      "chip": "ym2612"
    },
    {
      "channel": 0,
      "note": 71,
      "start": 67.3267,
      "duration": 0.0799,
      "velocity": 93,
      "chip": "ym2612"
    },
    {
      "channel": 1,
      "note": 57,
      "start": 67.3268,
      "duration": 0.1599,
      "velocity": 99,
      "chip": "ym2612"
    },
    {
      "channel": 0,
      "note": 72,
      "start": 67.4066,
      "duration": 0.08,
      "velocity": 93,
      "chip": "ym2612"
    },
    {
      "channel": 0,
      "note": 76,
      "start": 67.4867,
      "duration": 0.0999,
      "velocity": 93,
      "chip": "ym2612"
    },
    {
      "channel": 1,
      "note": 62,
      "start": 67.4868,
      "duration": 0.18,
      "velocity": 99,
      "chip": "ym2612"
    },
    {
      "channel": 0,
      "note": 79,
      "start": 67.5866,
      "duration": 0.0801,
      "velocity": 93,
      "chip": "ym2612"
    },
    {
      "channel": 0,
      "note": 83,
      "start": 67.6668,
      "duration": 0.0799,
      "velocity": 93,
      "chip": "ym2612"
    },
    {
      "channel": 1,
      "note": 64,
      "start": 67.6668,
      "duration": 0.1602,
      "velocity": 99,
      "chip": "ym2612"
    },
    {
      "channel": 0,
      "note": 84,
      "start": 67.7466,
      "duration": 0.0803,
      "velocity": 93,
      "chip": "ym2612"
    },
    {
      "channel": 0,
      "note": 83,
      "start": 67.827,
      "duration": 0.0015,
      "velocity": 93,
      "chip": "ym2612"
    },
    {
      "channel": 1,
      "note": 45,
      "start": 67.827,
      "duration": 0.0568,
      "velocity": 99,
      "chip": "ym2612"
    },
    {
      "channel": 2,
      "note": 83,
      "start": 67.8271,
      "duration": 0.0568,
      "velocity": 127,
      "chip": "ym2612"
    },
    {
      "channel": 4,
      "note": 59,
      "start": 67.8272,
      "duration": 0.0568,
      "velocity": 93,
      "chip": "ym2612"
    },
    {
      "channel": 0,
      "note": 79,
      "start": 67.8286,
      "duration": 0.0552,
      "velocity": 93,
      "chip": "ym2612"
    },
    {
      "channel": 0,
      "note": 76,
      "start": 67.8838,
      "duration": 0.0199,
      "velocity": 93,
      "chip": "ym2612"
    },
    {
      "channel": 1,
      "note": 52,
      "start": 67.8839,
      "duration": 0.16,
      "velocity": 99,
      "chip": "ym2612"
    },
    {
      "channel": 2,
      "note": 84,
      "start": 67.8839,
      "duration": 0.16,
      "velocity": 127,
      "chip": "ym2612"
    },
    {
      "channel": 4,
      "note": 60,
      "start": 67.8841,
      "duration": 0.16,
      "velocity": 93,
      "chip": "ym2612"
    },
    {
      "channel": 0,
      "note": 76,
      "start": 67.9037,
      "duration": 0.0599,
      "velocity": 93,
      "chip": "ym2612"
    },
    {
      "channel": 0,
      "note": 72,
      "start": 67.9637,
      "duration": 0.0599,
      "velocity": 93,
      "chip": "ym2612"
    },
    {
      "channel": 0,
      "note": 71,
      "start": 68.0439,
      "duration": 0.0998,
      "velocity": 93,
      "chip": "ym2612"
    },
    {
      "channel": 1,
      "note": 57,
      "start": 68.0439,
      "duration": 0.1798,
      "velocity": 99,
      "chip": "ym2612"
    },
    {
      "channel": 2,
      "note": 83,
      "start": 68.044,
      "duration": 0.3855,
      "velocity": 127,
      "chip": "ym2612"
    },
    {
      "channel": 4,
      "note": 59,
      "start": 68.0441,
      "duration": 0.3855,
      "velocity": 93,
      "chip": "ym2612"
    },
    {
      "channel": 0,
      "note": 72,
      "start": 68.1436,
      "duration": 0.0801,
      "velocity": 93,
      "chip": "ym2612"
    },
    {
      "channel": 0,
      "note": 76,
      "start": 68.2237,
      "duration": 0.0012,
      "velocity": 93,
      "chip": "ym2612"
    },
    {
      "channel": 1,
      "note": 62,
      "start": 68.2238,
      "duration": 0.0369,
      "velocity": 99,
      "chip": "ym2612"
    },
    {
      "channel": 0,
      "note": 79,
      "start": 68.2249,
      "duration": 0.0357,
      "velocity": 93,
      "chip": "ym2612"
    },
    {
      "channel": 0,
      "note": 83,
      "start": 68.2607,
      "duration": 0.0013,
      "velocity": 93,
      "chip": "ym2612"
    },
    {
      "channel": 1,
      "note": 64,
      "start": 68.2607,
      "duration": 0.0085,
      "velocity": 99,
      "chip": "ym2612"
    },
    {
      "channel": 0,
      "note": 84,
      "start": 68.262,
      "duration": 0.0071,
      "velocity": 93,
      "chip": "ym2612"
    },
    {
      "channel": 0,
      "note": 83,
      "start": 68.2692,
      "duration": 0.0799,
      "velocity": 93,
      "chip": "ym2612"
    },
    {
      "channel": 1,
      "note": 62,
      "start": 68.2693,
      "duration": 0.1601,
      "velocity": 99,
      "chip": "ym2612"
    },
    {
      "channel": 0,
      "note": 79,
      "start": 68.3492,
      "duration": 0.0801,
      "velocity": 93,
      "chip": "ym2612"
    },
    {
      "channel": 0,
      "note": 76,
      "start": 68.4294,
      "duration": 0.0798,
      "velocity": 93,
      "chip": "ym2612"
    },
    {
      "channel": 1,
      "note": 57,
      "start": 68.4295,
      "duration": 0.1799,
      "velocity": 99,
      "chip": "ym2612"
    },
    {
      "channel": 2,
      "note": 79,
      "start": 68.4295,
      "duration": 0.3401,
      "velocity": 127,
      "chip": "ym2612"
    },
    {
      "channel": 4,
      "note": 55,
      "start": 68.4297,
      "duration": 0.3401,
      "velocity": 93,
      "chip": "ym2612"
    },
    {
      "channel": 0,
      "note": 72,
      "start": 68.5091,
      "duration": 0.1001,
      "velocity": 93,
      "chip": "ym2612"
    },
    {
      "channel": 0,
      "note": 71,
      "start": 68.6093,
      "duration": 0.0799,
      "velocity": 93,
      "chip": "ym2612"
    },
    {
      "channel": 1,
      "note": 52,
      "start": 68.6094,
      "duration": 0.1602,
      "velocity": 99,
      "chip": "ym2612"
    },
    {
      "channel": 3,
      "note": 52,
      "start": 68.6095,
      "duration": 0.0799,
      "velocity": 95,
      "chip": "ym2612"
    },
    {
      "channel": 0,
      "note": 72,
      "start": 68.6892,
      "duration": 0.0803,
      "velocity": 93,
      "chip": "ym2612"
    },
    {
      "channel": 3,
      "note": 55,
      "start": 68.6894,
      "duration": 0.0803,
      "velocity": 95,
      "chip": "ym2612"
    },
    {
      "channel": 0,
      "note": 73,
      "start": 68.7696,
      "duration": 0.0013,
      "velocity": 93,
      "chip": "ym2612"
    },
    {
      "channel": 1,
      "note": 45,
      "start": 68.7697,
      "duration": 0.0566,
      "velocity": 99,
      "chip": "ym2612"
    },
    {
      "channel": 2,
      "note": 81,
      "start": 68.7697,
      "duration": 1.6682,
      "velocity": 127,
      "chip": "ym2612"
    },
    {
      "channel": 3,
      "note": 57,
      "start": 68.7698,
      "duration": 2.0083,
      "velocity": 95,
      "chip": "ym2612"
    },
    {
      "channel": 4,
      "note": 57,
      "start": 68.7698,
      "duration": 1.6682,
      "velocity": 93,
      "chip": "ym2612"
    },
    {
      "channel": 0,
      "note": 74,
      "start": 68.7709,
      "duration": 0.0553,
      "velocity": 93,
      "chip": "ym2612"
    },
    {
      "channel": 0,
      "note": 78,
      "start": 68.8262,
      "duration": 0.0799,
      "velocity": 93,
      "chip": "ym2612"
    },
    {
      "channel": 1,
      "note": 52,
      "start": 68.8263,
      "duration": 0.16,
      "velocity": 99,
      "chip": "ym2612"
    },
    {
      "channel": 0,
      "note": 81,
      "start": 68.9062,
      "duration": 0.08,
      "velocity": 93,
      "chip": "ym2612"
    },
    {
      "channel": 0,
      "note": 85,
      "start": 68.9863,
      "duration": 0.0799,
      "velocity": 93,
      "chip": "ym2612"
    },
    {
      "channel": 1,
      "note": 57,
      "start": 68.9864,
      "duration": 0.1799,
      "velocity": 99,
      "chip": "ym2612"
    },
    {
      "channel": 0,
      "note": 86,
      "start": 69.0662,
      "duration": 0.1,
      "velocity": 93,
      "chip": "ym2612"
    },
    {
      "channel": 0,
      "note": 85,
      "start": 69.1662,
      "duration": 0.0799,
      "velocity": 93,
      "chip": "ym2612"
    },
    {
      "channel": 1,
      "note": 62,
      "start": 69.1663,
      "duration": 0.1601,
      "velocity": 99,
      "chip": "ym2612"
    },
    {
      "channel": 0,
      "note": 81,
      "start": 69.2462,
      "duration": 0.0801,
      "velocity": 93,
      "chip": "ym2612"
    },
    {
      "channel": 0,
      "note": 78,
      "start": 69.3264,
      "duration": 0.0012,
      "velocity": 93,
      "chip": "ym2612"
    },
    {
      "channel": 1,
      "note": 64,
      "start": 69.3264,
      "duration": 0.0086,
      "velocity": 99,
      "chip": "ym2612"
    },
    {
      "channel": 0,
      "note": 74,
      "start": 69.3275,
      "duration": 0.0074,
      "velocity": 93,
      "chip": "ym2612"
    },
    {
      "channel": 0,
      "note": 73,
      "start": 69.335,
      "duration": 0.0799,
      "velocity": 93,
      "chip": "ym2612"
    },
    {
      "channel": 1,
      "note": 57,
      "start": 69.3351,
      "duration": 0.1599,
      "velocity": 99,
      "chip": "ym2612"
    },
    {
      "channel": 0,
      "note": 74,
      "start": 69.4149,
      "duration": 0.08,
      "velocity": 93,
      "chip": "ym2612"
    },
    {
      "channel": 0,
      "note": 78,
      "start": 69.495,
      "duration": 0.0799,
      "velocity": 93,
      "chip": "ym2612"
    },
    {
      "channel": 1,
      "note": 62,
      "start": 69.4951,
      "duration": 0.1799,
      "velocity": 99,
      "chip": "ym2612"
    },
    {
      "channel": 0,
      "note": 81,
      "start": 69.575,
      "duration": 0.0999,
      "velocity": 93,
      "chip": "ym2612"
    },
    {
      "channel": 0,
      "note": 85,
      "start": 69.675,
      "duration": 0.0799,
      "velocity": 93,
      "chip": "ym2612"
    },
    {
      "channel": 1,
      "note": 64,
      "start": 69.6751,
      "duration": 0.1601,
      "velocity": 99,
      "chip": "ym2612"
    },
    {
      "channel": 0,
      "note": 86,
      "start": 69.7549,
      "duration": 0.0801,
      "velocity": 93,
      "chip": "ym2612"
    },
    {
      "channel": 0,
      "note": 85,
      "start": 69.8351,
      "duration": 0.0012,
      "velocity": 93,
      "chip": "ym2612"
    },
    {
      "channel": 1,
      "note": 45,
      "start": 69.8352,
      "duration": 0.0569,
      "velocity": 99,
      "chip": "ym2612"
    },
    {
      "channel": 0,
      "note": 81,
      "start": 69.8363,
      "duration": 0.0557,
      "velocity": 93,
      "chip": "ym2612"
    },
    {
      "channel": 0,
      "note": 78,
      "start": 69.8921,
      "duration": 0.0199,
      "velocity": 93,
      "chip": "ym2612"
    },
    {
      "channel": 1,
      "note": 52,
      "start": 69.8922,
      "duration": 0.1599,
      "velocity": 99,
      "chip": "ym2612"
    },
    {
      "channel": 0,
      "note": 78,
      "start": 69.912,
      "duration": 0.0599,
      "velocity": 93,
      "chip": "ym2612"
    },
    {
      "channel": 0,
      "note": 74,
      "start": 69.972,
      "duration": 0.0599,
      "velocity": 93,
      "chip": "ym2612"
    },
    {
      "channel": 0,
      "note": 73,
      "start": 70.0521,
      "duration": 0.0799,
      "velocity": 93,
      "chip": "ym2612"
    },
    {
      "channel": 1,
      "note": 57,
      "start": 70.0522,
      "duration": 0.1799,
      "velocity": 99,
      "chip": "ym2612"
    },
    {
      "channel": 0,
      "note": 74,
      "start": 70.132,
      "duration": 0.1001,
      "velocity": 93,
      "chip": "ym2612"
    },
    {
      "channel": 0,
      "note": 78,
      "start": 70.2321,
      "duration": 0.0011,
      "velocity": 93,
      "chip": "ym2612"
    },
    {
      "channel": 1,
      "note": 62,
      "start": 70.2322,
      "duration": 0.0368,
      "velocity": 99,
      "chip": "ym2612"
    },
    {
      "channel": 0,
      "note": 81,
      "start": 70.2332,
      "duration": 0.0356,
      "velocity": 93,
      "chip": "ym2612"
    },
    {
      "channel": 0,
      "note": 85,
      "start": 70.269,
      "duration": 0.0012,
      "velocity": 93,
      "chip": "ym2612"
    },
    {
      "channel": 1,
      "note": 64,
      "start": 70.269,
      "duration": 0.0086,
      "velocity": 99,
      "chip": "ym2612"
    },
    {
      "channel": 0,
      "note": 86,
      "start": 70.2702,
      "duration": 0.0074,
      "velocity": 93,
      "chip": "ym2612"
    },
    {
      "channel": 0,
      "note": 85,
      "start": 70.2776,
      "duration": 0.0799,
      "velocity": 93,
      "chip": "ym2612"
    },
    {
      "channel": 1,
      "note": 62,
      "start": 70.2777,
      "duration": 0.1602,
      "velocity": 99,
      "chip": "ym2612"
    },
    {
      "channel": 0,
      "note": 81,
      "start": 70.3576,
      "duration": 0.0802,
      "velocity": 93,
      "chip": "ym2612"
    },
    {
      "channel": 0,
      "note": 78,
      "start": 70.4378,
      "duration": 0.0798,
      "velocity": 93,
      "chip": "ym2612"
    },
    {
      "channel": 1,
      "note": 57,
      "start": 70.4379,
      "duration": 0.1799,
      "velocity": 99,
      "chip": "ym2612"
    },
    {
      "channel": 2,
      "note": 76,
      "start": 70.4379,
      "duration": 0.1799,
      "velocity": 127,
      "chip": "ym2612"
    },
    {
      "channel": 4,
      "note": 52,
      "start": 70.4381,
      "duration": 0.1799,
      "velocity": 93,
      "chip": "ym2612"
    },
    {
      "channel": 0,
      "note": 74,
      "start": 70.5176,
      "duration": 0.1002,
      "velocity": 93,
      "chip": "ym2612"
    },
    {
      "channel": 0,
      "note": 73,
      "start": 70.6178,
      "duration": 0.0798,
      "velocity": 93,
      "chip": "ym2612"
    },
    {
      "channel": 1,
      "note": 52,
      "start": 70.6179,
      "duration": 0.1601,
      "velocity": 99,
      "chip": "ym2612"
    },
    {
      "channel": 2,
      "note": 74,
      "start": 70.6179,
      "duration": 0.1601,
      "velocity": 127,
      "chip": "ym2612"
    },
    {
      "channel": 4,
      "note": 50,
      "start": 70.6181,
      "duration": 0.16,
      "velocity": 93,
      "chip": "ym2612"
    },
    {
      "channel": 0,
      "note": 74,
      "start": 70.6976,
      "duration": 0.0803,
      "velocity": 93,
      "chip": "ym2612"
    },
    {
      "channel": 0,
      "note": 71,
      "start": 70.7779,
      "duration": 0.0014,
      "velocity": 93,
      "chip": "ym2612"
    },
    {
      "channel": 1,
      "note": 45,
      "start": 70.7779,
      "duration": 0.0367,
      "velocity": 99,
      "chip": "ym2612"
    },
    {
      "channel": 2,
      "note": 76,
      "start": 70.778,
      "duration": 0.4366,
      "velocity": 127,
      "chip": "ym2612"
    },
    {
      "channel": 3,
      "note": 45,
      "start": 70.7781,
      "duration": 1.8284,
      "velocity": 95,
      "chip": "ym2612"
    },
    {
      "channel": 4,
      "note": 52,
      "start": 70.7782,
      "duration": 0.4365,
      "velocity": 93,
      "chip": "ym2612"
    },
    {
      "channel": 0,
      "note": 72,
      "start": 70.7792,
      "duration": 0.0354,
      "velocity": 93,
      "chip": "ym2612"
    },
    {
      "channel": 0,
      "note": 76,
      "start": 70.8146,
      "duration": 0.0999,
      "velocity": 93,
      "chip": "ym2612"
    },
    {
      "channel": 1,
      "note": 52,
      "start": 70.8147,
      "duration": 0.18,
      "velocity": 99,
      "chip": "ym2612"
    },
    {
      "channel": 0,
      "note": 79,
      "start": 70.9146,
      "duration": 0.0801,
      "velocity": 93,
      "chip": "ym2612"
    },
    {
      "channel": 0,
      "note": 83,
      "start": 70.9947,
      "duration": 0.0799,
      "velocity": 93,
      "chip": "ym2612"
    },
    {
      "channel": 1,
      "note": 57,
      "start": 70.9948,
      "duration": 0.1599,
      "velocity": 99,
      "chip": "ym2612"
    },
    {
      "channel": 0,
      "note": 84,
      "start": 71.0746,
      "duration": 0.08,
      "velocity": 93,
      "chip": "ym2612"
    },
    {
      "channel": 0,
      "note": 83,
      "start": 71.1546,
      "duration": 0.0998,
      "velocity": 93,
      "chip": "ym2612"
    },
    {
      "channel": 1,
      "note": 62,
      "start": 71.1547,
      "duration": 0.1801,
      "velocity": 99,
      "chip": "ym2612"
    },
    {
      "channel": 0,
      "note": 79,
      "start": 71.2545,
      "duration": 0.0803,
      "velocity": 93,
      "chip": "ym2612"
    },
    {
      "channel": 0,
      "note": 76,
      "start": 71.3348,
      "duration": 0.0013,
      "velocity": 93,
      "chip": "ym2612"
    },
    {
      "channel": 1,
      "note": 64,
      "start": 71.3349,
      "duration": 0.0024,
      "velocity": 99,
      "chip": "ym2612"
    },
    {
      "channel": 2,
      "note": 76,
      "start": 71.335,
      "duration": 0.3288,
      "velocity": 127,
      "chip": "ym2612"
    },
    {
      "channel": 4,
      "note": 52,
      "start": 71.3351,
      "duration": 0.3288,
      "velocity": 93,
      "chip": "ym2612"
    },
    {
      "channel": 0,
      "note": 72,
      "start": 71.3361,
      "duration": 0.0011,
      "velocity": 93,
      "chip": "ym2612"
    },
    {
      "channel": 0,
      "note": 71,
      "start": 71.3373,
      "duration": 0.0861,
      "velocity": 93,
      "chip": "ym2612"
    },
    {
      "channel": 1,
      "note": 57,
      "start": 71.3374,
      "duration": 0.1661,
      "velocity": 99,
      "chip": "ym2612"
    },
    {
      "channel": 0,
      "note": 72,
      "start": 71.4234,
      "duration": 0.08,
      "velocity": 93,
      "chip": "ym2612"
    },
    {
      "channel": 0,
      "note": 76,
      "start": 71.5035,
      "duration": 0.0799,
      "velocity": 93,
      "chip": "ym2612"
    },
    {
      "channel": 1,
      "note": 62,
      "start": 71.5036,
      "duration": 0.1602,
      "velocity": 99,
      "chip": "ym2612"
    },
    {
      "channel": 0,
      "note": 79,
      "start": 71.5834,
      "duration": 0.0802,
      "velocity": 93,
      "chip": "ym2612"
    },
    {
      "channel": 0,
      "note": 83,
      "start": 71.6637,
      "duration": 0.0998,
      "velocity": 93,
      "chip": "ym2612"
    },
    {
      "channel": 1,
      "note": 64,
      "start": 71.6637,
      "duration": 0.18,
      "velocity": 99,
      "chip": "ym2612"
    },
    {
      "channel": 2,
      "note": 83,
      "start": 71.6638,
      "duration": 0.18,
      "velocity": 127,
      "chip": "ym2612"
    },
    {
      "channel": 4,
      "note": 59,
      "start": 71.6639,
      "duration": 0.18,
      "velocity": 93,
      "chip": "ym2612"
    },
    {
      "channel": 0,
      "note": 84,
      "start": 71.7634,
      "duration": 0.0802,
      "velocity": 93,
      "chip": "ym2612"
    },
    {
      "channel": 0,
      "note": 83,
      "start": 71.8437,
      "duration": 0.0013,
      "velocity": 93,
      "chip": "ym2612"
    },
    {
      "channel": 1,
      "note": 45,
      "start": 71.8437,
      "duration": 0.0368,
      "velocity": 99,
      "chip": "ym2612"
    },
    {
      "channel": 2,
      "note": 83,
      "start": 71.8438,
      "duration": 0.0166,
      "velocity": 127,
      "chip": "ym2612"
    },
    {
      "channel": 4,
      "note": 59,
      "start": 71.844,
      "duration": 0.0165,
      "velocity": 93,
      "chip": "ym2612"
    },
    {
      "channel": 0,
      "note": 79,
      "start": 71.8451,
      "duration": 0.0354,
      "velocity": 93,
      "chip": "ym2612"
    },
    {
      "channel": 0,
      "note": 76,
      "start": 71.8806,
      "duration": 0.0399,
      "velocity": 93,
      "chip": "ym2612"
    },
    {
      "channel": 1,
      "note": 52,
      "start": 71.8806,
      "duration": 0.18,
      "velocity": 99,
      "chip": "ym2612"
    },
    {
      "channel": 2,
      "note": 84,
      "start": 71.8807,
      "duration": 0.18,
      "velocity": 127,
      "chip": "ym2612"
    },
    {
      "channel": 4,
      "note": 60,
      "start": 71.8808,
      "duration": 0.18,
      "velocity": 93,
      "chip": "ym2612"
    },
    {
      "channel": 0,
      "note": 76,
      "start": 71.9205,
      "duration": 0.0599,
      "velocity": 93,
      "chip": "ym2612"
    },
    {
      "channel": 0,
      "note": 72,
      "start": 71.9804,
      "duration": 0.0399,
      "velocity": 93,
      "chip": "ym2612"
    },
    {
      "channel": 0,
      "note": 71,
      "start": 72.0606,
      "duration": 0.0798,
      "velocity": 93,
      "chip": "ym2612"
    },
    {
      "channel": 1,
      "note": 57,
      "start": 72.0607,
      "duration": 0.1598,
      "velocity": 99,
      "chip": "ym2612"
    },
    {
      "channel": 2,
      "note": 86,
      "start": 72.0608,
      "duration": 0.3855,
      "velocity": 127,
      "chip": "ym2612"
    },
    {
      "channel": 4,
      "note": 62,
      "start": 72.0609,
      "duration": 0.3855,
      "velocity": 93,
      "chip": "ym2612"
    },
    {
      "channel": 0,
      "note": 72,
      "start": 72.1404,
      "duration": 0.0801,
      "velocity": 93,
      "chip": "ym2612"
    },
    {
      "channel": 0,
      "note": 76,
      "start": 72.2205,
      "duration": 0.0014,
      "velocity": 93,
      "chip": "ym2612"
    },
    {
      "channel": 1,
      "note": 62,
      "start": 72.2206,
      "duration": 0.0569,
      "velocity": 99,
      "chip": "ym2612"
    },
    {
      "channel": 0,
      "note": 79,
      "start": 72.2219,
      "duration": 0.0555,
      "velocity": 93,
      "chip": "ym2612"
    },
    {
      "channel": 0,
      "note": 83,
      "start": 72.2775,
      "duration": 0.0012,
      "velocity": 93,
      "chip": "ym2612"
    },
    {
      "channel": 1,
      "note": 64,
      "start": 72.2775,
      "duration": 0.0022,
      "velocity": 99,
      "chip": "ym2612"
    },
    {
      "channel": 0,
      "note": 84,
      "start": 72.2786,
      "duration": 0.001,
      "velocity": 93,
      "chip": "ym2612"
    },
    {
      "channel": 0,
      "note": 83,
      "start": 72.2797,
      "duration": 0.0863,
      "velocity": 93,
      "chip": "ym2612"
    },
    {
      "channel": 1,
      "note": 62,
      "start": 72.2798,
      "duration": 0.1665,
      "velocity": 99,
      "chip": "ym2612"
    },
    {
      "channel": 0,
      "note": 79,
      "start": 72.3661,
      "duration": 0.0801,
      "velocity": 93,
      "chip": "ym2612"
    },
    {
      "channel": 0,
      "note": 76,
      "start": 72.4462,
      "duration": 0.0798,
      "velocity": 93,
      "chip": "ym2612"
    },
    {
      "channel": 1,
      "note": 57,
      "start": 72.4463,
      "duration": 0.1601,
      "velocity": 99,
      "chip": "ym2612"
    },
    {
      "channel": 2,
      "note": 84,
      "start": 72.4463,
      "duration": 0.1601,
      "velocity": 127,
      "chip": "ym2612"
    },
    {
      "channel": 4,
      "note": 60,
      "start": 72.4465,
      "duration": 0.1601,
      "velocity": 93,
      "chip": "ym2612"
    },
    {
      "channel": 0,
      "note": 72,
      "start": 72.526,
      "duration": 0.0802,
      "velocity": 93,
      "chip": "ym2612"
    },
    {
      "channel": 0,
      "note": 71,
      "start": 72.6063,
      "duration": 0.0998,
      "velocity": 93,
      "chip": "ym2612"
    },
    {
      "channel": 1,
      "note": 52,
      "start": 72.6063,
      "duration": 0.1801,
      "velocity": 99,
      "chip": "ym2612"
    },
    {
      "channel": 2,
      "note": 83,
      "start": 72.6064,
      "duration": 0.1801,
      "velocity": 127,
      "chip": "ym2612"
    },
    {
      "channel": 3,
      "note": 50,
      "start": 72.6066,
      "duration": 0.0997,
      "velocity": 95,
      "chip": "ym2612"
    },
    {
      "channel": 4,
      "note": 59,
      "start": 72.6066,
      "duration": 0.18,
      "velocity": 93,
      "chip": "ym2612"
    },
    {
      "channel": 0,
      "note": 72,
      "start": 72.7061,
      "duration": 0.0802,
      "velocity": 93,
      "chip": "ym2612"
    },
    {
      "channel": 3,
      "note": 52,
      "start": 72.7063,
      "duration": 0.0803,
      "velocity": 95,
      "chip": "ym2612"
    },
    {
      "channel": 0,
      "note": 73,
      "start": 72.7864,
      "duration": 0.0013,
      "velocity": 93,
      "chip": "ym2612"
    },
    {
      "channel": 1,
      "note": 45,
      "start": 72.7865,
      "duration": 0.0366,
      "velocity": 99,
      "chip": "ym2612"
    },
    {
      "channel": 2,
      "note": 81,
      "start": 72.7866,
      "duration": 1.6681,
      "velocity": 127,
      "chip": "ym2612"
    },
    {
      "channel": 3,
      "note": 57,
      "start": 72.7866,
      "duration": 2.0082,
      "velocity": 95,
      "chip": "ym2612"
    },
    {
      "channel": 4,
      "note": 57,
      "start": 72.7867,
      "duration": 1.668,
      "velocity": 93,
      "chip": "ym2612"
    },
    {
      "channel": 0,
      "note": 74,
      "start": 72.7877,
      "duration": 0.0353,
      "velocity": 93,
      "chip": "ym2612"
    },
    {
      "channel": 0,
      "note": 78,
      "start": 72.8231,
      "duration": 0.0799,
      "velocity": 93,
      "chip": "ym2612"
    },
    {
      "channel": 1,
      "note": 52,
      "start": 72.8232,
      "duration": 0.18,
      "velocity": 99,
      "chip": "ym2612"
    },
    {
      "channel": 0,
      "note": 81,
      "start": 72.9031,
      "duration": 0.1,
      "velocity": 93,
      "chip": "ym2612"
    },
    {
      "channel": 0,
      "note": 85,
      "start": 73.0032,
      "duration": 0.0799,
      "velocity": 93,
      "chip": "ym2612"
    },
    {
      "channel": 1,
      "note": 57,
      "start": 73.0032,
      "duration": 0.1599,
      "velocity": 99,
      "chip": "ym2612"
    },
    {
      "channel": 0,
      "note": 86,
      "start": 73.083,
      "duration": 0.08,
      "velocity": 93,
      "chip": "ym2612"
    },
    {
      "channel": 0,
      "note": 85,
      "start": 73.1631,
      "duration": 0.0799,
      "velocity": 93,
      "chip": "ym2612"
    },
    {
      "channel": 1,
      "note": 62,
      "start": 73.1632,
      "duration": 0.1801,
      "velocity": 99,
      "chip": "ym2612"
    },
    {
      "channel": 0,
      "note": 81,
      "start": 73.243,
      "duration": 0.1001,
      "velocity": 93,
      "chip": "ym2612"
    },
    {
      "channel": 0,
      "note": 78,
      "start": 73.3432,
      "duration": 0.0011,
      "velocity": 93,
      "chip": "ym2612"
    },
    {
      "channel": 1,
      "note": 64,
      "start": 73.3433,
      "duration": 0.0021,
      "velocity": 99,
      "chip": "ym2612"
    },
    {
      "channel": 0,
      "note": 74,
      "start": 73.3443,
      "duration": 0.001,
      "velocity": 93,
      "chip": "ym2612"
    },
    {
      "channel": 0,
      "note": 73,
      "start": 73.3454,
      "duration": 0.0664,
      "velocity": 93,
      "chip": "ym2612"
    },
    {
      "channel": 1,
      "note": 57,
      "start": 73.3455,
      "duration": 0.1664,
      "velocity": 99,
      "chip": "ym2612"
    },
    {
      "channel": 0,
      "note": 74,
      "start": 73.4118,
      "duration": 0.1,
      "velocity": 93,
      "chip": "ym2612"
    },
    {
      "channel": 0,
      "note": 78,
      "start": 73.5118,
      "duration": 0.0799,
      "velocity": 93,
      "chip": "ym2612"
    },
    {
      "channel": 1,
      "note": 62,
      "start": 73.5119,
      "duration": 0.1599,
      "velocity": 99,
      "chip": "ym2612"
    },
    {
      "channel": 0,
      "note": 81,
      "start": 73.5918,
      "duration": 0.0799,
      "velocity": 93,
      "chip": "ym2612"
    },
    {
      "channel": 0,
      "note": 85,
      "start": 73.6718,
      "duration": 0.0799,
      "velocity": 93,
      "chip": "ym2612"
    },
    {
      "channel": 1,
      "note": 64,
      "start": 73.6719,
      "duration": 0.1801,
      "velocity": 99,
      "chip": "ym2612"
    },
    {
      "channel": 0,
      "note": 86,
      "start": 73.7518,
      "duration": 0.1001,
      "velocity": 93,
      "chip": "ym2612"
    },
    {
      "channel": 0,
      "note": 85,
      "start": 73.852,
      "duration": 0.0011,
      "velocity": 93,
      "chip": "ym2612"
    },
    {
      "channel": 1,
      "note": 45,
      "start": 73.852,
      "duration": 0.0368,
      "velocity": 99,
      "chip": "ym2612"
    },
    {
      "channel": 0,
      "note": 81,
      "start": 73.8531,
      "duration": 0.0357,
      "velocity": 93,
      "chip": "ym2612"
    },
    {
      "channel": 0,
      "note": 78,
      "start": 73.8889,
      "duration": 0.0399,
      "velocity": 93,
      "chip": "ym2612"
    },
    {
      "channel": 1,
      "note": 52,
      "start": 73.8889,
      "duration": 0.1799,
      "velocity": 99,
      "chip": "ym2612"
    },
    {
      "channel": 0,
      "note": 78,
      "start": 73.9288,
      "duration": 0.0399,
      "velocity": 93,
      "chip": "ym2612"
    },
    {
      "channel": 0,
      "note": 74,
      "start": 73.9687,
      "duration": 0.0599,
      "velocity": 93,
      "chip": "ym2612"
    },
    {
      "channel": 0,
      "note": 73,
      "start": 74.0689,
      "duration": 0.0799,
      "velocity": 93,
      "chip": "ym2612"
    },
    {
      "channel": 1,
      "note": 57,
      "start": 74.0689,
      "duration": 0.1599,
      "velocity": 99,
      "chip": "ym2612"
    },
    {
      "channel": 0,
      "note": 74,
      "start": 74.1487,
      "duration": 0.0801,
      "velocity": 93,
      "chip": "ym2612"
    },
    {
      "channel": 0,
      "note": 78,
      "start": 74.2289,
      "duration": 0.0011,
      "velocity": 93,
      "chip": "ym2612"
    },
    {
      "channel": 1,
      "note": 62,
      "start": 74.2289,
      "duration": 0.0569,
      "velocity": 99,
      "chip": "ym2612"
    },
    {
      "channel": 0,
      "note": 81,
      "start": 74.2301,
      "duration": 0.0557,
      "velocity": 93,
      "chip": "ym2612"
    },
    {
      "channel": 0,
      "note": 85,
      "start": 74.2859,
      "duration": 0.0012,
      "velocity": 93,
      "chip": "ym2612"
    },
    {
      "channel": 1,
      "note": 64,
      "start": 74.2859,
      "duration": 0.0022,
      "velocity": 99,
      "chip": "ym2612"
    },
    {
      "channel": 0,
      "note": 86,
      "start": 74.287,
      "duration": 0.001,
      "velocity": 93,
      "chip": "ym2612"
    },
    {
      "channel": 0,
      "note": 85,
      "start": 74.2881,
      "duration": 0.0663,
      "velocity": 93,
      "chip": "ym2612"
    },
    {
      "channel": 1,
      "note": 62,
      "start": 74.2882,
      "duration": 0.1664,
      "velocity": 99,
      "chip": "ym2612"
    },
    {
      "channel": 0,
      "note": 81,
      "start": 74.3544,
      "duration": 0.1001,
      "velocity": 93,
      "chip": "ym2612"
    },
    {
      "channel": 0,
      "note": 78,
      "start": 74.4545,
      "duration": 0.0798,
      "velocity": 93,
      "chip": "ym2612"
    },
    {
      "channel": 1,
      "note": 57,
      "start": 74.4546,
      "duration": 0.1599,
      "velocity": 99,
      "chip": "ym2612"
    },
    {
      "channel": 0,
      "note": 74,
      "start": 74.5344,
      "duration": 0.08,
      "velocity": 93,
      "chip": "ym2612"
    },
    {
      "channel": 0,
      "note": 73,
      "start": 74.6144,
      "duration": 0.0799,
      "velocity": 93,
      "chip": "ym2612"
    },
    {
      "channel": 1,
      "note": 52,
      "start": 74.6145,
      "duration": 0.1398,
      "velocity": 99,
      "chip": "ym2612"
    },
    {
      "channel": 0,
      "note": 74,
      "start": 74.6944,
      "duration": 0.1003,
      "velocity": 93,
      "chip": "ym2612"
    },
    {
      "channel": 0,
      "note": 68,
      "start": 74.7947,
      "duration": 0.0012,
      "velocity": 93,
      "chip": "ym2612"
    },
    {
      "channel": 2,
      "note": 80,
      "start": 74.7948,
      "duration": 0.7056,
      "velocity": 127,
      "chip": "ym2612"
    },
    {
      "channel": 3,
      "note": 45,
      "start": 74.7949,
      "duration": 1.8285,
      "velocity": 95,
      "chip": "ym2612"
    },
    {
      "channel": 4,
      "note": 56,
      "start": 74.7949,
      "duration": 0.7056,
      "velocity": 93,
      "chip": "ym2612"
    },
    {
      "channel": 0,
      "note": 69,
      "start": 74.796,
      "duration": 0.0354,
      "velocity": 93,
      "chip": "ym2612"
    },
    {
      "channel": 0,
      "note": 73,
      "start": 74.8314,
      "duration": 0.08,
      "velocity": 93,
      "chip": "ym2612"
    },
    {
      "channel": 0,
      "note": 76,
      "start": 74.9114,
      "duration": 0.1,
      "velocity": 93,
      "chip": "ym2612"
    },
    {
      "channel": 0,
      "note": 80,
      "start": 75.0114,
      "duration": 0.08,
      "velocity": 93,
      "chip": "ym2612"
    },
    {
      "channel": 0,
      "note": 81,
      "start": 75.0914,
      "duration": 0.0799,
      "velocity": 93,
      "chip": "ym2612"
    },
    {
      "channel": 0,
      "note": 80,
      "start": 75.1714,
      "duration": 0.0799,
      "velocity": 93,
      "chip": "ym2612"
    },
    {
      "channel": 0,
      "note": 76,
      "start": 75.2514,
      "duration": 0.0801,
      "velocity": 93,
      "chip": "ym2612"
    },
    {
      "channel": 0,
      "note": 73,
      "start": 75.3314,
      "duration": 0.0012,
      "velocity": 93,
      "chip": "ym2612"
    },
    {
      "channel": 0,
      "note": 69,
      "start": 75.3327,
      "duration": 0.0075,
      "velocity": 93,
      "chip": "ym2612"
    },
    {
      "channel": 0,
      "note": 68,
      "start": 75.3403,
      "duration": 0.0799,
      "velocity": 93,
      "chip": "ym2612"
    },
    {
      "channel": 0,
      "note": 69,
      "start": 75.4203,
      "duration": 0.0801,
      "velocity": 93,
      "chip": "ym2612"
    },
    {
      "channel": 0,
      "note": 73,
      "start": 75.5004,
      "duration": 0.0998,
      "velocity": 93,
      "chip": "ym2612"
    },
    {
      "channel": 2,
      "note": 81,
      "start": 75.5005,
      "duration": 0.34,
      "velocity": 127,
      "chip": "ym2612"
    },
    {
      "channel": 4,
      "note": 57,
      "start": 75.5006,
      "duration": 0.3401,
      "velocity": 93,
      "chip": "ym2612"
    },
    {
      "channel": 0,
      "note": 76,
      "start": 75.6002,
      "duration": 0.08,
      "velocity": 93,
      "chip": "ym2612"
    },
    {
      "channel": 0,
      "note": 80,
      "start": 75.6802,
      "duration": 0.08,
      "velocity": 93,
      "chip": "ym2612"
    },
    {
      "channel": 0,
      "note": 81,
      "start": 75.7603,
      "duration": 0.0802,
      "velocity": 93,
      "chip": "ym2612"
    },
    {
      "channel": 0,
      "note": 80,
      "start": 75.8405,
      "duration": 0.0014,
      "velocity": 93,
      "chip": "ym2612"
    },
    {
      "channel": 2,
      "note": 80,
      "start": 75.8406,
      "duration": 0.434,
      "velocity": 127,
      "chip": "ym2612"
    },
    {
      "channel": 4,
      "note": 56,
      "start": 75.8407,
      "duration": 0.4339,
      "velocity": 93,
      "chip": "ym2612"
    },
    {
      "channel": 0,
      "note": 76,
      "start": 75.8419,
      "duration": 0.0554,
      "velocity": 93,
      "chip": "ym2612"
    },
    {
      "channel": 0,
      "note": 73,
      "start": 75.8973,
      "duration": 0.08,
      "velocity": 93,
      "chip": "ym2612"
    },
    {
      "channel": 0,
      "note": 69,
      "start": 75.9773,
      "duration": 0.08,
      "velocity": 93,
      "chip": "ym2612"
    },
    {
      "channel": 0,
      "note": 68,
      "start": 76.0573,
      "duration": 0.0999,
      "velocity": 93,
      "chip": "ym2612"
    },
    {
      "channel": 0,
      "note": 69,
      "start": 76.1573,
      "duration": 0.08,
      "velocity": 93,
      "chip": "ym2612"
    },
    {
      "channel": 0,
      "note": 73,
      "start": 76.2373,
      "duration": 0.0011,
      "velocity": 93,
      "chip": "ym2612"
    },
    {
      "channel": 0,
      "note": 76,
      "start": 76.2385,
      "duration": 0.036,
      "velocity": 93,
      "chip": "ym2612"
    },
    {
      "channel": 0,
      "note": 80,
      "start": 76.2745,
      "duration": 0.0014,
      "velocity": 93,
      "chip": "ym2612"
    },
    {
      "channel": 2,
      "note": 76,
      "start": 76.2746,
      "duration": 0.509,
      "velocity": 127,
      "chip": "ym2612"
    },
    {
      "channel": 4,
      "note": 52,
      "start": 76.2747,
      "duration": 0.509,
      "velocity": 93,
      "chip": "ym2612"
    },
    {
      "channel": 0,
      "note": 81,
      "start": 76.2759,
      "duration": 0.0073,
      "velocity": 93,
      "chip": "ym2612"
    },
    {
      "channel": 0,
      "note": 80,
      "start": 76.2833,
      "duration": 0.0799,
      "velocity": 93,
      "chip": "ym2612"
    },
    {
      "channel": 0,
      "note": 76,
      "start": 76.3632,
      "duration": 0.08,
      "velocity": 93,
      "chip": "ym2612"
    },
    {
      "channel": 0,
      "note": 73,
      "start": 76.4432,
      "duration": 0.1,
      "velocity": 93,
      "chip": "ym2612"
    },
    {
      "channel": 0,
      "note": 69,
      "start": 76.5432,
      "duration": 0.0801,
      "velocity": 93,
      "chip": "ym2612"
    },
    {
      "channel": 0,
      "note": 68,
      "start": 76.6234,
      "duration": 0.0799,
      "velocity": 93,
      "chip": "ym2612"
    },
    {
      "channel": 3,
      "note": 52,
      "start": 76.6235,
      "duration": 0.1601,
      "velocity": 95,
      "chip": "ym2612"
    },
    {
      "channel": 0,
      "note": 69,
      "start": 76.7033,
      "duration": 0.0802,
      "velocity": 93,
      "chip": "ym2612"
    },
    {
      "channel": 0,
      "note": 69,
      "start": 76.7835,
      "duration": 0.0013,
      "velocity": 93,
      "chip": "ym2612"
    },
    {
      "channel": 2,
      "note": 78,
      "start": 76.7836,
      "duration": 0.5568,
      "velocity": 127,
      "chip": "ym2612"
    },
    {
      "channel": 3,
      "note": 57,
      "start": 76.7837,
      "duration": 1.8081,
      "velocity": 95,
      "chip": "ym2612"
    },
    {
      "channel": 4,
      "note": 54,
      "start": 76.7837,
      "duration": 0.5568,
      "velocity": 93,
      "chip": "ym2612"
    },
    {
      "channel": 0,
      "note": 71,
      "start": 76.7849,
      "duration": 0.0553,
      "velocity": 93,
      "chip": "ym2612"
    },
    {
      "channel": 0,
      "note": 75,
      "start": 76.8402,
      "duration": 0.08,
      "velocity": 93,
      "chip": "ym2612"
    },
    {
      "channel": 0,
      "note": 78,
      "start": 76.9202,
      "duration": 0.08,
      "velocity": 93,
      "chip": "ym2612"
    },
    {
      "channel": 0,
      "note": 83,
      "start": 77.0002,
      "duration": 0.0999,
      "velocity": 93,
      "chip": "ym2612"
    },
    {
      "channel": 0,
      "note": 85,
      "start": 77.1002,
      "duration": 0.08,
      "velocity": 93,
      "chip": "ym2612"
    },
    {
      "channel": 0,
      "note": 83,
      "start": 77.1802,
      "duration": 0.08,
      "velocity": 93,
      "chip": "ym2612"
    },
    {
      "channel": 0,
      "note": 78,
      "start": 77.2602,
      "duration": 0.0801,
      "velocity": 93,
      "chip": "ym2612"
    },
    {
      "channel": 0,
      "note": 75,
      "start": 77.3405,
      "duration": 0.0014,
      "velocity": 93,
      "chip": "ym2612"
    },
    {
      "channel": 2,
      "note": 83,
      "start": 77.3405,
      "duration": 0.9427,
      "velocity": 127,
      "chip": "ym2612"
    },
    {
      "channel": 4,
      "note": 59,
      "start": 77.3406,
      "duration": 0.9427,
      "velocity": 93,
      "chip": "ym2612"
    },
    {
      "channel": 0,
      "note": 71,
      "start": 77.3418,
      "duration": 0.0072,
      "velocity": 93,
      "chip": "ym2612"
    },
    {
      "channel": 0,
      "note": 69,
      "start": 77.3491,
      "duration": 0.0799,
      "velocity": 93,
      "chip": "ym2612"
    },
    {
      "channel": 0,
      "note": 71,
      "start": 77.429,
      "duration": 0.08,
      "velocity": 93,
      "chip": "ym2612"
    },
    {
      "channel": 0,
      "note": 75,
      "start": 77.509,
      "duration": 0.08,
      "velocity": 93,
      "chip": "ym2612"
    },
    {
      "channel": 0,
      "note": 78,
      "start": 77.589,
      "duration": 0.1,
      "velocity": 93,
      "chip": "ym2612"
    },
    {
      "channel": 0,
      "note": 83,
      "start": 77.6891,
      "duration": 0.0799,
      "velocity": 93,
      "chip": "ym2612"
    },
    {
      "channel": 0,
      "note": 85,
      "start": 77.769,
      "duration": 0.0801,
      "velocity": 93,
      "chip": "ym2612"
    },
    {
      "channel": 0,
      "note": 83,
      "start": 77.8491,
      "duration": 0.001,
      "velocity": 93,
      "chip": "ym2612"
    },
    {
      "channel": 0,
      "note": 78,
      "start": 77.8502,
      "duration": 0.0558,
      "velocity": 93,
      "chip": "ym2612"
    },
    {
      "channel": 0,
      "note": 75,
      "start": 77.906,
      "duration": 0.08,
      "velocity": 93,
      "chip": "ym2612"
    },
    {
      "channel": 0,
      "note": 71,
      "start": 77.986,
      "duration": 0.08,
      "velocity": 93,
      "chip": "ym2612"
    },
    {
      "channel": 0,
      "note": 69,
      "start": 78.066,
      "duration": 0.08,
      "velocity": 93,
      "chip": "ym2612"
    },
    {
      "channel": 0,
      "note": 71,
      "start": 78.146,
      "duration": 0.1001,
      "velocity": 93,
      "chip": "ym2612"
    },
    {
      "channel": 0,
      "note": 75,
      "start": 78.246,
      "duration": 0.0011,
      "velocity": 93,
      "chip": "ym2612"
    },
    {
      "channel": 0,
      "note": 78,
      "start": 78.2471,
      "duration": 0.0361,
      "velocity": 93,
      "chip": "ym2612"
    },
    {
      "channel": 0,
      "note": 83,
      "start": 78.2832,
      "duration": 0.0011,
      "velocity": 93,
      "chip": "ym2612"
    },
    {
      "channel": 2,
      "note": 83,
      "start": 78.2833,
      "duration": 0.1686,
      "velocity": 127,
      "chip": "ym2612"
    },
    {
      "channel": 4,
      "note": 59,
      "start": 78.2834,
      "duration": 0.1686,
      "velocity": 93,
      "chip": "ym2612"
    },
    {
      "channel": 0,
      "note": 85,
      "start": 78.2844,
      "duration": 0.0074,
      "velocity": 93,
      "chip": "ym2612"
    },
    {
      "channel": 0,
      "note": 83,
      "start": 78.2918,
      "duration": 0.08,
      "velocity": 93,
      "chip": "ym2612"
    },
    {
      "channel": 0,
      "note": 78,
      "start": 78.3719,
      "duration": 0.08,
      "velocity": 93,
      "chip": "ym2612"
    },
    {
      "channel": 0,
      "note": 75,
      "start": 78.4519,
      "duration": 0.0799,
      "velocity": 93,
      "chip": "ym2612"
    },
    {
      "channel": 2,
      "note": 81,
      "start": 78.452,
      "duration": 0.3402,
      "velocity": 127,
      "chip": "ym2612"
    },
    {
      "channel": 4,
      "note": 57,
      "start": 78.4521,
      "duration": 0.3402,
      "velocity": 93,
      "chip": "ym2612"
    },
    {
      "channel": 0,
      "note": 71,
      "start": 78.5318,
      "duration": 0.1001,
      "velocity": 93,
      "chip": "ym2612"
    },
    {
      "channel": 0,
      "note": 69,
      "start": 78.6319,
      "duration": 0.0799,
      "velocity": 93,
      "chip": "ym2612"
    },
    {
      "channel": 3,
      "note": 52,
      "start": 78.632,
      "duration": 0.1602,
      "velocity": 95,
      "chip": "ym2612"
    },
    {
      "channel": 0,
      "note": 71,
      "start": 78.7118,
      "duration": 0.0803,
      "velocity": 93,
      "chip": "ym2612"
    },
    {
      "channel": 0,
      "note": 68,
      "start": 78.7921,
      "duration": 0.0013,
      "velocity": 93,
      "chip": "ym2612"
    },
    {
      "channel": 2,
      "note": 80,
      "start": 78.7922,
      "duration": 0.7256,
      "velocity": 127,
      "chip": "ym2612"
    },
    {
      "channel": 3,
      "note": 45,
      "start": 78.7923,
      "duration": 1.8283,
      "velocity": 95,
      "chip": "ym2612"
    },
    {
      "channel": 4,
      "note": 56,
      "start": 78.7924,
      "duration": 0.7256,
      "velocity": 93,
      "chip": "ym2612"
    },
    {
      "channel": 0,
      "note": 69,
      "start": 78.7934,
      "duration": 0.0554,
      "velocity": 93,
      "chip": "ym2612"
    },
    {
      "channel": 0,
      "note": 73,
      "start": 78.8488,
      "duration": 0.08,
      "velocity": 93,
      "chip": "ym2612"
    },
    {
      "channel": 0,
      "note": 76,
      "start": 78.9288,
      "duration": 0.08,
      "velocity": 93,
      "chip": "ym2612"
    },
    {
      "channel": 0,
      "note": 80,
      "start": 79.0088,
      "duration": 0.08,
      "velocity": 93,
      "chip": "ym2612"
    },
    {
      "channel": 0,
      "note": 81,
      "start": 79.0889,
      "duration": 0.0999,
      "velocity": 93,
      "chip": "ym2612"
    },
    {
      "channel": 0,
      "note": 80,
      "start": 79.1889,
      "duration": 0.0799,
      "velocity": 93,
      "chip": "ym2612"
    },
    {
      "channel": 0,
      "note": 76,
      "start": 79.2688,
      "duration": 0.0801,
      "velocity": 93,
      "chip": "ym2612"
    },
    {
      "channel": 0,
      "note": 73,
      "start": 79.3489,
      "duration": 0.001,
      "velocity": 93,
      "chip": "ym2612"
    },
    {
      "channel": 0,
      "note": 69,
      "start": 79.35,
      "duration": 0.0077,
      "velocity": 93,
      "chip": "ym2612"
    },
    {
      "channel": 0,
      "note": 68,
      "start": 79.3577,
      "duration": 0.0799,
      "velocity": 93,
      "chip": "ym2612"
    },
    {
      "channel": 0,
      "note": 69,
      "start": 79.4377,
      "duration": 0.0801,
      "velocity": 93,
      "chip": "ym2612"
    },
    {
      "channel": 0,
      "note": 73,
      "start": 79.5178,
      "duration": 0.0798,
      "velocity": 93,
      "chip": "ym2612"
    },
    {
      "channel": 2,
      "note": 81,
      "start": 79.5179,
      "duration": 0.34,
      "velocity": 127,
      "chip": "ym2612"
    },
    {
      "channel": 4,
      "note": 57,
      "start": 79.518,
      "duration": 0.3401,
      "velocity": 93,
      "chip": "ym2612"
    },
    {
      "channel": 0,
      "note": 76,
      "start": 79.5976,
      "duration": 0.1,
      "velocity": 93,
      "chip": "ym2612"
    },
    {
      "channel": 0,
      "note": 80,
      "start": 79.6976,
      "duration": 0.08,
      "velocity": 93,
      "chip": "ym2612"
    },
    {
      "channel": 0,
      "note": 81,
      "start": 79.7777,
      "duration": 0.0802,
      "velocity": 93,
      "chip": "ym2612"
    },
    {
      "channel": 0,
      "note": 80,
      "start": 79.8579,
      "duration": 0.0012,
      "velocity": 93,
      "chip": "ym2612"
    },
    {
      "channel": 2,
      "note": 80,
      "start": 79.858,
      "duration": 0.4338,
      "velocity": 127,
      "chip": "ym2612"
    },
    {
      "channel": 4,
      "note": 56,
      "start": 79.8581,
      "duration": 0.4337,
      "velocity": 93,
      "chip": "ym2612"
    },
    {
      "channel": 0,
      "note": 76,
      "start": 79.8592,
      "duration": 0.0355,
      "velocity": 93,
      "chip": "ym2612"
    },
    {
      "channel": 0,
      "note": 73,
      "start": 79.8947,
      "duration": 0.1,
      "velocity": 93,
      "chip": "ym2612"
    },
    {
      "channel": 0,
      "note": 69,
      "start": 79.9947,
      "duration": 0.08,
      "velocity": 93,
      "chip": "ym2612"
    },
    {
      "channel": 0,
      "note": 68,
      "start": 80.0747,
      "duration": 0.0799,
      "velocity": 93,
      "chip": "ym2612"
    },
    {
      "channel": 0,
      "note": 69,
      "start": 80.1547,
      "duration": 0.08,
      "velocity": 93,
      "chip": "ym2612"
    },
    {
      "channel": 0,
      "note": 73,
      "start": 80.2347,
      "duration": 0.0012,
      "velocity": 93,
      "chip": "ym2612"
    },
    {
      "channel": 0,
      "note": 76,
      "start": 80.2359,
      "duration": 0.0558,
      "velocity": 93,
      "chip": "ym2612"
    },
    {
      "channel": 0,
      "note": 80,
      "start": 80.2918,
      "duration": 0.0012,
      "velocity": 93,
      "chip": "ym2612"
    },
    {
      "channel": 2,
      "note": 76,
      "start": 80.2918,
      "duration": 0.4686,
      "velocity": 127,
      "chip": "ym2612"
    },
    {
      "channel": 4,
      "note": 52,
      "start": 80.292,
      "duration": 0.4686,
      "velocity": 93,
      "chip": "ym2612"
    },
    {
      "channel": 0,
      "note": 81,
      "start": 80.293,
      "duration": 0.001,
      "velocity": 93,
      "chip": "ym2612"
    },
    {
      "channel": 0,
      "note": 80,
      "start": 80.2941,
      "duration": 0.0865,
      "velocity": 93,
      "chip": "ym2612"
    },
    {
      "channel": 0,
      "note": 76,
      "start": 80.3805,
      "duration": 0.08,
      "velocity": 93,
      "chip": "ym2612"
    },
    {
      "channel": 0,
      "note": 73,
      "start": 80.4605,
      "duration": 0.08,
      "velocity": 93,
      "chip": "ym2612"
    },
    {
      "channel": 0,
      "note": 69,
      "start": 80.5405,
      "duration": 0.0801,
      "velocity": 93,
      "chip": "ym2612"
    },
    {
      "channel": 0,
      "note": 68,
      "start": 80.6207,
      "duration": 0.0999,
      "velocity": 93,
      "chip": "ym2612"
    },
    {
      "channel": 3,
      "note": 52,
      "start": 80.6207,
      "duration": 0.1802,
      "velocity": 95,
      "chip": "ym2612"
    },
    {
      "channel": 0,
      "note": 69,
      "start": 80.7206,
      "duration": 0.0802,
      "velocity": 93,
      "chip": "ym2612"
    },
    {
      "channel": 0,
      "note": 69,
      "start": 80.8008,
      "duration": 0.0013,
      "velocity": 93,
      "chip": "ym2612"
    },
    {
      "channel": 2,
      "note": 78,
      "start": 80.8009,
      "duration": 0.5569,
      "velocity": 127,
      "chip": "ym2612"
    },
    {
      "channel": 3,
      "note": 57,
      "start": 80.801,
      "duration": 1.8282,
      "velocity": 95,
      "chip": "ym2612"
    },
    {
      "channel": 4,
      "note": 54,
      "start": 80.801,
      "duration": 0.5569,
      "velocity": 93,
      "chip": "ym2612"
    },
    {
      "channel": 0,
      "note": 71,
      "start": 80.8021,
      "duration": 0.0355,
      "velocity": 93,
      "chip": "ym2612"
    },
    {
      "channel": 0,
      "note": 75,
      "start": 80.8376,
      "duration": 0.1,
      "velocity": 93,
      "chip": "ym2612"
    },
    {
      "channel": 0,
      "note": 78,
      "start": 80.9376,
      "duration": 0.08,
      "velocity": 93,
      "chip": "ym2612"
    },
    {
      "channel": 0,
      "note": 83,
      "start": 81.0176,
      "duration": 0.0799,
      "velocity": 93,
      "chip": "ym2612"
    },
    {
      "channel": 0,
      "note": 85,
      "start": 81.0976,
      "duration": 0.08,
      "velocity": 93,
      "chip": "ym2612"
    },
    {
      "channel": 0,
      "note": 83,
      "start": 81.1776,
      "duration": 0.1,
      "velocity": 93,
      "chip": "ym2612"
    },
    {
      "channel": 0,
      "note": 78,
      "start": 81.2776,
      "duration": 0.0801,
      "velocity": 93,
      "chip": "ym2612"
    },
    {
      "channel": 0,
      "note": 75,
      "start": 81.3578,
      "duration": 0.0011,
      "velocity": 93,
      "chip": "ym2612"
    },
    {
      "channel": 2,
      "note": 85,
      "start": 81.3579,
      "duration": 0.0011,
      "velocity": 127,
      "chip": "ym2612"
    },
    {
      "channel": 4,
      "note": 61,
      "start": 81.358,
      "duration": 0.0011,
      "velocity": 93,
      "chip": "ym2612"
    },
    {
      "channel": 0,
      "note": 71,
      "start": 81.359,
      "duration": 0.001,
      "velocity": 93,
      "chip": "ym2612"
    },
    {
      "channel": 2,
      "note": 87,
      "start": 81.3591,
      "duration": 0.5076,
      "velocity": 127,
      "chip": "ym2612"
    },
    {
      "channel": 4,
      "note": 63,
      "start": 81.3592,
      "duration": 0.5076,
      "velocity": 93,
      "chip": "ym2612"
    },
    {
      "channel": 0,
      "note": 69,
      "start": 81.36,
      "duration": 0.0864,
      "velocity": 93,
      "chip": "ym2612"
    },
    {
      "channel": 0,
      "note": 71,
      "start": 81.4464,
      "duration": 0.08,
      "velocity": 93,
      "chip": "ym2612"
    },
    {
      "channel": 0,
      "note": 75,
      "start": 81.5264,
      "duration": 0.08,
      "velocity": 93,
      "chip": "ym2612"
    },
    {
      "channel": 0,
      "note": 78,
      "start": 81.6064,
      "duration": 0.08,
      "velocity": 93,
      "chip": "ym2612"
    },
    {
      "channel": 0,
      "note": 83,
      "start": 81.6865,
      "duration": 0.0999,
      "velocity": 93,
      "chip": "ym2612"
    },
    {
      "channel": 0,
      "note": 85,
      "start": 81.7864,
      "duration": 0.0802,
      "velocity": 93,
      "chip": "ym2612"
    },
    {
      "channel": 0,
      "note": 83,
      "start": 81.8667,
      "duration": 0.0011,
      "velocity": 93,
      "chip": "ym2612"
    },
    {
      "channel": 2,
      "note": 85,
      "start": 81.8667,
      "duration": 0.4339,
      "velocity": 127,
      "chip": "ym2612"
    },
    {
      "channel": 4,
      "note": 61,
      "start": 81.8668,
      "duration": 0.4338,
      "velocity": 93,
      "chip": "ym2612"
    },
    {
      "channel": 0,
      "note": 78,
      "start": 81.8678,
      "duration": 0.0355,
      "velocity": 93,
      "chip": "ym2612"
    },
    {
      "channel": 0,
      "note": 75,
      "start": 81.9034,
      "duration": 0.1,
      "velocity": 93,
      "chip": "ym2612"
    },
    {
      "channel": 0,
      "note": 71,
      "start": 82.0034,
      "duration": 0.08,
      "velocity": 93,
      "chip": "ym2612"
    },
    {
      "channel": 0,
      "note": 69,
      "start": 82.0834,
      "duration": 0.08,
      "velocity": 93,
      "chip": "ym2612"
    },
    {
      "channel": 0,
      "note": 71,
      "start": 82.1634,
      "duration": 0.0801,
      "velocity": 93,
      "chip": "ym2612"
    },
    {
      "channel": 0,
      "note": 75,
      "start": 82.2434,
      "duration": 0.001,
      "velocity": 93,
      "chip": "ym2612"
    },
    {
      "channel": 0,
      "note": 78,
      "start": 82.2445,
      "duration": 0.056,
      "velocity": 93,
      "chip": "ym2612"
    },
    {
      "channel": 0,
      "note": 83,
      "start": 82.3006,
      "duration": 0.0011,
      "velocity": 93,
      "chip": "ym2612"
    },
    {
      "channel": 2,
      "note": 83,
      "start": 82.3006,
      "duration": 0.4085,
      "velocity": 127,
      "chip": "ym2612"
    },
    {
      "channel": 4,
      "note": 59,
      "start": 82.3007,
      "duration": 0.4084,
      "velocity": 93,
      "chip": "ym2612"
    },
    {
      "channel": 0,
      "note": 85,
      "start": 82.3016,
      "duration": 0.0009,
      "velocity": 93,
      "chip": "ym2612"
    },
    {
      "channel": 0,
      "note": 83,
      "start": 82.3025,
      "duration": 0.0665,
      "velocity": 93,
      "chip": "ym2612"
    },
    {
      "channel": 0,
      "note": 78,
      "start": 82.3691,
      "duration": 0.0999,
      "velocity": 93,
      "chip": "ym2612"
    },
    {
      "channel": 0,
      "note": 75,
      "start": 82.4691,
      "duration": 0.08,
      "velocity": 93,
      "chip": "ym2612"
    },
    {
      "channel": 0,
      "note": 71,
      "start": 82.5491,
      "duration": 0.0801,
      "velocity": 93,
      "chip": "ym2612"
    },
    {
      "channel": 0,
      "note": 69,
      "start": 82.6292,
      "duration": 0.0798,
      "velocity": 93,
      "chip": "ym2612"
    },
    {
      "channel": 3,
      "note": 54,
      "start": 82.6293,
      "duration": 0.1802,
      "velocity": 95,
      "chip": "ym2612"
    },
    {
      "channel": 0,
      "note": 71,
      "start": 82.7091,
      "duration": 0.1003,
      "velocity": 93,
      "chip": "ym2612"
    },
    {
      "channel": 0,
      "note": 66,
      "start": 82.8093,
      "duration": 0.0012,
      "velocity": 93,
      "chip": "ym2612"
    },
    {
      "channel": 2,
      "note": 88,
      "start": 82.8094,
      "duration": 0.5568,
      "velocity": 127,
      "chip": "ym2612"
    },
    {
      "channel": 3,
      "note": 56,
      "start": 82.8095,
      "duration": 1.9883,
      "velocity": 95,
      "chip": "ym2612"
    },
    {
      "channel": 4,
      "note": 64,
      "start": 82.8096,
      "duration": 0.5568,
      "velocity": 93,
      "chip": "ym2612"
    },
    {
      "channel": 0,
      "note": 68,
      "start": 82.8106,
      "duration": 0.0355,
      "velocity": 93,
      "chip": "ym2612"
    },
    {
      "channel": 0,
      "note": 71,
      "start": 82.8461,
      "duration": 0.0799,
      "velocity": 93,
      "chip": "ym2612"
    },
    {
      "channel": 0,
      "note": 76,
      "start": 82.926,
      "duration": 0.1,
      "velocity": 93,
      "chip": "ym2612"
    },
    {
      "channel": 0,
      "note": 78,
      "start": 83.026,
      "duration": 0.08,
      "velocity": 93,
      "chip": "ym2612"
    },
    {
      "channel": 0,
      "note": 80,
      "start": 83.106,
      "duration": 0.08,
      "velocity": 93,
      "chip": "ym2612"
    },
    {
      "channel": 0,
      "note": 78,
      "start": 83.186,
      "duration": 0.08,
      "velocity": 93,
      "chip": "ym2612"
    },
    {
      "channel": 0,
      "note": 76,
      "start": 83.266,
      "duration": 0.1001,
      "velocity": 93,
      "chip": "ym2612"
    },
    {
      "channel": 0,
      "note": 71,
      "start": 83.3662,
      "duration": 0.0012,
      "velocity": 93,
      "chip": "ym2612"
    },
    {
      "channel": 2,
      "note": 83,
      "start": 83.3663,
      "duration": 0.4085,
      "velocity": 127,
      "chip": "ym2612"
    },
    {
      "channel": 4,
      "note": 59,
      "start": 83.3664,
      "duration": 0.4084,
      "velocity": 93,
      "chip": "ym2612"
    },
    {
      "channel": 0,
      "note": 68,
      "start": 83.3675,
      "duration": 0.0008,
      "velocity": 93,
      "chip": "ym2612"
    },
    {
      "channel": 0,
      "note": 66,
      "start": 83.3683,
      "duration": 0.0665,
      "velocity": 93,
      "chip": "ym2612"
    },
    {
      "channel": 0,
      "note": 68,
      "start": 83.4348,
      "duration": 0.1,
      "velocity": 93,
      "chip": "ym2612"
    },
    {
      "channel": 0,
      "note": 71,
      "start": 83.5348,
      "duration": 0.0799,
      "velocity": 93,
      "chip": "ym2612"
    },
    {
      "channel": 0,
      "note": 76,
      "start": 83.6148,
      "duration": 0.08,
      "velocity": 93,
      "chip": "ym2612"
    },
    {
      "channel": 0,
      "note": 78,
      "start": 83.6948,
      "duration": 0.0799,
      "velocity": 93,
      "chip": "ym2612"
    },
    {
      "channel": 0,
      "note": 80,
      "start": 83.7748,
      "duration": 0.1001,
      "velocity": 93,
      "chip": "ym2612"
    },
    {
      "channel": 0,
      "note": 78,
      "start": 83.875,
      "duration": 0.0011,
      "velocity": 93,
      "chip": "ym2612"
    },
    {
      "channel": 2,
      "note": 83,
      "start": 83.875,
      "duration": 0.0369,
      "velocity": 127,
      "chip": "ym2612"
    },
    {
      "channel": 4,
      "note": 59,
      "start": 83.8751,
      "duration": 0.0368,
      "velocity": 93,
      "chip": "ym2612"
    },
    {
      "channel": 0,
      "note": 76,
      "start": 83.8761,
      "duration": 0.0357,
      "velocity": 93,
      "chip": "ym2612"
    },
    {
      "channel": 0,
      "note": 71,
      "start": 83.9118,
      "duration": 0.0799,
      "velocity": 93,
      "chip": "ym2612"
    },
    {
      "channel": 2,
      "note": 85,
      "start": 83.9119,
      "duration": 0.1799,
      "velocity": 127,
      "chip": "ym2612"
    },
    {
      "channel": 4,
      "note": 61,
      "start": 83.912,
      "duration": 0.18,
      "velocity": 93,
      "chip": "ym2612"
    },
    {
      "channel": 0,
      "note": 68,
      "start": 83.9918,
      "duration": 0.1,
      "velocity": 93,
      "chip": "ym2612"
    },
    {
      "channel": 0,
      "note": 66,
      "start": 84.0918,
      "duration": 0.0799,
      "velocity": 93,
      "chip": "ym2612"
    },
    {
      "channel": 2,
      "note": 83,
      "start": 84.0919,
      "duration": 0.3256,
      "velocity": 127,
      "chip": "ym2612"
    },
    {
      "channel": 4,
      "note": 59,
      "start": 84.092,
      "duration": 0.3256,
      "velocity": 93,
      "chip": "ym2612"
    },
    {
      "channel": 0,
      "note": 68,
      "start": 84.1717,
      "duration": 0.0801,
      "velocity": 93,
      "chip": "ym2612"
    },
    {
      "channel": 0,
      "note": 71,
      "start": 84.2518,
      "duration": 0.0011,
      "velocity": 93,
      "chip": "ym2612"
    },
    {
      "channel": 0,
      "note": 76,
      "start": 84.2529,
      "duration": 0.0359,
      "velocity": 93,
      "chip": "ym2612"
    },
    {
      "channel": 0,
      "note": 78,
      "start": 84.2888,
      "duration": 0.0013,
      "velocity": 93,
      "chip": "ym2612"
    },
    {
      "channel": 0,
      "note": 80,
      "start": 84.2901,
      "duration": 0.0074,
      "velocity": 93,
      "chip": "ym2612"
    },
    {
      "channel": 0,
      "note": 78,
      "start": 84.2975,
      "duration": 0.08,
      "velocity": 93,
      "chip": "ym2612"
    },
    {
      "channel": 0,
      "note": 76,
      "start": 84.3775,
      "duration": 0.0801,
      "velocity": 93,
      "chip": "ym2612"
    },
    {
      "channel": 0,
      "note": 71,
      "start": 84.4576,
      "duration": 0.0999,
      "velocity": 93,
      "chip": "ym2612"
    },
    {
      "channel": 2,
      "note": 83,
      "start": 84.4577,
      "duration": 0.3197,
      "velocity": 127,
      "chip": "ym2612"
    },
    {
      "channel": 4,
      "note": 59,
      "start": 84.4578,
      "duration": 0.3197,
      "velocity": 93,
      "chip": "ym2612"
    },
    {
      "channel": 0,
      "note": 68,
      "start": 84.5576,
      "duration": 0.0799,
      "velocity": 93,
      "chip": "ym2612"
    },
    {
      "channel": 0,
      "note": 66,
      "start": 84.6375,
      "duration": 0.08,
      "velocity": 93,
      "chip": "ym2612"
    },
    {
      "channel": 0,
      "note": 68,
      "start": 84.7175,
      "duration": 0.0802,
      "velocity": 93,
      "chip": "ym2612"
    },
    {
      "channel": 0,
      "note": 66,
      "start": 84.7978,
      "duration": 0.0014,
      "velocity": 93,
      "chip": "ym2612"
    },
    {
      "channel": 2,
      "note": 88,
      "start": 84.7978,
      "duration": 0.557,
      "velocity": 127,
      "chip": "ym2612"
    },
    {
      "channel": 3,
      "note": 55,
      "start": 84.7979,
      "duration": 1.9883,
      "velocity": 95,
      "chip": "ym2612"
    },
    {
      "channel": 4,
      "note": 64,
      "start": 84.798,
      "duration": 0.5569,
      "velocity": 93,
      "chip": "ym2612"
    },
    {
      "channel": 0,
      "note": 67,
      "start": 84.7991,
      "duration": 0.0554,
      "velocity": 93,
      "chip": "ym2612"
    },
    {
      "channel": 0,
      "note": 71,
      "start": 84.8546,
      "duration": 0.0799,
      "velocity": 93,
      "chip": "ym2612"
    },
    {
      "channel": 0,
      "note": 76,
      "start": 84.9346,
      "duration": 0.08,
      "velocity": 93,
      "chip": "ym2612"
    },
    {
      "channel": 0,
      "note": 78,
      "start": 85.0146,
      "duration": 0.1,
      "velocity": 93,
      "chip": "ym2612"
    },
    {
      "channel": 0,
      "note": 79,
      "start": 85.1146,
      "duration": 0.08,
      "velocity": 93,
      "chip": "ym2612"
    },
    {
      "channel": 0,
      "note": 78,
      "start": 85.1946,
      "duration": 0.08,
      "velocity": 93,
      "chip": "ym2612"
    },
    {
      "channel": 0,
      "note": 76,
      "start": 85.2746,
      "duration": 0.0801,
      "velocity": 93,
      "chip": "ym2612"
    },
    {
      "channel": 0,
      "note": 71,
      "start": 85.3548,
      "duration": 0.0013,
      "velocity": 93,
      "chip": "ym2612"
    },
    {
      "channel": 2,
      "note": 83,
      "start": 85.3549,
      "duration": 0.4084,
      "velocity": 127,
      "chip": "ym2612"
    },
    {
      "channel": 4,
      "note": 59,
      "start": 85.355,
      "duration": 0.4084,
      "velocity": 93,
      "chip": "ym2612"
    },
    {
      "channel": 0,
      "note": 67,
      "start": 85.3561,
      "duration": 0.0073,
      "velocity": 93,
      "chip": "ym2612"
    },
    {
      "channel": 0,
      "note": 66,
      "start": 85.3634,
      "duration": 0.08,
      "velocity": 93,
      "chip": "ym2612"
    },
    {
      "channel": 0,
      "note": 67,
      "start": 85.4434,
      "duration": 0.08,
      "velocity": 93,
      "chip": "ym2612"
    },
    {
      "channel": 0,
      "note": 71,
      "start": 85.5234,
      "duration": 0.0999,
      "velocity": 93,
      "chip": "ym2612"
    },
    {
      "channel": 0,
      "note": 76,
      "start": 85.6234,
      "duration": 0.08,
      "velocity": 93,
      "chip": "ym2612"
    },
    {
      "channel": 0,
      "note": 78,
      "start": 85.7034,
      "duration": 0.0799,
      "velocity": 93,
      "chip": "ym2612"
    },
    {
      "channel": 0,
      "note": 79,
      "start": 85.7833,
      "duration": 0.0802,
      "velocity": 93,
      "chip": "ym2612"
    },
    {
      "channel": 0,
      "note": 78,
      "start": 85.8636,
      "duration": 0.0014,
      "velocity": 93,
      "chip": "ym2612"
    },
    {
      "channel": 2,
      "note": 83,
      "start": 85.8636,
      "duration": 0.0569,
      "velocity": 127,
      "chip": "ym2612"
    },
    {
      "channel": 4,
      "note": 59,
      "start": 85.8637,
      "duration": 0.0569,
      "velocity": 93,
      "chip": "ym2612"
    },
    {
      "channel": 0,
      "note": 76,
      "start": 85.8649,
      "duration": 0.0555,
      "velocity": 93,
      "chip": "ym2612"
    },
    {
      "channel": 0,
      "note": 71,
      "start": 85.9205,
      "duration": 0.0799,
      "velocity": 93,
      "chip": "ym2612"
    },
    {
      "channel": 2,
      "note": 84,
      "start": 85.9206,
      "duration": 0.1599,
      "velocity": 127,
      "chip": "ym2612"
    },
    {
      "channel": 4,
      "note": 60,
      "start": 85.9207,
      "duration": 0.16,
      "velocity": 93,
      "chip": "ym2612"
    },
    {
      "channel": 0,
      "note": 67,
      "start": 86.0005,
      "duration": 0.08,
      "velocity": 93,
      "chip": "ym2612"
    },
    {
      "channel": 0,
      "note": 66,
      "start": 86.0805,
      "duration": 0.0999,
      "velocity": 93,
      "chip": "ym2612"
    },
    {
      "channel": 2,
      "note": 83,
      "start": 86.0806,
      "duration": 0.3256,
      "velocity": 127,
      "chip": "ym2612"
    },
    {
      "channel": 4,
      "note": 59,
      "start": 86.0807,
      "duration": 0.3256,
      "velocity": 93,
      "chip": "ym2612"
    },
    {
      "channel": 0,
      "note": 67,
      "start": 86.1804,
      "duration": 0.0801,
      "velocity": 93,
      "chip": "ym2612"
    },
    {
      "channel": 0,
      "note": 71,
      "start": 86.2606,
      "duration": 0.0011,
      "velocity": 93,
      "chip": "ym2612"
    },
    {
      "channel": 0,
      "note": 76,
      "start": 86.2617,
      "duration": 0.0358,
      "velocity": 93,
      "chip": "ym2612"
    },
    {
      "channel": 0,
      "note": 78,
      "start": 86.2975,
      "duration": 0.0013,
      "velocity": 93,
      "chip": "ym2612"
    },
    {
      "channel": 0,
      "note": 79,
      "start": 86.2988,
      "duration": 0.0074,
      "velocity": 93,
      "chip": "ym2612"
    },
    {
      "channel": 0,
      "note": 78,
      "start": 86.3062,
      "duration": 0.08,
      "velocity": 93,
      "chip": "ym2612"
    },
    {
      "channel": 0,
      "note": 76,
      "start": 86.3862,
      "duration": 0.0801,
      "velocity": 93,
      "chip": "ym2612"
    },
    {
      "channel": 0,
      "note": 71,
      "start": 86.4663,
      "duration": 0.0799,
      "velocity": 93,
      "chip": "ym2612"
    },
    {
      "channel": 2,
      "note": 83,
      "start": 86.4664,
      "duration": 0.3401,
      "velocity": 127,
      "chip": "ym2612"
    },
    {
      "channel": 4,
      "note": 59,
      "start": 86.4665,
      "duration": 0.3401,
      "velocity": 93,
      "chip": "ym2612"
    },
    {
      "channel": 0,
      "note": 67,
      "start": 86.5463,
      "duration": 0.0999,
      "velocity": 93,
      "chip": "ym2612"
    },
    {
      "channel": 0,
      "note": 66,
      "start": 86.6462,
      "duration": 0.08,
      "velocity": 93,
      "chip": "ym2612"
    },
    {
      "channel": 0,
      "note": 67,
      "start": 86.7262,
      "duration": 0.0802,
      "velocity": 93,
      "chip": "ym2612"
    },
    {
      "channel": 0,
      "note": 66,
      "start": 86.8065,
      "duration": 0.0013,
      "velocity": 93,
      "chip": "ym2612"
    },
    {
      "channel": 2,
      "note": 90,
      "start": 86.8065,
      "duration": 0.5367,
      "velocity": 127,
      "chip": "ym2612"
    },
    {
      "channel": 3,
      "note": 54,
      "start": 86.8066,
      "duration": 2.0088,
      "velocity": 95,
      "chip": "ym2612"
    },
    {
      "channel": 4,
      "note": 66,
      "start": 86.8067,
      "duration": 0.5366,
      "velocity": 93,
      "chip": "ym2612"
    },
    {
      "channel": 0,
      "note": 71,
      "start": 86.8078,
      "duration": 0.0555,
      "velocity": 93,
      "chip": "ym2612"
    },
    {
      "channel": 0,
      "note": 73,
      "start": 86.8633,
      "duration": 0.08,
      "velocity": 93,
      "chip": "ym2612"
    },
    {
      "channel": 0,
      "note": 75,
      "start": 86.9433,
      "duration": 0.08,
      "velocity": 93,
      "chip": "ym2612"
    },
    {
      "channel": 0,
      "note": 78,
      "start": 87.0233,
      "duration": 0.08,
      "velocity": 93,
      "chip": "ym2612"
    },
    {
      "channel": 0,
      "note": 83,
      "start": 87.1034,
      "duration": 0.0999,
      "velocity": 93,
      "chip": "ym2612"
    },
    {
      "channel": 0,
      "note": 78,
      "start": 87.2034,
      "duration": 0.0799,
      "velocity": 93,
      "chip": "ym2612"
    },
    {
      "channel": 0,
      "note": 75,
      "start": 87.2833,
      "duration": 0.0801,
      "velocity": 93,
      "chip": "ym2612"
    },
    {
      "channel": 0,
      "note": 73,
      "start": 87.3635,
      "duration": 0.0011,
      "velocity": 93,
      "chip": "ym2612"
    },
    {
      "channel": 2,
      "note": 83,
      "start": 87.3636,
      "duration": 0.4485,
      "velocity": 127,
      "chip": "ym2612"
    },
    {
      "channel": 4,
      "note": 59,
      "start": 87.3637,
      "duration": 0.4484,
      "velocity": 93,
      "chip": "ym2612"
    },
    {
      "channel": 0,
      "note": 71,
      "start": 87.3646,
      "duration": 0.0075,
      "velocity": 93,
      "chip": "ym2612"
    },
    {
      "channel": 0,
      "note": 66,
      "start": 87.3721,
      "duration": 0.0799,
      "velocity": 93,
      "chip": "ym2612"
    },
    {
      "channel": 0,
      "note": 71,
      "start": 87.4521,
      "duration": 0.0799,
      "velocity": 93,
      "chip": "ym2612"
    },
    {
      "channel": 0,
      "note": 73,
      "start": 87.532,
      "duration": 0.08,
      "velocity": 93,
      "chip": "ym2612"
    },
    {
      "channel": 0,
      "note": 75,
      "start": 87.612,
      "duration": 0.1,
      "velocity": 93,
      "chip": "ym2612"
    },
    {
      "channel": 0,
      "note": 78,
      "start": 87.712,
      "duration": 0.08,
      "velocity": 93,
      "chip": "ym2612"
    },
    {
      "channel": 0,
      "note": 83,
      "start": 87.7921,
      "duration": 0.0801,
      "velocity": 93,
      "chip": "ym2612"
    },
    {
      "channel": 0,
      "note": 78,
      "start": 87.8723,
      "duration": 0.0012,
      "velocity": 93,
      "chip": "ym2612"
    },
    {
      "channel": 2,
      "note": 83,
      "start": 87.8723,
      "duration": 0.217,
      "velocity": 127,
      "chip": "ym2612"
    },
    {
      "channel": 4,
      "note": 59,
      "start": 87.8725,
      "duration": 0.2169,
      "velocity": 93,
      "chip": "ym2612"
    },
    {
      "channel": 0,
      "note": 75,
      "start": 87.8735,
      "duration": 0.0556,
      "velocity": 93,
      "chip": "ym2612"
    },
    {
      "channel": 0,
      "note": 73,
      "start": 87.9291,
      "duration": 0.08,
      "velocity": 93,
      "chip": "ym2612"
    },
    {
      "channel": 0,
      "note": 71,
      "start": 88.0091,
      "duration": 0.0801,
      "velocity": 93,
      "chip": "ym2612"
    },
    {
      "channel": 0,
      "note": 66,
      "start": 88.0893,
      "duration": 0.0798,
      "velocity": 93,
      "chip": "ym2612"
    },
    {
      "channel": 2,
      "note": 85,
      "start": 88.0894,
      "duration": 0.1967,
      "velocity": 127,
      "chip": "ym2612"
    },
    {
      "channel": 4,
      "note": 61,
      "start": 88.0895,
      "duration": 0.1967,
      "velocity": 93,
      "chip": "ym2612"
    },
    {
      "channel": 0,
      "note": 71,
      "start": 88.1692,
      "duration": 0.1,
      "velocity": 93,
      "chip": "ym2612"
    },
    {
      "channel": 0,
      "note": 73,
      "start": 88.2692,
      "duration": 0.0011,
      "velocity": 93,
      "chip": "ym2612"
    },
    {
      "channel": 0,
      "note": 75,
      "start": 88.2703,
      "duration": 0.0359,
      "velocity": 93,
      "chip": "ym2612"
    },
    {
      "channel": 0,
      "note": 78,
      "start": 88.3063,
      "duration": 0.0012,
      "velocity": 93,
      "chip": "ym2612"
    },
    {
      "channel": 2,
      "note": 87,
      "start": 88.3063,
      "duration": 0.1689,
      "velocity": 127,
      "chip": "ym2612"
    },
    {
      "channel": 4,
      "note": 63,
      "start": 88.3065,
      "duration": 0.1688,
      "velocity": 93,
      "chip": "ym2612"
    },
    {
      "channel": 0,
      "note": 83,
      "start": 88.3075,
      "duration": 0.0075,
      "velocity": 93,
      "chip": "ym2612"
    },
    {
      "channel": 0,
      "note": 78,
      "start": 88.3151,
      "duration": 0.0799,
      "velocity": 93,
      "chip": "ym2612"
    },
    {
      "channel": 0,
      "note": 75,
      "start": 88.395,
      "duration": 0.0801,
      "velocity": 93,
      "chip": "ym2612"
    },
    {
      "channel": 0,
      "note": 73,
      "start": 88.4751,
      "duration": 0.0799,
      "velocity": 93,
      "chip": "ym2612"
    },
    {
      "channel": 2,
      "note": 90,
      "start": 88.4752,
      "duration": 0.3401,
      "velocity": 127,
      "chip": "ym2612"
    },
    {
      "channel": 4,
      "note": 66,
      "start": 88.4753,
      "duration": 0.3401,
      "velocity": 93,
      "chip": "ym2612"
    },
    {
      "channel": 0,
      "note": 71,
      "start": 88.555,
      "duration": 0.1,
      "velocity": 93,
      "chip": "ym2612"
    },
    {
      "channel": 0,
      "note": 66,
      "start": 88.6551,
      "duration": 0.0799,
      "velocity": 93,
      "chip": "ym2612"
    },
    {
      "channel": 0,
      "note": 71,
      "start": 88.7351,
      "duration": 0.0801,
      "velocity": 93,
      "chip": "ym2612"
    },
    {
      "channel": 0,
      "note": 71,
      "start": 88.8153,
      "duration": 0.0011,
      "velocity": 93,
      "chip": "ym2612"
    },
    {
      "channel": 2,
      "note": 91,
      "start": 88.8153,
      "duration": 0.7254,
      "velocity": 127,
      "chip": "ym2612"
    },
    {
      "channel": 3,
      "note": 52,
      "start": 88.8154,
      "duration": 1.5016,
      "velocity": 95,
      "chip": "ym2612"
    },
    {
      "channel": 4,
      "note": 67,
      "start": 88.8155,
      "duration": 0.7253,
      "velocity": 93,
      "chip": "ym2612"
    },
    {
      "channel": 0,
      "note": 72,
      "start": 88.8164,
      "duration": 0.0354,
      "velocity": 93,
      "chip": "ym2612"
    },
    {
      "channel": 0,
      "note": 76,
      "start": 88.8519,
      "duration": 0.1,
      "velocity": 93,
      "chip": "ym2612"
    },
    {
      "channel": 0,
      "note": 79,
      "start": 88.9519,
      "duration": 0.08,
      "velocity": 93,
      "chip": "ym2612"
    },
    {
      "channel": 0,
      "note": 83,
      "start": 89.0319,
      "duration": 0.0799,
      "velocity": 93,
      "chip": "ym2612"
    },
    {
      "channel": 0,
      "note": 84,
      "start": 89.1119,
      "duration": 0.08,
      "velocity": 93,
      "chip": "ym2612"
    },
    {
      "channel": 0,
      "note": 83,
      "start": 89.1919,
      "duration": 0.1,
      "velocity": 93,
      "chip": "ym2612"
    },
    {
      "channel": 0,
      "note": 79,
      "start": 89.2919,
      "duration": 0.08,
      "velocity": 93,
      "chip": "ym2612"
    },
    {
      "channel": 0,
      "note": 76,
      "start": 89.3719,
      "duration": 0.0011,
      "velocity": 93,
      "chip": "ym2612"
    },
    {
      "channel": 0,
      "note": 72,
      "start": 89.373,
      "duration": 0.0008,
      "velocity": 93,
      "chip": "ym2612"
    },
    {
      "channel": 0,
      "note": 71,
      "start": 89.3739,
      "duration": 0.0867,
      "velocity": 93,
      "chip": "ym2612"
    },
    {
      "channel": 0,
      "note": 72,
      "start": 89.4606,
      "duration": 0.0801,
      "velocity": 93,
      "chip": "ym2612"
    },
    {
      "channel": 0,
      "note": 76,
      "start": 89.5407,
      "duration": 0.0799,
      "velocity": 93,
      "chip": "ym2612"
    },
    {
      "channel": 2,
      "note": 90,
      "start": 89.5408,
      "duration": 0.34,
      "velocity": 127,
      "chip": "ym2612"
    },
    {
      "channel": 4,
      "note": 66,
      "start": 89.5409,
      "duration": 0.34,
      "velocity": 93,
      "chip": "ym2612"
    },
    {
      "channel": 0,
      "note": 79,
      "start": 89.6206,
      "duration": 0.08,
      "velocity": 93,
      "chip": "ym2612"
    },
    {
      "channel": 0,
      "note": 83,
      "start": 89.7007,
      "duration": 0.0999,
      "velocity": 93,
      "chip": "ym2612"
    },
    {
      "channel": 0,
      "note": 84,
      "start": 89.8006,
      "duration": 0.0801,
      "velocity": 93,
      "chip": "ym2612"
    },
    {
      "channel": 0,
      "note": 83,
      "start": 89.8808,
      "duration": 0.0012,
      "velocity": 93,
      "chip": "ym2612"
    },
    {
      "channel": 2,
      "note": 88,
      "start": 89.8809,
      "duration": 0.3938,
      "velocity": 127,
      "chip": "ym2612"
    },
    {
      "channel": 4,
      "note": 64,
      "start": 89.881,
      "duration": 0.3938,
      "velocity": 93,
      "chip": "ym2612"
    },
    {
      "channel": 0,
      "note": 79,
      "start": 89.882,
      "duration": 0.0356,
      "velocity": 93,
      "chip": "ym2612"
    },
    {
      "channel": 0,
      "note": 76,
      "start": 89.9176,
      "duration": 0.0401,
      "velocity": 93,
      "chip": "ym2612"
    },
    {
      "channel": 0,
      "note": 76,
      "start": 89.9577,
      "duration": 0.0599,
      "velocity": 93,
      "chip": "ym2612"
    },
    {
      "channel": 0,
      "note": 72,
      "start": 90.0176,
      "duration": 0.0399,
      "velocity": 93,
      "chip": "ym2612"
    },
    {
      "channel": 0,
      "note": 71,
      "start": 90.0977,
      "duration": 0.0799,
      "velocity": 93,
      "chip": "ym2612"
    },
    {
      "channel": 0,
      "note": 72,
      "start": 90.1776,
      "duration": 0.0801,
      "velocity": 93,
      "chip": "ym2612"
    },
    {
      "channel": 0,
      "note": 76,
      "start": 90.2578,
      "duration": 0.0013,
      "velocity": 93,
      "chip": "ym2612"
    },
    {
      "channel": 0,
      "note": 79,
      "start": 90.2591,
      "duration": 0.0558,
      "velocity": 93,
      "chip": "ym2612"
    },
    {
      "channel": 0,
      "note": 83,
      "start": 90.3149,
      "duration": 0.0011,
      "velocity": 93,
      "chip": "ym2612"
    },
    {
      "channel": 2,
      "note": 86,
      "start": 90.315,
      "duration": 0.1284,
      "velocity": 127,
      "chip": "ym2612"
    },
    {
      "channel": 4,
      "note": 62,
      "start": 90.3151,
      "duration": 0.1283,
      "velocity": 93,
      "chip": "ym2612"
    },
    {
      "channel": 0,
      "note": 84,
      "start": 90.3161,
      "duration": 0.0009,
      "velocity": 93,
      "chip": "ym2612"
    },
    {
      "channel": 0,
      "note": 83,
      "start": 90.317,
      "duration": 0.0865,
      "velocity": 93,
      "chip": "ym2612"
    },
    {
      "channel": 3,
      "note": 53,
      "start": 90.3171,
      "duration": 0.1666,
      "velocity": 95,
      "chip": "ym2612"
    },
    {
      "channel": 0,
      "note": 79,
      "start": 90.4035,
      "duration": 0.0801,
      "velocity": 93,
      "chip": "ym2612"
    },
    {
      "channel": 0,
      "note": 76,
      "start": 90.4836,
      "duration": 0.0798,
      "velocity": 93,
      "chip": "ym2612"
    },
    {
      "channel": 2,
      "note": 84,
      "start": 90.4837,
      "duration": 0.3401,
      "velocity": 127,
      "chip": "ym2612"
    },
    {
      "channel": 3,
      "note": 52,
      "start": 90.4837,
      "duration": 0.1598,
      "velocity": 95,
      "chip": "ym2612"
    },
    {
      "channel": 4,
      "note": 60,
      "start": 90.4839,
      "duration": 0.3401,
      "velocity": 93,
      "chip": "ym2612"
    },
    {
      "channel": 0,
      "note": 72,
      "start": 90.5634,
      "duration": 0.0801,
      "velocity": 93,
      "chip": "ym2612"
    },
    {
      "channel": 0,
      "note": 71,
      "start": 90.6435,
      "duration": 0.0999,
      "velocity": 93,
      "chip": "ym2612"
    },
    {
      "channel": 3,
      "note": 48,
      "start": 90.6436,
      "duration": 0.1802,
      "velocity": 95,
      "chip": "ym2612"
    },
    {
      "channel": 0,
      "note": 72,
      "start": 90.7434,
      "duration": 0.0803,
      "velocity": 93,
      "chip": "ym2612"
    },
    {
      "channel": 0,
      "note": 71,
      "start": 90.8237,
      "duration": 0.0798,
      "velocity": 93,
      "chip": "ym2612"
    },
    {
      "channel": 1,
      "note": 45,
      "start": 90.8238,
      "duration": 0.1598,
      "velocity": 99,
      "chip": "ym2612"
    },
    {
      "channel": 2,
      "note": 83,
      "start": 90.8239,
      "duration": 1.0199,
      "velocity": 127,
      "chip": "ym2612"
    },
    {
      "channel": 3,
      "note": 45,
      "start": 90.8239,
      "duration": 3.5798,
      "velocity": 95,
      "chip": "ym2612"
    },
    {
      "channel": 4,
      "note": 59,
      "start": 90.824,
      "duration": 1.0199,
      "velocity": 93,
      "chip": "ym2612"
    },
    {
      "channel": 0,
      "note": 72,
      "start": 90.9035,
      "duration": 0.08,
      "velocity": 93,
      "chip": "ym2612"
    },
    {
      "channel": 0,
      "note": 76,
      "start": 90.9836,
      "duration": 0.0999,
      "velocity": 93,
      "chip": "ym2612"
    },
    {
      "channel": 1,
      "note": 52,
      "start": 90.9836,
      "duration": 0.18,
      "velocity": 99,
      "chip": "ym2612"
    },
    {
      "channel": 0,
      "note": 79,
      "start": 91.0835,
      "duration": 0.0801,
      "velocity": 93,
      "chip": "ym2612"
    },
    {
      "channel": 0,
      "note": 83,
      "start": 91.1636,
      "duration": 0.0799,
      "velocity": 93,
      "chip": "ym2612"
    },
    {
      "channel": 1,
      "note": 57,
      "start": 91.1637,
      "duration": 0.1599,
      "velocity": 99,
      "chip": "ym2612"
    },
    {
      "channel": 0,
      "note": 84,
      "start": 91.2435,
      "duration": 0.08,
      "velocity": 93,
      "chip": "ym2612"
    },
    {
      "channel": 0,
      "note": 83,
      "start": 91.3236,
      "duration": 0.0799,
      "velocity": 93,
      "chip": "ym2612"
    },
    {
      "channel": 1,
      "note": 62,
      "start": 91.3236,
      "duration": 0.1799,
      "velocity": 99,
      "chip": "ym2612"
    },
    {
      "channel": 0,
      "note": 79,
      "start": 91.4036,
      "duration": 0.0999,
      "velocity": 93,
      "chip": "ym2612"
    },
    {
      "channel": 0,
      "note": 76,
      "start": 91.5036,
      "duration": 0.0799,
      "velocity": 93,
      "chip": "ym2612"
    },
    {
      "channel": 1,
      "note": 64,
      "start": 91.5036,
      "duration": 0.1599,
      "velocity": 99,
      "chip": "ym2612"
    },
    {
      "channel": 0,
      "note": 72,
      "start": 91.5835,
      "duration": 0.08,
      "velocity": 93,
      "chip": "ym2612"
    },
    {
      "channel": 0,
      "note": 71,
      "start": 91.6636,
      "duration": 0.0799,
      "velocity": 93,
      "chip": "ym2612"
    },
    {
      "channel": 1,
      "note": 57,
      "start": 91.6636,
      "duration": 0.1801,
      "velocity": 99,
      "chip": "ym2612"
    },
    {
      "channel": 0,
      "note": 72,
      "start": 91.7435,
      "duration": 0.1001,
      "velocity": 93,
      "chip": "ym2612"
    },
    {
      "channel": 0,
      "note": 76,
      "start": 91.8437,
      "duration": 0.0798,
      "velocity": 93,
      "chip": "ym2612"
    },
    {
      "channel": 1,
      "note": 62,
      "start": 91.8437,
      "duration": 0.1599,
      "velocity": 99,
      "chip": "ym2612"
    },
    {
      "channel": 2,
      "note": 84,
      "start": 91.8438,
      "duration": 0.34,
      "velocity": 127,
      "chip": "ym2612"
    },
    {
      "channel": 4,
      "note": 60,
      "start": 91.8439,
      "duration": 0.3399,
      "velocity": 93,
      "chip": "ym2612"
    },
    {
      "channel": 0,
      "note": 79,
      "start": 91.9235,
      "duration": 0.0801,
      "velocity": 93,
      "chip": "ym2612"
    },
    {
      "channel": 0,
      "note": 83,
      "start": 92.0036,
      "duration": 0.0799,
      "velocity": 93,
      "chip": "ym2612"
    },
    {
      "channel": 1,
      "note": 64,
      "start": 92.0037,
      "duration": 0.18,
      "velocity": 99,
      "chip": "ym2612"
    },
    {
      "channel": 0,
      "note": 84,
      "start": 92.0835,
      "duration": 0.1002,
      "velocity": 93,
      "chip": "ym2612"
    },
    {
      "channel": 0,
      "note": 83,
      "start": 92.1837,
      "duration": 0.0798,
      "velocity": 93,
      "chip": "ym2612"
    },
    {
      "channel": 1,
      "note": 45,
      "start": 92.1837,
      "duration": 0.1598,
      "velocity": 99,
      "chip": "ym2612"
    },
    {
      "channel": 2,
      "note": 83,
      "start": 92.1838,
      "duration": 0.68,
      "velocity": 127,
      "chip": "ym2612"
    },
    {
      "channel": 4,
      "note": 59,
      "start": 92.1839,
      "duration": 0.6799,
      "velocity": 93,
      "chip": "ym2612"
    },
    {
      "channel": 0,
      "note": 79,
      "start": 92.2636,
      "duration": 0.0799,
      "velocity": 93,
      "chip": "ym2612"
    },
    {
      "channel": 0,
      "note": 76,
      "start": 92.3436,
      "duration": 0.04,
      "velocity": 93,
      "chip": "ym2612"
    },
    {
      "channel": 1,
      "note": 52,
      "start": 92.3436,
      "duration": 0.18,
      "velocity": 99,
      "chip": "ym2612"
    },
    {
      "channel": 0,
      "note": 76,
      "start": 92.3836,
      "duration": 0.0399,
      "velocity": 93,
      "chip": "ym2612"
    },
    {
      "channel": 0,
      "note": 72,
      "start": 92.4235,
      "duration": 0.0599,
      "velocity": 93,
      "chip": "ym2612"
    },
    {
      "channel": 0,
      "note": 71,
      "start": 92.5236,
      "duration": 0.0799,
      "velocity": 93,
      "chip": "ym2612"
    },
    {
      "channel": 1,
      "note": 57,
      "start": 92.5237,
      "duration": 0.1599,
      "velocity": 99,
      "chip": "ym2612"
    },
    {
      "channel": 0,
      "note": 72,
      "start": 92.6035,
      "duration": 0.08,
      "velocity": 93,
      "chip": "ym2612"
    },
    {
      "channel": 0,
      "note": 76,
      "start": 92.6836,
      "duration": 0.0799,
      "velocity": 93,
      "chip": "ym2612"
    },
    {
      "channel": 1,
      "note": 62,
      "start": 92.6836,
      "duration": 0.1801,
      "velocity": 99,
      "chip": "ym2612"
    },
    {
      "channel": 0,
      "note": 79,
      "start": 92.7635,
      "duration": 0.1002,
      "velocity": 93,
      "chip": "ym2612"
    },
    {
      "channel": 0,
      "note": 83,
      "start": 92.8637,
      "duration": 0.0798,
      "velocity": 93,
      "chip": "ym2612"
    },
    {
      "channel": 1,
      "note": 64,
      "start": 92.8637,
      "duration": 0.1598,
      "velocity": 99,
      "chip": "ym2612"
    },
    {
      "channel": 2,
      "note": 81,
      "start": 92.8638,
      "duration": 0.34,
      "velocity": 127,
      "chip": "ym2612"
    },
    {
      "channel": 4,
      "note": 57,
      "start": 92.8639,
      "duration": 0.34,
      "velocity": 93,
      "chip": "ym2612"
    },
    {
      "channel": 0,
      "note": 84,
      "start": 92.9435,
      "duration": 0.08,
      "velocity": 93,
      "chip": "ym2612"
    },
    {
      "channel": 0,
      "note": 83,
      "start": 93.0236,
      "duration": 0.0799,
      "velocity": 93,
      "chip": "ym2612"
    },
    {
      "channel": 1,
      "note": 62,
      "start": 93.0236,
      "duration": 0.1801,
      "velocity": 99,
      "chip": "ym2612"
    },
    {
      "channel": 0,
      "note": 79,
      "start": 93.1036,
      "duration": 0.1001,
      "velocity": 93,
      "chip": "ym2612"
    },
    {
      "channel": 0,
      "note": 76,
      "start": 93.2037,
      "duration": 0.0798,
      "velocity": 93,
      "chip": "ym2612"
    },
    {
      "channel": 1,
      "note": 57,
      "start": 93.2038,
      "duration": 0.1598,
      "velocity": 99,
      "chip": "ym2612"
    },
    {
      "channel": 2,
      "note": 79,
      "start": 93.2039,
      "duration": 0.34,
      "velocity": 127,
      "chip": "ym2612"
    },
    {
      "channel": 4,
      "note": 55,
      "start": 93.204,
      "duration": 0.3399,
      "velocity": 93,
      "chip": "ym2612"
    },
    {
      "channel": 0,
      "note": 72,
      "start": 93.2835,
      "duration": 0.0801,
      "velocity": 93,
      "chip": "ym2612"
    },
    {
      "channel": 0,
      "note": 71,
      "start": 93.3636,
      "duration": 0.0799,
      "velocity": 93,
      "chip": "ym2612"
    },
    {
      "channel": 1,
      "note": 52,
      "start": 93.3637,
      "duration": 0.1801,
      "velocity": 99,
      "chip": "ym2612"
    },
    {
      "channel": 0,
      "note": 72,
      "start": 93.4435,
      "duration": 0.1002,
      "velocity": 93,
      "chip": "ym2612"
    },
    {
      "channel": 0,
      "note": 73,
      "start": 93.5437,
      "duration": 0.0798,
      "velocity": 93,
      "chip": "ym2612"
    },
    {
      "channel": 1,
      "note": 45,
      "start": 93.5438,
      "duration": 0.1598,
      "velocity": 99,
      "chip": "ym2612"
    },
    {
      "channel": 2,
      "note": 81,
      "start": 93.5439,
      "duration": 0.9999,
      "velocity": 127,
      "chip": "ym2612"
    },
    {
      "channel": 4,
      "note": 57,
      "start": 93.544,
      "duration": 0.9999,
      "velocity": 93,
      "chip": "ym2612"
    },
    {
      "channel": 0,
      "note": 74,
      "start": 93.6235,
      "duration": 0.08,
      "velocity": 93,
      "chip": "ym2612"
    },
    {
      "channel": 0,
      "note": 78,
      "start": 93.7036,
      "duration": 0.0799,
      "velocity": 93,
      "chip": "ym2612"
    },
    {
      "channel": 1,
      "note": 52,
      "start": 93.7036,
      "duration": 0.18,
      "velocity": 99,
      "chip": "ym2612"
    },
    {
      "channel": 0,
      "note": 81,
      "start": 93.7836,
      "duration": 0.1,
      "velocity": 93,
      "chip": "ym2612"
    },
    {
      "channel": 0,
      "note": 85,
      "start": 93.8836,
      "duration": 0.0799,
      "velocity": 93,
      "chip": "ym2612"
    },
    {
      "channel": 1,
      "note": 57,
      "start": 93.8837,
      "duration": 0.1599,
      "velocity": 99,
      "chip": "ym2612"
    },
    {
      "channel": 0,
      "note": 86,
      "start": 93.9635,
      "duration": 0.08,
      "velocity": 93,
      "chip": "ym2612"
    },
    {
      "channel": 0,
      "note": 85,
      "start": 94.0436,
      "duration": 0.0799,
      "velocity": 93,
      "chip": "ym2612"
    },
    {
      "channel": 1,
      "note": 62,
      "start": 94.0436,
      "duration": 0.18,
      "velocity": 99,
      "chip": "ym2612"
    },
    {
      "channel": 0,
      "note": 81,
      "start": 94.1235,
      "duration": 0.1001,
      "velocity": 93,
      "chip": "ym2612"
    },
    {
      "channel": 0,
      "note": 78,
      "start": 94.2236,
      "duration": 0.0799,
      "velocity": 93,
      "chip": "ym2612"
    },
    {
      "channel": 1,
      "note": 64,
      "start": 94.2237,
      "duration": 0.1599,
      "velocity": 99,
      "chip": "ym2612"
    },
    {
      "channel": 0,
      "note": 74,
      "start": 94.3035,
      "duration": 0.08,
      "velocity": 93,
      "chip": "ym2612"
    },
    {
      "channel": 0,
      "note": 73,
      "start": 94.3836,
      "duration": 0.0799,
      "velocity": 93,
      "chip": "ym2612"
    },
    {
      "channel": 1,
      "note": 57,
      "start": 94.3836,
      "duration": 0.1601,
      "velocity": 99,
      "chip": "ym2612"
    },
    {
      "channel": 3,
      "note": 45,
      "start": 94.4037,
      "duration": 3.5999,
      "velocity": 95,
      "chip": "ym2612"
    },
    {
      "channel": 0,
      "note": 74,
      "start": 94.4635,
      "duration": 0.0801,
      "velocity": 93,
      "chip": "ym2612"
    },
    {
      "channel": 0,
      "note": 78,
      "start": 94.5437,
      "duration": 0.0998,
      "velocity": 93,
      "chip": "ym2612"
    },
    {
      "channel": 1,
      "note": 62,
      "start": 94.5437,
      "duration": 0.1798,
      "velocity": 99,
      "chip": "ym2612"
    },
    {
      "channel": 2,
      "note": 83,
      "start": 94.5438,
      "duration": 0.34,
      "velocity": 127,
      "chip": "ym2612"
    },
    {
      "channel": 4,
      "note": 59,
      "start": 94.5439,
      "duration": 0.3399,
      "velocity": 93,
      "chip": "ym2612"
    },
    {
      "channel": 0,
      "note": 81,
      "start": 94.6436,
      "duration": 0.0799,
      "velocity": 93,
      "chip": "ym2612"
    },
    {
      "channel": 0,
      "note": 85,
      "start": 94.7236,
      "duration": 0.0799,
      "velocity": 93,
      "chip": "ym2612"
    },
    {
      "channel": 1,
      "note": 64,
      "start": 94.7236,
      "duration": 0.1601,
      "velocity": 99,
      "chip": "ym2612"
    },
    {
      "channel": 0,
      "note": 86,
      "start": 94.8035,
      "duration": 0.0802,
      "velocity": 93,
      "chip": "ym2612"
    },
    {
      "channel": 0,
      "note": 85,
      "start": 94.8837,
      "duration": 0.0998,
      "velocity": 93,
      "chip": "ym2612"
    },
    {
      "channel": 1,
      "note": 45,
      "start": 94.8837,
      "duration": 0.1799,
      "velocity": 99,
      "chip": "ym2612"
    },
    {
      "channel": 2,
      "note": 81,
      "start": 94.8838,
      "duration": 0.68,
      "velocity": 127,
      "chip": "ym2612"
    },
    {
      "channel": 4,
      "note": 57,
      "start": 94.8839,
      "duration": 0.68,
      "velocity": 93,
      "chip": "ym2612"
    },
    {
      "channel": 0,
      "note": 81,
      "start": 94.9835,
      "duration": 0.0801,
      "velocity": 93,
      "chip": "ym2612"
    },
    {
      "channel": 0,
      "note": 78,
      "start": 95.0636,
      "duration": 0.0199,
      "velocity": 93,
      "chip": "ym2612"
    },
    {
      "channel": 1,
      "note": 52,
      "start": 95.0637,
      "duration": 0.1599,
      "velocity": 99,
      "chip": "ym2612"
    },
    {
      "channel": 0,
      "note": 78,
      "start": 95.0836,
      "duration": 0.0599,
      "velocity": 93,
      "chip": "ym2612"
    },
    {
      "channel": 0,
      "note": 74,
      "start": 95.1435,
      "duration": 0.0599,
      "velocity": 93,
      "chip": "ym2612"
    },
    {
      "channel": 0,
      "note": 73,
      "start": 95.2236,
      "duration": 0.0999,
      "velocity": 93,
      "chip": "ym2612"
    },
    {
      "channel": 1,
      "note": 57,
      "start": 95.2237,
      "duration": 0.1799,
      "velocity": 99,
      "chip": "ym2612"
    },
    {
      "channel": 0,
      "note": 74,
      "start": 95.3235,
      "duration": 0.08,
      "velocity": 93,
      "chip": "ym2612"
    },
    {
      "channel": 0,
      "note": 78,
      "start": 95.4036,
      "duration": 0.0799,
      "velocity": 93,
      "chip": "ym2612"
    },
    {
      "channel": 1,
      "note": 62,
      "start": 95.4036,
      "duration": 0.1601,
      "velocity": 99,
      "chip": "ym2612"
    },
    {
      "channel": 0,
      "note": 81,
      "start": 95.4836,
      "duration": 0.0801,
      "velocity": 93,
      "chip": "ym2612"
    },
    {
      "channel": 0,
      "note": 85,
      "start": 95.5637,
      "duration": 0.0998,
      "velocity": 93,
      "chip": "ym2612"
    },
    {
      "channel": 1,
      "note": 64,
      "start": 95.5638,
      "duration": 0.1798,
      "velocity": 99,
      "chip": "ym2612"
    },
    {
      "channel": 2,
      "note": 76,
      "start": 95.5639,
      "duration": 0.34,
      "velocity": 127,
      "chip": "ym2612"
    },
    {
      "channel": 4,
      "note": 52,
      "start": 95.564,
      "duration": 0.3399,
      "velocity": 93,
      "chip": "ym2612"
    },
    {
      "channel": 0,
      "note": 86,
      "start": 95.6635,
      "duration": 0.08,
      "velocity": 93,
      "chip": "ym2612"
    },
    {
      "channel": 0,
      "note": 85,
      "start": 95.7436,
      "duration": 0.0799,
      "velocity": 93,
      "chip": "ym2612"
    },
    {
      "channel": 1,
      "note": 62,
      "start": 95.7436,
      "duration": 0.1602,
      "velocity": 99,
      "chip": "ym2612"
    },
    {
      "channel": 0,
      "note": 81,
      "start": 95.8235,
      "duration": 0.0802,
      "velocity": 93,
      "chip": "ym2612"
    },
    {
      "channel": 0,
      "note": 78,
      "start": 95.9037,
      "duration": 0.0998,
      "velocity": 93,
      "chip": "ym2612"
    },
    {
      "channel": 1,
      "note": 57,
      "start": 95.9038,
      "duration": 0.1798,
      "velocity": 99,
      "chip": "ym2612"
    },
    {
      "channel": 2,
      "note": 81,
      "start": 95.9039,
      "duration": 0.3399,
      "velocity": 127,
      "chip": "ym2612"
    },
    {
      "channel": 4,
      "note": 57,
      "start": 95.904,
      "duration": 0.3399,
      "velocity": 93,
      "chip": "ym2612"
    },
    {
      "channel": 0,
      "note": 74,
      "start": 96.0035,
      "duration": 0.0801,
      "velocity": 93,
      "chip": "ym2612"
    },
    {
      "channel": 0,
      "note": 73,
      "start": 96.0836,
      "duration": 0.0799,
      "velocity": 93,
      "chip": "ym2612"
    },
    {
      "channel": 1,
      "note": 52,
      "start": 96.0837,
      "duration": 0.16,
      "velocity": 99,
      "chip": "ym2612"
    },
    {
      "channel": 0,
      "note": 74,
      "start": 96.1635,
      "duration": 0.0801,
      "velocity": 93,
      "chip": "ym2612"
    },
    {
      "channel": 0,
      "note": 71,
      "start": 96.2437,
      "duration": 0.0998,
      "velocity": 93,
      "chip": "ym2612"
    },
    {
      "channel": 1,
      "note": 45,
      "start": 96.2437,
      "duration": 0.1799,
      "velocity": 99,
      "chip": "ym2612"
    },
    {
      "channel": 2,
      "note": 83,
      "start": 96.2438,
      "duration": 1.0199,
      "velocity": 127,
      "chip": "ym2612"
    },
    {
      "channel": 4,
      "note": 59,
      "start": 96.2439,
      "duration": 1.0199,
      "velocity": 93,
      "chip": "ym2612"
    },
    {
      "channel": 0,
      "note": 72,
      "start": 96.3435,
      "duration": 0.0801,
      "velocity": 93,
      "chip": "ym2612"
    },
    {
      "channel": 0,
      "note": 76,
      "start": 96.4236,
      "duration": 0.0799,
      "velocity": 93,
      "chip": "ym2612"
    },
    {
      "channel": 1,
      "note": 52,
      "start": 96.4237,
      "duration": 0.1599,
      "velocity": 99,
      "chip": "ym2612"
    },
    {
      "channel": 0,
      "note": 79,
      "start": 96.5035,
      "duration": 0.0801,
      "velocity": 93,
      "chip": "ym2612"
    },
    {
      "channel": 0,
      "note": 83,
      "start": 96.5836,
      "duration": 0.0999,
      "velocity": 93,
      "chip": "ym2612"
    },
    {
      "channel": 1,
      "note": 57,
      "start": 96.5837,
      "duration": 0.1799,
      "velocity": 99,
      "chip": "ym2612"
    },
    {
      "channel": 0,
      "note": 84,
      "start": 96.6835,
      "duration": 0.08,
      "velocity": 93,
      "chip": "ym2612"
    },
    {
      "channel": 0,
      "note": 83,
      "start": 96.7636,
      "duration": 0.0799,
      "velocity": 93,
      "chip": "ym2612"
    },
    {
      "channel": 1,
      "note": 62,
      "start": 96.7636,
      "duration": 0.1599,
      "velocity": 99,
      "chip": "ym2612"
    },
    {
      "channel": 0,
      "note": 79,
      "start": 96.8436,
      "duration": 0.0799,
      "velocity": 93,
      "chip": "ym2612"
    },
    {
      "channel": 0,
      "note": 76,
      "start": 96.9236,
      "duration": 0.0999,
      "velocity": 93,
      "chip": "ym2612"
    },
    {
      "channel": 1,
      "note": 64,
      "start": 96.9236,
      "duration": 0.1799,
      "velocity": 99,
      "chip": "ym2612"
    },
    {
      "channel": 0,
      "note": 72,
      "start": 97.0235,
      "duration": 0.08,
      "velocity": 93,
      "chip": "ym2612"
    },
    {
      "channel": 0,
      "note": 71,
      "start": 97.1036,
      "duration": 0.0799,
      "velocity": 93,
      "chip": "ym2612"
    },
    {
      "channel": 1,
      "note": 57,
      "start": 97.1036,
      "duration": 0.1601,
      "velocity": 99,
      "chip": "ym2612"
    },
    {
      "channel": 0,
      "note": 72,
      "start": 97.1835,
      "duration": 0.0801,
      "velocity": 93,
      "chip": "ym2612"
    },
    {
      "channel": 0,
      "note": 76,
      "start": 97.2637,
      "duration": 0.0798,
      "velocity": 93,
      "chip": "ym2612"
    },
    {
      "channel": 1,
      "note": 62,
      "start": 97.2637,
      "duration": 0.1799,
      "velocity": 99,
      "chip": "ym2612"
    },
    {
      "channel": 2,
      "note": 84,
      "start": 97.2638,
      "duration": 0.34,
      "velocity": 127,
      "chip": "ym2612"
    },
    {
      "channel": 4,
      "note": 60,
      "start": 97.2639,
      "duration": 0.3399,
      "velocity": 93,
      "chip": "ym2612"
    },
    {
      "channel": 0,
      "note": 79,
      "start": 97.3435,
      "duration": 0.1001,
      "velocity": 93,
      "chip": "ym2612"
    },
    {
      "channel": 0,
      "note": 83,
      "start": 97.4436,
      "duration": 0.0799,
      "velocity": 93,
      "chip": "ym2612"
    },
    {
      "channel": 1,
      "note": 64,
      "start": 97.4437,
      "duration": 0.16,
      "velocity": 99,
      "chip": "ym2612"
    },
    {
      "channel": 0,
      "note": 84,
      "start": 97.5235,
      "duration": 0.0802,
      "velocity": 93,
      "chip": "ym2612"
    },
    {
      "channel": 0,
      "note": 83,
      "start": 97.6037,
      "duration": 0.0798,
      "velocity": 93,
      "chip": "ym2612"
    },
    {
      "channel": 1,
      "note": 45,
      "start": 97.6037,
      "duration": 0.1798,
      "velocity": 99,
      "chip": "ym2612"
    },
    {
      "channel": 2,
      "note": 83,
      "start": 97.6038,
      "duration": 0.68,
      "velocity": 127,
      "chip": "ym2612"
    },
    {
      "channel": 4,
      "note": 59,
      "start": 97.6039,
      "duration": 0.6799,
      "velocity": 93,
      "chip": "ym2612"
    },
    {
      "channel": 0,
      "note": 79,
      "start": 97.6836,
      "duration": 0.0999,
      "velocity": 93,
      "chip": "ym2612"
    },
    {
      "channel": 0,
      "note": 76,
      "start": 97.7836,
      "duration": 0.02,
      "velocity": 93,
      "chip": "ym2612"
    },
    {
      "channel": 1,
      "note": 52,
      "start": 97.7836,
      "duration": 0.16,
      "velocity": 99,
      "chip": "ym2612"
    },
    {
      "channel": 0,
      "note": 76,
      "start": 97.8036,
      "duration": 0.0599,
      "velocity": 93,
      "chip": "ym2612"
    },
    {
      "channel": 0,
      "note": 72,
      "start": 97.8635,
      "duration": 0.0599,
      "velocity": 93,
      "chip": "ym2612"
    },
    {
      "channel": 0,
      "note": 71,
      "start": 97.9436,
      "duration": 0.0799,
      "velocity": 93,
      "chip": "ym2612"
    },
    {
      "channel": 1,
      "note": 57,
      "start": 97.9437,
      "duration": 0.1799,
      "velocity": 99,
      "chip": "ym2612"
    },
    {
      "channel": 3,
      "note": 45,
      "start": 98.0036,
      "duration": 2.528,
      "velocity": 95,
      "chip": "ym2612"
    },
    {
      "channel": 0,
      "note": 72,
      "start": 98.0235,
      "duration": 0.1,
      "velocity": 93,
      "chip": "ym2612"
    },
    {
      "channel": 0,
      "note": 76,
      "start": 98.1236,
      "duration": 0.0799,
      "velocity": 93,
      "chip": "ym2612"
    },
    {
      "channel": 1,
      "note": 62,
      "start": 98.1236,
      "duration": 0.1601,
      "velocity": 99,
      "chip": "ym2612"
    },
    {
      "channel": 0,
      "note": 79,
      "start": 98.2035,
      "duration": 0.0802,
      "velocity": 93,
      "chip": "ym2612"
    },
    {
      "channel": 0,
      "note": 83,
      "start": 98.2837,
      "duration": 0.0798,
      "velocity": 93,
      "chip": "ym2612"
    },
    {
      "channel": 1,
      "note": 64,
      "start": 98.2837,
      "duration": 0.1798,
      "velocity": 99,
      "chip": "ym2612"
    },
    {
      "channel": 2,
      "note": 81,
      "start": 98.2838,
      "duration": 0.34,
      "velocity": 127,
      "chip": "ym2612"
    },
    {
      "channel": 4,
      "note": 57,
      "start": 98.2839,
      "duration": 0.34,
      "velocity": 93,
      "chip": "ym2612"
    },
    {
      "channel": 0,
      "note": 84,
      "start": 98.3635,
      "duration": 0.1,
      "velocity": 93,
      "chip": "ym2612"
    },
    {
      "channel": 0,
      "note": 83,
      "start": 98.4636,
      "duration": 0.0799,
      "velocity": 93,
      "chip": "ym2612"
    },
    {
      "channel": 1,
      "note": 62,
      "start": 98.4636,
      "duration": 0.1601,
      "velocity": 99,
      "chip": "ym2612"
    },
    {
      "channel": 0,
      "note": 79,
      "start": 98.5436,
      "duration": 0.0801,
      "velocity": 93,
      "chip": "ym2612"
    },
    {
      "channel": 0,
      "note": 76,
      "start": 98.6237,
      "duration": 0.0798,
      "velocity": 93,
      "chip": "ym2612"
    },
    {
      "channel": 1,
      "note": 57,
      "start": 98.6238,
      "duration": 0.1798,
      "velocity": 99,
      "chip": "ym2612"
    },
    {
      "channel": 2,
      "note": 79,
      "start": 98.6239,
      "duration": 0.3399,
      "velocity": 127,
      "chip": "ym2612"
    },
    {
      "channel": 4,
      "note": 55,
      "start": 98.624,
      "duration": 0.3399,
      "velocity": 93,
      "chip": "ym2612"
    },
    {
      "channel": 0,
      "note": 72,
      "start": 98.7035,
      "duration": 0.1001,
      "velocity": 93,
      "chip": "ym2612"
    },
    {
      "channel": 0,
      "note": 71,
      "start": 98.8036,
      "duration": 0.0799,
      "velocity": 93,
      "chip": "ym2612"
    },
    {
      "channel": 1,
      "note": 52,
      "start": 98.8037,
      "duration": 0.16,
      "velocity": 99,
      "chip": "ym2612"
    },
    {
      "channel": 0,
      "note": 72,
      "start": 98.8835,
      "duration": 0.0802,
      "velocity": 93,
      "chip": "ym2612"
    },
    {
      "channel": 0,
      "note": 73,
      "start": 98.9637,
      "duration": 0.0798,
      "velocity": 93,
      "chip": "ym2612"
    },
    {
      "channel": 1,
      "note": 45,
      "start": 98.9638,
      "duration": 0.1798,
      "velocity": 99,
      "chip": "ym2612"
    },
    {
      "channel": 2,
      "note": 81,
      "start": 98.9639,
      "duration": 1.0199,
      "velocity": 127,
      "chip": "ym2612"
    },
    {
      "channel": 4,
      "note": 57,
      "start": 98.964,
      "duration": 1.0199,
      "velocity": 93,
      "chip": "ym2612"
    },
    {
      "channel": 0,
      "note": 74,
      "start": 99.0435,
      "duration": 0.1001,
      "velocity": 93,
      "chip": "ym2612"
    },
    {
      "channel": 0,
      "note": 78,
      "start": 99.1436,
      "duration": 0.0799,
      "velocity": 93,
      "chip": "ym2612"
    },
    {
      "channel": 1,
      "note": 52,
      "start": 99.1437,
      "duration": 0.1599,
      "velocity": 99,
      "chip": "ym2612"
    },
    {
      "channel": 0,
      "note": 81,
      "start": 99.2236,
      "duration": 0.08,
      "velocity": 93,
      "chip": "ym2612"
    },
    {
      "channel": 0,
      "note": 85,
      "start": 99.3036,
      "duration": 0.0799,
      "velocity": 93,
      "chip": "ym2612"
    },
    {
      "channel": 1,
      "note": 57,
      "start": 99.3037,
      "duration": 0.1799,
      "velocity": 99,
      "chip": "ym2612"
    },
    {
      "channel": 0,
      "note": 86,
      "start": 99.3835,
      "duration": 0.1,
      "velocity": 93,
      "chip": "ym2612"
    },
    {
      "channel": 0,
      "note": 85,
      "start": 99.4836,
      "duration": 0.0799,
      "velocity": 93,
      "chip": "ym2612"
    },
    {
      "channel": 1,
      "note": 62,
      "start": 99.4836,
      "duration": 0.16,
      "velocity": 99,
      "chip": "ym2612"
    },
    {
      "channel": 0,
      "note": 81,
      "start": 99.5635,
      "duration": 0.0801,
      "velocity": 93,
      "chip": "ym2612"
    },
    {
      "channel": 0,
      "note": 78,
      "start": 99.6436,
      "duration": 0.0799,
      "velocity": 93,
      "chip": "ym2612"
    },
    {
      "channel": 1,
      "note": 64,
      "start": 99.6437,
      "duration": 0.1799,
      "velocity": 99,
      "chip": "ym2612"
    },
    {
      "channel": 0,
      "note": 74,
      "start": 99.7235,
      "duration": 0.1,
      "velocity": 93,
      "chip": "ym2612"
    },
    {
      "channel": 0,
      "note": 73,
      "start": 99.8236,
      "duration": 0.0799,
      "velocity": 93,
      "chip": "ym2612"
    },
    {
      "channel": 1,
      "note": 57,
      "start": 99.8236,
      "duration": 0.1601,
      "velocity": 99,
      "chip": "ym2612"
    },
    {
      "channel": 0,
      "note": 74,
      "start": 99.9035,
      "duration": 0.0801,
      "velocity": 93,
      "chip": "ym2612"
    },
    {
      "channel": 0,
      "note": 78,
      "start": 99.9837,
      "duration": 0.0798,
      "velocity": 93,
      "chip": "ym2612"
    },
    {
      "channel": 1,
      "note": 62,
      "start": 99.9837,
      "duration": 0.1798,
      "velocity": 99,
      "chip": "ym2612"
    },
    {
      "channel": 2,
      "note": 83,
      "start": 99.9838,
      "duration": 0.3196,
      "velocity": 127,
      "chip": "ym2612"
    },
    {
      "channel": 4,
      "note": 59,
      "start": 99.9839,
      "duration": 0.3196,
      "velocity": 93,
      "chip": "ym2612"
    },
    {
      "channel": 0,
      "note": 81,
      "start": 100.0636,
      "duration": 0.0999,
      "velocity": 93,
      "chip": "ym2612"
    },
    {
      "channel": 0,
      "note": 85,
      "start": 100.1636,
      "duration": 0.0799,
      "velocity": 93,
      "chip": "ym2612"
    },
    {
      "channel": 1,
      "note": 64,
      "start": 100.1636,
      "duration": 0.1601,
      "velocity": 99,
      "chip": "ym2612"
    },
    {
      "channel": 0,
      "note": 86,
      "start": 100.2435,
      "duration": 0.0802,
      "velocity": 93,
      "chip": "ym2612"
    },
    {
      "channel": 0,
      "note": 85,
      "start": 100.3237,
      "duration": 0.0798,
      "velocity": 93,
      "chip": "ym2612"
    },
    {
      "channel": 1,
      "note": 45,
      "start": 100.3237,
      "duration": 0.16,
      "velocity": 99,
      "chip": "ym2612"
    },
    {
      "channel": 2,
      "note": 81,
      "start": 100.3238,
      "duration": 0.3969,
      "velocity": 127,
      "chip": "ym2612"
    },
    {
      "channel": 4,
      "note": 57,
      "start": 100.3239,
      "duration": 0.3968,
      "velocity": 93,
      "chip": "ym2612"
    },
    {
      "channel": 0,
      "note": 81,
      "start": 100.4035,
      "duration": 0.0801,
      "velocity": 93,
      "chip": "ym2612"
    },
    {
      "channel": 0,
      "note": 78,
      "start": 100.4837,
      "duration": 0.0007,
      "velocity": 93,
      "chip": "ym2612"
    },
    {
      "channel": 1,
      "note": 52,
      "start": 100.4837,
      "duration": 0.0087,
      "velocity": 99,
      "chip": "ym2612"
    },
    {
      "channel": 0,
      "note": 78,
      "start": 100.4844,
      "duration": 0.0007,
      "velocity": 93,
      "chip": "ym2612"
    },
    {
      "channel": 0,
      "note": 74,
      "start": 100.485,
      "duration": 0.0008,
      "velocity": 93,
      "chip": "ym2612"
    },
    {
      "channel": 0,
      "note": 73,
      "start": 100.4924,
      "duration": 0.0013,
      "velocity": 93,
      "chip": "ym2612"
    },
    {
      "channel": 1,
      "note": 57,
      "start": 100.4924,
      "duration": 0.0024,
      "velocity": 99,
      "chip": "ym2612"
    },
    {
      "channel": 0,
      "note": 74,
      "start": 100.4937,
      "duration": 0.001,
      "velocity": 93,
      "chip": "ym2612"
    },
    {
      "channel": 0,
      "note": 78,
      "start": 100.4948,
      "duration": 0.0014,
      "velocity": 93,
      "chip": "ym2612"
    },
    {
      "channel": 1,
      "note": 62,
      "start": 100.4949,
      "duration": 0.0568,
      "velocity": 99,
      "chip": "ym2612"
    },
    {
      "channel": 0,
      "note": 81,
      "start": 100.4962,
      "duration": 0.0554,
      "velocity": 93,
      "chip": "ym2612"
    },
    {
      "channel": 0,
      "note": 85,
      "start": 100.5517,
      "duration": 0.001,
      "velocity": 93,
      "chip": "ym2612"
    },
    {
      "channel": 1,
      "note": 64,
      "start": 100.5517,
      "duration": 0.0019,
      "velocity": 99,
      "chip": "ym2612"
    },
    {
      "channel": 0,
      "note": 86,
      "start": 100.5527,
      "duration": 0.0009,
      "velocity": 93,
      "chip": "ym2612"
    },
    {
      "channel": 0,
      "note": 85,
      "start": 100.5536,
      "duration": 0.0866,
      "velocity": 93,
      "chip": "ym2612"
    },
    {
      "channel": 1,
      "note": 62,
      "start": 100.5537,
      "duration": 0.167,
      "velocity": 99,
      "chip": "ym2612"
    },
    {
      "channel": 0,
      "note": 81,
      "start": 100.6402,
      "duration": 0.0803,
      "velocity": 93,
      "chip": "ym2612"
    },
    {
      "channel": 0,
      "note": 78,
      "start": 100.7205,
      "duration": 0.0012,
      "velocity": 93,
      "chip": "ym2612"
    },
    {
      "channel": 1,
      "note": 57,
      "start": 100.7206,
      "duration": 0.0369,
      "velocity": 99,
      "chip": "ym2612"
    },
    {
      "channel": 2,
      "note": 76,
      "start": 100.7207,
      "duration": 0.0369,
      "velocity": 127,
      "chip": "ym2612"
    },
    {
      "channel": 4,
      "note": 52,
      "start": 100.7208,
      "duration": 0.0369,
      "velocity": 93,
      "chip": "ym2612"
    },
    {
      "channel": 0,
      "note": 74,
      "start": 100.7218,
      "duration": 0.0357,
      "velocity": 93,
      "chip": "ym2612"
    },
    {
      "channel": 0,
      "note": 73,
      "start": 100.7575,
      "duration": 0.0014,
      "velocity": 93,
      "chip": "ym2612"
    },
    {
      "channel": 1,
      "note": 52,
      "start": 100.7576,
      "duration": 0.002,
      "velocity": 99,
      "chip": "ym2612"
    },
    {
      "channel": 2,
      "note": 74,
      "start": 100.7577,
      "duration": 0.0024,
      "velocity": 127,
      "chip": "ym2612"
    },
    {
      "channel": 4,
      "note": 50,
      "start": 100.7578,
      "duration": 0.0024,
      "velocity": 93,
      "chip": "ym2612"
    },
    {
      "channel": 0,
      "note": 74,
      "start": 100.7589,
      "duration": 0.0011,
      "velocity": 93,
      "chip": "ym2612"
    },
    {
      "channel": 0,
      "note": 71,
      "start": 100.76,
      "duration": 0.0011,
      "velocity": 93,
      "chip": "ym2612"
    },
    {
      "channel": 1,
      "note": 45,
      "start": 100.7601,
      "duration": 0.0366,
      "velocity": 99,
      "chip": "ym2612"
    },
    {
      "channel": 2,
      "note": 69,
      "start": 100.7601,
      "duration": 1.0654,
      "velocity": 127,
      "chip": "ym2612"
    },
    {
      "channel": 3,
      "note": 45,
      "start": 100.7602,
      "duration": 1.828,
      "velocity": 95,
      "chip": "ym2612"
    },
    {
      "channel": 4,
      "note": 45,
      "start": 100.7602,
      "duration": 1.0653,
      "velocity": 93,
      "chip": "ym2612"
    },
    {
      "channel": 0,
      "note": 72,
      "start": 100.7612,
      "duration": 0.0354,
      "velocity": 93,
      "chip": "ym2612"
    },
    {
      "channel": 0,
      "note": 76,
      "start": 100.7966,
      "duration": 0.0999,
      "velocity": 93,
      "chip": "ym2612"
    },
    {
      "channel": 1,
      "note": 52,
      "start": 100.7967,
      "duration": 0.1799,
      "velocity": 99,
      "chip": "ym2612"
    },
    {
      "channel": 0,
      "note": 79,
      "start": 100.8965,
      "duration": 0.0801,
      "velocity": 93,
      "chip": "ym2612"
    },
    {
      "channel": 0,
      "note": 83,
      "start": 100.9766,
      "duration": 0.0799,
      "velocity": 93,
      "chip": "ym2612"
    },
    {
      "channel": 1,
      "note": 57,
      "start": 100.9767,
      "duration": 0.1599,
      "velocity": 99,
      "chip": "ym2612"
    },
    {
      "channel": 0,
      "note": 84,
      "start": 101.0565,
      "duration": 0.08,
      "velocity": 93,
      "chip": "ym2612"
    },
    {
      "channel": 0,
      "note": 83,
      "start": 101.1366,
      "duration": 0.0999,
      "velocity": 93,
      "chip": "ym2612"
    },
    {
      "channel": 1,
      "note": 62,
      "start": 101.1366,
      "duration": 0.18,
      "velocity": 99,
      "chip": "ym2612"
    },
    {
      "channel": 0,
      "note": 79,
      "start": 101.2366,
      "duration": 0.08,
      "velocity": 93,
      "chip": "ym2612"
    },
    {
      "channel": 0,
      "note": 76,
      "start": 101.3166,
      "duration": 0.0012,
      "velocity": 93,
      "chip": "ym2612"
    },
    {
      "channel": 1,
      "note": 64,
      "start": 101.3167,
      "duration": 0.0022,
      "velocity": 99,
      "chip": "ym2612"
    },
    {
      "channel": 0,
      "note": 72,
      "start": 101.3178,
      "duration": 0.001,
      "velocity": 93,
      "chip": "ym2612"
    },
    {
      "channel": 0,
      "note": 71,
      "start": 101.3189,
      "duration": 0.0864,
      "velocity": 93,
      "chip": "ym2612"
    },
    {
      "channel": 1,
      "note": 57,
      "start": 101.319,
      "duration": 0.1664,
      "velocity": 99,
      "chip": "ym2612"
    },
    {
      "channel": 0,
      "note": 72,
      "start": 101.4053,
      "duration": 0.08,
      "velocity": 93,
      "chip": "ym2612"
    },
    {
      "channel": 0,
      "note": 76,
      "start": 101.4853,
      "duration": 0.0799,
      "velocity": 93,
      "chip": "ym2612"
    },
    {
      "channel": 1,
      "note": 62,
      "start": 101.4854,
      "duration": 0.16,
      "velocity": 99,
      "chip": "ym2612"
    },
    {
      "channel": 0,
      "note": 79,
      "start": 101.5653,
      "duration": 0.0801,
      "velocity": 93,
      "chip": "ym2612"
    },
    {
      "channel": 0,
      "note": 83,
      "start": 101.6454,
      "duration": 0.0999,
      "velocity": 93,
      "chip": "ym2612"
    },
    {
      "channel": 1,
      "note": 64,
      "start": 101.6455,
      "duration": 0.18,
      "velocity": 99,
      "chip": "ym2612"
    },
    {
      "channel": 0,
      "note": 84,
      "start": 101.7453,
      "duration": 0.0801,
      "velocity": 93,
      "chip": "ym2612"
    },
    {
      "channel": 0,
      "note": 83,
      "start": 101.8254,
      "duration": 0.001,
      "velocity": 93,
      "chip": "ym2612"
    },
    {
      "channel": 1,
      "note": 45,
      "start": 101.8255,
      "duration": 0.0369,
      "velocity": 99,
      "chip": "ym2612"
    },
    {
      "channel": 0,
      "note": 79,
      "start": 101.8265,
      "duration": 0.0358,
      "velocity": 93,
      "chip": "ym2612"
    },
    {
      "channel": 0,
      "note": 76,
      "start": 101.8623,
      "duration": 0.0401,
      "velocity": 93,
      "chip": "ym2612"
    },
    {
      "channel": 1,
      "note": 52,
      "start": 101.8623,
      "duration": 0.18,
      "velocity": 99,
      "chip": "ym2612"
    },
    {
      "channel": 0,
      "note": 76,
      "start": 101.9023,
      "duration": 0.0599,
      "velocity": 93,
      "chip": "ym2612"
    },
    {
      "channel": 0,
      "note": 72,
      "start": 101.9623,
      "duration": 0.0399,
      "velocity": 93,
      "chip": "ym2612"
    },
    {
      "channel": 0,
      "note": 71,
      "start": 102.0423,
      "duration": 0.0799,
      "velocity": 93,
      "chip": "ym2612"
    },
    {
      "channel": 1,
      "note": 57,
      "start": 102.0424,
      "duration": 0.16,
      "velocity": 99,
      "chip": "ym2612"
    },
    {
      "channel": 0,
      "note": 72,
      "start": 102.1223,
      "duration": 0.0801,
      "velocity": 93,
      "chip": "ym2612"
    },
    {
      "channel": 0,
      "note": 76,
      "start": 102.2023,
      "duration": 0.001,
      "velocity": 93,
      "chip": "ym2612"
    },
    {
      "channel": 1,
      "note": 62,
      "start": 102.2024,
      "duration": 0.0569,
      "velocity": 99,
      "chip": "ym2612"
    },
    {
      "channel": 0,
      "note": 79,
      "start": 102.2034,
      "duration": 0.0559,
      "velocity": 93,
      "chip": "ym2612"
    },
    {
      "channel": 0,
      "note": 83,
      "start": 102.2593,
      "duration": 0.0009,
      "velocity": 93,
      "chip": "ym2612"
    },
    {
      "channel": 1,
      "note": 64,
      "start": 102.2594,
      "duration": 0.0017,
      "velocity": 99,
      "chip": "ym2612"
    },
    {
      "channel": 0,
      "note": 84,
      "start": 102.2603,
      "duration": 0.0007,
      "velocity": 93,
      "chip": "ym2612"
    },
    {
      "channel": 0,
      "note": 83,
      "start": 102.261,
      "duration": 0.0669,
      "velocity": 93,
      "chip": "ym2612"
    },
    {
      "channel": 1,
      "note": 62,
      "start": 102.2611,
      "duration": 0.167,
      "velocity": 99,
      "chip": "ym2612"
    },
    {
      "channel": 0,
      "note": 79,
      "start": 102.328,
      "duration": 0.1,
      "velocity": 93,
      "chip": "ym2612"
    },
    {
      "channel": 0,
      "note": 76,
      "start": 102.428,
      "duration": 0.0799,
      "velocity": 93,
      "chip": "ym2612"
    },
    {
      "channel": 1,
      "note": 57,
      "start": 102.428,
      "duration": 0.1601,
      "velocity": 99,
      "chip": "ym2612"
    },
    {
      "channel": 0,
      "note": 72,
      "start": 102.508,
      "duration": 0.0801,
      "velocity": 93,
      "chip": "ym2612"
    },
    {
      "channel": 0,
      "note": 71,
      "start": 102.5881,
      "duration": 0.0799,
      "velocity": 93,
      "chip": "ym2612"
    },
    {
      "channel": 1,
      "note": 52,
      "start": 102.5882,
      "duration": 0.1801,
      "velocity": 99,
      "chip": "ym2612"
    },
    {
      "channel": 3,
      "note": 52,
      "start": 102.5883,
      "duration": 0.0798,
      "velocity": 95,
      "chip": "ym2612"
    },
    {
      "channel": 0,
      "note": 72,
      "start": 102.668,
      "duration": 0.1001,
      "velocity": 93,
      "chip": "ym2612"
    },
    {
      "channel": 3,
      "note": 55,
      "start": 102.6681,
      "duration": 0.1002,
      "velocity": 95,
      "chip": "ym2612"
    },
    {
      "channel": 0,
      "note": 73,
      "start": 102.7682,
      "duration": 0.001,
      "velocity": 93,
      "chip": "ym2612"
    },
    {
      "channel": 1,
      "note": 45,
      "start": 102.7683,
      "duration": 0.0369,
      "velocity": 99,
      "chip": "ym2612"
    },
    {
      "channel": 3,
      "note": 57,
      "start": 102.7684,
      "duration": 1.9883,
      "velocity": 95,
      "chip": "ym2612"
    },
    {
      "channel": 0,
      "note": 74,
      "start": 102.7693,
      "duration": 0.0358,
      "velocity": 93,
      "chip": "ym2612"
    },
    {
      "channel": 0,
      "note": 78,
      "start": 102.8051,
      "duration": 0.0799,
      "velocity": 93,
      "chip": "ym2612"
    },
    {
      "channel": 1,
      "note": 52,
      "start": 102.8051,
      "duration": 0.1799,
      "velocity": 99,
      "chip": "ym2612"
    },
    {
      "channel": 0,
      "note": 81,
      "start": 102.885,
      "duration": 0.1,
      "velocity": 93,
      "chip": "ym2612"
    },
    {
      "channel": 0,
      "note": 85,
      "start": 102.9851,
      "duration": 0.0799,
      "velocity": 93,
      "chip": "ym2612"
    },
    {
      "channel": 1,
      "note": 57,
      "start": 102.9851,
      "duration": 0.1599,
      "velocity": 99,
      "chip": "ym2612"
    },
    {
      "channel": 0,
      "note": 86,
      "start": 103.065,
      "duration": 0.08,
      "velocity": 93,
      "chip": "ym2612"
    },
    {
      "channel": 0,
      "note": 85,
      "start": 103.145,
      "duration": 0.0799,
      "velocity": 93,
      "chip": "ym2612"
    },
    {
      "channel": 1,
      "note": 62,
      "start": 103.1451,
      "duration": 0.1801,
      "velocity": 99,
      "chip": "ym2612"
    },
    {
      "channel": 0,
      "note": 81,
      "start": 103.225,
      "duration": 0.1001,
      "velocity": 93,
      "chip": "ym2612"
    },
    {
      "channel": 0,
      "note": 78,
      "start": 103.3251,
      "duration": 0.0009,
      "velocity": 93,
      "chip": "ym2612"
    },
    {
      "channel": 1,
      "note": 64,
      "start": 103.3252,
      "duration": 0.0016,
      "velocity": 99,
      "chip": "ym2612"
    },
    {
      "channel": 0,
      "note": 74,
      "start": 103.3261,
      "duration": 0.0006,
      "velocity": 93,
      "chip": "ym2612"
    },
    {
      "channel": 0,
      "note": 73,
      "start": 103.3267,
      "duration": 0.0669,
      "velocity": 93,
      "chip": "ym2612"
    },
    {
      "channel": 1,
      "note": 57,
      "start": 103.3268,
      "duration": 0.167,
      "velocity": 99,
      "chip": "ym2612"
    },
    {
      "channel": 0,
      "note": 74,
      "start": 103.3937,
      "duration": 0.1,
      "velocity": 93,
      "chip": "ym2612"
    },
    {
      "channel": 0,
      "note": 78,
      "start": 103.4937,
      "duration": 0.0799,
      "velocity": 93,
      "chip": "ym2612"
    },
    {
      "channel": 1,
      "note": 62,
      "start": 103.4937,
      "duration": 0.16,
      "velocity": 99,
      "chip": "ym2612"
    },
    {
      "channel": 0,
      "note": 81,
      "start": 103.5737,
      "duration": 0.08,
      "velocity": 93,
      "chip": "ym2612"
    },
    {
      "channel": 0,
      "note": 85,
      "start": 103.6537,
      "duration": 0.0799,
      "velocity": 93,
      "chip": "ym2612"
    },
    {
      "channel": 1,
      "note": 64,
      "start": 103.6537,
      "duration": 0.1801,
      "velocity": 99,
      "chip": "ym2612"
    },
    {
      "channel": 0,
      "note": 86,
      "start": 103.7337,
      "duration": 0.1001,
      "velocity": 93,
      "chip": "ym2612"
    },
    {
      "channel": 0,
      "note": 85,
      "start": 103.8338,
      "duration": 0.0009,
      "velocity": 93,
      "chip": "ym2612"
    },
    {
      "channel": 1,
      "note": 45,
      "start": 103.8339,
      "duration": 0.0368,
      "velocity": 99,
      "chip": "ym2612"
    },
    {
      "channel": 0,
      "note": 81,
      "start": 103.8348,
      "duration": 0.0358,
      "velocity": 93,
      "chip": "ym2612"
    },
    {
      "channel": 0,
      "note": 78,
      "start": 103.8707,
      "duration": 0.0199,
      "velocity": 93,
      "chip": "ym2612"
    },
    {
      "channel": 1,
      "note": 52,
      "start": 103.8707,
      "duration": 0.1799,
      "velocity": 99,
      "chip": "ym2612"
    },
    {
      "channel": 0,
      "note": 78,
      "start": 103.8906,
      "duration": 0.0599,
      "velocity": 93,
      "chip": "ym2612"
    },
    {
      "channel": 0,
      "note": 74,
      "start": 103.9506,
      "duration": 0.0599,
      "velocity": 93,
      "chip": "ym2612"
    },
    {
      "channel": 0,
      "note": 73,
      "start": 104.0507,
      "duration": 0.0799,
      "velocity": 93,
      "chip": "ym2612"
    },
    {
      "channel": 1,
      "note": 57,
      "start": 104.0507,
      "duration": 0.1601,
      "velocity": 99,
      "chip": "ym2612"
    },
    {
      "channel": 0,
      "note": 74,
      "start": 104.1306,
      "duration": 0.0801,
      "velocity": 93,
      "chip": "ym2612"
    },
    {
      "channel": 0,
      "note": 78,
      "start": 104.2107,
      "duration": 0.001,
      "velocity": 93,
      "chip": "ym2612"
    },
    {
      "channel": 1,
      "note": 62,
      "start": 104.2108,
      "duration": 0.057,
      "velocity": 99,
      "chip": "ym2612"
    },
    {
      "channel": 0,
      "note": 81,
      "start": 104.2118,
      "duration": 0.0559,
      "velocity": 93,
      "chip": "ym2612"
    },
    {
      "channel": 0,
      "note": 85,
      "start": 104.2677,
      "duration": 0.001,
      "velocity": 93,
      "chip": "ym2612"
    },
    {
      "channel": 1,
      "note": 64,
      "start": 104.2678,
      "duration": 0.0017,
      "velocity": 99,
      "chip": "ym2612"
    },
    {
      "channel": 0,
      "note": 86,
      "start": 104.2688,
      "duration": 0.0006,
      "velocity": 93,
      "chip": "ym2612"
    },
    {
      "channel": 0,
      "note": 85,
      "start": 104.2694,
      "duration": 0.0669,
      "velocity": 93,
      "chip": "ym2612"
    },
    {
      "channel": 1,
      "note": 62,
      "start": 104.2695,
      "duration": 0.147,
      "velocity": 99,
      "chip": "ym2612"
    },
    {
      "channel": 0,
      "note": 81,
      "start": 104.3363,
      "duration": 0.0801,
      "velocity": 93,
      "chip": "ym2612"
    },
    {
      "channel": 0,
      "note": 78,
      "start": 104.4164,
      "duration": 0.0999,
      "velocity": 93,
      "chip": "ym2612"
    },
    {
      "channel": 1,
      "note": 57,
      "start": 104.4165,
      "duration": 0.1799,
      "velocity": 99,
      "chip": "ym2612"
    },
    {
      "channel": 0,
      "note": 74,
      "start": 104.5163,
      "duration": 0.0801,
      "velocity": 93,
      "chip": "ym2612"
    },
    {
      "channel": 0,
      "note": 73,
      "start": 104.5964,
      "duration": 0.0799,
      "velocity": 93,
      "chip": "ym2612"
    },
    {
      "channel": 1,
      "note": 52,
      "start": 104.5965,
      "duration": 0.1601,
      "velocity": 99,
      "chip": "ym2612"
    },
    {
      "channel": 0,
      "note": 74,
      "start": 104.6763,
      "duration": 0.0802,
      "velocity": 93,
      "chip": "ym2612"
    },
    {
      "channel": 0,
      "note": 71,
      "start": 104.7566,
      "duration": 0.0011,
      "velocity": 93,
      "chip": "ym2612"
    },
    {
      "channel": 1,
      "note": 45,
      "start": 104.7566,
      "duration": 0.0567,
      "velocity": 99,
      "chip": "ym2612"
    },
    {
      "channel": 3,
      "note": 45,
      "start": 104.7567,
      "duration": 1.8478,
      "velocity": 95,
      "chip": "ym2612"
    },
    {
      "channel": 0,
      "note": 72,
      "start": 104.7577,
      "duration": 0.0556,
      "velocity": 93,
      "chip": "ym2612"
    },
    {
      "channel": 0,
      "note": 76,
      "start": 104.8133,
      "duration": 0.0799,
      "velocity": 93,
      "chip": "ym2612"
    },
    {
      "channel": 1,
      "note": 52,
      "start": 104.8134,
      "duration": 0.1601,
      "velocity": 99,
      "chip": "ym2612"
    },
    {
      "channel": 0,
      "note": 79,
      "start": 104.8932,
      "duration": 0.0801,
      "velocity": 93,
      "chip": "ym2612"
    },
    {
      "channel": 0,
      "note": 83,
      "start": 104.9734,
      "duration": 0.0998,
      "velocity": 93,
      "chip": "ym2612"
    },
    {
      "channel": 1,
      "note": 57,
      "start": 104.9735,
      "duration": 0.1798,
      "velocity": 99,
      "chip": "ym2612"
    },
    {
      "channel": 0,
      "note": 84,
      "start": 105.0732,
      "duration": 0.08,
      "velocity": 93,
      "chip": "ym2612"
    },
    {
      "channel": 0,
      "note": 83,
      "start": 105.1533,
      "duration": 0.0799,
      "velocity": 93,
      "chip": "ym2612"
    },
    {
      "channel": 1,
      "note": 62,
      "start": 105.1534,
      "duration": 0.16,
      "velocity": 99,
      "chip": "ym2612"
    },
    {
      "channel": 0,
      "note": 79,
      "start": 105.2333,
      "duration": 0.08,
      "velocity": 93,
      "chip": "ym2612"
    },
    {
      "channel": 0,
      "note": 76,
      "start": 105.3134,
      "duration": 0.0011,
      "velocity": 93,
      "chip": "ym2612"
    },
    {
      "channel": 1,
      "note": 64,
      "start": 105.3134,
      "duration": 0.0085,
      "velocity": 99,
      "chip": "ym2612"
    },
    {
      "channel": 0,
      "note": 72,
      "start": 105.3145,
      "duration": 0.0074,
      "velocity": 93,
      "chip": "ym2612"
    },
    {
      "channel": 0,
      "note": 71,
      "start": 105.322,
      "duration": 0.0799,
      "velocity": 93,
      "chip": "ym2612"
    },
    {
      "channel": 1,
      "note": 57,
      "start": 105.322,
      "duration": 0.1599,
      "velocity": 99,
      "chip": "ym2612"
    },
    {
      "channel": 0,
      "note": 72,
      "start": 105.4019,
      "duration": 0.08,
      "velocity": 93,
      "chip": "ym2612"
    },
    {
      "channel": 0,
      "note": 76,
      "start": 105.482,
      "duration": 0.0999,
      "velocity": 93,
      "chip": "ym2612"
    },
    {
      "channel": 1,
      "note": 62,
      "start": 105.482,
      "duration": 0.18,
      "velocity": 99,
      "chip": "ym2612"
    },
    {
      "channel": 0,
      "note": 79,
      "start": 105.5819,
      "duration": 0.0801,
      "velocity": 93,
      "chip": "ym2612"
    },
    {
      "channel": 0,
      "note": 83,
      "start": 105.662,
      "duration": 0.0799,
      "velocity": 93,
      "chip": "ym2612"
    },
    {
      "channel": 1,
      "note": 64,
      "start": 105.6621,
      "duration": 0.16,
      "velocity": 99,
      "chip": "ym2612"
    },
    {
      "channel": 0,
      "note": 84,
      "start": 105.7419,
      "duration": 0.0801,
      "velocity": 93,
      "chip": "ym2612"
    },
    {
      "channel": 0,
      "note": 83,
      "start": 105.8221,
      "duration": 0.001,
      "velocity": 93,
      "chip": "ym2612"
    },
    {
      "channel": 1,
      "note": 45,
      "start": 105.8222,
      "duration": 0.0567,
      "velocity": 99,
      "chip": "ym2612"
    },
    {
      "channel": 0,
      "note": 79,
      "start": 105.8231,
      "duration": 0.0557,
      "velocity": 93,
      "chip": "ym2612"
    },
    {
      "channel": 0,
      "note": 76,
      "start": 105.8788,
      "duration": 0.02,
      "velocity": 93,
      "chip": "ym2612"
    },
    {
      "channel": 1,
      "note": 52,
      "start": 105.8789,
      "duration": 0.16,
      "velocity": 99,
      "chip": "ym2612"
    },
    {
      "channel": 0,
      "note": 76,
      "start": 105.8988,
      "duration": 0.0599,
      "velocity": 93,
      "chip": "ym2612"
    },
    {
      "channel": 0,
      "note": 72,
      "start": 105.9588,
      "duration": 0.06,
      "velocity": 93,
      "chip": "ym2612"
    },
    {
      "channel": 0,
      "note": 71,
      "start": 106.0389,
      "duration": 0.0999,
      "velocity": 93,
      "chip": "ym2612"
    },
    {
      "channel": 1,
      "note": 57,
      "start": 106.039,
      "duration": 0.1799,
      "velocity": 99,
      "chip": "ym2612"
    },
    {
      "channel": 0,
      "note": 72,
      "start": 106.1388,
      "duration": 0.0801,
      "velocity": 93,
      "chip": "ym2612"
    },
    {
      "channel": 0,
      "note": 76,
      "start": 106.2189,
      "duration": 0.0009,
      "velocity": 93,
      "chip": "ym2612"
    },
    {
      "channel": 1,
      "note": 62,
      "start": 106.219,
      "duration": 0.0368,
      "velocity": 99,
      "chip": "ym2612"
    },
    {
      "channel": 0,
      "note": 79,
      "start": 106.2198,
      "duration": 0.036,
      "velocity": 93,
      "chip": "ym2612"
    },
    {
      "channel": 0,
      "note": 83,
      "start": 106.2558,
      "duration": 0.001,
      "velocity": 93,
      "chip": "ym2612"
    },
    {
      "channel": 1,
      "note": 64,
      "start": 106.2559,
      "duration": 0.0084,
      "velocity": 99,
      "chip": "ym2612"
    },
    {
      "channel": 0,
      "note": 84,
      "start": 106.2568,
      "duration": 0.0074,
      "velocity": 93,
      "chip": "ym2612"
    },
    {
      "channel": 0,
      "note": 83,
      "start": 106.2642,
      "duration": 0.0799,
      "velocity": 93,
      "chip": "ym2612"
    },
    {
      "channel": 1,
      "note": 62,
      "start": 106.2643,
      "duration": 0.1599,
      "velocity": 99,
      "chip": "ym2612"
    },
    {
      "channel": 0,
      "note": 79,
      "start": 106.3442,
      "duration": 0.0799,
      "velocity": 93,
      "chip": "ym2612"
    },
    {
      "channel": 0,
      "note": 76,
      "start": 106.4242,
      "duration": 0.0999,
      "velocity": 93,
      "chip": "ym2612"
    },
    {
      "channel": 1,
      "note": 57,
      "start": 106.4243,
      "duration": 0.1801,
      "velocity": 99,
      "chip": "ym2612"
    },
    {
      "channel": 0,
      "note": 72,
      "start": 106.5242,
      "duration": 0.0801,
      "velocity": 93,
      "chip": "ym2612"
    },
    {
      "channel": 0,
      "note": 71,
      "start": 106.6043,
      "duration": 0.0799,
      "velocity": 93,
      "chip": "ym2612"
    },
    {
      "channel": 1,
      "note": 52,
      "start": 106.6044,
      "duration": 0.1601,
      "velocity": 99,
      "chip": "ym2612"
    },
    {
      "channel": 3,
      "note": 50,
      "start": 106.6045,
      "duration": 0.0798,
      "velocity": 95,
      "chip": "ym2612"
    },
    {
      "channel": 0,
      "note": 72,
      "start": 106.6842,
      "duration": 0.0802,
      "velocity": 93,
      "chip": "ym2612"
    },
    {
      "channel": 3,
      "note": 52,
      "start": 106.6844,
      "duration": 0.0802,
      "velocity": 95,
      "chip": "ym2612"
    },
    {
      "channel": 0,
      "note": 73,
      "start": 106.7644,
      "duration": 0.001,
      "velocity": 93,
      "chip": "ym2612"
    },
    {
      "channel": 1,
      "note": 45,
      "start": 106.7645,
      "duration": 0.0567,
      "velocity": 99,
      "chip": "ym2612"
    },
    {
      "channel": 3,
      "note": 57,
      "start": 106.7646,
      "duration": 2.008,
      "velocity": 95,
      "chip": "ym2612"
    },
    {
      "channel": 0,
      "note": 74,
      "start": 106.7655,
      "duration": 0.0557,
      "velocity": 93,
      "chip": "ym2612"
    },
    {
      "channel": 0,
      "note": 78,
      "start": 106.8212,
      "duration": 0.0799,
      "velocity": 93,
      "chip": "ym2612"
    },
    {
      "channel": 1,
      "note": 52,
      "start": 106.8213,
      "duration": 0.1601,
      "velocity": 99,
      "chip": "ym2612"
    },
    {
      "channel": 0,
      "note": 81,
      "start": 106.9012,
      "duration": 0.0801,
      "velocity": 93,
      "chip": "ym2612"
    },
    {
      "channel": 0,
      "note": 85,
      "start": 106.9813,
      "duration": 0.0799,
      "velocity": 93,
      "chip": "ym2612"
    },
    {
      "channel": 1,
      "note": 57,
      "start": 106.9815,
      "duration": 0.1798,
      "velocity": 99,
      "chip": "ym2612"
    },
    {
      "channel": 0,
      "note": 86,
      "start": 107.0612,
      "duration": 0.1,
      "velocity": 93,
      "chip": "ym2612"
    },
    {
      "channel": 0,
      "note": 85,
      "start": 107.1612,
      "duration": 0.0799,
      "velocity": 93,
      "chip": "ym2612"
    },
    {
      "channel": 1,
      "note": 62,
      "start": 107.1613,
      "duration": 0.1601,
      "velocity": 99,
      "chip": "ym2612"
    },
    {
      "channel": 0,
      "note": 81,
      "start": 107.2412,
      "duration": 0.0801,
      "velocity": 93,
      "chip": "ym2612"
    },
    {
      "channel": 0,
      "note": 78,
      "start": 107.3214,
      "duration": 0.0008,
      "velocity": 93,
      "chip": "ym2612"
    },
    {
      "channel": 1,
      "note": 64,
      "start": 107.3215,
      "duration": 0.0084,
      "velocity": 99,
      "chip": "ym2612"
    },
    {
      "channel": 0,
      "note": 74,
      "start": 107.3222,
      "duration": 0.0076,
      "velocity": 93,
      "chip": "ym2612"
    },
    {
      "channel": 0,
      "note": 73,
      "start": 107.3299,
      "duration": 0.0799,
      "velocity": 93,
      "chip": "ym2612"
    },
    {
      "channel": 1,
      "note": 57,
      "start": 107.3299,
      "duration": 0.1599,
      "velocity": 99,
      "chip": "ym2612"
    },
    {
      "channel": 0,
      "note": 74,
      "start": 107.4098,
      "duration": 0.08,
      "velocity": 93,
      "chip": "ym2612"
    },
    {
      "channel": 0,
      "note": 78,
      "start": 107.4899,
      "duration": 0.0799,
      "velocity": 93,
      "chip": "ym2612"
    },
    {
      "channel": 1,
      "note": 62,
      "start": 107.4899,
      "duration": 0.1799,
      "velocity": 99,
      "chip": "ym2612"
    },
    {
      "channel": 0,
      "note": 81,
      "start": 107.5699,
      "duration": 0.0999,
      "velocity": 93,
      "chip": "ym2612"
    },
    {
      "channel": 0,
      "note": 85,
      "start": 107.6699,
      "duration": 0.0799,
      "velocity": 93,
      "chip": "ym2612"
    },
    {
      "channel": 1,
      "note": 64,
      "start": 107.6699,
      "duration": 0.1601,
      "velocity": 99,
      "chip": "ym2612"
    },
    {
      "channel": 0,
      "note": 86,
      "start": 107.7498,
      "duration": 0.0801,
      "velocity": 93,
      "chip": "ym2612"
    },
    {
      "channel": 0,
      "note": 85,
      "start": 107.83,
      "duration": 0.0008,
      "velocity": 93,
      "chip": "ym2612"
    },
    {
      "channel": 1,
      "note": 45,
      "start": 107.8301,
      "duration": 0.0568,
      "velocity": 99,
      "chip": "ym2612"
    },
    {
      "channel": 0,
      "note": 81,
      "start": 107.8308,
      "duration": 0.0559,
      "velocity": 93,
      "chip": "ym2612"
    },
    {
      "channel": 0,
      "note": 78,
      "start": 107.8868,
      "duration": 0.0199,
      "velocity": 93,
      "chip": "ym2612"
    },
    {
      "channel": 1,
      "note": 52,
      "start": 107.8869,
      "duration": 0.16,
      "velocity": 99,
      "chip": "ym2612"
    },
    {
      "channel": 0,
      "note": 78,
      "start": 107.9068,
      "duration": 0.0599,
      "velocity": 93,
      "chip": "ym2612"
    },
    {
      "channel": 0,
      "note": 74,
      "start": 107.9667,
      "duration": 0.06,
      "velocity": 93,
      "chip": "ym2612"
    },
    {
      "channel": 0,
      "note": 73,
      "start": 108.0469,
      "duration": 0.0798,
      "velocity": 93,
      "chip": "ym2612"
    },
    {
      "channel": 1,
      "note": 57,
      "start": 108.047,
      "duration": 0.1799,
      "velocity": 99,
      "chip": "ym2612"
    },
    {
      "channel": 0,
      "note": 74,
      "start": 108.1267,
      "duration": 0.1001,
      "velocity": 93,
      "chip": "ym2612"
    },
    {
      "channel": 0,
      "note": 78,
      "start": 108.2268,
      "duration": 0.0008,
      "velocity": 93,
      "chip": "ym2612"
    },
    {
      "channel": 1,
      "note": 62,
      "start": 108.2269,
      "duration": 0.0369,
      "velocity": 99,
      "chip": "ym2612"
    },
    {
      "channel": 0,
      "note": 81,
      "start": 108.2278,
      "duration": 0.036,
      "velocity": 93,
      "chip": "ym2612"
    },
    {
      "channel": 0,
      "note": 85,
      "start": 108.2638,
      "duration": 0.001,
      "velocity": 93,
      "chip": "ym2612"
    },
    {
      "channel": 1,
      "note": 64,
      "start": 108.2639,
      "duration": 0.0085,
      "velocity": 99,
      "chip": "ym2612"
    },
    {
      "channel": 0,
      "note": 86,
      "start": 108.2648,
      "duration": 0.0075,
      "velocity": 93,
      "chip": "ym2612"
    },
    {
      "channel": 0,
      "note": 85,
      "start": 108.2724,
      "duration": 0.0799,
      "velocity": 93,
      "chip": "ym2612"
    },
    {
      "channel": 1,
      "note": 62,
      "start": 108.2724,
      "duration": 0.16,
      "velocity": 99,
      "chip": "ym2612"
    },
    {
      "channel": 0,
      "note": 81,
      "start": 108.3523,
      "duration": 0.0801,
      "velocity": 93,
      "chip": "ym2612"
    },
    {
      "channel": 0,
      "note": 78,
      "start": 108.4324,
      "duration": 0.0799,
      "velocity": 93,
      "chip": "ym2612"
    },
    {
      "channel": 1,
      "note": 57,
      "start": 108.4325,
      "duration": 0.1799,
      "velocity": 99,
      "chip": "ym2612"
    },
    {
      "channel": 0,
      "note": 74,
      "start": 108.5123,
      "duration": 0.1001,
      "velocity": 93,
      "chip": "ym2612"
    },
    {
      "channel": 0,
      "note": 73,
      "start": 108.6124,
      "duration": 0.0799,
      "velocity": 93,
      "chip": "ym2612"
    },
    {
      "channel": 1,
      "note": 52,
      "start": 108.6125,
      "duration": 0.1398,
      "velocity": 99,
      "chip": "ym2612"
    },
    {
      "channel": 0,
      "note": 74,
      "start": 108.6923,
      "duration": 0.0802,
      "velocity": 93,
      "chip": "ym2612"
    },
    {
      "channel": 0,
      "note": 76,
      "start": 108.7726,
      "duration": 0.0009,
      "velocity": 93,
      "chip": "ym2612"
    },
    {
      "channel": 1,
      "note": 50,
      "start": 108.7727,
      "duration": 0.0366,
      "velocity": 99,
      "chip": "ym2612"
    },
    {
      "channel": 3,
      "note": 50,
      "start": 108.7727,
      "duration": 1.8278,
      "velocity": 95,
      "chip": "ym2612"
    },
    {
      "channel": 0,
      "note": 77,
      "start": 108.7734,
      "duration": 0.0358,
      "velocity": 93,
      "chip": "ym2612"
    },
    {
      "channel": 0,
      "note": 81,
      "start": 108.8093,
      "duration": 0.0999,
      "velocity": 93,
      "chip": "ym2612"
    },
    {
      "channel": 1,
      "note": 57,
      "start": 108.8093,
      "duration": 0.1799,
      "velocity": 99,
      "chip": "ym2612"
    },
    {
      "channel": 0,
      "note": 84,
      "start": 108.9091,
      "duration": 0.08,
      "velocity": 93,
      "chip": "ym2612"
    },
    {
      "channel": 0,
      "note": 88,
      "start": 108.9892,
      "duration": 0.0799,
      "velocity": 93,
      "chip": "ym2612"
    },
    {
      "channel": 1,
      "note": 62,
      "start": 108.9893,
      "duration": 0.16,
      "velocity": 99,
      "chip": "ym2612"
    },
    {
      "channel": 0,
      "note": 89,
      "start": 109.0691,
      "duration": 0.0801,
      "velocity": 93,
      "chip": "ym2612"
    },
    {
      "channel": 0,
      "note": 88,
      "start": 109.1493,
      "duration": 0.0999,
      "velocity": 93,
      "chip": "ym2612"
    },
    {
      "channel": 1,
      "note": 67,
      "start": 109.1493,
      "duration": 0.18,
      "velocity": 99,
      "chip": "ym2612"
    },
    {
      "channel": 0,
      "note": 84,
      "start": 109.2491,
      "duration": 0.0801,
      "velocity": 93,
      "chip": "ym2612"
    },
    {
      "channel": 0,
      "note": 81,
      "start": 109.3293,
      "duration": 0.0009,
      "velocity": 93,
      "chip": "ym2612"
    },
    {
      "channel": 1,
      "note": 69,
      "start": 109.3294,
      "duration": 0.0016,
      "velocity": 99,
      "chip": "ym2612"
    },
    {
      "channel": 0,
      "note": 77,
      "start": 109.3303,
      "duration": 0.0007,
      "velocity": 93,
      "chip": "ym2612"
    },
    {
      "channel": 0,
      "note": 76,
      "start": 109.331,
      "duration": 0.0868,
      "velocity": 93,
      "chip": "ym2612"
    },
    {
      "channel": 1,
      "note": 62,
      "start": 109.3311,
      "duration": 0.1669,
      "velocity": 99,
      "chip": "ym2612"
    },
    {
      "channel": 0,
      "note": 77,
      "start": 109.4178,
      "duration": 0.0801,
      "velocity": 93,
      "chip": "ym2612"
    },
    {
      "channel": 0,
      "note": 81,
      "start": 109.498,
      "duration": 0.0799,
      "velocity": 93,
      "chip": "ym2612"
    },
    {
      "channel": 1,
      "note": 67,
      "start": 109.498,
      "duration": 0.1599,
      "velocity": 99,
      "chip": "ym2612"
    },
    {
      "channel": 0,
      "note": 84,
      "start": 109.5778,
      "duration": 0.0801,
      "velocity": 93,
      "chip": "ym2612"
    },
    {
      "channel": 0,
      "note": 88,
      "start": 109.658,
      "duration": 0.0999,
      "velocity": 93,
      "chip": "ym2612"
    },
    {
      "channel": 1,
      "note": 69,
      "start": 109.658,
      "duration": 0.18,
      "velocity": 99,
      "chip": "ym2612"
    },
    {
      "channel": 0,
      "note": 89,
      "start": 109.758,
      "duration": 0.08,
      "velocity": 93,
      "chip": "ym2612"
    },
    {
      "channel": 0,
      "note": 88,
      "start": 109.838,
      "duration": 0.0009,
      "velocity": 93,
      "chip": "ym2612"
    },
    {
      "channel": 1,
      "note": 50,
      "start": 109.8381,
      "duration": 0.0368,
      "velocity": 99,
      "chip": "ym2612"
    },
    {
      "channel": 0,
      "note": 84,
      "start": 109.8389,
      "duration": 0.0359,
      "velocity": 93,
      "chip": "ym2612"
    },
    {
      "channel": 0,
      "note": 81,
      "start": 109.8749,
      "duration": 0.0399,
      "velocity": 93,
      "chip": "ym2612"
    },
    {
      "channel": 1,
      "note": 57,
      "start": 109.875,
      "duration": 0.1799,
      "velocity": 99,
      "chip": "ym2612"
    },
    {
      "channel": 0,
      "note": 81,
      "start": 109.9148,
      "duration": 0.0599,
      "velocity": 93,
      "chip": "ym2612"
    },
    {
      "channel": 0,
      "note": 77,
      "start": 109.9748,
      "duration": 0.0399,
      "velocity": 93,
      "chip": "ym2612"
    },
    {
      "channel": 0,
      "note": 76,
      "start": 110.0549,
      "duration": 0.0799,
      "velocity": 93,
      "chip": "ym2612"
    },
    {
      "channel": 1,
      "note": 62,
      "start": 110.055,
      "duration": 0.16,
      "velocity": 99,
      "chip": "ym2612"
    },
    {
      "channel": 0,
      "note": 77,
      "start": 110.1348,
      "duration": 0.0801,
      "velocity": 93,
      "chip": "ym2612"
    },
    {
      "channel": 0,
      "note": 81,
      "start": 110.215,
      "duration": 0.001,
      "velocity": 93,
      "chip": "ym2612"
    },
    {
      "channel": 1,
      "note": 67,
      "start": 110.215,
      "duration": 0.0568,
      "velocity": 99,
      "chip": "ym2612"
    },
    {
      "channel": 0,
      "note": 84,
      "start": 110.2159,
      "duration": 0.0559,
      "velocity": 93,
      "chip": "ym2612"
    },
    {
      "channel": 0,
      "note": 88,
      "start": 110.2719,
      "duration": 0.0008,
      "velocity": 93,
      "chip": "ym2612"
    },
    {
      "channel": 1,
      "note": 69,
      "start": 110.2719,
      "duration": 0.0015,
      "velocity": 99,
      "chip": "ym2612"
    },
    {
      "channel": 0,
      "note": 89,
      "start": 110.2727,
      "duration": 0.0007,
      "velocity": 93,
      "chip": "ym2612"
    },
    {
      "channel": 0,
      "note": 88,
      "start": 110.2735,
      "duration": 0.0868,
      "velocity": 93,
      "chip": "ym2612"
    },
    {
      "channel": 1,
      "note": 67,
      "start": 110.2735,
      "duration": 0.1668,
      "velocity": 99,
      "chip": "ym2612"
    },
    {
      "channel": 0,
      "note": 84,
      "start": 110.3603,
      "duration": 0.08,
      "velocity": 93,
      "chip": "ym2612"
    },
    {
      "channel": 0,
      "note": 81,
      "start": 110.4404,
      "duration": 0.0799,
      "velocity": 93,
      "chip": "ym2612"
    },
    {
      "channel": 1,
      "note": 62,
      "start": 110.4404,
      "duration": 0.16,
      "velocity": 99,
      "chip": "ym2612"
    },
    {
      "channel": 0,
      "note": 77,
      "start": 110.5204,
      "duration": 0.08,
      "velocity": 93,
      "chip": "ym2612"
    },
    {
      "channel": 0,
      "note": 76,
      "start": 110.6004,
      "duration": 0.0999,
      "velocity": 93,
      "chip": "ym2612"
    },
    {
      "channel": 1,
      "note": 57,
      "start": 110.6005,
      "duration": 0.1801,
      "velocity": 99,
      "chip": "ym2612"
    },
    {
      "channel": 3,
      "note": 55,
      "start": 110.6006,
      "duration": 0.0999,
      "velocity": 95,
      "chip": "ym2612"
    },
    {
      "channel": 0,
      "note": 77,
      "start": 110.7004,
      "duration": 0.0801,
      "velocity": 93,
      "chip": "ym2612"
    },
    {
      "channel": 3,
      "note": 57,
      "start": 110.7005,
      "duration": 0.0802,
      "velocity": 95,
      "chip": "ym2612"
    },
    {
      "channel": 0,
      "note": 78,
      "start": 110.7806,
      "duration": 0.001,
      "velocity": 93,
      "chip": "ym2612"
    },
    {
      "channel": 1,
      "note": 50,
      "start": 110.7806,
      "duration": 0.0368,
      "velocity": 99,
      "chip": "ym2612"
    },
    {
      "channel": 3,
      "note": 62,
      "start": 110.7807,
      "duration": 1.6678,
      "velocity": 95,
      "chip": "ym2612"
    },
    {
      "channel": 0,
      "note": 79,
      "start": 110.7816,
      "duration": 0.0358,
      "velocity": 93,
      "chip": "ym2612"
    },
    {
      "channel": 0,
      "note": 83,
      "start": 110.8175,
      "duration": 0.0999,
      "velocity": 93,
      "chip": "ym2612"
    },
    {
      "channel": 1,
      "note": 57,
      "start": 110.8175,
      "duration": 0.1799,
      "velocity": 99,
      "chip": "ym2612"
    },
    {
      "channel": 0,
      "note": 86,
      "start": 110.9173,
      "duration": 0.08,
      "velocity": 93,
      "chip": "ym2612"
    },
    {
      "channel": 0,
      "note": 90,
      "start": 110.9974,
      "duration": 0.0799,
      "velocity": 93,
      "chip": "ym2612"
    },
    {
      "channel": 1,
      "note": 62,
      "start": 110.9975,
      "duration": 0.16,
      "velocity": 99,
      "chip": "ym2612"
    },
    {
      "channel": 0,
      "note": 91,
      "start": 111.0773,
      "duration": 0.0801,
      "velocity": 93,
      "chip": "ym2612"
    },
    {
      "channel": 0,
      "note": 90,
      "start": 111.1575,
      "duration": 0.0799,
      "velocity": 93,
      "chip": "ym2612"
    },
    {
      "channel": 1,
      "note": 67,
      "start": 111.1575,
      "duration": 0.18,
      "velocity": 99,
      "chip": "ym2612"
    },
    {
      "channel": 0,
      "note": 86,
      "start": 111.2373,
      "duration": 0.1001,
      "velocity": 93,
      "chip": "ym2612"
    },
    {
      "channel": 0,
      "note": 83,
      "start": 111.3375,
      "duration": 0.0008,
      "velocity": 93,
      "chip": "ym2612"
    },
    {
      "channel": 1,
      "note": 69,
      "start": 111.3376,
      "duration": 0.0015,
      "velocity": 99,
      "chip": "ym2612"
    },
    {
      "channel": 0,
      "note": 79,
      "start": 111.3384,
      "duration": 0.0006,
      "velocity": 93,
      "chip": "ym2612"
    },
    {
      "channel": 0,
      "note": 78,
      "start": 111.3391,
      "duration": 0.0668,
      "velocity": 93,
      "chip": "ym2612"
    },
    {
      "channel": 1,
      "note": 62,
      "start": 111.3392,
      "duration": 0.1669,
      "velocity": 99,
      "chip": "ym2612"
    },
    {
      "channel": 0,
      "note": 79,
      "start": 111.4059,
      "duration": 0.1001,
      "velocity": 93,
      "chip": "ym2612"
    },
    {
      "channel": 0,
      "note": 83,
      "start": 111.5061,
      "duration": 0.0799,
      "velocity": 93,
      "chip": "ym2612"
    },
    {
      "channel": 1,
      "note": 67,
      "start": 111.5061,
      "duration": 0.1599,
      "velocity": 99,
      "chip": "ym2612"
    },
    {
      "channel": 0,
      "note": 86,
      "start": 111.5859,
      "duration": 0.0801,
      "velocity": 93,
      "chip": "ym2612"
    },
    {
      "channel": 0,
      "note": 90,
      "start": 111.6661,
      "duration": 0.0799,
      "velocity": 93,
      "chip": "ym2612"
    },
    {
      "channel": 1,
      "note": 69,
      "start": 111.6661,
      "duration": 0.18,
      "velocity": 99,
      "chip": "ym2612"
    },
    {
      "channel": 0,
      "note": 91,
      "start": 111.7459,
      "duration": 0.1001,
      "velocity": 93,
      "chip": "ym2612"
    },
    {
      "channel": 0,
      "note": 90,
      "start": 111.8461,
      "duration": 0.0009,
      "velocity": 93,
      "chip": "ym2612"
    },
    {
      "channel": 1,
      "note": 50,
      "start": 111.8462,
      "duration": 0.0368,
      "velocity": 99,
      "chip": "ym2612"
    },
    {
      "channel": 0,
      "note": 86,
      "start": 111.847,
      "duration": 0.0359,
      "velocity": 93,
      "chip": "ym2612"
    },
    {
      "channel": 0,
      "note": 83,
      "start": 111.8829,
      "duration": 0.0399,
      "velocity": 93,
      "chip": "ym2612"
    },
    {
      "channel": 1,
      "note": 57,
      "start": 111.883,
      "duration": 0.1799,
      "velocity": 99,
      "chip": "ym2612"
    },
    {
      "channel": 0,
      "note": 83,
      "start": 111.9229,
      "duration": 0.0399,
      "velocity": 93,
      "chip": "ym2612"
    },
    {
      "channel": 0,
      "note": 79,
      "start": 111.9629,
      "duration": 0.0599,
      "velocity": 93,
      "chip": "ym2612"
    },
    {
      "channel": 0,
      "note": 78,
      "start": 112.0629,
      "duration": 0.0799,
      "velocity": 93,
      "chip": "ym2612"
    },
    {
      "channel": 1,
      "note": 62,
      "start": 112.063,
      "duration": 0.16,
      "velocity": 99,
      "chip": "ym2612"
    },
    {
      "channel": 0,
      "note": 79,
      "start": 112.1428,
      "duration": 0.0801,
      "velocity": 93,
      "chip": "ym2612"
    },
    {
      "channel": 0,
      "note": 83,
      "start": 112.223,
      "duration": 0.0008,
      "velocity": 93,
      "chip": "ym2612"
    },
    {
      "channel": 1,
      "note": 67,
      "start": 112.2231,
      "duration": 0.0568,
      "velocity": 99,
      "chip": "ym2612"
    },
    {
      "channel": 0,
      "note": 86,
      "start": 112.2238,
      "duration": 0.056,
      "velocity": 93,
      "chip": "ym2612"
    },
    {
      "channel": 0,
      "note": 90,
      "start": 112.2799,
      "duration": 0.0009,
      "velocity": 93,
      "chip": "ym2612"
    },
    {
      "channel": 1,
      "note": 69,
      "start": 112.28,
      "duration": 0.0016,
      "velocity": 99,
      "chip": "ym2612"
    },
    {
      "channel": 0,
      "note": 91,
      "start": 112.2807,
      "duration": 0.0007,
      "velocity": 93,
      "chip": "ym2612"
    },
    {
      "channel": 0,
      "note": 90,
      "start": 112.2815,
      "duration": 0.0668,
      "velocity": 93,
      "chip": "ym2612"
    },
    {
      "channel": 1,
      "note": 67,
      "start": 112.2816,
      "duration": 0.1669,
      "velocity": 99,
      "chip": "ym2612"
    },
    {
      "channel": 0,
      "note": 86,
      "start": 112.3484,
      "duration": 0.1001,
      "velocity": 93,
      "chip": "ym2612"
    },
    {
      "channel": 0,
      "note": 83,
      "start": 112.4485,
      "duration": 0.0799,
      "velocity": 93,
      "chip": "ym2612"
    },
    {
      "channel": 1,
      "note": 62,
      "start": 112.4486,
      "duration": 0.1599,
      "velocity": 99,
      "chip": "ym2612"
    },
    {
      "channel": 3,
      "note": 60,
      "start": 112.4486,
      "duration": 0.1599,
      "velocity": 95,
      "chip": "ym2612"
    },
    {
      "channel": 0,
      "note": 79,
      "start": 112.5284,
      "duration": 0.08,
      "velocity": 93,
      "chip": "ym2612"
    },
    {
      "channel": 0,
      "note": 78,
      "start": 112.6085,
      "duration": 0.0799,
      "velocity": 93,
      "chip": "ym2612"
    },
    {
      "channel": 1,
      "note": 57,
      "start": 112.6086,
      "duration": 0.1802,
      "velocity": 99,
      "chip": "ym2612"
    },
    {
      "channel": 3,
      "note": 62,
      "start": 112.6086,
      "duration": 0.1802,
      "velocity": 95,
      "chip": "ym2612"
    },
    {
      "channel": 0,
      "note": 79,
      "start": 112.6884,
      "duration": 0.1003,
      "velocity": 93,
      "chip": "ym2612"
    },
    {
      "channel": 0,
      "note": 76,
      "start": 112.7888,
      "duration": 0.0008,
      "velocity": 93,
      "chip": "ym2612"
    },
    {
      "channel": 1,
      "note": 50,
      "start": 112.7888,
      "duration": 0.0366,
      "velocity": 99,
      "chip": "ym2612"
    },
    {
      "channel": 3,
      "note": 50,
      "start": 112.7889,
      "duration": 1.9507,
      "velocity": 95,
      "chip": "ym2612"
    },
    {
      "channel": 0,
      "note": 77,
      "start": 112.7896,
      "duration": 0.0357,
      "velocity": 93,
      "chip": "ym2612"
    },
    {
      "channel": 0,
      "note": 81,
      "start": 112.8254,
      "duration": 0.0799,
      "velocity": 93,
      "chip": "ym2612"
    },
    {
      "channel": 1,
      "note": 57,
      "start": 112.8254,
      "duration": 0.1799,
      "velocity": 99,
      "chip": "ym2612"
    },
    {
      "channel": 0,
      "note": 84,
      "start": 112.9052,
      "duration": 0.1,
      "velocity": 93,
      "chip": "ym2612"
    },
    {
      "channel": 0,
      "note": 88,
      "start": 113.0053,
      "duration": 0.0799,
      "velocity": 93,
      "chip": "ym2612"
    },
    {
      "channel": 1,
      "note": 62,
      "start": 113.0054,
      "duration": 0.16,
      "velocity": 99,
      "chip": "ym2612"
    },
    {
      "channel": 0,
      "note": 89,
      "start": 113.0852,
      "duration": 0.0801,
      "velocity": 93,
      "chip": "ym2612"
    },
    {
      "channel": 0,
      "note": 88,
      "start": 113.1654,
      "duration": 0.0799,
      "velocity": 93,
      "chip": "ym2612"
    },
    {
      "channel": 1,
      "note": 67,
      "start": 113.1654,
      "duration": 0.18,
      "velocity": 99,
      "chip": "ym2612"
    },
    {
      "channel": 0,
      "note": 84,
      "start": 113.2452,
      "duration": 0.1001,
      "velocity": 93,
      "chip": "ym2612"
    },
    {
      "channel": 0,
      "note": 81,
      "start": 113.3454,
      "duration": 0.0009,
      "velocity": 93,
      "chip": "ym2612"
    },
    {
      "channel": 1,
      "note": 69,
      "start": 113.3455,
      "duration": 0.0016,
      "velocity": 99,
      "chip": "ym2612"
    },
    {
      "channel": 0,
      "note": 77,
      "start": 113.3464,
      "duration": 0.0006,
      "velocity": 93,
      "chip": "ym2612"
    },
    {
      "channel": 0,
      "note": 76,
      "start": 113.3471,
      "duration": 0.0668,
      "velocity": 93,
      "chip": "ym2612"
    },
    {
      "channel": 1,
      "note": 62,
      "start": 113.3472,
      "duration": 0.1469,
      "velocity": 99,
      "chip": "ym2612"
    },
    {
      "channel": 0,
      "note": 77,
      "start": 113.4139,
      "duration": 0.0801,
      "velocity": 93,
      "chip": "ym2612"
    },
    {
      "channel": 0,
      "note": 81,
      "start": 113.4941,
      "duration": 0.0999,
      "velocity": 93,
      "chip": "ym2612"
    },
    {
      "channel": 1,
      "note": 67,
      "start": 113.4941,
      "duration": 0.1799,
      "velocity": 99,
      "chip": "ym2612"
    },
    {
      "channel": 0,
      "note": 84,
      "start": 113.5939,
      "duration": 0.0801,
      "velocity": 93,
      "chip": "ym2612"
    },
    {
      "channel": 0,
      "note": 88,
      "start": 113.6741,
      "duration": 0.0799,
      "velocity": 93,
      "chip": "ym2612"
    },
    {
      "channel": 1,
      "note": 69,
      "start": 113.6741,
      "duration": 0.16,
      "velocity": 99,
      "chip": "ym2612"
    },
    {
      "channel": 0,
      "note": 89,
      "start": 113.7539,
      "duration": 0.0801,
      "velocity": 93,
      "chip": "ym2612"
    },
    {
      "channel": 0,
      "note": 88,
      "start": 113.8341,
      "duration": 0.001,
      "velocity": 93,
      "chip": "ym2612"
    },
    {
      "channel": 1,
      "note": 50,
      "start": 113.8342,
      "duration": 0.0568,
      "velocity": 99,
      "chip": "ym2612"
    },
    {
      "channel": 0,
      "note": 84,
      "start": 113.8351,
      "duration": 0.0558,
      "velocity": 93,
      "chip": "ym2612"
    },
    {
      "channel": 0,
      "note": 81,
      "start": 113.891,
      "duration": 0.0199,
      "velocity": 93,
      "chip": "ym2612"
    },
    {
      "channel": 1,
      "note": 57,
      "start": 113.891,
      "duration": 0.1599,
      "velocity": 99,
      "chip": "ym2612"
    },
    {
      "channel": 0,
      "note": 81,
      "start": 113.9109,
      "duration": 0.0599,
      "velocity": 93,
      "chip": "ym2612"
    },
    {
      "channel": 0,
      "note": 77,
      "start": 113.9709,
      "duration": 0.0599,
      "velocity": 93,
      "chip": "ym2612"
    },
    {
      "channel": 0,
      "note": 76,
      "start": 114.051,
      "duration": 0.0999,
      "velocity": 93,
      "chip": "ym2612"
    },
    {
      "channel": 1,
      "note": 62,
      "start": 114.051,
      "duration": 0.1799,
      "velocity": 99,
      "chip": "ym2612"
    },
    {
      "channel": 0,
      "note": 77,
      "start": 114.1508,
      "duration": 0.0801,
      "velocity": 93,
      "chip": "ym2612"
    },
    {
      "channel": 0,
      "note": 81,
      "start": 114.231,
      "duration": 0.0799,
      "velocity": 93,
      "chip": "ym2612"
    },
    {
      "channel": 1,
      "note": 67,
      "start": 114.231,
      "duration": 0.16,
      "velocity": 99,
      "chip": "ym2612"
    },
    {
      "channel": 0,
      "note": 84,
      "start": 114.3108,
      "duration": 0.0801,
      "velocity": 93,
      "chip": "ym2612"
    },
    {
      "channel": 0,
      "note": 88,
      "start": 114.391,
      "duration": 0.0009,
      "velocity": 93,
      "chip": "ym2612"
    },
    {
      "channel": 1,
      "note": 69,
      "start": 114.3911,
      "duration": 0.0084,
      "velocity": 99,
      "chip": "ym2612"
    },
    {
      "channel": 0,
      "note": 89,
      "start": 114.392,
      "duration": 0.0075,
      "velocity": 93,
      "chip": "ym2612"
    },
    {
      "channel": 0,
      "note": 88,
      "start": 114.3995,
      "duration": 0.0799,
      "velocity": 93,
      "chip": "ym2612"
    },
    {
      "channel": 1,
      "note": 67,
      "start": 114.3996,
      "duration": 0.1599,
      "velocity": 99,
      "chip": "ym2612"
    },
    {
      "channel": 0,
      "note": 84,
      "start": 114.4794,
      "duration": 0.08,
      "velocity": 93,
      "chip": "ym2612"
    },
    {
      "channel": 0,
      "note": 81,
      "start": 114.5595,
      "duration": 0.0999,
      "velocity": 93,
      "chip": "ym2612"
    },
    {
      "channel": 1,
      "note": 62,
      "start": 114.5595,
      "duration": 0.18,
      "velocity": 99,
      "chip": "ym2612"
    },
    {
      "channel": 0,
      "note": 77,
      "start": 114.6595,
      "duration": 0.08,
      "velocity": 93,
      "chip": "ym2612"
    },
    {
      "channel": 0,
      "note": 76,
      "start": 114.7395,
      "duration": 0.0799,
      "velocity": 93,
      "chip": "ym2612"
    },
    {
      "channel": 1,
      "note": 57,
      "start": 114.7396,
      "duration": 0.1601,
      "velocity": 99,
      "chip": "ym2612"
    },
    {
      "channel": 3,
      "note": 55,
      "start": 114.7397,
      "duration": 0.0799,
      "velocity": 95,
      "chip": "ym2612"
    },
    {
      "channel": 0,
      "note": 77,
      "start": 114.8195,
      "duration": 0.0801,
      "velocity": 93,
      "chip": "ym2612"
    },
    {
      "channel": 3,
      "note": 57,
      "start": 114.8196,
      "duration": 0.0802,
      "velocity": 95,
      "chip": "ym2612"
    },
    {
      "channel": 0,
      "note": 78,
      "start": 114.8997,
      "duration": 0.0012,
      "velocity": 93,
      "chip": "ym2612"
    },
    {
      "channel": 1,
      "note": 50,
      "start": 114.8998,
      "duration": 0.0568,
      "velocity": 99,
      "chip": "ym2612"
    },
    {
      "channel": 3,
      "note": 62,
      "start": 114.8999,
      "duration": 1.8503,
      "velocity": 95,
      "chip": "ym2612"
    },
    {
      "channel": 0,
      "note": 79,
      "start": 114.9009,
      "duration": 0.0556,
      "velocity": 93,
      "chip": "ym2612"
    },
    {
      "channel": 0,
      "note": 83,
      "start": 114.9566,
      "duration": 0.0799,
      "velocity": 93,
      "chip": "ym2612"
    },
    {
      "channel": 1,
      "note": 57,
      "start": 114.9566,
      "duration": 0.1599,
      "velocity": 99,
      "chip": "ym2612"
    },
    {
      "channel": 0,
      "note": 86,
      "start": 115.0364,
      "duration": 0.08,
      "velocity": 93,
      "chip": "ym2612"
    },
    {
      "channel": 0,
      "note": 90,
      "start": 115.1165,
      "duration": 0.0999,
      "velocity": 93,
      "chip": "ym2612"
    },
    {
      "channel": 1,
      "note": 62,
      "start": 115.1166,
      "duration": 0.1799,
      "velocity": 99,
      "chip": "ym2612"
    },
    {
      "channel": 0,
      "note": 91,
      "start": 115.2164,
      "duration": 0.08,
      "velocity": 93,
      "chip": "ym2612"
    },
    {
      "channel": 0,
      "note": 90,
      "start": 115.2965,
      "duration": 0.0799,
      "velocity": 93,
      "chip": "ym2612"
    },
    {
      "channel": 1,
      "note": 67,
      "start": 115.2966,
      "duration": 0.1601,
      "velocity": 99,
      "chip": "ym2612"
    },
    {
      "channel": 0,
      "note": 86,
      "start": 115.3764,
      "duration": 0.0801,
      "velocity": 93,
      "chip": "ym2612"
    },
    {
      "channel": 0,
      "note": 83,
      "start": 115.4566,
      "duration": 0.0012,
      "velocity": 93,
      "chip": "ym2612"
    },
    {
      "channel": 1,
      "note": 69,
      "start": 115.4567,
      "duration": 0.0086,
      "velocity": 99,
      "chip": "ym2612"
    },
    {
      "channel": 0,
      "note": 79,
      "start": 115.4579,
      "duration": 0.0073,
      "velocity": 93,
      "chip": "ym2612"
    },
    {
      "channel": 0,
      "note": 78,
      "start": 115.4653,
      "duration": 0.0799,
      "velocity": 93,
      "chip": "ym2612"
    },
    {
      "channel": 1,
      "note": 62,
      "start": 115.4654,
      "duration": 0.1599,
      "velocity": 99,
      "chip": "ym2612"
    },
    {
      "channel": 0,
      "note": 79,
      "start": 115.5451,
      "duration": 0.0801,
      "velocity": 93,
      "chip": "ym2612"
    },
    {
      "channel": 0,
      "note": 83,
      "start": 115.6253,
      "duration": 0.0999,
      "velocity": 93,
      "chip": "ym2612"
    },
    {
      "channel": 1,
      "note": 67,
      "start": 115.6254,
      "duration": 0.18,
      "velocity": 99,
      "chip": "ym2612"
    },
    {
      "channel": 0,
      "note": 86,
      "start": 115.7251,
      "duration": 0.0801,
      "velocity": 93,
      "chip": "ym2612"
    },
    {
      "channel": 0,
      "note": 90,
      "start": 115.8054,
      "duration": 0.0008,
      "velocity": 93,
      "chip": "ym2612"
    },
    {
      "channel": 1,
      "note": 69,
      "start": 115.8054,
      "duration": 0.0368,
      "velocity": 99,
      "chip": "ym2612"
    },
    {
      "channel": 0,
      "note": 91,
      "start": 115.8062,
      "duration": 0.0359,
      "velocity": 93,
      "chip": "ym2612"
    },
    {
      "channel": 0,
      "note": 90,
      "start": 115.8422,
      "duration": 0.0799,
      "velocity": 93,
      "chip": "ym2612"
    },
    {
      "channel": 1,
      "note": 50,
      "start": 115.8422,
      "duration": 0.1799,
      "velocity": 99,
      "chip": "ym2612"
    },
    {
      "channel": 0,
      "note": 86,
      "start": 115.922,
      "duration": 0.1001,
      "velocity": 93,
      "chip": "ym2612"
    },
    {
      "channel": 0,
      "note": 83,
      "start": 116.0222,
      "duration": 0.0199,
      "velocity": 93,
      "chip": "ym2612"
    },
    {
      "channel": 1,
      "note": 57,
      "start": 116.0222,
      "duration": 0.1599,
      "velocity": 99,
      "chip": "ym2612"
    },
    {
      "channel": 0,
      "note": 83,
      "start": 116.0421,
      "duration": 0.06,
      "velocity": 93,
      "chip": "ym2612"
    },
    {
      "channel": 0,
      "note": 79,
      "start": 116.1021,
      "duration": 0.0599,
      "velocity": 93,
      "chip": "ym2612"
    },
    {
      "channel": 0,
      "note": 78,
      "start": 116.1822,
      "duration": 0.0799,
      "velocity": 93,
      "chip": "ym2612"
    },
    {
      "channel": 1,
      "note": 62,
      "start": 116.1822,
      "duration": 0.18,
      "velocity": 99,
      "chip": "ym2612"
    },
    {
      "channel": 0,
      "note": 79,
      "start": 116.262,
      "duration": 0.1001,
      "velocity": 93,
      "chip": "ym2612"
    },
    {
      "channel": 0,
      "note": 83,
      "start": 116.3622,
      "duration": 0.0009,
      "velocity": 93,
      "chip": "ym2612"
    },
    {
      "channel": 1,
      "note": 67,
      "start": 116.3623,
      "duration": 0.0368,
      "velocity": 99,
      "chip": "ym2612"
    },
    {
      "channel": 0,
      "note": 86,
      "start": 116.3631,
      "duration": 0.036,
      "velocity": 93,
      "chip": "ym2612"
    },
    {
      "channel": 0,
      "note": 90,
      "start": 116.3991,
      "duration": 0.0008,
      "velocity": 93,
      "chip": "ym2612"
    },
    {
      "channel": 1,
      "note": 69,
      "start": 116.3992,
      "duration": 0.0085,
      "velocity": 99,
      "chip": "ym2612"
    },
    {
      "channel": 0,
      "note": 91,
      "start": 116.4,
      "duration": 0.0077,
      "velocity": 93,
      "chip": "ym2612"
    },
    {
      "channel": 0,
      "note": 90,
      "start": 116.4077,
      "duration": 0.0799,
      "velocity": 93,
      "chip": "ym2612"
    },
    {
      "channel": 1,
      "note": 67,
      "start": 116.4078,
      "duration": 0.1599,
      "velocity": 99,
      "chip": "ym2612"
    },
    {
      "channel": 0,
      "note": 86,
      "start": 116.4876,
      "duration": 0.08,
      "velocity": 93,
      "chip": "ym2612"
    },
    {
      "channel": 0,
      "note": 83,
      "start": 116.5676,
      "duration": 0.0799,
      "velocity": 93,
      "chip": "ym2612"
    },
    {
      "channel": 1,
      "note": 62,
      "start": 116.5677,
      "duration": 0.18,
      "velocity": 99,
      "chip": "ym2612"
    },
    {
      "channel": 0,
      "note": 79,
      "start": 116.6476,
      "duration": 0.1,
      "velocity": 93,
      "chip": "ym2612"
    },
    {
      "channel": 0,
      "note": 78,
      "start": 116.7477,
      "duration": 0.0009,
      "velocity": 93,
      "chip": "ym2612"
    },
    {
      "channel": 1,
      "note": 57,
      "start": 116.7478,
      "duration": 0.0015,
      "velocity": 99,
      "chip": "ym2612"
    },
    {
      "channel": 0,
      "note": 79,
      "start": 116.7486,
      "duration": 0.0014,
      "velocity": 93,
      "chip": "ym2612"
    },
    {
      "channel": 0,
      "note": 69,
      "start": 116.7501,
      "duration": 0.0009,
      "velocity": 93,
      "chip": "ym2612"
    },
    {
      "channel": 1,
      "note": 45,
      "start": 116.7501,
      "duration": 0.0566,
      "velocity": 99,
      "chip": "ym2612"
    },
    {
      "channel": 3,
      "note": 45,
      "start": 116.7502,
      "duration": 0.8937,
      "velocity": 95,
      "chip": "ym2612"
    },
    {
      "channel": 0,
      "note": 74,
      "start": 116.7509,
      "duration": 0.0557,
      "velocity": 93,
      "chip": "ym2612"
    },
    {
      "channel": 0,
      "note": 76,
      "start": 116.8067,
      "duration": 0.0799,
      "velocity": 93,
      "chip": "ym2612"
    },
    {
      "channel": 1,
      "note": 52,
      "start": 116.8068,
      "duration": 0.16,
      "velocity": 99,
      "chip": "ym2612"
    },
    {
      "channel": 0,
      "note": 81,
      "start": 116.8867,
      "duration": 0.08,
      "velocity": 93,
      "chip": "ym2612"
    },
    {
      "channel": 0,
      "note": 83,
      "start": 116.9668,
      "duration": 0.0799,
      "velocity": 93,
      "chip": "ym2612"
    },
    {
      "channel": 1,
      "note": 59,
      "start": 116.9668,
      "duration": 0.1802,
      "velocity": 99,
      "chip": "ym2612"
    },
    {
      "channel": 0,
      "note": 88,
      "start": 117.0466,
      "duration": 0.1003,
      "velocity": 93,
      "chip": "ym2612"
    },
    {
      "channel": 0,
      "note": 83,
      "start": 117.147,
      "duration": 0.0798,
      "velocity": 93,
      "chip": "ym2612"
    },
    {
      "channel": 1,
      "note": 60,
      "start": 117.147,
      "duration": 0.1601,
      "velocity": 99,
      "chip": "ym2612"
    },
    {
      "channel": 2,
      "note": 74,
      "start": 117.1471,
      "duration": 0.1601,
      "velocity": 127,
      "chip": "ym2612"
    },
    {
      "channel": 4,
      "note": 62,
      "start": 117.1473,
      "duration": 0.1599,
      "velocity": 93,
      "chip": "ym2612"
    },
    {
      "channel": 0,
      "note": 81,
      "start": 117.2268,
      "duration": 0.0802,
      "velocity": 93,
      "chip": "ym2612"
    },
    {
      "channel": 0,
      "note": 76,
      "start": 117.307,
      "duration": 0.0013,
      "velocity": 93,
      "chip": "ym2612"
    },
    {
      "channel": 1,
      "note": 59,
      "start": 117.3071,
      "duration": 0.0568,
      "velocity": 99,
      "chip": "ym2612"
    },
    {
      "channel": 2,
      "note": 76,
      "start": 117.3071,
      "duration": 0.0018,
      "velocity": 127,
      "chip": "ym2612"
    },
    {
      "channel": 4,
      "note": 64,
      "start": 117.3073,
      "duration": 0.0018,
      "velocity": 93,
      "chip": "ym2612"
    },
    {
      "channel": 0,
      "note": 74,
      "start": 117.3083,
      "duration": 0.0555,
      "velocity": 93,
      "chip": "ym2612"
    },
    {
      "channel": 2,
      "note": 81,
      "start": 117.309,
      "duration": 0.0949,
      "velocity": 127,
      "chip": "ym2612"
    },
    {
      "channel": 4,
      "note": 69,
      "start": 117.3091,
      "duration": 0.0949,
      "velocity": 93,
      "chip": "ym2612"
    },
    {
      "channel": 0,
      "note": 69,
      "start": 117.3639,
      "duration": 0.0799,
      "velocity": 93,
      "chip": "ym2612"
    },
    {
      "channel": 1,
      "note": 52,
      "start": 117.364,
      "duration": 0.1601,
      "velocity": 99,
      "chip": "ym2612"
    },
    {
      "channel": 2,
      "note": 76,
      "start": 117.404,
      "duration": 0.1202,
      "velocity": 127,
      "chip": "ym2612"
    },
    {
      "channel": 4,
      "note": 64,
      "start": 117.4041,
      "duration": 0.1201,
      "velocity": 93,
      "chip": "ym2612"
    },
    {
      "channel": 0,
      "note": 74,
      "start": 117.4438,
      "duration": 0.0802,
      "velocity": 93,
      "chip": "ym2612"
    },
    {
      "channel": 0,
      "note": 76,
      "start": 117.524,
      "duration": 0.0597,
      "velocity": 93,
      "chip": "ym2612"
    },
    {
      "channel": 1,
      "note": 57,
      "start": 117.5241,
      "duration": 0.1799,
      "velocity": 99,
      "chip": "ym2612"
    },
    {
      "channel": 2,
      "note": 83,
      "start": 117.5241,
      "duration": 0.7169,
      "velocity": 127,
      "chip": "ym2612"
    },
    {
      "channel": 4,
      "note": 71,
      "start": 117.5243,
      "duration": 0.7169,
      "velocity": 93,
      "chip": "ym2612"
    },
    {
      "channel": 0,
      "note": 81,
      "start": 117.6038,
      "duration": 0.1001,
      "velocity": 93,
      "chip": "ym2612"
    },
    {
      "channel": 0,
      "note": 83,
      "start": 117.704,
      "duration": 0.0012,
      "velocity": 93,
      "chip": "ym2612"
    },
    {
      "channel": 1,
      "note": 59,
      "start": 117.704,
      "duration": 0.0369,
      "velocity": 99,
      "chip": "ym2612"
    },
    {
      "channel": 3,
      "note": 52,
      "start": 117.7041,
      "duration": 0.0166,
      "velocity": 95,
      "chip": "ym2612"
    },
    {
      "channel": 0,
      "note": 88,
      "start": 117.7053,
      "duration": 0.0356,
      "velocity": 93,
      "chip": "ym2612"
    },
    {
      "channel": 0,
      "note": 83,
      "start": 117.7409,
      "duration": 0.0798,
      "velocity": 93,
      "chip": "ym2612"
    },
    {
      "channel": 1,
      "note": 57,
      "start": 117.741,
      "duration": 0.18,
      "velocity": 99,
      "chip": "ym2612"
    },
    {
      "channel": 3,
      "note": 59,
      "start": 117.741,
      "duration": 0.18,
      "velocity": 95,
      "chip": "ym2612"
    },
    {
      "channel": 0,
      "note": 81,
      "start": 117.8207,
      "duration": 0.1001,
      "velocity": 93,
      "chip": "ym2612"
    },
    {
      "channel": 0,
      "note": 76,
      "start": 117.9209,
      "duration": 0.0798,
      "velocity": 93,
      "chip": "ym2612"
    },
    {
      "channel": 1,
      "note": 52,
      "start": 117.921,
      "duration": 0.16,
      "velocity": 99,
      "chip": "ym2612"
    },
    {
      "channel": 3,
      "note": 60,
      "start": 117.9211,
      "duration": 0.1599,
      "velocity": 95,
      "chip": "ym2612"
    },
    {
      "channel": 0,
      "note": 74,
      "start": 118.0007,
      "duration": 0.0801,
      "velocity": 93,
      "chip": "ym2612"
    },
    {
      "channel": 0,
      "note": 69,
      "start": 118.0809,
      "duration": 0.0798,
      "velocity": 93,
      "chip": "ym2612"
    },
    {
      "channel": 1,
      "note": 59,
      "start": 118.081,
      "duration": 0.16,
      "velocity": 99,
      "chip": "ym2612"
    },
    {
      "channel": 3,
      "note": 59,
      "start": 118.081,
      "duration": 0.3859,
      "velocity": 95,
      "chip": "ym2612"
    },
    {
      "channel": 0,
      "note": 74,
      "start": 118.1607,
      "duration": 0.0802,
      "velocity": 93,
      "chip": "ym2612"
    },
    {
      "channel": 0,
      "note": 76,
      "start": 118.241,
      "duration": 0.0015,
      "velocity": 93,
      "chip": "ym2612"
    },
    {
      "channel": 1,
      "note": 60,
      "start": 118.241,
      "duration": 0.0569,
      "velocity": 99,
      "chip": "ym2612"
    },
    {
      "channel": 2,
      "note": 84,
      "start": 118.2411,
      "duration": 0.0569,
      "velocity": 127,
      "chip": "ym2612"
    },
    {
      "channel": 4,
      "note": 72,
      "start": 118.2412,
      "duration": 0.0569,
      "velocity": 93,
      "chip": "ym2612"
    },
    {
      "channel": 0,
      "note": 81,
      "start": 118.2425,
      "duration": 0.0351,
      "velocity": 93,
      "chip": "ym2612"
    },
    {
      "channel": 0,
      "note": 83,
      "start": 118.2979,
      "duration": 0.0013,
      "velocity": 93,
      "chip": "ym2612"
    },
    {
      "channel": 1,
      "note": 59,
      "start": 118.298,
      "duration": 0.0024,
      "velocity": 99,
      "chip": "ym2612"
    },
    {
      "channel": 2,
      "note": 83,
      "start": 118.298,
      "duration": 0.0024,
      "velocity": 127,
      "chip": "ym2612"
    },
    {
      "channel": 4,
      "note": 71,
      "start": 118.2982,
      "duration": 0.0023,
      "velocity": 93,
      "chip": "ym2612"
    },
    {
      "channel": 0,
      "note": 88,
      "start": 118.2992,
      "duration": 0.0011,
      "velocity": 93,
      "chip": "ym2612"
    },
    {
      "channel": 0,
      "note": 83,
      "start": 118.3003,
      "duration": 0.0862,
      "velocity": 93,
      "chip": "ym2612"
    },
    {
      "channel": 1,
      "note": 52,
      "start": 118.3003,
      "duration": 0.1664,
      "velocity": 99,
      "chip": "ym2612"
    },
    {
      "channel": 2,
      "note": 81,
      "start": 118.3004,
      "duration": 0.1461,
      "velocity": 127,
      "chip": "ym2612"
    },
    {
      "channel": 4,
      "note": 69,
      "start": 118.3005,
      "duration": 0.146,
      "velocity": 93,
      "chip": "ym2612"
    },
    {
      "channel": 0,
      "note": 81,
      "start": 118.3865,
      "duration": 0.0802,
      "velocity": 93,
      "chip": "ym2612"
    },
    {
      "channel": 0,
      "note": 76,
      "start": 118.4668,
      "duration": 0.0797,
      "velocity": 93,
      "chip": "ym2612"
    },
    {
      "channel": 1,
      "note": 57,
      "start": 118.4668,
      "duration": 0.1598,
      "velocity": 99,
      "chip": "ym2612"
    },
    {
      "channel": 2,
      "note": 83,
      "start": 118.4669,
      "duration": 0.1598,
      "velocity": 127,
      "chip": "ym2612"
    },
    {
      "channel": 3,
      "note": 52,
      "start": 118.467,
      "duration": 0.2995,
      "velocity": 95,
      "chip": "ym2612"
    },
    {
      "channel": 4,
      "note": 71,
      "start": 118.4671,
      "duration": 0.1598,
      "velocity": 93,
      "chip": "ym2612"
    },
    {
      "channel": 0,
      "note": 74,
      "start": 118.5465,
      "duration": 0.0801,
      "velocity": 93,
      "chip": "ym2612"
    },
    {
      "channel": 0,
      "note": 69,
      "start": 118.6267,
      "duration": 0.0998,
      "velocity": 93,
      "chip": "ym2612"
    },
    {
      "channel": 1,
      "note": 59,
      "start": 118.6267,
      "duration": 0.1801,
      "velocity": 99,
      "chip": "ym2612"
    },
    {
      "channel": 2,
      "note": 84,
      "start": 118.6268,
      "duration": 0.1801,
      "velocity": 127,
      "chip": "ym2612"
    },
    {
      "channel": 4,
      "note": 72,
      "start": 118.6269,
      "duration": 0.1801,
      "velocity": 93,
      "chip": "ym2612"
    },
    {
      "channel": 0,
      "note": 74,
      "start": 118.7265,
      "duration": 0.0399,
      "velocity": 93,
      "chip": "ym2612"
    },
    {
      "channel": 0,
      "note": 69,
      "start": 118.8068,
      "duration": 0.0013,
      "velocity": 93,
      "chip": "ym2612"
    },
    {
      "channel": 1,
      "note": 57,
      "start": 118.8068,
      "duration": 0.0367,
      "velocity": 99,
      "chip": "ym2612"
    },
    {
      "channel": 2,
      "note": 83,
      "start": 118.8069,
      "duration": 0.0166,
      "velocity": 127,
      "chip": "ym2612"
    },
    {
      "channel": 3,
      "note": 45,
      "start": 118.807,
      "duration": 0.9339,
      "velocity": 95,
      "chip": "ym2612"
    },
    {
      "channel": 4,
      "note": 71,
      "start": 118.807,
      "duration": 0.0166,
      "velocity": 93,
      "chip": "ym2612"
    },
    {
      "channel": 0,
      "note": 74,
      "start": 118.8081,
      "duration": 0.0353,
      "velocity": 93,
      "chip": "ym2612"
    },
    {
      "channel": 0,
      "note": 76,
      "start": 118.8435,
      "duration": 0.0999,
      "velocity": 93,
      "chip": "ym2612"
    },
    {
      "channel": 1,
      "note": 52,
      "start": 118.8436,
      "duration": 0.1799,
      "velocity": 99,
      "chip": "ym2612"
    },
    {
      "channel": 0,
      "note": 81,
      "start": 118.9434,
      "duration": 0.08,
      "velocity": 93,
      "chip": "ym2612"
    },
    {
      "channel": 0,
      "note": 83,
      "start": 119.0235,
      "duration": 0.0799,
      "velocity": 93,
      "chip": "ym2612"
    },
    {
      "channel": 1,
      "note": 62,
      "start": 119.0236,
      "duration": 0.1602,
      "velocity": 99,
      "chip": "ym2612"
    },
    {
      "channel": 0,
      "note": 88,
      "start": 119.1034,
      "duration": 0.0803,
      "velocity": 93,
      "chip": "ym2612"
    },
    {
      "channel": 0,
      "note": 83,
      "start": 119.1838,
      "duration": 0.0998,
      "velocity": 93,
      "chip": "ym2612"
    },
    {
      "channel": 1,
      "note": 64,
      "start": 119.1838,
      "duration": 0.18,
      "velocity": 99,
      "chip": "ym2612"
    },
    {
      "channel": 2,
      "note": 74,
      "start": 119.1839,
      "duration": 0.18,
      "velocity": 127,
      "chip": "ym2612"
    },
    {
      "channel": 4,
      "note": 62,
      "start": 119.184,
      "duration": 0.18,
      "velocity": 93,
      "chip": "ym2612"
    },
    {
      "channel": 0,
      "note": 81,
      "start": 119.2835,
      "duration": 0.0802,
      "velocity": 93,
      "chip": "ym2612"
    },
    {
      "channel": 0,
      "note": 76,
      "start": 119.3638,
      "duration": 0.0013,
      "velocity": 93,
      "chip": "ym2612"
    },
    {
      "channel": 1,
      "note": 62,
      "start": 119.3638,
      "duration": 0.0368,
      "velocity": 99,
      "chip": "ym2612"
    },
    {
      "channel": 2,
      "note": 76,
      "start": 119.364,
      "duration": 0.0017,
      "velocity": 127,
      "chip": "ym2612"
    },
    {
      "channel": 4,
      "note": 64,
      "start": 119.3641,
      "duration": 0.0017,
      "velocity": 93,
      "chip": "ym2612"
    },
    {
      "channel": 0,
      "note": 74,
      "start": 119.3651,
      "duration": 0.0355,
      "velocity": 93,
      "chip": "ym2612"
    },
    {
      "channel": 2,
      "note": 81,
      "start": 119.3658,
      "duration": 0.0949,
      "velocity": 127,
      "chip": "ym2612"
    },
    {
      "channel": 4,
      "note": 69,
      "start": 119.3659,
      "duration": 0.0949,
      "velocity": 93,
      "chip": "ym2612"
    },
    {
      "channel": 0,
      "note": 69,
      "start": 119.4007,
      "duration": 0.0999,
      "velocity": 93,
      "chip": "ym2612"
    },
    {
      "channel": 1,
      "note": 52,
      "start": 119.4007,
      "duration": 0.1801,
      "velocity": 99,
      "chip": "ym2612"
    },
    {
      "channel": 2,
      "note": 76,
      "start": 119.4607,
      "duration": 0.1202,
      "velocity": 127,
      "chip": "ym2612"
    },
    {
      "channel": 4,
      "note": 64,
      "start": 119.4608,
      "duration": 0.1201,
      "velocity": 93,
      "chip": "ym2612"
    },
    {
      "channel": 0,
      "note": 74,
      "start": 119.5005,
      "duration": 0.0802,
      "velocity": 93,
      "chip": "ym2612"
    },
    {
      "channel": 0,
      "note": 76,
      "start": 119.5808,
      "duration": 0.0597,
      "velocity": 93,
      "chip": "ym2612"
    },
    {
      "channel": 1,
      "note": 57,
      "start": 119.5808,
      "duration": 0.1599,
      "velocity": 99,
      "chip": "ym2612"
    },
    {
      "channel": 2,
      "note": 86,
      "start": 119.5809,
      "duration": 0.7169,
      "velocity": 127,
      "chip": "ym2612"
    },
    {
      "channel": 4,
      "note": 74,
      "start": 119.581,
      "duration": 0.7169,
      "velocity": 93,
      "chip": "ym2612"
    },
    {
      "channel": 0,
      "note": 81,
      "start": 119.6606,
      "duration": 0.0801,
      "velocity": 93,
      "chip": "ym2612"
    },
    {
      "channel": 0,
      "note": 83,
      "start": 119.7407,
      "duration": 0.0016,
      "velocity": 93,
      "chip": "ym2612"
    },
    {
      "channel": 1,
      "note": 59,
      "start": 119.7408,
      "duration": 0.057,
      "velocity": 99,
      "chip": "ym2612"
    },
    {
      "channel": 3,
      "note": 52,
      "start": 119.7409,
      "duration": 0.0569,
      "velocity": 95,
      "chip": "ym2612"
    },
    {
      "channel": 0,
      "note": 88,
      "start": 119.7423,
      "duration": 0.0554,
      "velocity": 93,
      "chip": "ym2612"
    },
    {
      "channel": 0,
      "note": 83,
      "start": 119.7977,
      "duration": 0.0798,
      "velocity": 93,
      "chip": "ym2612"
    },
    {
      "channel": 1,
      "note": 57,
      "start": 119.7978,
      "duration": 0.16,
      "velocity": 99,
      "chip": "ym2612"
    },
    {
      "channel": 3,
      "note": 57,
      "start": 119.7978,
      "duration": 0.16,
      "velocity": 95,
      "chip": "ym2612"
    },
    {
      "channel": 0,
      "note": 81,
      "start": 119.8775,
      "duration": 0.0801,
      "velocity": 93,
      "chip": "ym2612"
    },
    {
      "channel": 0,
      "note": 76,
      "start": 119.9577,
      "duration": 0.0998,
      "velocity": 93,
      "chip": "ym2612"
    },
    {
      "channel": 1,
      "note": 52,
      "start": 119.9578,
      "duration": 0.18,
      "velocity": 99,
      "chip": "ym2612"
    },
    {
      "channel": 3,
      "note": 59,
      "start": 119.9579,
      "duration": 0.1799,
      "velocity": 95,
      "chip": "ym2612"
    },
    {
      "channel": 0,
      "note": 74,
      "start": 120.0575,
      "duration": 0.0801,
      "velocity": 93,
      "chip": "ym2612"
    },
    {
      "channel": 0,
      "note": 69,
      "start": 120.1377,
      "duration": 0.0798,
      "velocity": 93,
      "chip": "ym2612"
    },
    {
      "channel": 1,
      "note": 62,
      "start": 120.1378,
      "duration": 0.16,
      "velocity": 99,
      "chip": "ym2612"
    },
    {
      "channel": 3,
      "note": 57,
      "start": 120.1378,
      "duration": 0.3455,
      "velocity": 95,
      "chip": "ym2612"
    },
    {
      "channel": 0,
      "note": 74,
      "start": 120.2175,
      "duration": 0.0802,
      "velocity": 93,
      "chip": "ym2612"
    },
    {
      "channel": 0,
      "note": 76,
      "start": 120.2978,
      "duration": 0.0012,
      "velocity": 93,
      "chip": "ym2612"
    },
    {
      "channel": 1,
      "note": 64,
      "start": 120.2978,
      "duration": 0.0569,
      "velocity": 99,
      "chip": "ym2612"
    },
    {
      "channel": 2,
      "note": 84,
      "start": 120.2979,
      "duration": 0.0569,
      "velocity": 127,
      "chip": "ym2612"
    },
    {
      "channel": 4,
      "note": 72,
      "start": 120.298,
      "duration": 0.0569,
      "velocity": 93,
      "chip": "ym2612"
    },
    {
      "channel": 0,
      "note": 81,
      "start": 120.2991,
      "duration": 0.0154,
      "velocity": 93,
      "chip": "ym2612"
    },
    {
      "channel": 0,
      "note": 83,
      "start": 120.3548,
      "duration": 0.0013,
      "velocity": 93,
      "chip": "ym2612"
    },
    {
      "channel": 1,
      "note": 62,
      "start": 120.3548,
      "duration": 0.0024,
      "velocity": 99,
      "chip": "ym2612"
    },
    {
      "channel": 2,
      "note": 83,
      "start": 120.3549,
      "duration": 0.0024,
      "velocity": 127,
      "chip": "ym2612"
    },
    {
      "channel": 4,
      "note": 71,
      "start": 120.355,
      "duration": 0.0024,
      "velocity": 93,
      "chip": "ym2612"
    },
    {
      "channel": 0,
      "note": 88,
      "start": 120.3561,
      "duration": 0.0011,
      "velocity": 93,
      "chip": "ym2612"
    },
    {
      "channel": 0,
      "note": 83,
      "start": 120.3572,
      "duration": 0.0661,
      "velocity": 93,
      "chip": "ym2612"
    },
    {
      "channel": 1,
      "note": 52,
      "start": 120.3573,
      "duration": 0.1664,
      "velocity": 99,
      "chip": "ym2612"
    },
    {
      "channel": 2,
      "note": 81,
      "start": 120.3573,
      "duration": 0.1664,
      "velocity": 127,
      "chip": "ym2612"
    },
    {
      "channel": 4,
      "note": 69,
      "start": 120.3575,
      "duration": 0.1664,
      "velocity": 93,
      "chip": "ym2612"
    },
    {
      "channel": 0,
      "note": 81,
      "start": 120.4233,
      "duration": 0.1002,
      "velocity": 93,
      "chip": "ym2612"
    },
    {
      "channel": 0,
      "note": 76,
      "start": 120.5237,
      "duration": 0.0797,
      "velocity": 93,
      "chip": "ym2612"
    },
    {
      "channel": 1,
      "note": 57,
      "start": 120.5237,
      "duration": 0.1599,
      "velocity": 99,
      "chip": "ym2612"
    },
    {
      "channel": 2,
      "note": 83,
      "start": 120.5238,
      "duration": 0.1599,
      "velocity": 127,
      "chip": "ym2612"
    },
    {
      "channel": 3,
      "note": 52,
      "start": 120.5239,
      "duration": 0.1599,
      "velocity": 95,
      "chip": "ym2612"
    },
    {
      "channel": 4,
      "note": 71,
      "start": 120.524,
      "duration": 0.1598,
      "velocity": 93,
      "chip": "ym2612"
    },
    {
      "channel": 0,
      "note": 74,
      "start": 120.6033,
      "duration": 0.0802,
      "velocity": 93,
      "chip": "ym2612"
    },
    {
      "channel": 0,
      "note": 69,
      "start": 120.6836,
      "duration": 0.0798,
      "velocity": 93,
      "chip": "ym2612"
    },
    {
      "channel": 1,
      "note": 59,
      "start": 120.6837,
      "duration": 0.18,
      "velocity": 99,
      "chip": "ym2612"
    },
    {
      "channel": 2,
      "note": 84,
      "start": 120.6837,
      "duration": 0.18,
      "velocity": 127,
      "chip": "ym2612"
    },
    {
      "channel": 3,
      "note": 50,
      "start": 120.6838,
      "duration": 0.18,
      "velocity": 95,
      "chip": "ym2612"
    },
    {
      "channel": 4,
      "note": 72,
      "start": 120.6839,
      "duration": 0.18,
      "velocity": 93,
      "chip": "ym2612"
    },
    {
      "channel": 0,
      "note": 74,
      "start": 120.7633,
      "duration": 0.0599,
      "velocity": 93,
      "chip": "ym2612"
    },
    {
      "channel": 0,
      "note": 69,
      "start": 120.8637,
      "duration": 0.0013,
      "velocity": 93,
      "chip": "ym2612"
    },
    {
      "channel": 1,
      "note": 57,
      "start": 120.8637,
      "duration": 0.0366,
      "velocity": 99,
      "chip": "ym2612"
    },
    {
      "channel": 2,
      "note": 83,
      "start": 120.8638,
      "duration": 0.0165,
      "velocity": 127,
      "chip": "ym2612"
    },
    {
      "channel": 3,
      "note": 45,
      "start": 120.8639,
      "duration": 0.9338,
      "velocity": 95,
      "chip": "ym2612"
    },
    {
      "channel": 4,
      "note": 71,
      "start": 120.8639,
      "duration": 0.0165,
      "velocity": 93,
      "chip": "ym2612"
    },
    {
      "channel": 0,
      "note": 74,
      "start": 120.8649,
      "duration": 0.0353,
      "velocity": 93,
      "chip": "ym2612"
    },
    {
      "channel": 0,
      "note": 76,
      "start": 120.9003,
      "duration": 0.0799,
      "velocity": 93,
      "chip": "ym2612"
    },
    {
      "channel": 1,
      "note": 52,
      "start": 120.9004,
      "duration": 0.1799,
      "velocity": 99,
      "chip": "ym2612"
    },
    {
      "channel": 0,
      "note": 81,
      "start": 120.9802,
      "duration": 0.1,
      "velocity": 93,
      "chip": "ym2612"
    },
    {
      "channel": 0,
      "note": 83,
      "start": 121.0803,
      "duration": 0.0799,
      "velocity": 93,
      "chip": "ym2612"
    },
    {
      "channel": 1,
      "note": 59,
      "start": 121.0804,
      "duration": 0.1602,
      "velocity": 99,
      "chip": "ym2612"
    },
    {
      "channel": 0,
      "note": 88,
      "start": 121.1602,
      "duration": 0.0803,
      "velocity": 93,
      "chip": "ym2612"
    },
    {
      "channel": 0,
      "note": 83,
      "start": 121.2406,
      "duration": 0.0798,
      "velocity": 93,
      "chip": "ym2612"
    },
    {
      "channel": 1,
      "note": 60,
      "start": 121.2406,
      "duration": 0.18,
      "velocity": 99,
      "chip": "ym2612"
    },
    {
      "channel": 2,
      "note": 74,
      "start": 121.2407,
      "duration": 0.18,
      "velocity": 127,
      "chip": "ym2612"
    },
    {
      "channel": 4,
      "note": 62,
      "start": 121.2408,
      "duration": 0.18,
      "velocity": 93,
      "chip": "ym2612"
    },
    {
      "channel": 0,
      "note": 81,
      "start": 121.3203,
      "duration": 0.1002,
      "velocity": 93,
      "chip": "ym2612"
    },
    {
      "channel": 0,
      "note": 76,
      "start": 121.4206,
      "duration": 0.0013,
      "velocity": 93,
      "chip": "ym2612"
    },
    {
      "channel": 1,
      "note": 59,
      "start": 121.4206,
      "duration": 0.0368,
      "velocity": 99,
      "chip": "ym2612"
    },
    {
      "channel": 2,
      "note": 76,
      "start": 121.4208,
      "duration": 0.0015,
      "velocity": 127,
      "chip": "ym2612"
    },
    {
      "channel": 4,
      "note": 64,
      "start": 121.4209,
      "duration": 0.0015,
      "velocity": 93,
      "chip": "ym2612"
    },
    {
      "channel": 0,
      "note": 74,
      "start": 121.4219,
      "duration": 0.0355,
      "velocity": 93,
      "chip": "ym2612"
    },
    {
      "channel": 2,
      "note": 81,
      "start": 121.4223,
      "duration": 0.0951,
      "velocity": 127,
      "chip": "ym2612"
    },
    {
      "channel": 4,
      "note": 69,
      "start": 121.4224,
      "duration": 0.0951,
      "velocity": 93,
      "chip": "ym2612"
    },
    {
      "channel": 0,
      "note": 69,
      "start": 121.4575,
      "duration": 0.0799,
      "velocity": 93,
      "chip": "ym2612"
    },
    {
      "channel": 1,
      "note": 52,
      "start": 121.4575,
      "duration": 0.1801,
      "velocity": 99,
      "chip": "ym2612"
    },
    {
      "channel": 2,
      "note": 76,
      "start": 121.5175,
      "duration": 0.1202,
      "velocity": 127,
      "chip": "ym2612"
    },
    {
      "channel": 4,
      "note": 64,
      "start": 121.5176,
      "duration": 0.1201,
      "velocity": 93,
      "chip": "ym2612"
    },
    {
      "channel": 0,
      "note": 74,
      "start": 121.5373,
      "duration": 0.1002,
      "velocity": 93,
      "chip": "ym2612"
    },
    {
      "channel": 0,
      "note": 76,
      "start": 121.6376,
      "duration": 0.0397,
      "velocity": 93,
      "chip": "ym2612"
    },
    {
      "channel": 1,
      "note": 57,
      "start": 121.6376,
      "duration": 0.1599,
      "velocity": 99,
      "chip": "ym2612"
    },
    {
      "channel": 2,
      "note": 83,
      "start": 121.6377,
      "duration": 0.717,
      "velocity": 127,
      "chip": "ym2612"
    },
    {
      "channel": 4,
      "note": 71,
      "start": 121.6378,
      "duration": 0.717,
      "velocity": 93,
      "chip": "ym2612"
    },
    {
      "channel": 0,
      "note": 81,
      "start": 121.7174,
      "duration": 0.0801,
      "velocity": 93,
      "chip": "ym2612"
    },
    {
      "channel": 0,
      "note": 83,
      "start": 121.7975,
      "duration": 0.0013,
      "velocity": 93,
      "chip": "ym2612"
    },
    {
      "channel": 1,
      "note": 59,
      "start": 121.7976,
      "duration": 0.057,
      "velocity": 99,
      "chip": "ym2612"
    },
    {
      "channel": 3,
      "note": 52,
      "start": 121.7977,
      "duration": 0.0168,
      "velocity": 95,
      "chip": "ym2612"
    },
    {
      "channel": 0,
      "note": 88,
      "start": 121.7988,
      "duration": 0.0557,
      "velocity": 93,
      "chip": "ym2612"
    },
    {
      "channel": 0,
      "note": 83,
      "start": 121.8546,
      "duration": 0.0798,
      "velocity": 93,
      "chip": "ym2612"
    },
    {
      "channel": 1,
      "note": 57,
      "start": 121.8546,
      "duration": 0.16,
      "velocity": 99,
      "chip": "ym2612"
    },
    {
      "channel": 3,
      "note": 59,
      "start": 121.8547,
      "duration": 0.16,
      "velocity": 95,
      "chip": "ym2612"
    },
    {
      "channel": 0,
      "note": 81,
      "start": 121.9344,
      "duration": 0.0801,
      "velocity": 93,
      "chip": "ym2612"
    },
    {
      "channel": 0,
      "note": 76,
      "start": 122.0146,
      "duration": 0.0798,
      "velocity": 93,
      "chip": "ym2612"
    },
    {
      "channel": 1,
      "note": 52,
      "start": 122.0146,
      "duration": 0.18,
      "velocity": 99,
      "chip": "ym2612"
    },
    {
      "channel": 3,
      "note": 60,
      "start": 122.0148,
      "duration": 0.1799,
      "velocity": 95,
      "chip": "ym2612"
    },
    {
      "channel": 0,
      "note": 74,
      "start": 122.0944,
      "duration": 0.1001,
      "velocity": 93,
      "chip": "ym2612"
    },
    {
      "channel": 0,
      "note": 69,
      "start": 122.1946,
      "duration": 0.0798,
      "velocity": 93,
      "chip": "ym2612"
    },
    {
      "channel": 1,
      "note": 59,
      "start": 122.1946,
      "duration": 0.16,
      "velocity": 99,
      "chip": "ym2612"
    },
    {
      "channel": 3,
      "note": 59,
      "start": 122.1947,
      "duration": 0.3658,
      "velocity": 95,
      "chip": "ym2612"
    },
    {
      "channel": 0,
      "note": 74,
      "start": 122.2744,
      "duration": 0.0802,
      "velocity": 93,
      "chip": "ym2612"
    },
    {
      "channel": 0,
      "note": 76,
      "start": 122.3546,
      "duration": 0.0013,
      "velocity": 93,
      "chip": "ym2612"
    },
    {
      "channel": 1,
      "note": 60,
      "start": 122.3547,
      "duration": 0.0569,
      "velocity": 99,
      "chip": "ym2612"
    },
    {
      "channel": 2,
      "note": 84,
      "start": 122.3548,
      "duration": 0.0569,
      "velocity": 127,
      "chip": "ym2612"
    },
    {
      "channel": 4,
      "note": 72,
      "start": 122.3549,
      "duration": 0.0569,
      "velocity": 93,
      "chip": "ym2612"
    },
    {
      "channel": 0,
      "note": 81,
      "start": 122.3559,
      "duration": 0.0154,
      "velocity": 93,
      "chip": "ym2612"
    },
    {
      "channel": 0,
      "note": 83,
      "start": 122.4116,
      "duration": 0.0013,
      "velocity": 93,
      "chip": "ym2612"
    },
    {
      "channel": 1,
      "note": 59,
      "start": 122.4117,
      "duration": 0.0022,
      "velocity": 99,
      "chip": "ym2612"
    },
    {
      "channel": 2,
      "note": 83,
      "start": 122.4117,
      "duration": 0.0022,
      "velocity": 127,
      "chip": "ym2612"
    },
    {
      "channel": 4,
      "note": 71,
      "start": 122.4119,
      "duration": 0.0022,
      "velocity": 93,
      "chip": "ym2612"
    },
    {
      "channel": 0,
      "note": 88,
      "start": 122.4129,
      "duration": 0.001,
      "velocity": 93,
      "chip": "ym2612"
    },
    {
      "channel": 0,
      "note": 83,
      "start": 122.4139,
      "duration": 0.0662,
      "velocity": 93,
      "chip": "ym2612"
    },
    {
      "channel": 1,
      "note": 52,
      "start": 122.414,
      "duration": 0.1464,
      "velocity": 99,
      "chip": "ym2612"
    },
    {
      "channel": 2,
      "note": 81,
      "start": 122.4141,
      "duration": 0.1464,
      "velocity": 127,
      "chip": "ym2612"
    },
    {
      "channel": 4,
      "note": 69,
      "start": 122.4142,
      "duration": 0.1464,
      "velocity": 93,
      "chip": "ym2612"
    },
    {
      "channel": 0,
      "note": 81,
      "start": 122.4801,
      "duration": 0.0802,
      "velocity": 93,
      "chip": "ym2612"
    },
    {
      "channel": 0,
      "note": 76,
      "start": 122.5604,
      "duration": 0.0997,
      "velocity": 93,
      "chip": "ym2612"
    },
    {
      "channel": 1,
      "note": 57,
      "start": 122.5605,
      "duration": 0.1798,
      "velocity": 99,
      "chip": "ym2612"
    },
    {
      "channel": 2,
      "note": 83,
      "start": 122.5605,
      "duration": 0.1798,
      "velocity": 127,
      "chip": "ym2612"
    },
    {
      "channel": 3,
      "note": 52,
      "start": 122.5606,
      "duration": 0.3399,
      "velocity": 95,
      "chip": "ym2612"
    },
    {
      "channel": 4,
      "note": 71,
      "start": 122.5607,
      "duration": 0.1798,
      "velocity": 93,
      "chip": "ym2612"
    },
    {
      "channel": 0,
      "note": 74,
      "start": 122.6601,
      "duration": 0.0801,
      "velocity": 93,
      "chip": "ym2612"
    },
    {
      "channel": 0,
      "note": 69,
      "start": 122.7403,
      "duration": 0.0798,
      "velocity": 93,
      "chip": "ym2612"
    },
    {
      "channel": 1,
      "note": 59,
      "start": 122.7403,
      "duration": 0.1601,
      "velocity": 99,
      "chip": "ym2612"
    },
    {
      "channel": 2,
      "note": 84,
      "start": 122.7404,
      "duration": 0.1601,
      "velocity": 127,
      "chip": "ym2612"
    },
    {
      "channel": 4,
      "note": 72,
      "start": 122.7405,
      "duration": 0.1601,
      "velocity": 93,
      "chip": "ym2612"
    },
    {
      "channel": 0,
      "note": 74,
      "start": 122.8201,
      "duration": 0.0599,
      "velocity": 93,
      "chip": "ym2612"
    },
    {
      "channel": 0,
      "note": 69,
      "start": 122.9004,
      "duration": 0.0016,
      "velocity": 93,
      "chip": "ym2612"
    },
    {
      "channel": 1,
      "note": 57,
      "start": 122.9005,
      "duration": 0.0566,
      "velocity": 99,
      "chip": "ym2612"
    },
    {
      "channel": 2,
      "note": 83,
      "start": 122.9005,
      "duration": 0.0365,
      "velocity": 127,
      "chip": "ym2612"
    },
    {
      "channel": 3,
      "note": 45,
      "start": 122.9006,
      "duration": 0.9538,
      "velocity": 95,
      "chip": "ym2612"
    },
    {
      "channel": 4,
      "note": 71,
      "start": 122.9006,
      "duration": 0.0365,
      "velocity": 93,
      "chip": "ym2612"
    },
    {
      "channel": 0,
      "note": 74,
      "start": 122.902,
      "duration": 0.055,
      "velocity": 93,
      "chip": "ym2612"
    },
    {
      "channel": 0,
      "note": 76,
      "start": 122.9571,
      "duration": 0.0799,
      "velocity": 93,
      "chip": "ym2612"
    },
    {
      "channel": 1,
      "note": 52,
      "start": 122.9571,
      "duration": 0.1599,
      "velocity": 99,
      "chip": "ym2612"
    },
    {
      "channel": 0,
      "note": 81,
      "start": 123.037,
      "duration": 0.08,
      "velocity": 93,
      "chip": "ym2612"
    },
    {
      "channel": 0,
      "note": 83,
      "start": 123.1171,
      "duration": 0.0999,
      "velocity": 93,
      "chip": "ym2612"
    },
    {
      "channel": 1,
      "note": 62,
      "start": 123.1171,
      "duration": 0.1802,
      "velocity": 99,
      "chip": "ym2612"
    },
    {
      "channel": 0,
      "note": 88,
      "start": 123.217,
      "duration": 0.0803,
      "velocity": 93,
      "chip": "ym2612"
    },
    {
      "channel": 0,
      "note": 83,
      "start": 123.2973,
      "duration": 0.0798,
      "velocity": 93,
      "chip": "ym2612"
    },
    {
      "channel": 1,
      "note": 64,
      "start": 123.2974,
      "duration": 0.1396,
      "velocity": 99,
      "chip": "ym2612"
    },
    {
      "channel": 2,
      "note": 74,
      "start": 123.2974,
      "duration": 0.16,
      "velocity": 127,
      "chip": "ym2612"
    },
    {
      "channel": 4,
      "note": 62,
      "start": 123.2976,
      "duration": 0.1599,
      "velocity": 93,
      "chip": "ym2612"
    },
    {
      "channel": 0,
      "note": 81,
      "start": 123.3771,
      "duration": 0.0802,
      "velocity": 93,
      "chip": "ym2612"
    },
    {
      "channel": 0,
      "note": 76,
      "start": 123.4573,
      "duration": 0.0016,
      "velocity": 93,
      "chip": "ym2612"
    },
    {
      "channel": 1,
      "note": 62,
      "start": 123.4574,
      "duration": 0.0569,
      "velocity": 99,
      "chip": "ym2612"
    },
    {
      "channel": 2,
      "note": 76,
      "start": 123.4574,
      "duration": 0.0016,
      "velocity": 127,
      "chip": "ym2612"
    },
    {
      "channel": 4,
      "note": 64,
      "start": 123.4576,
      "duration": 0.0015,
      "velocity": 93,
      "chip": "ym2612"
    },
    {
      "channel": 0,
      "note": 74,
      "start": 123.4589,
      "duration": 0.0552,
      "velocity": 93,
      "chip": "ym2612"
    },
    {
      "channel": 2,
      "note": 81,
      "start": 123.4593,
      "duration": 0.1149,
      "velocity": 127,
      "chip": "ym2612"
    },
    {
      "channel": 4,
      "note": 69,
      "start": 123.4595,
      "duration": 0.1149,
      "velocity": 93,
      "chip": "ym2612"
    },
    {
      "channel": 0,
      "note": 69,
      "start": 123.5142,
      "duration": 0.0799,
      "velocity": 93,
      "chip": "ym2612"
    },
    {
      "channel": 1,
      "note": 52,
      "start": 123.5143,
      "duration": 0.1601,
      "velocity": 99,
      "chip": "ym2612"
    },
    {
      "channel": 2,
      "note": 76,
      "start": 123.5743,
      "duration": 0.1002,
      "velocity": 127,
      "chip": "ym2612"
    },
    {
      "channel": 4,
      "note": 64,
      "start": 123.5744,
      "duration": 0.1001,
      "velocity": 93,
      "chip": "ym2612"
    },
    {
      "channel": 0,
      "note": 74,
      "start": 123.5941,
      "duration": 0.0802,
      "velocity": 93,
      "chip": "ym2612"
    },
    {
      "channel": 0,
      "note": 76,
      "start": 123.6744,
      "duration": 0.0597,
      "velocity": 93,
      "chip": "ym2612"
    },
    {
      "channel": 1,
      "note": 57,
      "start": 123.6744,
      "duration": 0.1799,
      "velocity": 99,
      "chip": "ym2612"
    },
    {
      "channel": 2,
      "note": 86,
      "start": 123.6745,
      "duration": 0.557,
      "velocity": 127,
      "chip": "ym2612"
    },
    {
      "channel": 4,
      "note": 74,
      "start": 123.6746,
      "duration": 0.5571,
      "velocity": 93,
      "chip": "ym2612"
    },
    {
      "channel": 0,
      "note": 81,
      "start": 123.7742,
      "duration": 0.0801,
      "velocity": 93,
      "chip": "ym2612"
    },
    {
      "channel": 0,
      "note": 83,
      "start": 123.8543,
      "duration": 0.0012,
      "velocity": 93,
      "chip": "ym2612"
    },
    {
      "channel": 1,
      "note": 59,
      "start": 123.8544,
      "duration": 0.037,
      "velocity": 99,
      "chip": "ym2612"
    },
    {
      "channel": 3,
      "note": 52,
      "start": 123.8545,
      "duration": 0.0369,
      "velocity": 95,
      "chip": "ym2612"
    },
    {
      "channel": 0,
      "note": 88,
      "start": 123.8555,
      "duration": 0.0357,
      "velocity": 93,
      "chip": "ym2612"
    },
    {
      "channel": 0,
      "note": 83,
      "start": 123.8913,
      "duration": 0.0998,
      "velocity": 93,
      "chip": "ym2612"
    },
    {
      "channel": 1,
      "note": 57,
      "start": 123.8914,
      "duration": 0.18,
      "velocity": 99,
      "chip": "ym2612"
    },
    {
      "channel": 3,
      "note": 57,
      "start": 123.8914,
      "duration": 0.18,
      "velocity": 95,
      "chip": "ym2612"
    },
    {
      "channel": 0,
      "note": 81,
      "start": 123.9911,
      "duration": 0.0802,
      "velocity": 93,
      "chip": "ym2612"
    },
    {
      "channel": 0,
      "note": 76,
      "start": 124.0714,
      "duration": 0.0798,
      "velocity": 93,
      "chip": "ym2612"
    },
    {
      "channel": 1,
      "note": 52,
      "start": 124.0714,
      "duration": 0.16,
      "velocity": 99,
      "chip": "ym2612"
    },
    {
      "channel": 3,
      "note": 59,
      "start": 124.0715,
      "duration": 0.1601,
      "velocity": 95,
      "chip": "ym2612"
    },
    {
      "channel": 0,
      "note": 74,
      "start": 124.1511,
      "duration": 0.0802,
      "velocity": 93,
      "chip": "ym2612"
    },
    {
      "channel": 0,
      "note": 69,
      "start": 124.2314,
      "duration": 0.0997,
      "velocity": 93,
      "chip": "ym2612"
    },
    {
      "channel": 1,
      "note": 62,
      "start": 124.2315,
      "duration": 0.1798,
      "velocity": 99,
      "chip": "ym2612"
    },
    {
      "channel": 2,
      "note": 76,
      "start": 124.2316,
      "duration": 0.1198,
      "velocity": 127,
      "chip": "ym2612"
    },
    {
      "channel": 3,
      "note": 57,
      "start": 124.2316,
      "duration": 0.3855,
      "velocity": 95,
      "chip": "ym2612"
    },
    {
      "channel": 4,
      "note": 64,
      "start": 124.2317,
      "duration": 0.1197,
      "velocity": 93,
      "chip": "ym2612"
    },
    {
      "channel": 0,
      "note": 74,
      "start": 124.3311,
      "duration": 0.0801,
      "velocity": 93,
      "chip": "ym2612"
    },
    {
      "channel": 2,
      "note": 81,
      "start": 124.3514,
      "duration": 0.0608,
      "velocity": 127,
      "chip": "ym2612"
    },
    {
      "channel": 4,
      "note": 69,
      "start": 124.3515,
      "duration": 0.0608,
      "velocity": 93,
      "chip": "ym2612"
    },
    {
      "channel": 0,
      "note": 76,
      "start": 124.4112,
      "duration": 0.0012,
      "velocity": 93,
      "chip": "ym2612"
    },
    {
      "channel": 1,
      "note": 64,
      "start": 124.4113,
      "duration": 0.0369,
      "velocity": 99,
      "chip": "ym2612"
    },
    {
      "channel": 2,
      "note": 86,
      "start": 124.4122,
      "duration": 0.0361,
      "velocity": 127,
      "chip": "ym2612"
    },
    {
      "channel": 4,
      "note": 74,
      "start": 124.4123,
      "duration": 0.0361,
      "velocity": 93,
      "chip": "ym2612"
    },
    {
      "channel": 0,
      "note": 81,
      "start": 124.4125,
      "duration": 0.0154,
      "velocity": 93,
      "chip": "ym2612"
    },
    {
      "channel": 0,
      "note": 83,
      "start": 124.4482,
      "duration": 0.0015,
      "velocity": 93,
      "chip": "ym2612"
    },
    {
      "channel": 1,
      "note": 62,
      "start": 124.4483,
      "duration": 0.0085,
      "velocity": 99,
      "chip": "ym2612"
    },
    {
      "channel": 2,
      "note": 88,
      "start": 124.4483,
      "duration": 0.0017,
      "velocity": 127,
      "chip": "ym2612"
    },
    {
      "channel": 4,
      "note": 76,
      "start": 124.4485,
      "duration": 0.0017,
      "velocity": 93,
      "chip": "ym2612"
    },
    {
      "channel": 0,
      "note": 88,
      "start": 124.4498,
      "duration": 0.007,
      "velocity": 93,
      "chip": "ym2612"
    },
    {
      "channel": 2,
      "note": 93,
      "start": 124.4501,
      "duration": 0.0667,
      "velocity": 127,
      "chip": "ym2612"
    },
    {
      "channel": 4,
      "note": 81,
      "start": 124.4503,
      "duration": 0.0666,
      "velocity": 93,
      "chip": "ym2612"
    },
    {
      "channel": 0,
      "note": 83,
      "start": 124.4568,
      "duration": 0.0799,
      "velocity": 93,
      "chip": "ym2612"
    },
    {
      "channel": 1,
      "note": 52,
      "start": 124.4569,
      "duration": 0.1601,
      "velocity": 99,
      "chip": "ym2612"
    },
    {
      "channel": 2,
      "note": 88,
      "start": 124.5169,
      "duration": 0.1002,
      "velocity": 127,
      "chip": "ym2612"
    },
    {
      "channel": 4,
      "note": 76,
      "start": 124.517,
      "duration": 0.1002,
      "velocity": 93,
      "chip": "ym2612"
    },
    {
      "channel": 0,
      "note": 81,
      "start": 124.5367,
      "duration": 0.0802,
      "velocity": 93,
      "chip": "ym2612"
    },
    {
      "channel": 0,
      "note": 76,
      "start": 124.617,
      "duration": 0.0997,
      "velocity": 93,
      "chip": "ym2612"
    },
    {
      "channel": 1,
      "note": 57,
      "start": 124.6171,
      "duration": 0.1798,
      "velocity": 99,
      "chip": "ym2612"
    },
    {
      "channel": 2,
      "note": 86,
      "start": 124.6171,
      "duration": 0.1198,
      "velocity": 127,
      "chip": "ym2612"
    },
    {
      "channel": 3,
      "note": 52,
      "start": 124.6172,
      "duration": 0.1797,
      "velocity": 95,
      "chip": "ym2612"
    },
    {
      "channel": 4,
      "note": 74,
      "start": 124.6173,
      "duration": 0.1197,
      "velocity": 93,
      "chip": "ym2612"
    },
    {
      "channel": 0,
      "note": 74,
      "start": 124.7167,
      "duration": 0.0801,
      "velocity": 93,
      "chip": "ym2612"
    },
    {
      "channel": 2,
      "note": 81,
      "start": 124.7369,
      "duration": 0.1199,
      "velocity": 127,
      "chip": "ym2612"
    },
    {
      "channel": 4,
      "note": 69,
      "start": 124.7371,
      "duration": 0.1199,
      "velocity": 93,
      "chip": "ym2612"
    },
    {
      "channel": 0,
      "note": 69,
      "start": 124.7968,
      "duration": 0.0799,
      "velocity": 93,
      "chip": "ym2612"
    },
    {
      "channel": 1,
      "note": 59,
      "start": 124.7969,
      "duration": 0.1602,
      "velocity": 99,
      "chip": "ym2612"
    },
    {
      "channel": 3,
      "note": 50,
      "start": 124.797,
      "duration": 0.1602,
      "velocity": 95,
      "chip": "ym2612"
    },
    {
      "channel": 2,
      "note": 76,
      "start": 124.8569,
      "duration": 0.1002,
      "velocity": 127,
      "chip": "ym2612"
    },
    {
      "channel": 4,
      "note": 64,
      "start": 124.857,
      "duration": 0.1002,
      "velocity": 93,
      "chip": "ym2612"
    },
    {
      "channel": 0,
      "note": 74,
      "start": 124.8767,
      "duration": 0.0599,
      "velocity": 93,
      "chip": "ym2612"
    },
    {
      "channel": 0,
      "note": 69,
      "start": 124.957,
      "duration": 0.0012,
      "velocity": 93,
      "chip": "ym2612"
    },
    {
      "channel": 1,
      "note": 45,
      "start": 124.9571,
      "duration": 0.0566,
      "velocity": 99,
      "chip": "ym2612"
    },
    {
      "channel": 2,
      "note": 69,
      "start": 124.9571,
      "duration": 0.0765,
      "velocity": 127,
      "chip": "ym2612"
    },
    {
      "channel": 3,
      "note": 45,
      "start": 124.9572,
      "duration": 0.8934,
      "velocity": 95,
      "chip": "ym2612"
    },
    {
      "channel": 4,
      "note": 57,
      "start": 124.9573,
      "duration": 0.0763,
      "velocity": 93,
      "chip": "ym2612"
    },
    {
      "channel": 0,
      "note": 74,
      "start": 124.9582,
      "duration": 0.0554,
      "velocity": 93,
      "chip": "ym2612"
    },
    {
      "channel": 0,
      "note": 76,
      "start": 125.0137,
      "duration": 0.0797,
      "velocity": 93,
      "chip": "ym2612"
    },
    {
      "channel": 1,
      "note": 52,
      "start": 125.0137,
      "duration": 0.1598,
      "velocity": 99,
      "chip": "ym2612"
    },
    {
      "channel": 0,
      "note": 81,
      "start": 125.0934,
      "duration": 0.08,
      "velocity": 93,
      "chip": "ym2612"
    },
    {
      "channel": 0,
      "note": 83,
      "start": 125.1735,
      "duration": 0.0799,
      "velocity": 93,
      "chip": "ym2612"
    },
    {
      "channel": 1,
      "note": 59,
      "start": 125.1736,
      "duration": 0.1801,
      "velocity": 99,
      "chip": "ym2612"
    },
    {
      "channel": 0,
      "note": 88,
      "start": 125.2534,
      "duration": 0.1002,
      "velocity": 93,
      "chip": "ym2612"
    },
    {
      "channel": 0,
      "note": 83,
      "start": 125.3537,
      "duration": 0.0798,
      "velocity": 93,
      "chip": "ym2612"
    },
    {
      "channel": 1,
      "note": 60,
      "start": 125.3538,
      "duration": 0.1601,
      "velocity": 99,
      "chip": "ym2612"
    },
    {
      "channel": 2,
      "note": 74,
      "start": 125.3538,
      "duration": 0.1601,
      "velocity": 127,
      "chip": "ym2612"
    },
    {
      "channel": 4,
      "note": 62,
      "start": 125.354,
      "duration": 0.16,
      "velocity": 93,
      "chip": "ym2612"
    },
    {
      "channel": 0,
      "note": 81,
      "start": 125.4335,
      "duration": 0.0802,
      "velocity": 93,
      "chip": "ym2612"
    },
    {
      "channel": 0,
      "note": 76,
      "start": 125.5138,
      "duration": 0.0014,
      "velocity": 93,
      "chip": "ym2612"
    },
    {
      "channel": 1,
      "note": 59,
      "start": 125.5138,
      "duration": 0.0569,
      "velocity": 99,
      "chip": "ym2612"
    },
    {
      "channel": 2,
      "note": 76,
      "start": 125.5139,
      "duration": 0.0018,
      "velocity": 127,
      "chip": "ym2612"
    },
    {
      "channel": 4,
      "note": 64,
      "start": 125.514,
      "duration": 0.0018,
      "velocity": 93,
      "chip": "ym2612"
    },
    {
      "channel": 0,
      "note": 74,
      "start": 125.5151,
      "duration": 0.0555,
      "velocity": 93,
      "chip": "ym2612"
    },
    {
      "channel": 2,
      "note": 81,
      "start": 125.5158,
      "duration": 0.1149,
      "velocity": 127,
      "chip": "ym2612"
    },
    {
      "channel": 4,
      "note": 69,
      "start": 125.5159,
      "duration": 0.1149,
      "velocity": 93,
      "chip": "ym2612"
    },
    {
      "channel": 0,
      "note": 69,
      "start": 125.5707,
      "duration": 0.0799,
      "velocity": 93,
      "chip": "ym2612"
    },
    {
      "channel": 1,
      "note": 52,
      "start": 125.5708,
      "duration": 0.1601,
      "velocity": 99,
      "chip": "ym2612"
    },
    {
      "channel": 2,
      "note": 76,
      "start": 125.6308,
      "duration": 0.0797,
      "velocity": 127,
      "chip": "ym2612"
    },
    {
      "channel": 4,
      "note": 64,
      "start": 125.6309,
      "duration": 0.0798,
      "velocity": 93,
      "chip": "ym2612"
    },
    {
      "channel": 0,
      "note": 74,
      "start": 125.6506,
      "duration": 0.0802,
      "velocity": 93,
      "chip": "ym2612"
    },
    {
      "channel": 0,
      "note": 76,
      "start": 125.7308,
      "duration": 0.0597,
      "velocity": 93,
      "chip": "ym2612"
    },
    {
      "channel": 1,
      "note": 57,
      "start": 125.7309,
      "duration": 0.1799,
      "velocity": 99,
      "chip": "ym2612"
    },
    {
      "channel": 2,
      "note": 83,
      "start": 125.731,
      "duration": 0.737,
      "velocity": 127,
      "chip": "ym2612"
    },
    {
      "channel": 4,
      "note": 71,
      "start": 125.7311,
      "duration": 0.737,
      "velocity": 93,
      "chip": "ym2612"
    },
    {
      "channel": 0,
      "note": 81,
      "start": 125.8106,
      "duration": 0.1001,
      "velocity": 93,
      "chip": "ym2612"
    },
    {
      "channel": 0,
      "note": 83,
      "start": 125.9108,
      "duration": 0.0013,
      "velocity": 93,
      "chip": "ym2612"
    },
    {
      "channel": 1,
      "note": 59,
      "start": 125.9108,
      "duration": 0.037,
      "velocity": 99,
      "chip": "ym2612"
    },
    {
      "channel": 3,
      "note": 52,
      "start": 125.911,
      "duration": 0.0167,
      "velocity": 95,
      "chip": "ym2612"
    },
    {
      "channel": 0,
      "note": 88,
      "start": 125.9121,
      "duration": 0.0356,
      "velocity": 93,
      "chip": "ym2612"
    },
    {
      "channel": 0,
      "note": 83,
      "start": 125.9478,
      "duration": 0.0798,
      "velocity": 93,
      "chip": "ym2612"
    },
    {
      "channel": 1,
      "note": 57,
      "start": 125.9478,
      "duration": 0.18,
      "velocity": 99,
      "chip": "ym2612"
    },
    {
      "channel": 3,
      "note": 59,
      "start": 125.9479,
      "duration": 0.18,
      "velocity": 95,
      "chip": "ym2612"
    },
    {
      "channel": 0,
      "note": 81,
      "start": 126.0276,
      "duration": 0.1001,
      "velocity": 93,
      "chip": "ym2612"
    },
    {
      "channel": 0,
      "note": 76,
      "start": 126.1278,
      "duration": 0.0798,
      "velocity": 93,
      "chip": "ym2612"
    },
    {
      "channel": 1,
      "note": 52,
      "start": 126.1278,
      "duration": 0.16,
      "velocity": 99,
      "chip": "ym2612"
    },
    {
      "channel": 3,
      "note": 60,
      "start": 126.128,
      "duration": 0.1599,
      "velocity": 95,
      "chip": "ym2612"
    },
    {
      "channel": 0,
      "note": 74,
      "start": 126.2076,
      "duration": 0.0801,
      "velocity": 93,
      "chip": "ym2612"
    },
    {
      "channel": 0,
      "note": 69,
      "start": 126.2878,
      "duration": 0.0798,
      "velocity": 93,
      "chip": "ym2612"
    },
    {
      "channel": 1,
      "note": 59,
      "start": 126.2878,
      "duration": 0.18,
      "velocity": 99,
      "chip": "ym2612"
    },
    {
      "channel": 3,
      "note": 59,
      "start": 126.2879,
      "duration": 0.3857,
      "velocity": 95,
      "chip": "ym2612"
    },
    {
      "channel": 0,
      "note": 74,
      "start": 126.3676,
      "duration": 0.1002,
      "velocity": 93,
      "chip": "ym2612"
    },
    {
      "channel": 0,
      "note": 76,
      "start": 126.4678,
      "duration": 0.0013,
      "velocity": 93,
      "chip": "ym2612"
    },
    {
      "channel": 1,
      "note": 60,
      "start": 126.4679,
      "duration": 0.0368,
      "velocity": 99,
      "chip": "ym2612"
    },
    {
      "channel": 2,
      "note": 84,
      "start": 126.468,
      "duration": 0.0368,
      "velocity": 127,
      "chip": "ym2612"
    },
    {
      "channel": 4,
      "note": 72,
      "start": 126.4681,
      "duration": 0.0368,
      "velocity": 93,
      "chip": "ym2612"
    },
    {
      "channel": 0,
      "note": 81,
      "start": 126.4691,
      "duration": 0.0153,
      "velocity": 93,
      "chip": "ym2612"
    },
    {
      "channel": 0,
      "note": 83,
      "start": 126.5047,
      "duration": 0.0013,
      "velocity": 93,
      "chip": "ym2612"
    },
    {
      "channel": 1,
      "note": 59,
      "start": 126.5048,
      "duration": 0.0086,
      "velocity": 99,
      "chip": "ym2612"
    },
    {
      "channel": 2,
      "note": 83,
      "start": 126.5049,
      "duration": 0.0086,
      "velocity": 127,
      "chip": "ym2612"
    },
    {
      "channel": 4,
      "note": 71,
      "start": 126.505,
      "duration": 0.0086,
      "velocity": 93,
      "chip": "ym2612"
    },
    {
      "channel": 0,
      "note": 88,
      "start": 126.5061,
      "duration": 0.0073,
      "velocity": 93,
      "chip": "ym2612"
    },
    {
      "channel": 0,
      "note": 83,
      "start": 126.5134,
      "duration": 0.0798,
      "velocity": 93,
      "chip": "ym2612"
    },
    {
      "channel": 1,
      "note": 52,
      "start": 126.5135,
      "duration": 0.16,
      "velocity": 99,
      "chip": "ym2612"
    },
    {
      "channel": 2,
      "note": 81,
      "start": 126.5136,
      "duration": 0.16,
      "velocity": 127,
      "chip": "ym2612"
    },
    {
      "channel": 4,
      "note": 69,
      "start": 126.5137,
      "duration": 0.16,
      "velocity": 93,
      "chip": "ym2612"
    },
    {
      "channel": 0,
      "note": 81,
      "start": 126.5932,
      "duration": 0.0802,
      "velocity": 93,
      "chip": "ym2612"
    },
    {
      "channel": 0,
      "note": 76,
      "start": 126.6735,
      "duration": 0.0797,
      "velocity": 93,
      "chip": "ym2612"
    },
    {
      "channel": 1,
      "note": 57,
      "start": 126.6736,
      "duration": 0.1798,
      "velocity": 99,
      "chip": "ym2612"
    },
    {
      "channel": 2,
      "note": 83,
      "start": 126.6736,
      "duration": 0.1798,
      "velocity": 127,
      "chip": "ym2612"
    },
    {
      "channel": 3,
      "note": 52,
      "start": 126.6737,
      "duration": 0.3195,
      "velocity": 95,
      "chip": "ym2612"
    },
    {
      "channel": 4,
      "note": 71,
      "start": 126.6738,
      "duration": 0.1798,
      "velocity": 93,
      "chip": "ym2612"
    },
    {
      "channel": 0,
      "note": 74,
      "start": 126.7532,
      "duration": 0.1001,
      "velocity": 93,
      "chip": "ym2612"
    },
    {
      "channel": 0,
      "note": 69,
      "start": 126.8534,
      "duration": 0.0798,
      "velocity": 93,
      "chip": "ym2612"
    },
    {
      "channel": 1,
      "note": 59,
      "start": 126.8534,
      "duration": 0.1601,
      "velocity": 99,
      "chip": "ym2612"
    },
    {
      "channel": 2,
      "note": 84,
      "start": 126.8535,
      "duration": 0.1601,
      "velocity": 127,
      "chip": "ym2612"
    },
    {
      "channel": 4,
      "note": 72,
      "start": 126.8536,
      "duration": 0.1601,
      "velocity": 93,
      "chip": "ym2612"
    },
    {
      "channel": 0,
      "note": 74,
      "start": 126.9332,
      "duration": 0.0599,
      "velocity": 93,
      "chip": "ym2612"
    },
    {
      "channel": 0,
      "note": 69,
      "start": 127.0135,
      "duration": 0.0013,
      "velocity": 93,
      "chip": "ym2612"
    },
    {
      "channel": 1,
      "note": 57,
      "start": 127.0136,
      "duration": 0.0567,
      "velocity": 99,
      "chip": "ym2612"
    },
    {
      "channel": 2,
      "note": 83,
      "start": 127.0136,
      "duration": 0.0567,
      "velocity": 127,
      "chip": "ym2612"
    },
    {
      "channel": 3,
      "note": 45,
      "start": 127.0137,
      "duration": 0.9337,
      "velocity": 95,
      "chip": "ym2612"
    },
    {
      "channel": 4,
      "note": 71,
      "start": 127.0137,
      "duration": 0.0566,
      "velocity": 93,
      "chip": "ym2612"
    },
    {
      "channel": 0,
      "note": 74,
      "start": 127.0148,
      "duration": 0.0554,
      "velocity": 93,
      "chip": "ym2612"
    },
    {
      "channel": 0,
      "note": 76,
      "start": 127.0703,
      "duration": 0.0797,
      "velocity": 93,
      "chip": "ym2612"
    },
    {
      "channel": 1,
      "note": 52,
      "start": 127.0703,
      "duration": 0.1598,
      "velocity": 99,
      "chip": "ym2612"
    },
    {
      "channel": 0,
      "note": 81,
      "start": 127.1501,
      "duration": 0.08,
      "velocity": 93,
      "chip": "ym2612"
    },
    {
      "channel": 0,
      "note": 83,
      "start": 127.2301,
      "duration": 0.0799,
      "velocity": 93,
      "chip": "ym2612"
    },
    {
      "channel": 1,
      "note": 62,
      "start": 127.2302,
      "duration": 0.1602,
      "velocity": 99,
      "chip": "ym2612"
    },
    {
      "channel": 0,
      "note": 88,
      "start": 127.3101,
      "duration": 0.0803,
      "velocity": 93,
      "chip": "ym2612"
    },
    {
      "channel": 0,
      "note": 83,
      "start": 127.3905,
      "duration": 0.0015,
      "velocity": 93,
      "chip": "ym2612"
    },
    {
      "channel": 1,
      "note": 64,
      "start": 127.3905,
      "duration": 0.0568,
      "velocity": 99,
      "chip": "ym2612"
    },
    {
      "channel": 2,
      "note": 74,
      "start": 127.3906,
      "duration": 0.0568,
      "velocity": 127,
      "chip": "ym2612"
    },
    {
      "channel": 4,
      "note": 62,
      "start": 127.3907,
      "duration": 0.0568,
      "velocity": 93,
      "chip": "ym2612"
    },
    {
      "channel": 0,
      "note": 81,
      "start": 127.392,
      "duration": 0.0553,
      "velocity": 93,
      "chip": "ym2612"
    },
    {
      "channel": 0,
      "note": 76,
      "start": 127.4473,
      "duration": 0.0798,
      "velocity": 93,
      "chip": "ym2612"
    },
    {
      "channel": 1,
      "note": 62,
      "start": 127.4474,
      "duration": 0.1598,
      "velocity": 99,
      "chip": "ym2612"
    },
    {
      "channel": 2,
      "note": 76,
      "start": 127.4474,
      "duration": 0.1199,
      "velocity": 127,
      "chip": "ym2612"
    },
    {
      "channel": 4,
      "note": 64,
      "start": 127.4476,
      "duration": 0.1199,
      "velocity": 93,
      "chip": "ym2612"
    },
    {
      "channel": 0,
      "note": 74,
      "start": 127.5271,
      "duration": 0.0801,
      "velocity": 93,
      "chip": "ym2612"
    },
    {
      "channel": 2,
      "note": 81,
      "start": 127.5674,
      "duration": 0.0798,
      "velocity": 127,
      "chip": "ym2612"
    },
    {
      "channel": 4,
      "note": 69,
      "start": 127.5675,
      "duration": 0.0797,
      "velocity": 93,
      "chip": "ym2612"
    },
    {
      "channel": 0,
      "note": 69,
      "start": 127.6072,
      "duration": 0.0999,
      "velocity": 93,
      "chip": "ym2612"
    },
    {
      "channel": 1,
      "note": 52,
      "start": 127.6073,
      "duration": 0.1801,
      "velocity": 99,
      "chip": "ym2612"
    },
    {
      "channel": 2,
      "note": 76,
      "start": 127.6673,
      "duration": 0.1202,
      "velocity": 127,
      "chip": "ym2612"
    },
    {
      "channel": 4,
      "note": 64,
      "start": 127.6674,
      "duration": 0.1201,
      "velocity": 93,
      "chip": "ym2612"
    },
    {
      "channel": 0,
      "note": 74,
      "start": 127.7071,
      "duration": 0.0802,
      "velocity": 93,
      "chip": "ym2612"
    },
    {
      "channel": 0,
      "note": 76,
      "start": 127.7873,
      "duration": 0.0597,
      "velocity": 93,
      "chip": "ym2612"
    },
    {
      "channel": 1,
      "note": 57,
      "start": 127.7874,
      "duration": 0.1599,
      "velocity": 99,
      "chip": "ym2612"
    },
    {
      "channel": 2,
      "note": 86,
      "start": 127.7874,
      "duration": 0.717,
      "velocity": 127,
      "chip": "ym2612"
    },
    {
      "channel": 4,
      "note": 74,
      "start": 127.7876,
      "duration": 0.717,
      "velocity": 93,
      "chip": "ym2612"
    },
    {
      "channel": 0,
      "note": 81,
      "start": 127.8671,
      "duration": 0.0801,
      "velocity": 93,
      "chip": "ym2612"
    },
    {
      "channel": 0,
      "note": 83,
      "start": 127.9473,
      "duration": 0.0016,
      "velocity": 93,
      "chip": "ym2612"
    },
    {
      "channel": 1,
      "note": 59,
      "start": 127.9473,
      "duration": 0.057,
      "velocity": 99,
      "chip": "ym2612"
    },
    {
      "channel": 3,
      "note": 52,
      "start": 127.9474,
      "duration": 0.057,
      "velocity": 95,
      "chip": "ym2612"
    },
    {
      "channel": 0,
      "note": 88,
      "start": 127.9489,
      "duration": 0.0554,
      "velocity": 93,
      "chip": "ym2612"
    },
    {
      "channel": 0,
      "note": 83,
      "start": 128.0043,
      "duration": 0.0798,
      "velocity": 93,
      "chip": "ym2612"
    },
    {
      "channel": 1,
      "note": 57,
      "start": 128.0044,
      "duration": 0.16,
      "velocity": 99,
      "chip": "ym2612"
    },
    {
      "channel": 3,
      "note": 57,
      "start": 128.0045,
      "duration": 0.1599,
      "velocity": 95,
      "chip": "ym2612"
    },
    {
      "channel": 0,
      "note": 81,
      "start": 128.0841,
      "duration": 0.0801,
      "velocity": 93,
      "chip": "ym2612"
    },
    {
      "channel": 0,
      "note": 76,
      "start": 128.1643,
      "duration": 0.0998,
      "velocity": 93,
      "chip": "ym2612"
    },
    {
      "channel": 1,
      "note": 52,
      "start": 128.1644,
      "duration": 0.18,
      "velocity": 99,
      "chip": "ym2612"
    },
    {
      "channel": 3,
      "note": 59,
      "start": 128.1645,
      "duration": 0.1799,
      "velocity": 95,
      "chip": "ym2612"
    },
    {
      "channel": 0,
      "note": 74,
      "start": 128.2641,
      "duration": 0.0801,
      "velocity": 93,
      "chip": "ym2612"
    },
    {
      "channel": 0,
      "note": 69,
      "start": 128.3443,
      "duration": 0.0798,
      "velocity": 93,
      "chip": "ym2612"
    },
    {
      "channel": 1,
      "note": 62,
      "start": 128.3444,
      "duration": 0.16,
      "velocity": 99,
      "chip": "ym2612"
    },
    {
      "channel": 3,
      "note": 57,
      "start": 128.3444,
      "duration": 0.3454,
      "velocity": 95,
      "chip": "ym2612"
    },
    {
      "channel": 0,
      "note": 74,
      "start": 128.4241,
      "duration": 0.0802,
      "velocity": 93,
      "chip": "ym2612"
    },
    {
      "channel": 0,
      "note": 76,
      "start": 128.5044,
      "duration": 0.0015,
      "velocity": 93,
      "chip": "ym2612"
    },
    {
      "channel": 1,
      "note": 64,
      "start": 128.5044,
      "duration": 0.0569,
      "velocity": 99,
      "chip": "ym2612"
    },
    {
      "channel": 2,
      "note": 84,
      "start": 128.5045,
      "duration": 0.0569,
      "velocity": 127,
      "chip": "ym2612"
    },
    {
      "channel": 4,
      "note": 72,
      "start": 128.5046,
      "duration": 0.0569,
      "velocity": 93,
      "chip": "ym2612"
    },
    {
      "channel": 0,
      "note": 81,
      "start": 128.5059,
      "duration": 0.0151,
      "velocity": 93,
      "chip": "ym2612"
    },
    {
      "channel": 0,
      "note": 83,
      "start": 128.5613,
      "duration": 0.0013,
      "velocity": 93,
      "chip": "ym2612"
    },
    {
      "channel": 1,
      "note": 62,
      "start": 128.5614,
      "duration": 0.0023,
      "velocity": 99,
      "chip": "ym2612"
    },
    {
      "channel": 2,
      "note": 83,
      "start": 128.5615,
      "duration": 0.0023,
      "velocity": 127,
      "chip": "ym2612"
    },
    {
      "channel": 4,
      "note": 71,
      "start": 128.5616,
      "duration": 0.0023,
      "velocity": 93,
      "chip": "ym2612"
    },
    {
      "channel": 0,
      "note": 88,
      "start": 128.5627,
      "duration": 0.001,
      "velocity": 93,
      "chip": "ym2612"
    },
    {
      "channel": 0,
      "note": 83,
      "start": 128.5637,
      "duration": 0.0861,
      "velocity": 93,
      "chip": "ym2612"
    },
    {
      "channel": 1,
      "note": 52,
      "start": 128.5638,
      "duration": 0.1664,
      "velocity": 99,
      "chip": "ym2612"
    },
    {
      "channel": 2,
      "note": 81,
      "start": 128.5639,
      "duration": 0.1664,
      "velocity": 127,
      "chip": "ym2612"
    },
    {
      "channel": 4,
      "note": 69,
      "start": 128.564,
      "duration": 0.1664,
      "velocity": 93,
      "chip": "ym2612"
    },
    {
      "channel": 0,
      "note": 81,
      "start": 128.6498,
      "duration": 0.0802,
      "velocity": 93,
      "chip": "ym2612"
    },
    {
      "channel": 0,
      "note": 76,
      "start": 128.7302,
      "duration": 0.0797,
      "velocity": 93,
      "chip": "ym2612"
    },
    {
      "channel": 1,
      "note": 57,
      "start": 128.7302,
      "duration": 0.1599,
      "velocity": 99,
      "chip": "ym2612"
    },
    {
      "channel": 2,
      "note": 83,
      "start": 128.7303,
      "duration": 0.1599,
      "velocity": 127,
      "chip": "ym2612"
    },
    {
      "channel": 3,
      "note": 52,
      "start": 128.7304,
      "duration": 0.1599,
      "velocity": 95,
      "chip": "ym2612"
    },
    {
      "channel": 4,
      "note": 71,
      "start": 128.7305,
      "duration": 0.1598,
      "velocity": 93,
      "chip": "ym2612"
    },
    {
      "channel": 0,
      "note": 74,
      "start": 128.8098,
      "duration": 0.0802,
      "velocity": 93,
      "chip": "ym2612"
    },
    {
      "channel": 0,
      "note": 69,
      "start": 128.8901,
      "duration": 0.0998,
      "velocity": 93,
      "chip": "ym2612"
    },
    {
      "channel": 1,
      "note": 59,
      "start": 128.8902,
      "duration": 0.18,
      "velocity": 99,
      "chip": "ym2612"
    },
    {
      "channel": 2,
      "note": 84,
      "start": 128.8902,
      "duration": 0.18,
      "velocity": 127,
      "chip": "ym2612"
    },
    {
      "channel": 3,
      "note": 50,
      "start": 128.8903,
      "duration": 0.18,
      "velocity": 95,
      "chip": "ym2612"
    },
    {
      "channel": 4,
      "note": 72,
      "start": 128.8904,
      "duration": 0.18,
      "velocity": 93,
      "chip": "ym2612"
    },
    {
      "channel": 0,
      "note": 74,
      "start": 128.9898,
      "duration": 0.0399,
      "velocity": 93,
      "chip": "ym2612"
    },
    {
      "channel": 0,
      "note": 69,
      "start": 129.0702,
      "duration": 0.0013,
      "velocity": 93,
      "chip": "ym2612"
    },
    {
      "channel": 1,
      "note": 57,
      "start": 129.0702,
      "duration": 0.0368,
      "velocity": 99,
      "chip": "ym2612"
    },
    {
      "channel": 2,
      "note": 83,
      "start": 129.0703,
      "duration": 0.0766,
      "velocity": 127,
      "chip": "ym2612"
    },
    {
      "channel": 3,
      "note": 45,
      "start": 129.0704,
      "duration": 0.9338,
      "velocity": 95,
      "chip": "ym2612"
    },
    {
      "channel": 4,
      "note": 71,
      "start": 129.0704,
      "duration": 0.0766,
      "velocity": 93,
      "chip": "ym2612"
    },
    {
      "channel": 0,
      "note": 74,
      "start": 129.0715,
      "duration": 0.0354,
      "velocity": 93,
      "chip": "ym2612"
    },
    {
      "channel": 0,
      "note": 76,
      "start": 129.107,
      "duration": 0.0997,
      "velocity": 93,
      "chip": "ym2612"
    },
    {
      "channel": 1,
      "note": 52,
      "start": 129.1071,
      "duration": 0.1798,
      "velocity": 99,
      "chip": "ym2612"
    },
    {
      "channel": 0,
      "note": 81,
      "start": 129.2068,
      "duration": 0.08,
      "velocity": 93,
      "chip": "ym2612"
    },
    {
      "channel": 0,
      "note": 83,
      "start": 129.2868,
      "duration": 0.0799,
      "velocity": 93,
      "chip": "ym2612"
    },
    {
      "channel": 1,
      "note": 59,
      "start": 129.2869,
      "duration": 0.1602,
      "velocity": 99,
      "chip": "ym2612"
    },
    {
      "channel": 0,
      "note": 88,
      "start": 129.3668,
      "duration": 0.0803,
      "velocity": 93,
      "chip": "ym2612"
    },
    {
      "channel": 0,
      "note": 83,
      "start": 129.4472,
      "duration": 0.0015,
      "velocity": 93,
      "chip": "ym2612"
    },
    {
      "channel": 1,
      "note": 60,
      "start": 129.4472,
      "duration": 0.0568,
      "velocity": 99,
      "chip": "ym2612"
    },
    {
      "channel": 2,
      "note": 74,
      "start": 129.4473,
      "duration": 0.0568,
      "velocity": 127,
      "chip": "ym2612"
    },
    {
      "channel": 4,
      "note": 62,
      "start": 129.4474,
      "duration": 0.0568,
      "velocity": 93,
      "chip": "ym2612"
    },
    {
      "channel": 0,
      "note": 81,
      "start": 129.4487,
      "duration": 0.0553,
      "velocity": 93,
      "chip": "ym2612"
    },
    {
      "channel": 0,
      "note": 76,
      "start": 129.5041,
      "duration": 0.0798,
      "velocity": 93,
      "chip": "ym2612"
    },
    {
      "channel": 1,
      "note": 59,
      "start": 129.5041,
      "duration": 0.1598,
      "velocity": 99,
      "chip": "ym2612"
    },
    {
      "channel": 2,
      "note": 76,
      "start": 129.5042,
      "duration": 0.0999,
      "velocity": 127,
      "chip": "ym2612"
    },
    {
      "channel": 4,
      "note": 64,
      "start": 129.5043,
      "duration": 0.0999,
      "velocity": 93,
      "chip": "ym2612"
    },
    {
      "channel": 0,
      "note": 74,
      "start": 129.5838,
      "duration": 0.0801,
      "velocity": 93,
      "chip": "ym2612"
    },
    {
      "channel": 2,
      "note": 81,
      "start": 129.6041,
      "duration": 0.1198,
      "velocity": 127,
      "chip": "ym2612"
    },
    {
      "channel": 4,
      "note": 69,
      "start": 129.6043,
      "duration": 0.1198,
      "velocity": 93,
      "chip": "ym2612"
    },
    {
      "channel": 0,
      "note": 69,
      "start": 129.6639,
      "duration": 0.0799,
      "velocity": 93,
      "chip": "ym2612"
    },
    {
      "channel": 1,
      "note": 52,
      "start": 129.664,
      "duration": 0.1801,
      "velocity": 99,
      "chip": "ym2612"
    },
    {
      "channel": 2,
      "note": 76,
      "start": 129.724,
      "duration": 0.1202,
      "velocity": 127,
      "chip": "ym2612"
    },
    {
      "channel": 4,
      "note": 64,
      "start": 129.7241,
      "duration": 0.1201,
      "velocity": 93,
      "chip": "ym2612"
    },
    {
      "channel": 0,
      "note": 74,
      "start": 129.7438,
      "duration": 0.1002,
      "velocity": 93,
      "chip": "ym2612"
    },
    {
      "channel": 0,
      "note": 76,
      "start": 129.8441,
      "duration": 0.0597,
      "velocity": 93,
      "chip": "ym2612"
    },
    {
      "channel": 1,
      "note": 57,
      "start": 129.8441,
      "duration": 0.1599,
      "velocity": 99,
      "chip": "ym2612"
    },
    {
      "channel": 2,
      "note": 83,
      "start": 129.8442,
      "duration": 0.717,
      "velocity": 127,
      "chip": "ym2612"
    },
    {
      "channel": 4,
      "note": 71,
      "start": 129.8443,
      "duration": 0.717,
      "velocity": 93,
      "chip": "ym2612"
    },
    {
      "channel": 0,
      "note": 81,
      "start": 129.9239,
      "duration": 0.0801,
      "velocity": 93,
      "chip": "ym2612"
    },
    {
      "channel": 0,
      "note": 83,
      "start": 130.004,
      "duration": 0.0014,
      "velocity": 93,
      "chip": "ym2612"
    },
    {
      "channel": 1,
      "note": 59,
      "start": 130.0041,
      "duration": 0.057,
      "velocity": 99,
      "chip": "ym2612"
    },
    {
      "channel": 3,
      "note": 52,
      "start": 130.0042,
      "duration": 0.0167,
      "velocity": 95,
      "chip": "ym2612"
    },
    {
      "channel": 0,
      "note": 88,
      "start": 130.0054,
      "duration": 0.0556,
      "velocity": 93,
      "chip": "ym2612"
    },
    {
      "channel": 0,
      "note": 83,
      "start": 130.0611,
      "duration": 0.0798,
      "velocity": 93,
      "chip": "ym2612"
    },
    {
      "channel": 1,
      "note": 57,
      "start": 130.0611,
      "duration": 0.16,
      "velocity": 99,
      "chip": "ym2612"
    },
    {
      "channel": 3,
      "note": 59,
      "start": 130.0612,
      "duration": 0.16,
      "velocity": 95,
      "chip": "ym2612"
    },
    {
      "channel": 0,
      "note": 81,
      "start": 130.1409,
      "duration": 0.0801,
      "velocity": 93,
      "chip": "ym2612"
    },
    {
      "channel": 0,
      "note": 76,
      "start": 130.2211,
      "duration": 0.0798,
      "velocity": 93,
      "chip": "ym2612"
    },
    {
      "channel": 1,
      "note": 52,
      "start": 130.2211,
      "duration": 0.18,
      "velocity": 99,
      "chip": "ym2612"
    },
    {
      "channel": 3,
      "note": 60,
      "start": 130.2212,
      "duration": 0.1799,
      "velocity": 95,
      "chip": "ym2612"
    },
    {
      "channel": 0,
      "note": 74,
      "start": 130.3009,
      "duration": 0.1001,
      "velocity": 93,
      "chip": "ym2612"
    },
    {
      "channel": 0,
      "note": 69,
      "start": 130.4011,
      "duration": 0.0798,
      "velocity": 93,
      "chip": "ym2612"
    },
    {
      "channel": 1,
      "note": 59,
      "start": 130.4011,
      "duration": 0.16,
      "velocity": 99,
      "chip": "ym2612"
    },
    {
      "channel": 3,
      "note": 59,
      "start": 130.4012,
      "duration": 0.3859,
      "velocity": 95,
      "chip": "ym2612"
    },
    {
      "channel": 0,
      "note": 74,
      "start": 130.4809,
      "duration": 0.0802,
      "velocity": 93,
      "chip": "ym2612"
    },
    {
      "channel": 0,
      "note": 76,
      "start": 130.5611,
      "duration": 0.0012,
      "velocity": 93,
      "chip": "ym2612"
    },
    {
      "channel": 1,
      "note": 60,
      "start": 130.5612,
      "duration": 0.0569,
      "velocity": 99,
      "chip": "ym2612"
    },
    {
      "channel": 2,
      "note": 84,
      "start": 130.5612,
      "duration": 0.0569,
      "velocity": 127,
      "chip": "ym2612"
    },
    {
      "channel": 4,
      "note": 72,
      "start": 130.5614,
      "duration": 0.0569,
      "velocity": 93,
      "chip": "ym2612"
    },
    {
      "channel": 0,
      "note": 81,
      "start": 130.5624,
      "duration": 0.0154,
      "velocity": 93,
      "chip": "ym2612"
    },
    {
      "channel": 0,
      "note": 83,
      "start": 130.6181,
      "duration": 0.0013,
      "velocity": 93,
      "chip": "ym2612"
    },
    {
      "channel": 1,
      "note": 59,
      "start": 130.6182,
      "duration": 0.0023,
      "velocity": 99,
      "chip": "ym2612"
    },
    {
      "channel": 2,
      "note": 83,
      "start": 130.6182,
      "duration": 0.0023,
      "velocity": 127,
      "chip": "ym2612"
    },
    {
      "channel": 4,
      "note": 71,
      "start": 130.6184,
      "duration": 0.0023,
      "velocity": 93,
      "chip": "ym2612"
    },
    {
      "channel": 0,
      "note": 88,
      "start": 130.6194,
      "duration": 0.001,
      "velocity": 93,
      "chip": "ym2612"
    },
    {
      "channel": 0,
      "note": 83,
      "start": 130.6205,
      "duration": 0.0661,
      "velocity": 93,
      "chip": "ym2612"
    },
    {
      "channel": 1,
      "note": 52,
      "start": 130.6206,
      "duration": 0.1664,
      "velocity": 99,
      "chip": "ym2612"
    },
    {
      "channel": 2,
      "note": 81,
      "start": 130.6206,
      "duration": 0.1664,
      "velocity": 127,
      "chip": "ym2612"
    },
    {
      "channel": 4,
      "note": 69,
      "start": 130.6207,
      "duration": 0.1664,
      "velocity": 93,
      "chip": "ym2612"
    },
    {
      "channel": 0,
      "note": 81,
      "start": 130.6866,
      "duration": 0.1002,
      "velocity": 93,
      "chip": "ym2612"
    },
    {
      "channel": 0,
      "note": 76,
      "start": 130.7869,
      "duration": 0.0797,
      "velocity": 93,
      "chip": "ym2612"
    },
    {
      "channel": 1,
      "note": 57,
      "start": 130.787,
      "duration": 0.1598,
      "velocity": 99,
      "chip": "ym2612"
    },
    {
      "channel": 2,
      "note": 83,
      "start": 130.7871,
      "duration": 0.1598,
      "velocity": 127,
      "chip": "ym2612"
    },
    {
      "channel": 3,
      "note": 52,
      "start": 130.7871,
      "duration": 0.3399,
      "velocity": 95,
      "chip": "ym2612"
    },
    {
      "channel": 4,
      "note": 71,
      "start": 130.7873,
      "duration": 0.1598,
      "velocity": 93,
      "chip": "ym2612"
    },
    {
      "channel": 0,
      "note": 74,
      "start": 130.8666,
      "duration": 0.0801,
      "velocity": 93,
      "chip": "ym2612"
    },
    {
      "channel": 0,
      "note": 69,
      "start": 130.9468,
      "duration": 0.0798,
      "velocity": 93,
      "chip": "ym2612"
    },
    {
      "channel": 1,
      "note": 59,
      "start": 130.9469,
      "duration": 0.1801,
      "velocity": 99,
      "chip": "ym2612"
    },
    {
      "channel": 2,
      "note": 84,
      "start": 130.9469,
      "duration": 0.1801,
      "velocity": 127,
      "chip": "ym2612"
    },
    {
      "channel": 4,
      "note": 72,
      "start": 130.9471,
      "duration": 0.1801,
      "velocity": 93,
      "chip": "ym2612"
    },
    {
      "channel": 0,
      "note": 74,
      "start": 131.0266,
      "duration": 0.0599,
      "velocity": 93,
      "chip": "ym2612"
    },
    {
      "channel": 0,
      "note": 69,
      "start": 131.1269,
      "duration": 0.0013,
      "velocity": 93,
      "chip": "ym2612"
    },
    {
      "channel": 1,
      "note": 57,
      "start": 131.127,
      "duration": 0.0366,
      "velocity": 99,
      "chip": "ym2612"
    },
    {
      "channel": 2,
      "note": 83,
      "start": 131.1271,
      "duration": 0.0166,
      "velocity": 127,
      "chip": "ym2612"
    },
    {
      "channel": 3,
      "note": 45,
      "start": 131.1271,
      "duration": 0.9337,
      "velocity": 95,
      "chip": "ym2612"
    },
    {
      "channel": 4,
      "note": 71,
      "start": 131.1272,
      "duration": 0.0165,
      "velocity": 93,
      "chip": "ym2612"
    },
    {
      "channel": 0,
      "note": 74,
      "start": 131.1283,
      "duration": 0.0353,
      "velocity": 93,
      "chip": "ym2612"
    },
    {
      "channel": 0,
      "note": 76,
      "start": 131.1636,
      "duration": 0.0799,
      "velocity": 93,
      "chip": "ym2612"
    },
    {
      "channel": 1,
      "note": 52,
      "start": 131.1637,
      "duration": 0.1799,
      "velocity": 99,
      "chip": "ym2612"
    },
    {
      "channel": 0,
      "note": 81,
      "start": 131.2436,
      "duration": 0.1,
      "velocity": 93,
      "chip": "ym2612"
    },
    {
      "channel": 0,
      "note": 83,
      "start": 131.3436,
      "duration": 0.0799,
      "velocity": 93,
      "chip": "ym2612"
    },
    {
      "channel": 1,
      "note": 62,
      "start": 131.3437,
      "duration": 0.1602,
      "velocity": 99,
      "chip": "ym2612"
    },
    {
      "channel": 0,
      "note": 88,
      "start": 131.4236,
      "duration": 0.0803,
      "velocity": 93,
      "chip": "ym2612"
    },
    {
      "channel": 0,
      "note": 83,
      "start": 131.5039,
      "duration": 0.0012,
      "velocity": 93,
      "chip": "ym2612"
    },
    {
      "channel": 1,
      "note": 64,
      "start": 131.504,
      "duration": 0.0164,
      "velocity": 99,
      "chip": "ym2612"
    },
    {
      "channel": 2,
      "note": 74,
      "start": 131.5041,
      "duration": 0.0567,
      "velocity": 127,
      "chip": "ym2612"
    },
    {
      "channel": 4,
      "note": 62,
      "start": 131.5042,
      "duration": 0.0567,
      "velocity": 93,
      "chip": "ym2612"
    },
    {
      "channel": 0,
      "note": 81,
      "start": 131.5051,
      "duration": 0.0556,
      "velocity": 93,
      "chip": "ym2612"
    },
    {
      "channel": 0,
      "note": 76,
      "start": 131.5607,
      "duration": 0.0798,
      "velocity": 93,
      "chip": "ym2612"
    },
    {
      "channel": 1,
      "note": 62,
      "start": 131.5608,
      "duration": 0.1598,
      "velocity": 99,
      "chip": "ym2612"
    },
    {
      "channel": 2,
      "note": 76,
      "start": 131.5609,
      "duration": 0.0999,
      "velocity": 127,
      "chip": "ym2612"
    },
    {
      "channel": 4,
      "note": 64,
      "start": 131.561,
      "duration": 0.0999,
      "velocity": 93,
      "chip": "ym2612"
    },
    {
      "channel": 0,
      "note": 74,
      "start": 131.6405,
      "duration": 0.0801,
      "velocity": 93,
      "chip": "ym2612"
    },
    {
      "channel": 2,
      "note": 81,
      "start": 131.6608,
      "duration": 0.1198,
      "velocity": 127,
      "chip": "ym2612"
    },
    {
      "channel": 4,
      "note": 69,
      "start": 131.6609,
      "duration": 0.1198,
      "velocity": 93,
      "chip": "ym2612"
    },
    {
      "channel": 0,
      "note": 69,
      "start": 131.7206,
      "duration": 0.0799,
      "velocity": 93,
      "chip": "ym2612"
    },
    {
      "channel": 1,
      "note": 52,
      "start": 131.7207,
      "duration": 0.1601,
      "velocity": 99,
      "chip": "ym2612"
    },
    {
      "channel": 2,
      "note": 76,
      "start": 131.7807,
      "duration": 0.1002,
      "velocity": 127,
      "chip": "ym2612"
    },
    {
      "channel": 4,
      "note": 64,
      "start": 131.7808,
      "duration": 0.1001,
      "velocity": 93,
      "chip": "ym2612"
    },
    {
      "channel": 0,
      "note": 74,
      "start": 131.8005,
      "duration": 0.0802,
      "velocity": 93,
      "chip": "ym2612"
    },
    {
      "channel": 0,
      "note": 76,
      "start": 131.8807,
      "duration": 0.0597,
      "velocity": 93,
      "chip": "ym2612"
    },
    {
      "channel": 1,
      "note": 57,
      "start": 131.8808,
      "duration": 0.1799,
      "velocity": 99,
      "chip": "ym2612"
    },
    {
      "channel": 2,
      "note": 86,
      "start": 131.8809,
      "duration": 0.737,
      "velocity": 127,
      "chip": "ym2612"
    },
    {
      "channel": 4,
      "note": 74,
      "start": 131.881,
      "duration": 0.737,
      "velocity": 93,
      "chip": "ym2612"
    },
    {
      "channel": 0,
      "note": 81,
      "start": 131.9805,
      "duration": 0.0801,
      "velocity": 93,
      "chip": "ym2612"
    },
    {
      "channel": 0,
      "note": 83,
      "start": 132.0607,
      "duration": 0.0013,
      "velocity": 93,
      "chip": "ym2612"
    },
    {
      "channel": 1,
      "note": 59,
      "start": 132.0607,
      "duration": 0.037,
      "velocity": 99,
      "chip": "ym2612"
    },
    {
      "channel": 3,
      "note": 52,
      "start": 132.0609,
      "duration": 0.037,
      "velocity": 95,
      "chip": "ym2612"
    },
    {
      "channel": 0,
      "note": 88,
      "start": 132.062,
      "duration": 0.0356,
      "velocity": 93,
      "chip": "ym2612"
    },
    {
      "channel": 0,
      "note": 83,
      "start": 132.0977,
      "duration": 0.0998,
      "velocity": 93,
      "chip": "ym2612"
    },
    {
      "channel": 1,
      "note": 57,
      "start": 132.0978,
      "duration": 0.18,
      "velocity": 99,
      "chip": "ym2612"
    },
    {
      "channel": 3,
      "note": 57,
      "start": 132.0979,
      "duration": 0.1799,
      "velocity": 95,
      "chip": "ym2612"
    },
    {
      "channel": 0,
      "note": 81,
      "start": 132.1976,
      "duration": 0.0801,
      "velocity": 93,
      "chip": "ym2612"
    },
    {
      "channel": 0,
      "note": 76,
      "start": 132.2777,
      "duration": 0.0798,
      "velocity": 93,
      "chip": "ym2612"
    },
    {
      "channel": 1,
      "note": 52,
      "start": 132.2778,
      "duration": 0.16,
      "velocity": 99,
      "chip": "ym2612"
    },
    {
      "channel": 3,
      "note": 59,
      "start": 132.2779,
      "duration": 0.1599,
      "velocity": 95,
      "chip": "ym2612"
    },
    {
      "channel": 0,
      "note": 74,
      "start": 132.3575,
      "duration": 0.0801,
      "velocity": 93,
      "chip": "ym2612"
    },
    {
      "channel": 0,
      "note": 69,
      "start": 132.4377,
      "duration": 0.0998,
      "velocity": 93,
      "chip": "ym2612"
    },
    {
      "channel": 1,
      "note": 62,
      "start": 132.4378,
      "duration": 0.18,
      "velocity": 99,
      "chip": "ym2612"
    },
    {
      "channel": 3,
      "note": 57,
      "start": 132.4378,
      "duration": 0.228,
      "velocity": 95,
      "chip": "ym2612"
    },
    {
      "channel": 0,
      "note": 74,
      "start": 132.5375,
      "duration": 0.0802,
      "velocity": 93,
      "chip": "ym2612"
    },
    {
      "channel": 0,
      "note": 76,
      "start": 132.6178,
      "duration": 0.0013,
      "velocity": 93,
      "chip": "ym2612"
    },
    {
      "channel": 1,
      "note": 64,
      "start": 132.6178,
      "duration": 0.0368,
      "velocity": 99,
      "chip": "ym2612"
    },
    {
      "channel": 2,
      "note": 83,
      "start": 132.6179,
      "duration": 0.0165,
      "velocity": 127,
      "chip": "ym2612"
    },
    {
      "channel": 4,
      "note": 71,
      "start": 132.618,
      "duration": 0.0164,
      "velocity": 93,
      "chip": "ym2612"
    },
    {
      "channel": 0,
      "note": 81,
      "start": 132.619,
      "duration": 0.0153,
      "velocity": 93,
      "chip": "ym2612"
    },
    {
      "channel": 0,
      "note": 83,
      "start": 132.6546,
      "duration": 0.0016,
      "velocity": 93,
      "chip": "ym2612"
    },
    {
      "channel": 1,
      "note": 62,
      "start": 132.6547,
      "duration": 0.0086,
      "velocity": 99,
      "chip": "ym2612"
    },
    {
      "channel": 2,
      "note": 81,
      "start": 132.6548,
      "duration": 0.0018,
      "velocity": 127,
      "chip": "ym2612"
    },
    {
      "channel": 4,
      "note": 69,
      "start": 132.6549,
      "duration": 0.0017,
      "velocity": 93,
      "chip": "ym2612"
    },
    {
      "channel": 0,
      "note": 88,
      "start": 132.6562,
      "duration": 0.0071,
      "velocity": 93,
      "chip": "ym2612"
    },
    {
      "channel": 2,
      "note": 86,
      "start": 132.6566,
      "duration": 0.0078,
      "velocity": 127,
      "chip": "ym2612"
    },
    {
      "channel": 4,
      "note": 74,
      "start": 132.6567,
      "duration": 0.0077,
      "velocity": 93,
      "chip": "ym2612"
    },
    {
      "channel": 0,
      "note": 83,
      "start": 132.6634,
      "duration": 0.0012,
      "velocity": 93,
      "chip": "ym2612"
    },
    {
      "channel": 1,
      "note": 52,
      "start": 132.6634,
      "duration": 0.0023,
      "velocity": 99,
      "chip": "ym2612"
    },
    {
      "channel": 2,
      "note": 88,
      "start": 132.6644,
      "duration": 0.0014,
      "velocity": 127,
      "chip": "ym2612"
    },
    {
      "channel": 4,
      "note": 76,
      "start": 132.6645,
      "duration": 0.0014,
      "velocity": 93,
      "chip": "ym2612"
    },
    {
      "channel": 0,
      "note": 81,
      "start": 132.6647,
      "duration": 0.001,
      "velocity": 93,
      "chip": "ym2612"
    },
    {
      "channel": 0,
      "note": 76,
      "start": 132.6657,
      "duration": 0.0863,
      "velocity": 93,
      "chip": "ym2612"
    },
    {
      "channel": 1,
      "note": 57,
      "start": 132.6658,
      "duration": 0.1664,
      "velocity": 99,
      "chip": "ym2612"
    },
    {
      "channel": 2,
      "note": 93,
      "start": 132.6659,
      "duration": 0.1064,
      "velocity": 127,
      "chip": "ym2612"
    },
    {
      "channel": 3,
      "note": 52,
      "start": 132.6659,
      "duration": 0.1664,
      "velocity": 95,
      "chip": "ym2612"
    },
    {
      "channel": 4,
      "note": 81,
      "start": 132.666,
      "duration": 0.1063,
      "velocity": 93,
      "chip": "ym2612"
    },
    {
      "channel": 0,
      "note": 74,
      "start": 132.752,
      "duration": 0.0801,
      "velocity": 93,
      "chip": "ym2612"
    },
    {
      "channel": 2,
      "note": 88,
      "start": 132.7723,
      "duration": 0.061,
      "velocity": 127,
      "chip": "ym2612"
    },
    {
      "channel": 4,
      "note": 76,
      "start": 132.7724,
      "duration": 0.061,
      "velocity": 93,
      "chip": "ym2612"
    },
    {
      "channel": 0,
      "note": 69,
      "start": 132.8322,
      "duration": 0.0013,
      "velocity": 93,
      "chip": "ym2612"
    },
    {
      "channel": 1,
      "note": 59,
      "start": 132.8322,
      "duration": 0.0024,
      "velocity": 99,
      "chip": "ym2612"
    },
    {
      "channel": 3,
      "note": 50,
      "start": 132.8324,
      "duration": 0.0024,
      "velocity": 95,
      "chip": "ym2612"
    },
    {
      "channel": 2,
      "note": 86,
      "start": 132.8333,
      "duration": 0.0013,
      "velocity": 127,
      "chip": "ym2612"
    },
    {
      "channel": 4,
      "note": 74,
      "start": 132.8334,
      "duration": 0.0014,
      "velocity": 93,
      "chip": "ym2612"
    },
    {
      "channel": 0,
      "note": 74,
      "start": 132.8335,
      "duration": 0.0008,
      "velocity": 93,
      "chip": "ym2612"
    },
    {
      "channel": 0,
      "note": 68,
      "start": 132.8346,
      "duration": 0.0015,
      "velocity": 93,
      "chip": "ym2612"
    },
    {
      "channel": 2,
      "note": 88,
      "start": 132.8347,
      "duration": 0.7738,
      "velocity": 127,
      "chip": "ym2612"
    },
    {
      "channel": 3,
      "note": 45,
      "start": 132.8348,
      "duration": 1.8968,
      "velocity": 95,
      "chip": "ym2612"
    },
    {
      "channel": 4,
      "note": 64,
      "start": 132.8348,
      "duration": 0.7737,
      "velocity": 93,
      "chip": "ym2612"
    },
    {
      "channel": 0,
      "note": 69,
      "start": 132.8361,
      "duration": 0.0551,
      "velocity": 93,
      "chip": "ym2612"
    },
    {
      "channel": 0,
      "note": 73,
      "start": 132.8913,
      "duration": 0.08,
      "velocity": 93,
      "chip": "ym2612"
    },
    {
      "channel": 0,
      "note": 76,
      "start": 132.9713,
      "duration": 0.08,
      "velocity": 93,
      "chip": "ym2612"
    },
    {
      "channel": 0,
      "note": 80,
      "start": 133.0513,
      "duration": 0.1,
      "velocity": 93,
      "chip": "ym2612"
    },
    {
      "channel": 0,
      "note": 81,
      "start": 133.1514,
      "duration": 0.0799,
      "velocity": 93,
      "chip": "ym2612"
    },
    {
      "channel": 0,
      "note": 80,
      "start": 133.2314,
      "duration": 0.0799,
      "velocity": 93,
      "chip": "ym2612"
    },
    {
      "channel": 0,
      "note": 76,
      "start": 133.3113,
      "duration": 0.0801,
      "velocity": 93,
      "chip": "ym2612"
    },
    {
      "channel": 0,
      "note": 73,
      "start": 133.3914,
      "duration": 0.0012,
      "velocity": 93,
      "chip": "ym2612"
    },
    {
      "channel": 0,
      "note": 69,
      "start": 133.3927,
      "duration": 0.0556,
      "velocity": 93,
      "chip": "ym2612"
    },
    {
      "channel": 0,
      "note": 68,
      "start": 133.4484,
      "duration": 0.0799,
      "velocity": 93,
      "chip": "ym2612"
    },
    {
      "channel": 0,
      "note": 69,
      "start": 133.5284,
      "duration": 0.0801,
      "velocity": 93,
      "chip": "ym2612"
    },
    {
      "channel": 0,
      "note": 73,
      "start": 133.6084,
      "duration": 0.0999,
      "velocity": 93,
      "chip": "ym2612"
    },
    {
      "channel": 2,
      "note": 86,
      "start": 133.6085,
      "duration": 0.1801,
      "velocity": 127,
      "chip": "ym2612"
    },
    {
      "channel": 4,
      "note": 62,
      "start": 133.6086,
      "duration": 0.18,
      "velocity": 93,
      "chip": "ym2612"
    },
    {
      "channel": 0,
      "note": 76,
      "start": 133.7083,
      "duration": 0.0802,
      "velocity": 93,
      "chip": "ym2612"
    },
    {
      "channel": 0,
      "note": 80,
      "start": 133.7885,
      "duration": 0.0012,
      "velocity": 93,
      "chip": "ym2612"
    },
    {
      "channel": 2,
      "note": 85,
      "start": 133.7886,
      "duration": 0.0369,
      "velocity": 127,
      "chip": "ym2612"
    },
    {
      "channel": 4,
      "note": 61,
      "start": 133.7887,
      "duration": 0.0369,
      "velocity": 93,
      "chip": "ym2612"
    },
    {
      "channel": 0,
      "note": 81,
      "start": 133.7897,
      "duration": 0.0357,
      "velocity": 93,
      "chip": "ym2612"
    },
    {
      "channel": 0,
      "note": 80,
      "start": 133.8255,
      "duration": 0.0798,
      "velocity": 93,
      "chip": "ym2612"
    },
    {
      "channel": 2,
      "note": 83,
      "start": 133.8256,
      "duration": 0.5571,
      "velocity": 127,
      "chip": "ym2612"
    },
    {
      "channel": 4,
      "note": 59,
      "start": 133.8257,
      "duration": 0.557,
      "velocity": 93,
      "chip": "ym2612"
    },
    {
      "channel": 0,
      "note": 76,
      "start": 133.9053,
      "duration": 0.1,
      "velocity": 93,
      "chip": "ym2612"
    },
    {
      "channel": 0,
      "note": 73,
      "start": 134.0053,
      "duration": 0.08,
      "velocity": 93,
      "chip": "ym2612"
    },
    {
      "channel": 0,
      "note": 69,
      "start": 134.0853,
      "duration": 0.08,
      "velocity": 93,
      "chip": "ym2612"
    },
    {
      "channel": 0,
      "note": 68,
      "start": 134.1654,
      "duration": 0.0799,
      "velocity": 93,
      "chip": "ym2612"
    },
    {
      "channel": 0,
      "note": 69,
      "start": 134.2454,
      "duration": 0.1,
      "velocity": 93,
      "chip": "ym2612"
    },
    {
      "channel": 0,
      "note": 73,
      "start": 134.3454,
      "duration": 0.0011,
      "velocity": 93,
      "chip": "ym2612"
    },
    {
      "channel": 0,
      "note": 76,
      "start": 134.3465,
      "duration": 0.0361,
      "velocity": 93,
      "chip": "ym2612"
    },
    {
      "channel": 0,
      "note": 80,
      "start": 134.3826,
      "duration": 0.0012,
      "velocity": 93,
      "chip": "ym2612"
    },
    {
      "channel": 2,
      "note": 81,
      "start": 134.3827,
      "duration": 0.1689,
      "velocity": 127,
      "chip": "ym2612"
    },
    {
      "channel": 4,
      "note": 57,
      "start": 134.3828,
      "duration": 0.1689,
      "velocity": 93,
      "chip": "ym2612"
    },
    {
      "channel": 0,
      "note": 81,
      "start": 134.3838,
      "duration": 0.0075,
      "velocity": 93,
      "chip": "ym2612"
    },
    {
      "channel": 0,
      "note": 80,
      "start": 134.3914,
      "duration": 0.0799,
      "velocity": 93,
      "chip": "ym2612"
    },
    {
      "channel": 0,
      "note": 76,
      "start": 134.4713,
      "duration": 0.0801,
      "velocity": 93,
      "chip": "ym2612"
    },
    {
      "channel": 0,
      "note": 73,
      "start": 134.5515,
      "duration": 0.0798,
      "velocity": 93,
      "chip": "ym2612"
    },
    {
      "channel": 2,
      "note": 80,
      "start": 134.5516,
      "duration": 0.34,
      "velocity": 127,
      "chip": "ym2612"
    },
    {
      "channel": 4,
      "note": 56,
      "start": 134.5517,
      "duration": 0.3401,
      "velocity": 93,
      "chip": "ym2612"
    },
    {
      "channel": 0,
      "note": 69,
      "start": 134.6313,
      "duration": 0.1001,
      "velocity": 93,
      "chip": "ym2612"
    },
    {
      "channel": 0,
      "note": 68,
      "start": 134.7315,
      "duration": 0.0799,
      "velocity": 93,
      "chip": "ym2612"
    },
    {
      "channel": 3,
      "note": 47,
      "start": 134.7316,
      "duration": 0.16,
      "velocity": 95,
      "chip": "ym2612"
    },
    {
      "channel": 0,
      "note": 69,
      "start": 134.8114,
      "duration": 0.0801,
      "velocity": 93,
      "chip": "ym2612"
    },
    {
      "channel": 0,
      "note": 71,
      "start": 134.8916,
      "duration": 0.0012,
      "velocity": 93,
      "chip": "ym2612"
    },
    {
      "channel": 2,
      "note": 79,
      "start": 134.8917,
      "duration": 0.557,
      "velocity": 127,
      "chip": "ym2612"
    },
    {
      "channel": 3,
      "note": 48,
      "start": 134.8917,
      "duration": 1.8764,
      "velocity": 95,
      "chip": "ym2612"
    },
    {
      "channel": 4,
      "note": 55,
      "start": 134.8919,
      "duration": 0.5569,
      "velocity": 93,
      "chip": "ym2612"
    },
    {
      "channel": 0,
      "note": 72,
      "start": 134.8928,
      "duration": 0.0556,
      "velocity": 93,
      "chip": "ym2612"
    },
    {
      "channel": 0,
      "note": 76,
      "start": 134.9484,
      "duration": 0.08,
      "velocity": 93,
      "chip": "ym2612"
    },
    {
      "channel": 0,
      "note": 79,
      "start": 135.0284,
      "duration": 0.08,
      "velocity": 93,
      "chip": "ym2612"
    },
    {
      "channel": 0,
      "note": 83,
      "start": 135.1085,
      "duration": 0.0799,
      "velocity": 93,
      "chip": "ym2612"
    },
    {
      "channel": 0,
      "note": 84,
      "start": 135.1884,
      "duration": 0.1,
      "velocity": 93,
      "chip": "ym2612"
    },
    {
      "channel": 0,
      "note": 83,
      "start": 135.2884,
      "duration": 0.08,
      "velocity": 93,
      "chip": "ym2612"
    },
    {
      "channel": 0,
      "note": 79,
      "start": 135.3685,
      "duration": 0.0801,
      "velocity": 93,
      "chip": "ym2612"
    },
    {
      "channel": 0,
      "note": 76,
      "start": 135.4487,
      "duration": 0.0012,
      "velocity": 93,
      "chip": "ym2612"
    },
    {
      "channel": 2,
      "note": 86,
      "start": 135.4487,
      "duration": 0.0012,
      "velocity": 127,
      "chip": "ym2612"
    },
    {
      "channel": 4,
      "note": 62,
      "start": 135.4488,
      "duration": 0.0011,
      "velocity": 93,
      "chip": "ym2612"
    },
    {
      "channel": 0,
      "note": 72,
      "start": 135.4498,
      "duration": 0.0555,
      "velocity": 93,
      "chip": "ym2612"
    },
    {
      "channel": 2,
      "note": 88,
      "start": 135.4499,
      "duration": 0.4324,
      "velocity": 127,
      "chip": "ym2612"
    },
    {
      "channel": 4,
      "note": 64,
      "start": 135.45,
      "duration": 0.4325,
      "velocity": 93,
      "chip": "ym2612"
    },
    {
      "channel": 0,
      "note": 71,
      "start": 135.5053,
      "duration": 0.08,
      "velocity": 93,
      "chip": "ym2612"
    },
    {
      "channel": 0,
      "note": 72,
      "start": 135.5853,
      "duration": 0.08,
      "velocity": 93,
      "chip": "ym2612"
    },
    {
      "channel": 0,
      "note": 76,
      "start": 135.6653,
      "duration": 0.08,
      "velocity": 93,
      "chip": "ym2612"
    },
    {
      "channel": 0,
      "note": 79,
      "start": 135.7453,
      "duration": 0.1001,
      "velocity": 93,
      "chip": "ym2612"
    },
    {
      "channel": 0,
      "note": 83,
      "start": 135.8455,
      "duration": 0.001,
      "velocity": 93,
      "chip": "ym2612"
    },
    {
      "channel": 0,
      "note": 84,
      "start": 135.8464,
      "duration": 0.0359,
      "velocity": 93,
      "chip": "ym2612"
    },
    {
      "channel": 0,
      "note": 83,
      "start": 135.8823,
      "duration": 0.0799,
      "velocity": 93,
      "chip": "ym2612"
    },
    {
      "channel": 2,
      "note": 86,
      "start": 135.8824,
      "duration": 0.5571,
      "velocity": 127,
      "chip": "ym2612"
    },
    {
      "channel": 4,
      "note": 62,
      "start": 135.8825,
      "duration": 0.5571,
      "velocity": 93,
      "chip": "ym2612"
    },
    {
      "channel": 0,
      "note": 79,
      "start": 135.9623,
      "duration": 0.0999,
      "velocity": 93,
      "chip": "ym2612"
    },
    {
      "channel": 0,
      "note": 76,
      "start": 136.0622,
      "duration": 0.08,
      "velocity": 93,
      "chip": "ym2612"
    },
    {
      "channel": 0,
      "note": 72,
      "start": 136.1422,
      "duration": 0.08,
      "velocity": 93,
      "chip": "ym2612"
    },
    {
      "channel": 0,
      "note": 71,
      "start": 136.2222,
      "duration": 0.08,
      "velocity": 93,
      "chip": "ym2612"
    },
    {
      "channel": 0,
      "note": 72,
      "start": 136.3022,
      "duration": 0.0801,
      "velocity": 93,
      "chip": "ym2612"
    },
    {
      "channel": 0,
      "note": 76,
      "start": 136.3823,
      "duration": 0.0013,
      "velocity": 93,
      "chip": "ym2612"
    },
    {
      "channel": 0,
      "note": 79,
      "start": 136.3835,
      "duration": 0.0559,
      "velocity": 93,
      "chip": "ym2612"
    },
    {
      "channel": 0,
      "note": 83,
      "start": 136.4395,
      "duration": 0.0011,
      "velocity": 93,
      "chip": "ym2612"
    },
    {
      "channel": 2,
      "note": 84,
      "start": 136.4395,
      "duration": 0.5086,
      "velocity": 127,
      "chip": "ym2612"
    },
    {
      "channel": 4,
      "note": 60,
      "start": 136.4397,
      "duration": 0.5087,
      "velocity": 93,
      "chip": "ym2612"
    },
    {
      "channel": 0,
      "note": 84,
      "start": 136.4406,
      "duration": 0.0009,
      "velocity": 93,
      "chip": "ym2612"
    },
    {
      "channel": 0,
      "note": 83,
      "start": 136.4415,
      "duration": 0.0865,
      "velocity": 93,
      "chip": "ym2612"
    },
    {
      "channel": 0,
      "note": 79,
      "start": 136.528,
      "duration": 0.0799,
      "velocity": 93,
      "chip": "ym2612"
    },
    {
      "channel": 0,
      "note": 76,
      "start": 136.6079,
      "duration": 0.08,
      "velocity": 93,
      "chip": "ym2612"
    },
    {
      "channel": 0,
      "note": 72,
      "start": 136.6879,
      "duration": 0.0801,
      "velocity": 93,
      "chip": "ym2612"
    },
    {
      "channel": 0,
      "note": 71,
      "start": 136.768,
      "duration": 0.0999,
      "velocity": 93,
      "chip": "ym2612"
    },
    {
      "channel": 3,
      "note": 50,
      "start": 136.7682,
      "duration": 0.18,
      "velocity": 95,
      "chip": "ym2612"
    },
    {
      "channel": 0,
      "note": 72,
      "start": 136.8679,
      "duration": 0.0802,
      "velocity": 93,
      "chip": "ym2612"
    },
    {
      "channel": 0,
      "note": 74,
      "start": 136.9482,
      "duration": 0.0011,
      "velocity": 93,
      "chip": "ym2612"
    },
    {
      "channel": 2,
      "note": 82,
      "start": 136.9482,
      "duration": 0.5165,
      "velocity": 127,
      "chip": "ym2612"
    },
    {
      "channel": 3,
      "note": 51,
      "start": 136.9483,
      "duration": 1.8763,
      "velocity": 95,
      "chip": "ym2612"
    },
    {
      "channel": 4,
      "note": 58,
      "start": 136.9484,
      "duration": 0.5164,
      "velocity": 93,
      "chip": "ym2612"
    },
    {
      "channel": 0,
      "note": 75,
      "start": 136.9493,
      "duration": 0.0355,
      "velocity": 93,
      "chip": "ym2612"
    },
    {
      "channel": 0,
      "note": 79,
      "start": 136.9848,
      "duration": 0.1,
      "velocity": 93,
      "chip": "ym2612"
    },
    {
      "channel": 0,
      "note": 82,
      "start": 137.0849,
      "duration": 0.0799,
      "velocity": 93,
      "chip": "ym2612"
    },
    {
      "channel": 0,
      "note": 86,
      "start": 137.1648,
      "duration": 0.08,
      "velocity": 93,
      "chip": "ym2612"
    },
    {
      "channel": 0,
      "note": 87,
      "start": 137.2448,
      "duration": 0.08,
      "velocity": 93,
      "chip": "ym2612"
    },
    {
      "channel": 0,
      "note": 86,
      "start": 137.3248,
      "duration": 0.1,
      "velocity": 93,
      "chip": "ym2612"
    },
    {
      "channel": 0,
      "note": 82,
      "start": 137.4248,
      "duration": 0.0802,
      "velocity": 93,
      "chip": "ym2612"
    },
    {
      "channel": 0,
      "note": 79,
      "start": 137.5051,
      "duration": 0.0011,
      "velocity": 93,
      "chip": "ym2612"
    },
    {
      "channel": 2,
      "note": 89,
      "start": 137.5051,
      "duration": 0.0011,
      "velocity": 127,
      "chip": "ym2612"
    },
    {
      "channel": 4,
      "note": 65,
      "start": 137.5053,
      "duration": 0.0011,
      "velocity": 93,
      "chip": "ym2612"
    },
    {
      "channel": 0,
      "note": 75,
      "start": 137.5063,
      "duration": 0.0356,
      "velocity": 93,
      "chip": "ym2612"
    },
    {
      "channel": 2,
      "note": 91,
      "start": 137.5063,
      "duration": 0.4326,
      "velocity": 127,
      "chip": "ym2612"
    },
    {
      "channel": 4,
      "note": 67,
      "start": 137.5065,
      "duration": 0.4326,
      "velocity": 93,
      "chip": "ym2612"
    },
    {
      "channel": 0,
      "note": 74,
      "start": 137.5419,
      "duration": 0.1,
      "velocity": 93,
      "chip": "ym2612"
    },
    {
      "channel": 0,
      "note": 75,
      "start": 137.6419,
      "duration": 0.08,
      "velocity": 93,
      "chip": "ym2612"
    },
    {
      "channel": 0,
      "note": 79,
      "start": 137.7219,
      "duration": 0.08,
      "velocity": 93,
      "chip": "ym2612"
    },
    {
      "channel": 0,
      "note": 82,
      "start": 137.802,
      "duration": 0.08,
      "velocity": 93,
      "chip": "ym2612"
    },
    {
      "channel": 0,
      "note": 86,
      "start": 137.882,
      "duration": 0.0012,
      "velocity": 93,
      "chip": "ym2612"
    },
    {
      "channel": 0,
      "note": 87,
      "start": 137.8832,
      "duration": 0.0557,
      "velocity": 93,
      "chip": "ym2612"
    },
    {
      "channel": 0,
      "note": 86,
      "start": 137.9389,
      "duration": 0.0799,
      "velocity": 93,
      "chip": "ym2612"
    },
    {
      "channel": 2,
      "note": 89,
      "start": 137.939,
      "duration": 0.557,
      "velocity": 127,
      "chip": "ym2612"
    },
    {
      "channel": 4,
      "note": 65,
      "start": 137.9391,
      "duration": 0.5569,
      "velocity": 93,
      "chip": "ym2612"
    },
    {
      "channel": 0,
      "note": 82,
      "start": 138.0188,
      "duration": 0.08,
      "velocity": 93,
      "chip": "ym2612"
    },
    {
      "channel": 0,
      "note": 79,
      "start": 138.0989,
      "duration": 0.0999,
      "velocity": 93,
      "chip": "ym2612"
    },
    {
      "channel": 0,
      "note": 75,
      "start": 138.1988,
      "duration": 0.08,
      "velocity": 93,
      "chip": "ym2612"
    },
    {
      "channel": 0,
      "note": 74,
      "start": 138.2788,
      "duration": 0.08,
      "velocity": 93,
      "chip": "ym2612"
    },
    {
      "channel": 0,
      "note": 75,
      "start": 138.3588,
      "duration": 0.0801,
      "velocity": 93,
      "chip": "ym2612"
    },
    {
      "channel": 0,
      "note": 79,
      "start": 138.4389,
      "duration": 0.0012,
      "velocity": 93,
      "chip": "ym2612"
    },
    {
      "channel": 0,
      "note": 82,
      "start": 138.4401,
      "duration": 0.0558,
      "velocity": 93,
      "chip": "ym2612"
    },
    {
      "channel": 0,
      "note": 86,
      "start": 138.4959,
      "duration": 0.0012,
      "velocity": 93,
      "chip": "ym2612"
    },
    {
      "channel": 2,
      "note": 87,
      "start": 138.496,
      "duration": 0.5088,
      "velocity": 127,
      "chip": "ym2612"
    },
    {
      "channel": 4,
      "note": 63,
      "start": 138.4961,
      "duration": 0.5089,
      "velocity": 93,
      "chip": "ym2612"
    },
    {
      "channel": 0,
      "note": 87,
      "start": 138.4971,
      "duration": 0.0008,
      "velocity": 93,
      "chip": "ym2612"
    },
    {
      "channel": 0,
      "note": 86,
      "start": 138.4979,
      "duration": 0.0665,
      "velocity": 93,
      "chip": "ym2612"
    },
    {
      "channel": 0,
      "note": 82,
      "start": 138.5645,
      "duration": 0.1,
      "velocity": 93,
      "chip": "ym2612"
    },
    {
      "channel": 0,
      "note": 79,
      "start": 138.6645,
      "duration": 0.0799,
      "velocity": 93,
      "chip": "ym2612"
    },
    {
      "channel": 0,
      "note": 75,
      "start": 138.7445,
      "duration": 0.0801,
      "velocity": 93,
      "chip": "ym2612"
    },
    {
      "channel": 0,
      "note": 74,
      "start": 138.8245,
      "duration": 0.08,
      "velocity": 93,
      "chip": "ym2612"
    },
    {
      "channel": 3,
      "note": 53,
      "start": 138.8247,
      "duration": 0.0799,
      "velocity": 95,
      "chip": "ym2612"
    },
    {
      "channel": 0,
      "note": 75,
      "start": 138.9045,
      "duration": 0.1002,
      "velocity": 93,
      "chip": "ym2612"
    },
    {
      "channel": 3,
      "note": 55,
      "start": 138.9047,
      "duration": 0.1002,
      "velocity": 95,
      "chip": "ym2612"
    },
    {
      "channel": 0,
      "note": 79,
      "start": 139.0049,
      "duration": 0.0012,
      "velocity": 93,
      "chip": "ym2612"
    },
    {
      "channel": 2,
      "note": 84,
      "start": 139.0049,
      "duration": 0.5568,
      "velocity": 127,
      "chip": "ym2612"
    },
    {
      "channel": 3,
      "note": 56,
      "start": 139.005,
      "duration": 2.0161,
      "velocity": 95,
      "chip": "ym2612"
    },
    {
      "channel": 4,
      "note": 60,
      "start": 139.0051,
      "duration": 0.5567,
      "velocity": 93,
      "chip": "ym2612"
    },
    {
      "channel": 0,
      "note": 80,
      "start": 139.0061,
      "duration": 0.0354,
      "velocity": 93,
      "chip": "ym2612"
    },
    {
      "channel": 0,
      "note": 84,
      "start": 139.0415,
      "duration": 0.0799,
      "velocity": 93,
      "chip": "ym2612"
    },
    {
      "channel": 0,
      "note": 87,
      "start": 139.1215,
      "duration": 0.1,
      "velocity": 93,
      "chip": "ym2612"
    },
    {
      "channel": 0,
      "note": 91,
      "start": 139.2215,
      "duration": 0.08,
      "velocity": 93,
      "chip": "ym2612"
    },
    {
      "channel": 0,
      "note": 92,
      "start": 139.3015,
      "duration": 0.08,
      "velocity": 93,
      "chip": "ym2612"
    },
    {
      "channel": 0,
      "note": 91,
      "start": 139.3815,
      "duration": 0.08,
      "velocity": 93,
      "chip": "ym2612"
    },
    {
      "channel": 0,
      "note": 87,
      "start": 139.4615,
      "duration": 0.1001,
      "velocity": 93,
      "chip": "ym2612"
    },
    {
      "channel": 0,
      "note": 84,
      "start": 139.5617,
      "duration": 0.0011,
      "velocity": 93,
      "chip": "ym2612"
    },
    {
      "channel": 2,
      "note": 91,
      "start": 139.5617,
      "duration": 0.0011,
      "velocity": 127,
      "chip": "ym2612"
    },
    {
      "channel": 4,
      "note": 67,
      "start": 139.5619,
      "duration": 0.0011,
      "velocity": 93,
      "chip": "ym2612"
    },
    {
      "channel": 0,
      "note": 80,
      "start": 139.5629,
      "duration": 0.0356,
      "velocity": 93,
      "chip": "ym2612"
    },
    {
      "channel": 2,
      "note": 92,
      "start": 139.5629,
      "duration": 0.4326,
      "velocity": 127,
      "chip": "ym2612"
    },
    {
      "channel": 4,
      "note": 68,
      "start": 139.563,
      "duration": 0.4326,
      "velocity": 93,
      "chip": "ym2612"
    },
    {
      "channel": 0,
      "note": 79,
      "start": 139.5984,
      "duration": 0.08,
      "velocity": 93,
      "chip": "ym2612"
    },
    {
      "channel": 0,
      "note": 80,
      "start": 139.6784,
      "duration": 0.1,
      "velocity": 93,
      "chip": "ym2612"
    },
    {
      "channel": 0,
      "note": 84,
      "start": 139.7785,
      "duration": 0.0799,
      "velocity": 93,
      "chip": "ym2612"
    },
    {
      "channel": 0,
      "note": 87,
      "start": 139.8584,
      "duration": 0.0801,
      "velocity": 93,
      "chip": "ym2612"
    },
    {
      "channel": 0,
      "note": 91,
      "start": 139.9385,
      "duration": 0.001,
      "velocity": 93,
      "chip": "ym2612"
    },
    {
      "channel": 0,
      "note": 92,
      "start": 139.9395,
      "duration": 0.056,
      "velocity": 93,
      "chip": "ym2612"
    },
    {
      "channel": 0,
      "note": 91,
      "start": 139.9956,
      "duration": 0.0798,
      "velocity": 93,
      "chip": "ym2612"
    },
    {
      "channel": 2,
      "note": 91,
      "start": 139.9956,
      "duration": 0.5569,
      "velocity": 127,
      "chip": "ym2612"
    },
    {
      "channel": 4,
      "note": 67,
      "start": 139.9957,
      "duration": 0.5568,
      "velocity": 93,
      "chip": "ym2612"
    },
    {
      "channel": 0,
      "note": 87,
      "start": 140.0754,
      "duration": 0.08,
      "velocity": 93,
      "chip": "ym2612"
    },
    {
      "channel": 0,
      "note": 84,
      "start": 140.1554,
      "duration": 0.08,
      "velocity": 93,
      "chip": "ym2612"
    },
    {
      "channel": 0,
      "note": 80,
      "start": 140.2354,
      "duration": 0.0999,
      "velocity": 93,
      "chip": "ym2612"
    },
    {
      "channel": 0,
      "note": 79,
      "start": 140.3354,
      "duration": 0.08,
      "velocity": 93,
      "chip": "ym2612"
    },
    {
      "channel": 0,
      "note": 80,
      "start": 140.4154,
      "duration": 0.0801,
      "velocity": 93,
      "chip": "ym2612"
    },
    {
      "channel": 0,
      "note": 84,
      "start": 140.4955,
      "duration": 0.001,
      "velocity": 93,
      "chip": "ym2612"
    },
    {
      "channel": 0,
      "note": 87,
      "start": 140.4964,
      "duration": 0.056,
      "velocity": 93,
      "chip": "ym2612"
    },
    {
      "channel": 0,
      "note": 91,
      "start": 140.5525,
      "duration": 0.0012,
      "velocity": 93,
      "chip": "ym2612"
    },
    {
      "channel": 2,
      "note": 89,
      "start": 140.5525,
      "duration": 0.4889,
      "velocity": 127,
      "chip": "ym2612"
    },
    {
      "channel": 4,
      "note": 65,
      "start": 140.5527,
      "duration": 0.489,
      "velocity": 93,
      "chip": "ym2612"
    },
    {
      "channel": 0,
      "note": 92,
      "start": 140.5537,
      "duration": 0.0008,
      "velocity": 93,
      "chip": "ym2612"
    },
    {
      "channel": 0,
      "note": 91,
      "start": 140.5546,
      "duration": 0.0665,
      "velocity": 93,
      "chip": "ym2612"
    },
    {
      "channel": 0,
      "note": 87,
      "start": 140.6211,
      "duration": 0.1,
      "velocity": 93,
      "chip": "ym2612"
    },
    {
      "channel": 0,
      "note": 84,
      "start": 140.7211,
      "duration": 0.08,
      "velocity": 93,
      "chip": "ym2612"
    },
    {
      "channel": 0,
      "note": 80,
      "start": 140.8012,
      "duration": 0.0799,
      "velocity": 93,
      "chip": "ym2612"
    },
    {
      "channel": 0,
      "note": 79,
      "start": 140.8811,
      "duration": 0.08,
      "velocity": 93,
      "chip": "ym2612"
    },
    {
      "channel": 0,
      "note": 80,
      "start": 140.9612,
      "duration": 0.0802,
      "velocity": 93,
      "chip": "ym2612"
    },
    {
      "channel": 0,
      "note": 68,
      "start": 141.0414,
      "duration": 0.0014,
      "velocity": 93,
      "chip": "ym2612"
    },
    {
      "channel": 2,
      "note": 88,
      "start": 141.0415,
      "duration": 0.7737,
      "velocity": 127,
      "chip": "ym2612"
    },
    {
      "channel": 3,
      "note": 45,
      "start": 141.0416,
      "duration": 1.8966,
      "velocity": 95,
      "chip": "ym2612"
    },
    {
      "channel": 4,
      "note": 64,
      "start": 141.0417,
      "duration": 0.7737,
      "velocity": 93,
      "chip": "ym2612"
    },
    {
      "channel": 0,
      "note": 69,
      "start": 141.0429,
      "duration": 0.0552,
      "velocity": 93,
      "chip": "ym2612"
    },
    {
      "channel": 0,
      "note": 73,
      "start": 141.0982,
      "duration": 0.0799,
      "velocity": 93,
      "chip": "ym2612"
    },
    {
      "channel": 0,
      "note": 76,
      "start": 141.1781,
      "duration": 0.08,
      "velocity": 93,
      "chip": "ym2612"
    },
    {
      "channel": 0,
      "note": 80,
      "start": 141.2581,
      "duration": 0.1,
      "velocity": 93,
      "chip": "ym2612"
    },
    {
      "channel": 0,
      "note": 81,
      "start": 141.3582,
      "duration": 0.0799,
      "velocity": 93,
      "chip": "ym2612"
    },
    {
      "channel": 0,
      "note": 80,
      "start": 141.4382,
      "duration": 0.0799,
      "velocity": 93,
      "chip": "ym2612"
    },
    {
      "channel": 0,
      "note": 76,
      "start": 141.5181,
      "duration": 0.0801,
      "velocity": 93,
      "chip": "ym2612"
    },
    {
      "channel": 0,
      "note": 73,
      "start": 141.5982,
      "duration": 0.0012,
      "velocity": 93,
      "chip": "ym2612"
    },
    {
      "channel": 0,
      "note": 69,
      "start": 141.5994,
      "duration": 0.0556,
      "velocity": 93,
      "chip": "ym2612"
    },
    {
      "channel": 0,
      "note": 68,
      "start": 141.6551,
      "duration": 0.0799,
      "velocity": 93,
      "chip": "ym2612"
    },
    {
      "channel": 0,
      "note": 69,
      "start": 141.7351,
      "duration": 0.08,
      "velocity": 93,
      "chip": "ym2612"
    },
    {
      "channel": 0,
      "note": 73,
      "start": 141.8152,
      "duration": 0.0999,
      "velocity": 93,
      "chip": "ym2612"
    },
    {
      "channel": 2,
      "note": 86,
      "start": 141.8153,
      "duration": 0.1801,
      "velocity": 127,
      "chip": "ym2612"
    },
    {
      "channel": 4,
      "note": 62,
      "start": 141.8154,
      "duration": 0.18,
      "velocity": 93,
      "chip": "ym2612"
    },
    {
      "channel": 0,
      "note": 76,
      "start": 141.9151,
      "duration": 0.0802,
      "velocity": 93,
      "chip": "ym2612"
    },
    {
      "channel": 0,
      "note": 80,
      "start": 141.9953,
      "duration": 0.0012,
      "velocity": 93,
      "chip": "ym2612"
    },
    {
      "channel": 2,
      "note": 85,
      "start": 141.9953,
      "duration": 0.037,
      "velocity": 127,
      "chip": "ym2612"
    },
    {
      "channel": 4,
      "note": 61,
      "start": 141.9954,
      "duration": 0.037,
      "velocity": 93,
      "chip": "ym2612"
    },
    {
      "channel": 0,
      "note": 81,
      "start": 141.9965,
      "duration": 0.0358,
      "velocity": 93,
      "chip": "ym2612"
    },
    {
      "channel": 0,
      "note": 80,
      "start": 142.0324,
      "duration": 0.0998,
      "velocity": 93,
      "chip": "ym2612"
    },
    {
      "channel": 2,
      "note": 83,
      "start": 142.0324,
      "duration": 0.1799,
      "velocity": 127,
      "chip": "ym2612"
    },
    {
      "channel": 4,
      "note": 59,
      "start": 142.0325,
      "duration": 0.1799,
      "velocity": 93,
      "chip": "ym2612"
    },
    {
      "channel": 0,
      "note": 76,
      "start": 142.1322,
      "duration": 0.0801,
      "velocity": 93,
      "chip": "ym2612"
    },
    {
      "channel": 0,
      "note": 73,
      "start": 142.2123,
      "duration": 0.0799,
      "velocity": 93,
      "chip": "ym2612"
    },
    {
      "channel": 2,
      "note": 85,
      "start": 142.2124,
      "duration": 0.16,
      "velocity": 127,
      "chip": "ym2612"
    },
    {
      "channel": 4,
      "note": 61,
      "start": 142.2125,
      "duration": 0.16,
      "velocity": 93,
      "chip": "ym2612"
    },
    {
      "channel": 0,
      "note": 69,
      "start": 142.2922,
      "duration": 0.0801,
      "velocity": 93,
      "chip": "ym2612"
    },
    {
      "channel": 0,
      "note": 68,
      "start": 142.3724,
      "duration": 0.0998,
      "velocity": 93,
      "chip": "ym2612"
    },
    {
      "channel": 2,
      "note": 83,
      "start": 142.3724,
      "duration": 0.217,
      "velocity": 127,
      "chip": "ym2612"
    },
    {
      "channel": 4,
      "note": 59,
      "start": 142.3725,
      "duration": 0.217,
      "velocity": 93,
      "chip": "ym2612"
    },
    {
      "channel": 0,
      "note": 69,
      "start": 142.4722,
      "duration": 0.08,
      "velocity": 93,
      "chip": "ym2612"
    },
    {
      "channel": 0,
      "note": 73,
      "start": 142.5522,
      "duration": 0.0011,
      "velocity": 93,
      "chip": "ym2612"
    },
    {
      "channel": 0,
      "note": 76,
      "start": 142.5534,
      "duration": 0.036,
      "velocity": 93,
      "chip": "ym2612"
    },
    {
      "channel": 0,
      "note": 80,
      "start": 142.5895,
      "duration": 0.0014,
      "velocity": 93,
      "chip": "ym2612"
    },
    {
      "channel": 2,
      "note": 81,
      "start": 142.5895,
      "duration": 0.1485,
      "velocity": 127,
      "chip": "ym2612"
    },
    {
      "channel": 4,
      "note": 57,
      "start": 142.5896,
      "duration": 0.1484,
      "velocity": 93,
      "chip": "ym2612"
    },
    {
      "channel": 0,
      "note": 81,
      "start": 142.5909,
      "duration": 0.0072,
      "velocity": 93,
      "chip": "ym2612"
    },
    {
      "channel": 0,
      "note": 80,
      "start": 142.5981,
      "duration": 0.0799,
      "velocity": 93,
      "chip": "ym2612"
    },
    {
      "channel": 0,
      "note": 76,
      "start": 142.6781,
      "duration": 0.0801,
      "velocity": 93,
      "chip": "ym2612"
    },
    {
      "channel": 0,
      "note": 73,
      "start": 142.7583,
      "duration": 0.0998,
      "velocity": 93,
      "chip": "ym2612"
    },
    {
      "channel": 2,
      "note": 80,
      "start": 142.7583,
      "duration": 0.34,
      "velocity": 127,
      "chip": "ym2612"
    },
    {
      "channel": 4,
      "note": 56,
      "start": 142.7585,
      "duration": 0.3401,
      "velocity": 93,
      "chip": "ym2612"
    },
    {
      "channel": 0,
      "note": 69,
      "start": 142.8581,
      "duration": 0.0801,
      "velocity": 93,
      "chip": "ym2612"
    },
    {
      "channel": 0,
      "note": 68,
      "start": 142.9382,
      "duration": 0.0799,
      "velocity": 93,
      "chip": "ym2612"
    },
    {
      "channel": 3,
      "note": 52,
      "start": 142.9383,
      "duration": 0.1601,
      "velocity": 95,
      "chip": "ym2612"
    },
    {
      "channel": 0,
      "note": 69,
      "start": 143.0181,
      "duration": 0.0801,
      "velocity": 93,
      "chip": "ym2612"
    },
    {
      "channel": 0,
      "note": 71,
      "start": 143.0983,
      "duration": 0.0012,
      "velocity": 93,
      "chip": "ym2612"
    },
    {
      "channel": 2,
      "note": 79,
      "start": 143.0984,
      "duration": 0.4136,
      "velocity": 127,
      "chip": "ym2612"
    },
    {
      "channel": 3,
      "note": 45,
      "start": 143.0985,
      "duration": 0.434,
      "velocity": 95,
      "chip": "ym2612"
    },
    {
      "channel": 4,
      "note": 55,
      "start": 143.0986,
      "duration": 0.4135,
      "velocity": 93,
      "chip": "ym2612"
    },
    {
      "channel": 0,
      "note": 72,
      "start": 143.0996,
      "duration": 0.0555,
      "velocity": 93,
      "chip": "ym2612"
    },
    {
      "channel": 0,
      "note": 76,
      "start": 143.1552,
      "duration": 0.0799,
      "velocity": 93,
      "chip": "ym2612"
    },
    {
      "channel": 0,
      "note": 79,
      "start": 143.2351,
      "duration": 0.08,
      "velocity": 93,
      "chip": "ym2612"
    },
    {
      "channel": 0,
      "note": 83,
      "start": 143.3152,
      "duration": 0.0799,
      "velocity": 93,
      "chip": "ym2612"
    },
    {
      "channel": 0,
      "note": 84,
      "start": 143.3951,
      "duration": 0.1001,
      "velocity": 93,
      "chip": "ym2612"
    },
    {
      "channel": 0,
      "note": 83,
      "start": 143.4952,
      "duration": 0.001,
      "velocity": 93,
      "chip": "ym2612"
    },
    {
      "channel": 0,
      "note": 79,
      "start": 143.4963,
      "duration": 0.0361,
      "velocity": 93,
      "chip": "ym2612"
    },
    {
      "channel": 0,
      "note": 76,
      "start": 143.5324,
      "duration": 0.0798,
      "velocity": 93,
      "chip": "ym2612"
    },
    {
      "channel": 2,
      "note": 86,
      "start": 143.5324,
      "duration": 0.0798,
      "velocity": 127,
      "chip": "ym2612"
    },
    {
      "channel": 3,
      "note": 45,
      "start": 143.5325,
      "duration": 1.4624,
      "velocity": 95,
      "chip": "ym2612"
    },
    {
      "channel": 4,
      "note": 62,
      "start": 143.5326,
      "duration": 0.0798,
      "velocity": 93,
      "chip": "ym2612"
    },
    {
      "channel": 0,
      "note": 72,
      "start": 143.6122,
      "duration": 0.0999,
      "velocity": 93,
      "chip": "ym2612"
    },
    {
      "channel": 2,
      "note": 88,
      "start": 143.6123,
      "duration": 0.477,
      "velocity": 127,
      "chip": "ym2612"
    },
    {
      "channel": 4,
      "note": 64,
      "start": 143.6124,
      "duration": 0.477,
      "velocity": 93,
      "chip": "ym2612"
    },
    {
      "channel": 0,
      "note": 71,
      "start": 143.7121,
      "duration": 0.08,
      "velocity": 93,
      "chip": "ym2612"
    },
    {
      "channel": 0,
      "note": 72,
      "start": 143.7921,
      "duration": 0.08,
      "velocity": 93,
      "chip": "ym2612"
    },
    {
      "channel": 0,
      "note": 76,
      "start": 143.8721,
      "duration": 0.08,
      "velocity": 93,
      "chip": "ym2612"
    },
    {
      "channel": 0,
      "note": 79,
      "start": 143.9521,
      "duration": 0.1001,
      "velocity": 93,
      "chip": "ym2612"
    },
    {
      "channel": 0,
      "note": 83,
      "start": 144.0522,
      "duration": 0.0011,
      "velocity": 93,
      "chip": "ym2612"
    },
    {
      "channel": 0,
      "note": 84,
      "start": 144.0533,
      "duration": 0.0359,
      "velocity": 93,
      "chip": "ym2612"
    },
    {
      "channel": 0,
      "note": 83,
      "start": 144.0893,
      "duration": 0.0798,
      "velocity": 93,
      "chip": "ym2612"
    },
    {
      "channel": 2,
      "note": 86,
      "start": 144.0894,
      "duration": 0.557,
      "velocity": 127,
      "chip": "ym2612"
    },
    {
      "channel": 4,
      "note": 62,
      "start": 144.0895,
      "duration": 0.557,
      "velocity": 93,
      "chip": "ym2612"
    },
    {
      "channel": 0,
      "note": 79,
      "start": 144.1692,
      "duration": 0.0999,
      "velocity": 93,
      "chip": "ym2612"
    },
    {
      "channel": 0,
      "note": 76,
      "start": 144.2691,
      "duration": 0.08,
      "velocity": 93,
      "chip": "ym2612"
    },
    {
      "channel": 0,
      "note": 72,
      "start": 144.3491,
      "duration": 0.08,
      "velocity": 93,
      "chip": "ym2612"
    },
    {
      "channel": 0,
      "note": 71,
      "start": 144.4291,
      "duration": 0.08,
      "velocity": 93,
      "chip": "ym2612"
    },
    {
      "channel": 0,
      "note": 72,
      "start": 144.5091,
      "duration": 0.1001,
      "velocity": 93,
      "chip": "ym2612"
    },
    {
      "channel": 0,
      "note": 76,
      "start": 144.6092,
      "duration": 0.001,
      "velocity": 93,
      "chip": "ym2612"
    },
    {
      "channel": 0,
      "note": 79,
      "start": 144.6102,
      "duration": 0.0361,
      "velocity": 93,
      "chip": "ym2612"
    },
    {
      "channel": 0,
      "note": 83,
      "start": 144.6464,
      "duration": 0.0011,
      "velocity": 93,
      "chip": "ym2612"
    },
    {
      "channel": 2,
      "note": 84,
      "start": 144.6464,
      "duration": 0.5087,
      "velocity": 127,
      "chip": "ym2612"
    },
    {
      "channel": 4,
      "note": 60,
      "start": 144.6466,
      "duration": 0.5088,
      "velocity": 93,
      "chip": "ym2612"
    },
    {
      "channel": 0,
      "note": 84,
      "start": 144.6475,
      "duration": 0.0073,
      "velocity": 93,
      "chip": "ym2612"
    },
    {
      "channel": 0,
      "note": 83,
      "start": 144.6549,
      "duration": 0.0799,
      "velocity": 93,
      "chip": "ym2612"
    },
    {
      "channel": 0,
      "note": 79,
      "start": 144.7349,
      "duration": 0.0799,
      "velocity": 93,
      "chip": "ym2612"
    },
    {
      "channel": 0,
      "note": 76,
      "start": 144.8149,
      "duration": 0.08,
      "velocity": 93,
      "chip": "ym2612"
    },
    {
      "channel": 0,
      "note": 72,
      "start": 144.8949,
      "duration": 0.1001,
      "velocity": 93,
      "chip": "ym2612"
    },
    {
      "channel": 0,
      "note": 71,
      "start": 144.9949,
      "duration": 0.0799,
      "velocity": 93,
      "chip": "ym2612"
    },
    {
      "channel": 3,
      "note": 47,
      "start": 144.9951,
      "duration": 0.1601,
      "velocity": 95,
      "chip": "ym2612"
    },
    {
      "channel": 0,
      "note": 72,
      "start": 145.0749,
      "duration": 0.0802,
      "velocity": 93,
      "chip": "ym2612"
    },
    {
      "channel": 0,
      "note": 74,
      "start": 145.1551,
      "duration": 0.0011,
      "velocity": 93,
      "chip": "ym2612"
    },
    {
      "channel": 2,
      "note": 82,
      "start": 145.1552,
      "duration": 0.4134,
      "velocity": 127,
      "chip": "ym2612"
    },
    {
      "channel": 3,
      "note": 48,
      "start": 145.1552,
      "duration": 1.8764,
      "velocity": 95,
      "chip": "ym2612"
    },
    {
      "channel": 4,
      "note": 58,
      "start": 145.1554,
      "duration": 0.4133,
      "velocity": 93,
      "chip": "ym2612"
    },
    {
      "channel": 0,
      "note": 75,
      "start": 145.1563,
      "duration": 0.0555,
      "velocity": 93,
      "chip": "ym2612"
    },
    {
      "channel": 0,
      "note": 79,
      "start": 145.2118,
      "duration": 0.0799,
      "velocity": 93,
      "chip": "ym2612"
    },
    {
      "channel": 0,
      "note": 82,
      "start": 145.2918,
      "duration": 0.0799,
      "velocity": 93,
      "chip": "ym2612"
    },
    {
      "channel": 0,
      "note": 86,
      "start": 145.3718,
      "duration": 0.08,
      "velocity": 93,
      "chip": "ym2612"
    },
    {
      "channel": 0,
      "note": 87,
      "start": 145.4518,
      "duration": 0.0801,
      "velocity": 93,
      "chip": "ym2612"
    },
    {
      "channel": 0,
      "note": 86,
      "start": 145.5318,
      "duration": 0.0012,
      "velocity": 93,
      "chip": "ym2612"
    },
    {
      "channel": 0,
      "note": 82,
      "start": 145.533,
      "duration": 0.0558,
      "velocity": 93,
      "chip": "ym2612"
    },
    {
      "channel": 0,
      "note": 79,
      "start": 145.5889,
      "duration": 0.0799,
      "velocity": 93,
      "chip": "ym2612"
    },
    {
      "channel": 2,
      "note": 89,
      "start": 145.5889,
      "duration": 0.0799,
      "velocity": 127,
      "chip": "ym2612"
    },
    {
      "channel": 4,
      "note": 65,
      "start": 145.589,
      "duration": 0.0799,
      "velocity": 93,
      "chip": "ym2612"
    },
    {
      "channel": 0,
      "note": 75,
      "start": 145.6688,
      "duration": 0.0799,
      "velocity": 93,
      "chip": "ym2612"
    },
    {
      "channel": 2,
      "note": 91,
      "start": 145.6689,
      "duration": 0.4768,
      "velocity": 127,
      "chip": "ym2612"
    },
    {
      "channel": 4,
      "note": 67,
      "start": 145.669,
      "duration": 0.4768,
      "velocity": 93,
      "chip": "ym2612"
    },
    {
      "channel": 0,
      "note": 74,
      "start": 145.7487,
      "duration": 0.1,
      "velocity": 93,
      "chip": "ym2612"
    },
    {
      "channel": 0,
      "note": 75,
      "start": 145.8487,
      "duration": 0.08,
      "velocity": 93,
      "chip": "ym2612"
    },
    {
      "channel": 0,
      "note": 79,
      "start": 145.9287,
      "duration": 0.08,
      "velocity": 93,
      "chip": "ym2612"
    },
    {
      "channel": 0,
      "note": 82,
      "start": 146.0087,
      "duration": 0.08,
      "velocity": 93,
      "chip": "ym2612"
    },
    {
      "channel": 0,
      "note": 86,
      "start": 146.0887,
      "duration": 0.0012,
      "velocity": 93,
      "chip": "ym2612"
    },
    {
      "channel": 0,
      "note": 87,
      "start": 146.0899,
      "duration": 0.0557,
      "velocity": 93,
      "chip": "ym2612"
    },
    {
      "channel": 0,
      "note": 86,
      "start": 146.1457,
      "duration": 0.0799,
      "velocity": 93,
      "chip": "ym2612"
    },
    {
      "channel": 2,
      "note": 89,
      "start": 146.1458,
      "duration": 0.5168,
      "velocity": 127,
      "chip": "ym2612"
    },
    {
      "channel": 4,
      "note": 65,
      "start": 146.1459,
      "duration": 0.5167,
      "velocity": 93,
      "chip": "ym2612"
    },
    {
      "channel": 0,
      "note": 82,
      "start": 146.2256,
      "duration": 0.08,
      "velocity": 93,
      "chip": "ym2612"
    },
    {
      "channel": 0,
      "note": 79,
      "start": 146.3056,
      "duration": 0.0999,
      "velocity": 93,
      "chip": "ym2612"
    },
    {
      "channel": 0,
      "note": 75,
      "start": 146.4056,
      "duration": 0.08,
      "velocity": 93,
      "chip": "ym2612"
    },
    {
      "channel": 0,
      "note": 74,
      "start": 146.4856,
      "duration": 0.08,
      "velocity": 93,
      "chip": "ym2612"
    },
    {
      "channel": 0,
      "note": 75,
      "start": 146.5656,
      "duration": 0.0801,
      "velocity": 93,
      "chip": "ym2612"
    },
    {
      "channel": 0,
      "note": 79,
      "start": 146.6456,
      "duration": 0.0013,
      "velocity": 93,
      "chip": "ym2612"
    },
    {
      "channel": 0,
      "note": 82,
      "start": 146.647,
      "duration": 0.0558,
      "velocity": 93,
      "chip": "ym2612"
    },
    {
      "channel": 0,
      "note": 86,
      "start": 146.7028,
      "duration": 0.0012,
      "velocity": 93,
      "chip": "ym2612"
    },
    {
      "channel": 2,
      "note": 87,
      "start": 146.7029,
      "duration": 0.5089,
      "velocity": 127,
      "chip": "ym2612"
    },
    {
      "channel": 4,
      "note": 63,
      "start": 146.703,
      "duration": 0.509,
      "velocity": 93,
      "chip": "ym2612"
    },
    {
      "channel": 0,
      "note": 87,
      "start": 146.704,
      "duration": 0.0009,
      "velocity": 93,
      "chip": "ym2612"
    },
    {
      "channel": 0,
      "note": 86,
      "start": 146.7049,
      "duration": 0.0865,
      "velocity": 93,
      "chip": "ym2612"
    },
    {
      "channel": 0,
      "note": 82,
      "start": 146.7915,
      "duration": 0.08,
      "velocity": 93,
      "chip": "ym2612"
    },
    {
      "channel": 0,
      "note": 79,
      "start": 146.8715,
      "duration": 0.0799,
      "velocity": 93,
      "chip": "ym2612"
    },
    {
      "channel": 0,
      "note": 75,
      "start": 146.9515,
      "duration": 0.0801,
      "velocity": 93,
      "chip": "ym2612"
    },
    {
      "channel": 0,
      "note": 74,
      "start": 147.0315,
      "duration": 0.0999,
      "velocity": 93,
      "chip": "ym2612"
    },
    {
      "channel": 3,
      "note": 51,
      "start": 147.0317,
      "duration": 0.1801,
      "velocity": 95,
      "chip": "ym2612"
    },
    {
      "channel": 0,
      "note": 75,
      "start": 147.1315,
      "duration": 0.0802,
      "velocity": 93,
      "chip": "ym2612"
    },
    {
      "channel": 0,
      "note": 79,
      "start": 147.2117,
      "duration": 0.0011,
      "velocity": 93,
      "chip": "ym2612"
    },
    {
      "channel": 2,
      "note": 84,
      "start": 147.2118,
      "duration": 0.4338,
      "velocity": 127,
      "chip": "ym2612"
    },
    {
      "channel": 3,
      "note": 53,
      "start": 147.2119,
      "duration": 1.7201,
      "velocity": 95,
      "chip": "ym2612"
    },
    {
      "channel": 4,
      "note": 60,
      "start": 147.212,
      "duration": 0.4337,
      "velocity": 93,
      "chip": "ym2612"
    },
    {
      "channel": 0,
      "note": 80,
      "start": 147.2129,
      "duration": 0.0356,
      "velocity": 93,
      "chip": "ym2612"
    },
    {
      "channel": 0,
      "note": 84,
      "start": 147.2485,
      "duration": 0.0999,
      "velocity": 93,
      "chip": "ym2612"
    },
    {
      "channel": 0,
      "note": 87,
      "start": 147.3485,
      "duration": 0.08,
      "velocity": 93,
      "chip": "ym2612"
    },
    {
      "channel": 0,
      "note": 91,
      "start": 147.4285,
      "duration": 0.08,
      "velocity": 93,
      "chip": "ym2612"
    },
    {
      "channel": 0,
      "note": 92,
      "start": 147.5085,
      "duration": 0.0801,
      "velocity": 93,
      "chip": "ym2612"
    },
    {
      "channel": 0,
      "note": 91,
      "start": 147.5885,
      "duration": 0.0012,
      "velocity": 93,
      "chip": "ym2612"
    },
    {
      "channel": 0,
      "note": 87,
      "start": 147.5897,
      "duration": 0.0558,
      "velocity": 93,
      "chip": "ym2612"
    },
    {
      "channel": 0,
      "note": 84,
      "start": 147.6456,
      "duration": 0.0799,
      "velocity": 93,
      "chip": "ym2612"
    },
    {
      "channel": 2,
      "note": 91,
      "start": 147.6456,
      "duration": 0.0799,
      "velocity": 127,
      "chip": "ym2612"
    },
    {
      "channel": 4,
      "note": 67,
      "start": 147.6457,
      "duration": 0.0799,
      "velocity": 93,
      "chip": "ym2612"
    },
    {
      "channel": 0,
      "note": 80,
      "start": 147.7256,
      "duration": 0.0798,
      "velocity": 93,
      "chip": "ym2612"
    },
    {
      "channel": 2,
      "note": 92,
      "start": 147.7256,
      "duration": 0.4768,
      "velocity": 127,
      "chip": "ym2612"
    },
    {
      "channel": 4,
      "note": 68,
      "start": 147.7257,
      "duration": 0.4768,
      "velocity": 93,
      "chip": "ym2612"
    },
    {
      "channel": 0,
      "note": 79,
      "start": 147.8054,
      "duration": 0.08,
      "velocity": 93,
      "chip": "ym2612"
    },
    {
      "channel": 0,
      "note": 80,
      "start": 147.8854,
      "duration": 0.1,
      "velocity": 93,
      "chip": "ym2612"
    },
    {
      "channel": 0,
      "note": 84,
      "start": 147.9854,
      "duration": 0.0799,
      "velocity": 93,
      "chip": "ym2612"
    },
    {
      "channel": 0,
      "note": 87,
      "start": 148.0654,
      "duration": 0.0801,
      "velocity": 93,
      "chip": "ym2612"
    },
    {
      "channel": 0,
      "note": 91,
      "start": 148.1454,
      "duration": 0.001,
      "velocity": 93,
      "chip": "ym2612"
    },
    {
      "channel": 0,
      "note": 92,
      "start": 148.1465,
      "duration": 0.0559,
      "velocity": 93,
      "chip": "ym2612"
    },
    {
      "channel": 0,
      "note": 91,
      "start": 148.2025,
      "duration": 0.0798,
      "velocity": 93,
      "chip": "ym2612"
    },
    {
      "channel": 2,
      "note": 91,
      "start": 148.2025,
      "duration": 0.557,
      "velocity": 127,
      "chip": "ym2612"
    },
    {
      "channel": 4,
      "note": 67,
      "start": 148.2027,
      "duration": 0.557,
      "velocity": 93,
      "chip": "ym2612"
    },
    {
      "channel": 0,
      "note": 87,
      "start": 148.2823,
      "duration": 0.08,
      "velocity": 93,
      "chip": "ym2612"
    },
    {
      "channel": 0,
      "note": 84,
      "start": 148.3623,
      "duration": 0.08,
      "velocity": 93,
      "chip": "ym2612"
    },
    {
      "channel": 0,
      "note": 80,
      "start": 148.4423,
      "duration": 0.0999,
      "velocity": 93,
      "chip": "ym2612"
    },
    {
      "channel": 0,
      "note": 79,
      "start": 148.5423,
      "duration": 0.08,
      "velocity": 93,
      "chip": "ym2612"
    },
    {
      "channel": 0,
      "note": 80,
      "start": 148.6223,
      "duration": 0.0801,
      "velocity": 93,
      "chip": "ym2612"
    },
    {
      "channel": 0,
      "note": 84,
      "start": 148.7024,
      "duration": 0.001,
      "velocity": 93,
      "chip": "ym2612"
    },
    {
      "channel": 0,
      "note": 87,
      "start": 148.7035,
      "duration": 0.056,
      "velocity": 93,
      "chip": "ym2612"
    },
    {
      "channel": 0,
      "note": 91,
      "start": 148.7595,
      "duration": 0.0012,
      "velocity": 93,
      "chip": "ym2612"
    },
    {
      "channel": 2,
      "note": 89,
      "start": 148.7596,
      "duration": 0.1717,
      "velocity": 127,
      "chip": "ym2612"
    },
    {
      "channel": 4,
      "note": 65,
      "start": 148.7597,
      "duration": 0.1717,
      "velocity": 93,
      "chip": "ym2612"
    },
    {
      "channel": 0,
      "note": 92,
      "start": 148.7607,
      "duration": 0.001,
      "velocity": 93,
      "chip": "ym2612"
    },
    {
      "channel": 0,
      "note": 91,
      "start": 148.7617,
      "duration": 0.0011,
      "velocity": 93,
      "chip": "ym2612"
    },
    {
      "channel": 0,
      "note": 87,
      "start": 148.7628,
      "duration": 0.0076,
      "velocity": 93,
      "chip": "ym2612"
    },
    {
      "channel": 0,
      "note": 84,
      "start": 148.7704,
      "duration": 0.08,
      "velocity": 93,
      "chip": "ym2612"
    },
    {
      "channel": 0,
      "note": 80,
      "start": 148.8505,
      "duration": 0.08,
      "velocity": 93,
      "chip": "ym2612"
    },
    {
      "channel": 0,
      "note": 79,
      "start": 148.9306,
      "duration": 0.001,
      "velocity": 93,
      "chip": "ym2612"
    },
    {
      "channel": 0,
      "note": 80,
      "start": 148.9316,
      "duration": 0.0078,
      "velocity": 93,
      "chip": "ym2612"
    },
    {
      "channel": 0,
      "note": 68,
      "start": 148.9394,
      "duration": 0.0012,
      "velocity": 93,
      "chip": "ym2612"
    },
    {
      "channel": 2,
      "note": 88,
      "start": 148.9395,
      "duration": 0.7257,
      "velocity": 127,
      "chip": "ym2612"
    },
    {
      "channel": 3,
      "note": 45,
      "start": 148.9396,
      "duration": 1.8285,
      "velocity": 95,
      "chip": "ym2612"
    },
    {
      "channel": 4,
      "note": 64,
      "start": 148.9397,
      "duration": 0.7257,
      "velocity": 93,
      "chip": "ym2612"
    },
    {
      "channel": 0,
      "note": 69,
      "start": 148.9406,
      "duration": 0.0356,
      "velocity": 93,
      "chip": "ym2612"
    },
    {
      "channel": 0,
      "note": 73,
      "start": 148.9762,
      "duration": 0.08,
      "velocity": 93,
      "chip": "ym2612"
    },
    {
      "channel": 0,
      "note": 76,
      "start": 149.0562,
      "duration": 0.1,
      "velocity": 93,
      "chip": "ym2612"
    },
    {
      "channel": 0,
      "note": 80,
      "start": 149.1562,
      "duration": 0.08,
      "velocity": 93,
      "chip": "ym2612"
    },
    {
      "channel": 0,
      "note": 81,
      "start": 149.2363,
      "duration": 0.0799,
      "velocity": 93,
      "chip": "ym2612"
    },
    {
      "channel": 0,
      "note": 80,
      "start": 149.3163,
      "duration": 0.0799,
      "velocity": 93,
      "chip": "ym2612"
    },
    {
      "channel": 0,
      "note": 76,
      "start": 149.3962,
      "duration": 0.1001,
      "velocity": 93,
      "chip": "ym2612"
    },
    {
      "channel": 0,
      "note": 73,
      "start": 149.4963,
      "duration": 0.001,
      "velocity": 93,
      "chip": "ym2612"
    },
    {
      "channel": 0,
      "note": 69,
      "start": 149.4973,
      "duration": 0.001,
      "velocity": 93,
      "chip": "ym2612"
    },
    {
      "channel": 0,
      "note": 68,
      "start": 149.4983,
      "duration": 0.0667,
      "velocity": 93,
      "chip": "ym2612"
    },
    {
      "channel": 0,
      "note": 69,
      "start": 149.5651,
      "duration": 0.1,
      "velocity": 93,
      "chip": "ym2612"
    },
    {
      "channel": 0,
      "note": 73,
      "start": 149.6652,
      "duration": 0.0799,
      "velocity": 93,
      "chip": "ym2612"
    },
    {
      "channel": 2,
      "note": 81,
      "start": 149.6653,
      "duration": 0.16,
      "velocity": 127,
      "chip": "ym2612"
    },
    {
      "channel": 4,
      "note": 57,
      "start": 149.6654,
      "duration": 0.16,
      "velocity": 93,
      "chip": "ym2612"
    },
    {
      "channel": 0,
      "note": 76,
      "start": 149.7451,
      "duration": 0.0801,
      "velocity": 93,
      "chip": "ym2612"
    },
    {
      "channel": 0,
      "note": 80,
      "start": 149.8253,
      "duration": 0.0798,
      "velocity": 93,
      "chip": "ym2612"
    },
    {
      "channel": 2,
      "note": 80,
      "start": 149.8253,
      "duration": 0.16,
      "velocity": 127,
      "chip": "ym2612"
    },
    {
      "channel": 4,
      "note": 56,
      "start": 149.8254,
      "duration": 0.1601,
      "velocity": 93,
      "chip": "ym2612"
    },
    {
      "channel": 0,
      "note": 81,
      "start": 149.9051,
      "duration": 0.0802,
      "velocity": 93,
      "chip": "ym2612"
    },
    {
      "channel": 0,
      "note": 80,
      "start": 149.9853,
      "duration": 0.0014,
      "velocity": 93,
      "chip": "ym2612"
    },
    {
      "channel": 2,
      "note": 81,
      "start": 149.9854,
      "duration": 0.3979,
      "velocity": 127,
      "chip": "ym2612"
    },
    {
      "channel": 4,
      "note": 57,
      "start": 149.9856,
      "duration": 0.3978,
      "velocity": 93,
      "chip": "ym2612"
    },
    {
      "channel": 0,
      "note": 76,
      "start": 149.9868,
      "duration": 0.0553,
      "velocity": 93,
      "chip": "ym2612"
    },
    {
      "channel": 0,
      "note": 73,
      "start": 150.0421,
      "duration": 0.08,
      "velocity": 93,
      "chip": "ym2612"
    },
    {
      "channel": 0,
      "note": 69,
      "start": 150.1221,
      "duration": 0.08,
      "velocity": 93,
      "chip": "ym2612"
    },
    {
      "channel": 0,
      "note": 68,
      "start": 150.2022,
      "duration": 0.0999,
      "velocity": 93,
      "chip": "ym2612"
    },
    {
      "channel": 0,
      "note": 69,
      "start": 150.3022,
      "duration": 0.08,
      "velocity": 93,
      "chip": "ym2612"
    },
    {
      "channel": 0,
      "note": 73,
      "start": 150.3822,
      "duration": 0.0011,
      "velocity": 93,
      "chip": "ym2612"
    },
    {
      "channel": 0,
      "note": 76,
      "start": 150.3833,
      "duration": 0.036,
      "velocity": 93,
      "chip": "ym2612"
    },
    {
      "channel": 0,
      "note": 80,
      "start": 150.4193,
      "duration": 0.0013,
      "velocity": 93,
      "chip": "ym2612"
    },
    {
      "channel": 2,
      "note": 88,
      "start": 150.4194,
      "duration": 0.5088,
      "velocity": 127,
      "chip": "ym2612"
    },
    {
      "channel": 4,
      "note": 64,
      "start": 150.4195,
      "duration": 0.5089,
      "velocity": 93,
      "chip": "ym2612"
    },
    {
      "channel": 0,
      "note": 81,
      "start": 150.4207,
      "duration": 0.0072,
      "velocity": 93,
      "chip": "ym2612"
    },
    {
      "channel": 0,
      "note": 80,
      "start": 150.428,
      "duration": 0.0799,
      "velocity": 93,
      "chip": "ym2612"
    },
    {
      "channel": 0,
      "note": 76,
      "start": 150.5079,
      "duration": 0.08,
      "velocity": 93,
      "chip": "ym2612"
    },
    {
      "channel": 0,
      "note": 73,
      "start": 150.5879,
      "duration": 0.1,
      "velocity": 93,
      "chip": "ym2612"
    },
    {
      "channel": 0,
      "note": 69,
      "start": 150.6879,
      "duration": 0.0801,
      "velocity": 93,
      "chip": "ym2612"
    },
    {
      "channel": 0,
      "note": 68,
      "start": 150.7681,
      "duration": 0.0799,
      "velocity": 93,
      "chip": "ym2612"
    },
    {
      "channel": 3,
      "note": 45,
      "start": 150.7681,
      "duration": 0.1199,
      "velocity": 95,
      "chip": "ym2612"
    },
    {
      "channel": 0,
      "note": 69,
      "start": 150.848,
      "duration": 0.0802,
      "velocity": 93,
      "chip": "ym2612"
    },
    {
      "channel": 0,
      "note": 66,
      "start": 150.9283,
      "duration": 0.0013,
      "velocity": 93,
      "chip": "ym2612"
    },
    {
      "channel": 2,
      "note": 86,
      "start": 150.9283,
      "duration": 0.5568,
      "velocity": 127,
      "chip": "ym2612"
    },
    {
      "channel": 3,
      "note": 45,
      "start": 150.9284,
      "duration": 1.9483,
      "velocity": 95,
      "chip": "ym2612"
    },
    {
      "channel": 4,
      "note": 62,
      "start": 150.9285,
      "duration": 0.5568,
      "velocity": 93,
      "chip": "ym2612"
    },
    {
      "channel": 0,
      "note": 69,
      "start": 150.9296,
      "duration": 0.0553,
      "velocity": 93,
      "chip": "ym2612"
    },
    {
      "channel": 0,
      "note": 71,
      "start": 150.9849,
      "duration": 0.08,
      "velocity": 93,
      "chip": "ym2612"
    },
    {
      "channel": 0,
      "note": 74,
      "start": 151.0649,
      "duration": 0.08,
      "velocity": 93,
      "chip": "ym2612"
    },
    {
      "channel": 0,
      "note": 78,
      "start": 151.1449,
      "duration": 0.1,
      "velocity": 93,
      "chip": "ym2612"
    },
    {
      "channel": 0,
      "note": 81,
      "start": 151.245,
      "duration": 0.0799,
      "velocity": 93,
      "chip": "ym2612"
    },
    {
      "channel": 0,
      "note": 78,
      "start": 151.325,
      "duration": 0.0799,
      "velocity": 93,
      "chip": "ym2612"
    },
    {
      "channel": 0,
      "note": 74,
      "start": 151.4049,
      "duration": 0.0802,
      "velocity": 93,
      "chip": "ym2612"
    },
    {
      "channel": 0,
      "note": 71,
      "start": 151.4852,
      "duration": 0.0013,
      "velocity": 93,
      "chip": "ym2612"
    },
    {
      "channel": 2,
      "note": 78,
      "start": 151.4852,
      "duration": 0.2084,
      "velocity": 127,
      "chip": "ym2612"
    },
    {
      "channel": 4,
      "note": 54,
      "start": 151.4854,
      "duration": 0.2084,
      "velocity": 93,
      "chip": "ym2612"
    },
    {
      "channel": 0,
      "note": 69,
      "start": 151.4865,
      "duration": 0.0071,
      "velocity": 93,
      "chip": "ym2612"
    },
    {
      "channel": 0,
      "note": 66,
      "start": 151.4937,
      "duration": 0.0799,
      "velocity": 93,
      "chip": "ym2612"
    },
    {
      "channel": 0,
      "note": 69,
      "start": 151.5737,
      "duration": 0.0799,
      "velocity": 93,
      "chip": "ym2612"
    },
    {
      "channel": 0,
      "note": 71,
      "start": 151.6537,
      "duration": 0.0999,
      "velocity": 93,
      "chip": "ym2612"
    },
    {
      "channel": 0,
      "note": 74,
      "start": 151.7536,
      "duration": 0.08,
      "velocity": 93,
      "chip": "ym2612"
    },
    {
      "channel": 0,
      "note": 78,
      "start": 151.8336,
      "duration": 0.08,
      "velocity": 93,
      "chip": "ym2612"
    },
    {
      "channel": 0,
      "note": 81,
      "start": 151.9136,
      "duration": 0.0803,
      "velocity": 93,
      "chip": "ym2612"
    },
    {
      "channel": 0,
      "note": 78,
      "start": 151.9939,
      "duration": 0.0014,
      "velocity": 93,
      "chip": "ym2612"
    },
    {
      "channel": 2,
      "note": 78,
      "start": 151.994,
      "duration": 0.217,
      "velocity": 127,
      "chip": "ym2612"
    },
    {
      "channel": 4,
      "note": 54,
      "start": 151.9941,
      "duration": 0.2169,
      "velocity": 93,
      "chip": "ym2612"
    },
    {
      "channel": 0,
      "note": 74,
      "start": 151.9953,
      "duration": 0.0554,
      "velocity": 93,
      "chip": "ym2612"
    },
    {
      "channel": 0,
      "note": 71,
      "start": 152.0507,
      "duration": 0.08,
      "velocity": 93,
      "chip": "ym2612"
    },
    {
      "channel": 0,
      "note": 69,
      "start": 152.1307,
      "duration": 0.0801,
      "velocity": 93,
      "chip": "ym2612"
    },
    {
      "channel": 0,
      "note": 66,
      "start": 152.2109,
      "duration": 0.0798,
      "velocity": 93,
      "chip": "ym2612"
    },
    {
      "channel": 2,
      "note": 80,
      "start": 152.211,
      "duration": 0.217,
      "velocity": 127,
      "chip": "ym2612"
    },
    {
      "channel": 4,
      "note": 56,
      "start": 152.2111,
      "duration": 0.217,
      "velocity": 93,
      "chip": "ym2612"
    },
    {
      "channel": 0,
      "note": 69,
      "start": 152.2908,
      "duration": 0.1,
      "velocity": 93,
      "chip": "ym2612"
    },
    {
      "channel": 0,
      "note": 71,
      "start": 152.3908,
      "duration": 0.0011,
      "velocity": 93,
      "chip": "ym2612"
    },
    {
      "channel": 0,
      "note": 74,
      "start": 152.3919,
      "duration": 0.0361,
      "velocity": 93,
      "chip": "ym2612"
    },
    {
      "channel": 0,
      "note": 78,
      "start": 152.428,
      "duration": 0.0011,
      "velocity": 93,
      "chip": "ym2612"
    },
    {
      "channel": 2,
      "note": 81,
      "start": 152.4281,
      "duration": 0.0087,
      "velocity": 127,
      "chip": "ym2612"
    },
    {
      "channel": 4,
      "note": 57,
      "start": 152.4282,
      "duration": 0.0087,
      "velocity": 93,
      "chip": "ym2612"
    },
    {
      "channel": 0,
      "note": 81,
      "start": 152.4292,
      "duration": 0.0075,
      "velocity": 93,
      "chip": "ym2612"
    },
    {
      "channel": 0,
      "note": 78,
      "start": 152.4368,
      "duration": 0.0798,
      "velocity": 93,
      "chip": "ym2612"
    },
    {
      "channel": 2,
      "note": 83,
      "start": 152.4368,
      "duration": 0.1599,
      "velocity": 127,
      "chip": "ym2612"
    },
    {
      "channel": 4,
      "note": 59,
      "start": 152.437,
      "duration": 0.1599,
      "velocity": 93,
      "chip": "ym2612"
    },
    {
      "channel": 0,
      "note": 74,
      "start": 152.5166,
      "duration": 0.0801,
      "velocity": 93,
      "chip": "ym2612"
    },
    {
      "channel": 0,
      "note": 71,
      "start": 152.5967,
      "duration": 0.0799,
      "velocity": 93,
      "chip": "ym2612"
    },
    {
      "channel": 2,
      "note": 85,
      "start": 152.5968,
      "duration": 0.18,
      "velocity": 127,
      "chip": "ym2612"
    },
    {
      "channel": 4,
      "note": 61,
      "start": 152.5969,
      "duration": 0.18,
      "velocity": 93,
      "chip": "ym2612"
    },
    {
      "channel": 0,
      "note": 69,
      "start": 152.6766,
      "duration": 0.1001,
      "velocity": 93,
      "chip": "ym2612"
    },
    {
      "channel": 0,
      "note": 66,
      "start": 152.7768,
      "duration": 0.0798,
      "velocity": 93,
      "chip": "ym2612"
    },
    {
      "channel": 2,
      "note": 86,
      "start": 152.7768,
      "duration": 0.16,
      "velocity": 127,
      "chip": "ym2612"
    },
    {
      "channel": 4,
      "note": 62,
      "start": 152.777,
      "duration": 0.1601,
      "velocity": 93,
      "chip": "ym2612"
    },
    {
      "channel": 0,
      "note": 69,
      "start": 152.8566,
      "duration": 0.0802,
      "velocity": 93,
      "chip": "ym2612"
    },
    {
      "channel": 0,
      "note": 68,
      "start": 152.9368,
      "duration": 0.0011,
      "velocity": 93,
      "chip": "ym2612"
    },
    {
      "channel": 2,
      "note": 88,
      "start": 152.9369,
      "duration": 0.7053,
      "velocity": 127,
      "chip": "ym2612"
    },
    {
      "channel": 3,
      "note": 45,
      "start": 152.937,
      "duration": 1.788,
      "velocity": 95,
      "chip": "ym2612"
    },
    {
      "channel": 4,
      "note": 64,
      "start": 152.9371,
      "duration": 0.7051,
      "velocity": 93,
      "chip": "ym2612"
    },
    {
      "channel": 0,
      "note": 69,
      "start": 152.938,
      "duration": 0.0555,
      "velocity": 93,
      "chip": "ym2612"
    },
    {
      "channel": 0,
      "note": 73,
      "start": 152.9935,
      "duration": 0.08,
      "velocity": 93,
      "chip": "ym2612"
    },
    {
      "channel": 0,
      "note": 76,
      "start": 153.0735,
      "duration": 0.08,
      "velocity": 93,
      "chip": "ym2612"
    },
    {
      "channel": 0,
      "note": 80,
      "start": 153.1535,
      "duration": 0.08,
      "velocity": 93,
      "chip": "ym2612"
    },
    {
      "channel": 0,
      "note": 81,
      "start": 153.2336,
      "duration": 0.0999,
      "velocity": 93,
      "chip": "ym2612"
    },
    {
      "channel": 0,
      "note": 80,
      "start": 153.3336,
      "duration": 0.0799,
      "velocity": 93,
      "chip": "ym2612"
    },
    {
      "channel": 0,
      "note": 76,
      "start": 153.4135,
      "duration": 0.0801,
      "velocity": 93,
      "chip": "ym2612"
    },
    {
      "channel": 0,
      "note": 73,
      "start": 153.4936,
      "duration": 0.001,
      "velocity": 93,
      "chip": "ym2612"
    },
    {
      "channel": 0,
      "note": 69,
      "start": 153.4946,
      "duration": 0.0077,
      "velocity": 93,
      "chip": "ym2612"
    },
    {
      "channel": 0,
      "note": 68,
      "start": 153.5023,
      "duration": 0.0799,
      "velocity": 93,
      "chip": "ym2612"
    },
    {
      "channel": 0,
      "note": 69,
      "start": 153.5823,
      "duration": 0.08,
      "velocity": 93,
      "chip": "ym2612"
    },
    {
      "channel": 0,
      "note": 73,
      "start": 153.6624,
      "duration": 0.0799,
      "velocity": 93,
      "chip": "ym2612"
    },
    {
      "channel": 2,
      "note": 81,
      "start": 153.6624,
      "duration": 0.18,
      "velocity": 127,
      "chip": "ym2612"
    },
    {
      "channel": 4,
      "note": 57,
      "start": 153.6625,
      "duration": 0.18,
      "velocity": 93,
      "chip": "ym2612"
    },
    {
      "channel": 0,
      "note": 76,
      "start": 153.7422,
      "duration": 0.1001,
      "velocity": 93,
      "chip": "ym2612"
    },
    {
      "channel": 0,
      "note": 80,
      "start": 153.8424,
      "duration": 0.0798,
      "velocity": 93,
      "chip": "ym2612"
    },
    {
      "channel": 2,
      "note": 80,
      "start": 153.8425,
      "duration": 0.16,
      "velocity": 127,
      "chip": "ym2612"
    },
    {
      "channel": 4,
      "note": 56,
      "start": 153.8426,
      "duration": 0.16,
      "velocity": 93,
      "chip": "ym2612"
    },
    {
      "channel": 0,
      "note": 81,
      "start": 153.9223,
      "duration": 0.0802,
      "velocity": 93,
      "chip": "ym2612"
    },
    {
      "channel": 0,
      "note": 80,
      "start": 154.0025,
      "duration": 0.0011,
      "velocity": 93,
      "chip": "ym2612"
    },
    {
      "channel": 2,
      "note": 81,
      "start": 154.0025,
      "duration": 0.3779,
      "velocity": 127,
      "chip": "ym2612"
    },
    {
      "channel": 4,
      "note": 57,
      "start": 154.0027,
      "duration": 0.3779,
      "velocity": 93,
      "chip": "ym2612"
    },
    {
      "channel": 0,
      "note": 76,
      "start": 154.0036,
      "duration": 0.0556,
      "velocity": 93,
      "chip": "ym2612"
    },
    {
      "channel": 0,
      "note": 73,
      "start": 154.0591,
      "duration": 0.08,
      "velocity": 93,
      "chip": "ym2612"
    },
    {
      "channel": 0,
      "note": 69,
      "start": 154.1391,
      "duration": 0.08,
      "velocity": 93,
      "chip": "ym2612"
    },
    {
      "channel": 0,
      "note": 68,
      "start": 154.2192,
      "duration": 0.0799,
      "velocity": 93,
      "chip": "ym2612"
    },
    {
      "channel": 0,
      "note": 69,
      "start": 154.2992,
      "duration": 0.08,
      "velocity": 93,
      "chip": "ym2612"
    },
    {
      "channel": 0,
      "note": 73,
      "start": 154.3792,
      "duration": 0.0012,
      "velocity": 93,
      "chip": "ym2612"
    },
    {
      "channel": 0,
      "note": 76,
      "start": 154.3805,
      "duration": 0.0557,
      "velocity": 93,
      "chip": "ym2612"
    },
    {
      "channel": 0,
      "note": 80,
      "start": 154.4363,
      "duration": 0.0012,
      "velocity": 93,
      "chip": "ym2612"
    },
    {
      "channel": 2,
      "note": 88,
      "start": 154.4363,
      "duration": 0.509,
      "velocity": 127,
      "chip": "ym2612"
    },
    {
      "channel": 4,
      "note": 64,
      "start": 154.4365,
      "duration": 0.509,
      "velocity": 93,
      "chip": "ym2612"
    },
    {
      "channel": 0,
      "note": 81,
      "start": 154.4375,
      "duration": 0.0009,
      "velocity": 93,
      "chip": "ym2612"
    },
    {
      "channel": 0,
      "note": 80,
      "start": 154.4385,
      "duration": 0.0865,
      "velocity": 93,
      "chip": "ym2612"
    },
    {
      "channel": 0,
      "note": 76,
      "start": 154.525,
      "duration": 0.08,
      "velocity": 93,
      "chip": "ym2612"
    },
    {
      "channel": 0,
      "note": 73,
      "start": 154.605,
      "duration": 0.08,
      "velocity": 93,
      "chip": "ym2612"
    },
    {
      "channel": 0,
      "note": 69,
      "start": 154.685,
      "duration": 0.0801,
      "velocity": 93,
      "chip": "ym2612"
    },
    {
      "channel": 0,
      "note": 68,
      "start": 154.7651,
      "duration": 0.0999,
      "velocity": 93,
      "chip": "ym2612"
    },
    {
      "channel": 3,
      "note": 45,
      "start": 154.7652,
      "duration": 0.1199,
      "velocity": 95,
      "chip": "ym2612"
    },
    {
      "channel": 0,
      "note": 69,
      "start": 154.8651,
      "duration": 0.0802,
      "velocity": 93,
      "chip": "ym2612"
    },
    {
      "channel": 0,
      "note": 66,
      "start": 154.9453,
      "duration": 0.0012,
      "velocity": 93,
      "chip": "ym2612"
    },
    {
      "channel": 2,
      "note": 86,
      "start": 154.9454,
      "duration": 0.557,
      "velocity": 127,
      "chip": "ym2612"
    },
    {
      "channel": 3,
      "note": 45,
      "start": 154.9455,
      "duration": 1.908,
      "velocity": 95,
      "chip": "ym2612"
    },
    {
      "channel": 4,
      "note": 62,
      "start": 154.9455,
      "duration": 0.5569,
      "velocity": 93,
      "chip": "ym2612"
    },
    {
      "channel": 0,
      "note": 69,
      "start": 154.9466,
      "duration": 0.0355,
      "velocity": 93,
      "chip": "ym2612"
    },
    {
      "channel": 0,
      "note": 71,
      "start": 154.9822,
      "duration": 0.0999,
      "velocity": 93,
      "chip": "ym2612"
    },
    {
      "channel": 0,
      "note": 74,
      "start": 155.0821,
      "duration": 0.08,
      "velocity": 93,
      "chip": "ym2612"
    },
    {
      "channel": 0,
      "note": 78,
      "start": 155.1621,
      "duration": 0.08,
      "velocity": 93,
      "chip": "ym2612"
    },
    {
      "channel": 0,
      "note": 81,
      "start": 155.2422,
      "duration": 0.0799,
      "velocity": 93,
      "chip": "ym2612"
    },
    {
      "channel": 0,
      "note": 78,
      "start": 155.3222,
      "duration": 0.0999,
      "velocity": 93,
      "chip": "ym2612"
    },
    {
      "channel": 0,
      "note": 74,
      "start": 155.4221,
      "duration": 0.0802,
      "velocity": 93,
      "chip": "ym2612"
    },
    {
      "channel": 0,
      "note": 71,
      "start": 155.5024,
      "duration": 0.0011,
      "velocity": 93,
      "chip": "ym2612"
    },
    {
      "channel": 2,
      "note": 78,
      "start": 155.5024,
      "duration": 0.2284,
      "velocity": 127,
      "chip": "ym2612"
    },
    {
      "channel": 4,
      "note": 54,
      "start": 155.5025,
      "duration": 0.5087,
      "velocity": 93,
      "chip": "ym2612"
    },
    {
      "channel": 0,
      "note": 69,
      "start": 155.5034,
      "duration": 0.0009,
      "velocity": 93,
      "chip": "ym2612"
    },
    {
      "channel": 0,
      "note": 66,
      "start": 155.5044,
      "duration": 0.0865,
      "velocity": 93,
      "chip": "ym2612"
    },
    {
      "channel": 0,
      "note": 69,
      "start": 155.5909,
      "duration": 0.0799,
      "velocity": 93,
      "chip": "ym2612"
    },
    {
      "channel": 0,
      "note": 71,
      "start": 155.6709,
      "duration": 0.0799,
      "velocity": 93,
      "chip": "ym2612"
    },
    {
      "channel": 0,
      "note": 74,
      "start": 155.7509,
      "duration": 0.0799,
      "velocity": 93,
      "chip": "ym2612"
    },
    {
      "channel": 0,
      "note": 78,
      "start": 155.8309,
      "duration": 0.0999,
      "velocity": 93,
      "chip": "ym2612"
    },
    {
      "channel": 0,
      "note": 81,
      "start": 155.9309,
      "duration": 0.0802,
      "velocity": 93,
      "chip": "ym2612"
    },
    {
      "channel": 0,
      "note": 78,
      "start": 156.0111,
      "duration": 0.001,
      "velocity": 93,
      "chip": "ym2612"
    },
    {
      "channel": 2,
      "note": 78,
      "start": 156.0112,
      "duration": 0.2168,
      "velocity": 127,
      "chip": "ym2612"
    },
    {
      "channel": 4,
      "note": 54,
      "start": 156.0113,
      "duration": 0.2168,
      "velocity": 93,
      "chip": "ym2612"
    },
    {
      "channel": 0,
      "note": 74,
      "start": 156.0122,
      "duration": 0.0356,
      "velocity": 93,
      "chip": "ym2612"
    },
    {
      "channel": 0,
      "note": 71,
      "start": 156.0478,
      "duration": 0.1,
      "velocity": 93,
      "chip": "ym2612"
    },
    {
      "channel": 0,
      "note": 69,
      "start": 156.1478,
      "duration": 0.0801,
      "velocity": 93,
      "chip": "ym2612"
    },
    {
      "channel": 0,
      "note": 66,
      "start": 156.228,
      "duration": 0.0798,
      "velocity": 93,
      "chip": "ym2612"
    },
    {
      "channel": 2,
      "note": 80,
      "start": 156.228,
      "duration": 0.1766,
      "velocity": 127,
      "chip": "ym2612"
    },
    {
      "channel": 4,
      "note": 56,
      "start": 156.2281,
      "duration": 0.1766,
      "velocity": 93,
      "chip": "ym2612"
    },
    {
      "channel": 0,
      "note": 69,
      "start": 156.3078,
      "duration": 0.08,
      "velocity": 93,
      "chip": "ym2612"
    },
    {
      "channel": 0,
      "note": 71,
      "start": 156.3878,
      "duration": 0.0012,
      "velocity": 93,
      "chip": "ym2612"
    },
    {
      "channel": 0,
      "note": 74,
      "start": 156.389,
      "duration": 0.0558,
      "velocity": 93,
      "chip": "ym2612"
    },
    {
      "channel": 0,
      "note": 78,
      "start": 156.4449,
      "duration": 0.0012,
      "velocity": 93,
      "chip": "ym2612"
    },
    {
      "channel": 2,
      "note": 81,
      "start": 156.445,
      "duration": 0.0018,
      "velocity": 127,
      "chip": "ym2612"
    },
    {
      "channel": 4,
      "note": 57,
      "start": 156.4451,
      "duration": 0.0017,
      "velocity": 93,
      "chip": "ym2612"
    },
    {
      "channel": 0,
      "note": 81,
      "start": 156.4461,
      "duration": 0.0007,
      "velocity": 93,
      "chip": "ym2612"
    },
    {
      "channel": 0,
      "note": 78,
      "start": 156.447,
      "duration": 0.0664,
      "velocity": 93,
      "chip": "ym2612"
    },
    {
      "channel": 2,
      "note": 83,
      "start": 156.447,
      "duration": 0.1666,
      "velocity": 127,
      "chip": "ym2612"
    },
    {
      "channel": 4,
      "note": 59,
      "start": 156.4471,
      "duration": 0.1665,
      "velocity": 93,
      "chip": "ym2612"
    },
    {
      "channel": 0,
      "note": 74,
      "start": 156.5134,
      "duration": 0.1001,
      "velocity": 93,
      "chip": "ym2612"
    },
    {
      "channel": 0,
      "note": 71,
      "start": 156.6135,
      "duration": 0.0799,
      "velocity": 93,
      "chip": "ym2612"
    },
    {
      "channel": 2,
      "note": 85,
      "start": 156.6136,
      "duration": 0.16,
      "velocity": 127,
      "chip": "ym2612"
    },
    {
      "channel": 4,
      "note": 61,
      "start": 156.6137,
      "duration": 0.16,
      "velocity": 93,
      "chip": "ym2612"
    },
    {
      "channel": 0,
      "note": 69,
      "start": 156.6935,
      "duration": 0.0801,
      "velocity": 93,
      "chip": "ym2612"
    },
    {
      "channel": 0,
      "note": 66,
      "start": 156.7736,
      "duration": 0.0798,
      "velocity": 93,
      "chip": "ym2612"
    },
    {
      "channel": 2,
      "note": 86,
      "start": 156.7737,
      "duration": 0.18,
      "velocity": 127,
      "chip": "ym2612"
    },
    {
      "channel": 4,
      "note": 62,
      "start": 156.7738,
      "duration": 0.1801,
      "velocity": 93,
      "chip": "ym2612"
    },
    {
      "channel": 0,
      "note": 69,
      "start": 156.8535,
      "duration": 0.1002,
      "velocity": 93,
      "chip": "ym2612"
    },
    {
      "channel": 0,
      "note": 68,
      "start": 156.9537,
      "duration": 0.0013,
      "velocity": 93,
      "chip": "ym2612"
    },
    {
      "channel": 2,
      "note": 88,
      "start": 156.9538,
      "duration": 1.0658,
      "velocity": 127,
      "chip": "ym2612"
    },
    {
      "channel": 3,
      "note": 45,
      "start": 156.9539,
      "duration": 1.5685,
      "velocity": 95,
      "chip": "ym2612"
    },
    {
      "channel": 4,
      "note": 64,
      "start": 156.9539,
      "duration": 1.0658,
      "velocity": 93,
      "chip": "ym2612"
    },
    {
      "channel": 0,
      "note": 69,
      "start": 156.955,
      "duration": 0.0354,
      "velocity": 93,
      "chip": "ym2612"
    },
    {
      "channel": 0,
      "note": 73,
      "start": 156.9905,
      "duration": 0.0799,
      "velocity": 93,
      "chip": "ym2612"
    },
    {
      "channel": 0,
      "note": 76,
      "start": 157.0705,
      "duration": 0.1,
      "velocity": 93,
      "chip": "ym2612"
    },
    {
      "channel": 0,
      "note": 80,
      "start": 157.1705,
      "duration": 0.08,
      "velocity": 93,
      "chip": "ym2612"
    },
    {
      "channel": 0,
      "note": 81,
      "start": 157.2505,
      "duration": 0.0799,
      "velocity": 93,
      "chip": "ym2612"
    },
    {
      "channel": 0,
      "note": 80,
      "start": 157.3305,
      "duration": 0.0799,
      "velocity": 93,
      "chip": "ym2612"
    },
    {
      "channel": 0,
      "note": 76,
      "start": 157.4105,
      "duration": 0.1001,
      "velocity": 93,
      "chip": "ym2612"
    },
    {
      "channel": 0,
      "note": 73,
      "start": 157.5105,
      "duration": 0.0011,
      "velocity": 93,
      "chip": "ym2612"
    },
    {
      "channel": 0,
      "note": 69,
      "start": 157.5116,
      "duration": 0.001,
      "velocity": 93,
      "chip": "ym2612"
    },
    {
      "channel": 0,
      "note": 68,
      "start": 157.5126,
      "duration": 0.0667,
      "velocity": 93,
      "chip": "ym2612"
    },
    {
      "channel": 0,
      "note": 69,
      "start": 157.5794,
      "duration": 0.0999,
      "velocity": 93,
      "chip": "ym2612"
    },
    {
      "channel": 0,
      "note": 73,
      "start": 157.6793,
      "duration": 0.08,
      "velocity": 93,
      "chip": "ym2612"
    },
    {
      "channel": 0,
      "note": 76,
      "start": 157.7593,
      "duration": 0.08,
      "velocity": 93,
      "chip": "ym2612"
    },
    {
      "channel": 0,
      "note": 80,
      "start": 157.8393,
      "duration": 0.08,
      "velocity": 93,
      "chip": "ym2612"
    },
    {
      "channel": 0,
      "note": 81,
      "start": 157.9194,
      "duration": 0.1001,
      "velocity": 93,
      "chip": "ym2612"
    },
    {
      "channel": 0,
      "note": 80,
      "start": 158.0196,
      "duration": 0.0011,
      "velocity": 93,
      "chip": "ym2612"
    },
    {
      "channel": 2,
      "note": 81,
      "start": 158.0196,
      "duration": 0.9229,
      "velocity": 127,
      "chip": "ym2612"
    },
    {
      "channel": 4,
      "note": 57,
      "start": 158.0198,
      "duration": 0.9229,
      "velocity": 93,
      "chip": "ym2612"
    },
    {
      "channel": 0,
      "note": 76,
      "start": 158.0207,
      "duration": 0.0356,
      "velocity": 93,
      "chip": "ym2612"
    },
    {
      "channel": 0,
      "note": 73,
      "start": 158.0563,
      "duration": 0.08,
      "velocity": 93,
      "chip": "ym2612"
    },
    {
      "channel": 0,
      "note": 69,
      "start": 158.1363,
      "duration": 0.1,
      "velocity": 93,
      "chip": "ym2612"
    },
    {
      "channel": 0,
      "note": 68,
      "start": 158.2364,
      "duration": 0.0799,
      "velocity": 93,
      "chip": "ym2612"
    },
    {
      "channel": 0,
      "note": 69,
      "start": 158.3164,
      "duration": 0.08,
      "velocity": 93,
      "chip": "ym2612"
    },
    {
      "channel": 0,
      "note": 73,
      "start": 158.3964,
      "duration": 0.0011,
      "velocity": 93,
      "chip": "ym2612"
    },
    {
      "channel": 0,
      "note": 76,
      "start": 158.3975,
      "duration": 0.0559,
      "velocity": 93,
      "chip": "ym2612"
    },
    {
      "channel": 0,
      "note": 80,
      "start": 158.4534,
      "duration": 0.0011,
      "velocity": 93,
      "chip": "ym2612"
    },
    {
      "channel": 0,
      "note": 81,
      "start": 158.4546,
      "duration": 0.0008,
      "velocity": 93,
      "chip": "ym2612"
    },
    {
      "channel": 0,
      "note": 80,
      "start": 158.4555,
      "duration": 0.0666,
      "velocity": 93,
      "chip": "ym2612"
    },
    {
      "channel": 0,
      "note": 76,
      "start": 158.5222,
      "duration": 0.1001,
      "velocity": 93,
      "chip": "ym2612"
    },
    {
      "channel": 0,
      "note": 73,
      "start": 158.6223,
      "duration": 0.0799,
      "velocity": 93,
      "chip": "ym2612"
    },
    {
      "channel": 3,
      "note": 45,
      "start": 158.6224,
      "duration": 0.3202,
      "velocity": 95,
      "chip": "ym2612"
    },
    {
      "channel": 0,
      "note": 69,
      "start": 158.7022,
      "duration": 0.08,
      "velocity": 93,
      "chip": "ym2612"
    },
    {
      "channel": 0,
      "note": 68,
      "start": 158.7823,
      "duration": 0.0799,
      "velocity": 93,
      "chip": "ym2612"
    },
    {
      "channel": 0,
      "note": 69,
      "start": 158.8623,
      "duration": 0.0802,
      "velocity": 93,
      "chip": "ym2612"
    },
    {
      "channel": 0,
      "note": 65,
      "start": 158.9425,
      "duration": 0.0013,
      "velocity": 93,
      "chip": "ym2612"
    },
    {
      "channel": 2,
      "note": 91,
      "start": 158.9426,
      "duration": 0.6854,
      "velocity": 127,
      "chip": "ym2612"
    },
    {
      "channel": 3,
      "note": 53,
      "start": 158.9427,
      "duration": 1.0657,
      "velocity": 95,
      "chip": "ym2612"
    },
    {
      "channel": 4,
      "note": 67,
      "start": 158.9428,
      "duration": 0.6853,
      "velocity": 93,
      "chip": "ym2612"
    },
    {
      "channel": 0,
      "note": 69,
      "start": 158.9439,
      "duration": 0.0553,
      "velocity": 93,
      "chip": "ym2612"
    },
    {
      "channel": 0,
      "note": 72,
      "start": 158.9993,
      "duration": 0.0799,
      "velocity": 93,
      "chip": "ym2612"
    },
    {
      "channel": 0,
      "note": 76,
      "start": 159.0792,
      "duration": 0.08,
      "velocity": 93,
      "chip": "ym2612"
    },
    {
      "channel": 0,
      "note": 79,
      "start": 159.1592,
      "duration": 0.1,
      "velocity": 93,
      "chip": "ym2612"
    },
    {
      "channel": 0,
      "note": 76,
      "start": 159.2592,
      "duration": 0.08,
      "velocity": 93,
      "chip": "ym2612"
    },
    {
      "channel": 0,
      "note": 72,
      "start": 159.3392,
      "duration": 0.08,
      "velocity": 93,
      "chip": "ym2612"
    },
    {
      "channel": 0,
      "note": 69,
      "start": 159.4192,
      "duration": 0.0801,
      "velocity": 93,
      "chip": "ym2612"
    },
    {
      "channel": 0,
      "note": 65,
      "start": 159.4993,
      "duration": 0.0012,
      "velocity": 93,
      "chip": "ym2612"
    },
    {
      "channel": 0,
      "note": 69,
      "start": 159.5006,
      "duration": 0.0073,
      "velocity": 93,
      "chip": "ym2612"
    },
    {
      "channel": 0,
      "note": 72,
      "start": 159.508,
      "duration": 0.0799,
      "velocity": 93,
      "chip": "ym2612"
    },
    {
      "channel": 0,
      "note": 76,
      "start": 159.588,
      "duration": 0.0801,
      "velocity": 93,
      "chip": "ym2612"
    },
    {
      "channel": 0,
      "note": 79,
      "start": 159.6681,
      "duration": 0.0999,
      "velocity": 93,
      "chip": "ym2612"
    },
    {
      "channel": 2,
      "note": 91,
      "start": 159.6682,
      "duration": 0.2397,
      "velocity": 127,
      "chip": "ym2612"
    },
    {
      "channel": 4,
      "note": 67,
      "start": 159.6683,
      "duration": 0.2397,
      "velocity": 93,
      "chip": "ym2612"
    },
    {
      "channel": 0,
      "note": 76,
      "start": 159.768,
      "duration": 0.08,
      "velocity": 93,
      "chip": "ym2612"
    },
    {
      "channel": 0,
      "note": 72,
      "start": 159.848,
      "duration": 0.0799,
      "velocity": 93,
      "chip": "ym2612"
    },
    {
      "channel": 0,
      "note": 69,
      "start": 159.9279,
      "duration": 0.0803,
      "velocity": 93,
      "chip": "ym2612"
    },
    {
      "channel": 0,
      "note": 67,
      "start": 160.0083,
      "duration": 0.0013,
      "velocity": 93,
      "chip": "ym2612"
    },
    {
      "channel": 2,
      "note": 90,
      "start": 160.0084,
      "duration": 0.0566,
      "velocity": 127,
      "chip": "ym2612"
    },
    {
      "channel": 3,
      "note": 55,
      "start": 160.0084,
      "duration": 0.7825,
      "velocity": 95,
      "chip": "ym2612"
    },
    {
      "channel": 4,
      "note": 66,
      "start": 160.0085,
      "duration": 0.0566,
      "velocity": 93,
      "chip": "ym2612"
    },
    {
      "channel": 0,
      "note": 71,
      "start": 160.0096,
      "duration": 0.0553,
      "velocity": 93,
      "chip": "ym2612"
    },
    {
      "channel": 0,
      "note": 74,
      "start": 160.065,
      "duration": 0.0798,
      "velocity": 93,
      "chip": "ym2612"
    },
    {
      "channel": 0,
      "note": 78,
      "start": 160.1449,
      "duration": 0.0802,
      "velocity": 93,
      "chip": "ym2612"
    },
    {
      "channel": 0,
      "note": 81,
      "start": 160.2251,
      "duration": 0.0998,
      "velocity": 93,
      "chip": "ym2612"
    },
    {
      "channel": 2,
      "note": 86,
      "start": 160.2252,
      "duration": 0.1798,
      "velocity": 127,
      "chip": "ym2612"
    },
    {
      "channel": 4,
      "note": 62,
      "start": 160.2253,
      "duration": 0.1798,
      "velocity": 93,
      "chip": "ym2612"
    },
    {
      "channel": 0,
      "note": 78,
      "start": 160.325,
      "duration": 0.0799,
      "velocity": 93,
      "chip": "ym2612"
    },
    {
      "channel": 0,
      "note": 74,
      "start": 160.405,
      "duration": 0.0008,
      "velocity": 93,
      "chip": "ym2612"
    },
    {
      "channel": 0,
      "note": 71,
      "start": 160.4058,
      "duration": 0.0362,
      "velocity": 93,
      "chip": "ym2612"
    },
    {
      "channel": 0,
      "note": 67,
      "start": 160.4421,
      "duration": 0.0014,
      "velocity": 93,
      "chip": "ym2612"
    },
    {
      "channel": 2,
      "note": 81,
      "start": 160.4422,
      "duration": 0.0086,
      "velocity": 127,
      "chip": "ym2612"
    },
    {
      "channel": 4,
      "note": 57,
      "start": 160.4423,
      "duration": 0.0086,
      "velocity": 93,
      "chip": "ym2612"
    },
    {
      "channel": 0,
      "note": 71,
      "start": 160.4436,
      "duration": 0.0071,
      "velocity": 93,
      "chip": "ym2612"
    },
    {
      "channel": 0,
      "note": 74,
      "start": 160.4508,
      "duration": 0.0799,
      "velocity": 93,
      "chip": "ym2612"
    },
    {
      "channel": 0,
      "note": 78,
      "start": 160.5307,
      "duration": 0.0802,
      "velocity": 93,
      "chip": "ym2612"
    },
    {
      "channel": 0,
      "note": 81,
      "start": 160.611,
      "duration": 0.0998,
      "velocity": 93,
      "chip": "ym2612"
    },
    {
      "channel": 2,
      "note": 90,
      "start": 160.6111,
      "duration": 0.1798,
      "velocity": 127,
      "chip": "ym2612"
    },
    {
      "channel": 4,
      "note": 66,
      "start": 160.6112,
      "duration": 0.1798,
      "velocity": 93,
      "chip": "ym2612"
    },
    {
      "channel": 0,
      "note": 78,
      "start": 160.7109,
      "duration": 0.0799,
      "velocity": 93,
      "chip": "ym2612"
    },
    {
      "channel": 0,
      "note": 74,
      "start": 160.7909,
      "duration": 0.0798,
      "velocity": 93,
      "chip": "ym2612"
    },
    {
      "channel": 3,
      "note": 52,
      "start": 160.791,
      "duration": 0.1602,
      "velocity": 95,
      "chip": "ym2612"
    },
    {
      "channel": 0,
      "note": 71,
      "start": 160.8707,
      "duration": 0.0803,
      "velocity": 93,
      "chip": "ym2612"
    },
    {
      "channel": 0,
      "note": 68,
      "start": 160.9511,
      "duration": 0.0013,
      "velocity": 93,
      "chip": "ym2612"
    },
    {
      "channel": 2,
      "note": 88,
      "start": 160.9512,
      "duration": 1.0656,
      "velocity": 127,
      "chip": "ym2612"
    },
    {
      "channel": 3,
      "note": 45,
      "start": 160.9513,
      "duration": 1.8856,
      "velocity": 95,
      "chip": "ym2612"
    },
    {
      "channel": 4,
      "note": 64,
      "start": 160.9513,
      "duration": 1.0656,
      "velocity": 93,
      "chip": "ym2612"
    },
    {
      "channel": 0,
      "note": 69,
      "start": 160.9525,
      "duration": 0.0553,
      "velocity": 93,
      "chip": "ym2612"
    },
    {
      "channel": 0,
      "note": 73,
      "start": 161.0078,
      "duration": 0.0799,
      "velocity": 93,
      "chip": "ym2612"
    },
    {
      "channel": 0,
      "note": 76,
      "start": 161.0878,
      "duration": 0.08,
      "velocity": 93,
      "chip": "ym2612"
    },
    {
      "channel": 0,
      "note": 80,
      "start": 161.1678,
      "duration": 0.08,
      "velocity": 93,
      "chip": "ym2612"
    },
    {
      "channel": 0,
      "note": 81,
      "start": 161.2478,
      "duration": 0.0999,
      "velocity": 93,
      "chip": "ym2612"
    },
    {
      "channel": 0,
      "note": 80,
      "start": 161.3478,
      "duration": 0.0799,
      "velocity": 93,
      "chip": "ym2612"
    },
    {
      "channel": 0,
      "note": 76,
      "start": 161.4278,
      "duration": 0.0801,
      "velocity": 93,
      "chip": "ym2612"
    },
    {
      "channel": 0,
      "note": 73,
      "start": 161.5078,
      "duration": 0.0011,
      "velocity": 93,
      "chip": "ym2612"
    },
    {
      "channel": 0,
      "note": 69,
      "start": 161.5089,
      "duration": 0.0076,
      "velocity": 93,
      "chip": "ym2612"
    },
    {
      "channel": 0,
      "note": 68,
      "start": 161.5166,
      "duration": 0.0799,
      "velocity": 93,
      "chip": "ym2612"
    },
    {
      "channel": 0,
      "note": 69,
      "start": 161.5966,
      "duration": 0.0799,
      "velocity": 93,
      "chip": "ym2612"
    },
    {
      "channel": 0,
      "note": 73,
      "start": 161.6766,
      "duration": 0.08,
      "velocity": 93,
      "chip": "ym2612"
    },
    {
      "channel": 0,
      "note": 76,
      "start": 161.7566,
      "duration": 0.1,
      "velocity": 93,
      "chip": "ym2612"
    },
    {
      "channel": 0,
      "note": 80,
      "start": 161.8566,
      "duration": 0.08,
      "velocity": 93,
      "chip": "ym2612"
    },
    {
      "channel": 0,
      "note": 81,
      "start": 161.9366,
      "duration": 0.0801,
      "velocity": 93,
      "chip": "ym2612"
    },
    {
      "channel": 0,
      "note": 80,
      "start": 162.0168,
      "duration": 0.0012,
      "velocity": 93,
      "chip": "ym2612"
    },
    {
      "channel": 2,
      "note": 81,
      "start": 162.0169,
      "duration": 0.4438,
      "velocity": 127,
      "chip": "ym2612"
    },
    {
      "channel": 4,
      "note": 57,
      "start": 162.017,
      "duration": 0.4438,
      "velocity": 93,
      "chip": "ym2612"
    },
    {
      "channel": 0,
      "note": 76,
      "start": 162.018,
      "duration": 0.0556,
      "velocity": 93,
      "chip": "ym2612"
    },
    {
      "channel": 0,
      "note": 73,
      "start": 162.0737,
      "duration": 0.0799,
      "velocity": 93,
      "chip": "ym2612"
    },
    {
      "channel": 0,
      "note": 69,
      "start": 162.1536,
      "duration": 0.08,
      "velocity": 93,
      "chip": "ym2612"
    },
    {
      "channel": 0,
      "note": 68,
      "start": 162.2337,
      "duration": 0.0799,
      "velocity": 93,
      "chip": "ym2612"
    },
    {
      "channel": 0,
      "note": 69,
      "start": 162.3137,
      "duration": 0.1,
      "velocity": 93,
      "chip": "ym2612"
    },
    {
      "channel": 0,
      "note": 73,
      "start": 162.4137,
      "duration": 0.0011,
      "velocity": 93,
      "chip": "ym2612"
    },
    {
      "channel": 0,
      "note": 76,
      "start": 162.4148,
      "duration": 0.036,
      "velocity": 93,
      "chip": "ym2612"
    },
    {
      "channel": 0,
      "note": 80,
      "start": 162.4508,
      "duration": 0.0011,
      "velocity": 93,
      "chip": "ym2612"
    },
    {
      "channel": 0,
      "note": 81,
      "start": 162.4519,
      "duration": 0.0076,
      "velocity": 93,
      "chip": "ym2612"
    },
    {
      "channel": 0,
      "note": 80,
      "start": 162.4596,
      "duration": 0.001,
      "velocity": 93,
      "chip": "ym2612"
    },
    {
      "channel": 0,
      "note": 76,
      "start": 162.4607,
      "duration": 0.0359,
      "velocity": 93,
      "chip": "ym2612"
    },
    {
      "channel": 2,
      "note": 83,
      "start": 162.4607,
      "duration": 0.036,
      "velocity": 127,
      "chip": "ym2612"
    },
    {
      "channel": 4,
      "note": 59,
      "start": 162.4609,
      "duration": 0.0359,
      "velocity": 93,
      "chip": "ym2612"
    },
    {
      "channel": 0,
      "note": 73,
      "start": 162.4967,
      "duration": 0.0799,
      "velocity": 93,
      "chip": "ym2612"
    },
    {
      "channel": 2,
      "note": 85,
      "start": 162.4967,
      "duration": 0.08,
      "velocity": 127,
      "chip": "ym2612"
    },
    {
      "channel": 4,
      "note": 61,
      "start": 162.4968,
      "duration": 0.08,
      "velocity": 93,
      "chip": "ym2612"
    },
    {
      "channel": 0,
      "note": 69,
      "start": 162.5767,
      "duration": 0.1,
      "velocity": 93,
      "chip": "ym2612"
    },
    {
      "channel": 2,
      "note": 86,
      "start": 162.5767,
      "duration": 0.1,
      "velocity": 127,
      "chip": "ym2612"
    },
    {
      "channel": 4,
      "note": 62,
      "start": 162.5768,
      "duration": 0.1,
      "velocity": 93,
      "chip": "ym2612"
    },
    {
      "channel": 0,
      "note": 68,
      "start": 162.6767,
      "duration": 0.0799,
      "velocity": 93,
      "chip": "ym2612"
    },
    {
      "channel": 2,
      "note": 88,
      "start": 162.6768,
      "duration": 0.0799,
      "velocity": 127,
      "chip": "ym2612"
    },
    {
      "channel": 4,
      "note": 64,
      "start": 162.6769,
      "duration": 0.0799,
      "velocity": 93,
      "chip": "ym2612"
    },
    {
      "channel": 0,
      "note": 69,
      "start": 162.7567,
      "duration": 0.0801,
      "velocity": 93,
      "chip": "ym2612"
    },
    {
      "channel": 2,
      "note": 90,
      "start": 162.7568,
      "duration": 0.08,
      "velocity": 127,
      "chip": "ym2612"
    },
    {
      "channel": 4,
      "note": 66,
      "start": 162.7569,
      "duration": 0.0801,
      "velocity": 93,
      "chip": "ym2612"
    },
    {
      "channel": 0,
      "note": 65,
      "start": 162.8368,
      "duration": 0.0012,
      "velocity": 93,
      "chip": "ym2612"
    },
    {
      "channel": 2,
      "note": 91,
      "start": 162.8368,
      "duration": 0.6656,
      "velocity": 127,
      "chip": "ym2612"
    },
    {
      "channel": 3,
      "note": 53,
      "start": 162.837,
      "duration": 1.0659,
      "velocity": 95,
      "chip": "ym2612"
    },
    {
      "channel": 4,
      "note": 67,
      "start": 162.8371,
      "duration": 0.6655,
      "velocity": 93,
      "chip": "ym2612"
    },
    {
      "channel": 0,
      "note": 69,
      "start": 162.8381,
      "duration": 0.0555,
      "velocity": 93,
      "chip": "ym2612"
    },
    {
      "channel": 0,
      "note": 72,
      "start": 162.8936,
      "duration": 0.08,
      "velocity": 93,
      "chip": "ym2612"
    },
    {
      "channel": 0,
      "note": 76,
      "start": 162.9736,
      "duration": 0.08,
      "velocity": 93,
      "chip": "ym2612"
    },
    {
      "channel": 0,
      "note": 79,
      "start": 163.0536,
      "duration": 0.08,
      "velocity": 93,
      "chip": "ym2612"
    },
    {
      "channel": 0,
      "note": 76,
      "start": 163.1336,
      "duration": 0.1,
      "velocity": 93,
      "chip": "ym2612"
    },
    {
      "channel": 0,
      "note": 72,
      "start": 163.2336,
      "duration": 0.08,
      "velocity": 93,
      "chip": "ym2612"
    },
    {
      "channel": 0,
      "note": 69,
      "start": 163.3136,
      "duration": 0.0801,
      "velocity": 93,
      "chip": "ym2612"
    },
    {
      "channel": 0,
      "note": 65,
      "start": 163.3937,
      "duration": 0.0011,
      "velocity": 93,
      "chip": "ym2612"
    },
    {
      "channel": 0,
      "note": 69,
      "start": 163.3949,
      "duration": 0.0009,
      "velocity": 93,
      "chip": "ym2612"
    },
    {
      "channel": 0,
      "note": 72,
      "start": 163.3958,
      "duration": 0.0867,
      "velocity": 93,
      "chip": "ym2612"
    },
    {
      "channel": 0,
      "note": 76,
      "start": 163.4825,
      "duration": 0.0801,
      "velocity": 93,
      "chip": "ym2612"
    },
    {
      "channel": 0,
      "note": 79,
      "start": 163.5626,
      "duration": 0.0799,
      "velocity": 93,
      "chip": "ym2612"
    },
    {
      "channel": 2,
      "note": 91,
      "start": 163.5627,
      "duration": 0.2798,
      "velocity": 127,
      "chip": "ym2612"
    },
    {
      "channel": 4,
      "note": 67,
      "start": 163.5628,
      "duration": 0.2798,
      "velocity": 93,
      "chip": "ym2612"
    },
    {
      "channel": 0,
      "note": 76,
      "start": 163.6426,
      "duration": 0.0799,
      "velocity": 93,
      "chip": "ym2612"
    },
    {
      "channel": 0,
      "note": 72,
      "start": 163.7225,
      "duration": 0.1,
      "velocity": 93,
      "chip": "ym2612"
    },
    {
      "channel": 0,
      "note": 69,
      "start": 163.8225,
      "duration": 0.0803,
      "velocity": 93,
      "chip": "ym2612"
    },
    {
      "channel": 0,
      "note": 67,
      "start": 163.9028,
      "duration": 0.0011,
      "velocity": 93,
      "chip": "ym2612"
    },
    {
      "channel": 2,
      "note": 90,
      "start": 163.9029,
      "duration": 0.0366,
      "velocity": 127,
      "chip": "ym2612"
    },
    {
      "channel": 3,
      "note": 55,
      "start": 163.9029,
      "duration": 0.7713,
      "velocity": 95,
      "chip": "ym2612"
    },
    {
      "channel": 4,
      "note": 66,
      "start": 163.903,
      "duration": 0.0366,
      "velocity": 93,
      "chip": "ym2612"
    },
    {
      "channel": 0,
      "note": 71,
      "start": 163.904,
      "duration": 0.0354,
      "velocity": 93,
      "chip": "ym2612"
    },
    {
      "channel": 0,
      "note": 74,
      "start": 163.9395,
      "duration": 0.0999,
      "velocity": 93,
      "chip": "ym2612"
    },
    {
      "channel": 0,
      "note": 78,
      "start": 164.0394,
      "duration": 0.0802,
      "velocity": 93,
      "chip": "ym2612"
    },
    {
      "channel": 0,
      "note": 81,
      "start": 164.1197,
      "duration": 0.0798,
      "velocity": 93,
      "chip": "ym2612"
    },
    {
      "channel": 2,
      "note": 86,
      "start": 164.1198,
      "duration": 0.1598,
      "velocity": 127,
      "chip": "ym2612"
    },
    {
      "channel": 4,
      "note": 62,
      "start": 164.1199,
      "duration": 0.1598,
      "velocity": 93,
      "chip": "ym2612"
    },
    {
      "channel": 0,
      "note": 78,
      "start": 164.1996,
      "duration": 0.0799,
      "velocity": 93,
      "chip": "ym2612"
    },
    {
      "channel": 0,
      "note": 74,
      "start": 164.2796,
      "duration": 0.0009,
      "velocity": 93,
      "chip": "ym2612"
    },
    {
      "channel": 0,
      "note": 71,
      "start": 164.2805,
      "duration": 0.0561,
      "velocity": 93,
      "chip": "ym2612"
    },
    {
      "channel": 0,
      "note": 67,
      "start": 164.3367,
      "duration": 0.0011,
      "velocity": 93,
      "chip": "ym2612"
    },
    {
      "channel": 2,
      "note": 81,
      "start": 164.3367,
      "duration": 0.002,
      "velocity": 127,
      "chip": "ym2612"
    },
    {
      "channel": 4,
      "note": 57,
      "start": 164.3368,
      "duration": 0.0019,
      "velocity": 93,
      "chip": "ym2612"
    },
    {
      "channel": 0,
      "note": 71,
      "start": 164.3379,
      "duration": 0.0007,
      "velocity": 93,
      "chip": "ym2612"
    },
    {
      "channel": 0,
      "note": 74,
      "start": 164.3387,
      "duration": 0.0863,
      "velocity": 93,
      "chip": "ym2612"
    },
    {
      "channel": 0,
      "note": 78,
      "start": 164.4251,
      "duration": 0.0802,
      "velocity": 93,
      "chip": "ym2612"
    },
    {
      "channel": 0,
      "note": 81,
      "start": 164.5054,
      "duration": 0.0798,
      "velocity": 93,
      "chip": "ym2612"
    },
    {
      "channel": 2,
      "note": 90,
      "start": 164.5054,
      "duration": 0.1598,
      "velocity": 127,
      "chip": "ym2612"
    },
    {
      "channel": 4,
      "note": 66,
      "start": 164.5055,
      "duration": 0.1598,
      "velocity": 93,
      "chip": "ym2612"
    },
    {
      "channel": 0,
      "note": 78,
      "start": 164.5852,
      "duration": 0.0799,
      "velocity": 93,
      "chip": "ym2612"
    },
    {
      "channel": 0,
      "note": 74,
      "start": 164.6652,
      "duration": 0.0009,
      "velocity": 93,
      "chip": "ym2612"
    },
    {
      "channel": 0,
      "note": 71,
      "start": 164.6662,
      "duration": 0.0079,
      "velocity": 93,
      "chip": "ym2612"
    },
    {
      "channel": 0,
      "note": 68,
      "start": 164.6741,
      "duration": 0.0011,
      "velocity": 93,
      "chip": "ym2612"
    },
    {
      "channel": 2,
      "note": 88,
      "start": 164.6742,
      "duration": 0.7737,
      "velocity": 127,
      "chip": "ym2612"
    },
    {
      "channel": 3,
      "note": 45,
      "start": 164.6743,
      "duration": 1.8764,
      "velocity": 95,
      "chip": "ym2612"
    },
    {
      "channel": 4,
      "note": 64,
      "start": 164.6744,
      "duration": 0.7736,
      "velocity": 93,
      "chip": "ym2612"
    },
    {
      "channel": 0,
      "note": 69,
      "start": 164.6753,
      "duration": 0.0355,
      "velocity": 93,
      "chip": "ym2612"
    },
    {
      "channel": 0,
      "note": 73,
      "start": 164.7108,
      "duration": 0.1,
      "velocity": 93,
      "chip": "ym2612"
    },
    {
      "channel": 0,
      "note": 76,
      "start": 164.8108,
      "duration": 0.08,
      "velocity": 93,
      "chip": "ym2612"
    },
    {
      "channel": 0,
      "note": 80,
      "start": 164.8908,
      "duration": 0.08,
      "velocity": 93,
      "chip": "ym2612"
    },
    {
      "channel": 0,
      "note": 81,
      "start": 164.9709,
      "duration": 0.0799,
      "velocity": 93,
      "chip": "ym2612"
    },
    {
      "channel": 0,
      "note": 80,
      "start": 165.0509,
      "duration": 0.0999,
      "velocity": 93,
      "chip": "ym2612"
    },
    {
      "channel": 0,
      "note": 76,
      "start": 165.1508,
      "duration": 0.0801,
      "velocity": 93,
      "chip": "ym2612"
    },
    {
      "channel": 0,
      "note": 73,
      "start": 165.2309,
      "duration": 0.001,
      "velocity": 93,
      "chip": "ym2612"
    },
    {
      "channel": 0,
      "note": 69,
      "start": 165.2319,
      "duration": 0.0359,
      "velocity": 93,
      "chip": "ym2612"
    },
    {
      "channel": 0,
      "note": 68,
      "start": 165.2678,
      "duration": 0.0799,
      "velocity": 93,
      "chip": "ym2612"
    },
    {
      "channel": 0,
      "note": 69,
      "start": 165.3478,
      "duration": 0.1,
      "velocity": 93,
      "chip": "ym2612"
    },
    {
      "channel": 0,
      "note": 73,
      "start": 165.4479,
      "duration": 0.0799,
      "velocity": 93,
      "chip": "ym2612"
    },
    {
      "channel": 2,
      "note": 86,
      "start": 165.448,
      "duration": 0.1601,
      "velocity": 127,
      "chip": "ym2612"
    },
    {
      "channel": 4,
      "note": 62,
      "start": 165.4481,
      "duration": 0.16,
      "velocity": 93,
      "chip": "ym2612"
    },
    {
      "channel": 0,
      "note": 76,
      "start": 165.5278,
      "duration": 0.0802,
      "velocity": 93,
      "chip": "ym2612"
    },
    {
      "channel": 0,
      "note": 80,
      "start": 165.608,
      "duration": 0.0011,
      "velocity": 93,
      "chip": "ym2612"
    },
    {
      "channel": 2,
      "note": 85,
      "start": 165.608,
      "duration": 0.0569,
      "velocity": 127,
      "chip": "ym2612"
    },
    {
      "channel": 4,
      "note": 61,
      "start": 165.6082,
      "duration": 0.0569,
      "velocity": 93,
      "chip": "ym2612"
    },
    {
      "channel": 0,
      "note": 81,
      "start": 165.6092,
      "duration": 0.0557,
      "velocity": 93,
      "chip": "ym2612"
    },
    {
      "channel": 0,
      "note": 80,
      "start": 165.665,
      "duration": 0.0798,
      "velocity": 93,
      "chip": "ym2612"
    },
    {
      "channel": 2,
      "note": 83,
      "start": 165.665,
      "duration": 0.5568,
      "velocity": 127,
      "chip": "ym2612"
    },
    {
      "channel": 4,
      "note": 59,
      "start": 165.6651,
      "duration": 0.5568,
      "velocity": 93,
      "chip": "ym2612"
    },
    {
      "channel": 0,
      "note": 76,
      "start": 165.7448,
      "duration": 0.08,
      "velocity": 93,
      "chip": "ym2612"
    },
    {
      "channel": 0,
      "note": 73,
      "start": 165.8248,
      "duration": 0.08,
      "velocity": 93,
      "chip": "ym2612"
    },
    {
      "channel": 0,
      "note": 69,
      "start": 165.9048,
      "duration": 0.1,
      "velocity": 93,
      "chip": "ym2612"
    },
    {
      "channel": 0,
      "note": 68,
      "start": 166.0048,
      "duration": 0.0799,
      "velocity": 93,
      "chip": "ym2612"
    },
    {
      "channel": 0,
      "note": 69,
      "start": 166.0848,
      "duration": 0.08,
      "velocity": 93,
      "chip": "ym2612"
    },
    {
      "channel": 0,
      "note": 73,
      "start": 166.1648,
      "duration": 0.001,
      "velocity": 93,
      "chip": "ym2612"
    },
    {
      "channel": 0,
      "note": 76,
      "start": 166.1658,
      "duration": 0.056,
      "velocity": 93,
      "chip": "ym2612"
    },
    {
      "channel": 0,
      "note": 80,
      "start": 166.2219,
      "duration": 0.0012,
      "velocity": 93,
      "chip": "ym2612"
    },
    {
      "channel": 2,
      "note": 81,
      "start": 166.222,
      "duration": 0.1688,
      "velocity": 127,
      "chip": "ym2612"
    },
    {
      "channel": 4,
      "note": 57,
      "start": 166.2221,
      "duration": 0.1688,
      "velocity": 93,
      "chip": "ym2612"
    },
    {
      "channel": 0,
      "note": 81,
      "start": 166.2232,
      "duration": 0.0008,
      "velocity": 93,
      "chip": "ym2612"
    },
    {
      "channel": 0,
      "note": 80,
      "start": 166.2241,
      "duration": 0.0665,
      "velocity": 93,
      "chip": "ym2612"
    },
    {
      "channel": 0,
      "note": 76,
      "start": 166.2906,
      "duration": 0.1001,
      "velocity": 93,
      "chip": "ym2612"
    },
    {
      "channel": 0,
      "note": 73,
      "start": 166.3908,
      "duration": 0.0798,
      "velocity": 93,
      "chip": "ym2612"
    },
    {
      "channel": 2,
      "note": 80,
      "start": 166.3909,
      "duration": 0.34,
      "velocity": 127,
      "chip": "ym2612"
    },
    {
      "channel": 4,
      "note": 56,
      "start": 166.391,
      "duration": 0.3401,
      "velocity": 93,
      "chip": "ym2612"
    },
    {
      "channel": 0,
      "note": 69,
      "start": 166.4706,
      "duration": 0.0801,
      "velocity": 93,
      "chip": "ym2612"
    },
    {
      "channel": 0,
      "note": 68,
      "start": 166.5507,
      "duration": 0.0799,
      "velocity": 93,
      "chip": "ym2612"
    },
    {
      "channel": 3,
      "note": 47,
      "start": 166.5508,
      "duration": 0.1801,
      "velocity": 95,
      "chip": "ym2612"
    },
    {
      "channel": 0,
      "note": 69,
      "start": 166.6307,
      "duration": 0.1001,
      "velocity": 93,
      "chip": "ym2612"
    },
    {
      "channel": 0,
      "note": 71,
      "start": 166.7309,
      "duration": 0.0011,
      "velocity": 93,
      "chip": "ym2612"
    },
    {
      "channel": 2,
      "note": 79,
      "start": 166.7309,
      "duration": 0.5569,
      "velocity": 127,
      "chip": "ym2612"
    },
    {
      "channel": 3,
      "note": 48,
      "start": 166.731,
      "duration": 1.8766,
      "velocity": 95,
      "chip": "ym2612"
    },
    {
      "channel": 4,
      "note": 55,
      "start": 166.7311,
      "duration": 0.5568,
      "velocity": 93,
      "chip": "ym2612"
    },
    {
      "channel": 0,
      "note": 72,
      "start": 166.732,
      "duration": 0.0356,
      "velocity": 93,
      "chip": "ym2612"
    },
    {
      "channel": 0,
      "note": 76,
      "start": 166.7676,
      "duration": 0.08,
      "velocity": 93,
      "chip": "ym2612"
    },
    {
      "channel": 0,
      "note": 79,
      "start": 166.8476,
      "duration": 0.1,
      "velocity": 93,
      "chip": "ym2612"
    },
    {
      "channel": 0,
      "note": 83,
      "start": 166.9476,
      "duration": 0.0799,
      "velocity": 93,
      "chip": "ym2612"
    },
    {
      "channel": 0,
      "note": 84,
      "start": 167.0276,
      "duration": 0.08,
      "velocity": 93,
      "chip": "ym2612"
    },
    {
      "channel": 0,
      "note": 83,
      "start": 167.1076,
      "duration": 0.08,
      "velocity": 93,
      "chip": "ym2612"
    },
    {
      "channel": 0,
      "note": 79,
      "start": 167.1876,
      "duration": 0.1001,
      "velocity": 93,
      "chip": "ym2612"
    },
    {
      "channel": 0,
      "note": 76,
      "start": 167.2878,
      "duration": 0.0012,
      "velocity": 93,
      "chip": "ym2612"
    },
    {
      "channel": 2,
      "note": 86,
      "start": 167.2879,
      "duration": 0.0012,
      "velocity": 127,
      "chip": "ym2612"
    },
    {
      "channel": 4,
      "note": 62,
      "start": 167.288,
      "duration": 0.0012,
      "velocity": 93,
      "chip": "ym2612"
    },
    {
      "channel": 0,
      "note": 72,
      "start": 167.2891,
      "duration": 0.0356,
      "velocity": 93,
      "chip": "ym2612"
    },
    {
      "channel": 2,
      "note": 88,
      "start": 167.2892,
      "duration": 0.4126,
      "velocity": 127,
      "chip": "ym2612"
    },
    {
      "channel": 4,
      "note": 64,
      "start": 167.2893,
      "duration": 0.4126,
      "velocity": 93,
      "chip": "ym2612"
    },
    {
      "channel": 0,
      "note": 71,
      "start": 167.3247,
      "duration": 0.08,
      "velocity": 93,
      "chip": "ym2612"
    },
    {
      "channel": 0,
      "note": 72,
      "start": 167.4047,
      "duration": 0.1,
      "velocity": 93,
      "chip": "ym2612"
    },
    {
      "channel": 0,
      "note": 76,
      "start": 167.5047,
      "duration": 0.08,
      "velocity": 93,
      "chip": "ym2612"
    },
    {
      "channel": 0,
      "note": 79,
      "start": 167.5847,
      "duration": 0.0801,
      "velocity": 93,
      "chip": "ym2612"
    },
    {
      "channel": 0,
      "note": 83,
      "start": 167.6649,
      "duration": 0.001,
      "velocity": 93,
      "chip": "ym2612"
    },
    {
      "channel": 0,
      "note": 84,
      "start": 167.6658,
      "duration": 0.0359,
      "velocity": 93,
      "chip": "ym2612"
    },
    {
      "channel": 0,
      "note": 83,
      "start": 167.7018,
      "duration": 0.0999,
      "velocity": 93,
      "chip": "ym2612"
    },
    {
      "channel": 2,
      "note": 86,
      "start": 167.7018,
      "duration": 0.5571,
      "velocity": 127,
      "chip": "ym2612"
    },
    {
      "channel": 4,
      "note": 62,
      "start": 167.702,
      "duration": 0.5571,
      "velocity": 93,
      "chip": "ym2612"
    },
    {
      "channel": 0,
      "note": 79,
      "start": 167.8017,
      "duration": 0.0799,
      "velocity": 93,
      "chip": "ym2612"
    },
    {
      "channel": 0,
      "note": 76,
      "start": 167.8816,
      "duration": 0.08,
      "velocity": 93,
      "chip": "ym2612"
    },
    {
      "channel": 0,
      "note": 72,
      "start": 167.9616,
      "duration": 0.08,
      "velocity": 93,
      "chip": "ym2612"
    },
    {
      "channel": 0,
      "note": 71,
      "start": 168.0416,
      "duration": 0.1,
      "velocity": 93,
      "chip": "ym2612"
    },
    {
      "channel": 0,
      "note": 72,
      "start": 168.1416,
      "duration": 0.0801,
      "velocity": 93,
      "chip": "ym2612"
    },
    {
      "channel": 0,
      "note": 76,
      "start": 168.2217,
      "duration": 0.001,
      "velocity": 93,
      "chip": "ym2612"
    },
    {
      "channel": 0,
      "note": 79,
      "start": 168.2227,
      "duration": 0.0361,
      "velocity": 93,
      "chip": "ym2612"
    },
    {
      "channel": 0,
      "note": 83,
      "start": 168.2589,
      "duration": 0.0012,
      "velocity": 93,
      "chip": "ym2612"
    },
    {
      "channel": 2,
      "note": 84,
      "start": 168.259,
      "duration": 0.5086,
      "velocity": 127,
      "chip": "ym2612"
    },
    {
      "channel": 4,
      "note": 60,
      "start": 168.2591,
      "duration": 0.5087,
      "velocity": 93,
      "chip": "ym2612"
    },
    {
      "channel": 0,
      "note": 84,
      "start": 168.2601,
      "duration": 0.0072,
      "velocity": 93,
      "chip": "ym2612"
    },
    {
      "channel": 0,
      "note": 83,
      "start": 168.2673,
      "duration": 0.08,
      "velocity": 93,
      "chip": "ym2612"
    },
    {
      "channel": 0,
      "note": 79,
      "start": 168.3474,
      "duration": 0.0799,
      "velocity": 93,
      "chip": "ym2612"
    },
    {
      "channel": 0,
      "note": 76,
      "start": 168.4273,
      "duration": 0.1,
      "velocity": 93,
      "chip": "ym2612"
    },
    {
      "channel": 0,
      "note": 72,
      "start": 168.5273,
      "duration": 0.0801,
      "velocity": 93,
      "chip": "ym2612"
    },
    {
      "channel": 0,
      "note": 71,
      "start": 168.6075,
      "duration": 0.0799,
      "velocity": 93,
      "chip": "ym2612"
    },
    {
      "channel": 3,
      "note": 50,
      "start": 168.6076,
      "duration": 0.16,
      "velocity": 95,
      "chip": "ym2612"
    },
    {
      "channel": 0,
      "note": 72,
      "start": 168.6873,
      "duration": 0.0802,
      "velocity": 93,
      "chip": "ym2612"
    },
    {
      "channel": 0,
      "note": 74,
      "start": 168.7676,
      "duration": 0.0015,
      "velocity": 93,
      "chip": "ym2612"
    },
    {
      "channel": 2,
      "note": 82,
      "start": 168.7677,
      "duration": 0.5367,
      "velocity": 127,
      "chip": "ym2612"
    },
    {
      "channel": 3,
      "note": 51,
      "start": 168.7677,
      "duration": 1.8968,
      "velocity": 95,
      "chip": "ym2612"
    },
    {
      "channel": 4,
      "note": 58,
      "start": 168.7679,
      "duration": 0.5365,
      "velocity": 93,
      "chip": "ym2612"
    },
    {
      "channel": 0,
      "note": 75,
      "start": 168.7691,
      "duration": 0.0553,
      "velocity": 93,
      "chip": "ym2612"
    },
    {
      "channel": 0,
      "note": 79,
      "start": 168.8244,
      "duration": 0.08,
      "velocity": 93,
      "chip": "ym2612"
    },
    {
      "channel": 0,
      "note": 82,
      "start": 168.9045,
      "duration": 0.0799,
      "velocity": 93,
      "chip": "ym2612"
    },
    {
      "channel": 0,
      "note": 86,
      "start": 168.9844,
      "duration": 0.1,
      "velocity": 93,
      "chip": "ym2612"
    },
    {
      "channel": 0,
      "note": 87,
      "start": 169.0844,
      "duration": 0.08,
      "velocity": 93,
      "chip": "ym2612"
    },
    {
      "channel": 0,
      "note": 86,
      "start": 169.1644,
      "duration": 0.08,
      "velocity": 93,
      "chip": "ym2612"
    },
    {
      "channel": 0,
      "note": 82,
      "start": 169.2444,
      "duration": 0.0802,
      "velocity": 93,
      "chip": "ym2612"
    },
    {
      "channel": 0,
      "note": 79,
      "start": 169.3247,
      "duration": 0.0014,
      "velocity": 93,
      "chip": "ym2612"
    },
    {
      "channel": 2,
      "note": 89,
      "start": 169.3247,
      "duration": 0.0014,
      "velocity": 127,
      "chip": "ym2612"
    },
    {
      "channel": 4,
      "note": 65,
      "start": 169.3249,
      "duration": 0.0014,
      "velocity": 93,
      "chip": "ym2612"
    },
    {
      "channel": 0,
      "note": 75,
      "start": 169.3261,
      "duration": 0.0554,
      "velocity": 93,
      "chip": "ym2612"
    },
    {
      "channel": 2,
      "note": 91,
      "start": 169.3262,
      "duration": 0.4325,
      "velocity": 127,
      "chip": "ym2612"
    },
    {
      "channel": 4,
      "note": 67,
      "start": 169.3263,
      "duration": 0.4325,
      "velocity": 93,
      "chip": "ym2612"
    },
    {
      "channel": 0,
      "note": 74,
      "start": 169.3815,
      "duration": 0.08,
      "velocity": 93,
      "chip": "ym2612"
    },
    {
      "channel": 0,
      "note": 75,
      "start": 169.4615,
      "duration": 0.08,
      "velocity": 93,
      "chip": "ym2612"
    },
    {
      "channel": 0,
      "note": 79,
      "start": 169.5415,
      "duration": 0.1,
      "velocity": 93,
      "chip": "ym2612"
    },
    {
      "channel": 0,
      "note": 82,
      "start": 169.6416,
      "duration": 0.08,
      "velocity": 93,
      "chip": "ym2612"
    },
    {
      "channel": 0,
      "note": 86,
      "start": 169.7216,
      "duration": 0.0011,
      "velocity": 93,
      "chip": "ym2612"
    },
    {
      "channel": 0,
      "note": 87,
      "start": 169.7227,
      "duration": 0.0359,
      "velocity": 93,
      "chip": "ym2612"
    },
    {
      "channel": 0,
      "note": 86,
      "start": 169.7587,
      "duration": 0.0999,
      "velocity": 93,
      "chip": "ym2612"
    },
    {
      "channel": 2,
      "note": 89,
      "start": 169.7588,
      "duration": 0.557,
      "velocity": 127,
      "chip": "ym2612"
    },
    {
      "channel": 4,
      "note": 65,
      "start": 169.7589,
      "duration": 0.5569,
      "velocity": 93,
      "chip": "ym2612"
    },
    {
      "channel": 0,
      "note": 82,
      "start": 169.8585,
      "duration": 0.08,
      "velocity": 93,
      "chip": "ym2612"
    },
    {
      "channel": 0,
      "note": 79,
      "start": 169.9386,
      "duration": 0.0799,
      "velocity": 93,
      "chip": "ym2612"
    },
    {
      "channel": 0,
      "note": 75,
      "start": 170.0185,
      "duration": 0.08,
      "velocity": 93,
      "chip": "ym2612"
    },
    {
      "channel": 0,
      "note": 74,
      "start": 170.0985,
      "duration": 0.08,
      "velocity": 93,
      "chip": "ym2612"
    },
    {
      "channel": 0,
      "note": 75,
      "start": 170.1785,
      "duration": 0.1001,
      "velocity": 93,
      "chip": "ym2612"
    },
    {
      "channel": 0,
      "note": 79,
      "start": 170.2786,
      "duration": 0.001,
      "velocity": 93,
      "chip": "ym2612"
    },
    {
      "channel": 0,
      "note": 82,
      "start": 170.2797,
      "duration": 0.036,
      "velocity": 93,
      "chip": "ym2612"
    },
    {
      "channel": 0,
      "note": 86,
      "start": 170.3157,
      "duration": 0.0012,
      "velocity": 93,
      "chip": "ym2612"
    },
    {
      "channel": 2,
      "note": 87,
      "start": 170.3158,
      "duration": 0.509,
      "velocity": 127,
      "chip": "ym2612"
    },
    {
      "channel": 4,
      "note": 63,
      "start": 170.3159,
      "duration": 0.509,
      "velocity": 93,
      "chip": "ym2612"
    },
    {
      "channel": 0,
      "note": 87,
      "start": 170.3169,
      "duration": 0.0074,
      "velocity": 93,
      "chip": "ym2612"
    },
    {
      "channel": 0,
      "note": 86,
      "start": 170.3244,
      "duration": 0.08,
      "velocity": 93,
      "chip": "ym2612"
    },
    {
      "channel": 0,
      "note": 82,
      "start": 170.4044,
      "duration": 0.08,
      "velocity": 93,
      "chip": "ym2612"
    },
    {
      "channel": 0,
      "note": 79,
      "start": 170.4844,
      "duration": 0.0799,
      "velocity": 93,
      "chip": "ym2612"
    },
    {
      "channel": 0,
      "note": 75,
      "start": 170.5644,
      "duration": 0.1001,
      "velocity": 93,
      "chip": "ym2612"
    },
    {
      "channel": 0,
      "note": 74,
      "start": 170.6644,
      "duration": 0.08,
      "velocity": 93,
      "chip": "ym2612"
    },
    {
      "channel": 3,
      "note": 53,
      "start": 170.6646,
      "duration": 0.0799,
      "velocity": 95,
      "chip": "ym2612"
    },
    {
      "channel": 0,
      "note": 75,
      "start": 170.7444,
      "duration": 0.0802,
      "velocity": 93,
      "chip": "ym2612"
    },
    {
      "channel": 3,
      "note": 55,
      "start": 170.7446,
      "duration": 0.0802,
      "velocity": 95,
      "chip": "ym2612"
    },
    {
      "channel": 0,
      "note": 79,
      "start": 170.8247,
      "duration": 0.0012,
      "velocity": 93,
      "chip": "ym2612"
    },
    {
      "channel": 2,
      "note": 84,
      "start": 170.8248,
      "duration": 0.5568,
      "velocity": 127,
      "chip": "ym2612"
    },
    {
      "channel": 3,
      "note": 56,
      "start": 170.8249,
      "duration": 2.0362,
      "velocity": 95,
      "chip": "ym2612"
    },
    {
      "channel": 4,
      "note": 60,
      "start": 170.8249,
      "duration": 0.5567,
      "velocity": 93,
      "chip": "ym2612"
    },
    {
      "channel": 0,
      "note": 80,
      "start": 170.826,
      "duration": 0.0554,
      "velocity": 93,
      "chip": "ym2612"
    },
    {
      "channel": 0,
      "note": 84,
      "start": 170.8814,
      "duration": 0.0799,
      "velocity": 93,
      "chip": "ym2612"
    },
    {
      "channel": 0,
      "note": 87,
      "start": 170.9614,
      "duration": 0.08,
      "velocity": 93,
      "chip": "ym2612"
    },
    {
      "channel": 0,
      "note": 91,
      "start": 171.0414,
      "duration": 0.08,
      "velocity": 93,
      "chip": "ym2612"
    },
    {
      "channel": 0,
      "note": 92,
      "start": 171.1214,
      "duration": 0.1,
      "velocity": 93,
      "chip": "ym2612"
    },
    {
      "channel": 0,
      "note": 91,
      "start": 171.2214,
      "duration": 0.08,
      "velocity": 93,
      "chip": "ym2612"
    },
    {
      "channel": 0,
      "note": 87,
      "start": 171.3014,
      "duration": 0.0801,
      "velocity": 93,
      "chip": "ym2612"
    },
    {
      "channel": 0,
      "note": 84,
      "start": 171.3816,
      "duration": 0.0011,
      "velocity": 93,
      "chip": "ym2612"
    },
    {
      "channel": 2,
      "note": 91,
      "start": 171.3816,
      "duration": 0.0011,
      "velocity": 127,
      "chip": "ym2612"
    },
    {
      "channel": 4,
      "note": 67,
      "start": 171.3817,
      "duration": 0.0011,
      "velocity": 93,
      "chip": "ym2612"
    },
    {
      "channel": 0,
      "note": 80,
      "start": 171.3827,
      "duration": 0.0556,
      "velocity": 93,
      "chip": "ym2612"
    },
    {
      "channel": 2,
      "note": 92,
      "start": 171.3828,
      "duration": 0.4326,
      "velocity": 127,
      "chip": "ym2612"
    },
    {
      "channel": 4,
      "note": 68,
      "start": 171.3829,
      "duration": 0.4327,
      "velocity": 93,
      "chip": "ym2612"
    },
    {
      "channel": 0,
      "note": 79,
      "start": 171.4383,
      "duration": 0.08,
      "velocity": 93,
      "chip": "ym2612"
    },
    {
      "channel": 0,
      "note": 80,
      "start": 171.5183,
      "duration": 0.0801,
      "velocity": 93,
      "chip": "ym2612"
    },
    {
      "channel": 0,
      "note": 84,
      "start": 171.5984,
      "duration": 0.0799,
      "velocity": 93,
      "chip": "ym2612"
    },
    {
      "channel": 0,
      "note": 87,
      "start": 171.6783,
      "duration": 0.1001,
      "velocity": 93,
      "chip": "ym2612"
    },
    {
      "channel": 0,
      "note": 91,
      "start": 171.7784,
      "duration": 0.001,
      "velocity": 93,
      "chip": "ym2612"
    },
    {
      "channel": 0,
      "note": 92,
      "start": 171.7794,
      "duration": 0.0359,
      "velocity": 93,
      "chip": "ym2612"
    },
    {
      "channel": 0,
      "note": 91,
      "start": 171.8154,
      "duration": 0.0799,
      "velocity": 93,
      "chip": "ym2612"
    },
    {
      "channel": 2,
      "note": 91,
      "start": 171.8155,
      "duration": 0.5571,
      "velocity": 127,
      "chip": "ym2612"
    },
    {
      "channel": 4,
      "note": 67,
      "start": 171.8156,
      "duration": 0.557,
      "velocity": 93,
      "chip": "ym2612"
    },
    {
      "channel": 0,
      "note": 87,
      "start": 171.8953,
      "duration": 0.1,
      "velocity": 93,
      "chip": "ym2612"
    },
    {
      "channel": 0,
      "note": 84,
      "start": 171.9953,
      "duration": 0.08,
      "velocity": 93,
      "chip": "ym2612"
    },
    {
      "channel": 0,
      "note": 80,
      "start": 172.0753,
      "duration": 0.0799,
      "velocity": 93,
      "chip": "ym2612"
    },
    {
      "channel": 0,
      "note": 79,
      "start": 172.1553,
      "duration": 0.08,
      "velocity": 93,
      "chip": "ym2612"
    },
    {
      "channel": 0,
      "note": 80,
      "start": 172.2353,
      "duration": 0.1001,
      "velocity": 93,
      "chip": "ym2612"
    },
    {
      "channel": 0,
      "note": 84,
      "start": 172.3354,
      "duration": 0.0011,
      "velocity": 93,
      "chip": "ym2612"
    },
    {
      "channel": 0,
      "note": 87,
      "start": 172.3365,
      "duration": 0.036,
      "velocity": 93,
      "chip": "ym2612"
    },
    {
      "channel": 0,
      "note": 91,
      "start": 172.3725,
      "duration": 0.0012,
      "velocity": 93,
      "chip": "ym2612"
    },
    {
      "channel": 2,
      "note": 89,
      "start": 172.3725,
      "duration": 0.509,
      "velocity": 127,
      "chip": "ym2612"
    },
    {
      "channel": 4,
      "note": 65,
      "start": 172.3727,
      "duration": 0.5089,
      "velocity": 93,
      "chip": "ym2612"
    },
    {
      "channel": 0,
      "note": 92,
      "start": 172.3736,
      "duration": 0.0009,
      "velocity": 93,
      "chip": "ym2612"
    },
    {
      "channel": 0,
      "note": 91,
      "start": 172.3746,
      "duration": 0.0865,
      "velocity": 93,
      "chip": "ym2612"
    },
    {
      "channel": 0,
      "note": 87,
      "start": 172.4612,
      "duration": 0.0799,
      "velocity": 93,
      "chip": "ym2612"
    },
    {
      "channel": 0,
      "note": 84,
      "start": 172.5411,
      "duration": 0.08,
      "velocity": 93,
      "chip": "ym2612"
    },
    {
      "channel": 0,
      "note": 80,
      "start": 172.6212,
      "duration": 0.0799,
      "velocity": 93,
      "chip": "ym2612"
    },
    {
      "channel": 0,
      "note": 79,
      "start": 172.7011,
      "duration": 0.1,
      "velocity": 93,
      "chip": "ym2612"
    },
    {
      "channel": 0,
      "note": 80,
      "start": 172.8011,
      "duration": 0.0803,
      "velocity": 93,
      "chip": "ym2612"
    },
    {
      "channel": 0,
      "note": 71,
      "start": 172.8814,
      "duration": 0.0011,
      "velocity": 93,
      "chip": "ym2612"
    },
    {
      "channel": 1,
      "note": 45,
      "start": 172.8815,
      "duration": 0.0367,
      "velocity": 99,
      "chip": "ym2612"
    },
    {
      "channel": 2,
      "note": 88,
      "start": 172.8816,
      "duration": 2.0568,
      "velocity": 127,
      "chip": "ym2612"
    },
    {
      "channel": 4,
      "note": 64,
      "start": 172.8816,
      "duration": 2.0568,
      "velocity": 93,
      "chip": "ym2612"
    },
    {
      "channel": 0,
      "note": 72,
      "start": 172.8826,
      "duration": 0.0356,
      "velocity": 93,
      "chip": "ym2612"
    },
    {
      "channel": 0,
      "note": 76,
      "start": 172.9182,
      "duration": 0.0999,
      "velocity": 93,
      "chip": "ym2612"
    },
    {
      "channel": 1,
      "note": 52,
      "start": 172.9183,
      "duration": 0.1799,
      "velocity": 99,
      "chip": "ym2612"
    },
    {
      "channel": 0,
      "note": 79,
      "start": 173.0181,
      "duration": 0.0801,
      "velocity": 93,
      "chip": "ym2612"
    },
    {
      "channel": 0,
      "note": 83,
      "start": 173.0982,
      "duration": 0.0799,
      "velocity": 93,
      "chip": "ym2612"
    },
    {
      "channel": 1,
      "note": 57,
      "start": 173.0983,
      "duration": 0.1599,
      "velocity": 99,
      "chip": "ym2612"
    },
    {
      "channel": 0,
      "note": 84,
      "start": 173.1781,
      "duration": 0.0801,
      "velocity": 93,
      "chip": "ym2612"
    },
    {
      "channel": 0,
      "note": 83,
      "start": 173.2582,
      "duration": 0.0999,
      "velocity": 93,
      "chip": "ym2612"
    },
    {
      "channel": 1,
      "note": 62,
      "start": 173.2582,
      "duration": 0.1801,
      "velocity": 99,
      "chip": "ym2612"
    },
    {
      "channel": 0,
      "note": 79,
      "start": 173.3582,
      "duration": 0.0801,
      "velocity": 93,
      "chip": "ym2612"
    },
    {
      "channel": 0,
      "note": 76,
      "start": 173.4382,
      "duration": 0.0012,
      "velocity": 93,
      "chip": "ym2612"
    },
    {
      "channel": 1,
      "note": 64,
      "start": 173.4383,
      "duration": 0.0371,
      "velocity": 99,
      "chip": "ym2612"
    },
    {
      "channel": 0,
      "note": 72,
      "start": 173.4395,
      "duration": 0.0359,
      "velocity": 93,
      "chip": "ym2612"
    },
    {
      "channel": 0,
      "note": 71,
      "start": 173.4754,
      "duration": 0.0999,
      "velocity": 93,
      "chip": "ym2612"
    },
    {
      "channel": 1,
      "note": 57,
      "start": 173.4755,
      "duration": 0.1799,
      "velocity": 99,
      "chip": "ym2612"
    },
    {
      "channel": 0,
      "note": 72,
      "start": 173.5753,
      "duration": 0.0801,
      "velocity": 93,
      "chip": "ym2612"
    },
    {
      "channel": 0,
      "note": 76,
      "start": 173.6553,
      "duration": 0.0799,
      "velocity": 93,
      "chip": "ym2612"
    },
    {
      "channel": 1,
      "note": 62,
      "start": 173.6554,
      "duration": 0.1601,
      "velocity": 99,
      "chip": "ym2612"
    },
    {
      "channel": 0,
      "note": 79,
      "start": 173.7353,
      "duration": 0.0801,
      "velocity": 93,
      "chip": "ym2612"
    },
    {
      "channel": 0,
      "note": 83,
      "start": 173.8155,
      "duration": 0.0013,
      "velocity": 93,
      "chip": "ym2612"
    },
    {
      "channel": 1,
      "note": 64,
      "start": 173.8155,
      "duration": 0.0568,
      "velocity": 99,
      "chip": "ym2612"
    },
    {
      "channel": 0,
      "note": 84,
      "start": 173.8167,
      "duration": 0.0556,
      "velocity": 93,
      "chip": "ym2612"
    },
    {
      "channel": 0,
      "note": 83,
      "start": 173.8724,
      "duration": 0.0799,
      "velocity": 93,
      "chip": "ym2612"
    },
    {
      "channel": 1,
      "note": 45,
      "start": 173.8724,
      "duration": 0.1599,
      "velocity": 99,
      "chip": "ym2612"
    },
    {
      "channel": 0,
      "note": 79,
      "start": 173.9523,
      "duration": 0.0799,
      "velocity": 93,
      "chip": "ym2612"
    },
    {
      "channel": 0,
      "note": 76,
      "start": 174.0323,
      "duration": 0.04,
      "velocity": 93,
      "chip": "ym2612"
    },
    {
      "channel": 1,
      "note": 52,
      "start": 174.0324,
      "duration": 0.18,
      "velocity": 99,
      "chip": "ym2612"
    },
    {
      "channel": 0,
      "note": 76,
      "start": 174.0723,
      "duration": 0.0599,
      "velocity": 93,
      "chip": "ym2612"
    },
    {
      "channel": 0,
      "note": 72,
      "start": 174.1322,
      "duration": 0.0399,
      "velocity": 93,
      "chip": "ym2612"
    },
    {
      "channel": 0,
      "note": 71,
      "start": 174.2124,
      "duration": 0.0799,
      "velocity": 93,
      "chip": "ym2612"
    },
    {
      "channel": 1,
      "note": 57,
      "start": 174.2124,
      "duration": 0.16,
      "velocity": 99,
      "chip": "ym2612"
    },
    {
      "channel": 0,
      "note": 72,
      "start": 174.2922,
      "duration": 0.0801,
      "velocity": 93,
      "chip": "ym2612"
    },
    {
      "channel": 0,
      "note": 76,
      "start": 174.3724,
      "duration": 0.0013,
      "velocity": 93,
      "chip": "ym2612"
    },
    {
      "channel": 1,
      "note": 62,
      "start": 174.3724,
      "duration": 0.057,
      "velocity": 99,
      "chip": "ym2612"
    },
    {
      "channel": 0,
      "note": 79,
      "start": 174.3737,
      "duration": 0.0557,
      "velocity": 93,
      "chip": "ym2612"
    },
    {
      "channel": 0,
      "note": 83,
      "start": 174.4295,
      "duration": 0.0011,
      "velocity": 93,
      "chip": "ym2612"
    },
    {
      "channel": 1,
      "note": 64,
      "start": 174.4295,
      "duration": 0.002,
      "velocity": 99,
      "chip": "ym2612"
    },
    {
      "channel": 0,
      "note": 84,
      "start": 174.4305,
      "duration": 0.001,
      "velocity": 93,
      "chip": "ym2612"
    },
    {
      "channel": 0,
      "note": 83,
      "start": 174.4316,
      "duration": 0.0866,
      "velocity": 93,
      "chip": "ym2612"
    },
    {
      "channel": 1,
      "note": 62,
      "start": 174.4316,
      "duration": 0.1666,
      "velocity": 99,
      "chip": "ym2612"
    },
    {
      "channel": 0,
      "note": 79,
      "start": 174.5182,
      "duration": 0.08,
      "velocity": 93,
      "chip": "ym2612"
    },
    {
      "channel": 0,
      "note": 76,
      "start": 174.5982,
      "duration": 0.0799,
      "velocity": 93,
      "chip": "ym2612"
    },
    {
      "channel": 1,
      "note": 57,
      "start": 174.5983,
      "duration": 0.16,
      "velocity": 99,
      "chip": "ym2612"
    },
    {
      "channel": 0,
      "note": 72,
      "start": 174.6781,
      "duration": 0.0801,
      "velocity": 93,
      "chip": "ym2612"
    },
    {
      "channel": 0,
      "note": 71,
      "start": 174.7583,
      "duration": 0.0799,
      "velocity": 93,
      "chip": "ym2612"
    },
    {
      "channel": 1,
      "note": 52,
      "start": 174.7583,
      "duration": 0.18,
      "velocity": 99,
      "chip": "ym2612"
    },
    {
      "channel": 0,
      "note": 72,
      "start": 174.8381,
      "duration": 0.1001,
      "velocity": 93,
      "chip": "ym2612"
    },
    {
      "channel": 0,
      "note": 73,
      "start": 174.9383,
      "duration": 0.0008,
      "velocity": 93,
      "chip": "ym2612"
    },
    {
      "channel": 1,
      "note": 45,
      "start": 174.9383,
      "duration": 0.0368,
      "velocity": 99,
      "chip": "ym2612"
    },
    {
      "channel": 0,
      "note": 74,
      "start": 174.9391,
      "duration": 0.0359,
      "velocity": 93,
      "chip": "ym2612"
    },
    {
      "channel": 0,
      "note": 78,
      "start": 174.9751,
      "duration": 0.0799,
      "velocity": 93,
      "chip": "ym2612"
    },
    {
      "channel": 1,
      "note": 52,
      "start": 174.9751,
      "duration": 0.1799,
      "velocity": 99,
      "chip": "ym2612"
    },
    {
      "channel": 0,
      "note": 81,
      "start": 175.055,
      "duration": 0.1,
      "velocity": 93,
      "chip": "ym2612"
    },
    {
      "channel": 0,
      "note": 85,
      "start": 175.1551,
      "duration": 0.0799,
      "velocity": 93,
      "chip": "ym2612"
    },
    {
      "channel": 1,
      "note": 57,
      "start": 175.1551,
      "duration": 0.16,
      "velocity": 99,
      "chip": "ym2612"
    },
    {
      "channel": 0,
      "note": 86,
      "start": 175.235,
      "duration": 0.0801,
      "velocity": 93,
      "chip": "ym2612"
    },
    {
      "channel": 0,
      "note": 85,
      "start": 175.3151,
      "duration": 0.0007,
      "velocity": 93,
      "chip": "ym2612"
    },
    {
      "channel": 1,
      "note": 62,
      "start": 175.3152,
      "duration": 0.0568,
      "velocity": 99,
      "chip": "ym2612"
    },
    {
      "channel": 0,
      "note": 81,
      "start": 175.3159,
      "duration": 0.0561,
      "velocity": 93,
      "chip": "ym2612"
    },
    {
      "channel": 0,
      "note": 78,
      "start": 175.372,
      "duration": 0.0799,
      "velocity": 93,
      "chip": "ym2612"
    },
    {
      "channel": 1,
      "note": 64,
      "start": 175.372,
      "duration": 0.1599,
      "velocity": 99,
      "chip": "ym2612"
    },
    {
      "channel": 0,
      "note": 74,
      "start": 175.4519,
      "duration": 0.08,
      "velocity": 93,
      "chip": "ym2612"
    },
    {
      "channel": 0,
      "note": 73,
      "start": 175.532,
      "duration": 0.0799,
      "velocity": 93,
      "chip": "ym2612"
    },
    {
      "channel": 1,
      "note": 57,
      "start": 175.532,
      "duration": 0.1799,
      "velocity": 99,
      "chip": "ym2612"
    },
    {
      "channel": 0,
      "note": 74,
      "start": 175.6119,
      "duration": 0.1,
      "velocity": 93,
      "chip": "ym2612"
    },
    {
      "channel": 0,
      "note": 78,
      "start": 175.7119,
      "duration": 0.08,
      "velocity": 93,
      "chip": "ym2612"
    },
    {
      "channel": 1,
      "note": 62,
      "start": 175.712,
      "duration": 0.1601,
      "velocity": 99,
      "chip": "ym2612"
    },
    {
      "channel": 0,
      "note": 81,
      "start": 175.7919,
      "duration": 0.0801,
      "velocity": 93,
      "chip": "ym2612"
    },
    {
      "channel": 0,
      "note": 85,
      "start": 175.872,
      "duration": 0.0008,
      "velocity": 93,
      "chip": "ym2612"
    },
    {
      "channel": 1,
      "note": 64,
      "start": 175.872,
      "duration": 0.0569,
      "velocity": 99,
      "chip": "ym2612"
    },
    {
      "channel": 0,
      "note": 86,
      "start": 175.8728,
      "duration": 0.0561,
      "velocity": 93,
      "chip": "ym2612"
    },
    {
      "channel": 0,
      "note": 85,
      "start": 175.9289,
      "duration": 0.0799,
      "velocity": 93,
      "chip": "ym2612"
    },
    {
      "channel": 1,
      "note": 45,
      "start": 175.9289,
      "duration": 0.1599,
      "velocity": 99,
      "chip": "ym2612"
    },
    {
      "channel": 0,
      "note": 81,
      "start": 176.0088,
      "duration": 0.08,
      "velocity": 93,
      "chip": "ym2612"
    },
    {
      "channel": 0,
      "note": 78,
      "start": 176.0889,
      "duration": 0.0399,
      "velocity": 93,
      "chip": "ym2612"
    },
    {
      "channel": 1,
      "note": 52,
      "start": 176.0889,
      "duration": 0.1799,
      "velocity": 99,
      "chip": "ym2612"
    },
    {
      "channel": 0,
      "note": 78,
      "start": 176.1288,
      "duration": 0.04,
      "velocity": 93,
      "chip": "ym2612"
    },
    {
      "channel": 0,
      "note": 74,
      "start": 176.1688,
      "duration": 0.0599,
      "velocity": 93,
      "chip": "ym2612"
    },
    {
      "channel": 0,
      "note": 73,
      "start": 176.2689,
      "duration": 0.0799,
      "velocity": 93,
      "chip": "ym2612"
    },
    {
      "channel": 1,
      "note": 57,
      "start": 176.2689,
      "duration": 0.16,
      "velocity": 99,
      "chip": "ym2612"
    },
    {
      "channel": 0,
      "note": 74,
      "start": 176.3488,
      "duration": 0.0801,
      "velocity": 93,
      "chip": "ym2612"
    },
    {
      "channel": 0,
      "note": 78,
      "start": 176.4289,
      "duration": 0.0008,
      "velocity": 93,
      "chip": "ym2612"
    },
    {
      "channel": 1,
      "note": 62,
      "start": 176.4289,
      "duration": 0.0569,
      "velocity": 99,
      "chip": "ym2612"
    },
    {
      "channel": 0,
      "note": 81,
      "start": 176.4297,
      "duration": 0.0561,
      "velocity": 93,
      "chip": "ym2612"
    },
    {
      "channel": 0,
      "note": 85,
      "start": 176.4858,
      "duration": 0.0007,
      "velocity": 93,
      "chip": "ym2612"
    },
    {
      "channel": 1,
      "note": 64,
      "start": 176.4859,
      "duration": 0.0013,
      "velocity": 99,
      "chip": "ym2612"
    },
    {
      "channel": 0,
      "note": 86,
      "start": 176.4866,
      "duration": 0.0005,
      "velocity": 93,
      "chip": "ym2612"
    },
    {
      "channel": 0,
      "note": 85,
      "start": 176.4871,
      "duration": 0.0672,
      "velocity": 93,
      "chip": "ym2612"
    },
    {
      "channel": 1,
      "note": 62,
      "start": 176.4872,
      "duration": 0.1673,
      "velocity": 99,
      "chip": "ym2612"
    },
    {
      "channel": 0,
      "note": 81,
      "start": 176.5544,
      "duration": 0.1,
      "velocity": 93,
      "chip": "ym2612"
    },
    {
      "channel": 0,
      "note": 78,
      "start": 176.6545,
      "duration": 0.0799,
      "velocity": 93,
      "chip": "ym2612"
    },
    {
      "channel": 1,
      "note": 57,
      "start": 176.6546,
      "duration": 0.1599,
      "velocity": 99,
      "chip": "ym2612"
    },
    {
      "channel": 0,
      "note": 74,
      "start": 176.7344,
      "duration": 0.08,
      "velocity": 93,
      "chip": "ym2612"
    },
    {
      "channel": 0,
      "note": 73,
      "start": 176.8145,
      "duration": 0.0799,
      "velocity": 93,
      "chip": "ym2612"
    },
    {
      "channel": 1,
      "note": 52,
      "start": 176.8146,
      "duration": 0.16,
      "velocity": 99,
      "chip": "ym2612"
    },
    {
      "channel": 0,
      "note": 74,
      "start": 176.8944,
      "duration": 0.0801,
      "velocity": 93,
      "chip": "ym2612"
    },
    {
      "channel": 0,
      "note": 71,
      "start": 176.9745,
      "duration": 0.0009,
      "velocity": 93,
      "chip": "ym2612"
    },
    {
      "channel": 1,
      "note": 45,
      "start": 176.9746,
      "duration": 0.0569,
      "velocity": 99,
      "chip": "ym2612"
    },
    {
      "channel": 0,
      "note": 72,
      "start": 176.9754,
      "duration": 0.056,
      "velocity": 93,
      "chip": "ym2612"
    },
    {
      "channel": 0,
      "note": 76,
      "start": 177.0315,
      "duration": 0.0798,
      "velocity": 93,
      "chip": "ym2612"
    },
    {
      "channel": 1,
      "note": 52,
      "start": 177.0315,
      "duration": 0.1599,
      "velocity": 99,
      "chip": "ym2612"
    },
    {
      "channel": 0,
      "note": 79,
      "start": 177.1113,
      "duration": 0.08,
      "velocity": 93,
      "chip": "ym2612"
    },
    {
      "channel": 0,
      "note": 83,
      "start": 177.1914,
      "duration": 0.0999,
      "velocity": 93,
      "chip": "ym2612"
    },
    {
      "channel": 1,
      "note": 57,
      "start": 177.1915,
      "duration": 0.18,
      "velocity": 99,
      "chip": "ym2612"
    },
    {
      "channel": 0,
      "note": 84,
      "start": 177.2913,
      "duration": 0.0801,
      "velocity": 93,
      "chip": "ym2612"
    },
    {
      "channel": 0,
      "note": 83,
      "start": 177.3714,
      "duration": 0.0008,
      "velocity": 93,
      "chip": "ym2612"
    },
    {
      "channel": 1,
      "note": 62,
      "start": 177.3715,
      "duration": 0.0368,
      "velocity": 99,
      "chip": "ym2612"
    },
    {
      "channel": 0,
      "note": 79,
      "start": 177.3722,
      "duration": 0.036,
      "velocity": 93,
      "chip": "ym2612"
    },
    {
      "channel": 0,
      "note": 76,
      "start": 177.4083,
      "duration": 0.0999,
      "velocity": 93,
      "chip": "ym2612"
    },
    {
      "channel": 1,
      "note": 64,
      "start": 177.4084,
      "duration": 0.1799,
      "velocity": 99,
      "chip": "ym2612"
    },
    {
      "channel": 0,
      "note": 72,
      "start": 177.5083,
      "duration": 0.08,
      "velocity": 93,
      "chip": "ym2612"
    },
    {
      "channel": 0,
      "note": 71,
      "start": 177.5883,
      "duration": 0.08,
      "velocity": 93,
      "chip": "ym2612"
    },
    {
      "channel": 1,
      "note": 57,
      "start": 177.5883,
      "duration": 0.1599,
      "velocity": 99,
      "chip": "ym2612"
    },
    {
      "channel": 0,
      "note": 72,
      "start": 177.6682,
      "duration": 0.08,
      "velocity": 93,
      "chip": "ym2612"
    },
    {
      "channel": 0,
      "note": 76,
      "start": 177.7483,
      "duration": 0.1,
      "velocity": 93,
      "chip": "ym2612"
    },
    {
      "channel": 1,
      "note": 62,
      "start": 177.7483,
      "duration": 0.1801,
      "velocity": 99,
      "chip": "ym2612"
    },
    {
      "channel": 0,
      "note": 79,
      "start": 177.8482,
      "duration": 0.0801,
      "velocity": 93,
      "chip": "ym2612"
    },
    {
      "channel": 0,
      "note": 83,
      "start": 177.9284,
      "duration": 0.0006,
      "velocity": 93,
      "chip": "ym2612"
    },
    {
      "channel": 1,
      "note": 64,
      "start": 177.9285,
      "duration": 0.0367,
      "velocity": 99,
      "chip": "ym2612"
    },
    {
      "channel": 0,
      "note": 84,
      "start": 177.9291,
      "duration": 0.036,
      "velocity": 93,
      "chip": "ym2612"
    },
    {
      "channel": 0,
      "note": 83,
      "start": 177.9652,
      "duration": 0.0999,
      "velocity": 93,
      "chip": "ym2612"
    },
    {
      "channel": 1,
      "note": 45,
      "start": 177.9652,
      "duration": 0.1799,
      "velocity": 99,
      "chip": "ym2612"
    },
    {
      "channel": 0,
      "note": 79,
      "start": 178.0651,
      "duration": 0.08,
      "velocity": 93,
      "chip": "ym2612"
    },
    {
      "channel": 0,
      "note": 76,
      "start": 178.1451,
      "duration": 0.02,
      "velocity": 93,
      "chip": "ym2612"
    },
    {
      "channel": 1,
      "note": 52,
      "start": 178.1452,
      "duration": 0.16,
      "velocity": 99,
      "chip": "ym2612"
    },
    {
      "channel": 0,
      "note": 76,
      "start": 178.1651,
      "duration": 0.06,
      "velocity": 93,
      "chip": "ym2612"
    },
    {
      "channel": 0,
      "note": 72,
      "start": 178.2251,
      "duration": 0.0599,
      "velocity": 93,
      "chip": "ym2612"
    },
    {
      "channel": 0,
      "note": 71,
      "start": 178.3052,
      "duration": 0.0999,
      "velocity": 93,
      "chip": "ym2612"
    },
    {
      "channel": 1,
      "note": 57,
      "start": 178.3052,
      "duration": 0.1799,
      "velocity": 99,
      "chip": "ym2612"
    },
    {
      "channel": 0,
      "note": 72,
      "start": 178.4051,
      "duration": 0.08,
      "velocity": 93,
      "chip": "ym2612"
    },
    {
      "channel": 0,
      "note": 76,
      "start": 178.4852,
      "duration": 0.0007,
      "velocity": 93,
      "chip": "ym2612"
    },
    {
      "channel": 1,
      "note": 62,
      "start": 178.4852,
      "duration": 0.0368,
      "velocity": 99,
      "chip": "ym2612"
    },
    {
      "channel": 0,
      "note": 79,
      "start": 178.4859,
      "duration": 0.0361,
      "velocity": 93,
      "chip": "ym2612"
    },
    {
      "channel": 0,
      "note": 83,
      "start": 178.522,
      "duration": 0.0009,
      "velocity": 93,
      "chip": "ym2612"
    },
    {
      "channel": 1,
      "note": 64,
      "start": 178.5221,
      "duration": 0.0085,
      "velocity": 99,
      "chip": "ym2612"
    },
    {
      "channel": 0,
      "note": 84,
      "start": 178.5229,
      "duration": 0.0077,
      "velocity": 93,
      "chip": "ym2612"
    },
    {
      "channel": 0,
      "note": 83,
      "start": 178.5306,
      "duration": 0.0799,
      "velocity": 93,
      "chip": "ym2612"
    },
    {
      "channel": 1,
      "note": 62,
      "start": 178.5307,
      "duration": 0.1599,
      "velocity": 99,
      "chip": "ym2612"
    },
    {
      "channel": 0,
      "note": 79,
      "start": 178.6106,
      "duration": 0.08,
      "velocity": 93,
      "chip": "ym2612"
    },
    {
      "channel": 0,
      "note": 76,
      "start": 178.6906,
      "duration": 0.1,
      "velocity": 93,
      "chip": "ym2612"
    },
    {
      "channel": 1,
      "note": 57,
      "start": 178.6906,
      "duration": 0.18,
      "velocity": 99,
      "chip": "ym2612"
    },
    {
      "channel": 0,
      "note": 72,
      "start": 178.7905,
      "duration": 0.08,
      "velocity": 93,
      "chip": "ym2612"
    },
    {
      "channel": 0,
      "note": 71,
      "start": 178.8706,
      "duration": 0.0799,
      "velocity": 93,
      "chip": "ym2612"
    },
    {
      "channel": 1,
      "note": 52,
      "start": 178.8707,
      "duration": 0.1599,
      "velocity": 99,
      "chip": "ym2612"
    },
    {
      "channel": 0,
      "note": 72,
      "start": 178.9505,
      "duration": 0.08,
      "velocity": 93,
      "chip": "ym2612"
    },
    {
      "channel": 0,
      "note": 73,
      "start": 179.0306,
      "duration": 0.0008,
      "velocity": 93,
      "chip": "ym2612"
    },
    {
      "channel": 1,
      "note": 45,
      "start": 179.0307,
      "duration": 0.0568,
      "velocity": 99,
      "chip": "ym2612"
    },
    {
      "channel": 0,
      "note": 74,
      "start": 179.0315,
      "duration": 0.056,
      "velocity": 93,
      "chip": "ym2612"
    },
    {
      "channel": 0,
      "note": 78,
      "start": 179.0874,
      "duration": 0.08,
      "velocity": 93,
      "chip": "ym2612"
    },
    {
      "channel": 1,
      "note": 52,
      "start": 179.0876,
      "duration": 0.1599,
      "velocity": 99,
      "chip": "ym2612"
    },
    {
      "channel": 0,
      "note": 81,
      "start": 179.1674,
      "duration": 0.08,
      "velocity": 93,
      "chip": "ym2612"
    },
    {
      "channel": 0,
      "note": 85,
      "start": 179.2475,
      "duration": 0.0799,
      "velocity": 93,
      "chip": "ym2612"
    },
    {
      "channel": 1,
      "note": 57,
      "start": 179.2476,
      "duration": 0.1799,
      "velocity": 99,
      "chip": "ym2612"
    },
    {
      "channel": 0,
      "note": 86,
      "start": 179.3274,
      "duration": 0.1,
      "velocity": 93,
      "chip": "ym2612"
    },
    {
      "channel": 0,
      "note": 85,
      "start": 179.4275,
      "duration": 0.0007,
      "velocity": 93,
      "chip": "ym2612"
    },
    {
      "channel": 1,
      "note": 62,
      "start": 179.4276,
      "duration": 0.0367,
      "velocity": 99,
      "chip": "ym2612"
    },
    {
      "channel": 0,
      "note": 81,
      "start": 179.4282,
      "duration": 0.036,
      "velocity": 93,
      "chip": "ym2612"
    },
    {
      "channel": 0,
      "note": 78,
      "start": 179.4643,
      "duration": 0.0799,
      "velocity": 93,
      "chip": "ym2612"
    },
    {
      "channel": 1,
      "note": 64,
      "start": 179.4643,
      "duration": 0.1799,
      "velocity": 99,
      "chip": "ym2612"
    },
    {
      "channel": 0,
      "note": 74,
      "start": 179.5441,
      "duration": 0.1,
      "velocity": 93,
      "chip": "ym2612"
    },
    {
      "channel": 0,
      "note": 73,
      "start": 179.6442,
      "duration": 0.08,
      "velocity": 93,
      "chip": "ym2612"
    },
    {
      "channel": 1,
      "note": 57,
      "start": 179.6443,
      "duration": 0.1599,
      "velocity": 99,
      "chip": "ym2612"
    },
    {
      "channel": 0,
      "note": 74,
      "start": 179.7242,
      "duration": 0.08,
      "velocity": 93,
      "chip": "ym2612"
    },
    {
      "channel": 0,
      "note": 78,
      "start": 179.8042,
      "duration": 0.08,
      "velocity": 93,
      "chip": "ym2612"
    },
    {
      "channel": 1,
      "note": 62,
      "start": 179.8043,
      "duration": 0.18,
      "velocity": 99,
      "chip": "ym2612"
    },
    {
      "channel": 0,
      "note": 81,
      "start": 179.8842,
      "duration": 0.1,
      "velocity": 93,
      "chip": "ym2612"
    },
    {
      "channel": 0,
      "note": 85,
      "start": 179.9843,
      "duration": 0.0007,
      "velocity": 93,
      "chip": "ym2612"
    },
    {
      "channel": 1,
      "note": 64,
      "start": 179.9843,
      "duration": 0.0368,
      "velocity": 99,
      "chip": "ym2612"
    },
    {
      "channel": 0,
      "note": 86,
      "start": 179.985,
      "duration": 0.036,
      "velocity": 93,
      "chip": "ym2612"
    },
    {
      "channel": 0,
      "note": 85,
      "start": 180.0211,
      "duration": 0.0799,
      "velocity": 93,
      "chip": "ym2612"
    },
    {
      "channel": 1,
      "note": 45,
      "start": 180.0212,
      "duration": 0.1799,
      "velocity": 99,
      "chip": "ym2612"
    },
    {
      "channel": 0,
      "note": 81,
      "start": 180.101,
      "duration": 0.1,
      "velocity": 93,
      "chip": "ym2612"
    },
    {
      "channel": 0,
      "note": 78,
      "start": 180.2011,
      "duration": 0.0199,
      "velocity": 93,
      "chip": "ym2612"
    },
    {
      "channel": 1,
      "note": 52,
      "start": 180.2012,
      "duration": 0.1599,
      "velocity": 99,
      "chip": "ym2612"
    },
    {
      "channel": 0,
      "note": 78,
      "start": 180.221,
      "duration": 0.0599,
      "velocity": 93,
      "chip": "ym2612"
    },
    {
      "channel": 0,
      "note": 74,
      "start": 180.281,
      "duration": 0.0599,
      "velocity": 93,
      "chip": "ym2612"
    },
    {
      "channel": 0,
      "note": 73,
      "start": 180.3611,
      "duration": 0.0799,
      "velocity": 93,
      "chip": "ym2612"
    },
    {
      "channel": 1,
      "note": 57,
      "start": 180.3612,
      "duration": 0.1799,
      "velocity": 99,
      "chip": "ym2612"
    },
    {
      "channel": 0,
      "note": 74,
      "start": 180.441,
      "duration": 0.1,
      "velocity": 93,
      "chip": "ym2612"
    },
    {
      "channel": 0,
      "note": 78,
      "start": 180.5411,
      "duration": 0.0007,
      "velocity": 93,
      "chip": "ym2612"
    },
    {
      "channel": 1,
      "note": 62,
      "start": 180.5412,
      "duration": 0.0368,
      "velocity": 99,
      "chip": "ym2612"
    },
    {
      "channel": 0,
      "note": 81,
      "start": 180.5418,
      "duration": 0.036,
      "velocity": 93,
      "chip": "ym2612"
    },
    {
      "channel": 0,
      "note": 85,
      "start": 180.5779,
      "duration": 0.0007,
      "velocity": 93,
      "chip": "ym2612"
    },
    {
      "channel": 1,
      "note": 64,
      "start": 180.578,
      "duration": 0.0085,
      "velocity": 99,
      "chip": "ym2612"
    },
    {
      "channel": 0,
      "note": 86,
      "start": 180.5786,
      "duration": 0.0078,
      "velocity": 93,
      "chip": "ym2612"
    },
    {
      "channel": 0,
      "note": 85,
      "start": 180.5865,
      "duration": 0.0007,
      "velocity": 93,
      "chip": "ym2612"
    },
    {
      "channel": 1,
      "note": 62,
      "start": 180.5866,
      "duration": 0.0013,
      "velocity": 99,
      "chip": "ym2612"
    },
    {
      "channel": 0,
      "note": 81,
      "start": 180.5872,
      "duration": 0.0005,
      "velocity": 93,
      "chip": "ym2612"
    },
    {
      "channel": 0,
      "note": 78,
      "start": 180.5878,
      "duration": 0.0672,
      "velocity": 93,
      "chip": "ym2612"
    },
    {
      "channel": 1,
      "note": 57,
      "start": 180.5879,
      "duration": 0.1673,
      "velocity": 99,
      "chip": "ym2612"
    },
    {
      "channel": 0,
      "note": 74,
      "start": 180.655,
      "duration": 0.1001,
      "velocity": 93,
      "chip": "ym2612"
    },
    {
      "channel": 0,
      "note": 73,
      "start": 180.7552,
      "duration": 0.0007,
      "velocity": 93,
      "chip": "ym2612"
    },
    {
      "channel": 1,
      "note": 52,
      "start": 180.7553,
      "duration": 0.001,
      "velocity": 99,
      "chip": "ym2612"
    },
    {
      "channel": 0,
      "note": 74,
      "start": 180.7559,
      "duration": 0.0004,
      "velocity": 93,
      "chip": "ym2612"
    },
    {
      "channel": 0,
      "note": 71,
      "start": 180.7564,
      "duration": 0.0008,
      "velocity": 93,
      "chip": "ym2612"
    },
    {
      "channel": 1,
      "note": 45,
      "start": 180.7564,
      "duration": 0.056,
      "velocity": 99,
      "chip": "ym2612"
    },
    {
      "channel": 3,
      "note": 45,
      "start": 180.7566,
      "duration": 58.8743,
      "velocity": 95,
      "chip": "ym2612"
    },
    {
      "channel": 0,
      "note": 72,
      "start": 180.7572,
      "duration": 0.0552,
      "velocity": 93,
      "chip": "ym2612"
    },
    {
      "channel": 0,
      "note": 76,
      "start": 180.8125,
      "duration": 0.0799,
      "velocity": 93,
      "chip": "ym2612"
    },
    {
      "channel": 1,
      "note": 52,
      "start": 180.8125,
      "duration": 0.16,
      "velocity": 99,
      "chip": "ym2612"
    },
    {
      "channel": 0,
      "note": 79,
      "start": 180.8924,
      "duration": 0.0801,
      "velocity": 93,
      "chip": "ym2612"
    },
    {
      "channel": 0,
      "note": 83,
      "start": 180.9725,
      "duration": 0.0799,
      "velocity": 93,
      "chip": "ym2612"
    },
    {
      "channel": 1,
      "note": 57,
      "start": 180.9725,
      "duration": 0.1799,
      "velocity": 99,
      "chip": "ym2612"
    },
    {
      "channel": 0,
      "note": 84,
      "start": 181.0524,
      "duration": 0.1,
      "velocity": 93,
      "chip": "ym2612"
    },
    {
      "channel": 0,
      "note": 83,
      "start": 181.1525,
      "duration": 0.0799,
      "velocity": 93,
      "chip": "ym2612"
    },
    {
      "channel": 1,
      "note": 62,
      "start": 181.1525,
      "duration": 58.4783,
      "velocity": 99,
      "chip": "ym2612"
    },
    {
      "channel": 0,
      "note": 79,
      "start": 181.2324,
      "duration": 58.3985,
      "velocity": 93,
      "chip": "ym2612"
    }
  ]
}