{
  "track_name": "15 - Ending 3",
  "duration_sec": 52.54,
  "sample_rate": 44100,
  "note_count": 780,
  "unique_pitches": 38,
  "pitch_range": 70,
  "avg_note_duration": 0.3089,
  "reconstruction_stats": {
    "notes_reconstructed": 780,
    "keyon_events": 780,
    "keyoff_events": 771,
    "orphan_keyons": 4,
    "unique_pitches": 38,
    "pitch_range": 70,
    "avg_duration_sec": 0.3089
  },
  "metadata": {
    "source": "D\\Decap Attack\\15 - Ending 3.vgz"
  },
  "notes": [
    {
      "channel": 0,
      "note": 56,
      "start": 0.0,
      "duration": 0.5309,
      "velocity": 107,
      "chip": "ym2612"
    },
    {
      "channel": 1,
      "note": 68,
      "start": 0.0028,
      "duration": 0.2615,
      "velocity": 97,
      "chip": "ym2612"
    },
    {
      "channel": 5,
      "note": 20,
      "start": 0.0107,
      "duration": 0.2581,
      "velocity": 127,
      "chip": "ym2612"
    },
    {
      "channel": 1,
      "note": 70,
      "start": 0.2647,
      "duration": 0.2667,
      "velocity": 97,
      "chip": "ym2612"
    },
    {
      "channel": 2,
      "note": 68,
      "start": 0.2676,
      "duration": 0.2643,
      "velocity": 97,
      "chip": "ym2612"
    },
    {
      "channel": 3,
      "note": 75,
      "start": 0.2681,
      "duration": 0.2642,
      "velocity": 102,
      "chip": "ym2612"
    },
    {
      "channel": 4,
      "note": 71,
      "start": 0.2686,
      "duration": 0.2639,
      "velocity": 102,
      "chip": "ym2612"
    },
    {
      "channel": 5,
      "note": 80,
      "start": 0.2714,
      "duration": 0.2613,
      "velocity": 127,
      "chip": "ym2612"
    },
    {
      "channel": 0,
      "note": 51,
      "start": 0.5312,
      "duration": 0.5329,
      "velocity": 107,
      "chip": "ym2612"
    },
    {
      "channel": 1,
      "note": 71,
      "start": 0.5317,
      "duration": 0.2659,
      "velocity": 97,
      "chip": "ym2612"
    },
    {
      "channel": 2,
      "note": 70,
      "start": 0.5323,
      "duration": 0.2659,
      "velocity": 97,
      "chip": "ym2612"
    },
    {
      "channel": 5,
      "note": 20,
      "start": 0.5354,
      "duration": 0.2643,
      "velocity": 127,
      "chip": "ym2612"
    },
    {
      "channel": 1,
      "note": 68,
      "start": 0.798,
      "duration": 0.2666,
      "velocity": 97,
      "chip": "ym2612"
    },
    {
      "channel": 2,
      "note": 71,
      "start": 0.7985,
      "duration": 0.2666,
      "velocity": 97,
      "chip": "ym2612"
    },
    {
      "channel": 3,
      "note": 75,
      "start": 0.799,
      "duration": 0.2666,
      "velocity": 102,
      "chip": "ym2612"
    },
    {
      "channel": 4,
      "note": 71,
      "start": 0.7996,
      "duration": 0.2663,
      "velocity": 102,
      "chip": "ym2612"
    },
    {
      "channel": 5,
      "note": 32,
      "start": 0.8022,
      "duration": 0.2639,
      "velocity": 69,
      "chip": "ym2612"
    },
    {
      "channel": 0,
      "note": 49,
      "start": 1.0645,
      "duration": 0.533,
      "velocity": 107,
      "chip": "ym2612"
    },
    {
      "channel": 1,
      "note": 70,
      "start": 1.065,
      "duration": 0.266,
      "velocity": 97,
      "chip": "ym2612"
    },
    {
      "channel": 2,
      "note": 68,
      "start": 1.0655,
      "duration": 0.266,
      "velocity": 97,
      "chip": "ym2612"
    },
    {
      "channel": 5,
      "note": 20,
      "start": 1.0688,
      "duration": 0.2642,
      "velocity": 127,
      "chip": "ym2612"
    },
    {
      "channel": 1,
      "note": 68,
      "start": 1.3314,
      "duration": 0.2667,
      "velocity": 97,
      "chip": "ym2612"
    },
    {
      "channel": 2,
      "note": 70,
      "start": 1.3319,
      "duration": 0.2667,
      "velocity": 97,
      "chip": "ym2612"
    },
    {
      "channel": 3,
      "note": 73,
      "start": 1.3324,
      "duration": 0.2667,
      "velocity": 102,
      "chip": "ym2612"
    },
    {
      "channel": 4,
      "note": 70,
      "start": 1.3329,
      "duration": 0.2663,
      "velocity": 102,
      "chip": "ym2612"
    },
    {
      "channel": 5,
      "note": 80,
      "start": 1.3356,
      "duration": 0.2638,
      "velocity": 127,
      "chip": "ym2612"
    },
    {
      "channel": 0,
      "note": 51,
      "start": 1.5979,
      "duration": 0.2663,
      "velocity": 107,
      "chip": "ym2612"
    },
    {
      "channel": 1,
      "note": 67,
      "start": 1.5984,
      "duration": 0.2662,
      "velocity": 97,
      "chip": "ym2612"
    },
    {
      "channel": 2,
      "note": 68,
      "start": 1.5989,
      "duration": 0.2663,
      "velocity": 97,
      "chip": "ym2612"
    },
    {
      "channel": 5,
      "note": 20,
      "start": 1.6021,
      "duration": 0.2646,
      "velocity": 127,
      "chip": "ym2612"
    },
    {
      "channel": 0,
      "note": 55,
      "start": 1.8645,
      "duration": 0.2663,
      "velocity": 107,
      "chip": "ym2612"
    },
    {
      "channel": 1,
      "note": 70,
      "start": 1.8651,
      "duration": 0.2663,
      "velocity": 97,
      "chip": "ym2612"
    },
    {
      "channel": 2,
      "note": 67,
      "start": 1.8656,
      "duration": 0.2665,
      "velocity": 97,
      "chip": "ym2612"
    },
    {
      "channel": 3,
      "note": 73,
      "start": 1.8661,
      "duration": 0.2665,
      "velocity": 102,
      "chip": "ym2612"
    },
    {
      "channel": 4,
      "note": 70,
      "start": 1.8666,
      "duration": 0.2662,
      "velocity": 102,
      "chip": "ym2612"
    },
    {
      "channel": 5,
      "note": 72,
      "start": 1.8693,
      "duration": 0.2639,
      "velocity": 127,
      "chip": "ym2612"
    },
    {
      "channel": 0,
      "note": 56,
      "start": 2.1313,
      "duration": 0.5329,
      "velocity": 107,
      "chip": "ym2612"
    },
    {
      "channel": 1,
      "note": 68,
      "start": 2.132,
      "duration": 0.2657,
      "velocity": 97,
      "chip": "ym2612"
    },
    {
      "channel": 2,
      "note": 70,
      "start": 2.1324,
      "duration": 0.2657,
      "velocity": 97,
      "chip": "ym2612"
    },
    {
      "channel": 5,
      "note": 20,
      "start": 2.1359,
      "duration": 0.264,
      "velocity": 127,
      "chip": "ym2612"
    },
    {
      "channel": 1,
      "note": 70,
      "start": 2.398,
      "duration": 0.2667,
      "velocity": 97,
      "chip": "ym2612"
    },
    {
      "channel": 2,
      "note": 68,
      "start": 2.3987,
      "duration": 0.2666,
      "velocity": 97,
      "chip": "ym2612"
    },
    {
      "channel": 3,
      "note": 75,
      "start": 2.3992,
      "duration": 0.2665,
      "velocity": 102,
      "chip": "ym2612"
    },
    {
      "channel": 4,
      "note": 71,
      "start": 2.3998,
      "duration": 0.2661,
      "velocity": 102,
      "chip": "ym2612"
    },
    {
      "channel": 5,
      "note": 80,
      "start": 2.4024,
      "duration": 0.2636,
      "velocity": 127,
      "chip": "ym2612"
    },
    {
      "channel": 0,
      "note": 51,
      "start": 2.6646,
      "duration": 0.5329,
      "velocity": 107,
      "chip": "ym2612"
    },
    {
      "channel": 1,
      "note": 71,
      "start": 2.6651,
      "duration": 0.2659,
      "velocity": 97,
      "chip": "ym2612"
    },
    {
      "channel": 2,
      "note": 70,
      "start": 2.6656,
      "duration": 0.2659,
      "velocity": 97,
      "chip": "ym2612"
    },
    {
      "channel": 5,
      "note": 20,
      "start": 2.6687,
      "duration": 0.2643,
      "velocity": 127,
      "chip": "ym2612"
    },
    {
      "channel": 1,
      "note": 68,
      "start": 2.9314,
      "duration": 0.2666,
      "velocity": 97,
      "chip": "ym2612"
    },
    {
      "channel": 2,
      "note": 71,
      "start": 2.9319,
      "duration": 0.2666,
      "velocity": 97,
      "chip": "ym2612"
    },
    {
      "channel": 3,
      "note": 75,
      "start": 2.9324,
      "duration": 0.2666,
      "velocity": 102,
      "chip": "ym2612"
    },
    {
      "channel": 4,
      "note": 71,
      "start": 2.9329,
      "duration": 0.2663,
      "velocity": 102,
      "chip": "ym2612"
    },
    {
      "channel": 5,
      "note": 32,
      "start": 2.9356,
      "duration": 0.2639,
      "velocity": 69,
      "chip": "ym2612"
    },
    {
      "channel": 0,
      "note": 49,
      "start": 3.1978,
      "duration": 0.533,
      "velocity": 107,
      "chip": "ym2612"
    },
    {
      "channel": 1,
      "note": 70,
      "start": 3.1983,
      "duration": 0.266,
      "velocity": 97,
      "chip": "ym2612"
    },
    {
      "channel": 2,
      "note": 68,
      "start": 3.1989,
      "duration": 0.266,
      "velocity": 97,
      "chip": "ym2612"
    },
    {
      "channel": 5,
      "note": 20,
      "start": 3.2022,
      "duration": 0.2642,
      "velocity": 127,
      "chip": "ym2612"
    },
    {
      "channel": 1,
      "note": 68,
      "start": 3.4647,
      "duration": 0.2667,
      "velocity": 97,
      "chip": "ym2612"
    },
    {
      "channel": 2,
      "note": 70,
      "start": 3.4652,
      "duration": 0.2667,
      "velocity": 97,
      "chip": "ym2612"
    },
    {
      "channel": 3,
      "note": 73,
      "start": 3.4657,
      "duration": 0.2667,
      "velocity": 102,
      "chip": "ym2612"
    },
    {
      "channel": 4,
      "note": 70,
      "start": 3.4662,
      "duration": 0.2663,
      "velocity": 102,
      "chip": "ym2612"
    },
    {
      "channel": 5,
      "note": 80,
      "start": 3.4689,
      "duration": 0.2638,
      "velocity": 127,
      "chip": "ym2612"
    },
    {
      "channel": 0,
      "note": 51,
      "start": 3.7312,
      "duration": 0.2663,
      "velocity": 107,
      "chip": "ym2612"
    },
    {
      "channel": 1,
      "note": 67,
      "start": 3.7317,
      "duration": 0.2662,
      "velocity": 97,
      "chip": "ym2612"
    },
    {
      "channel": 2,
      "note": 68,
      "start": 3.7323,
      "duration": 0.2663,
      "velocity": 97,
      "chip": "ym2612"
    },
    {
      "channel": 5,
      "note": 20,
      "start": 3.7354,
      "duration": 0.2646,
      "velocity": 127,
      "chip": "ym2612"
    },
    {
      "channel": 0,
      "note": 55,
      "start": 3.9978,
      "duration": 0.2663,
      "velocity": 107,
      "chip": "ym2612"
    },
    {
      "channel": 1,
      "note": 70,
      "start": 3.9984,
      "duration": 0.2663,
      "velocity": 97,
      "chip": "ym2612"
    },
    {
      "channel": 2,
      "note": 67,
      "start": 3.9989,
      "duration": 0.2664,
      "velocity": 97,
      "chip": "ym2612"
    },
    {
      "channel": 3,
      "note": 73,
      "start": 3.9994,
      "duration": 0.2665,
      "velocity": 102,
      "chip": "ym2612"
    },
    {
      "channel": 4,
      "note": 70,
      "start": 4.0,
      "duration": 0.2662,
      "velocity": 102,
      "chip": "ym2612"
    },
    {
      "channel": 5,
      "note": 72,
      "start": 4.0026,
      "duration": 0.2638,
      "velocity": 127,
      "chip": "ym2612"
    },
    {
      "channel": 0,
      "note": 56,
      "start": 4.2646,
      "duration": 0.5329,
      "velocity": 107,
      "chip": "ym2612"
    },
    {
      "channel": 1,
      "note": 68,
      "start": 4.2652,
      "duration": 0.2658,
      "velocity": 97,
      "chip": "ym2612"
    },
    {
      "channel": 2,
      "note": 70,
      "start": 4.2657,
      "duration": 0.2658,
      "velocity": 97,
      "chip": "ym2612"
    },
    {
      "channel": 5,
      "note": 20,
      "start": 4.2692,
      "duration": 0.2639,
      "velocity": 127,
      "chip": "ym2612"
    },
    {
      "channel": 1,
      "note": 70,
      "start": 4.5314,
      "duration": 0.2667,
      "velocity": 97,
      "chip": "ym2612"
    },
    {
      "channel": 2,
      "note": 68,
      "start": 4.532,
      "duration": 0.2666,
      "velocity": 97,
      "chip": "ym2612"
    },
    {
      "channel": 3,
      "note": 75,
      "start": 4.5325,
      "duration": 0.2665,
      "velocity": 102,
      "chip": "ym2612"
    },
    {
      "channel": 4,
      "note": 71,
      "start": 4.533,
      "duration": 0.2662,
      "velocity": 102,
      "chip": "ym2612"
    },
    {
      "channel": 5,
      "note": 80,
      "start": 4.5357,
      "duration": 0.2637,
      "velocity": 127,
      "chip": "ym2612"
    },
    {
      "channel": 0,
      "note": 51,
      "start": 4.7979,
      "duration": 0.5329,
      "velocity": 107,
      "chip": "ym2612"
    },
    {
      "channel": 1,
      "note": 71,
      "start": 4.7984,
      "duration": 0.2659,
      "velocity": 97,
      "chip": "ym2612"
    },
    {
      "channel": 2,
      "note": 70,
      "start": 4.7989,
      "duration": 0.2659,
      "velocity": 97,
      "chip": "ym2612"
    },
    {
      "channel": 5,
      "note": 20,
      "start": 4.802,
      "duration": 0.2643,
      "velocity": 127,
      "chip": "ym2612"
    },
    {
      "channel": 1,
      "note": 68,
      "start": 5.0647,
      "duration": 0.2667,
      "velocity": 97,
      "chip": "ym2612"
    },
    {
      "channel": 2,
      "note": 71,
      "start": 5.0652,
      "duration": 0.2667,
      "velocity": 97,
      "chip": "ym2612"
    },
    {
      "channel": 3,
      "note": 75,
      "start": 5.0657,
      "duration": 0.2667,
      "velocity": 102,
      "chip": "ym2612"
    },
    {
      "channel": 4,
      "note": 71,
      "start": 5.0662,
      "duration": 0.2664,
      "velocity": 102,
      "chip": "ym2612"
    },
    {
      "channel": 5,
      "note": 32,
      "start": 5.0689,
      "duration": 0.264,
      "velocity": 69,
      "chip": "ym2612"
    },
    {
      "channel": 0,
      "note": 56,
      "start": 5.3312,
      "duration": 0.2663,
      "velocity": 107,
      "chip": "ym2612"
    },
    {
      "channel": 1,
      "note": 72,
      "start": 5.3317,
      "duration": 0.2663,
      "velocity": 97,
      "chip": "ym2612"
    },
    {
      "channel": 2,
      "note": 68,
      "start": 5.3323,
      "duration": 0.2663,
      "velocity": 97,
      "chip": "ym2612"
    },
    {
      "channel": 5,
      "note": 20,
      "start": 5.3356,
      "duration": 0.2645,
      "velocity": 127,
      "chip": "ym2612"
    },
    {
      "channel": 0,
      "note": 51,
      "start": 5.5979,
      "duration": 0.2663,
      "velocity": 107,
      "chip": "ym2612"
    },
    {
      "channel": 1,
      "note": 73,
      "start": 5.5984,
      "duration": 0.2662,
      "velocity": 97,
      "chip": "ym2612"
    },
    {
      "channel": 2,
      "note": 72,
      "start": 5.5989,
      "duration": 0.2662,
      "velocity": 97,
      "chip": "ym2612"
    },
    {
      "channel": 3,
      "note": 75,
      "start": 5.5994,
      "duration": 0.2662,
      "velocity": 102,
      "chip": "ym2612"
    },
    {
      "channel": 4,
      "note": 72,
      "start": 5.6,
      "duration": 0.2659,
      "velocity": 102,
      "chip": "ym2612"
    },
    {
      "channel": 5,
      "note": 80,
      "start": 5.6026,
      "duration": 0.2634,
      "velocity": 127,
      "chip": "ym2612"
    },
    {
      "channel": 0,
      "note": 54,
      "start": 5.8645,
      "duration": 0.2663,
      "velocity": 107,
      "chip": "ym2612"
    },
    {
      "channel": 1,
      "note": 75,
      "start": 5.865,
      "duration": 0.2663,
      "velocity": 97,
      "chip": "ym2612"
    },
    {
      "channel": 2,
      "note": 73,
      "start": 5.8655,
      "duration": 0.2663,
      "velocity": 97,
      "chip": "ym2612"
    },
    {
      "channel": 5,
      "note": 20,
      "start": 5.8687,
      "duration": 0.2647,
      "velocity": 127,
      "chip": "ym2612"
    },
    {
      "channel": 0,
      "note": 56,
      "start": 6.1312,
      "duration": 0.2663,
      "velocity": 107,
      "chip": "ym2612"
    },
    {
      "channel": 1,
      "note": 78,
      "start": 6.1317,
      "duration": 0.2663,
      "velocity": 97,
      "chip": "ym2612"
    },
    {
      "channel": 2,
      "note": 75,
      "start": 6.1323,
      "duration": 0.2664,
      "velocity": 97,
      "chip": "ym2612"
    },
    {
      "channel": 3,
      "note": 75,
      "start": 6.1328,
      "duration": 0.2664,
      "velocity": 102,
      "chip": "ym2612"
    },
    {
      "channel": 4,
      "note": 72,
      "start": 6.1333,
      "duration": 0.2661,
      "velocity": 102,
      "chip": "ym2612"
    },
    {
      "channel": 5,
      "note": 72,
      "start": 6.1359,
      "duration": 0.2637,
      "velocity": 127,
      "chip": "ym2612"
    },
    {
      "channel": 0,
      "note": 49,
      "start": 6.398,
      "duration": 0.5329,
      "velocity": 107,
      "chip": "ym2612"
    },
    {
      "channel": 1,
      "note": 76,
      "start": 6.3985,
      "duration": 0.2658,
      "velocity": 97,
      "chip": "ym2612"
    },
    {
      "channel": 2,
      "note": 78,
      "start": 6.399,
      "duration": 0.2658,
      "velocity": 97,
      "chip": "ym2612"
    },
    {
      "channel": 5,
      "note": 20,
      "start": 6.4024,
      "duration": 0.264,
      "velocity": 127,
      "chip": "ym2612"
    },
    {
      "channel": 1,
      "note": 68,
      "start": 6.6647,
      "duration": 0.2667,
      "velocity": 97,
      "chip": "ym2612"
    },
    {
      "channel": 2,
      "note": 76,
      "start": 6.6653,
      "duration": 0.2666,
      "velocity": 97,
      "chip": "ym2612"
    },
    {
      "channel": 3,
      "note": 76,
      "start": 6.6658,
      "duration": 0.2666,
      "velocity": 102,
      "chip": "ym2612"
    },
    {
      "channel": 4,
      "note": 73,
      "start": 6.6663,
      "duration": 0.2662,
      "velocity": 102,
      "chip": "ym2612"
    },
    {
      "channel": 5,
      "note": 80,
      "start": 6.669,
      "duration": 0.2637,
      "velocity": 127,
      "chip": "ym2612"
    },
    {
      "channel": 0,
      "note": 56,
      "start": 6.9312,
      "duration": 0.5329,
      "velocity": 107,
      "chip": "ym2612"
    },
    {
      "channel": 1,
      "note": 75,
      "start": 6.9317,
      "duration": 0.2659,
      "velocity": 97,
      "chip": "ym2612"
    },
    {
      "channel": 2,
      "note": 68,
      "start": 6.9323,
      "duration": 0.2659,
      "velocity": 97,
      "chip": "ym2612"
    },
    {
      "channel": 5,
      "note": 20,
      "start": 6.9354,
      "duration": 0.2643,
      "velocity": 127,
      "chip": "ym2612"
    },
    {
      "channel": 1,
      "note": 68,
      "start": 7.198,
      "duration": 0.2667,
      "velocity": 97,
      "chip": "ym2612"
    },
    {
      "channel": 2,
      "note": 75,
      "start": 7.1985,
      "duration": 0.2667,
      "velocity": 97,
      "chip": "ym2612"
    },
    {
      "channel": 3,
      "note": 76,
      "start": 7.199,
      "duration": 0.2667,
      "velocity": 102,
      "chip": "ym2612"
    },
    {
      "channel": 4,
      "note": 73,
      "start": 7.1996,
      "duration": 0.2664,
      "velocity": 102,
      "chip": "ym2612"
    },
    {
      "channel": 5,
      "note": 32,
      "start": 7.2022,
      "duration": 0.264,
      "velocity": 69,
      "chip": "ym2612"
    },
    {
      "channel": 0,
      "note": 49,
      "start": 7.4646,
      "duration": 0.2663,
      "velocity": 107,
      "chip": "ym2612"
    },
    {
      "channel": 1,
      "note": 73,
      "start": 7.4651,
      "duration": 0.5329,
      "velocity": 97,
      "chip": "ym2612"
    },
    {
      "channel": 2,
      "note": 68,
      "start": 7.4656,
      "duration": 0.2659,
      "velocity": 97,
      "chip": "ym2612"
    },
    {
      "channel": 5,
      "note": 20,
      "start": 7.4689,
      "duration": 0.2641,
      "velocity": 127,
      "chip": "ym2612"
    },
    {
      "channel": 0,
      "note": 49,
      "start": 7.7312,
      "duration": 0.2663,
      "velocity": 107,
      "chip": "ym2612"
    },
    {
      "channel": 2,
      "note": 73,
      "start": 7.7319,
      "duration": 0.5333,
      "velocity": 97,
      "chip": "ym2612"
    },
    {
      "channel": 3,
      "note": 76,
      "start": 7.7324,
      "duration": 0.2663,
      "velocity": 102,
      "chip": "ym2612"
    },
    {
      "channel": 4,
      "note": 73,
      "start": 7.7329,
      "duration": 0.266,
      "velocity": 102,
      "chip": "ym2612"
    },
    {
      "channel": 5,
      "note": 80,
      "start": 7.7356,
      "duration": 0.2634,
      "velocity": 127,
      "chip": "ym2612"
    },
    {
      "channel": 0,
      "note": 51,
      "start": 7.9978,
      "duration": 0.2663,
      "velocity": 107,
      "chip": "ym2612"
    },
    {
      "channel": 1,
      "note": 75,
      "start": 7.9983,
      "duration": 0.2663,
      "velocity": 97,
      "chip": "ym2612"
    },
    {
      "channel": 5,
      "note": 20,
      "start": 8.0017,
      "duration": 0.2649,
      "velocity": 127,
      "chip": "ym2612"
    },
    {
      "channel": 0,
      "note": 52,
      "start": 8.2645,
      "duration": 0.2663,
      "velocity": 107,
      "chip": "ym2612"
    },
    {
      "channel": 1,
      "note": 76,
      "start": 8.265,
      "duration": 0.2664,
      "velocity": 97,
      "chip": "ym2612"
    },
    {
      "channel": 2,
      "note": 75,
      "start": 8.2655,
      "duration": 0.2665,
      "velocity": 97,
      "chip": "ym2612"
    },
    {
      "channel": 3,
      "note": 76,
      "start": 8.266,
      "duration": 0.2665,
      "velocity": 102,
      "chip": "ym2612"
    },
    {
      "channel": 4,
      "note": 73,
      "start": 8.2666,
      "duration": 0.2662,
      "velocity": 102,
      "chip": "ym2612"
    },
    {
      "channel": 5,
      "note": 72,
      "start": 8.2692,
      "duration": 0.2638,
      "velocity": 127,
      "chip": "ym2612"
    },
    {
      "channel": 0,
      "note": 54,
      "start": 8.5313,
      "duration": 0.5329,
      "velocity": 107,
      "chip": "ym2612"
    },
    {
      "channel": 1,
      "note": 78,
      "start": 8.5319,
      "duration": 0.2658,
      "velocity": 97,
      "chip": "ym2612"
    },
    {
      "channel": 2,
      "note": 76,
      "start": 8.5324,
      "duration": 0.2658,
      "velocity": 97,
      "chip": "ym2612"
    },
    {
      "channel": 5,
      "note": 20,
      "start": 8.5358,
      "duration": 0.264,
      "velocity": 127,
      "chip": "ym2612"
    },
    {
      "channel": 1,
      "note": 73,
      "start": 8.798,
      "duration": 0.2666,
      "velocity": 97,
      "chip": "ym2612"
    },
    {
      "channel": 2,
      "note": 78,
      "start": 8.7986,
      "duration": 0.2665,
      "velocity": 97,
      "chip": "ym2612"
    },
    {
      "channel": 3,
      "note": 76,
      "start": 8.7991,
      "duration": 0.2665,
      "velocity": 102,
      "chip": "ym2612"
    },
    {
      "channel": 4,
      "note": 73,
      "start": 8.7996,
      "duration": 0.2662,
      "velocity": 102,
      "chip": "ym2612"
    },
    {
      "channel": 5,
      "note": 80,
      "start": 8.8024,
      "duration": 0.2637,
      "velocity": 127,
      "chip": "ym2612"
    },
    {
      "channel": 0,
      "note": 49,
      "start": 9.0645,
      "duration": 0.533,
      "velocity": 107,
      "chip": "ym2612"
    },
    {
      "channel": 1,
      "note": 70,
      "start": 9.065,
      "duration": 0.266,
      "velocity": 97,
      "chip": "ym2612"
    },
    {
      "channel": 2,
      "note": 73,
      "start": 9.0655,
      "duration": 0.266,
      "velocity": 97,
      "chip": "ym2612"
    },
    {
      "channel": 5,
      "note": 20,
      "start": 9.0687,
      "duration": 0.2643,
      "velocity": 127,
      "chip": "ym2612"
    },
    {
      "channel": 1,
      "note": 78,
      "start": 9.3314,
      "duration": 0.2667,
      "velocity": 97,
      "chip": "ym2612"
    },
    {
      "channel": 2,
      "note": 70,
      "start": 9.3319,
      "duration": 0.2667,
      "velocity": 97,
      "chip": "ym2612"
    },
    {
      "channel": 3,
      "note": 76,
      "start": 9.3324,
      "duration": 0.2667,
      "velocity": 102,
      "chip": "ym2612"
    },
    {
      "channel": 4,
      "note": 73,
      "start": 9.3329,
      "duration": 0.2664,
      "velocity": 102,
      "chip": "ym2612"
    },
    {
      "channel": 5,
      "note": 32,
      "start": 9.3356,
      "duration": 0.264,
      "velocity": 69,
      "chip": "ym2612"
    },
    {
      "channel": 0,
      "note": 59,
      "start": 9.5979,
      "duration": 0.2663,
      "velocity": 107,
      "chip": "ym2612"
    },
    {
      "channel": 1,
      "note": 75,
      "start": 9.5984,
      "duration": 0.2662,
      "velocity": 97,
      "chip": "ym2612"
    },
    {
      "channel": 2,
      "note": 78,
      "start": 9.5989,
      "duration": 0.2662,
      "velocity": 97,
      "chip": "ym2612"
    },
    {
      "channel": 5,
      "note": 20,
      "start": 9.6023,
      "duration": 0.2644,
      "velocity": 127,
      "chip": "ym2612"
    },
    {
      "channel": 0,
      "note": 59,
      "start": 9.8645,
      "duration": 0.2663,
      "velocity": 107,
      "chip": "ym2612"
    },
    {
      "channel": 1,
      "note": 71,
      "start": 9.865,
      "duration": 0.2663,
      "velocity": 97,
      "chip": "ym2612"
    },
    {
      "channel": 2,
      "note": 75,
      "start": 9.8655,
      "duration": 0.2663,
      "velocity": 97,
      "chip": "ym2612"
    },
    {
      "channel": 3,
      "note": 75,
      "start": 9.8661,
      "duration": 0.2663,
      "velocity": 102,
      "chip": "ym2612"
    },
    {
      "channel": 4,
      "note": 71,
      "start": 9.8666,
      "duration": 0.2659,
      "velocity": 102,
      "chip": "ym2612"
    },
    {
      "channel": 5,
      "note": 80,
      "start": 9.8693,
      "duration": 0.2634,
      "velocity": 127,
      "chip": "ym2612"
    },
    {
      "channel": 0,
      "note": 54,
      "start": 10.1312,
      "duration": 0.2663,
      "velocity": 107,
      "chip": "ym2612"
    },
    {
      "channel": 1,
      "note": 73,
      "start": 10.1317,
      "duration": 0.2663,
      "velocity": 97,
      "chip": "ym2612"
    },
    {
      "channel": 2,
      "note": 71,
      "start": 10.1323,
      "duration": 0.2663,
      "velocity": 97,
      "chip": "ym2612"
    },
    {
      "channel": 5,
      "note": 20,
      "start": 10.1354,
      "duration": 0.2647,
      "velocity": 127,
      "chip": "ym2612"
    },
    {
      "channel": 0,
      "note": 59,
      "start": 10.3979,
      "duration": 0.2663,
      "velocity": 107,
      "chip": "ym2612"
    },
    {
      "channel": 1,
      "note": 75,
      "start": 10.3984,
      "duration": 0.2663,
      "velocity": 97,
      "chip": "ym2612"
    },
    {
      "channel": 2,
      "note": 73,
      "start": 10.3989,
      "duration": 0.2664,
      "velocity": 97,
      "chip": "ym2612"
    },
    {
      "channel": 3,
      "note": 75,
      "start": 10.3994,
      "duration": 0.2664,
      "velocity": 102,
      "chip": "ym2612"
    },
    {
      "channel": 4,
      "note": 71,
      "start": 10.4,
      "duration": 0.2661,
      "velocity": 102,
      "chip": "ym2612"
    },
    {
      "channel": 5,
      "note": 72,
      "start": 10.4026,
      "duration": 0.2637,
      "velocity": 127,
      "chip": "ym2612"
    },
    {
      "channel": 0,
      "note": 57,
      "start": 10.6646,
      "duration": 0.5329,
      "velocity": 107,
      "chip": "ym2612"
    },
    {
      "channel": 1,
      "note": 76,
      "start": 10.6652,
      "duration": 0.2658,
      "velocity": 97,
      "chip": "ym2612"
    },
    {
      "channel": 2,
      "note": 75,
      "start": 10.6657,
      "duration": 0.2658,
      "velocity": 97,
      "chip": "ym2612"
    },
    {
      "channel": 5,
      "note": 20,
      "start": 10.6691,
      "duration": 0.264,
      "velocity": 127,
      "chip": "ym2612"
    },
    {
      "channel": 1,
      "note": 69,
      "start": 10.9314,
      "duration": 0.2667,
      "velocity": 97,
      "chip": "ym2612"
    },
    {
      "channel": 2,
      "note": 76,
      "start": 10.932,
      "duration": 0.2666,
      "velocity": 97,
      "chip": "ym2612"
    },
    {
      "channel": 3,
      "note": 76,
      "start": 10.9324,
      "duration": 0.2666,
      "velocity": 102,
      "chip": "ym2612"
    },
    {
      "channel": 4,
      "note": 73,
      "start": 10.933,
      "duration": 0.2662,
      "velocity": 102,
      "chip": "ym2612"
    },
    {
      "channel": 5,
      "note": 80,
      "start": 10.9357,
      "duration": 0.2637,
      "velocity": 127,
      "chip": "ym2612"
    },
    {
      "channel": 0,
      "note": 52,
      "start": 11.1979,
      "duration": 0.5329,
      "velocity": 107,
      "chip": "ym2612"
    },
    {
      "channel": 1,
      "note": 75,
      "start": 11.1984,
      "duration": 0.2659,
      "velocity": 97,
      "chip": "ym2612"
    },
    {
      "channel": 2,
      "note": 69,
      "start": 11.1989,
      "duration": 0.2659,
      "velocity": 97,
      "chip": "ym2612"
    },
    {
      "channel": 5,
      "note": 20,
      "start": 11.202,
      "duration": 0.2643,
      "velocity": 127,
      "chip": "ym2612"
    },
    {
      "channel": 1,
      "note": 73,
      "start": 11.4647,
      "duration": 0.2667,
      "velocity": 97,
      "chip": "ym2612"
    },
    {
      "channel": 2,
      "note": 75,
      "start": 11.4652,
      "duration": 0.2667,
      "velocity": 97,
      "chip": "ym2612"
    },
    {
      "channel": 3,
      "note": 76,
      "start": 11.4657,
      "duration": 0.2667,
      "velocity": 102,
      "chip": "ym2612"
    },
    {
      "channel": 4,
      "note": 73,
      "start": 11.4662,
      "duration": 0.2664,
      "velocity": 102,
      "chip": "ym2612"
    },
    {
      "channel": 5,
      "note": 32,
      "start": 11.4689,
      "duration": 0.264,
      "velocity": 69,
      "chip": "ym2612"
    },
    {
      "channel": 0,
      "note": 56,
      "start": 11.7312,
      "duration": 0.2663,
      "velocity": 107,
      "chip": "ym2612"
    },
    {
      "channel": 1,
      "note": 71,
      "start": 11.7317,
      "duration": 0.5329,
      "velocity": 97,
      "chip": "ym2612"
    },
    {
      "channel": 2,
      "note": 73,
      "start": 11.7323,
      "duration": 0.2659,
      "velocity": 97,
      "chip": "ym2612"
    },
    {
      "channel": 5,
      "note": 20,
      "start": 11.7356,
      "duration": 0.2641,
      "velocity": 127,
      "chip": "ym2612"
    },
    {
      "channel": 0,
      "note": 56,
      "start": 11.9978,
      "duration": 0.2663,
      "velocity": 107,
      "chip": "ym2612"
    },
    {
      "channel": 2,
      "note": 71,
      "start": 11.9985,
      "duration": 0.5333,
      "velocity": 97,
      "chip": "ym2612"
    },
    {
      "channel": 3,
      "note": 75,
      "start": 11.9991,
      "duration": 0.2663,
      "velocity": 102,
      "chip": "ym2612"
    },
    {
      "channel": 4,
      "note": 71,
      "start": 11.9996,
      "duration": 0.2659,
      "velocity": 102,
      "chip": "ym2612"
    },
    {
      "channel": 5,
      "note": 80,
      "start": 12.0023,
      "duration": 0.2634,
      "velocity": 127,
      "chip": "ym2612"
    },
    {
      "channel": 0,
      "note": 54,
      "start": 12.2646,
      "duration": 0.2663,
      "velocity": 107,
      "chip": "ym2612"
    },
    {
      "channel": 1,
      "note": 70,
      "start": 12.2651,
      "duration": 0.2663,
      "velocity": 97,
      "chip": "ym2612"
    },
    {
      "channel": 5,
      "note": 20,
      "start": 12.2684,
      "duration": 0.265,
      "velocity": 127,
      "chip": "ym2612"
    },
    {
      "channel": 0,
      "note": 56,
      "start": 12.5312,
      "duration": 0.2663,
      "velocity": 107,
      "chip": "ym2612"
    },
    {
      "channel": 1,
      "note": 71,
      "start": 12.5317,
      "duration": 0.2663,
      "velocity": 97,
      "chip": "ym2612"
    },
    {
      "channel": 2,
      "note": 70,
      "start": 12.5323,
      "duration": 0.2664,
      "velocity": 97,
      "chip": "ym2612"
    },
    {
      "channel": 3,
      "note": 75,
      "start": 12.5328,
      "duration": 0.2664,
      "velocity": 102,
      "chip": "ym2612"
    },
    {
      "channel": 4,
      "note": 71,
      "start": 12.5333,
      "duration": 0.2661,
      "velocity": 102,
      "chip": "ym2612"
    },
    {
      "channel": 5,
      "note": 72,
      "start": 12.5359,
      "duration": 0.2637,
      "velocity": 127,
      "chip": "ym2612"
    },
    {
      "channel": 0,
      "note": 61,
      "start": 12.798,
      "duration": 0.5329,
      "velocity": 107,
      "chip": "ym2612"
    },
    {
      "channel": 1,
      "note": 73,
      "start": 12.7985,
      "duration": 0.2658,
      "velocity": 97,
      "chip": "ym2612"
    },
    {
      "channel": 2,
      "note": 71,
      "start": 12.799,
      "duration": 0.2658,
      "velocity": 97,
      "chip": "ym2612"
    },
    {
      "channel": 5,
      "note": 20,
      "start": 12.8024,
      "duration": 0.264,
      "velocity": 127,
      "chip": "ym2612"
    },
    {
      "channel": 1,
      "note": 71,
      "start": 13.0647,
      "duration": 0.2666,
      "velocity": 97,
      "chip": "ym2612"
    },
    {
      "channel": 2,
      "note": 73,
      "start": 13.0653,
      "duration": 0.2665,
      "velocity": 97,
      "chip": "ym2612"
    },
    {
      "channel": 3,
      "note": 76,
      "start": 13.0658,
      "duration": 0.2665,
      "velocity": 102,
      "chip": "ym2612"
    },
    {
      "channel": 4,
      "note": 73,
      "start": 13.0663,
      "duration": 0.2662,
      "velocity": 102,
      "chip": "ym2612"
    },
    {
      "channel": 5,
      "note": 80,
      "start": 13.069,
      "duration": 0.2637,
      "velocity": 127,
      "chip": "ym2612"
    },
    {
      "channel": 0,
      "note": 64,
      "start": 13.3312,
      "duration": 0.2663,
      "velocity": 107,
      "chip": "ym2612"
    },
    {
      "channel": 1,
      "note": 70,
      "start": 13.3317,
      "duration": 0.2663,
      "velocity": 97,
      "chip": "ym2612"
    },
    {
      "channel": 2,
      "note": 71,
      "start": 13.3322,
      "duration": 0.2663,
      "velocity": 97,
      "chip": "ym2612"
    },
    {
      "channel": 5,
      "note": 20,
      "start": 13.3354,
      "duration": 0.2646,
      "velocity": 127,
      "chip": "ym2612"
    },
    {
      "channel": 0,
      "note": 61,
      "start": 13.5978,
      "duration": 0.2663,
      "velocity": 107,
      "chip": "ym2612"
    },
    {
      "channel": 1,
      "note": 68,
      "start": 13.5983,
      "duration": 0.2663,
      "velocity": 97,
      "chip": "ym2612"
    },
    {
      "channel": 2,
      "note": 70,
      "start": 13.5989,
      "duration": 0.2663,
      "velocity": 97,
      "chip": "ym2612"
    },
    {
      "channel": 3,
      "note": 76,
      "start": 13.5994,
      "duration": 0.2663,
      "velocity": 102,
      "chip": "ym2612"
    },
    {
      "channel": 4,
      "note": 73,
      "start": 13.5999,
      "duration": 0.2661,
      "velocity": 102,
      "chip": "ym2612"
    },
    {
      "channel": 5,
      "note": 32,
      "start": 13.6026,
      "duration": 0.2637,
      "velocity": 69,
      "chip": "ym2612"
    },
    {
      "channel": 0,
      "note": 63,
      "start": 13.8645,
      "duration": 0.533,
      "velocity": 107,
      "chip": "ym2612"
    },
    {
      "channel": 1,
      "note": 67,
      "start": 13.8651,
      "duration": 0.0659,
      "velocity": 97,
      "chip": "ym2612"
    },
    {
      "channel": 2,
      "note": 68,
      "start": 13.8656,
      "duration": 0.266,
      "velocity": 97,
      "chip": "ym2612"
    },
    {
      "channel": 5,
      "note": 20,
      "start": 13.8689,
      "duration": 0.2642,
      "velocity": 127,
      "chip": "ym2612"
    },
    {
      "channel": 1,
      "note": 68,
      "start": 13.9314,
      "duration": 0.0662,
      "velocity": 97,
      "chip": "ym2612"
    },
    {
      "channel": 1,
      "note": 67,
      "start": 13.9981,
      "duration": 0.0663,
      "velocity": 97,
      "chip": "ym2612"
    },
    {
      "channel": 1,
      "note": 68,
      "start": 14.0648,
      "duration": 0.0662,
      "velocity": 97,
      "chip": "ym2612"
    },
    {
      "channel": 1,
      "note": 67,
      "start": 14.1314,
      "duration": 0.0662,
      "velocity": 97,
      "chip": "ym2612"
    },
    {
      "channel": 2,
      "note": 67,
      "start": 14.132,
      "duration": 0.0663,
      "velocity": 97,
      "chip": "ym2612"
    },
    {
      "channel": 3,
      "note": 73,
      "start": 14.1324,
      "duration": 0.2667,
      "velocity": 102,
      "chip": "ym2612"
    },
    {
      "channel": 4,
      "note": 70,
      "start": 14.133,
      "duration": 0.2663,
      "velocity": 102,
      "chip": "ym2612"
    },
    {
      "channel": 5,
      "note": 80,
      "start": 14.1357,
      "duration": 0.2637,
      "velocity": 127,
      "chip": "ym2612"
    },
    {
      "channel": 1,
      "note": 68,
      "start": 14.1981,
      "duration": 0.0663,
      "velocity": 97,
      "chip": "ym2612"
    },
    {
      "channel": 2,
      "note": 68,
      "start": 14.1986,
      "duration": 0.0663,
      "velocity": 97,
      "chip": "ym2612"
    },
    {
      "channel": 1,
      "note": 67,
      "start": 14.2648,
      "duration": 0.0662,
      "velocity": 97,
      "chip": "ym2612"
    },
    {
      "channel": 2,
      "note": 67,
      "start": 14.2653,
      "duration": 0.0663,
      "velocity": 97,
      "chip": "ym2612"
    },
    {
      "channel": 1,
      "note": 68,
      "start": 14.3314,
      "duration": 0.0666,
      "velocity": 97,
      "chip": "ym2612"
    },
    {
      "channel": 2,
      "note": 68,
      "start": 14.332,
      "duration": 0.0666,
      "velocity": 97,
      "chip": "ym2612"
    },
    {
      "channel": 0,
      "note": 67,
      "start": 14.3978,
      "duration": 0.2663,
      "velocity": 107,
      "chip": "ym2612"
    },
    {
      "channel": 1,
      "note": 67,
      "start": 14.3984,
      "duration": 0.2662,
      "velocity": 97,
      "chip": "ym2612"
    },
    {
      "channel": 2,
      "note": 67,
      "start": 14.3989,
      "duration": 0.0656,
      "velocity": 97,
      "chip": "ym2612"
    },
    {
      "channel": 5,
      "note": 20,
      "start": 14.4021,
      "duration": 0.2646,
      "velocity": 127,
      "chip": "ym2612"
    },
    {
      "channel": 2,
      "note": 68,
      "start": 14.465,
      "duration": 0.0662,
      "velocity": 97,
      "chip": "ym2612"
    },
    {
      "channel": 2,
      "note": 67,
      "start": 14.5316,
      "duration": 0.0663,
      "velocity": 97,
      "chip": "ym2612"
    },
    {
      "channel": 2,
      "note": 68,
      "start": 14.5983,
      "duration": 0.0668,
      "velocity": 97,
      "chip": "ym2612"
    },
    {
      "channel": 0,
      "note": 63,
      "start": 14.6645,
      "duration": 0.2663,
      "velocity": 107,
      "chip": "ym2612"
    },
    {
      "channel": 1,
      "note": 65,
      "start": 14.665,
      "duration": 0.1327,
      "velocity": 97,
      "chip": "ym2612"
    },
    {
      "channel": 2,
      "note": 67,
      "start": 14.6656,
      "duration": 0.2665,
      "velocity": 97,
      "chip": "ym2612"
    },
    {
      "channel": 3,
      "note": 73,
      "start": 14.6661,
      "duration": 0.2665,
      "velocity": 102,
      "chip": "ym2612"
    },
    {
      "channel": 4,
      "note": 70,
      "start": 14.6666,
      "duration": 0.2662,
      "velocity": 102,
      "chip": "ym2612"
    },
    {
      "channel": 5,
      "note": 72,
      "start": 14.6693,
      "duration": 0.2638,
      "velocity": 127,
      "chip": "ym2612"
    },
    {
      "channel": 1,
      "note": 67,
      "start": 14.798,
      "duration": 0.1334,
      "velocity": 97,
      "chip": "ym2612"
    },
    {
      "channel": 0,
      "note": 56,
      "start": 14.9313,
      "duration": 0.5329,
      "velocity": 107,
      "chip": "ym2612"
    },
    {
      "channel": 1,
      "note": 68,
      "start": 14.932,
      "duration": 1.0664,
      "velocity": 97,
      "chip": "ym2612"
    },
    {
      "channel": 2,
      "note": 65,
      "start": 14.9324,
      "duration": 0.1321,
      "velocity": 97,
      "chip": "ym2612"
    },
    {
      "channel": 5,
      "note": 20,
      "start": 14.9359,
      "duration": 0.2637,
      "velocity": 127,
      "chip": "ym2612"
    },
    {
      "channel": 2,
      "note": 67,
      "start": 15.0649,
      "duration": 0.1329,
      "velocity": 97,
      "chip": "ym2612"
    },
    {
      "channel": 2,
      "note": 68,
      "start": 15.1983,
      "duration": 1.0671,
      "velocity": 97,
      "chip": "ym2612"
    },
    {
      "channel": 3,
      "note": 75,
      "start": 15.1989,
      "duration": 0.2661,
      "velocity": 102,
      "chip": "ym2612"
    },
    {
      "channel": 4,
      "note": 71,
      "start": 15.1994,
      "duration": 0.2658,
      "velocity": 102,
      "chip": "ym2612"
    },
    {
      "channel": 5,
      "note": 80,
      "start": 15.2021,
      "duration": 0.2633,
      "velocity": 127,
      "chip": "ym2612"
    },
    {
      "channel": 0,
      "note": 51,
      "start": 15.4646,
      "duration": 0.5329,
      "velocity": 107,
      "chip": "ym2612"
    },
    {
      "channel": 5,
      "note": 20,
      "start": 15.4681,
      "duration": 0.2644,
      "velocity": 127,
      "chip": "ym2612"
    },
    {
      "channel": 3,
      "note": 75,
      "start": 15.7317,
      "duration": 0.2669,
      "velocity": 102,
      "chip": "ym2612"
    },
    {
      "channel": 4,
      "note": 71,
      "start": 15.7323,
      "duration": 0.2667,
      "velocity": 102,
      "chip": "ym2612"
    },
    {
      "channel": 5,
      "note": 32,
      "start": 15.735,
      "duration": 0.2641,
      "velocity": 69,
      "chip": "ym2612"
    },
    {
      "channel": 0,
      "note": 56,
      "start": 15.9979,
      "duration": 0.2663,
      "velocity": 107,
      "chip": "ym2612"
    },
    {
      "channel": 1,
      "note": 68,
      "start": 15.9983,
      "duration": 0.2663,
      "velocity": 97,
      "chip": "ym2612"
    },
    {
      "channel": 5,
      "note": 20,
      "start": 16.0019,
      "duration": 0.2648,
      "velocity": 127,
      "chip": "ym2612"
    },
    {
      "channel": 0,
      "note": 51,
      "start": 16.2646,
      "duration": 0.2663,
      "velocity": 107,
      "chip": "ym2612"
    },
    {
      "channel": 1,
      "note": 75,
      "start": 16.2651,
      "duration": 0.2662,
      "velocity": 97,
      "chip": "ym2612"
    },
    {
      "channel": 2,
      "note": 68,
      "start": 16.2655,
      "duration": 0.2663,
      "velocity": 97,
      "chip": "ym2612"
    },
    {
      "channel": 3,
      "note": 73,
      "start": 16.266,
      "duration": 0.2663,
      "velocity": 102,
      "chip": "ym2612"
    },
    {
      "channel": 4,
      "note": 70,
      "start": 16.2665,
      "duration": 0.266,
      "velocity": 102,
      "chip": "ym2612"
    },
    {
      "channel": 5,
      "note": 80,
      "start": 16.2692,
      "duration": 0.2635,
      "velocity": 127,
      "chip": "ym2612"
    },
    {
      "channel": 0,
      "note": 54,
      "start": 16.5312,
      "duration": 0.2663,
      "velocity": 107,
      "chip": "ym2612"
    },
    {
      "channel": 1,
      "note": 76,
      "start": 16.5317,
      "duration": 0.2663,
      "velocity": 97,
      "chip": "ym2612"
    },
    {
      "channel": 2,
      "note": 75,
      "start": 16.5322,
      "duration": 0.2663,
      "velocity": 97,
      "chip": "ym2612"
    },
    {
      "channel": 5,
      "note": 20,
      "start": 16.5354,
      "duration": 0.2646,
      "velocity": 127,
      "chip": "ym2612"
    },
    {
      "channel": 0,
      "note": 55,
      "start": 16.7978,
      "duration": 0.2663,
      "velocity": 107,
      "chip": "ym2612"
    },
    {
      "channel": 1,
      "note": 78,
      "start": 16.7983,
      "duration": 0.2664,
      "velocity": 97,
      "chip": "ym2612"
    },
    {
      "channel": 2,
      "note": 76,
      "start": 16.7989,
      "duration": 0.2665,
      "velocity": 97,
      "chip": "ym2612"
    },
    {
      "channel": 3,
      "note": 73,
      "start": 16.7994,
      "duration": 0.2666,
      "velocity": 102,
      "chip": "ym2612"
    },
    {
      "channel": 4,
      "note": 70,
      "start": 16.7999,
      "duration": 0.2663,
      "velocity": 102,
      "chip": "ym2612"
    },
    {
      "channel": 5,
      "note": 72,
      "start": 16.8026,
      "duration": 0.2639,
      "velocity": 127,
      "chip": "ym2612"
    },
    {
      "channel": 0,
      "note": 56,
      "start": 17.0646,
      "duration": 0.5329,
      "velocity": 107,
      "chip": "ym2612"
    },
    {
      "channel": 1,
      "note": 80,
      "start": 17.0653,
      "duration": 0.2657,
      "velocity": 97,
      "chip": "ym2612"
    },
    {
      "channel": 2,
      "note": 78,
      "start": 17.0658,
      "duration": 0.2657,
      "velocity": 97,
      "chip": "ym2612"
    },
    {
      "channel": 5,
      "note": 20,
      "start": 17.0692,
      "duration": 0.264,
      "velocity": 127,
      "chip": "ym2612"
    },
    {
      "channel": 1,
      "note": 82,
      "start": 17.3314,
      "duration": 0.2667,
      "velocity": 97,
      "chip": "ym2612"
    },
    {
      "channel": 2,
      "note": 80,
      "start": 17.332,
      "duration": 0.2666,
      "velocity": 97,
      "chip": "ym2612"
    },
    {
      "channel": 3,
      "note": 75,
      "start": 17.3325,
      "duration": 0.2665,
      "velocity": 102,
      "chip": "ym2612"
    },
    {
      "channel": 4,
      "note": 71,
      "start": 17.3331,
      "duration": 0.2661,
      "velocity": 102,
      "chip": "ym2612"
    },
    {
      "channel": 5,
      "note": 80,
      "start": 17.3358,
      "duration": 0.2636,
      "velocity": 127,
      "chip": "ym2612"
    },
    {
      "channel": 0,
      "note": 51,
      "start": 17.5979,
      "duration": 0.5329,
      "velocity": 107,
      "chip": "ym2612"
    },
    {
      "channel": 1,
      "note": 83,
      "start": 17.5984,
      "duration": 0.2659,
      "velocity": 97,
      "chip": "ym2612"
    },
    {
      "channel": 2,
      "note": 82,
      "start": 17.5989,
      "duration": 0.2659,
      "velocity": 97,
      "chip": "ym2612"
    },
    {
      "channel": 5,
      "note": 20,
      "start": 17.602,
      "duration": 0.2643,
      "velocity": 127,
      "chip": "ym2612"
    },
    {
      "channel": 1,
      "note": 80,
      "start": 17.8647,
      "duration": 0.2666,
      "velocity": 97,
      "chip": "ym2612"
    },
    {
      "channel": 2,
      "note": 83,
      "start": 17.8652,
      "duration": 0.2666,
      "velocity": 97,
      "chip": "ym2612"
    },
    {
      "channel": 3,
      "note": 75,
      "start": 17.8657,
      "duration": 0.2666,
      "velocity": 102,
      "chip": "ym2612"
    },
    {
      "channel": 4,
      "note": 71,
      "start": 17.8662,
      "duration": 0.2663,
      "velocity": 102,
      "chip": "ym2612"
    },
    {
      "channel": 5,
      "note": 32,
      "start": 17.8689,
      "duration": 0.2639,
      "velocity": 69,
      "chip": "ym2612"
    },
    {
      "channel": 0,
      "note": 49,
      "start": 18.1312,
      "duration": 0.533,
      "velocity": 107,
      "chip": "ym2612"
    },
    {
      "channel": 1,
      "note": 82,
      "start": 18.1317,
      "duration": 0.266,
      "velocity": 97,
      "chip": "ym2612"
    },
    {
      "channel": 2,
      "note": 80,
      "start": 18.1322,
      "duration": 0.266,
      "velocity": 97,
      "chip": "ym2612"
    },
    {
      "channel": 5,
      "note": 20,
      "start": 18.1355,
      "duration": 0.2642,
      "velocity": 127,
      "chip": "ym2612"
    },
    {
      "channel": 1,
      "note": 80,
      "start": 18.398,
      "duration": 0.2667,
      "velocity": 97,
      "chip": "ym2612"
    },
    {
      "channel": 2,
      "note": 82,
      "start": 18.3985,
      "duration": 0.2667,
      "velocity": 97,
      "chip": "ym2612"
    },
    {
      "channel": 3,
      "note": 73,
      "start": 18.399,
      "duration": 0.2667,
      "velocity": 102,
      "chip": "ym2612"
    },
    {
      "channel": 4,
      "note": 70,
      "start": 18.3996,
      "duration": 0.2663,
      "velocity": 102,
      "chip": "ym2612"
    },
    {
      "channel": 5,
      "note": 80,
      "start": 18.4022,
      "duration": 0.2638,
      "velocity": 127,
      "chip": "ym2612"
    },
    {
      "channel": 0,
      "note": 51,
      "start": 18.6646,
      "duration": 0.2663,
      "velocity": 107,
      "chip": "ym2612"
    },
    {
      "channel": 1,
      "note": 79,
      "start": 18.6651,
      "duration": 0.2662,
      "velocity": 97,
      "chip": "ym2612"
    },
    {
      "channel": 2,
      "note": 80,
      "start": 18.6656,
      "duration": 0.2663,
      "velocity": 97,
      "chip": "ym2612"
    },
    {
      "channel": 5,
      "note": 20,
      "start": 18.6688,
      "duration": 0.2646,
      "velocity": 127,
      "chip": "ym2612"
    },
    {
      "channel": 0,
      "note": 55,
      "start": 18.9312,
      "duration": 0.2663,
      "velocity": 107,
      "chip": "ym2612"
    },
    {
      "channel": 1,
      "note": 82,
      "start": 18.9317,
      "duration": 0.2663,
      "velocity": 97,
      "chip": "ym2612"
    },
    {
      "channel": 2,
      "note": 79,
      "start": 18.9323,
      "duration": 0.2665,
      "velocity": 97,
      "chip": "ym2612"
    },
    {
      "channel": 3,
      "note": 73,
      "start": 18.9328,
      "duration": 0.2665,
      "velocity": 102,
      "chip": "ym2612"
    },
    {
      "channel": 4,
      "note": 70,
      "start": 18.9333,
      "duration": 0.2662,
      "velocity": 102,
      "chip": "ym2612"
    },
    {
      "channel": 5,
      "note": 72,
      "start": 18.9359,
      "duration": 0.2639,
      "velocity": 127,
      "chip": "ym2612"
    },
    {
      "channel": 0,
      "note": 56,
      "start": 19.198,
      "duration": 0.5329,
      "velocity": 107,
      "chip": "ym2612"
    },
    {
      "channel": 1,
      "note": 80,
      "start": 19.1986,
      "duration": 0.2657,
      "velocity": 97,
      "chip": "ym2612"
    },
    {
      "channel": 2,
      "note": 82,
      "start": 19.1991,
      "duration": 0.2657,
      "velocity": 97,
      "chip": "ym2612"
    },
    {
      "channel": 5,
      "note": 20,
      "start": 19.2026,
      "duration": 0.264,
      "velocity": 127,
      "chip": "ym2612"
    },
    {
      "channel": 1,
      "note": 82,
      "start": 19.4647,
      "duration": 0.2667,
      "velocity": 97,
      "chip": "ym2612"
    },
    {
      "channel": 2,
      "note": 80,
      "start": 19.4653,
      "duration": 0.2666,
      "velocity": 97,
      "chip": "ym2612"
    },
    {
      "channel": 3,
      "note": 75,
      "start": 19.4659,
      "duration": 0.2665,
      "velocity": 102,
      "chip": "ym2612"
    },
    {
      "channel": 4,
      "note": 71,
      "start": 19.4664,
      "duration": 0.2661,
      "velocity": 102,
      "chip": "ym2612"
    },
    {
      "channel": 5,
      "note": 80,
      "start": 19.4691,
      "duration": 0.2636,
      "velocity": 127,
      "chip": "ym2612"
    },
    {
      "channel": 0,
      "note": 51,
      "start": 19.7312,
      "duration": 0.5329,
      "velocity": 107,
      "chip": "ym2612"
    },
    {
      "channel": 1,
      "note": 83,
      "start": 19.7317,
      "duration": 0.2659,
      "velocity": 97,
      "chip": "ym2612"
    },
    {
      "channel": 2,
      "note": 82,
      "start": 19.7323,
      "duration": 0.2659,
      "velocity": 97,
      "chip": "ym2612"
    },
    {
      "channel": 5,
      "note": 20,
      "start": 19.7354,
      "duration": 0.2643,
      "velocity": 127,
      "chip": "ym2612"
    },
    {
      "channel": 1,
      "note": 80,
      "start": 19.998,
      "duration": 0.2666,
      "velocity": 97,
      "chip": "ym2612"
    },
    {
      "channel": 2,
      "note": 83,
      "start": 19.9985,
      "duration": 0.2666,
      "velocity": 97,
      "chip": "ym2612"
    },
    {
      "channel": 3,
      "note": 75,
      "start": 19.999,
      "duration": 0.2666,
      "velocity": 102,
      "chip": "ym2612"
    },
    {
      "channel": 4,
      "note": 71,
      "start": 19.9996,
      "duration": 0.2663,
      "velocity": 102,
      "chip": "ym2612"
    },
    {
      "channel": 5,
      "note": 32,
      "start": 20.0022,
      "duration": 0.2639,
      "velocity": 69,
      "chip": "ym2612"
    },
    {
      "channel": 0,
      "note": 49,
      "start": 20.2645,
      "duration": 0.533,
      "velocity": 107,
      "chip": "ym2612"
    },
    {
      "channel": 1,
      "note": 82,
      "start": 20.265,
      "duration": 0.266,
      "velocity": 97,
      "chip": "ym2612"
    },
    {
      "channel": 2,
      "note": 80,
      "start": 20.2655,
      "duration": 0.266,
      "velocity": 97,
      "chip": "ym2612"
    },
    {
      "channel": 5,
      "note": 20,
      "start": 20.2688,
      "duration": 0.2642,
      "velocity": 127,
      "chip": "ym2612"
    },
    {
      "channel": 1,
      "note": 80,
      "start": 20.5314,
      "duration": 0.2667,
      "velocity": 97,
      "chip": "ym2612"
    },
    {
      "channel": 2,
      "note": 82,
      "start": 20.5319,
      "duration": 0.2667,
      "velocity": 97,
      "chip": "ym2612"
    },
    {
      "channel": 3,
      "note": 73,
      "start": 20.5324,
      "duration": 0.2667,
      "velocity": 102,
      "chip": "ym2612"
    },
    {
      "channel": 4,
      "note": 70,
      "start": 20.5329,
      "duration": 0.2663,
      "velocity": 102,
      "chip": "ym2612"
    },
    {
      "channel": 5,
      "note": 80,
      "start": 20.5356,
      "duration": 0.2638,
      "velocity": 127,
      "chip": "ym2612"
    },
    {
      "channel": 0,
      "note": 51,
      "start": 20.7979,
      "duration": 0.2663,
      "velocity": 107,
      "chip": "ym2612"
    },
    {
      "channel": 1,
      "note": 79,
      "start": 20.7984,
      "duration": 0.2662,
      "velocity": 97,
      "chip": "ym2612"
    },
    {
      "channel": 2,
      "note": 80,
      "start": 20.7989,
      "duration": 0.2663,
      "velocity": 97,
      "chip": "ym2612"
    },
    {
      "channel": 5,
      "note": 20,
      "start": 20.8021,
      "duration": 0.2646,
      "velocity": 127,
      "chip": "ym2612"
    },
    {
      "channel": 0,
      "note": 55,
      "start": 21.0645,
      "duration": 0.2663,
      "velocity": 107,
      "chip": "ym2612"
    },
    {
      "channel": 1,
      "note": 82,
      "start": 21.0651,
      "duration": 0.2663,
      "velocity": 97,
      "chip": "ym2612"
    },
    {
      "channel": 2,
      "note": 79,
      "start": 21.0656,
      "duration": 0.2664,
      "velocity": 97,
      "chip": "ym2612"
    },
    {
      "channel": 3,
      "note": 73,
      "start": 21.0661,
      "duration": 0.2665,
      "velocity": 102,
      "chip": "ym2612"
    },
    {
      "channel": 4,
      "note": 70,
      "start": 21.0666,
      "duration": 0.2662,
      "velocity": 102,
      "chip": "ym2612"
    },
    {
      "channel": 5,
      "note": 72,
      "start": 21.0693,
      "duration": 0.2638,
      "velocity": 127,
      "chip": "ym2612"
    },
    {
      "channel": 0,
      "note": 56,
      "start": 21.3313,
      "duration": 0.5329,
      "velocity": 107,
      "chip": "ym2612"
    },
    {
      "channel": 1,
      "note": 80,
      "start": 21.3319,
      "duration": 0.2658,
      "velocity": 97,
      "chip": "ym2612"
    },
    {
      "channel": 2,
      "note": 82,
      "start": 21.3324,
      "duration": 0.2658,
      "velocity": 97,
      "chip": "ym2612"
    },
    {
      "channel": 5,
      "note": 20,
      "start": 21.3359,
      "duration": 0.2639,
      "velocity": 127,
      "chip": "ym2612"
    },
    {
      "channel": 1,
      "note": 82,
      "start": 21.598,
      "duration": 0.2667,
      "velocity": 97,
      "chip": "ym2612"
    },
    {
      "channel": 2,
      "note": 80,
      "start": 21.5986,
      "duration": 0.2666,
      "velocity": 97,
      "chip": "ym2612"
    },
    {
      "channel": 3,
      "note": 75,
      "start": 21.5992,
      "duration": 0.2665,
      "velocity": 102,
      "chip": "ym2612"
    },
    {
      "channel": 4,
      "note": 71,
      "start": 21.5997,
      "duration": 0.2662,
      "velocity": 102,
      "chip": "ym2612"
    },
    {
      "channel": 5,
      "note": 80,
      "start": 21.6024,
      "duration": 0.2637,
      "velocity": 127,
      "chip": "ym2612"
    },
    {
      "channel": 0,
      "note": 51,
      "start": 21.8646,
      "duration": 0.5329,
      "velocity": 107,
      "chip": "ym2612"
    },
    {
      "channel": 1,
      "note": 83,
      "start": 21.8651,
      "duration": 0.2659,
      "velocity": 97,
      "chip": "ym2612"
    },
    {
      "channel": 2,
      "note": 82,
      "start": 21.8656,
      "duration": 0.2659,
      "velocity": 97,
      "chip": "ym2612"
    },
    {
      "channel": 5,
      "note": 20,
      "start": 21.8687,
      "duration": 0.2643,
      "velocity": 127,
      "chip": "ym2612"
    },
    {
      "channel": 1,
      "note": 80,
      "start": 22.1314,
      "duration": 0.2667,
      "velocity": 97,
      "chip": "ym2612"
    },
    {
      "channel": 2,
      "note": 83,
      "start": 22.1319,
      "duration": 0.2667,
      "velocity": 97,
      "chip": "ym2612"
    },
    {
      "channel": 3,
      "note": 75,
      "start": 22.1324,
      "duration": 0.2667,
      "velocity": 102,
      "chip": "ym2612"
    },
    {
      "channel": 4,
      "note": 71,
      "start": 22.1329,
      "duration": 0.2664,
      "velocity": 102,
      "chip": "ym2612"
    },
    {
      "channel": 5,
      "note": 32,
      "start": 22.1356,
      "duration": 0.264,
      "velocity": 69,
      "chip": "ym2612"
    },
    {
      "channel": 0,
      "note": 56,
      "start": 22.3979,
      "duration": 0.2663,
      "velocity": 107,
      "chip": "ym2612"
    },
    {
      "channel": 1,
      "note": 84,
      "start": 22.3984,
      "duration": 0.2663,
      "velocity": 97,
      "chip": "ym2612"
    },
    {
      "channel": 2,
      "note": 80,
      "start": 22.3989,
      "duration": 0.2663,
      "velocity": 97,
      "chip": "ym2612"
    },
    {
      "channel": 5,
      "note": 20,
      "start": 22.4022,
      "duration": 0.2645,
      "velocity": 127,
      "chip": "ym2612"
    },
    {
      "channel": 0,
      "note": 51,
      "start": 22.6646,
      "duration": 0.2663,
      "velocity": 107,
      "chip": "ym2612"
    },
    {
      "channel": 1,
      "note": 85,
      "start": 22.6651,
      "duration": 0.2662,
      "velocity": 97,
      "chip": "ym2612"
    },
    {
      "channel": 2,
      "note": 84,
      "start": 22.6656,
      "duration": 0.2662,
      "velocity": 97,
      "chip": "ym2612"
    },
    {
      "channel": 3,
      "note": 75,
      "start": 22.6661,
      "duration": 0.2662,
      "velocity": 102,
      "chip": "ym2612"
    },
    {
      "channel": 4,
      "note": 72,
      "start": 22.6666,
      "duration": 0.2659,
      "velocity": 102,
      "chip": "ym2612"
    },
    {
      "channel": 5,
      "note": 80,
      "start": 22.6693,
      "duration": 0.2634,
      "velocity": 127,
      "chip": "ym2612"
    },
    {
      "channel": 0,
      "note": 54,
      "start": 22.9312,
      "duration": 0.2663,
      "velocity": 107,
      "chip": "ym2612"
    },
    {
      "channel": 1,
      "note": 87,
      "start": 22.9317,
      "duration": 0.2663,
      "velocity": 97,
      "chip": "ym2612"
    },
    {
      "channel": 2,
      "note": 85,
      "start": 22.9322,
      "duration": 0.2663,
      "velocity": 97,
      "chip": "ym2612"
    },
    {
      "channel": 5,
      "note": 20,
      "start": 22.9354,
      "duration": 0.2647,
      "velocity": 127,
      "chip": "ym2612"
    },
    {
      "channel": 0,
      "note": 56,
      "start": 23.1979,
      "duration": 0.2663,
      "velocity": 107,
      "chip": "ym2612"
    },
    {
      "channel": 1,
      "note": 90,
      "start": 23.1984,
      "duration": 0.2663,
      "velocity": 97,
      "chip": "ym2612"
    },
    {
      "channel": 2,
      "note": 87,
      "start": 23.1989,
      "duration": 0.2664,
      "velocity": 97,
      "chip": "ym2612"
    },
    {
      "channel": 3,
      "note": 75,
      "start": 23.1994,
      "duration": 0.2664,
      "velocity": 102,
      "chip": "ym2612"
    },
    {
      "channel": 4,
      "note": 72,
      "start": 23.2,
      "duration": 0.2661,
      "velocity": 102,
      "chip": "ym2612"
    },
    {
      "channel": 5,
      "note": 72,
      "start": 23.2026,
      "duration": 0.2637,
      "velocity": 127,
      "chip": "ym2612"
    },
    {
      "channel": 0,
      "note": 49,
      "start": 23.4646,
      "duration": 0.5329,
      "velocity": 107,
      "chip": "ym2612"
    },
    {
      "channel": 1,
      "note": 88,
      "start": 23.4652,
      "duration": 0.2658,
      "velocity": 97,
      "chip": "ym2612"
    },
    {
      "channel": 2,
      "note": 90,
      "start": 23.4657,
      "duration": 0.2658,
      "velocity": 97,
      "chip": "ym2612"
    },
    {
      "channel": 5,
      "note": 20,
      "start": 23.4691,
      "duration": 0.264,
      "velocity": 127,
      "chip": "ym2612"
    },
    {
      "channel": 1,
      "note": 80,
      "start": 23.7314,
      "duration": 0.2667,
      "velocity": 97,
      "chip": "ym2612"
    },
    {
      "channel": 2,
      "note": 88,
      "start": 23.732,
      "duration": 0.2666,
      "velocity": 97,
      "chip": "ym2612"
    },
    {
      "channel": 3,
      "note": 76,
      "start": 23.7324,
      "duration": 0.2666,
      "velocity": 102,
      "chip": "ym2612"
    },
    {
      "channel": 4,
      "note": 73,
      "start": 23.733,
      "duration": 0.2662,
      "velocity": 102,
      "chip": "ym2612"
    },
    {
      "channel": 5,
      "note": 80,
      "start": 23.7357,
      "duration": 0.2637,
      "velocity": 127,
      "chip": "ym2612"
    },
    {
      "channel": 0,
      "note": 56,
      "start": 23.9979,
      "duration": 0.5329,
      "velocity": 107,
      "chip": "ym2612"
    },
    {
      "channel": 1,
      "note": 87,
      "start": 23.9984,
      "duration": 0.2659,
      "velocity": 97,
      "chip": "ym2612"
    },
    {
      "channel": 2,
      "note": 80,
      "start": 23.9989,
      "duration": 0.2659,
      "velocity": 97,
      "chip": "ym2612"
    },
    {
      "channel": 5,
      "note": 20,
      "start": 24.002,
      "duration": 0.2643,
      "velocity": 127,
      "chip": "ym2612"
    },
    {
      "channel": 1,
      "note": 80,
      "start": 24.2647,
      "duration": 0.2667,
      "velocity": 97,
      "chip": "ym2612"
    },
    {
      "channel": 2,
      "note": 87,
      "start": 24.2652,
      "duration": 0.2667,
      "velocity": 97,
      "chip": "ym2612"
    },
    {
      "channel": 3,
      "note": 76,
      "start": 24.2657,
      "duration": 0.2667,
      "velocity": 102,
      "chip": "ym2612"
    },
    {
      "channel": 4,
      "note": 73,
      "start": 24.2662,
      "duration": 0.2664,
      "velocity": 102,
      "chip": "ym2612"
    },
    {
      "channel": 5,
      "note": 32,
      "start": 24.2689,
      "duration": 0.264,
      "velocity": 69,
      "chip": "ym2612"
    },
    {
      "channel": 0,
      "note": 49,
      "start": 24.5312,
      "duration": 0.2663,
      "velocity": 107,
      "chip": "ym2612"
    },
    {
      "channel": 1,
      "note": 85,
      "start": 24.5317,
      "duration": 0.5329,
      "velocity": 97,
      "chip": "ym2612"
    },
    {
      "channel": 2,
      "note": 80,
      "start": 24.5323,
      "duration": 0.2659,
      "velocity": 97,
      "chip": "ym2612"
    },
    {
      "channel": 5,
      "note": 20,
      "start": 24.5356,
      "duration": 0.2641,
      "velocity": 127,
      "chip": "ym2612"
    },
    {
      "channel": 0,
      "note": 49,
      "start": 24.7978,
      "duration": 0.2663,
      "velocity": 107,
      "chip": "ym2612"
    },
    {
      "channel": 2,
      "note": 85,
      "start": 24.7985,
      "duration": 0.5333,
      "velocity": 97,
      "chip": "ym2612"
    },
    {
      "channel": 3,
      "note": 76,
      "start": 24.799,
      "duration": 0.2663,
      "velocity": 102,
      "chip": "ym2612"
    },
    {
      "channel": 4,
      "note": 73,
      "start": 24.7996,
      "duration": 0.266,
      "velocity": 102,
      "chip": "ym2612"
    },
    {
      "channel": 5,
      "note": 80,
      "start": 24.8023,
      "duration": 0.2634,
      "velocity": 127,
      "chip": "ym2612"
    },
    {
      "channel": 0,
      "note": 51,
      "start": 25.0645,
      "duration": 0.2663,
      "velocity": 107,
      "chip": "ym2612"
    },
    {
      "channel": 1,
      "note": 87,
      "start": 25.065,
      "duration": 0.2663,
      "velocity": 97,
      "chip": "ym2612"
    },
    {
      "channel": 5,
      "note": 20,
      "start": 25.0684,
      "duration": 0.2649,
      "velocity": 127,
      "chip": "ym2612"
    },
    {
      "channel": 0,
      "note": 52,
      "start": 25.3312,
      "duration": 0.2663,
      "velocity": 107,
      "chip": "ym2612"
    },
    {
      "channel": 1,
      "note": 88,
      "start": 25.3317,
      "duration": 0.2664,
      "velocity": 97,
      "chip": "ym2612"
    },
    {
      "channel": 2,
      "note": 87,
      "start": 25.3322,
      "duration": 0.2665,
      "velocity": 97,
      "chip": "ym2612"
    },
    {
      "channel": 3,
      "note": 76,
      "start": 25.3327,
      "duration": 0.2665,
      "velocity": 102,
      "chip": "ym2612"
    },
    {
      "channel": 4,
      "note": 73,
      "start": 25.3332,
      "duration": 0.2662,
      "velocity": 102,
      "chip": "ym2612"
    },
    {
      "channel": 5,
      "note": 72,
      "start": 25.3359,
      "duration": 0.2638,
      "velocity": 127,
      "chip": "ym2612"
    },
    {
      "channel": 0,
      "note": 54,
      "start": 25.598,
      "duration": 0.5329,
      "velocity": 107,
      "chip": "ym2612"
    },
    {
      "channel": 1,
      "note": 90,
      "start": 25.5985,
      "duration": 0.2658,
      "velocity": 97,
      "chip": "ym2612"
    },
    {
      "channel": 2,
      "note": 88,
      "start": 25.599,
      "duration": 0.2658,
      "velocity": 97,
      "chip": "ym2612"
    },
    {
      "channel": 5,
      "note": 20,
      "start": 25.6024,
      "duration": 0.264,
      "velocity": 127,
      "chip": "ym2612"
    },
    {
      "channel": 1,
      "note": 85,
      "start": 25.8647,
      "duration": 0.2666,
      "velocity": 97,
      "chip": "ym2612"
    },
    {
      "channel": 2,
      "note": 90,
      "start": 25.8653,
      "duration": 0.2665,
      "velocity": 97,
      "chip": "ym2612"
    },
    {
      "channel": 3,
      "note": 76,
      "start": 25.8658,
      "duration": 0.2665,
      "velocity": 102,
      "chip": "ym2612"
    },
    {
      "channel": 4,
      "note": 73,
      "start": 25.8663,
      "duration": 0.2662,
      "velocity": 102,
      "chip": "ym2612"
    },
    {
      "channel": 5,
      "note": 80,
      "start": 25.869,
      "duration": 0.2637,
      "velocity": 127,
      "chip": "ym2612"
    },
    {
      "channel": 0,
      "note": 49,
      "start": 26.1312,
      "duration": 0.533,
      "velocity": 107,
      "chip": "ym2612"
    },
    {
      "channel": 1,
      "note": 82,
      "start": 26.1317,
      "duration": 0.266,
      "velocity": 97,
      "chip": "ym2612"
    },
    {
      "channel": 2,
      "note": 85,
      "start": 26.1322,
      "duration": 0.266,
      "velocity": 97,
      "chip": "ym2612"
    },
    {
      "channel": 5,
      "note": 20,
      "start": 26.1354,
      "duration": 0.2643,
      "velocity": 127,
      "chip": "ym2612"
    },
    {
      "channel": 1,
      "note": 90,
      "start": 26.398,
      "duration": 0.2667,
      "velocity": 97,
      "chip": "ym2612"
    },
    {
      "channel": 2,
      "note": 82,
      "start": 26.3985,
      "duration": 0.2667,
      "velocity": 97,
      "chip": "ym2612"
    },
    {
      "channel": 3,
      "note": 76,
      "start": 26.399,
      "duration": 0.2667,
      "velocity": 102,
      "chip": "ym2612"
    },
    {
      "channel": 4,
      "note": 73,
      "start": 26.3996,
      "duration": 0.2664,
      "velocity": 102,
      "chip": "ym2612"
    },
    {
      "channel": 5,
      "note": 32,
      "start": 26.4022,
      "duration": 0.264,
      "velocity": 69,
      "chip": "ym2612"
    },
    {
      "channel": 0,
      "note": 59,
      "start": 26.6646,
      "duration": 0.2663,
      "velocity": 107,
      "chip": "ym2612"
    },
    {
      "channel": 1,
      "note": 87,
      "start": 26.6651,
      "duration": 0.2662,
      "velocity": 97,
      "chip": "ym2612"
    },
    {
      "channel": 2,
      "note": 90,
      "start": 26.6656,
      "duration": 0.2662,
      "velocity": 97,
      "chip": "ym2612"
    },
    {
      "channel": 5,
      "note": 20,
      "start": 26.669,
      "duration": 0.2644,
      "velocity": 127,
      "chip": "ym2612"
    },
    {
      "channel": 0,
      "note": 59,
      "start": 26.9312,
      "duration": 0.2663,
      "velocity": 107,
      "chip": "ym2612"
    },
    {
      "channel": 1,
      "note": 83,
      "start": 26.9317,
      "duration": 0.2663,
      "velocity": 97,
      "chip": "ym2612"
    },
    {
      "channel": 2,
      "note": 87,
      "start": 26.9322,
      "duration": 0.2663,
      "velocity": 97,
      "chip": "ym2612"
    },
    {
      "channel": 3,
      "note": 75,
      "start": 26.9328,
      "duration": 0.2663,
      "velocity": 102,
      "chip": "ym2612"
    },
    {
      "channel": 4,
      "note": 71,
      "start": 26.9333,
      "duration": 0.2659,
      "velocity": 102,
      "chip": "ym2612"
    },
    {
      "channel": 5,
      "note": 80,
      "start": 26.9359,
      "duration": 0.2634,
      "velocity": 127,
      "chip": "ym2612"
    },
    {
      "channel": 0,
      "note": 54,
      "start": 27.1979,
      "duration": 0.2663,
      "velocity": 107,
      "chip": "ym2612"
    },
    {
      "channel": 1,
      "note": 85,
      "start": 27.1984,
      "duration": 0.2663,
      "velocity": 97,
      "chip": "ym2612"
    },
    {
      "channel": 2,
      "note": 83,
      "start": 27.1989,
      "duration": 0.2663,
      "velocity": 97,
      "chip": "ym2612"
    },
    {
      "channel": 5,
      "note": 20,
      "start": 27.202,
      "duration": 0.2647,
      "velocity": 127,
      "chip": "ym2612"
    },
    {
      "channel": 0,
      "note": 59,
      "start": 27.4646,
      "duration": 0.2663,
      "velocity": 107,
      "chip": "ym2612"
    },
    {
      "channel": 1,
      "note": 87,
      "start": 27.4651,
      "duration": 0.2663,
      "velocity": 97,
      "chip": "ym2612"
    },
    {
      "channel": 2,
      "note": 85,
      "start": 27.4656,
      "duration": 0.2664,
      "velocity": 97,
      "chip": "ym2612"
    },
    {
      "channel": 3,
      "note": 75,
      "start": 27.4661,
      "duration": 0.2664,
      "velocity": 102,
      "chip": "ym2612"
    },
    {
      "channel": 4,
      "note": 71,
      "start": 27.4666,
      "duration": 0.2661,
      "velocity": 102,
      "chip": "ym2612"
    },
    {
      "channel": 5,
      "note": 72,
      "start": 27.4693,
      "duration": 0.2637,
      "velocity": 127,
      "chip": "ym2612"
    },
    {
      "channel": 0,
      "note": 57,
      "start": 27.7313,
      "duration": 0.5329,
      "velocity": 107,
      "chip": "ym2612"
    },
    {
      "channel": 1,
      "note": 88,
      "start": 27.7319,
      "duration": 0.2658,
      "velocity": 97,
      "chip": "ym2612"
    },
    {
      "channel": 2,
      "note": 87,
      "start": 27.7324,
      "duration": 0.2658,
      "velocity": 97,
      "chip": "ym2612"
    },
    {
      "channel": 5,
      "note": 20,
      "start": 27.7358,
      "duration": 0.264,
      "velocity": 127,
      "chip": "ym2612"
    },
    {
      "channel": 1,
      "note": 81,
      "start": 27.998,
      "duration": 0.2667,
      "velocity": 97,
      "chip": "ym2612"
    },
    {
      "channel": 2,
      "note": 88,
      "start": 27.9986,
      "duration": 0.2666,
      "velocity": 97,
      "chip": "ym2612"
    },
    {
      "channel": 3,
      "note": 76,
      "start": 27.9991,
      "duration": 0.2666,
      "velocity": 102,
      "chip": "ym2612"
    },
    {
      "channel": 4,
      "note": 73,
      "start": 27.9996,
      "duration": 0.2662,
      "velocity": 102,
      "chip": "ym2612"
    },
    {
      "channel": 5,
      "note": 80,
      "start": 28.0024,
      "duration": 0.2637,
      "velocity": 127,
      "chip": "ym2612"
    },
    {
      "channel": 0,
      "note": 52,
      "start": 28.2646,
      "duration": 0.5329,
      "velocity": 107,
      "chip": "ym2612"
    },
    {
      "channel": 1,
      "note": 87,
      "start": 28.2651,
      "duration": 0.2659,
      "velocity": 97,
      "chip": "ym2612"
    },
    {
      "channel": 2,
      "note": 81,
      "start": 28.2656,
      "duration": 0.2659,
      "velocity": 97,
      "chip": "ym2612"
    },
    {
      "channel": 5,
      "note": 20,
      "start": 28.2687,
      "duration": 0.2643,
      "velocity": 127,
      "chip": "ym2612"
    },
    {
      "channel": 1,
      "note": 85,
      "start": 28.5314,
      "duration": 0.2667,
      "velocity": 97,
      "chip": "ym2612"
    },
    {
      "channel": 2,
      "note": 87,
      "start": 28.5319,
      "duration": 0.2667,
      "velocity": 97,
      "chip": "ym2612"
    },
    {
      "channel": 3,
      "note": 76,
      "start": 28.5324,
      "duration": 0.2667,
      "velocity": 102,
      "chip": "ym2612"
    },
    {
      "channel": 4,
      "note": 73,
      "start": 28.5329,
      "duration": 0.2664,
      "velocity": 102,
      "chip": "ym2612"
    },
    {
      "channel": 5,
      "note": 32,
      "start": 28.5356,
      "duration": 0.264,
      "velocity": 69,
      "chip": "ym2612"
    },
    {
      "channel": 0,
      "note": 56,
      "start": 28.7979,
      "duration": 0.2663,
      "velocity": 107,
      "chip": "ym2612"
    },
    {
      "channel": 1,
      "note": 83,
      "start": 28.7984,
      "duration": 0.5329,
      "velocity": 97,
      "chip": "ym2612"
    },
    {
      "channel": 2,
      "note": 85,
      "start": 28.7989,
      "duration": 0.2659,
      "velocity": 97,
      "chip": "ym2612"
    },
    {
      "channel": 5,
      "note": 20,
      "start": 28.8023,
      "duration": 0.2641,
      "velocity": 127,
      "chip": "ym2612"
    },
    {
      "channel": 0,
      "note": 56,
      "start": 29.0645,
      "duration": 0.2663,
      "velocity": 107,
      "chip": "ym2612"
    },
    {
      "channel": 2,
      "note": 83,
      "start": 29.0652,
      "duration": 0.5333,
      "velocity": 97,
      "chip": "ym2612"
    },
    {
      "channel": 3,
      "note": 75,
      "start": 29.0658,
      "duration": 0.2663,
      "velocity": 102,
      "chip": "ym2612"
    },
    {
      "channel": 4,
      "note": 71,
      "start": 29.0663,
      "duration": 0.2659,
      "velocity": 102,
      "chip": "ym2612"
    },
    {
      "channel": 5,
      "note": 80,
      "start": 29.069,
      "duration": 0.2634,
      "velocity": 127,
      "chip": "ym2612"
    },
    {
      "channel": 0,
      "note": 54,
      "start": 29.3312,
      "duration": 0.2663,
      "velocity": 107,
      "chip": "ym2612"
    },
    {
      "channel": 1,
      "note": 82,
      "start": 29.3317,
      "duration": 0.2663,
      "velocity": 97,
      "chip": "ym2612"
    },
    {
      "channel": 5,
      "note": 20,
      "start": 29.3351,
      "duration": 0.265,
      "velocity": 127,
      "chip": "ym2612"
    },
    {
      "channel": 0,
      "note": 56,
      "start": 29.5979,
      "duration": 0.2663,
      "velocity": 107,
      "chip": "ym2612"
    },
    {
      "channel": 1,
      "note": 83,
      "start": 29.5984,
      "duration": 0.2663,
      "velocity": 97,
      "chip": "ym2612"
    },
    {
      "channel": 2,
      "note": 82,
      "start": 29.5989,
      "duration": 0.2664,
      "velocity": 97,
      "chip": "ym2612"
    },
    {
      "channel": 3,
      "note": 75,
      "start": 29.5994,
      "duration": 0.2664,
      "velocity": 102,
      "chip": "ym2612"
    },
    {
      "channel": 4,
      "note": 71,
      "start": 29.6,
      "duration": 0.2661,
      "velocity": 102,
      "chip": "ym2612"
    },
    {
      "channel": 5,
      "note": 72,
      "start": 29.6026,
      "duration": 0.2637,
      "velocity": 127,
      "chip": "ym2612"
    },
    {
      "channel": 0,
      "note": 61,
      "start": 29.8646,
      "duration": 0.5329,
      "velocity": 107,
      "chip": "ym2612"
    },
    {
      "channel": 1,
      "note": 85,
      "start": 29.8652,
      "duration": 0.2658,
      "velocity": 97,
      "chip": "ym2612"
    },
    {
      "channel": 2,
      "note": 83,
      "start": 29.8657,
      "duration": 0.2658,
      "velocity": 97,
      "chip": "ym2612"
    },
    {
      "channel": 5,
      "note": 20,
      "start": 29.8691,
      "duration": 0.264,
      "velocity": 127,
      "chip": "ym2612"
    },
    {
      "channel": 1,
      "note": 83,
      "start": 30.1314,
      "duration": 0.2666,
      "velocity": 97,
      "chip": "ym2612"
    },
    {
      "channel": 2,
      "note": 85,
      "start": 30.132,
      "duration": 0.2665,
      "velocity": 97,
      "chip": "ym2612"
    },
    {
      "channel": 3,
      "note": 76,
      "start": 30.1324,
      "duration": 0.2665,
      "velocity": 102,
      "chip": "ym2612"
    },
    {
      "channel": 4,
      "note": 73,
      "start": 30.133,
      "duration": 0.2662,
      "velocity": 102,
      "chip": "ym2612"
    },
    {
      "channel": 5,
      "note": 80,
      "start": 30.1357,
      "duration": 0.2637,
      "velocity": 127,
      "chip": "ym2612"
    },
    {
      "channel": 0,
      "note": 64,
      "start": 30.3978,
      "duration": 0.2663,
      "velocity": 107,
      "chip": "ym2612"
    },
    {
      "channel": 1,
      "note": 82,
      "start": 30.3983,
      "duration": 0.2663,
      "velocity": 97,
      "chip": "ym2612"
    },
    {
      "channel": 2,
      "note": 83,
      "start": 30.3989,
      "duration": 0.2663,
      "velocity": 97,
      "chip": "ym2612"
    },
    {
      "channel": 5,
      "note": 20,
      "start": 30.402,
      "duration": 0.2646,
      "velocity": 127,
      "chip": "ym2612"
    },
    {
      "channel": 0,
      "note": 61,
      "start": 30.6645,
      "duration": 0.2663,
      "velocity": 107,
      "chip": "ym2612"
    },
    {
      "channel": 1,
      "note": 80,
      "start": 30.665,
      "duration": 0.2663,
      "velocity": 97,
      "chip": "ym2612"
    },
    {
      "channel": 2,
      "note": 82,
      "start": 30.6655,
      "duration": 0.2663,
      "velocity": 97,
      "chip": "ym2612"
    },
    {
      "channel": 3,
      "note": 76,
      "start": 30.666,
      "duration": 0.2663,
      "velocity": 102,
      "chip": "ym2612"
    },
    {
      "channel": 4,
      "note": 73,
      "start": 30.6666,
      "duration": 0.2661,
      "velocity": 102,
      "chip": "ym2612"
    },
    {
      "channel": 5,
      "note": 32,
      "start": 30.6692,
      "duration": 0.2637,
      "velocity": 69,
      "chip": "ym2612"
    },
    {
      "channel": 0,
      "note": 63,
      "start": 30.9312,
      "duration": 0.533,
      "velocity": 107,
      "chip": "ym2612"
    },
    {
      "channel": 1,
      "note": 79,
      "start": 30.9317,
      "duration": 0.0659,
      "velocity": 97,
      "chip": "ym2612"
    },
    {
      "channel": 2,
      "note": 80,
      "start": 30.9323,
      "duration": 0.266,
      "velocity": 97,
      "chip": "ym2612"
    },
    {
      "channel": 5,
      "note": 20,
      "start": 30.9356,
      "duration": 0.2642,
      "velocity": 127,
      "chip": "ym2612"
    },
    {
      "channel": 1,
      "note": 80,
      "start": 30.9981,
      "duration": 0.0662,
      "velocity": 97,
      "chip": "ym2612"
    },
    {
      "channel": 1,
      "note": 79,
      "start": 31.0648,
      "duration": 0.0663,
      "velocity": 97,
      "chip": "ym2612"
    },
    {
      "channel": 1,
      "note": 80,
      "start": 31.1314,
      "duration": 0.0662,
      "velocity": 97,
      "chip": "ym2612"
    },
    {
      "channel": 1,
      "note": 79,
      "start": 31.1981,
      "duration": 0.0662,
      "velocity": 97,
      "chip": "ym2612"
    },
    {
      "channel": 2,
      "note": 79,
      "start": 31.1986,
      "duration": 0.0663,
      "velocity": 97,
      "chip": "ym2612"
    },
    {
      "channel": 3,
      "note": 73,
      "start": 31.1991,
      "duration": 0.2667,
      "velocity": 102,
      "chip": "ym2612"
    },
    {
      "channel": 4,
      "note": 70,
      "start": 31.1996,
      "duration": 0.2663,
      "velocity": 102,
      "chip": "ym2612"
    },
    {
      "channel": 5,
      "note": 80,
      "start": 31.2024,
      "duration": 0.2637,
      "velocity": 127,
      "chip": "ym2612"
    },
    {
      "channel": 1,
      "note": 80,
      "start": 31.2648,
      "duration": 0.0663,
      "velocity": 97,
      "chip": "ym2612"
    },
    {
      "channel": 2,
      "note": 80,
      "start": 31.2653,
      "duration": 0.0663,
      "velocity": 97,
      "chip": "ym2612"
    },
    {
      "channel": 1,
      "note": 79,
      "start": 31.3314,
      "duration": 0.0662,
      "velocity": 97,
      "chip": "ym2612"
    },
    {
      "channel": 2,
      "note": 79,
      "start": 31.332,
      "duration": 0.0663,
      "velocity": 97,
      "chip": "ym2612"
    },
    {
      "channel": 1,
      "note": 80,
      "start": 31.3981,
      "duration": 0.0666,
      "velocity": 97,
      "chip": "ym2612"
    },
    {
      "channel": 2,
      "note": 80,
      "start": 31.3986,
      "duration": 0.0666,
      "velocity": 97,
      "chip": "ym2612"
    },
    {
      "channel": 0,
      "note": 67,
      "start": 31.4645,
      "duration": 0.2663,
      "velocity": 107,
      "chip": "ym2612"
    },
    {
      "channel": 1,
      "note": 79,
      "start": 31.4651,
      "duration": 0.2662,
      "velocity": 97,
      "chip": "ym2612"
    },
    {
      "channel": 2,
      "note": 79,
      "start": 31.4656,
      "duration": 0.0656,
      "velocity": 97,
      "chip": "ym2612"
    },
    {
      "channel": 5,
      "note": 20,
      "start": 31.4688,
      "duration": 0.2646,
      "velocity": 127,
      "chip": "ym2612"
    },
    {
      "channel": 2,
      "note": 80,
      "start": 31.5316,
      "duration": 0.0662,
      "velocity": 97,
      "chip": "ym2612"
    },
    {
      "channel": 2,
      "note": 79,
      "start": 31.5983,
      "duration": 0.0663,
      "velocity": 97,
      "chip": "ym2612"
    },
    {
      "channel": 2,
      "note": 80,
      "start": 31.665,
      "duration": 0.0668,
      "velocity": 97,
      "chip": "ym2612"
    },
    {
      "channel": 0,
      "note": 63,
      "start": 31.7312,
      "duration": 0.2663,
      "velocity": 107,
      "chip": "ym2612"
    },
    {
      "channel": 1,
      "note": 77,
      "start": 31.7317,
      "duration": 0.1327,
      "velocity": 97,
      "chip": "ym2612"
    },
    {
      "channel": 2,
      "note": 79,
      "start": 31.7323,
      "duration": 0.2665,
      "velocity": 97,
      "chip": "ym2612"
    },
    {
      "channel": 3,
      "note": 73,
      "start": 31.7328,
      "duration": 0.2665,
      "velocity": 102,
      "chip": "ym2612"
    },
    {
      "channel": 4,
      "note": 70,
      "start": 31.7333,
      "duration": 0.2662,
      "velocity": 102,
      "chip": "ym2612"
    },
    {
      "channel": 5,
      "note": 72,
      "start": 31.7359,
      "duration": 0.2638,
      "velocity": 127,
      "chip": "ym2612"
    },
    {
      "channel": 1,
      "note": 79,
      "start": 31.8647,
      "duration": 0.1334,
      "velocity": 97,
      "chip": "ym2612"
    },
    {
      "channel": 0,
      "note": 56,
      "start": 31.998,
      "duration": 0.5329,
      "velocity": 107,
      "chip": "ym2612"
    },
    {
      "channel": 1,
      "note": 80,
      "start": 31.9986,
      "duration": 1.5994,
      "velocity": 97,
      "chip": "ym2612"
    },
    {
      "channel": 2,
      "note": 77,
      "start": 31.9991,
      "duration": 0.1321,
      "velocity": 97,
      "chip": "ym2612"
    },
    {
      "channel": 5,
      "note": 20,
      "start": 32.0026,
      "duration": 0.2637,
      "velocity": 127,
      "chip": "ym2612"
    },
    {
      "channel": 2,
      "note": 79,
      "start": 32.1316,
      "duration": 0.1329,
      "velocity": 97,
      "chip": "ym2612"
    },
    {
      "channel": 2,
      "note": 80,
      "start": 32.265,
      "duration": 1.6001,
      "velocity": 97,
      "chip": "ym2612"
    },
    {
      "channel": 3,
      "note": 75,
      "start": 32.2655,
      "duration": 0.2662,
      "velocity": 102,
      "chip": "ym2612"
    },
    {
      "channel": 4,
      "note": 71,
      "start": 32.2661,
      "duration": 0.2658,
      "velocity": 102,
      "chip": "ym2612"
    },
    {
      "channel": 5,
      "note": 80,
      "start": 32.2688,
      "duration": 0.2633,
      "velocity": 127,
      "chip": "ym2612"
    },
    {
      "channel": 0,
      "note": 51,
      "start": 32.5312,
      "duration": 0.5329,
      "velocity": 107,
      "chip": "ym2612"
    },
    {
      "channel": 5,
      "note": 20,
      "start": 32.5347,
      "duration": 0.2644,
      "velocity": 127,
      "chip": "ym2612"
    },
    {
      "channel": 3,
      "note": 75,
      "start": 32.7984,
      "duration": 0.2667,
      "velocity": 102,
      "chip": "ym2612"
    },
    {
      "channel": 4,
      "note": 71,
      "start": 32.7989,
      "duration": 0.2664,
      "velocity": 102,
      "chip": "ym2612"
    },
    {
      "channel": 5,
      "note": 32,
      "start": 32.8017,
      "duration": 0.264,
      "velocity": 69,
      "chip": "ym2612"
    },
    {
      "channel": 0,
      "note": 56,
      "start": 33.0646,
      "duration": 0.2663,
      "velocity": 107,
      "chip": "ym2612"
    },
    {
      "channel": 5,
      "note": 20,
      "start": 33.0683,
      "duration": 0.2645,
      "velocity": 127,
      "chip": "ym2612"
    },
    {
      "channel": 0,
      "note": 51,
      "start": 33.3312,
      "duration": 0.2663,
      "velocity": 107,
      "chip": "ym2612"
    },
    {
      "channel": 3,
      "note": 75,
      "start": 33.3321,
      "duration": 0.2687,
      "velocity": 102,
      "chip": "ym2612"
    },
    {
      "channel": 4,
      "note": 71,
      "start": 33.3326,
      "duration": 0.2684,
      "velocity": 102,
      "chip": "ym2612"
    },
    {
      "channel": 5,
      "note": 80,
      "start": 33.3354,
      "duration": 0.2659,
      "velocity": 127,
      "chip": "ym2612"
    },
    {
      "channel": 0,
      "note": 54,
      "start": 33.5978,
      "duration": 0.2663,
      "velocity": 107,
      "chip": "ym2612"
    },
    {
      "channel": 1,
      "note": 76,
      "start": 33.6005,
      "duration": 0.2641,
      "velocity": 102,
      "chip": "ym2612"
    },
    {
      "channel": 5,
      "note": 20,
      "start": 33.6039,
      "duration": 0.265,
      "velocity": 127,
      "chip": "ym2612"
    },
    {
      "channel": 0,
      "note": 55,
      "start": 33.8645,
      "duration": 0.2663,
      "velocity": 107,
      "chip": "ym2612"
    },
    {
      "channel": 1,
      "note": 78,
      "start": 33.865,
      "duration": 0.2664,
      "velocity": 102,
      "chip": "ym2612"
    },
    {
      "channel": 2,
      "note": 76,
      "start": 33.8677,
      "duration": 0.2644,
      "velocity": 102,
      "chip": "ym2612"
    },
    {
      "channel": 3,
      "note": 75,
      "start": 33.8682,
      "duration": 0.2644,
      "velocity": 102,
      "chip": "ym2612"
    },
    {
      "channel": 4,
      "note": 71,
      "start": 33.8687,
      "duration": 0.2641,
      "velocity": 102,
      "chip": "ym2612"
    },
    {
      "channel": 5,
      "note": 72,
      "start": 33.8715,
      "duration": 0.2616,
      "velocity": 127,
      "chip": "ym2612"
    },
    {
      "channel": 0,
      "note": 49,
      "start": 34.1313,
      "duration": 0.2662,
      "velocity": 107,
      "chip": "ym2612"
    },
    {
      "channel": 1,
      "note": 80,
      "start": 34.132,
      "duration": 0.5325,
      "velocity": 102,
      "chip": "ym2612"
    },
    {
      "channel": 2,
      "note": 78,
      "start": 34.1324,
      "duration": 0.2654,
      "velocity": 102,
      "chip": "ym2612"
    },
    {
      "channel": 5,
      "note": 20,
      "start": 34.1358,
      "duration": 0.7964,
      "velocity": 127,
      "chip": "ym2612"
    },
    {
      "channel": 2,
      "note": 80,
      "start": 34.3983,
      "duration": 0.5332,
      "velocity": 102,
      "chip": "ym2612"
    },
    {
      "channel": 1,
      "note": 83,
      "start": 34.6648,
      "duration": 0.5332,
      "velocity": 102,
      "chip": "ym2612"
    },
    {
      "channel": 0,
      "note": 49,
      "start": 34.9312,
      "duration": 0.2663,
      "velocity": 107,
      "chip": "ym2612"
    },
    {
      "channel": 2,
      "note": 83,
      "start": 34.9319,
      "duration": 0.5329,
      "velocity": 102,
      "chip": "ym2612"
    },
    {
      "channel": 5,
      "note": 20,
      "start": 34.9327,
      "duration": 0.2662,
      "velocity": 127,
      "chip": "ym2612"
    },
    {
      "channel": 0,
      "note": 54,
      "start": 35.1978,
      "duration": 0.2663,
      "velocity": 107,
      "chip": "ym2612"
    },
    {
      "channel": 1,
      "note": 82,
      "start": 35.1983,
      "duration": 0.533,
      "velocity": 102,
      "chip": "ym2612"
    },
    {
      "channel": 5,
      "note": 20,
      "start": 35.1994,
      "duration": 0.5329,
      "velocity": 127,
      "chip": "ym2612"
    },
    {
      "channel": 0,
      "note": 54,
      "start": 35.4645,
      "duration": 0.2663,
      "velocity": 107,
      "chip": "ym2612"
    },
    {
      "channel": 2,
      "note": 82,
      "start": 35.4652,
      "duration": 0.5333,
      "velocity": 102,
      "chip": "ym2612"
    },
    {
      "channel": 0,
      "note": 52,
      "start": 35.7312,
      "duration": 0.2663,
      "velocity": 107,
      "chip": "ym2612"
    },
    {
      "channel": 1,
      "note": 78,
      "start": 35.7317,
      "duration": 0.2662,
      "velocity": 102,
      "chip": "ym2612"
    },
    {
      "channel": 5,
      "note": 80,
      "start": 35.7349,
      "duration": 0.5315,
      "velocity": 127,
      "chip": "ym2612"
    },
    {
      "channel": 0,
      "note": 54,
      "start": 35.9978,
      "duration": 0.2663,
      "velocity": 107,
      "chip": "ym2612"
    },
    {
      "channel": 1,
      "note": 80,
      "start": 35.9984,
      "duration": 0.2663,
      "velocity": 102,
      "chip": "ym2612"
    },
    {
      "channel": 2,
      "note": 78,
      "start": 35.9989,
      "duration": 0.2664,
      "velocity": 102,
      "chip": "ym2612"
    },
    {
      "channel": 0,
      "note": 51,
      "start": 36.2646,
      "duration": 0.2662,
      "velocity": 107,
      "chip": "ym2612"
    },
    {
      "channel": 1,
      "note": 82,
      "start": 36.2652,
      "duration": 0.2661,
      "velocity": 102,
      "chip": "ym2612"
    },
    {
      "channel": 2,
      "note": 80,
      "start": 36.2657,
      "duration": 0.2662,
      "velocity": 102,
      "chip": "ym2612"
    },
    {
      "channel": 5,
      "note": 20,
      "start": 36.2691,
      "duration": 0.2636,
      "velocity": 127,
      "chip": "ym2612"
    },
    {
      "channel": 0,
      "note": 51,
      "start": 36.5312,
      "duration": 0.2663,
      "velocity": 107,
      "chip": "ym2612"
    },
    {
      "channel": 1,
      "note": 78,
      "start": 36.5317,
      "duration": 0.2659,
      "velocity": 102,
      "chip": "ym2612"
    },
    {
      "channel": 2,
      "note": 82,
      "start": 36.5323,
      "duration": 0.2659,
      "velocity": 102,
      "chip": "ym2612"
    },
    {
      "channel": 5,
      "note": 20,
      "start": 36.5331,
      "duration": 0.5329,
      "velocity": 127,
      "chip": "ym2612"
    },
    {
      "channel": 1,
      "note": 85,
      "start": 36.798,
      "duration": 0.2666,
      "velocity": 102,
      "chip": "ym2612"
    },
    {
      "channel": 2,
      "note": 78,
      "start": 36.7986,
      "duration": 0.2665,
      "velocity": 102,
      "chip": "ym2612"
    },
    {
      "channel": 0,
      "note": 51,
      "start": 37.0645,
      "duration": 0.2663,
      "velocity": 107,
      "chip": "ym2612"
    },
    {
      "channel": 1,
      "note": 82,
      "start": 37.065,
      "duration": 0.2663,
      "velocity": 102,
      "chip": "ym2612"
    },
    {
      "channel": 2,
      "note": 85,
      "start": 37.0656,
      "duration": 0.2663,
      "velocity": 102,
      "chip": "ym2612"
    },
    {
      "channel": 5,
      "note": 20,
      "start": 37.0663,
      "duration": 0.2663,
      "velocity": 127,
      "chip": "ym2612"
    },
    {
      "channel": 0,
      "note": 56,
      "start": 37.3312,
      "duration": 0.2663,
      "velocity": 107,
      "chip": "ym2612"
    },
    {
      "channel": 1,
      "note": 83,
      "start": 37.3317,
      "duration": 0.5329,
      "velocity": 102,
      "chip": "ym2612"
    },
    {
      "channel": 2,
      "note": 82,
      "start": 37.3323,
      "duration": 0.2659,
      "velocity": 102,
      "chip": "ym2612"
    },
    {
      "channel": 5,
      "note": 20,
      "start": 37.333,
      "duration": 0.2659,
      "velocity": 127,
      "chip": "ym2612"
    },
    {
      "channel": 0,
      "note": 58,
      "start": 37.5978,
      "duration": 0.2663,
      "velocity": 107,
      "chip": "ym2612"
    },
    {
      "channel": 2,
      "note": 83,
      "start": 37.5985,
      "duration": 0.5333,
      "velocity": 102,
      "chip": "ym2612"
    },
    {
      "channel": 5,
      "note": 32,
      "start": 37.6015,
      "duration": 0.2641,
      "velocity": 69,
      "chip": "ym2612"
    },
    {
      "channel": 0,
      "note": 59,
      "start": 37.8645,
      "duration": 0.2663,
      "velocity": 107,
      "chip": "ym2612"
    },
    {
      "channel": 1,
      "note": 82,
      "start": 37.865,
      "duration": 0.2663,
      "velocity": 102,
      "chip": "ym2612"
    },
    {
      "channel": 5,
      "note": 32,
      "start": 37.866,
      "duration": 0.2666,
      "velocity": 69,
      "chip": "ym2612"
    },
    {
      "channel": 0,
      "note": 56,
      "start": 38.1312,
      "duration": 0.2663,
      "velocity": 107,
      "chip": "ym2612"
    },
    {
      "channel": 1,
      "note": 83,
      "start": 38.1317,
      "duration": 0.2664,
      "velocity": 102,
      "chip": "ym2612"
    },
    {
      "channel": 2,
      "note": 82,
      "start": 38.1322,
      "duration": 0.2665,
      "velocity": 102,
      "chip": "ym2612"
    },
    {
      "channel": 5,
      "note": 72,
      "start": 38.1352,
      "duration": 0.2645,
      "velocity": 127,
      "chip": "ym2612"
    },
    {
      "channel": 0,
      "note": 49,
      "start": 38.398,
      "duration": 0.2662,
      "velocity": 107,
      "chip": "ym2612"
    },
    {
      "channel": 1,
      "note": 80,
      "start": 38.3985,
      "duration": 0.5326,
      "velocity": 102,
      "chip": "ym2612"
    },
    {
      "channel": 2,
      "note": 83,
      "start": 38.399,
      "duration": 0.2655,
      "velocity": 102,
      "chip": "ym2612"
    },
    {
      "channel": 5,
      "note": 20,
      "start": 38.4024,
      "duration": 0.7968,
      "velocity": 127,
      "chip": "ym2612"
    },
    {
      "channel": 2,
      "note": 80,
      "start": 38.665,
      "duration": 0.5335,
      "velocity": 102,
      "chip": "ym2612"
    },
    {
      "channel": 1,
      "note": 82,
      "start": 38.9315,
      "duration": 0.2665,
      "velocity": 102,
      "chip": "ym2612"
    },
    {
      "channel": 0,
      "note": 49,
      "start": 39.1978,
      "duration": 0.2663,
      "velocity": 107,
      "chip": "ym2612"
    },
    {
      "channel": 1,
      "note": 83,
      "start": 39.1983,
      "duration": 0.2663,
      "velocity": 102,
      "chip": "ym2612"
    },
    {
      "channel": 2,
      "note": 82,
      "start": 39.1989,
      "duration": 0.2663,
      "velocity": 102,
      "chip": "ym2612"
    },
    {
      "channel": 5,
      "note": 20,
      "start": 39.1997,
      "duration": 0.2662,
      "velocity": 127,
      "chip": "ym2612"
    },
    {
      "channel": 0,
      "note": 54,
      "start": 39.4645,
      "duration": 0.2663,
      "velocity": 107,
      "chip": "ym2612"
    },
    {
      "channel": 1,
      "note": 82,
      "start": 39.465,
      "duration": 0.2663,
      "velocity": 102,
      "chip": "ym2612"
    },
    {
      "channel": 2,
      "note": 83,
      "start": 39.4655,
      "duration": 0.2663,
      "velocity": 102,
      "chip": "ym2612"
    },
    {
      "channel": 5,
      "note": 20,
      "start": 39.4663,
      "duration": 0.5329,
      "velocity": 127,
      "chip": "ym2612"
    },
    {
      "channel": 0,
      "note": 54,
      "start": 39.7312,
      "duration": 0.2663,
      "velocity": 107,
      "chip": "ym2612"
    },
    {
      "channel": 1,
      "note": 80,
      "start": 39.7317,
      "duration": 0.2663,
      "velocity": 102,
      "chip": "ym2612"
    },
    {
      "channel": 2,
      "note": 82,
      "start": 39.7322,
      "duration": 0.2663,
      "velocity": 102,
      "chip": "ym2612"
    },
    {
      "channel": 0,
      "note": 52,
      "start": 39.9978,
      "duration": 0.2663,
      "velocity": 107,
      "chip": "ym2612"
    },
    {
      "channel": 1,
      "note": 78,
      "start": 39.9984,
      "duration": 0.2662,
      "velocity": 102,
      "chip": "ym2612"
    },
    {
      "channel": 2,
      "note": 80,
      "start": 39.9989,
      "duration": 0.2662,
      "velocity": 102,
      "chip": "ym2612"
    },
    {
      "channel": 5,
      "note": 80,
      "start": 40.0019,
      "duration": 0.5312,
      "velocity": 127,
      "chip": "ym2612"
    },
    {
      "channel": 0,
      "note": 54,
      "start": 40.2645,
      "duration": 0.2663,
      "velocity": 107,
      "chip": "ym2612"
    },
    {
      "channel": 1,
      "note": 76,
      "start": 40.265,
      "duration": 0.2664,
      "velocity": 102,
      "chip": "ym2612"
    },
    {
      "channel": 2,
      "note": 78,
      "start": 40.2656,
      "duration": 0.2664,
      "velocity": 102,
      "chip": "ym2612"
    },
    {
      "channel": 0,
      "note": 59,
      "start": 40.5313,
      "duration": 0.2662,
      "velocity": 107,
      "chip": "ym2612"
    },
    {
      "channel": 1,
      "note": 75,
      "start": 40.5319,
      "duration": 0.5324,
      "velocity": 102,
      "chip": "ym2612"
    },
    {
      "channel": 2,
      "note": 76,
      "start": 40.5324,
      "duration": 0.2658,
      "velocity": 102,
      "chip": "ym2612"
    },
    {
      "channel": 5,
      "note": 20,
      "start": 40.5358,
      "duration": 0.2633,
      "velocity": 127,
      "chip": "ym2612"
    },
    {
      "channel": 0,
      "note": 59,
      "start": 40.7978,
      "duration": 0.2663,
      "velocity": 107,
      "chip": "ym2612"
    },
    {
      "channel": 2,
      "note": 75,
      "start": 40.7987,
      "duration": 0.5328,
      "velocity": 102,
      "chip": "ym2612"
    },
    {
      "channel": 5,
      "note": 20,
      "start": 40.7994,
      "duration": 0.5328,
      "velocity": 127,
      "chip": "ym2612"
    },
    {
      "channel": 1,
      "note": 76,
      "start": 41.0647,
      "duration": 0.533,
      "velocity": 102,
      "chip": "ym2612"
    },
    {
      "channel": 0,
      "note": 59,
      "start": 41.3312,
      "duration": 0.533,
      "velocity": 107,
      "chip": "ym2612"
    },
    {
      "channel": 2,
      "note": 76,
      "start": 41.3319,
      "duration": 0.5329,
      "velocity": 102,
      "chip": "ym2612"
    },
    {
      "channel": 5,
      "note": 20,
      "start": 41.3327,
      "duration": 0.2659,
      "velocity": 127,
      "chip": "ym2612"
    },
    {
      "channel": 1,
      "note": 78,
      "start": 41.598,
      "duration": 0.5333,
      "velocity": 102,
      "chip": "ym2612"
    },
    {
      "channel": 5,
      "note": 20,
      "start": 41.599,
      "duration": 0.2666,
      "velocity": 127,
      "chip": "ym2612"
    },
    {
      "channel": 0,
      "note": 59,
      "start": 41.8645,
      "duration": 0.2663,
      "velocity": 107,
      "chip": "ym2612"
    },
    {
      "channel": 2,
      "note": 78,
      "start": 41.8652,
      "duration": 0.5333,
      "velocity": 102,
      "chip": "ym2612"
    },
    {
      "channel": 5,
      "note": 32,
      "start": 41.8682,
      "duration": 0.2641,
      "velocity": 69,
      "chip": "ym2612"
    },
    {
      "channel": 0,
      "note": 58,
      "start": 42.1312,
      "duration": 0.2663,
      "velocity": 107,
      "chip": "ym2612"
    },
    {
      "channel": 1,
      "note": 76,
      "start": 42.1317,
      "duration": 0.2663,
      "velocity": 102,
      "chip": "ym2612"
    },
    {
      "channel": 5,
      "note": 32,
      "start": 42.1327,
      "duration": 0.2666,
      "velocity": 69,
      "chip": "ym2612"
    },
    {
      "channel": 0,
      "note": 54,
      "start": 42.3979,
      "duration": 0.2663,
      "velocity": 107,
      "chip": "ym2612"
    },
    {
      "channel": 1,
      "note": 78,
      "start": 42.3984,
      "duration": 0.2663,
      "velocity": 102,
      "chip": "ym2612"
    },
    {
      "channel": 2,
      "note": 76,
      "start": 42.3989,
      "duration": 0.2665,
      "velocity": 102,
      "chip": "ym2612"
    },
    {
      "channel": 5,
      "note": 72,
      "start": 42.4019,
      "duration": 0.2645,
      "velocity": 127,
      "chip": "ym2612"
    },
    {
      "channel": 0,
      "note": 52,
      "start": 42.6646,
      "duration": 0.2662,
      "velocity": 107,
      "chip": "ym2612"
    },
    {
      "channel": 1,
      "note": 80,
      "start": 42.6653,
      "duration": 0.2657,
      "velocity": 102,
      "chip": "ym2612"
    },
    {
      "channel": 2,
      "note": 78,
      "start": 42.6657,
      "duration": 0.2659,
      "velocity": 102,
      "chip": "ym2612"
    },
    {
      "channel": 5,
      "note": 20,
      "start": 42.6692,
      "duration": 0.7968,
      "velocity": 127,
      "chip": "ym2612"
    },
    {
      "channel": 1,
      "note": 76,
      "start": 42.9314,
      "duration": 0.2664,
      "velocity": 102,
      "chip": "ym2612"
    },
    {
      "channel": 2,
      "note": 80,
      "start": 42.932,
      "duration": 0.2663,
      "velocity": 102,
      "chip": "ym2612"
    },
    {
      "channel": 1,
      "note": 80,
      "start": 43.1982,
      "duration": 0.2665,
      "velocity": 102,
      "chip": "ym2612"
    },
    {
      "channel": 2,
      "note": 76,
      "start": 43.1987,
      "duration": 0.2665,
      "velocity": 102,
      "chip": "ym2612"
    },
    {
      "channel": 0,
      "note": 52,
      "start": 43.4645,
      "duration": 0.2663,
      "velocity": 107,
      "chip": "ym2612"
    },
    {
      "channel": 1,
      "note": 83,
      "start": 43.465,
      "duration": 0.2663,
      "velocity": 102,
      "chip": "ym2612"
    },
    {
      "channel": 2,
      "note": 80,
      "start": 43.4656,
      "duration": 0.2662,
      "velocity": 102,
      "chip": "ym2612"
    },
    {
      "channel": 5,
      "note": 20,
      "start": 43.4663,
      "duration": 0.2662,
      "velocity": 127,
      "chip": "ym2612"
    },
    {
      "channel": 0,
      "note": 54,
      "start": 43.7312,
      "duration": 0.2663,
      "velocity": 107,
      "chip": "ym2612"
    },
    {
      "channel": 1,
      "note": 82,
      "start": 43.7317,
      "duration": 0.533,
      "velocity": 102,
      "chip": "ym2612"
    },
    {
      "channel": 2,
      "note": 83,
      "start": 43.7322,
      "duration": 0.266,
      "velocity": 102,
      "chip": "ym2612"
    },
    {
      "channel": 5,
      "note": 20,
      "start": 43.733,
      "duration": 0.5326,
      "velocity": 127,
      "chip": "ym2612"
    },
    {
      "channel": 0,
      "note": 54,
      "start": 43.9978,
      "duration": 0.2663,
      "velocity": 107,
      "chip": "ym2612"
    },
    {
      "channel": 2,
      "note": 82,
      "start": 43.9985,
      "duration": 0.5333,
      "velocity": 102,
      "chip": "ym2612"
    },
    {
      "channel": 0,
      "note": 52,
      "start": 44.2645,
      "duration": 0.2663,
      "velocity": 107,
      "chip": "ym2612"
    },
    {
      "channel": 1,
      "note": 80,
      "start": 44.265,
      "duration": 0.2663,
      "velocity": 102,
      "chip": "ym2612"
    },
    {
      "channel": 5,
      "note": 80,
      "start": 44.2682,
      "duration": 0.5315,
      "velocity": 127,
      "chip": "ym2612"
    },
    {
      "channel": 0,
      "note": 54,
      "start": 44.5312,
      "duration": 0.2663,
      "velocity": 107,
      "chip": "ym2612"
    },
    {
      "channel": 1,
      "note": 82,
      "start": 44.5317,
      "duration": 0.2664,
      "velocity": 102,
      "chip": "ym2612"
    },
    {
      "channel": 2,
      "note": 80,
      "start": 44.5322,
      "duration": 0.2665,
      "velocity": 102,
      "chip": "ym2612"
    },
    {
      "channel": 0,
      "note": 51,
      "start": 44.798,
      "duration": 0.2662,
      "velocity": 107,
      "chip": "ym2612"
    },
    {
      "channel": 1,
      "note": 79,
      "start": 44.7985,
      "duration": 0.5328,
      "velocity": 102,
      "chip": "ym2612"
    },
    {
      "channel": 2,
      "note": 82,
      "start": 44.799,
      "duration": 0.2658,
      "velocity": 102,
      "chip": "ym2612"
    },
    {
      "channel": 5,
      "note": 20,
      "start": 44.8024,
      "duration": 0.2633,
      "velocity": 127,
      "chip": "ym2612"
    },
    {
      "channel": 0,
      "note": 51,
      "start": 45.0645,
      "duration": 0.2663,
      "velocity": 107,
      "chip": "ym2612"
    },
    {
      "channel": 2,
      "note": 79,
      "start": 45.0653,
      "duration": 0.5332,
      "velocity": 102,
      "chip": "ym2612"
    },
    {
      "channel": 5,
      "note": 20,
      "start": 45.0661,
      "duration": 0.5332,
      "velocity": 127,
      "chip": "ym2612"
    },
    {
      "channel": 0,
      "note": 55,
      "start": 45.3312,
      "duration": 0.2663,
      "velocity": 107,
      "chip": "ym2612"
    },
    {
      "channel": 1,
      "note": 85,
      "start": 45.3317,
      "duration": 0.2663,
      "velocity": 102,
      "chip": "ym2612"
    },
    {
      "channel": 0,
      "note": 58,
      "start": 45.5979,
      "duration": 0.2663,
      "velocity": 107,
      "chip": "ym2612"
    },
    {
      "channel": 1,
      "note": 82,
      "start": 45.5984,
      "duration": 0.2663,
      "velocity": 102,
      "chip": "ym2612"
    },
    {
      "channel": 2,
      "note": 85,
      "start": 45.5989,
      "duration": 0.2662,
      "velocity": 102,
      "chip": "ym2612"
    },
    {
      "channel": 5,
      "note": 20,
      "start": 45.5997,
      "duration": 0.2662,
      "velocity": 127,
      "chip": "ym2612"
    },
    {
      "channel": 0,
      "note": 56,
      "start": 45.8645,
      "duration": 0.533,
      "velocity": 107,
      "chip": "ym2612"
    },
    {
      "channel": 1,
      "note": 83,
      "start": 45.865,
      "duration": 1.0664,
      "velocity": 102,
      "chip": "ym2612"
    },
    {
      "channel": 2,
      "note": 82,
      "start": 45.8655,
      "duration": 0.2656,
      "velocity": 102,
      "chip": "ym2612"
    },
    {
      "channel": 5,
      "note": 20,
      "start": 45.8663,
      "duration": 0.2656,
      "velocity": 127,
      "chip": "ym2612"
    },
    {
      "channel": 2,
      "note": 83,
      "start": 46.1316,
      "duration": 1.0666,
      "velocity": 102,
      "chip": "ym2612"
    },
    {
      "channel": 5,
      "note": 32,
      "start": 46.1346,
      "duration": 0.2641,
      "velocity": 69,
      "chip": "ym2612"
    },
    {
      "channel": 0,
      "note": 58,
      "start": 46.3978,
      "duration": 0.2663,
      "velocity": 107,
      "chip": "ym2612"
    },
    {
      "channel": 5,
      "note": 32,
      "start": 46.399,
      "duration": 0.2662,
      "velocity": 69,
      "chip": "ym2612"
    },
    {
      "channel": 0,
      "note": 59,
      "start": 46.6645,
      "duration": 0.2663,
      "velocity": 107,
      "chip": "ym2612"
    },
    {
      "channel": 5,
      "note": 72,
      "start": 46.6679,
      "duration": 0.2647,
      "velocity": 127,
      "chip": "ym2612"
    },
    {
      "channel": 0,
      "note": 57,
      "start": 46.9313,
      "duration": 0.2662,
      "velocity": 107,
      "chip": "ym2612"
    },
    {
      "channel": 1,
      "note": 85,
      "start": 46.9319,
      "duration": 1.0661,
      "velocity": 102,
      "chip": "ym2612"
    },
    {
      "channel": 5,
      "note": 20,
      "start": 46.9354,
      "duration": 0.7966,
      "velocity": 127,
      "chip": "ym2612"
    },
    {
      "channel": 0,
      "note": 57,
      "start": 47.1978,
      "duration": 0.2663,
      "velocity": 107,
      "chip": "ym2612"
    },
    {
      "channel": 2,
      "note": 85,
      "start": 47.1986,
      "duration": 1.0659,
      "velocity": 102,
      "chip": "ym2612"
    },
    {
      "channel": 0,
      "note": 57,
      "start": 47.7312,
      "duration": 0.2663,
      "velocity": 107,
      "chip": "ym2612"
    },
    {
      "channel": 5,
      "note": 20,
      "start": 47.7324,
      "duration": 0.2667,
      "velocity": 127,
      "chip": "ym2612"
    },
    {
      "channel": 0,
      "note": 58,
      "start": 47.9978,
      "duration": 0.533,
      "velocity": 107,
      "chip": "ym2612"
    },
    {
      "channel": 1,
      "note": 88,
      "start": 47.9983,
      "duration": 0.533,
      "velocity": 102,
      "chip": "ym2612"
    },
    {
      "channel": 5,
      "note": 20,
      "start": 47.9994,
      "duration": 0.5329,
      "velocity": 127,
      "chip": "ym2612"
    },
    {
      "channel": 2,
      "note": 88,
      "start": 48.2649,
      "duration": 0.5329,
      "velocity": 102,
      "chip": "ym2612"
    },
    {
      "channel": 0,
      "note": 53,
      "start": 48.5312,
      "duration": 0.3996,
      "velocity": 107,
      "chip": "ym2612"
    },
    {
      "channel": 1,
      "note": 86,
      "start": 48.5317,
      "duration": 0.7997,
      "velocity": 102,
      "chip": "ym2612"
    },
    {
      "channel": 5,
      "note": 80,
      "start": 48.5349,
      "duration": 0.7977,
      "velocity": 127,
      "chip": "ym2612"
    },
    {
      "channel": 2,
      "note": 86,
      "start": 48.7982,
      "duration": 0.7996,
      "velocity": 102,
      "chip": "ym2612"
    },
    {
      "channel": 0,
      "note": 58,
      "start": 48.9312,
      "duration": 0.3996,
      "velocity": 107,
      "chip": "ym2612"
    },
    {
      "channel": 0,
      "note": 51,
      "start": 49.3313,
      "duration": 1.0665,
      "velocity": 107,
      "chip": "ym2612"
    },
    {
      "channel": 1,
      "note": 87,
      "start": 49.3319,
      "duration": 2.1331,
      "velocity": 102,
      "chip": "ym2612"
    },
    {
      "channel": 5,
      "note": 20,
      "start": 49.3353,
      "duration": 1.5967,
      "velocity": 127,
      "chip": "ym2612"
    },
    {
      "channel": 2,
      "note": 87,
      "start": 49.5983,
      "duration": 2.1332,
      "velocity": 102,
      "chip": "ym2612"
    },
    {
      "channel": 0,
      "note": 51,
      "start": 50.3978,
      "duration": 0.5331,
      "velocity": 107,
      "chip": "ym2612"
    },
    {
      "channel": 0,
      "note": 63,
      "start": 50.9312,
      "duration": 0.5329,
      "velocity": 107,
      "chip": "ym2612"
    },
    {
      "channel": 5,
      "note": 32,
      "start": 50.9346,
      "duration": 0.531,
      "velocity": 69,
      "chip": "ym2612"
    },
    {
      "channel": 0,
      "note": 61,
      "start": 51.4645,
      "duration": 0.533,
      "velocity": 107,
      "chip": "ym2612"
    },
    {
      "channel": 1,
      "note": 87,
      "start": 51.465,
      "duration": 1.0686,
      "velocity": 102,
      "chip": "ym2612"
    },
    {
      "channel": 5,
      "note": 32,
      "start": 51.466,
      "duration": 0.5326,
      "velocity": 69,
      "chip": "ym2612"
    },
    {
      "channel": 2,
      "note": 87,
      "start": 51.7315,
      "duration": 0.8089,
      "velocity": 102,
      "chip": "ym2612"
    },
    {
      "channel": 0,
      "note": 58,
      "start": 51.9978,
      "duration": 0.533,
      "velocity": 107,
      "chip": "ym2612"
    },
    {
      "channel": 5,
      "note": 72,
      "start": 52.0012,
      "duration": 0.5391,
      "velocity": 127,
      "chip": "ym2612"
    },
    {
      "channel": 0,
      "note": 56,
      "start": 52.5334,
      "duration": 0.007,
      "velocity": 107,
      "chip": "ym2612"
    },
    {
      "channel": 1,
      "note": 68,
      "start": 52.5363,
      "duration": 0.004,
      "velocity": 97,
      "chip": "ym2612"
    }
  ]
}