{
  "track_name": "15 - Rika",
  "duration_sec": 40.799,
  "sample_rate": 44100,
  "note_count": 459,
  "unique_pitches": 40,
  "pitch_range": 64,
  "avg_note_duration": 0.37,
  "reconstruction_stats": {
    "notes_reconstructed": 459,
    "keyon_events": 459,
    "keyoff_events": 453,
    "orphan_keyons": 4,
    "unique_pitches": 40,
    "pitch_range": 64,
    "avg_duration_sec": 0.37
  },
  "metadata": {
    "source": "P\\Phantasy Star IV\\15 - Rika.vgm"
  },
  "notes": [
    {
      "channel": 0,
      "note": 49,
      "start": 0.0,
      "duration": 0.2434,
      "velocity": 111,
      "chip": "ym2612"
    },
    {
      "channel": 1,
      "note": 87,
      "start": 0.0009,
      "duration": 0.2427,
      "velocity": 76,
      "chip": "ym2612"
    },
    {
      "channel": 4,
      "note": 85,
      "start": 0.0036,
      "duration": 0.04,
      "velocity": 105,
      "chip": "ym2612"
    },
    {
      "channel": 2,
      "note": 87,
      "start": 0.0082,
      "duration": 0.3686,
      "velocity": 76,
      "chip": "ym2612"
    },
    {
      "channel": 4,
      "note": 88,
      "start": 0.044,
      "duration": 0.2001,
      "velocity": 105,
      "chip": "ym2612"
    },
    {
      "channel": 0,
      "note": 56,
      "start": 0.2435,
      "duration": 0.4001,
      "velocity": 111,
      "chip": "ym2612"
    },
    {
      "channel": 1,
      "note": 88,
      "start": 0.2438,
      "duration": 0.4,
      "velocity": 76,
      "chip": "ym2612"
    },
    {
      "channel": 4,
      "note": 92,
      "start": 0.2444,
      "duration": 0.1993,
      "velocity": 105,
      "chip": "ym2612"
    },
    {
      "channel": 2,
      "note": 88,
      "start": 0.3771,
      "duration": 0.273,
      "velocity": 76,
      "chip": "ym2612"
    },
    {
      "channel": 4,
      "note": 95,
      "start": 0.444,
      "duration": 0.2003,
      "velocity": 105,
      "chip": "ym2612"
    },
    {
      "channel": 0,
      "note": 61,
      "start": 0.6437,
      "duration": 0.0174,
      "velocity": 111,
      "chip": "ym2612"
    },
    {
      "channel": 1,
      "note": 90,
      "start": 0.6441,
      "duration": 0.0173,
      "velocity": 76,
      "chip": "ym2612"
    },
    {
      "channel": 4,
      "note": 97,
      "start": 0.6446,
      "duration": 0.0085,
      "velocity": 105,
      "chip": "ym2612"
    },
    {
      "channel": 2,
      "note": 90,
      "start": 0.6502,
      "duration": 0.0171,
      "velocity": 76,
      "chip": "ym2612"
    },
    {
      "channel": 4,
      "note": 100,
      "start": 0.6533,
      "duration": 0.0083,
      "velocity": 105,
      "chip": "ym2612"
    },
    {
      "channel": 0,
      "note": 63,
      "start": 0.6613,
      "duration": 0.0172,
      "velocity": 111,
      "chip": "ym2612"
    },
    {
      "channel": 1,
      "note": 92,
      "start": 0.6615,
      "duration": 0.0356,
      "velocity": 76,
      "chip": "ym2612"
    },
    {
      "channel": 4,
      "note": 99,
      "start": 0.6619,
      "duration": 0.0085,
      "velocity": 105,
      "chip": "ym2612"
    },
    {
      "channel": 2,
      "note": 92,
      "start": 0.6675,
      "duration": 0.0358,
      "velocity": 76,
      "chip": "ym2612"
    },
    {
      "channel": 4,
      "note": 102,
      "start": 0.6706,
      "duration": 0.0085,
      "velocity": 105,
      "chip": "ym2612"
    },
    {
      "channel": 0,
      "note": 64,
      "start": 0.6787,
      "duration": 0.0181,
      "velocity": 111,
      "chip": "ym2612"
    },
    {
      "channel": 4,
      "note": 100,
      "start": 0.6794,
      "duration": 0.0085,
      "velocity": 105,
      "chip": "ym2612"
    },
    {
      "channel": 4,
      "note": 104,
      "start": 0.6882,
      "duration": 0.0092,
      "velocity": 105,
      "chip": "ym2612"
    },
    {
      "channel": 0,
      "note": 61,
      "start": 0.697,
      "duration": 0.2451,
      "velocity": 111,
      "chip": "ym2612"
    },
    {
      "channel": 1,
      "note": 90,
      "start": 0.6972,
      "duration": 0.0446,
      "velocity": 76,
      "chip": "ym2612"
    },
    {
      "channel": 4,
      "note": 97,
      "start": 0.6977,
      "duration": 0.0446,
      "velocity": 105,
      "chip": "ym2612"
    },
    {
      "channel": 2,
      "note": 90,
      "start": 0.7035,
      "duration": 0.1718,
      "velocity": 76,
      "chip": "ym2612"
    },
    {
      "channel": 1,
      "note": 88,
      "start": 0.7421,
      "duration": 0.2003,
      "velocity": 76,
      "chip": "ym2612"
    },
    {
      "channel": 4,
      "note": 100,
      "start": 0.7426,
      "duration": 0.2003,
      "velocity": 105,
      "chip": "ym2612"
    },
    {
      "channel": 2,
      "note": 88,
      "start": 0.8756,
      "duration": 0.0732,
      "velocity": 76,
      "chip": "ym2612"
    },
    {
      "channel": 0,
      "note": 47,
      "start": 0.9423,
      "duration": 0.2448,
      "velocity": 111,
      "chip": "ym2612"
    },
    {
      "channel": 1,
      "note": 92,
      "start": 0.9426,
      "duration": 0.645,
      "velocity": 76,
      "chip": "ym2612"
    },
    {
      "channel": 4,
      "note": 83,
      "start": 0.9432,
      "duration": 0.0441,
      "velocity": 105,
      "chip": "ym2612"
    },
    {
      "channel": 2,
      "note": 92,
      "start": 0.9489,
      "duration": 0.6446,
      "velocity": 76,
      "chip": "ym2612"
    },
    {
      "channel": 4,
      "note": 87,
      "start": 0.9877,
      "duration": 0.1999,
      "velocity": 105,
      "chip": "ym2612"
    },
    {
      "channel": 0,
      "note": 56,
      "start": 1.1872,
      "duration": 0.4001,
      "velocity": 111,
      "chip": "ym2612"
    },
    {
      "channel": 4,
      "note": 92,
      "start": 1.1879,
      "duration": 0.1995,
      "velocity": 105,
      "chip": "ym2612"
    },
    {
      "channel": 4,
      "note": 95,
      "start": 1.3877,
      "duration": 0.2003,
      "velocity": 105,
      "chip": "ym2612"
    },
    {
      "channel": 0,
      "note": 59,
      "start": 1.5875,
      "duration": 0.017,
      "velocity": 111,
      "chip": "ym2612"
    },
    {
      "channel": 1,
      "note": 87,
      "start": 1.5878,
      "duration": 0.0531,
      "velocity": 76,
      "chip": "ym2612"
    },
    {
      "channel": 4,
      "note": 95,
      "start": 1.5882,
      "duration": 0.0083,
      "velocity": 105,
      "chip": "ym2612"
    },
    {
      "channel": 2,
      "note": 87,
      "start": 1.5936,
      "duration": 0.0533,
      "velocity": 76,
      "chip": "ym2612"
    },
    {
      "channel": 4,
      "note": 99,
      "start": 1.5968,
      "duration": 0.0083,
      "velocity": 105,
      "chip": "ym2612"
    },
    {
      "channel": 0,
      "note": 63,
      "start": 1.6047,
      "duration": 0.0173,
      "velocity": 111,
      "chip": "ym2612"
    },
    {
      "channel": 4,
      "note": 99,
      "start": 1.6053,
      "duration": 0.0081,
      "velocity": 105,
      "chip": "ym2612"
    },
    {
      "channel": 4,
      "note": 102,
      "start": 1.6137,
      "duration": 0.009,
      "velocity": 105,
      "chip": "ym2612"
    },
    {
      "channel": 0,
      "note": 68,
      "start": 1.6223,
      "duration": 0.0183,
      "velocity": 111,
      "chip": "ym2612"
    },
    {
      "channel": 4,
      "note": 104,
      "start": 1.6229,
      "duration": 0.0087,
      "velocity": 105,
      "chip": "ym2612"
    },
    {
      "channel": 4,
      "note": 95,
      "start": 1.6319,
      "duration": 0.0094,
      "velocity": 105,
      "chip": "ym2612"
    },
    {
      "channel": 0,
      "note": 59,
      "start": 1.6408,
      "duration": 0.2449,
      "velocity": 111,
      "chip": "ym2612"
    },
    {
      "channel": 1,
      "note": 92,
      "start": 1.6411,
      "duration": 0.2449,
      "velocity": 76,
      "chip": "ym2612"
    },
    {
      "channel": 4,
      "note": 95,
      "start": 1.6416,
      "duration": 0.0441,
      "velocity": 105,
      "chip": "ym2612"
    },
    {
      "channel": 2,
      "note": 92,
      "start": 1.6471,
      "duration": 0.2451,
      "velocity": 76,
      "chip": "ym2612"
    },
    {
      "channel": 4,
      "note": 99,
      "start": 1.686,
      "duration": 0.2005,
      "velocity": 105,
      "chip": "ym2612"
    },
    {
      "channel": 0,
      "note": 45,
      "start": 1.8858,
      "duration": 0.2447,
      "velocity": 111,
      "chip": "ym2612"
    },
    {
      "channel": 1,
      "note": 92,
      "start": 1.8861,
      "duration": 0.6449,
      "velocity": 76,
      "chip": "ym2612"
    },
    {
      "channel": 4,
      "note": 81,
      "start": 1.8866,
      "duration": 0.0442,
      "velocity": 105,
      "chip": "ym2612"
    },
    {
      "channel": 2,
      "note": 92,
      "start": 1.8923,
      "duration": 0.6446,
      "velocity": 76,
      "chip": "ym2612"
    },
    {
      "channel": 4,
      "note": 85,
      "start": 1.9311,
      "duration": 0.1999,
      "velocity": 105,
      "chip": "ym2612"
    },
    {
      "channel": 0,
      "note": 52,
      "start": 2.1307,
      "duration": 0.4001,
      "velocity": 111,
      "chip": "ym2612"
    },
    {
      "channel": 4,
      "note": 88,
      "start": 2.1314,
      "duration": 0.1995,
      "velocity": 105,
      "chip": "ym2612"
    },
    {
      "channel": 4,
      "note": 92,
      "start": 2.3311,
      "duration": 0.2003,
      "velocity": 105,
      "chip": "ym2612"
    },
    {
      "channel": 0,
      "note": 57,
      "start": 2.531,
      "duration": 0.0171,
      "velocity": 111,
      "chip": "ym2612"
    },
    {
      "channel": 1,
      "note": 85,
      "start": 2.5312,
      "duration": 0.0524,
      "velocity": 76,
      "chip": "ym2612"
    },
    {
      "channel": 4,
      "note": 93,
      "start": 2.5316,
      "duration": 0.0083,
      "velocity": 105,
      "chip": "ym2612"
    },
    {
      "channel": 2,
      "note": 85,
      "start": 2.5371,
      "duration": 0.0549,
      "velocity": 76,
      "chip": "ym2612"
    },
    {
      "channel": 4,
      "note": 97,
      "start": 2.5402,
      "duration": 0.0083,
      "velocity": 105,
      "chip": "ym2612"
    },
    {
      "channel": 0,
      "note": 59,
      "start": 2.5482,
      "duration": 0.0178,
      "velocity": 111,
      "chip": "ym2612"
    },
    {
      "channel": 4,
      "note": 95,
      "start": 2.5488,
      "duration": 0.0083,
      "velocity": 105,
      "chip": "ym2612"
    },
    {
      "channel": 4,
      "note": 99,
      "start": 2.5574,
      "duration": 0.0093,
      "velocity": 105,
      "chip": "ym2612"
    },
    {
      "channel": 0,
      "note": 61,
      "start": 2.5662,
      "duration": 0.0171,
      "velocity": 111,
      "chip": "ym2612"
    },
    {
      "channel": 4,
      "note": 97,
      "start": 2.5669,
      "duration": 0.0081,
      "velocity": 105,
      "chip": "ym2612"
    },
    {
      "channel": 4,
      "note": 100,
      "start": 2.5752,
      "duration": 0.009,
      "velocity": 105,
      "chip": "ym2612"
    },
    {
      "channel": 0,
      "note": 57,
      "start": 2.5836,
      "duration": 0.2473,
      "velocity": 111,
      "chip": "ym2612"
    },
    {
      "channel": 1,
      "note": 87,
      "start": 2.5839,
      "duration": 0.0466,
      "velocity": 76,
      "chip": "ym2612"
    },
    {
      "channel": 4,
      "note": 93,
      "start": 2.5844,
      "duration": 0.0466,
      "velocity": 105,
      "chip": "ym2612"
    },
    {
      "channel": 2,
      "note": 87,
      "start": 2.5922,
      "duration": 0.1718,
      "velocity": 76,
      "chip": "ym2612"
    },
    {
      "channel": 1,
      "note": 88,
      "start": 2.6308,
      "duration": 0.2003,
      "velocity": 76,
      "chip": "ym2612"
    },
    {
      "channel": 4,
      "note": 97,
      "start": 2.6313,
      "duration": 0.2003,
      "velocity": 105,
      "chip": "ym2612"
    },
    {
      "channel": 2,
      "note": 88,
      "start": 2.7643,
      "duration": 0.0729,
      "velocity": 76,
      "chip": "ym2612"
    },
    {
      "channel": 0,
      "note": 44,
      "start": 2.831,
      "duration": 0.2445,
      "velocity": 111,
      "chip": "ym2612"
    },
    {
      "channel": 1,
      "note": 87,
      "start": 2.8314,
      "duration": 0.0441,
      "velocity": 76,
      "chip": "ym2612"
    },
    {
      "channel": 4,
      "note": 80,
      "start": 2.832,
      "duration": 0.044,
      "velocity": 105,
      "chip": "ym2612"
    },
    {
      "channel": 2,
      "note": 87,
      "start": 2.8374,
      "duration": 0.1716,
      "velocity": 76,
      "chip": "ym2612"
    },
    {
      "channel": 1,
      "note": 83,
      "start": 2.8757,
      "duration": 0.2,
      "velocity": 76,
      "chip": "ym2612"
    },
    {
      "channel": 4,
      "note": 83,
      "start": 2.8762,
      "duration": 0.1999,
      "velocity": 105,
      "chip": "ym2612"
    },
    {
      "channel": 2,
      "note": 83,
      "start": 3.0092,
      "duration": 0.1998,
      "velocity": 76,
      "chip": "ym2612"
    },
    {
      "channel": 0,
      "note": 51,
      "start": 3.0756,
      "duration": 0.4001,
      "velocity": 111,
      "chip": "ym2612"
    },
    {
      "channel": 1,
      "note": 80,
      "start": 3.076,
      "duration": 0.6992,
      "velocity": 76,
      "chip": "ym2612"
    },
    {
      "channel": 4,
      "note": 87,
      "start": 3.0765,
      "duration": 0.1993,
      "velocity": 105,
      "chip": "ym2612"
    },
    {
      "channel": 2,
      "note": 80,
      "start": 3.2092,
      "duration": 0.5722,
      "velocity": 76,
      "chip": "ym2612"
    },
    {
      "channel": 4,
      "note": 90,
      "start": 3.2761,
      "duration": 0.2001,
      "velocity": 105,
      "chip": "ym2612"
    },
    {
      "channel": 0,
      "note": 56,
      "start": 3.4759,
      "duration": 0.0182,
      "velocity": 111,
      "chip": "ym2612"
    },
    {
      "channel": 4,
      "note": 92,
      "start": 3.4765,
      "duration": 0.0087,
      "velocity": 105,
      "chip": "ym2612"
    },
    {
      "channel": 4,
      "note": 83,
      "start": 3.4855,
      "duration": 0.009,
      "velocity": 105,
      "chip": "ym2612"
    },
    {
      "channel": 0,
      "note": 59,
      "start": 3.4941,
      "duration": 0.018,
      "velocity": 111,
      "chip": "ym2612"
    },
    {
      "channel": 4,
      "note": 95,
      "start": 3.4946,
      "duration": 0.0089,
      "velocity": 105,
      "chip": "ym2612"
    },
    {
      "channel": 4,
      "note": 99,
      "start": 3.5037,
      "duration": 0.0091,
      "velocity": 105,
      "chip": "ym2612"
    },
    {
      "channel": 0,
      "note": 63,
      "start": 3.5124,
      "duration": 0.0174,
      "velocity": 111,
      "chip": "ym2612"
    },
    {
      "channel": 4,
      "note": 99,
      "start": 3.5131,
      "duration": 0.008,
      "velocity": 105,
      "chip": "ym2612"
    },
    {
      "channel": 4,
      "note": 102,
      "start": 3.5213,
      "duration": 0.0091,
      "velocity": 105,
      "chip": "ym2612"
    },
    {
      "channel": 0,
      "note": 56,
      "start": 3.53,
      "duration": 0.2449,
      "velocity": 111,
      "chip": "ym2612"
    },
    {
      "channel": 4,
      "note": 92,
      "start": 3.5306,
      "duration": 0.0443,
      "velocity": 105,
      "chip": "ym2612"
    },
    {
      "channel": 4,
      "note": 95,
      "start": 3.5752,
      "duration": 0.2005,
      "velocity": 105,
      "chip": "ym2612"
    },
    {
      "channel": 0,
      "note": 54,
      "start": 3.775,
      "duration": 0.2447,
      "velocity": 111,
      "chip": "ym2612"
    },
    {
      "channel": 1,
      "note": 81,
      "start": 3.7754,
      "duration": 0.2446,
      "velocity": 76,
      "chip": "ym2612"
    },
    {
      "channel": 4,
      "note": 90,
      "start": 3.7758,
      "duration": 0.0442,
      "velocity": 105,
      "chip": "ym2612"
    },
    {
      "channel": 2,
      "note": 81,
      "start": 3.7815,
      "duration": 0.3716,
      "velocity": 76,
      "chip": "ym2612"
    },
    {
      "channel": 4,
      "note": 93,
      "start": 3.8203,
      "duration": 0.2001,
      "velocity": 105,
      "chip": "ym2612"
    },
    {
      "channel": 0,
      "note": 52,
      "start": 4.0199,
      "duration": 0.4001,
      "velocity": 111,
      "chip": "ym2612"
    },
    {
      "channel": 1,
      "note": 80,
      "start": 4.0202,
      "duration": 0.4,
      "velocity": 76,
      "chip": "ym2612"
    },
    {
      "channel": 4,
      "note": 88,
      "start": 4.0207,
      "duration": 0.1993,
      "velocity": 105,
      "chip": "ym2612"
    },
    {
      "channel": 2,
      "note": 80,
      "start": 4.1534,
      "duration": 0.273,
      "velocity": 76,
      "chip": "ym2612"
    },
    {
      "channel": 4,
      "note": 92,
      "start": 4.2203,
      "duration": 0.2003,
      "velocity": 105,
      "chip": "ym2612"
    },
    {
      "channel": 0,
      "note": 54,
      "start": 4.4201,
      "duration": 0.0174,
      "velocity": 111,
      "chip": "ym2612"
    },
    {
      "channel": 1,
      "note": 81,
      "start": 4.4204,
      "duration": 0.0173,
      "velocity": 76,
      "chip": "ym2612"
    },
    {
      "channel": 4,
      "note": 90,
      "start": 4.4209,
      "duration": 0.0085,
      "velocity": 105,
      "chip": "ym2612"
    },
    {
      "channel": 2,
      "note": 81,
      "start": 4.4265,
      "duration": 0.0172,
      "velocity": 76,
      "chip": "ym2612"
    },
    {
      "channel": 4,
      "note": 93,
      "start": 4.4297,
      "duration": 0.0084,
      "velocity": 105,
      "chip": "ym2612"
    },
    {
      "channel": 0,
      "note": 56,
      "start": 4.4376,
      "duration": 0.0172,
      "velocity": 111,
      "chip": "ym2612"
    },
    {
      "channel": 1,
      "note": 83,
      "start": 4.4378,
      "duration": 0.0173,
      "velocity": 76,
      "chip": "ym2612"
    },
    {
      "channel": 4,
      "note": 92,
      "start": 4.4383,
      "duration": 0.0084,
      "velocity": 105,
      "chip": "ym2612"
    },
    {
      "channel": 2,
      "note": 83,
      "start": 4.4439,
      "duration": 0.0175,
      "velocity": 76,
      "chip": "ym2612"
    },
    {
      "channel": 4,
      "note": 95,
      "start": 4.447,
      "duration": 0.0085,
      "velocity": 105,
      "chip": "ym2612"
    },
    {
      "channel": 0,
      "note": 57,
      "start": 4.4551,
      "duration": 0.0176,
      "velocity": 111,
      "chip": "ym2612"
    },
    {
      "channel": 1,
      "note": 85,
      "start": 4.4553,
      "duration": 0.0176,
      "velocity": 76,
      "chip": "ym2612"
    },
    {
      "channel": 4,
      "note": 93,
      "start": 4.4558,
      "duration": 0.0086,
      "velocity": 105,
      "chip": "ym2612"
    },
    {
      "channel": 2,
      "note": 85,
      "start": 4.4615,
      "duration": 0.0175,
      "velocity": 76,
      "chip": "ym2612"
    },
    {
      "channel": 4,
      "note": 97,
      "start": 4.4647,
      "duration": 0.0085,
      "velocity": 105,
      "chip": "ym2612"
    },
    {
      "channel": 0,
      "note": 54,
      "start": 4.4729,
      "duration": 0.2451,
      "velocity": 111,
      "chip": "ym2612"
    },
    {
      "channel": 1,
      "note": 88,
      "start": 4.4731,
      "duration": 0.2451,
      "velocity": 76,
      "chip": "ym2612"
    },
    {
      "channel": 4,
      "note": 90,
      "start": 4.4735,
      "duration": 0.0444,
      "velocity": 105,
      "chip": "ym2612"
    },
    {
      "channel": 2,
      "note": 88,
      "start": 4.4792,
      "duration": 0.2452,
      "velocity": 76,
      "chip": "ym2612"
    },
    {
      "channel": 4,
      "note": 93,
      "start": 4.5182,
      "duration": 0.2005,
      "velocity": 105,
      "chip": "ym2612"
    },
    {
      "channel": 0,
      "note": 40,
      "start": 4.718,
      "duration": 0.2447,
      "velocity": 111,
      "chip": "ym2612"
    },
    {
      "channel": 1,
      "note": 92,
      "start": 4.7184,
      "duration": 0.6449,
      "velocity": 76,
      "chip": "ym2612"
    },
    {
      "channel": 4,
      "note": 76,
      "start": 4.7189,
      "duration": 0.0441,
      "velocity": 105,
      "chip": "ym2612"
    },
    {
      "channel": 2,
      "note": 92,
      "start": 4.7246,
      "duration": 0.6448,
      "velocity": 76,
      "chip": "ym2612"
    },
    {
      "channel": 4,
      "note": 80,
      "start": 4.7634,
      "duration": 0.1999,
      "velocity": 105,
      "chip": "ym2612"
    },
    {
      "channel": 0,
      "note": 47,
      "start": 4.9629,
      "duration": 0.4001,
      "velocity": 111,
      "chip": "ym2612"
    },
    {
      "channel": 4,
      "note": 83,
      "start": 4.9636,
      "duration": 0.1995,
      "velocity": 105,
      "chip": "ym2612"
    },
    {
      "channel": 4,
      "note": 87,
      "start": 5.1634,
      "duration": 0.2003,
      "velocity": 105,
      "chip": "ym2612"
    },
    {
      "channel": 0,
      "note": 52,
      "start": 5.3632,
      "duration": 0.0176,
      "velocity": 111,
      "chip": "ym2612"
    },
    {
      "channel": 1,
      "note": 87,
      "start": 5.3635,
      "duration": 0.0349,
      "velocity": 76,
      "chip": "ym2612"
    },
    {
      "channel": 4,
      "note": 88,
      "start": 5.3639,
      "duration": 0.0084,
      "velocity": 105,
      "chip": "ym2612"
    },
    {
      "channel": 2,
      "note": 87,
      "start": 5.3696,
      "duration": 0.0348,
      "velocity": 76,
      "chip": "ym2612"
    },
    {
      "channel": 4,
      "note": 92,
      "start": 5.3726,
      "duration": 0.0085,
      "velocity": 105,
      "chip": "ym2612"
    },
    {
      "channel": 0,
      "note": 56,
      "start": 5.3809,
      "duration": 0.0173,
      "velocity": 111,
      "chip": "ym2612"
    },
    {
      "channel": 4,
      "note": 92,
      "start": 5.3814,
      "duration": 0.0083,
      "velocity": 105,
      "chip": "ym2612"
    },
    {
      "channel": 4,
      "note": 95,
      "start": 5.39,
      "duration": 0.0088,
      "velocity": 105,
      "chip": "ym2612"
    },
    {
      "channel": 0,
      "note": 59,
      "start": 5.3984,
      "duration": 0.0178,
      "velocity": 111,
      "chip": "ym2612"
    },
    {
      "channel": 1,
      "note": 92,
      "start": 5.3986,
      "duration": 0.2625,
      "velocity": 76,
      "chip": "ym2612"
    },
    {
      "channel": 4,
      "note": 95,
      "start": 5.399,
      "duration": 0.0083,
      "velocity": 105,
      "chip": "ym2612"
    },
    {
      "channel": 2,
      "note": 92,
      "start": 5.4046,
      "duration": 0.2628,
      "velocity": 76,
      "chip": "ym2612"
    },
    {
      "channel": 4,
      "note": 99,
      "start": 5.4076,
      "duration": 0.0092,
      "velocity": 105,
      "chip": "ym2612"
    },
    {
      "channel": 0,
      "note": 52,
      "start": 5.4164,
      "duration": 0.2446,
      "velocity": 111,
      "chip": "ym2612"
    },
    {
      "channel": 4,
      "note": 88,
      "start": 5.4169,
      "duration": 0.0441,
      "velocity": 105,
      "chip": "ym2612"
    },
    {
      "channel": 4,
      "note": 92,
      "start": 5.4612,
      "duration": 0.2005,
      "velocity": 105,
      "chip": "ym2612"
    },
    {
      "channel": 0,
      "note": 42,
      "start": 5.661,
      "duration": 0.2447,
      "velocity": 111,
      "chip": "ym2612"
    },
    {
      "channel": 1,
      "note": 93,
      "start": 5.6614,
      "duration": 0.6448,
      "velocity": 76,
      "chip": "ym2612"
    },
    {
      "channel": 4,
      "note": 78,
      "start": 5.6619,
      "duration": 0.0441,
      "velocity": 105,
      "chip": "ym2612"
    },
    {
      "channel": 2,
      "note": 93,
      "start": 5.6676,
      "duration": 0.6447,
      "velocity": 76,
      "chip": "ym2612"
    },
    {
      "channel": 4,
      "note": 81,
      "start": 5.7063,
      "duration": 0.1999,
      "velocity": 105,
      "chip": "ym2612"
    },
    {
      "channel": 0,
      "note": 49,
      "start": 5.9059,
      "duration": 0.4001,
      "velocity": 111,
      "chip": "ym2612"
    },
    {
      "channel": 4,
      "note": 85,
      "start": 5.9066,
      "duration": 0.1995,
      "velocity": 105,
      "chip": "ym2612"
    },
    {
      "channel": 4,
      "note": 88,
      "start": 6.1063,
      "duration": 0.2003,
      "velocity": 105,
      "chip": "ym2612"
    },
    {
      "channel": 0,
      "note": 54,
      "start": 6.3061,
      "duration": 0.0173,
      "velocity": 111,
      "chip": "ym2612"
    },
    {
      "channel": 1,
      "note": 93,
      "start": 6.3065,
      "duration": 0.0172,
      "velocity": 76,
      "chip": "ym2612"
    },
    {
      "channel": 4,
      "note": 90,
      "start": 6.3069,
      "duration": 0.0084,
      "velocity": 105,
      "chip": "ym2612"
    },
    {
      "channel": 2,
      "note": 93,
      "start": 6.3124,
      "duration": 0.0172,
      "velocity": 76,
      "chip": "ym2612"
    },
    {
      "channel": 4,
      "note": 93,
      "start": 6.3156,
      "duration": 0.0084,
      "velocity": 105,
      "chip": "ym2612"
    },
    {
      "channel": 0,
      "note": 56,
      "start": 6.3236,
      "duration": 0.0172,
      "velocity": 111,
      "chip": "ym2612"
    },
    {
      "channel": 1,
      "note": 92,
      "start": 6.3238,
      "duration": 0.0173,
      "velocity": 76,
      "chip": "ym2612"
    },
    {
      "channel": 4,
      "note": 92,
      "start": 6.3243,
      "duration": 0.0084,
      "velocity": 105,
      "chip": "ym2612"
    },
    {
      "channel": 2,
      "note": 92,
      "start": 6.3298,
      "duration": 0.0175,
      "velocity": 76,
      "chip": "ym2612"
    },
    {
      "channel": 4,
      "note": 95,
      "start": 6.3329,
      "duration": 0.0085,
      "velocity": 105,
      "chip": "ym2612"
    },
    {
      "channel": 0,
      "note": 57,
      "start": 6.341,
      "duration": 0.0176,
      "velocity": 111,
      "chip": "ym2612"
    },
    {
      "channel": 1,
      "note": 90,
      "start": 6.3412,
      "duration": 0.0176,
      "velocity": 76,
      "chip": "ym2612"
    },
    {
      "channel": 4,
      "note": 93,
      "start": 6.3417,
      "duration": 0.0086,
      "velocity": 105,
      "chip": "ym2612"
    },
    {
      "channel": 2,
      "note": 90,
      "start": 6.3475,
      "duration": 0.0175,
      "velocity": 76,
      "chip": "ym2612"
    },
    {
      "channel": 4,
      "note": 97,
      "start": 6.3506,
      "duration": 0.0085,
      "velocity": 105,
      "chip": "ym2612"
    },
    {
      "channel": 0,
      "note": 61,
      "start": 6.3588,
      "duration": 0.2451,
      "velocity": 111,
      "chip": "ym2612"
    },
    {
      "channel": 1,
      "note": 88,
      "start": 6.359,
      "duration": 0.2451,
      "velocity": 76,
      "chip": "ym2612"
    },
    {
      "channel": 4,
      "note": 97,
      "start": 6.3595,
      "duration": 0.0444,
      "velocity": 105,
      "chip": "ym2612"
    },
    {
      "channel": 2,
      "note": 88,
      "start": 6.3652,
      "duration": 0.2454,
      "velocity": 76,
      "chip": "ym2612"
    },
    {
      "channel": 4,
      "note": 100,
      "start": 6.4042,
      "duration": 0.2005,
      "velocity": 105,
      "chip": "ym2612"
    },
    {
      "channel": 0,
      "note": 56,
      "start": 6.604,
      "duration": 0.2448,
      "velocity": 111,
      "chip": "ym2612"
    },
    {
      "channel": 1,
      "note": 90,
      "start": 6.6043,
      "duration": 0.2447,
      "velocity": 76,
      "chip": "ym2612"
    },
    {
      "channel": 4,
      "note": 92,
      "start": 6.6049,
      "duration": 0.0442,
      "velocity": 105,
      "chip": "ym2612"
    },
    {
      "channel": 2,
      "note": 90,
      "start": 6.6107,
      "duration": 0.3716,
      "velocity": 76,
      "chip": "ym2612"
    },
    {
      "channel": 4,
      "note": 96,
      "start": 6.6494,
      "duration": 0.2001,
      "velocity": 105,
      "chip": "ym2612"
    },
    {
      "channel": 0,
      "note": 44,
      "start": 6.849,
      "duration": 0.4001,
      "velocity": 111,
      "chip": "ym2612"
    },
    {
      "channel": 1,
      "note": 84,
      "start": 6.8493,
      "duration": 0.4,
      "velocity": 76,
      "chip": "ym2612"
    },
    {
      "channel": 4,
      "note": 80,
      "start": 6.8498,
      "duration": 0.1993,
      "velocity": 105,
      "chip": "ym2612"
    },
    {
      "channel": 2,
      "note": 84,
      "start": 6.9825,
      "duration": 0.273,
      "velocity": 76,
      "chip": "ym2612"
    },
    {
      "channel": 4,
      "note": 84,
      "start": 7.0494,
      "duration": 0.2003,
      "velocity": 105,
      "chip": "ym2612"
    },
    {
      "channel": 0,
      "note": 46,
      "start": 7.2492,
      "duration": 0.0174,
      "velocity": 111,
      "chip": "ym2612"
    },
    {
      "channel": 1,
      "note": 85,
      "start": 7.2495,
      "duration": 0.0173,
      "velocity": 76,
      "chip": "ym2612"
    },
    {
      "channel": 4,
      "note": 82,
      "start": 7.25,
      "duration": 0.0085,
      "velocity": 105,
      "chip": "ym2612"
    },
    {
      "channel": 2,
      "note": 85,
      "start": 7.2556,
      "duration": 0.0172,
      "velocity": 76,
      "chip": "ym2612"
    },
    {
      "channel": 4,
      "note": 85,
      "start": 7.2588,
      "duration": 0.0084,
      "velocity": 105,
      "chip": "ym2612"
    },
    {
      "channel": 0,
      "note": 48,
      "start": 7.2667,
      "duration": 0.0172,
      "velocity": 111,
      "chip": "ym2612"
    },
    {
      "channel": 1,
      "note": 87,
      "start": 7.2669,
      "duration": 0.0173,
      "velocity": 76,
      "chip": "ym2612"
    },
    {
      "channel": 4,
      "note": 84,
      "start": 7.2674,
      "duration": 0.0084,
      "velocity": 105,
      "chip": "ym2612"
    },
    {
      "channel": 2,
      "note": 87,
      "start": 7.2729,
      "duration": 0.0175,
      "velocity": 76,
      "chip": "ym2612"
    },
    {
      "channel": 4,
      "note": 87,
      "start": 7.2761,
      "duration": 0.0085,
      "velocity": 105,
      "chip": "ym2612"
    },
    {
      "channel": 0,
      "note": 49,
      "start": 7.2841,
      "duration": 0.0176,
      "velocity": 111,
      "chip": "ym2612"
    },
    {
      "channel": 1,
      "note": 88,
      "start": 7.2844,
      "duration": 0.0176,
      "velocity": 76,
      "chip": "ym2612"
    },
    {
      "channel": 4,
      "note": 85,
      "start": 7.2849,
      "duration": 0.0086,
      "velocity": 105,
      "chip": "ym2612"
    },
    {
      "channel": 2,
      "note": 88,
      "start": 7.2906,
      "duration": 0.0175,
      "velocity": 76,
      "chip": "ym2612"
    },
    {
      "channel": 4,
      "note": 88,
      "start": 7.2938,
      "duration": 0.0085,
      "velocity": 105,
      "chip": "ym2612"
    },
    {
      "channel": 0,
      "note": 51,
      "start": 7.302,
      "duration": 0.2451,
      "velocity": 111,
      "chip": "ym2612"
    },
    {
      "channel": 1,
      "note": 90,
      "start": 7.3022,
      "duration": 0.2451,
      "velocity": 76,
      "chip": "ym2612"
    },
    {
      "channel": 4,
      "note": 87,
      "start": 7.3026,
      "duration": 0.0444,
      "velocity": 105,
      "chip": "ym2612"
    },
    {
      "channel": 2,
      "note": 90,
      "start": 7.3083,
      "duration": 0.2452,
      "velocity": 76,
      "chip": "ym2612"
    },
    {
      "channel": 4,
      "note": 90,
      "start": 7.3473,
      "duration": 0.2005,
      "velocity": 105,
      "chip": "ym2612"
    },
    {
      "channel": 0,
      "note": 49,
      "start": 7.5471,
      "duration": 0.2446,
      "velocity": 111,
      "chip": "ym2612"
    },
    {
      "channel": 1,
      "note": 87,
      "start": 7.5475,
      "duration": 0.2445,
      "velocity": 76,
      "chip": "ym2612"
    },
    {
      "channel": 3,
      "note": 104,
      "start": 7.5478,
      "duration": 0.6449,
      "velocity": 76,
      "chip": "ym2612"
    },
    {
      "channel": 4,
      "note": 85,
      "start": 7.5481,
      "duration": 0.0439,
      "velocity": 105,
      "chip": "ym2612"
    },
    {
      "channel": 2,
      "note": 87,
      "start": 7.5537,
      "duration": 0.3714,
      "velocity": 76,
      "chip": "ym2612"
    },
    {
      "channel": 4,
      "note": 88,
      "start": 7.5923,
      "duration": 0.2001,
      "velocity": 105,
      "chip": "ym2612"
    },
    {
      "channel": 0,
      "note": 56,
      "start": 7.7919,
      "duration": 0.4001,
      "velocity": 111,
      "chip": "ym2612"
    },
    {
      "channel": 1,
      "note": 88,
      "start": 7.7921,
      "duration": 0.4,
      "velocity": 76,
      "chip": "ym2612"
    },
    {
      "channel": 4,
      "note": 92,
      "start": 7.7927,
      "duration": 0.1994,
      "velocity": 105,
      "chip": "ym2612"
    },
    {
      "channel": 2,
      "note": 88,
      "start": 7.9254,
      "duration": 0.2731,
      "velocity": 76,
      "chip": "ym2612"
    },
    {
      "channel": 4,
      "note": 95,
      "start": 7.9923,
      "duration": 0.2006,
      "velocity": 105,
      "chip": "ym2612"
    },
    {
      "channel": 0,
      "note": 61,
      "start": 8.1921,
      "duration": 0.0178,
      "velocity": 111,
      "chip": "ym2612"
    },
    {
      "channel": 1,
      "note": 90,
      "start": 8.1924,
      "duration": 0.0177,
      "velocity": 76,
      "chip": "ym2612"
    },
    {
      "channel": 3,
      "note": 104,
      "start": 8.1928,
      "duration": 0.2982,
      "velocity": 76,
      "chip": "ym2612"
    },
    {
      "channel": 4,
      "note": 97,
      "start": 8.1932,
      "duration": 0.0085,
      "velocity": 105,
      "chip": "ym2612"
    },
    {
      "channel": 2,
      "note": 90,
      "start": 8.1988,
      "duration": 0.0173,
      "velocity": 76,
      "chip": "ym2612"
    },
    {
      "channel": 4,
      "note": 100,
      "start": 8.2018,
      "duration": 0.0086,
      "velocity": 105,
      "chip": "ym2612"
    },
    {
      "channel": 0,
      "note": 63,
      "start": 8.21,
      "duration": 0.0169,
      "velocity": 111,
      "chip": "ym2612"
    },
    {
      "channel": 1,
      "note": 92,
      "start": 8.2103,
      "duration": 0.0353,
      "velocity": 76,
      "chip": "ym2612"
    },
    {
      "channel": 4,
      "note": 99,
      "start": 8.2107,
      "duration": 0.0083,
      "velocity": 105,
      "chip": "ym2612"
    },
    {
      "channel": 2,
      "note": 92,
      "start": 8.2163,
      "duration": 0.0352,
      "velocity": 76,
      "chip": "ym2612"
    },
    {
      "channel": 4,
      "note": 102,
      "start": 8.2192,
      "duration": 0.0084,
      "velocity": 105,
      "chip": "ym2612"
    },
    {
      "channel": 0,
      "note": 64,
      "start": 8.2272,
      "duration": 0.0181,
      "velocity": 111,
      "chip": "ym2612"
    },
    {
      "channel": 4,
      "note": 100,
      "start": 8.2279,
      "duration": 0.0085,
      "velocity": 105,
      "chip": "ym2612"
    },
    {
      "channel": 4,
      "note": 104,
      "start": 8.2367,
      "duration": 0.0092,
      "velocity": 105,
      "chip": "ym2612"
    },
    {
      "channel": 0,
      "note": 61,
      "start": 8.2455,
      "duration": 0.2448,
      "velocity": 111,
      "chip": "ym2612"
    },
    {
      "channel": 1,
      "note": 90,
      "start": 8.2457,
      "duration": 0.0443,
      "velocity": 76,
      "chip": "ym2612"
    },
    {
      "channel": 4,
      "note": 97,
      "start": 8.2462,
      "duration": 0.0443,
      "velocity": 105,
      "chip": "ym2612"
    },
    {
      "channel": 2,
      "note": 90,
      "start": 8.2516,
      "duration": 0.1718,
      "velocity": 76,
      "chip": "ym2612"
    },
    {
      "channel": 1,
      "note": 88,
      "start": 8.2902,
      "duration": 0.2003,
      "velocity": 76,
      "chip": "ym2612"
    },
    {
      "channel": 4,
      "note": 100,
      "start": 8.2908,
      "duration": 0.2005,
      "velocity": 105,
      "chip": "ym2612"
    },
    {
      "channel": 2,
      "note": 88,
      "start": 8.4237,
      "duration": 0.073,
      "velocity": 76,
      "chip": "ym2612"
    },
    {
      "channel": 0,
      "note": 47,
      "start": 8.4904,
      "duration": 0.2444,
      "velocity": 111,
      "chip": "ym2612"
    },
    {
      "channel": 1,
      "note": 92,
      "start": 8.4908,
      "duration": 0.6446,
      "velocity": 76,
      "chip": "ym2612"
    },
    {
      "channel": 3,
      "note": 104,
      "start": 8.4912,
      "duration": 0.6447,
      "velocity": 76,
      "chip": "ym2612"
    },
    {
      "channel": 4,
      "note": 83,
      "start": 8.4914,
      "duration": 0.0438,
      "velocity": 105,
      "chip": "ym2612"
    },
    {
      "channel": 2,
      "note": 92,
      "start": 8.4969,
      "duration": 0.6449,
      "velocity": 76,
      "chip": "ym2612"
    },
    {
      "channel": 4,
      "note": 87,
      "start": 8.5355,
      "duration": 0.1999,
      "velocity": 105,
      "chip": "ym2612"
    },
    {
      "channel": 0,
      "note": 56,
      "start": 8.7351,
      "duration": 0.4001,
      "velocity": 111,
      "chip": "ym2612"
    },
    {
      "channel": 4,
      "note": 92,
      "start": 8.7358,
      "duration": 0.1995,
      "velocity": 105,
      "chip": "ym2612"
    },
    {
      "channel": 4,
      "note": 95,
      "start": 8.9355,
      "duration": 0.2006,
      "velocity": 105,
      "chip": "ym2612"
    },
    {
      "channel": 0,
      "note": 59,
      "start": 9.1353,
      "duration": 0.018,
      "velocity": 111,
      "chip": "ym2612"
    },
    {
      "channel": 1,
      "note": 87,
      "start": 9.1356,
      "duration": 0.0354,
      "velocity": 76,
      "chip": "ym2612"
    },
    {
      "channel": 3,
      "note": 104,
      "start": 9.136,
      "duration": 0.0352,
      "velocity": 76,
      "chip": "ym2612"
    },
    {
      "channel": 4,
      "note": 95,
      "start": 9.1363,
      "duration": 0.0086,
      "velocity": 105,
      "chip": "ym2612"
    },
    {
      "channel": 2,
      "note": 87,
      "start": 9.1421,
      "duration": 0.035,
      "velocity": 76,
      "chip": "ym2612"
    },
    {
      "channel": 4,
      "note": 99,
      "start": 9.1451,
      "duration": 0.0085,
      "velocity": 105,
      "chip": "ym2612"
    },
    {
      "channel": 0,
      "note": 63,
      "start": 9.1534,
      "duration": 0.0172,
      "velocity": 111,
      "chip": "ym2612"
    },
    {
      "channel": 4,
      "note": 99,
      "start": 9.154,
      "duration": 0.0084,
      "velocity": 105,
      "chip": "ym2612"
    },
    {
      "channel": 4,
      "note": 102,
      "start": 9.1627,
      "duration": 0.0087,
      "velocity": 105,
      "chip": "ym2612"
    },
    {
      "channel": 0,
      "note": 68,
      "start": 9.1708,
      "duration": 0.0176,
      "velocity": 111,
      "chip": "ym2612"
    },
    {
      "channel": 1,
      "note": 92,
      "start": 9.171,
      "duration": 0.2629,
      "velocity": 76,
      "chip": "ym2612"
    },
    {
      "channel": 3,
      "note": 99,
      "start": 9.1713,
      "duration": 0.2631,
      "velocity": 76,
      "chip": "ym2612"
    },
    {
      "channel": 4,
      "note": 104,
      "start": 9.1715,
      "duration": 0.0087,
      "velocity": 105,
      "chip": "ym2612"
    },
    {
      "channel": 2,
      "note": 92,
      "start": 9.1773,
      "duration": 0.2629,
      "velocity": 76,
      "chip": "ym2612"
    },
    {
      "channel": 4,
      "note": 95,
      "start": 9.1804,
      "duration": 0.0086,
      "velocity": 105,
      "chip": "ym2612"
    },
    {
      "channel": 0,
      "note": 59,
      "start": 9.1886,
      "duration": 0.2451,
      "velocity": 111,
      "chip": "ym2612"
    },
    {
      "channel": 4,
      "note": 95,
      "start": 9.1893,
      "duration": 0.0445,
      "velocity": 105,
      "chip": "ym2612"
    },
    {
      "channel": 4,
      "note": 99,
      "start": 9.2341,
      "duration": 0.2006,
      "velocity": 105,
      "chip": "ym2612"
    },
    {
      "channel": 0,
      "note": 45,
      "start": 9.4339,
      "duration": 0.2445,
      "velocity": 111,
      "chip": "ym2612"
    },
    {
      "channel": 1,
      "note": 97,
      "start": 9.4342,
      "duration": 0.6447,
      "velocity": 76,
      "chip": "ym2612"
    },
    {
      "channel": 3,
      "note": 97,
      "start": 9.4346,
      "duration": 0.6447,
      "velocity": 76,
      "chip": "ym2612"
    },
    {
      "channel": 4,
      "note": 81,
      "start": 9.4349,
      "duration": 0.0439,
      "velocity": 105,
      "chip": "ym2612"
    },
    {
      "channel": 2,
      "note": 97,
      "start": 9.4404,
      "duration": 0.645,
      "velocity": 76,
      "chip": "ym2612"
    },
    {
      "channel": 4,
      "note": 85,
      "start": 9.479,
      "duration": 0.1999,
      "velocity": 105,
      "chip": "ym2612"
    },
    {
      "channel": 0,
      "note": 52,
      "start": 9.6786,
      "duration": 0.4001,
      "velocity": 111,
      "chip": "ym2612"
    },
    {
      "channel": 4,
      "note": 88,
      "start": 9.6793,
      "duration": 0.1995,
      "velocity": 105,
      "chip": "ym2612"
    },
    {
      "channel": 4,
      "note": 92,
      "start": 9.879,
      "duration": 0.2005,
      "velocity": 105,
      "chip": "ym2612"
    },
    {
      "channel": 0,
      "note": 57,
      "start": 10.0788,
      "duration": 0.0179,
      "velocity": 111,
      "chip": "ym2612"
    },
    {
      "channel": 1,
      "note": 97,
      "start": 10.0791,
      "duration": 0.0177,
      "velocity": 76,
      "chip": "ym2612"
    },
    {
      "channel": 3,
      "note": 99,
      "start": 10.0795,
      "duration": 0.0351,
      "velocity": 76,
      "chip": "ym2612"
    },
    {
      "channel": 4,
      "note": 93,
      "start": 10.0798,
      "duration": 0.0087,
      "velocity": 105,
      "chip": "ym2612"
    },
    {
      "channel": 2,
      "note": 97,
      "start": 10.0856,
      "duration": 0.0173,
      "velocity": 76,
      "chip": "ym2612"
    },
    {
      "channel": 4,
      "note": 97,
      "start": 10.0887,
      "duration": 0.0085,
      "velocity": 105,
      "chip": "ym2612"
    },
    {
      "channel": 0,
      "note": 59,
      "start": 10.0968,
      "duration": 0.0171,
      "velocity": 111,
      "chip": "ym2612"
    },
    {
      "channel": 1,
      "note": 95,
      "start": 10.097,
      "duration": 0.0173,
      "velocity": 76,
      "chip": "ym2612"
    },
    {
      "channel": 4,
      "note": 95,
      "start": 10.0975,
      "duration": 0.0084,
      "velocity": 105,
      "chip": "ym2612"
    },
    {
      "channel": 2,
      "note": 95,
      "start": 10.1029,
      "duration": 0.0175,
      "velocity": 76,
      "chip": "ym2612"
    },
    {
      "channel": 4,
      "note": 99,
      "start": 10.1061,
      "duration": 0.0088,
      "velocity": 105,
      "chip": "ym2612"
    },
    {
      "channel": 0,
      "note": 61,
      "start": 10.1142,
      "duration": 0.0176,
      "velocity": 111,
      "chip": "ym2612"
    },
    {
      "channel": 1,
      "note": 93,
      "start": 10.1144,
      "duration": 0.0177,
      "velocity": 76,
      "chip": "ym2612"
    },
    {
      "channel": 3,
      "note": 100,
      "start": 10.1148,
      "duration": 0.2627,
      "velocity": 76,
      "chip": "ym2612"
    },
    {
      "channel": 4,
      "note": 97,
      "start": 10.1151,
      "duration": 0.0083,
      "velocity": 105,
      "chip": "ym2612"
    },
    {
      "channel": 2,
      "note": 93,
      "start": 10.1207,
      "duration": 0.0176,
      "velocity": 76,
      "chip": "ym2612"
    },
    {
      "channel": 4,
      "note": 100,
      "start": 10.1236,
      "duration": 0.009,
      "velocity": 105,
      "chip": "ym2612"
    },
    {
      "channel": 0,
      "note": 57,
      "start": 10.132,
      "duration": 0.2449,
      "velocity": 111,
      "chip": "ym2612"
    },
    {
      "channel": 1,
      "note": 92,
      "start": 10.1323,
      "duration": 0.2448,
      "velocity": 76,
      "chip": "ym2612"
    },
    {
      "channel": 4,
      "note": 93,
      "start": 10.1328,
      "duration": 0.0441,
      "velocity": 105,
      "chip": "ym2612"
    },
    {
      "channel": 2,
      "note": 92,
      "start": 10.1384,
      "duration": 0.245,
      "velocity": 76,
      "chip": "ym2612"
    },
    {
      "channel": 4,
      "note": 97,
      "start": 10.1772,
      "duration": 0.2007,
      "velocity": 105,
      "chip": "ym2612"
    },
    {
      "channel": 0,
      "note": 44,
      "start": 10.377,
      "duration": 0.2446,
      "velocity": 111,
      "chip": "ym2612"
    },
    {
      "channel": 1,
      "note": 95,
      "start": 10.3773,
      "duration": 0.2445,
      "velocity": 76,
      "chip": "ym2612"
    },
    {
      "channel": 3,
      "note": 99,
      "start": 10.3778,
      "duration": 0.6447,
      "velocity": 76,
      "chip": "ym2612"
    },
    {
      "channel": 4,
      "note": 80,
      "start": 10.378,
      "duration": 0.0439,
      "velocity": 105,
      "chip": "ym2612"
    },
    {
      "channel": 2,
      "note": 95,
      "start": 10.3836,
      "duration": 0.3714,
      "velocity": 76,
      "chip": "ym2612"
    },
    {
      "channel": 4,
      "note": 83,
      "start": 10.4222,
      "duration": 0.2001,
      "velocity": 105,
      "chip": "ym2612"
    },
    {
      "channel": 0,
      "note": 51,
      "start": 10.6217,
      "duration": 0.4001,
      "velocity": 111,
      "chip": "ym2612"
    },
    {
      "channel": 1,
      "note": 92,
      "start": 10.622,
      "duration": 0.4,
      "velocity": 76,
      "chip": "ym2612"
    },
    {
      "channel": 4,
      "note": 87,
      "start": 10.6226,
      "duration": 0.1994,
      "velocity": 105,
      "chip": "ym2612"
    },
    {
      "channel": 2,
      "note": 92,
      "start": 10.7553,
      "duration": 0.2733,
      "velocity": 76,
      "chip": "ym2612"
    },
    {
      "channel": 4,
      "note": 90,
      "start": 10.8222,
      "duration": 0.2005,
      "velocity": 105,
      "chip": "ym2612"
    },
    {
      "channel": 0,
      "note": 56,
      "start": 11.0219,
      "duration": 0.0179,
      "velocity": 111,
      "chip": "ym2612"
    },
    {
      "channel": 1,
      "note": 92,
      "start": 11.0223,
      "duration": 0.2982,
      "velocity": 76,
      "chip": "ym2612"
    },
    {
      "channel": 3,
      "note": 100,
      "start": 11.0226,
      "duration": 0.0353,
      "velocity": 76,
      "chip": "ym2612"
    },
    {
      "channel": 4,
      "note": 92,
      "start": 11.0229,
      "duration": 0.0087,
      "velocity": 105,
      "chip": "ym2612"
    },
    {
      "channel": 2,
      "note": 92,
      "start": 11.0287,
      "duration": 0.298,
      "velocity": 76,
      "chip": "ym2612"
    },
    {
      "channel": 4,
      "note": 83,
      "start": 11.0318,
      "duration": 0.0084,
      "velocity": 105,
      "chip": "ym2612"
    },
    {
      "channel": 0,
      "note": 59,
      "start": 11.0399,
      "duration": 0.0174,
      "velocity": 111,
      "chip": "ym2612"
    },
    {
      "channel": 4,
      "note": 95,
      "start": 11.0406,
      "duration": 0.0086,
      "velocity": 105,
      "chip": "ym2612"
    },
    {
      "channel": 4,
      "note": 99,
      "start": 11.0494,
      "duration": 0.0088,
      "velocity": 105,
      "chip": "ym2612"
    },
    {
      "channel": 0,
      "note": 63,
      "start": 11.0576,
      "duration": 0.0176,
      "velocity": 111,
      "chip": "ym2612"
    },
    {
      "channel": 3,
      "note": 102,
      "start": 11.0581,
      "duration": 0.2628,
      "velocity": 76,
      "chip": "ym2612"
    },
    {
      "channel": 4,
      "note": 99,
      "start": 11.0584,
      "duration": 0.0079,
      "velocity": 105,
      "chip": "ym2612"
    },
    {
      "channel": 4,
      "note": 102,
      "start": 11.0664,
      "duration": 0.0093,
      "velocity": 105,
      "chip": "ym2612"
    },
    {
      "channel": 0,
      "note": 56,
      "start": 11.0754,
      "duration": 0.2448,
      "velocity": 111,
      "chip": "ym2612"
    },
    {
      "channel": 4,
      "note": 92,
      "start": 11.0759,
      "duration": 0.0444,
      "velocity": 105,
      "chip": "ym2612"
    },
    {
      "channel": 4,
      "note": 95,
      "start": 11.1205,
      "duration": 0.2006,
      "velocity": 105,
      "chip": "ym2612"
    },
    {
      "channel": 0,
      "note": 42,
      "start": 11.3203,
      "duration": 0.2445,
      "velocity": 111,
      "chip": "ym2612"
    },
    {
      "channel": 1,
      "note": 93,
      "start": 11.3207,
      "duration": 0.6447,
      "velocity": 76,
      "chip": "ym2612"
    },
    {
      "channel": 3,
      "note": 102,
      "start": 11.3211,
      "duration": 0.6447,
      "velocity": 76,
      "chip": "ym2612"
    },
    {
      "channel": 4,
      "note": 78,
      "start": 11.3214,
      "duration": 0.0439,
      "velocity": 105,
      "chip": "ym2612"
    },
    {
      "channel": 2,
      "note": 93,
      "start": 11.3269,
      "duration": 0.6449,
      "velocity": 76,
      "chip": "ym2612"
    },
    {
      "channel": 4,
      "note": 81,
      "start": 11.3655,
      "duration": 0.1999,
      "velocity": 105,
      "chip": "ym2612"
    },
    {
      "channel": 0,
      "note": 49,
      "start": 11.5651,
      "duration": 0.4001,
      "velocity": 111,
      "chip": "ym2612"
    },
    {
      "channel": 4,
      "note": 85,
      "start": 11.5658,
      "duration": 0.1995,
      "velocity": 105,
      "chip": "ym2612"
    },
    {
      "channel": 4,
      "note": 88,
      "start": 11.7655,
      "duration": 0.2006,
      "velocity": 105,
      "chip": "ym2612"
    },
    {
      "channel": 0,
      "note": 54,
      "start": 11.9653,
      "duration": 0.018,
      "velocity": 111,
      "chip": "ym2612"
    },
    {
      "channel": 1,
      "note": 93,
      "start": 11.9656,
      "duration": 0.0178,
      "velocity": 76,
      "chip": "ym2612"
    },
    {
      "channel": 3,
      "note": 102,
      "start": 11.966,
      "duration": 0.0178,
      "velocity": 76,
      "chip": "ym2612"
    },
    {
      "channel": 4,
      "note": 90,
      "start": 11.9663,
      "duration": 0.0088,
      "velocity": 105,
      "chip": "ym2612"
    },
    {
      "channel": 2,
      "note": 93,
      "start": 11.972,
      "duration": 0.0178,
      "velocity": 76,
      "chip": "ym2612"
    },
    {
      "channel": 4,
      "note": 93,
      "start": 11.9752,
      "duration": 0.0088,
      "velocity": 105,
      "chip": "ym2612"
    },
    {
      "channel": 0,
      "note": 56,
      "start": 11.9834,
      "duration": 0.0177,
      "velocity": 111,
      "chip": "ym2612"
    },
    {
      "channel": 1,
      "note": 92,
      "start": 11.9836,
      "duration": 0.0178,
      "velocity": 76,
      "chip": "ym2612"
    },
    {
      "channel": 3,
      "note": 100,
      "start": 11.9839,
      "duration": 0.0178,
      "velocity": 76,
      "chip": "ym2612"
    },
    {
      "channel": 4,
      "note": 92,
      "start": 11.9843,
      "duration": 0.0087,
      "velocity": 105,
      "chip": "ym2612"
    },
    {
      "channel": 2,
      "note": 92,
      "start": 11.99,
      "duration": 0.0176,
      "velocity": 76,
      "chip": "ym2612"
    },
    {
      "channel": 4,
      "note": 95,
      "start": 11.9932,
      "duration": 0.0088,
      "velocity": 105,
      "chip": "ym2612"
    },
    {
      "channel": 0,
      "note": 57,
      "start": 12.0013,
      "duration": 0.0175,
      "velocity": 111,
      "chip": "ym2612"
    },
    {
      "channel": 1,
      "note": 90,
      "start": 12.0016,
      "duration": 0.0176,
      "velocity": 76,
      "chip": "ym2612"
    },
    {
      "channel": 3,
      "note": 99,
      "start": 12.002,
      "duration": 0.0177,
      "velocity": 76,
      "chip": "ym2612"
    },
    {
      "channel": 4,
      "note": 93,
      "start": 12.0023,
      "duration": 0.0082,
      "velocity": 105,
      "chip": "ym2612"
    },
    {
      "channel": 2,
      "note": 90,
      "start": 12.0078,
      "duration": 0.0176,
      "velocity": 76,
      "chip": "ym2612"
    },
    {
      "channel": 4,
      "note": 97,
      "start": 12.0107,
      "duration": 0.0091,
      "velocity": 105,
      "chip": "ym2612"
    },
    {
      "channel": 0,
      "note": 61,
      "start": 12.019,
      "duration": 0.2448,
      "velocity": 111,
      "chip": "ym2612"
    },
    {
      "channel": 1,
      "note": 93,
      "start": 12.0193,
      "duration": 0.2448,
      "velocity": 76,
      "chip": "ym2612"
    },
    {
      "channel": 3,
      "note": 97,
      "start": 12.0198,
      "duration": 0.2447,
      "velocity": 76,
      "chip": "ym2612"
    },
    {
      "channel": 4,
      "note": 97,
      "start": 12.0201,
      "duration": 0.0438,
      "velocity": 105,
      "chip": "ym2612"
    },
    {
      "channel": 2,
      "note": 93,
      "start": 12.0256,
      "duration": 0.2446,
      "velocity": 76,
      "chip": "ym2612"
    },
    {
      "channel": 4,
      "note": 100,
      "start": 12.0642,
      "duration": 0.2006,
      "velocity": 105,
      "chip": "ym2612"
    },
    {
      "channel": 0,
      "note": 49,
      "start": 12.264,
      "duration": 0.2444,
      "velocity": 111,
      "chip": "ym2612"
    },
    {
      "channel": 1,
      "note": 92,
      "start": 12.2643,
      "duration": 0.2443,
      "velocity": 76,
      "chip": "ym2612"
    },
    {
      "channel": 3,
      "note": 97,
      "start": 12.2647,
      "duration": 0.6445,
      "velocity": 76,
      "chip": "ym2612"
    },
    {
      "channel": 4,
      "note": 85,
      "start": 12.265,
      "duration": 0.0437,
      "velocity": 105,
      "chip": "ym2612"
    },
    {
      "channel": 2,
      "note": 92,
      "start": 12.2704,
      "duration": 0.3714,
      "velocity": 76,
      "chip": "ym2612"
    },
    {
      "channel": 4,
      "note": 88,
      "start": 12.309,
      "duration": 0.2001,
      "velocity": 105,
      "chip": "ym2612"
    },
    {
      "channel": 0,
      "note": 56,
      "start": 12.5085,
      "duration": 0.4001,
      "velocity": 111,
      "chip": "ym2612"
    },
    {
      "channel": 1,
      "note": 88,
      "start": 12.5088,
      "duration": 0.4,
      "velocity": 76,
      "chip": "ym2612"
    },
    {
      "channel": 4,
      "note": 92,
      "start": 12.5093,
      "duration": 0.1994,
      "velocity": 105,
      "chip": "ym2612"
    },
    {
      "channel": 2,
      "note": 88,
      "start": 12.642,
      "duration": 0.2733,
      "velocity": 76,
      "chip": "ym2612"
    },
    {
      "channel": 4,
      "note": 95,
      "start": 12.709,
      "duration": 0.2005,
      "velocity": 105,
      "chip": "ym2612"
    },
    {
      "channel": 0,
      "note": 61,
      "start": 12.9087,
      "duration": 0.0179,
      "velocity": 111,
      "chip": "ym2612"
    },
    {
      "channel": 1,
      "note": 85,
      "start": 12.9091,
      "duration": 0.2983,
      "velocity": 76,
      "chip": "ym2612"
    },
    {
      "channel": 3,
      "note": 104,
      "start": 12.9094,
      "duration": 0.0353,
      "velocity": 76,
      "chip": "ym2612"
    },
    {
      "channel": 4,
      "note": 97,
      "start": 12.9097,
      "duration": 0.0087,
      "velocity": 105,
      "chip": "ym2612"
    },
    {
      "channel": 2,
      "note": 85,
      "start": 12.9155,
      "duration": 0.2982,
      "velocity": 76,
      "chip": "ym2612"
    },
    {
      "channel": 4,
      "note": 100,
      "start": 12.9186,
      "duration": 0.0084,
      "velocity": 105,
      "chip": "ym2612"
    },
    {
      "channel": 0,
      "note": 63,
      "start": 12.9267,
      "duration": 0.0174,
      "velocity": 111,
      "chip": "ym2612"
    },
    {
      "channel": 4,
      "note": 99,
      "start": 12.9273,
      "duration": 0.0086,
      "velocity": 105,
      "chip": "ym2612"
    },
    {
      "channel": 4,
      "note": 102,
      "start": 12.9362,
      "duration": 0.0088,
      "velocity": 105,
      "chip": "ym2612"
    },
    {
      "channel": 0,
      "note": 64,
      "start": 12.9444,
      "duration": 0.0176,
      "velocity": 111,
      "chip": "ym2612"
    },
    {
      "channel": 3,
      "note": 100,
      "start": 12.9449,
      "duration": 0.2629,
      "velocity": 76,
      "chip": "ym2612"
    },
    {
      "channel": 4,
      "note": 100,
      "start": 12.9452,
      "duration": 0.0079,
      "velocity": 105,
      "chip": "ym2612"
    },
    {
      "channel": 4,
      "note": 104,
      "start": 12.9532,
      "duration": 0.0093,
      "velocity": 105,
      "chip": "ym2612"
    },
    {
      "channel": 0,
      "note": 61,
      "start": 12.9622,
      "duration": 0.2449,
      "velocity": 111,
      "chip": "ym2612"
    },
    {
      "channel": 4,
      "note": 97,
      "start": 12.9627,
      "duration": 0.0445,
      "velocity": 105,
      "chip": "ym2612"
    },
    {
      "channel": 4,
      "note": 100,
      "start": 13.0075,
      "duration": 0.2006,
      "velocity": 105,
      "chip": "ym2612"
    },
    {
      "channel": 0,
      "note": 47,
      "start": 13.2073,
      "duration": 0.2446,
      "velocity": 111,
      "chip": "ym2612"
    },
    {
      "channel": 1,
      "note": 87,
      "start": 13.2076,
      "duration": 0.2444,
      "velocity": 76,
      "chip": "ym2612"
    },
    {
      "channel": 3,
      "note": 95,
      "start": 13.208,
      "duration": 0.2445,
      "velocity": 76,
      "chip": "ym2612"
    },
    {
      "channel": 4,
      "note": 83,
      "start": 13.2083,
      "duration": 0.2444,
      "velocity": 105,
      "chip": "ym2612"
    },
    {
      "channel": 2,
      "note": 87,
      "start": 13.2139,
      "duration": 0.3714,
      "velocity": 76,
      "chip": "ym2612"
    },
    {
      "channel": 0,
      "note": 49,
      "start": 13.452,
      "duration": 0.4001,
      "velocity": 111,
      "chip": "ym2612"
    },
    {
      "channel": 1,
      "note": 88,
      "start": 13.4523,
      "duration": 0.4,
      "velocity": 76,
      "chip": "ym2612"
    },
    {
      "channel": 3,
      "note": 97,
      "start": 13.4527,
      "duration": 0.4001,
      "velocity": 76,
      "chip": "ym2612"
    },
    {
      "channel": 4,
      "note": 85,
      "start": 13.4531,
      "duration": 0.3999,
      "velocity": 105,
      "chip": "ym2612"
    },
    {
      "channel": 2,
      "note": 88,
      "start": 13.5855,
      "duration": 0.2732,
      "velocity": 76,
      "chip": "ym2612"
    },
    {
      "channel": 0,
      "note": 51,
      "start": 13.8522,
      "duration": 0.0176,
      "velocity": 111,
      "chip": "ym2612"
    },
    {
      "channel": 1,
      "note": 90,
      "start": 13.8525,
      "duration": 0.0175,
      "velocity": 76,
      "chip": "ym2612"
    },
    {
      "channel": 3,
      "note": 99,
      "start": 13.8529,
      "duration": 0.0174,
      "velocity": 76,
      "chip": "ym2612"
    },
    {
      "channel": 4,
      "note": 87,
      "start": 13.8533,
      "duration": 0.0173,
      "velocity": 105,
      "chip": "ym2612"
    },
    {
      "channel": 2,
      "note": 90,
      "start": 13.859,
      "duration": 0.0173,
      "velocity": 76,
      "chip": "ym2612"
    },
    {
      "channel": 0,
      "note": 54,
      "start": 13.87,
      "duration": 0.0175,
      "velocity": 111,
      "chip": "ym2612"
    },
    {
      "channel": 1,
      "note": 92,
      "start": 13.8702,
      "duration": 0.0175,
      "velocity": 76,
      "chip": "ym2612"
    },
    {
      "channel": 3,
      "note": 99,
      "start": 13.8705,
      "duration": 0.0174,
      "velocity": 76,
      "chip": "ym2612"
    },
    {
      "channel": 4,
      "note": 90,
      "start": 13.8708,
      "duration": 0.0172,
      "velocity": 105,
      "chip": "ym2612"
    },
    {
      "channel": 2,
      "note": 92,
      "start": 13.8766,
      "duration": 0.0158,
      "velocity": 76,
      "chip": "ym2612"
    },
    {
      "channel": 1,
      "note": 87,
      "start": 13.8994,
      "duration": 0.0438,
      "velocity": 76,
      "chip": "ym2612"
    },
    {
      "channel": 2,
      "note": 87,
      "start": 13.9042,
      "duration": 0.1725,
      "velocity": 76,
      "chip": "ym2612"
    },
    {
      "channel": 1,
      "note": 83,
      "start": 13.9434,
      "duration": 0.2003,
      "velocity": 76,
      "chip": "ym2612"
    },
    {
      "channel": 2,
      "note": 83,
      "start": 14.0769,
      "duration": 0.0729,
      "velocity": 76,
      "chip": "ym2612"
    },
    {
      "channel": 0,
      "note": 46,
      "start": 14.1436,
      "duration": 0.2444,
      "velocity": 111,
      "chip": "ym2612"
    },
    {
      "channel": 1,
      "note": 85,
      "start": 14.1439,
      "duration": 0.9439,
      "velocity": 76,
      "chip": "ym2612"
    },
    {
      "channel": 3,
      "note": 94,
      "start": 14.1443,
      "duration": 0.9437,
      "velocity": 76,
      "chip": "ym2612"
    },
    {
      "channel": 4,
      "note": 82,
      "start": 14.1446,
      "duration": 0.0437,
      "velocity": 105,
      "chip": "ym2612"
    },
    {
      "channel": 2,
      "note": 85,
      "start": 14.15,
      "duration": 0.9442,
      "velocity": 76,
      "chip": "ym2612"
    },
    {
      "channel": 4,
      "note": 85,
      "start": 14.1886,
      "duration": 0.1999,
      "velocity": 105,
      "chip": "ym2612"
    },
    {
      "channel": 0,
      "note": 49,
      "start": 14.3881,
      "duration": 0.4001,
      "velocity": 111,
      "chip": "ym2612"
    },
    {
      "channel": 4,
      "note": 85,
      "start": 14.3888,
      "duration": 0.1995,
      "velocity": 105,
      "chip": "ym2612"
    },
    {
      "channel": 4,
      "note": 88,
      "start": 14.5886,
      "duration": 0.2002,
      "velocity": 105,
      "chip": "ym2612"
    },
    {
      "channel": 0,
      "note": 54,
      "start": 14.7885,
      "duration": 0.0174,
      "velocity": 111,
      "chip": "ym2612"
    },
    {
      "channel": 4,
      "note": 90,
      "start": 14.7891,
      "duration": 0.0082,
      "velocity": 105,
      "chip": "ym2612"
    },
    {
      "channel": 4,
      "note": 94,
      "start": 14.7975,
      "duration": 0.0089,
      "velocity": 105,
      "chip": "ym2612"
    },
    {
      "channel": 0,
      "note": 56,
      "start": 14.806,
      "duration": 0.0178,
      "velocity": 111,
      "chip": "ym2612"
    },
    {
      "channel": 4,
      "note": 92,
      "start": 14.8066,
      "duration": 0.0085,
      "velocity": 105,
      "chip": "ym2612"
    },
    {
      "channel": 4,
      "note": 95,
      "start": 14.8153,
      "duration": 0.0092,
      "velocity": 105,
      "chip": "ym2612"
    },
    {
      "channel": 0,
      "note": 58,
      "start": 14.8241,
      "duration": 0.0183,
      "velocity": 111,
      "chip": "ym2612"
    },
    {
      "channel": 4,
      "note": 94,
      "start": 14.8248,
      "duration": 0.0085,
      "velocity": 105,
      "chip": "ym2612"
    },
    {
      "channel": 4,
      "note": 97,
      "start": 14.8336,
      "duration": 0.0093,
      "velocity": 105,
      "chip": "ym2612"
    },
    {
      "channel": 0,
      "note": 54,
      "start": 14.8425,
      "duration": 0.245,
      "velocity": 111,
      "chip": "ym2612"
    },
    {
      "channel": 4,
      "note": 90,
      "start": 14.843,
      "duration": 0.0446,
      "velocity": 105,
      "chip": "ym2612"
    },
    {
      "channel": 4,
      "note": 94,
      "start": 14.8878,
      "duration": 0.2004,
      "velocity": 105,
      "chip": "ym2612"
    },
    {
      "channel": 0,
      "note": 45,
      "start": 15.0876,
      "duration": 0.2446,
      "velocity": 111,
      "chip": "ym2612"
    },
    {
      "channel": 1,
      "note": 85,
      "start": 15.0879,
      "duration": 25.7116,
      "velocity": 76,
      "chip": "ym2612"
    },
    {
      "channel": 4,
      "note": 81,
      "start": 15.0884,
      "duration": 0.0441,
      "velocity": 105,
      "chip": "ym2612"
    },
    {
      "channel": 2,
      "note": 85,
      "start": 15.0942,
      "duration": 25.7052,
      "velocity": 76,
      "chip": "ym2612"
    },
    {
      "channel": 4,
      "note": 85,
      "start": 15.1328,
      "duration": 0.1999,
      "velocity": 105,
      "chip": "ym2612"
    },
    {
      "channel": 0,
      "note": 49,
      "start": 15.3324,
      "duration": 0.4001,
      "velocity": 111,
      "chip": "ym2612"
    },
    {
      "channel": 4,
      "note": 85,
      "start": 15.3331,
      "duration": 0.1995,
      "velocity": 105,
      "chip": "ym2612"
    },
    {
      "channel": 4,
      "note": 88,
      "start": 15.5328,
      "duration": 0.2002,
      "velocity": 105,
      "chip": "ym2612"
    },
    {
      "channel": 0,
      "note": 54,
      "start": 15.7327,
      "duration": 0.0169,
      "velocity": 111,
      "chip": "ym2612"
    },
    {
      "channel": 4,
      "note": 90,
      "start": 15.7333,
      "duration": 0.0086,
      "velocity": 105,
      "chip": "ym2612"
    },
    {
      "channel": 4,
      "note": 93,
      "start": 15.7422,
      "duration": 0.0078,
      "velocity": 105,
      "chip": "ym2612"
    },
    {
      "channel": 0,
      "note": 56,
      "start": 15.7497,
      "duration": 0.0171,
      "velocity": 111,
      "chip": "ym2612"
    },
    {
      "channel": 4,
      "note": 92,
      "start": 15.7503,
      "duration": 0.008,
      "velocity": 105,
      "chip": "ym2612"
    },
    {
      "channel": 4,
      "note": 95,
      "start": 15.7584,
      "duration": 0.009,
      "velocity": 105,
      "chip": "ym2612"
    },
    {
      "channel": 0,
      "note": 57,
      "start": 15.767,
      "duration": 0.0185,
      "velocity": 111,
      "chip": "ym2612"
    },
    {
      "channel": 4,
      "note": 93,
      "start": 15.7677,
      "duration": 0.0087,
      "velocity": 105,
      "chip": "ym2612"
    },
    {
      "channel": 4,
      "note": 97,
      "start": 15.7767,
      "duration": 0.0093,
      "velocity": 105,
      "chip": "ym2612"
    },
    {
      "channel": 0,
      "note": 54,
      "start": 15.7856,
      "duration": 0.2451,
      "velocity": 111,
      "chip": "ym2612"
    },
    {
      "channel": 4,
      "note": 90,
      "start": 15.7861,
      "duration": 0.0445,
      "velocity": 105,
      "chip": "ym2612"
    },
    {
      "channel": 4,
      "note": 93,
      "start": 15.8309,
      "duration": 24.9686,
      "velocity": 105,
      "chip": "ym2612"
    },
    {
      "channel": 0,
      "note": 49,
      "start": 16.0309,
      "duration": 24.7685,
      "velocity": 111,
      "chip": "ym2612"
    }
  ]
}