{
  "track_name": "15 - Illusion",
  "duration_sec": 81.626,
  "sample_rate": 44100,
  "note_count": 1914,
  "unique_pitches": 27,
  "pitch_range": 34,
  "avg_note_duration": 0.2239,
  "reconstruction_stats": {
    "notes_reconstructed": 1914,
    "keyon_events": 1914,
    "keyoff_events": 1213,
    "orphan_keyons": 1,
    "unique_pitches": 27,
    "pitch_range": 34,
    "avg_duration_sec": 0.2239
  },
  "metadata": {
    "source": "S\\Space Harrier II\\15 - Illusion.vgz"
  },
  "notes": [
    {
      "channel": 0,
      "note": 83,
      "start": 0.001,
      "duration": 1.605,
      "velocity": 105,
      "chip": "ym2612"
    },
    {
      "channel": 1,
      "note": 64,
      "start": 0.0049,
      "duration": 0.4015,
      "velocity": 73,
      "chip": "ym2612"
    },
    {
      "channel": 2,
      "note": 93,
      "start": 0.0061,
      "duration": 0.0001,
      "velocity": 119,
      "chip": "ym2612"
    },
    {
      "channel": 2,
      "note": 93,
      "start": 0.0071,
      "duration": 0.0494,
      "velocity": 119,
      "chip": "ym2612"
    },
    {
      "channel": 3,
      "note": 80,
      "start": 0.0112,
      "duration": 1.5989,
      "velocity": 105,
      "chip": "ym2612"
    },
    {
      "channel": 4,
      "note": 76,
      "start": 0.0146,
      "duration": 1.5961,
      "velocity": 105,
      "chip": "ym2612"
    },
    {
      "channel": 2,
      "note": 93,
      "start": 0.0565,
      "duration": 0.0667,
      "velocity": 119,
      "chip": "ym2612"
    },
    {
      "channel": 5,
      "note": 83,
      "start": 0.1105,
      "duration": 1.5967,
      "velocity": 105,
      "chip": "ym2612"
    },
    {
      "channel": 2,
      "note": 93,
      "start": 0.2075,
      "duration": 0.049,
      "velocity": 119,
      "chip": "ym2612"
    },
    {
      "channel": 1,
      "note": 64,
      "start": 0.4068,
      "duration": 0.1996,
      "velocity": 73,
      "chip": "ym2612"
    },
    {
      "channel": 2,
      "note": 93,
      "start": 0.408,
      "duration": 0.0001,
      "velocity": 122,
      "chip": "ym2612"
    },
    {
      "channel": 2,
      "note": 93,
      "start": 0.4082,
      "duration": 0.0009,
      "velocity": 122,
      "chip": "ym2612"
    },
    {
      "channel": 2,
      "note": 93,
      "start": 0.4091,
      "duration": 0.1141,
      "velocity": 122,
      "chip": "ym2612"
    },
    {
      "channel": 2,
      "note": 93,
      "start": 0.5232,
      "duration": 0.0001,
      "velocity": 122,
      "chip": "ym2612"
    },
    {
      "channel": 1,
      "note": 64,
      "start": 0.6068,
      "duration": 0.3996,
      "velocity": 73,
      "chip": "ym2612"
    },
    {
      "channel": 2,
      "note": 93,
      "start": 0.608,
      "duration": 0.0485,
      "velocity": 119,
      "chip": "ym2612"
    },
    {
      "channel": 2,
      "note": 93,
      "start": 0.8075,
      "duration": 0.0001,
      "velocity": 119,
      "chip": "ym2612"
    },
    {
      "channel": 2,
      "note": 93,
      "start": 0.8077,
      "duration": 0.0009,
      "velocity": 119,
      "chip": "ym2612"
    },
    {
      "channel": 2,
      "note": 93,
      "start": 0.8085,
      "duration": 0.048,
      "velocity": 119,
      "chip": "ym2612"
    },
    {
      "channel": 2,
      "note": 93,
      "start": 0.8565,
      "duration": 0.0501,
      "velocity": 119,
      "chip": "ym2612"
    },
    {
      "channel": 2,
      "note": 93,
      "start": 0.9066,
      "duration": 0.001,
      "velocity": 119,
      "chip": "ym2612"
    },
    {
      "channel": 2,
      "note": 93,
      "start": 0.9075,
      "duration": 0.0159,
      "velocity": 119,
      "chip": "ym2612"
    },
    {
      "channel": 2,
      "note": 93,
      "start": 0.9234,
      "duration": 0.0331,
      "velocity": 119,
      "chip": "ym2612"
    },
    {
      "channel": 1,
      "note": 64,
      "start": 1.0068,
      "duration": 0.1996,
      "velocity": 73,
      "chip": "ym2612"
    },
    {
      "channel": 2,
      "note": 93,
      "start": 1.008,
      "duration": 0.0001,
      "velocity": 119,
      "chip": "ym2612"
    },
    {
      "channel": 2,
      "note": 93,
      "start": 1.0081,
      "duration": 0.0009,
      "velocity": 119,
      "chip": "ym2612"
    },
    {
      "channel": 2,
      "note": 93,
      "start": 1.009,
      "duration": 0.0475,
      "velocity": 119,
      "chip": "ym2612"
    },
    {
      "channel": 2,
      "note": 93,
      "start": 1.0565,
      "duration": 0.0667,
      "velocity": 119,
      "chip": "ym2612"
    },
    {
      "channel": 1,
      "note": 64,
      "start": 1.2068,
      "duration": 0.3999,
      "velocity": 73,
      "chip": "ym2612"
    },
    {
      "channel": 2,
      "note": 93,
      "start": 1.208,
      "duration": 0.0001,
      "velocity": 122,
      "chip": "ym2612"
    },
    {
      "channel": 2,
      "note": 93,
      "start": 1.2081,
      "duration": 0.0009,
      "velocity": 122,
      "chip": "ym2612"
    },
    {
      "channel": 2,
      "note": 93,
      "start": 1.209,
      "duration": 0.1142,
      "velocity": 122,
      "chip": "ym2612"
    },
    {
      "channel": 2,
      "note": 93,
      "start": 1.3232,
      "duration": 0.0001,
      "velocity": 122,
      "chip": "ym2612"
    },
    {
      "channel": 2,
      "note": 93,
      "start": 1.4076,
      "duration": 0.049,
      "velocity": 119,
      "chip": "ym2612"
    },
    {
      "channel": 0,
      "note": 87,
      "start": 1.6066,
      "duration": 1.5994,
      "velocity": 105,
      "chip": "ym2612"
    },
    {
      "channel": 1,
      "note": 64,
      "start": 1.6071,
      "duration": 0.3993,
      "velocity": 73,
      "chip": "ym2612"
    },
    {
      "channel": 2,
      "note": 93,
      "start": 1.6084,
      "duration": 0.0001,
      "velocity": 119,
      "chip": "ym2612"
    },
    {
      "channel": 2,
      "note": 93,
      "start": 1.6085,
      "duration": 0.0009,
      "velocity": 119,
      "chip": "ym2612"
    },
    {
      "channel": 2,
      "note": 93,
      "start": 1.6094,
      "duration": 0.0471,
      "velocity": 119,
      "chip": "ym2612"
    },
    {
      "channel": 3,
      "note": 83,
      "start": 1.6106,
      "duration": 1.5996,
      "velocity": 105,
      "chip": "ym2612"
    },
    {
      "channel": 4,
      "note": 76,
      "start": 1.6112,
      "duration": 1.5997,
      "velocity": 105,
      "chip": "ym2612"
    },
    {
      "channel": 2,
      "note": 93,
      "start": 1.6565,
      "duration": 0.0667,
      "velocity": 119,
      "chip": "ym2612"
    },
    {
      "channel": 5,
      "note": 87,
      "start": 1.7076,
      "duration": 1.5995,
      "velocity": 105,
      "chip": "ym2612"
    },
    {
      "channel": 2,
      "note": 93,
      "start": 1.8075,
      "duration": 0.049,
      "velocity": 119,
      "chip": "ym2612"
    },
    {
      "channel": 1,
      "note": 64,
      "start": 2.0068,
      "duration": 0.1996,
      "velocity": 73,
      "chip": "ym2612"
    },
    {
      "channel": 2,
      "note": 93,
      "start": 2.008,
      "duration": 0.0001,
      "velocity": 122,
      "chip": "ym2612"
    },
    {
      "channel": 2,
      "note": 93,
      "start": 2.0081,
      "duration": 0.0009,
      "velocity": 122,
      "chip": "ym2612"
    },
    {
      "channel": 2,
      "note": 93,
      "start": 2.009,
      "duration": 0.1142,
      "velocity": 122,
      "chip": "ym2612"
    },
    {
      "channel": 2,
      "note": 93,
      "start": 2.1232,
      "duration": 0.0001,
      "velocity": 122,
      "chip": "ym2612"
    },
    {
      "channel": 1,
      "note": 64,
      "start": 2.2068,
      "duration": 0.3996,
      "velocity": 73,
      "chip": "ym2612"
    },
    {
      "channel": 2,
      "note": 93,
      "start": 2.208,
      "duration": 0.0485,
      "velocity": 119,
      "chip": "ym2612"
    },
    {
      "channel": 2,
      "note": 93,
      "start": 2.4075,
      "duration": 0.0001,
      "velocity": 119,
      "chip": "ym2612"
    },
    {
      "channel": 2,
      "note": 93,
      "start": 2.4077,
      "duration": 0.0009,
      "velocity": 119,
      "chip": "ym2612"
    },
    {
      "channel": 2,
      "note": 93,
      "start": 2.4085,
      "duration": 0.048,
      "velocity": 119,
      "chip": "ym2612"
    },
    {
      "channel": 2,
      "note": 93,
      "start": 2.4565,
      "duration": 0.0501,
      "velocity": 119,
      "chip": "ym2612"
    },
    {
      "channel": 2,
      "note": 93,
      "start": 2.5066,
      "duration": 0.001,
      "velocity": 119,
      "chip": "ym2612"
    },
    {
      "channel": 2,
      "note": 93,
      "start": 2.5075,
      "duration": 0.0159,
      "velocity": 119,
      "chip": "ym2612"
    },
    {
      "channel": 2,
      "note": 93,
      "start": 2.5234,
      "duration": 0.0331,
      "velocity": 119,
      "chip": "ym2612"
    },
    {
      "channel": 1,
      "note": 64,
      "start": 2.6068,
      "duration": 0.1996,
      "velocity": 73,
      "chip": "ym2612"
    },
    {
      "channel": 2,
      "note": 93,
      "start": 2.608,
      "duration": 0.0001,
      "velocity": 119,
      "chip": "ym2612"
    },
    {
      "channel": 2,
      "note": 93,
      "start": 2.6081,
      "duration": 0.0009,
      "velocity": 119,
      "chip": "ym2612"
    },
    {
      "channel": 2,
      "note": 93,
      "start": 2.609,
      "duration": 0.0475,
      "velocity": 119,
      "chip": "ym2612"
    },
    {
      "channel": 2,
      "note": 93,
      "start": 2.6565,
      "duration": 0.0667,
      "velocity": 119,
      "chip": "ym2612"
    },
    {
      "channel": 1,
      "note": 64,
      "start": 2.8068,
      "duration": 0.3999,
      "velocity": 73,
      "chip": "ym2612"
    },
    {
      "channel": 2,
      "note": 93,
      "start": 2.808,
      "duration": 0.0001,
      "velocity": 122,
      "chip": "ym2612"
    },
    {
      "channel": 2,
      "note": 93,
      "start": 2.8081,
      "duration": 0.0009,
      "velocity": 122,
      "chip": "ym2612"
    },
    {
      "channel": 2,
      "note": 93,
      "start": 2.809,
      "duration": 0.1142,
      "velocity": 122,
      "chip": "ym2612"
    },
    {
      "channel": 2,
      "note": 93,
      "start": 2.9232,
      "duration": 0.0001,
      "velocity": 122,
      "chip": "ym2612"
    },
    {
      "channel": 2,
      "note": 93,
      "start": 3.0076,
      "duration": 0.049,
      "velocity": 119,
      "chip": "ym2612"
    },
    {
      "channel": 0,
      "note": 85,
      "start": 3.2066,
      "duration": 1.7994,
      "velocity": 105,
      "chip": "ym2612"
    },
    {
      "channel": 1,
      "note": 64,
      "start": 3.2072,
      "duration": 0.3992,
      "velocity": 73,
      "chip": "ym2612"
    },
    {
      "channel": 2,
      "note": 93,
      "start": 3.2085,
      "duration": 0.0001,
      "velocity": 119,
      "chip": "ym2612"
    },
    {
      "channel": 2,
      "note": 93,
      "start": 3.2086,
      "duration": 0.0009,
      "velocity": 119,
      "chip": "ym2612"
    },
    {
      "channel": 2,
      "note": 93,
      "start": 3.2095,
      "duration": 0.047,
      "velocity": 119,
      "chip": "ym2612"
    },
    {
      "channel": 3,
      "note": 81,
      "start": 3.2107,
      "duration": 1.7981,
      "velocity": 105,
      "chip": "ym2612"
    },
    {
      "channel": 4,
      "note": 76,
      "start": 3.2113,
      "duration": 1.7981,
      "velocity": 105,
      "chip": "ym2612"
    },
    {
      "channel": 2,
      "note": 93,
      "start": 3.2565,
      "duration": 0.0667,
      "velocity": 119,
      "chip": "ym2612"
    },
    {
      "channel": 5,
      "note": 85,
      "start": 3.3076,
      "duration": 1.7993,
      "velocity": 105,
      "chip": "ym2612"
    },
    {
      "channel": 2,
      "note": 93,
      "start": 3.4075,
      "duration": 0.049,
      "velocity": 119,
      "chip": "ym2612"
    },
    {
      "channel": 1,
      "note": 64,
      "start": 3.6068,
      "duration": 0.1996,
      "velocity": 73,
      "chip": "ym2612"
    },
    {
      "channel": 2,
      "note": 93,
      "start": 3.608,
      "duration": 0.0001,
      "velocity": 122,
      "chip": "ym2612"
    },
    {
      "channel": 2,
      "note": 93,
      "start": 3.6081,
      "duration": 0.0009,
      "velocity": 122,
      "chip": "ym2612"
    },
    {
      "channel": 2,
      "note": 93,
      "start": 3.609,
      "duration": 0.1142,
      "velocity": 122,
      "chip": "ym2612"
    },
    {
      "channel": 2,
      "note": 93,
      "start": 3.7232,
      "duration": 0.0001,
      "velocity": 122,
      "chip": "ym2612"
    },
    {
      "channel": 1,
      "note": 64,
      "start": 3.8068,
      "duration": 0.3996,
      "velocity": 73,
      "chip": "ym2612"
    },
    {
      "channel": 2,
      "note": 93,
      "start": 3.808,
      "duration": 0.0485,
      "velocity": 119,
      "chip": "ym2612"
    },
    {
      "channel": 2,
      "note": 93,
      "start": 4.0075,
      "duration": 0.0001,
      "velocity": 119,
      "chip": "ym2612"
    },
    {
      "channel": 2,
      "note": 93,
      "start": 4.0077,
      "duration": 0.0009,
      "velocity": 119,
      "chip": "ym2612"
    },
    {
      "channel": 2,
      "note": 93,
      "start": 4.0085,
      "duration": 0.048,
      "velocity": 119,
      "chip": "ym2612"
    },
    {
      "channel": 2,
      "note": 93,
      "start": 4.0565,
      "duration": 0.0501,
      "velocity": 119,
      "chip": "ym2612"
    },
    {
      "channel": 2,
      "note": 93,
      "start": 4.1066,
      "duration": 0.001,
      "velocity": 119,
      "chip": "ym2612"
    },
    {
      "channel": 2,
      "note": 93,
      "start": 4.1075,
      "duration": 0.0159,
      "velocity": 119,
      "chip": "ym2612"
    },
    {
      "channel": 2,
      "note": 93,
      "start": 4.1234,
      "duration": 0.0331,
      "velocity": 119,
      "chip": "ym2612"
    },
    {
      "channel": 1,
      "note": 64,
      "start": 4.2068,
      "duration": 0.1996,
      "velocity": 73,
      "chip": "ym2612"
    },
    {
      "channel": 2,
      "note": 93,
      "start": 4.208,
      "duration": 0.0001,
      "velocity": 119,
      "chip": "ym2612"
    },
    {
      "channel": 2,
      "note": 93,
      "start": 4.2081,
      "duration": 0.0009,
      "velocity": 119,
      "chip": "ym2612"
    },
    {
      "channel": 2,
      "note": 93,
      "start": 4.209,
      "duration": 0.0475,
      "velocity": 119,
      "chip": "ym2612"
    },
    {
      "channel": 2,
      "note": 93,
      "start": 4.2565,
      "duration": 0.0667,
      "velocity": 119,
      "chip": "ym2612"
    },
    {
      "channel": 1,
      "note": 64,
      "start": 4.4068,
      "duration": 0.5999,
      "velocity": 73,
      "chip": "ym2612"
    },
    {
      "channel": 2,
      "note": 93,
      "start": 4.408,
      "duration": 0.0001,
      "velocity": 122,
      "chip": "ym2612"
    },
    {
      "channel": 2,
      "note": 93,
      "start": 4.4081,
      "duration": 0.0009,
      "velocity": 122,
      "chip": "ym2612"
    },
    {
      "channel": 2,
      "note": 93,
      "start": 4.409,
      "duration": 0.1142,
      "velocity": 122,
      "chip": "ym2612"
    },
    {
      "channel": 2,
      "note": 93,
      "start": 4.5232,
      "duration": 0.0001,
      "velocity": 122,
      "chip": "ym2612"
    },
    {
      "channel": 2,
      "note": 93,
      "start": 4.6076,
      "duration": 0.049,
      "velocity": 119,
      "chip": "ym2612"
    },
    {
      "channel": 2,
      "note": 93,
      "start": 4.8077,
      "duration": 0.0001,
      "velocity": 119,
      "chip": "ym2612"
    },
    {
      "channel": 2,
      "note": 93,
      "start": 4.8078,
      "duration": 0.0009,
      "velocity": 119,
      "chip": "ym2612"
    },
    {
      "channel": 2,
      "note": 93,
      "start": 4.8087,
      "duration": 0.0479,
      "velocity": 119,
      "chip": "ym2612"
    },
    {
      "channel": 2,
      "note": 93,
      "start": 4.8566,
      "duration": 0.0667,
      "velocity": 119,
      "chip": "ym2612"
    },
    {
      "channel": 0,
      "note": 85,
      "start": 5.0066,
      "duration": 0.1994,
      "velocity": 105,
      "chip": "ym2612"
    },
    {
      "channel": 1,
      "note": 64,
      "start": 5.0071,
      "duration": 0.1995,
      "velocity": 73,
      "chip": "ym2612"
    },
    {
      "channel": 2,
      "note": 93,
      "start": 5.0083,
      "duration": 0.0482,
      "velocity": 119,
      "chip": "ym2612"
    },
    {
      "channel": 3,
      "note": 81,
      "start": 5.0093,
      "duration": 0.2007,
      "velocity": 105,
      "chip": "ym2612"
    },
    {
      "channel": 4,
      "note": 76,
      "start": 5.0098,
      "duration": 0.2007,
      "velocity": 105,
      "chip": "ym2612"
    },
    {
      "channel": 5,
      "note": 85,
      "start": 5.1073,
      "duration": 0.2,
      "velocity": 105,
      "chip": "ym2612"
    },
    {
      "channel": 0,
      "note": 85,
      "start": 5.2065,
      "duration": 0.3995,
      "velocity": 105,
      "chip": "ym2612"
    },
    {
      "channel": 1,
      "note": 64,
      "start": 5.2071,
      "duration": 0.3995,
      "velocity": 73,
      "chip": "ym2612"
    },
    {
      "channel": 2,
      "note": 93,
      "start": 5.2082,
      "duration": 0.0001,
      "velocity": 122,
      "chip": "ym2612"
    },
    {
      "channel": 2,
      "note": 93,
      "start": 5.2084,
      "duration": 0.0009,
      "velocity": 122,
      "chip": "ym2612"
    },
    {
      "channel": 2,
      "note": 93,
      "start": 5.2093,
      "duration": 0.1139,
      "velocity": 122,
      "chip": "ym2612"
    },
    {
      "channel": 3,
      "note": 81,
      "start": 5.2104,
      "duration": 0.3996,
      "velocity": 105,
      "chip": "ym2612"
    },
    {
      "channel": 4,
      "note": 76,
      "start": 5.2109,
      "duration": 0.3996,
      "velocity": 105,
      "chip": "ym2612"
    },
    {
      "channel": 5,
      "note": 85,
      "start": 5.3077,
      "duration": 0.4008,
      "velocity": 105,
      "chip": "ym2612"
    },
    {
      "channel": 2,
      "note": 93,
      "start": 5.3232,
      "duration": 0.0001,
      "velocity": 122,
      "chip": "ym2612"
    },
    {
      "channel": 2,
      "note": 93,
      "start": 5.4075,
      "duration": 0.049,
      "velocity": 119,
      "chip": "ym2612"
    },
    {
      "channel": 0,
      "note": 85,
      "start": 5.6065,
      "duration": 0.3995,
      "velocity": 105,
      "chip": "ym2612"
    },
    {
      "channel": 1,
      "note": 64,
      "start": 5.6071,
      "duration": 0.3995,
      "velocity": 73,
      "chip": "ym2612"
    },
    {
      "channel": 2,
      "note": 93,
      "start": 5.6082,
      "duration": 0.0001,
      "velocity": 119,
      "chip": "ym2612"
    },
    {
      "channel": 2,
      "note": 93,
      "start": 5.6084,
      "duration": 0.0009,
      "velocity": 119,
      "chip": "ym2612"
    },
    {
      "channel": 2,
      "note": 93,
      "start": 5.6093,
      "duration": 0.0473,
      "velocity": 119,
      "chip": "ym2612"
    },
    {
      "channel": 3,
      "note": 81,
      "start": 5.6104,
      "duration": 0.3996,
      "velocity": 105,
      "chip": "ym2612"
    },
    {
      "channel": 4,
      "note": 76,
      "start": 5.6109,
      "duration": 0.3996,
      "velocity": 105,
      "chip": "ym2612"
    },
    {
      "channel": 2,
      "note": 93,
      "start": 5.6565,
      "duration": 0.0501,
      "velocity": 119,
      "chip": "ym2612"
    },
    {
      "channel": 2,
      "note": 93,
      "start": 5.7066,
      "duration": 0.001,
      "velocity": 119,
      "chip": "ym2612"
    },
    {
      "channel": 2,
      "note": 93,
      "start": 5.7075,
      "duration": 0.0159,
      "velocity": 119,
      "chip": "ym2612"
    },
    {
      "channel": 5,
      "note": 85,
      "start": 5.709,
      "duration": 0.3983,
      "velocity": 105,
      "chip": "ym2612"
    },
    {
      "channel": 2,
      "note": 93,
      "start": 5.7234,
      "duration": 0.0331,
      "velocity": 119,
      "chip": "ym2612"
    },
    {
      "channel": 2,
      "note": 93,
      "start": 5.8075,
      "duration": 0.0001,
      "velocity": 119,
      "chip": "ym2612"
    },
    {
      "channel": 2,
      "note": 93,
      "start": 5.8077,
      "duration": 0.0009,
      "velocity": 119,
      "chip": "ym2612"
    },
    {
      "channel": 2,
      "note": 93,
      "start": 5.8085,
      "duration": 0.048,
      "velocity": 119,
      "chip": "ym2612"
    },
    {
      "channel": 2,
      "note": 93,
      "start": 5.8565,
      "duration": 0.0667,
      "velocity": 119,
      "chip": "ym2612"
    },
    {
      "channel": 0,
      "note": 85,
      "start": 6.0065,
      "duration": 0.3995,
      "velocity": 105,
      "chip": "ym2612"
    },
    {
      "channel": 1,
      "note": 64,
      "start": 6.0071,
      "duration": 0.3996,
      "velocity": 73,
      "chip": "ym2612"
    },
    {
      "channel": 2,
      "note": 93,
      "start": 6.0082,
      "duration": 0.0001,
      "velocity": 122,
      "chip": "ym2612"
    },
    {
      "channel": 2,
      "note": 93,
      "start": 6.0084,
      "duration": 0.0009,
      "velocity": 122,
      "chip": "ym2612"
    },
    {
      "channel": 2,
      "note": 93,
      "start": 6.0093,
      "duration": 0.1139,
      "velocity": 122,
      "chip": "ym2612"
    },
    {
      "channel": 3,
      "note": 81,
      "start": 6.0104,
      "duration": 0.3999,
      "velocity": 105,
      "chip": "ym2612"
    },
    {
      "channel": 4,
      "note": 76,
      "start": 6.0109,
      "duration": 0.4,
      "velocity": 105,
      "chip": "ym2612"
    },
    {
      "channel": 5,
      "note": 85,
      "start": 6.1077,
      "duration": 0.3994,
      "velocity": 105,
      "chip": "ym2612"
    },
    {
      "channel": 2,
      "note": 93,
      "start": 6.1232,
      "duration": 0.0001,
      "velocity": 122,
      "chip": "ym2612"
    },
    {
      "channel": 2,
      "note": 93,
      "start": 6.2075,
      "duration": 0.049,
      "velocity": 119,
      "chip": "ym2612"
    },
    {
      "channel": 0,
      "note": 83,
      "start": 6.4066,
      "duration": 1.5994,
      "velocity": 105,
      "chip": "ym2612"
    },
    {
      "channel": 1,
      "note": 64,
      "start": 6.4073,
      "duration": 0.3991,
      "velocity": 73,
      "chip": "ym2612"
    },
    {
      "channel": 2,
      "note": 93,
      "start": 6.4085,
      "duration": 0.0001,
      "velocity": 119,
      "chip": "ym2612"
    },
    {
      "channel": 2,
      "note": 93,
      "start": 6.4087,
      "duration": 0.0009,
      "velocity": 119,
      "chip": "ym2612"
    },
    {
      "channel": 2,
      "note": 93,
      "start": 6.4096,
      "duration": 0.0469,
      "velocity": 119,
      "chip": "ym2612"
    },
    {
      "channel": 3,
      "note": 80,
      "start": 6.4108,
      "duration": 1.5994,
      "velocity": 105,
      "chip": "ym2612"
    },
    {
      "channel": 4,
      "note": 76,
      "start": 6.4114,
      "duration": 1.5994,
      "velocity": 105,
      "chip": "ym2612"
    },
    {
      "channel": 2,
      "note": 93,
      "start": 6.4565,
      "duration": 0.0667,
      "velocity": 119,
      "chip": "ym2612"
    },
    {
      "channel": 5,
      "note": 83,
      "start": 6.5076,
      "duration": 1.5995,
      "velocity": 105,
      "chip": "ym2612"
    },
    {
      "channel": 2,
      "note": 93,
      "start": 6.6075,
      "duration": 0.049,
      "velocity": 119,
      "chip": "ym2612"
    },
    {
      "channel": 1,
      "note": 64,
      "start": 6.8068,
      "duration": 0.1996,
      "velocity": 73,
      "chip": "ym2612"
    },
    {
      "channel": 2,
      "note": 93,
      "start": 6.808,
      "duration": 0.0001,
      "velocity": 122,
      "chip": "ym2612"
    },
    {
      "channel": 2,
      "note": 93,
      "start": 6.8082,
      "duration": 0.0009,
      "velocity": 122,
      "chip": "ym2612"
    },
    {
      "channel": 2,
      "note": 93,
      "start": 6.8091,
      "duration": 0.1141,
      "velocity": 122,
      "chip": "ym2612"
    },
    {
      "channel": 2,
      "note": 93,
      "start": 6.9232,
      "duration": 0.0001,
      "velocity": 122,
      "chip": "ym2612"
    },
    {
      "channel": 1,
      "note": 64,
      "start": 7.0068,
      "duration": 0.3996,
      "velocity": 73,
      "chip": "ym2612"
    },
    {
      "channel": 2,
      "note": 93,
      "start": 7.008,
      "duration": 0.0485,
      "velocity": 119,
      "chip": "ym2612"
    },
    {
      "channel": 2,
      "note": 93,
      "start": 7.2075,
      "duration": 0.0001,
      "velocity": 119,
      "chip": "ym2612"
    },
    {
      "channel": 2,
      "note": 93,
      "start": 7.2077,
      "duration": 0.0009,
      "velocity": 119,
      "chip": "ym2612"
    },
    {
      "channel": 2,
      "note": 93,
      "start": 7.2085,
      "duration": 0.048,
      "velocity": 119,
      "chip": "ym2612"
    },
    {
      "channel": 2,
      "note": 93,
      "start": 7.2565,
      "duration": 0.0501,
      "velocity": 119,
      "chip": "ym2612"
    },
    {
      "channel": 2,
      "note": 93,
      "start": 7.3066,
      "duration": 0.001,
      "velocity": 119,
      "chip": "ym2612"
    },
    {
      "channel": 2,
      "note": 93,
      "start": 7.3075,
      "duration": 0.0159,
      "velocity": 119,
      "chip": "ym2612"
    },
    {
      "channel": 2,
      "note": 93,
      "start": 7.3234,
      "duration": 0.0331,
      "velocity": 119,
      "chip": "ym2612"
    },
    {
      "channel": 1,
      "note": 64,
      "start": 7.4068,
      "duration": 0.1996,
      "velocity": 73,
      "chip": "ym2612"
    },
    {
      "channel": 2,
      "note": 93,
      "start": 7.408,
      "duration": 0.0001,
      "velocity": 119,
      "chip": "ym2612"
    },
    {
      "channel": 2,
      "note": 93,
      "start": 7.4081,
      "duration": 0.0009,
      "velocity": 119,
      "chip": "ym2612"
    },
    {
      "channel": 2,
      "note": 93,
      "start": 7.409,
      "duration": 0.0475,
      "velocity": 119,
      "chip": "ym2612"
    },
    {
      "channel": 2,
      "note": 93,
      "start": 7.4565,
      "duration": 0.0667,
      "velocity": 119,
      "chip": "ym2612"
    },
    {
      "channel": 1,
      "note": 64,
      "start": 7.6068,
      "duration": 0.3999,
      "velocity": 73,
      "chip": "ym2612"
    },
    {
      "channel": 2,
      "note": 93,
      "start": 7.608,
      "duration": 0.0001,
      "velocity": 122,
      "chip": "ym2612"
    },
    {
      "channel": 2,
      "note": 93,
      "start": 7.6081,
      "duration": 0.0009,
      "velocity": 122,
      "chip": "ym2612"
    },
    {
      "channel": 2,
      "note": 93,
      "start": 7.609,
      "duration": 0.1142,
      "velocity": 122,
      "chip": "ym2612"
    },
    {
      "channel": 2,
      "note": 93,
      "start": 7.7232,
      "duration": 0.0001,
      "velocity": 122,
      "chip": "ym2612"
    },
    {
      "channel": 2,
      "note": 93,
      "start": 7.8076,
      "duration": 0.049,
      "velocity": 119,
      "chip": "ym2612"
    },
    {
      "channel": 0,
      "note": 87,
      "start": 8.0066,
      "duration": 1.5994,
      "velocity": 105,
      "chip": "ym2612"
    },
    {
      "channel": 1,
      "note": 64,
      "start": 8.0071,
      "duration": 0.3993,
      "velocity": 73,
      "chip": "ym2612"
    },
    {
      "channel": 2,
      "note": 93,
      "start": 8.0084,
      "duration": 0.0001,
      "velocity": 119,
      "chip": "ym2612"
    },
    {
      "channel": 2,
      "note": 93,
      "start": 8.0085,
      "duration": 0.0009,
      "velocity": 119,
      "chip": "ym2612"
    },
    {
      "channel": 2,
      "note": 93,
      "start": 8.0094,
      "duration": 0.0471,
      "velocity": 119,
      "chip": "ym2612"
    },
    {
      "channel": 3,
      "note": 83,
      "start": 8.0106,
      "duration": 1.5997,
      "velocity": 105,
      "chip": "ym2612"
    },
    {
      "channel": 4,
      "note": 76,
      "start": 8.0111,
      "duration": 1.5998,
      "velocity": 105,
      "chip": "ym2612"
    },
    {
      "channel": 2,
      "note": 93,
      "start": 8.0565,
      "duration": 0.0667,
      "velocity": 119,
      "chip": "ym2612"
    },
    {
      "channel": 5,
      "note": 87,
      "start": 8.1076,
      "duration": 1.5995,
      "velocity": 105,
      "chip": "ym2612"
    },
    {
      "channel": 2,
      "note": 93,
      "start": 8.2075,
      "duration": 0.049,
      "velocity": 119,
      "chip": "ym2612"
    },
    {
      "channel": 1,
      "note": 64,
      "start": 8.4068,
      "duration": 0.1996,
      "velocity": 73,
      "chip": "ym2612"
    },
    {
      "channel": 2,
      "note": 93,
      "start": 8.408,
      "duration": 0.0001,
      "velocity": 122,
      "chip": "ym2612"
    },
    {
      "channel": 2,
      "note": 93,
      "start": 8.4081,
      "duration": 0.0009,
      "velocity": 122,
      "chip": "ym2612"
    },
    {
      "channel": 2,
      "note": 93,
      "start": 8.409,
      "duration": 0.1142,
      "velocity": 122,
      "chip": "ym2612"
    },
    {
      "channel": 2,
      "note": 93,
      "start": 8.5232,
      "duration": 0.0001,
      "velocity": 122,
      "chip": "ym2612"
    },
    {
      "channel": 1,
      "note": 64,
      "start": 8.6068,
      "duration": 0.3996,
      "velocity": 73,
      "chip": "ym2612"
    },
    {
      "channel": 2,
      "note": 93,
      "start": 8.608,
      "duration": 0.0485,
      "velocity": 119,
      "chip": "ym2612"
    },
    {
      "channel": 2,
      "note": 93,
      "start": 8.8075,
      "duration": 0.0001,
      "velocity": 119,
      "chip": "ym2612"
    },
    {
      "channel": 2,
      "note": 93,
      "start": 8.8077,
      "duration": 0.0009,
      "velocity": 119,
      "chip": "ym2612"
    },
    {
      "channel": 2,
      "note": 93,
      "start": 8.8085,
      "duration": 0.048,
      "velocity": 119,
      "chip": "ym2612"
    },
    {
      "channel": 2,
      "note": 93,
      "start": 8.8565,
      "duration": 0.0501,
      "velocity": 119,
      "chip": "ym2612"
    },
    {
      "channel": 2,
      "note": 93,
      "start": 8.9066,
      "duration": 0.001,
      "velocity": 119,
      "chip": "ym2612"
    },
    {
      "channel": 2,
      "note": 93,
      "start": 8.9075,
      "duration": 0.0159,
      "velocity": 119,
      "chip": "ym2612"
    },
    {
      "channel": 2,
      "note": 93,
      "start": 8.9234,
      "duration": 0.0331,
      "velocity": 119,
      "chip": "ym2612"
    },
    {
      "channel": 1,
      "note": 64,
      "start": 9.0068,
      "duration": 0.1996,
      "velocity": 73,
      "chip": "ym2612"
    },
    {
      "channel": 2,
      "note": 93,
      "start": 9.008,
      "duration": 0.0001,
      "velocity": 119,
      "chip": "ym2612"
    },
    {
      "channel": 2,
      "note": 93,
      "start": 9.0081,
      "duration": 0.0009,
      "velocity": 119,
      "chip": "ym2612"
    },
    {
      "channel": 2,
      "note": 93,
      "start": 9.009,
      "duration": 0.0475,
      "velocity": 119,
      "chip": "ym2612"
    },
    {
      "channel": 2,
      "note": 93,
      "start": 9.0565,
      "duration": 0.0667,
      "velocity": 119,
      "chip": "ym2612"
    },
    {
      "channel": 1,
      "note": 64,
      "start": 9.2068,
      "duration": 0.3999,
      "velocity": 73,
      "chip": "ym2612"
    },
    {
      "channel": 2,
      "note": 93,
      "start": 9.208,
      "duration": 0.0001,
      "velocity": 122,
      "chip": "ym2612"
    },
    {
      "channel": 2,
      "note": 93,
      "start": 9.2081,
      "duration": 0.0009,
      "velocity": 122,
      "chip": "ym2612"
    },
    {
      "channel": 2,
      "note": 93,
      "start": 9.209,
      "duration": 0.1142,
      "velocity": 122,
      "chip": "ym2612"
    },
    {
      "channel": 2,
      "note": 93,
      "start": 9.3232,
      "duration": 0.0001,
      "velocity": 122,
      "chip": "ym2612"
    },
    {
      "channel": 2,
      "note": 93,
      "start": 9.4076,
      "duration": 0.049,
      "velocity": 119,
      "chip": "ym2612"
    },
    {
      "channel": 0,
      "note": 85,
      "start": 9.6066,
      "duration": 1.7994,
      "velocity": 105,
      "chip": "ym2612"
    },
    {
      "channel": 1,
      "note": 66,
      "start": 9.6073,
      "duration": 0.3991,
      "velocity": 73,
      "chip": "ym2612"
    },
    {
      "channel": 2,
      "note": 93,
      "start": 9.6085,
      "duration": 0.0001,
      "velocity": 119,
      "chip": "ym2612"
    },
    {
      "channel": 2,
      "note": 93,
      "start": 9.6086,
      "duration": 0.001,
      "velocity": 119,
      "chip": "ym2612"
    },
    {
      "channel": 2,
      "note": 93,
      "start": 9.6096,
      "duration": 0.0469,
      "velocity": 119,
      "chip": "ym2612"
    },
    {
      "channel": 3,
      "note": 82,
      "start": 9.6107,
      "duration": 1.7981,
      "velocity": 105,
      "chip": "ym2612"
    },
    {
      "channel": 4,
      "note": 78,
      "start": 9.6114,
      "duration": 1.7981,
      "velocity": 105,
      "chip": "ym2612"
    },
    {
      "channel": 2,
      "note": 93,
      "start": 9.6565,
      "duration": 0.0667,
      "velocity": 119,
      "chip": "ym2612"
    },
    {
      "channel": 5,
      "note": 85,
      "start": 9.7076,
      "duration": 1.7993,
      "velocity": 105,
      "chip": "ym2612"
    },
    {
      "channel": 2,
      "note": 93,
      "start": 9.8075,
      "duration": 0.049,
      "velocity": 119,
      "chip": "ym2612"
    },
    {
      "channel": 1,
      "note": 66,
      "start": 10.0068,
      "duration": 0.1996,
      "velocity": 73,
      "chip": "ym2612"
    },
    {
      "channel": 2,
      "note": 93,
      "start": 10.008,
      "duration": 0.0001,
      "velocity": 122,
      "chip": "ym2612"
    },
    {
      "channel": 2,
      "note": 93,
      "start": 10.0082,
      "duration": 0.0009,
      "velocity": 122,
      "chip": "ym2612"
    },
    {
      "channel": 2,
      "note": 93,
      "start": 10.0091,
      "duration": 0.1141,
      "velocity": 122,
      "chip": "ym2612"
    },
    {
      "channel": 2,
      "note": 93,
      "start": 10.1232,
      "duration": 0.0001,
      "velocity": 122,
      "chip": "ym2612"
    },
    {
      "channel": 1,
      "note": 66,
      "start": 10.2068,
      "duration": 0.3996,
      "velocity": 73,
      "chip": "ym2612"
    },
    {
      "channel": 2,
      "note": 93,
      "start": 10.208,
      "duration": 0.0485,
      "velocity": 119,
      "chip": "ym2612"
    },
    {
      "channel": 2,
      "note": 93,
      "start": 10.4075,
      "duration": 0.0001,
      "velocity": 119,
      "chip": "ym2612"
    },
    {
      "channel": 2,
      "note": 93,
      "start": 10.4077,
      "duration": 0.0009,
      "velocity": 119,
      "chip": "ym2612"
    },
    {
      "channel": 2,
      "note": 93,
      "start": 10.4085,
      "duration": 0.048,
      "velocity": 119,
      "chip": "ym2612"
    },
    {
      "channel": 2,
      "note": 93,
      "start": 10.4565,
      "duration": 0.0501,
      "velocity": 119,
      "chip": "ym2612"
    },
    {
      "channel": 2,
      "note": 93,
      "start": 10.5066,
      "duration": 0.001,
      "velocity": 119,
      "chip": "ym2612"
    },
    {
      "channel": 2,
      "note": 93,
      "start": 10.5075,
      "duration": 0.0159,
      "velocity": 119,
      "chip": "ym2612"
    },
    {
      "channel": 2,
      "note": 93,
      "start": 10.5234,
      "duration": 0.0331,
      "velocity": 119,
      "chip": "ym2612"
    },
    {
      "channel": 1,
      "note": 66,
      "start": 10.6068,
      "duration": 0.1996,
      "velocity": 73,
      "chip": "ym2612"
    },
    {
      "channel": 2,
      "note": 93,
      "start": 10.608,
      "duration": 0.0001,
      "velocity": 119,
      "chip": "ym2612"
    },
    {
      "channel": 2,
      "note": 93,
      "start": 10.6081,
      "duration": 0.0009,
      "velocity": 119,
      "chip": "ym2612"
    },
    {
      "channel": 2,
      "note": 93,
      "start": 10.609,
      "duration": 0.0475,
      "velocity": 119,
      "chip": "ym2612"
    },
    {
      "channel": 2,
      "note": 93,
      "start": 10.6565,
      "duration": 0.0667,
      "velocity": 119,
      "chip": "ym2612"
    },
    {
      "channel": 1,
      "note": 66,
      "start": 10.8068,
      "duration": 0.5999,
      "velocity": 73,
      "chip": "ym2612"
    },
    {
      "channel": 2,
      "note": 93,
      "start": 10.808,
      "duration": 0.0001,
      "velocity": 122,
      "chip": "ym2612"
    },
    {
      "channel": 2,
      "note": 93,
      "start": 10.8081,
      "duration": 0.0009,
      "velocity": 122,
      "chip": "ym2612"
    },
    {
      "channel": 2,
      "note": 93,
      "start": 10.809,
      "duration": 0.1142,
      "velocity": 122,
      "chip": "ym2612"
    },
    {
      "channel": 2,
      "note": 93,
      "start": 10.9232,
      "duration": 0.0001,
      "velocity": 122,
      "chip": "ym2612"
    },
    {
      "channel": 2,
      "note": 93,
      "start": 11.0076,
      "duration": 0.049,
      "velocity": 119,
      "chip": "ym2612"
    },
    {
      "channel": 2,
      "note": 93,
      "start": 11.2077,
      "duration": 0.0001,
      "velocity": 119,
      "chip": "ym2612"
    },
    {
      "channel": 2,
      "note": 93,
      "start": 11.2078,
      "duration": 0.0009,
      "velocity": 119,
      "chip": "ym2612"
    },
    {
      "channel": 2,
      "note": 93,
      "start": 11.2087,
      "duration": 0.0479,
      "velocity": 119,
      "chip": "ym2612"
    },
    {
      "channel": 2,
      "note": 93,
      "start": 11.2566,
      "duration": 0.0667,
      "velocity": 119,
      "chip": "ym2612"
    },
    {
      "channel": 0,
      "note": 85,
      "start": 11.4066,
      "duration": 0.1994,
      "velocity": 105,
      "chip": "ym2612"
    },
    {
      "channel": 1,
      "note": 66,
      "start": 11.4071,
      "duration": 0.1995,
      "velocity": 73,
      "chip": "ym2612"
    },
    {
      "channel": 2,
      "note": 93,
      "start": 11.4083,
      "duration": 0.0482,
      "velocity": 119,
      "chip": "ym2612"
    },
    {
      "channel": 3,
      "note": 82,
      "start": 11.4093,
      "duration": 0.2007,
      "velocity": 105,
      "chip": "ym2612"
    },
    {
      "channel": 4,
      "note": 78,
      "start": 11.4098,
      "duration": 0.2007,
      "velocity": 105,
      "chip": "ym2612"
    },
    {
      "channel": 5,
      "note": 85,
      "start": 11.5073,
      "duration": 0.2,
      "velocity": 105,
      "chip": "ym2612"
    },
    {
      "channel": 0,
      "note": 85,
      "start": 11.6065,
      "duration": 0.3995,
      "velocity": 105,
      "chip": "ym2612"
    },
    {
      "channel": 1,
      "note": 66,
      "start": 11.6071,
      "duration": 0.3996,
      "velocity": 73,
      "chip": "ym2612"
    },
    {
      "channel": 2,
      "note": 93,
      "start": 11.6082,
      "duration": 0.0001,
      "velocity": 122,
      "chip": "ym2612"
    },
    {
      "channel": 2,
      "note": 93,
      "start": 11.6084,
      "duration": 0.0009,
      "velocity": 122,
      "chip": "ym2612"
    },
    {
      "channel": 2,
      "note": 93,
      "start": 11.6093,
      "duration": 0.1139,
      "velocity": 122,
      "chip": "ym2612"
    },
    {
      "channel": 3,
      "note": 82,
      "start": 11.6104,
      "duration": 0.3997,
      "velocity": 105,
      "chip": "ym2612"
    },
    {
      "channel": 4,
      "note": 78,
      "start": 11.6109,
      "duration": 0.3998,
      "velocity": 105,
      "chip": "ym2612"
    },
    {
      "channel": 5,
      "note": 85,
      "start": 11.7077,
      "duration": 0.4008,
      "velocity": 105,
      "chip": "ym2612"
    },
    {
      "channel": 2,
      "note": 93,
      "start": 11.7232,
      "duration": 0.0001,
      "velocity": 122,
      "chip": "ym2612"
    },
    {
      "channel": 2,
      "note": 93,
      "start": 11.8075,
      "duration": 0.049,
      "velocity": 119,
      "chip": "ym2612"
    },
    {
      "channel": 0,
      "note": 87,
      "start": 12.0066,
      "duration": 0.3994,
      "velocity": 105,
      "chip": "ym2612"
    },
    {
      "channel": 1,
      "note": 68,
      "start": 12.0071,
      "duration": 0.3996,
      "velocity": 73,
      "chip": "ym2612"
    },
    {
      "channel": 2,
      "note": 93,
      "start": 12.0084,
      "duration": 0.0001,
      "velocity": 119,
      "chip": "ym2612"
    },
    {
      "channel": 2,
      "note": 93,
      "start": 12.0085,
      "duration": 0.0009,
      "velocity": 119,
      "chip": "ym2612"
    },
    {
      "channel": 2,
      "note": 93,
      "start": 12.0094,
      "duration": 0.0471,
      "velocity": 119,
      "chip": "ym2612"
    },
    {
      "channel": 3,
      "note": 83,
      "start": 12.0106,
      "duration": 0.3995,
      "velocity": 105,
      "chip": "ym2612"
    },
    {
      "channel": 4,
      "note": 78,
      "start": 12.0111,
      "duration": 0.3996,
      "velocity": 105,
      "chip": "ym2612"
    },
    {
      "channel": 2,
      "note": 93,
      "start": 12.0565,
      "duration": 0.0501,
      "velocity": 119,
      "chip": "ym2612"
    },
    {
      "channel": 2,
      "note": 93,
      "start": 12.1066,
      "duration": 0.001,
      "velocity": 119,
      "chip": "ym2612"
    },
    {
      "channel": 2,
      "note": 93,
      "start": 12.1075,
      "duration": 0.0159,
      "velocity": 119,
      "chip": "ym2612"
    },
    {
      "channel": 5,
      "note": 87,
      "start": 12.1091,
      "duration": 0.3983,
      "velocity": 105,
      "chip": "ym2612"
    },
    {
      "channel": 2,
      "note": 93,
      "start": 12.1234,
      "duration": 0.0331,
      "velocity": 119,
      "chip": "ym2612"
    },
    {
      "channel": 2,
      "note": 93,
      "start": 12.2075,
      "duration": 0.0001,
      "velocity": 119,
      "chip": "ym2612"
    },
    {
      "channel": 2,
      "note": 93,
      "start": 12.2077,
      "duration": 0.0009,
      "velocity": 119,
      "chip": "ym2612"
    },
    {
      "channel": 2,
      "note": 93,
      "start": 12.2085,
      "duration": 0.048,
      "velocity": 119,
      "chip": "ym2612"
    },
    {
      "channel": 2,
      "note": 93,
      "start": 12.2565,
      "duration": 0.0667,
      "velocity": 119,
      "chip": "ym2612"
    },
    {
      "channel": 0,
      "note": 85,
      "start": 12.4066,
      "duration": 0.3994,
      "velocity": 105,
      "chip": "ym2612"
    },
    {
      "channel": 1,
      "note": 66,
      "start": 12.4071,
      "duration": 0.3996,
      "velocity": 73,
      "chip": "ym2612"
    },
    {
      "channel": 2,
      "note": 93,
      "start": 12.4084,
      "duration": 0.0001,
      "velocity": 122,
      "chip": "ym2612"
    },
    {
      "channel": 2,
      "note": 93,
      "start": 12.4085,
      "duration": 0.0009,
      "velocity": 122,
      "chip": "ym2612"
    },
    {
      "channel": 2,
      "note": 93,
      "start": 12.4094,
      "duration": 0.1138,
      "velocity": 122,
      "chip": "ym2612"
    },
    {
      "channel": 3,
      "note": 82,
      "start": 12.4105,
      "duration": 0.3998,
      "velocity": 105,
      "chip": "ym2612"
    },
    {
      "channel": 4,
      "note": 78,
      "start": 12.4111,
      "duration": 0.3998,
      "velocity": 105,
      "chip": "ym2612"
    },
    {
      "channel": 5,
      "note": 85,
      "start": 12.5078,
      "duration": 0.3993,
      "velocity": 105,
      "chip": "ym2612"
    },
    {
      "channel": 2,
      "note": 93,
      "start": 12.5232,
      "duration": 0.0001,
      "velocity": 122,
      "chip": "ym2612"
    },
    {
      "channel": 2,
      "note": 93,
      "start": 12.6075,
      "duration": 0.049,
      "velocity": 119,
      "chip": "ym2612"
    },
    {
      "channel": 0,
      "note": 83,
      "start": 12.8066,
      "duration": 1.5994,
      "velocity": 105,
      "chip": "ym2612"
    },
    {
      "channel": 1,
      "note": 64,
      "start": 12.8073,
      "duration": 0.3991,
      "velocity": 73,
      "chip": "ym2612"
    },
    {
      "channel": 2,
      "note": 93,
      "start": 12.8085,
      "duration": 0.0001,
      "velocity": 119,
      "chip": "ym2612"
    },
    {
      "channel": 2,
      "note": 93,
      "start": 12.8087,
      "duration": 0.0009,
      "velocity": 119,
      "chip": "ym2612"
    },
    {
      "channel": 2,
      "note": 93,
      "start": 12.8096,
      "duration": 0.0469,
      "velocity": 119,
      "chip": "ym2612"
    },
    {
      "channel": 3,
      "note": 80,
      "start": 12.8108,
      "duration": 1.5994,
      "velocity": 105,
      "chip": "ym2612"
    },
    {
      "channel": 4,
      "note": 76,
      "start": 12.8114,
      "duration": 1.5993,
      "velocity": 105,
      "chip": "ym2612"
    },
    {
      "channel": 2,
      "note": 93,
      "start": 12.8565,
      "duration": 0.0667,
      "velocity": 119,
      "chip": "ym2612"
    },
    {
      "channel": 5,
      "note": 83,
      "start": 12.9076,
      "duration": 1.5995,
      "velocity": 105,
      "chip": "ym2612"
    },
    {
      "channel": 2,
      "note": 93,
      "start": 13.0075,
      "duration": 0.049,
      "velocity": 119,
      "chip": "ym2612"
    },
    {
      "channel": 1,
      "note": 64,
      "start": 13.2068,
      "duration": 0.1996,
      "velocity": 73,
      "chip": "ym2612"
    },
    {
      "channel": 2,
      "note": 93,
      "start": 13.208,
      "duration": 0.0001,
      "velocity": 122,
      "chip": "ym2612"
    },
    {
      "channel": 2,
      "note": 93,
      "start": 13.2082,
      "duration": 0.0009,
      "velocity": 122,
      "chip": "ym2612"
    },
    {
      "channel": 2,
      "note": 93,
      "start": 13.2091,
      "duration": 0.1141,
      "velocity": 122,
      "chip": "ym2612"
    },
    {
      "channel": 2,
      "note": 93,
      "start": 13.3232,
      "duration": 0.0001,
      "velocity": 122,
      "chip": "ym2612"
    },
    {
      "channel": 1,
      "note": 64,
      "start": 13.4068,
      "duration": 0.3996,
      "velocity": 73,
      "chip": "ym2612"
    },
    {
      "channel": 2,
      "note": 93,
      "start": 13.408,
      "duration": 0.0485,
      "velocity": 119,
      "chip": "ym2612"
    },
    {
      "channel": 2,
      "note": 93,
      "start": 13.6075,
      "duration": 0.0001,
      "velocity": 119,
      "chip": "ym2612"
    },
    {
      "channel": 2,
      "note": 93,
      "start": 13.6077,
      "duration": 0.0009,
      "velocity": 119,
      "chip": "ym2612"
    },
    {
      "channel": 2,
      "note": 93,
      "start": 13.6085,
      "duration": 0.048,
      "velocity": 119,
      "chip": "ym2612"
    },
    {
      "channel": 2,
      "note": 93,
      "start": 13.6565,
      "duration": 0.0501,
      "velocity": 119,
      "chip": "ym2612"
    },
    {
      "channel": 2,
      "note": 93,
      "start": 13.7066,
      "duration": 0.001,
      "velocity": 119,
      "chip": "ym2612"
    },
    {
      "channel": 2,
      "note": 93,
      "start": 13.7075,
      "duration": 0.0159,
      "velocity": 119,
      "chip": "ym2612"
    },
    {
      "channel": 2,
      "note": 93,
      "start": 13.7234,
      "duration": 0.0331,
      "velocity": 119,
      "chip": "ym2612"
    },
    {
      "channel": 1,
      "note": 64,
      "start": 13.8068,
      "duration": 0.1996,
      "velocity": 73,
      "chip": "ym2612"
    },
    {
      "channel": 2,
      "note": 93,
      "start": 13.808,
      "duration": 0.0001,
      "velocity": 119,
      "chip": "ym2612"
    },
    {
      "channel": 2,
      "note": 93,
      "start": 13.8081,
      "duration": 0.0009,
      "velocity": 119,
      "chip": "ym2612"
    },
    {
      "channel": 2,
      "note": 93,
      "start": 13.809,
      "duration": 0.0475,
      "velocity": 119,
      "chip": "ym2612"
    },
    {
      "channel": 2,
      "note": 93,
      "start": 13.8565,
      "duration": 0.0667,
      "velocity": 119,
      "chip": "ym2612"
    },
    {
      "channel": 1,
      "note": 64,
      "start": 14.0068,
      "duration": 0.3999,
      "velocity": 73,
      "chip": "ym2612"
    },
    {
      "channel": 2,
      "note": 93,
      "start": 14.008,
      "duration": 0.0001,
      "velocity": 122,
      "chip": "ym2612"
    },
    {
      "channel": 2,
      "note": 93,
      "start": 14.0081,
      "duration": 0.0009,
      "velocity": 122,
      "chip": "ym2612"
    },
    {
      "channel": 2,
      "note": 93,
      "start": 14.009,
      "duration": 0.1142,
      "velocity": 122,
      "chip": "ym2612"
    },
    {
      "channel": 2,
      "note": 93,
      "start": 14.1232,
      "duration": 0.0001,
      "velocity": 122,
      "chip": "ym2612"
    },
    {
      "channel": 2,
      "note": 93,
      "start": 14.2076,
      "duration": 0.049,
      "velocity": 119,
      "chip": "ym2612"
    },
    {
      "channel": 0,
      "note": 87,
      "start": 14.4066,
      "duration": 1.5994,
      "velocity": 105,
      "chip": "ym2612"
    },
    {
      "channel": 1,
      "note": 64,
      "start": 14.4071,
      "duration": 0.3993,
      "velocity": 73,
      "chip": "ym2612"
    },
    {
      "channel": 2,
      "note": 93,
      "start": 14.4084,
      "duration": 0.0001,
      "velocity": 119,
      "chip": "ym2612"
    },
    {
      "channel": 2,
      "note": 93,
      "start": 14.4085,
      "duration": 0.0009,
      "velocity": 119,
      "chip": "ym2612"
    },
    {
      "channel": 2,
      "note": 93,
      "start": 14.4094,
      "duration": 0.0471,
      "velocity": 119,
      "chip": "ym2612"
    },
    {
      "channel": 3,
      "note": 83,
      "start": 14.4106,
      "duration": 1.5996,
      "velocity": 105,
      "chip": "ym2612"
    },
    {
      "channel": 4,
      "note": 76,
      "start": 14.4111,
      "duration": 1.5998,
      "velocity": 105,
      "chip": "ym2612"
    },
    {
      "channel": 2,
      "note": 93,
      "start": 14.4565,
      "duration": 0.0667,
      "velocity": 119,
      "chip": "ym2612"
    },
    {
      "channel": 5,
      "note": 87,
      "start": 14.5076,
      "duration": 1.5995,
      "velocity": 105,
      "chip": "ym2612"
    },
    {
      "channel": 2,
      "note": 93,
      "start": 14.6075,
      "duration": 0.049,
      "velocity": 119,
      "chip": "ym2612"
    },
    {
      "channel": 1,
      "note": 64,
      "start": 14.8068,
      "duration": 0.1996,
      "velocity": 73,
      "chip": "ym2612"
    },
    {
      "channel": 2,
      "note": 93,
      "start": 14.808,
      "duration": 0.0001,
      "velocity": 122,
      "chip": "ym2612"
    },
    {
      "channel": 2,
      "note": 93,
      "start": 14.8081,
      "duration": 0.0009,
      "velocity": 122,
      "chip": "ym2612"
    },
    {
      "channel": 2,
      "note": 93,
      "start": 14.809,
      "duration": 0.1142,
      "velocity": 122,
      "chip": "ym2612"
    },
    {
      "channel": 2,
      "note": 93,
      "start": 14.9232,
      "duration": 0.0001,
      "velocity": 122,
      "chip": "ym2612"
    },
    {
      "channel": 1,
      "note": 64,
      "start": 15.0068,
      "duration": 0.3996,
      "velocity": 73,
      "chip": "ym2612"
    },
    {
      "channel": 2,
      "note": 93,
      "start": 15.008,
      "duration": 0.0485,
      "velocity": 119,
      "chip": "ym2612"
    },
    {
      "channel": 2,
      "note": 93,
      "start": 15.2075,
      "duration": 0.0001,
      "velocity": 119,
      "chip": "ym2612"
    },
    {
      "channel": 2,
      "note": 93,
      "start": 15.2077,
      "duration": 0.0009,
      "velocity": 119,
      "chip": "ym2612"
    },
    {
      "channel": 2,
      "note": 93,
      "start": 15.2085,
      "duration": 0.048,
      "velocity": 119,
      "chip": "ym2612"
    },
    {
      "channel": 2,
      "note": 93,
      "start": 15.2565,
      "duration": 0.0501,
      "velocity": 119,
      "chip": "ym2612"
    },
    {
      "channel": 2,
      "note": 93,
      "start": 15.3066,
      "duration": 0.001,
      "velocity": 119,
      "chip": "ym2612"
    },
    {
      "channel": 2,
      "note": 93,
      "start": 15.3075,
      "duration": 0.0159,
      "velocity": 119,
      "chip": "ym2612"
    },
    {
      "channel": 2,
      "note": 93,
      "start": 15.3234,
      "duration": 0.0331,
      "velocity": 119,
      "chip": "ym2612"
    },
    {
      "channel": 1,
      "note": 64,
      "start": 15.4068,
      "duration": 0.1996,
      "velocity": 73,
      "chip": "ym2612"
    },
    {
      "channel": 2,
      "note": 93,
      "start": 15.408,
      "duration": 0.0001,
      "velocity": 119,
      "chip": "ym2612"
    },
    {
      "channel": 2,
      "note": 93,
      "start": 15.4081,
      "duration": 0.0009,
      "velocity": 119,
      "chip": "ym2612"
    },
    {
      "channel": 2,
      "note": 93,
      "start": 15.409,
      "duration": 0.0475,
      "velocity": 119,
      "chip": "ym2612"
    },
    {
      "channel": 2,
      "note": 93,
      "start": 15.4565,
      "duration": 0.0667,
      "velocity": 119,
      "chip": "ym2612"
    },
    {
      "channel": 1,
      "note": 64,
      "start": 15.6068,
      "duration": 0.3999,
      "velocity": 73,
      "chip": "ym2612"
    },
    {
      "channel": 2,
      "note": 93,
      "start": 15.608,
      "duration": 0.0001,
      "velocity": 122,
      "chip": "ym2612"
    },
    {
      "channel": 2,
      "note": 93,
      "start": 15.6081,
      "duration": 0.0009,
      "velocity": 122,
      "chip": "ym2612"
    },
    {
      "channel": 2,
      "note": 93,
      "start": 15.609,
      "duration": 0.1142,
      "velocity": 122,
      "chip": "ym2612"
    },
    {
      "channel": 2,
      "note": 93,
      "start": 15.7232,
      "duration": 0.0001,
      "velocity": 122,
      "chip": "ym2612"
    },
    {
      "channel": 2,
      "note": 93,
      "start": 15.8076,
      "duration": 0.049,
      "velocity": 119,
      "chip": "ym2612"
    },
    {
      "channel": 0,
      "note": 85,
      "start": 16.0066,
      "duration": 1.7994,
      "velocity": 105,
      "chip": "ym2612"
    },
    {
      "channel": 1,
      "note": 64,
      "start": 16.0072,
      "duration": 0.3992,
      "velocity": 73,
      "chip": "ym2612"
    },
    {
      "channel": 2,
      "note": 93,
      "start": 16.0085,
      "duration": 0.0001,
      "velocity": 119,
      "chip": "ym2612"
    },
    {
      "channel": 2,
      "note": 93,
      "start": 16.0086,
      "duration": 0.0009,
      "velocity": 119,
      "chip": "ym2612"
    },
    {
      "channel": 2,
      "note": 93,
      "start": 16.0095,
      "duration": 0.047,
      "velocity": 119,
      "chip": "ym2612"
    },
    {
      "channel": 3,
      "note": 81,
      "start": 16.0107,
      "duration": 1.798,
      "velocity": 105,
      "chip": "ym2612"
    },
    {
      "channel": 4,
      "note": 76,
      "start": 16.0112,
      "duration": 1.7981,
      "velocity": 105,
      "chip": "ym2612"
    },
    {
      "channel": 2,
      "note": 93,
      "start": 16.0565,
      "duration": 0.0667,
      "velocity": 119,
      "chip": "ym2612"
    },
    {
      "channel": 5,
      "note": 85,
      "start": 16.1076,
      "duration": 1.7993,
      "velocity": 105,
      "chip": "ym2612"
    },
    {
      "channel": 2,
      "note": 93,
      "start": 16.2075,
      "duration": 0.049,
      "velocity": 119,
      "chip": "ym2612"
    },
    {
      "channel": 1,
      "note": 64,
      "start": 16.4068,
      "duration": 0.1996,
      "velocity": 73,
      "chip": "ym2612"
    },
    {
      "channel": 2,
      "note": 93,
      "start": 16.408,
      "duration": 0.0001,
      "velocity": 122,
      "chip": "ym2612"
    },
    {
      "channel": 2,
      "note": 93,
      "start": 16.4081,
      "duration": 0.0009,
      "velocity": 122,
      "chip": "ym2612"
    },
    {
      "channel": 2,
      "note": 93,
      "start": 16.409,
      "duration": 0.1142,
      "velocity": 122,
      "chip": "ym2612"
    },
    {
      "channel": 2,
      "note": 93,
      "start": 16.5232,
      "duration": 0.0001,
      "velocity": 122,
      "chip": "ym2612"
    },
    {
      "channel": 1,
      "note": 64,
      "start": 16.6068,
      "duration": 0.3996,
      "velocity": 73,
      "chip": "ym2612"
    },
    {
      "channel": 2,
      "note": 93,
      "start": 16.608,
      "duration": 0.0485,
      "velocity": 119,
      "chip": "ym2612"
    },
    {
      "channel": 2,
      "note": 93,
      "start": 16.8075,
      "duration": 0.0001,
      "velocity": 119,
      "chip": "ym2612"
    },
    {
      "channel": 2,
      "note": 93,
      "start": 16.8077,
      "duration": 0.0009,
      "velocity": 119,
      "chip": "ym2612"
    },
    {
      "channel": 2,
      "note": 93,
      "start": 16.8085,
      "duration": 0.048,
      "velocity": 119,
      "chip": "ym2612"
    },
    {
      "channel": 2,
      "note": 93,
      "start": 16.8565,
      "duration": 0.0501,
      "velocity": 119,
      "chip": "ym2612"
    },
    {
      "channel": 2,
      "note": 93,
      "start": 16.9066,
      "duration": 0.001,
      "velocity": 119,
      "chip": "ym2612"
    },
    {
      "channel": 2,
      "note": 93,
      "start": 16.9075,
      "duration": 0.0159,
      "velocity": 119,
      "chip": "ym2612"
    },
    {
      "channel": 2,
      "note": 93,
      "start": 16.9234,
      "duration": 0.0331,
      "velocity": 119,
      "chip": "ym2612"
    },
    {
      "channel": 1,
      "note": 64,
      "start": 17.0068,
      "duration": 0.1996,
      "velocity": 73,
      "chip": "ym2612"
    },
    {
      "channel": 2,
      "note": 93,
      "start": 17.008,
      "duration": 0.0001,
      "velocity": 119,
      "chip": "ym2612"
    },
    {
      "channel": 2,
      "note": 93,
      "start": 17.0081,
      "duration": 0.0009,
      "velocity": 119,
      "chip": "ym2612"
    },
    {
      "channel": 2,
      "note": 93,
      "start": 17.009,
      "duration": 0.0475,
      "velocity": 119,
      "chip": "ym2612"
    },
    {
      "channel": 2,
      "note": 93,
      "start": 17.0565,
      "duration": 0.0667,
      "velocity": 119,
      "chip": "ym2612"
    },
    {
      "channel": 1,
      "note": 64,
      "start": 17.2068,
      "duration": 0.5999,
      "velocity": 73,
      "chip": "ym2612"
    },
    {
      "channel": 2,
      "note": 93,
      "start": 17.208,
      "duration": 0.0001,
      "velocity": 122,
      "chip": "ym2612"
    },
    {
      "channel": 2,
      "note": 93,
      "start": 17.2081,
      "duration": 0.0009,
      "velocity": 122,
      "chip": "ym2612"
    },
    {
      "channel": 2,
      "note": 93,
      "start": 17.209,
      "duration": 0.1142,
      "velocity": 122,
      "chip": "ym2612"
    },
    {
      "channel": 2,
      "note": 93,
      "start": 17.3232,
      "duration": 0.0001,
      "velocity": 122,
      "chip": "ym2612"
    },
    {
      "channel": 2,
      "note": 93,
      "start": 17.4076,
      "duration": 0.049,
      "velocity": 119,
      "chip": "ym2612"
    },
    {
      "channel": 2,
      "note": 93,
      "start": 17.6077,
      "duration": 0.0001,
      "velocity": 119,
      "chip": "ym2612"
    },
    {
      "channel": 2,
      "note": 93,
      "start": 17.6078,
      "duration": 0.0009,
      "velocity": 119,
      "chip": "ym2612"
    },
    {
      "channel": 2,
      "note": 93,
      "start": 17.6087,
      "duration": 0.0479,
      "velocity": 119,
      "chip": "ym2612"
    },
    {
      "channel": 2,
      "note": 93,
      "start": 17.6566,
      "duration": 0.0667,
      "velocity": 119,
      "chip": "ym2612"
    },
    {
      "channel": 0,
      "note": 85,
      "start": 17.8065,
      "duration": 0.1995,
      "velocity": 105,
      "chip": "ym2612"
    },
    {
      "channel": 1,
      "note": 64,
      "start": 17.8071,
      "duration": 0.1995,
      "velocity": 73,
      "chip": "ym2612"
    },
    {
      "channel": 2,
      "note": 93,
      "start": 17.8082,
      "duration": 0.0483,
      "velocity": 119,
      "chip": "ym2612"
    },
    {
      "channel": 3,
      "note": 81,
      "start": 17.8091,
      "duration": 0.2009,
      "velocity": 105,
      "chip": "ym2612"
    },
    {
      "channel": 4,
      "note": 76,
      "start": 17.8097,
      "duration": 0.2008,
      "velocity": 105,
      "chip": "ym2612"
    },
    {
      "channel": 5,
      "note": 85,
      "start": 17.9073,
      "duration": 0.2001,
      "velocity": 105,
      "chip": "ym2612"
    },
    {
      "channel": 0,
      "note": 85,
      "start": 18.0065,
      "duration": 0.3995,
      "velocity": 105,
      "chip": "ym2612"
    },
    {
      "channel": 1,
      "note": 64,
      "start": 18.0071,
      "duration": 0.3995,
      "velocity": 73,
      "chip": "ym2612"
    },
    {
      "channel": 2,
      "note": 93,
      "start": 18.0082,
      "duration": 0.0001,
      "velocity": 122,
      "chip": "ym2612"
    },
    {
      "channel": 2,
      "note": 93,
      "start": 18.0084,
      "duration": 0.0009,
      "velocity": 122,
      "chip": "ym2612"
    },
    {
      "channel": 2,
      "note": 93,
      "start": 18.0093,
      "duration": 0.1139,
      "velocity": 122,
      "chip": "ym2612"
    },
    {
      "channel": 3,
      "note": 81,
      "start": 18.0104,
      "duration": 0.3996,
      "velocity": 105,
      "chip": "ym2612"
    },
    {
      "channel": 4,
      "note": 76,
      "start": 18.0109,
      "duration": 0.3996,
      "velocity": 105,
      "chip": "ym2612"
    },
    {
      "channel": 5,
      "note": 85,
      "start": 18.1077,
      "duration": 0.4008,
      "velocity": 105,
      "chip": "ym2612"
    },
    {
      "channel": 2,
      "note": 93,
      "start": 18.1232,
      "duration": 0.0001,
      "velocity": 122,
      "chip": "ym2612"
    },
    {
      "channel": 2,
      "note": 93,
      "start": 18.2075,
      "duration": 0.049,
      "velocity": 119,
      "chip": "ym2612"
    },
    {
      "channel": 0,
      "note": 85,
      "start": 18.4065,
      "duration": 0.3995,
      "velocity": 105,
      "chip": "ym2612"
    },
    {
      "channel": 1,
      "note": 64,
      "start": 18.4071,
      "duration": 0.3995,
      "velocity": 73,
      "chip": "ym2612"
    },
    {
      "channel": 2,
      "note": 93,
      "start": 18.4082,
      "duration": 0.0001,
      "velocity": 119,
      "chip": "ym2612"
    },
    {
      "channel": 2,
      "note": 93,
      "start": 18.4084,
      "duration": 0.0009,
      "velocity": 119,
      "chip": "ym2612"
    },
    {
      "channel": 2,
      "note": 93,
      "start": 18.4093,
      "duration": 0.0473,
      "velocity": 119,
      "chip": "ym2612"
    },
    {
      "channel": 3,
      "note": 81,
      "start": 18.4104,
      "duration": 0.3996,
      "velocity": 105,
      "chip": "ym2612"
    },
    {
      "channel": 4,
      "note": 76,
      "start": 18.4109,
      "duration": 0.3996,
      "velocity": 105,
      "chip": "ym2612"
    },
    {
      "channel": 2,
      "note": 93,
      "start": 18.4565,
      "duration": 0.0501,
      "velocity": 119,
      "chip": "ym2612"
    },
    {
      "channel": 2,
      "note": 93,
      "start": 18.5066,
      "duration": 0.001,
      "velocity": 119,
      "chip": "ym2612"
    },
    {
      "channel": 2,
      "note": 93,
      "start": 18.5075,
      "duration": 0.0159,
      "velocity": 119,
      "chip": "ym2612"
    },
    {
      "channel": 5,
      "note": 85,
      "start": 18.509,
      "duration": 0.3983,
      "velocity": 105,
      "chip": "ym2612"
    },
    {
      "channel": 2,
      "note": 93,
      "start": 18.5234,
      "duration": 0.0331,
      "velocity": 119,
      "chip": "ym2612"
    },
    {
      "channel": 2,
      "note": 93,
      "start": 18.6075,
      "duration": 0.0001,
      "velocity": 119,
      "chip": "ym2612"
    },
    {
      "channel": 2,
      "note": 93,
      "start": 18.6077,
      "duration": 0.0009,
      "velocity": 119,
      "chip": "ym2612"
    },
    {
      "channel": 2,
      "note": 93,
      "start": 18.6085,
      "duration": 0.048,
      "velocity": 119,
      "chip": "ym2612"
    },
    {
      "channel": 2,
      "note": 93,
      "start": 18.6565,
      "duration": 0.0667,
      "velocity": 119,
      "chip": "ym2612"
    },
    {
      "channel": 0,
      "note": 85,
      "start": 18.8065,
      "duration": 0.1995,
      "velocity": 105,
      "chip": "ym2612"
    },
    {
      "channel": 1,
      "note": 64,
      "start": 18.8071,
      "duration": 0.1996,
      "velocity": 73,
      "chip": "ym2612"
    },
    {
      "channel": 2,
      "note": 93,
      "start": 18.8082,
      "duration": 0.0001,
      "velocity": 122,
      "chip": "ym2612"
    },
    {
      "channel": 2,
      "note": 93,
      "start": 18.8084,
      "duration": 0.0009,
      "velocity": 122,
      "chip": "ym2612"
    },
    {
      "channel": 2,
      "note": 93,
      "start": 18.8093,
      "duration": 0.1139,
      "velocity": 122,
      "chip": "ym2612"
    },
    {
      "channel": 3,
      "note": 81,
      "start": 18.8104,
      "duration": 0.1985,
      "velocity": 105,
      "chip": "ym2612"
    },
    {
      "channel": 4,
      "note": 76,
      "start": 18.8109,
      "duration": 0.1986,
      "velocity": 105,
      "chip": "ym2612"
    },
    {
      "channel": 5,
      "note": 85,
      "start": 18.9077,
      "duration": 0.2018,
      "velocity": 105,
      "chip": "ym2612"
    },
    {
      "channel": 2,
      "note": 93,
      "start": 18.9232,
      "duration": 0.0001,
      "velocity": 122,
      "chip": "ym2612"
    },
    {
      "channel": 0,
      "note": 80,
      "start": 19.0066,
      "duration": 1.5994,
      "velocity": 105,
      "chip": "ym2612"
    },
    {
      "channel": 1,
      "note": 61,
      "start": 19.0072,
      "duration": 0.3992,
      "velocity": 73,
      "chip": "ym2612"
    },
    {
      "channel": 2,
      "note": 93,
      "start": 19.0084,
      "duration": 0.0481,
      "velocity": 119,
      "chip": "ym2612"
    },
    {
      "channel": 3,
      "note": 77,
      "start": 19.0094,
      "duration": 1.5995,
      "velocity": 105,
      "chip": "ym2612"
    },
    {
      "channel": 4,
      "note": 73,
      "start": 19.01,
      "duration": 1.5995,
      "velocity": 105,
      "chip": "ym2612"
    },
    {
      "channel": 2,
      "note": 93,
      "start": 19.1075,
      "duration": 0.0001,
      "velocity": 119,
      "chip": "ym2612"
    },
    {
      "channel": 2,
      "note": 93,
      "start": 19.1077,
      "duration": 0.0009,
      "velocity": 119,
      "chip": "ym2612"
    },
    {
      "channel": 2,
      "note": 93,
      "start": 19.1085,
      "duration": 0.048,
      "velocity": 119,
      "chip": "ym2612"
    },
    {
      "channel": 5,
      "note": 80,
      "start": 19.11,
      "duration": 1.5995,
      "velocity": 105,
      "chip": "ym2612"
    },
    {
      "channel": 2,
      "note": 93,
      "start": 19.1565,
      "duration": 0.0501,
      "velocity": 119,
      "chip": "ym2612"
    },
    {
      "channel": 2,
      "note": 93,
      "start": 19.2066,
      "duration": 0.001,
      "velocity": 119,
      "chip": "ym2612"
    },
    {
      "channel": 2,
      "note": 93,
      "start": 19.2075,
      "duration": 0.0159,
      "velocity": 119,
      "chip": "ym2612"
    },
    {
      "channel": 2,
      "note": 93,
      "start": 19.2234,
      "duration": 0.0331,
      "velocity": 119,
      "chip": "ym2612"
    },
    {
      "channel": 1,
      "note": 61,
      "start": 19.4068,
      "duration": 0.1996,
      "velocity": 73,
      "chip": "ym2612"
    },
    {
      "channel": 2,
      "note": 93,
      "start": 19.408,
      "duration": 0.0001,
      "velocity": 119,
      "chip": "ym2612"
    },
    {
      "channel": 2,
      "note": 93,
      "start": 19.4081,
      "duration": 0.0009,
      "velocity": 119,
      "chip": "ym2612"
    },
    {
      "channel": 2,
      "note": 93,
      "start": 19.409,
      "duration": 0.0475,
      "velocity": 119,
      "chip": "ym2612"
    },
    {
      "channel": 2,
      "note": 93,
      "start": 19.4565,
      "duration": 0.0667,
      "velocity": 119,
      "chip": "ym2612"
    },
    {
      "channel": 1,
      "note": 61,
      "start": 19.6068,
      "duration": 0.3996,
      "velocity": 73,
      "chip": "ym2612"
    },
    {
      "channel": 2,
      "note": 93,
      "start": 19.608,
      "duration": 0.1152,
      "velocity": 122,
      "chip": "ym2612"
    },
    {
      "channel": 2,
      "note": 93,
      "start": 19.8075,
      "duration": 0.049,
      "velocity": 119,
      "chip": "ym2612"
    },
    {
      "channel": 1,
      "note": 61,
      "start": 20.0068,
      "duration": 0.3996,
      "velocity": 73,
      "chip": "ym2612"
    },
    {
      "channel": 2,
      "note": 93,
      "start": 20.008,
      "duration": 0.0001,
      "velocity": 119,
      "chip": "ym2612"
    },
    {
      "channel": 2,
      "note": 93,
      "start": 20.0081,
      "duration": 0.0009,
      "velocity": 119,
      "chip": "ym2612"
    },
    {
      "channel": 2,
      "note": 93,
      "start": 20.009,
      "duration": 0.0475,
      "velocity": 119,
      "chip": "ym2612"
    },
    {
      "channel": 2,
      "note": 93,
      "start": 20.0565,
      "duration": 0.0667,
      "velocity": 119,
      "chip": "ym2612"
    },
    {
      "channel": 2,
      "note": 93,
      "start": 20.2076,
      "duration": 0.049,
      "velocity": 119,
      "chip": "ym2612"
    },
    {
      "channel": 2,
      "note": 93,
      "start": 20.3076,
      "duration": 0.0489,
      "velocity": 119,
      "chip": "ym2612"
    },
    {
      "channel": 1,
      "note": 61,
      "start": 20.4068,
      "duration": 0.1999,
      "velocity": 73,
      "chip": "ym2612"
    },
    {
      "channel": 2,
      "note": 93,
      "start": 20.408,
      "duration": 0.1153,
      "velocity": 122,
      "chip": "ym2612"
    },
    {
      "channel": 0,
      "note": 82,
      "start": 20.6066,
      "duration": 1.7994,
      "velocity": 105,
      "chip": "ym2612"
    },
    {
      "channel": 1,
      "note": 63,
      "start": 20.6072,
      "duration": 0.3992,
      "velocity": 73,
      "chip": "ym2612"
    },
    {
      "channel": 2,
      "note": 93,
      "start": 20.6084,
      "duration": 0.0481,
      "velocity": 119,
      "chip": "ym2612"
    },
    {
      "channel": 3,
      "note": 78,
      "start": 20.6094,
      "duration": 1.8007,
      "velocity": 105,
      "chip": "ym2612"
    },
    {
      "channel": 4,
      "note": 75,
      "start": 20.61,
      "duration": 1.8008,
      "velocity": 105,
      "chip": "ym2612"
    },
    {
      "channel": 2,
      "note": 93,
      "start": 20.7075,
      "duration": 0.0001,
      "velocity": 119,
      "chip": "ym2612"
    },
    {
      "channel": 2,
      "note": 93,
      "start": 20.7077,
      "duration": 0.0009,
      "velocity": 119,
      "chip": "ym2612"
    },
    {
      "channel": 2,
      "note": 93,
      "start": 20.7085,
      "duration": 0.048,
      "velocity": 119,
      "chip": "ym2612"
    },
    {
      "channel": 5,
      "note": 82,
      "start": 20.71,
      "duration": 1.7971,
      "velocity": 105,
      "chip": "ym2612"
    },
    {
      "channel": 2,
      "note": 93,
      "start": 20.7565,
      "duration": 0.0501,
      "velocity": 119,
      "chip": "ym2612"
    },
    {
      "channel": 2,
      "note": 93,
      "start": 20.8066,
      "duration": 0.001,
      "velocity": 119,
      "chip": "ym2612"
    },
    {
      "channel": 2,
      "note": 93,
      "start": 20.8075,
      "duration": 0.0159,
      "velocity": 119,
      "chip": "ym2612"
    },
    {
      "channel": 2,
      "note": 93,
      "start": 20.8234,
      "duration": 0.0331,
      "velocity": 119,
      "chip": "ym2612"
    },
    {
      "channel": 1,
      "note": 63,
      "start": 21.0068,
      "duration": 0.1996,
      "velocity": 73,
      "chip": "ym2612"
    },
    {
      "channel": 2,
      "note": 93,
      "start": 21.008,
      "duration": 0.0001,
      "velocity": 119,
      "chip": "ym2612"
    },
    {
      "channel": 2,
      "note": 93,
      "start": 21.0081,
      "duration": 0.0009,
      "velocity": 119,
      "chip": "ym2612"
    },
    {
      "channel": 2,
      "note": 93,
      "start": 21.009,
      "duration": 0.0475,
      "velocity": 119,
      "chip": "ym2612"
    },
    {
      "channel": 2,
      "note": 93,
      "start": 21.0565,
      "duration": 0.0667,
      "velocity": 119,
      "chip": "ym2612"
    },
    {
      "channel": 1,
      "note": 63,
      "start": 21.2068,
      "duration": 0.3996,
      "velocity": 73,
      "chip": "ym2612"
    },
    {
      "channel": 2,
      "note": 93,
      "start": 21.208,
      "duration": 0.1152,
      "velocity": 122,
      "chip": "ym2612"
    },
    {
      "channel": 2,
      "note": 93,
      "start": 21.4075,
      "duration": 0.049,
      "velocity": 119,
      "chip": "ym2612"
    },
    {
      "channel": 1,
      "note": 63,
      "start": 21.6068,
      "duration": 0.3996,
      "velocity": 73,
      "chip": "ym2612"
    },
    {
      "channel": 2,
      "note": 93,
      "start": 21.608,
      "duration": 0.0001,
      "velocity": 119,
      "chip": "ym2612"
    },
    {
      "channel": 2,
      "note": 93,
      "start": 21.6081,
      "duration": 0.0009,
      "velocity": 119,
      "chip": "ym2612"
    },
    {
      "channel": 2,
      "note": 93,
      "start": 21.609,
      "duration": 0.0475,
      "velocity": 119,
      "chip": "ym2612"
    },
    {
      "channel": 2,
      "note": 93,
      "start": 21.6565,
      "duration": 0.0667,
      "velocity": 119,
      "chip": "ym2612"
    },
    {
      "channel": 2,
      "note": 93,
      "start": 21.8076,
      "duration": 0.049,
      "velocity": 119,
      "chip": "ym2612"
    },
    {
      "channel": 2,
      "note": 93,
      "start": 21.9076,
      "duration": 0.0489,
      "velocity": 119,
      "chip": "ym2612"
    },
    {
      "channel": 1,
      "note": 63,
      "start": 22.0068,
      "duration": 0.3999,
      "velocity": 73,
      "chip": "ym2612"
    },
    {
      "channel": 2,
      "note": 93,
      "start": 22.008,
      "duration": 0.1153,
      "velocity": 122,
      "chip": "ym2612"
    },
    {
      "channel": 2,
      "note": 93,
      "start": 22.2076,
      "duration": 0.049,
      "velocity": 119,
      "chip": "ym2612"
    },
    {
      "channel": 0,
      "note": 83,
      "start": 22.4066,
      "duration": 1.5994,
      "velocity": 105,
      "chip": "ym2612"
    },
    {
      "channel": 1,
      "note": 64,
      "start": 22.4072,
      "duration": 0.3992,
      "velocity": 73,
      "chip": "ym2612"
    },
    {
      "channel": 2,
      "note": 93,
      "start": 22.4084,
      "duration": 0.0001,
      "velocity": 119,
      "chip": "ym2612"
    },
    {
      "channel": 2,
      "note": 93,
      "start": 22.4085,
      "duration": 0.0009,
      "velocity": 119,
      "chip": "ym2612"
    },
    {
      "channel": 2,
      "note": 93,
      "start": 22.4094,
      "duration": 0.0471,
      "velocity": 119,
      "chip": "ym2612"
    },
    {
      "channel": 3,
      "note": 80,
      "start": 22.4106,
      "duration": 1.5995,
      "velocity": 105,
      "chip": "ym2612"
    },
    {
      "channel": 4,
      "note": 76,
      "start": 22.4112,
      "duration": 1.5995,
      "velocity": 105,
      "chip": "ym2612"
    },
    {
      "channel": 2,
      "note": 93,
      "start": 22.4565,
      "duration": 0.0667,
      "velocity": 119,
      "chip": "ym2612"
    },
    {
      "channel": 5,
      "note": 83,
      "start": 22.5076,
      "duration": 1.5998,
      "velocity": 105,
      "chip": "ym2612"
    },
    {
      "channel": 2,
      "note": 93,
      "start": 22.6075,
      "duration": 0.049,
      "velocity": 119,
      "chip": "ym2612"
    },
    {
      "channel": 1,
      "note": 64,
      "start": 22.8068,
      "duration": 0.3996,
      "velocity": 73,
      "chip": "ym2612"
    },
    {
      "channel": 2,
      "note": 93,
      "start": 22.808,
      "duration": 0.0001,
      "velocity": 122,
      "chip": "ym2612"
    },
    {
      "channel": 2,
      "note": 93,
      "start": 22.8082,
      "duration": 0.0009,
      "velocity": 122,
      "chip": "ym2612"
    },
    {
      "channel": 2,
      "note": 93,
      "start": 22.8091,
      "duration": 0.1141,
      "velocity": 122,
      "chip": "ym2612"
    },
    {
      "channel": 2,
      "note": 93,
      "start": 22.9232,
      "duration": 0.0001,
      "velocity": 122,
      "chip": "ym2612"
    },
    {
      "channel": 2,
      "note": 93,
      "start": 23.0075,
      "duration": 0.049,
      "velocity": 119,
      "chip": "ym2612"
    },
    {
      "channel": 2,
      "note": 93,
      "start": 23.1076,
      "duration": 0.049,
      "velocity": 119,
      "chip": "ym2612"
    },
    {
      "channel": 1,
      "note": 64,
      "start": 23.2068,
      "duration": 0.3996,
      "velocity": 73,
      "chip": "ym2612"
    },
    {
      "channel": 2,
      "note": 93,
      "start": 23.208,
      "duration": 0.0001,
      "velocity": 119,
      "chip": "ym2612"
    },
    {
      "channel": 2,
      "note": 93,
      "start": 23.2081,
      "duration": 0.001,
      "velocity": 119,
      "chip": "ym2612"
    },
    {
      "channel": 2,
      "note": 93,
      "start": 23.2091,
      "duration": 0.0474,
      "velocity": 119,
      "chip": "ym2612"
    },
    {
      "channel": 2,
      "note": 93,
      "start": 23.2565,
      "duration": 0.0667,
      "velocity": 119,
      "chip": "ym2612"
    },
    {
      "channel": 2,
      "note": 93,
      "start": 23.4076,
      "duration": 0.1156,
      "velocity": 122,
      "chip": "ym2612"
    },
    {
      "channel": 1,
      "note": 64,
      "start": 23.6068,
      "duration": 0.3999,
      "velocity": 73,
      "chip": "ym2612"
    },
    {
      "channel": 2,
      "note": 93,
      "start": 23.608,
      "duration": 0.0001,
      "velocity": 122,
      "chip": "ym2612"
    },
    {
      "channel": 2,
      "note": 93,
      "start": 23.6082,
      "duration": 0.0009,
      "velocity": 122,
      "chip": "ym2612"
    },
    {
      "channel": 2,
      "note": 93,
      "start": 23.6091,
      "duration": 0.1141,
      "velocity": 122,
      "chip": "ym2612"
    },
    {
      "channel": 2,
      "note": 93,
      "start": 23.7232,
      "duration": 0.0001,
      "velocity": 122,
      "chip": "ym2612"
    },
    {
      "channel": 2,
      "note": 93,
      "start": 23.8076,
      "duration": 0.049,
      "velocity": 119,
      "chip": "ym2612"
    },
    {
      "channel": 2,
      "note": 93,
      "start": 23.9076,
      "duration": 0.049,
      "velocity": 119,
      "chip": "ym2612"
    },
    {
      "channel": 0,
      "note": 85,
      "start": 24.0066,
      "duration": 0.5994,
      "velocity": 105,
      "chip": "ym2612"
    },
    {
      "channel": 1,
      "note": 66,
      "start": 24.0072,
      "duration": 0.0992,
      "velocity": 73,
      "chip": "ym2612"
    },
    {
      "channel": 2,
      "note": 93,
      "start": 24.0084,
      "duration": 0.0001,
      "velocity": 119,
      "chip": "ym2612"
    },
    {
      "channel": 2,
      "note": 93,
      "start": 24.0085,
      "duration": 0.001,
      "velocity": 119,
      "chip": "ym2612"
    },
    {
      "channel": 2,
      "note": 93,
      "start": 24.0094,
      "duration": 0.0471,
      "velocity": 119,
      "chip": "ym2612"
    },
    {
      "channel": 3,
      "note": 82,
      "start": 24.0106,
      "duration": 0.0629,
      "velocity": 105,
      "chip": "ym2612"
    },
    {
      "channel": 4,
      "note": 78,
      "start": 24.0112,
      "duration": 0.0627,
      "velocity": 105,
      "chip": "ym2612"
    },
    {
      "channel": 2,
      "note": 93,
      "start": 24.0565,
      "duration": 0.0667,
      "velocity": 119,
      "chip": "ym2612"
    },
    {
      "channel": 5,
      "note": 85,
      "start": 24.1078,
      "duration": 0.5993,
      "velocity": 105,
      "chip": "ym2612"
    },
    {
      "channel": 2,
      "note": 93,
      "start": 24.2075,
      "duration": 0.049,
      "velocity": 119,
      "chip": "ym2612"
    },
    {
      "channel": 2,
      "note": 93,
      "start": 24.4075,
      "duration": 0.1156,
      "velocity": 122,
      "chip": "ym2612"
    },
    {
      "channel": 0,
      "note": 85,
      "start": 24.6065,
      "duration": 1.1995,
      "velocity": 105,
      "chip": "ym2612"
    },
    {
      "channel": 1,
      "note": 66,
      "start": 24.6071,
      "duration": 1.1995,
      "velocity": 73,
      "chip": "ym2612"
    },
    {
      "channel": 2,
      "note": 93,
      "start": 24.6083,
      "duration": 0.0001,
      "velocity": 119,
      "chip": "ym2612"
    },
    {
      "channel": 2,
      "note": 93,
      "start": 24.6084,
      "duration": 0.001,
      "velocity": 119,
      "chip": "ym2612"
    },
    {
      "channel": 2,
      "note": 93,
      "start": 24.6094,
      "duration": 0.0471,
      "velocity": 119,
      "chip": "ym2612"
    },
    {
      "channel": 3,
      "note": 82,
      "start": 24.6105,
      "duration": 1.1982,
      "velocity": 105,
      "chip": "ym2612"
    },
    {
      "channel": 4,
      "note": 78,
      "start": 24.6112,
      "duration": 1.1982,
      "velocity": 105,
      "chip": "ym2612"
    },
    {
      "channel": 2,
      "note": 93,
      "start": 24.6565,
      "duration": 0.0667,
      "velocity": 119,
      "chip": "ym2612"
    },
    {
      "channel": 5,
      "note": 85,
      "start": 24.7075,
      "duration": 1.1996,
      "velocity": 105,
      "chip": "ym2612"
    },
    {
      "channel": 2,
      "note": 93,
      "start": 24.8075,
      "duration": 0.049,
      "velocity": 119,
      "chip": "ym2612"
    },
    {
      "channel": 2,
      "note": 93,
      "start": 24.9075,
      "duration": 0.049,
      "velocity": 119,
      "chip": "ym2612"
    },
    {
      "channel": 2,
      "note": 93,
      "start": 25.0076,
      "duration": 0.0001,
      "velocity": 119,
      "chip": "ym2612"
    },
    {
      "channel": 2,
      "note": 93,
      "start": 25.0077,
      "duration": 0.001,
      "velocity": 119,
      "chip": "ym2612"
    },
    {
      "channel": 2,
      "note": 93,
      "start": 25.0086,
      "duration": 0.0479,
      "velocity": 119,
      "chip": "ym2612"
    },
    {
      "channel": 2,
      "note": 93,
      "start": 25.0565,
      "duration": 0.0667,
      "velocity": 119,
      "chip": "ym2612"
    },
    {
      "channel": 2,
      "note": 93,
      "start": 25.2075,
      "duration": 0.1156,
      "velocity": 122,
      "chip": "ym2612"
    },
    {
      "channel": 2,
      "note": 93,
      "start": 25.4075,
      "duration": 0.049,
      "velocity": 119,
      "chip": "ym2612"
    },
    {
      "channel": 2,
      "note": 93,
      "start": 25.5075,
      "duration": 0.049,
      "velocity": 119,
      "chip": "ym2612"
    },
    {
      "channel": 2,
      "note": 93,
      "start": 25.6076,
      "duration": 0.0001,
      "velocity": 119,
      "chip": "ym2612"
    },
    {
      "channel": 2,
      "note": 93,
      "start": 25.6077,
      "duration": 0.001,
      "velocity": 119,
      "chip": "ym2612"
    },
    {
      "channel": 2,
      "note": 93,
      "start": 25.6086,
      "duration": 0.0479,
      "velocity": 119,
      "chip": "ym2612"
    },
    {
      "channel": 2,
      "note": 93,
      "start": 25.6565,
      "duration": 0.0667,
      "velocity": 119,
      "chip": "ym2612"
    },
    {
      "channel": 0,
      "note": 85,
      "start": 25.8065,
      "duration": 0.1995,
      "velocity": 105,
      "chip": "ym2612"
    },
    {
      "channel": 1,
      "note": 66,
      "start": 25.8071,
      "duration": 0.1995,
      "velocity": 73,
      "chip": "ym2612"
    },
    {
      "channel": 2,
      "note": 93,
      "start": 25.8082,
      "duration": 0.1149,
      "velocity": 122,
      "chip": "ym2612"
    },
    {
      "channel": 3,
      "note": 82,
      "start": 25.8091,
      "duration": 0.1996,
      "velocity": 105,
      "chip": "ym2612"
    },
    {
      "channel": 4,
      "note": 78,
      "start": 25.8097,
      "duration": 0.1996,
      "velocity": 105,
      "chip": "ym2612"
    },
    {
      "channel": 5,
      "note": 85,
      "start": 25.9075,
      "duration": 0.1996,
      "velocity": 105,
      "chip": "ym2612"
    },
    {
      "channel": 0,
      "note": 85,
      "start": 26.0065,
      "duration": 0.3995,
      "velocity": 105,
      "chip": "ym2612"
    },
    {
      "channel": 1,
      "note": 66,
      "start": 26.0071,
      "duration": 0.3996,
      "velocity": 73,
      "chip": "ym2612"
    },
    {
      "channel": 2,
      "note": 93,
      "start": 26.0082,
      "duration": 0.1149,
      "velocity": 122,
      "chip": "ym2612"
    },
    {
      "channel": 3,
      "note": 82,
      "start": 26.0091,
      "duration": 0.3998,
      "velocity": 105,
      "chip": "ym2612"
    },
    {
      "channel": 4,
      "note": 78,
      "start": 26.0097,
      "duration": 0.3997,
      "velocity": 105,
      "chip": "ym2612"
    },
    {
      "channel": 5,
      "note": 85,
      "start": 26.1075,
      "duration": 0.402,
      "velocity": 105,
      "chip": "ym2612"
    },
    {
      "channel": 2,
      "note": 93,
      "start": 26.2075,
      "duration": 0.0001,
      "velocity": 119,
      "chip": "ym2612"
    },
    {
      "channel": 2,
      "note": 93,
      "start": 26.2077,
      "duration": 0.0009,
      "velocity": 119,
      "chip": "ym2612"
    },
    {
      "channel": 2,
      "note": 93,
      "start": 26.2085,
      "duration": 0.048,
      "velocity": 119,
      "chip": "ym2612"
    },
    {
      "channel": 2,
      "note": 93,
      "start": 26.2565,
      "duration": 0.0667,
      "velocity": 119,
      "chip": "ym2612"
    },
    {
      "channel": 0,
      "note": 87,
      "start": 26.4066,
      "duration": 0.3994,
      "velocity": 105,
      "chip": "ym2612"
    },
    {
      "channel": 1,
      "note": 68,
      "start": 26.4071,
      "duration": 0.3996,
      "velocity": 73,
      "chip": "ym2612"
    },
    {
      "channel": 2,
      "note": 93,
      "start": 26.4084,
      "duration": 0.0982,
      "velocity": 122,
      "chip": "ym2612"
    },
    {
      "channel": 3,
      "note": 83,
      "start": 26.4093,
      "duration": 0.3998,
      "velocity": 105,
      "chip": "ym2612"
    },
    {
      "channel": 4,
      "note": 78,
      "start": 26.4099,
      "duration": 0.3998,
      "velocity": 105,
      "chip": "ym2612"
    },
    {
      "channel": 2,
      "note": 93,
      "start": 26.5075,
      "duration": 0.0001,
      "velocity": 119,
      "chip": "ym2612"
    },
    {
      "channel": 2,
      "note": 93,
      "start": 26.5077,
      "duration": 0.0009,
      "velocity": 119,
      "chip": "ym2612"
    },
    {
      "channel": 2,
      "note": 93,
      "start": 26.5085,
      "duration": 0.048,
      "velocity": 119,
      "chip": "ym2612"
    },
    {
      "channel": 5,
      "note": 87,
      "start": 26.51,
      "duration": 0.3971,
      "velocity": 105,
      "chip": "ym2612"
    },
    {
      "channel": 2,
      "note": 93,
      "start": 26.5565,
      "duration": 0.0501,
      "velocity": 119,
      "chip": "ym2612"
    },
    {
      "channel": 2,
      "note": 93,
      "start": 26.6066,
      "duration": 0.001,
      "velocity": 119,
      "chip": "ym2612"
    },
    {
      "channel": 2,
      "note": 93,
      "start": 26.6075,
      "duration": 0.0159,
      "velocity": 119,
      "chip": "ym2612"
    },
    {
      "channel": 2,
      "note": 93,
      "start": 26.6234,
      "duration": 0.0331,
      "velocity": 119,
      "chip": "ym2612"
    },
    {
      "channel": 2,
      "note": 93,
      "start": 26.7075,
      "duration": 0.0001,
      "velocity": 119,
      "chip": "ym2612"
    },
    {
      "channel": 2,
      "note": 93,
      "start": 26.7077,
      "duration": 0.0009,
      "velocity": 119,
      "chip": "ym2612"
    },
    {
      "channel": 2,
      "note": 93,
      "start": 26.7085,
      "duration": 0.048,
      "velocity": 119,
      "chip": "ym2612"
    },
    {
      "channel": 2,
      "note": 93,
      "start": 26.7565,
      "duration": 0.0508,
      "velocity": 119,
      "chip": "ym2612"
    },
    {
      "channel": 0,
      "note": 85,
      "start": 26.8066,
      "duration": 0.3994,
      "velocity": 105,
      "chip": "ym2612"
    },
    {
      "channel": 1,
      "note": 66,
      "start": 26.8071,
      "duration": 0.403,
      "velocity": 73,
      "chip": "ym2612"
    },
    {
      "channel": 2,
      "note": 93,
      "start": 26.8073,
      "duration": 0.001,
      "velocity": 122,
      "chip": "ym2612"
    },
    {
      "channel": 2,
      "note": 93,
      "start": 26.8084,
      "duration": 0.0151,
      "velocity": 122,
      "chip": "ym2612"
    },
    {
      "channel": 3,
      "note": 82,
      "start": 26.8096,
      "duration": 0.4072,
      "velocity": 105,
      "chip": "ym2612"
    },
    {
      "channel": 4,
      "note": 78,
      "start": 26.8101,
      "duration": 0.4106,
      "velocity": 105,
      "chip": "ym2612"
    },
    {
      "channel": 2,
      "note": 93,
      "start": 26.8234,
      "duration": 0.0997,
      "velocity": 122,
      "chip": "ym2612"
    },
    {
      "channel": 5,
      "note": 85,
      "start": 26.9076,
      "duration": 0.4162,
      "velocity": 105,
      "chip": "ym2612"
    },
    {
      "channel": 2,
      "note": 93,
      "start": 27.0075,
      "duration": 0.0001,
      "velocity": 119,
      "chip": "ym2612"
    },
    {
      "channel": 2,
      "note": 93,
      "start": 27.0077,
      "duration": 0.0009,
      "velocity": 119,
      "chip": "ym2612"
    },
    {
      "channel": 2,
      "note": 93,
      "start": 27.0085,
      "duration": 0.048,
      "velocity": 119,
      "chip": "ym2612"
    },
    {
      "channel": 2,
      "note": 93,
      "start": 27.0565,
      "duration": 0.0667,
      "velocity": 119,
      "chip": "ym2612"
    },
    {
      "channel": 0,
      "note": 59,
      "start": 27.21,
      "duration": 0.4127,
      "velocity": 100,
      "chip": "ym2612"
    },
    {
      "channel": 1,
      "note": 71,
      "start": 27.2137,
      "duration": 0.2094,
      "velocity": 73,
      "chip": "ym2612"
    },
    {
      "channel": 2,
      "note": 93,
      "start": 27.215,
      "duration": 0.0001,
      "velocity": 119,
      "chip": "ym2612"
    },
    {
      "channel": 2,
      "note": 93,
      "start": 27.2151,
      "duration": 0.001,
      "velocity": 119,
      "chip": "ym2612"
    },
    {
      "channel": 2,
      "note": 93,
      "start": 27.2161,
      "duration": 0.0571,
      "velocity": 119,
      "chip": "ym2612"
    },
    {
      "channel": 3,
      "note": 78,
      "start": 27.2206,
      "duration": 0.2046,
      "velocity": 95,
      "chip": "ym2612"
    },
    {
      "channel": 4,
      "note": 75,
      "start": 27.2245,
      "duration": 0.2011,
      "velocity": 95,
      "chip": "ym2612"
    },
    {
      "channel": 2,
      "note": 93,
      "start": 27.2732,
      "duration": 0.0667,
      "velocity": 119,
      "chip": "ym2612"
    },
    {
      "channel": 5,
      "note": 59,
      "start": 27.3273,
      "duration": 0.3967,
      "velocity": 100,
      "chip": "ym2612"
    },
    {
      "channel": 1,
      "note": 71,
      "start": 27.4235,
      "duration": 0.1999,
      "velocity": 73,
      "chip": "ym2612"
    },
    {
      "channel": 2,
      "note": 93,
      "start": 27.4247,
      "duration": 0.0485,
      "velocity": 119,
      "chip": "ym2612"
    },
    {
      "channel": 0,
      "note": 78,
      "start": 27.6232,
      "duration": 0.3994,
      "velocity": 100,
      "chip": "ym2612"
    },
    {
      "channel": 1,
      "note": 71,
      "start": 27.6238,
      "duration": 0.1993,
      "velocity": 73,
      "chip": "ym2612"
    },
    {
      "channel": 2,
      "note": 93,
      "start": 27.625,
      "duration": 0.0001,
      "velocity": 122,
      "chip": "ym2612"
    },
    {
      "channel": 2,
      "note": 93,
      "start": 27.6251,
      "duration": 0.0009,
      "velocity": 122,
      "chip": "ym2612"
    },
    {
      "channel": 2,
      "note": 93,
      "start": 27.6261,
      "duration": 0.1138,
      "velocity": 122,
      "chip": "ym2612"
    },
    {
      "channel": 5,
      "note": 78,
      "start": 27.7244,
      "duration": 0.3994,
      "velocity": 100,
      "chip": "ym2612"
    },
    {
      "channel": 2,
      "note": 93,
      "start": 27.7398,
      "duration": 0.0001,
      "velocity": 122,
      "chip": "ym2612"
    },
    {
      "channel": 1,
      "note": 71,
      "start": 27.8235,
      "duration": 0.0996,
      "velocity": 73,
      "chip": "ym2612"
    },
    {
      "channel": 2,
      "note": 93,
      "start": 27.8247,
      "duration": 0.0001,
      "velocity": 119,
      "chip": "ym2612"
    },
    {
      "channel": 2,
      "note": 93,
      "start": 27.8248,
      "duration": 0.0009,
      "velocity": 119,
      "chip": "ym2612"
    },
    {
      "channel": 2,
      "note": 93,
      "start": 27.8257,
      "duration": 0.0474,
      "velocity": 119,
      "chip": "ym2612"
    },
    {
      "channel": 3,
      "note": 78,
      "start": 27.8269,
      "duration": 0.0984,
      "velocity": 95,
      "chip": "ym2612"
    },
    {
      "channel": 4,
      "note": 75,
      "start": 27.8275,
      "duration": 0.0983,
      "velocity": 95,
      "chip": "ym2612"
    },
    {
      "channel": 2,
      "note": 93,
      "start": 27.8732,
      "duration": 0.0505,
      "velocity": 119,
      "chip": "ym2612"
    },
    {
      "channel": 1,
      "note": 71,
      "start": 27.9234,
      "duration": 0.0999,
      "velocity": 73,
      "chip": "ym2612"
    },
    {
      "channel": 2,
      "note": 93,
      "start": 27.9236,
      "duration": 0.001,
      "velocity": 119,
      "chip": "ym2612"
    },
    {
      "channel": 2,
      "note": 93,
      "start": 27.9246,
      "duration": 0.0155,
      "velocity": 119,
      "chip": "ym2612"
    },
    {
      "channel": 3,
      "note": 78,
      "start": 27.9257,
      "duration": 0.101,
      "velocity": 95,
      "chip": "ym2612"
    },
    {
      "channel": 4,
      "note": 75,
      "start": 27.9263,
      "duration": 0.101,
      "velocity": 95,
      "chip": "ym2612"
    },
    {
      "channel": 2,
      "note": 93,
      "start": 27.9401,
      "duration": 0.0331,
      "velocity": 119,
      "chip": "ym2612"
    },
    {
      "channel": 0,
      "note": 83,
      "start": 28.0232,
      "duration": 0.3994,
      "velocity": 100,
      "chip": "ym2612"
    },
    {
      "channel": 1,
      "note": 71,
      "start": 28.0238,
      "duration": 0.1993,
      "velocity": 73,
      "chip": "ym2612"
    },
    {
      "channel": 2,
      "note": 93,
      "start": 28.025,
      "duration": 0.0001,
      "velocity": 119,
      "chip": "ym2612"
    },
    {
      "channel": 2,
      "note": 93,
      "start": 28.0251,
      "duration": 0.0009,
      "velocity": 119,
      "chip": "ym2612"
    },
    {
      "channel": 2,
      "note": 93,
      "start": 28.026,
      "duration": 0.0472,
      "velocity": 119,
      "chip": "ym2612"
    },
    {
      "channel": 3,
      "note": 78,
      "start": 28.0271,
      "duration": 0.7997,
      "velocity": 95,
      "chip": "ym2612"
    },
    {
      "channel": 4,
      "note": 75,
      "start": 28.0276,
      "duration": 0.7997,
      "velocity": 95,
      "chip": "ym2612"
    },
    {
      "channel": 2,
      "note": 93,
      "start": 28.0732,
      "duration": 0.0667,
      "velocity": 119,
      "chip": "ym2612"
    },
    {
      "channel": 5,
      "note": 83,
      "start": 28.1243,
      "duration": 0.3998,
      "velocity": 100,
      "chip": "ym2612"
    },
    {
      "channel": 1,
      "note": 71,
      "start": 28.2234,
      "duration": 0.1999,
      "velocity": 73,
      "chip": "ym2612"
    },
    {
      "channel": 2,
      "note": 93,
      "start": 28.2246,
      "duration": 0.0485,
      "velocity": 119,
      "chip": "ym2612"
    },
    {
      "channel": 0,
      "note": 90,
      "start": 28.4232,
      "duration": 0.3994,
      "velocity": 100,
      "chip": "ym2612"
    },
    {
      "channel": 1,
      "note": 71,
      "start": 28.4238,
      "duration": 0.1993,
      "velocity": 73,
      "chip": "ym2612"
    },
    {
      "channel": 2,
      "note": 93,
      "start": 28.425,
      "duration": 0.0001,
      "velocity": 122,
      "chip": "ym2612"
    },
    {
      "channel": 2,
      "note": 93,
      "start": 28.4251,
      "duration": 0.0009,
      "velocity": 122,
      "chip": "ym2612"
    },
    {
      "channel": 2,
      "note": 93,
      "start": 28.426,
      "duration": 0.1139,
      "velocity": 122,
      "chip": "ym2612"
    },
    {
      "channel": 5,
      "note": 90,
      "start": 28.5245,
      "duration": 0.3993,
      "velocity": 100,
      "chip": "ym2612"
    },
    {
      "channel": 2,
      "note": 93,
      "start": 28.5398,
      "duration": 0.0001,
      "velocity": 122,
      "chip": "ym2612"
    },
    {
      "channel": 1,
      "note": 71,
      "start": 28.6234,
      "duration": 0.1999,
      "velocity": 73,
      "chip": "ym2612"
    },
    {
      "channel": 2,
      "note": 93,
      "start": 28.6246,
      "duration": 0.0485,
      "velocity": 119,
      "chip": "ym2612"
    },
    {
      "channel": 0,
      "note": 88,
      "start": 28.8232,
      "duration": 0.1994,
      "velocity": 100,
      "chip": "ym2612"
    },
    {
      "channel": 1,
      "note": 71,
      "start": 28.8238,
      "duration": 0.1996,
      "velocity": 73,
      "chip": "ym2612"
    },
    {
      "channel": 2,
      "note": 93,
      "start": 28.8251,
      "duration": 0.0,
      "velocity": 119,
      "chip": "ym2612"
    },
    {
      "channel": 2,
      "note": 93,
      "start": 28.8251,
      "duration": 0.001,
      "velocity": 119,
      "chip": "ym2612"
    },
    {
      "channel": 2,
      "note": 93,
      "start": 28.8261,
      "duration": 0.0471,
      "velocity": 119,
      "chip": "ym2612"
    },
    {
      "channel": 3,
      "note": 78,
      "start": 28.8272,
      "duration": 0.1983,
      "velocity": 95,
      "chip": "ym2612"
    },
    {
      "channel": 4,
      "note": 75,
      "start": 28.8278,
      "duration": 0.1982,
      "velocity": 95,
      "chip": "ym2612"
    },
    {
      "channel": 2,
      "note": 93,
      "start": 28.8732,
      "duration": 0.0667,
      "velocity": 119,
      "chip": "ym2612"
    },
    {
      "channel": 5,
      "note": 88,
      "start": 28.9243,
      "duration": 0.1992,
      "velocity": 100,
      "chip": "ym2612"
    },
    {
      "channel": 0,
      "note": 87,
      "start": 29.0232,
      "duration": 0.3994,
      "velocity": 100,
      "chip": "ym2612"
    },
    {
      "channel": 1,
      "note": 71,
      "start": 29.0238,
      "duration": 0.1993,
      "velocity": 73,
      "chip": "ym2612"
    },
    {
      "channel": 2,
      "note": 93,
      "start": 29.025,
      "duration": 0.0482,
      "velocity": 119,
      "chip": "ym2612"
    },
    {
      "channel": 5,
      "note": 87,
      "start": 29.1239,
      "duration": 0.4021,
      "velocity": 100,
      "chip": "ym2612"
    },
    {
      "channel": 1,
      "note": 71,
      "start": 29.2234,
      "duration": 0.1999,
      "velocity": 73,
      "chip": "ym2612"
    },
    {
      "channel": 2,
      "note": 93,
      "start": 29.2246,
      "duration": 0.0001,
      "velocity": 122,
      "chip": "ym2612"
    },
    {
      "channel": 2,
      "note": 93,
      "start": 29.2247,
      "duration": 0.001,
      "velocity": 122,
      "chip": "ym2612"
    },
    {
      "channel": 2,
      "note": 93,
      "start": 29.2257,
      "duration": 0.1142,
      "velocity": 122,
      "chip": "ym2612"
    },
    {
      "channel": 2,
      "note": 93,
      "start": 29.3398,
      "duration": 0.0001,
      "velocity": 122,
      "chip": "ym2612"
    },
    {
      "channel": 0,
      "note": 85,
      "start": 29.4232,
      "duration": 0.5994,
      "velocity": 100,
      "chip": "ym2612"
    },
    {
      "channel": 1,
      "note": 71,
      "start": 29.4238,
      "duration": 0.1993,
      "velocity": 73,
      "chip": "ym2612"
    },
    {
      "channel": 2,
      "note": 93,
      "start": 29.425,
      "duration": 0.0001,
      "velocity": 119,
      "chip": "ym2612"
    },
    {
      "channel": 2,
      "note": 93,
      "start": 29.4251,
      "duration": 0.0009,
      "velocity": 119,
      "chip": "ym2612"
    },
    {
      "channel": 2,
      "note": 93,
      "start": 29.426,
      "duration": 0.0472,
      "velocity": 119,
      "chip": "ym2612"
    },
    {
      "channel": 3,
      "note": 78,
      "start": 29.4272,
      "duration": 0.0978,
      "velocity": 95,
      "chip": "ym2612"
    },
    {
      "channel": 4,
      "note": 75,
      "start": 29.4278,
      "duration": 0.0976,
      "velocity": 95,
      "chip": "ym2612"
    },
    {
      "channel": 2,
      "note": 93,
      "start": 29.4732,
      "duration": 0.0501,
      "velocity": 119,
      "chip": "ym2612"
    },
    {
      "channel": 2,
      "note": 93,
      "start": 29.5232,
      "duration": 0.001,
      "velocity": 119,
      "chip": "ym2612"
    },
    {
      "channel": 2,
      "note": 93,
      "start": 29.5242,
      "duration": 0.0159,
      "velocity": 119,
      "chip": "ym2612"
    },
    {
      "channel": 3,
      "note": 78,
      "start": 29.5254,
      "duration": 0.101,
      "velocity": 95,
      "chip": "ym2612"
    },
    {
      "channel": 4,
      "note": 75,
      "start": 29.5259,
      "duration": 0.101,
      "velocity": 95,
      "chip": "ym2612"
    },
    {
      "channel": 5,
      "note": 85,
      "start": 29.5265,
      "duration": 0.5975,
      "velocity": 100,
      "chip": "ym2612"
    },
    {
      "channel": 2,
      "note": 93,
      "start": 29.5401,
      "duration": 0.0331,
      "velocity": 119,
      "chip": "ym2612"
    },
    {
      "channel": 1,
      "note": 71,
      "start": 29.6234,
      "duration": 0.1996,
      "velocity": 73,
      "chip": "ym2612"
    },
    {
      "channel": 2,
      "note": 93,
      "start": 29.6246,
      "duration": 0.0001,
      "velocity": 119,
      "chip": "ym2612"
    },
    {
      "channel": 2,
      "note": 93,
      "start": 29.6247,
      "duration": 0.001,
      "velocity": 119,
      "chip": "ym2612"
    },
    {
      "channel": 2,
      "note": 93,
      "start": 29.6257,
      "duration": 0.0475,
      "velocity": 119,
      "chip": "ym2612"
    },
    {
      "channel": 3,
      "note": 78,
      "start": 29.6268,
      "duration": 0.8002,
      "velocity": 95,
      "chip": "ym2612"
    },
    {
      "channel": 4,
      "note": 75,
      "start": 29.6273,
      "duration": 0.8002,
      "velocity": 95,
      "chip": "ym2612"
    },
    {
      "channel": 2,
      "note": 93,
      "start": 29.6732,
      "duration": 0.0667,
      "velocity": 119,
      "chip": "ym2612"
    },
    {
      "channel": 1,
      "note": 71,
      "start": 29.8234,
      "duration": 0.1999,
      "velocity": 73,
      "chip": "ym2612"
    },
    {
      "channel": 2,
      "note": 93,
      "start": 29.8246,
      "duration": 0.0485,
      "velocity": 119,
      "chip": "ym2612"
    },
    {
      "channel": 0,
      "note": 87,
      "start": 30.0232,
      "duration": 0.1994,
      "velocity": 100,
      "chip": "ym2612"
    },
    {
      "channel": 1,
      "note": 71,
      "start": 30.0238,
      "duration": 0.1996,
      "velocity": 73,
      "chip": "ym2612"
    },
    {
      "channel": 2,
      "note": 93,
      "start": 30.025,
      "duration": 0.0001,
      "velocity": 122,
      "chip": "ym2612"
    },
    {
      "channel": 2,
      "note": 93,
      "start": 30.0251,
      "duration": 0.0009,
      "velocity": 122,
      "chip": "ym2612"
    },
    {
      "channel": 2,
      "note": 93,
      "start": 30.026,
      "duration": 0.1139,
      "velocity": 122,
      "chip": "ym2612"
    },
    {
      "channel": 5,
      "note": 87,
      "start": 30.1245,
      "duration": 0.199,
      "velocity": 100,
      "chip": "ym2612"
    },
    {
      "channel": 2,
      "note": 93,
      "start": 30.1398,
      "duration": 0.0001,
      "velocity": 122,
      "chip": "ym2612"
    },
    {
      "channel": 0,
      "note": 85,
      "start": 30.2232,
      "duration": 0.1994,
      "velocity": 100,
      "chip": "ym2612"
    },
    {
      "channel": 1,
      "note": 66,
      "start": 30.2238,
      "duration": 0.1996,
      "velocity": 73,
      "chip": "ym2612"
    },
    {
      "channel": 2,
      "note": 93,
      "start": 30.225,
      "duration": 0.0481,
      "velocity": 119,
      "chip": "ym2612"
    },
    {
      "channel": 5,
      "note": 85,
      "start": 30.324,
      "duration": 0.1998,
      "velocity": 100,
      "chip": "ym2612"
    },
    {
      "channel": 0,
      "note": 83,
      "start": 30.4232,
      "duration": 0.1994,
      "velocity": 100,
      "chip": "ym2612"
    },
    {
      "channel": 1,
      "note": 64,
      "start": 30.4239,
      "duration": 0.1994,
      "velocity": 73,
      "chip": "ym2612"
    },
    {
      "channel": 2,
      "note": 93,
      "start": 30.4252,
      "duration": 0.0001,
      "velocity": 119,
      "chip": "ym2612"
    },
    {
      "channel": 2,
      "note": 93,
      "start": 30.4254,
      "duration": 0.0009,
      "velocity": 119,
      "chip": "ym2612"
    },
    {
      "channel": 2,
      "note": 93,
      "start": 30.4262,
      "duration": 0.0469,
      "velocity": 119,
      "chip": "ym2612"
    },
    {
      "channel": 3,
      "note": 83,
      "start": 30.4274,
      "duration": 0.1981,
      "velocity": 95,
      "chip": "ym2612"
    },
    {
      "channel": 4,
      "note": 80,
      "start": 30.428,
      "duration": 0.198,
      "velocity": 95,
      "chip": "ym2612"
    },
    {
      "channel": 2,
      "note": 93,
      "start": 30.4732,
      "duration": 0.0667,
      "velocity": 119,
      "chip": "ym2612"
    },
    {
      "channel": 5,
      "note": 83,
      "start": 30.5243,
      "duration": 0.1992,
      "velocity": 100,
      "chip": "ym2612"
    },
    {
      "channel": 0,
      "note": 85,
      "start": 30.6232,
      "duration": 0.1994,
      "velocity": 100,
      "chip": "ym2612"
    },
    {
      "channel": 1,
      "note": 64,
      "start": 30.6238,
      "duration": 0.1996,
      "velocity": 73,
      "chip": "ym2612"
    },
    {
      "channel": 2,
      "note": 93,
      "start": 30.625,
      "duration": 0.0481,
      "velocity": 119,
      "chip": "ym2612"
    },
    {
      "channel": 5,
      "note": 85,
      "start": 30.7239,
      "duration": 0.2,
      "velocity": 100,
      "chip": "ym2612"
    },
    {
      "channel": 0,
      "note": 83,
      "start": 30.8232,
      "duration": 0.1994,
      "velocity": 100,
      "chip": "ym2612"
    },
    {
      "channel": 1,
      "note": 64,
      "start": 30.8238,
      "duration": 0.1996,
      "velocity": 73,
      "chip": "ym2612"
    },
    {
      "channel": 2,
      "note": 93,
      "start": 30.825,
      "duration": 0.0001,
      "velocity": 122,
      "chip": "ym2612"
    },
    {
      "channel": 2,
      "note": 93,
      "start": 30.8251,
      "duration": 0.0009,
      "velocity": 122,
      "chip": "ym2612"
    },
    {
      "channel": 2,
      "note": 93,
      "start": 30.8261,
      "duration": 0.1138,
      "velocity": 122,
      "chip": "ym2612"
    },
    {
      "channel": 5,
      "note": 83,
      "start": 30.9244,
      "duration": 0.2021,
      "velocity": 100,
      "chip": "ym2612"
    },
    {
      "channel": 2,
      "note": 93,
      "start": 30.9398,
      "duration": 0.0001,
      "velocity": 122,
      "chip": "ym2612"
    },
    {
      "channel": 0,
      "note": 80,
      "start": 31.0232,
      "duration": 0.4663,
      "velocity": 100,
      "chip": "ym2612"
    },
    {
      "channel": 1,
      "note": 64,
      "start": 31.0239,
      "duration": 0.0992,
      "velocity": 73,
      "chip": "ym2612"
    },
    {
      "channel": 2,
      "note": 93,
      "start": 31.025,
      "duration": 0.0001,
      "velocity": 119,
      "chip": "ym2612"
    },
    {
      "channel": 2,
      "note": 93,
      "start": 31.0251,
      "duration": 0.001,
      "velocity": 119,
      "chip": "ym2612"
    },
    {
      "channel": 2,
      "note": 93,
      "start": 31.0261,
      "duration": 0.0471,
      "velocity": 119,
      "chip": "ym2612"
    },
    {
      "channel": 3,
      "note": 83,
      "start": 31.0273,
      "duration": 0.0982,
      "velocity": 95,
      "chip": "ym2612"
    },
    {
      "channel": 4,
      "note": 80,
      "start": 31.0279,
      "duration": 0.098,
      "velocity": 95,
      "chip": "ym2612"
    },
    {
      "channel": 2,
      "note": 93,
      "start": 31.0732,
      "duration": 0.0505,
      "velocity": 119,
      "chip": "ym2612"
    },
    {
      "channel": 1,
      "note": 64,
      "start": 31.1235,
      "duration": 0.0996,
      "velocity": 73,
      "chip": "ym2612"
    },
    {
      "channel": 2,
      "note": 93,
      "start": 31.1237,
      "duration": 0.001,
      "velocity": 119,
      "chip": "ym2612"
    },
    {
      "channel": 2,
      "note": 93,
      "start": 31.1247,
      "duration": 0.0154,
      "velocity": 119,
      "chip": "ym2612"
    },
    {
      "channel": 3,
      "note": 83,
      "start": 31.1258,
      "duration": 0.1006,
      "velocity": 95,
      "chip": "ym2612"
    },
    {
      "channel": 4,
      "note": 80,
      "start": 31.1264,
      "duration": 0.1006,
      "velocity": 95,
      "chip": "ym2612"
    },
    {
      "channel": 5,
      "note": 80,
      "start": 31.1269,
      "duration": 0.4634,
      "velocity": 100,
      "chip": "ym2612"
    },
    {
      "channel": 2,
      "note": 93,
      "start": 31.1401,
      "duration": 0.0331,
      "velocity": 119,
      "chip": "ym2612"
    },
    {
      "channel": 1,
      "note": 64,
      "start": 31.2235,
      "duration": 0.1996,
      "velocity": 73,
      "chip": "ym2612"
    },
    {
      "channel": 2,
      "note": 93,
      "start": 31.2247,
      "duration": 0.0001,
      "velocity": 119,
      "chip": "ym2612"
    },
    {
      "channel": 2,
      "note": 93,
      "start": 31.2248,
      "duration": 0.001,
      "velocity": 119,
      "chip": "ym2612"
    },
    {
      "channel": 2,
      "note": 93,
      "start": 31.2257,
      "duration": 0.0474,
      "velocity": 119,
      "chip": "ym2612"
    },
    {
      "channel": 3,
      "note": 83,
      "start": 31.2268,
      "duration": 0.7985,
      "velocity": 95,
      "chip": "ym2612"
    },
    {
      "channel": 4,
      "note": 80,
      "start": 31.2274,
      "duration": 0.7985,
      "velocity": 95,
      "chip": "ym2612"
    },
    {
      "channel": 2,
      "note": 93,
      "start": 31.2732,
      "duration": 0.0667,
      "velocity": 119,
      "chip": "ym2612"
    },
    {
      "channel": 1,
      "note": 64,
      "start": 31.4234,
      "duration": 0.1996,
      "velocity": 73,
      "chip": "ym2612"
    },
    {
      "channel": 2,
      "note": 93,
      "start": 31.4246,
      "duration": 0.0485,
      "velocity": 119,
      "chip": "ym2612"
    },
    {
      "channel": 0,
      "note": 80,
      "start": 31.4897,
      "duration": 2.133,
      "velocity": 100,
      "chip": "ym2612"
    },
    {
      "channel": 5,
      "note": 80,
      "start": 31.5904,
      "duration": 2.1334,
      "velocity": 100,
      "chip": "ym2612"
    },
    {
      "channel": 1,
      "note": 64,
      "start": 31.6234,
      "duration": 0.1996,
      "velocity": 73,
      "chip": "ym2612"
    },
    {
      "channel": 2,
      "note": 93,
      "start": 31.6246,
      "duration": 0.0001,
      "velocity": 122,
      "chip": "ym2612"
    },
    {
      "channel": 2,
      "note": 93,
      "start": 31.6247,
      "duration": 0.001,
      "velocity": 122,
      "chip": "ym2612"
    },
    {
      "channel": 2,
      "note": 93,
      "start": 31.6257,
      "duration": 0.1142,
      "velocity": 122,
      "chip": "ym2612"
    },
    {
      "channel": 2,
      "note": 93,
      "start": 31.7398,
      "duration": 0.0001,
      "velocity": 122,
      "chip": "ym2612"
    },
    {
      "channel": 1,
      "note": 64,
      "start": 31.8234,
      "duration": 0.1996,
      "velocity": 73,
      "chip": "ym2612"
    },
    {
      "channel": 2,
      "note": 93,
      "start": 31.8246,
      "duration": 0.0485,
      "velocity": 119,
      "chip": "ym2612"
    },
    {
      "channel": 1,
      "note": 64,
      "start": 32.0234,
      "duration": 0.1996,
      "velocity": 73,
      "chip": "ym2612"
    },
    {
      "channel": 2,
      "note": 93,
      "start": 32.0248,
      "duration": 0.0483,
      "velocity": 119,
      "chip": "ym2612"
    },
    {
      "channel": 3,
      "note": 83,
      "start": 32.0257,
      "duration": 0.3994,
      "velocity": 95,
      "chip": "ym2612"
    },
    {
      "channel": 4,
      "note": 80,
      "start": 32.0262,
      "duration": 0.3994,
      "velocity": 95,
      "chip": "ym2612"
    },
    {
      "channel": 1,
      "note": 64,
      "start": 32.2234,
      "duration": 0.1996,
      "velocity": 73,
      "chip": "ym2612"
    },
    {
      "channel": 2,
      "note": 93,
      "start": 32.2246,
      "duration": 0.0001,
      "velocity": 119,
      "chip": "ym2612"
    },
    {
      "channel": 2,
      "note": 93,
      "start": 32.2248,
      "duration": 0.0009,
      "velocity": 119,
      "chip": "ym2612"
    },
    {
      "channel": 2,
      "note": 93,
      "start": 32.2257,
      "duration": 0.0476,
      "velocity": 119,
      "chip": "ym2612"
    },
    {
      "channel": 2,
      "note": 93,
      "start": 32.2732,
      "duration": 0.0667,
      "velocity": 119,
      "chip": "ym2612"
    },
    {
      "channel": 1,
      "note": 64,
      "start": 32.4234,
      "duration": 0.1996,
      "velocity": 73,
      "chip": "ym2612"
    },
    {
      "channel": 2,
      "note": 93,
      "start": 32.4246,
      "duration": 0.1153,
      "velocity": 122,
      "chip": "ym2612"
    },
    {
      "channel": 3,
      "note": 83,
      "start": 32.4255,
      "duration": 0.3992,
      "velocity": 95,
      "chip": "ym2612"
    },
    {
      "channel": 4,
      "note": 80,
      "start": 32.4261,
      "duration": 0.3993,
      "velocity": 95,
      "chip": "ym2612"
    },
    {
      "channel": 1,
      "note": 63,
      "start": 32.6236,
      "duration": 0.3995,
      "velocity": 73,
      "chip": "ym2612"
    },
    {
      "channel": 2,
      "note": 93,
      "start": 32.6247,
      "duration": 0.0485,
      "velocity": 119,
      "chip": "ym2612"
    },
    {
      "channel": 2,
      "note": 93,
      "start": 32.8243,
      "duration": 0.049,
      "velocity": 119,
      "chip": "ym2612"
    },
    {
      "channel": 3,
      "note": 82,
      "start": 32.8252,
      "duration": 0.3999,
      "velocity": 95,
      "chip": "ym2612"
    },
    {
      "channel": 4,
      "note": 79,
      "start": 32.8258,
      "duration": 0.4,
      "velocity": 95,
      "chip": "ym2612"
    },
    {
      "channel": 1,
      "note": 64,
      "start": 33.0236,
      "duration": 0.1995,
      "velocity": 73,
      "chip": "ym2612"
    },
    {
      "channel": 2,
      "note": 93,
      "start": 33.0247,
      "duration": 0.0001,
      "velocity": 119,
      "chip": "ym2612"
    },
    {
      "channel": 2,
      "note": 93,
      "start": 33.0248,
      "duration": 0.001,
      "velocity": 119,
      "chip": "ym2612"
    },
    {
      "channel": 2,
      "note": 93,
      "start": 33.0258,
      "duration": 0.0475,
      "velocity": 119,
      "chip": "ym2612"
    },
    {
      "channel": 2,
      "note": 93,
      "start": 33.0732,
      "duration": 0.0667,
      "velocity": 119,
      "chip": "ym2612"
    },
    {
      "channel": 1,
      "note": 64,
      "start": 33.2235,
      "duration": 0.1996,
      "velocity": 73,
      "chip": "ym2612"
    },
    {
      "channel": 2,
      "note": 93,
      "start": 33.2246,
      "duration": 0.1153,
      "velocity": 122,
      "chip": "ym2612"
    },
    {
      "channel": 3,
      "note": 83,
      "start": 33.2256,
      "duration": 0.4014,
      "velocity": 95,
      "chip": "ym2612"
    },
    {
      "channel": 4,
      "note": 80,
      "start": 33.2262,
      "duration": 0.4015,
      "velocity": 95,
      "chip": "ym2612"
    },
    {
      "channel": 1,
      "note": 64,
      "start": 33.4235,
      "duration": 0.1999,
      "velocity": 73,
      "chip": "ym2612"
    },
    {
      "channel": 2,
      "note": 93,
      "start": 33.4246,
      "duration": 0.0486,
      "velocity": 119,
      "chip": "ym2612"
    },
    {
      "channel": 0,
      "note": 83,
      "start": 33.6232,
      "duration": 0.1994,
      "velocity": 100,
      "chip": "ym2612"
    },
    {
      "channel": 1,
      "note": 66,
      "start": 33.6239,
      "duration": 0.1995,
      "velocity": 73,
      "chip": "ym2612"
    },
    {
      "channel": 2,
      "note": 93,
      "start": 33.6252,
      "duration": 0.0001,
      "velocity": 119,
      "chip": "ym2612"
    },
    {
      "channel": 2,
      "note": 93,
      "start": 33.6254,
      "duration": 0.0009,
      "velocity": 119,
      "chip": "ym2612"
    },
    {
      "channel": 2,
      "note": 93,
      "start": 33.6262,
      "duration": 0.0469,
      "velocity": 119,
      "chip": "ym2612"
    },
    {
      "channel": 3,
      "note": 85,
      "start": 33.6275,
      "duration": 0.198,
      "velocity": 95,
      "chip": "ym2612"
    },
    {
      "channel": 4,
      "note": 82,
      "start": 33.6282,
      "duration": 0.1978,
      "velocity": 95,
      "chip": "ym2612"
    },
    {
      "channel": 2,
      "note": 93,
      "start": 33.6732,
      "duration": 0.0667,
      "velocity": 119,
      "chip": "ym2612"
    },
    {
      "channel": 5,
      "note": 83,
      "start": 33.7243,
      "duration": 0.1992,
      "velocity": 100,
      "chip": "ym2612"
    },
    {
      "channel": 0,
      "note": 82,
      "start": 33.8232,
      "duration": 0.3994,
      "velocity": 100,
      "chip": "ym2612"
    },
    {
      "channel": 1,
      "note": 66,
      "start": 33.8239,
      "duration": 0.1992,
      "velocity": 73,
      "chip": "ym2612"
    },
    {
      "channel": 2,
      "note": 93,
      "start": 33.825,
      "duration": 0.0481,
      "velocity": 119,
      "chip": "ym2612"
    },
    {
      "channel": 5,
      "note": 82,
      "start": 33.9239,
      "duration": 0.4025,
      "velocity": 100,
      "chip": "ym2612"
    },
    {
      "channel": 1,
      "note": 66,
      "start": 34.0235,
      "duration": 0.1999,
      "velocity": 73,
      "chip": "ym2612"
    },
    {
      "channel": 2,
      "note": 93,
      "start": 34.0247,
      "duration": 0.0001,
      "velocity": 122,
      "chip": "ym2612"
    },
    {
      "channel": 2,
      "note": 93,
      "start": 34.0248,
      "duration": 0.001,
      "velocity": 122,
      "chip": "ym2612"
    },
    {
      "channel": 2,
      "note": 93,
      "start": 34.0257,
      "duration": 0.1141,
      "velocity": 122,
      "chip": "ym2612"
    },
    {
      "channel": 2,
      "note": 93,
      "start": 34.1398,
      "duration": 0.0001,
      "velocity": 122,
      "chip": "ym2612"
    },
    {
      "channel": 0,
      "note": 78,
      "start": 34.2232,
      "duration": 0.4663,
      "velocity": 100,
      "chip": "ym2612"
    },
    {
      "channel": 1,
      "note": 66,
      "start": 34.2239,
      "duration": 0.0992,
      "velocity": 73,
      "chip": "ym2612"
    },
    {
      "channel": 2,
      "note": 93,
      "start": 34.225,
      "duration": 0.0001,
      "velocity": 119,
      "chip": "ym2612"
    },
    {
      "channel": 2,
      "note": 93,
      "start": 34.2251,
      "duration": 0.001,
      "velocity": 119,
      "chip": "ym2612"
    },
    {
      "channel": 2,
      "note": 93,
      "start": 34.2261,
      "duration": 0.0471,
      "velocity": 119,
      "chip": "ym2612"
    },
    {
      "channel": 3,
      "note": 85,
      "start": 34.2273,
      "duration": 0.0981,
      "velocity": 95,
      "chip": "ym2612"
    },
    {
      "channel": 4,
      "note": 82,
      "start": 34.2279,
      "duration": 0.098,
      "velocity": 95,
      "chip": "ym2612"
    },
    {
      "channel": 2,
      "note": 93,
      "start": 34.2732,
      "duration": 0.0505,
      "velocity": 119,
      "chip": "ym2612"
    },
    {
      "channel": 1,
      "note": 66,
      "start": 34.3234,
      "duration": 0.0996,
      "velocity": 73,
      "chip": "ym2612"
    },
    {
      "channel": 2,
      "note": 93,
      "start": 34.3236,
      "duration": 0.001,
      "velocity": 119,
      "chip": "ym2612"
    },
    {
      "channel": 2,
      "note": 93,
      "start": 34.3246,
      "duration": 0.0155,
      "velocity": 119,
      "chip": "ym2612"
    },
    {
      "channel": 3,
      "note": 85,
      "start": 34.3257,
      "duration": 0.1006,
      "velocity": 95,
      "chip": "ym2612"
    },
    {
      "channel": 4,
      "note": 82,
      "start": 34.3263,
      "duration": 0.1006,
      "velocity": 95,
      "chip": "ym2612"
    },
    {
      "channel": 5,
      "note": 78,
      "start": 34.3269,
      "duration": 0.4635,
      "velocity": 100,
      "chip": "ym2612"
    },
    {
      "channel": 2,
      "note": 93,
      "start": 34.3401,
      "duration": 0.0331,
      "velocity": 119,
      "chip": "ym2612"
    },
    {
      "channel": 1,
      "note": 66,
      "start": 34.4234,
      "duration": 0.1996,
      "velocity": 73,
      "chip": "ym2612"
    },
    {
      "channel": 2,
      "note": 93,
      "start": 34.4246,
      "duration": 0.0001,
      "velocity": 119,
      "chip": "ym2612"
    },
    {
      "channel": 2,
      "note": 93,
      "start": 34.4247,
      "duration": 0.001,
      "velocity": 119,
      "chip": "ym2612"
    },
    {
      "channel": 2,
      "note": 93,
      "start": 34.4257,
      "duration": 0.0475,
      "velocity": 119,
      "chip": "ym2612"
    },
    {
      "channel": 3,
      "note": 85,
      "start": 34.4268,
      "duration": 0.9984,
      "velocity": 95,
      "chip": "ym2612"
    },
    {
      "channel": 4,
      "note": 82,
      "start": 34.4273,
      "duration": 0.9983,
      "velocity": 95,
      "chip": "ym2612"
    },
    {
      "channel": 2,
      "note": 93,
      "start": 34.4732,
      "duration": 0.0667,
      "velocity": 119,
      "chip": "ym2612"
    },
    {
      "channel": 1,
      "note": 66,
      "start": 34.6234,
      "duration": 0.1996,
      "velocity": 73,
      "chip": "ym2612"
    },
    {
      "channel": 2,
      "note": 93,
      "start": 34.6246,
      "duration": 0.0485,
      "velocity": 119,
      "chip": "ym2612"
    },
    {
      "channel": 0,
      "note": 78,
      "start": 34.6897,
      "duration": 2.133,
      "velocity": 100,
      "chip": "ym2612"
    },
    {
      "channel": 5,
      "note": 78,
      "start": 34.7904,
      "duration": 2.1334,
      "velocity": 100,
      "chip": "ym2612"
    },
    {
      "channel": 1,
      "note": 66,
      "start": 34.8234,
      "duration": 0.1996,
      "velocity": 73,
      "chip": "ym2612"
    },
    {
      "channel": 2,
      "note": 93,
      "start": 34.8246,
      "duration": 0.0001,
      "velocity": 122,
      "chip": "ym2612"
    },
    {
      "channel": 2,
      "note": 93,
      "start": 34.8247,
      "duration": 0.001,
      "velocity": 122,
      "chip": "ym2612"
    },
    {
      "channel": 2,
      "note": 93,
      "start": 34.8257,
      "duration": 0.1142,
      "velocity": 122,
      "chip": "ym2612"
    },
    {
      "channel": 2,
      "note": 93,
      "start": 34.9398,
      "duration": 0.0001,
      "velocity": 122,
      "chip": "ym2612"
    },
    {
      "channel": 1,
      "note": 66,
      "start": 35.0234,
      "duration": 0.1996,
      "velocity": 73,
      "chip": "ym2612"
    },
    {
      "channel": 2,
      "note": 93,
      "start": 35.0246,
      "duration": 0.0485,
      "velocity": 119,
      "chip": "ym2612"
    },
    {
      "channel": 1,
      "note": 66,
      "start": 35.2234,
      "duration": 0.1996,
      "velocity": 73,
      "chip": "ym2612"
    },
    {
      "channel": 2,
      "note": 93,
      "start": 35.2247,
      "duration": 0.0001,
      "velocity": 119,
      "chip": "ym2612"
    },
    {
      "channel": 2,
      "note": 93,
      "start": 35.2248,
      "duration": 0.0009,
      "velocity": 119,
      "chip": "ym2612"
    },
    {
      "channel": 2,
      "note": 93,
      "start": 35.2257,
      "duration": 0.0474,
      "velocity": 119,
      "chip": "ym2612"
    },
    {
      "channel": 2,
      "note": 93,
      "start": 35.2732,
      "duration": 0.0667,
      "velocity": 119,
      "chip": "ym2612"
    },
    {
      "channel": 1,
      "note": 66,
      "start": 35.4234,
      "duration": 0.1996,
      "velocity": 73,
      "chip": "ym2612"
    },
    {
      "channel": 2,
      "note": 93,
      "start": 35.4246,
      "duration": 0.0486,
      "velocity": 119,
      "chip": "ym2612"
    },
    {
      "channel": 3,
      "note": 85,
      "start": 35.4255,
      "duration": 0.2008,
      "velocity": 95,
      "chip": "ym2612"
    },
    {
      "channel": 4,
      "note": 82,
      "start": 35.4261,
      "duration": 0.2008,
      "velocity": 95,
      "chip": "ym2612"
    },
    {
      "channel": 1,
      "note": 66,
      "start": 35.6234,
      "duration": 0.1996,
      "velocity": 73,
      "chip": "ym2612"
    },
    {
      "channel": 2,
      "note": 93,
      "start": 35.6246,
      "duration": 0.0001,
      "velocity": 122,
      "chip": "ym2612"
    },
    {
      "channel": 2,
      "note": 93,
      "start": 35.6248,
      "duration": 0.0009,
      "velocity": 122,
      "chip": "ym2612"
    },
    {
      "channel": 2,
      "note": 93,
      "start": 35.6257,
      "duration": 0.1142,
      "velocity": 122,
      "chip": "ym2612"
    },
    {
      "channel": 3,
      "note": 85,
      "start": 35.6268,
      "duration": 0.3997,
      "velocity": 95,
      "chip": "ym2612"
    },
    {
      "channel": 4,
      "note": 82,
      "start": 35.6273,
      "duration": 0.3997,
      "velocity": 95,
      "chip": "ym2612"
    },
    {
      "channel": 2,
      "note": 93,
      "start": 35.7399,
      "duration": 0.0001,
      "velocity": 122,
      "chip": "ym2612"
    },
    {
      "channel": 1,
      "note": 66,
      "start": 35.8234,
      "duration": 0.1996,
      "velocity": 73,
      "chip": "ym2612"
    },
    {
      "channel": 2,
      "note": 93,
      "start": 35.8246,
      "duration": 0.0001,
      "velocity": 119,
      "chip": "ym2612"
    },
    {
      "channel": 2,
      "note": 93,
      "start": 35.8248,
      "duration": 0.0009,
      "velocity": 119,
      "chip": "ym2612"
    },
    {
      "channel": 2,
      "note": 93,
      "start": 35.8257,
      "duration": 0.0476,
      "velocity": 119,
      "chip": "ym2612"
    },
    {
      "channel": 2,
      "note": 93,
      "start": 35.8732,
      "duration": 0.05,
      "velocity": 119,
      "chip": "ym2612"
    },
    {
      "channel": 2,
      "note": 93,
      "start": 35.9232,
      "duration": 0.001,
      "velocity": 119,
      "chip": "ym2612"
    },
    {
      "channel": 2,
      "note": 93,
      "start": 35.9243,
      "duration": 0.0159,
      "velocity": 119,
      "chip": "ym2612"
    },
    {
      "channel": 2,
      "note": 93,
      "start": 35.9401,
      "duration": 0.0331,
      "velocity": 119,
      "chip": "ym2612"
    },
    {
      "channel": 1,
      "note": 66,
      "start": 36.0235,
      "duration": 0.1996,
      "velocity": 73,
      "chip": "ym2612"
    },
    {
      "channel": 2,
      "note": 93,
      "start": 36.0246,
      "duration": 0.0001,
      "velocity": 119,
      "chip": "ym2612"
    },
    {
      "channel": 2,
      "note": 93,
      "start": 36.0248,
      "duration": 0.0009,
      "velocity": 119,
      "chip": "ym2612"
    },
    {
      "channel": 2,
      "note": 93,
      "start": 36.0257,
      "duration": 0.0476,
      "velocity": 119,
      "chip": "ym2612"
    },
    {
      "channel": 3,
      "note": 83,
      "start": 36.0269,
      "duration": 0.3996,
      "velocity": 95,
      "chip": "ym2612"
    },
    {
      "channel": 4,
      "note": 80,
      "start": 36.0274,
      "duration": 0.3996,
      "velocity": 95,
      "chip": "ym2612"
    },
    {
      "channel": 2,
      "note": 93,
      "start": 36.0732,
      "duration": 0.0667,
      "velocity": 119,
      "chip": "ym2612"
    },
    {
      "channel": 1,
      "note": 66,
      "start": 36.2235,
      "duration": 0.1996,
      "velocity": 73,
      "chip": "ym2612"
    },
    {
      "channel": 2,
      "note": 93,
      "start": 36.2246,
      "duration": 0.0486,
      "velocity": 119,
      "chip": "ym2612"
    },
    {
      "channel": 1,
      "note": 64,
      "start": 36.4236,
      "duration": 0.1995,
      "velocity": 73,
      "chip": "ym2612"
    },
    {
      "channel": 2,
      "note": 93,
      "start": 36.4247,
      "duration": 0.0001,
      "velocity": 122,
      "chip": "ym2612"
    },
    {
      "channel": 2,
      "note": 93,
      "start": 36.4248,
      "duration": 0.0009,
      "velocity": 122,
      "chip": "ym2612"
    },
    {
      "channel": 2,
      "note": 93,
      "start": 36.4257,
      "duration": 0.1142,
      "velocity": 122,
      "chip": "ym2612"
    },
    {
      "channel": 3,
      "note": 85,
      "start": 36.4269,
      "duration": 0.4001,
      "velocity": 95,
      "chip": "ym2612"
    },
    {
      "channel": 4,
      "note": 82,
      "start": 36.4275,
      "duration": 0.4001,
      "velocity": 95,
      "chip": "ym2612"
    },
    {
      "channel": 2,
      "note": 93,
      "start": 36.5399,
      "duration": 0.0001,
      "velocity": 122,
      "chip": "ym2612"
    },
    {
      "channel": 1,
      "note": 66,
      "start": 36.6236,
      "duration": 0.1999,
      "velocity": 73,
      "chip": "ym2612"
    },
    {
      "channel": 2,
      "note": 93,
      "start": 36.6247,
      "duration": 0.0485,
      "velocity": 119,
      "chip": "ym2612"
    },
    {
      "channel": 0,
      "note": 85,
      "start": 36.8233,
      "duration": 0.1994,
      "velocity": 100,
      "chip": "ym2612"
    },
    {
      "channel": 1,
      "note": 68,
      "start": 36.824,
      "duration": 0.1994,
      "velocity": 73,
      "chip": "ym2612"
    },
    {
      "channel": 2,
      "note": 93,
      "start": 36.8253,
      "duration": 0.0001,
      "velocity": 119,
      "chip": "ym2612"
    },
    {
      "channel": 2,
      "note": 93,
      "start": 36.8254,
      "duration": 0.0009,
      "velocity": 119,
      "chip": "ym2612"
    },
    {
      "channel": 2,
      "note": 93,
      "start": 36.8263,
      "duration": 0.0469,
      "velocity": 119,
      "chip": "ym2612"
    },
    {
      "channel": 3,
      "note": 87,
      "start": 36.8275,
      "duration": 0.198,
      "velocity": 95,
      "chip": "ym2612"
    },
    {
      "channel": 4,
      "note": 84,
      "start": 36.8281,
      "duration": 0.1979,
      "velocity": 95,
      "chip": "ym2612"
    },
    {
      "channel": 2,
      "note": 93,
      "start": 36.8732,
      "duration": 0.0667,
      "velocity": 119,
      "chip": "ym2612"
    },
    {
      "channel": 5,
      "note": 85,
      "start": 36.9243,
      "duration": 0.1992,
      "velocity": 100,
      "chip": "ym2612"
    },
    {
      "channel": 0,
      "note": 84,
      "start": 37.0232,
      "duration": 0.3994,
      "velocity": 100,
      "chip": "ym2612"
    },
    {
      "channel": 1,
      "note": 68,
      "start": 37.0239,
      "duration": 0.1992,
      "velocity": 73,
      "chip": "ym2612"
    },
    {
      "channel": 2,
      "note": 93,
      "start": 37.025,
      "duration": 0.0481,
      "velocity": 119,
      "chip": "ym2612"
    },
    {
      "channel": 5,
      "note": 84,
      "start": 37.1239,
      "duration": 0.4013,
      "velocity": 100,
      "chip": "ym2612"
    },
    {
      "channel": 1,
      "note": 68,
      "start": 37.2235,
      "duration": 0.1999,
      "velocity": 73,
      "chip": "ym2612"
    },
    {
      "channel": 2,
      "note": 93,
      "start": 37.2247,
      "duration": 0.0001,
      "velocity": 122,
      "chip": "ym2612"
    },
    {
      "channel": 2,
      "note": 93,
      "start": 37.2248,
      "duration": 0.001,
      "velocity": 122,
      "chip": "ym2612"
    },
    {
      "channel": 2,
      "note": 93,
      "start": 37.2257,
      "duration": 0.1141,
      "velocity": 122,
      "chip": "ym2612"
    },
    {
      "channel": 2,
      "note": 93,
      "start": 37.3398,
      "duration": 0.0001,
      "velocity": 122,
      "chip": "ym2612"
    },
    {
      "channel": 0,
      "note": 80,
      "start": 37.4232,
      "duration": 0.4663,
      "velocity": 100,
      "chip": "ym2612"
    },
    {
      "channel": 1,
      "note": 68,
      "start": 37.4239,
      "duration": 0.3992,
      "velocity": 73,
      "chip": "ym2612"
    },
    {
      "channel": 2,
      "note": 93,
      "start": 37.425,
      "duration": 0.0001,
      "velocity": 119,
      "chip": "ym2612"
    },
    {
      "channel": 2,
      "note": 93,
      "start": 37.4251,
      "duration": 0.001,
      "velocity": 119,
      "chip": "ym2612"
    },
    {
      "channel": 2,
      "note": 93,
      "start": 37.4261,
      "duration": 0.0471,
      "velocity": 119,
      "chip": "ym2612"
    },
    {
      "channel": 3,
      "note": 87,
      "start": 37.4273,
      "duration": 1.3979,
      "velocity": 95,
      "chip": "ym2612"
    },
    {
      "channel": 4,
      "note": 84,
      "start": 37.4279,
      "duration": 1.3978,
      "velocity": 95,
      "chip": "ym2612"
    },
    {
      "channel": 2,
      "note": 93,
      "start": 37.4732,
      "duration": 0.0501,
      "velocity": 119,
      "chip": "ym2612"
    },
    {
      "channel": 2,
      "note": 93,
      "start": 37.5232,
      "duration": 0.001,
      "velocity": 119,
      "chip": "ym2612"
    },
    {
      "channel": 2,
      "note": 93,
      "start": 37.5242,
      "duration": 0.0159,
      "velocity": 119,
      "chip": "ym2612"
    },
    {
      "channel": 5,
      "note": 80,
      "start": 37.5257,
      "duration": 0.4647,
      "velocity": 100,
      "chip": "ym2612"
    },
    {
      "channel": 2,
      "note": 93,
      "start": 37.5401,
      "duration": 0.0331,
      "velocity": 119,
      "chip": "ym2612"
    },
    {
      "channel": 2,
      "note": 93,
      "start": 37.6242,
      "duration": 0.0001,
      "velocity": 119,
      "chip": "ym2612"
    },
    {
      "channel": 2,
      "note": 93,
      "start": 37.6243,
      "duration": 0.0009,
      "velocity": 119,
      "chip": "ym2612"
    },
    {
      "channel": 2,
      "note": 93,
      "start": 37.6252,
      "duration": 0.048,
      "velocity": 119,
      "chip": "ym2612"
    },
    {
      "channel": 2,
      "note": 93,
      "start": 37.6732,
      "duration": 0.0667,
      "velocity": 119,
      "chip": "ym2612"
    },
    {
      "channel": 1,
      "note": 68,
      "start": 37.8235,
      "duration": 0.1996,
      "velocity": 73,
      "chip": "ym2612"
    },
    {
      "channel": 2,
      "note": 93,
      "start": 37.8247,
      "duration": 0.0485,
      "velocity": 119,
      "chip": "ym2612"
    },
    {
      "channel": 0,
      "note": 80,
      "start": 37.8897,
      "duration": 2.133,
      "velocity": 100,
      "chip": "ym2612"
    },
    {
      "channel": 5,
      "note": 80,
      "start": 37.9904,
      "duration": 2.1334,
      "velocity": 100,
      "chip": "ym2612"
    },
    {
      "channel": 1,
      "note": 68,
      "start": 38.0234,
      "duration": 0.1996,
      "velocity": 73,
      "chip": "ym2612"
    },
    {
      "channel": 2,
      "note": 93,
      "start": 38.0246,
      "duration": 0.0001,
      "velocity": 122,
      "chip": "ym2612"
    },
    {
      "channel": 2,
      "note": 93,
      "start": 38.0247,
      "duration": 0.001,
      "velocity": 122,
      "chip": "ym2612"
    },
    {
      "channel": 2,
      "note": 93,
      "start": 38.0257,
      "duration": 0.1142,
      "velocity": 122,
      "chip": "ym2612"
    },
    {
      "channel": 2,
      "note": 93,
      "start": 38.1398,
      "duration": 0.0001,
      "velocity": 122,
      "chip": "ym2612"
    },
    {
      "channel": 1,
      "note": 68,
      "start": 38.2234,
      "duration": 0.1996,
      "velocity": 73,
      "chip": "ym2612"
    },
    {
      "channel": 2,
      "note": 93,
      "start": 38.2246,
      "duration": 0.0485,
      "velocity": 119,
      "chip": "ym2612"
    },
    {
      "channel": 1,
      "note": 68,
      "start": 38.4234,
      "duration": 0.3996,
      "velocity": 73,
      "chip": "ym2612"
    },
    {
      "channel": 2,
      "note": 93,
      "start": 38.4248,
      "duration": 0.0483,
      "velocity": 119,
      "chip": "ym2612"
    },
    {
      "channel": 2,
      "note": 93,
      "start": 38.6243,
      "duration": 0.0001,
      "velocity": 119,
      "chip": "ym2612"
    },
    {
      "channel": 2,
      "note": 93,
      "start": 38.6243,
      "duration": 0.001,
      "velocity": 119,
      "chip": "ym2612"
    },
    {
      "channel": 2,
      "note": 93,
      "start": 38.6253,
      "duration": 0.048,
      "velocity": 119,
      "chip": "ym2612"
    },
    {
      "channel": 2,
      "note": 93,
      "start": 38.6732,
      "duration": 0.0667,
      "velocity": 119,
      "chip": "ym2612"
    },
    {
      "channel": 1,
      "note": 68,
      "start": 38.8234,
      "duration": 0.3996,
      "velocity": 73,
      "chip": "ym2612"
    },
    {
      "channel": 2,
      "note": 93,
      "start": 38.8246,
      "duration": 0.1153,
      "velocity": 122,
      "chip": "ym2612"
    },
    {
      "channel": 3,
      "note": 87,
      "start": 38.8255,
      "duration": 0.3997,
      "velocity": 95,
      "chip": "ym2612"
    },
    {
      "channel": 4,
      "note": 84,
      "start": 38.8261,
      "duration": 0.3997,
      "velocity": 95,
      "chip": "ym2612"
    },
    {
      "channel": 2,
      "note": 93,
      "start": 39.0243,
      "duration": 0.049,
      "velocity": 119,
      "chip": "ym2612"
    },
    {
      "channel": 1,
      "note": 66,
      "start": 39.2236,
      "duration": 0.3995,
      "velocity": 73,
      "chip": "ym2612"
    },
    {
      "channel": 2,
      "note": 93,
      "start": 39.2247,
      "duration": 0.0485,
      "velocity": 119,
      "chip": "ym2612"
    },
    {
      "channel": 3,
      "note": 87,
      "start": 39.2256,
      "duration": 0.3996,
      "velocity": 95,
      "chip": "ym2612"
    },
    {
      "channel": 4,
      "note": 84,
      "start": 39.2262,
      "duration": 0.3996,
      "velocity": 95,
      "chip": "ym2612"
    },
    {
      "channel": 2,
      "note": 93,
      "start": 39.4243,
      "duration": 0.0001,
      "velocity": 119,
      "chip": "ym2612"
    },
    {
      "channel": 2,
      "note": 93,
      "start": 39.4244,
      "duration": 0.0009,
      "velocity": 119,
      "chip": "ym2612"
    },
    {
      "channel": 2,
      "note": 93,
      "start": 39.4253,
      "duration": 0.048,
      "velocity": 119,
      "chip": "ym2612"
    },
    {
      "channel": 2,
      "note": 93,
      "start": 39.4732,
      "duration": 0.0667,
      "velocity": 119,
      "chip": "ym2612"
    },
    {
      "channel": 1,
      "note": 68,
      "start": 39.6236,
      "duration": 0.3999,
      "velocity": 73,
      "chip": "ym2612"
    },
    {
      "channel": 2,
      "note": 93,
      "start": 39.6247,
      "duration": 0.1152,
      "velocity": 122,
      "chip": "ym2612"
    },
    {
      "channel": 3,
      "note": 87,
      "start": 39.6256,
      "duration": 0.4015,
      "velocity": 95,
      "chip": "ym2612"
    },
    {
      "channel": 4,
      "note": 84,
      "start": 39.6262,
      "duration": 0.4016,
      "velocity": 95,
      "chip": "ym2612"
    },
    {
      "channel": 2,
      "note": 93,
      "start": 39.8243,
      "duration": 0.049,
      "velocity": 119,
      "chip": "ym2612"
    },
    {
      "channel": 0,
      "note": 59,
      "start": 40.0233,
      "duration": 0.3994,
      "velocity": 100,
      "chip": "ym2612"
    },
    {
      "channel": 1,
      "note": 71,
      "start": 40.0239,
      "duration": 0.1991,
      "velocity": 73,
      "chip": "ym2612"
    },
    {
      "channel": 2,
      "note": 93,
      "start": 40.0254,
      "duration": 0.0001,
      "velocity": 119,
      "chip": "ym2612"
    },
    {
      "channel": 2,
      "note": 93,
      "start": 40.0254,
      "duration": 0.001,
      "velocity": 119,
      "chip": "ym2612"
    },
    {
      "channel": 2,
      "note": 93,
      "start": 40.0264,
      "duration": 0.0468,
      "velocity": 119,
      "chip": "ym2612"
    },
    {
      "channel": 3,
      "note": 78,
      "start": 40.0276,
      "duration": 0.1975,
      "velocity": 95,
      "chip": "ym2612"
    },
    {
      "channel": 4,
      "note": 75,
      "start": 40.0283,
      "duration": 0.1973,
      "velocity": 95,
      "chip": "ym2612"
    },
    {
      "channel": 2,
      "note": 93,
      "start": 40.0732,
      "duration": 0.0667,
      "velocity": 119,
      "chip": "ym2612"
    },
    {
      "channel": 5,
      "note": 59,
      "start": 40.1243,
      "duration": 0.3996,
      "velocity": 100,
      "chip": "ym2612"
    },
    {
      "channel": 1,
      "note": 71,
      "start": 40.2235,
      "duration": 0.1999,
      "velocity": 73,
      "chip": "ym2612"
    },
    {
      "channel": 2,
      "note": 93,
      "start": 40.2247,
      "duration": 0.0485,
      "velocity": 119,
      "chip": "ym2612"
    },
    {
      "channel": 0,
      "note": 78,
      "start": 40.4232,
      "duration": 0.3994,
      "velocity": 100,
      "chip": "ym2612"
    },
    {
      "channel": 1,
      "note": 71,
      "start": 40.4238,
      "duration": 0.1993,
      "velocity": 73,
      "chip": "ym2612"
    },
    {
      "channel": 2,
      "note": 93,
      "start": 40.425,
      "duration": 0.0001,
      "velocity": 122,
      "chip": "ym2612"
    },
    {
      "channel": 2,
      "note": 93,
      "start": 40.4251,
      "duration": 0.0009,
      "velocity": 122,
      "chip": "ym2612"
    },
    {
      "channel": 2,
      "note": 93,
      "start": 40.4261,
      "duration": 0.1138,
      "velocity": 122,
      "chip": "ym2612"
    },
    {
      "channel": 5,
      "note": 78,
      "start": 40.5244,
      "duration": 0.3994,
      "velocity": 100,
      "chip": "ym2612"
    },
    {
      "channel": 2,
      "note": 93,
      "start": 40.5398,
      "duration": 0.0001,
      "velocity": 122,
      "chip": "ym2612"
    },
    {
      "channel": 1,
      "note": 71,
      "start": 40.6235,
      "duration": 0.0996,
      "velocity": 73,
      "chip": "ym2612"
    },
    {
      "channel": 2,
      "note": 93,
      "start": 40.6247,
      "duration": 0.0001,
      "velocity": 119,
      "chip": "ym2612"
    },
    {
      "channel": 2,
      "note": 93,
      "start": 40.6248,
      "duration": 0.0009,
      "velocity": 119,
      "chip": "ym2612"
    },
    {
      "channel": 2,
      "note": 93,
      "start": 40.6257,
      "duration": 0.0474,
      "velocity": 119,
      "chip": "ym2612"
    },
    {
      "channel": 3,
      "note": 78,
      "start": 40.6269,
      "duration": 0.0984,
      "velocity": 95,
      "chip": "ym2612"
    },
    {
      "channel": 4,
      "note": 75,
      "start": 40.6275,
      "duration": 0.0983,
      "velocity": 95,
      "chip": "ym2612"
    },
    {
      "channel": 2,
      "note": 93,
      "start": 40.6732,
      "duration": 0.0505,
      "velocity": 119,
      "chip": "ym2612"
    },
    {
      "channel": 1,
      "note": 71,
      "start": 40.7234,
      "duration": 0.0999,
      "velocity": 73,
      "chip": "ym2612"
    },
    {
      "channel": 2,
      "note": 93,
      "start": 40.7236,
      "duration": 0.001,
      "velocity": 119,
      "chip": "ym2612"
    },
    {
      "channel": 2,
      "note": 93,
      "start": 40.7246,
      "duration": 0.0155,
      "velocity": 119,
      "chip": "ym2612"
    },
    {
      "channel": 3,
      "note": 78,
      "start": 40.7257,
      "duration": 0.101,
      "velocity": 95,
      "chip": "ym2612"
    },
    {
      "channel": 4,
      "note": 75,
      "start": 40.7263,
      "duration": 0.101,
      "velocity": 95,
      "chip": "ym2612"
    },
    {
      "channel": 2,
      "note": 93,
      "start": 40.7401,
      "duration": 0.0331,
      "velocity": 119,
      "chip": "ym2612"
    },
    {
      "channel": 0,
      "note": 83,
      "start": 40.8232,
      "duration": 0.3994,
      "velocity": 100,
      "chip": "ym2612"
    },
    {
      "channel": 1,
      "note": 71,
      "start": 40.8238,
      "duration": 0.1993,
      "velocity": 73,
      "chip": "ym2612"
    },
    {
      "channel": 2,
      "note": 93,
      "start": 40.825,
      "duration": 0.0001,
      "velocity": 119,
      "chip": "ym2612"
    },
    {
      "channel": 2,
      "note": 93,
      "start": 40.8251,
      "duration": 0.0009,
      "velocity": 119,
      "chip": "ym2612"
    },
    {
      "channel": 2,
      "note": 93,
      "start": 40.826,
      "duration": 0.0472,
      "velocity": 119,
      "chip": "ym2612"
    },
    {
      "channel": 3,
      "note": 78,
      "start": 40.8271,
      "duration": 0.7997,
      "velocity": 95,
      "chip": "ym2612"
    },
    {
      "channel": 4,
      "note": 75,
      "start": 40.8276,
      "duration": 0.7997,
      "velocity": 95,
      "chip": "ym2612"
    },
    {
      "channel": 2,
      "note": 93,
      "start": 40.8732,
      "duration": 0.0667,
      "velocity": 119,
      "chip": "ym2612"
    },
    {
      "channel": 5,
      "note": 83,
      "start": 40.9243,
      "duration": 0.3998,
      "velocity": 100,
      "chip": "ym2612"
    },
    {
      "channel": 1,
      "note": 71,
      "start": 41.0234,
      "duration": 0.1999,
      "velocity": 73,
      "chip": "ym2612"
    },
    {
      "channel": 2,
      "note": 93,
      "start": 41.0246,
      "duration": 0.0485,
      "velocity": 119,
      "chip": "ym2612"
    },
    {
      "channel": 0,
      "note": 90,
      "start": 41.2232,
      "duration": 0.3994,
      "velocity": 100,
      "chip": "ym2612"
    },
    {
      "channel": 1,
      "note": 71,
      "start": 41.2238,
      "duration": 0.1993,
      "velocity": 73,
      "chip": "ym2612"
    },
    {
      "channel": 2,
      "note": 93,
      "start": 41.225,
      "duration": 0.0001,
      "velocity": 122,
      "chip": "ym2612"
    },
    {
      "channel": 2,
      "note": 93,
      "start": 41.2251,
      "duration": 0.0009,
      "velocity": 122,
      "chip": "ym2612"
    },
    {
      "channel": 2,
      "note": 93,
      "start": 41.226,
      "duration": 0.1139,
      "velocity": 122,
      "chip": "ym2612"
    },
    {
      "channel": 5,
      "note": 90,
      "start": 41.3245,
      "duration": 0.3993,
      "velocity": 100,
      "chip": "ym2612"
    },
    {
      "channel": 2,
      "note": 93,
      "start": 41.3398,
      "duration": 0.0001,
      "velocity": 122,
      "chip": "ym2612"
    },
    {
      "channel": 1,
      "note": 71,
      "start": 41.4234,
      "duration": 0.1999,
      "velocity": 73,
      "chip": "ym2612"
    },
    {
      "channel": 2,
      "note": 93,
      "start": 41.4246,
      "duration": 0.0485,
      "velocity": 119,
      "chip": "ym2612"
    },
    {
      "channel": 0,
      "note": 88,
      "start": 41.6232,
      "duration": 0.1994,
      "velocity": 100,
      "chip": "ym2612"
    },
    {
      "channel": 1,
      "note": 71,
      "start": 41.6238,
      "duration": 0.1996,
      "velocity": 73,
      "chip": "ym2612"
    },
    {
      "channel": 2,
      "note": 93,
      "start": 41.6251,
      "duration": 0.0,
      "velocity": 119,
      "chip": "ym2612"
    },
    {
      "channel": 2,
      "note": 93,
      "start": 41.6251,
      "duration": 0.001,
      "velocity": 119,
      "chip": "ym2612"
    },
    {
      "channel": 2,
      "note": 93,
      "start": 41.6261,
      "duration": 0.0471,
      "velocity": 119,
      "chip": "ym2612"
    },
    {
      "channel": 3,
      "note": 78,
      "start": 41.6272,
      "duration": 0.1983,
      "velocity": 95,
      "chip": "ym2612"
    },
    {
      "channel": 4,
      "note": 75,
      "start": 41.6278,
      "duration": 0.1982,
      "velocity": 95,
      "chip": "ym2612"
    },
    {
      "channel": 2,
      "note": 93,
      "start": 41.6732,
      "duration": 0.0667,
      "velocity": 119,
      "chip": "ym2612"
    },
    {
      "channel": 5,
      "note": 88,
      "start": 41.7243,
      "duration": 0.1992,
      "velocity": 100,
      "chip": "ym2612"
    },
    {
      "channel": 0,
      "note": 87,
      "start": 41.8232,
      "duration": 0.3994,
      "velocity": 100,
      "chip": "ym2612"
    },
    {
      "channel": 1,
      "note": 71,
      "start": 41.8238,
      "duration": 0.1993,
      "velocity": 73,
      "chip": "ym2612"
    },
    {
      "channel": 2,
      "note": 93,
      "start": 41.825,
      "duration": 0.0482,
      "velocity": 119,
      "chip": "ym2612"
    },
    {
      "channel": 5,
      "note": 87,
      "start": 41.9239,
      "duration": 0.4025,
      "velocity": 100,
      "chip": "ym2612"
    },
    {
      "channel": 1,
      "note": 71,
      "start": 42.0234,
      "duration": 0.1999,
      "velocity": 73,
      "chip": "ym2612"
    },
    {
      "channel": 2,
      "note": 93,
      "start": 42.0246,
      "duration": 0.0001,
      "velocity": 122,
      "chip": "ym2612"
    },
    {
      "channel": 2,
      "note": 93,
      "start": 42.0247,
      "duration": 0.001,
      "velocity": 122,
      "chip": "ym2612"
    },
    {
      "channel": 2,
      "note": 93,
      "start": 42.0257,
      "duration": 0.1142,
      "velocity": 122,
      "chip": "ym2612"
    },
    {
      "channel": 2,
      "note": 93,
      "start": 42.1398,
      "duration": 0.0001,
      "velocity": 122,
      "chip": "ym2612"
    },
    {
      "channel": 0,
      "note": 85,
      "start": 42.2232,
      "duration": 0.5994,
      "velocity": 100,
      "chip": "ym2612"
    },
    {
      "channel": 1,
      "note": 71,
      "start": 42.2238,
      "duration": 0.0993,
      "velocity": 73,
      "chip": "ym2612"
    },
    {
      "channel": 2,
      "note": 93,
      "start": 42.225,
      "duration": 0.0001,
      "velocity": 119,
      "chip": "ym2612"
    },
    {
      "channel": 2,
      "note": 93,
      "start": 42.2251,
      "duration": 0.0009,
      "velocity": 119,
      "chip": "ym2612"
    },
    {
      "channel": 2,
      "note": 93,
      "start": 42.226,
      "duration": 0.0472,
      "velocity": 119,
      "chip": "ym2612"
    },
    {
      "channel": 3,
      "note": 78,
      "start": 42.2272,
      "duration": 0.0982,
      "velocity": 95,
      "chip": "ym2612"
    },
    {
      "channel": 4,
      "note": 75,
      "start": 42.2278,
      "duration": 0.098,
      "velocity": 95,
      "chip": "ym2612"
    },
    {
      "channel": 2,
      "note": 93,
      "start": 42.2732,
      "duration": 0.0505,
      "velocity": 119,
      "chip": "ym2612"
    },
    {
      "channel": 1,
      "note": 71,
      "start": 42.3234,
      "duration": 0.0996,
      "velocity": 73,
      "chip": "ym2612"
    },
    {
      "channel": 2,
      "note": 93,
      "start": 42.3236,
      "duration": 0.001,
      "velocity": 119,
      "chip": "ym2612"
    },
    {
      "channel": 2,
      "note": 93,
      "start": 42.3246,
      "duration": 0.0155,
      "velocity": 119,
      "chip": "ym2612"
    },
    {
      "channel": 3,
      "note": 78,
      "start": 42.3257,
      "duration": 0.1006,
      "velocity": 95,
      "chip": "ym2612"
    },
    {
      "channel": 4,
      "note": 75,
      "start": 42.3263,
      "duration": 0.1006,
      "velocity": 95,
      "chip": "ym2612"
    },
    {
      "channel": 5,
      "note": 85,
      "start": 42.3269,
      "duration": 0.5971,
      "velocity": 100,
      "chip": "ym2612"
    },
    {
      "channel": 2,
      "note": 93,
      "start": 42.3401,
      "duration": 0.0331,
      "velocity": 119,
      "chip": "ym2612"
    },
    {
      "channel": 1,
      "note": 71,
      "start": 42.4234,
      "duration": 0.1996,
      "velocity": 73,
      "chip": "ym2612"
    },
    {
      "channel": 2,
      "note": 93,
      "start": 42.4246,
      "duration": 0.0001,
      "velocity": 119,
      "chip": "ym2612"
    },
    {
      "channel": 2,
      "note": 93,
      "start": 42.4247,
      "duration": 0.001,
      "velocity": 119,
      "chip": "ym2612"
    },
    {
      "channel": 2,
      "note": 93,
      "start": 42.4257,
      "duration": 0.0475,
      "velocity": 119,
      "chip": "ym2612"
    },
    {
      "channel": 3,
      "note": 78,
      "start": 42.4268,
      "duration": 0.8002,
      "velocity": 95,
      "chip": "ym2612"
    },
    {
      "channel": 4,
      "note": 75,
      "start": 42.4273,
      "duration": 0.8002,
      "velocity": 95,
      "chip": "ym2612"
    },
    {
      "channel": 2,
      "note": 93,
      "start": 42.4732,
      "duration": 0.0667,
      "velocity": 119,
      "chip": "ym2612"
    },
    {
      "channel": 1,
      "note": 71,
      "start": 42.6234,
      "duration": 0.1999,
      "velocity": 73,
      "chip": "ym2612"
    },
    {
      "channel": 2,
      "note": 93,
      "start": 42.6246,
      "duration": 0.0485,
      "velocity": 119,
      "chip": "ym2612"
    },
    {
      "channel": 0,
      "note": 87,
      "start": 42.8232,
      "duration": 0.1994,
      "velocity": 100,
      "chip": "ym2612"
    },
    {
      "channel": 1,
      "note": 73,
      "start": 42.8239,
      "duration": 0.1995,
      "velocity": 73,
      "chip": "ym2612"
    },
    {
      "channel": 2,
      "note": 93,
      "start": 42.825,
      "duration": 0.0001,
      "velocity": 122,
      "chip": "ym2612"
    },
    {
      "channel": 2,
      "note": 93,
      "start": 42.8251,
      "duration": 0.0009,
      "velocity": 122,
      "chip": "ym2612"
    },
    {
      "channel": 2,
      "note": 93,
      "start": 42.8261,
      "duration": 0.1138,
      "velocity": 122,
      "chip": "ym2612"
    },
    {
      "channel": 5,
      "note": 87,
      "start": 42.9245,
      "duration": 0.199,
      "velocity": 100,
      "chip": "ym2612"
    },
    {
      "channel": 2,
      "note": 93,
      "start": 42.9398,
      "duration": 0.0001,
      "velocity": 122,
      "chip": "ym2612"
    },
    {
      "channel": 0,
      "note": 85,
      "start": 43.0232,
      "duration": 0.1994,
      "velocity": 100,
      "chip": "ym2612"
    },
    {
      "channel": 1,
      "note": 71,
      "start": 43.0238,
      "duration": 0.1996,
      "velocity": 73,
      "chip": "ym2612"
    },
    {
      "channel": 2,
      "note": 93,
      "start": 43.025,
      "duration": 0.0481,
      "velocity": 119,
      "chip": "ym2612"
    },
    {
      "channel": 5,
      "note": 85,
      "start": 43.124,
      "duration": 0.1998,
      "velocity": 100,
      "chip": "ym2612"
    },
    {
      "channel": 0,
      "note": 83,
      "start": 43.2232,
      "duration": 0.1994,
      "velocity": 100,
      "chip": "ym2612"
    },
    {
      "channel": 1,
      "note": 64,
      "start": 43.2239,
      "duration": 0.1994,
      "velocity": 73,
      "chip": "ym2612"
    },
    {
      "channel": 2,
      "note": 93,
      "start": 43.2252,
      "duration": 0.0001,
      "velocity": 119,
      "chip": "ym2612"
    },
    {
      "channel": 2,
      "note": 93,
      "start": 43.2254,
      "duration": 0.0009,
      "velocity": 119,
      "chip": "ym2612"
    },
    {
      "channel": 2,
      "note": 93,
      "start": 43.2262,
      "duration": 0.0469,
      "velocity": 119,
      "chip": "ym2612"
    },
    {
      "channel": 3,
      "note": 83,
      "start": 43.2274,
      "duration": 0.1981,
      "velocity": 95,
      "chip": "ym2612"
    },
    {
      "channel": 4,
      "note": 80,
      "start": 43.228,
      "duration": 0.198,
      "velocity": 95,
      "chip": "ym2612"
    },
    {
      "channel": 2,
      "note": 93,
      "start": 43.2732,
      "duration": 0.0667,
      "velocity": 119,
      "chip": "ym2612"
    },
    {
      "channel": 5,
      "note": 83,
      "start": 43.3243,
      "duration": 0.1992,
      "velocity": 100,
      "chip": "ym2612"
    },
    {
      "channel": 0,
      "note": 85,
      "start": 43.4232,
      "duration": 0.1994,
      "velocity": 100,
      "chip": "ym2612"
    },
    {
      "channel": 1,
      "note": 64,
      "start": 43.4238,
      "duration": 0.1996,
      "velocity": 73,
      "chip": "ym2612"
    },
    {
      "channel": 2,
      "note": 93,
      "start": 43.425,
      "duration": 0.0481,
      "velocity": 119,
      "chip": "ym2612"
    },
    {
      "channel": 5,
      "note": 85,
      "start": 43.5239,
      "duration": 0.2,
      "velocity": 100,
      "chip": "ym2612"
    },
    {
      "channel": 0,
      "note": 83,
      "start": 43.6232,
      "duration": 0.1994,
      "velocity": 100,
      "chip": "ym2612"
    },
    {
      "channel": 1,
      "note": 64,
      "start": 43.6238,
      "duration": 0.1996,
      "velocity": 73,
      "chip": "ym2612"
    },
    {
      "channel": 2,
      "note": 93,
      "start": 43.625,
      "duration": 0.0001,
      "velocity": 122,
      "chip": "ym2612"
    },
    {
      "channel": 2,
      "note": 93,
      "start": 43.6251,
      "duration": 0.0009,
      "velocity": 122,
      "chip": "ym2612"
    },
    {
      "channel": 2,
      "note": 93,
      "start": 43.6261,
      "duration": 0.1138,
      "velocity": 122,
      "chip": "ym2612"
    },
    {
      "channel": 5,
      "note": 83,
      "start": 43.7244,
      "duration": 0.2021,
      "velocity": 100,
      "chip": "ym2612"
    },
    {
      "channel": 2,
      "note": 93,
      "start": 43.7398,
      "duration": 0.0001,
      "velocity": 122,
      "chip": "ym2612"
    },
    {
      "channel": 0,
      "note": 80,
      "start": 43.8232,
      "duration": 0.4663,
      "velocity": 100,
      "chip": "ym2612"
    },
    {
      "channel": 1,
      "note": 64,
      "start": 43.8239,
      "duration": 0.0992,
      "velocity": 73,
      "chip": "ym2612"
    },
    {
      "channel": 2,
      "note": 93,
      "start": 43.825,
      "duration": 0.0001,
      "velocity": 119,
      "chip": "ym2612"
    },
    {
      "channel": 2,
      "note": 93,
      "start": 43.8251,
      "duration": 0.001,
      "velocity": 119,
      "chip": "ym2612"
    },
    {
      "channel": 2,
      "note": 93,
      "start": 43.8261,
      "duration": 0.0471,
      "velocity": 119,
      "chip": "ym2612"
    },
    {
      "channel": 3,
      "note": 83,
      "start": 43.8273,
      "duration": 0.0982,
      "velocity": 95,
      "chip": "ym2612"
    },
    {
      "channel": 4,
      "note": 80,
      "start": 43.8279,
      "duration": 0.098,
      "velocity": 95,
      "chip": "ym2612"
    },
    {
      "channel": 2,
      "note": 93,
      "start": 43.8732,
      "duration": 0.0505,
      "velocity": 119,
      "chip": "ym2612"
    },
    {
      "channel": 1,
      "note": 64,
      "start": 43.9235,
      "duration": 0.0996,
      "velocity": 73,
      "chip": "ym2612"
    },
    {
      "channel": 2,
      "note": 93,
      "start": 43.9237,
      "duration": 0.001,
      "velocity": 119,
      "chip": "ym2612"
    },
    {
      "channel": 2,
      "note": 93,
      "start": 43.9247,
      "duration": 0.0154,
      "velocity": 119,
      "chip": "ym2612"
    },
    {
      "channel": 3,
      "note": 83,
      "start": 43.9258,
      "duration": 0.1006,
      "velocity": 95,
      "chip": "ym2612"
    },
    {
      "channel": 4,
      "note": 80,
      "start": 43.9264,
      "duration": 0.1006,
      "velocity": 95,
      "chip": "ym2612"
    },
    {
      "channel": 5,
      "note": 80,
      "start": 43.9269,
      "duration": 0.4634,
      "velocity": 100,
      "chip": "ym2612"
    },
    {
      "channel": 2,
      "note": 93,
      "start": 43.9401,
      "duration": 0.0331,
      "velocity": 119,
      "chip": "ym2612"
    },
    {
      "channel": 1,
      "note": 64,
      "start": 44.0235,
      "duration": 0.1996,
      "velocity": 73,
      "chip": "ym2612"
    },
    {
      "channel": 2,
      "note": 93,
      "start": 44.0247,
      "duration": 0.0001,
      "velocity": 119,
      "chip": "ym2612"
    },
    {
      "channel": 2,
      "note": 93,
      "start": 44.0248,
      "duration": 0.001,
      "velocity": 119,
      "chip": "ym2612"
    },
    {
      "channel": 2,
      "note": 93,
      "start": 44.0257,
      "duration": 0.0474,
      "velocity": 119,
      "chip": "ym2612"
    },
    {
      "channel": 3,
      "note": 83,
      "start": 44.0268,
      "duration": 0.7985,
      "velocity": 95,
      "chip": "ym2612"
    },
    {
      "channel": 4,
      "note": 80,
      "start": 44.0274,
      "duration": 0.7985,
      "velocity": 95,
      "chip": "ym2612"
    },
    {
      "channel": 2,
      "note": 93,
      "start": 44.0732,
      "duration": 0.0667,
      "velocity": 119,
      "chip": "ym2612"
    },
    {
      "channel": 1,
      "note": 64,
      "start": 44.2234,
      "duration": 0.1996,
      "velocity": 73,
      "chip": "ym2612"
    },
    {
      "channel": 2,
      "note": 93,
      "start": 44.2246,
      "duration": 0.0485,
      "velocity": 119,
      "chip": "ym2612"
    },
    {
      "channel": 0,
      "note": 80,
      "start": 44.2897,
      "duration": 2.133,
      "velocity": 100,
      "chip": "ym2612"
    },
    {
      "channel": 5,
      "note": 80,
      "start": 44.3904,
      "duration": 2.1334,
      "velocity": 100,
      "chip": "ym2612"
    },
    {
      "channel": 1,
      "note": 64,
      "start": 44.4234,
      "duration": 0.1996,
      "velocity": 73,
      "chip": "ym2612"
    },
    {
      "channel": 2,
      "note": 93,
      "start": 44.4246,
      "duration": 0.0001,
      "velocity": 122,
      "chip": "ym2612"
    },
    {
      "channel": 2,
      "note": 93,
      "start": 44.4247,
      "duration": 0.001,
      "velocity": 122,
      "chip": "ym2612"
    },
    {
      "channel": 2,
      "note": 93,
      "start": 44.4257,
      "duration": 0.1142,
      "velocity": 122,
      "chip": "ym2612"
    },
    {
      "channel": 2,
      "note": 93,
      "start": 44.5398,
      "duration": 0.0001,
      "velocity": 122,
      "chip": "ym2612"
    },
    {
      "channel": 1,
      "note": 64,
      "start": 44.6234,
      "duration": 0.1996,
      "velocity": 73,
      "chip": "ym2612"
    },
    {
      "channel": 2,
      "note": 93,
      "start": 44.6246,
      "duration": 0.0485,
      "velocity": 119,
      "chip": "ym2612"
    },
    {
      "channel": 1,
      "note": 64,
      "start": 44.8234,
      "duration": 0.1996,
      "velocity": 73,
      "chip": "ym2612"
    },
    {
      "channel": 2,
      "note": 93,
      "start": 44.8248,
      "duration": 0.0483,
      "velocity": 119,
      "chip": "ym2612"
    },
    {
      "channel": 3,
      "note": 83,
      "start": 44.8257,
      "duration": 0.3994,
      "velocity": 95,
      "chip": "ym2612"
    },
    {
      "channel": 4,
      "note": 80,
      "start": 44.8262,
      "duration": 0.3994,
      "velocity": 95,
      "chip": "ym2612"
    },
    {
      "channel": 1,
      "note": 64,
      "start": 45.0234,
      "duration": 0.1996,
      "velocity": 73,
      "chip": "ym2612"
    },
    {
      "channel": 2,
      "note": 93,
      "start": 45.0246,
      "duration": 0.0001,
      "velocity": 119,
      "chip": "ym2612"
    },
    {
      "channel": 2,
      "note": 93,
      "start": 45.0248,
      "duration": 0.0009,
      "velocity": 119,
      "chip": "ym2612"
    },
    {
      "channel": 2,
      "note": 93,
      "start": 45.0257,
      "duration": 0.0476,
      "velocity": 119,
      "chip": "ym2612"
    },
    {
      "channel": 2,
      "note": 93,
      "start": 45.0732,
      "duration": 0.0667,
      "velocity": 119,
      "chip": "ym2612"
    },
    {
      "channel": 1,
      "note": 64,
      "start": 45.2234,
      "duration": 0.1996,
      "velocity": 73,
      "chip": "ym2612"
    },
    {
      "channel": 2,
      "note": 93,
      "start": 45.2246,
      "duration": 0.1153,
      "velocity": 122,
      "chip": "ym2612"
    },
    {
      "channel": 3,
      "note": 83,
      "start": 45.2255,
      "duration": 0.3992,
      "velocity": 95,
      "chip": "ym2612"
    },
    {
      "channel": 4,
      "note": 80,
      "start": 45.2261,
      "duration": 0.3993,
      "velocity": 95,
      "chip": "ym2612"
    },
    {
      "channel": 1,
      "note": 63,
      "start": 45.4236,
      "duration": 0.3995,
      "velocity": 73,
      "chip": "ym2612"
    },
    {
      "channel": 2,
      "note": 93,
      "start": 45.4247,
      "duration": 0.0485,
      "velocity": 119,
      "chip": "ym2612"
    },
    {
      "channel": 2,
      "note": 93,
      "start": 45.6243,
      "duration": 0.049,
      "velocity": 119,
      "chip": "ym2612"
    },
    {
      "channel": 3,
      "note": 82,
      "start": 45.6252,
      "duration": 0.3999,
      "velocity": 95,
      "chip": "ym2612"
    },
    {
      "channel": 4,
      "note": 79,
      "start": 45.6258,
      "duration": 0.4,
      "velocity": 95,
      "chip": "ym2612"
    },
    {
      "channel": 1,
      "note": 64,
      "start": 45.8236,
      "duration": 0.1995,
      "velocity": 73,
      "chip": "ym2612"
    },
    {
      "channel": 2,
      "note": 93,
      "start": 45.8247,
      "duration": 0.0001,
      "velocity": 119,
      "chip": "ym2612"
    },
    {
      "channel": 2,
      "note": 93,
      "start": 45.8248,
      "duration": 0.001,
      "velocity": 119,
      "chip": "ym2612"
    },
    {
      "channel": 2,
      "note": 93,
      "start": 45.8258,
      "duration": 0.0475,
      "velocity": 119,
      "chip": "ym2612"
    },
    {
      "channel": 2,
      "note": 93,
      "start": 45.8732,
      "duration": 0.0667,
      "velocity": 119,
      "chip": "ym2612"
    },
    {
      "channel": 1,
      "note": 64,
      "start": 46.0235,
      "duration": 0.1996,
      "velocity": 73,
      "chip": "ym2612"
    },
    {
      "channel": 2,
      "note": 93,
      "start": 46.0246,
      "duration": 0.1153,
      "velocity": 122,
      "chip": "ym2612"
    },
    {
      "channel": 3,
      "note": 83,
      "start": 46.0256,
      "duration": 0.4013,
      "velocity": 95,
      "chip": "ym2612"
    },
    {
      "channel": 4,
      "note": 80,
      "start": 46.0262,
      "duration": 0.4013,
      "velocity": 95,
      "chip": "ym2612"
    },
    {
      "channel": 1,
      "note": 64,
      "start": 46.2235,
      "duration": 0.1999,
      "velocity": 73,
      "chip": "ym2612"
    },
    {
      "channel": 2,
      "note": 93,
      "start": 46.2246,
      "duration": 0.0486,
      "velocity": 119,
      "chip": "ym2612"
    },
    {
      "channel": 0,
      "note": 83,
      "start": 46.4232,
      "duration": 0.1994,
      "velocity": 100,
      "chip": "ym2612"
    },
    {
      "channel": 1,
      "note": 66,
      "start": 46.4239,
      "duration": 0.1995,
      "velocity": 73,
      "chip": "ym2612"
    },
    {
      "channel": 2,
      "note": 93,
      "start": 46.4251,
      "duration": 0.0001,
      "velocity": 119,
      "chip": "ym2612"
    },
    {
      "channel": 2,
      "note": 93,
      "start": 46.4252,
      "duration": 0.001,
      "velocity": 119,
      "chip": "ym2612"
    },
    {
      "channel": 2,
      "note": 93,
      "start": 46.4262,
      "duration": 0.047,
      "velocity": 119,
      "chip": "ym2612"
    },
    {
      "channel": 3,
      "note": 85,
      "start": 46.4274,
      "duration": 0.1981,
      "velocity": 95,
      "chip": "ym2612"
    },
    {
      "channel": 4,
      "note": 82,
      "start": 46.4281,
      "duration": 0.1979,
      "velocity": 95,
      "chip": "ym2612"
    },
    {
      "channel": 2,
      "note": 93,
      "start": 46.4732,
      "duration": 0.0667,
      "velocity": 119,
      "chip": "ym2612"
    },
    {
      "channel": 5,
      "note": 83,
      "start": 46.5243,
      "duration": 0.1992,
      "velocity": 100,
      "chip": "ym2612"
    },
    {
      "channel": 0,
      "note": 82,
      "start": 46.6232,
      "duration": 0.3994,
      "velocity": 100,
      "chip": "ym2612"
    },
    {
      "channel": 1,
      "note": 66,
      "start": 46.6239,
      "duration": 0.1992,
      "velocity": 73,
      "chip": "ym2612"
    },
    {
      "channel": 2,
      "note": 93,
      "start": 46.625,
      "duration": 0.0481,
      "velocity": 119,
      "chip": "ym2612"
    },
    {
      "channel": 5,
      "note": 82,
      "start": 46.7239,
      "duration": 0.4008,
      "velocity": 100,
      "chip": "ym2612"
    },
    {
      "channel": 1,
      "note": 66,
      "start": 46.8235,
      "duration": 0.1999,
      "velocity": 73,
      "chip": "ym2612"
    },
    {
      "channel": 2,
      "note": 93,
      "start": 46.8247,
      "duration": 0.0001,
      "velocity": 122,
      "chip": "ym2612"
    },
    {
      "channel": 2,
      "note": 93,
      "start": 46.8248,
      "duration": 0.001,
      "velocity": 122,
      "chip": "ym2612"
    },
    {
      "channel": 2,
      "note": 93,
      "start": 46.8257,
      "duration": 0.1141,
      "velocity": 122,
      "chip": "ym2612"
    },
    {
      "channel": 2,
      "note": 93,
      "start": 46.9398,
      "duration": 0.0001,
      "velocity": 122,
      "chip": "ym2612"
    },
    {
      "channel": 0,
      "note": 78,
      "start": 47.0232,
      "duration": 0.4663,
      "velocity": 100,
      "chip": "ym2612"
    },
    {
      "channel": 1,
      "note": 66,
      "start": 47.0239,
      "duration": 0.0992,
      "velocity": 73,
      "chip": "ym2612"
    },
    {
      "channel": 2,
      "note": 93,
      "start": 47.025,
      "duration": 0.0481,
      "velocity": 119,
      "chip": "ym2612"
    },
    {
      "channel": 3,
      "note": 85,
      "start": 47.0261,
      "duration": 0.0976,
      "velocity": 95,
      "chip": "ym2612"
    },
    {
      "channel": 4,
      "note": 82,
      "start": 47.0266,
      "duration": 0.0976,
      "velocity": 95,
      "chip": "ym2612"
    },
    {
      "channel": 1,
      "note": 66,
      "start": 47.1234,
      "duration": 0.0996,
      "velocity": 73,
      "chip": "ym2612"
    },
    {
      "channel": 3,
      "note": 85,
      "start": 47.1241,
      "duration": 0.1023,
      "velocity": 95,
      "chip": "ym2612"
    },
    {
      "channel": 4,
      "note": 82,
      "start": 47.1246,
      "duration": 0.1023,
      "velocity": 95,
      "chip": "ym2612"
    },
    {
      "channel": 5,
      "note": 78,
      "start": 47.1252,
      "duration": 0.4651,
      "velocity": 100,
      "chip": "ym2612"
    },
    {
      "channel": 1,
      "note": 66,
      "start": 47.2234,
      "duration": 0.1996,
      "velocity": 73,
      "chip": "ym2612"
    },
    {
      "channel": 2,
      "note": 93,
      "start": 47.2246,
      "duration": 0.0001,
      "velocity": 119,
      "chip": "ym2612"
    },
    {
      "channel": 2,
      "note": 93,
      "start": 47.2247,
      "duration": 0.001,
      "velocity": 119,
      "chip": "ym2612"
    },
    {
      "channel": 2,
      "note": 93,
      "start": 47.2257,
      "duration": 0.0475,
      "velocity": 119,
      "chip": "ym2612"
    },
    {
      "channel": 3,
      "note": 85,
      "start": 47.2268,
      "duration": 1.1996,
      "velocity": 95,
      "chip": "ym2612"
    },
    {
      "channel": 4,
      "note": 82,
      "start": 47.2273,
      "duration": 1.1996,
      "velocity": 95,
      "chip": "ym2612"
    },
    {
      "channel": 2,
      "note": 93,
      "start": 47.2732,
      "duration": 0.0501,
      "velocity": 119,
      "chip": "ym2612"
    },
    {
      "channel": 2,
      "note": 93,
      "start": 47.3232,
      "duration": 0.001,
      "velocity": 119,
      "chip": "ym2612"
    },
    {
      "channel": 2,
      "note": 93,
      "start": 47.3242,
      "duration": 0.0159,
      "velocity": 119,
      "chip": "ym2612"
    },
    {
      "channel": 2,
      "note": 93,
      "start": 47.3401,
      "duration": 0.0331,
      "velocity": 119,
      "chip": "ym2612"
    },
    {
      "channel": 1,
      "note": 66,
      "start": 47.4234,
      "duration": 0.1996,
      "velocity": 73,
      "chip": "ym2612"
    },
    {
      "channel": 2,
      "note": 93,
      "start": 47.4246,
      "duration": 0.0485,
      "velocity": 119,
      "chip": "ym2612"
    },
    {
      "channel": 0,
      "note": 78,
      "start": 47.4897,
      "duration": 2.133,
      "velocity": 100,
      "chip": "ym2612"
    },
    {
      "channel": 5,
      "note": 78,
      "start": 47.5904,
      "duration": 2.1334,
      "velocity": 100,
      "chip": "ym2612"
    },
    {
      "channel": 1,
      "note": 66,
      "start": 47.6234,
      "duration": 0.1996,
      "velocity": 73,
      "chip": "ym2612"
    },
    {
      "channel": 2,
      "note": 93,
      "start": 47.6246,
      "duration": 0.0001,
      "velocity": 122,
      "chip": "ym2612"
    },
    {
      "channel": 2,
      "note": 93,
      "start": 47.6247,
      "duration": 0.001,
      "velocity": 122,
      "chip": "ym2612"
    },
    {
      "channel": 2,
      "note": 93,
      "start": 47.6257,
      "duration": 0.1142,
      "velocity": 122,
      "chip": "ym2612"
    },
    {
      "channel": 2,
      "note": 93,
      "start": 47.7398,
      "duration": 0.0001,
      "velocity": 122,
      "chip": "ym2612"
    },
    {
      "channel": 1,
      "note": 66,
      "start": 47.8234,
      "duration": 0.1996,
      "velocity": 73,
      "chip": "ym2612"
    },
    {
      "channel": 2,
      "note": 93,
      "start": 47.8246,
      "duration": 0.0485,
      "velocity": 119,
      "chip": "ym2612"
    },
    {
      "channel": 1,
      "note": 66,
      "start": 48.0234,
      "duration": 0.1996,
      "velocity": 73,
      "chip": "ym2612"
    },
    {
      "channel": 2,
      "note": 93,
      "start": 48.0246,
      "duration": 0.0001,
      "velocity": 119,
      "chip": "ym2612"
    },
    {
      "channel": 2,
      "note": 93,
      "start": 48.0248,
      "duration": 0.0009,
      "velocity": 119,
      "chip": "ym2612"
    },
    {
      "channel": 2,
      "note": 93,
      "start": 48.0257,
      "duration": 0.0475,
      "velocity": 119,
      "chip": "ym2612"
    },
    {
      "channel": 2,
      "note": 93,
      "start": 48.0732,
      "duration": 0.0667,
      "velocity": 119,
      "chip": "ym2612"
    },
    {
      "channel": 1,
      "note": 66,
      "start": 48.2234,
      "duration": 0.1996,
      "velocity": 73,
      "chip": "ym2612"
    },
    {
      "channel": 2,
      "note": 93,
      "start": 48.2246,
      "duration": 0.0486,
      "velocity": 119,
      "chip": "ym2612"
    },
    {
      "channel": 1,
      "note": 66,
      "start": 48.4234,
      "duration": 0.1996,
      "velocity": 73,
      "chip": "ym2612"
    },
    {
      "channel": 2,
      "note": 93,
      "start": 48.4246,
      "duration": 0.0001,
      "velocity": 122,
      "chip": "ym2612"
    },
    {
      "channel": 2,
      "note": 93,
      "start": 48.4248,
      "duration": 0.0009,
      "velocity": 122,
      "chip": "ym2612"
    },
    {
      "channel": 2,
      "note": 93,
      "start": 48.4257,
      "duration": 0.1142,
      "velocity": 122,
      "chip": "ym2612"
    },
    {
      "channel": 3,
      "note": 85,
      "start": 48.4268,
      "duration": 0.3997,
      "velocity": 95,
      "chip": "ym2612"
    },
    {
      "channel": 4,
      "note": 82,
      "start": 48.4273,
      "duration": 0.3996,
      "velocity": 95,
      "chip": "ym2612"
    },
    {
      "channel": 2,
      "note": 93,
      "start": 48.5399,
      "duration": 0.0001,
      "velocity": 122,
      "chip": "ym2612"
    },
    {
      "channel": 1,
      "note": 66,
      "start": 48.6234,
      "duration": 0.1996,
      "velocity": 73,
      "chip": "ym2612"
    },
    {
      "channel": 2,
      "note": 93,
      "start": 48.6246,
      "duration": 0.0486,
      "velocity": 119,
      "chip": "ym2612"
    },
    {
      "channel": 1,
      "note": 66,
      "start": 48.8235,
      "duration": 0.1996,
      "velocity": 73,
      "chip": "ym2612"
    },
    {
      "channel": 2,
      "note": 93,
      "start": 48.8246,
      "duration": 0.0001,
      "velocity": 119,
      "chip": "ym2612"
    },
    {
      "channel": 2,
      "note": 93,
      "start": 48.8248,
      "duration": 0.0009,
      "velocity": 119,
      "chip": "ym2612"
    },
    {
      "channel": 2,
      "note": 93,
      "start": 48.8257,
      "duration": 0.0476,
      "velocity": 119,
      "chip": "ym2612"
    },
    {
      "channel": 3,
      "note": 85,
      "start": 48.8268,
      "duration": 0.3997,
      "velocity": 95,
      "chip": "ym2612"
    },
    {
      "channel": 4,
      "note": 82,
      "start": 48.8273,
      "duration": 0.3997,
      "velocity": 95,
      "chip": "ym2612"
    },
    {
      "channel": 2,
      "note": 93,
      "start": 48.8732,
      "duration": 0.05,
      "velocity": 119,
      "chip": "ym2612"
    },
    {
      "channel": 2,
      "note": 93,
      "start": 48.9232,
      "duration": 0.001,
      "velocity": 119,
      "chip": "ym2612"
    },
    {
      "channel": 2,
      "note": 93,
      "start": 48.9243,
      "duration": 0.0159,
      "velocity": 119,
      "chip": "ym2612"
    },
    {
      "channel": 2,
      "note": 93,
      "start": 48.9401,
      "duration": 0.0331,
      "velocity": 119,
      "chip": "ym2612"
    },
    {
      "channel": 1,
      "note": 66,
      "start": 49.0235,
      "duration": 0.1996,
      "velocity": 73,
      "chip": "ym2612"
    },
    {
      "channel": 2,
      "note": 93,
      "start": 49.0246,
      "duration": 0.0486,
      "velocity": 119,
      "chip": "ym2612"
    },
    {
      "channel": 1,
      "note": 64,
      "start": 49.2236,
      "duration": 0.1995,
      "velocity": 73,
      "chip": "ym2612"
    },
    {
      "channel": 2,
      "note": 93,
      "start": 49.2247,
      "duration": 0.0001,
      "velocity": 122,
      "chip": "ym2612"
    },
    {
      "channel": 2,
      "note": 93,
      "start": 49.2248,
      "duration": 0.0009,
      "velocity": 122,
      "chip": "ym2612"
    },
    {
      "channel": 2,
      "note": 93,
      "start": 49.2257,
      "duration": 0.1142,
      "velocity": 122,
      "chip": "ym2612"
    },
    {
      "channel": 3,
      "note": 85,
      "start": 49.2269,
      "duration": 0.4001,
      "velocity": 95,
      "chip": "ym2612"
    },
    {
      "channel": 4,
      "note": 82,
      "start": 49.2274,
      "duration": 0.4002,
      "velocity": 95,
      "chip": "ym2612"
    },
    {
      "channel": 2,
      "note": 93,
      "start": 49.3399,
      "duration": 0.0001,
      "velocity": 122,
      "chip": "ym2612"
    },
    {
      "channel": 1,
      "note": 66,
      "start": 49.4236,
      "duration": 0.1999,
      "velocity": 73,
      "chip": "ym2612"
    },
    {
      "channel": 2,
      "note": 93,
      "start": 49.4247,
      "duration": 0.0485,
      "velocity": 119,
      "chip": "ym2612"
    },
    {
      "channel": 0,
      "note": 85,
      "start": 49.6233,
      "duration": 0.5994,
      "velocity": 100,
      "chip": "ym2612"
    },
    {
      "channel": 1,
      "note": 68,
      "start": 49.624,
      "duration": 0.5994,
      "velocity": 73,
      "chip": "ym2612"
    },
    {
      "channel": 2,
      "note": 93,
      "start": 49.6252,
      "duration": 0.0001,
      "velocity": 119,
      "chip": "ym2612"
    },
    {
      "channel": 2,
      "note": 93,
      "start": 49.6253,
      "duration": 0.001,
      "velocity": 119,
      "chip": "ym2612"
    },
    {
      "channel": 2,
      "note": 93,
      "start": 49.6262,
      "duration": 0.0469,
      "velocity": 119,
      "chip": "ym2612"
    },
    {
      "channel": 3,
      "note": 87,
      "start": 49.6274,
      "duration": 0.5994,
      "velocity": 95,
      "chip": "ym2612"
    },
    {
      "channel": 4,
      "note": 84,
      "start": 49.628,
      "duration": 0.5993,
      "velocity": 95,
      "chip": "ym2612"
    },
    {
      "channel": 2,
      "note": 93,
      "start": 49.6732,
      "duration": 0.0667,
      "velocity": 119,
      "chip": "ym2612"
    },
    {
      "channel": 5,
      "note": 85,
      "start": 49.7243,
      "duration": 0.5995,
      "velocity": 100,
      "chip": "ym2612"
    },
    {
      "channel": 2,
      "note": 93,
      "start": 49.8242,
      "duration": 0.049,
      "velocity": 119,
      "chip": "ym2612"
    },
    {
      "channel": 2,
      "note": 93,
      "start": 50.0242,
      "duration": 0.1156,
      "velocity": 122,
      "chip": "ym2612"
    },
    {
      "channel": 0,
      "note": 84,
      "start": 50.2232,
      "duration": 0.5994,
      "velocity": 100,
      "chip": "ym2612"
    },
    {
      "channel": 1,
      "note": 68,
      "start": 50.2238,
      "duration": 0.5996,
      "velocity": 73,
      "chip": "ym2612"
    },
    {
      "channel": 2,
      "note": 93,
      "start": 50.225,
      "duration": 0.0001,
      "velocity": 119,
      "chip": "ym2612"
    },
    {
      "channel": 2,
      "note": 93,
      "start": 50.2251,
      "duration": 0.0009,
      "velocity": 119,
      "chip": "ym2612"
    },
    {
      "channel": 2,
      "note": 93,
      "start": 50.2261,
      "duration": 0.0471,
      "velocity": 119,
      "chip": "ym2612"
    },
    {
      "channel": 3,
      "note": 87,
      "start": 50.2271,
      "duration": 0.5984,
      "velocity": 95,
      "chip": "ym2612"
    },
    {
      "channel": 4,
      "note": 84,
      "start": 50.2277,
      "duration": 0.5984,
      "velocity": 95,
      "chip": "ym2612"
    },
    {
      "channel": 2,
      "note": 93,
      "start": 50.2732,
      "duration": 0.0667,
      "velocity": 119,
      "chip": "ym2612"
    },
    {
      "channel": 5,
      "note": 84,
      "start": 50.3243,
      "duration": 0.5995,
      "velocity": 100,
      "chip": "ym2612"
    },
    {
      "channel": 2,
      "note": 93,
      "start": 50.4242,
      "duration": 0.049,
      "velocity": 119,
      "chip": "ym2612"
    },
    {
      "channel": 2,
      "note": 93,
      "start": 50.6243,
      "duration": 0.0001,
      "velocity": 119,
      "chip": "ym2612"
    },
    {
      "channel": 2,
      "note": 93,
      "start": 50.6243,
      "duration": 0.001,
      "velocity": 119,
      "chip": "ym2612"
    },
    {
      "channel": 2,
      "note": 93,
      "start": 50.6253,
      "duration": 0.0479,
      "velocity": 119,
      "chip": "ym2612"
    },
    {
      "channel": 2,
      "note": 93,
      "start": 50.6732,
      "duration": 0.0667,
      "velocity": 119,
      "chip": "ym2612"
    },
    {
      "channel": 0,
      "note": 80,
      "start": 50.8232,
      "duration": 1.9994,
      "velocity": 100,
      "chip": "ym2612"
    },
    {
      "channel": 1,
      "note": 68,
      "start": 50.8239,
      "duration": 0.5992,
      "velocity": 73,
      "chip": "ym2612"
    },
    {
      "channel": 2,
      "note": 93,
      "start": 50.825,
      "duration": 0.1148,
      "velocity": 122,
      "chip": "ym2612"
    },
    {
      "channel": 3,
      "note": 87,
      "start": 50.8259,
      "duration": 2.001,
      "velocity": 95,
      "chip": "ym2612"
    },
    {
      "channel": 4,
      "note": 84,
      "start": 50.8265,
      "duration": 2.001,
      "velocity": 95,
      "chip": "ym2612"
    },
    {
      "channel": 5,
      "note": 80,
      "start": 50.9243,
      "duration": 1.9995,
      "velocity": 100,
      "chip": "ym2612"
    },
    {
      "channel": 2,
      "note": 93,
      "start": 51.0242,
      "duration": 0.049,
      "velocity": 119,
      "chip": "ym2612"
    },
    {
      "channel": 2,
      "note": 93,
      "start": 51.2243,
      "duration": 0.0489,
      "velocity": 119,
      "chip": "ym2612"
    },
    {
      "channel": 1,
      "note": 68,
      "start": 51.4235,
      "duration": 0.1996,
      "velocity": 73,
      "chip": "ym2612"
    },
    {
      "channel": 2,
      "note": 93,
      "start": 51.4247,
      "duration": 0.0001,
      "velocity": 119,
      "chip": "ym2612"
    },
    {
      "channel": 2,
      "note": 93,
      "start": 51.4248,
      "duration": 0.0009,
      "velocity": 119,
      "chip": "ym2612"
    },
    {
      "channel": 2,
      "note": 93,
      "start": 51.4257,
      "duration": 0.0474,
      "velocity": 119,
      "chip": "ym2612"
    },
    {
      "channel": 2,
      "note": 93,
      "start": 51.4732,
      "duration": 0.0667,
      "velocity": 119,
      "chip": "ym2612"
    },
    {
      "channel": 1,
      "note": 68,
      "start": 51.6234,
      "duration": 0.3996,
      "velocity": 73,
      "chip": "ym2612"
    },
    {
      "channel": 2,
      "note": 93,
      "start": 51.6246,
      "duration": 0.1152,
      "velocity": 122,
      "chip": "ym2612"
    },
    {
      "channel": 2,
      "note": 93,
      "start": 51.8243,
      "duration": 0.0489,
      "velocity": 119,
      "chip": "ym2612"
    },
    {
      "channel": 1,
      "note": 66,
      "start": 52.0235,
      "duration": 0.3996,
      "velocity": 73,
      "chip": "ym2612"
    },
    {
      "channel": 2,
      "note": 93,
      "start": 52.0247,
      "duration": 0.0485,
      "velocity": 119,
      "chip": "ym2612"
    },
    {
      "channel": 2,
      "note": 93,
      "start": 52.1243,
      "duration": 0.0001,
      "velocity": 119,
      "chip": "ym2612"
    },
    {
      "channel": 2,
      "note": 93,
      "start": 52.1243,
      "duration": 0.001,
      "velocity": 119,
      "chip": "ym2612"
    },
    {
      "channel": 2,
      "note": 93,
      "start": 52.1253,
      "duration": 0.0479,
      "velocity": 119,
      "chip": "ym2612"
    },
    {
      "channel": 2,
      "note": 93,
      "start": 52.1732,
      "duration": 0.0667,
      "velocity": 119,
      "chip": "ym2612"
    },
    {
      "channel": 2,
      "note": 93,
      "start": 52.3243,
      "duration": 0.0001,
      "velocity": 119,
      "chip": "ym2612"
    },
    {
      "channel": 2,
      "note": 93,
      "start": 52.3244,
      "duration": 0.0009,
      "velocity": 119,
      "chip": "ym2612"
    },
    {
      "channel": 2,
      "note": 93,
      "start": 52.3253,
      "duration": 0.048,
      "velocity": 119,
      "chip": "ym2612"
    },
    {
      "channel": 2,
      "note": 93,
      "start": 52.3733,
      "duration": 0.0504,
      "velocity": 119,
      "chip": "ym2612"
    },
    {
      "channel": 1,
      "note": 68,
      "start": 52.4235,
      "duration": 0.4,
      "velocity": 73,
      "chip": "ym2612"
    },
    {
      "channel": 2,
      "note": 93,
      "start": 52.4237,
      "duration": 0.001,
      "velocity": 122,
      "chip": "ym2612"
    },
    {
      "channel": 2,
      "note": 93,
      "start": 52.4247,
      "duration": 0.0154,
      "velocity": 122,
      "chip": "ym2612"
    },
    {
      "channel": 2,
      "note": 93,
      "start": 52.4401,
      "duration": 0.0998,
      "velocity": 122,
      "chip": "ym2612"
    },
    {
      "channel": 2,
      "note": 93,
      "start": 52.6243,
      "duration": 0.049,
      "velocity": 119,
      "chip": "ym2612"
    },
    {
      "channel": 0,
      "note": 87,
      "start": 52.8233,
      "duration": 0.5994,
      "velocity": 100,
      "chip": "ym2612"
    },
    {
      "channel": 1,
      "note": 69,
      "start": 52.8239,
      "duration": 0.5994,
      "velocity": 73,
      "chip": "ym2612"
    },
    {
      "channel": 2,
      "note": 93,
      "start": 52.8251,
      "duration": 0.0001,
      "velocity": 119,
      "chip": "ym2612"
    },
    {
      "channel": 2,
      "note": 93,
      "start": 52.8252,
      "duration": 0.001,
      "velocity": 119,
      "chip": "ym2612"
    },
    {
      "channel": 2,
      "note": 93,
      "start": 52.8262,
      "duration": 0.047,
      "velocity": 119,
      "chip": "ym2612"
    },
    {
      "channel": 3,
      "note": 83,
      "start": 52.8273,
      "duration": 0.5982,
      "velocity": 95,
      "chip": "ym2612"
    },
    {
      "channel": 4,
      "note": 76,
      "start": 52.828,
      "duration": 0.1969,
      "velocity": 95,
      "chip": "ym2612"
    },
    {
      "channel": 2,
      "note": 93,
      "start": 52.8732,
      "duration": 0.0667,
      "velocity": 119,
      "chip": "ym2612"
    },
    {
      "channel": 5,
      "note": 87,
      "start": 52.9243,
      "duration": 0.5992,
      "velocity": 100,
      "chip": "ym2612"
    },
    {
      "channel": 2,
      "note": 93,
      "start": 53.0242,
      "duration": 0.049,
      "velocity": 119,
      "chip": "ym2612"
    },
    {
      "channel": 4,
      "note": 73,
      "start": 53.0254,
      "duration": 0.2007,
      "velocity": 95,
      "chip": "ym2612"
    },
    {
      "channel": 2,
      "note": 93,
      "start": 53.2242,
      "duration": 0.0001,
      "velocity": 122,
      "chip": "ym2612"
    },
    {
      "channel": 2,
      "note": 93,
      "start": 53.2243,
      "duration": 0.001,
      "velocity": 122,
      "chip": "ym2612"
    },
    {
      "channel": 2,
      "note": 93,
      "start": 53.2253,
      "duration": 0.1146,
      "velocity": 122,
      "chip": "ym2612"
    },
    {
      "channel": 4,
      "note": 69,
      "start": 53.2266,
      "duration": 0.1996,
      "velocity": 95,
      "chip": "ym2612"
    },
    {
      "channel": 2,
      "note": 93,
      "start": 53.3398,
      "duration": 0.0001,
      "velocity": 122,
      "chip": "ym2612"
    },
    {
      "channel": 0,
      "note": 88,
      "start": 53.4232,
      "duration": 1.3994,
      "velocity": 100,
      "chip": "ym2612"
    },
    {
      "channel": 1,
      "note": 69,
      "start": 53.4239,
      "duration": 0.1992,
      "velocity": 73,
      "chip": "ym2612"
    },
    {
      "channel": 2,
      "note": 93,
      "start": 53.425,
      "duration": 0.0481,
      "velocity": 119,
      "chip": "ym2612"
    },
    {
      "channel": 3,
      "note": 85,
      "start": 53.4261,
      "duration": 0.2003,
      "velocity": 95,
      "chip": "ym2612"
    },
    {
      "channel": 4,
      "note": 76,
      "start": 53.4266,
      "duration": 0.2002,
      "velocity": 95,
      "chip": "ym2612"
    },
    {
      "channel": 5,
      "note": 88,
      "start": 53.524,
      "duration": 1.3998,
      "velocity": 100,
      "chip": "ym2612"
    },
    {
      "channel": 1,
      "note": 69,
      "start": 53.6234,
      "duration": 0.1996,
      "velocity": 73,
      "chip": "ym2612"
    },
    {
      "channel": 2,
      "note": 93,
      "start": 53.6246,
      "duration": 0.0001,
      "velocity": 119,
      "chip": "ym2612"
    },
    {
      "channel": 2,
      "note": 93,
      "start": 53.6247,
      "duration": 0.001,
      "velocity": 119,
      "chip": "ym2612"
    },
    {
      "channel": 2,
      "note": 93,
      "start": 53.6257,
      "duration": 0.0475,
      "velocity": 119,
      "chip": "ym2612"
    },
    {
      "channel": 3,
      "note": 85,
      "start": 53.6268,
      "duration": 1.1987,
      "velocity": 95,
      "chip": "ym2612"
    },
    {
      "channel": 4,
      "note": 73,
      "start": 53.6274,
      "duration": 0.198,
      "velocity": 95,
      "chip": "ym2612"
    },
    {
      "channel": 2,
      "note": 93,
      "start": 53.6732,
      "duration": 0.0501,
      "velocity": 119,
      "chip": "ym2612"
    },
    {
      "channel": 2,
      "note": 93,
      "start": 53.7232,
      "duration": 0.001,
      "velocity": 119,
      "chip": "ym2612"
    },
    {
      "channel": 2,
      "note": 93,
      "start": 53.7242,
      "duration": 0.0159,
      "velocity": 119,
      "chip": "ym2612"
    },
    {
      "channel": 2,
      "note": 93,
      "start": 53.7401,
      "duration": 0.0331,
      "velocity": 119,
      "chip": "ym2612"
    },
    {
      "channel": 1,
      "note": 64,
      "start": 53.8235,
      "duration": 0.3996,
      "velocity": 73,
      "chip": "ym2612"
    },
    {
      "channel": 2,
      "note": 93,
      "start": 53.8247,
      "duration": 0.0485,
      "velocity": 119,
      "chip": "ym2612"
    },
    {
      "channel": 4,
      "note": 69,
      "start": 53.8258,
      "duration": 0.199,
      "velocity": 95,
      "chip": "ym2612"
    },
    {
      "channel": 2,
      "note": 93,
      "start": 54.0242,
      "duration": 0.1156,
      "velocity": 122,
      "chip": "ym2612"
    },
    {
      "channel": 4,
      "note": 76,
      "start": 54.0254,
      "duration": 0.1999,
      "velocity": 95,
      "chip": "ym2612"
    },
    {
      "channel": 1,
      "note": 64,
      "start": 54.2234,
      "duration": 0.3996,
      "velocity": 73,
      "chip": "ym2612"
    },
    {
      "channel": 2,
      "note": 93,
      "start": 54.2246,
      "duration": 0.0485,
      "velocity": 119,
      "chip": "ym2612"
    },
    {
      "channel": 4,
      "note": 73,
      "start": 54.2257,
      "duration": 0.1992,
      "velocity": 95,
      "chip": "ym2612"
    },
    {
      "channel": 2,
      "note": 93,
      "start": 54.4243,
      "duration": 0.0489,
      "velocity": 119,
      "chip": "ym2612"
    },
    {
      "channel": 4,
      "note": 69,
      "start": 54.4254,
      "duration": 0.2012,
      "velocity": 95,
      "chip": "ym2612"
    },
    {
      "channel": 1,
      "note": 64,
      "start": 54.6234,
      "duration": 0.1999,
      "velocity": 73,
      "chip": "ym2612"
    },
    {
      "channel": 2,
      "note": 93,
      "start": 54.6246,
      "duration": 0.0001,
      "velocity": 119,
      "chip": "ym2612"
    },
    {
      "channel": 2,
      "note": 93,
      "start": 54.6248,
      "duration": 0.0009,
      "velocity": 119,
      "chip": "ym2612"
    },
    {
      "channel": 2,
      "note": 93,
      "start": 54.6257,
      "duration": 0.0476,
      "velocity": 119,
      "chip": "ym2612"
    },
    {
      "channel": 4,
      "note": 73,
      "start": 54.627,
      "duration": 0.199,
      "velocity": 95,
      "chip": "ym2612"
    },
    {
      "channel": 2,
      "note": 93,
      "start": 54.6732,
      "duration": 0.05,
      "velocity": 119,
      "chip": "ym2612"
    },
    {
      "channel": 2,
      "note": 93,
      "start": 54.7232,
      "duration": 0.001,
      "velocity": 119,
      "chip": "ym2612"
    },
    {
      "channel": 2,
      "note": 93,
      "start": 54.7243,
      "duration": 0.0159,
      "velocity": 119,
      "chip": "ym2612"
    },
    {
      "channel": 2,
      "note": 93,
      "start": 54.7401,
      "duration": 0.0331,
      "velocity": 119,
      "chip": "ym2612"
    },
    {
      "channel": 0,
      "note": 88,
      "start": 54.8232,
      "duration": 0.3995,
      "velocity": 100,
      "chip": "ym2612"
    },
    {
      "channel": 1,
      "note": 64,
      "start": 54.8238,
      "duration": 0.3996,
      "velocity": 73,
      "chip": "ym2612"
    },
    {
      "channel": 2,
      "note": 93,
      "start": 54.8249,
      "duration": 0.1149,
      "velocity": 122,
      "chip": "ym2612"
    },
    {
      "channel": 3,
      "note": 85,
      "start": 54.8258,
      "duration": 0.401,
      "velocity": 95,
      "chip": "ym2612"
    },
    {
      "channel": 4,
      "note": 76,
      "start": 54.8264,
      "duration": 0.1984,
      "velocity": 95,
      "chip": "ym2612"
    },
    {
      "channel": 5,
      "note": 88,
      "start": 54.9242,
      "duration": 0.3996,
      "velocity": 100,
      "chip": "ym2612"
    },
    {
      "channel": 2,
      "note": 93,
      "start": 55.0242,
      "duration": 0.049,
      "velocity": 119,
      "chip": "ym2612"
    },
    {
      "channel": 4,
      "note": 78,
      "start": 55.0254,
      "duration": 0.202,
      "velocity": 95,
      "chip": "ym2612"
    },
    {
      "channel": 0,
      "note": 90,
      "start": 55.2232,
      "duration": 0.3994,
      "velocity": 100,
      "chip": "ym2612"
    },
    {
      "channel": 1,
      "note": 63,
      "start": 55.2238,
      "duration": 0.3996,
      "velocity": 73,
      "chip": "ym2612"
    },
    {
      "channel": 2,
      "note": 93,
      "start": 55.225,
      "duration": 0.0001,
      "velocity": 119,
      "chip": "ym2612"
    },
    {
      "channel": 2,
      "note": 93,
      "start": 55.2251,
      "duration": 0.0009,
      "velocity": 119,
      "chip": "ym2612"
    },
    {
      "channel": 2,
      "note": 93,
      "start": 55.2261,
      "duration": 0.0471,
      "velocity": 119,
      "chip": "ym2612"
    },
    {
      "channel": 3,
      "note": 87,
      "start": 55.2272,
      "duration": 0.3983,
      "velocity": 95,
      "chip": "ym2612"
    },
    {
      "channel": 4,
      "note": 76,
      "start": 55.2278,
      "duration": 0.197,
      "velocity": 95,
      "chip": "ym2612"
    },
    {
      "channel": 2,
      "note": 93,
      "start": 55.2732,
      "duration": 0.0667,
      "velocity": 119,
      "chip": "ym2612"
    },
    {
      "channel": 5,
      "note": 90,
      "start": 55.3243,
      "duration": 0.3995,
      "velocity": 100,
      "chip": "ym2612"
    },
    {
      "channel": 2,
      "note": 93,
      "start": 55.4242,
      "duration": 0.049,
      "velocity": 119,
      "chip": "ym2612"
    },
    {
      "channel": 4,
      "note": 73,
      "start": 55.4254,
      "duration": 0.2007,
      "velocity": 95,
      "chip": "ym2612"
    },
    {
      "channel": 0,
      "note": 88,
      "start": 55.6232,
      "duration": 0.3994,
      "velocity": 100,
      "chip": "ym2612"
    },
    {
      "channel": 1,
      "note": 64,
      "start": 55.6238,
      "duration": 0.3996,
      "velocity": 73,
      "chip": "ym2612"
    },
    {
      "channel": 2,
      "note": 93,
      "start": 55.625,
      "duration": 0.1148,
      "velocity": 122,
      "chip": "ym2612"
    },
    {
      "channel": 3,
      "note": 85,
      "start": 55.626,
      "duration": 0.4009,
      "velocity": 95,
      "chip": "ym2612"
    },
    {
      "channel": 4,
      "note": 69,
      "start": 55.6266,
      "duration": 0.1983,
      "velocity": 95,
      "chip": "ym2612"
    },
    {
      "channel": 5,
      "note": 88,
      "start": 55.7243,
      "duration": 0.3995,
      "velocity": 100,
      "chip": "ym2612"
    },
    {
      "channel": 2,
      "note": 93,
      "start": 55.8242,
      "duration": 0.049,
      "velocity": 119,
      "chip": "ym2612"
    },
    {
      "channel": 4,
      "note": 76,
      "start": 55.8254,
      "duration": 0.2022,
      "velocity": 95,
      "chip": "ym2612"
    },
    {
      "channel": 0,
      "note": 87,
      "start": 56.0232,
      "duration": 0.5994,
      "velocity": 100,
      "chip": "ym2612"
    },
    {
      "channel": 1,
      "note": 68,
      "start": 56.0239,
      "duration": 0.5995,
      "velocity": 73,
      "chip": "ym2612"
    },
    {
      "channel": 2,
      "note": 93,
      "start": 56.0251,
      "duration": 0.0001,
      "velocity": 119,
      "chip": "ym2612"
    },
    {
      "channel": 2,
      "note": 93,
      "start": 56.0253,
      "duration": 0.0009,
      "velocity": 119,
      "chip": "ym2612"
    },
    {
      "channel": 2,
      "note": 93,
      "start": 56.0262,
      "duration": 0.047,
      "velocity": 119,
      "chip": "ym2612"
    },
    {
      "channel": 3,
      "note": 84,
      "start": 56.0274,
      "duration": 0.5981,
      "velocity": 95,
      "chip": "ym2612"
    },
    {
      "channel": 4,
      "note": 75,
      "start": 56.028,
      "duration": 0.1969,
      "velocity": 95,
      "chip": "ym2612"
    },
    {
      "channel": 2,
      "note": 93,
      "start": 56.0732,
      "duration": 0.0667,
      "velocity": 119,
      "chip": "ym2612"
    },
    {
      "channel": 5,
      "note": 87,
      "start": 56.1243,
      "duration": 0.5993,
      "velocity": 100,
      "chip": "ym2612"
    },
    {
      "channel": 2,
      "note": 93,
      "start": 56.2242,
      "duration": 0.049,
      "velocity": 119,
      "chip": "ym2612"
    },
    {
      "channel": 4,
      "note": 72,
      "start": 56.2254,
      "duration": 0.2007,
      "velocity": 95,
      "chip": "ym2612"
    },
    {
      "channel": 2,
      "note": 93,
      "start": 56.4242,
      "duration": 0.0001,
      "velocity": 122,
      "chip": "ym2612"
    },
    {
      "channel": 2,
      "note": 93,
      "start": 56.4243,
      "duration": 0.001,
      "velocity": 122,
      "chip": "ym2612"
    },
    {
      "channel": 2,
      "note": 93,
      "start": 56.4253,
      "duration": 0.1146,
      "velocity": 122,
      "chip": "ym2612"
    },
    {
      "channel": 4,
      "note": 68,
      "start": 56.4266,
      "duration": 0.1996,
      "velocity": 95,
      "chip": "ym2612"
    },
    {
      "channel": 2,
      "note": 93,
      "start": 56.5398,
      "duration": 0.0001,
      "velocity": 122,
      "chip": "ym2612"
    },
    {
      "channel": 0,
      "note": 85,
      "start": 56.6232,
      "duration": 0.5994,
      "velocity": 100,
      "chip": "ym2612"
    },
    {
      "channel": 1,
      "note": 68,
      "start": 56.6239,
      "duration": 0.1992,
      "velocity": 73,
      "chip": "ym2612"
    },
    {
      "channel": 2,
      "note": 93,
      "start": 56.625,
      "duration": 0.0481,
      "velocity": 119,
      "chip": "ym2612"
    },
    {
      "channel": 3,
      "note": 82,
      "start": 56.626,
      "duration": 0.5995,
      "velocity": 95,
      "chip": "ym2612"
    },
    {
      "channel": 4,
      "note": 75,
      "start": 56.6266,
      "duration": 0.1999,
      "velocity": 95,
      "chip": "ym2612"
    },
    {
      "channel": 5,
      "note": 85,
      "start": 56.724,
      "duration": 0.5998,
      "velocity": 100,
      "chip": "ym2612"
    },
    {
      "channel": 1,
      "note": 68,
      "start": 56.8234,
      "duration": 0.4,
      "velocity": 73,
      "chip": "ym2612"
    },
    {
      "channel": 2,
      "note": 93,
      "start": 56.8246,
      "duration": 0.0001,
      "velocity": 119,
      "chip": "ym2612"
    },
    {
      "channel": 2,
      "note": 93,
      "start": 56.8247,
      "duration": 0.001,
      "velocity": 119,
      "chip": "ym2612"
    },
    {
      "channel": 2,
      "note": 93,
      "start": 56.8257,
      "duration": 0.0475,
      "velocity": 119,
      "chip": "ym2612"
    },
    {
      "channel": 4,
      "note": 72,
      "start": 56.8269,
      "duration": 0.198,
      "velocity": 95,
      "chip": "ym2612"
    },
    {
      "channel": 2,
      "note": 93,
      "start": 56.8732,
      "duration": 0.0501,
      "velocity": 119,
      "chip": "ym2612"
    },
    {
      "channel": 2,
      "note": 93,
      "start": 56.9232,
      "duration": 0.001,
      "velocity": 119,
      "chip": "ym2612"
    },
    {
      "channel": 2,
      "note": 93,
      "start": 56.9242,
      "duration": 0.0159,
      "velocity": 119,
      "chip": "ym2612"
    },
    {
      "channel": 2,
      "note": 93,
      "start": 56.9401,
      "duration": 0.0331,
      "velocity": 119,
      "chip": "ym2612"
    },
    {
      "channel": 2,
      "note": 93,
      "start": 57.0243,
      "duration": 0.0489,
      "velocity": 119,
      "chip": "ym2612"
    },
    {
      "channel": 4,
      "note": 68,
      "start": 57.0254,
      "duration": 0.2008,
      "velocity": 95,
      "chip": "ym2612"
    },
    {
      "channel": 0,
      "note": 84,
      "start": 57.2233,
      "duration": 1.9994,
      "velocity": 100,
      "chip": "ym2612"
    },
    {
      "channel": 1,
      "note": 68,
      "start": 57.2239,
      "duration": 0.5992,
      "velocity": 73,
      "chip": "ym2612"
    },
    {
      "channel": 2,
      "note": 93,
      "start": 57.225,
      "duration": 0.1148,
      "velocity": 122,
      "chip": "ym2612"
    },
    {
      "channel": 3,
      "note": 80,
      "start": 57.2261,
      "duration": 2.0007,
      "velocity": 95,
      "chip": "ym2612"
    },
    {
      "channel": 4,
      "note": 75,
      "start": 57.2266,
      "duration": 0.1982,
      "velocity": 95,
      "chip": "ym2612"
    },
    {
      "channel": 5,
      "note": 84,
      "start": 57.3243,
      "duration": 1.9995,
      "velocity": 100,
      "chip": "ym2612"
    },
    {
      "channel": 2,
      "note": 93,
      "start": 57.4242,
      "duration": 0.049,
      "velocity": 119,
      "chip": "ym2612"
    },
    {
      "channel": 4,
      "note": 72,
      "start": 57.4254,
      "duration": 0.1995,
      "velocity": 95,
      "chip": "ym2612"
    },
    {
      "channel": 2,
      "note": 93,
      "start": 57.6243,
      "duration": 0.0489,
      "velocity": 119,
      "chip": "ym2612"
    },
    {
      "channel": 4,
      "note": 68,
      "start": 57.6254,
      "duration": 0.2011,
      "velocity": 95,
      "chip": "ym2612"
    },
    {
      "channel": 1,
      "note": 68,
      "start": 57.8234,
      "duration": 0.1996,
      "velocity": 73,
      "chip": "ym2612"
    },
    {
      "channel": 2,
      "note": 93,
      "start": 57.8246,
      "duration": 0.0001,
      "velocity": 119,
      "chip": "ym2612"
    },
    {
      "channel": 2,
      "note": 93,
      "start": 57.8247,
      "duration": 0.001,
      "velocity": 119,
      "chip": "ym2612"
    },
    {
      "channel": 2,
      "note": 93,
      "start": 57.8257,
      "duration": 0.0475,
      "velocity": 119,
      "chip": "ym2612"
    },
    {
      "channel": 4,
      "note": 75,
      "start": 57.8269,
      "duration": 0.1984,
      "velocity": 95,
      "chip": "ym2612"
    },
    {
      "channel": 2,
      "note": 93,
      "start": 57.8732,
      "duration": 0.0501,
      "velocity": 119,
      "chip": "ym2612"
    },
    {
      "channel": 2,
      "note": 93,
      "start": 57.9232,
      "duration": 0.001,
      "velocity": 119,
      "chip": "ym2612"
    },
    {
      "channel": 2,
      "note": 93,
      "start": 57.9243,
      "duration": 0.0159,
      "velocity": 119,
      "chip": "ym2612"
    },
    {
      "channel": 2,
      "note": 93,
      "start": 57.9401,
      "duration": 0.0332,
      "velocity": 119,
      "chip": "ym2612"
    },
    {
      "channel": 1,
      "note": 73,
      "start": 58.0235,
      "duration": 0.1996,
      "velocity": 73,
      "chip": "ym2612"
    },
    {
      "channel": 2,
      "note": 93,
      "start": 58.0247,
      "duration": 0.1151,
      "velocity": 122,
      "chip": "ym2612"
    },
    {
      "channel": 4,
      "note": 72,
      "start": 58.0258,
      "duration": 0.1996,
      "velocity": 95,
      "chip": "ym2612"
    },
    {
      "channel": 1,
      "note": 68,
      "start": 58.2235,
      "duration": 0.1996,
      "velocity": 73,
      "chip": "ym2612"
    },
    {
      "channel": 2,
      "note": 93,
      "start": 58.2247,
      "duration": 0.0485,
      "velocity": 119,
      "chip": "ym2612"
    },
    {
      "channel": 4,
      "note": 75,
      "start": 58.2258,
      "duration": 0.2008,
      "velocity": 95,
      "chip": "ym2612"
    },
    {
      "channel": 1,
      "note": 72,
      "start": 58.4235,
      "duration": 0.1996,
      "velocity": 73,
      "chip": "ym2612"
    },
    {
      "channel": 2,
      "note": 93,
      "start": 58.4247,
      "duration": 0.0001,
      "velocity": 119,
      "chip": "ym2612"
    },
    {
      "channel": 2,
      "note": 93,
      "start": 58.4248,
      "duration": 0.0009,
      "velocity": 119,
      "chip": "ym2612"
    },
    {
      "channel": 2,
      "note": 93,
      "start": 58.4257,
      "duration": 0.0475,
      "velocity": 119,
      "chip": "ym2612"
    },
    {
      "channel": 4,
      "note": 76,
      "start": 58.4271,
      "duration": 0.1983,
      "velocity": 95,
      "chip": "ym2612"
    },
    {
      "channel": 2,
      "note": 93,
      "start": 58.4732,
      "duration": 0.0667,
      "velocity": 119,
      "chip": "ym2612"
    },
    {
      "channel": 1,
      "note": 68,
      "start": 58.6235,
      "duration": 0.1996,
      "velocity": 73,
      "chip": "ym2612"
    },
    {
      "channel": 2,
      "note": 93,
      "start": 58.6247,
      "duration": 0.0485,
      "velocity": 119,
      "chip": "ym2612"
    },
    {
      "channel": 4,
      "note": 75,
      "start": 58.6258,
      "duration": 0.1996,
      "velocity": 95,
      "chip": "ym2612"
    },
    {
      "channel": 1,
      "note": 68,
      "start": 58.8235,
      "duration": 0.1996,
      "velocity": 73,
      "chip": "ym2612"
    },
    {
      "channel": 2,
      "note": 93,
      "start": 58.8247,
      "duration": 0.1152,
      "velocity": 122,
      "chip": "ym2612"
    },
    {
      "channel": 4,
      "note": 72,
      "start": 58.8258,
      "duration": 0.1996,
      "velocity": 95,
      "chip": "ym2612"
    },
    {
      "channel": 1,
      "note": 68,
      "start": 59.0236,
      "duration": 0.1998,
      "velocity": 73,
      "chip": "ym2612"
    },
    {
      "channel": 2,
      "note": 93,
      "start": 59.0247,
      "duration": 0.0485,
      "velocity": 119,
      "chip": "ym2612"
    },
    {
      "channel": 4,
      "note": 68,
      "start": 59.0259,
      "duration": 0.2016,
      "velocity": 95,
      "chip": "ym2612"
    },
    {
      "channel": 0,
      "note": 84,
      "start": 59.2232,
      "duration": 0.5995,
      "velocity": 100,
      "chip": "ym2612"
    },
    {
      "channel": 1,
      "note": 66,
      "start": 59.2238,
      "duration": 0.4993,
      "velocity": 73,
      "chip": "ym2612"
    },
    {
      "channel": 2,
      "note": 93,
      "start": 59.2251,
      "duration": 0.0001,
      "velocity": 119,
      "chip": "ym2612"
    },
    {
      "channel": 2,
      "note": 93,
      "start": 59.2252,
      "duration": 0.0009,
      "velocity": 119,
      "chip": "ym2612"
    },
    {
      "channel": 2,
      "note": 93,
      "start": 59.2261,
      "duration": 0.0471,
      "velocity": 119,
      "chip": "ym2612"
    },
    {
      "channel": 3,
      "note": 80,
      "start": 59.2273,
      "duration": 0.5977,
      "velocity": 95,
      "chip": "ym2612"
    },
    {
      "channel": 4,
      "note": 70,
      "start": 59.2279,
      "duration": 0.1969,
      "velocity": 95,
      "chip": "ym2612"
    },
    {
      "channel": 2,
      "note": 93,
      "start": 59.2732,
      "duration": 0.0667,
      "velocity": 119,
      "chip": "ym2612"
    },
    {
      "channel": 5,
      "note": 84,
      "start": 59.3242,
      "duration": 0.5994,
      "velocity": 100,
      "chip": "ym2612"
    },
    {
      "channel": 2,
      "note": 93,
      "start": 59.4242,
      "duration": 0.049,
      "velocity": 119,
      "chip": "ym2612"
    },
    {
      "channel": 4,
      "note": 66,
      "start": 59.4254,
      "duration": 0.2007,
      "velocity": 95,
      "chip": "ym2612"
    },
    {
      "channel": 2,
      "note": 93,
      "start": 59.6242,
      "duration": 0.0001,
      "velocity": 122,
      "chip": "ym2612"
    },
    {
      "channel": 2,
      "note": 93,
      "start": 59.6243,
      "duration": 0.001,
      "velocity": 122,
      "chip": "ym2612"
    },
    {
      "channel": 2,
      "note": 93,
      "start": 59.6253,
      "duration": 0.1146,
      "velocity": 122,
      "chip": "ym2612"
    },
    {
      "channel": 4,
      "note": 70,
      "start": 59.6266,
      "duration": 0.199,
      "velocity": 95,
      "chip": "ym2612"
    },
    {
      "channel": 1,
      "note": 66,
      "start": 59.7235,
      "duration": 0.2996,
      "velocity": 73,
      "chip": "ym2612"
    },
    {
      "channel": 2,
      "note": 93,
      "start": 59.7398,
      "duration": 0.0001,
      "velocity": 122,
      "chip": "ym2612"
    },
    {
      "channel": 0,
      "note": 83,
      "start": 59.8232,
      "duration": 0.5994,
      "velocity": 100,
      "chip": "ym2612"
    },
    {
      "channel": 2,
      "note": 93,
      "start": 59.8246,
      "duration": 0.0486,
      "velocity": 119,
      "chip": "ym2612"
    },
    {
      "channel": 3,
      "note": 80,
      "start": 59.8255,
      "duration": 0.6,
      "velocity": 95,
      "chip": "ym2612"
    },
    {
      "channel": 4,
      "note": 73,
      "start": 59.8261,
      "duration": 0.2004,
      "velocity": 95,
      "chip": "ym2612"
    },
    {
      "channel": 5,
      "note": 83,
      "start": 59.924,
      "duration": 0.5998,
      "velocity": 100,
      "chip": "ym2612"
    },
    {
      "channel": 1,
      "note": 66,
      "start": 60.0234,
      "duration": 0.3999,
      "velocity": 73,
      "chip": "ym2612"
    },
    {
      "channel": 2,
      "note": 93,
      "start": 60.0246,
      "duration": 0.0001,
      "velocity": 119,
      "chip": "ym2612"
    },
    {
      "channel": 2,
      "note": 93,
      "start": 60.0247,
      "duration": 0.001,
      "velocity": 119,
      "chip": "ym2612"
    },
    {
      "channel": 2,
      "note": 93,
      "start": 60.0257,
      "duration": 0.0475,
      "velocity": 119,
      "chip": "ym2612"
    },
    {
      "channel": 4,
      "note": 70,
      "start": 60.0269,
      "duration": 0.198,
      "velocity": 95,
      "chip": "ym2612"
    },
    {
      "channel": 2,
      "note": 93,
      "start": 60.0732,
      "duration": 0.0501,
      "velocity": 119,
      "chip": "ym2612"
    },
    {
      "channel": 2,
      "note": 93,
      "start": 60.1232,
      "duration": 0.001,
      "velocity": 119,
      "chip": "ym2612"
    },
    {
      "channel": 2,
      "note": 93,
      "start": 60.1242,
      "duration": 0.0159,
      "velocity": 119,
      "chip": "ym2612"
    },
    {
      "channel": 2,
      "note": 93,
      "start": 60.1401,
      "duration": 0.0331,
      "velocity": 119,
      "chip": "ym2612"
    },
    {
      "channel": 2,
      "note": 93,
      "start": 60.2243,
      "duration": 0.0489,
      "velocity": 119,
      "chip": "ym2612"
    },
    {
      "channel": 4,
      "note": 73,
      "start": 60.2254,
      "duration": 0.2007,
      "velocity": 95,
      "chip": "ym2612"
    },
    {
      "channel": 0,
      "note": 82,
      "start": 60.4232,
      "duration": 1.1994,
      "velocity": 100,
      "chip": "ym2612"
    },
    {
      "channel": 1,
      "note": 66,
      "start": 60.4238,
      "duration": 0.5993,
      "velocity": 73,
      "chip": "ym2612"
    },
    {
      "channel": 2,
      "note": 93,
      "start": 60.425,
      "duration": 0.1149,
      "velocity": 122,
      "chip": "ym2612"
    },
    {
      "channel": 3,
      "note": 78,
      "start": 60.426,
      "duration": 2.0009,
      "velocity": 95,
      "chip": "ym2612"
    },
    {
      "channel": 4,
      "note": 70,
      "start": 60.4266,
      "duration": 0.1983,
      "velocity": 95,
      "chip": "ym2612"
    },
    {
      "channel": 5,
      "note": 82,
      "start": 60.5243,
      "duration": 1.1995,
      "velocity": 100,
      "chip": "ym2612"
    },
    {
      "channel": 2,
      "note": 93,
      "start": 60.6242,
      "duration": 0.049,
      "velocity": 119,
      "chip": "ym2612"
    },
    {
      "channel": 4,
      "note": 66,
      "start": 60.6254,
      "duration": 0.1995,
      "velocity": 95,
      "chip": "ym2612"
    },
    {
      "channel": 2,
      "note": 93,
      "start": 60.8243,
      "duration": 0.0489,
      "velocity": 119,
      "chip": "ym2612"
    },
    {
      "channel": 4,
      "note": 70,
      "start": 60.8254,
      "duration": 0.2011,
      "velocity": 95,
      "chip": "ym2612"
    },
    {
      "channel": 1,
      "note": 66,
      "start": 61.0234,
      "duration": 0.1996,
      "velocity": 73,
      "chip": "ym2612"
    },
    {
      "channel": 2,
      "note": 93,
      "start": 61.0246,
      "duration": 0.0001,
      "velocity": 119,
      "chip": "ym2612"
    },
    {
      "channel": 2,
      "note": 93,
      "start": 61.0247,
      "duration": 0.001,
      "velocity": 119,
      "chip": "ym2612"
    },
    {
      "channel": 2,
      "note": 93,
      "start": 61.0257,
      "duration": 0.0475,
      "velocity": 119,
      "chip": "ym2612"
    },
    {
      "channel": 4,
      "note": 73,
      "start": 61.0269,
      "duration": 0.1983,
      "velocity": 95,
      "chip": "ym2612"
    },
    {
      "channel": 2,
      "note": 93,
      "start": 61.0732,
      "duration": 0.0501,
      "velocity": 119,
      "chip": "ym2612"
    },
    {
      "channel": 2,
      "note": 93,
      "start": 61.1232,
      "duration": 0.001,
      "velocity": 119,
      "chip": "ym2612"
    },
    {
      "channel": 2,
      "note": 93,
      "start": 61.1243,
      "duration": 0.0159,
      "velocity": 119,
      "chip": "ym2612"
    },
    {
      "channel": 2,
      "note": 93,
      "start": 61.1401,
      "duration": 0.0332,
      "velocity": 119,
      "chip": "ym2612"
    },
    {
      "channel": 1,
      "note": 66,
      "start": 61.2234,
      "duration": 0.3999,
      "velocity": 73,
      "chip": "ym2612"
    },
    {
      "channel": 2,
      "note": 93,
      "start": 61.2246,
      "duration": 0.1152,
      "velocity": 122,
      "chip": "ym2612"
    },
    {
      "channel": 4,
      "note": 75,
      "start": 61.2257,
      "duration": 0.1992,
      "velocity": 95,
      "chip": "ym2612"
    },
    {
      "channel": 2,
      "note": 93,
      "start": 61.4243,
      "duration": 0.0489,
      "velocity": 119,
      "chip": "ym2612"
    },
    {
      "channel": 4,
      "note": 73,
      "start": 61.4254,
      "duration": 0.2015,
      "velocity": 95,
      "chip": "ym2612"
    },
    {
      "channel": 0,
      "note": 82,
      "start": 61.6232,
      "duration": 0.3995,
      "velocity": 100,
      "chip": "ym2612"
    },
    {
      "channel": 1,
      "note": 64,
      "start": 61.6238,
      "duration": 0.3996,
      "velocity": 73,
      "chip": "ym2612"
    },
    {
      "channel": 2,
      "note": 93,
      "start": 61.625,
      "duration": 0.0001,
      "velocity": 119,
      "chip": "ym2612"
    },
    {
      "channel": 2,
      "note": 93,
      "start": 61.6251,
      "duration": 0.0009,
      "velocity": 119,
      "chip": "ym2612"
    },
    {
      "channel": 2,
      "note": 93,
      "start": 61.626,
      "duration": 0.0472,
      "velocity": 119,
      "chip": "ym2612"
    },
    {
      "channel": 4,
      "note": 70,
      "start": 61.6273,
      "duration": 0.1975,
      "velocity": 95,
      "chip": "ym2612"
    },
    {
      "channel": 2,
      "note": 93,
      "start": 61.6732,
      "duration": 0.0667,
      "velocity": 119,
      "chip": "ym2612"
    },
    {
      "channel": 5,
      "note": 82,
      "start": 61.7242,
      "duration": 0.3996,
      "velocity": 100,
      "chip": "ym2612"
    },
    {
      "channel": 2,
      "note": 93,
      "start": 61.8242,
      "duration": 0.049,
      "velocity": 119,
      "chip": "ym2612"
    },
    {
      "channel": 4,
      "note": 73,
      "start": 61.8254,
      "duration": 0.2003,
      "velocity": 95,
      "chip": "ym2612"
    },
    {
      "channel": 0,
      "note": 85,
      "start": 62.0232,
      "duration": 0.3994,
      "velocity": 100,
      "chip": "ym2612"
    },
    {
      "channel": 1,
      "note": 66,
      "start": 62.0238,
      "duration": 0.3996,
      "velocity": 73,
      "chip": "ym2612"
    },
    {
      "channel": 2,
      "note": 93,
      "start": 62.025,
      "duration": 0.1148,
      "velocity": 122,
      "chip": "ym2612"
    },
    {
      "channel": 4,
      "note": 75,
      "start": 62.0261,
      "duration": 0.1987,
      "velocity": 95,
      "chip": "ym2612"
    },
    {
      "channel": 5,
      "note": 85,
      "start": 62.1243,
      "duration": 0.3995,
      "velocity": 100,
      "chip": "ym2612"
    },
    {
      "channel": 2,
      "note": 93,
      "start": 62.2242,
      "duration": 0.049,
      "velocity": 119,
      "chip": "ym2612"
    },
    {
      "channel": 4,
      "note": 73,
      "start": 62.2254,
      "duration": 0.2022,
      "velocity": 95,
      "chip": "ym2612"
    },
    {
      "channel": 0,
      "note": 87,
      "start": 62.4232,
      "duration": 0.5994,
      "velocity": 100,
      "chip": "ym2612"
    },
    {
      "channel": 1,
      "note": 68,
      "start": 62.4239,
      "duration": 0.5994,
      "velocity": 73,
      "chip": "ym2612"
    },
    {
      "channel": 2,
      "note": 93,
      "start": 62.4251,
      "duration": 0.0001,
      "velocity": 119,
      "chip": "ym2612"
    },
    {
      "channel": 2,
      "note": 93,
      "start": 62.4253,
      "duration": 0.0009,
      "velocity": 119,
      "chip": "ym2612"
    },
    {
      "channel": 2,
      "note": 93,
      "start": 62.4262,
      "duration": 0.047,
      "velocity": 119,
      "chip": "ym2612"
    },
    {
      "channel": 3,
      "note": 84,
      "start": 62.4274,
      "duration": 0.5981,
      "velocity": 95,
      "chip": "ym2612"
    },
    {
      "channel": 4,
      "note": 68,
      "start": 62.428,
      "duration": 0.1969,
      "velocity": 95,
      "chip": "ym2612"
    },
    {
      "channel": 2,
      "note": 93,
      "start": 62.4732,
      "duration": 0.0667,
      "velocity": 119,
      "chip": "ym2612"
    },
    {
      "channel": 5,
      "note": 87,
      "start": 62.5243,
      "duration": 0.5993,
      "velocity": 100,
      "chip": "ym2612"
    },
    {
      "channel": 2,
      "note": 93,
      "start": 62.6242,
      "duration": 0.049,
      "velocity": 119,
      "chip": "ym2612"
    },
    {
      "channel": 4,
      "note": 72,
      "start": 62.6254,
      "duration": 0.2007,
      "velocity": 95,
      "chip": "ym2612"
    },
    {
      "channel": 2,
      "note": 93,
      "start": 62.8242,
      "duration": 0.0001,
      "velocity": 122,
      "chip": "ym2612"
    },
    {
      "channel": 2,
      "note": 93,
      "start": 62.8243,
      "duration": 0.001,
      "velocity": 122,
      "chip": "ym2612"
    },
    {
      "channel": 2,
      "note": 93,
      "start": 62.8253,
      "duration": 0.1146,
      "velocity": 122,
      "chip": "ym2612"
    },
    {
      "channel": 4,
      "note": 75,
      "start": 62.8266,
      "duration": 0.1995,
      "velocity": 95,
      "chip": "ym2612"
    },
    {
      "channel": 2,
      "note": 93,
      "start": 62.9398,
      "duration": 0.0001,
      "velocity": 122,
      "chip": "ym2612"
    },
    {
      "channel": 0,
      "note": 87,
      "start": 63.0232,
      "duration": 0.5995,
      "velocity": 100,
      "chip": "ym2612"
    },
    {
      "channel": 1,
      "note": 68,
      "start": 63.0238,
      "duration": 0.1993,
      "velocity": 73,
      "chip": "ym2612"
    },
    {
      "channel": 2,
      "note": 93,
      "start": 63.025,
      "duration": 0.0482,
      "velocity": 119,
      "chip": "ym2612"
    },
    {
      "channel": 3,
      "note": 82,
      "start": 63.0259,
      "duration": 0.5995,
      "velocity": 95,
      "chip": "ym2612"
    },
    {
      "channel": 4,
      "note": 72,
      "start": 63.0266,
      "duration": 0.1999,
      "velocity": 95,
      "chip": "ym2612"
    },
    {
      "channel": 5,
      "note": 87,
      "start": 63.1239,
      "duration": 0.5999,
      "velocity": 100,
      "chip": "ym2612"
    },
    {
      "channel": 1,
      "note": 68,
      "start": 63.2234,
      "duration": 0.3999,
      "velocity": 73,
      "chip": "ym2612"
    },
    {
      "channel": 2,
      "note": 93,
      "start": 63.2246,
      "duration": 0.0001,
      "velocity": 119,
      "chip": "ym2612"
    },
    {
      "channel": 2,
      "note": 93,
      "start": 63.2247,
      "duration": 0.001,
      "velocity": 119,
      "chip": "ym2612"
    },
    {
      "channel": 2,
      "note": 93,
      "start": 63.2257,
      "duration": 0.0475,
      "velocity": 119,
      "chip": "ym2612"
    },
    {
      "channel": 4,
      "note": 75,
      "start": 63.2269,
      "duration": 0.198,
      "velocity": 95,
      "chip": "ym2612"
    },
    {
      "channel": 2,
      "note": 93,
      "start": 63.2732,
      "duration": 0.0501,
      "velocity": 119,
      "chip": "ym2612"
    },
    {
      "channel": 2,
      "note": 93,
      "start": 63.3232,
      "duration": 0.001,
      "velocity": 119,
      "chip": "ym2612"
    },
    {
      "channel": 2,
      "note": 93,
      "start": 63.3242,
      "duration": 0.0159,
      "velocity": 119,
      "chip": "ym2612"
    },
    {
      "channel": 2,
      "note": 93,
      "start": 63.3401,
      "duration": 0.0331,
      "velocity": 119,
      "chip": "ym2612"
    },
    {
      "channel": 2,
      "note": 93,
      "start": 63.4243,
      "duration": 0.0489,
      "velocity": 119,
      "chip": "ym2612"
    },
    {
      "channel": 4,
      "note": 72,
      "start": 63.4254,
      "duration": 0.2007,
      "velocity": 95,
      "chip": "ym2612"
    },
    {
      "channel": 0,
      "note": 84,
      "start": 63.6232,
      "duration": 1.9994,
      "velocity": 100,
      "chip": "ym2612"
    },
    {
      "channel": 1,
      "note": 68,
      "start": 63.6238,
      "duration": 0.1993,
      "velocity": 73,
      "chip": "ym2612"
    },
    {
      "channel": 2,
      "note": 93,
      "start": 63.625,
      "duration": 0.1149,
      "velocity": 122,
      "chip": "ym2612"
    },
    {
      "channel": 3,
      "note": 80,
      "start": 63.626,
      "duration": 2.001,
      "velocity": 95,
      "chip": "ym2612"
    },
    {
      "channel": 4,
      "note": 68,
      "start": 63.6266,
      "duration": 0.1987,
      "velocity": 95,
      "chip": "ym2612"
    },
    {
      "channel": 5,
      "note": 84,
      "start": 63.7243,
      "duration": 1.9995,
      "velocity": 100,
      "chip": "ym2612"
    },
    {
      "channel": 1,
      "note": 68,
      "start": 63.8234,
      "duration": 0.3996,
      "velocity": 73,
      "chip": "ym2612"
    },
    {
      "channel": 2,
      "note": 93,
      "start": 63.8246,
      "duration": 0.0485,
      "velocity": 119,
      "chip": "ym2612"
    },
    {
      "channel": 4,
      "note": 72,
      "start": 63.8257,
      "duration": 0.1992,
      "velocity": 95,
      "chip": "ym2612"
    },
    {
      "channel": 2,
      "note": 93,
      "start": 64.0243,
      "duration": 0.0489,
      "velocity": 119,
      "chip": "ym2612"
    },
    {
      "channel": 4,
      "note": 75,
      "start": 64.0254,
      "duration": 0.2013,
      "velocity": 95,
      "chip": "ym2612"
    },
    {
      "channel": 1,
      "note": 64,
      "start": 64.2235,
      "duration": 0.1996,
      "velocity": 73,
      "chip": "ym2612"
    },
    {
      "channel": 2,
      "note": 93,
      "start": 64.2247,
      "duration": 0.0001,
      "velocity": 119,
      "chip": "ym2612"
    },
    {
      "channel": 2,
      "note": 93,
      "start": 64.2248,
      "duration": 0.0009,
      "velocity": 119,
      "chip": "ym2612"
    },
    {
      "channel": 2,
      "note": 93,
      "start": 64.2257,
      "duration": 0.0474,
      "velocity": 119,
      "chip": "ym2612"
    },
    {
      "channel": 4,
      "note": 76,
      "start": 64.2271,
      "duration": 0.3978,
      "velocity": 95,
      "chip": "ym2612"
    },
    {
      "channel": 2,
      "note": 93,
      "start": 64.2732,
      "duration": 0.0501,
      "velocity": 119,
      "chip": "ym2612"
    },
    {
      "channel": 2,
      "note": 93,
      "start": 64.3232,
      "duration": 0.001,
      "velocity": 119,
      "chip": "ym2612"
    },
    {
      "channel": 2,
      "note": 93,
      "start": 64.3243,
      "duration": 0.0159,
      "velocity": 119,
      "chip": "ym2612"
    },
    {
      "channel": 2,
      "note": 93,
      "start": 64.3401,
      "duration": 0.0332,
      "velocity": 119,
      "chip": "ym2612"
    },
    {
      "channel": 1,
      "note": 64,
      "start": 64.4234,
      "duration": 0.3996,
      "velocity": 73,
      "chip": "ym2612"
    },
    {
      "channel": 2,
      "note": 93,
      "start": 64.4246,
      "duration": 0.1152,
      "velocity": 122,
      "chip": "ym2612"
    },
    {
      "channel": 2,
      "note": 93,
      "start": 64.6243,
      "duration": 0.0489,
      "velocity": 119,
      "chip": "ym2612"
    },
    {
      "channel": 4,
      "note": 78,
      "start": 64.6254,
      "duration": 0.6,
      "velocity": 95,
      "chip": "ym2612"
    },
    {
      "channel": 1,
      "note": 65,
      "start": 64.8235,
      "duration": 0.3996,
      "velocity": 73,
      "chip": "ym2612"
    },
    {
      "channel": 2,
      "note": 93,
      "start": 64.8247,
      "duration": 0.0001,
      "velocity": 119,
      "chip": "ym2612"
    },
    {
      "channel": 2,
      "note": 93,
      "start": 64.8248,
      "duration": 0.0009,
      "velocity": 119,
      "chip": "ym2612"
    },
    {
      "channel": 2,
      "note": 93,
      "start": 64.8257,
      "duration": 0.0475,
      "velocity": 119,
      "chip": "ym2612"
    },
    {
      "channel": 2,
      "note": 93,
      "start": 64.8732,
      "duration": 0.0667,
      "velocity": 119,
      "chip": "ym2612"
    },
    {
      "channel": 2,
      "note": 93,
      "start": 65.0243,
      "duration": 0.049,
      "velocity": 119,
      "chip": "ym2612"
    },
    {
      "channel": 1,
      "note": 66,
      "start": 65.2235,
      "duration": 0.4,
      "velocity": 73,
      "chip": "ym2612"
    },
    {
      "channel": 2,
      "note": 93,
      "start": 65.2247,
      "duration": 0.1152,
      "velocity": 122,
      "chip": "ym2612"
    },
    {
      "channel": 4,
      "note": 76,
      "start": 65.2258,
      "duration": 0.4018,
      "velocity": 95,
      "chip": "ym2612"
    },
    {
      "channel": 2,
      "note": 93,
      "start": 65.4243,
      "duration": 0.049,
      "velocity": 119,
      "chip": "ym2612"
    },
    {
      "channel": 0,
      "note": 87,
      "start": 65.6233,
      "duration": 0.5994,
      "velocity": 100,
      "chip": "ym2612"
    },
    {
      "channel": 1,
      "note": 69,
      "start": 65.6239,
      "duration": 0.5994,
      "velocity": 73,
      "chip": "ym2612"
    },
    {
      "channel": 2,
      "note": 93,
      "start": 65.6252,
      "duration": 0.0001,
      "velocity": 119,
      "chip": "ym2612"
    },
    {
      "channel": 2,
      "note": 93,
      "start": 65.6254,
      "duration": 0.0009,
      "velocity": 119,
      "chip": "ym2612"
    },
    {
      "channel": 2,
      "note": 93,
      "start": 65.6262,
      "duration": 0.0469,
      "velocity": 119,
      "chip": "ym2612"
    },
    {
      "channel": 3,
      "note": 83,
      "start": 65.6274,
      "duration": 0.5981,
      "velocity": 95,
      "chip": "ym2612"
    },
    {
      "channel": 4,
      "note": 76,
      "start": 65.628,
      "duration": 0.1968,
      "velocity": 95,
      "chip": "ym2612"
    },
    {
      "channel": 2,
      "note": 93,
      "start": 65.6732,
      "duration": 0.0667,
      "velocity": 119,
      "chip": "ym2612"
    },
    {
      "channel": 5,
      "note": 87,
      "start": 65.7243,
      "duration": 0.5992,
      "velocity": 100,
      "chip": "ym2612"
    },
    {
      "channel": 2,
      "note": 93,
      "start": 65.8242,
      "duration": 0.049,
      "velocity": 119,
      "chip": "ym2612"
    },
    {
      "channel": 4,
      "note": 73,
      "start": 65.8254,
      "duration": 0.2007,
      "velocity": 95,
      "chip": "ym2612"
    },
    {
      "channel": 2,
      "note": 93,
      "start": 66.0242,
      "duration": 0.0001,
      "velocity": 122,
      "chip": "ym2612"
    },
    {
      "channel": 2,
      "note": 93,
      "start": 66.0243,
      "duration": 0.001,
      "velocity": 122,
      "chip": "ym2612"
    },
    {
      "channel": 2,
      "note": 93,
      "start": 66.0253,
      "duration": 0.1146,
      "velocity": 122,
      "chip": "ym2612"
    },
    {
      "channel": 4,
      "note": 69,
      "start": 66.0266,
      "duration": 0.1996,
      "velocity": 95,
      "chip": "ym2612"
    },
    {
      "channel": 2,
      "note": 93,
      "start": 66.1398,
      "duration": 0.0001,
      "velocity": 122,
      "chip": "ym2612"
    },
    {
      "channel": 0,
      "note": 88,
      "start": 66.2232,
      "duration": 1.3994,
      "velocity": 100,
      "chip": "ym2612"
    },
    {
      "channel": 1,
      "note": 69,
      "start": 66.2239,
      "duration": 0.1992,
      "velocity": 73,
      "chip": "ym2612"
    },
    {
      "channel": 2,
      "note": 93,
      "start": 66.225,
      "duration": 0.0481,
      "velocity": 119,
      "chip": "ym2612"
    },
    {
      "channel": 3,
      "note": 85,
      "start": 66.2261,
      "duration": 0.2003,
      "velocity": 95,
      "chip": "ym2612"
    },
    {
      "channel": 4,
      "note": 76,
      "start": 66.2266,
      "duration": 0.2002,
      "velocity": 95,
      "chip": "ym2612"
    },
    {
      "channel": 5,
      "note": 88,
      "start": 66.324,
      "duration": 1.3998,
      "velocity": 100,
      "chip": "ym2612"
    },
    {
      "channel": 1,
      "note": 69,
      "start": 66.4234,
      "duration": 0.1996,
      "velocity": 73,
      "chip": "ym2612"
    },
    {
      "channel": 2,
      "note": 93,
      "start": 66.4246,
      "duration": 0.0001,
      "velocity": 119,
      "chip": "ym2612"
    },
    {
      "channel": 2,
      "note": 93,
      "start": 66.4247,
      "duration": 0.001,
      "velocity": 119,
      "chip": "ym2612"
    },
    {
      "channel": 2,
      "note": 93,
      "start": 66.4257,
      "duration": 0.0475,
      "velocity": 119,
      "chip": "ym2612"
    },
    {
      "channel": 3,
      "note": 85,
      "start": 66.4268,
      "duration": 1.1987,
      "velocity": 95,
      "chip": "ym2612"
    },
    {
      "channel": 4,
      "note": 73,
      "start": 66.4274,
      "duration": 0.198,
      "velocity": 95,
      "chip": "ym2612"
    },
    {
      "channel": 2,
      "note": 93,
      "start": 66.4732,
      "duration": 0.0501,
      "velocity": 119,
      "chip": "ym2612"
    },
    {
      "channel": 2,
      "note": 93,
      "start": 66.5232,
      "duration": 0.001,
      "velocity": 119,
      "chip": "ym2612"
    },
    {
      "channel": 2,
      "note": 93,
      "start": 66.5242,
      "duration": 0.0159,
      "velocity": 119,
      "chip": "ym2612"
    },
    {
      "channel": 2,
      "note": 93,
      "start": 66.5401,
      "duration": 0.0331,
      "velocity": 119,
      "chip": "ym2612"
    },
    {
      "channel": 1,
      "note": 64,
      "start": 66.6235,
      "duration": 0.3996,
      "velocity": 73,
      "chip": "ym2612"
    },
    {
      "channel": 2,
      "note": 93,
      "start": 66.6247,
      "duration": 0.0485,
      "velocity": 119,
      "chip": "ym2612"
    },
    {
      "channel": 4,
      "note": 69,
      "start": 66.6258,
      "duration": 0.199,
      "velocity": 95,
      "chip": "ym2612"
    },
    {
      "channel": 2,
      "note": 93,
      "start": 66.8242,
      "duration": 0.1156,
      "velocity": 122,
      "chip": "ym2612"
    },
    {
      "channel": 4,
      "note": 76,
      "start": 66.8254,
      "duration": 0.6012,
      "velocity": 95,
      "chip": "ym2612"
    },
    {
      "channel": 1,
      "note": 64,
      "start": 67.0234,
      "duration": 0.3996,
      "velocity": 73,
      "chip": "ym2612"
    },
    {
      "channel": 2,
      "note": 93,
      "start": 67.0246,
      "duration": 0.0485,
      "velocity": 119,
      "chip": "ym2612"
    },
    {
      "channel": 2,
      "note": 93,
      "start": 67.2243,
      "duration": 0.0489,
      "velocity": 119,
      "chip": "ym2612"
    },
    {
      "channel": 1,
      "note": 64,
      "start": 67.4234,
      "duration": 0.1999,
      "velocity": 73,
      "chip": "ym2612"
    },
    {
      "channel": 2,
      "note": 93,
      "start": 67.4246,
      "duration": 0.0001,
      "velocity": 119,
      "chip": "ym2612"
    },
    {
      "channel": 2,
      "note": 93,
      "start": 67.4248,
      "duration": 0.0009,
      "velocity": 119,
      "chip": "ym2612"
    },
    {
      "channel": 2,
      "note": 93,
      "start": 67.4257,
      "duration": 0.0476,
      "velocity": 119,
      "chip": "ym2612"
    },
    {
      "channel": 4,
      "note": 69,
      "start": 67.427,
      "duration": 0.199,
      "velocity": 95,
      "chip": "ym2612"
    },
    {
      "channel": 2,
      "note": 93,
      "start": 67.4732,
      "duration": 0.05,
      "velocity": 119,
      "chip": "ym2612"
    },
    {
      "channel": 2,
      "note": 93,
      "start": 67.5232,
      "duration": 0.001,
      "velocity": 119,
      "chip": "ym2612"
    },
    {
      "channel": 2,
      "note": 93,
      "start": 67.5243,
      "duration": 0.0159,
      "velocity": 119,
      "chip": "ym2612"
    },
    {
      "channel": 2,
      "note": 93,
      "start": 67.5401,
      "duration": 0.0331,
      "velocity": 119,
      "chip": "ym2612"
    },
    {
      "channel": 0,
      "note": 88,
      "start": 67.6232,
      "duration": 0.3995,
      "velocity": 100,
      "chip": "ym2612"
    },
    {
      "channel": 1,
      "note": 63,
      "start": 67.6238,
      "duration": 0.3996,
      "velocity": 73,
      "chip": "ym2612"
    },
    {
      "channel": 2,
      "note": 93,
      "start": 67.625,
      "duration": 0.1149,
      "velocity": 122,
      "chip": "ym2612"
    },
    {
      "channel": 3,
      "note": 85,
      "start": 67.6259,
      "duration": 0.4008,
      "velocity": 95,
      "chip": "ym2612"
    },
    {
      "channel": 4,
      "note": 73,
      "start": 67.6265,
      "duration": 0.1983,
      "velocity": 95,
      "chip": "ym2612"
    },
    {
      "channel": 5,
      "note": 88,
      "start": 67.7242,
      "duration": 0.3996,
      "velocity": 100,
      "chip": "ym2612"
    },
    {
      "channel": 2,
      "note": 93,
      "start": 67.8242,
      "duration": 0.049,
      "velocity": 119,
      "chip": "ym2612"
    },
    {
      "channel": 4,
      "note": 76,
      "start": 67.8254,
      "duration": 0.202,
      "velocity": 95,
      "chip": "ym2612"
    },
    {
      "channel": 0,
      "note": 90,
      "start": 68.0232,
      "duration": 0.3994,
      "velocity": 100,
      "chip": "ym2612"
    },
    {
      "channel": 1,
      "note": 64,
      "start": 68.0238,
      "duration": 0.3996,
      "velocity": 73,
      "chip": "ym2612"
    },
    {
      "channel": 2,
      "note": 93,
      "start": 68.025,
      "duration": 0.0001,
      "velocity": 119,
      "chip": "ym2612"
    },
    {
      "channel": 2,
      "note": 93,
      "start": 68.0251,
      "duration": 0.0009,
      "velocity": 119,
      "chip": "ym2612"
    },
    {
      "channel": 2,
      "note": 93,
      "start": 68.0261,
      "duration": 0.0471,
      "velocity": 119,
      "chip": "ym2612"
    },
    {
      "channel": 3,
      "note": 87,
      "start": 68.0272,
      "duration": 0.3983,
      "velocity": 95,
      "chip": "ym2612"
    },
    {
      "channel": 4,
      "note": 78,
      "start": 68.0278,
      "duration": 0.197,
      "velocity": 95,
      "chip": "ym2612"
    },
    {
      "channel": 2,
      "note": 93,
      "start": 68.0732,
      "duration": 0.0667,
      "velocity": 119,
      "chip": "ym2612"
    },
    {
      "channel": 5,
      "note": 90,
      "start": 68.1243,
      "duration": 0.3995,
      "velocity": 100,
      "chip": "ym2612"
    },
    {
      "channel": 2,
      "note": 93,
      "start": 68.2242,
      "duration": 0.049,
      "velocity": 119,
      "chip": "ym2612"
    },
    {
      "channel": 4,
      "note": 76,
      "start": 68.2254,
      "duration": 0.2007,
      "velocity": 95,
      "chip": "ym2612"
    },
    {
      "channel": 0,
      "note": 88,
      "start": 68.4232,
      "duration": 0.3994,
      "velocity": 100,
      "chip": "ym2612"
    },
    {
      "channel": 1,
      "note": 64,
      "start": 68.4238,
      "duration": 0.3996,
      "velocity": 73,
      "chip": "ym2612"
    },
    {
      "channel": 2,
      "note": 93,
      "start": 68.425,
      "duration": 0.1148,
      "velocity": 122,
      "chip": "ym2612"
    },
    {
      "channel": 3,
      "note": 85,
      "start": 68.426,
      "duration": 0.4009,
      "velocity": 95,
      "chip": "ym2612"
    },
    {
      "channel": 4,
      "note": 73,
      "start": 68.4266,
      "duration": 0.4009,
      "velocity": 95,
      "chip": "ym2612"
    },
    {
      "channel": 5,
      "note": 88,
      "start": 68.5243,
      "duration": 0.3995,
      "velocity": 100,
      "chip": "ym2612"
    },
    {
      "channel": 2,
      "note": 93,
      "start": 68.6242,
      "duration": 0.049,
      "velocity": 119,
      "chip": "ym2612"
    },
    {
      "channel": 0,
      "note": 87,
      "start": 68.8232,
      "duration": 0.5994,
      "velocity": 100,
      "chip": "ym2612"
    },
    {
      "channel": 1,
      "note": 68,
      "start": 68.8239,
      "duration": 0.5995,
      "velocity": 73,
      "chip": "ym2612"
    },
    {
      "channel": 2,
      "note": 93,
      "start": 68.8251,
      "duration": 0.0001,
      "velocity": 119,
      "chip": "ym2612"
    },
    {
      "channel": 2,
      "note": 93,
      "start": 68.8253,
      "duration": 0.0009,
      "velocity": 119,
      "chip": "ym2612"
    },
    {
      "channel": 2,
      "note": 93,
      "start": 68.8262,
      "duration": 0.047,
      "velocity": 119,
      "chip": "ym2612"
    },
    {
      "channel": 3,
      "note": 84,
      "start": 68.8274,
      "duration": 0.5981,
      "velocity": 95,
      "chip": "ym2612"
    },
    {
      "channel": 4,
      "note": 75,
      "start": 68.828,
      "duration": 0.5981,
      "velocity": 95,
      "chip": "ym2612"
    },
    {
      "channel": 2,
      "note": 93,
      "start": 68.8732,
      "duration": 0.0667,
      "velocity": 119,
      "chip": "ym2612"
    },
    {
      "channel": 5,
      "note": 87,
      "start": 68.9243,
      "duration": 0.5993,
      "velocity": 100,
      "chip": "ym2612"
    },
    {
      "channel": 2,
      "note": 93,
      "start": 69.0242,
      "duration": 0.049,
      "velocity": 119,
      "chip": "ym2612"
    },
    {
      "channel": 2,
      "note": 93,
      "start": 69.2242,
      "duration": 0.0001,
      "velocity": 122,
      "chip": "ym2612"
    },
    {
      "channel": 2,
      "note": 93,
      "start": 69.2243,
      "duration": 0.001,
      "velocity": 122,
      "chip": "ym2612"
    },
    {
      "channel": 2,
      "note": 93,
      "start": 69.2253,
      "duration": 0.1146,
      "velocity": 122,
      "chip": "ym2612"
    },
    {
      "channel": 2,
      "note": 93,
      "start": 69.3398,
      "duration": 0.0001,
      "velocity": 122,
      "chip": "ym2612"
    },
    {
      "channel": 0,
      "note": 85,
      "start": 69.4232,
      "duration": 0.5994,
      "velocity": 100,
      "chip": "ym2612"
    },
    {
      "channel": 1,
      "note": 68,
      "start": 69.4238,
      "duration": 0.5996,
      "velocity": 73,
      "chip": "ym2612"
    },
    {
      "channel": 2,
      "note": 93,
      "start": 69.425,
      "duration": 0.0481,
      "velocity": 119,
      "chip": "ym2612"
    },
    {
      "channel": 3,
      "note": 82,
      "start": 69.426,
      "duration": 0.5996,
      "velocity": 95,
      "chip": "ym2612"
    },
    {
      "channel": 4,
      "note": 71,
      "start": 69.4266,
      "duration": 0.5997,
      "velocity": 95,
      "chip": "ym2612"
    },
    {
      "channel": 5,
      "note": 85,
      "start": 69.524,
      "duration": 0.5998,
      "velocity": 100,
      "chip": "ym2612"
    },
    {
      "channel": 2,
      "note": 93,
      "start": 69.6242,
      "duration": 0.0001,
      "velocity": 119,
      "chip": "ym2612"
    },
    {
      "channel": 2,
      "note": 93,
      "start": 69.6243,
      "duration": 0.0009,
      "velocity": 119,
      "chip": "ym2612"
    },
    {
      "channel": 2,
      "note": 93,
      "start": 69.6252,
      "duration": 0.048,
      "velocity": 119,
      "chip": "ym2612"
    },
    {
      "channel": 2,
      "note": 93,
      "start": 69.6732,
      "duration": 0.0501,
      "velocity": 119,
      "chip": "ym2612"
    },
    {
      "channel": 2,
      "note": 93,
      "start": 69.7232,
      "duration": 0.001,
      "velocity": 119,
      "chip": "ym2612"
    },
    {
      "channel": 2,
      "note": 93,
      "start": 69.7242,
      "duration": 0.0159,
      "velocity": 119,
      "chip": "ym2612"
    },
    {
      "channel": 2,
      "note": 93,
      "start": 69.7401,
      "duration": 0.0331,
      "velocity": 119,
      "chip": "ym2612"
    },
    {
      "channel": 2,
      "note": 93,
      "start": 69.8243,
      "duration": 0.0489,
      "velocity": 119,
      "chip": "ym2612"
    },
    {
      "channel": 0,
      "note": 87,
      "start": 70.0233,
      "duration": 0.3994,
      "velocity": 100,
      "chip": "ym2612"
    },
    {
      "channel": 1,
      "note": 68,
      "start": 70.0239,
      "duration": 0.3994,
      "velocity": 73,
      "chip": "ym2612"
    },
    {
      "channel": 2,
      "note": 93,
      "start": 70.0251,
      "duration": 0.1147,
      "velocity": 122,
      "chip": "ym2612"
    },
    {
      "channel": 3,
      "note": 84,
      "start": 70.0261,
      "duration": 0.3994,
      "velocity": 95,
      "chip": "ym2612"
    },
    {
      "channel": 4,
      "note": 68,
      "start": 70.0267,
      "duration": 0.1981,
      "velocity": 95,
      "chip": "ym2612"
    },
    {
      "channel": 5,
      "note": 87,
      "start": 70.1243,
      "duration": 0.3992,
      "velocity": 100,
      "chip": "ym2612"
    },
    {
      "channel": 2,
      "note": 93,
      "start": 70.2242,
      "duration": 0.049,
      "velocity": 119,
      "chip": "ym2612"
    },
    {
      "channel": 4,
      "note": 72,
      "start": 70.2254,
      "duration": 0.2007,
      "velocity": 95,
      "chip": "ym2612"
    },
    {
      "channel": 0,
      "note": 88,
      "start": 70.4232,
      "duration": 0.5994,
      "velocity": 100,
      "chip": "ym2612"
    },
    {
      "channel": 1,
      "note": 68,
      "start": 70.4238,
      "duration": 0.1993,
      "velocity": 73,
      "chip": "ym2612"
    },
    {
      "channel": 2,
      "note": 93,
      "start": 70.425,
      "duration": 0.0482,
      "velocity": 119,
      "chip": "ym2612"
    },
    {
      "channel": 3,
      "note": 85,
      "start": 70.426,
      "duration": 0.5995,
      "velocity": 95,
      "chip": "ym2612"
    },
    {
      "channel": 4,
      "note": 75,
      "start": 70.4266,
      "duration": 0.2985,
      "velocity": 95,
      "chip": "ym2612"
    },
    {
      "channel": 5,
      "note": 88,
      "start": 70.524,
      "duration": 0.6,
      "velocity": 100,
      "chip": "ym2612"
    },
    {
      "channel": 1,
      "note": 68,
      "start": 70.6234,
      "duration": 0.3999,
      "velocity": 73,
      "chip": "ym2612"
    },
    {
      "channel": 2,
      "note": 93,
      "start": 70.6246,
      "duration": 0.0001,
      "velocity": 119,
      "chip": "ym2612"
    },
    {
      "channel": 2,
      "note": 93,
      "start": 70.6247,
      "duration": 0.001,
      "velocity": 119,
      "chip": "ym2612"
    },
    {
      "channel": 2,
      "note": 93,
      "start": 70.6257,
      "duration": 0.0475,
      "velocity": 119,
      "chip": "ym2612"
    },
    {
      "channel": 2,
      "note": 93,
      "start": 70.6732,
      "duration": 0.0501,
      "velocity": 119,
      "chip": "ym2612"
    },
    {
      "channel": 2,
      "note": 93,
      "start": 70.7232,
      "duration": 0.001,
      "velocity": 119,
      "chip": "ym2612"
    },
    {
      "channel": 2,
      "note": 93,
      "start": 70.7242,
      "duration": 0.0159,
      "velocity": 119,
      "chip": "ym2612"
    },
    {
      "channel": 4,
      "note": 76,
      "start": 70.7255,
      "duration": 0.3979,
      "velocity": 95,
      "chip": "ym2612"
    },
    {
      "channel": 2,
      "note": 93,
      "start": 70.7401,
      "duration": 0.0331,
      "velocity": 119,
      "chip": "ym2612"
    },
    {
      "channel": 2,
      "note": 93,
      "start": 70.8242,
      "duration": 0.1156,
      "velocity": 122,
      "chip": "ym2612"
    },
    {
      "channel": 0,
      "note": 87,
      "start": 71.0232,
      "duration": 0.5994,
      "velocity": 100,
      "chip": "ym2612"
    },
    {
      "channel": 1,
      "note": 68,
      "start": 71.0238,
      "duration": 0.5996,
      "velocity": 73,
      "chip": "ym2612"
    },
    {
      "channel": 2,
      "note": 93,
      "start": 71.025,
      "duration": 0.0482,
      "velocity": 119,
      "chip": "ym2612"
    },
    {
      "channel": 3,
      "note": 84,
      "start": 71.0259,
      "duration": 0.5995,
      "velocity": 95,
      "chip": "ym2612"
    },
    {
      "channel": 4,
      "note": 75,
      "start": 71.1239,
      "duration": 0.5022,
      "velocity": 95,
      "chip": "ym2612"
    },
    {
      "channel": 5,
      "note": 87,
      "start": 71.1245,
      "duration": 0.5993,
      "velocity": 100,
      "chip": "ym2612"
    },
    {
      "channel": 2,
      "note": 93,
      "start": 71.2242,
      "duration": 0.0001,
      "velocity": 119,
      "chip": "ym2612"
    },
    {
      "channel": 2,
      "note": 93,
      "start": 71.2243,
      "duration": 0.0009,
      "velocity": 119,
      "chip": "ym2612"
    },
    {
      "channel": 2,
      "note": 93,
      "start": 71.2252,
      "duration": 0.048,
      "velocity": 119,
      "chip": "ym2612"
    },
    {
      "channel": 2,
      "note": 93,
      "start": 71.2732,
      "duration": 0.0667,
      "velocity": 119,
      "chip": "ym2612"
    },
    {
      "channel": 2,
      "note": 93,
      "start": 71.4243,
      "duration": 0.0489,
      "velocity": 119,
      "chip": "ym2612"
    },
    {
      "channel": 0,
      "note": 85,
      "start": 71.6232,
      "duration": 0.3994,
      "velocity": 100,
      "chip": "ym2612"
    },
    {
      "channel": 1,
      "note": 68,
      "start": 71.6238,
      "duration": 0.3996,
      "velocity": 73,
      "chip": "ym2612"
    },
    {
      "channel": 2,
      "note": 93,
      "start": 71.625,
      "duration": 0.1149,
      "velocity": 122,
      "chip": "ym2612"
    },
    {
      "channel": 3,
      "note": 82,
      "start": 71.626,
      "duration": 0.4009,
      "velocity": 95,
      "chip": "ym2612"
    },
    {
      "channel": 4,
      "note": 71,
      "start": 71.6266,
      "duration": 0.401,
      "velocity": 95,
      "chip": "ym2612"
    },
    {
      "channel": 5,
      "note": 85,
      "start": 71.7243,
      "duration": 0.3995,
      "velocity": 100,
      "chip": "ym2612"
    },
    {
      "channel": 2,
      "note": 93,
      "start": 71.8242,
      "duration": 0.049,
      "velocity": 119,
      "chip": "ym2612"
    },
    {
      "channel": 0,
      "note": 83,
      "start": 72.0232,
      "duration": 0.5994,
      "velocity": 100,
      "chip": "ym2612"
    },
    {
      "channel": 1,
      "note": 66,
      "start": 72.0239,
      "duration": 0.5995,
      "velocity": 73,
      "chip": "ym2612"
    },
    {
      "channel": 2,
      "note": 93,
      "start": 72.0251,
      "duration": 0.0001,
      "velocity": 119,
      "chip": "ym2612"
    },
    {
      "channel": 2,
      "note": 93,
      "start": 72.0253,
      "duration": 0.0009,
      "velocity": 119,
      "chip": "ym2612"
    },
    {
      "channel": 2,
      "note": 93,
      "start": 72.0262,
      "duration": 0.047,
      "velocity": 119,
      "chip": "ym2612"
    },
    {
      "channel": 3,
      "note": 76,
      "start": 72.0274,
      "duration": 0.5981,
      "velocity": 95,
      "chip": "ym2612"
    },
    {
      "channel": 4,
      "note": 66,
      "start": 72.028,
      "duration": 0.1969,
      "velocity": 95,
      "chip": "ym2612"
    },
    {
      "channel": 2,
      "note": 93,
      "start": 72.0732,
      "duration": 0.0667,
      "velocity": 119,
      "chip": "ym2612"
    },
    {
      "channel": 5,
      "note": 83,
      "start": 72.1243,
      "duration": 0.5993,
      "velocity": 100,
      "chip": "ym2612"
    },
    {
      "channel": 2,
      "note": 93,
      "start": 72.2242,
      "duration": 0.049,
      "velocity": 119,
      "chip": "ym2612"
    },
    {
      "channel": 4,
      "note": 70,
      "start": 72.2254,
      "duration": 0.2007,
      "velocity": 95,
      "chip": "ym2612"
    },
    {
      "channel": 2,
      "note": 93,
      "start": 72.4242,
      "duration": 0.0001,
      "velocity": 122,
      "chip": "ym2612"
    },
    {
      "channel": 2,
      "note": 93,
      "start": 72.4243,
      "duration": 0.001,
      "velocity": 122,
      "chip": "ym2612"
    },
    {
      "channel": 2,
      "note": 93,
      "start": 72.4253,
      "duration": 0.1146,
      "velocity": 122,
      "chip": "ym2612"
    },
    {
      "channel": 4,
      "note": 73,
      "start": 72.4266,
      "duration": 0.1995,
      "velocity": 95,
      "chip": "ym2612"
    },
    {
      "channel": 2,
      "note": 93,
      "start": 72.5398,
      "duration": 0.0001,
      "velocity": 122,
      "chip": "ym2612"
    },
    {
      "channel": 0,
      "note": 82,
      "start": 72.6232,
      "duration": 1.3994,
      "velocity": 100,
      "chip": "ym2612"
    },
    {
      "channel": 1,
      "note": 66,
      "start": 72.6238,
      "duration": 0.1993,
      "velocity": 73,
      "chip": "ym2612"
    },
    {
      "channel": 2,
      "note": 93,
      "start": 72.625,
      "duration": 0.0482,
      "velocity": 119,
      "chip": "ym2612"
    },
    {
      "channel": 3,
      "note": 76,
      "start": 72.6259,
      "duration": 0.9989,
      "velocity": 95,
      "chip": "ym2612"
    },
    {
      "channel": 4,
      "note": 66,
      "start": 72.6265,
      "duration": 0.2,
      "velocity": 95,
      "chip": "ym2612"
    },
    {
      "channel": 5,
      "note": 82,
      "start": 72.724,
      "duration": 1.3998,
      "velocity": 100,
      "chip": "ym2612"
    },
    {
      "channel": 1,
      "note": 66,
      "start": 72.8234,
      "duration": 0.3996,
      "velocity": 73,
      "chip": "ym2612"
    },
    {
      "channel": 2,
      "note": 93,
      "start": 72.8246,
      "duration": 0.0001,
      "velocity": 119,
      "chip": "ym2612"
    },
    {
      "channel": 2,
      "note": 93,
      "start": 72.8247,
      "duration": 0.001,
      "velocity": 119,
      "chip": "ym2612"
    },
    {
      "channel": 2,
      "note": 93,
      "start": 72.8257,
      "duration": 0.0475,
      "velocity": 119,
      "chip": "ym2612"
    },
    {
      "channel": 4,
      "note": 70,
      "start": 72.8269,
      "duration": 0.198,
      "velocity": 95,
      "chip": "ym2612"
    },
    {
      "channel": 2,
      "note": 93,
      "start": 72.8732,
      "duration": 0.0501,
      "velocity": 119,
      "chip": "ym2612"
    },
    {
      "channel": 2,
      "note": 93,
      "start": 72.9232,
      "duration": 0.001,
      "velocity": 119,
      "chip": "ym2612"
    },
    {
      "channel": 2,
      "note": 93,
      "start": 72.9242,
      "duration": 0.0159,
      "velocity": 119,
      "chip": "ym2612"
    },
    {
      "channel": 2,
      "note": 93,
      "start": 72.9401,
      "duration": 0.0331,
      "velocity": 119,
      "chip": "ym2612"
    },
    {
      "channel": 2,
      "note": 93,
      "start": 73.0243,
      "duration": 0.0489,
      "velocity": 119,
      "chip": "ym2612"
    },
    {
      "channel": 4,
      "note": 73,
      "start": 73.0254,
      "duration": 0.2983,
      "velocity": 95,
      "chip": "ym2612"
    },
    {
      "channel": 1,
      "note": 70,
      "start": 73.2235,
      "duration": 0.1996,
      "velocity": 73,
      "chip": "ym2612"
    },
    {
      "channel": 2,
      "note": 93,
      "start": 73.2247,
      "duration": 0.1151,
      "velocity": 122,
      "chip": "ym2612"
    },
    {
      "channel": 4,
      "note": 66,
      "start": 73.3241,
      "duration": 0.1012,
      "velocity": 95,
      "chip": "ym2612"
    },
    {
      "channel": 1,
      "note": 66,
      "start": 73.4235,
      "duration": 0.3996,
      "velocity": 73,
      "chip": "ym2612"
    },
    {
      "channel": 2,
      "note": 93,
      "start": 73.4247,
      "duration": 0.0485,
      "velocity": 119,
      "chip": "ym2612"
    },
    {
      "channel": 4,
      "note": 70,
      "start": 73.4258,
      "duration": 0.1994,
      "velocity": 95,
      "chip": "ym2612"
    },
    {
      "channel": 2,
      "note": 93,
      "start": 73.6243,
      "duration": 0.0489,
      "velocity": 119,
      "chip": "ym2612"
    },
    {
      "channel": 4,
      "note": 73,
      "start": 73.6257,
      "duration": 0.2008,
      "velocity": 95,
      "chip": "ym2612"
    },
    {
      "channel": 1,
      "note": 66,
      "start": 73.8234,
      "duration": 0.1999,
      "velocity": 73,
      "chip": "ym2612"
    },
    {
      "channel": 2,
      "note": 93,
      "start": 73.8246,
      "duration": 0.0001,
      "velocity": 119,
      "chip": "ym2612"
    },
    {
      "channel": 2,
      "note": 93,
      "start": 73.8248,
      "duration": 0.0009,
      "velocity": 119,
      "chip": "ym2612"
    },
    {
      "channel": 2,
      "note": 93,
      "start": 73.8257,
      "duration": 0.0476,
      "velocity": 119,
      "chip": "ym2612"
    },
    {
      "channel": 4,
      "note": 66,
      "start": 73.8269,
      "duration": 0.1987,
      "velocity": 95,
      "chip": "ym2612"
    },
    {
      "channel": 2,
      "note": 93,
      "start": 73.8732,
      "duration": 0.05,
      "velocity": 119,
      "chip": "ym2612"
    },
    {
      "channel": 2,
      "note": 93,
      "start": 73.9232,
      "duration": 0.001,
      "velocity": 119,
      "chip": "ym2612"
    },
    {
      "channel": 2,
      "note": 93,
      "start": 73.9243,
      "duration": 0.0159,
      "velocity": 119,
      "chip": "ym2612"
    },
    {
      "channel": 2,
      "note": 93,
      "start": 73.9401,
      "duration": 0.0331,
      "velocity": 119,
      "chip": "ym2612"
    },
    {
      "channel": 0,
      "note": 83,
      "start": 74.0232,
      "duration": 0.3994,
      "velocity": 100,
      "chip": "ym2612"
    },
    {
      "channel": 1,
      "note": 71,
      "start": 74.0239,
      "duration": 0.1992,
      "velocity": 73,
      "chip": "ym2612"
    },
    {
      "channel": 2,
      "note": 93,
      "start": 74.025,
      "duration": 0.1148,
      "velocity": 122,
      "chip": "ym2612"
    },
    {
      "channel": 4,
      "note": 70,
      "start": 74.0261,
      "duration": 0.1992,
      "velocity": 95,
      "chip": "ym2612"
    },
    {
      "channel": 5,
      "note": 83,
      "start": 74.1242,
      "duration": 0.3996,
      "velocity": 100,
      "chip": "ym2612"
    },
    {
      "channel": 1,
      "note": 66,
      "start": 74.2235,
      "duration": 0.1999,
      "velocity": 73,
      "chip": "ym2612"
    },
    {
      "channel": 2,
      "note": 93,
      "start": 74.2247,
      "duration": 0.0485,
      "velocity": 119,
      "chip": "ym2612"
    },
    {
      "channel": 4,
      "note": 73,
      "start": 74.2257,
      "duration": 0.2011,
      "velocity": 95,
      "chip": "ym2612"
    },
    {
      "channel": 0,
      "note": 85,
      "start": 74.4232,
      "duration": 0.3994,
      "velocity": 100,
      "chip": "ym2612"
    },
    {
      "channel": 1,
      "note": 73,
      "start": 74.4238,
      "duration": 0.1993,
      "velocity": 73,
      "chip": "ym2612"
    },
    {
      "channel": 2,
      "note": 93,
      "start": 74.425,
      "duration": 0.0001,
      "velocity": 119,
      "chip": "ym2612"
    },
    {
      "channel": 2,
      "note": 93,
      "start": 74.4251,
      "duration": 0.0009,
      "velocity": 119,
      "chip": "ym2612"
    },
    {
      "channel": 2,
      "note": 93,
      "start": 74.4261,
      "duration": 0.0471,
      "velocity": 119,
      "chip": "ym2612"
    },
    {
      "channel": 4,
      "note": 66,
      "start": 74.4273,
      "duration": 0.198,
      "velocity": 95,
      "chip": "ym2612"
    },
    {
      "channel": 2,
      "note": 93,
      "start": 74.4732,
      "duration": 0.0667,
      "velocity": 119,
      "chip": "ym2612"
    },
    {
      "channel": 5,
      "note": 85,
      "start": 74.5242,
      "duration": 0.3996,
      "velocity": 100,
      "chip": "ym2612"
    },
    {
      "channel": 1,
      "note": 66,
      "start": 74.6235,
      "duration": 0.1999,
      "velocity": 73,
      "chip": "ym2612"
    },
    {
      "channel": 2,
      "note": 93,
      "start": 74.6247,
      "duration": 0.0485,
      "velocity": 119,
      "chip": "ym2612"
    },
    {
      "channel": 4,
      "note": 70,
      "start": 74.6257,
      "duration": 0.3995,
      "velocity": 95,
      "chip": "ym2612"
    },
    {
      "channel": 0,
      "note": 83,
      "start": 74.8232,
      "duration": 0.3994,
      "velocity": 100,
      "chip": "ym2612"
    },
    {
      "channel": 1,
      "note": 71,
      "start": 74.8238,
      "duration": 0.1993,
      "velocity": 73,
      "chip": "ym2612"
    },
    {
      "channel": 2,
      "note": 93,
      "start": 74.825,
      "duration": 0.1148,
      "velocity": 122,
      "chip": "ym2612"
    },
    {
      "channel": 5,
      "note": 83,
      "start": 74.9242,
      "duration": 0.3996,
      "velocity": 100,
      "chip": "ym2612"
    },
    {
      "channel": 1,
      "note": 66,
      "start": 75.0235,
      "duration": 0.1999,
      "velocity": 73,
      "chip": "ym2612"
    },
    {
      "channel": 2,
      "note": 93,
      "start": 75.0247,
      "duration": 0.0485,
      "velocity": 119,
      "chip": "ym2612"
    },
    {
      "channel": 4,
      "note": 70,
      "start": 75.0257,
      "duration": 0.2018,
      "velocity": 95,
      "chip": "ym2612"
    },
    {
      "channel": 0,
      "note": 80,
      "start": 75.2232,
      "duration": 1.5994,
      "velocity": 100,
      "chip": "ym2612"
    },
    {
      "channel": 1,
      "note": 64,
      "start": 75.2239,
      "duration": 0.5992,
      "velocity": 73,
      "chip": "ym2612"
    },
    {
      "channel": 2,
      "note": 93,
      "start": 75.2251,
      "duration": 0.0001,
      "velocity": 119,
      "chip": "ym2612"
    },
    {
      "channel": 2,
      "note": 93,
      "start": 75.2253,
      "duration": 0.0009,
      "velocity": 119,
      "chip": "ym2612"
    },
    {
      "channel": 2,
      "note": 93,
      "start": 75.2262,
      "duration": 0.047,
      "velocity": 119,
      "chip": "ym2612"
    },
    {
      "channel": 3,
      "note": 83,
      "start": 75.2274,
      "duration": 1.5981,
      "velocity": 95,
      "chip": "ym2612"
    },
    {
      "channel": 4,
      "note": 76,
      "start": 75.228,
      "duration": 1.5981,
      "velocity": 95,
      "chip": "ym2612"
    },
    {
      "channel": 2,
      "note": 93,
      "start": 75.2732,
      "duration": 0.0667,
      "velocity": 119,
      "chip": "ym2612"
    },
    {
      "channel": 5,
      "note": 80,
      "start": 75.3243,
      "duration": 1.5993,
      "velocity": 100,
      "chip": "ym2612"
    },
    {
      "channel": 2,
      "note": 93,
      "start": 75.4242,
      "duration": 0.049,
      "velocity": 119,
      "chip": "ym2612"
    },
    {
      "channel": 2,
      "note": 93,
      "start": 75.6242,
      "duration": 0.0001,
      "velocity": 122,
      "chip": "ym2612"
    },
    {
      "channel": 2,
      "note": 93,
      "start": 75.6243,
      "duration": 0.001,
      "velocity": 122,
      "chip": "ym2612"
    },
    {
      "channel": 2,
      "note": 93,
      "start": 75.6253,
      "duration": 0.1146,
      "velocity": 122,
      "chip": "ym2612"
    },
    {
      "channel": 2,
      "note": 93,
      "start": 75.7398,
      "duration": 0.0001,
      "velocity": 122,
      "chip": "ym2612"
    },
    {
      "channel": 1,
      "note": 64,
      "start": 75.8235,
      "duration": 0.3996,
      "velocity": 73,
      "chip": "ym2612"
    },
    {
      "channel": 2,
      "note": 93,
      "start": 75.8247,
      "duration": 0.0485,
      "velocity": 119,
      "chip": "ym2612"
    },
    {
      "channel": 2,
      "note": 93,
      "start": 76.0242,
      "duration": 0.0001,
      "velocity": 119,
      "chip": "ym2612"
    },
    {
      "channel": 2,
      "note": 93,
      "start": 76.0243,
      "duration": 0.0009,
      "velocity": 119,
      "chip": "ym2612"
    },
    {
      "channel": 2,
      "note": 93,
      "start": 76.0252,
      "duration": 0.048,
      "velocity": 119,
      "chip": "ym2612"
    },
    {
      "channel": 2,
      "note": 93,
      "start": 76.0732,
      "duration": 0.0501,
      "velocity": 119,
      "chip": "ym2612"
    },
    {
      "channel": 2,
      "note": 93,
      "start": 76.1232,
      "duration": 0.001,
      "velocity": 119,
      "chip": "ym2612"
    },
    {
      "channel": 2,
      "note": 93,
      "start": 76.1242,
      "duration": 0.0159,
      "velocity": 119,
      "chip": "ym2612"
    },
    {
      "channel": 2,
      "note": 93,
      "start": 76.1401,
      "duration": 0.0331,
      "velocity": 119,
      "chip": "ym2612"
    },
    {
      "channel": 1,
      "note": 64,
      "start": 76.2234,
      "duration": 0.1996,
      "velocity": 73,
      "chip": "ym2612"
    },
    {
      "channel": 2,
      "note": 93,
      "start": 76.2246,
      "duration": 0.0485,
      "velocity": 119,
      "chip": "ym2612"
    },
    {
      "channel": 1,
      "note": 64,
      "start": 76.4234,
      "duration": 0.3999,
      "velocity": 73,
      "chip": "ym2612"
    },
    {
      "channel": 2,
      "note": 93,
      "start": 76.4246,
      "duration": 0.1152,
      "velocity": 122,
      "chip": "ym2612"
    },
    {
      "channel": 2,
      "note": 93,
      "start": 76.6243,
      "duration": 0.049,
      "velocity": 119,
      "chip": "ym2612"
    },
    {
      "channel": 0,
      "note": 80,
      "start": 76.8232,
      "duration": 1.5995,
      "velocity": 100,
      "chip": "ym2612"
    },
    {
      "channel": 1,
      "note": 66,
      "start": 76.8238,
      "duration": 0.5993,
      "velocity": 73,
      "chip": "ym2612"
    },
    {
      "channel": 2,
      "note": 93,
      "start": 76.825,
      "duration": 0.0482,
      "velocity": 119,
      "chip": "ym2612"
    },
    {
      "channel": 3,
      "note": 82,
      "start": 76.8259,
      "duration": 1.601,
      "velocity": 95,
      "chip": "ym2612"
    },
    {
      "channel": 4,
      "note": 78,
      "start": 76.8266,
      "duration": 1.6009,
      "velocity": 95,
      "chip": "ym2612"
    },
    {
      "channel": 5,
      "note": 80,
      "start": 76.9239,
      "duration": 1.5999,
      "velocity": 100,
      "chip": "ym2612"
    },
    {
      "channel": 2,
      "note": 93,
      "start": 77.0242,
      "duration": 0.0001,
      "velocity": 119,
      "chip": "ym2612"
    },
    {
      "channel": 2,
      "note": 93,
      "start": 77.0243,
      "duration": 0.0009,
      "velocity": 119,
      "chip": "ym2612"
    },
    {
      "channel": 2,
      "note": 93,
      "start": 77.0252,
      "duration": 0.048,
      "velocity": 119,
      "chip": "ym2612"
    },
    {
      "channel": 2,
      "note": 93,
      "start": 77.0732,
      "duration": 0.0501,
      "velocity": 119,
      "chip": "ym2612"
    },
    {
      "channel": 2,
      "note": 93,
      "start": 77.1232,
      "duration": 0.001,
      "velocity": 119,
      "chip": "ym2612"
    },
    {
      "channel": 2,
      "note": 93,
      "start": 77.1242,
      "duration": 0.0159,
      "velocity": 119,
      "chip": "ym2612"
    },
    {
      "channel": 2,
      "note": 93,
      "start": 77.1401,
      "duration": 0.0331,
      "velocity": 119,
      "chip": "ym2612"
    },
    {
      "channel": 2,
      "note": 93,
      "start": 77.2242,
      "duration": 0.1156,
      "velocity": 122,
      "chip": "ym2612"
    },
    {
      "channel": 1,
      "note": 66,
      "start": 77.4234,
      "duration": 0.3996,
      "velocity": 73,
      "chip": "ym2612"
    },
    {
      "channel": 2,
      "note": 93,
      "start": 77.4246,
      "duration": 0.0485,
      "velocity": 119,
      "chip": "ym2612"
    },
    {
      "channel": 2,
      "note": 93,
      "start": 77.6242,
      "duration": 0.0001,
      "velocity": 119,
      "chip": "ym2612"
    },
    {
      "channel": 2,
      "note": 93,
      "start": 77.6243,
      "duration": 0.0009,
      "velocity": 119,
      "chip": "ym2612"
    },
    {
      "channel": 2,
      "note": 93,
      "start": 77.6252,
      "duration": 0.048,
      "velocity": 119,
      "chip": "ym2612"
    },
    {
      "channel": 2,
      "note": 93,
      "start": 77.6732,
      "duration": 0.0667,
      "velocity": 119,
      "chip": "ym2612"
    },
    {
      "channel": 1,
      "note": 66,
      "start": 77.8234,
      "duration": 0.1996,
      "velocity": 73,
      "chip": "ym2612"
    },
    {
      "channel": 2,
      "note": 93,
      "start": 77.8246,
      "duration": 0.0485,
      "velocity": 119,
      "chip": "ym2612"
    },
    {
      "channel": 1,
      "note": 66,
      "start": 78.0234,
      "duration": 0.3999,
      "velocity": 73,
      "chip": "ym2612"
    },
    {
      "channel": 2,
      "note": 93,
      "start": 78.0246,
      "duration": 0.1152,
      "velocity": 122,
      "chip": "ym2612"
    },
    {
      "channel": 2,
      "note": 93,
      "start": 78.2243,
      "duration": 0.049,
      "velocity": 119,
      "chip": "ym2612"
    },
    {
      "channel": 0,
      "note": 87,
      "start": 78.4232,
      "duration": 1.5994,
      "velocity": 100,
      "chip": "ym2612"
    },
    {
      "channel": 1,
      "note": 68,
      "start": 78.4238,
      "duration": 0.3993,
      "velocity": 73,
      "chip": "ym2612"
    },
    {
      "channel": 2,
      "note": 93,
      "start": 78.4251,
      "duration": 0.0001,
      "velocity": 119,
      "chip": "ym2612"
    },
    {
      "channel": 2,
      "note": 93,
      "start": 78.4252,
      "duration": 0.0009,
      "velocity": 119,
      "chip": "ym2612"
    },
    {
      "channel": 2,
      "note": 93,
      "start": 78.4261,
      "duration": 0.0471,
      "velocity": 119,
      "chip": "ym2612"
    },
    {
      "channel": 3,
      "note": 84,
      "start": 78.4273,
      "duration": 1.5992,
      "velocity": 95,
      "chip": "ym2612"
    },
    {
      "channel": 4,
      "note": 80,
      "start": 78.4279,
      "duration": 1.5991,
      "velocity": 95,
      "chip": "ym2612"
    },
    {
      "channel": 2,
      "note": 93,
      "start": 78.4732,
      "duration": 0.0667,
      "velocity": 119,
      "chip": "ym2612"
    },
    {
      "channel": 5,
      "note": 87,
      "start": 78.5243,
      "duration": 1.5992,
      "velocity": 100,
      "chip": "ym2612"
    },
    {
      "channel": 2,
      "note": 93,
      "start": 78.6242,
      "duration": 0.049,
      "velocity": 119,
      "chip": "ym2612"
    },
    {
      "channel": 1,
      "note": 68,
      "start": 78.8235,
      "duration": 0.1996,
      "velocity": 73,
      "chip": "ym2612"
    },
    {
      "channel": 2,
      "note": 93,
      "start": 78.8247,
      "duration": 0.0001,
      "velocity": 122,
      "chip": "ym2612"
    },
    {
      "channel": 2,
      "note": 93,
      "start": 78.8248,
      "duration": 0.0009,
      "velocity": 122,
      "chip": "ym2612"
    },
    {
      "channel": 2,
      "note": 93,
      "start": 78.8257,
      "duration": 0.1141,
      "velocity": 122,
      "chip": "ym2612"
    },
    {
      "channel": 2,
      "note": 93,
      "start": 78.9398,
      "duration": 0.0001,
      "velocity": 122,
      "chip": "ym2612"
    },
    {
      "channel": 1,
      "note": 68,
      "start": 79.0234,
      "duration": 0.3996,
      "velocity": 73,
      "chip": "ym2612"
    },
    {
      "channel": 2,
      "note": 93,
      "start": 79.0246,
      "duration": 0.0485,
      "velocity": 119,
      "chip": "ym2612"
    },
    {
      "channel": 2,
      "note": 93,
      "start": 79.2242,
      "duration": 0.0001,
      "velocity": 119,
      "chip": "ym2612"
    },
    {
      "channel": 2,
      "note": 93,
      "start": 79.2243,
      "duration": 0.0009,
      "velocity": 119,
      "chip": "ym2612"
    },
    {
      "channel": 2,
      "note": 93,
      "start": 79.2252,
      "duration": 0.048,
      "velocity": 119,
      "chip": "ym2612"
    },
    {
      "channel": 2,
      "note": 93,
      "start": 79.2732,
      "duration": 0.0501,
      "velocity": 119,
      "chip": "ym2612"
    },
    {
      "channel": 2,
      "note": 93,
      "start": 79.3232,
      "duration": 0.001,
      "velocity": 119,
      "chip": "ym2612"
    },
    {
      "channel": 2,
      "note": 93,
      "start": 79.3242,
      "duration": 0.0159,
      "velocity": 119,
      "chip": "ym2612"
    },
    {
      "channel": 2,
      "note": 93,
      "start": 79.3401,
      "duration": 0.0331,
      "velocity": 119,
      "chip": "ym2612"
    },
    {
      "channel": 1,
      "note": 68,
      "start": 79.4234,
      "duration": 0.1996,
      "velocity": 73,
      "chip": "ym2612"
    },
    {
      "channel": 2,
      "note": 93,
      "start": 79.4246,
      "duration": 0.0485,
      "velocity": 119,
      "chip": "ym2612"
    },
    {
      "channel": 1,
      "note": 68,
      "start": 79.6234,
      "duration": 0.1996,
      "velocity": 73,
      "chip": "ym2612"
    },
    {
      "channel": 2,
      "note": 93,
      "start": 79.6246,
      "duration": 0.1152,
      "velocity": 122,
      "chip": "ym2612"
    },
    {
      "channel": 1,
      "note": 68,
      "start": 79.8234,
      "duration": 0.0996,
      "velocity": 73,
      "chip": "ym2612"
    },
    {
      "channel": 2,
      "note": 93,
      "start": 79.8246,
      "duration": 0.0486,
      "velocity": 119,
      "chip": "ym2612"
    },
    {
      "channel": 1,
      "note": 68,
      "start": 79.9235,
      "duration": 0.0997,
      "velocity": 73,
      "chip": "ym2612"
    },
    {
      "channel": 1,
      "note": 68,
      "start": 80.0236,
      "duration": 0.1991,
      "velocity": 73,
      "chip": "ym2612"
    },
    {
      "channel": 2,
      "note": 93,
      "start": 80.0248,
      "duration": 0.0001,
      "velocity": 119,
      "chip": "ym2612"
    },
    {
      "channel": 2,
      "note": 93,
      "start": 80.0249,
      "duration": 0.001,
      "velocity": 119,
      "chip": "ym2612"
    },
    {
      "channel": 2,
      "note": 93,
      "start": 80.0259,
      "duration": 0.0471,
      "velocity": 119,
      "chip": "ym2612"
    },
    {
      "channel": 2,
      "note": 93,
      "start": 80.0729,
      "duration": 0.0667,
      "velocity": 119,
      "chip": "ym2612"
    },
    {
      "channel": 1,
      "note": 68,
      "start": 80.2232,
      "duration": 0.1996,
      "velocity": 73,
      "chip": "ym2612"
    },
    {
      "channel": 2,
      "note": 93,
      "start": 80.2243,
      "duration": 0.1153,
      "velocity": 122,
      "chip": "ym2612"
    },
    {
      "channel": 1,
      "note": 68,
      "start": 80.4232,
      "duration": 0.1996,
      "velocity": 73,
      "chip": "ym2612"
    },
    {
      "channel": 2,
      "note": 93,
      "start": 80.4243,
      "duration": 0.1153,
      "velocity": 122,
      "chip": "ym2612"
    },
    {
      "channel": 1,
      "note": 68,
      "start": 80.6232,
      "duration": 0.3996,
      "velocity": 73,
      "chip": "ym2612"
    },
    {
      "channel": 2,
      "note": 93,
      "start": 80.6243,
      "duration": 0.0001,
      "velocity": 119,
      "chip": "ym2612"
    },
    {
      "channel": 2,
      "note": 93,
      "start": 80.6245,
      "duration": 0.001,
      "velocity": 119,
      "chip": "ym2612"
    },
    {
      "channel": 2,
      "note": 93,
      "start": 80.6254,
      "duration": 0.0475,
      "velocity": 119,
      "chip": "ym2612"
    },
    {
      "channel": 2,
      "note": 93,
      "start": 80.6729,
      "duration": 0.0667,
      "velocity": 119,
      "chip": "ym2612"
    },
    {
      "channel": 2,
      "note": 93,
      "start": 80.8239,
      "duration": 0.049,
      "velocity": 119,
      "chip": "ym2612"
    },
    {
      "channel": 1,
      "note": 68,
      "start": 81.0232,
      "duration": 0.1996,
      "velocity": 73,
      "chip": "ym2612"
    },
    {
      "channel": 2,
      "note": 93,
      "start": 81.0243,
      "duration": 0.0001,
      "velocity": 119,
      "chip": "ym2612"
    },
    {
      "channel": 2,
      "note": 93,
      "start": 81.0245,
      "duration": 0.001,
      "velocity": 119,
      "chip": "ym2612"
    },
    {
      "channel": 2,
      "note": 93,
      "start": 81.0254,
      "duration": 0.0475,
      "velocity": 119,
      "chip": "ym2612"
    },
    {
      "channel": 2,
      "note": 93,
      "start": 81.0729,
      "duration": 0.0667,
      "velocity": 119,
      "chip": "ym2612"
    },
    {
      "channel": 1,
      "note": 68,
      "start": 81.2232,
      "duration": 0.4033,
      "velocity": 73,
      "chip": "ym2612"
    },
    {
      "channel": 2,
      "note": 93,
      "start": 81.2243,
      "duration": 0.1153,
      "velocity": 122,
      "chip": "ym2612"
    },
    {
      "channel": 2,
      "note": 93,
      "start": 81.4239,
      "duration": 0.1156,
      "velocity": 122,
      "chip": "ym2612"
    }
  ]
}