{
  "track_name": "15 - The Death God's Invitation",
  "duration_sec": 80.96,
  "sample_rate": 44100,
  "note_count": 1637,
  "unique_pitches": 51,
  "pitch_range": 53,
  "avg_note_duration": 0.1901,
  "reconstruction_stats": {
    "notes_reconstructed": 1637,
    "keyon_events": 1637,
    "keyoff_events": 1625,
    "orphan_keyons": 1,
    "unique_pitches": 51,
    "pitch_range": 53,
    "avg_duration_sec": 0.1901
  },
  "metadata": {
    "source": "L\\LandStalker\\15 - The Death God's Invitation.vgz"
  },
  "notes": [
    {
      "channel": 0,
      "note": 88,
      "start": 0.0513,
      "duration": 0.0563,
      "velocity": 92,
      "chip": "ym2612"
    },
    {
      "channel": 1,
      "note": 84,
      "start": 0.0542,
      "duration": 0.0538,
      "velocity": 92,
      "chip": "ym2612"
    },
    {
      "channel": 2,
      "note": 80,
      "start": 0.057,
      "duration": 0.0512,
      "velocity": 92,
      "chip": "ym2612"
    },
    {
      "channel": 0,
      "note": 84,
      "start": 0.1274,
      "duration": 0.0585,
      "velocity": 92,
      "chip": "ym2612"
    },
    {
      "channel": 1,
      "note": 80,
      "start": 0.128,
      "duration": 0.0582,
      "velocity": 92,
      "chip": "ym2612"
    },
    {
      "channel": 2,
      "note": 88,
      "start": 0.1285,
      "duration": 0.058,
      "velocity": 92,
      "chip": "ym2612"
    },
    {
      "channel": 0,
      "note": 80,
      "start": 0.2056,
      "duration": 0.0585,
      "velocity": 92,
      "chip": "ym2612"
    },
    {
      "channel": 1,
      "note": 88,
      "start": 0.2062,
      "duration": 0.0582,
      "velocity": 92,
      "chip": "ym2612"
    },
    {
      "channel": 2,
      "note": 84,
      "start": 0.2067,
      "duration": 0.0579,
      "velocity": 92,
      "chip": "ym2612"
    },
    {
      "channel": 0,
      "note": 88,
      "start": 0.2841,
      "duration": 0.0583,
      "velocity": 92,
      "chip": "ym2612"
    },
    {
      "channel": 1,
      "note": 84,
      "start": 0.2847,
      "duration": 0.058,
      "velocity": 92,
      "chip": "ym2612"
    },
    {
      "channel": 2,
      "note": 80,
      "start": 0.2854,
      "duration": 0.0575,
      "velocity": 92,
      "chip": "ym2612"
    },
    {
      "channel": 0,
      "note": 84,
      "start": 0.3622,
      "duration": 0.0585,
      "velocity": 92,
      "chip": "ym2612"
    },
    {
      "channel": 1,
      "note": 80,
      "start": 0.3627,
      "duration": 0.0582,
      "velocity": 92,
      "chip": "ym2612"
    },
    {
      "channel": 2,
      "note": 88,
      "start": 0.3633,
      "duration": 0.0579,
      "velocity": 92,
      "chip": "ym2612"
    },
    {
      "channel": 0,
      "note": 80,
      "start": 0.4404,
      "duration": 0.0585,
      "velocity": 92,
      "chip": "ym2612"
    },
    {
      "channel": 1,
      "note": 88,
      "start": 0.441,
      "duration": 0.0582,
      "velocity": 92,
      "chip": "ym2612"
    },
    {
      "channel": 2,
      "note": 84,
      "start": 0.4415,
      "duration": 0.058,
      "velocity": 92,
      "chip": "ym2612"
    },
    {
      "channel": 0,
      "note": 88,
      "start": 0.5188,
      "duration": 0.0583,
      "velocity": 92,
      "chip": "ym2612"
    },
    {
      "channel": 1,
      "note": 84,
      "start": 0.5195,
      "duration": 0.0579,
      "velocity": 92,
      "chip": "ym2612"
    },
    {
      "channel": 2,
      "note": 80,
      "start": 0.5202,
      "duration": 0.0576,
      "velocity": 92,
      "chip": "ym2612"
    },
    {
      "channel": 0,
      "note": 84,
      "start": 0.5969,
      "duration": 0.0585,
      "velocity": 92,
      "chip": "ym2612"
    },
    {
      "channel": 1,
      "note": 80,
      "start": 0.5974,
      "duration": 0.0582,
      "velocity": 92,
      "chip": "ym2612"
    },
    {
      "channel": 2,
      "note": 88,
      "start": 0.598,
      "duration": 0.0579,
      "velocity": 92,
      "chip": "ym2612"
    },
    {
      "channel": 0,
      "note": 80,
      "start": 0.6752,
      "duration": 0.0585,
      "velocity": 92,
      "chip": "ym2612"
    },
    {
      "channel": 1,
      "note": 88,
      "start": 0.6757,
      "duration": 0.0581,
      "velocity": 92,
      "chip": "ym2612"
    },
    {
      "channel": 2,
      "note": 84,
      "start": 0.6763,
      "duration": 0.058,
      "velocity": 92,
      "chip": "ym2612"
    },
    {
      "channel": 0,
      "note": 88,
      "start": 0.7535,
      "duration": 0.0583,
      "velocity": 92,
      "chip": "ym2612"
    },
    {
      "channel": 1,
      "note": 84,
      "start": 0.7542,
      "duration": 0.0579,
      "velocity": 92,
      "chip": "ym2612"
    },
    {
      "channel": 2,
      "note": 80,
      "start": 0.7549,
      "duration": 0.0575,
      "velocity": 92,
      "chip": "ym2612"
    },
    {
      "channel": 0,
      "note": 84,
      "start": 0.8317,
      "duration": 0.0585,
      "velocity": 92,
      "chip": "ym2612"
    },
    {
      "channel": 1,
      "note": 80,
      "start": 0.8322,
      "duration": 0.0583,
      "velocity": 92,
      "chip": "ym2612"
    },
    {
      "channel": 2,
      "note": 88,
      "start": 0.8327,
      "duration": 0.058,
      "velocity": 92,
      "chip": "ym2612"
    },
    {
      "channel": 0,
      "note": 80,
      "start": 0.9099,
      "duration": 0.0585,
      "velocity": 92,
      "chip": "ym2612"
    },
    {
      "channel": 1,
      "note": 88,
      "start": 0.9104,
      "duration": 0.0583,
      "velocity": 92,
      "chip": "ym2612"
    },
    {
      "channel": 2,
      "note": 84,
      "start": 0.911,
      "duration": 0.0579,
      "velocity": 92,
      "chip": "ym2612"
    },
    {
      "channel": 0,
      "note": 88,
      "start": 0.9883,
      "duration": 0.0583,
      "velocity": 92,
      "chip": "ym2612"
    },
    {
      "channel": 1,
      "note": 84,
      "start": 0.989,
      "duration": 0.0579,
      "velocity": 92,
      "chip": "ym2612"
    },
    {
      "channel": 2,
      "note": 80,
      "start": 0.9897,
      "duration": 0.0575,
      "velocity": 92,
      "chip": "ym2612"
    },
    {
      "channel": 3,
      "note": 53,
      "start": 0.9929,
      "duration": 0.9155,
      "velocity": 94,
      "chip": "ym2612"
    },
    {
      "channel": 0,
      "note": 84,
      "start": 1.0664,
      "duration": 0.0585,
      "velocity": 92,
      "chip": "ym2612"
    },
    {
      "channel": 1,
      "note": 80,
      "start": 1.0669,
      "duration": 0.0583,
      "velocity": 92,
      "chip": "ym2612"
    },
    {
      "channel": 2,
      "note": 88,
      "start": 1.0675,
      "duration": 0.058,
      "velocity": 92,
      "chip": "ym2612"
    },
    {
      "channel": 0,
      "note": 80,
      "start": 1.1446,
      "duration": 0.0585,
      "velocity": 92,
      "chip": "ym2612"
    },
    {
      "channel": 1,
      "note": 88,
      "start": 1.1452,
      "duration": 0.0582,
      "velocity": 92,
      "chip": "ym2612"
    },
    {
      "channel": 2,
      "note": 84,
      "start": 1.1457,
      "duration": 0.058,
      "velocity": 92,
      "chip": "ym2612"
    },
    {
      "channel": 4,
      "note": 85,
      "start": 1.1492,
      "duration": 0.9158,
      "velocity": 94,
      "chip": "ym2612"
    },
    {
      "channel": 0,
      "note": 88,
      "start": 1.223,
      "duration": 0.0583,
      "velocity": 92,
      "chip": "ym2612"
    },
    {
      "channel": 1,
      "note": 84,
      "start": 1.2237,
      "duration": 0.0579,
      "velocity": 92,
      "chip": "ym2612"
    },
    {
      "channel": 2,
      "note": 80,
      "start": 1.2244,
      "duration": 0.0575,
      "velocity": 92,
      "chip": "ym2612"
    },
    {
      "channel": 0,
      "note": 84,
      "start": 1.3011,
      "duration": 0.0585,
      "velocity": 92,
      "chip": "ym2612"
    },
    {
      "channel": 1,
      "note": 80,
      "start": 1.3017,
      "duration": 0.0582,
      "velocity": 92,
      "chip": "ym2612"
    },
    {
      "channel": 2,
      "note": 88,
      "start": 1.3022,
      "duration": 0.058,
      "velocity": 92,
      "chip": "ym2612"
    },
    {
      "channel": 0,
      "note": 80,
      "start": 1.3794,
      "duration": 0.0585,
      "velocity": 92,
      "chip": "ym2612"
    },
    {
      "channel": 1,
      "note": 88,
      "start": 1.38,
      "duration": 0.0582,
      "velocity": 92,
      "chip": "ym2612"
    },
    {
      "channel": 2,
      "note": 84,
      "start": 1.3805,
      "duration": 0.058,
      "velocity": 92,
      "chip": "ym2612"
    },
    {
      "channel": 0,
      "note": 88,
      "start": 1.4578,
      "duration": 0.0583,
      "velocity": 92,
      "chip": "ym2612"
    },
    {
      "channel": 1,
      "note": 84,
      "start": 1.4585,
      "duration": 0.0579,
      "velocity": 92,
      "chip": "ym2612"
    },
    {
      "channel": 2,
      "note": 80,
      "start": 1.4592,
      "duration": 0.0574,
      "velocity": 92,
      "chip": "ym2612"
    },
    {
      "channel": 0,
      "note": 84,
      "start": 1.5359,
      "duration": 0.0585,
      "velocity": 92,
      "chip": "ym2612"
    },
    {
      "channel": 1,
      "note": 80,
      "start": 1.5364,
      "duration": 0.0582,
      "velocity": 92,
      "chip": "ym2612"
    },
    {
      "channel": 2,
      "note": 88,
      "start": 1.537,
      "duration": 0.0579,
      "velocity": 92,
      "chip": "ym2612"
    },
    {
      "channel": 0,
      "note": 80,
      "start": 1.6141,
      "duration": 0.0585,
      "velocity": 92,
      "chip": "ym2612"
    },
    {
      "channel": 1,
      "note": 88,
      "start": 1.6147,
      "duration": 0.0582,
      "velocity": 92,
      "chip": "ym2612"
    },
    {
      "channel": 2,
      "note": 84,
      "start": 1.6152,
      "duration": 0.0579,
      "velocity": 92,
      "chip": "ym2612"
    },
    {
      "channel": 0,
      "note": 88,
      "start": 1.6925,
      "duration": 0.0583,
      "velocity": 92,
      "chip": "ym2612"
    },
    {
      "channel": 1,
      "note": 84,
      "start": 1.6932,
      "duration": 0.0579,
      "velocity": 92,
      "chip": "ym2612"
    },
    {
      "channel": 2,
      "note": 80,
      "start": 1.6939,
      "duration": 0.0574,
      "velocity": 92,
      "chip": "ym2612"
    },
    {
      "channel": 0,
      "note": 84,
      "start": 1.7706,
      "duration": 0.0585,
      "velocity": 92,
      "chip": "ym2612"
    },
    {
      "channel": 1,
      "note": 80,
      "start": 1.7712,
      "duration": 0.0582,
      "velocity": 92,
      "chip": "ym2612"
    },
    {
      "channel": 2,
      "note": 88,
      "start": 1.7717,
      "duration": 0.058,
      "velocity": 92,
      "chip": "ym2612"
    },
    {
      "channel": 0,
      "note": 80,
      "start": 1.8489,
      "duration": 0.0585,
      "velocity": 92,
      "chip": "ym2612"
    },
    {
      "channel": 1,
      "note": 88,
      "start": 1.8494,
      "duration": 0.0582,
      "velocity": 92,
      "chip": "ym2612"
    },
    {
      "channel": 2,
      "note": 84,
      "start": 1.85,
      "duration": 0.058,
      "velocity": 92,
      "chip": "ym2612"
    },
    {
      "channel": 0,
      "note": 88,
      "start": 1.9273,
      "duration": 0.0583,
      "velocity": 92,
      "chip": "ym2612"
    },
    {
      "channel": 1,
      "note": 84,
      "start": 1.928,
      "duration": 0.0579,
      "velocity": 92,
      "chip": "ym2612"
    },
    {
      "channel": 2,
      "note": 80,
      "start": 1.9287,
      "duration": 0.0575,
      "velocity": 92,
      "chip": "ym2612"
    },
    {
      "channel": 3,
      "note": 54,
      "start": 1.9293,
      "duration": 0.4484,
      "velocity": 94,
      "chip": "ym2612"
    },
    {
      "channel": 0,
      "note": 84,
      "start": 2.0054,
      "duration": 0.0585,
      "velocity": 92,
      "chip": "ym2612"
    },
    {
      "channel": 1,
      "note": 80,
      "start": 2.0059,
      "duration": 0.0582,
      "velocity": 92,
      "chip": "ym2612"
    },
    {
      "channel": 2,
      "note": 88,
      "start": 2.0065,
      "duration": 0.0579,
      "velocity": 92,
      "chip": "ym2612"
    },
    {
      "channel": 0,
      "note": 80,
      "start": 2.0836,
      "duration": 0.0585,
      "velocity": 92,
      "chip": "ym2612"
    },
    {
      "channel": 1,
      "note": 88,
      "start": 2.0841,
      "duration": 0.0583,
      "velocity": 92,
      "chip": "ym2612"
    },
    {
      "channel": 2,
      "note": 84,
      "start": 2.0847,
      "duration": 0.058,
      "velocity": 92,
      "chip": "ym2612"
    },
    {
      "channel": 4,
      "note": 54,
      "start": 2.0856,
      "duration": 0.4489,
      "velocity": 94,
      "chip": "ym2612"
    },
    {
      "channel": 0,
      "note": 88,
      "start": 2.162,
      "duration": 0.0583,
      "velocity": 92,
      "chip": "ym2612"
    },
    {
      "channel": 1,
      "note": 84,
      "start": 2.1627,
      "duration": 0.0579,
      "velocity": 92,
      "chip": "ym2612"
    },
    {
      "channel": 2,
      "note": 80,
      "start": 2.1634,
      "duration": 0.0574,
      "velocity": 92,
      "chip": "ym2612"
    },
    {
      "channel": 0,
      "note": 84,
      "start": 2.2401,
      "duration": 0.0585,
      "velocity": 92,
      "chip": "ym2612"
    },
    {
      "channel": 1,
      "note": 80,
      "start": 2.2406,
      "duration": 0.0583,
      "velocity": 92,
      "chip": "ym2612"
    },
    {
      "channel": 2,
      "note": 88,
      "start": 2.2412,
      "duration": 0.058,
      "velocity": 92,
      "chip": "ym2612"
    },
    {
      "channel": 0,
      "note": 80,
      "start": 2.3184,
      "duration": 0.0585,
      "velocity": 92,
      "chip": "ym2612"
    },
    {
      "channel": 1,
      "note": 88,
      "start": 2.3189,
      "duration": 0.0582,
      "velocity": 92,
      "chip": "ym2612"
    },
    {
      "channel": 2,
      "note": 84,
      "start": 2.3195,
      "duration": 0.0579,
      "velocity": 92,
      "chip": "ym2612"
    },
    {
      "channel": 0,
      "note": 88,
      "start": 2.3968,
      "duration": 0.0583,
      "velocity": 92,
      "chip": "ym2612"
    },
    {
      "channel": 1,
      "note": 84,
      "start": 2.3974,
      "duration": 0.058,
      "velocity": 92,
      "chip": "ym2612"
    },
    {
      "channel": 2,
      "note": 80,
      "start": 2.3981,
      "duration": 0.0575,
      "velocity": 92,
      "chip": "ym2612"
    },
    {
      "channel": 3,
      "note": 60,
      "start": 2.3988,
      "duration": 0.4484,
      "velocity": 94,
      "chip": "ym2612"
    },
    {
      "channel": 0,
      "note": 84,
      "start": 2.4749,
      "duration": 0.0584,
      "velocity": 92,
      "chip": "ym2612"
    },
    {
      "channel": 1,
      "note": 80,
      "start": 2.4755,
      "duration": 0.0581,
      "velocity": 92,
      "chip": "ym2612"
    },
    {
      "channel": 2,
      "note": 88,
      "start": 2.476,
      "duration": 0.0579,
      "velocity": 92,
      "chip": "ym2612"
    },
    {
      "channel": 0,
      "note": 80,
      "start": 2.5531,
      "duration": 0.0585,
      "velocity": 92,
      "chip": "ym2612"
    },
    {
      "channel": 1,
      "note": 88,
      "start": 2.5536,
      "duration": 0.0582,
      "velocity": 92,
      "chip": "ym2612"
    },
    {
      "channel": 2,
      "note": 84,
      "start": 2.5542,
      "duration": 0.058,
      "velocity": 92,
      "chip": "ym2612"
    },
    {
      "channel": 4,
      "note": 60,
      "start": 2.5551,
      "duration": 0.4489,
      "velocity": 94,
      "chip": "ym2612"
    },
    {
      "channel": 0,
      "note": 88,
      "start": 2.6315,
      "duration": 0.0583,
      "velocity": 92,
      "chip": "ym2612"
    },
    {
      "channel": 1,
      "note": 84,
      "start": 2.6322,
      "duration": 0.0579,
      "velocity": 92,
      "chip": "ym2612"
    },
    {
      "channel": 2,
      "note": 80,
      "start": 2.6329,
      "duration": 0.0575,
      "velocity": 92,
      "chip": "ym2612"
    },
    {
      "channel": 0,
      "note": 84,
      "start": 2.7097,
      "duration": 0.0585,
      "velocity": 92,
      "chip": "ym2612"
    },
    {
      "channel": 1,
      "note": 80,
      "start": 2.7102,
      "duration": 0.0582,
      "velocity": 92,
      "chip": "ym2612"
    },
    {
      "channel": 2,
      "note": 88,
      "start": 2.7107,
      "duration": 0.0579,
      "velocity": 92,
      "chip": "ym2612"
    },
    {
      "channel": 0,
      "note": 80,
      "start": 2.7879,
      "duration": 0.0585,
      "velocity": 92,
      "chip": "ym2612"
    },
    {
      "channel": 1,
      "note": 88,
      "start": 2.7884,
      "duration": 0.0582,
      "velocity": 92,
      "chip": "ym2612"
    },
    {
      "channel": 2,
      "note": 84,
      "start": 2.789,
      "duration": 0.0579,
      "velocity": 92,
      "chip": "ym2612"
    },
    {
      "channel": 0,
      "note": 88,
      "start": 2.8679,
      "duration": 0.0567,
      "velocity": 92,
      "chip": "ym2612"
    },
    {
      "channel": 1,
      "note": 84,
      "start": 2.8702,
      "duration": 0.0547,
      "velocity": 92,
      "chip": "ym2612"
    },
    {
      "channel": 2,
      "note": 80,
      "start": 2.8727,
      "duration": 0.0525,
      "velocity": 92,
      "chip": "ym2612"
    },
    {
      "channel": 3,
      "note": 56,
      "start": 2.8733,
      "duration": 0.4434,
      "velocity": 94,
      "chip": "ym2612"
    },
    {
      "channel": 0,
      "note": 84,
      "start": 2.9444,
      "duration": 0.0585,
      "velocity": 92,
      "chip": "ym2612"
    },
    {
      "channel": 1,
      "note": 80,
      "start": 2.9449,
      "duration": 0.0582,
      "velocity": 92,
      "chip": "ym2612"
    },
    {
      "channel": 2,
      "note": 88,
      "start": 2.9455,
      "duration": 0.058,
      "velocity": 92,
      "chip": "ym2612"
    },
    {
      "channel": 0,
      "note": 80,
      "start": 3.0226,
      "duration": 0.0585,
      "velocity": 92,
      "chip": "ym2612"
    },
    {
      "channel": 1,
      "note": 88,
      "start": 3.0231,
      "duration": 0.0582,
      "velocity": 92,
      "chip": "ym2612"
    },
    {
      "channel": 2,
      "note": 84,
      "start": 3.0237,
      "duration": 0.0579,
      "velocity": 92,
      "chip": "ym2612"
    },
    {
      "channel": 4,
      "note": 56,
      "start": 3.0246,
      "duration": 0.4488,
      "velocity": 94,
      "chip": "ym2612"
    },
    {
      "channel": 0,
      "note": 88,
      "start": 3.1025,
      "duration": 0.0569,
      "velocity": 92,
      "chip": "ym2612"
    },
    {
      "channel": 1,
      "note": 84,
      "start": 3.1047,
      "duration": 0.055,
      "velocity": 92,
      "chip": "ym2612"
    },
    {
      "channel": 2,
      "note": 80,
      "start": 3.1068,
      "duration": 0.0531,
      "velocity": 92,
      "chip": "ym2612"
    },
    {
      "channel": 0,
      "note": 84,
      "start": 3.1791,
      "duration": 0.0585,
      "velocity": 92,
      "chip": "ym2612"
    },
    {
      "channel": 1,
      "note": 80,
      "start": 3.1796,
      "duration": 0.0582,
      "velocity": 92,
      "chip": "ym2612"
    },
    {
      "channel": 2,
      "note": 88,
      "start": 3.1802,
      "duration": 0.0579,
      "velocity": 92,
      "chip": "ym2612"
    },
    {
      "channel": 0,
      "note": 80,
      "start": 3.2573,
      "duration": 0.0585,
      "velocity": 92,
      "chip": "ym2612"
    },
    {
      "channel": 1,
      "note": 88,
      "start": 3.2579,
      "duration": 0.0582,
      "velocity": 92,
      "chip": "ym2612"
    },
    {
      "channel": 2,
      "note": 84,
      "start": 3.2584,
      "duration": 0.058,
      "velocity": 92,
      "chip": "ym2612"
    },
    {
      "channel": 0,
      "note": 88,
      "start": 3.3373,
      "duration": 0.0568,
      "velocity": 92,
      "chip": "ym2612"
    },
    {
      "channel": 1,
      "note": 84,
      "start": 3.3394,
      "duration": 0.0549,
      "velocity": 92,
      "chip": "ym2612"
    },
    {
      "channel": 2,
      "note": 80,
      "start": 3.3417,
      "duration": 0.053,
      "velocity": 92,
      "chip": "ym2612"
    },
    {
      "channel": 3,
      "note": 63,
      "start": 3.3423,
      "duration": 0.4439,
      "velocity": 94,
      "chip": "ym2612"
    },
    {
      "channel": 0,
      "note": 84,
      "start": 3.4139,
      "duration": 0.0585,
      "velocity": 92,
      "chip": "ym2612"
    },
    {
      "channel": 1,
      "note": 80,
      "start": 3.4144,
      "duration": 0.0582,
      "velocity": 92,
      "chip": "ym2612"
    },
    {
      "channel": 2,
      "note": 88,
      "start": 3.4149,
      "duration": 0.0579,
      "velocity": 92,
      "chip": "ym2612"
    },
    {
      "channel": 0,
      "note": 80,
      "start": 3.4921,
      "duration": 0.0585,
      "velocity": 92,
      "chip": "ym2612"
    },
    {
      "channel": 1,
      "note": 88,
      "start": 3.4926,
      "duration": 0.0582,
      "velocity": 92,
      "chip": "ym2612"
    },
    {
      "channel": 2,
      "note": 84,
      "start": 3.4932,
      "duration": 0.058,
      "velocity": 92,
      "chip": "ym2612"
    },
    {
      "channel": 4,
      "note": 63,
      "start": 3.4941,
      "duration": 0.4489,
      "velocity": 94,
      "chip": "ym2612"
    },
    {
      "channel": 0,
      "note": 88,
      "start": 3.572,
      "duration": 0.0568,
      "velocity": 92,
      "chip": "ym2612"
    },
    {
      "channel": 1,
      "note": 84,
      "start": 3.5741,
      "duration": 0.055,
      "velocity": 92,
      "chip": "ym2612"
    },
    {
      "channel": 2,
      "note": 80,
      "start": 3.5764,
      "duration": 0.0529,
      "velocity": 92,
      "chip": "ym2612"
    },
    {
      "channel": 0,
      "note": 84,
      "start": 3.6486,
      "duration": 0.0585,
      "velocity": 92,
      "chip": "ym2612"
    },
    {
      "channel": 1,
      "note": 80,
      "start": 3.6491,
      "duration": 0.0583,
      "velocity": 92,
      "chip": "ym2612"
    },
    {
      "channel": 2,
      "note": 88,
      "start": 3.6497,
      "duration": 0.058,
      "velocity": 92,
      "chip": "ym2612"
    },
    {
      "channel": 0,
      "note": 80,
      "start": 3.7268,
      "duration": 0.0585,
      "velocity": 92,
      "chip": "ym2612"
    },
    {
      "channel": 1,
      "note": 88,
      "start": 3.7273,
      "duration": 0.0583,
      "velocity": 92,
      "chip": "ym2612"
    },
    {
      "channel": 2,
      "note": 84,
      "start": 3.7279,
      "duration": 0.0579,
      "velocity": 92,
      "chip": "ym2612"
    },
    {
      "channel": 0,
      "note": 86,
      "start": 3.8071,
      "duration": 0.0565,
      "velocity": 92,
      "chip": "ym2612"
    },
    {
      "channel": 1,
      "note": 82,
      "start": 3.8095,
      "duration": 0.0544,
      "velocity": 92,
      "chip": "ym2612"
    },
    {
      "channel": 2,
      "note": 78,
      "start": 3.8117,
      "duration": 0.0524,
      "velocity": 92,
      "chip": "ym2612"
    },
    {
      "channel": 0,
      "note": 82,
      "start": 3.8833,
      "duration": 0.0585,
      "velocity": 92,
      "chip": "ym2612"
    },
    {
      "channel": 1,
      "note": 78,
      "start": 3.8839,
      "duration": 0.0583,
      "velocity": 92,
      "chip": "ym2612"
    },
    {
      "channel": 2,
      "note": 86,
      "start": 3.8844,
      "duration": 0.058,
      "velocity": 92,
      "chip": "ym2612"
    },
    {
      "channel": 0,
      "note": 78,
      "start": 3.9616,
      "duration": 0.0585,
      "velocity": 92,
      "chip": "ym2612"
    },
    {
      "channel": 1,
      "note": 86,
      "start": 3.9621,
      "duration": 0.0582,
      "velocity": 92,
      "chip": "ym2612"
    },
    {
      "channel": 2,
      "note": 82,
      "start": 3.9627,
      "duration": 0.0579,
      "velocity": 92,
      "chip": "ym2612"
    },
    {
      "channel": 0,
      "note": 86,
      "start": 4.04,
      "duration": 0.0583,
      "velocity": 92,
      "chip": "ym2612"
    },
    {
      "channel": 1,
      "note": 82,
      "start": 4.0407,
      "duration": 0.0579,
      "velocity": 92,
      "chip": "ym2612"
    },
    {
      "channel": 2,
      "note": 78,
      "start": 4.0413,
      "duration": 0.0575,
      "velocity": 92,
      "chip": "ym2612"
    },
    {
      "channel": 0,
      "note": 82,
      "start": 4.1181,
      "duration": 0.0585,
      "velocity": 92,
      "chip": "ym2612"
    },
    {
      "channel": 1,
      "note": 78,
      "start": 4.1186,
      "duration": 0.0582,
      "velocity": 92,
      "chip": "ym2612"
    },
    {
      "channel": 2,
      "note": 86,
      "start": 4.1192,
      "duration": 0.0579,
      "velocity": 92,
      "chip": "ym2612"
    },
    {
      "channel": 0,
      "note": 78,
      "start": 4.1963,
      "duration": 0.0585,
      "velocity": 92,
      "chip": "ym2612"
    },
    {
      "channel": 1,
      "note": 86,
      "start": 4.1969,
      "duration": 0.0582,
      "velocity": 92,
      "chip": "ym2612"
    },
    {
      "channel": 2,
      "note": 82,
      "start": 4.1974,
      "duration": 0.0579,
      "velocity": 92,
      "chip": "ym2612"
    },
    {
      "channel": 0,
      "note": 86,
      "start": 4.2747,
      "duration": 0.0583,
      "velocity": 92,
      "chip": "ym2612"
    },
    {
      "channel": 1,
      "note": 82,
      "start": 4.2755,
      "duration": 0.0578,
      "velocity": 92,
      "chip": "ym2612"
    },
    {
      "channel": 2,
      "note": 78,
      "start": 4.2762,
      "duration": 0.0574,
      "velocity": 92,
      "chip": "ym2612"
    },
    {
      "channel": 0,
      "note": 82,
      "start": 4.3528,
      "duration": 0.0585,
      "velocity": 92,
      "chip": "ym2612"
    },
    {
      "channel": 1,
      "note": 78,
      "start": 4.3534,
      "duration": 0.0582,
      "velocity": 92,
      "chip": "ym2612"
    },
    {
      "channel": 2,
      "note": 86,
      "start": 4.3539,
      "duration": 0.0579,
      "velocity": 92,
      "chip": "ym2612"
    },
    {
      "channel": 0,
      "note": 78,
      "start": 4.431,
      "duration": 0.0585,
      "velocity": 92,
      "chip": "ym2612"
    },
    {
      "channel": 1,
      "note": 86,
      "start": 4.4316,
      "duration": 0.0582,
      "velocity": 92,
      "chip": "ym2612"
    },
    {
      "channel": 2,
      "note": 82,
      "start": 4.4321,
      "duration": 0.058,
      "velocity": 92,
      "chip": "ym2612"
    },
    {
      "channel": 0,
      "note": 86,
      "start": 4.5095,
      "duration": 0.0583,
      "velocity": 92,
      "chip": "ym2612"
    },
    {
      "channel": 1,
      "note": 82,
      "start": 4.5102,
      "duration": 0.0579,
      "velocity": 92,
      "chip": "ym2612"
    },
    {
      "channel": 2,
      "note": 78,
      "start": 4.5108,
      "duration": 0.0576,
      "velocity": 92,
      "chip": "ym2612"
    },
    {
      "channel": 0,
      "note": 82,
      "start": 4.5876,
      "duration": 0.0585,
      "velocity": 92,
      "chip": "ym2612"
    },
    {
      "channel": 1,
      "note": 78,
      "start": 4.5881,
      "duration": 0.0583,
      "velocity": 92,
      "chip": "ym2612"
    },
    {
      "channel": 2,
      "note": 86,
      "start": 4.5887,
      "duration": 0.058,
      "velocity": 92,
      "chip": "ym2612"
    },
    {
      "channel": 0,
      "note": 78,
      "start": 4.6658,
      "duration": 0.0585,
      "velocity": 92,
      "chip": "ym2612"
    },
    {
      "channel": 1,
      "note": 86,
      "start": 4.6663,
      "duration": 0.0582,
      "velocity": 92,
      "chip": "ym2612"
    },
    {
      "channel": 2,
      "note": 82,
      "start": 4.6669,
      "duration": 0.058,
      "velocity": 92,
      "chip": "ym2612"
    },
    {
      "channel": 0,
      "note": 86,
      "start": 4.7442,
      "duration": 0.0583,
      "velocity": 92,
      "chip": "ym2612"
    },
    {
      "channel": 1,
      "note": 82,
      "start": 4.7449,
      "duration": 0.0579,
      "velocity": 92,
      "chip": "ym2612"
    },
    {
      "channel": 2,
      "note": 78,
      "start": 4.7455,
      "duration": 0.0575,
      "velocity": 92,
      "chip": "ym2612"
    },
    {
      "channel": 3,
      "note": 62,
      "start": 4.7462,
      "duration": 0.9179,
      "velocity": 94,
      "chip": "ym2612"
    },
    {
      "channel": 0,
      "note": 82,
      "start": 4.8223,
      "duration": 0.0585,
      "velocity": 92,
      "chip": "ym2612"
    },
    {
      "channel": 1,
      "note": 78,
      "start": 4.8228,
      "duration": 0.0583,
      "velocity": 92,
      "chip": "ym2612"
    },
    {
      "channel": 2,
      "note": 86,
      "start": 4.8234,
      "duration": 0.0579,
      "velocity": 92,
      "chip": "ym2612"
    },
    {
      "channel": 0,
      "note": 78,
      "start": 4.9005,
      "duration": 0.0585,
      "velocity": 92,
      "chip": "ym2612"
    },
    {
      "channel": 1,
      "note": 86,
      "start": 4.9011,
      "duration": 0.0582,
      "velocity": 92,
      "chip": "ym2612"
    },
    {
      "channel": 2,
      "note": 82,
      "start": 4.9016,
      "duration": 0.058,
      "velocity": 92,
      "chip": "ym2612"
    },
    {
      "channel": 4,
      "note": 62,
      "start": 4.9026,
      "duration": 0.9183,
      "velocity": 94,
      "chip": "ym2612"
    },
    {
      "channel": 0,
      "note": 86,
      "start": 4.9789,
      "duration": 0.0584,
      "velocity": 92,
      "chip": "ym2612"
    },
    {
      "channel": 1,
      "note": 82,
      "start": 4.9796,
      "duration": 0.0579,
      "velocity": 92,
      "chip": "ym2612"
    },
    {
      "channel": 2,
      "note": 78,
      "start": 4.9803,
      "duration": 0.0575,
      "velocity": 92,
      "chip": "ym2612"
    },
    {
      "channel": 0,
      "note": 82,
      "start": 5.0571,
      "duration": 0.0585,
      "velocity": 92,
      "chip": "ym2612"
    },
    {
      "channel": 1,
      "note": 78,
      "start": 5.0576,
      "duration": 0.0583,
      "velocity": 92,
      "chip": "ym2612"
    },
    {
      "channel": 2,
      "note": 86,
      "start": 5.0581,
      "duration": 0.058,
      "velocity": 92,
      "chip": "ym2612"
    },
    {
      "channel": 0,
      "note": 78,
      "start": 5.1354,
      "duration": 0.0585,
      "velocity": 92,
      "chip": "ym2612"
    },
    {
      "channel": 1,
      "note": 86,
      "start": 5.1359,
      "duration": 0.0582,
      "velocity": 92,
      "chip": "ym2612"
    },
    {
      "channel": 2,
      "note": 82,
      "start": 5.1364,
      "duration": 0.0579,
      "velocity": 92,
      "chip": "ym2612"
    },
    {
      "channel": 0,
      "note": 86,
      "start": 5.2137,
      "duration": 0.0585,
      "velocity": 92,
      "chip": "ym2612"
    },
    {
      "channel": 1,
      "note": 82,
      "start": 5.2144,
      "duration": 0.0581,
      "velocity": 92,
      "chip": "ym2612"
    },
    {
      "channel": 2,
      "note": 78,
      "start": 5.2151,
      "duration": 0.0577,
      "velocity": 92,
      "chip": "ym2612"
    },
    {
      "channel": 0,
      "note": 82,
      "start": 5.2919,
      "duration": 0.0584,
      "velocity": 92,
      "chip": "ym2612"
    },
    {
      "channel": 1,
      "note": 78,
      "start": 5.2924,
      "duration": 0.0581,
      "velocity": 92,
      "chip": "ym2612"
    },
    {
      "channel": 2,
      "note": 86,
      "start": 5.293,
      "duration": 0.0578,
      "velocity": 92,
      "chip": "ym2612"
    },
    {
      "channel": 0,
      "note": 78,
      "start": 5.37,
      "duration": 0.0585,
      "velocity": 92,
      "chip": "ym2612"
    },
    {
      "channel": 1,
      "note": 86,
      "start": 5.3706,
      "duration": 0.0582,
      "velocity": 92,
      "chip": "ym2612"
    },
    {
      "channel": 2,
      "note": 82,
      "start": 5.3711,
      "duration": 0.0579,
      "velocity": 92,
      "chip": "ym2612"
    },
    {
      "channel": 0,
      "note": 86,
      "start": 5.4484,
      "duration": 0.0584,
      "velocity": 92,
      "chip": "ym2612"
    },
    {
      "channel": 1,
      "note": 82,
      "start": 5.4491,
      "duration": 0.058,
      "velocity": 92,
      "chip": "ym2612"
    },
    {
      "channel": 2,
      "note": 78,
      "start": 5.4498,
      "duration": 0.0575,
      "velocity": 92,
      "chip": "ym2612"
    },
    {
      "channel": 0,
      "note": 82,
      "start": 5.5266,
      "duration": 0.0585,
      "velocity": 92,
      "chip": "ym2612"
    },
    {
      "channel": 1,
      "note": 78,
      "start": 5.5271,
      "duration": 0.0582,
      "velocity": 92,
      "chip": "ym2612"
    },
    {
      "channel": 2,
      "note": 86,
      "start": 5.5277,
      "duration": 0.0579,
      "velocity": 92,
      "chip": "ym2612"
    },
    {
      "channel": 0,
      "note": 78,
      "start": 5.6048,
      "duration": 0.0585,
      "velocity": 92,
      "chip": "ym2612"
    },
    {
      "channel": 1,
      "note": 86,
      "start": 5.6053,
      "duration": 0.0582,
      "velocity": 92,
      "chip": "ym2612"
    },
    {
      "channel": 2,
      "note": 82,
      "start": 5.6059,
      "duration": 0.0579,
      "velocity": 92,
      "chip": "ym2612"
    },
    {
      "channel": 0,
      "note": 86,
      "start": 5.6832,
      "duration": 0.0584,
      "velocity": 92,
      "chip": "ym2612"
    },
    {
      "channel": 1,
      "note": 82,
      "start": 5.6838,
      "duration": 0.0581,
      "velocity": 92,
      "chip": "ym2612"
    },
    {
      "channel": 2,
      "note": 78,
      "start": 5.6845,
      "duration": 0.0576,
      "velocity": 92,
      "chip": "ym2612"
    },
    {
      "channel": 3,
      "note": 60,
      "start": 5.6852,
      "duration": 0.4485,
      "velocity": 94,
      "chip": "ym2612"
    },
    {
      "channel": 0,
      "note": 82,
      "start": 5.7613,
      "duration": 0.0585,
      "velocity": 92,
      "chip": "ym2612"
    },
    {
      "channel": 1,
      "note": 78,
      "start": 5.7618,
      "duration": 0.0582,
      "velocity": 92,
      "chip": "ym2612"
    },
    {
      "channel": 2,
      "note": 86,
      "start": 5.7624,
      "duration": 0.058,
      "velocity": 92,
      "chip": "ym2612"
    },
    {
      "channel": 0,
      "note": 78,
      "start": 5.8395,
      "duration": 0.0585,
      "velocity": 92,
      "chip": "ym2612"
    },
    {
      "channel": 1,
      "note": 86,
      "start": 5.8401,
      "duration": 0.0582,
      "velocity": 92,
      "chip": "ym2612"
    },
    {
      "channel": 2,
      "note": 82,
      "start": 5.8406,
      "duration": 0.058,
      "velocity": 92,
      "chip": "ym2612"
    },
    {
      "channel": 4,
      "note": 60,
      "start": 5.8417,
      "duration": 0.4488,
      "velocity": 94,
      "chip": "ym2612"
    },
    {
      "channel": 0,
      "note": 86,
      "start": 5.9179,
      "duration": 0.0583,
      "velocity": 92,
      "chip": "ym2612"
    },
    {
      "channel": 1,
      "note": 82,
      "start": 5.9186,
      "duration": 0.058,
      "velocity": 92,
      "chip": "ym2612"
    },
    {
      "channel": 2,
      "note": 78,
      "start": 5.9193,
      "duration": 0.0575,
      "velocity": 92,
      "chip": "ym2612"
    },
    {
      "channel": 0,
      "note": 82,
      "start": 5.996,
      "duration": 0.0585,
      "velocity": 92,
      "chip": "ym2612"
    },
    {
      "channel": 1,
      "note": 78,
      "start": 5.9966,
      "duration": 0.0582,
      "velocity": 92,
      "chip": "ym2612"
    },
    {
      "channel": 2,
      "note": 86,
      "start": 5.9971,
      "duration": 0.058,
      "velocity": 92,
      "chip": "ym2612"
    },
    {
      "channel": 0,
      "note": 78,
      "start": 6.0743,
      "duration": 0.0585,
      "velocity": 92,
      "chip": "ym2612"
    },
    {
      "channel": 1,
      "note": 86,
      "start": 6.0749,
      "duration": 0.0581,
      "velocity": 92,
      "chip": "ym2612"
    },
    {
      "channel": 2,
      "note": 82,
      "start": 6.0754,
      "duration": 0.0579,
      "velocity": 92,
      "chip": "ym2612"
    },
    {
      "channel": 0,
      "note": 86,
      "start": 6.1527,
      "duration": 0.0583,
      "velocity": 92,
      "chip": "ym2612"
    },
    {
      "channel": 1,
      "note": 82,
      "start": 6.1534,
      "duration": 0.058,
      "velocity": 92,
      "chip": "ym2612"
    },
    {
      "channel": 2,
      "note": 78,
      "start": 6.1541,
      "duration": 0.0575,
      "velocity": 92,
      "chip": "ym2612"
    },
    {
      "channel": 3,
      "note": 66,
      "start": 6.1547,
      "duration": 0.4484,
      "velocity": 94,
      "chip": "ym2612"
    },
    {
      "channel": 0,
      "note": 82,
      "start": 6.2308,
      "duration": 0.0585,
      "velocity": 92,
      "chip": "ym2612"
    },
    {
      "channel": 1,
      "note": 78,
      "start": 6.2313,
      "duration": 0.0583,
      "velocity": 92,
      "chip": "ym2612"
    },
    {
      "channel": 2,
      "note": 86,
      "start": 6.2319,
      "duration": 0.0579,
      "velocity": 92,
      "chip": "ym2612"
    },
    {
      "channel": 0,
      "note": 78,
      "start": 6.309,
      "duration": 0.0585,
      "velocity": 92,
      "chip": "ym2612"
    },
    {
      "channel": 1,
      "note": 86,
      "start": 6.3096,
      "duration": 0.0581,
      "velocity": 92,
      "chip": "ym2612"
    },
    {
      "channel": 2,
      "note": 82,
      "start": 6.3101,
      "duration": 0.058,
      "velocity": 92,
      "chip": "ym2612"
    },
    {
      "channel": 4,
      "note": 66,
      "start": 6.311,
      "duration": 0.4489,
      "velocity": 94,
      "chip": "ym2612"
    },
    {
      "channel": 0,
      "note": 86,
      "start": 6.3874,
      "duration": 0.0583,
      "velocity": 92,
      "chip": "ym2612"
    },
    {
      "channel": 1,
      "note": 82,
      "start": 6.3881,
      "duration": 0.0579,
      "velocity": 92,
      "chip": "ym2612"
    },
    {
      "channel": 2,
      "note": 78,
      "start": 6.3888,
      "duration": 0.0575,
      "velocity": 92,
      "chip": "ym2612"
    },
    {
      "channel": 0,
      "note": 82,
      "start": 6.4656,
      "duration": 0.0585,
      "velocity": 92,
      "chip": "ym2612"
    },
    {
      "channel": 1,
      "note": 78,
      "start": 6.4661,
      "duration": 0.0582,
      "velocity": 92,
      "chip": "ym2612"
    },
    {
      "channel": 2,
      "note": 86,
      "start": 6.4666,
      "duration": 0.0579,
      "velocity": 92,
      "chip": "ym2612"
    },
    {
      "channel": 0,
      "note": 78,
      "start": 6.5437,
      "duration": 0.0585,
      "velocity": 92,
      "chip": "ym2612"
    },
    {
      "channel": 1,
      "note": 86,
      "start": 6.5443,
      "duration": 0.0582,
      "velocity": 92,
      "chip": "ym2612"
    },
    {
      "channel": 2,
      "note": 82,
      "start": 6.5448,
      "duration": 0.058,
      "velocity": 92,
      "chip": "ym2612"
    },
    {
      "channel": 0,
      "note": 86,
      "start": 6.6238,
      "duration": 0.0568,
      "velocity": 92,
      "chip": "ym2612"
    },
    {
      "channel": 1,
      "note": 82,
      "start": 6.6262,
      "duration": 0.0546,
      "velocity": 92,
      "chip": "ym2612"
    },
    {
      "channel": 2,
      "note": 78,
      "start": 6.6285,
      "duration": 0.0525,
      "velocity": 92,
      "chip": "ym2612"
    },
    {
      "channel": 3,
      "note": 62,
      "start": 6.6291,
      "duration": 0.4435,
      "velocity": 94,
      "chip": "ym2612"
    },
    {
      "channel": 0,
      "note": 82,
      "start": 6.7003,
      "duration": 0.0585,
      "velocity": 92,
      "chip": "ym2612"
    },
    {
      "channel": 1,
      "note": 78,
      "start": 6.7008,
      "duration": 0.0582,
      "velocity": 92,
      "chip": "ym2612"
    },
    {
      "channel": 2,
      "note": 86,
      "start": 6.7014,
      "duration": 0.0579,
      "velocity": 92,
      "chip": "ym2612"
    },
    {
      "channel": 0,
      "note": 78,
      "start": 6.7785,
      "duration": 0.0585,
      "velocity": 92,
      "chip": "ym2612"
    },
    {
      "channel": 1,
      "note": 86,
      "start": 6.779,
      "duration": 0.0582,
      "velocity": 92,
      "chip": "ym2612"
    },
    {
      "channel": 2,
      "note": 82,
      "start": 6.7796,
      "duration": 0.0579,
      "velocity": 92,
      "chip": "ym2612"
    },
    {
      "channel": 4,
      "note": 62,
      "start": 6.7805,
      "duration": 0.4488,
      "velocity": 94,
      "chip": "ym2612"
    },
    {
      "channel": 0,
      "note": 86,
      "start": 6.8584,
      "duration": 0.0568,
      "velocity": 92,
      "chip": "ym2612"
    },
    {
      "channel": 1,
      "note": 82,
      "start": 6.8607,
      "duration": 0.0548,
      "velocity": 92,
      "chip": "ym2612"
    },
    {
      "channel": 2,
      "note": 78,
      "start": 6.8628,
      "duration": 0.053,
      "velocity": 92,
      "chip": "ym2612"
    },
    {
      "channel": 0,
      "note": 82,
      "start": 6.935,
      "duration": 0.0585,
      "velocity": 92,
      "chip": "ym2612"
    },
    {
      "channel": 1,
      "note": 78,
      "start": 6.9355,
      "duration": 0.0582,
      "velocity": 92,
      "chip": "ym2612"
    },
    {
      "channel": 2,
      "note": 86,
      "start": 6.9361,
      "duration": 0.058,
      "velocity": 92,
      "chip": "ym2612"
    },
    {
      "channel": 0,
      "note": 78,
      "start": 7.0133,
      "duration": 0.0585,
      "velocity": 92,
      "chip": "ym2612"
    },
    {
      "channel": 1,
      "note": 86,
      "start": 7.0138,
      "duration": 0.0582,
      "velocity": 92,
      "chip": "ym2612"
    },
    {
      "channel": 2,
      "note": 82,
      "start": 7.0144,
      "duration": 0.058,
      "velocity": 92,
      "chip": "ym2612"
    },
    {
      "channel": 0,
      "note": 86,
      "start": 7.0932,
      "duration": 0.0568,
      "velocity": 92,
      "chip": "ym2612"
    },
    {
      "channel": 1,
      "note": 82,
      "start": 7.0954,
      "duration": 0.0548,
      "velocity": 92,
      "chip": "ym2612"
    },
    {
      "channel": 2,
      "note": 78,
      "start": 7.0976,
      "duration": 0.053,
      "velocity": 92,
      "chip": "ym2612"
    },
    {
      "channel": 3,
      "note": 67,
      "start": 7.0982,
      "duration": 0.4439,
      "velocity": 94,
      "chip": "ym2612"
    },
    {
      "channel": 0,
      "note": 82,
      "start": 7.1698,
      "duration": 0.0585,
      "velocity": 92,
      "chip": "ym2612"
    },
    {
      "channel": 1,
      "note": 78,
      "start": 7.1703,
      "duration": 0.0581,
      "velocity": 92,
      "chip": "ym2612"
    },
    {
      "channel": 2,
      "note": 86,
      "start": 7.1708,
      "duration": 0.058,
      "velocity": 92,
      "chip": "ym2612"
    },
    {
      "channel": 0,
      "note": 78,
      "start": 7.248,
      "duration": 0.0585,
      "velocity": 92,
      "chip": "ym2612"
    },
    {
      "channel": 1,
      "note": 86,
      "start": 7.2485,
      "duration": 0.0582,
      "velocity": 92,
      "chip": "ym2612"
    },
    {
      "channel": 2,
      "note": 82,
      "start": 7.2491,
      "duration": 0.058,
      "velocity": 92,
      "chip": "ym2612"
    },
    {
      "channel": 4,
      "note": 67,
      "start": 7.25,
      "duration": 0.4489,
      "velocity": 94,
      "chip": "ym2612"
    },
    {
      "channel": 0,
      "note": 86,
      "start": 7.3279,
      "duration": 0.0568,
      "velocity": 92,
      "chip": "ym2612"
    },
    {
      "channel": 1,
      "note": 82,
      "start": 7.3301,
      "duration": 0.0548,
      "velocity": 92,
      "chip": "ym2612"
    },
    {
      "channel": 2,
      "note": 78,
      "start": 7.3323,
      "duration": 0.053,
      "velocity": 92,
      "chip": "ym2612"
    },
    {
      "channel": 0,
      "note": 82,
      "start": 7.4045,
      "duration": 0.0585,
      "velocity": 92,
      "chip": "ym2612"
    },
    {
      "channel": 1,
      "note": 78,
      "start": 7.4051,
      "duration": 0.0582,
      "velocity": 92,
      "chip": "ym2612"
    },
    {
      "channel": 2,
      "note": 86,
      "start": 7.4058,
      "duration": 0.0578,
      "velocity": 92,
      "chip": "ym2612"
    },
    {
      "channel": 0,
      "note": 78,
      "start": 7.4827,
      "duration": 0.0585,
      "velocity": 92,
      "chip": "ym2612"
    },
    {
      "channel": 1,
      "note": 86,
      "start": 7.4832,
      "duration": 0.0583,
      "velocity": 92,
      "chip": "ym2612"
    },
    {
      "channel": 2,
      "note": 82,
      "start": 7.4838,
      "duration": 0.058,
      "velocity": 92,
      "chip": "ym2612"
    },
    {
      "channel": 0,
      "note": 81,
      "start": 7.5628,
      "duration": 0.0567,
      "velocity": 92,
      "chip": "ym2612"
    },
    {
      "channel": 1,
      "note": 77,
      "start": 7.5651,
      "duration": 0.0546,
      "velocity": 92,
      "chip": "ym2612"
    },
    {
      "channel": 2,
      "note": 73,
      "start": 7.5675,
      "duration": 0.0525,
      "velocity": 92,
      "chip": "ym2612"
    },
    {
      "channel": 0,
      "note": 77,
      "start": 7.6392,
      "duration": 0.0585,
      "velocity": 92,
      "chip": "ym2612"
    },
    {
      "channel": 1,
      "note": 73,
      "start": 7.6398,
      "duration": 0.0583,
      "velocity": 92,
      "chip": "ym2612"
    },
    {
      "channel": 2,
      "note": 81,
      "start": 7.6403,
      "duration": 0.058,
      "velocity": 92,
      "chip": "ym2612"
    },
    {
      "channel": 0,
      "note": 73,
      "start": 7.7175,
      "duration": 0.0585,
      "velocity": 92,
      "chip": "ym2612"
    },
    {
      "channel": 1,
      "note": 81,
      "start": 7.718,
      "duration": 0.0583,
      "velocity": 92,
      "chip": "ym2612"
    },
    {
      "channel": 2,
      "note": 77,
      "start": 7.7185,
      "duration": 0.058,
      "velocity": 92,
      "chip": "ym2612"
    },
    {
      "channel": 0,
      "note": 81,
      "start": 7.7957,
      "duration": 0.0585,
      "velocity": 92,
      "chip": "ym2612"
    },
    {
      "channel": 1,
      "note": 77,
      "start": 7.7963,
      "duration": 0.0582,
      "velocity": 92,
      "chip": "ym2612"
    },
    {
      "channel": 2,
      "note": 73,
      "start": 7.7968,
      "duration": 0.058,
      "velocity": 92,
      "chip": "ym2612"
    },
    {
      "channel": 0,
      "note": 77,
      "start": 7.874,
      "duration": 0.0585,
      "velocity": 92,
      "chip": "ym2612"
    },
    {
      "channel": 1,
      "note": 73,
      "start": 7.8745,
      "duration": 0.0582,
      "velocity": 92,
      "chip": "ym2612"
    },
    {
      "channel": 2,
      "note": 81,
      "start": 7.8751,
      "duration": 0.0579,
      "velocity": 92,
      "chip": "ym2612"
    },
    {
      "channel": 0,
      "note": 73,
      "start": 7.9522,
      "duration": 0.0585,
      "velocity": 92,
      "chip": "ym2612"
    },
    {
      "channel": 1,
      "note": 81,
      "start": 7.9528,
      "duration": 0.0582,
      "velocity": 92,
      "chip": "ym2612"
    },
    {
      "channel": 2,
      "note": 77,
      "start": 7.9533,
      "duration": 0.058,
      "velocity": 92,
      "chip": "ym2612"
    },
    {
      "channel": 0,
      "note": 81,
      "start": 8.0306,
      "duration": 0.0583,
      "velocity": 92,
      "chip": "ym2612"
    },
    {
      "channel": 1,
      "note": 77,
      "start": 8.0313,
      "duration": 0.0579,
      "velocity": 92,
      "chip": "ym2612"
    },
    {
      "channel": 2,
      "note": 73,
      "start": 8.032,
      "duration": 0.0575,
      "velocity": 92,
      "chip": "ym2612"
    },
    {
      "channel": 0,
      "note": 77,
      "start": 8.1087,
      "duration": 0.0585,
      "velocity": 92,
      "chip": "ym2612"
    },
    {
      "channel": 1,
      "note": 73,
      "start": 8.1093,
      "duration": 0.0582,
      "velocity": 92,
      "chip": "ym2612"
    },
    {
      "channel": 2,
      "note": 81,
      "start": 8.1098,
      "duration": 0.058,
      "velocity": 92,
      "chip": "ym2612"
    },
    {
      "channel": 0,
      "note": 73,
      "start": 8.1869,
      "duration": 0.0585,
      "velocity": 92,
      "chip": "ym2612"
    },
    {
      "channel": 1,
      "note": 81,
      "start": 8.1875,
      "duration": 0.0582,
      "velocity": 92,
      "chip": "ym2612"
    },
    {
      "channel": 2,
      "note": 77,
      "start": 8.188,
      "duration": 0.058,
      "velocity": 92,
      "chip": "ym2612"
    },
    {
      "channel": 0,
      "note": 81,
      "start": 8.2652,
      "duration": 0.0585,
      "velocity": 92,
      "chip": "ym2612"
    },
    {
      "channel": 1,
      "note": 77,
      "start": 8.2658,
      "duration": 0.0582,
      "velocity": 92,
      "chip": "ym2612"
    },
    {
      "channel": 2,
      "note": 73,
      "start": 8.2663,
      "duration": 0.058,
      "velocity": 92,
      "chip": "ym2612"
    },
    {
      "channel": 0,
      "note": 77,
      "start": 8.3435,
      "duration": 0.0585,
      "velocity": 92,
      "chip": "ym2612"
    },
    {
      "channel": 1,
      "note": 73,
      "start": 8.344,
      "duration": 0.0582,
      "velocity": 92,
      "chip": "ym2612"
    },
    {
      "channel": 2,
      "note": 81,
      "start": 8.3446,
      "duration": 0.0579,
      "velocity": 92,
      "chip": "ym2612"
    },
    {
      "channel": 0,
      "note": 73,
      "start": 8.4217,
      "duration": 0.0585,
      "velocity": 92,
      "chip": "ym2612"
    },
    {
      "channel": 1,
      "note": 81,
      "start": 8.4222,
      "duration": 0.0582,
      "velocity": 92,
      "chip": "ym2612"
    },
    {
      "channel": 2,
      "note": 77,
      "start": 8.4228,
      "duration": 0.058,
      "velocity": 92,
      "chip": "ym2612"
    },
    {
      "channel": 0,
      "note": 81,
      "start": 8.5001,
      "duration": 0.0584,
      "velocity": 92,
      "chip": "ym2612"
    },
    {
      "channel": 1,
      "note": 77,
      "start": 8.5008,
      "duration": 0.0579,
      "velocity": 92,
      "chip": "ym2612"
    },
    {
      "channel": 2,
      "note": 73,
      "start": 8.5015,
      "duration": 0.0576,
      "velocity": 92,
      "chip": "ym2612"
    },
    {
      "channel": 3,
      "note": 68,
      "start": 8.5021,
      "duration": 0.918,
      "velocity": 94,
      "chip": "ym2612"
    },
    {
      "channel": 0,
      "note": 77,
      "start": 8.5782,
      "duration": 0.0585,
      "velocity": 92,
      "chip": "ym2612"
    },
    {
      "channel": 1,
      "note": 73,
      "start": 8.5787,
      "duration": 0.0582,
      "velocity": 92,
      "chip": "ym2612"
    },
    {
      "channel": 2,
      "note": 81,
      "start": 8.5793,
      "duration": 0.0579,
      "velocity": 92,
      "chip": "ym2612"
    },
    {
      "channel": 0,
      "note": 73,
      "start": 8.6565,
      "duration": 0.0585,
      "velocity": 92,
      "chip": "ym2612"
    },
    {
      "channel": 1,
      "note": 81,
      "start": 8.657,
      "duration": 0.0582,
      "velocity": 92,
      "chip": "ym2612"
    },
    {
      "channel": 2,
      "note": 77,
      "start": 8.6576,
      "duration": 0.058,
      "velocity": 92,
      "chip": "ym2612"
    },
    {
      "channel": 4,
      "note": 68,
      "start": 8.6585,
      "duration": 0.9183,
      "velocity": 94,
      "chip": "ym2612"
    },
    {
      "channel": 0,
      "note": 81,
      "start": 8.7347,
      "duration": 0.0585,
      "velocity": 92,
      "chip": "ym2612"
    },
    {
      "channel": 1,
      "note": 77,
      "start": 8.7353,
      "duration": 0.0582,
      "velocity": 92,
      "chip": "ym2612"
    },
    {
      "channel": 2,
      "note": 73,
      "start": 8.7358,
      "duration": 0.0579,
      "velocity": 92,
      "chip": "ym2612"
    },
    {
      "channel": 0,
      "note": 77,
      "start": 8.813,
      "duration": 0.0585,
      "velocity": 92,
      "chip": "ym2612"
    },
    {
      "channel": 1,
      "note": 73,
      "start": 8.8135,
      "duration": 0.0581,
      "velocity": 92,
      "chip": "ym2612"
    },
    {
      "channel": 2,
      "note": 81,
      "start": 8.814,
      "duration": 0.0581,
      "velocity": 92,
      "chip": "ym2612"
    },
    {
      "channel": 0,
      "note": 73,
      "start": 8.8912,
      "duration": 0.0585,
      "velocity": 92,
      "chip": "ym2612"
    },
    {
      "channel": 1,
      "note": 81,
      "start": 8.8918,
      "duration": 0.0581,
      "velocity": 92,
      "chip": "ym2612"
    },
    {
      "channel": 2,
      "note": 77,
      "start": 8.8924,
      "duration": 0.0579,
      "velocity": 92,
      "chip": "ym2612"
    },
    {
      "channel": 0,
      "note": 81,
      "start": 8.9696,
      "duration": 0.0583,
      "velocity": 92,
      "chip": "ym2612"
    },
    {
      "channel": 1,
      "note": 77,
      "start": 8.9703,
      "duration": 0.0579,
      "velocity": 92,
      "chip": "ym2612"
    },
    {
      "channel": 2,
      "note": 73,
      "start": 8.971,
      "duration": 0.0575,
      "velocity": 92,
      "chip": "ym2612"
    },
    {
      "channel": 0,
      "note": 77,
      "start": 9.0478,
      "duration": 0.0585,
      "velocity": 92,
      "chip": "ym2612"
    },
    {
      "channel": 1,
      "note": 73,
      "start": 9.0483,
      "duration": 0.0582,
      "velocity": 92,
      "chip": "ym2612"
    },
    {
      "channel": 2,
      "note": 81,
      "start": 9.0488,
      "duration": 0.0579,
      "velocity": 92,
      "chip": "ym2612"
    },
    {
      "channel": 0,
      "note": 73,
      "start": 9.1259,
      "duration": 0.0585,
      "velocity": 92,
      "chip": "ym2612"
    },
    {
      "channel": 1,
      "note": 81,
      "start": 9.1264,
      "duration": 0.0583,
      "velocity": 92,
      "chip": "ym2612"
    },
    {
      "channel": 2,
      "note": 77,
      "start": 9.127,
      "duration": 0.0579,
      "velocity": 92,
      "chip": "ym2612"
    },
    {
      "channel": 0,
      "note": 81,
      "start": 9.2042,
      "duration": 0.0585,
      "velocity": 92,
      "chip": "ym2612"
    },
    {
      "channel": 1,
      "note": 77,
      "start": 9.2048,
      "duration": 0.0582,
      "velocity": 92,
      "chip": "ym2612"
    },
    {
      "channel": 2,
      "note": 73,
      "start": 9.2053,
      "duration": 0.058,
      "velocity": 92,
      "chip": "ym2612"
    },
    {
      "channel": 0,
      "note": 77,
      "start": 9.2825,
      "duration": 0.0585,
      "velocity": 92,
      "chip": "ym2612"
    },
    {
      "channel": 1,
      "note": 73,
      "start": 9.283,
      "duration": 0.0582,
      "velocity": 92,
      "chip": "ym2612"
    },
    {
      "channel": 2,
      "note": 81,
      "start": 9.2836,
      "duration": 0.058,
      "velocity": 92,
      "chip": "ym2612"
    },
    {
      "channel": 0,
      "note": 73,
      "start": 9.3607,
      "duration": 0.0585,
      "velocity": 92,
      "chip": "ym2612"
    },
    {
      "channel": 1,
      "note": 81,
      "start": 9.3612,
      "duration": 0.0582,
      "velocity": 92,
      "chip": "ym2612"
    },
    {
      "channel": 2,
      "note": 77,
      "start": 9.3617,
      "duration": 0.058,
      "velocity": 92,
      "chip": "ym2612"
    },
    {
      "channel": 0,
      "note": 81,
      "start": 9.4391,
      "duration": 0.0583,
      "velocity": 92,
      "chip": "ym2612"
    },
    {
      "channel": 1,
      "note": 77,
      "start": 9.4398,
      "duration": 0.0579,
      "velocity": 92,
      "chip": "ym2612"
    },
    {
      "channel": 2,
      "note": 73,
      "start": 9.4404,
      "duration": 0.0575,
      "velocity": 92,
      "chip": "ym2612"
    },
    {
      "channel": 3,
      "note": 70,
      "start": 9.4411,
      "duration": 0.6049,
      "velocity": 94,
      "chip": "ym2612"
    },
    {
      "channel": 0,
      "note": 77,
      "start": 9.5172,
      "duration": 0.0585,
      "velocity": 92,
      "chip": "ym2612"
    },
    {
      "channel": 1,
      "note": 73,
      "start": 9.5177,
      "duration": 0.0582,
      "velocity": 92,
      "chip": "ym2612"
    },
    {
      "channel": 2,
      "note": 81,
      "start": 9.5183,
      "duration": 0.058,
      "velocity": 92,
      "chip": "ym2612"
    },
    {
      "channel": 0,
      "note": 73,
      "start": 9.5955,
      "duration": 0.0585,
      "velocity": 92,
      "chip": "ym2612"
    },
    {
      "channel": 1,
      "note": 81,
      "start": 9.596,
      "duration": 0.0582,
      "velocity": 92,
      "chip": "ym2612"
    },
    {
      "channel": 2,
      "note": 77,
      "start": 9.5966,
      "duration": 0.0579,
      "velocity": 92,
      "chip": "ym2612"
    },
    {
      "channel": 4,
      "note": 70,
      "start": 9.5974,
      "duration": 0.6054,
      "velocity": 94,
      "chip": "ym2612"
    },
    {
      "channel": 0,
      "note": 81,
      "start": 9.6737,
      "duration": 0.0585,
      "velocity": 92,
      "chip": "ym2612"
    },
    {
      "channel": 1,
      "note": 77,
      "start": 9.6742,
      "duration": 0.0582,
      "velocity": 92,
      "chip": "ym2612"
    },
    {
      "channel": 2,
      "note": 73,
      "start": 9.6748,
      "duration": 0.0579,
      "velocity": 92,
      "chip": "ym2612"
    },
    {
      "channel": 0,
      "note": 77,
      "start": 9.752,
      "duration": 0.0585,
      "velocity": 92,
      "chip": "ym2612"
    },
    {
      "channel": 1,
      "note": 73,
      "start": 9.7525,
      "duration": 0.0583,
      "velocity": 92,
      "chip": "ym2612"
    },
    {
      "channel": 2,
      "note": 81,
      "start": 9.753,
      "duration": 0.058,
      "velocity": 92,
      "chip": "ym2612"
    },
    {
      "channel": 0,
      "note": 73,
      "start": 9.8302,
      "duration": 0.0585,
      "velocity": 92,
      "chip": "ym2612"
    },
    {
      "channel": 1,
      "note": 81,
      "start": 9.8307,
      "duration": 0.0582,
      "velocity": 92,
      "chip": "ym2612"
    },
    {
      "channel": 2,
      "note": 77,
      "start": 9.8313,
      "duration": 0.058,
      "velocity": 92,
      "chip": "ym2612"
    },
    {
      "channel": 0,
      "note": 81,
      "start": 9.9086,
      "duration": 0.0583,
      "velocity": 92,
      "chip": "ym2612"
    },
    {
      "channel": 1,
      "note": 77,
      "start": 9.9093,
      "duration": 0.0578,
      "velocity": 92,
      "chip": "ym2612"
    },
    {
      "channel": 2,
      "note": 73,
      "start": 9.91,
      "duration": 0.0575,
      "velocity": 92,
      "chip": "ym2612"
    },
    {
      "channel": 0,
      "note": 77,
      "start": 9.9867,
      "duration": 0.0585,
      "velocity": 92,
      "chip": "ym2612"
    },
    {
      "channel": 1,
      "note": 73,
      "start": 9.9872,
      "duration": 0.0583,
      "velocity": 92,
      "chip": "ym2612"
    },
    {
      "channel": 2,
      "note": 81,
      "start": 9.9878,
      "duration": 0.0579,
      "velocity": 92,
      "chip": "ym2612"
    },
    {
      "channel": 0,
      "note": 73,
      "start": 10.0649,
      "duration": 0.0585,
      "velocity": 92,
      "chip": "ym2612"
    },
    {
      "channel": 1,
      "note": 81,
      "start": 10.0655,
      "duration": 0.0582,
      "velocity": 92,
      "chip": "ym2612"
    },
    {
      "channel": 2,
      "note": 77,
      "start": 10.066,
      "duration": 0.058,
      "velocity": 92,
      "chip": "ym2612"
    },
    {
      "channel": 3,
      "note": 69,
      "start": 10.0666,
      "duration": 0.6054,
      "velocity": 94,
      "chip": "ym2612"
    },
    {
      "channel": 0,
      "note": 81,
      "start": 10.1432,
      "duration": 0.0585,
      "velocity": 92,
      "chip": "ym2612"
    },
    {
      "channel": 1,
      "note": 77,
      "start": 10.1437,
      "duration": 0.0582,
      "velocity": 92,
      "chip": "ym2612"
    },
    {
      "channel": 2,
      "note": 73,
      "start": 10.1443,
      "duration": 0.0579,
      "velocity": 92,
      "chip": "ym2612"
    },
    {
      "channel": 0,
      "note": 77,
      "start": 10.2215,
      "duration": 0.0585,
      "velocity": 92,
      "chip": "ym2612"
    },
    {
      "channel": 1,
      "note": 73,
      "start": 10.222,
      "duration": 0.0582,
      "velocity": 92,
      "chip": "ym2612"
    },
    {
      "channel": 2,
      "note": 81,
      "start": 10.2226,
      "duration": 0.0579,
      "velocity": 92,
      "chip": "ym2612"
    },
    {
      "channel": 4,
      "note": 69,
      "start": 10.2234,
      "duration": 0.6054,
      "velocity": 94,
      "chip": "ym2612"
    },
    {
      "channel": 0,
      "note": 73,
      "start": 10.2997,
      "duration": 0.0585,
      "velocity": 92,
      "chip": "ym2612"
    },
    {
      "channel": 1,
      "note": 81,
      "start": 10.3002,
      "duration": 0.0583,
      "velocity": 92,
      "chip": "ym2612"
    },
    {
      "channel": 2,
      "note": 77,
      "start": 10.3008,
      "duration": 0.0579,
      "velocity": 92,
      "chip": "ym2612"
    },
    {
      "channel": 0,
      "note": 81,
      "start": 10.378,
      "duration": 0.0584,
      "velocity": 92,
      "chip": "ym2612"
    },
    {
      "channel": 1,
      "note": 77,
      "start": 10.3787,
      "duration": 0.058,
      "velocity": 92,
      "chip": "ym2612"
    },
    {
      "channel": 2,
      "note": 73,
      "start": 10.3794,
      "duration": 0.0575,
      "velocity": 92,
      "chip": "ym2612"
    },
    {
      "channel": 0,
      "note": 77,
      "start": 10.4561,
      "duration": 0.0585,
      "velocity": 92,
      "chip": "ym2612"
    },
    {
      "channel": 1,
      "note": 73,
      "start": 10.4567,
      "duration": 0.0582,
      "velocity": 92,
      "chip": "ym2612"
    },
    {
      "channel": 2,
      "note": 81,
      "start": 10.4572,
      "duration": 0.058,
      "velocity": 92,
      "chip": "ym2612"
    },
    {
      "channel": 0,
      "note": 73,
      "start": 10.5345,
      "duration": 0.0585,
      "velocity": 92,
      "chip": "ym2612"
    },
    {
      "channel": 1,
      "note": 81,
      "start": 10.535,
      "duration": 0.0582,
      "velocity": 92,
      "chip": "ym2612"
    },
    {
      "channel": 2,
      "note": 77,
      "start": 10.5355,
      "duration": 0.0579,
      "velocity": 92,
      "chip": "ym2612"
    },
    {
      "channel": 0,
      "note": 81,
      "start": 10.6127,
      "duration": 0.0585,
      "velocity": 92,
      "chip": "ym2612"
    },
    {
      "channel": 1,
      "note": 77,
      "start": 10.6132,
      "duration": 0.0582,
      "velocity": 92,
      "chip": "ym2612"
    },
    {
      "channel": 2,
      "note": 73,
      "start": 10.6138,
      "duration": 0.0579,
      "velocity": 92,
      "chip": "ym2612"
    },
    {
      "channel": 0,
      "note": 77,
      "start": 10.6909,
      "duration": 0.0585,
      "velocity": 92,
      "chip": "ym2612"
    },
    {
      "channel": 1,
      "note": 73,
      "start": 10.6915,
      "duration": 0.0582,
      "velocity": 92,
      "chip": "ym2612"
    },
    {
      "channel": 2,
      "note": 81,
      "start": 10.692,
      "duration": 0.0579,
      "velocity": 92,
      "chip": "ym2612"
    },
    {
      "channel": 3,
      "note": 65,
      "start": 10.6927,
      "duration": 0.6053,
      "velocity": 94,
      "chip": "ym2612"
    },
    {
      "channel": 0,
      "note": 73,
      "start": 10.7692,
      "duration": 0.0585,
      "velocity": 92,
      "chip": "ym2612"
    },
    {
      "channel": 1,
      "note": 81,
      "start": 10.7697,
      "duration": 0.0583,
      "velocity": 92,
      "chip": "ym2612"
    },
    {
      "channel": 2,
      "note": 77,
      "start": 10.7703,
      "duration": 0.058,
      "velocity": 92,
      "chip": "ym2612"
    },
    {
      "channel": 0,
      "note": 81,
      "start": 10.8476,
      "duration": 0.0583,
      "velocity": 92,
      "chip": "ym2612"
    },
    {
      "channel": 1,
      "note": 77,
      "start": 10.8483,
      "duration": 0.0579,
      "velocity": 92,
      "chip": "ym2612"
    },
    {
      "channel": 2,
      "note": 73,
      "start": 10.849,
      "duration": 0.0575,
      "velocity": 92,
      "chip": "ym2612"
    },
    {
      "channel": 4,
      "note": 65,
      "start": 10.8499,
      "duration": 0.6049,
      "velocity": 94,
      "chip": "ym2612"
    },
    {
      "channel": 0,
      "note": 77,
      "start": 10.9257,
      "duration": 0.0585,
      "velocity": 92,
      "chip": "ym2612"
    },
    {
      "channel": 1,
      "note": 73,
      "start": 10.9262,
      "duration": 0.0582,
      "velocity": 92,
      "chip": "ym2612"
    },
    {
      "channel": 2,
      "note": 81,
      "start": 10.9268,
      "duration": 0.058,
      "velocity": 92,
      "chip": "ym2612"
    },
    {
      "channel": 0,
      "note": 73,
      "start": 11.0039,
      "duration": 0.0585,
      "velocity": 92,
      "chip": "ym2612"
    },
    {
      "channel": 1,
      "note": 81,
      "start": 11.0044,
      "duration": 0.0582,
      "velocity": 92,
      "chip": "ym2612"
    },
    {
      "channel": 2,
      "note": 77,
      "start": 11.005,
      "duration": 0.0579,
      "velocity": 92,
      "chip": "ym2612"
    },
    {
      "channel": 0,
      "note": 81,
      "start": 11.0822,
      "duration": 0.0585,
      "velocity": 92,
      "chip": "ym2612"
    },
    {
      "channel": 1,
      "note": 77,
      "start": 11.0827,
      "duration": 0.0582,
      "velocity": 92,
      "chip": "ym2612"
    },
    {
      "channel": 2,
      "note": 73,
      "start": 11.0832,
      "duration": 0.058,
      "velocity": 92,
      "chip": "ym2612"
    },
    {
      "channel": 0,
      "note": 77,
      "start": 11.1604,
      "duration": 0.0585,
      "velocity": 92,
      "chip": "ym2612"
    },
    {
      "channel": 1,
      "note": 73,
      "start": 11.1609,
      "duration": 0.0583,
      "velocity": 92,
      "chip": "ym2612"
    },
    {
      "channel": 2,
      "note": 81,
      "start": 11.1615,
      "duration": 0.058,
      "velocity": 92,
      "chip": "ym2612"
    },
    {
      "channel": 0,
      "note": 73,
      "start": 11.2387,
      "duration": 0.0585,
      "velocity": 92,
      "chip": "ym2612"
    },
    {
      "channel": 1,
      "note": 81,
      "start": 11.2392,
      "duration": 0.0582,
      "velocity": 92,
      "chip": "ym2612"
    },
    {
      "channel": 2,
      "note": 77,
      "start": 11.2398,
      "duration": 0.0579,
      "velocity": 92,
      "chip": "ym2612"
    },
    {
      "channel": 0,
      "note": 81,
      "start": 11.3171,
      "duration": 0.0583,
      "velocity": 92,
      "chip": "ym2612"
    },
    {
      "channel": 1,
      "note": 77,
      "start": 11.3177,
      "duration": 0.058,
      "velocity": 92,
      "chip": "ym2612"
    },
    {
      "channel": 2,
      "note": 73,
      "start": 11.3184,
      "duration": 0.0575,
      "velocity": 92,
      "chip": "ym2612"
    },
    {
      "channel": 3,
      "note": 64,
      "start": 11.3191,
      "duration": 0.9179,
      "velocity": 94,
      "chip": "ym2612"
    },
    {
      "channel": 0,
      "note": 77,
      "start": 11.3951,
      "duration": 0.0585,
      "velocity": 92,
      "chip": "ym2612"
    },
    {
      "channel": 1,
      "note": 73,
      "start": 11.3956,
      "duration": 0.0582,
      "velocity": 92,
      "chip": "ym2612"
    },
    {
      "channel": 2,
      "note": 81,
      "start": 11.3962,
      "duration": 0.0579,
      "velocity": 92,
      "chip": "ym2612"
    },
    {
      "channel": 0,
      "note": 73,
      "start": 11.4734,
      "duration": 0.0585,
      "velocity": 92,
      "chip": "ym2612"
    },
    {
      "channel": 1,
      "note": 81,
      "start": 11.474,
      "duration": 0.0582,
      "velocity": 92,
      "chip": "ym2612"
    },
    {
      "channel": 2,
      "note": 77,
      "start": 11.4745,
      "duration": 0.058,
      "velocity": 92,
      "chip": "ym2612"
    },
    {
      "channel": 4,
      "note": 64,
      "start": 11.4755,
      "duration": 0.9183,
      "velocity": 94,
      "chip": "ym2612"
    },
    {
      "channel": 0,
      "note": 81,
      "start": 11.5516,
      "duration": 0.0585,
      "velocity": 92,
      "chip": "ym2612"
    },
    {
      "channel": 1,
      "note": 77,
      "start": 11.5522,
      "duration": 0.0583,
      "velocity": 92,
      "chip": "ym2612"
    },
    {
      "channel": 2,
      "note": 73,
      "start": 11.5527,
      "duration": 0.058,
      "velocity": 92,
      "chip": "ym2612"
    },
    {
      "channel": 0,
      "note": 77,
      "start": 11.6299,
      "duration": 0.0585,
      "velocity": 92,
      "chip": "ym2612"
    },
    {
      "channel": 1,
      "note": 73,
      "start": 11.6304,
      "duration": 0.0583,
      "velocity": 92,
      "chip": "ym2612"
    },
    {
      "channel": 2,
      "note": 81,
      "start": 11.631,
      "duration": 0.058,
      "velocity": 92,
      "chip": "ym2612"
    },
    {
      "channel": 0,
      "note": 73,
      "start": 11.7082,
      "duration": 0.0585,
      "velocity": 92,
      "chip": "ym2612"
    },
    {
      "channel": 1,
      "note": 81,
      "start": 11.7088,
      "duration": 0.0581,
      "velocity": 92,
      "chip": "ym2612"
    },
    {
      "channel": 2,
      "note": 77,
      "start": 11.7093,
      "duration": 0.0578,
      "velocity": 92,
      "chip": "ym2612"
    },
    {
      "channel": 0,
      "note": 81,
      "start": 11.7866,
      "duration": 0.0583,
      "velocity": 92,
      "chip": "ym2612"
    },
    {
      "channel": 1,
      "note": 77,
      "start": 11.7872,
      "duration": 0.058,
      "velocity": 92,
      "chip": "ym2612"
    },
    {
      "channel": 2,
      "note": 73,
      "start": 11.7879,
      "duration": 0.0575,
      "velocity": 92,
      "chip": "ym2612"
    },
    {
      "channel": 0,
      "note": 77,
      "start": 11.8647,
      "duration": 0.0585,
      "velocity": 92,
      "chip": "ym2612"
    },
    {
      "channel": 1,
      "note": 73,
      "start": 11.8652,
      "duration": 0.0582,
      "velocity": 92,
      "chip": "ym2612"
    },
    {
      "channel": 2,
      "note": 81,
      "start": 11.8658,
      "duration": 0.0579,
      "velocity": 92,
      "chip": "ym2612"
    },
    {
      "channel": 0,
      "note": 73,
      "start": 11.9429,
      "duration": 0.0585,
      "velocity": 92,
      "chip": "ym2612"
    },
    {
      "channel": 1,
      "note": 81,
      "start": 11.9434,
      "duration": 0.0582,
      "velocity": 92,
      "chip": "ym2612"
    },
    {
      "channel": 2,
      "note": 77,
      "start": 11.9439,
      "duration": 0.0579,
      "velocity": 92,
      "chip": "ym2612"
    },
    {
      "channel": 0,
      "note": 81,
      "start": 12.0211,
      "duration": 0.0585,
      "velocity": 92,
      "chip": "ym2612"
    },
    {
      "channel": 1,
      "note": 77,
      "start": 12.0217,
      "duration": 0.0582,
      "velocity": 92,
      "chip": "ym2612"
    },
    {
      "channel": 2,
      "note": 73,
      "start": 12.0222,
      "duration": 0.058,
      "velocity": 92,
      "chip": "ym2612"
    },
    {
      "channel": 0,
      "note": 77,
      "start": 12.0993,
      "duration": 0.0585,
      "velocity": 92,
      "chip": "ym2612"
    },
    {
      "channel": 1,
      "note": 73,
      "start": 12.0999,
      "duration": 0.0583,
      "velocity": 92,
      "chip": "ym2612"
    },
    {
      "channel": 2,
      "note": 81,
      "start": 12.1004,
      "duration": 0.0581,
      "velocity": 92,
      "chip": "ym2612"
    },
    {
      "channel": 0,
      "note": 73,
      "start": 12.1777,
      "duration": 0.0585,
      "velocity": 92,
      "chip": "ym2612"
    },
    {
      "channel": 1,
      "note": 81,
      "start": 12.1782,
      "duration": 0.0582,
      "velocity": 92,
      "chip": "ym2612"
    },
    {
      "channel": 2,
      "note": 77,
      "start": 12.1787,
      "duration": 0.058,
      "velocity": 92,
      "chip": "ym2612"
    },
    {
      "channel": 0,
      "note": 81,
      "start": 12.256,
      "duration": 0.0583,
      "velocity": 92,
      "chip": "ym2612"
    },
    {
      "channel": 1,
      "note": 77,
      "start": 12.2567,
      "duration": 0.0579,
      "velocity": 92,
      "chip": "ym2612"
    },
    {
      "channel": 2,
      "note": 73,
      "start": 12.2574,
      "duration": 0.0576,
      "velocity": 92,
      "chip": "ym2612"
    },
    {
      "channel": 3,
      "note": 63,
      "start": 12.258,
      "duration": 0.918,
      "velocity": 94,
      "chip": "ym2612"
    },
    {
      "channel": 0,
      "note": 77,
      "start": 12.3341,
      "duration": 0.0585,
      "velocity": 92,
      "chip": "ym2612"
    },
    {
      "channel": 1,
      "note": 73,
      "start": 12.3347,
      "duration": 0.0582,
      "velocity": 92,
      "chip": "ym2612"
    },
    {
      "channel": 2,
      "note": 81,
      "start": 12.3352,
      "duration": 0.058,
      "velocity": 92,
      "chip": "ym2612"
    },
    {
      "channel": 0,
      "note": 73,
      "start": 12.4124,
      "duration": 0.0585,
      "velocity": 92,
      "chip": "ym2612"
    },
    {
      "channel": 1,
      "note": 81,
      "start": 12.4129,
      "duration": 0.0582,
      "velocity": 92,
      "chip": "ym2612"
    },
    {
      "channel": 2,
      "note": 77,
      "start": 12.4135,
      "duration": 0.058,
      "velocity": 92,
      "chip": "ym2612"
    },
    {
      "channel": 4,
      "note": 63,
      "start": 12.4144,
      "duration": 0.9183,
      "velocity": 94,
      "chip": "ym2612"
    },
    {
      "channel": 0,
      "note": 81,
      "start": 12.4906,
      "duration": 0.0585,
      "velocity": 92,
      "chip": "ym2612"
    },
    {
      "channel": 1,
      "note": 77,
      "start": 12.4912,
      "duration": 0.0582,
      "velocity": 92,
      "chip": "ym2612"
    },
    {
      "channel": 2,
      "note": 73,
      "start": 12.4918,
      "duration": 0.0579,
      "velocity": 92,
      "chip": "ym2612"
    },
    {
      "channel": 0,
      "note": 77,
      "start": 12.5689,
      "duration": 0.0585,
      "velocity": 92,
      "chip": "ym2612"
    },
    {
      "channel": 1,
      "note": 73,
      "start": 12.5694,
      "duration": 0.0582,
      "velocity": 92,
      "chip": "ym2612"
    },
    {
      "channel": 2,
      "note": 81,
      "start": 12.57,
      "duration": 0.058,
      "velocity": 92,
      "chip": "ym2612"
    },
    {
      "channel": 0,
      "note": 73,
      "start": 12.6471,
      "duration": 0.0585,
      "velocity": 92,
      "chip": "ym2612"
    },
    {
      "channel": 1,
      "note": 81,
      "start": 12.6477,
      "duration": 0.0582,
      "velocity": 92,
      "chip": "ym2612"
    },
    {
      "channel": 2,
      "note": 77,
      "start": 12.6482,
      "duration": 0.0579,
      "velocity": 92,
      "chip": "ym2612"
    },
    {
      "channel": 0,
      "note": 81,
      "start": 12.7255,
      "duration": 0.0584,
      "velocity": 92,
      "chip": "ym2612"
    },
    {
      "channel": 1,
      "note": 77,
      "start": 12.7262,
      "duration": 0.058,
      "velocity": 92,
      "chip": "ym2612"
    },
    {
      "channel": 2,
      "note": 73,
      "start": 12.7269,
      "duration": 0.0575,
      "velocity": 92,
      "chip": "ym2612"
    },
    {
      "channel": 0,
      "note": 77,
      "start": 12.8037,
      "duration": 0.0585,
      "velocity": 92,
      "chip": "ym2612"
    },
    {
      "channel": 1,
      "note": 73,
      "start": 12.8042,
      "duration": 0.0582,
      "velocity": 92,
      "chip": "ym2612"
    },
    {
      "channel": 2,
      "note": 81,
      "start": 12.8048,
      "duration": 0.0579,
      "velocity": 92,
      "chip": "ym2612"
    },
    {
      "channel": 0,
      "note": 73,
      "start": 12.8819,
      "duration": 0.0584,
      "velocity": 92,
      "chip": "ym2612"
    },
    {
      "channel": 1,
      "note": 81,
      "start": 12.8824,
      "duration": 0.0582,
      "velocity": 92,
      "chip": "ym2612"
    },
    {
      "channel": 2,
      "note": 77,
      "start": 12.883,
      "duration": 0.0579,
      "velocity": 92,
      "chip": "ym2612"
    },
    {
      "channel": 0,
      "note": 81,
      "start": 12.9601,
      "duration": 0.0585,
      "velocity": 92,
      "chip": "ym2612"
    },
    {
      "channel": 1,
      "note": 77,
      "start": 12.9607,
      "duration": 0.0582,
      "velocity": 92,
      "chip": "ym2612"
    },
    {
      "channel": 2,
      "note": 73,
      "start": 12.9612,
      "duration": 0.058,
      "velocity": 92,
      "chip": "ym2612"
    },
    {
      "channel": 0,
      "note": 77,
      "start": 13.0383,
      "duration": 0.0585,
      "velocity": 92,
      "chip": "ym2612"
    },
    {
      "channel": 1,
      "note": 73,
      "start": 13.0389,
      "duration": 0.0582,
      "velocity": 92,
      "chip": "ym2612"
    },
    {
      "channel": 2,
      "note": 81,
      "start": 13.0394,
      "duration": 0.0579,
      "velocity": 92,
      "chip": "ym2612"
    },
    {
      "channel": 0,
      "note": 73,
      "start": 13.1166,
      "duration": 0.0585,
      "velocity": 92,
      "chip": "ym2612"
    },
    {
      "channel": 1,
      "note": 81,
      "start": 13.1172,
      "duration": 0.0583,
      "velocity": 92,
      "chip": "ym2612"
    },
    {
      "channel": 2,
      "note": 77,
      "start": 13.1177,
      "duration": 0.058,
      "velocity": 92,
      "chip": "ym2612"
    },
    {
      "channel": 0,
      "note": 81,
      "start": 13.1967,
      "duration": 0.0567,
      "velocity": 92,
      "chip": "ym2612"
    },
    {
      "channel": 1,
      "note": 77,
      "start": 13.199,
      "duration": 0.0546,
      "velocity": 92,
      "chip": "ym2612"
    },
    {
      "channel": 2,
      "note": 73,
      "start": 13.2012,
      "duration": 0.0526,
      "velocity": 92,
      "chip": "ym2612"
    },
    {
      "channel": 3,
      "note": 59,
      "start": 13.2019,
      "duration": 0.9131,
      "velocity": 94,
      "chip": "ym2612"
    },
    {
      "channel": 0,
      "note": 77,
      "start": 13.2731,
      "duration": 0.0585,
      "velocity": 92,
      "chip": "ym2612"
    },
    {
      "channel": 1,
      "note": 73,
      "start": 13.2737,
      "duration": 0.0582,
      "velocity": 92,
      "chip": "ym2612"
    },
    {
      "channel": 2,
      "note": 81,
      "start": 13.2742,
      "duration": 0.058,
      "velocity": 92,
      "chip": "ym2612"
    },
    {
      "channel": 0,
      "note": 73,
      "start": 13.3514,
      "duration": 0.0585,
      "velocity": 92,
      "chip": "ym2612"
    },
    {
      "channel": 1,
      "note": 81,
      "start": 13.3519,
      "duration": 0.0583,
      "velocity": 92,
      "chip": "ym2612"
    },
    {
      "channel": 2,
      "note": 77,
      "start": 13.3525,
      "duration": 0.0579,
      "velocity": 92,
      "chip": "ym2612"
    },
    {
      "channel": 4,
      "note": 59,
      "start": 13.3534,
      "duration": 0.762,
      "velocity": 94,
      "chip": "ym2612"
    },
    {
      "channel": 0,
      "note": 81,
      "start": 13.4312,
      "duration": 0.0569,
      "velocity": 92,
      "chip": "ym2612"
    },
    {
      "channel": 1,
      "note": 77,
      "start": 13.4334,
      "duration": 0.0549,
      "velocity": 92,
      "chip": "ym2612"
    },
    {
      "channel": 2,
      "note": 73,
      "start": 13.4356,
      "duration": 0.0531,
      "velocity": 92,
      "chip": "ym2612"
    },
    {
      "channel": 0,
      "note": 77,
      "start": 13.5079,
      "duration": 0.0585,
      "velocity": 92,
      "chip": "ym2612"
    },
    {
      "channel": 1,
      "note": 73,
      "start": 13.5085,
      "duration": 0.0581,
      "velocity": 92,
      "chip": "ym2612"
    },
    {
      "channel": 2,
      "note": 81,
      "start": 13.509,
      "duration": 0.0579,
      "velocity": 92,
      "chip": "ym2612"
    },
    {
      "channel": 0,
      "note": 73,
      "start": 13.5861,
      "duration": 0.0585,
      "velocity": 92,
      "chip": "ym2612"
    },
    {
      "channel": 1,
      "note": 81,
      "start": 13.5866,
      "duration": 0.0582,
      "velocity": 92,
      "chip": "ym2612"
    },
    {
      "channel": 2,
      "note": 77,
      "start": 13.5872,
      "duration": 0.0579,
      "velocity": 92,
      "chip": "ym2612"
    },
    {
      "channel": 0,
      "note": 81,
      "start": 13.6659,
      "duration": 0.0569,
      "velocity": 92,
      "chip": "ym2612"
    },
    {
      "channel": 1,
      "note": 77,
      "start": 13.6682,
      "duration": 0.0549,
      "velocity": 92,
      "chip": "ym2612"
    },
    {
      "channel": 2,
      "note": 73,
      "start": 13.6703,
      "duration": 0.0531,
      "velocity": 92,
      "chip": "ym2612"
    },
    {
      "channel": 0,
      "note": 77,
      "start": 13.7426,
      "duration": 0.0585,
      "velocity": 92,
      "chip": "ym2612"
    },
    {
      "channel": 1,
      "note": 73,
      "start": 13.7432,
      "duration": 0.0581,
      "velocity": 92,
      "chip": "ym2612"
    },
    {
      "channel": 2,
      "note": 81,
      "start": 13.7437,
      "duration": 0.0579,
      "velocity": 92,
      "chip": "ym2612"
    },
    {
      "channel": 0,
      "note": 73,
      "start": 13.8208,
      "duration": 0.0585,
      "velocity": 92,
      "chip": "ym2612"
    },
    {
      "channel": 1,
      "note": 81,
      "start": 13.8214,
      "duration": 0.0583,
      "velocity": 92,
      "chip": "ym2612"
    },
    {
      "channel": 2,
      "note": 77,
      "start": 13.8219,
      "duration": 0.058,
      "velocity": 92,
      "chip": "ym2612"
    },
    {
      "channel": 0,
      "note": 81,
      "start": 13.9007,
      "duration": 0.0569,
      "velocity": 92,
      "chip": "ym2612"
    },
    {
      "channel": 1,
      "note": 77,
      "start": 13.903,
      "duration": 0.0549,
      "velocity": 92,
      "chip": "ym2612"
    },
    {
      "channel": 2,
      "note": 73,
      "start": 13.9051,
      "duration": 0.0531,
      "velocity": 92,
      "chip": "ym2612"
    },
    {
      "channel": 0,
      "note": 77,
      "start": 13.9773,
      "duration": 0.0585,
      "velocity": 92,
      "chip": "ym2612"
    },
    {
      "channel": 1,
      "note": 73,
      "start": 13.9778,
      "duration": 0.0583,
      "velocity": 92,
      "chip": "ym2612"
    },
    {
      "channel": 2,
      "note": 81,
      "start": 13.9784,
      "duration": 0.058,
      "velocity": 92,
      "chip": "ym2612"
    },
    {
      "channel": 0,
      "note": 73,
      "start": 14.0556,
      "duration": 0.0585,
      "velocity": 92,
      "chip": "ym2612"
    },
    {
      "channel": 1,
      "note": 81,
      "start": 14.0561,
      "duration": 0.0583,
      "velocity": 92,
      "chip": "ym2612"
    },
    {
      "channel": 2,
      "note": 77,
      "start": 14.0567,
      "duration": 0.0579,
      "velocity": 92,
      "chip": "ym2612"
    },
    {
      "channel": 0,
      "note": 81,
      "start": 14.1355,
      "duration": 0.0568,
      "velocity": 92,
      "chip": "ym2612"
    },
    {
      "channel": 1,
      "note": 77,
      "start": 14.1376,
      "duration": 0.055,
      "velocity": 92,
      "chip": "ym2612"
    },
    {
      "channel": 2,
      "note": 73,
      "start": 14.1399,
      "duration": 0.053,
      "velocity": 92,
      "chip": "ym2612"
    },
    {
      "channel": 3,
      "note": 58,
      "start": 14.1405,
      "duration": 0.9134,
      "velocity": 94,
      "chip": "ym2612"
    },
    {
      "channel": 4,
      "note": 58,
      "start": 14.1437,
      "duration": 0.9401,
      "velocity": 94,
      "chip": "ym2612"
    },
    {
      "channel": 0,
      "note": 77,
      "start": 14.2121,
      "duration": 0.0585,
      "velocity": 92,
      "chip": "ym2612"
    },
    {
      "channel": 1,
      "note": 73,
      "start": 14.2126,
      "duration": 0.0583,
      "velocity": 92,
      "chip": "ym2612"
    },
    {
      "channel": 2,
      "note": 81,
      "start": 14.2132,
      "duration": 0.058,
      "velocity": 92,
      "chip": "ym2612"
    },
    {
      "channel": 0,
      "note": 73,
      "start": 14.2903,
      "duration": 0.0585,
      "velocity": 92,
      "chip": "ym2612"
    },
    {
      "channel": 1,
      "note": 81,
      "start": 14.2909,
      "duration": 0.0582,
      "velocity": 92,
      "chip": "ym2612"
    },
    {
      "channel": 2,
      "note": 77,
      "start": 14.2915,
      "duration": 0.0579,
      "velocity": 92,
      "chip": "ym2612"
    },
    {
      "channel": 0,
      "note": 81,
      "start": 14.3703,
      "duration": 0.0568,
      "velocity": 92,
      "chip": "ym2612"
    },
    {
      "channel": 1,
      "note": 77,
      "start": 14.3724,
      "duration": 0.0549,
      "velocity": 92,
      "chip": "ym2612"
    },
    {
      "channel": 2,
      "note": 73,
      "start": 14.3746,
      "duration": 0.053,
      "velocity": 92,
      "chip": "ym2612"
    },
    {
      "channel": 0,
      "note": 77,
      "start": 14.4469,
      "duration": 0.0585,
      "velocity": 92,
      "chip": "ym2612"
    },
    {
      "channel": 1,
      "note": 73,
      "start": 14.4474,
      "duration": 0.0582,
      "velocity": 92,
      "chip": "ym2612"
    },
    {
      "channel": 2,
      "note": 81,
      "start": 14.4479,
      "duration": 0.0579,
      "velocity": 92,
      "chip": "ym2612"
    },
    {
      "channel": 0,
      "note": 73,
      "start": 14.5252,
      "duration": 0.0584,
      "velocity": 92,
      "chip": "ym2612"
    },
    {
      "channel": 1,
      "note": 81,
      "start": 14.5257,
      "duration": 0.0581,
      "velocity": 92,
      "chip": "ym2612"
    },
    {
      "channel": 2,
      "note": 77,
      "start": 14.5263,
      "duration": 0.0578,
      "velocity": 92,
      "chip": "ym2612"
    },
    {
      "channel": 0,
      "note": 81,
      "start": 14.6049,
      "duration": 0.0569,
      "velocity": 92,
      "chip": "ym2612"
    },
    {
      "channel": 1,
      "note": 77,
      "start": 14.6074,
      "duration": 0.0548,
      "velocity": 92,
      "chip": "ym2612"
    },
    {
      "channel": 2,
      "note": 73,
      "start": 14.6096,
      "duration": 0.0528,
      "velocity": 92,
      "chip": "ym2612"
    },
    {
      "channel": 0,
      "note": 77,
      "start": 14.6815,
      "duration": 0.0585,
      "velocity": 92,
      "chip": "ym2612"
    },
    {
      "channel": 1,
      "note": 73,
      "start": 14.6821,
      "duration": 0.0582,
      "velocity": 92,
      "chip": "ym2612"
    },
    {
      "channel": 2,
      "note": 81,
      "start": 14.6826,
      "duration": 0.058,
      "velocity": 92,
      "chip": "ym2612"
    },
    {
      "channel": 0,
      "note": 73,
      "start": 14.7598,
      "duration": 0.0585,
      "velocity": 92,
      "chip": "ym2612"
    },
    {
      "channel": 1,
      "note": 81,
      "start": 14.7604,
      "duration": 0.0583,
      "velocity": 92,
      "chip": "ym2612"
    },
    {
      "channel": 2,
      "note": 77,
      "start": 14.7609,
      "duration": 0.0579,
      "velocity": 92,
      "chip": "ym2612"
    },
    {
      "channel": 0,
      "note": 81,
      "start": 14.8398,
      "duration": 0.0568,
      "velocity": 92,
      "chip": "ym2612"
    },
    {
      "channel": 1,
      "note": 77,
      "start": 14.842,
      "duration": 0.0549,
      "velocity": 92,
      "chip": "ym2612"
    },
    {
      "channel": 2,
      "note": 73,
      "start": 14.8442,
      "duration": 0.0529,
      "velocity": 92,
      "chip": "ym2612"
    },
    {
      "channel": 0,
      "note": 77,
      "start": 14.9163,
      "duration": 0.0585,
      "velocity": 92,
      "chip": "ym2612"
    },
    {
      "channel": 1,
      "note": 73,
      "start": 14.9169,
      "duration": 0.0583,
      "velocity": 92,
      "chip": "ym2612"
    },
    {
      "channel": 2,
      "note": 81,
      "start": 14.9174,
      "duration": 0.058,
      "velocity": 92,
      "chip": "ym2612"
    },
    {
      "channel": 0,
      "note": 73,
      "start": 14.9946,
      "duration": 0.0585,
      "velocity": 92,
      "chip": "ym2612"
    },
    {
      "channel": 1,
      "note": 81,
      "start": 14.9951,
      "duration": 0.0582,
      "velocity": 92,
      "chip": "ym2612"
    },
    {
      "channel": 2,
      "note": 77,
      "start": 14.9956,
      "duration": 0.058,
      "velocity": 92,
      "chip": "ym2612"
    },
    {
      "channel": 3,
      "note": 55,
      "start": 15.0768,
      "duration": 0.0278,
      "velocity": 111,
      "chip": "ym2612"
    },
    {
      "channel": 4,
      "note": 55,
      "start": 15.0887,
      "duration": 0.0255,
      "velocity": 111,
      "chip": "ym2612"
    },
    {
      "channel": 3,
      "note": 49,
      "start": 15.1045,
      "duration": 2.2252,
      "velocity": 111,
      "chip": "ym2612"
    },
    {
      "channel": 4,
      "note": 49,
      "start": 15.1142,
      "duration": 2.2255,
      "velocity": 111,
      "chip": "ym2612"
    },
    {
      "channel": 0,
      "note": 89,
      "start": 15.6399,
      "duration": 0.0731,
      "velocity": 92,
      "chip": "ym2612"
    },
    {
      "channel": 0,
      "note": 84,
      "start": 15.7328,
      "duration": 0.4498,
      "velocity": 92,
      "chip": "ym2612"
    },
    {
      "channel": 0,
      "note": 83,
      "start": 16.2022,
      "duration": 0.0745,
      "velocity": 92,
      "chip": "ym2612"
    },
    {
      "channel": 1,
      "note": 71,
      "start": 16.2046,
      "duration": 1.1037,
      "velocity": 98,
      "chip": "ym2612"
    },
    {
      "channel": 2,
      "note": 68,
      "start": 16.207,
      "duration": 1.1017,
      "velocity": 98,
      "chip": "ym2612"
    },
    {
      "channel": 0,
      "note": 78,
      "start": 16.2965,
      "duration": 0.542,
      "velocity": 92,
      "chip": "ym2612"
    },
    {
      "channel": 0,
      "note": 89,
      "start": 16.8583,
      "duration": 0.4498,
      "velocity": 92,
      "chip": "ym2612"
    },
    {
      "channel": 0,
      "note": 84,
      "start": 17.3278,
      "duration": 0.0726,
      "velocity": 92,
      "chip": "ym2612"
    },
    {
      "channel": 1,
      "note": 71,
      "start": 17.3284,
      "duration": 0.0449,
      "velocity": 98,
      "chip": "ym2612"
    },
    {
      "channel": 2,
      "note": 68,
      "start": 17.329,
      "duration": 0.0445,
      "velocity": 98,
      "chip": "ym2612"
    },
    {
      "channel": 3,
      "note": 50,
      "start": 17.3298,
      "duration": 1.6645,
      "velocity": 111,
      "chip": "ym2612"
    },
    {
      "channel": 4,
      "note": 50,
      "start": 17.3397,
      "duration": 1.655,
      "velocity": 111,
      "chip": "ym2612"
    },
    {
      "channel": 0,
      "note": 83,
      "start": 17.4201,
      "duration": 0.4497,
      "velocity": 92,
      "chip": "ym2612"
    },
    {
      "channel": 1,
      "note": 71,
      "start": 17.4207,
      "duration": 1.0113,
      "velocity": 98,
      "chip": "ym2612"
    },
    {
      "channel": 2,
      "note": 68,
      "start": 17.4212,
      "duration": 1.0111,
      "velocity": 98,
      "chip": "ym2612"
    },
    {
      "channel": 0,
      "note": 78,
      "start": 17.8897,
      "duration": 0.0725,
      "velocity": 92,
      "chip": "ym2612"
    },
    {
      "channel": 0,
      "note": 91,
      "start": 17.982,
      "duration": 1.0114,
      "velocity": 92,
      "chip": "ym2612"
    },
    {
      "channel": 1,
      "note": 71,
      "start": 18.4568,
      "duration": 0.0247,
      "velocity": 98,
      "chip": "ym2612"
    },
    {
      "channel": 2,
      "note": 68,
      "start": 18.4575,
      "duration": 0.0244,
      "velocity": 98,
      "chip": "ym2612"
    },
    {
      "channel": 1,
      "note": 72,
      "start": 18.4839,
      "duration": 0.0149,
      "velocity": 98,
      "chip": "ym2612"
    },
    {
      "channel": 2,
      "note": 69,
      "start": 18.4844,
      "duration": 0.0146,
      "velocity": 98,
      "chip": "ym2612"
    },
    {
      "channel": 1,
      "note": 73,
      "start": 18.5048,
      "duration": 0.1368,
      "velocity": 98,
      "chip": "ym2612"
    },
    {
      "channel": 2,
      "note": 70,
      "start": 18.5054,
      "duration": 0.1365,
      "velocity": 98,
      "chip": "ym2612"
    },
    {
      "channel": 1,
      "note": 74,
      "start": 18.6613,
      "duration": 0.0976,
      "velocity": 98,
      "chip": "ym2612"
    },
    {
      "channel": 2,
      "note": 71,
      "start": 18.6619,
      "duration": 0.0974,
      "velocity": 98,
      "chip": "ym2612"
    },
    {
      "channel": 1,
      "note": 73,
      "start": 18.7787,
      "duration": 0.0976,
      "velocity": 98,
      "chip": "ym2612"
    },
    {
      "channel": 2,
      "note": 70,
      "start": 18.7793,
      "duration": 0.0973,
      "velocity": 98,
      "chip": "ym2612"
    },
    {
      "channel": 1,
      "note": 72,
      "start": 18.8961,
      "duration": 0.0976,
      "velocity": 98,
      "chip": "ym2612"
    },
    {
      "channel": 2,
      "note": 69,
      "start": 18.8966,
      "duration": 0.0973,
      "velocity": 98,
      "chip": "ym2612"
    },
    {
      "channel": 0,
      "note": 92,
      "start": 19.0132,
      "duration": 0.9192,
      "velocity": 92,
      "chip": "ym2612"
    },
    {
      "channel": 1,
      "note": 71,
      "start": 19.0137,
      "duration": 0.919,
      "velocity": 98,
      "chip": "ym2612"
    },
    {
      "channel": 2,
      "note": 68,
      "start": 19.0142,
      "duration": 0.9188,
      "velocity": 98,
      "chip": "ym2612"
    },
    {
      "channel": 4,
      "note": 50,
      "start": 19.0179,
      "duration": 0.9429,
      "velocity": 94,
      "chip": "ym2612"
    },
    {
      "channel": 3,
      "note": 50,
      "start": 19.9534,
      "duration": 0.0293,
      "velocity": 111,
      "chip": "ym2612"
    },
    {
      "channel": 4,
      "note": 50,
      "start": 19.9658,
      "duration": 0.0265,
      "velocity": 111,
      "chip": "ym2612"
    },
    {
      "channel": 3,
      "note": 50,
      "start": 19.9826,
      "duration": 2.2223,
      "velocity": 111,
      "chip": "ym2612"
    },
    {
      "channel": 4,
      "note": 50,
      "start": 19.9923,
      "duration": 2.2225,
      "velocity": 111,
      "chip": "ym2612"
    },
    {
      "channel": 0,
      "note": 88,
      "start": 20.5158,
      "duration": 0.0756,
      "velocity": 92,
      "chip": "ym2612"
    },
    {
      "channel": 0,
      "note": 83,
      "start": 20.6112,
      "duration": 0.4498,
      "velocity": 92,
      "chip": "ym2612"
    },
    {
      "channel": 0,
      "note": 82,
      "start": 21.0807,
      "duration": 0.071,
      "velocity": 92,
      "chip": "ym2612"
    },
    {
      "channel": 1,
      "note": 70,
      "start": 21.0812,
      "duration": 1.1022,
      "velocity": 98,
      "chip": "ym2612"
    },
    {
      "channel": 2,
      "note": 67,
      "start": 21.0817,
      "duration": 1.102,
      "velocity": 98,
      "chip": "ym2612"
    },
    {
      "channel": 0,
      "note": 77,
      "start": 21.1715,
      "duration": 0.5421,
      "velocity": 92,
      "chip": "ym2612"
    },
    {
      "channel": 0,
      "note": 88,
      "start": 21.7333,
      "duration": 0.4498,
      "velocity": 92,
      "chip": "ym2612"
    },
    {
      "channel": 0,
      "note": 83,
      "start": 22.2028,
      "duration": 0.0743,
      "velocity": 92,
      "chip": "ym2612"
    },
    {
      "channel": 1,
      "note": 70,
      "start": 22.2035,
      "duration": 0.0472,
      "velocity": 98,
      "chip": "ym2612"
    },
    {
      "channel": 2,
      "note": 67,
      "start": 22.2042,
      "duration": 0.0467,
      "velocity": 98,
      "chip": "ym2612"
    },
    {
      "channel": 3,
      "note": 49,
      "start": 22.2049,
      "duration": 2.2255,
      "velocity": 111,
      "chip": "ym2612"
    },
    {
      "channel": 4,
      "note": 49,
      "start": 22.2148,
      "duration": 2.2161,
      "velocity": 111,
      "chip": "ym2612"
    },
    {
      "channel": 0,
      "note": 82,
      "start": 22.2969,
      "duration": 0.4498,
      "velocity": 92,
      "chip": "ym2612"
    },
    {
      "channel": 1,
      "note": 70,
      "start": 22.2974,
      "duration": 1.0101,
      "velocity": 98,
      "chip": "ym2612"
    },
    {
      "channel": 2,
      "note": 67,
      "start": 22.298,
      "duration": 1.0098,
      "velocity": 98,
      "chip": "ym2612"
    },
    {
      "channel": 0,
      "note": 77,
      "start": 22.7665,
      "duration": 0.0713,
      "velocity": 92,
      "chip": "ym2612"
    },
    {
      "channel": 0,
      "note": 90,
      "start": 22.8575,
      "duration": 1.0114,
      "velocity": 92,
      "chip": "ym2612"
    },
    {
      "channel": 1,
      "note": 70,
      "start": 23.3323,
      "duration": 0.025,
      "velocity": 98,
      "chip": "ym2612"
    },
    {
      "channel": 2,
      "note": 67,
      "start": 23.333,
      "duration": 0.0246,
      "velocity": 98,
      "chip": "ym2612"
    },
    {
      "channel": 1,
      "note": 71,
      "start": 23.3596,
      "duration": 0.0149,
      "velocity": 98,
      "chip": "ym2612"
    },
    {
      "channel": 2,
      "note": 68,
      "start": 23.3602,
      "duration": 0.0146,
      "velocity": 98,
      "chip": "ym2612"
    },
    {
      "channel": 1,
      "note": 72,
      "start": 23.3804,
      "duration": 0.1368,
      "velocity": 98,
      "chip": "ym2612"
    },
    {
      "channel": 2,
      "note": 69,
      "start": 23.3809,
      "duration": 0.1365,
      "velocity": 98,
      "chip": "ym2612"
    },
    {
      "channel": 1,
      "note": 73,
      "start": 23.5369,
      "duration": 0.0976,
      "velocity": 98,
      "chip": "ym2612"
    },
    {
      "channel": 2,
      "note": 70,
      "start": 23.5374,
      "duration": 0.0974,
      "velocity": 98,
      "chip": "ym2612"
    },
    {
      "channel": 1,
      "note": 72,
      "start": 23.6542,
      "duration": 0.0976,
      "velocity": 98,
      "chip": "ym2612"
    },
    {
      "channel": 2,
      "note": 69,
      "start": 23.6548,
      "duration": 0.0973,
      "velocity": 98,
      "chip": "ym2612"
    },
    {
      "channel": 1,
      "note": 71,
      "start": 23.7716,
      "duration": 0.0976,
      "velocity": 98,
      "chip": "ym2612"
    },
    {
      "channel": 2,
      "note": 68,
      "start": 23.7722,
      "duration": 0.0973,
      "velocity": 98,
      "chip": "ym2612"
    },
    {
      "channel": 0,
      "note": 91,
      "start": 23.8887,
      "duration": 0.5407,
      "velocity": 92,
      "chip": "ym2612"
    },
    {
      "channel": 1,
      "note": 70,
      "start": 23.8893,
      "duration": 0.5405,
      "velocity": 98,
      "chip": "ym2612"
    },
    {
      "channel": 2,
      "note": 67,
      "start": 23.8899,
      "duration": 0.5402,
      "velocity": 98,
      "chip": "ym2612"
    },
    {
      "channel": 0,
      "note": 76,
      "start": 24.4509,
      "duration": 1.7162,
      "velocity": 92,
      "chip": "ym2612"
    },
    {
      "channel": 1,
      "note": 68,
      "start": 24.4532,
      "duration": 1.7143,
      "velocity": 92,
      "chip": "ym2612"
    },
    {
      "channel": 2,
      "note": 60,
      "start": 24.4554,
      "duration": 1.7124,
      "velocity": 92,
      "chip": "ym2612"
    },
    {
      "channel": 3,
      "note": 49,
      "start": 24.4586,
      "duration": 1.7095,
      "velocity": 111,
      "chip": "ym2612"
    },
    {
      "channel": 4,
      "note": 49,
      "start": 24.4621,
      "duration": 0.9076,
      "velocity": 102,
      "chip": "ym2612"
    },
    {
      "channel": 0,
      "note": 77,
      "start": 26.1885,
      "duration": 1.5763,
      "velocity": 92,
      "chip": "ym2612"
    },
    {
      "channel": 1,
      "note": 69,
      "start": 26.1908,
      "duration": 1.5744,
      "velocity": 92,
      "chip": "ym2612"
    },
    {
      "channel": 2,
      "note": 61,
      "start": 26.1929,
      "duration": 1.5726,
      "velocity": 92,
      "chip": "ym2612"
    },
    {
      "channel": 3,
      "note": 50,
      "start": 26.196,
      "duration": 1.5699,
      "velocity": 111,
      "chip": "ym2612"
    },
    {
      "channel": 4,
      "note": 50,
      "start": 26.1966,
      "duration": 0.6305,
      "velocity": 102,
      "chip": "ym2612"
    },
    {
      "channel": 0,
      "note": 78,
      "start": 27.7863,
      "duration": 1.7162,
      "velocity": 92,
      "chip": "ym2612"
    },
    {
      "channel": 1,
      "note": 70,
      "start": 27.7885,
      "duration": 1.7143,
      "velocity": 92,
      "chip": "ym2612"
    },
    {
      "channel": 2,
      "note": 62,
      "start": 27.7907,
      "duration": 1.7124,
      "velocity": 92,
      "chip": "ym2612"
    },
    {
      "channel": 3,
      "note": 47,
      "start": 27.7914,
      "duration": 1.7121,
      "velocity": 111,
      "chip": "ym2612"
    },
    {
      "channel": 4,
      "note": 47,
      "start": 27.7921,
      "duration": 0.913,
      "velocity": 102,
      "chip": "ym2612"
    },
    {
      "channel": 0,
      "note": 79,
      "start": 29.5239,
      "duration": 1.4363,
      "velocity": 92,
      "chip": "ym2612"
    },
    {
      "channel": 1,
      "note": 71,
      "start": 29.5261,
      "duration": 1.4344,
      "velocity": 92,
      "chip": "ym2612"
    },
    {
      "channel": 2,
      "note": 63,
      "start": 29.5283,
      "duration": 1.4325,
      "velocity": 92,
      "chip": "ym2612"
    },
    {
      "channel": 3,
      "note": 52,
      "start": 29.5313,
      "duration": 1.4299,
      "velocity": 111,
      "chip": "ym2612"
    },
    {
      "channel": 4,
      "note": 52,
      "start": 29.532,
      "duration": 0.6303,
      "velocity": 102,
      "chip": "ym2612"
    },
    {
      "channel": 0,
      "note": 80,
      "start": 30.9818,
      "duration": 0.4479,
      "velocity": 90,
      "chip": "ym2612"
    },
    {
      "channel": 1,
      "note": 72,
      "start": 30.984,
      "duration": 0.4461,
      "velocity": 90,
      "chip": "ym2612"
    },
    {
      "channel": 2,
      "note": 64,
      "start": 30.9862,
      "duration": 0.4441,
      "velocity": 90,
      "chip": "ym2612"
    },
    {
      "channel": 3,
      "note": 49,
      "start": 30.9893,
      "duration": 0.4414,
      "velocity": 90,
      "chip": "ym2612"
    },
    {
      "channel": 0,
      "note": 80,
      "start": 31.4495,
      "duration": 0.4498,
      "velocity": 90,
      "chip": "ym2612"
    },
    {
      "channel": 1,
      "note": 72,
      "start": 31.45,
      "duration": 0.4495,
      "velocity": 90,
      "chip": "ym2612"
    },
    {
      "channel": 2,
      "note": 63,
      "start": 31.4505,
      "duration": 0.4493,
      "velocity": 90,
      "chip": "ym2612"
    },
    {
      "channel": 3,
      "note": 54,
      "start": 31.4512,
      "duration": 0.449,
      "velocity": 90,
      "chip": "ym2612"
    },
    {
      "channel": 4,
      "note": 49,
      "start": 31.4545,
      "duration": 0.1327,
      "velocity": 127,
      "chip": "ym2612"
    },
    {
      "channel": 4,
      "note": 85,
      "start": 31.607,
      "duration": 0.1367,
      "velocity": 127,
      "chip": "ym2612"
    },
    {
      "channel": 4,
      "note": 79,
      "start": 31.7637,
      "duration": 0.1369,
      "velocity": 127,
      "chip": "ym2612"
    },
    {
      "channel": 0,
      "note": 80,
      "start": 31.9189,
      "duration": 0.4497,
      "velocity": 90,
      "chip": "ym2612"
    },
    {
      "channel": 1,
      "note": 72,
      "start": 31.9195,
      "duration": 0.4495,
      "velocity": 90,
      "chip": "ym2612"
    },
    {
      "channel": 2,
      "note": 62,
      "start": 31.92,
      "duration": 0.4493,
      "velocity": 90,
      "chip": "ym2612"
    },
    {
      "channel": 3,
      "note": 53,
      "start": 31.9206,
      "duration": 0.449,
      "velocity": 90,
      "chip": "ym2612"
    },
    {
      "channel": 4,
      "note": 63,
      "start": 31.9213,
      "duration": 1.3877,
      "velocity": 127,
      "chip": "ym2612"
    },
    {
      "channel": 0,
      "note": 80,
      "start": 32.3885,
      "duration": 0.4498,
      "velocity": 90,
      "chip": "ym2612"
    },
    {
      "channel": 1,
      "note": 72,
      "start": 32.389,
      "duration": 0.4496,
      "velocity": 90,
      "chip": "ym2612"
    },
    {
      "channel": 2,
      "note": 64,
      "start": 32.3895,
      "duration": 0.4493,
      "velocity": 90,
      "chip": "ym2612"
    },
    {
      "channel": 3,
      "note": 52,
      "start": 32.3902,
      "duration": 0.449,
      "velocity": 90,
      "chip": "ym2612"
    },
    {
      "channel": 0,
      "note": 80,
      "start": 32.858,
      "duration": 0.4497,
      "velocity": 90,
      "chip": "ym2612"
    },
    {
      "channel": 1,
      "note": 72,
      "start": 32.8585,
      "duration": 0.4495,
      "velocity": 90,
      "chip": "ym2612"
    },
    {
      "channel": 2,
      "note": 63,
      "start": 32.8591,
      "duration": 0.4492,
      "velocity": 90,
      "chip": "ym2612"
    },
    {
      "channel": 3,
      "note": 54,
      "start": 32.8597,
      "duration": 0.4489,
      "velocity": 90,
      "chip": "ym2612"
    },
    {
      "channel": 0,
      "note": 79,
      "start": 33.3275,
      "duration": 0.4497,
      "velocity": 90,
      "chip": "ym2612"
    },
    {
      "channel": 1,
      "note": 71,
      "start": 33.328,
      "duration": 0.4495,
      "velocity": 90,
      "chip": "ym2612"
    },
    {
      "channel": 2,
      "note": 62,
      "start": 33.3285,
      "duration": 0.4493,
      "velocity": 90,
      "chip": "ym2612"
    },
    {
      "channel": 3,
      "note": 53,
      "start": 33.3292,
      "duration": 0.4489,
      "velocity": 90,
      "chip": "ym2612"
    },
    {
      "channel": 4,
      "note": 91,
      "start": 33.3301,
      "duration": 0.1352,
      "velocity": 127,
      "chip": "ym2612"
    },
    {
      "channel": 4,
      "note": 85,
      "start": 33.485,
      "duration": 0.1366,
      "velocity": 127,
      "chip": "ym2612"
    },
    {
      "channel": 4,
      "note": 79,
      "start": 33.6415,
      "duration": 0.137,
      "velocity": 127,
      "chip": "ym2612"
    },
    {
      "channel": 0,
      "note": 80,
      "start": 33.797,
      "duration": 0.4498,
      "velocity": 90,
      "chip": "ym2612"
    },
    {
      "channel": 1,
      "note": 72,
      "start": 33.7975,
      "duration": 0.4496,
      "velocity": 90,
      "chip": "ym2612"
    },
    {
      "channel": 2,
      "note": 64,
      "start": 33.798,
      "duration": 0.4493,
      "velocity": 90,
      "chip": "ym2612"
    },
    {
      "channel": 3,
      "note": 52,
      "start": 33.7987,
      "duration": 0.449,
      "velocity": 90,
      "chip": "ym2612"
    },
    {
      "channel": 4,
      "note": 63,
      "start": 33.7994,
      "duration": 1.3876,
      "velocity": 127,
      "chip": "ym2612"
    },
    {
      "channel": 0,
      "note": 79,
      "start": 34.2664,
      "duration": 0.4498,
      "velocity": 90,
      "chip": "ym2612"
    },
    {
      "channel": 1,
      "note": 71,
      "start": 34.2669,
      "duration": 0.4495,
      "velocity": 90,
      "chip": "ym2612"
    },
    {
      "channel": 2,
      "note": 65,
      "start": 34.2675,
      "duration": 0.4493,
      "velocity": 90,
      "chip": "ym2612"
    },
    {
      "channel": 3,
      "note": 47,
      "start": 34.2681,
      "duration": 0.449,
      "velocity": 90,
      "chip": "ym2612"
    },
    {
      "channel": 0,
      "note": 80,
      "start": 34.7359,
      "duration": 0.4498,
      "velocity": 90,
      "chip": "ym2612"
    },
    {
      "channel": 1,
      "note": 72,
      "start": 34.7364,
      "duration": 0.4495,
      "velocity": 90,
      "chip": "ym2612"
    },
    {
      "channel": 2,
      "note": 64,
      "start": 34.7369,
      "duration": 0.4493,
      "velocity": 90,
      "chip": "ym2612"
    },
    {
      "channel": 3,
      "note": 50,
      "start": 34.7376,
      "duration": 0.449,
      "velocity": 90,
      "chip": "ym2612"
    },
    {
      "channel": 0,
      "note": 83,
      "start": 35.2054,
      "duration": 0.9192,
      "velocity": 90,
      "chip": "ym2612"
    },
    {
      "channel": 1,
      "note": 75,
      "start": 35.2059,
      "duration": 0.919,
      "velocity": 90,
      "chip": "ym2612"
    },
    {
      "channel": 2,
      "note": 65,
      "start": 35.2065,
      "duration": 0.9188,
      "velocity": 90,
      "chip": "ym2612"
    },
    {
      "channel": 3,
      "note": 47,
      "start": 35.2071,
      "duration": 0.9184,
      "velocity": 90,
      "chip": "ym2612"
    },
    {
      "channel": 4,
      "note": 91,
      "start": 35.2079,
      "duration": 0.1352,
      "velocity": 127,
      "chip": "ym2612"
    },
    {
      "channel": 4,
      "note": 85,
      "start": 35.363,
      "duration": 0.1366,
      "velocity": 127,
      "chip": "ym2612"
    },
    {
      "channel": 4,
      "note": 79,
      "start": 35.5194,
      "duration": 0.1368,
      "velocity": 127,
      "chip": "ym2612"
    },
    {
      "channel": 4,
      "note": 63,
      "start": 35.6761,
      "duration": 1.3888,
      "velocity": 127,
      "chip": "ym2612"
    },
    {
      "channel": 0,
      "note": 83,
      "start": 36.1444,
      "duration": 0.9192,
      "velocity": 90,
      "chip": "ym2612"
    },
    {
      "channel": 1,
      "note": 75,
      "start": 36.1449,
      "duration": 0.919,
      "velocity": 90,
      "chip": "ym2612"
    },
    {
      "channel": 2,
      "note": 67,
      "start": 36.1454,
      "duration": 0.9188,
      "velocity": 90,
      "chip": "ym2612"
    },
    {
      "channel": 3,
      "note": 55,
      "start": 36.1461,
      "duration": 0.9184,
      "velocity": 90,
      "chip": "ym2612"
    },
    {
      "channel": 0,
      "note": 79,
      "start": 37.0834,
      "duration": 0.4498,
      "velocity": 90,
      "chip": "ym2612"
    },
    {
      "channel": 1,
      "note": 71,
      "start": 37.0839,
      "duration": 0.4495,
      "velocity": 90,
      "chip": "ym2612"
    },
    {
      "channel": 2,
      "note": 65,
      "start": 37.0844,
      "duration": 0.4492,
      "velocity": 90,
      "chip": "ym2612"
    },
    {
      "channel": 3,
      "note": 56,
      "start": 37.0851,
      "duration": 0.449,
      "velocity": 90,
      "chip": "ym2612"
    },
    {
      "channel": 4,
      "note": 91,
      "start": 37.0859,
      "duration": 0.1352,
      "velocity": 127,
      "chip": "ym2612"
    },
    {
      "channel": 4,
      "note": 85,
      "start": 37.2409,
      "duration": 0.1366,
      "velocity": 127,
      "chip": "ym2612"
    },
    {
      "channel": 4,
      "note": 79,
      "start": 37.3975,
      "duration": 0.137,
      "velocity": 127,
      "chip": "ym2612"
    },
    {
      "channel": 0,
      "note": 80,
      "start": 37.5528,
      "duration": 0.4497,
      "velocity": 90,
      "chip": "ym2612"
    },
    {
      "channel": 1,
      "note": 72,
      "start": 37.5533,
      "duration": 0.4495,
      "velocity": 90,
      "chip": "ym2612"
    },
    {
      "channel": 2,
      "note": 64,
      "start": 37.5539,
      "duration": 0.4492,
      "velocity": 90,
      "chip": "ym2612"
    },
    {
      "channel": 3,
      "note": 50,
      "start": 37.5546,
      "duration": 0.449,
      "velocity": 90,
      "chip": "ym2612"
    },
    {
      "channel": 4,
      "note": 63,
      "start": 37.5552,
      "duration": 1.3877,
      "velocity": 127,
      "chip": "ym2612"
    },
    {
      "channel": 0,
      "note": 83,
      "start": 38.0223,
      "duration": 0.4498,
      "velocity": 90,
      "chip": "ym2612"
    },
    {
      "channel": 1,
      "note": 75,
      "start": 38.0228,
      "duration": 0.4495,
      "velocity": 90,
      "chip": "ym2612"
    },
    {
      "channel": 2,
      "note": 67,
      "start": 38.0234,
      "duration": 0.4493,
      "velocity": 90,
      "chip": "ym2612"
    },
    {
      "channel": 3,
      "note": 47,
      "start": 38.024,
      "duration": 0.449,
      "velocity": 90,
      "chip": "ym2612"
    },
    {
      "channel": 0,
      "note": 82,
      "start": 38.4918,
      "duration": 0.4497,
      "velocity": 90,
      "chip": "ym2612"
    },
    {
      "channel": 1,
      "note": 74,
      "start": 38.4923,
      "duration": 0.4495,
      "velocity": 90,
      "chip": "ym2612"
    },
    {
      "channel": 2,
      "note": 68,
      "start": 38.4946,
      "duration": 0.4476,
      "velocity": 90,
      "chip": "ym2612"
    },
    {
      "channel": 3,
      "note": 50,
      "start": 38.4952,
      "duration": 0.4473,
      "velocity": 90,
      "chip": "ym2612"
    },
    {
      "channel": 0,
      "note": 83,
      "start": 38.9613,
      "duration": 0.4498,
      "velocity": 90,
      "chip": "ym2612"
    },
    {
      "channel": 1,
      "note": 75,
      "start": 38.9619,
      "duration": 0.4495,
      "velocity": 90,
      "chip": "ym2612"
    },
    {
      "channel": 2,
      "note": 67,
      "start": 38.9624,
      "duration": 0.4492,
      "velocity": 90,
      "chip": "ym2612"
    },
    {
      "channel": 3,
      "note": 53,
      "start": 38.963,
      "duration": 0.449,
      "velocity": 90,
      "chip": "ym2612"
    },
    {
      "channel": 4,
      "note": 91,
      "start": 38.9639,
      "duration": 0.1352,
      "velocity": 127,
      "chip": "ym2612"
    },
    {
      "channel": 4,
      "note": 85,
      "start": 39.1189,
      "duration": 0.1367,
      "velocity": 127,
      "chip": "ym2612"
    },
    {
      "channel": 4,
      "note": 79,
      "start": 39.2754,
      "duration": 0.137,
      "velocity": 127,
      "chip": "ym2612"
    },
    {
      "channel": 0,
      "note": 86,
      "start": 39.4308,
      "duration": 0.9192,
      "velocity": 90,
      "chip": "ym2612"
    },
    {
      "channel": 1,
      "note": 78,
      "start": 39.4313,
      "duration": 0.919,
      "velocity": 90,
      "chip": "ym2612"
    },
    {
      "channel": 2,
      "note": 68,
      "start": 39.4319,
      "duration": 0.9188,
      "velocity": 90,
      "chip": "ym2612"
    },
    {
      "channel": 3,
      "note": 50,
      "start": 39.4325,
      "duration": 0.9185,
      "velocity": 90,
      "chip": "ym2612"
    },
    {
      "channel": 4,
      "note": 63,
      "start": 39.4332,
      "duration": 1.3874,
      "velocity": 127,
      "chip": "ym2612"
    },
    {
      "channel": 0,
      "note": 86,
      "start": 40.3698,
      "duration": 0.9192,
      "velocity": 90,
      "chip": "ym2612"
    },
    {
      "channel": 1,
      "note": 78,
      "start": 40.3703,
      "duration": 0.919,
      "velocity": 90,
      "chip": "ym2612"
    },
    {
      "channel": 2,
      "note": 70,
      "start": 40.3708,
      "duration": 0.9188,
      "velocity": 90,
      "chip": "ym2612"
    },
    {
      "channel": 3,
      "note": 58,
      "start": 40.3715,
      "duration": 0.9185,
      "velocity": 90,
      "chip": "ym2612"
    },
    {
      "channel": 4,
      "note": 91,
      "start": 40.8406,
      "duration": 0.1365,
      "velocity": 127,
      "chip": "ym2612"
    },
    {
      "channel": 4,
      "note": 85,
      "start": 40.9971,
      "duration": 0.1366,
      "velocity": 127,
      "chip": "ym2612"
    },
    {
      "channel": 4,
      "note": 79,
      "start": 41.1535,
      "duration": 0.1369,
      "velocity": 127,
      "chip": "ym2612"
    },
    {
      "channel": 0,
      "note": 82,
      "start": 41.3088,
      "duration": 0.4498,
      "velocity": 90,
      "chip": "ym2612"
    },
    {
      "channel": 1,
      "note": 74,
      "start": 41.3093,
      "duration": 0.4496,
      "velocity": 90,
      "chip": "ym2612"
    },
    {
      "channel": 2,
      "note": 68,
      "start": 41.3098,
      "duration": 0.4493,
      "velocity": 90,
      "chip": "ym2612"
    },
    {
      "channel": 3,
      "note": 59,
      "start": 41.3107,
      "duration": 0.4488,
      "velocity": 90,
      "chip": "ym2612"
    },
    {
      "channel": 4,
      "note": 63,
      "start": 41.3114,
      "duration": 1.3875,
      "velocity": 127,
      "chip": "ym2612"
    },
    {
      "channel": 0,
      "note": 83,
      "start": 41.7782,
      "duration": 0.4498,
      "velocity": 90,
      "chip": "ym2612"
    },
    {
      "channel": 1,
      "note": 75,
      "start": 41.7788,
      "duration": 0.4495,
      "velocity": 90,
      "chip": "ym2612"
    },
    {
      "channel": 2,
      "note": 67,
      "start": 41.7793,
      "duration": 0.4493,
      "velocity": 90,
      "chip": "ym2612"
    },
    {
      "channel": 3,
      "note": 53,
      "start": 41.78,
      "duration": 0.4489,
      "velocity": 90,
      "chip": "ym2612"
    },
    {
      "channel": 0,
      "note": 86,
      "start": 42.2477,
      "duration": 0.4498,
      "velocity": 90,
      "chip": "ym2612"
    },
    {
      "channel": 1,
      "note": 78,
      "start": 42.2483,
      "duration": 0.4495,
      "velocity": 90,
      "chip": "ym2612"
    },
    {
      "channel": 2,
      "note": 68,
      "start": 42.2488,
      "duration": 0.4493,
      "velocity": 90,
      "chip": "ym2612"
    },
    {
      "channel": 3,
      "note": 50,
      "start": 42.2494,
      "duration": 0.449,
      "velocity": 90,
      "chip": "ym2612"
    },
    {
      "channel": 0,
      "note": 87,
      "start": 42.7172,
      "duration": 0.4498,
      "velocity": 90,
      "chip": "ym2612"
    },
    {
      "channel": 1,
      "note": 79,
      "start": 42.7177,
      "duration": 0.4496,
      "velocity": 90,
      "chip": "ym2612"
    },
    {
      "channel": 2,
      "note": 71,
      "start": 42.7183,
      "duration": 0.4493,
      "velocity": 90,
      "chip": "ym2612"
    },
    {
      "channel": 3,
      "note": 51,
      "start": 42.7189,
      "duration": 0.449,
      "velocity": 90,
      "chip": "ym2612"
    },
    {
      "channel": 4,
      "note": 91,
      "start": 42.7198,
      "duration": 0.1352,
      "velocity": 127,
      "chip": "ym2612"
    },
    {
      "channel": 4,
      "note": 85,
      "start": 42.8748,
      "duration": 0.1367,
      "velocity": 127,
      "chip": "ym2612"
    },
    {
      "channel": 4,
      "note": 79,
      "start": 43.0314,
      "duration": 0.137,
      "velocity": 127,
      "chip": "ym2612"
    },
    {
      "channel": 0,
      "note": 86,
      "start": 43.1867,
      "duration": 0.4497,
      "velocity": 90,
      "chip": "ym2612"
    },
    {
      "channel": 1,
      "note": 78,
      "start": 43.1873,
      "duration": 0.4495,
      "velocity": 90,
      "chip": "ym2612"
    },
    {
      "channel": 2,
      "note": 72,
      "start": 43.1878,
      "duration": 0.4492,
      "velocity": 90,
      "chip": "ym2612"
    },
    {
      "channel": 3,
      "note": 54,
      "start": 43.1885,
      "duration": 0.4489,
      "velocity": 90,
      "chip": "ym2612"
    },
    {
      "channel": 4,
      "note": 63,
      "start": 43.1892,
      "duration": 1.3874,
      "velocity": 127,
      "chip": "ym2612"
    },
    {
      "channel": 0,
      "note": 87,
      "start": 43.6562,
      "duration": 0.4497,
      "velocity": 90,
      "chip": "ym2612"
    },
    {
      "channel": 1,
      "note": 79,
      "start": 43.6567,
      "duration": 0.4495,
      "velocity": 90,
      "chip": "ym2612"
    },
    {
      "channel": 2,
      "note": 71,
      "start": 43.6573,
      "duration": 0.4493,
      "velocity": 90,
      "chip": "ym2612"
    },
    {
      "channel": 3,
      "note": 57,
      "start": 43.6579,
      "duration": 0.4489,
      "velocity": 90,
      "chip": "ym2612"
    },
    {
      "channel": 0,
      "note": 90,
      "start": 44.1257,
      "duration": 0.9192,
      "velocity": 90,
      "chip": "ym2612"
    },
    {
      "channel": 1,
      "note": 82,
      "start": 44.1262,
      "duration": 0.919,
      "velocity": 90,
      "chip": "ym2612"
    },
    {
      "channel": 2,
      "note": 72,
      "start": 44.1268,
      "duration": 0.9188,
      "velocity": 90,
      "chip": "ym2612"
    },
    {
      "channel": 3,
      "note": 54,
      "start": 44.1298,
      "duration": 0.916,
      "velocity": 90,
      "chip": "ym2612"
    },
    {
      "channel": 4,
      "note": 91,
      "start": 44.5966,
      "duration": 0.1364,
      "velocity": 127,
      "chip": "ym2612"
    },
    {
      "channel": 4,
      "note": 85,
      "start": 44.7529,
      "duration": 0.1367,
      "velocity": 127,
      "chip": "ym2612"
    },
    {
      "channel": 4,
      "note": 79,
      "start": 44.9094,
      "duration": 0.1369,
      "velocity": 127,
      "chip": "ym2612"
    },
    {
      "channel": 0,
      "note": 90,
      "start": 45.0647,
      "duration": 0.9192,
      "velocity": 90,
      "chip": "ym2612"
    },
    {
      "channel": 1,
      "note": 82,
      "start": 45.0652,
      "duration": 0.919,
      "velocity": 90,
      "chip": "ym2612"
    },
    {
      "channel": 2,
      "note": 74,
      "start": 45.0657,
      "duration": 0.9188,
      "velocity": 90,
      "chip": "ym2612"
    },
    {
      "channel": 3,
      "note": 62,
      "start": 45.0664,
      "duration": 0.9185,
      "velocity": 90,
      "chip": "ym2612"
    },
    {
      "channel": 4,
      "note": 63,
      "start": 45.0671,
      "duration": 1.3877,
      "velocity": 127,
      "chip": "ym2612"
    },
    {
      "channel": 0,
      "note": 86,
      "start": 46.0037,
      "duration": 0.4497,
      "velocity": 90,
      "chip": "ym2612"
    },
    {
      "channel": 1,
      "note": 78,
      "start": 46.0042,
      "duration": 0.4495,
      "velocity": 90,
      "chip": "ym2612"
    },
    {
      "channel": 2,
      "note": 72,
      "start": 46.0047,
      "duration": 0.4492,
      "velocity": 90,
      "chip": "ym2612"
    },
    {
      "channel": 3,
      "note": 63,
      "start": 46.0054,
      "duration": 0.4489,
      "velocity": 90,
      "chip": "ym2612"
    },
    {
      "channel": 0,
      "note": 87,
      "start": 46.4731,
      "duration": 0.9192,
      "velocity": 90,
      "chip": "ym2612"
    },
    {
      "channel": 1,
      "note": 79,
      "start": 46.4737,
      "duration": 0.919,
      "velocity": 90,
      "chip": "ym2612"
    },
    {
      "channel": 2,
      "note": 71,
      "start": 46.4742,
      "duration": 0.9188,
      "velocity": 90,
      "chip": "ym2612"
    },
    {
      "channel": 3,
      "note": 57,
      "start": 46.4749,
      "duration": 0.9184,
      "velocity": 90,
      "chip": "ym2612"
    },
    {
      "channel": 4,
      "note": 91,
      "start": 46.4757,
      "duration": 0.1352,
      "velocity": 127,
      "chip": "ym2612"
    },
    {
      "channel": 4,
      "note": 85,
      "start": 46.6307,
      "duration": 0.1366,
      "velocity": 127,
      "chip": "ym2612"
    },
    {
      "channel": 4,
      "note": 79,
      "start": 46.7872,
      "duration": 0.1368,
      "velocity": 127,
      "chip": "ym2612"
    },
    {
      "channel": 4,
      "note": 63,
      "start": 46.9438,
      "duration": 1.3889,
      "velocity": 127,
      "chip": "ym2612"
    },
    {
      "channel": 0,
      "note": 91,
      "start": 47.4121,
      "duration": 0.9193,
      "velocity": 90,
      "chip": "ym2612"
    },
    {
      "channel": 1,
      "note": 83,
      "start": 47.4126,
      "duration": 0.919,
      "velocity": 90,
      "chip": "ym2612"
    },
    {
      "channel": 2,
      "note": 75,
      "start": 47.4132,
      "duration": 0.9188,
      "velocity": 90,
      "chip": "ym2612"
    },
    {
      "channel": 3,
      "note": 54,
      "start": 47.4138,
      "duration": 0.9185,
      "velocity": 90,
      "chip": "ym2612"
    },
    {
      "channel": 0,
      "note": 92,
      "start": 48.3511,
      "duration": 0.9192,
      "velocity": 90,
      "chip": "ym2612"
    },
    {
      "channel": 1,
      "note": 84,
      "start": 48.3516,
      "duration": 0.919,
      "velocity": 90,
      "chip": "ym2612"
    },
    {
      "channel": 2,
      "note": 74,
      "start": 48.3522,
      "duration": 0.9187,
      "velocity": 90,
      "chip": "ym2612"
    },
    {
      "channel": 3,
      "note": 65,
      "start": 48.3528,
      "duration": 0.9184,
      "velocity": 90,
      "chip": "ym2612"
    },
    {
      "channel": 4,
      "note": 91,
      "start": 48.3537,
      "duration": 0.1352,
      "velocity": 127,
      "chip": "ym2612"
    },
    {
      "channel": 4,
      "note": 85,
      "start": 48.5086,
      "duration": 0.1367,
      "velocity": 127,
      "chip": "ym2612"
    },
    {
      "channel": 4,
      "note": 79,
      "start": 48.6652,
      "duration": 0.1368,
      "velocity": 127,
      "chip": "ym2612"
    },
    {
      "channel": 4,
      "note": 63,
      "start": 48.8242,
      "duration": 0.4475,
      "velocity": 127,
      "chip": "ym2612"
    },
    {
      "channel": 0,
      "note": 93,
      "start": 49.29,
      "duration": 0.1759,
      "velocity": 90,
      "chip": "ym2612"
    },
    {
      "channel": 1,
      "note": 85,
      "start": 49.2907,
      "duration": 3.1301,
      "velocity": 90,
      "chip": "ym2612"
    },
    {
      "channel": 2,
      "note": 77,
      "start": 49.2913,
      "duration": 3.1302,
      "velocity": 90,
      "chip": "ym2612"
    },
    {
      "channel": 3,
      "note": 64,
      "start": 49.2921,
      "duration": 3.1303,
      "velocity": 90,
      "chip": "ym2612"
    },
    {
      "channel": 4,
      "note": 91,
      "start": 49.2927,
      "duration": 0.4481,
      "velocity": 127,
      "chip": "ym2612"
    },
    {
      "channel": 0,
      "note": 93,
      "start": 49.4856,
      "duration": 0.0977,
      "velocity": 90,
      "chip": "ym2612"
    },
    {
      "channel": 0,
      "note": 88,
      "start": 49.603,
      "duration": 0.1759,
      "velocity": 90,
      "chip": "ym2612"
    },
    {
      "channel": 4,
      "note": 90,
      "start": 49.7631,
      "duration": 0.4473,
      "velocity": 127,
      "chip": "ym2612"
    },
    {
      "channel": 0,
      "note": 88,
      "start": 49.7987,
      "duration": 0.0976,
      "velocity": 90,
      "chip": "ym2612"
    },
    {
      "channel": 0,
      "note": 100,
      "start": 49.916,
      "duration": 0.1759,
      "velocity": 90,
      "chip": "ym2612"
    },
    {
      "channel": 0,
      "note": 100,
      "start": 50.1117,
      "duration": 0.0976,
      "velocity": 90,
      "chip": "ym2612"
    },
    {
      "channel": 0,
      "note": 99,
      "start": 50.2307,
      "duration": 0.1741,
      "velocity": 90,
      "chip": "ym2612"
    },
    {
      "channel": 4,
      "note": 89,
      "start": 50.2323,
      "duration": 0.4476,
      "velocity": 127,
      "chip": "ym2612"
    },
    {
      "channel": 0,
      "note": 99,
      "start": 50.4246,
      "duration": 0.0976,
      "velocity": 90,
      "chip": "ym2612"
    },
    {
      "channel": 0,
      "note": 92,
      "start": 50.542,
      "duration": 0.1758,
      "velocity": 90,
      "chip": "ym2612"
    },
    {
      "channel": 4,
      "note": 88,
      "start": 50.7021,
      "duration": 0.4473,
      "velocity": 127,
      "chip": "ym2612"
    },
    {
      "channel": 0,
      "note": 92,
      "start": 50.7376,
      "duration": 0.0977,
      "velocity": 90,
      "chip": "ym2612"
    },
    {
      "channel": 0,
      "note": 93,
      "start": 50.8551,
      "duration": 0.1758,
      "velocity": 90,
      "chip": "ym2612"
    },
    {
      "channel": 0,
      "note": 93,
      "start": 51.0506,
      "duration": 0.0976,
      "velocity": 90,
      "chip": "ym2612"
    },
    {
      "channel": 0,
      "note": 88,
      "start": 51.1697,
      "duration": 0.1742,
      "velocity": 90,
      "chip": "ym2612"
    },
    {
      "channel": 4,
      "note": 87,
      "start": 51.1712,
      "duration": 0.4477,
      "velocity": 127,
      "chip": "ym2612"
    },
    {
      "channel": 0,
      "note": 88,
      "start": 51.3637,
      "duration": 0.0975,
      "velocity": 90,
      "chip": "ym2612"
    },
    {
      "channel": 0,
      "note": 100,
      "start": 51.481,
      "duration": 0.1759,
      "velocity": 90,
      "chip": "ym2612"
    },
    {
      "channel": 4,
      "note": 86,
      "start": 51.6411,
      "duration": 0.4474,
      "velocity": 127,
      "chip": "ym2612"
    },
    {
      "channel": 0,
      "note": 100,
      "start": 51.6766,
      "duration": 0.0976,
      "velocity": 90,
      "chip": "ym2612"
    },
    {
      "channel": 0,
      "note": 99,
      "start": 51.794,
      "duration": 0.1759,
      "velocity": 90,
      "chip": "ym2612"
    },
    {
      "channel": 0,
      "note": 99,
      "start": 51.9897,
      "duration": 0.0976,
      "velocity": 90,
      "chip": "ym2612"
    },
    {
      "channel": 0,
      "note": 92,
      "start": 52.1086,
      "duration": 0.1742,
      "velocity": 90,
      "chip": "ym2612"
    },
    {
      "channel": 4,
      "note": 85,
      "start": 52.1101,
      "duration": 0.4477,
      "velocity": 127,
      "chip": "ym2612"
    },
    {
      "channel": 0,
      "note": 92,
      "start": 52.3026,
      "duration": 0.0976,
      "velocity": 90,
      "chip": "ym2612"
    },
    {
      "channel": 0,
      "note": 93,
      "start": 52.42,
      "duration": 0.1758,
      "velocity": 90,
      "chip": "ym2612"
    },
    {
      "channel": 1,
      "note": 85,
      "start": 52.4208,
      "duration": 3.1097,
      "velocity": 90,
      "chip": "ym2612"
    },
    {
      "channel": 2,
      "note": 77,
      "start": 52.4215,
      "duration": 3.1092,
      "velocity": 90,
      "chip": "ym2612"
    },
    {
      "channel": 3,
      "note": 70,
      "start": 52.4224,
      "duration": 3.1087,
      "velocity": 90,
      "chip": "ym2612"
    },
    {
      "channel": 4,
      "note": 84,
      "start": 52.5801,
      "duration": 0.4473,
      "velocity": 127,
      "chip": "ym2612"
    },
    {
      "channel": 0,
      "note": 93,
      "start": 52.6156,
      "duration": 0.0976,
      "velocity": 90,
      "chip": "ym2612"
    },
    {
      "channel": 0,
      "note": 88,
      "start": 52.733,
      "duration": 0.1759,
      "velocity": 90,
      "chip": "ym2612"
    },
    {
      "channel": 0,
      "note": 88,
      "start": 52.9286,
      "duration": 0.0976,
      "velocity": 90,
      "chip": "ym2612"
    },
    {
      "channel": 0,
      "note": 100,
      "start": 53.0477,
      "duration": 0.1742,
      "velocity": 90,
      "chip": "ym2612"
    },
    {
      "channel": 4,
      "note": 83,
      "start": 53.0492,
      "duration": 0.4477,
      "velocity": 127,
      "chip": "ym2612"
    },
    {
      "channel": 0,
      "note": 100,
      "start": 53.2416,
      "duration": 0.0975,
      "velocity": 90,
      "chip": "ym2612"
    },
    {
      "channel": 0,
      "note": 99,
      "start": 53.3589,
      "duration": 0.1759,
      "velocity": 90,
      "chip": "ym2612"
    },
    {
      "channel": 4,
      "note": 82,
      "start": 53.519,
      "duration": 0.4473,
      "velocity": 127,
      "chip": "ym2612"
    },
    {
      "channel": 0,
      "note": 99,
      "start": 53.5546,
      "duration": 0.0976,
      "velocity": 90,
      "chip": "ym2612"
    },
    {
      "channel": 0,
      "note": 92,
      "start": 53.672,
      "duration": 0.1758,
      "velocity": 90,
      "chip": "ym2612"
    },
    {
      "channel": 0,
      "note": 92,
      "start": 53.8676,
      "duration": 0.0976,
      "velocity": 90,
      "chip": "ym2612"
    },
    {
      "channel": 0,
      "note": 93,
      "start": 53.9866,
      "duration": 0.1742,
      "velocity": 90,
      "chip": "ym2612"
    },
    {
      "channel": 4,
      "note": 81,
      "start": 53.9907,
      "duration": 0.4451,
      "velocity": 127,
      "chip": "ym2612"
    },
    {
      "channel": 0,
      "note": 93,
      "start": 54.1806,
      "duration": 0.0976,
      "velocity": 90,
      "chip": "ym2612"
    },
    {
      "channel": 0,
      "note": 88,
      "start": 54.2979,
      "duration": 0.1758,
      "velocity": 90,
      "chip": "ym2612"
    },
    {
      "channel": 4,
      "note": 80,
      "start": 54.458,
      "duration": 0.4473,
      "velocity": 127,
      "chip": "ym2612"
    },
    {
      "channel": 0,
      "note": 88,
      "start": 54.4935,
      "duration": 0.0976,
      "velocity": 90,
      "chip": "ym2612"
    },
    {
      "channel": 0,
      "note": 100,
      "start": 54.611,
      "duration": 0.1758,
      "velocity": 90,
      "chip": "ym2612"
    },
    {
      "channel": 0,
      "note": 100,
      "start": 54.8066,
      "duration": 0.0976,
      "velocity": 90,
      "chip": "ym2612"
    },
    {
      "channel": 0,
      "note": 99,
      "start": 54.9256,
      "duration": 0.1742,
      "velocity": 90,
      "chip": "ym2612"
    },
    {
      "channel": 0,
      "note": 99,
      "start": 55.1195,
      "duration": 0.0976,
      "velocity": 90,
      "chip": "ym2612"
    },
    {
      "channel": 0,
      "note": 92,
      "start": 55.2369,
      "duration": 0.1758,
      "velocity": 90,
      "chip": "ym2612"
    },
    {
      "channel": 0,
      "note": 92,
      "start": 55.4325,
      "duration": 0.0976,
      "velocity": 90,
      "chip": "ym2612"
    },
    {
      "channel": 0,
      "note": 99,
      "start": 56.4907,
      "duration": 0.0566,
      "velocity": 92,
      "chip": "ym2612"
    },
    {
      "channel": 1,
      "note": 98,
      "start": 56.4931,
      "duration": 0.0545,
      "velocity": 92,
      "chip": "ym2612"
    },
    {
      "channel": 2,
      "note": 97,
      "start": 56.4955,
      "duration": 0.0524,
      "velocity": 92,
      "chip": "ym2612"
    },
    {
      "channel": 0,
      "note": 98,
      "start": 56.5671,
      "duration": 0.0585,
      "velocity": 92,
      "chip": "ym2612"
    },
    {
      "channel": 1,
      "note": 97,
      "start": 56.5677,
      "duration": 0.0583,
      "velocity": 92,
      "chip": "ym2612"
    },
    {
      "channel": 2,
      "note": 96,
      "start": 56.5682,
      "duration": 0.058,
      "velocity": 92,
      "chip": "ym2612"
    },
    {
      "channel": 0,
      "note": 99,
      "start": 56.6455,
      "duration": 0.0583,
      "velocity": 92,
      "chip": "ym2612"
    },
    {
      "channel": 1,
      "note": 98,
      "start": 56.6462,
      "duration": 0.0579,
      "velocity": 92,
      "chip": "ym2612"
    },
    {
      "channel": 2,
      "note": 97,
      "start": 56.647,
      "duration": 0.0574,
      "velocity": 92,
      "chip": "ym2612"
    },
    {
      "channel": 0,
      "note": 98,
      "start": 56.7236,
      "duration": 0.0585,
      "velocity": 92,
      "chip": "ym2612"
    },
    {
      "channel": 1,
      "note": 97,
      "start": 56.7241,
      "duration": 0.0583,
      "velocity": 92,
      "chip": "ym2612"
    },
    {
      "channel": 2,
      "note": 96,
      "start": 56.7247,
      "duration": 0.058,
      "velocity": 92,
      "chip": "ym2612"
    },
    {
      "channel": 0,
      "note": 99,
      "start": 56.8021,
      "duration": 0.0583,
      "velocity": 92,
      "chip": "ym2612"
    },
    {
      "channel": 1,
      "note": 98,
      "start": 56.8027,
      "duration": 0.058,
      "velocity": 92,
      "chip": "ym2612"
    },
    {
      "channel": 2,
      "note": 97,
      "start": 56.8035,
      "duration": 0.0575,
      "velocity": 92,
      "chip": "ym2612"
    },
    {
      "channel": 0,
      "note": 98,
      "start": 56.8802,
      "duration": 0.0585,
      "velocity": 92,
      "chip": "ym2612"
    },
    {
      "channel": 1,
      "note": 97,
      "start": 56.8807,
      "duration": 0.0581,
      "velocity": 92,
      "chip": "ym2612"
    },
    {
      "channel": 2,
      "note": 96,
      "start": 56.8813,
      "duration": 0.0579,
      "velocity": 92,
      "chip": "ym2612"
    },
    {
      "channel": 0,
      "note": 99,
      "start": 56.9585,
      "duration": 0.0583,
      "velocity": 92,
      "chip": "ym2612"
    },
    {
      "channel": 1,
      "note": 98,
      "start": 56.9592,
      "duration": 0.058,
      "velocity": 92,
      "chip": "ym2612"
    },
    {
      "channel": 2,
      "note": 97,
      "start": 56.96,
      "duration": 0.0575,
      "velocity": 92,
      "chip": "ym2612"
    },
    {
      "channel": 0,
      "note": 98,
      "start": 57.0366,
      "duration": 0.0585,
      "velocity": 92,
      "chip": "ym2612"
    },
    {
      "channel": 1,
      "note": 97,
      "start": 57.0372,
      "duration": 0.0582,
      "velocity": 92,
      "chip": "ym2612"
    },
    {
      "channel": 2,
      "note": 96,
      "start": 57.0378,
      "duration": 0.058,
      "velocity": 92,
      "chip": "ym2612"
    },
    {
      "channel": 0,
      "note": 99,
      "start": 57.115,
      "duration": 0.0583,
      "velocity": 92,
      "chip": "ym2612"
    },
    {
      "channel": 1,
      "note": 98,
      "start": 57.1157,
      "duration": 0.0579,
      "velocity": 92,
      "chip": "ym2612"
    },
    {
      "channel": 2,
      "note": 97,
      "start": 57.1164,
      "duration": 0.0575,
      "velocity": 92,
      "chip": "ym2612"
    },
    {
      "channel": 0,
      "note": 98,
      "start": 57.1932,
      "duration": 0.0585,
      "velocity": 92,
      "chip": "ym2612"
    },
    {
      "channel": 1,
      "note": 97,
      "start": 57.1937,
      "duration": 0.0582,
      "velocity": 92,
      "chip": "ym2612"
    },
    {
      "channel": 2,
      "note": 96,
      "start": 57.1942,
      "duration": 0.058,
      "velocity": 92,
      "chip": "ym2612"
    },
    {
      "channel": 0,
      "note": 99,
      "start": 57.2715,
      "duration": 0.0584,
      "velocity": 92,
      "chip": "ym2612"
    },
    {
      "channel": 1,
      "note": 98,
      "start": 57.2722,
      "duration": 0.058,
      "velocity": 92,
      "chip": "ym2612"
    },
    {
      "channel": 2,
      "note": 97,
      "start": 57.2729,
      "duration": 0.0576,
      "velocity": 92,
      "chip": "ym2612"
    },
    {
      "channel": 0,
      "note": 98,
      "start": 57.3496,
      "duration": 0.0585,
      "velocity": 92,
      "chip": "ym2612"
    },
    {
      "channel": 1,
      "note": 97,
      "start": 57.3502,
      "duration": 0.0582,
      "velocity": 92,
      "chip": "ym2612"
    },
    {
      "channel": 2,
      "note": 96,
      "start": 57.3507,
      "duration": 0.058,
      "velocity": 92,
      "chip": "ym2612"
    },
    {
      "channel": 0,
      "note": 99,
      "start": 57.4296,
      "duration": 0.0567,
      "velocity": 92,
      "chip": "ym2612"
    },
    {
      "channel": 1,
      "note": 98,
      "start": 57.432,
      "duration": 0.0546,
      "velocity": 92,
      "chip": "ym2612"
    },
    {
      "channel": 2,
      "note": 97,
      "start": 57.4344,
      "duration": 0.0526,
      "velocity": 92,
      "chip": "ym2612"
    },
    {
      "channel": 0,
      "note": 98,
      "start": 57.5061,
      "duration": 0.0585,
      "velocity": 92,
      "chip": "ym2612"
    },
    {
      "channel": 1,
      "note": 97,
      "start": 57.5066,
      "duration": 0.0582,
      "velocity": 92,
      "chip": "ym2612"
    },
    {
      "channel": 2,
      "note": 96,
      "start": 57.5072,
      "duration": 0.058,
      "velocity": 92,
      "chip": "ym2612"
    },
    {
      "channel": 0,
      "note": 99,
      "start": 57.5843,
      "duration": 0.0585,
      "velocity": 92,
      "chip": "ym2612"
    },
    {
      "channel": 1,
      "note": 98,
      "start": 57.5849,
      "duration": 0.0582,
      "velocity": 92,
      "chip": "ym2612"
    },
    {
      "channel": 2,
      "note": 97,
      "start": 57.5855,
      "duration": 0.058,
      "velocity": 92,
      "chip": "ym2612"
    },
    {
      "channel": 0,
      "note": 98,
      "start": 57.6626,
      "duration": 0.0585,
      "velocity": 92,
      "chip": "ym2612"
    },
    {
      "channel": 1,
      "note": 97,
      "start": 57.6632,
      "duration": 0.0581,
      "velocity": 92,
      "chip": "ym2612"
    },
    {
      "channel": 2,
      "note": 96,
      "start": 57.6638,
      "duration": 0.0578,
      "velocity": 92,
      "chip": "ym2612"
    },
    {
      "channel": 0,
      "note": 99,
      "start": 57.7425,
      "duration": 0.0568,
      "velocity": 92,
      "chip": "ym2612"
    },
    {
      "channel": 1,
      "note": 98,
      "start": 57.7447,
      "duration": 0.0549,
      "velocity": 92,
      "chip": "ym2612"
    },
    {
      "channel": 2,
      "note": 97,
      "start": 57.747,
      "duration": 0.0529,
      "velocity": 92,
      "chip": "ym2612"
    },
    {
      "channel": 0,
      "note": 98,
      "start": 57.8191,
      "duration": 0.0585,
      "velocity": 92,
      "chip": "ym2612"
    },
    {
      "channel": 1,
      "note": 97,
      "start": 57.8196,
      "duration": 0.0583,
      "velocity": 92,
      "chip": "ym2612"
    },
    {
      "channel": 2,
      "note": 96,
      "start": 57.8202,
      "duration": 0.058,
      "velocity": 92,
      "chip": "ym2612"
    },
    {
      "channel": 0,
      "note": 99,
      "start": 57.899,
      "duration": 0.0569,
      "velocity": 92,
      "chip": "ym2612"
    },
    {
      "channel": 1,
      "note": 98,
      "start": 57.9012,
      "duration": 0.055,
      "velocity": 92,
      "chip": "ym2612"
    },
    {
      "channel": 2,
      "note": 97,
      "start": 57.9034,
      "duration": 0.0531,
      "velocity": 92,
      "chip": "ym2612"
    },
    {
      "channel": 0,
      "note": 98,
      "start": 57.9756,
      "duration": 0.0585,
      "velocity": 92,
      "chip": "ym2612"
    },
    {
      "channel": 1,
      "note": 97,
      "start": 57.9762,
      "duration": 0.0582,
      "velocity": 92,
      "chip": "ym2612"
    },
    {
      "channel": 2,
      "note": 96,
      "start": 57.9768,
      "duration": 0.0579,
      "velocity": 92,
      "chip": "ym2612"
    },
    {
      "channel": 0,
      "note": 99,
      "start": 58.0555,
      "duration": 0.0568,
      "velocity": 92,
      "chip": "ym2612"
    },
    {
      "channel": 1,
      "note": 98,
      "start": 58.0577,
      "duration": 0.0548,
      "velocity": 92,
      "chip": "ym2612"
    },
    {
      "channel": 2,
      "note": 97,
      "start": 58.0599,
      "duration": 0.053,
      "velocity": 92,
      "chip": "ym2612"
    },
    {
      "channel": 0,
      "note": 98,
      "start": 58.1321,
      "duration": 0.0585,
      "velocity": 92,
      "chip": "ym2612"
    },
    {
      "channel": 1,
      "note": 97,
      "start": 58.1327,
      "duration": 0.0582,
      "velocity": 92,
      "chip": "ym2612"
    },
    {
      "channel": 2,
      "note": 96,
      "start": 58.1332,
      "duration": 0.0579,
      "velocity": 92,
      "chip": "ym2612"
    },
    {
      "channel": 0,
      "note": 99,
      "start": 58.212,
      "duration": 0.0569,
      "velocity": 92,
      "chip": "ym2612"
    },
    {
      "channel": 1,
      "note": 98,
      "start": 58.2142,
      "duration": 0.0549,
      "velocity": 92,
      "chip": "ym2612"
    },
    {
      "channel": 2,
      "note": 97,
      "start": 58.2164,
      "duration": 0.053,
      "velocity": 92,
      "chip": "ym2612"
    },
    {
      "channel": 0,
      "note": 98,
      "start": 58.2886,
      "duration": 0.0585,
      "velocity": 92,
      "chip": "ym2612"
    },
    {
      "channel": 1,
      "note": 97,
      "start": 58.2892,
      "duration": 0.0582,
      "velocity": 92,
      "chip": "ym2612"
    },
    {
      "channel": 2,
      "note": 96,
      "start": 58.2897,
      "duration": 0.058,
      "velocity": 92,
      "chip": "ym2612"
    },
    {
      "channel": 0,
      "note": 99,
      "start": 58.3685,
      "duration": 0.0569,
      "velocity": 92,
      "chip": "ym2612"
    },
    {
      "channel": 1,
      "note": 98,
      "start": 58.3707,
      "duration": 0.0549,
      "velocity": 92,
      "chip": "ym2612"
    },
    {
      "channel": 2,
      "note": 97,
      "start": 58.3729,
      "duration": 0.053,
      "velocity": 92,
      "chip": "ym2612"
    },
    {
      "channel": 0,
      "note": 98,
      "start": 58.4451,
      "duration": 0.0585,
      "velocity": 92,
      "chip": "ym2612"
    },
    {
      "channel": 1,
      "note": 97,
      "start": 58.4456,
      "duration": 0.0582,
      "velocity": 92,
      "chip": "ym2612"
    },
    {
      "channel": 2,
      "note": 96,
      "start": 58.4462,
      "duration": 0.058,
      "velocity": 92,
      "chip": "ym2612"
    },
    {
      "channel": 0,
      "note": 99,
      "start": 58.525,
      "duration": 0.0569,
      "velocity": 92,
      "chip": "ym2612"
    },
    {
      "channel": 1,
      "note": 98,
      "start": 58.5272,
      "duration": 0.0549,
      "velocity": 92,
      "chip": "ym2612"
    },
    {
      "channel": 2,
      "note": 97,
      "start": 58.5294,
      "duration": 0.053,
      "velocity": 92,
      "chip": "ym2612"
    },
    {
      "channel": 0,
      "note": 98,
      "start": 58.6016,
      "duration": 0.0585,
      "velocity": 92,
      "chip": "ym2612"
    },
    {
      "channel": 1,
      "note": 97,
      "start": 58.6021,
      "duration": 0.0582,
      "velocity": 92,
      "chip": "ym2612"
    },
    {
      "channel": 2,
      "note": 96,
      "start": 58.6027,
      "duration": 0.058,
      "velocity": 92,
      "chip": "ym2612"
    },
    {
      "channel": 0,
      "note": 99,
      "start": 58.6815,
      "duration": 0.0568,
      "velocity": 92,
      "chip": "ym2612"
    },
    {
      "channel": 1,
      "note": 98,
      "start": 58.6837,
      "duration": 0.0548,
      "velocity": 92,
      "chip": "ym2612"
    },
    {
      "channel": 2,
      "note": 97,
      "start": 58.6859,
      "duration": 0.053,
      "velocity": 92,
      "chip": "ym2612"
    },
    {
      "channel": 0,
      "note": 98,
      "start": 58.7581,
      "duration": 0.0585,
      "velocity": 92,
      "chip": "ym2612"
    },
    {
      "channel": 1,
      "note": 97,
      "start": 58.7586,
      "duration": 0.0582,
      "velocity": 92,
      "chip": "ym2612"
    },
    {
      "channel": 2,
      "note": 96,
      "start": 58.7592,
      "duration": 0.058,
      "velocity": 92,
      "chip": "ym2612"
    },
    {
      "channel": 0,
      "note": 99,
      "start": 58.838,
      "duration": 0.0568,
      "velocity": 92,
      "chip": "ym2612"
    },
    {
      "channel": 1,
      "note": 98,
      "start": 58.8402,
      "duration": 0.0549,
      "velocity": 92,
      "chip": "ym2612"
    },
    {
      "channel": 2,
      "note": 97,
      "start": 58.8424,
      "duration": 0.053,
      "velocity": 92,
      "chip": "ym2612"
    },
    {
      "channel": 0,
      "note": 98,
      "start": 58.9146,
      "duration": 0.0585,
      "velocity": 92,
      "chip": "ym2612"
    },
    {
      "channel": 1,
      "note": 97,
      "start": 58.9151,
      "duration": 0.0583,
      "velocity": 92,
      "chip": "ym2612"
    },
    {
      "channel": 2,
      "note": 96,
      "start": 58.9157,
      "duration": 0.058,
      "velocity": 92,
      "chip": "ym2612"
    },
    {
      "channel": 0,
      "note": 99,
      "start": 58.9945,
      "duration": 0.0568,
      "velocity": 92,
      "chip": "ym2612"
    },
    {
      "channel": 1,
      "note": 98,
      "start": 58.9967,
      "duration": 0.0548,
      "velocity": 92,
      "chip": "ym2612"
    },
    {
      "channel": 2,
      "note": 97,
      "start": 58.999,
      "duration": 0.0529,
      "velocity": 92,
      "chip": "ym2612"
    },
    {
      "channel": 0,
      "note": 98,
      "start": 59.0711,
      "duration": 0.0585,
      "velocity": 92,
      "chip": "ym2612"
    },
    {
      "channel": 1,
      "note": 97,
      "start": 59.0717,
      "duration": 0.0581,
      "velocity": 92,
      "chip": "ym2612"
    },
    {
      "channel": 2,
      "note": 96,
      "start": 59.0722,
      "duration": 0.058,
      "velocity": 92,
      "chip": "ym2612"
    },
    {
      "channel": 0,
      "note": 88,
      "start": 59.308,
      "duration": 0.0562,
      "velocity": 92,
      "chip": "ym2612"
    },
    {
      "channel": 1,
      "note": 84,
      "start": 59.3111,
      "duration": 0.0534,
      "velocity": 92,
      "chip": "ym2612"
    },
    {
      "channel": 2,
      "note": 80,
      "start": 59.314,
      "duration": 0.0508,
      "velocity": 92,
      "chip": "ym2612"
    },
    {
      "channel": 0,
      "note": 84,
      "start": 59.3841,
      "duration": 0.0585,
      "velocity": 92,
      "chip": "ym2612"
    },
    {
      "channel": 1,
      "note": 80,
      "start": 59.3846,
      "duration": 0.0582,
      "velocity": 92,
      "chip": "ym2612"
    },
    {
      "channel": 2,
      "note": 88,
      "start": 59.3851,
      "duration": 0.058,
      "velocity": 92,
      "chip": "ym2612"
    },
    {
      "channel": 0,
      "note": 80,
      "start": 59.4623,
      "duration": 0.0585,
      "velocity": 92,
      "chip": "ym2612"
    },
    {
      "channel": 1,
      "note": 88,
      "start": 59.4628,
      "duration": 0.0583,
      "velocity": 92,
      "chip": "ym2612"
    },
    {
      "channel": 2,
      "note": 84,
      "start": 59.4634,
      "duration": 0.0579,
      "velocity": 92,
      "chip": "ym2612"
    },
    {
      "channel": 0,
      "note": 88,
      "start": 59.5407,
      "duration": 0.0583,
      "velocity": 92,
      "chip": "ym2612"
    },
    {
      "channel": 1,
      "note": 84,
      "start": 59.5415,
      "duration": 0.0579,
      "velocity": 92,
      "chip": "ym2612"
    },
    {
      "channel": 2,
      "note": 80,
      "start": 59.5421,
      "duration": 0.0575,
      "velocity": 92,
      "chip": "ym2612"
    },
    {
      "channel": 0,
      "note": 84,
      "start": 59.6188,
      "duration": 0.0585,
      "velocity": 92,
      "chip": "ym2612"
    },
    {
      "channel": 1,
      "note": 80,
      "start": 59.6194,
      "duration": 0.0582,
      "velocity": 92,
      "chip": "ym2612"
    },
    {
      "channel": 2,
      "note": 88,
      "start": 59.6199,
      "duration": 0.0579,
      "velocity": 92,
      "chip": "ym2612"
    },
    {
      "channel": 0,
      "note": 80,
      "start": 59.6971,
      "duration": 0.0585,
      "velocity": 92,
      "chip": "ym2612"
    },
    {
      "channel": 1,
      "note": 88,
      "start": 59.6976,
      "duration": 0.0582,
      "velocity": 92,
      "chip": "ym2612"
    },
    {
      "channel": 2,
      "note": 84,
      "start": 59.6981,
      "duration": 0.058,
      "velocity": 92,
      "chip": "ym2612"
    },
    {
      "channel": 0,
      "note": 88,
      "start": 59.7754,
      "duration": 0.0584,
      "velocity": 92,
      "chip": "ym2612"
    },
    {
      "channel": 1,
      "note": 84,
      "start": 59.7761,
      "duration": 0.0579,
      "velocity": 92,
      "chip": "ym2612"
    },
    {
      "channel": 2,
      "note": 80,
      "start": 59.7768,
      "duration": 0.0575,
      "velocity": 92,
      "chip": "ym2612"
    },
    {
      "channel": 0,
      "note": 84,
      "start": 59.8535,
      "duration": 0.0585,
      "velocity": 92,
      "chip": "ym2612"
    },
    {
      "channel": 1,
      "note": 80,
      "start": 59.8541,
      "duration": 0.0582,
      "velocity": 92,
      "chip": "ym2612"
    },
    {
      "channel": 2,
      "note": 88,
      "start": 59.8546,
      "duration": 0.058,
      "velocity": 92,
      "chip": "ym2612"
    },
    {
      "channel": 0,
      "note": 80,
      "start": 59.9318,
      "duration": 0.0585,
      "velocity": 92,
      "chip": "ym2612"
    },
    {
      "channel": 1,
      "note": 88,
      "start": 59.9324,
      "duration": 0.0582,
      "velocity": 92,
      "chip": "ym2612"
    },
    {
      "channel": 2,
      "note": 84,
      "start": 59.9329,
      "duration": 0.0579,
      "velocity": 92,
      "chip": "ym2612"
    },
    {
      "channel": 0,
      "note": 88,
      "start": 60.0102,
      "duration": 0.0583,
      "velocity": 92,
      "chip": "ym2612"
    },
    {
      "channel": 1,
      "note": 84,
      "start": 60.0108,
      "duration": 0.058,
      "velocity": 92,
      "chip": "ym2612"
    },
    {
      "channel": 2,
      "note": 80,
      "start": 60.0115,
      "duration": 0.0576,
      "velocity": 92,
      "chip": "ym2612"
    },
    {
      "channel": 0,
      "note": 84,
      "start": 60.0883,
      "duration": 0.0585,
      "velocity": 92,
      "chip": "ym2612"
    },
    {
      "channel": 1,
      "note": 80,
      "start": 60.0888,
      "duration": 0.0583,
      "velocity": 92,
      "chip": "ym2612"
    },
    {
      "channel": 2,
      "note": 88,
      "start": 60.0894,
      "duration": 0.058,
      "velocity": 92,
      "chip": "ym2612"
    },
    {
      "channel": 0,
      "note": 80,
      "start": 60.1665,
      "duration": 0.0585,
      "velocity": 92,
      "chip": "ym2612"
    },
    {
      "channel": 1,
      "note": 88,
      "start": 60.1671,
      "duration": 0.0582,
      "velocity": 92,
      "chip": "ym2612"
    },
    {
      "channel": 2,
      "note": 84,
      "start": 60.1676,
      "duration": 0.058,
      "velocity": 92,
      "chip": "ym2612"
    },
    {
      "channel": 0,
      "note": 88,
      "start": 60.2449,
      "duration": 0.0583,
      "velocity": 92,
      "chip": "ym2612"
    },
    {
      "channel": 1,
      "note": 84,
      "start": 60.2456,
      "duration": 0.0579,
      "velocity": 92,
      "chip": "ym2612"
    },
    {
      "channel": 2,
      "note": 80,
      "start": 60.2463,
      "duration": 0.0576,
      "velocity": 92,
      "chip": "ym2612"
    },
    {
      "channel": 3,
      "note": 70,
      "start": 60.2495,
      "duration": 0.9154,
      "velocity": 94,
      "chip": "ym2612"
    },
    {
      "channel": 0,
      "note": 84,
      "start": 60.3231,
      "duration": 0.0585,
      "velocity": 92,
      "chip": "ym2612"
    },
    {
      "channel": 1,
      "note": 80,
      "start": 60.3236,
      "duration": 0.0583,
      "velocity": 92,
      "chip": "ym2612"
    },
    {
      "channel": 2,
      "note": 88,
      "start": 60.3241,
      "duration": 0.0579,
      "velocity": 92,
      "chip": "ym2612"
    },
    {
      "channel": 0,
      "note": 80,
      "start": 60.4013,
      "duration": 0.0585,
      "velocity": 92,
      "chip": "ym2612"
    },
    {
      "channel": 1,
      "note": 88,
      "start": 60.4018,
      "duration": 0.0583,
      "velocity": 92,
      "chip": "ym2612"
    },
    {
      "channel": 2,
      "note": 84,
      "start": 60.4024,
      "duration": 0.058,
      "velocity": 92,
      "chip": "ym2612"
    },
    {
      "channel": 4,
      "note": 79,
      "start": 60.4058,
      "duration": 0.916,
      "velocity": 94,
      "chip": "ym2612"
    },
    {
      "channel": 0,
      "note": 88,
      "start": 60.4797,
      "duration": 0.0584,
      "velocity": 92,
      "chip": "ym2612"
    },
    {
      "channel": 1,
      "note": 84,
      "start": 60.4804,
      "duration": 0.0579,
      "velocity": 92,
      "chip": "ym2612"
    },
    {
      "channel": 2,
      "note": 80,
      "start": 60.4811,
      "duration": 0.0574,
      "velocity": 92,
      "chip": "ym2612"
    },
    {
      "channel": 0,
      "note": 84,
      "start": 60.5578,
      "duration": 0.0585,
      "velocity": 92,
      "chip": "ym2612"
    },
    {
      "channel": 1,
      "note": 80,
      "start": 60.5583,
      "duration": 0.0583,
      "velocity": 92,
      "chip": "ym2612"
    },
    {
      "channel": 2,
      "note": 88,
      "start": 60.5589,
      "duration": 0.058,
      "velocity": 92,
      "chip": "ym2612"
    },
    {
      "channel": 0,
      "note": 80,
      "start": 60.636,
      "duration": 0.0585,
      "velocity": 92,
      "chip": "ym2612"
    },
    {
      "channel": 1,
      "note": 88,
      "start": 60.6366,
      "duration": 0.0582,
      "velocity": 92,
      "chip": "ym2612"
    },
    {
      "channel": 2,
      "note": 84,
      "start": 60.6371,
      "duration": 0.058,
      "velocity": 92,
      "chip": "ym2612"
    },
    {
      "channel": 0,
      "note": 88,
      "start": 60.7144,
      "duration": 0.0583,
      "velocity": 92,
      "chip": "ym2612"
    },
    {
      "channel": 1,
      "note": 84,
      "start": 60.7151,
      "duration": 0.0579,
      "velocity": 92,
      "chip": "ym2612"
    },
    {
      "channel": 2,
      "note": 80,
      "start": 60.7158,
      "duration": 0.0575,
      "velocity": 92,
      "chip": "ym2612"
    },
    {
      "channel": 0,
      "note": 84,
      "start": 60.7925,
      "duration": 0.0585,
      "velocity": 92,
      "chip": "ym2612"
    },
    {
      "channel": 1,
      "note": 80,
      "start": 60.793,
      "duration": 0.0583,
      "velocity": 92,
      "chip": "ym2612"
    },
    {
      "channel": 2,
      "note": 88,
      "start": 60.7936,
      "duration": 0.058,
      "velocity": 92,
      "chip": "ym2612"
    },
    {
      "channel": 0,
      "note": 80,
      "start": 60.8708,
      "duration": 0.0585,
      "velocity": 92,
      "chip": "ym2612"
    },
    {
      "channel": 1,
      "note": 88,
      "start": 60.8713,
      "duration": 0.0582,
      "velocity": 92,
      "chip": "ym2612"
    },
    {
      "channel": 2,
      "note": 84,
      "start": 60.8719,
      "duration": 0.058,
      "velocity": 92,
      "chip": "ym2612"
    },
    {
      "channel": 0,
      "note": 88,
      "start": 60.9492,
      "duration": 0.0583,
      "velocity": 92,
      "chip": "ym2612"
    },
    {
      "channel": 1,
      "note": 84,
      "start": 60.9499,
      "duration": 0.0579,
      "velocity": 92,
      "chip": "ym2612"
    },
    {
      "channel": 2,
      "note": 80,
      "start": 60.9505,
      "duration": 0.0576,
      "velocity": 92,
      "chip": "ym2612"
    },
    {
      "channel": 0,
      "note": 84,
      "start": 61.0273,
      "duration": 0.0585,
      "velocity": 92,
      "chip": "ym2612"
    },
    {
      "channel": 1,
      "note": 80,
      "start": 61.0278,
      "duration": 0.0582,
      "velocity": 92,
      "chip": "ym2612"
    },
    {
      "channel": 2,
      "note": 88,
      "start": 61.0284,
      "duration": 0.0579,
      "velocity": 92,
      "chip": "ym2612"
    },
    {
      "channel": 0,
      "note": 80,
      "start": 61.1055,
      "duration": 0.0585,
      "velocity": 92,
      "chip": "ym2612"
    },
    {
      "channel": 1,
      "note": 88,
      "start": 61.1061,
      "duration": 0.0582,
      "velocity": 92,
      "chip": "ym2612"
    },
    {
      "channel": 2,
      "note": 84,
      "start": 61.1066,
      "duration": 0.058,
      "velocity": 92,
      "chip": "ym2612"
    },
    {
      "channel": 0,
      "note": 88,
      "start": 61.1839,
      "duration": 0.0583,
      "velocity": 92,
      "chip": "ym2612"
    },
    {
      "channel": 1,
      "note": 84,
      "start": 61.1846,
      "duration": 0.0579,
      "velocity": 92,
      "chip": "ym2612"
    },
    {
      "channel": 2,
      "note": 80,
      "start": 61.1853,
      "duration": 0.0575,
      "velocity": 92,
      "chip": "ym2612"
    },
    {
      "channel": 3,
      "note": 54,
      "start": 61.1859,
      "duration": 0.4485,
      "velocity": 94,
      "chip": "ym2612"
    },
    {
      "channel": 0,
      "note": 84,
      "start": 61.2621,
      "duration": 0.0585,
      "velocity": 92,
      "chip": "ym2612"
    },
    {
      "channel": 1,
      "note": 80,
      "start": 61.2626,
      "duration": 0.0583,
      "velocity": 92,
      "chip": "ym2612"
    },
    {
      "channel": 2,
      "note": 88,
      "start": 61.2631,
      "duration": 0.058,
      "velocity": 92,
      "chip": "ym2612"
    },
    {
      "channel": 0,
      "note": 80,
      "start": 61.3402,
      "duration": 0.0585,
      "velocity": 92,
      "chip": "ym2612"
    },
    {
      "channel": 1,
      "note": 88,
      "start": 61.3408,
      "duration": 0.0582,
      "velocity": 92,
      "chip": "ym2612"
    },
    {
      "channel": 2,
      "note": 84,
      "start": 61.3413,
      "duration": 0.058,
      "velocity": 92,
      "chip": "ym2612"
    },
    {
      "channel": 4,
      "note": 54,
      "start": 61.3423,
      "duration": 0.4489,
      "velocity": 94,
      "chip": "ym2612"
    },
    {
      "channel": 0,
      "note": 88,
      "start": 61.4187,
      "duration": 0.0583,
      "velocity": 92,
      "chip": "ym2612"
    },
    {
      "channel": 1,
      "note": 84,
      "start": 61.4194,
      "duration": 0.058,
      "velocity": 92,
      "chip": "ym2612"
    },
    {
      "channel": 2,
      "note": 80,
      "start": 61.4201,
      "duration": 0.0575,
      "velocity": 92,
      "chip": "ym2612"
    },
    {
      "channel": 0,
      "note": 84,
      "start": 61.4968,
      "duration": 0.0584,
      "velocity": 92,
      "chip": "ym2612"
    },
    {
      "channel": 1,
      "note": 80,
      "start": 61.4974,
      "duration": 0.0581,
      "velocity": 92,
      "chip": "ym2612"
    },
    {
      "channel": 2,
      "note": 88,
      "start": 61.4979,
      "duration": 0.0578,
      "velocity": 92,
      "chip": "ym2612"
    },
    {
      "channel": 0,
      "note": 80,
      "start": 61.575,
      "duration": 0.0585,
      "velocity": 92,
      "chip": "ym2612"
    },
    {
      "channel": 1,
      "note": 88,
      "start": 61.5755,
      "duration": 0.0583,
      "velocity": 92,
      "chip": "ym2612"
    },
    {
      "channel": 2,
      "note": 84,
      "start": 61.5761,
      "duration": 0.0579,
      "velocity": 92,
      "chip": "ym2612"
    },
    {
      "channel": 0,
      "note": 88,
      "start": 61.6534,
      "duration": 0.0583,
      "velocity": 92,
      "chip": "ym2612"
    },
    {
      "channel": 1,
      "note": 84,
      "start": 61.6541,
      "duration": 0.0579,
      "velocity": 92,
      "chip": "ym2612"
    },
    {
      "channel": 2,
      "note": 80,
      "start": 61.6548,
      "duration": 0.0575,
      "velocity": 92,
      "chip": "ym2612"
    },
    {
      "channel": 3,
      "note": 60,
      "start": 61.6554,
      "duration": 0.4484,
      "velocity": 94,
      "chip": "ym2612"
    },
    {
      "channel": 0,
      "note": 84,
      "start": 61.7315,
      "duration": 0.0585,
      "velocity": 92,
      "chip": "ym2612"
    },
    {
      "channel": 1,
      "note": 80,
      "start": 61.732,
      "duration": 0.0583,
      "velocity": 92,
      "chip": "ym2612"
    },
    {
      "channel": 2,
      "note": 88,
      "start": 61.7326,
      "duration": 0.0579,
      "velocity": 92,
      "chip": "ym2612"
    },
    {
      "channel": 0,
      "note": 80,
      "start": 61.8098,
      "duration": 0.0585,
      "velocity": 92,
      "chip": "ym2612"
    },
    {
      "channel": 1,
      "note": 88,
      "start": 61.8103,
      "duration": 0.0583,
      "velocity": 92,
      "chip": "ym2612"
    },
    {
      "channel": 2,
      "note": 84,
      "start": 61.8108,
      "duration": 0.058,
      "velocity": 92,
      "chip": "ym2612"
    },
    {
      "channel": 4,
      "note": 60,
      "start": 61.8118,
      "duration": 0.4489,
      "velocity": 94,
      "chip": "ym2612"
    },
    {
      "channel": 0,
      "note": 88,
      "start": 61.8881,
      "duration": 0.0584,
      "velocity": 92,
      "chip": "ym2612"
    },
    {
      "channel": 1,
      "note": 84,
      "start": 61.8888,
      "duration": 0.058,
      "velocity": 92,
      "chip": "ym2612"
    },
    {
      "channel": 2,
      "note": 80,
      "start": 61.8895,
      "duration": 0.0576,
      "velocity": 92,
      "chip": "ym2612"
    },
    {
      "channel": 0,
      "note": 84,
      "start": 61.9663,
      "duration": 0.0585,
      "velocity": 92,
      "chip": "ym2612"
    },
    {
      "channel": 1,
      "note": 80,
      "start": 61.9668,
      "duration": 0.0582,
      "velocity": 92,
      "chip": "ym2612"
    },
    {
      "channel": 2,
      "note": 88,
      "start": 61.9673,
      "duration": 0.058,
      "velocity": 92,
      "chip": "ym2612"
    },
    {
      "channel": 0,
      "note": 80,
      "start": 62.0446,
      "duration": 0.0585,
      "velocity": 92,
      "chip": "ym2612"
    },
    {
      "channel": 1,
      "note": 88,
      "start": 62.0451,
      "duration": 0.0582,
      "velocity": 92,
      "chip": "ym2612"
    },
    {
      "channel": 2,
      "note": 84,
      "start": 62.0456,
      "duration": 0.0579,
      "velocity": 92,
      "chip": "ym2612"
    },
    {
      "channel": 0,
      "note": 88,
      "start": 62.1246,
      "duration": 0.0567,
      "velocity": 92,
      "chip": "ym2612"
    },
    {
      "channel": 1,
      "note": 84,
      "start": 62.1269,
      "duration": 0.0546,
      "velocity": 92,
      "chip": "ym2612"
    },
    {
      "channel": 2,
      "note": 80,
      "start": 62.1292,
      "duration": 0.0526,
      "velocity": 92,
      "chip": "ym2612"
    },
    {
      "channel": 3,
      "note": 56,
      "start": 62.1299,
      "duration": 0.4435,
      "velocity": 94,
      "chip": "ym2612"
    },
    {
      "channel": 0,
      "note": 84,
      "start": 62.201,
      "duration": 0.0585,
      "velocity": 92,
      "chip": "ym2612"
    },
    {
      "channel": 1,
      "note": 80,
      "start": 62.2016,
      "duration": 0.0582,
      "velocity": 92,
      "chip": "ym2612"
    },
    {
      "channel": 2,
      "note": 88,
      "start": 62.2021,
      "duration": 0.0579,
      "velocity": 92,
      "chip": "ym2612"
    },
    {
      "channel": 0,
      "note": 80,
      "start": 62.2793,
      "duration": 0.0584,
      "velocity": 92,
      "chip": "ym2612"
    },
    {
      "channel": 1,
      "note": 88,
      "start": 62.2799,
      "duration": 0.0581,
      "velocity": 92,
      "chip": "ym2612"
    },
    {
      "channel": 2,
      "note": 84,
      "start": 62.2804,
      "duration": 0.0578,
      "velocity": 92,
      "chip": "ym2612"
    },
    {
      "channel": 4,
      "note": 56,
      "start": 62.2814,
      "duration": 0.4488,
      "velocity": 94,
      "chip": "ym2612"
    },
    {
      "channel": 0,
      "note": 88,
      "start": 62.3591,
      "duration": 0.0569,
      "velocity": 92,
      "chip": "ym2612"
    },
    {
      "channel": 1,
      "note": 84,
      "start": 62.3614,
      "duration": 0.0549,
      "velocity": 92,
      "chip": "ym2612"
    },
    {
      "channel": 2,
      "note": 80,
      "start": 62.3636,
      "duration": 0.0529,
      "velocity": 92,
      "chip": "ym2612"
    },
    {
      "channel": 0,
      "note": 84,
      "start": 62.4358,
      "duration": 0.0585,
      "velocity": 92,
      "chip": "ym2612"
    },
    {
      "channel": 1,
      "note": 80,
      "start": 62.4363,
      "duration": 0.0582,
      "velocity": 92,
      "chip": "ym2612"
    },
    {
      "channel": 2,
      "note": 88,
      "start": 62.4369,
      "duration": 0.0579,
      "velocity": 92,
      "chip": "ym2612"
    },
    {
      "channel": 0,
      "note": 80,
      "start": 62.514,
      "duration": 0.0585,
      "velocity": 92,
      "chip": "ym2612"
    },
    {
      "channel": 1,
      "note": 88,
      "start": 62.5145,
      "duration": 0.0582,
      "velocity": 92,
      "chip": "ym2612"
    },
    {
      "channel": 2,
      "note": 84,
      "start": 62.5151,
      "duration": 0.058,
      "velocity": 92,
      "chip": "ym2612"
    },
    {
      "channel": 0,
      "note": 88,
      "start": 62.5939,
      "duration": 0.0569,
      "velocity": 92,
      "chip": "ym2612"
    },
    {
      "channel": 1,
      "note": 84,
      "start": 62.5961,
      "duration": 0.0549,
      "velocity": 92,
      "chip": "ym2612"
    },
    {
      "channel": 2,
      "note": 80,
      "start": 62.5983,
      "duration": 0.0529,
      "velocity": 92,
      "chip": "ym2612"
    },
    {
      "channel": 3,
      "note": 63,
      "start": 62.599,
      "duration": 0.4439,
      "velocity": 94,
      "chip": "ym2612"
    },
    {
      "channel": 0,
      "note": 84,
      "start": 62.6705,
      "duration": 0.0585,
      "velocity": 92,
      "chip": "ym2612"
    },
    {
      "channel": 1,
      "note": 80,
      "start": 62.671,
      "duration": 0.0582,
      "velocity": 92,
      "chip": "ym2612"
    },
    {
      "channel": 2,
      "note": 88,
      "start": 62.6716,
      "duration": 0.058,
      "velocity": 92,
      "chip": "ym2612"
    },
    {
      "channel": 0,
      "note": 80,
      "start": 62.7488,
      "duration": 0.0585,
      "velocity": 92,
      "chip": "ym2612"
    },
    {
      "channel": 1,
      "note": 88,
      "start": 62.7493,
      "duration": 0.0582,
      "velocity": 92,
      "chip": "ym2612"
    },
    {
      "channel": 2,
      "note": 84,
      "start": 62.7498,
      "duration": 0.058,
      "velocity": 92,
      "chip": "ym2612"
    },
    {
      "channel": 4,
      "note": 63,
      "start": 62.7508,
      "duration": 0.4489,
      "velocity": 94,
      "chip": "ym2612"
    },
    {
      "channel": 0,
      "note": 88,
      "start": 62.8286,
      "duration": 0.0569,
      "velocity": 92,
      "chip": "ym2612"
    },
    {
      "channel": 1,
      "note": 84,
      "start": 62.8309,
      "duration": 0.0548,
      "velocity": 92,
      "chip": "ym2612"
    },
    {
      "channel": 2,
      "note": 80,
      "start": 62.833,
      "duration": 0.053,
      "velocity": 92,
      "chip": "ym2612"
    },
    {
      "channel": 0,
      "note": 84,
      "start": 62.9052,
      "duration": 0.0585,
      "velocity": 92,
      "chip": "ym2612"
    },
    {
      "channel": 1,
      "note": 80,
      "start": 62.9058,
      "duration": 0.0582,
      "velocity": 92,
      "chip": "ym2612"
    },
    {
      "channel": 2,
      "note": 88,
      "start": 62.9063,
      "duration": 0.0579,
      "velocity": 92,
      "chip": "ym2612"
    },
    {
      "channel": 0,
      "note": 80,
      "start": 62.9835,
      "duration": 0.0585,
      "velocity": 92,
      "chip": "ym2612"
    },
    {
      "channel": 1,
      "note": 88,
      "start": 62.984,
      "duration": 0.0583,
      "velocity": 92,
      "chip": "ym2612"
    },
    {
      "channel": 2,
      "note": 84,
      "start": 62.9846,
      "duration": 0.0579,
      "velocity": 92,
      "chip": "ym2612"
    },
    {
      "channel": 0,
      "note": 86,
      "start": 63.0636,
      "duration": 0.0566,
      "velocity": 92,
      "chip": "ym2612"
    },
    {
      "channel": 1,
      "note": 82,
      "start": 63.0659,
      "duration": 0.0546,
      "velocity": 92,
      "chip": "ym2612"
    },
    {
      "channel": 2,
      "note": 78,
      "start": 63.0682,
      "duration": 0.0525,
      "velocity": 92,
      "chip": "ym2612"
    },
    {
      "channel": 0,
      "note": 82,
      "start": 63.14,
      "duration": 0.0585,
      "velocity": 92,
      "chip": "ym2612"
    },
    {
      "channel": 1,
      "note": 78,
      "start": 63.1405,
      "duration": 0.0583,
      "velocity": 92,
      "chip": "ym2612"
    },
    {
      "channel": 2,
      "note": 86,
      "start": 63.1411,
      "duration": 0.058,
      "velocity": 92,
      "chip": "ym2612"
    },
    {
      "channel": 0,
      "note": 78,
      "start": 63.2182,
      "duration": 0.0585,
      "velocity": 92,
      "chip": "ym2612"
    },
    {
      "channel": 1,
      "note": 86,
      "start": 63.2188,
      "duration": 0.0582,
      "velocity": 92,
      "chip": "ym2612"
    },
    {
      "channel": 2,
      "note": 82,
      "start": 63.2193,
      "duration": 0.058,
      "velocity": 92,
      "chip": "ym2612"
    },
    {
      "channel": 0,
      "note": 86,
      "start": 63.2967,
      "duration": 0.0583,
      "velocity": 92,
      "chip": "ym2612"
    },
    {
      "channel": 1,
      "note": 82,
      "start": 63.2974,
      "duration": 0.0579,
      "velocity": 92,
      "chip": "ym2612"
    },
    {
      "channel": 2,
      "note": 78,
      "start": 63.298,
      "duration": 0.0575,
      "velocity": 92,
      "chip": "ym2612"
    },
    {
      "channel": 0,
      "note": 82,
      "start": 63.3748,
      "duration": 0.0585,
      "velocity": 92,
      "chip": "ym2612"
    },
    {
      "channel": 1,
      "note": 78,
      "start": 63.3753,
      "duration": 0.0582,
      "velocity": 92,
      "chip": "ym2612"
    },
    {
      "channel": 2,
      "note": 86,
      "start": 63.3759,
      "duration": 0.0579,
      "velocity": 92,
      "chip": "ym2612"
    },
    {
      "channel": 0,
      "note": 78,
      "start": 63.4529,
      "duration": 0.0585,
      "velocity": 92,
      "chip": "ym2612"
    },
    {
      "channel": 1,
      "note": 86,
      "start": 63.4535,
      "duration": 0.0582,
      "velocity": 92,
      "chip": "ym2612"
    },
    {
      "channel": 2,
      "note": 82,
      "start": 63.454,
      "duration": 0.058,
      "velocity": 92,
      "chip": "ym2612"
    },
    {
      "channel": 0,
      "note": 86,
      "start": 63.5314,
      "duration": 0.0583,
      "velocity": 92,
      "chip": "ym2612"
    },
    {
      "channel": 1,
      "note": 82,
      "start": 63.5321,
      "duration": 0.0579,
      "velocity": 92,
      "chip": "ym2612"
    },
    {
      "channel": 2,
      "note": 78,
      "start": 63.5327,
      "duration": 0.0575,
      "velocity": 92,
      "chip": "ym2612"
    },
    {
      "channel": 0,
      "note": 82,
      "start": 63.6095,
      "duration": 0.0585,
      "velocity": 92,
      "chip": "ym2612"
    },
    {
      "channel": 1,
      "note": 78,
      "start": 63.61,
      "duration": 0.0582,
      "velocity": 92,
      "chip": "ym2612"
    },
    {
      "channel": 2,
      "note": 86,
      "start": 63.6106,
      "duration": 0.058,
      "velocity": 92,
      "chip": "ym2612"
    },
    {
      "channel": 0,
      "note": 78,
      "start": 63.6878,
      "duration": 0.0585,
      "velocity": 92,
      "chip": "ym2612"
    },
    {
      "channel": 1,
      "note": 86,
      "start": 63.6883,
      "duration": 0.0582,
      "velocity": 92,
      "chip": "ym2612"
    },
    {
      "channel": 2,
      "note": 82,
      "start": 63.6888,
      "duration": 0.0579,
      "velocity": 92,
      "chip": "ym2612"
    },
    {
      "channel": 0,
      "note": 86,
      "start": 63.7661,
      "duration": 0.0583,
      "velocity": 92,
      "chip": "ym2612"
    },
    {
      "channel": 1,
      "note": 82,
      "start": 63.7668,
      "duration": 0.0579,
      "velocity": 92,
      "chip": "ym2612"
    },
    {
      "channel": 2,
      "note": 78,
      "start": 63.7675,
      "duration": 0.0576,
      "velocity": 92,
      "chip": "ym2612"
    },
    {
      "channel": 0,
      "note": 82,
      "start": 63.8443,
      "duration": 0.0584,
      "velocity": 92,
      "chip": "ym2612"
    },
    {
      "channel": 1,
      "note": 78,
      "start": 63.8449,
      "duration": 0.0581,
      "velocity": 92,
      "chip": "ym2612"
    },
    {
      "channel": 2,
      "note": 86,
      "start": 63.8454,
      "duration": 0.0578,
      "velocity": 92,
      "chip": "ym2612"
    },
    {
      "channel": 0,
      "note": 78,
      "start": 63.9225,
      "duration": 0.0585,
      "velocity": 92,
      "chip": "ym2612"
    },
    {
      "channel": 1,
      "note": 86,
      "start": 63.923,
      "duration": 0.0582,
      "velocity": 92,
      "chip": "ym2612"
    },
    {
      "channel": 2,
      "note": 82,
      "start": 63.9236,
      "duration": 0.058,
      "velocity": 92,
      "chip": "ym2612"
    },
    {
      "channel": 0,
      "note": 86,
      "start": 64.0009,
      "duration": 0.0583,
      "velocity": 92,
      "chip": "ym2612"
    },
    {
      "channel": 1,
      "note": 82,
      "start": 64.0016,
      "duration": 0.0579,
      "velocity": 92,
      "chip": "ym2612"
    },
    {
      "channel": 2,
      "note": 78,
      "start": 64.0022,
      "duration": 0.0576,
      "velocity": 92,
      "chip": "ym2612"
    },
    {
      "channel": 3,
      "note": 62,
      "start": 64.0028,
      "duration": 0.9179,
      "velocity": 94,
      "chip": "ym2612"
    },
    {
      "channel": 0,
      "note": 82,
      "start": 64.079,
      "duration": 0.0585,
      "velocity": 92,
      "chip": "ym2612"
    },
    {
      "channel": 1,
      "note": 78,
      "start": 64.0795,
      "duration": 0.0581,
      "velocity": 92,
      "chip": "ym2612"
    },
    {
      "channel": 2,
      "note": 86,
      "start": 64.0801,
      "duration": 0.0579,
      "velocity": 92,
      "chip": "ym2612"
    },
    {
      "channel": 0,
      "note": 78,
      "start": 64.1572,
      "duration": 0.0585,
      "velocity": 92,
      "chip": "ym2612"
    },
    {
      "channel": 1,
      "note": 86,
      "start": 64.1577,
      "duration": 0.0582,
      "velocity": 92,
      "chip": "ym2612"
    },
    {
      "channel": 2,
      "note": 82,
      "start": 64.1583,
      "duration": 0.058,
      "velocity": 92,
      "chip": "ym2612"
    },
    {
      "channel": 4,
      "note": 62,
      "start": 64.1592,
      "duration": 0.9184,
      "velocity": 94,
      "chip": "ym2612"
    },
    {
      "channel": 0,
      "note": 86,
      "start": 64.2356,
      "duration": 0.0583,
      "velocity": 92,
      "chip": "ym2612"
    },
    {
      "channel": 1,
      "note": 82,
      "start": 64.2363,
      "duration": 0.0579,
      "velocity": 92,
      "chip": "ym2612"
    },
    {
      "channel": 2,
      "note": 78,
      "start": 64.237,
      "duration": 0.0575,
      "velocity": 92,
      "chip": "ym2612"
    },
    {
      "channel": 0,
      "note": 82,
      "start": 64.3137,
      "duration": 0.0585,
      "velocity": 92,
      "chip": "ym2612"
    },
    {
      "channel": 1,
      "note": 78,
      "start": 64.3143,
      "duration": 0.0581,
      "velocity": 92,
      "chip": "ym2612"
    },
    {
      "channel": 2,
      "note": 86,
      "start": 64.3148,
      "duration": 0.058,
      "velocity": 92,
      "chip": "ym2612"
    },
    {
      "channel": 0,
      "note": 78,
      "start": 64.392,
      "duration": 0.0585,
      "velocity": 92,
      "chip": "ym2612"
    },
    {
      "channel": 1,
      "note": 86,
      "start": 64.3925,
      "duration": 0.0582,
      "velocity": 92,
      "chip": "ym2612"
    },
    {
      "channel": 2,
      "note": 82,
      "start": 64.393,
      "duration": 0.058,
      "velocity": 92,
      "chip": "ym2612"
    },
    {
      "channel": 0,
      "note": 86,
      "start": 64.4704,
      "duration": 0.0583,
      "velocity": 92,
      "chip": "ym2612"
    },
    {
      "channel": 1,
      "note": 82,
      "start": 64.4711,
      "duration": 0.0578,
      "velocity": 92,
      "chip": "ym2612"
    },
    {
      "channel": 2,
      "note": 78,
      "start": 64.4717,
      "duration": 0.0575,
      "velocity": 92,
      "chip": "ym2612"
    },
    {
      "channel": 0,
      "note": 82,
      "start": 64.5484,
      "duration": 0.0585,
      "velocity": 92,
      "chip": "ym2612"
    },
    {
      "channel": 1,
      "note": 78,
      "start": 64.549,
      "duration": 0.0582,
      "velocity": 92,
      "chip": "ym2612"
    },
    {
      "channel": 2,
      "note": 86,
      "start": 64.5495,
      "duration": 0.058,
      "velocity": 92,
      "chip": "ym2612"
    },
    {
      "channel": 0,
      "note": 78,
      "start": 64.6267,
      "duration": 0.0585,
      "velocity": 92,
      "chip": "ym2612"
    },
    {
      "channel": 1,
      "note": 86,
      "start": 64.6273,
      "duration": 0.0582,
      "velocity": 92,
      "chip": "ym2612"
    },
    {
      "channel": 2,
      "note": 82,
      "start": 64.6278,
      "duration": 0.0579,
      "velocity": 92,
      "chip": "ym2612"
    },
    {
      "channel": 0,
      "note": 86,
      "start": 64.7051,
      "duration": 0.0584,
      "velocity": 92,
      "chip": "ym2612"
    },
    {
      "channel": 1,
      "note": 82,
      "start": 64.7058,
      "duration": 0.058,
      "velocity": 92,
      "chip": "ym2612"
    },
    {
      "channel": 2,
      "note": 78,
      "start": 64.7065,
      "duration": 0.0576,
      "velocity": 92,
      "chip": "ym2612"
    },
    {
      "channel": 0,
      "note": 82,
      "start": 64.7832,
      "duration": 0.0585,
      "velocity": 92,
      "chip": "ym2612"
    },
    {
      "channel": 1,
      "note": 78,
      "start": 64.7837,
      "duration": 0.0583,
      "velocity": 92,
      "chip": "ym2612"
    },
    {
      "channel": 2,
      "note": 86,
      "start": 64.7843,
      "duration": 0.0579,
      "velocity": 92,
      "chip": "ym2612"
    },
    {
      "channel": 0,
      "note": 78,
      "start": 64.8614,
      "duration": 0.0585,
      "velocity": 92,
      "chip": "ym2612"
    },
    {
      "channel": 1,
      "note": 86,
      "start": 64.862,
      "duration": 0.0582,
      "velocity": 92,
      "chip": "ym2612"
    },
    {
      "channel": 2,
      "note": 82,
      "start": 64.8625,
      "duration": 0.058,
      "velocity": 92,
      "chip": "ym2612"
    },
    {
      "channel": 0,
      "note": 86,
      "start": 64.9399,
      "duration": 0.0583,
      "velocity": 92,
      "chip": "ym2612"
    },
    {
      "channel": 1,
      "note": 82,
      "start": 64.9405,
      "duration": 0.0579,
      "velocity": 92,
      "chip": "ym2612"
    },
    {
      "channel": 2,
      "note": 78,
      "start": 64.9412,
      "duration": 0.0575,
      "velocity": 92,
      "chip": "ym2612"
    },
    {
      "channel": 3,
      "note": 60,
      "start": 64.9418,
      "duration": 0.4485,
      "velocity": 94,
      "chip": "ym2612"
    },
    {
      "channel": 0,
      "note": 82,
      "start": 65.0179,
      "duration": 0.0585,
      "velocity": 92,
      "chip": "ym2612"
    },
    {
      "channel": 1,
      "note": 78,
      "start": 65.0185,
      "duration": 0.0582,
      "velocity": 92,
      "chip": "ym2612"
    },
    {
      "channel": 2,
      "note": 86,
      "start": 65.019,
      "duration": 0.058,
      "velocity": 92,
      "chip": "ym2612"
    },
    {
      "channel": 0,
      "note": 78,
      "start": 65.0961,
      "duration": 0.0585,
      "velocity": 92,
      "chip": "ym2612"
    },
    {
      "channel": 1,
      "note": 86,
      "start": 65.0968,
      "duration": 0.0581,
      "velocity": 92,
      "chip": "ym2612"
    },
    {
      "channel": 2,
      "note": 82,
      "start": 65.0973,
      "duration": 0.0579,
      "velocity": 92,
      "chip": "ym2612"
    },
    {
      "channel": 4,
      "note": 60,
      "start": 65.0983,
      "duration": 0.4488,
      "velocity": 94,
      "chip": "ym2612"
    },
    {
      "channel": 0,
      "note": 86,
      "start": 65.1746,
      "duration": 0.0583,
      "velocity": 92,
      "chip": "ym2612"
    },
    {
      "channel": 1,
      "note": 82,
      "start": 65.1753,
      "duration": 0.0579,
      "velocity": 92,
      "chip": "ym2612"
    },
    {
      "channel": 2,
      "note": 78,
      "start": 65.176,
      "duration": 0.0574,
      "velocity": 92,
      "chip": "ym2612"
    },
    {
      "channel": 0,
      "note": 82,
      "start": 65.2527,
      "duration": 0.0585,
      "velocity": 92,
      "chip": "ym2612"
    },
    {
      "channel": 1,
      "note": 78,
      "start": 65.2532,
      "duration": 0.0582,
      "velocity": 92,
      "chip": "ym2612"
    },
    {
      "channel": 2,
      "note": 86,
      "start": 65.2538,
      "duration": 0.058,
      "velocity": 92,
      "chip": "ym2612"
    },
    {
      "channel": 0,
      "note": 78,
      "start": 65.331,
      "duration": 0.0585,
      "velocity": 92,
      "chip": "ym2612"
    },
    {
      "channel": 1,
      "note": 86,
      "start": 65.3315,
      "duration": 0.0582,
      "velocity": 92,
      "chip": "ym2612"
    },
    {
      "channel": 2,
      "note": 82,
      "start": 65.332,
      "duration": 0.0579,
      "velocity": 92,
      "chip": "ym2612"
    },
    {
      "channel": 0,
      "note": 86,
      "start": 65.4093,
      "duration": 0.0583,
      "velocity": 92,
      "chip": "ym2612"
    },
    {
      "channel": 1,
      "note": 82,
      "start": 65.41,
      "duration": 0.0579,
      "velocity": 92,
      "chip": "ym2612"
    },
    {
      "channel": 2,
      "note": 78,
      "start": 65.4107,
      "duration": 0.0576,
      "velocity": 92,
      "chip": "ym2612"
    },
    {
      "channel": 3,
      "note": 66,
      "start": 65.4113,
      "duration": 0.4485,
      "velocity": 94,
      "chip": "ym2612"
    },
    {
      "channel": 0,
      "note": 82,
      "start": 65.4874,
      "duration": 0.0585,
      "velocity": 92,
      "chip": "ym2612"
    },
    {
      "channel": 1,
      "note": 78,
      "start": 65.488,
      "duration": 0.0581,
      "velocity": 92,
      "chip": "ym2612"
    },
    {
      "channel": 2,
      "note": 86,
      "start": 65.4885,
      "duration": 0.0579,
      "velocity": 92,
      "chip": "ym2612"
    },
    {
      "channel": 0,
      "note": 78,
      "start": 65.5657,
      "duration": 0.0585,
      "velocity": 92,
      "chip": "ym2612"
    },
    {
      "channel": 1,
      "note": 86,
      "start": 65.5662,
      "duration": 0.0583,
      "velocity": 92,
      "chip": "ym2612"
    },
    {
      "channel": 2,
      "note": 82,
      "start": 65.5668,
      "duration": 0.058,
      "velocity": 92,
      "chip": "ym2612"
    },
    {
      "channel": 4,
      "note": 66,
      "start": 65.5677,
      "duration": 0.4489,
      "velocity": 94,
      "chip": "ym2612"
    },
    {
      "channel": 0,
      "note": 86,
      "start": 65.6441,
      "duration": 0.0583,
      "velocity": 92,
      "chip": "ym2612"
    },
    {
      "channel": 1,
      "note": 82,
      "start": 65.6448,
      "duration": 0.0579,
      "velocity": 92,
      "chip": "ym2612"
    },
    {
      "channel": 2,
      "note": 78,
      "start": 65.6454,
      "duration": 0.0575,
      "velocity": 92,
      "chip": "ym2612"
    },
    {
      "channel": 0,
      "note": 82,
      "start": 65.7222,
      "duration": 0.0584,
      "velocity": 92,
      "chip": "ym2612"
    },
    {
      "channel": 1,
      "note": 78,
      "start": 65.7227,
      "duration": 0.0581,
      "velocity": 92,
      "chip": "ym2612"
    },
    {
      "channel": 2,
      "note": 86,
      "start": 65.7233,
      "duration": 0.0579,
      "velocity": 92,
      "chip": "ym2612"
    },
    {
      "channel": 0,
      "note": 78,
      "start": 65.8004,
      "duration": 0.0585,
      "velocity": 92,
      "chip": "ym2612"
    },
    {
      "channel": 1,
      "note": 86,
      "start": 65.801,
      "duration": 0.0582,
      "velocity": 92,
      "chip": "ym2612"
    },
    {
      "channel": 2,
      "note": 82,
      "start": 65.8015,
      "duration": 0.058,
      "velocity": 92,
      "chip": "ym2612"
    },
    {
      "channel": 0,
      "note": 86,
      "start": 65.8805,
      "duration": 0.0566,
      "velocity": 92,
      "chip": "ym2612"
    },
    {
      "channel": 1,
      "note": 82,
      "start": 65.8829,
      "duration": 0.0546,
      "velocity": 92,
      "chip": "ym2612"
    },
    {
      "channel": 2,
      "note": 78,
      "start": 65.8851,
      "duration": 0.0525,
      "velocity": 92,
      "chip": "ym2612"
    },
    {
      "channel": 3,
      "note": 62,
      "start": 65.8858,
      "duration": 0.4435,
      "velocity": 94,
      "chip": "ym2612"
    },
    {
      "channel": 0,
      "note": 82,
      "start": 65.9569,
      "duration": 0.0585,
      "velocity": 92,
      "chip": "ym2612"
    },
    {
      "channel": 1,
      "note": 78,
      "start": 65.9575,
      "duration": 0.0582,
      "velocity": 92,
      "chip": "ym2612"
    },
    {
      "channel": 2,
      "note": 86,
      "start": 65.958,
      "duration": 0.058,
      "velocity": 92,
      "chip": "ym2612"
    },
    {
      "channel": 0,
      "note": 78,
      "start": 66.0352,
      "duration": 0.0585,
      "velocity": 92,
      "chip": "ym2612"
    },
    {
      "channel": 1,
      "note": 86,
      "start": 66.0357,
      "duration": 0.0582,
      "velocity": 92,
      "chip": "ym2612"
    },
    {
      "channel": 2,
      "note": 82,
      "start": 66.0363,
      "duration": 0.0579,
      "velocity": 92,
      "chip": "ym2612"
    },
    {
      "channel": 4,
      "note": 62,
      "start": 66.0372,
      "duration": 0.4489,
      "velocity": 94,
      "chip": "ym2612"
    },
    {
      "channel": 0,
      "note": 86,
      "start": 66.1151,
      "duration": 0.0568,
      "velocity": 92,
      "chip": "ym2612"
    },
    {
      "channel": 1,
      "note": 82,
      "start": 66.1173,
      "duration": 0.0549,
      "velocity": 92,
      "chip": "ym2612"
    },
    {
      "channel": 2,
      "note": 78,
      "start": 66.1195,
      "duration": 0.053,
      "velocity": 92,
      "chip": "ym2612"
    },
    {
      "channel": 0,
      "note": 82,
      "start": 66.1917,
      "duration": 0.0585,
      "velocity": 92,
      "chip": "ym2612"
    },
    {
      "channel": 1,
      "note": 78,
      "start": 66.1922,
      "duration": 0.0582,
      "velocity": 92,
      "chip": "ym2612"
    },
    {
      "channel": 2,
      "note": 86,
      "start": 66.1928,
      "duration": 0.0579,
      "velocity": 92,
      "chip": "ym2612"
    },
    {
      "channel": 0,
      "note": 78,
      "start": 66.27,
      "duration": 0.0585,
      "velocity": 92,
      "chip": "ym2612"
    },
    {
      "channel": 1,
      "note": 86,
      "start": 66.2705,
      "duration": 0.0582,
      "velocity": 92,
      "chip": "ym2612"
    },
    {
      "channel": 2,
      "note": 82,
      "start": 66.271,
      "duration": 0.058,
      "velocity": 92,
      "chip": "ym2612"
    },
    {
      "channel": 0,
      "note": 86,
      "start": 66.3498,
      "duration": 0.0568,
      "velocity": 92,
      "chip": "ym2612"
    },
    {
      "channel": 1,
      "note": 82,
      "start": 66.352,
      "duration": 0.0549,
      "velocity": 92,
      "chip": "ym2612"
    },
    {
      "channel": 2,
      "note": 78,
      "start": 66.3542,
      "duration": 0.053,
      "velocity": 92,
      "chip": "ym2612"
    },
    {
      "channel": 3,
      "note": 67,
      "start": 66.3549,
      "duration": 0.4439,
      "velocity": 94,
      "chip": "ym2612"
    },
    {
      "channel": 0,
      "note": 82,
      "start": 66.4264,
      "duration": 0.0585,
      "velocity": 92,
      "chip": "ym2612"
    },
    {
      "channel": 1,
      "note": 78,
      "start": 66.4269,
      "duration": 0.0583,
      "velocity": 92,
      "chip": "ym2612"
    },
    {
      "channel": 2,
      "note": 86,
      "start": 66.4275,
      "duration": 0.058,
      "velocity": 92,
      "chip": "ym2612"
    },
    {
      "channel": 0,
      "note": 78,
      "start": 66.5047,
      "duration": 0.0585,
      "velocity": 92,
      "chip": "ym2612"
    },
    {
      "channel": 1,
      "note": 86,
      "start": 66.5052,
      "duration": 0.0583,
      "velocity": 92,
      "chip": "ym2612"
    },
    {
      "channel": 2,
      "note": 82,
      "start": 66.5058,
      "duration": 0.058,
      "velocity": 92,
      "chip": "ym2612"
    },
    {
      "channel": 4,
      "note": 67,
      "start": 66.5067,
      "duration": 0.4488,
      "velocity": 94,
      "chip": "ym2612"
    },
    {
      "channel": 0,
      "note": 86,
      "start": 66.5846,
      "duration": 0.0568,
      "velocity": 92,
      "chip": "ym2612"
    },
    {
      "channel": 1,
      "note": 82,
      "start": 66.5867,
      "duration": 0.0549,
      "velocity": 92,
      "chip": "ym2612"
    },
    {
      "channel": 2,
      "note": 78,
      "start": 66.589,
      "duration": 0.0529,
      "velocity": 92,
      "chip": "ym2612"
    },
    {
      "channel": 0,
      "note": 82,
      "start": 66.6612,
      "duration": 0.0585,
      "velocity": 92,
      "chip": "ym2612"
    },
    {
      "channel": 1,
      "note": 78,
      "start": 66.6617,
      "duration": 0.0582,
      "velocity": 92,
      "chip": "ym2612"
    },
    {
      "channel": 2,
      "note": 86,
      "start": 66.6622,
      "duration": 0.0579,
      "velocity": 92,
      "chip": "ym2612"
    },
    {
      "channel": 0,
      "note": 78,
      "start": 66.7394,
      "duration": 0.0585,
      "velocity": 92,
      "chip": "ym2612"
    },
    {
      "channel": 1,
      "note": 86,
      "start": 66.7399,
      "duration": 0.0583,
      "velocity": 92,
      "chip": "ym2612"
    },
    {
      "channel": 2,
      "note": 82,
      "start": 66.7405,
      "duration": 0.0579,
      "velocity": 92,
      "chip": "ym2612"
    },
    {
      "channel": 0,
      "note": 81,
      "start": 66.8194,
      "duration": 0.0567,
      "velocity": 92,
      "chip": "ym2612"
    },
    {
      "channel": 1,
      "note": 77,
      "start": 66.8218,
      "duration": 0.0546,
      "velocity": 92,
      "chip": "ym2612"
    },
    {
      "channel": 2,
      "note": 73,
      "start": 66.8241,
      "duration": 0.0526,
      "velocity": 92,
      "chip": "ym2612"
    },
    {
      "channel": 0,
      "note": 77,
      "start": 66.8959,
      "duration": 0.0585,
      "velocity": 92,
      "chip": "ym2612"
    },
    {
      "channel": 1,
      "note": 73,
      "start": 66.8965,
      "duration": 0.0582,
      "velocity": 92,
      "chip": "ym2612"
    },
    {
      "channel": 2,
      "note": 81,
      "start": 66.8971,
      "duration": 0.0579,
      "velocity": 92,
      "chip": "ym2612"
    },
    {
      "channel": 0,
      "note": 73,
      "start": 66.9741,
      "duration": 0.0585,
      "velocity": 92,
      "chip": "ym2612"
    },
    {
      "channel": 1,
      "note": 81,
      "start": 66.9746,
      "duration": 0.0583,
      "velocity": 92,
      "chip": "ym2612"
    },
    {
      "channel": 2,
      "note": 77,
      "start": 66.9752,
      "duration": 0.058,
      "velocity": 92,
      "chip": "ym2612"
    },
    {
      "channel": 0,
      "note": 81,
      "start": 67.0524,
      "duration": 0.0585,
      "velocity": 92,
      "chip": "ym2612"
    },
    {
      "channel": 1,
      "note": 77,
      "start": 67.0529,
      "duration": 0.0582,
      "velocity": 92,
      "chip": "ym2612"
    },
    {
      "channel": 2,
      "note": 73,
      "start": 67.0535,
      "duration": 0.058,
      "velocity": 92,
      "chip": "ym2612"
    },
    {
      "channel": 0,
      "note": 77,
      "start": 67.1307,
      "duration": 0.0584,
      "velocity": 92,
      "chip": "ym2612"
    },
    {
      "channel": 1,
      "note": 73,
      "start": 67.1312,
      "duration": 0.0582,
      "velocity": 92,
      "chip": "ym2612"
    },
    {
      "channel": 2,
      "note": 81,
      "start": 67.1318,
      "duration": 0.0579,
      "velocity": 92,
      "chip": "ym2612"
    },
    {
      "channel": 0,
      "note": 73,
      "start": 67.2089,
      "duration": 0.0585,
      "velocity": 92,
      "chip": "ym2612"
    },
    {
      "channel": 1,
      "note": 81,
      "start": 67.2095,
      "duration": 0.0582,
      "velocity": 92,
      "chip": "ym2612"
    },
    {
      "channel": 2,
      "note": 77,
      "start": 67.21,
      "duration": 0.0579,
      "velocity": 92,
      "chip": "ym2612"
    },
    {
      "channel": 0,
      "note": 81,
      "start": 67.2873,
      "duration": 0.0583,
      "velocity": 92,
      "chip": "ym2612"
    },
    {
      "channel": 1,
      "note": 77,
      "start": 67.2879,
      "duration": 0.058,
      "velocity": 92,
      "chip": "ym2612"
    },
    {
      "channel": 2,
      "note": 73,
      "start": 67.2886,
      "duration": 0.0575,
      "velocity": 92,
      "chip": "ym2612"
    },
    {
      "channel": 0,
      "note": 77,
      "start": 67.3654,
      "duration": 0.0585,
      "velocity": 92,
      "chip": "ym2612"
    },
    {
      "channel": 1,
      "note": 73,
      "start": 67.3659,
      "duration": 0.0582,
      "velocity": 92,
      "chip": "ym2612"
    },
    {
      "channel": 2,
      "note": 81,
      "start": 67.3664,
      "duration": 0.058,
      "velocity": 92,
      "chip": "ym2612"
    },
    {
      "channel": 0,
      "note": 73,
      "start": 67.4439,
      "duration": 0.0583,
      "velocity": 92,
      "chip": "ym2612"
    },
    {
      "channel": 1,
      "note": 81,
      "start": 67.4444,
      "duration": 0.058,
      "velocity": 92,
      "chip": "ym2612"
    },
    {
      "channel": 2,
      "note": 77,
      "start": 67.4449,
      "duration": 0.0577,
      "velocity": 92,
      "chip": "ym2612"
    },
    {
      "channel": 0,
      "note": 81,
      "start": 67.5219,
      "duration": 0.0585,
      "velocity": 92,
      "chip": "ym2612"
    },
    {
      "channel": 1,
      "note": 77,
      "start": 67.5224,
      "duration": 0.0582,
      "velocity": 92,
      "chip": "ym2612"
    },
    {
      "channel": 2,
      "note": 73,
      "start": 67.5229,
      "duration": 0.058,
      "velocity": 92,
      "chip": "ym2612"
    },
    {
      "channel": 0,
      "note": 77,
      "start": 67.6002,
      "duration": 0.0585,
      "velocity": 92,
      "chip": "ym2612"
    },
    {
      "channel": 1,
      "note": 73,
      "start": 67.6007,
      "duration": 0.0582,
      "velocity": 92,
      "chip": "ym2612"
    },
    {
      "channel": 2,
      "note": 81,
      "start": 67.6012,
      "duration": 0.0579,
      "velocity": 92,
      "chip": "ym2612"
    },
    {
      "channel": 0,
      "note": 73,
      "start": 67.6784,
      "duration": 0.0585,
      "velocity": 92,
      "chip": "ym2612"
    },
    {
      "channel": 1,
      "note": 81,
      "start": 67.6789,
      "duration": 0.0582,
      "velocity": 92,
      "chip": "ym2612"
    },
    {
      "channel": 2,
      "note": 77,
      "start": 67.6795,
      "duration": 0.058,
      "velocity": 92,
      "chip": "ym2612"
    },
    {
      "channel": 0,
      "note": 81,
      "start": 67.7568,
      "duration": 0.0583,
      "velocity": 92,
      "chip": "ym2612"
    },
    {
      "channel": 1,
      "note": 77,
      "start": 67.7575,
      "duration": 0.0579,
      "velocity": 92,
      "chip": "ym2612"
    },
    {
      "channel": 2,
      "note": 73,
      "start": 67.7581,
      "duration": 0.0576,
      "velocity": 92,
      "chip": "ym2612"
    },
    {
      "channel": 3,
      "note": 68,
      "start": 67.7588,
      "duration": 0.9179,
      "velocity": 94,
      "chip": "ym2612"
    },
    {
      "channel": 0,
      "note": 77,
      "start": 67.8349,
      "duration": 0.0585,
      "velocity": 92,
      "chip": "ym2612"
    },
    {
      "channel": 1,
      "note": 73,
      "start": 67.8354,
      "duration": 0.0582,
      "velocity": 92,
      "chip": "ym2612"
    },
    {
      "channel": 2,
      "note": 81,
      "start": 67.836,
      "duration": 0.058,
      "velocity": 92,
      "chip": "ym2612"
    },
    {
      "channel": 0,
      "note": 73,
      "start": 67.9131,
      "duration": 0.0585,
      "velocity": 92,
      "chip": "ym2612"
    },
    {
      "channel": 1,
      "note": 81,
      "start": 67.9137,
      "duration": 0.0581,
      "velocity": 92,
      "chip": "ym2612"
    },
    {
      "channel": 2,
      "note": 77,
      "start": 67.9143,
      "duration": 0.0578,
      "velocity": 92,
      "chip": "ym2612"
    },
    {
      "channel": 4,
      "note": 68,
      "start": 67.9152,
      "duration": 0.9183,
      "velocity": 94,
      "chip": "ym2612"
    },
    {
      "channel": 0,
      "note": 81,
      "start": 67.9914,
      "duration": 0.0585,
      "velocity": 92,
      "chip": "ym2612"
    },
    {
      "channel": 1,
      "note": 77,
      "start": 67.9919,
      "duration": 0.0583,
      "velocity": 92,
      "chip": "ym2612"
    },
    {
      "channel": 2,
      "note": 73,
      "start": 67.9925,
      "duration": 0.0579,
      "velocity": 92,
      "chip": "ym2612"
    },
    {
      "channel": 0,
      "note": 77,
      "start": 68.0696,
      "duration": 0.0585,
      "velocity": 92,
      "chip": "ym2612"
    },
    {
      "channel": 1,
      "note": 73,
      "start": 68.0701,
      "duration": 0.0583,
      "velocity": 92,
      "chip": "ym2612"
    },
    {
      "channel": 2,
      "note": 81,
      "start": 68.0707,
      "duration": 0.058,
      "velocity": 92,
      "chip": "ym2612"
    },
    {
      "channel": 0,
      "note": 73,
      "start": 68.1479,
      "duration": 0.0585,
      "velocity": 92,
      "chip": "ym2612"
    },
    {
      "channel": 1,
      "note": 81,
      "start": 68.1484,
      "duration": 0.0582,
      "velocity": 92,
      "chip": "ym2612"
    },
    {
      "channel": 2,
      "note": 77,
      "start": 68.149,
      "duration": 0.0579,
      "velocity": 92,
      "chip": "ym2612"
    },
    {
      "channel": 0,
      "note": 81,
      "start": 68.2263,
      "duration": 0.0583,
      "velocity": 92,
      "chip": "ym2612"
    },
    {
      "channel": 1,
      "note": 77,
      "start": 68.2269,
      "duration": 0.058,
      "velocity": 92,
      "chip": "ym2612"
    },
    {
      "channel": 2,
      "note": 73,
      "start": 68.2276,
      "duration": 0.0575,
      "velocity": 92,
      "chip": "ym2612"
    },
    {
      "channel": 0,
      "note": 77,
      "start": 68.3044,
      "duration": 0.0585,
      "velocity": 92,
      "chip": "ym2612"
    },
    {
      "channel": 1,
      "note": 73,
      "start": 68.3049,
      "duration": 0.0583,
      "velocity": 92,
      "chip": "ym2612"
    },
    {
      "channel": 2,
      "note": 81,
      "start": 68.3054,
      "duration": 0.058,
      "velocity": 92,
      "chip": "ym2612"
    },
    {
      "channel": 0,
      "note": 73,
      "start": 68.3827,
      "duration": 0.0585,
      "velocity": 92,
      "chip": "ym2612"
    },
    {
      "channel": 1,
      "note": 81,
      "start": 68.3832,
      "duration": 0.0582,
      "velocity": 92,
      "chip": "ym2612"
    },
    {
      "channel": 2,
      "note": 77,
      "start": 68.3837,
      "duration": 0.0579,
      "velocity": 92,
      "chip": "ym2612"
    },
    {
      "channel": 0,
      "note": 81,
      "start": 68.4608,
      "duration": 0.0585,
      "velocity": 92,
      "chip": "ym2612"
    },
    {
      "channel": 1,
      "note": 77,
      "start": 68.4614,
      "duration": 0.0582,
      "velocity": 92,
      "chip": "ym2612"
    },
    {
      "channel": 2,
      "note": 73,
      "start": 68.4619,
      "duration": 0.058,
      "velocity": 92,
      "chip": "ym2612"
    },
    {
      "channel": 0,
      "note": 77,
      "start": 68.5391,
      "duration": 0.0585,
      "velocity": 92,
      "chip": "ym2612"
    },
    {
      "channel": 1,
      "note": 73,
      "start": 68.5397,
      "duration": 0.0582,
      "velocity": 92,
      "chip": "ym2612"
    },
    {
      "channel": 2,
      "note": 81,
      "start": 68.5402,
      "duration": 0.0579,
      "velocity": 92,
      "chip": "ym2612"
    },
    {
      "channel": 0,
      "note": 73,
      "start": 68.6174,
      "duration": 0.0585,
      "velocity": 92,
      "chip": "ym2612"
    },
    {
      "channel": 1,
      "note": 81,
      "start": 68.6179,
      "duration": 0.0582,
      "velocity": 92,
      "chip": "ym2612"
    },
    {
      "channel": 2,
      "note": 77,
      "start": 68.6185,
      "duration": 0.0579,
      "velocity": 92,
      "chip": "ym2612"
    },
    {
      "channel": 0,
      "note": 81,
      "start": 68.6958,
      "duration": 0.0583,
      "velocity": 92,
      "chip": "ym2612"
    },
    {
      "channel": 1,
      "note": 77,
      "start": 68.6965,
      "duration": 0.0579,
      "velocity": 92,
      "chip": "ym2612"
    },
    {
      "channel": 2,
      "note": 73,
      "start": 68.6972,
      "duration": 0.0574,
      "velocity": 92,
      "chip": "ym2612"
    },
    {
      "channel": 3,
      "note": 70,
      "start": 68.6978,
      "duration": 0.6049,
      "velocity": 94,
      "chip": "ym2612"
    },
    {
      "channel": 0,
      "note": 77,
      "start": 68.7739,
      "duration": 0.0585,
      "velocity": 92,
      "chip": "ym2612"
    },
    {
      "channel": 1,
      "note": 73,
      "start": 68.7744,
      "duration": 0.0582,
      "velocity": 92,
      "chip": "ym2612"
    },
    {
      "channel": 2,
      "note": 81,
      "start": 68.775,
      "duration": 0.0579,
      "velocity": 92,
      "chip": "ym2612"
    },
    {
      "channel": 0,
      "note": 73,
      "start": 68.8521,
      "duration": 0.0587,
      "velocity": 92,
      "chip": "ym2612"
    },
    {
      "channel": 1,
      "note": 81,
      "start": 68.8526,
      "duration": 0.0584,
      "velocity": 92,
      "chip": "ym2612"
    },
    {
      "channel": 2,
      "note": 77,
      "start": 68.8532,
      "duration": 0.0581,
      "velocity": 92,
      "chip": "ym2612"
    },
    {
      "channel": 4,
      "note": 70,
      "start": 68.8541,
      "duration": 0.6054,
      "velocity": 94,
      "chip": "ym2612"
    },
    {
      "channel": 0,
      "note": 81,
      "start": 68.9304,
      "duration": 0.0585,
      "velocity": 92,
      "chip": "ym2612"
    },
    {
      "channel": 1,
      "note": 77,
      "start": 68.931,
      "duration": 0.0581,
      "velocity": 92,
      "chip": "ym2612"
    },
    {
      "channel": 2,
      "note": 73,
      "start": 68.9315,
      "duration": 0.0579,
      "velocity": 92,
      "chip": "ym2612"
    },
    {
      "channel": 0,
      "note": 77,
      "start": 69.0086,
      "duration": 0.0585,
      "velocity": 92,
      "chip": "ym2612"
    },
    {
      "channel": 1,
      "note": 73,
      "start": 69.0091,
      "duration": 0.0582,
      "velocity": 92,
      "chip": "ym2612"
    },
    {
      "channel": 2,
      "note": 81,
      "start": 69.0097,
      "duration": 0.0579,
      "velocity": 92,
      "chip": "ym2612"
    },
    {
      "channel": 0,
      "note": 73,
      "start": 69.0869,
      "duration": 0.0585,
      "velocity": 92,
      "chip": "ym2612"
    },
    {
      "channel": 1,
      "note": 81,
      "start": 69.0874,
      "duration": 0.0582,
      "velocity": 92,
      "chip": "ym2612"
    },
    {
      "channel": 2,
      "note": 77,
      "start": 69.0879,
      "duration": 0.058,
      "velocity": 92,
      "chip": "ym2612"
    },
    {
      "channel": 0,
      "note": 81,
      "start": 69.1652,
      "duration": 0.0583,
      "velocity": 92,
      "chip": "ym2612"
    },
    {
      "channel": 1,
      "note": 77,
      "start": 69.1659,
      "duration": 0.0579,
      "velocity": 92,
      "chip": "ym2612"
    },
    {
      "channel": 2,
      "note": 73,
      "start": 69.1666,
      "duration": 0.0576,
      "velocity": 92,
      "chip": "ym2612"
    },
    {
      "channel": 0,
      "note": 77,
      "start": 69.2434,
      "duration": 0.0585,
      "velocity": 92,
      "chip": "ym2612"
    },
    {
      "channel": 1,
      "note": 73,
      "start": 69.2439,
      "duration": 0.0582,
      "velocity": 92,
      "chip": "ym2612"
    },
    {
      "channel": 2,
      "note": 81,
      "start": 69.2444,
      "duration": 0.0579,
      "velocity": 92,
      "chip": "ym2612"
    },
    {
      "channel": 0,
      "note": 73,
      "start": 69.3216,
      "duration": 0.0585,
      "velocity": 92,
      "chip": "ym2612"
    },
    {
      "channel": 1,
      "note": 81,
      "start": 69.3221,
      "duration": 0.0583,
      "velocity": 92,
      "chip": "ym2612"
    },
    {
      "channel": 2,
      "note": 77,
      "start": 69.3227,
      "duration": 0.058,
      "velocity": 92,
      "chip": "ym2612"
    },
    {
      "channel": 3,
      "note": 69,
      "start": 69.3233,
      "duration": 0.6054,
      "velocity": 94,
      "chip": "ym2612"
    },
    {
      "channel": 0,
      "note": 81,
      "start": 69.3998,
      "duration": 0.0585,
      "velocity": 92,
      "chip": "ym2612"
    },
    {
      "channel": 1,
      "note": 77,
      "start": 69.4004,
      "duration": 0.0581,
      "velocity": 92,
      "chip": "ym2612"
    },
    {
      "channel": 2,
      "note": 73,
      "start": 69.4009,
      "duration": 0.0579,
      "velocity": 92,
      "chip": "ym2612"
    },
    {
      "channel": 0,
      "note": 77,
      "start": 69.4781,
      "duration": 0.0585,
      "velocity": 92,
      "chip": "ym2612"
    },
    {
      "channel": 1,
      "note": 73,
      "start": 69.4787,
      "duration": 0.0581,
      "velocity": 92,
      "chip": "ym2612"
    },
    {
      "channel": 2,
      "note": 81,
      "start": 69.4792,
      "duration": 0.058,
      "velocity": 92,
      "chip": "ym2612"
    },
    {
      "channel": 4,
      "note": 69,
      "start": 69.4802,
      "duration": 0.6053,
      "velocity": 94,
      "chip": "ym2612"
    },
    {
      "channel": 0,
      "note": 73,
      "start": 69.5563,
      "duration": 0.0585,
      "velocity": 92,
      "chip": "ym2612"
    },
    {
      "channel": 1,
      "note": 81,
      "start": 69.5569,
      "duration": 0.0582,
      "velocity": 92,
      "chip": "ym2612"
    },
    {
      "channel": 2,
      "note": 77,
      "start": 69.5574,
      "duration": 0.058,
      "velocity": 92,
      "chip": "ym2612"
    },
    {
      "channel": 0,
      "note": 81,
      "start": 69.6347,
      "duration": 0.0584,
      "velocity": 92,
      "chip": "ym2612"
    },
    {
      "channel": 1,
      "note": 77,
      "start": 69.6354,
      "duration": 0.058,
      "velocity": 92,
      "chip": "ym2612"
    },
    {
      "channel": 2,
      "note": 73,
      "start": 69.6361,
      "duration": 0.0575,
      "velocity": 92,
      "chip": "ym2612"
    },
    {
      "channel": 0,
      "note": 77,
      "start": 69.7128,
      "duration": 0.0585,
      "velocity": 92,
      "chip": "ym2612"
    },
    {
      "channel": 1,
      "note": 73,
      "start": 69.7134,
      "duration": 0.0581,
      "velocity": 92,
      "chip": "ym2612"
    },
    {
      "channel": 2,
      "note": 81,
      "start": 69.714,
      "duration": 0.0579,
      "velocity": 92,
      "chip": "ym2612"
    },
    {
      "channel": 0,
      "note": 73,
      "start": 69.7911,
      "duration": 0.0584,
      "velocity": 92,
      "chip": "ym2612"
    },
    {
      "channel": 1,
      "note": 81,
      "start": 69.7916,
      "duration": 0.0582,
      "velocity": 92,
      "chip": "ym2612"
    },
    {
      "channel": 2,
      "note": 77,
      "start": 69.7922,
      "duration": 0.0579,
      "velocity": 92,
      "chip": "ym2612"
    },
    {
      "channel": 0,
      "note": 81,
      "start": 69.8693,
      "duration": 0.0585,
      "velocity": 92,
      "chip": "ym2612"
    },
    {
      "channel": 1,
      "note": 77,
      "start": 69.8699,
      "duration": 0.0582,
      "velocity": 92,
      "chip": "ym2612"
    },
    {
      "channel": 2,
      "note": 73,
      "start": 69.8704,
      "duration": 0.058,
      "velocity": 92,
      "chip": "ym2612"
    },
    {
      "channel": 0,
      "note": 77,
      "start": 69.9476,
      "duration": 0.0585,
      "velocity": 92,
      "chip": "ym2612"
    },
    {
      "channel": 1,
      "note": 73,
      "start": 69.9481,
      "duration": 0.0582,
      "velocity": 92,
      "chip": "ym2612"
    },
    {
      "channel": 2,
      "note": 81,
      "start": 69.9487,
      "duration": 0.0579,
      "velocity": 92,
      "chip": "ym2612"
    },
    {
      "channel": 3,
      "note": 65,
      "start": 69.9493,
      "duration": 0.6053,
      "velocity": 94,
      "chip": "ym2612"
    },
    {
      "channel": 0,
      "note": 73,
      "start": 70.0258,
      "duration": 0.0585,
      "velocity": 92,
      "chip": "ym2612"
    },
    {
      "channel": 1,
      "note": 81,
      "start": 70.0264,
      "duration": 0.0582,
      "velocity": 92,
      "chip": "ym2612"
    },
    {
      "channel": 2,
      "note": 77,
      "start": 70.0269,
      "duration": 0.058,
      "velocity": 92,
      "chip": "ym2612"
    },
    {
      "channel": 0,
      "note": 81,
      "start": 70.1042,
      "duration": 0.0583,
      "velocity": 92,
      "chip": "ym2612"
    },
    {
      "channel": 1,
      "note": 77,
      "start": 70.1049,
      "duration": 0.0579,
      "velocity": 92,
      "chip": "ym2612"
    },
    {
      "channel": 2,
      "note": 73,
      "start": 70.1056,
      "duration": 0.0576,
      "velocity": 92,
      "chip": "ym2612"
    },
    {
      "channel": 4,
      "note": 65,
      "start": 70.1065,
      "duration": 0.6049,
      "velocity": 94,
      "chip": "ym2612"
    },
    {
      "channel": 0,
      "note": 77,
      "start": 70.1824,
      "duration": 0.0585,
      "velocity": 92,
      "chip": "ym2612"
    },
    {
      "channel": 1,
      "note": 73,
      "start": 70.1829,
      "duration": 0.0582,
      "velocity": 92,
      "chip": "ym2612"
    },
    {
      "channel": 2,
      "note": 81,
      "start": 70.1834,
      "duration": 0.058,
      "velocity": 92,
      "chip": "ym2612"
    },
    {
      "channel": 0,
      "note": 73,
      "start": 70.2606,
      "duration": 0.0585,
      "velocity": 92,
      "chip": "ym2612"
    },
    {
      "channel": 1,
      "note": 81,
      "start": 70.2611,
      "duration": 0.0582,
      "velocity": 92,
      "chip": "ym2612"
    },
    {
      "channel": 2,
      "note": 77,
      "start": 70.2617,
      "duration": 0.0579,
      "velocity": 92,
      "chip": "ym2612"
    },
    {
      "channel": 0,
      "note": 81,
      "start": 70.3388,
      "duration": 0.0585,
      "velocity": 92,
      "chip": "ym2612"
    },
    {
      "channel": 1,
      "note": 77,
      "start": 70.3393,
      "duration": 0.0583,
      "velocity": 92,
      "chip": "ym2612"
    },
    {
      "channel": 2,
      "note": 73,
      "start": 70.3399,
      "duration": 0.058,
      "velocity": 92,
      "chip": "ym2612"
    },
    {
      "channel": 0,
      "note": 77,
      "start": 70.4171,
      "duration": 0.0585,
      "velocity": 92,
      "chip": "ym2612"
    },
    {
      "channel": 1,
      "note": 73,
      "start": 70.4176,
      "duration": 0.0582,
      "velocity": 92,
      "chip": "ym2612"
    },
    {
      "channel": 2,
      "note": 81,
      "start": 70.4182,
      "duration": 0.058,
      "velocity": 92,
      "chip": "ym2612"
    },
    {
      "channel": 0,
      "note": 73,
      "start": 70.4953,
      "duration": 0.0585,
      "velocity": 92,
      "chip": "ym2612"
    },
    {
      "channel": 1,
      "note": 81,
      "start": 70.4958,
      "duration": 0.0582,
      "velocity": 92,
      "chip": "ym2612"
    },
    {
      "channel": 2,
      "note": 77,
      "start": 70.4964,
      "duration": 0.0579,
      "velocity": 92,
      "chip": "ym2612"
    },
    {
      "channel": 0,
      "note": 81,
      "start": 70.5737,
      "duration": 0.0583,
      "velocity": 92,
      "chip": "ym2612"
    },
    {
      "channel": 1,
      "note": 77,
      "start": 70.5744,
      "duration": 0.0579,
      "velocity": 92,
      "chip": "ym2612"
    },
    {
      "channel": 2,
      "note": 73,
      "start": 70.575,
      "duration": 0.0575,
      "velocity": 92,
      "chip": "ym2612"
    },
    {
      "channel": 3,
      "note": 64,
      "start": 70.5757,
      "duration": 0.9179,
      "velocity": 94,
      "chip": "ym2612"
    },
    {
      "channel": 0,
      "note": 77,
      "start": 70.6518,
      "duration": 0.0585,
      "velocity": 92,
      "chip": "ym2612"
    },
    {
      "channel": 1,
      "note": 73,
      "start": 70.6523,
      "duration": 0.0582,
      "velocity": 92,
      "chip": "ym2612"
    },
    {
      "channel": 2,
      "note": 81,
      "start": 70.6529,
      "duration": 0.0579,
      "velocity": 92,
      "chip": "ym2612"
    },
    {
      "channel": 0,
      "note": 73,
      "start": 70.7301,
      "duration": 0.0584,
      "velocity": 92,
      "chip": "ym2612"
    },
    {
      "channel": 1,
      "note": 81,
      "start": 70.7307,
      "duration": 0.0581,
      "velocity": 92,
      "chip": "ym2612"
    },
    {
      "channel": 2,
      "note": 77,
      "start": 70.7312,
      "duration": 0.0579,
      "velocity": 92,
      "chip": "ym2612"
    },
    {
      "channel": 4,
      "note": 64,
      "start": 70.7322,
      "duration": 0.9183,
      "velocity": 94,
      "chip": "ym2612"
    },
    {
      "channel": 0,
      "note": 81,
      "start": 70.8083,
      "duration": 0.0585,
      "velocity": 92,
      "chip": "ym2612"
    },
    {
      "channel": 1,
      "note": 77,
      "start": 70.8089,
      "duration": 0.0582,
      "velocity": 92,
      "chip": "ym2612"
    },
    {
      "channel": 2,
      "note": 73,
      "start": 70.8094,
      "duration": 0.0579,
      "velocity": 92,
      "chip": "ym2612"
    },
    {
      "channel": 0,
      "note": 77,
      "start": 70.8866,
      "duration": 0.0585,
      "velocity": 92,
      "chip": "ym2612"
    },
    {
      "channel": 1,
      "note": 73,
      "start": 70.8871,
      "duration": 0.0583,
      "velocity": 92,
      "chip": "ym2612"
    },
    {
      "channel": 2,
      "note": 81,
      "start": 70.8876,
      "duration": 0.058,
      "velocity": 92,
      "chip": "ym2612"
    },
    {
      "channel": 0,
      "note": 73,
      "start": 70.9648,
      "duration": 0.0585,
      "velocity": 92,
      "chip": "ym2612"
    },
    {
      "channel": 1,
      "note": 81,
      "start": 70.9654,
      "duration": 0.0582,
      "velocity": 92,
      "chip": "ym2612"
    },
    {
      "channel": 2,
      "note": 77,
      "start": 70.9659,
      "duration": 0.058,
      "velocity": 92,
      "chip": "ym2612"
    },
    {
      "channel": 0,
      "note": 81,
      "start": 71.0432,
      "duration": 0.0584,
      "velocity": 92,
      "chip": "ym2612"
    },
    {
      "channel": 1,
      "note": 77,
      "start": 71.0441,
      "duration": 0.0578,
      "velocity": 92,
      "chip": "ym2612"
    },
    {
      "channel": 2,
      "note": 73,
      "start": 71.0448,
      "duration": 0.0573,
      "velocity": 92,
      "chip": "ym2612"
    },
    {
      "channel": 0,
      "note": 77,
      "start": 71.1213,
      "duration": 0.0585,
      "velocity": 92,
      "chip": "ym2612"
    },
    {
      "channel": 1,
      "note": 73,
      "start": 71.1219,
      "duration": 0.0583,
      "velocity": 92,
      "chip": "ym2612"
    },
    {
      "channel": 2,
      "note": 81,
      "start": 71.1224,
      "duration": 0.058,
      "velocity": 92,
      "chip": "ym2612"
    },
    {
      "channel": 0,
      "note": 73,
      "start": 71.1995,
      "duration": 0.0585,
      "velocity": 92,
      "chip": "ym2612"
    },
    {
      "channel": 1,
      "note": 81,
      "start": 71.2001,
      "duration": 0.0582,
      "velocity": 92,
      "chip": "ym2612"
    },
    {
      "channel": 2,
      "note": 77,
      "start": 71.2006,
      "duration": 0.0579,
      "velocity": 92,
      "chip": "ym2612"
    },
    {
      "channel": 0,
      "note": 81,
      "start": 71.2778,
      "duration": 0.0585,
      "velocity": 92,
      "chip": "ym2612"
    },
    {
      "channel": 1,
      "note": 77,
      "start": 71.2783,
      "duration": 0.0582,
      "velocity": 92,
      "chip": "ym2612"
    },
    {
      "channel": 2,
      "note": 73,
      "start": 71.2788,
      "duration": 0.058,
      "velocity": 92,
      "chip": "ym2612"
    },
    {
      "channel": 0,
      "note": 77,
      "start": 71.356,
      "duration": 0.0585,
      "velocity": 92,
      "chip": "ym2612"
    },
    {
      "channel": 1,
      "note": 73,
      "start": 71.3566,
      "duration": 0.0582,
      "velocity": 92,
      "chip": "ym2612"
    },
    {
      "channel": 2,
      "note": 81,
      "start": 71.3571,
      "duration": 0.0579,
      "velocity": 92,
      "chip": "ym2612"
    },
    {
      "channel": 0,
      "note": 73,
      "start": 71.4343,
      "duration": 0.0585,
      "velocity": 92,
      "chip": "ym2612"
    },
    {
      "channel": 1,
      "note": 81,
      "start": 71.4348,
      "duration": 0.0582,
      "velocity": 92,
      "chip": "ym2612"
    },
    {
      "channel": 2,
      "note": 77,
      "start": 71.4354,
      "duration": 0.0579,
      "velocity": 92,
      "chip": "ym2612"
    },
    {
      "channel": 0,
      "note": 81,
      "start": 71.5127,
      "duration": 0.0583,
      "velocity": 92,
      "chip": "ym2612"
    },
    {
      "channel": 1,
      "note": 77,
      "start": 71.5134,
      "duration": 0.0579,
      "velocity": 92,
      "chip": "ym2612"
    },
    {
      "channel": 2,
      "note": 73,
      "start": 71.5141,
      "duration": 0.0575,
      "velocity": 92,
      "chip": "ym2612"
    },
    {
      "channel": 3,
      "note": 63,
      "start": 71.5147,
      "duration": 0.9179,
      "velocity": 94,
      "chip": "ym2612"
    },
    {
      "channel": 0,
      "note": 77,
      "start": 71.5908,
      "duration": 0.0585,
      "velocity": 92,
      "chip": "ym2612"
    },
    {
      "channel": 1,
      "note": 73,
      "start": 71.5913,
      "duration": 0.0583,
      "velocity": 92,
      "chip": "ym2612"
    },
    {
      "channel": 2,
      "note": 81,
      "start": 71.5919,
      "duration": 0.058,
      "velocity": 92,
      "chip": "ym2612"
    },
    {
      "channel": 0,
      "note": 73,
      "start": 71.669,
      "duration": 0.0585,
      "velocity": 92,
      "chip": "ym2612"
    },
    {
      "channel": 1,
      "note": 81,
      "start": 71.6696,
      "duration": 0.0582,
      "velocity": 92,
      "chip": "ym2612"
    },
    {
      "channel": 2,
      "note": 77,
      "start": 71.6701,
      "duration": 0.0579,
      "velocity": 92,
      "chip": "ym2612"
    },
    {
      "channel": 4,
      "note": 63,
      "start": 71.671,
      "duration": 0.9184,
      "velocity": 94,
      "chip": "ym2612"
    },
    {
      "channel": 0,
      "note": 81,
      "start": 71.7473,
      "duration": 0.0585,
      "velocity": 92,
      "chip": "ym2612"
    },
    {
      "channel": 1,
      "note": 77,
      "start": 71.7479,
      "duration": 0.0582,
      "velocity": 92,
      "chip": "ym2612"
    },
    {
      "channel": 2,
      "note": 73,
      "start": 71.7484,
      "duration": 0.058,
      "velocity": 92,
      "chip": "ym2612"
    },
    {
      "channel": 0,
      "note": 77,
      "start": 71.8255,
      "duration": 0.0585,
      "velocity": 92,
      "chip": "ym2612"
    },
    {
      "channel": 1,
      "note": 73,
      "start": 71.8261,
      "duration": 0.0582,
      "velocity": 92,
      "chip": "ym2612"
    },
    {
      "channel": 2,
      "note": 81,
      "start": 71.8266,
      "duration": 0.058,
      "velocity": 92,
      "chip": "ym2612"
    },
    {
      "channel": 0,
      "note": 73,
      "start": 71.9038,
      "duration": 0.0585,
      "velocity": 92,
      "chip": "ym2612"
    },
    {
      "channel": 1,
      "note": 81,
      "start": 71.9044,
      "duration": 0.0582,
      "velocity": 92,
      "chip": "ym2612"
    },
    {
      "channel": 2,
      "note": 77,
      "start": 71.9049,
      "duration": 0.0579,
      "velocity": 92,
      "chip": "ym2612"
    },
    {
      "channel": 0,
      "note": 81,
      "start": 71.9822,
      "duration": 0.0584,
      "velocity": 92,
      "chip": "ym2612"
    },
    {
      "channel": 1,
      "note": 77,
      "start": 71.9829,
      "duration": 0.058,
      "velocity": 92,
      "chip": "ym2612"
    },
    {
      "channel": 2,
      "note": 73,
      "start": 71.9836,
      "duration": 0.0575,
      "velocity": 92,
      "chip": "ym2612"
    },
    {
      "channel": 0,
      "note": 77,
      "start": 72.0603,
      "duration": 0.0585,
      "velocity": 92,
      "chip": "ym2612"
    },
    {
      "channel": 1,
      "note": 73,
      "start": 72.0608,
      "duration": 0.0582,
      "velocity": 92,
      "chip": "ym2612"
    },
    {
      "channel": 2,
      "note": 81,
      "start": 72.0614,
      "duration": 0.0579,
      "velocity": 92,
      "chip": "ym2612"
    },
    {
      "channel": 0,
      "note": 73,
      "start": 72.1385,
      "duration": 0.0585,
      "velocity": 92,
      "chip": "ym2612"
    },
    {
      "channel": 1,
      "note": 81,
      "start": 72.1391,
      "duration": 0.0582,
      "velocity": 92,
      "chip": "ym2612"
    },
    {
      "channel": 2,
      "note": 77,
      "start": 72.1396,
      "duration": 0.058,
      "velocity": 92,
      "chip": "ym2612"
    },
    {
      "channel": 0,
      "note": 81,
      "start": 72.2168,
      "duration": 0.0585,
      "velocity": 92,
      "chip": "ym2612"
    },
    {
      "channel": 1,
      "note": 77,
      "start": 72.2173,
      "duration": 0.0582,
      "velocity": 92,
      "chip": "ym2612"
    },
    {
      "channel": 2,
      "note": 73,
      "start": 72.2178,
      "duration": 0.058,
      "velocity": 92,
      "chip": "ym2612"
    },
    {
      "channel": 0,
      "note": 77,
      "start": 72.295,
      "duration": 0.0585,
      "velocity": 92,
      "chip": "ym2612"
    },
    {
      "channel": 1,
      "note": 73,
      "start": 72.2956,
      "duration": 0.0582,
      "velocity": 92,
      "chip": "ym2612"
    },
    {
      "channel": 2,
      "note": 81,
      "start": 72.2961,
      "duration": 0.0579,
      "velocity": 92,
      "chip": "ym2612"
    },
    {
      "channel": 0,
      "note": 73,
      "start": 72.3732,
      "duration": 0.0585,
      "velocity": 92,
      "chip": "ym2612"
    },
    {
      "channel": 1,
      "note": 81,
      "start": 72.3738,
      "duration": 0.0582,
      "velocity": 92,
      "chip": "ym2612"
    },
    {
      "channel": 2,
      "note": 77,
      "start": 72.3743,
      "duration": 0.058,
      "velocity": 92,
      "chip": "ym2612"
    },
    {
      "channel": 0,
      "note": 81,
      "start": 72.4533,
      "duration": 0.0567,
      "velocity": 92,
      "chip": "ym2612"
    },
    {
      "channel": 1,
      "note": 77,
      "start": 72.4556,
      "duration": 0.0546,
      "velocity": 92,
      "chip": "ym2612"
    },
    {
      "channel": 2,
      "note": 73,
      "start": 72.4579,
      "duration": 0.0529,
      "velocity": 92,
      "chip": "ym2612"
    },
    {
      "channel": 3,
      "note": 59,
      "start": 72.4585,
      "duration": 0.913,
      "velocity": 94,
      "chip": "ym2612"
    },
    {
      "channel": 0,
      "note": 77,
      "start": 72.5298,
      "duration": 0.0585,
      "velocity": 92,
      "chip": "ym2612"
    },
    {
      "channel": 1,
      "note": 73,
      "start": 72.5304,
      "duration": 0.0581,
      "velocity": 92,
      "chip": "ym2612"
    },
    {
      "channel": 2,
      "note": 81,
      "start": 72.5309,
      "duration": 0.0579,
      "velocity": 92,
      "chip": "ym2612"
    },
    {
      "channel": 0,
      "note": 73,
      "start": 72.608,
      "duration": 0.0585,
      "velocity": 92,
      "chip": "ym2612"
    },
    {
      "channel": 1,
      "note": 81,
      "start": 72.6085,
      "duration": 0.0582,
      "velocity": 92,
      "chip": "ym2612"
    },
    {
      "channel": 2,
      "note": 77,
      "start": 72.6091,
      "duration": 0.0579,
      "velocity": 92,
      "chip": "ym2612"
    },
    {
      "channel": 4,
      "note": 59,
      "start": 72.61,
      "duration": 0.762,
      "velocity": 94,
      "chip": "ym2612"
    },
    {
      "channel": 0,
      "note": 81,
      "start": 72.6879,
      "duration": 0.0568,
      "velocity": 92,
      "chip": "ym2612"
    },
    {
      "channel": 1,
      "note": 77,
      "start": 72.6901,
      "duration": 0.0549,
      "velocity": 92,
      "chip": "ym2612"
    },
    {
      "channel": 2,
      "note": 73,
      "start": 72.6923,
      "duration": 0.053,
      "velocity": 92,
      "chip": "ym2612"
    },
    {
      "channel": 0,
      "note": 77,
      "start": 72.7645,
      "duration": 0.0585,
      "velocity": 92,
      "chip": "ym2612"
    },
    {
      "channel": 1,
      "note": 73,
      "start": 72.765,
      "duration": 0.0582,
      "velocity": 92,
      "chip": "ym2612"
    },
    {
      "channel": 2,
      "note": 81,
      "start": 72.7656,
      "duration": 0.0579,
      "velocity": 92,
      "chip": "ym2612"
    },
    {
      "channel": 0,
      "note": 73,
      "start": 72.8428,
      "duration": 0.0585,
      "velocity": 92,
      "chip": "ym2612"
    },
    {
      "channel": 1,
      "note": 81,
      "start": 72.8433,
      "duration": 0.0583,
      "velocity": 92,
      "chip": "ym2612"
    },
    {
      "channel": 2,
      "note": 77,
      "start": 72.8439,
      "duration": 0.058,
      "velocity": 92,
      "chip": "ym2612"
    },
    {
      "channel": 0,
      "note": 81,
      "start": 72.9227,
      "duration": 0.0568,
      "velocity": 92,
      "chip": "ym2612"
    },
    {
      "channel": 1,
      "note": 77,
      "start": 72.9249,
      "duration": 0.0549,
      "velocity": 92,
      "chip": "ym2612"
    },
    {
      "channel": 2,
      "note": 73,
      "start": 72.9271,
      "duration": 0.053,
      "velocity": 92,
      "chip": "ym2612"
    },
    {
      "channel": 0,
      "note": 77,
      "start": 72.9993,
      "duration": 0.0585,
      "velocity": 92,
      "chip": "ym2612"
    },
    {
      "channel": 1,
      "note": 73,
      "start": 72.9998,
      "duration": 0.0583,
      "velocity": 92,
      "chip": "ym2612"
    },
    {
      "channel": 2,
      "note": 81,
      "start": 73.0003,
      "duration": 0.058,
      "velocity": 92,
      "chip": "ym2612"
    },
    {
      "channel": 0,
      "note": 73,
      "start": 73.0775,
      "duration": 0.0585,
      "velocity": 92,
      "chip": "ym2612"
    },
    {
      "channel": 1,
      "note": 81,
      "start": 73.078,
      "duration": 0.0582,
      "velocity": 92,
      "chip": "ym2612"
    },
    {
      "channel": 2,
      "note": 77,
      "start": 73.0786,
      "duration": 0.058,
      "velocity": 92,
      "chip": "ym2612"
    },
    {
      "channel": 0,
      "note": 81,
      "start": 73.1574,
      "duration": 0.0568,
      "velocity": 92,
      "chip": "ym2612"
    },
    {
      "channel": 1,
      "note": 77,
      "start": 73.1596,
      "duration": 0.0549,
      "velocity": 92,
      "chip": "ym2612"
    },
    {
      "channel": 2,
      "note": 73,
      "start": 73.1617,
      "duration": 0.053,
      "velocity": 92,
      "chip": "ym2612"
    },
    {
      "channel": 0,
      "note": 77,
      "start": 73.234,
      "duration": 0.0585,
      "velocity": 92,
      "chip": "ym2612"
    },
    {
      "channel": 1,
      "note": 73,
      "start": 73.2346,
      "duration": 0.0582,
      "velocity": 92,
      "chip": "ym2612"
    },
    {
      "channel": 2,
      "note": 81,
      "start": 73.2351,
      "duration": 0.058,
      "velocity": 92,
      "chip": "ym2612"
    },
    {
      "channel": 0,
      "note": 73,
      "start": 73.3122,
      "duration": 0.0585,
      "velocity": 92,
      "chip": "ym2612"
    },
    {
      "channel": 1,
      "note": 81,
      "start": 73.3128,
      "duration": 0.0582,
      "velocity": 92,
      "chip": "ym2612"
    },
    {
      "channel": 2,
      "note": 77,
      "start": 73.3134,
      "duration": 0.0579,
      "velocity": 92,
      "chip": "ym2612"
    },
    {
      "channel": 0,
      "note": 81,
      "start": 73.3922,
      "duration": 0.0568,
      "velocity": 92,
      "chip": "ym2612"
    },
    {
      "channel": 1,
      "note": 77,
      "start": 73.3943,
      "duration": 0.055,
      "velocity": 92,
      "chip": "ym2612"
    },
    {
      "channel": 2,
      "note": 73,
      "start": 73.3965,
      "duration": 0.053,
      "velocity": 92,
      "chip": "ym2612"
    },
    {
      "channel": 3,
      "note": 58,
      "start": 73.3972,
      "duration": 0.9134,
      "velocity": 94,
      "chip": "ym2612"
    },
    {
      "channel": 4,
      "note": 58,
      "start": 73.4003,
      "duration": 7.5594,
      "velocity": 94,
      "chip": "ym2612"
    },
    {
      "channel": 0,
      "note": 77,
      "start": 73.4687,
      "duration": 0.0585,
      "velocity": 92,
      "chip": "ym2612"
    },
    {
      "channel": 1,
      "note": 73,
      "start": 73.4693,
      "duration": 0.0582,
      "velocity": 92,
      "chip": "ym2612"
    },
    {
      "channel": 2,
      "note": 81,
      "start": 73.4698,
      "duration": 0.058,
      "velocity": 92,
      "chip": "ym2612"
    },
    {
      "channel": 0,
      "note": 73,
      "start": 73.5471,
      "duration": 0.0585,
      "velocity": 92,
      "chip": "ym2612"
    },
    {
      "channel": 1,
      "note": 81,
      "start": 73.5476,
      "duration": 0.0581,
      "velocity": 92,
      "chip": "ym2612"
    },
    {
      "channel": 2,
      "note": 77,
      "start": 73.5481,
      "duration": 0.0579,
      "velocity": 92,
      "chip": "ym2612"
    },
    {
      "channel": 0,
      "note": 81,
      "start": 73.6269,
      "duration": 0.0569,
      "velocity": 92,
      "chip": "ym2612"
    },
    {
      "channel": 1,
      "note": 77,
      "start": 73.629,
      "duration": 0.0549,
      "velocity": 92,
      "chip": "ym2612"
    },
    {
      "channel": 2,
      "note": 73,
      "start": 73.6313,
      "duration": 0.0529,
      "velocity": 92,
      "chip": "ym2612"
    },
    {
      "channel": 0,
      "note": 77,
      "start": 73.7035,
      "duration": 0.0584,
      "velocity": 92,
      "chip": "ym2612"
    },
    {
      "channel": 1,
      "note": 73,
      "start": 73.704,
      "duration": 0.0582,
      "velocity": 92,
      "chip": "ym2612"
    },
    {
      "channel": 2,
      "note": 81,
      "start": 73.7046,
      "duration": 0.0579,
      "velocity": 92,
      "chip": "ym2612"
    },
    {
      "channel": 0,
      "note": 73,
      "start": 73.7818,
      "duration": 0.0585,
      "velocity": 92,
      "chip": "ym2612"
    },
    {
      "channel": 1,
      "note": 81,
      "start": 73.7823,
      "duration": 0.0582,
      "velocity": 92,
      "chip": "ym2612"
    },
    {
      "channel": 2,
      "note": 77,
      "start": 73.7829,
      "duration": 0.058,
      "velocity": 92,
      "chip": "ym2612"
    },
    {
      "channel": 0,
      "note": 81,
      "start": 73.8617,
      "duration": 0.0568,
      "velocity": 92,
      "chip": "ym2612"
    },
    {
      "channel": 1,
      "note": 77,
      "start": 73.8639,
      "duration": 0.0548,
      "velocity": 92,
      "chip": "ym2612"
    },
    {
      "channel": 2,
      "note": 73,
      "start": 73.8661,
      "duration": 0.0529,
      "velocity": 92,
      "chip": "ym2612"
    },
    {
      "channel": 0,
      "note": 77,
      "start": 73.9383,
      "duration": 0.0585,
      "velocity": 92,
      "chip": "ym2612"
    },
    {
      "channel": 1,
      "note": 73,
      "start": 73.9388,
      "duration": 0.0583,
      "velocity": 92,
      "chip": "ym2612"
    },
    {
      "channel": 2,
      "note": 81,
      "start": 73.9393,
      "duration": 0.058,
      "velocity": 92,
      "chip": "ym2612"
    },
    {
      "channel": 0,
      "note": 73,
      "start": 74.0165,
      "duration": 0.0585,
      "velocity": 92,
      "chip": "ym2612"
    },
    {
      "channel": 1,
      "note": 81,
      "start": 74.017,
      "duration": 0.0582,
      "velocity": 92,
      "chip": "ym2612"
    },
    {
      "channel": 2,
      "note": 77,
      "start": 74.0176,
      "duration": 0.0579,
      "velocity": 92,
      "chip": "ym2612"
    },
    {
      "channel": 0,
      "note": 81,
      "start": 74.0963,
      "duration": 0.0569,
      "velocity": 92,
      "chip": "ym2612"
    },
    {
      "channel": 1,
      "note": 77,
      "start": 74.0986,
      "duration": 0.0549,
      "velocity": 92,
      "chip": "ym2612"
    },
    {
      "channel": 2,
      "note": 73,
      "start": 74.1008,
      "duration": 0.053,
      "velocity": 92,
      "chip": "ym2612"
    },
    {
      "channel": 0,
      "note": 77,
      "start": 74.1729,
      "duration": 0.0585,
      "velocity": 92,
      "chip": "ym2612"
    },
    {
      "channel": 1,
      "note": 73,
      "start": 74.1735,
      "duration": 0.0583,
      "velocity": 92,
      "chip": "ym2612"
    },
    {
      "channel": 2,
      "note": 81,
      "start": 74.174,
      "duration": 0.058,
      "velocity": 92,
      "chip": "ym2612"
    },
    {
      "channel": 0,
      "note": 73,
      "start": 74.2512,
      "duration": 0.0585,
      "velocity": 92,
      "chip": "ym2612"
    },
    {
      "channel": 1,
      "note": 81,
      "start": 74.2517,
      "duration": 0.0582,
      "velocity": 92,
      "chip": "ym2612"
    },
    {
      "channel": 2,
      "note": 77,
      "start": 74.2523,
      "duration": 0.058,
      "velocity": 92,
      "chip": "ym2612"
    }
  ]
}