{
  "track_name": "15 - Mole's Theme",
  "duration_sec": 28.24,
  "sample_rate": 44100,
  "note_count": 645,
  "unique_pitches": 52,
  "pitch_range": 78,
  "avg_note_duration": 0.2127,
  "reconstruction_stats": {
    "notes_reconstructed": 645,
    "keyon_events": 645,
    "keyoff_events": 641,
    "orphan_keyons": 4,
    "unique_pitches": 52,
    "pitch_range": 78,
    "avg_duration_sec": 0.2127
  },
  "metadata": {
    "source": "M\\Marvel Land\\15 - Mole's Theme.vgz"
  },
  "notes": [
    {
      "channel": 0,
      "note": 69,
      "start": 0.0,
      "duration": 0.1401,
      "velocity": 127,
      "chip": "ym2612"
    },
    {
      "channel": 1,
      "note": 57,
      "start": 0.0032,
      "duration": 0.2964,
      "velocity": 102,
      "chip": "ym2612"
    },
    {
      "channel": 3,
      "note": 45,
      "start": 0.007,
      "duration": 0.1342,
      "velocity": 127,
      "chip": "ym2612"
    },
    {
      "channel": 4,
      "note": 45,
      "start": 0.0111,
      "duration": 0.1311,
      "velocity": 127,
      "chip": "ym2612"
    },
    {
      "channel": 0,
      "note": 70,
      "start": 0.1408,
      "duration": 0.1581,
      "velocity": 127,
      "chip": "ym2612"
    },
    {
      "channel": 3,
      "note": 46,
      "start": 0.142,
      "duration": 0.1583,
      "velocity": 127,
      "chip": "ym2612"
    },
    {
      "channel": 4,
      "note": 46,
      "start": 0.1428,
      "duration": 0.1583,
      "velocity": 127,
      "chip": "ym2612"
    },
    {
      "channel": 0,
      "note": 71,
      "start": 0.2995,
      "duration": 0.158,
      "velocity": 127,
      "chip": "ym2612"
    },
    {
      "channel": 1,
      "note": 56,
      "start": 0.3002,
      "duration": 0.3169,
      "velocity": 102,
      "chip": "ym2612"
    },
    {
      "channel": 3,
      "note": 47,
      "start": 0.301,
      "duration": 0.1581,
      "velocity": 127,
      "chip": "ym2612"
    },
    {
      "channel": 4,
      "note": 47,
      "start": 0.3017,
      "duration": 0.158,
      "velocity": 127,
      "chip": "ym2612"
    },
    {
      "channel": 0,
      "note": 72,
      "start": 0.4583,
      "duration": 0.1581,
      "velocity": 127,
      "chip": "ym2612"
    },
    {
      "channel": 3,
      "note": 48,
      "start": 0.4596,
      "duration": 0.1583,
      "velocity": 127,
      "chip": "ym2612"
    },
    {
      "channel": 4,
      "note": 48,
      "start": 0.4603,
      "duration": 0.1583,
      "velocity": 127,
      "chip": "ym2612"
    },
    {
      "channel": 0,
      "note": 73,
      "start": 0.6171,
      "duration": 0.1583,
      "velocity": 127,
      "chip": "ym2612"
    },
    {
      "channel": 1,
      "note": 55,
      "start": 0.6177,
      "duration": 0.317,
      "velocity": 102,
      "chip": "ym2612"
    },
    {
      "channel": 3,
      "note": 49,
      "start": 0.6185,
      "duration": 0.1581,
      "velocity": 127,
      "chip": "ym2612"
    },
    {
      "channel": 4,
      "note": 49,
      "start": 0.6192,
      "duration": 0.1581,
      "velocity": 127,
      "chip": "ym2612"
    },
    {
      "channel": 0,
      "note": 74,
      "start": 0.7761,
      "duration": 0.1578,
      "velocity": 127,
      "chip": "ym2612"
    },
    {
      "channel": 3,
      "note": 50,
      "start": 0.7772,
      "duration": 0.1583,
      "velocity": 127,
      "chip": "ym2612"
    },
    {
      "channel": 4,
      "note": 50,
      "start": 0.7779,
      "duration": 0.1583,
      "velocity": 127,
      "chip": "ym2612"
    },
    {
      "channel": 0,
      "note": 75,
      "start": 0.9346,
      "duration": 0.158,
      "velocity": 127,
      "chip": "ym2612"
    },
    {
      "channel": 1,
      "note": 54,
      "start": 0.9353,
      "duration": 0.3177,
      "velocity": 102,
      "chip": "ym2612"
    },
    {
      "channel": 3,
      "note": 51,
      "start": 0.9361,
      "duration": 0.1577,
      "velocity": 127,
      "chip": "ym2612"
    },
    {
      "channel": 4,
      "note": 51,
      "start": 0.9368,
      "duration": 0.1577,
      "velocity": 127,
      "chip": "ym2612"
    },
    {
      "channel": 0,
      "note": 76,
      "start": 1.0932,
      "duration": 0.1585,
      "velocity": 127,
      "chip": "ym2612"
    },
    {
      "channel": 3,
      "note": 52,
      "start": 1.0943,
      "duration": 0.1599,
      "velocity": 127,
      "chip": "ym2612"
    },
    {
      "channel": 4,
      "note": 52,
      "start": 1.095,
      "duration": 0.1599,
      "velocity": 127,
      "chip": "ym2612"
    },
    {
      "channel": 0,
      "note": 75,
      "start": 1.2525,
      "duration": 1.2761,
      "velocity": 102,
      "chip": "ym2612"
    },
    {
      "channel": 1,
      "note": 51,
      "start": 1.2536,
      "duration": 1.2763,
      "velocity": 102,
      "chip": "ym2612"
    },
    {
      "channel": 3,
      "note": 51,
      "start": 1.2548,
      "duration": 1.2764,
      "velocity": 127,
      "chip": "ym2612"
    },
    {
      "channel": 4,
      "note": 87,
      "start": 1.2555,
      "duration": 1.28,
      "velocity": 127,
      "chip": "ym2612"
    },
    {
      "channel": 2,
      "note": 70,
      "start": 1.574,
      "duration": 0.3124,
      "velocity": 127,
      "chip": "ym2612"
    },
    {
      "channel": 2,
      "note": 70,
      "start": 1.8916,
      "duration": 0.3123,
      "velocity": 127,
      "chip": "ym2612"
    },
    {
      "channel": 2,
      "note": 70,
      "start": 2.2094,
      "duration": 0.3123,
      "velocity": 127,
      "chip": "ym2612"
    },
    {
      "channel": 0,
      "note": 88,
      "start": 2.5293,
      "duration": 0.0716,
      "velocity": 102,
      "chip": "ym2612"
    },
    {
      "channel": 1,
      "note": 52,
      "start": 2.5305,
      "duration": 0.2298,
      "velocity": 102,
      "chip": "ym2612"
    },
    {
      "channel": 3,
      "note": 55,
      "start": 2.5318,
      "duration": 0.1523,
      "velocity": 127,
      "chip": "ym2612"
    },
    {
      "channel": 4,
      "note": 79,
      "start": 2.5361,
      "duration": 0.1487,
      "velocity": 127,
      "chip": "ym2612"
    },
    {
      "channel": 5,
      "note": 88,
      "start": 2.5395,
      "duration": 5.0767,
      "velocity": 101,
      "chip": "ym2612"
    },
    {
      "channel": 2,
      "note": 40,
      "start": 2.5405,
      "duration": 0.1397,
      "velocity": 127,
      "chip": "ym2612"
    },
    {
      "channel": 0,
      "note": 91,
      "start": 2.6015,
      "duration": 0.0815,
      "velocity": 102,
      "chip": "ym2612"
    },
    {
      "channel": 0,
      "note": 94,
      "start": 2.6836,
      "duration": 0.0759,
      "velocity": 102,
      "chip": "ym2612"
    },
    {
      "channel": 3,
      "note": 54,
      "start": 2.6847,
      "duration": 0.1612,
      "velocity": 127,
      "chip": "ym2612"
    },
    {
      "channel": 4,
      "note": 78,
      "start": 2.6854,
      "duration": 0.1613,
      "velocity": 127,
      "chip": "ym2612"
    },
    {
      "channel": 2,
      "note": 40,
      "start": 2.6867,
      "duration": 0.1521,
      "velocity": 127,
      "chip": "ym2612"
    },
    {
      "channel": 0,
      "note": 97,
      "start": 2.7602,
      "duration": 0.0841,
      "velocity": 102,
      "chip": "ym2612"
    },
    {
      "channel": 0,
      "note": 103,
      "start": 2.845,
      "duration": 1.5859,
      "velocity": 127,
      "chip": "ym2612"
    },
    {
      "channel": 1,
      "note": 52,
      "start": 2.8458,
      "duration": 0.2315,
      "velocity": 102,
      "chip": "ym2612"
    },
    {
      "channel": 3,
      "note": 53,
      "start": 2.8465,
      "duration": 0.155,
      "velocity": 127,
      "chip": "ym2612"
    },
    {
      "channel": 4,
      "note": 77,
      "start": 2.8473,
      "duration": 0.155,
      "velocity": 127,
      "chip": "ym2612"
    },
    {
      "channel": 2,
      "note": 40,
      "start": 2.8485,
      "duration": 0.1494,
      "velocity": 127,
      "chip": "ym2612"
    },
    {
      "channel": 3,
      "note": 52,
      "start": 3.0021,
      "duration": 0.1557,
      "velocity": 127,
      "chip": "ym2612"
    },
    {
      "channel": 4,
      "note": 76,
      "start": 3.0028,
      "duration": 0.1595,
      "velocity": 127,
      "chip": "ym2612"
    },
    {
      "channel": 2,
      "note": 76,
      "start": 3.004,
      "duration": 0.1065,
      "velocity": 120,
      "chip": "ym2612"
    },
    {
      "channel": 1,
      "note": 52,
      "start": 3.1575,
      "duration": 0.2375,
      "velocity": 102,
      "chip": "ym2612"
    },
    {
      "channel": 3,
      "note": 55,
      "start": 3.1586,
      "duration": 0.1605,
      "velocity": 127,
      "chip": "ym2612"
    },
    {
      "channel": 4,
      "note": 79,
      "start": 3.1629,
      "duration": 0.157,
      "velocity": 127,
      "chip": "ym2612"
    },
    {
      "channel": 3,
      "note": 54,
      "start": 3.3197,
      "duration": 0.1585,
      "velocity": 127,
      "chip": "ym2612"
    },
    {
      "channel": 4,
      "note": 78,
      "start": 3.3205,
      "duration": 0.1584,
      "velocity": 127,
      "chip": "ym2612"
    },
    {
      "channel": 2,
      "note": 40,
      "start": 3.3217,
      "duration": 0.1521,
      "velocity": 127,
      "chip": "ym2612"
    },
    {
      "channel": 1,
      "note": 52,
      "start": 3.478,
      "duration": 0.0758,
      "velocity": 102,
      "chip": "ym2612"
    },
    {
      "channel": 3,
      "note": 53,
      "start": 3.4788,
      "duration": 0.1579,
      "velocity": 127,
      "chip": "ym2612"
    },
    {
      "channel": 4,
      "note": 77,
      "start": 3.4795,
      "duration": 0.1579,
      "velocity": 127,
      "chip": "ym2612"
    },
    {
      "channel": 2,
      "note": 40,
      "start": 3.4808,
      "duration": 0.1518,
      "velocity": 127,
      "chip": "ym2612"
    },
    {
      "channel": 1,
      "note": 52,
      "start": 3.6364,
      "duration": 0.2348,
      "velocity": 102,
      "chip": "ym2612"
    },
    {
      "channel": 3,
      "note": 52,
      "start": 3.6372,
      "duration": 0.1582,
      "velocity": 127,
      "chip": "ym2612"
    },
    {
      "channel": 4,
      "note": 76,
      "start": 3.6379,
      "duration": 0.1618,
      "velocity": 127,
      "chip": "ym2612"
    },
    {
      "channel": 2,
      "note": 40,
      "start": 3.6393,
      "duration": 0.1522,
      "velocity": 127,
      "chip": "ym2612"
    },
    {
      "channel": 3,
      "note": 55,
      "start": 3.796,
      "duration": 0.1582,
      "velocity": 127,
      "chip": "ym2612"
    },
    {
      "channel": 4,
      "note": 79,
      "start": 3.8003,
      "duration": 0.1546,
      "velocity": 127,
      "chip": "ym2612"
    },
    {
      "channel": 2,
      "note": 40,
      "start": 3.8016,
      "duration": 0.1486,
      "velocity": 127,
      "chip": "ym2612"
    },
    {
      "channel": 1,
      "note": 52,
      "start": 3.9541,
      "duration": 0.076,
      "velocity": 102,
      "chip": "ym2612"
    },
    {
      "channel": 3,
      "note": 54,
      "start": 3.9548,
      "duration": 0.1586,
      "velocity": 127,
      "chip": "ym2612"
    },
    {
      "channel": 4,
      "note": 78,
      "start": 3.9555,
      "duration": 0.1586,
      "velocity": 127,
      "chip": "ym2612"
    },
    {
      "channel": 2,
      "note": 40,
      "start": 3.9569,
      "duration": 0.1525,
      "velocity": 127,
      "chip": "ym2612"
    },
    {
      "channel": 1,
      "note": 52,
      "start": 4.1133,
      "duration": 0.2342,
      "velocity": 102,
      "chip": "ym2612"
    },
    {
      "channel": 3,
      "note": 53,
      "start": 4.114,
      "duration": 0.1573,
      "velocity": 127,
      "chip": "ym2612"
    },
    {
      "channel": 4,
      "note": 77,
      "start": 4.1148,
      "duration": 0.1572,
      "velocity": 127,
      "chip": "ym2612"
    },
    {
      "channel": 2,
      "note": 76,
      "start": 4.116,
      "duration": 0.106,
      "velocity": 120,
      "chip": "ym2612"
    },
    {
      "channel": 3,
      "note": 52,
      "start": 4.2718,
      "duration": 0.1607,
      "velocity": 127,
      "chip": "ym2612"
    },
    {
      "channel": 4,
      "note": 76,
      "start": 4.2726,
      "duration": 0.1642,
      "velocity": 127,
      "chip": "ym2612"
    },
    {
      "channel": 2,
      "note": 76,
      "start": 4.2738,
      "duration": 0.1067,
      "velocity": 120,
      "chip": "ym2612"
    },
    {
      "channel": 0,
      "note": 38,
      "start": 4.4315,
      "duration": 0.0743,
      "velocity": 127,
      "chip": "ym2612"
    },
    {
      "channel": 1,
      "note": 52,
      "start": 4.4323,
      "duration": 0.233,
      "velocity": 102,
      "chip": "ym2612"
    },
    {
      "channel": 3,
      "note": 55,
      "start": 4.4331,
      "duration": 0.1532,
      "velocity": 127,
      "chip": "ym2612"
    },
    {
      "channel": 4,
      "note": 79,
      "start": 4.4375,
      "duration": 0.1496,
      "velocity": 127,
      "chip": "ym2612"
    },
    {
      "channel": 0,
      "note": 38,
      "start": 4.5065,
      "duration": 0.0787,
      "velocity": 127,
      "chip": "ym2612"
    },
    {
      "channel": 0,
      "note": 38,
      "start": 4.5858,
      "duration": 0.0788,
      "velocity": 127,
      "chip": "ym2612"
    },
    {
      "channel": 3,
      "note": 54,
      "start": 4.5869,
      "duration": 0.1592,
      "velocity": 127,
      "chip": "ym2612"
    },
    {
      "channel": 4,
      "note": 78,
      "start": 4.5876,
      "duration": 0.1592,
      "velocity": 127,
      "chip": "ym2612"
    },
    {
      "channel": 0,
      "note": 38,
      "start": 4.6652,
      "duration": 0.0794,
      "velocity": 127,
      "chip": "ym2612"
    },
    {
      "channel": 0,
      "note": 32,
      "start": 4.7452,
      "duration": 0.0781,
      "velocity": 127,
      "chip": "ym2612"
    },
    {
      "channel": 1,
      "note": 52,
      "start": 4.7459,
      "duration": 0.2365,
      "velocity": 102,
      "chip": "ym2612"
    },
    {
      "channel": 3,
      "note": 53,
      "start": 4.7467,
      "duration": 0.1573,
      "velocity": 127,
      "chip": "ym2612"
    },
    {
      "channel": 4,
      "note": 77,
      "start": 4.7474,
      "duration": 0.1573,
      "velocity": 127,
      "chip": "ym2612"
    },
    {
      "channel": 0,
      "note": 32,
      "start": 4.8239,
      "duration": 0.0789,
      "velocity": 127,
      "chip": "ym2612"
    },
    {
      "channel": 0,
      "note": 26,
      "start": 4.9035,
      "duration": 0.1613,
      "velocity": 127,
      "chip": "ym2612"
    },
    {
      "channel": 3,
      "note": 52,
      "start": 4.9046,
      "duration": 0.1615,
      "velocity": 127,
      "chip": "ym2612"
    },
    {
      "channel": 4,
      "note": 76,
      "start": 4.9053,
      "duration": 0.1651,
      "velocity": 127,
      "chip": "ym2612"
    },
    {
      "channel": 1,
      "note": 52,
      "start": 5.0658,
      "duration": 0.2338,
      "velocity": 102,
      "chip": "ym2612"
    },
    {
      "channel": 3,
      "note": 55,
      "start": 5.0666,
      "duration": 0.1568,
      "velocity": 127,
      "chip": "ym2612"
    },
    {
      "channel": 4,
      "note": 79,
      "start": 5.0709,
      "duration": 0.1532,
      "velocity": 127,
      "chip": "ym2612"
    },
    {
      "channel": 2,
      "note": 40,
      "start": 5.0724,
      "duration": 0.1477,
      "velocity": 127,
      "chip": "ym2612"
    },
    {
      "channel": 3,
      "note": 54,
      "start": 5.224,
      "duration": 0.1585,
      "velocity": 127,
      "chip": "ym2612"
    },
    {
      "channel": 4,
      "note": 78,
      "start": 5.2247,
      "duration": 0.1585,
      "velocity": 127,
      "chip": "ym2612"
    },
    {
      "channel": 2,
      "note": 40,
      "start": 5.2263,
      "duration": 0.1526,
      "velocity": 127,
      "chip": "ym2612"
    },
    {
      "channel": 1,
      "note": 52,
      "start": 5.3824,
      "duration": 0.2348,
      "velocity": 102,
      "chip": "ym2612"
    },
    {
      "channel": 3,
      "note": 53,
      "start": 5.3831,
      "duration": 0.1583,
      "velocity": 127,
      "chip": "ym2612"
    },
    {
      "channel": 4,
      "note": 77,
      "start": 5.3838,
      "duration": 0.1585,
      "velocity": 127,
      "chip": "ym2612"
    },
    {
      "channel": 2,
      "note": 40,
      "start": 5.3851,
      "duration": 0.153,
      "velocity": 127,
      "chip": "ym2612"
    },
    {
      "channel": 3,
      "note": 52,
      "start": 5.5422,
      "duration": 0.1554,
      "velocity": 127,
      "chip": "ym2612"
    },
    {
      "channel": 4,
      "note": 76,
      "start": 5.5429,
      "duration": 0.1589,
      "velocity": 127,
      "chip": "ym2612"
    },
    {
      "channel": 2,
      "note": 76,
      "start": 5.5441,
      "duration": 0.1059,
      "velocity": 120,
      "chip": "ym2612"
    },
    {
      "channel": 1,
      "note": 52,
      "start": 5.6973,
      "duration": 0.2373,
      "velocity": 102,
      "chip": "ym2612"
    },
    {
      "channel": 3,
      "note": 55,
      "start": 5.6981,
      "duration": 0.161,
      "velocity": 127,
      "chip": "ym2612"
    },
    {
      "channel": 4,
      "note": 79,
      "start": 5.7025,
      "duration": 0.1574,
      "velocity": 127,
      "chip": "ym2612"
    },
    {
      "channel": 3,
      "note": 54,
      "start": 5.8597,
      "duration": 0.1579,
      "velocity": 127,
      "chip": "ym2612"
    },
    {
      "channel": 4,
      "note": 78,
      "start": 5.8604,
      "duration": 0.1579,
      "velocity": 127,
      "chip": "ym2612"
    },
    {
      "channel": 2,
      "note": 40,
      "start": 5.8617,
      "duration": 0.1522,
      "velocity": 127,
      "chip": "ym2612"
    },
    {
      "channel": 1,
      "note": 52,
      "start": 6.0174,
      "duration": 0.0761,
      "velocity": 102,
      "chip": "ym2612"
    },
    {
      "channel": 3,
      "note": 53,
      "start": 6.0181,
      "duration": 0.1585,
      "velocity": 127,
      "chip": "ym2612"
    },
    {
      "channel": 4,
      "note": 77,
      "start": 6.0189,
      "duration": 0.1585,
      "velocity": 127,
      "chip": "ym2612"
    },
    {
      "channel": 2,
      "note": 40,
      "start": 6.0202,
      "duration": 0.1526,
      "velocity": 127,
      "chip": "ym2612"
    },
    {
      "channel": 1,
      "note": 52,
      "start": 6.1765,
      "duration": 0.2344,
      "velocity": 102,
      "chip": "ym2612"
    },
    {
      "channel": 3,
      "note": 52,
      "start": 6.1772,
      "duration": 0.1576,
      "velocity": 127,
      "chip": "ym2612"
    },
    {
      "channel": 4,
      "note": 76,
      "start": 6.1779,
      "duration": 0.1612,
      "velocity": 127,
      "chip": "ym2612"
    },
    {
      "channel": 2,
      "note": 40,
      "start": 6.1793,
      "duration": 0.1522,
      "velocity": 127,
      "chip": "ym2612"
    },
    {
      "channel": 3,
      "note": 55,
      "start": 6.3354,
      "duration": 0.1587,
      "velocity": 127,
      "chip": "ym2612"
    },
    {
      "channel": 4,
      "note": 79,
      "start": 6.3398,
      "duration": 0.1551,
      "velocity": 127,
      "chip": "ym2612"
    },
    {
      "channel": 2,
      "note": 40,
      "start": 6.341,
      "duration": 0.1493,
      "velocity": 127,
      "chip": "ym2612"
    },
    {
      "channel": 1,
      "note": 52,
      "start": 6.4939,
      "duration": 0.0758,
      "velocity": 102,
      "chip": "ym2612"
    },
    {
      "channel": 3,
      "note": 54,
      "start": 6.4947,
      "duration": 0.1582,
      "velocity": 127,
      "chip": "ym2612"
    },
    {
      "channel": 4,
      "note": 78,
      "start": 6.4954,
      "duration": 0.1583,
      "velocity": 127,
      "chip": "ym2612"
    },
    {
      "channel": 2,
      "note": 40,
      "start": 6.4968,
      "duration": 0.1526,
      "velocity": 127,
      "chip": "ym2612"
    },
    {
      "channel": 1,
      "note": 52,
      "start": 6.6528,
      "duration": 0.2345,
      "velocity": 102,
      "chip": "ym2612"
    },
    {
      "channel": 3,
      "note": 53,
      "start": 6.6536,
      "duration": 0.155,
      "velocity": 127,
      "chip": "ym2612"
    },
    {
      "channel": 4,
      "note": 77,
      "start": 6.6543,
      "duration": 0.1551,
      "velocity": 127,
      "chip": "ym2612"
    },
    {
      "channel": 2,
      "note": 76,
      "start": 6.6555,
      "duration": 0.1062,
      "velocity": 120,
      "chip": "ym2612"
    },
    {
      "channel": 3,
      "note": 52,
      "start": 6.8092,
      "duration": 0.1583,
      "velocity": 127,
      "chip": "ym2612"
    },
    {
      "channel": 4,
      "note": 76,
      "start": 6.8099,
      "duration": 0.1618,
      "velocity": 127,
      "chip": "ym2612"
    },
    {
      "channel": 1,
      "note": 52,
      "start": 6.9672,
      "duration": 0.2375,
      "velocity": 102,
      "chip": "ym2612"
    },
    {
      "channel": 3,
      "note": 55,
      "start": 6.9681,
      "duration": 0.1607,
      "velocity": 127,
      "chip": "ym2612"
    },
    {
      "channel": 4,
      "note": 79,
      "start": 6.9724,
      "duration": 0.1571,
      "velocity": 127,
      "chip": "ym2612"
    },
    {
      "channel": 3,
      "note": 54,
      "start": 7.1293,
      "duration": 0.1556,
      "velocity": 127,
      "chip": "ym2612"
    },
    {
      "channel": 4,
      "note": 78,
      "start": 7.1301,
      "duration": 0.1556,
      "velocity": 127,
      "chip": "ym2612"
    },
    {
      "channel": 2,
      "note": 76,
      "start": 7.1313,
      "duration": 0.1064,
      "velocity": 120,
      "chip": "ym2612"
    },
    {
      "channel": 1,
      "note": 52,
      "start": 7.2848,
      "duration": 0.2374,
      "velocity": 102,
      "chip": "ym2612"
    },
    {
      "channel": 3,
      "note": 53,
      "start": 7.2855,
      "duration": 0.1577,
      "velocity": 127,
      "chip": "ym2612"
    },
    {
      "channel": 4,
      "note": 77,
      "start": 7.2863,
      "duration": 0.1577,
      "velocity": 127,
      "chip": "ym2612"
    },
    {
      "channel": 3,
      "note": 52,
      "start": 7.4438,
      "duration": 0.1672,
      "velocity": 127,
      "chip": "ym2612"
    },
    {
      "channel": 4,
      "note": 76,
      "start": 7.4445,
      "duration": 0.1709,
      "velocity": 127,
      "chip": "ym2612"
    },
    {
      "channel": 0,
      "note": 89,
      "start": 7.6096,
      "duration": 0.1535,
      "velocity": 102,
      "chip": "ym2612"
    },
    {
      "channel": 1,
      "note": 53,
      "start": 7.6105,
      "duration": 0.2295,
      "velocity": 102,
      "chip": "ym2612"
    },
    {
      "channel": 3,
      "note": 56,
      "start": 7.6116,
      "duration": 0.1527,
      "velocity": 127,
      "chip": "ym2612"
    },
    {
      "channel": 4,
      "note": 80,
      "start": 7.6161,
      "duration": 0.149,
      "velocity": 127,
      "chip": "ym2612"
    },
    {
      "channel": 5,
      "note": 89,
      "start": 7.6168,
      "duration": 5.079,
      "velocity": 101,
      "chip": "ym2612"
    },
    {
      "channel": 2,
      "note": 40,
      "start": 7.6178,
      "duration": 0.1424,
      "velocity": 127,
      "chip": "ym2612"
    },
    {
      "channel": 0,
      "note": 94,
      "start": 7.7638,
      "duration": 0.0442,
      "velocity": 102,
      "chip": "ym2612"
    },
    {
      "channel": 3,
      "note": 55,
      "start": 7.7649,
      "duration": 0.1586,
      "velocity": 127,
      "chip": "ym2612"
    },
    {
      "channel": 4,
      "note": 79,
      "start": 7.7656,
      "duration": 0.1586,
      "velocity": 127,
      "chip": "ym2612"
    },
    {
      "channel": 2,
      "note": 40,
      "start": 7.7669,
      "duration": 0.1521,
      "velocity": 127,
      "chip": "ym2612"
    },
    {
      "channel": 0,
      "note": 95,
      "start": 7.809,
      "duration": 0.1129,
      "velocity": 102,
      "chip": "ym2612"
    },
    {
      "channel": 0,
      "note": 93,
      "start": 7.9226,
      "duration": 0.0441,
      "velocity": 102,
      "chip": "ym2612"
    },
    {
      "channel": 1,
      "note": 53,
      "start": 7.9233,
      "duration": 0.2342,
      "velocity": 102,
      "chip": "ym2612"
    },
    {
      "channel": 3,
      "note": 54,
      "start": 7.924,
      "duration": 0.1582,
      "velocity": 127,
      "chip": "ym2612"
    },
    {
      "channel": 4,
      "note": 78,
      "start": 7.9248,
      "duration": 0.1582,
      "velocity": 127,
      "chip": "ym2612"
    },
    {
      "channel": 2,
      "note": 40,
      "start": 7.9263,
      "duration": 0.1519,
      "velocity": 127,
      "chip": "ym2612"
    },
    {
      "channel": 0,
      "note": 92,
      "start": 7.9674,
      "duration": 0.1136,
      "velocity": 102,
      "chip": "ym2612"
    },
    {
      "channel": 0,
      "note": 96,
      "start": 8.0818,
      "duration": 0.044,
      "velocity": 102,
      "chip": "ym2612"
    },
    {
      "channel": 3,
      "note": 53,
      "start": 8.0829,
      "duration": 0.1555,
      "velocity": 127,
      "chip": "ym2612"
    },
    {
      "channel": 4,
      "note": 77,
      "start": 8.0836,
      "duration": 0.1593,
      "velocity": 127,
      "chip": "ym2612"
    },
    {
      "channel": 2,
      "note": 76,
      "start": 8.0848,
      "duration": 0.1057,
      "velocity": 120,
      "chip": "ym2612"
    },
    {
      "channel": 0,
      "note": 98,
      "start": 8.1266,
      "duration": 0.1101,
      "velocity": 102,
      "chip": "ym2612"
    },
    {
      "channel": 0,
      "note": 96,
      "start": 8.2374,
      "duration": 0.0468,
      "velocity": 102,
      "chip": "ym2612"
    },
    {
      "channel": 1,
      "note": 53,
      "start": 8.2382,
      "duration": 0.2375,
      "velocity": 102,
      "chip": "ym2612"
    },
    {
      "channel": 3,
      "note": 56,
      "start": 8.239,
      "duration": 0.1608,
      "velocity": 127,
      "chip": "ym2612"
    },
    {
      "channel": 4,
      "note": 80,
      "start": 8.2436,
      "duration": 0.1569,
      "velocity": 127,
      "chip": "ym2612"
    },
    {
      "channel": 0,
      "note": 95,
      "start": 8.2849,
      "duration": 0.1137,
      "velocity": 102,
      "chip": "ym2612"
    },
    {
      "channel": 0,
      "note": 99,
      "start": 8.3993,
      "duration": 0.0439,
      "velocity": 102,
      "chip": "ym2612"
    },
    {
      "channel": 3,
      "note": 55,
      "start": 8.4004,
      "duration": 0.1583,
      "velocity": 127,
      "chip": "ym2612"
    },
    {
      "channel": 4,
      "note": 79,
      "start": 8.4011,
      "duration": 0.1584,
      "velocity": 127,
      "chip": "ym2612"
    },
    {
      "channel": 2,
      "note": 40,
      "start": 8.4024,
      "duration": 0.1516,
      "velocity": 127,
      "chip": "ym2612"
    },
    {
      "channel": 0,
      "note": 101,
      "start": 8.4439,
      "duration": 0.113,
      "velocity": 102,
      "chip": "ym2612"
    },
    {
      "channel": 0,
      "note": 99,
      "start": 8.5576,
      "duration": 0.0441,
      "velocity": 102,
      "chip": "ym2612"
    },
    {
      "channel": 1,
      "note": 53,
      "start": 8.5586,
      "duration": 0.0752,
      "velocity": 102,
      "chip": "ym2612"
    },
    {
      "channel": 3,
      "note": 54,
      "start": 8.5593,
      "duration": 0.1579,
      "velocity": 127,
      "chip": "ym2612"
    },
    {
      "channel": 4,
      "note": 78,
      "start": 8.56,
      "duration": 0.1579,
      "velocity": 127,
      "chip": "ym2612"
    },
    {
      "channel": 2,
      "note": 40,
      "start": 8.5614,
      "duration": 0.1514,
      "velocity": 127,
      "chip": "ym2612"
    },
    {
      "channel": 0,
      "note": 98,
      "start": 8.6025,
      "duration": 0.1132,
      "velocity": 102,
      "chip": "ym2612"
    },
    {
      "channel": 0,
      "note": 102,
      "start": 8.7163,
      "duration": 0.1608,
      "velocity": 102,
      "chip": "ym2612"
    },
    {
      "channel": 1,
      "note": 53,
      "start": 8.7171,
      "duration": 0.2342,
      "velocity": 102,
      "chip": "ym2612"
    },
    {
      "channel": 3,
      "note": 53,
      "start": 8.7178,
      "duration": 0.1606,
      "velocity": 127,
      "chip": "ym2612"
    },
    {
      "channel": 4,
      "note": 77,
      "start": 8.7185,
      "duration": 0.1643,
      "velocity": 127,
      "chip": "ym2612"
    },
    {
      "channel": 2,
      "note": 40,
      "start": 8.7198,
      "duration": 0.1517,
      "velocity": 127,
      "chip": "ym2612"
    },
    {
      "channel": 0,
      "note": 104,
      "start": 8.8779,
      "duration": 1.4256,
      "velocity": 102,
      "chip": "ym2612"
    },
    {
      "channel": 3,
      "note": 56,
      "start": 8.879,
      "duration": 0.1552,
      "velocity": 127,
      "chip": "ym2612"
    },
    {
      "channel": 4,
      "note": 80,
      "start": 8.8833,
      "duration": 0.1516,
      "velocity": 127,
      "chip": "ym2612"
    },
    {
      "channel": 2,
      "note": 40,
      "start": 8.8847,
      "duration": 0.1456,
      "velocity": 127,
      "chip": "ym2612"
    },
    {
      "channel": 1,
      "note": 53,
      "start": 9.034,
      "duration": 0.076,
      "velocity": 102,
      "chip": "ym2612"
    },
    {
      "channel": 3,
      "note": 55,
      "start": 9.0348,
      "duration": 0.1588,
      "velocity": 127,
      "chip": "ym2612"
    },
    {
      "channel": 4,
      "note": 79,
      "start": 9.0355,
      "duration": 0.1588,
      "velocity": 127,
      "chip": "ym2612"
    },
    {
      "channel": 2,
      "note": 40,
      "start": 9.0368,
      "duration": 0.1526,
      "velocity": 127,
      "chip": "ym2612"
    },
    {
      "channel": 1,
      "note": 53,
      "start": 9.1934,
      "duration": 0.2341,
      "velocity": 102,
      "chip": "ym2612"
    },
    {
      "channel": 3,
      "note": 54,
      "start": 9.1941,
      "duration": 0.1573,
      "velocity": 127,
      "chip": "ym2612"
    },
    {
      "channel": 4,
      "note": 78,
      "start": 9.1949,
      "duration": 0.1573,
      "velocity": 127,
      "chip": "ym2612"
    },
    {
      "channel": 2,
      "note": 76,
      "start": 9.1961,
      "duration": 0.106,
      "velocity": 120,
      "chip": "ym2612"
    },
    {
      "channel": 3,
      "note": 53,
      "start": 9.352,
      "duration": 0.156,
      "velocity": 127,
      "chip": "ym2612"
    },
    {
      "channel": 4,
      "note": 77,
      "start": 9.3527,
      "duration": 0.1598,
      "velocity": 127,
      "chip": "ym2612"
    },
    {
      "channel": 2,
      "note": 76,
      "start": 9.3539,
      "duration": 0.1067,
      "velocity": 120,
      "chip": "ym2612"
    },
    {
      "channel": 1,
      "note": 53,
      "start": 9.5078,
      "duration": 0.2373,
      "velocity": 102,
      "chip": "ym2612"
    },
    {
      "channel": 3,
      "note": 56,
      "start": 9.5088,
      "duration": 0.1573,
      "velocity": 127,
      "chip": "ym2612"
    },
    {
      "channel": 4,
      "note": 80,
      "start": 9.5132,
      "duration": 0.1537,
      "velocity": 127,
      "chip": "ym2612"
    },
    {
      "channel": 3,
      "note": 55,
      "start": 9.6668,
      "duration": 0.1587,
      "velocity": 127,
      "chip": "ym2612"
    },
    {
      "channel": 4,
      "note": 79,
      "start": 9.6675,
      "duration": 0.1587,
      "velocity": 127,
      "chip": "ym2612"
    },
    {
      "channel": 1,
      "note": 53,
      "start": 9.8253,
      "duration": 0.2373,
      "velocity": 102,
      "chip": "ym2612"
    },
    {
      "channel": 3,
      "note": 54,
      "start": 9.8261,
      "duration": 0.1576,
      "velocity": 127,
      "chip": "ym2612"
    },
    {
      "channel": 4,
      "note": 78,
      "start": 9.8268,
      "duration": 0.1576,
      "velocity": 127,
      "chip": "ym2612"
    },
    {
      "channel": 3,
      "note": 53,
      "start": 9.9842,
      "duration": 0.1622,
      "velocity": 127,
      "chip": "ym2612"
    },
    {
      "channel": 4,
      "note": 77,
      "start": 9.985,
      "duration": 0.1657,
      "velocity": 127,
      "chip": "ym2612"
    },
    {
      "channel": 1,
      "note": 53,
      "start": 10.1462,
      "duration": 0.2337,
      "velocity": 102,
      "chip": "ym2612"
    },
    {
      "channel": 3,
      "note": 56,
      "start": 10.147,
      "duration": 0.1571,
      "velocity": 127,
      "chip": "ym2612"
    },
    {
      "channel": 4,
      "note": 80,
      "start": 10.1513,
      "duration": 0.1536,
      "velocity": 127,
      "chip": "ym2612"
    },
    {
      "channel": 2,
      "note": 40,
      "start": 10.1528,
      "duration": 0.1475,
      "velocity": 127,
      "chip": "ym2612"
    },
    {
      "channel": 3,
      "note": 55,
      "start": 10.3047,
      "duration": 0.158,
      "velocity": 127,
      "chip": "ym2612"
    },
    {
      "channel": 4,
      "note": 79,
      "start": 10.3055,
      "duration": 0.158,
      "velocity": 127,
      "chip": "ym2612"
    },
    {
      "channel": 2,
      "note": 40,
      "start": 10.3067,
      "duration": 0.1524,
      "velocity": 127,
      "chip": "ym2612"
    },
    {
      "channel": 1,
      "note": 53,
      "start": 10.4626,
      "duration": 0.2348,
      "velocity": 102,
      "chip": "ym2612"
    },
    {
      "channel": 3,
      "note": 54,
      "start": 10.4633,
      "duration": 0.1582,
      "velocity": 127,
      "chip": "ym2612"
    },
    {
      "channel": 4,
      "note": 78,
      "start": 10.4641,
      "duration": 0.1582,
      "velocity": 127,
      "chip": "ym2612"
    },
    {
      "channel": 2,
      "note": 40,
      "start": 10.4653,
      "duration": 0.1529,
      "velocity": 127,
      "chip": "ym2612"
    },
    {
      "channel": 3,
      "note": 53,
      "start": 10.6221,
      "duration": 0.1555,
      "velocity": 127,
      "chip": "ym2612"
    },
    {
      "channel": 4,
      "note": 77,
      "start": 10.6228,
      "duration": 0.1591,
      "velocity": 127,
      "chip": "ym2612"
    },
    {
      "channel": 2,
      "note": 76,
      "start": 10.624,
      "duration": 0.1062,
      "velocity": 120,
      "chip": "ym2612"
    },
    {
      "channel": 1,
      "note": 53,
      "start": 10.7774,
      "duration": 0.2374,
      "velocity": 102,
      "chip": "ym2612"
    },
    {
      "channel": 3,
      "note": 56,
      "start": 10.7782,
      "duration": 0.1607,
      "velocity": 127,
      "chip": "ym2612"
    },
    {
      "channel": 4,
      "note": 80,
      "start": 10.7826,
      "duration": 0.1571,
      "velocity": 127,
      "chip": "ym2612"
    },
    {
      "channel": 3,
      "note": 55,
      "start": 10.9395,
      "duration": 0.1582,
      "velocity": 127,
      "chip": "ym2612"
    },
    {
      "channel": 4,
      "note": 79,
      "start": 10.9403,
      "duration": 0.1581,
      "velocity": 127,
      "chip": "ym2612"
    },
    {
      "channel": 2,
      "note": 40,
      "start": 10.9415,
      "duration": 0.1525,
      "velocity": 127,
      "chip": "ym2612"
    },
    {
      "channel": 1,
      "note": 53,
      "start": 11.0975,
      "duration": 0.076,
      "velocity": 102,
      "chip": "ym2612"
    },
    {
      "channel": 3,
      "note": 54,
      "start": 11.0983,
      "duration": 0.1582,
      "velocity": 127,
      "chip": "ym2612"
    },
    {
      "channel": 4,
      "note": 78,
      "start": 11.099,
      "duration": 0.1582,
      "velocity": 127,
      "chip": "ym2612"
    },
    {
      "channel": 2,
      "note": 40,
      "start": 11.1003,
      "duration": 0.1525,
      "velocity": 127,
      "chip": "ym2612"
    },
    {
      "channel": 1,
      "note": 53,
      "start": 11.2563,
      "duration": 0.2348,
      "velocity": 102,
      "chip": "ym2612"
    },
    {
      "channel": 3,
      "note": 53,
      "start": 11.2571,
      "duration": 0.1579,
      "velocity": 127,
      "chip": "ym2612"
    },
    {
      "channel": 4,
      "note": 77,
      "start": 11.2578,
      "duration": 0.1615,
      "velocity": 127,
      "chip": "ym2612"
    },
    {
      "channel": 2,
      "note": 40,
      "start": 11.2593,
      "duration": 0.1522,
      "velocity": 127,
      "chip": "ym2612"
    },
    {
      "channel": 3,
      "note": 56,
      "start": 11.4155,
      "duration": 0.1584,
      "velocity": 127,
      "chip": "ym2612"
    },
    {
      "channel": 4,
      "note": 80,
      "start": 11.4198,
      "duration": 0.1548,
      "velocity": 127,
      "chip": "ym2612"
    },
    {
      "channel": 2,
      "note": 40,
      "start": 11.4211,
      "duration": 0.1492,
      "velocity": 127,
      "chip": "ym2612"
    },
    {
      "channel": 1,
      "note": 53,
      "start": 11.5738,
      "duration": 0.0761,
      "velocity": 102,
      "chip": "ym2612"
    },
    {
      "channel": 3,
      "note": 55,
      "start": 11.5745,
      "duration": 0.1586,
      "velocity": 127,
      "chip": "ym2612"
    },
    {
      "channel": 4,
      "note": 79,
      "start": 11.5755,
      "duration": 0.1583,
      "velocity": 127,
      "chip": "ym2612"
    },
    {
      "channel": 2,
      "note": 40,
      "start": 11.5768,
      "duration": 0.1527,
      "velocity": 127,
      "chip": "ym2612"
    },
    {
      "channel": 1,
      "note": 53,
      "start": 11.7329,
      "duration": 0.2344,
      "velocity": 102,
      "chip": "ym2612"
    },
    {
      "channel": 3,
      "note": 54,
      "start": 11.7337,
      "duration": 0.1547,
      "velocity": 127,
      "chip": "ym2612"
    },
    {
      "channel": 4,
      "note": 78,
      "start": 11.7344,
      "duration": 0.1548,
      "velocity": 127,
      "chip": "ym2612"
    },
    {
      "channel": 2,
      "note": 76,
      "start": 11.7356,
      "duration": 0.1068,
      "velocity": 120,
      "chip": "ym2612"
    },
    {
      "channel": 3,
      "note": 53,
      "start": 11.889,
      "duration": 0.1623,
      "velocity": 127,
      "chip": "ym2612"
    },
    {
      "channel": 4,
      "note": 77,
      "start": 11.8898,
      "duration": 0.1658,
      "velocity": 127,
      "chip": "ym2612"
    },
    {
      "channel": 0,
      "note": 77,
      "start": 12.0502,
      "duration": 0.158,
      "velocity": 102,
      "chip": "ym2612"
    },
    {
      "channel": 1,
      "note": 53,
      "start": 12.051,
      "duration": 0.2341,
      "velocity": 102,
      "chip": "ym2612"
    },
    {
      "channel": 3,
      "note": 56,
      "start": 12.0518,
      "duration": 0.1578,
      "velocity": 127,
      "chip": "ym2612"
    },
    {
      "channel": 4,
      "note": 80,
      "start": 12.0562,
      "duration": 0.1542,
      "velocity": 127,
      "chip": "ym2612"
    },
    {
      "channel": 0,
      "note": 78,
      "start": 12.2092,
      "duration": 0.1551,
      "velocity": 102,
      "chip": "ym2612"
    },
    {
      "channel": 3,
      "note": 55,
      "start": 12.2102,
      "duration": 0.1556,
      "velocity": 127,
      "chip": "ym2612"
    },
    {
      "channel": 4,
      "note": 79,
      "start": 12.2109,
      "duration": 0.1557,
      "velocity": 127,
      "chip": "ym2612"
    },
    {
      "channel": 2,
      "note": 76,
      "start": 12.2122,
      "duration": 0.1059,
      "velocity": 120,
      "chip": "ym2612"
    },
    {
      "channel": 0,
      "note": 79,
      "start": 12.3649,
      "duration": 0.1579,
      "velocity": 102,
      "chip": "ym2612"
    },
    {
      "channel": 1,
      "note": 53,
      "start": 12.3657,
      "duration": 0.237,
      "velocity": 102,
      "chip": "ym2612"
    },
    {
      "channel": 3,
      "note": 54,
      "start": 12.3664,
      "duration": 0.1576,
      "velocity": 127,
      "chip": "ym2612"
    },
    {
      "channel": 4,
      "note": 78,
      "start": 12.3672,
      "duration": 0.1576,
      "velocity": 127,
      "chip": "ym2612"
    },
    {
      "channel": 0,
      "note": 80,
      "start": 12.5235,
      "duration": 0.1647,
      "velocity": 102,
      "chip": "ym2612"
    },
    {
      "channel": 3,
      "note": 53,
      "start": 12.5246,
      "duration": 0.1657,
      "velocity": 127,
      "chip": "ym2612"
    },
    {
      "channel": 4,
      "note": 77,
      "start": 12.5256,
      "duration": 0.1695,
      "velocity": 127,
      "chip": "ym2612"
    },
    {
      "channel": 0,
      "note": 88,
      "start": 12.6889,
      "duration": 0.0721,
      "velocity": 102,
      "chip": "ym2612"
    },
    {
      "channel": 1,
      "note": 52,
      "start": 12.69,
      "duration": 0.2306,
      "velocity": 102,
      "chip": "ym2612"
    },
    {
      "channel": 3,
      "note": 55,
      "start": 12.691,
      "duration": 0.1536,
      "velocity": 127,
      "chip": "ym2612"
    },
    {
      "channel": 4,
      "note": 79,
      "start": 12.6957,
      "duration": 0.1496,
      "velocity": 127,
      "chip": "ym2612"
    },
    {
      "channel": 5,
      "note": 88,
      "start": 12.6965,
      "duration": 5.08,
      "velocity": 101,
      "chip": "ym2612"
    },
    {
      "channel": 2,
      "note": 40,
      "start": 12.6975,
      "duration": 0.1429,
      "velocity": 127,
      "chip": "ym2612"
    },
    {
      "channel": 0,
      "note": 91,
      "start": 12.7618,
      "duration": 0.0816,
      "velocity": 102,
      "chip": "ym2612"
    },
    {
      "channel": 0,
      "note": 94,
      "start": 12.8441,
      "duration": 0.0756,
      "velocity": 102,
      "chip": "ym2612"
    },
    {
      "channel": 3,
      "note": 54,
      "start": 12.8452,
      "duration": 0.1608,
      "velocity": 127,
      "chip": "ym2612"
    },
    {
      "channel": 4,
      "note": 78,
      "start": 12.8459,
      "duration": 0.1608,
      "velocity": 127,
      "chip": "ym2612"
    },
    {
      "channel": 2,
      "note": 40,
      "start": 12.8472,
      "duration": 0.1519,
      "velocity": 127,
      "chip": "ym2612"
    },
    {
      "channel": 0,
      "note": 97,
      "start": 12.9204,
      "duration": 0.084,
      "velocity": 102,
      "chip": "ym2612"
    },
    {
      "channel": 0,
      "note": 103,
      "start": 13.0051,
      "duration": 1.5861,
      "velocity": 127,
      "chip": "ym2612"
    },
    {
      "channel": 1,
      "note": 52,
      "start": 13.0059,
      "duration": 0.2318,
      "velocity": 102,
      "chip": "ym2612"
    },
    {
      "channel": 3,
      "note": 53,
      "start": 13.0066,
      "duration": 0.1555,
      "velocity": 127,
      "chip": "ym2612"
    },
    {
      "channel": 4,
      "note": 77,
      "start": 13.0073,
      "duration": 0.1555,
      "velocity": 127,
      "chip": "ym2612"
    },
    {
      "channel": 2,
      "note": 40,
      "start": 13.0088,
      "duration": 0.1495,
      "velocity": 127,
      "chip": "ym2612"
    },
    {
      "channel": 3,
      "note": 52,
      "start": 13.1627,
      "duration": 0.1553,
      "velocity": 127,
      "chip": "ym2612"
    },
    {
      "channel": 4,
      "note": 76,
      "start": 13.1634,
      "duration": 0.1588,
      "velocity": 127,
      "chip": "ym2612"
    },
    {
      "channel": 2,
      "note": 76,
      "start": 13.1646,
      "duration": 0.1059,
      "velocity": 120,
      "chip": "ym2612"
    },
    {
      "channel": 1,
      "note": 52,
      "start": 13.3177,
      "duration": 0.2375,
      "velocity": 102,
      "chip": "ym2612"
    },
    {
      "channel": 3,
      "note": 55,
      "start": 13.3185,
      "duration": 0.1612,
      "velocity": 127,
      "chip": "ym2612"
    },
    {
      "channel": 4,
      "note": 79,
      "start": 13.3228,
      "duration": 0.1576,
      "velocity": 127,
      "chip": "ym2612"
    },
    {
      "channel": 3,
      "note": 54,
      "start": 13.4803,
      "duration": 0.1579,
      "velocity": 127,
      "chip": "ym2612"
    },
    {
      "channel": 4,
      "note": 78,
      "start": 13.481,
      "duration": 0.1579,
      "velocity": 127,
      "chip": "ym2612"
    },
    {
      "channel": 2,
      "note": 40,
      "start": 13.4823,
      "duration": 0.1518,
      "velocity": 127,
      "chip": "ym2612"
    },
    {
      "channel": 1,
      "note": 52,
      "start": 13.638,
      "duration": 0.0761,
      "velocity": 102,
      "chip": "ym2612"
    },
    {
      "channel": 3,
      "note": 53,
      "start": 13.6387,
      "duration": 0.1581,
      "velocity": 127,
      "chip": "ym2612"
    },
    {
      "channel": 4,
      "note": 77,
      "start": 13.6394,
      "duration": 0.1582,
      "velocity": 127,
      "chip": "ym2612"
    },
    {
      "channel": 2,
      "note": 40,
      "start": 13.6408,
      "duration": 0.1521,
      "velocity": 127,
      "chip": "ym2612"
    },
    {
      "channel": 1,
      "note": 52,
      "start": 13.7968,
      "duration": 0.2347,
      "velocity": 102,
      "chip": "ym2612"
    },
    {
      "channel": 3,
      "note": 52,
      "start": 13.7975,
      "duration": 0.1578,
      "velocity": 127,
      "chip": "ym2612"
    },
    {
      "channel": 4,
      "note": 76,
      "start": 13.7982,
      "duration": 0.1617,
      "velocity": 127,
      "chip": "ym2612"
    },
    {
      "channel": 2,
      "note": 40,
      "start": 13.7995,
      "duration": 0.1521,
      "velocity": 127,
      "chip": "ym2612"
    },
    {
      "channel": 3,
      "note": 55,
      "start": 13.9559,
      "duration": 0.1586,
      "velocity": 127,
      "chip": "ym2612"
    },
    {
      "channel": 4,
      "note": 79,
      "start": 13.9604,
      "duration": 0.1548,
      "velocity": 127,
      "chip": "ym2612"
    },
    {
      "channel": 2,
      "note": 40,
      "start": 13.9618,
      "duration": 0.1487,
      "velocity": 127,
      "chip": "ym2612"
    },
    {
      "channel": 1,
      "note": 52,
      "start": 14.1143,
      "duration": 0.076,
      "velocity": 102,
      "chip": "ym2612"
    },
    {
      "channel": 3,
      "note": 54,
      "start": 14.115,
      "duration": 0.1586,
      "velocity": 127,
      "chip": "ym2612"
    },
    {
      "channel": 4,
      "note": 78,
      "start": 14.1158,
      "duration": 0.1586,
      "velocity": 127,
      "chip": "ym2612"
    },
    {
      "channel": 2,
      "note": 40,
      "start": 14.1171,
      "duration": 0.1525,
      "velocity": 127,
      "chip": "ym2612"
    },
    {
      "channel": 1,
      "note": 52,
      "start": 14.2735,
      "duration": 0.2344,
      "velocity": 102,
      "chip": "ym2612"
    },
    {
      "channel": 3,
      "note": 53,
      "start": 14.2742,
      "duration": 0.1572,
      "velocity": 127,
      "chip": "ym2612"
    },
    {
      "channel": 4,
      "note": 77,
      "start": 14.2749,
      "duration": 0.1572,
      "velocity": 127,
      "chip": "ym2612"
    },
    {
      "channel": 2,
      "note": 76,
      "start": 14.2764,
      "duration": 0.1058,
      "velocity": 120,
      "chip": "ym2612"
    },
    {
      "channel": 3,
      "note": 52,
      "start": 14.4321,
      "duration": 0.161,
      "velocity": 127,
      "chip": "ym2612"
    },
    {
      "channel": 4,
      "note": 76,
      "start": 14.4328,
      "duration": 0.1646,
      "velocity": 127,
      "chip": "ym2612"
    },
    {
      "channel": 2,
      "note": 76,
      "start": 14.434,
      "duration": 0.1068,
      "velocity": 120,
      "chip": "ym2612"
    },
    {
      "channel": 0,
      "note": 38,
      "start": 14.5921,
      "duration": 0.0739,
      "velocity": 127,
      "chip": "ym2612"
    },
    {
      "channel": 1,
      "note": 52,
      "start": 14.5929,
      "duration": 0.233,
      "velocity": 102,
      "chip": "ym2612"
    },
    {
      "channel": 3,
      "note": 55,
      "start": 14.5937,
      "duration": 0.1529,
      "velocity": 127,
      "chip": "ym2612"
    },
    {
      "channel": 4,
      "note": 79,
      "start": 14.598,
      "duration": 0.1493,
      "velocity": 127,
      "chip": "ym2612"
    },
    {
      "channel": 0,
      "note": 38,
      "start": 14.6667,
      "duration": 0.0788,
      "velocity": 127,
      "chip": "ym2612"
    },
    {
      "channel": 0,
      "note": 38,
      "start": 14.7461,
      "duration": 0.0788,
      "velocity": 127,
      "chip": "ym2612"
    },
    {
      "channel": 3,
      "note": 54,
      "start": 14.7472,
      "duration": 0.159,
      "velocity": 127,
      "chip": "ym2612"
    },
    {
      "channel": 4,
      "note": 78,
      "start": 14.748,
      "duration": 0.159,
      "velocity": 127,
      "chip": "ym2612"
    },
    {
      "channel": 0,
      "note": 38,
      "start": 14.8258,
      "duration": 0.079,
      "velocity": 127,
      "chip": "ym2612"
    },
    {
      "channel": 0,
      "note": 32,
      "start": 14.9054,
      "duration": 0.0782,
      "velocity": 127,
      "chip": "ym2612"
    },
    {
      "channel": 1,
      "note": 52,
      "start": 14.9061,
      "duration": 0.237,
      "velocity": 102,
      "chip": "ym2612"
    },
    {
      "channel": 3,
      "note": 53,
      "start": 14.9069,
      "duration": 0.1573,
      "velocity": 127,
      "chip": "ym2612"
    },
    {
      "channel": 4,
      "note": 77,
      "start": 14.9076,
      "duration": 0.1573,
      "velocity": 127,
      "chip": "ym2612"
    },
    {
      "channel": 0,
      "note": 32,
      "start": 14.9842,
      "duration": 0.0788,
      "velocity": 127,
      "chip": "ym2612"
    },
    {
      "channel": 0,
      "note": 26,
      "start": 15.0637,
      "duration": 0.1613,
      "velocity": 127,
      "chip": "ym2612"
    },
    {
      "channel": 3,
      "note": 52,
      "start": 15.0648,
      "duration": 0.1617,
      "velocity": 127,
      "chip": "ym2612"
    },
    {
      "channel": 4,
      "note": 76,
      "start": 15.0655,
      "duration": 0.1652,
      "velocity": 127,
      "chip": "ym2612"
    },
    {
      "channel": 1,
      "note": 52,
      "start": 15.2262,
      "duration": 0.2337,
      "velocity": 102,
      "chip": "ym2612"
    },
    {
      "channel": 3,
      "note": 55,
      "start": 15.227,
      "duration": 0.1566,
      "velocity": 127,
      "chip": "ym2612"
    },
    {
      "channel": 4,
      "note": 79,
      "start": 15.2314,
      "duration": 0.153,
      "velocity": 127,
      "chip": "ym2612"
    },
    {
      "channel": 2,
      "note": 40,
      "start": 15.2328,
      "duration": 0.1477,
      "velocity": 127,
      "chip": "ym2612"
    },
    {
      "channel": 3,
      "note": 54,
      "start": 15.3842,
      "duration": 0.1588,
      "velocity": 127,
      "chip": "ym2612"
    },
    {
      "channel": 4,
      "note": 78,
      "start": 15.385,
      "duration": 0.1588,
      "velocity": 127,
      "chip": "ym2612"
    },
    {
      "channel": 2,
      "note": 40,
      "start": 15.3863,
      "duration": 0.153,
      "velocity": 127,
      "chip": "ym2612"
    },
    {
      "channel": 1,
      "note": 52,
      "start": 15.5429,
      "duration": 0.2344,
      "velocity": 102,
      "chip": "ym2612"
    },
    {
      "channel": 3,
      "note": 53,
      "start": 15.5437,
      "duration": 0.1578,
      "velocity": 127,
      "chip": "ym2612"
    },
    {
      "channel": 4,
      "note": 77,
      "start": 15.5444,
      "duration": 0.1578,
      "velocity": 127,
      "chip": "ym2612"
    },
    {
      "channel": 2,
      "note": 40,
      "start": 15.5457,
      "duration": 0.1525,
      "velocity": 127,
      "chip": "ym2612"
    },
    {
      "channel": 3,
      "note": 52,
      "start": 15.7021,
      "duration": 0.1557,
      "velocity": 127,
      "chip": "ym2612"
    },
    {
      "channel": 4,
      "note": 76,
      "start": 15.7028,
      "duration": 0.1595,
      "velocity": 127,
      "chip": "ym2612"
    },
    {
      "channel": 2,
      "note": 76,
      "start": 15.704,
      "duration": 0.1063,
      "velocity": 120,
      "chip": "ym2612"
    },
    {
      "channel": 1,
      "note": 52,
      "start": 15.8575,
      "duration": 0.2373,
      "velocity": 102,
      "chip": "ym2612"
    },
    {
      "channel": 3,
      "note": 55,
      "start": 15.8583,
      "duration": 0.1607,
      "velocity": 127,
      "chip": "ym2612"
    },
    {
      "channel": 4,
      "note": 79,
      "start": 15.8629,
      "duration": 0.1569,
      "velocity": 127,
      "chip": "ym2612"
    },
    {
      "channel": 3,
      "note": 54,
      "start": 16.0197,
      "duration": 0.1583,
      "velocity": 127,
      "chip": "ym2612"
    },
    {
      "channel": 4,
      "note": 78,
      "start": 16.0204,
      "duration": 0.1583,
      "velocity": 127,
      "chip": "ym2612"
    },
    {
      "channel": 2,
      "note": 40,
      "start": 16.0217,
      "duration": 0.1524,
      "velocity": 127,
      "chip": "ym2612"
    },
    {
      "channel": 1,
      "note": 52,
      "start": 16.1779,
      "duration": 0.0758,
      "velocity": 102,
      "chip": "ym2612"
    },
    {
      "channel": 3,
      "note": 53,
      "start": 16.1785,
      "duration": 0.158,
      "velocity": 127,
      "chip": "ym2612"
    },
    {
      "channel": 4,
      "note": 77,
      "start": 16.1793,
      "duration": 0.158,
      "velocity": 127,
      "chip": "ym2612"
    },
    {
      "channel": 2,
      "note": 40,
      "start": 16.1806,
      "duration": 0.1524,
      "velocity": 127,
      "chip": "ym2612"
    },
    {
      "channel": 1,
      "note": 52,
      "start": 16.3364,
      "duration": 0.2348,
      "velocity": 102,
      "chip": "ym2612"
    },
    {
      "channel": 3,
      "note": 52,
      "start": 16.3371,
      "duration": 0.1582,
      "velocity": 127,
      "chip": "ym2612"
    },
    {
      "channel": 4,
      "note": 76,
      "start": 16.3378,
      "duration": 0.1618,
      "velocity": 127,
      "chip": "ym2612"
    },
    {
      "channel": 2,
      "note": 40,
      "start": 16.3392,
      "duration": 0.1528,
      "velocity": 127,
      "chip": "ym2612"
    },
    {
      "channel": 3,
      "note": 55,
      "start": 16.4959,
      "duration": 0.1581,
      "velocity": 127,
      "chip": "ym2612"
    },
    {
      "channel": 4,
      "note": 79,
      "start": 16.5002,
      "duration": 0.1545,
      "velocity": 127,
      "chip": "ym2612"
    },
    {
      "channel": 2,
      "note": 40,
      "start": 16.5015,
      "duration": 0.1489,
      "velocity": 127,
      "chip": "ym2612"
    },
    {
      "channel": 1,
      "note": 52,
      "start": 16.6539,
      "duration": 0.076,
      "velocity": 102,
      "chip": "ym2612"
    },
    {
      "channel": 3,
      "note": 54,
      "start": 16.6546,
      "duration": 0.1586,
      "velocity": 127,
      "chip": "ym2612"
    },
    {
      "channel": 4,
      "note": 78,
      "start": 16.6553,
      "duration": 0.1586,
      "velocity": 127,
      "chip": "ym2612"
    },
    {
      "channel": 2,
      "note": 40,
      "start": 16.6566,
      "duration": 0.1529,
      "velocity": 127,
      "chip": "ym2612"
    },
    {
      "channel": 1,
      "note": 52,
      "start": 16.813,
      "duration": 0.2344,
      "velocity": 102,
      "chip": "ym2612"
    },
    {
      "channel": 3,
      "note": 53,
      "start": 16.8137,
      "duration": 0.1548,
      "velocity": 127,
      "chip": "ym2612"
    },
    {
      "channel": 4,
      "note": 77,
      "start": 16.8145,
      "duration": 0.1549,
      "velocity": 127,
      "chip": "ym2612"
    },
    {
      "channel": 2,
      "note": 76,
      "start": 16.8157,
      "duration": 0.1062,
      "velocity": 120,
      "chip": "ym2612"
    },
    {
      "channel": 3,
      "note": 52,
      "start": 16.9691,
      "duration": 0.1586,
      "velocity": 127,
      "chip": "ym2612"
    },
    {
      "channel": 4,
      "note": 76,
      "start": 16.9699,
      "duration": 0.1622,
      "velocity": 127,
      "chip": "ym2612"
    },
    {
      "channel": 1,
      "note": 52,
      "start": 17.1275,
      "duration": 0.2375,
      "velocity": 102,
      "chip": "ym2612"
    },
    {
      "channel": 3,
      "note": 55,
      "start": 17.1283,
      "duration": 0.1604,
      "velocity": 127,
      "chip": "ym2612"
    },
    {
      "channel": 4,
      "note": 79,
      "start": 17.1326,
      "duration": 0.1568,
      "velocity": 127,
      "chip": "ym2612"
    },
    {
      "channel": 3,
      "note": 54,
      "start": 17.2893,
      "duration": 0.156,
      "velocity": 127,
      "chip": "ym2612"
    },
    {
      "channel": 4,
      "note": 78,
      "start": 17.29,
      "duration": 0.156,
      "velocity": 127,
      "chip": "ym2612"
    },
    {
      "channel": 2,
      "note": 76,
      "start": 17.2912,
      "duration": 0.1066,
      "velocity": 120,
      "chip": "ym2612"
    },
    {
      "channel": 1,
      "note": 52,
      "start": 17.4451,
      "duration": 0.2373,
      "velocity": 102,
      "chip": "ym2612"
    },
    {
      "channel": 3,
      "note": 53,
      "start": 17.4458,
      "duration": 0.1576,
      "velocity": 127,
      "chip": "ym2612"
    },
    {
      "channel": 4,
      "note": 77,
      "start": 17.4466,
      "duration": 0.1576,
      "velocity": 127,
      "chip": "ym2612"
    },
    {
      "channel": 3,
      "note": 52,
      "start": 17.604,
      "duration": 0.167,
      "velocity": 127,
      "chip": "ym2612"
    },
    {
      "channel": 4,
      "note": 76,
      "start": 17.6048,
      "duration": 0.171,
      "velocity": 127,
      "chip": "ym2612"
    },
    {
      "channel": 0,
      "note": 89,
      "start": 17.7696,
      "duration": 0.1537,
      "velocity": 102,
      "chip": "ym2612"
    },
    {
      "channel": 1,
      "note": 53,
      "start": 17.7706,
      "duration": 0.2296,
      "velocity": 102,
      "chip": "ym2612"
    },
    {
      "channel": 3,
      "note": 56,
      "start": 17.7716,
      "duration": 0.1529,
      "velocity": 127,
      "chip": "ym2612"
    },
    {
      "channel": 4,
      "note": 80,
      "start": 17.7764,
      "duration": 0.1491,
      "velocity": 127,
      "chip": "ym2612"
    },
    {
      "channel": 5,
      "note": 89,
      "start": 17.7772,
      "duration": 5.0826,
      "velocity": 101,
      "chip": "ym2612"
    },
    {
      "channel": 2,
      "note": 40,
      "start": 17.7781,
      "duration": 0.1424,
      "velocity": 127,
      "chip": "ym2612"
    },
    {
      "channel": 0,
      "note": 94,
      "start": 17.924,
      "duration": 0.0441,
      "velocity": 102,
      "chip": "ym2612"
    },
    {
      "channel": 3,
      "note": 55,
      "start": 17.9254,
      "duration": 0.1583,
      "velocity": 127,
      "chip": "ym2612"
    },
    {
      "channel": 4,
      "note": 79,
      "start": 17.9261,
      "duration": 0.1583,
      "velocity": 127,
      "chip": "ym2612"
    },
    {
      "channel": 2,
      "note": 40,
      "start": 17.9274,
      "duration": 0.1518,
      "velocity": 127,
      "chip": "ym2612"
    },
    {
      "channel": 0,
      "note": 95,
      "start": 17.9689,
      "duration": 0.1132,
      "velocity": 102,
      "chip": "ym2612"
    },
    {
      "channel": 0,
      "note": 93,
      "start": 18.0828,
      "duration": 0.0442,
      "velocity": 102,
      "chip": "ym2612"
    },
    {
      "channel": 1,
      "note": 53,
      "start": 18.0834,
      "duration": 0.2344,
      "velocity": 102,
      "chip": "ym2612"
    },
    {
      "channel": 3,
      "note": 54,
      "start": 18.0842,
      "duration": 0.1585,
      "velocity": 127,
      "chip": "ym2612"
    },
    {
      "channel": 4,
      "note": 78,
      "start": 18.0849,
      "duration": 0.1585,
      "velocity": 127,
      "chip": "ym2612"
    },
    {
      "channel": 2,
      "note": 40,
      "start": 18.0863,
      "duration": 0.1521,
      "velocity": 127,
      "chip": "ym2612"
    },
    {
      "channel": 0,
      "note": 92,
      "start": 18.1277,
      "duration": 0.1136,
      "velocity": 102,
      "chip": "ym2612"
    },
    {
      "channel": 0,
      "note": 96,
      "start": 18.2422,
      "duration": 0.0434,
      "velocity": 102,
      "chip": "ym2612"
    },
    {
      "channel": 3,
      "note": 53,
      "start": 18.2433,
      "duration": 0.1554,
      "velocity": 127,
      "chip": "ym2612"
    },
    {
      "channel": 4,
      "note": 77,
      "start": 18.244,
      "duration": 0.1589,
      "velocity": 127,
      "chip": "ym2612"
    },
    {
      "channel": 2,
      "note": 76,
      "start": 18.2452,
      "duration": 0.1055,
      "velocity": 120,
      "chip": "ym2612"
    },
    {
      "channel": 0,
      "note": 98,
      "start": 18.2864,
      "duration": 0.1106,
      "velocity": 102,
      "chip": "ym2612"
    },
    {
      "channel": 0,
      "note": 96,
      "start": 18.3976,
      "duration": 0.0469,
      "velocity": 102,
      "chip": "ym2612"
    },
    {
      "channel": 1,
      "note": 53,
      "start": 18.3984,
      "duration": 0.2369,
      "velocity": 102,
      "chip": "ym2612"
    },
    {
      "channel": 3,
      "note": 56,
      "start": 18.3992,
      "duration": 0.1613,
      "velocity": 127,
      "chip": "ym2612"
    },
    {
      "channel": 4,
      "note": 80,
      "start": 18.4036,
      "duration": 0.1577,
      "velocity": 127,
      "chip": "ym2612"
    },
    {
      "channel": 0,
      "note": 95,
      "start": 18.4452,
      "duration": 0.1141,
      "velocity": 102,
      "chip": "ym2612"
    },
    {
      "channel": 0,
      "note": 99,
      "start": 18.56,
      "duration": 0.0433,
      "velocity": 102,
      "chip": "ym2612"
    },
    {
      "channel": 3,
      "note": 55,
      "start": 18.5611,
      "duration": 0.1576,
      "velocity": 127,
      "chip": "ym2612"
    },
    {
      "channel": 4,
      "note": 79,
      "start": 18.5618,
      "duration": 0.1576,
      "velocity": 127,
      "chip": "ym2612"
    },
    {
      "channel": 2,
      "note": 40,
      "start": 18.5631,
      "duration": 0.1511,
      "velocity": 127,
      "chip": "ym2612"
    },
    {
      "channel": 0,
      "note": 101,
      "start": 18.6039,
      "duration": 0.1132,
      "velocity": 102,
      "chip": "ym2612"
    },
    {
      "channel": 0,
      "note": 99,
      "start": 18.7178,
      "duration": 0.0442,
      "velocity": 102,
      "chip": "ym2612"
    },
    {
      "channel": 1,
      "note": 53,
      "start": 18.7186,
      "duration": 0.0755,
      "velocity": 102,
      "chip": "ym2612"
    },
    {
      "channel": 3,
      "note": 54,
      "start": 18.7193,
      "duration": 0.1585,
      "velocity": 127,
      "chip": "ym2612"
    },
    {
      "channel": 4,
      "note": 78,
      "start": 18.72,
      "duration": 0.1585,
      "velocity": 127,
      "chip": "ym2612"
    },
    {
      "channel": 2,
      "note": 40,
      "start": 18.7213,
      "duration": 0.1517,
      "velocity": 127,
      "chip": "ym2612"
    },
    {
      "channel": 0,
      "note": 98,
      "start": 18.7627,
      "duration": 0.1134,
      "velocity": 102,
      "chip": "ym2612"
    },
    {
      "channel": 0,
      "note": 102,
      "start": 18.8768,
      "duration": 0.1602,
      "velocity": 102,
      "chip": "ym2612"
    },
    {
      "channel": 1,
      "note": 53,
      "start": 18.8776,
      "duration": 0.2339,
      "velocity": 102,
      "chip": "ym2612"
    },
    {
      "channel": 3,
      "note": 53,
      "start": 18.8784,
      "duration": 0.16,
      "velocity": 127,
      "chip": "ym2612"
    },
    {
      "channel": 4,
      "note": 77,
      "start": 18.8791,
      "duration": 0.1639,
      "velocity": 127,
      "chip": "ym2612"
    },
    {
      "channel": 2,
      "note": 40,
      "start": 18.8804,
      "duration": 0.1513,
      "velocity": 127,
      "chip": "ym2612"
    },
    {
      "channel": 0,
      "note": 104,
      "start": 19.0378,
      "duration": 1.426,
      "velocity": 102,
      "chip": "ym2612"
    },
    {
      "channel": 3,
      "note": 56,
      "start": 19.039,
      "duration": 0.1556,
      "velocity": 127,
      "chip": "ym2612"
    },
    {
      "channel": 4,
      "note": 80,
      "start": 19.0436,
      "duration": 0.1518,
      "velocity": 127,
      "chip": "ym2612"
    },
    {
      "channel": 2,
      "note": 40,
      "start": 19.0449,
      "duration": 0.1456,
      "velocity": 127,
      "chip": "ym2612"
    },
    {
      "channel": 1,
      "note": 53,
      "start": 19.1945,
      "duration": 0.0758,
      "velocity": 102,
      "chip": "ym2612"
    },
    {
      "channel": 3,
      "note": 55,
      "start": 19.1952,
      "duration": 0.1584,
      "velocity": 127,
      "chip": "ym2612"
    },
    {
      "channel": 4,
      "note": 79,
      "start": 19.1959,
      "duration": 0.1584,
      "velocity": 127,
      "chip": "ym2612"
    },
    {
      "channel": 2,
      "note": 40,
      "start": 19.1973,
      "duration": 0.1524,
      "velocity": 127,
      "chip": "ym2612"
    },
    {
      "channel": 1,
      "note": 53,
      "start": 19.3534,
      "duration": 0.2345,
      "velocity": 102,
      "chip": "ym2612"
    },
    {
      "channel": 3,
      "note": 54,
      "start": 19.3542,
      "duration": 0.1577,
      "velocity": 127,
      "chip": "ym2612"
    },
    {
      "channel": 4,
      "note": 78,
      "start": 19.3549,
      "duration": 0.1578,
      "velocity": 127,
      "chip": "ym2612"
    },
    {
      "channel": 2,
      "note": 76,
      "start": 19.3561,
      "duration": 0.1062,
      "velocity": 120,
      "chip": "ym2612"
    },
    {
      "channel": 3,
      "note": 53,
      "start": 19.5125,
      "duration": 0.1557,
      "velocity": 127,
      "chip": "ym2612"
    },
    {
      "channel": 4,
      "note": 77,
      "start": 19.5132,
      "duration": 0.1593,
      "velocity": 127,
      "chip": "ym2612"
    },
    {
      "channel": 2,
      "note": 76,
      "start": 19.5144,
      "duration": 0.1063,
      "velocity": 120,
      "chip": "ym2612"
    },
    {
      "channel": 1,
      "note": 53,
      "start": 19.6679,
      "duration": 0.2375,
      "velocity": 102,
      "chip": "ym2612"
    },
    {
      "channel": 3,
      "note": 56,
      "start": 19.6688,
      "duration": 0.1578,
      "velocity": 127,
      "chip": "ym2612"
    },
    {
      "channel": 4,
      "note": 80,
      "start": 19.6731,
      "duration": 0.1541,
      "velocity": 127,
      "chip": "ym2612"
    },
    {
      "channel": 3,
      "note": 55,
      "start": 19.8271,
      "duration": 0.1584,
      "velocity": 127,
      "chip": "ym2612"
    },
    {
      "channel": 4,
      "note": 79,
      "start": 19.8278,
      "duration": 0.1584,
      "velocity": 127,
      "chip": "ym2612"
    },
    {
      "channel": 1,
      "note": 53,
      "start": 19.9853,
      "duration": 0.2376,
      "velocity": 102,
      "chip": "ym2612"
    },
    {
      "channel": 3,
      "note": 54,
      "start": 19.9861,
      "duration": 0.1579,
      "velocity": 127,
      "chip": "ym2612"
    },
    {
      "channel": 4,
      "note": 78,
      "start": 19.9868,
      "duration": 0.1579,
      "velocity": 127,
      "chip": "ym2612"
    },
    {
      "channel": 3,
      "note": 53,
      "start": 20.1445,
      "duration": 0.1618,
      "velocity": 127,
      "chip": "ym2612"
    },
    {
      "channel": 4,
      "note": 77,
      "start": 20.1452,
      "duration": 0.1657,
      "velocity": 127,
      "chip": "ym2612"
    },
    {
      "channel": 1,
      "note": 53,
      "start": 20.3062,
      "duration": 0.2338,
      "velocity": 102,
      "chip": "ym2612"
    },
    {
      "channel": 3,
      "note": 56,
      "start": 20.307,
      "duration": 0.1574,
      "velocity": 127,
      "chip": "ym2612"
    },
    {
      "channel": 4,
      "note": 80,
      "start": 20.3116,
      "duration": 0.1536,
      "velocity": 127,
      "chip": "ym2612"
    },
    {
      "channel": 2,
      "note": 40,
      "start": 20.313,
      "duration": 0.1475,
      "velocity": 127,
      "chip": "ym2612"
    },
    {
      "channel": 3,
      "note": 55,
      "start": 20.4649,
      "duration": 0.158,
      "velocity": 127,
      "chip": "ym2612"
    },
    {
      "channel": 4,
      "note": 79,
      "start": 20.4657,
      "duration": 0.1579,
      "velocity": 127,
      "chip": "ym2612"
    },
    {
      "channel": 2,
      "note": 40,
      "start": 20.467,
      "duration": 0.1524,
      "velocity": 127,
      "chip": "ym2612"
    },
    {
      "channel": 1,
      "note": 53,
      "start": 20.6228,
      "duration": 0.2348,
      "velocity": 102,
      "chip": "ym2612"
    },
    {
      "channel": 3,
      "note": 54,
      "start": 20.6235,
      "duration": 0.1581,
      "velocity": 127,
      "chip": "ym2612"
    },
    {
      "channel": 4,
      "note": 78,
      "start": 20.6242,
      "duration": 0.1581,
      "velocity": 127,
      "chip": "ym2612"
    },
    {
      "channel": 2,
      "note": 40,
      "start": 20.6258,
      "duration": 0.1525,
      "velocity": 127,
      "chip": "ym2612"
    },
    {
      "channel": 3,
      "note": 53,
      "start": 20.7822,
      "duration": 0.1557,
      "velocity": 127,
      "chip": "ym2612"
    },
    {
      "channel": 4,
      "note": 77,
      "start": 20.7829,
      "duration": 0.1595,
      "velocity": 127,
      "chip": "ym2612"
    },
    {
      "channel": 2,
      "note": 76,
      "start": 20.7841,
      "duration": 0.1064,
      "velocity": 120,
      "chip": "ym2612"
    },
    {
      "channel": 1,
      "note": 53,
      "start": 20.9377,
      "duration": 0.2376,
      "velocity": 102,
      "chip": "ym2612"
    },
    {
      "channel": 3,
      "note": 56,
      "start": 20.9385,
      "duration": 0.1607,
      "velocity": 127,
      "chip": "ym2612"
    },
    {
      "channel": 4,
      "note": 80,
      "start": 20.9431,
      "duration": 0.1569,
      "velocity": 127,
      "chip": "ym2612"
    },
    {
      "channel": 3,
      "note": 55,
      "start": 21.0998,
      "duration": 0.1581,
      "velocity": 127,
      "chip": "ym2612"
    },
    {
      "channel": 4,
      "note": 79,
      "start": 21.1005,
      "duration": 0.1584,
      "velocity": 127,
      "chip": "ym2612"
    },
    {
      "channel": 2,
      "note": 40,
      "start": 21.1018,
      "duration": 0.1525,
      "velocity": 127,
      "chip": "ym2612"
    },
    {
      "channel": 1,
      "note": 53,
      "start": 21.2578,
      "duration": 0.076,
      "velocity": 102,
      "chip": "ym2612"
    },
    {
      "channel": 3,
      "note": 54,
      "start": 21.2587,
      "duration": 0.1579,
      "velocity": 127,
      "chip": "ym2612"
    },
    {
      "channel": 4,
      "note": 78,
      "start": 21.2595,
      "duration": 0.1579,
      "velocity": 127,
      "chip": "ym2612"
    },
    {
      "channel": 2,
      "note": 40,
      "start": 21.2607,
      "duration": 0.1522,
      "velocity": 127,
      "chip": "ym2612"
    },
    {
      "channel": 1,
      "note": 53,
      "start": 21.4165,
      "duration": 0.2348,
      "velocity": 102,
      "chip": "ym2612"
    },
    {
      "channel": 3,
      "note": 53,
      "start": 21.4172,
      "duration": 0.1582,
      "velocity": 127,
      "chip": "ym2612"
    },
    {
      "channel": 4,
      "note": 77,
      "start": 21.4179,
      "duration": 0.1618,
      "velocity": 127,
      "chip": "ym2612"
    },
    {
      "channel": 2,
      "note": 40,
      "start": 21.4192,
      "duration": 0.1526,
      "velocity": 127,
      "chip": "ym2612"
    },
    {
      "channel": 3,
      "note": 56,
      "start": 21.576,
      "duration": 0.1581,
      "velocity": 127,
      "chip": "ym2612"
    },
    {
      "channel": 4,
      "note": 80,
      "start": 21.5803,
      "duration": 0.1546,
      "velocity": 127,
      "chip": "ym2612"
    },
    {
      "channel": 2,
      "note": 40,
      "start": 21.5816,
      "duration": 0.1489,
      "velocity": 127,
      "chip": "ym2612"
    },
    {
      "channel": 1,
      "note": 53,
      "start": 21.734,
      "duration": 0.0761,
      "velocity": 102,
      "chip": "ym2612"
    },
    {
      "channel": 3,
      "note": 55,
      "start": 21.7347,
      "duration": 0.159,
      "velocity": 127,
      "chip": "ym2612"
    },
    {
      "channel": 4,
      "note": 79,
      "start": 21.7355,
      "duration": 0.159,
      "velocity": 127,
      "chip": "ym2612"
    },
    {
      "channel": 2,
      "note": 40,
      "start": 21.7368,
      "duration": 0.1531,
      "velocity": 127,
      "chip": "ym2612"
    },
    {
      "channel": 1,
      "note": 53,
      "start": 21.8936,
      "duration": 0.234,
      "velocity": 102,
      "chip": "ym2612"
    },
    {
      "channel": 3,
      "note": 54,
      "start": 21.8943,
      "duration": 0.1543,
      "velocity": 127,
      "chip": "ym2612"
    },
    {
      "channel": 4,
      "note": 78,
      "start": 21.8951,
      "duration": 0.1543,
      "velocity": 127,
      "chip": "ym2612"
    },
    {
      "channel": 2,
      "note": 76,
      "start": 21.8963,
      "duration": 0.1057,
      "velocity": 120,
      "chip": "ym2612"
    },
    {
      "channel": 3,
      "note": 53,
      "start": 22.0492,
      "duration": 0.1587,
      "velocity": 127,
      "chip": "ym2612"
    },
    {
      "channel": 4,
      "note": 77,
      "start": 22.0499,
      "duration": 0.1625,
      "velocity": 127,
      "chip": "ym2612"
    },
    {
      "channel": 1,
      "note": 53,
      "start": 22.2076,
      "duration": 0.2374,
      "velocity": 102,
      "chip": "ym2612"
    },
    {
      "channel": 3,
      "note": 56,
      "start": 22.2087,
      "duration": 0.16,
      "velocity": 127,
      "chip": "ym2612"
    },
    {
      "channel": 4,
      "note": 80,
      "start": 22.2131,
      "duration": 0.1564,
      "velocity": 127,
      "chip": "ym2612"
    },
    {
      "channel": 3,
      "note": 55,
      "start": 22.3693,
      "duration": 0.1562,
      "velocity": 127,
      "chip": "ym2612"
    },
    {
      "channel": 4,
      "note": 79,
      "start": 22.3701,
      "duration": 0.1562,
      "velocity": 127,
      "chip": "ym2612"
    },
    {
      "channel": 2,
      "note": 76,
      "start": 22.3713,
      "duration": 0.1067,
      "velocity": 120,
      "chip": "ym2612"
    },
    {
      "channel": 1,
      "note": 53,
      "start": 22.5254,
      "duration": 0.2372,
      "velocity": 102,
      "chip": "ym2612"
    },
    {
      "channel": 3,
      "note": 54,
      "start": 22.5261,
      "duration": 0.1574,
      "velocity": 127,
      "chip": "ym2612"
    },
    {
      "channel": 4,
      "note": 78,
      "start": 22.5268,
      "duration": 0.1574,
      "velocity": 127,
      "chip": "ym2612"
    },
    {
      "channel": 3,
      "note": 53,
      "start": 22.6841,
      "duration": 0.1671,
      "velocity": 127,
      "chip": "ym2612"
    },
    {
      "channel": 4,
      "note": 77,
      "start": 22.6848,
      "duration": 0.1708,
      "velocity": 101,
      "chip": "ym2612"
    },
    {
      "channel": 0,
      "note": 81,
      "start": 22.8494,
      "duration": 0.3127,
      "velocity": 103,
      "chip": "ym2612"
    },
    {
      "channel": 1,
      "note": 57,
      "start": 22.8504,
      "duration": 0.3125,
      "velocity": 102,
      "chip": "ym2612"
    },
    {
      "channel": 3,
      "note": 45,
      "start": 22.8518,
      "duration": 0.0702,
      "velocity": 127,
      "chip": "ym2612"
    },
    {
      "channel": 4,
      "note": 86,
      "start": 22.8562,
      "duration": 0.3081,
      "velocity": 101,
      "chip": "ym2612"
    },
    {
      "channel": 5,
      "note": 86,
      "start": 22.8604,
      "duration": 0.3048,
      "velocity": 101,
      "chip": "ym2612"
    },
    {
      "channel": 2,
      "note": 40,
      "start": 22.8613,
      "duration": 0.1393,
      "velocity": 127,
      "chip": "ym2612"
    },
    {
      "channel": 3,
      "note": 46,
      "start": 23.0046,
      "duration": 0.0761,
      "velocity": 127,
      "chip": "ym2612"
    },
    {
      "channel": 2,
      "note": 40,
      "start": 23.0063,
      "duration": 0.153,
      "velocity": 127,
      "chip": "ym2612"
    },
    {
      "channel": 0,
      "note": 80,
      "start": 23.1628,
      "duration": 0.3142,
      "velocity": 103,
      "chip": "ym2612"
    },
    {
      "channel": 1,
      "note": 56,
      "start": 23.1635,
      "duration": 0.3142,
      "velocity": 102,
      "chip": "ym2612"
    },
    {
      "channel": 3,
      "note": 47,
      "start": 23.1642,
      "duration": 0.0753,
      "velocity": 127,
      "chip": "ym2612"
    },
    {
      "channel": 4,
      "note": 85,
      "start": 23.165,
      "duration": 0.3142,
      "velocity": 101,
      "chip": "ym2612"
    },
    {
      "channel": 5,
      "note": 85,
      "start": 23.1658,
      "duration": 0.3142,
      "velocity": 101,
      "chip": "ym2612"
    },
    {
      "channel": 2,
      "note": 40,
      "start": 23.1667,
      "duration": 0.1518,
      "velocity": 127,
      "chip": "ym2612"
    },
    {
      "channel": 3,
      "note": 48,
      "start": 23.3227,
      "duration": 0.0756,
      "velocity": 127,
      "chip": "ym2612"
    },
    {
      "channel": 2,
      "note": 76,
      "start": 23.3242,
      "duration": 0.1066,
      "velocity": 120,
      "chip": "ym2612"
    },
    {
      "channel": 0,
      "note": 79,
      "start": 23.4776,
      "duration": 0.3195,
      "velocity": 103,
      "chip": "ym2612"
    },
    {
      "channel": 1,
      "note": 55,
      "start": 23.4783,
      "duration": 0.3196,
      "velocity": 102,
      "chip": "ym2612"
    },
    {
      "channel": 3,
      "note": 49,
      "start": 23.4791,
      "duration": 0.0779,
      "velocity": 127,
      "chip": "ym2612"
    },
    {
      "channel": 4,
      "note": 84,
      "start": 23.4798,
      "duration": 0.3195,
      "velocity": 101,
      "chip": "ym2612"
    },
    {
      "channel": 5,
      "note": 84,
      "start": 23.4806,
      "duration": 0.3195,
      "velocity": 101,
      "chip": "ym2612"
    },
    {
      "channel": 3,
      "note": 50,
      "start": 23.6401,
      "duration": 0.0756,
      "velocity": 127,
      "chip": "ym2612"
    },
    {
      "channel": 2,
      "note": 40,
      "start": 23.642,
      "duration": 0.1524,
      "velocity": 127,
      "chip": "ym2612"
    },
    {
      "channel": 0,
      "note": 78,
      "start": 23.7978,
      "duration": 0.3168,
      "velocity": 103,
      "chip": "ym2612"
    },
    {
      "channel": 1,
      "note": 54,
      "start": 23.7985,
      "duration": 0.3171,
      "velocity": 102,
      "chip": "ym2612"
    },
    {
      "channel": 3,
      "note": 51,
      "start": 23.7992,
      "duration": 0.0752,
      "velocity": 127,
      "chip": "ym2612"
    },
    {
      "channel": 4,
      "note": 83,
      "start": 23.8,
      "duration": 0.3179,
      "velocity": 101,
      "chip": "ym2612"
    },
    {
      "channel": 5,
      "note": 83,
      "start": 23.8007,
      "duration": 0.318,
      "velocity": 101,
      "chip": "ym2612"
    },
    {
      "channel": 2,
      "note": 40,
      "start": 23.8017,
      "duration": 0.1515,
      "velocity": 127,
      "chip": "ym2612"
    },
    {
      "channel": 3,
      "note": 52,
      "start": 23.9572,
      "duration": 0.076,
      "velocity": 127,
      "chip": "ym2612"
    },
    {
      "channel": 2,
      "note": 40,
      "start": 23.9591,
      "duration": 0.1527,
      "velocity": 127,
      "chip": "ym2612"
    },
    {
      "channel": 0,
      "note": 81,
      "start": 24.1153,
      "duration": 0.3172,
      "velocity": 103,
      "chip": "ym2612"
    },
    {
      "channel": 1,
      "note": 57,
      "start": 24.1161,
      "duration": 0.3172,
      "velocity": 102,
      "chip": "ym2612"
    },
    {
      "channel": 3,
      "note": 45,
      "start": 24.1177,
      "duration": 0.0745,
      "velocity": 127,
      "chip": "ym2612"
    },
    {
      "channel": 4,
      "note": 86,
      "start": 24.1185,
      "duration": 0.3163,
      "velocity": 101,
      "chip": "ym2612"
    },
    {
      "channel": 5,
      "note": 86,
      "start": 24.1193,
      "duration": 0.3163,
      "velocity": 101,
      "chip": "ym2612"
    },
    {
      "channel": 2,
      "note": 40,
      "start": 24.1202,
      "duration": 0.1503,
      "velocity": 127,
      "chip": "ym2612"
    },
    {
      "channel": 3,
      "note": 46,
      "start": 24.2746,
      "duration": 0.0761,
      "velocity": 127,
      "chip": "ym2612"
    },
    {
      "channel": 2,
      "note": 40,
      "start": 24.2765,
      "duration": 0.1532,
      "velocity": 127,
      "chip": "ym2612"
    },
    {
      "channel": 0,
      "note": 80,
      "start": 24.4332,
      "duration": 0.3139,
      "velocity": 103,
      "chip": "ym2612"
    },
    {
      "channel": 1,
      "note": 56,
      "start": 24.4339,
      "duration": 0.314,
      "velocity": 102,
      "chip": "ym2612"
    },
    {
      "channel": 3,
      "note": 47,
      "start": 24.4347,
      "duration": 0.0751,
      "velocity": 127,
      "chip": "ym2612"
    },
    {
      "channel": 4,
      "note": 85,
      "start": 24.4354,
      "duration": 0.3139,
      "velocity": 101,
      "chip": "ym2612"
    },
    {
      "channel": 5,
      "note": 85,
      "start": 24.4362,
      "duration": 0.3139,
      "velocity": 101,
      "chip": "ym2612"
    },
    {
      "channel": 2,
      "note": 76,
      "start": 24.437,
      "duration": 0.1053,
      "velocity": 120,
      "chip": "ym2612"
    },
    {
      "channel": 3,
      "note": 48,
      "start": 24.5924,
      "duration": 0.0758,
      "velocity": 127,
      "chip": "ym2612"
    },
    {
      "channel": 2,
      "note": 76,
      "start": 24.5939,
      "duration": 0.1068,
      "velocity": 120,
      "chip": "ym2612"
    },
    {
      "channel": 0,
      "note": 79,
      "start": 24.7478,
      "duration": 0.3167,
      "velocity": 103,
      "chip": "ym2612"
    },
    {
      "channel": 1,
      "note": 55,
      "start": 24.7485,
      "duration": 0.3168,
      "velocity": 102,
      "chip": "ym2612"
    },
    {
      "channel": 3,
      "note": 49,
      "start": 24.7492,
      "duration": 0.0778,
      "velocity": 127,
      "chip": "ym2612"
    },
    {
      "channel": 4,
      "note": 84,
      "start": 24.7499,
      "duration": 0.3168,
      "velocity": 101,
      "chip": "ym2612"
    },
    {
      "channel": 5,
      "note": 84,
      "start": 24.7507,
      "duration": 0.3168,
      "velocity": 101,
      "chip": "ym2612"
    },
    {
      "channel": 3,
      "note": 50,
      "start": 24.9069,
      "duration": 0.0788,
      "velocity": 127,
      "chip": "ym2612"
    },
    {
      "channel": 0,
      "note": 78,
      "start": 25.0651,
      "duration": 0.32,
      "velocity": 103,
      "chip": "ym2612"
    },
    {
      "channel": 1,
      "note": 54,
      "start": 25.0658,
      "duration": 0.3201,
      "velocity": 102,
      "chip": "ym2612"
    },
    {
      "channel": 3,
      "note": 51,
      "start": 25.0666,
      "duration": 0.078,
      "velocity": 127,
      "chip": "ym2612"
    },
    {
      "channel": 4,
      "note": 83,
      "start": 25.0674,
      "duration": 0.325,
      "velocity": 101,
      "chip": "ym2612"
    },
    {
      "channel": 5,
      "note": 83,
      "start": 25.0681,
      "duration": 0.3258,
      "velocity": 101,
      "chip": "ym2612"
    },
    {
      "channel": 3,
      "note": 52,
      "start": 25.2244,
      "duration": 0.0792,
      "velocity": 127,
      "chip": "ym2612"
    },
    {
      "channel": 0,
      "note": 82,
      "start": 25.3857,
      "duration": 0.3165,
      "velocity": 103,
      "chip": "ym2612"
    },
    {
      "channel": 1,
      "note": 58,
      "start": 25.3865,
      "duration": 0.3165,
      "velocity": 102,
      "chip": "ym2612"
    },
    {
      "channel": 3,
      "note": 46,
      "start": 25.3883,
      "duration": 0.0737,
      "velocity": 127,
      "chip": "ym2612"
    },
    {
      "channel": 4,
      "note": 87,
      "start": 25.393,
      "duration": 0.3115,
      "velocity": 101,
      "chip": "ym2612"
    },
    {
      "channel": 5,
      "note": 87,
      "start": 25.3946,
      "duration": 0.3107,
      "velocity": 101,
      "chip": "ym2612"
    },
    {
      "channel": 2,
      "note": 40,
      "start": 25.3955,
      "duration": 0.1451,
      "velocity": 127,
      "chip": "ym2612"
    },
    {
      "channel": 3,
      "note": 47,
      "start": 25.545,
      "duration": 0.0758,
      "velocity": 127,
      "chip": "ym2612"
    },
    {
      "channel": 2,
      "note": 40,
      "start": 25.5466,
      "duration": 0.1528,
      "velocity": 127,
      "chip": "ym2612"
    },
    {
      "channel": 0,
      "note": 81,
      "start": 25.7029,
      "duration": 0.3141,
      "velocity": 103,
      "chip": "ym2612"
    },
    {
      "channel": 1,
      "note": 57,
      "start": 25.7037,
      "duration": 0.3142,
      "velocity": 102,
      "chip": "ym2612"
    },
    {
      "channel": 3,
      "note": 48,
      "start": 25.7044,
      "duration": 0.0751,
      "velocity": 127,
      "chip": "ym2612"
    },
    {
      "channel": 4,
      "note": 86,
      "start": 25.7051,
      "duration": 0.3142,
      "velocity": 101,
      "chip": "ym2612"
    },
    {
      "channel": 5,
      "note": 86,
      "start": 25.7059,
      "duration": 0.3142,
      "velocity": 101,
      "chip": "ym2612"
    },
    {
      "channel": 2,
      "note": 40,
      "start": 25.7068,
      "duration": 0.152,
      "velocity": 127,
      "chip": "ym2612"
    },
    {
      "channel": 3,
      "note": 49,
      "start": 25.8629,
      "duration": 0.0754,
      "velocity": 127,
      "chip": "ym2612"
    },
    {
      "channel": 2,
      "note": 76,
      "start": 25.8644,
      "duration": 0.1064,
      "velocity": 120,
      "chip": "ym2612"
    },
    {
      "channel": 0,
      "note": 80,
      "start": 26.0177,
      "duration": 0.3194,
      "velocity": 103,
      "chip": "ym2612"
    },
    {
      "channel": 1,
      "note": 56,
      "start": 26.0184,
      "duration": 0.3195,
      "velocity": 102,
      "chip": "ym2612"
    },
    {
      "channel": 3,
      "note": 50,
      "start": 26.0191,
      "duration": 0.0779,
      "velocity": 127,
      "chip": "ym2612"
    },
    {
      "channel": 4,
      "note": 85,
      "start": 26.0199,
      "duration": 0.3195,
      "velocity": 101,
      "chip": "ym2612"
    },
    {
      "channel": 5,
      "note": 85,
      "start": 26.0207,
      "duration": 0.3195,
      "velocity": 101,
      "chip": "ym2612"
    },
    {
      "channel": 3,
      "note": 51,
      "start": 26.1802,
      "duration": 0.0756,
      "velocity": 127,
      "chip": "ym2612"
    },
    {
      "channel": 2,
      "note": 40,
      "start": 26.1819,
      "duration": 0.1525,
      "velocity": 127,
      "chip": "ym2612"
    },
    {
      "channel": 0,
      "note": 79,
      "start": 26.3378,
      "duration": 0.3169,
      "velocity": 103,
      "chip": "ym2612"
    },
    {
      "channel": 1,
      "note": 55,
      "start": 26.3385,
      "duration": 0.3171,
      "velocity": 102,
      "chip": "ym2612"
    },
    {
      "channel": 3,
      "note": 52,
      "start": 26.3393,
      "duration": 0.0752,
      "velocity": 127,
      "chip": "ym2612"
    },
    {
      "channel": 4,
      "note": 84,
      "start": 26.3401,
      "duration": 0.3179,
      "velocity": 101,
      "chip": "ym2612"
    },
    {
      "channel": 5,
      "note": 84,
      "start": 26.3408,
      "duration": 0.3182,
      "velocity": 101,
      "chip": "ym2612"
    },
    {
      "channel": 2,
      "note": 40,
      "start": 26.342,
      "duration": 0.1512,
      "velocity": 127,
      "chip": "ym2612"
    },
    {
      "channel": 3,
      "note": 53,
      "start": 26.4973,
      "duration": 0.076,
      "velocity": 127,
      "chip": "ym2612"
    },
    {
      "channel": 2,
      "note": 40,
      "start": 26.4989,
      "duration": 0.1531,
      "velocity": 127,
      "chip": "ym2612"
    },
    {
      "channel": 0,
      "note": 82,
      "start": 26.6554,
      "duration": 0.3172,
      "velocity": 103,
      "chip": "ym2612"
    },
    {
      "channel": 1,
      "note": 58,
      "start": 26.6562,
      "duration": 0.3172,
      "velocity": 102,
      "chip": "ym2612"
    },
    {
      "channel": 3,
      "note": 46,
      "start": 26.6578,
      "duration": 0.0742,
      "velocity": 127,
      "chip": "ym2612"
    },
    {
      "channel": 4,
      "note": 87,
      "start": 26.6588,
      "duration": 0.316,
      "velocity": 101,
      "chip": "ym2612"
    },
    {
      "channel": 5,
      "note": 87,
      "start": 26.6596,
      "duration": 0.3163,
      "velocity": 101,
      "chip": "ym2612"
    },
    {
      "channel": 2,
      "note": 40,
      "start": 26.6605,
      "duration": 0.1501,
      "velocity": 127,
      "chip": "ym2612"
    },
    {
      "channel": 3,
      "note": 47,
      "start": 26.8147,
      "duration": 0.0761,
      "velocity": 127,
      "chip": "ym2612"
    },
    {
      "channel": 2,
      "note": 40,
      "start": 26.8163,
      "duration": 0.1534,
      "velocity": 127,
      "chip": "ym2612"
    },
    {
      "channel": 0,
      "note": 81,
      "start": 26.9733,
      "duration": 0.3138,
      "velocity": 103,
      "chip": "ym2612"
    },
    {
      "channel": 1,
      "note": 57,
      "start": 26.974,
      "duration": 0.3139,
      "velocity": 102,
      "chip": "ym2612"
    },
    {
      "channel": 3,
      "note": 48,
      "start": 26.9747,
      "duration": 0.0747,
      "velocity": 127,
      "chip": "ym2612"
    },
    {
      "channel": 4,
      "note": 86,
      "start": 26.9758,
      "duration": 0.3136,
      "velocity": 101,
      "chip": "ym2612"
    },
    {
      "channel": 5,
      "note": 86,
      "start": 26.9765,
      "duration": 0.3136,
      "velocity": 101,
      "chip": "ym2612"
    },
    {
      "channel": 2,
      "note": 76,
      "start": 26.9773,
      "duration": 0.1048,
      "velocity": 120,
      "chip": "ym2612"
    },
    {
      "channel": 3,
      "note": 49,
      "start": 27.1296,
      "duration": 0.0787,
      "velocity": 127,
      "chip": "ym2612"
    },
    {
      "channel": 0,
      "note": 80,
      "start": 27.2878,
      "duration": 0.3195,
      "velocity": 103,
      "chip": "ym2612"
    },
    {
      "channel": 1,
      "note": 56,
      "start": 27.2885,
      "duration": 0.3196,
      "velocity": 102,
      "chip": "ym2612"
    },
    {
      "channel": 3,
      "note": 50,
      "start": 27.2893,
      "duration": 0.0778,
      "velocity": 127,
      "chip": "ym2612"
    },
    {
      "channel": 4,
      "note": 85,
      "start": 27.29,
      "duration": 0.3198,
      "velocity": 101,
      "chip": "ym2612"
    },
    {
      "channel": 5,
      "note": 85,
      "start": 27.2908,
      "duration": 0.3198,
      "velocity": 101,
      "chip": "ym2612"
    },
    {
      "channel": 3,
      "note": 51,
      "start": 27.4498,
      "duration": 0.0763,
      "velocity": 127,
      "chip": "ym2612"
    },
    {
      "channel": 2,
      "note": 76,
      "start": 27.4513,
      "duration": 0.1074,
      "velocity": 120,
      "chip": "ym2612"
    },
    {
      "channel": 0,
      "note": 79,
      "start": 27.6079,
      "duration": 0.3215,
      "velocity": 102,
      "chip": "ym2612"
    },
    {
      "channel": 1,
      "note": 55,
      "start": 27.6089,
      "duration": 0.3216,
      "velocity": 102,
      "chip": "ym2612"
    },
    {
      "channel": 3,
      "note": 52,
      "start": 27.6097,
      "duration": 0.0749,
      "velocity": 127,
      "chip": "ym2612"
    },
    {
      "channel": 4,
      "note": 84,
      "start": 27.6104,
      "duration": 0.3261,
      "velocity": 127,
      "chip": "ym2612"
    },
    {
      "channel": 5,
      "note": 84,
      "start": 27.6112,
      "duration": 0.3292,
      "velocity": 101,
      "chip": "ym2612"
    },
    {
      "channel": 2,
      "note": 76,
      "start": 27.612,
      "duration": 0.1051,
      "velocity": 120,
      "chip": "ym2612"
    },
    {
      "channel": 3,
      "note": 53,
      "start": 27.7672,
      "duration": 0.0761,
      "velocity": 127,
      "chip": "ym2612"
    },
    {
      "channel": 2,
      "note": 76,
      "start": 27.7688,
      "duration": 0.1075,
      "velocity": 120,
      "chip": "ym2612"
    },
    {
      "channel": 0,
      "note": 88,
      "start": 27.9302,
      "duration": 0.0712,
      "velocity": 102,
      "chip": "ym2612"
    },
    {
      "channel": 1,
      "note": 52,
      "start": 27.9311,
      "duration": 0.2298,
      "velocity": 102,
      "chip": "ym2612"
    },
    {
      "channel": 3,
      "note": 55,
      "start": 27.9326,
      "duration": 0.152,
      "velocity": 127,
      "chip": "ym2612"
    },
    {
      "channel": 4,
      "note": 79,
      "start": 27.9371,
      "duration": 0.1483,
      "velocity": 127,
      "chip": "ym2612"
    },
    {
      "channel": 5,
      "note": 88,
      "start": 27.941,
      "duration": 0.2993,
      "velocity": 101,
      "chip": "ym2612"
    },
    {
      "channel": 2,
      "note": 40,
      "start": 27.9422,
      "duration": 0.1384,
      "velocity": 127,
      "chip": "ym2612"
    },
    {
      "channel": 0,
      "note": 91,
      "start": 28.002,
      "duration": 0.0814,
      "velocity": 102,
      "chip": "ym2612"
    },
    {
      "channel": 0,
      "note": 94,
      "start": 28.0841,
      "duration": 0.076,
      "velocity": 102,
      "chip": "ym2612"
    },
    {
      "channel": 3,
      "note": 54,
      "start": 28.0852,
      "duration": 0.1551,
      "velocity": 127,
      "chip": "ym2612"
    },
    {
      "channel": 4,
      "note": 78,
      "start": 28.0859,
      "duration": 0.1544,
      "velocity": 127,
      "chip": "ym2612"
    },
    {
      "channel": 2,
      "note": 40,
      "start": 28.0872,
      "duration": 0.1522,
      "velocity": 127,
      "chip": "ym2612"
    },
    {
      "channel": 0,
      "note": 97,
      "start": 28.1608,
      "duration": 0.0795,
      "velocity": 102,
      "chip": "ym2612"
    }
  ]
}