{
  "track_name": "15 - Unused (Sound Code 07)",
  "duration_sec": 62.782,
  "sample_rate": 44100,
  "note_count": 1237,
  "unique_pitches": 30,
  "pitch_range": 54,
  "avg_note_duration": 0.1692,
  "reconstruction_stats": {
    "notes_reconstructed": 1237,
    "keyon_events": 1237,
    "keyoff_events": 1235,
    "orphan_keyons": 2,
    "unique_pitches": 30,
    "pitch_range": 54,
    "avg_duration_sec": 0.1692
  },
  "metadata": {
    "source": "T\\The Ooze\\15 - Unused (Sound Code 07).vgz"
  },
  "notes": [
    {
      "channel": 1,
      "note": 73,
      "start": 0.0039,
      "duration": 0.0194,
      "velocity": 121,
      "chip": "ym2612"
    },
    {
      "channel": 4,
      "note": 56,
      "start": 0.0073,
      "duration": 0.066,
      "velocity": 101,
      "chip": "ym2612"
    },
    {
      "channel": 0,
      "note": 56,
      "start": 0.0116,
      "duration": 0.5305,
      "velocity": 127,
      "chip": "ym2612"
    },
    {
      "channel": 1,
      "note": 73,
      "start": 0.2098,
      "duration": 0.0635,
      "velocity": 121,
      "chip": "ym2612"
    },
    {
      "channel": 4,
      "note": 56,
      "start": 0.2128,
      "duration": 0.0938,
      "velocity": 101,
      "chip": "ym2612"
    },
    {
      "channel": 3,
      "note": 60,
      "start": 0.2161,
      "duration": 0.2404,
      "velocity": 127,
      "chip": "ym2612"
    },
    {
      "channel": 1,
      "note": 73,
      "start": 0.4627,
      "duration": 0.0181,
      "velocity": 121,
      "chip": "ym2612"
    },
    {
      "channel": 4,
      "note": 56,
      "start": 0.4651,
      "duration": 0.0339,
      "velocity": 101,
      "chip": "ym2612"
    },
    {
      "channel": 3,
      "note": 63,
      "start": 0.4674,
      "duration": 0.081,
      "velocity": 127,
      "chip": "ym2612"
    },
    {
      "channel": 1,
      "note": 73,
      "start": 0.5517,
      "duration": 0.025,
      "velocity": 121,
      "chip": "ym2612"
    },
    {
      "channel": 4,
      "note": 55,
      "start": 0.554,
      "duration": 0.0388,
      "velocity": 101,
      "chip": "ym2612"
    },
    {
      "channel": 0,
      "note": 62,
      "start": 0.5565,
      "duration": 0.7394,
      "velocity": 127,
      "chip": "ym2612"
    },
    {
      "channel": 3,
      "note": 55,
      "start": 0.5588,
      "duration": 0.7372,
      "velocity": 127,
      "chip": "ym2612"
    },
    {
      "channel": 1,
      "note": 73,
      "start": 0.7485,
      "duration": 0.0213,
      "velocity": 121,
      "chip": "ym2612"
    },
    {
      "channel": 4,
      "note": 55,
      "start": 0.751,
      "duration": 0.069,
      "velocity": 101,
      "chip": "ym2612"
    },
    {
      "channel": 1,
      "note": 73,
      "start": 0.956,
      "duration": 0.0638,
      "velocity": 121,
      "chip": "ym2612"
    },
    {
      "channel": 4,
      "note": 55,
      "start": 0.9588,
      "duration": 0.1111,
      "velocity": 101,
      "chip": "ym2612"
    },
    {
      "channel": 1,
      "note": 73,
      "start": 1.2095,
      "duration": 0.0179,
      "velocity": 121,
      "chip": "ym2612"
    },
    {
      "channel": 4,
      "note": 55,
      "start": 1.2119,
      "duration": 0.0406,
      "velocity": 101,
      "chip": "ym2612"
    },
    {
      "channel": 1,
      "note": 73,
      "start": 1.299,
      "duration": 0.0249,
      "velocity": 121,
      "chip": "ym2612"
    },
    {
      "channel": 4,
      "note": 50,
      "start": 1.3015,
      "duration": 0.0562,
      "velocity": 101,
      "chip": "ym2612"
    },
    {
      "channel": 0,
      "note": 50,
      "start": 1.3038,
      "duration": 0.1871,
      "velocity": 127,
      "chip": "ym2612"
    },
    {
      "channel": 1,
      "note": 73,
      "start": 1.497,
      "duration": 0.0204,
      "velocity": 121,
      "chip": "ym2612"
    },
    {
      "channel": 4,
      "note": 52,
      "start": 1.4992,
      "duration": 0.0849,
      "velocity": 101,
      "chip": "ym2612"
    },
    {
      "channel": 0,
      "note": 52,
      "start": 1.5015,
      "duration": 0.3158,
      "velocity": 127,
      "chip": "ym2612"
    },
    {
      "channel": 1,
      "note": 73,
      "start": 1.7035,
      "duration": 0.0638,
      "velocity": 121,
      "chip": "ym2612"
    },
    {
      "channel": 4,
      "note": 52,
      "start": 1.7062,
      "duration": 0.1113,
      "velocity": 101,
      "chip": "ym2612"
    },
    {
      "channel": 3,
      "note": 59,
      "start": 1.709,
      "duration": 0.2417,
      "velocity": 127,
      "chip": "ym2612"
    },
    {
      "channel": 1,
      "note": 73,
      "start": 1.957,
      "duration": 0.0178,
      "velocity": 121,
      "chip": "ym2612"
    },
    {
      "channel": 4,
      "note": 52,
      "start": 1.9593,
      "duration": 0.0342,
      "velocity": 101,
      "chip": "ym2612"
    },
    {
      "channel": 0,
      "note": 64,
      "start": 1.9614,
      "duration": 0.0808,
      "velocity": 127,
      "chip": "ym2612"
    },
    {
      "channel": 1,
      "note": 73,
      "start": 2.0455,
      "duration": 0.0253,
      "velocity": 121,
      "chip": "ym2612"
    },
    {
      "channel": 4,
      "note": 61,
      "start": 2.048,
      "duration": 0.0888,
      "velocity": 101,
      "chip": "ym2612"
    },
    {
      "channel": 0,
      "note": 56,
      "start": 2.0508,
      "duration": 0.7207,
      "velocity": 127,
      "chip": "ym2612"
    },
    {
      "channel": 3,
      "note": 61,
      "start": 2.0531,
      "duration": 0.7187,
      "velocity": 127,
      "chip": "ym2612"
    },
    {
      "channel": 1,
      "note": 73,
      "start": 2.2426,
      "duration": 0.0215,
      "velocity": 121,
      "chip": "ym2612"
    },
    {
      "channel": 4,
      "note": 61,
      "start": 2.245,
      "duration": 0.1025,
      "velocity": 101,
      "chip": "ym2612"
    },
    {
      "channel": 1,
      "note": 73,
      "start": 2.4502,
      "duration": 0.0639,
      "velocity": 121,
      "chip": "ym2612"
    },
    {
      "channel": 4,
      "note": 61,
      "start": 2.4534,
      "duration": 0.1108,
      "velocity": 101,
      "chip": "ym2612"
    },
    {
      "channel": 1,
      "note": 73,
      "start": 2.7037,
      "duration": 0.0177,
      "velocity": 121,
      "chip": "ym2612"
    },
    {
      "channel": 4,
      "note": 61,
      "start": 2.7062,
      "duration": 0.0406,
      "velocity": 101,
      "chip": "ym2612"
    },
    {
      "channel": 1,
      "note": 73,
      "start": 2.7934,
      "duration": 0.0251,
      "velocity": 121,
      "chip": "ym2612"
    },
    {
      "channel": 4,
      "note": 61,
      "start": 2.7956,
      "duration": 0.057,
      "velocity": 101,
      "chip": "ym2612"
    },
    {
      "channel": 0,
      "note": 54,
      "start": 2.7981,
      "duration": 0.1877,
      "velocity": 127,
      "chip": "ym2612"
    },
    {
      "channel": 1,
      "note": 73,
      "start": 2.9918,
      "duration": 0.0207,
      "velocity": 121,
      "chip": "ym2612"
    },
    {
      "channel": 4,
      "note": 56,
      "start": 2.9942,
      "duration": 0.0849,
      "velocity": 101,
      "chip": "ym2612"
    },
    {
      "channel": 0,
      "note": 56,
      "start": 2.9966,
      "duration": 0.4492,
      "velocity": 127,
      "chip": "ym2612"
    },
    {
      "channel": 1,
      "note": 73,
      "start": 3.199,
      "duration": 0.0635,
      "velocity": 121,
      "chip": "ym2612"
    },
    {
      "channel": 4,
      "note": 56,
      "start": 3.2019,
      "duration": 0.0941,
      "velocity": 101,
      "chip": "ym2612"
    },
    {
      "channel": 3,
      "note": 63,
      "start": 3.2046,
      "duration": 0.2413,
      "velocity": 127,
      "chip": "ym2612"
    },
    {
      "channel": 1,
      "note": 73,
      "start": 3.4523,
      "duration": 0.0178,
      "velocity": 121,
      "chip": "ym2612"
    },
    {
      "channel": 4,
      "note": 56,
      "start": 3.4547,
      "duration": 0.0339,
      "velocity": 101,
      "chip": "ym2612"
    },
    {
      "channel": 0,
      "note": 68,
      "start": 3.4569,
      "duration": 0.0812,
      "velocity": 127,
      "chip": "ym2612"
    },
    {
      "channel": 1,
      "note": 73,
      "start": 3.5413,
      "duration": 0.0254,
      "velocity": 121,
      "chip": "ym2612"
    },
    {
      "channel": 4,
      "note": 55,
      "start": 3.5438,
      "duration": 0.3994,
      "velocity": 101,
      "chip": "ym2612"
    },
    {
      "channel": 0,
      "note": 62,
      "start": 3.5462,
      "duration": 0.3967,
      "velocity": 127,
      "chip": "ym2612"
    },
    {
      "channel": 3,
      "note": 55,
      "start": 3.5488,
      "duration": 0.3944,
      "velocity": 127,
      "chip": "ym2612"
    },
    {
      "channel": 1,
      "note": 73,
      "start": 3.7385,
      "duration": 0.0212,
      "velocity": 121,
      "chip": "ym2612"
    },
    {
      "channel": 1,
      "note": 73,
      "start": 3.9461,
      "duration": 0.0636,
      "velocity": 121,
      "chip": "ym2612"
    },
    {
      "channel": 4,
      "note": 52,
      "start": 3.9491,
      "duration": 0.094,
      "velocity": 101,
      "chip": "ym2612"
    },
    {
      "channel": 0,
      "note": 59,
      "start": 3.9518,
      "duration": 0.333,
      "velocity": 127,
      "chip": "ym2612"
    },
    {
      "channel": 3,
      "note": 52,
      "start": 3.9543,
      "duration": 0.3306,
      "velocity": 127,
      "chip": "ym2612"
    },
    {
      "channel": 1,
      "note": 73,
      "start": 4.1991,
      "duration": 0.0174,
      "velocity": 121,
      "chip": "ym2612"
    },
    {
      "channel": 4,
      "note": 52,
      "start": 4.2016,
      "duration": 0.1457,
      "velocity": 101,
      "chip": "ym2612"
    },
    {
      "channel": 1,
      "note": 73,
      "start": 4.2879,
      "duration": 0.0241,
      "velocity": 121,
      "chip": "ym2612"
    },
    {
      "channel": 0,
      "note": 48,
      "start": 4.2906,
      "duration": 0.1899,
      "velocity": 127,
      "chip": "ym2612"
    },
    {
      "channel": 1,
      "note": 73,
      "start": 4.4866,
      "duration": 0.0213,
      "velocity": 121,
      "chip": "ym2612"
    },
    {
      "channel": 4,
      "note": 59,
      "start": 4.4895,
      "duration": 0.0851,
      "velocity": 101,
      "chip": "ym2612"
    },
    {
      "channel": 0,
      "note": 47,
      "start": 4.4917,
      "duration": 0.4494,
      "velocity": 127,
      "chip": "ym2612"
    },
    {
      "channel": 1,
      "note": 73,
      "start": 4.694,
      "duration": 0.0639,
      "velocity": 121,
      "chip": "ym2612"
    },
    {
      "channel": 4,
      "note": 59,
      "start": 4.6968,
      "duration": 0.0945,
      "velocity": 101,
      "chip": "ym2612"
    },
    {
      "channel": 3,
      "note": 54,
      "start": 4.6996,
      "duration": 0.2417,
      "velocity": 127,
      "chip": "ym2612"
    },
    {
      "channel": 1,
      "note": 73,
      "start": 4.9476,
      "duration": 0.0178,
      "velocity": 121,
      "chip": "ym2612"
    },
    {
      "channel": 4,
      "note": 59,
      "start": 4.95,
      "duration": 0.0346,
      "velocity": 101,
      "chip": "ym2612"
    },
    {
      "channel": 0,
      "note": 59,
      "start": 4.9522,
      "duration": 0.0829,
      "velocity": 127,
      "chip": "ym2612"
    },
    {
      "channel": 1,
      "note": 73,
      "start": 5.0384,
      "duration": 0.0255,
      "velocity": 121,
      "chip": "ym2612"
    },
    {
      "channel": 4,
      "note": 62,
      "start": 5.0408,
      "duration": 0.3998,
      "velocity": 101,
      "chip": "ym2612"
    },
    {
      "channel": 0,
      "note": 57,
      "start": 5.0437,
      "duration": 0.3966,
      "velocity": 127,
      "chip": "ym2612"
    },
    {
      "channel": 3,
      "note": 62,
      "start": 5.0459,
      "duration": 0.3946,
      "velocity": 127,
      "chip": "ym2612"
    },
    {
      "channel": 1,
      "note": 73,
      "start": 5.2361,
      "duration": 0.021,
      "velocity": 121,
      "chip": "ym2612"
    },
    {
      "channel": 1,
      "note": 73,
      "start": 5.4435,
      "duration": 0.0636,
      "velocity": 121,
      "chip": "ym2612"
    },
    {
      "channel": 4,
      "note": 61,
      "start": 5.4465,
      "duration": 0.1273,
      "velocity": 101,
      "chip": "ym2612"
    },
    {
      "channel": 0,
      "note": 56,
      "start": 5.4493,
      "duration": 0.3216,
      "velocity": 127,
      "chip": "ym2612"
    },
    {
      "channel": 3,
      "note": 61,
      "start": 5.4518,
      "duration": 0.3192,
      "velocity": 127,
      "chip": "ym2612"
    },
    {
      "channel": 1,
      "note": 73,
      "start": 5.6972,
      "duration": 0.0169,
      "velocity": 121,
      "chip": "ym2612"
    },
    {
      "channel": 4,
      "note": 61,
      "start": 5.6997,
      "duration": 0.0835,
      "velocity": 101,
      "chip": "ym2612"
    },
    {
      "channel": 1,
      "note": 73,
      "start": 5.7899,
      "duration": 0.0356,
      "velocity": 121,
      "chip": "ym2612"
    },
    {
      "channel": 4,
      "note": 55,
      "start": 5.7923,
      "duration": 0.1291,
      "velocity": 101,
      "chip": "ym2612"
    },
    {
      "channel": 0,
      "note": 55,
      "start": 5.7948,
      "duration": 0.1264,
      "velocity": 127,
      "chip": "ym2612"
    },
    {
      "channel": 1,
      "note": 73,
      "start": 5.9278,
      "duration": 0.102,
      "velocity": 121,
      "chip": "ym2612"
    },
    {
      "channel": 2,
      "note": 61,
      "start": 5.9306,
      "duration": 0.0994,
      "velocity": 121,
      "chip": "ym2612"
    },
    {
      "channel": 4,
      "note": 56,
      "start": 5.9333,
      "duration": 0.1298,
      "velocity": 101,
      "chip": "ym2612"
    },
    {
      "channel": 3,
      "note": 61,
      "start": 5.9372,
      "duration": 0.1426,
      "velocity": 122,
      "chip": "ym2612"
    },
    {
      "channel": 0,
      "note": 56,
      "start": 5.9396,
      "duration": 0.3234,
      "velocity": 127,
      "chip": "ym2612"
    },
    {
      "channel": 1,
      "note": 73,
      "start": 6.0327,
      "duration": 0.1136,
      "velocity": 121,
      "chip": "ym2612"
    },
    {
      "channel": 2,
      "note": 64,
      "start": 6.0354,
      "duration": 0.1112,
      "velocity": 121,
      "chip": "ym2612"
    },
    {
      "channel": 1,
      "note": 73,
      "start": 6.1493,
      "duration": 0.1137,
      "velocity": 121,
      "chip": "ym2612"
    },
    {
      "channel": 2,
      "note": 57,
      "start": 6.1521,
      "duration": 0.1113,
      "velocity": 121,
      "chip": "ym2612"
    },
    {
      "channel": 4,
      "note": 56,
      "start": 6.1547,
      "duration": 0.1585,
      "velocity": 101,
      "chip": "ym2612"
    },
    {
      "channel": 5,
      "note": 60,
      "start": 6.1576,
      "duration": 0.2223,
      "velocity": 127,
      "chip": "ym2612"
    },
    {
      "channel": 1,
      "note": 73,
      "start": 6.2661,
      "duration": 0.1136,
      "velocity": 121,
      "chip": "ym2612"
    },
    {
      "channel": 2,
      "note": 66,
      "start": 6.2689,
      "duration": 0.1111,
      "velocity": 121,
      "chip": "ym2612"
    },
    {
      "channel": 1,
      "note": 73,
      "start": 6.3862,
      "duration": 0.0505,
      "velocity": 121,
      "chip": "ym2612"
    },
    {
      "channel": 2,
      "note": 52,
      "start": 6.3888,
      "duration": 0.0481,
      "velocity": 121,
      "chip": "ym2612"
    },
    {
      "channel": 4,
      "note": 56,
      "start": 6.3911,
      "duration": 0.0601,
      "velocity": 101,
      "chip": "ym2612"
    },
    {
      "channel": 0,
      "note": 63,
      "start": 6.3933,
      "duration": 0.0883,
      "velocity": 127,
      "chip": "ym2612"
    },
    {
      "channel": 1,
      "note": 73,
      "start": 6.4392,
      "duration": 0.0424,
      "velocity": 121,
      "chip": "ym2612"
    },
    {
      "channel": 2,
      "note": 61,
      "start": 6.4416,
      "duration": 0.0402,
      "velocity": 121,
      "chip": "ym2612"
    },
    {
      "channel": 1,
      "note": 73,
      "start": 6.485,
      "duration": 0.0654,
      "velocity": 121,
      "chip": "ym2612"
    },
    {
      "channel": 2,
      "note": 59,
      "start": 6.4874,
      "duration": 0.0632,
      "velocity": 121,
      "chip": "ym2612"
    },
    {
      "channel": 4,
      "note": 55,
      "start": 6.4898,
      "duration": 0.1107,
      "velocity": 101,
      "chip": "ym2612"
    },
    {
      "channel": 0,
      "note": 62,
      "start": 6.4923,
      "duration": 0.402,
      "velocity": 127,
      "chip": "ym2612"
    },
    {
      "channel": 3,
      "note": 55,
      "start": 6.4946,
      "duration": 0.4,
      "velocity": 127,
      "chip": "ym2612"
    },
    {
      "channel": 1,
      "note": 73,
      "start": 6.5534,
      "duration": 0.1137,
      "velocity": 121,
      "chip": "ym2612"
    },
    {
      "channel": 2,
      "note": 66,
      "start": 6.556,
      "duration": 0.1113,
      "velocity": 121,
      "chip": "ym2612"
    },
    {
      "channel": 1,
      "note": 73,
      "start": 6.6733,
      "duration": 0.1044,
      "velocity": 121,
      "chip": "ym2612"
    },
    {
      "channel": 2,
      "note": 61,
      "start": 6.6757,
      "duration": 0.1022,
      "velocity": 121,
      "chip": "ym2612"
    },
    {
      "channel": 4,
      "note": 55,
      "start": 6.678,
      "duration": 0.1332,
      "velocity": 101,
      "chip": "ym2612"
    },
    {
      "channel": 1,
      "note": 73,
      "start": 6.7807,
      "duration": 0.1138,
      "velocity": 121,
      "chip": "ym2612"
    },
    {
      "channel": 2,
      "note": 64,
      "start": 6.7834,
      "duration": 0.1114,
      "velocity": 121,
      "chip": "ym2612"
    },
    {
      "channel": 1,
      "note": 73,
      "start": 6.8975,
      "duration": 0.1136,
      "velocity": 121,
      "chip": "ym2612"
    },
    {
      "channel": 2,
      "note": 59,
      "start": 6.9003,
      "duration": 0.1111,
      "velocity": 121,
      "chip": "ym2612"
    },
    {
      "channel": 4,
      "note": 55,
      "start": 6.9029,
      "duration": 0.1583,
      "velocity": 101,
      "chip": "ym2612"
    },
    {
      "channel": 0,
      "note": 62,
      "start": 6.9057,
      "duration": 0.222,
      "velocity": 127,
      "chip": "ym2612"
    },
    {
      "channel": 1,
      "note": 73,
      "start": 7.0141,
      "duration": 0.1137,
      "velocity": 121,
      "chip": "ym2612"
    },
    {
      "channel": 2,
      "note": 66,
      "start": 7.0168,
      "duration": 0.1113,
      "velocity": 121,
      "chip": "ym2612"
    },
    {
      "channel": 1,
      "note": 73,
      "start": 7.1343,
      "duration": 0.0494,
      "velocity": 121,
      "chip": "ym2612"
    },
    {
      "channel": 2,
      "note": 57,
      "start": 7.1366,
      "duration": 0.0472,
      "velocity": 121,
      "chip": "ym2612"
    },
    {
      "channel": 4,
      "note": 55,
      "start": 7.139,
      "duration": 0.0593,
      "velocity": 101,
      "chip": "ym2612"
    },
    {
      "channel": 0,
      "note": 67,
      "start": 7.1411,
      "duration": 0.0873,
      "velocity": 127,
      "chip": "ym2612"
    },
    {
      "channel": 1,
      "note": 73,
      "start": 7.1861,
      "duration": 0.0423,
      "velocity": 121,
      "chip": "ym2612"
    },
    {
      "channel": 2,
      "note": 64,
      "start": 7.1885,
      "duration": 0.0401,
      "velocity": 121,
      "chip": "ym2612"
    },
    {
      "channel": 1,
      "note": 73,
      "start": 7.2318,
      "duration": 0.0646,
      "velocity": 121,
      "chip": "ym2612"
    },
    {
      "channel": 2,
      "note": 52,
      "start": 7.2341,
      "duration": 0.0626,
      "velocity": 121,
      "chip": "ym2612"
    },
    {
      "channel": 4,
      "note": 51,
      "start": 7.2365,
      "duration": 0.1769,
      "velocity": 101,
      "chip": "ym2612"
    },
    {
      "channel": 3,
      "note": 61,
      "start": 7.239,
      "duration": 0.0257,
      "velocity": 122,
      "chip": "ym2612"
    },
    {
      "channel": 0,
      "note": 50,
      "start": 7.2412,
      "duration": 0.1719,
      "velocity": 127,
      "chip": "ym2612"
    },
    {
      "channel": 1,
      "note": 73,
      "start": 7.2998,
      "duration": 0.1134,
      "velocity": 121,
      "chip": "ym2612"
    },
    {
      "channel": 2,
      "note": 66,
      "start": 7.3025,
      "duration": 0.1111,
      "velocity": 121,
      "chip": "ym2612"
    },
    {
      "channel": 3,
      "note": 61,
      "start": 7.3051,
      "duration": 0.0748,
      "velocity": 122,
      "chip": "ym2612"
    },
    {
      "channel": 1,
      "note": 73,
      "start": 7.4194,
      "duration": 0.1036,
      "velocity": 121,
      "chip": "ym2612"
    },
    {
      "channel": 2,
      "note": 61,
      "start": 7.4221,
      "duration": 0.1011,
      "velocity": 121,
      "chip": "ym2612"
    },
    {
      "channel": 4,
      "note": 52,
      "start": 7.4244,
      "duration": 0.132,
      "velocity": 101,
      "chip": "ym2612"
    },
    {
      "channel": 3,
      "note": 61,
      "start": 7.4268,
      "duration": 0.1462,
      "velocity": 122,
      "chip": "ym2612"
    },
    {
      "channel": 0,
      "note": 52,
      "start": 7.4299,
      "duration": 0.3263,
      "velocity": 127,
      "chip": "ym2612"
    },
    {
      "channel": 1,
      "note": 73,
      "start": 7.5259,
      "duration": 0.1137,
      "velocity": 121,
      "chip": "ym2612"
    },
    {
      "channel": 2,
      "note": 64,
      "start": 7.5286,
      "duration": 0.1113,
      "velocity": 121,
      "chip": "ym2612"
    },
    {
      "channel": 1,
      "note": 73,
      "start": 7.6426,
      "duration": 0.1137,
      "velocity": 121,
      "chip": "ym2612"
    },
    {
      "channel": 2,
      "note": 57,
      "start": 7.6453,
      "duration": 0.1113,
      "velocity": 121,
      "chip": "ym2612"
    },
    {
      "channel": 4,
      "note": 52,
      "start": 7.6479,
      "duration": 0.1584,
      "velocity": 101,
      "chip": "ym2612"
    },
    {
      "channel": 5,
      "note": 59,
      "start": 7.6508,
      "duration": 0.2222,
      "velocity": 127,
      "chip": "ym2612"
    },
    {
      "channel": 1,
      "note": 73,
      "start": 7.7593,
      "duration": 0.1136,
      "velocity": 121,
      "chip": "ym2612"
    },
    {
      "channel": 2,
      "note": 66,
      "start": 7.762,
      "duration": 0.1111,
      "velocity": 121,
      "chip": "ym2612"
    },
    {
      "channel": 1,
      "note": 73,
      "start": 7.8794,
      "duration": 0.0504,
      "velocity": 121,
      "chip": "ym2612"
    },
    {
      "channel": 2,
      "note": 52,
      "start": 7.8817,
      "duration": 0.0482,
      "velocity": 121,
      "chip": "ym2612"
    },
    {
      "channel": 4,
      "note": 52,
      "start": 7.8841,
      "duration": 0.0602,
      "velocity": 101,
      "chip": "ym2612"
    },
    {
      "channel": 0,
      "note": 64,
      "start": 7.8865,
      "duration": 0.0882,
      "velocity": 127,
      "chip": "ym2612"
    },
    {
      "channel": 1,
      "note": 73,
      "start": 7.9322,
      "duration": 0.0425,
      "velocity": 121,
      "chip": "ym2612"
    },
    {
      "channel": 2,
      "note": 61,
      "start": 7.9346,
      "duration": 0.0403,
      "velocity": 121,
      "chip": "ym2612"
    },
    {
      "channel": 1,
      "note": 73,
      "start": 7.9781,
      "duration": 0.0649,
      "velocity": 121,
      "chip": "ym2612"
    },
    {
      "channel": 2,
      "note": 59,
      "start": 7.9806,
      "duration": 0.0628,
      "velocity": 121,
      "chip": "ym2612"
    },
    {
      "channel": 4,
      "note": 61,
      "start": 7.9829,
      "duration": 0.1101,
      "velocity": 101,
      "chip": "ym2612"
    },
    {
      "channel": 0,
      "note": 56,
      "start": 7.9856,
      "duration": 0.4012,
      "velocity": 127,
      "chip": "ym2612"
    },
    {
      "channel": 3,
      "note": 61,
      "start": 7.9879,
      "duration": 0.3991,
      "velocity": 127,
      "chip": "ym2612"
    },
    {
      "channel": 1,
      "note": 73,
      "start": 8.0461,
      "duration": 0.1137,
      "velocity": 121,
      "chip": "ym2612"
    },
    {
      "channel": 2,
      "note": 66,
      "start": 8.0488,
      "duration": 0.1113,
      "velocity": 121,
      "chip": "ym2612"
    },
    {
      "channel": 1,
      "note": 73,
      "start": 8.1659,
      "duration": 0.0208,
      "velocity": 121,
      "chip": "ym2612"
    },
    {
      "channel": 2,
      "note": 61,
      "start": 8.1684,
      "duration": 0.102,
      "velocity": 121,
      "chip": "ym2612"
    },
    {
      "channel": 4,
      "note": 61,
      "start": 8.1707,
      "duration": 0.1328,
      "velocity": 101,
      "chip": "ym2612"
    },
    {
      "channel": 1,
      "note": 73,
      "start": 8.1897,
      "duration": 0.0305,
      "velocity": 121,
      "chip": "ym2612"
    },
    {
      "channel": 1,
      "note": 73,
      "start": 8.2231,
      "duration": 0.047,
      "velocity": 121,
      "chip": "ym2612"
    },
    {
      "channel": 1,
      "note": 73,
      "start": 8.2739,
      "duration": 0.113,
      "velocity": 121,
      "chip": "ym2612"
    },
    {
      "channel": 2,
      "note": 64,
      "start": 8.2765,
      "duration": 0.1107,
      "velocity": 121,
      "chip": "ym2612"
    },
    {
      "channel": 1,
      "note": 73,
      "start": 8.39,
      "duration": 0.1135,
      "velocity": 121,
      "chip": "ym2612"
    },
    {
      "channel": 2,
      "note": 59,
      "start": 8.3927,
      "duration": 0.111,
      "velocity": 121,
      "chip": "ym2612"
    },
    {
      "channel": 4,
      "note": 61,
      "start": 8.3953,
      "duration": 0.1583,
      "velocity": 101,
      "chip": "ym2612"
    },
    {
      "channel": 0,
      "note": 56,
      "start": 8.3981,
      "duration": 0.2219,
      "velocity": 127,
      "chip": "ym2612"
    },
    {
      "channel": 1,
      "note": 73,
      "start": 8.5064,
      "duration": 0.1137,
      "velocity": 121,
      "chip": "ym2612"
    },
    {
      "channel": 2,
      "note": 66,
      "start": 8.5092,
      "duration": 0.1113,
      "velocity": 121,
      "chip": "ym2612"
    },
    {
      "channel": 1,
      "note": 73,
      "start": 8.6269,
      "duration": 0.0501,
      "velocity": 121,
      "chip": "ym2612"
    },
    {
      "channel": 2,
      "note": 57,
      "start": 8.6295,
      "duration": 0.0477,
      "velocity": 121,
      "chip": "ym2612"
    },
    {
      "channel": 4,
      "note": 61,
      "start": 8.6322,
      "duration": 0.0589,
      "velocity": 101,
      "chip": "ym2612"
    },
    {
      "channel": 0,
      "note": 49,
      "start": 8.6344,
      "duration": 0.0884,
      "velocity": 127,
      "chip": "ym2612"
    },
    {
      "channel": 1,
      "note": 73,
      "start": 8.6795,
      "duration": 0.0434,
      "velocity": 121,
      "chip": "ym2612"
    },
    {
      "channel": 2,
      "note": 64,
      "start": 8.6818,
      "duration": 0.0412,
      "velocity": 121,
      "chip": "ym2612"
    },
    {
      "channel": 1,
      "note": 73,
      "start": 8.7253,
      "duration": 0.0658,
      "velocity": 121,
      "chip": "ym2612"
    },
    {
      "channel": 2,
      "note": 52,
      "start": 8.7286,
      "duration": 0.0627,
      "velocity": 121,
      "chip": "ym2612"
    },
    {
      "channel": 4,
      "note": 55,
      "start": 8.731,
      "duration": 0.1769,
      "velocity": 101,
      "chip": "ym2612"
    },
    {
      "channel": 0,
      "note": 54,
      "start": 8.7334,
      "duration": 0.1742,
      "velocity": 127,
      "chip": "ym2612"
    },
    {
      "channel": 1,
      "note": 73,
      "start": 8.794,
      "duration": 0.1137,
      "velocity": 121,
      "chip": "ym2612"
    },
    {
      "channel": 2,
      "note": 66,
      "start": 8.7967,
      "duration": 0.1114,
      "velocity": 121,
      "chip": "ym2612"
    },
    {
      "channel": 1,
      "note": 73,
      "start": 8.9139,
      "duration": 0.1037,
      "velocity": 121,
      "chip": "ym2612"
    },
    {
      "channel": 2,
      "note": 61,
      "start": 8.9165,
      "duration": 0.1013,
      "velocity": 121,
      "chip": "ym2612"
    },
    {
      "channel": 4,
      "note": 56,
      "start": 8.919,
      "duration": 0.1321,
      "velocity": 101,
      "chip": "ym2612"
    },
    {
      "channel": 3,
      "note": 61,
      "start": 8.9215,
      "duration": 0.1461,
      "velocity": 122,
      "chip": "ym2612"
    },
    {
      "channel": 0,
      "note": 56,
      "start": 8.9247,
      "duration": 0.443,
      "velocity": 127,
      "chip": "ym2612"
    },
    {
      "channel": 1,
      "note": 73,
      "start": 9.0206,
      "duration": 0.1138,
      "velocity": 121,
      "chip": "ym2612"
    },
    {
      "channel": 2,
      "note": 64,
      "start": 9.0233,
      "duration": 0.1113,
      "velocity": 121,
      "chip": "ym2612"
    },
    {
      "channel": 1,
      "note": 73,
      "start": 9.1373,
      "duration": 0.1137,
      "velocity": 121,
      "chip": "ym2612"
    },
    {
      "channel": 2,
      "note": 57,
      "start": 9.14,
      "duration": 0.1113,
      "velocity": 121,
      "chip": "ym2612"
    },
    {
      "channel": 4,
      "note": 56,
      "start": 9.1427,
      "duration": 0.1418,
      "velocity": 101,
      "chip": "ym2612"
    },
    {
      "channel": 5,
      "note": 63,
      "start": 9.1456,
      "duration": 0.2224,
      "velocity": 127,
      "chip": "ym2612"
    },
    {
      "channel": 1,
      "note": 73,
      "start": 9.254,
      "duration": 0.1137,
      "velocity": 121,
      "chip": "ym2612"
    },
    {
      "channel": 2,
      "note": 66,
      "start": 9.2567,
      "duration": 0.1114,
      "velocity": 121,
      "chip": "ym2612"
    },
    {
      "channel": 1,
      "note": 73,
      "start": 9.3743,
      "duration": 0.0503,
      "velocity": 121,
      "chip": "ym2612"
    },
    {
      "channel": 2,
      "note": 52,
      "start": 9.3769,
      "duration": 0.0479,
      "velocity": 121,
      "chip": "ym2612"
    },
    {
      "channel": 4,
      "note": 56,
      "start": 9.3792,
      "duration": 0.0595,
      "velocity": 101,
      "chip": "ym2612"
    },
    {
      "channel": 0,
      "note": 68,
      "start": 9.3815,
      "duration": 0.0888,
      "velocity": 127,
      "chip": "ym2612"
    },
    {
      "channel": 1,
      "note": 73,
      "start": 9.4271,
      "duration": 0.0433,
      "velocity": 121,
      "chip": "ym2612"
    },
    {
      "channel": 2,
      "note": 61,
      "start": 9.4295,
      "duration": 0.041,
      "velocity": 121,
      "chip": "ym2612"
    },
    {
      "channel": 1,
      "note": 73,
      "start": 9.4737,
      "duration": 0.063,
      "velocity": 121,
      "chip": "ym2612"
    },
    {
      "channel": 2,
      "note": 59,
      "start": 9.4761,
      "duration": 0.0609,
      "velocity": 121,
      "chip": "ym2612"
    },
    {
      "channel": 4,
      "note": 55,
      "start": 9.4785,
      "duration": 0.4024,
      "velocity": 101,
      "chip": "ym2612"
    },
    {
      "channel": 0,
      "note": 62,
      "start": 9.4813,
      "duration": 0.3993,
      "velocity": 127,
      "chip": "ym2612"
    },
    {
      "channel": 3,
      "note": 55,
      "start": 9.4836,
      "duration": 0.3973,
      "velocity": 127,
      "chip": "ym2612"
    },
    {
      "channel": 1,
      "note": 73,
      "start": 9.5397,
      "duration": 0.1138,
      "velocity": 121,
      "chip": "ym2612"
    },
    {
      "channel": 2,
      "note": 66,
      "start": 9.5424,
      "duration": 0.1113,
      "velocity": 121,
      "chip": "ym2612"
    },
    {
      "channel": 1,
      "note": 73,
      "start": 9.6595,
      "duration": 0.1045,
      "velocity": 121,
      "chip": "ym2612"
    },
    {
      "channel": 2,
      "note": 61,
      "start": 9.6619,
      "duration": 0.1023,
      "velocity": 121,
      "chip": "ym2612"
    },
    {
      "channel": 1,
      "note": 73,
      "start": 9.7673,
      "duration": 0.1134,
      "velocity": 121,
      "chip": "ym2612"
    },
    {
      "channel": 2,
      "note": 64,
      "start": 9.77,
      "duration": 0.1112,
      "velocity": 121,
      "chip": "ym2612"
    },
    {
      "channel": 1,
      "note": 73,
      "start": 9.8839,
      "duration": 0.1134,
      "velocity": 121,
      "chip": "ym2612"
    },
    {
      "channel": 2,
      "note": 59,
      "start": 9.8866,
      "duration": 0.111,
      "velocity": 121,
      "chip": "ym2612"
    },
    {
      "channel": 4,
      "note": 52,
      "start": 9.8895,
      "duration": 0.1412,
      "velocity": 101,
      "chip": "ym2612"
    },
    {
      "channel": 0,
      "note": 59,
      "start": 9.8922,
      "duration": 0.3217,
      "velocity": 127,
      "chip": "ym2612"
    },
    {
      "channel": 3,
      "note": 52,
      "start": 9.8947,
      "duration": 0.3192,
      "velocity": 127,
      "chip": "ym2612"
    },
    {
      "channel": 1,
      "note": 73,
      "start": 10.0003,
      "duration": 0.1137,
      "velocity": 121,
      "chip": "ym2612"
    },
    {
      "channel": 2,
      "note": 66,
      "start": 10.003,
      "duration": 0.1113,
      "velocity": 121,
      "chip": "ym2612"
    },
    {
      "channel": 1,
      "note": 73,
      "start": 10.1203,
      "duration": 0.0486,
      "velocity": 121,
      "chip": "ym2612"
    },
    {
      "channel": 2,
      "note": 57,
      "start": 10.1228,
      "duration": 0.0463,
      "velocity": 121,
      "chip": "ym2612"
    },
    {
      "channel": 4,
      "note": 52,
      "start": 10.1252,
      "duration": 0.1594,
      "velocity": 101,
      "chip": "ym2612"
    },
    {
      "channel": 1,
      "note": 73,
      "start": 10.1714,
      "duration": 0.0425,
      "velocity": 121,
      "chip": "ym2612"
    },
    {
      "channel": 2,
      "note": 64,
      "start": 10.1737,
      "duration": 0.0404,
      "velocity": 121,
      "chip": "ym2612"
    },
    {
      "channel": 1,
      "note": 73,
      "start": 10.2174,
      "duration": 0.067,
      "velocity": 121,
      "chip": "ym2612"
    },
    {
      "channel": 2,
      "note": 52,
      "start": 10.2198,
      "duration": 0.065,
      "velocity": 121,
      "chip": "ym2612"
    },
    {
      "channel": 0,
      "note": 61,
      "start": 10.2227,
      "duration": 0.0283,
      "velocity": 122,
      "chip": "ym2612"
    },
    {
      "channel": 3,
      "note": 48,
      "start": 10.2253,
      "duration": 0.176,
      "velocity": 127,
      "chip": "ym2612"
    },
    {
      "channel": 1,
      "note": 73,
      "start": 10.2875,
      "duration": 0.1137,
      "velocity": 121,
      "chip": "ym2612"
    },
    {
      "channel": 2,
      "note": 66,
      "start": 10.2902,
      "duration": 0.1113,
      "velocity": 121,
      "chip": "ym2612"
    },
    {
      "channel": 0,
      "note": 61,
      "start": 10.2931,
      "duration": 0.0746,
      "velocity": 122,
      "chip": "ym2612"
    },
    {
      "channel": 1,
      "note": 73,
      "start": 10.4073,
      "duration": 0.1043,
      "velocity": 121,
      "chip": "ym2612"
    },
    {
      "channel": 2,
      "note": 61,
      "start": 10.41,
      "duration": 0.1018,
      "velocity": 121,
      "chip": "ym2612"
    },
    {
      "channel": 4,
      "note": 59,
      "start": 10.4128,
      "duration": 0.1321,
      "velocity": 101,
      "chip": "ym2612"
    },
    {
      "channel": 0,
      "note": 61,
      "start": 10.4154,
      "duration": 0.1127,
      "velocity": 122,
      "chip": "ym2612"
    },
    {
      "channel": 3,
      "note": 47,
      "start": 10.4187,
      "duration": 0.443,
      "velocity": 127,
      "chip": "ym2612"
    },
    {
      "channel": 1,
      "note": 73,
      "start": 10.5146,
      "duration": 0.1136,
      "velocity": 121,
      "chip": "ym2612"
    },
    {
      "channel": 2,
      "note": 64,
      "start": 10.5173,
      "duration": 0.1112,
      "velocity": 121,
      "chip": "ym2612"
    },
    {
      "channel": 1,
      "note": 73,
      "start": 10.6312,
      "duration": 0.1136,
      "velocity": 121,
      "chip": "ym2612"
    },
    {
      "channel": 2,
      "note": 57,
      "start": 10.6339,
      "duration": 0.1112,
      "velocity": 121,
      "chip": "ym2612"
    },
    {
      "channel": 4,
      "note": 59,
      "start": 10.6365,
      "duration": 0.1418,
      "velocity": 101,
      "chip": "ym2612"
    },
    {
      "channel": 5,
      "note": 54,
      "start": 10.6394,
      "duration": 0.2224,
      "velocity": 127,
      "chip": "ym2612"
    },
    {
      "channel": 1,
      "note": 73,
      "start": 10.7479,
      "duration": 0.1137,
      "velocity": 121,
      "chip": "ym2612"
    },
    {
      "channel": 2,
      "note": 66,
      "start": 10.7506,
      "duration": 0.1114,
      "velocity": 121,
      "chip": "ym2612"
    },
    {
      "channel": 1,
      "note": 73,
      "start": 10.8682,
      "duration": 0.0442,
      "velocity": 121,
      "chip": "ym2612"
    },
    {
      "channel": 2,
      "note": 52,
      "start": 10.8707,
      "duration": 0.0418,
      "velocity": 121,
      "chip": "ym2612"
    },
    {
      "channel": 4,
      "note": 59,
      "start": 10.873,
      "duration": 0.06,
      "velocity": 101,
      "chip": "ym2612"
    },
    {
      "channel": 3,
      "note": 59,
      "start": 10.8755,
      "duration": 0.0885,
      "velocity": 127,
      "chip": "ym2612"
    },
    {
      "channel": 1,
      "note": 73,
      "start": 10.9159,
      "duration": 0.048,
      "velocity": 121,
      "chip": "ym2612"
    },
    {
      "channel": 2,
      "note": 61,
      "start": 10.9183,
      "duration": 0.0459,
      "velocity": 121,
      "chip": "ym2612"
    },
    {
      "channel": 1,
      "note": 73,
      "start": 10.9673,
      "duration": 0.0635,
      "velocity": 121,
      "chip": "ym2612"
    },
    {
      "channel": 2,
      "note": 59,
      "start": 10.9697,
      "duration": 0.0614,
      "velocity": 121,
      "chip": "ym2612"
    },
    {
      "channel": 4,
      "note": 62,
      "start": 10.9722,
      "duration": 0.4029,
      "velocity": 101,
      "chip": "ym2612"
    },
    {
      "channel": 3,
      "note": 57,
      "start": 10.9752,
      "duration": 0.3998,
      "velocity": 127,
      "chip": "ym2612"
    },
    {
      "channel": 0,
      "note": 62,
      "start": 10.9786,
      "duration": 0.396,
      "velocity": 127,
      "chip": "ym2612"
    },
    {
      "channel": 1,
      "note": 73,
      "start": 11.0344,
      "duration": 0.0298,
      "velocity": 121,
      "chip": "ym2612"
    },
    {
      "channel": 2,
      "note": 66,
      "start": 11.0372,
      "duration": 0.1106,
      "velocity": 121,
      "chip": "ym2612"
    },
    {
      "channel": 1,
      "note": 73,
      "start": 11.0671,
      "duration": 0.047,
      "velocity": 121,
      "chip": "ym2612"
    },
    {
      "channel": 1,
      "note": 73,
      "start": 11.117,
      "duration": 0.0305,
      "velocity": 121,
      "chip": "ym2612"
    },
    {
      "channel": 1,
      "note": 73,
      "start": 11.1538,
      "duration": 0.0876,
      "velocity": 121,
      "chip": "ym2612"
    },
    {
      "channel": 2,
      "note": 61,
      "start": 11.1563,
      "duration": 0.0853,
      "velocity": 121,
      "chip": "ym2612"
    },
    {
      "channel": 1,
      "note": 73,
      "start": 11.2444,
      "duration": 0.1305,
      "velocity": 121,
      "chip": "ym2612"
    },
    {
      "channel": 2,
      "note": 64,
      "start": 11.2471,
      "duration": 0.1281,
      "velocity": 121,
      "chip": "ym2612"
    },
    {
      "channel": 1,
      "note": 73,
      "start": 11.378,
      "duration": 0.1136,
      "velocity": 121,
      "chip": "ym2612"
    },
    {
      "channel": 2,
      "note": 59,
      "start": 11.3807,
      "duration": 0.1111,
      "velocity": 121,
      "chip": "ym2612"
    },
    {
      "channel": 4,
      "note": 61,
      "start": 11.3837,
      "duration": 0.1413,
      "velocity": 101,
      "chip": "ym2612"
    },
    {
      "channel": 0,
      "note": 56,
      "start": 11.3864,
      "duration": 0.3079,
      "velocity": 127,
      "chip": "ym2612"
    },
    {
      "channel": 3,
      "note": 61,
      "start": 11.389,
      "duration": 0.3054,
      "velocity": 127,
      "chip": "ym2612"
    },
    {
      "channel": 1,
      "note": 73,
      "start": 11.4945,
      "duration": 0.1136,
      "velocity": 121,
      "chip": "ym2612"
    },
    {
      "channel": 2,
      "note": 66,
      "start": 11.4972,
      "duration": 0.1112,
      "velocity": 121,
      "chip": "ym2612"
    },
    {
      "channel": 1,
      "note": 73,
      "start": 11.6149,
      "duration": 0.0439,
      "velocity": 121,
      "chip": "ym2612"
    },
    {
      "channel": 2,
      "note": 57,
      "start": 11.6173,
      "duration": 0.0417,
      "velocity": 121,
      "chip": "ym2612"
    },
    {
      "channel": 4,
      "note": 61,
      "start": 11.6196,
      "duration": 0.0613,
      "velocity": 101,
      "chip": "ym2612"
    },
    {
      "channel": 1,
      "note": 73,
      "start": 11.6651,
      "duration": 0.047,
      "velocity": 121,
      "chip": "ym2612"
    },
    {
      "channel": 2,
      "note": 64,
      "start": 11.6676,
      "duration": 0.0446,
      "velocity": 121,
      "chip": "ym2612"
    },
    {
      "channel": 1,
      "note": 73,
      "start": 11.7182,
      "duration": 0.0426,
      "velocity": 121,
      "chip": "ym2612"
    },
    {
      "channel": 2,
      "note": 52,
      "start": 11.7206,
      "duration": 0.0403,
      "velocity": 121,
      "chip": "ym2612"
    },
    {
      "channel": 4,
      "note": 60,
      "start": 11.7229,
      "duration": 0.0547,
      "velocity": 101,
      "chip": "ym2612"
    },
    {
      "channel": 0,
      "note": 55,
      "start": 11.7254,
      "duration": 0.0832,
      "velocity": 127,
      "chip": "ym2612"
    },
    {
      "channel": 1,
      "note": 73,
      "start": 11.7669,
      "duration": 0.0417,
      "velocity": 121,
      "chip": "ym2612"
    },
    {
      "channel": 2,
      "note": 66,
      "start": 11.77,
      "duration": 0.0388,
      "velocity": 121,
      "chip": "ym2612"
    },
    {
      "channel": 1,
      "note": 73,
      "start": 11.8156,
      "duration": 0.0821,
      "velocity": 121,
      "chip": "ym2612"
    },
    {
      "channel": 4,
      "note": 61,
      "start": 11.8179,
      "duration": 0.1299,
      "velocity": 101,
      "chip": "ym2612"
    },
    {
      "channel": 3,
      "note": 61,
      "start": 11.8206,
      "duration": 1.9071,
      "velocity": 122,
      "chip": "ym2612"
    },
    {
      "channel": 0,
      "note": 49,
      "start": 11.8235,
      "duration": 0.2075,
      "velocity": 106,
      "chip": "ym2612"
    },
    {
      "channel": 1,
      "note": 73,
      "start": 11.9006,
      "duration": 0.1305,
      "velocity": 121,
      "chip": "ym2612"
    },
    {
      "channel": 1,
      "note": 73,
      "start": 12.0372,
      "duration": 0.0874,
      "velocity": 121,
      "chip": "ym2612"
    },
    {
      "channel": 4,
      "note": 61,
      "start": 12.0394,
      "duration": 0.1186,
      "velocity": 101,
      "chip": "ym2612"
    },
    {
      "channel": 0,
      "note": 61,
      "start": 12.0417,
      "duration": 0.1994,
      "velocity": 106,
      "chip": "ym2612"
    },
    {
      "channel": 1,
      "note": 73,
      "start": 12.1278,
      "duration": 0.1134,
      "velocity": 121,
      "chip": "ym2612"
    },
    {
      "channel": 1,
      "note": 73,
      "start": 12.2476,
      "duration": 0.0432,
      "velocity": 121,
      "chip": "ym2612"
    },
    {
      "channel": 4,
      "note": 61,
      "start": 12.2498,
      "duration": 0.06,
      "velocity": 101,
      "chip": "ym2612"
    },
    {
      "channel": 0,
      "note": 68,
      "start": 12.2521,
      "duration": 0.0895,
      "velocity": 106,
      "chip": "ym2612"
    },
    {
      "channel": 1,
      "note": 73,
      "start": 12.2931,
      "duration": 0.0485,
      "velocity": 121,
      "chip": "ym2612"
    },
    {
      "channel": 1,
      "note": 73,
      "start": 12.3473,
      "duration": 0.0834,
      "velocity": 121,
      "chip": "ym2612"
    },
    {
      "channel": 4,
      "note": 61,
      "start": 12.35,
      "duration": 0.1142,
      "velocity": 101,
      "chip": "ym2612"
    },
    {
      "channel": 0,
      "note": 61,
      "start": 12.3523,
      "duration": 0.1951,
      "velocity": 106,
      "chip": "ym2612"
    },
    {
      "channel": 1,
      "note": 73,
      "start": 12.4336,
      "duration": 0.1139,
      "velocity": 121,
      "chip": "ym2612"
    },
    {
      "channel": 1,
      "note": 73,
      "start": 12.5535,
      "duration": 0.0874,
      "velocity": 121,
      "chip": "ym2612"
    },
    {
      "channel": 4,
      "note": 61,
      "start": 12.5559,
      "duration": 0.1351,
      "velocity": 101,
      "chip": "ym2612"
    },
    {
      "channel": 0,
      "note": 73,
      "start": 12.558,
      "duration": 0.2162,
      "velocity": 106,
      "chip": "ym2612"
    },
    {
      "channel": 1,
      "note": 73,
      "start": 12.6438,
      "duration": 0.1305,
      "velocity": 121,
      "chip": "ym2612"
    },
    {
      "channel": 1,
      "note": 73,
      "start": 12.7804,
      "duration": 0.0874,
      "velocity": 121,
      "chip": "ym2612"
    },
    {
      "channel": 4,
      "note": 61,
      "start": 12.7826,
      "duration": 0.1185,
      "velocity": 101,
      "chip": "ym2612"
    },
    {
      "channel": 0,
      "note": 68,
      "start": 12.7849,
      "duration": 0.1994,
      "velocity": 106,
      "chip": "ym2612"
    },
    {
      "channel": 1,
      "note": 73,
      "start": 12.8707,
      "duration": 0.1137,
      "velocity": 121,
      "chip": "ym2612"
    },
    {
      "channel": 1,
      "note": 73,
      "start": 12.9907,
      "duration": 0.0435,
      "velocity": 121,
      "chip": "ym2612"
    },
    {
      "channel": 4,
      "note": 61,
      "start": 12.9932,
      "duration": 0.0599,
      "velocity": 101,
      "chip": "ym2612"
    },
    {
      "channel": 0,
      "note": 61,
      "start": 12.9956,
      "duration": 0.0894,
      "velocity": 106,
      "chip": "ym2612"
    },
    {
      "channel": 1,
      "note": 73,
      "start": 13.0365,
      "duration": 0.0485,
      "velocity": 121,
      "chip": "ym2612"
    },
    {
      "channel": 1,
      "note": 73,
      "start": 13.0907,
      "duration": 0.0829,
      "velocity": 121,
      "chip": "ym2612"
    },
    {
      "channel": 4,
      "note": 61,
      "start": 13.093,
      "duration": 0.114,
      "velocity": 101,
      "chip": "ym2612"
    },
    {
      "channel": 0,
      "note": 74,
      "start": 13.0952,
      "duration": 0.1949,
      "velocity": 106,
      "chip": "ym2612"
    },
    {
      "channel": 1,
      "note": 73,
      "start": 13.1765,
      "duration": 0.1137,
      "velocity": 121,
      "chip": "ym2612"
    },
    {
      "channel": 1,
      "note": 73,
      "start": 13.2962,
      "duration": 0.0878,
      "velocity": 121,
      "chip": "ym2612"
    },
    {
      "channel": 4,
      "note": 61,
      "start": 13.2987,
      "duration": 0.1354,
      "velocity": 101,
      "chip": "ym2612"
    },
    {
      "channel": 0,
      "note": 73,
      "start": 13.3011,
      "duration": 0.2162,
      "velocity": 106,
      "chip": "ym2612"
    },
    {
      "channel": 1,
      "note": 73,
      "start": 13.3869,
      "duration": 0.1305,
      "velocity": 121,
      "chip": "ym2612"
    },
    {
      "channel": 1,
      "note": 73,
      "start": 13.5235,
      "duration": 0.0874,
      "velocity": 121,
      "chip": "ym2612"
    },
    {
      "channel": 4,
      "note": 61,
      "start": 13.5257,
      "duration": 0.1186,
      "velocity": 101,
      "chip": "ym2612"
    },
    {
      "channel": 0,
      "note": 68,
      "start": 13.528,
      "duration": 0.1995,
      "velocity": 106,
      "chip": "ym2612"
    },
    {
      "channel": 1,
      "note": 73,
      "start": 13.6142,
      "duration": 0.1134,
      "velocity": 121,
      "chip": "ym2612"
    },
    {
      "channel": 1,
      "note": 73,
      "start": 13.734,
      "duration": 0.0439,
      "velocity": 121,
      "chip": "ym2612"
    },
    {
      "channel": 4,
      "note": 61,
      "start": 13.7364,
      "duration": 0.0606,
      "velocity": 101,
      "chip": "ym2612"
    },
    {
      "channel": 3,
      "note": 61,
      "start": 13.7386,
      "duration": 0.7354,
      "velocity": 122,
      "chip": "ym2612"
    },
    {
      "channel": 0,
      "note": 61,
      "start": 13.7409,
      "duration": 0.0875,
      "velocity": 106,
      "chip": "ym2612"
    },
    {
      "channel": 1,
      "note": 73,
      "start": 13.7813,
      "duration": 0.0471,
      "velocity": 121,
      "chip": "ym2612"
    },
    {
      "channel": 1,
      "note": 73,
      "start": 13.8345,
      "duration": 0.0855,
      "velocity": 121,
      "chip": "ym2612"
    },
    {
      "channel": 4,
      "note": 61,
      "start": 13.8367,
      "duration": 0.4273,
      "velocity": 101,
      "chip": "ym2612"
    },
    {
      "channel": 0,
      "note": 69,
      "start": 13.8391,
      "duration": 0.1975,
      "velocity": 106,
      "chip": "ym2612"
    },
    {
      "channel": 1,
      "note": 73,
      "start": 13.9229,
      "duration": 0.1139,
      "velocity": 121,
      "chip": "ym2612"
    },
    {
      "channel": 1,
      "note": 73,
      "start": 14.0429,
      "duration": 0.0106,
      "velocity": 121,
      "chip": "ym2612"
    },
    {
      "channel": 0,
      "note": 68,
      "start": 14.0451,
      "duration": 0.2186,
      "velocity": 106,
      "chip": "ym2612"
    },
    {
      "channel": 1,
      "note": 73,
      "start": 14.0561,
      "duration": 0.041,
      "velocity": 121,
      "chip": "ym2612"
    },
    {
      "channel": 1,
      "note": 73,
      "start": 14.1,
      "duration": 0.0305,
      "velocity": 121,
      "chip": "ym2612"
    },
    {
      "channel": 1,
      "note": 73,
      "start": 14.1337,
      "duration": 0.1302,
      "velocity": 121,
      "chip": "ym2612"
    },
    {
      "channel": 1,
      "note": 73,
      "start": 14.27,
      "duration": 0.0873,
      "velocity": 121,
      "chip": "ym2612"
    },
    {
      "channel": 4,
      "note": 61,
      "start": 14.2726,
      "duration": 0.1181,
      "velocity": 101,
      "chip": "ym2612"
    },
    {
      "channel": 0,
      "note": 61,
      "start": 14.2746,
      "duration": 0.1992,
      "velocity": 106,
      "chip": "ym2612"
    },
    {
      "channel": 1,
      "note": 73,
      "start": 14.3602,
      "duration": 0.1137,
      "velocity": 121,
      "chip": "ym2612"
    },
    {
      "channel": 1,
      "note": 73,
      "start": 14.4804,
      "duration": 0.0432,
      "velocity": 121,
      "chip": "ym2612"
    },
    {
      "channel": 4,
      "note": 61,
      "start": 14.4827,
      "duration": 0.091,
      "velocity": 101,
      "chip": "ym2612"
    },
    {
      "channel": 3,
      "note": 61,
      "start": 14.4849,
      "duration": 0.2972,
      "velocity": 122,
      "chip": "ym2612"
    },
    {
      "channel": 0,
      "note": 49,
      "start": 14.4873,
      "duration": 0.0863,
      "velocity": 106,
      "chip": "ym2612"
    },
    {
      "channel": 1,
      "note": 73,
      "start": 14.5272,
      "duration": 0.0464,
      "velocity": 121,
      "chip": "ym2612"
    },
    {
      "channel": 1,
      "note": 73,
      "start": 14.5795,
      "duration": 0.0859,
      "velocity": 121,
      "chip": "ym2612"
    },
    {
      "channel": 4,
      "note": 59,
      "start": 14.582,
      "duration": 0.2002,
      "velocity": 101,
      "chip": "ym2612"
    },
    {
      "channel": 0,
      "note": 73,
      "start": 14.5844,
      "duration": 0.1975,
      "velocity": 106,
      "chip": "ym2612"
    },
    {
      "channel": 1,
      "note": 73,
      "start": 14.6683,
      "duration": 0.1137,
      "velocity": 121,
      "chip": "ym2612"
    },
    {
      "channel": 1,
      "note": 73,
      "start": 14.7885,
      "duration": 0.0872,
      "velocity": 121,
      "chip": "ym2612"
    },
    {
      "channel": 4,
      "note": 61,
      "start": 14.791,
      "duration": 0.1349,
      "velocity": 101,
      "chip": "ym2612"
    },
    {
      "channel": 3,
      "note": 61,
      "start": 14.794,
      "duration": 1.1687,
      "velocity": 122,
      "chip": "ym2612"
    },
    {
      "channel": 0,
      "note": 49,
      "start": 14.7965,
      "duration": 0.2125,
      "velocity": 106,
      "chip": "ym2612"
    },
    {
      "channel": 1,
      "note": 73,
      "start": 14.8786,
      "duration": 0.1305,
      "velocity": 121,
      "chip": "ym2612"
    },
    {
      "channel": 1,
      "note": 73,
      "start": 15.0152,
      "duration": 0.0873,
      "velocity": 121,
      "chip": "ym2612"
    },
    {
      "channel": 4,
      "note": 61,
      "start": 15.0173,
      "duration": 0.1184,
      "velocity": 101,
      "chip": "ym2612"
    },
    {
      "channel": 0,
      "note": 61,
      "start": 15.0197,
      "duration": 0.1992,
      "velocity": 106,
      "chip": "ym2612"
    },
    {
      "channel": 1,
      "note": 73,
      "start": 15.1053,
      "duration": 0.1138,
      "velocity": 121,
      "chip": "ym2612"
    },
    {
      "channel": 1,
      "note": 73,
      "start": 15.2254,
      "duration": 0.0427,
      "velocity": 121,
      "chip": "ym2612"
    },
    {
      "channel": 4,
      "note": 61,
      "start": 15.2276,
      "duration": 0.06,
      "velocity": 101,
      "chip": "ym2612"
    },
    {
      "channel": 0,
      "note": 68,
      "start": 15.2299,
      "duration": 0.0892,
      "velocity": 106,
      "chip": "ym2612"
    },
    {
      "channel": 1,
      "note": 73,
      "start": 15.2706,
      "duration": 0.0486,
      "velocity": 121,
      "chip": "ym2612"
    },
    {
      "channel": 1,
      "note": 73,
      "start": 15.3251,
      "duration": 0.0829,
      "velocity": 121,
      "chip": "ym2612"
    },
    {
      "channel": 4,
      "note": 61,
      "start": 15.3275,
      "duration": 0.1139,
      "velocity": 101,
      "chip": "ym2612"
    },
    {
      "channel": 0,
      "note": 61,
      "start": 15.3297,
      "duration": 0.195,
      "velocity": 106,
      "chip": "ym2612"
    },
    {
      "channel": 1,
      "note": 73,
      "start": 15.4109,
      "duration": 0.1139,
      "velocity": 121,
      "chip": "ym2612"
    },
    {
      "channel": 1,
      "note": 73,
      "start": 15.5309,
      "duration": 0.0878,
      "velocity": 121,
      "chip": "ym2612"
    },
    {
      "channel": 4,
      "note": 61,
      "start": 15.5333,
      "duration": 0.1355,
      "velocity": 101,
      "chip": "ym2612"
    },
    {
      "channel": 0,
      "note": 73,
      "start": 15.5355,
      "duration": 0.1998,
      "velocity": 106,
      "chip": "ym2612"
    },
    {
      "channel": 1,
      "note": 73,
      "start": 15.6216,
      "duration": 0.1139,
      "velocity": 121,
      "chip": "ym2612"
    },
    {
      "channel": 1,
      "note": 73,
      "start": 15.7415,
      "duration": 0.1041,
      "velocity": 121,
      "chip": "ym2612"
    },
    {
      "channel": 4,
      "note": 61,
      "start": 15.7439,
      "duration": 0.1352,
      "velocity": 101,
      "chip": "ym2612"
    },
    {
      "channel": 0,
      "note": 68,
      "start": 15.7461,
      "duration": 0.2162,
      "velocity": 106,
      "chip": "ym2612"
    },
    {
      "channel": 1,
      "note": 73,
      "start": 15.8486,
      "duration": 0.1139,
      "velocity": 121,
      "chip": "ym2612"
    },
    {
      "channel": 1,
      "note": 73,
      "start": 15.969,
      "duration": 0.0439,
      "velocity": 121,
      "chip": "ym2612"
    },
    {
      "channel": 4,
      "note": 61,
      "start": 15.9712,
      "duration": 0.0611,
      "velocity": 101,
      "chip": "ym2612"
    },
    {
      "channel": 3,
      "note": 61,
      "start": 15.9738,
      "duration": 1.2756,
      "velocity": 122,
      "chip": "ym2612"
    },
    {
      "channel": 0,
      "note": 61,
      "start": 15.9761,
      "duration": 0.0819,
      "velocity": 106,
      "chip": "ym2612"
    },
    {
      "channel": 1,
      "note": 73,
      "start": 16.0165,
      "duration": 0.0415,
      "velocity": 121,
      "chip": "ym2612"
    },
    {
      "channel": 1,
      "note": 73,
      "start": 16.0638,
      "duration": 0.1022,
      "velocity": 121,
      "chip": "ym2612"
    },
    {
      "channel": 4,
      "note": 61,
      "start": 16.0661,
      "duration": 0.1332,
      "velocity": 101,
      "chip": "ym2612"
    },
    {
      "channel": 0,
      "note": 74,
      "start": 16.0683,
      "duration": 0.2142,
      "velocity": 106,
      "chip": "ym2612"
    },
    {
      "channel": 1,
      "note": 73,
      "start": 16.1688,
      "duration": 0.1138,
      "velocity": 121,
      "chip": "ym2612"
    },
    {
      "channel": 1,
      "note": 73,
      "start": 16.2887,
      "duration": 0.0877,
      "velocity": 121,
      "chip": "ym2612"
    },
    {
      "channel": 4,
      "note": 61,
      "start": 16.2908,
      "duration": 0.1356,
      "velocity": 101,
      "chip": "ym2612"
    },
    {
      "channel": 0,
      "note": 73,
      "start": 16.2932,
      "duration": 0.1998,
      "velocity": 106,
      "chip": "ym2612"
    },
    {
      "channel": 1,
      "note": 73,
      "start": 16.3792,
      "duration": 0.1138,
      "velocity": 121,
      "chip": "ym2612"
    },
    {
      "channel": 1,
      "note": 73,
      "start": 16.4991,
      "duration": 0.1043,
      "velocity": 121,
      "chip": "ym2612"
    },
    {
      "channel": 4,
      "note": 61,
      "start": 16.5013,
      "duration": 0.1355,
      "velocity": 101,
      "chip": "ym2612"
    },
    {
      "channel": 0,
      "note": 68,
      "start": 16.5036,
      "duration": 0.2164,
      "velocity": 106,
      "chip": "ym2612"
    },
    {
      "channel": 1,
      "note": 73,
      "start": 16.6062,
      "duration": 0.1139,
      "velocity": 121,
      "chip": "ym2612"
    },
    {
      "channel": 1,
      "note": 73,
      "start": 16.7265,
      "duration": 0.0426,
      "velocity": 121,
      "chip": "ym2612"
    },
    {
      "channel": 4,
      "note": 61,
      "start": 16.7287,
      "duration": 0.06,
      "velocity": 101,
      "chip": "ym2612"
    },
    {
      "channel": 0,
      "note": 61,
      "start": 16.731,
      "duration": 0.0826,
      "velocity": 106,
      "chip": "ym2612"
    },
    {
      "channel": 1,
      "note": 73,
      "start": 16.7715,
      "duration": 0.0423,
      "velocity": 121,
      "chip": "ym2612"
    },
    {
      "channel": 1,
      "note": 73,
      "start": 16.8204,
      "duration": 0.1019,
      "velocity": 121,
      "chip": "ym2612"
    },
    {
      "channel": 4,
      "note": 56,
      "start": 16.8228,
      "duration": 0.4267,
      "velocity": 101,
      "chip": "ym2612"
    },
    {
      "channel": 0,
      "note": 69,
      "start": 16.825,
      "duration": 0.2139,
      "velocity": 106,
      "chip": "ym2612"
    },
    {
      "channel": 1,
      "note": 73,
      "start": 16.9255,
      "duration": 0.03,
      "velocity": 121,
      "chip": "ym2612"
    },
    {
      "channel": 1,
      "note": 73,
      "start": 16.9585,
      "duration": 0.0471,
      "velocity": 121,
      "chip": "ym2612"
    },
    {
      "channel": 1,
      "note": 73,
      "start": 17.0085,
      "duration": 0.0305,
      "velocity": 121,
      "chip": "ym2612"
    },
    {
      "channel": 1,
      "note": 73,
      "start": 17.0453,
      "duration": 0.0872,
      "velocity": 121,
      "chip": "ym2612"
    },
    {
      "channel": 0,
      "note": 68,
      "start": 17.0477,
      "duration": 0.2014,
      "velocity": 106,
      "chip": "ym2612"
    },
    {
      "channel": 1,
      "note": 73,
      "start": 17.1354,
      "duration": 0.1139,
      "velocity": 121,
      "chip": "ym2612"
    },
    {
      "channel": 1,
      "note": 73,
      "start": 17.2554,
      "duration": 0.1041,
      "velocity": 121,
      "chip": "ym2612"
    },
    {
      "channel": 4,
      "note": 55,
      "start": 17.2582,
      "duration": 0.2182,
      "velocity": 101,
      "chip": "ym2612"
    },
    {
      "channel": 3,
      "note": 61,
      "start": 17.2606,
      "duration": 0.4643,
      "velocity": 122,
      "chip": "ym2612"
    },
    {
      "channel": 0,
      "note": 49,
      "start": 17.2627,
      "duration": 0.2134,
      "velocity": 106,
      "chip": "ym2612"
    },
    {
      "channel": 1,
      "note": 73,
      "start": 17.3624,
      "duration": 0.1139,
      "velocity": 121,
      "chip": "ym2612"
    },
    {
      "channel": 1,
      "note": 73,
      "start": 17.4826,
      "duration": 0.0434,
      "velocity": 121,
      "chip": "ym2612"
    },
    {
      "channel": 4,
      "note": 52,
      "start": 17.485,
      "duration": 0.0609,
      "velocity": 101,
      "chip": "ym2612"
    },
    {
      "channel": 0,
      "note": 61,
      "start": 17.4873,
      "duration": 0.0826,
      "velocity": 106,
      "chip": "ym2612"
    },
    {
      "channel": 1,
      "note": 73,
      "start": 17.5286,
      "duration": 0.0413,
      "velocity": 121,
      "chip": "ym2612"
    },
    {
      "channel": 1,
      "note": 73,
      "start": 17.5762,
      "duration": 0.1012,
      "velocity": 121,
      "chip": "ym2612"
    },
    {
      "channel": 4,
      "note": 52,
      "start": 17.5788,
      "duration": 0.1463,
      "velocity": 101,
      "chip": "ym2612"
    },
    {
      "channel": 0,
      "note": 69,
      "start": 17.581,
      "duration": 0.1436,
      "velocity": 106,
      "chip": "ym2612"
    },
    {
      "channel": 1,
      "note": 73,
      "start": 17.6837,
      "duration": 0.0411,
      "velocity": 121,
      "chip": "ym2612"
    },
    {
      "channel": 1,
      "note": 73,
      "start": 17.7316,
      "duration": 0.0855,
      "velocity": 121,
      "chip": "ym2612"
    },
    {
      "channel": 4,
      "note": 61,
      "start": 17.734,
      "duration": 0.1114,
      "velocity": 101,
      "chip": "ym2612"
    },
    {
      "channel": 3,
      "note": 61,
      "start": 17.7369,
      "duration": 1.8599,
      "velocity": 122,
      "chip": "ym2612"
    },
    {
      "channel": 0,
      "note": 49,
      "start": 17.7394,
      "duration": 0.1724,
      "velocity": 106,
      "chip": "ym2612"
    },
    {
      "channel": 2,
      "note": 49,
      "start": 17.7434,
      "duration": 0.1688,
      "velocity": 127,
      "chip": "ym2612"
    },
    {
      "channel": 1,
      "note": 73,
      "start": 17.8232,
      "duration": 0.0888,
      "velocity": 121,
      "chip": "ym2612"
    },
    {
      "channel": 1,
      "note": 73,
      "start": 17.918,
      "duration": 0.1041,
      "velocity": 121,
      "chip": "ym2612"
    },
    {
      "channel": 4,
      "note": 61,
      "start": 17.9205,
      "duration": 0.1184,
      "velocity": 101,
      "chip": "ym2612"
    },
    {
      "channel": 0,
      "note": 61,
      "start": 17.9227,
      "duration": 0.1939,
      "velocity": 106,
      "chip": "ym2612"
    },
    {
      "channel": 2,
      "note": 61,
      "start": 17.9252,
      "duration": 0.1918,
      "velocity": 127,
      "chip": "ym2612"
    },
    {
      "channel": 1,
      "note": 73,
      "start": 18.0283,
      "duration": 0.0885,
      "velocity": 121,
      "chip": "ym2612"
    },
    {
      "channel": 1,
      "note": 73,
      "start": 18.1232,
      "duration": 0.044,
      "velocity": 121,
      "chip": "ym2612"
    },
    {
      "channel": 4,
      "note": 61,
      "start": 18.1256,
      "duration": 0.0672,
      "velocity": 101,
      "chip": "ym2612"
    },
    {
      "channel": 0,
      "note": 68,
      "start": 18.1279,
      "duration": 0.1314,
      "velocity": 106,
      "chip": "ym2612"
    },
    {
      "channel": 2,
      "note": 68,
      "start": 18.1305,
      "duration": 0.1292,
      "velocity": 127,
      "chip": "ym2612"
    },
    {
      "channel": 1,
      "note": 73,
      "start": 18.1738,
      "duration": 0.0857,
      "velocity": 121,
      "chip": "ym2612"
    },
    {
      "channel": 1,
      "note": 73,
      "start": 18.2656,
      "duration": 0.1041,
      "velocity": 121,
      "chip": "ym2612"
    },
    {
      "channel": 4,
      "note": 61,
      "start": 18.268,
      "duration": 0.1183,
      "velocity": 101,
      "chip": "ym2612"
    },
    {
      "channel": 0,
      "note": 61,
      "start": 18.2703,
      "duration": 0.1939,
      "velocity": 106,
      "chip": "ym2612"
    },
    {
      "channel": 2,
      "note": 61,
      "start": 18.2728,
      "duration": 0.1918,
      "velocity": 127,
      "chip": "ym2612"
    },
    {
      "channel": 1,
      "note": 73,
      "start": 18.3761,
      "duration": 0.0882,
      "velocity": 121,
      "chip": "ym2612"
    },
    {
      "channel": 1,
      "note": 73,
      "start": 18.4705,
      "duration": 0.0872,
      "velocity": 121,
      "chip": "ym2612"
    },
    {
      "channel": 4,
      "note": 61,
      "start": 18.4728,
      "duration": 0.1129,
      "velocity": 101,
      "chip": "ym2612"
    },
    {
      "channel": 0,
      "note": 73,
      "start": 18.4751,
      "duration": 0.1771,
      "velocity": 106,
      "chip": "ym2612"
    },
    {
      "channel": 2,
      "note": 73,
      "start": 18.4776,
      "duration": 0.1751,
      "velocity": 127,
      "chip": "ym2612"
    },
    {
      "channel": 1,
      "note": 73,
      "start": 18.5637,
      "duration": 0.0887,
      "velocity": 121,
      "chip": "ym2612"
    },
    {
      "channel": 1,
      "note": 73,
      "start": 18.6585,
      "duration": 0.1041,
      "velocity": 121,
      "chip": "ym2612"
    },
    {
      "channel": 4,
      "note": 61,
      "start": 18.6609,
      "duration": 0.1184,
      "velocity": 101,
      "chip": "ym2612"
    },
    {
      "channel": 0,
      "note": 68,
      "start": 18.6632,
      "duration": 0.1939,
      "velocity": 106,
      "chip": "ym2612"
    },
    {
      "channel": 2,
      "note": 68,
      "start": 18.6656,
      "duration": 0.1918,
      "velocity": 127,
      "chip": "ym2612"
    },
    {
      "channel": 1,
      "note": 73,
      "start": 18.7687,
      "duration": 0.0885,
      "velocity": 121,
      "chip": "ym2612"
    },
    {
      "channel": 1,
      "note": 73,
      "start": 18.8637,
      "duration": 0.0437,
      "velocity": 121,
      "chip": "ym2612"
    },
    {
      "channel": 4,
      "note": 61,
      "start": 18.8661,
      "duration": 0.0573,
      "velocity": 101,
      "chip": "ym2612"
    },
    {
      "channel": 0,
      "note": 61,
      "start": 18.8684,
      "duration": 0.1313,
      "velocity": 106,
      "chip": "ym2612"
    },
    {
      "channel": 2,
      "note": 61,
      "start": 18.871,
      "duration": 0.1291,
      "velocity": 127,
      "chip": "ym2612"
    },
    {
      "channel": 1,
      "note": 73,
      "start": 18.9142,
      "duration": 0.0856,
      "velocity": 121,
      "chip": "ym2612"
    },
    {
      "channel": 1,
      "note": 73,
      "start": 19.006,
      "duration": 0.1042,
      "velocity": 121,
      "chip": "ym2612"
    },
    {
      "channel": 4,
      "note": 61,
      "start": 19.0083,
      "duration": 0.1178,
      "velocity": 101,
      "chip": "ym2612"
    },
    {
      "channel": 0,
      "note": 74,
      "start": 19.0106,
      "duration": 0.1934,
      "velocity": 106,
      "chip": "ym2612"
    },
    {
      "channel": 2,
      "note": 74,
      "start": 19.0132,
      "duration": 0.1912,
      "velocity": 127,
      "chip": "ym2612"
    },
    {
      "channel": 1,
      "note": 73,
      "start": 19.1162,
      "duration": 0.088,
      "velocity": 121,
      "chip": "ym2612"
    },
    {
      "channel": 1,
      "note": 73,
      "start": 19.2103,
      "duration": 0.088,
      "velocity": 121,
      "chip": "ym2612"
    },
    {
      "channel": 4,
      "note": 61,
      "start": 19.213,
      "duration": 0.101,
      "velocity": 101,
      "chip": "ym2612"
    },
    {
      "channel": 0,
      "note": 73,
      "start": 19.2155,
      "duration": 0.1763,
      "velocity": 106,
      "chip": "ym2612"
    },
    {
      "channel": 2,
      "note": 73,
      "start": 19.218,
      "duration": 0.1742,
      "velocity": 127,
      "chip": "ym2612"
    },
    {
      "channel": 1,
      "note": 73,
      "start": 19.3043,
      "duration": 0.0876,
      "velocity": 121,
      "chip": "ym2612"
    },
    {
      "channel": 1,
      "note": 73,
      "start": 19.3981,
      "duration": 0.1039,
      "velocity": 121,
      "chip": "ym2612"
    },
    {
      "channel": 4,
      "note": 61,
      "start": 19.4003,
      "duration": 0.1185,
      "velocity": 101,
      "chip": "ym2612"
    },
    {
      "channel": 0,
      "note": 68,
      "start": 19.4026,
      "duration": 0.1939,
      "velocity": 106,
      "chip": "ym2612"
    },
    {
      "channel": 2,
      "note": 68,
      "start": 19.4051,
      "duration": 0.1919,
      "velocity": 127,
      "chip": "ym2612"
    },
    {
      "channel": 1,
      "note": 73,
      "start": 19.5082,
      "duration": 0.0885,
      "velocity": 121,
      "chip": "ym2612"
    },
    {
      "channel": 1,
      "note": 73,
      "start": 19.6032,
      "duration": 0.044,
      "velocity": 121,
      "chip": "ym2612"
    },
    {
      "channel": 4,
      "note": 61,
      "start": 19.6056,
      "duration": 0.0571,
      "velocity": 101,
      "chip": "ym2612"
    },
    {
      "channel": 3,
      "note": 61,
      "start": 19.6078,
      "duration": 0.7285,
      "velocity": 122,
      "chip": "ym2612"
    },
    {
      "channel": 0,
      "note": 61,
      "start": 19.61,
      "duration": 0.1292,
      "velocity": 106,
      "chip": "ym2612"
    },
    {
      "channel": 2,
      "note": 61,
      "start": 19.6124,
      "duration": 0.1271,
      "velocity": 127,
      "chip": "ym2612"
    },
    {
      "channel": 1,
      "note": 73,
      "start": 19.6535,
      "duration": 0.0857,
      "velocity": 121,
      "chip": "ym2612"
    },
    {
      "channel": 1,
      "note": 73,
      "start": 19.7453,
      "duration": 0.1039,
      "velocity": 121,
      "chip": "ym2612"
    },
    {
      "channel": 4,
      "note": 61,
      "start": 19.7479,
      "duration": 0.3838,
      "velocity": 101,
      "chip": "ym2612"
    },
    {
      "channel": 0,
      "note": 69,
      "start": 19.75,
      "duration": 0.1936,
      "velocity": 106,
      "chip": "ym2612"
    },
    {
      "channel": 2,
      "note": 69,
      "start": 19.7526,
      "duration": 0.1914,
      "velocity": 127,
      "chip": "ym2612"
    },
    {
      "channel": 1,
      "note": 73,
      "start": 19.8556,
      "duration": 0.0881,
      "velocity": 121,
      "chip": "ym2612"
    },
    {
      "channel": 1,
      "note": 73,
      "start": 19.9501,
      "duration": 0.0119,
      "velocity": 121,
      "chip": "ym2612"
    },
    {
      "channel": 0,
      "note": 68,
      "start": 19.9526,
      "duration": 0.1788,
      "velocity": 106,
      "chip": "ym2612"
    },
    {
      "channel": 2,
      "note": 68,
      "start": 19.9551,
      "duration": 0.1767,
      "velocity": 127,
      "chip": "ym2612"
    },
    {
      "channel": 1,
      "note": 73,
      "start": 19.9646,
      "duration": 0.04,
      "velocity": 121,
      "chip": "ym2612"
    },
    {
      "channel": 1,
      "note": 73,
      "start": 20.0076,
      "duration": 0.0303,
      "velocity": 121,
      "chip": "ym2612"
    },
    {
      "channel": 1,
      "note": 73,
      "start": 20.044,
      "duration": 0.0875,
      "velocity": 121,
      "chip": "ym2612"
    },
    {
      "channel": 1,
      "note": 73,
      "start": 20.1377,
      "duration": 0.1039,
      "velocity": 121,
      "chip": "ym2612"
    },
    {
      "channel": 4,
      "note": 61,
      "start": 20.1403,
      "duration": 0.118,
      "velocity": 101,
      "chip": "ym2612"
    },
    {
      "channel": 0,
      "note": 61,
      "start": 20.1423,
      "duration": 0.1938,
      "velocity": 106,
      "chip": "ym2612"
    },
    {
      "channel": 2,
      "note": 61,
      "start": 20.145,
      "duration": 0.1915,
      "velocity": 127,
      "chip": "ym2612"
    },
    {
      "channel": 1,
      "note": 73,
      "start": 20.2477,
      "duration": 0.0885,
      "velocity": 121,
      "chip": "ym2612"
    },
    {
      "channel": 1,
      "note": 73,
      "start": 20.3427,
      "duration": 0.0448,
      "velocity": 121,
      "chip": "ym2612"
    },
    {
      "channel": 4,
      "note": 61,
      "start": 20.345,
      "duration": 0.1346,
      "velocity": 101,
      "chip": "ym2612"
    },
    {
      "channel": 3,
      "note": 61,
      "start": 20.3473,
      "duration": 0.336,
      "velocity": 122,
      "chip": "ym2612"
    },
    {
      "channel": 0,
      "note": 49,
      "start": 20.3495,
      "duration": 0.1299,
      "velocity": 106,
      "chip": "ym2612"
    },
    {
      "channel": 2,
      "note": 49,
      "start": 20.352,
      "duration": 0.1279,
      "velocity": 127,
      "chip": "ym2612"
    },
    {
      "channel": 1,
      "note": 73,
      "start": 20.3941,
      "duration": 0.0854,
      "velocity": 121,
      "chip": "ym2612"
    },
    {
      "channel": 1,
      "note": 73,
      "start": 20.4857,
      "duration": 0.0869,
      "velocity": 121,
      "chip": "ym2612"
    },
    {
      "channel": 4,
      "note": 59,
      "start": 20.4882,
      "duration": 0.1952,
      "velocity": 101,
      "chip": "ym2612"
    },
    {
      "channel": 0,
      "note": 73,
      "start": 20.4903,
      "duration": 0.1927,
      "velocity": 106,
      "chip": "ym2612"
    },
    {
      "channel": 2,
      "note": 73,
      "start": 20.4929,
      "duration": 0.1907,
      "velocity": 127,
      "chip": "ym2612"
    },
    {
      "channel": 1,
      "note": 73,
      "start": 20.5786,
      "duration": 0.1046,
      "velocity": 121,
      "chip": "ym2612"
    },
    {
      "channel": 1,
      "note": 73,
      "start": 20.6894,
      "duration": 0.0873,
      "velocity": 121,
      "chip": "ym2612"
    },
    {
      "channel": 4,
      "note": 61,
      "start": 20.6917,
      "duration": 0.1017,
      "velocity": 101,
      "chip": "ym2612"
    },
    {
      "channel": 3,
      "note": 61,
      "start": 20.6942,
      "duration": 1.1224,
      "velocity": 122,
      "chip": "ym2612"
    },
    {
      "channel": 0,
      "note": 49,
      "start": 20.6968,
      "duration": 0.1743,
      "velocity": 106,
      "chip": "ym2612"
    },
    {
      "channel": 2,
      "note": 49,
      "start": 20.7007,
      "duration": 0.1709,
      "velocity": 127,
      "chip": "ym2612"
    },
    {
      "channel": 1,
      "note": 73,
      "start": 20.7832,
      "duration": 0.0882,
      "velocity": 121,
      "chip": "ym2612"
    },
    {
      "channel": 1,
      "note": 73,
      "start": 20.8774,
      "duration": 0.0873,
      "velocity": 121,
      "chip": "ym2612"
    },
    {
      "channel": 4,
      "note": 61,
      "start": 20.8798,
      "duration": 0.1126,
      "velocity": 101,
      "chip": "ym2612"
    },
    {
      "channel": 0,
      "note": 61,
      "start": 20.8821,
      "duration": 0.1935,
      "velocity": 106,
      "chip": "ym2612"
    },
    {
      "channel": 2,
      "note": 61,
      "start": 20.8845,
      "duration": 0.1915,
      "velocity": 127,
      "chip": "ym2612"
    },
    {
      "channel": 1,
      "note": 73,
      "start": 20.9708,
      "duration": 0.1049,
      "velocity": 121,
      "chip": "ym2612"
    },
    {
      "channel": 1,
      "note": 73,
      "start": 21.0822,
      "duration": 0.045,
      "velocity": 121,
      "chip": "ym2612"
    },
    {
      "channel": 4,
      "note": 61,
      "start": 21.0846,
      "duration": 0.0585,
      "velocity": 101,
      "chip": "ym2612"
    },
    {
      "channel": 0,
      "note": 68,
      "start": 21.087,
      "duration": 0.1323,
      "velocity": 106,
      "chip": "ym2612"
    },
    {
      "channel": 2,
      "note": 68,
      "start": 21.0896,
      "duration": 0.1302,
      "velocity": 127,
      "chip": "ym2612"
    },
    {
      "channel": 1,
      "note": 73,
      "start": 21.1338,
      "duration": 0.0858,
      "velocity": 121,
      "chip": "ym2612"
    },
    {
      "channel": 1,
      "note": 73,
      "start": 21.2256,
      "duration": 0.0871,
      "velocity": 121,
      "chip": "ym2612"
    },
    {
      "channel": 4,
      "note": 61,
      "start": 21.2283,
      "duration": 0.1122,
      "velocity": 101,
      "chip": "ym2612"
    },
    {
      "channel": 0,
      "note": 61,
      "start": 21.2307,
      "duration": 0.1929,
      "velocity": 106,
      "chip": "ym2612"
    },
    {
      "channel": 2,
      "note": 61,
      "start": 21.2331,
      "duration": 0.1909,
      "velocity": 127,
      "chip": "ym2612"
    },
    {
      "channel": 1,
      "note": 73,
      "start": 21.319,
      "duration": 0.1047,
      "velocity": 121,
      "chip": "ym2612"
    },
    {
      "channel": 1,
      "note": 73,
      "start": 21.4299,
      "duration": 0.0876,
      "velocity": 121,
      "chip": "ym2612"
    },
    {
      "channel": 4,
      "note": 61,
      "start": 21.4323,
      "duration": 0.102,
      "velocity": 101,
      "chip": "ym2612"
    },
    {
      "channel": 0,
      "note": 73,
      "start": 21.4344,
      "duration": 0.1776,
      "velocity": 106,
      "chip": "ym2612"
    },
    {
      "channel": 2,
      "note": 73,
      "start": 21.437,
      "duration": 0.1755,
      "velocity": 127,
      "chip": "ym2612"
    },
    {
      "channel": 1,
      "note": 73,
      "start": 21.5235,
      "duration": 0.0887,
      "velocity": 121,
      "chip": "ym2612"
    },
    {
      "channel": 1,
      "note": 73,
      "start": 21.6184,
      "duration": 0.0873,
      "velocity": 121,
      "chip": "ym2612"
    },
    {
      "channel": 4,
      "note": 61,
      "start": 21.6208,
      "duration": 0.1124,
      "velocity": 101,
      "chip": "ym2612"
    },
    {
      "channel": 0,
      "note": 68,
      "start": 21.6231,
      "duration": 0.1933,
      "velocity": 106,
      "chip": "ym2612"
    },
    {
      "channel": 2,
      "note": 68,
      "start": 21.6255,
      "duration": 0.1913,
      "velocity": 127,
      "chip": "ym2612"
    },
    {
      "channel": 1,
      "note": 73,
      "start": 21.7118,
      "duration": 0.1046,
      "velocity": 121,
      "chip": "ym2612"
    },
    {
      "channel": 1,
      "note": 73,
      "start": 21.823,
      "duration": 0.0439,
      "velocity": 121,
      "chip": "ym2612"
    },
    {
      "channel": 4,
      "note": 61,
      "start": 21.8253,
      "duration": 0.0576,
      "velocity": 101,
      "chip": "ym2612"
    },
    {
      "channel": 3,
      "note": 61,
      "start": 21.8281,
      "duration": 1.2621,
      "velocity": 122,
      "chip": "ym2612"
    },
    {
      "channel": 0,
      "note": 61,
      "start": 21.8303,
      "duration": 0.1285,
      "velocity": 106,
      "chip": "ym2612"
    },
    {
      "channel": 2,
      "note": 61,
      "start": 21.8336,
      "duration": 0.1256,
      "velocity": 127,
      "chip": "ym2612"
    },
    {
      "channel": 1,
      "note": 73,
      "start": 21.8734,
      "duration": 0.0855,
      "velocity": 121,
      "chip": "ym2612"
    },
    {
      "channel": 1,
      "note": 73,
      "start": 21.965,
      "duration": 0.0874,
      "velocity": 121,
      "chip": "ym2612"
    },
    {
      "channel": 4,
      "note": 61,
      "start": 21.9674,
      "duration": 0.1123,
      "velocity": 101,
      "chip": "ym2612"
    },
    {
      "channel": 0,
      "note": 74,
      "start": 21.9697,
      "duration": 0.1932,
      "velocity": 106,
      "chip": "ym2612"
    },
    {
      "channel": 2,
      "note": 74,
      "start": 21.9722,
      "duration": 0.1911,
      "velocity": 127,
      "chip": "ym2612"
    },
    {
      "channel": 1,
      "note": 73,
      "start": 22.0582,
      "duration": 0.1048,
      "velocity": 121,
      "chip": "ym2612"
    },
    {
      "channel": 1,
      "note": 73,
      "start": 22.1692,
      "duration": 0.0875,
      "velocity": 121,
      "chip": "ym2612"
    },
    {
      "channel": 4,
      "note": 61,
      "start": 22.1716,
      "duration": 0.1017,
      "velocity": 101,
      "chip": "ym2612"
    },
    {
      "channel": 0,
      "note": 73,
      "start": 22.1738,
      "duration": 0.1773,
      "velocity": 106,
      "chip": "ym2612"
    },
    {
      "channel": 2,
      "note": 73,
      "start": 22.1763,
      "duration": 0.1752,
      "velocity": 127,
      "chip": "ym2612"
    },
    {
      "channel": 1,
      "note": 73,
      "start": 22.2629,
      "duration": 0.0883,
      "velocity": 121,
      "chip": "ym2612"
    },
    {
      "channel": 1,
      "note": 73,
      "start": 22.3573,
      "duration": 0.0867,
      "velocity": 121,
      "chip": "ym2612"
    },
    {
      "channel": 4,
      "note": 61,
      "start": 22.3597,
      "duration": 0.1116,
      "velocity": 101,
      "chip": "ym2612"
    },
    {
      "channel": 0,
      "note": 68,
      "start": 22.362,
      "duration": 0.1925,
      "velocity": 106,
      "chip": "ym2612"
    },
    {
      "channel": 2,
      "note": 68,
      "start": 22.3645,
      "duration": 0.1905,
      "velocity": 127,
      "chip": "ym2612"
    },
    {
      "channel": 1,
      "note": 73,
      "start": 22.4502,
      "duration": 0.1045,
      "velocity": 121,
      "chip": "ym2612"
    },
    {
      "channel": 1,
      "note": 73,
      "start": 22.5611,
      "duration": 0.0447,
      "velocity": 121,
      "chip": "ym2612"
    },
    {
      "channel": 4,
      "note": 61,
      "start": 22.5636,
      "duration": 0.0582,
      "velocity": 101,
      "chip": "ym2612"
    },
    {
      "channel": 0,
      "note": 61,
      "start": 22.566,
      "duration": 0.1321,
      "velocity": 106,
      "chip": "ym2612"
    },
    {
      "channel": 2,
      "note": 61,
      "start": 22.5685,
      "duration": 0.13,
      "velocity": 127,
      "chip": "ym2612"
    },
    {
      "channel": 1,
      "note": 73,
      "start": 22.6124,
      "duration": 0.0857,
      "velocity": 121,
      "chip": "ym2612"
    },
    {
      "channel": 1,
      "note": 73,
      "start": 22.7043,
      "duration": 0.0878,
      "velocity": 121,
      "chip": "ym2612"
    },
    {
      "channel": 4,
      "note": 56,
      "start": 22.7066,
      "duration": 0.3837,
      "velocity": 101,
      "chip": "ym2612"
    },
    {
      "channel": 0,
      "note": 69,
      "start": 22.7092,
      "duration": 0.1936,
      "velocity": 106,
      "chip": "ym2612"
    },
    {
      "channel": 2,
      "note": 69,
      "start": 22.7116,
      "duration": 0.1915,
      "velocity": 127,
      "chip": "ym2612"
    },
    {
      "channel": 1,
      "note": 73,
      "start": 22.7983,
      "duration": 0.0211,
      "velocity": 121,
      "chip": "ym2612"
    },
    {
      "channel": 1,
      "note": 73,
      "start": 22.8224,
      "duration": 0.0304,
      "velocity": 121,
      "chip": "ym2612"
    },
    {
      "channel": 1,
      "note": 73,
      "start": 22.8557,
      "duration": 0.0472,
      "velocity": 121,
      "chip": "ym2612"
    },
    {
      "channel": 1,
      "note": 73,
      "start": 22.9093,
      "duration": 0.0866,
      "velocity": 121,
      "chip": "ym2612"
    },
    {
      "channel": 0,
      "note": 68,
      "start": 22.9118,
      "duration": 0.1782,
      "velocity": 106,
      "chip": "ym2612"
    },
    {
      "channel": 2,
      "note": 68,
      "start": 22.9143,
      "duration": 0.1762,
      "velocity": 127,
      "chip": "ym2612"
    },
    {
      "channel": 1,
      "note": 73,
      "start": 23.0019,
      "duration": 0.0883,
      "velocity": 121,
      "chip": "ym2612"
    },
    {
      "channel": 1,
      "note": 73,
      "start": 23.0964,
      "duration": 0.0877,
      "velocity": 121,
      "chip": "ym2612"
    },
    {
      "channel": 4,
      "note": 55,
      "start": 23.0987,
      "duration": 0.1965,
      "velocity": 101,
      "chip": "ym2612"
    },
    {
      "channel": 3,
      "note": 61,
      "start": 23.101,
      "duration": 0.4843,
      "velocity": 122,
      "chip": "ym2612"
    },
    {
      "channel": 0,
      "note": 49,
      "start": 23.1033,
      "duration": 0.1915,
      "velocity": 106,
      "chip": "ym2612"
    },
    {
      "channel": 2,
      "note": 49,
      "start": 23.1068,
      "duration": 0.1886,
      "velocity": 127,
      "chip": "ym2612"
    },
    {
      "channel": 1,
      "note": 73,
      "start": 23.1905,
      "duration": 0.1046,
      "velocity": 121,
      "chip": "ym2612"
    },
    {
      "channel": 1,
      "note": 73,
      "start": 23.3015,
      "duration": 0.0446,
      "velocity": 121,
      "chip": "ym2612"
    },
    {
      "channel": 4,
      "note": 52,
      "start": 23.3039,
      "duration": 0.0583,
      "velocity": 101,
      "chip": "ym2612"
    },
    {
      "channel": 0,
      "note": 61,
      "start": 23.3062,
      "duration": 0.1322,
      "velocity": 106,
      "chip": "ym2612"
    },
    {
      "channel": 2,
      "note": 61,
      "start": 23.3086,
      "duration": 0.1302,
      "velocity": 127,
      "chip": "ym2612"
    },
    {
      "channel": 1,
      "note": 73,
      "start": 23.353,
      "duration": 0.0856,
      "velocity": 121,
      "chip": "ym2612"
    },
    {
      "channel": 1,
      "note": 73,
      "start": 23.4447,
      "duration": 0.0876,
      "velocity": 121,
      "chip": "ym2612"
    },
    {
      "channel": 4,
      "note": 52,
      "start": 23.4474,
      "duration": 0.138,
      "velocity": 101,
      "chip": "ym2612"
    },
    {
      "channel": 0,
      "note": 69,
      "start": 23.4499,
      "duration": 0.1352,
      "velocity": 106,
      "chip": "ym2612"
    },
    {
      "channel": 2,
      "note": 69,
      "start": 23.4538,
      "duration": 0.1317,
      "velocity": 127,
      "chip": "ym2612"
    },
    {
      "channel": 1,
      "note": 73,
      "start": 23.5387,
      "duration": 0.0465,
      "velocity": 121,
      "chip": "ym2612"
    },
    {
      "channel": 1,
      "note": 73,
      "start": 23.5913,
      "duration": 0.085,
      "velocity": 121,
      "chip": "ym2612"
    },
    {
      "channel": 4,
      "note": 49,
      "start": 23.5938,
      "duration": 0.1993,
      "velocity": 101,
      "chip": "ym2612"
    },
    {
      "channel": 3,
      "note": 61,
      "start": 23.5962,
      "duration": 0.4804,
      "velocity": 122,
      "chip": "ym2612"
    },
    {
      "channel": 0,
      "note": 85,
      "start": 23.5993,
      "duration": 1.3787,
      "velocity": 121,
      "chip": "ym2612"
    },
    {
      "channel": 1,
      "note": 73,
      "start": 23.6792,
      "duration": 0.1138,
      "velocity": 121,
      "chip": "ym2612"
    },
    {
      "channel": 1,
      "note": 73,
      "start": 23.7991,
      "duration": 0.0879,
      "velocity": 121,
      "chip": "ym2612"
    },
    {
      "channel": 4,
      "note": 49,
      "start": 23.8014,
      "duration": 0.219,
      "velocity": 101,
      "chip": "ym2612"
    },
    {
      "channel": 1,
      "note": 73,
      "start": 23.8899,
      "duration": 0.1304,
      "velocity": 121,
      "chip": "ym2612"
    },
    {
      "channel": 1,
      "note": 73,
      "start": 24.0266,
      "duration": 0.0428,
      "velocity": 121,
      "chip": "ym2612"
    },
    {
      "channel": 4,
      "note": 49,
      "start": 24.029,
      "duration": 0.0841,
      "velocity": 101,
      "chip": "ym2612"
    },
    {
      "channel": 1,
      "note": 73,
      "start": 24.0718,
      "duration": 0.0413,
      "velocity": 121,
      "chip": "ym2612"
    },
    {
      "channel": 1,
      "note": 73,
      "start": 24.1189,
      "duration": 0.0852,
      "velocity": 121,
      "chip": "ym2612"
    },
    {
      "channel": 4,
      "note": 49,
      "start": 24.1214,
      "duration": 0.2162,
      "velocity": 101,
      "chip": "ym2612"
    },
    {
      "channel": 3,
      "note": 61,
      "start": 24.1237,
      "duration": 0.2578,
      "velocity": 122,
      "chip": "ym2612"
    },
    {
      "channel": 1,
      "note": 73,
      "start": 24.2069,
      "duration": 0.1304,
      "velocity": 121,
      "chip": "ym2612"
    },
    {
      "channel": 1,
      "note": 73,
      "start": 24.3436,
      "duration": 0.0879,
      "velocity": 121,
      "chip": "ym2612"
    },
    {
      "channel": 4,
      "note": 49,
      "start": 24.346,
      "duration": 0.2022,
      "velocity": 101,
      "chip": "ym2612"
    },
    {
      "channel": 1,
      "note": 73,
      "start": 24.4344,
      "duration": 0.1137,
      "velocity": 121,
      "chip": "ym2612"
    },
    {
      "channel": 1,
      "note": 73,
      "start": 24.5541,
      "duration": 0.0878,
      "velocity": 121,
      "chip": "ym2612"
    },
    {
      "channel": 4,
      "note": 49,
      "start": 24.5565,
      "duration": 0.2189,
      "velocity": 101,
      "chip": "ym2612"
    },
    {
      "channel": 3,
      "note": 59,
      "start": 24.5589,
      "duration": 0.3858,
      "velocity": 122,
      "chip": "ym2612"
    },
    {
      "channel": 2,
      "note": 59,
      "start": 24.5615,
      "duration": 0.2141,
      "velocity": 127,
      "chip": "ym2612"
    },
    {
      "channel": 1,
      "note": 73,
      "start": 24.6453,
      "duration": 0.13,
      "velocity": 121,
      "chip": "ym2612"
    },
    {
      "channel": 1,
      "note": 73,
      "start": 24.7817,
      "duration": 0.0433,
      "velocity": 121,
      "chip": "ym2612"
    },
    {
      "channel": 4,
      "note": 49,
      "start": 24.7841,
      "duration": 0.0857,
      "velocity": 101,
      "chip": "ym2612"
    },
    {
      "channel": 2,
      "note": 63,
      "start": 24.7869,
      "duration": 0.0832,
      "velocity": 127,
      "chip": "ym2612"
    },
    {
      "channel": 1,
      "note": 73,
      "start": 24.8274,
      "duration": 0.0422,
      "velocity": 121,
      "chip": "ym2612"
    },
    {
      "channel": 1,
      "note": 73,
      "start": 24.8763,
      "duration": 0.0849,
      "velocity": 121,
      "chip": "ym2612"
    },
    {
      "channel": 4,
      "note": 48,
      "start": 24.8786,
      "duration": 0.2162,
      "velocity": 101,
      "chip": "ym2612"
    },
    {
      "channel": 2,
      "note": 66,
      "start": 24.8817,
      "duration": 0.1631,
      "velocity": 127,
      "chip": "ym2612"
    },
    {
      "channel": 1,
      "note": 73,
      "start": 24.9641,
      "duration": 0.1305,
      "velocity": 121,
      "chip": "ym2612"
    },
    {
      "channel": 1,
      "note": 73,
      "start": 25.1008,
      "duration": 0.0873,
      "velocity": 121,
      "chip": "ym2612"
    },
    {
      "channel": 4,
      "note": 49,
      "start": 25.1031,
      "duration": 0.2019,
      "velocity": 101,
      "chip": "ym2612"
    },
    {
      "channel": 3,
      "note": 66,
      "start": 25.1054,
      "duration": 0.478,
      "velocity": 122,
      "chip": "ym2612"
    },
    {
      "channel": 0,
      "note": 86,
      "start": 25.1079,
      "duration": 0.5069,
      "velocity": 121,
      "chip": "ym2612"
    },
    {
      "channel": 1,
      "note": 73,
      "start": 25.191,
      "duration": 0.1138,
      "velocity": 121,
      "chip": "ym2612"
    },
    {
      "channel": 1,
      "note": 73,
      "start": 25.3108,
      "duration": 0.0877,
      "velocity": 121,
      "chip": "ym2612"
    },
    {
      "channel": 4,
      "note": 49,
      "start": 25.3132,
      "duration": 0.2022,
      "velocity": 101,
      "chip": "ym2612"
    },
    {
      "channel": 1,
      "note": 73,
      "start": 25.4014,
      "duration": 0.1137,
      "velocity": 121,
      "chip": "ym2612"
    },
    {
      "channel": 1,
      "note": 73,
      "start": 25.5217,
      "duration": 0.0484,
      "velocity": 121,
      "chip": "ym2612"
    },
    {
      "channel": 4,
      "note": 49,
      "start": 25.5241,
      "duration": 0.091,
      "velocity": 101,
      "chip": "ym2612"
    },
    {
      "channel": 1,
      "note": 73,
      "start": 25.5726,
      "duration": 0.0424,
      "velocity": 121,
      "chip": "ym2612"
    },
    {
      "channel": 1,
      "note": 73,
      "start": 25.6216,
      "duration": 0.0842,
      "velocity": 121,
      "chip": "ym2612"
    },
    {
      "channel": 4,
      "note": 49,
      "start": 25.6244,
      "duration": 0.4254,
      "velocity": 101,
      "chip": "ym2612"
    },
    {
      "channel": 3,
      "note": 66,
      "start": 25.6271,
      "duration": 0.2392,
      "velocity": 122,
      "chip": "ym2612"
    },
    {
      "channel": 0,
      "note": 88,
      "start": 25.6295,
      "duration": 0.8871,
      "velocity": 121,
      "chip": "ym2612"
    },
    {
      "channel": 1,
      "note": 73,
      "start": 25.7087,
      "duration": 0.1138,
      "velocity": 121,
      "chip": "ym2612"
    },
    {
      "channel": 1,
      "note": 73,
      "start": 25.8287,
      "duration": 0.0208,
      "velocity": 121,
      "chip": "ym2612"
    },
    {
      "channel": 1,
      "note": 73,
      "start": 25.8528,
      "duration": 0.0302,
      "velocity": 121,
      "chip": "ym2612"
    },
    {
      "channel": 1,
      "note": 73,
      "start": 25.8859,
      "duration": 0.0471,
      "velocity": 121,
      "chip": "ym2612"
    },
    {
      "channel": 1,
      "note": 73,
      "start": 25.9362,
      "duration": 0.1134,
      "velocity": 121,
      "chip": "ym2612"
    },
    {
      "channel": 1,
      "note": 73,
      "start": 26.0556,
      "duration": 0.0879,
      "velocity": 121,
      "chip": "ym2612"
    },
    {
      "channel": 4,
      "note": 49,
      "start": 26.0584,
      "duration": 0.202,
      "velocity": 101,
      "chip": "ym2612"
    },
    {
      "channel": 3,
      "note": 64,
      "start": 26.0608,
      "duration": 0.4393,
      "velocity": 122,
      "chip": "ym2612"
    },
    {
      "channel": 2,
      "note": 71,
      "start": 26.0637,
      "duration": 0.1969,
      "velocity": 127,
      "chip": "ym2612"
    },
    {
      "channel": 1,
      "note": 73,
      "start": 26.1465,
      "duration": 0.1137,
      "velocity": 121,
      "chip": "ym2612"
    },
    {
      "channel": 1,
      "note": 73,
      "start": 26.2666,
      "duration": 0.0484,
      "velocity": 121,
      "chip": "ym2612"
    },
    {
      "channel": 4,
      "note": 59,
      "start": 26.2691,
      "duration": 0.092,
      "velocity": 101,
      "chip": "ym2612"
    },
    {
      "channel": 2,
      "note": 68,
      "start": 26.2719,
      "duration": 0.0893,
      "velocity": 127,
      "chip": "ym2612"
    },
    {
      "channel": 1,
      "note": 73,
      "start": 26.3173,
      "duration": 0.0437,
      "velocity": 121,
      "chip": "ym2612"
    },
    {
      "channel": 1,
      "note": 73,
      "start": 26.3667,
      "duration": 0.0833,
      "velocity": 121,
      "chip": "ym2612"
    },
    {
      "channel": 4,
      "note": 61,
      "start": 26.3691,
      "duration": 0.1976,
      "velocity": 101,
      "chip": "ym2612"
    },
    {
      "channel": 2,
      "note": 71,
      "start": 26.3725,
      "duration": 0.161,
      "velocity": 127,
      "chip": "ym2612"
    },
    {
      "channel": 1,
      "note": 73,
      "start": 26.4529,
      "duration": 0.1137,
      "velocity": 121,
      "chip": "ym2612"
    },
    {
      "channel": 1,
      "note": 73,
      "start": 26.5727,
      "duration": 0.1046,
      "velocity": 121,
      "chip": "ym2612"
    },
    {
      "channel": 4,
      "note": 49,
      "start": 26.5752,
      "duration": 0.2189,
      "velocity": 101,
      "chip": "ym2612"
    },
    {
      "channel": 3,
      "note": 61,
      "start": 26.5775,
      "duration": 0.4894,
      "velocity": 122,
      "chip": "ym2612"
    },
    {
      "channel": 0,
      "note": 85,
      "start": 26.5802,
      "duration": 1.4568,
      "velocity": 121,
      "chip": "ym2612"
    },
    {
      "channel": 1,
      "note": 73,
      "start": 26.6801,
      "duration": 0.1137,
      "velocity": 121,
      "chip": "ym2612"
    },
    {
      "channel": 1,
      "note": 73,
      "start": 26.8001,
      "duration": 0.088,
      "velocity": 121,
      "chip": "ym2612"
    },
    {
      "channel": 4,
      "note": 49,
      "start": 26.8025,
      "duration": 0.2024,
      "velocity": 101,
      "chip": "ym2612"
    },
    {
      "channel": 1,
      "note": 73,
      "start": 26.891,
      "duration": 0.1138,
      "velocity": 121,
      "chip": "ym2612"
    },
    {
      "channel": 1,
      "note": 73,
      "start": 27.0111,
      "duration": 0.0485,
      "velocity": 121,
      "chip": "ym2612"
    },
    {
      "channel": 4,
      "note": 49,
      "start": 27.0135,
      "duration": 0.0902,
      "velocity": 101,
      "chip": "ym2612"
    },
    {
      "channel": 1,
      "note": 73,
      "start": 27.0625,
      "duration": 0.0411,
      "velocity": 121,
      "chip": "ym2612"
    },
    {
      "channel": 1,
      "note": 73,
      "start": 27.1097,
      "duration": 0.0841,
      "velocity": 121,
      "chip": "ym2612"
    },
    {
      "channel": 4,
      "note": 49,
      "start": 27.112,
      "duration": 0.1986,
      "velocity": 101,
      "chip": "ym2612"
    },
    {
      "channel": 3,
      "note": 61,
      "start": 27.1145,
      "duration": 0.2562,
      "velocity": 122,
      "chip": "ym2612"
    },
    {
      "channel": 1,
      "note": 73,
      "start": 27.1967,
      "duration": 0.1137,
      "velocity": 121,
      "chip": "ym2612"
    },
    {
      "channel": 1,
      "note": 73,
      "start": 27.3165,
      "duration": 0.104,
      "velocity": 121,
      "chip": "ym2612"
    },
    {
      "channel": 4,
      "note": 49,
      "start": 27.3189,
      "duration": 0.2186,
      "velocity": 101,
      "chip": "ym2612"
    },
    {
      "channel": 1,
      "note": 73,
      "start": 27.4235,
      "duration": 0.1138,
      "velocity": 121,
      "chip": "ym2612"
    },
    {
      "channel": 1,
      "note": 73,
      "start": 27.5434,
      "duration": 0.0878,
      "velocity": 121,
      "chip": "ym2612"
    },
    {
      "channel": 4,
      "note": 49,
      "start": 27.5457,
      "duration": 0.2022,
      "velocity": 101,
      "chip": "ym2612"
    },
    {
      "channel": 3,
      "note": 59,
      "start": 27.548,
      "duration": 0.3725,
      "velocity": 122,
      "chip": "ym2612"
    },
    {
      "channel": 2,
      "note": 66,
      "start": 27.5507,
      "duration": 0.1973,
      "velocity": 127,
      "chip": "ym2612"
    },
    {
      "channel": 1,
      "note": 73,
      "start": 27.6341,
      "duration": 0.1137,
      "velocity": 121,
      "chip": "ym2612"
    },
    {
      "channel": 1,
      "note": 73,
      "start": 27.7541,
      "duration": 0.0488,
      "velocity": 121,
      "chip": "ym2612"
    },
    {
      "channel": 4,
      "note": 49,
      "start": 27.7566,
      "duration": 0.0921,
      "velocity": 101,
      "chip": "ym2612"
    },
    {
      "channel": 2,
      "note": 63,
      "start": 27.7593,
      "duration": 0.0895,
      "velocity": 127,
      "chip": "ym2612"
    },
    {
      "channel": 1,
      "note": 73,
      "start": 27.8052,
      "duration": 0.0433,
      "velocity": 121,
      "chip": "ym2612"
    },
    {
      "channel": 1,
      "note": 73,
      "start": 27.8546,
      "duration": 0.0825,
      "velocity": 121,
      "chip": "ym2612"
    },
    {
      "channel": 4,
      "note": 48,
      "start": 27.857,
      "duration": 0.1969,
      "velocity": 101,
      "chip": "ym2612"
    },
    {
      "channel": 2,
      "note": 66,
      "start": 27.8601,
      "duration": 0.1605,
      "velocity": 127,
      "chip": "ym2612"
    },
    {
      "channel": 1,
      "note": 73,
      "start": 27.94,
      "duration": 0.1138,
      "velocity": 121,
      "chip": "ym2612"
    },
    {
      "channel": 1,
      "note": 73,
      "start": 28.0599,
      "duration": 0.1043,
      "velocity": 121,
      "chip": "ym2612"
    },
    {
      "channel": 4,
      "note": 49,
      "start": 28.0622,
      "duration": 0.2186,
      "velocity": 101,
      "chip": "ym2612"
    },
    {
      "channel": 3,
      "note": 66,
      "start": 28.0645,
      "duration": 0.495,
      "velocity": 122,
      "chip": "ym2612"
    },
    {
      "channel": 0,
      "note": 90,
      "start": 28.0673,
      "duration": 0.5232,
      "velocity": 121,
      "chip": "ym2612"
    },
    {
      "channel": 1,
      "note": 73,
      "start": 28.167,
      "duration": 0.1137,
      "velocity": 121,
      "chip": "ym2612"
    },
    {
      "channel": 1,
      "note": 73,
      "start": 28.2868,
      "duration": 0.0879,
      "velocity": 121,
      "chip": "ym2612"
    },
    {
      "channel": 4,
      "note": 49,
      "start": 28.2891,
      "duration": 0.2024,
      "velocity": 101,
      "chip": "ym2612"
    },
    {
      "channel": 1,
      "note": 73,
      "start": 28.3775,
      "duration": 0.1138,
      "velocity": 121,
      "chip": "ym2612"
    },
    {
      "channel": 1,
      "note": 73,
      "start": 28.4976,
      "duration": 0.0486,
      "velocity": 121,
      "chip": "ym2612"
    },
    {
      "channel": 4,
      "note": 49,
      "start": 28.5001,
      "duration": 0.0906,
      "velocity": 101,
      "chip": "ym2612"
    },
    {
      "channel": 1,
      "note": 73,
      "start": 28.5489,
      "duration": 0.0417,
      "velocity": 121,
      "chip": "ym2612"
    },
    {
      "channel": 1,
      "note": 73,
      "start": 28.5972,
      "duration": 0.0839,
      "velocity": 121,
      "chip": "ym2612"
    },
    {
      "channel": 4,
      "note": 55,
      "start": 28.5999,
      "duration": 0.4254,
      "velocity": 101,
      "chip": "ym2612"
    },
    {
      "channel": 3,
      "note": 66,
      "start": 28.6024,
      "duration": 0.2395,
      "velocity": 122,
      "chip": "ym2612"
    },
    {
      "channel": 0,
      "note": 91,
      "start": 28.6057,
      "duration": 0.8208,
      "velocity": 121,
      "chip": "ym2612"
    },
    {
      "channel": 1,
      "note": 73,
      "start": 28.6843,
      "duration": 0.0302,
      "velocity": 121,
      "chip": "ym2612"
    },
    {
      "channel": 1,
      "note": 73,
      "start": 28.7174,
      "duration": 0.0471,
      "velocity": 121,
      "chip": "ym2612"
    },
    {
      "channel": 1,
      "note": 73,
      "start": 28.7674,
      "duration": 0.0305,
      "velocity": 121,
      "chip": "ym2612"
    },
    {
      "channel": 1,
      "note": 73,
      "start": 28.804,
      "duration": 0.1045,
      "velocity": 121,
      "chip": "ym2612"
    },
    {
      "channel": 1,
      "note": 73,
      "start": 28.9115,
      "duration": 0.1137,
      "velocity": 121,
      "chip": "ym2612"
    },
    {
      "channel": 1,
      "note": 73,
      "start": 29.0313,
      "duration": 0.0879,
      "velocity": 121,
      "chip": "ym2612"
    },
    {
      "channel": 4,
      "note": 52,
      "start": 29.0338,
      "duration": 0.2021,
      "velocity": 101,
      "chip": "ym2612"
    },
    {
      "channel": 3,
      "note": 64,
      "start": 29.0362,
      "duration": 0.4236,
      "velocity": 122,
      "chip": "ym2612"
    },
    {
      "channel": 2,
      "note": 71,
      "start": 29.0391,
      "duration": 0.1969,
      "velocity": 127,
      "chip": "ym2612"
    },
    {
      "channel": 1,
      "note": 73,
      "start": 29.1221,
      "duration": 0.1136,
      "velocity": 121,
      "chip": "ym2612"
    },
    {
      "channel": 1,
      "note": 73,
      "start": 29.2422,
      "duration": 0.0496,
      "velocity": 121,
      "chip": "ym2612"
    },
    {
      "channel": 4,
      "note": 54,
      "start": 29.2446,
      "duration": 0.0932,
      "velocity": 101,
      "chip": "ym2612"
    },
    {
      "channel": 2,
      "note": 68,
      "start": 29.2473,
      "duration": 0.0906,
      "velocity": 127,
      "chip": "ym2612"
    },
    {
      "channel": 1,
      "note": 73,
      "start": 29.2942,
      "duration": 0.0434,
      "velocity": 121,
      "chip": "ym2612"
    },
    {
      "channel": 1,
      "note": 73,
      "start": 29.3435,
      "duration": 0.083,
      "velocity": 121,
      "chip": "ym2612"
    },
    {
      "channel": 4,
      "note": 55,
      "start": 29.3461,
      "duration": 0.1972,
      "velocity": 101,
      "chip": "ym2612"
    },
    {
      "channel": 2,
      "note": 71,
      "start": 29.3493,
      "duration": 0.1607,
      "velocity": 127,
      "chip": "ym2612"
    },
    {
      "channel": 1,
      "note": 73,
      "start": 29.4298,
      "duration": 0.1132,
      "velocity": 121,
      "chip": "ym2612"
    },
    {
      "channel": 1,
      "note": 73,
      "start": 29.5491,
      "duration": 0.1049,
      "velocity": 121,
      "chip": "ym2612"
    },
    {
      "channel": 4,
      "note": 49,
      "start": 29.5515,
      "duration": 0.2193,
      "velocity": 101,
      "chip": "ym2612"
    },
    {
      "channel": 3,
      "note": 61,
      "start": 29.5538,
      "duration": 0.4899,
      "velocity": 122,
      "chip": "ym2612"
    },
    {
      "channel": 0,
      "note": 85,
      "start": 29.5565,
      "duration": 1.3784,
      "velocity": 121,
      "chip": "ym2612"
    },
    {
      "channel": 1,
      "note": 73,
      "start": 29.6569,
      "duration": 0.1137,
      "velocity": 121,
      "chip": "ym2612"
    },
    {
      "channel": 1,
      "note": 73,
      "start": 29.7767,
      "duration": 0.0878,
      "velocity": 121,
      "chip": "ym2612"
    },
    {
      "channel": 4,
      "note": 49,
      "start": 29.779,
      "duration": 0.2023,
      "velocity": 101,
      "chip": "ym2612"
    },
    {
      "channel": 1,
      "note": 73,
      "start": 29.8674,
      "duration": 0.1137,
      "velocity": 121,
      "chip": "ym2612"
    },
    {
      "channel": 1,
      "note": 73,
      "start": 29.9876,
      "duration": 0.0487,
      "velocity": 121,
      "chip": "ym2612"
    },
    {
      "channel": 4,
      "note": 49,
      "start": 29.9901,
      "duration": 0.0909,
      "velocity": 101,
      "chip": "ym2612"
    },
    {
      "channel": 1,
      "note": 73,
      "start": 30.0389,
      "duration": 0.042,
      "velocity": 121,
      "chip": "ym2612"
    },
    {
      "channel": 1,
      "note": 73,
      "start": 30.0869,
      "duration": 0.0843,
      "velocity": 121,
      "chip": "ym2612"
    },
    {
      "channel": 4,
      "note": 49,
      "start": 30.0893,
      "duration": 0.1989,
      "velocity": 101,
      "chip": "ym2612"
    },
    {
      "channel": 3,
      "note": 61,
      "start": 30.0917,
      "duration": 0.2567,
      "velocity": 122,
      "chip": "ym2612"
    },
    {
      "channel": 1,
      "note": 73,
      "start": 30.1741,
      "duration": 0.1139,
      "velocity": 121,
      "chip": "ym2612"
    },
    {
      "channel": 1,
      "note": 73,
      "start": 30.2939,
      "duration": 0.0877,
      "velocity": 121,
      "chip": "ym2612"
    },
    {
      "channel": 4,
      "note": 49,
      "start": 30.2964,
      "duration": 0.2188,
      "velocity": 101,
      "chip": "ym2612"
    },
    {
      "channel": 1,
      "note": 73,
      "start": 30.3845,
      "duration": 0.1305,
      "velocity": 121,
      "chip": "ym2612"
    },
    {
      "channel": 1,
      "note": 73,
      "start": 30.521,
      "duration": 0.0878,
      "velocity": 121,
      "chip": "ym2612"
    },
    {
      "channel": 4,
      "note": 49,
      "start": 30.5234,
      "duration": 0.2022,
      "velocity": 101,
      "chip": "ym2612"
    },
    {
      "channel": 3,
      "note": 59,
      "start": 30.5257,
      "duration": 0.3761,
      "velocity": 122,
      "chip": "ym2612"
    },
    {
      "channel": 2,
      "note": 59,
      "start": 30.5284,
      "duration": 0.1974,
      "velocity": 127,
      "chip": "ym2612"
    },
    {
      "channel": 1,
      "note": 73,
      "start": 30.6117,
      "duration": 0.1138,
      "velocity": 121,
      "chip": "ym2612"
    },
    {
      "channel": 1,
      "note": 73,
      "start": 30.7319,
      "duration": 0.0436,
      "velocity": 121,
      "chip": "ym2612"
    },
    {
      "channel": 4,
      "note": 49,
      "start": 30.7343,
      "duration": 0.0917,
      "velocity": 101,
      "chip": "ym2612"
    },
    {
      "channel": 2,
      "note": 63,
      "start": 30.7371,
      "duration": 0.0892,
      "velocity": 127,
      "chip": "ym2612"
    },
    {
      "channel": 1,
      "note": 73,
      "start": 30.778,
      "duration": 0.0477,
      "velocity": 121,
      "chip": "ym2612"
    },
    {
      "channel": 1,
      "note": 73,
      "start": 30.8325,
      "duration": 0.0859,
      "velocity": 121,
      "chip": "ym2612"
    },
    {
      "channel": 4,
      "note": 48,
      "start": 30.835,
      "duration": 0.2002,
      "velocity": 101,
      "chip": "ym2612"
    },
    {
      "channel": 2,
      "note": 66,
      "start": 30.838,
      "duration": 0.1639,
      "velocity": 127,
      "chip": "ym2612"
    },
    {
      "channel": 1,
      "note": 73,
      "start": 30.9217,
      "duration": 0.1133,
      "velocity": 121,
      "chip": "ym2612"
    },
    {
      "channel": 1,
      "note": 73,
      "start": 31.0412,
      "duration": 0.0883,
      "velocity": 121,
      "chip": "ym2612"
    },
    {
      "channel": 4,
      "note": 49,
      "start": 31.044,
      "duration": 0.219,
      "velocity": 101,
      "chip": "ym2612"
    },
    {
      "channel": 3,
      "note": 66,
      "start": 31.0462,
      "duration": 0.4957,
      "velocity": 122,
      "chip": "ym2612"
    },
    {
      "channel": 0,
      "note": 86,
      "start": 31.0487,
      "duration": 0.5244,
      "velocity": 121,
      "chip": "ym2612"
    },
    {
      "channel": 1,
      "note": 73,
      "start": 31.1324,
      "duration": 0.1304,
      "velocity": 121,
      "chip": "ym2612"
    },
    {
      "channel": 1,
      "note": 73,
      "start": 31.2689,
      "duration": 0.0879,
      "velocity": 121,
      "chip": "ym2612"
    },
    {
      "channel": 4,
      "note": 49,
      "start": 31.2712,
      "duration": 0.2024,
      "velocity": 101,
      "chip": "ym2612"
    },
    {
      "channel": 1,
      "note": 73,
      "start": 31.3597,
      "duration": 0.1137,
      "velocity": 121,
      "chip": "ym2612"
    },
    {
      "channel": 1,
      "note": 73,
      "start": 31.4798,
      "duration": 0.0427,
      "velocity": 121,
      "chip": "ym2612"
    },
    {
      "channel": 4,
      "note": 49,
      "start": 31.4822,
      "duration": 0.0911,
      "velocity": 101,
      "chip": "ym2612"
    },
    {
      "channel": 1,
      "note": 73,
      "start": 31.5248,
      "duration": 0.0484,
      "velocity": 121,
      "chip": "ym2612"
    },
    {
      "channel": 1,
      "note": 73,
      "start": 31.5798,
      "duration": 0.0839,
      "velocity": 121,
      "chip": "ym2612"
    },
    {
      "channel": 4,
      "note": 49,
      "start": 31.5825,
      "duration": 0.4259,
      "velocity": 101,
      "chip": "ym2612"
    },
    {
      "channel": 3,
      "note": 66,
      "start": 31.5853,
      "duration": 0.2398,
      "velocity": 122,
      "chip": "ym2612"
    },
    {
      "channel": 0,
      "note": 88,
      "start": 31.5877,
      "duration": 0.8881,
      "velocity": 121,
      "chip": "ym2612"
    },
    {
      "channel": 1,
      "note": 73,
      "start": 31.6666,
      "duration": 0.1138,
      "velocity": 121,
      "chip": "ym2612"
    },
    {
      "channel": 1,
      "note": 73,
      "start": 31.7866,
      "duration": 0.0217,
      "velocity": 121,
      "chip": "ym2612"
    },
    {
      "channel": 1,
      "note": 73,
      "start": 31.8112,
      "duration": 0.0304,
      "velocity": 121,
      "chip": "ym2612"
    },
    {
      "channel": 1,
      "note": 73,
      "start": 31.8445,
      "duration": 0.0305,
      "velocity": 121,
      "chip": "ym2612"
    },
    {
      "channel": 1,
      "note": 73,
      "start": 31.8785,
      "duration": 0.1298,
      "velocity": 121,
      "chip": "ym2612"
    },
    {
      "channel": 1,
      "note": 73,
      "start": 32.0144,
      "duration": 0.0875,
      "velocity": 121,
      "chip": "ym2612"
    },
    {
      "channel": 4,
      "note": 49,
      "start": 32.0168,
      "duration": 0.2017,
      "velocity": 101,
      "chip": "ym2612"
    },
    {
      "channel": 3,
      "note": 64,
      "start": 32.0192,
      "duration": 0.4234,
      "velocity": 122,
      "chip": "ym2612"
    },
    {
      "channel": 2,
      "note": 71,
      "start": 32.022,
      "duration": 0.1968,
      "velocity": 127,
      "chip": "ym2612"
    },
    {
      "channel": 1,
      "note": 73,
      "start": 32.1048,
      "duration": 0.1136,
      "velocity": 121,
      "chip": "ym2612"
    },
    {
      "channel": 1,
      "note": 73,
      "start": 32.2248,
      "duration": 0.0437,
      "velocity": 121,
      "chip": "ym2612"
    },
    {
      "channel": 4,
      "note": 59,
      "start": 32.2272,
      "duration": 0.093,
      "velocity": 101,
      "chip": "ym2612"
    },
    {
      "channel": 2,
      "note": 68,
      "start": 32.23,
      "duration": 0.0904,
      "velocity": 127,
      "chip": "ym2612"
    },
    {
      "channel": 1,
      "note": 73,
      "start": 32.271,
      "duration": 0.0491,
      "velocity": 121,
      "chip": "ym2612"
    },
    {
      "channel": 1,
      "note": 73,
      "start": 32.3259,
      "duration": 0.0833,
      "velocity": 121,
      "chip": "ym2612"
    },
    {
      "channel": 4,
      "note": 61,
      "start": 32.3284,
      "duration": 0.1976,
      "velocity": 101,
      "chip": "ym2612"
    },
    {
      "channel": 2,
      "note": 71,
      "start": 32.3318,
      "duration": 0.161,
      "velocity": 127,
      "chip": "ym2612"
    },
    {
      "channel": 1,
      "note": 73,
      "start": 32.4121,
      "duration": 0.1137,
      "velocity": 121,
      "chip": "ym2612"
    },
    {
      "channel": 1,
      "note": 73,
      "start": 32.532,
      "duration": 0.0877,
      "velocity": 121,
      "chip": "ym2612"
    },
    {
      "channel": 4,
      "note": 49,
      "start": 32.5344,
      "duration": 0.2188,
      "velocity": 101,
      "chip": "ym2612"
    },
    {
      "channel": 3,
      "note": 61,
      "start": 32.5367,
      "duration": 0.4899,
      "velocity": 122,
      "chip": "ym2612"
    },
    {
      "channel": 0,
      "note": 85,
      "start": 32.5396,
      "duration": 1.46,
      "velocity": 121,
      "chip": "ym2612"
    },
    {
      "channel": 1,
      "note": 73,
      "start": 32.6226,
      "duration": 0.1304,
      "velocity": 121,
      "chip": "ym2612"
    },
    {
      "channel": 1,
      "note": 73,
      "start": 32.7591,
      "duration": 0.088,
      "velocity": 121,
      "chip": "ym2612"
    },
    {
      "channel": 4,
      "note": 49,
      "start": 32.7615,
      "duration": 0.2024,
      "velocity": 101,
      "chip": "ym2612"
    },
    {
      "channel": 1,
      "note": 73,
      "start": 32.85,
      "duration": 0.1137,
      "velocity": 121,
      "chip": "ym2612"
    },
    {
      "channel": 1,
      "note": 73,
      "start": 32.9702,
      "duration": 0.043,
      "velocity": 121,
      "chip": "ym2612"
    },
    {
      "channel": 4,
      "note": 49,
      "start": 32.9727,
      "duration": 0.0915,
      "velocity": 101,
      "chip": "ym2612"
    },
    {
      "channel": 1,
      "note": 73,
      "start": 33.0156,
      "duration": 0.0485,
      "velocity": 121,
      "chip": "ym2612"
    },
    {
      "channel": 1,
      "note": 73,
      "start": 33.0701,
      "duration": 0.0843,
      "velocity": 121,
      "chip": "ym2612"
    },
    {
      "channel": 4,
      "note": 49,
      "start": 33.0725,
      "duration": 0.1988,
      "velocity": 101,
      "chip": "ym2612"
    },
    {
      "channel": 3,
      "note": 61,
      "start": 33.075,
      "duration": 0.2572,
      "velocity": 122,
      "chip": "ym2612"
    },
    {
      "channel": 1,
      "note": 73,
      "start": 33.1573,
      "duration": 0.1138,
      "velocity": 121,
      "chip": "ym2612"
    },
    {
      "channel": 1,
      "note": 73,
      "start": 33.2773,
      "duration": 0.0883,
      "velocity": 121,
      "chip": "ym2612"
    },
    {
      "channel": 4,
      "note": 49,
      "start": 33.2798,
      "duration": 0.2192,
      "velocity": 101,
      "chip": "ym2612"
    },
    {
      "channel": 1,
      "note": 73,
      "start": 33.3688,
      "duration": 0.13,
      "velocity": 121,
      "chip": "ym2612"
    },
    {
      "channel": 1,
      "note": 73,
      "start": 33.5049,
      "duration": 0.088,
      "velocity": 121,
      "chip": "ym2612"
    },
    {
      "channel": 4,
      "note": 49,
      "start": 33.5075,
      "duration": 0.2021,
      "velocity": 101,
      "chip": "ym2612"
    },
    {
      "channel": 3,
      "note": 59,
      "start": 33.5098,
      "duration": 0.3732,
      "velocity": 122,
      "chip": "ym2612"
    },
    {
      "channel": 2,
      "note": 66,
      "start": 33.5129,
      "duration": 0.1969,
      "velocity": 127,
      "chip": "ym2612"
    },
    {
      "channel": 1,
      "note": 73,
      "start": 33.5958,
      "duration": 0.1136,
      "velocity": 121,
      "chip": "ym2612"
    },
    {
      "channel": 1,
      "note": 73,
      "start": 33.7158,
      "duration": 0.0436,
      "velocity": 121,
      "chip": "ym2612"
    },
    {
      "channel": 4,
      "note": 49,
      "start": 33.7182,
      "duration": 0.0931,
      "velocity": 101,
      "chip": "ym2612"
    },
    {
      "channel": 2,
      "note": 63,
      "start": 33.721,
      "duration": 0.0905,
      "velocity": 127,
      "chip": "ym2612"
    },
    {
      "channel": 1,
      "note": 73,
      "start": 33.762,
      "duration": 0.0492,
      "velocity": 121,
      "chip": "ym2612"
    },
    {
      "channel": 1,
      "note": 73,
      "start": 33.817,
      "duration": 0.0826,
      "velocity": 121,
      "chip": "ym2612"
    },
    {
      "channel": 4,
      "note": 48,
      "start": 33.8194,
      "duration": 0.197,
      "velocity": 101,
      "chip": "ym2612"
    },
    {
      "channel": 2,
      "note": 66,
      "start": 33.8225,
      "duration": 0.1606,
      "velocity": 127,
      "chip": "ym2612"
    },
    {
      "channel": 1,
      "note": 73,
      "start": 33.9025,
      "duration": 0.1137,
      "velocity": 121,
      "chip": "ym2612"
    },
    {
      "channel": 1,
      "note": 73,
      "start": 34.0224,
      "duration": 0.0873,
      "velocity": 121,
      "chip": "ym2612"
    },
    {
      "channel": 4,
      "note": 49,
      "start": 34.0247,
      "duration": 0.2186,
      "velocity": 101,
      "chip": "ym2612"
    },
    {
      "channel": 3,
      "note": 66,
      "start": 34.027,
      "duration": 0.4955,
      "velocity": 122,
      "chip": "ym2612"
    },
    {
      "channel": 0,
      "note": 90,
      "start": 34.0295,
      "duration": 0.5246,
      "velocity": 121,
      "chip": "ym2612"
    },
    {
      "channel": 1,
      "note": 73,
      "start": 34.1126,
      "duration": 0.1305,
      "velocity": 121,
      "chip": "ym2612"
    },
    {
      "channel": 1,
      "note": 73,
      "start": 34.2492,
      "duration": 0.088,
      "velocity": 121,
      "chip": "ym2612"
    },
    {
      "channel": 4,
      "note": 49,
      "start": 34.2516,
      "duration": 0.2025,
      "velocity": 101,
      "chip": "ym2612"
    },
    {
      "channel": 1,
      "note": 73,
      "start": 34.34,
      "duration": 0.1138,
      "velocity": 121,
      "chip": "ym2612"
    },
    {
      "channel": 1,
      "note": 73,
      "start": 34.4601,
      "duration": 0.0427,
      "velocity": 121,
      "chip": "ym2612"
    },
    {
      "channel": 4,
      "note": 49,
      "start": 34.4626,
      "duration": 0.0918,
      "velocity": 101,
      "chip": "ym2612"
    },
    {
      "channel": 1,
      "note": 73,
      "start": 34.5054,
      "duration": 0.0488,
      "velocity": 121,
      "chip": "ym2612"
    },
    {
      "channel": 1,
      "note": 73,
      "start": 34.5608,
      "duration": 0.0838,
      "velocity": 121,
      "chip": "ym2612"
    },
    {
      "channel": 4,
      "note": 55,
      "start": 34.5635,
      "duration": 0.4258,
      "velocity": 101,
      "chip": "ym2612"
    },
    {
      "channel": 3,
      "note": 66,
      "start": 34.5663,
      "duration": 0.2396,
      "velocity": 122,
      "chip": "ym2612"
    },
    {
      "channel": 0,
      "note": 91,
      "start": 34.5687,
      "duration": 0.8333,
      "velocity": 121,
      "chip": "ym2612"
    },
    {
      "channel": 1,
      "note": 73,
      "start": 34.6482,
      "duration": 0.0298,
      "velocity": 121,
      "chip": "ym2612"
    },
    {
      "channel": 1,
      "note": 73,
      "start": 34.6809,
      "duration": 0.0471,
      "velocity": 121,
      "chip": "ym2612"
    },
    {
      "channel": 1,
      "note": 73,
      "start": 34.7308,
      "duration": 0.0305,
      "velocity": 121,
      "chip": "ym2612"
    },
    {
      "channel": 1,
      "note": 73,
      "start": 34.7675,
      "duration": 0.0882,
      "velocity": 121,
      "chip": "ym2612"
    },
    {
      "channel": 1,
      "note": 73,
      "start": 34.8587,
      "duration": 0.1305,
      "velocity": 121,
      "chip": "ym2612"
    },
    {
      "channel": 1,
      "note": 73,
      "start": 34.9952,
      "duration": 0.0878,
      "velocity": 121,
      "chip": "ym2612"
    },
    {
      "channel": 4,
      "note": 52,
      "start": 34.9979,
      "duration": 0.202,
      "velocity": 101,
      "chip": "ym2612"
    },
    {
      "channel": 3,
      "note": 64,
      "start": 35.0004,
      "duration": 0.435,
      "velocity": 122,
      "chip": "ym2612"
    },
    {
      "channel": 2,
      "note": 71,
      "start": 35.0033,
      "duration": 0.1968,
      "velocity": 127,
      "chip": "ym2612"
    },
    {
      "channel": 1,
      "note": 73,
      "start": 35.086,
      "duration": 0.1137,
      "velocity": 121,
      "chip": "ym2612"
    },
    {
      "channel": 1,
      "note": 73,
      "start": 35.2061,
      "duration": 0.0431,
      "velocity": 121,
      "chip": "ym2612"
    },
    {
      "channel": 4,
      "note": 54,
      "start": 35.2086,
      "duration": 0.0851,
      "velocity": 101,
      "chip": "ym2612"
    },
    {
      "channel": 2,
      "note": 68,
      "start": 35.2113,
      "duration": 0.0826,
      "velocity": 127,
      "chip": "ym2612"
    },
    {
      "channel": 1,
      "note": 73,
      "start": 35.2517,
      "duration": 0.0417,
      "velocity": 121,
      "chip": "ym2612"
    },
    {
      "channel": 1,
      "note": 73,
      "start": 35.3001,
      "duration": 0.1021,
      "velocity": 121,
      "chip": "ym2612"
    },
    {
      "channel": 4,
      "note": 55,
      "start": 35.3024,
      "duration": 0.2163,
      "velocity": 101,
      "chip": "ym2612"
    },
    {
      "channel": 2,
      "note": 71,
      "start": 35.3059,
      "duration": 0.1796,
      "velocity": 127,
      "chip": "ym2612"
    },
    {
      "channel": 1,
      "note": 73,
      "start": 35.4051,
      "duration": 0.1136,
      "velocity": 121,
      "chip": "ym2612"
    },
    {
      "channel": 1,
      "note": 73,
      "start": 35.5251,
      "duration": 0.0875,
      "velocity": 121,
      "chip": "ym2612"
    },
    {
      "channel": 0,
      "note": 61,
      "start": 35.5276,
      "duration": 0.0848,
      "velocity": 121,
      "chip": "ym2612"
    },
    {
      "channel": 4,
      "note": 49,
      "start": 35.5305,
      "duration": 0.1988,
      "velocity": 101,
      "chip": "ym2612"
    },
    {
      "channel": 3,
      "note": 85,
      "start": 35.5344,
      "duration": 1.3328,
      "velocity": 121,
      "chip": "ym2612"
    },
    {
      "channel": 2,
      "note": 37,
      "start": 35.537,
      "duration": 0.1926,
      "velocity": 125,
      "chip": "ym2612"
    },
    {
      "channel": 1,
      "note": 73,
      "start": 35.6155,
      "duration": 0.1137,
      "velocity": 121,
      "chip": "ym2612"
    },
    {
      "channel": 0,
      "note": 64,
      "start": 35.6179,
      "duration": 0.1111,
      "velocity": 121,
      "chip": "ym2612"
    },
    {
      "channel": 1,
      "note": 73,
      "start": 35.7323,
      "duration": 0.1303,
      "velocity": 121,
      "chip": "ym2612"
    },
    {
      "channel": 0,
      "note": 57,
      "start": 35.7347,
      "duration": 0.1278,
      "velocity": 121,
      "chip": "ym2612"
    },
    {
      "channel": 2,
      "note": 68,
      "start": 35.738,
      "duration": 0.2416,
      "velocity": 125,
      "chip": "ym2612"
    },
    {
      "channel": 5,
      "note": 64,
      "start": 35.7407,
      "duration": 0.2388,
      "velocity": 125,
      "chip": "ym2612"
    },
    {
      "channel": 1,
      "note": 73,
      "start": 35.8659,
      "duration": 0.1133,
      "velocity": 121,
      "chip": "ym2612"
    },
    {
      "channel": 0,
      "note": 66,
      "start": 35.8683,
      "duration": 0.1107,
      "velocity": 121,
      "chip": "ym2612"
    },
    {
      "channel": 1,
      "note": 73,
      "start": 35.9861,
      "duration": 0.0432,
      "velocity": 121,
      "chip": "ym2612"
    },
    {
      "channel": 0,
      "note": 52,
      "start": 35.9882,
      "duration": 0.0411,
      "velocity": 121,
      "chip": "ym2612"
    },
    {
      "channel": 2,
      "note": 49,
      "start": 35.9909,
      "duration": 0.0844,
      "velocity": 125,
      "chip": "ym2612"
    },
    {
      "channel": 1,
      "note": 73,
      "start": 36.0318,
      "duration": 0.0433,
      "velocity": 121,
      "chip": "ym2612"
    },
    {
      "channel": 0,
      "note": 61,
      "start": 36.0341,
      "duration": 0.0409,
      "velocity": 121,
      "chip": "ym2612"
    },
    {
      "channel": 1,
      "note": 73,
      "start": 36.0776,
      "duration": 0.0729,
      "velocity": 121,
      "chip": "ym2612"
    },
    {
      "channel": 0,
      "note": 59,
      "start": 36.0797,
      "duration": 0.0706,
      "velocity": 121,
      "chip": "ym2612"
    },
    {
      "channel": 2,
      "note": 68,
      "start": 36.0834,
      "duration": 0.1611,
      "velocity": 125,
      "chip": "ym2612"
    },
    {
      "channel": 4,
      "note": 64,
      "start": 36.0859,
      "duration": 0.1584,
      "velocity": 125,
      "chip": "ym2612"
    },
    {
      "channel": 1,
      "note": 73,
      "start": 36.1569,
      "duration": 0.0872,
      "velocity": 121,
      "chip": "ym2612"
    },
    {
      "channel": 0,
      "note": 66,
      "start": 36.159,
      "duration": 0.085,
      "velocity": 121,
      "chip": "ym2612"
    },
    {
      "channel": 1,
      "note": 73,
      "start": 36.251,
      "duration": 0.0866,
      "velocity": 121,
      "chip": "ym2612"
    },
    {
      "channel": 0,
      "note": 61,
      "start": 36.2534,
      "duration": 0.0841,
      "velocity": 121,
      "chip": "ym2612"
    },
    {
      "channel": 4,
      "note": 37,
      "start": 36.2559,
      "duration": 0.1985,
      "velocity": 125,
      "chip": "ym2612"
    },
    {
      "channel": 1,
      "note": 73,
      "start": 36.3405,
      "duration": 0.1137,
      "velocity": 121,
      "chip": "ym2612"
    },
    {
      "channel": 0,
      "note": 64,
      "start": 36.3429,
      "duration": 0.1111,
      "velocity": 121,
      "chip": "ym2612"
    },
    {
      "channel": 1,
      "note": 73,
      "start": 36.4602,
      "duration": 0.1037,
      "velocity": 121,
      "chip": "ym2612"
    },
    {
      "channel": 0,
      "note": 59,
      "start": 36.4626,
      "duration": 0.1011,
      "velocity": 121,
      "chip": "ym2612"
    },
    {
      "channel": 4,
      "note": 64,
      "start": 36.4653,
      "duration": 0.2155,
      "velocity": 125,
      "chip": "ym2612"
    },
    {
      "channel": 2,
      "note": 68,
      "start": 36.4677,
      "duration": 0.2132,
      "velocity": 125,
      "chip": "ym2612"
    },
    {
      "channel": 1,
      "note": 73,
      "start": 36.5668,
      "duration": 0.1137,
      "velocity": 121,
      "chip": "ym2612"
    },
    {
      "channel": 0,
      "note": 66,
      "start": 36.5693,
      "duration": 0.1111,
      "velocity": 121,
      "chip": "ym2612"
    },
    {
      "channel": 1,
      "note": 73,
      "start": 36.6874,
      "duration": 0.044,
      "velocity": 121,
      "chip": "ym2612"
    },
    {
      "channel": 0,
      "note": 57,
      "start": 36.6899,
      "duration": 0.0415,
      "velocity": 121,
      "chip": "ym2612"
    },
    {
      "channel": 4,
      "note": 49,
      "start": 36.6925,
      "duration": 0.0829,
      "velocity": 125,
      "chip": "ym2612"
    },
    {
      "channel": 1,
      "note": 73,
      "start": 36.734,
      "duration": 0.0413,
      "velocity": 121,
      "chip": "ym2612"
    },
    {
      "channel": 0,
      "note": 64,
      "start": 36.7364,
      "duration": 0.0388,
      "velocity": 121,
      "chip": "ym2612"
    },
    {
      "channel": 1,
      "note": 73,
      "start": 36.7778,
      "duration": 0.0728,
      "velocity": 121,
      "chip": "ym2612"
    },
    {
      "channel": 0,
      "note": 52,
      "start": 36.78,
      "duration": 0.0705,
      "velocity": 121,
      "chip": "ym2612"
    },
    {
      "channel": 4,
      "note": 67,
      "start": 36.7839,
      "duration": 0.1837,
      "velocity": 125,
      "chip": "ym2612"
    },
    {
      "channel": 2,
      "note": 64,
      "start": 36.7863,
      "duration": 0.1814,
      "velocity": 125,
      "chip": "ym2612"
    },
    {
      "channel": 1,
      "note": 73,
      "start": 36.8535,
      "duration": 0.1138,
      "velocity": 121,
      "chip": "ym2612"
    },
    {
      "channel": 0,
      "note": 66,
      "start": 36.8559,
      "duration": 0.1113,
      "velocity": 121,
      "chip": "ym2612"
    },
    {
      "channel": 1,
      "note": 73,
      "start": 36.9735,
      "duration": 0.0875,
      "velocity": 121,
      "chip": "ym2612"
    },
    {
      "channel": 0,
      "note": 61,
      "start": 36.9756,
      "duration": 0.0853,
      "velocity": 121,
      "chip": "ym2612"
    },
    {
      "channel": 3,
      "note": 86,
      "start": 36.9787,
      "duration": 0.5456,
      "velocity": 121,
      "chip": "ym2612"
    },
    {
      "channel": 4,
      "note": 37,
      "start": 36.981,
      "duration": 0.1968,
      "velocity": 125,
      "chip": "ym2612"
    },
    {
      "channel": 1,
      "note": 73,
      "start": 37.0639,
      "duration": 0.1137,
      "velocity": 121,
      "chip": "ym2612"
    },
    {
      "channel": 0,
      "note": 64,
      "start": 37.0663,
      "duration": 0.1111,
      "velocity": 121,
      "chip": "ym2612"
    },
    {
      "channel": 1,
      "note": 73,
      "start": 37.1806,
      "duration": 0.1304,
      "velocity": 121,
      "chip": "ym2612"
    },
    {
      "channel": 0,
      "note": 57,
      "start": 37.183,
      "duration": 0.1278,
      "velocity": 121,
      "chip": "ym2612"
    },
    {
      "channel": 4,
      "note": 68,
      "start": 37.1862,
      "duration": 0.2417,
      "velocity": 125,
      "chip": "ym2612"
    },
    {
      "channel": 2,
      "note": 65,
      "start": 37.1888,
      "duration": 0.2392,
      "velocity": 125,
      "chip": "ym2612"
    },
    {
      "channel": 1,
      "note": 73,
      "start": 37.3142,
      "duration": 0.1135,
      "velocity": 121,
      "chip": "ym2612"
    },
    {
      "channel": 0,
      "note": 66,
      "start": 37.3167,
      "duration": 0.1109,
      "velocity": 121,
      "chip": "ym2612"
    },
    {
      "channel": 1,
      "note": 73,
      "start": 37.4345,
      "duration": 0.0439,
      "velocity": 121,
      "chip": "ym2612"
    },
    {
      "channel": 0,
      "note": 52,
      "start": 37.4369,
      "duration": 0.0415,
      "velocity": 121,
      "chip": "ym2612"
    },
    {
      "channel": 4,
      "note": 49,
      "start": 37.4396,
      "duration": 0.0847,
      "velocity": 125,
      "chip": "ym2612"
    },
    {
      "channel": 1,
      "note": 73,
      "start": 37.481,
      "duration": 0.0431,
      "velocity": 121,
      "chip": "ym2612"
    },
    {
      "channel": 0,
      "note": 61,
      "start": 37.4833,
      "duration": 0.0408,
      "velocity": 121,
      "chip": "ym2612"
    },
    {
      "channel": 1,
      "note": 73,
      "start": 37.5268,
      "duration": 0.0735,
      "velocity": 121,
      "chip": "ym2612"
    },
    {
      "channel": 0,
      "note": 59,
      "start": 37.529,
      "duration": 0.0712,
      "velocity": 121,
      "chip": "ym2612"
    },
    {
      "channel": 3,
      "note": 88,
      "start": 37.5325,
      "duration": 0.7225,
      "velocity": 121,
      "chip": "ym2612"
    },
    {
      "channel": 4,
      "note": 68,
      "start": 37.5349,
      "duration": 0.1593,
      "velocity": 125,
      "chip": "ym2612"
    },
    {
      "channel": 2,
      "note": 65,
      "start": 37.5371,
      "duration": 0.1574,
      "velocity": 125,
      "chip": "ym2612"
    },
    {
      "channel": 1,
      "note": 73,
      "start": 37.6067,
      "duration": 0.0873,
      "velocity": 121,
      "chip": "ym2612"
    },
    {
      "channel": 0,
      "note": 66,
      "start": 37.6089,
      "duration": 0.085,
      "velocity": 121,
      "chip": "ym2612"
    },
    {
      "channel": 1,
      "note": 73,
      "start": 37.7004,
      "duration": 0.0117,
      "velocity": 121,
      "chip": "ym2612"
    },
    {
      "channel": 0,
      "note": 61,
      "start": 37.7024,
      "duration": 0.0845,
      "velocity": 121,
      "chip": "ym2612"
    },
    {
      "channel": 4,
      "note": 37,
      "start": 37.705,
      "duration": 0.1306,
      "velocity": 125,
      "chip": "ym2612"
    },
    {
      "channel": 1,
      "note": 73,
      "start": 37.7146,
      "duration": 0.0391,
      "velocity": 121,
      "chip": "ym2612"
    },
    {
      "channel": 1,
      "note": 73,
      "start": 37.7566,
      "duration": 0.0305,
      "velocity": 121,
      "chip": "ym2612"
    },
    {
      "channel": 1,
      "note": 73,
      "start": 37.7936,
      "duration": 0.042,
      "velocity": 121,
      "chip": "ym2612"
    },
    {
      "channel": 0,
      "note": 64,
      "start": 37.7956,
      "duration": 0.0398,
      "velocity": 121,
      "chip": "ym2612"
    },
    {
      "channel": 1,
      "note": 73,
      "start": 37.8414,
      "duration": 0.1015,
      "velocity": 121,
      "chip": "ym2612"
    },
    {
      "channel": 0,
      "note": 59,
      "start": 37.8437,
      "duration": 0.0992,
      "velocity": 121,
      "chip": "ym2612"
    },
    {
      "channel": 4,
      "note": 68,
      "start": 37.8467,
      "duration": 0.1901,
      "velocity": 125,
      "chip": "ym2612"
    },
    {
      "channel": 2,
      "note": 65,
      "start": 37.8491,
      "duration": 0.1878,
      "velocity": 125,
      "chip": "ym2612"
    },
    {
      "channel": 1,
      "note": 73,
      "start": 37.949,
      "duration": 0.0876,
      "velocity": 121,
      "chip": "ym2612"
    },
    {
      "channel": 0,
      "note": 66,
      "start": 37.9512,
      "duration": 0.0853,
      "velocity": 121,
      "chip": "ym2612"
    },
    {
      "channel": 1,
      "note": 73,
      "start": 38.0438,
      "duration": 0.0424,
      "velocity": 121,
      "chip": "ym2612"
    },
    {
      "channel": 0,
      "note": 57,
      "start": 38.0462,
      "duration": 0.04,
      "velocity": 121,
      "chip": "ym2612"
    },
    {
      "channel": 4,
      "note": 49,
      "start": 38.0487,
      "duration": 0.0817,
      "velocity": 125,
      "chip": "ym2612"
    },
    {
      "channel": 1,
      "note": 73,
      "start": 38.089,
      "duration": 0.0413,
      "velocity": 121,
      "chip": "ym2612"
    },
    {
      "channel": 0,
      "note": 64,
      "start": 38.0915,
      "duration": 0.0387,
      "velocity": 121,
      "chip": "ym2612"
    },
    {
      "channel": 1,
      "note": 73,
      "start": 38.1327,
      "duration": 0.0723,
      "velocity": 121,
      "chip": "ym2612"
    },
    {
      "channel": 0,
      "note": 52,
      "start": 38.1349,
      "duration": 0.0699,
      "velocity": 121,
      "chip": "ym2612"
    },
    {
      "channel": 4,
      "note": 65,
      "start": 38.1386,
      "duration": 0.1833,
      "velocity": 125,
      "chip": "ym2612"
    },
    {
      "channel": 2,
      "note": 67,
      "start": 38.1409,
      "duration": 0.1812,
      "velocity": 125,
      "chip": "ym2612"
    },
    {
      "channel": 1,
      "note": 73,
      "start": 38.208,
      "duration": 0.1137,
      "velocity": 121,
      "chip": "ym2612"
    },
    {
      "channel": 0,
      "note": 66,
      "start": 38.2104,
      "duration": 0.1112,
      "velocity": 121,
      "chip": "ym2612"
    },
    {
      "channel": 1,
      "note": 73,
      "start": 38.328,
      "duration": 0.0881,
      "velocity": 121,
      "chip": "ym2612"
    },
    {
      "channel": 0,
      "note": 61,
      "start": 38.3304,
      "duration": 0.0856,
      "velocity": 121,
      "chip": "ym2612"
    },
    {
      "channel": 3,
      "note": 85,
      "start": 38.3334,
      "duration": 1.4688,
      "velocity": 121,
      "chip": "ym2612"
    },
    {
      "channel": 4,
      "note": 37,
      "start": 38.3357,
      "duration": 0.1972,
      "velocity": 125,
      "chip": "ym2612"
    },
    {
      "channel": 1,
      "note": 73,
      "start": 38.419,
      "duration": 0.1137,
      "velocity": 121,
      "chip": "ym2612"
    },
    {
      "channel": 0,
      "note": 64,
      "start": 38.4215,
      "duration": 0.1111,
      "velocity": 121,
      "chip": "ym2612"
    },
    {
      "channel": 1,
      "note": 73,
      "start": 38.5358,
      "duration": 0.1304,
      "velocity": 121,
      "chip": "ym2612"
    },
    {
      "channel": 0,
      "note": 57,
      "start": 38.5382,
      "duration": 0.1278,
      "velocity": 121,
      "chip": "ym2612"
    },
    {
      "channel": 4,
      "note": 68,
      "start": 38.5414,
      "duration": 0.2416,
      "velocity": 125,
      "chip": "ym2612"
    },
    {
      "channel": 2,
      "note": 64,
      "start": 38.544,
      "duration": 0.2392,
      "velocity": 125,
      "chip": "ym2612"
    },
    {
      "channel": 1,
      "note": 73,
      "start": 38.6691,
      "duration": 0.1137,
      "velocity": 121,
      "chip": "ym2612"
    },
    {
      "channel": 0,
      "note": 66,
      "start": 38.6715,
      "duration": 0.1111,
      "velocity": 121,
      "chip": "ym2612"
    },
    {
      "channel": 1,
      "note": 73,
      "start": 38.7893,
      "duration": 0.0432,
      "velocity": 121,
      "chip": "ym2612"
    },
    {
      "channel": 0,
      "note": 52,
      "start": 38.7914,
      "duration": 0.041,
      "velocity": 121,
      "chip": "ym2612"
    },
    {
      "channel": 4,
      "note": 49,
      "start": 38.794,
      "duration": 0.0839,
      "velocity": 125,
      "chip": "ym2612"
    },
    {
      "channel": 1,
      "note": 73,
      "start": 38.835,
      "duration": 0.0427,
      "velocity": 121,
      "chip": "ym2612"
    },
    {
      "channel": 0,
      "note": 61,
      "start": 38.8373,
      "duration": 0.0403,
      "velocity": 121,
      "chip": "ym2612"
    },
    {
      "channel": 1,
      "note": 73,
      "start": 38.8802,
      "duration": 0.0731,
      "velocity": 121,
      "chip": "ym2612"
    },
    {
      "channel": 0,
      "note": 59,
      "start": 38.8824,
      "duration": 0.0708,
      "velocity": 121,
      "chip": "ym2612"
    },
    {
      "channel": 4,
      "note": 64,
      "start": 38.886,
      "duration": 0.1841,
      "velocity": 125,
      "chip": "ym2612"
    },
    {
      "channel": 2,
      "note": 68,
      "start": 38.8888,
      "duration": 0.1815,
      "velocity": 125,
      "chip": "ym2612"
    },
    {
      "channel": 1,
      "note": 73,
      "start": 38.9562,
      "duration": 0.1137,
      "velocity": 121,
      "chip": "ym2612"
    },
    {
      "channel": 0,
      "note": 66,
      "start": 38.9586,
      "duration": 0.1111,
      "velocity": 121,
      "chip": "ym2612"
    },
    {
      "channel": 1,
      "note": 73,
      "start": 39.0761,
      "duration": 0.088,
      "velocity": 121,
      "chip": "ym2612"
    },
    {
      "channel": 0,
      "note": 61,
      "start": 39.0785,
      "duration": 0.0855,
      "velocity": 121,
      "chip": "ym2612"
    },
    {
      "channel": 4,
      "note": 37,
      "start": 39.0812,
      "duration": 0.1997,
      "velocity": 125,
      "chip": "ym2612"
    },
    {
      "channel": 1,
      "note": 73,
      "start": 39.1671,
      "duration": 0.1137,
      "velocity": 121,
      "chip": "ym2612"
    },
    {
      "channel": 0,
      "note": 64,
      "start": 39.1695,
      "duration": 0.1111,
      "velocity": 121,
      "chip": "ym2612"
    },
    {
      "channel": 1,
      "note": 73,
      "start": 39.2837,
      "duration": 0.1304,
      "velocity": 121,
      "chip": "ym2612"
    },
    {
      "channel": 0,
      "note": 59,
      "start": 39.2862,
      "duration": 0.1279,
      "velocity": 121,
      "chip": "ym2612"
    },
    {
      "channel": 4,
      "note": 68,
      "start": 39.2893,
      "duration": 0.2416,
      "velocity": 125,
      "chip": "ym2612"
    },
    {
      "channel": 2,
      "note": 64,
      "start": 39.292,
      "duration": 0.2392,
      "velocity": 125,
      "chip": "ym2612"
    },
    {
      "channel": 1,
      "note": 73,
      "start": 39.4171,
      "duration": 0.1137,
      "velocity": 121,
      "chip": "ym2612"
    },
    {
      "channel": 0,
      "note": 66,
      "start": 39.4195,
      "duration": 0.1111,
      "velocity": 121,
      "chip": "ym2612"
    },
    {
      "channel": 1,
      "note": 73,
      "start": 39.5373,
      "duration": 0.044,
      "velocity": 121,
      "chip": "ym2612"
    },
    {
      "channel": 0,
      "note": 57,
      "start": 39.5394,
      "duration": 0.0419,
      "velocity": 121,
      "chip": "ym2612"
    },
    {
      "channel": 4,
      "note": 49,
      "start": 39.542,
      "duration": 0.0845,
      "velocity": 125,
      "chip": "ym2612"
    },
    {
      "channel": 1,
      "note": 73,
      "start": 39.5841,
      "duration": 0.0422,
      "velocity": 121,
      "chip": "ym2612"
    },
    {
      "channel": 0,
      "note": 64,
      "start": 39.5866,
      "duration": 0.0397,
      "velocity": 121,
      "chip": "ym2612"
    },
    {
      "channel": 1,
      "note": 73,
      "start": 39.6288,
      "duration": 0.0735,
      "velocity": 121,
      "chip": "ym2612"
    },
    {
      "channel": 0,
      "note": 52,
      "start": 39.631,
      "duration": 0.0712,
      "velocity": 121,
      "chip": "ym2612"
    },
    {
      "channel": 4,
      "note": 64,
      "start": 39.6346,
      "duration": 0.1846,
      "velocity": 125,
      "chip": "ym2612"
    },
    {
      "channel": 2,
      "note": 67,
      "start": 39.6369,
      "duration": 0.1824,
      "velocity": 125,
      "chip": "ym2612"
    },
    {
      "channel": 1,
      "note": 73,
      "start": 39.7053,
      "duration": 0.1137,
      "velocity": 121,
      "chip": "ym2612"
    },
    {
      "channel": 0,
      "note": 66,
      "start": 39.7077,
      "duration": 0.1111,
      "velocity": 121,
      "chip": "ym2612"
    },
    {
      "channel": 1,
      "note": 73,
      "start": 39.8252,
      "duration": 0.088,
      "velocity": 121,
      "chip": "ym2612"
    },
    {
      "channel": 0,
      "note": 61,
      "start": 39.8273,
      "duration": 0.0858,
      "velocity": 121,
      "chip": "ym2612"
    },
    {
      "channel": 3,
      "note": 90,
      "start": 39.8299,
      "duration": 0.5458,
      "velocity": 121,
      "chip": "ym2612"
    },
    {
      "channel": 4,
      "note": 37,
      "start": 39.8322,
      "duration": 0.1978,
      "velocity": 125,
      "chip": "ym2612"
    },
    {
      "channel": 1,
      "note": 73,
      "start": 39.9161,
      "duration": 0.1137,
      "velocity": 121,
      "chip": "ym2612"
    },
    {
      "channel": 0,
      "note": 64,
      "start": 39.9185,
      "duration": 0.1111,
      "velocity": 121,
      "chip": "ym2612"
    },
    {
      "channel": 1,
      "note": 73,
      "start": 40.0328,
      "duration": 0.1137,
      "velocity": 121,
      "chip": "ym2612"
    },
    {
      "channel": 0,
      "note": 57,
      "start": 40.0352,
      "duration": 0.1111,
      "velocity": 121,
      "chip": "ym2612"
    },
    {
      "channel": 4,
      "note": 68,
      "start": 40.0384,
      "duration": 0.2416,
      "velocity": 125,
      "chip": "ym2612"
    },
    {
      "channel": 2,
      "note": 64,
      "start": 40.0414,
      "duration": 0.2388,
      "velocity": 125,
      "chip": "ym2612"
    },
    {
      "channel": 1,
      "note": 73,
      "start": 40.1494,
      "duration": 0.1304,
      "velocity": 121,
      "chip": "ym2612"
    },
    {
      "channel": 0,
      "note": 66,
      "start": 40.1518,
      "duration": 0.1279,
      "velocity": 121,
      "chip": "ym2612"
    },
    {
      "channel": 1,
      "note": 73,
      "start": 40.2864,
      "duration": 0.0444,
      "velocity": 121,
      "chip": "ym2612"
    },
    {
      "channel": 0,
      "note": 52,
      "start": 40.2888,
      "duration": 0.042,
      "velocity": 121,
      "chip": "ym2612"
    },
    {
      "channel": 4,
      "note": 49,
      "start": 40.2914,
      "duration": 0.0844,
      "velocity": 125,
      "chip": "ym2612"
    },
    {
      "channel": 1,
      "note": 73,
      "start": 40.3333,
      "duration": 0.0423,
      "velocity": 121,
      "chip": "ym2612"
    },
    {
      "channel": 0,
      "note": 61,
      "start": 40.3354,
      "duration": 0.0401,
      "velocity": 121,
      "chip": "ym2612"
    },
    {
      "channel": 1,
      "note": 73,
      "start": 40.378,
      "duration": 0.0565,
      "velocity": 121,
      "chip": "ym2612"
    },
    {
      "channel": 0,
      "note": 59,
      "start": 40.3802,
      "duration": 0.0541,
      "velocity": 121,
      "chip": "ym2612"
    },
    {
      "channel": 3,
      "note": 91,
      "start": 40.384,
      "duration": 0.7998,
      "velocity": 121,
      "chip": "ym2612"
    },
    {
      "channel": 4,
      "note": 65,
      "start": 40.3862,
      "duration": 0.1819,
      "velocity": 125,
      "chip": "ym2612"
    },
    {
      "channel": 2,
      "note": 68,
      "start": 40.3886,
      "duration": 0.1796,
      "velocity": 125,
      "chip": "ym2612"
    },
    {
      "channel": 1,
      "note": 73,
      "start": 40.4378,
      "duration": 0.0466,
      "velocity": 121,
      "chip": "ym2612"
    },
    {
      "channel": 0,
      "note": 66,
      "start": 40.4402,
      "duration": 0.1276,
      "velocity": 121,
      "chip": "ym2612"
    },
    {
      "channel": 1,
      "note": 73,
      "start": 40.4873,
      "duration": 0.0305,
      "velocity": 121,
      "chip": "ym2612"
    },
    {
      "channel": 1,
      "note": 73,
      "start": 40.5207,
      "duration": 0.0472,
      "velocity": 121,
      "chip": "ym2612"
    },
    {
      "channel": 1,
      "note": 73,
      "start": 40.5747,
      "duration": 0.0877,
      "velocity": 121,
      "chip": "ym2612"
    },
    {
      "channel": 0,
      "note": 61,
      "start": 40.5771,
      "duration": 0.0852,
      "velocity": 121,
      "chip": "ym2612"
    },
    {
      "channel": 4,
      "note": 37,
      "start": 40.5797,
      "duration": 0.1995,
      "velocity": 125,
      "chip": "ym2612"
    },
    {
      "channel": 1,
      "note": 73,
      "start": 40.6653,
      "duration": 0.1137,
      "velocity": 121,
      "chip": "ym2612"
    },
    {
      "channel": 0,
      "note": 64,
      "start": 40.6677,
      "duration": 0.1111,
      "velocity": 121,
      "chip": "ym2612"
    },
    {
      "channel": 1,
      "note": 73,
      "start": 40.782,
      "duration": 0.1137,
      "velocity": 121,
      "chip": "ym2612"
    },
    {
      "channel": 0,
      "note": 59,
      "start": 40.7844,
      "duration": 0.1111,
      "velocity": 121,
      "chip": "ym2612"
    },
    {
      "channel": 4,
      "note": 68,
      "start": 40.7876,
      "duration": 0.2416,
      "velocity": 125,
      "chip": "ym2612"
    },
    {
      "channel": 2,
      "note": 65,
      "start": 40.7902,
      "duration": 0.2391,
      "velocity": 125,
      "chip": "ym2612"
    },
    {
      "channel": 1,
      "note": 73,
      "start": 40.8986,
      "duration": 0.1304,
      "velocity": 121,
      "chip": "ym2612"
    },
    {
      "channel": 0,
      "note": 66,
      "start": 40.9011,
      "duration": 0.1278,
      "velocity": 121,
      "chip": "ym2612"
    },
    {
      "channel": 1,
      "note": 73,
      "start": 41.0355,
      "duration": 0.0445,
      "velocity": 121,
      "chip": "ym2612"
    },
    {
      "channel": 0,
      "note": 57,
      "start": 41.0379,
      "duration": 0.042,
      "velocity": 121,
      "chip": "ym2612"
    },
    {
      "channel": 4,
      "note": 49,
      "start": 41.0406,
      "duration": 0.0844,
      "velocity": 125,
      "chip": "ym2612"
    },
    {
      "channel": 1,
      "note": 73,
      "start": 41.0825,
      "duration": 0.0425,
      "velocity": 121,
      "chip": "ym2612"
    },
    {
      "channel": 0,
      "note": 64,
      "start": 41.0849,
      "duration": 0.0399,
      "velocity": 121,
      "chip": "ym2612"
    },
    {
      "channel": 1,
      "note": 73,
      "start": 41.1276,
      "duration": 0.0561,
      "velocity": 121,
      "chip": "ym2612"
    },
    {
      "channel": 0,
      "note": 52,
      "start": 41.1298,
      "duration": 0.0538,
      "velocity": 121,
      "chip": "ym2612"
    },
    {
      "channel": 4,
      "note": 65,
      "start": 41.1333,
      "duration": 0.1839,
      "velocity": 125,
      "chip": "ym2612"
    },
    {
      "channel": 2,
      "note": 67,
      "start": 41.1356,
      "duration": 0.1817,
      "velocity": 125,
      "chip": "ym2612"
    },
    {
      "channel": 1,
      "note": 73,
      "start": 41.1867,
      "duration": 0.1303,
      "velocity": 121,
      "chip": "ym2612"
    },
    {
      "channel": 0,
      "note": 66,
      "start": 41.1891,
      "duration": 0.1277,
      "velocity": 121,
      "chip": "ym2612"
    },
    {
      "channel": 1,
      "note": 73,
      "start": 41.3232,
      "duration": 0.0869,
      "velocity": 121,
      "chip": "ym2612"
    },
    {
      "channel": 0,
      "note": 61,
      "start": 41.3253,
      "duration": 0.0847,
      "velocity": 121,
      "chip": "ym2612"
    },
    {
      "channel": 4,
      "note": 37,
      "start": 41.3281,
      "duration": 0.1988,
      "velocity": 125,
      "chip": "ym2612"
    },
    {
      "channel": 1,
      "note": 73,
      "start": 41.413,
      "duration": 0.1138,
      "velocity": 121,
      "chip": "ym2612"
    },
    {
      "channel": 0,
      "note": 64,
      "start": 41.4155,
      "duration": 0.1112,
      "velocity": 121,
      "chip": "ym2612"
    },
    {
      "channel": 1,
      "note": 73,
      "start": 41.5298,
      "duration": 0.1136,
      "velocity": 121,
      "chip": "ym2612"
    },
    {
      "channel": 0,
      "note": 57,
      "start": 41.5322,
      "duration": 0.1111,
      "velocity": 121,
      "chip": "ym2612"
    },
    {
      "channel": 4,
      "note": 64,
      "start": 41.5354,
      "duration": 0.2416,
      "velocity": 125,
      "chip": "ym2612"
    },
    {
      "channel": 2,
      "note": 68,
      "start": 41.538,
      "duration": 0.2391,
      "velocity": 125,
      "chip": "ym2612"
    },
    {
      "channel": 1,
      "note": 73,
      "start": 41.6463,
      "duration": 0.1305,
      "velocity": 121,
      "chip": "ym2612"
    },
    {
      "channel": 0,
      "note": 66,
      "start": 41.6487,
      "duration": 0.1279,
      "velocity": 121,
      "chip": "ym2612"
    },
    {
      "channel": 1,
      "note": 73,
      "start": 41.7833,
      "duration": 0.0439,
      "velocity": 121,
      "chip": "ym2612"
    },
    {
      "channel": 0,
      "note": 52,
      "start": 41.7857,
      "duration": 0.0414,
      "velocity": 121,
      "chip": "ym2612"
    },
    {
      "channel": 4,
      "note": 49,
      "start": 41.7883,
      "duration": 0.0836,
      "velocity": 125,
      "chip": "ym2612"
    },
    {
      "channel": 1,
      "note": 73,
      "start": 41.8298,
      "duration": 0.0421,
      "velocity": 121,
      "chip": "ym2612"
    },
    {
      "channel": 0,
      "note": 61,
      "start": 41.8319,
      "duration": 0.0399,
      "velocity": 121,
      "chip": "ym2612"
    },
    {
      "channel": 1,
      "note": 73,
      "start": 41.8746,
      "duration": 0.0561,
      "velocity": 121,
      "chip": "ym2612"
    },
    {
      "channel": 0,
      "note": 59,
      "start": 41.8767,
      "duration": 0.0538,
      "velocity": 121,
      "chip": "ym2612"
    },
    {
      "channel": 4,
      "note": 68,
      "start": 41.8801,
      "duration": 0.1841,
      "velocity": 125,
      "chip": "ym2612"
    },
    {
      "channel": 2,
      "note": 64,
      "start": 41.8825,
      "duration": 0.1819,
      "velocity": 125,
      "chip": "ym2612"
    },
    {
      "channel": 1,
      "note": 73,
      "start": 41.934,
      "duration": 0.13,
      "velocity": 121,
      "chip": "ym2612"
    },
    {
      "channel": 0,
      "note": 66,
      "start": 41.9364,
      "duration": 0.1275,
      "velocity": 121,
      "chip": "ym2612"
    },
    {
      "channel": 1,
      "note": 73,
      "start": 42.0702,
      "duration": 0.0876,
      "velocity": 121,
      "chip": "ym2612"
    },
    {
      "channel": 0,
      "note": 61,
      "start": 42.0723,
      "duration": 0.0854,
      "velocity": 121,
      "chip": "ym2612"
    },
    {
      "channel": 4,
      "note": 37,
      "start": 42.0749,
      "duration": 0.1998,
      "velocity": 125,
      "chip": "ym2612"
    },
    {
      "channel": 1,
      "note": 73,
      "start": 42.1607,
      "duration": 0.1138,
      "velocity": 121,
      "chip": "ym2612"
    },
    {
      "channel": 0,
      "note": 64,
      "start": 42.1631,
      "duration": 0.1113,
      "velocity": 121,
      "chip": "ym2612"
    },
    {
      "channel": 1,
      "note": 73,
      "start": 42.2775,
      "duration": 0.1136,
      "velocity": 121,
      "chip": "ym2612"
    },
    {
      "channel": 0,
      "note": 59,
      "start": 42.2799,
      "duration": 0.1111,
      "velocity": 121,
      "chip": "ym2612"
    },
    {
      "channel": 4,
      "note": 68,
      "start": 42.2831,
      "duration": 0.2415,
      "velocity": 125,
      "chip": "ym2612"
    },
    {
      "channel": 2,
      "note": 64,
      "start": 42.2858,
      "duration": 0.239,
      "velocity": 125,
      "chip": "ym2612"
    },
    {
      "channel": 1,
      "note": 73,
      "start": 42.3941,
      "duration": 0.1305,
      "velocity": 121,
      "chip": "ym2612"
    },
    {
      "channel": 0,
      "note": 66,
      "start": 42.3965,
      "duration": 0.1279,
      "velocity": 121,
      "chip": "ym2612"
    },
    {
      "channel": 1,
      "note": 73,
      "start": 42.531,
      "duration": 0.0434,
      "velocity": 121,
      "chip": "ym2612"
    },
    {
      "channel": 0,
      "note": 57,
      "start": 42.5334,
      "duration": 0.0409,
      "velocity": 121,
      "chip": "ym2612"
    },
    {
      "channel": 4,
      "note": 49,
      "start": 42.5361,
      "duration": 0.0826,
      "velocity": 125,
      "chip": "ym2612"
    },
    {
      "channel": 1,
      "note": 73,
      "start": 42.577,
      "duration": 0.0415,
      "velocity": 121,
      "chip": "ym2612"
    },
    {
      "channel": 0,
      "note": 64,
      "start": 42.5794,
      "duration": 0.039,
      "velocity": 121,
      "chip": "ym2612"
    },
    {
      "channel": 1,
      "note": 73,
      "start": 42.621,
      "duration": 0.0563,
      "velocity": 121,
      "chip": "ym2612"
    },
    {
      "channel": 0,
      "note": 52,
      "start": 42.6232,
      "duration": 0.054,
      "velocity": 121,
      "chip": "ym2612"
    },
    {
      "channel": 4,
      "note": 64,
      "start": 42.6269,
      "duration": 0.1838,
      "velocity": 125,
      "chip": "ym2612"
    },
    {
      "channel": 2,
      "note": 67,
      "start": 42.6295,
      "duration": 0.1813,
      "velocity": 125,
      "chip": "ym2612"
    },
    {
      "channel": 1,
      "note": 73,
      "start": 42.6802,
      "duration": 0.1303,
      "velocity": 121,
      "chip": "ym2612"
    },
    {
      "channel": 0,
      "note": 66,
      "start": 42.6826,
      "duration": 0.1278,
      "velocity": 121,
      "chip": "ym2612"
    },
    {
      "channel": 1,
      "note": 73,
      "start": 42.8168,
      "duration": 0.0871,
      "velocity": 121,
      "chip": "ym2612"
    },
    {
      "channel": 0,
      "note": 61,
      "start": 42.8189,
      "duration": 0.0849,
      "velocity": 121,
      "chip": "ym2612"
    },
    {
      "channel": 4,
      "note": 37,
      "start": 42.8214,
      "duration": 0.1993,
      "velocity": 125,
      "chip": "ym2612"
    },
    {
      "channel": 1,
      "note": 73,
      "start": 42.9068,
      "duration": 0.1138,
      "velocity": 121,
      "chip": "ym2612"
    },
    {
      "channel": 0,
      "note": 64,
      "start": 42.9092,
      "duration": 0.1112,
      "velocity": 121,
      "chip": "ym2612"
    },
    {
      "channel": 1,
      "note": 73,
      "start": 43.0236,
      "duration": 0.1137,
      "velocity": 121,
      "chip": "ym2612"
    },
    {
      "channel": 0,
      "note": 57,
      "start": 43.026,
      "duration": 0.1111,
      "velocity": 121,
      "chip": "ym2612"
    },
    {
      "channel": 4,
      "note": 68,
      "start": 43.0292,
      "duration": 0.2415,
      "velocity": 125,
      "chip": "ym2612"
    },
    {
      "channel": 2,
      "note": 65,
      "start": 43.0319,
      "duration": 0.2391,
      "velocity": 125,
      "chip": "ym2612"
    },
    {
      "channel": 1,
      "note": 73,
      "start": 43.1403,
      "duration": 0.1304,
      "velocity": 121,
      "chip": "ym2612"
    },
    {
      "channel": 0,
      "note": 66,
      "start": 43.1427,
      "duration": 0.1278,
      "velocity": 121,
      "chip": "ym2612"
    },
    {
      "channel": 1,
      "note": 73,
      "start": 43.2775,
      "duration": 0.0435,
      "velocity": 121,
      "chip": "ym2612"
    },
    {
      "channel": 0,
      "note": 52,
      "start": 43.28,
      "duration": 0.041,
      "velocity": 121,
      "chip": "ym2612"
    },
    {
      "channel": 4,
      "note": 49,
      "start": 43.2826,
      "duration": 0.0827,
      "velocity": 125,
      "chip": "ym2612"
    },
    {
      "channel": 1,
      "note": 73,
      "start": 43.3236,
      "duration": 0.0416,
      "velocity": 121,
      "chip": "ym2612"
    },
    {
      "channel": 0,
      "note": 61,
      "start": 43.3258,
      "duration": 0.0392,
      "velocity": 121,
      "chip": "ym2612"
    },
    {
      "channel": 1,
      "note": 73,
      "start": 43.3678,
      "duration": 0.0558,
      "velocity": 121,
      "chip": "ym2612"
    },
    {
      "channel": 0,
      "note": 59,
      "start": 43.37,
      "duration": 0.0535,
      "velocity": 121,
      "chip": "ym2612"
    },
    {
      "channel": 4,
      "note": 68,
      "start": 43.3736,
      "duration": 0.1836,
      "velocity": 125,
      "chip": "ym2612"
    },
    {
      "channel": 2,
      "note": 65,
      "start": 43.3759,
      "duration": 0.1815,
      "velocity": 125,
      "chip": "ym2612"
    },
    {
      "channel": 1,
      "note": 73,
      "start": 43.4269,
      "duration": 0.13,
      "velocity": 121,
      "chip": "ym2612"
    },
    {
      "channel": 0,
      "note": 66,
      "start": 43.4294,
      "duration": 0.1275,
      "velocity": 121,
      "chip": "ym2612"
    },
    {
      "channel": 1,
      "note": 73,
      "start": 43.5634,
      "duration": 0.0121,
      "velocity": 121,
      "chip": "ym2612"
    },
    {
      "channel": 0,
      "note": 61,
      "start": 43.5658,
      "duration": 0.0846,
      "velocity": 121,
      "chip": "ym2612"
    },
    {
      "channel": 4,
      "note": 37,
      "start": 43.5684,
      "duration": 0.199,
      "velocity": 125,
      "chip": "ym2612"
    },
    {
      "channel": 1,
      "note": 73,
      "start": 43.578,
      "duration": 0.0225,
      "velocity": 121,
      "chip": "ym2612"
    },
    {
      "channel": 1,
      "note": 73,
      "start": 43.6034,
      "duration": 0.0471,
      "velocity": 121,
      "chip": "ym2612"
    },
    {
      "channel": 1,
      "note": 73,
      "start": 43.6538,
      "duration": 0.1135,
      "velocity": 121,
      "chip": "ym2612"
    },
    {
      "channel": 0,
      "note": 64,
      "start": 43.6562,
      "duration": 0.111,
      "velocity": 121,
      "chip": "ym2612"
    },
    {
      "channel": 1,
      "note": 73,
      "start": 43.7703,
      "duration": 0.1136,
      "velocity": 121,
      "chip": "ym2612"
    },
    {
      "channel": 0,
      "note": 59,
      "start": 43.7727,
      "duration": 0.111,
      "velocity": 121,
      "chip": "ym2612"
    },
    {
      "channel": 4,
      "note": 68,
      "start": 43.7763,
      "duration": 0.2411,
      "velocity": 125,
      "chip": "ym2612"
    },
    {
      "channel": 2,
      "note": 65,
      "start": 43.7789,
      "duration": 0.2386,
      "velocity": 125,
      "chip": "ym2612"
    },
    {
      "channel": 1,
      "note": 73,
      "start": 43.8868,
      "duration": 0.1305,
      "velocity": 121,
      "chip": "ym2612"
    },
    {
      "channel": 0,
      "note": 66,
      "start": 43.8892,
      "duration": 0.1279,
      "velocity": 121,
      "chip": "ym2612"
    },
    {
      "channel": 1,
      "note": 73,
      "start": 44.0237,
      "duration": 0.0441,
      "velocity": 121,
      "chip": "ym2612"
    },
    {
      "channel": 0,
      "note": 57,
      "start": 44.0261,
      "duration": 0.0416,
      "velocity": 121,
      "chip": "ym2612"
    },
    {
      "channel": 4,
      "note": 49,
      "start": 44.0288,
      "duration": 0.0839,
      "velocity": 125,
      "chip": "ym2612"
    },
    {
      "channel": 1,
      "note": 73,
      "start": 44.0703,
      "duration": 0.0423,
      "velocity": 121,
      "chip": "ym2612"
    },
    {
      "channel": 0,
      "note": 64,
      "start": 44.0728,
      "duration": 0.0398,
      "velocity": 121,
      "chip": "ym2612"
    },
    {
      "channel": 1,
      "note": 73,
      "start": 44.1151,
      "duration": 0.0558,
      "velocity": 121,
      "chip": "ym2612"
    },
    {
      "channel": 0,
      "note": 52,
      "start": 44.1173,
      "duration": 0.0534,
      "velocity": 121,
      "chip": "ym2612"
    },
    {
      "channel": 4,
      "note": 65,
      "start": 44.1207,
      "duration": 0.1837,
      "velocity": 125,
      "chip": "ym2612"
    },
    {
      "channel": 2,
      "note": 67,
      "start": 44.1231,
      "duration": 0.1815,
      "velocity": 125,
      "chip": "ym2612"
    },
    {
      "channel": 1,
      "note": 73,
      "start": 44.1737,
      "duration": 0.1305,
      "velocity": 121,
      "chip": "ym2612"
    },
    {
      "channel": 0,
      "note": 66,
      "start": 44.1761,
      "duration": 0.1279,
      "velocity": 121,
      "chip": "ym2612"
    },
    {
      "channel": 1,
      "note": 73,
      "start": 44.3104,
      "duration": 0.0868,
      "velocity": 121,
      "chip": "ym2612"
    },
    {
      "channel": 0,
      "note": 61,
      "start": 44.3124,
      "duration": 0.0846,
      "velocity": 121,
      "chip": "ym2612"
    },
    {
      "channel": 4,
      "note": 37,
      "start": 44.315,
      "duration": 0.199,
      "velocity": 125,
      "chip": "ym2612"
    },
    {
      "channel": 1,
      "note": 73,
      "start": 44.4005,
      "duration": 0.1134,
      "velocity": 121,
      "chip": "ym2612"
    },
    {
      "channel": 0,
      "note": 64,
      "start": 44.4029,
      "duration": 0.1108,
      "velocity": 121,
      "chip": "ym2612"
    },
    {
      "channel": 1,
      "note": 73,
      "start": 44.5169,
      "duration": 0.1137,
      "velocity": 121,
      "chip": "ym2612"
    },
    {
      "channel": 0,
      "note": 57,
      "start": 44.5193,
      "duration": 0.1111,
      "velocity": 121,
      "chip": "ym2612"
    },
    {
      "channel": 4,
      "note": 68,
      "start": 44.5225,
      "duration": 0.2415,
      "velocity": 125,
      "chip": "ym2612"
    },
    {
      "channel": 2,
      "note": 64,
      "start": 44.5251,
      "duration": 0.2391,
      "velocity": 125,
      "chip": "ym2612"
    },
    {
      "channel": 1,
      "note": 73,
      "start": 44.6335,
      "duration": 0.1304,
      "velocity": 121,
      "chip": "ym2612"
    },
    {
      "channel": 0,
      "note": 66,
      "start": 44.636,
      "duration": 0.1278,
      "velocity": 121,
      "chip": "ym2612"
    },
    {
      "channel": 1,
      "note": 73,
      "start": 44.7704,
      "duration": 0.044,
      "velocity": 121,
      "chip": "ym2612"
    },
    {
      "channel": 0,
      "note": 52,
      "start": 44.7728,
      "duration": 0.0416,
      "velocity": 121,
      "chip": "ym2612"
    },
    {
      "channel": 4,
      "note": 49,
      "start": 44.7755,
      "duration": 0.0831,
      "velocity": 125,
      "chip": "ym2612"
    },
    {
      "channel": 1,
      "note": 73,
      "start": 44.817,
      "duration": 0.0415,
      "velocity": 121,
      "chip": "ym2612"
    },
    {
      "channel": 0,
      "note": 61,
      "start": 44.8191,
      "duration": 0.0393,
      "velocity": 121,
      "chip": "ym2612"
    },
    {
      "channel": 1,
      "note": 73,
      "start": 44.8609,
      "duration": 0.0562,
      "velocity": 121,
      "chip": "ym2612"
    },
    {
      "channel": 0,
      "note": 59,
      "start": 44.8631,
      "duration": 0.0539,
      "velocity": 121,
      "chip": "ym2612"
    },
    {
      "channel": 4,
      "note": 64,
      "start": 44.8666,
      "duration": 0.1673,
      "velocity": 125,
      "chip": "ym2612"
    },
    {
      "channel": 2,
      "note": 68,
      "start": 44.8695,
      "duration": 0.1646,
      "velocity": 125,
      "chip": "ym2612"
    },
    {
      "channel": 1,
      "note": 73,
      "start": 44.9201,
      "duration": 0.1137,
      "velocity": 121,
      "chip": "ym2612"
    },
    {
      "channel": 0,
      "note": 66,
      "start": 44.9225,
      "duration": 0.1111,
      "velocity": 121,
      "chip": "ym2612"
    },
    {
      "channel": 1,
      "note": 73,
      "start": 45.0399,
      "duration": 0.1038,
      "velocity": 121,
      "chip": "ym2612"
    },
    {
      "channel": 0,
      "note": 61,
      "start": 45.0423,
      "duration": 0.1013,
      "velocity": 121,
      "chip": "ym2612"
    },
    {
      "channel": 4,
      "note": 37,
      "start": 45.045,
      "duration": 0.2156,
      "velocity": 125,
      "chip": "ym2612"
    },
    {
      "channel": 1,
      "note": 73,
      "start": 45.1467,
      "duration": 0.1138,
      "velocity": 121,
      "chip": "ym2612"
    },
    {
      "channel": 0,
      "note": 64,
      "start": 45.1491,
      "duration": 0.1113,
      "velocity": 121,
      "chip": "ym2612"
    },
    {
      "channel": 1,
      "note": 73,
      "start": 45.2635,
      "duration": 0.1136,
      "velocity": 121,
      "chip": "ym2612"
    },
    {
      "channel": 0,
      "note": 59,
      "start": 45.2659,
      "duration": 0.1111,
      "velocity": 121,
      "chip": "ym2612"
    },
    {
      "channel": 4,
      "note": 68,
      "start": 45.2691,
      "duration": 0.2249,
      "velocity": 125,
      "chip": "ym2612"
    },
    {
      "channel": 2,
      "note": 64,
      "start": 45.2717,
      "duration": 0.2224,
      "velocity": 125,
      "chip": "ym2612"
    },
    {
      "channel": 1,
      "note": 73,
      "start": 45.38,
      "duration": 0.1139,
      "velocity": 121,
      "chip": "ym2612"
    },
    {
      "channel": 0,
      "note": 66,
      "start": 45.3824,
      "duration": 0.1113,
      "velocity": 121,
      "chip": "ym2612"
    },
    {
      "channel": 1,
      "note": 73,
      "start": 45.5004,
      "duration": 0.0491,
      "velocity": 121,
      "chip": "ym2612"
    },
    {
      "channel": 0,
      "note": 57,
      "start": 45.5028,
      "duration": 0.0466,
      "velocity": 121,
      "chip": "ym2612"
    },
    {
      "channel": 4,
      "note": 49,
      "start": 45.5054,
      "duration": 0.089,
      "velocity": 125,
      "chip": "ym2612"
    },
    {
      "channel": 1,
      "note": 73,
      "start": 45.5518,
      "duration": 0.0425,
      "velocity": 121,
      "chip": "ym2612"
    },
    {
      "channel": 0,
      "note": 64,
      "start": 45.5542,
      "duration": 0.04,
      "velocity": 121,
      "chip": "ym2612"
    },
    {
      "channel": 1,
      "note": 73,
      "start": 45.5978,
      "duration": 0.0672,
      "velocity": 121,
      "chip": "ym2612"
    },
    {
      "channel": 0,
      "note": 52,
      "start": 45.5999,
      "duration": 0.0649,
      "velocity": 121,
      "chip": "ym2612"
    },
    {
      "channel": 4,
      "note": 67,
      "start": 45.6027,
      "duration": 0.1791,
      "velocity": 125,
      "chip": "ym2612"
    },
    {
      "channel": 2,
      "note": 64,
      "start": 45.6052,
      "duration": 0.1767,
      "velocity": 125,
      "chip": "ym2612"
    },
    {
      "channel": 1,
      "note": 73,
      "start": 45.668,
      "duration": 0.1137,
      "velocity": 121,
      "chip": "ym2612"
    },
    {
      "channel": 0,
      "note": 66,
      "start": 45.6704,
      "duration": 0.1111,
      "velocity": 121,
      "chip": "ym2612"
    },
    {
      "channel": 1,
      "note": 73,
      "start": 45.7879,
      "duration": 0.1038,
      "velocity": 121,
      "chip": "ym2612"
    },
    {
      "channel": 0,
      "note": 61,
      "start": 45.7899,
      "duration": 0.1016,
      "velocity": 121,
      "chip": "ym2612"
    },
    {
      "channel": 4,
      "note": 37,
      "start": 45.7925,
      "duration": 0.216,
      "velocity": 125,
      "chip": "ym2612"
    },
    {
      "channel": 1,
      "note": 73,
      "start": 45.895,
      "duration": 0.1134,
      "velocity": 121,
      "chip": "ym2612"
    },
    {
      "channel": 0,
      "note": 64,
      "start": 45.8974,
      "duration": 0.1108,
      "velocity": 121,
      "chip": "ym2612"
    },
    {
      "channel": 1,
      "note": 73,
      "start": 46.0114,
      "duration": 0.1137,
      "velocity": 121,
      "chip": "ym2612"
    },
    {
      "channel": 0,
      "note": 57,
      "start": 46.0138,
      "duration": 0.1111,
      "velocity": 121,
      "chip": "ym2612"
    },
    {
      "channel": 4,
      "note": 68,
      "start": 46.017,
      "duration": 0.2249,
      "velocity": 125,
      "chip": "ym2612"
    },
    {
      "channel": 2,
      "note": 65,
      "start": 46.02,
      "duration": 0.222,
      "velocity": 125,
      "chip": "ym2612"
    },
    {
      "channel": 1,
      "note": 73,
      "start": 46.128,
      "duration": 0.1137,
      "velocity": 121,
      "chip": "ym2612"
    },
    {
      "channel": 0,
      "note": 66,
      "start": 46.1304,
      "duration": 0.1111,
      "velocity": 121,
      "chip": "ym2612"
    },
    {
      "channel": 1,
      "note": 73,
      "start": 46.2482,
      "duration": 0.0489,
      "velocity": 121,
      "chip": "ym2612"
    },
    {
      "channel": 0,
      "note": 52,
      "start": 46.2503,
      "duration": 0.0467,
      "velocity": 121,
      "chip": "ym2612"
    },
    {
      "channel": 4,
      "note": 49,
      "start": 46.2528,
      "duration": 0.0899,
      "velocity": 125,
      "chip": "ym2612"
    },
    {
      "channel": 1,
      "note": 73,
      "start": 46.2997,
      "duration": 0.043,
      "velocity": 121,
      "chip": "ym2612"
    },
    {
      "channel": 0,
      "note": 61,
      "start": 46.3017,
      "duration": 0.0409,
      "velocity": 121,
      "chip": "ym2612"
    },
    {
      "channel": 1,
      "note": 73,
      "start": 46.3462,
      "duration": 0.0658,
      "velocity": 121,
      "chip": "ym2612"
    },
    {
      "channel": 0,
      "note": 59,
      "start": 46.3483,
      "duration": 0.0635,
      "velocity": 121,
      "chip": "ym2612"
    },
    {
      "channel": 3,
      "note": 61,
      "start": 46.351,
      "duration": 0.4041,
      "velocity": 101,
      "chip": "ym2612"
    },
    {
      "channel": 4,
      "note": 68,
      "start": 46.3537,
      "duration": 0.1752,
      "velocity": 125,
      "chip": "ym2612"
    },
    {
      "channel": 2,
      "note": 65,
      "start": 46.3568,
      "duration": 0.1723,
      "velocity": 125,
      "chip": "ym2612"
    },
    {
      "channel": 1,
      "note": 73,
      "start": 46.4152,
      "duration": 0.0466,
      "velocity": 121,
      "chip": "ym2612"
    },
    {
      "channel": 0,
      "note": 66,
      "start": 46.4176,
      "duration": 0.111,
      "velocity": 121,
      "chip": "ym2612"
    },
    {
      "channel": 1,
      "note": 73,
      "start": 46.4648,
      "duration": 0.0305,
      "velocity": 121,
      "chip": "ym2612"
    },
    {
      "channel": 1,
      "note": 73,
      "start": 46.4982,
      "duration": 0.0305,
      "velocity": 121,
      "chip": "ym2612"
    },
    {
      "channel": 1,
      "note": 73,
      "start": 46.5351,
      "duration": 0.1033,
      "velocity": 121,
      "chip": "ym2612"
    },
    {
      "channel": 0,
      "note": 61,
      "start": 46.5371,
      "duration": 0.1011,
      "velocity": 121,
      "chip": "ym2612"
    },
    {
      "channel": 4,
      "note": 37,
      "start": 46.5396,
      "duration": 0.2156,
      "velocity": 125,
      "chip": "ym2612"
    },
    {
      "channel": 1,
      "note": 73,
      "start": 46.6413,
      "duration": 0.1137,
      "velocity": 121,
      "chip": "ym2612"
    },
    {
      "channel": 0,
      "note": 64,
      "start": 46.6437,
      "duration": 0.1111,
      "velocity": 121,
      "chip": "ym2612"
    },
    {
      "channel": 1,
      "note": 73,
      "start": 46.7581,
      "duration": 0.1136,
      "velocity": 121,
      "chip": "ym2612"
    },
    {
      "channel": 0,
      "note": 59,
      "start": 46.7605,
      "duration": 0.111,
      "velocity": 121,
      "chip": "ym2612"
    },
    {
      "channel": 3,
      "note": 52,
      "start": 46.7634,
      "duration": 0.2251,
      "velocity": 101,
      "chip": "ym2612"
    },
    {
      "channel": 2,
      "note": 52,
      "start": 46.7663,
      "duration": 0.2226,
      "velocity": 127,
      "chip": "ym2612"
    },
    {
      "channel": 4,
      "note": 68,
      "start": 46.7691,
      "duration": 0.2195,
      "velocity": 125,
      "chip": "ym2612"
    },
    {
      "channel": 5,
      "note": 65,
      "start": 46.7717,
      "duration": 0.217,
      "velocity": 125,
      "chip": "ym2612"
    },
    {
      "channel": 1,
      "note": 73,
      "start": 46.8749,
      "duration": 0.1134,
      "velocity": 121,
      "chip": "ym2612"
    },
    {
      "channel": 0,
      "note": 66,
      "start": 46.8774,
      "duration": 0.1108,
      "velocity": 121,
      "chip": "ym2612"
    },
    {
      "channel": 1,
      "note": 73,
      "start": 46.9951,
      "duration": 0.0504,
      "velocity": 121,
      "chip": "ym2612"
    },
    {
      "channel": 0,
      "note": 57,
      "start": 46.9975,
      "duration": 0.0479,
      "velocity": 121,
      "chip": "ym2612"
    },
    {
      "channel": 3,
      "note": 54,
      "start": 46.9998,
      "duration": 0.0904,
      "velocity": 101,
      "chip": "ym2612"
    },
    {
      "channel": 2,
      "note": 54,
      "start": 47.0021,
      "duration": 0.0883,
      "velocity": 127,
      "chip": "ym2612"
    },
    {
      "channel": 4,
      "note": 49,
      "start": 47.0044,
      "duration": 0.0859,
      "velocity": 125,
      "chip": "ym2612"
    },
    {
      "channel": 1,
      "note": 73,
      "start": 47.0479,
      "duration": 0.0422,
      "velocity": 121,
      "chip": "ym2612"
    },
    {
      "channel": 0,
      "note": 64,
      "start": 47.0503,
      "duration": 0.0397,
      "velocity": 121,
      "chip": "ym2612"
    },
    {
      "channel": 1,
      "note": 73,
      "start": 47.0927,
      "duration": 0.0656,
      "velocity": 121,
      "chip": "ym2612"
    },
    {
      "channel": 0,
      "note": 52,
      "start": 47.0957,
      "duration": 0.0083,
      "velocity": 121,
      "chip": "ym2612"
    },
    {
      "channel": 3,
      "note": 55,
      "start": 47.098,
      "duration": 0.1771,
      "velocity": 101,
      "chip": "ym2612"
    },
    {
      "channel": 2,
      "note": 55,
      "start": 47.1007,
      "duration": 0.1748,
      "velocity": 127,
      "chip": "ym2612"
    },
    {
      "channel": 4,
      "note": 65,
      "start": 47.1032,
      "duration": 0.172,
      "velocity": 125,
      "chip": "ym2612"
    },
    {
      "channel": 0,
      "note": 67,
      "start": 47.1058,
      "duration": 0.169,
      "velocity": 125,
      "chip": "ym2612"
    },
    {
      "channel": 1,
      "note": 73,
      "start": 47.1612,
      "duration": 0.1137,
      "velocity": 121,
      "chip": "ym2612"
    },
    {
      "channel": 5,
      "note": 66,
      "start": 47.1639,
      "duration": 0.1115,
      "velocity": 121,
      "chip": "ym2612"
    },
    {
      "channel": 1,
      "note": 73,
      "start": 47.2838,
      "duration": 0.035,
      "velocity": 121,
      "chip": "ym2612"
    },
    {
      "channel": 3,
      "note": 56,
      "start": 47.289,
      "duration": 0.0632,
      "velocity": 101,
      "chip": "ym2612"
    },
    {
      "channel": 2,
      "note": 56,
      "start": 47.2928,
      "duration": 0.5352,
      "velocity": 127,
      "chip": "ym2612"
    },
    {
      "channel": 1,
      "note": 73,
      "start": 47.505,
      "duration": 0.0473,
      "velocity": 121,
      "chip": "ym2612"
    },
    {
      "channel": 3,
      "note": 56,
      "start": 47.5076,
      "duration": 0.0945,
      "velocity": 101,
      "chip": "ym2612"
    },
    {
      "channel": 0,
      "note": 60,
      "start": 47.5105,
      "duration": 0.225,
      "velocity": 127,
      "chip": "ym2612"
    },
    {
      "channel": 1,
      "note": 73,
      "start": 47.7419,
      "duration": 0.0244,
      "velocity": 121,
      "chip": "ym2612"
    },
    {
      "channel": 3,
      "note": 56,
      "start": 47.7441,
      "duration": 0.0345,
      "velocity": 101,
      "chip": "ym2612"
    },
    {
      "channel": 0,
      "note": 63,
      "start": 47.7464,
      "duration": 0.088,
      "velocity": 127,
      "chip": "ym2612"
    },
    {
      "channel": 1,
      "note": 73,
      "start": 47.837,
      "duration": 0.0197,
      "velocity": 121,
      "chip": "ym2612"
    },
    {
      "channel": 3,
      "note": 55,
      "start": 47.8393,
      "duration": 0.0498,
      "velocity": 101,
      "chip": "ym2612"
    },
    {
      "channel": 0,
      "note": 62,
      "start": 47.8417,
      "duration": 14.9406,
      "velocity": 127,
      "chip": "ym2612"
    },
    {
      "channel": 2,
      "note": 55,
      "start": 47.8454,
      "duration": 14.937,
      "velocity": 127,
      "chip": "ym2612"
    }
  ]
}