{
  "track_name": "16 - Unused (Sound Test 14)",
  "duration_sec": 54.565,
  "sample_rate": 44100,
  "note_count": 646,
  "unique_pitches": 38,
  "pitch_range": 52,
  "avg_note_duration": 0.2721,
  "reconstruction_stats": {
    "notes_reconstructed": 646,
    "keyon_events": 646,
    "keyoff_events": 646,
    "orphan_keyons": 0,
    "unique_pitches": 38,
    "pitch_range": 52,
    "avg_duration_sec": 0.2721
  },
  "metadata": {
    "source": "E\\Ecco the Dolphin\\16 - Unused (Sound Test 14).vgz"
  },
  "notes": [
    {
      "channel": 1,
      "note": 95,
      "start": 0.0017,
      "duration": 0.2111,
      "velocity": 114,
      "chip": "ym2612"
    },
    {
      "channel": 0,
      "note": 62,
      "start": 0.0022,
      "duration": 1.1651,
      "velocity": 99,
      "chip": "ym2612"
    },
    {
      "channel": 1,
      "note": 86,
      "start": 0.2134,
      "duration": 0.2197,
      "velocity": 114,
      "chip": "ym2612"
    },
    {
      "channel": 2,
      "note": 90,
      "start": 0.2141,
      "duration": 0.146,
      "velocity": 116,
      "chip": "ym2612"
    },
    {
      "channel": 4,
      "note": 86,
      "start": 0.2148,
      "duration": 0.145,
      "velocity": 116,
      "chip": "ym2612"
    },
    {
      "channel": 1,
      "note": 90,
      "start": 0.4337,
      "duration": 0.2197,
      "velocity": 114,
      "chip": "ym2612"
    },
    {
      "channel": 2,
      "note": 92,
      "start": 0.4344,
      "duration": 0.1459,
      "velocity": 116,
      "chip": "ym2612"
    },
    {
      "channel": 4,
      "note": 88,
      "start": 0.4351,
      "duration": 0.1449,
      "velocity": 116,
      "chip": "ym2612"
    },
    {
      "channel": 1,
      "note": 93,
      "start": 0.654,
      "duration": 0.2196,
      "velocity": 114,
      "chip": "ym2612"
    },
    {
      "channel": 2,
      "note": 93,
      "start": 0.6547,
      "duration": 1.0271,
      "velocity": 116,
      "chip": "ym2612"
    },
    {
      "channel": 4,
      "note": 90,
      "start": 0.6554,
      "duration": 1.026,
      "velocity": 116,
      "chip": "ym2612"
    },
    {
      "channel": 1,
      "note": 95,
      "start": 0.8743,
      "duration": 0.2196,
      "velocity": 114,
      "chip": "ym2612"
    },
    {
      "channel": 1,
      "note": 86,
      "start": 1.0946,
      "duration": 0.2197,
      "velocity": 114,
      "chip": "ym2612"
    },
    {
      "channel": 1,
      "note": 90,
      "start": 1.3149,
      "duration": 0.22,
      "velocity": 114,
      "chip": "ym2612"
    },
    {
      "channel": 0,
      "note": 62,
      "start": 1.3152,
      "duration": 0.2193,
      "velocity": 99,
      "chip": "ym2612"
    },
    {
      "channel": 1,
      "note": 93,
      "start": 1.5355,
      "duration": 0.2193,
      "velocity": 114,
      "chip": "ym2612"
    },
    {
      "channel": 0,
      "note": 61,
      "start": 1.5361,
      "duration": 0.1086,
      "velocity": 99,
      "chip": "ym2612"
    },
    {
      "channel": 1,
      "note": 95,
      "start": 1.7556,
      "duration": 0.2196,
      "velocity": 114,
      "chip": "ym2612"
    },
    {
      "channel": 0,
      "note": 59,
      "start": 1.7562,
      "duration": 1.1736,
      "velocity": 99,
      "chip": "ym2612"
    },
    {
      "channel": 1,
      "note": 86,
      "start": 1.9758,
      "duration": 0.2197,
      "velocity": 114,
      "chip": "ym2612"
    },
    {
      "channel": 2,
      "note": 90,
      "start": 1.9766,
      "duration": 0.1458,
      "velocity": 116,
      "chip": "ym2612"
    },
    {
      "channel": 4,
      "note": 86,
      "start": 1.9773,
      "duration": 0.1448,
      "velocity": 116,
      "chip": "ym2612"
    },
    {
      "channel": 1,
      "note": 90,
      "start": 2.1961,
      "duration": 0.2196,
      "velocity": 114,
      "chip": "ym2612"
    },
    {
      "channel": 2,
      "note": 92,
      "start": 2.1968,
      "duration": 0.1459,
      "velocity": 116,
      "chip": "ym2612"
    },
    {
      "channel": 4,
      "note": 88,
      "start": 2.1975,
      "duration": 0.1448,
      "velocity": 116,
      "chip": "ym2612"
    },
    {
      "channel": 1,
      "note": 93,
      "start": 2.4164,
      "duration": 0.2196,
      "velocity": 114,
      "chip": "ym2612"
    },
    {
      "channel": 2,
      "note": 93,
      "start": 2.4171,
      "duration": 0.8618,
      "velocity": 116,
      "chip": "ym2612"
    },
    {
      "channel": 4,
      "note": 90,
      "start": 2.4178,
      "duration": 0.8609,
      "velocity": 116,
      "chip": "ym2612"
    },
    {
      "channel": 1,
      "note": 95,
      "start": 2.6367,
      "duration": 0.2196,
      "velocity": 114,
      "chip": "ym2612"
    },
    {
      "channel": 1,
      "note": 86,
      "start": 2.857,
      "duration": 0.2197,
      "velocity": 114,
      "chip": "ym2612"
    },
    {
      "channel": 1,
      "note": 90,
      "start": 3.0774,
      "duration": 0.2198,
      "velocity": 114,
      "chip": "ym2612"
    },
    {
      "channel": 0,
      "note": 59,
      "start": 3.0778,
      "duration": 0.2192,
      "velocity": 99,
      "chip": "ym2612"
    },
    {
      "channel": 1,
      "note": 93,
      "start": 3.2979,
      "duration": 0.2193,
      "velocity": 114,
      "chip": "ym2612"
    },
    {
      "channel": 0,
      "note": 57,
      "start": 3.2985,
      "duration": 0.1085,
      "velocity": 99,
      "chip": "ym2612"
    },
    {
      "channel": 1,
      "note": 95,
      "start": 3.5179,
      "duration": 0.2197,
      "velocity": 114,
      "chip": "ym2612"
    },
    {
      "channel": 0,
      "note": 56,
      "start": 3.5185,
      "duration": 1.1737,
      "velocity": 99,
      "chip": "ym2612"
    },
    {
      "channel": 1,
      "note": 89,
      "start": 3.7382,
      "duration": 0.2197,
      "velocity": 114,
      "chip": "ym2612"
    },
    {
      "channel": 2,
      "note": 92,
      "start": 3.7389,
      "duration": 0.1459,
      "velocity": 116,
      "chip": "ym2612"
    },
    {
      "channel": 4,
      "note": 86,
      "start": 3.7396,
      "duration": 0.1449,
      "velocity": 116,
      "chip": "ym2612"
    },
    {
      "channel": 1,
      "note": 92,
      "start": 3.9585,
      "duration": 0.2197,
      "velocity": 114,
      "chip": "ym2612"
    },
    {
      "channel": 2,
      "note": 93,
      "start": 3.9592,
      "duration": 0.1639,
      "velocity": 116,
      "chip": "ym2612"
    },
    {
      "channel": 4,
      "note": 89,
      "start": 3.96,
      "duration": 0.1635,
      "velocity": 116,
      "chip": "ym2612"
    },
    {
      "channel": 1,
      "note": 93,
      "start": 4.1788,
      "duration": 0.2196,
      "velocity": 114,
      "chip": "ym2612"
    },
    {
      "channel": 2,
      "note": 95,
      "start": 4.1795,
      "duration": 0.8435,
      "velocity": 116,
      "chip": "ym2612"
    },
    {
      "channel": 4,
      "note": 92,
      "start": 4.1802,
      "duration": 0.8425,
      "velocity": 116,
      "chip": "ym2612"
    },
    {
      "channel": 1,
      "note": 95,
      "start": 4.3991,
      "duration": 0.2196,
      "velocity": 114,
      "chip": "ym2612"
    },
    {
      "channel": 1,
      "note": 89,
      "start": 4.6194,
      "duration": 0.2196,
      "velocity": 114,
      "chip": "ym2612"
    },
    {
      "channel": 1,
      "note": 92,
      "start": 4.8397,
      "duration": 0.22,
      "velocity": 114,
      "chip": "ym2612"
    },
    {
      "channel": 0,
      "note": 56,
      "start": 4.84,
      "duration": 0.2193,
      "velocity": 99,
      "chip": "ym2612"
    },
    {
      "channel": 1,
      "note": 93,
      "start": 5.0604,
      "duration": 0.2193,
      "velocity": 114,
      "chip": "ym2612"
    },
    {
      "channel": 0,
      "note": 54,
      "start": 5.061,
      "duration": 0.1085,
      "velocity": 99,
      "chip": "ym2612"
    },
    {
      "channel": 1,
      "note": 95,
      "start": 5.2803,
      "duration": 0.2197,
      "velocity": 114,
      "chip": "ym2612"
    },
    {
      "channel": 0,
      "note": 53,
      "start": 5.2809,
      "duration": 1.0268,
      "velocity": 99,
      "chip": "ym2612"
    },
    {
      "channel": 1,
      "note": 89,
      "start": 5.5006,
      "duration": 0.2197,
      "velocity": 114,
      "chip": "ym2612"
    },
    {
      "channel": 2,
      "note": 89,
      "start": 5.5012,
      "duration": 0.1092,
      "velocity": 116,
      "chip": "ym2612"
    },
    {
      "channel": 4,
      "note": 85,
      "start": 5.5019,
      "duration": 0.1082,
      "velocity": 116,
      "chip": "ym2612"
    },
    {
      "channel": 1,
      "note": 92,
      "start": 5.7209,
      "duration": 0.2197,
      "velocity": 114,
      "chip": "ym2612"
    },
    {
      "channel": 2,
      "note": 92,
      "start": 5.7216,
      "duration": 0.1275,
      "velocity": 116,
      "chip": "ym2612"
    },
    {
      "channel": 4,
      "note": 89,
      "start": 5.7223,
      "duration": 0.1265,
      "velocity": 116,
      "chip": "ym2612"
    },
    {
      "channel": 1,
      "note": 93,
      "start": 5.9412,
      "duration": 0.2197,
      "velocity": 114,
      "chip": "ym2612"
    },
    {
      "channel": 2,
      "note": 95,
      "start": 5.9419,
      "duration": 0.9903,
      "velocity": 116,
      "chip": "ym2612"
    },
    {
      "channel": 4,
      "note": 92,
      "start": 5.9426,
      "duration": 0.9893,
      "velocity": 116,
      "chip": "ym2612"
    },
    {
      "channel": 1,
      "note": 95,
      "start": 6.1615,
      "duration": 0.2196,
      "velocity": 114,
      "chip": "ym2612"
    },
    {
      "channel": 1,
      "note": 89,
      "start": 6.3818,
      "duration": 0.2197,
      "velocity": 114,
      "chip": "ym2612"
    },
    {
      "channel": 0,
      "note": 50,
      "start": 6.3824,
      "duration": 0.1089,
      "velocity": 99,
      "chip": "ym2612"
    },
    {
      "channel": 1,
      "note": 92,
      "start": 6.6021,
      "duration": 0.2197,
      "velocity": 114,
      "chip": "ym2612"
    },
    {
      "channel": 1,
      "note": 93,
      "start": 6.8224,
      "duration": 0.2196,
      "velocity": 114,
      "chip": "ym2612"
    },
    {
      "channel": 0,
      "note": 49,
      "start": 6.823,
      "duration": 1.8804,
      "velocity": 99,
      "chip": "ym2612"
    },
    {
      "channel": 1,
      "note": 95,
      "start": 7.0427,
      "duration": 0.2197,
      "velocity": 114,
      "chip": "ym2612"
    },
    {
      "channel": 1,
      "note": 61,
      "start": 7.2715,
      "duration": 0.2206,
      "velocity": 98,
      "chip": "ym2612"
    },
    {
      "channel": 2,
      "note": 65,
      "start": 7.2808,
      "duration": 0.211,
      "velocity": 98,
      "chip": "ym2612"
    },
    {
      "channel": 4,
      "note": 79,
      "start": 7.2869,
      "duration": 0.0764,
      "velocity": 87,
      "chip": "ym2612"
    },
    {
      "channel": 1,
      "note": 65,
      "start": 7.4928,
      "duration": 0.2197,
      "velocity": 98,
      "chip": "ym2612"
    },
    {
      "channel": 2,
      "note": 68,
      "start": 7.4936,
      "duration": 0.2185,
      "velocity": 98,
      "chip": "ym2612"
    },
    {
      "channel": 4,
      "note": 79,
      "start": 7.4939,
      "duration": 0.0897,
      "velocity": 87,
      "chip": "ym2612"
    },
    {
      "channel": 1,
      "note": 68,
      "start": 7.7131,
      "duration": 0.2197,
      "velocity": 98,
      "chip": "ym2612"
    },
    {
      "channel": 2,
      "note": 71,
      "start": 7.7138,
      "duration": 0.2186,
      "velocity": 98,
      "chip": "ym2612"
    },
    {
      "channel": 4,
      "note": 79,
      "start": 7.7141,
      "duration": 0.0898,
      "velocity": 87,
      "chip": "ym2612"
    },
    {
      "channel": 1,
      "note": 71,
      "start": 7.9334,
      "duration": 0.2197,
      "velocity": 98,
      "chip": "ym2612"
    },
    {
      "channel": 2,
      "note": 74,
      "start": 7.9341,
      "duration": 0.2186,
      "velocity": 98,
      "chip": "ym2612"
    },
    {
      "channel": 1,
      "note": 65,
      "start": 8.1537,
      "duration": 0.2197,
      "velocity": 98,
      "chip": "ym2612"
    },
    {
      "channel": 2,
      "note": 68,
      "start": 8.1543,
      "duration": 0.2188,
      "velocity": 98,
      "chip": "ym2612"
    },
    {
      "channel": 4,
      "note": 79,
      "start": 8.1547,
      "duration": 0.0899,
      "velocity": 87,
      "chip": "ym2612"
    },
    {
      "channel": 1,
      "note": 68,
      "start": 8.3739,
      "duration": 0.2197,
      "velocity": 98,
      "chip": "ym2612"
    },
    {
      "channel": 2,
      "note": 71,
      "start": 8.3746,
      "duration": 0.2187,
      "velocity": 98,
      "chip": "ym2612"
    },
    {
      "channel": 1,
      "note": 71,
      "start": 8.5942,
      "duration": 0.2196,
      "velocity": 98,
      "chip": "ym2612"
    },
    {
      "channel": 2,
      "note": 74,
      "start": 8.5949,
      "duration": 0.2187,
      "velocity": 98,
      "chip": "ym2612"
    },
    {
      "channel": 4,
      "note": 79,
      "start": 8.5952,
      "duration": 0.0899,
      "velocity": 87,
      "chip": "ym2612"
    },
    {
      "channel": 1,
      "note": 74,
      "start": 8.8145,
      "duration": 0.2196,
      "velocity": 98,
      "chip": "ym2612"
    },
    {
      "channel": 2,
      "note": 77,
      "start": 8.8152,
      "duration": 0.2187,
      "velocity": 98,
      "chip": "ym2612"
    },
    {
      "channel": 0,
      "note": 49,
      "start": 8.8155,
      "duration": 1.0078,
      "velocity": 99,
      "chip": "ym2612"
    },
    {
      "channel": 1,
      "note": 68,
      "start": 9.0348,
      "duration": 0.2197,
      "velocity": 98,
      "chip": "ym2612"
    },
    {
      "channel": 2,
      "note": 71,
      "start": 9.0355,
      "duration": 0.2187,
      "velocity": 98,
      "chip": "ym2612"
    },
    {
      "channel": 4,
      "note": 79,
      "start": 9.0358,
      "duration": 0.0899,
      "velocity": 87,
      "chip": "ym2612"
    },
    {
      "channel": 1,
      "note": 71,
      "start": 9.2552,
      "duration": 0.2197,
      "velocity": 98,
      "chip": "ym2612"
    },
    {
      "channel": 2,
      "note": 74,
      "start": 9.2558,
      "duration": 0.2187,
      "velocity": 98,
      "chip": "ym2612"
    },
    {
      "channel": 4,
      "note": 79,
      "start": 9.2561,
      "duration": 0.0899,
      "velocity": 87,
      "chip": "ym2612"
    },
    {
      "channel": 1,
      "note": 74,
      "start": 9.4755,
      "duration": 0.2197,
      "velocity": 98,
      "chip": "ym2612"
    },
    {
      "channel": 2,
      "note": 77,
      "start": 9.4761,
      "duration": 0.2187,
      "velocity": 98,
      "chip": "ym2612"
    },
    {
      "channel": 4,
      "note": 79,
      "start": 9.4766,
      "duration": 0.0898,
      "velocity": 87,
      "chip": "ym2612"
    },
    {
      "channel": 1,
      "note": 77,
      "start": 9.6958,
      "duration": 0.2197,
      "velocity": 98,
      "chip": "ym2612"
    },
    {
      "channel": 2,
      "note": 80,
      "start": 9.6965,
      "duration": 0.2186,
      "velocity": 98,
      "chip": "ym2612"
    },
    {
      "channel": 4,
      "note": 79,
      "start": 9.6968,
      "duration": 0.0898,
      "velocity": 87,
      "chip": "ym2612"
    },
    {
      "channel": 1,
      "note": 71,
      "start": 9.9161,
      "duration": 0.2197,
      "velocity": 98,
      "chip": "ym2612"
    },
    {
      "channel": 2,
      "note": 74,
      "start": 9.9167,
      "duration": 0.2187,
      "velocity": 98,
      "chip": "ym2612"
    },
    {
      "channel": 4,
      "note": 79,
      "start": 9.917,
      "duration": 0.0899,
      "velocity": 87,
      "chip": "ym2612"
    },
    {
      "channel": 0,
      "note": 49,
      "start": 9.9173,
      "duration": 0.1446,
      "velocity": 99,
      "chip": "ym2612"
    },
    {
      "channel": 1,
      "note": 74,
      "start": 10.1363,
      "duration": 0.2197,
      "velocity": 98,
      "chip": "ym2612"
    },
    {
      "channel": 2,
      "note": 77,
      "start": 10.1371,
      "duration": 0.2186,
      "velocity": 98,
      "chip": "ym2612"
    },
    {
      "channel": 4,
      "note": 79,
      "start": 10.1374,
      "duration": 0.0899,
      "velocity": 87,
      "chip": "ym2612"
    },
    {
      "channel": 1,
      "note": 77,
      "start": 10.3566,
      "duration": 0.2197,
      "velocity": 98,
      "chip": "ym2612"
    },
    {
      "channel": 2,
      "note": 80,
      "start": 10.3573,
      "duration": 0.2186,
      "velocity": 98,
      "chip": "ym2612"
    },
    {
      "channel": 4,
      "note": 79,
      "start": 10.3577,
      "duration": 0.0899,
      "velocity": 87,
      "chip": "ym2612"
    },
    {
      "channel": 0,
      "note": 49,
      "start": 10.3579,
      "duration": 1.7051,
      "velocity": 99,
      "chip": "ym2612"
    },
    {
      "channel": 1,
      "note": 80,
      "start": 10.5771,
      "duration": 0.2195,
      "velocity": 98,
      "chip": "ym2612"
    },
    {
      "channel": 2,
      "note": 83,
      "start": 10.5778,
      "duration": 0.2185,
      "velocity": 98,
      "chip": "ym2612"
    },
    {
      "channel": 4,
      "note": 79,
      "start": 10.5781,
      "duration": 0.0897,
      "velocity": 87,
      "chip": "ym2612"
    },
    {
      "channel": 1,
      "note": 74,
      "start": 10.7972,
      "duration": 0.2197,
      "velocity": 98,
      "chip": "ym2612"
    },
    {
      "channel": 2,
      "note": 77,
      "start": 10.7979,
      "duration": 0.2187,
      "velocity": 98,
      "chip": "ym2612"
    },
    {
      "channel": 4,
      "note": 79,
      "start": 10.7982,
      "duration": 0.0899,
      "velocity": 87,
      "chip": "ym2612"
    },
    {
      "channel": 1,
      "note": 77,
      "start": 11.0175,
      "duration": 0.2197,
      "velocity": 98,
      "chip": "ym2612"
    },
    {
      "channel": 2,
      "note": 80,
      "start": 11.0182,
      "duration": 0.2187,
      "velocity": 98,
      "chip": "ym2612"
    },
    {
      "channel": 4,
      "note": 79,
      "start": 11.0185,
      "duration": 0.0899,
      "velocity": 87,
      "chip": "ym2612"
    },
    {
      "channel": 1,
      "note": 80,
      "start": 11.2379,
      "duration": 0.2197,
      "velocity": 98,
      "chip": "ym2612"
    },
    {
      "channel": 2,
      "note": 83,
      "start": 11.2385,
      "duration": 0.2187,
      "velocity": 98,
      "chip": "ym2612"
    },
    {
      "channel": 4,
      "note": 79,
      "start": 11.2389,
      "duration": 0.0898,
      "velocity": 87,
      "chip": "ym2612"
    },
    {
      "channel": 1,
      "note": 83,
      "start": 11.4582,
      "duration": 0.2197,
      "velocity": 98,
      "chip": "ym2612"
    },
    {
      "channel": 2,
      "note": 86,
      "start": 11.4589,
      "duration": 0.2186,
      "velocity": 98,
      "chip": "ym2612"
    },
    {
      "channel": 1,
      "note": 77,
      "start": 11.6785,
      "duration": 0.2197,
      "velocity": 98,
      "chip": "ym2612"
    },
    {
      "channel": 2,
      "note": 80,
      "start": 11.6791,
      "duration": 0.2187,
      "velocity": 98,
      "chip": "ym2612"
    },
    {
      "channel": 4,
      "note": 79,
      "start": 11.6794,
      "duration": 0.0899,
      "velocity": 87,
      "chip": "ym2612"
    },
    {
      "channel": 1,
      "note": 80,
      "start": 11.8988,
      "duration": 0.2197,
      "velocity": 98,
      "chip": "ym2612"
    },
    {
      "channel": 2,
      "note": 83,
      "start": 11.8995,
      "duration": 0.2186,
      "velocity": 98,
      "chip": "ym2612"
    },
    {
      "channel": 1,
      "note": 83,
      "start": 12.119,
      "duration": 0.2197,
      "velocity": 98,
      "chip": "ym2612"
    },
    {
      "channel": 2,
      "note": 86,
      "start": 12.1198,
      "duration": 0.2186,
      "velocity": 98,
      "chip": "ym2612"
    },
    {
      "channel": 4,
      "note": 79,
      "start": 12.1201,
      "duration": 0.0899,
      "velocity": 87,
      "chip": "ym2612"
    },
    {
      "channel": 1,
      "note": 86,
      "start": 12.3393,
      "duration": 0.2196,
      "velocity": 98,
      "chip": "ym2612"
    },
    {
      "channel": 2,
      "note": 89,
      "start": 12.34,
      "duration": 0.2186,
      "velocity": 98,
      "chip": "ym2612"
    },
    {
      "channel": 0,
      "note": 49,
      "start": 12.3403,
      "duration": 1.0995,
      "velocity": 99,
      "chip": "ym2612"
    },
    {
      "channel": 1,
      "note": 80,
      "start": 12.5597,
      "duration": 0.2196,
      "velocity": 98,
      "chip": "ym2612"
    },
    {
      "channel": 2,
      "note": 83,
      "start": 12.5604,
      "duration": 0.2186,
      "velocity": 98,
      "chip": "ym2612"
    },
    {
      "channel": 4,
      "note": 79,
      "start": 12.5607,
      "duration": 0.0898,
      "velocity": 87,
      "chip": "ym2612"
    },
    {
      "channel": 1,
      "note": 83,
      "start": 12.7799,
      "duration": 0.2197,
      "velocity": 98,
      "chip": "ym2612"
    },
    {
      "channel": 2,
      "note": 86,
      "start": 12.7806,
      "duration": 0.2186,
      "velocity": 98,
      "chip": "ym2612"
    },
    {
      "channel": 4,
      "note": 79,
      "start": 12.7809,
      "duration": 0.0899,
      "velocity": 87,
      "chip": "ym2612"
    },
    {
      "channel": 1,
      "note": 86,
      "start": 13.0002,
      "duration": 0.2197,
      "velocity": 98,
      "chip": "ym2612"
    },
    {
      "channel": 2,
      "note": 89,
      "start": 13.0009,
      "duration": 0.2187,
      "velocity": 98,
      "chip": "ym2612"
    },
    {
      "channel": 4,
      "note": 79,
      "start": 13.0012,
      "duration": 0.0899,
      "velocity": 87,
      "chip": "ym2612"
    },
    {
      "channel": 1,
      "note": 89,
      "start": 13.2205,
      "duration": 0.8622,
      "velocity": 98,
      "chip": "ym2612"
    },
    {
      "channel": 2,
      "note": 92,
      "start": 13.2212,
      "duration": 0.8612,
      "velocity": 98,
      "chip": "ym2612"
    },
    {
      "channel": 4,
      "note": 79,
      "start": 13.2215,
      "duration": 0.0899,
      "velocity": 87,
      "chip": "ym2612"
    },
    {
      "channel": 0,
      "note": 53,
      "start": 13.4405,
      "duration": 0.6052,
      "velocity": 99,
      "chip": "ym2612"
    },
    {
      "channel": 0,
      "note": 54,
      "start": 14.1011,
      "duration": 0.5871,
      "velocity": 99,
      "chip": "ym2612"
    },
    {
      "channel": 1,
      "note": 78,
      "start": 14.1488,
      "duration": 1.2737,
      "velocity": 114,
      "chip": "ym2612"
    },
    {
      "channel": 4,
      "note": 79,
      "start": 14.3211,
      "duration": 0.0918,
      "velocity": 87,
      "chip": "ym2612"
    },
    {
      "channel": 4,
      "note": 79,
      "start": 14.5414,
      "duration": 0.0918,
      "velocity": 87,
      "chip": "ym2612"
    },
    {
      "channel": 2,
      "note": 78,
      "start": 14.771,
      "duration": 0.9821,
      "velocity": 97,
      "chip": "ym2612"
    },
    {
      "channel": 4,
      "note": 79,
      "start": 14.7713,
      "duration": 0.0822,
      "velocity": 87,
      "chip": "ym2612"
    },
    {
      "channel": 0,
      "note": 54,
      "start": 14.7716,
      "duration": 0.5592,
      "velocity": 99,
      "chip": "ym2612"
    },
    {
      "channel": 4,
      "note": 79,
      "start": 14.982,
      "duration": 0.0918,
      "velocity": 87,
      "chip": "ym2612"
    },
    {
      "channel": 4,
      "note": 79,
      "start": 15.2023,
      "duration": 0.0918,
      "velocity": 87,
      "chip": "ym2612"
    },
    {
      "channel": 1,
      "note": 80,
      "start": 15.4232,
      "duration": 0.2197,
      "velocity": 114,
      "chip": "ym2612"
    },
    {
      "channel": 3,
      "note": 45,
      "start": 15.4239,
      "duration": 0.2006,
      "velocity": 118,
      "chip": "ym2612"
    },
    {
      "channel": 4,
      "note": 79,
      "start": 15.4242,
      "duration": 0.0902,
      "velocity": 87,
      "chip": "ym2612"
    },
    {
      "channel": 0,
      "note": 54,
      "start": 15.4245,
      "duration": 0.3836,
      "velocity": 99,
      "chip": "ym2612"
    },
    {
      "channel": 1,
      "note": 81,
      "start": 15.6436,
      "duration": 0.1461,
      "velocity": 114,
      "chip": "ym2612"
    },
    {
      "channel": 4,
      "note": 79,
      "start": 15.6439,
      "duration": 0.0908,
      "velocity": 87,
      "chip": "ym2612"
    },
    {
      "channel": 1,
      "note": 83,
      "start": 15.8635,
      "duration": 1.3031,
      "velocity": 114,
      "chip": "ym2612"
    },
    {
      "channel": 0,
      "note": 53,
      "start": 15.8641,
      "duration": 0.5864,
      "velocity": 99,
      "chip": "ym2612"
    },
    {
      "channel": 2,
      "note": 68,
      "start": 16.0838,
      "duration": 0.1833,
      "velocity": 97,
      "chip": "ym2612"
    },
    {
      "channel": 4,
      "note": 79,
      "start": 16.0841,
      "duration": 0.0912,
      "velocity": 87,
      "chip": "ym2612"
    },
    {
      "channel": 2,
      "note": 69,
      "start": 16.3041,
      "duration": 0.2199,
      "velocity": 97,
      "chip": "ym2612"
    },
    {
      "channel": 4,
      "note": 79,
      "start": 16.3045,
      "duration": 0.0911,
      "velocity": 87,
      "chip": "ym2612"
    },
    {
      "channel": 2,
      "note": 71,
      "start": 16.5247,
      "duration": 1.0277,
      "velocity": 97,
      "chip": "ym2612"
    },
    {
      "channel": 4,
      "note": 79,
      "start": 16.5251,
      "duration": 0.0908,
      "velocity": 87,
      "chip": "ym2612"
    },
    {
      "channel": 0,
      "note": 53,
      "start": 16.5254,
      "duration": 0.5861,
      "velocity": 99,
      "chip": "ym2612"
    },
    {
      "channel": 4,
      "note": 79,
      "start": 16.9646,
      "duration": 0.0918,
      "velocity": 87,
      "chip": "ym2612"
    },
    {
      "channel": 1,
      "note": 81,
      "start": 17.1673,
      "duration": 0.22,
      "velocity": 114,
      "chip": "ym2612"
    },
    {
      "channel": 3,
      "note": 45,
      "start": 17.1849,
      "duration": 0.202,
      "velocity": 118,
      "chip": "ym2612"
    },
    {
      "channel": 4,
      "note": 79,
      "start": 17.1853,
      "duration": 0.0915,
      "velocity": 87,
      "chip": "ym2612"
    },
    {
      "channel": 0,
      "note": 53,
      "start": 17.1856,
      "duration": 0.3849,
      "velocity": 99,
      "chip": "ym2612"
    },
    {
      "channel": 1,
      "note": 83,
      "start": 17.3879,
      "duration": 0.1642,
      "velocity": 114,
      "chip": "ym2612"
    },
    {
      "channel": 4,
      "note": 79,
      "start": 17.4053,
      "duration": 0.0918,
      "velocity": 87,
      "chip": "ym2612"
    },
    {
      "channel": 1,
      "note": 85,
      "start": 17.6075,
      "duration": 1.3031,
      "velocity": 114,
      "chip": "ym2612"
    },
    {
      "channel": 4,
      "note": 79,
      "start": 17.6256,
      "duration": 0.0918,
      "velocity": 87,
      "chip": "ym2612"
    },
    {
      "channel": 0,
      "note": 45,
      "start": 17.6262,
      "duration": 0.5502,
      "velocity": 99,
      "chip": "ym2612"
    },
    {
      "channel": 2,
      "note": 69,
      "start": 17.8462,
      "duration": 0.22,
      "velocity": 97,
      "chip": "ym2612"
    },
    {
      "channel": 4,
      "note": 79,
      "start": 17.8465,
      "duration": 0.0912,
      "velocity": 87,
      "chip": "ym2612"
    },
    {
      "channel": 2,
      "note": 71,
      "start": 18.0668,
      "duration": 0.2013,
      "velocity": 97,
      "chip": "ym2612"
    },
    {
      "channel": 2,
      "note": 73,
      "start": 18.2868,
      "duration": 0.6055,
      "velocity": 97,
      "chip": "ym2612"
    },
    {
      "channel": 4,
      "note": 79,
      "start": 18.2872,
      "duration": 0.0911,
      "velocity": 87,
      "chip": "ym2612"
    },
    {
      "channel": 0,
      "note": 45,
      "start": 18.2874,
      "duration": 0.5498,
      "velocity": 99,
      "chip": "ym2612"
    },
    {
      "channel": 4,
      "note": 79,
      "start": 18.7271,
      "duration": 0.0918,
      "velocity": 87,
      "chip": "ym2612"
    },
    {
      "channel": 2,
      "note": 73,
      "start": 18.9473,
      "duration": 0.1836,
      "velocity": 97,
      "chip": "ym2612"
    },
    {
      "channel": 3,
      "note": 45,
      "start": 18.9477,
      "duration": 0.2017,
      "velocity": 118,
      "chip": "ym2612"
    },
    {
      "channel": 4,
      "note": 79,
      "start": 18.948,
      "duration": 0.0911,
      "velocity": 87,
      "chip": "ym2612"
    },
    {
      "channel": 0,
      "note": 45,
      "start": 18.9483,
      "duration": 0.3662,
      "velocity": 99,
      "chip": "ym2612"
    },
    {
      "channel": 1,
      "note": 89,
      "start": 18.9661,
      "duration": 0.2016,
      "velocity": 114,
      "chip": "ym2612"
    },
    {
      "channel": 1,
      "note": 90,
      "start": 19.1683,
      "duration": 0.1279,
      "velocity": 114,
      "chip": "ym2612"
    },
    {
      "channel": 2,
      "note": 75,
      "start": 19.169,
      "duration": 0.2006,
      "velocity": 97,
      "chip": "ym2612"
    },
    {
      "channel": 4,
      "note": 79,
      "start": 19.1693,
      "duration": 0.0901,
      "velocity": 87,
      "chip": "ym2612"
    },
    {
      "channel": 1,
      "note": 92,
      "start": 19.3702,
      "duration": 0.6602,
      "velocity": 114,
      "chip": "ym2612"
    },
    {
      "channel": 2,
      "note": 77,
      "start": 19.3883,
      "duration": 0.6606,
      "velocity": 97,
      "chip": "ym2612"
    },
    {
      "channel": 4,
      "note": 79,
      "start": 19.3886,
      "duration": 0.0911,
      "velocity": 87,
      "chip": "ym2612"
    },
    {
      "channel": 0,
      "note": 49,
      "start": 19.3892,
      "duration": 0.5862,
      "velocity": 99,
      "chip": "ym2612"
    },
    {
      "channel": 4,
      "note": 79,
      "start": 19.6083,
      "duration": 0.0918,
      "velocity": 87,
      "chip": "ym2612"
    },
    {
      "channel": 1,
      "note": 97,
      "start": 20.0495,
      "duration": 0.6235,
      "velocity": 114,
      "chip": "ym2612"
    },
    {
      "channel": 2,
      "note": 80,
      "start": 20.0502,
      "duration": 0.6412,
      "velocity": 97,
      "chip": "ym2612"
    },
    {
      "channel": 4,
      "note": 79,
      "start": 20.0505,
      "duration": 0.0902,
      "velocity": 87,
      "chip": "ym2612"
    },
    {
      "channel": 0,
      "note": 49,
      "start": 20.0507,
      "duration": 0.5488,
      "velocity": 99,
      "chip": "ym2612"
    },
    {
      "channel": 4,
      "note": 79,
      "start": 20.2692,
      "duration": 0.0918,
      "velocity": 87,
      "chip": "ym2612"
    },
    {
      "channel": 4,
      "note": 79,
      "start": 20.4895,
      "duration": 0.0918,
      "velocity": 87,
      "chip": "ym2612"
    },
    {
      "channel": 1,
      "note": 95,
      "start": 20.6737,
      "duration": 0.4767,
      "velocity": 114,
      "chip": "ym2612"
    },
    {
      "channel": 2,
      "note": 78,
      "start": 20.7102,
      "duration": 0.367,
      "velocity": 97,
      "chip": "ym2612"
    },
    {
      "channel": 3,
      "note": 45,
      "start": 20.7105,
      "duration": 0.2012,
      "velocity": 118,
      "chip": "ym2612"
    },
    {
      "channel": 4,
      "note": 79,
      "start": 20.7108,
      "duration": 0.0907,
      "velocity": 87,
      "chip": "ym2612"
    },
    {
      "channel": 0,
      "note": 49,
      "start": 20.7112,
      "duration": 0.3657,
      "velocity": 99,
      "chip": "ym2612"
    },
    {
      "channel": 4,
      "note": 79,
      "start": 20.93,
      "duration": 0.0918,
      "velocity": 87,
      "chip": "ym2612"
    },
    {
      "channel": 1,
      "note": 93,
      "start": 21.151,
      "duration": 1.3031,
      "velocity": 114,
      "chip": "ym2612"
    },
    {
      "channel": 2,
      "note": 78,
      "start": 21.1514,
      "duration": 1.3024,
      "velocity": 97,
      "chip": "ym2612"
    },
    {
      "channel": 4,
      "note": 79,
      "start": 21.1517,
      "duration": 0.0905,
      "velocity": 87,
      "chip": "ym2612"
    },
    {
      "channel": 0,
      "note": 54,
      "start": 21.1522,
      "duration": 0.5308,
      "velocity": 99,
      "chip": "ym2612"
    },
    {
      "channel": 4,
      "note": 79,
      "start": 21.3706,
      "duration": 0.0918,
      "velocity": 87,
      "chip": "ym2612"
    },
    {
      "channel": 4,
      "note": 79,
      "start": 21.5909,
      "duration": 0.0919,
      "velocity": 87,
      "chip": "ym2612"
    },
    {
      "channel": 4,
      "note": 79,
      "start": 21.8113,
      "duration": 0.0918,
      "velocity": 87,
      "chip": "ym2612"
    },
    {
      "channel": 0,
      "note": 54,
      "start": 21.8115,
      "duration": 0.4954,
      "velocity": 99,
      "chip": "ym2612"
    },
    {
      "channel": 4,
      "note": 79,
      "start": 22.2519,
      "duration": 0.0918,
      "velocity": 87,
      "chip": "ym2612"
    },
    {
      "channel": 1,
      "note": 92,
      "start": 22.4725,
      "duration": 0.2203,
      "velocity": 114,
      "chip": "ym2612"
    },
    {
      "channel": 2,
      "note": 77,
      "start": 22.4732,
      "duration": 0.2193,
      "velocity": 97,
      "chip": "ym2612"
    },
    {
      "channel": 3,
      "note": 45,
      "start": 22.4735,
      "duration": 0.2006,
      "velocity": 118,
      "chip": "ym2612"
    },
    {
      "channel": 4,
      "note": 79,
      "start": 22.4738,
      "duration": 0.0901,
      "velocity": 87,
      "chip": "ym2612"
    },
    {
      "channel": 0,
      "note": 54,
      "start": 22.4741,
      "duration": 0.3105,
      "velocity": 99,
      "chip": "ym2612"
    },
    {
      "channel": 1,
      "note": 93,
      "start": 22.6935,
      "duration": 0.2193,
      "velocity": 114,
      "chip": "ym2612"
    },
    {
      "channel": 2,
      "note": 78,
      "start": 22.6942,
      "duration": 0.2002,
      "velocity": 97,
      "chip": "ym2612"
    },
    {
      "channel": 4,
      "note": 79,
      "start": 22.6945,
      "duration": 0.0898,
      "velocity": 87,
      "chip": "ym2612"
    },
    {
      "channel": 1,
      "note": 85,
      "start": 22.9134,
      "duration": 1.2847,
      "velocity": 114,
      "chip": "ym2612"
    },
    {
      "channel": 2,
      "note": 68,
      "start": 22.914,
      "duration": 1.2838,
      "velocity": 97,
      "chip": "ym2612"
    },
    {
      "channel": 0,
      "note": 53,
      "start": 22.9146,
      "duration": 0.5488,
      "velocity": 99,
      "chip": "ym2612"
    },
    {
      "channel": 4,
      "note": 79,
      "start": 23.133,
      "duration": 0.0918,
      "velocity": 87,
      "chip": "ym2612"
    },
    {
      "channel": 4,
      "note": 79,
      "start": 23.5737,
      "duration": 0.0917,
      "velocity": 87,
      "chip": "ym2612"
    },
    {
      "channel": 0,
      "note": 53,
      "start": 23.5739,
      "duration": 0.5324,
      "velocity": 99,
      "chip": "ym2612"
    },
    {
      "channel": 4,
      "note": 79,
      "start": 24.0143,
      "duration": 0.0918,
      "velocity": 87,
      "chip": "ym2612"
    },
    {
      "channel": 1,
      "note": 83,
      "start": 24.2165,
      "duration": 0.2386,
      "velocity": 114,
      "chip": "ym2612"
    },
    {
      "channel": 2,
      "note": 66,
      "start": 24.2349,
      "duration": 0.22,
      "velocity": 97,
      "chip": "ym2612"
    },
    {
      "channel": 3,
      "note": 45,
      "start": 24.2352,
      "duration": 0.2013,
      "velocity": 118,
      "chip": "ym2612"
    },
    {
      "channel": 4,
      "note": 79,
      "start": 24.2355,
      "duration": 0.0909,
      "velocity": 87,
      "chip": "ym2612"
    },
    {
      "channel": 0,
      "note": 53,
      "start": 24.2358,
      "duration": 0.3111,
      "velocity": 99,
      "chip": "ym2612"
    },
    {
      "channel": 1,
      "note": 81,
      "start": 24.4557,
      "duration": 0.1646,
      "velocity": 114,
      "chip": "ym2612"
    },
    {
      "channel": 2,
      "note": 64,
      "start": 24.4564,
      "duration": 0.1636,
      "velocity": 97,
      "chip": "ym2612"
    },
    {
      "channel": 4,
      "note": 79,
      "start": 24.4568,
      "duration": 0.0899,
      "velocity": 87,
      "chip": "ym2612"
    },
    {
      "channel": 1,
      "note": 83,
      "start": 24.6571,
      "duration": 1.3215,
      "velocity": 114,
      "chip": "ym2612"
    },
    {
      "channel": 2,
      "note": 66,
      "start": 24.6755,
      "duration": 1.2296,
      "velocity": 97,
      "chip": "ym2612"
    },
    {
      "channel": 4,
      "note": 79,
      "start": 24.6758,
      "duration": 0.0912,
      "velocity": 87,
      "chip": "ym2612"
    },
    {
      "channel": 0,
      "note": 51,
      "start": 24.6765,
      "duration": 0.5127,
      "velocity": 99,
      "chip": "ym2612"
    },
    {
      "channel": 4,
      "note": 79,
      "start": 24.8954,
      "duration": 0.0918,
      "velocity": 87,
      "chip": "ym2612"
    },
    {
      "channel": 4,
      "note": 79,
      "start": 25.1157,
      "duration": 0.0918,
      "velocity": 87,
      "chip": "ym2612"
    },
    {
      "channel": 4,
      "note": 79,
      "start": 25.336,
      "duration": 0.0918,
      "velocity": 87,
      "chip": "ym2612"
    },
    {
      "channel": 0,
      "note": 51,
      "start": 25.3363,
      "duration": 0.5137,
      "velocity": 99,
      "chip": "ym2612"
    },
    {
      "channel": 4,
      "note": 79,
      "start": 25.7767,
      "duration": 0.0917,
      "velocity": 87,
      "chip": "ym2612"
    },
    {
      "channel": 2,
      "note": 64,
      "start": 25.9972,
      "duration": 0.22,
      "velocity": 97,
      "chip": "ym2612"
    },
    {
      "channel": 3,
      "note": 45,
      "start": 25.9975,
      "duration": 0.2017,
      "velocity": 118,
      "chip": "ym2612"
    },
    {
      "channel": 4,
      "note": 79,
      "start": 25.9979,
      "duration": 0.0908,
      "velocity": 87,
      "chip": "ym2612"
    },
    {
      "channel": 0,
      "note": 51,
      "start": 25.9982,
      "duration": 0.4029,
      "velocity": 99,
      "chip": "ym2612"
    },
    {
      "channel": 1,
      "note": 81,
      "start": 26.0156,
      "duration": 0.1833,
      "velocity": 114,
      "chip": "ym2612"
    },
    {
      "channel": 1,
      "note": 80,
      "start": 26.1998,
      "duration": 0.201,
      "velocity": 114,
      "chip": "ym2612"
    },
    {
      "channel": 2,
      "note": 63,
      "start": 26.2178,
      "duration": 0.2197,
      "velocity": 97,
      "chip": "ym2612"
    },
    {
      "channel": 4,
      "note": 79,
      "start": 26.2182,
      "duration": 0.0908,
      "velocity": 87,
      "chip": "ym2612"
    },
    {
      "channel": 1,
      "note": 81,
      "start": 26.4382,
      "duration": 1.3211,
      "velocity": 114,
      "chip": "ym2612"
    },
    {
      "channel": 2,
      "note": 62,
      "start": 26.4388,
      "duration": 1.1554,
      "velocity": 97,
      "chip": "ym2612"
    },
    {
      "channel": 0,
      "note": 62,
      "start": 26.4394,
      "duration": 0.5122,
      "velocity": 99,
      "chip": "ym2612"
    },
    {
      "channel": 4,
      "note": 79,
      "start": 26.6578,
      "duration": 0.0918,
      "velocity": 87,
      "chip": "ym2612"
    },
    {
      "channel": 4,
      "note": 79,
      "start": 26.8781,
      "duration": 0.0918,
      "velocity": 87,
      "chip": "ym2612"
    },
    {
      "channel": 4,
      "note": 79,
      "start": 27.0984,
      "duration": 0.0918,
      "velocity": 87,
      "chip": "ym2612"
    },
    {
      "channel": 0,
      "note": 62,
      "start": 27.0988,
      "duration": 0.5324,
      "velocity": 99,
      "chip": "ym2612"
    },
    {
      "channel": 4,
      "note": 79,
      "start": 27.3187,
      "duration": 0.0918,
      "velocity": 87,
      "chip": "ym2612"
    },
    {
      "channel": 4,
      "note": 79,
      "start": 27.539,
      "duration": 0.0918,
      "velocity": 87,
      "chip": "ym2612"
    },
    {
      "channel": 1,
      "note": 90,
      "start": 27.76,
      "duration": 0.238,
      "velocity": 114,
      "chip": "ym2612"
    },
    {
      "channel": 2,
      "note": 81,
      "start": 27.7607,
      "duration": 0.2192,
      "velocity": 97,
      "chip": "ym2612"
    },
    {
      "channel": 3,
      "note": 45,
      "start": 27.761,
      "duration": 0.2002,
      "velocity": 118,
      "chip": "ym2612"
    },
    {
      "channel": 4,
      "note": 79,
      "start": 27.7613,
      "duration": 0.0898,
      "velocity": 87,
      "chip": "ym2612"
    },
    {
      "channel": 0,
      "note": 62,
      "start": 27.7617,
      "duration": 0.2179,
      "velocity": 99,
      "chip": "ym2612"
    },
    {
      "channel": 2,
      "note": 80,
      "start": 27.9805,
      "duration": 0.2197,
      "velocity": 97,
      "chip": "ym2612"
    },
    {
      "channel": 4,
      "note": 79,
      "start": 27.9809,
      "duration": 0.0905,
      "velocity": 87,
      "chip": "ym2612"
    },
    {
      "channel": 0,
      "note": 61,
      "start": 27.9815,
      "duration": 0.1082,
      "velocity": 99,
      "chip": "ym2612"
    },
    {
      "channel": 1,
      "note": 88,
      "start": 27.9986,
      "duration": 0.2013,
      "velocity": 114,
      "chip": "ym2612"
    },
    {
      "channel": 2,
      "note": 78,
      "start": 28.2008,
      "duration": 1.2477,
      "velocity": 97,
      "chip": "ym2612"
    },
    {
      "channel": 4,
      "note": 79,
      "start": 28.2012,
      "duration": 0.0905,
      "velocity": 87,
      "chip": "ym2612"
    },
    {
      "channel": 0,
      "note": 59,
      "start": 28.2019,
      "duration": 0.5121,
      "velocity": 99,
      "chip": "ym2612"
    },
    {
      "channel": 1,
      "note": 86,
      "start": 28.2186,
      "duration": 1.2296,
      "velocity": 114,
      "chip": "ym2612"
    },
    {
      "channel": 4,
      "note": 79,
      "start": 28.4202,
      "duration": 0.0919,
      "velocity": 87,
      "chip": "ym2612"
    },
    {
      "channel": 4,
      "note": 79,
      "start": 28.8608,
      "duration": 0.0918,
      "velocity": 87,
      "chip": "ym2612"
    },
    {
      "channel": 0,
      "note": 59,
      "start": 28.8611,
      "duration": 0.5137,
      "velocity": 99,
      "chip": "ym2612"
    },
    {
      "channel": 4,
      "note": 79,
      "start": 29.3014,
      "duration": 0.0919,
      "velocity": 87,
      "chip": "ym2612"
    },
    {
      "channel": 1,
      "note": 86,
      "start": 29.5033,
      "duration": 0.2206,
      "velocity": 114,
      "chip": "ym2612"
    },
    {
      "channel": 2,
      "note": 78,
      "start": 29.5217,
      "duration": 0.2205,
      "velocity": 97,
      "chip": "ym2612"
    },
    {
      "channel": 3,
      "note": 45,
      "start": 29.522,
      "duration": 0.2016,
      "velocity": 118,
      "chip": "ym2612"
    },
    {
      "channel": 4,
      "note": 79,
      "start": 29.5224,
      "duration": 0.0912,
      "velocity": 87,
      "chip": "ym2612"
    },
    {
      "channel": 0,
      "note": 59,
      "start": 29.5227,
      "duration": 0.2193,
      "velocity": 99,
      "chip": "ym2612"
    },
    {
      "channel": 1,
      "note": 85,
      "start": 29.7246,
      "duration": 0.1826,
      "velocity": 114,
      "chip": "ym2612"
    },
    {
      "channel": 2,
      "note": 76,
      "start": 29.743,
      "duration": 0.2009,
      "velocity": 97,
      "chip": "ym2612"
    },
    {
      "channel": 4,
      "note": 79,
      "start": 29.7435,
      "duration": 0.0903,
      "velocity": 87,
      "chip": "ym2612"
    },
    {
      "channel": 0,
      "note": 57,
      "start": 29.7441,
      "duration": 0.108,
      "velocity": 99,
      "chip": "ym2612"
    },
    {
      "channel": 1,
      "note": 83,
      "start": 29.9446,
      "duration": 1.2113,
      "velocity": 114,
      "chip": "ym2612"
    },
    {
      "channel": 2,
      "note": 74,
      "start": 29.9626,
      "duration": 1.2113,
      "velocity": 97,
      "chip": "ym2612"
    },
    {
      "channel": 4,
      "note": 79,
      "start": 29.9629,
      "duration": 0.0912,
      "velocity": 87,
      "chip": "ym2612"
    },
    {
      "channel": 0,
      "note": 56,
      "start": 29.9636,
      "duration": 0.5678,
      "velocity": 99,
      "chip": "ym2612"
    },
    {
      "channel": 4,
      "note": 79,
      "start": 30.1826,
      "duration": 0.0918,
      "velocity": 87,
      "chip": "ym2612"
    },
    {
      "channel": 4,
      "note": 79,
      "start": 30.4029,
      "duration": 0.0918,
      "velocity": 87,
      "chip": "ym2612"
    },
    {
      "channel": 4,
      "note": 79,
      "start": 30.6232,
      "duration": 0.0918,
      "velocity": 87,
      "chip": "ym2612"
    },
    {
      "channel": 0,
      "note": 56,
      "start": 30.6235,
      "duration": 0.5137,
      "velocity": 99,
      "chip": "ym2612"
    },
    {
      "channel": 4,
      "note": 79,
      "start": 31.0638,
      "duration": 0.0918,
      "velocity": 87,
      "chip": "ym2612"
    },
    {
      "channel": 1,
      "note": 83,
      "start": 31.2657,
      "duration": 0.2206,
      "velocity": 114,
      "chip": "ym2612"
    },
    {
      "channel": 2,
      "note": 74,
      "start": 31.2841,
      "duration": 0.2206,
      "velocity": 97,
      "chip": "ym2612"
    },
    {
      "channel": 3,
      "note": 45,
      "start": 31.2844,
      "duration": 0.2017,
      "velocity": 118,
      "chip": "ym2612"
    },
    {
      "channel": 4,
      "note": 79,
      "start": 31.2848,
      "duration": 0.0912,
      "velocity": 87,
      "chip": "ym2612"
    },
    {
      "channel": 0,
      "note": 56,
      "start": 31.285,
      "duration": 0.2193,
      "velocity": 99,
      "chip": "ym2612"
    },
    {
      "channel": 1,
      "note": 81,
      "start": 31.487,
      "duration": 0.2013,
      "velocity": 114,
      "chip": "ym2612"
    },
    {
      "channel": 2,
      "note": 73,
      "start": 31.5054,
      "duration": 0.1826,
      "velocity": 97,
      "chip": "ym2612"
    },
    {
      "channel": 4,
      "note": 79,
      "start": 31.5057,
      "duration": 0.0905,
      "velocity": 87,
      "chip": "ym2612"
    },
    {
      "channel": 0,
      "note": 54,
      "start": 31.5063,
      "duration": 0.1266,
      "velocity": 99,
      "chip": "ym2612"
    },
    {
      "channel": 1,
      "note": 80,
      "start": 31.6889,
      "duration": 1.1557,
      "velocity": 114,
      "chip": "ym2612"
    },
    {
      "channel": 2,
      "note": 71,
      "start": 31.725,
      "duration": 1.0831,
      "velocity": 97,
      "chip": "ym2612"
    },
    {
      "channel": 4,
      "note": 79,
      "start": 31.7253,
      "duration": 0.0912,
      "velocity": 87,
      "chip": "ym2612"
    },
    {
      "channel": 0,
      "note": 53,
      "start": 31.726,
      "duration": 0.5311,
      "velocity": 99,
      "chip": "ym2612"
    },
    {
      "channel": 4,
      "note": 79,
      "start": 31.945,
      "duration": 0.0918,
      "velocity": 87,
      "chip": "ym2612"
    },
    {
      "channel": 4,
      "note": 79,
      "start": 32.3856,
      "duration": 0.0918,
      "velocity": 87,
      "chip": "ym2612"
    },
    {
      "channel": 0,
      "note": 53,
      "start": 32.3859,
      "duration": 0.4219,
      "velocity": 99,
      "chip": "ym2612"
    },
    {
      "channel": 2,
      "note": 69,
      "start": 32.8267,
      "duration": 0.2565,
      "velocity": 97,
      "chip": "ym2612"
    },
    {
      "channel": 4,
      "note": 79,
      "start": 32.8271,
      "duration": 0.0909,
      "velocity": 87,
      "chip": "ym2612"
    },
    {
      "channel": 0,
      "note": 50,
      "start": 32.8277,
      "duration": 0.2188,
      "velocity": 99,
      "chip": "ym2612"
    },
    {
      "channel": 1,
      "note": 78,
      "start": 32.8452,
      "duration": 0.1646,
      "velocity": 114,
      "chip": "ym2612"
    },
    {
      "channel": 3,
      "note": 45,
      "start": 33.0468,
      "duration": 0.2017,
      "velocity": 118,
      "chip": "ym2612"
    },
    {
      "channel": 4,
      "note": 79,
      "start": 33.0471,
      "duration": 0.0912,
      "velocity": 87,
      "chip": "ym2612"
    },
    {
      "channel": 1,
      "note": 77,
      "start": 33.2671,
      "duration": 0.2017,
      "velocity": 114,
      "chip": "ym2612"
    },
    {
      "channel": 4,
      "note": 79,
      "start": 33.2675,
      "duration": 0.0912,
      "velocity": 87,
      "chip": "ym2612"
    },
    {
      "channel": 5,
      "note": 68,
      "start": 33.2681,
      "duration": 0.6504,
      "velocity": 97,
      "chip": "ym2612"
    },
    {
      "channel": 0,
      "note": 49,
      "start": 33.2687,
      "duration": 1.9165,
      "velocity": 99,
      "chip": "ym2612"
    },
    {
      "channel": 4,
      "note": 79,
      "start": 33.4871,
      "duration": 0.0918,
      "velocity": 87,
      "chip": "ym2612"
    },
    {
      "channel": 1,
      "note": 61,
      "start": 33.7163,
      "duration": 0.2209,
      "velocity": 98,
      "chip": "ym2612"
    },
    {
      "channel": 2,
      "note": 65,
      "start": 33.7255,
      "duration": 0.2113,
      "velocity": 98,
      "chip": "ym2612"
    },
    {
      "channel": 4,
      "note": 79,
      "start": 33.7259,
      "duration": 0.0825,
      "velocity": 87,
      "chip": "ym2612"
    },
    {
      "channel": 1,
      "note": 65,
      "start": 33.9378,
      "duration": 0.2197,
      "velocity": 98,
      "chip": "ym2612"
    },
    {
      "channel": 2,
      "note": 68,
      "start": 33.9384,
      "duration": 0.2187,
      "velocity": 98,
      "chip": "ym2612"
    },
    {
      "channel": 1,
      "note": 68,
      "start": 34.1581,
      "duration": 0.2197,
      "velocity": 98,
      "chip": "ym2612"
    },
    {
      "channel": 2,
      "note": 71,
      "start": 34.1588,
      "duration": 0.2186,
      "velocity": 98,
      "chip": "ym2612"
    },
    {
      "channel": 4,
      "note": 79,
      "start": 34.1591,
      "duration": 0.0898,
      "velocity": 87,
      "chip": "ym2612"
    },
    {
      "channel": 1,
      "note": 71,
      "start": 34.3784,
      "duration": 0.2197,
      "velocity": 98,
      "chip": "ym2612"
    },
    {
      "channel": 2,
      "note": 74,
      "start": 34.3791,
      "duration": 0.2186,
      "velocity": 98,
      "chip": "ym2612"
    },
    {
      "channel": 1,
      "note": 65,
      "start": 34.5987,
      "duration": 0.2197,
      "velocity": 98,
      "chip": "ym2612"
    },
    {
      "channel": 2,
      "note": 68,
      "start": 34.5994,
      "duration": 0.2186,
      "velocity": 98,
      "chip": "ym2612"
    },
    {
      "channel": 4,
      "note": 79,
      "start": 34.5997,
      "duration": 0.0899,
      "velocity": 87,
      "chip": "ym2612"
    },
    {
      "channel": 1,
      "note": 68,
      "start": 34.819,
      "duration": 0.2197,
      "velocity": 98,
      "chip": "ym2612"
    },
    {
      "channel": 2,
      "note": 71,
      "start": 34.8197,
      "duration": 0.2187,
      "velocity": 98,
      "chip": "ym2612"
    },
    {
      "channel": 3,
      "note": 45,
      "start": 34.82,
      "duration": 0.2,
      "velocity": 118,
      "chip": "ym2612"
    },
    {
      "channel": 4,
      "note": 79,
      "start": 34.8203,
      "duration": 0.0897,
      "velocity": 87,
      "chip": "ym2612"
    },
    {
      "channel": 1,
      "note": 71,
      "start": 35.0393,
      "duration": 0.2197,
      "velocity": 98,
      "chip": "ym2612"
    },
    {
      "channel": 2,
      "note": 74,
      "start": 35.04,
      "duration": 0.2187,
      "velocity": 98,
      "chip": "ym2612"
    },
    {
      "channel": 4,
      "note": 79,
      "start": 35.0403,
      "duration": 0.0899,
      "velocity": 87,
      "chip": "ym2612"
    },
    {
      "channel": 1,
      "note": 74,
      "start": 35.2596,
      "duration": 0.2197,
      "velocity": 98,
      "chip": "ym2612"
    },
    {
      "channel": 2,
      "note": 77,
      "start": 35.2603,
      "duration": 0.2186,
      "velocity": 98,
      "chip": "ym2612"
    },
    {
      "channel": 4,
      "note": 79,
      "start": 35.2606,
      "duration": 0.0898,
      "velocity": 87,
      "chip": "ym2612"
    },
    {
      "channel": 0,
      "note": 49,
      "start": 35.261,
      "duration": 1.0074,
      "velocity": 99,
      "chip": "ym2612"
    },
    {
      "channel": 1,
      "note": 68,
      "start": 35.4799,
      "duration": 0.2197,
      "velocity": 98,
      "chip": "ym2612"
    },
    {
      "channel": 2,
      "note": 71,
      "start": 35.4805,
      "duration": 0.2187,
      "velocity": 98,
      "chip": "ym2612"
    },
    {
      "channel": 4,
      "note": 79,
      "start": 35.4809,
      "duration": 0.0899,
      "velocity": 87,
      "chip": "ym2612"
    },
    {
      "channel": 1,
      "note": 71,
      "start": 35.7002,
      "duration": 0.2196,
      "velocity": 98,
      "chip": "ym2612"
    },
    {
      "channel": 2,
      "note": 74,
      "start": 35.7008,
      "duration": 0.2187,
      "velocity": 98,
      "chip": "ym2612"
    },
    {
      "channel": 1,
      "note": 74,
      "start": 35.9204,
      "duration": 0.2197,
      "velocity": 98,
      "chip": "ym2612"
    },
    {
      "channel": 2,
      "note": 77,
      "start": 35.9211,
      "duration": 0.2187,
      "velocity": 98,
      "chip": "ym2612"
    },
    {
      "channel": 4,
      "note": 79,
      "start": 35.9215,
      "duration": 0.0899,
      "velocity": 87,
      "chip": "ym2612"
    },
    {
      "channel": 1,
      "note": 77,
      "start": 36.1408,
      "duration": 0.2197,
      "velocity": 98,
      "chip": "ym2612"
    },
    {
      "channel": 2,
      "note": 80,
      "start": 36.1414,
      "duration": 0.2187,
      "velocity": 98,
      "chip": "ym2612"
    },
    {
      "channel": 4,
      "note": 79,
      "start": 36.1417,
      "duration": 0.0899,
      "velocity": 87,
      "chip": "ym2612"
    },
    {
      "channel": 1,
      "note": 71,
      "start": 36.3611,
      "duration": 0.2197,
      "velocity": 98,
      "chip": "ym2612"
    },
    {
      "channel": 2,
      "note": 74,
      "start": 36.3617,
      "duration": 0.2187,
      "velocity": 98,
      "chip": "ym2612"
    },
    {
      "channel": 4,
      "note": 79,
      "start": 36.362,
      "duration": 0.0899,
      "velocity": 87,
      "chip": "ym2612"
    },
    {
      "channel": 0,
      "note": 49,
      "start": 36.3624,
      "duration": 0.1446,
      "velocity": 99,
      "chip": "ym2612"
    },
    {
      "channel": 1,
      "note": 74,
      "start": 36.5814,
      "duration": 0.2197,
      "velocity": 98,
      "chip": "ym2612"
    },
    {
      "channel": 2,
      "note": 77,
      "start": 36.5821,
      "duration": 0.2186,
      "velocity": 98,
      "chip": "ym2612"
    },
    {
      "channel": 3,
      "note": 45,
      "start": 36.5824,
      "duration": 0.2,
      "velocity": 118,
      "chip": "ym2612"
    },
    {
      "channel": 4,
      "note": 79,
      "start": 36.5827,
      "duration": 0.0895,
      "velocity": 87,
      "chip": "ym2612"
    },
    {
      "channel": 1,
      "note": 77,
      "start": 36.8017,
      "duration": 0.2197,
      "velocity": 98,
      "chip": "ym2612"
    },
    {
      "channel": 2,
      "note": 80,
      "start": 36.8024,
      "duration": 0.2186,
      "velocity": 98,
      "chip": "ym2612"
    },
    {
      "channel": 4,
      "note": 79,
      "start": 36.8027,
      "duration": 0.0898,
      "velocity": 87,
      "chip": "ym2612"
    },
    {
      "channel": 0,
      "note": 49,
      "start": 36.8029,
      "duration": 1.8703,
      "velocity": 99,
      "chip": "ym2612"
    },
    {
      "channel": 1,
      "note": 80,
      "start": 37.022,
      "duration": 0.2197,
      "velocity": 98,
      "chip": "ym2612"
    },
    {
      "channel": 2,
      "note": 83,
      "start": 37.0227,
      "duration": 0.2186,
      "velocity": 98,
      "chip": "ym2612"
    },
    {
      "channel": 4,
      "note": 79,
      "start": 37.023,
      "duration": 0.0898,
      "velocity": 87,
      "chip": "ym2612"
    },
    {
      "channel": 1,
      "note": 74,
      "start": 37.2423,
      "duration": 0.2196,
      "velocity": 98,
      "chip": "ym2612"
    },
    {
      "channel": 2,
      "note": 77,
      "start": 37.243,
      "duration": 0.2186,
      "velocity": 98,
      "chip": "ym2612"
    },
    {
      "channel": 4,
      "note": 79,
      "start": 37.2435,
      "duration": 0.0897,
      "velocity": 87,
      "chip": "ym2612"
    },
    {
      "channel": 1,
      "note": 77,
      "start": 37.4626,
      "duration": 0.2196,
      "velocity": 98,
      "chip": "ym2612"
    },
    {
      "channel": 2,
      "note": 80,
      "start": 37.4632,
      "duration": 0.2187,
      "velocity": 98,
      "chip": "ym2612"
    },
    {
      "channel": 1,
      "note": 80,
      "start": 37.6828,
      "duration": 0.2197,
      "velocity": 98,
      "chip": "ym2612"
    },
    {
      "channel": 2,
      "note": 83,
      "start": 37.6835,
      "duration": 0.2187,
      "velocity": 98,
      "chip": "ym2612"
    },
    {
      "channel": 4,
      "note": 79,
      "start": 37.6839,
      "duration": 0.0899,
      "velocity": 87,
      "chip": "ym2612"
    },
    {
      "channel": 1,
      "note": 83,
      "start": 37.9032,
      "duration": 0.2197,
      "velocity": 98,
      "chip": "ym2612"
    },
    {
      "channel": 2,
      "note": 86,
      "start": 37.9038,
      "duration": 0.2187,
      "velocity": 98,
      "chip": "ym2612"
    },
    {
      "channel": 1,
      "note": 77,
      "start": 38.1235,
      "duration": 0.2197,
      "velocity": 98,
      "chip": "ym2612"
    },
    {
      "channel": 2,
      "note": 80,
      "start": 38.1241,
      "duration": 0.2187,
      "velocity": 98,
      "chip": "ym2612"
    },
    {
      "channel": 4,
      "note": 79,
      "start": 38.1244,
      "duration": 0.0899,
      "velocity": 87,
      "chip": "ym2612"
    },
    {
      "channel": 1,
      "note": 80,
      "start": 38.3439,
      "duration": 0.2196,
      "velocity": 98,
      "chip": "ym2612"
    },
    {
      "channel": 2,
      "note": 83,
      "start": 38.3446,
      "duration": 0.2186,
      "velocity": 98,
      "chip": "ym2612"
    },
    {
      "channel": 3,
      "note": 45,
      "start": 38.3449,
      "duration": 0.1999,
      "velocity": 118,
      "chip": "ym2612"
    },
    {
      "channel": 4,
      "note": 79,
      "start": 38.3452,
      "duration": 0.0894,
      "velocity": 87,
      "chip": "ym2612"
    },
    {
      "channel": 1,
      "note": 83,
      "start": 38.5641,
      "duration": 0.2197,
      "velocity": 98,
      "chip": "ym2612"
    },
    {
      "channel": 2,
      "note": 86,
      "start": 38.5647,
      "duration": 0.2187,
      "velocity": 98,
      "chip": "ym2612"
    },
    {
      "channel": 4,
      "note": 79,
      "start": 38.5651,
      "duration": 0.0898,
      "velocity": 87,
      "chip": "ym2612"
    },
    {
      "channel": 1,
      "note": 86,
      "start": 38.7844,
      "duration": 0.2197,
      "velocity": 98,
      "chip": "ym2612"
    },
    {
      "channel": 2,
      "note": 89,
      "start": 38.7851,
      "duration": 0.2186,
      "velocity": 98,
      "chip": "ym2612"
    },
    {
      "channel": 4,
      "note": 79,
      "start": 38.7854,
      "duration": 0.0898,
      "velocity": 87,
      "chip": "ym2612"
    },
    {
      "channel": 0,
      "note": 49,
      "start": 38.7856,
      "duration": 1.1913,
      "velocity": 99,
      "chip": "ym2612"
    },
    {
      "channel": 1,
      "note": 80,
      "start": 39.0047,
      "duration": 0.2197,
      "velocity": 98,
      "chip": "ym2612"
    },
    {
      "channel": 2,
      "note": 83,
      "start": 39.0054,
      "duration": 0.2186,
      "velocity": 98,
      "chip": "ym2612"
    },
    {
      "channel": 4,
      "note": 79,
      "start": 39.0057,
      "duration": 0.0899,
      "velocity": 87,
      "chip": "ym2612"
    },
    {
      "channel": 1,
      "note": 83,
      "start": 39.225,
      "duration": 0.2196,
      "velocity": 98,
      "chip": "ym2612"
    },
    {
      "channel": 2,
      "note": 86,
      "start": 39.2256,
      "duration": 0.2186,
      "velocity": 98,
      "chip": "ym2612"
    },
    {
      "channel": 4,
      "note": 79,
      "start": 39.226,
      "duration": 0.0898,
      "velocity": 87,
      "chip": "ym2612"
    },
    {
      "channel": 1,
      "note": 86,
      "start": 39.4452,
      "duration": 0.2197,
      "velocity": 98,
      "chip": "ym2612"
    },
    {
      "channel": 2,
      "note": 89,
      "start": 39.4459,
      "duration": 0.2186,
      "velocity": 98,
      "chip": "ym2612"
    },
    {
      "channel": 4,
      "note": 79,
      "start": 39.4463,
      "duration": 0.0899,
      "velocity": 87,
      "chip": "ym2612"
    },
    {
      "channel": 1,
      "note": 89,
      "start": 39.6655,
      "duration": 0.8622,
      "velocity": 98,
      "chip": "ym2612"
    },
    {
      "channel": 2,
      "note": 92,
      "start": 39.6662,
      "duration": 0.8612,
      "velocity": 98,
      "chip": "ym2612"
    },
    {
      "channel": 4,
      "note": 79,
      "start": 39.6666,
      "duration": 0.0899,
      "velocity": 87,
      "chip": "ym2612"
    },
    {
      "channel": 4,
      "note": 79,
      "start": 39.8849,
      "duration": 0.0918,
      "velocity": 87,
      "chip": "ym2612"
    },
    {
      "channel": 3,
      "note": 45,
      "start": 40.1052,
      "duration": 0.2019,
      "velocity": 118,
      "chip": "ym2612"
    },
    {
      "channel": 4,
      "note": 79,
      "start": 40.1056,
      "duration": 0.0915,
      "velocity": 87,
      "chip": "ym2612"
    },
    {
      "channel": 4,
      "note": 79,
      "start": 40.3255,
      "duration": 0.0918,
      "velocity": 87,
      "chip": "ym2612"
    },
    {
      "channel": 1,
      "note": 74,
      "start": 40.5461,
      "duration": 0.2301,
      "velocity": 98,
      "chip": "ym2612"
    },
    {
      "channel": 2,
      "note": 83,
      "start": 40.5561,
      "duration": 0.2198,
      "velocity": 116,
      "chip": "ym2612"
    },
    {
      "channel": 4,
      "note": 78,
      "start": 40.5662,
      "duration": 0.2094,
      "velocity": 116,
      "chip": "ym2612"
    },
    {
      "channel": 0,
      "note": 54,
      "start": 40.5669,
      "duration": 0.2084,
      "velocity": 99,
      "chip": "ym2612"
    },
    {
      "channel": 1,
      "note": 78,
      "start": 40.7769,
      "duration": 0.2193,
      "velocity": 98,
      "chip": "ym2612"
    },
    {
      "channel": 2,
      "note": 86,
      "start": 40.7776,
      "duration": 0.2183,
      "velocity": 116,
      "chip": "ym2612"
    },
    {
      "channel": 4,
      "note": 81,
      "start": 40.7783,
      "duration": 0.2173,
      "velocity": 116,
      "chip": "ym2612"
    },
    {
      "channel": 1,
      "note": 76,
      "start": 40.9968,
      "duration": 0.2196,
      "velocity": 98,
      "chip": "ym2612"
    },
    {
      "channel": 2,
      "note": 85,
      "start": 40.9975,
      "duration": 0.2187,
      "velocity": 116,
      "chip": "ym2612"
    },
    {
      "channel": 4,
      "note": 80,
      "start": 40.9982,
      "duration": 0.2177,
      "velocity": 116,
      "chip": "ym2612"
    },
    {
      "channel": 1,
      "note": 74,
      "start": 41.2171,
      "duration": 0.2196,
      "velocity": 98,
      "chip": "ym2612"
    },
    {
      "channel": 2,
      "note": 83,
      "start": 41.2178,
      "duration": 0.2187,
      "velocity": 116,
      "chip": "ym2612"
    },
    {
      "channel": 4,
      "note": 78,
      "start": 41.2185,
      "duration": 0.2177,
      "velocity": 116,
      "chip": "ym2612"
    },
    {
      "channel": 0,
      "note": 54,
      "start": 41.2188,
      "duration": 0.1256,
      "velocity": 99,
      "chip": "ym2612"
    },
    {
      "channel": 1,
      "note": 79,
      "start": 41.4374,
      "duration": 0.2197,
      "velocity": 98,
      "chip": "ym2612"
    },
    {
      "channel": 2,
      "note": 88,
      "start": 41.4381,
      "duration": 0.2187,
      "velocity": 116,
      "chip": "ym2612"
    },
    {
      "channel": 4,
      "note": 83,
      "start": 41.4388,
      "duration": 0.2177,
      "velocity": 116,
      "chip": "ym2612"
    },
    {
      "channel": 1,
      "note": 78,
      "start": 41.6577,
      "duration": 0.2197,
      "velocity": 98,
      "chip": "ym2612"
    },
    {
      "channel": 2,
      "note": 86,
      "start": 41.6584,
      "duration": 0.2187,
      "velocity": 116,
      "chip": "ym2612"
    },
    {
      "channel": 4,
      "note": 81,
      "start": 41.6591,
      "duration": 0.2177,
      "velocity": 116,
      "chip": "ym2612"
    },
    {
      "channel": 0,
      "note": 54,
      "start": 41.6594,
      "duration": 0.144,
      "velocity": 99,
      "chip": "ym2612"
    },
    {
      "channel": 1,
      "note": 76,
      "start": 41.8781,
      "duration": 0.2197,
      "velocity": 98,
      "chip": "ym2612"
    },
    {
      "channel": 2,
      "note": 85,
      "start": 41.8787,
      "duration": 0.2187,
      "velocity": 116,
      "chip": "ym2612"
    },
    {
      "channel": 3,
      "note": 45,
      "start": 41.879,
      "duration": 0.1997,
      "velocity": 118,
      "chip": "ym2612"
    },
    {
      "channel": 4,
      "note": 80,
      "start": 41.8797,
      "duration": 0.2174,
      "velocity": 116,
      "chip": "ym2612"
    },
    {
      "channel": 0,
      "note": 66,
      "start": 41.8804,
      "duration": 0.1066,
      "velocity": 99,
      "chip": "ym2612"
    },
    {
      "channel": 1,
      "note": 74,
      "start": 42.0984,
      "duration": 0.219,
      "velocity": 98,
      "chip": "ym2612"
    },
    {
      "channel": 2,
      "note": 83,
      "start": 42.0991,
      "duration": 0.4389,
      "velocity": 116,
      "chip": "ym2612"
    },
    {
      "channel": 4,
      "note": 78,
      "start": 42.0997,
      "duration": 0.438,
      "velocity": 116,
      "chip": "ym2612"
    },
    {
      "channel": 0,
      "note": 66,
      "start": 42.1,
      "duration": 0.1072,
      "velocity": 99,
      "chip": "ym2612"
    },
    {
      "channel": 0,
      "note": 54,
      "start": 42.318,
      "duration": 0.2013,
      "velocity": 99,
      "chip": "ym2612"
    },
    {
      "channel": 1,
      "note": 78,
      "start": 42.5386,
      "duration": 0.22,
      "velocity": 98,
      "chip": "ym2612"
    },
    {
      "channel": 2,
      "note": 86,
      "start": 42.5393,
      "duration": 0.219,
      "velocity": 116,
      "chip": "ym2612"
    },
    {
      "channel": 4,
      "note": 81,
      "start": 42.54,
      "duration": 0.218,
      "velocity": 116,
      "chip": "ym2612"
    },
    {
      "channel": 1,
      "note": 76,
      "start": 42.7593,
      "duration": 0.2197,
      "velocity": 98,
      "chip": "ym2612"
    },
    {
      "channel": 2,
      "note": 85,
      "start": 42.76,
      "duration": 0.2186,
      "velocity": 116,
      "chip": "ym2612"
    },
    {
      "channel": 4,
      "note": 80,
      "start": 42.7607,
      "duration": 0.2176,
      "velocity": 116,
      "chip": "ym2612"
    },
    {
      "channel": 1,
      "note": 74,
      "start": 42.9795,
      "duration": 0.2196,
      "velocity": 98,
      "chip": "ym2612"
    },
    {
      "channel": 2,
      "note": 83,
      "start": 42.9802,
      "duration": 0.2187,
      "velocity": 116,
      "chip": "ym2612"
    },
    {
      "channel": 4,
      "note": 78,
      "start": 42.9809,
      "duration": 0.2177,
      "velocity": 116,
      "chip": "ym2612"
    },
    {
      "channel": 0,
      "note": 54,
      "start": 42.9812,
      "duration": 0.1623,
      "velocity": 99,
      "chip": "ym2612"
    },
    {
      "channel": 1,
      "note": 79,
      "start": 43.1998,
      "duration": 0.2197,
      "velocity": 98,
      "chip": "ym2612"
    },
    {
      "channel": 2,
      "note": 88,
      "start": 43.2005,
      "duration": 0.2187,
      "velocity": 116,
      "chip": "ym2612"
    },
    {
      "channel": 4,
      "note": 83,
      "start": 43.2012,
      "duration": 0.2177,
      "velocity": 116,
      "chip": "ym2612"
    },
    {
      "channel": 1,
      "note": 78,
      "start": 43.4201,
      "duration": 0.2197,
      "velocity": 98,
      "chip": "ym2612"
    },
    {
      "channel": 2,
      "note": 86,
      "start": 43.4208,
      "duration": 0.2187,
      "velocity": 116,
      "chip": "ym2612"
    },
    {
      "channel": 4,
      "note": 81,
      "start": 43.4215,
      "duration": 0.2177,
      "velocity": 116,
      "chip": "ym2612"
    },
    {
      "channel": 0,
      "note": 54,
      "start": 43.4218,
      "duration": 0.144,
      "velocity": 99,
      "chip": "ym2612"
    },
    {
      "channel": 1,
      "note": 76,
      "start": 43.6404,
      "duration": 0.2198,
      "velocity": 98,
      "chip": "ym2612"
    },
    {
      "channel": 2,
      "note": 85,
      "start": 43.6411,
      "duration": 0.2188,
      "velocity": 116,
      "chip": "ym2612"
    },
    {
      "channel": 3,
      "note": 45,
      "start": 43.6414,
      "duration": 0.1997,
      "velocity": 118,
      "chip": "ym2612"
    },
    {
      "channel": 4,
      "note": 80,
      "start": 43.6421,
      "duration": 0.2174,
      "velocity": 116,
      "chip": "ym2612"
    },
    {
      "channel": 0,
      "note": 66,
      "start": 43.6427,
      "duration": 0.1066,
      "velocity": 99,
      "chip": "ym2612"
    },
    {
      "channel": 1,
      "note": 74,
      "start": 43.8608,
      "duration": 0.2189,
      "velocity": 98,
      "chip": "ym2612"
    },
    {
      "channel": 2,
      "note": 83,
      "start": 43.8615,
      "duration": 0.4389,
      "velocity": 116,
      "chip": "ym2612"
    },
    {
      "channel": 4,
      "note": 78,
      "start": 43.8622,
      "duration": 0.4379,
      "velocity": 116,
      "chip": "ym2612"
    },
    {
      "channel": 0,
      "note": 66,
      "start": 43.8625,
      "duration": 0.1071,
      "velocity": 99,
      "chip": "ym2612"
    },
    {
      "channel": 0,
      "note": 54,
      "start": 44.0804,
      "duration": 0.1829,
      "velocity": 99,
      "chip": "ym2612"
    },
    {
      "channel": 1,
      "note": 78,
      "start": 44.301,
      "duration": 0.22,
      "velocity": 98,
      "chip": "ym2612"
    },
    {
      "channel": 2,
      "note": 86,
      "start": 44.3017,
      "duration": 0.219,
      "velocity": 116,
      "chip": "ym2612"
    },
    {
      "channel": 4,
      "note": 81,
      "start": 44.3024,
      "duration": 0.218,
      "velocity": 116,
      "chip": "ym2612"
    },
    {
      "channel": 1,
      "note": 76,
      "start": 44.5217,
      "duration": 0.2197,
      "velocity": 98,
      "chip": "ym2612"
    },
    {
      "channel": 2,
      "note": 85,
      "start": 44.5224,
      "duration": 0.2186,
      "velocity": 116,
      "chip": "ym2612"
    },
    {
      "channel": 4,
      "note": 80,
      "start": 44.523,
      "duration": 0.2177,
      "velocity": 116,
      "chip": "ym2612"
    },
    {
      "channel": 1,
      "note": 74,
      "start": 44.742,
      "duration": 0.2196,
      "velocity": 98,
      "chip": "ym2612"
    },
    {
      "channel": 2,
      "note": 83,
      "start": 44.7426,
      "duration": 0.2186,
      "velocity": 116,
      "chip": "ym2612"
    },
    {
      "channel": 4,
      "note": 78,
      "start": 44.7435,
      "duration": 0.2175,
      "velocity": 116,
      "chip": "ym2612"
    },
    {
      "channel": 0,
      "note": 54,
      "start": 44.7438,
      "duration": 0.1621,
      "velocity": 99,
      "chip": "ym2612"
    },
    {
      "channel": 1,
      "note": 79,
      "start": 44.9622,
      "duration": 0.2196,
      "velocity": 98,
      "chip": "ym2612"
    },
    {
      "channel": 2,
      "note": 88,
      "start": 44.9629,
      "duration": 0.2186,
      "velocity": 116,
      "chip": "ym2612"
    },
    {
      "channel": 4,
      "note": 83,
      "start": 44.9636,
      "duration": 0.2177,
      "velocity": 116,
      "chip": "ym2612"
    },
    {
      "channel": 1,
      "note": 78,
      "start": 45.1825,
      "duration": 0.2197,
      "velocity": 98,
      "chip": "ym2612"
    },
    {
      "channel": 2,
      "note": 86,
      "start": 45.1832,
      "duration": 0.2187,
      "velocity": 116,
      "chip": "ym2612"
    },
    {
      "channel": 4,
      "note": 81,
      "start": 45.1839,
      "duration": 0.2177,
      "velocity": 116,
      "chip": "ym2612"
    },
    {
      "channel": 0,
      "note": 54,
      "start": 45.1842,
      "duration": 0.1623,
      "velocity": 99,
      "chip": "ym2612"
    },
    {
      "channel": 1,
      "note": 76,
      "start": 45.4028,
      "duration": 0.2197,
      "velocity": 98,
      "chip": "ym2612"
    },
    {
      "channel": 2,
      "note": 85,
      "start": 45.4035,
      "duration": 0.2187,
      "velocity": 116,
      "chip": "ym2612"
    },
    {
      "channel": 3,
      "note": 45,
      "start": 45.4038,
      "duration": 0.1997,
      "velocity": 118,
      "chip": "ym2612"
    },
    {
      "channel": 4,
      "note": 80,
      "start": 45.4045,
      "duration": 0.2174,
      "velocity": 116,
      "chip": "ym2612"
    },
    {
      "channel": 0,
      "note": 66,
      "start": 45.4051,
      "duration": 0.1066,
      "velocity": 99,
      "chip": "ym2612"
    },
    {
      "channel": 1,
      "note": 74,
      "start": 45.6231,
      "duration": 0.4393,
      "velocity": 98,
      "chip": "ym2612"
    },
    {
      "channel": 2,
      "note": 83,
      "start": 45.6238,
      "duration": 0.4206,
      "velocity": 116,
      "chip": "ym2612"
    },
    {
      "channel": 4,
      "note": 78,
      "start": 45.6245,
      "duration": 0.4196,
      "velocity": 116,
      "chip": "ym2612"
    },
    {
      "channel": 0,
      "note": 66,
      "start": 45.6248,
      "duration": 0.0889,
      "velocity": 99,
      "chip": "ym2612"
    },
    {
      "channel": 0,
      "note": 54,
      "start": 45.8424,
      "duration": 0.1466,
      "velocity": 99,
      "chip": "ym2612"
    },
    {
      "channel": 1,
      "note": 79,
      "start": 46.0631,
      "duration": 0.2754,
      "velocity": 98,
      "chip": "ym2612"
    },
    {
      "channel": 2,
      "note": 90,
      "start": 46.0638,
      "duration": 0.2744,
      "velocity": 116,
      "chip": "ym2612"
    },
    {
      "channel": 4,
      "note": 83,
      "start": 46.0645,
      "duration": 0.2734,
      "velocity": 116,
      "chip": "ym2612"
    },
    {
      "channel": 1,
      "note": 79,
      "start": 46.5031,
      "duration": 1.0831,
      "velocity": 98,
      "chip": "ym2612"
    },
    {
      "channel": 2,
      "note": 90,
      "start": 46.5034,
      "duration": 0.8078,
      "velocity": 116,
      "chip": "ym2612"
    },
    {
      "channel": 4,
      "note": 83,
      "start": 46.5037,
      "duration": 0.8071,
      "velocity": 116,
      "chip": "ym2612"
    },
    {
      "channel": 0,
      "note": 54,
      "start": 46.504,
      "duration": 0.201,
      "velocity": 99,
      "chip": "ym2612"
    },
    {
      "channel": 0,
      "note": 54,
      "start": 46.9437,
      "duration": 0.1468,
      "velocity": 99,
      "chip": "ym2612"
    },
    {
      "channel": 3,
      "note": 45,
      "start": 47.1639,
      "duration": 0.202,
      "velocity": 118,
      "chip": "ym2612"
    },
    {
      "channel": 0,
      "note": 66,
      "start": 47.1646,
      "duration": 0.1095,
      "velocity": 99,
      "chip": "ym2612"
    },
    {
      "channel": 0,
      "note": 66,
      "start": 47.3842,
      "duration": 0.1101,
      "velocity": 99,
      "chip": "ym2612"
    },
    {
      "channel": 1,
      "note": 74,
      "start": 47.6049,
      "duration": 0.2209,
      "velocity": 98,
      "chip": "ym2612"
    },
    {
      "channel": 2,
      "note": 83,
      "start": 47.6056,
      "duration": 0.2199,
      "velocity": 116,
      "chip": "ym2612"
    },
    {
      "channel": 4,
      "note": 78,
      "start": 47.6063,
      "duration": 0.2189,
      "velocity": 116,
      "chip": "ym2612"
    },
    {
      "channel": 0,
      "note": 54,
      "start": 47.6068,
      "duration": 0.218,
      "velocity": 99,
      "chip": "ym2612"
    },
    {
      "channel": 1,
      "note": 78,
      "start": 47.8266,
      "duration": 0.2191,
      "velocity": 98,
      "chip": "ym2612"
    },
    {
      "channel": 2,
      "note": 86,
      "start": 47.8273,
      "duration": 0.2182,
      "velocity": 116,
      "chip": "ym2612"
    },
    {
      "channel": 4,
      "note": 81,
      "start": 47.8279,
      "duration": 0.2173,
      "velocity": 116,
      "chip": "ym2612"
    },
    {
      "channel": 5,
      "note": 67,
      "start": 47.8342,
      "duration": 0.0824,
      "velocity": 87,
      "chip": "ym2612"
    },
    {
      "channel": 1,
      "note": 76,
      "start": 48.0464,
      "duration": 0.2197,
      "velocity": 98,
      "chip": "ym2612"
    },
    {
      "channel": 2,
      "note": 85,
      "start": 48.0471,
      "duration": 0.2187,
      "velocity": 116,
      "chip": "ym2612"
    },
    {
      "channel": 4,
      "note": 80,
      "start": 48.0478,
      "duration": 0.2177,
      "velocity": 116,
      "chip": "ym2612"
    },
    {
      "channel": 5,
      "note": 67,
      "start": 48.0481,
      "duration": 0.0889,
      "velocity": 87,
      "chip": "ym2612"
    },
    {
      "channel": 1,
      "note": 74,
      "start": 48.2667,
      "duration": 0.2197,
      "velocity": 98,
      "chip": "ym2612"
    },
    {
      "channel": 2,
      "note": 83,
      "start": 48.2674,
      "duration": 0.2187,
      "velocity": 116,
      "chip": "ym2612"
    },
    {
      "channel": 4,
      "note": 78,
      "start": 48.2681,
      "duration": 0.2177,
      "velocity": 116,
      "chip": "ym2612"
    },
    {
      "channel": 5,
      "note": 67,
      "start": 48.2684,
      "duration": 0.0889,
      "velocity": 87,
      "chip": "ym2612"
    },
    {
      "channel": 0,
      "note": 54,
      "start": 48.2687,
      "duration": 0.162,
      "velocity": 99,
      "chip": "ym2612"
    },
    {
      "channel": 1,
      "note": 79,
      "start": 48.487,
      "duration": 0.2197,
      "velocity": 98,
      "chip": "ym2612"
    },
    {
      "channel": 2,
      "note": 88,
      "start": 48.4877,
      "duration": 0.2187,
      "velocity": 116,
      "chip": "ym2612"
    },
    {
      "channel": 4,
      "note": 83,
      "start": 48.4884,
      "duration": 0.2177,
      "velocity": 116,
      "chip": "ym2612"
    },
    {
      "channel": 5,
      "note": 67,
      "start": 48.4887,
      "duration": 0.0889,
      "velocity": 87,
      "chip": "ym2612"
    },
    {
      "channel": 1,
      "note": 78,
      "start": 48.7073,
      "duration": 0.2198,
      "velocity": 98,
      "chip": "ym2612"
    },
    {
      "channel": 2,
      "note": 86,
      "start": 48.708,
      "duration": 0.2188,
      "velocity": 116,
      "chip": "ym2612"
    },
    {
      "channel": 4,
      "note": 81,
      "start": 48.7087,
      "duration": 0.2178,
      "velocity": 116,
      "chip": "ym2612"
    },
    {
      "channel": 0,
      "note": 54,
      "start": 48.7089,
      "duration": 0.1623,
      "velocity": 99,
      "chip": "ym2612"
    },
    {
      "channel": 1,
      "note": 76,
      "start": 48.9277,
      "duration": 0.2196,
      "velocity": 98,
      "chip": "ym2612"
    },
    {
      "channel": 2,
      "note": 85,
      "start": 48.9284,
      "duration": 0.2186,
      "velocity": 116,
      "chip": "ym2612"
    },
    {
      "channel": 3,
      "note": 45,
      "start": 48.9287,
      "duration": 0.1996,
      "velocity": 118,
      "chip": "ym2612"
    },
    {
      "channel": 4,
      "note": 80,
      "start": 48.9294,
      "duration": 0.2172,
      "velocity": 116,
      "chip": "ym2612"
    },
    {
      "channel": 5,
      "note": 67,
      "start": 48.9297,
      "duration": 0.0884,
      "velocity": 87,
      "chip": "ym2612"
    },
    {
      "channel": 0,
      "note": 66,
      "start": 48.9304,
      "duration": 0.1245,
      "velocity": 99,
      "chip": "ym2612"
    },
    {
      "channel": 1,
      "note": 74,
      "start": 49.1479,
      "duration": 0.219,
      "velocity": 98,
      "chip": "ym2612"
    },
    {
      "channel": 2,
      "note": 83,
      "start": 49.1485,
      "duration": 0.3836,
      "velocity": 116,
      "chip": "ym2612"
    },
    {
      "channel": 4,
      "note": 78,
      "start": 49.1493,
      "duration": 0.4013,
      "velocity": 116,
      "chip": "ym2612"
    },
    {
      "channel": 5,
      "note": 67,
      "start": 49.1496,
      "duration": 0.0889,
      "velocity": 87,
      "chip": "ym2612"
    },
    {
      "channel": 0,
      "note": 66,
      "start": 49.1499,
      "duration": 0.1069,
      "velocity": 99,
      "chip": "ym2612"
    },
    {
      "channel": 0,
      "note": 54,
      "start": 49.3676,
      "duration": 0.238,
      "velocity": 99,
      "chip": "ym2612"
    },
    {
      "channel": 1,
      "note": 78,
      "start": 49.5876,
      "duration": 0.2206,
      "velocity": 98,
      "chip": "ym2612"
    },
    {
      "channel": 2,
      "note": 86,
      "start": 49.5882,
      "duration": 0.2197,
      "velocity": 116,
      "chip": "ym2612"
    },
    {
      "channel": 4,
      "note": 81,
      "start": 49.5889,
      "duration": 0.2186,
      "velocity": 116,
      "chip": "ym2612"
    },
    {
      "channel": 5,
      "note": 67,
      "start": 49.5892,
      "duration": 0.0899,
      "velocity": 87,
      "chip": "ym2612"
    },
    {
      "channel": 1,
      "note": 76,
      "start": 49.8088,
      "duration": 0.2197,
      "velocity": 98,
      "chip": "ym2612"
    },
    {
      "channel": 2,
      "note": 85,
      "start": 49.8095,
      "duration": 0.2186,
      "velocity": 116,
      "chip": "ym2612"
    },
    {
      "channel": 4,
      "note": 80,
      "start": 49.8103,
      "duration": 0.2176,
      "velocity": 116,
      "chip": "ym2612"
    },
    {
      "channel": 5,
      "note": 67,
      "start": 49.8106,
      "duration": 0.0888,
      "velocity": 87,
      "chip": "ym2612"
    },
    {
      "channel": 1,
      "note": 74,
      "start": 50.0291,
      "duration": 0.2197,
      "velocity": 98,
      "chip": "ym2612"
    },
    {
      "channel": 2,
      "note": 83,
      "start": 50.0298,
      "duration": 0.2187,
      "velocity": 116,
      "chip": "ym2612"
    },
    {
      "channel": 4,
      "note": 78,
      "start": 50.0305,
      "duration": 0.2177,
      "velocity": 116,
      "chip": "ym2612"
    },
    {
      "channel": 5,
      "note": 67,
      "start": 50.0308,
      "duration": 0.0889,
      "velocity": 87,
      "chip": "ym2612"
    },
    {
      "channel": 0,
      "note": 54,
      "start": 50.0311,
      "duration": 0.1986,
      "velocity": 99,
      "chip": "ym2612"
    },
    {
      "channel": 1,
      "note": 79,
      "start": 50.2494,
      "duration": 0.2197,
      "velocity": 98,
      "chip": "ym2612"
    },
    {
      "channel": 2,
      "note": 88,
      "start": 50.2501,
      "duration": 0.2187,
      "velocity": 116,
      "chip": "ym2612"
    },
    {
      "channel": 4,
      "note": 83,
      "start": 50.2508,
      "duration": 0.2177,
      "velocity": 116,
      "chip": "ym2612"
    },
    {
      "channel": 5,
      "note": 67,
      "start": 50.2511,
      "duration": 0.0889,
      "velocity": 87,
      "chip": "ym2612"
    },
    {
      "channel": 1,
      "note": 78,
      "start": 50.4697,
      "duration": 0.2197,
      "velocity": 98,
      "chip": "ym2612"
    },
    {
      "channel": 2,
      "note": 86,
      "start": 50.4704,
      "duration": 0.2187,
      "velocity": 116,
      "chip": "ym2612"
    },
    {
      "channel": 4,
      "note": 81,
      "start": 50.4711,
      "duration": 0.2177,
      "velocity": 116,
      "chip": "ym2612"
    },
    {
      "channel": 5,
      "note": 67,
      "start": 50.4714,
      "duration": 0.0889,
      "velocity": 87,
      "chip": "ym2612"
    },
    {
      "channel": 0,
      "note": 54,
      "start": 50.4717,
      "duration": 0.1619,
      "velocity": 99,
      "chip": "ym2612"
    },
    {
      "channel": 1,
      "note": 76,
      "start": 50.69,
      "duration": 0.2198,
      "velocity": 98,
      "chip": "ym2612"
    },
    {
      "channel": 2,
      "note": 85,
      "start": 50.6907,
      "duration": 0.2187,
      "velocity": 116,
      "chip": "ym2612"
    },
    {
      "channel": 3,
      "note": 45,
      "start": 50.691,
      "duration": 0.1997,
      "velocity": 118,
      "chip": "ym2612"
    },
    {
      "channel": 4,
      "note": 80,
      "start": 50.6917,
      "duration": 0.2174,
      "velocity": 116,
      "chip": "ym2612"
    },
    {
      "channel": 5,
      "note": 67,
      "start": 50.692,
      "duration": 0.0885,
      "velocity": 87,
      "chip": "ym2612"
    },
    {
      "channel": 0,
      "note": 66,
      "start": 50.6926,
      "duration": 0.1246,
      "velocity": 99,
      "chip": "ym2612"
    },
    {
      "channel": 1,
      "note": 74,
      "start": 50.9105,
      "duration": 0.2188,
      "velocity": 98,
      "chip": "ym2612"
    },
    {
      "channel": 2,
      "note": 83,
      "start": 50.9112,
      "duration": 0.4205,
      "velocity": 116,
      "chip": "ym2612"
    },
    {
      "channel": 4,
      "note": 78,
      "start": 50.9119,
      "duration": 0.4195,
      "velocity": 116,
      "chip": "ym2612"
    },
    {
      "channel": 5,
      "note": 67,
      "start": 50.9122,
      "duration": 0.0887,
      "velocity": 87,
      "chip": "ym2612"
    },
    {
      "channel": 0,
      "note": 66,
      "start": 50.9125,
      "duration": 0.1251,
      "velocity": 99,
      "chip": "ym2612"
    },
    {
      "channel": 0,
      "note": 54,
      "start": 51.1299,
      "duration": 0.2564,
      "velocity": 99,
      "chip": "ym2612"
    },
    {
      "channel": 1,
      "note": 78,
      "start": 51.35,
      "duration": 0.2206,
      "velocity": 98,
      "chip": "ym2612"
    },
    {
      "channel": 2,
      "note": 86,
      "start": 51.3506,
      "duration": 0.2197,
      "velocity": 116,
      "chip": "ym2612"
    },
    {
      "channel": 4,
      "note": 81,
      "start": 51.3513,
      "duration": 0.2186,
      "velocity": 116,
      "chip": "ym2612"
    },
    {
      "channel": 5,
      "note": 67,
      "start": 51.3516,
      "duration": 0.0898,
      "velocity": 87,
      "chip": "ym2612"
    },
    {
      "channel": 1,
      "note": 76,
      "start": 51.5712,
      "duration": 0.2197,
      "velocity": 98,
      "chip": "ym2612"
    },
    {
      "channel": 2,
      "note": 85,
      "start": 51.5719,
      "duration": 0.2186,
      "velocity": 116,
      "chip": "ym2612"
    },
    {
      "channel": 4,
      "note": 80,
      "start": 51.5725,
      "duration": 0.2177,
      "velocity": 116,
      "chip": "ym2612"
    },
    {
      "channel": 5,
      "note": 67,
      "start": 51.5729,
      "duration": 0.0889,
      "velocity": 87,
      "chip": "ym2612"
    },
    {
      "channel": 1,
      "note": 74,
      "start": 51.7915,
      "duration": 0.2197,
      "velocity": 98,
      "chip": "ym2612"
    },
    {
      "channel": 2,
      "note": 83,
      "start": 51.7922,
      "duration": 0.2186,
      "velocity": 116,
      "chip": "ym2612"
    },
    {
      "channel": 4,
      "note": 78,
      "start": 51.7928,
      "duration": 0.2177,
      "velocity": 116,
      "chip": "ym2612"
    },
    {
      "channel": 5,
      "note": 67,
      "start": 51.7933,
      "duration": 0.0887,
      "velocity": 87,
      "chip": "ym2612"
    },
    {
      "channel": 0,
      "note": 54,
      "start": 51.7935,
      "duration": 0.1803,
      "velocity": 99,
      "chip": "ym2612"
    },
    {
      "channel": 1,
      "note": 79,
      "start": 52.0118,
      "duration": 0.2197,
      "velocity": 98,
      "chip": "ym2612"
    },
    {
      "channel": 2,
      "note": 88,
      "start": 52.0125,
      "duration": 0.2186,
      "velocity": 116,
      "chip": "ym2612"
    },
    {
      "channel": 4,
      "note": 83,
      "start": 52.0132,
      "duration": 0.2176,
      "velocity": 116,
      "chip": "ym2612"
    },
    {
      "channel": 5,
      "note": 67,
      "start": 52.0135,
      "duration": 0.0889,
      "velocity": 87,
      "chip": "ym2612"
    },
    {
      "channel": 1,
      "note": 78,
      "start": 52.2321,
      "duration": 0.2197,
      "velocity": 98,
      "chip": "ym2612"
    },
    {
      "channel": 2,
      "note": 86,
      "start": 52.2328,
      "duration": 0.2187,
      "velocity": 116,
      "chip": "ym2612"
    },
    {
      "channel": 4,
      "note": 81,
      "start": 52.2335,
      "duration": 0.2177,
      "velocity": 116,
      "chip": "ym2612"
    },
    {
      "channel": 0,
      "note": 54,
      "start": 52.2337,
      "duration": 0.1623,
      "velocity": 99,
      "chip": "ym2612"
    },
    {
      "channel": 1,
      "note": 76,
      "start": 52.4524,
      "duration": 0.2197,
      "velocity": 98,
      "chip": "ym2612"
    },
    {
      "channel": 2,
      "note": 85,
      "start": 52.4531,
      "duration": 0.2187,
      "velocity": 116,
      "chip": "ym2612"
    },
    {
      "channel": 3,
      "note": 45,
      "start": 52.4534,
      "duration": 0.1997,
      "velocity": 118,
      "chip": "ym2612"
    },
    {
      "channel": 4,
      "note": 80,
      "start": 52.4541,
      "duration": 0.2174,
      "velocity": 116,
      "chip": "ym2612"
    },
    {
      "channel": 5,
      "note": 67,
      "start": 52.4544,
      "duration": 0.0886,
      "velocity": 87,
      "chip": "ym2612"
    },
    {
      "channel": 0,
      "note": 66,
      "start": 52.4551,
      "duration": 0.1245,
      "velocity": 99,
      "chip": "ym2612"
    },
    {
      "channel": 1,
      "note": 74,
      "start": 52.6727,
      "duration": 0.4394,
      "velocity": 98,
      "chip": "ym2612"
    },
    {
      "channel": 2,
      "note": 83,
      "start": 52.6734,
      "duration": 0.3105,
      "velocity": 116,
      "chip": "ym2612"
    },
    {
      "channel": 4,
      "note": 78,
      "start": 52.6741,
      "duration": 0.3095,
      "velocity": 116,
      "chip": "ym2612"
    },
    {
      "channel": 5,
      "note": 67,
      "start": 52.6744,
      "duration": 0.0889,
      "velocity": 87,
      "chip": "ym2612"
    },
    {
      "channel": 0,
      "note": 66,
      "start": 52.6747,
      "duration": 0.1069,
      "velocity": 99,
      "chip": "ym2612"
    },
    {
      "channel": 0,
      "note": 54,
      "start": 52.892,
      "duration": 0.2384,
      "velocity": 99,
      "chip": "ym2612"
    },
    {
      "channel": 1,
      "note": 79,
      "start": 53.1127,
      "duration": 0.238,
      "velocity": 98,
      "chip": "ym2612"
    },
    {
      "channel": 2,
      "note": 88,
      "start": 53.1133,
      "duration": 0.201,
      "velocity": 116,
      "chip": "ym2612"
    },
    {
      "channel": 4,
      "note": 83,
      "start": 53.114,
      "duration": 0.2,
      "velocity": 116,
      "chip": "ym2612"
    },
    {
      "channel": 5,
      "note": 67,
      "start": 53.1143,
      "duration": 0.0895,
      "velocity": 87,
      "chip": "ym2612"
    },
    {
      "channel": 5,
      "note": 67,
      "start": 53.3323,
      "duration": 0.0918,
      "velocity": 87,
      "chip": "ym2612"
    },
    {
      "channel": 1,
      "note": 79,
      "start": 53.5526,
      "duration": 0.7894,
      "velocity": 98,
      "chip": "ym2612"
    },
    {
      "channel": 2,
      "note": 88,
      "start": 53.5529,
      "duration": 0.8629,
      "velocity": 116,
      "chip": "ym2612"
    },
    {
      "channel": 4,
      "note": 83,
      "start": 53.5533,
      "duration": 0.8805,
      "velocity": 116,
      "chip": "ym2612"
    },
    {
      "channel": 5,
      "note": 67,
      "start": 53.5536,
      "duration": 0.0908,
      "velocity": 87,
      "chip": "ym2612"
    },
    {
      "channel": 0,
      "note": 54,
      "start": 53.5539,
      "duration": 0.219,
      "velocity": 99,
      "chip": "ym2612"
    },
    {
      "channel": 5,
      "note": 67,
      "start": 53.7732,
      "duration": 0.0915,
      "velocity": 87,
      "chip": "ym2612"
    },
    {
      "channel": 5,
      "note": 67,
      "start": 53.9935,
      "duration": 0.0916,
      "velocity": 87,
      "chip": "ym2612"
    },
    {
      "channel": 0,
      "note": 54,
      "start": 53.9937,
      "duration": 0.1647,
      "velocity": 99,
      "chip": "ym2612"
    },
    {
      "channel": 3,
      "note": 45,
      "start": 54.2135,
      "duration": 0.202,
      "velocity": 118,
      "chip": "ym2612"
    },
    {
      "channel": 5,
      "note": 67,
      "start": 54.2139,
      "duration": 0.0915,
      "velocity": 87,
      "chip": "ym2612"
    },
    {
      "channel": 0,
      "note": 66,
      "start": 54.2145,
      "duration": 0.1459,
      "velocity": 99,
      "chip": "ym2612"
    },
    {
      "channel": 5,
      "note": 67,
      "start": 54.4342,
      "duration": 0.0917,
      "velocity": 87,
      "chip": "ym2612"
    },
    {
      "channel": 0,
      "note": 66,
      "start": 54.4344,
      "duration": 0.0912,
      "velocity": 99,
      "chip": "ym2612"
    }
  ]
}