{
  "track_name": "16 - Unknown Track",
  "duration_sec": 100.553,
  "sample_rate": 44100,
  "note_count": 914,
  "unique_pitches": 47,
  "pitch_range": 64,
  "avg_note_duration": 0.1718,
  "reconstruction_stats": {
    "notes_reconstructed": 914,
    "keyon_events": 914,
    "keyoff_events": 912,
    "orphan_keyons": 2,
    "unique_pitches": 47,
    "pitch_range": 64,
    "avg_duration_sec": 0.1718
  },
  "metadata": {
    "source": "G\\Gemfire\\16 - Unknown Track.vgm"
  },
  "notes": [
    {
      "channel": 0,
      "note": 52,
      "start": 0.0,
      "duration": 1.0419,
      "velocity": 103,
      "chip": "ym2612"
    },
    {
      "channel": 1,
      "note": 28,
      "start": 0.0,
      "duration": 0.242,
      "velocity": 127,
      "chip": "ym2612"
    },
    {
      "channel": 2,
      "note": 64,
      "start": 0.0031,
      "duration": 0.1891,
      "velocity": 87,
      "chip": "ym2612"
    },
    {
      "channel": 2,
      "note": 64,
      "start": 0.1924,
      "duration": 0.083,
      "velocity": 87,
      "chip": "ym2612"
    },
    {
      "channel": 2,
      "note": 64,
      "start": 0.3811,
      "duration": 0.082,
      "velocity": 87,
      "chip": "ym2612"
    },
    {
      "channel": 2,
      "note": 64,
      "start": 0.5757,
      "duration": 0.083,
      "velocity": 87,
      "chip": "ym2612"
    },
    {
      "channel": 2,
      "note": 64,
      "start": 0.7591,
      "duration": 0.083,
      "velocity": 87,
      "chip": "ym2612"
    },
    {
      "channel": 1,
      "note": 28,
      "start": 0.959,
      "duration": 0.1163,
      "velocity": 127,
      "chip": "ym2612"
    },
    {
      "channel": 2,
      "note": 64,
      "start": 0.9596,
      "duration": 0.0826,
      "velocity": 87,
      "chip": "ym2612"
    },
    {
      "channel": 0,
      "note": 57,
      "start": 1.1423,
      "duration": 0.4663,
      "velocity": 103,
      "chip": "ym2612"
    },
    {
      "channel": 1,
      "note": 35,
      "start": 1.1449,
      "duration": 0.9476,
      "velocity": 122,
      "chip": "ym2612"
    },
    {
      "channel": 2,
      "note": 69,
      "start": 1.1456,
      "duration": 0.0798,
      "velocity": 87,
      "chip": "ym2612"
    },
    {
      "channel": 2,
      "note": 69,
      "start": 1.3268,
      "duration": 0.0829,
      "velocity": 87,
      "chip": "ym2612"
    },
    {
      "channel": 2,
      "note": 69,
      "start": 1.5257,
      "duration": 0.0831,
      "velocity": 87,
      "chip": "ym2612"
    },
    {
      "channel": 0,
      "note": 57,
      "start": 1.7136,
      "duration": 0.1117,
      "velocity": 103,
      "chip": "ym2612"
    },
    {
      "channel": 2,
      "note": 69,
      "start": 1.7143,
      "duration": 0.0788,
      "velocity": 87,
      "chip": "ym2612"
    },
    {
      "channel": 0,
      "note": 64,
      "start": 1.9093,
      "duration": 0.0994,
      "velocity": 103,
      "chip": "ym2612"
    },
    {
      "channel": 2,
      "note": 69,
      "start": 1.91,
      "duration": 0.0821,
      "velocity": 87,
      "chip": "ym2612"
    },
    {
      "channel": 0,
      "note": 69,
      "start": 2.0923,
      "duration": 0.1163,
      "velocity": 103,
      "chip": "ym2612"
    },
    {
      "channel": 2,
      "note": 69,
      "start": 2.093,
      "duration": 0.0824,
      "velocity": 87,
      "chip": "ym2612"
    },
    {
      "channel": 0,
      "note": 65,
      "start": 2.2923,
      "duration": 1.0497,
      "velocity": 103,
      "chip": "ym2612"
    },
    {
      "channel": 1,
      "note": 28,
      "start": 2.295,
      "duration": 0.2303,
      "velocity": 127,
      "chip": "ym2612"
    },
    {
      "channel": 2,
      "note": 65,
      "start": 2.2956,
      "duration": 0.0798,
      "velocity": 87,
      "chip": "ym2612"
    },
    {
      "channel": 2,
      "note": 65,
      "start": 2.4757,
      "duration": 0.083,
      "velocity": 87,
      "chip": "ym2612"
    },
    {
      "channel": 2,
      "note": 65,
      "start": 2.6644,
      "duration": 0.082,
      "velocity": 87,
      "chip": "ym2612"
    },
    {
      "channel": 2,
      "note": 65,
      "start": 2.8591,
      "duration": 0.083,
      "velocity": 87,
      "chip": "ym2612"
    },
    {
      "channel": 2,
      "note": 65,
      "start": 3.0481,
      "duration": 0.0817,
      "velocity": 87,
      "chip": "ym2612"
    },
    {
      "channel": 1,
      "note": 28,
      "start": 3.2427,
      "duration": 0.116,
      "velocity": 127,
      "chip": "ym2612"
    },
    {
      "channel": 2,
      "note": 65,
      "start": 3.2432,
      "duration": 0.0822,
      "velocity": 87,
      "chip": "ym2612"
    },
    {
      "channel": 0,
      "note": 60,
      "start": 3.4256,
      "duration": 0.4663,
      "velocity": 103,
      "chip": "ym2612"
    },
    {
      "channel": 1,
      "note": 35,
      "start": 3.4283,
      "duration": 0.9489,
      "velocity": 122,
      "chip": "ym2612"
    },
    {
      "channel": 2,
      "note": 60,
      "start": 3.4289,
      "duration": 0.0798,
      "velocity": 87,
      "chip": "ym2612"
    },
    {
      "channel": 2,
      "note": 60,
      "start": 3.6258,
      "duration": 0.0829,
      "velocity": 87,
      "chip": "ym2612"
    },
    {
      "channel": 2,
      "note": 60,
      "start": 3.8091,
      "duration": 0.0831,
      "velocity": 87,
      "chip": "ym2612"
    },
    {
      "channel": 0,
      "note": 60,
      "start": 3.9966,
      "duration": 0.1287,
      "velocity": 103,
      "chip": "ym2612"
    },
    {
      "channel": 2,
      "note": 60,
      "start": 3.9972,
      "duration": 0.0791,
      "velocity": 87,
      "chip": "ym2612"
    },
    {
      "channel": 0,
      "note": 65,
      "start": 4.1923,
      "duration": 0.1163,
      "velocity": 103,
      "chip": "ym2612"
    },
    {
      "channel": 2,
      "note": 60,
      "start": 4.193,
      "duration": 0.0824,
      "velocity": 87,
      "chip": "ym2612"
    },
    {
      "channel": 0,
      "note": 72,
      "start": 4.3769,
      "duration": 0.115,
      "velocity": 103,
      "chip": "ym2612"
    },
    {
      "channel": 2,
      "note": 60,
      "start": 4.3777,
      "duration": 0.082,
      "velocity": 87,
      "chip": "ym2612"
    },
    {
      "channel": 0,
      "note": 68,
      "start": 4.5759,
      "duration": 1.1327,
      "velocity": 103,
      "chip": "ym2612"
    },
    {
      "channel": 1,
      "note": 28,
      "start": 4.5786,
      "duration": 0.2301,
      "velocity": 127,
      "chip": "ym2612"
    },
    {
      "channel": 2,
      "note": 68,
      "start": 4.5792,
      "duration": 0.0795,
      "velocity": 87,
      "chip": "ym2612"
    },
    {
      "channel": 2,
      "note": 68,
      "start": 4.7591,
      "duration": 0.083,
      "velocity": 87,
      "chip": "ym2612"
    },
    {
      "channel": 2,
      "note": 68,
      "start": 4.9591,
      "duration": 0.083,
      "velocity": 87,
      "chip": "ym2612"
    },
    {
      "channel": 2,
      "note": 68,
      "start": 5.1424,
      "duration": 0.083,
      "velocity": 87,
      "chip": "ym2612"
    },
    {
      "channel": 2,
      "note": 68,
      "start": 5.3311,
      "duration": 0.082,
      "velocity": 87,
      "chip": "ym2612"
    },
    {
      "channel": 1,
      "note": 28,
      "start": 5.5257,
      "duration": 0.1163,
      "velocity": 127,
      "chip": "ym2612"
    },
    {
      "channel": 2,
      "note": 68,
      "start": 5.5263,
      "duration": 0.0825,
      "velocity": 87,
      "chip": "ym2612"
    },
    {
      "channel": 0,
      "note": 62,
      "start": 5.7137,
      "duration": 0.8949,
      "velocity": 103,
      "chip": "ym2612"
    },
    {
      "channel": 1,
      "note": 35,
      "start": 5.7164,
      "duration": 0.9471,
      "velocity": 122,
      "chip": "ym2612"
    },
    {
      "channel": 2,
      "note": 62,
      "start": 5.717,
      "duration": 0.0761,
      "velocity": 87,
      "chip": "ym2612"
    },
    {
      "channel": 2,
      "note": 62,
      "start": 5.9094,
      "duration": 0.0827,
      "velocity": 87,
      "chip": "ym2612"
    },
    {
      "channel": 2,
      "note": 62,
      "start": 6.0924,
      "duration": 0.083,
      "velocity": 87,
      "chip": "ym2612"
    },
    {
      "channel": 2,
      "note": 62,
      "start": 6.2925,
      "duration": 0.0829,
      "velocity": 87,
      "chip": "ym2612"
    },
    {
      "channel": 2,
      "note": 62,
      "start": 6.4757,
      "duration": 0.083,
      "velocity": 87,
      "chip": "ym2612"
    },
    {
      "channel": 0,
      "note": 62,
      "start": 6.6633,
      "duration": 0.0797,
      "velocity": 103,
      "chip": "ym2612"
    },
    {
      "channel": 2,
      "note": 62,
      "start": 6.664,
      "duration": 0.0791,
      "velocity": 87,
      "chip": "ym2612"
    },
    {
      "channel": 0,
      "note": 59,
      "start": 6.859,
      "duration": 1.1049,
      "velocity": 103,
      "chip": "ym2612"
    },
    {
      "channel": 1,
      "note": 28,
      "start": 6.8616,
      "duration": 0.2304,
      "velocity": 127,
      "chip": "ym2612"
    },
    {
      "channel": 2,
      "note": 71,
      "start": 6.8622,
      "duration": 0.0798,
      "velocity": 87,
      "chip": "ym2612"
    },
    {
      "channel": 2,
      "note": 71,
      "start": 7.0448,
      "duration": 0.0826,
      "velocity": 87,
      "chip": "ym2612"
    },
    {
      "channel": 2,
      "note": 71,
      "start": 7.2427,
      "duration": 0.0827,
      "velocity": 87,
      "chip": "ym2612"
    },
    {
      "channel": 2,
      "note": 71,
      "start": 7.4257,
      "duration": 0.083,
      "velocity": 87,
      "chip": "ym2612"
    },
    {
      "channel": 2,
      "note": 71,
      "start": 7.6258,
      "duration": 0.0829,
      "velocity": 87,
      "chip": "ym2612"
    },
    {
      "channel": 1,
      "note": 28,
      "start": 7.809,
      "duration": 0.1163,
      "velocity": 127,
      "chip": "ym2612"
    },
    {
      "channel": 2,
      "note": 71,
      "start": 7.8096,
      "duration": 0.0825,
      "velocity": 87,
      "chip": "ym2612"
    },
    {
      "channel": 0,
      "note": 64,
      "start": 7.9966,
      "duration": 1.0454,
      "velocity": 103,
      "chip": "ym2612"
    },
    {
      "channel": 1,
      "note": 35,
      "start": 7.9993,
      "duration": 0.5427,
      "velocity": 122,
      "chip": "ym2612"
    },
    {
      "channel": 2,
      "note": 64,
      "start": 7.9999,
      "duration": 0.0765,
      "velocity": 87,
      "chip": "ym2612"
    },
    {
      "channel": 2,
      "note": 64,
      "start": 8.1924,
      "duration": 0.083,
      "velocity": 87,
      "chip": "ym2612"
    },
    {
      "channel": 2,
      "note": 64,
      "start": 8.3804,
      "duration": 0.0817,
      "velocity": 87,
      "chip": "ym2612"
    },
    {
      "channel": 1,
      "note": 28,
      "start": 8.5781,
      "duration": 0.1139,
      "velocity": 127,
      "chip": "ym2612"
    },
    {
      "channel": 2,
      "note": 64,
      "start": 8.5787,
      "duration": 0.0801,
      "velocity": 87,
      "chip": "ym2612"
    },
    {
      "channel": 2,
      "note": 64,
      "start": 8.7591,
      "duration": 0.083,
      "velocity": 87,
      "chip": "ym2612"
    },
    {
      "channel": 1,
      "note": 28,
      "start": 8.959,
      "duration": 0.1163,
      "velocity": 127,
      "chip": "ym2612"
    },
    {
      "channel": 2,
      "note": 64,
      "start": 8.9596,
      "duration": 0.0829,
      "velocity": 87,
      "chip": "ym2612"
    },
    {
      "channel": 0,
      "note": 65,
      "start": 9.1423,
      "duration": 0.9997,
      "velocity": 103,
      "chip": "ym2612"
    },
    {
      "channel": 1,
      "note": 28,
      "start": 9.1429,
      "duration": 0.2348,
      "velocity": 127,
      "chip": "ym2612"
    },
    {
      "channel": 2,
      "note": 65,
      "start": 9.1435,
      "duration": 0.0819,
      "velocity": 87,
      "chip": "ym2612"
    },
    {
      "channel": 2,
      "note": 65,
      "start": 9.3278,
      "duration": 0.0829,
      "velocity": 87,
      "chip": "ym2612"
    },
    {
      "channel": 2,
      "note": 65,
      "start": 9.5257,
      "duration": 0.083,
      "velocity": 87,
      "chip": "ym2612"
    },
    {
      "channel": 2,
      "note": 65,
      "start": 9.7147,
      "duration": 0.0817,
      "velocity": 87,
      "chip": "ym2612"
    },
    {
      "channel": 2,
      "note": 65,
      "start": 9.9094,
      "duration": 0.0827,
      "velocity": 87,
      "chip": "ym2612"
    },
    {
      "channel": 1,
      "note": 28,
      "start": 10.0923,
      "duration": 0.1163,
      "velocity": 127,
      "chip": "ym2612"
    },
    {
      "channel": 2,
      "note": 65,
      "start": 10.0929,
      "duration": 0.0825,
      "velocity": 87,
      "chip": "ym2612"
    },
    {
      "channel": 0,
      "note": 65,
      "start": 10.28,
      "duration": 0.4786,
      "velocity": 103,
      "chip": "ym2612"
    },
    {
      "channel": 1,
      "note": 35,
      "start": 10.2827,
      "duration": 0.176,
      "velocity": 122,
      "chip": "ym2612"
    },
    {
      "channel": 2,
      "note": 65,
      "start": 10.2832,
      "duration": 0.0765,
      "velocity": 87,
      "chip": "ym2612"
    },
    {
      "channel": 1,
      "note": 28,
      "start": 10.4778,
      "duration": 0.1142,
      "velocity": 127,
      "chip": "ym2612"
    },
    {
      "channel": 2,
      "note": 65,
      "start": 10.4783,
      "duration": 0.0804,
      "velocity": 87,
      "chip": "ym2612"
    },
    {
      "channel": 1,
      "note": 28,
      "start": 10.6643,
      "duration": 0.1156,
      "velocity": 127,
      "chip": "ym2612"
    },
    {
      "channel": 2,
      "note": 65,
      "start": 10.6649,
      "duration": 0.0815,
      "velocity": 87,
      "chip": "ym2612"
    },
    {
      "channel": 0,
      "note": 65,
      "start": 10.859,
      "duration": 0.0997,
      "velocity": 103,
      "chip": "ym2612"
    },
    {
      "channel": 1,
      "note": 28,
      "start": 10.8595,
      "duration": 0.1158,
      "velocity": 127,
      "chip": "ym2612"
    },
    {
      "channel": 2,
      "note": 65,
      "start": 10.8602,
      "duration": 0.0819,
      "velocity": 87,
      "chip": "ym2612"
    },
    {
      "channel": 0,
      "note": 63,
      "start": 11.0426,
      "duration": 0.0994,
      "velocity": 103,
      "chip": "ym2612"
    },
    {
      "channel": 2,
      "note": 63,
      "start": 11.0433,
      "duration": 0.0821,
      "velocity": 87,
      "chip": "ym2612"
    },
    {
      "channel": 0,
      "note": 61,
      "start": 11.2426,
      "duration": 0.0848,
      "velocity": 103,
      "chip": "ym2612"
    },
    {
      "channel": 1,
      "note": 28,
      "start": 11.2432,
      "duration": 0.1155,
      "velocity": 127,
      "chip": "ym2612"
    },
    {
      "channel": 2,
      "note": 61,
      "start": 11.2438,
      "duration": 0.0816,
      "velocity": 87,
      "chip": "ym2612"
    },
    {
      "channel": 0,
      "note": 59,
      "start": 11.4256,
      "duration": 1.0663,
      "velocity": 103,
      "chip": "ym2612"
    },
    {
      "channel": 1,
      "note": 28,
      "start": 11.4262,
      "duration": 0.2345,
      "velocity": 127,
      "chip": "ym2612"
    },
    {
      "channel": 2,
      "note": 59,
      "start": 11.4268,
      "duration": 0.0819,
      "velocity": 87,
      "chip": "ym2612"
    },
    {
      "channel": 2,
      "note": 71,
      "start": 11.6111,
      "duration": 0.0829,
      "velocity": 87,
      "chip": "ym2612"
    },
    {
      "channel": 2,
      "note": 71,
      "start": 11.8091,
      "duration": 0.083,
      "velocity": 87,
      "chip": "ym2612"
    },
    {
      "channel": 2,
      "note": 71,
      "start": 11.9978,
      "duration": 0.082,
      "velocity": 87,
      "chip": "ym2612"
    },
    {
      "channel": 2,
      "note": 71,
      "start": 12.1925,
      "duration": 0.0829,
      "velocity": 87,
      "chip": "ym2612"
    },
    {
      "channel": 1,
      "note": 28,
      "start": 12.376,
      "duration": 0.1214,
      "velocity": 127,
      "chip": "ym2612"
    },
    {
      "channel": 2,
      "note": 71,
      "start": 12.3766,
      "duration": 0.0822,
      "velocity": 87,
      "chip": "ym2612"
    },
    {
      "channel": 0,
      "note": 59,
      "start": 12.5759,
      "duration": 0.4527,
      "velocity": 103,
      "chip": "ym2612"
    },
    {
      "channel": 1,
      "note": 35,
      "start": 12.5786,
      "duration": 0.5301,
      "velocity": 122,
      "chip": "ym2612"
    },
    {
      "channel": 2,
      "note": 71,
      "start": 12.5792,
      "duration": 0.0795,
      "velocity": 87,
      "chip": "ym2612"
    },
    {
      "channel": 2,
      "note": 71,
      "start": 12.7591,
      "duration": 0.083,
      "velocity": 87,
      "chip": "ym2612"
    },
    {
      "channel": 2,
      "note": 71,
      "start": 12.9468,
      "duration": 0.082,
      "velocity": 87,
      "chip": "ym2612"
    },
    {
      "channel": 0,
      "note": 59,
      "start": 13.1423,
      "duration": 0.1025,
      "velocity": 103,
      "chip": "ym2612"
    },
    {
      "channel": 1,
      "note": 28,
      "start": 13.1449,
      "duration": 0.1137,
      "velocity": 127,
      "chip": "ym2612"
    },
    {
      "channel": 2,
      "note": 71,
      "start": 13.1456,
      "duration": 0.0798,
      "velocity": 87,
      "chip": "ym2612"
    },
    {
      "channel": 0,
      "note": 57,
      "start": 13.3276,
      "duration": 0.0977,
      "velocity": 103,
      "chip": "ym2612"
    },
    {
      "channel": 1,
      "note": 28,
      "start": 13.3282,
      "duration": 0.116,
      "velocity": 127,
      "chip": "ym2612"
    },
    {
      "channel": 2,
      "note": 69,
      "start": 13.3288,
      "duration": 0.0819,
      "velocity": 87,
      "chip": "ym2612"
    },
    {
      "channel": 0,
      "note": 56,
      "start": 13.5256,
      "duration": 0.0851,
      "velocity": 103,
      "chip": "ym2612"
    },
    {
      "channel": 1,
      "note": 28,
      "start": 13.5262,
      "duration": 0.1158,
      "velocity": 127,
      "chip": "ym2612"
    },
    {
      "channel": 2,
      "note": 68,
      "start": 13.5268,
      "duration": 0.082,
      "velocity": 87,
      "chip": "ym2612"
    },
    {
      "channel": 0,
      "note": 55,
      "start": 13.7093,
      "duration": 1.0384,
      "velocity": 103,
      "chip": "ym2612"
    },
    {
      "channel": 1,
      "note": 28,
      "start": 13.7098,
      "duration": 0.2341,
      "velocity": 127,
      "chip": "ym2612"
    },
    {
      "channel": 2,
      "note": 67,
      "start": 13.7104,
      "duration": 0.0817,
      "velocity": 87,
      "chip": "ym2612"
    },
    {
      "channel": 2,
      "note": 67,
      "start": 13.9094,
      "duration": 0.0827,
      "velocity": 87,
      "chip": "ym2612"
    },
    {
      "channel": 2,
      "note": 67,
      "start": 14.0924,
      "duration": 0.083,
      "velocity": 87,
      "chip": "ym2612"
    },
    {
      "channel": 2,
      "note": 67,
      "start": 14.2811,
      "duration": 0.082,
      "velocity": 87,
      "chip": "ym2612"
    },
    {
      "channel": 2,
      "note": 67,
      "start": 14.4757,
      "duration": 0.083,
      "velocity": 87,
      "chip": "ym2612"
    },
    {
      "channel": 1,
      "note": 28,
      "start": 14.6634,
      "duration": 0.1176,
      "velocity": 127,
      "chip": "ym2612"
    },
    {
      "channel": 2,
      "note": 67,
      "start": 14.664,
      "duration": 0.084,
      "velocity": 87,
      "chip": "ym2612"
    },
    {
      "channel": 0,
      "note": 61,
      "start": 14.859,
      "duration": 1.0497,
      "velocity": 103,
      "chip": "ym2612"
    },
    {
      "channel": 1,
      "note": 35,
      "start": 14.8616,
      "duration": 0.5304,
      "velocity": 122,
      "chip": "ym2612"
    },
    {
      "channel": 2,
      "note": 73,
      "start": 14.8622,
      "duration": 0.0798,
      "velocity": 87,
      "chip": "ym2612"
    },
    {
      "channel": 2,
      "note": 73,
      "start": 15.0427,
      "duration": 0.0827,
      "velocity": 87,
      "chip": "ym2612"
    },
    {
      "channel": 2,
      "note": 73,
      "start": 15.2427,
      "duration": 0.0827,
      "velocity": 87,
      "chip": "ym2612"
    },
    {
      "channel": 2,
      "note": 73,
      "start": 15.4257,
      "duration": 0.083,
      "velocity": 87,
      "chip": "ym2612"
    },
    {
      "channel": 2,
      "note": 73,
      "start": 15.6135,
      "duration": 0.0819,
      "velocity": 87,
      "chip": "ym2612"
    },
    {
      "channel": 1,
      "note": 28,
      "start": 15.8111,
      "duration": 0.1142,
      "velocity": 127,
      "chip": "ym2612"
    },
    {
      "channel": 2,
      "note": 73,
      "start": 15.8117,
      "duration": 0.0803,
      "velocity": 87,
      "chip": "ym2612"
    },
    {
      "channel": 0,
      "note": 68,
      "start": 15.9966,
      "duration": 1.112,
      "velocity": 103,
      "chip": "ym2612"
    },
    {
      "channel": 1,
      "note": 28,
      "start": 15.9972,
      "duration": 0.2448,
      "velocity": 127,
      "chip": "ym2612"
    },
    {
      "channel": 2,
      "note": 68,
      "start": 15.9978,
      "duration": 0.0796,
      "velocity": 87,
      "chip": "ym2612"
    },
    {
      "channel": 2,
      "note": 68,
      "start": 16.1925,
      "duration": 0.0829,
      "velocity": 87,
      "chip": "ym2612"
    },
    {
      "channel": 2,
      "note": 68,
      "start": 16.3761,
      "duration": 0.0827,
      "velocity": 87,
      "chip": "ym2612"
    },
    {
      "channel": 2,
      "note": 68,
      "start": 16.5761,
      "duration": 0.0827,
      "velocity": 87,
      "chip": "ym2612"
    },
    {
      "channel": 2,
      "note": 68,
      "start": 16.7591,
      "duration": 0.083,
      "velocity": 87,
      "chip": "ym2612"
    },
    {
      "channel": 1,
      "note": 28,
      "start": 16.9477,
      "duration": 0.1277,
      "velocity": 127,
      "chip": "ym2612"
    },
    {
      "channel": 2,
      "note": 68,
      "start": 16.9483,
      "duration": 0.0815,
      "velocity": 87,
      "chip": "ym2612"
    },
    {
      "channel": 0,
      "note": 73,
      "start": 17.1423,
      "duration": 0.7497,
      "velocity": 103,
      "chip": "ym2612"
    },
    {
      "channel": 1,
      "note": 35,
      "start": 17.1449,
      "duration": 0.5304,
      "velocity": 122,
      "chip": "ym2612"
    },
    {
      "channel": 2,
      "note": 61,
      "start": 17.1456,
      "duration": 0.0798,
      "velocity": 87,
      "chip": "ym2612"
    },
    {
      "channel": 2,
      "note": 73,
      "start": 17.3268,
      "duration": 0.0829,
      "velocity": 87,
      "chip": "ym2612"
    },
    {
      "channel": 2,
      "note": 73,
      "start": 17.5258,
      "duration": 0.0829,
      "velocity": 87,
      "chip": "ym2612"
    },
    {
      "channel": 1,
      "note": 28,
      "start": 17.7114,
      "duration": 0.1183,
      "velocity": 127,
      "chip": "ym2612"
    },
    {
      "channel": 2,
      "note": 61,
      "start": 17.712,
      "duration": 0.0801,
      "velocity": 87,
      "chip": "ym2612"
    },
    {
      "channel": 1,
      "note": 28,
      "start": 17.9093,
      "duration": 0.116,
      "velocity": 127,
      "chip": "ym2612"
    },
    {
      "channel": 2,
      "note": 73,
      "start": 17.9099,
      "duration": 0.0822,
      "velocity": 87,
      "chip": "ym2612"
    },
    {
      "channel": 1,
      "note": 28,
      "start": 18.0923,
      "duration": 0.1163,
      "velocity": 127,
      "chip": "ym2612"
    },
    {
      "channel": 2,
      "note": 73,
      "start": 18.0929,
      "duration": 0.0825,
      "velocity": 87,
      "chip": "ym2612"
    },
    {
      "channel": 0,
      "note": 77,
      "start": 18.2827,
      "duration": 0.4111,
      "velocity": 96,
      "chip": "ym2612"
    },
    {
      "channel": 1,
      "note": 28,
      "start": 18.2832,
      "duration": 0.1254,
      "velocity": 127,
      "chip": "ym2612"
    },
    {
      "channel": 2,
      "note": 37,
      "start": 18.2865,
      "duration": 1.1056,
      "velocity": 119,
      "chip": "ym2612"
    },
    {
      "channel": 0,
      "note": 73,
      "start": 18.859,
      "duration": 0.5015,
      "velocity": 96,
      "chip": "ym2612"
    },
    {
      "channel": 1,
      "note": 28,
      "start": 18.8595,
      "duration": 0.1158,
      "velocity": 127,
      "chip": "ym2612"
    },
    {
      "channel": 0,
      "note": 75,
      "start": 19.4256,
      "duration": 0.4852,
      "velocity": 96,
      "chip": "ym2612"
    },
    {
      "channel": 1,
      "note": 28,
      "start": 19.4262,
      "duration": 0.1158,
      "velocity": 127,
      "chip": "ym2612"
    },
    {
      "channel": 1,
      "note": 28,
      "start": 19.6109,
      "duration": 0.1312,
      "velocity": 127,
      "chip": "ym2612"
    },
    {
      "channel": 1,
      "note": 28,
      "start": 19.809,
      "duration": 0.1163,
      "velocity": 127,
      "chip": "ym2612"
    },
    {
      "channel": 0,
      "note": 71,
      "start": 19.9941,
      "duration": 0.4645,
      "velocity": 96,
      "chip": "ym2612"
    },
    {
      "channel": 1,
      "note": 35,
      "start": 19.9974,
      "duration": 0.5288,
      "velocity": 122,
      "chip": "ym2612"
    },
    {
      "channel": 0,
      "note": 73,
      "start": 20.5598,
      "duration": 0.3013,
      "velocity": 96,
      "chip": "ym2612"
    },
    {
      "channel": 1,
      "note": 28,
      "start": 20.5631,
      "duration": 0.1289,
      "velocity": 127,
      "chip": "ym2612"
    },
    {
      "channel": 2,
      "note": 37,
      "start": 20.5637,
      "duration": 1.1118,
      "velocity": 119,
      "chip": "ym2612"
    },
    {
      "channel": 0,
      "note": 71,
      "start": 20.9443,
      "duration": 0.0829,
      "velocity": 96,
      "chip": "ym2612"
    },
    {
      "channel": 0,
      "note": 69,
      "start": 21.1423,
      "duration": 0.5018,
      "velocity": 96,
      "chip": "ym2612"
    },
    {
      "channel": 1,
      "note": 28,
      "start": 21.1429,
      "duration": 0.1158,
      "velocity": 127,
      "chip": "ym2612"
    },
    {
      "channel": 0,
      "note": 71,
      "start": 21.7093,
      "duration": 0.4994,
      "velocity": 96,
      "chip": "ym2612"
    },
    {
      "channel": 1,
      "note": 28,
      "start": 21.7098,
      "duration": 0.1155,
      "velocity": 127,
      "chip": "ym2612"
    },
    {
      "channel": 0,
      "note": 73,
      "start": 22.2775,
      "duration": 0.3656,
      "velocity": 96,
      "chip": "ym2612"
    },
    {
      "channel": 1,
      "note": 35,
      "start": 22.2808,
      "duration": 0.5288,
      "velocity": 122,
      "chip": "ym2612"
    },
    {
      "channel": 0,
      "note": 75,
      "start": 22.659,
      "duration": 0.083,
      "velocity": 96,
      "chip": "ym2612"
    },
    {
      "channel": 0,
      "note": 77,
      "start": 22.859,
      "duration": 0.4518,
      "velocity": 96,
      "chip": "ym2612"
    },
    {
      "channel": 1,
      "note": 28,
      "start": 22.8622,
      "duration": 0.1131,
      "velocity": 127,
      "chip": "ym2612"
    },
    {
      "channel": 2,
      "note": 37,
      "start": 22.8628,
      "duration": 1.1126,
      "velocity": 119,
      "chip": "ym2612"
    },
    {
      "channel": 0,
      "note": 80,
      "start": 23.4256,
      "duration": 0.4663,
      "velocity": 96,
      "chip": "ym2612"
    },
    {
      "channel": 1,
      "note": 28,
      "start": 23.4262,
      "duration": 0.1158,
      "velocity": 127,
      "chip": "ym2612"
    },
    {
      "channel": 0,
      "note": 81,
      "start": 23.9923,
      "duration": 0.4849,
      "velocity": 96,
      "chip": "ym2612"
    },
    {
      "channel": 1,
      "note": 28,
      "start": 23.9929,
      "duration": 0.1179,
      "velocity": 127,
      "chip": "ym2612"
    },
    {
      "channel": 1,
      "note": 28,
      "start": 24.1923,
      "duration": 0.1163,
      "velocity": 127,
      "chip": "ym2612"
    },
    {
      "channel": 1,
      "note": 28,
      "start": 24.376,
      "duration": 0.116,
      "velocity": 127,
      "chip": "ym2612"
    },
    {
      "channel": 0,
      "note": 80,
      "start": 24.5608,
      "duration": 0.3812,
      "velocity": 96,
      "chip": "ym2612"
    },
    {
      "channel": 1,
      "note": 35,
      "start": 24.5641,
      "duration": 0.5446,
      "velocity": 122,
      "chip": "ym2612"
    },
    {
      "channel": 0,
      "note": 78,
      "start": 24.9432,
      "duration": 0.0987,
      "velocity": 96,
      "chip": "ym2612"
    },
    {
      "channel": 0,
      "note": 80,
      "start": 25.1423,
      "duration": 0.4663,
      "velocity": 96,
      "chip": "ym2612"
    },
    {
      "channel": 1,
      "note": 28,
      "start": 25.1456,
      "duration": 0.1131,
      "velocity": 127,
      "chip": "ym2612"
    },
    {
      "channel": 2,
      "note": 37,
      "start": 25.1462,
      "duration": 1.1293,
      "velocity": 119,
      "chip": "ym2612"
    },
    {
      "channel": 0,
      "note": 77,
      "start": 25.7093,
      "duration": 0.4994,
      "velocity": 96,
      "chip": "ym2612"
    },
    {
      "channel": 1,
      "note": 28,
      "start": 25.7098,
      "duration": 0.1155,
      "velocity": 127,
      "chip": "ym2612"
    },
    {
      "channel": 0,
      "note": 78,
      "start": 26.2776,
      "duration": 0.331,
      "velocity": 96,
      "chip": "ym2612"
    },
    {
      "channel": 1,
      "note": 28,
      "start": 26.2782,
      "duration": 0.1157,
      "velocity": 127,
      "chip": "ym2612"
    },
    {
      "channel": 0,
      "note": 77,
      "start": 26.659,
      "duration": 0.083,
      "velocity": 96,
      "chip": "ym2612"
    },
    {
      "channel": 0,
      "note": 75,
      "start": 26.859,
      "duration": 0.483,
      "velocity": 96,
      "chip": "ym2612"
    },
    {
      "channel": 1,
      "note": 35,
      "start": 26.8622,
      "duration": 0.5298,
      "velocity": 122,
      "chip": "ym2612"
    },
    {
      "channel": 0,
      "note": 77,
      "start": 27.4256,
      "duration": 0.5163,
      "velocity": 96,
      "chip": "ym2612"
    },
    {
      "channel": 1,
      "note": 28,
      "start": 27.4289,
      "duration": 0.1131,
      "velocity": 127,
      "chip": "ym2612"
    },
    {
      "channel": 2,
      "note": 37,
      "start": 27.4295,
      "duration": 1.1293,
      "velocity": 119,
      "chip": "ym2612"
    },
    {
      "channel": 0,
      "note": 73,
      "start": 27.9923,
      "duration": 0.5163,
      "velocity": 96,
      "chip": "ym2612"
    },
    {
      "channel": 1,
      "note": 28,
      "start": 27.9929,
      "duration": 0.118,
      "velocity": 127,
      "chip": "ym2612"
    },
    {
      "channel": 0,
      "note": 75,
      "start": 28.5609,
      "duration": 0.4977,
      "velocity": 96,
      "chip": "ym2612"
    },
    {
      "channel": 1,
      "note": 28,
      "start": 28.5615,
      "duration": 0.1305,
      "velocity": 127,
      "chip": "ym2612"
    },
    {
      "channel": 1,
      "note": 28,
      "start": 28.759,
      "duration": 0.1163,
      "velocity": 127,
      "chip": "ym2612"
    },
    {
      "channel": 1,
      "note": 28,
      "start": 28.9442,
      "duration": 0.1164,
      "velocity": 127,
      "chip": "ym2612"
    },
    {
      "channel": 0,
      "note": 71,
      "start": 29.1423,
      "duration": 0.5505,
      "velocity": 96,
      "chip": "ym2612"
    },
    {
      "channel": 1,
      "note": 35,
      "start": 29.1456,
      "duration": 0.5298,
      "velocity": 122,
      "chip": "ym2612"
    },
    {
      "channel": 0,
      "note": 73,
      "start": 29.7093,
      "duration": 0.4827,
      "velocity": 96,
      "chip": "ym2612"
    },
    {
      "channel": 1,
      "note": 28,
      "start": 29.7126,
      "duration": 0.1128,
      "velocity": 127,
      "chip": "ym2612"
    },
    {
      "channel": 2,
      "note": 37,
      "start": 29.7132,
      "duration": 1.0457,
      "velocity": 119,
      "chip": "ym2612"
    },
    {
      "channel": 0,
      "note": 69,
      "start": 30.2775,
      "duration": 0.4812,
      "velocity": 96,
      "chip": "ym2612"
    },
    {
      "channel": 1,
      "note": 28,
      "start": 30.278,
      "duration": 0.1159,
      "velocity": 127,
      "chip": "ym2612"
    },
    {
      "channel": 0,
      "note": 71,
      "start": 30.8444,
      "duration": 0.2809,
      "velocity": 96,
      "chip": "ym2612"
    },
    {
      "channel": 1,
      "note": 28,
      "start": 30.845,
      "duration": 0.1303,
      "velocity": 127,
      "chip": "ym2612"
    },
    {
      "channel": 0,
      "note": 73,
      "start": 31.2275,
      "duration": 0.1312,
      "velocity": 96,
      "chip": "ym2612"
    },
    {
      "channel": 0,
      "note": 75,
      "start": 31.4256,
      "duration": 0.4997,
      "velocity": 96,
      "chip": "ym2612"
    },
    {
      "channel": 1,
      "note": 35,
      "start": 31.4289,
      "duration": 0.5298,
      "velocity": 122,
      "chip": "ym2612"
    },
    {
      "channel": 0,
      "note": 77,
      "start": 31.9923,
      "duration": 0.4497,
      "velocity": 96,
      "chip": "ym2612"
    },
    {
      "channel": 1,
      "note": 28,
      "start": 31.9956,
      "duration": 0.1131,
      "velocity": 127,
      "chip": "ym2612"
    },
    {
      "channel": 2,
      "note": 37,
      "start": 31.9962,
      "duration": 1.1793,
      "velocity": 119,
      "chip": "ym2612"
    },
    {
      "channel": 0,
      "note": 80,
      "start": 32.5608,
      "duration": 0.4812,
      "velocity": 96,
      "chip": "ym2612"
    },
    {
      "channel": 1,
      "note": 28,
      "start": 32.5614,
      "duration": 0.1159,
      "velocity": 127,
      "chip": "ym2612"
    },
    {
      "channel": 0,
      "note": 81,
      "start": 33.1423,
      "duration": 0.4515,
      "velocity": 96,
      "chip": "ym2612"
    },
    {
      "channel": 1,
      "note": 28,
      "start": 33.1429,
      "duration": 0.1158,
      "velocity": 127,
      "chip": "ym2612"
    },
    {
      "channel": 1,
      "note": 28,
      "start": 33.3257,
      "duration": 0.1163,
      "velocity": 127,
      "chip": "ym2612"
    },
    {
      "channel": 1,
      "note": 28,
      "start": 33.5112,
      "duration": 0.1308,
      "velocity": 127,
      "chip": "ym2612"
    },
    {
      "channel": 0,
      "note": 80,
      "start": 33.7093,
      "duration": 0.3494,
      "velocity": 96,
      "chip": "ym2612"
    },
    {
      "channel": 1,
      "note": 35,
      "start": 33.7126,
      "duration": 0.5295,
      "velocity": 122,
      "chip": "ym2612"
    },
    {
      "channel": 0,
      "note": 78,
      "start": 34.0923,
      "duration": 0.1338,
      "velocity": 96,
      "chip": "ym2612"
    },
    {
      "channel": 0,
      "note": 80,
      "start": 34.2756,
      "duration": 0.483,
      "velocity": 96,
      "chip": "ym2612"
    },
    {
      "channel": 1,
      "note": 28,
      "start": 34.2789,
      "duration": 0.115,
      "velocity": 127,
      "chip": "ym2612"
    },
    {
      "channel": 2,
      "note": 37,
      "start": 34.2795,
      "duration": 1.0626,
      "velocity": 119,
      "chip": "ym2612"
    },
    {
      "channel": 0,
      "note": 85,
      "start": 34.8444,
      "duration": 0.4663,
      "velocity": 96,
      "chip": "ym2612"
    },
    {
      "channel": 1,
      "note": 28,
      "start": 34.845,
      "duration": 0.1303,
      "velocity": 127,
      "chip": "ym2612"
    },
    {
      "channel": 0,
      "note": 86,
      "start": 35.4256,
      "duration": 0.4663,
      "velocity": 96,
      "chip": "ym2612"
    },
    {
      "channel": 1,
      "note": 28,
      "start": 35.4263,
      "duration": 0.1158,
      "velocity": 127,
      "chip": "ym2612"
    },
    {
      "channel": 2,
      "note": 35,
      "start": 35.4268,
      "duration": 1.0653,
      "velocity": 119,
      "chip": "ym2612"
    },
    {
      "channel": 1,
      "note": 28,
      "start": 35.609,
      "duration": 0.1182,
      "velocity": 127,
      "chip": "ym2612"
    },
    {
      "channel": 1,
      "note": 28,
      "start": 35.809,
      "duration": 0.1163,
      "velocity": 127,
      "chip": "ym2612"
    },
    {
      "channel": 0,
      "note": 85,
      "start": 35.9923,
      "duration": 0.3163,
      "velocity": 96,
      "chip": "ym2612"
    },
    {
      "channel": 1,
      "note": 28,
      "start": 35.9929,
      "duration": 0.1158,
      "velocity": 127,
      "chip": "ym2612"
    },
    {
      "channel": 0,
      "note": 83,
      "start": 36.3759,
      "duration": 0.1327,
      "velocity": 96,
      "chip": "ym2612"
    },
    {
      "channel": 1,
      "note": 28,
      "start": 36.3765,
      "duration": 0.1155,
      "velocity": 127,
      "chip": "ym2612"
    },
    {
      "channel": 0,
      "note": 92,
      "start": 36.5608,
      "duration": 0.1645,
      "velocity": 96,
      "chip": "ym2612"
    },
    {
      "channel": 1,
      "note": 28,
      "start": 36.5614,
      "duration": 0.1159,
      "velocity": 127,
      "chip": "ym2612"
    },
    {
      "channel": 2,
      "note": 47,
      "start": 36.562,
      "duration": 2.2634,
      "velocity": 119,
      "chip": "ym2612"
    },
    {
      "channel": 0,
      "note": 90,
      "start": 36.759,
      "duration": 0.1348,
      "velocity": 96,
      "chip": "ym2612"
    },
    {
      "channel": 0,
      "note": 92,
      "start": 36.9423,
      "duration": 0.1208,
      "velocity": 96,
      "chip": "ym2612"
    },
    {
      "channel": 0,
      "note": 85,
      "start": 37.1423,
      "duration": 1.6728,
      "velocity": 96,
      "chip": "ym2612"
    },
    {
      "channel": 1,
      "note": 28,
      "start": 37.1429,
      "duration": 0.1158,
      "velocity": 127,
      "chip": "ym2612"
    },
    {
      "channel": 1,
      "note": 35,
      "start": 37.712,
      "duration": 0.53,
      "velocity": 122,
      "chip": "ym2612"
    },
    {
      "channel": 1,
      "note": 28,
      "start": 38.2783,
      "duration": 0.1207,
      "velocity": 127,
      "chip": "ym2612"
    },
    {
      "channel": 1,
      "note": 28,
      "start": 38.659,
      "duration": 0.1163,
      "velocity": 127,
      "chip": "ym2612"
    },
    {
      "channel": 0,
      "note": 85,
      "start": 38.8471,
      "duration": 0.1616,
      "velocity": 96,
      "chip": "ym2612"
    },
    {
      "channel": 1,
      "note": 28,
      "start": 38.8476,
      "duration": 0.1277,
      "velocity": 127,
      "chip": "ym2612"
    },
    {
      "channel": 2,
      "note": 35,
      "start": 38.8482,
      "duration": 2.2606,
      "velocity": 119,
      "chip": "ym2612"
    },
    {
      "channel": 0,
      "note": 83,
      "start": 39.0426,
      "duration": 0.1494,
      "velocity": 96,
      "chip": "ym2612"
    },
    {
      "channel": 0,
      "note": 85,
      "start": 39.2301,
      "duration": 0.1285,
      "velocity": 96,
      "chip": "ym2612"
    },
    {
      "channel": 0,
      "note": 80,
      "start": 39.4256,
      "duration": 1.5997,
      "velocity": 96,
      "chip": "ym2612"
    },
    {
      "channel": 1,
      "note": 28,
      "start": 39.4262,
      "duration": 0.1158,
      "velocity": 127,
      "chip": "ym2612"
    },
    {
      "channel": 1,
      "note": 35,
      "start": 39.995,
      "duration": 0.5303,
      "velocity": 122,
      "chip": "ym2612"
    },
    {
      "channel": 1,
      "note": 28,
      "start": 40.5617,
      "duration": 0.1181,
      "velocity": 127,
      "chip": "ym2612"
    },
    {
      "channel": 1,
      "note": 28,
      "start": 40.9423,
      "duration": 0.1163,
      "velocity": 127,
      "chip": "ym2612"
    },
    {
      "channel": 0,
      "note": 81,
      "start": 41.1291,
      "duration": 0.1795,
      "velocity": 96,
      "chip": "ym2612"
    },
    {
      "channel": 1,
      "note": 28,
      "start": 41.1297,
      "duration": 0.129,
      "velocity": 127,
      "chip": "ym2612"
    },
    {
      "channel": 2,
      "note": 38,
      "start": 41.1303,
      "duration": 1.1118,
      "velocity": 119,
      "chip": "ym2612"
    },
    {
      "channel": 0,
      "note": 80,
      "start": 41.3256,
      "duration": 0.183,
      "velocity": 96,
      "chip": "ym2612"
    },
    {
      "channel": 0,
      "note": 81,
      "start": 41.5139,
      "duration": 0.1281,
      "velocity": 96,
      "chip": "ym2612"
    },
    {
      "channel": 0,
      "note": 74,
      "start": 41.7093,
      "duration": 1.1327,
      "velocity": 96,
      "chip": "ym2612"
    },
    {
      "channel": 1,
      "note": 28,
      "start": 41.7098,
      "duration": 0.1155,
      "velocity": 127,
      "chip": "ym2612"
    },
    {
      "channel": 1,
      "note": 35,
      "start": 42.2783,
      "duration": 0.5303,
      "velocity": 122,
      "chip": "ym2612"
    },
    {
      "channel": 2,
      "note": 35,
      "start": 42.279,
      "duration": 1.1131,
      "velocity": 119,
      "chip": "ym2612"
    },
    {
      "channel": 0,
      "note": 74,
      "start": 42.8462,
      "duration": 0.2791,
      "velocity": 96,
      "chip": "ym2612"
    },
    {
      "channel": 1,
      "note": 28,
      "start": 42.8495,
      "duration": 0.1137,
      "velocity": 127,
      "chip": "ym2612"
    },
    {
      "channel": 0,
      "note": 76,
      "start": 43.1292,
      "duration": 0.1329,
      "velocity": 96,
      "chip": "ym2612"
    },
    {
      "channel": 0,
      "note": 78,
      "start": 43.2756,
      "duration": 0.083,
      "velocity": 96,
      "chip": "ym2612"
    },
    {
      "channel": 0,
      "note": 80,
      "start": 43.4256,
      "duration": 2.2531,
      "velocity": 96,
      "chip": "ym2612"
    },
    {
      "channel": 1,
      "note": 28,
      "start": 43.4262,
      "duration": 0.1158,
      "velocity": 127,
      "chip": "ym2612"
    },
    {
      "channel": 2,
      "note": 37,
      "start": 43.4268,
      "duration": 1.0819,
      "velocity": 119,
      "chip": "ym2612"
    },
    {
      "channel": 1,
      "note": 28,
      "start": 43.9923,
      "duration": 0.1163,
      "velocity": 127,
      "chip": "ym2612"
    },
    {
      "channel": 1,
      "note": 28,
      "start": 44.1805,
      "duration": 0.116,
      "velocity": 127,
      "chip": "ym2612"
    },
    {
      "channel": 1,
      "note": 28,
      "start": 44.376,
      "duration": 0.116,
      "velocity": 127,
      "chip": "ym2612"
    },
    {
      "channel": 1,
      "note": 28,
      "start": 44.559,
      "duration": 0.1208,
      "velocity": 127,
      "chip": "ym2612"
    },
    {
      "channel": 2,
      "note": 49,
      "start": 44.5596,
      "duration": 1.0825,
      "velocity": 119,
      "chip": "ym2612"
    },
    {
      "channel": 1,
      "note": 28,
      "start": 45.1292,
      "duration": 0.1295,
      "velocity": 127,
      "chip": "ym2612"
    },
    {
      "channel": 0,
      "note": 52,
      "start": 45.7119,
      "duration": 1.03,
      "velocity": 103,
      "chip": "ym2612"
    },
    {
      "channel": 1,
      "note": 28,
      "start": 45.7125,
      "duration": 0.2295,
      "velocity": 127,
      "chip": "ym2612"
    },
    {
      "channel": 2,
      "note": 64,
      "start": 45.7158,
      "duration": 0.0763,
      "velocity": 87,
      "chip": "ym2612"
    },
    {
      "channel": 2,
      "note": 64,
      "start": 45.8924,
      "duration": 0.083,
      "velocity": 87,
      "chip": "ym2612"
    },
    {
      "channel": 2,
      "note": 64,
      "start": 46.0924,
      "duration": 0.083,
      "velocity": 87,
      "chip": "ym2612"
    },
    {
      "channel": 2,
      "note": 64,
      "start": 46.2757,
      "duration": 0.083,
      "velocity": 87,
      "chip": "ym2612"
    },
    {
      "channel": 2,
      "note": 64,
      "start": 46.4644,
      "duration": 0.082,
      "velocity": 87,
      "chip": "ym2612"
    },
    {
      "channel": 1,
      "note": 28,
      "start": 46.659,
      "duration": 0.1163,
      "velocity": 127,
      "chip": "ym2612"
    },
    {
      "channel": 2,
      "note": 64,
      "start": 46.6596,
      "duration": 0.0826,
      "velocity": 87,
      "chip": "ym2612"
    },
    {
      "channel": 0,
      "note": 57,
      "start": 46.8469,
      "duration": 0.4617,
      "velocity": 103,
      "chip": "ym2612"
    },
    {
      "channel": 1,
      "note": 35,
      "start": 46.8496,
      "duration": 0.7091,
      "velocity": 122,
      "chip": "ym2612"
    },
    {
      "channel": 2,
      "note": 69,
      "start": 46.8502,
      "duration": 0.0761,
      "velocity": 87,
      "chip": "ym2612"
    },
    {
      "channel": 2,
      "note": 69,
      "start": 47.0427,
      "duration": 0.0827,
      "velocity": 87,
      "chip": "ym2612"
    },
    {
      "channel": 2,
      "note": 69,
      "start": 47.2257,
      "duration": 0.0834,
      "velocity": 87,
      "chip": "ym2612"
    },
    {
      "channel": 0,
      "note": 57,
      "start": 47.4256,
      "duration": 0.0997,
      "velocity": 103,
      "chip": "ym2612"
    },
    {
      "channel": 2,
      "note": 69,
      "start": 47.4263,
      "duration": 0.0824,
      "velocity": 87,
      "chip": "ym2612"
    },
    {
      "channel": 0,
      "note": 64,
      "start": 47.609,
      "duration": 0.1015,
      "velocity": 103,
      "chip": "ym2612"
    },
    {
      "channel": 2,
      "note": 69,
      "start": 47.6096,
      "duration": 0.0824,
      "velocity": 87,
      "chip": "ym2612"
    },
    {
      "channel": 0,
      "note": 69,
      "start": 47.7933,
      "duration": 0.1154,
      "velocity": 103,
      "chip": "ym2612"
    },
    {
      "channel": 2,
      "note": 69,
      "start": 47.794,
      "duration": 0.0824,
      "velocity": 87,
      "chip": "ym2612"
    },
    {
      "channel": 0,
      "note": 65,
      "start": 47.9923,
      "duration": 1.0558,
      "velocity": 103,
      "chip": "ym2612"
    },
    {
      "channel": 1,
      "note": 28,
      "start": 47.9949,
      "duration": 0.2304,
      "velocity": 127,
      "chip": "ym2612"
    },
    {
      "channel": 2,
      "note": 65,
      "start": 47.9956,
      "duration": 0.0798,
      "velocity": 87,
      "chip": "ym2612"
    },
    {
      "channel": 2,
      "note": 65,
      "start": 48.1781,
      "duration": 0.0826,
      "velocity": 87,
      "chip": "ym2612"
    },
    {
      "channel": 2,
      "note": 65,
      "start": 48.3761,
      "duration": 0.0827,
      "velocity": 87,
      "chip": "ym2612"
    },
    {
      "channel": 2,
      "note": 65,
      "start": 48.5591,
      "duration": 0.083,
      "velocity": 87,
      "chip": "ym2612"
    },
    {
      "channel": 2,
      "note": 65,
      "start": 48.7591,
      "duration": 0.083,
      "velocity": 87,
      "chip": "ym2612"
    },
    {
      "channel": 1,
      "note": 28,
      "start": 48.9423,
      "duration": 0.1163,
      "velocity": 127,
      "chip": "ym2612"
    },
    {
      "channel": 2,
      "note": 65,
      "start": 48.9429,
      "duration": 0.0825,
      "velocity": 87,
      "chip": "ym2612"
    },
    {
      "channel": 0,
      "note": 60,
      "start": 49.13,
      "duration": 0.4653,
      "velocity": 103,
      "chip": "ym2612"
    },
    {
      "channel": 1,
      "note": 35,
      "start": 49.1327,
      "duration": 0.7106,
      "velocity": 122,
      "chip": "ym2612"
    },
    {
      "channel": 2,
      "note": 60,
      "start": 49.1332,
      "duration": 0.0765,
      "velocity": 87,
      "chip": "ym2612"
    },
    {
      "channel": 2,
      "note": 60,
      "start": 49.3257,
      "duration": 0.083,
      "velocity": 87,
      "chip": "ym2612"
    },
    {
      "channel": 2,
      "note": 60,
      "start": 49.5137,
      "duration": 0.0817,
      "velocity": 87,
      "chip": "ym2612"
    },
    {
      "channel": 0,
      "note": 60,
      "start": 49.7093,
      "duration": 0.116,
      "velocity": 103,
      "chip": "ym2612"
    },
    {
      "channel": 2,
      "note": 60,
      "start": 49.71,
      "duration": 0.0821,
      "velocity": 87,
      "chip": "ym2612"
    },
    {
      "channel": 0,
      "note": 65,
      "start": 49.8923,
      "duration": 0.1173,
      "velocity": 103,
      "chip": "ym2612"
    },
    {
      "channel": 2,
      "note": 60,
      "start": 49.893,
      "duration": 0.0824,
      "velocity": 87,
      "chip": "ym2612"
    },
    {
      "channel": 0,
      "note": 72,
      "start": 50.0923,
      "duration": 0.0997,
      "velocity": 103,
      "chip": "ym2612"
    },
    {
      "channel": 2,
      "note": 60,
      "start": 50.093,
      "duration": 0.0824,
      "velocity": 87,
      "chip": "ym2612"
    },
    {
      "channel": 0,
      "note": 68,
      "start": 50.2756,
      "duration": 1.133,
      "velocity": 103,
      "chip": "ym2612"
    },
    {
      "channel": 1,
      "note": 28,
      "start": 50.2783,
      "duration": 0.2327,
      "velocity": 127,
      "chip": "ym2612"
    },
    {
      "channel": 2,
      "note": 68,
      "start": 50.2789,
      "duration": 0.0798,
      "velocity": 87,
      "chip": "ym2612"
    },
    {
      "channel": 2,
      "note": 68,
      "start": 50.4611,
      "duration": 0.0829,
      "velocity": 87,
      "chip": "ym2612"
    },
    {
      "channel": 2,
      "note": 68,
      "start": 50.6591,
      "duration": 0.083,
      "velocity": 87,
      "chip": "ym2612"
    },
    {
      "channel": 2,
      "note": 68,
      "start": 50.8427,
      "duration": 0.0827,
      "velocity": 87,
      "chip": "ym2612"
    },
    {
      "channel": 2,
      "note": 68,
      "start": 51.0427,
      "duration": 0.0827,
      "velocity": 87,
      "chip": "ym2612"
    },
    {
      "channel": 1,
      "note": 28,
      "start": 51.2257,
      "duration": 0.1163,
      "velocity": 127,
      "chip": "ym2612"
    },
    {
      "channel": 2,
      "note": 68,
      "start": 51.2263,
      "duration": 0.0825,
      "velocity": 87,
      "chip": "ym2612"
    },
    {
      "channel": 0,
      "note": 62,
      "start": 51.4134,
      "duration": 0.8119,
      "velocity": 103,
      "chip": "ym2612"
    },
    {
      "channel": 1,
      "note": 35,
      "start": 51.4161,
      "duration": 0.7135,
      "velocity": 122,
      "chip": "ym2612"
    },
    {
      "channel": 2,
      "note": 62,
      "start": 51.4167,
      "duration": 0.0763,
      "velocity": 87,
      "chip": "ym2612"
    },
    {
      "channel": 2,
      "note": 62,
      "start": 51.6091,
      "duration": 0.083,
      "velocity": 87,
      "chip": "ym2612"
    },
    {
      "channel": 2,
      "note": 62,
      "start": 51.7968,
      "duration": 0.0819,
      "velocity": 87,
      "chip": "ym2612"
    },
    {
      "channel": 2,
      "note": 62,
      "start": 51.9926,
      "duration": 0.0828,
      "velocity": 87,
      "chip": "ym2612"
    },
    {
      "channel": 2,
      "note": 62,
      "start": 52.1761,
      "duration": 0.0827,
      "velocity": 87,
      "chip": "ym2612"
    },
    {
      "channel": 2,
      "note": 62,
      "start": 52.3761,
      "duration": 0.0827,
      "velocity": 87,
      "chip": "ym2612"
    },
    {
      "channel": 0,
      "note": 62,
      "start": 52.4122,
      "duration": 0.0807,
      "velocity": 103,
      "chip": "ym2612"
    },
    {
      "channel": 0,
      "note": 59,
      "start": 52.559,
      "duration": 1.1049,
      "velocity": 103,
      "chip": "ym2612"
    },
    {
      "channel": 1,
      "note": 28,
      "start": 52.5616,
      "duration": 0.2324,
      "velocity": 127,
      "chip": "ym2612"
    },
    {
      "channel": 2,
      "note": 71,
      "start": 52.5622,
      "duration": 0.0798,
      "velocity": 87,
      "chip": "ym2612"
    },
    {
      "channel": 2,
      "note": 71,
      "start": 52.7444,
      "duration": 0.0829,
      "velocity": 87,
      "chip": "ym2612"
    },
    {
      "channel": 2,
      "note": 71,
      "start": 52.9424,
      "duration": 0.083,
      "velocity": 87,
      "chip": "ym2612"
    },
    {
      "channel": 2,
      "note": 71,
      "start": 53.1311,
      "duration": 0.082,
      "velocity": 87,
      "chip": "ym2612"
    },
    {
      "channel": 2,
      "note": 71,
      "start": 53.3258,
      "duration": 0.0829,
      "velocity": 87,
      "chip": "ym2612"
    },
    {
      "channel": 1,
      "note": 28,
      "start": 53.5093,
      "duration": 0.1213,
      "velocity": 127,
      "chip": "ym2612"
    },
    {
      "channel": 2,
      "note": 71,
      "start": 53.5099,
      "duration": 0.0822,
      "velocity": 87,
      "chip": "ym2612"
    },
    {
      "channel": 0,
      "note": 64,
      "start": 53.7093,
      "duration": 1.0327,
      "velocity": 103,
      "chip": "ym2612"
    },
    {
      "channel": 1,
      "note": 35,
      "start": 53.7119,
      "duration": 0.5301,
      "velocity": 122,
      "chip": "ym2612"
    },
    {
      "channel": 2,
      "note": 64,
      "start": 53.7125,
      "duration": 0.0796,
      "velocity": 87,
      "chip": "ym2612"
    },
    {
      "channel": 2,
      "note": 64,
      "start": 53.8924,
      "duration": 0.083,
      "velocity": 87,
      "chip": "ym2612"
    },
    {
      "channel": 2,
      "note": 64,
      "start": 54.0801,
      "duration": 0.082,
      "velocity": 87,
      "chip": "ym2612"
    },
    {
      "channel": 1,
      "note": 28,
      "start": 54.2778,
      "duration": 0.1142,
      "velocity": 127,
      "chip": "ym2612"
    },
    {
      "channel": 2,
      "note": 64,
      "start": 54.2783,
      "duration": 0.0804,
      "velocity": 87,
      "chip": "ym2612"
    },
    {
      "channel": 2,
      "note": 64,
      "start": 54.4644,
      "duration": 0.082,
      "velocity": 87,
      "chip": "ym2612"
    },
    {
      "channel": 1,
      "note": 28,
      "start": 54.659,
      "duration": 0.1163,
      "velocity": 127,
      "chip": "ym2612"
    },
    {
      "channel": 2,
      "note": 64,
      "start": 54.6596,
      "duration": 0.0826,
      "velocity": 87,
      "chip": "ym2612"
    },
    {
      "channel": 0,
      "note": 65,
      "start": 54.8426,
      "duration": 0.9994,
      "velocity": 103,
      "chip": "ym2612"
    },
    {
      "channel": 1,
      "note": 28,
      "start": 54.8432,
      "duration": 0.2341,
      "velocity": 127,
      "chip": "ym2612"
    },
    {
      "channel": 2,
      "note": 65,
      "start": 54.8438,
      "duration": 0.0816,
      "velocity": 87,
      "chip": "ym2612"
    },
    {
      "channel": 2,
      "note": 65,
      "start": 55.0427,
      "duration": 0.0827,
      "velocity": 87,
      "chip": "ym2612"
    },
    {
      "channel": 2,
      "note": 65,
      "start": 55.2257,
      "duration": 0.083,
      "velocity": 87,
      "chip": "ym2612"
    },
    {
      "channel": 2,
      "note": 65,
      "start": 55.4144,
      "duration": 0.082,
      "velocity": 87,
      "chip": "ym2612"
    },
    {
      "channel": 2,
      "note": 65,
      "start": 55.6091,
      "duration": 0.083,
      "velocity": 87,
      "chip": "ym2612"
    },
    {
      "channel": 1,
      "note": 28,
      "start": 55.7967,
      "duration": 0.1175,
      "velocity": 127,
      "chip": "ym2612"
    },
    {
      "channel": 2,
      "note": 65,
      "start": 55.7973,
      "duration": 0.0834,
      "velocity": 87,
      "chip": "ym2612"
    },
    {
      "channel": 0,
      "note": 65,
      "start": 55.9923,
      "duration": 0.4708,
      "velocity": 103,
      "chip": "ym2612"
    },
    {
      "channel": 1,
      "note": 35,
      "start": 55.9949,
      "duration": 0.3637,
      "velocity": 122,
      "chip": "ym2612"
    },
    {
      "channel": 2,
      "note": 65,
      "start": 55.9956,
      "duration": 0.0798,
      "velocity": 87,
      "chip": "ym2612"
    },
    {
      "channel": 2,
      "note": 65,
      "start": 56.1761,
      "duration": 0.0827,
      "velocity": 87,
      "chip": "ym2612"
    },
    {
      "channel": 1,
      "note": 28,
      "start": 56.3781,
      "duration": 0.1139,
      "velocity": 127,
      "chip": "ym2612"
    },
    {
      "channel": 2,
      "note": 65,
      "start": 56.3787,
      "duration": 0.0801,
      "velocity": 87,
      "chip": "ym2612"
    },
    {
      "channel": 0,
      "note": 65,
      "start": 56.559,
      "duration": 0.1022,
      "velocity": 103,
      "chip": "ym2612"
    },
    {
      "channel": 1,
      "note": 28,
      "start": 56.5595,
      "duration": 0.1158,
      "velocity": 127,
      "chip": "ym2612"
    },
    {
      "channel": 2,
      "note": 65,
      "start": 56.5602,
      "duration": 0.0819,
      "velocity": 87,
      "chip": "ym2612"
    },
    {
      "channel": 0,
      "note": 63,
      "start": 56.7443,
      "duration": 0.0977,
      "velocity": 103,
      "chip": "ym2612"
    },
    {
      "channel": 2,
      "note": 63,
      "start": 56.7449,
      "duration": 0.0824,
      "velocity": 87,
      "chip": "ym2612"
    },
    {
      "channel": 0,
      "note": 61,
      "start": 56.9423,
      "duration": 0.0997,
      "velocity": 103,
      "chip": "ym2612"
    },
    {
      "channel": 1,
      "note": 28,
      "start": 56.9429,
      "duration": 0.1158,
      "velocity": 127,
      "chip": "ym2612"
    },
    {
      "channel": 2,
      "note": 61,
      "start": 56.9435,
      "duration": 0.0819,
      "velocity": 87,
      "chip": "ym2612"
    },
    {
      "channel": 0,
      "note": 59,
      "start": 57.1276,
      "duration": 1.0643,
      "velocity": 103,
      "chip": "ym2612"
    },
    {
      "channel": 1,
      "note": 28,
      "start": 57.1282,
      "duration": 0.2471,
      "velocity": 127,
      "chip": "ym2612"
    },
    {
      "channel": 2,
      "note": 59,
      "start": 57.1288,
      "duration": 0.0819,
      "velocity": 87,
      "chip": "ym2612"
    },
    {
      "channel": 2,
      "note": 71,
      "start": 57.3258,
      "duration": 0.0829,
      "velocity": 87,
      "chip": "ym2612"
    },
    {
      "channel": 2,
      "note": 71,
      "start": 57.5094,
      "duration": 0.0827,
      "velocity": 87,
      "chip": "ym2612"
    },
    {
      "channel": 2,
      "note": 71,
      "start": 57.7094,
      "duration": 0.0827,
      "velocity": 87,
      "chip": "ym2612"
    },
    {
      "channel": 2,
      "note": 71,
      "start": 57.8924,
      "duration": 0.083,
      "velocity": 87,
      "chip": "ym2612"
    },
    {
      "channel": 1,
      "note": 28,
      "start": 58.081,
      "duration": 0.1277,
      "velocity": 127,
      "chip": "ym2612"
    },
    {
      "channel": 2,
      "note": 71,
      "start": 58.0816,
      "duration": 0.0815,
      "velocity": 87,
      "chip": "ym2612"
    },
    {
      "channel": 0,
      "note": 59,
      "start": 58.2756,
      "duration": 0.4663,
      "velocity": 103,
      "chip": "ym2612"
    },
    {
      "channel": 1,
      "note": 35,
      "start": 58.2783,
      "duration": 0.5304,
      "velocity": 122,
      "chip": "ym2612"
    },
    {
      "channel": 2,
      "note": 71,
      "start": 58.2789,
      "duration": 0.0798,
      "velocity": 87,
      "chip": "ym2612"
    },
    {
      "channel": 2,
      "note": 71,
      "start": 58.4602,
      "duration": 0.0829,
      "velocity": 87,
      "chip": "ym2612"
    },
    {
      "channel": 2,
      "note": 71,
      "start": 58.6591,
      "duration": 0.0831,
      "velocity": 87,
      "chip": "ym2612"
    },
    {
      "channel": 0,
      "note": 59,
      "start": 58.8426,
      "duration": 0.116,
      "velocity": 103,
      "chip": "ym2612"
    },
    {
      "channel": 1,
      "note": 28,
      "start": 58.8453,
      "duration": 0.1155,
      "velocity": 127,
      "chip": "ym2612"
    },
    {
      "channel": 2,
      "note": 71,
      "start": 58.8459,
      "duration": 0.0795,
      "velocity": 87,
      "chip": "ym2612"
    },
    {
      "channel": 0,
      "note": 57,
      "start": 59.0426,
      "duration": 0.0848,
      "velocity": 103,
      "chip": "ym2612"
    },
    {
      "channel": 1,
      "note": 28,
      "start": 59.0432,
      "duration": 0.1155,
      "velocity": 127,
      "chip": "ym2612"
    },
    {
      "channel": 2,
      "note": 69,
      "start": 59.0438,
      "duration": 0.0816,
      "velocity": 87,
      "chip": "ym2612"
    },
    {
      "channel": 0,
      "note": 56,
      "start": 59.2256,
      "duration": 0.0997,
      "velocity": 103,
      "chip": "ym2612"
    },
    {
      "channel": 1,
      "note": 28,
      "start": 59.2262,
      "duration": 0.1158,
      "velocity": 127,
      "chip": "ym2612"
    },
    {
      "channel": 2,
      "note": 68,
      "start": 59.2268,
      "duration": 0.082,
      "velocity": 87,
      "chip": "ym2612"
    },
    {
      "channel": 0,
      "note": 55,
      "start": 59.411,
      "duration": 1.0477,
      "velocity": 103,
      "chip": "ym2612"
    },
    {
      "channel": 1,
      "note": 28,
      "start": 59.4116,
      "duration": 0.2471,
      "velocity": 127,
      "chip": "ym2612"
    },
    {
      "channel": 2,
      "note": 67,
      "start": 59.4121,
      "duration": 0.0819,
      "velocity": 87,
      "chip": "ym2612"
    },
    {
      "channel": 2,
      "note": 67,
      "start": 59.6091,
      "duration": 0.083,
      "velocity": 87,
      "chip": "ym2612"
    },
    {
      "channel": 2,
      "note": 67,
      "start": 59.7978,
      "duration": 0.0819,
      "velocity": 87,
      "chip": "ym2612"
    },
    {
      "channel": 2,
      "note": 67,
      "start": 59.9924,
      "duration": 0.083,
      "velocity": 87,
      "chip": "ym2612"
    },
    {
      "channel": 2,
      "note": 67,
      "start": 60.1761,
      "duration": 0.0827,
      "velocity": 87,
      "chip": "ym2612"
    },
    {
      "channel": 1,
      "note": 28,
      "start": 60.376,
      "duration": 0.116,
      "velocity": 127,
      "chip": "ym2612"
    },
    {
      "channel": 2,
      "note": 67,
      "start": 60.3766,
      "duration": 0.0823,
      "velocity": 87,
      "chip": "ym2612"
    },
    {
      "channel": 0,
      "note": 61,
      "start": 60.559,
      "duration": 1.0497,
      "velocity": 103,
      "chip": "ym2612"
    },
    {
      "channel": 1,
      "note": 35,
      "start": 60.5616,
      "duration": 0.7137,
      "velocity": 122,
      "chip": "ym2612"
    },
    {
      "channel": 2,
      "note": 73,
      "start": 60.5622,
      "duration": 0.0798,
      "velocity": 87,
      "chip": "ym2612"
    },
    {
      "channel": 2,
      "note": 73,
      "start": 60.7435,
      "duration": 0.0829,
      "velocity": 87,
      "chip": "ym2612"
    },
    {
      "channel": 2,
      "note": 73,
      "start": 60.9425,
      "duration": 0.0829,
      "velocity": 87,
      "chip": "ym2612"
    },
    {
      "channel": 2,
      "note": 73,
      "start": 61.1257,
      "duration": 0.083,
      "velocity": 87,
      "chip": "ym2612"
    },
    {
      "channel": 2,
      "note": 73,
      "start": 61.3258,
      "duration": 0.0829,
      "velocity": 87,
      "chip": "ym2612"
    },
    {
      "channel": 1,
      "note": 28,
      "start": 61.5114,
      "duration": 0.1139,
      "velocity": 127,
      "chip": "ym2612"
    },
    {
      "channel": 2,
      "note": 73,
      "start": 61.5121,
      "duration": 0.08,
      "velocity": 87,
      "chip": "ym2612"
    },
    {
      "channel": 0,
      "note": 68,
      "start": 61.6966,
      "duration": 1.112,
      "velocity": 103,
      "chip": "ym2612"
    },
    {
      "channel": 1,
      "note": 28,
      "start": 61.6972,
      "duration": 0.2448,
      "velocity": 127,
      "chip": "ym2612"
    },
    {
      "channel": 2,
      "note": 68,
      "start": 61.6978,
      "duration": 0.0799,
      "velocity": 87,
      "chip": "ym2612"
    },
    {
      "channel": 2,
      "note": 68,
      "start": 61.8924,
      "duration": 0.083,
      "velocity": 87,
      "chip": "ym2612"
    },
    {
      "channel": 2,
      "note": 68,
      "start": 62.0811,
      "duration": 0.082,
      "velocity": 87,
      "chip": "ym2612"
    },
    {
      "channel": 2,
      "note": 68,
      "start": 62.2757,
      "duration": 0.083,
      "velocity": 87,
      "chip": "ym2612"
    },
    {
      "channel": 2,
      "note": 68,
      "start": 62.4591,
      "duration": 0.083,
      "velocity": 87,
      "chip": "ym2612"
    },
    {
      "channel": 1,
      "note": 28,
      "start": 62.659,
      "duration": 0.1163,
      "velocity": 127,
      "chip": "ym2612"
    },
    {
      "channel": 2,
      "note": 68,
      "start": 62.6596,
      "duration": 0.0825,
      "velocity": 87,
      "chip": "ym2612"
    },
    {
      "channel": 0,
      "note": 73,
      "start": 62.8426,
      "duration": 0.7494,
      "velocity": 103,
      "chip": "ym2612"
    },
    {
      "channel": 1,
      "note": 35,
      "start": 62.8453,
      "duration": 0.5301,
      "velocity": 122,
      "chip": "ym2612"
    },
    {
      "channel": 2,
      "note": 61,
      "start": 62.8459,
      "duration": 0.0796,
      "velocity": 87,
      "chip": "ym2612"
    },
    {
      "channel": 2,
      "note": 73,
      "start": 63.0268,
      "duration": 0.0832,
      "velocity": 87,
      "chip": "ym2612"
    },
    {
      "channel": 2,
      "note": 73,
      "start": 63.2257,
      "duration": 0.083,
      "velocity": 87,
      "chip": "ym2612"
    },
    {
      "channel": 1,
      "note": 28,
      "start": 63.4155,
      "duration": 0.1142,
      "velocity": 127,
      "chip": "ym2612"
    },
    {
      "channel": 2,
      "note": 61,
      "start": 63.4161,
      "duration": 0.0803,
      "velocity": 87,
      "chip": "ym2612"
    },
    {
      "channel": 1,
      "note": 28,
      "start": 63.609,
      "duration": 0.1163,
      "velocity": 127,
      "chip": "ym2612"
    },
    {
      "channel": 2,
      "note": 73,
      "start": 63.6096,
      "duration": 0.0825,
      "velocity": 87,
      "chip": "ym2612"
    },
    {
      "channel": 1,
      "note": 28,
      "start": 63.7923,
      "duration": 0.122,
      "velocity": 127,
      "chip": "ym2612"
    },
    {
      "channel": 2,
      "note": 73,
      "start": 63.7929,
      "duration": 0.0825,
      "velocity": 87,
      "chip": "ym2612"
    },
    {
      "channel": 0,
      "note": 81,
      "start": 63.995,
      "duration": 0.0803,
      "velocity": 42,
      "chip": "ym2612"
    },
    {
      "channel": 0,
      "note": 81,
      "start": 64.1759,
      "duration": 0.0827,
      "velocity": 42,
      "chip": "ym2612"
    },
    {
      "channel": 1,
      "note": 81,
      "start": 64.2757,
      "duration": 0.0829,
      "velocity": 42,
      "chip": "ym2612"
    },
    {
      "channel": 0,
      "note": 81,
      "start": 64.3602,
      "duration": 0.0832,
      "velocity": 42,
      "chip": "ym2612"
    },
    {
      "channel": 1,
      "note": 81,
      "start": 64.459,
      "duration": 0.083,
      "velocity": 42,
      "chip": "ym2612"
    },
    {
      "channel": 0,
      "note": 87,
      "start": 64.559,
      "duration": 0.083,
      "velocity": 42,
      "chip": "ym2612"
    },
    {
      "channel": 1,
      "note": 81,
      "start": 64.6591,
      "duration": 0.0829,
      "velocity": 42,
      "chip": "ym2612"
    },
    {
      "channel": 0,
      "note": 87,
      "start": 64.7435,
      "duration": 0.0829,
      "velocity": 42,
      "chip": "ym2612"
    },
    {
      "channel": 1,
      "note": 87,
      "start": 64.8427,
      "duration": 0.0827,
      "velocity": 42,
      "chip": "ym2612"
    },
    {
      "channel": 0,
      "note": 87,
      "start": 64.9423,
      "duration": 0.083,
      "velocity": 42,
      "chip": "ym2612"
    },
    {
      "channel": 1,
      "note": 87,
      "start": 65.0269,
      "duration": 0.0831,
      "velocity": 42,
      "chip": "ym2612"
    },
    {
      "channel": 0,
      "note": 86,
      "start": 65.1256,
      "duration": 0.083,
      "velocity": 42,
      "chip": "ym2612"
    },
    {
      "channel": 1,
      "note": 87,
      "start": 65.2257,
      "duration": 0.083,
      "velocity": 42,
      "chip": "ym2612"
    },
    {
      "channel": 0,
      "note": 86,
      "start": 65.3256,
      "duration": 0.083,
      "velocity": 42,
      "chip": "ym2612"
    },
    {
      "channel": 1,
      "note": 86,
      "start": 65.4103,
      "duration": 0.0828,
      "velocity": 42,
      "chip": "ym2612"
    },
    {
      "channel": 0,
      "note": 86,
      "start": 65.5093,
      "duration": 0.0827,
      "velocity": 42,
      "chip": "ym2612"
    },
    {
      "channel": 1,
      "note": 86,
      "start": 65.6091,
      "duration": 0.0829,
      "velocity": 42,
      "chip": "ym2612"
    },
    {
      "channel": 0,
      "note": 92,
      "start": 65.6935,
      "duration": 0.0848,
      "velocity": 42,
      "chip": "ym2612"
    },
    {
      "channel": 2,
      "note": 52,
      "start": 65.6941,
      "duration": 0.0844,
      "velocity": 100,
      "chip": "ym2612"
    },
    {
      "channel": 1,
      "note": 86,
      "start": 65.7923,
      "duration": 0.083,
      "velocity": 42,
      "chip": "ym2612"
    },
    {
      "channel": 0,
      "note": 92,
      "start": 65.8923,
      "duration": 0.083,
      "velocity": 42,
      "chip": "ym2612"
    },
    {
      "channel": 2,
      "note": 52,
      "start": 65.8929,
      "duration": 0.0829,
      "velocity": 100,
      "chip": "ym2612"
    },
    {
      "channel": 1,
      "note": 92,
      "start": 65.9924,
      "duration": 0.0829,
      "velocity": 42,
      "chip": "ym2612"
    },
    {
      "channel": 0,
      "note": 92,
      "start": 66.0784,
      "duration": 0.0829,
      "velocity": 42,
      "chip": "ym2612"
    },
    {
      "channel": 2,
      "note": 40,
      "start": 66.079,
      "duration": 0.0824,
      "velocity": 100,
      "chip": "ym2612"
    },
    {
      "channel": 1,
      "note": 92,
      "start": 66.176,
      "duration": 0.0827,
      "velocity": 42,
      "chip": "ym2612"
    },
    {
      "channel": 0,
      "note": 90,
      "start": 66.2756,
      "duration": 0.083,
      "velocity": 42,
      "chip": "ym2612"
    },
    {
      "channel": 1,
      "note": 92,
      "start": 66.3619,
      "duration": 0.0831,
      "velocity": 42,
      "chip": "ym2612"
    },
    {
      "channel": 0,
      "note": 90,
      "start": 66.459,
      "duration": 0.083,
      "velocity": 42,
      "chip": "ym2612"
    },
    {
      "channel": 1,
      "note": 90,
      "start": 66.559,
      "duration": 0.083,
      "velocity": 42,
      "chip": "ym2612"
    },
    {
      "channel": 0,
      "note": 90,
      "start": 66.659,
      "duration": 0.083,
      "velocity": 42,
      "chip": "ym2612"
    },
    {
      "channel": 1,
      "note": 90,
      "start": 66.7452,
      "duration": 0.0828,
      "velocity": 42,
      "chip": "ym2612"
    },
    {
      "channel": 0,
      "note": 84,
      "start": 66.8426,
      "duration": 0.0827,
      "velocity": 42,
      "chip": "ym2612"
    },
    {
      "channel": 1,
      "note": 90,
      "start": 66.9424,
      "duration": 0.0829,
      "velocity": 42,
      "chip": "ym2612"
    },
    {
      "channel": 0,
      "note": 84,
      "start": 67.0284,
      "duration": 0.0832,
      "velocity": 42,
      "chip": "ym2612"
    },
    {
      "channel": 1,
      "note": 84,
      "start": 67.1257,
      "duration": 0.083,
      "velocity": 42,
      "chip": "ym2612"
    },
    {
      "channel": 0,
      "note": 84,
      "start": 67.2256,
      "duration": 0.0663,
      "velocity": 42,
      "chip": "ym2612"
    },
    {
      "channel": 1,
      "note": 84,
      "start": 67.3257,
      "duration": 0.0829,
      "velocity": 42,
      "chip": "ym2612"
    },
    {
      "channel": 0,
      "note": 88,
      "start": 67.4117,
      "duration": 0.0829,
      "velocity": 42,
      "chip": "ym2612"
    },
    {
      "channel": 1,
      "note": 84,
      "start": 67.5093,
      "duration": 0.069,
      "velocity": 42,
      "chip": "ym2612"
    },
    {
      "channel": 0,
      "note": 88,
      "start": 67.609,
      "duration": 0.083,
      "velocity": 42,
      "chip": "ym2612"
    },
    {
      "channel": 1,
      "note": 88,
      "start": 67.6952,
      "duration": 0.0831,
      "velocity": 42,
      "chip": "ym2612"
    },
    {
      "channel": 0,
      "note": 88,
      "start": 67.7923,
      "duration": 0.083,
      "velocity": 42,
      "chip": "ym2612"
    },
    {
      "channel": 1,
      "note": 88,
      "start": 67.8923,
      "duration": 0.083,
      "velocity": 42,
      "chip": "ym2612"
    },
    {
      "channel": 0,
      "note": 82,
      "start": 67.9923,
      "duration": 0.083,
      "velocity": 42,
      "chip": "ym2612"
    },
    {
      "channel": 1,
      "note": 88,
      "start": 68.0785,
      "duration": 0.0828,
      "velocity": 42,
      "chip": "ym2612"
    },
    {
      "channel": 0,
      "note": 82,
      "start": 68.1759,
      "duration": 0.0827,
      "velocity": 42,
      "chip": "ym2612"
    },
    {
      "channel": 1,
      "note": 82,
      "start": 68.2757,
      "duration": 0.0829,
      "velocity": 42,
      "chip": "ym2612"
    },
    {
      "channel": 0,
      "note": 82,
      "start": 68.3617,
      "duration": 0.0832,
      "velocity": 42,
      "chip": "ym2612"
    },
    {
      "channel": 1,
      "note": 82,
      "start": 68.459,
      "duration": 0.083,
      "velocity": 42,
      "chip": "ym2612"
    },
    {
      "channel": 0,
      "note": 81,
      "start": 68.559,
      "duration": 0.083,
      "velocity": 42,
      "chip": "ym2612"
    },
    {
      "channel": 1,
      "note": 82,
      "start": 68.6591,
      "duration": 0.0829,
      "velocity": 42,
      "chip": "ym2612"
    },
    {
      "channel": 0,
      "note": 81,
      "start": 68.746,
      "duration": 0.0829,
      "velocity": 42,
      "chip": "ym2612"
    },
    {
      "channel": 1,
      "note": 81,
      "start": 68.8427,
      "duration": 0.0827,
      "velocity": 42,
      "chip": "ym2612"
    },
    {
      "channel": 0,
      "note": 81,
      "start": 68.9423,
      "duration": 0.083,
      "velocity": 42,
      "chip": "ym2612"
    },
    {
      "channel": 1,
      "note": 81,
      "start": 69.0295,
      "duration": 0.0831,
      "velocity": 42,
      "chip": "ym2612"
    },
    {
      "channel": 0,
      "note": 86,
      "start": 69.1256,
      "duration": 0.083,
      "velocity": 42,
      "chip": "ym2612"
    },
    {
      "channel": 1,
      "note": 81,
      "start": 69.2257,
      "duration": 0.083,
      "velocity": 42,
      "chip": "ym2612"
    },
    {
      "channel": 0,
      "note": 86,
      "start": 69.3256,
      "duration": 0.083,
      "velocity": 42,
      "chip": "ym2612"
    },
    {
      "channel": 1,
      "note": 86,
      "start": 69.4128,
      "duration": 0.0828,
      "velocity": 42,
      "chip": "ym2612"
    },
    {
      "channel": 0,
      "note": 86,
      "start": 69.5093,
      "duration": 0.0827,
      "velocity": 42,
      "chip": "ym2612"
    },
    {
      "channel": 1,
      "note": 86,
      "start": 69.6091,
      "duration": 0.0829,
      "velocity": 42,
      "chip": "ym2612"
    },
    {
      "channel": 0,
      "note": 85,
      "start": 69.696,
      "duration": 0.0832,
      "velocity": 42,
      "chip": "ym2612"
    },
    {
      "channel": 1,
      "note": 86,
      "start": 69.7923,
      "duration": 0.083,
      "velocity": 42,
      "chip": "ym2612"
    },
    {
      "channel": 0,
      "note": 85,
      "start": 69.8923,
      "duration": 0.083,
      "velocity": 42,
      "chip": "ym2612"
    },
    {
      "channel": 1,
      "note": 85,
      "start": 69.9924,
      "duration": 0.0829,
      "velocity": 42,
      "chip": "ym2612"
    },
    {
      "channel": 0,
      "note": 85,
      "start": 70.0794,
      "duration": 0.0829,
      "velocity": 42,
      "chip": "ym2612"
    },
    {
      "channel": 1,
      "note": 85,
      "start": 70.176,
      "duration": 0.0827,
      "velocity": 42,
      "chip": "ym2612"
    },
    {
      "channel": 0,
      "note": 89,
      "start": 70.2756,
      "duration": 0.083,
      "velocity": 42,
      "chip": "ym2612"
    },
    {
      "channel": 2,
      "note": 52,
      "start": 70.2763,
      "duration": 0.0825,
      "velocity": 100,
      "chip": "ym2612"
    },
    {
      "channel": 1,
      "note": 85,
      "start": 70.3619,
      "duration": 0.083,
      "velocity": 42,
      "chip": "ym2612"
    },
    {
      "channel": 0,
      "note": 89,
      "start": 70.459,
      "duration": 0.083,
      "velocity": 42,
      "chip": "ym2612"
    },
    {
      "channel": 2,
      "note": 52,
      "start": 70.4596,
      "duration": 0.0826,
      "velocity": 100,
      "chip": "ym2612"
    },
    {
      "channel": 1,
      "note": 89,
      "start": 70.559,
      "duration": 0.083,
      "velocity": 42,
      "chip": "ym2612"
    },
    {
      "channel": 0,
      "note": 89,
      "start": 70.659,
      "duration": 0.083,
      "velocity": 42,
      "chip": "ym2612"
    },
    {
      "channel": 2,
      "note": 40,
      "start": 70.6596,
      "duration": 0.0825,
      "velocity": 100,
      "chip": "ym2612"
    },
    {
      "channel": 1,
      "note": 89,
      "start": 70.7453,
      "duration": 0.0801,
      "velocity": 42,
      "chip": "ym2612"
    },
    {
      "channel": 0,
      "note": 88,
      "start": 70.8426,
      "duration": 0.0827,
      "velocity": 42,
      "chip": "ym2612"
    },
    {
      "channel": 1,
      "note": 89,
      "start": 70.9424,
      "duration": 0.0829,
      "velocity": 42,
      "chip": "ym2612"
    },
    {
      "channel": 0,
      "note": 88,
      "start": 71.0283,
      "duration": 0.0833,
      "velocity": 42,
      "chip": "ym2612"
    },
    {
      "channel": 1,
      "note": 88,
      "start": 71.1257,
      "duration": 0.083,
      "velocity": 42,
      "chip": "ym2612"
    },
    {
      "channel": 0,
      "note": 88,
      "start": 71.2256,
      "duration": 0.083,
      "velocity": 42,
      "chip": "ym2612"
    },
    {
      "channel": 1,
      "note": 88,
      "start": 71.3122,
      "duration": 0.0825,
      "velocity": 42,
      "chip": "ym2612"
    },
    {
      "channel": 0,
      "note": 84,
      "start": 71.409,
      "duration": 0.083,
      "velocity": 42,
      "chip": "ym2612"
    },
    {
      "channel": 1,
      "note": 88,
      "start": 71.5093,
      "duration": 0.0827,
      "velocity": 42,
      "chip": "ym2612"
    },
    {
      "channel": 0,
      "note": 84,
      "start": 71.609,
      "duration": 0.083,
      "velocity": 42,
      "chip": "ym2612"
    },
    {
      "channel": 1,
      "note": 84,
      "start": 71.6952,
      "duration": 0.0831,
      "velocity": 42,
      "chip": "ym2612"
    },
    {
      "channel": 0,
      "note": 84,
      "start": 71.7923,
      "duration": 0.083,
      "velocity": 42,
      "chip": "ym2612"
    },
    {
      "channel": 1,
      "note": 84,
      "start": 71.8924,
      "duration": 0.0829,
      "velocity": 42,
      "chip": "ym2612"
    },
    {
      "channel": 0,
      "note": 87,
      "start": 71.9787,
      "duration": 0.0826,
      "velocity": 42,
      "chip": "ym2612"
    },
    {
      "channel": 1,
      "note": 84,
      "start": 72.0757,
      "duration": 0.083,
      "velocity": 42,
      "chip": "ym2612"
    },
    {
      "channel": 0,
      "note": 87,
      "start": 72.1759,
      "duration": 0.0827,
      "velocity": 42,
      "chip": "ym2612"
    },
    {
      "channel": 1,
      "note": 87,
      "start": 72.2757,
      "duration": 0.0829,
      "velocity": 42,
      "chip": "ym2612"
    },
    {
      "channel": 0,
      "note": 82,
      "start": 72.3617,
      "duration": 0.0832,
      "velocity": 42,
      "chip": "ym2612"
    },
    {
      "channel": 1,
      "note": 87,
      "start": 72.459,
      "duration": 0.083,
      "velocity": 42,
      "chip": "ym2612"
    },
    {
      "channel": 0,
      "note": 86,
      "start": 72.559,
      "duration": 0.083,
      "velocity": 42,
      "chip": "ym2612"
    },
    {
      "channel": 1,
      "note": 82,
      "start": 72.6455,
      "duration": 0.0825,
      "velocity": 42,
      "chip": "ym2612"
    },
    {
      "channel": 0,
      "note": 86,
      "start": 72.7423,
      "duration": 0.083,
      "velocity": 42,
      "chip": "ym2612"
    },
    {
      "channel": 1,
      "note": 86,
      "start": 72.8427,
      "duration": 0.0827,
      "velocity": 42,
      "chip": "ym2612"
    },
    {
      "channel": 0,
      "note": 81,
      "start": 72.9423,
      "duration": 0.083,
      "velocity": 42,
      "chip": "ym2612"
    },
    {
      "channel": 1,
      "note": 86,
      "start": 73.0285,
      "duration": 0.0831,
      "velocity": 42,
      "chip": "ym2612"
    },
    {
      "channel": 0,
      "note": 80,
      "start": 73.1256,
      "duration": 0.083,
      "velocity": 42,
      "chip": "ym2612"
    },
    {
      "channel": 1,
      "note": 81,
      "start": 73.2257,
      "duration": 0.0829,
      "velocity": 42,
      "chip": "ym2612"
    },
    {
      "channel": 0,
      "note": 80,
      "start": 73.313,
      "duration": 0.0826,
      "velocity": 42,
      "chip": "ym2612"
    },
    {
      "channel": 1,
      "note": 80,
      "start": 73.409,
      "duration": 0.083,
      "velocity": 42,
      "chip": "ym2612"
    },
    {
      "channel": 0,
      "note": 80,
      "start": 73.5093,
      "duration": 0.0827,
      "velocity": 42,
      "chip": "ym2612"
    },
    {
      "channel": 1,
      "note": 80,
      "start": 73.609,
      "duration": 0.083,
      "velocity": 42,
      "chip": "ym2612"
    },
    {
      "channel": 0,
      "note": 85,
      "start": 73.696,
      "duration": 0.0832,
      "velocity": 42,
      "chip": "ym2612"
    },
    {
      "channel": 1,
      "note": 80,
      "start": 73.7923,
      "duration": 0.083,
      "velocity": 42,
      "chip": "ym2612"
    },
    {
      "channel": 0,
      "note": 85,
      "start": 73.8923,
      "duration": 0.083,
      "velocity": 42,
      "chip": "ym2612"
    },
    {
      "channel": 1,
      "note": 85,
      "start": 73.9798,
      "duration": 0.0826,
      "velocity": 42,
      "chip": "ym2612"
    },
    {
      "channel": 0,
      "note": 85,
      "start": 74.0756,
      "duration": 0.083,
      "velocity": 42,
      "chip": "ym2612"
    },
    {
      "channel": 1,
      "note": 85,
      "start": 74.176,
      "duration": 0.0827,
      "velocity": 42,
      "chip": "ym2612"
    },
    {
      "channel": 0,
      "note": 84,
      "start": 74.2756,
      "duration": 0.083,
      "velocity": 42,
      "chip": "ym2612"
    },
    {
      "channel": 1,
      "note": 85,
      "start": 74.3629,
      "duration": 0.0831,
      "velocity": 42,
      "chip": "ym2612"
    },
    {
      "channel": 0,
      "note": 84,
      "start": 74.459,
      "duration": 0.083,
      "velocity": 42,
      "chip": "ym2612"
    },
    {
      "channel": 1,
      "note": 84,
      "start": 74.5591,
      "duration": 0.0829,
      "velocity": 42,
      "chip": "ym2612"
    },
    {
      "channel": 0,
      "note": 84,
      "start": 74.6463,
      "duration": 0.0826,
      "velocity": 42,
      "chip": "ym2612"
    },
    {
      "channel": 1,
      "note": 84,
      "start": 74.7423,
      "duration": 0.083,
      "velocity": 42,
      "chip": "ym2612"
    },
    {
      "channel": 0,
      "note": 89,
      "start": 74.8426,
      "duration": 0.0827,
      "velocity": 42,
      "chip": "ym2612"
    },
    {
      "channel": 2,
      "note": 38,
      "start": 74.8432,
      "duration": 0.0822,
      "velocity": 100,
      "chip": "ym2612"
    },
    {
      "channel": 1,
      "note": 84,
      "start": 74.9424,
      "duration": 0.0829,
      "velocity": 42,
      "chip": "ym2612"
    },
    {
      "channel": 0,
      "note": 89,
      "start": 75.0284,
      "duration": 0.0832,
      "velocity": 42,
      "chip": "ym2612"
    },
    {
      "channel": 2,
      "note": 50,
      "start": 75.029,
      "duration": 0.0828,
      "velocity": 100,
      "chip": "ym2612"
    },
    {
      "channel": 1,
      "note": 89,
      "start": 75.1257,
      "duration": 0.083,
      "velocity": 42,
      "chip": "ym2612"
    },
    {
      "channel": 0,
      "note": 89,
      "start": 75.2256,
      "duration": 0.083,
      "velocity": 42,
      "chip": "ym2612"
    },
    {
      "channel": 2,
      "note": 52,
      "start": 75.2263,
      "duration": 0.0828,
      "velocity": 100,
      "chip": "ym2612"
    },
    {
      "channel": 1,
      "note": 89,
      "start": 75.3122,
      "duration": 0.0824,
      "velocity": 42,
      "chip": "ym2612"
    },
    {
      "channel": 0,
      "note": 88,
      "start": 75.409,
      "duration": 0.083,
      "velocity": 42,
      "chip": "ym2612"
    },
    {
      "channel": 2,
      "note": 52,
      "start": 75.4096,
      "duration": 0.0826,
      "velocity": 100,
      "chip": "ym2612"
    },
    {
      "channel": 1,
      "note": 89,
      "start": 75.5093,
      "duration": 0.0827,
      "velocity": 42,
      "chip": "ym2612"
    },
    {
      "channel": 0,
      "note": 88,
      "start": 75.609,
      "duration": 0.083,
      "velocity": 42,
      "chip": "ym2612"
    },
    {
      "channel": 2,
      "note": 52,
      "start": 75.6096,
      "duration": 0.0825,
      "velocity": 100,
      "chip": "ym2612"
    },
    {
      "channel": 1,
      "note": 88,
      "start": 75.6952,
      "duration": 0.0831,
      "velocity": 42,
      "chip": "ym2612"
    },
    {
      "channel": 0,
      "note": 88,
      "start": 75.7923,
      "duration": 0.083,
      "velocity": 42,
      "chip": "ym2612"
    },
    {
      "channel": 2,
      "note": 40,
      "start": 75.7929,
      "duration": 0.0826,
      "velocity": 100,
      "chip": "ym2612"
    },
    {
      "channel": 1,
      "note": 88,
      "start": 75.8924,
      "duration": 0.0829,
      "velocity": 42,
      "chip": "ym2612"
    },
    {
      "channel": 0,
      "note": 83,
      "start": 75.9787,
      "duration": 0.0826,
      "velocity": 42,
      "chip": "ym2612"
    },
    {
      "channel": 1,
      "note": 88,
      "start": 76.0757,
      "duration": 0.083,
      "velocity": 42,
      "chip": "ym2612"
    },
    {
      "channel": 0,
      "note": 83,
      "start": 76.1759,
      "duration": 0.0827,
      "velocity": 42,
      "chip": "ym2612"
    },
    {
      "channel": 1,
      "note": 83,
      "start": 76.2757,
      "duration": 0.0829,
      "velocity": 42,
      "chip": "ym2612"
    },
    {
      "channel": 0,
      "note": 83,
      "start": 76.3617,
      "duration": 0.0832,
      "velocity": 42,
      "chip": "ym2612"
    },
    {
      "channel": 1,
      "note": 83,
      "start": 76.459,
      "duration": 0.083,
      "velocity": 42,
      "chip": "ym2612"
    },
    {
      "channel": 0,
      "note": 87,
      "start": 76.559,
      "duration": 0.083,
      "velocity": 42,
      "chip": "ym2612"
    },
    {
      "channel": 1,
      "note": 83,
      "start": 76.6455,
      "duration": 0.0824,
      "velocity": 42,
      "chip": "ym2612"
    },
    {
      "channel": 0,
      "note": 87,
      "start": 76.7423,
      "duration": 0.083,
      "velocity": 42,
      "chip": "ym2612"
    },
    {
      "channel": 1,
      "note": 87,
      "start": 76.8427,
      "duration": 0.0827,
      "velocity": 42,
      "chip": "ym2612"
    },
    {
      "channel": 0,
      "note": 87,
      "start": 76.9423,
      "duration": 0.083,
      "velocity": 42,
      "chip": "ym2612"
    },
    {
      "channel": 1,
      "note": 87,
      "start": 77.0285,
      "duration": 0.0831,
      "velocity": 42,
      "chip": "ym2612"
    },
    {
      "channel": 0,
      "note": 82,
      "start": 77.1256,
      "duration": 0.083,
      "velocity": 42,
      "chip": "ym2612"
    },
    {
      "channel": 1,
      "note": 87,
      "start": 77.2257,
      "duration": 0.0829,
      "velocity": 42,
      "chip": "ym2612"
    },
    {
      "channel": 0,
      "note": 82,
      "start": 77.3121,
      "duration": 0.0826,
      "velocity": 42,
      "chip": "ym2612"
    },
    {
      "channel": 1,
      "note": 82,
      "start": 77.409,
      "duration": 0.083,
      "velocity": 42,
      "chip": "ym2612"
    },
    {
      "channel": 0,
      "note": 82,
      "start": 77.5093,
      "duration": 0.0827,
      "velocity": 42,
      "chip": "ym2612"
    },
    {
      "channel": 1,
      "note": 82,
      "start": 77.6091,
      "duration": 0.0829,
      "velocity": 42,
      "chip": "ym2612"
    },
    {
      "channel": 0,
      "note": 81,
      "start": 77.6951,
      "duration": 0.0832,
      "velocity": 42,
      "chip": "ym2612"
    },
    {
      "channel": 1,
      "note": 82,
      "start": 77.7923,
      "duration": 0.083,
      "velocity": 42,
      "chip": "ym2612"
    },
    {
      "channel": 0,
      "note": 81,
      "start": 77.8923,
      "duration": 0.083,
      "velocity": 42,
      "chip": "ym2612"
    },
    {
      "channel": 1,
      "note": 81,
      "start": 77.9789,
      "duration": 0.0825,
      "velocity": 42,
      "chip": "ym2612"
    },
    {
      "channel": 0,
      "note": 81,
      "start": 78.0756,
      "duration": 0.083,
      "velocity": 42,
      "chip": "ym2612"
    },
    {
      "channel": 1,
      "note": 81,
      "start": 78.176,
      "duration": 0.0827,
      "velocity": 42,
      "chip": "ym2612"
    },
    {
      "channel": 0,
      "note": 88,
      "start": 78.2756,
      "duration": 0.083,
      "velocity": 42,
      "chip": "ym2612"
    },
    {
      "channel": 1,
      "note": 81,
      "start": 78.3628,
      "duration": 0.0831,
      "velocity": 42,
      "chip": "ym2612"
    },
    {
      "channel": 0,
      "note": 88,
      "start": 78.459,
      "duration": 0.083,
      "velocity": 42,
      "chip": "ym2612"
    },
    {
      "channel": 1,
      "note": 88,
      "start": 78.5591,
      "duration": 0.0829,
      "velocity": 42,
      "chip": "ym2612"
    },
    {
      "channel": 0,
      "note": 88,
      "start": 78.6463,
      "duration": 0.0826,
      "velocity": 42,
      "chip": "ym2612"
    },
    {
      "channel": 1,
      "note": 88,
      "start": 78.7423,
      "duration": 0.083,
      "velocity": 42,
      "chip": "ym2612"
    },
    {
      "channel": 0,
      "note": 86,
      "start": 78.8426,
      "duration": 0.0827,
      "velocity": 42,
      "chip": "ym2612"
    },
    {
      "channel": 1,
      "note": 88,
      "start": 78.9424,
      "duration": 0.0829,
      "velocity": 42,
      "chip": "ym2612"
    },
    {
      "channel": 0,
      "note": 86,
      "start": 79.0294,
      "duration": 0.0832,
      "velocity": 42,
      "chip": "ym2612"
    },
    {
      "channel": 1,
      "note": 86,
      "start": 79.1257,
      "duration": 0.083,
      "velocity": 42,
      "chip": "ym2612"
    },
    {
      "channel": 0,
      "note": 86,
      "start": 79.2256,
      "duration": 0.083,
      "velocity": 42,
      "chip": "ym2612"
    },
    {
      "channel": 1,
      "note": 86,
      "start": 79.3132,
      "duration": 0.0825,
      "velocity": 42,
      "chip": "ym2612"
    },
    {
      "channel": 0,
      "note": 92,
      "start": 79.409,
      "duration": 0.083,
      "velocity": 42,
      "chip": "ym2612"
    },
    {
      "channel": 1,
      "note": 86,
      "start": 79.5093,
      "duration": 0.0827,
      "velocity": 42,
      "chip": "ym2612"
    },
    {
      "channel": 0,
      "note": 92,
      "start": 79.609,
      "duration": 0.083,
      "velocity": 42,
      "chip": "ym2612"
    },
    {
      "channel": 1,
      "note": 92,
      "start": 79.6962,
      "duration": 0.0831,
      "velocity": 42,
      "chip": "ym2612"
    },
    {
      "channel": 0,
      "note": 92,
      "start": 79.7923,
      "duration": 0.083,
      "velocity": 42,
      "chip": "ym2612"
    },
    {
      "channel": 1,
      "note": 92,
      "start": 79.8924,
      "duration": 0.0829,
      "velocity": 42,
      "chip": "ym2612"
    },
    {
      "channel": 0,
      "note": 90,
      "start": 79.9797,
      "duration": 0.0826,
      "velocity": 42,
      "chip": "ym2612"
    },
    {
      "channel": 1,
      "note": 92,
      "start": 80.0757,
      "duration": 0.083,
      "velocity": 42,
      "chip": "ym2612"
    },
    {
      "channel": 0,
      "note": 90,
      "start": 80.1759,
      "duration": 0.0827,
      "velocity": 42,
      "chip": "ym2612"
    },
    {
      "channel": 1,
      "note": 90,
      "start": 80.2757,
      "duration": 0.0829,
      "velocity": 42,
      "chip": "ym2612"
    },
    {
      "channel": 0,
      "note": 90,
      "start": 80.3628,
      "duration": 0.0832,
      "velocity": 42,
      "chip": "ym2612"
    },
    {
      "channel": 1,
      "note": 90,
      "start": 80.459,
      "duration": 0.083,
      "velocity": 42,
      "chip": "ym2612"
    },
    {
      "channel": 0,
      "note": 85,
      "start": 80.559,
      "duration": 0.083,
      "velocity": 42,
      "chip": "ym2612"
    },
    {
      "channel": 1,
      "note": 90,
      "start": 80.6465,
      "duration": 0.0825,
      "velocity": 42,
      "chip": "ym2612"
    },
    {
      "channel": 0,
      "note": 85,
      "start": 80.7423,
      "duration": 0.083,
      "velocity": 42,
      "chip": "ym2612"
    },
    {
      "channel": 1,
      "note": 85,
      "start": 80.8427,
      "duration": 0.0827,
      "velocity": 42,
      "chip": "ym2612"
    },
    {
      "channel": 0,
      "note": 85,
      "start": 80.9294,
      "duration": 0.0819,
      "velocity": 42,
      "chip": "ym2612"
    },
    {
      "channel": 1,
      "note": 85,
      "start": 81.0257,
      "duration": 0.083,
      "velocity": 42,
      "chip": "ym2612"
    },
    {
      "channel": 0,
      "note": 89,
      "start": 81.1256,
      "duration": 0.083,
      "velocity": 42,
      "chip": "ym2612"
    },
    {
      "channel": 1,
      "note": 85,
      "start": 81.2257,
      "duration": 0.0829,
      "velocity": 42,
      "chip": "ym2612"
    },
    {
      "channel": 0,
      "note": 89,
      "start": 81.312,
      "duration": 0.0826,
      "velocity": 42,
      "chip": "ym2612"
    },
    {
      "channel": 1,
      "note": 89,
      "start": 81.409,
      "duration": 0.083,
      "velocity": 42,
      "chip": "ym2612"
    },
    {
      "channel": 0,
      "note": 84,
      "start": 81.5093,
      "duration": 0.0827,
      "velocity": 42,
      "chip": "ym2612"
    },
    {
      "channel": 1,
      "note": 89,
      "start": 81.5952,
      "duration": 0.0828,
      "velocity": 42,
      "chip": "ym2612"
    },
    {
      "channel": 0,
      "note": 83,
      "start": 81.6923,
      "duration": 0.083,
      "velocity": 42,
      "chip": "ym2612"
    },
    {
      "channel": 1,
      "note": 84,
      "start": 81.7923,
      "duration": 0.083,
      "velocity": 42,
      "chip": "ym2612"
    },
    {
      "channel": 0,
      "note": 82,
      "start": 81.8923,
      "duration": 0.083,
      "velocity": 42,
      "chip": "ym2612"
    },
    {
      "channel": 1,
      "note": 83,
      "start": 81.9789,
      "duration": 0.0825,
      "velocity": 42,
      "chip": "ym2612"
    },
    {
      "channel": 0,
      "note": 81,
      "start": 82.0756,
      "duration": 0.083,
      "velocity": 42,
      "chip": "ym2612"
    },
    {
      "channel": 1,
      "note": 82,
      "start": 82.176,
      "duration": 0.0827,
      "velocity": 42,
      "chip": "ym2612"
    },
    {
      "channel": 0,
      "note": 81,
      "start": 82.2617,
      "duration": 0.0829,
      "velocity": 42,
      "chip": "ym2612"
    },
    {
      "channel": 1,
      "note": 81,
      "start": 82.359,
      "duration": 0.083,
      "velocity": 42,
      "chip": "ym2612"
    },
    {
      "channel": 0,
      "note": 81,
      "start": 82.459,
      "duration": 0.083,
      "velocity": 42,
      "chip": "ym2612"
    },
    {
      "channel": 2,
      "note": 52,
      "start": 82.4596,
      "duration": 0.0825,
      "velocity": 100,
      "chip": "ym2612"
    },
    {
      "channel": 1,
      "note": 81,
      "start": 82.5591,
      "duration": 0.0829,
      "velocity": 42,
      "chip": "ym2612"
    },
    {
      "channel": 0,
      "note": 81,
      "start": 82.6454,
      "duration": 0.0826,
      "velocity": 42,
      "chip": "ym2612"
    },
    {
      "channel": 2,
      "note": 51,
      "start": 82.646,
      "duration": 0.0821,
      "velocity": 100,
      "chip": "ym2612"
    },
    {
      "channel": 1,
      "note": 81,
      "start": 82.7423,
      "duration": 0.083,
      "velocity": 42,
      "chip": "ym2612"
    },
    {
      "channel": 0,
      "note": 87,
      "start": 82.8426,
      "duration": 0.0827,
      "velocity": 42,
      "chip": "ym2612"
    },
    {
      "channel": 2,
      "note": 47,
      "start": 82.8432,
      "duration": 0.0822,
      "velocity": 100,
      "chip": "ym2612"
    },
    {
      "channel": 1,
      "note": 81,
      "start": 82.9286,
      "duration": 0.0827,
      "velocity": 42,
      "chip": "ym2612"
    },
    {
      "channel": 0,
      "note": 87,
      "start": 83.0256,
      "duration": 0.083,
      "velocity": 42,
      "chip": "ym2612"
    },
    {
      "channel": 2,
      "note": 50,
      "start": 83.0263,
      "duration": 0.0829,
      "velocity": 100,
      "chip": "ym2612"
    },
    {
      "channel": 1,
      "note": 87,
      "start": 83.1257,
      "duration": 0.083,
      "velocity": 42,
      "chip": "ym2612"
    },
    {
      "channel": 0,
      "note": 87,
      "start": 83.2256,
      "duration": 0.083,
      "velocity": 42,
      "chip": "ym2612"
    },
    {
      "channel": 2,
      "note": 49,
      "start": 83.2263,
      "duration": 0.0828,
      "velocity": 100,
      "chip": "ym2612"
    },
    {
      "channel": 1,
      "note": 87,
      "start": 83.3122,
      "duration": 0.0824,
      "velocity": 42,
      "chip": "ym2612"
    },
    {
      "channel": 0,
      "note": 86,
      "start": 83.409,
      "duration": 0.083,
      "velocity": 42,
      "chip": "ym2612"
    },
    {
      "channel": 2,
      "note": 48,
      "start": 83.4096,
      "duration": 0.0826,
      "velocity": 100,
      "chip": "ym2612"
    },
    {
      "channel": 1,
      "note": 87,
      "start": 83.5093,
      "duration": 0.0827,
      "velocity": 42,
      "chip": "ym2612"
    },
    {
      "channel": 0,
      "note": 86,
      "start": 83.5951,
      "duration": 0.0829,
      "velocity": 42,
      "chip": "ym2612"
    },
    {
      "channel": 2,
      "note": 45,
      "start": 83.5957,
      "duration": 0.0824,
      "velocity": 100,
      "chip": "ym2612"
    },
    {
      "channel": 1,
      "note": 86,
      "start": 83.6923,
      "duration": 0.083,
      "velocity": 42,
      "chip": "ym2612"
    },
    {
      "channel": 0,
      "note": 86,
      "start": 83.7923,
      "duration": 0.083,
      "velocity": 42,
      "chip": "ym2612"
    },
    {
      "channel": 2,
      "note": 45,
      "start": 83.793,
      "duration": 0.0825,
      "velocity": 100,
      "chip": "ym2612"
    },
    {
      "channel": 1,
      "note": 86,
      "start": 83.8924,
      "duration": 0.0829,
      "velocity": 42,
      "chip": "ym2612"
    },
    {
      "channel": 0,
      "note": 92,
      "start": 83.9787,
      "duration": 0.0826,
      "velocity": 42,
      "chip": "ym2612"
    },
    {
      "channel": 1,
      "note": 86,
      "start": 84.0757,
      "duration": 0.083,
      "velocity": 42,
      "chip": "ym2612"
    },
    {
      "channel": 0,
      "note": 92,
      "start": 84.1759,
      "duration": 0.0827,
      "velocity": 42,
      "chip": "ym2612"
    },
    {
      "channel": 1,
      "note": 92,
      "start": 84.2619,
      "duration": 0.0828,
      "velocity": 42,
      "chip": "ym2612"
    },
    {
      "channel": 0,
      "note": 92,
      "start": 84.359,
      "duration": 0.083,
      "velocity": 42,
      "chip": "ym2612"
    },
    {
      "channel": 1,
      "note": 92,
      "start": 84.459,
      "duration": 0.083,
      "velocity": 42,
      "chip": "ym2612"
    },
    {
      "channel": 0,
      "note": 90,
      "start": 84.559,
      "duration": 0.083,
      "velocity": 42,
      "chip": "ym2612"
    },
    {
      "channel": 1,
      "note": 92,
      "start": 84.6455,
      "duration": 0.0825,
      "velocity": 42,
      "chip": "ym2612"
    },
    {
      "channel": 0,
      "note": 90,
      "start": 84.7423,
      "duration": 0.083,
      "velocity": 42,
      "chip": "ym2612"
    },
    {
      "channel": 2,
      "note": 47,
      "start": 84.743,
      "duration": 0.0825,
      "velocity": 100,
      "chip": "ym2612"
    },
    {
      "channel": 1,
      "note": 90,
      "start": 84.8427,
      "duration": 0.0827,
      "velocity": 42,
      "chip": "ym2612"
    },
    {
      "channel": 0,
      "note": 90,
      "start": 84.9284,
      "duration": 0.0829,
      "velocity": 42,
      "chip": "ym2612"
    },
    {
      "channel": 2,
      "note": 40,
      "start": 84.929,
      "duration": 0.0824,
      "velocity": 100,
      "chip": "ym2612"
    },
    {
      "channel": 1,
      "note": 90,
      "start": 85.0257,
      "duration": 0.083,
      "velocity": 42,
      "chip": "ym2612"
    },
    {
      "channel": 0,
      "note": 84,
      "start": 85.1256,
      "duration": 0.083,
      "velocity": 42,
      "chip": "ym2612"
    },
    {
      "channel": 2,
      "note": 40,
      "start": 85.1263,
      "duration": 0.0826,
      "velocity": 100,
      "chip": "ym2612"
    },
    {
      "channel": 1,
      "note": 90,
      "start": 85.2257,
      "duration": 0.0829,
      "velocity": 42,
      "chip": "ym2612"
    },
    {
      "channel": 0,
      "note": 84,
      "start": 85.3121,
      "duration": 0.0826,
      "velocity": 42,
      "chip": "ym2612"
    },
    {
      "channel": 2,
      "note": 40,
      "start": 85.3127,
      "duration": 0.0821,
      "velocity": 100,
      "chip": "ym2612"
    },
    {
      "channel": 1,
      "note": 84,
      "start": 85.409,
      "duration": 0.083,
      "velocity": 42,
      "chip": "ym2612"
    },
    {
      "channel": 0,
      "note": 84,
      "start": 85.5093,
      "duration": 0.0827,
      "velocity": 42,
      "chip": "ym2612"
    },
    {
      "channel": 2,
      "note": 40,
      "start": 85.5099,
      "duration": 0.0822,
      "velocity": 100,
      "chip": "ym2612"
    },
    {
      "channel": 1,
      "note": 84,
      "start": 85.5953,
      "duration": 0.0828,
      "velocity": 42,
      "chip": "ym2612"
    },
    {
      "channel": 0,
      "note": 88,
      "start": 85.6923,
      "duration": 0.083,
      "velocity": 42,
      "chip": "ym2612"
    },
    {
      "channel": 1,
      "note": 84,
      "start": 85.7923,
      "duration": 0.083,
      "velocity": 42,
      "chip": "ym2612"
    },
    {
      "channel": 0,
      "note": 88,
      "start": 85.8923,
      "duration": 0.083,
      "velocity": 42,
      "chip": "ym2612"
    },
    {
      "channel": 1,
      "note": 88,
      "start": 85.9789,
      "duration": 0.0825,
      "velocity": 42,
      "chip": "ym2612"
    },
    {
      "channel": 0,
      "note": 88,
      "start": 86.0756,
      "duration": 0.083,
      "velocity": 42,
      "chip": "ym2612"
    },
    {
      "channel": 1,
      "note": 88,
      "start": 86.176,
      "duration": 0.0827,
      "velocity": 42,
      "chip": "ym2612"
    },
    {
      "channel": 0,
      "note": 82,
      "start": 86.2617,
      "duration": 0.0829,
      "velocity": 42,
      "chip": "ym2612"
    },
    {
      "channel": 1,
      "note": 88,
      "start": 86.359,
      "duration": 0.083,
      "velocity": 42,
      "chip": "ym2612"
    },
    {
      "channel": 0,
      "note": 82,
      "start": 86.459,
      "duration": 0.083,
      "velocity": 42,
      "chip": "ym2612"
    },
    {
      "channel": 1,
      "note": 82,
      "start": 86.5591,
      "duration": 0.0829,
      "velocity": 42,
      "chip": "ym2612"
    },
    {
      "channel": 0,
      "note": 82,
      "start": 86.6454,
      "duration": 0.0826,
      "velocity": 42,
      "chip": "ym2612"
    },
    {
      "channel": 1,
      "note": 82,
      "start": 86.7423,
      "duration": 0.083,
      "velocity": 42,
      "chip": "ym2612"
    },
    {
      "channel": 0,
      "note": 81,
      "start": 86.8426,
      "duration": 0.0827,
      "velocity": 42,
      "chip": "ym2612"
    },
    {
      "channel": 1,
      "note": 82,
      "start": 86.9285,
      "duration": 0.0828,
      "velocity": 42,
      "chip": "ym2612"
    },
    {
      "channel": 0,
      "note": 81,
      "start": 87.0256,
      "duration": 0.083,
      "velocity": 42,
      "chip": "ym2612"
    },
    {
      "channel": 2,
      "note": 52,
      "start": 87.0263,
      "duration": 0.0828,
      "velocity": 100,
      "chip": "ym2612"
    },
    {
      "channel": 1,
      "note": 81,
      "start": 87.1257,
      "duration": 0.083,
      "velocity": 42,
      "chip": "ym2612"
    },
    {
      "channel": 0,
      "note": 81,
      "start": 87.2256,
      "duration": 0.083,
      "velocity": 42,
      "chip": "ym2612"
    },
    {
      "channel": 2,
      "note": 51,
      "start": 87.2263,
      "duration": 0.0828,
      "velocity": 100,
      "chip": "ym2612"
    },
    {
      "channel": 1,
      "note": 81,
      "start": 87.3122,
      "duration": 0.0824,
      "velocity": 42,
      "chip": "ym2612"
    },
    {
      "channel": 0,
      "note": 86,
      "start": 87.409,
      "duration": 0.083,
      "velocity": 42,
      "chip": "ym2612"
    },
    {
      "channel": 2,
      "note": 47,
      "start": 87.4096,
      "duration": 0.0826,
      "velocity": 100,
      "chip": "ym2612"
    },
    {
      "channel": 1,
      "note": 81,
      "start": 87.5093,
      "duration": 0.0827,
      "velocity": 42,
      "chip": "ym2612"
    },
    {
      "channel": 0,
      "note": 86,
      "start": 87.5951,
      "duration": 0.0829,
      "velocity": 42,
      "chip": "ym2612"
    },
    {
      "channel": 2,
      "note": 50,
      "start": 87.5957,
      "duration": 0.0825,
      "velocity": 100,
      "chip": "ym2612"
    },
    {
      "channel": 1,
      "note": 86,
      "start": 87.6923,
      "duration": 0.083,
      "velocity": 42,
      "chip": "ym2612"
    },
    {
      "channel": 0,
      "note": 86,
      "start": 87.7923,
      "duration": 0.083,
      "velocity": 42,
      "chip": "ym2612"
    },
    {
      "channel": 2,
      "note": 49,
      "start": 87.7929,
      "duration": 0.0826,
      "velocity": 100,
      "chip": "ym2612"
    },
    {
      "channel": 1,
      "note": 86,
      "start": 87.8924,
      "duration": 0.0829,
      "velocity": 42,
      "chip": "ym2612"
    },
    {
      "channel": 0,
      "note": 85,
      "start": 87.9787,
      "duration": 0.0826,
      "velocity": 42,
      "chip": "ym2612"
    },
    {
      "channel": 2,
      "note": 48,
      "start": 87.9794,
      "duration": 0.0822,
      "velocity": 100,
      "chip": "ym2612"
    },
    {
      "channel": 1,
      "note": 86,
      "start": 88.0757,
      "duration": 0.083,
      "velocity": 42,
      "chip": "ym2612"
    },
    {
      "channel": 0,
      "note": 85,
      "start": 88.1759,
      "duration": 0.0827,
      "velocity": 42,
      "chip": "ym2612"
    },
    {
      "channel": 2,
      "note": 45,
      "start": 88.1766,
      "duration": 0.0822,
      "velocity": 100,
      "chip": "ym2612"
    },
    {
      "channel": 1,
      "note": 85,
      "start": 88.2619,
      "duration": 0.0828,
      "velocity": 42,
      "chip": "ym2612"
    },
    {
      "channel": 0,
      "note": 85,
      "start": 88.359,
      "duration": 0.083,
      "velocity": 42,
      "chip": "ym2612"
    },
    {
      "channel": 2,
      "note": 45,
      "start": 88.3596,
      "duration": 0.0828,
      "velocity": 100,
      "chip": "ym2612"
    },
    {
      "channel": 1,
      "note": 85,
      "start": 88.459,
      "duration": 0.083,
      "velocity": 42,
      "chip": "ym2612"
    },
    {
      "channel": 0,
      "note": 89,
      "start": 88.559,
      "duration": 0.083,
      "velocity": 42,
      "chip": "ym2612"
    },
    {
      "channel": 1,
      "note": 85,
      "start": 88.6455,
      "duration": 0.0825,
      "velocity": 42,
      "chip": "ym2612"
    },
    {
      "channel": 0,
      "note": 89,
      "start": 88.7423,
      "duration": 0.083,
      "velocity": 42,
      "chip": "ym2612"
    },
    {
      "channel": 1,
      "note": 89,
      "start": 88.8427,
      "duration": 0.0827,
      "velocity": 42,
      "chip": "ym2612"
    },
    {
      "channel": 0,
      "note": 89,
      "start": 88.9284,
      "duration": 0.0829,
      "velocity": 42,
      "chip": "ym2612"
    },
    {
      "channel": 1,
      "note": 89,
      "start": 89.0257,
      "duration": 0.083,
      "velocity": 42,
      "chip": "ym2612"
    },
    {
      "channel": 0,
      "note": 88,
      "start": 89.1256,
      "duration": 0.083,
      "velocity": 42,
      "chip": "ym2612"
    },
    {
      "channel": 1,
      "note": 89,
      "start": 89.2257,
      "duration": 0.0829,
      "velocity": 42,
      "chip": "ym2612"
    },
    {
      "channel": 0,
      "note": 88,
      "start": 89.3121,
      "duration": 0.0826,
      "velocity": 42,
      "chip": "ym2612"
    },
    {
      "channel": 1,
      "note": 88,
      "start": 89.409,
      "duration": 0.083,
      "velocity": 42,
      "chip": "ym2612"
    },
    {
      "channel": 0,
      "note": 88,
      "start": 89.5093,
      "duration": 0.0827,
      "velocity": 42,
      "chip": "ym2612"
    },
    {
      "channel": 1,
      "note": 88,
      "start": 89.5952,
      "duration": 0.0828,
      "velocity": 42,
      "chip": "ym2612"
    },
    {
      "channel": 0,
      "note": 84,
      "start": 89.6923,
      "duration": 0.083,
      "velocity": 42,
      "chip": "ym2612"
    },
    {
      "channel": 1,
      "note": 88,
      "start": 89.7923,
      "duration": 0.083,
      "velocity": 42,
      "chip": "ym2612"
    },
    {
      "channel": 0,
      "note": 84,
      "start": 89.8923,
      "duration": 0.083,
      "velocity": 42,
      "chip": "ym2612"
    },
    {
      "channel": 2,
      "note": 40,
      "start": 89.893,
      "duration": 0.0828,
      "velocity": 100,
      "chip": "ym2612"
    },
    {
      "channel": 1,
      "note": 84,
      "start": 89.9789,
      "duration": 0.0824,
      "velocity": 42,
      "chip": "ym2612"
    },
    {
      "channel": 0,
      "note": 84,
      "start": 90.0756,
      "duration": 0.083,
      "velocity": 42,
      "chip": "ym2612"
    },
    {
      "channel": 2,
      "note": 40,
      "start": 90.0763,
      "duration": 0.0826,
      "velocity": 100,
      "chip": "ym2612"
    },
    {
      "channel": 1,
      "note": 84,
      "start": 90.176,
      "duration": 0.0827,
      "velocity": 42,
      "chip": "ym2612"
    },
    {
      "channel": 0,
      "note": 87,
      "start": 90.2617,
      "duration": 0.0829,
      "velocity": 42,
      "chip": "ym2612"
    },
    {
      "channel": 2,
      "note": 40,
      "start": 90.2624,
      "duration": 0.0824,
      "velocity": 100,
      "chip": "ym2612"
    },
    {
      "channel": 1,
      "note": 84,
      "start": 90.359,
      "duration": 0.083,
      "velocity": 42,
      "chip": "ym2612"
    },
    {
      "channel": 0,
      "note": 87,
      "start": 90.459,
      "duration": 0.083,
      "velocity": 42,
      "chip": "ym2612"
    },
    {
      "channel": 2,
      "note": 40,
      "start": 90.4596,
      "duration": 0.0826,
      "velocity": 100,
      "chip": "ym2612"
    },
    {
      "channel": 1,
      "note": 87,
      "start": 90.5591,
      "duration": 0.0829,
      "velocity": 42,
      "chip": "ym2612"
    },
    {
      "channel": 0,
      "note": 82,
      "start": 90.6453,
      "duration": 0.0826,
      "velocity": 42,
      "chip": "ym2612"
    },
    {
      "channel": 2,
      "note": 40,
      "start": 90.646,
      "duration": 0.0823,
      "velocity": 100,
      "chip": "ym2612"
    },
    {
      "channel": 1,
      "note": 87,
      "start": 90.7423,
      "duration": 0.083,
      "velocity": 42,
      "chip": "ym2612"
    },
    {
      "channel": 0,
      "note": 86,
      "start": 90.8426,
      "duration": 0.0827,
      "velocity": 42,
      "chip": "ym2612"
    },
    {
      "channel": 1,
      "note": 82,
      "start": 90.9285,
      "duration": 0.0827,
      "velocity": 42,
      "chip": "ym2612"
    },
    {
      "channel": 0,
      "note": 86,
      "start": 91.0256,
      "duration": 0.083,
      "velocity": 42,
      "chip": "ym2612"
    },
    {
      "channel": 1,
      "note": 86,
      "start": 91.1257,
      "duration": 0.0829,
      "velocity": 42,
      "chip": "ym2612"
    },
    {
      "channel": 0,
      "note": 81,
      "start": 91.2117,
      "duration": 0.0829,
      "velocity": 42,
      "chip": "ym2612"
    },
    {
      "channel": 1,
      "note": 86,
      "start": 91.3093,
      "duration": 0.0827,
      "velocity": 42,
      "chip": "ym2612"
    },
    {
      "channel": 0,
      "note": 80,
      "start": 91.409,
      "duration": 0.083,
      "velocity": 42,
      "chip": "ym2612"
    },
    {
      "channel": 1,
      "note": 81,
      "start": 91.5093,
      "duration": 0.0827,
      "velocity": 42,
      "chip": "ym2612"
    },
    {
      "channel": 0,
      "note": 80,
      "start": 91.595,
      "duration": 0.0829,
      "velocity": 42,
      "chip": "ym2612"
    },
    {
      "channel": 2,
      "note": 52,
      "start": 91.5957,
      "duration": 0.0825,
      "velocity": 100,
      "chip": "ym2612"
    },
    {
      "channel": 1,
      "note": 80,
      "start": 91.6923,
      "duration": 0.083,
      "velocity": 42,
      "chip": "ym2612"
    },
    {
      "channel": 0,
      "note": 80,
      "start": 91.7923,
      "duration": 0.083,
      "velocity": 42,
      "chip": "ym2612"
    },
    {
      "channel": 2,
      "note": 51,
      "start": 91.793,
      "duration": 0.0825,
      "velocity": 100,
      "chip": "ym2612"
    },
    {
      "channel": 1,
      "note": 80,
      "start": 91.8786,
      "duration": 0.0828,
      "velocity": 42,
      "chip": "ym2612"
    },
    {
      "channel": 0,
      "note": 85,
      "start": 91.9759,
      "duration": 0.0827,
      "velocity": 42,
      "chip": "ym2612"
    },
    {
      "channel": 2,
      "note": 47,
      "start": 91.9766,
      "duration": 0.0822,
      "velocity": 100,
      "chip": "ym2612"
    },
    {
      "channel": 1,
      "note": 80,
      "start": 92.0757,
      "duration": 0.083,
      "velocity": 42,
      "chip": "ym2612"
    },
    {
      "channel": 0,
      "note": 85,
      "start": 92.1759,
      "duration": 0.0827,
      "velocity": 42,
      "chip": "ym2612"
    },
    {
      "channel": 2,
      "note": 50,
      "start": 92.1766,
      "duration": 0.0822,
      "velocity": 100,
      "chip": "ym2612"
    },
    {
      "channel": 1,
      "note": 85,
      "start": 92.2619,
      "duration": 0.0828,
      "velocity": 42,
      "chip": "ym2612"
    },
    {
      "channel": 0,
      "note": 85,
      "start": 92.359,
      "duration": 0.083,
      "velocity": 42,
      "chip": "ym2612"
    },
    {
      "channel": 2,
      "note": 49,
      "start": 92.3596,
      "duration": 0.0829,
      "velocity": 100,
      "chip": "ym2612"
    },
    {
      "channel": 1,
      "note": 85,
      "start": 92.4591,
      "duration": 0.0829,
      "velocity": 42,
      "chip": "ym2612"
    },
    {
      "channel": 0,
      "note": 84,
      "start": 92.5451,
      "duration": 0.0829,
      "velocity": 42,
      "chip": "ym2612"
    },
    {
      "channel": 2,
      "note": 48,
      "start": 92.5457,
      "duration": 0.0824,
      "velocity": 100,
      "chip": "ym2612"
    },
    {
      "channel": 1,
      "note": 85,
      "start": 92.6427,
      "duration": 0.0827,
      "velocity": 42,
      "chip": "ym2612"
    },
    {
      "channel": 0,
      "note": 84,
      "start": 92.7423,
      "duration": 0.083,
      "velocity": 42,
      "chip": "ym2612"
    },
    {
      "channel": 2,
      "note": 45,
      "start": 92.7429,
      "duration": 0.0826,
      "velocity": 100,
      "chip": "ym2612"
    },
    {
      "channel": 1,
      "note": 84,
      "start": 92.8427,
      "duration": 0.0827,
      "velocity": 42,
      "chip": "ym2612"
    },
    {
      "channel": 0,
      "note": 84,
      "start": 92.9284,
      "duration": 0.0829,
      "velocity": 42,
      "chip": "ym2612"
    },
    {
      "channel": 2,
      "note": 45,
      "start": 92.929,
      "duration": 0.0824,
      "velocity": 100,
      "chip": "ym2612"
    },
    {
      "channel": 1,
      "note": 84,
      "start": 93.0257,
      "duration": 0.083,
      "velocity": 42,
      "chip": "ym2612"
    },
    {
      "channel": 0,
      "note": 89,
      "start": 93.1256,
      "duration": 0.083,
      "velocity": 42,
      "chip": "ym2612"
    },
    {
      "channel": 1,
      "note": 84,
      "start": 93.2119,
      "duration": 0.0828,
      "velocity": 42,
      "chip": "ym2612"
    },
    {
      "channel": 0,
      "note": 89,
      "start": 93.3093,
      "duration": 0.0827,
      "velocity": 42,
      "chip": "ym2612"
    },
    {
      "channel": 1,
      "note": 89,
      "start": 93.409,
      "duration": 0.083,
      "velocity": 42,
      "chip": "ym2612"
    },
    {
      "channel": 0,
      "note": 89,
      "start": 93.5093,
      "duration": 0.0827,
      "velocity": 42,
      "chip": "ym2612"
    },
    {
      "channel": 1,
      "note": 89,
      "start": 93.5952,
      "duration": 0.0828,
      "velocity": 42,
      "chip": "ym2612"
    },
    {
      "channel": 0,
      "note": 88,
      "start": 93.6923,
      "duration": 0.083,
      "velocity": 42,
      "chip": "ym2612"
    },
    {
      "channel": 1,
      "note": 89,
      "start": 93.7924,
      "duration": 0.0829,
      "velocity": 42,
      "chip": "ym2612"
    },
    {
      "channel": 0,
      "note": 88,
      "start": 93.8784,
      "duration": 0.0829,
      "velocity": 42,
      "chip": "ym2612"
    },
    {
      "channel": 2,
      "note": 44,
      "start": 93.879,
      "duration": 0.0824,
      "velocity": 100,
      "chip": "ym2612"
    },
    {
      "channel": 1,
      "note": 88,
      "start": 93.976,
      "duration": 0.0827,
      "velocity": 42,
      "chip": "ym2612"
    },
    {
      "channel": 0,
      "note": 88,
      "start": 94.0756,
      "duration": 0.083,
      "velocity": 42,
      "chip": "ym2612"
    },
    {
      "channel": 2,
      "note": 40,
      "start": 94.0763,
      "duration": 0.0826,
      "velocity": 100,
      "chip": "ym2612"
    },
    {
      "channel": 1,
      "note": 88,
      "start": 94.176,
      "duration": 0.0827,
      "velocity": 42,
      "chip": "ym2612"
    },
    {
      "channel": 0,
      "note": 83,
      "start": 94.2617,
      "duration": 0.0829,
      "velocity": 42,
      "chip": "ym2612"
    },
    {
      "channel": 2,
      "note": 40,
      "start": 94.2624,
      "duration": 0.0824,
      "velocity": 100,
      "chip": "ym2612"
    },
    {
      "channel": 1,
      "note": 88,
      "start": 94.359,
      "duration": 0.083,
      "velocity": 42,
      "chip": "ym2612"
    },
    {
      "channel": 0,
      "note": 83,
      "start": 94.459,
      "duration": 0.083,
      "velocity": 42,
      "chip": "ym2612"
    },
    {
      "channel": 2,
      "note": 40,
      "start": 94.4596,
      "duration": 0.0825,
      "velocity": 100,
      "chip": "ym2612"
    },
    {
      "channel": 1,
      "note": 83,
      "start": 94.5452,
      "duration": 0.0828,
      "velocity": 42,
      "chip": "ym2612"
    },
    {
      "channel": 0,
      "note": 83,
      "start": 94.6426,
      "duration": 0.0827,
      "velocity": 42,
      "chip": "ym2612"
    },
    {
      "channel": 2,
      "note": 40,
      "start": 94.6432,
      "duration": 0.0822,
      "velocity": 100,
      "chip": "ym2612"
    },
    {
      "channel": 1,
      "note": 83,
      "start": 94.7423,
      "duration": 0.083,
      "velocity": 42,
      "chip": "ym2612"
    },
    {
      "channel": 0,
      "note": 87,
      "start": 94.8426,
      "duration": 0.0827,
      "velocity": 42,
      "chip": "ym2612"
    },
    {
      "channel": 1,
      "note": 83,
      "start": 94.9285,
      "duration": 0.0828,
      "velocity": 42,
      "chip": "ym2612"
    },
    {
      "channel": 0,
      "note": 87,
      "start": 95.0256,
      "duration": 0.083,
      "velocity": 42,
      "chip": "ym2612"
    },
    {
      "channel": 1,
      "note": 87,
      "start": 95.1257,
      "duration": 0.0829,
      "velocity": 42,
      "chip": "ym2612"
    },
    {
      "channel": 0,
      "note": 87,
      "start": 95.2117,
      "duration": 0.0829,
      "velocity": 42,
      "chip": "ym2612"
    },
    {
      "channel": 1,
      "note": 87,
      "start": 95.3093,
      "duration": 0.0827,
      "velocity": 42,
      "chip": "ym2612"
    },
    {
      "channel": 0,
      "note": 82,
      "start": 95.409,
      "duration": 0.083,
      "velocity": 42,
      "chip": "ym2612"
    },
    {
      "channel": 1,
      "note": 87,
      "start": 95.5093,
      "duration": 0.0827,
      "velocity": 42,
      "chip": "ym2612"
    },
    {
      "channel": 0,
      "note": 82,
      "start": 95.5951,
      "duration": 0.0829,
      "velocity": 42,
      "chip": "ym2612"
    },
    {
      "channel": 2,
      "note": 38,
      "start": 95.5957,
      "duration": 0.0825,
      "velocity": 100,
      "chip": "ym2612"
    },
    {
      "channel": 1,
      "note": 82,
      "start": 95.6923,
      "duration": 0.083,
      "velocity": 42,
      "chip": "ym2612"
    },
    {
      "channel": 0,
      "note": 82,
      "start": 95.7923,
      "duration": 0.083,
      "velocity": 42,
      "chip": "ym2612"
    },
    {
      "channel": 2,
      "note": 38,
      "start": 95.793,
      "duration": 0.0825,
      "velocity": 100,
      "chip": "ym2612"
    },
    {
      "channel": 1,
      "note": 82,
      "start": 95.8786,
      "duration": 0.0828,
      "velocity": 42,
      "chip": "ym2612"
    },
    {
      "channel": 0,
      "note": 81,
      "start": 95.9759,
      "duration": 0.0827,
      "velocity": 42,
      "chip": "ym2612"
    },
    {
      "channel": 2,
      "note": 38,
      "start": 95.9766,
      "duration": 0.0822,
      "velocity": 100,
      "chip": "ym2612"
    },
    {
      "channel": 1,
      "note": 82,
      "start": 96.0757,
      "duration": 0.083,
      "velocity": 42,
      "chip": "ym2612"
    },
    {
      "channel": 0,
      "note": 81,
      "start": 96.1759,
      "duration": 0.0827,
      "velocity": 42,
      "chip": "ym2612"
    },
    {
      "channel": 2,
      "note": 40,
      "start": 96.1766,
      "duration": 0.0822,
      "velocity": 100,
      "chip": "ym2612"
    },
    {
      "channel": 1,
      "note": 81,
      "start": 96.2619,
      "duration": 0.0828,
      "velocity": 42,
      "chip": "ym2612"
    },
    {
      "channel": 0,
      "note": 81,
      "start": 96.359,
      "duration": 0.083,
      "velocity": 42,
      "chip": "ym2612"
    },
    {
      "channel": 2,
      "note": 40,
      "start": 96.3596,
      "duration": 0.0829,
      "velocity": 100,
      "chip": "ym2612"
    },
    {
      "channel": 1,
      "note": 81,
      "start": 96.4591,
      "duration": 0.0829,
      "velocity": 42,
      "chip": "ym2612"
    },
    {
      "channel": 0,
      "note": 88,
      "start": 96.5451,
      "duration": 0.0829,
      "velocity": 42,
      "chip": "ym2612"
    },
    {
      "channel": 2,
      "note": 40,
      "start": 96.5457,
      "duration": 0.0824,
      "velocity": 100,
      "chip": "ym2612"
    },
    {
      "channel": 1,
      "note": 81,
      "start": 96.6427,
      "duration": 0.0827,
      "velocity": 42,
      "chip": "ym2612"
    },
    {
      "channel": 0,
      "note": 88,
      "start": 96.7423,
      "duration": 0.083,
      "velocity": 42,
      "chip": "ym2612"
    },
    {
      "channel": 2,
      "note": 47,
      "start": 96.7429,
      "duration": 0.0826,
      "velocity": 100,
      "chip": "ym2612"
    },
    {
      "channel": 1,
      "note": 88,
      "start": 96.8427,
      "duration": 0.0827,
      "velocity": 42,
      "chip": "ym2612"
    },
    {
      "channel": 0,
      "note": 88,
      "start": 96.9284,
      "duration": 0.0829,
      "velocity": 42,
      "chip": "ym2612"
    },
    {
      "channel": 2,
      "note": 47,
      "start": 96.929,
      "duration": 0.0824,
      "velocity": 100,
      "chip": "ym2612"
    },
    {
      "channel": 1,
      "note": 88,
      "start": 97.0257,
      "duration": 0.083,
      "velocity": 42,
      "chip": "ym2612"
    },
    {
      "channel": 0,
      "note": 86,
      "start": 97.1256,
      "duration": 0.083,
      "velocity": 42,
      "chip": "ym2612"
    },
    {
      "channel": 1,
      "note": 88,
      "start": 97.2119,
      "duration": 0.0828,
      "velocity": 42,
      "chip": "ym2612"
    },
    {
      "channel": 0,
      "note": 86,
      "start": 97.3093,
      "duration": 0.0827,
      "velocity": 42,
      "chip": "ym2612"
    },
    {
      "channel": 1,
      "note": 86,
      "start": 97.409,
      "duration": 0.083,
      "velocity": 42,
      "chip": "ym2612"
    },
    {
      "channel": 0,
      "note": 86,
      "start": 97.5093,
      "duration": 0.0827,
      "velocity": 42,
      "chip": "ym2612"
    },
    {
      "channel": 1,
      "note": 86,
      "start": 97.5952,
      "duration": 0.0828,
      "velocity": 42,
      "chip": "ym2612"
    },
    {
      "channel": 0,
      "note": 92,
      "start": 97.6923,
      "duration": 0.083,
      "velocity": 42,
      "chip": "ym2612"
    },
    {
      "channel": 1,
      "note": 86,
      "start": 97.7924,
      "duration": 0.0829,
      "velocity": 42,
      "chip": "ym2612"
    },
    {
      "channel": 0,
      "note": 92,
      "start": 97.8784,
      "duration": 0.0829,
      "velocity": 42,
      "chip": "ym2612"
    },
    {
      "channel": 2,
      "note": 38,
      "start": 97.879,
      "duration": 0.0824,
      "velocity": 100,
      "chip": "ym2612"
    },
    {
      "channel": 1,
      "note": 92,
      "start": 97.976,
      "duration": 0.0827,
      "velocity": 42,
      "chip": "ym2612"
    },
    {
      "channel": 0,
      "note": 92,
      "start": 98.0756,
      "duration": 0.083,
      "velocity": 42,
      "chip": "ym2612"
    },
    {
      "channel": 2,
      "note": 38,
      "start": 98.0763,
      "duration": 0.0826,
      "velocity": 100,
      "chip": "ym2612"
    },
    {
      "channel": 1,
      "note": 92,
      "start": 98.176,
      "duration": 0.0827,
      "velocity": 42,
      "chip": "ym2612"
    },
    {
      "channel": 0,
      "note": 90,
      "start": 98.2617,
      "duration": 0.0829,
      "velocity": 42,
      "chip": "ym2612"
    },
    {
      "channel": 2,
      "note": 38,
      "start": 98.2624,
      "duration": 0.0824,
      "velocity": 100,
      "chip": "ym2612"
    },
    {
      "channel": 1,
      "note": 92,
      "start": 98.359,
      "duration": 0.083,
      "velocity": 42,
      "chip": "ym2612"
    },
    {
      "channel": 0,
      "note": 90,
      "start": 98.459,
      "duration": 0.083,
      "velocity": 42,
      "chip": "ym2612"
    },
    {
      "channel": 2,
      "note": 40,
      "start": 98.4596,
      "duration": 0.0825,
      "velocity": 100,
      "chip": "ym2612"
    },
    {
      "channel": 1,
      "note": 90,
      "start": 98.5453,
      "duration": 0.0828,
      "velocity": 42,
      "chip": "ym2612"
    },
    {
      "channel": 0,
      "note": 90,
      "start": 98.6426,
      "duration": 0.0827,
      "velocity": 42,
      "chip": "ym2612"
    },
    {
      "channel": 2,
      "note": 40,
      "start": 98.6432,
      "duration": 0.0822,
      "velocity": 100,
      "chip": "ym2612"
    },
    {
      "channel": 1,
      "note": 90,
      "start": 98.7423,
      "duration": 0.083,
      "velocity": 42,
      "chip": "ym2612"
    },
    {
      "channel": 0,
      "note": 85,
      "start": 98.8426,
      "duration": 0.0827,
      "velocity": 42,
      "chip": "ym2612"
    },
    {
      "channel": 2,
      "note": 40,
      "start": 98.8432,
      "duration": 0.0822,
      "velocity": 100,
      "chip": "ym2612"
    },
    {
      "channel": 1,
      "note": 90,
      "start": 98.9286,
      "duration": 0.0828,
      "velocity": 42,
      "chip": "ym2612"
    },
    {
      "channel": 0,
      "note": 85,
      "start": 99.0256,
      "duration": 0.083,
      "velocity": 42,
      "chip": "ym2612"
    },
    {
      "channel": 2,
      "note": 47,
      "start": 99.0263,
      "duration": 0.0829,
      "velocity": 100,
      "chip": "ym2612"
    },
    {
      "channel": 1,
      "note": 85,
      "start": 99.1257,
      "duration": 0.0829,
      "velocity": 42,
      "chip": "ym2612"
    },
    {
      "channel": 0,
      "note": 85,
      "start": 99.2117,
      "duration": 0.0829,
      "velocity": 42,
      "chip": "ym2612"
    },
    {
      "channel": 2,
      "note": 47,
      "start": 99.2124,
      "duration": 0.0824,
      "velocity": 100,
      "chip": "ym2612"
    },
    {
      "channel": 1,
      "note": 85,
      "start": 99.3093,
      "duration": 0.0827,
      "velocity": 42,
      "chip": "ym2612"
    },
    {
      "channel": 0,
      "note": 89,
      "start": 99.409,
      "duration": 0.083,
      "velocity": 42,
      "chip": "ym2612"
    },
    {
      "channel": 2,
      "note": 47,
      "start": 99.4096,
      "duration": 0.0826,
      "velocity": 100,
      "chip": "ym2612"
    },
    {
      "channel": 1,
      "note": 85,
      "start": 99.5093,
      "duration": 0.0827,
      "velocity": 42,
      "chip": "ym2612"
    },
    {
      "channel": 0,
      "note": 89,
      "start": 99.5951,
      "duration": 0.0829,
      "velocity": 42,
      "chip": "ym2612"
    },
    {
      "channel": 2,
      "note": 46,
      "start": 99.5957,
      "duration": 0.0825,
      "velocity": 100,
      "chip": "ym2612"
    },
    {
      "channel": 1,
      "note": 89,
      "start": 99.6923,
      "duration": 0.083,
      "velocity": 42,
      "chip": "ym2612"
    },
    {
      "channel": 0,
      "note": 84,
      "start": 99.7923,
      "duration": 0.083,
      "velocity": 42,
      "chip": "ym2612"
    },
    {
      "channel": 2,
      "note": 46,
      "start": 99.793,
      "duration": 0.0825,
      "velocity": 100,
      "chip": "ym2612"
    },
    {
      "channel": 1,
      "note": 89,
      "start": 99.8786,
      "duration": 0.0828,
      "velocity": 42,
      "chip": "ym2612"
    },
    {
      "channel": 0,
      "note": 83,
      "start": 99.9759,
      "duration": 0.0827,
      "velocity": 42,
      "chip": "ym2612"
    },
    {
      "channel": 2,
      "note": 46,
      "start": 99.9766,
      "duration": 0.0822,
      "velocity": 100,
      "chip": "ym2612"
    },
    {
      "channel": 1,
      "note": 84,
      "start": 100.0757,
      "duration": 0.083,
      "velocity": 42,
      "chip": "ym2612"
    },
    {
      "channel": 0,
      "note": 82,
      "start": 100.1759,
      "duration": 0.0827,
      "velocity": 42,
      "chip": "ym2612"
    },
    {
      "channel": 2,
      "note": 46,
      "start": 100.1766,
      "duration": 0.0822,
      "velocity": 100,
      "chip": "ym2612"
    },
    {
      "channel": 1,
      "note": 83,
      "start": 100.2619,
      "duration": 0.0828,
      "velocity": 42,
      "chip": "ym2612"
    },
    {
      "channel": 0,
      "note": 81,
      "start": 100.359,
      "duration": 0.083,
      "velocity": 42,
      "chip": "ym2612"
    },
    {
      "channel": 2,
      "note": 46,
      "start": 100.3596,
      "duration": 0.0829,
      "velocity": 100,
      "chip": "ym2612"
    },
    {
      "channel": 1,
      "note": 82,
      "start": 100.4591,
      "duration": 0.0829,
      "velocity": 42,
      "chip": "ym2612"
    },
    {
      "channel": 0,
      "note": 52,
      "start": 100.549,
      "duration": 0.0039,
      "velocity": 103,
      "chip": "ym2612"
    },
    {
      "channel": 1,
      "note": 28,
      "start": 100.5526,
      "duration": 0.0003,
      "velocity": 127,
      "chip": "ym2612"
    }
  ]
}