{
  "track_name": "16 - The Flowing Waters",
  "duration_sec": 45.795,
  "sample_rate": 44100,
  "note_count": 405,
  "unique_pitches": 31,
  "pitch_range": 57,
  "avg_note_duration": 0.3443,
  "reconstruction_stats": {
    "notes_reconstructed": 405,
    "keyon_events": 405,
    "keyoff_events": 404,
    "orphan_keyons": 1,
    "unique_pitches": 31,
    "pitch_range": 57,
    "avg_duration_sec": 0.3443
  },
  "metadata": {
    "source": "P\\Pier Solar and the Great Architects\\16 - The Flowing Waters.vgz"
  },
  "notes": [
    {
      "channel": 0,
      "note": 57,
      "start": 0.1194,
      "duration": 1.3054,
      "velocity": 114,
      "chip": "ym2612"
    },
    {
      "channel": 2,
      "note": 69,
      "start": 0.121,
      "duration": 0.0149,
      "velocity": 98,
      "chip": "ym2612"
    },
    {
      "channel": 3,
      "note": 78,
      "start": 0.1212,
      "duration": 0.5903,
      "velocity": 90,
      "chip": "ym2612"
    },
    {
      "channel": 4,
      "note": 81,
      "start": 0.1215,
      "duration": 0.5903,
      "velocity": 90,
      "chip": "ym2612"
    },
    {
      "channel": 1,
      "note": 57,
      "start": 0.1358,
      "duration": 1.3037,
      "velocity": 127,
      "chip": "ym2612"
    },
    {
      "channel": 2,
      "note": 76,
      "start": 0.136,
      "duration": 0.0994,
      "velocity": 98,
      "chip": "ym2612"
    },
    {
      "channel": 2,
      "note": 81,
      "start": 0.2356,
      "duration": 0.1188,
      "velocity": 98,
      "chip": "ym2612"
    },
    {
      "channel": 2,
      "note": 100,
      "start": 0.3545,
      "duration": 0.1188,
      "velocity": 98,
      "chip": "ym2612"
    },
    {
      "channel": 2,
      "note": 69,
      "start": 0.4736,
      "duration": 0.1187,
      "velocity": 98,
      "chip": "ym2612"
    },
    {
      "channel": 2,
      "note": 76,
      "start": 0.5924,
      "duration": 0.1188,
      "velocity": 98,
      "chip": "ym2612"
    },
    {
      "channel": 2,
      "note": 81,
      "start": 0.7114,
      "duration": 0.1188,
      "velocity": 98,
      "chip": "ym2612"
    },
    {
      "channel": 3,
      "note": 76,
      "start": 0.7116,
      "duration": 0.2379,
      "velocity": 90,
      "chip": "ym2612"
    },
    {
      "channel": 4,
      "note": 80,
      "start": 0.7119,
      "duration": 0.2378,
      "velocity": 90,
      "chip": "ym2612"
    },
    {
      "channel": 2,
      "note": 100,
      "start": 0.8303,
      "duration": 0.1188,
      "velocity": 98,
      "chip": "ym2612"
    },
    {
      "channel": 2,
      "note": 69,
      "start": 0.9494,
      "duration": 0.1187,
      "velocity": 98,
      "chip": "ym2612"
    },
    {
      "channel": 3,
      "note": 74,
      "start": 0.9496,
      "duration": 0.4758,
      "velocity": 90,
      "chip": "ym2612"
    },
    {
      "channel": 4,
      "note": 78,
      "start": 0.9499,
      "duration": 0.4759,
      "velocity": 90,
      "chip": "ym2612"
    },
    {
      "channel": 2,
      "note": 76,
      "start": 1.0682,
      "duration": 0.1188,
      "velocity": 98,
      "chip": "ym2612"
    },
    {
      "channel": 2,
      "note": 81,
      "start": 1.1871,
      "duration": 0.119,
      "velocity": 98,
      "chip": "ym2612"
    },
    {
      "channel": 2,
      "note": 100,
      "start": 1.3063,
      "duration": 0.1188,
      "velocity": 98,
      "chip": "ym2612"
    },
    {
      "channel": 0,
      "note": 52,
      "start": 1.4249,
      "duration": 1.295,
      "velocity": 114,
      "chip": "ym2612"
    },
    {
      "channel": 2,
      "note": 69,
      "start": 1.4254,
      "duration": 0.0143,
      "velocity": 98,
      "chip": "ym2612"
    },
    {
      "channel": 3,
      "note": 73,
      "start": 1.4256,
      "duration": 1.295,
      "velocity": 90,
      "chip": "ym2612"
    },
    {
      "channel": 4,
      "note": 76,
      "start": 1.4259,
      "duration": 1.295,
      "velocity": 90,
      "chip": "ym2612"
    },
    {
      "channel": 2,
      "note": 76,
      "start": 1.4398,
      "duration": 0.0908,
      "velocity": 98,
      "chip": "ym2612"
    },
    {
      "channel": 2,
      "note": 93,
      "start": 1.5307,
      "duration": 0.2378,
      "velocity": 98,
      "chip": "ym2612"
    },
    {
      "channel": 2,
      "note": 69,
      "start": 1.7687,
      "duration": 0.1187,
      "velocity": 98,
      "chip": "ym2612"
    },
    {
      "channel": 2,
      "note": 76,
      "start": 1.8876,
      "duration": 0.1188,
      "velocity": 98,
      "chip": "ym2612"
    },
    {
      "channel": 2,
      "note": 93,
      "start": 2.0065,
      "duration": 0.2377,
      "velocity": 98,
      "chip": "ym2612"
    },
    {
      "channel": 2,
      "note": 69,
      "start": 2.2445,
      "duration": 0.1187,
      "velocity": 98,
      "chip": "ym2612"
    },
    {
      "channel": 2,
      "note": 76,
      "start": 2.3634,
      "duration": 0.1188,
      "velocity": 98,
      "chip": "ym2612"
    },
    {
      "channel": 2,
      "note": 93,
      "start": 2.4823,
      "duration": 0.2379,
      "velocity": 98,
      "chip": "ym2612"
    },
    {
      "channel": 0,
      "note": 54,
      "start": 2.7201,
      "duration": 1.3053,
      "velocity": 114,
      "chip": "ym2612"
    },
    {
      "channel": 2,
      "note": 78,
      "start": 2.7205,
      "duration": 0.0145,
      "velocity": 98,
      "chip": "ym2612"
    },
    {
      "channel": 3,
      "note": 74,
      "start": 2.7208,
      "duration": 0.8293,
      "velocity": 90,
      "chip": "ym2612"
    },
    {
      "channel": 4,
      "note": 78,
      "start": 2.721,
      "duration": 0.3534,
      "velocity": 90,
      "chip": "ym2612"
    },
    {
      "channel": 2,
      "note": 85,
      "start": 2.7351,
      "duration": 0.1009,
      "velocity": 98,
      "chip": "ym2612"
    },
    {
      "channel": 2,
      "note": 90,
      "start": 2.8361,
      "duration": 0.1189,
      "velocity": 98,
      "chip": "ym2612"
    },
    {
      "channel": 2,
      "note": 102,
      "start": 2.9552,
      "duration": 0.1188,
      "velocity": 98,
      "chip": "ym2612"
    },
    {
      "channel": 1,
      "note": 57,
      "start": 3.0739,
      "duration": 1.2949,
      "velocity": 127,
      "chip": "ym2612"
    },
    {
      "channel": 2,
      "note": 78,
      "start": 3.0743,
      "duration": 0.1185,
      "velocity": 98,
      "chip": "ym2612"
    },
    {
      "channel": 4,
      "note": 71,
      "start": 3.0746,
      "duration": 0.2375,
      "velocity": 90,
      "chip": "ym2612"
    },
    {
      "channel": 2,
      "note": 85,
      "start": 3.1929,
      "duration": 0.1188,
      "velocity": 98,
      "chip": "ym2612"
    },
    {
      "channel": 2,
      "note": 90,
      "start": 3.3119,
      "duration": 0.1188,
      "velocity": 98,
      "chip": "ym2612"
    },
    {
      "channel": 4,
      "note": 74,
      "start": 3.3122,
      "duration": 0.2381,
      "velocity": 90,
      "chip": "ym2612"
    },
    {
      "channel": 2,
      "note": 102,
      "start": 3.4308,
      "duration": 0.1188,
      "velocity": 98,
      "chip": "ym2612"
    },
    {
      "channel": 2,
      "note": 78,
      "start": 3.5499,
      "duration": 0.1187,
      "velocity": 98,
      "chip": "ym2612"
    },
    {
      "channel": 3,
      "note": 69,
      "start": 3.5502,
      "duration": 0.4759,
      "velocity": 90,
      "chip": "ym2612"
    },
    {
      "channel": 4,
      "note": 73,
      "start": 3.5504,
      "duration": 0.4759,
      "velocity": 90,
      "chip": "ym2612"
    },
    {
      "channel": 2,
      "note": 85,
      "start": 3.6687,
      "duration": 0.1188,
      "velocity": 98,
      "chip": "ym2612"
    },
    {
      "channel": 2,
      "note": 90,
      "start": 3.7877,
      "duration": 0.1188,
      "velocity": 98,
      "chip": "ym2612"
    },
    {
      "channel": 2,
      "note": 102,
      "start": 3.9066,
      "duration": 0.119,
      "velocity": 98,
      "chip": "ym2612"
    },
    {
      "channel": 0,
      "note": 47,
      "start": 4.0255,
      "duration": 1.295,
      "velocity": 114,
      "chip": "ym2612"
    },
    {
      "channel": 2,
      "note": 76,
      "start": 4.0259,
      "duration": 0.0144,
      "velocity": 98,
      "chip": "ym2612"
    },
    {
      "channel": 3,
      "note": 68,
      "start": 4.0262,
      "duration": 0.819,
      "velocity": 90,
      "chip": "ym2612"
    },
    {
      "channel": 4,
      "note": 71,
      "start": 4.0264,
      "duration": 0.819,
      "velocity": 90,
      "chip": "ym2612"
    },
    {
      "channel": 2,
      "note": 83,
      "start": 4.0405,
      "duration": 0.0907,
      "velocity": 98,
      "chip": "ym2612"
    },
    {
      "channel": 2,
      "note": 88,
      "start": 4.1312,
      "duration": 0.1188,
      "velocity": 98,
      "chip": "ym2612"
    },
    {
      "channel": 2,
      "note": 100,
      "start": 4.2502,
      "duration": 0.1188,
      "velocity": 98,
      "chip": "ym2612"
    },
    {
      "channel": 2,
      "note": 76,
      "start": 4.3693,
      "duration": 0.1187,
      "velocity": 98,
      "chip": "ym2612"
    },
    {
      "channel": 2,
      "note": 83,
      "start": 4.4881,
      "duration": 0.1188,
      "velocity": 98,
      "chip": "ym2612"
    },
    {
      "channel": 2,
      "note": 88,
      "start": 4.6071,
      "duration": 0.1189,
      "velocity": 98,
      "chip": "ym2612"
    },
    {
      "channel": 2,
      "note": 100,
      "start": 4.7261,
      "duration": 0.1187,
      "velocity": 98,
      "chip": "ym2612"
    },
    {
      "channel": 2,
      "note": 76,
      "start": 4.8451,
      "duration": 0.1187,
      "velocity": 98,
      "chip": "ym2612"
    },
    {
      "channel": 3,
      "note": 68,
      "start": 4.8453,
      "duration": 0.2376,
      "velocity": 90,
      "chip": "ym2612"
    },
    {
      "channel": 4,
      "note": 73,
      "start": 4.8456,
      "duration": 0.2376,
      "velocity": 90,
      "chip": "ym2612"
    },
    {
      "channel": 2,
      "note": 83,
      "start": 4.9639,
      "duration": 0.1188,
      "velocity": 98,
      "chip": "ym2612"
    },
    {
      "channel": 2,
      "note": 88,
      "start": 5.0828,
      "duration": 0.1188,
      "velocity": 98,
      "chip": "ym2612"
    },
    {
      "channel": 3,
      "note": 69,
      "start": 5.0831,
      "duration": 0.238,
      "velocity": 90,
      "chip": "ym2612"
    },
    {
      "channel": 4,
      "note": 74,
      "start": 5.0834,
      "duration": 0.2381,
      "velocity": 90,
      "chip": "ym2612"
    },
    {
      "channel": 2,
      "note": 100,
      "start": 5.2018,
      "duration": 0.119,
      "velocity": 98,
      "chip": "ym2612"
    },
    {
      "channel": 0,
      "note": 52,
      "start": 5.3206,
      "duration": 1.0942,
      "velocity": 114,
      "chip": "ym2612"
    },
    {
      "channel": 2,
      "note": 81,
      "start": 5.321,
      "duration": 0.0144,
      "velocity": 98,
      "chip": "ym2612"
    },
    {
      "channel": 3,
      "note": 71,
      "start": 5.3213,
      "duration": 1.0942,
      "velocity": 90,
      "chip": "ym2612"
    },
    {
      "channel": 4,
      "note": 76,
      "start": 5.3216,
      "duration": 1.0942,
      "velocity": 90,
      "chip": "ym2612"
    },
    {
      "channel": 2,
      "note": 88,
      "start": 5.3356,
      "duration": 0.101,
      "velocity": 98,
      "chip": "ym2612"
    },
    {
      "channel": 1,
      "note": 57,
      "start": 5.4365,
      "duration": 1.0066,
      "velocity": 127,
      "chip": "ym2612"
    },
    {
      "channel": 2,
      "note": 93,
      "start": 5.4368,
      "duration": 0.1186,
      "velocity": 98,
      "chip": "ym2612"
    },
    {
      "channel": 2,
      "note": 100,
      "start": 5.5555,
      "duration": 0.1188,
      "velocity": 98,
      "chip": "ym2612"
    },
    {
      "channel": 2,
      "note": 81,
      "start": 5.6746,
      "duration": 0.1187,
      "velocity": 98,
      "chip": "ym2612"
    },
    {
      "channel": 2,
      "note": 88,
      "start": 5.7934,
      "duration": 0.1188,
      "velocity": 98,
      "chip": "ym2612"
    },
    {
      "channel": 2,
      "note": 93,
      "start": 5.9124,
      "duration": 0.1188,
      "velocity": 98,
      "chip": "ym2612"
    },
    {
      "channel": 2,
      "note": 100,
      "start": 6.0313,
      "duration": 0.1188,
      "velocity": 98,
      "chip": "ym2612"
    },
    {
      "channel": 2,
      "note": 81,
      "start": 6.1504,
      "duration": 0.1187,
      "velocity": 98,
      "chip": "ym2612"
    },
    {
      "channel": 2,
      "note": 88,
      "start": 6.2692,
      "duration": 0.1188,
      "velocity": 98,
      "chip": "ym2612"
    },
    {
      "channel": 2,
      "note": 92,
      "start": 6.3883,
      "duration": 0.0268,
      "velocity": 98,
      "chip": "ym2612"
    },
    {
      "channel": 0,
      "note": 45,
      "start": 6.4149,
      "duration": 0.4177,
      "velocity": 114,
      "chip": "ym2612"
    },
    {
      "channel": 2,
      "note": 69,
      "start": 6.4154,
      "duration": 0.0149,
      "velocity": 98,
      "chip": "ym2612"
    },
    {
      "channel": 3,
      "note": 64,
      "start": 6.4156,
      "duration": 0.4177,
      "velocity": 90,
      "chip": "ym2612"
    },
    {
      "channel": 4,
      "note": 69,
      "start": 6.4159,
      "duration": 0.4177,
      "velocity": 90,
      "chip": "ym2612"
    },
    {
      "channel": 2,
      "note": 76,
      "start": 6.4304,
      "duration": 0.0128,
      "velocity": 98,
      "chip": "ym2612"
    },
    {
      "channel": 2,
      "note": 81,
      "start": 6.4434,
      "duration": 0.0127,
      "velocity": 98,
      "chip": "ym2612"
    },
    {
      "channel": 2,
      "note": 93,
      "start": 6.4562,
      "duration": 0.0138,
      "velocity": 98,
      "chip": "ym2612"
    },
    {
      "channel": 2,
      "note": 69,
      "start": 6.4703,
      "duration": 0.0127,
      "velocity": 98,
      "chip": "ym2612"
    },
    {
      "channel": 2,
      "note": 76,
      "start": 6.4832,
      "duration": 0.0127,
      "velocity": 98,
      "chip": "ym2612"
    },
    {
      "channel": 2,
      "note": 81,
      "start": 6.496,
      "duration": 0.0138,
      "velocity": 98,
      "chip": "ym2612"
    },
    {
      "channel": 2,
      "note": 93,
      "start": 6.5099,
      "duration": 0.0127,
      "velocity": 98,
      "chip": "ym2612"
    },
    {
      "channel": 2,
      "note": 69,
      "start": 6.5229,
      "duration": 0.0139,
      "velocity": 98,
      "chip": "ym2612"
    },
    {
      "channel": 2,
      "note": 76,
      "start": 6.5369,
      "duration": 0.0579,
      "velocity": 98,
      "chip": "ym2612"
    },
    {
      "channel": 2,
      "note": 81,
      "start": 6.595,
      "duration": 0.1188,
      "velocity": 98,
      "chip": "ym2612"
    },
    {
      "channel": 2,
      "note": 93,
      "start": 6.7139,
      "duration": 0.119,
      "velocity": 98,
      "chip": "ym2612"
    },
    {
      "channel": 0,
      "note": 52,
      "start": 6.8327,
      "duration": 1.0941,
      "velocity": 114,
      "chip": "ym2612"
    },
    {
      "channel": 2,
      "note": 78,
      "start": 6.8332,
      "duration": 0.0144,
      "velocity": 98,
      "chip": "ym2612"
    },
    {
      "channel": 3,
      "note": 71,
      "start": 6.8334,
      "duration": 1.0941,
      "velocity": 90,
      "chip": "ym2612"
    },
    {
      "channel": 4,
      "note": 76,
      "start": 6.8337,
      "duration": 1.0941,
      "velocity": 90,
      "chip": "ym2612"
    },
    {
      "channel": 2,
      "note": 83,
      "start": 6.8477,
      "duration": 0.1011,
      "velocity": 98,
      "chip": "ym2612"
    },
    {
      "channel": 1,
      "note": 57,
      "start": 6.9487,
      "duration": 0.9784,
      "velocity": 127,
      "chip": "ym2612"
    },
    {
      "channel": 2,
      "note": 88,
      "start": 6.9489,
      "duration": 0.1188,
      "velocity": 98,
      "chip": "ym2612"
    },
    {
      "channel": 2,
      "note": 102,
      "start": 7.0678,
      "duration": 0.1186,
      "velocity": 98,
      "chip": "ym2612"
    },
    {
      "channel": 2,
      "note": 78,
      "start": 7.1867,
      "duration": 0.1187,
      "velocity": 98,
      "chip": "ym2612"
    },
    {
      "channel": 2,
      "note": 83,
      "start": 7.3056,
      "duration": 0.1188,
      "velocity": 98,
      "chip": "ym2612"
    },
    {
      "channel": 2,
      "note": 88,
      "start": 7.4245,
      "duration": 0.1188,
      "velocity": 98,
      "chip": "ym2612"
    },
    {
      "channel": 2,
      "note": 102,
      "start": 7.5434,
      "duration": 0.1188,
      "velocity": 98,
      "chip": "ym2612"
    },
    {
      "channel": 2,
      "note": 78,
      "start": 7.6625,
      "duration": 0.1187,
      "velocity": 98,
      "chip": "ym2612"
    },
    {
      "channel": 2,
      "note": 83,
      "start": 7.7813,
      "duration": 0.1188,
      "velocity": 98,
      "chip": "ym2612"
    },
    {
      "channel": 2,
      "note": 88,
      "start": 7.9003,
      "duration": 0.0139,
      "velocity": 98,
      "chip": "ym2612"
    },
    {
      "channel": 2,
      "note": 102,
      "start": 7.9143,
      "duration": 0.0128,
      "velocity": 98,
      "chip": "ym2612"
    },
    {
      "channel": 0,
      "note": 47,
      "start": 7.927,
      "duration": 0.4176,
      "velocity": 114,
      "chip": "ym2612"
    },
    {
      "channel": 2,
      "note": 76,
      "start": 7.9274,
      "duration": 0.015,
      "velocity": 98,
      "chip": "ym2612"
    },
    {
      "channel": 3,
      "note": 64,
      "start": 7.9277,
      "duration": 0.4175,
      "velocity": 90,
      "chip": "ym2612"
    },
    {
      "channel": 4,
      "note": 71,
      "start": 7.9279,
      "duration": 0.4175,
      "velocity": 90,
      "chip": "ym2612"
    },
    {
      "channel": 2,
      "note": 81,
      "start": 7.9426,
      "duration": 0.0128,
      "velocity": 98,
      "chip": "ym2612"
    },
    {
      "channel": 2,
      "note": 88,
      "start": 7.9556,
      "duration": 0.0127,
      "velocity": 98,
      "chip": "ym2612"
    },
    {
      "channel": 2,
      "note": 100,
      "start": 7.9684,
      "duration": 0.0137,
      "velocity": 98,
      "chip": "ym2612"
    },
    {
      "channel": 2,
      "note": 76,
      "start": 7.9824,
      "duration": 0.0129,
      "velocity": 98,
      "chip": "ym2612"
    },
    {
      "channel": 2,
      "note": 81,
      "start": 7.9954,
      "duration": 0.0139,
      "velocity": 98,
      "chip": "ym2612"
    },
    {
      "channel": 1,
      "note": 76,
      "start": 8.0092,
      "duration": 0.0975,
      "velocity": 99,
      "chip": "ym2612"
    },
    {
      "channel": 2,
      "note": 88,
      "start": 8.0095,
      "duration": 0.0139,
      "velocity": 98,
      "chip": "ym2612"
    },
    {
      "channel": 2,
      "note": 100,
      "start": 8.0235,
      "duration": 0.0835,
      "velocity": 98,
      "chip": "ym2612"
    },
    {
      "channel": 1,
      "note": 78,
      "start": 8.1069,
      "duration": 0.1188,
      "velocity": 99,
      "chip": "ym2612"
    },
    {
      "channel": 2,
      "note": 76,
      "start": 8.1083,
      "duration": 0.3523,
      "velocity": 99,
      "chip": "ym2612"
    },
    {
      "channel": 1,
      "note": 80,
      "start": 8.2258,
      "duration": 0.119,
      "velocity": 99,
      "chip": "ym2612"
    },
    {
      "channel": 0,
      "note": 52,
      "start": 8.3447,
      "duration": 0.8294,
      "velocity": 114,
      "chip": "ym2612"
    },
    {
      "channel": 1,
      "note": 81,
      "start": 8.3449,
      "duration": 0.8293,
      "velocity": 99,
      "chip": "ym2612"
    },
    {
      "channel": 3,
      "note": 69,
      "start": 8.3453,
      "duration": 0.3534,
      "velocity": 90,
      "chip": "ym2612"
    },
    {
      "channel": 4,
      "note": 73,
      "start": 8.3455,
      "duration": 0.3534,
      "velocity": 90,
      "chip": "ym2612"
    },
    {
      "channel": 2,
      "note": 78,
      "start": 8.4607,
      "duration": 0.1188,
      "velocity": 99,
      "chip": "ym2612"
    },
    {
      "channel": 2,
      "note": 80,
      "start": 8.5796,
      "duration": 0.1188,
      "velocity": 99,
      "chip": "ym2612"
    },
    {
      "channel": 2,
      "note": 81,
      "start": 8.6986,
      "duration": 0.8298,
      "velocity": 99,
      "chip": "ym2612"
    },
    {
      "channel": 3,
      "note": 73,
      "start": 8.6988,
      "duration": 0.4757,
      "velocity": 90,
      "chip": "ym2612"
    },
    {
      "channel": 4,
      "note": 76,
      "start": 8.6991,
      "duration": 0.4757,
      "velocity": 90,
      "chip": "ym2612"
    },
    {
      "channel": 0,
      "note": 49,
      "start": 9.1742,
      "duration": 0.3537,
      "velocity": 114,
      "chip": "ym2612"
    },
    {
      "channel": 3,
      "note": 66,
      "start": 9.1746,
      "duration": 0.3538,
      "velocity": 90,
      "chip": "ym2612"
    },
    {
      "channel": 4,
      "note": 69,
      "start": 9.1749,
      "duration": 0.3538,
      "velocity": 90,
      "chip": "ym2612"
    },
    {
      "channel": 1,
      "note": 78,
      "start": 9.4261,
      "duration": 0.102,
      "velocity": 99,
      "chip": "ym2612"
    },
    {
      "channel": 0,
      "note": 45,
      "start": 9.528,
      "duration": 1.1832,
      "velocity": 114,
      "chip": "ym2612"
    },
    {
      "channel": 1,
      "note": 76,
      "start": 9.5283,
      "duration": 0.7071,
      "velocity": 99,
      "chip": "ym2612"
    },
    {
      "channel": 3,
      "note": 78,
      "start": 9.5286,
      "duration": 1.1831,
      "velocity": 90,
      "chip": "ym2612"
    },
    {
      "channel": 4,
      "note": 81,
      "start": 9.5289,
      "duration": 1.1832,
      "velocity": 90,
      "chip": "ym2612"
    },
    {
      "channel": 2,
      "note": 78,
      "start": 9.7629,
      "duration": 0.1188,
      "velocity": 99,
      "chip": "ym2612"
    },
    {
      "channel": 2,
      "note": 76,
      "start": 9.8819,
      "duration": 0.8297,
      "velocity": 99,
      "chip": "ym2612"
    },
    {
      "channel": 1,
      "note": 81,
      "start": 10.5924,
      "duration": 0.119,
      "velocity": 99,
      "chip": "ym2612"
    },
    {
      "channel": 0,
      "note": 50,
      "start": 10.7113,
      "duration": 0.8294,
      "velocity": 114,
      "chip": "ym2612"
    },
    {
      "channel": 1,
      "note": 83,
      "start": 10.7115,
      "duration": 0.8294,
      "velocity": 99,
      "chip": "ym2612"
    },
    {
      "channel": 3,
      "note": 74,
      "start": 10.7119,
      "duration": 0.5911,
      "velocity": 90,
      "chip": "ym2612"
    },
    {
      "channel": 4,
      "note": 78,
      "start": 10.7122,
      "duration": 0.5911,
      "velocity": 90,
      "chip": "ym2612"
    },
    {
      "channel": 2,
      "note": 81,
      "start": 10.9464,
      "duration": 0.1186,
      "velocity": 99,
      "chip": "ym2612"
    },
    {
      "channel": 2,
      "note": 83,
      "start": 11.0651,
      "duration": 0.8298,
      "velocity": 99,
      "chip": "ym2612"
    },
    {
      "channel": 3,
      "note": 76,
      "start": 11.3031,
      "duration": 0.2381,
      "velocity": 90,
      "chip": "ym2612"
    },
    {
      "channel": 4,
      "note": 80,
      "start": 11.3034,
      "duration": 0.2381,
      "velocity": 90,
      "chip": "ym2612"
    },
    {
      "channel": 0,
      "note": 49,
      "start": 11.5408,
      "duration": 0.3536,
      "velocity": 114,
      "chip": "ym2612"
    },
    {
      "channel": 1,
      "note": 81,
      "start": 11.5411,
      "duration": 0.1156,
      "velocity": 99,
      "chip": "ym2612"
    },
    {
      "channel": 3,
      "note": 78,
      "start": 11.5414,
      "duration": 0.3538,
      "velocity": 90,
      "chip": "ym2612"
    },
    {
      "channel": 4,
      "note": 81,
      "start": 11.5417,
      "duration": 0.3538,
      "velocity": 90,
      "chip": "ym2612"
    },
    {
      "channel": 1,
      "note": 83,
      "start": 11.6568,
      "duration": 0.1188,
      "velocity": 99,
      "chip": "ym2612"
    },
    {
      "channel": 1,
      "note": 81,
      "start": 11.7757,
      "duration": 0.119,
      "velocity": 99,
      "chip": "ym2612"
    },
    {
      "channel": 0,
      "note": 47,
      "start": 11.8946,
      "duration": 0.8294,
      "velocity": 114,
      "chip": "ym2612"
    },
    {
      "channel": 1,
      "note": 76,
      "start": 11.8949,
      "duration": 0.2344,
      "velocity": 99,
      "chip": "ym2612"
    },
    {
      "channel": 2,
      "note": 81,
      "start": 11.8951,
      "duration": 0.1153,
      "velocity": 99,
      "chip": "ym2612"
    },
    {
      "channel": 3,
      "note": 73,
      "start": 11.8954,
      "duration": 0.8294,
      "velocity": 90,
      "chip": "ym2612"
    },
    {
      "channel": 4,
      "note": 76,
      "start": 11.8956,
      "duration": 0.8294,
      "velocity": 90,
      "chip": "ym2612"
    },
    {
      "channel": 2,
      "note": 83,
      "start": 12.0105,
      "duration": 0.119,
      "velocity": 99,
      "chip": "ym2612"
    },
    {
      "channel": 1,
      "note": 74,
      "start": 12.1295,
      "duration": 0.1188,
      "velocity": 99,
      "chip": "ym2612"
    },
    {
      "channel": 2,
      "note": 81,
      "start": 12.1297,
      "duration": 0.1188,
      "velocity": 99,
      "chip": "ym2612"
    },
    {
      "channel": 1,
      "note": 76,
      "start": 12.2484,
      "duration": 0.4759,
      "velocity": 99,
      "chip": "ym2612"
    },
    {
      "channel": 2,
      "note": 76,
      "start": 12.2486,
      "duration": 0.3565,
      "velocity": 99,
      "chip": "ym2612"
    },
    {
      "channel": 2,
      "note": 74,
      "start": 12.6053,
      "duration": 0.1192,
      "velocity": 99,
      "chip": "ym2612"
    },
    {
      "channel": 0,
      "note": 50,
      "start": 12.7241,
      "duration": 0.3536,
      "velocity": 114,
      "chip": "ym2612"
    },
    {
      "channel": 1,
      "note": 86,
      "start": 12.7244,
      "duration": 0.2376,
      "velocity": 99,
      "chip": "ym2612"
    },
    {
      "channel": 2,
      "note": 76,
      "start": 12.7246,
      "duration": 0.3536,
      "velocity": 99,
      "chip": "ym2612"
    },
    {
      "channel": 3,
      "note": 69,
      "start": 12.7249,
      "duration": 0.2374,
      "velocity": 90,
      "chip": "ym2612"
    },
    {
      "channel": 4,
      "note": 73,
      "start": 12.7251,
      "duration": 0.2374,
      "velocity": 90,
      "chip": "ym2612"
    },
    {
      "channel": 1,
      "note": 85,
      "start": 12.9621,
      "duration": 0.0144,
      "velocity": 99,
      "chip": "ym2612"
    },
    {
      "channel": 3,
      "note": 71,
      "start": 12.9624,
      "duration": 0.1161,
      "velocity": 90,
      "chip": "ym2612"
    },
    {
      "channel": 4,
      "note": 74,
      "start": 12.9627,
      "duration": 0.1161,
      "velocity": 90,
      "chip": "ym2612"
    },
    {
      "channel": 1,
      "note": 86,
      "start": 12.9766,
      "duration": 0.1014,
      "velocity": 99,
      "chip": "ym2612"
    },
    {
      "channel": 0,
      "note": 52,
      "start": 13.0779,
      "duration": 1.1832,
      "velocity": 114,
      "chip": "ym2612"
    },
    {
      "channel": 1,
      "note": 88,
      "start": 13.0781,
      "duration": 0.3534,
      "velocity": 99,
      "chip": "ym2612"
    },
    {
      "channel": 2,
      "note": 86,
      "start": 13.0784,
      "duration": 0.1154,
      "velocity": 99,
      "chip": "ym2612"
    },
    {
      "channel": 3,
      "note": 69,
      "start": 13.0786,
      "duration": 1.183,
      "velocity": 90,
      "chip": "ym2612"
    },
    {
      "channel": 4,
      "note": 76,
      "start": 13.0789,
      "duration": 1.183,
      "velocity": 90,
      "chip": "ym2612"
    },
    {
      "channel": 2,
      "note": 85,
      "start": 13.1939,
      "duration": 0.1188,
      "velocity": 99,
      "chip": "ym2612"
    },
    {
      "channel": 2,
      "note": 86,
      "start": 13.3128,
      "duration": 0.119,
      "velocity": 99,
      "chip": "ym2612"
    },
    {
      "channel": 1,
      "note": 85,
      "start": 13.4317,
      "duration": 0.1188,
      "velocity": 99,
      "chip": "ym2612"
    },
    {
      "channel": 2,
      "note": 88,
      "start": 13.432,
      "duration": 0.4754,
      "velocity": 99,
      "chip": "ym2612"
    },
    {
      "channel": 1,
      "note": 88,
      "start": 13.5507,
      "duration": 0.1188,
      "velocity": 99,
      "chip": "ym2612"
    },
    {
      "channel": 1,
      "note": 81,
      "start": 13.6696,
      "duration": 0.4898,
      "velocity": 99,
      "chip": "ym2612"
    },
    {
      "channel": 2,
      "note": 85,
      "start": 13.9076,
      "duration": 0.1188,
      "velocity": 99,
      "chip": "ym2612"
    },
    {
      "channel": 2,
      "note": 88,
      "start": 14.0265,
      "duration": 0.1188,
      "velocity": 99,
      "chip": "ym2612"
    },
    {
      "channel": 2,
      "note": 81,
      "start": 14.1455,
      "duration": 0.3505,
      "velocity": 99,
      "chip": "ym2612"
    },
    {
      "channel": 1,
      "note": 74,
      "start": 14.1595,
      "duration": 0.1018,
      "velocity": 99,
      "chip": "ym2612"
    },
    {
      "channel": 0,
      "note": 45,
      "start": 14.2612,
      "duration": 1.1832,
      "velocity": 114,
      "chip": "ym2612"
    },
    {
      "channel": 1,
      "note": 76,
      "start": 14.2614,
      "duration": 1.1832,
      "velocity": 99,
      "chip": "ym2612"
    },
    {
      "channel": 3,
      "note": 64,
      "start": 14.2618,
      "duration": 1.1832,
      "velocity": 90,
      "chip": "ym2612"
    },
    {
      "channel": 4,
      "note": 69,
      "start": 14.262,
      "duration": 1.1832,
      "velocity": 90,
      "chip": "ym2612"
    },
    {
      "channel": 2,
      "note": 74,
      "start": 14.4961,
      "duration": 0.1188,
      "velocity": 99,
      "chip": "ym2612"
    },
    {
      "channel": 2,
      "note": 76,
      "start": 14.6151,
      "duration": 1.1831,
      "velocity": 99,
      "chip": "ym2612"
    },
    {
      "channel": 0,
      "note": 54,
      "start": 15.4445,
      "duration": 1.1831,
      "velocity": 114,
      "chip": "ym2612"
    },
    {
      "channel": 1,
      "note": 71,
      "start": 15.4447,
      "duration": 0.2346,
      "velocity": 99,
      "chip": "ym2612"
    },
    {
      "channel": 3,
      "note": 71,
      "start": 15.4451,
      "duration": 1.1832,
      "velocity": 90,
      "chip": "ym2612"
    },
    {
      "channel": 4,
      "note": 78,
      "start": 15.4453,
      "duration": 1.1831,
      "velocity": 90,
      "chip": "ym2612"
    },
    {
      "channel": 1,
      "note": 71,
      "start": 15.6795,
      "duration": 0.7103,
      "velocity": 99,
      "chip": "ym2612"
    },
    {
      "channel": 2,
      "note": 71,
      "start": 15.7983,
      "duration": 0.3567,
      "velocity": 99,
      "chip": "ym2612"
    },
    {
      "channel": 2,
      "note": 71,
      "start": 16.1552,
      "duration": 0.5884,
      "velocity": 99,
      "chip": "ym2612"
    },
    {
      "channel": 1,
      "note": 73,
      "start": 16.3899,
      "duration": 0.1188,
      "velocity": 99,
      "chip": "ym2612"
    },
    {
      "channel": 1,
      "note": 74,
      "start": 16.5089,
      "duration": 0.119,
      "velocity": 99,
      "chip": "ym2612"
    },
    {
      "channel": 0,
      "note": 59,
      "start": 16.6278,
      "duration": 1.1831,
      "velocity": 114,
      "chip": "ym2612"
    },
    {
      "channel": 1,
      "note": 76,
      "start": 16.628,
      "duration": 0.8291,
      "velocity": 99,
      "chip": "ym2612"
    },
    {
      "channel": 3,
      "note": 78,
      "start": 16.6283,
      "duration": 0.5911,
      "velocity": 90,
      "chip": "ym2612"
    },
    {
      "channel": 4,
      "note": 83,
      "start": 16.6286,
      "duration": 0.5911,
      "velocity": 90,
      "chip": "ym2612"
    },
    {
      "channel": 2,
      "note": 73,
      "start": 16.7437,
      "duration": 0.1188,
      "velocity": 99,
      "chip": "ym2612"
    },
    {
      "channel": 2,
      "note": 74,
      "start": 16.8627,
      "duration": 0.1188,
      "velocity": 99,
      "chip": "ym2612"
    },
    {
      "channel": 2,
      "note": 76,
      "start": 16.9816,
      "duration": 0.7135,
      "velocity": 99,
      "chip": "ym2612"
    },
    {
      "channel": 3,
      "note": 76,
      "start": 17.2196,
      "duration": 0.2378,
      "velocity": 90,
      "chip": "ym2612"
    },
    {
      "channel": 4,
      "note": 81,
      "start": 17.2199,
      "duration": 0.2378,
      "velocity": 90,
      "chip": "ym2612"
    },
    {
      "channel": 3,
      "note": 74,
      "start": 17.4575,
      "duration": 0.3551,
      "velocity": 90,
      "chip": "ym2612"
    },
    {
      "channel": 4,
      "note": 80,
      "start": 17.4578,
      "duration": 0.3551,
      "velocity": 90,
      "chip": "ym2612"
    },
    {
      "channel": 0,
      "note": 61,
      "start": 17.811,
      "duration": 0.3537,
      "velocity": 114,
      "chip": "ym2612"
    },
    {
      "channel": 2,
      "note": 78,
      "start": 17.8125,
      "duration": 0.3524,
      "velocity": 92,
      "chip": "ym2612"
    },
    {
      "channel": 3,
      "note": 73,
      "start": 17.8128,
      "duration": 3.613,
      "velocity": 98,
      "chip": "ym2612"
    },
    {
      "channel": 4,
      "note": 78,
      "start": 17.813,
      "duration": 3.5559,
      "velocity": 98,
      "chip": "ym2612"
    },
    {
      "channel": 1,
      "note": 78,
      "start": 17.9282,
      "duration": 0.4745,
      "velocity": 92,
      "chip": "ym2612"
    },
    {
      "channel": 0,
      "note": 54,
      "start": 18.1648,
      "duration": 0.1188,
      "velocity": 114,
      "chip": "ym2612"
    },
    {
      "channel": 2,
      "note": 80,
      "start": 18.1651,
      "duration": 0.4755,
      "velocity": 92,
      "chip": "ym2612"
    },
    {
      "channel": 1,
      "note": 80,
      "start": 18.4028,
      "duration": 0.4756,
      "velocity": 92,
      "chip": "ym2612"
    },
    {
      "channel": 2,
      "note": 81,
      "start": 18.6407,
      "duration": 0.2647,
      "velocity": 92,
      "chip": "ym2612"
    },
    {
      "channel": 1,
      "note": 81,
      "start": 18.8786,
      "duration": 0.0542,
      "velocity": 92,
      "chip": "ym2612"
    },
    {
      "channel": 0,
      "note": 61,
      "start": 18.9053,
      "duration": 0.2062,
      "velocity": 114,
      "chip": "ym2612"
    },
    {
      "channel": 2,
      "note": 78,
      "start": 18.9056,
      "duration": 0.0539,
      "velocity": 92,
      "chip": "ym2612"
    },
    {
      "channel": 1,
      "note": 78,
      "start": 18.9329,
      "duration": 0.0531,
      "velocity": 92,
      "chip": "ym2612"
    },
    {
      "channel": 2,
      "note": 78,
      "start": 18.9598,
      "duration": 0.152,
      "velocity": 92,
      "chip": "ym2612"
    },
    {
      "channel": 1,
      "note": 78,
      "start": 18.9863,
      "duration": 0.1533,
      "velocity": 92,
      "chip": "ym2612"
    },
    {
      "channel": 0,
      "note": 59,
      "start": 19.1117,
      "duration": 0.0545,
      "velocity": 114,
      "chip": "ym2612"
    },
    {
      "channel": 2,
      "note": 76,
      "start": 19.1121,
      "duration": 0.0544,
      "velocity": 92,
      "chip": "ym2612"
    },
    {
      "channel": 1,
      "note": 76,
      "start": 19.1399,
      "duration": 0.0533,
      "velocity": 92,
      "chip": "ym2612"
    },
    {
      "channel": 0,
      "note": 52,
      "start": 19.1663,
      "duration": 0.013,
      "velocity": 114,
      "chip": "ym2612"
    },
    {
      "channel": 2,
      "note": 76,
      "start": 19.1668,
      "duration": 0.0268,
      "velocity": 92,
      "chip": "ym2612"
    },
    {
      "channel": 1,
      "note": 76,
      "start": 19.1935,
      "duration": 0.0257,
      "velocity": 92,
      "chip": "ym2612"
    },
    {
      "channel": 2,
      "note": 78,
      "start": 19.1939,
      "duration": 0.0257,
      "velocity": 92,
      "chip": "ym2612"
    },
    {
      "channel": 1,
      "note": 78,
      "start": 19.2195,
      "duration": 0.0726,
      "velocity": 92,
      "chip": "ym2612"
    },
    {
      "channel": 2,
      "note": 80,
      "start": 19.2198,
      "duration": 0.0993,
      "velocity": 92,
      "chip": "ym2612"
    },
    {
      "channel": 1,
      "note": 80,
      "start": 19.2923,
      "duration": 0.0544,
      "velocity": 92,
      "chip": "ym2612"
    },
    {
      "channel": 0,
      "note": 59,
      "start": 19.3189,
      "duration": 0.4182,
      "velocity": 114,
      "chip": "ym2612"
    },
    {
      "channel": 2,
      "note": 76,
      "start": 19.3192,
      "duration": 0.0541,
      "velocity": 92,
      "chip": "ym2612"
    },
    {
      "channel": 1,
      "note": 76,
      "start": 19.3468,
      "duration": 0.0531,
      "velocity": 92,
      "chip": "ym2612"
    },
    {
      "channel": 2,
      "note": 76,
      "start": 19.3736,
      "duration": 0.3638,
      "velocity": 92,
      "chip": "ym2612"
    },
    {
      "channel": 1,
      "note": 76,
      "start": 19.4002,
      "duration": 0.4527,
      "velocity": 92,
      "chip": "ym2612"
    },
    {
      "channel": 0,
      "note": 61,
      "start": 19.7372,
      "duration": 0.3535,
      "velocity": 114,
      "chip": "ym2612"
    },
    {
      "channel": 2,
      "note": 78,
      "start": 19.7377,
      "duration": 0.3534,
      "velocity": 92,
      "chip": "ym2612"
    },
    {
      "channel": 1,
      "note": 78,
      "start": 19.8532,
      "duration": 0.4755,
      "velocity": 92,
      "chip": "ym2612"
    },
    {
      "channel": 0,
      "note": 54,
      "start": 20.0909,
      "duration": 0.1188,
      "velocity": 114,
      "chip": "ym2612"
    },
    {
      "channel": 2,
      "note": 80,
      "start": 20.0912,
      "duration": 0.4755,
      "velocity": 92,
      "chip": "ym2612"
    },
    {
      "channel": 1,
      "note": 80,
      "start": 20.3289,
      "duration": 0.4756,
      "velocity": 92,
      "chip": "ym2612"
    },
    {
      "channel": 2,
      "note": 81,
      "start": 20.5669,
      "duration": 0.2647,
      "velocity": 92,
      "chip": "ym2612"
    },
    {
      "channel": 1,
      "note": 81,
      "start": 20.8047,
      "duration": 0.0544,
      "velocity": 92,
      "chip": "ym2612"
    },
    {
      "channel": 0,
      "note": 61,
      "start": 20.8314,
      "duration": 0.2065,
      "velocity": 114,
      "chip": "ym2612"
    },
    {
      "channel": 2,
      "note": 78,
      "start": 20.8317,
      "duration": 0.054,
      "velocity": 92,
      "chip": "ym2612"
    },
    {
      "channel": 1,
      "note": 78,
      "start": 20.8592,
      "duration": 0.0532,
      "velocity": 92,
      "chip": "ym2612"
    },
    {
      "channel": 2,
      "note": 78,
      "start": 20.8861,
      "duration": 0.1522,
      "velocity": 92,
      "chip": "ym2612"
    },
    {
      "channel": 1,
      "note": 78,
      "start": 20.9126,
      "duration": 0.1534,
      "velocity": 92,
      "chip": "ym2612"
    },
    {
      "channel": 0,
      "note": 59,
      "start": 21.038,
      "duration": 0.0545,
      "velocity": 114,
      "chip": "ym2612"
    },
    {
      "channel": 2,
      "note": 80,
      "start": 21.0385,
      "duration": 0.0544,
      "velocity": 92,
      "chip": "ym2612"
    },
    {
      "channel": 1,
      "note": 80,
      "start": 21.0663,
      "duration": 0.0534,
      "velocity": 92,
      "chip": "ym2612"
    },
    {
      "channel": 0,
      "note": 52,
      "start": 21.0927,
      "duration": 0.0131,
      "velocity": 114,
      "chip": "ym2612"
    },
    {
      "channel": 2,
      "note": 80,
      "start": 21.0932,
      "duration": 0.0269,
      "velocity": 92,
      "chip": "ym2612"
    },
    {
      "channel": 1,
      "note": 80,
      "start": 21.12,
      "duration": 0.0257,
      "velocity": 92,
      "chip": "ym2612"
    },
    {
      "channel": 2,
      "note": 81,
      "start": 21.1204,
      "duration": 0.0257,
      "velocity": 92,
      "chip": "ym2612"
    },
    {
      "channel": 1,
      "note": 81,
      "start": 21.146,
      "duration": 0.0726,
      "velocity": 92,
      "chip": "ym2612"
    },
    {
      "channel": 2,
      "note": 83,
      "start": 21.1463,
      "duration": 0.1016,
      "velocity": 92,
      "chip": "ym2612"
    },
    {
      "channel": 1,
      "note": 83,
      "start": 21.2188,
      "duration": 0.0566,
      "velocity": 92,
      "chip": "ym2612"
    },
    {
      "channel": 0,
      "note": 59,
      "start": 21.2477,
      "duration": 0.4157,
      "velocity": 114,
      "chip": "ym2612"
    },
    {
      "channel": 2,
      "note": 80,
      "start": 21.248,
      "duration": 0.0539,
      "velocity": 92,
      "chip": "ym2612"
    },
    {
      "channel": 1,
      "note": 80,
      "start": 21.2755,
      "duration": 0.0531,
      "velocity": 92,
      "chip": "ym2612"
    },
    {
      "channel": 2,
      "note": 80,
      "start": 21.3022,
      "duration": 0.3615,
      "velocity": 92,
      "chip": "ym2612"
    },
    {
      "channel": 1,
      "note": 80,
      "start": 21.3288,
      "duration": 0.4505,
      "velocity": 92,
      "chip": "ym2612"
    },
    {
      "channel": 4,
      "note": 66,
      "start": 21.369,
      "duration": 0.057,
      "velocity": 98,
      "chip": "ym2612"
    },
    {
      "channel": 3,
      "note": 66,
      "start": 21.4259,
      "duration": 0.1189,
      "velocity": 98,
      "chip": "ym2612"
    },
    {
      "channel": 4,
      "note": 71,
      "start": 21.4261,
      "duration": 0.1189,
      "velocity": 98,
      "chip": "ym2612"
    },
    {
      "channel": 3,
      "note": 71,
      "start": 21.5449,
      "duration": 0.1192,
      "velocity": 98,
      "chip": "ym2612"
    },
    {
      "channel": 4,
      "note": 74,
      "start": 21.5452,
      "duration": 0.1192,
      "velocity": 98,
      "chip": "ym2612"
    },
    {
      "channel": 0,
      "note": 54,
      "start": 21.6636,
      "duration": 1.094,
      "velocity": 114,
      "chip": "ym2612"
    },
    {
      "channel": 2,
      "note": 78,
      "start": 21.664,
      "duration": 0.3532,
      "velocity": 92,
      "chip": "ym2612"
    },
    {
      "channel": 3,
      "note": 74,
      "start": 21.6643,
      "duration": 0.0142,
      "velocity": 98,
      "chip": "ym2612"
    },
    {
      "channel": 4,
      "note": 78,
      "start": 21.6645,
      "duration": 0.591,
      "velocity": 98,
      "chip": "ym2612"
    },
    {
      "channel": 3,
      "note": 78,
      "start": 21.6786,
      "duration": 0.6956,
      "velocity": 98,
      "chip": "ym2612"
    },
    {
      "channel": 1,
      "note": 78,
      "start": 21.7796,
      "duration": 0.4755,
      "velocity": 92,
      "chip": "ym2612"
    },
    {
      "channel": 2,
      "note": 80,
      "start": 22.0174,
      "duration": 0.4756,
      "velocity": 92,
      "chip": "ym2612"
    },
    {
      "channel": 1,
      "note": 80,
      "start": 22.2553,
      "duration": 0.4756,
      "velocity": 92,
      "chip": "ym2612"
    },
    {
      "channel": 4,
      "note": 73,
      "start": 22.2556,
      "duration": 0.2377,
      "velocity": 98,
      "chip": "ym2612"
    },
    {
      "channel": 3,
      "note": 73,
      "start": 22.3743,
      "duration": 0.2378,
      "velocity": 98,
      "chip": "ym2612"
    },
    {
      "channel": 2,
      "note": 81,
      "start": 22.4932,
      "duration": 0.2647,
      "velocity": 92,
      "chip": "ym2612"
    },
    {
      "channel": 4,
      "note": 78,
      "start": 22.4935,
      "duration": 0.2647,
      "velocity": 98,
      "chip": "ym2612"
    },
    {
      "channel": 3,
      "note": 78,
      "start": 22.6122,
      "duration": 0.1605,
      "velocity": 98,
      "chip": "ym2612"
    },
    {
      "channel": 1,
      "note": 81,
      "start": 22.731,
      "duration": 0.0545,
      "velocity": 92,
      "chip": "ym2612"
    },
    {
      "channel": 0,
      "note": 49,
      "start": 22.7577,
      "duration": 0.207,
      "velocity": 114,
      "chip": "ym2612"
    },
    {
      "channel": 2,
      "note": 78,
      "start": 22.758,
      "duration": 0.0542,
      "velocity": 92,
      "chip": "ym2612"
    },
    {
      "channel": 4,
      "note": 85,
      "start": 22.7584,
      "duration": 0.1072,
      "velocity": 98,
      "chip": "ym2612"
    },
    {
      "channel": 3,
      "note": 85,
      "start": 22.7729,
      "duration": 0.1075,
      "velocity": 98,
      "chip": "ym2612"
    },
    {
      "channel": 1,
      "note": 78,
      "start": 22.7856,
      "duration": 0.0531,
      "velocity": 92,
      "chip": "ym2612"
    },
    {
      "channel": 2,
      "note": 78,
      "start": 22.8125,
      "duration": 0.1525,
      "velocity": 92,
      "chip": "ym2612"
    },
    {
      "channel": 1,
      "note": 78,
      "start": 22.839,
      "duration": 0.1543,
      "velocity": 92,
      "chip": "ym2612"
    },
    {
      "channel": 4,
      "note": 73,
      "start": 22.8657,
      "duration": 0.0149,
      "velocity": 98,
      "chip": "ym2612"
    },
    {
      "channel": 3,
      "note": 73,
      "start": 22.8805,
      "duration": 0.0572,
      "velocity": 98,
      "chip": "ym2612"
    },
    {
      "channel": 4,
      "note": 76,
      "start": 22.8808,
      "duration": 0.0572,
      "velocity": 98,
      "chip": "ym2612"
    },
    {
      "channel": 3,
      "note": 76,
      "start": 22.9379,
      "duration": 0.0141,
      "velocity": 98,
      "chip": "ym2612"
    },
    {
      "channel": 4,
      "note": 80,
      "start": 22.9381,
      "duration": 0.0141,
      "velocity": 98,
      "chip": "ym2612"
    },
    {
      "channel": 3,
      "note": 80,
      "start": 22.9521,
      "duration": 0.0134,
      "velocity": 98,
      "chip": "ym2612"
    },
    {
      "channel": 4,
      "note": 83,
      "start": 22.9523,
      "duration": 0.0134,
      "velocity": 98,
      "chip": "ym2612"
    },
    {
      "channel": 0,
      "note": 59,
      "start": 22.9649,
      "duration": 0.2065,
      "velocity": 114,
      "chip": "ym2612"
    },
    {
      "channel": 2,
      "note": 83,
      "start": 22.9653,
      "duration": 0.0547,
      "velocity": 92,
      "chip": "ym2612"
    },
    {
      "channel": 3,
      "note": 83,
      "start": 22.9656,
      "duration": 0.0137,
      "velocity": 98,
      "chip": "ym2612"
    },
    {
      "channel": 4,
      "note": 88,
      "start": 22.9659,
      "duration": 0.0807,
      "velocity": 98,
      "chip": "ym2612"
    },
    {
      "channel": 3,
      "note": 88,
      "start": 22.9795,
      "duration": 0.0811,
      "velocity": 98,
      "chip": "ym2612"
    },
    {
      "channel": 1,
      "note": 83,
      "start": 22.9936,
      "duration": 0.0521,
      "velocity": 92,
      "chip": "ym2612"
    },
    {
      "channel": 2,
      "note": 83,
      "start": 23.0203,
      "duration": 0.0258,
      "velocity": 92,
      "chip": "ym2612"
    },
    {
      "channel": 1,
      "note": 83,
      "start": 23.046,
      "duration": 0.0273,
      "velocity": 92,
      "chip": "ym2612"
    },
    {
      "channel": 2,
      "note": 81,
      "start": 23.0464,
      "duration": 0.0273,
      "velocity": 92,
      "chip": "ym2612"
    },
    {
      "channel": 4,
      "note": 86,
      "start": 23.0467,
      "duration": 0.0273,
      "velocity": 98,
      "chip": "ym2612"
    },
    {
      "channel": 3,
      "note": 86,
      "start": 23.0607,
      "duration": 0.0261,
      "velocity": 98,
      "chip": "ym2612"
    },
    {
      "channel": 1,
      "note": 81,
      "start": 23.0735,
      "duration": 0.071,
      "velocity": 92,
      "chip": "ym2612"
    },
    {
      "channel": 2,
      "note": 80,
      "start": 23.0738,
      "duration": 0.0849,
      "velocity": 92,
      "chip": "ym2612"
    },
    {
      "channel": 4,
      "note": 85,
      "start": 23.0741,
      "duration": 0.0979,
      "velocity": 98,
      "chip": "ym2612"
    },
    {
      "channel": 3,
      "note": 85,
      "start": 23.087,
      "duration": 0.1001,
      "velocity": 98,
      "chip": "ym2612"
    },
    {
      "channel": 1,
      "note": 80,
      "start": 23.1447,
      "duration": 0.042,
      "velocity": 92,
      "chip": "ym2612"
    },
    {
      "channel": 2,
      "note": 83,
      "start": 23.1588,
      "duration": 0.0129,
      "velocity": 92,
      "chip": "ym2612"
    },
    {
      "channel": 0,
      "note": 52,
      "start": 23.1715,
      "duration": 0.4178,
      "velocity": 114,
      "chip": "ym2612"
    },
    {
      "channel": 2,
      "note": 76,
      "start": 23.1718,
      "duration": 0.0546,
      "velocity": 92,
      "chip": "ym2612"
    },
    {
      "channel": 4,
      "note": 83,
      "start": 23.1721,
      "duration": 0.1221,
      "velocity": 98,
      "chip": "ym2612"
    },
    {
      "channel": 1,
      "note": 83,
      "start": 23.1868,
      "duration": 0.013,
      "velocity": 92,
      "chip": "ym2612"
    },
    {
      "channel": 3,
      "note": 83,
      "start": 23.1872,
      "duration": 0.1646,
      "velocity": 98,
      "chip": "ym2612"
    },
    {
      "channel": 1,
      "note": 76,
      "start": 23.2,
      "duration": 0.0528,
      "velocity": 92,
      "chip": "ym2612"
    },
    {
      "channel": 2,
      "note": 81,
      "start": 23.2266,
      "duration": 0.0529,
      "velocity": 92,
      "chip": "ym2612"
    },
    {
      "channel": 1,
      "note": 81,
      "start": 23.2529,
      "duration": 0.0985,
      "velocity": 92,
      "chip": "ym2612"
    },
    {
      "channel": 2,
      "note": 80,
      "start": 23.2796,
      "duration": 0.31,
      "velocity": 92,
      "chip": "ym2612"
    },
    {
      "channel": 4,
      "note": 78,
      "start": 23.2944,
      "duration": 0.0577,
      "velocity": 98,
      "chip": "ym2612"
    },
    {
      "channel": 1,
      "note": 80,
      "start": 23.3516,
      "duration": 0.3536,
      "velocity": 92,
      "chip": "ym2612"
    },
    {
      "channel": 3,
      "note": 90,
      "start": 23.3519,
      "duration": 0.1187,
      "velocity": 98,
      "chip": "ym2612"
    },
    {
      "channel": 4,
      "note": 85,
      "start": 23.3522,
      "duration": 0.1187,
      "velocity": 98,
      "chip": "ym2612"
    },
    {
      "channel": 3,
      "note": 97,
      "start": 23.4708,
      "duration": 0.1192,
      "velocity": 98,
      "chip": "ym2612"
    },
    {
      "channel": 4,
      "note": 90,
      "start": 23.4711,
      "duration": 0.1192,
      "velocity": 98,
      "chip": "ym2612"
    },
    {
      "channel": 0,
      "note": 54,
      "start": 23.5894,
      "duration": 1.0941,
      "velocity": 114,
      "chip": "ym2612"
    },
    {
      "channel": 2,
      "note": 78,
      "start": 23.5899,
      "duration": 0.3533,
      "velocity": 92,
      "chip": "ym2612"
    },
    {
      "channel": 3,
      "note": 90,
      "start": 23.5902,
      "duration": 0.0141,
      "velocity": 98,
      "chip": "ym2612"
    },
    {
      "channel": 4,
      "note": 93,
      "start": 23.5904,
      "duration": 0.5915,
      "velocity": 98,
      "chip": "ym2612"
    },
    {
      "channel": 3,
      "note": 93,
      "start": 23.6045,
      "duration": 0.6956,
      "velocity": 98,
      "chip": "ym2612"
    },
    {
      "channel": 1,
      "note": 78,
      "start": 23.7055,
      "duration": 0.4755,
      "velocity": 92,
      "chip": "ym2612"
    },
    {
      "channel": 2,
      "note": 78,
      "start": 23.9435,
      "duration": 0.238,
      "velocity": 92,
      "chip": "ym2612"
    },
    {
      "channel": 1,
      "note": 78,
      "start": 24.1813,
      "duration": 0.2376,
      "velocity": 92,
      "chip": "ym2612"
    },
    {
      "channel": 2,
      "note": 73,
      "start": 24.1817,
      "duration": 0.2376,
      "velocity": 92,
      "chip": "ym2612"
    },
    {
      "channel": 4,
      "note": 90,
      "start": 24.182,
      "duration": 0.2376,
      "velocity": 98,
      "chip": "ym2612"
    },
    {
      "channel": 3,
      "note": 90,
      "start": 24.3002,
      "duration": 0.2378,
      "velocity": 98,
      "chip": "ym2612"
    },
    {
      "channel": 1,
      "note": 73,
      "start": 24.4192,
      "duration": 0.2376,
      "velocity": 92,
      "chip": "ym2612"
    },
    {
      "channel": 2,
      "note": 78,
      "start": 24.4195,
      "duration": 0.2644,
      "velocity": 92,
      "chip": "ym2612"
    },
    {
      "channel": 4,
      "note": 85,
      "start": 24.4198,
      "duration": 0.2644,
      "velocity": 98,
      "chip": "ym2612"
    },
    {
      "channel": 3,
      "note": 85,
      "start": 24.5381,
      "duration": 0.1606,
      "velocity": 98,
      "chip": "ym2612"
    },
    {
      "channel": 1,
      "note": 78,
      "start": 24.657,
      "duration": 0.0546,
      "velocity": 92,
      "chip": "ym2612"
    },
    {
      "channel": 0,
      "note": 59,
      "start": 24.6837,
      "duration": 0.2075,
      "velocity": 114,
      "chip": "ym2612"
    },
    {
      "channel": 2,
      "note": 85,
      "start": 24.684,
      "duration": 0.0543,
      "velocity": 92,
      "chip": "ym2612"
    },
    {
      "channel": 4,
      "note": 97,
      "start": 24.6843,
      "duration": 0.1085,
      "velocity": 98,
      "chip": "ym2612"
    },
    {
      "channel": 3,
      "note": 97,
      "start": 24.6989,
      "duration": 0.1078,
      "velocity": 98,
      "chip": "ym2612"
    },
    {
      "channel": 1,
      "note": 85,
      "start": 24.7117,
      "duration": 0.0532,
      "velocity": 92,
      "chip": "ym2612"
    },
    {
      "channel": 2,
      "note": 85,
      "start": 24.7386,
      "duration": 0.0267,
      "velocity": 92,
      "chip": "ym2612"
    },
    {
      "channel": 1,
      "note": 85,
      "start": 24.7652,
      "duration": 0.027,
      "velocity": 92,
      "chip": "ym2612"
    },
    {
      "channel": 2,
      "note": 81,
      "start": 24.7656,
      "duration": 0.0138,
      "velocity": 92,
      "chip": "ym2612"
    },
    {
      "channel": 2,
      "note": 83,
      "start": 24.7795,
      "duration": 0.013,
      "velocity": 92,
      "chip": "ym2612"
    },
    {
      "channel": 1,
      "note": 81,
      "start": 24.7924,
      "duration": 0.0139,
      "velocity": 92,
      "chip": "ym2612"
    },
    {
      "channel": 2,
      "note": 85,
      "start": 24.7927,
      "duration": 0.0988,
      "velocity": 92,
      "chip": "ym2612"
    },
    {
      "channel": 4,
      "note": 81,
      "start": 24.793,
      "duration": 0.0139,
      "velocity": 98,
      "chip": "ym2612"
    },
    {
      "channel": 1,
      "note": 83,
      "start": 24.8065,
      "duration": 0.0573,
      "velocity": 92,
      "chip": "ym2612"
    },
    {
      "channel": 3,
      "note": 81,
      "start": 24.8068,
      "duration": 0.0573,
      "velocity": 98,
      "chip": "ym2612"
    },
    {
      "channel": 4,
      "note": 85,
      "start": 24.8071,
      "duration": 0.0573,
      "velocity": 98,
      "chip": "ym2612"
    },
    {
      "channel": 1,
      "note": 85,
      "start": 24.8639,
      "duration": 0.0555,
      "velocity": 92,
      "chip": "ym2612"
    },
    {
      "channel": 3,
      "note": 85,
      "start": 24.8643,
      "duration": 0.0141,
      "velocity": 98,
      "chip": "ym2612"
    },
    {
      "channel": 4,
      "note": 88,
      "start": 24.8645,
      "duration": 0.0141,
      "velocity": 98,
      "chip": "ym2612"
    },
    {
      "channel": 3,
      "note": 88,
      "start": 24.8785,
      "duration": 0.0133,
      "velocity": 98,
      "chip": "ym2612"
    },
    {
      "channel": 4,
      "note": 92,
      "start": 24.8788,
      "duration": 0.0133,
      "velocity": 98,
      "chip": "ym2612"
    },
    {
      "channel": 0,
      "note": 62,
      "start": 24.8913,
      "duration": 0.2058,
      "velocity": 114,
      "chip": "ym2612"
    },
    {
      "channel": 2,
      "note": 86,
      "start": 24.8916,
      "duration": 0.0544,
      "velocity": 92,
      "chip": "ym2612"
    },
    {
      "channel": 3,
      "note": 92,
      "start": 24.8919,
      "duration": 0.0136,
      "velocity": 98,
      "chip": "ym2612"
    },
    {
      "channel": 4,
      "note": 93,
      "start": 24.8922,
      "duration": 0.0542,
      "velocity": 98,
      "chip": "ym2612"
    },
    {
      "channel": 3,
      "note": 93,
      "start": 24.9057,
      "duration": 0.0536,
      "velocity": 98,
      "chip": "ym2612"
    },
    {
      "channel": 1,
      "note": 86,
      "start": 24.9196,
      "duration": 0.0523,
      "velocity": 92,
      "chip": "ym2612"
    },
    {
      "channel": 2,
      "note": 83,
      "start": 24.9462,
      "duration": 0.0525,
      "velocity": 92,
      "chip": "ym2612"
    },
    {
      "channel": 4,
      "note": 90,
      "start": 24.9465,
      "duration": 0.0525,
      "velocity": 98,
      "chip": "ym2612"
    },
    {
      "channel": 3,
      "note": 90,
      "start": 24.9594,
      "duration": 0.0534,
      "velocity": 98,
      "chip": "ym2612"
    },
    {
      "channel": 1,
      "note": 83,
      "start": 24.9721,
      "duration": 0.0985,
      "velocity": 92,
      "chip": "ym2612"
    },
    {
      "channel": 2,
      "note": 81,
      "start": 24.9988,
      "duration": 0.0986,
      "velocity": 92,
      "chip": "ym2612"
    },
    {
      "channel": 4,
      "note": 88,
      "start": 24.9992,
      "duration": 0.0986,
      "velocity": 98,
      "chip": "ym2612"
    },
    {
      "channel": 3,
      "note": 88,
      "start": 25.0129,
      "duration": 0.0997,
      "velocity": 98,
      "chip": "ym2612"
    },
    {
      "channel": 1,
      "note": 81,
      "start": 25.0707,
      "duration": 0.0547,
      "velocity": 92,
      "chip": "ym2612"
    },
    {
      "channel": 0,
      "note": 64,
      "start": 25.0973,
      "duration": 20.6979,
      "velocity": 114,
      "chip": "ym2612"
    },
    {
      "channel": 2,
      "note": 88,
      "start": 25.0976,
      "duration": 0.1073,
      "velocity": 92,
      "chip": "ym2612"
    },
    {
      "channel": 4,
      "note": 83,
      "start": 25.0979,
      "duration": 0.1072,
      "velocity": 98,
      "chip": "ym2612"
    },
    {
      "channel": 3,
      "note": 83,
      "start": 25.1128,
      "duration": 0.0922,
      "velocity": 98,
      "chip": "ym2612"
    },
    {
      "channel": 1,
      "note": 88,
      "start": 25.1256,
      "duration": 0.0526,
      "velocity": 92,
      "chip": "ym2612"
    }
  ]
}