{
  "track_name": "16 - Spaceship",
  "duration_sec": 116.566,
  "sample_rate": 44100,
  "note_count": 1862,
  "unique_pitches": 48,
  "pitch_range": 49,
  "avg_note_duration": 0.1352,
  "reconstruction_stats": {
    "notes_reconstructed": 1862,
    "keyon_events": 1862,
    "keyoff_events": 1709,
    "orphan_keyons": 1,
    "unique_pitches": 48,
    "pitch_range": 49,
    "avg_duration_sec": 0.1352
  },
  "metadata": {
    "source": "M\\McDonald's Treasure Land Adventure\\16 - Spaceship.vgz"
  },
  "notes": [
    {
      "channel": 0,
      "note": 78,
      "start": 0.0003,
      "duration": 0.0492,
      "velocity": 98,
      "chip": "ym2612"
    },
    {
      "channel": 1,
      "note": 66,
      "start": 0.0013,
      "duration": 0.6151,
      "velocity": 107,
      "chip": "ym2612"
    },
    {
      "channel": 2,
      "note": 85,
      "start": 0.0024,
      "duration": 0.0473,
      "velocity": 102,
      "chip": "ym2612"
    },
    {
      "channel": 3,
      "note": 85,
      "start": 0.1341,
      "duration": 0.066,
      "velocity": 102,
      "chip": "ym2612"
    },
    {
      "channel": 0,
      "note": 82,
      "start": 0.1998,
      "duration": 0.0664,
      "velocity": 98,
      "chip": "ym2612"
    },
    {
      "channel": 4,
      "note": 78,
      "start": 0.2015,
      "duration": 0.0651,
      "velocity": 98,
      "chip": "ym2612"
    },
    {
      "channel": 0,
      "note": 83,
      "start": 0.2998,
      "duration": 0.0663,
      "velocity": 98,
      "chip": "ym2612"
    },
    {
      "channel": 0,
      "note": 82,
      "start": 0.4165,
      "duration": 0.0495,
      "velocity": 98,
      "chip": "ym2612"
    },
    {
      "channel": 2,
      "note": 82,
      "start": 0.4169,
      "duration": 0.0494,
      "velocity": 102,
      "chip": "ym2612"
    },
    {
      "channel": 4,
      "note": 82,
      "start": 0.4172,
      "duration": 0.0492,
      "velocity": 98,
      "chip": "ym2612"
    },
    {
      "channel": 4,
      "note": 83,
      "start": 0.4999,
      "duration": 0.0666,
      "velocity": 98,
      "chip": "ym2612"
    },
    {
      "channel": 3,
      "note": 82,
      "start": 0.5499,
      "duration": 0.0669,
      "velocity": 102,
      "chip": "ym2612"
    },
    {
      "channel": 0,
      "note": 78,
      "start": 0.6164,
      "duration": 0.0663,
      "velocity": 98,
      "chip": "ym2612"
    },
    {
      "channel": 1,
      "note": 66,
      "start": 0.6166,
      "duration": 0.2165,
      "velocity": 107,
      "chip": "ym2612"
    },
    {
      "channel": 4,
      "note": 82,
      "start": 0.6171,
      "duration": 0.0659,
      "velocity": 98,
      "chip": "ym2612"
    },
    {
      "channel": 0,
      "note": 76,
      "start": 0.8331,
      "duration": 0.0498,
      "velocity": 98,
      "chip": "ym2612"
    },
    {
      "channel": 1,
      "note": 63,
      "start": 0.8334,
      "duration": 0.0664,
      "velocity": 107,
      "chip": "ym2612"
    },
    {
      "channel": 2,
      "note": 83,
      "start": 0.8337,
      "duration": 0.0494,
      "velocity": 102,
      "chip": "ym2612"
    },
    {
      "channel": 4,
      "note": 78,
      "start": 0.834,
      "duration": 0.0491,
      "velocity": 98,
      "chip": "ym2612"
    },
    {
      "channel": 1,
      "note": 64,
      "start": 0.8997,
      "duration": 0.1392,
      "velocity": 107,
      "chip": "ym2612"
    },
    {
      "channel": 3,
      "note": 83,
      "start": 0.9666,
      "duration": 0.0668,
      "velocity": 102,
      "chip": "ym2612"
    },
    {
      "channel": 0,
      "note": 76,
      "start": 1.0331,
      "duration": 0.0038,
      "velocity": 98,
      "chip": "ym2612"
    },
    {
      "channel": 2,
      "note": 85,
      "start": 1.0334,
      "duration": 0.0037,
      "velocity": 102,
      "chip": "ym2612"
    },
    {
      "channel": 4,
      "note": 76,
      "start": 1.0336,
      "duration": 0.0035,
      "velocity": 98,
      "chip": "ym2612"
    },
    {
      "channel": 1,
      "note": 63,
      "start": 1.0391,
      "duration": 0.2071,
      "velocity": 107,
      "chip": "ym2612"
    },
    {
      "channel": 3,
      "note": 85,
      "start": 1.0421,
      "duration": 0.0046,
      "velocity": 102,
      "chip": "ym2612"
    },
    {
      "channel": 4,
      "note": 76,
      "start": 1.0469,
      "duration": 0.0493,
      "velocity": 98,
      "chip": "ym2612"
    },
    {
      "channel": 0,
      "note": 76,
      "start": 1.2462,
      "duration": 0.0664,
      "velocity": 98,
      "chip": "ym2612"
    },
    {
      "channel": 1,
      "note": 61,
      "start": 1.2465,
      "duration": 0.8324,
      "velocity": 107,
      "chip": "ym2612"
    },
    {
      "channel": 2,
      "note": 82,
      "start": 1.2468,
      "duration": 0.0661,
      "velocity": 102,
      "chip": "ym2612"
    },
    {
      "channel": 3,
      "note": 82,
      "start": 1.3964,
      "duration": 0.0667,
      "velocity": 102,
      "chip": "ym2612"
    },
    {
      "channel": 0,
      "note": 75,
      "start": 1.4629,
      "duration": 0.0495,
      "velocity": 98,
      "chip": "ym2612"
    },
    {
      "channel": 4,
      "note": 76,
      "start": 1.4634,
      "duration": 0.0494,
      "velocity": 98,
      "chip": "ym2612"
    },
    {
      "channel": 2,
      "note": 83,
      "start": 1.6627,
      "duration": 0.0665,
      "velocity": 102,
      "chip": "ym2612"
    },
    {
      "channel": 4,
      "note": 75,
      "start": 1.6631,
      "duration": 0.0663,
      "velocity": 98,
      "chip": "ym2612"
    },
    {
      "channel": 0,
      "note": 75,
      "start": 1.7625,
      "duration": 0.0666,
      "velocity": 98,
      "chip": "ym2612"
    },
    {
      "channel": 3,
      "note": 83,
      "start": 1.8128,
      "duration": 0.0666,
      "velocity": 102,
      "chip": "ym2612"
    },
    {
      "channel": 4,
      "note": 75,
      "start": 1.9624,
      "duration": 0.0664,
      "velocity": 98,
      "chip": "ym2612"
    },
    {
      "channel": 0,
      "note": 75,
      "start": 2.0788,
      "duration": 0.0044,
      "velocity": 98,
      "chip": "ym2612"
    },
    {
      "channel": 1,
      "note": 61,
      "start": 2.079,
      "duration": 0.0134,
      "velocity": 107,
      "chip": "ym2612"
    },
    {
      "channel": 2,
      "note": 85,
      "start": 2.0794,
      "duration": 0.004,
      "velocity": 102,
      "chip": "ym2612"
    },
    {
      "channel": 3,
      "note": 85,
      "start": 2.0887,
      "duration": 0.0041,
      "velocity": 102,
      "chip": "ym2612"
    },
    {
      "channel": 0,
      "note": 73,
      "start": 2.0924,
      "duration": 0.0495,
      "velocity": 98,
      "chip": "ym2612"
    },
    {
      "channel": 1,
      "note": 58,
      "start": 2.0925,
      "duration": 0.0663,
      "velocity": 107,
      "chip": "ym2612"
    },
    {
      "channel": 4,
      "note": 75,
      "start": 2.093,
      "duration": 0.0492,
      "velocity": 98,
      "chip": "ym2612"
    },
    {
      "channel": 1,
      "note": 59,
      "start": 2.1588,
      "duration": 0.2333,
      "velocity": 107,
      "chip": "ym2612"
    },
    {
      "channel": 2,
      "note": 82,
      "start": 2.2922,
      "duration": 0.0665,
      "velocity": 102,
      "chip": "ym2612"
    },
    {
      "channel": 4,
      "note": 73,
      "start": 2.2926,
      "duration": 0.0663,
      "velocity": 98,
      "chip": "ym2612"
    },
    {
      "channel": 0,
      "note": 73,
      "start": 2.3921,
      "duration": 0.0665,
      "velocity": 98,
      "chip": "ym2612"
    },
    {
      "channel": 1,
      "note": 58,
      "start": 2.3924,
      "duration": 0.3161,
      "velocity": 107,
      "chip": "ym2612"
    },
    {
      "channel": 3,
      "note": 82,
      "start": 2.4423,
      "duration": 0.0666,
      "velocity": 102,
      "chip": "ym2612"
    },
    {
      "channel": 4,
      "note": 73,
      "start": 2.5919,
      "duration": 0.0666,
      "velocity": 98,
      "chip": "ym2612"
    },
    {
      "channel": 0,
      "note": 73,
      "start": 2.7084,
      "duration": 0.0663,
      "velocity": 98,
      "chip": "ym2612"
    },
    {
      "channel": 1,
      "note": 56,
      "start": 2.7086,
      "duration": 0.2166,
      "velocity": 107,
      "chip": "ym2612"
    },
    {
      "channel": 2,
      "note": 83,
      "start": 2.709,
      "duration": 0.066,
      "velocity": 102,
      "chip": "ym2612"
    },
    {
      "channel": 3,
      "note": 83,
      "start": 2.8585,
      "duration": 0.0672,
      "velocity": 102,
      "chip": "ym2612"
    },
    {
      "channel": 0,
      "note": 78,
      "start": 2.9252,
      "duration": 0.0496,
      "velocity": 98,
      "chip": "ym2612"
    },
    {
      "channel": 1,
      "note": 54,
      "start": 2.9254,
      "duration": 0.2999,
      "velocity": 107,
      "chip": "ym2612"
    },
    {
      "channel": 2,
      "note": 85,
      "start": 2.9256,
      "duration": 0.0493,
      "velocity": 102,
      "chip": "ym2612"
    },
    {
      "channel": 4,
      "note": 73,
      "start": 2.9259,
      "duration": 0.0491,
      "velocity": 98,
      "chip": "ym2612"
    },
    {
      "channel": 3,
      "note": 85,
      "start": 3.0586,
      "duration": 0.0668,
      "velocity": 102,
      "chip": "ym2612"
    },
    {
      "channel": 0,
      "note": 82,
      "start": 3.1251,
      "duration": 0.0664,
      "velocity": 98,
      "chip": "ym2612"
    },
    {
      "channel": 4,
      "note": 78,
      "start": 3.1257,
      "duration": 0.0661,
      "velocity": 98,
      "chip": "ym2612"
    },
    {
      "channel": 0,
      "note": 83,
      "start": 3.2251,
      "duration": 0.0663,
      "velocity": 98,
      "chip": "ym2612"
    },
    {
      "channel": 1,
      "note": 53,
      "start": 3.2253,
      "duration": 0.0163,
      "velocity": 107,
      "chip": "ym2612"
    },
    {
      "channel": 1,
      "note": 52,
      "start": 3.2417,
      "duration": 0.0167,
      "velocity": 107,
      "chip": "ym2612"
    },
    {
      "channel": 1,
      "note": 51,
      "start": 3.2583,
      "duration": 0.0167,
      "velocity": 107,
      "chip": "ym2612"
    },
    {
      "channel": 1,
      "note": 50,
      "start": 3.275,
      "duration": 0.0167,
      "velocity": 107,
      "chip": "ym2612"
    },
    {
      "channel": 1,
      "note": 49,
      "start": 3.2917,
      "duration": 0.0167,
      "velocity": 107,
      "chip": "ym2612"
    },
    {
      "channel": 1,
      "note": 48,
      "start": 3.3084,
      "duration": 0.0335,
      "velocity": 107,
      "chip": "ym2612"
    },
    {
      "channel": 0,
      "note": 82,
      "start": 3.3418,
      "duration": 0.0496,
      "velocity": 98,
      "chip": "ym2612"
    },
    {
      "channel": 1,
      "note": 47,
      "start": 3.3419,
      "duration": 0.0164,
      "velocity": 107,
      "chip": "ym2612"
    },
    {
      "channel": 2,
      "note": 82,
      "start": 3.3421,
      "duration": 0.0496,
      "velocity": 102,
      "chip": "ym2612"
    },
    {
      "channel": 4,
      "note": 82,
      "start": 3.3424,
      "duration": 0.0494,
      "velocity": 98,
      "chip": "ym2612"
    },
    {
      "channel": 1,
      "note": 46,
      "start": 3.3583,
      "duration": 0.0333,
      "velocity": 107,
      "chip": "ym2612"
    },
    {
      "channel": 1,
      "note": 44,
      "start": 3.3917,
      "duration": 0.0331,
      "velocity": 107,
      "chip": "ym2612"
    },
    {
      "channel": 4,
      "note": 83,
      "start": 3.4252,
      "duration": 0.0664,
      "velocity": 98,
      "chip": "ym2612"
    },
    {
      "channel": 3,
      "note": 82,
      "start": 3.4751,
      "duration": 0.067,
      "velocity": 102,
      "chip": "ym2612"
    },
    {
      "channel": 0,
      "note": 78,
      "start": 3.5416,
      "duration": 0.0665,
      "velocity": 98,
      "chip": "ym2612"
    },
    {
      "channel": 1,
      "note": 54,
      "start": 3.5418,
      "duration": 0.2166,
      "velocity": 107,
      "chip": "ym2612"
    },
    {
      "channel": 4,
      "note": 82,
      "start": 3.5424,
      "duration": 0.066,
      "velocity": 98,
      "chip": "ym2612"
    },
    {
      "channel": 0,
      "note": 76,
      "start": 3.7583,
      "duration": 0.0497,
      "velocity": 98,
      "chip": "ym2612"
    },
    {
      "channel": 1,
      "note": 51,
      "start": 3.7586,
      "duration": 0.0664,
      "velocity": 107,
      "chip": "ym2612"
    },
    {
      "channel": 2,
      "note": 83,
      "start": 3.759,
      "duration": 0.0493,
      "velocity": 102,
      "chip": "ym2612"
    },
    {
      "channel": 4,
      "note": 78,
      "start": 3.7593,
      "duration": 0.0491,
      "velocity": 98,
      "chip": "ym2612"
    },
    {
      "channel": 1,
      "note": 52,
      "start": 3.825,
      "duration": 0.1404,
      "velocity": 107,
      "chip": "ym2612"
    },
    {
      "channel": 3,
      "note": 83,
      "start": 3.8919,
      "duration": 0.0671,
      "velocity": 102,
      "chip": "ym2612"
    },
    {
      "channel": 0,
      "note": 76,
      "start": 3.9584,
      "duration": 0.0049,
      "velocity": 98,
      "chip": "ym2612"
    },
    {
      "channel": 2,
      "note": 85,
      "start": 3.9588,
      "duration": 0.0046,
      "velocity": 102,
      "chip": "ym2612"
    },
    {
      "channel": 4,
      "note": 76,
      "start": 3.9593,
      "duration": 0.0042,
      "velocity": 98,
      "chip": "ym2612"
    },
    {
      "channel": 1,
      "note": 59,
      "start": 3.9657,
      "duration": 0.207,
      "velocity": 107,
      "chip": "ym2612"
    },
    {
      "channel": 3,
      "note": 85,
      "start": 3.9686,
      "duration": 0.0045,
      "velocity": 102,
      "chip": "ym2612"
    },
    {
      "channel": 4,
      "note": 76,
      "start": 3.9733,
      "duration": 0.0495,
      "velocity": 98,
      "chip": "ym2612"
    },
    {
      "channel": 0,
      "note": 78,
      "start": 4.1726,
      "duration": 0.0664,
      "velocity": 98,
      "chip": "ym2612"
    },
    {
      "channel": 1,
      "note": 52,
      "start": 4.1729,
      "duration": 0.2164,
      "velocity": 107,
      "chip": "ym2612"
    },
    {
      "channel": 2,
      "note": 82,
      "start": 4.1732,
      "duration": 0.0661,
      "velocity": 102,
      "chip": "ym2612"
    },
    {
      "channel": 3,
      "note": 82,
      "start": 4.3229,
      "duration": 0.0668,
      "velocity": 102,
      "chip": "ym2612"
    },
    {
      "channel": 1,
      "note": 51,
      "start": 4.3895,
      "duration": 0.629,
      "velocity": 107,
      "chip": "ym2612"
    },
    {
      "channel": 4,
      "note": 78,
      "start": 4.3898,
      "duration": 0.0494,
      "velocity": 98,
      "chip": "ym2612"
    },
    {
      "channel": 2,
      "note": 83,
      "start": 4.5894,
      "duration": 0.0664,
      "velocity": 102,
      "chip": "ym2612"
    },
    {
      "channel": 3,
      "note": 83,
      "start": 4.7393,
      "duration": 0.0666,
      "velocity": 102,
      "chip": "ym2612"
    },
    {
      "channel": 2,
      "note": 85,
      "start": 5.0056,
      "duration": 0.0041,
      "velocity": 102,
      "chip": "ym2612"
    },
    {
      "channel": 3,
      "note": 85,
      "start": 5.0149,
      "duration": 0.0041,
      "velocity": 102,
      "chip": "ym2612"
    },
    {
      "channel": 1,
      "note": 51,
      "start": 5.0187,
      "duration": 0.1996,
      "velocity": 107,
      "chip": "ym2612"
    },
    {
      "channel": 2,
      "note": 82,
      "start": 5.019,
      "duration": 0.0494,
      "velocity": 102,
      "chip": "ym2612"
    },
    {
      "channel": 3,
      "note": 82,
      "start": 5.152,
      "duration": 0.0667,
      "velocity": 102,
      "chip": "ym2612"
    },
    {
      "channel": 1,
      "note": 63,
      "start": 5.2185,
      "duration": 0.2165,
      "velocity": 107,
      "chip": "ym2612"
    },
    {
      "channel": 1,
      "note": 52,
      "start": 5.4351,
      "duration": 0.1995,
      "velocity": 107,
      "chip": "ym2612"
    },
    {
      "channel": 2,
      "note": 83,
      "start": 5.4354,
      "duration": 0.0493,
      "velocity": 102,
      "chip": "ym2612"
    },
    {
      "channel": 3,
      "note": 83,
      "start": 5.5683,
      "duration": 0.0667,
      "velocity": 102,
      "chip": "ym2612"
    },
    {
      "channel": 1,
      "note": 64,
      "start": 5.6348,
      "duration": 0.2184,
      "velocity": 107,
      "chip": "ym2612"
    },
    {
      "channel": 0,
      "note": 78,
      "start": 5.8523,
      "duration": 0.0489,
      "velocity": 98,
      "chip": "ym2612"
    },
    {
      "channel": 1,
      "note": 66,
      "start": 5.8534,
      "duration": 0.6148,
      "velocity": 107,
      "chip": "ym2612"
    },
    {
      "channel": 2,
      "note": 85,
      "start": 5.8542,
      "duration": 0.0472,
      "velocity": 102,
      "chip": "ym2612"
    },
    {
      "channel": 3,
      "note": 85,
      "start": 5.985,
      "duration": 0.0668,
      "velocity": 102,
      "chip": "ym2612"
    },
    {
      "channel": 0,
      "note": 82,
      "start": 6.0515,
      "duration": 0.0664,
      "velocity": 98,
      "chip": "ym2612"
    },
    {
      "channel": 4,
      "note": 78,
      "start": 6.0532,
      "duration": 0.0651,
      "velocity": 98,
      "chip": "ym2612"
    },
    {
      "channel": 0,
      "note": 83,
      "start": 6.1515,
      "duration": 0.0663,
      "velocity": 98,
      "chip": "ym2612"
    },
    {
      "channel": 0,
      "note": 82,
      "start": 6.2682,
      "duration": 0.0495,
      "velocity": 98,
      "chip": "ym2612"
    },
    {
      "channel": 2,
      "note": 82,
      "start": 6.2686,
      "duration": 0.0494,
      "velocity": 102,
      "chip": "ym2612"
    },
    {
      "channel": 4,
      "note": 82,
      "start": 6.2689,
      "duration": 0.0492,
      "velocity": 98,
      "chip": "ym2612"
    },
    {
      "channel": 4,
      "note": 83,
      "start": 6.3516,
      "duration": 0.0666,
      "velocity": 98,
      "chip": "ym2612"
    },
    {
      "channel": 3,
      "note": 82,
      "start": 6.4016,
      "duration": 0.0669,
      "velocity": 102,
      "chip": "ym2612"
    },
    {
      "channel": 0,
      "note": 78,
      "start": 6.4681,
      "duration": 0.0663,
      "velocity": 98,
      "chip": "ym2612"
    },
    {
      "channel": 1,
      "note": 66,
      "start": 6.4683,
      "duration": 0.2165,
      "velocity": 107,
      "chip": "ym2612"
    },
    {
      "channel": 4,
      "note": 82,
      "start": 6.4688,
      "duration": 0.0659,
      "velocity": 98,
      "chip": "ym2612"
    },
    {
      "channel": 0,
      "note": 76,
      "start": 6.6848,
      "duration": 0.0498,
      "velocity": 98,
      "chip": "ym2612"
    },
    {
      "channel": 1,
      "note": 63,
      "start": 6.6851,
      "duration": 0.0664,
      "velocity": 107,
      "chip": "ym2612"
    },
    {
      "channel": 2,
      "note": 83,
      "start": 6.6854,
      "duration": 0.0494,
      "velocity": 102,
      "chip": "ym2612"
    },
    {
      "channel": 4,
      "note": 78,
      "start": 6.6857,
      "duration": 0.0491,
      "velocity": 98,
      "chip": "ym2612"
    },
    {
      "channel": 1,
      "note": 64,
      "start": 6.7514,
      "duration": 0.1392,
      "velocity": 107,
      "chip": "ym2612"
    },
    {
      "channel": 3,
      "note": 83,
      "start": 6.8183,
      "duration": 0.0668,
      "velocity": 102,
      "chip": "ym2612"
    },
    {
      "channel": 0,
      "note": 76,
      "start": 6.8848,
      "duration": 0.0038,
      "velocity": 98,
      "chip": "ym2612"
    },
    {
      "channel": 2,
      "note": 85,
      "start": 6.8851,
      "duration": 0.0037,
      "velocity": 102,
      "chip": "ym2612"
    },
    {
      "channel": 4,
      "note": 76,
      "start": 6.8853,
      "duration": 0.0035,
      "velocity": 98,
      "chip": "ym2612"
    },
    {
      "channel": 1,
      "note": 63,
      "start": 6.8908,
      "duration": 0.2071,
      "velocity": 107,
      "chip": "ym2612"
    },
    {
      "channel": 3,
      "note": 85,
      "start": 6.8938,
      "duration": 0.0046,
      "velocity": 102,
      "chip": "ym2612"
    },
    {
      "channel": 4,
      "note": 76,
      "start": 6.8986,
      "duration": 0.0493,
      "velocity": 98,
      "chip": "ym2612"
    },
    {
      "channel": 0,
      "note": 76,
      "start": 7.0979,
      "duration": 0.0664,
      "velocity": 98,
      "chip": "ym2612"
    },
    {
      "channel": 1,
      "note": 61,
      "start": 7.0982,
      "duration": 0.8324,
      "velocity": 107,
      "chip": "ym2612"
    },
    {
      "channel": 2,
      "note": 82,
      "start": 7.0985,
      "duration": 0.0661,
      "velocity": 102,
      "chip": "ym2612"
    },
    {
      "channel": 3,
      "note": 82,
      "start": 7.2481,
      "duration": 0.0667,
      "velocity": 102,
      "chip": "ym2612"
    },
    {
      "channel": 0,
      "note": 75,
      "start": 7.3146,
      "duration": 0.0495,
      "velocity": 98,
      "chip": "ym2612"
    },
    {
      "channel": 4,
      "note": 76,
      "start": 7.3151,
      "duration": 0.0494,
      "velocity": 98,
      "chip": "ym2612"
    },
    {
      "channel": 2,
      "note": 83,
      "start": 7.5144,
      "duration": 0.0665,
      "velocity": 102,
      "chip": "ym2612"
    },
    {
      "channel": 4,
      "note": 75,
      "start": 7.5148,
      "duration": 0.0663,
      "velocity": 98,
      "chip": "ym2612"
    },
    {
      "channel": 0,
      "note": 75,
      "start": 7.6142,
      "duration": 0.0666,
      "velocity": 98,
      "chip": "ym2612"
    },
    {
      "channel": 3,
      "note": 83,
      "start": 7.6645,
      "duration": 0.0666,
      "velocity": 102,
      "chip": "ym2612"
    },
    {
      "channel": 4,
      "note": 75,
      "start": 7.8141,
      "duration": 0.0664,
      "velocity": 98,
      "chip": "ym2612"
    },
    {
      "channel": 0,
      "note": 75,
      "start": 7.9305,
      "duration": 0.0044,
      "velocity": 98,
      "chip": "ym2612"
    },
    {
      "channel": 1,
      "note": 61,
      "start": 7.9307,
      "duration": 0.0134,
      "velocity": 107,
      "chip": "ym2612"
    },
    {
      "channel": 2,
      "note": 85,
      "start": 7.9311,
      "duration": 0.004,
      "velocity": 102,
      "chip": "ym2612"
    },
    {
      "channel": 3,
      "note": 85,
      "start": 7.9404,
      "duration": 0.0041,
      "velocity": 102,
      "chip": "ym2612"
    },
    {
      "channel": 0,
      "note": 73,
      "start": 7.9441,
      "duration": 0.0495,
      "velocity": 98,
      "chip": "ym2612"
    },
    {
      "channel": 1,
      "note": 58,
      "start": 7.9442,
      "duration": 0.0663,
      "velocity": 107,
      "chip": "ym2612"
    },
    {
      "channel": 4,
      "note": 75,
      "start": 7.9447,
      "duration": 0.0492,
      "velocity": 98,
      "chip": "ym2612"
    },
    {
      "channel": 1,
      "note": 59,
      "start": 8.0105,
      "duration": 0.2333,
      "velocity": 107,
      "chip": "ym2612"
    },
    {
      "channel": 2,
      "note": 82,
      "start": 8.1439,
      "duration": 0.0665,
      "velocity": 102,
      "chip": "ym2612"
    },
    {
      "channel": 4,
      "note": 73,
      "start": 8.1443,
      "duration": 0.0663,
      "velocity": 98,
      "chip": "ym2612"
    },
    {
      "channel": 0,
      "note": 73,
      "start": 8.2437,
      "duration": 0.0666,
      "velocity": 98,
      "chip": "ym2612"
    },
    {
      "channel": 1,
      "note": 58,
      "start": 8.244,
      "duration": 0.3161,
      "velocity": 107,
      "chip": "ym2612"
    },
    {
      "channel": 3,
      "note": 82,
      "start": 8.294,
      "duration": 0.0666,
      "velocity": 102,
      "chip": "ym2612"
    },
    {
      "channel": 4,
      "note": 73,
      "start": 8.4436,
      "duration": 0.0665,
      "velocity": 98,
      "chip": "ym2612"
    },
    {
      "channel": 0,
      "note": 73,
      "start": 8.5601,
      "duration": 0.0663,
      "velocity": 98,
      "chip": "ym2612"
    },
    {
      "channel": 1,
      "note": 56,
      "start": 8.5603,
      "duration": 0.2166,
      "velocity": 107,
      "chip": "ym2612"
    },
    {
      "channel": 2,
      "note": 83,
      "start": 8.5606,
      "duration": 0.066,
      "velocity": 102,
      "chip": "ym2612"
    },
    {
      "channel": 3,
      "note": 83,
      "start": 8.7102,
      "duration": 0.0672,
      "velocity": 102,
      "chip": "ym2612"
    },
    {
      "channel": 0,
      "note": 78,
      "start": 8.7768,
      "duration": 0.0496,
      "velocity": 98,
      "chip": "ym2612"
    },
    {
      "channel": 1,
      "note": 54,
      "start": 8.777,
      "duration": 0.3,
      "velocity": 107,
      "chip": "ym2612"
    },
    {
      "channel": 2,
      "note": 85,
      "start": 8.7773,
      "duration": 0.0494,
      "velocity": 102,
      "chip": "ym2612"
    },
    {
      "channel": 4,
      "note": 73,
      "start": 8.7776,
      "duration": 0.0492,
      "velocity": 98,
      "chip": "ym2612"
    },
    {
      "channel": 3,
      "note": 85,
      "start": 8.9102,
      "duration": 0.0668,
      "velocity": 102,
      "chip": "ym2612"
    },
    {
      "channel": 0,
      "note": 82,
      "start": 8.9767,
      "duration": 0.0664,
      "velocity": 98,
      "chip": "ym2612"
    },
    {
      "channel": 4,
      "note": 78,
      "start": 8.9774,
      "duration": 0.0661,
      "velocity": 98,
      "chip": "ym2612"
    },
    {
      "channel": 0,
      "note": 83,
      "start": 9.0767,
      "duration": 0.0663,
      "velocity": 98,
      "chip": "ym2612"
    },
    {
      "channel": 1,
      "note": 53,
      "start": 9.077,
      "duration": 0.0163,
      "velocity": 107,
      "chip": "ym2612"
    },
    {
      "channel": 1,
      "note": 52,
      "start": 9.0933,
      "duration": 0.0167,
      "velocity": 107,
      "chip": "ym2612"
    },
    {
      "channel": 1,
      "note": 51,
      "start": 9.11,
      "duration": 0.0167,
      "velocity": 107,
      "chip": "ym2612"
    },
    {
      "channel": 1,
      "note": 50,
      "start": 9.1267,
      "duration": 0.0167,
      "velocity": 107,
      "chip": "ym2612"
    },
    {
      "channel": 1,
      "note": 49,
      "start": 9.1433,
      "duration": 0.0167,
      "velocity": 107,
      "chip": "ym2612"
    },
    {
      "channel": 1,
      "note": 48,
      "start": 9.1601,
      "duration": 0.0335,
      "velocity": 107,
      "chip": "ym2612"
    },
    {
      "channel": 0,
      "note": 82,
      "start": 9.1934,
      "duration": 0.0496,
      "velocity": 98,
      "chip": "ym2612"
    },
    {
      "channel": 1,
      "note": 47,
      "start": 9.1936,
      "duration": 0.0164,
      "velocity": 107,
      "chip": "ym2612"
    },
    {
      "channel": 2,
      "note": 82,
      "start": 9.1938,
      "duration": 0.0496,
      "velocity": 102,
      "chip": "ym2612"
    },
    {
      "channel": 4,
      "note": 82,
      "start": 9.1941,
      "duration": 0.0494,
      "velocity": 98,
      "chip": "ym2612"
    },
    {
      "channel": 1,
      "note": 46,
      "start": 9.21,
      "duration": 0.0333,
      "velocity": 107,
      "chip": "ym2612"
    },
    {
      "channel": 1,
      "note": 44,
      "start": 9.2433,
      "duration": 0.0331,
      "velocity": 107,
      "chip": "ym2612"
    },
    {
      "channel": 4,
      "note": 83,
      "start": 9.2768,
      "duration": 0.0664,
      "velocity": 98,
      "chip": "ym2612"
    },
    {
      "channel": 3,
      "note": 82,
      "start": 9.3268,
      "duration": 0.067,
      "velocity": 102,
      "chip": "ym2612"
    },
    {
      "channel": 0,
      "note": 78,
      "start": 9.3933,
      "duration": 0.0665,
      "velocity": 98,
      "chip": "ym2612"
    },
    {
      "channel": 1,
      "note": 54,
      "start": 9.3935,
      "duration": 0.2166,
      "velocity": 107,
      "chip": "ym2612"
    },
    {
      "channel": 4,
      "note": 82,
      "start": 9.394,
      "duration": 0.066,
      "velocity": 98,
      "chip": "ym2612"
    },
    {
      "channel": 0,
      "note": 76,
      "start": 9.61,
      "duration": 0.0497,
      "velocity": 98,
      "chip": "ym2612"
    },
    {
      "channel": 1,
      "note": 51,
      "start": 9.6103,
      "duration": 0.0664,
      "velocity": 107,
      "chip": "ym2612"
    },
    {
      "channel": 2,
      "note": 83,
      "start": 9.6106,
      "duration": 0.0493,
      "velocity": 102,
      "chip": "ym2612"
    },
    {
      "channel": 4,
      "note": 78,
      "start": 9.611,
      "duration": 0.0491,
      "velocity": 98,
      "chip": "ym2612"
    },
    {
      "channel": 1,
      "note": 52,
      "start": 9.6767,
      "duration": 0.1392,
      "velocity": 107,
      "chip": "ym2612"
    },
    {
      "channel": 3,
      "note": 83,
      "start": 9.7435,
      "duration": 0.0669,
      "velocity": 102,
      "chip": "ym2612"
    },
    {
      "channel": 0,
      "note": 76,
      "start": 9.81,
      "duration": 0.0039,
      "velocity": 98,
      "chip": "ym2612"
    },
    {
      "channel": 2,
      "note": 85,
      "start": 9.8103,
      "duration": 0.0038,
      "velocity": 102,
      "chip": "ym2612"
    },
    {
      "channel": 4,
      "note": 76,
      "start": 9.8106,
      "duration": 0.0036,
      "velocity": 98,
      "chip": "ym2612"
    },
    {
      "channel": 1,
      "note": 59,
      "start": 9.8162,
      "duration": 0.2072,
      "velocity": 107,
      "chip": "ym2612"
    },
    {
      "channel": 3,
      "note": 85,
      "start": 9.8191,
      "duration": 0.0045,
      "velocity": 102,
      "chip": "ym2612"
    },
    {
      "channel": 4,
      "note": 76,
      "start": 9.8239,
      "duration": 0.0494,
      "velocity": 98,
      "chip": "ym2612"
    },
    {
      "channel": 0,
      "note": 78,
      "start": 10.0233,
      "duration": 0.0664,
      "velocity": 98,
      "chip": "ym2612"
    },
    {
      "channel": 1,
      "note": 52,
      "start": 10.0236,
      "duration": 0.2163,
      "velocity": 107,
      "chip": "ym2612"
    },
    {
      "channel": 2,
      "note": 82,
      "start": 10.0239,
      "duration": 0.0661,
      "velocity": 102,
      "chip": "ym2612"
    },
    {
      "channel": 3,
      "note": 82,
      "start": 10.1735,
      "duration": 0.0668,
      "velocity": 102,
      "chip": "ym2612"
    },
    {
      "channel": 1,
      "note": 51,
      "start": 10.2401,
      "duration": 0.4247,
      "velocity": 107,
      "chip": "ym2612"
    },
    {
      "channel": 4,
      "note": 78,
      "start": 10.2405,
      "duration": 0.0495,
      "velocity": 98,
      "chip": "ym2612"
    },
    {
      "channel": 2,
      "note": 83,
      "start": 10.4402,
      "duration": 0.0035,
      "velocity": 102,
      "chip": "ym2612"
    },
    {
      "channel": 3,
      "note": 83,
      "start": 10.4486,
      "duration": 0.0051,
      "velocity": 102,
      "chip": "ym2612"
    },
    {
      "channel": 2,
      "note": 85,
      "start": 10.6534,
      "duration": 0.0036,
      "velocity": 102,
      "chip": "ym2612"
    },
    {
      "channel": 3,
      "note": 85,
      "start": 10.6614,
      "duration": 0.0039,
      "velocity": 102,
      "chip": "ym2612"
    },
    {
      "channel": 1,
      "note": 51,
      "start": 10.6651,
      "duration": 0.0123,
      "velocity": 107,
      "chip": "ym2612"
    },
    {
      "channel": 2,
      "note": 82,
      "start": 10.6653,
      "duration": 0.0038,
      "velocity": 102,
      "chip": "ym2612"
    },
    {
      "channel": 3,
      "note": 82,
      "start": 10.6739,
      "duration": 0.0037,
      "velocity": 102,
      "chip": "ym2612"
    },
    {
      "channel": 1,
      "note": 63,
      "start": 10.6776,
      "duration": 0.0142,
      "velocity": 107,
      "chip": "ym2612"
    },
    {
      "channel": 1,
      "note": 52,
      "start": 10.692,
      "duration": 0.0132,
      "velocity": 107,
      "chip": "ym2612"
    },
    {
      "channel": 2,
      "note": 83,
      "start": 10.6922,
      "duration": 0.0037,
      "velocity": 102,
      "chip": "ym2612"
    },
    {
      "channel": 3,
      "note": 83,
      "start": 10.7005,
      "duration": 0.005,
      "velocity": 102,
      "chip": "ym2612"
    },
    {
      "channel": 1,
      "note": 64,
      "start": 10.7054,
      "duration": 0.0146,
      "velocity": 107,
      "chip": "ym2612"
    },
    {
      "channel": 0,
      "note": 64,
      "start": 10.7192,
      "duration": 0.1489,
      "velocity": 98,
      "chip": "ym2612"
    },
    {
      "channel": 1,
      "note": 66,
      "start": 10.7202,
      "duration": 0.1983,
      "velocity": 107,
      "chip": "ym2612"
    },
    {
      "channel": 0,
      "note": 64,
      "start": 10.9185,
      "duration": 0.1499,
      "velocity": 98,
      "chip": "ym2612"
    },
    {
      "channel": 1,
      "note": 66,
      "start": 10.9187,
      "duration": 0.2,
      "velocity": 107,
      "chip": "ym2612"
    },
    {
      "channel": 2,
      "note": 78,
      "start": 10.9189,
      "duration": 0.0665,
      "velocity": 107,
      "chip": "ym2612"
    },
    {
      "channel": 4,
      "note": 64,
      "start": 10.9211,
      "duration": 0.1476,
      "velocity": 98,
      "chip": "ym2612"
    },
    {
      "channel": 0,
      "note": 63,
      "start": 11.1186,
      "duration": 0.0116,
      "velocity": 98,
      "chip": "ym2612"
    },
    {
      "channel": 1,
      "note": 58,
      "start": 11.1189,
      "duration": 0.0136,
      "velocity": 107,
      "chip": "ym2612"
    },
    {
      "channel": 2,
      "note": 82,
      "start": 11.1191,
      "duration": 0.0056,
      "velocity": 107,
      "chip": "ym2612"
    },
    {
      "channel": 3,
      "note": 78,
      "start": 11.1194,
      "duration": 0.0055,
      "velocity": 107,
      "chip": "ym2612"
    },
    {
      "channel": 4,
      "note": 64,
      "start": 11.1196,
      "duration": 0.0108,
      "velocity": 98,
      "chip": "ym2612"
    },
    {
      "channel": 1,
      "note": 58,
      "start": 11.1327,
      "duration": 0.1136,
      "velocity": 107,
      "chip": "ym2612"
    },
    {
      "channel": 2,
      "note": 78,
      "start": 11.1329,
      "duration": 0.0052,
      "velocity": 107,
      "chip": "ym2612"
    },
    {
      "channel": 3,
      "note": 82,
      "start": 11.1332,
      "duration": 0.0049,
      "velocity": 107,
      "chip": "ym2612"
    },
    {
      "channel": 4,
      "note": 63,
      "start": 11.1334,
      "duration": 0.0627,
      "velocity": 98,
      "chip": "ym2612"
    },
    {
      "channel": 0,
      "note": 64,
      "start": 11.2462,
      "duration": 0.1499,
      "velocity": 98,
      "chip": "ym2612"
    },
    {
      "channel": 1,
      "note": 59,
      "start": 11.2464,
      "duration": 0.201,
      "velocity": 107,
      "chip": "ym2612"
    },
    {
      "channel": 2,
      "note": 80,
      "start": 11.2467,
      "duration": 0.0663,
      "velocity": 107,
      "chip": "ym2612"
    },
    {
      "channel": 3,
      "note": 78,
      "start": 11.2469,
      "duration": 0.0661,
      "velocity": 107,
      "chip": "ym2612"
    },
    {
      "channel": 0,
      "note": 80,
      "start": 11.4472,
      "duration": 0.1655,
      "velocity": 127,
      "chip": "ym2612"
    },
    {
      "channel": 1,
      "note": 59,
      "start": 11.4475,
      "duration": 0.2162,
      "velocity": 107,
      "chip": "ym2612"
    },
    {
      "channel": 2,
      "note": 76,
      "start": 11.4478,
      "duration": 0.082,
      "velocity": 107,
      "chip": "ym2612"
    },
    {
      "channel": 3,
      "note": 80,
      "start": 11.4481,
      "duration": 0.0817,
      "velocity": 107,
      "chip": "ym2612"
    },
    {
      "channel": 4,
      "note": 64,
      "start": 11.4484,
      "duration": 0.1646,
      "velocity": 98,
      "chip": "ym2612"
    },
    {
      "channel": 0,
      "note": 88,
      "start": 11.6637,
      "duration": 0.0123,
      "velocity": 127,
      "chip": "ym2612"
    },
    {
      "channel": 1,
      "note": 61,
      "start": 11.6639,
      "duration": 0.0158,
      "velocity": 107,
      "chip": "ym2612"
    },
    {
      "channel": 3,
      "note": 76,
      "start": 11.6642,
      "duration": 0.0067,
      "velocity": 107,
      "chip": "ym2612"
    },
    {
      "channel": 4,
      "note": 80,
      "start": 11.6654,
      "duration": 0.0107,
      "velocity": 127,
      "chip": "ym2612"
    },
    {
      "channel": 0,
      "note": 64,
      "start": 11.6796,
      "duration": 0.0616,
      "velocity": 98,
      "chip": "ym2612"
    },
    {
      "channel": 1,
      "note": 66,
      "start": 11.6799,
      "duration": 0.1116,
      "velocity": 107,
      "chip": "ym2612"
    },
    {
      "channel": 2,
      "note": 78,
      "start": 11.6801,
      "duration": 0.0067,
      "velocity": 107,
      "chip": "ym2612"
    },
    {
      "channel": 4,
      "note": 88,
      "start": 11.6812,
      "duration": 0.0603,
      "velocity": 127,
      "chip": "ym2612"
    },
    {
      "channel": 1,
      "note": 66,
      "start": 11.7915,
      "duration": 0.2003,
      "velocity": 107,
      "chip": "ym2612"
    },
    {
      "channel": 2,
      "note": 82,
      "start": 11.7918,
      "duration": 0.0665,
      "velocity": 107,
      "chip": "ym2612"
    },
    {
      "channel": 3,
      "note": 78,
      "start": 11.792,
      "duration": 0.0664,
      "velocity": 107,
      "chip": "ym2612"
    },
    {
      "channel": 4,
      "note": 64,
      "start": 11.7932,
      "duration": 0.1484,
      "velocity": 98,
      "chip": "ym2612"
    },
    {
      "channel": 0,
      "note": 64,
      "start": 11.9917,
      "duration": 0.1497,
      "velocity": 98,
      "chip": "ym2612"
    },
    {
      "channel": 1,
      "note": 66,
      "start": 11.9919,
      "duration": 0.1997,
      "velocity": 107,
      "chip": "ym2612"
    },
    {
      "channel": 2,
      "note": 78,
      "start": 11.9922,
      "duration": 0.0662,
      "velocity": 107,
      "chip": "ym2612"
    },
    {
      "channel": 3,
      "note": 82,
      "start": 11.9925,
      "duration": 0.0659,
      "velocity": 107,
      "chip": "ym2612"
    },
    {
      "channel": 0,
      "note": 63,
      "start": 12.1916,
      "duration": 0.0116,
      "velocity": 98,
      "chip": "ym2612"
    },
    {
      "channel": 1,
      "note": 58,
      "start": 12.1919,
      "duration": 0.0137,
      "velocity": 107,
      "chip": "ym2612"
    },
    {
      "channel": 2,
      "note": 80,
      "start": 12.1921,
      "duration": 0.0057,
      "velocity": 107,
      "chip": "ym2612"
    },
    {
      "channel": 3,
      "note": 78,
      "start": 12.1923,
      "duration": 0.0056,
      "velocity": 107,
      "chip": "ym2612"
    },
    {
      "channel": 4,
      "note": 64,
      "start": 12.1925,
      "duration": 0.0109,
      "velocity": 98,
      "chip": "ym2612"
    },
    {
      "channel": 1,
      "note": 58,
      "start": 12.2058,
      "duration": 0.1136,
      "velocity": 107,
      "chip": "ym2612"
    },
    {
      "channel": 2,
      "note": 76,
      "start": 12.206,
      "duration": 0.0052,
      "velocity": 107,
      "chip": "ym2612"
    },
    {
      "channel": 3,
      "note": 80,
      "start": 12.2063,
      "duration": 0.0049,
      "velocity": 107,
      "chip": "ym2612"
    },
    {
      "channel": 4,
      "note": 63,
      "start": 12.2066,
      "duration": 0.0627,
      "velocity": 98,
      "chip": "ym2612"
    },
    {
      "channel": 0,
      "note": 64,
      "start": 12.3193,
      "duration": 0.1496,
      "velocity": 98,
      "chip": "ym2612"
    },
    {
      "channel": 1,
      "note": 59,
      "start": 12.3195,
      "duration": 0.1997,
      "velocity": 107,
      "chip": "ym2612"
    },
    {
      "channel": 3,
      "note": 76,
      "start": 12.3198,
      "duration": 0.066,
      "velocity": 107,
      "chip": "ym2612"
    },
    {
      "channel": 0,
      "note": 70,
      "start": 12.5192,
      "duration": 0.0134,
      "velocity": 98,
      "chip": "ym2612"
    },
    {
      "channel": 1,
      "note": 59,
      "start": 12.5194,
      "duration": 0.0168,
      "velocity": 107,
      "chip": "ym2612"
    },
    {
      "channel": 2,
      "note": 77,
      "start": 12.5196,
      "duration": 0.0063,
      "velocity": 107,
      "chip": "ym2612"
    },
    {
      "channel": 4,
      "note": 64,
      "start": 12.5199,
      "duration": 0.0129,
      "velocity": 98,
      "chip": "ym2612"
    },
    {
      "channel": 1,
      "note": 61,
      "start": 12.5364,
      "duration": 0.0136,
      "velocity": 107,
      "chip": "ym2612"
    },
    {
      "channel": 3,
      "note": 77,
      "start": 12.5368,
      "duration": 0.0052,
      "velocity": 107,
      "chip": "ym2612"
    },
    {
      "channel": 4,
      "note": 70,
      "start": 12.5371,
      "duration": 0.0099,
      "velocity": 98,
      "chip": "ym2612"
    },
    {
      "channel": 1,
      "note": 61,
      "start": 12.5502,
      "duration": 0.1999,
      "velocity": 107,
      "chip": "ym2612"
    },
    {
      "channel": 2,
      "note": 78,
      "start": 12.5504,
      "duration": 0.0662,
      "velocity": 107,
      "chip": "ym2612"
    },
    {
      "channel": 0,
      "note": 64,
      "start": 12.7501,
      "duration": 0.4145,
      "velocity": 98,
      "chip": "ym2612"
    },
    {
      "channel": 1,
      "note": 66,
      "start": 12.7504,
      "duration": 0.1995,
      "velocity": 107,
      "chip": "ym2612"
    },
    {
      "channel": 3,
      "note": 78,
      "start": 12.7506,
      "duration": 0.0661,
      "velocity": 107,
      "chip": "ym2612"
    },
    {
      "channel": 1,
      "note": 66,
      "start": 12.9501,
      "duration": 0.1999,
      "velocity": 107,
      "chip": "ym2612"
    },
    {
      "channel": 2,
      "note": 78,
      "start": 12.9504,
      "duration": 0.0663,
      "velocity": 107,
      "chip": "ym2612"
    },
    {
      "channel": 4,
      "note": 64,
      "start": 12.9506,
      "duration": 0.3286,
      "velocity": 98,
      "chip": "ym2612"
    },
    {
      "channel": 1,
      "note": 58,
      "start": 13.1502,
      "duration": 0.0146,
      "velocity": 107,
      "chip": "ym2612"
    },
    {
      "channel": 2,
      "note": 82,
      "start": 13.1504,
      "duration": 0.0059,
      "velocity": 107,
      "chip": "ym2612"
    },
    {
      "channel": 3,
      "note": 78,
      "start": 13.1507,
      "duration": 0.0057,
      "velocity": 107,
      "chip": "ym2612"
    },
    {
      "channel": 0,
      "note": 63,
      "start": 13.1648,
      "duration": 0.5304,
      "velocity": 98,
      "chip": "ym2612"
    },
    {
      "channel": 1,
      "note": 58,
      "start": 13.165,
      "duration": 0.1134,
      "velocity": 107,
      "chip": "ym2612"
    },
    {
      "channel": 2,
      "note": 78,
      "start": 13.1653,
      "duration": 0.0056,
      "velocity": 107,
      "chip": "ym2612"
    },
    {
      "channel": 3,
      "note": 82,
      "start": 13.1656,
      "duration": 0.0055,
      "velocity": 107,
      "chip": "ym2612"
    },
    {
      "channel": 1,
      "note": 59,
      "start": 13.2787,
      "duration": 0.2,
      "velocity": 107,
      "chip": "ym2612"
    },
    {
      "channel": 2,
      "note": 80,
      "start": 13.279,
      "duration": 0.0665,
      "velocity": 107,
      "chip": "ym2612"
    },
    {
      "channel": 3,
      "note": 78,
      "start": 13.2791,
      "duration": 0.0663,
      "velocity": 107,
      "chip": "ym2612"
    },
    {
      "channel": 4,
      "note": 63,
      "start": 13.2794,
      "duration": 0.4322,
      "velocity": 98,
      "chip": "ym2612"
    },
    {
      "channel": 1,
      "note": 59,
      "start": 13.4789,
      "duration": 0.2166,
      "velocity": 107,
      "chip": "ym2612"
    },
    {
      "channel": 2,
      "note": 76,
      "start": 13.4792,
      "duration": 0.083,
      "velocity": 107,
      "chip": "ym2612"
    },
    {
      "channel": 3,
      "note": 80,
      "start": 13.4795,
      "duration": 0.0827,
      "velocity": 107,
      "chip": "ym2612"
    },
    {
      "channel": 0,
      "note": 61,
      "start": 13.6954,
      "duration": 0.1287,
      "velocity": 98,
      "chip": "ym2612"
    },
    {
      "channel": 1,
      "note": 61,
      "start": 13.6957,
      "duration": 0.0151,
      "velocity": 107,
      "chip": "ym2612"
    },
    {
      "channel": 2,
      "note": 77,
      "start": 13.6959,
      "duration": 0.006,
      "velocity": 107,
      "chip": "ym2612"
    },
    {
      "channel": 3,
      "note": 76,
      "start": 13.6961,
      "duration": 0.0059,
      "velocity": 107,
      "chip": "ym2612"
    },
    {
      "channel": 1,
      "note": 66,
      "start": 13.711,
      "duration": 0.1133,
      "velocity": 107,
      "chip": "ym2612"
    },
    {
      "channel": 2,
      "note": 78,
      "start": 13.7112,
      "duration": 0.006,
      "velocity": 107,
      "chip": "ym2612"
    },
    {
      "channel": 3,
      "note": 77,
      "start": 13.7115,
      "duration": 0.0057,
      "velocity": 107,
      "chip": "ym2612"
    },
    {
      "channel": 4,
      "note": 61,
      "start": 13.7117,
      "duration": 0.3129,
      "velocity": 98,
      "chip": "ym2612"
    },
    {
      "channel": 0,
      "note": 61,
      "start": 13.8241,
      "duration": 0.9631,
      "velocity": 98,
      "chip": "ym2612"
    },
    {
      "channel": 1,
      "note": 66,
      "start": 13.8243,
      "duration": 0.1998,
      "velocity": 107,
      "chip": "ym2612"
    },
    {
      "channel": 3,
      "note": 78,
      "start": 13.8247,
      "duration": 0.0663,
      "velocity": 107,
      "chip": "ym2612"
    },
    {
      "channel": 1,
      "note": 66,
      "start": 14.0243,
      "duration": 0.1998,
      "velocity": 107,
      "chip": "ym2612"
    },
    {
      "channel": 4,
      "note": 61,
      "start": 14.0246,
      "duration": 0.9646,
      "velocity": 98,
      "chip": "ym2612"
    },
    {
      "channel": 1,
      "note": 58,
      "start": 14.2243,
      "duration": 0.0144,
      "velocity": 107,
      "chip": "ym2612"
    },
    {
      "channel": 1,
      "note": 58,
      "start": 14.2388,
      "duration": 0.1133,
      "velocity": 107,
      "chip": "ym2612"
    },
    {
      "channel": 1,
      "note": 61,
      "start": 14.3523,
      "duration": 0.2,
      "velocity": 107,
      "chip": "ym2612"
    },
    {
      "channel": 2,
      "note": 93,
      "start": 14.3533,
      "duration": 0.049,
      "velocity": 75,
      "chip": "ym2612"
    },
    {
      "channel": 2,
      "note": 92,
      "start": 14.4358,
      "duration": 0.0665,
      "velocity": 75,
      "chip": "ym2612"
    },
    {
      "channel": 1,
      "note": 61,
      "start": 14.5525,
      "duration": 0.018,
      "velocity": 107,
      "chip": "ym2612"
    },
    {
      "channel": 2,
      "note": 90,
      "start": 14.5527,
      "duration": 0.0061,
      "velocity": 75,
      "chip": "ym2612"
    },
    {
      "channel": 3,
      "note": 93,
      "start": 14.5538,
      "duration": 0.0061,
      "velocity": 75,
      "chip": "ym2612"
    },
    {
      "channel": 2,
      "note": 88,
      "start": 14.5617,
      "duration": 0.0049,
      "velocity": 75,
      "chip": "ym2612"
    },
    {
      "channel": 3,
      "note": 92,
      "start": 14.562,
      "duration": 0.0059,
      "velocity": 75,
      "chip": "ym2612"
    },
    {
      "channel": 1,
      "note": 64,
      "start": 14.5707,
      "duration": 0.0167,
      "velocity": 107,
      "chip": "ym2612"
    },
    {
      "channel": 2,
      "note": 93,
      "start": 14.571,
      "duration": 0.005,
      "velocity": 75,
      "chip": "ym2612"
    },
    {
      "channel": 3,
      "note": 90,
      "start": 14.5712,
      "duration": 0.006,
      "velocity": 75,
      "chip": "ym2612"
    },
    {
      "channel": 2,
      "note": 92,
      "start": 14.5785,
      "duration": 0.0048,
      "velocity": 75,
      "chip": "ym2612"
    },
    {
      "channel": 3,
      "note": 88,
      "start": 14.5788,
      "duration": 0.0055,
      "velocity": 75,
      "chip": "ym2612"
    },
    {
      "channel": 1,
      "note": 64,
      "start": 14.5875,
      "duration": 0.2,
      "velocity": 107,
      "chip": "ym2612"
    },
    {
      "channel": 2,
      "note": 90,
      "start": 14.5878,
      "duration": 0.0496,
      "velocity": 75,
      "chip": "ym2612"
    },
    {
      "channel": 3,
      "note": 93,
      "start": 14.5881,
      "duration": 0.0659,
      "velocity": 75,
      "chip": "ym2612"
    },
    {
      "channel": 2,
      "note": 88,
      "start": 14.6708,
      "duration": 0.0665,
      "velocity": 75,
      "chip": "ym2612"
    },
    {
      "channel": 3,
      "note": 92,
      "start": 14.6712,
      "duration": 0.0829,
      "velocity": 75,
      "chip": "ym2612"
    },
    {
      "channel": 0,
      "note": 62,
      "start": 14.7874,
      "duration": 0.1499,
      "velocity": 98,
      "chip": "ym2612"
    },
    {
      "channel": 1,
      "note": 64,
      "start": 14.7877,
      "duration": 0.2,
      "velocity": 107,
      "chip": "ym2612"
    },
    {
      "channel": 3,
      "note": 90,
      "start": 14.789,
      "duration": 0.0654,
      "velocity": 75,
      "chip": "ym2612"
    },
    {
      "channel": 3,
      "note": 88,
      "start": 14.8713,
      "duration": 0.083,
      "velocity": 75,
      "chip": "ym2612"
    },
    {
      "channel": 0,
      "note": 62,
      "start": 14.9877,
      "duration": 0.15,
      "velocity": 98,
      "chip": "ym2612"
    },
    {
      "channel": 1,
      "note": 64,
      "start": 14.9879,
      "duration": 0.2,
      "velocity": 107,
      "chip": "ym2612"
    },
    {
      "channel": 2,
      "note": 76,
      "start": 14.9881,
      "duration": 0.0665,
      "velocity": 107,
      "chip": "ym2612"
    },
    {
      "channel": 4,
      "note": 62,
      "start": 14.9894,
      "duration": 0.1485,
      "velocity": 98,
      "chip": "ym2612"
    },
    {
      "channel": 0,
      "note": 61,
      "start": 15.1878,
      "duration": 0.0116,
      "velocity": 98,
      "chip": "ym2612"
    },
    {
      "channel": 1,
      "note": 56,
      "start": 15.1882,
      "duration": 0.0137,
      "velocity": 107,
      "chip": "ym2612"
    },
    {
      "channel": 2,
      "note": 80,
      "start": 15.1884,
      "duration": 0.0057,
      "velocity": 107,
      "chip": "ym2612"
    },
    {
      "channel": 3,
      "note": 76,
      "start": 15.1886,
      "duration": 0.0056,
      "velocity": 107,
      "chip": "ym2612"
    },
    {
      "channel": 4,
      "note": 62,
      "start": 15.1888,
      "duration": 0.0109,
      "velocity": 98,
      "chip": "ym2612"
    },
    {
      "channel": 1,
      "note": 56,
      "start": 15.202,
      "duration": 0.1136,
      "velocity": 107,
      "chip": "ym2612"
    },
    {
      "channel": 2,
      "note": 76,
      "start": 15.2022,
      "duration": 0.0052,
      "velocity": 107,
      "chip": "ym2612"
    },
    {
      "channel": 3,
      "note": 80,
      "start": 15.2026,
      "duration": 0.0049,
      "velocity": 107,
      "chip": "ym2612"
    },
    {
      "channel": 4,
      "note": 61,
      "start": 15.2028,
      "duration": 0.0627,
      "velocity": 98,
      "chip": "ym2612"
    },
    {
      "channel": 0,
      "note": 62,
      "start": 15.3156,
      "duration": 0.1499,
      "velocity": 98,
      "chip": "ym2612"
    },
    {
      "channel": 1,
      "note": 57,
      "start": 15.3158,
      "duration": 0.201,
      "velocity": 107,
      "chip": "ym2612"
    },
    {
      "channel": 2,
      "note": 78,
      "start": 15.3161,
      "duration": 0.0663,
      "velocity": 107,
      "chip": "ym2612"
    },
    {
      "channel": 3,
      "note": 76,
      "start": 15.3163,
      "duration": 0.0661,
      "velocity": 107,
      "chip": "ym2612"
    },
    {
      "channel": 0,
      "note": 80,
      "start": 15.5166,
      "duration": 0.1655,
      "velocity": 127,
      "chip": "ym2612"
    },
    {
      "channel": 1,
      "note": 57,
      "start": 15.5169,
      "duration": 0.2162,
      "velocity": 107,
      "chip": "ym2612"
    },
    {
      "channel": 2,
      "note": 74,
      "start": 15.5172,
      "duration": 0.082,
      "velocity": 107,
      "chip": "ym2612"
    },
    {
      "channel": 3,
      "note": 78,
      "start": 15.5175,
      "duration": 0.0817,
      "velocity": 107,
      "chip": "ym2612"
    },
    {
      "channel": 4,
      "note": 62,
      "start": 15.5178,
      "duration": 0.1646,
      "velocity": 98,
      "chip": "ym2612"
    },
    {
      "channel": 0,
      "note": 88,
      "start": 15.7331,
      "duration": 0.0123,
      "velocity": 127,
      "chip": "ym2612"
    },
    {
      "channel": 1,
      "note": 59,
      "start": 15.7333,
      "duration": 0.0158,
      "velocity": 107,
      "chip": "ym2612"
    },
    {
      "channel": 3,
      "note": 74,
      "start": 15.7336,
      "duration": 0.0067,
      "velocity": 107,
      "chip": "ym2612"
    },
    {
      "channel": 4,
      "note": 80,
      "start": 15.7348,
      "duration": 0.0107,
      "velocity": 127,
      "chip": "ym2612"
    },
    {
      "channel": 0,
      "note": 62,
      "start": 15.749,
      "duration": 0.0616,
      "velocity": 98,
      "chip": "ym2612"
    },
    {
      "channel": 1,
      "note": 64,
      "start": 15.7493,
      "duration": 0.1116,
      "velocity": 107,
      "chip": "ym2612"
    },
    {
      "channel": 2,
      "note": 76,
      "start": 15.7495,
      "duration": 0.0067,
      "velocity": 107,
      "chip": "ym2612"
    },
    {
      "channel": 4,
      "note": 88,
      "start": 15.7506,
      "duration": 0.0603,
      "velocity": 127,
      "chip": "ym2612"
    },
    {
      "channel": 1,
      "note": 64,
      "start": 15.8609,
      "duration": 0.2003,
      "velocity": 107,
      "chip": "ym2612"
    },
    {
      "channel": 2,
      "note": 80,
      "start": 15.8612,
      "duration": 0.0665,
      "velocity": 107,
      "chip": "ym2612"
    },
    {
      "channel": 3,
      "note": 76,
      "start": 15.8614,
      "duration": 0.0663,
      "velocity": 107,
      "chip": "ym2612"
    },
    {
      "channel": 4,
      "note": 62,
      "start": 15.8626,
      "duration": 0.1485,
      "velocity": 98,
      "chip": "ym2612"
    },
    {
      "channel": 0,
      "note": 62,
      "start": 16.0611,
      "duration": 0.1497,
      "velocity": 98,
      "chip": "ym2612"
    },
    {
      "channel": 1,
      "note": 64,
      "start": 16.0613,
      "duration": 0.1997,
      "velocity": 107,
      "chip": "ym2612"
    },
    {
      "channel": 2,
      "note": 76,
      "start": 16.0616,
      "duration": 0.0662,
      "velocity": 107,
      "chip": "ym2612"
    },
    {
      "channel": 3,
      "note": 80,
      "start": 16.0619,
      "duration": 0.0659,
      "velocity": 107,
      "chip": "ym2612"
    },
    {
      "channel": 0,
      "note": 61,
      "start": 16.261,
      "duration": 0.0115,
      "velocity": 98,
      "chip": "ym2612"
    },
    {
      "channel": 1,
      "note": 56,
      "start": 16.2613,
      "duration": 0.0137,
      "velocity": 107,
      "chip": "ym2612"
    },
    {
      "channel": 2,
      "note": 78,
      "start": 16.2615,
      "duration": 0.0057,
      "velocity": 107,
      "chip": "ym2612"
    },
    {
      "channel": 3,
      "note": 76,
      "start": 16.2617,
      "duration": 0.0056,
      "velocity": 107,
      "chip": "ym2612"
    },
    {
      "channel": 4,
      "note": 62,
      "start": 16.2619,
      "duration": 0.0107,
      "velocity": 98,
      "chip": "ym2612"
    },
    {
      "channel": 1,
      "note": 56,
      "start": 16.2753,
      "duration": 0.1133,
      "velocity": 107,
      "chip": "ym2612"
    },
    {
      "channel": 2,
      "note": 74,
      "start": 16.2754,
      "duration": 0.0051,
      "velocity": 107,
      "chip": "ym2612"
    },
    {
      "channel": 3,
      "note": 78,
      "start": 16.2757,
      "duration": 0.0049,
      "velocity": 107,
      "chip": "ym2612"
    },
    {
      "channel": 4,
      "note": 61,
      "start": 16.2759,
      "duration": 0.0625,
      "velocity": 98,
      "chip": "ym2612"
    },
    {
      "channel": 0,
      "note": 62,
      "start": 16.3885,
      "duration": 0.1496,
      "velocity": 98,
      "chip": "ym2612"
    },
    {
      "channel": 1,
      "note": 57,
      "start": 16.3887,
      "duration": 0.1998,
      "velocity": 107,
      "chip": "ym2612"
    },
    {
      "channel": 3,
      "note": 74,
      "start": 16.389,
      "duration": 0.066,
      "velocity": 107,
      "chip": "ym2612"
    },
    {
      "channel": 0,
      "note": 68,
      "start": 16.5884,
      "duration": 0.0134,
      "velocity": 98,
      "chip": "ym2612"
    },
    {
      "channel": 1,
      "note": 57,
      "start": 16.5886,
      "duration": 0.0166,
      "velocity": 107,
      "chip": "ym2612"
    },
    {
      "channel": 2,
      "note": 75,
      "start": 16.5888,
      "duration": 0.0062,
      "velocity": 107,
      "chip": "ym2612"
    },
    {
      "channel": 4,
      "note": 62,
      "start": 16.5891,
      "duration": 0.0129,
      "velocity": 98,
      "chip": "ym2612"
    },
    {
      "channel": 1,
      "note": 59,
      "start": 16.6055,
      "duration": 0.0132,
      "velocity": 107,
      "chip": "ym2612"
    },
    {
      "channel": 3,
      "note": 75,
      "start": 16.6058,
      "duration": 0.0051,
      "velocity": 107,
      "chip": "ym2612"
    },
    {
      "channel": 4,
      "note": 68,
      "start": 16.606,
      "duration": 0.0096,
      "velocity": 98,
      "chip": "ym2612"
    },
    {
      "channel": 1,
      "note": 59,
      "start": 16.619,
      "duration": 0.1997,
      "velocity": 107,
      "chip": "ym2612"
    },
    {
      "channel": 2,
      "note": 76,
      "start": 16.6191,
      "duration": 0.0661,
      "velocity": 107,
      "chip": "ym2612"
    },
    {
      "channel": 0,
      "note": 62,
      "start": 16.8186,
      "duration": 0.4149,
      "velocity": 98,
      "chip": "ym2612"
    },
    {
      "channel": 1,
      "note": 64,
      "start": 16.8188,
      "duration": 0.1998,
      "velocity": 107,
      "chip": "ym2612"
    },
    {
      "channel": 3,
      "note": 76,
      "start": 16.8192,
      "duration": 0.0661,
      "velocity": 107,
      "chip": "ym2612"
    },
    {
      "channel": 1,
      "note": 64,
      "start": 17.0188,
      "duration": 0.1998,
      "velocity": 107,
      "chip": "ym2612"
    },
    {
      "channel": 2,
      "note": 76,
      "start": 17.0191,
      "duration": 0.0662,
      "velocity": 107,
      "chip": "ym2612"
    },
    {
      "channel": 4,
      "note": 62,
      "start": 17.0194,
      "duration": 0.4153,
      "velocity": 98,
      "chip": "ym2612"
    },
    {
      "channel": 1,
      "note": 56,
      "start": 17.2188,
      "duration": 0.015,
      "velocity": 107,
      "chip": "ym2612"
    },
    {
      "channel": 2,
      "note": 80,
      "start": 17.219,
      "duration": 0.0059,
      "velocity": 107,
      "chip": "ym2612"
    },
    {
      "channel": 3,
      "note": 76,
      "start": 17.2191,
      "duration": 0.0058,
      "velocity": 107,
      "chip": "ym2612"
    },
    {
      "channel": 0,
      "note": 61,
      "start": 17.2337,
      "duration": 0.6169,
      "velocity": 98,
      "chip": "ym2612"
    },
    {
      "channel": 1,
      "note": 56,
      "start": 17.234,
      "duration": 0.1998,
      "velocity": 107,
      "chip": "ym2612"
    },
    {
      "channel": 2,
      "note": 76,
      "start": 17.2343,
      "duration": 0.0662,
      "velocity": 107,
      "chip": "ym2612"
    },
    {
      "channel": 3,
      "note": 80,
      "start": 17.2345,
      "duration": 0.0661,
      "velocity": 107,
      "chip": "ym2612"
    },
    {
      "channel": 1,
      "note": 57,
      "start": 17.434,
      "duration": 0.2001,
      "velocity": 107,
      "chip": "ym2612"
    },
    {
      "channel": 2,
      "note": 78,
      "start": 17.4343,
      "duration": 0.0666,
      "velocity": 107,
      "chip": "ym2612"
    },
    {
      "channel": 3,
      "note": 76,
      "start": 17.4345,
      "duration": 0.0665,
      "velocity": 107,
      "chip": "ym2612"
    },
    {
      "channel": 4,
      "note": 61,
      "start": 17.4349,
      "duration": 0.4338,
      "velocity": 98,
      "chip": "ym2612"
    },
    {
      "channel": 1,
      "note": 57,
      "start": 17.6343,
      "duration": 0.2167,
      "velocity": 107,
      "chip": "ym2612"
    },
    {
      "channel": 2,
      "note": 74,
      "start": 17.6346,
      "duration": 0.083,
      "velocity": 107,
      "chip": "ym2612"
    },
    {
      "channel": 3,
      "note": 78,
      "start": 17.6348,
      "duration": 0.0828,
      "velocity": 107,
      "chip": "ym2612"
    },
    {
      "channel": 0,
      "note": 59,
      "start": 17.8509,
      "duration": 0.2172,
      "velocity": 98,
      "chip": "ym2612"
    },
    {
      "channel": 1,
      "note": 59,
      "start": 17.8512,
      "duration": 0.0166,
      "velocity": 107,
      "chip": "ym2612"
    },
    {
      "channel": 2,
      "note": 75,
      "start": 17.8514,
      "duration": 0.0057,
      "velocity": 107,
      "chip": "ym2612"
    },
    {
      "channel": 3,
      "note": 74,
      "start": 17.8516,
      "duration": 0.0056,
      "velocity": 107,
      "chip": "ym2612"
    },
    {
      "channel": 1,
      "note": 64,
      "start": 17.868,
      "duration": 0.2003,
      "velocity": 107,
      "chip": "ym2612"
    },
    {
      "channel": 2,
      "note": 76,
      "start": 17.8683,
      "duration": 0.0665,
      "velocity": 107,
      "chip": "ym2612"
    },
    {
      "channel": 3,
      "note": 75,
      "start": 17.8685,
      "duration": 0.0663,
      "velocity": 107,
      "chip": "ym2612"
    },
    {
      "channel": 4,
      "note": 59,
      "start": 17.8688,
      "duration": 0.3999,
      "velocity": 98,
      "chip": "ym2612"
    },
    {
      "channel": 0,
      "note": 59,
      "start": 18.0681,
      "duration": 1.0882,
      "velocity": 98,
      "chip": "ym2612"
    },
    {
      "channel": 1,
      "note": 64,
      "start": 18.0682,
      "duration": 0.2,
      "velocity": 107,
      "chip": "ym2612"
    },
    {
      "channel": 3,
      "note": 76,
      "start": 18.0686,
      "duration": 0.0664,
      "velocity": 107,
      "chip": "ym2612"
    },
    {
      "channel": 1,
      "note": 64,
      "start": 18.2684,
      "duration": 0.1998,
      "velocity": 107,
      "chip": "ym2612"
    },
    {
      "channel": 4,
      "note": 59,
      "start": 18.2687,
      "duration": 1.0897,
      "velocity": 98,
      "chip": "ym2612"
    },
    {
      "channel": 1,
      "note": 56,
      "start": 18.4684,
      "duration": 0.0168,
      "velocity": 107,
      "chip": "ym2612"
    },
    {
      "channel": 2,
      "note": 83,
      "start": 18.4694,
      "duration": 0.0056,
      "velocity": 75,
      "chip": "ym2612"
    },
    {
      "channel": 2,
      "note": 85,
      "start": 18.4763,
      "duration": 0.0056,
      "velocity": 75,
      "chip": "ym2612"
    },
    {
      "channel": 1,
      "note": 56,
      "start": 18.4855,
      "duration": 0.1411,
      "velocity": 107,
      "chip": "ym2612"
    },
    {
      "channel": 2,
      "note": 86,
      "start": 18.4857,
      "duration": 0.0077,
      "velocity": 75,
      "chip": "ym2612"
    },
    {
      "channel": 3,
      "note": 83,
      "start": 18.4868,
      "duration": 0.0067,
      "velocity": 75,
      "chip": "ym2612"
    },
    {
      "channel": 2,
      "note": 88,
      "start": 18.5102,
      "duration": 0.0832,
      "velocity": 75,
      "chip": "ym2612"
    },
    {
      "channel": 3,
      "note": 85,
      "start": 18.5105,
      "duration": 0.0829,
      "velocity": 75,
      "chip": "ym2612"
    },
    {
      "channel": 1,
      "note": 59,
      "start": 18.6268,
      "duration": 0.2,
      "velocity": 107,
      "chip": "ym2612"
    },
    {
      "channel": 2,
      "note": 86,
      "start": 18.6271,
      "duration": 0.0666,
      "velocity": 75,
      "chip": "ym2612"
    },
    {
      "channel": 3,
      "note": 86,
      "start": 18.6273,
      "duration": 0.0664,
      "velocity": 75,
      "chip": "ym2612"
    },
    {
      "channel": 2,
      "note": 85,
      "start": 18.7105,
      "duration": 0.0832,
      "velocity": 75,
      "chip": "ym2612"
    },
    {
      "channel": 3,
      "note": 88,
      "start": 18.7108,
      "duration": 0.0829,
      "velocity": 75,
      "chip": "ym2612"
    },
    {
      "channel": 1,
      "note": 59,
      "start": 18.8271,
      "duration": 0.2,
      "velocity": 107,
      "chip": "ym2612"
    },
    {
      "channel": 2,
      "note": 83,
      "start": 18.8273,
      "duration": 0.0665,
      "velocity": 75,
      "chip": "ym2612"
    },
    {
      "channel": 3,
      "note": 86,
      "start": 18.8275,
      "duration": 0.0663,
      "velocity": 75,
      "chip": "ym2612"
    },
    {
      "channel": 2,
      "note": 86,
      "start": 18.9107,
      "duration": 0.0832,
      "velocity": 75,
      "chip": "ym2612"
    },
    {
      "channel": 3,
      "note": 85,
      "start": 18.911,
      "duration": 0.0829,
      "velocity": 75,
      "chip": "ym2612"
    },
    {
      "channel": 1,
      "note": 62,
      "start": 19.0273,
      "duration": 0.0154,
      "velocity": 107,
      "chip": "ym2612"
    },
    {
      "channel": 2,
      "note": 83,
      "start": 19.0276,
      "duration": 0.0061,
      "velocity": 75,
      "chip": "ym2612"
    },
    {
      "channel": 3,
      "note": 83,
      "start": 19.0278,
      "duration": 0.0059,
      "velocity": 75,
      "chip": "ym2612"
    },
    {
      "channel": 2,
      "note": 81,
      "start": 19.0351,
      "duration": 0.0055,
      "velocity": 75,
      "chip": "ym2612"
    },
    {
      "channel": 3,
      "note": 86,
      "start": 19.0353,
      "duration": 0.0054,
      "velocity": 75,
      "chip": "ym2612"
    },
    {
      "channel": 1,
      "note": 62,
      "start": 19.0429,
      "duration": 0.1144,
      "velocity": 107,
      "chip": "ym2612"
    },
    {
      "channel": 2,
      "note": 80,
      "start": 19.0431,
      "duration": 0.0056,
      "velocity": 75,
      "chip": "ym2612"
    },
    {
      "channel": 3,
      "note": 83,
      "start": 19.0434,
      "duration": 0.0054,
      "velocity": 75,
      "chip": "ym2612"
    },
    {
      "channel": 3,
      "note": 81,
      "start": 19.05,
      "duration": 0.0723,
      "velocity": 75,
      "chip": "ym2612"
    },
    {
      "channel": 0,
      "note": 64,
      "start": 19.1564,
      "duration": 0.1493,
      "velocity": 98,
      "chip": "ym2612"
    },
    {
      "channel": 1,
      "note": 66,
      "start": 19.1574,
      "duration": 0.1987,
      "velocity": 107,
      "chip": "ym2612"
    },
    {
      "channel": 3,
      "note": 80,
      "start": 19.1586,
      "duration": 0.0642,
      "velocity": 75,
      "chip": "ym2612"
    },
    {
      "channel": 0,
      "note": 64,
      "start": 19.3561,
      "duration": 0.15,
      "velocity": 98,
      "chip": "ym2612"
    },
    {
      "channel": 1,
      "note": 66,
      "start": 19.3562,
      "duration": 0.2002,
      "velocity": 107,
      "chip": "ym2612"
    },
    {
      "channel": 2,
      "note": 78,
      "start": 19.3565,
      "duration": 0.0666,
      "velocity": 107,
      "chip": "ym2612"
    },
    {
      "channel": 4,
      "note": 64,
      "start": 19.3585,
      "duration": 0.1479,
      "velocity": 98,
      "chip": "ym2612"
    },
    {
      "channel": 0,
      "note": 63,
      "start": 19.5563,
      "duration": 0.0116,
      "velocity": 98,
      "chip": "ym2612"
    },
    {
      "channel": 1,
      "note": 58,
      "start": 19.5566,
      "duration": 0.0137,
      "velocity": 107,
      "chip": "ym2612"
    },
    {
      "channel": 2,
      "note": 82,
      "start": 19.5568,
      "duration": 0.0057,
      "velocity": 107,
      "chip": "ym2612"
    },
    {
      "channel": 3,
      "note": 78,
      "start": 19.5571,
      "duration": 0.0056,
      "velocity": 107,
      "chip": "ym2612"
    },
    {
      "channel": 4,
      "note": 64,
      "start": 19.5573,
      "duration": 0.0109,
      "velocity": 98,
      "chip": "ym2612"
    },
    {
      "channel": 1,
      "note": 58,
      "start": 19.5705,
      "duration": 0.1137,
      "velocity": 107,
      "chip": "ym2612"
    },
    {
      "channel": 2,
      "note": 78,
      "start": 19.5707,
      "duration": 0.0053,
      "velocity": 107,
      "chip": "ym2612"
    },
    {
      "channel": 3,
      "note": 82,
      "start": 19.5711,
      "duration": 0.005,
      "velocity": 107,
      "chip": "ym2612"
    },
    {
      "channel": 4,
      "note": 63,
      "start": 19.5713,
      "duration": 0.0629,
      "velocity": 98,
      "chip": "ym2612"
    },
    {
      "channel": 0,
      "note": 64,
      "start": 19.6842,
      "duration": 0.1499,
      "velocity": 98,
      "chip": "ym2612"
    },
    {
      "channel": 1,
      "note": 59,
      "start": 19.6844,
      "duration": 0.201,
      "velocity": 107,
      "chip": "ym2612"
    },
    {
      "channel": 2,
      "note": 80,
      "start": 19.6847,
      "duration": 0.0663,
      "velocity": 107,
      "chip": "ym2612"
    },
    {
      "channel": 3,
      "note": 78,
      "start": 19.6849,
      "duration": 0.0661,
      "velocity": 107,
      "chip": "ym2612"
    },
    {
      "channel": 0,
      "note": 80,
      "start": 19.8852,
      "duration": 0.1655,
      "velocity": 127,
      "chip": "ym2612"
    },
    {
      "channel": 1,
      "note": 59,
      "start": 19.8855,
      "duration": 0.2162,
      "velocity": 107,
      "chip": "ym2612"
    },
    {
      "channel": 2,
      "note": 76,
      "start": 19.8858,
      "duration": 0.082,
      "velocity": 107,
      "chip": "ym2612"
    },
    {
      "channel": 3,
      "note": 80,
      "start": 19.8861,
      "duration": 0.0817,
      "velocity": 107,
      "chip": "ym2612"
    },
    {
      "channel": 4,
      "note": 64,
      "start": 19.8864,
      "duration": 0.1646,
      "velocity": 98,
      "chip": "ym2612"
    },
    {
      "channel": 0,
      "note": 88,
      "start": 20.1017,
      "duration": 0.0123,
      "velocity": 127,
      "chip": "ym2612"
    },
    {
      "channel": 1,
      "note": 61,
      "start": 20.1019,
      "duration": 0.0158,
      "velocity": 107,
      "chip": "ym2612"
    },
    {
      "channel": 3,
      "note": 76,
      "start": 20.1022,
      "duration": 0.0067,
      "velocity": 107,
      "chip": "ym2612"
    },
    {
      "channel": 4,
      "note": 80,
      "start": 20.1034,
      "duration": 0.0107,
      "velocity": 127,
      "chip": "ym2612"
    },
    {
      "channel": 0,
      "note": 64,
      "start": 20.1176,
      "duration": 0.0616,
      "velocity": 98,
      "chip": "ym2612"
    },
    {
      "channel": 1,
      "note": 66,
      "start": 20.1179,
      "duration": 0.1116,
      "velocity": 107,
      "chip": "ym2612"
    },
    {
      "channel": 2,
      "note": 78,
      "start": 20.1181,
      "duration": 0.0067,
      "velocity": 107,
      "chip": "ym2612"
    },
    {
      "channel": 4,
      "note": 88,
      "start": 20.1192,
      "duration": 0.0603,
      "velocity": 127,
      "chip": "ym2612"
    },
    {
      "channel": 1,
      "note": 66,
      "start": 20.2295,
      "duration": 0.2003,
      "velocity": 107,
      "chip": "ym2612"
    },
    {
      "channel": 2,
      "note": 82,
      "start": 20.2298,
      "duration": 0.0665,
      "velocity": 107,
      "chip": "ym2612"
    },
    {
      "channel": 3,
      "note": 78,
      "start": 20.23,
      "duration": 0.0663,
      "velocity": 107,
      "chip": "ym2612"
    },
    {
      "channel": 4,
      "note": 64,
      "start": 20.2312,
      "duration": 0.1485,
      "velocity": 98,
      "chip": "ym2612"
    },
    {
      "channel": 0,
      "note": 64,
      "start": 20.4297,
      "duration": 0.1497,
      "velocity": 98,
      "chip": "ym2612"
    },
    {
      "channel": 1,
      "note": 66,
      "start": 20.4299,
      "duration": 0.1997,
      "velocity": 107,
      "chip": "ym2612"
    },
    {
      "channel": 2,
      "note": 78,
      "start": 20.4302,
      "duration": 0.0662,
      "velocity": 107,
      "chip": "ym2612"
    },
    {
      "channel": 3,
      "note": 82,
      "start": 20.4305,
      "duration": 0.0659,
      "velocity": 107,
      "chip": "ym2612"
    },
    {
      "channel": 0,
      "note": 63,
      "start": 20.6296,
      "duration": 0.0115,
      "velocity": 98,
      "chip": "ym2612"
    },
    {
      "channel": 1,
      "note": 58,
      "start": 20.6299,
      "duration": 0.0137,
      "velocity": 107,
      "chip": "ym2612"
    },
    {
      "channel": 2,
      "note": 80,
      "start": 20.6301,
      "duration": 0.0057,
      "velocity": 107,
      "chip": "ym2612"
    },
    {
      "channel": 3,
      "note": 78,
      "start": 20.6303,
      "duration": 0.0056,
      "velocity": 107,
      "chip": "ym2612"
    },
    {
      "channel": 4,
      "note": 64,
      "start": 20.6305,
      "duration": 0.0107,
      "velocity": 98,
      "chip": "ym2612"
    },
    {
      "channel": 1,
      "note": 58,
      "start": 20.6439,
      "duration": 0.1133,
      "velocity": 107,
      "chip": "ym2612"
    },
    {
      "channel": 2,
      "note": 76,
      "start": 20.644,
      "duration": 0.0051,
      "velocity": 107,
      "chip": "ym2612"
    },
    {
      "channel": 3,
      "note": 80,
      "start": 20.6443,
      "duration": 0.0049,
      "velocity": 107,
      "chip": "ym2612"
    },
    {
      "channel": 4,
      "note": 63,
      "start": 20.6446,
      "duration": 0.0625,
      "velocity": 98,
      "chip": "ym2612"
    },
    {
      "channel": 0,
      "note": 64,
      "start": 20.7571,
      "duration": 0.1496,
      "velocity": 98,
      "chip": "ym2612"
    },
    {
      "channel": 1,
      "note": 59,
      "start": 20.7573,
      "duration": 0.1998,
      "velocity": 107,
      "chip": "ym2612"
    },
    {
      "channel": 3,
      "note": 76,
      "start": 20.7576,
      "duration": 0.066,
      "velocity": 107,
      "chip": "ym2612"
    },
    {
      "channel": 0,
      "note": 70,
      "start": 20.957,
      "duration": 0.0134,
      "velocity": 98,
      "chip": "ym2612"
    },
    {
      "channel": 1,
      "note": 59,
      "start": 20.9573,
      "duration": 0.0166,
      "velocity": 107,
      "chip": "ym2612"
    },
    {
      "channel": 2,
      "note": 77,
      "start": 20.9575,
      "duration": 0.0062,
      "velocity": 107,
      "chip": "ym2612"
    },
    {
      "channel": 4,
      "note": 64,
      "start": 20.9577,
      "duration": 0.0129,
      "velocity": 98,
      "chip": "ym2612"
    },
    {
      "channel": 1,
      "note": 61,
      "start": 20.9741,
      "duration": 0.0132,
      "velocity": 107,
      "chip": "ym2612"
    },
    {
      "channel": 3,
      "note": 77,
      "start": 20.9744,
      "duration": 0.0051,
      "velocity": 107,
      "chip": "ym2612"
    },
    {
      "channel": 4,
      "note": 70,
      "start": 20.9746,
      "duration": 0.0096,
      "velocity": 98,
      "chip": "ym2612"
    },
    {
      "channel": 1,
      "note": 61,
      "start": 20.9876,
      "duration": 0.1998,
      "velocity": 107,
      "chip": "ym2612"
    },
    {
      "channel": 2,
      "note": 78,
      "start": 20.9878,
      "duration": 0.066,
      "velocity": 107,
      "chip": "ym2612"
    },
    {
      "channel": 0,
      "note": 64,
      "start": 21.1873,
      "duration": 0.4145,
      "velocity": 98,
      "chip": "ym2612"
    },
    {
      "channel": 1,
      "note": 66,
      "start": 21.1876,
      "duration": 0.1996,
      "velocity": 107,
      "chip": "ym2612"
    },
    {
      "channel": 3,
      "note": 78,
      "start": 21.1878,
      "duration": 0.0661,
      "velocity": 107,
      "chip": "ym2612"
    },
    {
      "channel": 1,
      "note": 66,
      "start": 21.3874,
      "duration": 0.1998,
      "velocity": 107,
      "chip": "ym2612"
    },
    {
      "channel": 2,
      "note": 78,
      "start": 21.3877,
      "duration": 0.0662,
      "velocity": 107,
      "chip": "ym2612"
    },
    {
      "channel": 4,
      "note": 64,
      "start": 21.3879,
      "duration": 0.3287,
      "velocity": 98,
      "chip": "ym2612"
    },
    {
      "channel": 1,
      "note": 58,
      "start": 21.5873,
      "duration": 0.0148,
      "velocity": 107,
      "chip": "ym2612"
    },
    {
      "channel": 2,
      "note": 82,
      "start": 21.5875,
      "duration": 0.0058,
      "velocity": 107,
      "chip": "ym2612"
    },
    {
      "channel": 3,
      "note": 78,
      "start": 21.5878,
      "duration": 0.0056,
      "velocity": 107,
      "chip": "ym2612"
    },
    {
      "channel": 0,
      "note": 63,
      "start": 21.6021,
      "duration": 0.5305,
      "velocity": 98,
      "chip": "ym2612"
    },
    {
      "channel": 1,
      "note": 58,
      "start": 21.6024,
      "duration": 0.1133,
      "velocity": 107,
      "chip": "ym2612"
    },
    {
      "channel": 2,
      "note": 78,
      "start": 21.6027,
      "duration": 0.0057,
      "velocity": 107,
      "chip": "ym2612"
    },
    {
      "channel": 3,
      "note": 82,
      "start": 21.6029,
      "duration": 0.0055,
      "velocity": 107,
      "chip": "ym2612"
    },
    {
      "channel": 1,
      "note": 59,
      "start": 21.716,
      "duration": 0.2,
      "velocity": 107,
      "chip": "ym2612"
    },
    {
      "channel": 2,
      "note": 80,
      "start": 21.7163,
      "duration": 0.0665,
      "velocity": 107,
      "chip": "ym2612"
    },
    {
      "channel": 3,
      "note": 78,
      "start": 21.7165,
      "duration": 0.0663,
      "velocity": 107,
      "chip": "ym2612"
    },
    {
      "channel": 4,
      "note": 63,
      "start": 21.7167,
      "duration": 0.4322,
      "velocity": 98,
      "chip": "ym2612"
    },
    {
      "channel": 1,
      "note": 59,
      "start": 21.9162,
      "duration": 0.2166,
      "velocity": 107,
      "chip": "ym2612"
    },
    {
      "channel": 2,
      "note": 76,
      "start": 21.9165,
      "duration": 0.083,
      "velocity": 107,
      "chip": "ym2612"
    },
    {
      "channel": 3,
      "note": 80,
      "start": 21.9168,
      "duration": 0.0827,
      "velocity": 107,
      "chip": "ym2612"
    },
    {
      "channel": 0,
      "note": 61,
      "start": 22.1328,
      "duration": 0.1287,
      "velocity": 98,
      "chip": "ym2612"
    },
    {
      "channel": 1,
      "note": 61,
      "start": 22.1331,
      "duration": 0.0151,
      "velocity": 107,
      "chip": "ym2612"
    },
    {
      "channel": 2,
      "note": 77,
      "start": 22.1332,
      "duration": 0.006,
      "velocity": 107,
      "chip": "ym2612"
    },
    {
      "channel": 3,
      "note": 76,
      "start": 22.1334,
      "duration": 0.0059,
      "velocity": 107,
      "chip": "ym2612"
    },
    {
      "channel": 1,
      "note": 66,
      "start": 22.1483,
      "duration": 0.1133,
      "velocity": 107,
      "chip": "ym2612"
    },
    {
      "channel": 2,
      "note": 78,
      "start": 22.1485,
      "duration": 0.006,
      "velocity": 107,
      "chip": "ym2612"
    },
    {
      "channel": 3,
      "note": 77,
      "start": 22.1488,
      "duration": 0.0057,
      "velocity": 107,
      "chip": "ym2612"
    },
    {
      "channel": 4,
      "note": 61,
      "start": 22.1491,
      "duration": 0.3129,
      "velocity": 98,
      "chip": "ym2612"
    },
    {
      "channel": 0,
      "note": 61,
      "start": 22.2615,
      "duration": 0.9631,
      "velocity": 98,
      "chip": "ym2612"
    },
    {
      "channel": 1,
      "note": 66,
      "start": 22.2616,
      "duration": 0.1998,
      "velocity": 107,
      "chip": "ym2612"
    },
    {
      "channel": 3,
      "note": 78,
      "start": 22.262,
      "duration": 0.0663,
      "velocity": 107,
      "chip": "ym2612"
    },
    {
      "channel": 1,
      "note": 66,
      "start": 22.4616,
      "duration": 0.1998,
      "velocity": 107,
      "chip": "ym2612"
    },
    {
      "channel": 4,
      "note": 61,
      "start": 22.4619,
      "duration": 0.9646,
      "velocity": 98,
      "chip": "ym2612"
    },
    {
      "channel": 1,
      "note": 58,
      "start": 22.6616,
      "duration": 0.0144,
      "velocity": 107,
      "chip": "ym2612"
    },
    {
      "channel": 1,
      "note": 58,
      "start": 22.6762,
      "duration": 0.1134,
      "velocity": 107,
      "chip": "ym2612"
    },
    {
      "channel": 1,
      "note": 61,
      "start": 22.7897,
      "duration": 0.1999,
      "velocity": 107,
      "chip": "ym2612"
    },
    {
      "channel": 2,
      "note": 93,
      "start": 22.7907,
      "duration": 0.0489,
      "velocity": 75,
      "chip": "ym2612"
    },
    {
      "channel": 2,
      "note": 92,
      "start": 22.8731,
      "duration": 0.0665,
      "velocity": 75,
      "chip": "ym2612"
    },
    {
      "channel": 1,
      "note": 61,
      "start": 22.9899,
      "duration": 0.018,
      "velocity": 107,
      "chip": "ym2612"
    },
    {
      "channel": 2,
      "note": 90,
      "start": 22.9901,
      "duration": 0.0061,
      "velocity": 75,
      "chip": "ym2612"
    },
    {
      "channel": 3,
      "note": 93,
      "start": 22.9912,
      "duration": 0.0061,
      "velocity": 75,
      "chip": "ym2612"
    },
    {
      "channel": 2,
      "note": 88,
      "start": 22.9991,
      "duration": 0.0049,
      "velocity": 75,
      "chip": "ym2612"
    },
    {
      "channel": 3,
      "note": 92,
      "start": 22.9993,
      "duration": 0.0059,
      "velocity": 75,
      "chip": "ym2612"
    },
    {
      "channel": 1,
      "note": 64,
      "start": 23.008,
      "duration": 0.0167,
      "velocity": 107,
      "chip": "ym2612"
    },
    {
      "channel": 2,
      "note": 93,
      "start": 23.0083,
      "duration": 0.005,
      "velocity": 75,
      "chip": "ym2612"
    },
    {
      "channel": 3,
      "note": 90,
      "start": 23.0085,
      "duration": 0.006,
      "velocity": 75,
      "chip": "ym2612"
    },
    {
      "channel": 2,
      "note": 92,
      "start": 23.0158,
      "duration": 0.0048,
      "velocity": 75,
      "chip": "ym2612"
    },
    {
      "channel": 3,
      "note": 88,
      "start": 23.0162,
      "duration": 0.0055,
      "velocity": 75,
      "chip": "ym2612"
    },
    {
      "channel": 1,
      "note": 64,
      "start": 23.0249,
      "duration": 0.2,
      "velocity": 107,
      "chip": "ym2612"
    },
    {
      "channel": 2,
      "note": 90,
      "start": 23.0252,
      "duration": 0.0496,
      "velocity": 75,
      "chip": "ym2612"
    },
    {
      "channel": 3,
      "note": 93,
      "start": 23.0255,
      "duration": 0.0659,
      "velocity": 75,
      "chip": "ym2612"
    },
    {
      "channel": 2,
      "note": 88,
      "start": 23.1082,
      "duration": 0.0665,
      "velocity": 75,
      "chip": "ym2612"
    },
    {
      "channel": 3,
      "note": 92,
      "start": 23.1085,
      "duration": 0.0829,
      "velocity": 75,
      "chip": "ym2612"
    },
    {
      "channel": 0,
      "note": 62,
      "start": 23.2248,
      "duration": 0.1499,
      "velocity": 98,
      "chip": "ym2612"
    },
    {
      "channel": 1,
      "note": 64,
      "start": 23.225,
      "duration": 0.2,
      "velocity": 107,
      "chip": "ym2612"
    },
    {
      "channel": 3,
      "note": 90,
      "start": 23.2263,
      "duration": 0.0654,
      "velocity": 75,
      "chip": "ym2612"
    },
    {
      "channel": 3,
      "note": 88,
      "start": 23.3086,
      "duration": 0.083,
      "velocity": 75,
      "chip": "ym2612"
    },
    {
      "channel": 0,
      "note": 62,
      "start": 23.425,
      "duration": 0.15,
      "velocity": 98,
      "chip": "ym2612"
    },
    {
      "channel": 1,
      "note": 64,
      "start": 23.4252,
      "duration": 0.2,
      "velocity": 107,
      "chip": "ym2612"
    },
    {
      "channel": 2,
      "note": 76,
      "start": 23.4255,
      "duration": 0.0665,
      "velocity": 107,
      "chip": "ym2612"
    },
    {
      "channel": 4,
      "note": 62,
      "start": 23.4267,
      "duration": 0.1485,
      "velocity": 98,
      "chip": "ym2612"
    },
    {
      "channel": 0,
      "note": 61,
      "start": 23.6252,
      "duration": 0.0116,
      "velocity": 98,
      "chip": "ym2612"
    },
    {
      "channel": 1,
      "note": 56,
      "start": 23.6255,
      "duration": 0.0137,
      "velocity": 107,
      "chip": "ym2612"
    },
    {
      "channel": 2,
      "note": 80,
      "start": 23.6257,
      "duration": 0.0057,
      "velocity": 107,
      "chip": "ym2612"
    },
    {
      "channel": 3,
      "note": 76,
      "start": 23.6259,
      "duration": 0.0056,
      "velocity": 107,
      "chip": "ym2612"
    },
    {
      "channel": 4,
      "note": 62,
      "start": 23.6261,
      "duration": 0.0109,
      "velocity": 98,
      "chip": "ym2612"
    },
    {
      "channel": 1,
      "note": 56,
      "start": 23.6394,
      "duration": 0.1136,
      "velocity": 107,
      "chip": "ym2612"
    },
    {
      "channel": 2,
      "note": 76,
      "start": 23.6396,
      "duration": 0.0052,
      "velocity": 107,
      "chip": "ym2612"
    },
    {
      "channel": 3,
      "note": 80,
      "start": 23.64,
      "duration": 0.0049,
      "velocity": 107,
      "chip": "ym2612"
    },
    {
      "channel": 4,
      "note": 61,
      "start": 23.6402,
      "duration": 0.0627,
      "velocity": 98,
      "chip": "ym2612"
    },
    {
      "channel": 0,
      "note": 62,
      "start": 23.7529,
      "duration": 0.1499,
      "velocity": 98,
      "chip": "ym2612"
    },
    {
      "channel": 1,
      "note": 57,
      "start": 23.7531,
      "duration": 0.201,
      "velocity": 107,
      "chip": "ym2612"
    },
    {
      "channel": 2,
      "note": 78,
      "start": 23.7534,
      "duration": 0.0663,
      "velocity": 107,
      "chip": "ym2612"
    },
    {
      "channel": 3,
      "note": 76,
      "start": 23.7537,
      "duration": 0.0661,
      "velocity": 107,
      "chip": "ym2612"
    },
    {
      "channel": 0,
      "note": 80,
      "start": 23.9539,
      "duration": 0.1655,
      "velocity": 127,
      "chip": "ym2612"
    },
    {
      "channel": 1,
      "note": 57,
      "start": 23.9543,
      "duration": 0.2162,
      "velocity": 107,
      "chip": "ym2612"
    },
    {
      "channel": 2,
      "note": 74,
      "start": 23.9545,
      "duration": 0.082,
      "velocity": 107,
      "chip": "ym2612"
    },
    {
      "channel": 3,
      "note": 78,
      "start": 23.9548,
      "duration": 0.0817,
      "velocity": 107,
      "chip": "ym2612"
    },
    {
      "channel": 4,
      "note": 62,
      "start": 23.9551,
      "duration": 0.1646,
      "velocity": 98,
      "chip": "ym2612"
    },
    {
      "channel": 0,
      "note": 88,
      "start": 24.1704,
      "duration": 0.0123,
      "velocity": 127,
      "chip": "ym2612"
    },
    {
      "channel": 1,
      "note": 59,
      "start": 24.1706,
      "duration": 0.0158,
      "velocity": 107,
      "chip": "ym2612"
    },
    {
      "channel": 3,
      "note": 74,
      "start": 24.171,
      "duration": 0.0067,
      "velocity": 107,
      "chip": "ym2612"
    },
    {
      "channel": 4,
      "note": 80,
      "start": 24.1722,
      "duration": 0.0107,
      "velocity": 127,
      "chip": "ym2612"
    },
    {
      "channel": 0,
      "note": 62,
      "start": 24.1864,
      "duration": 0.0616,
      "velocity": 98,
      "chip": "ym2612"
    },
    {
      "channel": 1,
      "note": 64,
      "start": 24.1866,
      "duration": 0.1116,
      "velocity": 107,
      "chip": "ym2612"
    },
    {
      "channel": 2,
      "note": 76,
      "start": 24.1869,
      "duration": 0.0067,
      "velocity": 107,
      "chip": "ym2612"
    },
    {
      "channel": 4,
      "note": 88,
      "start": 24.1879,
      "duration": 0.0603,
      "velocity": 127,
      "chip": "ym2612"
    },
    {
      "channel": 1,
      "note": 64,
      "start": 24.2982,
      "duration": 0.2003,
      "velocity": 107,
      "chip": "ym2612"
    },
    {
      "channel": 2,
      "note": 80,
      "start": 24.2985,
      "duration": 0.0665,
      "velocity": 107,
      "chip": "ym2612"
    },
    {
      "channel": 3,
      "note": 76,
      "start": 24.2987,
      "duration": 0.0663,
      "velocity": 107,
      "chip": "ym2612"
    },
    {
      "channel": 4,
      "note": 62,
      "start": 24.3,
      "duration": 0.1485,
      "velocity": 98,
      "chip": "ym2612"
    },
    {
      "channel": 0,
      "note": 62,
      "start": 24.4984,
      "duration": 0.1497,
      "velocity": 98,
      "chip": "ym2612"
    },
    {
      "channel": 1,
      "note": 64,
      "start": 24.4987,
      "duration": 0.1997,
      "velocity": 107,
      "chip": "ym2612"
    },
    {
      "channel": 2,
      "note": 76,
      "start": 24.4989,
      "duration": 0.0662,
      "velocity": 107,
      "chip": "ym2612"
    },
    {
      "channel": 3,
      "note": 80,
      "start": 24.4992,
      "duration": 0.0659,
      "velocity": 107,
      "chip": "ym2612"
    },
    {
      "channel": 0,
      "note": 61,
      "start": 24.6983,
      "duration": 0.0116,
      "velocity": 98,
      "chip": "ym2612"
    },
    {
      "channel": 1,
      "note": 56,
      "start": 24.6986,
      "duration": 0.0137,
      "velocity": 107,
      "chip": "ym2612"
    },
    {
      "channel": 2,
      "note": 78,
      "start": 24.6988,
      "duration": 0.0057,
      "velocity": 107,
      "chip": "ym2612"
    },
    {
      "channel": 3,
      "note": 76,
      "start": 24.6991,
      "duration": 0.0056,
      "velocity": 107,
      "chip": "ym2612"
    },
    {
      "channel": 4,
      "note": 62,
      "start": 24.6993,
      "duration": 0.0109,
      "velocity": 98,
      "chip": "ym2612"
    },
    {
      "channel": 1,
      "note": 56,
      "start": 24.7125,
      "duration": 0.1136,
      "velocity": 107,
      "chip": "ym2612"
    },
    {
      "channel": 2,
      "note": 74,
      "start": 24.7127,
      "duration": 0.0052,
      "velocity": 107,
      "chip": "ym2612"
    },
    {
      "channel": 3,
      "note": 78,
      "start": 24.7131,
      "duration": 0.0049,
      "velocity": 107,
      "chip": "ym2612"
    },
    {
      "channel": 4,
      "note": 61,
      "start": 24.7133,
      "duration": 0.0627,
      "velocity": 98,
      "chip": "ym2612"
    },
    {
      "channel": 0,
      "note": 62,
      "start": 24.826,
      "duration": 0.1496,
      "velocity": 98,
      "chip": "ym2612"
    },
    {
      "channel": 1,
      "note": 57,
      "start": 24.8262,
      "duration": 0.1997,
      "velocity": 107,
      "chip": "ym2612"
    },
    {
      "channel": 3,
      "note": 74,
      "start": 24.8266,
      "duration": 0.066,
      "velocity": 107,
      "chip": "ym2612"
    },
    {
      "channel": 0,
      "note": 68,
      "start": 25.0259,
      "duration": 0.0134,
      "velocity": 98,
      "chip": "ym2612"
    },
    {
      "channel": 1,
      "note": 57,
      "start": 25.0261,
      "duration": 0.0168,
      "velocity": 107,
      "chip": "ym2612"
    },
    {
      "channel": 2,
      "note": 75,
      "start": 25.0263,
      "duration": 0.0063,
      "velocity": 107,
      "chip": "ym2612"
    },
    {
      "channel": 4,
      "note": 62,
      "start": 25.0266,
      "duration": 0.0129,
      "velocity": 98,
      "chip": "ym2612"
    },
    {
      "channel": 1,
      "note": 59,
      "start": 25.0432,
      "duration": 0.0136,
      "velocity": 107,
      "chip": "ym2612"
    },
    {
      "channel": 3,
      "note": 75,
      "start": 25.0435,
      "duration": 0.0052,
      "velocity": 107,
      "chip": "ym2612"
    },
    {
      "channel": 4,
      "note": 68,
      "start": 25.0438,
      "duration": 0.0099,
      "velocity": 98,
      "chip": "ym2612"
    },
    {
      "channel": 1,
      "note": 59,
      "start": 25.057,
      "duration": 0.1998,
      "velocity": 107,
      "chip": "ym2612"
    },
    {
      "channel": 2,
      "note": 76,
      "start": 25.0572,
      "duration": 0.0662,
      "velocity": 107,
      "chip": "ym2612"
    },
    {
      "channel": 0,
      "note": 62,
      "start": 25.2568,
      "duration": 0.4149,
      "velocity": 98,
      "chip": "ym2612"
    },
    {
      "channel": 1,
      "note": 64,
      "start": 25.257,
      "duration": 0.1998,
      "velocity": 107,
      "chip": "ym2612"
    },
    {
      "channel": 3,
      "note": 76,
      "start": 25.2574,
      "duration": 0.0661,
      "velocity": 107,
      "chip": "ym2612"
    },
    {
      "channel": 1,
      "note": 64,
      "start": 25.457,
      "duration": 0.1998,
      "velocity": 107,
      "chip": "ym2612"
    },
    {
      "channel": 2,
      "note": 76,
      "start": 25.4573,
      "duration": 0.0662,
      "velocity": 107,
      "chip": "ym2612"
    },
    {
      "channel": 4,
      "note": 62,
      "start": 25.4575,
      "duration": 0.4153,
      "velocity": 98,
      "chip": "ym2612"
    },
    {
      "channel": 1,
      "note": 56,
      "start": 25.6569,
      "duration": 0.015,
      "velocity": 107,
      "chip": "ym2612"
    },
    {
      "channel": 2,
      "note": 80,
      "start": 25.6571,
      "duration": 0.0059,
      "velocity": 107,
      "chip": "ym2612"
    },
    {
      "channel": 3,
      "note": 76,
      "start": 25.6573,
      "duration": 0.0058,
      "velocity": 107,
      "chip": "ym2612"
    },
    {
      "channel": 0,
      "note": 61,
      "start": 25.6719,
      "duration": 0.6169,
      "velocity": 98,
      "chip": "ym2612"
    },
    {
      "channel": 1,
      "note": 56,
      "start": 25.6722,
      "duration": 0.1998,
      "velocity": 107,
      "chip": "ym2612"
    },
    {
      "channel": 2,
      "note": 76,
      "start": 25.6725,
      "duration": 0.0662,
      "velocity": 107,
      "chip": "ym2612"
    },
    {
      "channel": 3,
      "note": 80,
      "start": 25.6727,
      "duration": 0.0661,
      "velocity": 107,
      "chip": "ym2612"
    },
    {
      "channel": 1,
      "note": 57,
      "start": 25.8722,
      "duration": 0.2001,
      "velocity": 107,
      "chip": "ym2612"
    },
    {
      "channel": 2,
      "note": 78,
      "start": 25.8725,
      "duration": 0.0666,
      "velocity": 107,
      "chip": "ym2612"
    },
    {
      "channel": 3,
      "note": 76,
      "start": 25.8727,
      "duration": 0.0665,
      "velocity": 107,
      "chip": "ym2612"
    },
    {
      "channel": 4,
      "note": 61,
      "start": 25.873,
      "duration": 0.4338,
      "velocity": 98,
      "chip": "ym2612"
    },
    {
      "channel": 1,
      "note": 57,
      "start": 26.0724,
      "duration": 0.2167,
      "velocity": 107,
      "chip": "ym2612"
    },
    {
      "channel": 2,
      "note": 74,
      "start": 26.0727,
      "duration": 0.083,
      "velocity": 107,
      "chip": "ym2612"
    },
    {
      "channel": 3,
      "note": 78,
      "start": 26.073,
      "duration": 0.0828,
      "velocity": 107,
      "chip": "ym2612"
    },
    {
      "channel": 0,
      "note": 59,
      "start": 26.2891,
      "duration": 0.2172,
      "velocity": 98,
      "chip": "ym2612"
    },
    {
      "channel": 1,
      "note": 59,
      "start": 26.2894,
      "duration": 0.0166,
      "velocity": 107,
      "chip": "ym2612"
    },
    {
      "channel": 2,
      "note": 75,
      "start": 26.2896,
      "duration": 0.0057,
      "velocity": 107,
      "chip": "ym2612"
    },
    {
      "channel": 3,
      "note": 74,
      "start": 26.2898,
      "duration": 0.0056,
      "velocity": 107,
      "chip": "ym2612"
    },
    {
      "channel": 1,
      "note": 64,
      "start": 26.3061,
      "duration": 0.2003,
      "velocity": 107,
      "chip": "ym2612"
    },
    {
      "channel": 2,
      "note": 76,
      "start": 26.3064,
      "duration": 0.0665,
      "velocity": 107,
      "chip": "ym2612"
    },
    {
      "channel": 3,
      "note": 75,
      "start": 26.3067,
      "duration": 0.0663,
      "velocity": 107,
      "chip": "ym2612"
    },
    {
      "channel": 4,
      "note": 59,
      "start": 26.3069,
      "duration": 0.3998,
      "velocity": 98,
      "chip": "ym2612"
    },
    {
      "channel": 0,
      "note": 59,
      "start": 26.5062,
      "duration": 0.7474,
      "velocity": 98,
      "chip": "ym2612"
    },
    {
      "channel": 1,
      "note": 64,
      "start": 26.5064,
      "duration": 0.1998,
      "velocity": 107,
      "chip": "ym2612"
    },
    {
      "channel": 3,
      "note": 76,
      "start": 26.5068,
      "duration": 0.0663,
      "velocity": 107,
      "chip": "ym2612"
    },
    {
      "channel": 1,
      "note": 64,
      "start": 26.7064,
      "duration": 0.1998,
      "velocity": 107,
      "chip": "ym2612"
    },
    {
      "channel": 4,
      "note": 59,
      "start": 26.7067,
      "duration": 0.6274,
      "velocity": 98,
      "chip": "ym2612"
    },
    {
      "channel": 1,
      "note": 56,
      "start": 26.9064,
      "duration": 0.0169,
      "velocity": 107,
      "chip": "ym2612"
    },
    {
      "channel": 2,
      "note": 83,
      "start": 26.9074,
      "duration": 0.0056,
      "velocity": 75,
      "chip": "ym2612"
    },
    {
      "channel": 2,
      "note": 85,
      "start": 26.9143,
      "duration": 0.0056,
      "velocity": 75,
      "chip": "ym2612"
    },
    {
      "channel": 1,
      "note": 56,
      "start": 26.9235,
      "duration": 0.0189,
      "velocity": 107,
      "chip": "ym2612"
    },
    {
      "channel": 2,
      "note": 86,
      "start": 26.9238,
      "duration": 0.0076,
      "velocity": 75,
      "chip": "ym2612"
    },
    {
      "channel": 3,
      "note": 83,
      "start": 26.9252,
      "duration": 0.0062,
      "velocity": 75,
      "chip": "ym2612"
    },
    {
      "channel": 2,
      "note": 88,
      "start": 26.9329,
      "duration": 0.0065,
      "velocity": 75,
      "chip": "ym2612"
    },
    {
      "channel": 3,
      "note": 85,
      "start": 26.9332,
      "duration": 0.0063,
      "velocity": 75,
      "chip": "ym2612"
    },
    {
      "channel": 1,
      "note": 59,
      "start": 26.9426,
      "duration": 0.1831,
      "velocity": 107,
      "chip": "ym2612"
    },
    {
      "channel": 2,
      "note": 86,
      "start": 26.9429,
      "duration": 0.0663,
      "velocity": 75,
      "chip": "ym2612"
    },
    {
      "channel": 3,
      "note": 86,
      "start": 26.9431,
      "duration": 0.0662,
      "velocity": 75,
      "chip": "ym2612"
    },
    {
      "channel": 2,
      "note": 85,
      "start": 27.026,
      "duration": 0.0664,
      "velocity": 75,
      "chip": "ym2612"
    },
    {
      "channel": 3,
      "note": 88,
      "start": 27.0262,
      "duration": 0.0662,
      "velocity": 75,
      "chip": "ym2612"
    },
    {
      "channel": 1,
      "note": 59,
      "start": 27.1259,
      "duration": 0.0168,
      "velocity": 107,
      "chip": "ym2612"
    },
    {
      "channel": 2,
      "note": 83,
      "start": 27.1262,
      "duration": 0.0057,
      "velocity": 75,
      "chip": "ym2612"
    },
    {
      "channel": 3,
      "note": 86,
      "start": 27.1264,
      "duration": 0.0055,
      "velocity": 75,
      "chip": "ym2612"
    },
    {
      "channel": 2,
      "note": 86,
      "start": 27.1332,
      "duration": 0.0058,
      "velocity": 75,
      "chip": "ym2612"
    },
    {
      "channel": 3,
      "note": 85,
      "start": 27.1335,
      "duration": 0.0056,
      "velocity": 75,
      "chip": "ym2612"
    },
    {
      "channel": 1,
      "note": 62,
      "start": 27.1429,
      "duration": 0.0924,
      "velocity": 107,
      "chip": "ym2612"
    },
    {
      "channel": 2,
      "note": 83,
      "start": 27.1432,
      "duration": 0.0661,
      "velocity": 75,
      "chip": "ym2612"
    },
    {
      "channel": 3,
      "note": 83,
      "start": 27.1434,
      "duration": 0.066,
      "velocity": 75,
      "chip": "ym2612"
    },
    {
      "channel": 2,
      "note": 81,
      "start": 27.2263,
      "duration": 0.0062,
      "velocity": 75,
      "chip": "ym2612"
    },
    {
      "channel": 3,
      "note": 86,
      "start": 27.2265,
      "duration": 0.006,
      "velocity": 75,
      "chip": "ym2612"
    },
    {
      "channel": 1,
      "note": 62,
      "start": 27.2355,
      "duration": 0.0192,
      "velocity": 107,
      "chip": "ym2612"
    },
    {
      "channel": 2,
      "note": 80,
      "start": 27.2359,
      "duration": 0.0064,
      "velocity": 75,
      "chip": "ym2612"
    },
    {
      "channel": 3,
      "note": 83,
      "start": 27.2365,
      "duration": 0.0058,
      "velocity": 75,
      "chip": "ym2612"
    },
    {
      "channel": 3,
      "note": 81,
      "start": 27.2442,
      "duration": 0.0061,
      "velocity": 75,
      "chip": "ym2612"
    },
    {
      "channel": 0,
      "note": 77,
      "start": 27.2539,
      "duration": 0.4783,
      "velocity": 98,
      "chip": "ym2612"
    },
    {
      "channel": 1,
      "note": 49,
      "start": 27.255,
      "duration": 0.0107,
      "velocity": 107,
      "chip": "ym2612"
    },
    {
      "channel": 2,
      "note": 68,
      "start": 27.2561,
      "duration": 0.4934,
      "velocity": 102,
      "chip": "ym2612"
    },
    {
      "channel": 3,
      "note": 65,
      "start": 27.2577,
      "duration": 0.492,
      "velocity": 102,
      "chip": "ym2612"
    },
    {
      "channel": 1,
      "note": 61,
      "start": 27.2659,
      "duration": 0.0666,
      "velocity": 107,
      "chip": "ym2612"
    },
    {
      "channel": 1,
      "note": 49,
      "start": 27.3327,
      "duration": 0.1998,
      "velocity": 107,
      "chip": "ym2612"
    },
    {
      "channel": 4,
      "note": 77,
      "start": 27.3342,
      "duration": 0.4155,
      "velocity": 98,
      "chip": "ym2612"
    },
    {
      "channel": 1,
      "note": 61,
      "start": 27.5326,
      "duration": 0.1999,
      "velocity": 107,
      "chip": "ym2612"
    },
    {
      "channel": 0,
      "note": 65,
      "start": 27.7325,
      "duration": 0.0166,
      "velocity": 98,
      "chip": "ym2612"
    },
    {
      "channel": 1,
      "note": 49,
      "start": 27.7328,
      "duration": 0.0165,
      "velocity": 107,
      "chip": "ym2612"
    },
    {
      "channel": 0,
      "note": 68,
      "start": 27.7493,
      "duration": 0.0156,
      "velocity": 98,
      "chip": "ym2612"
    },
    {
      "channel": 1,
      "note": 49,
      "start": 27.7495,
      "duration": 0.0158,
      "velocity": 107,
      "chip": "ym2612"
    },
    {
      "channel": 4,
      "note": 65,
      "start": 27.7499,
      "duration": 0.0161,
      "velocity": 98,
      "chip": "ym2612"
    },
    {
      "channel": 0,
      "note": 73,
      "start": 27.7652,
      "duration": 0.1999,
      "velocity": 98,
      "chip": "ym2612"
    },
    {
      "channel": 1,
      "note": 49,
      "start": 27.7655,
      "duration": 0.1998,
      "velocity": 107,
      "chip": "ym2612"
    },
    {
      "channel": 2,
      "note": 68,
      "start": 27.7657,
      "duration": 0.1999,
      "velocity": 102,
      "chip": "ym2612"
    },
    {
      "channel": 3,
      "note": 65,
      "start": 27.766,
      "duration": 0.1999,
      "velocity": 102,
      "chip": "ym2612"
    },
    {
      "channel": 4,
      "note": 68,
      "start": 27.7662,
      "duration": 0.2,
      "velocity": 98,
      "chip": "ym2612"
    },
    {
      "channel": 0,
      "note": 77,
      "start": 27.9653,
      "duration": 0.2165,
      "velocity": 98,
      "chip": "ym2612"
    },
    {
      "channel": 1,
      "note": 49,
      "start": 27.9656,
      "duration": 0.2165,
      "velocity": 107,
      "chip": "ym2612"
    },
    {
      "channel": 2,
      "note": 68,
      "start": 27.9658,
      "duration": 0.2165,
      "velocity": 102,
      "chip": "ym2612"
    },
    {
      "channel": 3,
      "note": 65,
      "start": 27.9661,
      "duration": 0.2164,
      "velocity": 102,
      "chip": "ym2612"
    },
    {
      "channel": 4,
      "note": 73,
      "start": 27.9665,
      "duration": 0.2163,
      "velocity": 98,
      "chip": "ym2612"
    },
    {
      "channel": 0,
      "note": 76,
      "start": 28.182,
      "duration": 0.2,
      "velocity": 98,
      "chip": "ym2612"
    },
    {
      "channel": 1,
      "note": 52,
      "start": 28.1823,
      "duration": 0.2,
      "velocity": 107,
      "chip": "ym2612"
    },
    {
      "channel": 2,
      "note": 71,
      "start": 28.1825,
      "duration": 0.2,
      "velocity": 102,
      "chip": "ym2612"
    },
    {
      "channel": 3,
      "note": 68,
      "start": 28.1827,
      "duration": 0.2,
      "velocity": 102,
      "chip": "ym2612"
    },
    {
      "channel": 4,
      "note": 77,
      "start": 28.183,
      "duration": 0.1998,
      "velocity": 98,
      "chip": "ym2612"
    },
    {
      "channel": 0,
      "note": 76,
      "start": 28.382,
      "duration": 0.2165,
      "velocity": 98,
      "chip": "ym2612"
    },
    {
      "channel": 1,
      "note": 52,
      "start": 28.3822,
      "duration": 0.2166,
      "velocity": 107,
      "chip": "ym2612"
    },
    {
      "channel": 2,
      "note": 71,
      "start": 28.3825,
      "duration": 0.7329,
      "velocity": 102,
      "chip": "ym2612"
    },
    {
      "channel": 3,
      "note": 68,
      "start": 28.3827,
      "duration": 0.7329,
      "velocity": 102,
      "chip": "ym2612"
    },
    {
      "channel": 4,
      "note": 76,
      "start": 28.383,
      "duration": 0.2163,
      "velocity": 98,
      "chip": "ym2612"
    },
    {
      "channel": 0,
      "note": 71,
      "start": 28.5988,
      "duration": 0.1996,
      "velocity": 98,
      "chip": "ym2612"
    },
    {
      "channel": 1,
      "note": 64,
      "start": 28.599,
      "duration": 0.1997,
      "velocity": 107,
      "chip": "ym2612"
    },
    {
      "channel": 4,
      "note": 76,
      "start": 28.5993,
      "duration": 0.1999,
      "velocity": 98,
      "chip": "ym2612"
    },
    {
      "channel": 0,
      "note": 80,
      "start": 28.7986,
      "duration": 0.0162,
      "velocity": 98,
      "chip": "ym2612"
    },
    {
      "channel": 1,
      "note": 59,
      "start": 28.7989,
      "duration": 0.0162,
      "velocity": 107,
      "chip": "ym2612"
    },
    {
      "channel": 4,
      "note": 71,
      "start": 28.7995,
      "duration": 0.016,
      "velocity": 98,
      "chip": "ym2612"
    },
    {
      "channel": 0,
      "note": 76,
      "start": 28.815,
      "duration": 0.1123,
      "velocity": 98,
      "chip": "ym2612"
    },
    {
      "channel": 1,
      "note": 56,
      "start": 28.8152,
      "duration": 0.1121,
      "velocity": 107,
      "chip": "ym2612"
    },
    {
      "channel": 4,
      "note": 80,
      "start": 28.8156,
      "duration": 0.1124,
      "velocity": 98,
      "chip": "ym2612"
    },
    {
      "channel": 0,
      "note": 76,
      "start": 28.9273,
      "duration": 0.4043,
      "velocity": 98,
      "chip": "ym2612"
    },
    {
      "channel": 1,
      "note": 52,
      "start": 28.9276,
      "duration": 0.0085,
      "velocity": 107,
      "chip": "ym2612"
    },
    {
      "channel": 4,
      "note": 76,
      "start": 28.9282,
      "duration": 0.0181,
      "velocity": 98,
      "chip": "ym2612"
    },
    {
      "channel": 1,
      "note": 64,
      "start": 28.9362,
      "duration": 0.0097,
      "velocity": 107,
      "chip": "ym2612"
    },
    {
      "channel": 1,
      "note": 52,
      "start": 28.946,
      "duration": 0.1691,
      "velocity": 107,
      "chip": "ym2612"
    },
    {
      "channel": 4,
      "note": 76,
      "start": 28.9464,
      "duration": 0.4042,
      "velocity": 98,
      "chip": "ym2612"
    },
    {
      "channel": 1,
      "note": 52,
      "start": 29.1153,
      "duration": 0.2166,
      "velocity": 107,
      "chip": "ym2612"
    },
    {
      "channel": 0,
      "note": 81,
      "start": 29.3319,
      "duration": 0.0181,
      "velocity": 98,
      "chip": "ym2612"
    },
    {
      "channel": 1,
      "note": 57,
      "start": 29.3321,
      "duration": 0.018,
      "velocity": 107,
      "chip": "ym2612"
    },
    {
      "channel": 2,
      "note": 69,
      "start": 29.3324,
      "duration": 0.0179,
      "velocity": 102,
      "chip": "ym2612"
    },
    {
      "channel": 3,
      "note": 64,
      "start": 29.3327,
      "duration": 0.0177,
      "velocity": 102,
      "chip": "ym2612"
    },
    {
      "channel": 0,
      "note": 81,
      "start": 29.35,
      "duration": 0.1015,
      "velocity": 98,
      "chip": "ym2612"
    },
    {
      "channel": 1,
      "note": 57,
      "start": 29.3502,
      "duration": 0.1016,
      "velocity": 107,
      "chip": "ym2612"
    },
    {
      "channel": 2,
      "note": 69,
      "start": 29.3503,
      "duration": 0.5181,
      "velocity": 102,
      "chip": "ym2612"
    },
    {
      "channel": 3,
      "note": 64,
      "start": 29.3505,
      "duration": 0.518,
      "velocity": 102,
      "chip": "ym2612"
    },
    {
      "channel": 4,
      "note": 81,
      "start": 29.3507,
      "duration": 0.1016,
      "velocity": 98,
      "chip": "ym2612"
    },
    {
      "channel": 0,
      "note": 76,
      "start": 29.4517,
      "duration": 0.1995,
      "velocity": 98,
      "chip": "ym2612"
    },
    {
      "channel": 1,
      "note": 57,
      "start": 29.452,
      "duration": 0.1996,
      "velocity": 107,
      "chip": "ym2612"
    },
    {
      "channel": 4,
      "note": 81,
      "start": 29.4523,
      "duration": 0.1997,
      "velocity": 98,
      "chip": "ym2612"
    },
    {
      "channel": 0,
      "note": 85,
      "start": 29.6515,
      "duration": 0.2,
      "velocity": 98,
      "chip": "ym2612"
    },
    {
      "channel": 1,
      "note": 45,
      "start": 29.6517,
      "duration": 0.2001,
      "velocity": 107,
      "chip": "ym2612"
    },
    {
      "channel": 4,
      "note": 76,
      "start": 29.6522,
      "duration": 0.2001,
      "velocity": 98,
      "chip": "ym2612"
    },
    {
      "channel": 0,
      "note": 76,
      "start": 29.8517,
      "duration": 0.0161,
      "velocity": 98,
      "chip": "ym2612"
    },
    {
      "channel": 1,
      "note": 57,
      "start": 29.852,
      "duration": 0.0162,
      "velocity": 107,
      "chip": "ym2612"
    },
    {
      "channel": 4,
      "note": 85,
      "start": 29.8525,
      "duration": 0.0161,
      "velocity": 98,
      "chip": "ym2612"
    },
    {
      "channel": 0,
      "note": 83,
      "start": 29.8681,
      "duration": 0.0162,
      "velocity": 98,
      "chip": "ym2612"
    },
    {
      "channel": 1,
      "note": 45,
      "start": 29.8683,
      "duration": 0.0068,
      "velocity": 107,
      "chip": "ym2612"
    },
    {
      "channel": 4,
      "note": 76,
      "start": 29.8688,
      "duration": 0.0166,
      "velocity": 98,
      "chip": "ym2612"
    },
    {
      "channel": 1,
      "note": 57,
      "start": 29.8752,
      "duration": 0.0095,
      "velocity": 107,
      "chip": "ym2612"
    },
    {
      "channel": 0,
      "note": 76,
      "start": 29.8846,
      "duration": 0.1997,
      "velocity": 98,
      "chip": "ym2612"
    },
    {
      "channel": 1,
      "note": 57,
      "start": 29.8848,
      "duration": 0.1998,
      "velocity": 107,
      "chip": "ym2612"
    },
    {
      "channel": 2,
      "note": 69,
      "start": 29.885,
      "duration": 0.1998,
      "velocity": 102,
      "chip": "ym2612"
    },
    {
      "channel": 3,
      "note": 64,
      "start": 29.8852,
      "duration": 0.1999,
      "velocity": 102,
      "chip": "ym2612"
    },
    {
      "channel": 4,
      "note": 83,
      "start": 29.8855,
      "duration": 0.1999,
      "velocity": 98,
      "chip": "ym2612"
    },
    {
      "channel": 0,
      "note": 81,
      "start": 30.0845,
      "duration": 0.2165,
      "velocity": 98,
      "chip": "ym2612"
    },
    {
      "channel": 1,
      "note": 45,
      "start": 30.0848,
      "duration": 0.2165,
      "velocity": 107,
      "chip": "ym2612"
    },
    {
      "channel": 2,
      "note": 69,
      "start": 30.085,
      "duration": 0.2165,
      "velocity": 102,
      "chip": "ym2612"
    },
    {
      "channel": 3,
      "note": 64,
      "start": 30.0854,
      "duration": 0.2164,
      "velocity": 102,
      "chip": "ym2612"
    },
    {
      "channel": 4,
      "note": 76,
      "start": 30.0857,
      "duration": 0.2163,
      "velocity": 98,
      "chip": "ym2612"
    },
    {
      "channel": 0,
      "note": 78,
      "start": 30.3012,
      "duration": 0.1999,
      "velocity": 98,
      "chip": "ym2612"
    },
    {
      "channel": 1,
      "note": 50,
      "start": 30.3015,
      "duration": 0.1999,
      "velocity": 107,
      "chip": "ym2612"
    },
    {
      "channel": 2,
      "note": 74,
      "start": 30.3017,
      "duration": 0.2,
      "velocity": 102,
      "chip": "ym2612"
    },
    {
      "channel": 3,
      "note": 66,
      "start": 30.302,
      "duration": 0.1999,
      "velocity": 102,
      "chip": "ym2612"
    },
    {
      "channel": 4,
      "note": 81,
      "start": 30.3022,
      "duration": 0.1997,
      "velocity": 98,
      "chip": "ym2612"
    },
    {
      "channel": 0,
      "note": 78,
      "start": 30.5012,
      "duration": 0.2166,
      "velocity": 98,
      "chip": "ym2612"
    },
    {
      "channel": 1,
      "note": 50,
      "start": 30.5014,
      "duration": 0.2166,
      "velocity": 107,
      "chip": "ym2612"
    },
    {
      "channel": 2,
      "note": 74,
      "start": 30.5017,
      "duration": 0.974,
      "velocity": 102,
      "chip": "ym2612"
    },
    {
      "channel": 3,
      "note": 66,
      "start": 30.5019,
      "duration": 0.9741,
      "velocity": 102,
      "chip": "ym2612"
    },
    {
      "channel": 4,
      "note": 78,
      "start": 30.5022,
      "duration": 0.2164,
      "velocity": 98,
      "chip": "ym2612"
    },
    {
      "channel": 0,
      "note": 74,
      "start": 30.718,
      "duration": 0.1995,
      "velocity": 98,
      "chip": "ym2612"
    },
    {
      "channel": 1,
      "note": 54,
      "start": 30.7182,
      "duration": 0.1997,
      "velocity": 107,
      "chip": "ym2612"
    },
    {
      "channel": 4,
      "note": 78,
      "start": 30.7186,
      "duration": 0.1998,
      "velocity": 98,
      "chip": "ym2612"
    },
    {
      "channel": 0,
      "note": 69,
      "start": 30.9178,
      "duration": 0.0172,
      "velocity": 98,
      "chip": "ym2612"
    },
    {
      "channel": 1,
      "note": 57,
      "start": 30.9181,
      "duration": 0.0172,
      "velocity": 107,
      "chip": "ym2612"
    },
    {
      "channel": 4,
      "note": 74,
      "start": 30.9186,
      "duration": 0.0171,
      "velocity": 98,
      "chip": "ym2612"
    },
    {
      "channel": 0,
      "note": 66,
      "start": 30.9352,
      "duration": 0.1304,
      "velocity": 98,
      "chip": "ym2612"
    },
    {
      "channel": 1,
      "note": 59,
      "start": 30.9355,
      "duration": 0.1119,
      "velocity": 107,
      "chip": "ym2612"
    },
    {
      "channel": 4,
      "note": 69,
      "start": 30.9359,
      "duration": 0.1121,
      "velocity": 98,
      "chip": "ym2612"
    },
    {
      "channel": 1,
      "note": 62,
      "start": 31.0476,
      "duration": 0.0086,
      "velocity": 107,
      "chip": "ym2612"
    },
    {
      "channel": 4,
      "note": 66,
      "start": 31.0482,
      "duration": 0.2111,
      "velocity": 98,
      "chip": "ym2612"
    },
    {
      "channel": 1,
      "note": 50,
      "start": 31.0563,
      "duration": 0.0096,
      "velocity": 107,
      "chip": "ym2612"
    },
    {
      "channel": 0,
      "note": 69,
      "start": 31.0659,
      "duration": 0.1925,
      "velocity": 98,
      "chip": "ym2612"
    },
    {
      "channel": 1,
      "note": 50,
      "start": 31.0662,
      "duration": 0.1925,
      "velocity": 107,
      "chip": "ym2612"
    },
    {
      "channel": 0,
      "note": 74,
      "start": 31.2586,
      "duration": 0.2165,
      "velocity": 98,
      "chip": "ym2612"
    },
    {
      "channel": 1,
      "note": 50,
      "start": 31.2589,
      "duration": 0.2165,
      "velocity": 107,
      "chip": "ym2612"
    },
    {
      "channel": 4,
      "note": 69,
      "start": 31.2595,
      "duration": 0.2168,
      "velocity": 98,
      "chip": "ym2612"
    },
    {
      "channel": 0,
      "note": 67,
      "start": 31.4753,
      "duration": 0.0187,
      "velocity": 98,
      "chip": "ym2612"
    },
    {
      "channel": 1,
      "note": 55,
      "start": 31.4756,
      "duration": 0.0187,
      "velocity": 107,
      "chip": "ym2612"
    },
    {
      "channel": 2,
      "note": 71,
      "start": 31.4759,
      "duration": 0.0185,
      "velocity": 102,
      "chip": "ym2612"
    },
    {
      "channel": 3,
      "note": 62,
      "start": 31.4762,
      "duration": 0.0184,
      "velocity": 102,
      "chip": "ym2612"
    },
    {
      "channel": 4,
      "note": 74,
      "start": 31.4765,
      "duration": 0.0183,
      "velocity": 98,
      "chip": "ym2612"
    },
    {
      "channel": 0,
      "note": 67,
      "start": 31.494,
      "duration": 0.0193,
      "velocity": 98,
      "chip": "ym2612"
    },
    {
      "channel": 1,
      "note": 55,
      "start": 31.4942,
      "duration": 0.0194,
      "velocity": 107,
      "chip": "ym2612"
    },
    {
      "channel": 2,
      "note": 71,
      "start": 31.4944,
      "duration": 0.0194,
      "velocity": 102,
      "chip": "ym2612"
    },
    {
      "channel": 3,
      "note": 62,
      "start": 31.4947,
      "duration": 0.0194,
      "velocity": 102,
      "chip": "ym2612"
    },
    {
      "channel": 4,
      "note": 67,
      "start": 31.495,
      "duration": 0.0194,
      "velocity": 98,
      "chip": "ym2612"
    },
    {
      "channel": 0,
      "note": 62,
      "start": 31.5136,
      "duration": 0.2,
      "velocity": 98,
      "chip": "ym2612"
    },
    {
      "channel": 1,
      "note": 55,
      "start": 31.5138,
      "duration": 0.2001,
      "velocity": 107,
      "chip": "ym2612"
    },
    {
      "channel": 2,
      "note": 71,
      "start": 31.514,
      "duration": 0.2002,
      "velocity": 102,
      "chip": "ym2612"
    },
    {
      "channel": 3,
      "note": 62,
      "start": 31.5142,
      "duration": 0.2002,
      "velocity": 102,
      "chip": "ym2612"
    },
    {
      "channel": 4,
      "note": 67,
      "start": 31.5144,
      "duration": 0.2002,
      "velocity": 98,
      "chip": "ym2612"
    },
    {
      "channel": 0,
      "note": 71,
      "start": 31.7138,
      "duration": 0.2179,
      "velocity": 98,
      "chip": "ym2612"
    },
    {
      "channel": 1,
      "note": 55,
      "start": 31.7141,
      "duration": 0.018,
      "velocity": 107,
      "chip": "ym2612"
    },
    {
      "channel": 2,
      "note": 71,
      "start": 31.7143,
      "duration": 0.018,
      "velocity": 102,
      "chip": "ym2612"
    },
    {
      "channel": 3,
      "note": 62,
      "start": 31.7146,
      "duration": 0.018,
      "velocity": 102,
      "chip": "ym2612"
    },
    {
      "channel": 4,
      "note": 62,
      "start": 31.7148,
      "duration": 0.0179,
      "velocity": 98,
      "chip": "ym2612"
    },
    {
      "channel": 1,
      "note": 54,
      "start": 31.7323,
      "duration": 0.3829,
      "velocity": 107,
      "chip": "ym2612"
    },
    {
      "channel": 2,
      "note": 71,
      "start": 31.7324,
      "duration": 0.4165,
      "velocity": 102,
      "chip": "ym2612"
    },
    {
      "channel": 3,
      "note": 62,
      "start": 31.7327,
      "duration": 0.4165,
      "velocity": 102,
      "chip": "ym2612"
    },
    {
      "channel": 4,
      "note": 71,
      "start": 31.7329,
      "duration": 0.4166,
      "velocity": 98,
      "chip": "ym2612"
    },
    {
      "channel": 0,
      "note": 66,
      "start": 31.9319,
      "duration": 0.2165,
      "velocity": 98,
      "chip": "ym2612"
    },
    {
      "channel": 0,
      "note": 62,
      "start": 32.1487,
      "duration": 0.1999,
      "velocity": 98,
      "chip": "ym2612"
    },
    {
      "channel": 1,
      "note": 54,
      "start": 32.1489,
      "duration": 0.1999,
      "velocity": 107,
      "chip": "ym2612"
    },
    {
      "channel": 2,
      "note": 71,
      "start": 32.1491,
      "duration": 0.2,
      "velocity": 102,
      "chip": "ym2612"
    },
    {
      "channel": 3,
      "note": 62,
      "start": 32.1493,
      "duration": 0.2,
      "velocity": 102,
      "chip": "ym2612"
    },
    {
      "channel": 4,
      "note": 66,
      "start": 32.1496,
      "duration": 0.2002,
      "velocity": 98,
      "chip": "ym2612"
    },
    {
      "channel": 0,
      "note": 57,
      "start": 32.3488,
      "duration": 0.0177,
      "velocity": 98,
      "chip": "ym2612"
    },
    {
      "channel": 1,
      "note": 54,
      "start": 32.3491,
      "duration": 0.0177,
      "velocity": 107,
      "chip": "ym2612"
    },
    {
      "channel": 2,
      "note": 71,
      "start": 32.3493,
      "duration": 0.0177,
      "velocity": 102,
      "chip": "ym2612"
    },
    {
      "channel": 3,
      "note": 62,
      "start": 32.3496,
      "duration": 0.0176,
      "velocity": 102,
      "chip": "ym2612"
    },
    {
      "channel": 4,
      "note": 62,
      "start": 32.35,
      "duration": 0.0174,
      "velocity": 98,
      "chip": "ym2612"
    },
    {
      "channel": 0,
      "note": 68,
      "start": 32.3667,
      "duration": 0.1998,
      "velocity": 98,
      "chip": "ym2612"
    },
    {
      "channel": 1,
      "note": 52,
      "start": 32.3669,
      "duration": 0.1999,
      "velocity": 107,
      "chip": "ym2612"
    },
    {
      "channel": 2,
      "note": 71,
      "start": 32.3671,
      "duration": 0.2,
      "velocity": 102,
      "chip": "ym2612"
    },
    {
      "channel": 3,
      "note": 62,
      "start": 32.3673,
      "duration": 0.1999,
      "velocity": 102,
      "chip": "ym2612"
    },
    {
      "channel": 4,
      "note": 57,
      "start": 32.3676,
      "duration": 0.1998,
      "velocity": 98,
      "chip": "ym2612"
    },
    {
      "channel": 0,
      "note": 68,
      "start": 32.5666,
      "duration": 0.2165,
      "velocity": 98,
      "chip": "ym2612"
    },
    {
      "channel": 1,
      "note": 52,
      "start": 32.5668,
      "duration": 0.2166,
      "velocity": 107,
      "chip": "ym2612"
    },
    {
      "channel": 2,
      "note": 71,
      "start": 32.5671,
      "duration": 0.2165,
      "velocity": 102,
      "chip": "ym2612"
    },
    {
      "channel": 3,
      "note": 62,
      "start": 32.5673,
      "duration": 0.2166,
      "velocity": 102,
      "chip": "ym2612"
    },
    {
      "channel": 4,
      "note": 68,
      "start": 32.5676,
      "duration": 0.2166,
      "velocity": 98,
      "chip": "ym2612"
    },
    {
      "channel": 0,
      "note": 64,
      "start": 32.7833,
      "duration": 0.0834,
      "velocity": 98,
      "chip": "ym2612"
    },
    {
      "channel": 1,
      "note": 52,
      "start": 32.7835,
      "duration": 0.2002,
      "velocity": 107,
      "chip": "ym2612"
    },
    {
      "channel": 2,
      "note": 71,
      "start": 32.7837,
      "duration": 0.2002,
      "velocity": 102,
      "chip": "ym2612"
    },
    {
      "channel": 3,
      "note": 62,
      "start": 32.784,
      "duration": 0.2002,
      "velocity": 102,
      "chip": "ym2612"
    },
    {
      "channel": 4,
      "note": 68,
      "start": 32.7841,
      "duration": 0.2003,
      "velocity": 98,
      "chip": "ym2612"
    },
    {
      "channel": 0,
      "note": 68,
      "start": 32.8669,
      "duration": 0.1165,
      "velocity": 98,
      "chip": "ym2612"
    },
    {
      "channel": 0,
      "note": 71,
      "start": 32.9836,
      "duration": 0.0182,
      "velocity": 98,
      "chip": "ym2612"
    },
    {
      "channel": 1,
      "note": 52,
      "start": 32.9839,
      "duration": 0.0182,
      "velocity": 107,
      "chip": "ym2612"
    },
    {
      "channel": 2,
      "note": 71,
      "start": 32.9841,
      "duration": 0.0182,
      "velocity": 102,
      "chip": "ym2612"
    },
    {
      "channel": 3,
      "note": 62,
      "start": 32.9844,
      "duration": 0.0182,
      "velocity": 102,
      "chip": "ym2612"
    },
    {
      "channel": 4,
      "note": 64,
      "start": 32.9847,
      "duration": 0.008,
      "velocity": 98,
      "chip": "ym2612"
    },
    {
      "channel": 4,
      "note": 68,
      "start": 32.9929,
      "duration": 0.0099,
      "velocity": 98,
      "chip": "ym2612"
    },
    {
      "channel": 0,
      "note": 67,
      "start": 33.0021,
      "duration": 0.0828,
      "velocity": 98,
      "chip": "ym2612"
    },
    {
      "channel": 1,
      "note": 48,
      "start": 33.0022,
      "duration": 0.3827,
      "velocity": 107,
      "chip": "ym2612"
    },
    {
      "channel": 2,
      "note": 67,
      "start": 33.0025,
      "duration": 0.4162,
      "velocity": 102,
      "chip": "ym2612"
    },
    {
      "channel": 3,
      "note": 64,
      "start": 33.0027,
      "duration": 0.4162,
      "velocity": 102,
      "chip": "ym2612"
    },
    {
      "channel": 4,
      "note": 71,
      "start": 33.0029,
      "duration": 0.1994,
      "velocity": 98,
      "chip": "ym2612"
    },
    {
      "channel": 0,
      "note": 72,
      "start": 33.0851,
      "duration": 0.1165,
      "velocity": 98,
      "chip": "ym2612"
    },
    {
      "channel": 0,
      "note": 76,
      "start": 33.2018,
      "duration": 0.4344,
      "velocity": 98,
      "chip": "ym2612"
    },
    {
      "channel": 4,
      "note": 67,
      "start": 33.2025,
      "duration": 0.0996,
      "velocity": 98,
      "chip": "ym2612"
    },
    {
      "channel": 4,
      "note": 72,
      "start": 33.3024,
      "duration": 0.1167,
      "velocity": 98,
      "chip": "ym2612"
    },
    {
      "channel": 1,
      "note": 48,
      "start": 33.4187,
      "duration": 0.2,
      "velocity": 107,
      "chip": "ym2612"
    },
    {
      "channel": 2,
      "note": 67,
      "start": 33.4188,
      "duration": 0.2,
      "velocity": 102,
      "chip": "ym2612"
    },
    {
      "channel": 3,
      "note": 64,
      "start": 33.4191,
      "duration": 0.2,
      "velocity": 102,
      "chip": "ym2612"
    },
    {
      "channel": 4,
      "note": 76,
      "start": 33.4193,
      "duration": 0.2349,
      "velocity": 98,
      "chip": "ym2612"
    },
    {
      "channel": 1,
      "note": 48,
      "start": 33.6187,
      "duration": 0.0178,
      "velocity": 107,
      "chip": "ym2612"
    },
    {
      "channel": 2,
      "note": 67,
      "start": 33.619,
      "duration": 0.0178,
      "velocity": 102,
      "chip": "ym2612"
    },
    {
      "channel": 3,
      "note": 64,
      "start": 33.6192,
      "duration": 0.0177,
      "velocity": 102,
      "chip": "ym2612"
    },
    {
      "channel": 0,
      "note": 72,
      "start": 33.6363,
      "duration": 0.0173,
      "velocity": 98,
      "chip": "ym2612"
    },
    {
      "channel": 1,
      "note": 53,
      "start": 33.6367,
      "duration": 0.0171,
      "velocity": 107,
      "chip": "ym2612"
    },
    {
      "channel": 2,
      "note": 65,
      "start": 33.6368,
      "duration": 0.0171,
      "velocity": 102,
      "chip": "ym2612"
    },
    {
      "channel": 3,
      "note": 60,
      "start": 33.6371,
      "duration": 0.017,
      "velocity": 102,
      "chip": "ym2612"
    },
    {
      "channel": 0,
      "note": 72,
      "start": 33.6536,
      "duration": 0.1125,
      "velocity": 98,
      "chip": "ym2612"
    },
    {
      "channel": 1,
      "note": 53,
      "start": 33.6538,
      "duration": 0.1126,
      "velocity": 107,
      "chip": "ym2612"
    },
    {
      "channel": 2,
      "note": 65,
      "start": 33.6539,
      "duration": 0.1127,
      "velocity": 102,
      "chip": "ym2612"
    },
    {
      "channel": 3,
      "note": 60,
      "start": 33.6541,
      "duration": 0.1127,
      "velocity": 102,
      "chip": "ym2612"
    },
    {
      "channel": 4,
      "note": 72,
      "start": 33.6544,
      "duration": 0.1128,
      "velocity": 98,
      "chip": "ym2612"
    },
    {
      "channel": 0,
      "note": 72,
      "start": 33.7663,
      "duration": 0.2,
      "velocity": 98,
      "chip": "ym2612"
    },
    {
      "channel": 1,
      "note": 53,
      "start": 33.7665,
      "duration": 0.2002,
      "velocity": 107,
      "chip": "ym2612"
    },
    {
      "channel": 2,
      "note": 65,
      "start": 33.7667,
      "duration": 0.2002,
      "velocity": 102,
      "chip": "ym2612"
    },
    {
      "channel": 3,
      "note": 60,
      "start": 33.767,
      "duration": 0.2001,
      "velocity": 102,
      "chip": "ym2612"
    },
    {
      "channel": 4,
      "note": 72,
      "start": 33.7672,
      "duration": 0.2001,
      "velocity": 98,
      "chip": "ym2612"
    },
    {
      "channel": 0,
      "note": 77,
      "start": 33.9666,
      "duration": 0.2,
      "velocity": 98,
      "chip": "ym2612"
    },
    {
      "channel": 1,
      "note": 53,
      "start": 33.9668,
      "duration": 0.2001,
      "velocity": 107,
      "chip": "ym2612"
    },
    {
      "channel": 2,
      "note": 65,
      "start": 33.9671,
      "duration": 0.2001,
      "velocity": 102,
      "chip": "ym2612"
    },
    {
      "channel": 3,
      "note": 60,
      "start": 33.9673,
      "duration": 0.2002,
      "velocity": 102,
      "chip": "ym2612"
    },
    {
      "channel": 4,
      "note": 72,
      "start": 33.9676,
      "duration": 0.2002,
      "velocity": 98,
      "chip": "ym2612"
    },
    {
      "channel": 0,
      "note": 76,
      "start": 34.1669,
      "duration": 0.0179,
      "velocity": 98,
      "chip": "ym2612"
    },
    {
      "channel": 1,
      "note": 53,
      "start": 34.1671,
      "duration": 0.0179,
      "velocity": 107,
      "chip": "ym2612"
    },
    {
      "channel": 2,
      "note": 65,
      "start": 34.1673,
      "duration": 0.018,
      "velocity": 102,
      "chip": "ym2612"
    },
    {
      "channel": 3,
      "note": 60,
      "start": 34.1677,
      "duration": 0.0179,
      "velocity": 102,
      "chip": "ym2612"
    },
    {
      "channel": 4,
      "note": 77,
      "start": 34.1679,
      "duration": 0.0181,
      "velocity": 98,
      "chip": "ym2612"
    },
    {
      "channel": 0,
      "note": 74,
      "start": 34.1849,
      "duration": 0.02,
      "velocity": 98,
      "chip": "ym2612"
    },
    {
      "channel": 1,
      "note": 53,
      "start": 34.1853,
      "duration": 0.02,
      "velocity": 107,
      "chip": "ym2612"
    },
    {
      "channel": 2,
      "note": 65,
      "start": 34.1856,
      "duration": 0.02,
      "velocity": 102,
      "chip": "ym2612"
    },
    {
      "channel": 3,
      "note": 60,
      "start": 34.1859,
      "duration": 0.02,
      "velocity": 102,
      "chip": "ym2612"
    },
    {
      "channel": 4,
      "note": 76,
      "start": 34.1862,
      "duration": 0.02,
      "velocity": 98,
      "chip": "ym2612"
    },
    {
      "channel": 0,
      "note": 72,
      "start": 34.2053,
      "duration": 0.02,
      "velocity": 98,
      "chip": "ym2612"
    },
    {
      "channel": 1,
      "note": 53,
      "start": 34.2055,
      "duration": 0.02,
      "velocity": 107,
      "chip": "ym2612"
    },
    {
      "channel": 2,
      "note": 65,
      "start": 34.2058,
      "duration": 0.02,
      "velocity": 102,
      "chip": "ym2612"
    },
    {
      "channel": 3,
      "note": 60,
      "start": 34.2061,
      "duration": 0.02,
      "velocity": 102,
      "chip": "ym2612"
    },
    {
      "channel": 4,
      "note": 74,
      "start": 34.2063,
      "duration": 0.0201,
      "velocity": 98,
      "chip": "ym2612"
    },
    {
      "channel": 0,
      "note": 70,
      "start": 34.2255,
      "duration": 0.0207,
      "velocity": 98,
      "chip": "ym2612"
    },
    {
      "channel": 1,
      "note": 53,
      "start": 34.2258,
      "duration": 0.0208,
      "velocity": 107,
      "chip": "ym2612"
    },
    {
      "channel": 2,
      "note": 65,
      "start": 34.2261,
      "duration": 0.0207,
      "velocity": 102,
      "chip": "ym2612"
    },
    {
      "channel": 3,
      "note": 60,
      "start": 34.2264,
      "duration": 0.0207,
      "velocity": 102,
      "chip": "ym2612"
    },
    {
      "channel": 4,
      "note": 72,
      "start": 34.2267,
      "duration": 0.0206,
      "velocity": 98,
      "chip": "ym2612"
    },
    {
      "channel": 0,
      "note": 71,
      "start": 34.2465,
      "duration": 0.2,
      "velocity": 98,
      "chip": "ym2612"
    },
    {
      "channel": 1,
      "note": 52,
      "start": 34.2467,
      "duration": 0.2001,
      "velocity": 107,
      "chip": "ym2612"
    },
    {
      "channel": 2,
      "note": 64,
      "start": 34.247,
      "duration": 0.2,
      "velocity": 102,
      "chip": "ym2612"
    },
    {
      "channel": 3,
      "note": 59,
      "start": 34.2472,
      "duration": 0.2,
      "velocity": 102,
      "chip": "ym2612"
    },
    {
      "channel": 4,
      "note": 70,
      "start": 34.2475,
      "duration": 0.1998,
      "velocity": 98,
      "chip": "ym2612"
    },
    {
      "channel": 0,
      "note": 71,
      "start": 34.4465,
      "duration": 0.2165,
      "velocity": 98,
      "chip": "ym2612"
    },
    {
      "channel": 1,
      "note": 52,
      "start": 34.4468,
      "duration": 0.2166,
      "velocity": 107,
      "chip": "ym2612"
    },
    {
      "channel": 2,
      "note": 64,
      "start": 34.447,
      "duration": 0.2166,
      "velocity": 102,
      "chip": "ym2612"
    },
    {
      "channel": 3,
      "note": 59,
      "start": 34.4472,
      "duration": 0.2166,
      "velocity": 102,
      "chip": "ym2612"
    },
    {
      "channel": 4,
      "note": 71,
      "start": 34.4476,
      "duration": 0.2167,
      "velocity": 98,
      "chip": "ym2612"
    },
    {
      "channel": 0,
      "note": 74,
      "start": 34.6633,
      "duration": 0.2,
      "velocity": 98,
      "chip": "ym2612"
    },
    {
      "channel": 1,
      "note": 52,
      "start": 34.6635,
      "duration": 0.2001,
      "velocity": 107,
      "chip": "ym2612"
    },
    {
      "channel": 2,
      "note": 64,
      "start": 34.6637,
      "duration": 0.2001,
      "velocity": 102,
      "chip": "ym2612"
    },
    {
      "channel": 3,
      "note": 59,
      "start": 34.664,
      "duration": 0.2001,
      "velocity": 102,
      "chip": "ym2612"
    },
    {
      "channel": 4,
      "note": 71,
      "start": 34.6642,
      "duration": 0.2,
      "velocity": 98,
      "chip": "ym2612"
    },
    {
      "channel": 0,
      "note": 80,
      "start": 34.8635,
      "duration": 0.2008,
      "velocity": 98,
      "chip": "ym2612"
    },
    {
      "channel": 1,
      "note": 52,
      "start": 34.8638,
      "duration": 0.1672,
      "velocity": 107,
      "chip": "ym2612"
    },
    {
      "channel": 2,
      "note": 64,
      "start": 34.864,
      "duration": 0.0178,
      "velocity": 102,
      "chip": "ym2612"
    },
    {
      "channel": 3,
      "note": 59,
      "start": 34.8642,
      "duration": 0.0178,
      "velocity": 102,
      "chip": "ym2612"
    },
    {
      "channel": 4,
      "note": 74,
      "start": 34.8645,
      "duration": 0.0176,
      "velocity": 98,
      "chip": "ym2612"
    },
    {
      "channel": 4,
      "note": 80,
      "start": 34.8822,
      "duration": 0.3989,
      "velocity": 98,
      "chip": "ym2612"
    },
    {
      "channel": 0,
      "note": 64,
      "start": 35.3197,
      "duration": 0.1492,
      "velocity": 98,
      "chip": "ym2612"
    },
    {
      "channel": 1,
      "note": 66,
      "start": 35.3209,
      "duration": 0.1983,
      "velocity": 107,
      "chip": "ym2612"
    },
    {
      "channel": 0,
      "note": 64,
      "start": 35.5191,
      "duration": 0.1502,
      "velocity": 98,
      "chip": "ym2612"
    },
    {
      "channel": 1,
      "note": 66,
      "start": 35.5193,
      "duration": 0.2004,
      "velocity": 107,
      "chip": "ym2612"
    },
    {
      "channel": 2,
      "note": 78,
      "start": 35.5195,
      "duration": 0.0668,
      "velocity": 107,
      "chip": "ym2612"
    },
    {
      "channel": 4,
      "note": 64,
      "start": 35.5219,
      "duration": 0.1478,
      "velocity": 98,
      "chip": "ym2612"
    },
    {
      "channel": 0,
      "note": 63,
      "start": 35.7196,
      "duration": 0.0128,
      "velocity": 98,
      "chip": "ym2612"
    },
    {
      "channel": 1,
      "note": 58,
      "start": 35.7199,
      "duration": 0.015,
      "velocity": 107,
      "chip": "ym2612"
    },
    {
      "channel": 2,
      "note": 82,
      "start": 35.7201,
      "duration": 0.0069,
      "velocity": 107,
      "chip": "ym2612"
    },
    {
      "channel": 3,
      "note": 78,
      "start": 35.7205,
      "duration": 0.0066,
      "velocity": 107,
      "chip": "ym2612"
    },
    {
      "channel": 4,
      "note": 64,
      "start": 35.7208,
      "duration": 0.0118,
      "velocity": 98,
      "chip": "ym2612"
    },
    {
      "channel": 1,
      "note": 58,
      "start": 35.7351,
      "duration": 0.1131,
      "velocity": 107,
      "chip": "ym2612"
    },
    {
      "channel": 2,
      "note": 78,
      "start": 35.7355,
      "duration": 0.0061,
      "velocity": 107,
      "chip": "ym2612"
    },
    {
      "channel": 3,
      "note": 82,
      "start": 35.7357,
      "duration": 0.0059,
      "velocity": 107,
      "chip": "ym2612"
    },
    {
      "channel": 4,
      "note": 63,
      "start": 35.736,
      "duration": 0.0622,
      "velocity": 98,
      "chip": "ym2612"
    },
    {
      "channel": 0,
      "note": 64,
      "start": 35.8482,
      "duration": 0.15,
      "velocity": 98,
      "chip": "ym2612"
    },
    {
      "channel": 1,
      "note": 59,
      "start": 35.8483,
      "duration": 0.2011,
      "velocity": 107,
      "chip": "ym2612"
    },
    {
      "channel": 2,
      "note": 80,
      "start": 35.8486,
      "duration": 0.0666,
      "velocity": 107,
      "chip": "ym2612"
    },
    {
      "channel": 3,
      "note": 78,
      "start": 35.8488,
      "duration": 0.0663,
      "velocity": 107,
      "chip": "ym2612"
    },
    {
      "channel": 0,
      "note": 80,
      "start": 36.0493,
      "duration": 0.1655,
      "velocity": 127,
      "chip": "ym2612"
    },
    {
      "channel": 1,
      "note": 59,
      "start": 36.0497,
      "duration": 0.2161,
      "velocity": 107,
      "chip": "ym2612"
    },
    {
      "channel": 2,
      "note": 76,
      "start": 36.05,
      "duration": 0.0817,
      "velocity": 107,
      "chip": "ym2612"
    },
    {
      "channel": 3,
      "note": 80,
      "start": 36.0502,
      "duration": 0.0816,
      "velocity": 107,
      "chip": "ym2612"
    },
    {
      "channel": 4,
      "note": 64,
      "start": 36.0505,
      "duration": 0.1646,
      "velocity": 98,
      "chip": "ym2612"
    },
    {
      "channel": 0,
      "note": 88,
      "start": 36.2657,
      "duration": 0.0128,
      "velocity": 127,
      "chip": "ym2612"
    },
    {
      "channel": 1,
      "note": 61,
      "start": 36.2659,
      "duration": 0.0164,
      "velocity": 107,
      "chip": "ym2612"
    },
    {
      "channel": 3,
      "note": 76,
      "start": 36.2664,
      "duration": 0.007,
      "velocity": 107,
      "chip": "ym2612"
    },
    {
      "channel": 4,
      "note": 80,
      "start": 36.2675,
      "duration": 0.0112,
      "velocity": 127,
      "chip": "ym2612"
    },
    {
      "channel": 0,
      "note": 64,
      "start": 36.2822,
      "duration": 0.0614,
      "velocity": 98,
      "chip": "ym2612"
    },
    {
      "channel": 1,
      "note": 66,
      "start": 36.2826,
      "duration": 0.1114,
      "velocity": 107,
      "chip": "ym2612"
    },
    {
      "channel": 2,
      "note": 78,
      "start": 36.2828,
      "duration": 0.0071,
      "velocity": 107,
      "chip": "ym2612"
    },
    {
      "channel": 4,
      "note": 88,
      "start": 36.2839,
      "duration": 0.0601,
      "velocity": 127,
      "chip": "ym2612"
    },
    {
      "channel": 1,
      "note": 66,
      "start": 36.3939,
      "duration": 0.2003,
      "velocity": 107,
      "chip": "ym2612"
    },
    {
      "channel": 2,
      "note": 82,
      "start": 36.3942,
      "duration": 0.0666,
      "velocity": 107,
      "chip": "ym2612"
    },
    {
      "channel": 3,
      "note": 78,
      "start": 36.3944,
      "duration": 0.0665,
      "velocity": 107,
      "chip": "ym2612"
    },
    {
      "channel": 4,
      "note": 64,
      "start": 36.3956,
      "duration": 0.1485,
      "velocity": 98,
      "chip": "ym2612"
    },
    {
      "channel": 0,
      "note": 64,
      "start": 36.5942,
      "duration": 0.1497,
      "velocity": 98,
      "chip": "ym2612"
    },
    {
      "channel": 1,
      "note": 66,
      "start": 36.5944,
      "duration": 0.1998,
      "velocity": 107,
      "chip": "ym2612"
    },
    {
      "channel": 2,
      "note": 78,
      "start": 36.5946,
      "duration": 0.0661,
      "velocity": 107,
      "chip": "ym2612"
    },
    {
      "channel": 3,
      "note": 82,
      "start": 36.5949,
      "duration": 0.066,
      "velocity": 107,
      "chip": "ym2612"
    },
    {
      "channel": 0,
      "note": 63,
      "start": 36.7941,
      "duration": 0.0127,
      "velocity": 98,
      "chip": "ym2612"
    },
    {
      "channel": 1,
      "note": 58,
      "start": 36.7945,
      "duration": 0.0149,
      "velocity": 107,
      "chip": "ym2612"
    },
    {
      "channel": 2,
      "note": 80,
      "start": 36.7947,
      "duration": 0.0069,
      "velocity": 107,
      "chip": "ym2612"
    },
    {
      "channel": 3,
      "note": 78,
      "start": 36.795,
      "duration": 0.0066,
      "velocity": 107,
      "chip": "ym2612"
    },
    {
      "channel": 4,
      "note": 64,
      "start": 36.7953,
      "duration": 0.0118,
      "velocity": 98,
      "chip": "ym2612"
    },
    {
      "channel": 1,
      "note": 58,
      "start": 36.8095,
      "duration": 0.1131,
      "velocity": 107,
      "chip": "ym2612"
    },
    {
      "channel": 2,
      "note": 76,
      "start": 36.8099,
      "duration": 0.0061,
      "velocity": 107,
      "chip": "ym2612"
    },
    {
      "channel": 3,
      "note": 80,
      "start": 36.81,
      "duration": 0.006,
      "velocity": 107,
      "chip": "ym2612"
    },
    {
      "channel": 4,
      "note": 63,
      "start": 36.8103,
      "duration": 0.0623,
      "velocity": 98,
      "chip": "ym2612"
    },
    {
      "channel": 0,
      "note": 64,
      "start": 36.9226,
      "duration": 0.1498,
      "velocity": 98,
      "chip": "ym2612"
    },
    {
      "channel": 1,
      "note": 59,
      "start": 36.9228,
      "duration": 0.2,
      "velocity": 107,
      "chip": "ym2612"
    },
    {
      "channel": 3,
      "note": 76,
      "start": 36.9232,
      "duration": 0.0661,
      "velocity": 107,
      "chip": "ym2612"
    },
    {
      "channel": 0,
      "note": 70,
      "start": 37.1227,
      "duration": 0.014,
      "velocity": 98,
      "chip": "ym2612"
    },
    {
      "channel": 1,
      "note": 59,
      "start": 37.1229,
      "duration": 0.0174,
      "velocity": 107,
      "chip": "ym2612"
    },
    {
      "channel": 2,
      "note": 77,
      "start": 37.1232,
      "duration": 0.0072,
      "velocity": 107,
      "chip": "ym2612"
    },
    {
      "channel": 4,
      "note": 64,
      "start": 37.1236,
      "duration": 0.0134,
      "velocity": 98,
      "chip": "ym2612"
    },
    {
      "channel": 1,
      "note": 61,
      "start": 37.1406,
      "duration": 0.0134,
      "velocity": 107,
      "chip": "ym2612"
    },
    {
      "channel": 3,
      "note": 77,
      "start": 37.141,
      "duration": 0.0056,
      "velocity": 107,
      "chip": "ym2612"
    },
    {
      "channel": 4,
      "note": 70,
      "start": 37.1414,
      "duration": 0.0101,
      "velocity": 98,
      "chip": "ym2612"
    },
    {
      "channel": 1,
      "note": 61,
      "start": 37.1543,
      "duration": 0.2,
      "velocity": 107,
      "chip": "ym2612"
    },
    {
      "channel": 2,
      "note": 78,
      "start": 37.1546,
      "duration": 0.0661,
      "velocity": 107,
      "chip": "ym2612"
    },
    {
      "channel": 0,
      "note": 64,
      "start": 37.3542,
      "duration": 0.4158,
      "velocity": 98,
      "chip": "ym2612"
    },
    {
      "channel": 1,
      "note": 66,
      "start": 37.3545,
      "duration": 0.1996,
      "velocity": 107,
      "chip": "ym2612"
    },
    {
      "channel": 3,
      "note": 78,
      "start": 37.3547,
      "duration": 0.0661,
      "velocity": 107,
      "chip": "ym2612"
    },
    {
      "channel": 1,
      "note": 66,
      "start": 37.5542,
      "duration": 0.1999,
      "velocity": 107,
      "chip": "ym2612"
    },
    {
      "channel": 2,
      "note": 78,
      "start": 37.5545,
      "duration": 0.0663,
      "velocity": 107,
      "chip": "ym2612"
    },
    {
      "channel": 4,
      "note": 64,
      "start": 37.5548,
      "duration": 0.3293,
      "velocity": 98,
      "chip": "ym2612"
    },
    {
      "channel": 1,
      "note": 58,
      "start": 37.7543,
      "duration": 0.016,
      "velocity": 107,
      "chip": "ym2612"
    },
    {
      "channel": 2,
      "note": 82,
      "start": 37.7545,
      "duration": 0.0069,
      "velocity": 107,
      "chip": "ym2612"
    },
    {
      "channel": 3,
      "note": 78,
      "start": 37.7548,
      "duration": 0.0068,
      "velocity": 107,
      "chip": "ym2612"
    },
    {
      "channel": 0,
      "note": 63,
      "start": 37.7701,
      "duration": 0.5301,
      "velocity": 98,
      "chip": "ym2612"
    },
    {
      "channel": 1,
      "note": 58,
      "start": 37.7705,
      "duration": 0.1129,
      "velocity": 107,
      "chip": "ym2612"
    },
    {
      "channel": 2,
      "note": 78,
      "start": 37.7707,
      "duration": 0.0063,
      "velocity": 107,
      "chip": "ym2612"
    },
    {
      "channel": 3,
      "note": 82,
      "start": 37.771,
      "duration": 0.0061,
      "velocity": 107,
      "chip": "ym2612"
    },
    {
      "channel": 1,
      "note": 59,
      "start": 37.8836,
      "duration": 0.2001,
      "velocity": 107,
      "chip": "ym2612"
    },
    {
      "channel": 2,
      "note": 80,
      "start": 37.8839,
      "duration": 0.0666,
      "velocity": 107,
      "chip": "ym2612"
    },
    {
      "channel": 3,
      "note": 78,
      "start": 37.8841,
      "duration": 0.0665,
      "velocity": 107,
      "chip": "ym2612"
    },
    {
      "channel": 4,
      "note": 63,
      "start": 37.8843,
      "duration": 0.4328,
      "velocity": 98,
      "chip": "ym2612"
    },
    {
      "channel": 1,
      "note": 59,
      "start": 38.0839,
      "duration": 0.2166,
      "velocity": 107,
      "chip": "ym2612"
    },
    {
      "channel": 2,
      "note": 76,
      "start": 38.0842,
      "duration": 0.0829,
      "velocity": 107,
      "chip": "ym2612"
    },
    {
      "channel": 3,
      "note": 80,
      "start": 38.0844,
      "duration": 0.0828,
      "velocity": 107,
      "chip": "ym2612"
    },
    {
      "channel": 0,
      "note": 61,
      "start": 38.3004,
      "duration": 0.1296,
      "velocity": 98,
      "chip": "ym2612"
    },
    {
      "channel": 1,
      "note": 61,
      "start": 38.3007,
      "duration": 0.0156,
      "velocity": 107,
      "chip": "ym2612"
    },
    {
      "channel": 2,
      "note": 77,
      "start": 38.3009,
      "duration": 0.0065,
      "velocity": 107,
      "chip": "ym2612"
    },
    {
      "channel": 3,
      "note": 76,
      "start": 38.3011,
      "duration": 0.0064,
      "velocity": 107,
      "chip": "ym2612"
    },
    {
      "channel": 1,
      "note": 66,
      "start": 38.3165,
      "duration": 0.1136,
      "velocity": 107,
      "chip": "ym2612"
    },
    {
      "channel": 2,
      "note": 78,
      "start": 38.3167,
      "duration": 0.0066,
      "velocity": 107,
      "chip": "ym2612"
    },
    {
      "channel": 3,
      "note": 77,
      "start": 38.317,
      "duration": 0.0064,
      "velocity": 107,
      "chip": "ym2612"
    },
    {
      "channel": 4,
      "note": 61,
      "start": 38.3173,
      "duration": 0.3132,
      "velocity": 98,
      "chip": "ym2612"
    },
    {
      "channel": 0,
      "note": 61,
      "start": 38.43,
      "duration": 0.9654,
      "velocity": 98,
      "chip": "ym2612"
    },
    {
      "channel": 1,
      "note": 66,
      "start": 38.4302,
      "duration": 0.1998,
      "velocity": 107,
      "chip": "ym2612"
    },
    {
      "channel": 3,
      "note": 78,
      "start": 38.4305,
      "duration": 0.0662,
      "velocity": 107,
      "chip": "ym2612"
    },
    {
      "channel": 1,
      "note": 66,
      "start": 38.6301,
      "duration": 0.1996,
      "velocity": 107,
      "chip": "ym2612"
    },
    {
      "channel": 4,
      "note": 61,
      "start": 38.6304,
      "duration": 0.9669,
      "velocity": 98,
      "chip": "ym2612"
    },
    {
      "channel": 1,
      "note": 58,
      "start": 38.8299,
      "duration": 0.0146,
      "velocity": 107,
      "chip": "ym2612"
    },
    {
      "channel": 1,
      "note": 58,
      "start": 38.8447,
      "duration": 0.1132,
      "velocity": 107,
      "chip": "ym2612"
    },
    {
      "channel": 1,
      "note": 61,
      "start": 38.9581,
      "duration": 0.2,
      "velocity": 107,
      "chip": "ym2612"
    },
    {
      "channel": 2,
      "note": 93,
      "start": 38.959,
      "duration": 0.049,
      "velocity": 75,
      "chip": "ym2612"
    },
    {
      "channel": 2,
      "note": 92,
      "start": 39.0415,
      "duration": 0.0665,
      "velocity": 75,
      "chip": "ym2612"
    },
    {
      "channel": 1,
      "note": 61,
      "start": 39.1583,
      "duration": 0.0198,
      "velocity": 107,
      "chip": "ym2612"
    },
    {
      "channel": 2,
      "note": 90,
      "start": 39.1585,
      "duration": 0.0069,
      "velocity": 75,
      "chip": "ym2612"
    },
    {
      "channel": 3,
      "note": 93,
      "start": 39.1595,
      "duration": 0.0072,
      "velocity": 75,
      "chip": "ym2612"
    },
    {
      "channel": 2,
      "note": 88,
      "start": 39.1681,
      "duration": 0.0061,
      "velocity": 75,
      "chip": "ym2612"
    },
    {
      "channel": 3,
      "note": 92,
      "start": 39.1684,
      "duration": 0.0073,
      "velocity": 75,
      "chip": "ym2612"
    },
    {
      "channel": 1,
      "note": 64,
      "start": 39.1783,
      "duration": 0.0173,
      "velocity": 107,
      "chip": "ym2612"
    },
    {
      "channel": 2,
      "note": 93,
      "start": 39.1785,
      "duration": 0.0054,
      "velocity": 75,
      "chip": "ym2612"
    },
    {
      "channel": 3,
      "note": 90,
      "start": 39.1789,
      "duration": 0.0063,
      "velocity": 75,
      "chip": "ym2612"
    },
    {
      "channel": 2,
      "note": 92,
      "start": 39.1865,
      "duration": 0.0052,
      "velocity": 75,
      "chip": "ym2612"
    },
    {
      "channel": 3,
      "note": 88,
      "start": 39.1867,
      "duration": 0.0064,
      "velocity": 75,
      "chip": "ym2612"
    },
    {
      "channel": 1,
      "note": 64,
      "start": 39.1959,
      "duration": 0.1998,
      "velocity": 107,
      "chip": "ym2612"
    },
    {
      "channel": 2,
      "note": 90,
      "start": 39.1961,
      "duration": 0.0494,
      "velocity": 75,
      "chip": "ym2612"
    },
    {
      "channel": 3,
      "note": 93,
      "start": 39.1963,
      "duration": 0.0659,
      "velocity": 75,
      "chip": "ym2612"
    },
    {
      "channel": 2,
      "note": 88,
      "start": 39.279,
      "duration": 0.0666,
      "velocity": 75,
      "chip": "ym2612"
    },
    {
      "channel": 3,
      "note": 92,
      "start": 39.2793,
      "duration": 0.0829,
      "velocity": 75,
      "chip": "ym2612"
    },
    {
      "channel": 0,
      "note": 62,
      "start": 39.3956,
      "duration": 0.1499,
      "velocity": 98,
      "chip": "ym2612"
    },
    {
      "channel": 1,
      "note": 64,
      "start": 39.3959,
      "duration": 0.2,
      "velocity": 107,
      "chip": "ym2612"
    },
    {
      "channel": 3,
      "note": 90,
      "start": 39.3971,
      "duration": 0.0655,
      "velocity": 75,
      "chip": "ym2612"
    },
    {
      "channel": 3,
      "note": 88,
      "start": 39.4795,
      "duration": 0.083,
      "velocity": 75,
      "chip": "ym2612"
    },
    {
      "channel": 0,
      "note": 62,
      "start": 39.5958,
      "duration": 0.1498,
      "velocity": 98,
      "chip": "ym2612"
    },
    {
      "channel": 1,
      "note": 64,
      "start": 39.596,
      "duration": 0.2001,
      "velocity": 107,
      "chip": "ym2612"
    },
    {
      "channel": 2,
      "note": 76,
      "start": 39.5962,
      "duration": 0.0665,
      "velocity": 107,
      "chip": "ym2612"
    },
    {
      "channel": 4,
      "note": 62,
      "start": 39.5975,
      "duration": 0.1485,
      "velocity": 98,
      "chip": "ym2612"
    },
    {
      "channel": 0,
      "note": 61,
      "start": 39.796,
      "duration": 0.0127,
      "velocity": 98,
      "chip": "ym2612"
    },
    {
      "channel": 1,
      "note": 56,
      "start": 39.7963,
      "duration": 0.0147,
      "velocity": 107,
      "chip": "ym2612"
    },
    {
      "channel": 2,
      "note": 80,
      "start": 39.7965,
      "duration": 0.0069,
      "velocity": 107,
      "chip": "ym2612"
    },
    {
      "channel": 3,
      "note": 76,
      "start": 39.7968,
      "duration": 0.0066,
      "velocity": 107,
      "chip": "ym2612"
    },
    {
      "channel": 4,
      "note": 62,
      "start": 39.7972,
      "duration": 0.0117,
      "velocity": 98,
      "chip": "ym2612"
    },
    {
      "channel": 1,
      "note": 56,
      "start": 39.8112,
      "duration": 0.1132,
      "velocity": 107,
      "chip": "ym2612"
    },
    {
      "channel": 2,
      "note": 76,
      "start": 39.8114,
      "duration": 0.006,
      "velocity": 107,
      "chip": "ym2612"
    },
    {
      "channel": 3,
      "note": 80,
      "start": 39.8117,
      "duration": 0.0059,
      "velocity": 107,
      "chip": "ym2612"
    },
    {
      "channel": 4,
      "note": 61,
      "start": 39.8119,
      "duration": 0.0625,
      "velocity": 98,
      "chip": "ym2612"
    },
    {
      "channel": 0,
      "note": 62,
      "start": 39.9244,
      "duration": 0.15,
      "velocity": 98,
      "chip": "ym2612"
    },
    {
      "channel": 1,
      "note": 57,
      "start": 39.9246,
      "duration": 0.2011,
      "velocity": 107,
      "chip": "ym2612"
    },
    {
      "channel": 2,
      "note": 78,
      "start": 39.9248,
      "duration": 0.0666,
      "velocity": 107,
      "chip": "ym2612"
    },
    {
      "channel": 3,
      "note": 76,
      "start": 39.925,
      "duration": 0.0663,
      "velocity": 107,
      "chip": "ym2612"
    },
    {
      "channel": 0,
      "note": 80,
      "start": 40.1256,
      "duration": 0.1655,
      "velocity": 127,
      "chip": "ym2612"
    },
    {
      "channel": 1,
      "note": 57,
      "start": 40.1259,
      "duration": 0.2161,
      "velocity": 107,
      "chip": "ym2612"
    },
    {
      "channel": 2,
      "note": 74,
      "start": 40.1262,
      "duration": 0.0817,
      "velocity": 107,
      "chip": "ym2612"
    },
    {
      "channel": 3,
      "note": 78,
      "start": 40.1264,
      "duration": 0.0816,
      "velocity": 107,
      "chip": "ym2612"
    },
    {
      "channel": 4,
      "note": 62,
      "start": 40.1268,
      "duration": 0.1646,
      "velocity": 98,
      "chip": "ym2612"
    },
    {
      "channel": 0,
      "note": 88,
      "start": 40.342,
      "duration": 0.0128,
      "velocity": 127,
      "chip": "ym2612"
    },
    {
      "channel": 1,
      "note": 59,
      "start": 40.3421,
      "duration": 0.0164,
      "velocity": 107,
      "chip": "ym2612"
    },
    {
      "channel": 3,
      "note": 74,
      "start": 40.3426,
      "duration": 0.007,
      "velocity": 107,
      "chip": "ym2612"
    },
    {
      "channel": 4,
      "note": 80,
      "start": 40.3437,
      "duration": 0.0112,
      "velocity": 127,
      "chip": "ym2612"
    },
    {
      "channel": 0,
      "note": 62,
      "start": 40.3584,
      "duration": 0.0614,
      "velocity": 98,
      "chip": "ym2612"
    },
    {
      "channel": 1,
      "note": 64,
      "start": 40.3588,
      "duration": 0.1114,
      "velocity": 107,
      "chip": "ym2612"
    },
    {
      "channel": 2,
      "note": 76,
      "start": 40.359,
      "duration": 0.0071,
      "velocity": 107,
      "chip": "ym2612"
    },
    {
      "channel": 4,
      "note": 88,
      "start": 40.3601,
      "duration": 0.0601,
      "velocity": 127,
      "chip": "ym2612"
    },
    {
      "channel": 1,
      "note": 64,
      "start": 40.4702,
      "duration": 0.2003,
      "velocity": 107,
      "chip": "ym2612"
    },
    {
      "channel": 2,
      "note": 80,
      "start": 40.4704,
      "duration": 0.0666,
      "velocity": 107,
      "chip": "ym2612"
    },
    {
      "channel": 3,
      "note": 76,
      "start": 40.4706,
      "duration": 0.0665,
      "velocity": 107,
      "chip": "ym2612"
    },
    {
      "channel": 4,
      "note": 62,
      "start": 40.4718,
      "duration": 0.1485,
      "velocity": 98,
      "chip": "ym2612"
    },
    {
      "channel": 0,
      "note": 62,
      "start": 40.6704,
      "duration": 0.1497,
      "velocity": 98,
      "chip": "ym2612"
    },
    {
      "channel": 1,
      "note": 64,
      "start": 40.6706,
      "duration": 0.1998,
      "velocity": 107,
      "chip": "ym2612"
    },
    {
      "channel": 2,
      "note": 76,
      "start": 40.6708,
      "duration": 0.0661,
      "velocity": 107,
      "chip": "ym2612"
    },
    {
      "channel": 3,
      "note": 80,
      "start": 40.6711,
      "duration": 0.066,
      "velocity": 107,
      "chip": "ym2612"
    },
    {
      "channel": 0,
      "note": 61,
      "start": 40.8704,
      "duration": 0.0127,
      "velocity": 98,
      "chip": "ym2612"
    },
    {
      "channel": 1,
      "note": 56,
      "start": 40.8707,
      "duration": 0.0149,
      "velocity": 107,
      "chip": "ym2612"
    },
    {
      "channel": 2,
      "note": 78,
      "start": 40.8709,
      "duration": 0.0069,
      "velocity": 107,
      "chip": "ym2612"
    },
    {
      "channel": 3,
      "note": 76,
      "start": 40.8712,
      "duration": 0.0066,
      "velocity": 107,
      "chip": "ym2612"
    },
    {
      "channel": 4,
      "note": 62,
      "start": 40.8715,
      "duration": 0.0118,
      "velocity": 98,
      "chip": "ym2612"
    },
    {
      "channel": 1,
      "note": 56,
      "start": 40.8857,
      "duration": 0.1131,
      "velocity": 107,
      "chip": "ym2612"
    },
    {
      "channel": 2,
      "note": 74,
      "start": 40.8861,
      "duration": 0.0061,
      "velocity": 107,
      "chip": "ym2612"
    },
    {
      "channel": 3,
      "note": 78,
      "start": 40.8862,
      "duration": 0.006,
      "velocity": 107,
      "chip": "ym2612"
    },
    {
      "channel": 4,
      "note": 61,
      "start": 40.8865,
      "duration": 0.0623,
      "velocity": 98,
      "chip": "ym2612"
    },
    {
      "channel": 0,
      "note": 62,
      "start": 40.9988,
      "duration": 0.1497,
      "velocity": 98,
      "chip": "ym2612"
    },
    {
      "channel": 1,
      "note": 57,
      "start": 40.999,
      "duration": 0.2,
      "velocity": 107,
      "chip": "ym2612"
    },
    {
      "channel": 3,
      "note": 74,
      "start": 40.9994,
      "duration": 0.0662,
      "velocity": 107,
      "chip": "ym2612"
    },
    {
      "channel": 0,
      "note": 68,
      "start": 41.1989,
      "duration": 0.0137,
      "velocity": 98,
      "chip": "ym2612"
    },
    {
      "channel": 1,
      "note": 57,
      "start": 41.1992,
      "duration": 0.0172,
      "velocity": 107,
      "chip": "ym2612"
    },
    {
      "channel": 2,
      "note": 75,
      "start": 41.1994,
      "duration": 0.0065,
      "velocity": 107,
      "chip": "ym2612"
    },
    {
      "channel": 4,
      "note": 62,
      "start": 41.1998,
      "duration": 0.0132,
      "velocity": 98,
      "chip": "ym2612"
    },
    {
      "channel": 1,
      "note": 59,
      "start": 41.2166,
      "duration": 0.0134,
      "velocity": 107,
      "chip": "ym2612"
    },
    {
      "channel": 3,
      "note": 75,
      "start": 41.2171,
      "duration": 0.0057,
      "velocity": 107,
      "chip": "ym2612"
    },
    {
      "channel": 4,
      "note": 68,
      "start": 41.2173,
      "duration": 0.0103,
      "velocity": 98,
      "chip": "ym2612"
    },
    {
      "channel": 1,
      "note": 59,
      "start": 41.2303,
      "duration": 0.1999,
      "velocity": 107,
      "chip": "ym2612"
    },
    {
      "channel": 2,
      "note": 76,
      "start": 41.2305,
      "duration": 0.0661,
      "velocity": 107,
      "chip": "ym2612"
    },
    {
      "channel": 0,
      "note": 62,
      "start": 41.4301,
      "duration": 0.4172,
      "velocity": 98,
      "chip": "ym2612"
    },
    {
      "channel": 1,
      "note": 64,
      "start": 41.4303,
      "duration": 0.1997,
      "velocity": 107,
      "chip": "ym2612"
    },
    {
      "channel": 3,
      "note": 76,
      "start": 41.4306,
      "duration": 0.0661,
      "velocity": 107,
      "chip": "ym2612"
    },
    {
      "channel": 1,
      "note": 64,
      "start": 41.6301,
      "duration": 0.1999,
      "velocity": 107,
      "chip": "ym2612"
    },
    {
      "channel": 2,
      "note": 76,
      "start": 41.6304,
      "duration": 0.0663,
      "velocity": 107,
      "chip": "ym2612"
    },
    {
      "channel": 4,
      "note": 62,
      "start": 41.6307,
      "duration": 0.4177,
      "velocity": 98,
      "chip": "ym2612"
    },
    {
      "channel": 1,
      "note": 56,
      "start": 41.8302,
      "duration": 0.0174,
      "velocity": 107,
      "chip": "ym2612"
    },
    {
      "channel": 2,
      "note": 80,
      "start": 41.8304,
      "duration": 0.0068,
      "velocity": 107,
      "chip": "ym2612"
    },
    {
      "channel": 3,
      "note": 76,
      "start": 41.8307,
      "duration": 0.0066,
      "velocity": 107,
      "chip": "ym2612"
    },
    {
      "channel": 0,
      "note": 61,
      "start": 41.8475,
      "duration": 0.6168,
      "velocity": 98,
      "chip": "ym2612"
    },
    {
      "channel": 1,
      "note": 56,
      "start": 41.8478,
      "duration": 0.1998,
      "velocity": 107,
      "chip": "ym2612"
    },
    {
      "channel": 2,
      "note": 76,
      "start": 41.848,
      "duration": 0.0663,
      "velocity": 107,
      "chip": "ym2612"
    },
    {
      "channel": 3,
      "note": 80,
      "start": 41.8482,
      "duration": 0.0661,
      "velocity": 107,
      "chip": "ym2612"
    },
    {
      "channel": 1,
      "note": 57,
      "start": 42.0478,
      "duration": 0.2,
      "velocity": 107,
      "chip": "ym2612"
    },
    {
      "channel": 2,
      "note": 78,
      "start": 42.0481,
      "duration": 0.0666,
      "velocity": 107,
      "chip": "ym2612"
    },
    {
      "channel": 3,
      "note": 76,
      "start": 42.0483,
      "duration": 0.0664,
      "velocity": 107,
      "chip": "ym2612"
    },
    {
      "channel": 4,
      "note": 61,
      "start": 42.0485,
      "duration": 0.4344,
      "velocity": 98,
      "chip": "ym2612"
    },
    {
      "channel": 1,
      "note": 57,
      "start": 42.248,
      "duration": 0.2166,
      "velocity": 107,
      "chip": "ym2612"
    },
    {
      "channel": 2,
      "note": 74,
      "start": 42.2483,
      "duration": 0.0829,
      "velocity": 107,
      "chip": "ym2612"
    },
    {
      "channel": 3,
      "note": 78,
      "start": 42.2485,
      "duration": 0.0828,
      "velocity": 107,
      "chip": "ym2612"
    },
    {
      "channel": 0,
      "note": 59,
      "start": 42.4646,
      "duration": 0.2179,
      "velocity": 98,
      "chip": "ym2612"
    },
    {
      "channel": 1,
      "note": 59,
      "start": 42.4649,
      "duration": 0.0173,
      "velocity": 107,
      "chip": "ym2612"
    },
    {
      "channel": 2,
      "note": 75,
      "start": 42.4651,
      "duration": 0.0071,
      "velocity": 107,
      "chip": "ym2612"
    },
    {
      "channel": 3,
      "note": 74,
      "start": 42.4654,
      "duration": 0.0068,
      "velocity": 107,
      "chip": "ym2612"
    },
    {
      "channel": 1,
      "note": 64,
      "start": 42.4824,
      "duration": 0.2002,
      "velocity": 107,
      "chip": "ym2612"
    },
    {
      "channel": 2,
      "note": 76,
      "start": 42.4826,
      "duration": 0.0666,
      "velocity": 107,
      "chip": "ym2612"
    },
    {
      "channel": 3,
      "note": 75,
      "start": 42.4828,
      "duration": 0.0664,
      "velocity": 107,
      "chip": "ym2612"
    },
    {
      "channel": 4,
      "note": 59,
      "start": 42.4831,
      "duration": 0.3997,
      "velocity": 98,
      "chip": "ym2612"
    },
    {
      "channel": 0,
      "note": 59,
      "start": 42.6824,
      "duration": 0.9946,
      "velocity": 101,
      "chip": "ym2612"
    },
    {
      "channel": 1,
      "note": 64,
      "start": 42.6826,
      "duration": 0.1998,
      "velocity": 107,
      "chip": "ym2612"
    },
    {
      "channel": 3,
      "note": 76,
      "start": 42.6829,
      "duration": 0.0662,
      "velocity": 107,
      "chip": "ym2612"
    },
    {
      "channel": 1,
      "note": 64,
      "start": 42.8825,
      "duration": 0.1996,
      "velocity": 107,
      "chip": "ym2612"
    },
    {
      "channel": 4,
      "note": 59,
      "start": 42.8828,
      "duration": 0.811,
      "velocity": 101,
      "chip": "ym2612"
    },
    {
      "channel": 1,
      "note": 56,
      "start": 43.0823,
      "duration": 0.0175,
      "velocity": 107,
      "chip": "ym2612"
    },
    {
      "channel": 2,
      "note": 83,
      "start": 43.0834,
      "duration": 0.0063,
      "velocity": 75,
      "chip": "ym2612"
    },
    {
      "channel": 2,
      "note": 85,
      "start": 43.0912,
      "duration": 0.0059,
      "velocity": 75,
      "chip": "ym2612"
    },
    {
      "channel": 1,
      "note": 56,
      "start": 43.1,
      "duration": 0.1418,
      "velocity": 107,
      "chip": "ym2612"
    },
    {
      "channel": 2,
      "note": 86,
      "start": 43.1003,
      "duration": 0.0083,
      "velocity": 75,
      "chip": "ym2612"
    },
    {
      "channel": 3,
      "note": 83,
      "start": 43.1014,
      "duration": 0.0072,
      "velocity": 75,
      "chip": "ym2612"
    },
    {
      "channel": 2,
      "note": 88,
      "start": 43.1253,
      "duration": 0.0832,
      "velocity": 75,
      "chip": "ym2612"
    },
    {
      "channel": 3,
      "note": 85,
      "start": 43.1256,
      "duration": 0.0829,
      "velocity": 75,
      "chip": "ym2612"
    },
    {
      "channel": 1,
      "note": 59,
      "start": 43.242,
      "duration": 0.2,
      "velocity": 107,
      "chip": "ym2612"
    },
    {
      "channel": 2,
      "note": 86,
      "start": 43.2422,
      "duration": 0.0664,
      "velocity": 75,
      "chip": "ym2612"
    },
    {
      "channel": 3,
      "note": 86,
      "start": 43.2424,
      "duration": 0.0663,
      "velocity": 75,
      "chip": "ym2612"
    },
    {
      "channel": 2,
      "note": 85,
      "start": 43.3254,
      "duration": 0.0832,
      "velocity": 75,
      "chip": "ym2612"
    },
    {
      "channel": 3,
      "note": 88,
      "start": 43.3258,
      "duration": 0.0829,
      "velocity": 75,
      "chip": "ym2612"
    },
    {
      "channel": 1,
      "note": 59,
      "start": 43.4421,
      "duration": 0.2,
      "velocity": 107,
      "chip": "ym2612"
    },
    {
      "channel": 2,
      "note": 83,
      "start": 43.4424,
      "duration": 0.0665,
      "velocity": 75,
      "chip": "ym2612"
    },
    {
      "channel": 3,
      "note": 86,
      "start": 43.4426,
      "duration": 0.0663,
      "velocity": 75,
      "chip": "ym2612"
    },
    {
      "channel": 2,
      "note": 86,
      "start": 43.5258,
      "duration": 0.0832,
      "velocity": 75,
      "chip": "ym2612"
    },
    {
      "channel": 3,
      "note": 85,
      "start": 43.5261,
      "duration": 0.0829,
      "velocity": 75,
      "chip": "ym2612"
    },
    {
      "channel": 1,
      "note": 62,
      "start": 43.6424,
      "duration": 0.0172,
      "velocity": 107,
      "chip": "ym2612"
    },
    {
      "channel": 2,
      "note": 83,
      "start": 43.6427,
      "duration": 0.0062,
      "velocity": 75,
      "chip": "ym2612"
    },
    {
      "channel": 3,
      "note": 83,
      "start": 43.6429,
      "duration": 0.006,
      "velocity": 75,
      "chip": "ym2612"
    },
    {
      "channel": 2,
      "note": 81,
      "start": 43.6505,
      "duration": 0.0062,
      "velocity": 75,
      "chip": "ym2612"
    },
    {
      "channel": 3,
      "note": 86,
      "start": 43.6507,
      "duration": 0.006,
      "velocity": 75,
      "chip": "ym2612"
    },
    {
      "channel": 1,
      "note": 62,
      "start": 43.6598,
      "duration": 0.018,
      "velocity": 107,
      "chip": "ym2612"
    },
    {
      "channel": 2,
      "note": 80,
      "start": 43.66,
      "duration": 0.0066,
      "velocity": 75,
      "chip": "ym2612"
    },
    {
      "channel": 3,
      "note": 83,
      "start": 43.6604,
      "duration": 0.0063,
      "velocity": 75,
      "chip": "ym2612"
    },
    {
      "channel": 3,
      "note": 81,
      "start": 43.6679,
      "duration": 0.0057,
      "velocity": 75,
      "chip": "ym2612"
    },
    {
      "channel": 2,
      "note": 71,
      "start": 43.6791,
      "duration": 0.0056,
      "velocity": 100,
      "chip": "ym2612"
    },
    {
      "channel": 3,
      "note": 71,
      "start": 43.6817,
      "duration": 0.0051,
      "velocity": 107,
      "chip": "ym2612"
    },
    {
      "channel": 2,
      "note": 69,
      "start": 43.6927,
      "duration": 0.0496,
      "velocity": 100,
      "chip": "ym2612"
    },
    {
      "channel": 3,
      "note": 69,
      "start": 43.6949,
      "duration": 0.0808,
      "velocity": 107,
      "chip": "ym2612"
    },
    {
      "channel": 2,
      "note": 66,
      "start": 43.9025,
      "duration": 0.0039,
      "velocity": 100,
      "chip": "ym2612"
    },
    {
      "channel": 3,
      "note": 66,
      "start": 43.9038,
      "duration": 0.0044,
      "velocity": 107,
      "chip": "ym2612"
    },
    {
      "channel": 0,
      "note": 73,
      "start": 44.0175,
      "duration": 0.1996,
      "velocity": 101,
      "chip": "ym2612"
    },
    {
      "channel": 1,
      "note": 52,
      "start": 44.0177,
      "duration": 0.1996,
      "velocity": 107,
      "chip": "ym2612"
    },
    {
      "channel": 0,
      "note": 71,
      "start": 44.2173,
      "duration": 0.2165,
      "velocity": 101,
      "chip": "ym2612"
    },
    {
      "channel": 1,
      "note": 64,
      "start": 44.2176,
      "duration": 0.2164,
      "velocity": 107,
      "chip": "ym2612"
    },
    {
      "channel": 4,
      "note": 73,
      "start": 44.218,
      "duration": 0.2162,
      "velocity": 101,
      "chip": "ym2612"
    },
    {
      "channel": 1,
      "note": 49,
      "start": 44.4341,
      "duration": 0.0127,
      "velocity": 107,
      "chip": "ym2612"
    },
    {
      "channel": 4,
      "note": 71,
      "start": 44.4343,
      "duration": 0.0127,
      "velocity": 101,
      "chip": "ym2612"
    },
    {
      "channel": 0,
      "note": 68,
      "start": 44.4468,
      "duration": 0.1132,
      "velocity": 101,
      "chip": "ym2612"
    },
    {
      "channel": 1,
      "note": 50,
      "start": 44.447,
      "duration": 0.0054,
      "velocity": 107,
      "chip": "ym2612"
    },
    {
      "channel": 1,
      "note": 52,
      "start": 44.4527,
      "duration": 0.1075,
      "velocity": 107,
      "chip": "ym2612"
    },
    {
      "channel": 4,
      "note": 68,
      "start": 44.5605,
      "duration": 0.1995,
      "velocity": 101,
      "chip": "ym2612"
    },
    {
      "channel": 2,
      "note": 64,
      "start": 44.7599,
      "duration": 0.0496,
      "velocity": 100,
      "chip": "ym2612"
    },
    {
      "channel": 3,
      "note": 64,
      "start": 44.7612,
      "duration": 0.0818,
      "velocity": 107,
      "chip": "ym2612"
    },
    {
      "channel": 1,
      "note": 52,
      "start": 44.9597,
      "duration": 0.0124,
      "velocity": 107,
      "chip": "ym2612"
    },
    {
      "channel": 2,
      "note": 68,
      "start": 44.96,
      "duration": 0.0042,
      "velocity": 100,
      "chip": "ym2612"
    },
    {
      "channel": 3,
      "note": 68,
      "start": 44.9614,
      "duration": 0.0051,
      "velocity": 107,
      "chip": "ym2612"
    },
    {
      "channel": 2,
      "note": 71,
      "start": 44.9724,
      "duration": 0.0039,
      "velocity": 100,
      "chip": "ym2612"
    },
    {
      "channel": 3,
      "note": 71,
      "start": 44.9736,
      "duration": 0.0045,
      "velocity": 107,
      "chip": "ym2612"
    },
    {
      "channel": 0,
      "note": 81,
      "start": 45.0863,
      "duration": 0.1997,
      "velocity": 101,
      "chip": "ym2612"
    },
    {
      "channel": 2,
      "note": 69,
      "start": 45.0865,
      "duration": 0.0497,
      "velocity": 100,
      "chip": "ym2612"
    },
    {
      "channel": 3,
      "note": 69,
      "start": 45.0879,
      "duration": 0.0816,
      "velocity": 107,
      "chip": "ym2612"
    },
    {
      "channel": 0,
      "note": 81,
      "start": 45.2863,
      "duration": 0.2165,
      "velocity": 101,
      "chip": "ym2612"
    },
    {
      "channel": 2,
      "note": 66,
      "start": 45.2866,
      "duration": 0.0663,
      "velocity": 100,
      "chip": "ym2612"
    },
    {
      "channel": 4,
      "note": 81,
      "start": 45.287,
      "duration": 0.2166,
      "velocity": 101,
      "chip": "ym2612"
    },
    {
      "channel": 3,
      "note": 66,
      "start": 45.3032,
      "duration": 0.0831,
      "velocity": 107,
      "chip": "ym2612"
    },
    {
      "channel": 0,
      "note": 81,
      "start": 45.5029,
      "duration": 0.1282,
      "velocity": 101,
      "chip": "ym2612"
    },
    {
      "channel": 1,
      "note": 52,
      "start": 45.5032,
      "duration": 0.0156,
      "velocity": 107,
      "chip": "ym2612"
    },
    {
      "channel": 2,
      "note": 62,
      "start": 45.5034,
      "duration": 0.0054,
      "velocity": 100,
      "chip": "ym2612"
    },
    {
      "channel": 4,
      "note": 81,
      "start": 45.5037,
      "duration": 0.0153,
      "velocity": 101,
      "chip": "ym2612"
    },
    {
      "channel": 3,
      "note": 62,
      "start": 45.5053,
      "duration": 0.0061,
      "velocity": 107,
      "chip": "ym2612"
    },
    {
      "channel": 2,
      "note": 64,
      "start": 45.519,
      "duration": 0.0047,
      "velocity": 100,
      "chip": "ym2612"
    },
    {
      "channel": 4,
      "note": 81,
      "start": 45.5192,
      "duration": 0.3124,
      "velocity": 101,
      "chip": "ym2612"
    },
    {
      "channel": 3,
      "note": 64,
      "start": 45.5203,
      "duration": 0.0055,
      "velocity": 107,
      "chip": "ym2612"
    },
    {
      "channel": 2,
      "note": 68,
      "start": 45.6316,
      "duration": 0.0496,
      "velocity": 100,
      "chip": "ym2612"
    },
    {
      "channel": 3,
      "note": 68,
      "start": 45.6329,
      "duration": 0.0817,
      "velocity": 107,
      "chip": "ym2612"
    },
    {
      "channel": 1,
      "note": 64,
      "start": 45.8314,
      "duration": 0.1995,
      "velocity": 107,
      "chip": "ym2612"
    },
    {
      "channel": 2,
      "note": 71,
      "start": 45.8316,
      "duration": 0.0494,
      "velocity": 100,
      "chip": "ym2612"
    },
    {
      "channel": 3,
      "note": 71,
      "start": 45.8328,
      "duration": 0.0815,
      "velocity": 107,
      "chip": "ym2612"
    },
    {
      "channel": 1,
      "note": 52,
      "start": 46.0311,
      "duration": 0.0186,
      "velocity": 107,
      "chip": "ym2612"
    },
    {
      "channel": 2,
      "note": 69,
      "start": 46.0313,
      "duration": 0.0042,
      "velocity": 100,
      "chip": "ym2612"
    },
    {
      "channel": 3,
      "note": 69,
      "start": 46.0326,
      "duration": 0.0049,
      "velocity": 107,
      "chip": "ym2612"
    },
    {
      "channel": 2,
      "note": 66,
      "start": 46.0433,
      "duration": 0.0044,
      "velocity": 100,
      "chip": "ym2612"
    },
    {
      "channel": 3,
      "note": 66,
      "start": 46.0446,
      "duration": 0.0051,
      "velocity": 107,
      "chip": "ym2612"
    },
    {
      "channel": 1,
      "note": 52,
      "start": 46.1575,
      "duration": 0.1998,
      "velocity": 107,
      "chip": "ym2612"
    },
    {
      "channel": 2,
      "note": 62,
      "start": 46.1578,
      "duration": 0.0496,
      "velocity": 100,
      "chip": "ym2612"
    },
    {
      "channel": 3,
      "note": 62,
      "start": 46.1591,
      "duration": 0.082,
      "velocity": 107,
      "chip": "ym2612"
    },
    {
      "channel": 2,
      "note": 63,
      "start": 46.241,
      "duration": 0.0666,
      "velocity": 100,
      "chip": "ym2612"
    },
    {
      "channel": 3,
      "note": 63,
      "start": 46.2578,
      "duration": 0.0831,
      "velocity": 107,
      "chip": "ym2612"
    },
    {
      "channel": 2,
      "note": 64,
      "start": 46.3578,
      "duration": 0.0662,
      "velocity": 100,
      "chip": "ym2612"
    },
    {
      "channel": 3,
      "note": 64,
      "start": 46.3744,
      "duration": 0.0831,
      "velocity": 107,
      "chip": "ym2612"
    },
    {
      "channel": 2,
      "note": 68,
      "start": 46.5745,
      "duration": 0.0039,
      "velocity": 100,
      "chip": "ym2612"
    },
    {
      "channel": 3,
      "note": 68,
      "start": 46.5756,
      "duration": 0.0045,
      "velocity": 107,
      "chip": "ym2612"
    },
    {
      "channel": 0,
      "note": 86,
      "start": 46.5853,
      "duration": 0.115,
      "velocity": 101,
      "chip": "ym2612"
    },
    {
      "channel": 2,
      "note": 71,
      "start": 46.5856,
      "duration": 0.0042,
      "velocity": 100,
      "chip": "ym2612"
    },
    {
      "channel": 3,
      "note": 71,
      "start": 46.5869,
      "duration": 0.0049,
      "velocity": 107,
      "chip": "ym2612"
    },
    {
      "channel": 0,
      "note": 88,
      "start": 46.7003,
      "duration": 0.5095,
      "velocity": 101,
      "chip": "ym2612"
    },
    {
      "channel": 1,
      "note": 52,
      "start": 46.7005,
      "duration": 0.0829,
      "velocity": 107,
      "chip": "ym2612"
    },
    {
      "channel": 4,
      "note": 86,
      "start": 46.7009,
      "duration": 0.1825,
      "velocity": 101,
      "chip": "ym2612"
    },
    {
      "channel": 1,
      "note": 64,
      "start": 46.7835,
      "duration": 0.0995,
      "velocity": 107,
      "chip": "ym2612"
    },
    {
      "channel": 1,
      "note": 49,
      "start": 46.8833,
      "duration": 0.1995,
      "velocity": 107,
      "chip": "ym2612"
    },
    {
      "channel": 4,
      "note": 88,
      "start": 46.8834,
      "duration": 0.5274,
      "velocity": 101,
      "chip": "ym2612"
    },
    {
      "channel": 1,
      "note": 50,
      "start": 47.083,
      "duration": 0.0133,
      "velocity": 107,
      "chip": "ym2612"
    },
    {
      "channel": 1,
      "note": 51,
      "start": 47.0965,
      "duration": 0.1132,
      "velocity": 107,
      "chip": "ym2612"
    },
    {
      "channel": 0,
      "note": 88,
      "start": 47.2097,
      "duration": 0.4413,
      "velocity": 101,
      "chip": "ym2612"
    },
    {
      "channel": 1,
      "note": 52,
      "start": 47.21,
      "duration": 0.1999,
      "velocity": 107,
      "chip": "ym2612"
    },
    {
      "channel": 2,
      "note": 68,
      "start": 47.211,
      "duration": 0.1992,
      "velocity": 97,
      "chip": "ym2612"
    },
    {
      "channel": 3,
      "note": 68,
      "start": 47.2133,
      "duration": 0.2135,
      "velocity": 107,
      "chip": "ym2612"
    },
    {
      "channel": 1,
      "note": 54,
      "start": 47.4101,
      "duration": 0.2166,
      "velocity": 107,
      "chip": "ym2612"
    },
    {
      "channel": 2,
      "note": 69,
      "start": 47.4104,
      "duration": 0.2165,
      "velocity": 97,
      "chip": "ym2612"
    },
    {
      "channel": 4,
      "note": 88,
      "start": 47.4108,
      "duration": 0.4289,
      "velocity": 101,
      "chip": "ym2612"
    },
    {
      "channel": 3,
      "note": 69,
      "start": 47.4271,
      "duration": 0.2015,
      "velocity": 107,
      "chip": "ym2612"
    },
    {
      "channel": 1,
      "note": 55,
      "start": 47.6269,
      "duration": 0.0165,
      "velocity": 107,
      "chip": "ym2612"
    },
    {
      "channel": 2,
      "note": 70,
      "start": 47.6271,
      "duration": 0.0165,
      "velocity": 97,
      "chip": "ym2612"
    },
    {
      "channel": 3,
      "note": 70,
      "start": 47.6288,
      "duration": 0.0165,
      "velocity": 107,
      "chip": "ym2612"
    },
    {
      "channel": 1,
      "note": 56,
      "start": 47.6435,
      "duration": 0.1138,
      "velocity": 107,
      "chip": "ym2612"
    },
    {
      "channel": 2,
      "note": 71,
      "start": 47.6438,
      "duration": 0.1146,
      "velocity": 100,
      "chip": "ym2612"
    },
    {
      "channel": 3,
      "note": 71,
      "start": 47.6453,
      "duration": 0.1154,
      "velocity": 107,
      "chip": "ym2612"
    },
    {
      "channel": 0,
      "note": 87,
      "start": 47.651,
      "duration": 0.0048,
      "velocity": 101,
      "chip": "ym2612"
    },
    {
      "channel": 0,
      "note": 86,
      "start": 47.6558,
      "duration": 0.0166,
      "velocity": 101,
      "chip": "ym2612"
    },
    {
      "channel": 0,
      "note": 85,
      "start": 47.6724,
      "duration": 0.0167,
      "velocity": 101,
      "chip": "ym2612"
    },
    {
      "channel": 0,
      "note": 84,
      "start": 47.6892,
      "duration": 0.0167,
      "velocity": 101,
      "chip": "ym2612"
    },
    {
      "channel": 0,
      "note": 83,
      "start": 47.7058,
      "duration": 0.0167,
      "velocity": 101,
      "chip": "ym2612"
    },
    {
      "channel": 0,
      "note": 82,
      "start": 47.7225,
      "duration": 0.034,
      "velocity": 101,
      "chip": "ym2612"
    },
    {
      "channel": 2,
      "note": 71,
      "start": 47.7585,
      "duration": 0.0476,
      "velocity": 100,
      "chip": "ym2612"
    },
    {
      "channel": 3,
      "note": 71,
      "start": 47.7609,
      "duration": 0.0786,
      "velocity": 107,
      "chip": "ym2612"
    },
    {
      "channel": 4,
      "note": 87,
      "start": 47.8397,
      "duration": 0.0166,
      "velocity": 101,
      "chip": "ym2612"
    },
    {
      "channel": 4,
      "note": 86,
      "start": 47.8563,
      "duration": 0.0167,
      "velocity": 101,
      "chip": "ym2612"
    },
    {
      "channel": 4,
      "note": 85,
      "start": 47.873,
      "duration": 0.0167,
      "velocity": 101,
      "chip": "ym2612"
    },
    {
      "channel": 4,
      "note": 84,
      "start": 47.8897,
      "duration": 0.0166,
      "velocity": 101,
      "chip": "ym2612"
    },
    {
      "channel": 4,
      "note": 83,
      "start": 47.9063,
      "duration": 0.0167,
      "velocity": 101,
      "chip": "ym2612"
    },
    {
      "channel": 4,
      "note": 82,
      "start": 47.923,
      "duration": 0.0342,
      "velocity": 101,
      "chip": "ym2612"
    },
    {
      "channel": 2,
      "note": 69,
      "start": 47.9564,
      "duration": 0.0496,
      "velocity": 100,
      "chip": "ym2612"
    },
    {
      "channel": 3,
      "note": 69,
      "start": 47.9585,
      "duration": 0.0808,
      "velocity": 107,
      "chip": "ym2612"
    },
    {
      "channel": 2,
      "note": 66,
      "start": 48.1661,
      "duration": 0.0037,
      "velocity": 100,
      "chip": "ym2612"
    },
    {
      "channel": 3,
      "note": 66,
      "start": 48.1672,
      "duration": 0.0044,
      "velocity": 107,
      "chip": "ym2612"
    },
    {
      "channel": 0,
      "note": 73,
      "start": 48.281,
      "duration": 0.1996,
      "velocity": 101,
      "chip": "ym2612"
    },
    {
      "channel": 1,
      "note": 52,
      "start": 48.2812,
      "duration": 0.1997,
      "velocity": 107,
      "chip": "ym2612"
    },
    {
      "channel": 0,
      "note": 71,
      "start": 48.4808,
      "duration": 0.2164,
      "velocity": 101,
      "chip": "ym2612"
    },
    {
      "channel": 1,
      "note": 64,
      "start": 48.4811,
      "duration": 0.2162,
      "velocity": 107,
      "chip": "ym2612"
    },
    {
      "channel": 4,
      "note": 73,
      "start": 48.4816,
      "duration": 0.216,
      "velocity": 101,
      "chip": "ym2612"
    },
    {
      "channel": 1,
      "note": 49,
      "start": 48.6975,
      "duration": 0.0124,
      "velocity": 107,
      "chip": "ym2612"
    },
    {
      "channel": 4,
      "note": 71,
      "start": 48.6977,
      "duration": 0.0124,
      "velocity": 101,
      "chip": "ym2612"
    },
    {
      "channel": 0,
      "note": 68,
      "start": 48.7099,
      "duration": 0.1134,
      "velocity": 101,
      "chip": "ym2612"
    },
    {
      "channel": 1,
      "note": 50,
      "start": 48.7101,
      "duration": 0.0055,
      "velocity": 107,
      "chip": "ym2612"
    },
    {
      "channel": 1,
      "note": 52,
      "start": 48.7157,
      "duration": 0.1077,
      "velocity": 107,
      "chip": "ym2612"
    },
    {
      "channel": 4,
      "note": 68,
      "start": 48.8237,
      "duration": 0.1995,
      "velocity": 101,
      "chip": "ym2612"
    },
    {
      "channel": 2,
      "note": 64,
      "start": 49.0232,
      "duration": 0.0496,
      "velocity": 100,
      "chip": "ym2612"
    },
    {
      "channel": 3,
      "note": 64,
      "start": 49.0244,
      "duration": 0.0818,
      "velocity": 107,
      "chip": "ym2612"
    },
    {
      "channel": 1,
      "note": 52,
      "start": 49.223,
      "duration": 0.0124,
      "velocity": 107,
      "chip": "ym2612"
    },
    {
      "channel": 2,
      "note": 68,
      "start": 49.2233,
      "duration": 0.0042,
      "velocity": 100,
      "chip": "ym2612"
    },
    {
      "channel": 3,
      "note": 68,
      "start": 49.2247,
      "duration": 0.0051,
      "velocity": 107,
      "chip": "ym2612"
    },
    {
      "channel": 2,
      "note": 71,
      "start": 49.2357,
      "duration": 0.0039,
      "velocity": 100,
      "chip": "ym2612"
    },
    {
      "channel": 3,
      "note": 71,
      "start": 49.2369,
      "duration": 0.0045,
      "velocity": 107,
      "chip": "ym2612"
    },
    {
      "channel": 0,
      "note": 81,
      "start": 49.3496,
      "duration": 0.1997,
      "velocity": 101,
      "chip": "ym2612"
    },
    {
      "channel": 2,
      "note": 69,
      "start": 49.3498,
      "duration": 0.0497,
      "velocity": 100,
      "chip": "ym2612"
    },
    {
      "channel": 3,
      "note": 69,
      "start": 49.3512,
      "duration": 0.0816,
      "velocity": 107,
      "chip": "ym2612"
    },
    {
      "channel": 0,
      "note": 81,
      "start": 49.5496,
      "duration": 0.2165,
      "velocity": 101,
      "chip": "ym2612"
    },
    {
      "channel": 2,
      "note": 66,
      "start": 49.5499,
      "duration": 0.0663,
      "velocity": 100,
      "chip": "ym2612"
    },
    {
      "channel": 4,
      "note": 81,
      "start": 49.5502,
      "duration": 0.2166,
      "velocity": 101,
      "chip": "ym2612"
    },
    {
      "channel": 3,
      "note": 66,
      "start": 49.5665,
      "duration": 0.0831,
      "velocity": 107,
      "chip": "ym2612"
    },
    {
      "channel": 0,
      "note": 81,
      "start": 49.7662,
      "duration": 0.1285,
      "velocity": 101,
      "chip": "ym2612"
    },
    {
      "channel": 1,
      "note": 52,
      "start": 49.7664,
      "duration": 0.0154,
      "velocity": 107,
      "chip": "ym2612"
    },
    {
      "channel": 2,
      "note": 62,
      "start": 49.7667,
      "duration": 0.0054,
      "velocity": 100,
      "chip": "ym2612"
    },
    {
      "channel": 4,
      "note": 81,
      "start": 49.767,
      "duration": 0.0152,
      "velocity": 101,
      "chip": "ym2612"
    },
    {
      "channel": 3,
      "note": 62,
      "start": 49.7686,
      "duration": 0.0059,
      "velocity": 107,
      "chip": "ym2612"
    },
    {
      "channel": 2,
      "note": 64,
      "start": 49.7821,
      "duration": 0.0047,
      "velocity": 100,
      "chip": "ym2612"
    },
    {
      "channel": 4,
      "note": 81,
      "start": 49.7823,
      "duration": 0.3129,
      "velocity": 101,
      "chip": "ym2612"
    },
    {
      "channel": 3,
      "note": 64,
      "start": 49.7837,
      "duration": 0.0054,
      "velocity": 107,
      "chip": "ym2612"
    },
    {
      "channel": 2,
      "note": 68,
      "start": 49.8951,
      "duration": 0.0495,
      "velocity": 100,
      "chip": "ym2612"
    },
    {
      "channel": 3,
      "note": 68,
      "start": 49.8963,
      "duration": 0.0818,
      "velocity": 107,
      "chip": "ym2612"
    },
    {
      "channel": 1,
      "note": 64,
      "start": 50.0949,
      "duration": 0.1995,
      "velocity": 107,
      "chip": "ym2612"
    },
    {
      "channel": 2,
      "note": 71,
      "start": 50.0951,
      "duration": 0.0494,
      "velocity": 100,
      "chip": "ym2612"
    },
    {
      "channel": 3,
      "note": 71,
      "start": 50.0964,
      "duration": 0.0816,
      "velocity": 107,
      "chip": "ym2612"
    },
    {
      "channel": 1,
      "note": 52,
      "start": 50.2946,
      "duration": 0.0188,
      "velocity": 107,
      "chip": "ym2612"
    },
    {
      "channel": 2,
      "note": 69,
      "start": 50.2949,
      "duration": 0.0044,
      "velocity": 100,
      "chip": "ym2612"
    },
    {
      "channel": 3,
      "note": 69,
      "start": 50.2962,
      "duration": 0.005,
      "velocity": 107,
      "chip": "ym2612"
    },
    {
      "channel": 2,
      "note": 66,
      "start": 50.3073,
      "duration": 0.0041,
      "velocity": 100,
      "chip": "ym2612"
    },
    {
      "channel": 3,
      "note": 66,
      "start": 50.3086,
      "duration": 0.005,
      "velocity": 107,
      "chip": "ym2612"
    },
    {
      "channel": 1,
      "note": 52,
      "start": 50.4212,
      "duration": 0.1997,
      "velocity": 107,
      "chip": "ym2612"
    },
    {
      "channel": 2,
      "note": 62,
      "start": 50.4213,
      "duration": 0.0496,
      "velocity": 100,
      "chip": "ym2612"
    },
    {
      "channel": 3,
      "note": 62,
      "start": 50.4227,
      "duration": 0.0819,
      "velocity": 107,
      "chip": "ym2612"
    },
    {
      "channel": 2,
      "note": 63,
      "start": 50.5045,
      "duration": 0.0666,
      "velocity": 100,
      "chip": "ym2612"
    },
    {
      "channel": 3,
      "note": 63,
      "start": 50.5213,
      "duration": 0.0832,
      "velocity": 107,
      "chip": "ym2612"
    },
    {
      "channel": 2,
      "note": 64,
      "start": 50.6213,
      "duration": 0.0663,
      "velocity": 100,
      "chip": "ym2612"
    },
    {
      "channel": 3,
      "note": 64,
      "start": 50.6379,
      "duration": 0.0831,
      "velocity": 107,
      "chip": "ym2612"
    },
    {
      "channel": 2,
      "note": 68,
      "start": 50.8379,
      "duration": 0.0037,
      "velocity": 100,
      "chip": "ym2612"
    },
    {
      "channel": 3,
      "note": 68,
      "start": 50.8391,
      "duration": 0.0044,
      "velocity": 107,
      "chip": "ym2612"
    },
    {
      "channel": 2,
      "note": 71,
      "start": 50.8487,
      "duration": 0.0041,
      "velocity": 100,
      "chip": "ym2612"
    },
    {
      "channel": 3,
      "note": 71,
      "start": 50.8499,
      "duration": 0.0046,
      "velocity": 107,
      "chip": "ym2612"
    },
    {
      "channel": 1,
      "note": 52,
      "start": 50.9634,
      "duration": 0.0828,
      "velocity": 107,
      "chip": "ym2612"
    },
    {
      "channel": 1,
      "note": 64,
      "start": 51.0464,
      "duration": 0.0997,
      "velocity": 107,
      "chip": "ym2612"
    },
    {
      "channel": 0,
      "note": 86,
      "start": 51.146,
      "duration": 0.1995,
      "velocity": 101,
      "chip": "ym2612"
    },
    {
      "channel": 1,
      "note": 49,
      "start": 51.1462,
      "duration": 0.1996,
      "velocity": 107,
      "chip": "ym2612"
    },
    {
      "channel": 0,
      "note": 86,
      "start": 51.3457,
      "duration": 0.0068,
      "velocity": 101,
      "chip": "ym2612"
    },
    {
      "channel": 1,
      "note": 50,
      "start": 51.346,
      "duration": 0.0144,
      "velocity": 107,
      "chip": "ym2612"
    },
    {
      "channel": 4,
      "note": 86,
      "start": 51.3462,
      "duration": 0.0145,
      "velocity": 101,
      "chip": "ym2612"
    },
    {
      "channel": 0,
      "note": 85,
      "start": 51.3527,
      "duration": 0.0074,
      "velocity": 101,
      "chip": "ym2612"
    },
    {
      "channel": 0,
      "note": 83,
      "start": 51.3603,
      "duration": 0.1129,
      "velocity": 101,
      "chip": "ym2612"
    },
    {
      "channel": 1,
      "note": 51,
      "start": 51.3606,
      "duration": 0.1127,
      "velocity": 107,
      "chip": "ym2612"
    },
    {
      "channel": 4,
      "note": 86,
      "start": 51.3608,
      "duration": 0.0062,
      "velocity": 101,
      "chip": "ym2612"
    },
    {
      "channel": 4,
      "note": 85,
      "start": 51.3672,
      "duration": 0.1075,
      "velocity": 101,
      "chip": "ym2612"
    },
    {
      "channel": 1,
      "note": 52,
      "start": 51.4735,
      "duration": 0.2001,
      "velocity": 107,
      "chip": "ym2612"
    },
    {
      "channel": 2,
      "note": 68,
      "start": 51.4746,
      "duration": 0.1992,
      "velocity": 97,
      "chip": "ym2612"
    },
    {
      "channel": 4,
      "note": 83,
      "start": 51.4749,
      "duration": 0.1992,
      "velocity": 101,
      "chip": "ym2612"
    },
    {
      "channel": 3,
      "note": 68,
      "start": 51.4769,
      "duration": 0.1982,
      "velocity": 107,
      "chip": "ym2612"
    },
    {
      "channel": 1,
      "note": 54,
      "start": 51.6737,
      "duration": 0.1997,
      "velocity": 107,
      "chip": "ym2612"
    },
    {
      "channel": 2,
      "note": 69,
      "start": 51.674,
      "duration": 0.1998,
      "velocity": 97,
      "chip": "ym2612"
    },
    {
      "channel": 3,
      "note": 69,
      "start": 51.6753,
      "duration": 0.2001,
      "velocity": 107,
      "chip": "ym2612"
    },
    {
      "channel": 1,
      "note": 55,
      "start": 51.8736,
      "duration": 0.0147,
      "velocity": 107,
      "chip": "ym2612"
    },
    {
      "channel": 2,
      "note": 70,
      "start": 51.874,
      "duration": 0.0146,
      "velocity": 97,
      "chip": "ym2612"
    },
    {
      "channel": 3,
      "note": 70,
      "start": 51.8755,
      "duration": 0.0142,
      "velocity": 107,
      "chip": "ym2612"
    },
    {
      "channel": 1,
      "note": 56,
      "start": 51.8885,
      "duration": 0.1154,
      "velocity": 107,
      "chip": "ym2612"
    },
    {
      "channel": 2,
      "note": 71,
      "start": 51.8887,
      "duration": 0.1167,
      "velocity": 100,
      "chip": "ym2612"
    },
    {
      "channel": 3,
      "note": 71,
      "start": 51.8899,
      "duration": 0.1298,
      "velocity": 107,
      "chip": "ym2612"
    },
    {
      "channel": 2,
      "note": 71,
      "start": 52.0056,
      "duration": 0.0628,
      "velocity": 100,
      "chip": "ym2612"
    },
    {
      "channel": 3,
      "note": 71,
      "start": 52.0199,
      "duration": 0.0818,
      "velocity": 107,
      "chip": "ym2612"
    },
    {
      "channel": 2,
      "note": 69,
      "start": 52.2186,
      "duration": 0.0664,
      "velocity": 100,
      "chip": "ym2612"
    },
    {
      "channel": 3,
      "note": 69,
      "start": 52.2354,
      "duration": 0.083,
      "velocity": 107,
      "chip": "ym2612"
    },
    {
      "channel": 2,
      "note": 66,
      "start": 52.6519,
      "duration": 0.0664,
      "velocity": 100,
      "chip": "ym2612"
    },
    {
      "channel": 3,
      "note": 66,
      "start": 52.6687,
      "duration": 0.0829,
      "velocity": 107,
      "chip": "ym2612"
    },
    {
      "channel": 0,
      "note": 73,
      "start": 52.8685,
      "duration": 0.1055,
      "velocity": 101,
      "chip": "ym2612"
    },
    {
      "channel": 1,
      "note": 52,
      "start": 52.8688,
      "duration": 0.1055,
      "velocity": 107,
      "chip": "ym2612"
    },
    {
      "channel": 0,
      "note": 71,
      "start": 52.9742,
      "duration": 0.1993,
      "velocity": 101,
      "chip": "ym2612"
    },
    {
      "channel": 1,
      "note": 64,
      "start": 52.9745,
      "duration": 0.1992,
      "velocity": 107,
      "chip": "ym2612"
    },
    {
      "channel": 4,
      "note": 73,
      "start": 52.975,
      "duration": 0.199,
      "velocity": 101,
      "chip": "ym2612"
    },
    {
      "channel": 1,
      "note": 49,
      "start": 53.1739,
      "duration": 0.0123,
      "velocity": 107,
      "chip": "ym2612"
    },
    {
      "channel": 4,
      "note": 71,
      "start": 53.1742,
      "duration": 0.0122,
      "velocity": 101,
      "chip": "ym2612"
    },
    {
      "channel": 0,
      "note": 68,
      "start": 53.1861,
      "duration": 0.1995,
      "velocity": 101,
      "chip": "ym2612"
    },
    {
      "channel": 1,
      "note": 50,
      "start": 53.1863,
      "duration": 0.0827,
      "velocity": 107,
      "chip": "ym2612"
    },
    {
      "channel": 1,
      "note": 52,
      "start": 53.2692,
      "duration": 0.1166,
      "velocity": 107,
      "chip": "ym2612"
    },
    {
      "channel": 4,
      "note": 68,
      "start": 53.3865,
      "duration": 0.2162,
      "velocity": 101,
      "chip": "ym2612"
    },
    {
      "channel": 2,
      "note": 64,
      "start": 53.6026,
      "duration": 0.0664,
      "velocity": 100,
      "chip": "ym2612"
    },
    {
      "channel": 3,
      "note": 64,
      "start": 53.6193,
      "duration": 0.0831,
      "velocity": 107,
      "chip": "ym2612"
    },
    {
      "channel": 1,
      "note": 52,
      "start": 53.8192,
      "duration": 0.2164,
      "velocity": 107,
      "chip": "ym2612"
    },
    {
      "channel": 2,
      "note": 68,
      "start": 53.8195,
      "duration": 0.0662,
      "velocity": 100,
      "chip": "ym2612"
    },
    {
      "channel": 3,
      "note": 68,
      "start": 53.8361,
      "duration": 0.0829,
      "velocity": 107,
      "chip": "ym2612"
    },
    {
      "channel": 2,
      "note": 71,
      "start": 54.0361,
      "duration": 0.0662,
      "velocity": 100,
      "chip": "ym2612"
    },
    {
      "channel": 3,
      "note": 71,
      "start": 54.0527,
      "duration": 0.083,
      "velocity": 107,
      "chip": "ym2612"
    },
    {
      "channel": 0,
      "note": 81,
      "start": 54.2526,
      "duration": 0.2163,
      "velocity": 101,
      "chip": "ym2612"
    },
    {
      "channel": 2,
      "note": 69,
      "start": 54.253,
      "duration": 0.0662,
      "velocity": 100,
      "chip": "ym2612"
    },
    {
      "channel": 3,
      "note": 69,
      "start": 54.2695,
      "duration": 0.0829,
      "velocity": 107,
      "chip": "ym2612"
    },
    {
      "channel": 0,
      "note": 81,
      "start": 54.4692,
      "duration": 0.2165,
      "velocity": 101,
      "chip": "ym2612"
    },
    {
      "channel": 2,
      "note": 66,
      "start": 54.4695,
      "duration": 0.0663,
      "velocity": 100,
      "chip": "ym2612"
    },
    {
      "channel": 4,
      "note": 81,
      "start": 54.4699,
      "duration": 0.2168,
      "velocity": 101,
      "chip": "ym2612"
    },
    {
      "channel": 3,
      "note": 66,
      "start": 54.4861,
      "duration": 0.0832,
      "velocity": 107,
      "chip": "ym2612"
    },
    {
      "channel": 0,
      "note": 81,
      "start": 54.6858,
      "duration": 0.4331,
      "velocity": 101,
      "chip": "ym2612"
    },
    {
      "channel": 1,
      "note": 52,
      "start": 54.6861,
      "duration": 0.2163,
      "velocity": 107,
      "chip": "ym2612"
    },
    {
      "channel": 2,
      "note": 62,
      "start": 54.6865,
      "duration": 0.0661,
      "velocity": 100,
      "chip": "ym2612"
    },
    {
      "channel": 4,
      "note": 81,
      "start": 54.6868,
      "duration": 0.2161,
      "velocity": 101,
      "chip": "ym2612"
    },
    {
      "channel": 3,
      "note": 62,
      "start": 54.7029,
      "duration": 0.083,
      "velocity": 107,
      "chip": "ym2612"
    },
    {
      "channel": 2,
      "note": 64,
      "start": 54.9028,
      "duration": 0.0662,
      "velocity": 100,
      "chip": "ym2612"
    },
    {
      "channel": 4,
      "note": 81,
      "start": 54.9032,
      "duration": 0.4331,
      "velocity": 101,
      "chip": "ym2612"
    },
    {
      "channel": 3,
      "note": 64,
      "start": 54.9194,
      "duration": 0.083,
      "velocity": 107,
      "chip": "ym2612"
    },
    {
      "channel": 2,
      "note": 68,
      "start": 55.1195,
      "duration": 0.0661,
      "velocity": 100,
      "chip": "ym2612"
    },
    {
      "channel": 3,
      "note": 68,
      "start": 55.1361,
      "duration": 0.083,
      "velocity": 107,
      "chip": "ym2612"
    },
    {
      "channel": 1,
      "note": 64,
      "start": 55.3359,
      "duration": 0.2163,
      "velocity": 107,
      "chip": "ym2612"
    },
    {
      "channel": 2,
      "note": 71,
      "start": 55.3361,
      "duration": 0.0662,
      "velocity": 100,
      "chip": "ym2612"
    },
    {
      "channel": 3,
      "note": 71,
      "start": 55.3527,
      "duration": 0.0831,
      "velocity": 107,
      "chip": "ym2612"
    },
    {
      "channel": 1,
      "note": 52,
      "start": 55.5525,
      "duration": 0.3165,
      "velocity": 107,
      "chip": "ym2612"
    },
    {
      "channel": 2,
      "note": 69,
      "start": 55.5528,
      "duration": 0.0663,
      "velocity": 100,
      "chip": "ym2612"
    },
    {
      "channel": 3,
      "note": 69,
      "start": 55.5694,
      "duration": 0.083,
      "velocity": 107,
      "chip": "ym2612"
    },
    {
      "channel": 2,
      "note": 66,
      "start": 55.7693,
      "duration": 0.0665,
      "velocity": 100,
      "chip": "ym2612"
    },
    {
      "channel": 3,
      "note": 66,
      "start": 55.7862,
      "duration": 0.083,
      "velocity": 107,
      "chip": "ym2612"
    },
    {
      "channel": 1,
      "note": 52,
      "start": 55.986,
      "duration": 0.2162,
      "velocity": 107,
      "chip": "ym2612"
    },
    {
      "channel": 2,
      "note": 62,
      "start": 55.9863,
      "duration": 0.066,
      "velocity": 100,
      "chip": "ym2612"
    },
    {
      "channel": 3,
      "note": 62,
      "start": 56.0027,
      "duration": 0.0833,
      "velocity": 107,
      "chip": "ym2612"
    },
    {
      "channel": 2,
      "note": 63,
      "start": 56.0859,
      "duration": 0.0666,
      "velocity": 100,
      "chip": "ym2612"
    },
    {
      "channel": 3,
      "note": 63,
      "start": 56.1027,
      "duration": 0.0832,
      "velocity": 107,
      "chip": "ym2612"
    },
    {
      "channel": 2,
      "note": 64,
      "start": 56.2027,
      "duration": 0.0663,
      "velocity": 100,
      "chip": "ym2612"
    },
    {
      "channel": 3,
      "note": 64,
      "start": 56.2193,
      "duration": 0.0831,
      "velocity": 107,
      "chip": "ym2612"
    },
    {
      "channel": 2,
      "note": 68,
      "start": 56.4194,
      "duration": 0.0662,
      "velocity": 100,
      "chip": "ym2612"
    },
    {
      "channel": 3,
      "note": 68,
      "start": 56.4361,
      "duration": 0.083,
      "velocity": 107,
      "chip": "ym2612"
    },
    {
      "channel": 2,
      "note": 71,
      "start": 56.6359,
      "duration": 0.0664,
      "velocity": 100,
      "chip": "ym2612"
    },
    {
      "channel": 3,
      "note": 71,
      "start": 56.6527,
      "duration": 0.083,
      "velocity": 107,
      "chip": "ym2612"
    },
    {
      "channel": 0,
      "note": 86,
      "start": 56.8526,
      "duration": 0.1826,
      "velocity": 101,
      "chip": "ym2612"
    },
    {
      "channel": 1,
      "note": 52,
      "start": 56.8527,
      "duration": 0.0829,
      "velocity": 107,
      "chip": "ym2612"
    },
    {
      "channel": 1,
      "note": 64,
      "start": 56.9359,
      "duration": 0.0996,
      "velocity": 107,
      "chip": "ym2612"
    },
    {
      "channel": 0,
      "note": 88,
      "start": 57.0354,
      "duration": 0.0998,
      "velocity": 101,
      "chip": "ym2612"
    },
    {
      "channel": 1,
      "note": 49,
      "start": 57.0357,
      "duration": 0.1079,
      "velocity": 107,
      "chip": "ym2612"
    },
    {
      "channel": 4,
      "note": 86,
      "start": 57.0361,
      "duration": 0.1078,
      "velocity": 101,
      "chip": "ym2612"
    },
    {
      "channel": 0,
      "note": 86,
      "start": 57.1353,
      "duration": 0.0911,
      "velocity": 101,
      "chip": "ym2612"
    },
    {
      "channel": 1,
      "note": 50,
      "start": 57.1438,
      "duration": 0.1995,
      "velocity": 107,
      "chip": "ym2612"
    },
    {
      "channel": 4,
      "note": 88,
      "start": 57.144,
      "duration": 0.083,
      "velocity": 101,
      "chip": "ym2612"
    },
    {
      "channel": 0,
      "note": 88,
      "start": 57.2266,
      "duration": 0.1165,
      "velocity": 101,
      "chip": "ym2612"
    },
    {
      "channel": 4,
      "note": 86,
      "start": 57.2272,
      "duration": 0.1226,
      "velocity": 101,
      "chip": "ym2612"
    },
    {
      "channel": 0,
      "note": 86,
      "start": 57.3433,
      "duration": 0.1058,
      "velocity": 101,
      "chip": "ym2612"
    },
    {
      "channel": 1,
      "note": 51,
      "start": 57.3436,
      "duration": 0.1058,
      "velocity": 107,
      "chip": "ym2612"
    },
    {
      "channel": 4,
      "note": 88,
      "start": 57.35,
      "duration": 0.101,
      "velocity": 101,
      "chip": "ym2612"
    },
    {
      "channel": 0,
      "note": 88,
      "start": 57.4492,
      "duration": 0.0999,
      "velocity": 101,
      "chip": "ym2612"
    },
    {
      "channel": 1,
      "note": 52,
      "start": 57.4495,
      "duration": 0.1082,
      "velocity": 107,
      "chip": "ym2612"
    },
    {
      "channel": 2,
      "note": 68,
      "start": 57.4509,
      "duration": 0.1071,
      "velocity": 97,
      "chip": "ym2612"
    },
    {
      "channel": 4,
      "note": 86,
      "start": 57.4513,
      "duration": 0.1069,
      "velocity": 101,
      "chip": "ym2612"
    },
    {
      "channel": 3,
      "note": 68,
      "start": 57.4673,
      "duration": 0.0924,
      "velocity": 107,
      "chip": "ym2612"
    },
    {
      "channel": 0,
      "note": 86,
      "start": 57.5493,
      "duration": 0.0918,
      "velocity": 101,
      "chip": "ym2612"
    },
    {
      "channel": 1,
      "note": 54,
      "start": 57.5579,
      "duration": 0.2003,
      "velocity": 107,
      "chip": "ym2612"
    },
    {
      "channel": 2,
      "note": 69,
      "start": 57.5581,
      "duration": 0.2002,
      "velocity": 97,
      "chip": "ym2612"
    },
    {
      "channel": 4,
      "note": 88,
      "start": 57.5584,
      "duration": 0.0834,
      "velocity": 101,
      "chip": "ym2612"
    },
    {
      "channel": 3,
      "note": 69,
      "start": 57.5599,
      "duration": 0.2001,
      "velocity": 107,
      "chip": "ym2612"
    },
    {
      "channel": 0,
      "note": 88,
      "start": 57.6413,
      "duration": 0.1166,
      "velocity": 101,
      "chip": "ym2612"
    },
    {
      "channel": 4,
      "note": 86,
      "start": 57.6421,
      "duration": 0.1244,
      "velocity": 101,
      "chip": "ym2612"
    },
    {
      "channel": 0,
      "note": 86,
      "start": 57.758,
      "duration": 0.0175,
      "velocity": 101,
      "chip": "ym2612"
    },
    {
      "channel": 1,
      "note": 55,
      "start": 57.7583,
      "duration": 0.0175,
      "velocity": 107,
      "chip": "ym2612"
    },
    {
      "channel": 2,
      "note": 70,
      "start": 57.7585,
      "duration": 0.0176,
      "velocity": 97,
      "chip": "ym2612"
    },
    {
      "channel": 3,
      "note": 70,
      "start": 57.7603,
      "duration": 0.0178,
      "velocity": 107,
      "chip": "ym2612"
    },
    {
      "channel": 4,
      "note": 88,
      "start": 57.7666,
      "duration": 0.0098,
      "velocity": 101,
      "chip": "ym2612"
    },
    {
      "channel": 0,
      "note": 88,
      "start": 57.7757,
      "duration": 0.0837,
      "velocity": 101,
      "chip": "ym2612"
    },
    {
      "channel": 1,
      "note": 56,
      "start": 57.776,
      "duration": 0.2025,
      "velocity": 107,
      "chip": "ym2612"
    },
    {
      "channel": 2,
      "note": 71,
      "start": 57.7762,
      "duration": 0.2037,
      "velocity": 100,
      "chip": "ym2612"
    },
    {
      "channel": 4,
      "note": 86,
      "start": 57.7766,
      "duration": 0.2038,
      "velocity": 101,
      "chip": "ym2612"
    },
    {
      "channel": 3,
      "note": 71,
      "start": 57.7782,
      "duration": 0.2161,
      "velocity": 107,
      "chip": "ym2612"
    },
    {
      "channel": 2,
      "note": 71,
      "start": 57.9801,
      "duration": 0.0628,
      "velocity": 100,
      "chip": "ym2612"
    },
    {
      "channel": 4,
      "note": 88,
      "start": 57.9807,
      "duration": 0.0957,
      "velocity": 101,
      "chip": "ym2612"
    },
    {
      "channel": 3,
      "note": 71,
      "start": 57.9946,
      "duration": 0.0817,
      "velocity": 107,
      "chip": "ym2612"
    },
    {
      "channel": 2,
      "note": 69,
      "start": 58.1931,
      "duration": 0.0665,
      "velocity": 100,
      "chip": "ym2612"
    },
    {
      "channel": 3,
      "note": 69,
      "start": 58.2099,
      "duration": 0.0831,
      "velocity": 107,
      "chip": "ym2612"
    },
    {
      "channel": 2,
      "note": 66,
      "start": 58.6265,
      "duration": 0.0664,
      "velocity": 100,
      "chip": "ym2612"
    },
    {
      "channel": 3,
      "note": 66,
      "start": 58.6433,
      "duration": 0.083,
      "velocity": 107,
      "chip": "ym2612"
    },
    {
      "channel": 0,
      "note": 73,
      "start": 58.8431,
      "duration": 0.1058,
      "velocity": 101,
      "chip": "ym2612"
    },
    {
      "channel": 1,
      "note": 52,
      "start": 58.8433,
      "duration": 0.1058,
      "velocity": 107,
      "chip": "ym2612"
    },
    {
      "channel": 0,
      "note": 71,
      "start": 58.949,
      "duration": 0.1993,
      "velocity": 101,
      "chip": "ym2612"
    },
    {
      "channel": 1,
      "note": 64,
      "start": 58.9493,
      "duration": 0.1991,
      "velocity": 107,
      "chip": "ym2612"
    },
    {
      "channel": 4,
      "note": 73,
      "start": 58.9498,
      "duration": 0.199,
      "velocity": 101,
      "chip": "ym2612"
    },
    {
      "channel": 1,
      "note": 49,
      "start": 59.1486,
      "duration": 0.0124,
      "velocity": 107,
      "chip": "ym2612"
    },
    {
      "channel": 4,
      "note": 71,
      "start": 59.1489,
      "duration": 0.0124,
      "velocity": 101,
      "chip": "ym2612"
    },
    {
      "channel": 0,
      "note": 68,
      "start": 59.161,
      "duration": 0.1995,
      "velocity": 101,
      "chip": "ym2612"
    },
    {
      "channel": 1,
      "note": 50,
      "start": 59.1612,
      "duration": 0.0827,
      "velocity": 107,
      "chip": "ym2612"
    },
    {
      "channel": 1,
      "note": 52,
      "start": 59.2442,
      "duration": 0.1166,
      "velocity": 107,
      "chip": "ym2612"
    },
    {
      "channel": 4,
      "note": 68,
      "start": 59.3614,
      "duration": 0.2162,
      "velocity": 101,
      "chip": "ym2612"
    },
    {
      "channel": 2,
      "note": 64,
      "start": 59.5775,
      "duration": 0.0664,
      "velocity": 100,
      "chip": "ym2612"
    },
    {
      "channel": 3,
      "note": 64,
      "start": 59.5942,
      "duration": 0.0831,
      "velocity": 107,
      "chip": "ym2612"
    },
    {
      "channel": 1,
      "note": 52,
      "start": 59.7941,
      "duration": 0.2164,
      "velocity": 107,
      "chip": "ym2612"
    },
    {
      "channel": 2,
      "note": 68,
      "start": 59.7944,
      "duration": 0.0662,
      "velocity": 100,
      "chip": "ym2612"
    },
    {
      "channel": 3,
      "note": 68,
      "start": 59.811,
      "duration": 0.0829,
      "velocity": 107,
      "chip": "ym2612"
    },
    {
      "channel": 2,
      "note": 71,
      "start": 60.011,
      "duration": 0.0662,
      "velocity": 100,
      "chip": "ym2612"
    },
    {
      "channel": 3,
      "note": 71,
      "start": 60.0276,
      "duration": 0.083,
      "velocity": 107,
      "chip": "ym2612"
    },
    {
      "channel": 0,
      "note": 81,
      "start": 60.2275,
      "duration": 0.2163,
      "velocity": 101,
      "chip": "ym2612"
    },
    {
      "channel": 2,
      "note": 69,
      "start": 60.2279,
      "duration": 0.0662,
      "velocity": 100,
      "chip": "ym2612"
    },
    {
      "channel": 3,
      "note": 69,
      "start": 60.2444,
      "duration": 0.0829,
      "velocity": 107,
      "chip": "ym2612"
    },
    {
      "channel": 0,
      "note": 81,
      "start": 60.4441,
      "duration": 0.2165,
      "velocity": 101,
      "chip": "ym2612"
    },
    {
      "channel": 2,
      "note": 66,
      "start": 60.4444,
      "duration": 0.0663,
      "velocity": 100,
      "chip": "ym2612"
    },
    {
      "channel": 4,
      "note": 81,
      "start": 60.4448,
      "duration": 0.2168,
      "velocity": 101,
      "chip": "ym2612"
    },
    {
      "channel": 3,
      "note": 66,
      "start": 60.461,
      "duration": 0.0832,
      "velocity": 107,
      "chip": "ym2612"
    },
    {
      "channel": 0,
      "note": 81,
      "start": 60.6607,
      "duration": 0.4331,
      "velocity": 101,
      "chip": "ym2612"
    },
    {
      "channel": 1,
      "note": 52,
      "start": 60.661,
      "duration": 0.2163,
      "velocity": 107,
      "chip": "ym2612"
    },
    {
      "channel": 2,
      "note": 62,
      "start": 60.6614,
      "duration": 0.0661,
      "velocity": 100,
      "chip": "ym2612"
    },
    {
      "channel": 4,
      "note": 81,
      "start": 60.6617,
      "duration": 0.2161,
      "velocity": 101,
      "chip": "ym2612"
    },
    {
      "channel": 3,
      "note": 62,
      "start": 60.6778,
      "duration": 0.083,
      "velocity": 107,
      "chip": "ym2612"
    },
    {
      "channel": 2,
      "note": 64,
      "start": 60.8777,
      "duration": 0.0662,
      "velocity": 100,
      "chip": "ym2612"
    },
    {
      "channel": 4,
      "note": 81,
      "start": 60.8781,
      "duration": 0.4331,
      "velocity": 101,
      "chip": "ym2612"
    },
    {
      "channel": 3,
      "note": 64,
      "start": 60.8943,
      "duration": 0.083,
      "velocity": 107,
      "chip": "ym2612"
    },
    {
      "channel": 2,
      "note": 68,
      "start": 61.0944,
      "duration": 0.0661,
      "velocity": 100,
      "chip": "ym2612"
    },
    {
      "channel": 3,
      "note": 68,
      "start": 61.111,
      "duration": 0.083,
      "velocity": 107,
      "chip": "ym2612"
    },
    {
      "channel": 1,
      "note": 64,
      "start": 61.3108,
      "duration": 0.2163,
      "velocity": 107,
      "chip": "ym2612"
    },
    {
      "channel": 2,
      "note": 71,
      "start": 61.311,
      "duration": 0.0662,
      "velocity": 100,
      "chip": "ym2612"
    },
    {
      "channel": 3,
      "note": 71,
      "start": 61.3276,
      "duration": 0.0831,
      "velocity": 107,
      "chip": "ym2612"
    },
    {
      "channel": 1,
      "note": 52,
      "start": 61.5274,
      "duration": 0.3165,
      "velocity": 107,
      "chip": "ym2612"
    },
    {
      "channel": 2,
      "note": 69,
      "start": 61.5277,
      "duration": 0.0663,
      "velocity": 100,
      "chip": "ym2612"
    },
    {
      "channel": 3,
      "note": 69,
      "start": 61.5443,
      "duration": 0.083,
      "velocity": 107,
      "chip": "ym2612"
    },
    {
      "channel": 2,
      "note": 66,
      "start": 61.7442,
      "duration": 0.0665,
      "velocity": 100,
      "chip": "ym2612"
    },
    {
      "channel": 3,
      "note": 66,
      "start": 61.7611,
      "duration": 0.083,
      "velocity": 107,
      "chip": "ym2612"
    },
    {
      "channel": 1,
      "note": 52,
      "start": 61.9609,
      "duration": 0.2162,
      "velocity": 107,
      "chip": "ym2612"
    },
    {
      "channel": 2,
      "note": 62,
      "start": 61.9612,
      "duration": 0.066,
      "velocity": 100,
      "chip": "ym2612"
    },
    {
      "channel": 3,
      "note": 62,
      "start": 61.9776,
      "duration": 0.0833,
      "velocity": 107,
      "chip": "ym2612"
    },
    {
      "channel": 2,
      "note": 63,
      "start": 62.0608,
      "duration": 0.0666,
      "velocity": 100,
      "chip": "ym2612"
    },
    {
      "channel": 3,
      "note": 63,
      "start": 62.0776,
      "duration": 0.0832,
      "velocity": 107,
      "chip": "ym2612"
    },
    {
      "channel": 2,
      "note": 64,
      "start": 62.1776,
      "duration": 0.0663,
      "velocity": 100,
      "chip": "ym2612"
    },
    {
      "channel": 3,
      "note": 64,
      "start": 62.1942,
      "duration": 0.0831,
      "velocity": 107,
      "chip": "ym2612"
    },
    {
      "channel": 2,
      "note": 68,
      "start": 62.3943,
      "duration": 0.0662,
      "velocity": 100,
      "chip": "ym2612"
    },
    {
      "channel": 3,
      "note": 68,
      "start": 62.411,
      "duration": 0.083,
      "velocity": 107,
      "chip": "ym2612"
    },
    {
      "channel": 2,
      "note": 71,
      "start": 62.6108,
      "duration": 0.0664,
      "velocity": 100,
      "chip": "ym2612"
    },
    {
      "channel": 3,
      "note": 71,
      "start": 62.6276,
      "duration": 0.083,
      "velocity": 107,
      "chip": "ym2612"
    },
    {
      "channel": 1,
      "note": 52,
      "start": 62.8275,
      "duration": 0.0829,
      "velocity": 107,
      "chip": "ym2612"
    },
    {
      "channel": 1,
      "note": 64,
      "start": 62.9106,
      "duration": 0.0993,
      "velocity": 107,
      "chip": "ym2612"
    },
    {
      "channel": 1,
      "note": 49,
      "start": 63.0102,
      "duration": 0.1079,
      "velocity": 107,
      "chip": "ym2612"
    },
    {
      "channel": 0,
      "note": 83,
      "start": 63.1101,
      "duration": 0.0076,
      "velocity": 101,
      "chip": "ym2612"
    },
    {
      "channel": 0,
      "note": 86,
      "start": 63.118,
      "duration": 0.0827,
      "velocity": 101,
      "chip": "ym2612"
    },
    {
      "channel": 1,
      "note": 50,
      "start": 63.1182,
      "duration": 0.1995,
      "velocity": 107,
      "chip": "ym2612"
    },
    {
      "channel": 0,
      "note": 83,
      "start": 63.2009,
      "duration": 0.1165,
      "velocity": 101,
      "chip": "ym2612"
    },
    {
      "channel": 4,
      "note": 83,
      "start": 63.2015,
      "duration": 0.1164,
      "velocity": 101,
      "chip": "ym2612"
    },
    {
      "channel": 0,
      "note": 86,
      "start": 63.3176,
      "duration": 0.0061,
      "velocity": 101,
      "chip": "ym2612"
    },
    {
      "channel": 1,
      "note": 51,
      "start": 63.3178,
      "duration": 0.106,
      "velocity": 107,
      "chip": "ym2612"
    },
    {
      "channel": 4,
      "note": 86,
      "start": 63.318,
      "duration": 0.0062,
      "velocity": 101,
      "chip": "ym2612"
    },
    {
      "channel": 0,
      "note": 83,
      "start": 63.324,
      "duration": 0.0995,
      "velocity": 101,
      "chip": "ym2612"
    },
    {
      "channel": 4,
      "note": 83,
      "start": 63.3244,
      "duration": 0.1011,
      "velocity": 101,
      "chip": "ym2612"
    },
    {
      "channel": 0,
      "note": 86,
      "start": 63.4237,
      "duration": 0.0998,
      "velocity": 101,
      "chip": "ym2612"
    },
    {
      "channel": 1,
      "note": 52,
      "start": 63.424,
      "duration": 0.1085,
      "velocity": 107,
      "chip": "ym2612"
    },
    {
      "channel": 2,
      "note": 68,
      "start": 63.4253,
      "duration": 0.1074,
      "velocity": 97,
      "chip": "ym2612"
    },
    {
      "channel": 4,
      "note": 86,
      "start": 63.4257,
      "duration": 0.0983,
      "velocity": 101,
      "chip": "ym2612"
    },
    {
      "channel": 3,
      "note": 68,
      "start": 63.4417,
      "duration": 0.0927,
      "velocity": 107,
      "chip": "ym2612"
    },
    {
      "channel": 0,
      "note": 83,
      "start": 63.5237,
      "duration": 0.0084,
      "velocity": 101,
      "chip": "ym2612"
    },
    {
      "channel": 4,
      "note": 83,
      "start": 63.5242,
      "duration": 0.0088,
      "velocity": 101,
      "chip": "ym2612"
    },
    {
      "channel": 0,
      "note": 86,
      "start": 63.5324,
      "duration": 0.0833,
      "velocity": 101,
      "chip": "ym2612"
    },
    {
      "channel": 1,
      "note": 54,
      "start": 63.5326,
      "duration": 0.2002,
      "velocity": 107,
      "chip": "ym2612"
    },
    {
      "channel": 2,
      "note": 69,
      "start": 63.5328,
      "duration": 0.2003,
      "velocity": 97,
      "chip": "ym2612"
    },
    {
      "channel": 4,
      "note": 86,
      "start": 63.5332,
      "duration": 0.0832,
      "velocity": 101,
      "chip": "ym2612"
    },
    {
      "channel": 3,
      "note": 69,
      "start": 63.5345,
      "duration": 0.2004,
      "velocity": 107,
      "chip": "ym2612"
    },
    {
      "channel": 0,
      "note": 83,
      "start": 63.616,
      "duration": 0.1166,
      "velocity": 101,
      "chip": "ym2612"
    },
    {
      "channel": 4,
      "note": 83,
      "start": 63.6167,
      "duration": 0.1169,
      "velocity": 101,
      "chip": "ym2612"
    },
    {
      "channel": 0,
      "note": 86,
      "start": 63.7328,
      "duration": 0.0077,
      "velocity": 101,
      "chip": "ym2612"
    },
    {
      "channel": 1,
      "note": 55,
      "start": 63.733,
      "duration": 0.0171,
      "velocity": 107,
      "chip": "ym2612"
    },
    {
      "channel": 2,
      "note": 70,
      "start": 63.7333,
      "duration": 0.0171,
      "velocity": 97,
      "chip": "ym2612"
    },
    {
      "channel": 4,
      "note": 86,
      "start": 63.7338,
      "duration": 0.0074,
      "velocity": 101,
      "chip": "ym2612"
    },
    {
      "channel": 3,
      "note": 70,
      "start": 63.735,
      "duration": 0.017,
      "velocity": 107,
      "chip": "ym2612"
    },
    {
      "channel": 0,
      "note": 83,
      "start": 63.7407,
      "duration": 0.0094,
      "velocity": 101,
      "chip": "ym2612"
    },
    {
      "channel": 4,
      "note": 83,
      "start": 63.7413,
      "duration": 0.0094,
      "velocity": 101,
      "chip": "ym2612"
    },
    {
      "channel": 0,
      "note": 85,
      "start": 63.75,
      "duration": 0.0076,
      "velocity": 101,
      "chip": "ym2612"
    },
    {
      "channel": 1,
      "note": 56,
      "start": 63.7503,
      "duration": 0.0172,
      "velocity": 107,
      "chip": "ym2612"
    },
    {
      "channel": 2,
      "note": 71,
      "start": 63.7505,
      "duration": 0.018,
      "velocity": 100,
      "chip": "ym2612"
    },
    {
      "channel": 4,
      "note": 86,
      "start": 63.7508,
      "duration": 0.0073,
      "velocity": 101,
      "chip": "ym2612"
    },
    {
      "channel": 3,
      "note": 71,
      "start": 63.7521,
      "duration": 0.019,
      "velocity": 100,
      "chip": "ym2612"
    },
    {
      "channel": 0,
      "note": 86,
      "start": 63.7577,
      "duration": 0.0015,
      "velocity": 101,
      "chip": "ym2612"
    },
    {
      "channel": 4,
      "note": 83,
      "start": 63.7583,
      "duration": 0.0108,
      "velocity": 101,
      "chip": "ym2612"
    },
    {
      "channel": 0,
      "note": 85,
      "start": 63.7592,
      "duration": 0.0012,
      "velocity": 101,
      "chip": "ym2612"
    },
    {
      "channel": 0,
      "note": 84,
      "start": 63.7604,
      "duration": 0.0012,
      "velocity": 101,
      "chip": "ym2612"
    },
    {
      "channel": 0,
      "note": 81,
      "start": 63.7617,
      "duration": 0.0012,
      "velocity": 101,
      "chip": "ym2612"
    },
    {
      "channel": 0,
      "note": 80,
      "start": 63.7629,
      "duration": 0.0012,
      "velocity": 101,
      "chip": "ym2612"
    },
    {
      "channel": 0,
      "note": 79,
      "start": 63.7641,
      "duration": 0.0033,
      "velocity": 101,
      "chip": "ym2612"
    },
    {
      "channel": 2,
      "note": 71,
      "start": 63.7687,
      "duration": 0.0056,
      "velocity": 100,
      "chip": "ym2612"
    },
    {
      "channel": 4,
      "note": 85,
      "start": 63.7691,
      "duration": 0.0072,
      "velocity": 101,
      "chip": "ym2612"
    },
    {
      "channel": 3,
      "note": 71,
      "start": 63.7714,
      "duration": 0.004,
      "velocity": 100,
      "chip": "ym2612"
    },
    {
      "channel": 4,
      "note": 86,
      "start": 63.7762,
      "duration": 0.0025,
      "velocity": 101,
      "chip": "ym2612"
    },
    {
      "channel": 4,
      "note": 85,
      "start": 63.7787,
      "duration": 0.0167,
      "velocity": 101,
      "chip": "ym2612"
    },
    {
      "channel": 4,
      "note": 84,
      "start": 63.7954,
      "duration": 0.0167,
      "velocity": 101,
      "chip": "ym2612"
    },
    {
      "channel": 4,
      "note": 81,
      "start": 63.8121,
      "duration": 0.0167,
      "velocity": 101,
      "chip": "ym2612"
    },
    {
      "channel": 4,
      "note": 80,
      "start": 63.8287,
      "duration": 0.0166,
      "velocity": 101,
      "chip": "ym2612"
    },
    {
      "channel": 4,
      "note": 79,
      "start": 63.8454,
      "duration": 0.0346,
      "velocity": 101,
      "chip": "ym2612"
    },
    {
      "channel": 2,
      "note": 69,
      "start": 63.8787,
      "duration": 0.0664,
      "velocity": 100,
      "chip": "ym2612"
    },
    {
      "channel": 3,
      "note": 69,
      "start": 63.8955,
      "duration": 0.0664,
      "velocity": 100,
      "chip": "ym2612"
    },
    {
      "channel": 2,
      "note": 66,
      "start": 64.3121,
      "duration": 0.0663,
      "velocity": 100,
      "chip": "ym2612"
    },
    {
      "channel": 3,
      "note": 66,
      "start": 64.3289,
      "duration": 0.0663,
      "velocity": 100,
      "chip": "ym2612"
    },
    {
      "channel": 0,
      "note": 73,
      "start": 64.5286,
      "duration": 0.1054,
      "velocity": 101,
      "chip": "ym2612"
    },
    {
      "channel": 1,
      "note": 52,
      "start": 64.5288,
      "duration": 0.1055,
      "velocity": 107,
      "chip": "ym2612"
    },
    {
      "channel": 0,
      "note": 71,
      "start": 64.6343,
      "duration": 0.1993,
      "velocity": 101,
      "chip": "ym2612"
    },
    {
      "channel": 1,
      "note": 64,
      "start": 64.6346,
      "duration": 0.1991,
      "velocity": 107,
      "chip": "ym2612"
    },
    {
      "channel": 4,
      "note": 73,
      "start": 64.635,
      "duration": 0.1989,
      "velocity": 101,
      "chip": "ym2612"
    },
    {
      "channel": 1,
      "note": 49,
      "start": 64.8339,
      "duration": 0.0132,
      "velocity": 107,
      "chip": "ym2612"
    },
    {
      "channel": 4,
      "note": 71,
      "start": 64.8341,
      "duration": 0.0132,
      "velocity": 101,
      "chip": "ym2612"
    },
    {
      "channel": 0,
      "note": 68,
      "start": 64.847,
      "duration": 0.1994,
      "velocity": 101,
      "chip": "ym2612"
    },
    {
      "channel": 1,
      "note": 50,
      "start": 64.8472,
      "duration": 0.0824,
      "velocity": 107,
      "chip": "ym2612"
    },
    {
      "channel": 1,
      "note": 52,
      "start": 64.93,
      "duration": 0.1166,
      "velocity": 107,
      "chip": "ym2612"
    },
    {
      "channel": 2,
      "note": 71,
      "start": 65.0469,
      "duration": 0.0661,
      "velocity": 100,
      "chip": "ym2612"
    },
    {
      "channel": 4,
      "note": 68,
      "start": 65.0473,
      "duration": 0.2161,
      "velocity": 101,
      "chip": "ym2612"
    },
    {
      "channel": 3,
      "note": 71,
      "start": 65.0635,
      "duration": 0.0663,
      "velocity": 100,
      "chip": "ym2612"
    },
    {
      "channel": 2,
      "note": 69,
      "start": 65.2633,
      "duration": 0.0664,
      "velocity": 100,
      "chip": "ym2612"
    },
    {
      "channel": 3,
      "note": 69,
      "start": 65.2801,
      "duration": 0.0663,
      "velocity": 100,
      "chip": "ym2612"
    },
    {
      "channel": 2,
      "note": 66,
      "start": 65.6967,
      "duration": 0.0663,
      "velocity": 100,
      "chip": "ym2612"
    },
    {
      "channel": 3,
      "note": 66,
      "start": 65.7135,
      "duration": 0.0663,
      "velocity": 100,
      "chip": "ym2612"
    },
    {
      "channel": 0,
      "note": 81,
      "start": 65.9132,
      "duration": 0.1054,
      "velocity": 101,
      "chip": "ym2612"
    },
    {
      "channel": 1,
      "note": 52,
      "start": 65.9134,
      "duration": 0.1056,
      "velocity": 107,
      "chip": "ym2612"
    },
    {
      "channel": 0,
      "note": 81,
      "start": 66.0189,
      "duration": 0.1994,
      "velocity": 101,
      "chip": "ym2612"
    },
    {
      "channel": 1,
      "note": 64,
      "start": 66.0192,
      "duration": 0.1995,
      "velocity": 107,
      "chip": "ym2612"
    },
    {
      "channel": 4,
      "note": 81,
      "start": 66.0196,
      "duration": 0.1993,
      "velocity": 101,
      "chip": "ym2612"
    },
    {
      "channel": 0,
      "note": 81,
      "start": 66.2186,
      "duration": 0.2133,
      "velocity": 101,
      "chip": "ym2612"
    },
    {
      "channel": 1,
      "note": 49,
      "start": 66.2188,
      "duration": 0.0134,
      "velocity": 107,
      "chip": "ym2612"
    },
    {
      "channel": 4,
      "note": 81,
      "start": 66.219,
      "duration": 0.0134,
      "velocity": 101,
      "chip": "ym2612"
    },
    {
      "channel": 1,
      "note": 50,
      "start": 66.2324,
      "duration": 0.0828,
      "velocity": 107,
      "chip": "ym2612"
    },
    {
      "channel": 4,
      "note": 81,
      "start": 66.2327,
      "duration": 0.2129,
      "velocity": 101,
      "chip": "ym2612"
    },
    {
      "channel": 1,
      "note": 52,
      "start": 66.3154,
      "duration": 0.1166,
      "velocity": 107,
      "chip": "ym2612"
    },
    {
      "channel": 1,
      "note": 52,
      "start": 66.4322,
      "duration": 0.0129,
      "velocity": 107,
      "chip": "ym2612"
    },
    {
      "channel": 2,
      "note": 71,
      "start": 66.4324,
      "duration": 0.0045,
      "velocity": 100,
      "chip": "ym2612"
    },
    {
      "channel": 3,
      "note": 71,
      "start": 66.4338,
      "duration": 0.0042,
      "velocity": 100,
      "chip": "ym2612"
    },
    {
      "channel": 1,
      "note": 50,
      "start": 66.4453,
      "duration": 0.1998,
      "velocity": 107,
      "chip": "ym2612"
    },
    {
      "channel": 2,
      "note": 69,
      "start": 66.4455,
      "duration": 0.0497,
      "velocity": 100,
      "chip": "ym2612"
    },
    {
      "channel": 3,
      "note": 69,
      "start": 66.4469,
      "duration": 0.065,
      "velocity": 100,
      "chip": "ym2612"
    },
    {
      "channel": 1,
      "note": 47,
      "start": 66.8449,
      "duration": 0.0125,
      "velocity": 107,
      "chip": "ym2612"
    },
    {
      "channel": 2,
      "note": 66,
      "start": 66.8452,
      "duration": 0.0042,
      "velocity": 100,
      "chip": "ym2612"
    },
    {
      "channel": 3,
      "note": 66,
      "start": 66.8465,
      "duration": 0.0039,
      "velocity": 100,
      "chip": "ym2612"
    },
    {
      "channel": 1,
      "note": 50,
      "start": 67.0572,
      "duration": 0.0139,
      "velocity": 107,
      "chip": "ym2612"
    },
    {
      "channel": 2,
      "note": 69,
      "start": 67.0574,
      "duration": 0.1796,
      "velocity": 102,
      "chip": "ym2612"
    },
    {
      "channel": 3,
      "note": 69,
      "start": 67.0588,
      "duration": 0.1798,
      "velocity": 102,
      "chip": "ym2612"
    },
    {
      "channel": 1,
      "note": 47,
      "start": 67.0712,
      "duration": 0.1496,
      "velocity": 107,
      "chip": "ym2612"
    },
    {
      "channel": 1,
      "note": 47,
      "start": 67.2209,
      "duration": 0.0061,
      "velocity": 107,
      "chip": "ym2612"
    },
    {
      "channel": 1,
      "note": 47,
      "start": 67.2271,
      "duration": 0.0089,
      "velocity": 107,
      "chip": "ym2612"
    },
    {
      "channel": 0,
      "note": 77,
      "start": 67.2352,
      "duration": 0.4559,
      "velocity": 98,
      "chip": "ym2612"
    },
    {
      "channel": 1,
      "note": 49,
      "start": 67.2362,
      "duration": 0.0092,
      "velocity": 107,
      "chip": "ym2612"
    },
    {
      "channel": 2,
      "note": 68,
      "start": 67.2372,
      "duration": 0.4705,
      "velocity": 102,
      "chip": "ym2612"
    },
    {
      "channel": 3,
      "note": 65,
      "start": 67.2388,
      "duration": 0.4689,
      "velocity": 102,
      "chip": "ym2612"
    },
    {
      "channel": 1,
      "note": 61,
      "start": 67.2455,
      "duration": 0.0457,
      "velocity": 107,
      "chip": "ym2612"
    },
    {
      "channel": 1,
      "note": 49,
      "start": 67.2914,
      "duration": 0.2,
      "velocity": 107,
      "chip": "ym2612"
    },
    {
      "channel": 4,
      "note": 77,
      "start": 67.2929,
      "duration": 0.4149,
      "velocity": 98,
      "chip": "ym2612"
    },
    {
      "channel": 1,
      "note": 61,
      "start": 67.4915,
      "duration": 0.1998,
      "velocity": 107,
      "chip": "ym2612"
    },
    {
      "channel": 0,
      "note": 65,
      "start": 67.6913,
      "duration": 0.0158,
      "velocity": 98,
      "chip": "ym2612"
    },
    {
      "channel": 1,
      "note": 49,
      "start": 67.6916,
      "duration": 0.0159,
      "velocity": 107,
      "chip": "ym2612"
    },
    {
      "channel": 0,
      "note": 68,
      "start": 67.7074,
      "duration": 0.0139,
      "velocity": 98,
      "chip": "ym2612"
    },
    {
      "channel": 1,
      "note": 49,
      "start": 67.7076,
      "duration": 0.0141,
      "velocity": 107,
      "chip": "ym2612"
    },
    {
      "channel": 4,
      "note": 65,
      "start": 67.708,
      "duration": 0.0143,
      "velocity": 98,
      "chip": "ym2612"
    },
    {
      "channel": 0,
      "note": 73,
      "start": 67.7216,
      "duration": 0.1998,
      "velocity": 98,
      "chip": "ym2612"
    },
    {
      "channel": 1,
      "note": 49,
      "start": 67.7218,
      "duration": 0.1998,
      "velocity": 107,
      "chip": "ym2612"
    },
    {
      "channel": 2,
      "note": 68,
      "start": 67.7221,
      "duration": 0.1999,
      "velocity": 102,
      "chip": "ym2612"
    },
    {
      "channel": 3,
      "note": 65,
      "start": 67.7223,
      "duration": 0.1999,
      "velocity": 102,
      "chip": "ym2612"
    },
    {
      "channel": 4,
      "note": 68,
      "start": 67.7226,
      "duration": 0.1999,
      "velocity": 98,
      "chip": "ym2612"
    },
    {
      "channel": 0,
      "note": 77,
      "start": 67.9216,
      "duration": 0.2165,
      "velocity": 98,
      "chip": "ym2612"
    },
    {
      "channel": 1,
      "note": 49,
      "start": 67.9219,
      "duration": 0.2164,
      "velocity": 107,
      "chip": "ym2612"
    },
    {
      "channel": 2,
      "note": 68,
      "start": 67.9221,
      "duration": 0.2164,
      "velocity": 102,
      "chip": "ym2612"
    },
    {
      "channel": 3,
      "note": 65,
      "start": 67.9224,
      "duration": 0.2163,
      "velocity": 102,
      "chip": "ym2612"
    },
    {
      "channel": 4,
      "note": 73,
      "start": 67.9228,
      "duration": 0.2163,
      "velocity": 98,
      "chip": "ym2612"
    },
    {
      "channel": 0,
      "note": 76,
      "start": 68.1383,
      "duration": 0.2,
      "velocity": 98,
      "chip": "ym2612"
    },
    {
      "channel": 1,
      "note": 52,
      "start": 68.1385,
      "duration": 0.2,
      "velocity": 107,
      "chip": "ym2612"
    },
    {
      "channel": 2,
      "note": 71,
      "start": 68.1387,
      "duration": 0.2001,
      "velocity": 102,
      "chip": "ym2612"
    },
    {
      "channel": 3,
      "note": 68,
      "start": 68.139,
      "duration": 0.2,
      "velocity": 102,
      "chip": "ym2612"
    },
    {
      "channel": 4,
      "note": 77,
      "start": 68.1392,
      "duration": 0.1998,
      "velocity": 98,
      "chip": "ym2612"
    },
    {
      "channel": 0,
      "note": 76,
      "start": 68.3383,
      "duration": 0.2166,
      "velocity": 98,
      "chip": "ym2612"
    },
    {
      "channel": 1,
      "note": 52,
      "start": 68.3385,
      "duration": 0.2166,
      "velocity": 107,
      "chip": "ym2612"
    },
    {
      "channel": 2,
      "note": 71,
      "start": 68.3388,
      "duration": 0.7336,
      "velocity": 102,
      "chip": "ym2612"
    },
    {
      "channel": 3,
      "note": 68,
      "start": 68.339,
      "duration": 0.7336,
      "velocity": 102,
      "chip": "ym2612"
    },
    {
      "channel": 4,
      "note": 76,
      "start": 68.3393,
      "duration": 0.2163,
      "velocity": 98,
      "chip": "ym2612"
    },
    {
      "channel": 0,
      "note": 71,
      "start": 68.555,
      "duration": 0.1998,
      "velocity": 98,
      "chip": "ym2612"
    },
    {
      "channel": 1,
      "note": 64,
      "start": 68.5552,
      "duration": 0.1999,
      "velocity": 107,
      "chip": "ym2612"
    },
    {
      "channel": 4,
      "note": 76,
      "start": 68.5556,
      "duration": 0.2,
      "velocity": 98,
      "chip": "ym2612"
    },
    {
      "channel": 0,
      "note": 80,
      "start": 68.7551,
      "duration": 0.0167,
      "velocity": 98,
      "chip": "ym2612"
    },
    {
      "channel": 1,
      "note": 59,
      "start": 68.7553,
      "duration": 0.0167,
      "velocity": 107,
      "chip": "ym2612"
    },
    {
      "channel": 4,
      "note": 71,
      "start": 68.7559,
      "duration": 0.0167,
      "velocity": 98,
      "chip": "ym2612"
    },
    {
      "channel": 0,
      "note": 76,
      "start": 68.7719,
      "duration": 0.1125,
      "velocity": 98,
      "chip": "ym2612"
    },
    {
      "channel": 1,
      "note": 56,
      "start": 68.7723,
      "duration": 0.1123,
      "velocity": 107,
      "chip": "ym2612"
    },
    {
      "channel": 4,
      "note": 80,
      "start": 68.7727,
      "duration": 0.1124,
      "velocity": 98,
      "chip": "ym2612"
    },
    {
      "channel": 0,
      "note": 76,
      "start": 68.8845,
      "duration": 0.4041,
      "velocity": 98,
      "chip": "ym2612"
    },
    {
      "channel": 1,
      "note": 52,
      "start": 68.8848,
      "duration": 0.0088,
      "velocity": 107,
      "chip": "ym2612"
    },
    {
      "channel": 4,
      "note": 76,
      "start": 68.8854,
      "duration": 0.0179,
      "velocity": 98,
      "chip": "ym2612"
    },
    {
      "channel": 1,
      "note": 64,
      "start": 68.8937,
      "duration": 0.0091,
      "velocity": 107,
      "chip": "ym2612"
    },
    {
      "channel": 1,
      "note": 52,
      "start": 68.9029,
      "duration": 0.1691,
      "velocity": 107,
      "chip": "ym2612"
    },
    {
      "channel": 4,
      "note": 76,
      "start": 68.9033,
      "duration": 0.4044,
      "velocity": 98,
      "chip": "ym2612"
    },
    {
      "channel": 1,
      "note": 52,
      "start": 69.0723,
      "duration": 0.2166,
      "velocity": 107,
      "chip": "ym2612"
    },
    {
      "channel": 0,
      "note": 81,
      "start": 69.2888,
      "duration": 0.0183,
      "velocity": 98,
      "chip": "ym2612"
    },
    {
      "channel": 1,
      "note": 57,
      "start": 69.289,
      "duration": 0.0183,
      "velocity": 107,
      "chip": "ym2612"
    },
    {
      "channel": 2,
      "note": 69,
      "start": 69.2894,
      "duration": 0.0181,
      "velocity": 102,
      "chip": "ym2612"
    },
    {
      "channel": 3,
      "note": 64,
      "start": 69.2897,
      "duration": 0.018,
      "velocity": 102,
      "chip": "ym2612"
    },
    {
      "channel": 0,
      "note": 81,
      "start": 69.3071,
      "duration": 0.1016,
      "velocity": 98,
      "chip": "ym2612"
    },
    {
      "channel": 1,
      "note": 57,
      "start": 69.3073,
      "duration": 0.1017,
      "velocity": 107,
      "chip": "ym2612"
    },
    {
      "channel": 2,
      "note": 69,
      "start": 69.3075,
      "duration": 0.5178,
      "velocity": 102,
      "chip": "ym2612"
    },
    {
      "channel": 3,
      "note": 64,
      "start": 69.3077,
      "duration": 0.5177,
      "velocity": 102,
      "chip": "ym2612"
    },
    {
      "channel": 4,
      "note": 81,
      "start": 69.3078,
      "duration": 0.1018,
      "velocity": 98,
      "chip": "ym2612"
    },
    {
      "channel": 0,
      "note": 76,
      "start": 69.409,
      "duration": 0.1998,
      "velocity": 98,
      "chip": "ym2612"
    },
    {
      "channel": 1,
      "note": 57,
      "start": 69.4092,
      "duration": 0.1999,
      "velocity": 107,
      "chip": "ym2612"
    },
    {
      "channel": 4,
      "note": 81,
      "start": 69.4096,
      "duration": 0.1998,
      "velocity": 98,
      "chip": "ym2612"
    },
    {
      "channel": 0,
      "note": 85,
      "start": 69.609,
      "duration": 0.1998,
      "velocity": 98,
      "chip": "ym2612"
    },
    {
      "channel": 1,
      "note": 45,
      "start": 69.6092,
      "duration": 0.1999,
      "velocity": 107,
      "chip": "ym2612"
    },
    {
      "channel": 4,
      "note": 76,
      "start": 69.6096,
      "duration": 0.2,
      "velocity": 98,
      "chip": "ym2612"
    },
    {
      "channel": 0,
      "note": 76,
      "start": 69.8091,
      "duration": 0.0157,
      "velocity": 98,
      "chip": "ym2612"
    },
    {
      "channel": 1,
      "note": 57,
      "start": 69.8093,
      "duration": 0.0158,
      "velocity": 107,
      "chip": "ym2612"
    },
    {
      "channel": 4,
      "note": 85,
      "start": 69.8098,
      "duration": 0.0156,
      "velocity": 98,
      "chip": "ym2612"
    },
    {
      "channel": 0,
      "note": 83,
      "start": 69.825,
      "duration": 0.0139,
      "velocity": 98,
      "chip": "ym2612"
    },
    {
      "channel": 1,
      "note": 45,
      "start": 69.8253,
      "duration": 0.0065,
      "velocity": 107,
      "chip": "ym2612"
    },
    {
      "channel": 4,
      "note": 76,
      "start": 69.8256,
      "duration": 0.0144,
      "velocity": 98,
      "chip": "ym2612"
    },
    {
      "channel": 1,
      "note": 57,
      "start": 69.8319,
      "duration": 0.0074,
      "velocity": 107,
      "chip": "ym2612"
    },
    {
      "channel": 0,
      "note": 76,
      "start": 69.8392,
      "duration": 0.1999,
      "velocity": 98,
      "chip": "ym2612"
    },
    {
      "channel": 1,
      "note": 57,
      "start": 69.8394,
      "duration": 0.1999,
      "velocity": 107,
      "chip": "ym2612"
    },
    {
      "channel": 2,
      "note": 69,
      "start": 69.8397,
      "duration": 0.2,
      "velocity": 102,
      "chip": "ym2612"
    },
    {
      "channel": 3,
      "note": 64,
      "start": 69.8399,
      "duration": 0.2,
      "velocity": 102,
      "chip": "ym2612"
    },
    {
      "channel": 4,
      "note": 83,
      "start": 69.8401,
      "duration": 0.2001,
      "velocity": 98,
      "chip": "ym2612"
    },
    {
      "channel": 0,
      "note": 81,
      "start": 70.0392,
      "duration": 0.2165,
      "velocity": 98,
      "chip": "ym2612"
    },
    {
      "channel": 1,
      "note": 45,
      "start": 70.0395,
      "duration": 0.2164,
      "velocity": 107,
      "chip": "ym2612"
    },
    {
      "channel": 2,
      "note": 69,
      "start": 70.0398,
      "duration": 0.2164,
      "velocity": 102,
      "chip": "ym2612"
    },
    {
      "channel": 3,
      "note": 64,
      "start": 70.0401,
      "duration": 0.2163,
      "velocity": 102,
      "chip": "ym2612"
    },
    {
      "channel": 4,
      "note": 76,
      "start": 70.0404,
      "duration": 0.2163,
      "velocity": 98,
      "chip": "ym2612"
    },
    {
      "channel": 0,
      "note": 78,
      "start": 70.2559,
      "duration": 0.2001,
      "velocity": 98,
      "chip": "ym2612"
    },
    {
      "channel": 1,
      "note": 50,
      "start": 70.2561,
      "duration": 0.2002,
      "velocity": 107,
      "chip": "ym2612"
    },
    {
      "channel": 2,
      "note": 74,
      "start": 70.2563,
      "duration": 0.2002,
      "velocity": 102,
      "chip": "ym2612"
    },
    {
      "channel": 3,
      "note": 66,
      "start": 70.2566,
      "duration": 0.2001,
      "velocity": 102,
      "chip": "ym2612"
    },
    {
      "channel": 4,
      "note": 81,
      "start": 70.2569,
      "duration": 0.1999,
      "velocity": 98,
      "chip": "ym2612"
    },
    {
      "channel": 0,
      "note": 78,
      "start": 70.4561,
      "duration": 0.2165,
      "velocity": 98,
      "chip": "ym2612"
    },
    {
      "channel": 1,
      "note": 50,
      "start": 70.4563,
      "duration": 0.2165,
      "velocity": 107,
      "chip": "ym2612"
    },
    {
      "channel": 2,
      "note": 74,
      "start": 70.4566,
      "duration": 0.974,
      "velocity": 102,
      "chip": "ym2612"
    },
    {
      "channel": 3,
      "note": 66,
      "start": 70.4568,
      "duration": 0.9741,
      "velocity": 102,
      "chip": "ym2612"
    },
    {
      "channel": 4,
      "note": 78,
      "start": 70.4571,
      "duration": 0.2163,
      "velocity": 98,
      "chip": "ym2612"
    },
    {
      "channel": 0,
      "note": 74,
      "start": 70.6728,
      "duration": 0.1998,
      "velocity": 98,
      "chip": "ym2612"
    },
    {
      "channel": 1,
      "note": 54,
      "start": 70.673,
      "duration": 0.1998,
      "velocity": 107,
      "chip": "ym2612"
    },
    {
      "channel": 4,
      "note": 78,
      "start": 70.6734,
      "duration": 0.2,
      "velocity": 98,
      "chip": "ym2612"
    },
    {
      "channel": 0,
      "note": 69,
      "start": 70.8728,
      "duration": 0.0171,
      "velocity": 98,
      "chip": "ym2612"
    },
    {
      "channel": 1,
      "note": 57,
      "start": 70.873,
      "duration": 0.0171,
      "velocity": 107,
      "chip": "ym2612"
    },
    {
      "channel": 4,
      "note": 74,
      "start": 70.8736,
      "duration": 0.0171,
      "velocity": 98,
      "chip": "ym2612"
    },
    {
      "channel": 0,
      "note": 66,
      "start": 70.89,
      "duration": 0.1304,
      "velocity": 98,
      "chip": "ym2612"
    },
    {
      "channel": 1,
      "note": 59,
      "start": 70.8904,
      "duration": 0.112,
      "velocity": 107,
      "chip": "ym2612"
    },
    {
      "channel": 4,
      "note": 69,
      "start": 70.8909,
      "duration": 0.1121,
      "velocity": 98,
      "chip": "ym2612"
    },
    {
      "channel": 1,
      "note": 62,
      "start": 71.0026,
      "duration": 0.0084,
      "velocity": 107,
      "chip": "ym2612"
    },
    {
      "channel": 4,
      "note": 66,
      "start": 71.0032,
      "duration": 0.2109,
      "velocity": 98,
      "chip": "ym2612"
    },
    {
      "channel": 1,
      "note": 50,
      "start": 71.0112,
      "duration": 0.0095,
      "velocity": 107,
      "chip": "ym2612"
    },
    {
      "channel": 0,
      "note": 69,
      "start": 71.0206,
      "duration": 0.1926,
      "velocity": 98,
      "chip": "ym2612"
    },
    {
      "channel": 1,
      "note": 50,
      "start": 71.0208,
      "duration": 0.1927,
      "velocity": 107,
      "chip": "ym2612"
    },
    {
      "channel": 0,
      "note": 74,
      "start": 71.2134,
      "duration": 0.2165,
      "velocity": 98,
      "chip": "ym2612"
    },
    {
      "channel": 1,
      "note": 50,
      "start": 71.2138,
      "duration": 0.2165,
      "velocity": 107,
      "chip": "ym2612"
    },
    {
      "channel": 4,
      "note": 69,
      "start": 71.2144,
      "duration": 0.2168,
      "velocity": 98,
      "chip": "ym2612"
    },
    {
      "channel": 0,
      "note": 67,
      "start": 71.4302,
      "duration": 0.0193,
      "velocity": 98,
      "chip": "ym2612"
    },
    {
      "channel": 1,
      "note": 55,
      "start": 71.4304,
      "duration": 0.0193,
      "velocity": 107,
      "chip": "ym2612"
    },
    {
      "channel": 2,
      "note": 71,
      "start": 71.4307,
      "duration": 0.0192,
      "velocity": 102,
      "chip": "ym2612"
    },
    {
      "channel": 3,
      "note": 62,
      "start": 71.4311,
      "duration": 0.0191,
      "velocity": 102,
      "chip": "ym2612"
    },
    {
      "channel": 4,
      "note": 74,
      "start": 71.4313,
      "duration": 0.019,
      "velocity": 98,
      "chip": "ym2612"
    },
    {
      "channel": 0,
      "note": 67,
      "start": 71.4495,
      "duration": 0.0189,
      "velocity": 98,
      "chip": "ym2612"
    },
    {
      "channel": 1,
      "note": 55,
      "start": 71.4497,
      "duration": 0.0189,
      "velocity": 107,
      "chip": "ym2612"
    },
    {
      "channel": 2,
      "note": 71,
      "start": 71.4499,
      "duration": 0.0189,
      "velocity": 102,
      "chip": "ym2612"
    },
    {
      "channel": 3,
      "note": 62,
      "start": 71.4502,
      "duration": 0.0189,
      "velocity": 102,
      "chip": "ym2612"
    },
    {
      "channel": 4,
      "note": 67,
      "start": 71.4505,
      "duration": 0.0188,
      "velocity": 98,
      "chip": "ym2612"
    },
    {
      "channel": 0,
      "note": 62,
      "start": 71.4685,
      "duration": 0.1999,
      "velocity": 98,
      "chip": "ym2612"
    },
    {
      "channel": 1,
      "note": 55,
      "start": 71.4688,
      "duration": 0.2,
      "velocity": 107,
      "chip": "ym2612"
    },
    {
      "channel": 2,
      "note": 71,
      "start": 71.469,
      "duration": 0.2,
      "velocity": 102,
      "chip": "ym2612"
    },
    {
      "channel": 3,
      "note": 62,
      "start": 71.4692,
      "duration": 0.2,
      "velocity": 102,
      "chip": "ym2612"
    },
    {
      "channel": 4,
      "note": 67,
      "start": 71.4693,
      "duration": 0.2001,
      "velocity": 98,
      "chip": "ym2612"
    },
    {
      "channel": 0,
      "note": 71,
      "start": 71.6687,
      "duration": 0.2173,
      "velocity": 98,
      "chip": "ym2612"
    },
    {
      "channel": 1,
      "note": 55,
      "start": 71.669,
      "duration": 0.0173,
      "velocity": 107,
      "chip": "ym2612"
    },
    {
      "channel": 2,
      "note": 71,
      "start": 71.6692,
      "duration": 0.0173,
      "velocity": 102,
      "chip": "ym2612"
    },
    {
      "channel": 3,
      "note": 62,
      "start": 71.6694,
      "duration": 0.0174,
      "velocity": 102,
      "chip": "ym2612"
    },
    {
      "channel": 4,
      "note": 62,
      "start": 71.6696,
      "duration": 0.0173,
      "velocity": 98,
      "chip": "ym2612"
    },
    {
      "channel": 1,
      "note": 54,
      "start": 71.6865,
      "duration": 0.3831,
      "velocity": 107,
      "chip": "ym2612"
    },
    {
      "channel": 2,
      "note": 71,
      "start": 71.6867,
      "duration": 0.4166,
      "velocity": 102,
      "chip": "ym2612"
    },
    {
      "channel": 3,
      "note": 62,
      "start": 71.6869,
      "duration": 0.4166,
      "velocity": 102,
      "chip": "ym2612"
    },
    {
      "channel": 4,
      "note": 71,
      "start": 71.6872,
      "duration": 0.4166,
      "velocity": 98,
      "chip": "ym2612"
    },
    {
      "channel": 0,
      "note": 66,
      "start": 71.8862,
      "duration": 0.2165,
      "velocity": 98,
      "chip": "ym2612"
    },
    {
      "channel": 0,
      "note": 62,
      "start": 72.103,
      "duration": 0.1998,
      "velocity": 98,
      "chip": "ym2612"
    },
    {
      "channel": 1,
      "note": 54,
      "start": 72.1032,
      "duration": 0.1998,
      "velocity": 107,
      "chip": "ym2612"
    },
    {
      "channel": 2,
      "note": 71,
      "start": 72.1034,
      "duration": 0.1999,
      "velocity": 102,
      "chip": "ym2612"
    },
    {
      "channel": 3,
      "note": 62,
      "start": 72.1037,
      "duration": 0.2,
      "velocity": 102,
      "chip": "ym2612"
    },
    {
      "channel": 4,
      "note": 66,
      "start": 72.1039,
      "duration": 0.1999,
      "velocity": 98,
      "chip": "ym2612"
    },
    {
      "channel": 0,
      "note": 57,
      "start": 72.303,
      "duration": 0.0178,
      "velocity": 98,
      "chip": "ym2612"
    },
    {
      "channel": 1,
      "note": 54,
      "start": 72.3033,
      "duration": 0.0178,
      "velocity": 107,
      "chip": "ym2612"
    },
    {
      "channel": 2,
      "note": 71,
      "start": 72.3034,
      "duration": 0.0178,
      "velocity": 102,
      "chip": "ym2612"
    },
    {
      "channel": 3,
      "note": 62,
      "start": 72.3038,
      "duration": 0.0178,
      "velocity": 102,
      "chip": "ym2612"
    },
    {
      "channel": 4,
      "note": 62,
      "start": 72.304,
      "duration": 0.0177,
      "velocity": 98,
      "chip": "ym2612"
    },
    {
      "channel": 0,
      "note": 68,
      "start": 72.3209,
      "duration": 0.2001,
      "velocity": 98,
      "chip": "ym2612"
    },
    {
      "channel": 1,
      "note": 52,
      "start": 72.3212,
      "duration": 0.2001,
      "velocity": 107,
      "chip": "ym2612"
    },
    {
      "channel": 2,
      "note": 71,
      "start": 72.3215,
      "duration": 0.2001,
      "velocity": 102,
      "chip": "ym2612"
    },
    {
      "channel": 3,
      "note": 62,
      "start": 72.3217,
      "duration": 0.2001,
      "velocity": 102,
      "chip": "ym2612"
    },
    {
      "channel": 4,
      "note": 57,
      "start": 72.3219,
      "duration": 0.1999,
      "velocity": 98,
      "chip": "ym2612"
    },
    {
      "channel": 0,
      "note": 68,
      "start": 72.5211,
      "duration": 0.2165,
      "velocity": 98,
      "chip": "ym2612"
    },
    {
      "channel": 1,
      "note": 52,
      "start": 72.5213,
      "duration": 0.2166,
      "velocity": 107,
      "chip": "ym2612"
    },
    {
      "channel": 2,
      "note": 71,
      "start": 72.5216,
      "duration": 0.2166,
      "velocity": 102,
      "chip": "ym2612"
    },
    {
      "channel": 3,
      "note": 62,
      "start": 72.5218,
      "duration": 0.2166,
      "velocity": 102,
      "chip": "ym2612"
    },
    {
      "channel": 4,
      "note": 68,
      "start": 72.5221,
      "duration": 0.2166,
      "velocity": 98,
      "chip": "ym2612"
    },
    {
      "channel": 0,
      "note": 64,
      "start": 72.7379,
      "duration": 0.0833,
      "velocity": 98,
      "chip": "ym2612"
    },
    {
      "channel": 1,
      "note": 52,
      "start": 72.7381,
      "duration": 0.2,
      "velocity": 107,
      "chip": "ym2612"
    },
    {
      "channel": 2,
      "note": 71,
      "start": 72.7383,
      "duration": 0.2001,
      "velocity": 102,
      "chip": "ym2612"
    },
    {
      "channel": 3,
      "note": 62,
      "start": 72.7385,
      "duration": 0.2001,
      "velocity": 102,
      "chip": "ym2612"
    },
    {
      "channel": 4,
      "note": 68,
      "start": 72.7387,
      "duration": 0.2002,
      "velocity": 98,
      "chip": "ym2612"
    },
    {
      "channel": 0,
      "note": 68,
      "start": 72.8214,
      "duration": 0.1164,
      "velocity": 98,
      "chip": "ym2612"
    },
    {
      "channel": 0,
      "note": 71,
      "start": 72.938,
      "duration": 0.0181,
      "velocity": 98,
      "chip": "ym2612"
    },
    {
      "channel": 1,
      "note": 52,
      "start": 72.9383,
      "duration": 0.0181,
      "velocity": 107,
      "chip": "ym2612"
    },
    {
      "channel": 2,
      "note": 71,
      "start": 72.9385,
      "duration": 0.018,
      "velocity": 102,
      "chip": "ym2612"
    },
    {
      "channel": 3,
      "note": 62,
      "start": 72.9388,
      "duration": 0.018,
      "velocity": 102,
      "chip": "ym2612"
    },
    {
      "channel": 4,
      "note": 64,
      "start": 72.939,
      "duration": 0.0077,
      "velocity": 98,
      "chip": "ym2612"
    },
    {
      "channel": 4,
      "note": 68,
      "start": 72.947,
      "duration": 0.01,
      "velocity": 98,
      "chip": "ym2612"
    },
    {
      "channel": 0,
      "note": 67,
      "start": 72.9563,
      "duration": 0.0827,
      "velocity": 98,
      "chip": "ym2612"
    },
    {
      "channel": 1,
      "note": 48,
      "start": 72.9565,
      "duration": 0.3827,
      "velocity": 107,
      "chip": "ym2612"
    },
    {
      "channel": 2,
      "note": 67,
      "start": 72.9567,
      "duration": 0.4162,
      "velocity": 102,
      "chip": "ym2612"
    },
    {
      "channel": 3,
      "note": 64,
      "start": 72.957,
      "duration": 0.4162,
      "velocity": 102,
      "chip": "ym2612"
    },
    {
      "channel": 4,
      "note": 71,
      "start": 72.9572,
      "duration": 0.1994,
      "velocity": 98,
      "chip": "ym2612"
    },
    {
      "channel": 0,
      "note": 72,
      "start": 73.0393,
      "duration": 0.1165,
      "velocity": 98,
      "chip": "ym2612"
    },
    {
      "channel": 0,
      "note": 76,
      "start": 73.1561,
      "duration": 0.4343,
      "velocity": 98,
      "chip": "ym2612"
    },
    {
      "channel": 4,
      "note": 67,
      "start": 73.1568,
      "duration": 0.0996,
      "velocity": 98,
      "chip": "ym2612"
    },
    {
      "channel": 4,
      "note": 72,
      "start": 73.2567,
      "duration": 0.1167,
      "velocity": 98,
      "chip": "ym2612"
    },
    {
      "channel": 1,
      "note": 48,
      "start": 73.3729,
      "duration": 0.2,
      "velocity": 107,
      "chip": "ym2612"
    },
    {
      "channel": 2,
      "note": 67,
      "start": 73.3731,
      "duration": 0.2,
      "velocity": 102,
      "chip": "ym2612"
    },
    {
      "channel": 3,
      "note": 64,
      "start": 73.3734,
      "duration": 0.2,
      "velocity": 102,
      "chip": "ym2612"
    },
    {
      "channel": 4,
      "note": 76,
      "start": 73.3736,
      "duration": 0.2346,
      "velocity": 98,
      "chip": "ym2612"
    },
    {
      "channel": 1,
      "note": 48,
      "start": 73.573,
      "duration": 0.0176,
      "velocity": 107,
      "chip": "ym2612"
    },
    {
      "channel": 2,
      "note": 67,
      "start": 73.5733,
      "duration": 0.0176,
      "velocity": 102,
      "chip": "ym2612"
    },
    {
      "channel": 3,
      "note": 64,
      "start": 73.5736,
      "duration": 0.0176,
      "velocity": 102,
      "chip": "ym2612"
    },
    {
      "channel": 0,
      "note": 72,
      "start": 73.5906,
      "duration": 0.0171,
      "velocity": 98,
      "chip": "ym2612"
    },
    {
      "channel": 1,
      "note": 53,
      "start": 73.5909,
      "duration": 0.0169,
      "velocity": 107,
      "chip": "ym2612"
    },
    {
      "channel": 2,
      "note": 65,
      "start": 73.5911,
      "duration": 0.0169,
      "velocity": 102,
      "chip": "ym2612"
    },
    {
      "channel": 3,
      "note": 60,
      "start": 73.5914,
      "duration": 0.0167,
      "velocity": 102,
      "chip": "ym2612"
    },
    {
      "channel": 0,
      "note": 72,
      "start": 73.6077,
      "duration": 0.1129,
      "velocity": 98,
      "chip": "ym2612"
    },
    {
      "channel": 1,
      "note": 53,
      "start": 73.6078,
      "duration": 0.113,
      "velocity": 107,
      "chip": "ym2612"
    },
    {
      "channel": 2,
      "note": 65,
      "start": 73.608,
      "duration": 0.1131,
      "velocity": 102,
      "chip": "ym2612"
    },
    {
      "channel": 3,
      "note": 60,
      "start": 73.6081,
      "duration": 0.1132,
      "velocity": 102,
      "chip": "ym2612"
    },
    {
      "channel": 4,
      "note": 72,
      "start": 73.6084,
      "duration": 0.1133,
      "velocity": 98,
      "chip": "ym2612"
    },
    {
      "channel": 0,
      "note": 72,
      "start": 73.7207,
      "duration": 0.2,
      "velocity": 98,
      "chip": "ym2612"
    },
    {
      "channel": 1,
      "note": 53,
      "start": 73.721,
      "duration": 0.2001,
      "velocity": 107,
      "chip": "ym2612"
    },
    {
      "channel": 2,
      "note": 65,
      "start": 73.7212,
      "duration": 0.2001,
      "velocity": 102,
      "chip": "ym2612"
    },
    {
      "channel": 3,
      "note": 60,
      "start": 73.7215,
      "duration": 0.2001,
      "velocity": 102,
      "chip": "ym2612"
    },
    {
      "channel": 4,
      "note": 72,
      "start": 73.7217,
      "duration": 0.2001,
      "velocity": 98,
      "chip": "ym2612"
    },
    {
      "channel": 0,
      "note": 77,
      "start": 73.921,
      "duration": 0.2003,
      "velocity": 98,
      "chip": "ym2612"
    },
    {
      "channel": 1,
      "note": 53,
      "start": 73.9212,
      "duration": 0.2004,
      "velocity": 107,
      "chip": "ym2612"
    },
    {
      "channel": 2,
      "note": 65,
      "start": 73.9215,
      "duration": 0.2004,
      "velocity": 102,
      "chip": "ym2612"
    },
    {
      "channel": 3,
      "note": 60,
      "start": 73.9217,
      "duration": 0.2004,
      "velocity": 102,
      "chip": "ym2612"
    },
    {
      "channel": 4,
      "note": 72,
      "start": 73.922,
      "duration": 0.2004,
      "velocity": 98,
      "chip": "ym2612"
    },
    {
      "channel": 0,
      "note": 76,
      "start": 74.1216,
      "duration": 0.0182,
      "velocity": 98,
      "chip": "ym2612"
    },
    {
      "channel": 1,
      "note": 53,
      "start": 74.1219,
      "duration": 0.0183,
      "velocity": 107,
      "chip": "ym2612"
    },
    {
      "channel": 2,
      "note": 65,
      "start": 74.1221,
      "duration": 0.0184,
      "velocity": 102,
      "chip": "ym2612"
    },
    {
      "channel": 3,
      "note": 60,
      "start": 74.1224,
      "duration": 0.0184,
      "velocity": 102,
      "chip": "ym2612"
    },
    {
      "channel": 4,
      "note": 77,
      "start": 74.1226,
      "duration": 0.0184,
      "velocity": 98,
      "chip": "ym2612"
    },
    {
      "channel": 0,
      "note": 74,
      "start": 74.14,
      "duration": 0.0198,
      "velocity": 98,
      "chip": "ym2612"
    },
    {
      "channel": 1,
      "note": 53,
      "start": 74.1404,
      "duration": 0.0197,
      "velocity": 107,
      "chip": "ym2612"
    },
    {
      "channel": 2,
      "note": 65,
      "start": 74.1407,
      "duration": 0.0197,
      "velocity": 102,
      "chip": "ym2612"
    },
    {
      "channel": 3,
      "note": 60,
      "start": 74.1409,
      "duration": 0.0198,
      "velocity": 102,
      "chip": "ym2612"
    },
    {
      "channel": 4,
      "note": 76,
      "start": 74.1412,
      "duration": 0.0198,
      "velocity": 98,
      "chip": "ym2612"
    },
    {
      "channel": 0,
      "note": 72,
      "start": 74.1601,
      "duration": 0.0193,
      "velocity": 98,
      "chip": "ym2612"
    },
    {
      "channel": 1,
      "note": 53,
      "start": 74.1603,
      "duration": 0.0193,
      "velocity": 107,
      "chip": "ym2612"
    },
    {
      "channel": 2,
      "note": 65,
      "start": 74.1607,
      "duration": 0.0192,
      "velocity": 102,
      "chip": "ym2612"
    },
    {
      "channel": 3,
      "note": 60,
      "start": 74.161,
      "duration": 0.0193,
      "velocity": 102,
      "chip": "ym2612"
    },
    {
      "channel": 4,
      "note": 74,
      "start": 74.1613,
      "duration": 0.0193,
      "velocity": 98,
      "chip": "ym2612"
    },
    {
      "channel": 0,
      "note": 70,
      "start": 74.1796,
      "duration": 0.0205,
      "velocity": 98,
      "chip": "ym2612"
    },
    {
      "channel": 1,
      "note": 53,
      "start": 74.1798,
      "duration": 0.0205,
      "velocity": 107,
      "chip": "ym2612"
    },
    {
      "channel": 2,
      "note": 65,
      "start": 74.1801,
      "duration": 0.0205,
      "velocity": 102,
      "chip": "ym2612"
    },
    {
      "channel": 3,
      "note": 60,
      "start": 74.1805,
      "duration": 0.0203,
      "velocity": 102,
      "chip": "ym2612"
    },
    {
      "channel": 4,
      "note": 72,
      "start": 74.1808,
      "duration": 0.0202,
      "velocity": 98,
      "chip": "ym2612"
    },
    {
      "channel": 0,
      "note": 71,
      "start": 74.2003,
      "duration": 0.2,
      "velocity": 98,
      "chip": "ym2612"
    },
    {
      "channel": 1,
      "note": 52,
      "start": 74.2005,
      "duration": 0.2,
      "velocity": 107,
      "chip": "ym2612"
    },
    {
      "channel": 2,
      "note": 64,
      "start": 74.2007,
      "duration": 0.2001,
      "velocity": 102,
      "chip": "ym2612"
    },
    {
      "channel": 3,
      "note": 59,
      "start": 74.201,
      "duration": 0.2,
      "velocity": 102,
      "chip": "ym2612"
    },
    {
      "channel": 4,
      "note": 70,
      "start": 74.2012,
      "duration": 0.1999,
      "velocity": 98,
      "chip": "ym2612"
    },
    {
      "channel": 0,
      "note": 71,
      "start": 74.4003,
      "duration": 0.2165,
      "velocity": 98,
      "chip": "ym2612"
    },
    {
      "channel": 1,
      "note": 52,
      "start": 74.4005,
      "duration": 0.2166,
      "velocity": 107,
      "chip": "ym2612"
    },
    {
      "channel": 2,
      "note": 64,
      "start": 74.4008,
      "duration": 0.2166,
      "velocity": 102,
      "chip": "ym2612"
    },
    {
      "channel": 3,
      "note": 59,
      "start": 74.401,
      "duration": 0.2166,
      "velocity": 102,
      "chip": "ym2612"
    },
    {
      "channel": 4,
      "note": 71,
      "start": 74.4013,
      "duration": 0.2167,
      "velocity": 98,
      "chip": "ym2612"
    },
    {
      "channel": 0,
      "note": 74,
      "start": 74.6171,
      "duration": 0.1999,
      "velocity": 98,
      "chip": "ym2612"
    },
    {
      "channel": 1,
      "note": 52,
      "start": 74.6173,
      "duration": 0.2,
      "velocity": 107,
      "chip": "ym2612"
    },
    {
      "channel": 2,
      "note": 64,
      "start": 74.6175,
      "duration": 0.2001,
      "velocity": 102,
      "chip": "ym2612"
    },
    {
      "channel": 3,
      "note": 59,
      "start": 74.6177,
      "duration": 0.2,
      "velocity": 102,
      "chip": "ym2612"
    },
    {
      "channel": 4,
      "note": 71,
      "start": 74.618,
      "duration": 0.2,
      "velocity": 98,
      "chip": "ym2612"
    },
    {
      "channel": 0,
      "note": 80,
      "start": 74.8172,
      "duration": 0.201,
      "velocity": 98,
      "chip": "ym2612"
    },
    {
      "channel": 1,
      "note": 52,
      "start": 74.8175,
      "duration": 0.1675,
      "velocity": 107,
      "chip": "ym2612"
    },
    {
      "channel": 2,
      "note": 64,
      "start": 74.8177,
      "duration": 0.0178,
      "velocity": 102,
      "chip": "ym2612"
    },
    {
      "channel": 3,
      "note": 59,
      "start": 74.8179,
      "duration": 0.0177,
      "velocity": 102,
      "chip": "ym2612"
    },
    {
      "channel": 4,
      "note": 74,
      "start": 74.8182,
      "duration": 0.0175,
      "velocity": 98,
      "chip": "ym2612"
    },
    {
      "channel": 4,
      "note": 80,
      "start": 74.8359,
      "duration": 0.3991,
      "velocity": 98,
      "chip": "ym2612"
    },
    {
      "channel": 0,
      "note": 78,
      "start": 75.2736,
      "duration": 0.049,
      "velocity": 98,
      "chip": "ym2612"
    },
    {
      "channel": 1,
      "note": 66,
      "start": 75.2746,
      "duration": 41.2912,
      "velocity": 107,
      "chip": "ym2612"
    },
    {
      "channel": 2,
      "note": 85,
      "start": 75.2758,
      "duration": 0.0471,
      "velocity": 102,
      "chip": "ym2612"
    },
    {
      "channel": 3,
      "note": 85,
      "start": 75.4073,
      "duration": 0.0659,
      "velocity": 102,
      "chip": "ym2612"
    },
    {
      "channel": 0,
      "note": 82,
      "start": 75.4729,
      "duration": 0.0665,
      "velocity": 98,
      "chip": "ym2612"
    },
    {
      "channel": 4,
      "note": 78,
      "start": 75.4749,
      "duration": 0.0648,
      "velocity": 98,
      "chip": "ym2612"
    },
    {
      "channel": 0,
      "note": 83,
      "start": 75.5729,
      "duration": 0.0665,
      "velocity": 98,
      "chip": "ym2612"
    }
  ]
}