{
  "track_name": "16 - Track 20",
  "duration_sec": 108.16,
  "sample_rate": 44100,
  "note_count": 1440,
  "unique_pitches": 40,
  "pitch_range": 71,
  "avg_note_duration": 0.3877,
  "reconstruction_stats": {
    "notes_reconstructed": 1440,
    "keyon_events": 1440,
    "keyoff_events": 1440,
    "orphan_keyons": 0,
    "unique_pitches": 40,
    "pitch_range": 71,
    "avg_duration_sec": 0.3877
  },
  "metadata": {
    "source": "H\\Honoo no Toukyuuji Dodge Danpei\\16 - Track 20.vgz"
  },
  "notes": [
    {
      "channel": 3,
      "note": 69,
      "start": 0.0022,
      "duration": 1.3163,
      "velocity": 88,
      "chip": "ym2612"
    },
    {
      "channel": 0,
      "note": 76,
      "start": 0.3187,
      "duration": 0.1581,
      "velocity": 88,
      "chip": "ym2612"
    },
    {
      "channel": 4,
      "note": 76,
      "start": 0.3199,
      "duration": 0.1581,
      "velocity": 88,
      "chip": "ym2612"
    },
    {
      "channel": 5,
      "note": 76,
      "start": 0.4309,
      "duration": 0.1583,
      "velocity": 88,
      "chip": "ym2612"
    },
    {
      "channel": 0,
      "note": 85,
      "start": 0.4774,
      "duration": 0.174,
      "velocity": 88,
      "chip": "ym2612"
    },
    {
      "channel": 4,
      "note": 85,
      "start": 0.4786,
      "duration": 0.1741,
      "velocity": 88,
      "chip": "ym2612"
    },
    {
      "channel": 5,
      "note": 85,
      "start": 0.5903,
      "duration": 0.1735,
      "velocity": 88,
      "chip": "ym2612"
    },
    {
      "channel": 0,
      "note": 81,
      "start": 0.6521,
      "duration": 0.1581,
      "velocity": 88,
      "chip": "ym2612"
    },
    {
      "channel": 4,
      "note": 81,
      "start": 0.6533,
      "duration": 0.158,
      "velocity": 88,
      "chip": "ym2612"
    },
    {
      "channel": 5,
      "note": 81,
      "start": 0.7644,
      "duration": 0.1581,
      "velocity": 88,
      "chip": "ym2612"
    },
    {
      "channel": 0,
      "note": 76,
      "start": 0.8108,
      "duration": 0.174,
      "velocity": 88,
      "chip": "ym2612"
    },
    {
      "channel": 4,
      "note": 76,
      "start": 0.812,
      "duration": 0.1741,
      "velocity": 88,
      "chip": "ym2612"
    },
    {
      "channel": 5,
      "note": 76,
      "start": 0.9235,
      "duration": 0.1736,
      "velocity": 88,
      "chip": "ym2612"
    },
    {
      "channel": 0,
      "note": 85,
      "start": 0.9854,
      "duration": 0.3328,
      "velocity": 88,
      "chip": "ym2612"
    },
    {
      "channel": 4,
      "note": 85,
      "start": 0.9867,
      "duration": 0.3325,
      "velocity": 88,
      "chip": "ym2612"
    },
    {
      "channel": 5,
      "note": 85,
      "start": 1.0977,
      "duration": 0.3322,
      "velocity": 88,
      "chip": "ym2612"
    },
    {
      "channel": 3,
      "note": 69,
      "start": 1.319,
      "duration": 1.3337,
      "velocity": 88,
      "chip": "ym2612"
    },
    {
      "channel": 0,
      "note": 76,
      "start": 1.6522,
      "duration": 0.1583,
      "velocity": 88,
      "chip": "ym2612"
    },
    {
      "channel": 4,
      "note": 76,
      "start": 1.6534,
      "duration": 0.1582,
      "velocity": 88,
      "chip": "ym2612"
    },
    {
      "channel": 5,
      "note": 76,
      "start": 1.7645,
      "duration": 0.1581,
      "velocity": 88,
      "chip": "ym2612"
    },
    {
      "channel": 0,
      "note": 85,
      "start": 1.811,
      "duration": 0.174,
      "velocity": 88,
      "chip": "ym2612"
    },
    {
      "channel": 4,
      "note": 85,
      "start": 1.8122,
      "duration": 0.1739,
      "velocity": 88,
      "chip": "ym2612"
    },
    {
      "channel": 5,
      "note": 85,
      "start": 1.9236,
      "duration": 0.1737,
      "velocity": 88,
      "chip": "ym2612"
    },
    {
      "channel": 0,
      "note": 81,
      "start": 1.9856,
      "duration": 0.1581,
      "velocity": 88,
      "chip": "ym2612"
    },
    {
      "channel": 4,
      "note": 81,
      "start": 1.9868,
      "duration": 0.1581,
      "velocity": 88,
      "chip": "ym2612"
    },
    {
      "channel": 5,
      "note": 81,
      "start": 2.0979,
      "duration": 0.1581,
      "velocity": 88,
      "chip": "ym2612"
    },
    {
      "channel": 0,
      "note": 76,
      "start": 2.1443,
      "duration": 0.1741,
      "velocity": 88,
      "chip": "ym2612"
    },
    {
      "channel": 4,
      "note": 76,
      "start": 2.1455,
      "duration": 0.174,
      "velocity": 88,
      "chip": "ym2612"
    },
    {
      "channel": 5,
      "note": 76,
      "start": 2.257,
      "duration": 0.1737,
      "velocity": 88,
      "chip": "ym2612"
    },
    {
      "channel": 0,
      "note": 85,
      "start": 2.319,
      "duration": 0.3331,
      "velocity": 88,
      "chip": "ym2612"
    },
    {
      "channel": 4,
      "note": 85,
      "start": 2.3202,
      "duration": 0.3333,
      "velocity": 88,
      "chip": "ym2612"
    },
    {
      "channel": 5,
      "note": 85,
      "start": 2.4313,
      "duration": 0.3324,
      "velocity": 88,
      "chip": "ym2612"
    },
    {
      "channel": 3,
      "note": 69,
      "start": 2.6531,
      "duration": 1.3325,
      "velocity": 88,
      "chip": "ym2612"
    },
    {
      "channel": 0,
      "note": 76,
      "start": 2.9858,
      "duration": 0.158,
      "velocity": 88,
      "chip": "ym2612"
    },
    {
      "channel": 4,
      "note": 76,
      "start": 2.9871,
      "duration": 0.158,
      "velocity": 88,
      "chip": "ym2612"
    },
    {
      "channel": 5,
      "note": 76,
      "start": 3.098,
      "duration": 0.1586,
      "velocity": 88,
      "chip": "ym2612"
    },
    {
      "channel": 0,
      "note": 85,
      "start": 3.1445,
      "duration": 0.174,
      "velocity": 88,
      "chip": "ym2612"
    },
    {
      "channel": 4,
      "note": 85,
      "start": 3.1457,
      "duration": 0.174,
      "velocity": 88,
      "chip": "ym2612"
    },
    {
      "channel": 5,
      "note": 85,
      "start": 3.2572,
      "duration": 0.1737,
      "velocity": 88,
      "chip": "ym2612"
    },
    {
      "channel": 0,
      "note": 81,
      "start": 3.3191,
      "duration": 0.1582,
      "velocity": 88,
      "chip": "ym2612"
    },
    {
      "channel": 4,
      "note": 81,
      "start": 3.3203,
      "duration": 0.1582,
      "velocity": 88,
      "chip": "ym2612"
    },
    {
      "channel": 5,
      "note": 81,
      "start": 3.4315,
      "duration": 0.1585,
      "velocity": 88,
      "chip": "ym2612"
    },
    {
      "channel": 0,
      "note": 76,
      "start": 3.4779,
      "duration": 0.174,
      "velocity": 88,
      "chip": "ym2612"
    },
    {
      "channel": 4,
      "note": 76,
      "start": 3.4791,
      "duration": 0.174,
      "velocity": 88,
      "chip": "ym2612"
    },
    {
      "channel": 5,
      "note": 76,
      "start": 3.5906,
      "duration": 0.1735,
      "velocity": 88,
      "chip": "ym2612"
    },
    {
      "channel": 0,
      "note": 85,
      "start": 3.6526,
      "duration": 0.3327,
      "velocity": 88,
      "chip": "ym2612"
    },
    {
      "channel": 4,
      "note": 85,
      "start": 3.6538,
      "duration": 0.3325,
      "velocity": 88,
      "chip": "ym2612"
    },
    {
      "channel": 5,
      "note": 85,
      "start": 3.7648,
      "duration": 0.3322,
      "velocity": 88,
      "chip": "ym2612"
    },
    {
      "channel": 3,
      "note": 69,
      "start": 3.9861,
      "duration": 1.3403,
      "velocity": 88,
      "chip": "ym2612"
    },
    {
      "channel": 0,
      "note": 76,
      "start": 4.3192,
      "duration": 0.1582,
      "velocity": 88,
      "chip": "ym2612"
    },
    {
      "channel": 4,
      "note": 76,
      "start": 4.3204,
      "duration": 0.1582,
      "velocity": 88,
      "chip": "ym2612"
    },
    {
      "channel": 5,
      "note": 76,
      "start": 4.4319,
      "duration": 0.1583,
      "velocity": 88,
      "chip": "ym2612"
    },
    {
      "channel": 0,
      "note": 85,
      "start": 4.4781,
      "duration": 0.174,
      "velocity": 88,
      "chip": "ym2612"
    },
    {
      "channel": 4,
      "note": 85,
      "start": 4.4793,
      "duration": 0.1746,
      "velocity": 88,
      "chip": "ym2612"
    },
    {
      "channel": 5,
      "note": 85,
      "start": 4.5907,
      "duration": 0.1739,
      "velocity": 88,
      "chip": "ym2612"
    },
    {
      "channel": 0,
      "note": 81,
      "start": 4.6526,
      "duration": 0.1581,
      "velocity": 88,
      "chip": "ym2612"
    },
    {
      "channel": 1,
      "note": 52,
      "start": 4.6534,
      "duration": 0.6721,
      "velocity": 110,
      "chip": "ym2612"
    },
    {
      "channel": 4,
      "note": 81,
      "start": 4.6545,
      "duration": 0.1577,
      "velocity": 88,
      "chip": "ym2612"
    },
    {
      "channel": 5,
      "note": 81,
      "start": 4.7652,
      "duration": 0.1586,
      "velocity": 88,
      "chip": "ym2612"
    },
    {
      "channel": 0,
      "note": 76,
      "start": 4.8113,
      "duration": 0.1744,
      "velocity": 88,
      "chip": "ym2612"
    },
    {
      "channel": 4,
      "note": 76,
      "start": 4.8128,
      "duration": 0.1744,
      "velocity": 88,
      "chip": "ym2612"
    },
    {
      "channel": 5,
      "note": 76,
      "start": 4.9244,
      "duration": 0.1735,
      "velocity": 88,
      "chip": "ym2612"
    },
    {
      "channel": 0,
      "note": 85,
      "start": 4.9863,
      "duration": 0.3383,
      "velocity": 102,
      "chip": "ym2612"
    },
    {
      "channel": 4,
      "note": 85,
      "start": 4.9878,
      "duration": 0.3417,
      "velocity": 82,
      "chip": "ym2612"
    },
    {
      "channel": 5,
      "note": 85,
      "start": 5.0985,
      "duration": 0.3351,
      "velocity": 102,
      "chip": "ym2612"
    },
    {
      "channel": 0,
      "note": 88,
      "start": 5.3253,
      "duration": 0.3297,
      "velocity": 102,
      "chip": "ym2612"
    },
    {
      "channel": 1,
      "note": 57,
      "start": 5.3261,
      "duration": 1.3272,
      "velocity": 110,
      "chip": "ym2612"
    },
    {
      "channel": 2,
      "note": 107,
      "start": 5.3315,
      "duration": 0.1316,
      "velocity": 127,
      "chip": "ym2612"
    },
    {
      "channel": 5,
      "note": 88,
      "start": 5.4343,
      "duration": 0.3304,
      "velocity": 102,
      "chip": "ym2612"
    },
    {
      "channel": 0,
      "note": 88,
      "start": 5.6556,
      "duration": 0.3328,
      "velocity": 102,
      "chip": "ym2612"
    },
    {
      "channel": 3,
      "note": 76,
      "start": 5.6571,
      "duration": 0.1575,
      "velocity": 88,
      "chip": "ym2612"
    },
    {
      "channel": 4,
      "note": 88,
      "start": 5.6579,
      "duration": 0.3327,
      "velocity": 82,
      "chip": "ym2612"
    },
    {
      "channel": 2,
      "note": 107,
      "start": 5.6598,
      "duration": 0.1373,
      "velocity": 127,
      "chip": "ym2612"
    },
    {
      "channel": 5,
      "note": 88,
      "start": 5.7652,
      "duration": 0.333,
      "velocity": 102,
      "chip": "ym2612"
    },
    {
      "channel": 3,
      "note": 85,
      "start": 5.8152,
      "duration": 0.1744,
      "velocity": 88,
      "chip": "ym2612"
    },
    {
      "channel": 2,
      "note": 107,
      "start": 5.8173,
      "duration": 0.1387,
      "velocity": 127,
      "chip": "ym2612"
    },
    {
      "channel": 0,
      "note": 88,
      "start": 5.989,
      "duration": 0.3328,
      "velocity": 102,
      "chip": "ym2612"
    },
    {
      "channel": 3,
      "note": 81,
      "start": 5.9905,
      "duration": 0.1547,
      "velocity": 88,
      "chip": "ym2612"
    },
    {
      "channel": 4,
      "note": 93,
      "start": 5.9913,
      "duration": 0.3328,
      "velocity": 82,
      "chip": "ym2612"
    },
    {
      "channel": 2,
      "note": 107,
      "start": 5.9932,
      "duration": 0.1372,
      "velocity": 127,
      "chip": "ym2612"
    },
    {
      "channel": 5,
      "note": 88,
      "start": 6.0988,
      "duration": 0.3327,
      "velocity": 102,
      "chip": "ym2612"
    },
    {
      "channel": 3,
      "note": 76,
      "start": 6.1458,
      "duration": 0.1775,
      "velocity": 88,
      "chip": "ym2612"
    },
    {
      "channel": 0,
      "note": 85,
      "start": 6.3225,
      "duration": 0.158,
      "velocity": 102,
      "chip": "ym2612"
    },
    {
      "channel": 3,
      "note": 85,
      "start": 6.324,
      "duration": 0.6626,
      "velocity": 88,
      "chip": "ym2612"
    },
    {
      "channel": 4,
      "note": 88,
      "start": 6.3248,
      "duration": 0.3296,
      "velocity": 82,
      "chip": "ym2612"
    },
    {
      "channel": 2,
      "note": 107,
      "start": 6.3267,
      "duration": 0.1372,
      "velocity": 127,
      "chip": "ym2612"
    },
    {
      "channel": 5,
      "note": 85,
      "start": 6.4322,
      "duration": 0.1586,
      "velocity": 102,
      "chip": "ym2612"
    },
    {
      "channel": 0,
      "note": 86,
      "start": 6.4812,
      "duration": 0.1713,
      "velocity": 102,
      "chip": "ym2612"
    },
    {
      "channel": 2,
      "note": 107,
      "start": 6.484,
      "duration": 0.1386,
      "velocity": 127,
      "chip": "ym2612"
    },
    {
      "channel": 5,
      "note": 86,
      "start": 6.5915,
      "duration": 0.1733,
      "velocity": 102,
      "chip": "ym2612"
    },
    {
      "channel": 0,
      "note": 88,
      "start": 6.6532,
      "duration": 0.6688,
      "velocity": 102,
      "chip": "ym2612"
    },
    {
      "channel": 1,
      "note": 56,
      "start": 6.6539,
      "duration": 1.3362,
      "velocity": 110,
      "chip": "ym2612"
    },
    {
      "channel": 4,
      "note": 97,
      "start": 6.6551,
      "duration": 0.3323,
      "velocity": 82,
      "chip": "ym2612"
    },
    {
      "channel": 5,
      "note": 88,
      "start": 6.7655,
      "duration": 0.6661,
      "velocity": 102,
      "chip": "ym2612"
    },
    {
      "channel": 2,
      "note": 107,
      "start": 6.8169,
      "duration": 0.1396,
      "velocity": 127,
      "chip": "ym2612"
    },
    {
      "channel": 3,
      "note": 76,
      "start": 6.9872,
      "duration": 0.1608,
      "velocity": 88,
      "chip": "ym2612"
    },
    {
      "channel": 4,
      "note": 88,
      "start": 6.988,
      "duration": 0.3361,
      "velocity": 82,
      "chip": "ym2612"
    },
    {
      "channel": 3,
      "note": 85,
      "start": 7.1487,
      "duration": 0.1747,
      "velocity": 88,
      "chip": "ym2612"
    },
    {
      "channel": 2,
      "note": 107,
      "start": 7.1508,
      "duration": 0.1391,
      "velocity": 127,
      "chip": "ym2612"
    },
    {
      "channel": 0,
      "note": 88,
      "start": 7.3225,
      "duration": 0.3328,
      "velocity": 102,
      "chip": "ym2612"
    },
    {
      "channel": 3,
      "note": 80,
      "start": 7.324,
      "duration": 0.1547,
      "velocity": 88,
      "chip": "ym2612"
    },
    {
      "channel": 4,
      "note": 95,
      "start": 7.3248,
      "duration": 0.3326,
      "velocity": 82,
      "chip": "ym2612"
    },
    {
      "channel": 2,
      "note": 107,
      "start": 7.3267,
      "duration": 0.1372,
      "velocity": 127,
      "chip": "ym2612"
    },
    {
      "channel": 5,
      "note": 88,
      "start": 7.4322,
      "duration": 0.3329,
      "velocity": 102,
      "chip": "ym2612"
    },
    {
      "channel": 3,
      "note": 76,
      "start": 7.4793,
      "duration": 0.1773,
      "velocity": 88,
      "chip": "ym2612"
    },
    {
      "channel": 0,
      "note": 88,
      "start": 7.6557,
      "duration": 0.1555,
      "velocity": 102,
      "chip": "ym2612"
    },
    {
      "channel": 3,
      "note": 85,
      "start": 7.6573,
      "duration": 0.6662,
      "velocity": 88,
      "chip": "ym2612"
    },
    {
      "channel": 4,
      "note": 88,
      "start": 7.6582,
      "duration": 0.3329,
      "velocity": 82,
      "chip": "ym2612"
    },
    {
      "channel": 2,
      "note": 107,
      "start": 7.6599,
      "duration": 0.1373,
      "velocity": 127,
      "chip": "ym2612"
    },
    {
      "channel": 5,
      "note": 88,
      "start": 7.7656,
      "duration": 0.1588,
      "velocity": 102,
      "chip": "ym2612"
    },
    {
      "channel": 0,
      "note": 88,
      "start": 7.8119,
      "duration": 0.1769,
      "velocity": 102,
      "chip": "ym2612"
    },
    {
      "channel": 5,
      "note": 88,
      "start": 7.9249,
      "duration": 0.1733,
      "velocity": 102,
      "chip": "ym2612"
    },
    {
      "channel": 0,
      "note": 93,
      "start": 7.9899,
      "duration": 0.3321,
      "velocity": 102,
      "chip": "ym2612"
    },
    {
      "channel": 1,
      "note": 54,
      "start": 7.9907,
      "duration": 1.3297,
      "velocity": 110,
      "chip": "ym2612"
    },
    {
      "channel": 2,
      "note": 107,
      "start": 7.993,
      "duration": 0.1374,
      "velocity": 127,
      "chip": "ym2612"
    },
    {
      "channel": 5,
      "note": 93,
      "start": 8.0989,
      "duration": 0.3329,
      "velocity": 102,
      "chip": "ym2612"
    },
    {
      "channel": 0,
      "note": 93,
      "start": 8.3225,
      "duration": 0.1583,
      "velocity": 102,
      "chip": "ym2612"
    },
    {
      "channel": 3,
      "note": 78,
      "start": 8.3241,
      "duration": 0.1578,
      "velocity": 88,
      "chip": "ym2612"
    },
    {
      "channel": 4,
      "note": 85,
      "start": 8.3249,
      "duration": 0.3329,
      "velocity": 82,
      "chip": "ym2612"
    },
    {
      "channel": 2,
      "note": 107,
      "start": 8.3267,
      "duration": 0.1373,
      "velocity": 127,
      "chip": "ym2612"
    },
    {
      "channel": 5,
      "note": 93,
      "start": 8.4323,
      "duration": 0.1588,
      "velocity": 102,
      "chip": "ym2612"
    },
    {
      "channel": 0,
      "note": 93,
      "start": 8.4813,
      "duration": 0.1742,
      "velocity": 102,
      "chip": "ym2612"
    },
    {
      "channel": 3,
      "note": 85,
      "start": 8.4825,
      "duration": 0.1746,
      "velocity": 88,
      "chip": "ym2612"
    },
    {
      "channel": 2,
      "note": 107,
      "start": 8.4846,
      "duration": 0.1389,
      "velocity": 127,
      "chip": "ym2612"
    },
    {
      "channel": 5,
      "note": 93,
      "start": 8.5916,
      "duration": 0.1735,
      "velocity": 102,
      "chip": "ym2612"
    },
    {
      "channel": 0,
      "note": 92,
      "start": 8.6566,
      "duration": 0.3322,
      "velocity": 102,
      "chip": "ym2612"
    },
    {
      "channel": 3,
      "note": 81,
      "start": 8.6577,
      "duration": 0.1545,
      "velocity": 88,
      "chip": "ym2612"
    },
    {
      "channel": 4,
      "note": 90,
      "start": 8.6585,
      "duration": 0.3326,
      "velocity": 82,
      "chip": "ym2612"
    },
    {
      "channel": 2,
      "note": 107,
      "start": 8.6602,
      "duration": 0.1372,
      "velocity": 127,
      "chip": "ym2612"
    },
    {
      "channel": 5,
      "note": 92,
      "start": 8.7659,
      "duration": 0.3327,
      "velocity": 102,
      "chip": "ym2612"
    },
    {
      "channel": 3,
      "note": 78,
      "start": 8.8128,
      "duration": 0.1776,
      "velocity": 88,
      "chip": "ym2612"
    },
    {
      "channel": 0,
      "note": 93,
      "start": 8.9899,
      "duration": 0.3296,
      "velocity": 102,
      "chip": "ym2612"
    },
    {
      "channel": 3,
      "note": 85,
      "start": 8.991,
      "duration": 0.6626,
      "velocity": 88,
      "chip": "ym2612"
    },
    {
      "channel": 4,
      "note": 85,
      "start": 8.9919,
      "duration": 0.3295,
      "velocity": 82,
      "chip": "ym2612"
    },
    {
      "channel": 2,
      "note": 107,
      "start": 8.9937,
      "duration": 0.1372,
      "velocity": 127,
      "chip": "ym2612"
    },
    {
      "channel": 5,
      "note": 93,
      "start": 9.0993,
      "duration": 0.3327,
      "velocity": 102,
      "chip": "ym2612"
    },
    {
      "channel": 2,
      "note": 107,
      "start": 9.1507,
      "duration": 0.1396,
      "velocity": 127,
      "chip": "ym2612"
    },
    {
      "channel": 0,
      "note": 85,
      "start": 9.3202,
      "duration": 1.3356,
      "velocity": 102,
      "chip": "ym2612"
    },
    {
      "channel": 1,
      "note": 52,
      "start": 9.3209,
      "duration": 1.3362,
      "velocity": 110,
      "chip": "ym2612"
    },
    {
      "channel": 4,
      "note": 93,
      "start": 9.3221,
      "duration": 0.3323,
      "velocity": 82,
      "chip": "ym2612"
    },
    {
      "channel": 5,
      "note": 85,
      "start": 9.4327,
      "duration": 1.3326,
      "velocity": 102,
      "chip": "ym2612"
    },
    {
      "channel": 2,
      "note": 107,
      "start": 9.4841,
      "duration": 0.1396,
      "velocity": 127,
      "chip": "ym2612"
    },
    {
      "channel": 3,
      "note": 78,
      "start": 9.6543,
      "duration": 0.1609,
      "velocity": 88,
      "chip": "ym2612"
    },
    {
      "channel": 4,
      "note": 85,
      "start": 9.6551,
      "duration": 0.3358,
      "velocity": 82,
      "chip": "ym2612"
    },
    {
      "channel": 3,
      "note": 85,
      "start": 9.8157,
      "duration": 0.1744,
      "velocity": 88,
      "chip": "ym2612"
    },
    {
      "channel": 2,
      "note": 107,
      "start": 9.818,
      "duration": 0.1391,
      "velocity": 127,
      "chip": "ym2612"
    },
    {
      "channel": 3,
      "note": 81,
      "start": 9.9907,
      "duration": 0.1551,
      "velocity": 88,
      "chip": "ym2612"
    },
    {
      "channel": 4,
      "note": 92,
      "start": 9.9916,
      "duration": 0.3327,
      "velocity": 82,
      "chip": "ym2612"
    },
    {
      "channel": 2,
      "note": 107,
      "start": 9.9935,
      "duration": 0.1376,
      "velocity": 127,
      "chip": "ym2612"
    },
    {
      "channel": 3,
      "note": 78,
      "start": 10.1464,
      "duration": 0.1771,
      "velocity": 88,
      "chip": "ym2612"
    },
    {
      "channel": 3,
      "note": 85,
      "start": 10.3241,
      "duration": 0.6664,
      "velocity": 88,
      "chip": "ym2612"
    },
    {
      "channel": 4,
      "note": 85,
      "start": 10.3249,
      "duration": 0.3332,
      "velocity": 82,
      "chip": "ym2612"
    },
    {
      "channel": 2,
      "note": 107,
      "start": 10.3268,
      "duration": 0.1377,
      "velocity": 127,
      "chip": "ym2612"
    },
    {
      "channel": 0,
      "note": 90,
      "start": 10.657,
      "duration": 0.1547,
      "velocity": 102,
      "chip": "ym2612"
    },
    {
      "channel": 1,
      "note": 50,
      "start": 10.6576,
      "duration": 1.3298,
      "velocity": 110,
      "chip": "ym2612"
    },
    {
      "channel": 2,
      "note": 107,
      "start": 10.6602,
      "duration": 0.1373,
      "velocity": 127,
      "chip": "ym2612"
    },
    {
      "channel": 5,
      "note": 90,
      "start": 10.7659,
      "duration": 0.1585,
      "velocity": 102,
      "chip": "ym2612"
    },
    {
      "channel": 0,
      "note": 90,
      "start": 10.8122,
      "duration": 0.1769,
      "velocity": 102,
      "chip": "ym2612"
    },
    {
      "channel": 5,
      "note": 90,
      "start": 10.9249,
      "duration": 0.174,
      "velocity": 102,
      "chip": "ym2612"
    },
    {
      "channel": 0,
      "note": 90,
      "start": 10.99,
      "duration": 0.3325,
      "velocity": 102,
      "chip": "ym2612"
    },
    {
      "channel": 3,
      "note": 78,
      "start": 10.9912,
      "duration": 0.1574,
      "velocity": 88,
      "chip": "ym2612"
    },
    {
      "channel": 4,
      "note": 81,
      "start": 10.992,
      "duration": 0.3327,
      "velocity": 82,
      "chip": "ym2612"
    },
    {
      "channel": 2,
      "note": 107,
      "start": 10.9937,
      "duration": 0.1374,
      "velocity": 127,
      "chip": "ym2612"
    },
    {
      "channel": 5,
      "note": 90,
      "start": 11.0995,
      "duration": 0.3328,
      "velocity": 102,
      "chip": "ym2612"
    },
    {
      "channel": 3,
      "note": 86,
      "start": 11.1492,
      "duration": 0.1748,
      "velocity": 88,
      "chip": "ym2612"
    },
    {
      "channel": 2,
      "note": 107,
      "start": 11.1513,
      "duration": 0.1393,
      "velocity": 127,
      "chip": "ym2612"
    },
    {
      "channel": 0,
      "note": 90,
      "start": 11.3234,
      "duration": 0.6632,
      "velocity": 102,
      "chip": "ym2612"
    },
    {
      "channel": 3,
      "note": 81,
      "start": 11.3246,
      "duration": 0.1547,
      "velocity": 88,
      "chip": "ym2612"
    },
    {
      "channel": 4,
      "note": 86,
      "start": 11.3254,
      "duration": 0.3324,
      "velocity": 82,
      "chip": "ym2612"
    },
    {
      "channel": 2,
      "note": 107,
      "start": 11.3272,
      "duration": 0.1373,
      "velocity": 127,
      "chip": "ym2612"
    },
    {
      "channel": 5,
      "note": 90,
      "start": 11.4328,
      "duration": 0.6656,
      "velocity": 102,
      "chip": "ym2612"
    },
    {
      "channel": 3,
      "note": 78,
      "start": 11.4799,
      "duration": 0.1772,
      "velocity": 88,
      "chip": "ym2612"
    },
    {
      "channel": 3,
      "note": 86,
      "start": 11.6577,
      "duration": 0.3305,
      "velocity": 88,
      "chip": "ym2612"
    },
    {
      "channel": 4,
      "note": 81,
      "start": 11.6585,
      "duration": 0.3301,
      "velocity": 82,
      "chip": "ym2612"
    },
    {
      "channel": 2,
      "note": 107,
      "start": 11.6603,
      "duration": 0.1377,
      "velocity": 127,
      "chip": "ym2612"
    },
    {
      "channel": 2,
      "note": 107,
      "start": 11.8178,
      "duration": 0.1395,
      "velocity": 127,
      "chip": "ym2612"
    },
    {
      "channel": 0,
      "note": 88,
      "start": 11.9873,
      "duration": 0.6687,
      "velocity": 102,
      "chip": "ym2612"
    },
    {
      "channel": 1,
      "note": 49,
      "start": 11.988,
      "duration": 1.3362,
      "velocity": 110,
      "chip": "ym2612"
    },
    {
      "channel": 5,
      "note": 88,
      "start": 12.0991,
      "duration": 0.6667,
      "velocity": 102,
      "chip": "ym2612"
    },
    {
      "channel": 2,
      "note": 107,
      "start": 12.1508,
      "duration": 0.1392,
      "velocity": 127,
      "chip": "ym2612"
    },
    {
      "channel": 3,
      "note": 76,
      "start": 12.3213,
      "duration": 0.1609,
      "velocity": 88,
      "chip": "ym2612"
    },
    {
      "channel": 4,
      "note": 80,
      "start": 12.3221,
      "duration": 0.3363,
      "velocity": 82,
      "chip": "ym2612"
    },
    {
      "channel": 3,
      "note": 85,
      "start": 12.4828,
      "duration": 0.1748,
      "velocity": 88,
      "chip": "ym2612"
    },
    {
      "channel": 2,
      "note": 107,
      "start": 12.4849,
      "duration": 0.139,
      "velocity": 127,
      "chip": "ym2612"
    },
    {
      "channel": 0,
      "note": 85,
      "start": 12.6571,
      "duration": 0.6663,
      "velocity": 102,
      "chip": "ym2612"
    },
    {
      "channel": 3,
      "note": 81,
      "start": 12.6582,
      "duration": 0.1546,
      "velocity": 88,
      "chip": "ym2612"
    },
    {
      "channel": 4,
      "note": 85,
      "start": 12.659,
      "duration": 0.3324,
      "velocity": 82,
      "chip": "ym2612"
    },
    {
      "channel": 2,
      "note": 107,
      "start": 12.6609,
      "duration": 0.1371,
      "velocity": 127,
      "chip": "ym2612"
    },
    {
      "channel": 5,
      "note": 85,
      "start": 12.7665,
      "duration": 0.6658,
      "velocity": 102,
      "chip": "ym2612"
    },
    {
      "channel": 3,
      "note": 76,
      "start": 12.8134,
      "duration": 0.1773,
      "velocity": 88,
      "chip": "ym2612"
    },
    {
      "channel": 3,
      "note": 85,
      "start": 12.9913,
      "duration": 0.6663,
      "velocity": 88,
      "chip": "ym2612"
    },
    {
      "channel": 4,
      "note": 80,
      "start": 12.9921,
      "duration": 0.3332,
      "velocity": 82,
      "chip": "ym2612"
    },
    {
      "channel": 2,
      "note": 107,
      "start": 12.9939,
      "duration": 0.1377,
      "velocity": 127,
      "chip": "ym2612"
    },
    {
      "channel": 0,
      "note": 83,
      "start": 13.3241,
      "duration": 0.3326,
      "velocity": 102,
      "chip": "ym2612"
    },
    {
      "channel": 1,
      "note": 47,
      "start": 13.3248,
      "duration": 1.3297,
      "velocity": 110,
      "chip": "ym2612"
    },
    {
      "channel": 2,
      "note": 107,
      "start": 13.3273,
      "duration": 0.1373,
      "velocity": 127,
      "chip": "ym2612"
    },
    {
      "channel": 5,
      "note": 83,
      "start": 13.433,
      "duration": 0.333,
      "velocity": 102,
      "chip": "ym2612"
    },
    {
      "channel": 0,
      "note": 83,
      "start": 13.6571,
      "duration": 0.3328,
      "velocity": 102,
      "chip": "ym2612"
    },
    {
      "channel": 3,
      "note": 75,
      "start": 13.6583,
      "duration": 0.1575,
      "velocity": 88,
      "chip": "ym2612"
    },
    {
      "channel": 4,
      "note": 78,
      "start": 13.6591,
      "duration": 0.3328,
      "velocity": 82,
      "chip": "ym2612"
    },
    {
      "channel": 2,
      "note": 107,
      "start": 13.6609,
      "duration": 0.1375,
      "velocity": 127,
      "chip": "ym2612"
    },
    {
      "channel": 5,
      "note": 83,
      "start": 13.7666,
      "duration": 0.3328,
      "velocity": 102,
      "chip": "ym2612"
    },
    {
      "channel": 3,
      "note": 83,
      "start": 13.8164,
      "duration": 0.1747,
      "velocity": 88,
      "chip": "ym2612"
    },
    {
      "channel": 2,
      "note": 107,
      "start": 13.8185,
      "duration": 0.1391,
      "velocity": 127,
      "chip": "ym2612"
    },
    {
      "channel": 0,
      "note": 90,
      "start": 13.9907,
      "duration": 0.3327,
      "velocity": 102,
      "chip": "ym2612"
    },
    {
      "channel": 3,
      "note": 78,
      "start": 13.9917,
      "duration": 0.1546,
      "velocity": 88,
      "chip": "ym2612"
    },
    {
      "channel": 4,
      "note": 83,
      "start": 13.9926,
      "duration": 0.3327,
      "velocity": 82,
      "chip": "ym2612"
    },
    {
      "channel": 2,
      "note": 107,
      "start": 13.9944,
      "duration": 0.1372,
      "velocity": 127,
      "chip": "ym2612"
    },
    {
      "channel": 5,
      "note": 90,
      "start": 14.1,
      "duration": 0.3327,
      "velocity": 102,
      "chip": "ym2612"
    },
    {
      "channel": 3,
      "note": 75,
      "start": 14.1469,
      "duration": 0.1776,
      "velocity": 88,
      "chip": "ym2612"
    },
    {
      "channel": 0,
      "note": 92,
      "start": 14.3241,
      "duration": 0.3296,
      "velocity": 102,
      "chip": "ym2612"
    },
    {
      "channel": 3,
      "note": 83,
      "start": 14.3251,
      "duration": 0.6626,
      "velocity": 88,
      "chip": "ym2612"
    },
    {
      "channel": 4,
      "note": 78,
      "start": 14.326,
      "duration": 0.3296,
      "velocity": 82,
      "chip": "ym2612"
    },
    {
      "channel": 2,
      "note": 107,
      "start": 14.3278,
      "duration": 0.1371,
      "velocity": 127,
      "chip": "ym2612"
    },
    {
      "channel": 5,
      "note": 92,
      "start": 14.4334,
      "duration": 0.3324,
      "velocity": 102,
      "chip": "ym2612"
    },
    {
      "channel": 2,
      "note": 107,
      "start": 14.4848,
      "duration": 0.1396,
      "velocity": 127,
      "chip": "ym2612"
    },
    {
      "channel": 0,
      "note": 88,
      "start": 14.6544,
      "duration": 1.3364,
      "velocity": 102,
      "chip": "ym2612"
    },
    {
      "channel": 1,
      "note": 52,
      "start": 14.655,
      "duration": 1.3364,
      "velocity": 110,
      "chip": "ym2612"
    },
    {
      "channel": 5,
      "note": 88,
      "start": 14.7665,
      "duration": 1.3326,
      "velocity": 102,
      "chip": "ym2612"
    },
    {
      "channel": 2,
      "note": 107,
      "start": 14.8178,
      "duration": 0.1396,
      "velocity": 127,
      "chip": "ym2612"
    },
    {
      "channel": 3,
      "note": 76,
      "start": 14.9884,
      "duration": 0.1609,
      "velocity": 88,
      "chip": "ym2612"
    },
    {
      "channel": 4,
      "note": 88,
      "start": 14.9892,
      "duration": 0.3359,
      "velocity": 82,
      "chip": "ym2612"
    },
    {
      "channel": 3,
      "note": 83,
      "start": 15.1499,
      "duration": 0.1745,
      "velocity": 88,
      "chip": "ym2612"
    },
    {
      "channel": 2,
      "note": 107,
      "start": 15.1521,
      "duration": 0.139,
      "velocity": 127,
      "chip": "ym2612"
    },
    {
      "channel": 3,
      "note": 80,
      "start": 15.3249,
      "duration": 0.155,
      "velocity": 88,
      "chip": "ym2612"
    },
    {
      "channel": 4,
      "note": 83,
      "start": 15.3258,
      "duration": 0.3326,
      "velocity": 82,
      "chip": "ym2612"
    },
    {
      "channel": 2,
      "note": 107,
      "start": 15.3276,
      "duration": 0.1375,
      "velocity": 127,
      "chip": "ym2612"
    },
    {
      "channel": 3,
      "note": 76,
      "start": 15.4805,
      "duration": 0.1771,
      "velocity": 88,
      "chip": "ym2612"
    },
    {
      "channel": 3,
      "note": 83,
      "start": 15.6583,
      "duration": 0.334,
      "velocity": 88,
      "chip": "ym2612"
    },
    {
      "channel": 4,
      "note": 80,
      "start": 15.6591,
      "duration": 0.3336,
      "velocity": 82,
      "chip": "ym2612"
    },
    {
      "channel": 2,
      "note": 107,
      "start": 15.6609,
      "duration": 0.1376,
      "velocity": 127,
      "chip": "ym2612"
    },
    {
      "channel": 0,
      "note": 88,
      "start": 15.9913,
      "duration": 0.3324,
      "velocity": 102,
      "chip": "ym2612"
    },
    {
      "channel": 1,
      "note": 57,
      "start": 15.992,
      "duration": 1.3294,
      "velocity": 110,
      "chip": "ym2612"
    },
    {
      "channel": 2,
      "note": 107,
      "start": 15.9947,
      "duration": 0.1366,
      "velocity": 127,
      "chip": "ym2612"
    },
    {
      "channel": 5,
      "note": 88,
      "start": 16.0996,
      "duration": 0.3334,
      "velocity": 102,
      "chip": "ym2612"
    },
    {
      "channel": 0,
      "note": 88,
      "start": 16.3243,
      "duration": 0.1577,
      "velocity": 102,
      "chip": "ym2612"
    },
    {
      "channel": 3,
      "note": 76,
      "start": 16.3253,
      "duration": 0.1576,
      "velocity": 88,
      "chip": "ym2612"
    },
    {
      "channel": 4,
      "note": 88,
      "start": 16.3262,
      "duration": 0.3327,
      "velocity": 82,
      "chip": "ym2612"
    },
    {
      "channel": 2,
      "note": 107,
      "start": 16.328,
      "duration": 0.1373,
      "velocity": 127,
      "chip": "ym2612"
    },
    {
      "channel": 5,
      "note": 88,
      "start": 16.4335,
      "duration": 0.1583,
      "velocity": 102,
      "chip": "ym2612"
    },
    {
      "channel": 0,
      "note": 88,
      "start": 16.4825,
      "duration": 0.1746,
      "velocity": 102,
      "chip": "ym2612"
    },
    {
      "channel": 3,
      "note": 85,
      "start": 16.4836,
      "duration": 0.1745,
      "velocity": 88,
      "chip": "ym2612"
    },
    {
      "channel": 2,
      "note": 107,
      "start": 16.4857,
      "duration": 0.1389,
      "velocity": 127,
      "chip": "ym2612"
    },
    {
      "channel": 5,
      "note": 88,
      "start": 16.5924,
      "duration": 0.174,
      "velocity": 102,
      "chip": "ym2612"
    },
    {
      "channel": 0,
      "note": 88,
      "start": 16.6576,
      "duration": 0.1551,
      "velocity": 102,
      "chip": "ym2612"
    },
    {
      "channel": 3,
      "note": 81,
      "start": 16.6587,
      "duration": 0.155,
      "velocity": 88,
      "chip": "ym2612"
    },
    {
      "channel": 4,
      "note": 93,
      "start": 16.6596,
      "duration": 0.3327,
      "velocity": 82,
      "chip": "ym2612"
    },
    {
      "channel": 2,
      "note": 107,
      "start": 16.6613,
      "duration": 0.1373,
      "velocity": 127,
      "chip": "ym2612"
    },
    {
      "channel": 5,
      "note": 88,
      "start": 16.7669,
      "duration": 0.1583,
      "velocity": 102,
      "chip": "ym2612"
    },
    {
      "channel": 0,
      "note": 88,
      "start": 16.8132,
      "duration": 0.1772,
      "velocity": 102,
      "chip": "ym2612"
    },
    {
      "channel": 3,
      "note": 76,
      "start": 16.8143,
      "duration": 0.1772,
      "velocity": 88,
      "chip": "ym2612"
    },
    {
      "channel": 5,
      "note": 88,
      "start": 16.9258,
      "duration": 0.1741,
      "velocity": 102,
      "chip": "ym2612"
    },
    {
      "channel": 0,
      "note": 88,
      "start": 16.991,
      "duration": 0.3297,
      "velocity": 102,
      "chip": "ym2612"
    },
    {
      "channel": 3,
      "note": 85,
      "start": 16.9921,
      "duration": 0.6631,
      "velocity": 88,
      "chip": "ym2612"
    },
    {
      "channel": 4,
      "note": 88,
      "start": 16.9929,
      "duration": 0.3296,
      "velocity": 82,
      "chip": "ym2612"
    },
    {
      "channel": 2,
      "note": 107,
      "start": 16.9947,
      "duration": 0.1373,
      "velocity": 127,
      "chip": "ym2612"
    },
    {
      "channel": 5,
      "note": 88,
      "start": 17.1005,
      "duration": 0.3327,
      "velocity": 102,
      "chip": "ym2612"
    },
    {
      "channel": 2,
      "note": 107,
      "start": 17.1519,
      "duration": 0.1396,
      "velocity": 127,
      "chip": "ym2612"
    },
    {
      "channel": 0,
      "note": 88,
      "start": 17.3213,
      "duration": 0.3329,
      "velocity": 102,
      "chip": "ym2612"
    },
    {
      "channel": 1,
      "note": 56,
      "start": 17.322,
      "duration": 1.3363,
      "velocity": 110,
      "chip": "ym2612"
    },
    {
      "channel": 4,
      "note": 97,
      "start": 17.3236,
      "duration": 0.3324,
      "velocity": 82,
      "chip": "ym2612"
    },
    {
      "channel": 5,
      "note": 88,
      "start": 17.4337,
      "duration": 0.3328,
      "velocity": 102,
      "chip": "ym2612"
    },
    {
      "channel": 2,
      "note": 107,
      "start": 17.4853,
      "duration": 0.1396,
      "velocity": 127,
      "chip": "ym2612"
    },
    {
      "channel": 0,
      "note": 88,
      "start": 17.6547,
      "duration": 0.1608,
      "velocity": 102,
      "chip": "ym2612"
    },
    {
      "channel": 3,
      "note": 76,
      "start": 17.6558,
      "duration": 0.1607,
      "velocity": 88,
      "chip": "ym2612"
    },
    {
      "channel": 4,
      "note": 88,
      "start": 17.6571,
      "duration": 0.3352,
      "velocity": 82,
      "chip": "ym2612"
    },
    {
      "channel": 5,
      "note": 88,
      "start": 17.7671,
      "duration": 0.1582,
      "velocity": 102,
      "chip": "ym2612"
    },
    {
      "channel": 0,
      "note": 88,
      "start": 17.8161,
      "duration": 0.1745,
      "velocity": 102,
      "chip": "ym2612"
    },
    {
      "channel": 3,
      "note": 85,
      "start": 17.8171,
      "duration": 0.1744,
      "velocity": 88,
      "chip": "ym2612"
    },
    {
      "channel": 2,
      "note": 107,
      "start": 17.8192,
      "duration": 0.1389,
      "velocity": 127,
      "chip": "ym2612"
    },
    {
      "channel": 5,
      "note": 88,
      "start": 17.9259,
      "duration": 0.174,
      "velocity": 102,
      "chip": "ym2612"
    },
    {
      "channel": 0,
      "note": 88,
      "start": 17.991,
      "duration": 0.1551,
      "velocity": 102,
      "chip": "ym2612"
    },
    {
      "channel": 3,
      "note": 80,
      "start": 17.9921,
      "duration": 0.155,
      "velocity": 88,
      "chip": "ym2612"
    },
    {
      "channel": 4,
      "note": 95,
      "start": 17.9929,
      "duration": 0.3326,
      "velocity": 82,
      "chip": "ym2612"
    },
    {
      "channel": 2,
      "note": 107,
      "start": 17.9947,
      "duration": 0.1375,
      "velocity": 127,
      "chip": "ym2612"
    },
    {
      "channel": 5,
      "note": 88,
      "start": 18.1005,
      "duration": 0.1583,
      "velocity": 102,
      "chip": "ym2612"
    },
    {
      "channel": 0,
      "note": 88,
      "start": 18.1466,
      "duration": 0.3328,
      "velocity": 102,
      "chip": "ym2612"
    },
    {
      "channel": 3,
      "note": 76,
      "start": 18.1477,
      "duration": 0.177,
      "velocity": 88,
      "chip": "ym2612"
    },
    {
      "channel": 5,
      "note": 88,
      "start": 18.2593,
      "duration": 0.3325,
      "velocity": 102,
      "chip": "ym2612"
    },
    {
      "channel": 3,
      "note": 85,
      "start": 18.3254,
      "duration": 0.6666,
      "velocity": 88,
      "chip": "ym2612"
    },
    {
      "channel": 4,
      "note": 88,
      "start": 18.3262,
      "duration": 0.3331,
      "velocity": 82,
      "chip": "ym2612"
    },
    {
      "channel": 2,
      "note": 107,
      "start": 18.3279,
      "duration": 0.1377,
      "velocity": 127,
      "chip": "ym2612"
    },
    {
      "channel": 0,
      "note": 88,
      "start": 18.6581,
      "duration": 0.1547,
      "velocity": 102,
      "chip": "ym2612"
    },
    {
      "channel": 1,
      "note": 54,
      "start": 18.6589,
      "duration": 1.3295,
      "velocity": 110,
      "chip": "ym2612"
    },
    {
      "channel": 2,
      "note": 107,
      "start": 18.661,
      "duration": 0.1377,
      "velocity": 127,
      "chip": "ym2612"
    },
    {
      "channel": 5,
      "note": 88,
      "start": 18.7671,
      "duration": 0.158,
      "velocity": 102,
      "chip": "ym2612"
    },
    {
      "channel": 0,
      "note": 88,
      "start": 18.8135,
      "duration": 0.1772,
      "velocity": 102,
      "chip": "ym2612"
    },
    {
      "channel": 5,
      "note": 88,
      "start": 18.9259,
      "duration": 0.1742,
      "velocity": 102,
      "chip": "ym2612"
    },
    {
      "channel": 0,
      "note": 88,
      "start": 18.9914,
      "duration": 0.1576,
      "velocity": 102,
      "chip": "ym2612"
    },
    {
      "channel": 3,
      "note": 78,
      "start": 18.9925,
      "duration": 0.1576,
      "velocity": 88,
      "chip": "ym2612"
    },
    {
      "channel": 4,
      "note": 85,
      "start": 18.9933,
      "duration": 0.3326,
      "velocity": 82,
      "chip": "ym2612"
    },
    {
      "channel": 2,
      "note": 107,
      "start": 18.9951,
      "duration": 0.1372,
      "velocity": 127,
      "chip": "ym2612"
    },
    {
      "channel": 5,
      "note": 88,
      "start": 19.1008,
      "duration": 0.1582,
      "velocity": 102,
      "chip": "ym2612"
    },
    {
      "channel": 0,
      "note": 88,
      "start": 19.1496,
      "duration": 0.1744,
      "velocity": 102,
      "chip": "ym2612"
    },
    {
      "channel": 3,
      "note": 85,
      "start": 19.1508,
      "duration": 0.1744,
      "velocity": 88,
      "chip": "ym2612"
    },
    {
      "channel": 2,
      "note": 107,
      "start": 19.1529,
      "duration": 0.139,
      "velocity": 127,
      "chip": "ym2612"
    },
    {
      "channel": 5,
      "note": 88,
      "start": 19.2596,
      "duration": 0.1739,
      "velocity": 102,
      "chip": "ym2612"
    },
    {
      "channel": 0,
      "note": 88,
      "start": 19.3248,
      "duration": 0.3327,
      "velocity": 102,
      "chip": "ym2612"
    },
    {
      "channel": 3,
      "note": 81,
      "start": 19.3259,
      "duration": 0.1546,
      "velocity": 88,
      "chip": "ym2612"
    },
    {
      "channel": 4,
      "note": 90,
      "start": 19.3267,
      "duration": 0.3328,
      "velocity": 82,
      "chip": "ym2612"
    },
    {
      "channel": 2,
      "note": 107,
      "start": 19.3284,
      "duration": 0.1373,
      "velocity": 127,
      "chip": "ym2612"
    },
    {
      "channel": 5,
      "note": 88,
      "start": 19.4342,
      "duration": 0.3327,
      "velocity": 102,
      "chip": "ym2612"
    },
    {
      "channel": 3,
      "note": 78,
      "start": 19.4811,
      "duration": 0.1776,
      "velocity": 88,
      "chip": "ym2612"
    },
    {
      "channel": 0,
      "note": 90,
      "start": 19.6582,
      "duration": 0.1576,
      "velocity": 102,
      "chip": "ym2612"
    },
    {
      "channel": 3,
      "note": 85,
      "start": 19.6593,
      "duration": 0.6625,
      "velocity": 88,
      "chip": "ym2612"
    },
    {
      "channel": 4,
      "note": 85,
      "start": 19.6601,
      "duration": 0.3293,
      "velocity": 82,
      "chip": "ym2612"
    },
    {
      "channel": 2,
      "note": 107,
      "start": 19.6619,
      "duration": 0.1372,
      "velocity": 127,
      "chip": "ym2612"
    },
    {
      "channel": 5,
      "note": 90,
      "start": 19.7676,
      "duration": 0.1581,
      "velocity": 102,
      "chip": "ym2612"
    },
    {
      "channel": 0,
      "note": 93,
      "start": 19.8165,
      "duration": 1.33,
      "velocity": 102,
      "chip": "ym2612"
    },
    {
      "channel": 2,
      "note": 107,
      "start": 19.8193,
      "duration": 0.139,
      "velocity": 127,
      "chip": "ym2612"
    },
    {
      "channel": 5,
      "note": 93,
      "start": 19.9264,
      "duration": 1.3325,
      "velocity": 102,
      "chip": "ym2612"
    },
    {
      "channel": 1,
      "note": 52,
      "start": 19.9889,
      "duration": 1.3365,
      "velocity": 110,
      "chip": "ym2612"
    },
    {
      "channel": 4,
      "note": 93,
      "start": 19.9905,
      "duration": 0.3321,
      "velocity": 82,
      "chip": "ym2612"
    },
    {
      "channel": 2,
      "note": 107,
      "start": 20.1524,
      "duration": 0.1395,
      "velocity": 127,
      "chip": "ym2612"
    },
    {
      "channel": 3,
      "note": 78,
      "start": 20.3224,
      "duration": 0.161,
      "velocity": 88,
      "chip": "ym2612"
    },
    {
      "channel": 4,
      "note": 85,
      "start": 20.3237,
      "duration": 0.3356,
      "velocity": 82,
      "chip": "ym2612"
    },
    {
      "channel": 3,
      "note": 85,
      "start": 20.484,
      "duration": 0.1745,
      "velocity": 88,
      "chip": "ym2612"
    },
    {
      "channel": 2,
      "note": 107,
      "start": 20.4862,
      "duration": 0.139,
      "velocity": 127,
      "chip": "ym2612"
    },
    {
      "channel": 3,
      "note": 81,
      "start": 20.659,
      "duration": 0.155,
      "velocity": 88,
      "chip": "ym2612"
    },
    {
      "channel": 4,
      "note": 92,
      "start": 20.6599,
      "duration": 0.3327,
      "velocity": 82,
      "chip": "ym2612"
    },
    {
      "channel": 2,
      "note": 107,
      "start": 20.6617,
      "duration": 0.1376,
      "velocity": 127,
      "chip": "ym2612"
    },
    {
      "channel": 3,
      "note": 78,
      "start": 20.8146,
      "duration": 0.1772,
      "velocity": 88,
      "chip": "ym2612"
    },
    {
      "channel": 3,
      "note": 85,
      "start": 20.9924,
      "duration": 0.6661,
      "velocity": 88,
      "chip": "ym2612"
    },
    {
      "channel": 4,
      "note": 85,
      "start": 20.9933,
      "duration": 0.3332,
      "velocity": 82,
      "chip": "ym2612"
    },
    {
      "channel": 2,
      "note": 107,
      "start": 20.9951,
      "duration": 0.1377,
      "velocity": 127,
      "chip": "ym2612"
    },
    {
      "channel": 0,
      "note": 93,
      "start": 21.3253,
      "duration": 0.9993,
      "velocity": 102,
      "chip": "ym2612"
    },
    {
      "channel": 1,
      "note": 50,
      "start": 21.326,
      "duration": 1.3297,
      "velocity": 110,
      "chip": "ym2612"
    },
    {
      "channel": 2,
      "note": 107,
      "start": 21.3281,
      "duration": 0.1377,
      "velocity": 127,
      "chip": "ym2612"
    },
    {
      "channel": 5,
      "note": 93,
      "start": 21.4341,
      "duration": 0.9998,
      "velocity": 102,
      "chip": "ym2612"
    },
    {
      "channel": 3,
      "note": 78,
      "start": 21.6592,
      "duration": 0.1577,
      "velocity": 88,
      "chip": "ym2612"
    },
    {
      "channel": 4,
      "note": 81,
      "start": 21.66,
      "duration": 0.3327,
      "velocity": 82,
      "chip": "ym2612"
    },
    {
      "channel": 2,
      "note": 107,
      "start": 21.6619,
      "duration": 0.1377,
      "velocity": 127,
      "chip": "ym2612"
    },
    {
      "channel": 3,
      "note": 86,
      "start": 21.8175,
      "duration": 0.1744,
      "velocity": 88,
      "chip": "ym2612"
    },
    {
      "channel": 2,
      "note": 107,
      "start": 21.8197,
      "duration": 0.139,
      "velocity": 127,
      "chip": "ym2612"
    },
    {
      "channel": 3,
      "note": 81,
      "start": 21.9925,
      "duration": 0.155,
      "velocity": 88,
      "chip": "ym2612"
    },
    {
      "channel": 4,
      "note": 86,
      "start": 21.9933,
      "duration": 0.3332,
      "velocity": 82,
      "chip": "ym2612"
    },
    {
      "channel": 2,
      "note": 107,
      "start": 21.9952,
      "duration": 0.1377,
      "velocity": 127,
      "chip": "ym2612"
    },
    {
      "channel": 3,
      "note": 78,
      "start": 22.1481,
      "duration": 0.1777,
      "velocity": 88,
      "chip": "ym2612"
    },
    {
      "channel": 0,
      "note": 90,
      "start": 22.3253,
      "duration": 0.3295,
      "velocity": 102,
      "chip": "ym2612"
    },
    {
      "channel": 3,
      "note": 86,
      "start": 22.3264,
      "duration": 0.3305,
      "velocity": 88,
      "chip": "ym2612"
    },
    {
      "channel": 4,
      "note": 81,
      "start": 22.3272,
      "duration": 0.3301,
      "velocity": 82,
      "chip": "ym2612"
    },
    {
      "channel": 2,
      "note": 107,
      "start": 22.329,
      "duration": 0.1371,
      "velocity": 127,
      "chip": "ym2612"
    },
    {
      "channel": 5,
      "note": 90,
      "start": 22.4346,
      "duration": 0.3322,
      "velocity": 102,
      "chip": "ym2612"
    },
    {
      "channel": 2,
      "note": 107,
      "start": 22.486,
      "duration": 0.1396,
      "velocity": 127,
      "chip": "ym2612"
    },
    {
      "channel": 0,
      "note": 88,
      "start": 22.6555,
      "duration": 0.1607,
      "velocity": 102,
      "chip": "ym2612"
    },
    {
      "channel": 1,
      "note": 52,
      "start": 22.6566,
      "duration": 1.3357,
      "velocity": 110,
      "chip": "ym2612"
    },
    {
      "channel": 5,
      "note": 88,
      "start": 22.7675,
      "duration": 0.158,
      "velocity": 102,
      "chip": "ym2612"
    },
    {
      "channel": 0,
      "note": 88,
      "start": 22.8168,
      "duration": 0.3331,
      "velocity": 102,
      "chip": "ym2612"
    },
    {
      "channel": 2,
      "note": 107,
      "start": 22.819,
      "duration": 0.1391,
      "velocity": 127,
      "chip": "ym2612"
    },
    {
      "channel": 5,
      "note": 88,
      "start": 22.926,
      "duration": 0.3335,
      "velocity": 102,
      "chip": "ym2612"
    },
    {
      "channel": 3,
      "note": 80,
      "start": 22.99,
      "duration": 0.1609,
      "velocity": 88,
      "chip": "ym2612"
    },
    {
      "channel": 4,
      "note": 83,
      "start": 22.9908,
      "duration": 0.3355,
      "velocity": 82,
      "chip": "ym2612"
    },
    {
      "channel": 0,
      "note": 88,
      "start": 23.1504,
      "duration": 0.5076,
      "velocity": 102,
      "chip": "ym2612"
    },
    {
      "channel": 3,
      "note": 88,
      "start": 23.1515,
      "duration": 0.1741,
      "velocity": 88,
      "chip": "ym2612"
    },
    {
      "channel": 2,
      "note": 107,
      "start": 23.1537,
      "duration": 0.1385,
      "velocity": 127,
      "chip": "ym2612"
    },
    {
      "channel": 5,
      "note": 88,
      "start": 23.26,
      "duration": 0.5074,
      "velocity": 102,
      "chip": "ym2612"
    },
    {
      "channel": 3,
      "note": 83,
      "start": 23.3262,
      "duration": 0.1548,
      "velocity": 88,
      "chip": "ym2612"
    },
    {
      "channel": 4,
      "note": 88,
      "start": 23.327,
      "duration": 0.333,
      "velocity": 82,
      "chip": "ym2612"
    },
    {
      "channel": 2,
      "note": 107,
      "start": 23.3287,
      "duration": 0.1377,
      "velocity": 127,
      "chip": "ym2612"
    },
    {
      "channel": 3,
      "note": 80,
      "start": 23.4816,
      "duration": 0.1776,
      "velocity": 88,
      "chip": "ym2612"
    },
    {
      "channel": 0,
      "note": 83,
      "start": 23.6587,
      "duration": 0.1549,
      "velocity": 102,
      "chip": "ym2612"
    },
    {
      "channel": 3,
      "note": 88,
      "start": 23.6599,
      "duration": 0.6661,
      "velocity": 88,
      "chip": "ym2612"
    },
    {
      "channel": 4,
      "note": 83,
      "start": 23.6607,
      "duration": 0.3328,
      "velocity": 82,
      "chip": "ym2612"
    },
    {
      "channel": 2,
      "note": 107,
      "start": 23.6625,
      "duration": 0.1372,
      "velocity": 127,
      "chip": "ym2612"
    },
    {
      "channel": 5,
      "note": 83,
      "start": 23.7681,
      "duration": 0.1581,
      "velocity": 102,
      "chip": "ym2612"
    },
    {
      "channel": 0,
      "note": 83,
      "start": 23.8141,
      "duration": 0.1774,
      "velocity": 102,
      "chip": "ym2612"
    },
    {
      "channel": 5,
      "note": 83,
      "start": 23.9268,
      "duration": 0.1737,
      "velocity": 102,
      "chip": "ym2612"
    },
    {
      "channel": 0,
      "note": 85,
      "start": 23.9923,
      "duration": 0.1548,
      "velocity": 102,
      "chip": "ym2612"
    },
    {
      "channel": 1,
      "note": 57,
      "start": 23.9929,
      "duration": 1.6627,
      "velocity": 110,
      "chip": "ym2612"
    },
    {
      "channel": 2,
      "note": 107,
      "start": 23.9954,
      "duration": 0.1374,
      "velocity": 127,
      "chip": "ym2612"
    },
    {
      "channel": 5,
      "note": 85,
      "start": 24.1012,
      "duration": 0.1581,
      "velocity": 102,
      "chip": "ym2612"
    },
    {
      "channel": 0,
      "note": 83,
      "start": 24.1477,
      "duration": 0.1772,
      "velocity": 102,
      "chip": "ym2612"
    },
    {
      "channel": 5,
      "note": 83,
      "start": 24.2601,
      "duration": 0.1741,
      "velocity": 102,
      "chip": "ym2612"
    },
    {
      "channel": 0,
      "note": 81,
      "start": 24.3256,
      "duration": 1.9995,
      "velocity": 102,
      "chip": "ym2612"
    },
    {
      "channel": 3,
      "note": 76,
      "start": 24.3267,
      "duration": 0.1573,
      "velocity": 88,
      "chip": "ym2612"
    },
    {
      "channel": 4,
      "note": 88,
      "start": 24.3275,
      "duration": 0.3322,
      "velocity": 82,
      "chip": "ym2612"
    },
    {
      "channel": 2,
      "note": 107,
      "start": 24.3293,
      "duration": 0.1372,
      "velocity": 127,
      "chip": "ym2612"
    },
    {
      "channel": 5,
      "note": 81,
      "start": 24.4349,
      "duration": 1.9993,
      "velocity": 102,
      "chip": "ym2612"
    },
    {
      "channel": 3,
      "note": 85,
      "start": 24.4845,
      "duration": 0.1745,
      "velocity": 88,
      "chip": "ym2612"
    },
    {
      "channel": 2,
      "note": 107,
      "start": 24.4866,
      "duration": 0.1392,
      "velocity": 127,
      "chip": "ym2612"
    },
    {
      "channel": 3,
      "note": 81,
      "start": 24.6596,
      "duration": 0.155,
      "velocity": 88,
      "chip": "ym2612"
    },
    {
      "channel": 4,
      "note": 93,
      "start": 24.6605,
      "duration": 0.3327,
      "velocity": 82,
      "chip": "ym2612"
    },
    {
      "channel": 2,
      "note": 107,
      "start": 24.6622,
      "duration": 0.138,
      "velocity": 127,
      "chip": "ym2612"
    },
    {
      "channel": 3,
      "note": 83,
      "start": 24.8152,
      "duration": 0.1772,
      "velocity": 88,
      "chip": "ym2612"
    },
    {
      "channel": 3,
      "note": 85,
      "start": 24.993,
      "duration": 0.1578,
      "velocity": 88,
      "chip": "ym2612"
    },
    {
      "channel": 4,
      "note": 88,
      "start": 24.9939,
      "duration": 0.3302,
      "velocity": 82,
      "chip": "ym2612"
    },
    {
      "channel": 2,
      "note": 107,
      "start": 24.9957,
      "duration": 0.1376,
      "velocity": 127,
      "chip": "ym2612"
    },
    {
      "channel": 3,
      "note": 88,
      "start": 25.1514,
      "duration": 0.1719,
      "velocity": 88,
      "chip": "ym2612"
    },
    {
      "channel": 2,
      "note": 107,
      "start": 25.1536,
      "duration": 0.1389,
      "velocity": 127,
      "chip": "ym2612"
    },
    {
      "channel": 3,
      "note": 93,
      "start": 25.3239,
      "duration": 1.337,
      "velocity": 88,
      "chip": "ym2612"
    },
    {
      "channel": 4,
      "note": 97,
      "start": 25.3247,
      "duration": 0.3324,
      "velocity": 82,
      "chip": "ym2612"
    },
    {
      "channel": 2,
      "note": 107,
      "start": 25.4865,
      "duration": 0.1393,
      "velocity": 127,
      "chip": "ym2612"
    },
    {
      "channel": 1,
      "note": 52,
      "start": 25.6566,
      "duration": 0.3356,
      "velocity": 110,
      "chip": "ym2612"
    },
    {
      "channel": 4,
      "note": 88,
      "start": 25.6578,
      "duration": 0.3355,
      "velocity": 82,
      "chip": "ym2612"
    },
    {
      "channel": 2,
      "note": 107,
      "start": 25.8199,
      "duration": 0.1393,
      "velocity": 127,
      "chip": "ym2612"
    },
    {
      "channel": 1,
      "note": 45,
      "start": 25.9928,
      "duration": 0.6667,
      "velocity": 110,
      "chip": "ym2612"
    },
    {
      "channel": 4,
      "note": 95,
      "start": 25.994,
      "duration": 0.3321,
      "velocity": 82,
      "chip": "ym2612"
    },
    {
      "channel": 2,
      "note": 107,
      "start": 25.9959,
      "duration": 0.1376,
      "velocity": 127,
      "chip": "ym2612"
    },
    {
      "channel": 4,
      "note": 88,
      "start": 26.3268,
      "duration": 0.3349,
      "velocity": 82,
      "chip": "ym2612"
    },
    {
      "channel": 2,
      "note": 107,
      "start": 26.3286,
      "duration": 0.1375,
      "velocity": 127,
      "chip": "ym2612"
    },
    {
      "channel": 0,
      "note": 85,
      "start": 26.6594,
      "duration": 0.3329,
      "velocity": 102,
      "chip": "ym2612"
    },
    {
      "channel": 1,
      "note": 54,
      "start": 26.6601,
      "duration": 1.3326,
      "velocity": 110,
      "chip": "ym2612"
    },
    {
      "channel": 3,
      "note": 85,
      "start": 26.6615,
      "duration": 0.3319,
      "velocity": 88,
      "chip": "ym2612"
    },
    {
      "channel": 2,
      "note": 107,
      "start": 26.6632,
      "duration": 0.1366,
      "velocity": 127,
      "chip": "ym2612"
    },
    {
      "channel": 5,
      "note": 85,
      "start": 26.7684,
      "duration": 0.3328,
      "velocity": 102,
      "chip": "ym2612"
    },
    {
      "channel": 0,
      "note": 85,
      "start": 26.9928,
      "duration": 0.3324,
      "velocity": 102,
      "chip": "ym2612"
    },
    {
      "channel": 3,
      "note": 85,
      "start": 26.9938,
      "duration": 0.3325,
      "velocity": 88,
      "chip": "ym2612"
    },
    {
      "channel": 4,
      "note": 78,
      "start": 26.9946,
      "duration": 0.3323,
      "velocity": 82,
      "chip": "ym2612"
    },
    {
      "channel": 2,
      "note": 107,
      "start": 26.9965,
      "duration": 0.1371,
      "velocity": 127,
      "chip": "ym2612"
    },
    {
      "channel": 5,
      "note": 85,
      "start": 27.1018,
      "duration": 0.3328,
      "velocity": 102,
      "chip": "ym2612"
    },
    {
      "channel": 0,
      "note": 85,
      "start": 27.3258,
      "duration": 0.3328,
      "velocity": 102,
      "chip": "ym2612"
    },
    {
      "channel": 3,
      "note": 85,
      "start": 27.3267,
      "duration": 0.3329,
      "velocity": 88,
      "chip": "ym2612"
    },
    {
      "channel": 4,
      "note": 81,
      "start": 27.3276,
      "duration": 0.3326,
      "velocity": 82,
      "chip": "ym2612"
    },
    {
      "channel": 2,
      "note": 107,
      "start": 27.3294,
      "duration": 0.1375,
      "velocity": 127,
      "chip": "ym2612"
    },
    {
      "channel": 5,
      "note": 85,
      "start": 27.4352,
      "duration": 0.3328,
      "velocity": 102,
      "chip": "ym2612"
    },
    {
      "channel": 0,
      "note": 85,
      "start": 27.6591,
      "duration": 0.333,
      "velocity": 102,
      "chip": "ym2612"
    },
    {
      "channel": 3,
      "note": 85,
      "start": 27.6601,
      "duration": 0.3333,
      "velocity": 88,
      "chip": "ym2612"
    },
    {
      "channel": 4,
      "note": 78,
      "start": 27.6609,
      "duration": 0.3331,
      "velocity": 82,
      "chip": "ym2612"
    },
    {
      "channel": 2,
      "note": 107,
      "start": 27.6627,
      "duration": 0.1375,
      "velocity": 127,
      "chip": "ym2612"
    },
    {
      "channel": 5,
      "note": 85,
      "start": 27.7685,
      "duration": 0.3332,
      "velocity": 102,
      "chip": "ym2612"
    },
    {
      "channel": 0,
      "note": 85,
      "start": 27.9926,
      "duration": 0.9995,
      "velocity": 102,
      "chip": "ym2612"
    },
    {
      "channel": 1,
      "note": 54,
      "start": 27.9932,
      "duration": 0.9996,
      "velocity": 110,
      "chip": "ym2612"
    },
    {
      "channel": 3,
      "note": 85,
      "start": 27.9939,
      "duration": 0.9997,
      "velocity": 88,
      "chip": "ym2612"
    },
    {
      "channel": 4,
      "note": 83,
      "start": 27.9947,
      "duration": 0.3319,
      "velocity": 82,
      "chip": "ym2612"
    },
    {
      "channel": 2,
      "note": 107,
      "start": 27.9965,
      "duration": 0.1371,
      "velocity": 127,
      "chip": "ym2612"
    },
    {
      "channel": 5,
      "note": 85,
      "start": 28.1022,
      "duration": 0.9994,
      "velocity": 102,
      "chip": "ym2612"
    },
    {
      "channel": 2,
      "note": 107,
      "start": 28.1535,
      "duration": 0.1391,
      "velocity": 127,
      "chip": "ym2612"
    },
    {
      "channel": 4,
      "note": 78,
      "start": 28.3273,
      "duration": 0.3329,
      "velocity": 82,
      "chip": "ym2612"
    },
    {
      "channel": 2,
      "note": 107,
      "start": 28.3291,
      "duration": 0.138,
      "velocity": 127,
      "chip": "ym2612"
    },
    {
      "channel": 4,
      "note": 81,
      "start": 28.6608,
      "duration": 0.3333,
      "velocity": 82,
      "chip": "ym2612"
    },
    {
      "channel": 2,
      "note": 107,
      "start": 28.6627,
      "duration": 0.1378,
      "velocity": 127,
      "chip": "ym2612"
    },
    {
      "channel": 0,
      "note": 85,
      "start": 28.9927,
      "duration": 0.155,
      "velocity": 102,
      "chip": "ym2612"
    },
    {
      "channel": 1,
      "note": 49,
      "start": 28.9934,
      "duration": 0.3331,
      "velocity": 110,
      "chip": "ym2612"
    },
    {
      "channel": 3,
      "note": 85,
      "start": 28.994,
      "duration": 0.1547,
      "velocity": 88,
      "chip": "ym2612"
    },
    {
      "channel": 4,
      "note": 78,
      "start": 28.9949,
      "duration": 0.3331,
      "velocity": 82,
      "chip": "ym2612"
    },
    {
      "channel": 2,
      "note": 107,
      "start": 28.9966,
      "duration": 0.1371,
      "velocity": 127,
      "chip": "ym2612"
    },
    {
      "channel": 5,
      "note": 85,
      "start": 29.1021,
      "duration": 0.1583,
      "velocity": 102,
      "chip": "ym2612"
    },
    {
      "channel": 0,
      "note": 85,
      "start": 29.1482,
      "duration": 0.1774,
      "velocity": 102,
      "chip": "ym2612"
    },
    {
      "channel": 3,
      "note": 85,
      "start": 29.1492,
      "duration": 0.178,
      "velocity": 88,
      "chip": "ym2612"
    },
    {
      "channel": 5,
      "note": 85,
      "start": 29.2609,
      "duration": 0.1737,
      "velocity": 102,
      "chip": "ym2612"
    },
    {
      "channel": 0,
      "note": 83,
      "start": 29.3263,
      "duration": 0.3326,
      "velocity": 102,
      "chip": "ym2612"
    },
    {
      "channel": 1,
      "note": 47,
      "start": 29.3271,
      "duration": 1.3329,
      "velocity": 110,
      "chip": "ym2612"
    },
    {
      "channel": 3,
      "note": 83,
      "start": 29.3279,
      "duration": 0.3321,
      "velocity": 88,
      "chip": "ym2612"
    },
    {
      "channel": 2,
      "note": 107,
      "start": 29.3299,
      "duration": 0.137,
      "velocity": 127,
      "chip": "ym2612"
    },
    {
      "channel": 5,
      "note": 83,
      "start": 29.4353,
      "duration": 0.3331,
      "velocity": 102,
      "chip": "ym2612"
    },
    {
      "channel": 0,
      "note": 83,
      "start": 29.6596,
      "duration": 0.1549,
      "velocity": 102,
      "chip": "ym2612"
    },
    {
      "channel": 3,
      "note": 83,
      "start": 29.6605,
      "duration": 0.155,
      "velocity": 88,
      "chip": "ym2612"
    },
    {
      "channel": 4,
      "note": 78,
      "start": 29.6613,
      "duration": 0.3326,
      "velocity": 82,
      "chip": "ym2612"
    },
    {
      "channel": 2,
      "note": 107,
      "start": 29.6631,
      "duration": 0.1375,
      "velocity": 127,
      "chip": "ym2612"
    },
    {
      "channel": 5,
      "note": 83,
      "start": 29.7689,
      "duration": 0.1583,
      "velocity": 102,
      "chip": "ym2612"
    },
    {
      "channel": 0,
      "note": 83,
      "start": 29.815,
      "duration": 0.1773,
      "velocity": 102,
      "chip": "ym2612"
    },
    {
      "channel": 3,
      "note": 83,
      "start": 29.816,
      "duration": 0.1773,
      "velocity": 88,
      "chip": "ym2612"
    },
    {
      "channel": 5,
      "note": 83,
      "start": 29.9277,
      "duration": 0.174,
      "velocity": 102,
      "chip": "ym2612"
    },
    {
      "channel": 0,
      "note": 83,
      "start": 29.9928,
      "duration": 0.1551,
      "velocity": 102,
      "chip": "ym2612"
    },
    {
      "channel": 3,
      "note": 83,
      "start": 29.9938,
      "duration": 0.1551,
      "velocity": 88,
      "chip": "ym2612"
    },
    {
      "channel": 4,
      "note": 83,
      "start": 29.9946,
      "duration": 0.3327,
      "velocity": 82,
      "chip": "ym2612"
    },
    {
      "channel": 2,
      "note": 107,
      "start": 29.9963,
      "duration": 0.1376,
      "velocity": 127,
      "chip": "ym2612"
    },
    {
      "channel": 5,
      "note": 83,
      "start": 30.1022,
      "duration": 0.1583,
      "velocity": 102,
      "chip": "ym2612"
    },
    {
      "channel": 0,
      "note": 83,
      "start": 30.1485,
      "duration": 0.1772,
      "velocity": 102,
      "chip": "ym2612"
    },
    {
      "channel": 3,
      "note": 83,
      "start": 30.1495,
      "duration": 0.1772,
      "velocity": 88,
      "chip": "ym2612"
    },
    {
      "channel": 5,
      "note": 83,
      "start": 30.261,
      "duration": 0.174,
      "velocity": 102,
      "chip": "ym2612"
    },
    {
      "channel": 0,
      "note": 83,
      "start": 30.3262,
      "duration": 0.1551,
      "velocity": 102,
      "chip": "ym2612"
    },
    {
      "channel": 3,
      "note": 83,
      "start": 30.3272,
      "duration": 0.1553,
      "velocity": 88,
      "chip": "ym2612"
    },
    {
      "channel": 4,
      "note": 78,
      "start": 30.328,
      "duration": 0.3335,
      "velocity": 82,
      "chip": "ym2612"
    },
    {
      "channel": 2,
      "note": 107,
      "start": 30.3297,
      "duration": 0.1375,
      "velocity": 127,
      "chip": "ym2612"
    },
    {
      "channel": 5,
      "note": 83,
      "start": 30.4356,
      "duration": 0.1583,
      "velocity": 102,
      "chip": "ym2612"
    },
    {
      "channel": 0,
      "note": 85,
      "start": 30.482,
      "duration": 0.1772,
      "velocity": 102,
      "chip": "ym2612"
    },
    {
      "channel": 3,
      "note": 85,
      "start": 30.4831,
      "duration": 0.1777,
      "velocity": 88,
      "chip": "ym2612"
    },
    {
      "channel": 5,
      "note": 85,
      "start": 30.5946,
      "duration": 0.1739,
      "velocity": 102,
      "chip": "ym2612"
    },
    {
      "channel": 0,
      "note": 86,
      "start": 30.6599,
      "duration": 1.3328,
      "velocity": 102,
      "chip": "ym2612"
    },
    {
      "channel": 1,
      "note": 47,
      "start": 30.6606,
      "duration": 0.9991,
      "velocity": 110,
      "chip": "ym2612"
    },
    {
      "channel": 3,
      "note": 86,
      "start": 30.6613,
      "duration": 1.3329,
      "velocity": 88,
      "chip": "ym2612"
    },
    {
      "channel": 4,
      "note": 86,
      "start": 30.6622,
      "duration": 0.3314,
      "velocity": 82,
      "chip": "ym2612"
    },
    {
      "channel": 2,
      "note": 107,
      "start": 30.6639,
      "duration": 0.1368,
      "velocity": 127,
      "chip": "ym2612"
    },
    {
      "channel": 5,
      "note": 86,
      "start": 30.7692,
      "duration": 1.3326,
      "velocity": 102,
      "chip": "ym2612"
    },
    {
      "channel": 2,
      "note": 107,
      "start": 30.8205,
      "duration": 0.1392,
      "velocity": 127,
      "chip": "ym2612"
    },
    {
      "channel": 4,
      "note": 78,
      "start": 30.9943,
      "duration": 0.3327,
      "velocity": 82,
      "chip": "ym2612"
    },
    {
      "channel": 2,
      "note": 107,
      "start": 30.9961,
      "duration": 0.1382,
      "velocity": 127,
      "chip": "ym2612"
    },
    {
      "channel": 4,
      "note": 83,
      "start": 31.3277,
      "duration": 0.3331,
      "velocity": 82,
      "chip": "ym2612"
    },
    {
      "channel": 2,
      "note": 107,
      "start": 31.3295,
      "duration": 0.138,
      "velocity": 127,
      "chip": "ym2612"
    },
    {
      "channel": 1,
      "note": 42,
      "start": 31.6603,
      "duration": 0.3332,
      "velocity": 110,
      "chip": "ym2612"
    },
    {
      "channel": 4,
      "note": 78,
      "start": 31.6615,
      "duration": 0.3336,
      "velocity": 82,
      "chip": "ym2612"
    },
    {
      "channel": 2,
      "note": 107,
      "start": 31.6633,
      "duration": 0.1377,
      "velocity": 127,
      "chip": "ym2612"
    },
    {
      "channel": 0,
      "note": 92,
      "start": 31.9934,
      "duration": 0.3326,
      "velocity": 102,
      "chip": "ym2612"
    },
    {
      "channel": 1,
      "note": 52,
      "start": 31.9941,
      "duration": 1.3325,
      "velocity": 110,
      "chip": "ym2612"
    },
    {
      "channel": 3,
      "note": 92,
      "start": 31.9949,
      "duration": 0.3321,
      "velocity": 88,
      "chip": "ym2612"
    },
    {
      "channel": 2,
      "note": 107,
      "start": 31.9971,
      "duration": 0.1369,
      "velocity": 127,
      "chip": "ym2612"
    },
    {
      "channel": 5,
      "note": 92,
      "start": 32.1024,
      "duration": 0.333,
      "velocity": 102,
      "chip": "ym2612"
    },
    {
      "channel": 0,
      "note": 92,
      "start": 32.3266,
      "duration": 0.3328,
      "velocity": 102,
      "chip": "ym2612"
    },
    {
      "channel": 3,
      "note": 92,
      "start": 32.3275,
      "duration": 0.3329,
      "velocity": 88,
      "chip": "ym2612"
    },
    {
      "channel": 4,
      "note": 76,
      "start": 32.3283,
      "duration": 0.3326,
      "velocity": 82,
      "chip": "ym2612"
    },
    {
      "channel": 2,
      "note": 107,
      "start": 32.3301,
      "duration": 0.1375,
      "velocity": 127,
      "chip": "ym2612"
    },
    {
      "channel": 5,
      "note": 92,
      "start": 32.436,
      "duration": 0.3328,
      "velocity": 102,
      "chip": "ym2612"
    },
    {
      "channel": 0,
      "note": 92,
      "start": 32.6599,
      "duration": 0.3329,
      "velocity": 102,
      "chip": "ym2612"
    },
    {
      "channel": 3,
      "note": 92,
      "start": 32.6608,
      "duration": 0.3329,
      "velocity": 88,
      "chip": "ym2612"
    },
    {
      "channel": 4,
      "note": 80,
      "start": 32.6617,
      "duration": 0.3328,
      "velocity": 82,
      "chip": "ym2612"
    },
    {
      "channel": 2,
      "note": 107,
      "start": 32.6634,
      "duration": 0.1376,
      "velocity": 127,
      "chip": "ym2612"
    },
    {
      "channel": 5,
      "note": 92,
      "start": 32.7692,
      "duration": 0.3329,
      "velocity": 102,
      "chip": "ym2612"
    },
    {
      "channel": 0,
      "note": 92,
      "start": 32.9933,
      "duration": 0.6662,
      "velocity": 102,
      "chip": "ym2612"
    },
    {
      "channel": 3,
      "note": 92,
      "start": 32.9943,
      "duration": 0.6663,
      "velocity": 88,
      "chip": "ym2612"
    },
    {
      "channel": 4,
      "note": 76,
      "start": 32.9951,
      "duration": 0.3324,
      "velocity": 82,
      "chip": "ym2612"
    },
    {
      "channel": 2,
      "note": 107,
      "start": 32.9969,
      "duration": 0.1375,
      "velocity": 127,
      "chip": "ym2612"
    },
    {
      "channel": 5,
      "note": 92,
      "start": 33.1027,
      "duration": 0.6662,
      "velocity": 102,
      "chip": "ym2612"
    },
    {
      "channel": 1,
      "note": 52,
      "start": 33.3271,
      "duration": 1.0,
      "velocity": 110,
      "chip": "ym2612"
    },
    {
      "channel": 4,
      "note": 83,
      "start": 33.3283,
      "duration": 0.333,
      "velocity": 82,
      "chip": "ym2612"
    },
    {
      "channel": 2,
      "note": 107,
      "start": 33.3301,
      "duration": 0.1377,
      "velocity": 127,
      "chip": "ym2612"
    },
    {
      "channel": 2,
      "note": 107,
      "start": 33.4877,
      "duration": 0.139,
      "velocity": 127,
      "chip": "ym2612"
    },
    {
      "channel": 0,
      "note": 92,
      "start": 33.6601,
      "duration": 0.3329,
      "velocity": 102,
      "chip": "ym2612"
    },
    {
      "channel": 3,
      "note": 92,
      "start": 33.6611,
      "duration": 0.3332,
      "velocity": 88,
      "chip": "ym2612"
    },
    {
      "channel": 4,
      "note": 76,
      "start": 33.6619,
      "duration": 0.3331,
      "velocity": 82,
      "chip": "ym2612"
    },
    {
      "channel": 2,
      "note": 107,
      "start": 33.6638,
      "duration": 0.1374,
      "velocity": 127,
      "chip": "ym2612"
    },
    {
      "channel": 5,
      "note": 92,
      "start": 33.7694,
      "duration": 0.3328,
      "velocity": 102,
      "chip": "ym2612"
    },
    {
      "channel": 0,
      "note": 90,
      "start": 33.9937,
      "duration": 0.3325,
      "velocity": 102,
      "chip": "ym2612"
    },
    {
      "channel": 3,
      "note": 90,
      "start": 33.9948,
      "duration": 0.3329,
      "velocity": 88,
      "chip": "ym2612"
    },
    {
      "channel": 4,
      "note": 80,
      "start": 33.9956,
      "duration": 0.3328,
      "velocity": 82,
      "chip": "ym2612"
    },
    {
      "channel": 2,
      "note": 107,
      "start": 33.9975,
      "duration": 0.1371,
      "velocity": 127,
      "chip": "ym2612"
    },
    {
      "channel": 5,
      "note": 90,
      "start": 34.1029,
      "duration": 0.3327,
      "velocity": 102,
      "chip": "ym2612"
    },
    {
      "channel": 0,
      "note": 92,
      "start": 34.3269,
      "duration": 0.3329,
      "velocity": 102,
      "chip": "ym2612"
    },
    {
      "channel": 1,
      "note": 52,
      "start": 34.3275,
      "duration": 0.3331,
      "velocity": 110,
      "chip": "ym2612"
    },
    {
      "channel": 3,
      "note": 92,
      "start": 34.3283,
      "duration": 0.3332,
      "velocity": 88,
      "chip": "ym2612"
    },
    {
      "channel": 4,
      "note": 76,
      "start": 34.3291,
      "duration": 0.3331,
      "velocity": 82,
      "chip": "ym2612"
    },
    {
      "channel": 2,
      "note": 107,
      "start": 34.3309,
      "duration": 0.137,
      "velocity": 127,
      "chip": "ym2612"
    },
    {
      "channel": 5,
      "note": 92,
      "start": 34.4363,
      "duration": 0.3324,
      "velocity": 102,
      "chip": "ym2612"
    },
    {
      "channel": 0,
      "note": 90,
      "start": 34.6605,
      "duration": 0.9992,
      "velocity": 102,
      "chip": "ym2612"
    },
    {
      "channel": 1,
      "note": 57,
      "start": 34.6613,
      "duration": 1.3325,
      "velocity": 110,
      "chip": "ym2612"
    },
    {
      "channel": 3,
      "note": 90,
      "start": 34.662,
      "duration": 0.9989,
      "velocity": 88,
      "chip": "ym2612"
    },
    {
      "channel": 2,
      "note": 107,
      "start": 34.6642,
      "duration": 0.1368,
      "velocity": 127,
      "chip": "ym2612"
    },
    {
      "channel": 5,
      "note": 90,
      "start": 34.7695,
      "duration": 0.9996,
      "velocity": 102,
      "chip": "ym2612"
    },
    {
      "channel": 4,
      "note": 76,
      "start": 34.9949,
      "duration": 0.3327,
      "velocity": 82,
      "chip": "ym2612"
    },
    {
      "channel": 2,
      "note": 107,
      "start": 34.9968,
      "duration": 0.138,
      "velocity": 127,
      "chip": "ym2612"
    },
    {
      "channel": 4,
      "note": 81,
      "start": 35.3283,
      "duration": 0.3335,
      "velocity": 82,
      "chip": "ym2612"
    },
    {
      "channel": 2,
      "note": 107,
      "start": 35.3302,
      "duration": 0.138,
      "velocity": 127,
      "chip": "ym2612"
    },
    {
      "channel": 0,
      "note": 88,
      "start": 35.6605,
      "duration": 0.3327,
      "velocity": 102,
      "chip": "ym2612"
    },
    {
      "channel": 3,
      "note": 88,
      "start": 35.6615,
      "duration": 0.3329,
      "velocity": 88,
      "chip": "ym2612"
    },
    {
      "channel": 4,
      "note": 76,
      "start": 35.6624,
      "duration": 0.3326,
      "velocity": 82,
      "chip": "ym2612"
    },
    {
      "channel": 2,
      "note": 107,
      "start": 35.6642,
      "duration": 0.1377,
      "velocity": 127,
      "chip": "ym2612"
    },
    {
      "channel": 5,
      "note": 88,
      "start": 35.7698,
      "duration": 0.3327,
      "velocity": 102,
      "chip": "ym2612"
    },
    {
      "channel": 0,
      "note": 88,
      "start": 35.9937,
      "duration": 1.3329,
      "velocity": 102,
      "chip": "ym2612"
    },
    {
      "channel": 1,
      "note": 57,
      "start": 35.9942,
      "duration": 0.9993,
      "velocity": 110,
      "chip": "ym2612"
    },
    {
      "channel": 3,
      "note": 88,
      "start": 35.9949,
      "duration": 1.3333,
      "velocity": 88,
      "chip": "ym2612"
    },
    {
      "channel": 4,
      "note": 85,
      "start": 35.9957,
      "duration": 0.3319,
      "velocity": 82,
      "chip": "ym2612"
    },
    {
      "channel": 2,
      "note": 107,
      "start": 35.9975,
      "duration": 0.1373,
      "velocity": 127,
      "chip": "ym2612"
    },
    {
      "channel": 5,
      "note": 88,
      "start": 36.1031,
      "duration": 1.3327,
      "velocity": 102,
      "chip": "ym2612"
    },
    {
      "channel": 2,
      "note": 107,
      "start": 36.1546,
      "duration": 0.1392,
      "velocity": 127,
      "chip": "ym2612"
    },
    {
      "channel": 4,
      "note": 76,
      "start": 36.3283,
      "duration": 0.3327,
      "velocity": 82,
      "chip": "ym2612"
    },
    {
      "channel": 2,
      "note": 107,
      "start": 36.33,
      "duration": 0.1382,
      "velocity": 127,
      "chip": "ym2612"
    },
    {
      "channel": 4,
      "note": 81,
      "start": 36.6616,
      "duration": 0.3331,
      "velocity": 82,
      "chip": "ym2612"
    },
    {
      "channel": 2,
      "note": 107,
      "start": 36.6634,
      "duration": 0.1383,
      "velocity": 127,
      "chip": "ym2612"
    },
    {
      "channel": 1,
      "note": 52,
      "start": 36.9942,
      "duration": 0.3332,
      "velocity": 110,
      "chip": "ym2612"
    },
    {
      "channel": 4,
      "note": 76,
      "start": 36.9954,
      "duration": 0.3335,
      "velocity": 82,
      "chip": "ym2612"
    },
    {
      "channel": 2,
      "note": 107,
      "start": 36.9972,
      "duration": 0.1379,
      "velocity": 127,
      "chip": "ym2612"
    },
    {
      "channel": 0,
      "note": 90,
      "start": 37.3272,
      "duration": 0.6659,
      "velocity": 102,
      "chip": "ym2612"
    },
    {
      "channel": 1,
      "note": 50,
      "start": 37.3279,
      "duration": 1.3328,
      "velocity": 110,
      "chip": "ym2612"
    },
    {
      "channel": 3,
      "note": 90,
      "start": 37.3287,
      "duration": 0.6655,
      "velocity": 88,
      "chip": "ym2612"
    },
    {
      "channel": 2,
      "note": 107,
      "start": 37.3309,
      "duration": 0.1373,
      "velocity": 127,
      "chip": "ym2612"
    },
    {
      "channel": 5,
      "note": 90,
      "start": 37.4365,
      "duration": 0.6664,
      "velocity": 102,
      "chip": "ym2612"
    },
    {
      "channel": 4,
      "note": 78,
      "start": 37.6617,
      "duration": 0.3332,
      "velocity": 82,
      "chip": "ym2612"
    },
    {
      "channel": 2,
      "note": 107,
      "start": 37.6634,
      "duration": 0.1383,
      "velocity": 127,
      "chip": "ym2612"
    },
    {
      "channel": 0,
      "note": 90,
      "start": 37.9937,
      "duration": 0.3328,
      "velocity": 102,
      "chip": "ym2612"
    },
    {
      "channel": 3,
      "note": 90,
      "start": 37.9947,
      "duration": 0.3329,
      "velocity": 88,
      "chip": "ym2612"
    },
    {
      "channel": 4,
      "note": 81,
      "start": 37.9955,
      "duration": 0.3329,
      "velocity": 82,
      "chip": "ym2612"
    },
    {
      "channel": 2,
      "note": 107,
      "start": 37.9973,
      "duration": 0.1377,
      "velocity": 127,
      "chip": "ym2612"
    },
    {
      "channel": 5,
      "note": 90,
      "start": 38.1034,
      "duration": 0.3328,
      "velocity": 102,
      "chip": "ym2612"
    },
    {
      "channel": 0,
      "note": 92,
      "start": 38.3272,
      "duration": 0.3327,
      "velocity": 102,
      "chip": "ym2612"
    },
    {
      "channel": 3,
      "note": 92,
      "start": 38.3283,
      "duration": 0.333,
      "velocity": 88,
      "chip": "ym2612"
    },
    {
      "channel": 4,
      "note": 78,
      "start": 38.3291,
      "duration": 0.333,
      "velocity": 82,
      "chip": "ym2612"
    },
    {
      "channel": 2,
      "note": 107,
      "start": 38.3309,
      "duration": 0.1376,
      "velocity": 127,
      "chip": "ym2612"
    },
    {
      "channel": 5,
      "note": 92,
      "start": 38.4369,
      "duration": 0.3326,
      "velocity": 102,
      "chip": "ym2612"
    },
    {
      "channel": 0,
      "note": 93,
      "start": 38.6606,
      "duration": 1.3329,
      "velocity": 102,
      "chip": "ym2612"
    },
    {
      "channel": 1,
      "note": 50,
      "start": 38.6612,
      "duration": 0.9995,
      "velocity": 110,
      "chip": "ym2612"
    },
    {
      "channel": 3,
      "note": 93,
      "start": 38.6619,
      "duration": 1.3332,
      "velocity": 88,
      "chip": "ym2612"
    },
    {
      "channel": 4,
      "note": 86,
      "start": 38.6627,
      "duration": 0.3317,
      "velocity": 82,
      "chip": "ym2612"
    },
    {
      "channel": 2,
      "note": 107,
      "start": 38.6646,
      "duration": 0.1373,
      "velocity": 127,
      "chip": "ym2612"
    },
    {
      "channel": 5,
      "note": 93,
      "start": 38.7703,
      "duration": 1.3326,
      "velocity": 102,
      "chip": "ym2612"
    },
    {
      "channel": 2,
      "note": 107,
      "start": 38.8217,
      "duration": 0.1391,
      "velocity": 127,
      "chip": "ym2612"
    },
    {
      "channel": 4,
      "note": 78,
      "start": 38.9951,
      "duration": 0.3326,
      "velocity": 82,
      "chip": "ym2612"
    },
    {
      "channel": 2,
      "note": 107,
      "start": 38.9969,
      "duration": 0.1384,
      "velocity": 127,
      "chip": "ym2612"
    },
    {
      "channel": 4,
      "note": 81,
      "start": 39.3285,
      "duration": 0.3332,
      "velocity": 82,
      "chip": "ym2612"
    },
    {
      "channel": 2,
      "note": 107,
      "start": 39.3303,
      "duration": 0.1384,
      "velocity": 127,
      "chip": "ym2612"
    },
    {
      "channel": 1,
      "note": 50,
      "start": 39.6612,
      "duration": 0.3332,
      "velocity": 110,
      "chip": "ym2612"
    },
    {
      "channel": 4,
      "note": 78,
      "start": 39.6624,
      "duration": 0.3335,
      "velocity": 82,
      "chip": "ym2612"
    },
    {
      "channel": 2,
      "note": 107,
      "start": 39.6642,
      "duration": 0.138,
      "velocity": 127,
      "chip": "ym2612"
    },
    {
      "channel": 0,
      "note": 88,
      "start": 39.9942,
      "duration": 0.9993,
      "velocity": 102,
      "chip": "ym2612"
    },
    {
      "channel": 1,
      "note": 49,
      "start": 39.9949,
      "duration": 1.3329,
      "velocity": 110,
      "chip": "ym2612"
    },
    {
      "channel": 3,
      "note": 88,
      "start": 39.9957,
      "duration": 0.999,
      "velocity": 88,
      "chip": "ym2612"
    },
    {
      "channel": 2,
      "note": 107,
      "start": 39.9978,
      "duration": 0.1372,
      "velocity": 127,
      "chip": "ym2612"
    },
    {
      "channel": 5,
      "note": 88,
      "start": 40.1036,
      "duration": 0.9998,
      "velocity": 102,
      "chip": "ym2612"
    },
    {
      "channel": 4,
      "note": 76,
      "start": 40.3286,
      "duration": 0.3326,
      "velocity": 82,
      "chip": "ym2612"
    },
    {
      "channel": 2,
      "note": 107,
      "start": 40.3305,
      "duration": 0.1384,
      "velocity": 127,
      "chip": "ym2612"
    },
    {
      "channel": 4,
      "note": 81,
      "start": 40.6619,
      "duration": 0.3335,
      "velocity": 82,
      "chip": "ym2612"
    },
    {
      "channel": 2,
      "note": 107,
      "start": 40.6638,
      "duration": 0.1385,
      "velocity": 127,
      "chip": "ym2612"
    },
    {
      "channel": 0,
      "note": 92,
      "start": 40.9942,
      "duration": 0.3327,
      "velocity": 102,
      "chip": "ym2612"
    },
    {
      "channel": 3,
      "note": 92,
      "start": 40.9953,
      "duration": 0.3332,
      "velocity": 88,
      "chip": "ym2612"
    },
    {
      "channel": 4,
      "note": 76,
      "start": 40.9961,
      "duration": 0.3332,
      "velocity": 82,
      "chip": "ym2612"
    },
    {
      "channel": 2,
      "note": 107,
      "start": 40.998,
      "duration": 0.1375,
      "velocity": 127,
      "chip": "ym2612"
    },
    {
      "channel": 5,
      "note": 92,
      "start": 41.104,
      "duration": 0.3327,
      "velocity": 102,
      "chip": "ym2612"
    },
    {
      "channel": 0,
      "note": 93,
      "start": 41.3276,
      "duration": 1.3329,
      "velocity": 102,
      "chip": "ym2612"
    },
    {
      "channel": 1,
      "note": 54,
      "start": 41.3284,
      "duration": 0.9992,
      "velocity": 110,
      "chip": "ym2612"
    },
    {
      "channel": 3,
      "note": 93,
      "start": 41.3292,
      "duration": 1.3324,
      "velocity": 88,
      "chip": "ym2612"
    },
    {
      "channel": 4,
      "note": 85,
      "start": 41.33,
      "duration": 0.3315,
      "velocity": 82,
      "chip": "ym2612"
    },
    {
      "channel": 2,
      "note": 107,
      "start": 41.3318,
      "duration": 0.1371,
      "velocity": 127,
      "chip": "ym2612"
    },
    {
      "channel": 5,
      "note": 93,
      "start": 41.4375,
      "duration": 1.3319,
      "velocity": 102,
      "chip": "ym2612"
    },
    {
      "channel": 2,
      "note": 107,
      "start": 41.4888,
      "duration": 0.1391,
      "velocity": 127,
      "chip": "ym2612"
    },
    {
      "channel": 4,
      "note": 76,
      "start": 41.6622,
      "duration": 0.3326,
      "velocity": 82,
      "chip": "ym2612"
    },
    {
      "channel": 2,
      "note": 107,
      "start": 41.6639,
      "duration": 0.1385,
      "velocity": 127,
      "chip": "ym2612"
    },
    {
      "channel": 4,
      "note": 81,
      "start": 41.9955,
      "duration": 0.3331,
      "velocity": 82,
      "chip": "ym2612"
    },
    {
      "channel": 2,
      "note": 107,
      "start": 41.9973,
      "duration": 0.1385,
      "velocity": 127,
      "chip": "ym2612"
    },
    {
      "channel": 1,
      "note": 49,
      "start": 42.3281,
      "duration": 0.3327,
      "velocity": 110,
      "chip": "ym2612"
    },
    {
      "channel": 4,
      "note": 76,
      "start": 42.3293,
      "duration": 0.3326,
      "velocity": 82,
      "chip": "ym2612"
    },
    {
      "channel": 2,
      "note": 107,
      "start": 42.3311,
      "duration": 0.1381,
      "velocity": 127,
      "chip": "ym2612"
    },
    {
      "channel": 1,
      "note": 47,
      "start": 42.6614,
      "duration": 1.3332,
      "velocity": 110,
      "chip": "ym2612"
    },
    {
      "channel": 2,
      "note": 107,
      "start": 42.6639,
      "duration": 0.1374,
      "velocity": 127,
      "chip": "ym2612"
    },
    {
      "channel": 4,
      "note": 71,
      "start": 42.995,
      "duration": 0.3342,
      "velocity": 82,
      "chip": "ym2612"
    },
    {
      "channel": 2,
      "note": 107,
      "start": 42.9965,
      "duration": 0.1385,
      "velocity": 127,
      "chip": "ym2612"
    },
    {
      "channel": 0,
      "note": 93,
      "start": 43.3279,
      "duration": 0.3326,
      "velocity": 102,
      "chip": "ym2612"
    },
    {
      "channel": 3,
      "note": 93,
      "start": 43.329,
      "duration": 0.3326,
      "velocity": 88,
      "chip": "ym2612"
    },
    {
      "channel": 4,
      "note": 75,
      "start": 43.3299,
      "duration": 0.3324,
      "velocity": 82,
      "chip": "ym2612"
    },
    {
      "channel": 2,
      "note": 107,
      "start": 43.3313,
      "duration": 0.1379,
      "velocity": 127,
      "chip": "ym2612"
    },
    {
      "channel": 5,
      "note": 93,
      "start": 43.4377,
      "duration": 0.3327,
      "velocity": 102,
      "chip": "ym2612"
    },
    {
      "channel": 0,
      "note": 93,
      "start": 43.6612,
      "duration": 0.3327,
      "velocity": 102,
      "chip": "ym2612"
    },
    {
      "channel": 3,
      "note": 93,
      "start": 43.6621,
      "duration": 0.3331,
      "velocity": 88,
      "chip": "ym2612"
    },
    {
      "channel": 4,
      "note": 71,
      "start": 43.6629,
      "duration": 0.3329,
      "velocity": 82,
      "chip": "ym2612"
    },
    {
      "channel": 2,
      "note": 107,
      "start": 43.6647,
      "duration": 0.1379,
      "velocity": 127,
      "chip": "ym2612"
    },
    {
      "channel": 5,
      "note": 93,
      "start": 43.7709,
      "duration": 0.3328,
      "velocity": 102,
      "chip": "ym2612"
    },
    {
      "channel": 0,
      "note": 93,
      "start": 43.9945,
      "duration": 0.3329,
      "velocity": 102,
      "chip": "ym2612"
    },
    {
      "channel": 1,
      "note": 47,
      "start": 43.9951,
      "duration": 0.9999,
      "velocity": 110,
      "chip": "ym2612"
    },
    {
      "channel": 3,
      "note": 93,
      "start": 43.9956,
      "duration": 0.3328,
      "velocity": 88,
      "chip": "ym2612"
    },
    {
      "channel": 4,
      "note": 78,
      "start": 43.9965,
      "duration": 0.3326,
      "velocity": 82,
      "chip": "ym2612"
    },
    {
      "channel": 2,
      "note": 107,
      "start": 43.9983,
      "duration": 0.1377,
      "velocity": 127,
      "chip": "ym2612"
    },
    {
      "channel": 5,
      "note": 93,
      "start": 44.1043,
      "duration": 0.3328,
      "velocity": 102,
      "chip": "ym2612"
    },
    {
      "channel": 2,
      "note": 107,
      "start": 44.1558,
      "duration": 0.1391,
      "velocity": 127,
      "chip": "ym2612"
    },
    {
      "channel": 0,
      "note": 93,
      "start": 44.3279,
      "duration": 0.3328,
      "velocity": 102,
      "chip": "ym2612"
    },
    {
      "channel": 3,
      "note": 93,
      "start": 44.3289,
      "duration": 0.333,
      "velocity": 88,
      "chip": "ym2612"
    },
    {
      "channel": 4,
      "note": 71,
      "start": 44.3297,
      "duration": 0.3329,
      "velocity": 82,
      "chip": "ym2612"
    },
    {
      "channel": 2,
      "note": 107,
      "start": 44.3315,
      "duration": 0.1379,
      "velocity": 127,
      "chip": "ym2612"
    },
    {
      "channel": 5,
      "note": 93,
      "start": 44.4377,
      "duration": 0.3328,
      "velocity": 102,
      "chip": "ym2612"
    },
    {
      "channel": 0,
      "note": 92,
      "start": 44.6614,
      "duration": 0.3327,
      "velocity": 102,
      "chip": "ym2612"
    },
    {
      "channel": 3,
      "note": 92,
      "start": 44.6625,
      "duration": 0.3331,
      "velocity": 88,
      "chip": "ym2612"
    },
    {
      "channel": 4,
      "note": 75,
      "start": 44.6633,
      "duration": 0.333,
      "velocity": 82,
      "chip": "ym2612"
    },
    {
      "channel": 2,
      "note": 107,
      "start": 44.6651,
      "duration": 0.1377,
      "velocity": 127,
      "chip": "ym2612"
    },
    {
      "channel": 5,
      "note": 92,
      "start": 44.7712,
      "duration": 0.3326,
      "velocity": 102,
      "chip": "ym2612"
    },
    {
      "channel": 0,
      "note": 93,
      "start": 44.9948,
      "duration": 0.3328,
      "velocity": 102,
      "chip": "ym2612"
    },
    {
      "channel": 1,
      "note": 47,
      "start": 44.9954,
      "duration": 0.333,
      "velocity": 110,
      "chip": "ym2612"
    },
    {
      "channel": 3,
      "note": 93,
      "start": 44.9962,
      "duration": 0.333,
      "velocity": 88,
      "chip": "ym2612"
    },
    {
      "channel": 4,
      "note": 71,
      "start": 44.997,
      "duration": 0.3329,
      "velocity": 82,
      "chip": "ym2612"
    },
    {
      "channel": 2,
      "note": 107,
      "start": 44.9988,
      "duration": 0.1373,
      "velocity": 127,
      "chip": "ym2612"
    },
    {
      "channel": 5,
      "note": 93,
      "start": 45.1045,
      "duration": 0.3325,
      "velocity": 102,
      "chip": "ym2612"
    },
    {
      "channel": 0,
      "note": 95,
      "start": 45.3283,
      "duration": 2.6689,
      "velocity": 88,
      "chip": "ym2612"
    },
    {
      "channel": 1,
      "note": 52,
      "start": 45.329,
      "duration": 0.999,
      "velocity": 110,
      "chip": "ym2612"
    },
    {
      "channel": 3,
      "note": 95,
      "start": 45.3299,
      "duration": 2.6695,
      "velocity": 88,
      "chip": "ym2612"
    },
    {
      "channel": 2,
      "note": 107,
      "start": 45.332,
      "duration": 0.1373,
      "velocity": 127,
      "chip": "ym2612"
    },
    {
      "channel": 5,
      "note": 95,
      "start": 45.4377,
      "duration": 2.6697,
      "velocity": 88,
      "chip": "ym2612"
    },
    {
      "channel": 4,
      "note": 76,
      "start": 45.6628,
      "duration": 0.3327,
      "velocity": 82,
      "chip": "ym2612"
    },
    {
      "channel": 2,
      "note": 107,
      "start": 45.6646,
      "duration": 0.1385,
      "velocity": 127,
      "chip": "ym2612"
    },
    {
      "channel": 4,
      "note": 80,
      "start": 45.9961,
      "duration": 0.3329,
      "velocity": 82,
      "chip": "ym2612"
    },
    {
      "channel": 2,
      "note": 107,
      "start": 45.998,
      "duration": 0.1384,
      "velocity": 127,
      "chip": "ym2612"
    },
    {
      "channel": 1,
      "note": 52,
      "start": 46.3285,
      "duration": 0.3329,
      "velocity": 110,
      "chip": "ym2612"
    },
    {
      "channel": 4,
      "note": 76,
      "start": 46.3297,
      "duration": 0.3328,
      "velocity": 82,
      "chip": "ym2612"
    },
    {
      "channel": 2,
      "note": 107,
      "start": 46.3316,
      "duration": 0.1382,
      "velocity": 127,
      "chip": "ym2612"
    },
    {
      "channel": 1,
      "note": 54,
      "start": 46.662,
      "duration": 0.3328,
      "velocity": 110,
      "chip": "ym2612"
    },
    {
      "channel": 4,
      "note": 83,
      "start": 46.6632,
      "duration": 0.3327,
      "velocity": 82,
      "chip": "ym2612"
    },
    {
      "channel": 2,
      "note": 107,
      "start": 46.6651,
      "duration": 0.138,
      "velocity": 127,
      "chip": "ym2612"
    },
    {
      "channel": 2,
      "note": 107,
      "start": 46.8237,
      "duration": 0.1383,
      "velocity": 127,
      "chip": "ym2612"
    },
    {
      "channel": 1,
      "note": 52,
      "start": 46.9954,
      "duration": 0.3328,
      "velocity": 110,
      "chip": "ym2612"
    },
    {
      "channel": 4,
      "note": 76,
      "start": 46.9966,
      "duration": 0.3328,
      "velocity": 82,
      "chip": "ym2612"
    },
    {
      "channel": 2,
      "note": 107,
      "start": 46.9984,
      "duration": 0.1381,
      "velocity": 127,
      "chip": "ym2612"
    },
    {
      "channel": 1,
      "note": 47,
      "start": 47.3288,
      "duration": 0.3327,
      "velocity": 110,
      "chip": "ym2612"
    },
    {
      "channel": 4,
      "note": 80,
      "start": 47.33,
      "duration": 0.3327,
      "velocity": 82,
      "chip": "ym2612"
    },
    {
      "channel": 2,
      "note": 107,
      "start": 47.3319,
      "duration": 0.138,
      "velocity": 127,
      "chip": "ym2612"
    },
    {
      "channel": 1,
      "note": 52,
      "start": 47.6622,
      "duration": 0.3359,
      "velocity": 110,
      "chip": "ym2612"
    },
    {
      "channel": 4,
      "note": 76,
      "start": 47.6633,
      "duration": 0.3368,
      "velocity": 82,
      "chip": "ym2612"
    },
    {
      "channel": 2,
      "note": 107,
      "start": 47.6651,
      "duration": 0.1381,
      "velocity": 127,
      "chip": "ym2612"
    },
    {
      "channel": 0,
      "note": 92,
      "start": 47.9979,
      "duration": 0.6634,
      "velocity": 88,
      "chip": "ym2612"
    },
    {
      "channel": 1,
      "note": 52,
      "start": 47.9986,
      "duration": 0.6636,
      "velocity": 110,
      "chip": "ym2612"
    },
    {
      "channel": 3,
      "note": 88,
      "start": 48.0,
      "duration": 0.6629,
      "velocity": 88,
      "chip": "ym2612"
    },
    {
      "channel": 4,
      "note": 80,
      "start": 48.0008,
      "duration": 0.6628,
      "velocity": 82,
      "chip": "ym2612"
    },
    {
      "channel": 2,
      "note": 36,
      "start": 48.0022,
      "duration": 0.1344,
      "velocity": 127,
      "chip": "ym2612"
    },
    {
      "channel": 5,
      "note": 92,
      "start": 48.1082,
      "duration": 0.6629,
      "velocity": 88,
      "chip": "ym2612"
    },
    {
      "channel": 0,
      "note": 93,
      "start": 48.662,
      "duration": 0.6661,
      "velocity": 88,
      "chip": "ym2612"
    },
    {
      "channel": 1,
      "note": 54,
      "start": 48.6627,
      "duration": 0.6662,
      "velocity": 110,
      "chip": "ym2612"
    },
    {
      "channel": 3,
      "note": 90,
      "start": 48.6635,
      "duration": 0.6661,
      "velocity": 88,
      "chip": "ym2612"
    },
    {
      "channel": 4,
      "note": 81,
      "start": 48.6643,
      "duration": 0.6661,
      "velocity": 82,
      "chip": "ym2612"
    },
    {
      "channel": 2,
      "note": 36,
      "start": 48.6656,
      "duration": 0.1377,
      "velocity": 127,
      "chip": "ym2612"
    },
    {
      "channel": 5,
      "note": 93,
      "start": 48.7718,
      "duration": 0.666,
      "velocity": 88,
      "chip": "ym2612"
    },
    {
      "channel": 0,
      "note": 94,
      "start": 49.3288,
      "duration": 0.6661,
      "velocity": 88,
      "chip": "ym2612"
    },
    {
      "channel": 1,
      "note": 55,
      "start": 49.3295,
      "duration": 0.6662,
      "velocity": 110,
      "chip": "ym2612"
    },
    {
      "channel": 3,
      "note": 91,
      "start": 49.3303,
      "duration": 0.6662,
      "velocity": 88,
      "chip": "ym2612"
    },
    {
      "channel": 4,
      "note": 82,
      "start": 49.3311,
      "duration": 0.6661,
      "velocity": 82,
      "chip": "ym2612"
    },
    {
      "channel": 2,
      "note": 36,
      "start": 49.3324,
      "duration": 0.1376,
      "velocity": 127,
      "chip": "ym2612"
    },
    {
      "channel": 5,
      "note": 94,
      "start": 49.4385,
      "duration": 0.6665,
      "velocity": 88,
      "chip": "ym2612"
    },
    {
      "channel": 0,
      "note": 95,
      "start": 49.9956,
      "duration": 0.6691,
      "velocity": 102,
      "chip": "ym2612"
    },
    {
      "channel": 1,
      "note": 56,
      "start": 49.9963,
      "duration": 0.6693,
      "velocity": 110,
      "chip": "ym2612"
    },
    {
      "channel": 3,
      "note": 92,
      "start": 49.997,
      "duration": 0.672,
      "velocity": 102,
      "chip": "ym2612"
    },
    {
      "channel": 4,
      "note": 83,
      "start": 49.9978,
      "duration": 0.6727,
      "velocity": 85,
      "chip": "ym2612"
    },
    {
      "channel": 2,
      "note": 72,
      "start": 49.9991,
      "duration": 0.1516,
      "velocity": 120,
      "chip": "ym2612"
    },
    {
      "channel": 5,
      "note": 95,
      "start": 50.1057,
      "duration": 0.6687,
      "velocity": 102,
      "chip": "ym2612"
    },
    {
      "channel": 2,
      "note": 72,
      "start": 50.1561,
      "duration": 0.1694,
      "velocity": 120,
      "chip": "ym2612"
    },
    {
      "channel": 2,
      "note": 36,
      "start": 50.3311,
      "duration": 0.1394,
      "velocity": 127,
      "chip": "ym2612"
    },
    {
      "channel": 0,
      "note": 93,
      "start": 50.6654,
      "duration": 0.663,
      "velocity": 102,
      "chip": "ym2612"
    },
    {
      "channel": 1,
      "note": 57,
      "start": 50.6662,
      "duration": 0.663,
      "velocity": 110,
      "chip": "ym2612"
    },
    {
      "channel": 3,
      "note": 85,
      "start": 50.6697,
      "duration": 0.6603,
      "velocity": 102,
      "chip": "ym2612"
    },
    {
      "channel": 4,
      "note": 97,
      "start": 50.6712,
      "duration": 0.6595,
      "velocity": 85,
      "chip": "ym2612"
    },
    {
      "channel": 2,
      "note": 36,
      "start": 50.6725,
      "duration": 0.1312,
      "velocity": 127,
      "chip": "ym2612"
    },
    {
      "channel": 5,
      "note": 93,
      "start": 50.7752,
      "duration": 0.663,
      "velocity": 102,
      "chip": "ym2612"
    },
    {
      "channel": 2,
      "note": 36,
      "start": 50.9977,
      "duration": 0.1395,
      "velocity": 127,
      "chip": "ym2612"
    },
    {
      "channel": 0,
      "note": 95,
      "start": 51.3291,
      "duration": 0.6664,
      "velocity": 102,
      "chip": "ym2612"
    },
    {
      "channel": 1,
      "note": 59,
      "start": 51.3298,
      "duration": 0.6665,
      "velocity": 110,
      "chip": "ym2612"
    },
    {
      "channel": 3,
      "note": 86,
      "start": 51.3305,
      "duration": 0.6666,
      "velocity": 102,
      "chip": "ym2612"
    },
    {
      "channel": 4,
      "note": 98,
      "start": 51.3315,
      "duration": 0.6664,
      "velocity": 85,
      "chip": "ym2612"
    },
    {
      "channel": 2,
      "note": 72,
      "start": 51.3327,
      "duration": 0.2809,
      "velocity": 120,
      "chip": "ym2612"
    },
    {
      "channel": 5,
      "note": 95,
      "start": 51.4389,
      "duration": 0.666,
      "velocity": 102,
      "chip": "ym2612"
    },
    {
      "channel": 2,
      "note": 36,
      "start": 51.6645,
      "duration": 0.1396,
      "velocity": 127,
      "chip": "ym2612"
    },
    {
      "channel": 0,
      "note": 97,
      "start": 51.9962,
      "duration": 1.3327,
      "velocity": 102,
      "chip": "ym2612"
    },
    {
      "channel": 1,
      "note": 61,
      "start": 51.9969,
      "duration": 0.9989,
      "velocity": 110,
      "chip": "ym2612"
    },
    {
      "channel": 3,
      "note": 88,
      "start": 51.9977,
      "duration": 1.3328,
      "velocity": 102,
      "chip": "ym2612"
    },
    {
      "channel": 4,
      "note": 100,
      "start": 51.9985,
      "duration": 0.6645,
      "velocity": 85,
      "chip": "ym2612"
    },
    {
      "channel": 2,
      "note": 36,
      "start": 51.9999,
      "duration": 0.1372,
      "velocity": 127,
      "chip": "ym2612"
    },
    {
      "channel": 5,
      "note": 97,
      "start": 52.1056,
      "duration": 1.3328,
      "velocity": 102,
      "chip": "ym2612"
    },
    {
      "channel": 2,
      "note": 36,
      "start": 52.3314,
      "duration": 0.1394,
      "velocity": 127,
      "chip": "ym2612"
    },
    {
      "channel": 2,
      "note": 72,
      "start": 52.6645,
      "duration": 0.2824,
      "velocity": 120,
      "chip": "ym2612"
    },
    {
      "channel": 4,
      "note": 97,
      "start": 52.8197,
      "duration": 0.1771,
      "velocity": 85,
      "chip": "ym2612"
    },
    {
      "channel": 1,
      "note": 49,
      "start": 52.9964,
      "duration": 0.3334,
      "velocity": 110,
      "chip": "ym2612"
    },
    {
      "channel": 4,
      "note": 98,
      "start": 52.9975,
      "duration": 0.1549,
      "velocity": 85,
      "chip": "ym2612"
    },
    {
      "channel": 2,
      "note": 36,
      "start": 52.9989,
      "duration": 0.1385,
      "velocity": 127,
      "chip": "ym2612"
    },
    {
      "channel": 4,
      "note": 100,
      "start": 53.1531,
      "duration": 0.1781,
      "velocity": 85,
      "chip": "ym2612"
    },
    {
      "channel": 0,
      "note": 90,
      "start": 53.3296,
      "duration": 0.3324,
      "velocity": 102,
      "chip": "ym2612"
    },
    {
      "channel": 1,
      "note": 54,
      "start": 53.3304,
      "duration": 0.9993,
      "velocity": 110,
      "chip": "ym2612"
    },
    {
      "channel": 3,
      "note": 81,
      "start": 53.3311,
      "duration": 0.3319,
      "velocity": 102,
      "chip": "ym2612"
    },
    {
      "channel": 4,
      "note": 93,
      "start": 53.332,
      "duration": 1.9986,
      "velocity": 85,
      "chip": "ym2612"
    },
    {
      "channel": 2,
      "note": 36,
      "start": 53.3333,
      "duration": 0.1375,
      "velocity": 127,
      "chip": "ym2612"
    },
    {
      "channel": 5,
      "note": 90,
      "start": 53.4391,
      "duration": 0.3328,
      "velocity": 102,
      "chip": "ym2612"
    },
    {
      "channel": 0,
      "note": 90,
      "start": 53.6625,
      "duration": 0.3328,
      "velocity": 102,
      "chip": "ym2612"
    },
    {
      "channel": 3,
      "note": 81,
      "start": 53.6635,
      "duration": 0.333,
      "velocity": 102,
      "chip": "ym2612"
    },
    {
      "channel": 2,
      "note": 36,
      "start": 53.6652,
      "duration": 0.1389,
      "velocity": 127,
      "chip": "ym2612"
    },
    {
      "channel": 5,
      "note": 90,
      "start": 53.7725,
      "duration": 0.3328,
      "velocity": 102,
      "chip": "ym2612"
    },
    {
      "channel": 0,
      "note": 92,
      "start": 53.996,
      "duration": 0.3328,
      "velocity": 102,
      "chip": "ym2612"
    },
    {
      "channel": 3,
      "note": 83,
      "start": 53.9972,
      "duration": 0.3333,
      "velocity": 102,
      "chip": "ym2612"
    },
    {
      "channel": 2,
      "note": 72,
      "start": 53.9988,
      "duration": 0.2818,
      "velocity": 120,
      "chip": "ym2612"
    },
    {
      "channel": 5,
      "note": 92,
      "start": 54.106,
      "duration": 0.3327,
      "velocity": 102,
      "chip": "ym2612"
    },
    {
      "channel": 0,
      "note": 92,
      "start": 54.3295,
      "duration": 0.1553,
      "velocity": 102,
      "chip": "ym2612"
    },
    {
      "channel": 1,
      "note": 49,
      "start": 54.3302,
      "duration": 0.3328,
      "velocity": 110,
      "chip": "ym2612"
    },
    {
      "channel": 3,
      "note": 83,
      "start": 54.331,
      "duration": 0.155,
      "velocity": 102,
      "chip": "ym2612"
    },
    {
      "channel": 2,
      "note": 36,
      "start": 54.3328,
      "duration": 0.1381,
      "velocity": 127,
      "chip": "ym2612"
    },
    {
      "channel": 5,
      "note": 92,
      "start": 54.4397,
      "duration": 0.1578,
      "velocity": 102,
      "chip": "ym2612"
    },
    {
      "channel": 0,
      "note": 93,
      "start": 54.4855,
      "duration": 1.3328,
      "velocity": 102,
      "chip": "ym2612"
    },
    {
      "channel": 3,
      "note": 85,
      "start": 54.4866,
      "duration": 1.3324,
      "velocity": 102,
      "chip": "ym2612"
    },
    {
      "channel": 5,
      "note": 93,
      "start": 54.5981,
      "duration": 1.3322,
      "velocity": 102,
      "chip": "ym2612"
    },
    {
      "channel": 1,
      "note": 54,
      "start": 54.6636,
      "duration": 0.1551,
      "velocity": 110,
      "chip": "ym2612"
    },
    {
      "channel": 2,
      "note": 36,
      "start": 54.6656,
      "duration": 0.1388,
      "velocity": 127,
      "chip": "ym2612"
    },
    {
      "channel": 1,
      "note": 49,
      "start": 54.9966,
      "duration": 0.1554,
      "velocity": 110,
      "chip": "ym2612"
    },
    {
      "channel": 2,
      "note": 36,
      "start": 54.9988,
      "duration": 0.139,
      "velocity": 127,
      "chip": "ym2612"
    },
    {
      "channel": 1,
      "note": 57,
      "start": 55.33,
      "duration": 0.6668,
      "velocity": 110,
      "chip": "ym2612"
    },
    {
      "channel": 2,
      "note": 72,
      "start": 55.332,
      "duration": 0.2822,
      "velocity": 120,
      "chip": "ym2612"
    },
    {
      "channel": 4,
      "note": 95,
      "start": 55.6641,
      "duration": 0.1551,
      "velocity": 85,
      "chip": "ym2612"
    },
    {
      "channel": 2,
      "note": 36,
      "start": 55.6655,
      "duration": 0.1391,
      "velocity": 127,
      "chip": "ym2612"
    },
    {
      "channel": 4,
      "note": 97,
      "start": 55.82,
      "duration": 0.1784,
      "velocity": 85,
      "chip": "ym2612"
    },
    {
      "channel": 0,
      "note": 98,
      "start": 55.9968,
      "duration": 0.1549,
      "velocity": 102,
      "chip": "ym2612"
    },
    {
      "channel": 1,
      "note": 62,
      "start": 55.9975,
      "duration": 0.9988,
      "velocity": 110,
      "chip": "ym2612"
    },
    {
      "channel": 3,
      "note": 90,
      "start": 55.9982,
      "duration": 0.1546,
      "velocity": 102,
      "chip": "ym2612"
    },
    {
      "channel": 4,
      "note": 98,
      "start": 55.9991,
      "duration": 0.9983,
      "velocity": 85,
      "chip": "ym2612"
    },
    {
      "channel": 2,
      "note": 36,
      "start": 56.0,
      "duration": 0.1377,
      "velocity": 127,
      "chip": "ym2612"
    },
    {
      "channel": 5,
      "note": 98,
      "start": 56.1066,
      "duration": 0.1577,
      "velocity": 102,
      "chip": "ym2612"
    },
    {
      "channel": 0,
      "note": 98,
      "start": 56.1524,
      "duration": 0.3327,
      "velocity": 102,
      "chip": "ym2612"
    },
    {
      "channel": 3,
      "note": 90,
      "start": 56.1535,
      "duration": 0.3326,
      "velocity": 102,
      "chip": "ym2612"
    },
    {
      "channel": 5,
      "note": 98,
      "start": 56.265,
      "duration": 0.3328,
      "velocity": 102,
      "chip": "ym2612"
    },
    {
      "channel": 2,
      "note": 36,
      "start": 56.3318,
      "duration": 0.1395,
      "velocity": 127,
      "chip": "ym2612"
    },
    {
      "channel": 0,
      "note": 98,
      "start": 56.4856,
      "duration": 0.1769,
      "velocity": 102,
      "chip": "ym2612"
    },
    {
      "channel": 3,
      "note": 90,
      "start": 56.4865,
      "duration": 0.1772,
      "velocity": 102,
      "chip": "ym2612"
    },
    {
      "channel": 5,
      "note": 98,
      "start": 56.5983,
      "duration": 0.1741,
      "velocity": 102,
      "chip": "ym2612"
    },
    {
      "channel": 0,
      "note": 90,
      "start": 56.6632,
      "duration": 0.1552,
      "velocity": 102,
      "chip": "ym2612"
    },
    {
      "channel": 3,
      "note": 81,
      "start": 56.6643,
      "duration": 0.1554,
      "velocity": 102,
      "chip": "ym2612"
    },
    {
      "channel": 2,
      "note": 72,
      "start": 56.6659,
      "duration": 0.2816,
      "velocity": 120,
      "chip": "ym2612"
    },
    {
      "channel": 5,
      "note": 90,
      "start": 56.7736,
      "duration": 0.1576,
      "velocity": 102,
      "chip": "ym2612"
    },
    {
      "channel": 0,
      "note": 90,
      "start": 56.8191,
      "duration": 0.5104,
      "velocity": 102,
      "chip": "ym2612"
    },
    {
      "channel": 3,
      "note": 81,
      "start": 56.8202,
      "duration": 0.5109,
      "velocity": 102,
      "chip": "ym2612"
    },
    {
      "channel": 5,
      "note": 90,
      "start": 56.9319,
      "duration": 0.5071,
      "velocity": 102,
      "chip": "ym2612"
    },
    {
      "channel": 1,
      "note": 54,
      "start": 56.9969,
      "duration": 0.1555,
      "velocity": 110,
      "chip": "ym2612"
    },
    {
      "channel": 4,
      "note": 100,
      "start": 56.9981,
      "duration": 0.1549,
      "velocity": 85,
      "chip": "ym2612"
    },
    {
      "channel": 2,
      "note": 36,
      "start": 56.9993,
      "duration": 0.1387,
      "velocity": 127,
      "chip": "ym2612"
    },
    {
      "channel": 4,
      "note": 102,
      "start": 57.1537,
      "duration": 0.1782,
      "velocity": 85,
      "chip": "ym2612"
    },
    {
      "channel": 0,
      "note": 97,
      "start": 57.3302,
      "duration": 0.155,
      "velocity": 102,
      "chip": "ym2612"
    },
    {
      "channel": 1,
      "note": 61,
      "start": 57.3309,
      "duration": 0.999,
      "velocity": 110,
      "chip": "ym2612"
    },
    {
      "channel": 3,
      "note": 88,
      "start": 57.3318,
      "duration": 0.1545,
      "velocity": 102,
      "chip": "ym2612"
    },
    {
      "channel": 4,
      "note": 100,
      "start": 57.3326,
      "duration": 0.9984,
      "velocity": 85,
      "chip": "ym2612"
    },
    {
      "channel": 2,
      "note": 36,
      "start": 57.3339,
      "duration": 0.1374,
      "velocity": 127,
      "chip": "ym2612"
    },
    {
      "channel": 5,
      "note": 97,
      "start": 57.4402,
      "duration": 0.1577,
      "velocity": 102,
      "chip": "ym2612"
    },
    {
      "channel": 0,
      "note": 97,
      "start": 57.4858,
      "duration": 0.1768,
      "velocity": 102,
      "chip": "ym2612"
    },
    {
      "channel": 3,
      "note": 88,
      "start": 57.4867,
      "duration": 0.1769,
      "velocity": 102,
      "chip": "ym2612"
    },
    {
      "channel": 5,
      "note": 97,
      "start": 57.5984,
      "duration": 0.1742,
      "velocity": 102,
      "chip": "ym2612"
    },
    {
      "channel": 0,
      "note": 97,
      "start": 57.6631,
      "duration": 0.1558,
      "velocity": 102,
      "chip": "ym2612"
    },
    {
      "channel": 3,
      "note": 88,
      "start": 57.6641,
      "duration": 0.1559,
      "velocity": 102,
      "chip": "ym2612"
    },
    {
      "channel": 2,
      "note": 36,
      "start": 57.6657,
      "duration": 0.139,
      "velocity": 127,
      "chip": "ym2612"
    },
    {
      "channel": 5,
      "note": 97,
      "start": 57.7735,
      "duration": 0.1578,
      "velocity": 102,
      "chip": "ym2612"
    },
    {
      "channel": 0,
      "note": 97,
      "start": 57.8195,
      "duration": 0.1765,
      "velocity": 102,
      "chip": "ym2612"
    },
    {
      "channel": 3,
      "note": 88,
      "start": 57.8204,
      "duration": 0.1765,
      "velocity": 102,
      "chip": "ym2612"
    },
    {
      "channel": 5,
      "note": 97,
      "start": 57.9318,
      "duration": 0.1741,
      "velocity": 102,
      "chip": "ym2612"
    },
    {
      "channel": 0,
      "note": 97,
      "start": 57.9965,
      "duration": 0.1555,
      "velocity": 102,
      "chip": "ym2612"
    },
    {
      "channel": 3,
      "note": 88,
      "start": 57.9975,
      "duration": 0.1557,
      "velocity": 102,
      "chip": "ym2612"
    },
    {
      "channel": 2,
      "note": 72,
      "start": 57.999,
      "duration": 0.282,
      "velocity": 120,
      "chip": "ym2612"
    },
    {
      "channel": 5,
      "note": 97,
      "start": 58.1069,
      "duration": 0.1578,
      "velocity": 102,
      "chip": "ym2612"
    },
    {
      "channel": 0,
      "note": 88,
      "start": 58.1527,
      "duration": 0.5104,
      "velocity": 102,
      "chip": "ym2612"
    },
    {
      "channel": 3,
      "note": 85,
      "start": 58.1538,
      "duration": 0.5108,
      "velocity": 102,
      "chip": "ym2612"
    },
    {
      "channel": 5,
      "note": 88,
      "start": 58.2654,
      "duration": 0.5072,
      "velocity": 102,
      "chip": "ym2612"
    },
    {
      "channel": 1,
      "note": 52,
      "start": 58.3305,
      "duration": 0.1553,
      "velocity": 110,
      "chip": "ym2612"
    },
    {
      "channel": 4,
      "note": 97,
      "start": 58.3317,
      "duration": 0.3337,
      "velocity": 85,
      "chip": "ym2612"
    },
    {
      "channel": 2,
      "note": 36,
      "start": 58.3329,
      "duration": 0.1386,
      "velocity": 127,
      "chip": "ym2612"
    },
    {
      "channel": 0,
      "note": 90,
      "start": 58.6638,
      "duration": 0.155,
      "velocity": 102,
      "chip": "ym2612"
    },
    {
      "channel": 1,
      "note": 50,
      "start": 58.6645,
      "duration": 0.9989,
      "velocity": 110,
      "chip": "ym2612"
    },
    {
      "channel": 3,
      "note": 86,
      "start": 58.6653,
      "duration": 0.1545,
      "velocity": 102,
      "chip": "ym2612"
    },
    {
      "channel": 4,
      "note": 98,
      "start": 58.6661,
      "duration": 0.9982,
      "velocity": 85,
      "chip": "ym2612"
    },
    {
      "channel": 2,
      "note": 36,
      "start": 58.6674,
      "duration": 0.1373,
      "velocity": 127,
      "chip": "ym2612"
    },
    {
      "channel": 5,
      "note": 90,
      "start": 58.7737,
      "duration": 0.1579,
      "velocity": 102,
      "chip": "ym2612"
    },
    {
      "channel": 0,
      "note": 90,
      "start": 58.8193,
      "duration": 0.5103,
      "velocity": 102,
      "chip": "ym2612"
    },
    {
      "channel": 3,
      "note": 86,
      "start": 58.8202,
      "duration": 0.5105,
      "velocity": 102,
      "chip": "ym2612"
    },
    {
      "channel": 5,
      "note": 90,
      "start": 58.9321,
      "duration": 0.5073,
      "velocity": 102,
      "chip": "ym2612"
    },
    {
      "channel": 2,
      "note": 36,
      "start": 58.9989,
      "duration": 0.1396,
      "velocity": 127,
      "chip": "ym2612"
    },
    {
      "channel": 0,
      "note": 92,
      "start": 59.3302,
      "duration": 0.4887,
      "velocity": 102,
      "chip": "ym2612"
    },
    {
      "channel": 3,
      "note": 86,
      "start": 59.3312,
      "duration": 0.4889,
      "velocity": 102,
      "chip": "ym2612"
    },
    {
      "channel": 2,
      "note": 72,
      "start": 59.3329,
      "duration": 0.2818,
      "velocity": 120,
      "chip": "ym2612"
    },
    {
      "channel": 5,
      "note": 92,
      "start": 59.4405,
      "duration": 0.4907,
      "velocity": 102,
      "chip": "ym2612"
    },
    {
      "channel": 1,
      "note": 50,
      "start": 59.6638,
      "duration": 0.1559,
      "velocity": 110,
      "chip": "ym2612"
    },
    {
      "channel": 4,
      "note": 95,
      "start": 59.6651,
      "duration": 0.1555,
      "velocity": 85,
      "chip": "ym2612"
    },
    {
      "channel": 2,
      "note": 36,
      "start": 59.6664,
      "duration": 0.1387,
      "velocity": 127,
      "chip": "ym2612"
    },
    {
      "channel": 0,
      "note": 93,
      "start": 59.8196,
      "duration": 0.177,
      "velocity": 102,
      "chip": "ym2612"
    },
    {
      "channel": 3,
      "note": 86,
      "start": 59.8205,
      "duration": 0.1777,
      "velocity": 102,
      "chip": "ym2612"
    },
    {
      "channel": 4,
      "note": 93,
      "start": 59.8213,
      "duration": 0.1777,
      "velocity": 85,
      "chip": "ym2612"
    },
    {
      "channel": 5,
      "note": 93,
      "start": 59.9319,
      "duration": 0.1747,
      "velocity": 102,
      "chip": "ym2612"
    },
    {
      "channel": 0,
      "note": 95,
      "start": 59.9973,
      "duration": 1.3328,
      "velocity": 102,
      "chip": "ym2612"
    },
    {
      "channel": 1,
      "note": 52,
      "start": 59.998,
      "duration": 0.3321,
      "velocity": 110,
      "chip": "ym2612"
    },
    {
      "channel": 3,
      "note": 88,
      "start": 59.9988,
      "duration": 1.333,
      "velocity": 102,
      "chip": "ym2612"
    },
    {
      "channel": 4,
      "note": 92,
      "start": 59.9997,
      "duration": 1.3328,
      "velocity": 85,
      "chip": "ym2612"
    },
    {
      "channel": 2,
      "note": 36,
      "start": 60.0009,
      "duration": 0.1375,
      "velocity": 127,
      "chip": "ym2612"
    },
    {
      "channel": 5,
      "note": 95,
      "start": 60.1073,
      "duration": 1.3328,
      "velocity": 102,
      "chip": "ym2612"
    },
    {
      "channel": 1,
      "note": 54,
      "start": 60.3307,
      "duration": 0.3329,
      "velocity": 110,
      "chip": "ym2612"
    },
    {
      "channel": 2,
      "note": 36,
      "start": 60.3328,
      "duration": 0.1392,
      "velocity": 127,
      "chip": "ym2612"
    },
    {
      "channel": 1,
      "note": 56,
      "start": 60.6641,
      "duration": 0.3327,
      "velocity": 110,
      "chip": "ym2612"
    },
    {
      "channel": 2,
      "note": 72,
      "start": 60.6662,
      "duration": 0.282,
      "velocity": 120,
      "chip": "ym2612"
    },
    {
      "channel": 1,
      "note": 59,
      "start": 60.9975,
      "duration": 0.3335,
      "velocity": 110,
      "chip": "ym2612"
    },
    {
      "channel": 2,
      "note": 36,
      "start": 60.9996,
      "duration": 0.1392,
      "velocity": 127,
      "chip": "ym2612"
    },
    {
      "channel": 0,
      "note": 93,
      "start": 61.3309,
      "duration": 0.4884,
      "velocity": 102,
      "chip": "ym2612"
    },
    {
      "channel": 1,
      "note": 57,
      "start": 61.3316,
      "duration": 0.6658,
      "velocity": 110,
      "chip": "ym2612"
    },
    {
      "channel": 3,
      "note": 85,
      "start": 61.3324,
      "duration": 0.4879,
      "velocity": 102,
      "chip": "ym2612"
    },
    {
      "channel": 4,
      "note": 97,
      "start": 61.3332,
      "duration": 0.6657,
      "velocity": 85,
      "chip": "ym2612"
    },
    {
      "channel": 2,
      "note": 36,
      "start": 61.3346,
      "duration": 0.1373,
      "velocity": 127,
      "chip": "ym2612"
    },
    {
      "channel": 5,
      "note": 93,
      "start": 61.4408,
      "duration": 0.4912,
      "velocity": 102,
      "chip": "ym2612"
    },
    {
      "channel": 2,
      "note": 36,
      "start": 61.666,
      "duration": 0.1396,
      "velocity": 127,
      "chip": "ym2612"
    },
    {
      "channel": 0,
      "note": 93,
      "start": 61.8198,
      "duration": 0.1768,
      "velocity": 102,
      "chip": "ym2612"
    },
    {
      "channel": 3,
      "note": 85,
      "start": 61.8207,
      "duration": 0.1774,
      "velocity": 102,
      "chip": "ym2612"
    },
    {
      "channel": 5,
      "note": 93,
      "start": 61.9325,
      "duration": 0.1743,
      "velocity": 102,
      "chip": "ym2612"
    },
    {
      "channel": 0,
      "note": 95,
      "start": 61.9973,
      "duration": 0.4887,
      "velocity": 102,
      "chip": "ym2612"
    },
    {
      "channel": 1,
      "note": 59,
      "start": 61.998,
      "duration": 0.6666,
      "velocity": 110,
      "chip": "ym2612"
    },
    {
      "channel": 3,
      "note": 86,
      "start": 61.9988,
      "duration": 0.4882,
      "velocity": 102,
      "chip": "ym2612"
    },
    {
      "channel": 4,
      "note": 98,
      "start": 61.9996,
      "duration": 0.6665,
      "velocity": 85,
      "chip": "ym2612"
    },
    {
      "channel": 2,
      "note": 72,
      "start": 62.0007,
      "duration": 0.281,
      "velocity": 120,
      "chip": "ym2612"
    },
    {
      "channel": 5,
      "note": 95,
      "start": 62.1075,
      "duration": 0.4912,
      "velocity": 102,
      "chip": "ym2612"
    },
    {
      "channel": 2,
      "note": 36,
      "start": 62.3327,
      "duration": 0.1395,
      "velocity": 127,
      "chip": "ym2612"
    },
    {
      "channel": 0,
      "note": 95,
      "start": 62.4865,
      "duration": 0.1772,
      "velocity": 102,
      "chip": "ym2612"
    },
    {
      "channel": 3,
      "note": 86,
      "start": 62.4874,
      "duration": 0.1779,
      "velocity": 102,
      "chip": "ym2612"
    },
    {
      "channel": 5,
      "note": 95,
      "start": 62.5992,
      "duration": 0.1746,
      "velocity": 102,
      "chip": "ym2612"
    },
    {
      "channel": 0,
      "note": 97,
      "start": 62.6645,
      "duration": 0.999,
      "velocity": 102,
      "chip": "ym2612"
    },
    {
      "channel": 1,
      "note": 61,
      "start": 62.6651,
      "duration": 0.9993,
      "velocity": 110,
      "chip": "ym2612"
    },
    {
      "channel": 3,
      "note": 88,
      "start": 62.666,
      "duration": 0.9991,
      "velocity": 102,
      "chip": "ym2612"
    },
    {
      "channel": 4,
      "note": 100,
      "start": 62.6668,
      "duration": 0.6647,
      "velocity": 85,
      "chip": "ym2612"
    },
    {
      "channel": 2,
      "note": 36,
      "start": 62.668,
      "duration": 0.1374,
      "velocity": 127,
      "chip": "ym2612"
    },
    {
      "channel": 5,
      "note": 97,
      "start": 62.7745,
      "duration": 0.9992,
      "velocity": 102,
      "chip": "ym2612"
    },
    {
      "channel": 2,
      "note": 36,
      "start": 62.9995,
      "duration": 0.1395,
      "velocity": 127,
      "chip": "ym2612"
    },
    {
      "channel": 2,
      "note": 72,
      "start": 63.3329,
      "duration": 0.2823,
      "velocity": 120,
      "chip": "ym2612"
    },
    {
      "channel": 4,
      "note": 97,
      "start": 63.488,
      "duration": 0.1778,
      "velocity": 85,
      "chip": "ym2612"
    },
    {
      "channel": 0,
      "note": 88,
      "start": 63.6642,
      "duration": 0.333,
      "velocity": 102,
      "chip": "ym2612"
    },
    {
      "channel": 1,
      "note": 49,
      "start": 63.665,
      "duration": 0.3331,
      "velocity": 110,
      "chip": "ym2612"
    },
    {
      "channel": 3,
      "note": 80,
      "start": 63.6657,
      "duration": 0.3331,
      "velocity": 102,
      "chip": "ym2612"
    },
    {
      "channel": 4,
      "note": 98,
      "start": 63.6666,
      "duration": 0.1541,
      "velocity": 85,
      "chip": "ym2612"
    },
    {
      "channel": 2,
      "note": 36,
      "start": 63.6679,
      "duration": 0.1376,
      "velocity": 127,
      "chip": "ym2612"
    },
    {
      "channel": 5,
      "note": 88,
      "start": 63.7744,
      "duration": 0.3326,
      "velocity": 102,
      "chip": "ym2612"
    },
    {
      "channel": 4,
      "note": 100,
      "start": 63.8213,
      "duration": 0.1782,
      "velocity": 85,
      "chip": "ym2612"
    },
    {
      "channel": 0,
      "note": 90,
      "start": 63.9979,
      "duration": 0.3324,
      "velocity": 102,
      "chip": "ym2612"
    },
    {
      "channel": 1,
      "note": 54,
      "start": 63.9987,
      "duration": 0.9992,
      "velocity": 110,
      "chip": "ym2612"
    },
    {
      "channel": 3,
      "note": 81,
      "start": 63.9995,
      "duration": 0.332,
      "velocity": 102,
      "chip": "ym2612"
    },
    {
      "channel": 4,
      "note": 102,
      "start": 64.0003,
      "duration": 1.332,
      "velocity": 85,
      "chip": "ym2612"
    },
    {
      "channel": 2,
      "note": 36,
      "start": 64.0016,
      "duration": 0.1373,
      "velocity": 127,
      "chip": "ym2612"
    },
    {
      "channel": 5,
      "note": 90,
      "start": 64.1078,
      "duration": 0.3329,
      "velocity": 102,
      "chip": "ym2612"
    },
    {
      "channel": 0,
      "note": 90,
      "start": 64.331,
      "duration": 0.3326,
      "velocity": 102,
      "chip": "ym2612"
    },
    {
      "channel": 3,
      "note": 81,
      "start": 64.3321,
      "duration": 0.3327,
      "velocity": 102,
      "chip": "ym2612"
    },
    {
      "channel": 2,
      "note": 36,
      "start": 64.3339,
      "duration": 0.1385,
      "velocity": 127,
      "chip": "ym2612"
    },
    {
      "channel": 5,
      "note": 90,
      "start": 64.4414,
      "duration": 0.3326,
      "velocity": 102,
      "chip": "ym2612"
    },
    {
      "channel": 0,
      "note": 92,
      "start": 64.6643,
      "duration": 0.3327,
      "velocity": 102,
      "chip": "ym2612"
    },
    {
      "channel": 3,
      "note": 83,
      "start": 64.6654,
      "duration": 0.3332,
      "velocity": 102,
      "chip": "ym2612"
    },
    {
      "channel": 2,
      "note": 72,
      "start": 64.6671,
      "duration": 0.2818,
      "velocity": 120,
      "chip": "ym2612"
    },
    {
      "channel": 5,
      "note": 92,
      "start": 64.7747,
      "duration": 0.3326,
      "velocity": 102,
      "chip": "ym2612"
    },
    {
      "channel": 0,
      "note": 92,
      "start": 64.9977,
      "duration": 0.1553,
      "velocity": 102,
      "chip": "ym2612"
    },
    {
      "channel": 1,
      "note": 49,
      "start": 64.9985,
      "duration": 0.3327,
      "velocity": 110,
      "chip": "ym2612"
    },
    {
      "channel": 3,
      "note": 83,
      "start": 64.9993,
      "duration": 0.155,
      "velocity": 102,
      "chip": "ym2612"
    },
    {
      "channel": 2,
      "note": 36,
      "start": 65.001,
      "duration": 0.1382,
      "velocity": 127,
      "chip": "ym2612"
    },
    {
      "channel": 5,
      "note": 92,
      "start": 65.108,
      "duration": 0.1576,
      "velocity": 102,
      "chip": "ym2612"
    },
    {
      "channel": 0,
      "note": 93,
      "start": 65.1538,
      "duration": 1.3329,
      "velocity": 102,
      "chip": "ym2612"
    },
    {
      "channel": 3,
      "note": 85,
      "start": 65.1549,
      "duration": 1.3324,
      "velocity": 102,
      "chip": "ym2612"
    },
    {
      "channel": 5,
      "note": 93,
      "start": 65.2664,
      "duration": 1.3322,
      "velocity": 102,
      "chip": "ym2612"
    },
    {
      "channel": 1,
      "note": 54,
      "start": 65.3318,
      "duration": 0.1551,
      "velocity": 110,
      "chip": "ym2612"
    },
    {
      "channel": 4,
      "note": 100,
      "start": 65.333,
      "duration": 1.3337,
      "velocity": 85,
      "chip": "ym2612"
    },
    {
      "channel": 2,
      "note": 36,
      "start": 65.3342,
      "duration": 0.1384,
      "velocity": 127,
      "chip": "ym2612"
    },
    {
      "channel": 1,
      "note": 49,
      "start": 65.6648,
      "duration": 0.1555,
      "velocity": 110,
      "chip": "ym2612"
    },
    {
      "channel": 2,
      "note": 36,
      "start": 65.6669,
      "duration": 0.1391,
      "velocity": 127,
      "chip": "ym2612"
    },
    {
      "channel": 1,
      "note": 57,
      "start": 65.9982,
      "duration": 0.6669,
      "velocity": 110,
      "chip": "ym2612"
    },
    {
      "channel": 2,
      "note": 72,
      "start": 66.0003,
      "duration": 0.2821,
      "velocity": 120,
      "chip": "ym2612"
    },
    {
      "channel": 2,
      "note": 36,
      "start": 66.3334,
      "duration": 0.1398,
      "velocity": 127,
      "chip": "ym2612"
    },
    {
      "channel": 0,
      "note": 98,
      "start": 66.665,
      "duration": 0.3323,
      "velocity": 102,
      "chip": "ym2612"
    },
    {
      "channel": 1,
      "note": 62,
      "start": 66.6657,
      "duration": 0.9988,
      "velocity": 110,
      "chip": "ym2612"
    },
    {
      "channel": 3,
      "note": 90,
      "start": 66.6666,
      "duration": 0.3318,
      "velocity": 102,
      "chip": "ym2612"
    },
    {
      "channel": 4,
      "note": 98,
      "start": 66.6674,
      "duration": 0.9983,
      "velocity": 85,
      "chip": "ym2612"
    },
    {
      "channel": 2,
      "note": 36,
      "start": 66.6683,
      "duration": 0.1377,
      "velocity": 127,
      "chip": "ym2612"
    },
    {
      "channel": 5,
      "note": 98,
      "start": 66.7749,
      "duration": 0.3327,
      "velocity": 102,
      "chip": "ym2612"
    },
    {
      "channel": 0,
      "note": 98,
      "start": 66.9979,
      "duration": 0.1554,
      "velocity": 102,
      "chip": "ym2612"
    },
    {
      "channel": 3,
      "note": 90,
      "start": 66.9989,
      "duration": 0.1555,
      "velocity": 102,
      "chip": "ym2612"
    },
    {
      "channel": 2,
      "note": 36,
      "start": 67.0006,
      "duration": 0.1394,
      "velocity": 127,
      "chip": "ym2612"
    },
    {
      "channel": 5,
      "note": 98,
      "start": 67.1082,
      "duration": 0.1578,
      "velocity": 102,
      "chip": "ym2612"
    },
    {
      "channel": 0,
      "note": 98,
      "start": 67.1539,
      "duration": 0.1768,
      "velocity": 102,
      "chip": "ym2612"
    },
    {
      "channel": 3,
      "note": 90,
      "start": 67.1549,
      "duration": 0.1769,
      "velocity": 102,
      "chip": "ym2612"
    },
    {
      "channel": 5,
      "note": 98,
      "start": 67.2666,
      "duration": 0.1745,
      "velocity": 102,
      "chip": "ym2612"
    },
    {
      "channel": 0,
      "note": 98,
      "start": 67.3312,
      "duration": 0.1555,
      "velocity": 102,
      "chip": "ym2612"
    },
    {
      "channel": 3,
      "note": 90,
      "start": 67.3322,
      "duration": 0.1557,
      "velocity": 102,
      "chip": "ym2612"
    },
    {
      "channel": 2,
      "note": 72,
      "start": 67.3338,
      "duration": 0.282,
      "velocity": 120,
      "chip": "ym2612"
    },
    {
      "channel": 5,
      "note": 98,
      "start": 67.4416,
      "duration": 0.1578,
      "velocity": 102,
      "chip": "ym2612"
    },
    {
      "channel": 0,
      "note": 90,
      "start": 67.4874,
      "duration": 0.5103,
      "velocity": 102,
      "chip": "ym2612"
    },
    {
      "channel": 3,
      "note": 81,
      "start": 67.4886,
      "duration": 0.5108,
      "velocity": 102,
      "chip": "ym2612"
    },
    {
      "channel": 5,
      "note": 90,
      "start": 67.6001,
      "duration": 0.5076,
      "velocity": 102,
      "chip": "ym2612"
    },
    {
      "channel": 1,
      "note": 54,
      "start": 67.6651,
      "duration": 0.1554,
      "velocity": 110,
      "chip": "ym2612"
    },
    {
      "channel": 4,
      "note": 100,
      "start": 67.6664,
      "duration": 0.1548,
      "velocity": 85,
      "chip": "ym2612"
    },
    {
      "channel": 2,
      "note": 36,
      "start": 67.6676,
      "duration": 0.1391,
      "velocity": 127,
      "chip": "ym2612"
    },
    {
      "channel": 4,
      "note": 102,
      "start": 67.8219,
      "duration": 0.1782,
      "velocity": 85,
      "chip": "ym2612"
    },
    {
      "channel": 0,
      "note": 97,
      "start": 67.9985,
      "duration": 0.155,
      "velocity": 102,
      "chip": "ym2612"
    },
    {
      "channel": 1,
      "note": 61,
      "start": 67.9992,
      "duration": 0.9993,
      "velocity": 110,
      "chip": "ym2612"
    },
    {
      "channel": 3,
      "note": 88,
      "start": 68.0,
      "duration": 0.1545,
      "velocity": 102,
      "chip": "ym2612"
    },
    {
      "channel": 4,
      "note": 100,
      "start": 68.0008,
      "duration": 0.9992,
      "velocity": 85,
      "chip": "ym2612"
    },
    {
      "channel": 2,
      "note": 36,
      "start": 68.0022,
      "duration": 0.1378,
      "velocity": 127,
      "chip": "ym2612"
    },
    {
      "channel": 5,
      "note": 97,
      "start": 68.1084,
      "duration": 0.1581,
      "velocity": 102,
      "chip": "ym2612"
    },
    {
      "channel": 0,
      "note": 97,
      "start": 68.154,
      "duration": 0.3328,
      "velocity": 102,
      "chip": "ym2612"
    },
    {
      "channel": 3,
      "note": 88,
      "start": 68.155,
      "duration": 0.3329,
      "velocity": 102,
      "chip": "ym2612"
    },
    {
      "channel": 5,
      "note": 97,
      "start": 68.2671,
      "duration": 0.3324,
      "velocity": 102,
      "chip": "ym2612"
    },
    {
      "channel": 2,
      "note": 36,
      "start": 68.3336,
      "duration": 0.14,
      "velocity": 127,
      "chip": "ym2612"
    },
    {
      "channel": 0,
      "note": 97,
      "start": 68.4874,
      "duration": 0.1768,
      "velocity": 102,
      "chip": "ym2612"
    },
    {
      "channel": 3,
      "note": 88,
      "start": 68.4883,
      "duration": 0.1769,
      "velocity": 102,
      "chip": "ym2612"
    },
    {
      "channel": 5,
      "note": 97,
      "start": 68.6,
      "duration": 0.1745,
      "velocity": 102,
      "chip": "ym2612"
    },
    {
      "channel": 0,
      "note": 97,
      "start": 68.6647,
      "duration": 0.1559,
      "velocity": 102,
      "chip": "ym2612"
    },
    {
      "channel": 3,
      "note": 88,
      "start": 68.6657,
      "duration": 0.1555,
      "velocity": 102,
      "chip": "ym2612"
    },
    {
      "channel": 2,
      "note": 72,
      "start": 68.6673,
      "duration": 0.2811,
      "velocity": 120,
      "chip": "ym2612"
    },
    {
      "channel": 5,
      "note": 97,
      "start": 68.7751,
      "duration": 0.1573,
      "velocity": 102,
      "chip": "ym2612"
    },
    {
      "channel": 0,
      "note": 88,
      "start": 68.9984,
      "duration": 0.1552,
      "velocity": 102,
      "chip": "ym2612"
    },
    {
      "channel": 1,
      "note": 52,
      "start": 68.9991,
      "duration": 0.1553,
      "velocity": 110,
      "chip": "ym2612"
    },
    {
      "channel": 3,
      "note": 85,
      "start": 68.9999,
      "duration": 0.1548,
      "velocity": 102,
      "chip": "ym2612"
    },
    {
      "channel": 4,
      "note": 97,
      "start": 69.0007,
      "duration": 0.3329,
      "velocity": 85,
      "chip": "ym2612"
    },
    {
      "channel": 2,
      "note": 36,
      "start": 69.0017,
      "duration": 0.1385,
      "velocity": 127,
      "chip": "ym2612"
    },
    {
      "channel": 5,
      "note": 88,
      "start": 69.1085,
      "duration": 0.1574,
      "velocity": 102,
      "chip": "ym2612"
    },
    {
      "channel": 0,
      "note": 88,
      "start": 69.1543,
      "duration": 0.177,
      "velocity": 102,
      "chip": "ym2612"
    },
    {
      "channel": 3,
      "note": 85,
      "start": 69.1554,
      "duration": 0.1776,
      "velocity": 102,
      "chip": "ym2612"
    },
    {
      "channel": 5,
      "note": 88,
      "start": 69.2667,
      "duration": 0.1746,
      "velocity": 102,
      "chip": "ym2612"
    },
    {
      "channel": 0,
      "note": 90,
      "start": 69.332,
      "duration": 0.4884,
      "velocity": 102,
      "chip": "ym2612"
    },
    {
      "channel": 1,
      "note": 47,
      "start": 69.3328,
      "duration": 0.9988,
      "velocity": 110,
      "chip": "ym2612"
    },
    {
      "channel": 3,
      "note": 86,
      "start": 69.3335,
      "duration": 0.4879,
      "velocity": 102,
      "chip": "ym2612"
    },
    {
      "channel": 4,
      "note": 95,
      "start": 69.3344,
      "duration": 0.9982,
      "velocity": 85,
      "chip": "ym2612"
    },
    {
      "channel": 2,
      "note": 36,
      "start": 69.3356,
      "duration": 0.1379,
      "velocity": 127,
      "chip": "ym2612"
    },
    {
      "channel": 5,
      "note": 90,
      "start": 69.442,
      "duration": 0.4913,
      "velocity": 102,
      "chip": "ym2612"
    },
    {
      "channel": 2,
      "note": 36,
      "start": 69.6672,
      "duration": 0.14,
      "velocity": 127,
      "chip": "ym2612"
    },
    {
      "channel": 0,
      "note": 90,
      "start": 69.821,
      "duration": 0.1768,
      "velocity": 102,
      "chip": "ym2612"
    },
    {
      "channel": 3,
      "note": 86,
      "start": 69.8219,
      "duration": 0.177,
      "velocity": 102,
      "chip": "ym2612"
    },
    {
      "channel": 5,
      "note": 90,
      "start": 69.9338,
      "duration": 0.1742,
      "velocity": 102,
      "chip": "ym2612"
    },
    {
      "channel": 0,
      "note": 92,
      "start": 69.9984,
      "duration": 0.1553,
      "velocity": 102,
      "chip": "ym2612"
    },
    {
      "channel": 3,
      "note": 86,
      "start": 69.9994,
      "duration": 0.1556,
      "velocity": 102,
      "chip": "ym2612"
    },
    {
      "channel": 2,
      "note": 72,
      "start": 70.001,
      "duration": 0.2817,
      "velocity": 120,
      "chip": "ym2612"
    },
    {
      "channel": 5,
      "note": 92,
      "start": 70.1087,
      "duration": 0.1577,
      "velocity": 102,
      "chip": "ym2612"
    },
    {
      "channel": 0,
      "note": 92,
      "start": 70.1545,
      "duration": 0.3328,
      "velocity": 102,
      "chip": "ym2612"
    },
    {
      "channel": 3,
      "note": 86,
      "start": 70.1554,
      "duration": 0.333,
      "velocity": 102,
      "chip": "ym2612"
    },
    {
      "channel": 5,
      "note": 92,
      "start": 70.2671,
      "duration": 0.3324,
      "velocity": 102,
      "chip": "ym2612"
    },
    {
      "channel": 1,
      "note": 47,
      "start": 70.3321,
      "duration": 0.156,
      "velocity": 110,
      "chip": "ym2612"
    },
    {
      "channel": 4,
      "note": 102,
      "start": 70.3333,
      "duration": 0.3339,
      "velocity": 85,
      "chip": "ym2612"
    },
    {
      "channel": 2,
      "note": 36,
      "start": 70.3345,
      "duration": 0.1396,
      "velocity": 127,
      "chip": "ym2612"
    },
    {
      "channel": 0,
      "note": 93,
      "start": 70.488,
      "duration": 0.1768,
      "velocity": 102,
      "chip": "ym2612"
    },
    {
      "channel": 3,
      "note": 86,
      "start": 70.4889,
      "duration": 0.1776,
      "velocity": 102,
      "chip": "ym2612"
    },
    {
      "channel": 5,
      "note": 93,
      "start": 70.6003,
      "duration": 0.1745,
      "velocity": 102,
      "chip": "ym2612"
    },
    {
      "channel": 0,
      "note": 95,
      "start": 70.6655,
      "duration": 0.9992,
      "velocity": 102,
      "chip": "ym2612"
    },
    {
      "channel": 1,
      "note": 52,
      "start": 70.6662,
      "duration": 0.9994,
      "velocity": 110,
      "chip": "ym2612"
    },
    {
      "channel": 3,
      "note": 88,
      "start": 70.667,
      "duration": 0.9992,
      "velocity": 102,
      "chip": "ym2612"
    },
    {
      "channel": 4,
      "note": 100,
      "start": 70.6679,
      "duration": 1.3329,
      "velocity": 85,
      "chip": "ym2612"
    },
    {
      "channel": 2,
      "note": 36,
      "start": 70.6691,
      "duration": 0.138,
      "velocity": 127,
      "chip": "ym2612"
    },
    {
      "channel": 5,
      "note": 95,
      "start": 70.7755,
      "duration": 0.9994,
      "velocity": 102,
      "chip": "ym2612"
    },
    {
      "channel": 2,
      "note": 36,
      "start": 71.0007,
      "duration": 0.1399,
      "velocity": 127,
      "chip": "ym2612"
    },
    {
      "channel": 2,
      "note": 72,
      "start": 71.3341,
      "duration": 0.2824,
      "velocity": 120,
      "chip": "ym2612"
    },
    {
      "channel": 0,
      "note": 88,
      "start": 71.6654,
      "duration": 0.1553,
      "velocity": 102,
      "chip": "ym2612"
    },
    {
      "channel": 1,
      "note": 52,
      "start": 71.6661,
      "duration": 0.1554,
      "velocity": 110,
      "chip": "ym2612"
    },
    {
      "channel": 3,
      "note": 85,
      "start": 71.6668,
      "duration": 0.155,
      "velocity": 102,
      "chip": "ym2612"
    },
    {
      "channel": 2,
      "note": 36,
      "start": 71.6685,
      "duration": 0.1387,
      "velocity": 127,
      "chip": "ym2612"
    },
    {
      "channel": 5,
      "note": 88,
      "start": 71.7756,
      "duration": 0.1575,
      "velocity": 102,
      "chip": "ym2612"
    },
    {
      "channel": 0,
      "note": 88,
      "start": 71.8213,
      "duration": 0.1772,
      "velocity": 102,
      "chip": "ym2612"
    },
    {
      "channel": 3,
      "note": 85,
      "start": 71.8222,
      "duration": 0.1778,
      "velocity": 102,
      "chip": "ym2612"
    },
    {
      "channel": 5,
      "note": 88,
      "start": 71.9336,
      "duration": 0.1751,
      "velocity": 102,
      "chip": "ym2612"
    },
    {
      "channel": 0,
      "note": 90,
      "start": 71.9991,
      "duration": 0.6657,
      "velocity": 102,
      "chip": "ym2612"
    },
    {
      "channel": 1,
      "note": 50,
      "start": 71.9999,
      "duration": 1.3329,
      "velocity": 110,
      "chip": "ym2612"
    },
    {
      "channel": 3,
      "note": 86,
      "start": 72.0007,
      "duration": 0.6652,
      "velocity": 102,
      "chip": "ym2612"
    },
    {
      "channel": 4,
      "note": 98,
      "start": 72.0015,
      "duration": 0.9979,
      "velocity": 85,
      "chip": "ym2612"
    },
    {
      "channel": 2,
      "note": 36,
      "start": 72.0027,
      "duration": 0.138,
      "velocity": 127,
      "chip": "ym2612"
    },
    {
      "channel": 5,
      "note": 90,
      "start": 72.1094,
      "duration": 0.6657,
      "velocity": 102,
      "chip": "ym2612"
    },
    {
      "channel": 2,
      "note": 36,
      "start": 72.3342,
      "duration": 0.1399,
      "velocity": 127,
      "chip": "ym2612"
    },
    {
      "channel": 0,
      "note": 90,
      "start": 72.6654,
      "duration": 0.4888,
      "velocity": 102,
      "chip": "ym2612"
    },
    {
      "channel": 3,
      "note": 86,
      "start": 72.6663,
      "duration": 0.489,
      "velocity": 102,
      "chip": "ym2612"
    },
    {
      "channel": 2,
      "note": 72,
      "start": 72.668,
      "duration": 0.2819,
      "velocity": 120,
      "chip": "ym2612"
    },
    {
      "channel": 5,
      "note": 90,
      "start": 72.7756,
      "duration": 0.4911,
      "velocity": 102,
      "chip": "ym2612"
    },
    {
      "channel": 4,
      "note": 100,
      "start": 73.0001,
      "duration": 0.1559,
      "velocity": 85,
      "chip": "ym2612"
    },
    {
      "channel": 2,
      "note": 36,
      "start": 73.0014,
      "duration": 0.1395,
      "velocity": 127,
      "chip": "ym2612"
    },
    {
      "channel": 0,
      "note": 93,
      "start": 73.1549,
      "duration": 0.1771,
      "velocity": 102,
      "chip": "ym2612"
    },
    {
      "channel": 3,
      "note": 86,
      "start": 73.1558,
      "duration": 0.1777,
      "velocity": 102,
      "chip": "ym2612"
    },
    {
      "channel": 4,
      "note": 102,
      "start": 73.1571,
      "duration": 0.1772,
      "velocity": 85,
      "chip": "ym2612"
    },
    {
      "channel": 5,
      "note": 93,
      "start": 73.2675,
      "duration": 0.1742,
      "velocity": 102,
      "chip": "ym2612"
    },
    {
      "channel": 0,
      "note": 95,
      "start": 73.3327,
      "duration": 0.3324,
      "velocity": 102,
      "chip": "ym2612"
    },
    {
      "channel": 1,
      "note": 52,
      "start": 73.3334,
      "duration": 1.3329,
      "velocity": 110,
      "chip": "ym2612"
    },
    {
      "channel": 3,
      "note": 88,
      "start": 73.3341,
      "duration": 0.332,
      "velocity": 102,
      "chip": "ym2612"
    },
    {
      "channel": 4,
      "note": 100,
      "start": 73.335,
      "duration": 0.9982,
      "velocity": 85,
      "chip": "ym2612"
    },
    {
      "channel": 2,
      "note": 36,
      "start": 73.3362,
      "duration": 0.1379,
      "velocity": 127,
      "chip": "ym2612"
    },
    {
      "channel": 5,
      "note": 95,
      "start": 73.4424,
      "duration": 0.3331,
      "velocity": 102,
      "chip": "ym2612"
    },
    {
      "channel": 0,
      "note": 95,
      "start": 73.6655,
      "duration": 0.1554,
      "velocity": 102,
      "chip": "ym2612"
    },
    {
      "channel": 3,
      "note": 88,
      "start": 73.6665,
      "duration": 0.1555,
      "velocity": 102,
      "chip": "ym2612"
    },
    {
      "channel": 2,
      "note": 36,
      "start": 73.6682,
      "duration": 0.1393,
      "velocity": 127,
      "chip": "ym2612"
    },
    {
      "channel": 5,
      "note": 95,
      "start": 73.776,
      "duration": 0.1576,
      "velocity": 102,
      "chip": "ym2612"
    },
    {
      "channel": 0,
      "note": 95,
      "start": 73.8215,
      "duration": 0.3329,
      "velocity": 102,
      "chip": "ym2612"
    },
    {
      "channel": 3,
      "note": 88,
      "start": 73.8225,
      "duration": 0.3331,
      "velocity": 102,
      "chip": "ym2612"
    },
    {
      "channel": 5,
      "note": 95,
      "start": 73.9342,
      "duration": 0.3328,
      "velocity": 102,
      "chip": "ym2612"
    },
    {
      "channel": 2,
      "note": 72,
      "start": 74.001,
      "duration": 0.2824,
      "velocity": 120,
      "chip": "ym2612"
    },
    {
      "channel": 0,
      "note": 93,
      "start": 74.1551,
      "duration": 0.3327,
      "velocity": 102,
      "chip": "ym2612"
    },
    {
      "channel": 3,
      "note": 88,
      "start": 74.1561,
      "duration": 0.3329,
      "velocity": 102,
      "chip": "ym2612"
    },
    {
      "channel": 5,
      "note": 93,
      "start": 74.2677,
      "duration": 0.3326,
      "velocity": 102,
      "chip": "ym2612"
    },
    {
      "channel": 4,
      "note": 98,
      "start": 74.3339,
      "duration": 0.3341,
      "velocity": 85,
      "chip": "ym2612"
    },
    {
      "channel": 2,
      "note": 36,
      "start": 74.3351,
      "duration": 0.1393,
      "velocity": 127,
      "chip": "ym2612"
    },
    {
      "channel": 0,
      "note": 92,
      "start": 74.4885,
      "duration": 0.1768,
      "velocity": 102,
      "chip": "ym2612"
    },
    {
      "channel": 3,
      "note": 83,
      "start": 74.49,
      "duration": 0.1772,
      "velocity": 102,
      "chip": "ym2612"
    },
    {
      "channel": 5,
      "note": 92,
      "start": 74.601,
      "duration": 0.174,
      "velocity": 102,
      "chip": "ym2612"
    },
    {
      "channel": 0,
      "note": 93,
      "start": 74.6661,
      "duration": 1.9993,
      "velocity": 102,
      "chip": "ym2612"
    },
    {
      "channel": 1,
      "note": 57,
      "start": 74.6669,
      "duration": 1.3322,
      "velocity": 110,
      "chip": "ym2612"
    },
    {
      "channel": 3,
      "note": 85,
      "start": 74.6678,
      "duration": 1.9987,
      "velocity": 102,
      "chip": "ym2612"
    },
    {
      "channel": 4,
      "note": 97,
      "start": 74.6687,
      "duration": 2.6663,
      "velocity": 85,
      "chip": "ym2612"
    },
    {
      "channel": 2,
      "note": 36,
      "start": 74.6699,
      "duration": 0.1377,
      "velocity": 127,
      "chip": "ym2612"
    },
    {
      "channel": 5,
      "note": 93,
      "start": 74.7758,
      "duration": 1.999,
      "velocity": 102,
      "chip": "ym2612"
    },
    {
      "channel": 2,
      "note": 36,
      "start": 75.0012,
      "duration": 0.14,
      "velocity": 127,
      "chip": "ym2612"
    },
    {
      "channel": 2,
      "note": 36,
      "start": 75.3347,
      "duration": 0.1398,
      "velocity": 127,
      "chip": "ym2612"
    },
    {
      "channel": 2,
      "note": 36,
      "start": 75.6681,
      "duration": 0.1399,
      "velocity": 127,
      "chip": "ym2612"
    },
    {
      "channel": 1,
      "note": 59,
      "start": 75.9998,
      "duration": 0.3327,
      "velocity": 110,
      "chip": "ym2612"
    },
    {
      "channel": 2,
      "note": 36,
      "start": 76.0019,
      "duration": 0.1394,
      "velocity": 127,
      "chip": "ym2612"
    },
    {
      "channel": 1,
      "note": 57,
      "start": 76.3331,
      "duration": 0.3327,
      "velocity": 110,
      "chip": "ym2612"
    },
    {
      "channel": 2,
      "note": 36,
      "start": 76.3352,
      "duration": 0.1396,
      "velocity": 127,
      "chip": "ym2612"
    },
    {
      "channel": 1,
      "note": 52,
      "start": 76.6664,
      "duration": 0.3326,
      "velocity": 110,
      "chip": "ym2612"
    },
    {
      "channel": 2,
      "note": 72,
      "start": 76.6684,
      "duration": 0.153,
      "velocity": 120,
      "chip": "ym2612"
    },
    {
      "channel": 2,
      "note": 72,
      "start": 76.8263,
      "duration": 0.1697,
      "velocity": 120,
      "chip": "ym2612"
    },
    {
      "channel": 1,
      "note": 49,
      "start": 76.9995,
      "duration": 0.3339,
      "velocity": 110,
      "chip": "ym2612"
    },
    {
      "channel": 2,
      "note": 36,
      "start": 77.001,
      "duration": 0.1395,
      "velocity": 127,
      "chip": "ym2612"
    },
    {
      "channel": 0,
      "note": 93,
      "start": 77.3331,
      "duration": 0.6658,
      "velocity": 102,
      "chip": "ym2612"
    },
    {
      "channel": 1,
      "note": 57,
      "start": 77.3339,
      "duration": 0.6659,
      "velocity": 110,
      "chip": "ym2612"
    },
    {
      "channel": 3,
      "note": 85,
      "start": 77.3348,
      "duration": 0.6656,
      "velocity": 102,
      "chip": "ym2612"
    },
    {
      "channel": 4,
      "note": 97,
      "start": 77.3358,
      "duration": 0.6655,
      "velocity": 85,
      "chip": "ym2612"
    },
    {
      "channel": 2,
      "note": 36,
      "start": 77.3367,
      "duration": 0.1379,
      "velocity": 127,
      "chip": "ym2612"
    },
    {
      "channel": 5,
      "note": 93,
      "start": 77.4428,
      "duration": 0.666,
      "velocity": 102,
      "chip": "ym2612"
    },
    {
      "channel": 2,
      "note": 36,
      "start": 77.6683,
      "duration": 0.1399,
      "velocity": 127,
      "chip": "ym2612"
    },
    {
      "channel": 0,
      "note": 95,
      "start": 77.9996,
      "duration": 0.6666,
      "velocity": 102,
      "chip": "ym2612"
    },
    {
      "channel": 1,
      "note": 59,
      "start": 78.0003,
      "duration": 0.6666,
      "velocity": 110,
      "chip": "ym2612"
    },
    {
      "channel": 3,
      "note": 86,
      "start": 78.0011,
      "duration": 0.6666,
      "velocity": 102,
      "chip": "ym2612"
    },
    {
      "channel": 4,
      "note": 98,
      "start": 78.0019,
      "duration": 0.6665,
      "velocity": 85,
      "chip": "ym2612"
    },
    {
      "channel": 2,
      "note": 72,
      "start": 78.0031,
      "duration": 0.2809,
      "velocity": 120,
      "chip": "ym2612"
    },
    {
      "channel": 5,
      "note": 95,
      "start": 78.1094,
      "duration": 0.6661,
      "velocity": 102,
      "chip": "ym2612"
    },
    {
      "channel": 2,
      "note": 36,
      "start": 78.3351,
      "duration": 0.1399,
      "velocity": 127,
      "chip": "ym2612"
    },
    {
      "channel": 0,
      "note": 97,
      "start": 78.6668,
      "duration": 1.3328,
      "velocity": 102,
      "chip": "ym2612"
    },
    {
      "channel": 1,
      "note": 61,
      "start": 78.6675,
      "duration": 0.9989,
      "velocity": 110,
      "chip": "ym2612"
    },
    {
      "channel": 3,
      "note": 88,
      "start": 78.6683,
      "duration": 1.3328,
      "velocity": 102,
      "chip": "ym2612"
    },
    {
      "channel": 4,
      "note": 100,
      "start": 78.6692,
      "duration": 0.6644,
      "velocity": 85,
      "chip": "ym2612"
    },
    {
      "channel": 2,
      "note": 36,
      "start": 78.6705,
      "duration": 0.1377,
      "velocity": 127,
      "chip": "ym2612"
    },
    {
      "channel": 5,
      "note": 97,
      "start": 78.7763,
      "duration": 1.3328,
      "velocity": 102,
      "chip": "ym2612"
    },
    {
      "channel": 2,
      "note": 36,
      "start": 79.0019,
      "duration": 0.14,
      "velocity": 127,
      "chip": "ym2612"
    },
    {
      "channel": 2,
      "note": 72,
      "start": 79.3351,
      "duration": 0.2825,
      "velocity": 120,
      "chip": "ym2612"
    },
    {
      "channel": 4,
      "note": 97,
      "start": 79.4908,
      "duration": 0.1766,
      "velocity": 85,
      "chip": "ym2612"
    },
    {
      "channel": 1,
      "note": 49,
      "start": 79.6669,
      "duration": 0.3335,
      "velocity": 110,
      "chip": "ym2612"
    },
    {
      "channel": 4,
      "note": 98,
      "start": 79.6681,
      "duration": 0.1553,
      "velocity": 85,
      "chip": "ym2612"
    },
    {
      "channel": 2,
      "note": 36,
      "start": 79.6695,
      "duration": 0.139,
      "velocity": 127,
      "chip": "ym2612"
    },
    {
      "channel": 4,
      "note": 100,
      "start": 79.8241,
      "duration": 0.1778,
      "velocity": 85,
      "chip": "ym2612"
    },
    {
      "channel": 0,
      "note": 90,
      "start": 80.0003,
      "duration": 0.3323,
      "velocity": 102,
      "chip": "ym2612"
    },
    {
      "channel": 1,
      "note": 54,
      "start": 80.001,
      "duration": 0.9992,
      "velocity": 110,
      "chip": "ym2612"
    },
    {
      "channel": 3,
      "note": 81,
      "start": 80.0018,
      "duration": 0.3318,
      "velocity": 102,
      "chip": "ym2612"
    },
    {
      "channel": 4,
      "note": 93,
      "start": 80.0026,
      "duration": 1.9984,
      "velocity": 85,
      "chip": "ym2612"
    },
    {
      "channel": 2,
      "note": 36,
      "start": 80.004,
      "duration": 0.1378,
      "velocity": 127,
      "chip": "ym2612"
    },
    {
      "channel": 5,
      "note": 90,
      "start": 80.1098,
      "duration": 0.3328,
      "velocity": 102,
      "chip": "ym2612"
    },
    {
      "channel": 0,
      "note": 90,
      "start": 80.3332,
      "duration": 0.3329,
      "velocity": 102,
      "chip": "ym2612"
    },
    {
      "channel": 3,
      "note": 81,
      "start": 80.3341,
      "duration": 0.3332,
      "velocity": 102,
      "chip": "ym2612"
    },
    {
      "channel": 2,
      "note": 36,
      "start": 80.3358,
      "duration": 0.1394,
      "velocity": 127,
      "chip": "ym2612"
    },
    {
      "channel": 5,
      "note": 90,
      "start": 80.4431,
      "duration": 0.3328,
      "velocity": 102,
      "chip": "ym2612"
    },
    {
      "channel": 0,
      "note": 92,
      "start": 80.6668,
      "duration": 0.3326,
      "velocity": 102,
      "chip": "ym2612"
    },
    {
      "channel": 3,
      "note": 83,
      "start": 80.6678,
      "duration": 0.3332,
      "velocity": 102,
      "chip": "ym2612"
    },
    {
      "channel": 2,
      "note": 72,
      "start": 80.6695,
      "duration": 0.2817,
      "velocity": 120,
      "chip": "ym2612"
    },
    {
      "channel": 5,
      "note": 92,
      "start": 80.7766,
      "duration": 0.3328,
      "velocity": 102,
      "chip": "ym2612"
    },
    {
      "channel": 0,
      "note": 92,
      "start": 81.0001,
      "duration": 0.1554,
      "velocity": 102,
      "chip": "ym2612"
    },
    {
      "channel": 1,
      "note": 49,
      "start": 81.0008,
      "duration": 0.3328,
      "velocity": 110,
      "chip": "ym2612"
    },
    {
      "channel": 3,
      "note": 83,
      "start": 81.0016,
      "duration": 0.1555,
      "velocity": 102,
      "chip": "ym2612"
    },
    {
      "channel": 2,
      "note": 36,
      "start": 81.0033,
      "duration": 0.1387,
      "velocity": 127,
      "chip": "ym2612"
    },
    {
      "channel": 5,
      "note": 92,
      "start": 81.1101,
      "duration": 0.158,
      "velocity": 102,
      "chip": "ym2612"
    },
    {
      "channel": 0,
      "note": 93,
      "start": 81.1566,
      "duration": 1.3324,
      "velocity": 102,
      "chip": "ym2612"
    },
    {
      "channel": 3,
      "note": 85,
      "start": 81.1577,
      "duration": 1.3324,
      "velocity": 102,
      "chip": "ym2612"
    },
    {
      "channel": 5,
      "note": 93,
      "start": 81.2687,
      "duration": 1.3323,
      "velocity": 102,
      "chip": "ym2612"
    },
    {
      "channel": 1,
      "note": 54,
      "start": 81.3342,
      "duration": 0.1557,
      "velocity": 110,
      "chip": "ym2612"
    },
    {
      "channel": 2,
      "note": 36,
      "start": 81.3362,
      "duration": 0.1396,
      "velocity": 127,
      "chip": "ym2612"
    },
    {
      "channel": 1,
      "note": 49,
      "start": 81.6671,
      "duration": 0.1556,
      "velocity": 110,
      "chip": "ym2612"
    },
    {
      "channel": 2,
      "note": 36,
      "start": 81.6693,
      "duration": 0.1395,
      "velocity": 127,
      "chip": "ym2612"
    },
    {
      "channel": 1,
      "note": 57,
      "start": 82.0006,
      "duration": 0.6668,
      "velocity": 110,
      "chip": "ym2612"
    },
    {
      "channel": 2,
      "note": 72,
      "start": 82.0024,
      "duration": 0.2819,
      "velocity": 120,
      "chip": "ym2612"
    },
    {
      "channel": 4,
      "note": 95,
      "start": 82.3348,
      "duration": 0.1556,
      "velocity": 85,
      "chip": "ym2612"
    },
    {
      "channel": 2,
      "note": 36,
      "start": 82.3361,
      "duration": 0.1395,
      "velocity": 127,
      "chip": "ym2612"
    },
    {
      "channel": 4,
      "note": 97,
      "start": 82.4911,
      "duration": 0.1778,
      "velocity": 85,
      "chip": "ym2612"
    },
    {
      "channel": 0,
      "note": 98,
      "start": 82.6673,
      "duration": 0.1551,
      "velocity": 102,
      "chip": "ym2612"
    },
    {
      "channel": 1,
      "note": 62,
      "start": 82.668,
      "duration": 0.9988,
      "velocity": 110,
      "chip": "ym2612"
    },
    {
      "channel": 3,
      "note": 90,
      "start": 82.6688,
      "duration": 0.1552,
      "velocity": 102,
      "chip": "ym2612"
    },
    {
      "channel": 4,
      "note": 98,
      "start": 82.6696,
      "duration": 0.9983,
      "velocity": 85,
      "chip": "ym2612"
    },
    {
      "channel": 2,
      "note": 36,
      "start": 82.6706,
      "duration": 0.1382,
      "velocity": 127,
      "chip": "ym2612"
    },
    {
      "channel": 5,
      "note": 98,
      "start": 82.7768,
      "duration": 0.1582,
      "velocity": 102,
      "chip": "ym2612"
    },
    {
      "channel": 0,
      "note": 98,
      "start": 82.8235,
      "duration": 0.3321,
      "velocity": 102,
      "chip": "ym2612"
    },
    {
      "channel": 3,
      "note": 90,
      "start": 82.8246,
      "duration": 0.3324,
      "velocity": 102,
      "chip": "ym2612"
    },
    {
      "channel": 5,
      "note": 98,
      "start": 82.9357,
      "duration": 0.3326,
      "velocity": 102,
      "chip": "ym2612"
    },
    {
      "channel": 2,
      "note": 36,
      "start": 83.0024,
      "duration": 0.1402,
      "velocity": 127,
      "chip": "ym2612"
    },
    {
      "channel": 0,
      "note": 98,
      "start": 83.1566,
      "duration": 0.1766,
      "velocity": 102,
      "chip": "ym2612"
    },
    {
      "channel": 3,
      "note": 90,
      "start": 83.1575,
      "duration": 0.1768,
      "velocity": 102,
      "chip": "ym2612"
    },
    {
      "channel": 5,
      "note": 98,
      "start": 83.2688,
      "duration": 0.1741,
      "velocity": 102,
      "chip": "ym2612"
    },
    {
      "channel": 0,
      "note": 90,
      "start": 83.3338,
      "duration": 0.1552,
      "velocity": 102,
      "chip": "ym2612"
    },
    {
      "channel": 3,
      "note": 81,
      "start": 83.3349,
      "duration": 0.1557,
      "velocity": 102,
      "chip": "ym2612"
    },
    {
      "channel": 2,
      "note": 72,
      "start": 83.3365,
      "duration": 0.2816,
      "velocity": 120,
      "chip": "ym2612"
    },
    {
      "channel": 5,
      "note": 90,
      "start": 83.4437,
      "duration": 0.158,
      "velocity": 102,
      "chip": "ym2612"
    },
    {
      "channel": 0,
      "note": 90,
      "start": 83.4902,
      "duration": 0.51,
      "velocity": 102,
      "chip": "ym2612"
    },
    {
      "channel": 3,
      "note": 81,
      "start": 83.4912,
      "duration": 0.5105,
      "velocity": 102,
      "chip": "ym2612"
    },
    {
      "channel": 5,
      "note": 90,
      "start": 83.6024,
      "duration": 0.5072,
      "velocity": 102,
      "chip": "ym2612"
    },
    {
      "channel": 1,
      "note": 54,
      "start": 83.6674,
      "duration": 0.1559,
      "velocity": 110,
      "chip": "ym2612"
    },
    {
      "channel": 4,
      "note": 100,
      "start": 83.6687,
      "duration": 0.1553,
      "velocity": 85,
      "chip": "ym2612"
    },
    {
      "channel": 2,
      "note": 36,
      "start": 83.6699,
      "duration": 0.139,
      "velocity": 127,
      "chip": "ym2612"
    },
    {
      "channel": 4,
      "note": 102,
      "start": 83.8248,
      "duration": 0.1777,
      "velocity": 85,
      "chip": "ym2612"
    },
    {
      "channel": 0,
      "note": 97,
      "start": 84.0008,
      "duration": 0.155,
      "velocity": 102,
      "chip": "ym2612"
    },
    {
      "channel": 1,
      "note": 61,
      "start": 84.0015,
      "duration": 0.999,
      "velocity": 110,
      "chip": "ym2612"
    },
    {
      "channel": 3,
      "note": 88,
      "start": 84.0024,
      "duration": 0.1549,
      "velocity": 102,
      "chip": "ym2612"
    },
    {
      "channel": 4,
      "note": 100,
      "start": 84.0032,
      "duration": 0.9984,
      "velocity": 85,
      "chip": "ym2612"
    },
    {
      "channel": 2,
      "note": 36,
      "start": 84.0045,
      "duration": 0.1377,
      "velocity": 127,
      "chip": "ym2612"
    },
    {
      "channel": 5,
      "note": 97,
      "start": 84.1104,
      "duration": 0.1581,
      "velocity": 102,
      "chip": "ym2612"
    },
    {
      "channel": 0,
      "note": 97,
      "start": 84.1568,
      "duration": 0.1764,
      "velocity": 102,
      "chip": "ym2612"
    },
    {
      "channel": 3,
      "note": 88,
      "start": 84.1578,
      "duration": 0.1765,
      "velocity": 102,
      "chip": "ym2612"
    },
    {
      "channel": 5,
      "note": 97,
      "start": 84.269,
      "duration": 0.174,
      "velocity": 102,
      "chip": "ym2612"
    },
    {
      "channel": 0,
      "note": 97,
      "start": 84.3338,
      "duration": 0.1555,
      "velocity": 102,
      "chip": "ym2612"
    },
    {
      "channel": 3,
      "note": 88,
      "start": 84.3348,
      "duration": 0.156,
      "velocity": 102,
      "chip": "ym2612"
    },
    {
      "channel": 2,
      "note": 36,
      "start": 84.3364,
      "duration": 0.1393,
      "velocity": 127,
      "chip": "ym2612"
    },
    {
      "channel": 5,
      "note": 97,
      "start": 84.4436,
      "duration": 0.1583,
      "velocity": 102,
      "chip": "ym2612"
    },
    {
      "channel": 0,
      "note": 97,
      "start": 84.4902,
      "duration": 0.1763,
      "velocity": 102,
      "chip": "ym2612"
    },
    {
      "channel": 3,
      "note": 88,
      "start": 84.4912,
      "duration": 0.1764,
      "velocity": 102,
      "chip": "ym2612"
    },
    {
      "channel": 5,
      "note": 97,
      "start": 84.6024,
      "duration": 0.1741,
      "velocity": 102,
      "chip": "ym2612"
    },
    {
      "channel": 0,
      "note": 97,
      "start": 84.6671,
      "duration": 0.1555,
      "velocity": 102,
      "chip": "ym2612"
    },
    {
      "channel": 3,
      "note": 88,
      "start": 84.668,
      "duration": 0.1562,
      "velocity": 102,
      "chip": "ym2612"
    },
    {
      "channel": 2,
      "note": 72,
      "start": 84.6696,
      "duration": 0.282,
      "velocity": 120,
      "chip": "ym2612"
    },
    {
      "channel": 5,
      "note": 97,
      "start": 84.777,
      "duration": 0.1583,
      "velocity": 102,
      "chip": "ym2612"
    },
    {
      "channel": 0,
      "note": 88,
      "start": 84.8237,
      "duration": 0.5103,
      "velocity": 102,
      "chip": "ym2612"
    },
    {
      "channel": 3,
      "note": 85,
      "start": 84.8249,
      "duration": 0.5107,
      "velocity": 102,
      "chip": "ym2612"
    },
    {
      "channel": 5,
      "note": 88,
      "start": 84.936,
      "duration": 0.5073,
      "velocity": 102,
      "chip": "ym2612"
    },
    {
      "channel": 1,
      "note": 52,
      "start": 85.0011,
      "duration": 0.1557,
      "velocity": 110,
      "chip": "ym2612"
    },
    {
      "channel": 4,
      "note": 97,
      "start": 85.0023,
      "duration": 0.3341,
      "velocity": 85,
      "chip": "ym2612"
    },
    {
      "channel": 2,
      "note": 36,
      "start": 85.0035,
      "duration": 0.1388,
      "velocity": 127,
      "chip": "ym2612"
    },
    {
      "channel": 0,
      "note": 90,
      "start": 85.3348,
      "duration": 0.1546,
      "velocity": 102,
      "chip": "ym2612"
    },
    {
      "channel": 1,
      "note": 50,
      "start": 85.3355,
      "duration": 0.9984,
      "velocity": 110,
      "chip": "ym2612"
    },
    {
      "channel": 3,
      "note": 86,
      "start": 85.3363,
      "duration": 0.1545,
      "velocity": 102,
      "chip": "ym2612"
    },
    {
      "channel": 4,
      "note": 98,
      "start": 85.3371,
      "duration": 0.9978,
      "velocity": 85,
      "chip": "ym2612"
    },
    {
      "channel": 2,
      "note": 36,
      "start": 85.3384,
      "duration": 0.1372,
      "velocity": 127,
      "chip": "ym2612"
    },
    {
      "channel": 5,
      "note": 90,
      "start": 85.4439,
      "duration": 0.1581,
      "velocity": 102,
      "chip": "ym2612"
    },
    {
      "channel": 0,
      "note": 90,
      "start": 85.4903,
      "duration": 0.5099,
      "velocity": 102,
      "chip": "ym2612"
    },
    {
      "channel": 3,
      "note": 86,
      "start": 85.4912,
      "duration": 0.5101,
      "velocity": 102,
      "chip": "ym2612"
    },
    {
      "channel": 5,
      "note": 90,
      "start": 85.6025,
      "duration": 0.5076,
      "velocity": 102,
      "chip": "ym2612"
    },
    {
      "channel": 2,
      "note": 36,
      "start": 85.6694,
      "duration": 0.1397,
      "velocity": 127,
      "chip": "ym2612"
    },
    {
      "channel": 0,
      "note": 92,
      "start": 86.0008,
      "duration": 0.4891,
      "velocity": 102,
      "chip": "ym2612"
    },
    {
      "channel": 3,
      "note": 86,
      "start": 86.0018,
      "duration": 0.4894,
      "velocity": 102,
      "chip": "ym2612"
    },
    {
      "channel": 2,
      "note": 72,
      "start": 86.0035,
      "duration": 0.2817,
      "velocity": 120,
      "chip": "ym2612"
    },
    {
      "channel": 5,
      "note": 92,
      "start": 86.1108,
      "duration": 0.491,
      "velocity": 102,
      "chip": "ym2612"
    },
    {
      "channel": 1,
      "note": 50,
      "start": 86.3344,
      "duration": 0.1565,
      "velocity": 110,
      "chip": "ym2612"
    },
    {
      "channel": 4,
      "note": 95,
      "start": 86.3356,
      "duration": 0.1561,
      "velocity": 85,
      "chip": "ym2612"
    },
    {
      "channel": 2,
      "note": 36,
      "start": 86.3369,
      "duration": 0.139,
      "velocity": 127,
      "chip": "ym2612"
    },
    {
      "channel": 0,
      "note": 93,
      "start": 86.4907,
      "duration": 0.1765,
      "velocity": 102,
      "chip": "ym2612"
    },
    {
      "channel": 3,
      "note": 86,
      "start": 86.4916,
      "duration": 0.1772,
      "velocity": 102,
      "chip": "ym2612"
    },
    {
      "channel": 4,
      "note": 93,
      "start": 86.4924,
      "duration": 0.1772,
      "velocity": 85,
      "chip": "ym2612"
    },
    {
      "channel": 5,
      "note": 93,
      "start": 86.6026,
      "duration": 0.1742,
      "velocity": 102,
      "chip": "ym2612"
    },
    {
      "channel": 0,
      "note": 95,
      "start": 86.668,
      "duration": 1.3328,
      "velocity": 102,
      "chip": "ym2612"
    },
    {
      "channel": 1,
      "note": 52,
      "start": 86.6687,
      "duration": 0.3322,
      "velocity": 110,
      "chip": "ym2612"
    },
    {
      "channel": 3,
      "note": 88,
      "start": 86.6695,
      "duration": 1.3329,
      "velocity": 102,
      "chip": "ym2612"
    },
    {
      "channel": 4,
      "note": 92,
      "start": 86.6703,
      "duration": 1.3328,
      "velocity": 85,
      "chip": "ym2612"
    },
    {
      "channel": 2,
      "note": 36,
      "start": 86.6715,
      "duration": 0.1375,
      "velocity": 127,
      "chip": "ym2612"
    },
    {
      "channel": 5,
      "note": 95,
      "start": 86.7775,
      "duration": 1.3327,
      "velocity": 102,
      "chip": "ym2612"
    },
    {
      "channel": 1,
      "note": 54,
      "start": 87.0014,
      "duration": 0.3327,
      "velocity": 110,
      "chip": "ym2612"
    },
    {
      "channel": 2,
      "note": 36,
      "start": 87.0035,
      "duration": 0.139,
      "velocity": 127,
      "chip": "ym2612"
    },
    {
      "channel": 1,
      "note": 56,
      "start": 87.3348,
      "duration": 0.3327,
      "velocity": 110,
      "chip": "ym2612"
    },
    {
      "channel": 2,
      "note": 72,
      "start": 87.3368,
      "duration": 0.282,
      "velocity": 120,
      "chip": "ym2612"
    },
    {
      "channel": 1,
      "note": 59,
      "start": 87.6681,
      "duration": 0.3335,
      "velocity": 110,
      "chip": "ym2612"
    },
    {
      "channel": 2,
      "note": 36,
      "start": 87.6702,
      "duration": 0.1391,
      "velocity": 127,
      "chip": "ym2612"
    },
    {
      "channel": 0,
      "note": 93,
      "start": 88.0015,
      "duration": 0.4888,
      "velocity": 102,
      "chip": "ym2612"
    },
    {
      "channel": 1,
      "note": 57,
      "start": 88.0022,
      "duration": 0.6659,
      "velocity": 110,
      "chip": "ym2612"
    },
    {
      "channel": 3,
      "note": 85,
      "start": 88.003,
      "duration": 0.4883,
      "velocity": 102,
      "chip": "ym2612"
    },
    {
      "channel": 4,
      "note": 97,
      "start": 88.0038,
      "duration": 0.6658,
      "velocity": 85,
      "chip": "ym2612"
    },
    {
      "channel": 2,
      "note": 36,
      "start": 88.0052,
      "duration": 0.1373,
      "velocity": 127,
      "chip": "ym2612"
    },
    {
      "channel": 5,
      "note": 93,
      "start": 88.111,
      "duration": 0.4915,
      "velocity": 102,
      "chip": "ym2612"
    },
    {
      "channel": 2,
      "note": 36,
      "start": 88.3365,
      "duration": 0.1396,
      "velocity": 127,
      "chip": "ym2612"
    },
    {
      "channel": 0,
      "note": 93,
      "start": 88.4908,
      "duration": 0.1765,
      "velocity": 102,
      "chip": "ym2612"
    },
    {
      "channel": 3,
      "note": 85,
      "start": 88.4917,
      "duration": 0.1771,
      "velocity": 102,
      "chip": "ym2612"
    },
    {
      "channel": 5,
      "note": 93,
      "start": 88.6029,
      "duration": 0.174,
      "velocity": 102,
      "chip": "ym2612"
    },
    {
      "channel": 0,
      "note": 95,
      "start": 88.668,
      "duration": 0.4894,
      "velocity": 102,
      "chip": "ym2612"
    },
    {
      "channel": 1,
      "note": 59,
      "start": 88.6687,
      "duration": 0.6664,
      "velocity": 110,
      "chip": "ym2612"
    },
    {
      "channel": 3,
      "note": 86,
      "start": 88.6694,
      "duration": 0.489,
      "velocity": 102,
      "chip": "ym2612"
    },
    {
      "channel": 4,
      "note": 98,
      "start": 88.6703,
      "duration": 0.6663,
      "velocity": 85,
      "chip": "ym2612"
    },
    {
      "channel": 2,
      "note": 72,
      "start": 88.6714,
      "duration": 0.2809,
      "velocity": 120,
      "chip": "ym2612"
    },
    {
      "channel": 5,
      "note": 95,
      "start": 88.7778,
      "duration": 0.4915,
      "velocity": 102,
      "chip": "ym2612"
    },
    {
      "channel": 2,
      "note": 36,
      "start": 89.0033,
      "duration": 0.1396,
      "velocity": 127,
      "chip": "ym2612"
    },
    {
      "channel": 0,
      "note": 95,
      "start": 89.1579,
      "duration": 0.1763,
      "velocity": 102,
      "chip": "ym2612"
    },
    {
      "channel": 3,
      "note": 86,
      "start": 89.1589,
      "duration": 0.177,
      "velocity": 102,
      "chip": "ym2612"
    },
    {
      "channel": 5,
      "note": 95,
      "start": 89.2698,
      "duration": 0.1739,
      "velocity": 102,
      "chip": "ym2612"
    },
    {
      "channel": 0,
      "note": 97,
      "start": 89.3349,
      "duration": 0.9992,
      "velocity": 102,
      "chip": "ym2612"
    },
    {
      "channel": 1,
      "note": 61,
      "start": 89.3357,
      "duration": 0.9993,
      "velocity": 110,
      "chip": "ym2612"
    },
    {
      "channel": 3,
      "note": 88,
      "start": 89.3365,
      "duration": 0.9993,
      "velocity": 102,
      "chip": "ym2612"
    },
    {
      "channel": 4,
      "note": 100,
      "start": 89.3373,
      "duration": 0.6646,
      "velocity": 85,
      "chip": "ym2612"
    },
    {
      "channel": 2,
      "note": 36,
      "start": 89.3385,
      "duration": 0.1375,
      "velocity": 127,
      "chip": "ym2612"
    },
    {
      "channel": 5,
      "note": 97,
      "start": 89.4445,
      "duration": 0.9994,
      "velocity": 102,
      "chip": "ym2612"
    },
    {
      "channel": 2,
      "note": 36,
      "start": 89.6701,
      "duration": 0.1395,
      "velocity": 127,
      "chip": "ym2612"
    },
    {
      "channel": 2,
      "note": 72,
      "start": 90.0033,
      "duration": 0.2828,
      "velocity": 120,
      "chip": "ym2612"
    },
    {
      "channel": 4,
      "note": 97,
      "start": 90.1588,
      "duration": 0.1777,
      "velocity": 85,
      "chip": "ym2612"
    },
    {
      "channel": 0,
      "note": 88,
      "start": 90.3349,
      "duration": 0.3329,
      "velocity": 102,
      "chip": "ym2612"
    },
    {
      "channel": 1,
      "note": 49,
      "start": 90.3356,
      "duration": 0.3331,
      "velocity": 110,
      "chip": "ym2612"
    },
    {
      "channel": 3,
      "note": 80,
      "start": 90.3363,
      "duration": 0.3331,
      "velocity": 102,
      "chip": "ym2612"
    },
    {
      "channel": 4,
      "note": 98,
      "start": 90.3372,
      "duration": 0.1543,
      "velocity": 85,
      "chip": "ym2612"
    },
    {
      "channel": 2,
      "note": 36,
      "start": 90.3385,
      "duration": 0.1377,
      "velocity": 127,
      "chip": "ym2612"
    },
    {
      "channel": 5,
      "note": 88,
      "start": 90.4446,
      "duration": 0.3326,
      "velocity": 102,
      "chip": "ym2612"
    },
    {
      "channel": 4,
      "note": 100,
      "start": 90.4921,
      "duration": 0.178,
      "velocity": 85,
      "chip": "ym2612"
    },
    {
      "channel": 0,
      "note": 90,
      "start": 90.6685,
      "duration": 0.3324,
      "velocity": 102,
      "chip": "ym2612"
    },
    {
      "channel": 1,
      "note": 54,
      "start": 90.6692,
      "duration": 0.9993,
      "velocity": 110,
      "chip": "ym2612"
    },
    {
      "channel": 3,
      "note": 81,
      "start": 90.67,
      "duration": 0.3321,
      "velocity": 102,
      "chip": "ym2612"
    },
    {
      "channel": 4,
      "note": 102,
      "start": 90.6709,
      "duration": 1.332,
      "velocity": 85,
      "chip": "ym2612"
    },
    {
      "channel": 2,
      "note": 36,
      "start": 90.6722,
      "duration": 0.1374,
      "velocity": 127,
      "chip": "ym2612"
    },
    {
      "channel": 5,
      "note": 90,
      "start": 90.7779,
      "duration": 0.3328,
      "velocity": 102,
      "chip": "ym2612"
    },
    {
      "channel": 0,
      "note": 90,
      "start": 91.0016,
      "duration": 0.3326,
      "velocity": 102,
      "chip": "ym2612"
    },
    {
      "channel": 3,
      "note": 81,
      "start": 91.0027,
      "duration": 0.3327,
      "velocity": 102,
      "chip": "ym2612"
    },
    {
      "channel": 2,
      "note": 36,
      "start": 91.0045,
      "duration": 0.1385,
      "velocity": 127,
      "chip": "ym2612"
    },
    {
      "channel": 5,
      "note": 90,
      "start": 91.1115,
      "duration": 0.3328,
      "velocity": 102,
      "chip": "ym2612"
    },
    {
      "channel": 0,
      "note": 92,
      "start": 91.3349,
      "duration": 0.3328,
      "velocity": 102,
      "chip": "ym2612"
    },
    {
      "channel": 3,
      "note": 83,
      "start": 91.336,
      "duration": 0.3333,
      "velocity": 102,
      "chip": "ym2612"
    },
    {
      "channel": 2,
      "note": 72,
      "start": 91.3377,
      "duration": 0.2817,
      "velocity": 120,
      "chip": "ym2612"
    },
    {
      "channel": 5,
      "note": 92,
      "start": 91.4449,
      "duration": 0.3326,
      "velocity": 102,
      "chip": "ym2612"
    },
    {
      "channel": 0,
      "note": 92,
      "start": 91.6684,
      "duration": 0.1552,
      "velocity": 102,
      "chip": "ym2612"
    },
    {
      "channel": 1,
      "note": 49,
      "start": 91.6691,
      "duration": 0.3327,
      "velocity": 110,
      "chip": "ym2612"
    },
    {
      "channel": 3,
      "note": 83,
      "start": 91.6699,
      "duration": 0.155,
      "velocity": 102,
      "chip": "ym2612"
    },
    {
      "channel": 2,
      "note": 36,
      "start": 91.6717,
      "duration": 0.1381,
      "velocity": 127,
      "chip": "ym2612"
    },
    {
      "channel": 5,
      "note": 92,
      "start": 91.7782,
      "duration": 0.1584,
      "velocity": 102,
      "chip": "ym2612"
    },
    {
      "channel": 0,
      "note": 93,
      "start": 91.8244,
      "duration": 1.3328,
      "velocity": 102,
      "chip": "ym2612"
    },
    {
      "channel": 3,
      "note": 85,
      "start": 91.8255,
      "duration": 1.3323,
      "velocity": 102,
      "chip": "ym2612"
    },
    {
      "channel": 5,
      "note": 93,
      "start": 91.9374,
      "duration": 1.3319,
      "velocity": 102,
      "chip": "ym2612"
    },
    {
      "channel": 1,
      "note": 54,
      "start": 92.0024,
      "duration": 0.1551,
      "velocity": 110,
      "chip": "ym2612"
    },
    {
      "channel": 4,
      "note": 100,
      "start": 92.0036,
      "duration": 1.3337,
      "velocity": 85,
      "chip": "ym2612"
    },
    {
      "channel": 2,
      "note": 36,
      "start": 92.0048,
      "duration": 0.1384,
      "velocity": 127,
      "chip": "ym2612"
    },
    {
      "channel": 1,
      "note": 49,
      "start": 92.3354,
      "duration": 0.1557,
      "velocity": 110,
      "chip": "ym2612"
    },
    {
      "channel": 2,
      "note": 36,
      "start": 92.3376,
      "duration": 0.1392,
      "velocity": 127,
      "chip": "ym2612"
    },
    {
      "channel": 1,
      "note": 57,
      "start": 92.6689,
      "duration": 0.6668,
      "velocity": 110,
      "chip": "ym2612"
    },
    {
      "channel": 2,
      "note": 72,
      "start": 92.671,
      "duration": 0.2819,
      "velocity": 120,
      "chip": "ym2612"
    },
    {
      "channel": 2,
      "note": 36,
      "start": 93.0039,
      "duration": 0.1395,
      "velocity": 127,
      "chip": "ym2612"
    },
    {
      "channel": 0,
      "note": 98,
      "start": 93.3356,
      "duration": 0.3323,
      "velocity": 102,
      "chip": "ym2612"
    },
    {
      "channel": 1,
      "note": 62,
      "start": 93.3363,
      "duration": 0.9988,
      "velocity": 110,
      "chip": "ym2612"
    },
    {
      "channel": 3,
      "note": 90,
      "start": 93.3372,
      "duration": 0.3318,
      "velocity": 102,
      "chip": "ym2612"
    },
    {
      "channel": 4,
      "note": 98,
      "start": 93.338,
      "duration": 0.9982,
      "velocity": 85,
      "chip": "ym2612"
    },
    {
      "channel": 2,
      "note": 36,
      "start": 93.339,
      "duration": 0.1376,
      "velocity": 127,
      "chip": "ym2612"
    },
    {
      "channel": 5,
      "note": 98,
      "start": 93.4451,
      "duration": 0.3327,
      "velocity": 102,
      "chip": "ym2612"
    },
    {
      "channel": 0,
      "note": 98,
      "start": 93.6685,
      "duration": 0.1554,
      "velocity": 102,
      "chip": "ym2612"
    },
    {
      "channel": 3,
      "note": 90,
      "start": 93.6695,
      "duration": 0.1555,
      "velocity": 102,
      "chip": "ym2612"
    },
    {
      "channel": 2,
      "note": 36,
      "start": 93.6712,
      "duration": 0.1389,
      "velocity": 127,
      "chip": "ym2612"
    },
    {
      "channel": 5,
      "note": 98,
      "start": 93.7783,
      "duration": 0.1583,
      "velocity": 102,
      "chip": "ym2612"
    },
    {
      "channel": 0,
      "note": 98,
      "start": 93.8245,
      "duration": 0.1768,
      "velocity": 102,
      "chip": "ym2612"
    },
    {
      "channel": 3,
      "note": 90,
      "start": 93.8255,
      "duration": 0.1768,
      "velocity": 102,
      "chip": "ym2612"
    },
    {
      "channel": 5,
      "note": 98,
      "start": 93.9371,
      "duration": 0.1741,
      "velocity": 102,
      "chip": "ym2612"
    },
    {
      "channel": 0,
      "note": 98,
      "start": 94.0019,
      "duration": 0.1555,
      "velocity": 102,
      "chip": "ym2612"
    },
    {
      "channel": 3,
      "note": 90,
      "start": 94.0028,
      "duration": 0.1558,
      "velocity": 102,
      "chip": "ym2612"
    },
    {
      "channel": 2,
      "note": 72,
      "start": 94.0044,
      "duration": 0.2819,
      "velocity": 120,
      "chip": "ym2612"
    },
    {
      "channel": 5,
      "note": 98,
      "start": 94.1117,
      "duration": 0.1582,
      "velocity": 102,
      "chip": "ym2612"
    },
    {
      "channel": 0,
      "note": 90,
      "start": 94.1581,
      "duration": 0.5103,
      "velocity": 102,
      "chip": "ym2612"
    },
    {
      "channel": 3,
      "note": 81,
      "start": 94.1593,
      "duration": 0.5108,
      "velocity": 102,
      "chip": "ym2612"
    },
    {
      "channel": 5,
      "note": 90,
      "start": 94.2706,
      "duration": 0.5072,
      "velocity": 102,
      "chip": "ym2612"
    },
    {
      "channel": 1,
      "note": 54,
      "start": 94.3357,
      "duration": 0.1555,
      "velocity": 110,
      "chip": "ym2612"
    },
    {
      "channel": 4,
      "note": 100,
      "start": 94.337,
      "duration": 0.1549,
      "velocity": 85,
      "chip": "ym2612"
    },
    {
      "channel": 2,
      "note": 36,
      "start": 94.3382,
      "duration": 0.1387,
      "velocity": 127,
      "chip": "ym2612"
    },
    {
      "channel": 4,
      "note": 102,
      "start": 94.4926,
      "duration": 0.1782,
      "velocity": 85,
      "chip": "ym2612"
    },
    {
      "channel": 0,
      "note": 97,
      "start": 94.6692,
      "duration": 0.1549,
      "velocity": 102,
      "chip": "ym2612"
    },
    {
      "channel": 1,
      "note": 61,
      "start": 94.6699,
      "duration": 0.9992,
      "velocity": 110,
      "chip": "ym2612"
    },
    {
      "channel": 3,
      "note": 88,
      "start": 94.6707,
      "duration": 0.1544,
      "velocity": 102,
      "chip": "ym2612"
    },
    {
      "channel": 4,
      "note": 100,
      "start": 94.6715,
      "duration": 0.999,
      "velocity": 85,
      "chip": "ym2612"
    },
    {
      "channel": 2,
      "note": 36,
      "start": 94.6732,
      "duration": 0.137,
      "velocity": 127,
      "chip": "ym2612"
    },
    {
      "channel": 5,
      "note": 97,
      "start": 94.7786,
      "duration": 0.1582,
      "velocity": 102,
      "chip": "ym2612"
    },
    {
      "channel": 0,
      "note": 97,
      "start": 94.8246,
      "duration": 0.3329,
      "velocity": 102,
      "chip": "ym2612"
    },
    {
      "channel": 3,
      "note": 88,
      "start": 94.8255,
      "duration": 0.333,
      "velocity": 102,
      "chip": "ym2612"
    },
    {
      "channel": 5,
      "note": 97,
      "start": 94.9373,
      "duration": 0.3329,
      "velocity": 102,
      "chip": "ym2612"
    },
    {
      "channel": 2,
      "note": 36,
      "start": 95.0041,
      "duration": 0.1396,
      "velocity": 127,
      "chip": "ym2612"
    },
    {
      "channel": 0,
      "note": 97,
      "start": 95.158,
      "duration": 0.1768,
      "velocity": 102,
      "chip": "ym2612"
    },
    {
      "channel": 3,
      "note": 88,
      "start": 95.159,
      "duration": 0.1769,
      "velocity": 102,
      "chip": "ym2612"
    },
    {
      "channel": 5,
      "note": 97,
      "start": 95.2707,
      "duration": 0.174,
      "velocity": 102,
      "chip": "ym2612"
    },
    {
      "channel": 0,
      "note": 97,
      "start": 95.3354,
      "duration": 0.1555,
      "velocity": 102,
      "chip": "ym2612"
    },
    {
      "channel": 3,
      "note": 88,
      "start": 95.3363,
      "duration": 0.1551,
      "velocity": 102,
      "chip": "ym2612"
    },
    {
      "channel": 2,
      "note": 72,
      "start": 95.3379,
      "duration": 0.281,
      "velocity": 120,
      "chip": "ym2612"
    },
    {
      "channel": 5,
      "note": 97,
      "start": 95.4452,
      "duration": 0.1577,
      "velocity": 102,
      "chip": "ym2612"
    },
    {
      "channel": 0,
      "note": 88,
      "start": 95.6689,
      "duration": 0.1553,
      "velocity": 102,
      "chip": "ym2612"
    },
    {
      "channel": 1,
      "note": 52,
      "start": 95.6696,
      "duration": 0.1554,
      "velocity": 110,
      "chip": "ym2612"
    },
    {
      "channel": 3,
      "note": 85,
      "start": 95.6704,
      "duration": 0.1549,
      "velocity": 102,
      "chip": "ym2612"
    },
    {
      "channel": 4,
      "note": 97,
      "start": 95.6713,
      "duration": 0.3329,
      "velocity": 85,
      "chip": "ym2612"
    },
    {
      "channel": 2,
      "note": 36,
      "start": 95.6722,
      "duration": 0.1382,
      "velocity": 127,
      "chip": "ym2612"
    },
    {
      "channel": 5,
      "note": 88,
      "start": 95.7787,
      "duration": 0.1579,
      "velocity": 102,
      "chip": "ym2612"
    },
    {
      "channel": 0,
      "note": 88,
      "start": 95.8249,
      "duration": 0.177,
      "velocity": 102,
      "chip": "ym2612"
    },
    {
      "channel": 3,
      "note": 85,
      "start": 95.826,
      "duration": 0.1775,
      "velocity": 102,
      "chip": "ym2612"
    },
    {
      "channel": 5,
      "note": 88,
      "start": 95.9373,
      "duration": 0.174,
      "velocity": 102,
      "chip": "ym2612"
    },
    {
      "channel": 0,
      "note": 90,
      "start": 96.0026,
      "duration": 0.4885,
      "velocity": 102,
      "chip": "ym2612"
    },
    {
      "channel": 1,
      "note": 47,
      "start": 96.0033,
      "duration": 0.999,
      "velocity": 110,
      "chip": "ym2612"
    },
    {
      "channel": 3,
      "note": 86,
      "start": 96.0041,
      "duration": 0.488,
      "velocity": 102,
      "chip": "ym2612"
    },
    {
      "channel": 4,
      "note": 95,
      "start": 96.0049,
      "duration": 0.9983,
      "velocity": 85,
      "chip": "ym2612"
    },
    {
      "channel": 2,
      "note": 36,
      "start": 96.0066,
      "duration": 0.1371,
      "velocity": 127,
      "chip": "ym2612"
    },
    {
      "channel": 5,
      "note": 90,
      "start": 96.112,
      "duration": 0.4915,
      "velocity": 102,
      "chip": "ym2612"
    },
    {
      "channel": 2,
      "note": 36,
      "start": 96.3377,
      "duration": 0.1395,
      "velocity": 127,
      "chip": "ym2612"
    },
    {
      "channel": 0,
      "note": 90,
      "start": 96.4916,
      "duration": 0.1768,
      "velocity": 102,
      "chip": "ym2612"
    },
    {
      "channel": 3,
      "note": 86,
      "start": 96.4925,
      "duration": 0.177,
      "velocity": 102,
      "chip": "ym2612"
    },
    {
      "channel": 5,
      "note": 90,
      "start": 96.6041,
      "duration": 0.1741,
      "velocity": 102,
      "chip": "ym2612"
    },
    {
      "channel": 0,
      "note": 92,
      "start": 96.669,
      "duration": 0.1553,
      "velocity": 102,
      "chip": "ym2612"
    },
    {
      "channel": 3,
      "note": 86,
      "start": 96.67,
      "duration": 0.1556,
      "velocity": 102,
      "chip": "ym2612"
    },
    {
      "channel": 2,
      "note": 72,
      "start": 96.6715,
      "duration": 0.2817,
      "velocity": 120,
      "chip": "ym2612"
    },
    {
      "channel": 5,
      "note": 92,
      "start": 96.7789,
      "duration": 0.1582,
      "velocity": 102,
      "chip": "ym2612"
    },
    {
      "channel": 0,
      "note": 92,
      "start": 96.8251,
      "duration": 0.3328,
      "velocity": 102,
      "chip": "ym2612"
    },
    {
      "channel": 3,
      "note": 86,
      "start": 96.826,
      "duration": 0.3329,
      "velocity": 102,
      "chip": "ym2612"
    },
    {
      "channel": 5,
      "note": 92,
      "start": 96.9377,
      "duration": 0.3324,
      "velocity": 102,
      "chip": "ym2612"
    },
    {
      "channel": 1,
      "note": 47,
      "start": 97.0027,
      "duration": 0.1559,
      "velocity": 110,
      "chip": "ym2612"
    },
    {
      "channel": 4,
      "note": 102,
      "start": 97.004,
      "duration": 0.3339,
      "velocity": 85,
      "chip": "ym2612"
    },
    {
      "channel": 2,
      "note": 36,
      "start": 97.0052,
      "duration": 0.1387,
      "velocity": 127,
      "chip": "ym2612"
    },
    {
      "channel": 0,
      "note": 93,
      "start": 97.1585,
      "duration": 0.1769,
      "velocity": 102,
      "chip": "ym2612"
    },
    {
      "channel": 3,
      "note": 86,
      "start": 97.1594,
      "duration": 0.1777,
      "velocity": 102,
      "chip": "ym2612"
    },
    {
      "channel": 5,
      "note": 93,
      "start": 97.2708,
      "duration": 0.1744,
      "velocity": 102,
      "chip": "ym2612"
    },
    {
      "channel": 0,
      "note": 95,
      "start": 97.3362,
      "duration": 0.999,
      "velocity": 102,
      "chip": "ym2612"
    },
    {
      "channel": 1,
      "note": 52,
      "start": 97.3369,
      "duration": 0.9992,
      "velocity": 110,
      "chip": "ym2612"
    },
    {
      "channel": 3,
      "note": 88,
      "start": 97.3377,
      "duration": 0.999,
      "velocity": 102,
      "chip": "ym2612"
    },
    {
      "channel": 4,
      "note": 100,
      "start": 97.3386,
      "duration": 1.3327,
      "velocity": 85,
      "chip": "ym2612"
    },
    {
      "channel": 2,
      "note": 36,
      "start": 97.3402,
      "duration": 0.137,
      "velocity": 127,
      "chip": "ym2612"
    },
    {
      "channel": 5,
      "note": 95,
      "start": 97.4459,
      "duration": 0.9993,
      "velocity": 102,
      "chip": "ym2612"
    },
    {
      "channel": 2,
      "note": 36,
      "start": 97.6713,
      "duration": 0.1394,
      "velocity": 127,
      "chip": "ym2612"
    },
    {
      "channel": 2,
      "note": 72,
      "start": 98.0048,
      "duration": 0.2823,
      "velocity": 120,
      "chip": "ym2612"
    },
    {
      "channel": 0,
      "note": 88,
      "start": 98.336,
      "duration": 0.1553,
      "velocity": 102,
      "chip": "ym2612"
    },
    {
      "channel": 1,
      "note": 52,
      "start": 98.3366,
      "duration": 0.1554,
      "velocity": 110,
      "chip": "ym2612"
    },
    {
      "channel": 3,
      "note": 85,
      "start": 98.3374,
      "duration": 0.1549,
      "velocity": 102,
      "chip": "ym2612"
    },
    {
      "channel": 2,
      "note": 36,
      "start": 98.3391,
      "duration": 0.1384,
      "velocity": 127,
      "chip": "ym2612"
    },
    {
      "channel": 5,
      "note": 88,
      "start": 98.4459,
      "duration": 0.1578,
      "velocity": 102,
      "chip": "ym2612"
    },
    {
      "channel": 0,
      "note": 88,
      "start": 98.4919,
      "duration": 0.177,
      "velocity": 102,
      "chip": "ym2612"
    },
    {
      "channel": 3,
      "note": 85,
      "start": 98.4928,
      "duration": 0.1777,
      "velocity": 102,
      "chip": "ym2612"
    },
    {
      "channel": 5,
      "note": 88,
      "start": 98.6042,
      "duration": 0.1742,
      "velocity": 102,
      "chip": "ym2612"
    },
    {
      "channel": 0,
      "note": 90,
      "start": 98.6696,
      "duration": 0.6658,
      "velocity": 102,
      "chip": "ym2612"
    },
    {
      "channel": 1,
      "note": 50,
      "start": 98.6704,
      "duration": 1.333,
      "velocity": 110,
      "chip": "ym2612"
    },
    {
      "channel": 3,
      "note": 86,
      "start": 98.6711,
      "duration": 0.6653,
      "velocity": 102,
      "chip": "ym2612"
    },
    {
      "channel": 4,
      "note": 98,
      "start": 98.672,
      "duration": 0.998,
      "velocity": 85,
      "chip": "ym2612"
    },
    {
      "channel": 2,
      "note": 36,
      "start": 98.6736,
      "duration": 0.1371,
      "velocity": 127,
      "chip": "ym2612"
    },
    {
      "channel": 5,
      "note": 90,
      "start": 98.7792,
      "duration": 0.6662,
      "velocity": 102,
      "chip": "ym2612"
    },
    {
      "channel": 2,
      "note": 36,
      "start": 99.0048,
      "duration": 0.1396,
      "velocity": 127,
      "chip": "ym2612"
    },
    {
      "channel": 0,
      "note": 90,
      "start": 99.336,
      "duration": 0.4888,
      "velocity": 102,
      "chip": "ym2612"
    },
    {
      "channel": 3,
      "note": 86,
      "start": 99.337,
      "duration": 0.489,
      "velocity": 102,
      "chip": "ym2612"
    },
    {
      "channel": 2,
      "note": 72,
      "start": 99.3386,
      "duration": 0.2819,
      "velocity": 120,
      "chip": "ym2612"
    },
    {
      "channel": 5,
      "note": 90,
      "start": 99.4459,
      "duration": 0.4915,
      "velocity": 102,
      "chip": "ym2612"
    },
    {
      "channel": 4,
      "note": 100,
      "start": 99.6707,
      "duration": 0.1559,
      "velocity": 85,
      "chip": "ym2612"
    },
    {
      "channel": 2,
      "note": 36,
      "start": 99.672,
      "duration": 0.139,
      "velocity": 127,
      "chip": "ym2612"
    },
    {
      "channel": 0,
      "note": 93,
      "start": 99.8255,
      "duration": 0.177,
      "velocity": 102,
      "chip": "ym2612"
    },
    {
      "channel": 3,
      "note": 86,
      "start": 99.8265,
      "duration": 0.1776,
      "velocity": 102,
      "chip": "ym2612"
    },
    {
      "channel": 4,
      "note": 102,
      "start": 99.8273,
      "duration": 0.1776,
      "velocity": 85,
      "chip": "ym2612"
    },
    {
      "channel": 5,
      "note": 93,
      "start": 99.9381,
      "duration": 0.1739,
      "velocity": 102,
      "chip": "ym2612"
    },
    {
      "channel": 0,
      "note": 95,
      "start": 100.0033,
      "duration": 0.3323,
      "velocity": 102,
      "chip": "ym2612"
    },
    {
      "channel": 1,
      "note": 52,
      "start": 100.004,
      "duration": 1.333,
      "velocity": 110,
      "chip": "ym2612"
    },
    {
      "channel": 3,
      "note": 88,
      "start": 100.0047,
      "duration": 0.3319,
      "velocity": 102,
      "chip": "ym2612"
    },
    {
      "channel": 4,
      "note": 100,
      "start": 100.0056,
      "duration": 0.998,
      "velocity": 85,
      "chip": "ym2612"
    },
    {
      "channel": 2,
      "note": 36,
      "start": 100.0072,
      "duration": 0.1371,
      "velocity": 127,
      "chip": "ym2612"
    },
    {
      "channel": 5,
      "note": 95,
      "start": 100.1127,
      "duration": 0.3327,
      "velocity": 102,
      "chip": "ym2612"
    },
    {
      "channel": 0,
      "note": 95,
      "start": 100.3361,
      "duration": 0.1555,
      "velocity": 102,
      "chip": "ym2612"
    },
    {
      "channel": 3,
      "note": 88,
      "start": 100.3371,
      "duration": 0.1555,
      "velocity": 102,
      "chip": "ym2612"
    },
    {
      "channel": 2,
      "note": 36,
      "start": 100.3388,
      "duration": 0.1389,
      "velocity": 127,
      "chip": "ym2612"
    },
    {
      "channel": 5,
      "note": 95,
      "start": 100.4459,
      "duration": 0.1583,
      "velocity": 102,
      "chip": "ym2612"
    },
    {
      "channel": 0,
      "note": 95,
      "start": 100.4921,
      "duration": 0.3329,
      "velocity": 102,
      "chip": "ym2612"
    },
    {
      "channel": 3,
      "note": 88,
      "start": 100.493,
      "duration": 0.3332,
      "velocity": 102,
      "chip": "ym2612"
    },
    {
      "channel": 5,
      "note": 95,
      "start": 100.6047,
      "duration": 0.3328,
      "velocity": 102,
      "chip": "ym2612"
    },
    {
      "channel": 2,
      "note": 72,
      "start": 100.6716,
      "duration": 0.2823,
      "velocity": 120,
      "chip": "ym2612"
    },
    {
      "channel": 0,
      "note": 93,
      "start": 100.8256,
      "duration": 0.3327,
      "velocity": 102,
      "chip": "ym2612"
    },
    {
      "channel": 3,
      "note": 88,
      "start": 100.8266,
      "duration": 0.333,
      "velocity": 102,
      "chip": "ym2612"
    },
    {
      "channel": 5,
      "note": 93,
      "start": 100.9383,
      "duration": 0.3328,
      "velocity": 102,
      "chip": "ym2612"
    },
    {
      "channel": 4,
      "note": 98,
      "start": 101.0043,
      "duration": 0.3405,
      "velocity": 88,
      "chip": "ym2612"
    },
    {
      "channel": 2,
      "note": 36,
      "start": 101.0055,
      "duration": 0.139,
      "velocity": 127,
      "chip": "ym2612"
    },
    {
      "channel": 0,
      "note": 92,
      "start": 101.159,
      "duration": 0.177,
      "velocity": 102,
      "chip": "ym2612"
    },
    {
      "channel": 3,
      "note": 83,
      "start": 101.1602,
      "duration": 0.1806,
      "velocity": 88,
      "chip": "ym2612"
    },
    {
      "channel": 5,
      "note": 92,
      "start": 101.2717,
      "duration": 0.1739,
      "velocity": 102,
      "chip": "ym2612"
    },
    {
      "channel": 0,
      "note": 93,
      "start": 101.3367,
      "duration": 1.9994,
      "velocity": 102,
      "chip": "ym2612"
    },
    {
      "channel": 1,
      "note": 57,
      "start": 101.3376,
      "duration": 0.9988,
      "velocity": 110,
      "chip": "ym2612"
    },
    {
      "channel": 3,
      "note": 81,
      "start": 101.3414,
      "duration": 0.3285,
      "velocity": 88,
      "chip": "ym2612"
    },
    {
      "channel": 4,
      "note": 85,
      "start": 101.3454,
      "duration": 0.3251,
      "velocity": 88,
      "chip": "ym2612"
    },
    {
      "channel": 2,
      "note": 36,
      "start": 101.3466,
      "duration": 0.1312,
      "velocity": 127,
      "chip": "ym2612"
    },
    {
      "channel": 5,
      "note": 93,
      "start": 101.4463,
      "duration": 1.9993,
      "velocity": 102,
      "chip": "ym2612"
    },
    {
      "channel": 3,
      "note": 81,
      "start": 101.6704,
      "duration": 0.3329,
      "velocity": 88,
      "chip": "ym2612"
    },
    {
      "channel": 4,
      "note": 85,
      "start": 101.6711,
      "duration": 0.3329,
      "velocity": 88,
      "chip": "ym2612"
    },
    {
      "channel": 2,
      "note": 36,
      "start": 101.6723,
      "duration": 0.139,
      "velocity": 127,
      "chip": "ym2612"
    },
    {
      "channel": 3,
      "note": 81,
      "start": 102.0038,
      "duration": 0.3332,
      "velocity": 88,
      "chip": "ym2612"
    },
    {
      "channel": 4,
      "note": 85,
      "start": 102.0045,
      "duration": 0.3331,
      "velocity": 88,
      "chip": "ym2612"
    },
    {
      "channel": 2,
      "note": 72,
      "start": 102.0057,
      "duration": 0.282,
      "velocity": 120,
      "chip": "ym2612"
    },
    {
      "channel": 1,
      "note": 57,
      "start": 102.3368,
      "duration": 0.1555,
      "velocity": 110,
      "chip": "ym2612"
    },
    {
      "channel": 3,
      "note": 81,
      "start": 102.3374,
      "duration": 0.3333,
      "velocity": 88,
      "chip": "ym2612"
    },
    {
      "channel": 4,
      "note": 85,
      "start": 102.338,
      "duration": 0.3335,
      "velocity": 88,
      "chip": "ym2612"
    },
    {
      "channel": 2,
      "note": 36,
      "start": 102.3394,
      "duration": 0.1386,
      "velocity": 127,
      "chip": "ym2612"
    },
    {
      "channel": 1,
      "note": 57,
      "start": 102.6706,
      "duration": 0.9988,
      "velocity": 110,
      "chip": "ym2612"
    },
    {
      "channel": 3,
      "note": 78,
      "start": 102.6714,
      "duration": 0.332,
      "velocity": 88,
      "chip": "ym2612"
    },
    {
      "channel": 4,
      "note": 83,
      "start": 102.6722,
      "duration": 0.3319,
      "velocity": 88,
      "chip": "ym2612"
    },
    {
      "channel": 2,
      "note": 36,
      "start": 102.6739,
      "duration": 0.1375,
      "velocity": 127,
      "chip": "ym2612"
    },
    {
      "channel": 3,
      "note": 78,
      "start": 103.004,
      "duration": 0.3327,
      "velocity": 88,
      "chip": "ym2612"
    },
    {
      "channel": 4,
      "note": 83,
      "start": 103.0048,
      "duration": 0.3327,
      "velocity": 88,
      "chip": "ym2612"
    },
    {
      "channel": 2,
      "note": 36,
      "start": 103.0065,
      "duration": 0.1382,
      "velocity": 127,
      "chip": "ym2612"
    },
    {
      "channel": 3,
      "note": 78,
      "start": 103.3374,
      "duration": 0.3327,
      "velocity": 88,
      "chip": "ym2612"
    },
    {
      "channel": 4,
      "note": 83,
      "start": 103.3382,
      "duration": 0.3326,
      "velocity": 88,
      "chip": "ym2612"
    },
    {
      "channel": 2,
      "note": 72,
      "start": 103.3395,
      "duration": 0.2809,
      "velocity": 120,
      "chip": "ym2612"
    },
    {
      "channel": 1,
      "note": 57,
      "start": 103.6699,
      "duration": 0.1557,
      "velocity": 110,
      "chip": "ym2612"
    },
    {
      "channel": 3,
      "note": 78,
      "start": 103.6706,
      "duration": 0.3373,
      "velocity": 88,
      "chip": "ym2612"
    },
    {
      "channel": 4,
      "note": 83,
      "start": 103.6715,
      "duration": 0.3377,
      "velocity": 88,
      "chip": "ym2612"
    },
    {
      "channel": 2,
      "note": 36,
      "start": 103.6724,
      "duration": 0.1384,
      "velocity": 127,
      "chip": "ym2612"
    },
    {
      "channel": 0,
      "note": 90,
      "start": 104.0066,
      "duration": 0.4407,
      "velocity": 88,
      "chip": "ym2612"
    },
    {
      "channel": 1,
      "note": 50,
      "start": 104.0073,
      "duration": 0.4408,
      "velocity": 110,
      "chip": "ym2612"
    },
    {
      "channel": 3,
      "note": 74,
      "start": 104.0085,
      "duration": 0.4403,
      "velocity": 88,
      "chip": "ym2612"
    },
    {
      "channel": 4,
      "note": 81,
      "start": 104.0098,
      "duration": 0.4398,
      "velocity": 88,
      "chip": "ym2612"
    },
    {
      "channel": 2,
      "note": 72,
      "start": 104.0106,
      "duration": 0.2773,
      "velocity": 120,
      "chip": "ym2612"
    },
    {
      "channel": 5,
      "note": 90,
      "start": 104.1159,
      "duration": 0.4416,
      "velocity": 88,
      "chip": "ym2612"
    },
    {
      "channel": 0,
      "note": 88,
      "start": 104.448,
      "duration": 0.4443,
      "velocity": 88,
      "chip": "ym2612"
    },
    {
      "channel": 1,
      "note": 49,
      "start": 104.4487,
      "duration": 0.4445,
      "velocity": 110,
      "chip": "ym2612"
    },
    {
      "channel": 3,
      "note": 73,
      "start": 104.4495,
      "duration": 0.4444,
      "velocity": 88,
      "chip": "ym2612"
    },
    {
      "channel": 4,
      "note": 81,
      "start": 104.4501,
      "duration": 0.4445,
      "velocity": 88,
      "chip": "ym2612"
    },
    {
      "channel": 2,
      "note": 72,
      "start": 104.4514,
      "duration": 0.2811,
      "velocity": 120,
      "chip": "ym2612"
    },
    {
      "channel": 5,
      "note": 88,
      "start": 104.5582,
      "duration": 0.4434,
      "velocity": 88,
      "chip": "ym2612"
    },
    {
      "channel": 0,
      "note": 86,
      "start": 104.8929,
      "duration": 0.4434,
      "velocity": 88,
      "chip": "ym2612"
    },
    {
      "channel": 1,
      "note": 47,
      "start": 104.8937,
      "duration": 0.4435,
      "velocity": 110,
      "chip": "ym2612"
    },
    {
      "channel": 3,
      "note": 71,
      "start": 104.8944,
      "duration": 0.4436,
      "velocity": 88,
      "chip": "ym2612"
    },
    {
      "channel": 4,
      "note": 81,
      "start": 104.8951,
      "duration": 0.4436,
      "velocity": 88,
      "chip": "ym2612"
    },
    {
      "channel": 2,
      "note": 72,
      "start": 104.8963,
      "duration": 0.2807,
      "velocity": 120,
      "chip": "ym2612"
    },
    {
      "channel": 5,
      "note": 86,
      "start": 105.0023,
      "duration": 0.4438,
      "velocity": 88,
      "chip": "ym2612"
    },
    {
      "channel": 0,
      "note": 85,
      "start": 105.3371,
      "duration": 2.6636,
      "velocity": 88,
      "chip": "ym2612"
    },
    {
      "channel": 1,
      "note": 45,
      "start": 105.3378,
      "duration": 2.6632,
      "velocity": 110,
      "chip": "ym2612"
    },
    {
      "channel": 3,
      "note": 69,
      "start": 105.3386,
      "duration": 2.6629,
      "velocity": 88,
      "chip": "ym2612"
    },
    {
      "channel": 4,
      "note": 76,
      "start": 105.3395,
      "duration": 2.6623,
      "velocity": 88,
      "chip": "ym2612"
    },
    {
      "channel": 2,
      "note": 72,
      "start": 105.341,
      "duration": 0.2803,
      "velocity": 120,
      "chip": "ym2612"
    },
    {
      "channel": 5,
      "note": 85,
      "start": 105.4468,
      "duration": 2.6651,
      "velocity": 88,
      "chip": "ym2612"
    }
  ]
}