{
  "track_name": "16 - Track 23",
  "duration_sec": 60.771,
  "sample_rate": 44100,
  "note_count": 203,
  "unique_pitches": 23,
  "pitch_range": 60,
  "avg_note_duration": 1.4815,
  "reconstruction_stats": {
    "notes_reconstructed": 203,
    "keyon_events": 203,
    "keyoff_events": 203,
    "orphan_keyons": 0,
    "unique_pitches": 23,
    "pitch_range": 60,
    "avg_duration_sec": 1.4815
  },
  "metadata": {
    "source": "S\\Star Trek DS9 - Crossroads of Time\\16 - Track 23.vgz"
  },
  "notes": [
    {
      "channel": 0,
      "note": 51,
      "start": 0.0015,
      "duration": 0.1652,
      "velocity": 113,
      "chip": "ym2612"
    },
    {
      "channel": 1,
      "note": 75,
      "start": 0.0066,
      "duration": 0.1652,
      "velocity": 104,
      "chip": "ym2612"
    },
    {
      "channel": 0,
      "note": 56,
      "start": 0.1714,
      "duration": 0.159,
      "velocity": 113,
      "chip": "ym2612"
    },
    {
      "channel": 1,
      "note": 80,
      "start": 0.1766,
      "duration": 0.1592,
      "velocity": 104,
      "chip": "ym2612"
    },
    {
      "channel": 0,
      "note": 60,
      "start": 0.3353,
      "duration": 0.1691,
      "velocity": 113,
      "chip": "ym2612"
    },
    {
      "channel": 1,
      "note": 84,
      "start": 0.3404,
      "duration": 0.1692,
      "velocity": 104,
      "chip": "ym2612"
    },
    {
      "channel": 0,
      "note": 58,
      "start": 0.5091,
      "duration": 1.3973,
      "velocity": 113,
      "chip": "ym2612"
    },
    {
      "channel": 1,
      "note": 82,
      "start": 0.5144,
      "duration": 1.3929,
      "velocity": 104,
      "chip": "ym2612"
    },
    {
      "channel": 0,
      "note": 61,
      "start": 2.0235,
      "duration": 1.0083,
      "velocity": 113,
      "chip": "ym2612"
    },
    {
      "channel": 1,
      "note": 85,
      "start": 2.0286,
      "duration": 1.0083,
      "velocity": 104,
      "chip": "ym2612"
    },
    {
      "channel": 0,
      "note": 60,
      "start": 3.0365,
      "duration": 0.1692,
      "velocity": 113,
      "chip": "ym2612"
    },
    {
      "channel": 1,
      "note": 84,
      "start": 3.0417,
      "duration": 0.1692,
      "velocity": 104,
      "chip": "ym2612"
    },
    {
      "channel": 0,
      "note": 61,
      "start": 3.2105,
      "duration": 0.159,
      "velocity": 113,
      "chip": "ym2612"
    },
    {
      "channel": 1,
      "note": 85,
      "start": 3.2157,
      "duration": 0.1588,
      "velocity": 104,
      "chip": "ym2612"
    },
    {
      "channel": 0,
      "note": 63,
      "start": 3.3741,
      "duration": 2.39,
      "velocity": 113,
      "chip": "ym2612"
    },
    {
      "channel": 1,
      "note": 87,
      "start": 3.3793,
      "duration": 2.3858,
      "velocity": 104,
      "chip": "ym2612"
    },
    {
      "channel": 3,
      "note": 32,
      "start": 3.3847,
      "duration": 27.699,
      "velocity": 96,
      "chip": "ym2612"
    },
    {
      "channel": 4,
      "note": 44,
      "start": 3.3898,
      "duration": 27.699,
      "velocity": 96,
      "chip": "ym2612"
    },
    {
      "channel": 0,
      "note": 51,
      "start": 6.0755,
      "duration": 0.1692,
      "velocity": 113,
      "chip": "ym2612"
    },
    {
      "channel": 1,
      "note": 75,
      "start": 6.0807,
      "duration": 0.1694,
      "velocity": 104,
      "chip": "ym2612"
    },
    {
      "channel": 0,
      "note": 56,
      "start": 6.2496,
      "duration": 0.1588,
      "velocity": 113,
      "chip": "ym2612"
    },
    {
      "channel": 1,
      "note": 80,
      "start": 6.2548,
      "duration": 0.1588,
      "velocity": 104,
      "chip": "ym2612"
    },
    {
      "channel": 0,
      "note": 60,
      "start": 6.4132,
      "duration": 0.1693,
      "velocity": 113,
      "chip": "ym2612"
    },
    {
      "channel": 1,
      "note": 84,
      "start": 6.4185,
      "duration": 0.1691,
      "velocity": 104,
      "chip": "ym2612"
    },
    {
      "channel": 0,
      "note": 58,
      "start": 6.5872,
      "duration": 1.5097,
      "velocity": 113,
      "chip": "ym2612"
    },
    {
      "channel": 1,
      "note": 82,
      "start": 6.5923,
      "duration": 1.5099,
      "velocity": 104,
      "chip": "ym2612"
    },
    {
      "channel": 0,
      "note": 61,
      "start": 8.1017,
      "duration": 1.0081,
      "velocity": 113,
      "chip": "ym2612"
    },
    {
      "channel": 1,
      "note": 85,
      "start": 8.1069,
      "duration": 1.0083,
      "velocity": 104,
      "chip": "ym2612"
    },
    {
      "channel": 0,
      "note": 60,
      "start": 9.1147,
      "duration": 0.1691,
      "velocity": 113,
      "chip": "ym2612"
    },
    {
      "channel": 1,
      "note": 84,
      "start": 9.1199,
      "duration": 0.1691,
      "velocity": 104,
      "chip": "ym2612"
    },
    {
      "channel": 0,
      "note": 56,
      "start": 9.2885,
      "duration": 0.159,
      "velocity": 113,
      "chip": "ym2612"
    },
    {
      "channel": 1,
      "note": 80,
      "start": 9.2937,
      "duration": 0.1592,
      "velocity": 104,
      "chip": "ym2612"
    },
    {
      "channel": 0,
      "note": 51,
      "start": 9.4524,
      "duration": 0.5067,
      "velocity": 113,
      "chip": "ym2612"
    },
    {
      "channel": 1,
      "note": 75,
      "start": 9.4575,
      "duration": 0.5069,
      "velocity": 104,
      "chip": "ym2612"
    },
    {
      "channel": 0,
      "note": 49,
      "start": 9.9639,
      "duration": 0.8344,
      "velocity": 113,
      "chip": "ym2612"
    },
    {
      "channel": 1,
      "note": 73,
      "start": 9.9692,
      "duration": 0.8342,
      "velocity": 104,
      "chip": "ym2612"
    },
    {
      "channel": 0,
      "note": 56,
      "start": 10.8029,
      "duration": 1.8271,
      "velocity": 113,
      "chip": "ym2612"
    },
    {
      "channel": 1,
      "note": 80,
      "start": 10.8081,
      "duration": 1.8228,
      "velocity": 104,
      "chip": "ym2612"
    },
    {
      "channel": 0,
      "note": 51,
      "start": 12.829,
      "duration": 0.1692,
      "velocity": 113,
      "chip": "ym2612"
    },
    {
      "channel": 1,
      "note": 75,
      "start": 12.8342,
      "duration": 0.1691,
      "velocity": 104,
      "chip": "ym2612"
    },
    {
      "channel": 5,
      "note": 63,
      "start": 12.8397,
      "duration": 0.169,
      "velocity": 116,
      "chip": "ym2612"
    },
    {
      "channel": 0,
      "note": 56,
      "start": 13.0029,
      "duration": 0.159,
      "velocity": 113,
      "chip": "ym2612"
    },
    {
      "channel": 1,
      "note": 80,
      "start": 13.008,
      "duration": 0.1592,
      "velocity": 104,
      "chip": "ym2612"
    },
    {
      "channel": 5,
      "note": 68,
      "start": 13.0135,
      "duration": 0.1591,
      "velocity": 116,
      "chip": "ym2612"
    },
    {
      "channel": 0,
      "note": 60,
      "start": 13.1668,
      "duration": 0.1691,
      "velocity": 113,
      "chip": "ym2612"
    },
    {
      "channel": 1,
      "note": 84,
      "start": 13.1719,
      "duration": 0.1691,
      "velocity": 104,
      "chip": "ym2612"
    },
    {
      "channel": 5,
      "note": 72,
      "start": 13.1774,
      "duration": 0.1691,
      "velocity": 116,
      "chip": "ym2612"
    },
    {
      "channel": 0,
      "note": 58,
      "start": 13.3406,
      "duration": 1.5097,
      "velocity": 113,
      "chip": "ym2612"
    },
    {
      "channel": 1,
      "note": 82,
      "start": 13.3458,
      "duration": 1.5097,
      "velocity": 104,
      "chip": "ym2612"
    },
    {
      "channel": 5,
      "note": 70,
      "start": 13.3514,
      "duration": 1.5095,
      "velocity": 116,
      "chip": "ym2612"
    },
    {
      "channel": 0,
      "note": 61,
      "start": 14.855,
      "duration": 1.0083,
      "velocity": 113,
      "chip": "ym2612"
    },
    {
      "channel": 1,
      "note": 85,
      "start": 14.8601,
      "duration": 1.0085,
      "velocity": 104,
      "chip": "ym2612"
    },
    {
      "channel": 5,
      "note": 73,
      "start": 14.8657,
      "duration": 1.0083,
      "velocity": 116,
      "chip": "ym2612"
    },
    {
      "channel": 0,
      "note": 60,
      "start": 15.8681,
      "duration": 0.1691,
      "velocity": 113,
      "chip": "ym2612"
    },
    {
      "channel": 1,
      "note": 84,
      "start": 15.8733,
      "duration": 0.1691,
      "velocity": 104,
      "chip": "ym2612"
    },
    {
      "channel": 5,
      "note": 72,
      "start": 15.8787,
      "duration": 0.1693,
      "velocity": 116,
      "chip": "ym2612"
    },
    {
      "channel": 0,
      "note": 61,
      "start": 16.042,
      "duration": 0.159,
      "velocity": 113,
      "chip": "ym2612"
    },
    {
      "channel": 1,
      "note": 85,
      "start": 16.0471,
      "duration": 0.159,
      "velocity": 104,
      "chip": "ym2612"
    },
    {
      "channel": 5,
      "note": 73,
      "start": 16.0527,
      "duration": 0.1588,
      "velocity": 116,
      "chip": "ym2612"
    },
    {
      "channel": 0,
      "note": 63,
      "start": 16.2057,
      "duration": 1.5406,
      "velocity": 113,
      "chip": "ym2612"
    },
    {
      "channel": 1,
      "note": 87,
      "start": 16.2108,
      "duration": 1.5363,
      "velocity": 104,
      "chip": "ym2612"
    },
    {
      "channel": 5,
      "note": 75,
      "start": 16.2164,
      "duration": 1.5318,
      "velocity": 116,
      "chip": "ym2612"
    },
    {
      "channel": 0,
      "note": 56,
      "start": 18.0681,
      "duration": 0.8342,
      "velocity": 113,
      "chip": "ym2612"
    },
    {
      "channel": 1,
      "note": 80,
      "start": 18.0733,
      "duration": 0.8341,
      "velocity": 104,
      "chip": "ym2612"
    },
    {
      "channel": 5,
      "note": 68,
      "start": 18.0787,
      "duration": 0.8342,
      "velocity": 116,
      "chip": "ym2612"
    },
    {
      "channel": 0,
      "note": 68,
      "start": 18.907,
      "duration": 0.8243,
      "velocity": 113,
      "chip": "ym2612"
    },
    {
      "channel": 1,
      "note": 92,
      "start": 18.9122,
      "duration": 0.8243,
      "velocity": 104,
      "chip": "ym2612"
    },
    {
      "channel": 5,
      "note": 80,
      "start": 18.9178,
      "duration": 0.8241,
      "velocity": 116,
      "chip": "ym2612"
    },
    {
      "channel": 0,
      "note": 67,
      "start": 19.736,
      "duration": 0.21,
      "velocity": 113,
      "chip": "ym2612"
    },
    {
      "channel": 1,
      "note": 91,
      "start": 19.7412,
      "duration": 0.2101,
      "velocity": 104,
      "chip": "ym2612"
    },
    {
      "channel": 5,
      "note": 79,
      "start": 19.7466,
      "duration": 0.21,
      "velocity": 116,
      "chip": "ym2612"
    },
    {
      "channel": 0,
      "note": 63,
      "start": 19.9508,
      "duration": 0.2101,
      "velocity": 113,
      "chip": "ym2612"
    },
    {
      "channel": 1,
      "note": 87,
      "start": 19.956,
      "duration": 0.2102,
      "velocity": 104,
      "chip": "ym2612"
    },
    {
      "channel": 5,
      "note": 75,
      "start": 19.9615,
      "duration": 0.2101,
      "velocity": 116,
      "chip": "ym2612"
    },
    {
      "channel": 0,
      "note": 56,
      "start": 20.1657,
      "duration": 1.1412,
      "velocity": 113,
      "chip": "ym2612"
    },
    {
      "channel": 1,
      "note": 80,
      "start": 20.1709,
      "duration": 1.1412,
      "velocity": 104,
      "chip": "ym2612"
    },
    {
      "channel": 5,
      "note": 68,
      "start": 20.1763,
      "duration": 1.1413,
      "velocity": 116,
      "chip": "ym2612"
    },
    {
      "channel": 0,
      "note": 58,
      "start": 21.3117,
      "duration": 2.2464,
      "velocity": 113,
      "chip": "ym2612"
    },
    {
      "channel": 1,
      "note": 82,
      "start": 21.3169,
      "duration": 2.2463,
      "velocity": 104,
      "chip": "ym2612"
    },
    {
      "channel": 5,
      "note": 70,
      "start": 21.3224,
      "duration": 2.2464,
      "velocity": 116,
      "chip": "ym2612"
    },
    {
      "channel": 0,
      "note": 51,
      "start": 23.5628,
      "duration": 0.6604,
      "velocity": 113,
      "chip": "ym2612"
    },
    {
      "channel": 1,
      "note": 75,
      "start": 23.5681,
      "duration": 0.6602,
      "velocity": 104,
      "chip": "ym2612"
    },
    {
      "channel": 5,
      "note": 63,
      "start": 23.5736,
      "duration": 0.6603,
      "velocity": 116,
      "chip": "ym2612"
    },
    {
      "channel": 0,
      "note": 49,
      "start": 24.2279,
      "duration": 1.08,
      "velocity": 113,
      "chip": "ym2612"
    },
    {
      "channel": 1,
      "note": 73,
      "start": 24.2332,
      "duration": 1.0798,
      "velocity": 104,
      "chip": "ym2612"
    },
    {
      "channel": 5,
      "note": 61,
      "start": 24.2386,
      "duration": 1.08,
      "velocity": 116,
      "chip": "ym2612"
    },
    {
      "channel": 0,
      "note": 56,
      "start": 25.3126,
      "duration": 0.1797,
      "velocity": 113,
      "chip": "ym2612"
    },
    {
      "channel": 1,
      "note": 80,
      "start": 25.3179,
      "duration": 0.1751,
      "velocity": 104,
      "chip": "ym2612"
    },
    {
      "channel": 5,
      "note": 68,
      "start": 25.3233,
      "duration": 0.1708,
      "velocity": 116,
      "chip": "ym2612"
    },
    {
      "channel": 0,
      "note": 56,
      "start": 25.6093,
      "duration": 4.0373,
      "velocity": 113,
      "chip": "ym2612"
    },
    {
      "channel": 1,
      "note": 80,
      "start": 25.6146,
      "duration": 4.033,
      "velocity": 104,
      "chip": "ym2612"
    },
    {
      "channel": 5,
      "note": 68,
      "start": 25.6201,
      "duration": 4.0287,
      "velocity": 116,
      "chip": "ym2612"
    },
    {
      "channel": 0,
      "note": 51,
      "start": 31.0632,
      "duration": 0.1693,
      "velocity": 113,
      "chip": "ym2612"
    },
    {
      "channel": 1,
      "note": 75,
      "start": 31.0685,
      "duration": 0.1691,
      "velocity": 104,
      "chip": "ym2612"
    },
    {
      "channel": 5,
      "note": 63,
      "start": 31.0769,
      "duration": 0.1661,
      "velocity": 116,
      "chip": "ym2612"
    },
    {
      "channel": 2,
      "note": 56,
      "start": 31.0832,
      "duration": 29.3136,
      "velocity": 96,
      "chip": "ym2612"
    },
    {
      "channel": 3,
      "note": 32,
      "start": 31.0884,
      "duration": 29.3093,
      "velocity": 96,
      "chip": "ym2612"
    },
    {
      "channel": 4,
      "note": 44,
      "start": 31.0935,
      "duration": 29.305,
      "velocity": 96,
      "chip": "ym2612"
    },
    {
      "channel": 0,
      "note": 56,
      "start": 31.2372,
      "duration": 0.159,
      "velocity": 113,
      "chip": "ym2612"
    },
    {
      "channel": 1,
      "note": 80,
      "start": 31.2423,
      "duration": 0.1592,
      "velocity": 104,
      "chip": "ym2612"
    },
    {
      "channel": 5,
      "note": 68,
      "start": 31.2479,
      "duration": 0.159,
      "velocity": 116,
      "chip": "ym2612"
    },
    {
      "channel": 0,
      "note": 60,
      "start": 31.401,
      "duration": 0.1691,
      "velocity": 113,
      "chip": "ym2612"
    },
    {
      "channel": 1,
      "note": 84,
      "start": 31.4062,
      "duration": 0.1691,
      "velocity": 104,
      "chip": "ym2612"
    },
    {
      "channel": 5,
      "note": 72,
      "start": 31.4116,
      "duration": 0.1691,
      "velocity": 116,
      "chip": "ym2612"
    },
    {
      "channel": 0,
      "note": 58,
      "start": 31.5748,
      "duration": 1.3973,
      "velocity": 113,
      "chip": "ym2612"
    },
    {
      "channel": 1,
      "note": 82,
      "start": 31.58,
      "duration": 1.393,
      "velocity": 104,
      "chip": "ym2612"
    },
    {
      "channel": 5,
      "note": 70,
      "start": 31.5856,
      "duration": 1.3884,
      "velocity": 116,
      "chip": "ym2612"
    },
    {
      "channel": 0,
      "note": 61,
      "start": 33.0892,
      "duration": 1.0083,
      "velocity": 113,
      "chip": "ym2612"
    },
    {
      "channel": 1,
      "note": 85,
      "start": 33.0944,
      "duration": 1.0085,
      "velocity": 104,
      "chip": "ym2612"
    },
    {
      "channel": 5,
      "note": 73,
      "start": 33.1,
      "duration": 1.0083,
      "velocity": 116,
      "chip": "ym2612"
    },
    {
      "channel": 0,
      "note": 60,
      "start": 34.1024,
      "duration": 0.1691,
      "velocity": 113,
      "chip": "ym2612"
    },
    {
      "channel": 1,
      "note": 84,
      "start": 34.1075,
      "duration": 0.1691,
      "velocity": 104,
      "chip": "ym2612"
    },
    {
      "channel": 5,
      "note": 72,
      "start": 34.113,
      "duration": 0.1692,
      "velocity": 116,
      "chip": "ym2612"
    },
    {
      "channel": 0,
      "note": 61,
      "start": 34.2762,
      "duration": 0.159,
      "velocity": 113,
      "chip": "ym2612"
    },
    {
      "channel": 1,
      "note": 85,
      "start": 34.2815,
      "duration": 0.1589,
      "velocity": 104,
      "chip": "ym2612"
    },
    {
      "channel": 5,
      "note": 73,
      "start": 34.2869,
      "duration": 0.1588,
      "velocity": 116,
      "chip": "ym2612"
    },
    {
      "channel": 0,
      "note": 63,
      "start": 34.4399,
      "duration": 2.3899,
      "velocity": 113,
      "chip": "ym2612"
    },
    {
      "channel": 1,
      "note": 87,
      "start": 34.4451,
      "duration": 2.3856,
      "velocity": 104,
      "chip": "ym2612"
    },
    {
      "channel": 5,
      "note": 75,
      "start": 34.4507,
      "duration": 2.3811,
      "velocity": 116,
      "chip": "ym2612"
    },
    {
      "channel": 0,
      "note": 51,
      "start": 37.1413,
      "duration": 0.1692,
      "velocity": 113,
      "chip": "ym2612"
    },
    {
      "channel": 1,
      "note": 75,
      "start": 37.1465,
      "duration": 0.1693,
      "velocity": 104,
      "chip": "ym2612"
    },
    {
      "channel": 5,
      "note": 63,
      "start": 37.1521,
      "duration": 0.1691,
      "velocity": 116,
      "chip": "ym2612"
    },
    {
      "channel": 0,
      "note": 56,
      "start": 37.3154,
      "duration": 0.1589,
      "velocity": 113,
      "chip": "ym2612"
    },
    {
      "channel": 1,
      "note": 80,
      "start": 37.3205,
      "duration": 0.1589,
      "velocity": 104,
      "chip": "ym2612"
    },
    {
      "channel": 5,
      "note": 68,
      "start": 37.326,
      "duration": 0.159,
      "velocity": 116,
      "chip": "ym2612"
    },
    {
      "channel": 0,
      "note": 60,
      "start": 37.479,
      "duration": 0.1692,
      "velocity": 113,
      "chip": "ym2612"
    },
    {
      "channel": 1,
      "note": 84,
      "start": 37.4842,
      "duration": 0.1691,
      "velocity": 104,
      "chip": "ym2612"
    },
    {
      "channel": 5,
      "note": 72,
      "start": 37.4897,
      "duration": 0.169,
      "velocity": 116,
      "chip": "ym2612"
    },
    {
      "channel": 0,
      "note": 58,
      "start": 37.6529,
      "duration": 1.5097,
      "velocity": 113,
      "chip": "ym2612"
    },
    {
      "channel": 1,
      "note": 82,
      "start": 37.658,
      "duration": 1.5098,
      "velocity": 104,
      "chip": "ym2612"
    },
    {
      "channel": 5,
      "note": 70,
      "start": 37.6635,
      "duration": 1.5097,
      "velocity": 116,
      "chip": "ym2612"
    },
    {
      "channel": 0,
      "note": 61,
      "start": 39.1674,
      "duration": 1.0082,
      "velocity": 113,
      "chip": "ym2612"
    },
    {
      "channel": 1,
      "note": 85,
      "start": 39.1725,
      "duration": 1.0082,
      "velocity": 104,
      "chip": "ym2612"
    },
    {
      "channel": 5,
      "note": 73,
      "start": 39.178,
      "duration": 1.0083,
      "velocity": 116,
      "chip": "ym2612"
    },
    {
      "channel": 0,
      "note": 60,
      "start": 40.1803,
      "duration": 0.1693,
      "velocity": 113,
      "chip": "ym2612"
    },
    {
      "channel": 1,
      "note": 84,
      "start": 40.1856,
      "duration": 0.1691,
      "velocity": 104,
      "chip": "ym2612"
    },
    {
      "channel": 5,
      "note": 72,
      "start": 40.191,
      "duration": 0.1691,
      "velocity": 116,
      "chip": "ym2612"
    },
    {
      "channel": 0,
      "note": 56,
      "start": 40.3543,
      "duration": 0.159,
      "velocity": 113,
      "chip": "ym2612"
    },
    {
      "channel": 1,
      "note": 80,
      "start": 40.3594,
      "duration": 0.1592,
      "velocity": 104,
      "chip": "ym2612"
    },
    {
      "channel": 5,
      "note": 68,
      "start": 40.365,
      "duration": 0.159,
      "velocity": 116,
      "chip": "ym2612"
    },
    {
      "channel": 0,
      "note": 51,
      "start": 40.5181,
      "duration": 0.5068,
      "velocity": 113,
      "chip": "ym2612"
    },
    {
      "channel": 1,
      "note": 75,
      "start": 40.5233,
      "duration": 0.5067,
      "velocity": 104,
      "chip": "ym2612"
    },
    {
      "channel": 5,
      "note": 63,
      "start": 40.5287,
      "duration": 0.5069,
      "velocity": 116,
      "chip": "ym2612"
    },
    {
      "channel": 0,
      "note": 49,
      "start": 41.0296,
      "duration": 0.8344,
      "velocity": 113,
      "chip": "ym2612"
    },
    {
      "channel": 1,
      "note": 73,
      "start": 41.0349,
      "duration": 0.8343,
      "velocity": 104,
      "chip": "ym2612"
    },
    {
      "channel": 5,
      "note": 61,
      "start": 41.0403,
      "duration": 0.8343,
      "velocity": 116,
      "chip": "ym2612"
    },
    {
      "channel": 0,
      "note": 56,
      "start": 41.8688,
      "duration": 1.8271,
      "velocity": 113,
      "chip": "ym2612"
    },
    {
      "channel": 1,
      "note": 80,
      "start": 41.8739,
      "duration": 1.8226,
      "velocity": 104,
      "chip": "ym2612"
    },
    {
      "channel": 5,
      "note": 68,
      "start": 41.8794,
      "duration": 1.8183,
      "velocity": 116,
      "chip": "ym2612"
    },
    {
      "channel": 0,
      "note": 51,
      "start": 43.8947,
      "duration": 0.1693,
      "velocity": 113,
      "chip": "ym2612"
    },
    {
      "channel": 1,
      "note": 75,
      "start": 43.9,
      "duration": 0.1693,
      "velocity": 104,
      "chip": "ym2612"
    },
    {
      "channel": 5,
      "note": 63,
      "start": 43.9054,
      "duration": 0.1692,
      "velocity": 116,
      "chip": "ym2612"
    },
    {
      "channel": 0,
      "note": 56,
      "start": 44.0688,
      "duration": 0.1588,
      "velocity": 113,
      "chip": "ym2612"
    },
    {
      "channel": 1,
      "note": 80,
      "start": 44.0739,
      "duration": 0.159,
      "velocity": 104,
      "chip": "ym2612"
    },
    {
      "channel": 5,
      "note": 68,
      "start": 44.0794,
      "duration": 0.1589,
      "velocity": 116,
      "chip": "ym2612"
    },
    {
      "channel": 0,
      "note": 60,
      "start": 44.2325,
      "duration": 0.1691,
      "velocity": 113,
      "chip": "ym2612"
    },
    {
      "channel": 1,
      "note": 84,
      "start": 44.2376,
      "duration": 0.1691,
      "velocity": 104,
      "chip": "ym2612"
    },
    {
      "channel": 5,
      "note": 72,
      "start": 44.2431,
      "duration": 0.1691,
      "velocity": 116,
      "chip": "ym2612"
    },
    {
      "channel": 0,
      "note": 58,
      "start": 44.4063,
      "duration": 1.5097,
      "velocity": 113,
      "chip": "ym2612"
    },
    {
      "channel": 1,
      "note": 82,
      "start": 44.4115,
      "duration": 1.5097,
      "velocity": 104,
      "chip": "ym2612"
    },
    {
      "channel": 5,
      "note": 70,
      "start": 44.4171,
      "duration": 1.5095,
      "velocity": 116,
      "chip": "ym2612"
    },
    {
      "channel": 0,
      "note": 61,
      "start": 45.9207,
      "duration": 1.0083,
      "velocity": 113,
      "chip": "ym2612"
    },
    {
      "channel": 1,
      "note": 85,
      "start": 45.9259,
      "duration": 1.0084,
      "velocity": 104,
      "chip": "ym2612"
    },
    {
      "channel": 5,
      "note": 73,
      "start": 45.9315,
      "duration": 1.0083,
      "velocity": 116,
      "chip": "ym2612"
    },
    {
      "channel": 0,
      "note": 60,
      "start": 46.9339,
      "duration": 0.1691,
      "velocity": 113,
      "chip": "ym2612"
    },
    {
      "channel": 1,
      "note": 84,
      "start": 46.939,
      "duration": 0.1691,
      "velocity": 104,
      "chip": "ym2612"
    },
    {
      "channel": 5,
      "note": 72,
      "start": 46.9445,
      "duration": 0.1691,
      "velocity": 116,
      "chip": "ym2612"
    },
    {
      "channel": 0,
      "note": 61,
      "start": 47.1077,
      "duration": 0.159,
      "velocity": 113,
      "chip": "ym2612"
    },
    {
      "channel": 1,
      "note": 85,
      "start": 47.1129,
      "duration": 0.159,
      "velocity": 104,
      "chip": "ym2612"
    },
    {
      "channel": 5,
      "note": 73,
      "start": 47.1184,
      "duration": 0.1588,
      "velocity": 116,
      "chip": "ym2612"
    },
    {
      "channel": 0,
      "note": 63,
      "start": 47.2714,
      "duration": 1.5406,
      "velocity": 113,
      "chip": "ym2612"
    },
    {
      "channel": 1,
      "note": 87,
      "start": 47.2766,
      "duration": 1.5363,
      "velocity": 104,
      "chip": "ym2612"
    },
    {
      "channel": 5,
      "note": 75,
      "start": 47.2822,
      "duration": 1.5317,
      "velocity": 116,
      "chip": "ym2612"
    },
    {
      "channel": 0,
      "note": 56,
      "start": 49.1338,
      "duration": 0.8343,
      "velocity": 113,
      "chip": "ym2612"
    },
    {
      "channel": 1,
      "note": 80,
      "start": 49.139,
      "duration": 0.8343,
      "velocity": 104,
      "chip": "ym2612"
    },
    {
      "channel": 5,
      "note": 68,
      "start": 49.1444,
      "duration": 0.8342,
      "velocity": 116,
      "chip": "ym2612"
    },
    {
      "channel": 0,
      "note": 68,
      "start": 49.9728,
      "duration": 0.8241,
      "velocity": 113,
      "chip": "ym2612"
    },
    {
      "channel": 1,
      "note": 92,
      "start": 49.9779,
      "duration": 0.8242,
      "velocity": 104,
      "chip": "ym2612"
    },
    {
      "channel": 5,
      "note": 80,
      "start": 49.9835,
      "duration": 0.8241,
      "velocity": 116,
      "chip": "ym2612"
    },
    {
      "channel": 0,
      "note": 67,
      "start": 50.8017,
      "duration": 0.21,
      "velocity": 113,
      "chip": "ym2612"
    },
    {
      "channel": 1,
      "note": 91,
      "start": 50.8069,
      "duration": 0.2102,
      "velocity": 104,
      "chip": "ym2612"
    },
    {
      "channel": 5,
      "note": 79,
      "start": 50.8124,
      "duration": 0.2101,
      "velocity": 116,
      "chip": "ym2612"
    },
    {
      "channel": 0,
      "note": 63,
      "start": 51.0166,
      "duration": 0.21,
      "velocity": 113,
      "chip": "ym2612"
    },
    {
      "channel": 1,
      "note": 87,
      "start": 51.0218,
      "duration": 0.2102,
      "velocity": 104,
      "chip": "ym2612"
    },
    {
      "channel": 5,
      "note": 75,
      "start": 51.0273,
      "duration": 0.2101,
      "velocity": 116,
      "chip": "ym2612"
    },
    {
      "channel": 0,
      "note": 56,
      "start": 51.2315,
      "duration": 1.1412,
      "velocity": 113,
      "chip": "ym2612"
    },
    {
      "channel": 1,
      "note": 80,
      "start": 51.2367,
      "duration": 1.1412,
      "velocity": 104,
      "chip": "ym2612"
    },
    {
      "channel": 5,
      "note": 68,
      "start": 51.2421,
      "duration": 1.1412,
      "velocity": 116,
      "chip": "ym2612"
    },
    {
      "channel": 0,
      "note": 58,
      "start": 52.3774,
      "duration": 2.2464,
      "velocity": 113,
      "chip": "ym2612"
    },
    {
      "channel": 1,
      "note": 82,
      "start": 52.3827,
      "duration": 2.2463,
      "velocity": 104,
      "chip": "ym2612"
    },
    {
      "channel": 5,
      "note": 70,
      "start": 52.3881,
      "duration": 2.2464,
      "velocity": 116,
      "chip": "ym2612"
    },
    {
      "channel": 0,
      "note": 51,
      "start": 54.6285,
      "duration": 0.6604,
      "velocity": 113,
      "chip": "ym2612"
    },
    {
      "channel": 1,
      "note": 75,
      "start": 54.6338,
      "duration": 0.6603,
      "velocity": 104,
      "chip": "ym2612"
    },
    {
      "channel": 5,
      "note": 63,
      "start": 54.6393,
      "duration": 0.6604,
      "velocity": 116,
      "chip": "ym2612"
    },
    {
      "channel": 0,
      "note": 49,
      "start": 55.2937,
      "duration": 1.0799,
      "velocity": 113,
      "chip": "ym2612"
    },
    {
      "channel": 1,
      "note": 73,
      "start": 55.2989,
      "duration": 1.0798,
      "velocity": 104,
      "chip": "ym2612"
    },
    {
      "channel": 5,
      "note": 61,
      "start": 55.3044,
      "duration": 1.0798,
      "velocity": 116,
      "chip": "ym2612"
    },
    {
      "channel": 0,
      "note": 56,
      "start": 56.3783,
      "duration": 0.1797,
      "velocity": 113,
      "chip": "ym2612"
    },
    {
      "channel": 1,
      "note": 80,
      "start": 56.3835,
      "duration": 0.1753,
      "velocity": 104,
      "chip": "ym2612"
    },
    {
      "channel": 5,
      "note": 68,
      "start": 56.389,
      "duration": 0.1708,
      "velocity": 116,
      "chip": "ym2612"
    },
    {
      "channel": 0,
      "note": 56,
      "start": 56.675,
      "duration": 3.7202,
      "velocity": 113,
      "chip": "ym2612"
    },
    {
      "channel": 1,
      "note": 80,
      "start": 56.6802,
      "duration": 3.7158,
      "velocity": 104,
      "chip": "ym2612"
    },
    {
      "channel": 5,
      "note": 68,
      "start": 56.6858,
      "duration": 3.7135,
      "velocity": 116,
      "chip": "ym2612"
    }
  ]
}