{
  "track_name": "16 - With Lightning Speed",
  "duration_sec": 31.966,
  "sample_rate": 44100,
  "note_count": 337,
  "unique_pitches": 30,
  "pitch_range": 69,
  "avg_note_duration": 0.1481,
  "reconstruction_stats": {
    "notes_reconstructed": 337,
    "keyon_events": 337,
    "keyoff_events": 336,
    "orphan_keyons": 1,
    "unique_pitches": 30,
    "pitch_range": 69,
    "avg_duration_sec": 0.1481
  },
  "metadata": {
    "source": "R\\Romance of the Three Kingdoms III\\16 - With Lightning Speed.vgz"
  },
  "notes": [
    {
      "channel": 0,
      "note": 85,
      "start": 0.0304,
      "duration": 0.1661,
      "velocity": 97,
      "chip": "ym2612"
    },
    {
      "channel": 1,
      "note": 61,
      "start": 0.0312,
      "duration": 0.1656,
      "velocity": 99,
      "chip": "ym2612"
    },
    {
      "channel": 2,
      "note": 33,
      "start": 0.0319,
      "duration": 0.0498,
      "velocity": 101,
      "chip": "ym2612"
    },
    {
      "channel": 0,
      "note": 84,
      "start": 0.1984,
      "duration": 0.1649,
      "velocity": 97,
      "chip": "ym2612"
    },
    {
      "channel": 1,
      "note": 60,
      "start": 0.2138,
      "duration": 0.1496,
      "velocity": 99,
      "chip": "ym2612"
    },
    {
      "channel": 2,
      "note": 33,
      "start": 0.2144,
      "duration": 0.0824,
      "velocity": 101,
      "chip": "ym2612"
    },
    {
      "channel": 0,
      "note": 83,
      "start": 0.3804,
      "duration": 0.1506,
      "velocity": 97,
      "chip": "ym2612"
    },
    {
      "channel": 2,
      "note": 33,
      "start": 0.381,
      "duration": 0.0835,
      "velocity": 101,
      "chip": "ym2612"
    },
    {
      "channel": 1,
      "note": 59,
      "start": 0.3828,
      "duration": 0.165,
      "velocity": 99,
      "chip": "ym2612"
    },
    {
      "channel": 0,
      "note": 90,
      "start": 0.5637,
      "duration": 0.0829,
      "velocity": 97,
      "chip": "ym2612"
    },
    {
      "channel": 1,
      "note": 58,
      "start": 0.5645,
      "duration": 0.0988,
      "velocity": 99,
      "chip": "ym2612"
    },
    {
      "channel": 2,
      "note": 33,
      "start": 0.5651,
      "duration": 0.115,
      "velocity": 101,
      "chip": "ym2612"
    },
    {
      "channel": 0,
      "note": 89,
      "start": 0.9137,
      "duration": 0.1173,
      "velocity": 97,
      "chip": "ym2612"
    },
    {
      "channel": 1,
      "note": 57,
      "start": 0.9145,
      "duration": 0.1489,
      "velocity": 99,
      "chip": "ym2612"
    },
    {
      "channel": 2,
      "note": 33,
      "start": 0.9151,
      "duration": 0.0661,
      "velocity": 101,
      "chip": "ym2612"
    },
    {
      "channel": 0,
      "note": 88,
      "start": 1.0815,
      "duration": 0.1495,
      "velocity": 97,
      "chip": "ym2612"
    },
    {
      "channel": 1,
      "note": 56,
      "start": 1.0826,
      "duration": 0.1814,
      "velocity": 99,
      "chip": "ym2612"
    },
    {
      "channel": 2,
      "note": 33,
      "start": 1.0832,
      "duration": 0.0802,
      "velocity": 101,
      "chip": "ym2612"
    },
    {
      "channel": 0,
      "note": 81,
      "start": 1.2637,
      "duration": 0.084,
      "velocity": 97,
      "chip": "ym2612"
    },
    {
      "channel": 1,
      "note": 55,
      "start": 1.2658,
      "duration": 0.1153,
      "velocity": 99,
      "chip": "ym2612"
    },
    {
      "channel": 2,
      "note": 33,
      "start": 1.2663,
      "duration": 0.0653,
      "velocity": 101,
      "chip": "ym2612"
    },
    {
      "channel": 0,
      "note": 80,
      "start": 1.6137,
      "duration": 0.1161,
      "velocity": 97,
      "chip": "ym2612"
    },
    {
      "channel": 2,
      "note": 33,
      "start": 1.6144,
      "duration": 0.0824,
      "velocity": 101,
      "chip": "ym2612"
    },
    {
      "channel": 1,
      "note": 54,
      "start": 1.6161,
      "duration": 0.1151,
      "velocity": 99,
      "chip": "ym2612"
    },
    {
      "channel": 0,
      "note": 79,
      "start": 1.7971,
      "duration": 1.0216,
      "velocity": 97,
      "chip": "ym2612"
    },
    {
      "channel": 1,
      "note": 53,
      "start": 1.7978,
      "duration": 0.9544,
      "velocity": 99,
      "chip": "ym2612"
    },
    {
      "channel": 2,
      "note": 33,
      "start": 1.7984,
      "duration": 0.2328,
      "velocity": 101,
      "chip": "ym2612"
    },
    {
      "channel": 2,
      "note": 33,
      "start": 2.1471,
      "duration": 0.0675,
      "velocity": 101,
      "chip": "ym2612"
    },
    {
      "channel": 2,
      "note": 33,
      "start": 2.3149,
      "duration": 0.0846,
      "velocity": 101,
      "chip": "ym2612"
    },
    {
      "channel": 2,
      "note": 33,
      "start": 2.4971,
      "duration": 0.0663,
      "velocity": 101,
      "chip": "ym2612"
    },
    {
      "channel": 2,
      "note": 33,
      "start": 2.586,
      "duration": 0.066,
      "velocity": 101,
      "chip": "ym2612"
    },
    {
      "channel": 2,
      "note": 33,
      "start": 2.6804,
      "duration": 0.0382,
      "velocity": 101,
      "chip": "ym2612"
    },
    {
      "channel": 0,
      "note": 85,
      "start": 2.8476,
      "duration": 0.2656,
      "velocity": 97,
      "chip": "ym2612"
    },
    {
      "channel": 1,
      "note": 49,
      "start": 2.8527,
      "duration": 0.1774,
      "velocity": 99,
      "chip": "ym2612"
    },
    {
      "channel": 2,
      "note": 21,
      "start": 2.8534,
      "duration": 0.1616,
      "velocity": 101,
      "chip": "ym2612"
    },
    {
      "channel": 1,
      "note": 61,
      "start": 3.0305,
      "duration": 0.1173,
      "velocity": 99,
      "chip": "ym2612"
    },
    {
      "channel": 2,
      "note": 33,
      "start": 3.1983,
      "duration": 0.1662,
      "velocity": 101,
      "chip": "ym2612"
    },
    {
      "channel": 1,
      "note": 59,
      "start": 3.2138,
      "duration": 0.1162,
      "velocity": 99,
      "chip": "ym2612"
    },
    {
      "channel": 2,
      "note": 21,
      "start": 3.5525,
      "duration": 0.0828,
      "velocity": 101,
      "chip": "ym2612"
    },
    {
      "channel": 1,
      "note": 59,
      "start": 3.5637,
      "duration": 0.133,
      "velocity": 99,
      "chip": "ym2612"
    },
    {
      "channel": 1,
      "note": 58,
      "start": 3.7305,
      "duration": 0.1662,
      "velocity": 99,
      "chip": "ym2612"
    },
    {
      "channel": 2,
      "note": 21,
      "start": 3.731,
      "duration": 0.099,
      "velocity": 101,
      "chip": "ym2612"
    },
    {
      "channel": 1,
      "note": 59,
      "start": 3.9138,
      "duration": 0.1559,
      "velocity": 99,
      "chip": "ym2612"
    },
    {
      "channel": 2,
      "note": 33,
      "start": 3.9145,
      "duration": 0.172,
      "velocity": 101,
      "chip": "ym2612"
    },
    {
      "channel": 1,
      "note": 61,
      "start": 4.0859,
      "duration": 0.1441,
      "velocity": 99,
      "chip": "ym2612"
    },
    {
      "channel": 1,
      "note": 49,
      "start": 4.269,
      "duration": 0.1443,
      "velocity": 99,
      "chip": "ym2612"
    },
    {
      "channel": 2,
      "note": 21,
      "start": 4.2698,
      "duration": 0.077,
      "velocity": 101,
      "chip": "ym2612"
    },
    {
      "channel": 1,
      "note": 61,
      "start": 4.4357,
      "duration": 0.1329,
      "velocity": 99,
      "chip": "ym2612"
    },
    {
      "channel": 1,
      "note": 59,
      "start": 4.6138,
      "duration": 0.1226,
      "velocity": 99,
      "chip": "ym2612"
    },
    {
      "channel": 2,
      "note": 33,
      "start": 4.6145,
      "duration": 0.1221,
      "velocity": 101,
      "chip": "ym2612"
    },
    {
      "channel": 2,
      "note": 21,
      "start": 4.9691,
      "duration": 0.0662,
      "velocity": 101,
      "chip": "ym2612"
    },
    {
      "channel": 1,
      "note": 59,
      "start": 4.97,
      "duration": 0.1487,
      "velocity": 99,
      "chip": "ym2612"
    },
    {
      "channel": 1,
      "note": 56,
      "start": 5.1525,
      "duration": 0.1494,
      "velocity": 99,
      "chip": "ym2612"
    },
    {
      "channel": 2,
      "note": 21,
      "start": 5.153,
      "duration": 0.0771,
      "velocity": 101,
      "chip": "ym2612"
    },
    {
      "channel": 2,
      "note": 33,
      "start": 5.3191,
      "duration": 0.1996,
      "velocity": 101,
      "chip": "ym2612"
    },
    {
      "channel": 1,
      "note": 58,
      "start": 5.3305,
      "duration": 0.1495,
      "velocity": 99,
      "chip": "ym2612"
    },
    {
      "channel": 1,
      "note": 59,
      "start": 5.4971,
      "duration": 0.1495,
      "velocity": 99,
      "chip": "ym2612"
    },
    {
      "channel": 2,
      "note": 21,
      "start": 5.6707,
      "duration": 0.098,
      "velocity": 101,
      "chip": "ym2612"
    },
    {
      "channel": 1,
      "note": 49,
      "start": 5.6805,
      "duration": 0.1329,
      "velocity": 99,
      "chip": "ym2612"
    },
    {
      "channel": 1,
      "note": 61,
      "start": 5.8471,
      "duration": 0.1495,
      "velocity": 99,
      "chip": "ym2612"
    },
    {
      "channel": 1,
      "note": 59,
      "start": 6.0305,
      "duration": 0.1329,
      "velocity": 99,
      "chip": "ym2612"
    },
    {
      "channel": 2,
      "note": 33,
      "start": 6.0312,
      "duration": 0.1156,
      "velocity": 101,
      "chip": "ym2612"
    },
    {
      "channel": 1,
      "note": 59,
      "start": 6.3856,
      "duration": 0.133,
      "velocity": 99,
      "chip": "ym2612"
    },
    {
      "channel": 2,
      "note": 21,
      "start": 6.3863,
      "duration": 0.0657,
      "velocity": 101,
      "chip": "ym2612"
    },
    {
      "channel": 2,
      "note": 21,
      "start": 6.5524,
      "duration": 0.0829,
      "velocity": 101,
      "chip": "ym2612"
    },
    {
      "channel": 1,
      "note": 58,
      "start": 6.5638,
      "duration": 0.1495,
      "velocity": 99,
      "chip": "ym2612"
    },
    {
      "channel": 1,
      "note": 59,
      "start": 6.7305,
      "duration": 0.1495,
      "velocity": 99,
      "chip": "ym2612"
    },
    {
      "channel": 2,
      "note": 33,
      "start": 6.7312,
      "duration": 0.1829,
      "velocity": 101,
      "chip": "ym2612"
    },
    {
      "channel": 1,
      "note": 61,
      "start": 6.9138,
      "duration": 0.1214,
      "velocity": 99,
      "chip": "ym2612"
    },
    {
      "channel": 1,
      "note": 49,
      "start": 7.0861,
      "duration": 0.1492,
      "velocity": 99,
      "chip": "ym2612"
    },
    {
      "channel": 2,
      "note": 21,
      "start": 7.0868,
      "duration": 0.0986,
      "velocity": 101,
      "chip": "ym2612"
    },
    {
      "channel": 1,
      "note": 61,
      "start": 7.2702,
      "duration": 0.1431,
      "velocity": 99,
      "chip": "ym2612"
    },
    {
      "channel": 2,
      "note": 33,
      "start": 7.4357,
      "duration": 0.1007,
      "velocity": 101,
      "chip": "ym2612"
    },
    {
      "channel": 1,
      "note": 59,
      "start": 7.4471,
      "duration": 0.1329,
      "velocity": 99,
      "chip": "ym2612"
    },
    {
      "channel": 2,
      "note": 21,
      "start": 7.7858,
      "duration": 0.082,
      "velocity": 101,
      "chip": "ym2612"
    },
    {
      "channel": 1,
      "note": 59,
      "start": 7.797,
      "duration": 0.1394,
      "velocity": 99,
      "chip": "ym2612"
    },
    {
      "channel": 2,
      "note": 21,
      "start": 7.969,
      "duration": 0.0663,
      "velocity": 101,
      "chip": "ym2612"
    },
    {
      "channel": 1,
      "note": 56,
      "start": 7.9699,
      "duration": 0.1645,
      "velocity": 99,
      "chip": "ym2612"
    },
    {
      "channel": 1,
      "note": 58,
      "start": 8.1525,
      "duration": 0.1328,
      "velocity": 99,
      "chip": "ym2612"
    },
    {
      "channel": 2,
      "note": 33,
      "start": 8.1532,
      "duration": 0.0602,
      "velocity": 101,
      "chip": "ym2612"
    },
    {
      "channel": 2,
      "note": 33,
      "start": 8.319,
      "duration": 0.0331,
      "velocity": 101,
      "chip": "ym2612"
    },
    {
      "channel": 1,
      "note": 59,
      "start": 8.3305,
      "duration": 0.1162,
      "velocity": 99,
      "chip": "ym2612"
    },
    {
      "channel": 2,
      "note": 33,
      "start": 8.4018,
      "duration": 0.0616,
      "velocity": 101,
      "chip": "ym2612"
    },
    {
      "channel": 0,
      "note": 73,
      "start": 8.5037,
      "duration": 0.1445,
      "velocity": 97,
      "chip": "ym2612"
    },
    {
      "channel": 1,
      "note": 49,
      "start": 8.5044,
      "duration": 0.1422,
      "velocity": 99,
      "chip": "ym2612"
    },
    {
      "channel": 2,
      "note": 21,
      "start": 8.5051,
      "duration": 0.1916,
      "velocity": 101,
      "chip": "ym2612"
    },
    {
      "channel": 0,
      "note": 76,
      "start": 8.6804,
      "duration": 0.1507,
      "velocity": 97,
      "chip": "ym2612"
    },
    {
      "channel": 1,
      "note": 61,
      "start": 8.6812,
      "duration": 0.1489,
      "velocity": 99,
      "chip": "ym2612"
    },
    {
      "channel": 0,
      "note": 80,
      "start": 8.8471,
      "duration": 0.1673,
      "velocity": 97,
      "chip": "ym2612"
    },
    {
      "channel": 1,
      "note": 59,
      "start": 8.8495,
      "duration": 0.1483,
      "velocity": 99,
      "chip": "ym2612"
    },
    {
      "channel": 2,
      "note": 33,
      "start": 8.8502,
      "duration": 0.0798,
      "velocity": 101,
      "chip": "ym2612"
    },
    {
      "channel": 0,
      "note": 83,
      "start": 9.0304,
      "duration": 0.1495,
      "velocity": 97,
      "chip": "ym2612"
    },
    {
      "channel": 1,
      "note": 59,
      "start": 9.1981,
      "duration": 0.1652,
      "velocity": 99,
      "chip": "ym2612"
    },
    {
      "channel": 0,
      "note": 82,
      "start": 9.2137,
      "duration": 0.3011,
      "velocity": 97,
      "chip": "ym2612"
    },
    {
      "channel": 2,
      "note": 21,
      "start": 9.2146,
      "duration": 0.0655,
      "velocity": 101,
      "chip": "ym2612"
    },
    {
      "channel": 1,
      "note": 58,
      "start": 9.3816,
      "duration": 0.1484,
      "velocity": 99,
      "chip": "ym2612"
    },
    {
      "channel": 2,
      "note": 21,
      "start": 9.3822,
      "duration": 0.0812,
      "velocity": 101,
      "chip": "ym2612"
    },
    {
      "channel": 2,
      "note": 33,
      "start": 9.5483,
      "duration": 0.1497,
      "velocity": 101,
      "chip": "ym2612"
    },
    {
      "channel": 0,
      "note": 78,
      "start": 9.5637,
      "duration": 0.1511,
      "velocity": 97,
      "chip": "ym2612"
    },
    {
      "channel": 1,
      "note": 59,
      "start": 9.5644,
      "duration": 0.1322,
      "velocity": 99,
      "chip": "ym2612"
    },
    {
      "channel": 1,
      "note": 61,
      "start": 9.7305,
      "duration": 0.1173,
      "velocity": 99,
      "chip": "ym2612"
    },
    {
      "channel": 0,
      "note": 80,
      "start": 9.7326,
      "duration": 0.2319,
      "velocity": 97,
      "chip": "ym2612"
    },
    {
      "channel": 1,
      "note": 49,
      "start": 9.9138,
      "duration": 0.1162,
      "velocity": 99,
      "chip": "ym2612"
    },
    {
      "channel": 2,
      "note": 21,
      "start": 9.9145,
      "duration": 0.1005,
      "velocity": 101,
      "chip": "ym2612"
    },
    {
      "channel": 1,
      "note": 61,
      "start": 10.0816,
      "duration": 0.1495,
      "velocity": 99,
      "chip": "ym2612"
    },
    {
      "channel": 0,
      "note": 76,
      "start": 10.0831,
      "duration": 0.1646,
      "velocity": 97,
      "chip": "ym2612"
    },
    {
      "channel": 2,
      "note": 33,
      "start": 10.2639,
      "duration": 0.0996,
      "velocity": 101,
      "chip": "ym2612"
    },
    {
      "channel": 1,
      "note": 59,
      "start": 10.2656,
      "duration": 0.1644,
      "velocity": 99,
      "chip": "ym2612"
    },
    {
      "channel": 0,
      "note": 78,
      "start": 10.4471,
      "duration": 0.1006,
      "velocity": 97,
      "chip": "ym2612"
    },
    {
      "channel": 0,
      "note": 75,
      "start": 10.6148,
      "duration": 0.1163,
      "velocity": 97,
      "chip": "ym2612"
    },
    {
      "channel": 1,
      "note": 59,
      "start": 10.6155,
      "duration": 0.1479,
      "velocity": 99,
      "chip": "ym2612"
    },
    {
      "channel": 2,
      "note": 21,
      "start": 10.6161,
      "duration": 0.0651,
      "velocity": 101,
      "chip": "ym2612"
    },
    {
      "channel": 2,
      "note": 21,
      "start": 10.7815,
      "duration": 0.082,
      "velocity": 101,
      "chip": "ym2612"
    },
    {
      "channel": 0,
      "note": 75,
      "start": 10.7969,
      "duration": 0.1012,
      "velocity": 97,
      "chip": "ym2612"
    },
    {
      "channel": 1,
      "note": 56,
      "start": 10.7976,
      "duration": 0.1501,
      "velocity": 99,
      "chip": "ym2612"
    },
    {
      "channel": 1,
      "note": 58,
      "start": 10.9649,
      "duration": 0.1496,
      "velocity": 99,
      "chip": "ym2612"
    },
    {
      "channel": 2,
      "note": 33,
      "start": 10.9656,
      "duration": 0.1644,
      "velocity": 101,
      "chip": "ym2612"
    },
    {
      "channel": 0,
      "note": 76,
      "start": 10.9666,
      "duration": 0.3311,
      "velocity": 97,
      "chip": "ym2612"
    },
    {
      "channel": 1,
      "note": 59,
      "start": 11.1471,
      "duration": 0.134,
      "velocity": 99,
      "chip": "ym2612"
    },
    {
      "channel": 1,
      "note": 49,
      "start": 11.3152,
      "duration": 0.1493,
      "velocity": 99,
      "chip": "ym2612"
    },
    {
      "channel": 2,
      "note": 21,
      "start": 11.3159,
      "duration": 0.0975,
      "velocity": 101,
      "chip": "ym2612"
    },
    {
      "channel": 1,
      "note": 61,
      "start": 11.4982,
      "duration": 0.1538,
      "velocity": 99,
      "chip": "ym2612"
    },
    {
      "channel": 2,
      "note": 33,
      "start": 11.6693,
      "duration": 0.0993,
      "velocity": 101,
      "chip": "ym2612"
    },
    {
      "channel": 1,
      "note": 59,
      "start": 11.6805,
      "duration": 0.1495,
      "velocity": 99,
      "chip": "ym2612"
    },
    {
      "channel": 2,
      "note": 21,
      "start": 12.0196,
      "duration": 0.0823,
      "velocity": 101,
      "chip": "ym2612"
    },
    {
      "channel": 1,
      "note": 59,
      "start": 12.0303,
      "duration": 0.1497,
      "velocity": 99,
      "chip": "ym2612"
    },
    {
      "channel": 1,
      "note": 58,
      "start": 12.2025,
      "duration": 0.1495,
      "velocity": 99,
      "chip": "ym2612"
    },
    {
      "channel": 2,
      "note": 21,
      "start": 12.2031,
      "duration": 0.077,
      "velocity": 101,
      "chip": "ym2612"
    },
    {
      "channel": 2,
      "note": 33,
      "start": 12.3805,
      "duration": 0.1722,
      "velocity": 101,
      "chip": "ym2612"
    },
    {
      "channel": 1,
      "note": 59,
      "start": 12.3864,
      "duration": 0.1436,
      "velocity": 99,
      "chip": "ym2612"
    },
    {
      "channel": 1,
      "note": 61,
      "start": 12.5525,
      "duration": 0.1276,
      "velocity": 99,
      "chip": "ym2612"
    },
    {
      "channel": 1,
      "note": 49,
      "start": 12.7367,
      "duration": 0.1266,
      "velocity": 99,
      "chip": "ym2612"
    },
    {
      "channel": 2,
      "note": 21,
      "start": 12.7374,
      "duration": 0.0978,
      "velocity": 101,
      "chip": "ym2612"
    },
    {
      "channel": 1,
      "note": 61,
      "start": 12.9027,
      "duration": 0.1494,
      "velocity": 99,
      "chip": "ym2612"
    },
    {
      "channel": 1,
      "note": 59,
      "start": 13.0858,
      "duration": 0.1442,
      "velocity": 99,
      "chip": "ym2612"
    },
    {
      "channel": 2,
      "note": 33,
      "start": 13.0866,
      "duration": 0.1102,
      "velocity": 101,
      "chip": "ym2612"
    },
    {
      "channel": 1,
      "note": 59,
      "start": 13.4355,
      "duration": 0.1666,
      "velocity": 99,
      "chip": "ym2612"
    },
    {
      "channel": 2,
      "note": 21,
      "start": 13.4362,
      "duration": 0.0826,
      "velocity": 101,
      "chip": "ym2612"
    },
    {
      "channel": 1,
      "note": 58,
      "start": 13.6191,
      "duration": 0.1442,
      "velocity": 99,
      "chip": "ym2612"
    },
    {
      "channel": 2,
      "note": 21,
      "start": 13.6197,
      "duration": 0.0771,
      "velocity": 101,
      "chip": "ym2612"
    },
    {
      "channel": 2,
      "note": 33,
      "start": 13.7859,
      "duration": 0.1276,
      "velocity": 101,
      "chip": "ym2612"
    },
    {
      "channel": 1,
      "note": 59,
      "start": 13.7971,
      "duration": 0.1383,
      "velocity": 99,
      "chip": "ym2612"
    },
    {
      "channel": 1,
      "note": 61,
      "start": 13.9693,
      "duration": 0.1164,
      "velocity": 99,
      "chip": "ym2612"
    },
    {
      "channel": 0,
      "note": 73,
      "start": 14.1511,
      "duration": 0.13,
      "velocity": 97,
      "chip": "ym2612"
    },
    {
      "channel": 1,
      "note": 45,
      "start": 14.1518,
      "duration": 0.1294,
      "velocity": 99,
      "chip": "ym2612"
    },
    {
      "channel": 2,
      "note": 21,
      "start": 14.1525,
      "duration": 0.0954,
      "velocity": 101,
      "chip": "ym2612"
    },
    {
      "channel": 0,
      "note": 76,
      "start": 14.3148,
      "duration": 0.1497,
      "velocity": 97,
      "chip": "ym2612"
    },
    {
      "channel": 1,
      "note": 57,
      "start": 14.3305,
      "duration": 0.1329,
      "velocity": 99,
      "chip": "ym2612"
    },
    {
      "channel": 0,
      "note": 79,
      "start": 14.4981,
      "duration": 0.1496,
      "velocity": 97,
      "chip": "ym2612"
    },
    {
      "channel": 1,
      "note": 55,
      "start": 14.4989,
      "duration": 0.1662,
      "velocity": 99,
      "chip": "ym2612"
    },
    {
      "channel": 2,
      "note": 33,
      "start": 14.4996,
      "duration": 0.0821,
      "velocity": 101,
      "chip": "ym2612"
    },
    {
      "channel": 0,
      "note": 83,
      "start": 14.6649,
      "duration": 0.1484,
      "velocity": 97,
      "chip": "ym2612"
    },
    {
      "channel": 0,
      "note": 81,
      "start": 14.8481,
      "duration": 0.3484,
      "velocity": 97,
      "chip": "ym2612"
    },
    {
      "channel": 1,
      "note": 55,
      "start": 14.8488,
      "duration": 0.1646,
      "velocity": 99,
      "chip": "ym2612"
    },
    {
      "channel": 2,
      "note": 21,
      "start": 14.8495,
      "duration": 0.0806,
      "velocity": 101,
      "chip": "ym2612"
    },
    {
      "channel": 2,
      "note": 21,
      "start": 15.0154,
      "duration": 0.0814,
      "velocity": 101,
      "chip": "ym2612"
    },
    {
      "channel": 1,
      "note": 54,
      "start": 15.0305,
      "duration": 0.3162,
      "velocity": 99,
      "chip": "ym2612"
    },
    {
      "channel": 0,
      "note": 78,
      "start": 15.2137,
      "duration": 0.1507,
      "velocity": 97,
      "chip": "ym2612"
    },
    {
      "channel": 2,
      "note": 33,
      "start": 15.2146,
      "duration": 0.0833,
      "velocity": 101,
      "chip": "ym2612"
    },
    {
      "channel": 1,
      "note": 57,
      "start": 15.3805,
      "duration": 0.134,
      "velocity": 99,
      "chip": "ym2612"
    },
    {
      "channel": 0,
      "note": 79,
      "start": 15.3822,
      "duration": 0.1811,
      "velocity": 97,
      "chip": "ym2612"
    },
    {
      "channel": 2,
      "note": 21,
      "start": 15.5487,
      "duration": 0.1147,
      "velocity": 101,
      "chip": "ym2612"
    },
    {
      "channel": 1,
      "note": 45,
      "start": 15.5639,
      "duration": 0.1339,
      "velocity": 99,
      "chip": "ym2612"
    },
    {
      "channel": 0,
      "note": 76,
      "start": 15.7315,
      "duration": 0.1817,
      "velocity": 97,
      "chip": "ym2612"
    },
    {
      "channel": 1,
      "note": 57,
      "start": 15.7322,
      "duration": 0.1489,
      "velocity": 99,
      "chip": "ym2612"
    },
    {
      "channel": 2,
      "note": 33,
      "start": 15.8987,
      "duration": 0.098,
      "velocity": 101,
      "chip": "ym2612"
    },
    {
      "channel": 1,
      "note": 55,
      "start": 15.9139,
      "duration": 0.1495,
      "velocity": 99,
      "chip": "ym2612"
    },
    {
      "channel": 0,
      "note": 78,
      "start": 16.0819,
      "duration": 0.1158,
      "velocity": 97,
      "chip": "ym2612"
    },
    {
      "channel": 0,
      "note": 75,
      "start": 16.2648,
      "duration": 0.1162,
      "velocity": 97,
      "chip": "ym2612"
    },
    {
      "channel": 1,
      "note": 55,
      "start": 16.2655,
      "duration": 0.1479,
      "velocity": 99,
      "chip": "ym2612"
    },
    {
      "channel": 2,
      "note": 21,
      "start": 16.2661,
      "duration": 0.0651,
      "velocity": 101,
      "chip": "ym2612"
    },
    {
      "channel": 1,
      "note": 52,
      "start": 16.4315,
      "duration": 0.1496,
      "velocity": 99,
      "chip": "ym2612"
    },
    {
      "channel": 2,
      "note": 21,
      "start": 16.4321,
      "duration": 0.0813,
      "velocity": 101,
      "chip": "ym2612"
    },
    {
      "channel": 0,
      "note": 75,
      "start": 16.4469,
      "duration": 0.1008,
      "velocity": 97,
      "chip": "ym2612"
    },
    {
      "channel": 0,
      "note": 76,
      "start": 16.6148,
      "duration": 0.3485,
      "velocity": 97,
      "chip": "ym2612"
    },
    {
      "channel": 1,
      "note": 54,
      "start": 16.6156,
      "duration": 0.1489,
      "velocity": 99,
      "chip": "ym2612"
    },
    {
      "channel": 2,
      "note": 33,
      "start": 16.6163,
      "duration": 0.0983,
      "velocity": 101,
      "chip": "ym2612"
    },
    {
      "channel": 1,
      "note": 55,
      "start": 16.7816,
      "duration": 0.1484,
      "velocity": 99,
      "chip": "ym2612"
    },
    {
      "channel": 1,
      "note": 45,
      "start": 16.9663,
      "duration": 0.1315,
      "velocity": 99,
      "chip": "ym2612"
    },
    {
      "channel": 2,
      "note": 21,
      "start": 16.967,
      "duration": 0.0964,
      "velocity": 101,
      "chip": "ym2612"
    },
    {
      "channel": 1,
      "note": 57,
      "start": 17.1471,
      "duration": 0.1162,
      "velocity": 99,
      "chip": "ym2612"
    },
    {
      "channel": 1,
      "note": 55,
      "start": 17.3192,
      "duration": 0.1499,
      "velocity": 99,
      "chip": "ym2612"
    },
    {
      "channel": 2,
      "note": 33,
      "start": 17.3199,
      "duration": 0.0935,
      "velocity": 101,
      "chip": "ym2612"
    },
    {
      "channel": 1,
      "note": 55,
      "start": 17.669,
      "duration": 0.1495,
      "velocity": 99,
      "chip": "ym2612"
    },
    {
      "channel": 2,
      "note": 21,
      "start": 17.6697,
      "duration": 0.0822,
      "velocity": 101,
      "chip": "ym2612"
    },
    {
      "channel": 2,
      "note": 21,
      "start": 17.847,
      "duration": 0.0718,
      "velocity": 101,
      "chip": "ym2612"
    },
    {
      "channel": 1,
      "note": 52,
      "start": 17.853,
      "duration": 0.127,
      "velocity": 99,
      "chip": "ym2612"
    },
    {
      "channel": 2,
      "note": 33,
      "start": 18.0194,
      "duration": 0.1107,
      "velocity": 101,
      "chip": "ym2612"
    },
    {
      "channel": 1,
      "note": 54,
      "start": 18.0305,
      "duration": 0.1495,
      "velocity": 99,
      "chip": "ym2612"
    },
    {
      "channel": 1,
      "note": 55,
      "start": 18.2138,
      "duration": 0.1162,
      "velocity": 99,
      "chip": "ym2612"
    },
    {
      "channel": 1,
      "note": 47,
      "start": 18.3807,
      "duration": 0.1385,
      "velocity": 99,
      "chip": "ym2612"
    },
    {
      "channel": 2,
      "note": 21,
      "start": 18.3872,
      "duration": 0.0929,
      "velocity": 101,
      "chip": "ym2612"
    },
    {
      "channel": 1,
      "note": 59,
      "start": 18.5523,
      "duration": 0.1444,
      "velocity": 99,
      "chip": "ym2612"
    },
    {
      "channel": 1,
      "note": 57,
      "start": 18.7358,
      "duration": 0.1666,
      "velocity": 99,
      "chip": "ym2612"
    },
    {
      "channel": 2,
      "note": 33,
      "start": 18.7366,
      "duration": 0.0935,
      "velocity": 101,
      "chip": "ym2612"
    },
    {
      "channel": 1,
      "note": 57,
      "start": 19.0859,
      "duration": 0.1326,
      "velocity": 99,
      "chip": "ym2612"
    },
    {
      "channel": 2,
      "note": 21,
      "start": 19.0866,
      "duration": 0.0658,
      "velocity": 101,
      "chip": "ym2612"
    },
    {
      "channel": 2,
      "note": 21,
      "start": 19.2637,
      "duration": 0.0663,
      "velocity": 101,
      "chip": "ym2612"
    },
    {
      "channel": 1,
      "note": 56,
      "start": 19.2697,
      "duration": 0.3161,
      "velocity": 99,
      "chip": "ym2612"
    },
    {
      "channel": 2,
      "note": 33,
      "start": 19.4364,
      "duration": 0.099,
      "velocity": 101,
      "chip": "ym2612"
    },
    {
      "channel": 1,
      "note": 59,
      "start": 19.6138,
      "duration": 0.1553,
      "velocity": 99,
      "chip": "ym2612"
    },
    {
      "channel": 0,
      "note": 73,
      "start": 19.7858,
      "duration": 0.1619,
      "velocity": 97,
      "chip": "ym2612"
    },
    {
      "channel": 1,
      "note": 49,
      "start": 19.7971,
      "duration": 0.1162,
      "velocity": 99,
      "chip": "ym2612"
    },
    {
      "channel": 2,
      "note": 21,
      "start": 19.7978,
      "duration": 0.0834,
      "velocity": 101,
      "chip": "ym2612"
    },
    {
      "channel": 0,
      "note": 76,
      "start": 19.9653,
      "duration": 0.1646,
      "velocity": 97,
      "chip": "ym2612"
    },
    {
      "channel": 1,
      "note": 61,
      "start": 19.966,
      "duration": 0.1319,
      "velocity": 99,
      "chip": "ym2612"
    },
    {
      "channel": 0,
      "note": 80,
      "start": 20.1488,
      "duration": 0.1478,
      "velocity": 97,
      "chip": "ym2612"
    },
    {
      "channel": 1,
      "note": 59,
      "start": 20.1495,
      "duration": 0.183,
      "velocity": 99,
      "chip": "ym2612"
    },
    {
      "channel": 2,
      "note": 33,
      "start": 20.1502,
      "duration": 0.081,
      "velocity": 101,
      "chip": "ym2612"
    },
    {
      "channel": 0,
      "note": 83,
      "start": 20.3304,
      "duration": 0.168,
      "velocity": 97,
      "chip": "ym2612"
    },
    {
      "channel": 0,
      "note": 82,
      "start": 20.4988,
      "duration": 0.3329,
      "velocity": 97,
      "chip": "ym2612"
    },
    {
      "channel": 1,
      "note": 59,
      "start": 20.4994,
      "duration": 0.1651,
      "velocity": 99,
      "chip": "ym2612"
    },
    {
      "channel": 2,
      "note": 21,
      "start": 20.5001,
      "duration": 0.0633,
      "velocity": 101,
      "chip": "ym2612"
    },
    {
      "channel": 2,
      "note": 21,
      "start": 20.6649,
      "duration": 0.0818,
      "velocity": 101,
      "chip": "ym2612"
    },
    {
      "channel": 1,
      "note": 58,
      "start": 20.6805,
      "duration": 0.1507,
      "velocity": 99,
      "chip": "ym2612"
    },
    {
      "channel": 0,
      "note": 78,
      "start": 20.8488,
      "duration": 0.1645,
      "velocity": 97,
      "chip": "ym2612"
    },
    {
      "channel": 1,
      "note": 59,
      "start": 20.8495,
      "duration": 0.1639,
      "velocity": 99,
      "chip": "ym2612"
    },
    {
      "channel": 2,
      "note": 33,
      "start": 20.8502,
      "duration": 0.0976,
      "velocity": 101,
      "chip": "ym2612"
    },
    {
      "channel": 0,
      "note": 80,
      "start": 21.0304,
      "duration": 0.1661,
      "velocity": 97,
      "chip": "ym2612"
    },
    {
      "channel": 1,
      "note": 61,
      "start": 21.0312,
      "duration": 0.1167,
      "velocity": 99,
      "chip": "ym2612"
    },
    {
      "channel": 1,
      "note": 49,
      "start": 21.2138,
      "duration": 0.0995,
      "velocity": 99,
      "chip": "ym2612"
    },
    {
      "channel": 2,
      "note": 21,
      "start": 21.2145,
      "duration": 0.0667,
      "velocity": 101,
      "chip": "ym2612"
    },
    {
      "channel": 1,
      "note": 61,
      "start": 21.3805,
      "duration": 0.1495,
      "velocity": 99,
      "chip": "ym2612"
    },
    {
      "channel": 0,
      "note": 76,
      "start": 21.3822,
      "duration": 0.1811,
      "velocity": 97,
      "chip": "ym2612"
    },
    {
      "channel": 1,
      "note": 59,
      "start": 21.5639,
      "duration": 0.1339,
      "velocity": 99,
      "chip": "ym2612"
    },
    {
      "channel": 2,
      "note": 33,
      "start": 21.5646,
      "duration": 0.0821,
      "velocity": 101,
      "chip": "ym2612"
    },
    {
      "channel": 0,
      "note": 78,
      "start": 21.7321,
      "duration": 0.1144,
      "velocity": 97,
      "chip": "ym2612"
    },
    {
      "channel": 1,
      "note": 59,
      "start": 21.8985,
      "duration": 0.166,
      "velocity": 99,
      "chip": "ym2612"
    },
    {
      "channel": 2,
      "note": 21,
      "start": 21.8992,
      "duration": 0.0809,
      "velocity": 101,
      "chip": "ym2612"
    },
    {
      "channel": 0,
      "note": 75,
      "start": 21.9137,
      "duration": 0.1007,
      "velocity": 97,
      "chip": "ym2612"
    },
    {
      "channel": 0,
      "note": 75,
      "start": 22.0818,
      "duration": 0.1315,
      "velocity": 97,
      "chip": "ym2612"
    },
    {
      "channel": 1,
      "note": 56,
      "start": 22.0825,
      "duration": 0.1475,
      "velocity": 99,
      "chip": "ym2612"
    },
    {
      "channel": 2,
      "note": 21,
      "start": 22.0831,
      "duration": 0.0648,
      "velocity": 101,
      "chip": "ym2612"
    },
    {
      "channel": 2,
      "note": 33,
      "start": 22.2639,
      "duration": 0.0829,
      "velocity": 101,
      "chip": "ym2612"
    },
    {
      "channel": 0,
      "note": 76,
      "start": 22.2655,
      "duration": 0.281,
      "velocity": 97,
      "chip": "ym2612"
    },
    {
      "channel": 1,
      "note": 58,
      "start": 22.2663,
      "duration": 0.1471,
      "velocity": 99,
      "chip": "ym2612"
    },
    {
      "channel": 1,
      "note": 59,
      "start": 22.4471,
      "duration": 0.1329,
      "velocity": 99,
      "chip": "ym2612"
    },
    {
      "channel": 2,
      "note": 21,
      "start": 22.6143,
      "duration": 0.0991,
      "velocity": 101,
      "chip": "ym2612"
    },
    {
      "channel": 1,
      "note": 49,
      "start": 22.6161,
      "duration": 0.0988,
      "velocity": 99,
      "chip": "ym2612"
    },
    {
      "channel": 1,
      "note": 61,
      "start": 22.7971,
      "duration": 0.1329,
      "velocity": 99,
      "chip": "ym2612"
    },
    {
      "channel": 2,
      "note": 33,
      "start": 22.9693,
      "duration": 0.0828,
      "velocity": 101,
      "chip": "ym2612"
    },
    {
      "channel": 1,
      "note": 59,
      "start": 22.9703,
      "duration": 0.1431,
      "velocity": 99,
      "chip": "ym2612"
    },
    {
      "channel": 1,
      "note": 59,
      "start": 23.3303,
      "duration": 0.1385,
      "velocity": 99,
      "chip": "ym2612"
    },
    {
      "channel": 2,
      "note": 21,
      "start": 23.331,
      "duration": 0.0657,
      "velocity": 101,
      "chip": "ym2612"
    },
    {
      "channel": 2,
      "note": 21,
      "start": 23.497,
      "duration": 0.0718,
      "velocity": 101,
      "chip": "ym2612"
    },
    {
      "channel": 1,
      "note": 58,
      "start": 23.503,
      "duration": 0.149,
      "velocity": 99,
      "chip": "ym2612"
    },
    {
      "channel": 1,
      "note": 59,
      "start": 23.6805,
      "duration": 0.1382,
      "velocity": 99,
      "chip": "ym2612"
    },
    {
      "channel": 2,
      "note": 33,
      "start": 23.6812,
      "duration": 0.0823,
      "velocity": 101,
      "chip": "ym2612"
    },
    {
      "channel": 1,
      "note": 61,
      "start": 23.8471,
      "duration": 0.1382,
      "velocity": 99,
      "chip": "ym2612"
    },
    {
      "channel": 1,
      "note": 49,
      "start": 24.0198,
      "duration": 0.1436,
      "velocity": 99,
      "chip": "ym2612"
    },
    {
      "channel": 2,
      "note": 21,
      "start": 24.0205,
      "duration": 0.0983,
      "velocity": 101,
      "chip": "ym2612"
    },
    {
      "channel": 1,
      "note": 61,
      "start": 24.2138,
      "duration": 0.1382,
      "velocity": 99,
      "chip": "ym2612"
    },
    {
      "channel": 1,
      "note": 59,
      "start": 24.3805,
      "duration": 0.1386,
      "velocity": 99,
      "chip": "ym2612"
    },
    {
      "channel": 2,
      "note": 33,
      "start": 24.3866,
      "duration": 0.082,
      "velocity": 101,
      "chip": "ym2612"
    },
    {
      "channel": 1,
      "note": 59,
      "start": 24.7303,
      "duration": 0.1497,
      "velocity": 99,
      "chip": "ym2612"
    },
    {
      "channel": 2,
      "note": 21,
      "start": 24.7362,
      "duration": 0.0657,
      "velocity": 101,
      "chip": "ym2612"
    },
    {
      "channel": 0,
      "note": 76,
      "start": 24.9027,
      "duration": 0.145,
      "velocity": 97,
      "chip": "ym2612"
    },
    {
      "channel": 2,
      "note": 33,
      "start": 24.9036,
      "duration": 0.0765,
      "velocity": 101,
      "chip": "ym2612"
    },
    {
      "channel": 1,
      "note": 52,
      "start": 24.9138,
      "duration": 0.1662,
      "velocity": 99,
      "chip": "ym2612"
    },
    {
      "channel": 0,
      "note": 78,
      "start": 25.082,
      "duration": 0.149,
      "velocity": 97,
      "chip": "ym2612"
    },
    {
      "channel": 1,
      "note": 54,
      "start": 25.0828,
      "duration": 0.1639,
      "velocity": 99,
      "chip": "ym2612"
    },
    {
      "channel": 2,
      "note": 33,
      "start": 25.0833,
      "duration": 0.065,
      "velocity": 101,
      "chip": "ym2612"
    },
    {
      "channel": 0,
      "note": 80,
      "start": 25.2643,
      "duration": 0.2834,
      "velocity": 97,
      "chip": "ym2612"
    },
    {
      "channel": 1,
      "note": 56,
      "start": 25.2668,
      "duration": 1.3477,
      "velocity": 99,
      "chip": "ym2612"
    },
    {
      "channel": 2,
      "note": 21,
      "start": 25.2681,
      "duration": 0.2298,
      "velocity": 101,
      "chip": "ym2612"
    },
    {
      "channel": 0,
      "note": 80,
      "start": 25.6142,
      "duration": 0.1507,
      "velocity": 97,
      "chip": "ym2612"
    },
    {
      "channel": 2,
      "note": 21,
      "start": 25.6166,
      "duration": 0.0646,
      "velocity": 101,
      "chip": "ym2612"
    },
    {
      "channel": 0,
      "note": 78,
      "start": 25.7971,
      "duration": 0.1329,
      "velocity": 97,
      "chip": "ym2612"
    },
    {
      "channel": 2,
      "note": 33,
      "start": 25.7979,
      "duration": 0.1155,
      "velocity": 101,
      "chip": "ym2612"
    },
    {
      "channel": 0,
      "note": 75,
      "start": 25.9649,
      "duration": 0.165,
      "velocity": 97,
      "chip": "ym2612"
    },
    {
      "channel": 0,
      "note": 73,
      "start": 26.1471,
      "duration": 0.1661,
      "velocity": 97,
      "chip": "ym2612"
    },
    {
      "channel": 2,
      "note": 21,
      "start": 26.1479,
      "duration": 0.0671,
      "velocity": 101,
      "chip": "ym2612"
    },
    {
      "channel": 0,
      "note": 75,
      "start": 26.3149,
      "duration": 0.1649,
      "velocity": 97,
      "chip": "ym2612"
    },
    {
      "channel": 2,
      "note": 21,
      "start": 26.3304,
      "duration": 0.0341,
      "velocity": 101,
      "chip": "ym2612"
    },
    {
      "channel": 0,
      "note": 78,
      "start": 26.4971,
      "duration": 0.1674,
      "velocity": 97,
      "chip": "ym2612"
    },
    {
      "channel": 2,
      "note": 33,
      "start": 26.499,
      "duration": 0.0977,
      "velocity": 101,
      "chip": "ym2612"
    },
    {
      "channel": 0,
      "note": 80,
      "start": 26.681,
      "duration": 0.2989,
      "velocity": 97,
      "chip": "ym2612"
    },
    {
      "channel": 1,
      "note": 56,
      "start": 26.6815,
      "duration": 1.3163,
      "velocity": 99,
      "chip": "ym2612"
    },
    {
      "channel": 2,
      "note": 21,
      "start": 26.6829,
      "duration": 0.2472,
      "velocity": 101,
      "chip": "ym2612"
    },
    {
      "channel": 0,
      "note": 80,
      "start": 27.0157,
      "duration": 0.1487,
      "velocity": 97,
      "chip": "ym2612"
    },
    {
      "channel": 2,
      "note": 21,
      "start": 27.0169,
      "duration": 0.0648,
      "velocity": 101,
      "chip": "ym2612"
    },
    {
      "channel": 0,
      "note": 78,
      "start": 27.1981,
      "duration": 0.1496,
      "velocity": 97,
      "chip": "ym2612"
    },
    {
      "channel": 2,
      "note": 33,
      "start": 27.2139,
      "duration": 0.084,
      "velocity": 101,
      "chip": "ym2612"
    },
    {
      "channel": 0,
      "note": 75,
      "start": 27.3804,
      "duration": 0.1506,
      "velocity": 97,
      "chip": "ym2612"
    },
    {
      "channel": 0,
      "note": 73,
      "start": 27.5637,
      "duration": 0.1495,
      "velocity": 97,
      "chip": "ym2612"
    },
    {
      "channel": 2,
      "note": 21,
      "start": 27.5646,
      "duration": 0.0667,
      "velocity": 101,
      "chip": "ym2612"
    },
    {
      "channel": 0,
      "note": 75,
      "start": 27.7304,
      "duration": 0.1678,
      "velocity": 97,
      "chip": "ym2612"
    },
    {
      "channel": 2,
      "note": 21,
      "start": 27.7322,
      "duration": 0.0812,
      "velocity": 101,
      "chip": "ym2612"
    },
    {
      "channel": 0,
      "note": 80,
      "start": 27.9137,
      "duration": 0.1507,
      "velocity": 97,
      "chip": "ym2612"
    },
    {
      "channel": 2,
      "note": 33,
      "start": 27.9146,
      "duration": 0.0822,
      "velocity": 101,
      "chip": "ym2612"
    },
    {
      "channel": 1,
      "note": 54,
      "start": 28.0815,
      "duration": 1.2818,
      "velocity": 99,
      "chip": "ym2612"
    },
    {
      "channel": 0,
      "note": 78,
      "start": 28.0831,
      "duration": 0.2968,
      "velocity": 97,
      "chip": "ym2612"
    },
    {
      "channel": 2,
      "note": 21,
      "start": 28.0845,
      "duration": 0.2471,
      "velocity": 101,
      "chip": "ym2612"
    },
    {
      "channel": 0,
      "note": 78,
      "start": 28.4475,
      "duration": 0.1335,
      "velocity": 97,
      "chip": "ym2612"
    },
    {
      "channel": 2,
      "note": 21,
      "start": 28.4487,
      "duration": 0.0814,
      "velocity": 101,
      "chip": "ym2612"
    },
    {
      "channel": 0,
      "note": 76,
      "start": 28.6155,
      "duration": 0.1644,
      "velocity": 97,
      "chip": "ym2612"
    },
    {
      "channel": 2,
      "note": 33,
      "start": 28.6162,
      "duration": 0.0972,
      "velocity": 101,
      "chip": "ym2612"
    },
    {
      "channel": 0,
      "note": 73,
      "start": 28.7971,
      "duration": 0.1683,
      "velocity": 97,
      "chip": "ym2612"
    },
    {
      "channel": 0,
      "note": 71,
      "start": 28.9657,
      "duration": 0.1653,
      "velocity": 97,
      "chip": "ym2612"
    },
    {
      "channel": 2,
      "note": 21,
      "start": 28.9665,
      "duration": 0.0803,
      "velocity": 101,
      "chip": "ym2612"
    },
    {
      "channel": 0,
      "note": 73,
      "start": 29.1482,
      "duration": 0.1483,
      "velocity": 97,
      "chip": "ym2612"
    },
    {
      "channel": 2,
      "note": 21,
      "start": 29.1488,
      "duration": 0.0646,
      "velocity": 101,
      "chip": "ym2612"
    },
    {
      "channel": 0,
      "note": 76,
      "start": 29.3304,
      "duration": 0.1661,
      "velocity": 97,
      "chip": "ym2612"
    },
    {
      "channel": 2,
      "note": 33,
      "start": 29.3312,
      "duration": 0.0671,
      "velocity": 101,
      "chip": "ym2612"
    },
    {
      "channel": 1,
      "note": 54,
      "start": 29.4971,
      "duration": 0.7674,
      "velocity": 99,
      "chip": "ym2612"
    },
    {
      "channel": 0,
      "note": 78,
      "start": 29.5,
      "duration": 0.2811,
      "velocity": 97,
      "chip": "ym2612"
    },
    {
      "channel": 2,
      "note": 21,
      "start": 29.5013,
      "duration": 0.1966,
      "velocity": 101,
      "chip": "ym2612"
    },
    {
      "channel": 0,
      "note": 78,
      "start": 29.8491,
      "duration": 0.132,
      "velocity": 97,
      "chip": "ym2612"
    },
    {
      "channel": 2,
      "note": 21,
      "start": 29.8504,
      "duration": 0.0642,
      "velocity": 101,
      "chip": "ym2612"
    },
    {
      "channel": 0,
      "note": 76,
      "start": 30.0153,
      "duration": 0.1491,
      "velocity": 97,
      "chip": "ym2612"
    },
    {
      "channel": 2,
      "note": 33,
      "start": 30.0161,
      "duration": 0.1151,
      "velocity": 101,
      "chip": "ym2612"
    },
    {
      "channel": 0,
      "note": 73,
      "start": 30.2137,
      "duration": 0.1495,
      "velocity": 97,
      "chip": "ym2612"
    },
    {
      "channel": 1,
      "note": 54,
      "start": 30.3809,
      "duration": 0.0991,
      "velocity": 99,
      "chip": "ym2612"
    },
    {
      "channel": 0,
      "note": 71,
      "start": 30.3827,
      "duration": 0.1472,
      "velocity": 97,
      "chip": "ym2612"
    },
    {
      "channel": 2,
      "note": 21,
      "start": 30.3835,
      "duration": 0.0799,
      "velocity": 101,
      "chip": "ym2612"
    },
    {
      "channel": 1,
      "note": 54,
      "start": 30.5481,
      "duration": 0.0997,
      "velocity": 99,
      "chip": "ym2612"
    },
    {
      "channel": 0,
      "note": 73,
      "start": 30.5637,
      "duration": 0.1511,
      "velocity": 97,
      "chip": "ym2612"
    },
    {
      "channel": 2,
      "note": 33,
      "start": 30.5646,
      "duration": 0.0655,
      "velocity": 101,
      "chip": "ym2612"
    },
    {
      "channel": 1,
      "note": 54,
      "start": 30.7303,
      "duration": 0.0842,
      "velocity": 99,
      "chip": "ym2612"
    },
    {
      "channel": 0,
      "note": 76,
      "start": 30.7326,
      "duration": 0.1473,
      "velocity": 97,
      "chip": "ym2612"
    },
    {
      "channel": 2,
      "note": 33,
      "start": 30.7333,
      "duration": 0.0646,
      "velocity": 101,
      "chip": "ym2612"
    },
    {
      "channel": 0,
      "note": 78,
      "start": 30.9137,
      "duration": 0.1495,
      "velocity": 97,
      "chip": "ym2612"
    },
    {
      "channel": 1,
      "note": 54,
      "start": 30.9143,
      "duration": 0.1157,
      "velocity": 99,
      "chip": "ym2612"
    },
    {
      "channel": 2,
      "note": 33,
      "start": 30.9149,
      "duration": 0.0501,
      "velocity": 101,
      "chip": "ym2612"
    },
    {
      "channel": 0,
      "note": 85,
      "start": 31.0956,
      "duration": 0.1522,
      "velocity": 97,
      "chip": "ym2612"
    },
    {
      "channel": 1,
      "note": 61,
      "start": 31.0966,
      "duration": 0.1513,
      "velocity": 99,
      "chip": "ym2612"
    },
    {
      "channel": 2,
      "note": 33,
      "start": 31.0973,
      "duration": 0.0506,
      "velocity": 101,
      "chip": "ym2612"
    },
    {
      "channel": 0,
      "note": 84,
      "start": 31.2637,
      "duration": 0.1506,
      "velocity": 97,
      "chip": "ym2612"
    },
    {
      "channel": 1,
      "note": 60,
      "start": 31.2656,
      "duration": 0.1489,
      "velocity": 99,
      "chip": "ym2612"
    },
    {
      "channel": 2,
      "note": 33,
      "start": 31.2662,
      "duration": 0.0817,
      "velocity": 101,
      "chip": "ym2612"
    },
    {
      "channel": 0,
      "note": 83,
      "start": 31.4316,
      "duration": 0.1649,
      "velocity": 97,
      "chip": "ym2612"
    },
    {
      "channel": 2,
      "note": 33,
      "start": 31.4322,
      "duration": 0.0978,
      "velocity": 101,
      "chip": "ym2612"
    },
    {
      "channel": 1,
      "note": 59,
      "start": 31.4471,
      "duration": 0.1662,
      "velocity": 99,
      "chip": "ym2612"
    },
    {
      "channel": 0,
      "note": 90,
      "start": 31.615,
      "duration": 0.0827,
      "velocity": 97,
      "chip": "ym2612"
    },
    {
      "channel": 1,
      "note": 58,
      "start": 31.6158,
      "duration": 0.0991,
      "velocity": 99,
      "chip": "ym2612"
    },
    {
      "channel": 2,
      "note": 33,
      "start": 31.6163,
      "duration": 0.1148,
      "velocity": 101,
      "chip": "ym2612"
    },
    {
      "channel": 0,
      "note": 89,
      "start": 31.9653,
      "duration": 0.0003,
      "velocity": 97,
      "chip": "ym2612"
    }
  ]
}