{
  "track_name": "16 - Stage Holdup (Stage 2), Train Robbery (Stage 4)",
  "duration_sec": 59.542,
  "sample_rate": 44100,
  "note_count": 1087,
  "unique_pitches": 55,
  "pitch_range": 69,
  "avg_note_duration": 0.0563,
  "reconstruction_stats": {
    "notes_reconstructed": 1087,
    "keyon_events": 1087,
    "keyoff_events": 1086,
    "orphan_keyons": 1,
    "unique_pitches": 55,
    "pitch_range": 69,
    "avg_duration_sec": 0.0563
  },
  "metadata": {
    "source": "L\\Lethal Enforcers II - Gun Fighters\\16 - Stage Holdup (Stage 2), Train Robbery (Stage 4).vgz"
  },
  "notes": [
    {
      "channel": 3,
      "note": 44,
      "start": 0.0,
      "duration": 0.0024,
      "velocity": 95,
      "chip": "ym2612"
    },
    {
      "channel": 3,
      "note": 44,
      "start": 0.0026,
      "duration": 0.0003,
      "velocity": 95,
      "chip": "ym2612"
    },
    {
      "channel": 0,
      "note": 61,
      "start": 0.0032,
      "duration": 0.0068,
      "velocity": 105,
      "chip": "ym2612"
    },
    {
      "channel": 1,
      "note": 73,
      "start": 0.0034,
      "duration": 0.0068,
      "velocity": 105,
      "chip": "ym2612"
    },
    {
      "channel": 2,
      "note": 47,
      "start": 0.0036,
      "duration": 0.0022,
      "velocity": 97,
      "chip": "ym2612"
    },
    {
      "channel": 3,
      "note": 37,
      "start": 0.0039,
      "duration": 0.0025,
      "velocity": 95,
      "chip": "ym2612"
    },
    {
      "channel": 4,
      "note": 61,
      "start": 0.0043,
      "duration": 0.0104,
      "velocity": 105,
      "chip": "ym2612"
    },
    {
      "channel": 2,
      "note": 49,
      "start": 0.0061,
      "duration": 0.0001,
      "velocity": 97,
      "chip": "ym2612"
    },
    {
      "channel": 2,
      "note": 56,
      "start": 0.0066,
      "duration": 0.0001,
      "velocity": 97,
      "chip": "ym2612"
    },
    {
      "channel": 2,
      "note": 49,
      "start": 0.0076,
      "duration": 0.0008,
      "velocity": 97,
      "chip": "ym2612"
    },
    {
      "channel": 3,
      "note": 44,
      "start": 0.0079,
      "duration": 0.0012,
      "velocity": 95,
      "chip": "ym2612"
    },
    {
      "channel": 2,
      "note": 49,
      "start": 0.009,
      "duration": 0.0,
      "velocity": 97,
      "chip": "ym2612"
    },
    {
      "channel": 2,
      "note": 56,
      "start": 0.0097,
      "duration": 0.0002,
      "velocity": 97,
      "chip": "ym2612"
    },
    {
      "channel": 0,
      "note": 73,
      "start": 0.0106,
      "duration": 0.0029,
      "velocity": 105,
      "chip": "ym2612"
    },
    {
      "channel": 1,
      "note": 68,
      "start": 0.0109,
      "duration": 0.0028,
      "velocity": 105,
      "chip": "ym2612"
    },
    {
      "channel": 2,
      "note": 49,
      "start": 0.0112,
      "duration": 0.0014,
      "velocity": 97,
      "chip": "ym2612"
    },
    {
      "channel": 3,
      "note": 37,
      "start": 0.0115,
      "duration": 0.0032,
      "velocity": 95,
      "chip": "ym2612"
    },
    {
      "channel": 2,
      "note": 49,
      "start": 0.0132,
      "duration": 0.0006,
      "velocity": 97,
      "chip": "ym2612"
    },
    {
      "channel": 0,
      "note": 76,
      "start": 0.0141,
      "duration": 0.0028,
      "velocity": 105,
      "chip": "ym2612"
    },
    {
      "channel": 1,
      "note": 73,
      "start": 0.0146,
      "duration": 0.0024,
      "velocity": 105,
      "chip": "ym2612"
    },
    {
      "channel": 2,
      "note": 56,
      "start": 0.015,
      "duration": 0.0004,
      "velocity": 97,
      "chip": "ym2612"
    },
    {
      "channel": 4,
      "note": 73,
      "start": 0.0153,
      "duration": 0.0029,
      "velocity": 105,
      "chip": "ym2612"
    },
    {
      "channel": 2,
      "note": 49,
      "start": 0.0161,
      "duration": 0.0019,
      "velocity": 97,
      "chip": "ym2612"
    },
    {
      "channel": 3,
      "note": 44,
      "start": 0.0163,
      "duration": 0.0017,
      "velocity": 95,
      "chip": "ym2612"
    },
    {
      "channel": 0,
      "note": 80,
      "start": 0.0175,
      "duration": 0.0039,
      "velocity": 105,
      "chip": "ym2612"
    },
    {
      "channel": 1,
      "note": 76,
      "start": 0.0179,
      "duration": 0.0036,
      "velocity": 105,
      "chip": "ym2612"
    },
    {
      "channel": 4,
      "note": 76,
      "start": 0.0185,
      "duration": 0.0047,
      "velocity": 105,
      "chip": "ym2612"
    },
    {
      "channel": 2,
      "note": 49,
      "start": 0.0187,
      "duration": 0.0006,
      "velocity": 97,
      "chip": "ym2612"
    },
    {
      "channel": 3,
      "note": 37,
      "start": 0.019,
      "duration": 0.001,
      "velocity": 95,
      "chip": "ym2612"
    },
    {
      "channel": 2,
      "note": 56,
      "start": 0.0202,
      "duration": 0.001,
      "velocity": 97,
      "chip": "ym2612"
    },
    {
      "channel": 3,
      "note": 37,
      "start": 0.0205,
      "duration": 0.0012,
      "velocity": 95,
      "chip": "ym2612"
    },
    {
      "channel": 0,
      "note": 80,
      "start": 0.0222,
      "duration": 0.0079,
      "velocity": 105,
      "chip": "ym2612"
    },
    {
      "channel": 1,
      "note": 75,
      "start": 0.0225,
      "duration": 0.0076,
      "velocity": 105,
      "chip": "ym2612"
    },
    {
      "channel": 2,
      "note": 59,
      "start": 0.0228,
      "duration": 0.002,
      "velocity": 97,
      "chip": "ym2612"
    },
    {
      "channel": 3,
      "note": 47,
      "start": 0.0231,
      "duration": 0.0025,
      "velocity": 95,
      "chip": "ym2612"
    },
    {
      "channel": 4,
      "note": 80,
      "start": 0.024,
      "duration": 0.0017,
      "velocity": 105,
      "chip": "ym2612"
    },
    {
      "channel": 2,
      "note": 59,
      "start": 0.0252,
      "duration": 0.0001,
      "velocity": 97,
      "chip": "ym2612"
    },
    {
      "channel": 2,
      "note": 66,
      "start": 0.0259,
      "duration": 0.0004,
      "velocity": 97,
      "chip": "ym2612"
    },
    {
      "channel": 4,
      "note": 80,
      "start": 0.0262,
      "duration": 0.0077,
      "velocity": 105,
      "chip": "ym2612"
    },
    {
      "channel": 2,
      "note": 59,
      "start": 0.027,
      "duration": 0.0012,
      "velocity": 97,
      "chip": "ym2612"
    },
    {
      "channel": 3,
      "note": 42,
      "start": 0.0273,
      "duration": 0.0019,
      "velocity": 95,
      "chip": "ym2612"
    },
    {
      "channel": 2,
      "note": 59,
      "start": 0.0288,
      "duration": 0.0,
      "velocity": 97,
      "chip": "ym2612"
    },
    {
      "channel": 2,
      "note": 66,
      "start": 0.0295,
      "duration": 0.0005,
      "velocity": 97,
      "chip": "ym2612"
    },
    {
      "channel": 0,
      "note": 75,
      "start": 0.0305,
      "duration": 0.0076,
      "velocity": 105,
      "chip": "ym2612"
    },
    {
      "channel": 1,
      "note": 71,
      "start": 0.031,
      "duration": 0.0072,
      "velocity": 105,
      "chip": "ym2612"
    },
    {
      "channel": 2,
      "note": 59,
      "start": 0.0313,
      "duration": 0.0018,
      "velocity": 97,
      "chip": "ym2612"
    },
    {
      "channel": 3,
      "note": 47,
      "start": 0.0317,
      "duration": 0.0022,
      "velocity": 95,
      "chip": "ym2612"
    },
    {
      "channel": 2,
      "note": 59,
      "start": 0.0335,
      "duration": 0.0001,
      "velocity": 97,
      "chip": "ym2612"
    },
    {
      "channel": 2,
      "note": 66,
      "start": 0.0341,
      "duration": 0.0013,
      "velocity": 97,
      "chip": "ym2612"
    },
    {
      "channel": 4,
      "note": 75,
      "start": 0.0344,
      "duration": 0.0107,
      "velocity": 105,
      "chip": "ym2612"
    },
    {
      "channel": 2,
      "note": 59,
      "start": 0.0364,
      "duration": 0.0004,
      "velocity": 97,
      "chip": "ym2612"
    },
    {
      "channel": 3,
      "note": 42,
      "start": 0.0367,
      "duration": 0.0012,
      "velocity": 95,
      "chip": "ym2612"
    },
    {
      "channel": 2,
      "note": 66,
      "start": 0.0374,
      "duration": 0.0004,
      "velocity": 97,
      "chip": "ym2612"
    },
    {
      "channel": 0,
      "note": 75,
      "start": 0.0386,
      "duration": 0.0035,
      "velocity": 105,
      "chip": "ym2612"
    },
    {
      "channel": 1,
      "note": 71,
      "start": 0.0389,
      "duration": 0.0033,
      "velocity": 105,
      "chip": "ym2612"
    },
    {
      "channel": 2,
      "note": 59,
      "start": 0.0391,
      "duration": 0.0007,
      "velocity": 97,
      "chip": "ym2612"
    },
    {
      "channel": 3,
      "note": 47,
      "start": 0.0395,
      "duration": 0.0006,
      "velocity": 95,
      "chip": "ym2612"
    },
    {
      "channel": 2,
      "note": 66,
      "start": 0.0403,
      "duration": 0.0017,
      "velocity": 97,
      "chip": "ym2612"
    },
    {
      "channel": 3,
      "note": 47,
      "start": 0.0407,
      "duration": 0.0017,
      "velocity": 95,
      "chip": "ym2612"
    },
    {
      "channel": 0,
      "note": 76,
      "start": 0.0428,
      "duration": 0.0079,
      "velocity": 105,
      "chip": "ym2612"
    },
    {
      "channel": 1,
      "note": 73,
      "start": 0.0431,
      "duration": 0.0078,
      "velocity": 105,
      "chip": "ym2612"
    },
    {
      "channel": 2,
      "note": 57,
      "start": 0.0434,
      "duration": 0.0023,
      "velocity": 97,
      "chip": "ym2612"
    },
    {
      "channel": 3,
      "note": 45,
      "start": 0.0438,
      "duration": 0.0027,
      "velocity": 95,
      "chip": "ym2612"
    },
    {
      "channel": 4,
      "note": 75,
      "start": 0.0457,
      "duration": 0.0009,
      "velocity": 105,
      "chip": "ym2612"
    },
    {
      "channel": 2,
      "note": 57,
      "start": 0.046,
      "duration": 0.0002,
      "velocity": 97,
      "chip": "ym2612"
    },
    {
      "channel": 2,
      "note": 64,
      "start": 0.0468,
      "duration": 0.0002,
      "velocity": 97,
      "chip": "ym2612"
    },
    {
      "channel": 4,
      "note": 76,
      "start": 0.0471,
      "duration": 0.0066,
      "velocity": 105,
      "chip": "ym2612"
    },
    {
      "channel": 2,
      "note": 57,
      "start": 0.0478,
      "duration": 0.0006,
      "velocity": 97,
      "chip": "ym2612"
    },
    {
      "channel": 3,
      "note": 40,
      "start": 0.0482,
      "duration": 0.0017,
      "velocity": 95,
      "chip": "ym2612"
    },
    {
      "channel": 2,
      "note": 57,
      "start": 0.0493,
      "duration": 0.0001,
      "velocity": 97,
      "chip": "ym2612"
    },
    {
      "channel": 2,
      "note": 64,
      "start": 0.0501,
      "duration": 0.0005,
      "velocity": 97,
      "chip": "ym2612"
    },
    {
      "channel": 0,
      "note": 76,
      "start": 0.0512,
      "duration": 0.0077,
      "velocity": 105,
      "chip": "ym2612"
    },
    {
      "channel": 1,
      "note": 73,
      "start": 0.0517,
      "duration": 0.0074,
      "velocity": 105,
      "chip": "ym2612"
    },
    {
      "channel": 2,
      "note": 57,
      "start": 0.0519,
      "duration": 0.0008,
      "velocity": 97,
      "chip": "ym2612"
    },
    {
      "channel": 3,
      "note": 45,
      "start": 0.0523,
      "duration": 0.0013,
      "velocity": 95,
      "chip": "ym2612"
    },
    {
      "channel": 2,
      "note": 57,
      "start": 0.0532,
      "duration": 0.0001,
      "velocity": 97,
      "chip": "ym2612"
    },
    {
      "channel": 2,
      "note": 64,
      "start": 0.0539,
      "duration": 0.0003,
      "velocity": 97,
      "chip": "ym2612"
    },
    {
      "channel": 4,
      "note": 76,
      "start": 0.0541,
      "duration": 0.0092,
      "velocity": 105,
      "chip": "ym2612"
    },
    {
      "channel": 2,
      "note": 57,
      "start": 0.0545,
      "duration": 0.0014,
      "velocity": 97,
      "chip": "ym2612"
    },
    {
      "channel": 3,
      "note": 40,
      "start": 0.0549,
      "duration": 0.0012,
      "velocity": 95,
      "chip": "ym2612"
    },
    {
      "channel": 2,
      "note": 57,
      "start": 0.0567,
      "duration": 0.0007,
      "velocity": 97,
      "chip": "ym2612"
    },
    {
      "channel": 3,
      "note": 45,
      "start": 0.057,
      "duration": 0.0007,
      "velocity": 95,
      "chip": "ym2612"
    },
    {
      "channel": 2,
      "note": 64,
      "start": 0.0579,
      "duration": 0.0009,
      "velocity": 97,
      "chip": "ym2612"
    },
    {
      "channel": 3,
      "note": 45,
      "start": 0.0582,
      "duration": 0.0009,
      "velocity": 95,
      "chip": "ym2612"
    },
    {
      "channel": 0,
      "note": 75,
      "start": 0.0597,
      "duration": 0.0076,
      "velocity": 105,
      "chip": "ym2612"
    },
    {
      "channel": 1,
      "note": 68,
      "start": 0.06,
      "duration": 0.0073,
      "velocity": 105,
      "chip": "ym2612"
    },
    {
      "channel": 2,
      "note": 59,
      "start": 0.0603,
      "duration": 0.0021,
      "velocity": 97,
      "chip": "ym2612"
    },
    {
      "channel": 3,
      "note": 47,
      "start": 0.0606,
      "duration": 0.0027,
      "velocity": 95,
      "chip": "ym2612"
    },
    {
      "channel": 2,
      "note": 59,
      "start": 0.0629,
      "duration": 0.0002,
      "velocity": 97,
      "chip": "ym2612"
    },
    {
      "channel": 2,
      "note": 66,
      "start": 0.0636,
      "duration": 0.0003,
      "velocity": 97,
      "chip": "ym2612"
    },
    {
      "channel": 4,
      "note": 75,
      "start": 0.0639,
      "duration": 0.006,
      "velocity": 105,
      "chip": "ym2612"
    },
    {
      "channel": 2,
      "note": 59,
      "start": 0.0646,
      "duration": 0.0005,
      "velocity": 97,
      "chip": "ym2612"
    },
    {
      "channel": 3,
      "note": 42,
      "start": 0.0649,
      "duration": 0.0015,
      "velocity": 95,
      "chip": "ym2612"
    },
    {
      "channel": 2,
      "note": 59,
      "start": 0.0659,
      "duration": 0.0,
      "velocity": 97,
      "chip": "ym2612"
    },
    {
      "channel": 2,
      "note": 66,
      "start": 0.0667,
      "duration": 0.0005,
      "velocity": 97,
      "chip": "ym2612"
    },
    {
      "channel": 0,
      "note": 75,
      "start": 0.0678,
      "duration": 0.0078,
      "velocity": 105,
      "chip": "ym2612"
    },
    {
      "channel": 1,
      "note": 66,
      "start": 0.0681,
      "duration": 0.0076,
      "velocity": 105,
      "chip": "ym2612"
    },
    {
      "channel": 2,
      "note": 59,
      "start": 0.0684,
      "duration": 0.0006,
      "velocity": 97,
      "chip": "ym2612"
    },
    {
      "channel": 3,
      "note": 47,
      "start": 0.0687,
      "duration": 0.001,
      "velocity": 95,
      "chip": "ym2612"
    },
    {
      "channel": 2,
      "note": 59,
      "start": 0.0694,
      "duration": 0.0001,
      "velocity": 97,
      "chip": "ym2612"
    },
    {
      "channel": 2,
      "note": 66,
      "start": 0.0701,
      "duration": 0.0003,
      "velocity": 97,
      "chip": "ym2612"
    },
    {
      "channel": 4,
      "note": 75,
      "start": 0.0703,
      "duration": 0.0068,
      "velocity": 105,
      "chip": "ym2612"
    },
    {
      "channel": 2,
      "note": 59,
      "start": 0.0707,
      "duration": 0.0016,
      "velocity": 97,
      "chip": "ym2612"
    },
    {
      "channel": 3,
      "note": 42,
      "start": 0.071,
      "duration": 0.0012,
      "velocity": 95,
      "chip": "ym2612"
    },
    {
      "channel": 2,
      "note": 54,
      "start": 0.073,
      "duration": 0.0008,
      "velocity": 97,
      "chip": "ym2612"
    },
    {
      "channel": 3,
      "note": 47,
      "start": 0.0733,
      "duration": 0.001,
      "velocity": 95,
      "chip": "ym2612"
    },
    {
      "channel": 2,
      "note": 56,
      "start": 0.0745,
      "duration": 0.001,
      "velocity": 97,
      "chip": "ym2612"
    },
    {
      "channel": 3,
      "note": 47,
      "start": 0.0749,
      "duration": 0.0008,
      "velocity": 95,
      "chip": "ym2612"
    },
    {
      "channel": 0,
      "note": 61,
      "start": 0.0761,
      "duration": 0.0075,
      "velocity": 105,
      "chip": "ym2612"
    },
    {
      "channel": 1,
      "note": 73,
      "start": 0.0766,
      "duration": 0.0071,
      "velocity": 105,
      "chip": "ym2612"
    },
    {
      "channel": 2,
      "note": 47,
      "start": 0.0767,
      "duration": 0.0027,
      "velocity": 97,
      "chip": "ym2612"
    },
    {
      "channel": 3,
      "note": 37,
      "start": 0.0771,
      "duration": 0.0028,
      "velocity": 95,
      "chip": "ym2612"
    },
    {
      "channel": 4,
      "note": 61,
      "start": 0.0774,
      "duration": 0.0102,
      "velocity": 105,
      "chip": "ym2612"
    },
    {
      "channel": 2,
      "note": 49,
      "start": 0.0796,
      "duration": 0.0002,
      "velocity": 97,
      "chip": "ym2612"
    },
    {
      "channel": 2,
      "note": 56,
      "start": 0.0801,
      "duration": 0.0001,
      "velocity": 97,
      "chip": "ym2612"
    },
    {
      "channel": 2,
      "note": 49,
      "start": 0.081,
      "duration": 0.0008,
      "velocity": 97,
      "chip": "ym2612"
    },
    {
      "channel": 3,
      "note": 44,
      "start": 0.0813,
      "duration": 0.0012,
      "velocity": 95,
      "chip": "ym2612"
    },
    {
      "channel": 2,
      "note": 49,
      "start": 0.0824,
      "duration": 0.0,
      "velocity": 97,
      "chip": "ym2612"
    },
    {
      "channel": 2,
      "note": 56,
      "start": 0.0831,
      "duration": 0.0003,
      "velocity": 97,
      "chip": "ym2612"
    },
    {
      "channel": 0,
      "note": 73,
      "start": 0.0839,
      "duration": 0.0027,
      "velocity": 105,
      "chip": "ym2612"
    },
    {
      "channel": 1,
      "note": 68,
      "start": 0.0842,
      "duration": 0.0025,
      "velocity": 105,
      "chip": "ym2612"
    },
    {
      "channel": 2,
      "note": 49,
      "start": 0.0844,
      "duration": 0.0013,
      "velocity": 97,
      "chip": "ym2612"
    },
    {
      "channel": 3,
      "note": 37,
      "start": 0.0847,
      "duration": 0.0027,
      "velocity": 95,
      "chip": "ym2612"
    },
    {
      "channel": 2,
      "note": 49,
      "start": 0.0862,
      "duration": 0.0005,
      "velocity": 97,
      "chip": "ym2612"
    },
    {
      "channel": 0,
      "note": 76,
      "start": 0.087,
      "duration": 0.0026,
      "velocity": 105,
      "chip": "ym2612"
    },
    {
      "channel": 1,
      "note": 73,
      "start": 0.0873,
      "duration": 0.0023,
      "velocity": 105,
      "chip": "ym2612"
    },
    {
      "channel": 2,
      "note": 56,
      "start": 0.0878,
      "duration": 0.0003,
      "velocity": 97,
      "chip": "ym2612"
    },
    {
      "channel": 4,
      "note": 73,
      "start": 0.088,
      "duration": 0.0028,
      "velocity": 105,
      "chip": "ym2612"
    },
    {
      "channel": 2,
      "note": 49,
      "start": 0.0887,
      "duration": 0.0019,
      "velocity": 97,
      "chip": "ym2612"
    },
    {
      "channel": 3,
      "note": 44,
      "start": 0.0891,
      "duration": 0.0016,
      "velocity": 95,
      "chip": "ym2612"
    },
    {
      "channel": 0,
      "note": 80,
      "start": 0.0901,
      "duration": 0.0054,
      "velocity": 105,
      "chip": "ym2612"
    },
    {
      "channel": 1,
      "note": 76,
      "start": 0.0905,
      "duration": 0.0051,
      "velocity": 105,
      "chip": "ym2612"
    },
    {
      "channel": 4,
      "note": 76,
      "start": 0.0911,
      "duration": 0.0062,
      "velocity": 105,
      "chip": "ym2612"
    },
    {
      "channel": 2,
      "note": 49,
      "start": 0.0914,
      "duration": 0.0015,
      "velocity": 97,
      "chip": "ym2612"
    },
    {
      "channel": 3,
      "note": 37,
      "start": 0.0917,
      "duration": 0.002,
      "velocity": 95,
      "chip": "ym2612"
    },
    {
      "channel": 2,
      "note": 56,
      "start": 0.0939,
      "duration": 0.0015,
      "velocity": 97,
      "chip": "ym2612"
    },
    {
      "channel": 3,
      "note": 37,
      "start": 0.0943,
      "duration": 0.0013,
      "velocity": 95,
      "chip": "ym2612"
    },
    {
      "channel": 0,
      "note": 80,
      "start": 0.0962,
      "duration": 0.008,
      "velocity": 105,
      "chip": "ym2612"
    },
    {
      "channel": 1,
      "note": 75,
      "start": 0.0966,
      "duration": 0.0077,
      "velocity": 105,
      "chip": "ym2612"
    },
    {
      "channel": 2,
      "note": 59,
      "start": 0.0969,
      "duration": 0.0021,
      "velocity": 97,
      "chip": "ym2612"
    },
    {
      "channel": 3,
      "note": 47,
      "start": 0.0973,
      "duration": 0.0025,
      "velocity": 95,
      "chip": "ym2612"
    },
    {
      "channel": 4,
      "note": 80,
      "start": 0.0982,
      "duration": 0.0017,
      "velocity": 105,
      "chip": "ym2612"
    },
    {
      "channel": 2,
      "note": 59,
      "start": 0.0994,
      "duration": 0.0001,
      "velocity": 97,
      "chip": "ym2612"
    },
    {
      "channel": 2,
      "note": 66,
      "start": 0.1002,
      "duration": 0.0003,
      "velocity": 97,
      "chip": "ym2612"
    },
    {
      "channel": 4,
      "note": 80,
      "start": 0.1004,
      "duration": 0.0076,
      "velocity": 105,
      "chip": "ym2612"
    },
    {
      "channel": 2,
      "note": 59,
      "start": 0.1012,
      "duration": 0.0011,
      "velocity": 97,
      "chip": "ym2612"
    },
    {
      "channel": 3,
      "note": 42,
      "start": 0.1016,
      "duration": 0.002,
      "velocity": 95,
      "chip": "ym2612"
    },
    {
      "channel": 2,
      "note": 59,
      "start": 0.103,
      "duration": 0.0001,
      "velocity": 97,
      "chip": "ym2612"
    },
    {
      "channel": 2,
      "note": 66,
      "start": 0.1038,
      "duration": 0.0004,
      "velocity": 97,
      "chip": "ym2612"
    },
    {
      "channel": 0,
      "note": 75,
      "start": 0.1047,
      "duration": 0.0102,
      "velocity": 105,
      "chip": "ym2612"
    },
    {
      "channel": 1,
      "note": 71,
      "start": 0.1051,
      "duration": 0.0065,
      "velocity": 105,
      "chip": "ym2612"
    },
    {
      "channel": 2,
      "note": 59,
      "start": 0.1053,
      "duration": 0.0017,
      "velocity": 97,
      "chip": "ym2612"
    },
    {
      "channel": 3,
      "note": 47,
      "start": 0.1057,
      "duration": 0.0022,
      "velocity": 95,
      "chip": "ym2612"
    },
    {
      "channel": 2,
      "note": 59,
      "start": 0.1075,
      "duration": 0.0001,
      "velocity": 97,
      "chip": "ym2612"
    },
    {
      "channel": 2,
      "note": 66,
      "start": 0.1083,
      "duration": 0.0007,
      "velocity": 97,
      "chip": "ym2612"
    },
    {
      "channel": 4,
      "note": 75,
      "start": 0.1086,
      "duration": 0.0105,
      "velocity": 105,
      "chip": "ym2612"
    },
    {
      "channel": 2,
      "note": 59,
      "start": 0.1097,
      "duration": 0.0004,
      "velocity": 97,
      "chip": "ym2612"
    },
    {
      "channel": 3,
      "note": 42,
      "start": 0.1099,
      "duration": 0.0015,
      "velocity": 95,
      "chip": "ym2612"
    },
    {
      "channel": 2,
      "note": 66,
      "start": 0.1109,
      "duration": 0.0005,
      "velocity": 97,
      "chip": "ym2612"
    },
    {
      "channel": 1,
      "note": 71,
      "start": 0.1122,
      "duration": 0.0027,
      "velocity": 105,
      "chip": "ym2612"
    },
    {
      "channel": 2,
      "note": 59,
      "start": 0.1124,
      "duration": 0.0008,
      "velocity": 97,
      "chip": "ym2612"
    },
    {
      "channel": 3,
      "note": 47,
      "start": 0.1126,
      "duration": 0.001,
      "velocity": 95,
      "chip": "ym2612"
    },
    {
      "channel": 2,
      "note": 66,
      "start": 0.1139,
      "duration": 0.0009,
      "velocity": 97,
      "chip": "ym2612"
    },
    {
      "channel": 3,
      "note": 47,
      "start": 0.1142,
      "duration": 0.0007,
      "velocity": 95,
      "chip": "ym2612"
    },
    {
      "channel": 0,
      "note": 73,
      "start": 0.1154,
      "duration": 0.0088,
      "velocity": 105,
      "chip": "ym2612"
    },
    {
      "channel": 1,
      "note": 70,
      "start": 0.1157,
      "duration": 0.0086,
      "velocity": 105,
      "chip": "ym2612"
    },
    {
      "channel": 2,
      "note": 57,
      "start": 0.1159,
      "duration": 0.0022,
      "velocity": 97,
      "chip": "ym2612"
    },
    {
      "channel": 3,
      "note": 45,
      "start": 0.1164,
      "duration": 0.0026,
      "velocity": 95,
      "chip": "ym2612"
    },
    {
      "channel": 2,
      "note": 57,
      "start": 0.1186,
      "duration": 0.0002,
      "velocity": 97,
      "chip": "ym2612"
    },
    {
      "channel": 2,
      "note": 64,
      "start": 0.1193,
      "duration": 0.0004,
      "velocity": 97,
      "chip": "ym2612"
    },
    {
      "channel": 4,
      "note": 73,
      "start": 0.1195,
      "duration": 0.0091,
      "velocity": 105,
      "chip": "ym2612"
    },
    {
      "channel": 2,
      "note": 57,
      "start": 0.1202,
      "duration": 0.0007,
      "velocity": 97,
      "chip": "ym2612"
    },
    {
      "channel": 3,
      "note": 40,
      "start": 0.1205,
      "duration": 0.0009,
      "velocity": 95,
      "chip": "ym2612"
    },
    {
      "channel": 2,
      "note": 57,
      "start": 0.1211,
      "duration": 0.0002,
      "velocity": 97,
      "chip": "ym2612"
    },
    {
      "channel": 2,
      "note": 64,
      "start": 0.1215,
      "duration": 0.0001,
      "velocity": 97,
      "chip": "ym2612"
    },
    {
      "channel": 2,
      "note": 57,
      "start": 0.1222,
      "duration": 0.0007,
      "velocity": 97,
      "chip": "ym2612"
    },
    {
      "channel": 3,
      "note": 45,
      "start": 0.1225,
      "duration": 0.0012,
      "velocity": 95,
      "chip": "ym2612"
    },
    {
      "channel": 2,
      "note": 57,
      "start": 0.1231,
      "duration": 0.0001,
      "velocity": 97,
      "chip": "ym2612"
    },
    {
      "channel": 2,
      "note": 64,
      "start": 0.1239,
      "duration": 0.0002,
      "velocity": 97,
      "chip": "ym2612"
    },
    {
      "channel": 0,
      "note": 73,
      "start": 0.1246,
      "duration": 0.0055,
      "velocity": 105,
      "chip": "ym2612"
    },
    {
      "channel": 1,
      "note": 69,
      "start": 0.125,
      "duration": 0.0052,
      "velocity": 105,
      "chip": "ym2612"
    },
    {
      "channel": 2,
      "note": 57,
      "start": 0.1253,
      "duration": 0.0007,
      "velocity": 97,
      "chip": "ym2612"
    },
    {
      "channel": 3,
      "note": 40,
      "start": 0.1256,
      "duration": 0.0005,
      "velocity": 95,
      "chip": "ym2612"
    },
    {
      "channel": 2,
      "note": 57,
      "start": 0.1271,
      "duration": 0.0008,
      "velocity": 97,
      "chip": "ym2612"
    },
    {
      "channel": 3,
      "note": 45,
      "start": 0.1275,
      "duration": 0.001,
      "velocity": 95,
      "chip": "ym2612"
    },
    {
      "channel": 2,
      "note": 64,
      "start": 0.1288,
      "duration": 0.0011,
      "velocity": 97,
      "chip": "ym2612"
    },
    {
      "channel": 3,
      "note": 45,
      "start": 0.1291,
      "duration": 0.0012,
      "velocity": 95,
      "chip": "ym2612"
    },
    {
      "channel": 4,
      "note": 73,
      "start": 0.1293,
      "duration": 0.0048,
      "velocity": 105,
      "chip": "ym2612"
    },
    {
      "channel": 0,
      "note": 75,
      "start": 0.1305,
      "duration": 0.0101,
      "velocity": 105,
      "chip": "ym2612"
    },
    {
      "channel": 1,
      "note": 72,
      "start": 0.131,
      "duration": 0.0059,
      "velocity": 105,
      "chip": "ym2612"
    },
    {
      "channel": 2,
      "note": 59,
      "start": 0.1312,
      "duration": 0.0021,
      "velocity": 97,
      "chip": "ym2612"
    },
    {
      "channel": 3,
      "note": 47,
      "start": 0.1316,
      "duration": 0.0024,
      "velocity": 95,
      "chip": "ym2612"
    },
    {
      "channel": 2,
      "note": 59,
      "start": 0.1337,
      "duration": 0.0001,
      "velocity": 97,
      "chip": "ym2612"
    },
    {
      "channel": 2,
      "note": 66,
      "start": 0.1344,
      "duration": 0.0003,
      "velocity": 97,
      "chip": "ym2612"
    },
    {
      "channel": 4,
      "note": 75,
      "start": 0.1346,
      "duration": 0.0109,
      "velocity": 105,
      "chip": "ym2612"
    },
    {
      "channel": 2,
      "note": 59,
      "start": 0.1352,
      "duration": 0.0007,
      "velocity": 97,
      "chip": "ym2612"
    },
    {
      "channel": 3,
      "note": 42,
      "start": 0.1356,
      "duration": 0.0009,
      "velocity": 95,
      "chip": "ym2612"
    },
    {
      "channel": 2,
      "note": 59,
      "start": 0.1362,
      "duration": 0.0001,
      "velocity": 97,
      "chip": "ym2612"
    },
    {
      "channel": 2,
      "note": 66,
      "start": 0.1366,
      "duration": 0.0001,
      "velocity": 97,
      "chip": "ym2612"
    },
    {
      "channel": 1,
      "note": 59,
      "start": 0.1376,
      "duration": 0.0008,
      "velocity": 115,
      "chip": "ym2612"
    },
    {
      "channel": 2,
      "note": 59,
      "start": 0.1379,
      "duration": 0.0009,
      "velocity": 97,
      "chip": "ym2612"
    },
    {
      "channel": 3,
      "note": 47,
      "start": 0.1383,
      "duration": 0.0016,
      "velocity": 95,
      "chip": "ym2612"
    },
    {
      "channel": 1,
      "note": 61,
      "start": 0.1388,
      "duration": 0.0002,
      "velocity": 115,
      "chip": "ym2612"
    },
    {
      "channel": 1,
      "note": 63,
      "start": 0.1394,
      "duration": 0.0004,
      "velocity": 115,
      "chip": "ym2612"
    },
    {
      "channel": 2,
      "note": 59,
      "start": 0.1395,
      "duration": 0.0001,
      "velocity": 97,
      "chip": "ym2612"
    },
    {
      "channel": 1,
      "note": 64,
      "start": 0.1403,
      "duration": 0.0004,
      "velocity": 115,
      "chip": "ym2612"
    },
    {
      "channel": 2,
      "note": 66,
      "start": 0.1405,
      "duration": 0.0,
      "velocity": 97,
      "chip": "ym2612"
    },
    {
      "channel": 0,
      "note": 97,
      "start": 0.1413,
      "duration": 0.0011,
      "velocity": 115,
      "chip": "ym2612"
    },
    {
      "channel": 1,
      "note": 66,
      "start": 0.1416,
      "duration": 0.0009,
      "velocity": 115,
      "chip": "ym2612"
    },
    {
      "channel": 2,
      "note": 59,
      "start": 0.1418,
      "duration": 0.0017,
      "velocity": 97,
      "chip": "ym2612"
    },
    {
      "channel": 3,
      "note": 42,
      "start": 0.1422,
      "duration": 0.0012,
      "velocity": 95,
      "chip": "ym2612"
    },
    {
      "channel": 0,
      "note": 99,
      "start": 0.1428,
      "duration": 0.0006,
      "velocity": 115,
      "chip": "ym2612"
    },
    {
      "channel": 1,
      "note": 68,
      "start": 0.143,
      "duration": 0.0005,
      "velocity": 115,
      "chip": "ym2612"
    },
    {
      "channel": 0,
      "note": 100,
      "start": 0.1438,
      "duration": 0.0016,
      "velocity": 115,
      "chip": "ym2612"
    },
    {
      "channel": 1,
      "note": 69,
      "start": 0.144,
      "duration": 0.0014,
      "velocity": 115,
      "chip": "ym2612"
    },
    {
      "channel": 2,
      "note": 54,
      "start": 0.1442,
      "duration": 0.0011,
      "velocity": 97,
      "chip": "ym2612"
    },
    {
      "channel": 3,
      "note": 47,
      "start": 0.1445,
      "duration": 0.001,
      "velocity": 95,
      "chip": "ym2612"
    },
    {
      "channel": 0,
      "note": 102,
      "start": 0.1457,
      "duration": 0.0017,
      "velocity": 115,
      "chip": "ym2612"
    },
    {
      "channel": 1,
      "note": 71,
      "start": 0.1459,
      "duration": 0.0016,
      "velocity": 115,
      "chip": "ym2612"
    },
    {
      "channel": 2,
      "note": 56,
      "start": 0.1462,
      "duration": 0.0012,
      "velocity": 97,
      "chip": "ym2612"
    },
    {
      "channel": 3,
      "note": 47,
      "start": 0.1465,
      "duration": 0.0012,
      "velocity": 95,
      "chip": "ym2612"
    },
    {
      "channel": 4,
      "note": 97,
      "start": 0.1471,
      "duration": 0.0007,
      "velocity": 115,
      "chip": "ym2612"
    },
    {
      "channel": 0,
      "note": 104,
      "start": 0.1482,
      "duration": 0.0074,
      "velocity": 115,
      "chip": "ym2612"
    },
    {
      "channel": 1,
      "note": 73,
      "start": 0.1485,
      "duration": 0.0034,
      "velocity": 115,
      "chip": "ym2612"
    },
    {
      "channel": 2,
      "note": 49,
      "start": 0.1488,
      "duration": 0.0015,
      "velocity": 97,
      "chip": "ym2612"
    },
    {
      "channel": 3,
      "note": 37,
      "start": 0.1492,
      "duration": 0.0015,
      "velocity": 95,
      "chip": "ym2612"
    },
    {
      "channel": 4,
      "note": 104,
      "start": 0.1496,
      "duration": 0.008,
      "velocity": 115,
      "chip": "ym2612"
    },
    {
      "channel": 2,
      "note": 49,
      "start": 0.1505,
      "duration": 0.0,
      "velocity": 97,
      "chip": "ym2612"
    },
    {
      "channel": 2,
      "note": 56,
      "start": 0.151,
      "duration": 0.0002,
      "velocity": 97,
      "chip": "ym2612"
    },
    {
      "channel": 2,
      "note": 49,
      "start": 0.1515,
      "duration": 0.0008,
      "velocity": 97,
      "chip": "ym2612"
    },
    {
      "channel": 3,
      "note": 44,
      "start": 0.1519,
      "duration": 0.0013,
      "velocity": 95,
      "chip": "ym2612"
    },
    {
      "channel": 1,
      "note": 63,
      "start": 0.1522,
      "duration": 0.0005,
      "velocity": 115,
      "chip": "ym2612"
    },
    {
      "channel": 2,
      "note": 49,
      "start": 0.1526,
      "duration": 0.0002,
      "velocity": 97,
      "chip": "ym2612"
    },
    {
      "channel": 1,
      "note": 64,
      "start": 0.153,
      "duration": 0.0006,
      "velocity": 115,
      "chip": "ym2612"
    },
    {
      "channel": 2,
      "note": 56,
      "start": 0.1534,
      "duration": 0.0,
      "velocity": 97,
      "chip": "ym2612"
    },
    {
      "channel": 1,
      "note": 73,
      "start": 0.1539,
      "duration": 0.0114,
      "velocity": 115,
      "chip": "ym2612"
    },
    {
      "channel": 2,
      "note": 49,
      "start": 0.1541,
      "duration": 0.0004,
      "velocity": 97,
      "chip": "ym2612"
    },
    {
      "channel": 3,
      "note": 37,
      "start": 0.1545,
      "duration": 0.0005,
      "velocity": 95,
      "chip": "ym2612"
    },
    {
      "channel": 2,
      "note": 49,
      "start": 0.1549,
      "duration": 0.0,
      "velocity": 97,
      "chip": "ym2612"
    },
    {
      "channel": 2,
      "note": 56,
      "start": 0.1553,
      "duration": 0.0002,
      "velocity": 97,
      "chip": "ym2612"
    },
    {
      "channel": 2,
      "note": 49,
      "start": 0.156,
      "duration": 0.0004,
      "velocity": 97,
      "chip": "ym2612"
    },
    {
      "channel": 3,
      "note": 44,
      "start": 0.1563,
      "duration": 0.0005,
      "velocity": 95,
      "chip": "ym2612"
    },
    {
      "channel": 2,
      "note": 56,
      "start": 0.1566,
      "duration": 0.0001,
      "velocity": 97,
      "chip": "ym2612"
    },
    {
      "channel": 0,
      "note": 97,
      "start": 0.157,
      "duration": 0.003,
      "velocity": 115,
      "chip": "ym2612"
    },
    {
      "channel": 2,
      "note": 49,
      "start": 0.1573,
      "duration": 0.0016,
      "velocity": 97,
      "chip": "ym2612"
    },
    {
      "channel": 3,
      "note": 37,
      "start": 0.1576,
      "duration": 0.0013,
      "velocity": 95,
      "chip": "ym2612"
    },
    {
      "channel": 2,
      "note": 56,
      "start": 0.1591,
      "duration": 0.0008,
      "velocity": 97,
      "chip": "ym2612"
    },
    {
      "channel": 3,
      "note": 37,
      "start": 0.1595,
      "duration": 0.0007,
      "velocity": 95,
      "chip": "ym2612"
    },
    {
      "channel": 0,
      "note": 106,
      "start": 0.1604,
      "duration": 0.0033,
      "velocity": 115,
      "chip": "ym2612"
    },
    {
      "channel": 2,
      "note": 54,
      "start": 0.1607,
      "duration": 0.0009,
      "velocity": 97,
      "chip": "ym2612"
    },
    {
      "channel": 3,
      "note": 42,
      "start": 0.161,
      "duration": 0.0015,
      "velocity": 95,
      "chip": "ym2612"
    },
    {
      "channel": 4,
      "note": 97,
      "start": 0.1615,
      "duration": 0.001,
      "velocity": 115,
      "chip": "ym2612"
    },
    {
      "channel": 2,
      "note": 54,
      "start": 0.162,
      "duration": 0.0001,
      "velocity": 97,
      "chip": "ym2612"
    },
    {
      "channel": 2,
      "note": 61,
      "start": 0.1632,
      "duration": 0.0004,
      "velocity": 97,
      "chip": "ym2612"
    },
    {
      "channel": 4,
      "note": 106,
      "start": 0.1635,
      "duration": 0.0032,
      "velocity": 115,
      "chip": "ym2612"
    },
    {
      "channel": 0,
      "note": 102,
      "start": 0.1641,
      "duration": 0.0043,
      "velocity": 115,
      "chip": "ym2612"
    },
    {
      "channel": 2,
      "note": 54,
      "start": 0.1646,
      "duration": 0.0005,
      "velocity": 97,
      "chip": "ym2612"
    },
    {
      "channel": 3,
      "note": 37,
      "start": 0.1649,
      "duration": 0.0018,
      "velocity": 95,
      "chip": "ym2612"
    },
    {
      "channel": 1,
      "note": 69,
      "start": 0.1656,
      "duration": 0.0025,
      "velocity": 115,
      "chip": "ym2612"
    },
    {
      "channel": 2,
      "note": 54,
      "start": 0.1659,
      "duration": 0.0004,
      "velocity": 97,
      "chip": "ym2612"
    },
    {
      "channel": 2,
      "note": 61,
      "start": 0.1672,
      "duration": 0.0006,
      "velocity": 97,
      "chip": "ym2612"
    },
    {
      "channel": 4,
      "note": 102,
      "start": 0.1675,
      "duration": 0.0055,
      "velocity": 115,
      "chip": "ym2612"
    },
    {
      "channel": 0,
      "note": 97,
      "start": 0.1686,
      "duration": 0.0014,
      "velocity": 115,
      "chip": "ym2612"
    },
    {
      "channel": 1,
      "note": 70,
      "start": 0.1689,
      "duration": 0.0013,
      "velocity": 115,
      "chip": "ym2612"
    },
    {
      "channel": 2,
      "note": 54,
      "start": 0.1691,
      "duration": 0.0008,
      "velocity": 97,
      "chip": "ym2612"
    },
    {
      "channel": 3,
      "note": 42,
      "start": 0.1695,
      "duration": 0.003,
      "velocity": 95,
      "chip": "ym2612"
    },
    {
      "channel": 0,
      "note": 100,
      "start": 0.1709,
      "duration": 0.004,
      "velocity": 115,
      "chip": "ym2612"
    },
    {
      "channel": 1,
      "note": 73,
      "start": 0.1711,
      "duration": 0.0043,
      "velocity": 115,
      "chip": "ym2612"
    },
    {
      "channel": 2,
      "note": 54,
      "start": 0.1713,
      "duration": 0.0006,
      "velocity": 97,
      "chip": "ym2612"
    },
    {
      "channel": 2,
      "note": 61,
      "start": 0.1729,
      "duration": 0.0005,
      "velocity": 97,
      "chip": "ym2612"
    },
    {
      "channel": 4,
      "note": 97,
      "start": 0.1734,
      "duration": 0.0009,
      "velocity": 115,
      "chip": "ym2612"
    },
    {
      "channel": 2,
      "note": 59,
      "start": 0.1737,
      "duration": 0.0018,
      "velocity": 97,
      "chip": "ym2612"
    },
    {
      "channel": 3,
      "note": 37,
      "start": 0.174,
      "duration": 0.001,
      "velocity": 95,
      "chip": "ym2612"
    },
    {
      "channel": 4,
      "note": 100,
      "start": 0.1748,
      "duration": 0.0059,
      "velocity": 115,
      "chip": "ym2612"
    },
    {
      "channel": 0,
      "note": 100,
      "start": 0.1759,
      "duration": 0.0015,
      "velocity": 115,
      "chip": "ym2612"
    },
    {
      "channel": 1,
      "note": 71,
      "start": 0.1762,
      "duration": 0.0012,
      "velocity": 115,
      "chip": "ym2612"
    },
    {
      "channel": 2,
      "note": 54,
      "start": 0.1764,
      "duration": 0.0007,
      "velocity": 97,
      "chip": "ym2612"
    },
    {
      "channel": 3,
      "note": 42,
      "start": 0.1768,
      "duration": 0.0007,
      "velocity": 95,
      "chip": "ym2612"
    },
    {
      "channel": 0,
      "note": 99,
      "start": 0.1778,
      "duration": 0.0011,
      "velocity": 115,
      "chip": "ym2612"
    },
    {
      "channel": 1,
      "note": 69,
      "start": 0.178,
      "duration": 0.001,
      "velocity": 115,
      "chip": "ym2612"
    },
    {
      "channel": 2,
      "note": 56,
      "start": 0.1783,
      "duration": 0.0005,
      "velocity": 97,
      "chip": "ym2612"
    },
    {
      "channel": 3,
      "note": 42,
      "start": 0.1785,
      "duration": 0.0006,
      "velocity": 95,
      "chip": "ym2612"
    },
    {
      "channel": 0,
      "note": 100,
      "start": 0.1794,
      "duration": 0.0083,
      "velocity": 115,
      "chip": "ym2612"
    },
    {
      "channel": 1,
      "note": 68,
      "start": 0.1796,
      "duration": 0.0047,
      "velocity": 115,
      "chip": "ym2612"
    },
    {
      "channel": 2,
      "note": 49,
      "start": 0.18,
      "duration": 0.0011,
      "velocity": 97,
      "chip": "ym2612"
    },
    {
      "channel": 3,
      "note": 37,
      "start": 0.1804,
      "duration": 0.0015,
      "velocity": 95,
      "chip": "ym2612"
    },
    {
      "channel": 4,
      "note": 100,
      "start": 0.181,
      "duration": 0.0002,
      "velocity": 115,
      "chip": "ym2612"
    },
    {
      "channel": 2,
      "note": 49,
      "start": 0.1814,
      "duration": 0.0003,
      "velocity": 97,
      "chip": "ym2612"
    },
    {
      "channel": 4,
      "note": 99,
      "start": 0.1816,
      "duration": 0.0004,
      "velocity": 115,
      "chip": "ym2612"
    },
    {
      "channel": 2,
      "note": 56,
      "start": 0.1822,
      "duration": 0.0005,
      "velocity": 97,
      "chip": "ym2612"
    },
    {
      "channel": 4,
      "note": 100,
      "start": 0.1825,
      "duration": 0.0103,
      "velocity": 115,
      "chip": "ym2612"
    },
    {
      "channel": 2,
      "note": 49,
      "start": 0.1829,
      "duration": 0.0004,
      "velocity": 97,
      "chip": "ym2612"
    },
    {
      "channel": 3,
      "note": 44,
      "start": 0.1832,
      "duration": 0.0006,
      "velocity": 95,
      "chip": "ym2612"
    },
    {
      "channel": 2,
      "note": 49,
      "start": 0.1837,
      "duration": 0.0,
      "velocity": 97,
      "chip": "ym2612"
    },
    {
      "channel": 2,
      "note": 56,
      "start": 0.1841,
      "duration": 0.0001,
      "velocity": 97,
      "chip": "ym2612"
    },
    {
      "channel": 1,
      "note": 70,
      "start": 0.1846,
      "duration": 0.0265,
      "velocity": 115,
      "chip": "ym2612"
    },
    {
      "channel": 2,
      "note": 49,
      "start": 0.1849,
      "duration": 0.0005,
      "velocity": 97,
      "chip": "ym2612"
    },
    {
      "channel": 3,
      "note": 37,
      "start": 0.1852,
      "duration": 0.0009,
      "velocity": 95,
      "chip": "ym2612"
    },
    {
      "channel": 2,
      "note": 49,
      "start": 0.1857,
      "duration": 0.0001,
      "velocity": 97,
      "chip": "ym2612"
    },
    {
      "channel": 2,
      "note": 56,
      "start": 0.1865,
      "duration": 0.0001,
      "velocity": 97,
      "chip": "ym2612"
    },
    {
      "channel": 2,
      "note": 49,
      "start": 0.187,
      "duration": 0.0004,
      "velocity": 97,
      "chip": "ym2612"
    },
    {
      "channel": 3,
      "note": 44,
      "start": 0.1873,
      "duration": 0.0007,
      "velocity": 95,
      "chip": "ym2612"
    },
    {
      "channel": 2,
      "note": 56,
      "start": 0.1876,
      "duration": 0.0003,
      "velocity": 97,
      "chip": "ym2612"
    },
    {
      "channel": 2,
      "note": 49,
      "start": 0.1883,
      "duration": 0.0017,
      "velocity": 97,
      "chip": "ym2612"
    },
    {
      "channel": 3,
      "note": 37,
      "start": 0.1886,
      "duration": 0.0014,
      "velocity": 95,
      "chip": "ym2612"
    },
    {
      "channel": 2,
      "note": 56,
      "start": 0.1902,
      "duration": 0.0007,
      "velocity": 97,
      "chip": "ym2612"
    },
    {
      "channel": 3,
      "note": 37,
      "start": 0.1906,
      "duration": 0.0004,
      "velocity": 95,
      "chip": "ym2612"
    },
    {
      "channel": 0,
      "note": 68,
      "start": 0.192,
      "duration": 0.0012,
      "velocity": 105,
      "chip": "ym2612"
    },
    {
      "channel": 2,
      "note": 49,
      "start": 0.1923,
      "duration": 0.0013,
      "velocity": 97,
      "chip": "ym2612"
    },
    {
      "channel": 3,
      "note": 37,
      "start": 0.1926,
      "duration": 0.0022,
      "velocity": 95,
      "chip": "ym2612"
    },
    {
      "channel": 0,
      "note": 73,
      "start": 0.1935,
      "duration": 0.0005,
      "velocity": 105,
      "chip": "ym2612"
    },
    {
      "channel": 0,
      "note": 76,
      "start": 0.1943,
      "duration": 0.0006,
      "velocity": 105,
      "chip": "ym2612"
    },
    {
      "channel": 2,
      "note": 49,
      "start": 0.1945,
      "duration": 0.0001,
      "velocity": 97,
      "chip": "ym2612"
    },
    {
      "channel": 0,
      "note": 80,
      "start": 0.1952,
      "duration": 0.0018,
      "velocity": 105,
      "chip": "ym2612"
    },
    {
      "channel": 2,
      "note": 56,
      "start": 0.1956,
      "duration": 0.001,
      "velocity": 97,
      "chip": "ym2612"
    },
    {
      "channel": 4,
      "note": 68,
      "start": 0.1965,
      "duration": 0.0014,
      "velocity": 105,
      "chip": "ym2612"
    },
    {
      "channel": 0,
      "note": 85,
      "start": 0.1973,
      "duration": 0.0066,
      "velocity": 105,
      "chip": "ym2612"
    },
    {
      "channel": 2,
      "note": 49,
      "start": 0.1975,
      "duration": 0.0014,
      "velocity": 97,
      "chip": "ym2612"
    },
    {
      "channel": 3,
      "note": 44,
      "start": 0.1979,
      "duration": 0.002,
      "velocity": 95,
      "chip": "ym2612"
    },
    {
      "channel": 4,
      "note": 73,
      "start": 0.1982,
      "duration": 0.0002,
      "velocity": 105,
      "chip": "ym2612"
    },
    {
      "channel": 4,
      "note": 76,
      "start": 0.1988,
      "duration": 0.0006,
      "velocity": 105,
      "chip": "ym2612"
    },
    {
      "channel": 2,
      "note": 49,
      "start": 0.1994,
      "duration": 0.0004,
      "velocity": 97,
      "chip": "ym2612"
    },
    {
      "channel": 4,
      "note": 80,
      "start": 0.1997,
      "duration": 0.0007,
      "velocity": 105,
      "chip": "ym2612"
    },
    {
      "channel": 2,
      "note": 56,
      "start": 0.2002,
      "duration": 0.0004,
      "velocity": 97,
      "chip": "ym2612"
    },
    {
      "channel": 4,
      "note": 85,
      "start": 0.2005,
      "duration": 0.0082,
      "velocity": 105,
      "chip": "ym2612"
    },
    {
      "channel": 2,
      "note": 49,
      "start": 0.201,
      "duration": 0.0007,
      "velocity": 97,
      "chip": "ym2612"
    },
    {
      "channel": 3,
      "note": 37,
      "start": 0.2012,
      "duration": 0.0017,
      "velocity": 95,
      "chip": "ym2612"
    },
    {
      "channel": 2,
      "note": 49,
      "start": 0.2026,
      "duration": 0.0001,
      "velocity": 97,
      "chip": "ym2612"
    },
    {
      "channel": 2,
      "note": 56,
      "start": 0.2032,
      "duration": 0.0005,
      "velocity": 97,
      "chip": "ym2612"
    },
    {
      "channel": 0,
      "note": 97,
      "start": 0.2047,
      "duration": 0.0009,
      "velocity": 115,
      "chip": "ym2612"
    },
    {
      "channel": 2,
      "note": 54,
      "start": 0.2051,
      "duration": 0.0013,
      "velocity": 97,
      "chip": "ym2612"
    },
    {
      "channel": 3,
      "note": 44,
      "start": 0.2054,
      "duration": 0.001,
      "velocity": 95,
      "chip": "ym2612"
    },
    {
      "channel": 0,
      "note": 99,
      "start": 0.206,
      "duration": 0.0005,
      "velocity": 115,
      "chip": "ym2612"
    },
    {
      "channel": 0,
      "note": 100,
      "start": 0.207,
      "duration": 0.0016,
      "velocity": 115,
      "chip": "ym2612"
    },
    {
      "channel": 2,
      "note": 61,
      "start": 0.2075,
      "duration": 0.0009,
      "velocity": 97,
      "chip": "ym2612"
    },
    {
      "channel": 3,
      "note": 37,
      "start": 0.2078,
      "duration": 0.0008,
      "velocity": 95,
      "chip": "ym2612"
    },
    {
      "channel": 0,
      "note": 102,
      "start": 0.209,
      "duration": 0.002,
      "velocity": 115,
      "chip": "ym2612"
    },
    {
      "channel": 2,
      "note": 56,
      "start": 0.2092,
      "duration": 0.0017,
      "velocity": 97,
      "chip": "ym2612"
    },
    {
      "channel": 3,
      "note": 37,
      "start": 0.2095,
      "duration": 0.0017,
      "velocity": 95,
      "chip": "ym2612"
    },
    {
      "channel": 4,
      "note": 97,
      "start": 0.2105,
      "duration": 0.0009,
      "velocity": 115,
      "chip": "ym2612"
    },
    {
      "channel": 0,
      "note": 104,
      "start": 0.2118,
      "duration": 0.0066,
      "velocity": 115,
      "chip": "ym2612"
    },
    {
      "channel": 1,
      "note": 73,
      "start": 0.212,
      "duration": 0.0031,
      "velocity": 115,
      "chip": "ym2612"
    },
    {
      "channel": 2,
      "note": 49,
      "start": 0.2122,
      "duration": 0.0012,
      "velocity": 97,
      "chip": "ym2612"
    },
    {
      "channel": 3,
      "note": 37,
      "start": 0.2126,
      "duration": 0.0012,
      "velocity": 95,
      "chip": "ym2612"
    },
    {
      "channel": 4,
      "note": 104,
      "start": 0.2131,
      "duration": 0.0074,
      "velocity": 115,
      "chip": "ym2612"
    },
    {
      "channel": 2,
      "note": 49,
      "start": 0.2136,
      "duration": 0.0,
      "velocity": 97,
      "chip": "ym2612"
    },
    {
      "channel": 2,
      "note": 56,
      "start": 0.2142,
      "duration": 0.0001,
      "velocity": 97,
      "chip": "ym2612"
    },
    {
      "channel": 2,
      "note": 49,
      "start": 0.2147,
      "duration": 0.0007,
      "velocity": 97,
      "chip": "ym2612"
    },
    {
      "channel": 3,
      "note": 44,
      "start": 0.2151,
      "duration": 0.0011,
      "velocity": 95,
      "chip": "ym2612"
    },
    {
      "channel": 1,
      "note": 63,
      "start": 0.2154,
      "duration": 0.0004,
      "velocity": 115,
      "chip": "ym2612"
    },
    {
      "channel": 2,
      "note": 49,
      "start": 0.2157,
      "duration": 0.0001,
      "velocity": 97,
      "chip": "ym2612"
    },
    {
      "channel": 1,
      "note": 64,
      "start": 0.2161,
      "duration": 0.0007,
      "velocity": 115,
      "chip": "ym2612"
    },
    {
      "channel": 2,
      "note": 56,
      "start": 0.2164,
      "duration": 0.0001,
      "velocity": 97,
      "chip": "ym2612"
    },
    {
      "channel": 1,
      "note": 73,
      "start": 0.2169,
      "duration": 0.0108,
      "velocity": 115,
      "chip": "ym2612"
    },
    {
      "channel": 2,
      "note": 49,
      "start": 0.2171,
      "duration": 0.0004,
      "velocity": 97,
      "chip": "ym2612"
    },
    {
      "channel": 3,
      "note": 37,
      "start": 0.2174,
      "duration": 0.0006,
      "velocity": 95,
      "chip": "ym2612"
    },
    {
      "channel": 2,
      "note": 49,
      "start": 0.2178,
      "duration": 0.0001,
      "velocity": 97,
      "chip": "ym2612"
    },
    {
      "channel": 2,
      "note": 56,
      "start": 0.2182,
      "duration": 0.0001,
      "velocity": 97,
      "chip": "ym2612"
    },
    {
      "channel": 2,
      "note": 49,
      "start": 0.2186,
      "duration": 0.0003,
      "velocity": 97,
      "chip": "ym2612"
    },
    {
      "channel": 3,
      "note": 44,
      "start": 0.2189,
      "duration": 0.0006,
      "velocity": 95,
      "chip": "ym2612"
    },
    {
      "channel": 2,
      "note": 56,
      "start": 0.2192,
      "duration": 0.0001,
      "velocity": 97,
      "chip": "ym2612"
    },
    {
      "channel": 0,
      "note": 97,
      "start": 0.2197,
      "duration": 0.0025,
      "velocity": 115,
      "chip": "ym2612"
    },
    {
      "channel": 2,
      "note": 49,
      "start": 0.22,
      "duration": 0.0008,
      "velocity": 97,
      "chip": "ym2612"
    },
    {
      "channel": 3,
      "note": 37,
      "start": 0.2203,
      "duration": 0.0006,
      "velocity": 95,
      "chip": "ym2612"
    },
    {
      "channel": 2,
      "note": 56,
      "start": 0.2212,
      "duration": 0.0009,
      "velocity": 97,
      "chip": "ym2612"
    },
    {
      "channel": 3,
      "note": 37,
      "start": 0.2215,
      "duration": 0.0007,
      "velocity": 95,
      "chip": "ym2612"
    },
    {
      "channel": 0,
      "note": 106,
      "start": 0.2226,
      "duration": 0.0034,
      "velocity": 115,
      "chip": "ym2612"
    },
    {
      "channel": 2,
      "note": 54,
      "start": 0.2229,
      "duration": 0.001,
      "velocity": 97,
      "chip": "ym2612"
    },
    {
      "channel": 3,
      "note": 42,
      "start": 0.2233,
      "duration": 0.0014,
      "velocity": 95,
      "chip": "ym2612"
    },
    {
      "channel": 4,
      "note": 97,
      "start": 0.2238,
      "duration": 0.001,
      "velocity": 115,
      "chip": "ym2612"
    },
    {
      "channel": 2,
      "note": 54,
      "start": 0.2242,
      "duration": 0.0001,
      "velocity": 97,
      "chip": "ym2612"
    },
    {
      "channel": 2,
      "note": 61,
      "start": 0.2254,
      "duration": 0.0004,
      "velocity": 97,
      "chip": "ym2612"
    },
    {
      "channel": 4,
      "note": 106,
      "start": 0.2257,
      "duration": 0.0035,
      "velocity": 115,
      "chip": "ym2612"
    },
    {
      "channel": 0,
      "note": 102,
      "start": 0.2263,
      "duration": 0.0044,
      "velocity": 115,
      "chip": "ym2612"
    },
    {
      "channel": 2,
      "note": 54,
      "start": 0.2268,
      "duration": 0.0008,
      "velocity": 97,
      "chip": "ym2612"
    },
    {
      "channel": 3,
      "note": 37,
      "start": 0.2273,
      "duration": 0.0018,
      "velocity": 95,
      "chip": "ym2612"
    },
    {
      "channel": 1,
      "note": 69,
      "start": 0.2282,
      "duration": 0.0023,
      "velocity": 115,
      "chip": "ym2612"
    },
    {
      "channel": 2,
      "note": 54,
      "start": 0.2284,
      "duration": 0.0003,
      "velocity": 97,
      "chip": "ym2612"
    },
    {
      "channel": 2,
      "note": 61,
      "start": 0.2296,
      "duration": 0.0007,
      "velocity": 97,
      "chip": "ym2612"
    },
    {
      "channel": 4,
      "note": 102,
      "start": 0.2299,
      "duration": 0.0051,
      "velocity": 115,
      "chip": "ym2612"
    },
    {
      "channel": 0,
      "note": 97,
      "start": 0.2309,
      "duration": 0.0013,
      "velocity": 115,
      "chip": "ym2612"
    },
    {
      "channel": 1,
      "note": 70,
      "start": 0.2312,
      "duration": 0.0011,
      "velocity": 115,
      "chip": "ym2612"
    },
    {
      "channel": 2,
      "note": 54,
      "start": 0.2314,
      "duration": 0.0007,
      "velocity": 97,
      "chip": "ym2612"
    },
    {
      "channel": 3,
      "note": 42,
      "start": 0.2317,
      "duration": 0.0028,
      "velocity": 95,
      "chip": "ym2612"
    },
    {
      "channel": 0,
      "note": 100,
      "start": 0.2328,
      "duration": 0.0039,
      "velocity": 115,
      "chip": "ym2612"
    },
    {
      "channel": 1,
      "note": 73,
      "start": 0.233,
      "duration": 0.0042,
      "velocity": 115,
      "chip": "ym2612"
    },
    {
      "channel": 2,
      "note": 54,
      "start": 0.2333,
      "duration": 0.0007,
      "velocity": 97,
      "chip": "ym2612"
    },
    {
      "channel": 2,
      "note": 61,
      "start": 0.235,
      "duration": 0.0004,
      "velocity": 97,
      "chip": "ym2612"
    },
    {
      "channel": 4,
      "note": 97,
      "start": 0.2353,
      "duration": 0.0008,
      "velocity": 115,
      "chip": "ym2612"
    },
    {
      "channel": 2,
      "note": 59,
      "start": 0.2356,
      "duration": 0.0017,
      "velocity": 97,
      "chip": "ym2612"
    },
    {
      "channel": 3,
      "note": 37,
      "start": 0.2359,
      "duration": 0.0009,
      "velocity": 95,
      "chip": "ym2612"
    },
    {
      "channel": 4,
      "note": 100,
      "start": 0.2366,
      "duration": 0.0059,
      "velocity": 115,
      "chip": "ym2612"
    },
    {
      "channel": 0,
      "note": 100,
      "start": 0.2378,
      "duration": 0.0014,
      "velocity": 115,
      "chip": "ym2612"
    },
    {
      "channel": 1,
      "note": 71,
      "start": 0.2379,
      "duration": 0.0013,
      "velocity": 115,
      "chip": "ym2612"
    },
    {
      "channel": 2,
      "note": 54,
      "start": 0.2382,
      "duration": 0.0007,
      "velocity": 97,
      "chip": "ym2612"
    },
    {
      "channel": 3,
      "note": 42,
      "start": 0.2385,
      "duration": 0.0008,
      "velocity": 95,
      "chip": "ym2612"
    },
    {
      "channel": 0,
      "note": 99,
      "start": 0.2397,
      "duration": 0.0012,
      "velocity": 115,
      "chip": "ym2612"
    },
    {
      "channel": 1,
      "note": 69,
      "start": 0.24,
      "duration": 0.0011,
      "velocity": 115,
      "chip": "ym2612"
    },
    {
      "channel": 2,
      "note": 56,
      "start": 0.2402,
      "duration": 0.0007,
      "velocity": 97,
      "chip": "ym2612"
    },
    {
      "channel": 3,
      "note": 42,
      "start": 0.2406,
      "duration": 0.0006,
      "velocity": 95,
      "chip": "ym2612"
    },
    {
      "channel": 0,
      "note": 100,
      "start": 0.2415,
      "duration": 0.0084,
      "velocity": 115,
      "chip": "ym2612"
    },
    {
      "channel": 1,
      "note": 68,
      "start": 0.2418,
      "duration": 0.0045,
      "velocity": 115,
      "chip": "ym2612"
    },
    {
      "channel": 2,
      "note": 49,
      "start": 0.242,
      "duration": 0.0009,
      "velocity": 97,
      "chip": "ym2612"
    },
    {
      "channel": 3,
      "note": 37,
      "start": 0.2423,
      "duration": 0.0015,
      "velocity": 95,
      "chip": "ym2612"
    },
    {
      "channel": 4,
      "note": 100,
      "start": 0.2428,
      "duration": 0.0002,
      "velocity": 115,
      "chip": "ym2612"
    },
    {
      "channel": 2,
      "note": 49,
      "start": 0.2433,
      "duration": 0.0004,
      "velocity": 97,
      "chip": "ym2612"
    },
    {
      "channel": 4,
      "note": 99,
      "start": 0.2436,
      "duration": 0.0003,
      "velocity": 115,
      "chip": "ym2612"
    },
    {
      "channel": 2,
      "note": 56,
      "start": 0.2441,
      "duration": 0.0004,
      "velocity": 97,
      "chip": "ym2612"
    },
    {
      "channel": 4,
      "note": 100,
      "start": 0.2444,
      "duration": 0.0109,
      "velocity": 115,
      "chip": "ym2612"
    },
    {
      "channel": 2,
      "note": 49,
      "start": 0.2448,
      "duration": 0.0005,
      "velocity": 97,
      "chip": "ym2612"
    },
    {
      "channel": 3,
      "note": 44,
      "start": 0.2451,
      "duration": 0.0007,
      "velocity": 95,
      "chip": "ym2612"
    },
    {
      "channel": 2,
      "note": 49,
      "start": 0.2456,
      "duration": 0.0001,
      "velocity": 97,
      "chip": "ym2612"
    },
    {
      "channel": 2,
      "note": 56,
      "start": 0.2462,
      "duration": 0.0,
      "velocity": 97,
      "chip": "ym2612"
    },
    {
      "channel": 1,
      "note": 70,
      "start": 0.2466,
      "duration": 0.0274,
      "velocity": 115,
      "chip": "ym2612"
    },
    {
      "channel": 2,
      "note": 49,
      "start": 0.2469,
      "duration": 0.0006,
      "velocity": 97,
      "chip": "ym2612"
    },
    {
      "channel": 3,
      "note": 37,
      "start": 0.2472,
      "duration": 0.001,
      "velocity": 95,
      "chip": "ym2612"
    },
    {
      "channel": 2,
      "note": 49,
      "start": 0.2477,
      "duration": 0.0001,
      "velocity": 97,
      "chip": "ym2612"
    },
    {
      "channel": 2,
      "note": 56,
      "start": 0.2487,
      "duration": 0.0001,
      "velocity": 97,
      "chip": "ym2612"
    },
    {
      "channel": 2,
      "note": 49,
      "start": 0.2491,
      "duration": 0.0005,
      "velocity": 97,
      "chip": "ym2612"
    },
    {
      "channel": 3,
      "note": 44,
      "start": 0.2495,
      "duration": 0.0007,
      "velocity": 95,
      "chip": "ym2612"
    },
    {
      "channel": 2,
      "note": 56,
      "start": 0.2498,
      "duration": 0.0003,
      "velocity": 97,
      "chip": "ym2612"
    },
    {
      "channel": 2,
      "note": 49,
      "start": 0.2503,
      "duration": 0.0017,
      "velocity": 97,
      "chip": "ym2612"
    },
    {
      "channel": 3,
      "note": 37,
      "start": 0.2507,
      "duration": 0.0015,
      "velocity": 95,
      "chip": "ym2612"
    },
    {
      "channel": 2,
      "note": 56,
      "start": 0.2524,
      "duration": 0.0007,
      "velocity": 97,
      "chip": "ym2612"
    },
    {
      "channel": 3,
      "note": 37,
      "start": 0.2528,
      "duration": 0.0005,
      "velocity": 95,
      "chip": "ym2612"
    },
    {
      "channel": 0,
      "note": 68,
      "start": 0.2542,
      "duration": 0.0015,
      "velocity": 105,
      "chip": "ym2612"
    },
    {
      "channel": 2,
      "note": 49,
      "start": 0.2547,
      "duration": 0.0014,
      "velocity": 97,
      "chip": "ym2612"
    },
    {
      "channel": 3,
      "note": 37,
      "start": 0.2551,
      "duration": 0.0024,
      "velocity": 95,
      "chip": "ym2612"
    },
    {
      "channel": 0,
      "note": 73,
      "start": 0.256,
      "duration": 0.0005,
      "velocity": 105,
      "chip": "ym2612"
    },
    {
      "channel": 0,
      "note": 76,
      "start": 0.2568,
      "duration": 0.0007,
      "velocity": 105,
      "chip": "ym2612"
    },
    {
      "channel": 2,
      "note": 49,
      "start": 0.2571,
      "duration": 0.0001,
      "velocity": 97,
      "chip": "ym2612"
    },
    {
      "channel": 0,
      "note": 80,
      "start": 0.2578,
      "duration": 0.0016,
      "velocity": 105,
      "chip": "ym2612"
    },
    {
      "channel": 2,
      "note": 56,
      "start": 0.258,
      "duration": 0.0009,
      "velocity": 97,
      "chip": "ym2612"
    },
    {
      "channel": 4,
      "note": 68,
      "start": 0.2589,
      "duration": 0.0014,
      "velocity": 105,
      "chip": "ym2612"
    },
    {
      "channel": 0,
      "note": 85,
      "start": 0.2596,
      "duration": 0.0067,
      "velocity": 105,
      "chip": "ym2612"
    },
    {
      "channel": 2,
      "note": 49,
      "start": 0.2599,
      "duration": 0.0012,
      "velocity": 97,
      "chip": "ym2612"
    },
    {
      "channel": 3,
      "note": 44,
      "start": 0.2602,
      "duration": 0.002,
      "velocity": 95,
      "chip": "ym2612"
    },
    {
      "channel": 4,
      "note": 73,
      "start": 0.2605,
      "duration": 0.0002,
      "velocity": 105,
      "chip": "ym2612"
    },
    {
      "channel": 4,
      "note": 76,
      "start": 0.261,
      "duration": 0.0007,
      "velocity": 105,
      "chip": "ym2612"
    },
    {
      "channel": 2,
      "note": 49,
      "start": 0.2616,
      "duration": 0.0005,
      "velocity": 97,
      "chip": "ym2612"
    },
    {
      "channel": 4,
      "note": 80,
      "start": 0.262,
      "duration": 0.0006,
      "velocity": 105,
      "chip": "ym2612"
    },
    {
      "channel": 2,
      "note": 56,
      "start": 0.2626,
      "duration": 0.0004,
      "velocity": 97,
      "chip": "ym2612"
    },
    {
      "channel": 4,
      "note": 85,
      "start": 0.2628,
      "duration": 0.0091,
      "velocity": 105,
      "chip": "ym2612"
    },
    {
      "channel": 2,
      "note": 49,
      "start": 0.2634,
      "duration": 0.0008,
      "velocity": 97,
      "chip": "ym2612"
    },
    {
      "channel": 3,
      "note": 37,
      "start": 0.2637,
      "duration": 0.0018,
      "velocity": 95,
      "chip": "ym2612"
    },
    {
      "channel": 2,
      "note": 49,
      "start": 0.2651,
      "duration": 0.0001,
      "velocity": 97,
      "chip": "ym2612"
    },
    {
      "channel": 2,
      "note": 56,
      "start": 0.2658,
      "duration": 0.0004,
      "velocity": 97,
      "chip": "ym2612"
    },
    {
      "channel": 0,
      "note": 97,
      "start": 0.2671,
      "duration": 0.0011,
      "velocity": 115,
      "chip": "ym2612"
    },
    {
      "channel": 2,
      "note": 54,
      "start": 0.2676,
      "duration": 0.0016,
      "velocity": 97,
      "chip": "ym2612"
    },
    {
      "channel": 3,
      "note": 44,
      "start": 0.2679,
      "duration": 0.0011,
      "velocity": 95,
      "chip": "ym2612"
    },
    {
      "channel": 0,
      "note": 99,
      "start": 0.2685,
      "duration": 0.0005,
      "velocity": 115,
      "chip": "ym2612"
    },
    {
      "channel": 0,
      "note": 100,
      "start": 0.2695,
      "duration": 0.0023,
      "velocity": 115,
      "chip": "ym2612"
    },
    {
      "channel": 2,
      "note": 61,
      "start": 0.2699,
      "duration": 0.0016,
      "velocity": 97,
      "chip": "ym2612"
    },
    {
      "channel": 3,
      "note": 37,
      "start": 0.2702,
      "duration": 0.0016,
      "velocity": 95,
      "chip": "ym2612"
    },
    {
      "channel": 0,
      "note": 104,
      "start": 0.2721,
      "duration": 0.0017,
      "velocity": 115,
      "chip": "ym2612"
    },
    {
      "channel": 2,
      "note": 56,
      "start": 0.2723,
      "duration": 0.0015,
      "velocity": 97,
      "chip": "ym2612"
    },
    {
      "channel": 3,
      "note": 37,
      "start": 0.2727,
      "duration": 0.0013,
      "velocity": 95,
      "chip": "ym2612"
    },
    {
      "channel": 4,
      "note": 97,
      "start": 0.2735,
      "duration": 0.0006,
      "velocity": 115,
      "chip": "ym2612"
    },
    {
      "channel": 0,
      "note": 102,
      "start": 0.2744,
      "duration": 0.0106,
      "velocity": 115,
      "chip": "ym2612"
    },
    {
      "channel": 1,
      "note": 74,
      "start": 0.2752,
      "duration": 0.0023,
      "velocity": 111,
      "chip": "ym2612"
    },
    {
      "channel": 2,
      "note": 50,
      "start": 0.2755,
      "duration": 0.0012,
      "velocity": 97,
      "chip": "ym2612"
    },
    {
      "channel": 3,
      "note": 38,
      "start": 0.2759,
      "duration": 0.0017,
      "velocity": 95,
      "chip": "ym2612"
    },
    {
      "channel": 4,
      "note": 99,
      "start": 0.2761,
      "duration": 0.0003,
      "velocity": 115,
      "chip": "ym2612"
    },
    {
      "channel": 4,
      "note": 100,
      "start": 0.2766,
      "duration": 0.0002,
      "velocity": 115,
      "chip": "ym2612"
    },
    {
      "channel": 2,
      "note": 50,
      "start": 0.277,
      "duration": 0.0004,
      "velocity": 97,
      "chip": "ym2612"
    },
    {
      "channel": 4,
      "note": 104,
      "start": 0.2773,
      "duration": 0.0004,
      "velocity": 115,
      "chip": "ym2612"
    },
    {
      "channel": 1,
      "note": 81,
      "start": 0.278,
      "duration": 0.0008,
      "velocity": 111,
      "chip": "ym2612"
    },
    {
      "channel": 2,
      "note": 57,
      "start": 0.2783,
      "duration": 0.0003,
      "velocity": 97,
      "chip": "ym2612"
    },
    {
      "channel": 4,
      "note": 102,
      "start": 0.2785,
      "duration": 0.0102,
      "velocity": 115,
      "chip": "ym2612"
    },
    {
      "channel": 1,
      "note": 78,
      "start": 0.279,
      "duration": 0.0009,
      "velocity": 111,
      "chip": "ym2612"
    },
    {
      "channel": 2,
      "note": 50,
      "start": 0.2793,
      "duration": 0.0011,
      "velocity": 97,
      "chip": "ym2612"
    },
    {
      "channel": 3,
      "note": 45,
      "start": 0.2797,
      "duration": 0.0018,
      "velocity": 95,
      "chip": "ym2612"
    },
    {
      "channel": 1,
      "note": 74,
      "start": 0.2803,
      "duration": 0.0002,
      "velocity": 111,
      "chip": "ym2612"
    },
    {
      "channel": 1,
      "note": 78,
      "start": 0.2809,
      "duration": 0.0004,
      "velocity": 111,
      "chip": "ym2612"
    },
    {
      "channel": 2,
      "note": 50,
      "start": 0.2811,
      "duration": 0.0001,
      "velocity": 97,
      "chip": "ym2612"
    },
    {
      "channel": 1,
      "note": 81,
      "start": 0.2819,
      "duration": 0.0004,
      "velocity": 111,
      "chip": "ym2612"
    },
    {
      "channel": 2,
      "note": 57,
      "start": 0.2821,
      "duration": 0.0001,
      "velocity": 97,
      "chip": "ym2612"
    },
    {
      "channel": 1,
      "note": 86,
      "start": 0.2828,
      "duration": 0.0075,
      "velocity": 111,
      "chip": "ym2612"
    },
    {
      "channel": 2,
      "note": 50,
      "start": 0.283,
      "duration": 0.0004,
      "velocity": 97,
      "chip": "ym2612"
    },
    {
      "channel": 3,
      "note": 38,
      "start": 0.2833,
      "duration": 0.001,
      "velocity": 95,
      "chip": "ym2612"
    },
    {
      "channel": 2,
      "note": 50,
      "start": 0.2839,
      "duration": 0.0001,
      "velocity": 97,
      "chip": "ym2612"
    },
    {
      "channel": 2,
      "note": 57,
      "start": 0.2846,
      "duration": 0.0002,
      "velocity": 97,
      "chip": "ym2612"
    },
    {
      "channel": 0,
      "note": 98,
      "start": 0.2853,
      "duration": 0.0048,
      "velocity": 115,
      "chip": "ym2612"
    },
    {
      "channel": 2,
      "note": 50,
      "start": 0.2861,
      "duration": 0.0008,
      "velocity": 97,
      "chip": "ym2612"
    },
    {
      "channel": 3,
      "note": 45,
      "start": 0.2863,
      "duration": 0.0006,
      "velocity": 95,
      "chip": "ym2612"
    },
    {
      "channel": 2,
      "note": 50,
      "start": 0.2876,
      "duration": 0.0007,
      "velocity": 97,
      "chip": "ym2612"
    },
    {
      "channel": 3,
      "note": 38,
      "start": 0.288,
      "duration": 0.0007,
      "velocity": 95,
      "chip": "ym2612"
    },
    {
      "channel": 2,
      "note": 57,
      "start": 0.2893,
      "duration": 0.001,
      "velocity": 97,
      "chip": "ym2612"
    },
    {
      "channel": 3,
      "note": 38,
      "start": 0.2896,
      "duration": 0.0008,
      "velocity": 95,
      "chip": "ym2612"
    },
    {
      "channel": 4,
      "note": 98,
      "start": 0.2899,
      "duration": 0.0027,
      "velocity": 115,
      "chip": "ym2612"
    },
    {
      "channel": 0,
      "note": 105,
      "start": 0.2906,
      "duration": 0.0092,
      "velocity": 115,
      "chip": "ym2612"
    },
    {
      "channel": 1,
      "note": 75,
      "start": 0.291,
      "duration": 0.0016,
      "velocity": 111,
      "chip": "ym2612"
    },
    {
      "channel": 2,
      "note": 51,
      "start": 0.2913,
      "duration": 0.0007,
      "velocity": 97,
      "chip": "ym2612"
    },
    {
      "channel": 3,
      "note": 39,
      "start": 0.2916,
      "duration": 0.0011,
      "velocity": 95,
      "chip": "ym2612"
    },
    {
      "channel": 2,
      "note": 51,
      "start": 0.2923,
      "duration": 0.0001,
      "velocity": 97,
      "chip": "ym2612"
    },
    {
      "channel": 1,
      "note": 81,
      "start": 0.2931,
      "duration": 0.0007,
      "velocity": 111,
      "chip": "ym2612"
    },
    {
      "channel": 2,
      "note": 57,
      "start": 0.2933,
      "duration": 0.0003,
      "velocity": 97,
      "chip": "ym2612"
    },
    {
      "channel": 4,
      "note": 105,
      "start": 0.2935,
      "duration": 0.011,
      "velocity": 115,
      "chip": "ym2612"
    },
    {
      "channel": 1,
      "note": 78,
      "start": 0.2941,
      "duration": 0.0008,
      "velocity": 111,
      "chip": "ym2612"
    },
    {
      "channel": 2,
      "note": 51,
      "start": 0.2943,
      "duration": 0.001,
      "velocity": 97,
      "chip": "ym2612"
    },
    {
      "channel": 3,
      "note": 45,
      "start": 0.2946,
      "duration": 0.0018,
      "velocity": 95,
      "chip": "ym2612"
    },
    {
      "channel": 1,
      "note": 75,
      "start": 0.2953,
      "duration": 0.0002,
      "velocity": 111,
      "chip": "ym2612"
    },
    {
      "channel": 1,
      "note": 78,
      "start": 0.2959,
      "duration": 0.0005,
      "velocity": 111,
      "chip": "ym2612"
    },
    {
      "channel": 2,
      "note": 51,
      "start": 0.2961,
      "duration": 0.0001,
      "velocity": 97,
      "chip": "ym2612"
    },
    {
      "channel": 1,
      "note": 81,
      "start": 0.2966,
      "duration": 0.0005,
      "velocity": 111,
      "chip": "ym2612"
    },
    {
      "channel": 2,
      "note": 57,
      "start": 0.2969,
      "duration": 0.0,
      "velocity": 97,
      "chip": "ym2612"
    },
    {
      "channel": 1,
      "note": 87,
      "start": 0.2973,
      "duration": 0.0088,
      "velocity": 111,
      "chip": "ym2612"
    },
    {
      "channel": 2,
      "note": 51,
      "start": 0.2976,
      "duration": 0.0005,
      "velocity": 97,
      "chip": "ym2612"
    },
    {
      "channel": 3,
      "note": 39,
      "start": 0.298,
      "duration": 0.0012,
      "velocity": 95,
      "chip": "ym2612"
    },
    {
      "channel": 2,
      "note": 51,
      "start": 0.2986,
      "duration": 0.0001,
      "velocity": 97,
      "chip": "ym2612"
    },
    {
      "channel": 2,
      "note": 57,
      "start": 0.2994,
      "duration": 0.0003,
      "velocity": 97,
      "chip": "ym2612"
    },
    {
      "channel": 0,
      "note": 102,
      "start": 0.3002,
      "duration": 0.0057,
      "velocity": 115,
      "chip": "ym2612"
    },
    {
      "channel": 2,
      "note": 51,
      "start": 0.3008,
      "duration": 0.0008,
      "velocity": 97,
      "chip": "ym2612"
    },
    {
      "channel": 3,
      "note": 45,
      "start": 0.3011,
      "duration": 0.0007,
      "velocity": 95,
      "chip": "ym2612"
    },
    {
      "channel": 2,
      "note": 51,
      "start": 0.3025,
      "duration": 0.0017,
      "velocity": 97,
      "chip": "ym2612"
    },
    {
      "channel": 3,
      "note": 39,
      "start": 0.3028,
      "duration": 0.0016,
      "velocity": 95,
      "chip": "ym2612"
    },
    {
      "channel": 2,
      "note": 57,
      "start": 0.3051,
      "duration": 0.001,
      "velocity": 97,
      "chip": "ym2612"
    },
    {
      "channel": 3,
      "note": 39,
      "start": 0.3054,
      "duration": 0.0008,
      "velocity": 95,
      "chip": "ym2612"
    },
    {
      "channel": 4,
      "note": 102,
      "start": 0.3057,
      "duration": 0.0026,
      "velocity": 115,
      "chip": "ym2612"
    },
    {
      "channel": 0,
      "note": 104,
      "start": 0.3066,
      "duration": 0.0099,
      "velocity": 115,
      "chip": "ym2612"
    },
    {
      "channel": 1,
      "note": 76,
      "start": 0.3071,
      "duration": 0.0013,
      "velocity": 111,
      "chip": "ym2612"
    },
    {
      "channel": 2,
      "note": 52,
      "start": 0.3073,
      "duration": 0.0006,
      "velocity": 97,
      "chip": "ym2612"
    },
    {
      "channel": 3,
      "note": 40,
      "start": 0.3076,
      "duration": 0.0009,
      "velocity": 95,
      "chip": "ym2612"
    },
    {
      "channel": 2,
      "note": 52,
      "start": 0.3081,
      "duration": 0.0001,
      "velocity": 97,
      "chip": "ym2612"
    },
    {
      "channel": 1,
      "note": 83,
      "start": 0.3087,
      "duration": 0.0007,
      "velocity": 111,
      "chip": "ym2612"
    },
    {
      "channel": 2,
      "note": 59,
      "start": 0.309,
      "duration": 0.0003,
      "velocity": 97,
      "chip": "ym2612"
    },
    {
      "channel": 4,
      "note": 104,
      "start": 0.3092,
      "duration": 0.0134,
      "velocity": 115,
      "chip": "ym2612"
    },
    {
      "channel": 1,
      "note": 80,
      "start": 0.3097,
      "duration": 0.0006,
      "velocity": 111,
      "chip": "ym2612"
    },
    {
      "channel": 2,
      "note": 52,
      "start": 0.31,
      "duration": 0.0009,
      "velocity": 97,
      "chip": "ym2612"
    },
    {
      "channel": 3,
      "note": 47,
      "start": 0.3103,
      "duration": 0.0016,
      "velocity": 95,
      "chip": "ym2612"
    },
    {
      "channel": 1,
      "note": 76,
      "start": 0.3108,
      "duration": 0.0002,
      "velocity": 111,
      "chip": "ym2612"
    },
    {
      "channel": 1,
      "note": 80,
      "start": 0.3113,
      "duration": 0.0005,
      "velocity": 111,
      "chip": "ym2612"
    },
    {
      "channel": 2,
      "note": 52,
      "start": 0.3116,
      "duration": 0.0001,
      "velocity": 97,
      "chip": "ym2612"
    },
    {
      "channel": 1,
      "note": 83,
      "start": 0.3123,
      "duration": 0.0005,
      "velocity": 111,
      "chip": "ym2612"
    },
    {
      "channel": 2,
      "note": 59,
      "start": 0.3126,
      "duration": 0.0001,
      "velocity": 97,
      "chip": "ym2612"
    },
    {
      "channel": 1,
      "note": 88,
      "start": 0.3132,
      "duration": 0.0102,
      "velocity": 111,
      "chip": "ym2612"
    },
    {
      "channel": 2,
      "note": 52,
      "start": 0.3134,
      "duration": 0.0007,
      "velocity": 97,
      "chip": "ym2612"
    },
    {
      "channel": 3,
      "note": 40,
      "start": 0.3137,
      "duration": 0.0017,
      "velocity": 95,
      "chip": "ym2612"
    },
    {
      "channel": 2,
      "note": 52,
      "start": 0.3147,
      "duration": 0.0003,
      "velocity": 97,
      "chip": "ym2612"
    },
    {
      "channel": 2,
      "note": 59,
      "start": 0.3158,
      "duration": 0.0003,
      "velocity": 97,
      "chip": "ym2612"
    },
    {
      "channel": 0,
      "note": 95,
      "start": 0.3168,
      "duration": 0.0064,
      "velocity": 115,
      "chip": "ym2612"
    },
    {
      "channel": 2,
      "note": 52,
      "start": 0.3174,
      "duration": 0.0005,
      "velocity": 97,
      "chip": "ym2612"
    },
    {
      "channel": 3,
      "note": 47,
      "start": 0.3177,
      "duration": 0.0015,
      "velocity": 95,
      "chip": "ym2612"
    },
    {
      "channel": 2,
      "note": 59,
      "start": 0.3189,
      "duration": 0.0002,
      "velocity": 97,
      "chip": "ym2612"
    },
    {
      "channel": 2,
      "note": 52,
      "start": 0.3201,
      "duration": 0.0008,
      "velocity": 97,
      "chip": "ym2612"
    },
    {
      "channel": 3,
      "note": 40,
      "start": 0.3205,
      "duration": 0.0008,
      "velocity": 95,
      "chip": "ym2612"
    },
    {
      "channel": 2,
      "note": 59,
      "start": 0.3221,
      "duration": 0.0012,
      "velocity": 97,
      "chip": "ym2612"
    },
    {
      "channel": 3,
      "note": 40,
      "start": 0.3225,
      "duration": 0.0011,
      "velocity": 95,
      "chip": "ym2612"
    },
    {
      "channel": 4,
      "note": 95,
      "start": 0.3229,
      "duration": 0.0027,
      "velocity": 115,
      "chip": "ym2612"
    },
    {
      "channel": 0,
      "note": 97,
      "start": 0.3238,
      "duration": 0.0076,
      "velocity": 115,
      "chip": "ym2612"
    },
    {
      "channel": 1,
      "note": 73,
      "start": 0.3244,
      "duration": 0.0014,
      "velocity": 111,
      "chip": "ym2612"
    },
    {
      "channel": 2,
      "note": 49,
      "start": 0.3246,
      "duration": 0.0006,
      "velocity": 97,
      "chip": "ym2612"
    },
    {
      "channel": 3,
      "note": 37,
      "start": 0.3249,
      "duration": 0.001,
      "velocity": 95,
      "chip": "ym2612"
    },
    {
      "channel": 2,
      "note": 49,
      "start": 0.3254,
      "duration": 0.0001,
      "velocity": 97,
      "chip": "ym2612"
    },
    {
      "channel": 1,
      "note": 80,
      "start": 0.3264,
      "duration": 0.0007,
      "velocity": 111,
      "chip": "ym2612"
    },
    {
      "channel": 2,
      "note": 56,
      "start": 0.3267,
      "duration": 0.0003,
      "velocity": 97,
      "chip": "ym2612"
    },
    {
      "channel": 4,
      "note": 97,
      "start": 0.3269,
      "duration": 0.0071,
      "velocity": 115,
      "chip": "ym2612"
    },
    {
      "channel": 1,
      "note": 76,
      "start": 0.3274,
      "duration": 0.0007,
      "velocity": 111,
      "chip": "ym2612"
    },
    {
      "channel": 2,
      "note": 49,
      "start": 0.3277,
      "duration": 0.0009,
      "velocity": 97,
      "chip": "ym2612"
    },
    {
      "channel": 3,
      "note": 44,
      "start": 0.328,
      "duration": 0.0015,
      "velocity": 95,
      "chip": "ym2612"
    },
    {
      "channel": 1,
      "note": 73,
      "start": 0.3284,
      "duration": 0.0002,
      "velocity": 111,
      "chip": "ym2612"
    },
    {
      "channel": 1,
      "note": 76,
      "start": 0.329,
      "duration": 0.0005,
      "velocity": 111,
      "chip": "ym2612"
    },
    {
      "channel": 2,
      "note": 49,
      "start": 0.3292,
      "duration": 0.0001,
      "velocity": 97,
      "chip": "ym2612"
    },
    {
      "channel": 1,
      "note": 80,
      "start": 0.33,
      "duration": 0.0004,
      "velocity": 111,
      "chip": "ym2612"
    },
    {
      "channel": 2,
      "note": 56,
      "start": 0.3302,
      "duration": 0.0001,
      "velocity": 97,
      "chip": "ym2612"
    },
    {
      "channel": 1,
      "note": 85,
      "start": 0.3307,
      "duration": 0.0091,
      "velocity": 111,
      "chip": "ym2612"
    },
    {
      "channel": 2,
      "note": 49,
      "start": 0.331,
      "duration": 0.0005,
      "velocity": 97,
      "chip": "ym2612"
    },
    {
      "channel": 3,
      "note": 37,
      "start": 0.3313,
      "duration": 0.0009,
      "velocity": 95,
      "chip": "ym2612"
    },
    {
      "channel": 2,
      "note": 49,
      "start": 0.3318,
      "duration": 0.0001,
      "velocity": 97,
      "chip": "ym2612"
    },
    {
      "channel": 0,
      "note": 99,
      "start": 0.3324,
      "duration": 0.0005,
      "velocity": 115,
      "chip": "ym2612"
    },
    {
      "channel": 2,
      "note": 56,
      "start": 0.3327,
      "duration": 0.0001,
      "velocity": 97,
      "chip": "ym2612"
    },
    {
      "channel": 0,
      "note": 97,
      "start": 0.3331,
      "duration": 0.001,
      "velocity": 115,
      "chip": "ym2612"
    },
    {
      "channel": 2,
      "note": 54,
      "start": 0.3336,
      "duration": 0.0004,
      "velocity": 97,
      "chip": "ym2612"
    },
    {
      "channel": 3,
      "note": 44,
      "start": 0.3339,
      "duration": 0.001,
      "velocity": 95,
      "chip": "ym2612"
    },
    {
      "channel": 0,
      "note": 99,
      "start": 0.3344,
      "duration": 0.0006,
      "velocity": 115,
      "chip": "ym2612"
    },
    {
      "channel": 2,
      "note": 56,
      "start": 0.3349,
      "duration": 0.0002,
      "velocity": 97,
      "chip": "ym2612"
    },
    {
      "channel": 0,
      "note": 100,
      "start": 0.3354,
      "duration": 0.0025,
      "velocity": 115,
      "chip": "ym2612"
    },
    {
      "channel": 2,
      "note": 47,
      "start": 0.3359,
      "duration": 0.0017,
      "velocity": 97,
      "chip": "ym2612"
    },
    {
      "channel": 3,
      "note": 37,
      "start": 0.3362,
      "duration": 0.0017,
      "velocity": 95,
      "chip": "ym2612"
    },
    {
      "channel": 4,
      "note": 99,
      "start": 0.3364,
      "duration": 0.0017,
      "velocity": 115,
      "chip": "ym2612"
    },
    {
      "channel": 0,
      "note": 104,
      "start": 0.3383,
      "duration": 0.0014,
      "velocity": 115,
      "chip": "ym2612"
    },
    {
      "channel": 2,
      "note": 49,
      "start": 0.3388,
      "duration": 0.0012,
      "velocity": 97,
      "chip": "ym2612"
    },
    {
      "channel": 3,
      "note": 37,
      "start": 0.3392,
      "duration": 0.0009,
      "velocity": 95,
      "chip": "ym2612"
    },
    {
      "channel": 4,
      "note": 97,
      "start": 0.3393,
      "duration": 0.0008,
      "velocity": 115,
      "chip": "ym2612"
    },
    {
      "channel": 0,
      "note": 102,
      "start": 0.3404,
      "duration": 0.0099,
      "velocity": 115,
      "chip": "ym2612"
    },
    {
      "channel": 1,
      "note": 74,
      "start": 0.3408,
      "duration": 0.0023,
      "velocity": 111,
      "chip": "ym2612"
    },
    {
      "channel": 2,
      "note": 50,
      "start": 0.3411,
      "duration": 0.0012,
      "velocity": 97,
      "chip": "ym2612"
    },
    {
      "channel": 3,
      "note": 38,
      "start": 0.3413,
      "duration": 0.0018,
      "velocity": 95,
      "chip": "ym2612"
    },
    {
      "channel": 4,
      "note": 99,
      "start": 0.3416,
      "duration": 0.0003,
      "velocity": 115,
      "chip": "ym2612"
    },
    {
      "channel": 4,
      "note": 100,
      "start": 0.3421,
      "duration": 0.0003,
      "velocity": 115,
      "chip": "ym2612"
    },
    {
      "channel": 2,
      "note": 50,
      "start": 0.3426,
      "duration": 0.0003,
      "velocity": 97,
      "chip": "ym2612"
    },
    {
      "channel": 4,
      "note": 104,
      "start": 0.3429,
      "duration": 0.0004,
      "velocity": 115,
      "chip": "ym2612"
    },
    {
      "channel": 1,
      "note": 81,
      "start": 0.3436,
      "duration": 0.0007,
      "velocity": 111,
      "chip": "ym2612"
    },
    {
      "channel": 2,
      "note": 57,
      "start": 0.3438,
      "duration": 0.0003,
      "velocity": 97,
      "chip": "ym2612"
    },
    {
      "channel": 4,
      "note": 102,
      "start": 0.3441,
      "duration": 0.0096,
      "velocity": 115,
      "chip": "ym2612"
    },
    {
      "channel": 1,
      "note": 78,
      "start": 0.3448,
      "duration": 0.0006,
      "velocity": 111,
      "chip": "ym2612"
    },
    {
      "channel": 2,
      "note": 50,
      "start": 0.345,
      "duration": 0.0008,
      "velocity": 97,
      "chip": "ym2612"
    },
    {
      "channel": 3,
      "note": 45,
      "start": 0.3453,
      "duration": 0.0015,
      "velocity": 95,
      "chip": "ym2612"
    },
    {
      "channel": 1,
      "note": 74,
      "start": 0.3458,
      "duration": 0.0001,
      "velocity": 111,
      "chip": "ym2612"
    },
    {
      "channel": 1,
      "note": 78,
      "start": 0.3463,
      "duration": 0.0005,
      "velocity": 111,
      "chip": "ym2612"
    },
    {
      "channel": 2,
      "note": 50,
      "start": 0.3466,
      "duration": 0.0001,
      "velocity": 97,
      "chip": "ym2612"
    },
    {
      "channel": 1,
      "note": 81,
      "start": 0.3471,
      "duration": 0.0006,
      "velocity": 111,
      "chip": "ym2612"
    },
    {
      "channel": 2,
      "note": 57,
      "start": 0.3474,
      "duration": 0.0001,
      "velocity": 97,
      "chip": "ym2612"
    },
    {
      "channel": 1,
      "note": 86,
      "start": 0.348,
      "duration": 0.0072,
      "velocity": 111,
      "chip": "ym2612"
    },
    {
      "channel": 2,
      "note": 50,
      "start": 0.3483,
      "duration": 0.0004,
      "velocity": 97,
      "chip": "ym2612"
    },
    {
      "channel": 3,
      "note": 38,
      "start": 0.3486,
      "duration": 0.001,
      "velocity": 95,
      "chip": "ym2612"
    },
    {
      "channel": 2,
      "note": 50,
      "start": 0.3493,
      "duration": 0.0001,
      "velocity": 97,
      "chip": "ym2612"
    },
    {
      "channel": 2,
      "note": 57,
      "start": 0.3499,
      "duration": 0.0003,
      "velocity": 97,
      "chip": "ym2612"
    },
    {
      "channel": 0,
      "note": 98,
      "start": 0.3506,
      "duration": 0.0044,
      "velocity": 115,
      "chip": "ym2612"
    },
    {
      "channel": 2,
      "note": 50,
      "start": 0.3511,
      "duration": 0.0009,
      "velocity": 97,
      "chip": "ym2612"
    },
    {
      "channel": 3,
      "note": 45,
      "start": 0.3514,
      "duration": 0.0007,
      "velocity": 95,
      "chip": "ym2612"
    },
    {
      "channel": 2,
      "note": 50,
      "start": 0.3528,
      "duration": 0.0006,
      "velocity": 97,
      "chip": "ym2612"
    },
    {
      "channel": 3,
      "note": 38,
      "start": 0.3532,
      "duration": 0.0005,
      "velocity": 95,
      "chip": "ym2612"
    },
    {
      "channel": 2,
      "note": 57,
      "start": 0.3541,
      "duration": 0.001,
      "velocity": 97,
      "chip": "ym2612"
    },
    {
      "channel": 3,
      "note": 38,
      "start": 0.3545,
      "duration": 0.0008,
      "velocity": 95,
      "chip": "ym2612"
    },
    {
      "channel": 4,
      "note": 98,
      "start": 0.3547,
      "duration": 0.0027,
      "velocity": 115,
      "chip": "ym2612"
    },
    {
      "channel": 0,
      "note": 105,
      "start": 0.3554,
      "duration": 0.0095,
      "velocity": 115,
      "chip": "ym2612"
    },
    {
      "channel": 1,
      "note": 75,
      "start": 0.3557,
      "duration": 0.0019,
      "velocity": 111,
      "chip": "ym2612"
    },
    {
      "channel": 2,
      "note": 51,
      "start": 0.3561,
      "duration": 0.0009,
      "velocity": 97,
      "chip": "ym2612"
    },
    {
      "channel": 3,
      "note": 39,
      "start": 0.3564,
      "duration": 0.0013,
      "velocity": 95,
      "chip": "ym2612"
    },
    {
      "channel": 2,
      "note": 51,
      "start": 0.3572,
      "duration": 0.0001,
      "velocity": 97,
      "chip": "ym2612"
    },
    {
      "channel": 1,
      "note": 81,
      "start": 0.358,
      "duration": 0.0007,
      "velocity": 111,
      "chip": "ym2612"
    },
    {
      "channel": 2,
      "note": 57,
      "start": 0.3583,
      "duration": 0.0004,
      "velocity": 97,
      "chip": "ym2612"
    },
    {
      "channel": 4,
      "note": 105,
      "start": 0.3585,
      "duration": 0.0113,
      "velocity": 115,
      "chip": "ym2612"
    },
    {
      "channel": 1,
      "note": 78,
      "start": 0.3591,
      "duration": 0.0007,
      "velocity": 111,
      "chip": "ym2612"
    },
    {
      "channel": 2,
      "note": 51,
      "start": 0.3594,
      "duration": 0.0009,
      "velocity": 97,
      "chip": "ym2612"
    },
    {
      "channel": 3,
      "note": 45,
      "start": 0.3597,
      "duration": 0.0016,
      "velocity": 95,
      "chip": "ym2612"
    },
    {
      "channel": 1,
      "note": 75,
      "start": 0.3602,
      "duration": 0.0003,
      "velocity": 111,
      "chip": "ym2612"
    },
    {
      "channel": 1,
      "note": 78,
      "start": 0.3607,
      "duration": 0.0004,
      "velocity": 111,
      "chip": "ym2612"
    },
    {
      "channel": 2,
      "note": 51,
      "start": 0.361,
      "duration": 0.0,
      "velocity": 97,
      "chip": "ym2612"
    },
    {
      "channel": 1,
      "note": 81,
      "start": 0.3616,
      "duration": 0.0005,
      "velocity": 111,
      "chip": "ym2612"
    },
    {
      "channel": 2,
      "note": 57,
      "start": 0.3619,
      "duration": 0.0001,
      "velocity": 97,
      "chip": "ym2612"
    },
    {
      "channel": 1,
      "note": 87,
      "start": 0.3624,
      "duration": 0.0088,
      "velocity": 111,
      "chip": "ym2612"
    },
    {
      "channel": 2,
      "note": 51,
      "start": 0.3627,
      "duration": 0.0005,
      "velocity": 97,
      "chip": "ym2612"
    },
    {
      "channel": 3,
      "note": 39,
      "start": 0.363,
      "duration": 0.0011,
      "velocity": 95,
      "chip": "ym2612"
    },
    {
      "channel": 2,
      "note": 51,
      "start": 0.3637,
      "duration": 0.0001,
      "velocity": 97,
      "chip": "ym2612"
    },
    {
      "channel": 2,
      "note": 57,
      "start": 0.3644,
      "duration": 0.0002,
      "velocity": 97,
      "chip": "ym2612"
    },
    {
      "channel": 0,
      "note": 102,
      "start": 0.3652,
      "duration": 0.0059,
      "velocity": 115,
      "chip": "ym2612"
    },
    {
      "channel": 2,
      "note": 51,
      "start": 0.3659,
      "duration": 0.001,
      "velocity": 97,
      "chip": "ym2612"
    },
    {
      "channel": 3,
      "note": 45,
      "start": 0.3663,
      "duration": 0.0007,
      "velocity": 95,
      "chip": "ym2612"
    },
    {
      "channel": 2,
      "note": 51,
      "start": 0.3678,
      "duration": 0.0016,
      "velocity": 97,
      "chip": "ym2612"
    },
    {
      "channel": 3,
      "note": 39,
      "start": 0.3681,
      "duration": 0.0016,
      "velocity": 95,
      "chip": "ym2612"
    },
    {
      "channel": 2,
      "note": 57,
      "start": 0.3703,
      "duration": 0.0009,
      "velocity": 97,
      "chip": "ym2612"
    },
    {
      "channel": 3,
      "note": 39,
      "start": 0.3705,
      "duration": 0.0008,
      "velocity": 95,
      "chip": "ym2612"
    },
    {
      "channel": 4,
      "note": 102,
      "start": 0.3708,
      "duration": 0.0027,
      "velocity": 115,
      "chip": "ym2612"
    },
    {
      "channel": 0,
      "note": 104,
      "start": 0.3717,
      "duration": 0.0106,
      "velocity": 115,
      "chip": "ym2612"
    },
    {
      "channel": 1,
      "note": 88,
      "start": 0.372,
      "duration": 0.0052,
      "velocity": 111,
      "chip": "ym2612"
    },
    {
      "channel": 2,
      "note": 52,
      "start": 0.3723,
      "duration": 0.0007,
      "velocity": 97,
      "chip": "ym2612"
    },
    {
      "channel": 3,
      "note": 40,
      "start": 0.3727,
      "duration": 0.0009,
      "velocity": 95,
      "chip": "ym2612"
    },
    {
      "channel": 2,
      "note": 52,
      "start": 0.3732,
      "duration": 0.0001,
      "velocity": 97,
      "chip": "ym2612"
    },
    {
      "channel": 2,
      "note": 59,
      "start": 0.3738,
      "duration": 0.0003,
      "velocity": 97,
      "chip": "ym2612"
    },
    {
      "channel": 4,
      "note": 104,
      "start": 0.374,
      "duration": 0.0158,
      "velocity": 115,
      "chip": "ym2612"
    },
    {
      "channel": 2,
      "note": 52,
      "start": 0.3748,
      "duration": 0.0008,
      "velocity": 97,
      "chip": "ym2612"
    },
    {
      "channel": 3,
      "note": 47,
      "start": 0.3751,
      "duration": 0.0013,
      "velocity": 95,
      "chip": "ym2612"
    },
    {
      "channel": 2,
      "note": 52,
      "start": 0.3762,
      "duration": 0.0001,
      "velocity": 97,
      "chip": "ym2612"
    },
    {
      "channel": 2,
      "note": 59,
      "start": 0.3769,
      "duration": 0.0001,
      "velocity": 97,
      "chip": "ym2612"
    },
    {
      "channel": 1,
      "note": 80,
      "start": 0.3776,
      "duration": 0.0009,
      "velocity": 111,
      "chip": "ym2612"
    },
    {
      "channel": 2,
      "note": 52,
      "start": 0.3778,
      "duration": 0.001,
      "velocity": 97,
      "chip": "ym2612"
    },
    {
      "channel": 3,
      "note": 40,
      "start": 0.3782,
      "duration": 0.0018,
      "velocity": 95,
      "chip": "ym2612"
    },
    {
      "channel": 1,
      "note": 76,
      "start": 0.3788,
      "duration": 0.0002,
      "velocity": 111,
      "chip": "ym2612"
    },
    {
      "channel": 1,
      "note": 78,
      "start": 0.3793,
      "duration": 0.0005,
      "velocity": 111,
      "chip": "ym2612"
    },
    {
      "channel": 2,
      "note": 52,
      "start": 0.3796,
      "duration": 0.0001,
      "velocity": 97,
      "chip": "ym2612"
    },
    {
      "channel": 1,
      "note": 83,
      "start": 0.3803,
      "duration": 0.0005,
      "velocity": 111,
      "chip": "ym2612"
    },
    {
      "channel": 2,
      "note": 59,
      "start": 0.3805,
      "duration": 0.0001,
      "velocity": 97,
      "chip": "ym2612"
    },
    {
      "channel": 1,
      "note": 88,
      "start": 0.3811,
      "duration": 0.0058,
      "velocity": 111,
      "chip": "ym2612"
    },
    {
      "channel": 2,
      "note": 52,
      "start": 0.3814,
      "duration": 0.0005,
      "velocity": 97,
      "chip": "ym2612"
    },
    {
      "channel": 3,
      "note": 47,
      "start": 0.3817,
      "duration": 0.0007,
      "velocity": 95,
      "chip": "ym2612"
    },
    {
      "channel": 2,
      "note": 59,
      "start": 0.3821,
      "duration": 0.0002,
      "velocity": 97,
      "chip": "ym2612"
    },
    {
      "channel": 2,
      "note": 52,
      "start": 0.3826,
      "duration": 0.0013,
      "velocity": 97,
      "chip": "ym2612"
    },
    {
      "channel": 3,
      "note": 40,
      "start": 0.3829,
      "duration": 0.001,
      "velocity": 95,
      "chip": "ym2612"
    },
    {
      "channel": 2,
      "note": 59,
      "start": 0.3842,
      "duration": 0.0024,
      "velocity": 97,
      "chip": "ym2612"
    },
    {
      "channel": 3,
      "note": 40,
      "start": 0.3846,
      "duration": 0.0024,
      "velocity": 95,
      "chip": "ym2612"
    },
    {
      "channel": 0,
      "note": 84,
      "start": 0.3879,
      "duration": 0.0022,
      "velocity": 111,
      "chip": "ym2612"
    },
    {
      "channel": 1,
      "note": 87,
      "start": 0.3882,
      "duration": 0.0018,
      "velocity": 111,
      "chip": "ym2612"
    },
    {
      "channel": 2,
      "note": 80,
      "start": 0.3892,
      "duration": 0.001,
      "velocity": 111,
      "chip": "ym2612"
    },
    {
      "channel": 3,
      "note": 44,
      "start": 0.3895,
      "duration": 0.0005,
      "velocity": 95,
      "chip": "ym2612"
    },
    {
      "channel": 3,
      "note": 44,
      "start": 0.3906,
      "duration": 0.0012,
      "velocity": 95,
      "chip": "ym2612"
    },
    {
      "channel": 4,
      "note": 84,
      "start": 0.3915,
      "duration": 0.0012,
      "velocity": 111,
      "chip": "ym2612"
    },
    {
      "channel": 1,
      "note": 75,
      "start": 0.3922,
      "duration": 0.0004,
      "velocity": 111,
      "chip": "ym2612"
    },
    {
      "channel": 0,
      "note": 72,
      "start": 0.3926,
      "duration": 0.0003,
      "velocity": 111,
      "chip": "ym2612"
    },
    {
      "channel": 1,
      "note": 80,
      "start": 0.3932,
      "duration": 0.0014,
      "velocity": 111,
      "chip": "ym2612"
    },
    {
      "channel": 2,
      "note": 68,
      "start": 0.3936,
      "duration": 0.0011,
      "velocity": 111,
      "chip": "ym2612"
    },
    {
      "channel": 3,
      "note": 44,
      "start": 0.3939,
      "duration": 0.0111,
      "velocity": 95,
      "chip": "ym2612"
    },
    {
      "channel": 0,
      "note": 75,
      "start": 0.3945,
      "duration": 0.0002,
      "velocity": 111,
      "chip": "ym2612"
    },
    {
      "channel": 1,
      "note": 84,
      "start": 0.395,
      "duration": 0.0008,
      "velocity": 111,
      "chip": "ym2612"
    },
    {
      "channel": 2,
      "note": 72,
      "start": 0.3953,
      "duration": 0.0006,
      "velocity": 111,
      "chip": "ym2612"
    },
    {
      "channel": 0,
      "note": 80,
      "start": 0.3957,
      "duration": 0.0003,
      "velocity": 111,
      "chip": "ym2612"
    },
    {
      "channel": 1,
      "note": 87,
      "start": 0.3963,
      "duration": 0.0007,
      "velocity": 111,
      "chip": "ym2612"
    },
    {
      "channel": 2,
      "note": 75,
      "start": 0.3967,
      "duration": 0.0004,
      "velocity": 111,
      "chip": "ym2612"
    },
    {
      "channel": 0,
      "note": 84,
      "start": 0.3969,
      "duration": 0.0002,
      "velocity": 111,
      "chip": "ym2612"
    },
    {
      "channel": 1,
      "note": 92,
      "start": 0.3975,
      "duration": 0.0075,
      "velocity": 111,
      "chip": "ym2612"
    },
    {
      "channel": 2,
      "note": 80,
      "start": 0.3978,
      "duration": 0.0007,
      "velocity": 111,
      "chip": "ym2612"
    },
    {
      "channel": 0,
      "note": 87,
      "start": 0.3985,
      "duration": 0.0071,
      "velocity": 111,
      "chip": "ym2612"
    },
    {
      "channel": 2,
      "note": 84,
      "start": 0.3989,
      "duration": 0.0079,
      "velocity": 111,
      "chip": "ym2612"
    },
    {
      "channel": 4,
      "note": 72,
      "start": 0.3995,
      "duration": 0.0001,
      "velocity": 111,
      "chip": "ym2612"
    },
    {
      "channel": 4,
      "note": 75,
      "start": 0.4003,
      "duration": 0.0001,
      "velocity": 111,
      "chip": "ym2612"
    },
    {
      "channel": 4,
      "note": 80,
      "start": 0.401,
      "duration": 0.0003,
      "velocity": 111,
      "chip": "ym2612"
    },
    {
      "channel": 4,
      "note": 84,
      "start": 0.4023,
      "duration": 0.001,
      "velocity": 111,
      "chip": "ym2612"
    },
    {
      "channel": 4,
      "note": 87,
      "start": 0.4043,
      "duration": 0.0076,
      "velocity": 111,
      "chip": "ym2612"
    },
    {
      "channel": 1,
      "note": 96,
      "start": 0.4059,
      "duration": 0.0101,
      "velocity": 115,
      "chip": "ym2612"
    },
    {
      "channel": 3,
      "note": 44,
      "start": 0.4062,
      "duration": 0.0113,
      "velocity": 95,
      "chip": "ym2612"
    },
    {
      "channel": 0,
      "note": 92,
      "start": 0.4068,
      "duration": 0.0082,
      "velocity": 105,
      "chip": "ym2612"
    },
    {
      "channel": 2,
      "note": 87,
      "start": 0.4072,
      "duration": 0.0095,
      "velocity": 97,
      "chip": "ym2612"
    },
    {
      "channel": 4,
      "note": 92,
      "start": 0.4134,
      "duration": 0.0073,
      "velocity": 105,
      "chip": "ym2612"
    },
    {
      "channel": 0,
      "note": 73,
      "start": 0.4152,
      "duration": 0.0071,
      "velocity": 105,
      "chip": "ym2612"
    },
    {
      "channel": 1,
      "note": 64,
      "start": 0.4161,
      "duration": 0.0051,
      "velocity": 115,
      "chip": "ym2612"
    },
    {
      "channel": 2,
      "note": 49,
      "start": 0.4169,
      "duration": 0.0015,
      "velocity": 97,
      "chip": "ym2612"
    },
    {
      "channel": 3,
      "note": 37,
      "start": 0.4178,
      "duration": 0.002,
      "velocity": 95,
      "chip": "ym2612"
    },
    {
      "channel": 2,
      "note": 49,
      "start": 0.4191,
      "duration": 0.0003,
      "velocity": 97,
      "chip": "ym2612"
    },
    {
      "channel": 2,
      "note": 56,
      "start": 0.4202,
      "duration": 0.0008,
      "velocity": 97,
      "chip": "ym2612"
    },
    {
      "channel": 4,
      "note": 73,
      "start": 0.421,
      "duration": 0.0043,
      "velocity": 105,
      "chip": "ym2612"
    },
    {
      "channel": 2,
      "note": 49,
      "start": 0.4214,
      "duration": 0.0008,
      "velocity": 97,
      "chip": "ym2612"
    },
    {
      "channel": 3,
      "note": 44,
      "start": 0.4217,
      "duration": 0.0015,
      "velocity": 95,
      "chip": "ym2612"
    },
    {
      "channel": 0,
      "note": 75,
      "start": 0.4226,
      "duration": 0.0013,
      "velocity": 105,
      "chip": "ym2612"
    },
    {
      "channel": 1,
      "note": 66,
      "start": 0.4228,
      "duration": 0.0007,
      "velocity": 115,
      "chip": "ym2612"
    },
    {
      "channel": 2,
      "note": 49,
      "start": 0.4231,
      "duration": 0.0,
      "velocity": 97,
      "chip": "ym2612"
    },
    {
      "channel": 2,
      "note": 56,
      "start": 0.4237,
      "duration": 0.0,
      "velocity": 97,
      "chip": "ym2612"
    },
    {
      "channel": 0,
      "note": 76,
      "start": 0.4243,
      "duration": 0.003,
      "velocity": 105,
      "chip": "ym2612"
    },
    {
      "channel": 1,
      "note": 68,
      "start": 0.4246,
      "duration": 0.0026,
      "velocity": 115,
      "chip": "ym2612"
    },
    {
      "channel": 2,
      "note": 49,
      "start": 0.4248,
      "duration": 0.0009,
      "velocity": 97,
      "chip": "ym2612"
    },
    {
      "channel": 3,
      "note": 37,
      "start": 0.425,
      "duration": 0.0013,
      "velocity": 95,
      "chip": "ym2612"
    },
    {
      "channel": 4,
      "note": 75,
      "start": 0.4256,
      "duration": 0.0008,
      "velocity": 105,
      "chip": "ym2612"
    },
    {
      "channel": 2,
      "note": 49,
      "start": 0.426,
      "duration": 0.0001,
      "velocity": 97,
      "chip": "ym2612"
    },
    {
      "channel": 2,
      "note": 56,
      "start": 0.4267,
      "duration": 0.0005,
      "velocity": 97,
      "chip": "ym2612"
    },
    {
      "channel": 4,
      "note": 76,
      "start": 0.4269,
      "duration": 0.0065,
      "velocity": 105,
      "chip": "ym2612"
    },
    {
      "channel": 0,
      "note": 80,
      "start": 0.4278,
      "duration": 0.0074,
      "velocity": 105,
      "chip": "ym2612"
    },
    {
      "channel": 1,
      "note": 71,
      "start": 0.4281,
      "duration": 0.007,
      "velocity": 115,
      "chip": "ym2612"
    },
    {
      "channel": 2,
      "note": 49,
      "start": 0.4284,
      "duration": 0.0008,
      "velocity": 97,
      "chip": "ym2612"
    },
    {
      "channel": 3,
      "note": 40,
      "start": 0.4287,
      "duration": 0.0006,
      "velocity": 95,
      "chip": "ym2612"
    },
    {
      "channel": 2,
      "note": 49,
      "start": 0.4302,
      "duration": 0.0027,
      "velocity": 97,
      "chip": "ym2612"
    },
    {
      "channel": 3,
      "note": 44,
      "start": 0.4305,
      "duration": 0.0029,
      "velocity": 95,
      "chip": "ym2612"
    },
    {
      "channel": 2,
      "note": 56,
      "start": 0.4335,
      "duration": 0.0016,
      "velocity": 97,
      "chip": "ym2612"
    },
    {
      "channel": 3,
      "note": 44,
      "start": 0.4339,
      "duration": 0.0015,
      "velocity": 95,
      "chip": "ym2612"
    },
    {
      "channel": 4,
      "note": 80,
      "start": 0.4342,
      "duration": 0.004,
      "velocity": 105,
      "chip": "ym2612"
    },
    {
      "channel": 0,
      "note": 81,
      "start": 0.4357,
      "duration": 0.0102,
      "velocity": 105,
      "chip": "ym2612"
    },
    {
      "channel": 1,
      "note": 78,
      "start": 0.4359,
      "duration": 0.0029,
      "velocity": 115,
      "chip": "ym2612"
    },
    {
      "channel": 2,
      "note": 59,
      "start": 0.4361,
      "duration": 0.0011,
      "velocity": 97,
      "chip": "ym2612"
    },
    {
      "channel": 3,
      "note": 47,
      "start": 0.4364,
      "duration": 0.0017,
      "velocity": 95,
      "chip": "ym2612"
    },
    {
      "channel": 2,
      "note": 59,
      "start": 0.4376,
      "duration": 0.0002,
      "velocity": 97,
      "chip": "ym2612"
    },
    {
      "channel": 2,
      "note": 66,
      "start": 0.4384,
      "duration": 0.0005,
      "velocity": 97,
      "chip": "ym2612"
    },
    {
      "channel": 4,
      "note": 81,
      "start": 0.4387,
      "duration": 0.0127,
      "velocity": 105,
      "chip": "ym2612"
    },
    {
      "channel": 1,
      "note": 75,
      "start": 0.4394,
      "duration": 0.0111,
      "velocity": 115,
      "chip": "ym2612"
    },
    {
      "channel": 2,
      "note": 59,
      "start": 0.4397,
      "duration": 0.0005,
      "velocity": 97,
      "chip": "ym2612"
    },
    {
      "channel": 3,
      "note": 54,
      "start": 0.4401,
      "duration": 0.0005,
      "velocity": 95,
      "chip": "ym2612"
    },
    {
      "channel": 2,
      "note": 59,
      "start": 0.4404,
      "duration": 0.0002,
      "velocity": 97,
      "chip": "ym2612"
    },
    {
      "channel": 2,
      "note": 66,
      "start": 0.4408,
      "duration": 0.0001,
      "velocity": 97,
      "chip": "ym2612"
    },
    {
      "channel": 2,
      "note": 59,
      "start": 0.4416,
      "duration": 0.0013,
      "velocity": 97,
      "chip": "ym2612"
    },
    {
      "channel": 3,
      "note": 47,
      "start": 0.442,
      "duration": 0.0022,
      "velocity": 95,
      "chip": "ym2612"
    },
    {
      "channel": 2,
      "note": 59,
      "start": 0.4437,
      "duration": 0.0003,
      "velocity": 97,
      "chip": "ym2612"
    },
    {
      "channel": 2,
      "note": 66,
      "start": 0.4446,
      "duration": 0.0005,
      "velocity": 97,
      "chip": "ym2612"
    },
    {
      "channel": 0,
      "note": 71,
      "start": 0.4462,
      "duration": 0.0059,
      "velocity": 105,
      "chip": "ym2612"
    },
    {
      "channel": 2,
      "note": 59,
      "start": 0.4464,
      "duration": 0.0006,
      "velocity": 97,
      "chip": "ym2612"
    },
    {
      "channel": 3,
      "note": 42,
      "start": 0.4468,
      "duration": 0.0012,
      "velocity": 95,
      "chip": "ym2612"
    },
    {
      "channel": 2,
      "note": 66,
      "start": 0.4476,
      "duration": 0.0002,
      "velocity": 97,
      "chip": "ym2612"
    },
    {
      "channel": 2,
      "note": 59,
      "start": 0.4486,
      "duration": 0.0011,
      "velocity": 97,
      "chip": "ym2612"
    },
    {
      "channel": 3,
      "note": 39,
      "start": 0.4489,
      "duration": 0.0013,
      "velocity": 95,
      "chip": "ym2612"
    },
    {
      "channel": 2,
      "note": 66,
      "start": 0.4509,
      "duration": 0.0012,
      "velocity": 97,
      "chip": "ym2612"
    },
    {
      "channel": 3,
      "note": 39,
      "start": 0.4512,
      "duration": 0.001,
      "velocity": 95,
      "chip": "ym2612"
    },
    {
      "channel": 4,
      "note": 71,
      "start": 0.4515,
      "duration": 0.0034,
      "velocity": 105,
      "chip": "ym2612"
    },
    {
      "channel": 0,
      "note": 78,
      "start": 0.4525,
      "duration": 0.0084,
      "velocity": 105,
      "chip": "ym2612"
    },
    {
      "channel": 1,
      "note": 76,
      "start": 0.4527,
      "duration": 0.0037,
      "velocity": 115,
      "chip": "ym2612"
    },
    {
      "channel": 2,
      "note": 52,
      "start": 0.453,
      "duration": 0.0011,
      "velocity": 97,
      "chip": "ym2612"
    },
    {
      "channel": 3,
      "note": 40,
      "start": 0.4534,
      "duration": 0.0015,
      "velocity": 95,
      "chip": "ym2612"
    },
    {
      "channel": 2,
      "note": 52,
      "start": 0.4544,
      "duration": 0.0002,
      "velocity": 97,
      "chip": "ym2612"
    },
    {
      "channel": 2,
      "note": 59,
      "start": 0.4552,
      "duration": 0.0003,
      "velocity": 97,
      "chip": "ym2612"
    },
    {
      "channel": 4,
      "note": 78,
      "start": 0.4555,
      "duration": 0.01,
      "velocity": 105,
      "chip": "ym2612"
    },
    {
      "channel": 2,
      "note": 52,
      "start": 0.456,
      "duration": 0.0005,
      "velocity": 97,
      "chip": "ym2612"
    },
    {
      "channel": 3,
      "note": 47,
      "start": 0.4564,
      "duration": 0.0009,
      "velocity": 95,
      "chip": "ym2612"
    },
    {
      "channel": 1,
      "note": 73,
      "start": 0.4568,
      "duration": 0.0008,
      "velocity": 115,
      "chip": "ym2612"
    },
    {
      "channel": 2,
      "note": 52,
      "start": 0.4571,
      "duration": 0.0,
      "velocity": 97,
      "chip": "ym2612"
    },
    {
      "channel": 2,
      "note": 59,
      "start": 0.4575,
      "duration": 0.0003,
      "velocity": 97,
      "chip": "ym2612"
    },
    {
      "channel": 1,
      "note": 71,
      "start": 0.4581,
      "duration": 0.0069,
      "velocity": 115,
      "chip": "ym2612"
    },
    {
      "channel": 2,
      "note": 52,
      "start": 0.4583,
      "duration": 0.001,
      "velocity": 97,
      "chip": "ym2612"
    },
    {
      "channel": 3,
      "note": 40,
      "start": 0.4586,
      "duration": 0.0015,
      "velocity": 95,
      "chip": "ym2612"
    },
    {
      "channel": 2,
      "note": 52,
      "start": 0.4597,
      "duration": 0.0001,
      "velocity": 97,
      "chip": "ym2612"
    },
    {
      "channel": 2,
      "note": 59,
      "start": 0.4605,
      "duration": 0.0002,
      "velocity": 97,
      "chip": "ym2612"
    },
    {
      "channel": 0,
      "note": 82,
      "start": 0.4615,
      "duration": 0.0008,
      "velocity": 105,
      "chip": "ym2612"
    },
    {
      "channel": 2,
      "note": 52,
      "start": 0.4616,
      "duration": 0.0012,
      "velocity": 97,
      "chip": "ym2612"
    },
    {
      "channel": 3,
      "note": 47,
      "start": 0.462,
      "duration": 0.001,
      "velocity": 95,
      "chip": "ym2612"
    },
    {
      "channel": 0,
      "note": 83,
      "start": 0.4626,
      "duration": 0.0005,
      "velocity": 105,
      "chip": "ym2612"
    },
    {
      "channel": 0,
      "note": 82,
      "start": 0.4635,
      "duration": 0.0018,
      "velocity": 105,
      "chip": "ym2612"
    },
    {
      "channel": 2,
      "note": 52,
      "start": 0.4637,
      "duration": 0.0014,
      "velocity": 97,
      "chip": "ym2612"
    },
    {
      "channel": 3,
      "note": 40,
      "start": 0.464,
      "duration": 0.0014,
      "velocity": 95,
      "chip": "ym2612"
    },
    {
      "channel": 0,
      "note": 78,
      "start": 0.4658,
      "duration": 0.003,
      "velocity": 105,
      "chip": "ym2612"
    },
    {
      "channel": 2,
      "note": 59,
      "start": 0.466,
      "duration": 0.0027,
      "velocity": 97,
      "chip": "ym2612"
    },
    {
      "channel": 3,
      "note": 40,
      "start": 0.4663,
      "duration": 0.0026,
      "velocity": 95,
      "chip": "ym2612"
    },
    {
      "channel": 4,
      "note": 82,
      "start": 0.4665,
      "duration": 0.0024,
      "velocity": 105,
      "chip": "ym2612"
    },
    {
      "channel": 0,
      "note": 73,
      "start": 0.4692,
      "duration": 0.0061,
      "velocity": 105,
      "chip": "ym2612"
    },
    {
      "channel": 1,
      "note": 97,
      "start": 0.4695,
      "duration": 0.0015,
      "velocity": 115,
      "chip": "ym2612"
    },
    {
      "channel": 2,
      "note": 54,
      "start": 0.4698,
      "duration": 0.0012,
      "velocity": 97,
      "chip": "ym2612"
    },
    {
      "channel": 3,
      "note": 42,
      "start": 0.4701,
      "duration": 0.0019,
      "velocity": 95,
      "chip": "ym2612"
    },
    {
      "channel": 4,
      "note": 83,
      "start": 0.4703,
      "duration": 0.0003,
      "velocity": 105,
      "chip": "ym2612"
    },
    {
      "channel": 4,
      "note": 82,
      "start": 0.4709,
      "duration": 0.0003,
      "velocity": 105,
      "chip": "ym2612"
    },
    {
      "channel": 1,
      "note": 94,
      "start": 0.4714,
      "duration": 0.0015,
      "velocity": 115,
      "chip": "ym2612"
    },
    {
      "channel": 2,
      "note": 54,
      "start": 0.4716,
      "duration": 0.0003,
      "velocity": 97,
      "chip": "ym2612"
    },
    {
      "channel": 4,
      "note": 78,
      "start": 0.4718,
      "duration": 0.0002,
      "velocity": 105,
      "chip": "ym2612"
    },
    {
      "channel": 2,
      "note": 61,
      "start": 0.4723,
      "duration": 0.0003,
      "velocity": 97,
      "chip": "ym2612"
    },
    {
      "channel": 4,
      "note": 73,
      "start": 0.4726,
      "duration": 0.0064,
      "velocity": 105,
      "chip": "ym2612"
    },
    {
      "channel": 1,
      "note": 94,
      "start": 0.4731,
      "duration": 0.0006,
      "velocity": 115,
      "chip": "ym2612"
    },
    {
      "channel": 2,
      "note": 54,
      "start": 0.4732,
      "duration": 0.0007,
      "velocity": 97,
      "chip": "ym2612"
    },
    {
      "channel": 3,
      "note": 49,
      "start": 0.4736,
      "duration": 0.0012,
      "velocity": 95,
      "chip": "ym2612"
    },
    {
      "channel": 1,
      "note": 90,
      "start": 0.4739,
      "duration": 0.0002,
      "velocity": 115,
      "chip": "ym2612"
    },
    {
      "channel": 1,
      "note": 85,
      "start": 0.4743,
      "duration": 0.001,
      "velocity": 115,
      "chip": "ym2612"
    },
    {
      "channel": 2,
      "note": 54,
      "start": 0.4746,
      "duration": 0.0002,
      "velocity": 97,
      "chip": "ym2612"
    },
    {
      "channel": 2,
      "note": 61,
      "start": 0.475,
      "duration": 0.0001,
      "velocity": 97,
      "chip": "ym2612"
    },
    {
      "channel": 1,
      "note": 82,
      "start": 0.4756,
      "duration": 0.0018,
      "velocity": 115,
      "chip": "ym2612"
    },
    {
      "channel": 2,
      "note": 54,
      "start": 0.4758,
      "duration": 0.0015,
      "velocity": 97,
      "chip": "ym2612"
    },
    {
      "channel": 3,
      "note": 42,
      "start": 0.4762,
      "duration": 0.0022,
      "velocity": 95,
      "chip": "ym2612"
    },
    {
      "channel": 0,
      "note": 82,
      "start": 0.4768,
      "duration": 0.0006,
      "velocity": 115,
      "chip": "ym2612"
    },
    {
      "channel": 1,
      "note": 82,
      "start": 0.4777,
      "duration": 0.0006,
      "velocity": 115,
      "chip": "ym2612"
    },
    {
      "channel": 2,
      "note": 54,
      "start": 0.4779,
      "duration": 0.0003,
      "velocity": 97,
      "chip": "ym2612"
    },
    {
      "channel": 0,
      "note": 82,
      "start": 0.4781,
      "duration": 0.0003,
      "velocity": 115,
      "chip": "ym2612"
    },
    {
      "channel": 1,
      "note": 78,
      "start": 0.4786,
      "duration": 0.0016,
      "velocity": 115,
      "chip": "ym2612"
    },
    {
      "channel": 2,
      "note": 61,
      "start": 0.4789,
      "duration": 0.0004,
      "velocity": 97,
      "chip": "ym2612"
    },
    {
      "channel": 0,
      "note": 78,
      "start": 0.4793,
      "duration": 0.0011,
      "velocity": 115,
      "chip": "ym2612"
    },
    {
      "channel": 4,
      "note": 82,
      "start": 0.4801,
      "duration": 0.002,
      "velocity": 115,
      "chip": "ym2612"
    },
    {
      "channel": 1,
      "note": 73,
      "start": 0.4806,
      "duration": 0.0019,
      "velocity": 115,
      "chip": "ym2612"
    },
    {
      "channel": 2,
      "note": 54,
      "start": 0.4808,
      "duration": 0.0007,
      "velocity": 97,
      "chip": "ym2612"
    },
    {
      "channel": 3,
      "note": 40,
      "start": 0.4812,
      "duration": 0.001,
      "velocity": 95,
      "chip": "ym2612"
    },
    {
      "channel": 0,
      "note": 73,
      "start": 0.4814,
      "duration": 0.0012,
      "velocity": 115,
      "chip": "ym2612"
    },
    {
      "channel": 2,
      "note": 61,
      "start": 0.482,
      "duration": 0.0005,
      "velocity": 97,
      "chip": "ym2612"
    },
    {
      "channel": 4,
      "note": 82,
      "start": 0.4824,
      "duration": 0.0012,
      "velocity": 115,
      "chip": "ym2612"
    },
    {
      "channel": 1,
      "note": 71,
      "start": 0.4829,
      "duration": 0.0041,
      "velocity": 115,
      "chip": "ym2612"
    },
    {
      "channel": 2,
      "note": 54,
      "start": 0.4832,
      "duration": 0.0036,
      "velocity": 97,
      "chip": "ym2612"
    },
    {
      "channel": 3,
      "note": 39,
      "start": 0.4835,
      "duration": 0.0037,
      "velocity": 95,
      "chip": "ym2612"
    },
    {
      "channel": 0,
      "note": 71,
      "start": 0.4867,
      "duration": 0.0006,
      "velocity": 115,
      "chip": "ym2612"
    },
    {
      "channel": 4,
      "note": 78,
      "start": 0.487,
      "duration": 0.0012,
      "velocity": 115,
      "chip": "ym2612"
    },
    {
      "channel": 1,
      "note": 70,
      "start": 0.4876,
      "duration": 0.0015,
      "velocity": 115,
      "chip": "ym2612"
    },
    {
      "channel": 2,
      "note": 61,
      "start": 0.4878,
      "duration": 0.0013,
      "velocity": 97,
      "chip": "ym2612"
    },
    {
      "channel": 3,
      "note": 39,
      "start": 0.4881,
      "duration": 0.001,
      "velocity": 95,
      "chip": "ym2612"
    },
    {
      "channel": 0,
      "note": 70,
      "start": 0.4886,
      "duration": 0.0004,
      "velocity": 115,
      "chip": "ym2612"
    },
    {
      "channel": 4,
      "note": 73,
      "start": 0.4888,
      "duration": 0.0024,
      "velocity": 115,
      "chip": "ym2612"
    },
    {
      "channel": 0,
      "note": 73,
      "start": 0.4898,
      "duration": 0.0052,
      "velocity": 105,
      "chip": "ym2612"
    },
    {
      "channel": 1,
      "note": 64,
      "start": 0.4902,
      "duration": 0.0035,
      "velocity": 115,
      "chip": "ym2612"
    },
    {
      "channel": 2,
      "note": 49,
      "start": 0.4905,
      "duration": 0.0009,
      "velocity": 97,
      "chip": "ym2612"
    },
    {
      "channel": 3,
      "note": 37,
      "start": 0.4909,
      "duration": 0.0016,
      "velocity": 95,
      "chip": "ym2612"
    },
    {
      "channel": 4,
      "note": 71,
      "start": 0.4917,
      "duration": 0.0003,
      "velocity": 115,
      "chip": "ym2612"
    },
    {
      "channel": 2,
      "note": 49,
      "start": 0.4919,
      "duration": 0.0002,
      "velocity": 97,
      "chip": "ym2612"
    },
    {
      "channel": 4,
      "note": 70,
      "start": 0.4924,
      "duration": 0.0002,
      "velocity": 115,
      "chip": "ym2612"
    },
    {
      "channel": 2,
      "note": 56,
      "start": 0.4928,
      "duration": 0.0008,
      "velocity": 97,
      "chip": "ym2612"
    },
    {
      "channel": 4,
      "note": 73,
      "start": 0.4935,
      "duration": 0.0051,
      "velocity": 105,
      "chip": "ym2612"
    },
    {
      "channel": 2,
      "note": 49,
      "start": 0.4941,
      "duration": 0.0008,
      "velocity": 97,
      "chip": "ym2612"
    },
    {
      "channel": 3,
      "note": 44,
      "start": 0.4944,
      "duration": 0.0017,
      "velocity": 95,
      "chip": "ym2612"
    },
    {
      "channel": 0,
      "note": 75,
      "start": 0.4954,
      "duration": 0.0014,
      "velocity": 105,
      "chip": "ym2612"
    },
    {
      "channel": 1,
      "note": 66,
      "start": 0.4956,
      "duration": 0.0006,
      "velocity": 115,
      "chip": "ym2612"
    },
    {
      "channel": 2,
      "note": 49,
      "start": 0.4959,
      "duration": 0.0,
      "velocity": 97,
      "chip": "ym2612"
    },
    {
      "channel": 2,
      "note": 56,
      "start": 0.4966,
      "duration": 0.0001,
      "velocity": 97,
      "chip": "ym2612"
    },
    {
      "channel": 0,
      "note": 76,
      "start": 0.4974,
      "duration": 0.003,
      "velocity": 105,
      "chip": "ym2612"
    },
    {
      "channel": 1,
      "note": 68,
      "start": 0.4977,
      "duration": 0.0027,
      "velocity": 115,
      "chip": "ym2612"
    },
    {
      "channel": 2,
      "note": 49,
      "start": 0.4979,
      "duration": 0.001,
      "velocity": 97,
      "chip": "ym2612"
    },
    {
      "channel": 3,
      "note": 37,
      "start": 0.4983,
      "duration": 0.0013,
      "velocity": 95,
      "chip": "ym2612"
    },
    {
      "channel": 4,
      "note": 75,
      "start": 0.4987,
      "duration": 0.0009,
      "velocity": 105,
      "chip": "ym2612"
    },
    {
      "channel": 2,
      "note": 49,
      "start": 0.4991,
      "duration": 0.0,
      "velocity": 97,
      "chip": "ym2612"
    },
    {
      "channel": 2,
      "note": 56,
      "start": 0.4999,
      "duration": 0.0005,
      "velocity": 97,
      "chip": "ym2612"
    },
    {
      "channel": 4,
      "note": 76,
      "start": 0.5,
      "duration": 0.0057,
      "velocity": 105,
      "chip": "ym2612"
    },
    {
      "channel": 0,
      "note": 80,
      "start": 0.5008,
      "duration": 0.0067,
      "velocity": 105,
      "chip": "ym2612"
    },
    {
      "channel": 1,
      "note": 71,
      "start": 0.501,
      "duration": 0.0064,
      "velocity": 115,
      "chip": "ym2612"
    },
    {
      "channel": 2,
      "note": 49,
      "start": 0.5013,
      "duration": 0.0004,
      "velocity": 97,
      "chip": "ym2612"
    },
    {
      "channel": 3,
      "note": 40,
      "start": 0.5016,
      "duration": 0.0002,
      "velocity": 95,
      "chip": "ym2612"
    },
    {
      "channel": 2,
      "note": 49,
      "start": 0.5024,
      "duration": 0.0028,
      "velocity": 97,
      "chip": "ym2612"
    },
    {
      "channel": 3,
      "note": 44,
      "start": 0.5027,
      "duration": 0.0029,
      "velocity": 95,
      "chip": "ym2612"
    },
    {
      "channel": 2,
      "note": 56,
      "start": 0.506,
      "duration": 0.0015,
      "velocity": 97,
      "chip": "ym2612"
    },
    {
      "channel": 3,
      "note": 44,
      "start": 0.5063,
      "duration": 0.0014,
      "velocity": 95,
      "chip": "ym2612"
    },
    {
      "channel": 4,
      "note": 80,
      "start": 0.5065,
      "duration": 0.004,
      "velocity": 105,
      "chip": "ym2612"
    },
    {
      "channel": 0,
      "note": 81,
      "start": 0.508,
      "duration": 0.01,
      "velocity": 105,
      "chip": "ym2612"
    },
    {
      "channel": 1,
      "note": 78,
      "start": 0.5083,
      "duration": 0.003,
      "velocity": 115,
      "chip": "ym2612"
    },
    {
      "channel": 2,
      "note": 59,
      "start": 0.5085,
      "duration": 0.0012,
      "velocity": 97,
      "chip": "ym2612"
    },
    {
      "channel": 3,
      "note": 47,
      "start": 0.5088,
      "duration": 0.0017,
      "velocity": 95,
      "chip": "ym2612"
    },
    {
      "channel": 2,
      "note": 59,
      "start": 0.51,
      "duration": 0.0001,
      "velocity": 97,
      "chip": "ym2612"
    },
    {
      "channel": 2,
      "note": 66,
      "start": 0.5108,
      "duration": 0.0005,
      "velocity": 97,
      "chip": "ym2612"
    },
    {
      "channel": 4,
      "note": 81,
      "start": 0.5111,
      "duration": 0.012,
      "velocity": 105,
      "chip": "ym2612"
    },
    {
      "channel": 1,
      "note": 75,
      "start": 0.5119,
      "duration": 0.0105,
      "velocity": 115,
      "chip": "ym2612"
    },
    {
      "channel": 2,
      "note": 59,
      "start": 0.5121,
      "duration": 0.0004,
      "velocity": 97,
      "chip": "ym2612"
    },
    {
      "channel": 3,
      "note": 54,
      "start": 0.5124,
      "duration": 0.0007,
      "velocity": 95,
      "chip": "ym2612"
    },
    {
      "channel": 2,
      "note": 59,
      "start": 0.5127,
      "duration": 0.0002,
      "velocity": 97,
      "chip": "ym2612"
    },
    {
      "channel": 2,
      "note": 66,
      "start": 0.5133,
      "duration": 0.0001,
      "velocity": 97,
      "chip": "ym2612"
    },
    {
      "channel": 2,
      "note": 59,
      "start": 0.5139,
      "duration": 0.0012,
      "velocity": 97,
      "chip": "ym2612"
    },
    {
      "channel": 3,
      "note": 47,
      "start": 0.5142,
      "duration": 0.0022,
      "velocity": 95,
      "chip": "ym2612"
    },
    {
      "channel": 2,
      "note": 59,
      "start": 0.5158,
      "duration": 0.0003,
      "velocity": 97,
      "chip": "ym2612"
    },
    {
      "channel": 2,
      "note": 66,
      "start": 0.5169,
      "duration": 0.0004,
      "velocity": 97,
      "chip": "ym2612"
    },
    {
      "channel": 0,
      "note": 71,
      "start": 0.5183,
      "duration": 0.0057,
      "velocity": 105,
      "chip": "ym2612"
    },
    {
      "channel": 2,
      "note": 59,
      "start": 0.5185,
      "duration": 0.0006,
      "velocity": 97,
      "chip": "ym2612"
    },
    {
      "channel": 3,
      "note": 42,
      "start": 0.5189,
      "duration": 0.0013,
      "velocity": 95,
      "chip": "ym2612"
    },
    {
      "channel": 2,
      "note": 66,
      "start": 0.5197,
      "duration": 0.0004,
      "velocity": 97,
      "chip": "ym2612"
    },
    {
      "channel": 2,
      "note": 59,
      "start": 0.5208,
      "duration": 0.0008,
      "velocity": 97,
      "chip": "ym2612"
    },
    {
      "channel": 3,
      "note": 39,
      "start": 0.5212,
      "duration": 0.001,
      "velocity": 95,
      "chip": "ym2612"
    },
    {
      "channel": 2,
      "note": 66,
      "start": 0.5227,
      "duration": 0.0011,
      "velocity": 97,
      "chip": "ym2612"
    },
    {
      "channel": 3,
      "note": 39,
      "start": 0.523,
      "duration": 0.0009,
      "velocity": 95,
      "chip": "ym2612"
    },
    {
      "channel": 4,
      "note": 71,
      "start": 0.5234,
      "duration": 0.0033,
      "velocity": 105,
      "chip": "ym2612"
    },
    {
      "channel": 0,
      "note": 78,
      "start": 0.5243,
      "duration": 0.008,
      "velocity": 105,
      "chip": "ym2612"
    },
    {
      "channel": 1,
      "note": 76,
      "start": 0.5245,
      "duration": 0.0039,
      "velocity": 115,
      "chip": "ym2612"
    },
    {
      "channel": 2,
      "note": 52,
      "start": 0.5246,
      "duration": 0.001,
      "velocity": 97,
      "chip": "ym2612"
    },
    {
      "channel": 3,
      "note": 40,
      "start": 0.525,
      "duration": 0.0016,
      "velocity": 95,
      "chip": "ym2612"
    },
    {
      "channel": 2,
      "note": 52,
      "start": 0.5261,
      "duration": 0.0002,
      "velocity": 97,
      "chip": "ym2612"
    },
    {
      "channel": 2,
      "note": 59,
      "start": 0.5269,
      "duration": 0.0003,
      "velocity": 97,
      "chip": "ym2612"
    },
    {
      "channel": 4,
      "note": 78,
      "start": 0.5271,
      "duration": 0.0098,
      "velocity": 105,
      "chip": "ym2612"
    },
    {
      "channel": 2,
      "note": 52,
      "start": 0.5279,
      "duration": 0.0005,
      "velocity": 97,
      "chip": "ym2612"
    },
    {
      "channel": 3,
      "note": 47,
      "start": 0.5283,
      "duration": 0.0008,
      "velocity": 95,
      "chip": "ym2612"
    },
    {
      "channel": 1,
      "note": 73,
      "start": 0.5286,
      "duration": 0.0009,
      "velocity": 115,
      "chip": "ym2612"
    },
    {
      "channel": 2,
      "note": 52,
      "start": 0.5288,
      "duration": 0.0001,
      "velocity": 97,
      "chip": "ym2612"
    },
    {
      "channel": 2,
      "note": 59,
      "start": 0.5293,
      "duration": 0.0002,
      "velocity": 97,
      "chip": "ym2612"
    },
    {
      "channel": 1,
      "note": 71,
      "start": 0.5298,
      "duration": 0.0066,
      "velocity": 115,
      "chip": "ym2612"
    },
    {
      "channel": 2,
      "note": 52,
      "start": 0.5301,
      "duration": 0.0009,
      "velocity": 97,
      "chip": "ym2612"
    },
    {
      "channel": 3,
      "note": 40,
      "start": 0.5305,
      "duration": 0.0013,
      "velocity": 95,
      "chip": "ym2612"
    },
    {
      "channel": 2,
      "note": 52,
      "start": 0.5315,
      "duration": 0.0,
      "velocity": 97,
      "chip": "ym2612"
    },
    {
      "channel": 2,
      "note": 59,
      "start": 0.532,
      "duration": 0.0002,
      "velocity": 97,
      "chip": "ym2612"
    },
    {
      "channel": 0,
      "note": 82,
      "start": 0.5329,
      "duration": 0.0009,
      "velocity": 105,
      "chip": "ym2612"
    },
    {
      "channel": 2,
      "note": 52,
      "start": 0.5331,
      "duration": 0.0012,
      "velocity": 97,
      "chip": "ym2612"
    },
    {
      "channel": 3,
      "note": 47,
      "start": 0.5334,
      "duration": 0.0011,
      "velocity": 95,
      "chip": "ym2612"
    },
    {
      "channel": 0,
      "note": 83,
      "start": 0.5341,
      "duration": 0.0005,
      "velocity": 105,
      "chip": "ym2612"
    },
    {
      "channel": 0,
      "note": 82,
      "start": 0.535,
      "duration": 0.0018,
      "velocity": 105,
      "chip": "ym2612"
    },
    {
      "channel": 2,
      "note": 52,
      "start": 0.5352,
      "duration": 0.0013,
      "velocity": 97,
      "chip": "ym2612"
    },
    {
      "channel": 3,
      "note": 40,
      "start": 0.5355,
      "duration": 0.0013,
      "velocity": 95,
      "chip": "ym2612"
    },
    {
      "channel": 0,
      "note": 78,
      "start": 0.5372,
      "duration": 0.003,
      "velocity": 105,
      "chip": "ym2612"
    },
    {
      "channel": 2,
      "note": 59,
      "start": 0.5374,
      "duration": 0.0027,
      "velocity": 97,
      "chip": "ym2612"
    },
    {
      "channel": 3,
      "note": 40,
      "start": 0.5378,
      "duration": 0.0025,
      "velocity": 95,
      "chip": "ym2612"
    },
    {
      "channel": 4,
      "note": 82,
      "start": 0.538,
      "duration": 0.0023,
      "velocity": 105,
      "chip": "ym2612"
    },
    {
      "channel": 0,
      "note": 73,
      "start": 0.5405,
      "duration": 0.0065,
      "velocity": 105,
      "chip": "ym2612"
    },
    {
      "channel": 1,
      "note": 97,
      "start": 0.5408,
      "duration": 0.0016,
      "velocity": 115,
      "chip": "ym2612"
    },
    {
      "channel": 2,
      "note": 54,
      "start": 0.5411,
      "duration": 0.0012,
      "velocity": 97,
      "chip": "ym2612"
    },
    {
      "channel": 3,
      "note": 42,
      "start": 0.5413,
      "duration": 0.002,
      "velocity": 95,
      "chip": "ym2612"
    },
    {
      "channel": 4,
      "note": 83,
      "start": 0.5416,
      "duration": 0.0003,
      "velocity": 105,
      "chip": "ym2612"
    },
    {
      "channel": 4,
      "note": 82,
      "start": 0.5422,
      "duration": 0.0004,
      "velocity": 105,
      "chip": "ym2612"
    },
    {
      "channel": 1,
      "note": 94,
      "start": 0.5427,
      "duration": 0.0015,
      "velocity": 115,
      "chip": "ym2612"
    },
    {
      "channel": 2,
      "note": 54,
      "start": 0.5429,
      "duration": 0.0003,
      "velocity": 97,
      "chip": "ym2612"
    },
    {
      "channel": 4,
      "note": 78,
      "start": 0.5432,
      "duration": 0.0002,
      "velocity": 105,
      "chip": "ym2612"
    },
    {
      "channel": 2,
      "note": 61,
      "start": 0.5438,
      "duration": 0.0004,
      "velocity": 97,
      "chip": "ym2612"
    },
    {
      "channel": 4,
      "note": 73,
      "start": 0.5441,
      "duration": 0.007,
      "velocity": 105,
      "chip": "ym2612"
    },
    {
      "channel": 1,
      "note": 94,
      "start": 0.5446,
      "duration": 0.0007,
      "velocity": 115,
      "chip": "ym2612"
    },
    {
      "channel": 2,
      "note": 54,
      "start": 0.5449,
      "duration": 0.0007,
      "velocity": 97,
      "chip": "ym2612"
    },
    {
      "channel": 3,
      "note": 49,
      "start": 0.5452,
      "duration": 0.0013,
      "velocity": 95,
      "chip": "ym2612"
    },
    {
      "channel": 1,
      "note": 90,
      "start": 0.5455,
      "duration": 0.0004,
      "velocity": 115,
      "chip": "ym2612"
    },
    {
      "channel": 1,
      "note": 85,
      "start": 0.5461,
      "duration": 0.001,
      "velocity": 115,
      "chip": "ym2612"
    },
    {
      "channel": 2,
      "note": 54,
      "start": 0.5463,
      "duration": 0.0001,
      "velocity": 97,
      "chip": "ym2612"
    },
    {
      "channel": 2,
      "note": 61,
      "start": 0.5467,
      "duration": 0.0001,
      "velocity": 97,
      "chip": "ym2612"
    },
    {
      "channel": 1,
      "note": 82,
      "start": 0.5473,
      "duration": 0.002,
      "velocity": 115,
      "chip": "ym2612"
    },
    {
      "channel": 2,
      "note": 54,
      "start": 0.5476,
      "duration": 0.0017,
      "velocity": 97,
      "chip": "ym2612"
    },
    {
      "channel": 3,
      "note": 42,
      "start": 0.5479,
      "duration": 0.0025,
      "velocity": 95,
      "chip": "ym2612"
    },
    {
      "channel": 0,
      "note": 82,
      "start": 0.5486,
      "duration": 0.0007,
      "velocity": 115,
      "chip": "ym2612"
    },
    {
      "channel": 1,
      "note": 82,
      "start": 0.5496,
      "duration": 0.0007,
      "velocity": 115,
      "chip": "ym2612"
    },
    {
      "channel": 2,
      "note": 54,
      "start": 0.5498,
      "duration": 0.0003,
      "velocity": 97,
      "chip": "ym2612"
    },
    {
      "channel": 0,
      "note": 82,
      "start": 0.5501,
      "duration": 0.0005,
      "velocity": 115,
      "chip": "ym2612"
    },
    {
      "channel": 1,
      "note": 78,
      "start": 0.5508,
      "duration": 0.0016,
      "velocity": 115,
      "chip": "ym2612"
    },
    {
      "channel": 2,
      "note": 61,
      "start": 0.551,
      "duration": 0.0004,
      "velocity": 97,
      "chip": "ym2612"
    },
    {
      "channel": 0,
      "note": 78,
      "start": 0.5514,
      "duration": 0.0012,
      "velocity": 115,
      "chip": "ym2612"
    },
    {
      "channel": 4,
      "note": 82,
      "start": 0.5524,
      "duration": 0.0016,
      "velocity": 115,
      "chip": "ym2612"
    },
    {
      "channel": 1,
      "note": 73,
      "start": 0.5528,
      "duration": 0.0015,
      "velocity": 115,
      "chip": "ym2612"
    },
    {
      "channel": 2,
      "note": 54,
      "start": 0.553,
      "duration": 0.0006,
      "velocity": 97,
      "chip": "ym2612"
    },
    {
      "channel": 3,
      "note": 46,
      "start": 0.5534,
      "duration": 0.0007,
      "velocity": 95,
      "chip": "ym2612"
    },
    {
      "channel": 0,
      "note": 73,
      "start": 0.5536,
      "duration": 0.001,
      "velocity": 115,
      "chip": "ym2612"
    },
    {
      "channel": 2,
      "note": 61,
      "start": 0.5539,
      "duration": 0.0005,
      "velocity": 97,
      "chip": "ym2612"
    },
    {
      "channel": 4,
      "note": 82,
      "start": 0.5542,
      "duration": 0.0012,
      "velocity": 115,
      "chip": "ym2612"
    },
    {
      "channel": 1,
      "note": 71,
      "start": 0.5548,
      "duration": 0.0039,
      "velocity": 115,
      "chip": "ym2612"
    },
    {
      "channel": 2,
      "note": 54,
      "start": 0.5551,
      "duration": 0.0033,
      "velocity": 97,
      "chip": "ym2612"
    },
    {
      "channel": 3,
      "note": 47,
      "start": 0.5554,
      "duration": 0.0034,
      "velocity": 95,
      "chip": "ym2612"
    },
    {
      "channel": 0,
      "note": 71,
      "start": 0.5583,
      "duration": 0.0005,
      "velocity": 115,
      "chip": "ym2612"
    },
    {
      "channel": 4,
      "note": 78,
      "start": 0.5587,
      "duration": 0.0011,
      "velocity": 115,
      "chip": "ym2612"
    },
    {
      "channel": 1,
      "note": 70,
      "start": 0.5591,
      "duration": 0.0016,
      "velocity": 115,
      "chip": "ym2612"
    },
    {
      "channel": 2,
      "note": 61,
      "start": 0.5593,
      "duration": 0.0015,
      "velocity": 97,
      "chip": "ym2612"
    },
    {
      "channel": 3,
      "note": 47,
      "start": 0.5597,
      "duration": 0.0012,
      "velocity": 95,
      "chip": "ym2612"
    },
    {
      "channel": 0,
      "note": 70,
      "start": 0.5602,
      "duration": 0.0003,
      "velocity": 115,
      "chip": "ym2612"
    },
    {
      "channel": 4,
      "note": 73,
      "start": 0.5604,
      "duration": 0.0022,
      "velocity": 115,
      "chip": "ym2612"
    },
    {
      "channel": 0,
      "note": 97,
      "start": 0.5613,
      "duration": 0.0041,
      "velocity": 115,
      "chip": "ym2612"
    },
    {
      "channel": 1,
      "note": 76,
      "start": 0.5616,
      "duration": 0.0038,
      "velocity": 115,
      "chip": "ym2612"
    },
    {
      "channel": 2,
      "note": 49,
      "start": 0.5619,
      "duration": 0.0009,
      "velocity": 97,
      "chip": "ym2612"
    },
    {
      "channel": 3,
      "note": 49,
      "start": 0.5622,
      "duration": 0.0017,
      "velocity": 95,
      "chip": "ym2612"
    },
    {
      "channel": 4,
      "note": 71,
      "start": 0.5631,
      "duration": 0.0004,
      "velocity": 115,
      "chip": "ym2612"
    },
    {
      "channel": 2,
      "note": 49,
      "start": 0.5633,
      "duration": 0.0002,
      "velocity": 97,
      "chip": "ym2612"
    },
    {
      "channel": 4,
      "note": 70,
      "start": 0.5637,
      "duration": 0.0003,
      "velocity": 115,
      "chip": "ym2612"
    },
    {
      "channel": 2,
      "note": 56,
      "start": 0.5647,
      "duration": 0.0006,
      "velocity": 97,
      "chip": "ym2612"
    },
    {
      "channel": 4,
      "note": 97,
      "start": 0.5652,
      "duration": 0.0047,
      "velocity": 115,
      "chip": "ym2612"
    },
    {
      "channel": 0,
      "note": 104,
      "start": 0.5657,
      "duration": 0.0057,
      "velocity": 115,
      "chip": "ym2612"
    },
    {
      "channel": 1,
      "note": 73,
      "start": 0.566,
      "duration": 0.0061,
      "velocity": 115,
      "chip": "ym2612"
    },
    {
      "channel": 2,
      "note": 49,
      "start": 0.5663,
      "duration": 0.0004,
      "velocity": 97,
      "chip": "ym2612"
    },
    {
      "channel": 3,
      "note": 44,
      "start": 0.5666,
      "duration": 0.0006,
      "velocity": 95,
      "chip": "ym2612"
    },
    {
      "channel": 2,
      "note": 56,
      "start": 0.567,
      "duration": 0.0001,
      "velocity": 97,
      "chip": "ym2612"
    },
    {
      "channel": 2,
      "note": 49,
      "start": 0.5675,
      "duration": 0.0019,
      "velocity": 97,
      "chip": "ym2612"
    },
    {
      "channel": 3,
      "note": 49,
      "start": 0.5678,
      "duration": 0.002,
      "velocity": 95,
      "chip": "ym2612"
    },
    {
      "channel": 2,
      "note": 56,
      "start": 0.5704,
      "duration": 0.0012,
      "velocity": 97,
      "chip": "ym2612"
    },
    {
      "channel": 3,
      "note": 49,
      "start": 0.5706,
      "duration": 0.0016,
      "velocity": 95,
      "chip": "ym2612"
    },
    {
      "channel": 4,
      "note": 104,
      "start": 0.571,
      "duration": 0.004,
      "velocity": 115,
      "chip": "ym2612"
    },
    {
      "channel": 0,
      "note": 102,
      "start": 0.5726,
      "duration": 0.004,
      "velocity": 115,
      "chip": "ym2612"
    },
    {
      "channel": 1,
      "note": 71,
      "start": 0.5728,
      "duration": 0.0038,
      "velocity": 115,
      "chip": "ym2612"
    },
    {
      "channel": 2,
      "note": 59,
      "start": 0.5731,
      "duration": 0.0007,
      "velocity": 97,
      "chip": "ym2612"
    },
    {
      "channel": 3,
      "note": 47,
      "start": 0.5733,
      "duration": 0.002,
      "velocity": 95,
      "chip": "ym2612"
    },
    {
      "channel": 2,
      "note": 59,
      "start": 0.5746,
      "duration": 0.0002,
      "velocity": 97,
      "chip": "ym2612"
    },
    {
      "channel": 2,
      "note": 66,
      "start": 0.576,
      "duration": 0.0004,
      "velocity": 97,
      "chip": "ym2612"
    },
    {
      "channel": 4,
      "note": 102,
      "start": 0.5763,
      "duration": 0.0038,
      "velocity": 115,
      "chip": "ym2612"
    },
    {
      "channel": 0,
      "note": 99,
      "start": 0.577,
      "duration": 0.0012,
      "velocity": 115,
      "chip": "ym2612"
    },
    {
      "channel": 1,
      "note": 78,
      "start": 0.5771,
      "duration": 0.0042,
      "velocity": 115,
      "chip": "ym2612"
    },
    {
      "channel": 2,
      "note": 59,
      "start": 0.5774,
      "duration": 0.0005,
      "velocity": 97,
      "chip": "ym2612"
    },
    {
      "channel": 3,
      "note": 42,
      "start": 0.5777,
      "duration": 0.0006,
      "velocity": 95,
      "chip": "ym2612"
    },
    {
      "channel": 2,
      "note": 66,
      "start": 0.5781,
      "duration": 0.0002,
      "velocity": 97,
      "chip": "ym2612"
    },
    {
      "channel": 0,
      "note": 95,
      "start": 0.5787,
      "duration": 0.0023,
      "velocity": 115,
      "chip": "ym2612"
    },
    {
      "channel": 2,
      "note": 59,
      "start": 0.579,
      "duration": 0.001,
      "velocity": 97,
      "chip": "ym2612"
    },
    {
      "channel": 3,
      "note": 47,
      "start": 0.5793,
      "duration": 0.0007,
      "velocity": 95,
      "chip": "ym2612"
    },
    {
      "channel": 2,
      "note": 66,
      "start": 0.5803,
      "duration": 0.0009,
      "velocity": 97,
      "chip": "ym2612"
    },
    {
      "channel": 3,
      "note": 47,
      "start": 0.5806,
      "duration": 0.0008,
      "velocity": 95,
      "chip": "ym2612"
    },
    {
      "channel": 4,
      "note": 99,
      "start": 0.5809,
      "duration": 0.0022,
      "velocity": 115,
      "chip": "ym2612"
    },
    {
      "channel": 0,
      "note": 100,
      "start": 0.5818,
      "duration": 0.0057,
      "velocity": 115,
      "chip": "ym2612"
    },
    {
      "channel": 1,
      "note": 73,
      "start": 0.5821,
      "duration": 0.0029,
      "velocity": 115,
      "chip": "ym2612"
    },
    {
      "channel": 2,
      "note": 57,
      "start": 0.5823,
      "duration": 0.0012,
      "velocity": 97,
      "chip": "ym2612"
    },
    {
      "channel": 3,
      "note": 45,
      "start": 0.5827,
      "duration": 0.0015,
      "velocity": 95,
      "chip": "ym2612"
    },
    {
      "channel": 4,
      "note": 95,
      "start": 0.5834,
      "duration": 0.0005,
      "velocity": 115,
      "chip": "ym2612"
    },
    {
      "channel": 2,
      "note": 57,
      "start": 0.5837,
      "duration": 0.0001,
      "velocity": 97,
      "chip": "ym2612"
    },
    {
      "channel": 2,
      "note": 64,
      "start": 0.5844,
      "duration": 0.0004,
      "velocity": 97,
      "chip": "ym2612"
    },
    {
      "channel": 4,
      "note": 100,
      "start": 0.5848,
      "duration": 0.0057,
      "velocity": 115,
      "chip": "ym2612"
    },
    {
      "channel": 1,
      "note": 69,
      "start": 0.5851,
      "duration": 0.0034,
      "velocity": 115,
      "chip": "ym2612"
    },
    {
      "channel": 2,
      "note": 57,
      "start": 0.5854,
      "duration": 0.0006,
      "velocity": 97,
      "chip": "ym2612"
    },
    {
      "channel": 3,
      "note": 40,
      "start": 0.5858,
      "duration": 0.0006,
      "velocity": 95,
      "chip": "ym2612"
    },
    {
      "channel": 2,
      "note": 64,
      "start": 0.5862,
      "duration": 0.0001,
      "velocity": 97,
      "chip": "ym2612"
    },
    {
      "channel": 2,
      "note": 57,
      "start": 0.5868,
      "duration": 0.0006,
      "velocity": 97,
      "chip": "ym2612"
    },
    {
      "channel": 3,
      "note": 45,
      "start": 0.5871,
      "duration": 0.0005,
      "velocity": 95,
      "chip": "ym2612"
    },
    {
      "channel": 2,
      "note": 64,
      "start": 0.5879,
      "duration": 0.0005,
      "velocity": 97,
      "chip": "ym2612"
    },
    {
      "channel": 3,
      "note": 45,
      "start": 0.5882,
      "duration": 0.0005,
      "velocity": 95,
      "chip": "ym2612"
    },
    {
      "channel": 0,
      "note": 98,
      "start": 0.589,
      "duration": 0.0028,
      "velocity": 115,
      "chip": "ym2612"
    },
    {
      "channel": 1,
      "note": 71,
      "start": 0.5892,
      "duration": 0.0028,
      "velocity": 115,
      "chip": "ym2612"
    },
    {
      "channel": 2,
      "note": 59,
      "start": 0.5895,
      "duration": 0.0009,
      "velocity": 97,
      "chip": "ym2612"
    },
    {
      "channel": 3,
      "note": 47,
      "start": 0.5898,
      "duration": 0.0011,
      "velocity": 95,
      "chip": "ym2612"
    },
    {
      "channel": 2,
      "note": 59,
      "start": 0.5907,
      "duration": 0.0001,
      "velocity": 97,
      "chip": "ym2612"
    },
    {
      "channel": 2,
      "note": 66,
      "start": 0.5911,
      "duration": 0.0006,
      "velocity": 97,
      "chip": "ym2612"
    },
    {
      "channel": 4,
      "note": 98,
      "start": 0.5913,
      "duration": 0.0059,
      "velocity": 115,
      "chip": "ym2612"
    },
    {
      "channel": 0,
      "note": 102,
      "start": 0.5926,
      "duration": 0.044,
      "velocity": 115,
      "chip": "ym2612"
    },
    {
      "channel": 1,
      "note": 75,
      "start": 0.5929,
      "duration": 0.0062,
      "velocity": 115,
      "chip": "ym2612"
    },
    {
      "channel": 2,
      "note": 59,
      "start": 0.5932,
      "duration": 0.0004,
      "velocity": 97,
      "chip": "ym2612"
    },
    {
      "channel": 3,
      "note": 42,
      "start": 0.5935,
      "duration": 0.0004,
      "velocity": 95,
      "chip": "ym2612"
    },
    {
      "channel": 2,
      "note": 66,
      "start": 0.5938,
      "duration": 0.0,
      "velocity": 97,
      "chip": "ym2612"
    },
    {
      "channel": 2,
      "note": 59,
      "start": 0.5943,
      "duration": 0.0023,
      "velocity": 97,
      "chip": "ym2612"
    },
    {
      "channel": 3,
      "note": 47,
      "start": 0.5946,
      "duration": 0.0026,
      "velocity": 95,
      "chip": "ym2612"
    },
    {
      "channel": 2,
      "note": 66,
      "start": 0.5978,
      "duration": 0.0011,
      "velocity": 97,
      "chip": "ym2612"
    },
    {
      "channel": 3,
      "note": 47,
      "start": 0.5981,
      "duration": 0.0011,
      "velocity": 95,
      "chip": "ym2612"
    },
    {
      "channel": 4,
      "note": 102,
      "start": 0.5984,
      "duration": 0.0416,
      "velocity": 105,
      "chip": "ym2612"
    },
    {
      "channel": 1,
      "note": 77,
      "start": 0.6001,
      "duration": 0.0365,
      "velocity": 115,
      "chip": "ym2612"
    },
    {
      "channel": 2,
      "note": 49,
      "start": 0.6004,
      "duration": 0.001,
      "velocity": 97,
      "chip": "ym2612"
    },
    {
      "channel": 3,
      "note": 49,
      "start": 0.6007,
      "duration": 0.0109,
      "velocity": 120,
      "chip": "ym2612"
    },
    {
      "channel": 2,
      "note": 49,
      "start": 0.6023,
      "duration": 0.0002,
      "velocity": 97,
      "chip": "ym2612"
    },
    {
      "channel": 2,
      "note": 56,
      "start": 0.6033,
      "duration": 0.0003,
      "velocity": 97,
      "chip": "ym2612"
    },
    {
      "channel": 2,
      "note": 49,
      "start": 0.6039,
      "duration": 0.0002,
      "velocity": 97,
      "chip": "ym2612"
    },
    {
      "channel": 2,
      "note": 49,
      "start": 0.6045,
      "duration": 0.0,
      "velocity": 97,
      "chip": "ym2612"
    },
    {
      "channel": 2,
      "note": 56,
      "start": 0.6048,
      "duration": 0.0001,
      "velocity": 97,
      "chip": "ym2612"
    },
    {
      "channel": 2,
      "note": 49,
      "start": 0.6051,
      "duration": 0.0002,
      "velocity": 97,
      "chip": "ym2612"
    },
    {
      "channel": 2,
      "note": 49,
      "start": 0.6056,
      "duration": 0.0001,
      "velocity": 97,
      "chip": "ym2612"
    },
    {
      "channel": 2,
      "note": 56,
      "start": 0.6061,
      "duration": 0.0001,
      "velocity": 97,
      "chip": "ym2612"
    },
    {
      "channel": 2,
      "note": 49,
      "start": 0.6065,
      "duration": 0.0,
      "velocity": 97,
      "chip": "ym2612"
    },
    {
      "channel": 2,
      "note": 56,
      "start": 0.6068,
      "duration": 0.0001,
      "velocity": 97,
      "chip": "ym2612"
    },
    {
      "channel": 2,
      "note": 49,
      "start": 0.6072,
      "duration": 0.003,
      "velocity": 97,
      "chip": "ym2612"
    },
    {
      "channel": 2,
      "note": 56,
      "start": 0.6105,
      "duration": 0.0011,
      "velocity": 97,
      "chip": "ym2612"
    },
    {
      "channel": 2,
      "note": 49,
      "start": 0.6129,
      "duration": 0.0014,
      "velocity": 97,
      "chip": "ym2612"
    },
    {
      "channel": 3,
      "note": 75,
      "start": 0.613,
      "duration": 0.0007,
      "velocity": 61,
      "chip": "ym2612"
    },
    {
      "channel": 3,
      "note": 77,
      "start": 0.614,
      "duration": 0.0004,
      "velocity": 61,
      "chip": "ym2612"
    },
    {
      "channel": 2,
      "note": 49,
      "start": 0.6149,
      "duration": 0.0003,
      "velocity": 97,
      "chip": "ym2612"
    },
    {
      "channel": 3,
      "note": 80,
      "start": 0.6152,
      "duration": 0.0005,
      "velocity": 61,
      "chip": "ym2612"
    },
    {
      "channel": 2,
      "note": 56,
      "start": 0.6159,
      "duration": 0.0009,
      "velocity": 97,
      "chip": "ym2612"
    },
    {
      "channel": 3,
      "note": 85,
      "start": 0.6162,
      "duration": 0.0007,
      "velocity": 61,
      "chip": "ym2612"
    },
    {
      "channel": 2,
      "note": 49,
      "start": 0.6178,
      "duration": 0.002,
      "velocity": 97,
      "chip": "ym2612"
    },
    {
      "channel": 3,
      "note": 77,
      "start": 0.618,
      "duration": 0.0008,
      "velocity": 61,
      "chip": "ym2612"
    },
    {
      "channel": 3,
      "note": 80,
      "start": 0.6191,
      "duration": 0.0007,
      "velocity": 61,
      "chip": "ym2612"
    },
    {
      "channel": 2,
      "note": 49,
      "start": 0.6207,
      "duration": 0.0003,
      "velocity": 97,
      "chip": "ym2612"
    },
    {
      "channel": 3,
      "note": 85,
      "start": 0.6209,
      "duration": 0.0008,
      "velocity": 61,
      "chip": "ym2612"
    },
    {
      "channel": 2,
      "note": 56,
      "start": 0.622,
      "duration": 0.001,
      "velocity": 97,
      "chip": "ym2612"
    },
    {
      "channel": 3,
      "note": 87,
      "start": 0.6222,
      "duration": 0.0008,
      "velocity": 61,
      "chip": "ym2612"
    },
    {
      "channel": 2,
      "note": 49,
      "start": 0.6241,
      "duration": 0.0027,
      "velocity": 97,
      "chip": "ym2612"
    },
    {
      "channel": 3,
      "note": 80,
      "start": 0.6243,
      "duration": 0.0012,
      "velocity": 61,
      "chip": "ym2612"
    },
    {
      "channel": 3,
      "note": 85,
      "start": 0.6258,
      "duration": 0.0011,
      "velocity": 61,
      "chip": "ym2612"
    },
    {
      "channel": 2,
      "note": 49,
      "start": 0.6276,
      "duration": 0.0003,
      "velocity": 97,
      "chip": "ym2612"
    },
    {
      "channel": 3,
      "note": 87,
      "start": 0.6278,
      "duration": 0.0008,
      "velocity": 61,
      "chip": "ym2612"
    },
    {
      "channel": 2,
      "note": 56,
      "start": 0.6288,
      "duration": 0.001,
      "velocity": 97,
      "chip": "ym2612"
    },
    {
      "channel": 3,
      "note": 89,
      "start": 0.629,
      "duration": 0.0009,
      "velocity": 61,
      "chip": "ym2612"
    },
    {
      "channel": 2,
      "note": 49,
      "start": 0.6308,
      "duration": 0.0006,
      "velocity": 97,
      "chip": "ym2612"
    },
    {
      "channel": 3,
      "note": 85,
      "start": 0.6311,
      "duration": 0.001,
      "velocity": 61,
      "chip": "ym2612"
    },
    {
      "channel": 2,
      "note": 56,
      "start": 0.6323,
      "duration": 0.001,
      "velocity": 97,
      "chip": "ym2612"
    },
    {
      "channel": 3,
      "note": 87,
      "start": 0.6326,
      "duration": 0.0009,
      "velocity": 61,
      "chip": "ym2612"
    },
    {
      "channel": 2,
      "note": 49,
      "start": 0.6341,
      "duration": 0.0005,
      "velocity": 97,
      "chip": "ym2612"
    },
    {
      "channel": 3,
      "note": 89,
      "start": 0.6344,
      "duration": 0.0009,
      "velocity": 61,
      "chip": "ym2612"
    },
    {
      "channel": 2,
      "note": 56,
      "start": 0.6354,
      "duration": 0.0011,
      "velocity": 97,
      "chip": "ym2612"
    },
    {
      "channel": 3,
      "note": 92,
      "start": 0.6356,
      "duration": 0.0011,
      "velocity": 61,
      "chip": "ym2612"
    },
    {
      "channel": 0,
      "note": 61,
      "start": 0.6377,
      "duration": 0.0085,
      "velocity": 105,
      "chip": "ym2612"
    },
    {
      "channel": 1,
      "note": 73,
      "start": 0.6383,
      "duration": 0.008,
      "velocity": 105,
      "chip": "ym2612"
    },
    {
      "channel": 2,
      "note": 47,
      "start": 0.6386,
      "duration": 0.0032,
      "velocity": 97,
      "chip": "ym2612"
    },
    {
      "channel": 3,
      "note": 37,
      "start": 0.6393,
      "duration": 0.0029,
      "velocity": 95,
      "chip": "ym2612"
    },
    {
      "channel": 4,
      "note": 61,
      "start": 0.6402,
      "duration": 58.9023,
      "velocity": 105,
      "chip": "ym2612"
    },
    {
      "channel": 2,
      "note": 49,
      "start": 0.642,
      "duration": 0.0001,
      "velocity": 97,
      "chip": "ym2612"
    },
    {
      "channel": 2,
      "note": 56,
      "start": 0.6424,
      "duration": 0.0001,
      "velocity": 97,
      "chip": "ym2612"
    },
    {
      "channel": 2,
      "note": 49,
      "start": 0.6435,
      "duration": 0.0008,
      "velocity": 97,
      "chip": "ym2612"
    },
    {
      "channel": 3,
      "note": 44,
      "start": 0.6438,
      "duration": 0.0014,
      "velocity": 95,
      "chip": "ym2612"
    },
    {
      "channel": 2,
      "note": 49,
      "start": 0.645,
      "duration": 0.0001,
      "velocity": 97,
      "chip": "ym2612"
    },
    {
      "channel": 2,
      "note": 56,
      "start": 0.6459,
      "duration": 0.0002,
      "velocity": 97,
      "chip": "ym2612"
    }
  ]
}