{
  "track_name": "16 - Torchlight",
  "duration_sec": 74.571,
  "sample_rate": 44100,
  "note_count": 322,
  "unique_pitches": 32,
  "pitch_range": 43,
  "avg_note_duration": 1.046,
  "reconstruction_stats": {
    "notes_reconstructed": 322,
    "keyon_events": 322,
    "keyoff_events": 313,
    "orphan_keyons": 2,
    "unique_pitches": 32,
    "pitch_range": 43,
    "avg_duration_sec": 1.046
  },
  "metadata": {
    "source": "L\\LandStalker\\16 - Torchlight.vgz"
  },
  "notes": [
    {
      "channel": 2,
      "note": 55,
      "start": 0.0504,
      "duration": 3.8688,
      "velocity": 82,
      "chip": "ym2612"
    },
    {
      "channel": 3,
      "note": 53,
      "start": 0.0541,
      "duration": 1.9298,
      "velocity": 107,
      "chip": "ym2612"
    },
    {
      "channel": 4,
      "note": 85,
      "start": 0.0578,
      "duration": 1.9058,
      "velocity": 107,
      "chip": "ym2612"
    },
    {
      "channel": 1,
      "note": 74,
      "start": 0.5328,
      "duration": 0.462,
      "velocity": 92,
      "chip": "ym2612"
    },
    {
      "channel": 0,
      "note": 80,
      "start": 1.0166,
      "duration": 0.9459,
      "velocity": 92,
      "chip": "ym2612"
    },
    {
      "channel": 1,
      "note": 76,
      "start": 1.0171,
      "duration": 0.4616,
      "velocity": 92,
      "chip": "ym2612"
    },
    {
      "channel": 1,
      "note": 77,
      "start": 1.499,
      "duration": 0.4636,
      "velocity": 92,
      "chip": "ym2612"
    },
    {
      "channel": 0,
      "note": 88,
      "start": 1.9827,
      "duration": 0.9476,
      "velocity": 92,
      "chip": "ym2612"
    },
    {
      "channel": 1,
      "note": 73,
      "start": 1.9833,
      "duration": 1.4312,
      "velocity": 92,
      "chip": "ym2612"
    },
    {
      "channel": 3,
      "note": 83,
      "start": 1.9842,
      "duration": 1.9355,
      "velocity": 107,
      "chip": "ym2612"
    },
    {
      "channel": 4,
      "note": 80,
      "start": 1.9849,
      "duration": 1.9144,
      "velocity": 107,
      "chip": "ym2612"
    },
    {
      "channel": 0,
      "note": 89,
      "start": 2.9506,
      "duration": 1.4315,
      "velocity": 92,
      "chip": "ym2612"
    },
    {
      "channel": 1,
      "note": 74,
      "start": 3.4348,
      "duration": 0.4636,
      "velocity": 92,
      "chip": "ym2612"
    },
    {
      "channel": 1,
      "note": 71,
      "start": 3.9188,
      "duration": 0.9475,
      "velocity": 92,
      "chip": "ym2612"
    },
    {
      "channel": 2,
      "note": 55,
      "start": 3.9193,
      "duration": 3.8716,
      "velocity": 82,
      "chip": "ym2612"
    },
    {
      "channel": 3,
      "note": 83,
      "start": 3.92,
      "duration": 1.9354,
      "velocity": 107,
      "chip": "ym2612"
    },
    {
      "channel": 4,
      "note": 80,
      "start": 3.9207,
      "duration": 1.9144,
      "velocity": 107,
      "chip": "ym2612"
    },
    {
      "channel": 0,
      "note": 80,
      "start": 4.4024,
      "duration": 0.4636,
      "velocity": 92,
      "chip": "ym2612"
    },
    {
      "channel": 0,
      "note": 88,
      "start": 4.8864,
      "duration": 0.4636,
      "velocity": 92,
      "chip": "ym2612"
    },
    {
      "channel": 1,
      "note": 73,
      "start": 4.8869,
      "duration": 0.4634,
      "velocity": 92,
      "chip": "ym2612"
    },
    {
      "channel": 0,
      "note": 89,
      "start": 5.3703,
      "duration": 0.4636,
      "velocity": 92,
      "chip": "ym2612"
    },
    {
      "channel": 1,
      "note": 74,
      "start": 5.3709,
      "duration": 0.4633,
      "velocity": 92,
      "chip": "ym2612"
    },
    {
      "channel": 0,
      "note": 91,
      "start": 5.8542,
      "duration": 0.4636,
      "velocity": 92,
      "chip": "ym2612"
    },
    {
      "channel": 1,
      "note": 76,
      "start": 5.8549,
      "duration": 0.4633,
      "velocity": 92,
      "chip": "ym2612"
    },
    {
      "channel": 3,
      "note": 83,
      "start": 5.8558,
      "duration": 1.9357,
      "velocity": 107,
      "chip": "ym2612"
    },
    {
      "channel": 4,
      "note": 80,
      "start": 5.8565,
      "duration": 1.9144,
      "velocity": 107,
      "chip": "ym2612"
    },
    {
      "channel": 0,
      "note": 92,
      "start": 6.3383,
      "duration": 0.4635,
      "velocity": 92,
      "chip": "ym2612"
    },
    {
      "channel": 1,
      "note": 77,
      "start": 6.3388,
      "duration": 0.4633,
      "velocity": 92,
      "chip": "ym2612"
    },
    {
      "channel": 0,
      "note": 88,
      "start": 6.8221,
      "duration": 0.4636,
      "velocity": 92,
      "chip": "ym2612"
    },
    {
      "channel": 1,
      "note": 79,
      "start": 6.8227,
      "duration": 0.4633,
      "velocity": 92,
      "chip": "ym2612"
    },
    {
      "channel": 0,
      "note": 89,
      "start": 7.3061,
      "duration": 0.4636,
      "velocity": 92,
      "chip": "ym2612"
    },
    {
      "channel": 1,
      "note": 80,
      "start": 7.3066,
      "duration": 0.4634,
      "velocity": 92,
      "chip": "ym2612"
    },
    {
      "channel": 0,
      "note": 85,
      "start": 7.7901,
      "duration": 3.8716,
      "velocity": 92,
      "chip": "ym2612"
    },
    {
      "channel": 1,
      "note": 82,
      "start": 7.7906,
      "duration": 0.4632,
      "velocity": 92,
      "chip": "ym2612"
    },
    {
      "channel": 2,
      "note": 55,
      "start": 7.7912,
      "duration": 1.9349,
      "velocity": 82,
      "chip": "ym2612"
    },
    {
      "channel": 3,
      "note": 83,
      "start": 7.7919,
      "duration": 1.9348,
      "velocity": 107,
      "chip": "ym2612"
    },
    {
      "channel": 4,
      "note": 80,
      "start": 7.7926,
      "duration": 1.9139,
      "velocity": 107,
      "chip": "ym2612"
    },
    {
      "channel": 1,
      "note": 76,
      "start": 8.2742,
      "duration": 0.4635,
      "velocity": 92,
      "chip": "ym2612"
    },
    {
      "channel": 1,
      "note": 77,
      "start": 8.7581,
      "duration": 0.4636,
      "velocity": 92,
      "chip": "ym2612"
    },
    {
      "channel": 1,
      "note": 71,
      "start": 9.242,
      "duration": 1.4316,
      "velocity": 92,
      "chip": "ym2612"
    },
    {
      "channel": 2,
      "note": 49,
      "start": 9.7263,
      "duration": 1.9363,
      "velocity": 82,
      "chip": "ym2612"
    },
    {
      "channel": 3,
      "note": 82,
      "start": 9.727,
      "duration": 1.9362,
      "velocity": 107,
      "chip": "ym2612"
    },
    {
      "channel": 4,
      "note": 79,
      "start": 9.7277,
      "duration": 1.9146,
      "velocity": 107,
      "chip": "ym2612"
    },
    {
      "channel": 1,
      "note": 82,
      "start": 10.6938,
      "duration": 0.4636,
      "velocity": 92,
      "chip": "ym2612"
    },
    {
      "channel": 1,
      "note": 76,
      "start": 11.1778,
      "duration": 0.4636,
      "velocity": 92,
      "chip": "ym2612"
    },
    {
      "channel": 0,
      "note": 85,
      "start": 11.6617,
      "duration": 1.9152,
      "velocity": 92,
      "chip": "ym2612"
    },
    {
      "channel": 1,
      "note": 77,
      "start": 11.6622,
      "duration": 0.463,
      "velocity": 92,
      "chip": "ym2612"
    },
    {
      "channel": 2,
      "note": 55,
      "start": 11.6628,
      "duration": 1.9351,
      "velocity": 82,
      "chip": "ym2612"
    },
    {
      "channel": 3,
      "note": 82,
      "start": 11.6635,
      "duration": 1.9351,
      "velocity": 107,
      "chip": "ym2612"
    },
    {
      "channel": 4,
      "note": 79,
      "start": 11.6642,
      "duration": 1.9139,
      "velocity": 107,
      "chip": "ym2612"
    },
    {
      "channel": 1,
      "note": 71,
      "start": 12.1456,
      "duration": 0.4636,
      "velocity": 92,
      "chip": "ym2612"
    },
    {
      "channel": 1,
      "note": 82,
      "start": 12.6295,
      "duration": 1.4315,
      "velocity": 92,
      "chip": "ym2612"
    },
    {
      "channel": 0,
      "note": 77,
      "start": 13.5973,
      "duration": 1.9153,
      "velocity": 92,
      "chip": "ym2612"
    },
    {
      "channel": 2,
      "note": 49,
      "start": 13.5982,
      "duration": 1.9374,
      "velocity": 82,
      "chip": "ym2612"
    },
    {
      "channel": 3,
      "note": 82,
      "start": 13.5989,
      "duration": 1.9389,
      "velocity": 107,
      "chip": "ym2612"
    },
    {
      "channel": 4,
      "note": 79,
      "start": 13.5996,
      "duration": 1.9142,
      "velocity": 107,
      "chip": "ym2612"
    },
    {
      "channel": 1,
      "note": 84,
      "start": 14.0814,
      "duration": 0.4636,
      "velocity": 92,
      "chip": "ym2612"
    },
    {
      "channel": 1,
      "note": 85,
      "start": 14.5653,
      "duration": 0.4636,
      "velocity": 92,
      "chip": "ym2612"
    },
    {
      "channel": 1,
      "note": 87,
      "start": 15.0493,
      "duration": 0.4636,
      "velocity": 92,
      "chip": "ym2612"
    },
    {
      "channel": 1,
      "note": 88,
      "start": 15.535,
      "duration": 2.9023,
      "velocity": 92,
      "chip": "ym2612"
    },
    {
      "channel": 2,
      "note": 53,
      "start": 15.5374,
      "duration": 2.9002,
      "velocity": 82,
      "chip": "ym2612"
    },
    {
      "channel": 3,
      "note": 82,
      "start": 15.5382,
      "duration": 0.9635,
      "velocity": 107,
      "chip": "ym2612"
    },
    {
      "channel": 4,
      "note": 79,
      "start": 15.5389,
      "duration": 0.9427,
      "velocity": 107,
      "chip": "ym2612"
    },
    {
      "channel": 0,
      "note": 72,
      "start": 16.0169,
      "duration": 0.4635,
      "velocity": 92,
      "chip": "ym2612"
    },
    {
      "channel": 0,
      "note": 76,
      "start": 16.5008,
      "duration": 0.4636,
      "velocity": 92,
      "chip": "ym2612"
    },
    {
      "channel": 3,
      "note": 76,
      "start": 16.502,
      "duration": 0.9673,
      "velocity": 107,
      "chip": "ym2612"
    },
    {
      "channel": 4,
      "note": 72,
      "start": 16.5027,
      "duration": 0.9468,
      "velocity": 107,
      "chip": "ym2612"
    },
    {
      "channel": 0,
      "note": 77,
      "start": 16.9847,
      "duration": 0.9475,
      "velocity": 92,
      "chip": "ym2612"
    },
    {
      "channel": 3,
      "note": 71,
      "start": 17.4696,
      "duration": 0.9688,
      "velocity": 107,
      "chip": "ym2612"
    },
    {
      "channel": 4,
      "note": 67,
      "start": 17.4703,
      "duration": 0.9472,
      "velocity": 107,
      "chip": "ym2612"
    },
    {
      "channel": 0,
      "note": 76,
      "start": 17.9526,
      "duration": 0.4635,
      "velocity": 92,
      "chip": "ym2612"
    },
    {
      "channel": 0,
      "note": 71,
      "start": 18.4365,
      "duration": 0.4636,
      "velocity": 92,
      "chip": "ym2612"
    },
    {
      "channel": 1,
      "note": 88,
      "start": 18.4373,
      "duration": 2.8828,
      "velocity": 92,
      "chip": "ym2612"
    },
    {
      "channel": 2,
      "note": 53,
      "start": 18.4379,
      "duration": 2.9031,
      "velocity": 82,
      "chip": "ym2612"
    },
    {
      "channel": 3,
      "note": 83,
      "start": 18.4387,
      "duration": 0.9667,
      "velocity": 107,
      "chip": "ym2612"
    },
    {
      "channel": 4,
      "note": 79,
      "start": 18.4394,
      "duration": 0.9459,
      "velocity": 107,
      "chip": "ym2612"
    },
    {
      "channel": 0,
      "note": 72,
      "start": 18.9204,
      "duration": 0.4636,
      "velocity": 92,
      "chip": "ym2612"
    },
    {
      "channel": 0,
      "note": 76,
      "start": 19.4044,
      "duration": 0.4636,
      "velocity": 92,
      "chip": "ym2612"
    },
    {
      "channel": 3,
      "note": 76,
      "start": 19.4057,
      "duration": 0.9672,
      "velocity": 107,
      "chip": "ym2612"
    },
    {
      "channel": 4,
      "note": 72,
      "start": 19.4064,
      "duration": 0.9466,
      "velocity": 107,
      "chip": "ym2612"
    },
    {
      "channel": 0,
      "note": 77,
      "start": 19.8884,
      "duration": 0.9475,
      "velocity": 92,
      "chip": "ym2612"
    },
    {
      "channel": 3,
      "note": 71,
      "start": 20.3732,
      "duration": 0.9685,
      "velocity": 107,
      "chip": "ym2612"
    },
    {
      "channel": 4,
      "note": 67,
      "start": 20.3739,
      "duration": 0.9471,
      "velocity": 107,
      "chip": "ym2612"
    },
    {
      "channel": 0,
      "note": 76,
      "start": 20.8562,
      "duration": 0.4635,
      "velocity": 92,
      "chip": "ym2612"
    },
    {
      "channel": 1,
      "note": 86,
      "start": 21.3407,
      "duration": 2.9038,
      "velocity": 92,
      "chip": "ym2612"
    },
    {
      "channel": 2,
      "note": 58,
      "start": 21.3413,
      "duration": 2.9036,
      "velocity": 82,
      "chip": "ym2612"
    },
    {
      "channel": 3,
      "note": 83,
      "start": 21.342,
      "duration": 0.9669,
      "velocity": 107,
      "chip": "ym2612"
    },
    {
      "channel": 4,
      "note": 79,
      "start": 21.3427,
      "duration": 0.9462,
      "velocity": 107,
      "chip": "ym2612"
    },
    {
      "channel": 0,
      "note": 68,
      "start": 21.8241,
      "duration": 0.4636,
      "velocity": 92,
      "chip": "ym2612"
    },
    {
      "channel": 0,
      "note": 70,
      "start": 22.308,
      "duration": 0.4636,
      "velocity": 92,
      "chip": "ym2612"
    },
    {
      "channel": 3,
      "note": 74,
      "start": 22.3092,
      "duration": 0.9673,
      "velocity": 107,
      "chip": "ym2612"
    },
    {
      "channel": 4,
      "note": 70,
      "start": 22.3099,
      "duration": 0.9468,
      "velocity": 107,
      "chip": "ym2612"
    },
    {
      "channel": 0,
      "note": 71,
      "start": 22.7919,
      "duration": 0.9475,
      "velocity": 92,
      "chip": "ym2612"
    },
    {
      "channel": 3,
      "note": 68,
      "start": 23.2768,
      "duration": 0.9703,
      "velocity": 107,
      "chip": "ym2612"
    },
    {
      "channel": 4,
      "note": 64,
      "start": 23.2776,
      "duration": 0.9471,
      "velocity": 107,
      "chip": "ym2612"
    },
    {
      "channel": 0,
      "note": 74,
      "start": 23.7598,
      "duration": 0.4635,
      "velocity": 92,
      "chip": "ym2612"
    },
    {
      "channel": 0,
      "note": 67,
      "start": 24.2438,
      "duration": 0.4635,
      "velocity": 92,
      "chip": "ym2612"
    },
    {
      "channel": 1,
      "note": 86,
      "start": 24.2445,
      "duration": 2.8828,
      "velocity": 92,
      "chip": "ym2612"
    },
    {
      "channel": 2,
      "note": 58,
      "start": 24.2468,
      "duration": 2.9013,
      "velocity": 82,
      "chip": "ym2612"
    },
    {
      "channel": 3,
      "note": 80,
      "start": 24.2475,
      "duration": 0.9651,
      "velocity": 107,
      "chip": "ym2612"
    },
    {
      "channel": 4,
      "note": 76,
      "start": 24.2482,
      "duration": 0.9444,
      "velocity": 107,
      "chip": "ym2612"
    },
    {
      "channel": 0,
      "note": 68,
      "start": 24.7277,
      "duration": 0.4636,
      "velocity": 92,
      "chip": "ym2612"
    },
    {
      "channel": 0,
      "note": 70,
      "start": 25.2117,
      "duration": 0.4635,
      "velocity": 92,
      "chip": "ym2612"
    },
    {
      "channel": 3,
      "note": 74,
      "start": 25.2129,
      "duration": 0.9672,
      "velocity": 107,
      "chip": "ym2612"
    },
    {
      "channel": 4,
      "note": 70,
      "start": 25.2136,
      "duration": 0.9468,
      "velocity": 107,
      "chip": "ym2612"
    },
    {
      "channel": 0,
      "note": 71,
      "start": 25.6956,
      "duration": 0.9475,
      "velocity": 92,
      "chip": "ym2612"
    },
    {
      "channel": 3,
      "note": 68,
      "start": 26.1804,
      "duration": 0.9681,
      "velocity": 107,
      "chip": "ym2612"
    },
    {
      "channel": 4,
      "note": 64,
      "start": 26.1811,
      "duration": 0.9472,
      "velocity": 107,
      "chip": "ym2612"
    },
    {
      "channel": 0,
      "note": 74,
      "start": 26.6634,
      "duration": 0.4636,
      "velocity": 92,
      "chip": "ym2612"
    },
    {
      "channel": 0,
      "note": 88,
      "start": 27.1473,
      "duration": 0.4636,
      "velocity": 92,
      "chip": "ym2612"
    },
    {
      "channel": 3,
      "note": 80,
      "start": 27.1489,
      "duration": 0.4833,
      "velocity": 107,
      "chip": "ym2612"
    },
    {
      "channel": 4,
      "note": 76,
      "start": 27.1496,
      "duration": 0.4626,
      "velocity": 107,
      "chip": "ym2612"
    },
    {
      "channel": 0,
      "note": 87,
      "start": 27.6313,
      "duration": 0.4635,
      "velocity": 92,
      "chip": "ym2612"
    },
    {
      "channel": 3,
      "note": 69,
      "start": 27.6325,
      "duration": 0.4839,
      "velocity": 107,
      "chip": "ym2612"
    },
    {
      "channel": 4,
      "note": 65,
      "start": 27.6332,
      "duration": 0.4629,
      "velocity": 107,
      "chip": "ym2612"
    },
    {
      "channel": 0,
      "note": 88,
      "start": 28.1153,
      "duration": 0.4635,
      "velocity": 92,
      "chip": "ym2612"
    },
    {
      "channel": 3,
      "note": 70,
      "start": 28.1167,
      "duration": 0.4834,
      "velocity": 107,
      "chip": "ym2612"
    },
    {
      "channel": 4,
      "note": 66,
      "start": 28.1174,
      "duration": 0.4626,
      "velocity": 107,
      "chip": "ym2612"
    },
    {
      "channel": 0,
      "note": 87,
      "start": 28.5992,
      "duration": 0.4636,
      "velocity": 92,
      "chip": "ym2612"
    },
    {
      "channel": 3,
      "note": 69,
      "start": 28.6005,
      "duration": 0.4836,
      "velocity": 107,
      "chip": "ym2612"
    },
    {
      "channel": 4,
      "note": 65,
      "start": 28.6012,
      "duration": 0.4628,
      "velocity": 107,
      "chip": "ym2612"
    },
    {
      "channel": 0,
      "note": 88,
      "start": 29.0831,
      "duration": 0.9475,
      "velocity": 92,
      "chip": "ym2612"
    },
    {
      "channel": 3,
      "note": 70,
      "start": 29.0844,
      "duration": 0.4833,
      "velocity": 107,
      "chip": "ym2612"
    },
    {
      "channel": 4,
      "note": 66,
      "start": 29.0851,
      "duration": 0.4628,
      "velocity": 107,
      "chip": "ym2612"
    },
    {
      "channel": 3,
      "note": 69,
      "start": 29.568,
      "duration": 0.4844,
      "velocity": 107,
      "chip": "ym2612"
    },
    {
      "channel": 4,
      "note": 65,
      "start": 29.5687,
      "duration": 0.4632,
      "velocity": 107,
      "chip": "ym2612"
    },
    {
      "channel": 0,
      "note": 89,
      "start": 30.051,
      "duration": 2.9038,
      "velocity": 92,
      "chip": "ym2612"
    },
    {
      "channel": 3,
      "note": 70,
      "start": 30.0527,
      "duration": 0.4828,
      "velocity": 107,
      "chip": "ym2612"
    },
    {
      "channel": 4,
      "note": 66,
      "start": 30.0534,
      "duration": 0.4623,
      "velocity": 107,
      "chip": "ym2612"
    },
    {
      "channel": 3,
      "note": 71,
      "start": 30.5358,
      "duration": 0.4837,
      "velocity": 107,
      "chip": "ym2612"
    },
    {
      "channel": 4,
      "note": 67,
      "start": 30.5365,
      "duration": 0.4632,
      "velocity": 107,
      "chip": "ym2612"
    },
    {
      "channel": 3,
      "note": 70,
      "start": 31.0198,
      "duration": 0.4836,
      "velocity": 107,
      "chip": "ym2612"
    },
    {
      "channel": 4,
      "note": 68,
      "start": 31.0205,
      "duration": 0.4631,
      "velocity": 107,
      "chip": "ym2612"
    },
    {
      "channel": 3,
      "note": 71,
      "start": 31.5037,
      "duration": 0.484,
      "velocity": 107,
      "chip": "ym2612"
    },
    {
      "channel": 4,
      "note": 67,
      "start": 31.5044,
      "duration": 0.4632,
      "velocity": 107,
      "chip": "ym2612"
    },
    {
      "channel": 3,
      "note": 70,
      "start": 31.988,
      "duration": 0.4833,
      "velocity": 107,
      "chip": "ym2612"
    },
    {
      "channel": 4,
      "note": 68,
      "start": 31.9888,
      "duration": 0.4627,
      "velocity": 107,
      "chip": "ym2612"
    },
    {
      "channel": 3,
      "note": 71,
      "start": 32.4717,
      "duration": 0.4861,
      "velocity": 107,
      "chip": "ym2612"
    },
    {
      "channel": 4,
      "note": 67,
      "start": 32.4723,
      "duration": 0.4632,
      "velocity": 107,
      "chip": "ym2612"
    },
    {
      "channel": 0,
      "note": 89,
      "start": 32.9549,
      "duration": 4.3348,
      "velocity": 92,
      "chip": "ym2612"
    },
    {
      "channel": 2,
      "note": 49,
      "start": 32.9574,
      "duration": 0.9656,
      "velocity": 82,
      "chip": "ym2612"
    },
    {
      "channel": 3,
      "note": 70,
      "start": 32.9581,
      "duration": 0.4811,
      "velocity": 107,
      "chip": "ym2612"
    },
    {
      "channel": 4,
      "note": 68,
      "start": 32.9588,
      "duration": 0.4605,
      "velocity": 107,
      "chip": "ym2612"
    },
    {
      "channel": 3,
      "note": 71,
      "start": 33.4395,
      "duration": 0.4858,
      "velocity": 107,
      "chip": "ym2612"
    },
    {
      "channel": 4,
      "note": 67,
      "start": 33.4402,
      "duration": 0.4631,
      "velocity": 107,
      "chip": "ym2612"
    },
    {
      "channel": 2,
      "note": 61,
      "start": 33.9249,
      "duration": 0.9657,
      "velocity": 82,
      "chip": "ym2612"
    },
    {
      "channel": 3,
      "note": 70,
      "start": 33.9256,
      "duration": 0.4814,
      "velocity": 107,
      "chip": "ym2612"
    },
    {
      "channel": 4,
      "note": 68,
      "start": 33.9263,
      "duration": 0.4608,
      "velocity": 107,
      "chip": "ym2612"
    },
    {
      "channel": 3,
      "note": 71,
      "start": 34.4073,
      "duration": 0.4839,
      "velocity": 107,
      "chip": "ym2612"
    },
    {
      "channel": 4,
      "note": 67,
      "start": 34.408,
      "duration": 0.4631,
      "velocity": 107,
      "chip": "ym2612"
    },
    {
      "channel": 2,
      "note": 62,
      "start": 34.8909,
      "duration": 0.9679,
      "velocity": 82,
      "chip": "ym2612"
    },
    {
      "channel": 3,
      "note": 70,
      "start": 34.8915,
      "duration": 0.4834,
      "velocity": 107,
      "chip": "ym2612"
    },
    {
      "channel": 4,
      "note": 68,
      "start": 34.8922,
      "duration": 0.4629,
      "velocity": 107,
      "chip": "ym2612"
    },
    {
      "channel": 3,
      "note": 71,
      "start": 35.3753,
      "duration": 0.484,
      "velocity": 107,
      "chip": "ym2612"
    },
    {
      "channel": 4,
      "note": 67,
      "start": 35.376,
      "duration": 0.4631,
      "velocity": 107,
      "chip": "ym2612"
    },
    {
      "channel": 3,
      "note": 70,
      "start": 35.8595,
      "duration": 0.4852,
      "velocity": 107,
      "chip": "ym2612"
    },
    {
      "channel": 4,
      "note": 68,
      "start": 35.8602,
      "duration": 0.4627,
      "velocity": 107,
      "chip": "ym2612"
    },
    {
      "channel": 2,
      "note": 49,
      "start": 36.3444,
      "duration": 0.4821,
      "velocity": 82,
      "chip": "ym2612"
    },
    {
      "channel": 3,
      "note": 71,
      "start": 36.3451,
      "duration": 0.4837,
      "velocity": 107,
      "chip": "ym2612"
    },
    {
      "channel": 4,
      "note": 67,
      "start": 36.3458,
      "duration": 0.4611,
      "velocity": 107,
      "chip": "ym2612"
    },
    {
      "channel": 2,
      "note": 61,
      "start": 36.8283,
      "duration": 0.484,
      "velocity": 82,
      "chip": "ym2612"
    },
    {
      "channel": 3,
      "note": 70,
      "start": 36.829,
      "duration": 0.484,
      "velocity": 107,
      "chip": "ym2612"
    },
    {
      "channel": 4,
      "note": 68,
      "start": 36.8297,
      "duration": 0.4611,
      "velocity": 107,
      "chip": "ym2612"
    },
    {
      "channel": 0,
      "note": 89,
      "start": 37.3118,
      "duration": 0.4618,
      "velocity": 92,
      "chip": "ym2612"
    },
    {
      "channel": 2,
      "note": 62,
      "start": 37.3126,
      "duration": 0.4822,
      "velocity": 82,
      "chip": "ym2612"
    },
    {
      "channel": 3,
      "note": 71,
      "start": 37.3133,
      "duration": 0.4821,
      "velocity": 107,
      "chip": "ym2612"
    },
    {
      "channel": 4,
      "note": 67,
      "start": 37.314,
      "duration": 0.4608,
      "velocity": 107,
      "chip": "ym2612"
    },
    {
      "channel": 0,
      "note": 91,
      "start": 37.7939,
      "duration": 0.4636,
      "velocity": 92,
      "chip": "ym2612"
    },
    {
      "channel": 2,
      "note": 64,
      "start": 37.7951,
      "duration": 0.4834,
      "velocity": 82,
      "chip": "ym2612"
    },
    {
      "channel": 3,
      "note": 70,
      "start": 37.7958,
      "duration": 0.4834,
      "velocity": 107,
      "chip": "ym2612"
    },
    {
      "channel": 4,
      "note": 68,
      "start": 37.7964,
      "duration": 0.4623,
      "velocity": 107,
      "chip": "ym2612"
    },
    {
      "channel": 0,
      "note": 92,
      "start": 38.2779,
      "duration": 0.4636,
      "velocity": 92,
      "chip": "ym2612"
    },
    {
      "channel": 2,
      "note": 65,
      "start": 38.2788,
      "duration": 0.4837,
      "velocity": 82,
      "chip": "ym2612"
    },
    {
      "channel": 3,
      "note": 71,
      "start": 38.2795,
      "duration": 0.4836,
      "velocity": 107,
      "chip": "ym2612"
    },
    {
      "channel": 4,
      "note": 67,
      "start": 38.2802,
      "duration": 0.4625,
      "velocity": 107,
      "chip": "ym2612"
    },
    {
      "channel": 0,
      "note": 88,
      "start": 38.7618,
      "duration": 0.4636,
      "velocity": 92,
      "chip": "ym2612"
    },
    {
      "channel": 2,
      "note": 61,
      "start": 38.7627,
      "duration": 0.4837,
      "velocity": 82,
      "chip": "ym2612"
    },
    {
      "channel": 3,
      "note": 70,
      "start": 38.7634,
      "duration": 0.4836,
      "velocity": 107,
      "chip": "ym2612"
    },
    {
      "channel": 4,
      "note": 68,
      "start": 38.7641,
      "duration": 0.4625,
      "velocity": 107,
      "chip": "ym2612"
    },
    {
      "channel": 0,
      "note": 89,
      "start": 39.2458,
      "duration": 0.4635,
      "velocity": 92,
      "chip": "ym2612"
    },
    {
      "channel": 2,
      "note": 62,
      "start": 39.2466,
      "duration": 0.4856,
      "velocity": 82,
      "chip": "ym2612"
    },
    {
      "channel": 3,
      "note": 71,
      "start": 39.2473,
      "duration": 0.4855,
      "velocity": 107,
      "chip": "ym2612"
    },
    {
      "channel": 4,
      "note": 67,
      "start": 39.248,
      "duration": 0.4626,
      "velocity": 107,
      "chip": "ym2612"
    },
    {
      "channel": 0,
      "note": 85,
      "start": 39.7313,
      "duration": 4.8174,
      "velocity": 92,
      "chip": "ym2612"
    },
    {
      "channel": 2,
      "note": 70,
      "start": 39.7324,
      "duration": 1.9337,
      "velocity": 82,
      "chip": "ym2612"
    },
    {
      "channel": 3,
      "note": 70,
      "start": 39.7331,
      "duration": 0.4812,
      "velocity": 107,
      "chip": "ym2612"
    },
    {
      "channel": 4,
      "note": 68,
      "start": 39.7338,
      "duration": 0.4606,
      "velocity": 107,
      "chip": "ym2612"
    },
    {
      "channel": 3,
      "note": 68,
      "start": 40.2146,
      "duration": 0.4836,
      "velocity": 107,
      "chip": "ym2612"
    },
    {
      "channel": 4,
      "note": 64,
      "start": 40.2153,
      "duration": 0.4631,
      "velocity": 107,
      "chip": "ym2612"
    },
    {
      "channel": 3,
      "note": 70,
      "start": 40.6985,
      "duration": 0.4837,
      "velocity": 107,
      "chip": "ym2612"
    },
    {
      "channel": 4,
      "note": 67,
      "start": 40.6992,
      "duration": 0.4631,
      "velocity": 107,
      "chip": "ym2612"
    },
    {
      "channel": 3,
      "note": 71,
      "start": 41.1824,
      "duration": 0.4842,
      "velocity": 107,
      "chip": "ym2612"
    },
    {
      "channel": 4,
      "note": 68,
      "start": 41.1832,
      "duration": 0.4631,
      "velocity": 107,
      "chip": "ym2612"
    },
    {
      "channel": 2,
      "note": 68,
      "start": 41.6662,
      "duration": 1.9356,
      "velocity": 82,
      "chip": "ym2612"
    },
    {
      "channel": 3,
      "note": 73,
      "start": 41.6669,
      "duration": 0.483,
      "velocity": 107,
      "chip": "ym2612"
    },
    {
      "channel": 4,
      "note": 70,
      "start": 41.6676,
      "duration": 0.4625,
      "velocity": 107,
      "chip": "ym2612"
    },
    {
      "channel": 3,
      "note": 74,
      "start": 42.1503,
      "duration": 0.4837,
      "velocity": 107,
      "chip": "ym2612"
    },
    {
      "channel": 4,
      "note": 71,
      "start": 42.151,
      "duration": 0.4632,
      "velocity": 107,
      "chip": "ym2612"
    },
    {
      "channel": 3,
      "note": 76,
      "start": 42.6342,
      "duration": 0.4836,
      "velocity": 107,
      "chip": "ym2612"
    },
    {
      "channel": 4,
      "note": 73,
      "start": 42.6349,
      "duration": 0.4631,
      "velocity": 107,
      "chip": "ym2612"
    },
    {
      "channel": 3,
      "note": 77,
      "start": 43.1181,
      "duration": 0.4843,
      "velocity": 107,
      "chip": "ym2612"
    },
    {
      "channel": 4,
      "note": 74,
      "start": 43.1188,
      "duration": 0.4632,
      "velocity": 107,
      "chip": "ym2612"
    },
    {
      "channel": 2,
      "note": 67,
      "start": 43.602,
      "duration": 3.8716,
      "velocity": 82,
      "chip": "ym2612"
    },
    {
      "channel": 3,
      "note": 79,
      "start": 43.6027,
      "duration": 1.9354,
      "velocity": 107,
      "chip": "ym2612"
    },
    {
      "channel": 4,
      "note": 76,
      "start": 43.6034,
      "duration": 1.9144,
      "velocity": 107,
      "chip": "ym2612"
    },
    {
      "channel": 0,
      "note": 86,
      "start": 44.5706,
      "duration": 0.462,
      "velocity": 92,
      "chip": "ym2612"
    },
    {
      "channel": 0,
      "note": 82,
      "start": 45.0529,
      "duration": 0.4636,
      "velocity": 92,
      "chip": "ym2612"
    },
    {
      "channel": 0,
      "note": 80,
      "start": 45.5369,
      "duration": 0.4635,
      "velocity": 92,
      "chip": "ym2612"
    },
    {
      "channel": 3,
      "note": 80,
      "start": 45.5385,
      "duration": 1.9359,
      "velocity": 107,
      "chip": "ym2612"
    },
    {
      "channel": 4,
      "note": 77,
      "start": 45.5392,
      "duration": 1.9143,
      "velocity": 107,
      "chip": "ym2612"
    },
    {
      "channel": 0,
      "note": 79,
      "start": 46.0208,
      "duration": 0.4635,
      "velocity": 92,
      "chip": "ym2612"
    },
    {
      "channel": 0,
      "note": 77,
      "start": 46.5049,
      "duration": 0.4635,
      "velocity": 92,
      "chip": "ym2612"
    },
    {
      "channel": 0,
      "note": 75,
      "start": 46.9887,
      "duration": 0.4636,
      "velocity": 92,
      "chip": "ym2612"
    },
    {
      "channel": 2,
      "note": 55,
      "start": 47.474,
      "duration": 3.8707,
      "velocity": 82,
      "chip": "ym2612"
    },
    {
      "channel": 3,
      "note": 82,
      "start": 47.4748,
      "duration": 1.9348,
      "velocity": 107,
      "chip": "ym2612"
    },
    {
      "channel": 4,
      "note": 79,
      "start": 47.4756,
      "duration": 1.9137,
      "velocity": 107,
      "chip": "ym2612"
    },
    {
      "channel": 1,
      "note": 74,
      "start": 47.9585,
      "duration": 0.462,
      "velocity": 92,
      "chip": "ym2612"
    },
    {
      "channel": 0,
      "note": 80,
      "start": 48.4422,
      "duration": 0.9457,
      "velocity": 92,
      "chip": "ym2612"
    },
    {
      "channel": 1,
      "note": 76,
      "start": 48.4428,
      "duration": 0.4616,
      "velocity": 92,
      "chip": "ym2612"
    },
    {
      "channel": 1,
      "note": 77,
      "start": 48.9247,
      "duration": 0.4637,
      "velocity": 92,
      "chip": "ym2612"
    },
    {
      "channel": 0,
      "note": 88,
      "start": 49.4084,
      "duration": 0.9475,
      "velocity": 92,
      "chip": "ym2612"
    },
    {
      "channel": 1,
      "note": 73,
      "start": 49.4089,
      "duration": 1.4312,
      "velocity": 92,
      "chip": "ym2612"
    },
    {
      "channel": 3,
      "note": 83,
      "start": 49.4099,
      "duration": 1.9354,
      "velocity": 107,
      "chip": "ym2612"
    },
    {
      "channel": 4,
      "note": 80,
      "start": 49.4106,
      "duration": 1.9144,
      "velocity": 107,
      "chip": "ym2612"
    },
    {
      "channel": 0,
      "note": 89,
      "start": 50.3762,
      "duration": 1.4314,
      "velocity": 92,
      "chip": "ym2612"
    },
    {
      "channel": 1,
      "note": 74,
      "start": 50.8605,
      "duration": 0.4636,
      "velocity": 92,
      "chip": "ym2612"
    },
    {
      "channel": 1,
      "note": 71,
      "start": 51.3444,
      "duration": 0.9476,
      "velocity": 92,
      "chip": "ym2612"
    },
    {
      "channel": 2,
      "note": 55,
      "start": 51.345,
      "duration": 3.8716,
      "velocity": 82,
      "chip": "ym2612"
    },
    {
      "channel": 3,
      "note": 83,
      "start": 51.3457,
      "duration": 1.9354,
      "velocity": 107,
      "chip": "ym2612"
    },
    {
      "channel": 4,
      "note": 80,
      "start": 51.3464,
      "duration": 1.9144,
      "velocity": 107,
      "chip": "ym2612"
    },
    {
      "channel": 0,
      "note": 80,
      "start": 51.8281,
      "duration": 0.4635,
      "velocity": 92,
      "chip": "ym2612"
    },
    {
      "channel": 0,
      "note": 88,
      "start": 52.312,
      "duration": 0.4635,
      "velocity": 92,
      "chip": "ym2612"
    },
    {
      "channel": 1,
      "note": 73,
      "start": 52.3125,
      "duration": 0.4633,
      "velocity": 92,
      "chip": "ym2612"
    },
    {
      "channel": 0,
      "note": 89,
      "start": 52.7959,
      "duration": 0.4636,
      "velocity": 92,
      "chip": "ym2612"
    },
    {
      "channel": 1,
      "note": 74,
      "start": 52.7964,
      "duration": 0.4634,
      "velocity": 92,
      "chip": "ym2612"
    },
    {
      "channel": 0,
      "note": 91,
      "start": 53.2798,
      "duration": 0.4636,
      "velocity": 92,
      "chip": "ym2612"
    },
    {
      "channel": 1,
      "note": 76,
      "start": 53.2804,
      "duration": 0.4633,
      "velocity": 92,
      "chip": "ym2612"
    },
    {
      "channel": 3,
      "note": 83,
      "start": 53.2814,
      "duration": 1.9358,
      "velocity": 107,
      "chip": "ym2612"
    },
    {
      "channel": 4,
      "note": 80,
      "start": 53.2821,
      "duration": 1.9144,
      "velocity": 107,
      "chip": "ym2612"
    },
    {
      "channel": 0,
      "note": 92,
      "start": 53.7637,
      "duration": 0.4636,
      "velocity": 92,
      "chip": "ym2612"
    },
    {
      "channel": 1,
      "note": 77,
      "start": 53.7643,
      "duration": 0.4634,
      "velocity": 92,
      "chip": "ym2612"
    },
    {
      "channel": 0,
      "note": 88,
      "start": 54.2477,
      "duration": 0.4635,
      "velocity": 92,
      "chip": "ym2612"
    },
    {
      "channel": 1,
      "note": 79,
      "start": 54.2482,
      "duration": 0.4634,
      "velocity": 92,
      "chip": "ym2612"
    },
    {
      "channel": 0,
      "note": 89,
      "start": 54.7316,
      "duration": 0.4636,
      "velocity": 92,
      "chip": "ym2612"
    },
    {
      "channel": 1,
      "note": 80,
      "start": 54.7322,
      "duration": 0.4634,
      "velocity": 92,
      "chip": "ym2612"
    },
    {
      "channel": 0,
      "note": 85,
      "start": 55.2157,
      "duration": 3.8716,
      "velocity": 92,
      "chip": "ym2612"
    },
    {
      "channel": 1,
      "note": 82,
      "start": 55.2162,
      "duration": 0.4632,
      "velocity": 92,
      "chip": "ym2612"
    },
    {
      "channel": 2,
      "note": 55,
      "start": 55.2169,
      "duration": 1.9348,
      "velocity": 82,
      "chip": "ym2612"
    },
    {
      "channel": 3,
      "note": 83,
      "start": 55.2176,
      "duration": 1.9347,
      "velocity": 107,
      "chip": "ym2612"
    },
    {
      "channel": 4,
      "note": 80,
      "start": 55.2183,
      "duration": 1.9139,
      "velocity": 107,
      "chip": "ym2612"
    },
    {
      "channel": 1,
      "note": 76,
      "start": 55.6998,
      "duration": 0.4636,
      "velocity": 92,
      "chip": "ym2612"
    },
    {
      "channel": 1,
      "note": 77,
      "start": 56.1837,
      "duration": 0.4636,
      "velocity": 92,
      "chip": "ym2612"
    },
    {
      "channel": 1,
      "note": 71,
      "start": 56.6676,
      "duration": 1.4315,
      "velocity": 92,
      "chip": "ym2612"
    },
    {
      "channel": 2,
      "note": 49,
      "start": 57.1519,
      "duration": 1.9364,
      "velocity": 82,
      "chip": "ym2612"
    },
    {
      "channel": 3,
      "note": 82,
      "start": 57.1526,
      "duration": 1.9363,
      "velocity": 107,
      "chip": "ym2612"
    },
    {
      "channel": 4,
      "note": 79,
      "start": 57.1533,
      "duration": 1.9146,
      "velocity": 107,
      "chip": "ym2612"
    },
    {
      "channel": 1,
      "note": 82,
      "start": 58.1194,
      "duration": 0.4636,
      "velocity": 92,
      "chip": "ym2612"
    },
    {
      "channel": 1,
      "note": 76,
      "start": 58.6034,
      "duration": 0.4636,
      "velocity": 92,
      "chip": "ym2612"
    },
    {
      "channel": 0,
      "note": 85,
      "start": 59.0873,
      "duration": 1.9152,
      "velocity": 92,
      "chip": "ym2612"
    },
    {
      "channel": 1,
      "note": 77,
      "start": 59.0879,
      "duration": 0.463,
      "velocity": 92,
      "chip": "ym2612"
    },
    {
      "channel": 2,
      "note": 55,
      "start": 59.0886,
      "duration": 1.935,
      "velocity": 82,
      "chip": "ym2612"
    },
    {
      "channel": 3,
      "note": 82,
      "start": 59.0893,
      "duration": 1.9349,
      "velocity": 107,
      "chip": "ym2612"
    },
    {
      "channel": 4,
      "note": 79,
      "start": 59.09,
      "duration": 1.9137,
      "velocity": 107,
      "chip": "ym2612"
    },
    {
      "channel": 1,
      "note": 71,
      "start": 59.5713,
      "duration": 0.4635,
      "velocity": 92,
      "chip": "ym2612"
    },
    {
      "channel": 1,
      "note": 82,
      "start": 60.0553,
      "duration": 1.4314,
      "velocity": 92,
      "chip": "ym2612"
    },
    {
      "channel": 0,
      "note": 77,
      "start": 61.0229,
      "duration": 1.9154,
      "velocity": 92,
      "chip": "ym2612"
    },
    {
      "channel": 2,
      "note": 49,
      "start": 61.0238,
      "duration": 1.9372,
      "velocity": 82,
      "chip": "ym2612"
    },
    {
      "channel": 3,
      "note": 82,
      "start": 61.0245,
      "duration": 1.9387,
      "velocity": 107,
      "chip": "ym2612"
    },
    {
      "channel": 4,
      "note": 79,
      "start": 61.0252,
      "duration": 1.9143,
      "velocity": 107,
      "chip": "ym2612"
    },
    {
      "channel": 1,
      "note": 84,
      "start": 61.507,
      "duration": 0.4636,
      "velocity": 92,
      "chip": "ym2612"
    },
    {
      "channel": 1,
      "note": 85,
      "start": 61.991,
      "duration": 0.4636,
      "velocity": 92,
      "chip": "ym2612"
    },
    {
      "channel": 1,
      "note": 87,
      "start": 62.4749,
      "duration": 0.4637,
      "velocity": 92,
      "chip": "ym2612"
    },
    {
      "channel": 1,
      "note": 88,
      "start": 62.9606,
      "duration": 2.9023,
      "velocity": 92,
      "chip": "ym2612"
    },
    {
      "channel": 2,
      "note": 53,
      "start": 62.9629,
      "duration": 2.9004,
      "velocity": 82,
      "chip": "ym2612"
    },
    {
      "channel": 3,
      "note": 82,
      "start": 62.9636,
      "duration": 0.9638,
      "velocity": 107,
      "chip": "ym2612"
    },
    {
      "channel": 4,
      "note": 79,
      "start": 62.9643,
      "duration": 0.943,
      "velocity": 107,
      "chip": "ym2612"
    },
    {
      "channel": 0,
      "note": 72,
      "start": 63.4425,
      "duration": 0.4635,
      "velocity": 92,
      "chip": "ym2612"
    },
    {
      "channel": 0,
      "note": 76,
      "start": 63.9264,
      "duration": 0.4636,
      "velocity": 92,
      "chip": "ym2612"
    },
    {
      "channel": 3,
      "note": 76,
      "start": 63.9277,
      "duration": 0.9672,
      "velocity": 107,
      "chip": "ym2612"
    },
    {
      "channel": 4,
      "note": 72,
      "start": 63.9284,
      "duration": 0.9468,
      "velocity": 107,
      "chip": "ym2612"
    },
    {
      "channel": 0,
      "note": 77,
      "start": 64.4103,
      "duration": 0.9475,
      "velocity": 92,
      "chip": "ym2612"
    },
    {
      "channel": 3,
      "note": 71,
      "start": 64.8952,
      "duration": 0.9686,
      "velocity": 107,
      "chip": "ym2612"
    },
    {
      "channel": 4,
      "note": 67,
      "start": 64.8959,
      "duration": 0.9471,
      "velocity": 107,
      "chip": "ym2612"
    },
    {
      "channel": 0,
      "note": 76,
      "start": 65.3783,
      "duration": 0.4636,
      "velocity": 92,
      "chip": "ym2612"
    },
    {
      "channel": 0,
      "note": 71,
      "start": 65.8622,
      "duration": 0.4636,
      "velocity": 92,
      "chip": "ym2612"
    },
    {
      "channel": 1,
      "note": 88,
      "start": 65.8629,
      "duration": 2.8828,
      "velocity": 92,
      "chip": "ym2612"
    },
    {
      "channel": 2,
      "note": 53,
      "start": 65.8635,
      "duration": 2.9032,
      "velocity": 82,
      "chip": "ym2612"
    },
    {
      "channel": 3,
      "note": 83,
      "start": 65.8642,
      "duration": 0.9667,
      "velocity": 107,
      "chip": "ym2612"
    },
    {
      "channel": 4,
      "note": 79,
      "start": 65.8649,
      "duration": 0.946,
      "velocity": 107,
      "chip": "ym2612"
    },
    {
      "channel": 0,
      "note": 72,
      "start": 66.3461,
      "duration": 0.4635,
      "velocity": 92,
      "chip": "ym2612"
    },
    {
      "channel": 0,
      "note": 76,
      "start": 66.83,
      "duration": 0.4635,
      "velocity": 92,
      "chip": "ym2612"
    },
    {
      "channel": 3,
      "note": 76,
      "start": 66.8312,
      "duration": 0.9673,
      "velocity": 107,
      "chip": "ym2612"
    },
    {
      "channel": 4,
      "note": 72,
      "start": 66.832,
      "duration": 0.9468,
      "velocity": 107,
      "chip": "ym2612"
    },
    {
      "channel": 0,
      "note": 77,
      "start": 67.3139,
      "duration": 0.9475,
      "velocity": 92,
      "chip": "ym2612"
    },
    {
      "channel": 3,
      "note": 71,
      "start": 67.7989,
      "duration": 0.9685,
      "velocity": 107,
      "chip": "ym2612"
    },
    {
      "channel": 4,
      "note": 67,
      "start": 67.7996,
      "duration": 0.9471,
      "velocity": 107,
      "chip": "ym2612"
    },
    {
      "channel": 0,
      "note": 76,
      "start": 68.2819,
      "duration": 0.4636,
      "velocity": 92,
      "chip": "ym2612"
    },
    {
      "channel": 1,
      "note": 86,
      "start": 68.7663,
      "duration": 2.9039,
      "velocity": 92,
      "chip": "ym2612"
    },
    {
      "channel": 2,
      "note": 58,
      "start": 68.7669,
      "duration": 2.9036,
      "velocity": 82,
      "chip": "ym2612"
    },
    {
      "channel": 3,
      "note": 83,
      "start": 68.7676,
      "duration": 0.9669,
      "velocity": 107,
      "chip": "ym2612"
    },
    {
      "channel": 4,
      "note": 79,
      "start": 68.7683,
      "duration": 0.9462,
      "velocity": 107,
      "chip": "ym2612"
    },
    {
      "channel": 0,
      "note": 68,
      "start": 69.2497,
      "duration": 0.4636,
      "velocity": 92,
      "chip": "ym2612"
    },
    {
      "channel": 0,
      "note": 70,
      "start": 69.7337,
      "duration": 0.4635,
      "velocity": 92,
      "chip": "ym2612"
    },
    {
      "channel": 3,
      "note": 74,
      "start": 69.7349,
      "duration": 0.9672,
      "velocity": 107,
      "chip": "ym2612"
    },
    {
      "channel": 4,
      "note": 70,
      "start": 69.7356,
      "duration": 0.9468,
      "velocity": 107,
      "chip": "ym2612"
    },
    {
      "channel": 0,
      "note": 71,
      "start": 70.2176,
      "duration": 0.9475,
      "velocity": 92,
      "chip": "ym2612"
    },
    {
      "channel": 3,
      "note": 68,
      "start": 70.7024,
      "duration": 0.9704,
      "velocity": 107,
      "chip": "ym2612"
    },
    {
      "channel": 4,
      "note": 64,
      "start": 70.7031,
      "duration": 0.9472,
      "velocity": 107,
      "chip": "ym2612"
    },
    {
      "channel": 0,
      "note": 74,
      "start": 71.1854,
      "duration": 0.4636,
      "velocity": 92,
      "chip": "ym2612"
    },
    {
      "channel": 0,
      "note": 67,
      "start": 71.6694,
      "duration": 0.4636,
      "velocity": 92,
      "chip": "ym2612"
    },
    {
      "channel": 1,
      "note": 86,
      "start": 71.6702,
      "duration": 2.8828,
      "velocity": 92,
      "chip": "ym2612"
    },
    {
      "channel": 2,
      "note": 58,
      "start": 71.6725,
      "duration": 2.8985,
      "velocity": 82,
      "chip": "ym2612"
    },
    {
      "channel": 3,
      "note": 80,
      "start": 71.6732,
      "duration": 0.9651,
      "velocity": 107,
      "chip": "ym2612"
    },
    {
      "channel": 4,
      "note": 76,
      "start": 71.6739,
      "duration": 0.9443,
      "velocity": 107,
      "chip": "ym2612"
    },
    {
      "channel": 0,
      "note": 68,
      "start": 72.1533,
      "duration": 0.4636,
      "velocity": 92,
      "chip": "ym2612"
    },
    {
      "channel": 0,
      "note": 70,
      "start": 72.6373,
      "duration": 0.4635,
      "velocity": 92,
      "chip": "ym2612"
    },
    {
      "channel": 3,
      "note": 74,
      "start": 72.6386,
      "duration": 0.9672,
      "velocity": 107,
      "chip": "ym2612"
    },
    {
      "channel": 4,
      "note": 70,
      "start": 72.6393,
      "duration": 0.9467,
      "velocity": 107,
      "chip": "ym2612"
    },
    {
      "channel": 0,
      "note": 71,
      "start": 73.1212,
      "duration": 0.9477,
      "velocity": 92,
      "chip": "ym2612"
    },
    {
      "channel": 3,
      "note": 68,
      "start": 73.6061,
      "duration": 0.9649,
      "velocity": 107,
      "chip": "ym2612"
    },
    {
      "channel": 4,
      "note": 64,
      "start": 73.6068,
      "duration": 0.9471,
      "velocity": 107,
      "chip": "ym2612"
    },
    {
      "channel": 0,
      "note": 74,
      "start": 74.0891,
      "duration": 0.4636,
      "velocity": 92,
      "chip": "ym2612"
    }
  ]
}