{
  "track_name": "16 - Dark Dragon Battle",
  "duration_sec": 59.898,
  "sample_rate": 44100,
  "note_count": 1090,
  "unique_pitches": 46,
  "pitch_range": 50,
  "avg_note_duration": 0.0935,
  "reconstruction_stats": {
    "notes_reconstructed": 1090,
    "keyon_events": 1090,
    "keyoff_events": 1061,
    "orphan_keyons": 1,
    "unique_pitches": 46,
    "pitch_range": 50,
    "avg_duration_sec": 0.0935
  },
  "metadata": {
    "source": "S\\Shining Force\\16 - Dark Dragon Battle.vgz"
  },
  "notes": [
    {
      "channel": 0,
      "note": 76,
      "start": 0.0,
      "duration": 0.07,
      "velocity": 99,
      "chip": "ym2612"
    },
    {
      "channel": 1,
      "note": 68,
      "start": 0.0041,
      "duration": 0.0661,
      "velocity": 99,
      "chip": "ym2612"
    },
    {
      "channel": 2,
      "note": 61,
      "start": 0.0081,
      "duration": 0.0328,
      "velocity": 100,
      "chip": "ym2612"
    },
    {
      "channel": 0,
      "note": 76,
      "start": 0.085,
      "duration": 0.2247,
      "velocity": 99,
      "chip": "ym2612"
    },
    {
      "channel": 1,
      "note": 68,
      "start": 0.0856,
      "duration": 0.2244,
      "velocity": 99,
      "chip": "ym2612"
    },
    {
      "channel": 2,
      "note": 61,
      "start": 0.0879,
      "duration": 0.2148,
      "velocity": 100,
      "chip": "ym2612"
    },
    {
      "channel": 0,
      "note": 78,
      "start": 0.3151,
      "duration": 0.0235,
      "velocity": 99,
      "chip": "ym2612"
    },
    {
      "channel": 1,
      "note": 70,
      "start": 0.3156,
      "duration": 0.0232,
      "velocity": 99,
      "chip": "ym2612"
    },
    {
      "channel": 2,
      "note": 51,
      "start": 0.3161,
      "duration": 0.0147,
      "velocity": 100,
      "chip": "ym2612"
    },
    {
      "channel": 3,
      "note": 80,
      "start": 0.3166,
      "duration": 0.0145,
      "velocity": 90,
      "chip": "ym2612"
    },
    {
      "channel": 4,
      "note": 78,
      "start": 0.3173,
      "duration": 0.0142,
      "velocity": 90,
      "chip": "ym2612"
    },
    {
      "channel": 0,
      "note": 76,
      "start": 0.4481,
      "duration": 0.2261,
      "velocity": 99,
      "chip": "ym2612"
    },
    {
      "channel": 1,
      "note": 68,
      "start": 0.4486,
      "duration": 0.2259,
      "velocity": 99,
      "chip": "ym2612"
    },
    {
      "channel": 2,
      "note": 61,
      "start": 0.4491,
      "duration": 0.2166,
      "velocity": 100,
      "chip": "ym2612"
    },
    {
      "channel": 0,
      "note": 79,
      "start": 0.6792,
      "duration": 0.022,
      "velocity": 99,
      "chip": "ym2612"
    },
    {
      "channel": 1,
      "note": 71,
      "start": 0.6797,
      "duration": 0.0217,
      "velocity": 99,
      "chip": "ym2612"
    },
    {
      "channel": 2,
      "note": 52,
      "start": 0.6802,
      "duration": 0.0131,
      "velocity": 100,
      "chip": "ym2612"
    },
    {
      "channel": 3,
      "note": 58,
      "start": 0.6807,
      "duration": 0.0129,
      "velocity": 90,
      "chip": "ym2612"
    },
    {
      "channel": 4,
      "note": 66,
      "start": 0.6814,
      "duration": 0.0126,
      "velocity": 90,
      "chip": "ym2612"
    },
    {
      "channel": 0,
      "note": 76,
      "start": 0.8126,
      "duration": 0.2256,
      "velocity": 99,
      "chip": "ym2612"
    },
    {
      "channel": 1,
      "note": 68,
      "start": 0.813,
      "duration": 0.2255,
      "velocity": 99,
      "chip": "ym2612"
    },
    {
      "channel": 2,
      "note": 61,
      "start": 0.8135,
      "duration": 0.2161,
      "velocity": 100,
      "chip": "ym2612"
    },
    {
      "channel": 0,
      "note": 78,
      "start": 1.0432,
      "duration": 0.0236,
      "velocity": 99,
      "chip": "ym2612"
    },
    {
      "channel": 1,
      "note": 70,
      "start": 1.0437,
      "duration": 0.0233,
      "velocity": 99,
      "chip": "ym2612"
    },
    {
      "channel": 2,
      "note": 51,
      "start": 1.0442,
      "duration": 0.0146,
      "velocity": 100,
      "chip": "ym2612"
    },
    {
      "channel": 3,
      "note": 59,
      "start": 1.0448,
      "duration": 0.0144,
      "velocity": 90,
      "chip": "ym2612"
    },
    {
      "channel": 4,
      "note": 64,
      "start": 1.0454,
      "duration": 0.0141,
      "velocity": 90,
      "chip": "ym2612"
    },
    {
      "channel": 0,
      "note": 76,
      "start": 1.1767,
      "duration": 0.226,
      "velocity": 99,
      "chip": "ym2612"
    },
    {
      "channel": 1,
      "note": 68,
      "start": 1.1772,
      "duration": 0.2257,
      "velocity": 99,
      "chip": "ym2612"
    },
    {
      "channel": 2,
      "note": 61,
      "start": 1.1777,
      "duration": 0.2163,
      "velocity": 100,
      "chip": "ym2612"
    },
    {
      "channel": 0,
      "note": 79,
      "start": 1.4076,
      "duration": 0.0209,
      "velocity": 99,
      "chip": "ym2612"
    },
    {
      "channel": 1,
      "note": 71,
      "start": 1.4081,
      "duration": 0.0206,
      "velocity": 99,
      "chip": "ym2612"
    },
    {
      "channel": 2,
      "note": 52,
      "start": 1.4086,
      "duration": 0.012,
      "velocity": 100,
      "chip": "ym2612"
    },
    {
      "channel": 3,
      "note": 58,
      "start": 1.4092,
      "duration": 0.0117,
      "velocity": 90,
      "chip": "ym2612"
    },
    {
      "channel": 4,
      "note": 66,
      "start": 1.4098,
      "duration": 0.0114,
      "velocity": 90,
      "chip": "ym2612"
    },
    {
      "channel": 0,
      "note": 81,
      "start": 1.5393,
      "duration": 0.0273,
      "velocity": 99,
      "chip": "ym2612"
    },
    {
      "channel": 1,
      "note": 73,
      "start": 1.5398,
      "duration": 0.0271,
      "velocity": 99,
      "chip": "ym2612"
    },
    {
      "channel": 2,
      "note": 66,
      "start": 1.5403,
      "duration": 0.0201,
      "velocity": 100,
      "chip": "ym2612"
    },
    {
      "channel": 3,
      "note": 59,
      "start": 1.5433,
      "duration": 0.0174,
      "velocity": 90,
      "chip": "ym2612"
    },
    {
      "channel": 4,
      "note": 64,
      "start": 1.5464,
      "duration": 0.0146,
      "velocity": 90,
      "chip": "ym2612"
    },
    {
      "channel": 3,
      "note": 74,
      "start": 1.5719,
      "duration": 0.013,
      "velocity": 90,
      "chip": "ym2612"
    },
    {
      "channel": 4,
      "note": 82,
      "start": 1.5726,
      "duration": 0.0127,
      "velocity": 90,
      "chip": "ym2612"
    },
    {
      "channel": 3,
      "note": 74,
      "start": 1.5973,
      "duration": 0.0111,
      "velocity": 90,
      "chip": "ym2612"
    },
    {
      "channel": 4,
      "note": 82,
      "start": 1.5981,
      "duration": 0.0107,
      "velocity": 90,
      "chip": "ym2612"
    },
    {
      "channel": 0,
      "note": 82,
      "start": 1.6205,
      "duration": 0.0223,
      "velocity": 99,
      "chip": "ym2612"
    },
    {
      "channel": 1,
      "note": 74,
      "start": 1.621,
      "duration": 0.0221,
      "velocity": 99,
      "chip": "ym2612"
    },
    {
      "channel": 2,
      "note": 67,
      "start": 1.6215,
      "duration": 0.0133,
      "velocity": 100,
      "chip": "ym2612"
    },
    {
      "channel": 3,
      "note": 72,
      "start": 1.622,
      "duration": 0.013,
      "velocity": 90,
      "chip": "ym2612"
    },
    {
      "channel": 4,
      "note": 81,
      "start": 1.6227,
      "duration": 0.0127,
      "velocity": 90,
      "chip": "ym2612"
    },
    {
      "channel": 0,
      "note": 82,
      "start": 1.6471,
      "duration": 0.32,
      "velocity": 99,
      "chip": "ym2612"
    },
    {
      "channel": 1,
      "note": 74,
      "start": 1.6477,
      "duration": 0.3201,
      "velocity": 99,
      "chip": "ym2612"
    },
    {
      "channel": 2,
      "note": 55,
      "start": 1.6482,
      "duration": 0.0417,
      "velocity": 100,
      "chip": "ym2612"
    },
    {
      "channel": 3,
      "note": 72,
      "start": 1.6488,
      "duration": 0.0148,
      "velocity": 90,
      "chip": "ym2612"
    },
    {
      "channel": 4,
      "note": 81,
      "start": 1.6494,
      "duration": 0.0145,
      "velocity": 90,
      "chip": "ym2612"
    },
    {
      "channel": 3,
      "note": 74,
      "start": 1.6765,
      "duration": 0.0137,
      "velocity": 90,
      "chip": "ym2612"
    },
    {
      "channel": 4,
      "note": 82,
      "start": 1.6771,
      "duration": 0.0134,
      "velocity": 90,
      "chip": "ym2612"
    },
    {
      "channel": 3,
      "note": 74,
      "start": 1.7044,
      "duration": 0.0121,
      "velocity": 90,
      "chip": "ym2612"
    },
    {
      "channel": 4,
      "note": 82,
      "start": 1.705,
      "duration": 0.0118,
      "velocity": 90,
      "chip": "ym2612"
    },
    {
      "channel": 3,
      "note": 72,
      "start": 1.7305,
      "duration": 0.0146,
      "velocity": 90,
      "chip": "ym2612"
    },
    {
      "channel": 4,
      "note": 81,
      "start": 1.7312,
      "duration": 0.0143,
      "velocity": 90,
      "chip": "ym2612"
    },
    {
      "channel": 2,
      "note": 55,
      "start": 1.7563,
      "duration": 0.0388,
      "velocity": 100,
      "chip": "ym2612"
    },
    {
      "channel": 3,
      "note": 72,
      "start": 1.7569,
      "duration": 0.0135,
      "velocity": 90,
      "chip": "ym2612"
    },
    {
      "channel": 4,
      "note": 81,
      "start": 1.7575,
      "duration": 0.0132,
      "velocity": 90,
      "chip": "ym2612"
    },
    {
      "channel": 3,
      "note": 74,
      "start": 1.7836,
      "duration": 0.0119,
      "velocity": 90,
      "chip": "ym2612"
    },
    {
      "channel": 4,
      "note": 82,
      "start": 1.7842,
      "duration": 0.0116,
      "velocity": 90,
      "chip": "ym2612"
    },
    {
      "channel": 3,
      "note": 74,
      "start": 1.8089,
      "duration": 0.0142,
      "velocity": 90,
      "chip": "ym2612"
    },
    {
      "channel": 4,
      "note": 82,
      "start": 1.8096,
      "duration": 0.0138,
      "velocity": 90,
      "chip": "ym2612"
    },
    {
      "channel": 3,
      "note": 72,
      "start": 1.8361,
      "duration": 0.0139,
      "velocity": 90,
      "chip": "ym2612"
    },
    {
      "channel": 4,
      "note": 81,
      "start": 1.8367,
      "duration": 0.0136,
      "velocity": 90,
      "chip": "ym2612"
    },
    {
      "channel": 2,
      "note": 55,
      "start": 1.863,
      "duration": 0.039,
      "velocity": 100,
      "chip": "ym2612"
    },
    {
      "channel": 3,
      "note": 72,
      "start": 1.8636,
      "duration": 0.0118,
      "velocity": 90,
      "chip": "ym2612"
    },
    {
      "channel": 4,
      "note": 81,
      "start": 1.8642,
      "duration": 0.0116,
      "velocity": 90,
      "chip": "ym2612"
    },
    {
      "channel": 3,
      "note": 70,
      "start": 1.8889,
      "duration": 0.0134,
      "velocity": 90,
      "chip": "ym2612"
    },
    {
      "channel": 4,
      "note": 79,
      "start": 1.8895,
      "duration": 0.0132,
      "velocity": 90,
      "chip": "ym2612"
    },
    {
      "channel": 3,
      "note": 70,
      "start": 1.9142,
      "duration": 0.0144,
      "velocity": 90,
      "chip": "ym2612"
    },
    {
      "channel": 4,
      "note": 79,
      "start": 1.9149,
      "duration": 0.014,
      "velocity": 90,
      "chip": "ym2612"
    },
    {
      "channel": 3,
      "note": 72,
      "start": 1.9427,
      "duration": 0.0119,
      "velocity": 90,
      "chip": "ym2612"
    },
    {
      "channel": 4,
      "note": 81,
      "start": 1.9433,
      "duration": 0.0116,
      "velocity": 90,
      "chip": "ym2612"
    },
    {
      "channel": 0,
      "note": 82,
      "start": 1.9671,
      "duration": 0.3851,
      "velocity": 99,
      "chip": "ym2612"
    },
    {
      "channel": 1,
      "note": 74,
      "start": 1.9678,
      "duration": 0.3847,
      "velocity": 99,
      "chip": "ym2612"
    },
    {
      "channel": 2,
      "note": 55,
      "start": 1.9683,
      "duration": 0.038,
      "velocity": 100,
      "chip": "ym2612"
    },
    {
      "channel": 3,
      "note": 72,
      "start": 1.9688,
      "duration": 0.0117,
      "velocity": 90,
      "chip": "ym2612"
    },
    {
      "channel": 4,
      "note": 81,
      "start": 1.9695,
      "duration": 0.0114,
      "velocity": 90,
      "chip": "ym2612"
    },
    {
      "channel": 3,
      "note": 74,
      "start": 1.9936,
      "duration": 0.013,
      "velocity": 90,
      "chip": "ym2612"
    },
    {
      "channel": 4,
      "note": 82,
      "start": 1.9942,
      "duration": 0.0127,
      "velocity": 90,
      "chip": "ym2612"
    },
    {
      "channel": 3,
      "note": 74,
      "start": 2.0178,
      "duration": 0.0137,
      "velocity": 90,
      "chip": "ym2612"
    },
    {
      "channel": 4,
      "note": 82,
      "start": 2.0184,
      "duration": 0.0134,
      "velocity": 90,
      "chip": "ym2612"
    },
    {
      "channel": 3,
      "note": 72,
      "start": 2.0454,
      "duration": 0.0124,
      "velocity": 90,
      "chip": "ym2612"
    },
    {
      "channel": 4,
      "note": 81,
      "start": 2.0461,
      "duration": 0.0121,
      "velocity": 90,
      "chip": "ym2612"
    },
    {
      "channel": 2,
      "note": 55,
      "start": 2.0707,
      "duration": 0.0389,
      "velocity": 100,
      "chip": "ym2612"
    },
    {
      "channel": 3,
      "note": 72,
      "start": 2.0714,
      "duration": 0.0136,
      "velocity": 90,
      "chip": "ym2612"
    },
    {
      "channel": 4,
      "note": 81,
      "start": 2.072,
      "duration": 0.0132,
      "velocity": 90,
      "chip": "ym2612"
    },
    {
      "channel": 3,
      "note": 74,
      "start": 2.0964,
      "duration": 0.0135,
      "velocity": 90,
      "chip": "ym2612"
    },
    {
      "channel": 4,
      "note": 82,
      "start": 2.097,
      "duration": 0.0132,
      "velocity": 90,
      "chip": "ym2612"
    },
    {
      "channel": 3,
      "note": 74,
      "start": 2.1232,
      "duration": 0.0119,
      "velocity": 90,
      "chip": "ym2612"
    },
    {
      "channel": 4,
      "note": 82,
      "start": 2.1239,
      "duration": 0.0116,
      "velocity": 90,
      "chip": "ym2612"
    },
    {
      "channel": 3,
      "note": 75,
      "start": 2.1491,
      "duration": 0.0145,
      "velocity": 90,
      "chip": "ym2612"
    },
    {
      "channel": 4,
      "note": 84,
      "start": 2.1498,
      "duration": 0.0141,
      "velocity": 90,
      "chip": "ym2612"
    },
    {
      "channel": 2,
      "note": 55,
      "start": 2.1749,
      "duration": 0.0388,
      "velocity": 100,
      "chip": "ym2612"
    },
    {
      "channel": 3,
      "note": 75,
      "start": 2.1754,
      "duration": 0.0135,
      "velocity": 90,
      "chip": "ym2612"
    },
    {
      "channel": 4,
      "note": 84,
      "start": 2.1761,
      "duration": 0.0132,
      "velocity": 90,
      "chip": "ym2612"
    },
    {
      "channel": 3,
      "note": 74,
      "start": 2.2023,
      "duration": 0.0117,
      "velocity": 90,
      "chip": "ym2612"
    },
    {
      "channel": 4,
      "note": 82,
      "start": 2.2029,
      "duration": 0.0114,
      "velocity": 90,
      "chip": "ym2612"
    },
    {
      "channel": 3,
      "note": 74,
      "start": 2.2274,
      "duration": 0.014,
      "velocity": 90,
      "chip": "ym2612"
    },
    {
      "channel": 4,
      "note": 82,
      "start": 2.228,
      "duration": 0.0137,
      "velocity": 90,
      "chip": "ym2612"
    },
    {
      "channel": 3,
      "note": 72,
      "start": 2.2534,
      "duration": 0.0138,
      "velocity": 90,
      "chip": "ym2612"
    },
    {
      "channel": 4,
      "note": 81,
      "start": 2.254,
      "duration": 0.0135,
      "velocity": 90,
      "chip": "ym2612"
    },
    {
      "channel": 2,
      "note": 55,
      "start": 2.2801,
      "duration": 0.0372,
      "velocity": 100,
      "chip": "ym2612"
    },
    {
      "channel": 3,
      "note": 72,
      "start": 2.2807,
      "duration": 0.0121,
      "velocity": 90,
      "chip": "ym2612"
    },
    {
      "channel": 4,
      "note": 81,
      "start": 2.2814,
      "duration": 0.0118,
      "velocity": 90,
      "chip": "ym2612"
    },
    {
      "channel": 3,
      "note": 70,
      "start": 2.306,
      "duration": 0.0116,
      "velocity": 90,
      "chip": "ym2612"
    },
    {
      "channel": 4,
      "note": 79,
      "start": 2.3067,
      "duration": 0.0131,
      "velocity": 90,
      "chip": "ym2612"
    },
    {
      "channel": 3,
      "note": 70,
      "start": 2.3308,
      "duration": 0.0133,
      "velocity": 90,
      "chip": "ym2612"
    },
    {
      "channel": 4,
      "note": 79,
      "start": 2.3314,
      "duration": 0.013,
      "velocity": 90,
      "chip": "ym2612"
    },
    {
      "channel": 0,
      "note": 83,
      "start": 2.3549,
      "duration": 0.0404,
      "velocity": 99,
      "chip": "ym2612"
    },
    {
      "channel": 1,
      "note": 75,
      "start": 2.3554,
      "duration": 0.0401,
      "velocity": 99,
      "chip": "ym2612"
    },
    {
      "channel": 2,
      "note": 68,
      "start": 2.3559,
      "duration": 0.013,
      "velocity": 100,
      "chip": "ym2612"
    },
    {
      "channel": 3,
      "note": 69,
      "start": 2.3582,
      "duration": 0.011,
      "velocity": 90,
      "chip": "ym2612"
    },
    {
      "channel": 4,
      "note": 78,
      "start": 2.3588,
      "duration": 0.0107,
      "velocity": 90,
      "chip": "ym2612"
    },
    {
      "channel": 0,
      "note": 83,
      "start": 2.4102,
      "duration": 0.2249,
      "velocity": 99,
      "chip": "ym2612"
    },
    {
      "channel": 1,
      "note": 75,
      "start": 2.4107,
      "duration": 0.2246,
      "velocity": 99,
      "chip": "ym2612"
    },
    {
      "channel": 2,
      "note": 68,
      "start": 2.4111,
      "duration": 0.2152,
      "velocity": 100,
      "chip": "ym2612"
    },
    {
      "channel": 0,
      "note": 84,
      "start": 2.64,
      "duration": 0.0219,
      "velocity": 99,
      "chip": "ym2612"
    },
    {
      "channel": 1,
      "note": 76,
      "start": 2.6405,
      "duration": 0.0216,
      "velocity": 99,
      "chip": "ym2612"
    },
    {
      "channel": 2,
      "note": 57,
      "start": 2.641,
      "duration": 0.0147,
      "velocity": 100,
      "chip": "ym2612"
    },
    {
      "channel": 3,
      "note": 69,
      "start": 2.6416,
      "duration": 0.0144,
      "velocity": 90,
      "chip": "ym2612"
    },
    {
      "channel": 4,
      "note": 78,
      "start": 2.6422,
      "duration": 0.0142,
      "velocity": 90,
      "chip": "ym2612"
    },
    {
      "channel": 0,
      "note": 83,
      "start": 2.7733,
      "duration": 0.2256,
      "velocity": 99,
      "chip": "ym2612"
    },
    {
      "channel": 1,
      "note": 75,
      "start": 2.7738,
      "duration": 0.2253,
      "velocity": 99,
      "chip": "ym2612"
    },
    {
      "channel": 2,
      "note": 68,
      "start": 2.7743,
      "duration": 0.2159,
      "velocity": 100,
      "chip": "ym2612"
    },
    {
      "channel": 0,
      "note": 85,
      "start": 3.0021,
      "duration": 0.0226,
      "velocity": 99,
      "chip": "ym2612"
    },
    {
      "channel": 1,
      "note": 77,
      "start": 3.0026,
      "duration": 0.0223,
      "velocity": 99,
      "chip": "ym2612"
    },
    {
      "channel": 2,
      "note": 56,
      "start": 3.0031,
      "duration": 0.0136,
      "velocity": 100,
      "chip": "ym2612"
    },
    {
      "channel": 3,
      "note": 57,
      "start": 3.0054,
      "duration": 0.0116,
      "velocity": 90,
      "chip": "ym2612"
    },
    {
      "channel": 4,
      "note": 64,
      "start": 3.006,
      "duration": 0.0113,
      "velocity": 90,
      "chip": "ym2612"
    },
    {
      "channel": 0,
      "note": 83,
      "start": 3.1343,
      "duration": 0.2257,
      "velocity": 99,
      "chip": "ym2612"
    },
    {
      "channel": 1,
      "note": 75,
      "start": 3.1348,
      "duration": 0.2255,
      "velocity": 99,
      "chip": "ym2612"
    },
    {
      "channel": 2,
      "note": 68,
      "start": 3.1353,
      "duration": 0.2162,
      "velocity": 100,
      "chip": "ym2612"
    },
    {
      "channel": 0,
      "note": 84,
      "start": 3.3651,
      "duration": 0.022,
      "velocity": 99,
      "chip": "ym2612"
    },
    {
      "channel": 1,
      "note": 76,
      "start": 3.3656,
      "duration": 0.0218,
      "velocity": 99,
      "chip": "ym2612"
    },
    {
      "channel": 2,
      "note": 57,
      "start": 3.3661,
      "duration": 0.0149,
      "velocity": 100,
      "chip": "ym2612"
    },
    {
      "channel": 3,
      "note": 56,
      "start": 3.3667,
      "duration": 0.0146,
      "velocity": 90,
      "chip": "ym2612"
    },
    {
      "channel": 4,
      "note": 63,
      "start": 3.3674,
      "duration": 0.0143,
      "velocity": 90,
      "chip": "ym2612"
    },
    {
      "channel": 0,
      "note": 83,
      "start": 3.4982,
      "duration": 0.2244,
      "velocity": 99,
      "chip": "ym2612"
    },
    {
      "channel": 1,
      "note": 75,
      "start": 3.4988,
      "duration": 0.2241,
      "velocity": 99,
      "chip": "ym2612"
    },
    {
      "channel": 2,
      "note": 68,
      "start": 3.4993,
      "duration": 0.2165,
      "velocity": 100,
      "chip": "ym2612"
    },
    {
      "channel": 0,
      "note": 85,
      "start": 3.7276,
      "duration": 0.0227,
      "velocity": 99,
      "chip": "ym2612"
    },
    {
      "channel": 1,
      "note": 77,
      "start": 3.7281,
      "duration": 0.0224,
      "velocity": 99,
      "chip": "ym2612"
    },
    {
      "channel": 2,
      "note": 56,
      "start": 3.7286,
      "duration": 0.0137,
      "velocity": 100,
      "chip": "ym2612"
    },
    {
      "channel": 3,
      "note": 57,
      "start": 3.7292,
      "duration": 0.0134,
      "velocity": 90,
      "chip": "ym2612"
    },
    {
      "channel": 4,
      "note": 64,
      "start": 3.7316,
      "duration": 0.0115,
      "velocity": 90,
      "chip": "ym2612"
    },
    {
      "channel": 0,
      "note": 87,
      "start": 3.8602,
      "duration": 0.0273,
      "velocity": 99,
      "chip": "ym2612"
    },
    {
      "channel": 1,
      "note": 79,
      "start": 3.8607,
      "duration": 0.027,
      "velocity": 99,
      "chip": "ym2612"
    },
    {
      "channel": 2,
      "note": 72,
      "start": 3.8611,
      "duration": 0.0183,
      "velocity": 100,
      "chip": "ym2612"
    },
    {
      "channel": 3,
      "note": 56,
      "start": 3.8641,
      "duration": 0.0156,
      "velocity": 90,
      "chip": "ym2612"
    },
    {
      "channel": 4,
      "note": 63,
      "start": 3.8672,
      "duration": 0.0129,
      "velocity": 90,
      "chip": "ym2612"
    },
    {
      "channel": 3,
      "note": 80,
      "start": 3.8928,
      "duration": 0.013,
      "velocity": 90,
      "chip": "ym2612"
    },
    {
      "channel": 4,
      "note": 88,
      "start": 3.8934,
      "duration": 0.0127,
      "velocity": 90,
      "chip": "ym2612"
    },
    {
      "channel": 3,
      "note": 80,
      "start": 3.9167,
      "duration": 0.0127,
      "velocity": 90,
      "chip": "ym2612"
    },
    {
      "channel": 4,
      "note": 88,
      "start": 3.9173,
      "duration": 0.0124,
      "velocity": 90,
      "chip": "ym2612"
    },
    {
      "channel": 0,
      "note": 88,
      "start": 3.9413,
      "duration": 0.0212,
      "velocity": 99,
      "chip": "ym2612"
    },
    {
      "channel": 1,
      "note": 80,
      "start": 3.9418,
      "duration": 0.021,
      "velocity": 99,
      "chip": "ym2612"
    },
    {
      "channel": 2,
      "note": 73,
      "start": 3.9422,
      "duration": 0.0122,
      "velocity": 100,
      "chip": "ym2612"
    },
    {
      "channel": 3,
      "note": 79,
      "start": 3.9429,
      "duration": 0.0119,
      "velocity": 90,
      "chip": "ym2612"
    },
    {
      "channel": 4,
      "note": 87,
      "start": 3.9435,
      "duration": 0.0116,
      "velocity": 90,
      "chip": "ym2612"
    },
    {
      "channel": 0,
      "note": 88,
      "start": 3.9669,
      "duration": 0.3182,
      "velocity": 99,
      "chip": "ym2612"
    },
    {
      "channel": 1,
      "note": 80,
      "start": 3.9676,
      "duration": 0.3181,
      "velocity": 99,
      "chip": "ym2612"
    },
    {
      "channel": 2,
      "note": 61,
      "start": 3.9681,
      "duration": 0.0415,
      "velocity": 100,
      "chip": "ym2612"
    },
    {
      "channel": 3,
      "note": 79,
      "start": 3.9687,
      "duration": 0.0149,
      "velocity": 90,
      "chip": "ym2612"
    },
    {
      "channel": 4,
      "note": 87,
      "start": 3.9693,
      "duration": 0.0146,
      "velocity": 90,
      "chip": "ym2612"
    },
    {
      "channel": 3,
      "note": 80,
      "start": 3.9961,
      "duration": 0.0138,
      "velocity": 90,
      "chip": "ym2612"
    },
    {
      "channel": 4,
      "note": 88,
      "start": 3.9968,
      "duration": 0.0135,
      "velocity": 90,
      "chip": "ym2612"
    },
    {
      "channel": 3,
      "note": 80,
      "start": 4.0231,
      "duration": 0.0119,
      "velocity": 90,
      "chip": "ym2612"
    },
    {
      "channel": 4,
      "note": 88,
      "start": 4.0238,
      "duration": 0.0117,
      "velocity": 90,
      "chip": "ym2612"
    },
    {
      "channel": 3,
      "note": 79,
      "start": 4.0491,
      "duration": 0.0121,
      "velocity": 90,
      "chip": "ym2612"
    },
    {
      "channel": 4,
      "note": 87,
      "start": 4.0497,
      "duration": 0.0118,
      "velocity": 90,
      "chip": "ym2612"
    },
    {
      "channel": 2,
      "note": 61,
      "start": 4.0741,
      "duration": 0.039,
      "velocity": 100,
      "chip": "ym2612"
    },
    {
      "channel": 3,
      "note": 79,
      "start": 4.0747,
      "duration": 0.0137,
      "velocity": 90,
      "chip": "ym2612"
    },
    {
      "channel": 4,
      "note": 87,
      "start": 4.0754,
      "duration": 0.0134,
      "velocity": 90,
      "chip": "ym2612"
    },
    {
      "channel": 3,
      "note": 80,
      "start": 4.1,
      "duration": 0.0135,
      "velocity": 90,
      "chip": "ym2612"
    },
    {
      "channel": 4,
      "note": 88,
      "start": 4.1006,
      "duration": 0.0132,
      "velocity": 90,
      "chip": "ym2612"
    },
    {
      "channel": 3,
      "note": 80,
      "start": 4.1268,
      "duration": 0.0119,
      "velocity": 90,
      "chip": "ym2612"
    },
    {
      "channel": 4,
      "note": 88,
      "start": 4.1274,
      "duration": 0.0116,
      "velocity": 90,
      "chip": "ym2612"
    },
    {
      "channel": 3,
      "note": 78,
      "start": 4.1527,
      "duration": 0.0149,
      "velocity": 90,
      "chip": "ym2612"
    },
    {
      "channel": 4,
      "note": 87,
      "start": 4.1533,
      "duration": 0.0147,
      "velocity": 90,
      "chip": "ym2612"
    },
    {
      "channel": 2,
      "note": 61,
      "start": 4.1789,
      "duration": 0.0388,
      "velocity": 100,
      "chip": "ym2612"
    },
    {
      "channel": 3,
      "note": 78,
      "start": 4.1795,
      "duration": 0.0137,
      "velocity": 90,
      "chip": "ym2612"
    },
    {
      "channel": 4,
      "note": 87,
      "start": 4.1801,
      "duration": 0.0133,
      "velocity": 90,
      "chip": "ym2612"
    },
    {
      "channel": 3,
      "note": 76,
      "start": 4.2062,
      "duration": 0.0116,
      "velocity": 90,
      "chip": "ym2612"
    },
    {
      "channel": 4,
      "note": 85,
      "start": 4.2069,
      "duration": 0.0114,
      "velocity": 90,
      "chip": "ym2612"
    },
    {
      "channel": 3,
      "note": 76,
      "start": 4.2312,
      "duration": 0.0142,
      "velocity": 90,
      "chip": "ym2612"
    },
    {
      "channel": 4,
      "note": 85,
      "start": 4.2318,
      "duration": 0.0139,
      "velocity": 90,
      "chip": "ym2612"
    },
    {
      "channel": 3,
      "note": 78,
      "start": 4.2584,
      "duration": 0.0139,
      "velocity": 90,
      "chip": "ym2612"
    },
    {
      "channel": 4,
      "note": 87,
      "start": 4.2591,
      "duration": 0.0136,
      "velocity": 90,
      "chip": "ym2612"
    },
    {
      "channel": 0,
      "note": 88,
      "start": 4.2851,
      "duration": 0.2051,
      "velocity": 99,
      "chip": "ym2612"
    },
    {
      "channel": 1,
      "note": 80,
      "start": 4.2857,
      "duration": 0.2049,
      "velocity": 99,
      "chip": "ym2612"
    },
    {
      "channel": 2,
      "note": 61,
      "start": 4.2862,
      "duration": 0.0384,
      "velocity": 100,
      "chip": "ym2612"
    },
    {
      "channel": 3,
      "note": 78,
      "start": 4.2868,
      "duration": 0.0118,
      "velocity": 90,
      "chip": "ym2612"
    },
    {
      "channel": 4,
      "note": 87,
      "start": 4.2875,
      "duration": 0.0115,
      "velocity": 90,
      "chip": "ym2612"
    },
    {
      "channel": 3,
      "note": 80,
      "start": 4.3117,
      "duration": 0.0132,
      "velocity": 90,
      "chip": "ym2612"
    },
    {
      "channel": 4,
      "note": 88,
      "start": 4.3123,
      "duration": 0.0129,
      "velocity": 90,
      "chip": "ym2612"
    },
    {
      "channel": 3,
      "note": 80,
      "start": 4.3366,
      "duration": 0.0144,
      "velocity": 90,
      "chip": "ym2612"
    },
    {
      "channel": 4,
      "note": 88,
      "start": 4.3372,
      "duration": 0.0142,
      "velocity": 90,
      "chip": "ym2612"
    },
    {
      "channel": 3,
      "note": 79,
      "start": 4.3654,
      "duration": 0.012,
      "velocity": 90,
      "chip": "ym2612"
    },
    {
      "channel": 4,
      "note": 87,
      "start": 4.366,
      "duration": 0.0117,
      "velocity": 90,
      "chip": "ym2612"
    },
    {
      "channel": 2,
      "note": 61,
      "start": 4.3903,
      "duration": 0.039,
      "velocity": 100,
      "chip": "ym2612"
    },
    {
      "channel": 3,
      "note": 79,
      "start": 4.3909,
      "duration": 0.012,
      "velocity": 90,
      "chip": "ym2612"
    },
    {
      "channel": 4,
      "note": 87,
      "start": 4.3916,
      "duration": 0.0118,
      "velocity": 90,
      "chip": "ym2612"
    },
    {
      "channel": 3,
      "note": 80,
      "start": 4.4163,
      "duration": 0.0134,
      "velocity": 90,
      "chip": "ym2612"
    },
    {
      "channel": 4,
      "note": 88,
      "start": 4.4169,
      "duration": 0.0131,
      "velocity": 90,
      "chip": "ym2612"
    },
    {
      "channel": 3,
      "note": 80,
      "start": 4.4415,
      "duration": 0.0144,
      "velocity": 90,
      "chip": "ym2612"
    },
    {
      "channel": 4,
      "note": 88,
      "start": 4.4422,
      "duration": 0.0141,
      "velocity": 90,
      "chip": "ym2612"
    },
    {
      "channel": 3,
      "note": 82,
      "start": 4.4698,
      "duration": 0.0124,
      "velocity": 90,
      "chip": "ym2612"
    },
    {
      "channel": 4,
      "note": 90,
      "start": 4.4705,
      "duration": 0.0121,
      "velocity": 90,
      "chip": "ym2612"
    },
    {
      "channel": 0,
      "note": 87,
      "start": 4.4948,
      "duration": 0.1507,
      "velocity": 99,
      "chip": "ym2612"
    },
    {
      "channel": 1,
      "note": 81,
      "start": 4.4953,
      "duration": 0.0994,
      "velocity": 99,
      "chip": "ym2612"
    },
    {
      "channel": 2,
      "note": 63,
      "start": 4.4958,
      "duration": 0.0376,
      "velocity": 100,
      "chip": "ym2612"
    },
    {
      "channel": 3,
      "note": 82,
      "start": 4.4963,
      "duration": 0.0137,
      "velocity": 90,
      "chip": "ym2612"
    },
    {
      "channel": 4,
      "note": 90,
      "start": 4.497,
      "duration": 0.0134,
      "velocity": 90,
      "chip": "ym2612"
    },
    {
      "channel": 3,
      "note": 83,
      "start": 4.5209,
      "duration": 0.0129,
      "velocity": 90,
      "chip": "ym2612"
    },
    {
      "channel": 4,
      "note": 91,
      "start": 4.5215,
      "duration": 0.0126,
      "velocity": 90,
      "chip": "ym2612"
    },
    {
      "channel": 3,
      "note": 83,
      "start": 4.5477,
      "duration": 0.0121,
      "velocity": 90,
      "chip": "ym2612"
    },
    {
      "channel": 4,
      "note": 91,
      "start": 4.5483,
      "duration": 0.0118,
      "velocity": 90,
      "chip": "ym2612"
    },
    {
      "channel": 3,
      "note": 82,
      "start": 4.5738,
      "duration": 0.0142,
      "velocity": 90,
      "chip": "ym2612"
    },
    {
      "channel": 4,
      "note": 90,
      "start": 4.5745,
      "duration": 0.014,
      "velocity": 90,
      "chip": "ym2612"
    },
    {
      "channel": 1,
      "note": 78,
      "start": 4.5991,
      "duration": 0.0467,
      "velocity": 99,
      "chip": "ym2612"
    },
    {
      "channel": 2,
      "note": 59,
      "start": 4.5996,
      "duration": 0.0381,
      "velocity": 100,
      "chip": "ym2612"
    },
    {
      "channel": 3,
      "note": 82,
      "start": 4.6002,
      "duration": 0.0133,
      "velocity": 90,
      "chip": "ym2612"
    },
    {
      "channel": 4,
      "note": 90,
      "start": 4.6008,
      "duration": 0.013,
      "velocity": 90,
      "chip": "ym2612"
    },
    {
      "channel": 3,
      "note": 83,
      "start": 4.6264,
      "duration": 0.0115,
      "velocity": 90,
      "chip": "ym2612"
    },
    {
      "channel": 4,
      "note": 91,
      "start": 4.6271,
      "duration": 0.0112,
      "velocity": 90,
      "chip": "ym2612"
    },
    {
      "channel": 3,
      "note": 83,
      "start": 4.6522,
      "duration": 0.0134,
      "velocity": 90,
      "chip": "ym2612"
    },
    {
      "channel": 4,
      "note": 91,
      "start": 4.6528,
      "duration": 0.0132,
      "velocity": 90,
      "chip": "ym2612"
    },
    {
      "channel": 3,
      "note": 87,
      "start": 4.6777,
      "duration": 0.0138,
      "velocity": 90,
      "chip": "ym2612"
    },
    {
      "channel": 4,
      "note": 93,
      "start": 4.6784,
      "duration": 0.0134,
      "velocity": 90,
      "chip": "ym2612"
    },
    {
      "channel": 0,
      "note": 64,
      "start": 4.7071,
      "duration": 0.0262,
      "velocity": 90,
      "chip": "ym2612"
    },
    {
      "channel": 1,
      "note": 59,
      "start": 4.711,
      "duration": 0.0226,
      "velocity": 90,
      "chip": "ym2612"
    },
    {
      "channel": 2,
      "note": 52,
      "start": 4.7116,
      "duration": 0.0626,
      "velocity": 100,
      "chip": "ym2612"
    },
    {
      "channel": 3,
      "note": 87,
      "start": 4.7172,
      "duration": 0.0926,
      "velocity": 96,
      "chip": "ym2612"
    },
    {
      "channel": 4,
      "note": 93,
      "start": 4.7245,
      "duration": 0.0856,
      "velocity": 96,
      "chip": "ym2612"
    },
    {
      "channel": 0,
      "note": 64,
      "start": 4.7459,
      "duration": 0.0107,
      "velocity": 90,
      "chip": "ym2612"
    },
    {
      "channel": 1,
      "note": 59,
      "start": 4.7464,
      "duration": 0.0105,
      "velocity": 90,
      "chip": "ym2612"
    },
    {
      "channel": 0,
      "note": 64,
      "start": 4.769,
      "duration": 0.0136,
      "velocity": 90,
      "chip": "ym2612"
    },
    {
      "channel": 1,
      "note": 59,
      "start": 4.7695,
      "duration": 0.0134,
      "velocity": 90,
      "chip": "ym2612"
    },
    {
      "channel": 0,
      "note": 64,
      "start": 4.7952,
      "duration": 0.0138,
      "velocity": 90,
      "chip": "ym2612"
    },
    {
      "channel": 1,
      "note": 59,
      "start": 4.7957,
      "duration": 0.0136,
      "velocity": 90,
      "chip": "ym2612"
    },
    {
      "channel": 0,
      "note": 64,
      "start": 4.8222,
      "duration": 0.0124,
      "velocity": 90,
      "chip": "ym2612"
    },
    {
      "channel": 1,
      "note": 59,
      "start": 4.8227,
      "duration": 0.0121,
      "velocity": 90,
      "chip": "ym2612"
    },
    {
      "channel": 2,
      "note": 52,
      "start": 4.8232,
      "duration": 0.0535,
      "velocity": 100,
      "chip": "ym2612"
    },
    {
      "channel": 3,
      "note": 88,
      "start": 4.8237,
      "duration": 0.0883,
      "velocity": 96,
      "chip": "ym2612"
    },
    {
      "channel": 4,
      "note": 96,
      "start": 4.8244,
      "duration": 0.088,
      "velocity": 96,
      "chip": "ym2612"
    },
    {
      "channel": 0,
      "note": 64,
      "start": 4.8472,
      "duration": 0.0127,
      "velocity": 90,
      "chip": "ym2612"
    },
    {
      "channel": 1,
      "note": 59,
      "start": 4.8477,
      "duration": 0.0125,
      "velocity": 90,
      "chip": "ym2612"
    },
    {
      "channel": 0,
      "note": 64,
      "start": 4.8715,
      "duration": 0.0134,
      "velocity": 90,
      "chip": "ym2612"
    },
    {
      "channel": 1,
      "note": 59,
      "start": 4.8719,
      "duration": 0.0132,
      "velocity": 90,
      "chip": "ym2612"
    },
    {
      "channel": 0,
      "note": 64,
      "start": 4.8987,
      "duration": 0.0125,
      "velocity": 90,
      "chip": "ym2612"
    },
    {
      "channel": 1,
      "note": 59,
      "start": 4.8992,
      "duration": 0.0123,
      "velocity": 90,
      "chip": "ym2612"
    },
    {
      "channel": 0,
      "note": 64,
      "start": 4.9245,
      "duration": 0.0141,
      "velocity": 90,
      "chip": "ym2612"
    },
    {
      "channel": 1,
      "note": 59,
      "start": 4.9249,
      "duration": 0.0139,
      "velocity": 90,
      "chip": "ym2612"
    },
    {
      "channel": 2,
      "note": 52,
      "start": 4.9254,
      "duration": 0.0544,
      "velocity": 100,
      "chip": "ym2612"
    },
    {
      "channel": 3,
      "note": 87,
      "start": 4.9261,
      "duration": 0.0914,
      "velocity": 96,
      "chip": "ym2612"
    },
    {
      "channel": 4,
      "note": 95,
      "start": 4.9267,
      "duration": 0.0912,
      "velocity": 96,
      "chip": "ym2612"
    },
    {
      "channel": 0,
      "note": 64,
      "start": 4.9496,
      "duration": 0.0128,
      "velocity": 90,
      "chip": "ym2612"
    },
    {
      "channel": 1,
      "note": 59,
      "start": 4.9501,
      "duration": 0.0126,
      "velocity": 90,
      "chip": "ym2612"
    },
    {
      "channel": 0,
      "note": 64,
      "start": 4.9762,
      "duration": 0.0127,
      "velocity": 90,
      "chip": "ym2612"
    },
    {
      "channel": 1,
      "note": 59,
      "start": 4.9767,
      "duration": 0.0124,
      "velocity": 90,
      "chip": "ym2612"
    },
    {
      "channel": 0,
      "note": 64,
      "start": 5.0028,
      "duration": 0.0139,
      "velocity": 90,
      "chip": "ym2612"
    },
    {
      "channel": 1,
      "note": 59,
      "start": 5.0033,
      "duration": 0.0137,
      "velocity": 90,
      "chip": "ym2612"
    },
    {
      "channel": 0,
      "note": 64,
      "start": 5.0282,
      "duration": 0.0141,
      "velocity": 90,
      "chip": "ym2612"
    },
    {
      "channel": 1,
      "note": 59,
      "start": 5.0287,
      "duration": 0.0139,
      "velocity": 90,
      "chip": "ym2612"
    },
    {
      "channel": 2,
      "note": 52,
      "start": 5.0292,
      "duration": 0.0549,
      "velocity": 100,
      "chip": "ym2612"
    },
    {
      "channel": 3,
      "note": 83,
      "start": 5.0298,
      "duration": 0.0895,
      "velocity": 96,
      "chip": "ym2612"
    },
    {
      "channel": 4,
      "note": 91,
      "start": 5.0304,
      "duration": 0.0892,
      "velocity": 96,
      "chip": "ym2612"
    },
    {
      "channel": 0,
      "note": 64,
      "start": 5.0548,
      "duration": 0.011,
      "velocity": 90,
      "chip": "ym2612"
    },
    {
      "channel": 1,
      "note": 59,
      "start": 5.0554,
      "duration": 0.0107,
      "velocity": 90,
      "chip": "ym2612"
    },
    {
      "channel": 0,
      "note": 64,
      "start": 5.0788,
      "duration": 0.0121,
      "velocity": 90,
      "chip": "ym2612"
    },
    {
      "channel": 1,
      "note": 59,
      "start": 5.0793,
      "duration": 0.0119,
      "velocity": 90,
      "chip": "ym2612"
    },
    {
      "channel": 0,
      "note": 64,
      "start": 5.1048,
      "duration": 0.0137,
      "velocity": 90,
      "chip": "ym2612"
    },
    {
      "channel": 1,
      "note": 59,
      "start": 5.1053,
      "duration": 0.0134,
      "velocity": 90,
      "chip": "ym2612"
    },
    {
      "channel": 0,
      "note": 64,
      "start": 5.13,
      "duration": 0.0143,
      "velocity": 90,
      "chip": "ym2612"
    },
    {
      "channel": 1,
      "note": 59,
      "start": 5.1305,
      "duration": 0.014,
      "velocity": 90,
      "chip": "ym2612"
    },
    {
      "channel": 2,
      "note": 52,
      "start": 5.131,
      "duration": 0.0561,
      "velocity": 100,
      "chip": "ym2612"
    },
    {
      "channel": 3,
      "note": 86,
      "start": 5.1333,
      "duration": 0.089,
      "velocity": 96,
      "chip": "ym2612"
    },
    {
      "channel": 4,
      "note": 95,
      "start": 5.134,
      "duration": 0.0887,
      "velocity": 96,
      "chip": "ym2612"
    },
    {
      "channel": 0,
      "note": 64,
      "start": 5.1568,
      "duration": 0.011,
      "velocity": 90,
      "chip": "ym2612"
    },
    {
      "channel": 1,
      "note": 59,
      "start": 5.1574,
      "duration": 0.0108,
      "velocity": 90,
      "chip": "ym2612"
    },
    {
      "channel": 0,
      "note": 64,
      "start": 5.182,
      "duration": 0.0134,
      "velocity": 90,
      "chip": "ym2612"
    },
    {
      "channel": 1,
      "note": 59,
      "start": 5.1825,
      "duration": 0.0131,
      "velocity": 90,
      "chip": "ym2612"
    },
    {
      "channel": 0,
      "note": 64,
      "start": 5.2079,
      "duration": 0.0137,
      "velocity": 90,
      "chip": "ym2612"
    },
    {
      "channel": 1,
      "note": 59,
      "start": 5.2083,
      "duration": 0.0135,
      "velocity": 90,
      "chip": "ym2612"
    },
    {
      "channel": 0,
      "note": 64,
      "start": 5.2348,
      "duration": 0.0123,
      "velocity": 90,
      "chip": "ym2612"
    },
    {
      "channel": 1,
      "note": 59,
      "start": 5.2353,
      "duration": 0.0121,
      "velocity": 90,
      "chip": "ym2612"
    },
    {
      "channel": 2,
      "note": 52,
      "start": 5.2358,
      "duration": 0.0537,
      "velocity": 100,
      "chip": "ym2612"
    },
    {
      "channel": 3,
      "note": 85,
      "start": 5.2364,
      "duration": 0.0871,
      "velocity": 96,
      "chip": "ym2612"
    },
    {
      "channel": 4,
      "note": 94,
      "start": 5.237,
      "duration": 0.0868,
      "velocity": 96,
      "chip": "ym2612"
    },
    {
      "channel": 0,
      "note": 64,
      "start": 5.2598,
      "duration": 0.0128,
      "velocity": 90,
      "chip": "ym2612"
    },
    {
      "channel": 1,
      "note": 59,
      "start": 5.2602,
      "duration": 0.0126,
      "velocity": 90,
      "chip": "ym2612"
    },
    {
      "channel": 0,
      "note": 64,
      "start": 5.2841,
      "duration": 0.0136,
      "velocity": 90,
      "chip": "ym2612"
    },
    {
      "channel": 1,
      "note": 59,
      "start": 5.2846,
      "duration": 0.0134,
      "velocity": 90,
      "chip": "ym2612"
    },
    {
      "channel": 0,
      "note": 64,
      "start": 5.3109,
      "duration": 0.0118,
      "velocity": 90,
      "chip": "ym2612"
    },
    {
      "channel": 1,
      "note": 59,
      "start": 5.3114,
      "duration": 0.0116,
      "velocity": 90,
      "chip": "ym2612"
    },
    {
      "channel": 0,
      "note": 63,
      "start": 5.336,
      "duration": 0.025,
      "velocity": 90,
      "chip": "ym2612"
    },
    {
      "channel": 1,
      "note": 59,
      "start": 5.3366,
      "duration": 0.0249,
      "velocity": 90,
      "chip": "ym2612"
    },
    {
      "channel": 2,
      "note": 51,
      "start": 5.3371,
      "duration": 0.0535,
      "velocity": 100,
      "chip": "ym2612"
    },
    {
      "channel": 3,
      "note": 82,
      "start": 5.3377,
      "duration": 0.0896,
      "velocity": 96,
      "chip": "ym2612"
    },
    {
      "channel": 4,
      "note": 90,
      "start": 5.3384,
      "duration": 0.0893,
      "velocity": 96,
      "chip": "ym2612"
    },
    {
      "channel": 0,
      "note": 64,
      "start": 5.3612,
      "duration": 0.0256,
      "velocity": 90,
      "chip": "ym2612"
    },
    {
      "channel": 1,
      "note": 61,
      "start": 5.3618,
      "duration": 0.0256,
      "velocity": 90,
      "chip": "ym2612"
    },
    {
      "channel": 0,
      "note": 66,
      "start": 5.387,
      "duration": 0.0254,
      "velocity": 90,
      "chip": "ym2612"
    },
    {
      "channel": 1,
      "note": 63,
      "start": 5.3876,
      "duration": 0.0253,
      "velocity": 90,
      "chip": "ym2612"
    },
    {
      "channel": 0,
      "note": 67,
      "start": 5.4127,
      "duration": 0.0252,
      "velocity": 90,
      "chip": "ym2612"
    },
    {
      "channel": 1,
      "note": 64,
      "start": 5.4132,
      "duration": 0.0252,
      "velocity": 90,
      "chip": "ym2612"
    },
    {
      "channel": 0,
      "note": 69,
      "start": 5.4381,
      "duration": 0.0249,
      "velocity": 90,
      "chip": "ym2612"
    },
    {
      "channel": 1,
      "note": 66,
      "start": 5.4386,
      "duration": 0.0248,
      "velocity": 90,
      "chip": "ym2612"
    },
    {
      "channel": 2,
      "note": 51,
      "start": 5.4391,
      "duration": 0.0552,
      "velocity": 100,
      "chip": "ym2612"
    },
    {
      "channel": 3,
      "note": 84,
      "start": 5.4397,
      "duration": 0.0898,
      "velocity": 96,
      "chip": "ym2612"
    },
    {
      "channel": 4,
      "note": 93,
      "start": 5.4404,
      "duration": 0.0896,
      "velocity": 96,
      "chip": "ym2612"
    },
    {
      "channel": 0,
      "note": 71,
      "start": 5.4631,
      "duration": 0.0256,
      "velocity": 90,
      "chip": "ym2612"
    },
    {
      "channel": 1,
      "note": 67,
      "start": 5.4637,
      "duration": 0.0255,
      "velocity": 90,
      "chip": "ym2612"
    },
    {
      "channel": 0,
      "note": 72,
      "start": 5.489,
      "duration": 0.0258,
      "velocity": 90,
      "chip": "ym2612"
    },
    {
      "channel": 1,
      "note": 69,
      "start": 5.4895,
      "duration": 0.0258,
      "velocity": 90,
      "chip": "ym2612"
    },
    {
      "channel": 0,
      "note": 75,
      "start": 5.515,
      "duration": 0.0251,
      "velocity": 90,
      "chip": "ym2612"
    },
    {
      "channel": 1,
      "note": 71,
      "start": 5.5156,
      "duration": 0.025,
      "velocity": 90,
      "chip": "ym2612"
    },
    {
      "channel": 0,
      "note": 71,
      "start": 5.5403,
      "duration": 0.0751,
      "velocity": 90,
      "chip": "ym2612"
    },
    {
      "channel": 1,
      "note": 67,
      "start": 5.5408,
      "duration": 0.0751,
      "velocity": 90,
      "chip": "ym2612"
    },
    {
      "channel": 2,
      "note": 52,
      "start": 5.5413,
      "duration": 0.0544,
      "velocity": 100,
      "chip": "ym2612"
    },
    {
      "channel": 3,
      "note": 81,
      "start": 5.542,
      "duration": 0.0748,
      "velocity": 96,
      "chip": "ym2612"
    },
    {
      "channel": 4,
      "note": 90,
      "start": 5.5445,
      "duration": 0.073,
      "velocity": 96,
      "chip": "ym2612"
    },
    {
      "channel": 0,
      "note": 70,
      "start": 5.6156,
      "duration": 0.0141,
      "velocity": 90,
      "chip": "ym2612"
    },
    {
      "channel": 1,
      "note": 66,
      "start": 5.6162,
      "duration": 0.0141,
      "velocity": 90,
      "chip": "ym2612"
    },
    {
      "channel": 3,
      "note": 88,
      "start": 5.6171,
      "duration": 0.014,
      "velocity": 96,
      "chip": "ym2612"
    },
    {
      "channel": 4,
      "note": 91,
      "start": 5.6178,
      "duration": 0.014,
      "velocity": 96,
      "chip": "ym2612"
    },
    {
      "channel": 0,
      "note": 69,
      "start": 5.63,
      "duration": 0.0141,
      "velocity": 90,
      "chip": "ym2612"
    },
    {
      "channel": 1,
      "note": 64,
      "start": 5.6305,
      "duration": 0.0141,
      "velocity": 90,
      "chip": "ym2612"
    },
    {
      "channel": 3,
      "note": 87,
      "start": 5.6314,
      "duration": 0.0144,
      "velocity": 96,
      "chip": "ym2612"
    },
    {
      "channel": 4,
      "note": 90,
      "start": 5.6321,
      "duration": 0.0144,
      "velocity": 96,
      "chip": "ym2612"
    },
    {
      "channel": 0,
      "note": 67,
      "start": 5.6443,
      "duration": 0.2049,
      "velocity": 90,
      "chip": "ym2612"
    },
    {
      "channel": 1,
      "note": 59,
      "start": 5.6449,
      "duration": 0.2048,
      "velocity": 90,
      "chip": "ym2612"
    },
    {
      "channel": 2,
      "note": 52,
      "start": 5.6454,
      "duration": 0.0538,
      "velocity": 100,
      "chip": "ym2612"
    },
    {
      "channel": 3,
      "note": 84,
      "start": 5.6461,
      "duration": 0.3132,
      "velocity": 96,
      "chip": "ym2612"
    },
    {
      "channel": 4,
      "note": 89,
      "start": 5.6469,
      "duration": 0.3131,
      "velocity": 96,
      "chip": "ym2612"
    },
    {
      "channel": 2,
      "note": 52,
      "start": 5.7477,
      "duration": 0.0535,
      "velocity": 100,
      "chip": "ym2612"
    },
    {
      "channel": 2,
      "note": 52,
      "start": 5.8502,
      "duration": 0.0617,
      "velocity": 100,
      "chip": "ym2612"
    },
    {
      "channel": 0,
      "note": 88,
      "start": 5.9023,
      "duration": 0.0244,
      "velocity": 99,
      "chip": "ym2612"
    },
    {
      "channel": 1,
      "note": 84,
      "start": 5.9063,
      "duration": 0.0207,
      "velocity": 99,
      "chip": "ym2612"
    },
    {
      "channel": 0,
      "note": 88,
      "start": 5.932,
      "duration": 0.0211,
      "velocity": 99,
      "chip": "ym2612"
    },
    {
      "channel": 1,
      "note": 84,
      "start": 5.9325,
      "duration": 0.0209,
      "velocity": 99,
      "chip": "ym2612"
    },
    {
      "channel": 0,
      "note": 88,
      "start": 5.9576,
      "duration": 0.0234,
      "velocity": 99,
      "chip": "ym2612"
    },
    {
      "channel": 1,
      "note": 84,
      "start": 5.9581,
      "duration": 0.0231,
      "velocity": 99,
      "chip": "ym2612"
    },
    {
      "channel": 2,
      "note": 52,
      "start": 5.9586,
      "duration": 0.0569,
      "velocity": 100,
      "chip": "ym2612"
    },
    {
      "channel": 3,
      "note": 83,
      "start": 5.9593,
      "duration": 0.4106,
      "velocity": 96,
      "chip": "ym2612"
    },
    {
      "channel": 4,
      "note": 88,
      "start": 5.96,
      "duration": 0.4102,
      "velocity": 96,
      "chip": "ym2612"
    },
    {
      "channel": 0,
      "note": 87,
      "start": 6.0099,
      "duration": 0.0215,
      "velocity": 99,
      "chip": "ym2612"
    },
    {
      "channel": 1,
      "note": 83,
      "start": 6.0104,
      "duration": 0.0212,
      "velocity": 99,
      "chip": "ym2612"
    },
    {
      "channel": 0,
      "note": 87,
      "start": 6.036,
      "duration": 0.0223,
      "velocity": 99,
      "chip": "ym2612"
    },
    {
      "channel": 1,
      "note": 83,
      "start": 6.0365,
      "duration": 0.0221,
      "velocity": 99,
      "chip": "ym2612"
    },
    {
      "channel": 0,
      "note": 87,
      "start": 6.0629,
      "duration": 0.0208,
      "velocity": 99,
      "chip": "ym2612"
    },
    {
      "channel": 1,
      "note": 83,
      "start": 6.0634,
      "duration": 0.0206,
      "velocity": 99,
      "chip": "ym2612"
    },
    {
      "channel": 2,
      "note": 52,
      "start": 6.0638,
      "duration": 0.055,
      "velocity": 100,
      "chip": "ym2612"
    },
    {
      "channel": 0,
      "note": 84,
      "start": 6.1124,
      "duration": 0.0237,
      "velocity": 99,
      "chip": "ym2612"
    },
    {
      "channel": 1,
      "note": 76,
      "start": 6.1129,
      "duration": 0.0234,
      "velocity": 99,
      "chip": "ym2612"
    },
    {
      "channel": 0,
      "note": 84,
      "start": 6.1395,
      "duration": 0.0226,
      "velocity": 99,
      "chip": "ym2612"
    },
    {
      "channel": 1,
      "note": 76,
      "start": 6.1418,
      "duration": 0.0207,
      "velocity": 99,
      "chip": "ym2612"
    },
    {
      "channel": 0,
      "note": 84,
      "start": 6.1668,
      "duration": 0.0209,
      "velocity": 99,
      "chip": "ym2612"
    },
    {
      "channel": 1,
      "note": 76,
      "start": 6.1673,
      "duration": 0.0206,
      "velocity": 99,
      "chip": "ym2612"
    },
    {
      "channel": 2,
      "note": 52,
      "start": 6.1677,
      "duration": 0.054,
      "velocity": 100,
      "chip": "ym2612"
    },
    {
      "channel": 0,
      "note": 83,
      "start": 6.2161,
      "duration": 0.0227,
      "velocity": 99,
      "chip": "ym2612"
    },
    {
      "channel": 1,
      "note": 75,
      "start": 6.2166,
      "duration": 0.0225,
      "velocity": 99,
      "chip": "ym2612"
    },
    {
      "channel": 0,
      "note": 83,
      "start": 6.2437,
      "duration": 0.021,
      "velocity": 99,
      "chip": "ym2612"
    },
    {
      "channel": 1,
      "note": 75,
      "start": 6.2441,
      "duration": 0.0208,
      "velocity": 99,
      "chip": "ym2612"
    },
    {
      "channel": 0,
      "note": 83,
      "start": 6.2692,
      "duration": 0.021,
      "velocity": 99,
      "chip": "ym2612"
    },
    {
      "channel": 1,
      "note": 75,
      "start": 6.2697,
      "duration": 0.0207,
      "velocity": 99,
      "chip": "ym2612"
    },
    {
      "channel": 2,
      "note": 52,
      "start": 6.2702,
      "duration": 0.0564,
      "velocity": 100,
      "chip": "ym2612"
    },
    {
      "channel": 0,
      "note": 69,
      "start": 6.377,
      "duration": 0.0177,
      "velocity": 90,
      "chip": "ym2612"
    },
    {
      "channel": 1,
      "note": 63,
      "start": 6.3827,
      "duration": 0.0123,
      "velocity": 90,
      "chip": "ym2612"
    },
    {
      "channel": 2,
      "note": 54,
      "start": 6.3832,
      "duration": 0.0525,
      "velocity": 100,
      "chip": "ym2612"
    },
    {
      "channel": 3,
      "note": 83,
      "start": 6.3839,
      "duration": 0.0873,
      "velocity": 96,
      "chip": "ym2612"
    },
    {
      "channel": 4,
      "note": 88,
      "start": 6.3846,
      "duration": 0.0869,
      "velocity": 96,
      "chip": "ym2612"
    },
    {
      "channel": 0,
      "note": 69,
      "start": 6.4072,
      "duration": 0.0108,
      "velocity": 90,
      "chip": "ym2612"
    },
    {
      "channel": 1,
      "note": 63,
      "start": 6.4077,
      "duration": 0.0105,
      "velocity": 90,
      "chip": "ym2612"
    },
    {
      "channel": 0,
      "note": 69,
      "start": 6.4305,
      "duration": 0.0138,
      "velocity": 90,
      "chip": "ym2612"
    },
    {
      "channel": 1,
      "note": 63,
      "start": 6.431,
      "duration": 0.0136,
      "velocity": 90,
      "chip": "ym2612"
    },
    {
      "channel": 0,
      "note": 69,
      "start": 6.4565,
      "duration": 0.014,
      "velocity": 90,
      "chip": "ym2612"
    },
    {
      "channel": 1,
      "note": 63,
      "start": 6.457,
      "duration": 0.0137,
      "velocity": 90,
      "chip": "ym2612"
    },
    {
      "channel": 0,
      "note": 69,
      "start": 6.4819,
      "duration": 0.0142,
      "velocity": 90,
      "chip": "ym2612"
    },
    {
      "channel": 1,
      "note": 63,
      "start": 6.4841,
      "duration": 0.0122,
      "velocity": 90,
      "chip": "ym2612"
    },
    {
      "channel": 2,
      "note": 54,
      "start": 6.4846,
      "duration": 0.053,
      "velocity": 100,
      "chip": "ym2612"
    },
    {
      "channel": 3,
      "note": 78,
      "start": 6.4852,
      "duration": 0.0878,
      "velocity": 96,
      "chip": "ym2612"
    },
    {
      "channel": 4,
      "note": 84,
      "start": 6.4859,
      "duration": 0.0875,
      "velocity": 96,
      "chip": "ym2612"
    },
    {
      "channel": 0,
      "note": 69,
      "start": 6.5087,
      "duration": 0.0109,
      "velocity": 90,
      "chip": "ym2612"
    },
    {
      "channel": 1,
      "note": 63,
      "start": 6.5091,
      "duration": 0.0107,
      "velocity": 90,
      "chip": "ym2612"
    },
    {
      "channel": 0,
      "note": 69,
      "start": 6.5324,
      "duration": 0.0135,
      "velocity": 90,
      "chip": "ym2612"
    },
    {
      "channel": 1,
      "note": 63,
      "start": 6.5329,
      "duration": 0.0132,
      "velocity": 90,
      "chip": "ym2612"
    },
    {
      "channel": 0,
      "note": 69,
      "start": 6.5584,
      "duration": 0.0138,
      "velocity": 90,
      "chip": "ym2612"
    },
    {
      "channel": 1,
      "note": 63,
      "start": 6.5589,
      "duration": 0.0136,
      "velocity": 90,
      "chip": "ym2612"
    },
    {
      "channel": 0,
      "note": 71,
      "start": 6.5854,
      "duration": 0.0124,
      "velocity": 90,
      "chip": "ym2612"
    },
    {
      "channel": 1,
      "note": 64,
      "start": 6.5859,
      "duration": 0.0122,
      "velocity": 90,
      "chip": "ym2612"
    },
    {
      "channel": 2,
      "note": 55,
      "start": 6.5864,
      "duration": 0.0534,
      "velocity": 100,
      "chip": "ym2612"
    },
    {
      "channel": 3,
      "note": 75,
      "start": 6.587,
      "duration": 0.088,
      "velocity": 96,
      "chip": "ym2612"
    },
    {
      "channel": 4,
      "note": 83,
      "start": 6.5877,
      "duration": 0.0878,
      "velocity": 96,
      "chip": "ym2612"
    },
    {
      "channel": 0,
      "note": 71,
      "start": 6.6105,
      "duration": 0.0127,
      "velocity": 90,
      "chip": "ym2612"
    },
    {
      "channel": 1,
      "note": 64,
      "start": 6.6109,
      "duration": 0.0125,
      "velocity": 90,
      "chip": "ym2612"
    },
    {
      "channel": 0,
      "note": 71,
      "start": 6.6345,
      "duration": 0.0134,
      "velocity": 90,
      "chip": "ym2612"
    },
    {
      "channel": 1,
      "note": 64,
      "start": 6.6351,
      "duration": 0.0131,
      "velocity": 90,
      "chip": "ym2612"
    },
    {
      "channel": 0,
      "note": 71,
      "start": 6.6618,
      "duration": 0.0125,
      "velocity": 90,
      "chip": "ym2612"
    },
    {
      "channel": 1,
      "note": 64,
      "start": 6.6623,
      "duration": 0.0123,
      "velocity": 90,
      "chip": "ym2612"
    },
    {
      "channel": 0,
      "note": 71,
      "start": 6.6875,
      "duration": 0.014,
      "velocity": 90,
      "chip": "ym2612"
    },
    {
      "channel": 1,
      "note": 64,
      "start": 6.688,
      "duration": 0.0138,
      "velocity": 90,
      "chip": "ym2612"
    },
    {
      "channel": 2,
      "note": 55,
      "start": 6.6885,
      "duration": 0.0541,
      "velocity": 100,
      "chip": "ym2612"
    },
    {
      "channel": 3,
      "note": 76,
      "start": 6.6891,
      "duration": 0.0912,
      "velocity": 96,
      "chip": "ym2612"
    },
    {
      "channel": 4,
      "note": 79,
      "start": 6.6897,
      "duration": 0.0909,
      "velocity": 96,
      "chip": "ym2612"
    },
    {
      "channel": 0,
      "note": 71,
      "start": 6.7126,
      "duration": 0.0127,
      "velocity": 90,
      "chip": "ym2612"
    },
    {
      "channel": 1,
      "note": 64,
      "start": 6.7131,
      "duration": 0.0124,
      "velocity": 90,
      "chip": "ym2612"
    },
    {
      "channel": 0,
      "note": 71,
      "start": 6.739,
      "duration": 0.0127,
      "velocity": 90,
      "chip": "ym2612"
    },
    {
      "channel": 1,
      "note": 64,
      "start": 6.7395,
      "duration": 0.0124,
      "velocity": 90,
      "chip": "ym2612"
    },
    {
      "channel": 0,
      "note": 71,
      "start": 6.7656,
      "duration": 0.0139,
      "velocity": 90,
      "chip": "ym2612"
    },
    {
      "channel": 1,
      "note": 64,
      "start": 6.7661,
      "duration": 0.0137,
      "velocity": 90,
      "chip": "ym2612"
    },
    {
      "channel": 0,
      "note": 72,
      "start": 6.7911,
      "duration": 0.0144,
      "velocity": 90,
      "chip": "ym2612"
    },
    {
      "channel": 1,
      "note": 64,
      "start": 6.7916,
      "duration": 0.0141,
      "velocity": 90,
      "chip": "ym2612"
    },
    {
      "channel": 2,
      "note": 57,
      "start": 6.7921,
      "duration": 0.0562,
      "velocity": 100,
      "chip": "ym2612"
    },
    {
      "channel": 3,
      "note": 79,
      "start": 6.7927,
      "duration": 0.091,
      "velocity": 96,
      "chip": "ym2612"
    },
    {
      "channel": 4,
      "note": 83,
      "start": 6.7933,
      "duration": 0.0907,
      "velocity": 96,
      "chip": "ym2612"
    },
    {
      "channel": 0,
      "note": 72,
      "start": 6.8179,
      "duration": 0.011,
      "velocity": 90,
      "chip": "ym2612"
    },
    {
      "channel": 1,
      "note": 64,
      "start": 6.8184,
      "duration": 0.0107,
      "velocity": 90,
      "chip": "ym2612"
    },
    {
      "channel": 0,
      "note": 72,
      "start": 6.8431,
      "duration": 0.0121,
      "velocity": 90,
      "chip": "ym2612"
    },
    {
      "channel": 1,
      "note": 64,
      "start": 6.8436,
      "duration": 0.0119,
      "velocity": 90,
      "chip": "ym2612"
    },
    {
      "channel": 0,
      "note": 72,
      "start": 6.869,
      "duration": 0.0139,
      "velocity": 90,
      "chip": "ym2612"
    },
    {
      "channel": 1,
      "note": 64,
      "start": 6.8695,
      "duration": 0.0136,
      "velocity": 90,
      "chip": "ym2612"
    },
    {
      "channel": 0,
      "note": 69,
      "start": 6.8943,
      "duration": 0.014,
      "velocity": 90,
      "chip": "ym2612"
    },
    {
      "channel": 1,
      "note": 64,
      "start": 6.8948,
      "duration": 0.0137,
      "velocity": 90,
      "chip": "ym2612"
    },
    {
      "channel": 2,
      "note": 57,
      "start": 6.8953,
      "duration": 0.0549,
      "velocity": 100,
      "chip": "ym2612"
    },
    {
      "channel": 3,
      "note": 76,
      "start": 6.8976,
      "duration": 0.0878,
      "velocity": 96,
      "chip": "ym2612"
    },
    {
      "channel": 4,
      "note": 81,
      "start": 6.8983,
      "duration": 0.0874,
      "velocity": 96,
      "chip": "ym2612"
    },
    {
      "channel": 0,
      "note": 69,
      "start": 6.9209,
      "duration": 0.0111,
      "velocity": 90,
      "chip": "ym2612"
    },
    {
      "channel": 1,
      "note": 64,
      "start": 6.9214,
      "duration": 0.0109,
      "velocity": 90,
      "chip": "ym2612"
    },
    {
      "channel": 0,
      "note": 69,
      "start": 6.945,
      "duration": 0.0134,
      "velocity": 90,
      "chip": "ym2612"
    },
    {
      "channel": 1,
      "note": 64,
      "start": 6.9455,
      "duration": 0.0132,
      "velocity": 90,
      "chip": "ym2612"
    },
    {
      "channel": 0,
      "note": 69,
      "start": 6.971,
      "duration": 0.0137,
      "velocity": 90,
      "chip": "ym2612"
    },
    {
      "channel": 1,
      "note": 64,
      "start": 6.9715,
      "duration": 0.0134,
      "velocity": 90,
      "chip": "ym2612"
    },
    {
      "channel": 0,
      "note": 73,
      "start": 6.9979,
      "duration": 0.0126,
      "velocity": 90,
      "chip": "ym2612"
    },
    {
      "channel": 1,
      "note": 64,
      "start": 6.9984,
      "duration": 0.0123,
      "velocity": 90,
      "chip": "ym2612"
    },
    {
      "channel": 2,
      "note": 58,
      "start": 6.9988,
      "duration": 0.0539,
      "velocity": 100,
      "chip": "ym2612"
    },
    {
      "channel": 3,
      "note": 72,
      "start": 6.9995,
      "duration": 0.0873,
      "velocity": 96,
      "chip": "ym2612"
    },
    {
      "channel": 4,
      "note": 78,
      "start": 7.0001,
      "duration": 0.087,
      "velocity": 96,
      "chip": "ym2612"
    },
    {
      "channel": 0,
      "note": 73,
      "start": 7.0232,
      "duration": 0.0128,
      "velocity": 90,
      "chip": "ym2612"
    },
    {
      "channel": 1,
      "note": 64,
      "start": 7.0237,
      "duration": 0.0125,
      "velocity": 90,
      "chip": "ym2612"
    },
    {
      "channel": 0,
      "note": 73,
      "start": 7.0475,
      "duration": 0.0137,
      "velocity": 90,
      "chip": "ym2612"
    },
    {
      "channel": 1,
      "note": 64,
      "start": 7.048,
      "duration": 0.0134,
      "velocity": 90,
      "chip": "ym2612"
    },
    {
      "channel": 0,
      "note": 73,
      "start": 7.0741,
      "duration": 0.0118,
      "velocity": 90,
      "chip": "ym2612"
    },
    {
      "channel": 1,
      "note": 64,
      "start": 7.0746,
      "duration": 0.0116,
      "velocity": 90,
      "chip": "ym2612"
    },
    {
      "channel": 0,
      "note": 73,
      "start": 7.0991,
      "duration": 0.0141,
      "velocity": 90,
      "chip": "ym2612"
    },
    {
      "channel": 1,
      "note": 64,
      "start": 7.0996,
      "duration": 0.0139,
      "velocity": 90,
      "chip": "ym2612"
    },
    {
      "channel": 2,
      "note": 58,
      "start": 7.1001,
      "duration": 0.0538,
      "velocity": 100,
      "chip": "ym2612"
    },
    {
      "channel": 3,
      "note": 82,
      "start": 7.1007,
      "duration": 0.0901,
      "velocity": 96,
      "chip": "ym2612"
    },
    {
      "channel": 4,
      "note": 88,
      "start": 7.1013,
      "duration": 0.0899,
      "velocity": 96,
      "chip": "ym2612"
    },
    {
      "channel": 0,
      "note": 73,
      "start": 7.1242,
      "duration": 0.0127,
      "velocity": 90,
      "chip": "ym2612"
    },
    {
      "channel": 1,
      "note": 64,
      "start": 7.1247,
      "duration": 0.0125,
      "velocity": 90,
      "chip": "ym2612"
    },
    {
      "channel": 0,
      "note": 73,
      "start": 7.1503,
      "duration": 0.012,
      "velocity": 90,
      "chip": "ym2612"
    },
    {
      "channel": 1,
      "note": 64,
      "start": 7.1508,
      "duration": 0.0117,
      "velocity": 90,
      "chip": "ym2612"
    },
    {
      "channel": 0,
      "note": 73,
      "start": 7.1761,
      "duration": 0.0122,
      "velocity": 90,
      "chip": "ym2612"
    },
    {
      "channel": 1,
      "note": 64,
      "start": 7.1766,
      "duration": 0.012,
      "velocity": 90,
      "chip": "ym2612"
    },
    {
      "channel": 0,
      "note": 78,
      "start": 7.2016,
      "duration": 0.0143,
      "velocity": 90,
      "chip": "ym2612"
    },
    {
      "channel": 1,
      "note": 71,
      "start": 7.2021,
      "duration": 0.0141,
      "velocity": 90,
      "chip": "ym2612"
    },
    {
      "channel": 2,
      "note": 59,
      "start": 7.2026,
      "duration": 0.0543,
      "velocity": 100,
      "chip": "ym2612"
    },
    {
      "channel": 3,
      "note": 78,
      "start": 7.2032,
      "duration": 0.0135,
      "velocity": 96,
      "chip": "ym2612"
    },
    {
      "channel": 4,
      "note": 85,
      "start": 7.2038,
      "duration": 0.0133,
      "velocity": 96,
      "chip": "ym2612"
    },
    {
      "channel": 0,
      "note": 75,
      "start": 7.2775,
      "duration": 0.014,
      "velocity": 90,
      "chip": "ym2612"
    },
    {
      "channel": 1,
      "note": 69,
      "start": 7.278,
      "duration": 0.0138,
      "velocity": 90,
      "chip": "ym2612"
    },
    {
      "channel": 3,
      "note": 83,
      "start": 7.2788,
      "duration": 0.0135,
      "velocity": 96,
      "chip": "ym2612"
    },
    {
      "channel": 4,
      "note": 87,
      "start": 7.2795,
      "duration": 0.0132,
      "velocity": 96,
      "chip": "ym2612"
    },
    {
      "channel": 0,
      "note": 75,
      "start": 7.303,
      "duration": 0.3111,
      "velocity": 90,
      "chip": "ym2612"
    },
    {
      "channel": 1,
      "note": 69,
      "start": 7.3036,
      "duration": 0.3112,
      "velocity": 90,
      "chip": "ym2612"
    },
    {
      "channel": 2,
      "note": 59,
      "start": 7.3041,
      "duration": 0.0539,
      "velocity": 100,
      "chip": "ym2612"
    },
    {
      "channel": 3,
      "note": 83,
      "start": 7.3048,
      "duration": 0.3111,
      "velocity": 96,
      "chip": "ym2612"
    },
    {
      "channel": 4,
      "note": 90,
      "start": 7.3072,
      "duration": 0.3095,
      "velocity": 96,
      "chip": "ym2612"
    },
    {
      "channel": 2,
      "note": 59,
      "start": 7.407,
      "duration": 0.0544,
      "velocity": 100,
      "chip": "ym2612"
    },
    {
      "channel": 2,
      "note": 59,
      "start": 7.5101,
      "duration": 0.0558,
      "velocity": 100,
      "chip": "ym2612"
    },
    {
      "channel": 0,
      "note": 75,
      "start": 7.6141,
      "duration": 0.4233,
      "velocity": 90,
      "chip": "ym2612"
    },
    {
      "channel": 1,
      "note": 69,
      "start": 7.6148,
      "duration": 0.2048,
      "velocity": 90,
      "chip": "ym2612"
    },
    {
      "channel": 2,
      "note": 59,
      "start": 7.6152,
      "duration": 0.0559,
      "velocity": 100,
      "chip": "ym2612"
    },
    {
      "channel": 3,
      "note": 83,
      "start": 7.6159,
      "duration": 0.4224,
      "velocity": 96,
      "chip": "ym2612"
    },
    {
      "channel": 4,
      "note": 90,
      "start": 7.6167,
      "duration": 0.422,
      "velocity": 96,
      "chip": "ym2612"
    },
    {
      "channel": 2,
      "note": 59,
      "start": 7.7179,
      "duration": 0.0566,
      "velocity": 100,
      "chip": "ym2612"
    },
    {
      "channel": 1,
      "note": 59,
      "start": 7.8276,
      "duration": 0.0163,
      "velocity": 96,
      "chip": "ym2612"
    },
    {
      "channel": 2,
      "note": 59,
      "start": 7.828,
      "duration": 0.057,
      "velocity": 100,
      "chip": "ym2612"
    },
    {
      "channel": 1,
      "note": 59,
      "start": 7.844,
      "duration": 0.0174,
      "velocity": 96,
      "chip": "ym2612"
    },
    {
      "channel": 1,
      "note": 59,
      "start": 7.8634,
      "duration": 0.0161,
      "velocity": 96,
      "chip": "ym2612"
    },
    {
      "channel": 1,
      "note": 59,
      "start": 7.8798,
      "duration": 0.0184,
      "velocity": 96,
      "chip": "ym2612"
    },
    {
      "channel": 1,
      "note": 59,
      "start": 7.9,
      "duration": 0.0158,
      "velocity": 96,
      "chip": "ym2612"
    },
    {
      "channel": 1,
      "note": 59,
      "start": 7.9161,
      "duration": 0.0179,
      "velocity": 96,
      "chip": "ym2612"
    },
    {
      "channel": 1,
      "note": 59,
      "start": 7.9359,
      "duration": 0.0163,
      "velocity": 96,
      "chip": "ym2612"
    },
    {
      "channel": 2,
      "note": 59,
      "start": 7.9363,
      "duration": 0.0566,
      "velocity": 100,
      "chip": "ym2612"
    },
    {
      "channel": 1,
      "note": 59,
      "start": 7.9524,
      "duration": 0.0175,
      "velocity": 96,
      "chip": "ym2612"
    },
    {
      "channel": 1,
      "note": 59,
      "start": 7.9718,
      "duration": 0.0157,
      "velocity": 96,
      "chip": "ym2612"
    },
    {
      "channel": 1,
      "note": 59,
      "start": 7.9877,
      "duration": 0.0178,
      "velocity": 96,
      "chip": "ym2612"
    },
    {
      "channel": 1,
      "note": 59,
      "start": 8.0074,
      "duration": 0.0171,
      "velocity": 96,
      "chip": "ym2612"
    },
    {
      "channel": 1,
      "note": 59,
      "start": 8.0246,
      "duration": 0.0176,
      "velocity": 96,
      "chip": "ym2612"
    },
    {
      "channel": 0,
      "note": 79,
      "start": 8.0419,
      "duration": 0.0736,
      "velocity": 90,
      "chip": "ym2612"
    },
    {
      "channel": 1,
      "note": 71,
      "start": 8.0459,
      "duration": 0.0562,
      "velocity": 90,
      "chip": "ym2612"
    },
    {
      "channel": 2,
      "note": 52,
      "start": 8.0465,
      "duration": 0.1284,
      "velocity": 100,
      "chip": "ym2612"
    },
    {
      "channel": 3,
      "note": 83,
      "start": 8.0538,
      "duration": 0.0488,
      "velocity": 90,
      "chip": "ym2612"
    },
    {
      "channel": 4,
      "note": 90,
      "start": 8.0595,
      "duration": 0.0436,
      "velocity": 90,
      "chip": "ym2612"
    },
    {
      "channel": 0,
      "note": 78,
      "start": 8.3959,
      "duration": 0.0736,
      "velocity": 90,
      "chip": "ym2612"
    },
    {
      "channel": 1,
      "note": 70,
      "start": 8.3964,
      "duration": 0.0585,
      "velocity": 90,
      "chip": "ym2612"
    },
    {
      "channel": 2,
      "note": 51,
      "start": 8.3969,
      "duration": 0.1319,
      "velocity": 100,
      "chip": "ym2612"
    },
    {
      "channel": 3,
      "note": 79,
      "start": 8.3975,
      "duration": 0.0579,
      "velocity": 90,
      "chip": "ym2612"
    },
    {
      "channel": 4,
      "note": 83,
      "start": 8.3982,
      "duration": 0.0576,
      "velocity": 90,
      "chip": "ym2612"
    },
    {
      "channel": 1,
      "note": 64,
      "start": 8.7553,
      "duration": 0.0251,
      "velocity": 96,
      "chip": "ym2612"
    },
    {
      "channel": 3,
      "note": 78,
      "start": 8.7586,
      "duration": 0.018,
      "velocity": 90,
      "chip": "ym2612"
    },
    {
      "channel": 4,
      "note": 87,
      "start": 8.7618,
      "duration": 0.0152,
      "velocity": 90,
      "chip": "ym2612"
    },
    {
      "channel": 1,
      "note": 64,
      "start": 8.7847,
      "duration": 0.0214,
      "velocity": 96,
      "chip": "ym2612"
    },
    {
      "channel": 3,
      "note": 59,
      "start": 8.7855,
      "duration": 0.0168,
      "velocity": 90,
      "chip": "ym2612"
    },
    {
      "channel": 4,
      "note": 64,
      "start": 8.7862,
      "duration": 0.0165,
      "velocity": 90,
      "chip": "ym2612"
    },
    {
      "channel": 1,
      "note": 64,
      "start": 8.8105,
      "duration": 0.0223,
      "velocity": 96,
      "chip": "ym2612"
    },
    {
      "channel": 3,
      "note": 59,
      "start": 8.8113,
      "duration": 0.0177,
      "velocity": 90,
      "chip": "ym2612"
    },
    {
      "channel": 4,
      "note": 64,
      "start": 8.8119,
      "duration": 0.0173,
      "velocity": 90,
      "chip": "ym2612"
    },
    {
      "channel": 0,
      "note": 79,
      "start": 8.8609,
      "duration": 0.0736,
      "velocity": 90,
      "chip": "ym2612"
    },
    {
      "channel": 1,
      "note": 71,
      "start": 8.8649,
      "duration": 0.0551,
      "velocity": 90,
      "chip": "ym2612"
    },
    {
      "channel": 2,
      "note": 52,
      "start": 8.8654,
      "duration": 0.1286,
      "velocity": 100,
      "chip": "ym2612"
    },
    {
      "channel": 3,
      "note": 59,
      "start": 8.8685,
      "duration": 0.052,
      "velocity": 90,
      "chip": "ym2612"
    },
    {
      "channel": 4,
      "note": 64,
      "start": 8.8717,
      "duration": 0.0492,
      "velocity": 90,
      "chip": "ym2612"
    },
    {
      "channel": 0,
      "note": 78,
      "start": 9.2149,
      "duration": 0.0735,
      "velocity": 90,
      "chip": "ym2612"
    },
    {
      "channel": 1,
      "note": 70,
      "start": 9.2154,
      "duration": 0.0602,
      "velocity": 90,
      "chip": "ym2612"
    },
    {
      "channel": 2,
      "note": 51,
      "start": 9.2159,
      "duration": 0.132,
      "velocity": 100,
      "chip": "ym2612"
    },
    {
      "channel": 3,
      "note": 79,
      "start": 9.2165,
      "duration": 0.0596,
      "velocity": 90,
      "chip": "ym2612"
    },
    {
      "channel": 4,
      "note": 83,
      "start": 9.2172,
      "duration": 0.0593,
      "velocity": 90,
      "chip": "ym2612"
    },
    {
      "channel": 1,
      "note": 64,
      "start": 9.5725,
      "duration": 0.0269,
      "velocity": 96,
      "chip": "ym2612"
    },
    {
      "channel": 3,
      "note": 78,
      "start": 9.5776,
      "duration": 0.018,
      "velocity": 90,
      "chip": "ym2612"
    },
    {
      "channel": 4,
      "note": 87,
      "start": 9.5807,
      "duration": 0.0152,
      "velocity": 90,
      "chip": "ym2612"
    },
    {
      "channel": 1,
      "note": 64,
      "start": 9.6038,
      "duration": 0.0202,
      "velocity": 96,
      "chip": "ym2612"
    },
    {
      "channel": 3,
      "note": 59,
      "start": 9.6046,
      "duration": 0.0157,
      "velocity": 90,
      "chip": "ym2612"
    },
    {
      "channel": 4,
      "note": 64,
      "start": 9.6053,
      "duration": 0.0154,
      "velocity": 90,
      "chip": "ym2612"
    },
    {
      "channel": 1,
      "note": 64,
      "start": 9.6285,
      "duration": 0.0205,
      "velocity": 96,
      "chip": "ym2612"
    },
    {
      "channel": 3,
      "note": 59,
      "start": 9.6293,
      "duration": 0.0159,
      "velocity": 90,
      "chip": "ym2612"
    },
    {
      "channel": 4,
      "note": 64,
      "start": 9.6299,
      "duration": 0.0157,
      "velocity": 90,
      "chip": "ym2612"
    },
    {
      "channel": 0,
      "note": 79,
      "start": 9.6771,
      "duration": 0.162,
      "velocity": 90,
      "chip": "ym2612"
    },
    {
      "channel": 1,
      "note": 71,
      "start": 9.6827,
      "duration": 0.0533,
      "velocity": 90,
      "chip": "ym2612"
    },
    {
      "channel": 2,
      "note": 52,
      "start": 9.6833,
      "duration": 0.1268,
      "velocity": 100,
      "chip": "ym2612"
    },
    {
      "channel": 3,
      "note": 59,
      "start": 9.6864,
      "duration": 0.0502,
      "velocity": 90,
      "chip": "ym2612"
    },
    {
      "channel": 4,
      "note": 64,
      "start": 9.6896,
      "duration": 0.0474,
      "velocity": 90,
      "chip": "ym2612"
    },
    {
      "channel": 0,
      "note": 78,
      "start": 9.854,
      "duration": 0.162,
      "velocity": 90,
      "chip": "ym2612"
    },
    {
      "channel": 1,
      "note": 70,
      "start": 9.8545,
      "duration": 0.0592,
      "velocity": 90,
      "chip": "ym2612"
    },
    {
      "channel": 2,
      "note": 51,
      "start": 9.855,
      "duration": 0.132,
      "velocity": 100,
      "chip": "ym2612"
    },
    {
      "channel": 3,
      "note": 79,
      "start": 9.8556,
      "duration": 0.0586,
      "velocity": 90,
      "chip": "ym2612"
    },
    {
      "channel": 4,
      "note": 83,
      "start": 9.8562,
      "duration": 0.0584,
      "velocity": 90,
      "chip": "ym2612"
    },
    {
      "channel": 0,
      "note": 79,
      "start": 10.031,
      "duration": 0.0735,
      "velocity": 90,
      "chip": "ym2612"
    },
    {
      "channel": 1,
      "note": 71,
      "start": 10.0315,
      "duration": 0.0585,
      "velocity": 90,
      "chip": "ym2612"
    },
    {
      "channel": 2,
      "note": 52,
      "start": 10.032,
      "duration": 0.132,
      "velocity": 100,
      "chip": "ym2612"
    },
    {
      "channel": 3,
      "note": 78,
      "start": 10.0326,
      "duration": 0.0579,
      "velocity": 90,
      "chip": "ym2612"
    },
    {
      "channel": 4,
      "note": 87,
      "start": 10.0333,
      "duration": 0.0576,
      "velocity": 90,
      "chip": "ym2612"
    },
    {
      "channel": 0,
      "note": 78,
      "start": 10.3849,
      "duration": 0.0735,
      "velocity": 90,
      "chip": "ym2612"
    },
    {
      "channel": 1,
      "note": 70,
      "start": 10.3854,
      "duration": 0.0585,
      "velocity": 90,
      "chip": "ym2612"
    },
    {
      "channel": 2,
      "note": 51,
      "start": 10.3859,
      "duration": 0.132,
      "velocity": 100,
      "chip": "ym2612"
    },
    {
      "channel": 3,
      "note": 79,
      "start": 10.3865,
      "duration": 0.058,
      "velocity": 90,
      "chip": "ym2612"
    },
    {
      "channel": 4,
      "note": 83,
      "start": 10.3871,
      "duration": 0.0577,
      "velocity": 90,
      "chip": "ym2612"
    },
    {
      "channel": 1,
      "note": 64,
      "start": 10.7426,
      "duration": 0.0268,
      "velocity": 96,
      "chip": "ym2612"
    },
    {
      "channel": 3,
      "note": 78,
      "start": 10.7476,
      "duration": 0.018,
      "velocity": 90,
      "chip": "ym2612"
    },
    {
      "channel": 4,
      "note": 87,
      "start": 10.7507,
      "duration": 0.0152,
      "velocity": 90,
      "chip": "ym2612"
    },
    {
      "channel": 1,
      "note": 64,
      "start": 10.7722,
      "duration": 0.0233,
      "velocity": 96,
      "chip": "ym2612"
    },
    {
      "channel": 3,
      "note": 59,
      "start": 10.7748,
      "duration": 0.0169,
      "velocity": 90,
      "chip": "ym2612"
    },
    {
      "channel": 4,
      "note": 64,
      "start": 10.7754,
      "duration": 0.0166,
      "velocity": 90,
      "chip": "ym2612"
    },
    {
      "channel": 1,
      "note": 64,
      "start": 10.7999,
      "duration": 0.0205,
      "velocity": 96,
      "chip": "ym2612"
    },
    {
      "channel": 3,
      "note": 59,
      "start": 10.8007,
      "duration": 0.0159,
      "velocity": 90,
      "chip": "ym2612"
    },
    {
      "channel": 4,
      "note": 64,
      "start": 10.8014,
      "duration": 0.0157,
      "velocity": 90,
      "chip": "ym2612"
    },
    {
      "channel": 0,
      "note": 79,
      "start": 10.8487,
      "duration": 0.0736,
      "velocity": 90,
      "chip": "ym2612"
    },
    {
      "channel": 1,
      "note": 71,
      "start": 10.8544,
      "duration": 0.0534,
      "velocity": 90,
      "chip": "ym2612"
    },
    {
      "channel": 2,
      "note": 52,
      "start": 10.8549,
      "duration": 0.1268,
      "velocity": 100,
      "chip": "ym2612"
    },
    {
      "channel": 3,
      "note": 59,
      "start": 10.858,
      "duration": 0.0502,
      "velocity": 90,
      "chip": "ym2612"
    },
    {
      "channel": 4,
      "note": 64,
      "start": 10.8612,
      "duration": 0.0475,
      "velocity": 90,
      "chip": "ym2612"
    },
    {
      "channel": 0,
      "note": 78,
      "start": 11.2031,
      "duration": 0.0732,
      "velocity": 90,
      "chip": "ym2612"
    },
    {
      "channel": 1,
      "note": 70,
      "start": 11.2035,
      "duration": 0.0581,
      "velocity": 90,
      "chip": "ym2612"
    },
    {
      "channel": 2,
      "note": 51,
      "start": 11.204,
      "duration": 0.1326,
      "velocity": 100,
      "chip": "ym2612"
    },
    {
      "channel": 3,
      "note": 79,
      "start": 11.2046,
      "duration": 0.0575,
      "velocity": 90,
      "chip": "ym2612"
    },
    {
      "channel": 4,
      "note": 83,
      "start": 11.2053,
      "duration": 0.0573,
      "velocity": 90,
      "chip": "ym2612"
    },
    {
      "channel": 1,
      "note": 64,
      "start": 11.5603,
      "duration": 0.0254,
      "velocity": 96,
      "chip": "ym2612"
    },
    {
      "channel": 3,
      "note": 78,
      "start": 11.5637,
      "duration": 0.0182,
      "velocity": 90,
      "chip": "ym2612"
    },
    {
      "channel": 4,
      "note": 87,
      "start": 11.5669,
      "duration": 0.0154,
      "velocity": 90,
      "chip": "ym2612"
    },
    {
      "channel": 1,
      "note": 64,
      "start": 11.59,
      "duration": 0.0234,
      "velocity": 96,
      "chip": "ym2612"
    },
    {
      "channel": 3,
      "note": 59,
      "start": 11.5908,
      "duration": 0.0187,
      "velocity": 90,
      "chip": "ym2612"
    },
    {
      "channel": 4,
      "note": 64,
      "start": 11.5914,
      "duration": 0.0184,
      "velocity": 90,
      "chip": "ym2612"
    },
    {
      "channel": 1,
      "note": 64,
      "start": 11.616,
      "duration": 0.0219,
      "velocity": 96,
      "chip": "ym2612"
    },
    {
      "channel": 3,
      "note": 59,
      "start": 11.6185,
      "duration": 0.0156,
      "velocity": 90,
      "chip": "ym2612"
    },
    {
      "channel": 4,
      "note": 64,
      "start": 11.6193,
      "duration": 0.0153,
      "velocity": 90,
      "chip": "ym2612"
    },
    {
      "channel": 0,
      "note": 79,
      "start": 11.6658,
      "duration": 0.162,
      "velocity": 90,
      "chip": "ym2612"
    },
    {
      "channel": 1,
      "note": 71,
      "start": 11.6697,
      "duration": 0.1436,
      "velocity": 90,
      "chip": "ym2612"
    },
    {
      "channel": 2,
      "note": 52,
      "start": 11.6702,
      "duration": 0.1285,
      "velocity": 100,
      "chip": "ym2612"
    },
    {
      "channel": 3,
      "note": 59,
      "start": 11.6752,
      "duration": 0.0665,
      "velocity": 90,
      "chip": "ym2612"
    },
    {
      "channel": 4,
      "note": 64,
      "start": 11.6784,
      "duration": 0.0474,
      "velocity": 90,
      "chip": "ym2612"
    },
    {
      "channel": 4,
      "note": 80,
      "start": 11.7261,
      "duration": 0.0585,
      "velocity": 90,
      "chip": "ym2612"
    },
    {
      "channel": 3,
      "note": 75,
      "start": 11.742,
      "duration": 0.0717,
      "velocity": 90,
      "chip": "ym2612"
    },
    {
      "channel": 4,
      "note": 82,
      "start": 11.7849,
      "duration": 0.0595,
      "velocity": 90,
      "chip": "ym2612"
    },
    {
      "channel": 3,
      "note": 77,
      "start": 11.8141,
      "duration": 0.0586,
      "velocity": 90,
      "chip": "ym2612"
    },
    {
      "channel": 0,
      "note": 78,
      "start": 11.8427,
      "duration": 0.162,
      "velocity": 90,
      "chip": "ym2612"
    },
    {
      "channel": 1,
      "note": 70,
      "start": 11.8432,
      "duration": 0.1484,
      "velocity": 90,
      "chip": "ym2612"
    },
    {
      "channel": 2,
      "note": 51,
      "start": 11.8437,
      "duration": 0.132,
      "velocity": 100,
      "chip": "ym2612"
    },
    {
      "channel": 4,
      "note": 83,
      "start": 11.8447,
      "duration": 0.0578,
      "velocity": 90,
      "chip": "ym2612"
    },
    {
      "channel": 3,
      "note": 79,
      "start": 11.8747,
      "duration": 0.057,
      "velocity": 90,
      "chip": "ym2612"
    },
    {
      "channel": 4,
      "note": 85,
      "start": 11.9028,
      "duration": 0.0587,
      "velocity": 90,
      "chip": "ym2612"
    },
    {
      "channel": 3,
      "note": 80,
      "start": 11.932,
      "duration": 0.0601,
      "velocity": 90,
      "chip": "ym2612"
    },
    {
      "channel": 4,
      "note": 87,
      "start": 11.9618,
      "duration": 0.0595,
      "velocity": 90,
      "chip": "ym2612"
    },
    {
      "channel": 3,
      "note": 82,
      "start": 11.9925,
      "duration": 0.0573,
      "velocity": 90,
      "chip": "ym2612"
    },
    {
      "channel": 0,
      "note": 79,
      "start": 12.0197,
      "duration": 0.162,
      "velocity": 90,
      "chip": "ym2612"
    },
    {
      "channel": 1,
      "note": 71,
      "start": 12.0202,
      "duration": 0.147,
      "velocity": 90,
      "chip": "ym2612"
    },
    {
      "channel": 2,
      "note": 52,
      "start": 12.0207,
      "duration": 0.132,
      "velocity": 100,
      "chip": "ym2612"
    },
    {
      "channel": 4,
      "note": 89,
      "start": 12.0216,
      "duration": 0.0578,
      "velocity": 90,
      "chip": "ym2612"
    },
    {
      "channel": 3,
      "note": 83,
      "start": 12.05,
      "duration": 0.0752,
      "velocity": 90,
      "chip": "ym2612"
    },
    {
      "channel": 4,
      "note": 91,
      "start": 12.0798,
      "duration": 0.0587,
      "velocity": 90,
      "chip": "ym2612"
    },
    {
      "channel": 3,
      "note": 79,
      "start": 12.1255,
      "duration": 0.0725,
      "velocity": 90,
      "chip": "ym2612"
    },
    {
      "channel": 4,
      "note": 87,
      "start": 12.1387,
      "duration": 0.06,
      "velocity": 90,
      "chip": "ym2612"
    },
    {
      "channel": 0,
      "note": 81,
      "start": 12.1967,
      "duration": 0.162,
      "velocity": 90,
      "chip": "ym2612"
    },
    {
      "channel": 1,
      "note": 73,
      "start": 12.1972,
      "duration": 0.1469,
      "velocity": 90,
      "chip": "ym2612"
    },
    {
      "channel": 2,
      "note": 54,
      "start": 12.1976,
      "duration": 0.132,
      "velocity": 100,
      "chip": "ym2612"
    },
    {
      "channel": 3,
      "note": 80,
      "start": 12.1983,
      "duration": 0.0594,
      "velocity": 90,
      "chip": "ym2612"
    },
    {
      "channel": 4,
      "note": 89,
      "start": 12.199,
      "duration": 0.0595,
      "velocity": 90,
      "chip": "ym2612"
    },
    {
      "channel": 3,
      "note": 82,
      "start": 12.2582,
      "duration": 0.057,
      "velocity": 90,
      "chip": "ym2612"
    },
    {
      "channel": 4,
      "note": 91,
      "start": 12.2589,
      "duration": 0.057,
      "velocity": 90,
      "chip": "ym2612"
    },
    {
      "channel": 3,
      "note": 83,
      "start": 12.3154,
      "duration": 0.0628,
      "velocity": 90,
      "chip": "ym2612"
    },
    {
      "channel": 4,
      "note": 92,
      "start": 12.3162,
      "duration": 0.0652,
      "velocity": 90,
      "chip": "ym2612"
    },
    {
      "channel": 0,
      "note": 83,
      "start": 12.375,
      "duration": 0.4244,
      "velocity": 90,
      "chip": "ym2612"
    },
    {
      "channel": 1,
      "note": 75,
      "start": 12.3756,
      "duration": 0.4262,
      "velocity": 90,
      "chip": "ym2612"
    },
    {
      "channel": 2,
      "note": 56,
      "start": 12.3778,
      "duration": 0.0608,
      "velocity": 100,
      "chip": "ym2612"
    },
    {
      "channel": 3,
      "note": 85,
      "start": 12.381,
      "duration": 0.0145,
      "velocity": 90,
      "chip": "ym2612"
    },
    {
      "channel": 4,
      "note": 94,
      "start": 12.3842,
      "duration": 0.0116,
      "velocity": 90,
      "chip": "ym2612"
    },
    {
      "channel": 3,
      "note": 87,
      "start": 12.4087,
      "duration": 0.013,
      "velocity": 90,
      "chip": "ym2612"
    },
    {
      "channel": 4,
      "note": 95,
      "start": 12.4093,
      "duration": 0.0128,
      "velocity": 90,
      "chip": "ym2612"
    },
    {
      "channel": 3,
      "note": 87,
      "start": 12.4328,
      "duration": 0.0146,
      "velocity": 90,
      "chip": "ym2612"
    },
    {
      "channel": 4,
      "note": 95,
      "start": 12.4335,
      "duration": 0.0142,
      "velocity": 90,
      "chip": "ym2612"
    },
    {
      "channel": 3,
      "note": 85,
      "start": 12.4615,
      "duration": 0.012,
      "velocity": 90,
      "chip": "ym2612"
    },
    {
      "channel": 4,
      "note": 94,
      "start": 12.4621,
      "duration": 0.0118,
      "velocity": 90,
      "chip": "ym2612"
    },
    {
      "channel": 2,
      "note": 56,
      "start": 12.4865,
      "duration": 0.0573,
      "velocity": 100,
      "chip": "ym2612"
    },
    {
      "channel": 3,
      "note": 85,
      "start": 12.4872,
      "duration": 0.012,
      "velocity": 90,
      "chip": "ym2612"
    },
    {
      "channel": 4,
      "note": 94,
      "start": 12.4878,
      "duration": 0.0117,
      "velocity": 90,
      "chip": "ym2612"
    },
    {
      "channel": 3,
      "note": 87,
      "start": 12.5124,
      "duration": 0.0135,
      "velocity": 90,
      "chip": "ym2612"
    },
    {
      "channel": 4,
      "note": 95,
      "start": 12.5131,
      "duration": 0.0132,
      "velocity": 90,
      "chip": "ym2612"
    },
    {
      "channel": 3,
      "note": 87,
      "start": 12.538,
      "duration": 0.0144,
      "velocity": 90,
      "chip": "ym2612"
    },
    {
      "channel": 4,
      "note": 95,
      "start": 12.5387,
      "duration": 0.014,
      "velocity": 90,
      "chip": "ym2612"
    },
    {
      "channel": 3,
      "note": 85,
      "start": 12.5664,
      "duration": 0.0122,
      "velocity": 90,
      "chip": "ym2612"
    },
    {
      "channel": 4,
      "note": 94,
      "start": 12.5671,
      "duration": 0.012,
      "velocity": 90,
      "chip": "ym2612"
    },
    {
      "channel": 2,
      "note": 56,
      "start": 12.5918,
      "duration": 0.0577,
      "velocity": 100,
      "chip": "ym2612"
    },
    {
      "channel": 3,
      "note": 85,
      "start": 12.5924,
      "duration": 0.0137,
      "velocity": 90,
      "chip": "ym2612"
    },
    {
      "channel": 4,
      "note": 94,
      "start": 12.5931,
      "duration": 0.0133,
      "velocity": 90,
      "chip": "ym2612"
    },
    {
      "channel": 3,
      "note": 87,
      "start": 12.6176,
      "duration": 0.0133,
      "velocity": 90,
      "chip": "ym2612"
    },
    {
      "channel": 4,
      "note": 95,
      "start": 12.6183,
      "duration": 0.013,
      "velocity": 90,
      "chip": "ym2612"
    },
    {
      "channel": 3,
      "note": 87,
      "start": 12.6444,
      "duration": 0.0122,
      "velocity": 90,
      "chip": "ym2612"
    },
    {
      "channel": 4,
      "note": 95,
      "start": 12.645,
      "duration": 0.0119,
      "velocity": 90,
      "chip": "ym2612"
    },
    {
      "channel": 3,
      "note": 85,
      "start": 12.6704,
      "duration": 0.0143,
      "velocity": 90,
      "chip": "ym2612"
    },
    {
      "channel": 4,
      "note": 94,
      "start": 12.671,
      "duration": 0.014,
      "velocity": 90,
      "chip": "ym2612"
    },
    {
      "channel": 2,
      "note": 56,
      "start": 12.6961,
      "duration": 0.0574,
      "velocity": 100,
      "chip": "ym2612"
    },
    {
      "channel": 3,
      "note": 85,
      "start": 12.6966,
      "duration": 0.0136,
      "velocity": 90,
      "chip": "ym2612"
    },
    {
      "channel": 4,
      "note": 94,
      "start": 12.6973,
      "duration": 0.0132,
      "velocity": 90,
      "chip": "ym2612"
    },
    {
      "channel": 3,
      "note": 83,
      "start": 12.7236,
      "duration": 0.0116,
      "velocity": 90,
      "chip": "ym2612"
    },
    {
      "channel": 4,
      "note": 92,
      "start": 12.7242,
      "duration": 0.0113,
      "velocity": 90,
      "chip": "ym2612"
    },
    {
      "channel": 3,
      "note": 83,
      "start": 12.7484,
      "duration": 0.014,
      "velocity": 90,
      "chip": "ym2612"
    },
    {
      "channel": 4,
      "note": 92,
      "start": 12.749,
      "duration": 0.0137,
      "velocity": 90,
      "chip": "ym2612"
    },
    {
      "channel": 3,
      "note": 85,
      "start": 12.7746,
      "duration": 0.0138,
      "velocity": 90,
      "chip": "ym2612"
    },
    {
      "channel": 4,
      "note": 94,
      "start": 12.7753,
      "duration": 0.0136,
      "velocity": 90,
      "chip": "ym2612"
    },
    {
      "channel": 0,
      "note": 83,
      "start": 12.7995,
      "duration": 0.3122,
      "velocity": 90,
      "chip": "ym2612"
    },
    {
      "channel": 1,
      "note": 75,
      "start": 12.8018,
      "duration": 0.3101,
      "velocity": 90,
      "chip": "ym2612"
    },
    {
      "channel": 2,
      "note": 56,
      "start": 12.8023,
      "duration": 0.0558,
      "velocity": 100,
      "chip": "ym2612"
    },
    {
      "channel": 3,
      "note": 85,
      "start": 12.8029,
      "duration": 0.0118,
      "velocity": 90,
      "chip": "ym2612"
    },
    {
      "channel": 4,
      "note": 94,
      "start": 12.8035,
      "duration": 0.0116,
      "velocity": 90,
      "chip": "ym2612"
    },
    {
      "channel": 3,
      "note": 87,
      "start": 12.8278,
      "duration": 0.0114,
      "velocity": 90,
      "chip": "ym2612"
    },
    {
      "channel": 4,
      "note": 95,
      "start": 12.8285,
      "duration": 0.0128,
      "velocity": 90,
      "chip": "ym2612"
    },
    {
      "channel": 3,
      "note": 87,
      "start": 12.8524,
      "duration": 0.0144,
      "velocity": 90,
      "chip": "ym2612"
    },
    {
      "channel": 4,
      "note": 95,
      "start": 12.853,
      "duration": 0.0141,
      "velocity": 90,
      "chip": "ym2612"
    },
    {
      "channel": 3,
      "note": 85,
      "start": 12.8795,
      "duration": 0.0137,
      "velocity": 90,
      "chip": "ym2612"
    },
    {
      "channel": 4,
      "note": 94,
      "start": 12.8818,
      "duration": 0.0118,
      "velocity": 90,
      "chip": "ym2612"
    },
    {
      "channel": 2,
      "note": 56,
      "start": 12.9063,
      "duration": 0.0569,
      "velocity": 100,
      "chip": "ym2612"
    },
    {
      "channel": 3,
      "note": 85,
      "start": 12.9068,
      "duration": 0.012,
      "velocity": 90,
      "chip": "ym2612"
    },
    {
      "channel": 4,
      "note": 94,
      "start": 12.9075,
      "duration": 0.0116,
      "velocity": 90,
      "chip": "ym2612"
    },
    {
      "channel": 3,
      "note": 87,
      "start": 12.932,
      "duration": 0.0134,
      "velocity": 90,
      "chip": "ym2612"
    },
    {
      "channel": 4,
      "note": 95,
      "start": 12.9326,
      "duration": 0.0131,
      "velocity": 90,
      "chip": "ym2612"
    },
    {
      "channel": 3,
      "note": 87,
      "start": 12.9574,
      "duration": 0.0146,
      "velocity": 90,
      "chip": "ym2612"
    },
    {
      "channel": 4,
      "note": 95,
      "start": 12.958,
      "duration": 0.0143,
      "velocity": 90,
      "chip": "ym2612"
    },
    {
      "channel": 3,
      "note": 88,
      "start": 12.9858,
      "duration": 0.0124,
      "velocity": 90,
      "chip": "ym2612"
    },
    {
      "channel": 4,
      "note": 97,
      "start": 12.9864,
      "duration": 0.0121,
      "velocity": 90,
      "chip": "ym2612"
    },
    {
      "channel": 2,
      "note": 56,
      "start": 13.0113,
      "duration": 0.0566,
      "velocity": 100,
      "chip": "ym2612"
    },
    {
      "channel": 3,
      "note": 88,
      "start": 13.0119,
      "duration": 0.0138,
      "velocity": 90,
      "chip": "ym2612"
    },
    {
      "channel": 4,
      "note": 97,
      "start": 13.0126,
      "duration": 0.0135,
      "velocity": 90,
      "chip": "ym2612"
    },
    {
      "channel": 3,
      "note": 87,
      "start": 13.0373,
      "duration": 0.0133,
      "velocity": 90,
      "chip": "ym2612"
    },
    {
      "channel": 4,
      "note": 95,
      "start": 13.038,
      "duration": 0.0129,
      "velocity": 90,
      "chip": "ym2612"
    },
    {
      "channel": 3,
      "note": 87,
      "start": 13.0646,
      "duration": 0.0127,
      "velocity": 90,
      "chip": "ym2612"
    },
    {
      "channel": 4,
      "note": 95,
      "start": 13.0652,
      "duration": 0.0124,
      "velocity": 90,
      "chip": "ym2612"
    },
    {
      "channel": 3,
      "note": 85,
      "start": 13.091,
      "duration": 0.0139,
      "velocity": 90,
      "chip": "ym2612"
    },
    {
      "channel": 4,
      "note": 94,
      "start": 13.0917,
      "duration": 0.0135,
      "velocity": 90,
      "chip": "ym2612"
    },
    {
      "channel": 2,
      "note": 56,
      "start": 13.1167,
      "duration": 0.0571,
      "velocity": 100,
      "chip": "ym2612"
    },
    {
      "channel": 3,
      "note": 85,
      "start": 13.1173,
      "duration": 0.0134,
      "velocity": 90,
      "chip": "ym2612"
    },
    {
      "channel": 4,
      "note": 94,
      "start": 13.1179,
      "duration": 0.0132,
      "velocity": 90,
      "chip": "ym2612"
    },
    {
      "channel": 3,
      "note": 83,
      "start": 13.1437,
      "duration": 0.0113,
      "velocity": 90,
      "chip": "ym2612"
    },
    {
      "channel": 4,
      "note": 92,
      "start": 13.1443,
      "duration": 0.011,
      "velocity": 90,
      "chip": "ym2612"
    },
    {
      "channel": 3,
      "note": 83,
      "start": 13.1688,
      "duration": 0.0137,
      "velocity": 90,
      "chip": "ym2612"
    },
    {
      "channel": 4,
      "note": 92,
      "start": 13.1694,
      "duration": 0.0135,
      "velocity": 90,
      "chip": "ym2612"
    },
    {
      "channel": 3,
      "note": 82,
      "start": 13.1947,
      "duration": 0.0136,
      "velocity": 90,
      "chip": "ym2612"
    },
    {
      "channel": 4,
      "note": 91,
      "start": 13.1953,
      "duration": 0.0133,
      "velocity": 90,
      "chip": "ym2612"
    },
    {
      "channel": 0,
      "note": 64,
      "start": 13.2242,
      "duration": 0.1158,
      "velocity": 96,
      "chip": "ym2612"
    },
    {
      "channel": 2,
      "note": 52,
      "start": 13.225,
      "duration": 0.0618,
      "velocity": 100,
      "chip": "ym2612"
    },
    {
      "channel": 3,
      "note": 82,
      "start": 13.2306,
      "duration": 0.1102,
      "velocity": 96,
      "chip": "ym2612"
    },
    {
      "channel": 4,
      "note": 91,
      "start": 13.2363,
      "duration": 0.1049,
      "velocity": 96,
      "chip": "ym2612"
    },
    {
      "channel": 2,
      "note": 52,
      "start": 13.3354,
      "duration": 0.0541,
      "velocity": 100,
      "chip": "ym2612"
    },
    {
      "channel": 0,
      "note": 59,
      "start": 13.4112,
      "duration": 0.0036,
      "velocity": 96,
      "chip": "ym2612"
    },
    {
      "channel": 3,
      "note": 71,
      "start": 13.4122,
      "duration": 0.0051,
      "velocity": 96,
      "chip": "ym2612"
    },
    {
      "channel": 4,
      "note": 80,
      "start": 13.4129,
      "duration": 0.0047,
      "velocity": 96,
      "chip": "ym2612"
    },
    {
      "channel": 0,
      "note": 59,
      "start": 13.4372,
      "duration": 0.2361,
      "velocity": 96,
      "chip": "ym2612"
    },
    {
      "channel": 2,
      "note": 52,
      "start": 13.438,
      "duration": 0.0533,
      "velocity": 100,
      "chip": "ym2612"
    },
    {
      "channel": 3,
      "note": 68,
      "start": 13.4385,
      "duration": 0.2863,
      "velocity": 96,
      "chip": "ym2612"
    },
    {
      "channel": 4,
      "note": 76,
      "start": 13.4392,
      "duration": 0.286,
      "velocity": 96,
      "chip": "ym2612"
    },
    {
      "channel": 2,
      "note": 52,
      "start": 13.5382,
      "duration": 0.0552,
      "velocity": 100,
      "chip": "ym2612"
    },
    {
      "channel": 1,
      "note": 64,
      "start": 13.6178,
      "duration": 0.0207,
      "velocity": 100,
      "chip": "ym2612"
    },
    {
      "channel": 1,
      "note": 64,
      "start": 13.643,
      "duration": 0.1044,
      "velocity": 100,
      "chip": "ym2612"
    },
    {
      "channel": 2,
      "note": 52,
      "start": 13.6435,
      "duration": 0.0548,
      "velocity": 100,
      "chip": "ym2612"
    },
    {
      "channel": 0,
      "note": 56,
      "start": 13.7468,
      "duration": 0.08,
      "velocity": 96,
      "chip": "ym2612"
    },
    {
      "channel": 1,
      "note": 64,
      "start": 13.7474,
      "duration": 0.3018,
      "velocity": 100,
      "chip": "ym2612"
    },
    {
      "channel": 2,
      "note": 52,
      "start": 13.7479,
      "duration": 0.0536,
      "velocity": 100,
      "chip": "ym2612"
    },
    {
      "channel": 3,
      "note": 68,
      "start": 13.7485,
      "duration": 0.0791,
      "velocity": 96,
      "chip": "ym2612"
    },
    {
      "channel": 4,
      "note": 76,
      "start": 13.7492,
      "duration": 0.0788,
      "velocity": 96,
      "chip": "ym2612"
    },
    {
      "channel": 0,
      "note": 59,
      "start": 13.8497,
      "duration": 0.081,
      "velocity": 96,
      "chip": "ym2612"
    },
    {
      "channel": 2,
      "note": 52,
      "start": 13.8504,
      "duration": 0.0534,
      "velocity": 100,
      "chip": "ym2612"
    },
    {
      "channel": 3,
      "note": 64,
      "start": 13.851,
      "duration": 0.0805,
      "velocity": 96,
      "chip": "ym2612"
    },
    {
      "channel": 4,
      "note": 71,
      "start": 13.8516,
      "duration": 0.0801,
      "velocity": 96,
      "chip": "ym2612"
    },
    {
      "channel": 0,
      "note": 64,
      "start": 13.9517,
      "duration": 0.0807,
      "velocity": 96,
      "chip": "ym2612"
    },
    {
      "channel": 2,
      "note": 52,
      "start": 13.9524,
      "duration": 0.0545,
      "velocity": 100,
      "chip": "ym2612"
    },
    {
      "channel": 3,
      "note": 68,
      "start": 13.953,
      "duration": 0.0802,
      "velocity": 96,
      "chip": "ym2612"
    },
    {
      "channel": 4,
      "note": 76,
      "start": 13.9537,
      "duration": 0.0798,
      "velocity": 96,
      "chip": "ym2612"
    },
    {
      "channel": 0,
      "note": 66,
      "start": 14.0534,
      "duration": 0.1055,
      "velocity": 96,
      "chip": "ym2612"
    },
    {
      "channel": 2,
      "note": 52,
      "start": 14.0542,
      "duration": 0.0545,
      "velocity": 100,
      "chip": "ym2612"
    },
    {
      "channel": 3,
      "note": 71,
      "start": 14.0548,
      "duration": 0.1049,
      "velocity": 96,
      "chip": "ym2612"
    },
    {
      "channel": 4,
      "note": 80,
      "start": 14.0554,
      "duration": 0.1046,
      "velocity": 96,
      "chip": "ym2612"
    },
    {
      "channel": 2,
      "note": 52,
      "start": 14.1562,
      "duration": 0.0541,
      "velocity": 100,
      "chip": "ym2612"
    },
    {
      "channel": 0,
      "note": 70,
      "start": 14.23,
      "duration": 0.0054,
      "velocity": 96,
      "chip": "ym2612"
    },
    {
      "channel": 3,
      "note": 73,
      "start": 14.2329,
      "duration": 0.0034,
      "velocity": 96,
      "chip": "ym2612"
    },
    {
      "channel": 4,
      "note": 82,
      "start": 14.2335,
      "duration": 0.0031,
      "velocity": 96,
      "chip": "ym2612"
    },
    {
      "channel": 0,
      "note": 70,
      "start": 14.2573,
      "duration": 0.3054,
      "velocity": 96,
      "chip": "ym2612"
    },
    {
      "channel": 2,
      "note": 52,
      "start": 14.2581,
      "duration": 0.0536,
      "velocity": 100,
      "chip": "ym2612"
    },
    {
      "channel": 3,
      "note": 78,
      "start": 14.2588,
      "duration": 0.3075,
      "velocity": 96,
      "chip": "ym2612"
    },
    {
      "channel": 4,
      "note": 85,
      "start": 14.2595,
      "duration": 0.2033,
      "velocity": 96,
      "chip": "ym2612"
    },
    {
      "channel": 2,
      "note": 52,
      "start": 14.3588,
      "duration": 0.0557,
      "velocity": 100,
      "chip": "ym2612"
    },
    {
      "channel": 1,
      "note": 73,
      "start": 14.4356,
      "duration": 0.0212,
      "velocity": 100,
      "chip": "ym2612"
    },
    {
      "channel": 1,
      "note": 73,
      "start": 14.4612,
      "duration": 0.1038,
      "velocity": 100,
      "chip": "ym2612"
    },
    {
      "channel": 2,
      "note": 52,
      "start": 14.4617,
      "duration": 0.0547,
      "velocity": 100,
      "chip": "ym2612"
    },
    {
      "channel": 4,
      "note": 85,
      "start": 14.4628,
      "duration": 0.1468,
      "velocity": 96,
      "chip": "ym2612"
    },
    {
      "channel": 0,
      "note": 70,
      "start": 14.5627,
      "duration": 0.0457,
      "velocity": 96,
      "chip": "ym2612"
    },
    {
      "channel": 1,
      "note": 73,
      "start": 14.565,
      "duration": 0.0974,
      "velocity": 100,
      "chip": "ym2612"
    },
    {
      "channel": 2,
      "note": 52,
      "start": 14.5655,
      "duration": 0.0531,
      "velocity": 100,
      "chip": "ym2612"
    },
    {
      "channel": 3,
      "note": 78,
      "start": 14.5662,
      "duration": 0.0429,
      "velocity": 96,
      "chip": "ym2612"
    },
    {
      "channel": 0,
      "note": 66,
      "start": 14.6667,
      "duration": 0.1974,
      "velocity": 96,
      "chip": "ym2612"
    },
    {
      "channel": 1,
      "note": 70,
      "start": 14.6671,
      "duration": 0.1973,
      "velocity": 100,
      "chip": "ym2612"
    },
    {
      "channel": 2,
      "note": 52,
      "start": 14.6676,
      "duration": 0.0514,
      "velocity": 100,
      "chip": "ym2612"
    },
    {
      "channel": 3,
      "note": 78,
      "start": 14.6683,
      "duration": 0.1967,
      "velocity": 96,
      "chip": "ym2612"
    },
    {
      "channel": 4,
      "note": 85,
      "start": 14.6689,
      "duration": 0.1965,
      "velocity": 96,
      "chip": "ym2612"
    },
    {
      "channel": 2,
      "note": 52,
      "start": 14.7658,
      "duration": 0.0542,
      "velocity": 100,
      "chip": "ym2612"
    },
    {
      "channel": 0,
      "note": 68,
      "start": 14.8688,
      "duration": 0.1248,
      "velocity": 96,
      "chip": "ym2612"
    },
    {
      "channel": 2,
      "note": 61,
      "start": 14.8696,
      "duration": 0.0546,
      "velocity": 100,
      "chip": "ym2612"
    },
    {
      "channel": 3,
      "note": 73,
      "start": 14.8702,
      "duration": 0.1242,
      "velocity": 96,
      "chip": "ym2612"
    },
    {
      "channel": 4,
      "note": 82,
      "start": 14.8708,
      "duration": 0.1239,
      "velocity": 96,
      "chip": "ym2612"
    },
    {
      "channel": 2,
      "note": 61,
      "start": 14.971,
      "duration": 0.0562,
      "velocity": 100,
      "chip": "ym2612"
    },
    {
      "channel": 0,
      "note": 64,
      "start": 15.0483,
      "duration": 0.0224,
      "velocity": 96,
      "chip": "ym2612"
    },
    {
      "channel": 3,
      "note": 76,
      "start": 15.0494,
      "duration": 0.0222,
      "velocity": 96,
      "chip": "ym2612"
    },
    {
      "channel": 4,
      "note": 83,
      "start": 15.05,
      "duration": 0.022,
      "velocity": 96,
      "chip": "ym2612"
    },
    {
      "channel": 0,
      "note": 64,
      "start": 15.0753,
      "duration": 0.3017,
      "velocity": 96,
      "chip": "ym2612"
    },
    {
      "channel": 2,
      "note": 61,
      "start": 15.0761,
      "duration": 0.0532,
      "velocity": 100,
      "chip": "ym2612"
    },
    {
      "channel": 3,
      "note": 71,
      "start": 15.0767,
      "duration": 0.3029,
      "velocity": 96,
      "chip": "ym2612"
    },
    {
      "channel": 4,
      "note": 80,
      "start": 15.0773,
      "duration": 0.3027,
      "velocity": 96,
      "chip": "ym2612"
    },
    {
      "channel": 2,
      "note": 61,
      "start": 15.1776,
      "duration": 0.0534,
      "velocity": 100,
      "chip": "ym2612"
    },
    {
      "channel": 1,
      "note": 68,
      "start": 15.2536,
      "duration": 0.0212,
      "velocity": 100,
      "chip": "ym2612"
    },
    {
      "channel": 1,
      "note": 68,
      "start": 15.2794,
      "duration": 0.1029,
      "velocity": 100,
      "chip": "ym2612"
    },
    {
      "channel": 2,
      "note": 61,
      "start": 15.2799,
      "duration": 0.0546,
      "velocity": 100,
      "chip": "ym2612"
    },
    {
      "channel": 0,
      "note": 59,
      "start": 15.3817,
      "duration": 0.0995,
      "velocity": 96,
      "chip": "ym2612"
    },
    {
      "channel": 1,
      "note": 68,
      "start": 15.3823,
      "duration": 0.3022,
      "velocity": 100,
      "chip": "ym2612"
    },
    {
      "channel": 2,
      "note": 61,
      "start": 15.3828,
      "duration": 0.0544,
      "velocity": 100,
      "chip": "ym2612"
    },
    {
      "channel": 3,
      "note": 71,
      "start": 15.3834,
      "duration": 0.0986,
      "velocity": 96,
      "chip": "ym2612"
    },
    {
      "channel": 4,
      "note": 80,
      "start": 15.3858,
      "duration": 0.0966,
      "velocity": 96,
      "chip": "ym2612"
    },
    {
      "channel": 0,
      "note": 64,
      "start": 15.4858,
      "duration": 0.0973,
      "velocity": 96,
      "chip": "ym2612"
    },
    {
      "channel": 2,
      "note": 61,
      "start": 15.4866,
      "duration": 0.0528,
      "velocity": 100,
      "chip": "ym2612"
    },
    {
      "channel": 3,
      "note": 68,
      "start": 15.4872,
      "duration": 0.0968,
      "velocity": 96,
      "chip": "ym2612"
    },
    {
      "channel": 4,
      "note": 76,
      "start": 15.4878,
      "duration": 0.0966,
      "velocity": 96,
      "chip": "ym2612"
    },
    {
      "channel": 0,
      "note": 68,
      "start": 15.5879,
      "duration": 0.0963,
      "velocity": 96,
      "chip": "ym2612"
    },
    {
      "channel": 2,
      "note": 61,
      "start": 15.5886,
      "duration": 0.0534,
      "velocity": 100,
      "chip": "ym2612"
    },
    {
      "channel": 3,
      "note": 71,
      "start": 15.5892,
      "duration": 0.0958,
      "velocity": 96,
      "chip": "ym2612"
    },
    {
      "channel": 4,
      "note": 80,
      "start": 15.5899,
      "duration": 0.0956,
      "velocity": 96,
      "chip": "ym2612"
    },
    {
      "channel": 0,
      "note": 70,
      "start": 15.6888,
      "duration": 0.1248,
      "velocity": 96,
      "chip": "ym2612"
    },
    {
      "channel": 2,
      "note": 63,
      "start": 15.6897,
      "duration": 0.0547,
      "velocity": 100,
      "chip": "ym2612"
    },
    {
      "channel": 3,
      "note": 76,
      "start": 15.6902,
      "duration": 0.1242,
      "velocity": 96,
      "chip": "ym2612"
    },
    {
      "channel": 4,
      "note": 83,
      "start": 15.6909,
      "duration": 0.124,
      "velocity": 96,
      "chip": "ym2612"
    },
    {
      "channel": 2,
      "note": 63,
      "start": 15.7911,
      "duration": 0.0562,
      "velocity": 100,
      "chip": "ym2612"
    },
    {
      "channel": 0,
      "note": 61,
      "start": 15.8673,
      "duration": 0.0226,
      "velocity": 96,
      "chip": "ym2612"
    },
    {
      "channel": 3,
      "note": 78,
      "start": 15.8684,
      "duration": 0.0223,
      "velocity": 96,
      "chip": "ym2612"
    },
    {
      "channel": 4,
      "note": 85,
      "start": 15.8691,
      "duration": 0.022,
      "velocity": 96,
      "chip": "ym2612"
    },
    {
      "channel": 0,
      "note": 73,
      "start": 15.8945,
      "duration": 0.3056,
      "velocity": 96,
      "chip": "ym2612"
    },
    {
      "channel": 2,
      "note": 63,
      "start": 15.8953,
      "duration": 0.0536,
      "velocity": 100,
      "chip": "ym2612"
    },
    {
      "channel": 3,
      "note": 70,
      "start": 15.896,
      "duration": 0.3059,
      "velocity": 96,
      "chip": "ym2612"
    },
    {
      "channel": 4,
      "note": 78,
      "start": 15.8967,
      "duration": 0.2042,
      "velocity": 96,
      "chip": "ym2612"
    },
    {
      "channel": 2,
      "note": 63,
      "start": 15.9973,
      "duration": 0.0536,
      "velocity": 100,
      "chip": "ym2612"
    },
    {
      "channel": 1,
      "note": 73,
      "start": 16.0737,
      "duration": 0.0211,
      "velocity": 100,
      "chip": "ym2612"
    },
    {
      "channel": 1,
      "note": 73,
      "start": 16.0994,
      "duration": 0.1013,
      "velocity": 100,
      "chip": "ym2612"
    },
    {
      "channel": 2,
      "note": 63,
      "start": 16.0999,
      "duration": 0.0546,
      "velocity": 100,
      "chip": "ym2612"
    },
    {
      "channel": 4,
      "note": 90,
      "start": 16.1009,
      "duration": 0.1467,
      "velocity": 96,
      "chip": "ym2612"
    },
    {
      "channel": 0,
      "note": 73,
      "start": 16.2001,
      "duration": 0.0464,
      "velocity": 96,
      "chip": "ym2612"
    },
    {
      "channel": 1,
      "note": 73,
      "start": 16.2007,
      "duration": 0.1006,
      "velocity": 100,
      "chip": "ym2612"
    },
    {
      "channel": 2,
      "note": 63,
      "start": 16.2012,
      "duration": 0.0563,
      "velocity": 100,
      "chip": "ym2612"
    },
    {
      "channel": 3,
      "note": 82,
      "start": 16.2019,
      "duration": 0.0454,
      "velocity": 96,
      "chip": "ym2612"
    },
    {
      "channel": 0,
      "note": 70,
      "start": 16.304,
      "duration": 0.1988,
      "velocity": 96,
      "chip": "ym2612"
    },
    {
      "channel": 1,
      "note": 70,
      "start": 16.3062,
      "duration": 0.1969,
      "velocity": 100,
      "chip": "ym2612"
    },
    {
      "channel": 2,
      "note": 63,
      "start": 16.3067,
      "duration": 0.0527,
      "velocity": 100,
      "chip": "ym2612"
    },
    {
      "channel": 3,
      "note": 82,
      "start": 16.3073,
      "duration": 0.1964,
      "velocity": 96,
      "chip": "ym2612"
    },
    {
      "channel": 4,
      "note": 90,
      "start": 16.3079,
      "duration": 0.1961,
      "velocity": 96,
      "chip": "ym2612"
    },
    {
      "channel": 2,
      "note": 63,
      "start": 16.4055,
      "duration": 0.0535,
      "velocity": 100,
      "chip": "ym2612"
    },
    {
      "channel": 0,
      "note": 74,
      "start": 16.5075,
      "duration": 0.1241,
      "velocity": 96,
      "chip": "ym2612"
    },
    {
      "channel": 2,
      "note": 62,
      "start": 16.5083,
      "duration": 0.0524,
      "velocity": 100,
      "chip": "ym2612"
    },
    {
      "channel": 3,
      "note": 78,
      "start": 16.509,
      "duration": 0.1234,
      "velocity": 96,
      "chip": "ym2612"
    },
    {
      "channel": 4,
      "note": 85,
      "start": 16.5096,
      "duration": 0.1232,
      "velocity": 96,
      "chip": "ym2612"
    },
    {
      "channel": 2,
      "note": 62,
      "start": 16.6089,
      "duration": 0.0562,
      "velocity": 100,
      "chip": "ym2612"
    },
    {
      "channel": 0,
      "note": 66,
      "start": 16.6862,
      "duration": 0.0224,
      "velocity": 96,
      "chip": "ym2612"
    },
    {
      "channel": 3,
      "note": 81,
      "start": 16.6872,
      "duration": 0.0221,
      "velocity": 96,
      "chip": "ym2612"
    },
    {
      "channel": 4,
      "note": 90,
      "start": 16.6879,
      "duration": 0.0218,
      "velocity": 96,
      "chip": "ym2612"
    },
    {
      "channel": 0,
      "note": 66,
      "start": 16.7113,
      "duration": 0.3026,
      "velocity": 96,
      "chip": "ym2612"
    },
    {
      "channel": 2,
      "note": 62,
      "start": 16.712,
      "duration": 0.0549,
      "velocity": 100,
      "chip": "ym2612"
    },
    {
      "channel": 3,
      "note": 74,
      "start": 16.7144,
      "duration": 0.3003,
      "velocity": 96,
      "chip": "ym2612"
    },
    {
      "channel": 4,
      "note": 81,
      "start": 16.715,
      "duration": 0.3001,
      "velocity": 96,
      "chip": "ym2612"
    },
    {
      "channel": 2,
      "note": 62,
      "start": 16.8155,
      "duration": 0.0538,
      "velocity": 100,
      "chip": "ym2612"
    },
    {
      "channel": 1,
      "note": 69,
      "start": 16.8927,
      "duration": 0.0207,
      "velocity": 100,
      "chip": "ym2612"
    },
    {
      "channel": 1,
      "note": 69,
      "start": 16.9179,
      "duration": 0.1014,
      "velocity": 100,
      "chip": "ym2612"
    },
    {
      "channel": 2,
      "note": 62,
      "start": 16.9184,
      "duration": 0.0532,
      "velocity": 100,
      "chip": "ym2612"
    },
    {
      "channel": 0,
      "note": 66,
      "start": 17.0186,
      "duration": 0.0968,
      "velocity": 96,
      "chip": "ym2612"
    },
    {
      "channel": 1,
      "note": 69,
      "start": 17.0193,
      "duration": 0.3022,
      "velocity": 100,
      "chip": "ym2612"
    },
    {
      "channel": 2,
      "note": 62,
      "start": 17.0198,
      "duration": 0.0539,
      "velocity": 100,
      "chip": "ym2612"
    },
    {
      "channel": 3,
      "note": 74,
      "start": 17.0204,
      "duration": 0.0977,
      "velocity": 96,
      "chip": "ym2612"
    },
    {
      "channel": 4,
      "note": 81,
      "start": 17.021,
      "duration": 0.0975,
      "velocity": 96,
      "chip": "ym2612"
    },
    {
      "channel": 0,
      "note": 69,
      "start": 17.1202,
      "duration": 0.0989,
      "velocity": 96,
      "chip": "ym2612"
    },
    {
      "channel": 2,
      "note": 62,
      "start": 17.121,
      "duration": 0.0548,
      "velocity": 100,
      "chip": "ym2612"
    },
    {
      "channel": 3,
      "note": 74,
      "start": 17.1215,
      "duration": 0.0984,
      "velocity": 96,
      "chip": "ym2612"
    },
    {
      "channel": 4,
      "note": 81,
      "start": 17.1222,
      "duration": 0.0981,
      "velocity": 96,
      "chip": "ym2612"
    },
    {
      "channel": 0,
      "note": 74,
      "start": 17.2237,
      "duration": 0.0975,
      "velocity": 96,
      "chip": "ym2612"
    },
    {
      "channel": 2,
      "note": 62,
      "start": 17.2244,
      "duration": 0.0531,
      "velocity": 100,
      "chip": "ym2612"
    },
    {
      "channel": 3,
      "note": 78,
      "start": 17.225,
      "duration": 0.097,
      "velocity": 96,
      "chip": "ym2612"
    },
    {
      "channel": 4,
      "note": 86,
      "start": 17.2256,
      "duration": 0.0968,
      "velocity": 96,
      "chip": "ym2612"
    },
    {
      "channel": 0,
      "note": 75,
      "start": 17.3259,
      "duration": 0.1211,
      "velocity": 96,
      "chip": "ym2612"
    },
    {
      "channel": 2,
      "note": 61,
      "start": 17.3267,
      "duration": 0.0532,
      "velocity": 100,
      "chip": "ym2612"
    },
    {
      "channel": 3,
      "note": 81,
      "start": 17.3273,
      "duration": 0.1222,
      "velocity": 96,
      "chip": "ym2612"
    },
    {
      "channel": 4,
      "note": 90,
      "start": 17.3279,
      "duration": 0.122,
      "velocity": 96,
      "chip": "ym2612"
    },
    {
      "channel": 2,
      "note": 61,
      "start": 17.4273,
      "duration": 0.0546,
      "velocity": 100,
      "chip": "ym2612"
    },
    {
      "channel": 0,
      "note": 66,
      "start": 17.5031,
      "duration": 0.0204,
      "velocity": 96,
      "chip": "ym2612"
    },
    {
      "channel": 3,
      "note": 83,
      "start": 17.5041,
      "duration": 0.0202,
      "velocity": 96,
      "chip": "ym2612"
    },
    {
      "channel": 4,
      "note": 90,
      "start": 17.5048,
      "duration": 0.0198,
      "velocity": 96,
      "chip": "ym2612"
    },
    {
      "channel": 0,
      "note": 66,
      "start": 17.5281,
      "duration": 0.2042,
      "velocity": 96,
      "chip": "ym2612"
    },
    {
      "channel": 2,
      "note": 61,
      "start": 17.5289,
      "duration": 0.0545,
      "velocity": 100,
      "chip": "ym2612"
    },
    {
      "channel": 3,
      "note": 75,
      "start": 17.5295,
      "duration": 0.199,
      "velocity": 96,
      "chip": "ym2612"
    },
    {
      "channel": 4,
      "note": 83,
      "start": 17.5301,
      "duration": 0.2998,
      "velocity": 96,
      "chip": "ym2612"
    },
    {
      "channel": 2,
      "note": 61,
      "start": 17.6305,
      "duration": 0.0535,
      "velocity": 100,
      "chip": "ym2612"
    },
    {
      "channel": 1,
      "note": 71,
      "start": 17.7053,
      "duration": 0.0226,
      "velocity": 100,
      "chip": "ym2612"
    },
    {
      "channel": 0,
      "note": 67,
      "start": 17.7323,
      "duration": 0.0456,
      "velocity": 96,
      "chip": "ym2612"
    },
    {
      "channel": 1,
      "note": 71,
      "start": 17.7329,
      "duration": 0.1009,
      "velocity": 100,
      "chip": "ym2612"
    },
    {
      "channel": 2,
      "note": 60,
      "start": 17.7334,
      "duration": 0.0533,
      "velocity": 100,
      "chip": "ym2612"
    },
    {
      "channel": 3,
      "note": 75,
      "start": 17.734,
      "duration": 0.0446,
      "velocity": 96,
      "chip": "ym2612"
    },
    {
      "channel": 0,
      "note": 67,
      "start": 17.8332,
      "duration": 0.0968,
      "velocity": 96,
      "chip": "ym2612"
    },
    {
      "channel": 1,
      "note": 71,
      "start": 17.8338,
      "duration": 0.3026,
      "velocity": 100,
      "chip": "ym2612"
    },
    {
      "channel": 2,
      "note": 60,
      "start": 17.8343,
      "duration": 0.0545,
      "velocity": 100,
      "chip": "ym2612"
    },
    {
      "channel": 3,
      "note": 76,
      "start": 17.8349,
      "duration": 0.096,
      "velocity": 96,
      "chip": "ym2612"
    },
    {
      "channel": 4,
      "note": 83,
      "start": 17.8355,
      "duration": 0.0957,
      "velocity": 96,
      "chip": "ym2612"
    },
    {
      "channel": 0,
      "note": 71,
      "start": 17.9346,
      "duration": 0.0992,
      "velocity": 96,
      "chip": "ym2612"
    },
    {
      "channel": 2,
      "note": 60,
      "start": 17.9353,
      "duration": 0.0546,
      "velocity": 100,
      "chip": "ym2612"
    },
    {
      "channel": 3,
      "note": 76,
      "start": 17.9359,
      "duration": 0.0986,
      "velocity": 96,
      "chip": "ym2612"
    },
    {
      "channel": 4,
      "note": 83,
      "start": 17.9366,
      "duration": 0.0984,
      "velocity": 96,
      "chip": "ym2612"
    },
    {
      "channel": 0,
      "note": 76,
      "start": 18.0367,
      "duration": 0.0994,
      "velocity": 96,
      "chip": "ym2612"
    },
    {
      "channel": 2,
      "note": 60,
      "start": 18.0391,
      "duration": 0.053,
      "velocity": 100,
      "chip": "ym2612"
    },
    {
      "channel": 3,
      "note": 79,
      "start": 18.0397,
      "duration": 0.0972,
      "velocity": 96,
      "chip": "ym2612"
    },
    {
      "channel": 4,
      "note": 88,
      "start": 18.0403,
      "duration": 0.097,
      "velocity": 96,
      "chip": "ym2612"
    },
    {
      "channel": 0,
      "note": 79,
      "start": 18.1409,
      "duration": 0.4049,
      "velocity": 96,
      "chip": "ym2612"
    },
    {
      "channel": 1,
      "note": 72,
      "start": 18.1414,
      "duration": 0.1005,
      "velocity": 100,
      "chip": "ym2612"
    },
    {
      "channel": 2,
      "note": 54,
      "start": 18.1419,
      "duration": 0.0533,
      "velocity": 100,
      "chip": "ym2612"
    },
    {
      "channel": 3,
      "note": 83,
      "start": 18.1426,
      "duration": 0.404,
      "velocity": 96,
      "chip": "ym2612"
    },
    {
      "channel": 4,
      "note": 91,
      "start": 18.1432,
      "duration": 0.4037,
      "velocity": 96,
      "chip": "ym2612"
    },
    {
      "channel": 1,
      "note": 72,
      "start": 18.242,
      "duration": 0.304,
      "velocity": 100,
      "chip": "ym2612"
    },
    {
      "channel": 2,
      "note": 54,
      "start": 18.2425,
      "duration": 0.0537,
      "velocity": 100,
      "chip": "ym2612"
    },
    {
      "channel": 2,
      "note": 54,
      "start": 18.344,
      "duration": 0.0553,
      "velocity": 100,
      "chip": "ym2612"
    },
    {
      "channel": 2,
      "note": 54,
      "start": 18.4463,
      "duration": 0.0551,
      "velocity": 100,
      "chip": "ym2612"
    },
    {
      "channel": 0,
      "note": 79,
      "start": 18.5504,
      "duration": 0.4155,
      "velocity": 96,
      "chip": "ym2612"
    },
    {
      "channel": 1,
      "note": 66,
      "start": 18.5544,
      "duration": 0.0209,
      "velocity": 96,
      "chip": "ym2612"
    },
    {
      "channel": 2,
      "note": 54,
      "start": 18.5549,
      "duration": 0.0552,
      "velocity": 100,
      "chip": "ym2612"
    },
    {
      "channel": 3,
      "note": 88,
      "start": 18.5555,
      "duration": 0.4112,
      "velocity": 96,
      "chip": "ym2612"
    },
    {
      "channel": 4,
      "note": 96,
      "start": 18.5561,
      "duration": 0.411,
      "velocity": 96,
      "chip": "ym2612"
    },
    {
      "channel": 1,
      "note": 66,
      "start": 18.5795,
      "duration": 0.0191,
      "velocity": 96,
      "chip": "ym2612"
    },
    {
      "channel": 1,
      "note": 66,
      "start": 18.6045,
      "duration": 0.0232,
      "velocity": 96,
      "chip": "ym2612"
    },
    {
      "channel": 1,
      "note": 66,
      "start": 18.632,
      "duration": 0.0206,
      "velocity": 96,
      "chip": "ym2612"
    },
    {
      "channel": 1,
      "note": 66,
      "start": 18.6571,
      "duration": 0.0204,
      "velocity": 96,
      "chip": "ym2612"
    },
    {
      "channel": 2,
      "note": 54,
      "start": 18.6576,
      "duration": 0.0555,
      "velocity": 100,
      "chip": "ym2612"
    },
    {
      "channel": 1,
      "note": 66,
      "start": 18.6837,
      "duration": 0.0216,
      "velocity": 96,
      "chip": "ym2612"
    },
    {
      "channel": 1,
      "note": 66,
      "start": 18.7099,
      "duration": 0.0207,
      "velocity": 96,
      "chip": "ym2612"
    },
    {
      "channel": 1,
      "note": 66,
      "start": 18.7356,
      "duration": 0.021,
      "velocity": 96,
      "chip": "ym2612"
    },
    {
      "channel": 1,
      "note": 66,
      "start": 18.7639,
      "duration": 0.0222,
      "velocity": 96,
      "chip": "ym2612"
    },
    {
      "channel": 2,
      "note": 54,
      "start": 18.7643,
      "duration": 0.0566,
      "velocity": 100,
      "chip": "ym2612"
    },
    {
      "channel": 1,
      "note": 66,
      "start": 18.7891,
      "duration": 0.0216,
      "velocity": 96,
      "chip": "ym2612"
    },
    {
      "channel": 1,
      "note": 66,
      "start": 18.8159,
      "duration": 0.0202,
      "velocity": 96,
      "chip": "ym2612"
    },
    {
      "channel": 1,
      "note": 66,
      "start": 18.8423,
      "duration": 0.0199,
      "velocity": 96,
      "chip": "ym2612"
    },
    {
      "channel": 1,
      "note": 66,
      "start": 18.8675,
      "duration": 0.0221,
      "velocity": 96,
      "chip": "ym2612"
    },
    {
      "channel": 2,
      "note": 54,
      "start": 18.868,
      "duration": 0.057,
      "velocity": 100,
      "chip": "ym2612"
    },
    {
      "channel": 1,
      "note": 66,
      "start": 18.894,
      "duration": 0.0198,
      "velocity": 96,
      "chip": "ym2612"
    },
    {
      "channel": 1,
      "note": 66,
      "start": 18.92,
      "duration": 0.0199,
      "velocity": 96,
      "chip": "ym2612"
    },
    {
      "channel": 1,
      "note": 66,
      "start": 18.9444,
      "duration": 0.0218,
      "velocity": 96,
      "chip": "ym2612"
    },
    {
      "channel": 0,
      "note": 90,
      "start": 18.9741,
      "duration": 0.0143,
      "velocity": 90,
      "chip": "ym2612"
    },
    {
      "channel": 1,
      "note": 59,
      "start": 18.9763,
      "duration": 0.1116,
      "velocity": 96,
      "chip": "ym2612"
    },
    {
      "channel": 3,
      "note": 88,
      "start": 18.9772,
      "duration": 0.0203,
      "velocity": 96,
      "chip": "ym2612"
    },
    {
      "channel": 4,
      "note": 94,
      "start": 18.9778,
      "duration": 0.02,
      "velocity": 96,
      "chip": "ym2612"
    },
    {
      "channel": 0,
      "note": 90,
      "start": 19.0012,
      "duration": 0.0129,
      "velocity": 90,
      "chip": "ym2612"
    },
    {
      "channel": 0,
      "note": 88,
      "start": 19.0249,
      "duration": 0.0124,
      "velocity": 90,
      "chip": "ym2612"
    },
    {
      "channel": 0,
      "note": 88,
      "start": 19.0496,
      "duration": 0.0105,
      "velocity": 90,
      "chip": "ym2612"
    },
    {
      "channel": 0,
      "note": 91,
      "start": 19.1027,
      "duration": 0.0143,
      "velocity": 90,
      "chip": "ym2612"
    },
    {
      "channel": 1,
      "note": 59,
      "start": 19.1031,
      "duration": 0.0993,
      "velocity": 96,
      "chip": "ym2612"
    },
    {
      "channel": 2,
      "note": 47,
      "start": 19.1036,
      "duration": 0.0556,
      "velocity": 100,
      "chip": "ym2612"
    },
    {
      "channel": 3,
      "note": 86,
      "start": 19.1042,
      "duration": 0.0988,
      "velocity": 96,
      "chip": "ym2612"
    },
    {
      "channel": 4,
      "note": 95,
      "start": 19.1049,
      "duration": 0.0985,
      "velocity": 96,
      "chip": "ym2612"
    },
    {
      "channel": 0,
      "note": 91,
      "start": 19.1296,
      "duration": 0.0135,
      "velocity": 90,
      "chip": "ym2612"
    },
    {
      "channel": 0,
      "note": 88,
      "start": 19.1542,
      "duration": 0.0135,
      "velocity": 90,
      "chip": "ym2612"
    },
    {
      "channel": 0,
      "note": 88,
      "start": 19.1816,
      "duration": 0.0121,
      "velocity": 90,
      "chip": "ym2612"
    },
    {
      "channel": 0,
      "note": 86,
      "start": 19.2067,
      "duration": 0.0139,
      "velocity": 90,
      "chip": "ym2612"
    },
    {
      "channel": 3,
      "note": 85,
      "start": 19.208,
      "duration": 0.0217,
      "velocity": 96,
      "chip": "ym2612"
    },
    {
      "channel": 4,
      "note": 94,
      "start": 19.2086,
      "duration": 0.0214,
      "velocity": 96,
      "chip": "ym2612"
    },
    {
      "channel": 0,
      "note": 86,
      "start": 19.2316,
      "duration": 0.0129,
      "velocity": 90,
      "chip": "ym2612"
    },
    {
      "channel": 0,
      "note": 85,
      "start": 19.2568,
      "duration": 0.0104,
      "velocity": 90,
      "chip": "ym2612"
    },
    {
      "channel": 0,
      "note": 85,
      "start": 19.2795,
      "duration": 0.0147,
      "velocity": 90,
      "chip": "ym2612"
    },
    {
      "channel": 0,
      "note": 86,
      "start": 19.3388,
      "duration": 0.0161,
      "velocity": 90,
      "chip": "ym2612"
    },
    {
      "channel": 1,
      "note": 59,
      "start": 19.3393,
      "duration": 0.1014,
      "velocity": 96,
      "chip": "ym2612"
    },
    {
      "channel": 2,
      "note": 47,
      "start": 19.3397,
      "duration": 0.0587,
      "velocity": 100,
      "chip": "ym2612"
    },
    {
      "channel": 3,
      "note": 86,
      "start": 19.3403,
      "duration": 0.1009,
      "velocity": 96,
      "chip": "ym2612"
    },
    {
      "channel": 4,
      "note": 95,
      "start": 19.341,
      "duration": 0.1006,
      "velocity": 96,
      "chip": "ym2612"
    },
    {
      "channel": 0,
      "note": 86,
      "start": 19.3677,
      "duration": 0.012,
      "velocity": 90,
      "chip": "ym2612"
    },
    {
      "channel": 0,
      "note": 82,
      "start": 19.3937,
      "duration": 0.0127,
      "velocity": 90,
      "chip": "ym2612"
    },
    {
      "channel": 0,
      "note": 82,
      "start": 19.4183,
      "duration": 0.0135,
      "velocity": 90,
      "chip": "ym2612"
    },
    {
      "channel": 0,
      "note": 86,
      "start": 19.4451,
      "duration": 0.0124,
      "velocity": 90,
      "chip": "ym2612"
    },
    {
      "channel": 3,
      "note": 82,
      "start": 19.4463,
      "duration": 0.0201,
      "velocity": 96,
      "chip": "ym2612"
    },
    {
      "channel": 4,
      "note": 91,
      "start": 19.447,
      "duration": 0.0199,
      "velocity": 96,
      "chip": "ym2612"
    },
    {
      "channel": 0,
      "note": 86,
      "start": 19.4702,
      "duration": 0.0128,
      "velocity": 90,
      "chip": "ym2612"
    },
    {
      "channel": 0,
      "note": 85,
      "start": 19.4937,
      "duration": 0.0123,
      "velocity": 90,
      "chip": "ym2612"
    },
    {
      "channel": 0,
      "note": 85,
      "start": 19.5168,
      "duration": 0.015,
      "velocity": 90,
      "chip": "ym2612"
    },
    {
      "channel": 0,
      "note": 88,
      "start": 19.5762,
      "duration": 0.0143,
      "velocity": 90,
      "chip": "ym2612"
    },
    {
      "channel": 1,
      "note": 59,
      "start": 19.5767,
      "duration": 0.0996,
      "velocity": 96,
      "chip": "ym2612"
    },
    {
      "channel": 2,
      "note": 47,
      "start": 19.5773,
      "duration": 0.0557,
      "velocity": 100,
      "chip": "ym2612"
    },
    {
      "channel": 3,
      "note": 83,
      "start": 19.5778,
      "duration": 0.0991,
      "velocity": 96,
      "chip": "ym2612"
    },
    {
      "channel": 4,
      "note": 90,
      "start": 19.5785,
      "duration": 0.0988,
      "velocity": 96,
      "chip": "ym2612"
    },
    {
      "channel": 0,
      "note": 88,
      "start": 19.6034,
      "duration": 0.0135,
      "velocity": 90,
      "chip": "ym2612"
    },
    {
      "channel": 0,
      "note": 85,
      "start": 19.628,
      "duration": 0.0135,
      "velocity": 90,
      "chip": "ym2612"
    },
    {
      "channel": 0,
      "note": 85,
      "start": 19.6553,
      "duration": 0.0122,
      "velocity": 90,
      "chip": "ym2612"
    },
    {
      "channel": 0,
      "note": 86,
      "start": 19.6807,
      "duration": 0.0138,
      "velocity": 90,
      "chip": "ym2612"
    },
    {
      "channel": 3,
      "note": 85,
      "start": 19.6819,
      "duration": 0.0198,
      "velocity": 96,
      "chip": "ym2612"
    },
    {
      "channel": 4,
      "note": 89,
      "start": 19.6825,
      "duration": 0.0195,
      "velocity": 96,
      "chip": "ym2612"
    },
    {
      "channel": 0,
      "note": 86,
      "start": 19.7054,
      "duration": 0.0129,
      "velocity": 90,
      "chip": "ym2612"
    },
    {
      "channel": 0,
      "note": 85,
      "start": 19.7306,
      "duration": 0.0106,
      "velocity": 90,
      "chip": "ym2612"
    },
    {
      "channel": 0,
      "note": 85,
      "start": 19.7536,
      "duration": 0.0151,
      "velocity": 90,
      "chip": "ym2612"
    },
    {
      "channel": 0,
      "note": 86,
      "start": 19.8128,
      "duration": 0.0158,
      "velocity": 90,
      "chip": "ym2612"
    },
    {
      "channel": 1,
      "note": 59,
      "start": 19.8133,
      "duration": 0.1026,
      "velocity": 96,
      "chip": "ym2612"
    },
    {
      "channel": 2,
      "note": 47,
      "start": 19.8137,
      "duration": 0.0584,
      "velocity": 100,
      "chip": "ym2612"
    },
    {
      "channel": 3,
      "note": 86,
      "start": 19.8144,
      "duration": 0.1021,
      "velocity": 96,
      "chip": "ym2612"
    },
    {
      "channel": 4,
      "note": 90,
      "start": 19.815,
      "duration": 0.1018,
      "velocity": 96,
      "chip": "ym2612"
    },
    {
      "channel": 0,
      "note": 86,
      "start": 19.8425,
      "duration": 0.011,
      "velocity": 90,
      "chip": "ym2612"
    },
    {
      "channel": 0,
      "note": 82,
      "start": 19.8673,
      "duration": 0.0138,
      "velocity": 90,
      "chip": "ym2612"
    },
    {
      "channel": 0,
      "note": 82,
      "start": 19.8933,
      "duration": 0.0137,
      "velocity": 90,
      "chip": "ym2612"
    },
    {
      "channel": 0,
      "note": 83,
      "start": 19.9185,
      "duration": 0.014,
      "velocity": 90,
      "chip": "ym2612"
    },
    {
      "channel": 3,
      "note": 79,
      "start": 19.9215,
      "duration": 0.0199,
      "velocity": 96,
      "chip": "ym2612"
    },
    {
      "channel": 4,
      "note": 88,
      "start": 19.9221,
      "duration": 0.0197,
      "velocity": 96,
      "chip": "ym2612"
    },
    {
      "channel": 0,
      "note": 83,
      "start": 19.945,
      "duration": 0.0111,
      "velocity": 90,
      "chip": "ym2612"
    },
    {
      "channel": 0,
      "note": 82,
      "start": 19.9685,
      "duration": 0.0124,
      "velocity": 90,
      "chip": "ym2612"
    },
    {
      "channel": 0,
      "note": 82,
      "start": 19.9914,
      "duration": 0.0144,
      "velocity": 90,
      "chip": "ym2612"
    },
    {
      "channel": 0,
      "note": 85,
      "start": 20.0503,
      "duration": 0.0142,
      "velocity": 90,
      "chip": "ym2612"
    },
    {
      "channel": 1,
      "note": 59,
      "start": 20.0508,
      "duration": 0.0994,
      "velocity": 96,
      "chip": "ym2612"
    },
    {
      "channel": 2,
      "note": 47,
      "start": 20.0513,
      "duration": 0.0555,
      "velocity": 100,
      "chip": "ym2612"
    },
    {
      "channel": 3,
      "note": 78,
      "start": 20.0519,
      "duration": 0.0989,
      "velocity": 96,
      "chip": "ym2612"
    },
    {
      "channel": 4,
      "note": 86,
      "start": 20.0526,
      "duration": 0.0986,
      "velocity": 96,
      "chip": "ym2612"
    },
    {
      "channel": 0,
      "note": 85,
      "start": 20.0773,
      "duration": 0.0136,
      "velocity": 90,
      "chip": "ym2612"
    },
    {
      "channel": 0,
      "note": 82,
      "start": 20.1019,
      "duration": 0.0135,
      "velocity": 90,
      "chip": "ym2612"
    },
    {
      "channel": 0,
      "note": 82,
      "start": 20.1292,
      "duration": 0.0122,
      "velocity": 90,
      "chip": "ym2612"
    },
    {
      "channel": 0,
      "note": 83,
      "start": 20.1547,
      "duration": 0.0139,
      "velocity": 90,
      "chip": "ym2612"
    },
    {
      "channel": 3,
      "note": 82,
      "start": 20.156,
      "duration": 0.0199,
      "velocity": 96,
      "chip": "ym2612"
    },
    {
      "channel": 4,
      "note": 85,
      "start": 20.1566,
      "duration": 0.0196,
      "velocity": 96,
      "chip": "ym2612"
    },
    {
      "channel": 0,
      "note": 83,
      "start": 20.1795,
      "duration": 0.0128,
      "velocity": 90,
      "chip": "ym2612"
    },
    {
      "channel": 0,
      "note": 82,
      "start": 20.2047,
      "duration": 0.0106,
      "velocity": 90,
      "chip": "ym2612"
    },
    {
      "channel": 0,
      "note": 82,
      "start": 20.2277,
      "duration": 0.0161,
      "velocity": 90,
      "chip": "ym2612"
    },
    {
      "channel": 0,
      "note": 85,
      "start": 20.2868,
      "duration": 0.016,
      "velocity": 90,
      "chip": "ym2612"
    },
    {
      "channel": 1,
      "note": 59,
      "start": 20.2873,
      "duration": 0.1025,
      "velocity": 96,
      "chip": "ym2612"
    },
    {
      "channel": 2,
      "note": 47,
      "start": 20.2878,
      "duration": 0.0585,
      "velocity": 100,
      "chip": "ym2612"
    },
    {
      "channel": 3,
      "note": 83,
      "start": 20.2884,
      "duration": 0.102,
      "velocity": 96,
      "chip": "ym2612"
    },
    {
      "channel": 4,
      "note": 86,
      "start": 20.289,
      "duration": 0.1017,
      "velocity": 96,
      "chip": "ym2612"
    },
    {
      "channel": 0,
      "note": 85,
      "start": 20.3159,
      "duration": 0.0118,
      "velocity": 90,
      "chip": "ym2612"
    },
    {
      "channel": 0,
      "note": 79,
      "start": 20.3415,
      "duration": 0.012,
      "velocity": 90,
      "chip": "ym2612"
    },
    {
      "channel": 0,
      "note": 79,
      "start": 20.3674,
      "duration": 0.0134,
      "velocity": 90,
      "chip": "ym2612"
    },
    {
      "channel": 0,
      "note": 78,
      "start": 20.3924,
      "duration": 0.0141,
      "velocity": 90,
      "chip": "ym2612"
    },
    {
      "channel": 3,
      "note": 76,
      "start": 20.3954,
      "duration": 0.0202,
      "velocity": 96,
      "chip": "ym2612"
    },
    {
      "channel": 4,
      "note": 85,
      "start": 20.3961,
      "duration": 0.0199,
      "velocity": 96,
      "chip": "ym2612"
    },
    {
      "channel": 0,
      "note": 78,
      "start": 20.4192,
      "duration": 0.0111,
      "velocity": 90,
      "chip": "ym2612"
    },
    {
      "channel": 0,
      "note": 77,
      "start": 20.4429,
      "duration": 0.0123,
      "velocity": 90,
      "chip": "ym2612"
    },
    {
      "channel": 0,
      "note": 77,
      "start": 20.466,
      "duration": 0.0145,
      "velocity": 90,
      "chip": "ym2612"
    },
    {
      "channel": 0,
      "note": 78,
      "start": 20.5249,
      "duration": 0.0142,
      "velocity": 90,
      "chip": "ym2612"
    },
    {
      "channel": 1,
      "note": 59,
      "start": 20.5254,
      "duration": 0.0979,
      "velocity": 96,
      "chip": "ym2612"
    },
    {
      "channel": 2,
      "note": 47,
      "start": 20.5259,
      "duration": 0.0554,
      "velocity": 100,
      "chip": "ym2612"
    },
    {
      "channel": 3,
      "note": 74,
      "start": 20.5265,
      "duration": 0.0973,
      "velocity": 96,
      "chip": "ym2612"
    },
    {
      "channel": 4,
      "note": 83,
      "start": 20.5272,
      "duration": 0.0971,
      "velocity": 96,
      "chip": "ym2612"
    },
    {
      "channel": 0,
      "note": 78,
      "start": 20.5519,
      "duration": 0.0134,
      "velocity": 90,
      "chip": "ym2612"
    },
    {
      "channel": 0,
      "note": 76,
      "start": 20.5764,
      "duration": 0.0134,
      "velocity": 90,
      "chip": "ym2612"
    },
    {
      "channel": 0,
      "note": 76,
      "start": 20.6029,
      "duration": 0.0117,
      "velocity": 90,
      "chip": "ym2612"
    },
    {
      "channel": 0,
      "note": 74,
      "start": 20.6276,
      "duration": 0.0139,
      "velocity": 90,
      "chip": "ym2612"
    },
    {
      "channel": 3,
      "note": 79,
      "start": 20.6289,
      "duration": 0.0199,
      "velocity": 96,
      "chip": "ym2612"
    },
    {
      "channel": 4,
      "note": 82,
      "start": 20.6295,
      "duration": 0.0196,
      "velocity": 96,
      "chip": "ym2612"
    },
    {
      "channel": 0,
      "note": 74,
      "start": 20.6525,
      "duration": 0.0128,
      "velocity": 90,
      "chip": "ym2612"
    },
    {
      "channel": 0,
      "note": 73,
      "start": 20.6779,
      "duration": 0.0107,
      "velocity": 90,
      "chip": "ym2612"
    },
    {
      "channel": 0,
      "note": 73,
      "start": 20.7009,
      "duration": 0.0147,
      "velocity": 90,
      "chip": "ym2612"
    },
    {
      "channel": 0,
      "note": 74,
      "start": 20.7601,
      "duration": 0.0161,
      "velocity": 90,
      "chip": "ym2612"
    },
    {
      "channel": 1,
      "note": 59,
      "start": 20.7606,
      "duration": 0.1007,
      "velocity": 96,
      "chip": "ym2612"
    },
    {
      "channel": 2,
      "note": 47,
      "start": 20.7611,
      "duration": 0.0586,
      "velocity": 100,
      "chip": "ym2612"
    },
    {
      "channel": 3,
      "note": 78,
      "start": 20.7617,
      "duration": 0.102,
      "velocity": 96,
      "chip": "ym2612"
    },
    {
      "channel": 4,
      "note": 83,
      "start": 20.7623,
      "duration": 0.1017,
      "velocity": 96,
      "chip": "ym2612"
    },
    {
      "channel": 0,
      "note": 74,
      "start": 20.7876,
      "duration": 0.0136,
      "velocity": 90,
      "chip": "ym2612"
    },
    {
      "channel": 0,
      "note": 71,
      "start": 20.8149,
      "duration": 0.012,
      "velocity": 90,
      "chip": "ym2612"
    },
    {
      "channel": 0,
      "note": 71,
      "start": 20.8409,
      "duration": 0.0134,
      "velocity": 90,
      "chip": "ym2612"
    },
    {
      "channel": 0,
      "note": 66,
      "start": 20.8657,
      "duration": 0.0147,
      "velocity": 90,
      "chip": "ym2612"
    },
    {
      "channel": 1,
      "note": 66,
      "start": 20.8662,
      "duration": 0.0232,
      "velocity": 96,
      "chip": "ym2612"
    },
    {
      "channel": 2,
      "note": 54,
      "start": 20.8668,
      "duration": 0.4321,
      "velocity": 100,
      "chip": "ym2612"
    },
    {
      "channel": 3,
      "note": 71,
      "start": 20.8674,
      "duration": 0.4267,
      "velocity": 96,
      "chip": "ym2612"
    },
    {
      "channel": 4,
      "note": 79,
      "start": 20.8699,
      "duration": 0.4304,
      "velocity": 96,
      "chip": "ym2612"
    },
    {
      "channel": 0,
      "note": 66,
      "start": 20.8945,
      "duration": 0.0124,
      "velocity": 90,
      "chip": "ym2612"
    },
    {
      "channel": 1,
      "note": 66,
      "start": 20.895,
      "duration": 0.0205,
      "velocity": 96,
      "chip": "ym2612"
    },
    {
      "channel": 0,
      "note": 66,
      "start": 20.9207,
      "duration": 0.0135,
      "velocity": 90,
      "chip": "ym2612"
    },
    {
      "channel": 1,
      "note": 66,
      "start": 20.9212,
      "duration": 0.0201,
      "velocity": 96,
      "chip": "ym2612"
    },
    {
      "channel": 0,
      "note": 66,
      "start": 20.9455,
      "duration": 0.0154,
      "velocity": 90,
      "chip": "ym2612"
    },
    {
      "channel": 1,
      "note": 66,
      "start": 20.9476,
      "duration": 0.0218,
      "velocity": 96,
      "chip": "ym2612"
    },
    {
      "channel": 0,
      "note": 66,
      "start": 20.975,
      "duration": 0.0132,
      "velocity": 90,
      "chip": "ym2612"
    },
    {
      "channel": 1,
      "note": 66,
      "start": 20.9755,
      "duration": 0.0218,
      "velocity": 96,
      "chip": "ym2612"
    },
    {
      "channel": 0,
      "note": 66,
      "start": 21.0021,
      "duration": 0.0144,
      "velocity": 90,
      "chip": "ym2612"
    },
    {
      "channel": 1,
      "note": 66,
      "start": 21.0026,
      "duration": 0.0213,
      "velocity": 96,
      "chip": "ym2612"
    },
    {
      "channel": 0,
      "note": 66,
      "start": 21.028,
      "duration": 0.0146,
      "velocity": 90,
      "chip": "ym2612"
    },
    {
      "channel": 1,
      "note": 66,
      "start": 21.0285,
      "duration": 0.0233,
      "velocity": 96,
      "chip": "ym2612"
    },
    {
      "channel": 0,
      "note": 66,
      "start": 21.0567,
      "duration": 0.0143,
      "velocity": 90,
      "chip": "ym2612"
    },
    {
      "channel": 1,
      "note": 66,
      "start": 21.0588,
      "duration": 0.0211,
      "velocity": 96,
      "chip": "ym2612"
    },
    {
      "channel": 0,
      "note": 66,
      "start": 21.0848,
      "duration": 0.0121,
      "velocity": 90,
      "chip": "ym2612"
    },
    {
      "channel": 1,
      "note": 66,
      "start": 21.0853,
      "duration": 0.0208,
      "velocity": 96,
      "chip": "ym2612"
    },
    {
      "channel": 0,
      "note": 66,
      "start": 21.1108,
      "duration": 0.0144,
      "velocity": 90,
      "chip": "ym2612"
    },
    {
      "channel": 1,
      "note": 66,
      "start": 21.1112,
      "duration": 0.023,
      "velocity": 96,
      "chip": "ym2612"
    },
    {
      "channel": 0,
      "note": 66,
      "start": 21.1368,
      "duration": 0.0137,
      "velocity": 90,
      "chip": "ym2612"
    },
    {
      "channel": 1,
      "note": 66,
      "start": 21.1372,
      "duration": 0.0226,
      "velocity": 96,
      "chip": "ym2612"
    },
    {
      "channel": 0,
      "note": 66,
      "start": 21.1645,
      "duration": 0.0147,
      "velocity": 90,
      "chip": "ym2612"
    },
    {
      "channel": 1,
      "note": 66,
      "start": 21.1666,
      "duration": 0.0213,
      "velocity": 96,
      "chip": "ym2612"
    },
    {
      "channel": 0,
      "note": 66,
      "start": 21.1923,
      "duration": 0.0138,
      "velocity": 90,
      "chip": "ym2612"
    },
    {
      "channel": 1,
      "note": 66,
      "start": 21.1928,
      "duration": 0.0224,
      "velocity": 96,
      "chip": "ym2612"
    },
    {
      "channel": 0,
      "note": 66,
      "start": 21.2176,
      "duration": 0.0138,
      "velocity": 90,
      "chip": "ym2612"
    },
    {
      "channel": 1,
      "note": 66,
      "start": 21.2181,
      "duration": 0.0223,
      "velocity": 96,
      "chip": "ym2612"
    },
    {
      "channel": 0,
      "note": 66,
      "start": 21.2456,
      "duration": 0.0122,
      "velocity": 90,
      "chip": "ym2612"
    },
    {
      "channel": 1,
      "note": 66,
      "start": 21.2461,
      "duration": 0.0209,
      "velocity": 96,
      "chip": "ym2612"
    },
    {
      "channel": 0,
      "note": 66,
      "start": 21.2717,
      "duration": 0.0145,
      "velocity": 90,
      "chip": "ym2612"
    },
    {
      "channel": 1,
      "note": 66,
      "start": 21.2723,
      "duration": 0.0213,
      "velocity": 96,
      "chip": "ym2612"
    },
    {
      "channel": 0,
      "note": 66,
      "start": 21.2979,
      "duration": 0.0151,
      "velocity": 90,
      "chip": "ym2612"
    },
    {
      "channel": 1,
      "note": 66,
      "start": 21.2984,
      "duration": 0.0237,
      "velocity": 96,
      "chip": "ym2612"
    },
    {
      "channel": 2,
      "note": 54,
      "start": 21.2989,
      "duration": 0.3952,
      "velocity": 100,
      "chip": "ym2612"
    },
    {
      "channel": 3,
      "note": 70,
      "start": 21.2996,
      "duration": 0.4263,
      "velocity": 96,
      "chip": "ym2612"
    },
    {
      "channel": 4,
      "note": 78,
      "start": 21.3003,
      "duration": 0.426,
      "velocity": 96,
      "chip": "ym2612"
    },
    {
      "channel": 0,
      "note": 66,
      "start": 21.3271,
      "duration": 0.012,
      "velocity": 90,
      "chip": "ym2612"
    },
    {
      "channel": 1,
      "note": 66,
      "start": 21.3276,
      "duration": 0.0202,
      "velocity": 96,
      "chip": "ym2612"
    },
    {
      "channel": 0,
      "note": 66,
      "start": 21.352,
      "duration": 0.0159,
      "velocity": 90,
      "chip": "ym2612"
    },
    {
      "channel": 1,
      "note": 66,
      "start": 21.3542,
      "duration": 0.0209,
      "velocity": 96,
      "chip": "ym2612"
    },
    {
      "channel": 0,
      "note": 66,
      "start": 21.3798,
      "duration": 0.0135,
      "velocity": 90,
      "chip": "ym2612"
    },
    {
      "channel": 1,
      "note": 66,
      "start": 21.3803,
      "duration": 0.0217,
      "velocity": 96,
      "chip": "ym2612"
    },
    {
      "channel": 0,
      "note": 66,
      "start": 21.4071,
      "duration": 0.0122,
      "velocity": 90,
      "chip": "ym2612"
    },
    {
      "channel": 1,
      "note": 66,
      "start": 21.4076,
      "duration": 0.021,
      "velocity": 96,
      "chip": "ym2612"
    },
    {
      "channel": 0,
      "note": 66,
      "start": 21.4334,
      "duration": 0.0162,
      "velocity": 90,
      "chip": "ym2612"
    },
    {
      "channel": 1,
      "note": 66,
      "start": 21.4356,
      "duration": 0.0214,
      "velocity": 96,
      "chip": "ym2612"
    },
    {
      "channel": 0,
      "note": 66,
      "start": 21.4619,
      "duration": 0.0146,
      "velocity": 90,
      "chip": "ym2612"
    },
    {
      "channel": 1,
      "note": 66,
      "start": 21.4624,
      "duration": 0.0234,
      "velocity": 96,
      "chip": "ym2612"
    },
    {
      "channel": 0,
      "note": 66,
      "start": 21.4883,
      "duration": 0.0137,
      "velocity": 90,
      "chip": "ym2612"
    },
    {
      "channel": 1,
      "note": 66,
      "start": 21.4905,
      "duration": 0.0202,
      "velocity": 96,
      "chip": "ym2612"
    },
    {
      "channel": 0,
      "note": 66,
      "start": 21.5159,
      "duration": 0.0133,
      "velocity": 90,
      "chip": "ym2612"
    },
    {
      "channel": 1,
      "note": 66,
      "start": 21.5179,
      "duration": 0.02,
      "velocity": 96,
      "chip": "ym2612"
    },
    {
      "channel": 0,
      "note": 66,
      "start": 21.5424,
      "duration": 0.0136,
      "velocity": 90,
      "chip": "ym2612"
    },
    {
      "channel": 1,
      "note": 66,
      "start": 21.5429,
      "duration": 0.0218,
      "velocity": 96,
      "chip": "ym2612"
    },
    {
      "channel": 0,
      "note": 66,
      "start": 21.5674,
      "duration": 0.0133,
      "velocity": 90,
      "chip": "ym2612"
    },
    {
      "channel": 1,
      "note": 66,
      "start": 21.5679,
      "duration": 0.0217,
      "velocity": 96,
      "chip": "ym2612"
    },
    {
      "channel": 0,
      "note": 66,
      "start": 21.5939,
      "duration": 0.0136,
      "velocity": 90,
      "chip": "ym2612"
    },
    {
      "channel": 1,
      "note": 66,
      "start": 21.5961,
      "duration": 0.02,
      "velocity": 96,
      "chip": "ym2612"
    },
    {
      "channel": 0,
      "note": 66,
      "start": 21.6208,
      "duration": 0.0138,
      "velocity": 90,
      "chip": "ym2612"
    },
    {
      "channel": 1,
      "note": 66,
      "start": 21.6213,
      "duration": 0.0204,
      "velocity": 96,
      "chip": "ym2612"
    },
    {
      "channel": 0,
      "note": 66,
      "start": 21.6458,
      "duration": 0.0136,
      "velocity": 90,
      "chip": "ym2612"
    },
    {
      "channel": 1,
      "note": 66,
      "start": 21.6463,
      "duration": 0.0216,
      "velocity": 96,
      "chip": "ym2612"
    },
    {
      "channel": 1,
      "note": 66,
      "start": 21.6728,
      "duration": 0.021,
      "velocity": 96,
      "chip": "ym2612"
    },
    {
      "channel": 0,
      "note": 76,
      "start": 21.7016,
      "duration": 0.0234,
      "velocity": 99,
      "chip": "ym2612"
    },
    {
      "channel": 1,
      "note": 68,
      "start": 21.7056,
      "duration": 0.0197,
      "velocity": 99,
      "chip": "ym2612"
    },
    {
      "channel": 2,
      "note": 61,
      "start": 21.706,
      "duration": 0.0195,
      "velocity": 100,
      "chip": "ym2612"
    },
    {
      "channel": 0,
      "note": 76,
      "start": 21.7297,
      "duration": 0.2256,
      "velocity": 99,
      "chip": "ym2612"
    },
    {
      "channel": 1,
      "note": 68,
      "start": 21.7303,
      "duration": 0.2252,
      "velocity": 99,
      "chip": "ym2612"
    },
    {
      "channel": 2,
      "note": 61,
      "start": 21.7325,
      "duration": 0.2234,
      "velocity": 100,
      "chip": "ym2612"
    },
    {
      "channel": 0,
      "note": 78,
      "start": 21.9587,
      "duration": 0.0224,
      "velocity": 99,
      "chip": "ym2612"
    },
    {
      "channel": 1,
      "note": 70,
      "start": 21.9609,
      "duration": 0.0205,
      "velocity": 99,
      "chip": "ym2612"
    },
    {
      "channel": 2,
      "note": 51,
      "start": 21.9614,
      "duration": 0.0202,
      "velocity": 100,
      "chip": "ym2612"
    },
    {
      "channel": 3,
      "note": 70,
      "start": 21.962,
      "duration": 0.0199,
      "velocity": 96,
      "chip": "ym2612"
    },
    {
      "channel": 4,
      "note": 78,
      "start": 21.9627,
      "duration": 0.0196,
      "velocity": 96,
      "chip": "ym2612"
    },
    {
      "channel": 0,
      "note": 76,
      "start": 22.0909,
      "duration": 37.807,
      "velocity": 99,
      "chip": "ym2612"
    }
  ]
}