{
  "track_name": "16 - Noble Town",
  "duration_sec": 34.71,
  "sample_rate": 44100,
  "note_count": 262,
  "unique_pitches": 33,
  "pitch_range": 55,
  "avg_note_duration": 0.055,
  "reconstruction_stats": {
    "notes_reconstructed": 262,
    "keyon_events": 262,
    "keyoff_events": 262,
    "orphan_keyons": 0,
    "unique_pitches": 33,
    "pitch_range": 55,
    "avg_duration_sec": 0.055
  },
  "metadata": {
    "source": "T\\Traysia\\16 - Noble Town.vgm"
  },
  "notes": [
    {
      "channel": 0,
      "note": -1,
      "start": 0.0065,
      "duration": 0.0631,
      "velocity": 95,
      "chip": "ym2612"
    },
    {
      "channel": 3,
      "note": -1,
      "start": 0.0123,
      "duration": 0.1141,
      "velocity": 93,
      "chip": "ym2612"
    },
    {
      "channel": 4,
      "note": -1,
      "start": 0.0152,
      "duration": 0.0553,
      "velocity": 95,
      "chip": "ym2612"
    },
    {
      "channel": 0,
      "note": 60,
      "start": 0.0729,
      "duration": 0.0557,
      "velocity": 95,
      "chip": "ym2612"
    },
    {
      "channel": 2,
      "note": -1,
      "start": 0.0738,
      "duration": 0.0552,
      "velocity": 90,
      "chip": "ym2612"
    },
    {
      "channel": 4,
      "note": 60,
      "start": 0.075,
      "duration": 0.0547,
      "velocity": 95,
      "chip": "ym2612"
    },
    {
      "channel": 5,
      "note": -1,
      "start": 0.0758,
      "duration": 0.0542,
      "velocity": 90,
      "chip": "ym2612"
    },
    {
      "channel": 0,
      "note": 55,
      "start": 0.1322,
      "duration": 0.0841,
      "velocity": 95,
      "chip": "ym2612"
    },
    {
      "channel": 3,
      "note": 48,
      "start": 0.1335,
      "duration": 0.1115,
      "velocity": 93,
      "chip": "ym2612"
    },
    {
      "channel": 4,
      "note": 55,
      "start": 0.1343,
      "duration": 0.083,
      "velocity": 95,
      "chip": "ym2612"
    },
    {
      "channel": 2,
      "note": 75,
      "start": 0.1902,
      "duration": 0.0573,
      "velocity": 90,
      "chip": "ym2612"
    },
    {
      "channel": 5,
      "note": 79,
      "start": 0.1917,
      "duration": 0.0568,
      "velocity": 90,
      "chip": "ym2612"
    },
    {
      "channel": 0,
      "note": 58,
      "start": 0.2198,
      "duration": 0.012,
      "velocity": 95,
      "chip": "ym2612"
    },
    {
      "channel": 4,
      "note": 58,
      "start": 0.2211,
      "duration": 0.0116,
      "velocity": 95,
      "chip": "ym2612"
    },
    {
      "channel": 0,
      "note": 60,
      "start": 0.2352,
      "duration": 0.012,
      "velocity": 95,
      "chip": "ym2612"
    },
    {
      "channel": 4,
      "note": 60,
      "start": 0.2366,
      "duration": 0.0117,
      "velocity": 95,
      "chip": "ym2612"
    },
    {
      "channel": 0,
      "note": 62,
      "start": 0.2507,
      "duration": 0.055,
      "velocity": 95,
      "chip": "ym2612"
    },
    {
      "channel": 3,
      "note": 50,
      "start": 0.2524,
      "duration": 0.1101,
      "velocity": 93,
      "chip": "ym2612"
    },
    {
      "channel": 4,
      "note": 62,
      "start": 0.2533,
      "duration": 0.0534,
      "velocity": 95,
      "chip": "ym2612"
    },
    {
      "channel": 0,
      "note": 60,
      "start": 0.3091,
      "duration": 0.0558,
      "velocity": 95,
      "chip": "ym2612"
    },
    {
      "channel": 2,
      "note": 77,
      "start": 0.3099,
      "duration": 0.0553,
      "velocity": 90,
      "chip": "ym2612"
    },
    {
      "channel": 4,
      "note": 60,
      "start": 0.3111,
      "duration": 0.0547,
      "velocity": 95,
      "chip": "ym2612"
    },
    {
      "channel": 5,
      "note": 81,
      "start": 0.3119,
      "duration": 0.0543,
      "velocity": 90,
      "chip": "ym2612"
    },
    {
      "channel": 0,
      "note": 55,
      "start": 0.3684,
      "duration": 0.1143,
      "velocity": 95,
      "chip": "ym2612"
    },
    {
      "channel": 3,
      "note": 53,
      "start": 0.3697,
      "duration": 0.1107,
      "velocity": 93,
      "chip": "ym2612"
    },
    {
      "channel": 4,
      "note": 55,
      "start": 0.3705,
      "duration": 0.1132,
      "velocity": 95,
      "chip": "ym2612"
    },
    {
      "channel": 2,
      "note": 75,
      "start": 0.4272,
      "duration": 0.0559,
      "velocity": 90,
      "chip": "ym2612"
    },
    {
      "channel": 5,
      "note": 79,
      "start": 0.4286,
      "duration": 0.0554,
      "velocity": 90,
      "chip": "ym2612"
    },
    {
      "channel": 0,
      "note": 53,
      "start": 0.4862,
      "duration": 0.0554,
      "velocity": 95,
      "chip": "ym2612"
    },
    {
      "channel": 3,
      "note": 50,
      "start": 0.4879,
      "duration": 0.1112,
      "velocity": 93,
      "chip": "ym2612"
    },
    {
      "channel": 4,
      "note": 53,
      "start": 0.4888,
      "duration": 0.0538,
      "velocity": 95,
      "chip": "ym2612"
    },
    {
      "channel": 0,
      "note": 60,
      "start": 0.545,
      "duration": 0.0564,
      "velocity": 95,
      "chip": "ym2612"
    },
    {
      "channel": 2,
      "note": 74,
      "start": 0.5458,
      "duration": 0.0559,
      "velocity": 90,
      "chip": "ym2612"
    },
    {
      "channel": 4,
      "note": 60,
      "start": 0.5471,
      "duration": 0.0554,
      "velocity": 95,
      "chip": "ym2612"
    },
    {
      "channel": 5,
      "note": 79,
      "start": 0.5478,
      "duration": 0.0549,
      "velocity": 90,
      "chip": "ym2612"
    },
    {
      "channel": 0,
      "note": 55,
      "start": 0.6049,
      "duration": 0.0847,
      "velocity": 95,
      "chip": "ym2612"
    },
    {
      "channel": 3,
      "note": 48,
      "start": 0.6063,
      "duration": 0.1122,
      "velocity": 93,
      "chip": "ym2612"
    },
    {
      "channel": 4,
      "note": 55,
      "start": 0.6071,
      "duration": 0.0835,
      "velocity": 95,
      "chip": "ym2612"
    },
    {
      "channel": 2,
      "note": 75,
      "start": 0.6633,
      "duration": 0.0578,
      "velocity": 90,
      "chip": "ym2612"
    },
    {
      "channel": 5,
      "note": 79,
      "start": 0.6647,
      "duration": 0.0574,
      "velocity": 90,
      "chip": "ym2612"
    },
    {
      "channel": 0,
      "note": 58,
      "start": 0.6931,
      "duration": 0.012,
      "velocity": 95,
      "chip": "ym2612"
    },
    {
      "channel": 4,
      "note": 58,
      "start": 0.6945,
      "duration": 0.0115,
      "velocity": 95,
      "chip": "ym2612"
    },
    {
      "channel": 0,
      "note": 60,
      "start": 0.7085,
      "duration": 0.0123,
      "velocity": 95,
      "chip": "ym2612"
    },
    {
      "channel": 4,
      "note": 60,
      "start": 0.7099,
      "duration": 0.0119,
      "velocity": 95,
      "chip": "ym2612"
    },
    {
      "channel": 0,
      "note": 62,
      "start": 0.7243,
      "duration": 0.2307,
      "velocity": 95,
      "chip": "ym2612"
    },
    {
      "channel": 3,
      "note": 53,
      "start": 0.7261,
      "duration": 0.1105,
      "velocity": 93,
      "chip": "ym2612"
    },
    {
      "channel": 4,
      "note": 62,
      "start": 0.727,
      "duration": 0.2291,
      "velocity": 95,
      "chip": "ym2612"
    },
    {
      "channel": 2,
      "note": 77,
      "start": 0.7835,
      "duration": 0.0555,
      "velocity": 90,
      "chip": "ym2612"
    },
    {
      "channel": 5,
      "note": 81,
      "start": 0.785,
      "duration": 0.0551,
      "velocity": 90,
      "chip": "ym2612"
    },
    {
      "channel": 3,
      "note": 60,
      "start": 0.8431,
      "duration": 0.1098,
      "velocity": 93,
      "chip": "ym2612"
    },
    {
      "channel": 2,
      "note": 75,
      "start": 0.8999,
      "duration": 0.0555,
      "velocity": 90,
      "chip": "ym2612"
    },
    {
      "channel": 5,
      "note": 79,
      "start": 0.9013,
      "duration": 0.0551,
      "velocity": 90,
      "chip": "ym2612"
    },
    {
      "channel": 0,
      "note": 60,
      "start": 0.9586,
      "duration": 0.0585,
      "velocity": 95,
      "chip": "ym2612"
    },
    {
      "channel": 1,
      "note": -1,
      "start": 0.9619,
      "duration": 0.1129,
      "velocity": 97,
      "chip": "ym2612"
    },
    {
      "channel": 3,
      "note": 55,
      "start": 0.9627,
      "duration": 0.1124,
      "velocity": 93,
      "chip": "ym2612"
    },
    {
      "channel": 4,
      "note": 60,
      "start": 0.9636,
      "duration": 0.0545,
      "velocity": 95,
      "chip": "ym2612"
    },
    {
      "channel": 0,
      "note": 60,
      "start": 1.0206,
      "duration": 0.0569,
      "velocity": 95,
      "chip": "ym2612"
    },
    {
      "channel": 2,
      "note": 75,
      "start": 1.0213,
      "duration": 0.0565,
      "velocity": 90,
      "chip": "ym2612"
    },
    {
      "channel": 4,
      "note": 60,
      "start": 1.0226,
      "duration": 0.0559,
      "velocity": 95,
      "chip": "ym2612"
    },
    {
      "channel": 5,
      "note": 79,
      "start": 1.0234,
      "duration": 0.0554,
      "velocity": 90,
      "chip": "ym2612"
    },
    {
      "channel": 0,
      "note": 55,
      "start": 1.081,
      "duration": 0.0869,
      "velocity": 95,
      "chip": "ym2612"
    },
    {
      "channel": 1,
      "note": 55,
      "start": 1.0822,
      "duration": 0.1147,
      "velocity": 97,
      "chip": "ym2612"
    },
    {
      "channel": 3,
      "note": 48,
      "start": 1.083,
      "duration": 0.1142,
      "velocity": 93,
      "chip": "ym2612"
    },
    {
      "channel": 4,
      "note": 55,
      "start": 1.0837,
      "duration": 0.0851,
      "velocity": 95,
      "chip": "ym2612"
    },
    {
      "channel": 2,
      "note": 75,
      "start": 1.1412,
      "duration": 0.0585,
      "velocity": 90,
      "chip": "ym2612"
    },
    {
      "channel": 5,
      "note": 79,
      "start": 1.1427,
      "duration": 0.0581,
      "velocity": 90,
      "chip": "ym2612"
    },
    {
      "channel": 0,
      "note": 58,
      "start": 1.1714,
      "duration": 0.0123,
      "velocity": 95,
      "chip": "ym2612"
    },
    {
      "channel": 4,
      "note": 58,
      "start": 1.1728,
      "duration": 0.0118,
      "velocity": 95,
      "chip": "ym2612"
    },
    {
      "channel": 0,
      "note": 60,
      "start": 1.1871,
      "duration": 0.0124,
      "velocity": 95,
      "chip": "ym2612"
    },
    {
      "channel": 4,
      "note": 60,
      "start": 1.1886,
      "duration": 0.0119,
      "velocity": 95,
      "chip": "ym2612"
    },
    {
      "channel": 0,
      "note": 62,
      "start": 1.203,
      "duration": 0.0566,
      "velocity": 95,
      "chip": "ym2612"
    },
    {
      "channel": 1,
      "note": 53,
      "start": 1.2044,
      "duration": 0.1137,
      "velocity": 97,
      "chip": "ym2612"
    },
    {
      "channel": 3,
      "note": 50,
      "start": 1.2052,
      "duration": 0.1132,
      "velocity": 93,
      "chip": "ym2612"
    },
    {
      "channel": 4,
      "note": 62,
      "start": 1.2061,
      "duration": 0.0545,
      "velocity": 95,
      "chip": "ym2612"
    },
    {
      "channel": 0,
      "note": 60,
      "start": 1.2631,
      "duration": 0.0576,
      "velocity": 95,
      "chip": "ym2612"
    },
    {
      "channel": 2,
      "note": 77,
      "start": 1.2638,
      "duration": 0.0572,
      "velocity": 90,
      "chip": "ym2612"
    },
    {
      "channel": 4,
      "note": 60,
      "start": 1.2651,
      "duration": 0.0566,
      "velocity": 95,
      "chip": "ym2612"
    },
    {
      "channel": 5,
      "note": 81,
      "start": 1.2659,
      "duration": 0.0561,
      "velocity": 90,
      "chip": "ym2612"
    },
    {
      "channel": 0,
      "note": 55,
      "start": 1.3242,
      "duration": 0.1155,
      "velocity": 95,
      "chip": "ym2612"
    },
    {
      "channel": 1,
      "note": 51,
      "start": 1.3253,
      "duration": 0.1118,
      "velocity": 97,
      "chip": "ym2612"
    },
    {
      "channel": 3,
      "note": 53,
      "start": 1.3261,
      "duration": 0.1113,
      "velocity": 93,
      "chip": "ym2612"
    },
    {
      "channel": 4,
      "note": 55,
      "start": 1.3269,
      "duration": 0.1138,
      "velocity": 95,
      "chip": "ym2612"
    },
    {
      "channel": 2,
      "note": 75,
      "start": 1.3834,
      "duration": 0.0566,
      "velocity": 90,
      "chip": "ym2612"
    },
    {
      "channel": 5,
      "note": 79,
      "start": 1.3849,
      "duration": 0.0562,
      "velocity": 90,
      "chip": "ym2612"
    },
    {
      "channel": 0,
      "note": 53,
      "start": 1.4432,
      "duration": 0.0572,
      "velocity": 95,
      "chip": "ym2612"
    },
    {
      "channel": 1,
      "note": 53,
      "start": 1.4445,
      "duration": 0.114,
      "velocity": 97,
      "chip": "ym2612"
    },
    {
      "channel": 3,
      "note": 50,
      "start": 1.4453,
      "duration": 0.1134,
      "velocity": 93,
      "chip": "ym2612"
    },
    {
      "channel": 4,
      "note": 53,
      "start": 1.4462,
      "duration": 0.0551,
      "velocity": 95,
      "chip": "ym2612"
    },
    {
      "channel": 0,
      "note": 60,
      "start": 1.5038,
      "duration": 0.0573,
      "velocity": 95,
      "chip": "ym2612"
    },
    {
      "channel": 2,
      "note": 74,
      "start": 1.5045,
      "duration": 0.0568,
      "velocity": 90,
      "chip": "ym2612"
    },
    {
      "channel": 4,
      "note": 60,
      "start": 1.5058,
      "duration": 0.0563,
      "velocity": 95,
      "chip": "ym2612"
    },
    {
      "channel": 5,
      "note": 79,
      "start": 1.5066,
      "duration": 0.0558,
      "velocity": 90,
      "chip": "ym2612"
    },
    {
      "channel": 0,
      "note": 55,
      "start": 1.5646,
      "duration": 0.0858,
      "velocity": 95,
      "chip": "ym2612"
    },
    {
      "channel": 1,
      "note": 55,
      "start": 1.5658,
      "duration": 0.0528,
      "velocity": 97,
      "chip": "ym2612"
    },
    {
      "channel": 3,
      "note": 48,
      "start": 1.5665,
      "duration": 0.1128,
      "velocity": 93,
      "chip": "ym2612"
    },
    {
      "channel": 4,
      "note": 55,
      "start": 1.5673,
      "duration": 0.084,
      "velocity": 95,
      "chip": "ym2612"
    },
    {
      "channel": 2,
      "note": 75,
      "start": 1.6231,
      "duration": 0.0589,
      "velocity": 90,
      "chip": "ym2612"
    },
    {
      "channel": 1,
      "note": 58,
      "start": 1.6239,
      "duration": 0.2963,
      "velocity": 97,
      "chip": "ym2612"
    },
    {
      "channel": 5,
      "note": 79,
      "start": 1.6251,
      "duration": 0.0579,
      "velocity": 90,
      "chip": "ym2612"
    },
    {
      "channel": 0,
      "note": 58,
      "start": 1.6538,
      "duration": 0.0121,
      "velocity": 95,
      "chip": "ym2612"
    },
    {
      "channel": 4,
      "note": 58,
      "start": 1.6552,
      "duration": 0.0116,
      "velocity": 95,
      "chip": "ym2612"
    },
    {
      "channel": 0,
      "note": 60,
      "start": 1.6693,
      "duration": 0.0123,
      "velocity": 95,
      "chip": "ym2612"
    },
    {
      "channel": 4,
      "note": 60,
      "start": 1.6708,
      "duration": 0.0119,
      "velocity": 95,
      "chip": "ym2612"
    },
    {
      "channel": 0,
      "note": 62,
      "start": 1.6852,
      "duration": 0.2329,
      "velocity": 95,
      "chip": "ym2612"
    },
    {
      "channel": 3,
      "note": 53,
      "start": 1.6872,
      "duration": 0.112,
      "velocity": 93,
      "chip": "ym2612"
    },
    {
      "channel": 4,
      "note": 62,
      "start": 1.688,
      "duration": 0.2311,
      "velocity": 95,
      "chip": "ym2612"
    },
    {
      "channel": 2,
      "note": 77,
      "start": 1.7458,
      "duration": 0.0559,
      "velocity": 90,
      "chip": "ym2612"
    },
    {
      "channel": 5,
      "note": 81,
      "start": 1.7473,
      "duration": 0.0554,
      "velocity": 90,
      "chip": "ym2612"
    },
    {
      "channel": 3,
      "note": 60,
      "start": 1.8058,
      "duration": 0.11,
      "velocity": 93,
      "chip": "ym2612"
    },
    {
      "channel": 2,
      "note": 75,
      "start": 1.8621,
      "duration": 0.0563,
      "velocity": 90,
      "chip": "ym2612"
    },
    {
      "channel": 5,
      "note": 79,
      "start": 1.8635,
      "duration": 0.0559,
      "velocity": 90,
      "chip": "ym2612"
    },
    {
      "channel": 0,
      "note": 60,
      "start": 1.9217,
      "duration": 0.0602,
      "velocity": 95,
      "chip": "ym2612"
    },
    {
      "channel": 2,
      "note": 75,
      "start": 1.9226,
      "duration": 0.0596,
      "velocity": 90,
      "chip": "ym2612"
    },
    {
      "channel": 1,
      "note": 60,
      "start": 1.9235,
      "duration": 0.0268,
      "velocity": 97,
      "chip": "ym2612"
    },
    {
      "channel": 3,
      "note": 55,
      "start": 1.9243,
      "duration": 0.1198,
      "velocity": 93,
      "chip": "ym2612"
    },
    {
      "channel": 4,
      "note": 60,
      "start": 1.9251,
      "duration": 0.0578,
      "velocity": 95,
      "chip": "ym2612"
    },
    {
      "channel": 5,
      "note": 79,
      "start": 1.926,
      "duration": 0.0265,
      "velocity": 90,
      "chip": "ym2612"
    },
    {
      "channel": 1,
      "note": 53,
      "start": 1.9553,
      "duration": 0.0255,
      "velocity": 97,
      "chip": "ym2612"
    },
    {
      "channel": 5,
      "note": 77,
      "start": 1.9565,
      "duration": 0.0267,
      "velocity": 90,
      "chip": "ym2612"
    },
    {
      "channel": 0,
      "note": 46,
      "start": 1.9855,
      "duration": 0.0286,
      "velocity": 95,
      "chip": "ym2612"
    },
    {
      "channel": 2,
      "note": 70,
      "start": 1.9862,
      "duration": 0.0282,
      "velocity": 90,
      "chip": "ym2612"
    },
    {
      "channel": 1,
      "note": 56,
      "start": 1.9871,
      "duration": 0.026,
      "velocity": 97,
      "chip": "ym2612"
    },
    {
      "channel": 4,
      "note": 46,
      "start": 1.9881,
      "duration": 0.0271,
      "velocity": 95,
      "chip": "ym2612"
    },
    {
      "channel": 5,
      "note": 80,
      "start": 1.9888,
      "duration": 0.0266,
      "velocity": 90,
      "chip": "ym2612"
    },
    {
      "channel": 0,
      "note": 44,
      "start": 2.0177,
      "duration": 0.0287,
      "velocity": 95,
      "chip": "ym2612"
    },
    {
      "channel": 2,
      "note": 68,
      "start": 2.0184,
      "duration": 0.0283,
      "velocity": 90,
      "chip": "ym2612"
    },
    {
      "channel": 1,
      "note": 60,
      "start": 2.0193,
      "duration": 0.0261,
      "velocity": 97,
      "chip": "ym2612"
    },
    {
      "channel": 4,
      "note": 44,
      "start": 2.0203,
      "duration": 0.0271,
      "velocity": 95,
      "chip": "ym2612"
    },
    {
      "channel": 5,
      "note": 84,
      "start": 2.021,
      "duration": 0.0267,
      "velocity": 90,
      "chip": "ym2612"
    },
    {
      "channel": 0,
      "note": 43,
      "start": 2.0499,
      "duration": 0.0598,
      "velocity": 95,
      "chip": "ym2612"
    },
    {
      "channel": 2,
      "note": 67,
      "start": 2.0507,
      "duration": 0.0593,
      "velocity": 90,
      "chip": "ym2612"
    },
    {
      "channel": 1,
      "note": 56,
      "start": 2.0515,
      "duration": 0.0265,
      "velocity": 97,
      "chip": "ym2612"
    },
    {
      "channel": 3,
      "note": 53,
      "start": 2.0523,
      "duration": 0.1195,
      "velocity": 93,
      "chip": "ym2612"
    },
    {
      "channel": 4,
      "note": 43,
      "start": 2.0531,
      "duration": 0.0576,
      "velocity": 95,
      "chip": "ym2612"
    },
    {
      "channel": 5,
      "note": 80,
      "start": 2.0539,
      "duration": 0.0264,
      "velocity": 90,
      "chip": "ym2612"
    },
    {
      "channel": 1,
      "note": 65,
      "start": 2.083,
      "duration": 0.0256,
      "velocity": 97,
      "chip": "ym2612"
    },
    {
      "channel": 5,
      "note": 89,
      "start": 2.0842,
      "duration": 0.0268,
      "velocity": 90,
      "chip": "ym2612"
    },
    {
      "channel": 0,
      "note": 44,
      "start": 2.1133,
      "duration": 0.0287,
      "velocity": 95,
      "chip": "ym2612"
    },
    {
      "channel": 2,
      "note": 68,
      "start": 2.1141,
      "duration": 0.0283,
      "velocity": 90,
      "chip": "ym2612"
    },
    {
      "channel": 1,
      "note": 60,
      "start": 2.1149,
      "duration": 0.0261,
      "velocity": 97,
      "chip": "ym2612"
    },
    {
      "channel": 4,
      "note": 44,
      "start": 2.1159,
      "duration": 0.0271,
      "velocity": 95,
      "chip": "ym2612"
    },
    {
      "channel": 5,
      "note": 84,
      "start": 2.1167,
      "duration": 0.0267,
      "velocity": 90,
      "chip": "ym2612"
    },
    {
      "channel": 0,
      "note": 43,
      "start": 2.1456,
      "duration": 0.0285,
      "velocity": 95,
      "chip": "ym2612"
    },
    {
      "channel": 2,
      "note": 67,
      "start": 2.1463,
      "duration": 0.0281,
      "velocity": 90,
      "chip": "ym2612"
    },
    {
      "channel": 1,
      "note": 56,
      "start": 2.1472,
      "duration": 0.0259,
      "velocity": 97,
      "chip": "ym2612"
    },
    {
      "channel": 4,
      "note": 43,
      "start": 2.1482,
      "duration": 0.027,
      "velocity": 95,
      "chip": "ym2612"
    },
    {
      "channel": 5,
      "note": 80,
      "start": 2.1489,
      "duration": 0.0265,
      "velocity": 90,
      "chip": "ym2612"
    },
    {
      "channel": 0,
      "note": 41,
      "start": 2.1776,
      "duration": 0.0597,
      "velocity": 95,
      "chip": "ym2612"
    },
    {
      "channel": 2,
      "note": 65,
      "start": 2.1785,
      "duration": 0.0591,
      "velocity": 90,
      "chip": "ym2612"
    },
    {
      "channel": 1,
      "note": 53,
      "start": 2.1794,
      "duration": 0.028,
      "velocity": 97,
      "chip": "ym2612"
    },
    {
      "channel": 3,
      "note": 60,
      "start": 2.1802,
      "duration": 0.1192,
      "velocity": 93,
      "chip": "ym2612"
    },
    {
      "channel": 4,
      "note": 41,
      "start": 2.181,
      "duration": 0.0573,
      "velocity": 95,
      "chip": "ym2612"
    },
    {
      "channel": 5,
      "note": 77,
      "start": 2.1819,
      "duration": 0.0263,
      "velocity": 90,
      "chip": "ym2612"
    },
    {
      "channel": 1,
      "note": 51,
      "start": 2.211,
      "duration": 0.0269,
      "velocity": 97,
      "chip": "ym2612"
    },
    {
      "channel": 5,
      "note": 75,
      "start": 2.2122,
      "duration": 0.0265,
      "velocity": 90,
      "chip": "ym2612"
    },
    {
      "channel": 0,
      "note": 43,
      "start": 2.241,
      "duration": 0.0286,
      "velocity": 95,
      "chip": "ym2612"
    },
    {
      "channel": 2,
      "note": 67,
      "start": 2.2417,
      "duration": 0.0281,
      "velocity": 90,
      "chip": "ym2612"
    },
    {
      "channel": 1,
      "note": 55,
      "start": 2.2426,
      "duration": 0.0276,
      "velocity": 97,
      "chip": "ym2612"
    },
    {
      "channel": 4,
      "note": 43,
      "start": 2.2436,
      "duration": 0.0271,
      "velocity": 95,
      "chip": "ym2612"
    },
    {
      "channel": 5,
      "note": 79,
      "start": 2.2443,
      "duration": 0.0266,
      "velocity": 90,
      "chip": "ym2612"
    },
    {
      "channel": 0,
      "note": 41,
      "start": 2.2731,
      "duration": 0.0286,
      "velocity": 95,
      "chip": "ym2612"
    },
    {
      "channel": 2,
      "note": 65,
      "start": 2.2739,
      "duration": 0.0282,
      "velocity": 90,
      "chip": "ym2612"
    },
    {
      "channel": 1,
      "note": 58,
      "start": 2.2747,
      "duration": 0.0276,
      "velocity": 97,
      "chip": "ym2612"
    },
    {
      "channel": 4,
      "note": 41,
      "start": 2.2757,
      "duration": 0.0271,
      "velocity": 95,
      "chip": "ym2612"
    },
    {
      "channel": 5,
      "note": 82,
      "start": 2.2765,
      "duration": 0.0267,
      "velocity": 90,
      "chip": "ym2612"
    },
    {
      "channel": 0,
      "note": 39,
      "start": 2.3054,
      "duration": 0.029,
      "velocity": 95,
      "chip": "ym2612"
    },
    {
      "channel": 2,
      "note": 63,
      "start": 2.3061,
      "duration": 0.0286,
      "velocity": 90,
      "chip": "ym2612"
    },
    {
      "channel": 1,
      "note": 55,
      "start": 2.307,
      "duration": 0.028,
      "velocity": 97,
      "chip": "ym2612"
    },
    {
      "channel": 3,
      "note": 51,
      "start": 2.3077,
      "duration": 0.1212,
      "velocity": 93,
      "chip": "ym2612"
    },
    {
      "channel": 4,
      "note": 39,
      "start": 2.3085,
      "duration": 0.027,
      "velocity": 95,
      "chip": "ym2612"
    },
    {
      "channel": 5,
      "note": 79,
      "start": 2.3093,
      "duration": 0.0265,
      "velocity": 90,
      "chip": "ym2612"
    },
    {
      "channel": 0,
      "note": 38,
      "start": 2.338,
      "duration": 0.0286,
      "velocity": 95,
      "chip": "ym2612"
    },
    {
      "channel": 2,
      "note": 62,
      "start": 2.3388,
      "duration": 0.0282,
      "velocity": 90,
      "chip": "ym2612"
    },
    {
      "channel": 1,
      "note": 62,
      "start": 2.3396,
      "duration": 0.0276,
      "velocity": 97,
      "chip": "ym2612"
    },
    {
      "channel": 4,
      "note": 38,
      "start": 2.3407,
      "duration": 0.0271,
      "velocity": 95,
      "chip": "ym2612"
    },
    {
      "channel": 5,
      "note": 86,
      "start": 2.3414,
      "duration": 0.0267,
      "velocity": 90,
      "chip": "ym2612"
    },
    {
      "channel": 0,
      "note": 39,
      "start": 2.3703,
      "duration": 0.0288,
      "velocity": 95,
      "chip": "ym2612"
    },
    {
      "channel": 2,
      "note": 63,
      "start": 2.371,
      "duration": 0.0283,
      "velocity": 90,
      "chip": "ym2612"
    },
    {
      "channel": 1,
      "note": 55,
      "start": 2.3719,
      "duration": 0.0277,
      "velocity": 97,
      "chip": "ym2612"
    },
    {
      "channel": 4,
      "note": 39,
      "start": 2.3729,
      "duration": 0.0272,
      "velocity": 95,
      "chip": "ym2612"
    },
    {
      "channel": 5,
      "note": 79,
      "start": 2.3736,
      "duration": 0.0268,
      "velocity": 90,
      "chip": "ym2612"
    },
    {
      "channel": 0,
      "note": 41,
      "start": 2.4027,
      "duration": 0.0285,
      "velocity": 95,
      "chip": "ym2612"
    },
    {
      "channel": 2,
      "note": 65,
      "start": 2.4035,
      "duration": 0.0281,
      "velocity": 90,
      "chip": "ym2612"
    },
    {
      "channel": 1,
      "note": 58,
      "start": 2.4043,
      "duration": 0.0275,
      "velocity": 97,
      "chip": "ym2612"
    },
    {
      "channel": 4,
      "note": 41,
      "start": 2.4053,
      "duration": 0.027,
      "velocity": 95,
      "chip": "ym2612"
    },
    {
      "channel": 5,
      "note": 82,
      "start": 2.4061,
      "duration": 0.0266,
      "velocity": 90,
      "chip": "ym2612"
    },
    {
      "channel": 0,
      "note": 43,
      "start": 2.4348,
      "duration": 0.0601,
      "velocity": 95,
      "chip": "ym2612"
    },
    {
      "channel": 2,
      "note": 67,
      "start": 2.4357,
      "duration": 0.0595,
      "velocity": 90,
      "chip": "ym2612"
    },
    {
      "channel": 1,
      "note": 55,
      "start": 2.4366,
      "duration": 0.0269,
      "velocity": 97,
      "chip": "ym2612"
    },
    {
      "channel": 3,
      "note": 50,
      "start": 2.4374,
      "duration": 0.1195,
      "velocity": 93,
      "chip": "ym2612"
    },
    {
      "channel": 4,
      "note": 43,
      "start": 2.4383,
      "duration": 0.0576,
      "velocity": 95,
      "chip": "ym2612"
    },
    {
      "channel": 5,
      "note": 79,
      "start": 2.4391,
      "duration": 0.0266,
      "velocity": 90,
      "chip": "ym2612"
    },
    {
      "channel": 1,
      "note": 50,
      "start": 2.4684,
      "duration": 0.0254,
      "velocity": 97,
      "chip": "ym2612"
    },
    {
      "channel": 5,
      "note": 74,
      "start": 2.4696,
      "duration": 0.0266,
      "velocity": 90,
      "chip": "ym2612"
    },
    {
      "channel": 0,
      "note": 41,
      "start": 2.4984,
      "duration": 0.0286,
      "velocity": 95,
      "chip": "ym2612"
    },
    {
      "channel": 2,
      "note": 65,
      "start": 2.4992,
      "duration": 0.0282,
      "velocity": 90,
      "chip": "ym2612"
    },
    {
      "channel": 1,
      "note": 53,
      "start": 2.5,
      "duration": 0.0259,
      "velocity": 97,
      "chip": "ym2612"
    },
    {
      "channel": 4,
      "note": 41,
      "start": 2.501,
      "duration": 0.027,
      "velocity": 95,
      "chip": "ym2612"
    },
    {
      "channel": 5,
      "note": 77,
      "start": 2.5018,
      "duration": 0.0266,
      "velocity": 90,
      "chip": "ym2612"
    },
    {
      "channel": 0,
      "note": 39,
      "start": 2.5306,
      "duration": 0.0288,
      "velocity": 95,
      "chip": "ym2612"
    },
    {
      "channel": 2,
      "note": 63,
      "start": 2.5313,
      "duration": 0.0284,
      "velocity": 90,
      "chip": "ym2612"
    },
    {
      "channel": 1,
      "note": 56,
      "start": 2.5322,
      "duration": 0.0261,
      "velocity": 97,
      "chip": "ym2612"
    },
    {
      "channel": 4,
      "note": 39,
      "start": 2.5332,
      "duration": 0.0272,
      "velocity": 95,
      "chip": "ym2612"
    },
    {
      "channel": 5,
      "note": 80,
      "start": 2.5339,
      "duration": 0.0268,
      "velocity": 90,
      "chip": "ym2612"
    },
    {
      "channel": 0,
      "note": 41,
      "start": 2.5629,
      "duration": 0.0291,
      "velocity": 95,
      "chip": "ym2612"
    },
    {
      "channel": 2,
      "note": 65,
      "start": 2.5636,
      "duration": 0.0287,
      "velocity": 90,
      "chip": "ym2612"
    },
    {
      "channel": 1,
      "note": 53,
      "start": 2.5645,
      "duration": 0.0265,
      "velocity": 97,
      "chip": "ym2612"
    },
    {
      "channel": 3,
      "note": 50,
      "start": 2.5652,
      "duration": 0.121,
      "velocity": 93,
      "chip": "ym2612"
    },
    {
      "channel": 4,
      "note": 41,
      "start": 2.566,
      "duration": 0.0271,
      "velocity": 95,
      "chip": "ym2612"
    },
    {
      "channel": 5,
      "note": 77,
      "start": 2.5668,
      "duration": 0.0265,
      "velocity": 90,
      "chip": "ym2612"
    },
    {
      "channel": 0,
      "note": 43,
      "start": 2.5956,
      "duration": 0.0286,
      "velocity": 95,
      "chip": "ym2612"
    },
    {
      "channel": 2,
      "note": 67,
      "start": 2.5963,
      "duration": 0.0282,
      "velocity": 90,
      "chip": "ym2612"
    },
    {
      "channel": 1,
      "note": 60,
      "start": 2.5971,
      "duration": 0.0259,
      "velocity": 97,
      "chip": "ym2612"
    },
    {
      "channel": 4,
      "note": 43,
      "start": 2.5982,
      "duration": 0.027,
      "velocity": 95,
      "chip": "ym2612"
    },
    {
      "channel": 5,
      "note": 84,
      "start": 2.5989,
      "duration": 0.0266,
      "velocity": 90,
      "chip": "ym2612"
    },
    {
      "channel": 0,
      "note": 41,
      "start": 2.6277,
      "duration": 0.0287,
      "velocity": 95,
      "chip": "ym2612"
    },
    {
      "channel": 2,
      "note": 65,
      "start": 2.6284,
      "duration": 0.0283,
      "velocity": 90,
      "chip": "ym2612"
    },
    {
      "channel": 1,
      "note": 53,
      "start": 2.6293,
      "duration": 0.026,
      "velocity": 97,
      "chip": "ym2612"
    },
    {
      "channel": 4,
      "note": 41,
      "start": 2.6303,
      "duration": 0.0271,
      "velocity": 95,
      "chip": "ym2612"
    },
    {
      "channel": 5,
      "note": 77,
      "start": 2.631,
      "duration": 0.0267,
      "velocity": 90,
      "chip": "ym2612"
    },
    {
      "channel": 0,
      "note": 39,
      "start": 2.6599,
      "duration": 0.0286,
      "velocity": 95,
      "chip": "ym2612"
    },
    {
      "channel": 2,
      "note": 63,
      "start": 2.6606,
      "duration": 0.0282,
      "velocity": 90,
      "chip": "ym2612"
    },
    {
      "channel": 1,
      "note": 56,
      "start": 2.6615,
      "duration": 0.026,
      "velocity": 97,
      "chip": "ym2612"
    },
    {
      "channel": 4,
      "note": 39,
      "start": 2.6625,
      "duration": 0.027,
      "velocity": 95,
      "chip": "ym2612"
    },
    {
      "channel": 5,
      "note": 80,
      "start": 2.6632,
      "duration": 0.0266,
      "velocity": 90,
      "chip": "ym2612"
    },
    {
      "channel": 0,
      "note": 38,
      "start": 2.692,
      "duration": 0.0601,
      "velocity": 95,
      "chip": "ym2612"
    },
    {
      "channel": 2,
      "note": 62,
      "start": 2.6929,
      "duration": 0.0595,
      "velocity": 90,
      "chip": "ym2612"
    },
    {
      "channel": 1,
      "note": 53,
      "start": 2.6938,
      "duration": 0.0268,
      "velocity": 97,
      "chip": "ym2612"
    },
    {
      "channel": 3,
      "note": 56,
      "start": 2.6946,
      "duration": 0.1177,
      "velocity": 93,
      "chip": "ym2612"
    },
    {
      "channel": 4,
      "note": 38,
      "start": 2.6955,
      "duration": 0.0576,
      "velocity": 95,
      "chip": "ym2612"
    },
    {
      "channel": 5,
      "note": 77,
      "start": 2.6963,
      "duration": 0.0265,
      "velocity": 90,
      "chip": "ym2612"
    },
    {
      "channel": 1,
      "note": 48,
      "start": 2.7255,
      "duration": 0.0255,
      "velocity": 97,
      "chip": "ym2612"
    },
    {
      "channel": 5,
      "note": 72,
      "start": 2.7267,
      "duration": 0.0267,
      "velocity": 90,
      "chip": "ym2612"
    },
    {
      "channel": 0,
      "note": 36,
      "start": 2.7556,
      "duration": 0.0591,
      "velocity": 95,
      "chip": "ym2612"
    },
    {
      "channel": 2,
      "note": 60,
      "start": 2.7564,
      "duration": 0.0586,
      "velocity": 90,
      "chip": "ym2612"
    },
    {
      "channel": 1,
      "note": 51,
      "start": 2.7572,
      "duration": 0.026,
      "velocity": 97,
      "chip": "ym2612"
    },
    {
      "channel": 4,
      "note": 36,
      "start": 2.7583,
      "duration": 0.0575,
      "velocity": 95,
      "chip": "ym2612"
    },
    {
      "channel": 5,
      "note": 75,
      "start": 2.759,
      "duration": 0.0265,
      "velocity": 90,
      "chip": "ym2612"
    },
    {
      "channel": 1,
      "note": 55,
      "start": 2.7882,
      "duration": 0.0255,
      "velocity": 97,
      "chip": "ym2612"
    },
    {
      "channel": 5,
      "note": 79,
      "start": 2.7894,
      "duration": 0.0267,
      "velocity": 90,
      "chip": "ym2612"
    },
    {
      "channel": 0,
      "note": 34,
      "start": 2.8183,
      "duration": 0.1168,
      "velocity": 95,
      "chip": "ym2612"
    },
    {
      "channel": 2,
      "note": 58,
      "start": 2.819,
      "duration": 0.1163,
      "velocity": 90,
      "chip": "ym2612"
    },
    {
      "channel": 1,
      "note": 58,
      "start": 2.8198,
      "duration": 0.1126,
      "velocity": 97,
      "chip": "ym2612"
    },
    {
      "channel": 3,
      "note": 48,
      "start": 2.8206,
      "duration": 0.1122,
      "velocity": 93,
      "chip": "ym2612"
    },
    {
      "channel": 4,
      "note": 34,
      "start": 2.8214,
      "duration": 0.1147,
      "velocity": 95,
      "chip": "ym2612"
    },
    {
      "channel": 5,
      "note": 82,
      "start": 2.8222,
      "duration": 0.1142,
      "velocity": 90,
      "chip": "ym2612"
    },
    {
      "channel": 0,
      "note": 36,
      "start": 2.9409,
      "duration": 0.0643,
      "velocity": 95,
      "chip": "ym2612"
    },
    {
      "channel": 3,
      "note": 55,
      "start": 2.947,
      "duration": 0.1161,
      "velocity": 93,
      "chip": "ym2612"
    },
    {
      "channel": 4,
      "note": 36,
      "start": 2.95,
      "duration": 0.0561,
      "velocity": 95,
      "chip": "ym2612"
    },
    {
      "channel": 0,
      "note": 60,
      "start": 3.0086,
      "duration": 0.0568,
      "velocity": 95,
      "chip": "ym2612"
    },
    {
      "channel": 2,
      "note": 60,
      "start": 3.0093,
      "duration": 0.0564,
      "velocity": 90,
      "chip": "ym2612"
    },
    {
      "channel": 4,
      "note": 60,
      "start": 3.0106,
      "duration": 0.0558,
      "velocity": 95,
      "chip": "ym2612"
    },
    {
      "channel": 5,
      "note": 84,
      "start": 3.0114,
      "duration": 0.0554,
      "velocity": 90,
      "chip": "ym2612"
    },
    {
      "channel": 0,
      "note": 55,
      "start": 3.0689,
      "duration": 0.0851,
      "velocity": 95,
      "chip": "ym2612"
    },
    {
      "channel": 3,
      "note": 48,
      "start": 3.0702,
      "duration": 0.1128,
      "velocity": 93,
      "chip": "ym2612"
    },
    {
      "channel": 4,
      "note": 55,
      "start": 3.0711,
      "duration": 0.0839,
      "velocity": 95,
      "chip": "ym2612"
    },
    {
      "channel": 2,
      "note": 75,
      "start": 3.1277,
      "duration": 0.0579,
      "velocity": 90,
      "chip": "ym2612"
    },
    {
      "channel": 5,
      "note": 79,
      "start": 3.1292,
      "duration": 0.0574,
      "velocity": 90,
      "chip": "ym2612"
    },
    {
      "channel": 0,
      "note": 58,
      "start": 3.1574,
      "duration": 0.0122,
      "velocity": 95,
      "chip": "ym2612"
    },
    {
      "channel": 4,
      "note": 58,
      "start": 3.1589,
      "duration": 0.0117,
      "velocity": 95,
      "chip": "ym2612"
    },
    {
      "channel": 0,
      "note": 60,
      "start": 3.1731,
      "duration": 0.0122,
      "velocity": 95,
      "chip": "ym2612"
    },
    {
      "channel": 4,
      "note": 60,
      "start": 3.1746,
      "duration": 0.0117,
      "velocity": 95,
      "chip": "ym2612"
    }
  ]
}