{
  "track_name": "16 - Unknown (Sound Code 08)",
  "duration_sec": 34.917,
  "sample_rate": 44100,
  "note_count": 598,
  "unique_pitches": 24,
  "pitch_range": 46,
  "avg_note_duration": 0.219,
  "reconstruction_stats": {
    "notes_reconstructed": 598,
    "keyon_events": 598,
    "keyoff_events": 597,
    "orphan_keyons": 1,
    "unique_pitches": 24,
    "pitch_range": 46,
    "avg_duration_sec": 0.219
  },
  "metadata": {
    "source": "K\\King Colossus\\16 - Unknown (Sound Code 08).vgm"
  },
  "notes": [
    {
      "channel": 1,
      "note": 68,
      "start": 0.0,
      "duration": 0.0,
      "velocity": 127,
      "chip": "ym2612"
    },
    {
      "channel": 1,
      "note": 68,
      "start": 0.0,
      "duration": 0.0,
      "velocity": 127,
      "chip": "ym2612"
    },
    {
      "channel": 1,
      "note": 68,
      "start": 0.0,
      "duration": 0.0,
      "velocity": 127,
      "chip": "ym2612"
    },
    {
      "channel": 1,
      "note": 68,
      "start": 0.0,
      "duration": 0.0,
      "velocity": 127,
      "chip": "ym2612"
    },
    {
      "channel": 1,
      "note": 68,
      "start": 0.0,
      "duration": 0.0,
      "velocity": 127,
      "chip": "ym2612"
    },
    {
      "channel": 1,
      "note": 68,
      "start": 0.0,
      "duration": 0.0,
      "velocity": 127,
      "chip": "ym2612"
    },
    {
      "channel": 1,
      "note": 68,
      "start": 0.0,
      "duration": 0.0,
      "velocity": 127,
      "chip": "ym2612"
    },
    {
      "channel": 1,
      "note": 68,
      "start": 0.0,
      "duration": 0.0,
      "velocity": 127,
      "chip": "ym2612"
    },
    {
      "channel": 1,
      "note": 68,
      "start": 0.0,
      "duration": 0.0,
      "velocity": 127,
      "chip": "ym2612"
    },
    {
      "channel": 1,
      "note": 68,
      "start": 0.0,
      "duration": 0.0,
      "velocity": 127,
      "chip": "ym2612"
    },
    {
      "channel": 1,
      "note": 68,
      "start": 0.0,
      "duration": 0.0,
      "velocity": 127,
      "chip": "ym2612"
    },
    {
      "channel": 1,
      "note": 68,
      "start": 0.0,
      "duration": 0.0,
      "velocity": 127,
      "chip": "ym2612"
    },
    {
      "channel": 1,
      "note": 68,
      "start": 0.0,
      "duration": 0.0,
      "velocity": 1,
      "chip": "ym2612"
    },
    {
      "channel": 1,
      "note": 59,
      "start": 0.0,
      "duration": 0.0,
      "velocity": 1,
      "chip": "ym2612"
    },
    {
      "channel": 2,
      "note": 54,
      "start": 0.0,
      "duration": 0.0,
      "velocity": 104,
      "chip": "ym2612"
    },
    {
      "channel": 2,
      "note": 54,
      "start": 0.0,
      "duration": 0.0,
      "velocity": 104,
      "chip": "ym2612"
    },
    {
      "channel": 2,
      "note": 59,
      "start": 0.0,
      "duration": 0.0,
      "velocity": 104,
      "chip": "ym2612"
    },
    {
      "channel": 2,
      "note": 54,
      "start": 0.0,
      "duration": 0.0,
      "velocity": 104,
      "chip": "ym2612"
    },
    {
      "channel": 2,
      "note": 59,
      "start": 0.0,
      "duration": 0.0,
      "velocity": 104,
      "chip": "ym2612"
    },
    {
      "channel": 2,
      "note": 59,
      "start": 0.0,
      "duration": 0.0,
      "velocity": 1,
      "chip": "ym2612"
    },
    {
      "channel": 3,
      "note": 66,
      "start": 0.0,
      "duration": 0.0004,
      "velocity": 1,
      "chip": "ym2612"
    },
    {
      "channel": 4,
      "note": 61,
      "start": 0.0069,
      "duration": 0.1469,
      "velocity": 95,
      "chip": "ym2612"
    },
    {
      "channel": 5,
      "note": 68,
      "start": 0.0083,
      "duration": 0.1457,
      "velocity": 95,
      "chip": "ym2612"
    },
    {
      "channel": 4,
      "note": 61,
      "start": 0.3397,
      "duration": 0.0927,
      "velocity": 95,
      "chip": "ym2612"
    },
    {
      "channel": 5,
      "note": 68,
      "start": 0.3398,
      "duration": 0.0926,
      "velocity": 95,
      "chip": "ym2612"
    },
    {
      "channel": 4,
      "note": 61,
      "start": 0.5097,
      "duration": 0.0929,
      "velocity": 95,
      "chip": "ym2612"
    },
    {
      "channel": 5,
      "note": 68,
      "start": 0.5098,
      "duration": 0.0929,
      "velocity": 95,
      "chip": "ym2612"
    },
    {
      "channel": 4,
      "note": 61,
      "start": 0.68,
      "duration": 0.0928,
      "velocity": 95,
      "chip": "ym2612"
    },
    {
      "channel": 5,
      "note": 68,
      "start": 0.6802,
      "duration": 0.0927,
      "velocity": 95,
      "chip": "ym2612"
    },
    {
      "channel": 4,
      "note": 61,
      "start": 0.8501,
      "duration": 0.0926,
      "velocity": 95,
      "chip": "ym2612"
    },
    {
      "channel": 5,
      "note": 68,
      "start": 0.8502,
      "duration": 0.0926,
      "velocity": 95,
      "chip": "ym2612"
    },
    {
      "channel": 4,
      "note": 61,
      "start": 1.0201,
      "duration": 0.1547,
      "velocity": 95,
      "chip": "ym2612"
    },
    {
      "channel": 5,
      "note": 68,
      "start": 1.0203,
      "duration": 0.1546,
      "velocity": 95,
      "chip": "ym2612"
    },
    {
      "channel": 4,
      "note": 61,
      "start": 1.3605,
      "duration": 0.0773,
      "velocity": 95,
      "chip": "ym2612"
    },
    {
      "channel": 5,
      "note": 68,
      "start": 1.3606,
      "duration": 0.0772,
      "velocity": 95,
      "chip": "ym2612"
    },
    {
      "channel": 4,
      "note": 61,
      "start": 1.5306,
      "duration": 0.0773,
      "velocity": 95,
      "chip": "ym2612"
    },
    {
      "channel": 5,
      "note": 68,
      "start": 1.5307,
      "duration": 0.0773,
      "velocity": 95,
      "chip": "ym2612"
    },
    {
      "channel": 4,
      "note": 61,
      "start": 1.7008,
      "duration": 0.0772,
      "velocity": 95,
      "chip": "ym2612"
    },
    {
      "channel": 5,
      "note": 68,
      "start": 1.701,
      "duration": 0.0771,
      "velocity": 95,
      "chip": "ym2612"
    },
    {
      "channel": 4,
      "note": 61,
      "start": 1.8709,
      "duration": 0.0772,
      "velocity": 95,
      "chip": "ym2612"
    },
    {
      "channel": 5,
      "note": 68,
      "start": 1.871,
      "duration": 0.0772,
      "velocity": 95,
      "chip": "ym2612"
    },
    {
      "channel": 4,
      "note": 61,
      "start": 2.0256,
      "duration": 0.1549,
      "velocity": 95,
      "chip": "ym2612"
    },
    {
      "channel": 5,
      "note": 68,
      "start": 2.0258,
      "duration": 0.1548,
      "velocity": 95,
      "chip": "ym2612"
    },
    {
      "channel": 4,
      "note": 61,
      "start": 2.366,
      "duration": 0.0928,
      "velocity": 95,
      "chip": "ym2612"
    },
    {
      "channel": 5,
      "note": 68,
      "start": 2.3662,
      "duration": 0.0927,
      "velocity": 95,
      "chip": "ym2612"
    },
    {
      "channel": 4,
      "note": 61,
      "start": 2.5364,
      "duration": 0.0927,
      "velocity": 95,
      "chip": "ym2612"
    },
    {
      "channel": 5,
      "note": 68,
      "start": 2.5365,
      "duration": 0.0927,
      "velocity": 95,
      "chip": "ym2612"
    },
    {
      "channel": 4,
      "note": 61,
      "start": 2.7066,
      "duration": 0.0926,
      "velocity": 95,
      "chip": "ym2612"
    },
    {
      "channel": 5,
      "note": 68,
      "start": 2.7066,
      "duration": 0.0926,
      "velocity": 95,
      "chip": "ym2612"
    },
    {
      "channel": 4,
      "note": 61,
      "start": 2.8767,
      "duration": 0.0773,
      "velocity": 95,
      "chip": "ym2612"
    },
    {
      "channel": 5,
      "note": 68,
      "start": 2.8768,
      "duration": 0.0773,
      "velocity": 95,
      "chip": "ym2612"
    },
    {
      "channel": 4,
      "note": 61,
      "start": 3.0468,
      "duration": 0.139,
      "velocity": 95,
      "chip": "ym2612"
    },
    {
      "channel": 5,
      "note": 68,
      "start": 3.047,
      "duration": 0.1389,
      "velocity": 95,
      "chip": "ym2612"
    },
    {
      "channel": 4,
      "note": 61,
      "start": 3.3873,
      "duration": 0.0773,
      "velocity": 95,
      "chip": "ym2612"
    },
    {
      "channel": 5,
      "note": 68,
      "start": 3.3874,
      "duration": 0.0772,
      "velocity": 95,
      "chip": "ym2612"
    },
    {
      "channel": 4,
      "note": 61,
      "start": 3.5573,
      "duration": 0.0772,
      "velocity": 95,
      "chip": "ym2612"
    },
    {
      "channel": 5,
      "note": 68,
      "start": 3.5575,
      "duration": 0.0772,
      "velocity": 95,
      "chip": "ym2612"
    },
    {
      "channel": 4,
      "note": 61,
      "start": 3.7276,
      "duration": 0.0773,
      "velocity": 95,
      "chip": "ym2612"
    },
    {
      "channel": 5,
      "note": 68,
      "start": 3.7277,
      "duration": 0.0773,
      "velocity": 95,
      "chip": "ym2612"
    },
    {
      "channel": 4,
      "note": 61,
      "start": 3.8822,
      "duration": 0.0927,
      "velocity": 95,
      "chip": "ym2612"
    },
    {
      "channel": 5,
      "note": 68,
      "start": 3.8824,
      "duration": 0.0927,
      "velocity": 95,
      "chip": "ym2612"
    },
    {
      "channel": 3,
      "note": 92,
      "start": 4.0526,
      "duration": 0.0927,
      "velocity": 111,
      "chip": "ym2612"
    },
    {
      "channel": 4,
      "note": 61,
      "start": 4.0527,
      "duration": 0.1542,
      "velocity": 95,
      "chip": "ym2612"
    },
    {
      "channel": 5,
      "note": 68,
      "start": 4.0529,
      "duration": 0.1542,
      "velocity": 95,
      "chip": "ym2612"
    },
    {
      "channel": 3,
      "note": 95,
      "start": 4.1454,
      "duration": 0.0462,
      "velocity": 111,
      "chip": "ym2612"
    },
    {
      "channel": 3,
      "note": 97,
      "start": 4.1917,
      "duration": 1.5469,
      "velocity": 111,
      "chip": "ym2612"
    },
    {
      "channel": 2,
      "note": 92,
      "start": 4.2537,
      "duration": 0.0773,
      "velocity": 111,
      "chip": "ym2612"
    },
    {
      "channel": 2,
      "note": 95,
      "start": 4.3311,
      "duration": 0.0462,
      "velocity": 111,
      "chip": "ym2612"
    },
    {
      "channel": 2,
      "note": 97,
      "start": 4.3774,
      "duration": 1.5619,
      "velocity": 111,
      "chip": "ym2612"
    },
    {
      "channel": 4,
      "note": 61,
      "start": 4.3928,
      "duration": 0.0928,
      "velocity": 95,
      "chip": "ym2612"
    },
    {
      "channel": 5,
      "note": 68,
      "start": 4.3929,
      "duration": 0.0929,
      "velocity": 95,
      "chip": "ym2612"
    },
    {
      "channel": 0,
      "note": 76,
      "start": 4.5632,
      "duration": 0.1695,
      "velocity": 112,
      "chip": "ym2612"
    },
    {
      "channel": 1,
      "note": 80,
      "start": 4.5635,
      "duration": 0.1695,
      "velocity": 112,
      "chip": "ym2612"
    },
    {
      "channel": 4,
      "note": 61,
      "start": 4.5637,
      "duration": 0.0923,
      "velocity": 95,
      "chip": "ym2612"
    },
    {
      "channel": 5,
      "note": 68,
      "start": 4.5638,
      "duration": 0.0923,
      "velocity": 95,
      "chip": "ym2612"
    },
    {
      "channel": 0,
      "note": 76,
      "start": 4.7328,
      "duration": 0.1702,
      "velocity": 112,
      "chip": "ym2612"
    },
    {
      "channel": 1,
      "note": 80,
      "start": 4.733,
      "duration": 0.1702,
      "velocity": 112,
      "chip": "ym2612"
    },
    {
      "channel": 4,
      "note": 61,
      "start": 4.7336,
      "duration": 0.0771,
      "velocity": 95,
      "chip": "ym2612"
    },
    {
      "channel": 5,
      "note": 68,
      "start": 4.7337,
      "duration": 0.077,
      "velocity": 95,
      "chip": "ym2612"
    },
    {
      "channel": 0,
      "note": 76,
      "start": 4.9031,
      "duration": 0.1697,
      "velocity": 112,
      "chip": "ym2612"
    },
    {
      "channel": 1,
      "note": 80,
      "start": 4.9033,
      "duration": 0.1698,
      "velocity": 112,
      "chip": "ym2612"
    },
    {
      "channel": 4,
      "note": 61,
      "start": 4.9038,
      "duration": 0.0769,
      "velocity": 95,
      "chip": "ym2612"
    },
    {
      "channel": 5,
      "note": 68,
      "start": 4.9039,
      "duration": 0.0769,
      "velocity": 95,
      "chip": "ym2612"
    },
    {
      "channel": 0,
      "note": 76,
      "start": 5.073,
      "duration": 1.0056,
      "velocity": 112,
      "chip": "ym2612"
    },
    {
      "channel": 1,
      "note": 80,
      "start": 5.0731,
      "duration": 1.0057,
      "velocity": 112,
      "chip": "ym2612"
    },
    {
      "channel": 4,
      "note": 61,
      "start": 5.0736,
      "duration": 0.1389,
      "velocity": 95,
      "chip": "ym2612"
    },
    {
      "channel": 5,
      "note": 68,
      "start": 5.0737,
      "duration": 0.1388,
      "velocity": 95,
      "chip": "ym2612"
    },
    {
      "channel": 4,
      "note": 61,
      "start": 5.4136,
      "duration": 0.0774,
      "velocity": 95,
      "chip": "ym2612"
    },
    {
      "channel": 5,
      "note": 68,
      "start": 5.4138,
      "duration": 0.0773,
      "velocity": 95,
      "chip": "ym2612"
    },
    {
      "channel": 4,
      "note": 61,
      "start": 5.5837,
      "duration": 0.0776,
      "velocity": 95,
      "chip": "ym2612"
    },
    {
      "channel": 5,
      "note": 68,
      "start": 5.5838,
      "duration": 0.0775,
      "velocity": 95,
      "chip": "ym2612"
    },
    {
      "channel": 3,
      "note": 99,
      "start": 5.7386,
      "duration": 0.1701,
      "velocity": 111,
      "chip": "ym2612"
    },
    {
      "channel": 4,
      "note": 61,
      "start": 5.7388,
      "duration": 0.0922,
      "velocity": 95,
      "chip": "ym2612"
    },
    {
      "channel": 5,
      "note": 68,
      "start": 5.739,
      "duration": 0.0921,
      "velocity": 95,
      "chip": "ym2612"
    },
    {
      "channel": 3,
      "note": 95,
      "start": 5.9087,
      "duration": 0.1705,
      "velocity": 111,
      "chip": "ym2612"
    },
    {
      "channel": 4,
      "note": 61,
      "start": 5.9089,
      "duration": 0.0924,
      "velocity": 95,
      "chip": "ym2612"
    },
    {
      "channel": 5,
      "note": 68,
      "start": 5.9091,
      "duration": 0.0923,
      "velocity": 95,
      "chip": "ym2612"
    },
    {
      "channel": 2,
      "note": 99,
      "start": 5.9393,
      "duration": 0.1702,
      "velocity": 111,
      "chip": "ym2612"
    },
    {
      "channel": 0,
      "note": 76,
      "start": 6.0787,
      "duration": 0.3402,
      "velocity": 112,
      "chip": "ym2612"
    },
    {
      "channel": 1,
      "note": 80,
      "start": 6.0789,
      "duration": 0.3402,
      "velocity": 112,
      "chip": "ym2612"
    },
    {
      "channel": 3,
      "note": 97,
      "start": 6.0793,
      "duration": 1.0205,
      "velocity": 111,
      "chip": "ym2612"
    },
    {
      "channel": 4,
      "note": 61,
      "start": 6.0794,
      "duration": 0.154,
      "velocity": 95,
      "chip": "ym2612"
    },
    {
      "channel": 5,
      "note": 68,
      "start": 6.0796,
      "duration": 0.154,
      "velocity": 95,
      "chip": "ym2612"
    },
    {
      "channel": 2,
      "note": 95,
      "start": 6.1096,
      "duration": 0.17,
      "velocity": 111,
      "chip": "ym2612"
    },
    {
      "channel": 2,
      "note": 97,
      "start": 6.2797,
      "duration": 1.0055,
      "velocity": 111,
      "chip": "ym2612"
    },
    {
      "channel": 0,
      "note": 76,
      "start": 6.4189,
      "duration": 0.1702,
      "velocity": 112,
      "chip": "ym2612"
    },
    {
      "channel": 1,
      "note": 80,
      "start": 6.4191,
      "duration": 0.1703,
      "velocity": 112,
      "chip": "ym2612"
    },
    {
      "channel": 4,
      "note": 61,
      "start": 6.4194,
      "duration": 0.0925,
      "velocity": 95,
      "chip": "ym2612"
    },
    {
      "channel": 5,
      "note": 68,
      "start": 6.4196,
      "duration": 0.0924,
      "velocity": 95,
      "chip": "ym2612"
    },
    {
      "channel": 0,
      "note": 76,
      "start": 6.5893,
      "duration": 1.0053,
      "velocity": 112,
      "chip": "ym2612"
    },
    {
      "channel": 1,
      "note": 80,
      "start": 6.5895,
      "duration": 1.0054,
      "velocity": 112,
      "chip": "ym2612"
    },
    {
      "channel": 4,
      "note": 61,
      "start": 6.5898,
      "duration": 0.077,
      "velocity": 95,
      "chip": "ym2612"
    },
    {
      "channel": 5,
      "note": 68,
      "start": 6.59,
      "duration": 0.077,
      "velocity": 95,
      "chip": "ym2612"
    },
    {
      "channel": 4,
      "note": 61,
      "start": 6.7597,
      "duration": 0.0773,
      "velocity": 95,
      "chip": "ym2612"
    },
    {
      "channel": 5,
      "note": 68,
      "start": 6.7599,
      "duration": 0.0772,
      "velocity": 95,
      "chip": "ym2612"
    },
    {
      "channel": 4,
      "note": 61,
      "start": 6.9299,
      "duration": 0.0772,
      "velocity": 95,
      "chip": "ym2612"
    },
    {
      "channel": 5,
      "note": 68,
      "start": 6.93,
      "duration": 0.0772,
      "velocity": 95,
      "chip": "ym2612"
    },
    {
      "channel": 3,
      "note": 99,
      "start": 7.0999,
      "duration": 0.1702,
      "velocity": 111,
      "chip": "ym2612"
    },
    {
      "channel": 4,
      "note": 61,
      "start": 7.1001,
      "duration": 0.1387,
      "velocity": 95,
      "chip": "ym2612"
    },
    {
      "channel": 5,
      "note": 68,
      "start": 7.1003,
      "duration": 0.1386,
      "velocity": 95,
      "chip": "ym2612"
    },
    {
      "channel": 3,
      "note": 100,
      "start": 7.2701,
      "duration": 0.17,
      "velocity": 111,
      "chip": "ym2612"
    },
    {
      "channel": 2,
      "note": 99,
      "start": 7.2851,
      "duration": 0.1704,
      "velocity": 111,
      "chip": "ym2612"
    },
    {
      "channel": 3,
      "note": 99,
      "start": 7.4402,
      "duration": 0.1551,
      "velocity": 111,
      "chip": "ym2612"
    },
    {
      "channel": 4,
      "note": 61,
      "start": 7.4404,
      "duration": 0.0771,
      "velocity": 95,
      "chip": "ym2612"
    },
    {
      "channel": 5,
      "note": 68,
      "start": 7.4406,
      "duration": 0.077,
      "velocity": 95,
      "chip": "ym2612"
    },
    {
      "channel": 2,
      "note": 100,
      "start": 7.4556,
      "duration": 0.1699,
      "velocity": 111,
      "chip": "ym2612"
    },
    {
      "channel": 0,
      "note": 76,
      "start": 7.5947,
      "duration": 0.1697,
      "velocity": 112,
      "chip": "ym2612"
    },
    {
      "channel": 1,
      "note": 80,
      "start": 7.595,
      "duration": 0.1696,
      "velocity": 112,
      "chip": "ym2612"
    },
    {
      "channel": 3,
      "note": 97,
      "start": 7.5954,
      "duration": 0.1695,
      "velocity": 111,
      "chip": "ym2612"
    },
    {
      "channel": 4,
      "note": 61,
      "start": 7.5955,
      "duration": 0.0918,
      "velocity": 95,
      "chip": "ym2612"
    },
    {
      "channel": 5,
      "note": 68,
      "start": 7.5957,
      "duration": 0.0917,
      "velocity": 95,
      "chip": "ym2612"
    },
    {
      "channel": 2,
      "note": 99,
      "start": 7.6255,
      "duration": 0.1703,
      "velocity": 111,
      "chip": "ym2612"
    },
    {
      "channel": 0,
      "note": 76,
      "start": 7.7645,
      "duration": 0.1703,
      "velocity": 112,
      "chip": "ym2612"
    },
    {
      "channel": 1,
      "note": 80,
      "start": 7.7646,
      "duration": 0.1704,
      "velocity": 112,
      "chip": "ym2612"
    },
    {
      "channel": 3,
      "note": 95,
      "start": 7.7649,
      "duration": 0.1704,
      "velocity": 111,
      "chip": "ym2612"
    },
    {
      "channel": 4,
      "note": 61,
      "start": 7.7652,
      "duration": 0.0925,
      "velocity": 95,
      "chip": "ym2612"
    },
    {
      "channel": 5,
      "note": 68,
      "start": 7.7654,
      "duration": 0.0924,
      "velocity": 95,
      "chip": "ym2612"
    },
    {
      "channel": 2,
      "note": 97,
      "start": 7.7958,
      "duration": 0.17,
      "velocity": 111,
      "chip": "ym2612"
    },
    {
      "channel": 0,
      "note": 76,
      "start": 7.9348,
      "duration": 0.1698,
      "velocity": 112,
      "chip": "ym2612"
    },
    {
      "channel": 1,
      "note": 80,
      "start": 7.9351,
      "duration": 0.1697,
      "velocity": 112,
      "chip": "ym2612"
    },
    {
      "channel": 3,
      "note": 94,
      "start": 7.9354,
      "duration": 0.1696,
      "velocity": 111,
      "chip": "ym2612"
    },
    {
      "channel": 4,
      "note": 61,
      "start": 7.9355,
      "duration": 0.0921,
      "velocity": 95,
      "chip": "ym2612"
    },
    {
      "channel": 5,
      "note": 68,
      "start": 7.9357,
      "duration": 0.092,
      "velocity": 95,
      "chip": "ym2612"
    },
    {
      "channel": 2,
      "note": 95,
      "start": 7.9659,
      "duration": 0.17,
      "velocity": 111,
      "chip": "ym2612"
    },
    {
      "channel": 3,
      "note": 92,
      "start": 8.1051,
      "duration": 1.6859,
      "velocity": 111,
      "chip": "ym2612"
    },
    {
      "channel": 4,
      "note": 61,
      "start": 8.1052,
      "duration": 0.1543,
      "velocity": 95,
      "chip": "ym2612"
    },
    {
      "channel": 5,
      "note": 68,
      "start": 8.1054,
      "duration": 0.1543,
      "velocity": 95,
      "chip": "ym2612"
    },
    {
      "channel": 2,
      "note": 94,
      "start": 8.136,
      "duration": 0.1548,
      "velocity": 111,
      "chip": "ym2612"
    },
    {
      "channel": 2,
      "note": 92,
      "start": 8.2907,
      "duration": 1.7011,
      "velocity": 111,
      "chip": "ym2612"
    },
    {
      "channel": 4,
      "note": 61,
      "start": 8.4453,
      "duration": 0.0774,
      "velocity": 95,
      "chip": "ym2612"
    },
    {
      "channel": 5,
      "note": 68,
      "start": 8.4455,
      "duration": 0.0773,
      "velocity": 95,
      "chip": "ym2612"
    },
    {
      "channel": 0,
      "note": 76,
      "start": 8.6153,
      "duration": 0.17,
      "velocity": 112,
      "chip": "ym2612"
    },
    {
      "channel": 1,
      "note": 80,
      "start": 8.6156,
      "duration": 0.17,
      "velocity": 112,
      "chip": "ym2612"
    },
    {
      "channel": 4,
      "note": 61,
      "start": 8.616,
      "duration": 0.0769,
      "velocity": 95,
      "chip": "ym2612"
    },
    {
      "channel": 5,
      "note": 68,
      "start": 8.6162,
      "duration": 0.0768,
      "velocity": 95,
      "chip": "ym2612"
    },
    {
      "channel": 0,
      "note": 76,
      "start": 8.7853,
      "duration": 0.1698,
      "velocity": 112,
      "chip": "ym2612"
    },
    {
      "channel": 1,
      "note": 80,
      "start": 8.7856,
      "duration": 0.1698,
      "velocity": 112,
      "chip": "ym2612"
    },
    {
      "channel": 4,
      "note": 61,
      "start": 8.7861,
      "duration": 0.0768,
      "velocity": 95,
      "chip": "ym2612"
    },
    {
      "channel": 5,
      "note": 68,
      "start": 8.7863,
      "duration": 0.0768,
      "velocity": 95,
      "chip": "ym2612"
    },
    {
      "channel": 0,
      "note": 76,
      "start": 8.9553,
      "duration": 0.1701,
      "velocity": 112,
      "chip": "ym2612"
    },
    {
      "channel": 1,
      "note": 80,
      "start": 8.9554,
      "duration": 0.1702,
      "velocity": 112,
      "chip": "ym2612"
    },
    {
      "channel": 4,
      "note": 61,
      "start": 8.9556,
      "duration": 0.0773,
      "velocity": 95,
      "chip": "ym2612"
    },
    {
      "channel": 5,
      "note": 68,
      "start": 8.9558,
      "duration": 0.0772,
      "velocity": 95,
      "chip": "ym2612"
    },
    {
      "channel": 0,
      "note": 76,
      "start": 9.1254,
      "duration": 1.0055,
      "velocity": 112,
      "chip": "ym2612"
    },
    {
      "channel": 1,
      "note": 80,
      "start": 9.1257,
      "duration": 1.0056,
      "velocity": 112,
      "chip": "ym2612"
    },
    {
      "channel": 4,
      "note": 61,
      "start": 9.1261,
      "duration": 0.1387,
      "velocity": 95,
      "chip": "ym2612"
    },
    {
      "channel": 5,
      "note": 68,
      "start": 9.1263,
      "duration": 0.1386,
      "velocity": 95,
      "chip": "ym2612"
    },
    {
      "channel": 4,
      "note": 61,
      "start": 9.4503,
      "duration": 0.093,
      "velocity": 95,
      "chip": "ym2612"
    },
    {
      "channel": 5,
      "note": 68,
      "start": 9.4505,
      "duration": 0.0929,
      "velocity": 95,
      "chip": "ym2612"
    },
    {
      "channel": 4,
      "note": 61,
      "start": 9.6208,
      "duration": 0.0926,
      "velocity": 95,
      "chip": "ym2612"
    },
    {
      "channel": 5,
      "note": 68,
      "start": 9.6209,
      "duration": 0.0926,
      "velocity": 95,
      "chip": "ym2612"
    },
    {
      "channel": 3,
      "note": 94,
      "start": 9.7911,
      "duration": 0.17,
      "velocity": 111,
      "chip": "ym2612"
    },
    {
      "channel": 4,
      "note": 61,
      "start": 9.7912,
      "duration": 0.0924,
      "velocity": 95,
      "chip": "ym2612"
    },
    {
      "channel": 5,
      "note": 68,
      "start": 9.7913,
      "duration": 0.0923,
      "velocity": 95,
      "chip": "ym2612"
    },
    {
      "channel": 3,
      "note": 90,
      "start": 9.9611,
      "duration": 0.1705,
      "velocity": 111,
      "chip": "ym2612"
    },
    {
      "channel": 4,
      "note": 61,
      "start": 9.9613,
      "duration": 0.0924,
      "velocity": 95,
      "chip": "ym2612"
    },
    {
      "channel": 5,
      "note": 68,
      "start": 9.9615,
      "duration": 0.0923,
      "velocity": 95,
      "chip": "ym2612"
    },
    {
      "channel": 2,
      "note": 94,
      "start": 9.9919,
      "duration": 0.1546,
      "velocity": 111,
      "chip": "ym2612"
    },
    {
      "channel": 0,
      "note": 76,
      "start": 10.1311,
      "duration": 0.3405,
      "velocity": 112,
      "chip": "ym2612"
    },
    {
      "channel": 1,
      "note": 80,
      "start": 10.1313,
      "duration": 0.3403,
      "velocity": 112,
      "chip": "ym2612"
    },
    {
      "channel": 3,
      "note": 92,
      "start": 10.1318,
      "duration": 1.021,
      "velocity": 111,
      "chip": "ym2612"
    },
    {
      "channel": 4,
      "note": 61,
      "start": 10.132,
      "duration": 0.1539,
      "velocity": 95,
      "chip": "ym2612"
    },
    {
      "channel": 5,
      "note": 68,
      "start": 10.1321,
      "duration": 0.1539,
      "velocity": 95,
      "chip": "ym2612"
    },
    {
      "channel": 2,
      "note": 90,
      "start": 10.1466,
      "duration": 0.1703,
      "velocity": 111,
      "chip": "ym2612"
    },
    {
      "channel": 2,
      "note": 92,
      "start": 10.3169,
      "duration": 1.0213,
      "velocity": 111,
      "chip": "ym2612"
    },
    {
      "channel": 0,
      "note": 76,
      "start": 10.4716,
      "duration": 0.17,
      "velocity": 112,
      "chip": "ym2612"
    },
    {
      "channel": 1,
      "note": 80,
      "start": 10.4717,
      "duration": 0.1702,
      "velocity": 112,
      "chip": "ym2612"
    },
    {
      "channel": 4,
      "note": 61,
      "start": 10.4721,
      "duration": 0.0771,
      "velocity": 95,
      "chip": "ym2612"
    },
    {
      "channel": 5,
      "note": 68,
      "start": 10.4723,
      "duration": 0.0771,
      "velocity": 95,
      "chip": "ym2612"
    },
    {
      "channel": 0,
      "note": 76,
      "start": 10.6418,
      "duration": 1.0053,
      "velocity": 112,
      "chip": "ym2612"
    },
    {
      "channel": 1,
      "note": 80,
      "start": 10.642,
      "duration": 1.0054,
      "velocity": 112,
      "chip": "ym2612"
    },
    {
      "channel": 4,
      "note": 61,
      "start": 10.6425,
      "duration": 0.0768,
      "velocity": 95,
      "chip": "ym2612"
    },
    {
      "channel": 5,
      "note": 68,
      "start": 10.6427,
      "duration": 0.0768,
      "velocity": 95,
      "chip": "ym2612"
    },
    {
      "channel": 4,
      "note": 61,
      "start": 10.8122,
      "duration": 0.0774,
      "velocity": 95,
      "chip": "ym2612"
    },
    {
      "channel": 5,
      "note": 68,
      "start": 10.8124,
      "duration": 0.0774,
      "velocity": 95,
      "chip": "ym2612"
    },
    {
      "channel": 4,
      "note": 61,
      "start": 10.9824,
      "duration": 0.0777,
      "velocity": 95,
      "chip": "ym2612"
    },
    {
      "channel": 5,
      "note": 68,
      "start": 10.9825,
      "duration": 0.0776,
      "velocity": 95,
      "chip": "ym2612"
    },
    {
      "channel": 3,
      "note": 87,
      "start": 11.1527,
      "duration": 0.1547,
      "velocity": 111,
      "chip": "ym2612"
    },
    {
      "channel": 4,
      "note": 61,
      "start": 11.153,
      "duration": 0.1386,
      "velocity": 95,
      "chip": "ym2612"
    },
    {
      "channel": 5,
      "note": 68,
      "start": 11.1531,
      "duration": 0.1385,
      "velocity": 95,
      "chip": "ym2612"
    },
    {
      "channel": 3,
      "note": 88,
      "start": 11.3075,
      "duration": 0.1697,
      "velocity": 111,
      "chip": "ym2612"
    },
    {
      "channel": 2,
      "note": 87,
      "start": 11.3383,
      "duration": 0.1698,
      "velocity": 111,
      "chip": "ym2612"
    },
    {
      "channel": 3,
      "note": 90,
      "start": 11.4773,
      "duration": 0.1704,
      "velocity": 111,
      "chip": "ym2612"
    },
    {
      "channel": 4,
      "note": 61,
      "start": 11.4775,
      "duration": 0.0924,
      "velocity": 95,
      "chip": "ym2612"
    },
    {
      "channel": 5,
      "note": 68,
      "start": 11.4776,
      "duration": 0.0924,
      "velocity": 95,
      "chip": "ym2612"
    },
    {
      "channel": 2,
      "note": 88,
      "start": 11.5082,
      "duration": 0.1697,
      "velocity": 111,
      "chip": "ym2612"
    },
    {
      "channel": 0,
      "note": 76,
      "start": 11.6472,
      "duration": 0.1698,
      "velocity": 112,
      "chip": "ym2612"
    },
    {
      "channel": 1,
      "note": 80,
      "start": 11.6475,
      "duration": 0.1698,
      "velocity": 112,
      "chip": "ym2612"
    },
    {
      "channel": 3,
      "note": 92,
      "start": 11.6478,
      "duration": 0.1698,
      "velocity": 111,
      "chip": "ym2612"
    },
    {
      "channel": 4,
      "note": 61,
      "start": 11.6479,
      "duration": 0.092,
      "velocity": 95,
      "chip": "ym2612"
    },
    {
      "channel": 5,
      "note": 68,
      "start": 11.6481,
      "duration": 0.092,
      "velocity": 95,
      "chip": "ym2612"
    },
    {
      "channel": 2,
      "note": 90,
      "start": 11.678,
      "duration": 0.1703,
      "velocity": 111,
      "chip": "ym2612"
    },
    {
      "channel": 0,
      "note": 76,
      "start": 11.8171,
      "duration": 0.1701,
      "velocity": 112,
      "chip": "ym2612"
    },
    {
      "channel": 1,
      "note": 80,
      "start": 11.8173,
      "duration": 0.1702,
      "velocity": 112,
      "chip": "ym2612"
    },
    {
      "channel": 3,
      "note": 94,
      "start": 11.8176,
      "duration": 0.1702,
      "velocity": 111,
      "chip": "ym2612"
    },
    {
      "channel": 4,
      "note": 61,
      "start": 11.8178,
      "duration": 0.0924,
      "velocity": 95,
      "chip": "ym2612"
    },
    {
      "channel": 5,
      "note": 68,
      "start": 11.8179,
      "duration": 0.0924,
      "velocity": 95,
      "chip": "ym2612"
    },
    {
      "channel": 2,
      "note": 92,
      "start": 11.8483,
      "duration": 0.1546,
      "velocity": 111,
      "chip": "ym2612"
    },
    {
      "channel": 0,
      "note": 76,
      "start": 11.9874,
      "duration": 0.1701,
      "velocity": 112,
      "chip": "ym2612"
    },
    {
      "channel": 1,
      "note": 80,
      "start": 11.9875,
      "duration": 0.1701,
      "velocity": 112,
      "chip": "ym2612"
    },
    {
      "channel": 3,
      "note": 95,
      "start": 11.9878,
      "duration": 0.17,
      "velocity": 111,
      "chip": "ym2612"
    },
    {
      "channel": 4,
      "note": 61,
      "start": 11.988,
      "duration": 0.0922,
      "velocity": 95,
      "chip": "ym2612"
    },
    {
      "channel": 5,
      "note": 68,
      "start": 11.9881,
      "duration": 0.0923,
      "velocity": 95,
      "chip": "ym2612"
    },
    {
      "channel": 2,
      "note": 94,
      "start": 12.003,
      "duration": 0.1701,
      "velocity": 111,
      "chip": "ym2612"
    },
    {
      "channel": 3,
      "note": 97,
      "start": 12.1579,
      "duration": 1.6864,
      "velocity": 111,
      "chip": "ym2612"
    },
    {
      "channel": 4,
      "note": 61,
      "start": 12.158,
      "duration": 0.1542,
      "velocity": 95,
      "chip": "ym2612"
    },
    {
      "channel": 5,
      "note": 68,
      "start": 12.1582,
      "duration": 0.1542,
      "velocity": 95,
      "chip": "ym2612"
    },
    {
      "channel": 2,
      "note": 95,
      "start": 12.1732,
      "duration": 0.1701,
      "velocity": 111,
      "chip": "ym2612"
    },
    {
      "channel": 2,
      "note": 97,
      "start": 12.3433,
      "duration": 1.6866,
      "velocity": 111,
      "chip": "ym2612"
    },
    {
      "channel": 4,
      "note": 61,
      "start": 12.4979,
      "duration": 0.0773,
      "velocity": 95,
      "chip": "ym2612"
    },
    {
      "channel": 5,
      "note": 68,
      "start": 12.4981,
      "duration": 0.0772,
      "velocity": 95,
      "chip": "ym2612"
    },
    {
      "channel": 0,
      "note": 76,
      "start": 12.6678,
      "duration": 0.1702,
      "velocity": 112,
      "chip": "ym2612"
    },
    {
      "channel": 1,
      "note": 80,
      "start": 12.668,
      "duration": 0.1701,
      "velocity": 112,
      "chip": "ym2612"
    },
    {
      "channel": 4,
      "note": 61,
      "start": 12.6685,
      "duration": 0.0769,
      "velocity": 95,
      "chip": "ym2612"
    },
    {
      "channel": 5,
      "note": 68,
      "start": 12.6687,
      "duration": 0.0768,
      "velocity": 95,
      "chip": "ym2612"
    },
    {
      "channel": 0,
      "note": 76,
      "start": 12.838,
      "duration": 0.17,
      "velocity": 112,
      "chip": "ym2612"
    },
    {
      "channel": 1,
      "note": 80,
      "start": 12.8382,
      "duration": 0.17,
      "velocity": 112,
      "chip": "ym2612"
    },
    {
      "channel": 4,
      "note": 61,
      "start": 12.8386,
      "duration": 0.077,
      "velocity": 95,
      "chip": "ym2612"
    },
    {
      "channel": 5,
      "note": 68,
      "start": 12.8388,
      "duration": 0.0769,
      "velocity": 95,
      "chip": "ym2612"
    },
    {
      "channel": 0,
      "note": 76,
      "start": 13.0081,
      "duration": 0.1545,
      "velocity": 112,
      "chip": "ym2612"
    },
    {
      "channel": 1,
      "note": 80,
      "start": 13.0082,
      "duration": 0.1546,
      "velocity": 112,
      "chip": "ym2612"
    },
    {
      "channel": 4,
      "note": 61,
      "start": 13.0085,
      "duration": 0.0773,
      "velocity": 95,
      "chip": "ym2612"
    },
    {
      "channel": 5,
      "note": 68,
      "start": 13.0087,
      "duration": 0.0772,
      "velocity": 95,
      "chip": "ym2612"
    },
    {
      "channel": 0,
      "note": 76,
      "start": 13.1627,
      "duration": 1.0217,
      "velocity": 112,
      "chip": "ym2612"
    },
    {
      "channel": 1,
      "note": 80,
      "start": 13.1629,
      "duration": 1.0219,
      "velocity": 112,
      "chip": "ym2612"
    },
    {
      "channel": 4,
      "note": 61,
      "start": 13.1634,
      "duration": 0.1545,
      "velocity": 95,
      "chip": "ym2612"
    },
    {
      "channel": 5,
      "note": 68,
      "start": 13.1635,
      "duration": 0.1545,
      "velocity": 95,
      "chip": "ym2612"
    },
    {
      "channel": 4,
      "note": 61,
      "start": 13.5036,
      "duration": 0.093,
      "velocity": 95,
      "chip": "ym2612"
    },
    {
      "channel": 5,
      "note": 68,
      "start": 13.5038,
      "duration": 0.0929,
      "velocity": 95,
      "chip": "ym2612"
    },
    {
      "channel": 4,
      "note": 61,
      "start": 13.6741,
      "duration": 0.0928,
      "velocity": 95,
      "chip": "ym2612"
    },
    {
      "channel": 5,
      "note": 68,
      "start": 13.6743,
      "duration": 0.0926,
      "velocity": 95,
      "chip": "ym2612"
    },
    {
      "channel": 3,
      "note": 99,
      "start": 13.8443,
      "duration": 0.1703,
      "velocity": 111,
      "chip": "ym2612"
    },
    {
      "channel": 4,
      "note": 61,
      "start": 13.8445,
      "duration": 0.0925,
      "velocity": 95,
      "chip": "ym2612"
    },
    {
      "channel": 5,
      "note": 68,
      "start": 13.8447,
      "duration": 0.0924,
      "velocity": 95,
      "chip": "ym2612"
    },
    {
      "channel": 3,
      "note": 95,
      "start": 14.0146,
      "duration": 0.1705,
      "velocity": 111,
      "chip": "ym2612"
    },
    {
      "channel": 4,
      "note": 61,
      "start": 14.0148,
      "duration": 0.0771,
      "velocity": 95,
      "chip": "ym2612"
    },
    {
      "channel": 5,
      "note": 68,
      "start": 14.015,
      "duration": 0.077,
      "velocity": 95,
      "chip": "ym2612"
    },
    {
      "channel": 2,
      "note": 99,
      "start": 14.0299,
      "duration": 0.17,
      "velocity": 111,
      "chip": "ym2612"
    },
    {
      "channel": 0,
      "note": 76,
      "start": 14.1846,
      "duration": 0.3406,
      "velocity": 112,
      "chip": "ym2612"
    },
    {
      "channel": 1,
      "note": 80,
      "start": 14.1848,
      "duration": 0.3406,
      "velocity": 112,
      "chip": "ym2612"
    },
    {
      "channel": 3,
      "note": 97,
      "start": 14.1852,
      "duration": 1.0056,
      "velocity": 111,
      "chip": "ym2612"
    },
    {
      "channel": 4,
      "note": 61,
      "start": 14.1853,
      "duration": 0.1384,
      "velocity": 95,
      "chip": "ym2612"
    },
    {
      "channel": 5,
      "note": 68,
      "start": 14.1855,
      "duration": 0.1384,
      "velocity": 95,
      "chip": "ym2612"
    },
    {
      "channel": 2,
      "note": 95,
      "start": 14.2,
      "duration": 0.1702,
      "velocity": 111,
      "chip": "ym2612"
    },
    {
      "channel": 2,
      "note": 97,
      "start": 14.3703,
      "duration": 1.0212,
      "velocity": 111,
      "chip": "ym2612"
    },
    {
      "channel": 0,
      "note": 76,
      "start": 14.5252,
      "duration": 0.17,
      "velocity": 112,
      "chip": "ym2612"
    },
    {
      "channel": 1,
      "note": 80,
      "start": 14.5254,
      "duration": 0.1702,
      "velocity": 112,
      "chip": "ym2612"
    },
    {
      "channel": 4,
      "note": 61,
      "start": 14.5257,
      "duration": 0.077,
      "velocity": 95,
      "chip": "ym2612"
    },
    {
      "channel": 5,
      "note": 68,
      "start": 14.5259,
      "duration": 0.077,
      "velocity": 95,
      "chip": "ym2612"
    },
    {
      "channel": 0,
      "note": 76,
      "start": 14.6954,
      "duration": 1.0053,
      "velocity": 112,
      "chip": "ym2612"
    },
    {
      "channel": 1,
      "note": 80,
      "start": 14.6956,
      "duration": 1.0054,
      "velocity": 112,
      "chip": "ym2612"
    },
    {
      "channel": 4,
      "note": 61,
      "start": 14.6962,
      "duration": 0.0768,
      "velocity": 95,
      "chip": "ym2612"
    },
    {
      "channel": 5,
      "note": 68,
      "start": 14.6963,
      "duration": 0.0768,
      "velocity": 95,
      "chip": "ym2612"
    },
    {
      "channel": 4,
      "note": 61,
      "start": 14.866,
      "duration": 0.0775,
      "velocity": 95,
      "chip": "ym2612"
    },
    {
      "channel": 5,
      "note": 68,
      "start": 14.8662,
      "duration": 0.0775,
      "velocity": 95,
      "chip": "ym2612"
    },
    {
      "channel": 4,
      "note": 61,
      "start": 15.0207,
      "duration": 0.0929,
      "velocity": 95,
      "chip": "ym2612"
    },
    {
      "channel": 5,
      "note": 68,
      "start": 15.0209,
      "duration": 0.0929,
      "velocity": 95,
      "chip": "ym2612"
    },
    {
      "channel": 3,
      "note": 99,
      "start": 15.1908,
      "duration": 0.1702,
      "velocity": 111,
      "chip": "ym2612"
    },
    {
      "channel": 4,
      "note": 61,
      "start": 15.191,
      "duration": 0.154,
      "velocity": 95,
      "chip": "ym2612"
    },
    {
      "channel": 5,
      "note": 68,
      "start": 15.1912,
      "duration": 0.154,
      "velocity": 95,
      "chip": "ym2612"
    },
    {
      "channel": 3,
      "note": 100,
      "start": 15.3611,
      "duration": 0.1697,
      "velocity": 111,
      "chip": "ym2612"
    },
    {
      "channel": 2,
      "note": 99,
      "start": 15.3915,
      "duration": 0.1702,
      "velocity": 111,
      "chip": "ym2612"
    },
    {
      "channel": 3,
      "note": 99,
      "start": 15.5308,
      "duration": 0.1705,
      "velocity": 111,
      "chip": "ym2612"
    },
    {
      "channel": 4,
      "note": 61,
      "start": 15.531,
      "duration": 0.0923,
      "velocity": 95,
      "chip": "ym2612"
    },
    {
      "channel": 5,
      "note": 68,
      "start": 15.5312,
      "duration": 0.0923,
      "velocity": 95,
      "chip": "ym2612"
    },
    {
      "channel": 2,
      "note": 100,
      "start": 15.5617,
      "duration": 0.1545,
      "velocity": 111,
      "chip": "ym2612"
    },
    {
      "channel": 0,
      "note": 76,
      "start": 15.7007,
      "duration": 0.1699,
      "velocity": 112,
      "chip": "ym2612"
    },
    {
      "channel": 1,
      "note": 80,
      "start": 15.701,
      "duration": 0.1697,
      "velocity": 112,
      "chip": "ym2612"
    },
    {
      "channel": 3,
      "note": 97,
      "start": 15.7015,
      "duration": 0.1696,
      "velocity": 111,
      "chip": "ym2612"
    },
    {
      "channel": 4,
      "note": 61,
      "start": 15.7015,
      "duration": 0.0919,
      "velocity": 95,
      "chip": "ym2612"
    },
    {
      "channel": 5,
      "note": 68,
      "start": 15.7017,
      "duration": 0.0919,
      "velocity": 95,
      "chip": "ym2612"
    },
    {
      "channel": 2,
      "note": 99,
      "start": 15.7162,
      "duration": 0.1702,
      "velocity": 111,
      "chip": "ym2612"
    },
    {
      "channel": 0,
      "note": 76,
      "start": 15.8706,
      "duration": 0.17,
      "velocity": 112,
      "chip": "ym2612"
    },
    {
      "channel": 1,
      "note": 80,
      "start": 15.8708,
      "duration": 0.1702,
      "velocity": 112,
      "chip": "ym2612"
    },
    {
      "channel": 3,
      "note": 95,
      "start": 15.8711,
      "duration": 0.1702,
      "velocity": 111,
      "chip": "ym2612"
    },
    {
      "channel": 4,
      "note": 61,
      "start": 15.8713,
      "duration": 0.0767,
      "velocity": 95,
      "chip": "ym2612"
    },
    {
      "channel": 5,
      "note": 68,
      "start": 15.8715,
      "duration": 0.0767,
      "velocity": 95,
      "chip": "ym2612"
    },
    {
      "channel": 2,
      "note": 97,
      "start": 15.8864,
      "duration": 0.1698,
      "velocity": 111,
      "chip": "ym2612"
    },
    {
      "channel": 0,
      "note": 76,
      "start": 16.0407,
      "duration": 0.1699,
      "velocity": 112,
      "chip": "ym2612"
    },
    {
      "channel": 1,
      "note": 80,
      "start": 16.041,
      "duration": 0.1697,
      "velocity": 112,
      "chip": "ym2612"
    },
    {
      "channel": 3,
      "note": 94,
      "start": 16.0414,
      "duration": 0.1697,
      "velocity": 111,
      "chip": "ym2612"
    },
    {
      "channel": 4,
      "note": 61,
      "start": 16.0415,
      "duration": 0.0766,
      "velocity": 95,
      "chip": "ym2612"
    },
    {
      "channel": 5,
      "note": 68,
      "start": 16.0416,
      "duration": 0.0766,
      "velocity": 95,
      "chip": "ym2612"
    },
    {
      "channel": 2,
      "note": 95,
      "start": 16.0563,
      "duration": 0.1699,
      "velocity": 111,
      "chip": "ym2612"
    },
    {
      "channel": 3,
      "note": 92,
      "start": 16.2111,
      "duration": 1.6861,
      "velocity": 111,
      "chip": "ym2612"
    },
    {
      "channel": 4,
      "note": 61,
      "start": 16.2112,
      "duration": 0.1391,
      "velocity": 95,
      "chip": "ym2612"
    },
    {
      "channel": 5,
      "note": 68,
      "start": 16.2113,
      "duration": 0.1391,
      "velocity": 95,
      "chip": "ym2612"
    },
    {
      "channel": 2,
      "note": 94,
      "start": 16.2263,
      "duration": 0.1702,
      "velocity": 111,
      "chip": "ym2612"
    },
    {
      "channel": 2,
      "note": 92,
      "start": 16.3966,
      "duration": 1.6858,
      "velocity": 111,
      "chip": "ym2612"
    },
    {
      "channel": 4,
      "note": 61,
      "start": 16.551,
      "duration": 0.0773,
      "velocity": 95,
      "chip": "ym2612"
    },
    {
      "channel": 5,
      "note": 68,
      "start": 16.5511,
      "duration": 0.0773,
      "velocity": 95,
      "chip": "ym2612"
    },
    {
      "channel": 0,
      "note": 76,
      "start": 16.7208,
      "duration": 0.1548,
      "velocity": 112,
      "chip": "ym2612"
    },
    {
      "channel": 1,
      "note": 80,
      "start": 16.721,
      "duration": 0.1547,
      "velocity": 112,
      "chip": "ym2612"
    },
    {
      "channel": 4,
      "note": 61,
      "start": 16.7215,
      "duration": 0.0771,
      "velocity": 95,
      "chip": "ym2612"
    },
    {
      "channel": 5,
      "note": 68,
      "start": 16.7217,
      "duration": 0.0769,
      "velocity": 95,
      "chip": "ym2612"
    },
    {
      "channel": 0,
      "note": 76,
      "start": 16.8757,
      "duration": 0.1698,
      "velocity": 112,
      "chip": "ym2612"
    },
    {
      "channel": 1,
      "note": 80,
      "start": 16.8758,
      "duration": 0.1699,
      "velocity": 112,
      "chip": "ym2612"
    },
    {
      "channel": 4,
      "note": 61,
      "start": 16.8762,
      "duration": 0.0922,
      "velocity": 95,
      "chip": "ym2612"
    },
    {
      "channel": 5,
      "note": 68,
      "start": 16.8763,
      "duration": 0.0923,
      "velocity": 95,
      "chip": "ym2612"
    },
    {
      "channel": 0,
      "note": 76,
      "start": 17.0456,
      "duration": 0.1702,
      "velocity": 112,
      "chip": "ym2612"
    },
    {
      "channel": 1,
      "note": 80,
      "start": 17.0457,
      "duration": 0.1704,
      "velocity": 112,
      "chip": "ym2612"
    },
    {
      "channel": 4,
      "note": 61,
      "start": 17.0461,
      "duration": 0.0928,
      "velocity": 95,
      "chip": "ym2612"
    },
    {
      "channel": 5,
      "note": 68,
      "start": 17.0463,
      "duration": 0.0927,
      "velocity": 95,
      "chip": "ym2612"
    },
    {
      "channel": 0,
      "note": 76,
      "start": 17.216,
      "duration": 1.0208,
      "velocity": 112,
      "chip": "ym2612"
    },
    {
      "channel": 1,
      "note": 80,
      "start": 17.2162,
      "duration": 1.0209,
      "velocity": 112,
      "chip": "ym2612"
    },
    {
      "channel": 4,
      "note": 61,
      "start": 17.2168,
      "duration": 0.1541,
      "velocity": 95,
      "chip": "ym2612"
    },
    {
      "channel": 5,
      "note": 68,
      "start": 17.217,
      "duration": 0.154,
      "velocity": 95,
      "chip": "ym2612"
    },
    {
      "channel": 4,
      "note": 61,
      "start": 17.5566,
      "duration": 0.0929,
      "velocity": 95,
      "chip": "ym2612"
    },
    {
      "channel": 5,
      "note": 68,
      "start": 17.5567,
      "duration": 0.0929,
      "velocity": 95,
      "chip": "ym2612"
    },
    {
      "channel": 4,
      "note": 61,
      "start": 17.7268,
      "duration": 0.0771,
      "velocity": 95,
      "chip": "ym2612"
    },
    {
      "channel": 5,
      "note": 68,
      "start": 17.727,
      "duration": 0.077,
      "velocity": 95,
      "chip": "ym2612"
    },
    {
      "channel": 3,
      "note": 94,
      "start": 17.8972,
      "duration": 0.1698,
      "velocity": 111,
      "chip": "ym2612"
    },
    {
      "channel": 4,
      "note": 61,
      "start": 17.8973,
      "duration": 0.0767,
      "velocity": 95,
      "chip": "ym2612"
    },
    {
      "channel": 5,
      "note": 68,
      "start": 17.8975,
      "duration": 0.0767,
      "velocity": 95,
      "chip": "ym2612"
    },
    {
      "channel": 3,
      "note": 90,
      "start": 18.067,
      "duration": 0.1705,
      "velocity": 111,
      "chip": "ym2612"
    },
    {
      "channel": 4,
      "note": 61,
      "start": 18.0671,
      "duration": 0.0771,
      "velocity": 95,
      "chip": "ym2612"
    },
    {
      "channel": 5,
      "note": 68,
      "start": 18.0673,
      "duration": 0.077,
      "velocity": 95,
      "chip": "ym2612"
    },
    {
      "channel": 2,
      "note": 94,
      "start": 18.0824,
      "duration": 0.1698,
      "velocity": 111,
      "chip": "ym2612"
    },
    {
      "channel": 0,
      "note": 76,
      "start": 18.2369,
      "duration": 0.3404,
      "velocity": 112,
      "chip": "ym2612"
    },
    {
      "channel": 1,
      "note": 80,
      "start": 18.2371,
      "duration": 0.3403,
      "velocity": 112,
      "chip": "ym2612"
    },
    {
      "channel": 3,
      "note": 92,
      "start": 18.2375,
      "duration": 1.0049,
      "velocity": 111,
      "chip": "ym2612"
    },
    {
      "channel": 4,
      "note": 61,
      "start": 18.2377,
      "duration": 0.1383,
      "velocity": 95,
      "chip": "ym2612"
    },
    {
      "channel": 5,
      "note": 68,
      "start": 18.2379,
      "duration": 0.1383,
      "velocity": 95,
      "chip": "ym2612"
    },
    {
      "channel": 2,
      "note": 90,
      "start": 18.2524,
      "duration": 0.1703,
      "velocity": 111,
      "chip": "ym2612"
    },
    {
      "channel": 2,
      "note": 92,
      "start": 18.4227,
      "duration": 1.0052,
      "velocity": 111,
      "chip": "ym2612"
    },
    {
      "channel": 0,
      "note": 76,
      "start": 18.5774,
      "duration": 0.1545,
      "velocity": 112,
      "chip": "ym2612"
    },
    {
      "channel": 1,
      "note": 80,
      "start": 18.5776,
      "duration": 0.1546,
      "velocity": 112,
      "chip": "ym2612"
    },
    {
      "channel": 4,
      "note": 61,
      "start": 18.578,
      "duration": 0.0771,
      "velocity": 95,
      "chip": "ym2612"
    },
    {
      "channel": 5,
      "note": 68,
      "start": 18.5781,
      "duration": 0.0769,
      "velocity": 95,
      "chip": "ym2612"
    },
    {
      "channel": 0,
      "note": 76,
      "start": 18.7321,
      "duration": 1.0204,
      "velocity": 112,
      "chip": "ym2612"
    },
    {
      "channel": 1,
      "note": 80,
      "start": 18.7323,
      "duration": 1.0205,
      "velocity": 112,
      "chip": "ym2612"
    },
    {
      "channel": 4,
      "note": 61,
      "start": 18.7325,
      "duration": 0.0926,
      "velocity": 95,
      "chip": "ym2612"
    },
    {
      "channel": 5,
      "note": 68,
      "start": 18.7327,
      "duration": 0.0925,
      "velocity": 95,
      "chip": "ym2612"
    },
    {
      "channel": 4,
      "note": 61,
      "start": 18.9023,
      "duration": 0.0929,
      "velocity": 95,
      "chip": "ym2612"
    },
    {
      "channel": 5,
      "note": 68,
      "start": 18.9024,
      "duration": 0.0928,
      "velocity": 95,
      "chip": "ym2612"
    },
    {
      "channel": 4,
      "note": 61,
      "start": 19.0726,
      "duration": 0.0926,
      "velocity": 95,
      "chip": "ym2612"
    },
    {
      "channel": 5,
      "note": 68,
      "start": 19.0727,
      "duration": 0.0926,
      "velocity": 95,
      "chip": "ym2612"
    },
    {
      "channel": 3,
      "note": 94,
      "start": 19.2424,
      "duration": 0.17,
      "velocity": 111,
      "chip": "ym2612"
    },
    {
      "channel": 4,
      "note": 61,
      "start": 19.2427,
      "duration": 0.1541,
      "velocity": 95,
      "chip": "ym2612"
    },
    {
      "channel": 5,
      "note": 68,
      "start": 19.2429,
      "duration": 0.154,
      "velocity": 95,
      "chip": "ym2612"
    },
    {
      "channel": 3,
      "note": 95,
      "start": 19.4124,
      "duration": 0.17,
      "velocity": 111,
      "chip": "ym2612"
    },
    {
      "channel": 2,
      "note": 94,
      "start": 19.428,
      "duration": 0.1699,
      "velocity": 111,
      "chip": "ym2612"
    },
    {
      "channel": 3,
      "note": 94,
      "start": 19.5824,
      "duration": 0.1707,
      "velocity": 111,
      "chip": "ym2612"
    },
    {
      "channel": 4,
      "note": 61,
      "start": 19.5827,
      "duration": 0.0767,
      "velocity": 95,
      "chip": "ym2612"
    },
    {
      "channel": 5,
      "note": 68,
      "start": 19.5829,
      "duration": 0.0766,
      "velocity": 95,
      "chip": "ym2612"
    },
    {
      "channel": 2,
      "note": 95,
      "start": 19.5979,
      "duration": 0.17,
      "velocity": 111,
      "chip": "ym2612"
    },
    {
      "channel": 0,
      "note": 76,
      "start": 19.7525,
      "duration": 0.1698,
      "velocity": 112,
      "chip": "ym2612"
    },
    {
      "channel": 1,
      "note": 80,
      "start": 19.7528,
      "duration": 0.1699,
      "velocity": 112,
      "chip": "ym2612"
    },
    {
      "channel": 3,
      "note": 92,
      "start": 19.7533,
      "duration": 0.1698,
      "velocity": 111,
      "chip": "ym2612"
    },
    {
      "channel": 4,
      "note": 61,
      "start": 19.7534,
      "duration": 0.0763,
      "velocity": 95,
      "chip": "ym2612"
    },
    {
      "channel": 5,
      "note": 68,
      "start": 19.7536,
      "duration": 0.0763,
      "velocity": 95,
      "chip": "ym2612"
    },
    {
      "channel": 2,
      "note": 94,
      "start": 19.7679,
      "duration": 0.1702,
      "velocity": 111,
      "chip": "ym2612"
    },
    {
      "channel": 0,
      "note": 76,
      "start": 19.9225,
      "duration": 0.1698,
      "velocity": 112,
      "chip": "ym2612"
    },
    {
      "channel": 1,
      "note": 80,
      "start": 19.9228,
      "duration": 0.1697,
      "velocity": 112,
      "chip": "ym2612"
    },
    {
      "channel": 3,
      "note": 90,
      "start": 19.9232,
      "duration": 0.1696,
      "velocity": 111,
      "chip": "ym2612"
    },
    {
      "channel": 4,
      "note": 61,
      "start": 19.9233,
      "duration": 0.0764,
      "velocity": 95,
      "chip": "ym2612"
    },
    {
      "channel": 5,
      "note": 68,
      "start": 19.9234,
      "duration": 0.0763,
      "velocity": 95,
      "chip": "ym2612"
    },
    {
      "channel": 2,
      "note": 92,
      "start": 19.9382,
      "duration": 0.1698,
      "velocity": 111,
      "chip": "ym2612"
    },
    {
      "channel": 0,
      "note": 76,
      "start": 20.0924,
      "duration": 0.1704,
      "velocity": 112,
      "chip": "ym2612"
    },
    {
      "channel": 1,
      "note": 80,
      "start": 20.0925,
      "duration": 0.1707,
      "velocity": 112,
      "chip": "ym2612"
    },
    {
      "channel": 3,
      "note": 88,
      "start": 20.0929,
      "duration": 0.1707,
      "velocity": 111,
      "chip": "ym2612"
    },
    {
      "channel": 4,
      "note": 61,
      "start": 20.093,
      "duration": 0.0768,
      "velocity": 95,
      "chip": "ym2612"
    },
    {
      "channel": 5,
      "note": 68,
      "start": 20.0931,
      "duration": 0.0769,
      "velocity": 95,
      "chip": "ym2612"
    },
    {
      "channel": 2,
      "note": 90,
      "start": 20.108,
      "duration": 0.1701,
      "velocity": 111,
      "chip": "ym2612"
    },
    {
      "channel": 0,
      "note": 73,
      "start": 20.2629,
      "duration": 0.8351,
      "velocity": 112,
      "chip": "ym2612"
    },
    {
      "channel": 1,
      "note": 76,
      "start": 20.2632,
      "duration": 0.835,
      "velocity": 112,
      "chip": "ym2612"
    },
    {
      "channel": 3,
      "note": 92,
      "start": 20.2636,
      "duration": 0.835,
      "velocity": 111,
      "chip": "ym2612"
    },
    {
      "channel": 4,
      "note": 57,
      "start": 20.2639,
      "duration": 0.1379,
      "velocity": 95,
      "chip": "ym2612"
    },
    {
      "channel": 5,
      "note": 64,
      "start": 20.2642,
      "duration": 0.1377,
      "velocity": 95,
      "chip": "ym2612"
    },
    {
      "channel": 2,
      "note": 88,
      "start": 20.2782,
      "duration": 0.17,
      "velocity": 111,
      "chip": "ym2612"
    },
    {
      "channel": 2,
      "note": 92,
      "start": 20.4482,
      "duration": 0.8353,
      "velocity": 111,
      "chip": "ym2612"
    },
    {
      "channel": 4,
      "note": 57,
      "start": 20.5874,
      "duration": 0.0931,
      "velocity": 95,
      "chip": "ym2612"
    },
    {
      "channel": 5,
      "note": 64,
      "start": 20.5876,
      "duration": 0.0929,
      "velocity": 95,
      "chip": "ym2612"
    },
    {
      "channel": 4,
      "note": 57,
      "start": 20.7577,
      "duration": 0.093,
      "velocity": 95,
      "chip": "ym2612"
    },
    {
      "channel": 5,
      "note": 64,
      "start": 20.7579,
      "duration": 0.0929,
      "velocity": 95,
      "chip": "ym2612"
    },
    {
      "channel": 4,
      "note": 57,
      "start": 20.9282,
      "duration": 0.0927,
      "velocity": 95,
      "chip": "ym2612"
    },
    {
      "channel": 5,
      "note": 64,
      "start": 20.9283,
      "duration": 0.0928,
      "velocity": 95,
      "chip": "ym2612"
    },
    {
      "channel": 0,
      "note": 73,
      "start": 21.098,
      "duration": 0.1699,
      "velocity": 112,
      "chip": "ym2612"
    },
    {
      "channel": 1,
      "note": 76,
      "start": 21.0982,
      "duration": 0.1701,
      "velocity": 112,
      "chip": "ym2612"
    },
    {
      "channel": 3,
      "note": 92,
      "start": 21.0987,
      "duration": 0.1701,
      "velocity": 111,
      "chip": "ym2612"
    },
    {
      "channel": 4,
      "note": 57,
      "start": 21.0988,
      "duration": 0.0921,
      "velocity": 95,
      "chip": "ym2612"
    },
    {
      "channel": 5,
      "note": 64,
      "start": 21.099,
      "duration": 0.092,
      "velocity": 95,
      "chip": "ym2612"
    },
    {
      "channel": 0,
      "note": 80,
      "start": 21.2681,
      "duration": 0.5109,
      "velocity": 112,
      "chip": "ym2612"
    },
    {
      "channel": 1,
      "note": 85,
      "start": 21.2683,
      "duration": 0.511,
      "velocity": 112,
      "chip": "ym2612"
    },
    {
      "channel": 3,
      "note": 85,
      "start": 21.2689,
      "duration": 1.0218,
      "velocity": 111,
      "chip": "ym2612"
    },
    {
      "channel": 4,
      "note": 57,
      "start": 21.269,
      "duration": 0.1541,
      "velocity": 95,
      "chip": "ym2612"
    },
    {
      "channel": 5,
      "note": 64,
      "start": 21.2691,
      "duration": 0.1541,
      "velocity": 95,
      "chip": "ym2612"
    },
    {
      "channel": 2,
      "note": 92,
      "start": 21.2836,
      "duration": 0.1703,
      "velocity": 111,
      "chip": "ym2612"
    },
    {
      "channel": 2,
      "note": 85,
      "start": 21.4539,
      "duration": 1.0217,
      "velocity": 111,
      "chip": "ym2612"
    },
    {
      "channel": 4,
      "note": 57,
      "start": 21.6092,
      "duration": 0.0773,
      "velocity": 95,
      "chip": "ym2612"
    },
    {
      "channel": 5,
      "note": 64,
      "start": 21.6093,
      "duration": 0.0773,
      "velocity": 95,
      "chip": "ym2612"
    },
    {
      "channel": 0,
      "note": 80,
      "start": 21.7791,
      "duration": 0.17,
      "velocity": 112,
      "chip": "ym2612"
    },
    {
      "channel": 1,
      "note": 85,
      "start": 21.7794,
      "duration": 0.17,
      "velocity": 112,
      "chip": "ym2612"
    },
    {
      "channel": 4,
      "note": 57,
      "start": 21.7799,
      "duration": 0.0769,
      "velocity": 95,
      "chip": "ym2612"
    },
    {
      "channel": 5,
      "note": 64,
      "start": 21.78,
      "duration": 0.0768,
      "velocity": 95,
      "chip": "ym2612"
    },
    {
      "channel": 0,
      "note": 80,
      "start": 21.9493,
      "duration": 0.1702,
      "velocity": 112,
      "chip": "ym2612"
    },
    {
      "channel": 1,
      "note": 85,
      "start": 21.9494,
      "duration": 0.1703,
      "velocity": 112,
      "chip": "ym2612"
    },
    {
      "channel": 4,
      "note": 57,
      "start": 21.9499,
      "duration": 0.0772,
      "velocity": 95,
      "chip": "ym2612"
    },
    {
      "channel": 5,
      "note": 64,
      "start": 21.9501,
      "duration": 0.0771,
      "velocity": 95,
      "chip": "ym2612"
    },
    {
      "channel": 0,
      "note": 80,
      "start": 22.1197,
      "duration": 0.1702,
      "velocity": 112,
      "chip": "ym2612"
    },
    {
      "channel": 1,
      "note": 85,
      "start": 22.1198,
      "duration": 0.1704,
      "velocity": 112,
      "chip": "ym2612"
    },
    {
      "channel": 4,
      "note": 57,
      "start": 22.12,
      "duration": 0.0775,
      "velocity": 95,
      "chip": "ym2612"
    },
    {
      "channel": 5,
      "note": 64,
      "start": 22.1202,
      "duration": 0.0774,
      "velocity": 95,
      "chip": "ym2612"
    },
    {
      "channel": 0,
      "note": 80,
      "start": 22.29,
      "duration": 0.3247,
      "velocity": 112,
      "chip": "ym2612"
    },
    {
      "channel": 1,
      "note": 83,
      "start": 22.2902,
      "duration": 0.3247,
      "velocity": 112,
      "chip": "ym2612"
    },
    {
      "channel": 3,
      "note": 87,
      "start": 22.2907,
      "duration": 0.3246,
      "velocity": 111,
      "chip": "ym2612"
    },
    {
      "channel": 4,
      "note": 57,
      "start": 22.2908,
      "duration": 0.1382,
      "velocity": 95,
      "chip": "ym2612"
    },
    {
      "channel": 5,
      "note": 64,
      "start": 22.2909,
      "duration": 0.1383,
      "velocity": 95,
      "chip": "ym2612"
    },
    {
      "channel": 2,
      "note": 87,
      "start": 22.4757,
      "duration": 0.34,
      "velocity": 111,
      "chip": "ym2612"
    },
    {
      "channel": 0,
      "note": 81,
      "start": 22.6148,
      "duration": 0.34,
      "velocity": 112,
      "chip": "ym2612"
    },
    {
      "channel": 1,
      "note": 85,
      "start": 22.615,
      "duration": 0.34,
      "velocity": 112,
      "chip": "ym2612"
    },
    {
      "channel": 3,
      "note": 88,
      "start": 22.6153,
      "duration": 0.34,
      "velocity": 111,
      "chip": "ym2612"
    },
    {
      "channel": 4,
      "note": 57,
      "start": 22.6155,
      "duration": 0.092,
      "velocity": 95,
      "chip": "ym2612"
    },
    {
      "channel": 5,
      "note": 64,
      "start": 22.6156,
      "duration": 0.092,
      "velocity": 95,
      "chip": "ym2612"
    },
    {
      "channel": 4,
      "note": 57,
      "start": 22.7847,
      "duration": 0.0927,
      "velocity": 95,
      "chip": "ym2612"
    },
    {
      "channel": 5,
      "note": 64,
      "start": 22.7849,
      "duration": 0.0927,
      "velocity": 95,
      "chip": "ym2612"
    },
    {
      "channel": 2,
      "note": 88,
      "start": 22.8158,
      "duration": 0.3246,
      "velocity": 111,
      "chip": "ym2612"
    },
    {
      "channel": 0,
      "note": 83,
      "start": 22.9549,
      "duration": 0.34,
      "velocity": 112,
      "chip": "ym2612"
    },
    {
      "channel": 1,
      "note": 87,
      "start": 22.9551,
      "duration": 0.34,
      "velocity": 112,
      "chip": "ym2612"
    },
    {
      "channel": 3,
      "note": 90,
      "start": 22.9554,
      "duration": 0.3399,
      "velocity": 111,
      "chip": "ym2612"
    },
    {
      "channel": 4,
      "note": 57,
      "start": 22.9555,
      "duration": 0.0921,
      "velocity": 95,
      "chip": "ym2612"
    },
    {
      "channel": 5,
      "note": 64,
      "start": 22.9557,
      "duration": 0.0921,
      "velocity": 95,
      "chip": "ym2612"
    },
    {
      "channel": 4,
      "note": 57,
      "start": 23.125,
      "duration": 0.0927,
      "velocity": 95,
      "chip": "ym2612"
    },
    {
      "channel": 5,
      "note": 64,
      "start": 23.1252,
      "duration": 0.0927,
      "velocity": 95,
      "chip": "ym2612"
    },
    {
      "channel": 2,
      "note": 90,
      "start": 23.1405,
      "duration": 0.3397,
      "velocity": 111,
      "chip": "ym2612"
    },
    {
      "channel": 0,
      "note": 80,
      "start": 23.2949,
      "duration": 0.3398,
      "velocity": 112,
      "chip": "ym2612"
    },
    {
      "channel": 1,
      "note": 85,
      "start": 23.2951,
      "duration": 0.3399,
      "velocity": 112,
      "chip": "ym2612"
    },
    {
      "channel": 3,
      "note": 88,
      "start": 23.2954,
      "duration": 0.3399,
      "velocity": 111,
      "chip": "ym2612"
    },
    {
      "channel": 4,
      "note": 57,
      "start": 23.2956,
      "duration": 0.1536,
      "velocity": 95,
      "chip": "ym2612"
    },
    {
      "channel": 5,
      "note": 64,
      "start": 23.2957,
      "duration": 0.1537,
      "velocity": 95,
      "chip": "ym2612"
    },
    {
      "channel": 2,
      "note": 88,
      "start": 23.4803,
      "duration": 0.3402,
      "velocity": 111,
      "chip": "ym2612"
    },
    {
      "channel": 0,
      "note": 80,
      "start": 23.6348,
      "duration": 0.3403,
      "velocity": 112,
      "chip": "ym2612"
    },
    {
      "channel": 1,
      "note": 83,
      "start": 23.6351,
      "duration": 0.3403,
      "velocity": 112,
      "chip": "ym2612"
    },
    {
      "channel": 3,
      "note": 87,
      "start": 23.6354,
      "duration": 0.3404,
      "velocity": 111,
      "chip": "ym2612"
    },
    {
      "channel": 4,
      "note": 57,
      "start": 23.6355,
      "duration": 0.0767,
      "velocity": 95,
      "chip": "ym2612"
    },
    {
      "channel": 5,
      "note": 64,
      "start": 23.6357,
      "duration": 0.0766,
      "velocity": 95,
      "chip": "ym2612"
    },
    {
      "channel": 4,
      "note": 57,
      "start": 23.8052,
      "duration": 0.0771,
      "velocity": 95,
      "chip": "ym2612"
    },
    {
      "channel": 5,
      "note": 64,
      "start": 23.8054,
      "duration": 0.0771,
      "velocity": 95,
      "chip": "ym2612"
    },
    {
      "channel": 2,
      "note": 87,
      "start": 23.8206,
      "duration": 0.3401,
      "velocity": 111,
      "chip": "ym2612"
    },
    {
      "channel": 0,
      "note": 83,
      "start": 23.9752,
      "duration": 0.1701,
      "velocity": 112,
      "chip": "ym2612"
    },
    {
      "channel": 1,
      "note": 87,
      "start": 23.9755,
      "duration": 0.17,
      "velocity": 112,
      "chip": "ym2612"
    },
    {
      "channel": 3,
      "note": 88,
      "start": 23.9759,
      "duration": 0.3247,
      "velocity": 111,
      "chip": "ym2612"
    },
    {
      "channel": 4,
      "note": 57,
      "start": 23.9759,
      "duration": 0.0765,
      "velocity": 95,
      "chip": "ym2612"
    },
    {
      "channel": 5,
      "note": 64,
      "start": 23.9761,
      "duration": 0.0765,
      "velocity": 95,
      "chip": "ym2612"
    },
    {
      "channel": 0,
      "note": 80,
      "start": 24.1454,
      "duration": 0.0308,
      "velocity": 112,
      "chip": "ym2612"
    },
    {
      "channel": 1,
      "note": 85,
      "start": 24.1456,
      "duration": 0.0309,
      "velocity": 112,
      "chip": "ym2612"
    },
    {
      "channel": 4,
      "note": 57,
      "start": 24.1459,
      "duration": 0.0772,
      "velocity": 95,
      "chip": "ym2612"
    },
    {
      "channel": 5,
      "note": 64,
      "start": 24.1461,
      "duration": 0.0771,
      "velocity": 95,
      "chip": "ym2612"
    },
    {
      "channel": 2,
      "note": 88,
      "start": 24.1608,
      "duration": 0.3404,
      "velocity": 111,
      "chip": "ym2612"
    },
    {
      "channel": 0,
      "note": 78,
      "start": 24.1763,
      "duration": 0.0463,
      "velocity": 112,
      "chip": "ym2612"
    },
    {
      "channel": 1,
      "note": 83,
      "start": 24.1766,
      "duration": 0.0464,
      "velocity": 112,
      "chip": "ym2612"
    },
    {
      "channel": 0,
      "note": 76,
      "start": 24.2227,
      "duration": 0.0464,
      "velocity": 112,
      "chip": "ym2612"
    },
    {
      "channel": 1,
      "note": 80,
      "start": 24.2229,
      "duration": 0.0465,
      "velocity": 112,
      "chip": "ym2612"
    },
    {
      "channel": 0,
      "note": 75,
      "start": 24.2692,
      "duration": 0.0307,
      "velocity": 112,
      "chip": "ym2612"
    },
    {
      "channel": 1,
      "note": 78,
      "start": 24.2695,
      "duration": 0.0308,
      "velocity": 112,
      "chip": "ym2612"
    },
    {
      "channel": 0,
      "note": 73,
      "start": 24.3,
      "duration": 0.8508,
      "velocity": 112,
      "chip": "ym2612"
    },
    {
      "channel": 1,
      "note": 76,
      "start": 24.3003,
      "duration": 0.8507,
      "velocity": 112,
      "chip": "ym2612"
    },
    {
      "channel": 3,
      "note": 92,
      "start": 24.3007,
      "duration": 0.8508,
      "velocity": 111,
      "chip": "ym2612"
    },
    {
      "channel": 4,
      "note": 57,
      "start": 24.3008,
      "duration": 0.1542,
      "velocity": 95,
      "chip": "ym2612"
    },
    {
      "channel": 5,
      "note": 64,
      "start": 24.301,
      "duration": 0.1541,
      "velocity": 95,
      "chip": "ym2612"
    },
    {
      "channel": 2,
      "note": 92,
      "start": 24.5012,
      "duration": 0.8352,
      "velocity": 111,
      "chip": "ym2612"
    },
    {
      "channel": 4,
      "note": 57,
      "start": 24.6407,
      "duration": 0.0927,
      "velocity": 95,
      "chip": "ym2612"
    },
    {
      "channel": 5,
      "note": 64,
      "start": 24.6408,
      "duration": 0.0927,
      "velocity": 95,
      "chip": "ym2612"
    },
    {
      "channel": 4,
      "note": 57,
      "start": 24.8108,
      "duration": 0.0929,
      "velocity": 95,
      "chip": "ym2612"
    },
    {
      "channel": 5,
      "note": 64,
      "start": 24.811,
      "duration": 0.0929,
      "velocity": 95,
      "chip": "ym2612"
    },
    {
      "channel": 4,
      "note": 57,
      "start": 24.9813,
      "duration": 0.0924,
      "velocity": 95,
      "chip": "ym2612"
    },
    {
      "channel": 5,
      "note": 64,
      "start": 24.9814,
      "duration": 0.0924,
      "velocity": 95,
      "chip": "ym2612"
    },
    {
      "channel": 0,
      "note": 73,
      "start": 25.1509,
      "duration": 0.17,
      "velocity": 112,
      "chip": "ym2612"
    },
    {
      "channel": 1,
      "note": 76,
      "start": 25.1511,
      "duration": 0.1702,
      "velocity": 112,
      "chip": "ym2612"
    },
    {
      "channel": 3,
      "note": 92,
      "start": 25.1515,
      "duration": 0.1704,
      "velocity": 111,
      "chip": "ym2612"
    },
    {
      "channel": 4,
      "note": 57,
      "start": 25.1517,
      "duration": 0.0768,
      "velocity": 95,
      "chip": "ym2612"
    },
    {
      "channel": 5,
      "note": 64,
      "start": 25.1518,
      "duration": 0.0768,
      "velocity": 95,
      "chip": "ym2612"
    },
    {
      "channel": 0,
      "note": 80,
      "start": 25.3211,
      "duration": 0.5107,
      "velocity": 112,
      "chip": "ym2612"
    },
    {
      "channel": 1,
      "note": 85,
      "start": 25.3213,
      "duration": 0.5109,
      "velocity": 112,
      "chip": "ym2612"
    },
    {
      "channel": 3,
      "note": 85,
      "start": 25.3218,
      "duration": 1.0054,
      "velocity": 111,
      "chip": "ym2612"
    },
    {
      "channel": 4,
      "note": 57,
      "start": 25.322,
      "duration": 0.1383,
      "velocity": 95,
      "chip": "ym2612"
    },
    {
      "channel": 5,
      "note": 64,
      "start": 25.3221,
      "duration": 0.1384,
      "velocity": 95,
      "chip": "ym2612"
    },
    {
      "channel": 2,
      "note": 92,
      "start": 25.3365,
      "duration": 0.1704,
      "velocity": 111,
      "chip": "ym2612"
    },
    {
      "channel": 2,
      "note": 85,
      "start": 25.507,
      "duration": 1.021,
      "velocity": 111,
      "chip": "ym2612"
    },
    {
      "channel": 4,
      "note": 57,
      "start": 25.6622,
      "duration": 0.0774,
      "velocity": 95,
      "chip": "ym2612"
    },
    {
      "channel": 5,
      "note": 64,
      "start": 25.6623,
      "duration": 0.0773,
      "velocity": 95,
      "chip": "ym2612"
    },
    {
      "channel": 0,
      "note": 80,
      "start": 25.8319,
      "duration": 0.1698,
      "velocity": 112,
      "chip": "ym2612"
    },
    {
      "channel": 1,
      "note": 85,
      "start": 25.8322,
      "duration": 0.1698,
      "velocity": 112,
      "chip": "ym2612"
    },
    {
      "channel": 4,
      "note": 57,
      "start": 25.8327,
      "duration": 0.0767,
      "velocity": 95,
      "chip": "ym2612"
    },
    {
      "channel": 5,
      "note": 64,
      "start": 25.8328,
      "duration": 0.0767,
      "velocity": 95,
      "chip": "ym2612"
    },
    {
      "channel": 0,
      "note": 80,
      "start": 26.0019,
      "duration": 0.1545,
      "velocity": 112,
      "chip": "ym2612"
    },
    {
      "channel": 1,
      "note": 85,
      "start": 26.002,
      "duration": 0.1546,
      "velocity": 112,
      "chip": "ym2612"
    },
    {
      "channel": 4,
      "note": 57,
      "start": 26.0025,
      "duration": 0.0772,
      "velocity": 95,
      "chip": "ym2612"
    },
    {
      "channel": 5,
      "note": 64,
      "start": 26.0027,
      "duration": 0.0771,
      "velocity": 95,
      "chip": "ym2612"
    },
    {
      "channel": 0,
      "note": 80,
      "start": 26.1565,
      "duration": 0.1699,
      "velocity": 112,
      "chip": "ym2612"
    },
    {
      "channel": 1,
      "note": 85,
      "start": 26.1567,
      "duration": 0.1701,
      "velocity": 112,
      "chip": "ym2612"
    },
    {
      "channel": 4,
      "note": 57,
      "start": 26.1572,
      "duration": 0.0925,
      "velocity": 95,
      "chip": "ym2612"
    },
    {
      "channel": 5,
      "note": 64,
      "start": 26.1574,
      "duration": 0.0925,
      "velocity": 95,
      "chip": "ym2612"
    },
    {
      "channel": 0,
      "note": 80,
      "start": 26.3266,
      "duration": 0.3403,
      "velocity": 112,
      "chip": "ym2612"
    },
    {
      "channel": 1,
      "note": 83,
      "start": 26.3269,
      "duration": 0.3402,
      "velocity": 112,
      "chip": "ym2612"
    },
    {
      "channel": 3,
      "note": 87,
      "start": 26.3273,
      "duration": 0.3401,
      "velocity": 111,
      "chip": "ym2612"
    },
    {
      "channel": 4,
      "note": 57,
      "start": 26.3275,
      "duration": 0.1539,
      "velocity": 95,
      "chip": "ym2612"
    },
    {
      "channel": 5,
      "note": 64,
      "start": 26.3276,
      "duration": 0.1539,
      "velocity": 95,
      "chip": "ym2612"
    },
    {
      "channel": 2,
      "note": 87,
      "start": 26.5279,
      "duration": 0.3246,
      "velocity": 111,
      "chip": "ym2612"
    },
    {
      "channel": 0,
      "note": 81,
      "start": 26.6669,
      "duration": 0.3401,
      "velocity": 112,
      "chip": "ym2612"
    },
    {
      "channel": 1,
      "note": 85,
      "start": 26.6672,
      "duration": 0.3401,
      "velocity": 112,
      "chip": "ym2612"
    },
    {
      "channel": 3,
      "note": 88,
      "start": 26.6675,
      "duration": 0.3402,
      "velocity": 111,
      "chip": "ym2612"
    },
    {
      "channel": 4,
      "note": 57,
      "start": 26.6676,
      "duration": 0.0921,
      "velocity": 95,
      "chip": "ym2612"
    },
    {
      "channel": 5,
      "note": 64,
      "start": 26.6678,
      "duration": 0.0921,
      "velocity": 95,
      "chip": "ym2612"
    },
    {
      "channel": 4,
      "note": 57,
      "start": 26.8371,
      "duration": 0.0927,
      "velocity": 95,
      "chip": "ym2612"
    },
    {
      "channel": 5,
      "note": 64,
      "start": 26.8373,
      "duration": 0.0927,
      "velocity": 95,
      "chip": "ym2612"
    },
    {
      "channel": 2,
      "note": 88,
      "start": 26.8526,
      "duration": 0.3402,
      "velocity": 111,
      "chip": "ym2612"
    },
    {
      "channel": 0,
      "note": 83,
      "start": 27.0071,
      "duration": 0.34,
      "velocity": 112,
      "chip": "ym2612"
    },
    {
      "channel": 1,
      "note": 87,
      "start": 27.0074,
      "duration": 0.3399,
      "velocity": 112,
      "chip": "ym2612"
    },
    {
      "channel": 3,
      "note": 90,
      "start": 27.0078,
      "duration": 0.3398,
      "velocity": 111,
      "chip": "ym2612"
    },
    {
      "channel": 4,
      "note": 57,
      "start": 27.0079,
      "duration": 0.0766,
      "velocity": 95,
      "chip": "ym2612"
    },
    {
      "channel": 5,
      "note": 64,
      "start": 27.0081,
      "duration": 0.0766,
      "velocity": 95,
      "chip": "ym2612"
    },
    {
      "channel": 4,
      "note": 57,
      "start": 27.1775,
      "duration": 0.0771,
      "velocity": 95,
      "chip": "ym2612"
    },
    {
      "channel": 5,
      "note": 64,
      "start": 27.1776,
      "duration": 0.0771,
      "velocity": 95,
      "chip": "ym2612"
    },
    {
      "channel": 2,
      "note": 90,
      "start": 27.1929,
      "duration": 0.3399,
      "velocity": 111,
      "chip": "ym2612"
    },
    {
      "channel": 0,
      "note": 80,
      "start": 27.3472,
      "duration": 0.34,
      "velocity": 112,
      "chip": "ym2612"
    },
    {
      "channel": 1,
      "note": 85,
      "start": 27.3474,
      "duration": 0.34,
      "velocity": 112,
      "chip": "ym2612"
    },
    {
      "channel": 3,
      "note": 88,
      "start": 27.3477,
      "duration": 0.3402,
      "velocity": 111,
      "chip": "ym2612"
    },
    {
      "channel": 4,
      "note": 57,
      "start": 27.3479,
      "duration": 0.1386,
      "velocity": 95,
      "chip": "ym2612"
    },
    {
      "channel": 5,
      "note": 64,
      "start": 27.348,
      "duration": 0.1386,
      "velocity": 95,
      "chip": "ym2612"
    },
    {
      "channel": 2,
      "note": 88,
      "start": 27.5328,
      "duration": 0.34,
      "velocity": 111,
      "chip": "ym2612"
    },
    {
      "channel": 0,
      "note": 80,
      "start": 27.6872,
      "duration": 0.3249,
      "velocity": 112,
      "chip": "ym2612"
    },
    {
      "channel": 1,
      "note": 83,
      "start": 27.6875,
      "duration": 0.3249,
      "velocity": 112,
      "chip": "ym2612"
    },
    {
      "channel": 3,
      "note": 87,
      "start": 27.6878,
      "duration": 0.3248,
      "velocity": 111,
      "chip": "ym2612"
    },
    {
      "channel": 4,
      "note": 57,
      "start": 27.688,
      "duration": 0.0766,
      "velocity": 95,
      "chip": "ym2612"
    },
    {
      "channel": 5,
      "note": 64,
      "start": 27.6881,
      "duration": 0.0766,
      "velocity": 95,
      "chip": "ym2612"
    },
    {
      "channel": 4,
      "note": 57,
      "start": 27.8576,
      "duration": 0.0773,
      "velocity": 95,
      "chip": "ym2612"
    },
    {
      "channel": 5,
      "note": 64,
      "start": 27.8577,
      "duration": 0.0772,
      "velocity": 95,
      "chip": "ym2612"
    },
    {
      "channel": 2,
      "note": 87,
      "start": 27.8729,
      "duration": 0.3402,
      "velocity": 111,
      "chip": "ym2612"
    },
    {
      "channel": 0,
      "note": 83,
      "start": 28.0122,
      "duration": 0.3403,
      "velocity": 112,
      "chip": "ym2612"
    },
    {
      "channel": 1,
      "note": 87,
      "start": 28.0124,
      "duration": 0.3402,
      "velocity": 112,
      "chip": "ym2612"
    },
    {
      "channel": 3,
      "note": 88,
      "start": 28.0127,
      "duration": 0.3401,
      "velocity": 111,
      "chip": "ym2612"
    },
    {
      "channel": 4,
      "note": 57,
      "start": 28.0129,
      "duration": 0.0919,
      "velocity": 95,
      "chip": "ym2612"
    },
    {
      "channel": 5,
      "note": 64,
      "start": 28.013,
      "duration": 0.092,
      "velocity": 95,
      "chip": "ym2612"
    },
    {
      "channel": 4,
      "note": 57,
      "start": 28.1824,
      "duration": 0.0927,
      "velocity": 95,
      "chip": "ym2612"
    },
    {
      "channel": 5,
      "note": 64,
      "start": 28.1826,
      "duration": 0.0927,
      "velocity": 95,
      "chip": "ym2612"
    },
    {
      "channel": 2,
      "note": 88,
      "start": 28.2132,
      "duration": 0.3403,
      "velocity": 111,
      "chip": "ym2612"
    },
    {
      "channel": 4,
      "note": 61,
      "start": 28.3532,
      "duration": 0.1544,
      "velocity": 95,
      "chip": "ym2612"
    },
    {
      "channel": 5,
      "note": 68,
      "start": 28.3534,
      "duration": 0.1541,
      "velocity": 95,
      "chip": "ym2612"
    },
    {
      "channel": 4,
      "note": 61,
      "start": 28.6928,
      "duration": 0.0927,
      "velocity": 95,
      "chip": "ym2612"
    },
    {
      "channel": 5,
      "note": 68,
      "start": 28.6929,
      "duration": 0.0927,
      "velocity": 95,
      "chip": "ym2612"
    },
    {
      "channel": 4,
      "note": 61,
      "start": 28.8629,
      "duration": 0.0772,
      "velocity": 95,
      "chip": "ym2612"
    },
    {
      "channel": 5,
      "note": 68,
      "start": 28.8631,
      "duration": 0.0771,
      "velocity": 95,
      "chip": "ym2612"
    },
    {
      "channel": 4,
      "note": 61,
      "start": 29.033,
      "duration": 0.0772,
      "velocity": 95,
      "chip": "ym2612"
    },
    {
      "channel": 5,
      "note": 68,
      "start": 29.0331,
      "duration": 0.0771,
      "velocity": 95,
      "chip": "ym2612"
    },
    {
      "channel": 4,
      "note": 61,
      "start": 29.2032,
      "duration": 0.0772,
      "velocity": 95,
      "chip": "ym2612"
    },
    {
      "channel": 5,
      "note": 68,
      "start": 29.2033,
      "duration": 0.0772,
      "velocity": 95,
      "chip": "ym2612"
    },
    {
      "channel": 4,
      "note": 61,
      "start": 29.3732,
      "duration": 0.1388,
      "velocity": 95,
      "chip": "ym2612"
    },
    {
      "channel": 5,
      "note": 68,
      "start": 29.3734,
      "duration": 0.1388,
      "velocity": 95,
      "chip": "ym2612"
    },
    {
      "channel": 4,
      "note": 61,
      "start": 29.7134,
      "duration": 0.0772,
      "velocity": 95,
      "chip": "ym2612"
    },
    {
      "channel": 5,
      "note": 68,
      "start": 29.7136,
      "duration": 0.0771,
      "velocity": 95,
      "chip": "ym2612"
    },
    {
      "channel": 4,
      "note": 61,
      "start": 29.8678,
      "duration": 0.0931,
      "velocity": 95,
      "chip": "ym2612"
    },
    {
      "channel": 5,
      "note": 68,
      "start": 29.8681,
      "duration": 0.0929,
      "velocity": 95,
      "chip": "ym2612"
    },
    {
      "channel": 4,
      "note": 61,
      "start": 30.0381,
      "duration": 0.0928,
      "velocity": 95,
      "chip": "ym2612"
    },
    {
      "channel": 5,
      "note": 68,
      "start": 30.0382,
      "duration": 0.0928,
      "velocity": 95,
      "chip": "ym2612"
    },
    {
      "channel": 4,
      "note": 61,
      "start": 30.2083,
      "duration": 0.0929,
      "velocity": 95,
      "chip": "ym2612"
    },
    {
      "channel": 5,
      "note": 68,
      "start": 30.2083,
      "duration": 0.0929,
      "velocity": 95,
      "chip": "ym2612"
    },
    {
      "channel": 4,
      "note": 61,
      "start": 30.3787,
      "duration": 0.154,
      "velocity": 95,
      "chip": "ym2612"
    },
    {
      "channel": 5,
      "note": 68,
      "start": 30.379,
      "duration": 0.1539,
      "velocity": 95,
      "chip": "ym2612"
    },
    {
      "channel": 4,
      "note": 61,
      "start": 30.7185,
      "duration": 0.0773,
      "velocity": 95,
      "chip": "ym2612"
    },
    {
      "channel": 5,
      "note": 68,
      "start": 30.7186,
      "duration": 0.0773,
      "velocity": 95,
      "chip": "ym2612"
    },
    {
      "channel": 4,
      "note": 61,
      "start": 30.8887,
      "duration": 0.0774,
      "velocity": 95,
      "chip": "ym2612"
    },
    {
      "channel": 5,
      "note": 68,
      "start": 30.8889,
      "duration": 0.0772,
      "velocity": 95,
      "chip": "ym2612"
    },
    {
      "channel": 4,
      "note": 61,
      "start": 31.0587,
      "duration": 0.077,
      "velocity": 95,
      "chip": "ym2612"
    },
    {
      "channel": 5,
      "note": 68,
      "start": 31.0588,
      "duration": 0.077,
      "velocity": 95,
      "chip": "ym2612"
    },
    {
      "channel": 4,
      "note": 61,
      "start": 31.2286,
      "duration": 0.077,
      "velocity": 95,
      "chip": "ym2612"
    },
    {
      "channel": 5,
      "note": 68,
      "start": 31.2287,
      "duration": 0.077,
      "velocity": 95,
      "chip": "ym2612"
    },
    {
      "channel": 4,
      "note": 61,
      "start": 31.3989,
      "duration": 0.1391,
      "velocity": 95,
      "chip": "ym2612"
    },
    {
      "channel": 5,
      "note": 68,
      "start": 31.399,
      "duration": 0.139,
      "velocity": 95,
      "chip": "ym2612"
    },
    {
      "channel": 4,
      "note": 61,
      "start": 31.7232,
      "duration": 0.0929,
      "velocity": 95,
      "chip": "ym2612"
    },
    {
      "channel": 5,
      "note": 68,
      "start": 31.7234,
      "duration": 0.0928,
      "velocity": 95,
      "chip": "ym2612"
    },
    {
      "channel": 4,
      "note": 61,
      "start": 31.8938,
      "duration": 0.0924,
      "velocity": 95,
      "chip": "ym2612"
    },
    {
      "channel": 5,
      "note": 68,
      "start": 31.894,
      "duration": 0.0923,
      "velocity": 95,
      "chip": "ym2612"
    },
    {
      "channel": 4,
      "note": 61,
      "start": 32.0639,
      "duration": 0.0926,
      "velocity": 95,
      "chip": "ym2612"
    },
    {
      "channel": 5,
      "note": 68,
      "start": 32.064,
      "duration": 0.0927,
      "velocity": 95,
      "chip": "ym2612"
    },
    {
      "channel": 4,
      "note": 61,
      "start": 32.2338,
      "duration": 0.0927,
      "velocity": 95,
      "chip": "ym2612"
    },
    {
      "channel": 5,
      "note": 68,
      "start": 32.234,
      "duration": 0.0927,
      "velocity": 95,
      "chip": "ym2612"
    },
    {
      "channel": 3,
      "note": 92,
      "start": 32.4046,
      "duration": 2.5122,
      "velocity": 111,
      "chip": "ym2612"
    }
  ]
}