{
  "track_name": "16 - Unused",
  "duration_sec": 118.798,
  "sample_rate": 44100,
  "note_count": 1561,
  "unique_pitches": 29,
  "pitch_range": 55,
  "avg_note_duration": 0.3302,
  "reconstruction_stats": {
    "notes_reconstructed": 1561,
    "keyon_events": 1561,
    "keyoff_events": 1557,
    "orphan_keyons": 4,
    "unique_pitches": 29,
    "pitch_range": 55,
    "avg_duration_sec": 0.3302
  },
  "metadata": {
    "source": "N\\Ninja Burai Densetsu\\16 - Unused.vgz"
  },
  "notes": [
    {
      "channel": 0,
      "note": 50,
      "start": 0.0,
      "duration": 0.2315,
      "velocity": 97,
      "chip": "ym2612"
    },
    {
      "channel": 1,
      "note": 81,
      "start": 0.001,
      "duration": 0.1972,
      "velocity": 78,
      "chip": "ym2612"
    },
    {
      "channel": 2,
      "note": 45,
      "start": 0.0026,
      "duration": 0.2291,
      "velocity": 78,
      "chip": "ym2612"
    },
    {
      "channel": 3,
      "note": 57,
      "start": 0.004,
      "duration": 0.2279,
      "velocity": 78,
      "chip": "ym2612"
    },
    {
      "channel": 4,
      "note": 69,
      "start": 0.0056,
      "duration": 0.1929,
      "velocity": 78,
      "chip": "ym2612"
    },
    {
      "channel": 5,
      "note": 74,
      "start": 0.0072,
      "duration": 0.1415,
      "velocity": 99,
      "chip": "ym2612"
    },
    {
      "channel": 0,
      "note": 53,
      "start": 0.4651,
      "duration": 0.1998,
      "velocity": 97,
      "chip": "ym2612"
    },
    {
      "channel": 1,
      "note": 84,
      "start": 0.4654,
      "duration": 0.1997,
      "velocity": 78,
      "chip": "ym2612"
    },
    {
      "channel": 2,
      "note": 48,
      "start": 0.4657,
      "duration": 0.1995,
      "velocity": 78,
      "chip": "ym2612"
    },
    {
      "channel": 3,
      "note": 60,
      "start": 0.466,
      "duration": 0.1994,
      "velocity": 78,
      "chip": "ym2612"
    },
    {
      "channel": 4,
      "note": 72,
      "start": 0.4663,
      "duration": 0.1656,
      "velocity": 78,
      "chip": "ym2612"
    },
    {
      "channel": 5,
      "note": 77,
      "start": 0.4666,
      "duration": 0.1654,
      "velocity": 99,
      "chip": "ym2612"
    },
    {
      "channel": 0,
      "note": 55,
      "start": 0.9484,
      "duration": 1.3665,
      "velocity": 97,
      "chip": "ym2612"
    },
    {
      "channel": 1,
      "note": 86,
      "start": 0.9487,
      "duration": 1.2829,
      "velocity": 78,
      "chip": "ym2612"
    },
    {
      "channel": 2,
      "note": 50,
      "start": 0.949,
      "duration": 1.2827,
      "velocity": 78,
      "chip": "ym2612"
    },
    {
      "channel": 3,
      "note": 62,
      "start": 0.9493,
      "duration": 1.2492,
      "velocity": 78,
      "chip": "ym2612"
    },
    {
      "channel": 4,
      "note": 74,
      "start": 0.9497,
      "duration": 1.2823,
      "velocity": 78,
      "chip": "ym2612"
    },
    {
      "channel": 5,
      "note": 79,
      "start": 0.95,
      "duration": 1.1654,
      "velocity": 99,
      "chip": "ym2612"
    },
    {
      "channel": 0,
      "note": 53,
      "start": 2.3984,
      "duration": 0.2665,
      "velocity": 97,
      "chip": "ym2612"
    },
    {
      "channel": 1,
      "note": 84,
      "start": 2.3987,
      "duration": 0.2329,
      "velocity": 78,
      "chip": "ym2612"
    },
    {
      "channel": 2,
      "note": 48,
      "start": 2.399,
      "duration": 0.2327,
      "velocity": 78,
      "chip": "ym2612"
    },
    {
      "channel": 3,
      "note": 60,
      "start": 2.3993,
      "duration": 0.2326,
      "velocity": 78,
      "chip": "ym2612"
    },
    {
      "channel": 4,
      "note": 72,
      "start": 2.3997,
      "duration": 0.2324,
      "velocity": 78,
      "chip": "ym2612"
    },
    {
      "channel": 5,
      "note": 77,
      "start": 2.4,
      "duration": 0.1487,
      "velocity": 99,
      "chip": "ym2612"
    },
    {
      "channel": 0,
      "note": 55,
      "start": 2.8651,
      "duration": 0.2831,
      "velocity": 97,
      "chip": "ym2612"
    },
    {
      "channel": 1,
      "note": 86,
      "start": 2.8654,
      "duration": 0.283,
      "velocity": 78,
      "chip": "ym2612"
    },
    {
      "channel": 2,
      "note": 50,
      "start": 2.8657,
      "duration": 0.2828,
      "velocity": 78,
      "chip": "ym2612"
    },
    {
      "channel": 3,
      "note": 62,
      "start": 2.866,
      "duration": 0.2492,
      "velocity": 78,
      "chip": "ym2612"
    },
    {
      "channel": 4,
      "note": 74,
      "start": 2.8663,
      "duration": 0.249,
      "velocity": 78,
      "chip": "ym2612"
    },
    {
      "channel": 5,
      "note": 79,
      "start": 2.8666,
      "duration": 0.1987,
      "velocity": 99,
      "chip": "ym2612"
    },
    {
      "channel": 0,
      "note": 57,
      "start": 3.3484,
      "duration": 0.2498,
      "velocity": 97,
      "chip": "ym2612"
    },
    {
      "channel": 1,
      "note": 88,
      "start": 3.3487,
      "duration": 0.2829,
      "velocity": 78,
      "chip": "ym2612"
    },
    {
      "channel": 2,
      "note": 52,
      "start": 3.349,
      "duration": 0.1994,
      "velocity": 78,
      "chip": "ym2612"
    },
    {
      "channel": 3,
      "note": 64,
      "start": 3.3493,
      "duration": 0.2492,
      "velocity": 78,
      "chip": "ym2612"
    },
    {
      "channel": 4,
      "note": 76,
      "start": 3.3497,
      "duration": 0.249,
      "velocity": 78,
      "chip": "ym2612"
    },
    {
      "channel": 5,
      "note": 81,
      "start": 3.35,
      "duration": 0.1988,
      "velocity": 99,
      "chip": "ym2612"
    },
    {
      "channel": 0,
      "note": 60,
      "start": 3.8317,
      "duration": 0.9165,
      "velocity": 97,
      "chip": "ym2612"
    },
    {
      "channel": 1,
      "note": 91,
      "start": 3.832,
      "duration": 0.7162,
      "velocity": 78,
      "chip": "ym2612"
    },
    {
      "channel": 2,
      "note": 55,
      "start": 3.8324,
      "duration": 0.716,
      "velocity": 78,
      "chip": "ym2612"
    },
    {
      "channel": 3,
      "note": 67,
      "start": 3.8327,
      "duration": 0.6825,
      "velocity": 78,
      "chip": "ym2612"
    },
    {
      "channel": 4,
      "note": 79,
      "start": 3.833,
      "duration": 0.6322,
      "velocity": 78,
      "chip": "ym2612"
    },
    {
      "channel": 5,
      "note": 84,
      "start": 3.8333,
      "duration": 0.6821,
      "velocity": 99,
      "chip": "ym2612"
    },
    {
      "channel": 0,
      "note": 62,
      "start": 4.7984,
      "duration": 0.7998,
      "velocity": 97,
      "chip": "ym2612"
    },
    {
      "channel": 1,
      "note": 93,
      "start": 4.7987,
      "duration": 0.7162,
      "velocity": 78,
      "chip": "ym2612"
    },
    {
      "channel": 2,
      "note": 57,
      "start": 4.799,
      "duration": 0.716,
      "velocity": 78,
      "chip": "ym2612"
    },
    {
      "channel": 3,
      "note": 69,
      "start": 4.7993,
      "duration": 0.5992,
      "velocity": 78,
      "chip": "ym2612"
    },
    {
      "channel": 4,
      "note": 81,
      "start": 4.7997,
      "duration": 0.6656,
      "velocity": 78,
      "chip": "ym2612"
    },
    {
      "channel": 5,
      "note": 86,
      "start": 4.8,
      "duration": 0.5988,
      "velocity": 99,
      "chip": "ym2612"
    },
    {
      "channel": 0,
      "note": 57,
      "start": 5.7484,
      "duration": 1.2498,
      "velocity": 97,
      "chip": "ym2612"
    },
    {
      "channel": 1,
      "note": 88,
      "start": 5.7487,
      "duration": 1.2829,
      "velocity": 78,
      "chip": "ym2612"
    },
    {
      "channel": 2,
      "note": 52,
      "start": 5.749,
      "duration": 1.3159,
      "velocity": 78,
      "chip": "ym2612"
    },
    {
      "channel": 3,
      "note": 64,
      "start": 5.7493,
      "duration": 1.2826,
      "velocity": 78,
      "chip": "ym2612"
    },
    {
      "channel": 4,
      "note": 76,
      "start": 5.7497,
      "duration": 1.2824,
      "velocity": 78,
      "chip": "ym2612"
    },
    {
      "channel": 5,
      "note": 81,
      "start": 5.75,
      "duration": 1.1987,
      "velocity": 99,
      "chip": "ym2612"
    },
    {
      "channel": 0,
      "note": 55,
      "start": 7.1984,
      "duration": 0.2665,
      "velocity": 97,
      "chip": "ym2612"
    },
    {
      "channel": 1,
      "note": 86,
      "start": 7.1987,
      "duration": 0.2329,
      "velocity": 78,
      "chip": "ym2612"
    },
    {
      "channel": 2,
      "note": 50,
      "start": 7.199,
      "duration": 0.1994,
      "velocity": 78,
      "chip": "ym2612"
    },
    {
      "channel": 3,
      "note": 62,
      "start": 7.1993,
      "duration": 0.2324,
      "velocity": 78,
      "chip": "ym2612"
    },
    {
      "channel": 4,
      "note": 74,
      "start": 7.1997,
      "duration": 0.1989,
      "velocity": 78,
      "chip": "ym2612"
    },
    {
      "channel": 5,
      "note": 79,
      "start": 7.2,
      "duration": 0.232,
      "velocity": 99,
      "chip": "ym2612"
    },
    {
      "channel": 0,
      "note": 57,
      "start": 7.6651,
      "duration": 0.7665,
      "velocity": 97,
      "chip": "ym2612"
    },
    {
      "channel": 1,
      "note": 88,
      "start": 7.6654,
      "duration": 0.7663,
      "velocity": 78,
      "chip": "ym2612"
    },
    {
      "channel": 2,
      "note": 52,
      "start": 7.6657,
      "duration": 0.6827,
      "velocity": 78,
      "chip": "ym2612"
    },
    {
      "channel": 3,
      "note": 64,
      "start": 7.666,
      "duration": 0.7324,
      "velocity": 78,
      "chip": "ym2612"
    },
    {
      "channel": 4,
      "note": 76,
      "start": 7.6663,
      "duration": 0.7322,
      "velocity": 78,
      "chip": "ym2612"
    },
    {
      "channel": 5,
      "note": 81,
      "start": 7.6666,
      "duration": 0.7653,
      "velocity": 99,
      "chip": "ym2612"
    },
    {
      "channel": 0,
      "note": 60,
      "start": 8.6317,
      "duration": 0.7165,
      "velocity": 97,
      "chip": "ym2612"
    },
    {
      "channel": 1,
      "note": 91,
      "start": 8.632,
      "duration": 0.7163,
      "velocity": 78,
      "chip": "ym2612"
    },
    {
      "channel": 2,
      "note": 55,
      "start": 8.6324,
      "duration": 0.7161,
      "velocity": 78,
      "chip": "ym2612"
    },
    {
      "channel": 3,
      "note": 67,
      "start": 8.6327,
      "duration": 0.6325,
      "velocity": 78,
      "chip": "ym2612"
    },
    {
      "channel": 4,
      "note": 79,
      "start": 8.633,
      "duration": 0.6822,
      "velocity": 78,
      "chip": "ym2612"
    },
    {
      "channel": 5,
      "note": 84,
      "start": 8.6333,
      "duration": 0.6821,
      "velocity": 99,
      "chip": "ym2612"
    },
    {
      "channel": 0,
      "note": 57,
      "start": 9.5984,
      "duration": 1.9998,
      "velocity": 97,
      "chip": "ym2612"
    },
    {
      "channel": 1,
      "note": 88,
      "start": 9.5987,
      "duration": 2.8665,
      "velocity": 78,
      "chip": "ym2612"
    },
    {
      "channel": 2,
      "note": 52,
      "start": 9.599,
      "duration": 2.8665,
      "velocity": 78,
      "chip": "ym2612"
    },
    {
      "channel": 3,
      "note": 64,
      "start": 9.5993,
      "duration": 2.8665,
      "velocity": 78,
      "chip": "ym2612"
    },
    {
      "channel": 4,
      "note": 76,
      "start": 9.5997,
      "duration": 2.8664,
      "velocity": 78,
      "chip": "ym2612"
    },
    {
      "channel": 5,
      "note": 69,
      "start": 9.6,
      "duration": 2.8664,
      "velocity": 99,
      "chip": "ym2612"
    },
    {
      "channel": 0,
      "note": 57,
      "start": 11.9984,
      "duration": 0.2665,
      "velocity": 97,
      "chip": "ym2612"
    },
    {
      "channel": 0,
      "note": 55,
      "start": 12.4651,
      "duration": 0.2831,
      "velocity": 97,
      "chip": "ym2612"
    },
    {
      "channel": 1,
      "note": 86,
      "start": 12.4654,
      "duration": 0.2495,
      "velocity": 78,
      "chip": "ym2612"
    },
    {
      "channel": 2,
      "note": 50,
      "start": 12.4657,
      "duration": 0.2827,
      "velocity": 78,
      "chip": "ym2612"
    },
    {
      "channel": 3,
      "note": 62,
      "start": 12.466,
      "duration": 0.2492,
      "velocity": 78,
      "chip": "ym2612"
    },
    {
      "channel": 4,
      "note": 74,
      "start": 12.4663,
      "duration": 0.249,
      "velocity": 78,
      "chip": "ym2612"
    },
    {
      "channel": 5,
      "note": 67,
      "start": 12.4666,
      "duration": 0.1654,
      "velocity": 99,
      "chip": "ym2612"
    },
    {
      "channel": 0,
      "note": 55,
      "start": 12.9484,
      "duration": 0.1998,
      "velocity": 97,
      "chip": "ym2612"
    },
    {
      "channel": 1,
      "note": 86,
      "start": 12.9487,
      "duration": 0.1997,
      "velocity": 78,
      "chip": "ym2612"
    },
    {
      "channel": 2,
      "note": 50,
      "start": 12.949,
      "duration": 0.2492,
      "velocity": 78,
      "chip": "ym2612"
    },
    {
      "channel": 3,
      "note": 62,
      "start": 12.9493,
      "duration": 0.2491,
      "velocity": 78,
      "chip": "ym2612"
    },
    {
      "channel": 4,
      "note": 74,
      "start": 12.9497,
      "duration": 0.249,
      "velocity": 78,
      "chip": "ym2612"
    },
    {
      "channel": 5,
      "note": 67,
      "start": 12.95,
      "duration": 0.1654,
      "velocity": 99,
      "chip": "ym2612"
    },
    {
      "channel": 0,
      "note": 57,
      "start": 13.4317,
      "duration": 3.3665,
      "velocity": 97,
      "chip": "ym2612"
    },
    {
      "channel": 1,
      "note": 88,
      "start": 13.432,
      "duration": 3.3663,
      "velocity": 78,
      "chip": "ym2612"
    },
    {
      "channel": 2,
      "note": 52,
      "start": 13.4324,
      "duration": 3.3661,
      "velocity": 78,
      "chip": "ym2612"
    },
    {
      "channel": 3,
      "note": 64,
      "start": 13.4327,
      "duration": 3.366,
      "velocity": 78,
      "chip": "ym2612"
    },
    {
      "channel": 4,
      "note": 76,
      "start": 13.433,
      "duration": 3.3659,
      "velocity": 78,
      "chip": "ym2612"
    },
    {
      "channel": 5,
      "note": 81,
      "start": 13.4333,
      "duration": 3.3657,
      "velocity": 99,
      "chip": "ym2612"
    },
    {
      "channel": 0,
      "note": 52,
      "start": 17.2651,
      "duration": 1.6498,
      "velocity": 97,
      "chip": "ym2612"
    },
    {
      "channel": 1,
      "note": 88,
      "start": 17.2666,
      "duration": 1.8483,
      "velocity": 98,
      "chip": "ym2612"
    },
    {
      "channel": 4,
      "note": 69,
      "start": 17.2688,
      "duration": 0.248,
      "velocity": 98,
      "chip": "ym2612"
    },
    {
      "channel": 2,
      "note": 88,
      "start": 17.4,
      "duration": 1.8317,
      "velocity": 98,
      "chip": "ym2612"
    },
    {
      "channel": 5,
      "note": 69,
      "start": 17.4006,
      "duration": 0.2314,
      "velocity": 98,
      "chip": "ym2612"
    },
    {
      "channel": 3,
      "note": 88,
      "start": 17.5166,
      "duration": 1.8319,
      "velocity": 98,
      "chip": "ym2612"
    },
    {
      "channel": 4,
      "note": 71,
      "start": 17.517,
      "duration": 0.2316,
      "velocity": 98,
      "chip": "ym2612"
    },
    {
      "channel": 5,
      "note": 71,
      "start": 17.6323,
      "duration": 0.233,
      "velocity": 98,
      "chip": "ym2612"
    },
    {
      "channel": 4,
      "note": 74,
      "start": 17.7488,
      "duration": 0.0832,
      "velocity": 98,
      "chip": "ym2612"
    },
    {
      "channel": 5,
      "note": 74,
      "start": 17.8655,
      "duration": 0.0832,
      "velocity": 98,
      "chip": "ym2612"
    },
    {
      "channel": 4,
      "note": 76,
      "start": 17.9988,
      "duration": 0.0332,
      "velocity": 98,
      "chip": "ym2612"
    },
    {
      "channel": 5,
      "note": 76,
      "start": 18.1155,
      "duration": 0.0332,
      "velocity": 98,
      "chip": "ym2612"
    },
    {
      "channel": 4,
      "note": 76,
      "start": 18.2321,
      "duration": 0.4332,
      "velocity": 98,
      "chip": "ym2612"
    },
    {
      "channel": 5,
      "note": 76,
      "start": 18.349,
      "duration": 0.4498,
      "velocity": 98,
      "chip": "ym2612"
    },
    {
      "channel": 4,
      "note": 69,
      "start": 18.7154,
      "duration": 0.2,
      "velocity": 98,
      "chip": "ym2612"
    },
    {
      "channel": 5,
      "note": 69,
      "start": 18.8323,
      "duration": 0.1998,
      "velocity": 98,
      "chip": "ym2612"
    },
    {
      "channel": 0,
      "note": 50,
      "start": 18.9484,
      "duration": 0.1998,
      "velocity": 97,
      "chip": "ym2612"
    },
    {
      "channel": 4,
      "note": 71,
      "start": 18.949,
      "duration": 0.1995,
      "velocity": 98,
      "chip": "ym2612"
    },
    {
      "channel": 5,
      "note": 71,
      "start": 19.0656,
      "duration": 0.1997,
      "velocity": 98,
      "chip": "ym2612"
    },
    {
      "channel": 0,
      "note": 52,
      "start": 19.1984,
      "duration": 0.1165,
      "velocity": 97,
      "chip": "ym2612"
    },
    {
      "channel": 1,
      "note": 83,
      "start": 19.1987,
      "duration": 1.9165,
      "velocity": 98,
      "chip": "ym2612"
    },
    {
      "channel": 4,
      "note": 74,
      "start": 19.1992,
      "duration": 0.0659,
      "velocity": 98,
      "chip": "ym2612"
    },
    {
      "channel": 2,
      "note": 83,
      "start": 19.3154,
      "duration": 1.9163,
      "velocity": 98,
      "chip": "ym2612"
    },
    {
      "channel": 5,
      "note": 74,
      "start": 19.3158,
      "duration": 0.0828,
      "velocity": 98,
      "chip": "ym2612"
    },
    {
      "channel": 3,
      "note": 83,
      "start": 19.432,
      "duration": 1.9165,
      "velocity": 98,
      "chip": "ym2612"
    },
    {
      "channel": 4,
      "note": 76,
      "start": 19.4324,
      "duration": 0.0329,
      "velocity": 98,
      "chip": "ym2612"
    },
    {
      "channel": 5,
      "note": 76,
      "start": 19.5488,
      "duration": 0.0498,
      "velocity": 98,
      "chip": "ym2612"
    },
    {
      "channel": 0,
      "note": 52,
      "start": 19.6651,
      "duration": 0.9665,
      "velocity": 97,
      "chip": "ym2612"
    },
    {
      "channel": 4,
      "note": 76,
      "start": 19.6657,
      "duration": 0.4829,
      "velocity": 98,
      "chip": "ym2612"
    },
    {
      "channel": 5,
      "note": 76,
      "start": 19.799,
      "duration": 0.4665,
      "velocity": 98,
      "chip": "ym2612"
    },
    {
      "channel": 4,
      "note": 69,
      "start": 20.1488,
      "duration": 0.1998,
      "velocity": 98,
      "chip": "ym2612"
    },
    {
      "channel": 5,
      "note": 69,
      "start": 20.2656,
      "duration": 0.1998,
      "velocity": 98,
      "chip": "ym2612"
    },
    {
      "channel": 4,
      "note": 71,
      "start": 20.3988,
      "duration": 0.1998,
      "velocity": 98,
      "chip": "ym2612"
    },
    {
      "channel": 5,
      "note": 71,
      "start": 20.5156,
      "duration": 0.1998,
      "velocity": 98,
      "chip": "ym2612"
    },
    {
      "channel": 0,
      "note": 57,
      "start": 20.6317,
      "duration": 0.2331,
      "velocity": 97,
      "chip": "ym2612"
    },
    {
      "channel": 4,
      "note": 74,
      "start": 20.6324,
      "duration": 0.2331,
      "velocity": 98,
      "chip": "ym2612"
    },
    {
      "channel": 5,
      "note": 74,
      "start": 20.749,
      "duration": 0.2498,
      "velocity": 98,
      "chip": "ym2612"
    },
    {
      "channel": 0,
      "note": 55,
      "start": 20.8651,
      "duration": 0.2498,
      "velocity": 97,
      "chip": "ym2612"
    },
    {
      "channel": 4,
      "note": 76,
      "start": 20.8657,
      "duration": 0.25,
      "velocity": 98,
      "chip": "ym2612"
    },
    {
      "channel": 5,
      "note": 76,
      "start": 20.999,
      "duration": 0.2333,
      "velocity": 98,
      "chip": "ym2612"
    },
    {
      "channel": 0,
      "note": 52,
      "start": 21.1151,
      "duration": 1.6831,
      "velocity": 97,
      "chip": "ym2612"
    },
    {
      "channel": 1,
      "note": 86,
      "start": 21.1154,
      "duration": 1.8829,
      "velocity": 98,
      "chip": "ym2612"
    },
    {
      "channel": 4,
      "note": 69,
      "start": 21.1159,
      "duration": 0.1994,
      "velocity": 98,
      "chip": "ym2612"
    },
    {
      "channel": 2,
      "note": 86,
      "start": 21.232,
      "duration": 1.8831,
      "velocity": 98,
      "chip": "ym2612"
    },
    {
      "channel": 5,
      "note": 69,
      "start": 21.2324,
      "duration": 0.1996,
      "velocity": 98,
      "chip": "ym2612"
    },
    {
      "channel": 3,
      "note": 86,
      "start": 21.3487,
      "duration": 1.8831,
      "velocity": 98,
      "chip": "ym2612"
    },
    {
      "channel": 4,
      "note": 71,
      "start": 21.349,
      "duration": 0.2495,
      "velocity": 98,
      "chip": "ym2612"
    },
    {
      "channel": 5,
      "note": 71,
      "start": 21.4656,
      "duration": 0.2497,
      "velocity": 98,
      "chip": "ym2612"
    },
    {
      "channel": 4,
      "note": 74,
      "start": 21.5988,
      "duration": 0.0665,
      "velocity": 98,
      "chip": "ym2612"
    },
    {
      "channel": 5,
      "note": 74,
      "start": 21.7155,
      "duration": 0.0832,
      "velocity": 98,
      "chip": "ym2612"
    },
    {
      "channel": 4,
      "note": 76,
      "start": 21.8321,
      "duration": 0.0332,
      "velocity": 98,
      "chip": "ym2612"
    },
    {
      "channel": 5,
      "note": 76,
      "start": 21.9488,
      "duration": 0.0498,
      "velocity": 98,
      "chip": "ym2612"
    },
    {
      "channel": 4,
      "note": 76,
      "start": 22.0654,
      "duration": 0.4832,
      "velocity": 98,
      "chip": "ym2612"
    },
    {
      "channel": 5,
      "note": 76,
      "start": 22.199,
      "duration": 0.4664,
      "velocity": 98,
      "chip": "ym2612"
    },
    {
      "channel": 4,
      "note": 69,
      "start": 22.5488,
      "duration": 0.2501,
      "velocity": 98,
      "chip": "ym2612"
    },
    {
      "channel": 5,
      "note": 69,
      "start": 22.6656,
      "duration": 0.2498,
      "velocity": 98,
      "chip": "ym2612"
    },
    {
      "channel": 0,
      "note": 50,
      "start": 22.7984,
      "duration": 0.2331,
      "velocity": 97,
      "chip": "ym2612"
    },
    {
      "channel": 4,
      "note": 71,
      "start": 22.799,
      "duration": 0.2333,
      "velocity": 98,
      "chip": "ym2612"
    },
    {
      "channel": 5,
      "note": 71,
      "start": 22.9156,
      "duration": 0.2333,
      "velocity": 98,
      "chip": "ym2612"
    },
    {
      "channel": 0,
      "note": 52,
      "start": 23.0317,
      "duration": 0.1165,
      "velocity": 97,
      "chip": "ym2612"
    },
    {
      "channel": 1,
      "note": 85,
      "start": 23.032,
      "duration": 0.9662,
      "velocity": 98,
      "chip": "ym2612"
    },
    {
      "channel": 4,
      "note": 74,
      "start": 23.0325,
      "duration": 0.0827,
      "velocity": 98,
      "chip": "ym2612"
    },
    {
      "channel": 2,
      "note": 85,
      "start": 23.1488,
      "duration": 0.9663,
      "velocity": 98,
      "chip": "ym2612"
    },
    {
      "channel": 5,
      "note": 74,
      "start": 23.1491,
      "duration": 0.0829,
      "velocity": 98,
      "chip": "ym2612"
    },
    {
      "channel": 3,
      "note": 85,
      "start": 23.2654,
      "duration": 0.9665,
      "velocity": 98,
      "chip": "ym2612"
    },
    {
      "channel": 4,
      "note": 76,
      "start": 23.2657,
      "duration": 0.0495,
      "velocity": 98,
      "chip": "ym2612"
    },
    {
      "channel": 5,
      "note": 76,
      "start": 23.3988,
      "duration": 0.0332,
      "velocity": 98,
      "chip": "ym2612"
    },
    {
      "channel": 0,
      "note": 52,
      "start": 23.5151,
      "duration": 1.0831,
      "velocity": 97,
      "chip": "ym2612"
    },
    {
      "channel": 4,
      "note": 76,
      "start": 23.5157,
      "duration": 0.4831,
      "velocity": 98,
      "chip": "ym2612"
    },
    {
      "channel": 5,
      "note": 76,
      "start": 23.6323,
      "duration": 0.4833,
      "velocity": 98,
      "chip": "ym2612"
    },
    {
      "channel": 1,
      "note": 81,
      "start": 23.9984,
      "duration": 0.9501,
      "velocity": 98,
      "chip": "ym2612"
    },
    {
      "channel": 4,
      "note": 69,
      "start": 23.999,
      "duration": 0.2332,
      "velocity": 98,
      "chip": "ym2612"
    },
    {
      "channel": 2,
      "note": 81,
      "start": 24.1153,
      "duration": 0.9498,
      "velocity": 98,
      "chip": "ym2612"
    },
    {
      "channel": 5,
      "note": 69,
      "start": 24.1157,
      "duration": 0.233,
      "velocity": 98,
      "chip": "ym2612"
    },
    {
      "channel": 3,
      "note": 81,
      "start": 24.232,
      "duration": 0.9665,
      "velocity": 98,
      "chip": "ym2612"
    },
    {
      "channel": 4,
      "note": 71,
      "start": 24.2324,
      "duration": 0.1995,
      "velocity": 98,
      "chip": "ym2612"
    },
    {
      "channel": 5,
      "note": 71,
      "start": 24.349,
      "duration": 0.1998,
      "velocity": 98,
      "chip": "ym2612"
    },
    {
      "channel": 4,
      "note": 74,
      "start": 24.4654,
      "duration": 0.1998,
      "velocity": 98,
      "chip": "ym2612"
    },
    {
      "channel": 5,
      "note": 74,
      "start": 24.5991,
      "duration": 0.1997,
      "velocity": 98,
      "chip": "ym2612"
    },
    {
      "channel": 4,
      "note": 76,
      "start": 24.7155,
      "duration": 0.2336,
      "velocity": 98,
      "chip": "ym2612"
    },
    {
      "channel": 5,
      "note": 76,
      "start": 24.8323,
      "duration": 0.2333,
      "velocity": 98,
      "chip": "ym2612"
    },
    {
      "channel": 0,
      "note": 52,
      "start": 24.9484,
      "duration": 1.5165,
      "velocity": 97,
      "chip": "ym2612"
    },
    {
      "channel": 1,
      "note": 83,
      "start": 24.9487,
      "duration": 3.3665,
      "velocity": 98,
      "chip": "ym2612"
    },
    {
      "channel": 4,
      "note": 69,
      "start": 24.9493,
      "duration": 0.2495,
      "velocity": 98,
      "chip": "ym2612"
    },
    {
      "channel": 2,
      "note": 83,
      "start": 25.0652,
      "duration": 3.3663,
      "velocity": 98,
      "chip": "ym2612"
    },
    {
      "channel": 5,
      "note": 69,
      "start": 25.0659,
      "duration": 0.2495,
      "velocity": 98,
      "chip": "ym2612"
    },
    {
      "channel": 3,
      "note": 83,
      "start": 25.1987,
      "duration": 3.3499,
      "velocity": 98,
      "chip": "ym2612"
    },
    {
      "channel": 4,
      "note": 71,
      "start": 25.199,
      "duration": 0.2329,
      "velocity": 98,
      "chip": "ym2612"
    },
    {
      "channel": 5,
      "note": 71,
      "start": 25.3156,
      "duration": 0.233,
      "velocity": 98,
      "chip": "ym2612"
    },
    {
      "channel": 4,
      "note": 74,
      "start": 25.4321,
      "duration": 0.0832,
      "velocity": 98,
      "chip": "ym2612"
    },
    {
      "channel": 5,
      "note": 74,
      "start": 25.5488,
      "duration": 0.0832,
      "velocity": 98,
      "chip": "ym2612"
    },
    {
      "channel": 4,
      "note": 76,
      "start": 25.6654,
      "duration": 0.0498,
      "velocity": 98,
      "chip": "ym2612"
    },
    {
      "channel": 5,
      "note": 76,
      "start": 25.7988,
      "duration": 0.0332,
      "velocity": 98,
      "chip": "ym2612"
    },
    {
      "channel": 4,
      "note": 76,
      "start": 25.9154,
      "duration": 0.4332,
      "velocity": 98,
      "chip": "ym2612"
    },
    {
      "channel": 5,
      "note": 76,
      "start": 26.0323,
      "duration": 0.4332,
      "velocity": 98,
      "chip": "ym2612"
    },
    {
      "channel": 4,
      "note": 69,
      "start": 26.3988,
      "duration": 0.1998,
      "velocity": 98,
      "chip": "ym2612"
    },
    {
      "channel": 5,
      "note": 69,
      "start": 26.5156,
      "duration": 0.1998,
      "velocity": 98,
      "chip": "ym2612"
    },
    {
      "channel": 0,
      "note": 50,
      "start": 26.6317,
      "duration": 0.2331,
      "velocity": 97,
      "chip": "ym2612"
    },
    {
      "channel": 4,
      "note": 71,
      "start": 26.6324,
      "duration": 0.1995,
      "velocity": 98,
      "chip": "ym2612"
    },
    {
      "channel": 5,
      "note": 71,
      "start": 26.749,
      "duration": 0.1999,
      "velocity": 98,
      "chip": "ym2612"
    },
    {
      "channel": 0,
      "note": 52,
      "start": 26.8651,
      "duration": 0.0831,
      "velocity": 97,
      "chip": "ym2612"
    },
    {
      "channel": 4,
      "note": 74,
      "start": 26.8657,
      "duration": 0.083,
      "velocity": 98,
      "chip": "ym2612"
    },
    {
      "channel": 5,
      "note": 74,
      "start": 26.9988,
      "duration": 0.0666,
      "velocity": 98,
      "chip": "ym2612"
    },
    {
      "channel": 4,
      "note": 76,
      "start": 27.1155,
      "duration": 0.0331,
      "velocity": 98,
      "chip": "ym2612"
    },
    {
      "channel": 5,
      "note": 76,
      "start": 27.2322,
      "duration": 0.0332,
      "velocity": 98,
      "chip": "ym2612"
    },
    {
      "channel": 0,
      "note": 52,
      "start": 27.3484,
      "duration": 0.9665,
      "velocity": 97,
      "chip": "ym2612"
    },
    {
      "channel": 4,
      "note": 76,
      "start": 27.349,
      "duration": 0.4829,
      "velocity": 98,
      "chip": "ym2612"
    },
    {
      "channel": 5,
      "note": 76,
      "start": 27.4656,
      "duration": 0.4831,
      "velocity": 98,
      "chip": "ym2612"
    },
    {
      "channel": 4,
      "note": 69,
      "start": 27.8321,
      "duration": 0.1998,
      "velocity": 98,
      "chip": "ym2612"
    },
    {
      "channel": 5,
      "note": 69,
      "start": 27.949,
      "duration": 0.1998,
      "velocity": 98,
      "chip": "ym2612"
    },
    {
      "channel": 4,
      "note": 71,
      "start": 28.0654,
      "duration": 0.1998,
      "velocity": 98,
      "chip": "ym2612"
    },
    {
      "channel": 5,
      "note": 71,
      "start": 28.199,
      "duration": 0.1997,
      "velocity": 98,
      "chip": "ym2612"
    },
    {
      "channel": 0,
      "note": 57,
      "start": 28.3151,
      "duration": 0.2331,
      "velocity": 97,
      "chip": "ym2612"
    },
    {
      "channel": 4,
      "note": 74,
      "start": 28.3157,
      "duration": 0.233,
      "velocity": 98,
      "chip": "ym2612"
    },
    {
      "channel": 5,
      "note": 74,
      "start": 28.4322,
      "duration": 0.233,
      "velocity": 98,
      "chip": "ym2612"
    },
    {
      "channel": 0,
      "note": 55,
      "start": 28.5484,
      "duration": 0.2498,
      "velocity": 97,
      "chip": "ym2612"
    },
    {
      "channel": 4,
      "note": 76,
      "start": 28.549,
      "duration": 0.2498,
      "velocity": 98,
      "chip": "ym2612"
    },
    {
      "channel": 5,
      "note": 76,
      "start": 28.6654,
      "duration": 0.2499,
      "velocity": 98,
      "chip": "ym2612"
    },
    {
      "channel": 0,
      "note": 52,
      "start": 28.7984,
      "duration": 1.6665,
      "velocity": 97,
      "chip": "ym2612"
    },
    {
      "channel": 4,
      "note": 69,
      "start": 28.799,
      "duration": 0.1994,
      "velocity": 98,
      "chip": "ym2612"
    },
    {
      "channel": 5,
      "note": 69,
      "start": 28.9155,
      "duration": 0.1997,
      "velocity": 98,
      "chip": "ym2612"
    },
    {
      "channel": 4,
      "note": 71,
      "start": 29.032,
      "duration": 0.2329,
      "velocity": 98,
      "chip": "ym2612"
    },
    {
      "channel": 5,
      "note": 71,
      "start": 29.1487,
      "duration": 0.2497,
      "velocity": 98,
      "chip": "ym2612"
    },
    {
      "channel": 4,
      "note": 74,
      "start": 29.2652,
      "duration": 0.0831,
      "velocity": 98,
      "chip": "ym2612"
    },
    {
      "channel": 5,
      "note": 74,
      "start": 29.3986,
      "duration": 0.0665,
      "velocity": 98,
      "chip": "ym2612"
    },
    {
      "channel": 4,
      "note": 76,
      "start": 29.5152,
      "duration": 0.0331,
      "velocity": 98,
      "chip": "ym2612"
    },
    {
      "channel": 5,
      "note": 76,
      "start": 29.6319,
      "duration": 0.0332,
      "velocity": 98,
      "chip": "ym2612"
    },
    {
      "channel": 4,
      "note": 76,
      "start": 29.7486,
      "duration": 0.4831,
      "velocity": 98,
      "chip": "ym2612"
    },
    {
      "channel": 5,
      "note": 76,
      "start": 29.8654,
      "duration": 0.4831,
      "velocity": 98,
      "chip": "ym2612"
    },
    {
      "channel": 4,
      "note": 69,
      "start": 30.2319,
      "duration": 0.2333,
      "velocity": 98,
      "chip": "ym2612"
    },
    {
      "channel": 5,
      "note": 69,
      "start": 30.3487,
      "duration": 0.2498,
      "velocity": 98,
      "chip": "ym2612"
    },
    {
      "channel": 0,
      "note": 50,
      "start": 30.4651,
      "duration": 0.2498,
      "velocity": 97,
      "chip": "ym2612"
    },
    {
      "channel": 4,
      "note": 71,
      "start": 30.4655,
      "duration": 0.2499,
      "velocity": 98,
      "chip": "ym2612"
    },
    {
      "channel": 5,
      "note": 71,
      "start": 30.5987,
      "duration": 0.2331,
      "velocity": 98,
      "chip": "ym2612"
    },
    {
      "channel": 0,
      "note": 52,
      "start": 30.7151,
      "duration": 0.0831,
      "velocity": 97,
      "chip": "ym2612"
    },
    {
      "channel": 4,
      "note": 74,
      "start": 30.7156,
      "duration": 0.0828,
      "velocity": 98,
      "chip": "ym2612"
    },
    {
      "channel": 5,
      "note": 74,
      "start": 30.832,
      "duration": 0.083,
      "velocity": 98,
      "chip": "ym2612"
    },
    {
      "channel": 4,
      "note": 76,
      "start": 30.9487,
      "duration": 0.0496,
      "velocity": 98,
      "chip": "ym2612"
    },
    {
      "channel": 5,
      "note": 76,
      "start": 31.0652,
      "duration": 0.0498,
      "velocity": 98,
      "chip": "ym2612"
    },
    {
      "channel": 0,
      "note": 52,
      "start": 31.1984,
      "duration": 0.4665,
      "velocity": 97,
      "chip": "ym2612"
    },
    {
      "channel": 4,
      "note": 76,
      "start": 31.1988,
      "duration": 0.4664,
      "velocity": 98,
      "chip": "ym2612"
    },
    {
      "channel": 5,
      "note": 76,
      "start": 31.3154,
      "duration": 0.4831,
      "velocity": 98,
      "chip": "ym2612"
    },
    {
      "channel": 0,
      "note": 57,
      "start": 31.6651,
      "duration": 0.2498,
      "velocity": 97,
      "chip": "ym2612"
    },
    {
      "channel": 4,
      "note": 69,
      "start": 31.6655,
      "duration": 0.2498,
      "velocity": 98,
      "chip": "ym2612"
    },
    {
      "channel": 5,
      "note": 69,
      "start": 31.7987,
      "duration": 0.2331,
      "velocity": 98,
      "chip": "ym2612"
    },
    {
      "channel": 0,
      "note": 59,
      "start": 31.9151,
      "duration": 0.2331,
      "velocity": 97,
      "chip": "ym2612"
    },
    {
      "channel": 4,
      "note": 71,
      "start": 31.9155,
      "duration": 0.1995,
      "velocity": 98,
      "chip": "ym2612"
    },
    {
      "channel": 5,
      "note": 71,
      "start": 32.032,
      "duration": 0.1998,
      "velocity": 98,
      "chip": "ym2612"
    },
    {
      "channel": 0,
      "note": 50,
      "start": 32.1484,
      "duration": 0.2498,
      "velocity": 97,
      "chip": "ym2612"
    },
    {
      "channel": 4,
      "note": 74,
      "start": 32.1488,
      "duration": 0.1995,
      "velocity": 98,
      "chip": "ym2612"
    },
    {
      "channel": 5,
      "note": 74,
      "start": 32.2654,
      "duration": 0.1998,
      "velocity": 98,
      "chip": "ym2612"
    },
    {
      "channel": 0,
      "note": 52,
      "start": 32.3984,
      "duration": 0.2332,
      "velocity": 97,
      "chip": "ym2612"
    },
    {
      "channel": 4,
      "note": 76,
      "start": 32.3988,
      "duration": 0.2335,
      "velocity": 98,
      "chip": "ym2612"
    },
    {
      "channel": 5,
      "note": 76,
      "start": 32.5154,
      "duration": 0.2335,
      "velocity": 98,
      "chip": "ym2612"
    },
    {
      "channel": 0,
      "note": 52,
      "start": 32.6318,
      "duration": 1.6331,
      "velocity": 97,
      "chip": "ym2612"
    },
    {
      "channel": 1,
      "note": 88,
      "start": 32.6321,
      "duration": 1.9164,
      "velocity": 98,
      "chip": "ym2612"
    },
    {
      "channel": 4,
      "note": 69,
      "start": 32.6326,
      "duration": 0.2329,
      "velocity": 98,
      "chip": "ym2612"
    },
    {
      "channel": 2,
      "note": 88,
      "start": 32.7486,
      "duration": 1.9165,
      "velocity": 98,
      "chip": "ym2612"
    },
    {
      "channel": 5,
      "note": 69,
      "start": 32.7492,
      "duration": 0.2495,
      "velocity": 98,
      "chip": "ym2612"
    },
    {
      "channel": 3,
      "note": 88,
      "start": 32.8654,
      "duration": 1.9331,
      "velocity": 98,
      "chip": "ym2612"
    },
    {
      "channel": 4,
      "note": 71,
      "start": 32.8657,
      "duration": 0.2495,
      "velocity": 98,
      "chip": "ym2612"
    },
    {
      "channel": 5,
      "note": 71,
      "start": 32.999,
      "duration": 0.233,
      "velocity": 98,
      "chip": "ym2612"
    },
    {
      "channel": 4,
      "note": 74,
      "start": 33.1154,
      "duration": 0.0832,
      "velocity": 98,
      "chip": "ym2612"
    },
    {
      "channel": 5,
      "note": 74,
      "start": 33.2322,
      "duration": 0.0832,
      "velocity": 98,
      "chip": "ym2612"
    },
    {
      "channel": 4,
      "note": 76,
      "start": 33.3488,
      "duration": 0.0498,
      "velocity": 98,
      "chip": "ym2612"
    },
    {
      "channel": 5,
      "note": 76,
      "start": 33.4655,
      "duration": 0.0498,
      "velocity": 98,
      "chip": "ym2612"
    },
    {
      "channel": 4,
      "note": 76,
      "start": 33.5988,
      "duration": 0.4332,
      "velocity": 98,
      "chip": "ym2612"
    },
    {
      "channel": 5,
      "note": 76,
      "start": 33.7156,
      "duration": 0.4331,
      "velocity": 98,
      "chip": "ym2612"
    },
    {
      "channel": 4,
      "note": 69,
      "start": 34.0654,
      "duration": 0.2,
      "velocity": 98,
      "chip": "ym2612"
    },
    {
      "channel": 5,
      "note": 69,
      "start": 34.199,
      "duration": 0.1998,
      "velocity": 98,
      "chip": "ym2612"
    },
    {
      "channel": 0,
      "note": 50,
      "start": 34.3151,
      "duration": 0.1998,
      "velocity": 97,
      "chip": "ym2612"
    },
    {
      "channel": 4,
      "note": 71,
      "start": 34.3157,
      "duration": 0.1997,
      "velocity": 98,
      "chip": "ym2612"
    },
    {
      "channel": 5,
      "note": 71,
      "start": 34.4323,
      "duration": 0.1998,
      "velocity": 98,
      "chip": "ym2612"
    },
    {
      "channel": 0,
      "note": 52,
      "start": 34.5484,
      "duration": 0.1165,
      "velocity": 97,
      "chip": "ym2612"
    },
    {
      "channel": 1,
      "note": 91,
      "start": 34.5487,
      "duration": 1.9165,
      "velocity": 98,
      "chip": "ym2612"
    },
    {
      "channel": 4,
      "note": 74,
      "start": 34.5492,
      "duration": 0.0827,
      "velocity": 98,
      "chip": "ym2612"
    },
    {
      "channel": 2,
      "note": 91,
      "start": 34.6654,
      "duration": 1.933,
      "velocity": 98,
      "chip": "ym2612"
    },
    {
      "channel": 5,
      "note": 74,
      "start": 34.6658,
      "duration": 0.0828,
      "velocity": 98,
      "chip": "ym2612"
    },
    {
      "channel": 3,
      "note": 91,
      "start": 34.7987,
      "duration": 1.9165,
      "velocity": 98,
      "chip": "ym2612"
    },
    {
      "channel": 4,
      "note": 76,
      "start": 34.799,
      "duration": 0.0329,
      "velocity": 98,
      "chip": "ym2612"
    },
    {
      "channel": 5,
      "note": 76,
      "start": 34.9155,
      "duration": 0.0332,
      "velocity": 98,
      "chip": "ym2612"
    },
    {
      "channel": 0,
      "note": 52,
      "start": 35.0317,
      "duration": 0.9665,
      "velocity": 97,
      "chip": "ym2612"
    },
    {
      "channel": 4,
      "note": 76,
      "start": 35.0324,
      "duration": 0.4829,
      "velocity": 98,
      "chip": "ym2612"
    },
    {
      "channel": 5,
      "note": 76,
      "start": 35.149,
      "duration": 0.4831,
      "velocity": 98,
      "chip": "ym2612"
    },
    {
      "channel": 4,
      "note": 69,
      "start": 35.5154,
      "duration": 0.1998,
      "velocity": 98,
      "chip": "ym2612"
    },
    {
      "channel": 5,
      "note": 69,
      "start": 35.6323,
      "duration": 0.1998,
      "velocity": 98,
      "chip": "ym2612"
    },
    {
      "channel": 4,
      "note": 71,
      "start": 35.7488,
      "duration": 0.1998,
      "velocity": 98,
      "chip": "ym2612"
    },
    {
      "channel": 5,
      "note": 71,
      "start": 35.8656,
      "duration": 0.1998,
      "velocity": 98,
      "chip": "ym2612"
    },
    {
      "channel": 0,
      "note": 57,
      "start": 35.9984,
      "duration": 0.2331,
      "velocity": 97,
      "chip": "ym2612"
    },
    {
      "channel": 4,
      "note": 74,
      "start": 35.9991,
      "duration": 0.2331,
      "velocity": 98,
      "chip": "ym2612"
    },
    {
      "channel": 5,
      "note": 74,
      "start": 36.1156,
      "duration": 0.2331,
      "velocity": 98,
      "chip": "ym2612"
    },
    {
      "channel": 0,
      "note": 55,
      "start": 36.2317,
      "duration": 0.2331,
      "velocity": 97,
      "chip": "ym2612"
    },
    {
      "channel": 4,
      "note": 76,
      "start": 36.2324,
      "duration": 0.2333,
      "velocity": 98,
      "chip": "ym2612"
    },
    {
      "channel": 5,
      "note": 76,
      "start": 36.349,
      "duration": 0.2499,
      "velocity": 98,
      "chip": "ym2612"
    },
    {
      "channel": 0,
      "note": 52,
      "start": 36.4651,
      "duration": 1.6831,
      "velocity": 97,
      "chip": "ym2612"
    },
    {
      "channel": 1,
      "note": 93,
      "start": 36.4654,
      "duration": 1.9331,
      "velocity": 98,
      "chip": "ym2612"
    },
    {
      "channel": 4,
      "note": 69,
      "start": 36.4659,
      "duration": 0.1994,
      "velocity": 98,
      "chip": "ym2612"
    },
    {
      "channel": 2,
      "note": 93,
      "start": 36.5986,
      "duration": 1.9165,
      "velocity": 98,
      "chip": "ym2612"
    },
    {
      "channel": 5,
      "note": 69,
      "start": 36.5991,
      "duration": 0.1996,
      "velocity": 98,
      "chip": "ym2612"
    },
    {
      "channel": 3,
      "note": 93,
      "start": 36.7154,
      "duration": 1.9165,
      "velocity": 98,
      "chip": "ym2612"
    },
    {
      "channel": 4,
      "note": 71,
      "start": 36.7157,
      "duration": 0.2329,
      "velocity": 98,
      "chip": "ym2612"
    },
    {
      "channel": 5,
      "note": 71,
      "start": 36.8323,
      "duration": 0.233,
      "velocity": 98,
      "chip": "ym2612"
    },
    {
      "channel": 4,
      "note": 74,
      "start": 36.9488,
      "duration": 0.0832,
      "velocity": 98,
      "chip": "ym2612"
    },
    {
      "channel": 5,
      "note": 74,
      "start": 37.0655,
      "duration": 0.0832,
      "velocity": 98,
      "chip": "ym2612"
    },
    {
      "channel": 4,
      "note": 76,
      "start": 37.1988,
      "duration": 0.0332,
      "velocity": 98,
      "chip": "ym2612"
    },
    {
      "channel": 5,
      "note": 76,
      "start": 37.3155,
      "duration": 0.0332,
      "velocity": 98,
      "chip": "ym2612"
    },
    {
      "channel": 4,
      "note": 76,
      "start": 37.4321,
      "duration": 0.4832,
      "velocity": 98,
      "chip": "ym2612"
    },
    {
      "channel": 5,
      "note": 76,
      "start": 37.549,
      "duration": 0.4831,
      "velocity": 98,
      "chip": "ym2612"
    },
    {
      "channel": 4,
      "note": 69,
      "start": 37.9154,
      "duration": 0.2334,
      "velocity": 98,
      "chip": "ym2612"
    },
    {
      "channel": 5,
      "note": 69,
      "start": 38.0323,
      "duration": 0.2331,
      "velocity": 98,
      "chip": "ym2612"
    },
    {
      "channel": 0,
      "note": 50,
      "start": 38.1484,
      "duration": 0.2498,
      "velocity": 97,
      "chip": "ym2612"
    },
    {
      "channel": 4,
      "note": 71,
      "start": 38.149,
      "duration": 0.25,
      "velocity": 98,
      "chip": "ym2612"
    },
    {
      "channel": 5,
      "note": 71,
      "start": 38.2656,
      "duration": 0.2499,
      "velocity": 98,
      "chip": "ym2612"
    },
    {
      "channel": 0,
      "note": 52,
      "start": 38.3984,
      "duration": 0.1165,
      "velocity": 97,
      "chip": "ym2612"
    },
    {
      "channel": 1,
      "note": 95,
      "start": 38.3987,
      "duration": 0.9495,
      "velocity": 98,
      "chip": "ym2612"
    },
    {
      "channel": 4,
      "note": 74,
      "start": 38.3992,
      "duration": 0.066,
      "velocity": 98,
      "chip": "ym2612"
    },
    {
      "channel": 2,
      "note": 95,
      "start": 38.5154,
      "duration": 0.9496,
      "velocity": 98,
      "chip": "ym2612"
    },
    {
      "channel": 5,
      "note": 74,
      "start": 38.5158,
      "duration": 0.0828,
      "velocity": 98,
      "chip": "ym2612"
    },
    {
      "channel": 3,
      "note": 95,
      "start": 38.632,
      "duration": 0.9665,
      "velocity": 98,
      "chip": "ym2612"
    },
    {
      "channel": 4,
      "note": 76,
      "start": 38.6324,
      "duration": 0.0329,
      "velocity": 98,
      "chip": "ym2612"
    },
    {
      "channel": 5,
      "note": 76,
      "start": 38.7488,
      "duration": 0.0498,
      "velocity": 98,
      "chip": "ym2612"
    },
    {
      "channel": 0,
      "note": 52,
      "start": 38.8651,
      "duration": 1.0831,
      "velocity": 97,
      "chip": "ym2612"
    },
    {
      "channel": 4,
      "note": 76,
      "start": 38.8657,
      "duration": 0.4831,
      "velocity": 98,
      "chip": "ym2612"
    },
    {
      "channel": 5,
      "note": 76,
      "start": 38.999,
      "duration": 0.4666,
      "velocity": 98,
      "chip": "ym2612"
    },
    {
      "channel": 1,
      "note": 91,
      "start": 39.3484,
      "duration": 0.9165,
      "velocity": 98,
      "chip": "ym2612"
    },
    {
      "channel": 4,
      "note": 69,
      "start": 39.349,
      "duration": 0.2499,
      "velocity": 98,
      "chip": "ym2612"
    },
    {
      "channel": 2,
      "note": 91,
      "start": 39.4652,
      "duration": 0.9332,
      "velocity": 98,
      "chip": "ym2612"
    },
    {
      "channel": 5,
      "note": 69,
      "start": 39.4657,
      "duration": 0.2496,
      "velocity": 98,
      "chip": "ym2612"
    },
    {
      "channel": 3,
      "note": 91,
      "start": 39.5987,
      "duration": 0.9165,
      "velocity": 98,
      "chip": "ym2612"
    },
    {
      "channel": 4,
      "note": 71,
      "start": 39.599,
      "duration": 0.1995,
      "velocity": 98,
      "chip": "ym2612"
    },
    {
      "channel": 5,
      "note": 71,
      "start": 39.7156,
      "duration": 0.1998,
      "velocity": 98,
      "chip": "ym2612"
    },
    {
      "channel": 4,
      "note": 74,
      "start": 39.8321,
      "duration": 0.1998,
      "velocity": 98,
      "chip": "ym2612"
    },
    {
      "channel": 5,
      "note": 74,
      "start": 39.9491,
      "duration": 0.1997,
      "velocity": 98,
      "chip": "ym2612"
    },
    {
      "channel": 4,
      "note": 76,
      "start": 40.0655,
      "duration": 0.2502,
      "velocity": 98,
      "chip": "ym2612"
    },
    {
      "channel": 5,
      "note": 76,
      "start": 40.199,
      "duration": 0.2333,
      "velocity": 98,
      "chip": "ym2612"
    },
    {
      "channel": 0,
      "note": 52,
      "start": 40.3151,
      "duration": 1.5165,
      "velocity": 97,
      "chip": "ym2612"
    },
    {
      "channel": 1,
      "note": 88,
      "start": 40.3154,
      "duration": 2.8829,
      "velocity": 98,
      "chip": "ym2612"
    },
    {
      "channel": 4,
      "note": 69,
      "start": 40.3159,
      "duration": 0.2329,
      "velocity": 98,
      "chip": "ym2612"
    },
    {
      "channel": 2,
      "note": 88,
      "start": 40.432,
      "duration": 2.8831,
      "velocity": 98,
      "chip": "ym2612"
    },
    {
      "channel": 5,
      "note": 69,
      "start": 40.4325,
      "duration": 0.2328,
      "velocity": 98,
      "chip": "ym2612"
    },
    {
      "channel": 3,
      "note": 88,
      "start": 40.5487,
      "duration": 2.8831,
      "velocity": 98,
      "chip": "ym2612"
    },
    {
      "channel": 4,
      "note": 71,
      "start": 40.549,
      "duration": 0.2495,
      "velocity": 98,
      "chip": "ym2612"
    },
    {
      "channel": 5,
      "note": 71,
      "start": 40.6656,
      "duration": 0.2497,
      "velocity": 98,
      "chip": "ym2612"
    },
    {
      "channel": 4,
      "note": 74,
      "start": 40.7988,
      "duration": 0.0665,
      "velocity": 98,
      "chip": "ym2612"
    },
    {
      "channel": 5,
      "note": 74,
      "start": 40.9155,
      "duration": 0.0832,
      "velocity": 98,
      "chip": "ym2612"
    },
    {
      "channel": 4,
      "note": 76,
      "start": 41.0321,
      "duration": 0.0332,
      "velocity": 98,
      "chip": "ym2612"
    },
    {
      "channel": 5,
      "note": 76,
      "start": 41.1488,
      "duration": 0.0498,
      "velocity": 98,
      "chip": "ym2612"
    },
    {
      "channel": 4,
      "note": 76,
      "start": 41.2654,
      "duration": 0.4498,
      "velocity": 98,
      "chip": "ym2612"
    },
    {
      "channel": 5,
      "note": 76,
      "start": 41.399,
      "duration": 0.4332,
      "velocity": 98,
      "chip": "ym2612"
    },
    {
      "channel": 4,
      "note": 69,
      "start": 41.7488,
      "duration": 0.1998,
      "velocity": 98,
      "chip": "ym2612"
    },
    {
      "channel": 5,
      "note": 69,
      "start": 41.8656,
      "duration": 0.1998,
      "velocity": 98,
      "chip": "ym2612"
    },
    {
      "channel": 0,
      "note": 50,
      "start": 41.9984,
      "duration": 0.2331,
      "velocity": 97,
      "chip": "ym2612"
    },
    {
      "channel": 4,
      "note": 71,
      "start": 41.999,
      "duration": 0.1995,
      "velocity": 98,
      "chip": "ym2612"
    },
    {
      "channel": 5,
      "note": 71,
      "start": 42.1156,
      "duration": 0.1999,
      "velocity": 98,
      "chip": "ym2612"
    },
    {
      "channel": 0,
      "note": 52,
      "start": 42.2317,
      "duration": 0.0831,
      "velocity": 97,
      "chip": "ym2612"
    },
    {
      "channel": 4,
      "note": 74,
      "start": 42.2324,
      "duration": 0.083,
      "velocity": 98,
      "chip": "ym2612"
    },
    {
      "channel": 5,
      "note": 74,
      "start": 42.3488,
      "duration": 0.0832,
      "velocity": 98,
      "chip": "ym2612"
    },
    {
      "channel": 4,
      "note": 76,
      "start": 42.4656,
      "duration": 0.0497,
      "velocity": 98,
      "chip": "ym2612"
    },
    {
      "channel": 5,
      "note": 76,
      "start": 42.5988,
      "duration": 0.0332,
      "velocity": 98,
      "chip": "ym2612"
    },
    {
      "channel": 0,
      "note": 52,
      "start": 42.7151,
      "duration": 0.9498,
      "velocity": 97,
      "chip": "ym2612"
    },
    {
      "channel": 4,
      "note": 76,
      "start": 42.7157,
      "duration": 0.4831,
      "velocity": 98,
      "chip": "ym2612"
    },
    {
      "channel": 5,
      "note": 76,
      "start": 42.8323,
      "duration": 0.4833,
      "velocity": 98,
      "chip": "ym2612"
    },
    {
      "channel": 1,
      "note": 83,
      "start": 43.1984,
      "duration": 0.9501,
      "velocity": 98,
      "chip": "ym2612"
    },
    {
      "channel": 4,
      "note": 69,
      "start": 43.199,
      "duration": 0.1996,
      "velocity": 98,
      "chip": "ym2612"
    },
    {
      "channel": 2,
      "note": 83,
      "start": 43.3152,
      "duration": 0.9498,
      "velocity": 98,
      "chip": "ym2612"
    },
    {
      "channel": 5,
      "note": 69,
      "start": 43.3157,
      "duration": 0.1996,
      "velocity": 98,
      "chip": "ym2612"
    },
    {
      "channel": 3,
      "note": 83,
      "start": 43.432,
      "duration": 0.9665,
      "velocity": 98,
      "chip": "ym2612"
    },
    {
      "channel": 4,
      "note": 71,
      "start": 43.4324,
      "duration": 0.1995,
      "velocity": 98,
      "chip": "ym2612"
    },
    {
      "channel": 5,
      "note": 71,
      "start": 43.549,
      "duration": 0.1998,
      "velocity": 98,
      "chip": "ym2612"
    },
    {
      "channel": 0,
      "note": 57,
      "start": 43.6651,
      "duration": 0.2498,
      "velocity": 97,
      "chip": "ym2612"
    },
    {
      "channel": 4,
      "note": 74,
      "start": 43.6657,
      "duration": 0.2498,
      "velocity": 98,
      "chip": "ym2612"
    },
    {
      "channel": 5,
      "note": 74,
      "start": 43.799,
      "duration": 0.2331,
      "velocity": 98,
      "chip": "ym2612"
    },
    {
      "channel": 0,
      "note": 55,
      "start": 43.9151,
      "duration": 0.2331,
      "velocity": 97,
      "chip": "ym2612"
    },
    {
      "channel": 4,
      "note": 76,
      "start": 43.9157,
      "duration": 0.2333,
      "velocity": 98,
      "chip": "ym2612"
    },
    {
      "channel": 5,
      "note": 76,
      "start": 44.0323,
      "duration": 0.2333,
      "velocity": 98,
      "chip": "ym2612"
    },
    {
      "channel": 0,
      "note": 52,
      "start": 44.1484,
      "duration": 1.6831,
      "velocity": 97,
      "chip": "ym2612"
    },
    {
      "channel": 1,
      "note": 88,
      "start": 44.1487,
      "duration": 3.3665,
      "velocity": 98,
      "chip": "ym2612"
    },
    {
      "channel": 4,
      "note": 69,
      "start": 44.1492,
      "duration": 0.1994,
      "velocity": 98,
      "chip": "ym2612"
    },
    {
      "channel": 2,
      "note": 88,
      "start": 44.2652,
      "duration": 3.3663,
      "velocity": 98,
      "chip": "ym2612"
    },
    {
      "channel": 5,
      "note": 69,
      "start": 44.2657,
      "duration": 0.1996,
      "velocity": 98,
      "chip": "ym2612"
    },
    {
      "channel": 3,
      "note": 88,
      "start": 44.3987,
      "duration": 3.3499,
      "velocity": 98,
      "chip": "ym2612"
    },
    {
      "channel": 4,
      "note": 71,
      "start": 44.399,
      "duration": 0.2329,
      "velocity": 98,
      "chip": "ym2612"
    },
    {
      "channel": 5,
      "note": 71,
      "start": 44.5156,
      "duration": 0.233,
      "velocity": 98,
      "chip": "ym2612"
    },
    {
      "channel": 4,
      "note": 74,
      "start": 44.6321,
      "duration": 0.0832,
      "velocity": 98,
      "chip": "ym2612"
    },
    {
      "channel": 5,
      "note": 74,
      "start": 44.7488,
      "duration": 0.0832,
      "velocity": 98,
      "chip": "ym2612"
    },
    {
      "channel": 4,
      "note": 76,
      "start": 44.8654,
      "duration": 0.0498,
      "velocity": 98,
      "chip": "ym2612"
    },
    {
      "channel": 5,
      "note": 76,
      "start": 44.9988,
      "duration": 0.0332,
      "velocity": 98,
      "chip": "ym2612"
    },
    {
      "channel": 4,
      "note": 76,
      "start": 45.1154,
      "duration": 0.4832,
      "velocity": 98,
      "chip": "ym2612"
    },
    {
      "channel": 5,
      "note": 76,
      "start": 45.2323,
      "duration": 0.4831,
      "velocity": 98,
      "chip": "ym2612"
    },
    {
      "channel": 4,
      "note": 69,
      "start": 45.5988,
      "duration": 0.2333,
      "velocity": 98,
      "chip": "ym2612"
    },
    {
      "channel": 5,
      "note": 69,
      "start": 45.7156,
      "duration": 0.2331,
      "velocity": 98,
      "chip": "ym2612"
    },
    {
      "channel": 0,
      "note": 50,
      "start": 45.8317,
      "duration": 0.2331,
      "velocity": 97,
      "chip": "ym2612"
    },
    {
      "channel": 4,
      "note": 71,
      "start": 45.8324,
      "duration": 0.2331,
      "velocity": 98,
      "chip": "ym2612"
    },
    {
      "channel": 5,
      "note": 71,
      "start": 45.949,
      "duration": 0.2496,
      "velocity": 98,
      "chip": "ym2612"
    },
    {
      "channel": 0,
      "note": 52,
      "start": 46.0651,
      "duration": 0.0831,
      "velocity": 97,
      "chip": "ym2612"
    },
    {
      "channel": 4,
      "note": 74,
      "start": 46.0657,
      "duration": 0.083,
      "velocity": 98,
      "chip": "ym2612"
    },
    {
      "channel": 5,
      "note": 74,
      "start": 46.1988,
      "duration": 0.0666,
      "velocity": 98,
      "chip": "ym2612"
    },
    {
      "channel": 4,
      "note": 76,
      "start": 46.3155,
      "duration": 0.0331,
      "velocity": 98,
      "chip": "ym2612"
    },
    {
      "channel": 5,
      "note": 76,
      "start": 46.4322,
      "duration": 0.0332,
      "velocity": 98,
      "chip": "ym2612"
    },
    {
      "channel": 0,
      "note": 52,
      "start": 46.5484,
      "duration": 0.4831,
      "velocity": 97,
      "chip": "ym2612"
    },
    {
      "channel": 4,
      "note": 76,
      "start": 46.549,
      "duration": 0.4831,
      "velocity": 98,
      "chip": "ym2612"
    },
    {
      "channel": 5,
      "note": 76,
      "start": 46.6656,
      "duration": 0.4831,
      "velocity": 98,
      "chip": "ym2612"
    },
    {
      "channel": 0,
      "note": 57,
      "start": 47.0317,
      "duration": 0.2331,
      "velocity": 97,
      "chip": "ym2612"
    },
    {
      "channel": 4,
      "note": 69,
      "start": 47.0324,
      "duration": 0.2331,
      "velocity": 98,
      "chip": "ym2612"
    },
    {
      "channel": 5,
      "note": 69,
      "start": 47.149,
      "duration": 0.2498,
      "velocity": 98,
      "chip": "ym2612"
    },
    {
      "channel": 0,
      "note": 59,
      "start": 47.2651,
      "duration": 0.2498,
      "velocity": 97,
      "chip": "ym2612"
    },
    {
      "channel": 4,
      "note": 71,
      "start": 47.2657,
      "duration": 0.1995,
      "velocity": 98,
      "chip": "ym2612"
    },
    {
      "channel": 5,
      "note": 71,
      "start": 47.399,
      "duration": 0.1997,
      "velocity": 98,
      "chip": "ym2612"
    },
    {
      "channel": 0,
      "note": 50,
      "start": 47.5151,
      "duration": 0.2331,
      "velocity": 97,
      "chip": "ym2612"
    },
    {
      "channel": 4,
      "note": 74,
      "start": 47.5157,
      "duration": 0.1993,
      "velocity": 98,
      "chip": "ym2612"
    },
    {
      "channel": 5,
      "note": 74,
      "start": 47.6322,
      "duration": 0.1997,
      "velocity": 98,
      "chip": "ym2612"
    },
    {
      "channel": 0,
      "note": 52,
      "start": 47.7484,
      "duration": 0.2499,
      "velocity": 97,
      "chip": "ym2612"
    },
    {
      "channel": 4,
      "note": 76,
      "start": 47.749,
      "duration": 0.2499,
      "velocity": 98,
      "chip": "ym2612"
    },
    {
      "channel": 5,
      "note": 76,
      "start": 47.8654,
      "duration": 0.25,
      "velocity": 98,
      "chip": "ym2612"
    },
    {
      "channel": 0,
      "note": 52,
      "start": 47.9984,
      "duration": 1.6331,
      "velocity": 97,
      "chip": "ym2612"
    },
    {
      "channel": 4,
      "note": 69,
      "start": 47.9991,
      "duration": 0.2327,
      "velocity": 98,
      "chip": "ym2612"
    },
    {
      "channel": 5,
      "note": 69,
      "start": 48.1156,
      "duration": 0.2329,
      "velocity": 98,
      "chip": "ym2612"
    },
    {
      "channel": 4,
      "note": 71,
      "start": 48.232,
      "duration": 0.2329,
      "velocity": 98,
      "chip": "ym2612"
    },
    {
      "channel": 5,
      "note": 71,
      "start": 48.3487,
      "duration": 0.2497,
      "velocity": 98,
      "chip": "ym2612"
    },
    {
      "channel": 4,
      "note": 74,
      "start": 48.4652,
      "duration": 0.0831,
      "velocity": 98,
      "chip": "ym2612"
    },
    {
      "channel": 5,
      "note": 74,
      "start": 48.5986,
      "duration": 0.0665,
      "velocity": 98,
      "chip": "ym2612"
    },
    {
      "channel": 4,
      "note": 76,
      "start": 48.7152,
      "duration": 0.0331,
      "velocity": 98,
      "chip": "ym2612"
    },
    {
      "channel": 5,
      "note": 76,
      "start": 48.8319,
      "duration": 0.0332,
      "velocity": 98,
      "chip": "ym2612"
    },
    {
      "channel": 4,
      "note": 76,
      "start": 48.9486,
      "duration": 0.4498,
      "velocity": 98,
      "chip": "ym2612"
    },
    {
      "channel": 5,
      "note": 76,
      "start": 49.0654,
      "duration": 0.4498,
      "velocity": 98,
      "chip": "ym2612"
    },
    {
      "channel": 4,
      "note": 69,
      "start": 49.4319,
      "duration": 0.1999,
      "velocity": 98,
      "chip": "ym2612"
    },
    {
      "channel": 5,
      "note": 69,
      "start": 49.5487,
      "duration": 0.1998,
      "velocity": 98,
      "chip": "ym2612"
    },
    {
      "channel": 0,
      "note": 50,
      "start": 49.6651,
      "duration": 0.1998,
      "velocity": 97,
      "chip": "ym2612"
    },
    {
      "channel": 4,
      "note": 71,
      "start": 49.6655,
      "duration": 0.1996,
      "velocity": 98,
      "chip": "ym2612"
    },
    {
      "channel": 5,
      "note": 71,
      "start": 49.7987,
      "duration": 0.1998,
      "velocity": 98,
      "chip": "ym2612"
    },
    {
      "channel": 0,
      "note": 52,
      "start": 49.9151,
      "duration": 0.1165,
      "velocity": 97,
      "chip": "ym2612"
    },
    {
      "channel": 4,
      "note": 74,
      "start": 49.9155,
      "duration": 0.0828,
      "velocity": 98,
      "chip": "ym2612"
    },
    {
      "channel": 5,
      "note": 74,
      "start": 50.0321,
      "duration": 0.083,
      "velocity": 98,
      "chip": "ym2612"
    },
    {
      "channel": 4,
      "note": 76,
      "start": 50.1486,
      "duration": 0.0498,
      "velocity": 98,
      "chip": "ym2612"
    },
    {
      "channel": 5,
      "note": 76,
      "start": 50.2652,
      "duration": 0.0498,
      "velocity": 98,
      "chip": "ym2612"
    },
    {
      "channel": 0,
      "note": 52,
      "start": 50.3984,
      "duration": 0.9498,
      "velocity": 97,
      "chip": "ym2612"
    },
    {
      "channel": 4,
      "note": 76,
      "start": 50.3988,
      "duration": 0.4662,
      "velocity": 98,
      "chip": "ym2612"
    },
    {
      "channel": 5,
      "note": 76,
      "start": 50.5154,
      "duration": 0.4831,
      "velocity": 98,
      "chip": "ym2612"
    },
    {
      "channel": 4,
      "note": 69,
      "start": 50.8652,
      "duration": 0.1998,
      "velocity": 98,
      "chip": "ym2612"
    },
    {
      "channel": 5,
      "note": 69,
      "start": 50.9987,
      "duration": 0.1998,
      "velocity": 98,
      "chip": "ym2612"
    },
    {
      "channel": 4,
      "note": 71,
      "start": 51.1152,
      "duration": 0.1998,
      "velocity": 98,
      "chip": "ym2612"
    },
    {
      "channel": 5,
      "note": 71,
      "start": 51.232,
      "duration": 0.1998,
      "velocity": 98,
      "chip": "ym2612"
    },
    {
      "channel": 0,
      "note": 57,
      "start": 51.3484,
      "duration": 0.2498,
      "velocity": 97,
      "chip": "ym2612"
    },
    {
      "channel": 4,
      "note": 74,
      "start": 51.3488,
      "duration": 0.2498,
      "velocity": 98,
      "chip": "ym2612"
    },
    {
      "channel": 5,
      "note": 74,
      "start": 51.4654,
      "duration": 0.2498,
      "velocity": 98,
      "chip": "ym2612"
    },
    {
      "channel": 0,
      "note": 55,
      "start": 51.5984,
      "duration": 0.2331,
      "velocity": 97,
      "chip": "ym2612"
    },
    {
      "channel": 4,
      "note": 76,
      "start": 51.5988,
      "duration": 0.2332,
      "velocity": 98,
      "chip": "ym2612"
    },
    {
      "channel": 5,
      "note": 76,
      "start": 51.7154,
      "duration": 0.2333,
      "velocity": 98,
      "chip": "ym2612"
    },
    {
      "channel": 0,
      "note": 52,
      "start": 51.8317,
      "duration": 1.6831,
      "velocity": 97,
      "chip": "ym2612"
    },
    {
      "channel": 4,
      "note": 69,
      "start": 51.8323,
      "duration": 0.1994,
      "velocity": 98,
      "chip": "ym2612"
    },
    {
      "channel": 5,
      "note": 69,
      "start": 51.9488,
      "duration": 0.1997,
      "velocity": 98,
      "chip": "ym2612"
    },
    {
      "channel": 4,
      "note": 71,
      "start": 52.0654,
      "duration": 0.2496,
      "velocity": 98,
      "chip": "ym2612"
    },
    {
      "channel": 5,
      "note": 71,
      "start": 52.1987,
      "duration": 0.233,
      "velocity": 98,
      "chip": "ym2612"
    },
    {
      "channel": 4,
      "note": 74,
      "start": 52.3152,
      "duration": 0.0831,
      "velocity": 98,
      "chip": "ym2612"
    },
    {
      "channel": 5,
      "note": 74,
      "start": 52.4319,
      "duration": 0.0832,
      "velocity": 98,
      "chip": "ym2612"
    },
    {
      "channel": 4,
      "note": 76,
      "start": 52.5486,
      "duration": 0.0498,
      "velocity": 98,
      "chip": "ym2612"
    },
    {
      "channel": 5,
      "note": 76,
      "start": 52.6652,
      "duration": 0.0498,
      "velocity": 98,
      "chip": "ym2612"
    },
    {
      "channel": 4,
      "note": 76,
      "start": 52.7986,
      "duration": 0.4664,
      "velocity": 98,
      "chip": "ym2612"
    },
    {
      "channel": 5,
      "note": 76,
      "start": 52.9154,
      "duration": 0.4831,
      "velocity": 98,
      "chip": "ym2612"
    },
    {
      "channel": 4,
      "note": 69,
      "start": 53.2652,
      "duration": 0.25,
      "velocity": 98,
      "chip": "ym2612"
    },
    {
      "channel": 5,
      "note": 69,
      "start": 53.3987,
      "duration": 0.2331,
      "velocity": 98,
      "chip": "ym2612"
    },
    {
      "channel": 0,
      "note": 50,
      "start": 53.5151,
      "duration": 0.2331,
      "velocity": 97,
      "chip": "ym2612"
    },
    {
      "channel": 4,
      "note": 71,
      "start": 53.5155,
      "duration": 0.2331,
      "velocity": 98,
      "chip": "ym2612"
    },
    {
      "channel": 5,
      "note": 71,
      "start": 53.632,
      "duration": 0.2331,
      "velocity": 98,
      "chip": "ym2612"
    },
    {
      "channel": 0,
      "note": 52,
      "start": 53.7484,
      "duration": 0.1165,
      "velocity": 97,
      "chip": "ym2612"
    },
    {
      "channel": 4,
      "note": 74,
      "start": 53.7488,
      "duration": 0.0828,
      "velocity": 98,
      "chip": "ym2612"
    },
    {
      "channel": 5,
      "note": 74,
      "start": 53.8654,
      "duration": 0.083,
      "velocity": 98,
      "chip": "ym2612"
    },
    {
      "channel": 4,
      "note": 76,
      "start": 53.9986,
      "duration": 0.0331,
      "velocity": 98,
      "chip": "ym2612"
    },
    {
      "channel": 5,
      "note": 76,
      "start": 54.1152,
      "duration": 0.0332,
      "velocity": 98,
      "chip": "ym2612"
    },
    {
      "channel": 0,
      "note": 52,
      "start": 54.2317,
      "duration": 1.0831,
      "velocity": 97,
      "chip": "ym2612"
    },
    {
      "channel": 4,
      "note": 76,
      "start": 54.2322,
      "duration": 0.4828,
      "velocity": 98,
      "chip": "ym2612"
    },
    {
      "channel": 5,
      "note": 76,
      "start": 54.3487,
      "duration": 0.4831,
      "velocity": 98,
      "chip": "ym2612"
    },
    {
      "channel": 4,
      "note": 69,
      "start": 54.7152,
      "duration": 0.2331,
      "velocity": 98,
      "chip": "ym2612"
    },
    {
      "channel": 5,
      "note": 69,
      "start": 54.832,
      "duration": 0.2331,
      "velocity": 98,
      "chip": "ym2612"
    },
    {
      "channel": 4,
      "note": 71,
      "start": 54.9486,
      "duration": 0.1998,
      "velocity": 98,
      "chip": "ym2612"
    },
    {
      "channel": 5,
      "note": 71,
      "start": 55.0654,
      "duration": 0.1998,
      "velocity": 98,
      "chip": "ym2612"
    },
    {
      "channel": 4,
      "note": 74,
      "start": 55.1986,
      "duration": 0.1998,
      "velocity": 98,
      "chip": "ym2612"
    },
    {
      "channel": 5,
      "note": 74,
      "start": 55.3155,
      "duration": 0.1997,
      "velocity": 98,
      "chip": "ym2612"
    },
    {
      "channel": 4,
      "note": 76,
      "start": 55.4319,
      "duration": 0.235,
      "velocity": 98,
      "chip": "ym2612"
    },
    {
      "channel": 5,
      "note": 76,
      "start": 55.5488,
      "duration": 0.2514,
      "velocity": 98,
      "chip": "ym2612"
    },
    {
      "channel": 0,
      "note": 52,
      "start": 55.6651,
      "duration": 1.6498,
      "velocity": 97,
      "chip": "ym2612"
    },
    {
      "channel": 1,
      "note": 74,
      "start": 55.6666,
      "duration": 0.1983,
      "velocity": 104,
      "chip": "ym2612"
    },
    {
      "channel": 4,
      "note": 69,
      "start": 55.6671,
      "duration": 0.2498,
      "velocity": 98,
      "chip": "ym2612"
    },
    {
      "channel": 2,
      "note": 74,
      "start": 55.7998,
      "duration": 0.1985,
      "velocity": 104,
      "chip": "ym2612"
    },
    {
      "channel": 5,
      "note": 69,
      "start": 55.8004,
      "duration": 0.2318,
      "velocity": 98,
      "chip": "ym2612"
    },
    {
      "channel": 1,
      "note": 76,
      "start": 55.9151,
      "duration": 0.1165,
      "velocity": 104,
      "chip": "ym2612"
    },
    {
      "channel": 3,
      "note": 74,
      "start": 55.9168,
      "duration": 0.1983,
      "velocity": 104,
      "chip": "ym2612"
    },
    {
      "channel": 4,
      "note": 71,
      "start": 55.9171,
      "duration": 0.232,
      "velocity": 98,
      "chip": "ym2612"
    },
    {
      "channel": 2,
      "note": 76,
      "start": 56.032,
      "duration": 0.1166,
      "velocity": 104,
      "chip": "ym2612"
    },
    {
      "channel": 5,
      "note": 71,
      "start": 56.0325,
      "duration": 0.2331,
      "velocity": 98,
      "chip": "ym2612"
    },
    {
      "channel": 1,
      "note": 76,
      "start": 56.1484,
      "duration": 2.3998,
      "velocity": 104,
      "chip": "ym2612"
    },
    {
      "channel": 3,
      "note": 76,
      "start": 56.1489,
      "duration": 0.1165,
      "velocity": 104,
      "chip": "ym2612"
    },
    {
      "channel": 4,
      "note": 74,
      "start": 56.1492,
      "duration": 0.0826,
      "velocity": 98,
      "chip": "ym2612"
    },
    {
      "channel": 2,
      "note": 76,
      "start": 56.2652,
      "duration": 2.3998,
      "velocity": 104,
      "chip": "ym2612"
    },
    {
      "channel": 5,
      "note": 74,
      "start": 56.2658,
      "duration": 0.0828,
      "velocity": 98,
      "chip": "ym2612"
    },
    {
      "channel": 3,
      "note": 76,
      "start": 56.3987,
      "duration": 2.3998,
      "velocity": 104,
      "chip": "ym2612"
    },
    {
      "channel": 4,
      "note": 76,
      "start": 56.399,
      "duration": 0.0329,
      "velocity": 98,
      "chip": "ym2612"
    },
    {
      "channel": 5,
      "note": 76,
      "start": 56.5155,
      "duration": 0.0332,
      "velocity": 98,
      "chip": "ym2612"
    },
    {
      "channel": 4,
      "note": 76,
      "start": 56.6321,
      "duration": 0.4332,
      "velocity": 98,
      "chip": "ym2612"
    },
    {
      "channel": 5,
      "note": 76,
      "start": 56.749,
      "duration": 0.4498,
      "velocity": 98,
      "chip": "ym2612"
    },
    {
      "channel": 4,
      "note": 69,
      "start": 57.1154,
      "duration": 0.2,
      "velocity": 98,
      "chip": "ym2612"
    },
    {
      "channel": 5,
      "note": 69,
      "start": 57.2323,
      "duration": 0.1998,
      "velocity": 98,
      "chip": "ym2612"
    },
    {
      "channel": 0,
      "note": 50,
      "start": 57.3484,
      "duration": 0.1998,
      "velocity": 97,
      "chip": "ym2612"
    },
    {
      "channel": 4,
      "note": 71,
      "start": 57.349,
      "duration": 0.1997,
      "velocity": 98,
      "chip": "ym2612"
    },
    {
      "channel": 5,
      "note": 71,
      "start": 57.4656,
      "duration": 0.1998,
      "velocity": 98,
      "chip": "ym2612"
    },
    {
      "channel": 0,
      "note": 52,
      "start": 57.5984,
      "duration": 0.1165,
      "velocity": 97,
      "chip": "ym2612"
    },
    {
      "channel": 4,
      "note": 74,
      "start": 57.599,
      "duration": 0.0662,
      "velocity": 98,
      "chip": "ym2612"
    },
    {
      "channel": 5,
      "note": 74,
      "start": 57.7156,
      "duration": 0.0831,
      "velocity": 98,
      "chip": "ym2612"
    },
    {
      "channel": 4,
      "note": 76,
      "start": 57.8322,
      "duration": 0.0331,
      "velocity": 98,
      "chip": "ym2612"
    },
    {
      "channel": 5,
      "note": 76,
      "start": 57.9488,
      "duration": 0.0498,
      "velocity": 98,
      "chip": "ym2612"
    },
    {
      "channel": 0,
      "note": 52,
      "start": 58.0651,
      "duration": 0.9665,
      "velocity": 97,
      "chip": "ym2612"
    },
    {
      "channel": 4,
      "note": 76,
      "start": 58.0657,
      "duration": 0.4831,
      "velocity": 98,
      "chip": "ym2612"
    },
    {
      "channel": 5,
      "note": 76,
      "start": 58.199,
      "duration": 0.4666,
      "velocity": 98,
      "chip": "ym2612"
    },
    {
      "channel": 1,
      "note": 79,
      "start": 58.5484,
      "duration": 0.9667,
      "velocity": 104,
      "chip": "ym2612"
    },
    {
      "channel": 4,
      "note": 69,
      "start": 58.549,
      "duration": 0.1996,
      "velocity": 98,
      "chip": "ym2612"
    },
    {
      "channel": 2,
      "note": 79,
      "start": 58.6653,
      "duration": 0.9664,
      "velocity": 104,
      "chip": "ym2612"
    },
    {
      "channel": 5,
      "note": 69,
      "start": 58.6657,
      "duration": 0.1996,
      "velocity": 98,
      "chip": "ym2612"
    },
    {
      "channel": 3,
      "note": 79,
      "start": 58.7987,
      "duration": 0.9498,
      "velocity": 104,
      "chip": "ym2612"
    },
    {
      "channel": 4,
      "note": 71,
      "start": 58.799,
      "duration": 0.1995,
      "velocity": 98,
      "chip": "ym2612"
    },
    {
      "channel": 5,
      "note": 71,
      "start": 58.9156,
      "duration": 0.1998,
      "velocity": 98,
      "chip": "ym2612"
    },
    {
      "channel": 0,
      "note": 57,
      "start": 59.0317,
      "duration": 0.2331,
      "velocity": 97,
      "chip": "ym2612"
    },
    {
      "channel": 4,
      "note": 74,
      "start": 59.0324,
      "duration": 0.2331,
      "velocity": 98,
      "chip": "ym2612"
    },
    {
      "channel": 5,
      "note": 74,
      "start": 59.149,
      "duration": 0.2498,
      "velocity": 98,
      "chip": "ym2612"
    },
    {
      "channel": 0,
      "note": 55,
      "start": 59.2651,
      "duration": 0.2498,
      "velocity": 97,
      "chip": "ym2612"
    },
    {
      "channel": 4,
      "note": 76,
      "start": 59.2657,
      "duration": 0.25,
      "velocity": 98,
      "chip": "ym2612"
    },
    {
      "channel": 5,
      "note": 76,
      "start": 59.399,
      "duration": 0.2333,
      "velocity": 98,
      "chip": "ym2612"
    },
    {
      "channel": 0,
      "note": 52,
      "start": 59.5151,
      "duration": 1.6831,
      "velocity": 97,
      "chip": "ym2612"
    },
    {
      "channel": 1,
      "note": 76,
      "start": 59.5154,
      "duration": 2.8829,
      "velocity": 104,
      "chip": "ym2612"
    },
    {
      "channel": 4,
      "note": 69,
      "start": 59.5159,
      "duration": 0.1994,
      "velocity": 98,
      "chip": "ym2612"
    },
    {
      "channel": 2,
      "note": 76,
      "start": 59.632,
      "duration": 2.8831,
      "velocity": 104,
      "chip": "ym2612"
    },
    {
      "channel": 5,
      "note": 69,
      "start": 59.6324,
      "duration": 0.1996,
      "velocity": 98,
      "chip": "ym2612"
    },
    {
      "channel": 3,
      "note": 76,
      "start": 59.7487,
      "duration": 2.8831,
      "velocity": 104,
      "chip": "ym2612"
    },
    {
      "channel": 4,
      "note": 71,
      "start": 59.749,
      "duration": 0.2495,
      "velocity": 98,
      "chip": "ym2612"
    },
    {
      "channel": 5,
      "note": 71,
      "start": 59.8656,
      "duration": 0.2497,
      "velocity": 98,
      "chip": "ym2612"
    },
    {
      "channel": 4,
      "note": 74,
      "start": 59.9988,
      "duration": 0.0665,
      "velocity": 98,
      "chip": "ym2612"
    },
    {
      "channel": 5,
      "note": 74,
      "start": 60.1155,
      "duration": 0.0832,
      "velocity": 98,
      "chip": "ym2612"
    },
    {
      "channel": 4,
      "note": 76,
      "start": 60.2321,
      "duration": 0.0332,
      "velocity": 98,
      "chip": "ym2612"
    },
    {
      "channel": 5,
      "note": 76,
      "start": 60.3488,
      "duration": 0.0498,
      "velocity": 98,
      "chip": "ym2612"
    },
    {
      "channel": 4,
      "note": 76,
      "start": 60.4654,
      "duration": 0.4832,
      "velocity": 98,
      "chip": "ym2612"
    },
    {
      "channel": 5,
      "note": 76,
      "start": 60.599,
      "duration": 0.4664,
      "velocity": 98,
      "chip": "ym2612"
    },
    {
      "channel": 4,
      "note": 69,
      "start": 60.9488,
      "duration": 0.2501,
      "velocity": 98,
      "chip": "ym2612"
    },
    {
      "channel": 5,
      "note": 69,
      "start": 61.0656,
      "duration": 0.2498,
      "velocity": 98,
      "chip": "ym2612"
    },
    {
      "channel": 0,
      "note": 50,
      "start": 61.1984,
      "duration": 0.2331,
      "velocity": 97,
      "chip": "ym2612"
    },
    {
      "channel": 4,
      "note": 71,
      "start": 61.199,
      "duration": 0.2331,
      "velocity": 98,
      "chip": "ym2612"
    },
    {
      "channel": 5,
      "note": 71,
      "start": 61.3156,
      "duration": 0.2331,
      "velocity": 98,
      "chip": "ym2612"
    },
    {
      "channel": 0,
      "note": 52,
      "start": 61.4317,
      "duration": 0.1165,
      "velocity": 97,
      "chip": "ym2612"
    },
    {
      "channel": 4,
      "note": 74,
      "start": 61.4324,
      "duration": 0.0829,
      "velocity": 98,
      "chip": "ym2612"
    },
    {
      "channel": 5,
      "note": 74,
      "start": 61.5489,
      "duration": 0.0831,
      "velocity": 98,
      "chip": "ym2612"
    },
    {
      "channel": 4,
      "note": 76,
      "start": 61.6656,
      "duration": 0.0497,
      "velocity": 98,
      "chip": "ym2612"
    },
    {
      "channel": 5,
      "note": 76,
      "start": 61.7988,
      "duration": 0.0332,
      "velocity": 98,
      "chip": "ym2612"
    },
    {
      "channel": 0,
      "note": 52,
      "start": 61.9151,
      "duration": 1.0831,
      "velocity": 97,
      "chip": "ym2612"
    },
    {
      "channel": 4,
      "note": 76,
      "start": 61.9157,
      "duration": 0.4831,
      "velocity": 98,
      "chip": "ym2612"
    },
    {
      "channel": 5,
      "note": 76,
      "start": 62.0323,
      "duration": 0.4833,
      "velocity": 98,
      "chip": "ym2612"
    },
    {
      "channel": 1,
      "note": 81,
      "start": 62.3984,
      "duration": 0.4665,
      "velocity": 104,
      "chip": "ym2612"
    },
    {
      "channel": 4,
      "note": 69,
      "start": 62.399,
      "duration": 0.2332,
      "velocity": 98,
      "chip": "ym2612"
    },
    {
      "channel": 2,
      "note": 81,
      "start": 62.5153,
      "duration": 0.4832,
      "velocity": 104,
      "chip": "ym2612"
    },
    {
      "channel": 5,
      "note": 69,
      "start": 62.5157,
      "duration": 0.233,
      "velocity": 98,
      "chip": "ym2612"
    },
    {
      "channel": 3,
      "note": 81,
      "start": 62.632,
      "duration": 0.4831,
      "velocity": 104,
      "chip": "ym2612"
    },
    {
      "channel": 4,
      "note": 71,
      "start": 62.6324,
      "duration": 0.1995,
      "velocity": 98,
      "chip": "ym2612"
    },
    {
      "channel": 5,
      "note": 71,
      "start": 62.749,
      "duration": 0.1998,
      "velocity": 98,
      "chip": "ym2612"
    },
    {
      "channel": 1,
      "note": 83,
      "start": 62.8651,
      "duration": 0.4834,
      "velocity": 104,
      "chip": "ym2612"
    },
    {
      "channel": 4,
      "note": 74,
      "start": 62.8656,
      "duration": 0.1996,
      "velocity": 98,
      "chip": "ym2612"
    },
    {
      "channel": 2,
      "note": 83,
      "start": 62.9988,
      "duration": 0.4663,
      "velocity": 104,
      "chip": "ym2612"
    },
    {
      "channel": 5,
      "note": 74,
      "start": 62.9993,
      "duration": 0.1994,
      "velocity": 98,
      "chip": "ym2612"
    },
    {
      "channel": 3,
      "note": 83,
      "start": 63.1154,
      "duration": 0.4831,
      "velocity": 104,
      "chip": "ym2612"
    },
    {
      "channel": 4,
      "note": 76,
      "start": 63.1157,
      "duration": 0.2333,
      "velocity": 98,
      "chip": "ym2612"
    },
    {
      "channel": 5,
      "note": 76,
      "start": 63.2323,
      "duration": 0.2333,
      "velocity": 98,
      "chip": "ym2612"
    },
    {
      "channel": 0,
      "note": 52,
      "start": 63.3484,
      "duration": 1.5165,
      "velocity": 97,
      "chip": "ym2612"
    },
    {
      "channel": 1,
      "note": 76,
      "start": 63.3487,
      "duration": 2.8829,
      "velocity": 104,
      "chip": "ym2612"
    },
    {
      "channel": 4,
      "note": 69,
      "start": 63.3493,
      "duration": 0.2495,
      "velocity": 98,
      "chip": "ym2612"
    },
    {
      "channel": 2,
      "note": 76,
      "start": 63.4652,
      "duration": 2.8832,
      "velocity": 104,
      "chip": "ym2612"
    },
    {
      "channel": 5,
      "note": 69,
      "start": 63.4659,
      "duration": 0.2495,
      "velocity": 98,
      "chip": "ym2612"
    },
    {
      "channel": 3,
      "note": 76,
      "start": 63.5987,
      "duration": 2.8665,
      "velocity": 104,
      "chip": "ym2612"
    },
    {
      "channel": 4,
      "note": 71,
      "start": 63.599,
      "duration": 0.2329,
      "velocity": 98,
      "chip": "ym2612"
    },
    {
      "channel": 5,
      "note": 71,
      "start": 63.7156,
      "duration": 0.233,
      "velocity": 98,
      "chip": "ym2612"
    },
    {
      "channel": 4,
      "note": 74,
      "start": 63.8321,
      "duration": 0.0832,
      "velocity": 98,
      "chip": "ym2612"
    },
    {
      "channel": 5,
      "note": 74,
      "start": 63.9488,
      "duration": 0.0832,
      "velocity": 98,
      "chip": "ym2612"
    },
    {
      "channel": 4,
      "note": 76,
      "start": 64.0654,
      "duration": 0.0498,
      "velocity": 98,
      "chip": "ym2612"
    },
    {
      "channel": 5,
      "note": 76,
      "start": 64.1988,
      "duration": 0.0332,
      "velocity": 98,
      "chip": "ym2612"
    },
    {
      "channel": 4,
      "note": 76,
      "start": 64.3154,
      "duration": 0.4332,
      "velocity": 98,
      "chip": "ym2612"
    },
    {
      "channel": 5,
      "note": 76,
      "start": 64.4323,
      "duration": 0.4332,
      "velocity": 98,
      "chip": "ym2612"
    },
    {
      "channel": 4,
      "note": 69,
      "start": 64.7988,
      "duration": 0.1998,
      "velocity": 98,
      "chip": "ym2612"
    },
    {
      "channel": 5,
      "note": 69,
      "start": 64.9156,
      "duration": 0.1998,
      "velocity": 98,
      "chip": "ym2612"
    },
    {
      "channel": 0,
      "note": 50,
      "start": 65.0317,
      "duration": 0.2331,
      "velocity": 97,
      "chip": "ym2612"
    },
    {
      "channel": 4,
      "note": 71,
      "start": 65.0324,
      "duration": 0.1995,
      "velocity": 98,
      "chip": "ym2612"
    },
    {
      "channel": 5,
      "note": 71,
      "start": 65.149,
      "duration": 0.1999,
      "velocity": 98,
      "chip": "ym2612"
    },
    {
      "channel": 0,
      "note": 52,
      "start": 65.2651,
      "duration": 0.0831,
      "velocity": 97,
      "chip": "ym2612"
    },
    {
      "channel": 4,
      "note": 74,
      "start": 65.2657,
      "duration": 0.083,
      "velocity": 98,
      "chip": "ym2612"
    },
    {
      "channel": 5,
      "note": 74,
      "start": 65.3988,
      "duration": 0.0666,
      "velocity": 98,
      "chip": "ym2612"
    },
    {
      "channel": 4,
      "note": 76,
      "start": 65.5155,
      "duration": 0.0331,
      "velocity": 98,
      "chip": "ym2612"
    },
    {
      "channel": 5,
      "note": 76,
      "start": 65.6322,
      "duration": 0.0332,
      "velocity": 98,
      "chip": "ym2612"
    },
    {
      "channel": 0,
      "note": 52,
      "start": 65.7484,
      "duration": 0.9665,
      "velocity": 97,
      "chip": "ym2612"
    },
    {
      "channel": 4,
      "note": 76,
      "start": 65.749,
      "duration": 0.4831,
      "velocity": 98,
      "chip": "ym2612"
    },
    {
      "channel": 5,
      "note": 76,
      "start": 65.8656,
      "duration": 0.4833,
      "velocity": 98,
      "chip": "ym2612"
    },
    {
      "channel": 1,
      "note": 74,
      "start": 66.2318,
      "duration": 0.9667,
      "velocity": 104,
      "chip": "ym2612"
    },
    {
      "channel": 4,
      "note": 69,
      "start": 66.2323,
      "duration": 0.1996,
      "velocity": 98,
      "chip": "ym2612"
    },
    {
      "channel": 2,
      "note": 74,
      "start": 66.3486,
      "duration": 0.9664,
      "velocity": 104,
      "chip": "ym2612"
    },
    {
      "channel": 5,
      "note": 69,
      "start": 66.3491,
      "duration": 0.1996,
      "velocity": 98,
      "chip": "ym2612"
    },
    {
      "channel": 3,
      "note": 74,
      "start": 66.4654,
      "duration": 0.9665,
      "velocity": 104,
      "chip": "ym2612"
    },
    {
      "channel": 4,
      "note": 71,
      "start": 66.4657,
      "duration": 0.1995,
      "velocity": 98,
      "chip": "ym2612"
    },
    {
      "channel": 5,
      "note": 71,
      "start": 66.599,
      "duration": 0.1998,
      "velocity": 98,
      "chip": "ym2612"
    },
    {
      "channel": 0,
      "note": 57,
      "start": 66.7151,
      "duration": 0.2331,
      "velocity": 97,
      "chip": "ym2612"
    },
    {
      "channel": 4,
      "note": 74,
      "start": 66.7157,
      "duration": 0.2331,
      "velocity": 98,
      "chip": "ym2612"
    },
    {
      "channel": 5,
      "note": 74,
      "start": 66.8323,
      "duration": 0.2331,
      "velocity": 98,
      "chip": "ym2612"
    },
    {
      "channel": 0,
      "note": 55,
      "start": 66.9484,
      "duration": 0.2498,
      "velocity": 97,
      "chip": "ym2612"
    },
    {
      "channel": 4,
      "note": 76,
      "start": 66.949,
      "duration": 0.25,
      "velocity": 98,
      "chip": "ym2612"
    },
    {
      "channel": 5,
      "note": 76,
      "start": 67.0656,
      "duration": 0.2499,
      "velocity": 98,
      "chip": "ym2612"
    },
    {
      "channel": 0,
      "note": 52,
      "start": 67.1984,
      "duration": 1.6665,
      "velocity": 97,
      "chip": "ym2612"
    },
    {
      "channel": 1,
      "note": 76,
      "start": 67.1987,
      "duration": 3.3498,
      "velocity": 104,
      "chip": "ym2612"
    },
    {
      "channel": 4,
      "note": 69,
      "start": 67.1992,
      "duration": 0.1994,
      "velocity": 98,
      "chip": "ym2612"
    },
    {
      "channel": 2,
      "note": 76,
      "start": 67.3153,
      "duration": 3.3497,
      "velocity": 104,
      "chip": "ym2612"
    },
    {
      "channel": 5,
      "note": 69,
      "start": 67.3157,
      "duration": 0.1996,
      "velocity": 98,
      "chip": "ym2612"
    },
    {
      "channel": 3,
      "note": 76,
      "start": 67.432,
      "duration": 3.3665,
      "velocity": 104,
      "chip": "ym2612"
    },
    {
      "channel": 4,
      "note": 71,
      "start": 67.4324,
      "duration": 0.2329,
      "velocity": 98,
      "chip": "ym2612"
    },
    {
      "channel": 5,
      "note": 71,
      "start": 67.549,
      "duration": 0.2497,
      "velocity": 98,
      "chip": "ym2612"
    },
    {
      "channel": 4,
      "note": 74,
      "start": 67.6654,
      "duration": 0.0832,
      "velocity": 98,
      "chip": "ym2612"
    },
    {
      "channel": 5,
      "note": 74,
      "start": 67.7988,
      "duration": 0.0665,
      "velocity": 98,
      "chip": "ym2612"
    },
    {
      "channel": 4,
      "note": 76,
      "start": 67.9154,
      "duration": 0.0332,
      "velocity": 98,
      "chip": "ym2612"
    },
    {
      "channel": 5,
      "note": 76,
      "start": 68.0322,
      "duration": 0.0332,
      "velocity": 98,
      "chip": "ym2612"
    },
    {
      "channel": 4,
      "note": 76,
      "start": 68.1488,
      "duration": 0.4832,
      "velocity": 98,
      "chip": "ym2612"
    },
    {
      "channel": 5,
      "note": 76,
      "start": 68.2656,
      "duration": 0.4831,
      "velocity": 98,
      "chip": "ym2612"
    },
    {
      "channel": 4,
      "note": 69,
      "start": 68.6321,
      "duration": 0.2334,
      "velocity": 98,
      "chip": "ym2612"
    },
    {
      "channel": 5,
      "note": 69,
      "start": 68.749,
      "duration": 0.2498,
      "velocity": 98,
      "chip": "ym2612"
    },
    {
      "channel": 0,
      "note": 50,
      "start": 68.8651,
      "duration": 0.2498,
      "velocity": 97,
      "chip": "ym2612"
    },
    {
      "channel": 4,
      "note": 71,
      "start": 68.8657,
      "duration": 0.2497,
      "velocity": 98,
      "chip": "ym2612"
    },
    {
      "channel": 5,
      "note": 71,
      "start": 68.999,
      "duration": 0.2329,
      "velocity": 98,
      "chip": "ym2612"
    },
    {
      "channel": 0,
      "note": 52,
      "start": 69.1151,
      "duration": 0.0831,
      "velocity": 97,
      "chip": "ym2612"
    },
    {
      "channel": 4,
      "note": 74,
      "start": 69.1157,
      "duration": 0.083,
      "velocity": 98,
      "chip": "ym2612"
    },
    {
      "channel": 5,
      "note": 74,
      "start": 69.2321,
      "duration": 0.0832,
      "velocity": 98,
      "chip": "ym2612"
    },
    {
      "channel": 4,
      "note": 76,
      "start": 69.3489,
      "duration": 0.0497,
      "velocity": 98,
      "chip": "ym2612"
    },
    {
      "channel": 5,
      "note": 76,
      "start": 69.4655,
      "duration": 0.0498,
      "velocity": 98,
      "chip": "ym2612"
    },
    {
      "channel": 0,
      "note": 52,
      "start": 69.5984,
      "duration": 0.4665,
      "velocity": 97,
      "chip": "ym2612"
    },
    {
      "channel": 4,
      "note": 76,
      "start": 69.599,
      "duration": 0.4665,
      "velocity": 98,
      "chip": "ym2612"
    },
    {
      "channel": 5,
      "note": 76,
      "start": 69.7156,
      "duration": 0.4831,
      "velocity": 98,
      "chip": "ym2612"
    },
    {
      "channel": 0,
      "note": 57,
      "start": 70.0651,
      "duration": 0.2498,
      "velocity": 97,
      "chip": "ym2612"
    },
    {
      "channel": 4,
      "note": 69,
      "start": 70.0657,
      "duration": 0.2498,
      "velocity": 98,
      "chip": "ym2612"
    },
    {
      "channel": 5,
      "note": 69,
      "start": 70.199,
      "duration": 0.2331,
      "velocity": 98,
      "chip": "ym2612"
    },
    {
      "channel": 0,
      "note": 59,
      "start": 70.3151,
      "duration": 0.2331,
      "velocity": 97,
      "chip": "ym2612"
    },
    {
      "channel": 4,
      "note": 71,
      "start": 70.3157,
      "duration": 0.1995,
      "velocity": 98,
      "chip": "ym2612"
    },
    {
      "channel": 5,
      "note": 71,
      "start": 70.4323,
      "duration": 0.1997,
      "velocity": 98,
      "chip": "ym2612"
    },
    {
      "channel": 0,
      "note": 50,
      "start": 70.5484,
      "duration": 0.2498,
      "velocity": 97,
      "chip": "ym2612"
    },
    {
      "channel": 4,
      "note": 74,
      "start": 70.5491,
      "duration": 0.1993,
      "velocity": 98,
      "chip": "ym2612"
    },
    {
      "channel": 5,
      "note": 74,
      "start": 70.6656,
      "duration": 0.1996,
      "velocity": 98,
      "chip": "ym2612"
    },
    {
      "channel": 0,
      "note": 52,
      "start": 70.7984,
      "duration": 0.2332,
      "velocity": 97,
      "chip": "ym2612"
    },
    {
      "channel": 4,
      "note": 76,
      "start": 70.799,
      "duration": 0.2341,
      "velocity": 98,
      "chip": "ym2612"
    },
    {
      "channel": 5,
      "note": 76,
      "start": 70.9154,
      "duration": 0.2335,
      "velocity": 98,
      "chip": "ym2612"
    },
    {
      "channel": 0,
      "note": 52,
      "start": 71.0318,
      "duration": 1.6331,
      "velocity": 97,
      "chip": "ym2612"
    },
    {
      "channel": 1,
      "note": 88,
      "start": 71.0321,
      "duration": 0.1162,
      "velocity": 104,
      "chip": "ym2612"
    },
    {
      "channel": 2,
      "note": 93,
      "start": 71.0325,
      "duration": 0.1159,
      "velocity": 104,
      "chip": "ym2612"
    },
    {
      "channel": 3,
      "note": 100,
      "start": 71.033,
      "duration": 0.1156,
      "velocity": 104,
      "chip": "ym2612"
    },
    {
      "channel": 4,
      "note": 69,
      "start": 71.0334,
      "duration": 0.2324,
      "velocity": 98,
      "chip": "ym2612"
    },
    {
      "channel": 5,
      "note": 69,
      "start": 71.1492,
      "duration": 0.2497,
      "velocity": 98,
      "chip": "ym2612"
    },
    {
      "channel": 1,
      "note": 88,
      "start": 71.2651,
      "duration": 0.1332,
      "velocity": 104,
      "chip": "ym2612"
    },
    {
      "channel": 2,
      "note": 93,
      "start": 71.2654,
      "duration": 0.133,
      "velocity": 104,
      "chip": "ym2612"
    },
    {
      "channel": 3,
      "note": 100,
      "start": 71.2657,
      "duration": 0.1328,
      "velocity": 104,
      "chip": "ym2612"
    },
    {
      "channel": 4,
      "note": 71,
      "start": 71.2661,
      "duration": 0.2489,
      "velocity": 98,
      "chip": "ym2612"
    },
    {
      "channel": 5,
      "note": 71,
      "start": 71.3991,
      "duration": 0.2326,
      "velocity": 98,
      "chip": "ym2612"
    },
    {
      "channel": 4,
      "note": 74,
      "start": 71.5152,
      "duration": 0.0831,
      "velocity": 98,
      "chip": "ym2612"
    },
    {
      "channel": 5,
      "note": 74,
      "start": 71.6319,
      "duration": 0.0832,
      "velocity": 98,
      "chip": "ym2612"
    },
    {
      "channel": 4,
      "note": 76,
      "start": 71.7486,
      "duration": 0.0498,
      "velocity": 98,
      "chip": "ym2612"
    },
    {
      "channel": 5,
      "note": 76,
      "start": 71.8652,
      "duration": 0.0498,
      "velocity": 98,
      "chip": "ym2612"
    },
    {
      "channel": 4,
      "note": 76,
      "start": 71.9986,
      "duration": 0.4331,
      "velocity": 98,
      "chip": "ym2612"
    },
    {
      "channel": 5,
      "note": 76,
      "start": 72.1154,
      "duration": 0.4333,
      "velocity": 98,
      "chip": "ym2612"
    },
    {
      "channel": 1,
      "note": 88,
      "start": 72.4651,
      "duration": 0.1332,
      "velocity": 104,
      "chip": "ym2612"
    },
    {
      "channel": 2,
      "note": 93,
      "start": 72.4654,
      "duration": 0.133,
      "velocity": 104,
      "chip": "ym2612"
    },
    {
      "channel": 3,
      "note": 100,
      "start": 72.4657,
      "duration": 0.1328,
      "velocity": 104,
      "chip": "ym2612"
    },
    {
      "channel": 4,
      "note": 69,
      "start": 72.4661,
      "duration": 0.199,
      "velocity": 98,
      "chip": "ym2612"
    },
    {
      "channel": 5,
      "note": 69,
      "start": 72.5991,
      "duration": 0.1996,
      "velocity": 98,
      "chip": "ym2612"
    },
    {
      "channel": 0,
      "note": 50,
      "start": 72.7151,
      "duration": 0.1998,
      "velocity": 97,
      "chip": "ym2612"
    },
    {
      "channel": 1,
      "note": 88,
      "start": 72.7154,
      "duration": 0.1162,
      "velocity": 104,
      "chip": "ym2612"
    },
    {
      "channel": 2,
      "note": 93,
      "start": 72.7157,
      "duration": 0.116,
      "velocity": 104,
      "chip": "ym2612"
    },
    {
      "channel": 3,
      "note": 100,
      "start": 72.716,
      "duration": 0.1159,
      "velocity": 104,
      "chip": "ym2612"
    },
    {
      "channel": 4,
      "note": 71,
      "start": 72.7163,
      "duration": 0.1988,
      "velocity": 98,
      "chip": "ym2612"
    },
    {
      "channel": 5,
      "note": 71,
      "start": 72.8325,
      "duration": 0.1994,
      "velocity": 98,
      "chip": "ym2612"
    },
    {
      "channel": 0,
      "note": 52,
      "start": 72.9484,
      "duration": 0.1165,
      "velocity": 97,
      "chip": "ym2612"
    },
    {
      "channel": 4,
      "note": 74,
      "start": 72.9492,
      "duration": 0.0824,
      "velocity": 98,
      "chip": "ym2612"
    },
    {
      "channel": 5,
      "note": 74,
      "start": 73.0654,
      "duration": 0.083,
      "velocity": 98,
      "chip": "ym2612"
    },
    {
      "channel": 4,
      "note": 76,
      "start": 73.1986,
      "duration": 0.0331,
      "velocity": 98,
      "chip": "ym2612"
    },
    {
      "channel": 5,
      "note": 76,
      "start": 73.3152,
      "duration": 0.0332,
      "velocity": 98,
      "chip": "ym2612"
    },
    {
      "channel": 0,
      "note": 52,
      "start": 73.4317,
      "duration": 0.9665,
      "velocity": 97,
      "chip": "ym2612"
    },
    {
      "channel": 4,
      "note": 76,
      "start": 73.4322,
      "duration": 0.4828,
      "velocity": 98,
      "chip": "ym2612"
    },
    {
      "channel": 5,
      "note": 76,
      "start": 73.5487,
      "duration": 0.4831,
      "velocity": 98,
      "chip": "ym2612"
    },
    {
      "channel": 4,
      "note": 69,
      "start": 73.9152,
      "duration": 0.1998,
      "velocity": 98,
      "chip": "ym2612"
    },
    {
      "channel": 5,
      "note": 69,
      "start": 74.032,
      "duration": 0.1998,
      "velocity": 98,
      "chip": "ym2612"
    },
    {
      "channel": 4,
      "note": 71,
      "start": 74.1486,
      "duration": 0.1998,
      "velocity": 98,
      "chip": "ym2612"
    },
    {
      "channel": 5,
      "note": 71,
      "start": 74.2654,
      "duration": 0.1998,
      "velocity": 98,
      "chip": "ym2612"
    },
    {
      "channel": 0,
      "note": 57,
      "start": 74.3984,
      "duration": 0.2331,
      "velocity": 97,
      "chip": "ym2612"
    },
    {
      "channel": 4,
      "note": 74,
      "start": 74.3988,
      "duration": 0.2331,
      "velocity": 98,
      "chip": "ym2612"
    },
    {
      "channel": 5,
      "note": 74,
      "start": 74.5154,
      "duration": 0.2331,
      "velocity": 98,
      "chip": "ym2612"
    },
    {
      "channel": 0,
      "note": 55,
      "start": 74.6317,
      "duration": 0.2331,
      "velocity": 97,
      "chip": "ym2612"
    },
    {
      "channel": 4,
      "note": 76,
      "start": 74.6322,
      "duration": 0.2339,
      "velocity": 98,
      "chip": "ym2612"
    },
    {
      "channel": 5,
      "note": 76,
      "start": 74.7487,
      "duration": 0.2502,
      "velocity": 98,
      "chip": "ym2612"
    },
    {
      "channel": 0,
      "note": 52,
      "start": 74.8651,
      "duration": 1.6831,
      "velocity": 97,
      "chip": "ym2612"
    },
    {
      "channel": 1,
      "note": 88,
      "start": 74.8654,
      "duration": 0.1329,
      "velocity": 104,
      "chip": "ym2612"
    },
    {
      "channel": 2,
      "note": 93,
      "start": 74.8657,
      "duration": 0.1327,
      "velocity": 104,
      "chip": "ym2612"
    },
    {
      "channel": 3,
      "note": 100,
      "start": 74.866,
      "duration": 0.1326,
      "velocity": 104,
      "chip": "ym2612"
    },
    {
      "channel": 4,
      "note": 69,
      "start": 74.8663,
      "duration": 0.1987,
      "velocity": 98,
      "chip": "ym2612"
    },
    {
      "channel": 5,
      "note": 69,
      "start": 74.9991,
      "duration": 0.1996,
      "velocity": 98,
      "chip": "ym2612"
    },
    {
      "channel": 1,
      "note": 88,
      "start": 75.1151,
      "duration": 0.1165,
      "velocity": 104,
      "chip": "ym2612"
    },
    {
      "channel": 2,
      "note": 93,
      "start": 75.1154,
      "duration": 0.1163,
      "velocity": 104,
      "chip": "ym2612"
    },
    {
      "channel": 3,
      "note": 100,
      "start": 75.1157,
      "duration": 0.1162,
      "velocity": 104,
      "chip": "ym2612"
    },
    {
      "channel": 4,
      "note": 71,
      "start": 75.1161,
      "duration": 0.2323,
      "velocity": 98,
      "chip": "ym2612"
    },
    {
      "channel": 5,
      "note": 71,
      "start": 75.2325,
      "duration": 0.2326,
      "velocity": 98,
      "chip": "ym2612"
    },
    {
      "channel": 4,
      "note": 74,
      "start": 75.3486,
      "duration": 0.0831,
      "velocity": 98,
      "chip": "ym2612"
    },
    {
      "channel": 5,
      "note": 74,
      "start": 75.4652,
      "duration": 0.0832,
      "velocity": 98,
      "chip": "ym2612"
    },
    {
      "channel": 4,
      "note": 76,
      "start": 75.5986,
      "duration": 0.0331,
      "velocity": 98,
      "chip": "ym2612"
    },
    {
      "channel": 5,
      "note": 76,
      "start": 75.7152,
      "duration": 0.0332,
      "velocity": 98,
      "chip": "ym2612"
    },
    {
      "channel": 4,
      "note": 76,
      "start": 75.8319,
      "duration": 0.4839,
      "velocity": 98,
      "chip": "ym2612"
    },
    {
      "channel": 5,
      "note": 76,
      "start": 75.9487,
      "duration": 0.4835,
      "velocity": 98,
      "chip": "ym2612"
    },
    {
      "channel": 1,
      "note": 88,
      "start": 76.3151,
      "duration": 0.1165,
      "velocity": 104,
      "chip": "ym2612"
    },
    {
      "channel": 2,
      "note": 93,
      "start": 76.3154,
      "duration": 0.1163,
      "velocity": 104,
      "chip": "ym2612"
    },
    {
      "channel": 3,
      "note": 100,
      "start": 76.3157,
      "duration": 0.1162,
      "velocity": 104,
      "chip": "ym2612"
    },
    {
      "channel": 4,
      "note": 69,
      "start": 76.3161,
      "duration": 0.2333,
      "velocity": 98,
      "chip": "ym2612"
    },
    {
      "channel": 5,
      "note": 69,
      "start": 76.4325,
      "duration": 0.2331,
      "velocity": 98,
      "chip": "ym2612"
    },
    {
      "channel": 0,
      "note": 50,
      "start": 76.5484,
      "duration": 0.2498,
      "velocity": 97,
      "chip": "ym2612"
    },
    {
      "channel": 1,
      "note": 88,
      "start": 76.5487,
      "duration": 0.1162,
      "velocity": 104,
      "chip": "ym2612"
    },
    {
      "channel": 2,
      "note": 93,
      "start": 76.549,
      "duration": 0.116,
      "velocity": 104,
      "chip": "ym2612"
    },
    {
      "channel": 3,
      "note": 100,
      "start": 76.5493,
      "duration": 0.1159,
      "velocity": 104,
      "chip": "ym2612"
    },
    {
      "channel": 4,
      "note": 71,
      "start": 76.5497,
      "duration": 0.2494,
      "velocity": 98,
      "chip": "ym2612"
    },
    {
      "channel": 5,
      "note": 71,
      "start": 76.6658,
      "duration": 0.2494,
      "velocity": 98,
      "chip": "ym2612"
    },
    {
      "channel": 0,
      "note": 52,
      "start": 76.7984,
      "duration": 0.1165,
      "velocity": 97,
      "chip": "ym2612"
    },
    {
      "channel": 4,
      "note": 74,
      "start": 76.7992,
      "duration": 0.0658,
      "velocity": 98,
      "chip": "ym2612"
    },
    {
      "channel": 5,
      "note": 74,
      "start": 76.9154,
      "duration": 0.083,
      "velocity": 98,
      "chip": "ym2612"
    },
    {
      "channel": 4,
      "note": 76,
      "start": 77.0319,
      "duration": 0.0331,
      "velocity": 98,
      "chip": "ym2612"
    },
    {
      "channel": 5,
      "note": 76,
      "start": 77.1486,
      "duration": 0.0498,
      "velocity": 98,
      "chip": "ym2612"
    },
    {
      "channel": 0,
      "note": 52,
      "start": 77.2651,
      "duration": 1.0831,
      "velocity": 97,
      "chip": "ym2612"
    },
    {
      "channel": 4,
      "note": 76,
      "start": 77.2655,
      "duration": 0.4828,
      "velocity": 98,
      "chip": "ym2612"
    },
    {
      "channel": 5,
      "note": 76,
      "start": 77.3987,
      "duration": 0.4665,
      "velocity": 98,
      "chip": "ym2612"
    },
    {
      "channel": 4,
      "note": 69,
      "start": 77.7486,
      "duration": 0.2498,
      "velocity": 98,
      "chip": "ym2612"
    },
    {
      "channel": 5,
      "note": 69,
      "start": 77.8654,
      "duration": 0.2498,
      "velocity": 98,
      "chip": "ym2612"
    },
    {
      "channel": 4,
      "note": 71,
      "start": 77.9986,
      "duration": 0.1998,
      "velocity": 98,
      "chip": "ym2612"
    },
    {
      "channel": 5,
      "note": 71,
      "start": 78.1154,
      "duration": 0.1998,
      "velocity": 98,
      "chip": "ym2612"
    },
    {
      "channel": 4,
      "note": 74,
      "start": 78.2319,
      "duration": 0.1998,
      "velocity": 98,
      "chip": "ym2612"
    },
    {
      "channel": 5,
      "note": 74,
      "start": 78.3488,
      "duration": 0.1997,
      "velocity": 98,
      "chip": "ym2612"
    },
    {
      "channel": 4,
      "note": 76,
      "start": 78.4652,
      "duration": 0.251,
      "velocity": 98,
      "chip": "ym2612"
    },
    {
      "channel": 5,
      "note": 76,
      "start": 78.5988,
      "duration": 0.2335,
      "velocity": 98,
      "chip": "ym2612"
    },
    {
      "channel": 0,
      "note": 52,
      "start": 78.7151,
      "duration": 1.5165,
      "velocity": 97,
      "chip": "ym2612"
    },
    {
      "channel": 1,
      "note": 88,
      "start": 78.7154,
      "duration": 0.1162,
      "velocity": 104,
      "chip": "ym2612"
    },
    {
      "channel": 2,
      "note": 93,
      "start": 78.7157,
      "duration": 0.116,
      "velocity": 104,
      "chip": "ym2612"
    },
    {
      "channel": 3,
      "note": 100,
      "start": 78.716,
      "duration": 0.1159,
      "velocity": 104,
      "chip": "ym2612"
    },
    {
      "channel": 4,
      "note": 69,
      "start": 78.7164,
      "duration": 0.2328,
      "velocity": 98,
      "chip": "ym2612"
    },
    {
      "channel": 5,
      "note": 69,
      "start": 78.8325,
      "duration": 0.233,
      "velocity": 98,
      "chip": "ym2612"
    },
    {
      "channel": 1,
      "note": 88,
      "start": 78.9484,
      "duration": 0.1165,
      "velocity": 104,
      "chip": "ym2612"
    },
    {
      "channel": 2,
      "note": 93,
      "start": 78.9488,
      "duration": 0.1163,
      "velocity": 104,
      "chip": "ym2612"
    },
    {
      "channel": 3,
      "note": 100,
      "start": 78.9491,
      "duration": 0.1162,
      "velocity": 104,
      "chip": "ym2612"
    },
    {
      "channel": 4,
      "note": 71,
      "start": 78.9494,
      "duration": 0.2489,
      "velocity": 98,
      "chip": "ym2612"
    },
    {
      "channel": 5,
      "note": 71,
      "start": 79.0658,
      "duration": 0.2493,
      "velocity": 98,
      "chip": "ym2612"
    },
    {
      "channel": 4,
      "note": 74,
      "start": 79.1986,
      "duration": 0.0664,
      "velocity": 98,
      "chip": "ym2612"
    },
    {
      "channel": 5,
      "note": 74,
      "start": 79.3152,
      "duration": 0.0832,
      "velocity": 98,
      "chip": "ym2612"
    },
    {
      "channel": 4,
      "note": 76,
      "start": 79.4319,
      "duration": 0.0331,
      "velocity": 98,
      "chip": "ym2612"
    },
    {
      "channel": 5,
      "note": 76,
      "start": 79.5486,
      "duration": 0.0498,
      "velocity": 98,
      "chip": "ym2612"
    },
    {
      "channel": 4,
      "note": 76,
      "start": 79.6652,
      "duration": 0.4498,
      "velocity": 98,
      "chip": "ym2612"
    },
    {
      "channel": 5,
      "note": 76,
      "start": 79.7987,
      "duration": 0.4334,
      "velocity": 98,
      "chip": "ym2612"
    },
    {
      "channel": 1,
      "note": 88,
      "start": 80.1484,
      "duration": 0.1165,
      "velocity": 104,
      "chip": "ym2612"
    },
    {
      "channel": 2,
      "note": 93,
      "start": 80.1488,
      "duration": 0.1163,
      "velocity": 104,
      "chip": "ym2612"
    },
    {
      "channel": 3,
      "note": 100,
      "start": 80.1491,
      "duration": 0.1162,
      "velocity": 104,
      "chip": "ym2612"
    },
    {
      "channel": 4,
      "note": 69,
      "start": 80.1494,
      "duration": 0.1989,
      "velocity": 98,
      "chip": "ym2612"
    },
    {
      "channel": 5,
      "note": 69,
      "start": 80.2658,
      "duration": 0.1996,
      "velocity": 98,
      "chip": "ym2612"
    },
    {
      "channel": 0,
      "note": 50,
      "start": 80.3984,
      "duration": 0.2331,
      "velocity": 97,
      "chip": "ym2612"
    },
    {
      "channel": 1,
      "note": 88,
      "start": 80.3987,
      "duration": 0.1162,
      "velocity": 104,
      "chip": "ym2612"
    },
    {
      "channel": 2,
      "note": 93,
      "start": 80.399,
      "duration": 0.116,
      "velocity": 104,
      "chip": "ym2612"
    },
    {
      "channel": 3,
      "note": 100,
      "start": 80.3993,
      "duration": 0.1159,
      "velocity": 104,
      "chip": "ym2612"
    },
    {
      "channel": 4,
      "note": 71,
      "start": 80.3997,
      "duration": 0.1987,
      "velocity": 98,
      "chip": "ym2612"
    },
    {
      "channel": 5,
      "note": 71,
      "start": 80.5158,
      "duration": 0.1995,
      "velocity": 98,
      "chip": "ym2612"
    },
    {
      "channel": 0,
      "note": 52,
      "start": 80.6317,
      "duration": 0.0831,
      "velocity": 97,
      "chip": "ym2612"
    },
    {
      "channel": 4,
      "note": 74,
      "start": 80.6325,
      "duration": 0.0826,
      "velocity": 98,
      "chip": "ym2612"
    },
    {
      "channel": 5,
      "note": 74,
      "start": 80.7486,
      "duration": 0.0832,
      "velocity": 98,
      "chip": "ym2612"
    },
    {
      "channel": 4,
      "note": 76,
      "start": 80.8652,
      "duration": 0.0498,
      "velocity": 98,
      "chip": "ym2612"
    },
    {
      "channel": 5,
      "note": 76,
      "start": 80.9986,
      "duration": 0.0332,
      "velocity": 98,
      "chip": "ym2612"
    },
    {
      "channel": 0,
      "note": 52,
      "start": 81.1151,
      "duration": 0.9498,
      "velocity": 97,
      "chip": "ym2612"
    },
    {
      "channel": 4,
      "note": 76,
      "start": 81.1155,
      "duration": 0.4828,
      "velocity": 98,
      "chip": "ym2612"
    },
    {
      "channel": 5,
      "note": 76,
      "start": 81.232,
      "duration": 0.4831,
      "velocity": 98,
      "chip": "ym2612"
    },
    {
      "channel": 4,
      "note": 69,
      "start": 81.5986,
      "duration": 0.1998,
      "velocity": 98,
      "chip": "ym2612"
    },
    {
      "channel": 5,
      "note": 69,
      "start": 81.7154,
      "duration": 0.1998,
      "velocity": 98,
      "chip": "ym2612"
    },
    {
      "channel": 4,
      "note": 71,
      "start": 81.8319,
      "duration": 0.1998,
      "velocity": 98,
      "chip": "ym2612"
    },
    {
      "channel": 5,
      "note": 71,
      "start": 81.9487,
      "duration": 0.1998,
      "velocity": 98,
      "chip": "ym2612"
    },
    {
      "channel": 0,
      "note": 57,
      "start": 82.0651,
      "duration": 0.2498,
      "velocity": 97,
      "chip": "ym2612"
    },
    {
      "channel": 4,
      "note": 74,
      "start": 82.0655,
      "duration": 0.2498,
      "velocity": 98,
      "chip": "ym2612"
    },
    {
      "channel": 5,
      "note": 74,
      "start": 82.1987,
      "duration": 0.2331,
      "velocity": 98,
      "chip": "ym2612"
    },
    {
      "channel": 0,
      "note": 55,
      "start": 82.3151,
      "duration": 0.2331,
      "velocity": 97,
      "chip": "ym2612"
    },
    {
      "channel": 4,
      "note": 76,
      "start": 82.3155,
      "duration": 0.2339,
      "velocity": 98,
      "chip": "ym2612"
    },
    {
      "channel": 5,
      "note": 76,
      "start": 82.432,
      "duration": 0.2335,
      "velocity": 98,
      "chip": "ym2612"
    },
    {
      "channel": 0,
      "note": 52,
      "start": 82.5484,
      "duration": 1.6831,
      "velocity": 97,
      "chip": "ym2612"
    },
    {
      "channel": 1,
      "note": 88,
      "start": 82.5487,
      "duration": 0.1162,
      "velocity": 104,
      "chip": "ym2612"
    },
    {
      "channel": 2,
      "note": 93,
      "start": 82.549,
      "duration": 0.116,
      "velocity": 104,
      "chip": "ym2612"
    },
    {
      "channel": 3,
      "note": 100,
      "start": 82.5493,
      "duration": 0.1159,
      "velocity": 104,
      "chip": "ym2612"
    },
    {
      "channel": 4,
      "note": 69,
      "start": 82.5497,
      "duration": 0.1987,
      "velocity": 98,
      "chip": "ym2612"
    },
    {
      "channel": 5,
      "note": 69,
      "start": 82.6658,
      "duration": 0.1996,
      "velocity": 98,
      "chip": "ym2612"
    },
    {
      "channel": 1,
      "note": 88,
      "start": 82.7984,
      "duration": 0.1165,
      "velocity": 104,
      "chip": "ym2612"
    },
    {
      "channel": 2,
      "note": 93,
      "start": 82.7988,
      "duration": 0.1163,
      "velocity": 104,
      "chip": "ym2612"
    },
    {
      "channel": 3,
      "note": 100,
      "start": 82.7991,
      "duration": 0.1162,
      "velocity": 104,
      "chip": "ym2612"
    },
    {
      "channel": 4,
      "note": 71,
      "start": 82.7994,
      "duration": 0.2323,
      "velocity": 98,
      "chip": "ym2612"
    },
    {
      "channel": 5,
      "note": 71,
      "start": 82.9158,
      "duration": 0.2326,
      "velocity": 98,
      "chip": "ym2612"
    },
    {
      "channel": 4,
      "note": 74,
      "start": 83.0319,
      "duration": 0.0831,
      "velocity": 98,
      "chip": "ym2612"
    },
    {
      "channel": 5,
      "note": 74,
      "start": 83.1486,
      "duration": 0.0832,
      "velocity": 98,
      "chip": "ym2612"
    },
    {
      "channel": 4,
      "note": 76,
      "start": 83.2652,
      "duration": 0.0498,
      "velocity": 98,
      "chip": "ym2612"
    },
    {
      "channel": 5,
      "note": 76,
      "start": 83.3986,
      "duration": 0.0332,
      "velocity": 98,
      "chip": "ym2612"
    },
    {
      "channel": 4,
      "note": 76,
      "start": 83.5152,
      "duration": 0.4839,
      "velocity": 98,
      "chip": "ym2612"
    },
    {
      "channel": 5,
      "note": 76,
      "start": 83.632,
      "duration": 0.4835,
      "velocity": 98,
      "chip": "ym2612"
    },
    {
      "channel": 1,
      "note": 88,
      "start": 83.9984,
      "duration": 0.1165,
      "velocity": 104,
      "chip": "ym2612"
    },
    {
      "channel": 2,
      "note": 93,
      "start": 83.9988,
      "duration": 0.1163,
      "velocity": 104,
      "chip": "ym2612"
    },
    {
      "channel": 3,
      "note": 100,
      "start": 83.9991,
      "duration": 0.1162,
      "velocity": 104,
      "chip": "ym2612"
    },
    {
      "channel": 4,
      "note": 69,
      "start": 83.9994,
      "duration": 0.2333,
      "velocity": 98,
      "chip": "ym2612"
    },
    {
      "channel": 5,
      "note": 69,
      "start": 84.1158,
      "duration": 0.2329,
      "velocity": 98,
      "chip": "ym2612"
    },
    {
      "channel": 0,
      "note": 50,
      "start": 84.2317,
      "duration": 0.2331,
      "velocity": 97,
      "chip": "ym2612"
    },
    {
      "channel": 1,
      "note": 88,
      "start": 84.232,
      "duration": 0.2331,
      "velocity": 104,
      "chip": "ym2612"
    },
    {
      "channel": 2,
      "note": 93,
      "start": 84.2324,
      "duration": 0.2329,
      "velocity": 104,
      "chip": "ym2612"
    },
    {
      "channel": 3,
      "note": 100,
      "start": 84.2327,
      "duration": 0.2328,
      "velocity": 104,
      "chip": "ym2612"
    },
    {
      "channel": 4,
      "note": 71,
      "start": 84.233,
      "duration": 0.2327,
      "velocity": 98,
      "chip": "ym2612"
    },
    {
      "channel": 5,
      "note": 71,
      "start": 84.349,
      "duration": 0.2494,
      "velocity": 98,
      "chip": "ym2612"
    },
    {
      "channel": 0,
      "note": 52,
      "start": 84.4651,
      "duration": 0.0831,
      "velocity": 97,
      "chip": "ym2612"
    },
    {
      "channel": 4,
      "note": 74,
      "start": 84.4659,
      "duration": 0.0826,
      "velocity": 98,
      "chip": "ym2612"
    },
    {
      "channel": 5,
      "note": 74,
      "start": 84.5986,
      "duration": 0.0665,
      "velocity": 98,
      "chip": "ym2612"
    },
    {
      "channel": 4,
      "note": 76,
      "start": 84.7152,
      "duration": 0.0331,
      "velocity": 98,
      "chip": "ym2612"
    },
    {
      "channel": 5,
      "note": 76,
      "start": 84.8319,
      "duration": 0.0332,
      "velocity": 98,
      "chip": "ym2612"
    },
    {
      "channel": 0,
      "note": 52,
      "start": 84.9484,
      "duration": 0.4831,
      "velocity": 97,
      "chip": "ym2612"
    },
    {
      "channel": 4,
      "note": 76,
      "start": 84.9488,
      "duration": 0.4831,
      "velocity": 98,
      "chip": "ym2612"
    },
    {
      "channel": 5,
      "note": 76,
      "start": 85.0654,
      "duration": 0.4831,
      "velocity": 98,
      "chip": "ym2612"
    },
    {
      "channel": 0,
      "note": 57,
      "start": 85.4317,
      "duration": 0.2331,
      "velocity": 97,
      "chip": "ym2612"
    },
    {
      "channel": 4,
      "note": 69,
      "start": 85.4322,
      "duration": 0.2331,
      "velocity": 98,
      "chip": "ym2612"
    },
    {
      "channel": 5,
      "note": 69,
      "start": 85.5487,
      "duration": 0.2498,
      "velocity": 98,
      "chip": "ym2612"
    },
    {
      "channel": 0,
      "note": 59,
      "start": 85.6651,
      "duration": 0.2498,
      "velocity": 97,
      "chip": "ym2612"
    },
    {
      "channel": 4,
      "note": 71,
      "start": 85.6655,
      "duration": 0.1995,
      "velocity": 98,
      "chip": "ym2612"
    },
    {
      "channel": 5,
      "note": 71,
      "start": 85.7987,
      "duration": 0.1998,
      "velocity": 98,
      "chip": "ym2612"
    },
    {
      "channel": 0,
      "note": 50,
      "start": 85.9151,
      "duration": 0.2331,
      "velocity": 97,
      "chip": "ym2612"
    },
    {
      "channel": 4,
      "note": 74,
      "start": 85.9155,
      "duration": 0.1995,
      "velocity": 98,
      "chip": "ym2612"
    },
    {
      "channel": 5,
      "note": 74,
      "start": 86.032,
      "duration": 0.1998,
      "velocity": 98,
      "chip": "ym2612"
    },
    {
      "channel": 0,
      "note": 52,
      "start": 86.1484,
      "duration": 0.2499,
      "velocity": 97,
      "chip": "ym2612"
    },
    {
      "channel": 4,
      "note": 76,
      "start": 86.1488,
      "duration": 0.2559,
      "velocity": 100,
      "chip": "ym2612"
    },
    {
      "channel": 5,
      "note": 76,
      "start": 86.2654,
      "duration": 0.141,
      "velocity": 100,
      "chip": "ym2612"
    },
    {
      "channel": 0,
      "note": 50,
      "start": 86.3984,
      "duration": 0.9498,
      "velocity": 97,
      "chip": "ym2612"
    },
    {
      "channel": 1,
      "note": 74,
      "start": 86.4,
      "duration": 0.1983,
      "velocity": 79,
      "chip": "ym2612"
    },
    {
      "channel": 4,
      "note": 79,
      "start": 86.4049,
      "duration": 0.0602,
      "velocity": 100,
      "chip": "ym2612"
    },
    {
      "channel": 5,
      "note": 79,
      "start": 86.4066,
      "duration": 0.0587,
      "velocity": 100,
      "chip": "ym2612"
    },
    {
      "channel": 2,
      "note": 74,
      "start": 86.5153,
      "duration": 0.1998,
      "velocity": 79,
      "chip": "ym2612"
    },
    {
      "channel": 4,
      "note": 74,
      "start": 86.5157,
      "duration": 0.0829,
      "velocity": 100,
      "chip": "ym2612"
    },
    {
      "channel": 5,
      "note": 74,
      "start": 86.516,
      "duration": 0.0827,
      "velocity": 100,
      "chip": "ym2612"
    },
    {
      "channel": 1,
      "note": 72,
      "start": 86.6318,
      "duration": 0.1998,
      "velocity": 79,
      "chip": "ym2612"
    },
    {
      "channel": 3,
      "note": 74,
      "start": 86.6323,
      "duration": 0.1996,
      "velocity": 79,
      "chip": "ym2612"
    },
    {
      "channel": 4,
      "note": 72,
      "start": 86.6326,
      "duration": 0.0826,
      "velocity": 100,
      "chip": "ym2612"
    },
    {
      "channel": 5,
      "note": 72,
      "start": 86.6329,
      "duration": 0.0825,
      "velocity": 100,
      "chip": "ym2612"
    },
    {
      "channel": 2,
      "note": 72,
      "start": 86.7486,
      "duration": 0.1998,
      "velocity": 79,
      "chip": "ym2612"
    },
    {
      "channel": 4,
      "note": 69,
      "start": 86.749,
      "duration": 0.0831,
      "velocity": 100,
      "chip": "ym2612"
    },
    {
      "channel": 5,
      "note": 69,
      "start": 86.7493,
      "duration": 0.0829,
      "velocity": 100,
      "chip": "ym2612"
    },
    {
      "channel": 1,
      "note": 74,
      "start": 86.8651,
      "duration": 0.1332,
      "velocity": 79,
      "chip": "ym2612"
    },
    {
      "channel": 3,
      "note": 72,
      "start": 86.8656,
      "duration": 0.1995,
      "velocity": 79,
      "chip": "ym2612"
    },
    {
      "channel": 4,
      "note": 79,
      "start": 86.8659,
      "duration": 0.0827,
      "velocity": 100,
      "chip": "ym2612"
    },
    {
      "channel": 5,
      "note": 79,
      "start": 86.8662,
      "duration": 0.0826,
      "velocity": 100,
      "chip": "ym2612"
    },
    {
      "channel": 2,
      "note": 74,
      "start": 86.9986,
      "duration": 0.1166,
      "velocity": 79,
      "chip": "ym2612"
    },
    {
      "channel": 4,
      "note": 74,
      "start": 86.999,
      "duration": 0.0663,
      "velocity": 100,
      "chip": "ym2612"
    },
    {
      "channel": 5,
      "note": 74,
      "start": 86.9993,
      "duration": 0.0661,
      "velocity": 100,
      "chip": "ym2612"
    },
    {
      "channel": 1,
      "note": 79,
      "start": 87.1151,
      "duration": 0.1165,
      "velocity": 79,
      "chip": "ym2612"
    },
    {
      "channel": 3,
      "note": 74,
      "start": 87.1156,
      "duration": 0.1165,
      "velocity": 79,
      "chip": "ym2612"
    },
    {
      "channel": 4,
      "note": 72,
      "start": 87.1159,
      "duration": 0.0826,
      "velocity": 100,
      "chip": "ym2612"
    },
    {
      "channel": 5,
      "note": 72,
      "start": 87.1162,
      "duration": 0.0824,
      "velocity": 100,
      "chip": "ym2612"
    },
    {
      "channel": 2,
      "note": 79,
      "start": 87.232,
      "duration": 0.1167,
      "velocity": 79,
      "chip": "ym2612"
    },
    {
      "channel": 4,
      "note": 69,
      "start": 87.2324,
      "duration": 0.0827,
      "velocity": 100,
      "chip": "ym2612"
    },
    {
      "channel": 5,
      "note": 69,
      "start": 87.2328,
      "duration": 0.0825,
      "velocity": 100,
      "chip": "ym2612"
    },
    {
      "channel": 1,
      "note": 74,
      "start": 87.3486,
      "duration": 1.283,
      "velocity": 79,
      "chip": "ym2612"
    },
    {
      "channel": 3,
      "note": 79,
      "start": 87.349,
      "duration": 0.1163,
      "velocity": 79,
      "chip": "ym2612"
    },
    {
      "channel": 4,
      "note": 79,
      "start": 87.3494,
      "duration": 0.0824,
      "velocity": 100,
      "chip": "ym2612"
    },
    {
      "channel": 5,
      "note": 79,
      "start": 87.3497,
      "duration": 0.0823,
      "velocity": 100,
      "chip": "ym2612"
    },
    {
      "channel": 2,
      "note": 74,
      "start": 87.4652,
      "duration": 1.283,
      "velocity": 79,
      "chip": "ym2612"
    },
    {
      "channel": 4,
      "note": 74,
      "start": 87.4657,
      "duration": 0.0828,
      "velocity": 100,
      "chip": "ym2612"
    },
    {
      "channel": 5,
      "note": 74,
      "start": 87.4661,
      "duration": 0.0827,
      "velocity": 100,
      "chip": "ym2612"
    },
    {
      "channel": 3,
      "note": 74,
      "start": 87.5987,
      "duration": 1.2663,
      "velocity": 79,
      "chip": "ym2612"
    },
    {
      "channel": 4,
      "note": 72,
      "start": 87.599,
      "duration": 0.0662,
      "velocity": 100,
      "chip": "ym2612"
    },
    {
      "channel": 5,
      "note": 72,
      "start": 87.5994,
      "duration": 0.066,
      "velocity": 100,
      "chip": "ym2612"
    },
    {
      "channel": 4,
      "note": 69,
      "start": 87.7154,
      "duration": 0.0832,
      "velocity": 100,
      "chip": "ym2612"
    },
    {
      "channel": 5,
      "note": 69,
      "start": 87.7157,
      "duration": 0.083,
      "velocity": 100,
      "chip": "ym2612"
    },
    {
      "channel": 0,
      "note": 50,
      "start": 87.8317,
      "duration": 0.1665,
      "velocity": 97,
      "chip": "ym2612"
    },
    {
      "channel": 4,
      "note": 79,
      "start": 87.8324,
      "duration": 0.0829,
      "velocity": 100,
      "chip": "ym2612"
    },
    {
      "channel": 5,
      "note": 79,
      "start": 87.8327,
      "duration": 0.0827,
      "velocity": 100,
      "chip": "ym2612"
    },
    {
      "channel": 4,
      "note": 74,
      "start": 87.9488,
      "duration": 0.0832,
      "velocity": 100,
      "chip": "ym2612"
    },
    {
      "channel": 5,
      "note": 74,
      "start": 87.9491,
      "duration": 0.083,
      "velocity": 100,
      "chip": "ym2612"
    },
    {
      "channel": 0,
      "note": 50,
      "start": 88.0651,
      "duration": 0.1665,
      "velocity": 97,
      "chip": "ym2612"
    },
    {
      "channel": 4,
      "note": 72,
      "start": 88.0657,
      "duration": 0.0829,
      "velocity": 100,
      "chip": "ym2612"
    },
    {
      "channel": 5,
      "note": 72,
      "start": 88.0661,
      "duration": 0.0827,
      "velocity": 100,
      "chip": "ym2612"
    },
    {
      "channel": 4,
      "note": 69,
      "start": 88.1988,
      "duration": 0.0665,
      "velocity": 100,
      "chip": "ym2612"
    },
    {
      "channel": 5,
      "note": 69,
      "start": 88.1991,
      "duration": 0.0663,
      "velocity": 100,
      "chip": "ym2612"
    },
    {
      "channel": 4,
      "note": 79,
      "start": 88.3156,
      "duration": 0.083,
      "velocity": 100,
      "chip": "ym2612"
    },
    {
      "channel": 5,
      "note": 79,
      "start": 88.3159,
      "duration": 0.0829,
      "velocity": 100,
      "chip": "ym2612"
    },
    {
      "channel": 4,
      "note": 74,
      "start": 88.4321,
      "duration": 0.0832,
      "velocity": 100,
      "chip": "ym2612"
    },
    {
      "channel": 5,
      "note": 74,
      "start": 88.4324,
      "duration": 0.083,
      "velocity": 100,
      "chip": "ym2612"
    },
    {
      "channel": 4,
      "note": 72,
      "start": 88.5489,
      "duration": 0.083,
      "velocity": 100,
      "chip": "ym2612"
    },
    {
      "channel": 5,
      "note": 72,
      "start": 88.5492,
      "duration": 0.0829,
      "velocity": 100,
      "chip": "ym2612"
    },
    {
      "channel": 4,
      "note": 69,
      "start": 88.6654,
      "duration": 0.0831,
      "velocity": 100,
      "chip": "ym2612"
    },
    {
      "channel": 5,
      "note": 69,
      "start": 88.6657,
      "duration": 0.0829,
      "velocity": 100,
      "chip": "ym2612"
    },
    {
      "channel": 4,
      "note": 79,
      "start": 88.7986,
      "duration": 0.0665,
      "velocity": 100,
      "chip": "ym2612"
    },
    {
      "channel": 5,
      "note": 79,
      "start": 88.7989,
      "duration": 0.0664,
      "velocity": 100,
      "chip": "ym2612"
    },
    {
      "channel": 4,
      "note": 74,
      "start": 88.9152,
      "duration": 0.0831,
      "velocity": 100,
      "chip": "ym2612"
    },
    {
      "channel": 5,
      "note": 74,
      "start": 88.9156,
      "duration": 0.0829,
      "velocity": 100,
      "chip": "ym2612"
    },
    {
      "channel": 4,
      "note": 72,
      "start": 89.0319,
      "duration": 0.0831,
      "velocity": 100,
      "chip": "ym2612"
    },
    {
      "channel": 5,
      "note": 72,
      "start": 89.0322,
      "duration": 0.0829,
      "velocity": 100,
      "chip": "ym2612"
    },
    {
      "channel": 4,
      "note": 69,
      "start": 89.1486,
      "duration": 0.0831,
      "velocity": 100,
      "chip": "ym2612"
    },
    {
      "channel": 5,
      "note": 69,
      "start": 89.1489,
      "duration": 0.0829,
      "velocity": 100,
      "chip": "ym2612"
    },
    {
      "channel": 0,
      "note": 48,
      "start": 89.2651,
      "duration": 0.9665,
      "velocity": 97,
      "chip": "ym2612"
    },
    {
      "channel": 4,
      "note": 79,
      "start": 89.2655,
      "duration": 0.0828,
      "velocity": 100,
      "chip": "ym2612"
    },
    {
      "channel": 5,
      "note": 79,
      "start": 89.2658,
      "duration": 0.0827,
      "velocity": 100,
      "chip": "ym2612"
    },
    {
      "channel": 4,
      "note": 74,
      "start": 89.3986,
      "duration": 0.0664,
      "velocity": 100,
      "chip": "ym2612"
    },
    {
      "channel": 5,
      "note": 74,
      "start": 89.3989,
      "duration": 0.0663,
      "velocity": 100,
      "chip": "ym2612"
    },
    {
      "channel": 4,
      "note": 72,
      "start": 89.5152,
      "duration": 0.0831,
      "velocity": 100,
      "chip": "ym2612"
    },
    {
      "channel": 5,
      "note": 72,
      "start": 89.5156,
      "duration": 0.0829,
      "velocity": 100,
      "chip": "ym2612"
    },
    {
      "channel": 4,
      "note": 69,
      "start": 89.6319,
      "duration": 0.0831,
      "velocity": 100,
      "chip": "ym2612"
    },
    {
      "channel": 5,
      "note": 69,
      "start": 89.6322,
      "duration": 0.0829,
      "velocity": 100,
      "chip": "ym2612"
    },
    {
      "channel": 4,
      "note": 79,
      "start": 89.7486,
      "duration": 0.0831,
      "velocity": 100,
      "chip": "ym2612"
    },
    {
      "channel": 5,
      "note": 79,
      "start": 89.7489,
      "duration": 0.0829,
      "velocity": 100,
      "chip": "ym2612"
    },
    {
      "channel": 4,
      "note": 74,
      "start": 89.8652,
      "duration": 0.0831,
      "velocity": 100,
      "chip": "ym2612"
    },
    {
      "channel": 5,
      "note": 74,
      "start": 89.8656,
      "duration": 0.0829,
      "velocity": 100,
      "chip": "ym2612"
    },
    {
      "channel": 4,
      "note": 72,
      "start": 89.9986,
      "duration": 0.0664,
      "velocity": 100,
      "chip": "ym2612"
    },
    {
      "channel": 5,
      "note": 72,
      "start": 89.9989,
      "duration": 0.0663,
      "velocity": 100,
      "chip": "ym2612"
    },
    {
      "channel": 4,
      "note": 69,
      "start": 90.1152,
      "duration": 0.0831,
      "velocity": 100,
      "chip": "ym2612"
    },
    {
      "channel": 5,
      "note": 69,
      "start": 90.1156,
      "duration": 0.0829,
      "velocity": 100,
      "chip": "ym2612"
    },
    {
      "channel": 0,
      "note": 50,
      "start": 90.2317,
      "duration": 1.0831,
      "velocity": 97,
      "chip": "ym2612"
    },
    {
      "channel": 1,
      "note": 74,
      "start": 90.232,
      "duration": 0.2329,
      "velocity": 79,
      "chip": "ym2612"
    },
    {
      "channel": 4,
      "note": 79,
      "start": 90.2325,
      "duration": 0.0826,
      "velocity": 100,
      "chip": "ym2612"
    },
    {
      "channel": 5,
      "note": 79,
      "start": 90.233,
      "duration": 0.0823,
      "velocity": 100,
      "chip": "ym2612"
    },
    {
      "channel": 2,
      "note": 74,
      "start": 90.3486,
      "duration": 0.2498,
      "velocity": 79,
      "chip": "ym2612"
    },
    {
      "channel": 4,
      "note": 74,
      "start": 90.349,
      "duration": 0.0829,
      "velocity": 100,
      "chip": "ym2612"
    },
    {
      "channel": 5,
      "note": 74,
      "start": 90.3493,
      "duration": 0.0828,
      "velocity": 100,
      "chip": "ym2612"
    },
    {
      "channel": 1,
      "note": 72,
      "start": 90.4651,
      "duration": 0.2498,
      "velocity": 79,
      "chip": "ym2612"
    },
    {
      "channel": 3,
      "note": 74,
      "start": 90.4656,
      "duration": 0.2498,
      "velocity": 79,
      "chip": "ym2612"
    },
    {
      "channel": 4,
      "note": 72,
      "start": 90.4659,
      "duration": 0.0827,
      "velocity": 100,
      "chip": "ym2612"
    },
    {
      "channel": 5,
      "note": 72,
      "start": 90.4662,
      "duration": 0.0826,
      "velocity": 100,
      "chip": "ym2612"
    },
    {
      "channel": 2,
      "note": 72,
      "start": 90.5986,
      "duration": 0.2331,
      "velocity": 79,
      "chip": "ym2612"
    },
    {
      "channel": 4,
      "note": 69,
      "start": 90.599,
      "duration": 0.0663,
      "velocity": 100,
      "chip": "ym2612"
    },
    {
      "channel": 5,
      "note": 69,
      "start": 90.5993,
      "duration": 0.0661,
      "velocity": 100,
      "chip": "ym2612"
    },
    {
      "channel": 1,
      "note": 74,
      "start": 90.7151,
      "duration": 0.1165,
      "velocity": 79,
      "chip": "ym2612"
    },
    {
      "channel": 3,
      "note": 72,
      "start": 90.7156,
      "duration": 0.2332,
      "velocity": 79,
      "chip": "ym2612"
    },
    {
      "channel": 4,
      "note": 79,
      "start": 90.7159,
      "duration": 0.0827,
      "velocity": 100,
      "chip": "ym2612"
    },
    {
      "channel": 5,
      "note": 79,
      "start": 90.7162,
      "duration": 0.0826,
      "velocity": 100,
      "chip": "ym2612"
    },
    {
      "channel": 2,
      "note": 74,
      "start": 90.832,
      "duration": 0.1166,
      "velocity": 79,
      "chip": "ym2612"
    },
    {
      "channel": 4,
      "note": 74,
      "start": 90.8323,
      "duration": 0.0828,
      "velocity": 100,
      "chip": "ym2612"
    },
    {
      "channel": 5,
      "note": 74,
      "start": 90.8326,
      "duration": 0.0827,
      "velocity": 100,
      "chip": "ym2612"
    },
    {
      "channel": 1,
      "note": 79,
      "start": 90.9484,
      "duration": 0.1165,
      "velocity": 79,
      "chip": "ym2612"
    },
    {
      "channel": 3,
      "note": 74,
      "start": 90.9489,
      "duration": 0.1165,
      "velocity": 79,
      "chip": "ym2612"
    },
    {
      "channel": 4,
      "note": 72,
      "start": 90.9492,
      "duration": 0.0826,
      "velocity": 100,
      "chip": "ym2612"
    },
    {
      "channel": 5,
      "note": 72,
      "start": 90.9495,
      "duration": 0.0824,
      "velocity": 100,
      "chip": "ym2612"
    },
    {
      "channel": 2,
      "note": 79,
      "start": 91.0653,
      "duration": 0.1333,
      "velocity": 79,
      "chip": "ym2612"
    },
    {
      "channel": 4,
      "note": 69,
      "start": 91.0657,
      "duration": 0.0827,
      "velocity": 100,
      "chip": "ym2612"
    },
    {
      "channel": 5,
      "note": 69,
      "start": 91.0661,
      "duration": 0.0825,
      "velocity": 100,
      "chip": "ym2612"
    },
    {
      "channel": 1,
      "note": 74,
      "start": 91.1984,
      "duration": 1.4332,
      "velocity": 79,
      "chip": "ym2612"
    },
    {
      "channel": 3,
      "note": 79,
      "start": 91.1989,
      "duration": 0.1166,
      "velocity": 79,
      "chip": "ym2612"
    },
    {
      "channel": 4,
      "note": 79,
      "start": 91.1992,
      "duration": 0.0659,
      "velocity": 100,
      "chip": "ym2612"
    },
    {
      "channel": 5,
      "note": 79,
      "start": 91.1995,
      "duration": 0.0658,
      "velocity": 100,
      "chip": "ym2612"
    },
    {
      "channel": 2,
      "note": 74,
      "start": 91.3154,
      "duration": 1.433,
      "velocity": 79,
      "chip": "ym2612"
    },
    {
      "channel": 4,
      "note": 74,
      "start": 91.3159,
      "duration": 0.0827,
      "velocity": 100,
      "chip": "ym2612"
    },
    {
      "channel": 5,
      "note": 74,
      "start": 91.3162,
      "duration": 0.0826,
      "velocity": 100,
      "chip": "ym2612"
    },
    {
      "channel": 3,
      "note": 74,
      "start": 91.432,
      "duration": 1.4331,
      "velocity": 79,
      "chip": "ym2612"
    },
    {
      "channel": 4,
      "note": 72,
      "start": 91.4324,
      "duration": 0.0829,
      "velocity": 100,
      "chip": "ym2612"
    },
    {
      "channel": 5,
      "note": 72,
      "start": 91.4327,
      "duration": 0.0827,
      "velocity": 100,
      "chip": "ym2612"
    },
    {
      "channel": 4,
      "note": 69,
      "start": 91.5488,
      "duration": 0.0832,
      "velocity": 100,
      "chip": "ym2612"
    },
    {
      "channel": 5,
      "note": 69,
      "start": 91.5491,
      "duration": 0.083,
      "velocity": 100,
      "chip": "ym2612"
    },
    {
      "channel": 0,
      "note": 50,
      "start": 91.6651,
      "duration": 0.1331,
      "velocity": 97,
      "chip": "ym2612"
    },
    {
      "channel": 4,
      "note": 79,
      "start": 91.6657,
      "duration": 0.0829,
      "velocity": 100,
      "chip": "ym2612"
    },
    {
      "channel": 5,
      "note": 79,
      "start": 91.6661,
      "duration": 0.0827,
      "velocity": 100,
      "chip": "ym2612"
    },
    {
      "channel": 4,
      "note": 74,
      "start": 91.799,
      "duration": 0.0663,
      "velocity": 100,
      "chip": "ym2612"
    },
    {
      "channel": 5,
      "note": 74,
      "start": 91.7993,
      "duration": 0.0661,
      "velocity": 100,
      "chip": "ym2612"
    },
    {
      "channel": 0,
      "note": 50,
      "start": 91.9151,
      "duration": 0.1498,
      "velocity": 97,
      "chip": "ym2612"
    },
    {
      "channel": 4,
      "note": 72,
      "start": 91.9157,
      "duration": 0.0829,
      "velocity": 100,
      "chip": "ym2612"
    },
    {
      "channel": 5,
      "note": 72,
      "start": 91.9161,
      "duration": 0.0827,
      "velocity": 100,
      "chip": "ym2612"
    },
    {
      "channel": 4,
      "note": 69,
      "start": 92.0321,
      "duration": 0.0832,
      "velocity": 100,
      "chip": "ym2612"
    },
    {
      "channel": 5,
      "note": 69,
      "start": 92.0324,
      "duration": 0.083,
      "velocity": 100,
      "chip": "ym2612"
    },
    {
      "channel": 4,
      "note": 79,
      "start": 92.1489,
      "duration": 0.083,
      "velocity": 100,
      "chip": "ym2612"
    },
    {
      "channel": 5,
      "note": 79,
      "start": 92.1492,
      "duration": 0.0829,
      "velocity": 100,
      "chip": "ym2612"
    },
    {
      "channel": 4,
      "note": 74,
      "start": 92.2654,
      "duration": 0.0832,
      "velocity": 100,
      "chip": "ym2612"
    },
    {
      "channel": 5,
      "note": 74,
      "start": 92.2657,
      "duration": 0.083,
      "velocity": 100,
      "chip": "ym2612"
    },
    {
      "channel": 4,
      "note": 72,
      "start": 92.3989,
      "duration": 0.0663,
      "velocity": 100,
      "chip": "ym2612"
    },
    {
      "channel": 5,
      "note": 72,
      "start": 92.3992,
      "duration": 0.0662,
      "velocity": 100,
      "chip": "ym2612"
    },
    {
      "channel": 4,
      "note": 69,
      "start": 92.5154,
      "duration": 0.0832,
      "velocity": 100,
      "chip": "ym2612"
    },
    {
      "channel": 5,
      "note": 69,
      "start": 92.5157,
      "duration": 0.083,
      "velocity": 100,
      "chip": "ym2612"
    },
    {
      "channel": 1,
      "note": 81,
      "start": 92.6318,
      "duration": 0.4332,
      "velocity": 79,
      "chip": "ym2612"
    },
    {
      "channel": 4,
      "note": 79,
      "start": 92.6323,
      "duration": 0.0829,
      "velocity": 100,
      "chip": "ym2612"
    },
    {
      "channel": 5,
      "note": 79,
      "start": 92.6326,
      "duration": 0.0828,
      "velocity": 100,
      "chip": "ym2612"
    },
    {
      "channel": 2,
      "note": 81,
      "start": 92.7486,
      "duration": 0.4498,
      "velocity": 79,
      "chip": "ym2612"
    },
    {
      "channel": 4,
      "note": 74,
      "start": 92.749,
      "duration": 0.0829,
      "velocity": 100,
      "chip": "ym2612"
    },
    {
      "channel": 5,
      "note": 74,
      "start": 92.7493,
      "duration": 0.0828,
      "velocity": 100,
      "chip": "ym2612"
    },
    {
      "channel": 3,
      "note": 81,
      "start": 92.8654,
      "duration": 0.4498,
      "velocity": 79,
      "chip": "ym2612"
    },
    {
      "channel": 4,
      "note": 72,
      "start": 92.8657,
      "duration": 0.0829,
      "velocity": 100,
      "chip": "ym2612"
    },
    {
      "channel": 5,
      "note": 72,
      "start": 92.8661,
      "duration": 0.0827,
      "velocity": 100,
      "chip": "ym2612"
    },
    {
      "channel": 4,
      "note": 69,
      "start": 92.9988,
      "duration": 0.0665,
      "velocity": 100,
      "chip": "ym2612"
    },
    {
      "channel": 5,
      "note": 69,
      "start": 92.9991,
      "duration": 0.0663,
      "velocity": 100,
      "chip": "ym2612"
    },
    {
      "channel": 0,
      "note": 57,
      "start": 93.1151,
      "duration": 0.4331,
      "velocity": 97,
      "chip": "ym2612"
    },
    {
      "channel": 1,
      "note": 79,
      "start": 93.1154,
      "duration": 0.433,
      "velocity": 79,
      "chip": "ym2612"
    },
    {
      "channel": 4,
      "note": 79,
      "start": 93.1159,
      "duration": 0.0827,
      "velocity": 100,
      "chip": "ym2612"
    },
    {
      "channel": 5,
      "note": 79,
      "start": 93.1162,
      "duration": 0.0826,
      "velocity": 100,
      "chip": "ym2612"
    },
    {
      "channel": 2,
      "note": 79,
      "start": 93.2319,
      "duration": 0.4332,
      "velocity": 79,
      "chip": "ym2612"
    },
    {
      "channel": 4,
      "note": 74,
      "start": 93.2323,
      "duration": 0.0831,
      "velocity": 100,
      "chip": "ym2612"
    },
    {
      "channel": 5,
      "note": 74,
      "start": 93.2326,
      "duration": 0.0829,
      "velocity": 100,
      "chip": "ym2612"
    },
    {
      "channel": 3,
      "note": 79,
      "start": 93.3487,
      "duration": 0.4498,
      "velocity": 79,
      "chip": "ym2612"
    },
    {
      "channel": 4,
      "note": 72,
      "start": 93.349,
      "duration": 0.0829,
      "velocity": 100,
      "chip": "ym2612"
    },
    {
      "channel": 5,
      "note": 72,
      "start": 93.3494,
      "duration": 0.0827,
      "velocity": 100,
      "chip": "ym2612"
    },
    {
      "channel": 4,
      "note": 69,
      "start": 93.4654,
      "duration": 0.0833,
      "velocity": 100,
      "chip": "ym2612"
    },
    {
      "channel": 5,
      "note": 69,
      "start": 93.4657,
      "duration": 0.0832,
      "velocity": 100,
      "chip": "ym2612"
    },
    {
      "channel": 0,
      "note": 55,
      "start": 93.5984,
      "duration": 0.4665,
      "velocity": 97,
      "chip": "ym2612"
    },
    {
      "channel": 1,
      "note": 72,
      "start": 93.5987,
      "duration": 0.4329,
      "velocity": 79,
      "chip": "ym2612"
    },
    {
      "channel": 4,
      "note": 79,
      "start": 93.5992,
      "duration": 0.066,
      "velocity": 100,
      "chip": "ym2612"
    },
    {
      "channel": 5,
      "note": 79,
      "start": 93.5995,
      "duration": 0.0659,
      "velocity": 100,
      "chip": "ym2612"
    },
    {
      "channel": 2,
      "note": 72,
      "start": 93.7153,
      "duration": 0.4331,
      "velocity": 79,
      "chip": "ym2612"
    },
    {
      "channel": 4,
      "note": 74,
      "start": 93.7156,
      "duration": 0.0831,
      "velocity": 100,
      "chip": "ym2612"
    },
    {
      "channel": 5,
      "note": 74,
      "start": 93.7159,
      "duration": 0.0829,
      "velocity": 100,
      "chip": "ym2612"
    },
    {
      "channel": 3,
      "note": 72,
      "start": 93.832,
      "duration": 0.4331,
      "velocity": 79,
      "chip": "ym2612"
    },
    {
      "channel": 4,
      "note": 72,
      "start": 93.8324,
      "duration": 0.0829,
      "velocity": 100,
      "chip": "ym2612"
    },
    {
      "channel": 5,
      "note": 72,
      "start": 93.8327,
      "duration": 0.0827,
      "velocity": 100,
      "chip": "ym2612"
    },
    {
      "channel": 4,
      "note": 69,
      "start": 93.9488,
      "duration": 0.0832,
      "velocity": 100,
      "chip": "ym2612"
    },
    {
      "channel": 5,
      "note": 69,
      "start": 93.9491,
      "duration": 0.083,
      "velocity": 100,
      "chip": "ym2612"
    },
    {
      "channel": 0,
      "note": 50,
      "start": 94.0651,
      "duration": 1.1331,
      "velocity": 97,
      "chip": "ym2612"
    },
    {
      "channel": 1,
      "note": 74,
      "start": 94.0654,
      "duration": 0.2495,
      "velocity": 79,
      "chip": "ym2612"
    },
    {
      "channel": 4,
      "note": 79,
      "start": 94.066,
      "duration": 0.0826,
      "velocity": 100,
      "chip": "ym2612"
    },
    {
      "channel": 5,
      "note": 79,
      "start": 94.0664,
      "duration": 0.0823,
      "velocity": 100,
      "chip": "ym2612"
    },
    {
      "channel": 2,
      "note": 74,
      "start": 94.1986,
      "duration": 0.2331,
      "velocity": 79,
      "chip": "ym2612"
    },
    {
      "channel": 4,
      "note": 74,
      "start": 94.199,
      "duration": 0.0664,
      "velocity": 100,
      "chip": "ym2612"
    },
    {
      "channel": 5,
      "note": 74,
      "start": 94.1993,
      "duration": 0.0663,
      "velocity": 100,
      "chip": "ym2612"
    },
    {
      "channel": 1,
      "note": 72,
      "start": 94.3151,
      "duration": 0.1998,
      "velocity": 79,
      "chip": "ym2612"
    },
    {
      "channel": 3,
      "note": 74,
      "start": 94.3156,
      "duration": 0.2332,
      "velocity": 79,
      "chip": "ym2612"
    },
    {
      "channel": 4,
      "note": 72,
      "start": 94.3159,
      "duration": 0.0827,
      "velocity": 100,
      "chip": "ym2612"
    },
    {
      "channel": 5,
      "note": 72,
      "start": 94.3162,
      "duration": 0.0826,
      "velocity": 100,
      "chip": "ym2612"
    },
    {
      "channel": 2,
      "note": 72,
      "start": 94.4319,
      "duration": 0.1998,
      "velocity": 79,
      "chip": "ym2612"
    },
    {
      "channel": 4,
      "note": 69,
      "start": 94.4323,
      "duration": 0.0829,
      "velocity": 100,
      "chip": "ym2612"
    },
    {
      "channel": 5,
      "note": 69,
      "start": 94.4326,
      "duration": 0.0828,
      "velocity": 100,
      "chip": "ym2612"
    },
    {
      "channel": 1,
      "note": 74,
      "start": 94.5484,
      "duration": 0.1165,
      "velocity": 79,
      "chip": "ym2612"
    },
    {
      "channel": 3,
      "note": 72,
      "start": 94.5489,
      "duration": 0.1995,
      "velocity": 79,
      "chip": "ym2612"
    },
    {
      "channel": 4,
      "note": 79,
      "start": 94.5492,
      "duration": 0.0827,
      "velocity": 100,
      "chip": "ym2612"
    },
    {
      "channel": 5,
      "note": 79,
      "start": 94.5495,
      "duration": 0.0826,
      "velocity": 100,
      "chip": "ym2612"
    },
    {
      "channel": 2,
      "note": 74,
      "start": 94.6653,
      "duration": 0.1333,
      "velocity": 79,
      "chip": "ym2612"
    },
    {
      "channel": 4,
      "note": 74,
      "start": 94.6656,
      "duration": 0.0829,
      "velocity": 100,
      "chip": "ym2612"
    },
    {
      "channel": 5,
      "note": 74,
      "start": 94.6659,
      "duration": 0.0828,
      "velocity": 100,
      "chip": "ym2612"
    },
    {
      "channel": 1,
      "note": 79,
      "start": 94.7984,
      "duration": 0.1165,
      "velocity": 79,
      "chip": "ym2612"
    },
    {
      "channel": 3,
      "note": 74,
      "start": 94.7989,
      "duration": 0.1165,
      "velocity": 79,
      "chip": "ym2612"
    },
    {
      "channel": 4,
      "note": 72,
      "start": 94.7992,
      "duration": 0.0659,
      "velocity": 100,
      "chip": "ym2612"
    },
    {
      "channel": 5,
      "note": 72,
      "start": 94.7995,
      "duration": 0.0658,
      "velocity": 100,
      "chip": "ym2612"
    },
    {
      "channel": 2,
      "note": 79,
      "start": 94.9153,
      "duration": 0.1166,
      "velocity": 79,
      "chip": "ym2612"
    },
    {
      "channel": 4,
      "note": 69,
      "start": 94.9157,
      "duration": 0.0827,
      "velocity": 100,
      "chip": "ym2612"
    },
    {
      "channel": 5,
      "note": 69,
      "start": 94.9161,
      "duration": 0.0825,
      "velocity": 100,
      "chip": "ym2612"
    },
    {
      "channel": 1,
      "note": 74,
      "start": 95.0318,
      "duration": 1.8832,
      "velocity": 79,
      "chip": "ym2612"
    },
    {
      "channel": 3,
      "note": 79,
      "start": 95.0322,
      "duration": 0.1165,
      "velocity": 79,
      "chip": "ym2612"
    },
    {
      "channel": 4,
      "note": 79,
      "start": 95.0325,
      "duration": 0.0826,
      "velocity": 100,
      "chip": "ym2612"
    },
    {
      "channel": 5,
      "note": 79,
      "start": 95.0329,
      "duration": 0.0824,
      "velocity": 100,
      "chip": "ym2612"
    },
    {
      "channel": 2,
      "note": 74,
      "start": 95.1486,
      "duration": 1.8832,
      "velocity": 79,
      "chip": "ym2612"
    },
    {
      "channel": 4,
      "note": 74,
      "start": 95.1491,
      "duration": 0.0828,
      "velocity": 100,
      "chip": "ym2612"
    },
    {
      "channel": 5,
      "note": 74,
      "start": 95.1494,
      "duration": 0.0827,
      "velocity": 100,
      "chip": "ym2612"
    },
    {
      "channel": 3,
      "note": 74,
      "start": 95.2654,
      "duration": 1.8831,
      "velocity": 79,
      "chip": "ym2612"
    },
    {
      "channel": 4,
      "note": 72,
      "start": 95.2657,
      "duration": 0.0829,
      "velocity": 100,
      "chip": "ym2612"
    },
    {
      "channel": 5,
      "note": 72,
      "start": 95.2661,
      "duration": 0.0827,
      "velocity": 100,
      "chip": "ym2612"
    },
    {
      "channel": 4,
      "note": 69,
      "start": 95.3988,
      "duration": 0.0665,
      "velocity": 100,
      "chip": "ym2612"
    },
    {
      "channel": 5,
      "note": 69,
      "start": 95.3991,
      "duration": 0.0663,
      "velocity": 100,
      "chip": "ym2612"
    },
    {
      "channel": 0,
      "note": 50,
      "start": 95.5151,
      "duration": 0.1165,
      "velocity": 97,
      "chip": "ym2612"
    },
    {
      "channel": 4,
      "note": 79,
      "start": 95.5157,
      "duration": 0.0829,
      "velocity": 100,
      "chip": "ym2612"
    },
    {
      "channel": 5,
      "note": 79,
      "start": 95.5161,
      "duration": 0.0827,
      "velocity": 100,
      "chip": "ym2612"
    },
    {
      "channel": 4,
      "note": 74,
      "start": 95.6323,
      "duration": 0.0829,
      "velocity": 100,
      "chip": "ym2612"
    },
    {
      "channel": 5,
      "note": 74,
      "start": 95.6326,
      "duration": 0.0828,
      "velocity": 100,
      "chip": "ym2612"
    },
    {
      "channel": 0,
      "note": 50,
      "start": 95.7484,
      "duration": 0.1665,
      "velocity": 97,
      "chip": "ym2612"
    },
    {
      "channel": 4,
      "note": 72,
      "start": 95.749,
      "duration": 0.0829,
      "velocity": 100,
      "chip": "ym2612"
    },
    {
      "channel": 5,
      "note": 72,
      "start": 95.7494,
      "duration": 0.0827,
      "velocity": 100,
      "chip": "ym2612"
    },
    {
      "channel": 4,
      "note": 69,
      "start": 95.8654,
      "duration": 0.0832,
      "velocity": 100,
      "chip": "ym2612"
    },
    {
      "channel": 5,
      "note": 69,
      "start": 95.8657,
      "duration": 0.083,
      "velocity": 100,
      "chip": "ym2612"
    },
    {
      "channel": 4,
      "note": 79,
      "start": 95.9989,
      "duration": 0.0663,
      "velocity": 100,
      "chip": "ym2612"
    },
    {
      "channel": 5,
      "note": 79,
      "start": 95.9992,
      "duration": 0.0662,
      "velocity": 100,
      "chip": "ym2612"
    },
    {
      "channel": 4,
      "note": 74,
      "start": 96.1154,
      "duration": 0.0832,
      "velocity": 100,
      "chip": "ym2612"
    },
    {
      "channel": 5,
      "note": 74,
      "start": 96.1157,
      "duration": 0.083,
      "velocity": 100,
      "chip": "ym2612"
    },
    {
      "channel": 4,
      "note": 72,
      "start": 96.2322,
      "duration": 0.083,
      "velocity": 100,
      "chip": "ym2612"
    },
    {
      "channel": 5,
      "note": 72,
      "start": 96.2325,
      "duration": 0.0829,
      "velocity": 100,
      "chip": "ym2612"
    },
    {
      "channel": 4,
      "note": 69,
      "start": 96.3488,
      "duration": 0.0832,
      "velocity": 100,
      "chip": "ym2612"
    },
    {
      "channel": 5,
      "note": 69,
      "start": 96.3491,
      "duration": 0.083,
      "velocity": 100,
      "chip": "ym2612"
    },
    {
      "channel": 4,
      "note": 79,
      "start": 96.4654,
      "duration": 0.0832,
      "velocity": 100,
      "chip": "ym2612"
    },
    {
      "channel": 5,
      "note": 79,
      "start": 96.4657,
      "duration": 0.083,
      "velocity": 100,
      "chip": "ym2612"
    },
    {
      "channel": 4,
      "note": 74,
      "start": 96.5988,
      "duration": 0.0665,
      "velocity": 100,
      "chip": "ym2612"
    },
    {
      "channel": 5,
      "note": 74,
      "start": 96.5991,
      "duration": 0.0663,
      "velocity": 100,
      "chip": "ym2612"
    },
    {
      "channel": 4,
      "note": 72,
      "start": 96.7154,
      "duration": 0.0832,
      "velocity": 100,
      "chip": "ym2612"
    },
    {
      "channel": 5,
      "note": 72,
      "start": 96.7157,
      "duration": 0.083,
      "velocity": 100,
      "chip": "ym2612"
    },
    {
      "channel": 4,
      "note": 69,
      "start": 96.8321,
      "duration": 0.0832,
      "velocity": 100,
      "chip": "ym2612"
    },
    {
      "channel": 5,
      "note": 69,
      "start": 96.8325,
      "duration": 0.0829,
      "velocity": 100,
      "chip": "ym2612"
    },
    {
      "channel": 0,
      "note": 48,
      "start": 96.9484,
      "duration": 0.9165,
      "velocity": 97,
      "chip": "ym2612"
    },
    {
      "channel": 1,
      "note": 69,
      "start": 96.9487,
      "duration": 0.4829,
      "velocity": 79,
      "chip": "ym2612"
    },
    {
      "channel": 4,
      "note": 79,
      "start": 96.9492,
      "duration": 0.0827,
      "velocity": 100,
      "chip": "ym2612"
    },
    {
      "channel": 5,
      "note": 79,
      "start": 96.9495,
      "duration": 0.0826,
      "velocity": 100,
      "chip": "ym2612"
    },
    {
      "channel": 2,
      "note": 69,
      "start": 97.0653,
      "duration": 0.4831,
      "velocity": 79,
      "chip": "ym2612"
    },
    {
      "channel": 4,
      "note": 74,
      "start": 97.0656,
      "duration": 0.0831,
      "velocity": 100,
      "chip": "ym2612"
    },
    {
      "channel": 5,
      "note": 74,
      "start": 97.0659,
      "duration": 0.0829,
      "velocity": 100,
      "chip": "ym2612"
    },
    {
      "channel": 3,
      "note": 69,
      "start": 97.1987,
      "duration": 0.4665,
      "velocity": 79,
      "chip": "ym2612"
    },
    {
      "channel": 4,
      "note": 72,
      "start": 97.199,
      "duration": 0.0662,
      "velocity": 100,
      "chip": "ym2612"
    },
    {
      "channel": 5,
      "note": 72,
      "start": 97.1994,
      "duration": 0.066,
      "velocity": 100,
      "chip": "ym2612"
    },
    {
      "channel": 4,
      "note": 69,
      "start": 97.3154,
      "duration": 0.0832,
      "velocity": 100,
      "chip": "ym2612"
    },
    {
      "channel": 5,
      "note": 69,
      "start": 97.3157,
      "duration": 0.083,
      "velocity": 100,
      "chip": "ym2612"
    },
    {
      "channel": 1,
      "note": 72,
      "start": 97.4318,
      "duration": 0.4834,
      "velocity": 79,
      "chip": "ym2612"
    },
    {
      "channel": 4,
      "note": 79,
      "start": 97.4323,
      "duration": 0.0829,
      "velocity": 100,
      "chip": "ym2612"
    },
    {
      "channel": 5,
      "note": 79,
      "start": 97.4326,
      "duration": 0.0828,
      "velocity": 100,
      "chip": "ym2612"
    },
    {
      "channel": 2,
      "note": 72,
      "start": 97.5486,
      "duration": 0.4831,
      "velocity": 79,
      "chip": "ym2612"
    },
    {
      "channel": 4,
      "note": 74,
      "start": 97.549,
      "duration": 0.0829,
      "velocity": 100,
      "chip": "ym2612"
    },
    {
      "channel": 5,
      "note": 74,
      "start": 97.5493,
      "duration": 0.0828,
      "velocity": 100,
      "chip": "ym2612"
    },
    {
      "channel": 3,
      "note": 72,
      "start": 97.6654,
      "duration": 0.4833,
      "velocity": 79,
      "chip": "ym2612"
    },
    {
      "channel": 4,
      "note": 72,
      "start": 97.6657,
      "duration": 0.0829,
      "velocity": 100,
      "chip": "ym2612"
    },
    {
      "channel": 5,
      "note": 72,
      "start": 97.6661,
      "duration": 0.0827,
      "velocity": 100,
      "chip": "ym2612"
    },
    {
      "channel": 4,
      "note": 69,
      "start": 97.7988,
      "duration": 0.0666,
      "velocity": 100,
      "chip": "ym2612"
    },
    {
      "channel": 5,
      "note": 69,
      "start": 97.7991,
      "duration": 0.0665,
      "velocity": 100,
      "chip": "ym2612"
    },
    {
      "channel": 0,
      "note": 50,
      "start": 97.9151,
      "duration": 1.1165,
      "velocity": 97,
      "chip": "ym2612"
    },
    {
      "channel": 1,
      "note": 74,
      "start": 97.9154,
      "duration": 0.1995,
      "velocity": 79,
      "chip": "ym2612"
    },
    {
      "channel": 4,
      "note": 79,
      "start": 97.916,
      "duration": 0.0826,
      "velocity": 100,
      "chip": "ym2612"
    },
    {
      "channel": 5,
      "note": 79,
      "start": 97.9164,
      "duration": 0.0823,
      "velocity": 100,
      "chip": "ym2612"
    },
    {
      "channel": 2,
      "note": 74,
      "start": 98.032,
      "duration": 0.1998,
      "velocity": 79,
      "chip": "ym2612"
    },
    {
      "channel": 4,
      "note": 74,
      "start": 98.0323,
      "duration": 0.0829,
      "velocity": 100,
      "chip": "ym2612"
    },
    {
      "channel": 5,
      "note": 74,
      "start": 98.0326,
      "duration": 0.0828,
      "velocity": 100,
      "chip": "ym2612"
    },
    {
      "channel": 1,
      "note": 72,
      "start": 98.1484,
      "duration": 0.1998,
      "velocity": 79,
      "chip": "ym2612"
    },
    {
      "channel": 3,
      "note": 74,
      "start": 98.1489,
      "duration": 0.1997,
      "velocity": 79,
      "chip": "ym2612"
    },
    {
      "channel": 4,
      "note": 72,
      "start": 98.1492,
      "duration": 0.0827,
      "velocity": 100,
      "chip": "ym2612"
    },
    {
      "channel": 5,
      "note": 72,
      "start": 98.1495,
      "duration": 0.0826,
      "velocity": 100,
      "chip": "ym2612"
    },
    {
      "channel": 2,
      "note": 72,
      "start": 98.2652,
      "duration": 0.1998,
      "velocity": 79,
      "chip": "ym2612"
    },
    {
      "channel": 4,
      "note": 69,
      "start": 98.2656,
      "duration": 0.0831,
      "velocity": 100,
      "chip": "ym2612"
    },
    {
      "channel": 5,
      "note": 69,
      "start": 98.2659,
      "duration": 0.0829,
      "velocity": 100,
      "chip": "ym2612"
    },
    {
      "channel": 1,
      "note": 74,
      "start": 98.3984,
      "duration": 0.1165,
      "velocity": 79,
      "chip": "ym2612"
    },
    {
      "channel": 3,
      "note": 72,
      "start": 98.3989,
      "duration": 0.1995,
      "velocity": 79,
      "chip": "ym2612"
    },
    {
      "channel": 4,
      "note": 79,
      "start": 98.3992,
      "duration": 0.066,
      "velocity": 100,
      "chip": "ym2612"
    },
    {
      "channel": 5,
      "note": 79,
      "start": 98.3995,
      "duration": 0.0659,
      "velocity": 100,
      "chip": "ym2612"
    },
    {
      "channel": 2,
      "note": 74,
      "start": 98.5153,
      "duration": 0.1166,
      "velocity": 79,
      "chip": "ym2612"
    },
    {
      "channel": 4,
      "note": 74,
      "start": 98.5156,
      "duration": 0.0829,
      "velocity": 100,
      "chip": "ym2612"
    },
    {
      "channel": 5,
      "note": 74,
      "start": 98.5159,
      "duration": 0.0828,
      "velocity": 100,
      "chip": "ym2612"
    },
    {
      "channel": 1,
      "note": 79,
      "start": 98.6318,
      "duration": 0.1165,
      "velocity": 79,
      "chip": "ym2612"
    },
    {
      "channel": 3,
      "note": 74,
      "start": 98.6322,
      "duration": 0.1165,
      "velocity": 79,
      "chip": "ym2612"
    },
    {
      "channel": 4,
      "note": 72,
      "start": 98.6325,
      "duration": 0.0826,
      "velocity": 100,
      "chip": "ym2612"
    },
    {
      "channel": 5,
      "note": 72,
      "start": 98.6329,
      "duration": 0.0824,
      "velocity": 100,
      "chip": "ym2612"
    },
    {
      "channel": 2,
      "note": 79,
      "start": 98.7486,
      "duration": 0.1166,
      "velocity": 79,
      "chip": "ym2612"
    },
    {
      "channel": 4,
      "note": 69,
      "start": 98.7491,
      "duration": 0.0826,
      "velocity": 100,
      "chip": "ym2612"
    },
    {
      "channel": 5,
      "note": 69,
      "start": 98.7495,
      "duration": 0.0825,
      "velocity": 100,
      "chip": "ym2612"
    },
    {
      "channel": 1,
      "note": 74,
      "start": 98.8651,
      "duration": 1.4501,
      "velocity": 79,
      "chip": "ym2612"
    },
    {
      "channel": 3,
      "note": 79,
      "start": 98.8656,
      "duration": 0.1332,
      "velocity": 79,
      "chip": "ym2612"
    },
    {
      "channel": 4,
      "note": 79,
      "start": 98.8659,
      "duration": 0.0826,
      "velocity": 100,
      "chip": "ym2612"
    },
    {
      "channel": 5,
      "note": 79,
      "start": 98.8662,
      "duration": 0.0824,
      "velocity": 100,
      "chip": "ym2612"
    },
    {
      "channel": 2,
      "note": 74,
      "start": 98.9986,
      "duration": 1.4331,
      "velocity": 79,
      "chip": "ym2612"
    },
    {
      "channel": 4,
      "note": 74,
      "start": 98.9991,
      "duration": 0.0662,
      "velocity": 100,
      "chip": "ym2612"
    },
    {
      "channel": 5,
      "note": 74,
      "start": 98.9994,
      "duration": 0.066,
      "velocity": 100,
      "chip": "ym2612"
    },
    {
      "channel": 3,
      "note": 74,
      "start": 99.1154,
      "duration": 1.4331,
      "velocity": 79,
      "chip": "ym2612"
    },
    {
      "channel": 4,
      "note": 72,
      "start": 99.1157,
      "duration": 0.0829,
      "velocity": 100,
      "chip": "ym2612"
    },
    {
      "channel": 5,
      "note": 72,
      "start": 99.116,
      "duration": 0.0827,
      "velocity": 100,
      "chip": "ym2612"
    },
    {
      "channel": 4,
      "note": 69,
      "start": 99.2321,
      "duration": 0.0832,
      "velocity": 100,
      "chip": "ym2612"
    },
    {
      "channel": 5,
      "note": 69,
      "start": 99.2325,
      "duration": 0.0829,
      "velocity": 100,
      "chip": "ym2612"
    },
    {
      "channel": 0,
      "note": 50,
      "start": 99.3484,
      "duration": 0.1665,
      "velocity": 97,
      "chip": "ym2612"
    },
    {
      "channel": 4,
      "note": 79,
      "start": 99.349,
      "duration": 0.0829,
      "velocity": 100,
      "chip": "ym2612"
    },
    {
      "channel": 5,
      "note": 79,
      "start": 99.3494,
      "duration": 0.0827,
      "velocity": 100,
      "chip": "ym2612"
    },
    {
      "channel": 4,
      "note": 74,
      "start": 99.4654,
      "duration": 0.0832,
      "velocity": 100,
      "chip": "ym2612"
    },
    {
      "channel": 5,
      "note": 74,
      "start": 99.4657,
      "duration": 0.083,
      "velocity": 100,
      "chip": "ym2612"
    },
    {
      "channel": 0,
      "note": 50,
      "start": 99.5984,
      "duration": 0.7165,
      "velocity": 97,
      "chip": "ym2612"
    },
    {
      "channel": 4,
      "note": 72,
      "start": 99.599,
      "duration": 0.0662,
      "velocity": 100,
      "chip": "ym2612"
    },
    {
      "channel": 5,
      "note": 72,
      "start": 99.5994,
      "duration": 0.066,
      "velocity": 100,
      "chip": "ym2612"
    },
    {
      "channel": 4,
      "note": 69,
      "start": 99.7154,
      "duration": 0.0832,
      "velocity": 100,
      "chip": "ym2612"
    },
    {
      "channel": 5,
      "note": 69,
      "start": 99.7157,
      "duration": 0.083,
      "velocity": 100,
      "chip": "ym2612"
    },
    {
      "channel": 4,
      "note": 79,
      "start": 99.8321,
      "duration": 0.0832,
      "velocity": 100,
      "chip": "ym2612"
    },
    {
      "channel": 5,
      "note": 79,
      "start": 99.8324,
      "duration": 0.083,
      "velocity": 100,
      "chip": "ym2612"
    },
    {
      "channel": 4,
      "note": 74,
      "start": 99.9488,
      "duration": 0.0832,
      "velocity": 100,
      "chip": "ym2612"
    },
    {
      "channel": 5,
      "note": 74,
      "start": 99.9491,
      "duration": 0.083,
      "velocity": 100,
      "chip": "ym2612"
    },
    {
      "channel": 4,
      "note": 72,
      "start": 100.0655,
      "duration": 0.0831,
      "velocity": 100,
      "chip": "ym2612"
    },
    {
      "channel": 5,
      "note": 72,
      "start": 100.0658,
      "duration": 0.0829,
      "velocity": 100,
      "chip": "ym2612"
    },
    {
      "channel": 4,
      "note": 69,
      "start": 100.1988,
      "duration": 0.0665,
      "velocity": 100,
      "chip": "ym2612"
    },
    {
      "channel": 5,
      "note": 69,
      "start": 100.1991,
      "duration": 0.0663,
      "velocity": 100,
      "chip": "ym2612"
    },
    {
      "channel": 0,
      "note": 52,
      "start": 100.3151,
      "duration": 0.4831,
      "velocity": 97,
      "chip": "ym2612"
    },
    {
      "channel": 1,
      "note": 76,
      "start": 100.3154,
      "duration": 0.4329,
      "velocity": 79,
      "chip": "ym2612"
    },
    {
      "channel": 4,
      "note": 79,
      "start": 100.3159,
      "duration": 0.0827,
      "velocity": 100,
      "chip": "ym2612"
    },
    {
      "channel": 5,
      "note": 79,
      "start": 100.3162,
      "duration": 0.0826,
      "velocity": 100,
      "chip": "ym2612"
    },
    {
      "channel": 2,
      "note": 76,
      "start": 100.4319,
      "duration": 0.4332,
      "velocity": 79,
      "chip": "ym2612"
    },
    {
      "channel": 4,
      "note": 74,
      "start": 100.4323,
      "duration": 0.0829,
      "velocity": 100,
      "chip": "ym2612"
    },
    {
      "channel": 5,
      "note": 74,
      "start": 100.4326,
      "duration": 0.0828,
      "velocity": 100,
      "chip": "ym2612"
    },
    {
      "channel": 3,
      "note": 76,
      "start": 100.5487,
      "duration": 0.4498,
      "velocity": 79,
      "chip": "ym2612"
    },
    {
      "channel": 4,
      "note": 72,
      "start": 100.549,
      "duration": 0.0829,
      "velocity": 100,
      "chip": "ym2612"
    },
    {
      "channel": 5,
      "note": 72,
      "start": 100.5494,
      "duration": 0.0827,
      "velocity": 100,
      "chip": "ym2612"
    },
    {
      "channel": 4,
      "note": 69,
      "start": 100.6654,
      "duration": 0.0832,
      "velocity": 100,
      "chip": "ym2612"
    },
    {
      "channel": 5,
      "note": 69,
      "start": 100.6658,
      "duration": 0.0829,
      "velocity": 100,
      "chip": "ym2612"
    },
    {
      "channel": 0,
      "note": 57,
      "start": 100.7984,
      "duration": 0.4331,
      "velocity": 97,
      "chip": "ym2612"
    },
    {
      "channel": 1,
      "note": 77,
      "start": 100.7987,
      "duration": 0.433,
      "velocity": 79,
      "chip": "ym2612"
    },
    {
      "channel": 4,
      "note": 79,
      "start": 100.7992,
      "duration": 0.066,
      "velocity": 100,
      "chip": "ym2612"
    },
    {
      "channel": 5,
      "note": 79,
      "start": 100.7995,
      "duration": 0.0659,
      "velocity": 100,
      "chip": "ym2612"
    },
    {
      "channel": 2,
      "note": 77,
      "start": 100.9152,
      "duration": 0.4332,
      "velocity": 79,
      "chip": "ym2612"
    },
    {
      "channel": 4,
      "note": 74,
      "start": 100.9156,
      "duration": 0.0831,
      "velocity": 100,
      "chip": "ym2612"
    },
    {
      "channel": 5,
      "note": 74,
      "start": 100.9159,
      "duration": 0.0829,
      "velocity": 100,
      "chip": "ym2612"
    },
    {
      "channel": 3,
      "note": 77,
      "start": 101.032,
      "duration": 0.4331,
      "velocity": 79,
      "chip": "ym2612"
    },
    {
      "channel": 4,
      "note": 72,
      "start": 101.0324,
      "duration": 0.0829,
      "velocity": 100,
      "chip": "ym2612"
    },
    {
      "channel": 5,
      "note": 72,
      "start": 101.0327,
      "duration": 0.0827,
      "velocity": 100,
      "chip": "ym2612"
    },
    {
      "channel": 4,
      "note": 69,
      "start": 101.1488,
      "duration": 0.0833,
      "velocity": 100,
      "chip": "ym2612"
    },
    {
      "channel": 5,
      "note": 69,
      "start": 101.1491,
      "duration": 0.0832,
      "velocity": 100,
      "chip": "ym2612"
    },
    {
      "channel": 0,
      "note": 55,
      "start": 101.2651,
      "duration": 0.3331,
      "velocity": 97,
      "chip": "ym2612"
    },
    {
      "channel": 1,
      "note": 79,
      "start": 101.2654,
      "duration": 0.2495,
      "velocity": 79,
      "chip": "ym2612"
    },
    {
      "channel": 4,
      "note": 79,
      "start": 101.2659,
      "duration": 0.0827,
      "velocity": 100,
      "chip": "ym2612"
    },
    {
      "channel": 5,
      "note": 79,
      "start": 101.2662,
      "duration": 0.0826,
      "velocity": 100,
      "chip": "ym2612"
    },
    {
      "channel": 2,
      "note": 79,
      "start": 101.3986,
      "duration": 0.233,
      "velocity": 79,
      "chip": "ym2612"
    },
    {
      "channel": 4,
      "note": 74,
      "start": 101.399,
      "duration": 0.0664,
      "velocity": 100,
      "chip": "ym2612"
    },
    {
      "channel": 5,
      "note": 74,
      "start": 101.3993,
      "duration": 0.0663,
      "velocity": 100,
      "chip": "ym2612"
    },
    {
      "channel": 3,
      "note": 79,
      "start": 101.5154,
      "duration": 0.2335,
      "velocity": 79,
      "chip": "ym2612"
    },
    {
      "channel": 4,
      "note": 72,
      "start": 101.5157,
      "duration": 0.0828,
      "velocity": 100,
      "chip": "ym2612"
    },
    {
      "channel": 5,
      "note": 72,
      "start": 101.5161,
      "duration": 0.0827,
      "velocity": 100,
      "chip": "ym2612"
    },
    {
      "channel": 4,
      "note": 69,
      "start": 101.632,
      "duration": 0.0829,
      "velocity": 100,
      "chip": "ym2612"
    },
    {
      "channel": 5,
      "note": 69,
      "start": 101.6324,
      "duration": 0.0828,
      "velocity": 100,
      "chip": "ym2612"
    },
    {
      "channel": 0,
      "note": 50,
      "start": 101.7484,
      "duration": 0.9664,
      "velocity": 97,
      "chip": "ym2612"
    },
    {
      "channel": 1,
      "note": 74,
      "start": 101.7488,
      "duration": 0.1995,
      "velocity": 79,
      "chip": "ym2612"
    },
    {
      "channel": 4,
      "note": 79,
      "start": 101.7495,
      "duration": 0.0823,
      "velocity": 100,
      "chip": "ym2612"
    },
    {
      "channel": 5,
      "note": 79,
      "start": 101.7499,
      "duration": 0.0821,
      "velocity": 100,
      "chip": "ym2612"
    },
    {
      "channel": 2,
      "note": 74,
      "start": 101.8653,
      "duration": 0.1998,
      "velocity": 79,
      "chip": "ym2612"
    },
    {
      "channel": 4,
      "note": 74,
      "start": 101.8657,
      "duration": 0.0829,
      "velocity": 100,
      "chip": "ym2612"
    },
    {
      "channel": 5,
      "note": 74,
      "start": 101.866,
      "duration": 0.0827,
      "velocity": 100,
      "chip": "ym2612"
    },
    {
      "channel": 1,
      "note": 72,
      "start": 101.9984,
      "duration": 0.1998,
      "velocity": 79,
      "chip": "ym2612"
    },
    {
      "channel": 3,
      "note": 74,
      "start": 101.999,
      "duration": 0.1996,
      "velocity": 79,
      "chip": "ym2612"
    },
    {
      "channel": 4,
      "note": 72,
      "start": 101.9993,
      "duration": 0.066,
      "velocity": 100,
      "chip": "ym2612"
    },
    {
      "channel": 5,
      "note": 72,
      "start": 101.9996,
      "duration": 0.0658,
      "velocity": 100,
      "chip": "ym2612"
    },
    {
      "channel": 2,
      "note": 72,
      "start": 102.1152,
      "duration": 0.1998,
      "velocity": 79,
      "chip": "ym2612"
    },
    {
      "channel": 4,
      "note": 69,
      "start": 102.1156,
      "duration": 0.0831,
      "velocity": 100,
      "chip": "ym2612"
    },
    {
      "channel": 5,
      "note": 69,
      "start": 102.1159,
      "duration": 0.0829,
      "velocity": 100,
      "chip": "ym2612"
    },
    {
      "channel": 1,
      "note": 74,
      "start": 102.2318,
      "duration": 0.1165,
      "velocity": 79,
      "chip": "ym2612"
    },
    {
      "channel": 3,
      "note": 72,
      "start": 102.2322,
      "duration": 0.1995,
      "velocity": 79,
      "chip": "ym2612"
    },
    {
      "channel": 4,
      "note": 79,
      "start": 102.2325,
      "duration": 0.0827,
      "velocity": 100,
      "chip": "ym2612"
    },
    {
      "channel": 5,
      "note": 79,
      "start": 102.2329,
      "duration": 0.0826,
      "velocity": 100,
      "chip": "ym2612"
    },
    {
      "channel": 2,
      "note": 74,
      "start": 102.3486,
      "duration": 0.1166,
      "velocity": 79,
      "chip": "ym2612"
    },
    {
      "channel": 4,
      "note": 74,
      "start": 102.349,
      "duration": 0.0829,
      "velocity": 100,
      "chip": "ym2612"
    },
    {
      "channel": 5,
      "note": 74,
      "start": 102.3493,
      "duration": 0.0828,
      "velocity": 100,
      "chip": "ym2612"
    },
    {
      "channel": 1,
      "note": 79,
      "start": 102.4651,
      "duration": 0.1332,
      "velocity": 79,
      "chip": "ym2612"
    },
    {
      "channel": 3,
      "note": 74,
      "start": 102.4656,
      "duration": 0.1332,
      "velocity": 79,
      "chip": "ym2612"
    },
    {
      "channel": 4,
      "note": 72,
      "start": 102.4659,
      "duration": 0.0826,
      "velocity": 100,
      "chip": "ym2612"
    },
    {
      "channel": 5,
      "note": 72,
      "start": 102.4662,
      "duration": 0.0824,
      "velocity": 100,
      "chip": "ym2612"
    },
    {
      "channel": 2,
      "note": 79,
      "start": 102.5986,
      "duration": 0.1167,
      "velocity": 79,
      "chip": "ym2612"
    },
    {
      "channel": 4,
      "note": 69,
      "start": 102.5991,
      "duration": 0.066,
      "velocity": 100,
      "chip": "ym2612"
    },
    {
      "channel": 5,
      "note": 69,
      "start": 102.5995,
      "duration": 0.0659,
      "velocity": 100,
      "chip": "ym2612"
    },
    {
      "channel": 1,
      "note": 74,
      "start": 102.7152,
      "duration": 1.283,
      "velocity": 79,
      "chip": "ym2612"
    },
    {
      "channel": 3,
      "note": 79,
      "start": 102.7157,
      "duration": 0.1163,
      "velocity": 79,
      "chip": "ym2612"
    },
    {
      "channel": 4,
      "note": 79,
      "start": 102.7161,
      "duration": 0.0824,
      "velocity": 100,
      "chip": "ym2612"
    },
    {
      "channel": 5,
      "note": 79,
      "start": 102.7164,
      "duration": 0.0823,
      "velocity": 100,
      "chip": "ym2612"
    },
    {
      "channel": 2,
      "note": 74,
      "start": 102.832,
      "duration": 1.2829,
      "velocity": 79,
      "chip": "ym2612"
    },
    {
      "channel": 4,
      "note": 74,
      "start": 102.8324,
      "duration": 0.0828,
      "velocity": 100,
      "chip": "ym2612"
    },
    {
      "channel": 5,
      "note": 74,
      "start": 102.8327,
      "duration": 0.0827,
      "velocity": 100,
      "chip": "ym2612"
    },
    {
      "channel": 3,
      "note": 74,
      "start": 102.9487,
      "duration": 1.2829,
      "velocity": 79,
      "chip": "ym2612"
    },
    {
      "channel": 4,
      "note": 72,
      "start": 102.949,
      "duration": 0.0829,
      "velocity": 100,
      "chip": "ym2612"
    },
    {
      "channel": 5,
      "note": 72,
      "start": 102.9494,
      "duration": 0.0827,
      "velocity": 100,
      "chip": "ym2612"
    },
    {
      "channel": 4,
      "note": 69,
      "start": 103.0654,
      "duration": 0.0832,
      "velocity": 100,
      "chip": "ym2612"
    },
    {
      "channel": 5,
      "note": 69,
      "start": 103.0657,
      "duration": 0.083,
      "velocity": 100,
      "chip": "ym2612"
    },
    {
      "channel": 0,
      "note": 50,
      "start": 103.1984,
      "duration": 0.1498,
      "velocity": 97,
      "chip": "ym2612"
    },
    {
      "channel": 4,
      "note": 79,
      "start": 103.199,
      "duration": 0.0662,
      "velocity": 100,
      "chip": "ym2612"
    },
    {
      "channel": 5,
      "note": 79,
      "start": 103.1994,
      "duration": 0.066,
      "velocity": 100,
      "chip": "ym2612"
    },
    {
      "channel": 4,
      "note": 74,
      "start": 103.3154,
      "duration": 0.0832,
      "velocity": 100,
      "chip": "ym2612"
    },
    {
      "channel": 5,
      "note": 74,
      "start": 103.3157,
      "duration": 0.083,
      "velocity": 100,
      "chip": "ym2612"
    },
    {
      "channel": 0,
      "note": 50,
      "start": 103.4317,
      "duration": 0.1665,
      "velocity": 97,
      "chip": "ym2612"
    },
    {
      "channel": 4,
      "note": 72,
      "start": 103.4324,
      "duration": 0.0829,
      "velocity": 100,
      "chip": "ym2612"
    },
    {
      "channel": 5,
      "note": 72,
      "start": 103.4327,
      "duration": 0.0827,
      "velocity": 100,
      "chip": "ym2612"
    },
    {
      "channel": 4,
      "note": 69,
      "start": 103.5488,
      "duration": 0.0832,
      "velocity": 100,
      "chip": "ym2612"
    },
    {
      "channel": 5,
      "note": 69,
      "start": 103.5491,
      "duration": 0.083,
      "velocity": 100,
      "chip": "ym2612"
    },
    {
      "channel": 4,
      "note": 79,
      "start": 103.6656,
      "duration": 0.083,
      "velocity": 100,
      "chip": "ym2612"
    },
    {
      "channel": 5,
      "note": 79,
      "start": 103.6659,
      "duration": 0.0829,
      "velocity": 100,
      "chip": "ym2612"
    },
    {
      "channel": 4,
      "note": 74,
      "start": 103.7988,
      "duration": 0.0665,
      "velocity": 100,
      "chip": "ym2612"
    },
    {
      "channel": 5,
      "note": 74,
      "start": 103.7991,
      "duration": 0.0663,
      "velocity": 100,
      "chip": "ym2612"
    },
    {
      "channel": 4,
      "note": 72,
      "start": 103.9156,
      "duration": 0.083,
      "velocity": 100,
      "chip": "ym2612"
    },
    {
      "channel": 5,
      "note": 72,
      "start": 103.9159,
      "duration": 0.0829,
      "velocity": 100,
      "chip": "ym2612"
    },
    {
      "channel": 4,
      "note": 69,
      "start": 104.032,
      "duration": 0.0831,
      "velocity": 100,
      "chip": "ym2612"
    },
    {
      "channel": 5,
      "note": 69,
      "start": 104.0324,
      "duration": 0.0829,
      "velocity": 100,
      "chip": "ym2612"
    },
    {
      "channel": 4,
      "note": 79,
      "start": 104.1486,
      "duration": 0.0832,
      "velocity": 100,
      "chip": "ym2612"
    },
    {
      "channel": 5,
      "note": 79,
      "start": 104.1489,
      "duration": 0.0831,
      "velocity": 100,
      "chip": "ym2612"
    },
    {
      "channel": 4,
      "note": 74,
      "start": 104.2652,
      "duration": 0.0831,
      "velocity": 100,
      "chip": "ym2612"
    },
    {
      "channel": 5,
      "note": 74,
      "start": 104.2656,
      "duration": 0.0829,
      "velocity": 100,
      "chip": "ym2612"
    },
    {
      "channel": 4,
      "note": 72,
      "start": 104.3986,
      "duration": 0.0664,
      "velocity": 100,
      "chip": "ym2612"
    },
    {
      "channel": 5,
      "note": 72,
      "start": 104.3989,
      "duration": 0.0663,
      "velocity": 100,
      "chip": "ym2612"
    },
    {
      "channel": 4,
      "note": 69,
      "start": 104.5152,
      "duration": 0.0831,
      "velocity": 100,
      "chip": "ym2612"
    },
    {
      "channel": 5,
      "note": 69,
      "start": 104.5156,
      "duration": 0.0829,
      "velocity": 100,
      "chip": "ym2612"
    },
    {
      "channel": 0,
      "note": 48,
      "start": 104.6317,
      "duration": 0.9665,
      "velocity": 97,
      "chip": "ym2612"
    },
    {
      "channel": 4,
      "note": 79,
      "start": 104.6322,
      "duration": 0.0828,
      "velocity": 100,
      "chip": "ym2612"
    },
    {
      "channel": 5,
      "note": 79,
      "start": 104.6325,
      "duration": 0.0827,
      "velocity": 100,
      "chip": "ym2612"
    },
    {
      "channel": 4,
      "note": 74,
      "start": 104.7486,
      "duration": 0.0831,
      "velocity": 100,
      "chip": "ym2612"
    },
    {
      "channel": 5,
      "note": 74,
      "start": 104.7489,
      "duration": 0.0829,
      "velocity": 100,
      "chip": "ym2612"
    },
    {
      "channel": 4,
      "note": 72,
      "start": 104.8652,
      "duration": 0.0831,
      "velocity": 100,
      "chip": "ym2612"
    },
    {
      "channel": 5,
      "note": 72,
      "start": 104.8656,
      "duration": 0.0829,
      "velocity": 100,
      "chip": "ym2612"
    },
    {
      "channel": 4,
      "note": 69,
      "start": 104.9986,
      "duration": 0.0664,
      "velocity": 100,
      "chip": "ym2612"
    },
    {
      "channel": 5,
      "note": 69,
      "start": 104.9989,
      "duration": 0.0663,
      "velocity": 100,
      "chip": "ym2612"
    },
    {
      "channel": 4,
      "note": 79,
      "start": 105.1152,
      "duration": 0.0831,
      "velocity": 100,
      "chip": "ym2612"
    },
    {
      "channel": 5,
      "note": 79,
      "start": 105.1156,
      "duration": 0.0829,
      "velocity": 100,
      "chip": "ym2612"
    },
    {
      "channel": 4,
      "note": 74,
      "start": 105.2319,
      "duration": 0.0831,
      "velocity": 100,
      "chip": "ym2612"
    },
    {
      "channel": 5,
      "note": 74,
      "start": 105.2322,
      "duration": 0.0829,
      "velocity": 100,
      "chip": "ym2612"
    },
    {
      "channel": 4,
      "note": 72,
      "start": 105.3486,
      "duration": 0.0831,
      "velocity": 100,
      "chip": "ym2612"
    },
    {
      "channel": 5,
      "note": 72,
      "start": 105.3489,
      "duration": 0.0829,
      "velocity": 100,
      "chip": "ym2612"
    },
    {
      "channel": 4,
      "note": 69,
      "start": 105.4652,
      "duration": 0.0831,
      "velocity": 100,
      "chip": "ym2612"
    },
    {
      "channel": 5,
      "note": 69,
      "start": 105.4656,
      "duration": 0.0829,
      "velocity": 100,
      "chip": "ym2612"
    },
    {
      "channel": 0,
      "note": 50,
      "start": 105.5984,
      "duration": 1.0665,
      "velocity": 97,
      "chip": "ym2612"
    },
    {
      "channel": 1,
      "note": 74,
      "start": 105.5987,
      "duration": 0.2329,
      "velocity": 79,
      "chip": "ym2612"
    },
    {
      "channel": 4,
      "note": 79,
      "start": 105.5992,
      "duration": 0.0659,
      "velocity": 100,
      "chip": "ym2612"
    },
    {
      "channel": 5,
      "note": 79,
      "start": 105.5997,
      "duration": 0.0656,
      "velocity": 100,
      "chip": "ym2612"
    },
    {
      "channel": 2,
      "note": 74,
      "start": 105.7152,
      "duration": 0.2332,
      "velocity": 79,
      "chip": "ym2612"
    },
    {
      "channel": 4,
      "note": 74,
      "start": 105.7156,
      "duration": 0.0829,
      "velocity": 100,
      "chip": "ym2612"
    },
    {
      "channel": 5,
      "note": 74,
      "start": 105.7159,
      "duration": 0.0828,
      "velocity": 100,
      "chip": "ym2612"
    },
    {
      "channel": 1,
      "note": 72,
      "start": 105.8318,
      "duration": 0.2332,
      "velocity": 79,
      "chip": "ym2612"
    },
    {
      "channel": 3,
      "note": 74,
      "start": 105.8322,
      "duration": 0.2332,
      "velocity": 79,
      "chip": "ym2612"
    },
    {
      "channel": 4,
      "note": 72,
      "start": 105.8325,
      "duration": 0.0827,
      "velocity": 100,
      "chip": "ym2612"
    },
    {
      "channel": 5,
      "note": 72,
      "start": 105.8329,
      "duration": 0.0826,
      "velocity": 100,
      "chip": "ym2612"
    },
    {
      "channel": 2,
      "note": 72,
      "start": 105.9486,
      "duration": 0.2498,
      "velocity": 79,
      "chip": "ym2612"
    },
    {
      "channel": 4,
      "note": 69,
      "start": 105.949,
      "duration": 0.0829,
      "velocity": 100,
      "chip": "ym2612"
    },
    {
      "channel": 5,
      "note": 69,
      "start": 105.9493,
      "duration": 0.0828,
      "velocity": 100,
      "chip": "ym2612"
    },
    {
      "channel": 1,
      "note": 74,
      "start": 106.0651,
      "duration": 0.1332,
      "velocity": 79,
      "chip": "ym2612"
    },
    {
      "channel": 3,
      "note": 72,
      "start": 106.0656,
      "duration": 0.2498,
      "velocity": 79,
      "chip": "ym2612"
    },
    {
      "channel": 4,
      "note": 79,
      "start": 106.0659,
      "duration": 0.0827,
      "velocity": 100,
      "chip": "ym2612"
    },
    {
      "channel": 5,
      "note": 79,
      "start": 106.0662,
      "duration": 0.0826,
      "velocity": 100,
      "chip": "ym2612"
    },
    {
      "channel": 2,
      "note": 74,
      "start": 106.1986,
      "duration": 0.1166,
      "velocity": 79,
      "chip": "ym2612"
    },
    {
      "channel": 4,
      "note": 74,
      "start": 106.199,
      "duration": 0.0661,
      "velocity": 100,
      "chip": "ym2612"
    },
    {
      "channel": 5,
      "note": 74,
      "start": 106.1993,
      "duration": 0.066,
      "velocity": 100,
      "chip": "ym2612"
    },
    {
      "channel": 1,
      "note": 79,
      "start": 106.3151,
      "duration": 0.1165,
      "velocity": 79,
      "chip": "ym2612"
    },
    {
      "channel": 3,
      "note": 74,
      "start": 106.3156,
      "duration": 0.1165,
      "velocity": 79,
      "chip": "ym2612"
    },
    {
      "channel": 4,
      "note": 72,
      "start": 106.3159,
      "duration": 0.0826,
      "velocity": 100,
      "chip": "ym2612"
    },
    {
      "channel": 5,
      "note": 72,
      "start": 106.3162,
      "duration": 0.0824,
      "velocity": 100,
      "chip": "ym2612"
    },
    {
      "channel": 2,
      "note": 79,
      "start": 106.432,
      "duration": 0.1166,
      "velocity": 79,
      "chip": "ym2612"
    },
    {
      "channel": 4,
      "note": 69,
      "start": 106.4324,
      "duration": 0.0827,
      "velocity": 100,
      "chip": "ym2612"
    },
    {
      "channel": 5,
      "note": 69,
      "start": 106.4328,
      "duration": 0.0825,
      "velocity": 100,
      "chip": "ym2612"
    },
    {
      "channel": 1,
      "note": 74,
      "start": 106.5484,
      "duration": 1.4498,
      "velocity": 79,
      "chip": "ym2612"
    },
    {
      "channel": 3,
      "note": 79,
      "start": 106.5489,
      "duration": 0.1166,
      "velocity": 79,
      "chip": "ym2612"
    },
    {
      "channel": 4,
      "note": 79,
      "start": 106.5492,
      "duration": 0.0826,
      "velocity": 100,
      "chip": "ym2612"
    },
    {
      "channel": 5,
      "note": 79,
      "start": 106.5495,
      "duration": 0.0824,
      "velocity": 100,
      "chip": "ym2612"
    },
    {
      "channel": 2,
      "note": 74,
      "start": 106.6654,
      "duration": 1.4496,
      "velocity": 79,
      "chip": "ym2612"
    },
    {
      "channel": 4,
      "note": 74,
      "start": 106.6659,
      "duration": 0.0827,
      "velocity": 100,
      "chip": "ym2612"
    },
    {
      "channel": 5,
      "note": 74,
      "start": 106.6662,
      "duration": 0.0826,
      "velocity": 100,
      "chip": "ym2612"
    },
    {
      "channel": 3,
      "note": 74,
      "start": 106.7987,
      "duration": 1.4331,
      "velocity": 79,
      "chip": "ym2612"
    },
    {
      "channel": 4,
      "note": 72,
      "start": 106.799,
      "duration": 0.0662,
      "velocity": 100,
      "chip": "ym2612"
    },
    {
      "channel": 5,
      "note": 72,
      "start": 106.7994,
      "duration": 0.066,
      "velocity": 100,
      "chip": "ym2612"
    },
    {
      "channel": 4,
      "note": 69,
      "start": 106.9154,
      "duration": 0.0832,
      "velocity": 100,
      "chip": "ym2612"
    },
    {
      "channel": 5,
      "note": 69,
      "start": 106.9157,
      "duration": 0.083,
      "velocity": 100,
      "chip": "ym2612"
    },
    {
      "channel": 0,
      "note": 50,
      "start": 107.0317,
      "duration": 0.1165,
      "velocity": 97,
      "chip": "ym2612"
    },
    {
      "channel": 4,
      "note": 79,
      "start": 107.0324,
      "duration": 0.0829,
      "velocity": 100,
      "chip": "ym2612"
    },
    {
      "channel": 5,
      "note": 79,
      "start": 107.0327,
      "duration": 0.0827,
      "velocity": 100,
      "chip": "ym2612"
    },
    {
      "channel": 4,
      "note": 74,
      "start": 107.149,
      "duration": 0.0829,
      "velocity": 100,
      "chip": "ym2612"
    },
    {
      "channel": 5,
      "note": 74,
      "start": 107.1493,
      "duration": 0.0828,
      "velocity": 100,
      "chip": "ym2612"
    },
    {
      "channel": 0,
      "note": 50,
      "start": 107.2651,
      "duration": 0.1665,
      "velocity": 97,
      "chip": "ym2612"
    },
    {
      "channel": 4,
      "note": 72,
      "start": 107.2657,
      "duration": 0.0829,
      "velocity": 100,
      "chip": "ym2612"
    },
    {
      "channel": 5,
      "note": 72,
      "start": 107.2661,
      "duration": 0.0827,
      "velocity": 100,
      "chip": "ym2612"
    },
    {
      "channel": 4,
      "note": 69,
      "start": 107.3988,
      "duration": 0.0665,
      "velocity": 100,
      "chip": "ym2612"
    },
    {
      "channel": 5,
      "note": 69,
      "start": 107.3991,
      "duration": 0.0663,
      "velocity": 100,
      "chip": "ym2612"
    },
    {
      "channel": 4,
      "note": 79,
      "start": 107.5156,
      "duration": 0.083,
      "velocity": 100,
      "chip": "ym2612"
    },
    {
      "channel": 5,
      "note": 79,
      "start": 107.5159,
      "duration": 0.0829,
      "velocity": 100,
      "chip": "ym2612"
    },
    {
      "channel": 4,
      "note": 74,
      "start": 107.6321,
      "duration": 0.0832,
      "velocity": 100,
      "chip": "ym2612"
    },
    {
      "channel": 5,
      "note": 74,
      "start": 107.6324,
      "duration": 0.083,
      "velocity": 100,
      "chip": "ym2612"
    },
    {
      "channel": 4,
      "note": 72,
      "start": 107.7489,
      "duration": 0.083,
      "velocity": 100,
      "chip": "ym2612"
    },
    {
      "channel": 5,
      "note": 72,
      "start": 107.7492,
      "duration": 0.0829,
      "velocity": 100,
      "chip": "ym2612"
    },
    {
      "channel": 4,
      "note": 69,
      "start": 107.8654,
      "duration": 0.0832,
      "velocity": 100,
      "chip": "ym2612"
    },
    {
      "channel": 5,
      "note": 69,
      "start": 107.8657,
      "duration": 0.083,
      "velocity": 100,
      "chip": "ym2612"
    },
    {
      "channel": 1,
      "note": 81,
      "start": 107.9984,
      "duration": 0.4332,
      "velocity": 79,
      "chip": "ym2612"
    },
    {
      "channel": 4,
      "note": 79,
      "start": 107.999,
      "duration": 0.0663,
      "velocity": 100,
      "chip": "ym2612"
    },
    {
      "channel": 5,
      "note": 79,
      "start": 107.9993,
      "duration": 0.0661,
      "velocity": 100,
      "chip": "ym2612"
    },
    {
      "channel": 2,
      "note": 81,
      "start": 108.1152,
      "duration": 0.4332,
      "velocity": 79,
      "chip": "ym2612"
    },
    {
      "channel": 4,
      "note": 74,
      "start": 108.1156,
      "duration": 0.0829,
      "velocity": 100,
      "chip": "ym2612"
    },
    {
      "channel": 5,
      "note": 74,
      "start": 108.1159,
      "duration": 0.0828,
      "velocity": 100,
      "chip": "ym2612"
    },
    {
      "channel": 3,
      "note": 81,
      "start": 108.232,
      "duration": 0.4331,
      "velocity": 79,
      "chip": "ym2612"
    },
    {
      "channel": 4,
      "note": 72,
      "start": 108.2324,
      "duration": 0.0829,
      "velocity": 100,
      "chip": "ym2612"
    },
    {
      "channel": 5,
      "note": 72,
      "start": 108.2327,
      "duration": 0.0827,
      "velocity": 100,
      "chip": "ym2612"
    },
    {
      "channel": 4,
      "note": 69,
      "start": 108.3488,
      "duration": 0.0832,
      "velocity": 100,
      "chip": "ym2612"
    },
    {
      "channel": 5,
      "note": 69,
      "start": 108.3491,
      "duration": 0.083,
      "velocity": 100,
      "chip": "ym2612"
    },
    {
      "channel": 0,
      "note": 57,
      "start": 108.4651,
      "duration": 0.4498,
      "velocity": 97,
      "chip": "ym2612"
    },
    {
      "channel": 1,
      "note": 79,
      "start": 108.4654,
      "duration": 0.4497,
      "velocity": 79,
      "chip": "ym2612"
    },
    {
      "channel": 4,
      "note": 79,
      "start": 108.4659,
      "duration": 0.0827,
      "velocity": 100,
      "chip": "ym2612"
    },
    {
      "channel": 5,
      "note": 79,
      "start": 108.4662,
      "duration": 0.0826,
      "velocity": 100,
      "chip": "ym2612"
    },
    {
      "channel": 2,
      "note": 79,
      "start": 108.5986,
      "duration": 0.4331,
      "velocity": 79,
      "chip": "ym2612"
    },
    {
      "channel": 4,
      "note": 74,
      "start": 108.599,
      "duration": 0.0664,
      "velocity": 100,
      "chip": "ym2612"
    },
    {
      "channel": 5,
      "note": 74,
      "start": 108.5993,
      "duration": 0.0663,
      "velocity": 100,
      "chip": "ym2612"
    },
    {
      "channel": 3,
      "note": 79,
      "start": 108.7154,
      "duration": 0.4331,
      "velocity": 79,
      "chip": "ym2612"
    },
    {
      "channel": 4,
      "note": 72,
      "start": 108.7157,
      "duration": 0.0829,
      "velocity": 100,
      "chip": "ym2612"
    },
    {
      "channel": 5,
      "note": 72,
      "start": 108.7161,
      "duration": 0.0827,
      "velocity": 100,
      "chip": "ym2612"
    },
    {
      "channel": 4,
      "note": 69,
      "start": 108.8321,
      "duration": 0.0833,
      "velocity": 100,
      "chip": "ym2612"
    },
    {
      "channel": 5,
      "note": 69,
      "start": 108.8324,
      "duration": 0.0832,
      "velocity": 100,
      "chip": "ym2612"
    },
    {
      "channel": 0,
      "note": 55,
      "start": 108.9484,
      "duration": 0.4831,
      "velocity": 97,
      "chip": "ym2612"
    },
    {
      "channel": 1,
      "note": 72,
      "start": 108.9487,
      "duration": 0.4495,
      "velocity": 79,
      "chip": "ym2612"
    },
    {
      "channel": 4,
      "note": 79,
      "start": 108.9492,
      "duration": 0.0827,
      "velocity": 100,
      "chip": "ym2612"
    },
    {
      "channel": 5,
      "note": 79,
      "start": 108.9495,
      "duration": 0.0826,
      "velocity": 100,
      "chip": "ym2612"
    },
    {
      "channel": 2,
      "note": 72,
      "start": 109.0652,
      "duration": 0.4498,
      "velocity": 79,
      "chip": "ym2612"
    },
    {
      "channel": 4,
      "note": 74,
      "start": 109.0656,
      "duration": 0.0831,
      "velocity": 100,
      "chip": "ym2612"
    },
    {
      "channel": 5,
      "note": 74,
      "start": 109.0659,
      "duration": 0.0829,
      "velocity": 100,
      "chip": "ym2612"
    },
    {
      "channel": 3,
      "note": 72,
      "start": 109.1987,
      "duration": 0.4331,
      "velocity": 79,
      "chip": "ym2612"
    },
    {
      "channel": 4,
      "note": 72,
      "start": 109.199,
      "duration": 0.0662,
      "velocity": 100,
      "chip": "ym2612"
    },
    {
      "channel": 5,
      "note": 72,
      "start": 109.1994,
      "duration": 0.066,
      "velocity": 100,
      "chip": "ym2612"
    },
    {
      "channel": 4,
      "note": 69,
      "start": 109.3154,
      "duration": 0.0832,
      "velocity": 100,
      "chip": "ym2612"
    },
    {
      "channel": 5,
      "note": 69,
      "start": 109.3157,
      "duration": 0.083,
      "velocity": 100,
      "chip": "ym2612"
    },
    {
      "channel": 0,
      "note": 50,
      "start": 109.4317,
      "duration": 1.1165,
      "velocity": 97,
      "chip": "ym2612"
    },
    {
      "channel": 1,
      "note": 74,
      "start": 109.432,
      "duration": 0.2329,
      "velocity": 79,
      "chip": "ym2612"
    },
    {
      "channel": 4,
      "note": 79,
      "start": 109.4327,
      "duration": 0.0826,
      "velocity": 100,
      "chip": "ym2612"
    },
    {
      "channel": 5,
      "note": 79,
      "start": 109.4331,
      "duration": 0.0823,
      "velocity": 100,
      "chip": "ym2612"
    },
    {
      "channel": 2,
      "note": 74,
      "start": 109.5486,
      "duration": 0.2498,
      "velocity": 79,
      "chip": "ym2612"
    },
    {
      "channel": 4,
      "note": 74,
      "start": 109.549,
      "duration": 0.0831,
      "velocity": 100,
      "chip": "ym2612"
    },
    {
      "channel": 5,
      "note": 74,
      "start": 109.5493,
      "duration": 0.0829,
      "velocity": 100,
      "chip": "ym2612"
    },
    {
      "channel": 1,
      "note": 72,
      "start": 109.6651,
      "duration": 0.1998,
      "velocity": 79,
      "chip": "ym2612"
    },
    {
      "channel": 3,
      "note": 74,
      "start": 109.6656,
      "duration": 0.2498,
      "velocity": 79,
      "chip": "ym2612"
    },
    {
      "channel": 4,
      "note": 72,
      "start": 109.6659,
      "duration": 0.0827,
      "velocity": 100,
      "chip": "ym2612"
    },
    {
      "channel": 5,
      "note": 72,
      "start": 109.6662,
      "duration": 0.0826,
      "velocity": 100,
      "chip": "ym2612"
    },
    {
      "channel": 2,
      "note": 72,
      "start": 109.7986,
      "duration": 0.1998,
      "velocity": 79,
      "chip": "ym2612"
    },
    {
      "channel": 4,
      "note": 69,
      "start": 109.799,
      "duration": 0.0663,
      "velocity": 100,
      "chip": "ym2612"
    },
    {
      "channel": 5,
      "note": 69,
      "start": 109.7993,
      "duration": 0.0661,
      "velocity": 100,
      "chip": "ym2612"
    },
    {
      "channel": 1,
      "note": 74,
      "start": 109.9151,
      "duration": 0.1165,
      "velocity": 79,
      "chip": "ym2612"
    },
    {
      "channel": 3,
      "note": 72,
      "start": 109.9156,
      "duration": 0.1995,
      "velocity": 79,
      "chip": "ym2612"
    },
    {
      "channel": 4,
      "note": 79,
      "start": 109.9159,
      "duration": 0.0827,
      "velocity": 100,
      "chip": "ym2612"
    },
    {
      "channel": 5,
      "note": 79,
      "start": 109.9162,
      "duration": 0.0826,
      "velocity": 100,
      "chip": "ym2612"
    },
    {
      "channel": 2,
      "note": 74,
      "start": 110.032,
      "duration": 0.1166,
      "velocity": 79,
      "chip": "ym2612"
    },
    {
      "channel": 4,
      "note": 74,
      "start": 110.0323,
      "duration": 0.0829,
      "velocity": 100,
      "chip": "ym2612"
    },
    {
      "channel": 5,
      "note": 74,
      "start": 110.0326,
      "duration": 0.0828,
      "velocity": 100,
      "chip": "ym2612"
    },
    {
      "channel": 1,
      "note": 79,
      "start": 110.1484,
      "duration": 0.1165,
      "velocity": 79,
      "chip": "ym2612"
    },
    {
      "channel": 3,
      "note": 74,
      "start": 110.1489,
      "duration": 0.1165,
      "velocity": 79,
      "chip": "ym2612"
    },
    {
      "channel": 4,
      "note": 72,
      "start": 110.1492,
      "duration": 0.0826,
      "velocity": 100,
      "chip": "ym2612"
    },
    {
      "channel": 5,
      "note": 72,
      "start": 110.1495,
      "duration": 0.0824,
      "velocity": 100,
      "chip": "ym2612"
    },
    {
      "channel": 2,
      "note": 79,
      "start": 110.2653,
      "duration": 0.1333,
      "velocity": 79,
      "chip": "ym2612"
    },
    {
      "channel": 4,
      "note": 69,
      "start": 110.2657,
      "duration": 0.0827,
      "velocity": 100,
      "chip": "ym2612"
    },
    {
      "channel": 5,
      "note": 69,
      "start": 110.2661,
      "duration": 0.0825,
      "velocity": 100,
      "chip": "ym2612"
    },
    {
      "channel": 1,
      "note": 74,
      "start": 110.3984,
      "duration": 1.8665,
      "velocity": 79,
      "chip": "ym2612"
    },
    {
      "channel": 3,
      "note": 79,
      "start": 110.3989,
      "duration": 0.1165,
      "velocity": 79,
      "chip": "ym2612"
    },
    {
      "channel": 4,
      "note": 79,
      "start": 110.3992,
      "duration": 0.0659,
      "velocity": 100,
      "chip": "ym2612"
    },
    {
      "channel": 5,
      "note": 79,
      "start": 110.3995,
      "duration": 0.0658,
      "velocity": 100,
      "chip": "ym2612"
    },
    {
      "channel": 2,
      "note": 74,
      "start": 110.5152,
      "duration": 1.8832,
      "velocity": 79,
      "chip": "ym2612"
    },
    {
      "channel": 4,
      "note": 74,
      "start": 110.5157,
      "duration": 0.0828,
      "velocity": 100,
      "chip": "ym2612"
    },
    {
      "channel": 5,
      "note": 74,
      "start": 110.5161,
      "duration": 0.0827,
      "velocity": 100,
      "chip": "ym2612"
    },
    {
      "channel": 3,
      "note": 74,
      "start": 110.632,
      "duration": 1.8831,
      "velocity": 79,
      "chip": "ym2612"
    },
    {
      "channel": 4,
      "note": 72,
      "start": 110.6324,
      "duration": 0.0829,
      "velocity": 100,
      "chip": "ym2612"
    },
    {
      "channel": 5,
      "note": 72,
      "start": 110.6327,
      "duration": 0.0827,
      "velocity": 100,
      "chip": "ym2612"
    },
    {
      "channel": 4,
      "note": 69,
      "start": 110.7488,
      "duration": 0.0832,
      "velocity": 100,
      "chip": "ym2612"
    },
    {
      "channel": 5,
      "note": 69,
      "start": 110.7491,
      "duration": 0.083,
      "velocity": 100,
      "chip": "ym2612"
    },
    {
      "channel": 0,
      "note": 50,
      "start": 110.8651,
      "duration": 0.1331,
      "velocity": 97,
      "chip": "ym2612"
    },
    {
      "channel": 4,
      "note": 79,
      "start": 110.8657,
      "duration": 0.0829,
      "velocity": 100,
      "chip": "ym2612"
    },
    {
      "channel": 5,
      "note": 79,
      "start": 110.8661,
      "duration": 0.0827,
      "velocity": 100,
      "chip": "ym2612"
    },
    {
      "channel": 4,
      "note": 74,
      "start": 110.999,
      "duration": 0.0663,
      "velocity": 100,
      "chip": "ym2612"
    },
    {
      "channel": 5,
      "note": 74,
      "start": 110.9993,
      "duration": 0.0661,
      "velocity": 100,
      "chip": "ym2612"
    },
    {
      "channel": 0,
      "note": 50,
      "start": 111.1151,
      "duration": 0.1498,
      "velocity": 97,
      "chip": "ym2612"
    },
    {
      "channel": 4,
      "note": 72,
      "start": 111.1157,
      "duration": 0.0829,
      "velocity": 100,
      "chip": "ym2612"
    },
    {
      "channel": 5,
      "note": 72,
      "start": 111.1161,
      "duration": 0.0827,
      "velocity": 100,
      "chip": "ym2612"
    },
    {
      "channel": 4,
      "note": 69,
      "start": 111.2321,
      "duration": 0.0832,
      "velocity": 100,
      "chip": "ym2612"
    },
    {
      "channel": 5,
      "note": 69,
      "start": 111.2324,
      "duration": 0.083,
      "velocity": 100,
      "chip": "ym2612"
    },
    {
      "channel": 4,
      "note": 79,
      "start": 111.3489,
      "duration": 0.083,
      "velocity": 100,
      "chip": "ym2612"
    },
    {
      "channel": 5,
      "note": 79,
      "start": 111.3492,
      "duration": 0.0829,
      "velocity": 100,
      "chip": "ym2612"
    },
    {
      "channel": 4,
      "note": 74,
      "start": 111.4654,
      "duration": 0.0832,
      "velocity": 100,
      "chip": "ym2612"
    },
    {
      "channel": 5,
      "note": 74,
      "start": 111.4657,
      "duration": 0.083,
      "velocity": 100,
      "chip": "ym2612"
    },
    {
      "channel": 4,
      "note": 72,
      "start": 111.5989,
      "duration": 0.0663,
      "velocity": 100,
      "chip": "ym2612"
    },
    {
      "channel": 5,
      "note": 72,
      "start": 111.5992,
      "duration": 0.0662,
      "velocity": 100,
      "chip": "ym2612"
    },
    {
      "channel": 4,
      "note": 69,
      "start": 111.7154,
      "duration": 0.0832,
      "velocity": 100,
      "chip": "ym2612"
    },
    {
      "channel": 5,
      "note": 69,
      "start": 111.7157,
      "duration": 0.083,
      "velocity": 100,
      "chip": "ym2612"
    },
    {
      "channel": 4,
      "note": 79,
      "start": 111.8321,
      "duration": 0.0832,
      "velocity": 100,
      "chip": "ym2612"
    },
    {
      "channel": 5,
      "note": 79,
      "start": 111.8324,
      "duration": 0.083,
      "velocity": 100,
      "chip": "ym2612"
    },
    {
      "channel": 4,
      "note": 74,
      "start": 111.9488,
      "duration": 0.0832,
      "velocity": 100,
      "chip": "ym2612"
    },
    {
      "channel": 5,
      "note": 74,
      "start": 111.9491,
      "duration": 0.083,
      "velocity": 100,
      "chip": "ym2612"
    },
    {
      "channel": 4,
      "note": 72,
      "start": 112.0654,
      "duration": 0.0832,
      "velocity": 100,
      "chip": "ym2612"
    },
    {
      "channel": 5,
      "note": 72,
      "start": 112.0658,
      "duration": 0.0829,
      "velocity": 100,
      "chip": "ym2612"
    },
    {
      "channel": 4,
      "note": 69,
      "start": 112.1988,
      "duration": 0.0665,
      "velocity": 100,
      "chip": "ym2612"
    },
    {
      "channel": 5,
      "note": 69,
      "start": 112.1991,
      "duration": 0.0663,
      "velocity": 100,
      "chip": "ym2612"
    },
    {
      "channel": 0,
      "note": 48,
      "start": 112.3151,
      "duration": 0.9165,
      "velocity": 97,
      "chip": "ym2612"
    },
    {
      "channel": 1,
      "note": 69,
      "start": 112.3154,
      "duration": 0.4829,
      "velocity": 79,
      "chip": "ym2612"
    },
    {
      "channel": 4,
      "note": 79,
      "start": 112.3159,
      "duration": 0.0827,
      "velocity": 100,
      "chip": "ym2612"
    },
    {
      "channel": 5,
      "note": 79,
      "start": 112.3162,
      "duration": 0.0826,
      "velocity": 100,
      "chip": "ym2612"
    },
    {
      "channel": 2,
      "note": 69,
      "start": 112.432,
      "duration": 0.4831,
      "velocity": 79,
      "chip": "ym2612"
    },
    {
      "channel": 4,
      "note": 74,
      "start": 112.4323,
      "duration": 0.0831,
      "velocity": 100,
      "chip": "ym2612"
    },
    {
      "channel": 5,
      "note": 74,
      "start": 112.4326,
      "duration": 0.0829,
      "velocity": 100,
      "chip": "ym2612"
    },
    {
      "channel": 3,
      "note": 69,
      "start": 112.5487,
      "duration": 0.4831,
      "velocity": 79,
      "chip": "ym2612"
    },
    {
      "channel": 4,
      "note": 72,
      "start": 112.549,
      "duration": 0.0829,
      "velocity": 100,
      "chip": "ym2612"
    },
    {
      "channel": 5,
      "note": 72,
      "start": 112.5494,
      "duration": 0.0827,
      "velocity": 100,
      "chip": "ym2612"
    },
    {
      "channel": 4,
      "note": 69,
      "start": 112.6654,
      "duration": 0.0832,
      "velocity": 100,
      "chip": "ym2612"
    },
    {
      "channel": 5,
      "note": 69,
      "start": 112.6658,
      "duration": 0.0829,
      "velocity": 100,
      "chip": "ym2612"
    },
    {
      "channel": 1,
      "note": 72,
      "start": 112.7984,
      "duration": 0.4667,
      "velocity": 79,
      "chip": "ym2612"
    },
    {
      "channel": 4,
      "note": 79,
      "start": 112.799,
      "duration": 0.0663,
      "velocity": 100,
      "chip": "ym2612"
    },
    {
      "channel": 5,
      "note": 79,
      "start": 112.7993,
      "duration": 0.0661,
      "velocity": 100,
      "chip": "ym2612"
    },
    {
      "channel": 2,
      "note": 72,
      "start": 112.9153,
      "duration": 0.4831,
      "velocity": 79,
      "chip": "ym2612"
    },
    {
      "channel": 4,
      "note": 74,
      "start": 112.9156,
      "duration": 0.0829,
      "velocity": 100,
      "chip": "ym2612"
    },
    {
      "channel": 5,
      "note": 74,
      "start": 112.9159,
      "duration": 0.0828,
      "velocity": 100,
      "chip": "ym2612"
    },
    {
      "channel": 3,
      "note": 72,
      "start": 113.032,
      "duration": 0.4833,
      "velocity": 79,
      "chip": "ym2612"
    },
    {
      "channel": 4,
      "note": 72,
      "start": 113.0324,
      "duration": 0.0829,
      "velocity": 100,
      "chip": "ym2612"
    },
    {
      "channel": 5,
      "note": 72,
      "start": 113.0327,
      "duration": 0.0827,
      "velocity": 100,
      "chip": "ym2612"
    },
    {
      "channel": 4,
      "note": 69,
      "start": 113.1488,
      "duration": 0.0833,
      "velocity": 100,
      "chip": "ym2612"
    },
    {
      "channel": 5,
      "note": 69,
      "start": 113.1491,
      "duration": 0.0832,
      "velocity": 100,
      "chip": "ym2612"
    },
    {
      "channel": 0,
      "note": 50,
      "start": 113.2651,
      "duration": 1.1331,
      "velocity": 97,
      "chip": "ym2612"
    },
    {
      "channel": 1,
      "note": 74,
      "start": 113.2654,
      "duration": 0.1995,
      "velocity": 79,
      "chip": "ym2612"
    },
    {
      "channel": 4,
      "note": 79,
      "start": 113.266,
      "duration": 0.0826,
      "velocity": 100,
      "chip": "ym2612"
    },
    {
      "channel": 5,
      "note": 79,
      "start": 113.2664,
      "duration": 0.0823,
      "velocity": 100,
      "chip": "ym2612"
    },
    {
      "channel": 2,
      "note": 74,
      "start": 113.3986,
      "duration": 0.1998,
      "velocity": 79,
      "chip": "ym2612"
    },
    {
      "channel": 4,
      "note": 74,
      "start": 113.399,
      "duration": 0.0663,
      "velocity": 100,
      "chip": "ym2612"
    },
    {
      "channel": 5,
      "note": 74,
      "start": 113.3993,
      "duration": 0.0661,
      "velocity": 100,
      "chip": "ym2612"
    },
    {
      "channel": 1,
      "note": 72,
      "start": 113.5151,
      "duration": 0.1998,
      "velocity": 79,
      "chip": "ym2612"
    },
    {
      "channel": 3,
      "note": 74,
      "start": 113.5156,
      "duration": 0.1997,
      "velocity": 79,
      "chip": "ym2612"
    },
    {
      "channel": 4,
      "note": 72,
      "start": 113.5159,
      "duration": 0.0827,
      "velocity": 100,
      "chip": "ym2612"
    },
    {
      "channel": 5,
      "note": 72,
      "start": 113.5162,
      "duration": 0.0826,
      "velocity": 100,
      "chip": "ym2612"
    },
    {
      "channel": 2,
      "note": 72,
      "start": 113.6319,
      "duration": 0.1998,
      "velocity": 79,
      "chip": "ym2612"
    },
    {
      "channel": 4,
      "note": 69,
      "start": 113.6323,
      "duration": 0.0831,
      "velocity": 100,
      "chip": "ym2612"
    },
    {
      "channel": 5,
      "note": 69,
      "start": 113.6326,
      "duration": 0.0829,
      "velocity": 100,
      "chip": "ym2612"
    },
    {
      "channel": 1,
      "note": 74,
      "start": 113.7484,
      "duration": 0.1165,
      "velocity": 79,
      "chip": "ym2612"
    },
    {
      "channel": 3,
      "note": 72,
      "start": 113.7489,
      "duration": 0.1995,
      "velocity": 79,
      "chip": "ym2612"
    },
    {
      "channel": 4,
      "note": 79,
      "start": 113.7492,
      "duration": 0.0827,
      "velocity": 100,
      "chip": "ym2612"
    },
    {
      "channel": 5,
      "note": 79,
      "start": 113.7495,
      "duration": 0.0826,
      "velocity": 100,
      "chip": "ym2612"
    },
    {
      "channel": 2,
      "note": 74,
      "start": 113.8653,
      "duration": 0.1333,
      "velocity": 79,
      "chip": "ym2612"
    },
    {
      "channel": 4,
      "note": 74,
      "start": 113.8656,
      "duration": 0.0829,
      "velocity": 100,
      "chip": "ym2612"
    },
    {
      "channel": 5,
      "note": 74,
      "start": 113.8659,
      "duration": 0.0828,
      "velocity": 100,
      "chip": "ym2612"
    },
    {
      "channel": 1,
      "note": 79,
      "start": 113.9984,
      "duration": 0.1165,
      "velocity": 79,
      "chip": "ym2612"
    },
    {
      "channel": 3,
      "note": 74,
      "start": 113.9989,
      "duration": 0.1165,
      "velocity": 79,
      "chip": "ym2612"
    },
    {
      "channel": 4,
      "note": 72,
      "start": 113.9992,
      "duration": 0.0659,
      "velocity": 100,
      "chip": "ym2612"
    },
    {
      "channel": 5,
      "note": 72,
      "start": 113.9995,
      "duration": 0.0658,
      "velocity": 100,
      "chip": "ym2612"
    },
    {
      "channel": 2,
      "note": 79,
      "start": 114.1153,
      "duration": 0.1166,
      "velocity": 79,
      "chip": "ym2612"
    },
    {
      "channel": 4,
      "note": 69,
      "start": 114.1157,
      "duration": 0.0827,
      "velocity": 100,
      "chip": "ym2612"
    },
    {
      "channel": 5,
      "note": 69,
      "start": 114.1161,
      "duration": 0.0825,
      "velocity": 100,
      "chip": "ym2612"
    },
    {
      "channel": 1,
      "note": 74,
      "start": 114.2318,
      "duration": 1.4334,
      "velocity": 79,
      "chip": "ym2612"
    },
    {
      "channel": 3,
      "note": 79,
      "start": 114.2322,
      "duration": 0.1165,
      "velocity": 79,
      "chip": "ym2612"
    },
    {
      "channel": 4,
      "note": 79,
      "start": 114.2325,
      "duration": 0.0826,
      "velocity": 100,
      "chip": "ym2612"
    },
    {
      "channel": 5,
      "note": 79,
      "start": 114.2329,
      "duration": 0.0824,
      "velocity": 100,
      "chip": "ym2612"
    },
    {
      "channel": 2,
      "note": 74,
      "start": 114.3486,
      "duration": 1.4498,
      "velocity": 79,
      "chip": "ym2612"
    },
    {
      "channel": 4,
      "note": 74,
      "start": 114.3491,
      "duration": 0.0828,
      "velocity": 100,
      "chip": "ym2612"
    },
    {
      "channel": 5,
      "note": 74,
      "start": 114.3494,
      "duration": 0.0827,
      "velocity": 100,
      "chip": "ym2612"
    },
    {
      "channel": 3,
      "note": 74,
      "start": 114.4654,
      "duration": 1.4498,
      "velocity": 79,
      "chip": "ym2612"
    },
    {
      "channel": 4,
      "note": 72,
      "start": 114.4657,
      "duration": 0.0829,
      "velocity": 100,
      "chip": "ym2612"
    },
    {
      "channel": 5,
      "note": 72,
      "start": 114.4661,
      "duration": 0.0827,
      "velocity": 100,
      "chip": "ym2612"
    },
    {
      "channel": 4,
      "note": 69,
      "start": 114.5988,
      "duration": 0.0665,
      "velocity": 100,
      "chip": "ym2612"
    },
    {
      "channel": 5,
      "note": 69,
      "start": 114.5991,
      "duration": 0.0663,
      "velocity": 100,
      "chip": "ym2612"
    },
    {
      "channel": 0,
      "note": 50,
      "start": 114.7151,
      "duration": 0.1498,
      "velocity": 97,
      "chip": "ym2612"
    },
    {
      "channel": 4,
      "note": 79,
      "start": 114.7157,
      "duration": 0.0829,
      "velocity": 100,
      "chip": "ym2612"
    },
    {
      "channel": 5,
      "note": 79,
      "start": 114.7161,
      "duration": 0.0827,
      "velocity": 100,
      "chip": "ym2612"
    },
    {
      "channel": 4,
      "note": 74,
      "start": 114.8321,
      "duration": 0.0832,
      "velocity": 100,
      "chip": "ym2612"
    },
    {
      "channel": 5,
      "note": 74,
      "start": 114.8324,
      "duration": 0.083,
      "velocity": 100,
      "chip": "ym2612"
    },
    {
      "channel": 0,
      "note": 50,
      "start": 114.9484,
      "duration": 0.7165,
      "velocity": 97,
      "chip": "ym2612"
    },
    {
      "channel": 4,
      "note": 72,
      "start": 114.949,
      "duration": 0.0829,
      "velocity": 100,
      "chip": "ym2612"
    },
    {
      "channel": 5,
      "note": 72,
      "start": 114.9494,
      "duration": 0.0827,
      "velocity": 100,
      "chip": "ym2612"
    },
    {
      "channel": 4,
      "note": 69,
      "start": 115.0654,
      "duration": 0.0832,
      "velocity": 100,
      "chip": "ym2612"
    },
    {
      "channel": 5,
      "note": 69,
      "start": 115.0658,
      "duration": 0.0829,
      "velocity": 100,
      "chip": "ym2612"
    },
    {
      "channel": 4,
      "note": 79,
      "start": 115.1988,
      "duration": 0.0665,
      "velocity": 100,
      "chip": "ym2612"
    },
    {
      "channel": 5,
      "note": 79,
      "start": 115.1991,
      "duration": 0.0663,
      "velocity": 100,
      "chip": "ym2612"
    },
    {
      "channel": 4,
      "note": 74,
      "start": 115.3154,
      "duration": 0.0832,
      "velocity": 100,
      "chip": "ym2612"
    },
    {
      "channel": 5,
      "note": 74,
      "start": 115.3157,
      "duration": 0.083,
      "velocity": 100,
      "chip": "ym2612"
    },
    {
      "channel": 4,
      "note": 72,
      "start": 115.4322,
      "duration": 0.083,
      "velocity": 100,
      "chip": "ym2612"
    },
    {
      "channel": 5,
      "note": 72,
      "start": 115.4325,
      "duration": 0.0829,
      "velocity": 100,
      "chip": "ym2612"
    },
    {
      "channel": 4,
      "note": 69,
      "start": 115.5488,
      "duration": 0.0832,
      "velocity": 100,
      "chip": "ym2612"
    },
    {
      "channel": 5,
      "note": 69,
      "start": 115.5491,
      "duration": 0.083,
      "velocity": 100,
      "chip": "ym2612"
    },
    {
      "channel": 0,
      "note": 52,
      "start": 115.6651,
      "duration": 0.4831,
      "velocity": 97,
      "chip": "ym2612"
    },
    {
      "channel": 1,
      "note": 76,
      "start": 115.6654,
      "duration": 0.4495,
      "velocity": 79,
      "chip": "ym2612"
    },
    {
      "channel": 4,
      "note": 79,
      "start": 115.6659,
      "duration": 0.0827,
      "velocity": 100,
      "chip": "ym2612"
    },
    {
      "channel": 5,
      "note": 79,
      "start": 115.6662,
      "duration": 0.0826,
      "velocity": 100,
      "chip": "ym2612"
    },
    {
      "channel": 2,
      "note": 76,
      "start": 115.7986,
      "duration": 0.4331,
      "velocity": 79,
      "chip": "ym2612"
    },
    {
      "channel": 4,
      "note": 74,
      "start": 115.799,
      "duration": 0.0663,
      "velocity": 100,
      "chip": "ym2612"
    },
    {
      "channel": 5,
      "note": 74,
      "start": 115.7993,
      "duration": 0.0661,
      "velocity": 100,
      "chip": "ym2612"
    },
    {
      "channel": 3,
      "note": 76,
      "start": 115.9154,
      "duration": 0.4331,
      "velocity": 79,
      "chip": "ym2612"
    },
    {
      "channel": 4,
      "note": 72,
      "start": 115.9157,
      "duration": 0.0829,
      "velocity": 100,
      "chip": "ym2612"
    },
    {
      "channel": 5,
      "note": 72,
      "start": 115.9161,
      "duration": 0.0827,
      "velocity": 100,
      "chip": "ym2612"
    },
    {
      "channel": 4,
      "note": 69,
      "start": 116.0321,
      "duration": 0.0832,
      "velocity": 100,
      "chip": "ym2612"
    },
    {
      "channel": 5,
      "note": 69,
      "start": 116.0324,
      "duration": 0.083,
      "velocity": 100,
      "chip": "ym2612"
    },
    {
      "channel": 0,
      "note": 57,
      "start": 116.1484,
      "duration": 0.4498,
      "velocity": 97,
      "chip": "ym2612"
    },
    {
      "channel": 1,
      "note": 77,
      "start": 116.1487,
      "duration": 0.4497,
      "velocity": 79,
      "chip": "ym2612"
    },
    {
      "channel": 4,
      "note": 79,
      "start": 116.1492,
      "duration": 0.0827,
      "velocity": 100,
      "chip": "ym2612"
    },
    {
      "channel": 5,
      "note": 79,
      "start": 116.1495,
      "duration": 0.0826,
      "velocity": 100,
      "chip": "ym2612"
    },
    {
      "channel": 2,
      "note": 77,
      "start": 116.2653,
      "duration": 0.4498,
      "velocity": 79,
      "chip": "ym2612"
    },
    {
      "channel": 4,
      "note": 74,
      "start": 116.2656,
      "duration": 0.0831,
      "velocity": 100,
      "chip": "ym2612"
    },
    {
      "channel": 5,
      "note": 74,
      "start": 116.2659,
      "duration": 0.0829,
      "velocity": 100,
      "chip": "ym2612"
    },
    {
      "channel": 3,
      "note": 77,
      "start": 116.3987,
      "duration": 0.4331,
      "velocity": 79,
      "chip": "ym2612"
    },
    {
      "channel": 4,
      "note": 72,
      "start": 116.399,
      "duration": 0.0662,
      "velocity": 100,
      "chip": "ym2612"
    },
    {
      "channel": 5,
      "note": 72,
      "start": 116.3994,
      "duration": 0.066,
      "velocity": 100,
      "chip": "ym2612"
    },
    {
      "channel": 4,
      "note": 69,
      "start": 116.5154,
      "duration": 0.0833,
      "velocity": 100,
      "chip": "ym2612"
    },
    {
      "channel": 5,
      "note": 69,
      "start": 116.5157,
      "duration": 0.0832,
      "velocity": 100,
      "chip": "ym2612"
    },
    {
      "channel": 0,
      "note": 55,
      "start": 116.6317,
      "duration": 0.3165,
      "velocity": 97,
      "chip": "ym2612"
    },
    {
      "channel": 1,
      "note": 79,
      "start": 116.632,
      "duration": 0.2329,
      "velocity": 79,
      "chip": "ym2612"
    },
    {
      "channel": 4,
      "note": 79,
      "start": 116.6325,
      "duration": 0.0827,
      "velocity": 100,
      "chip": "ym2612"
    },
    {
      "channel": 5,
      "note": 79,
      "start": 116.6329,
      "duration": 0.0826,
      "velocity": 100,
      "chip": "ym2612"
    },
    {
      "channel": 2,
      "note": 79,
      "start": 116.7486,
      "duration": 0.2498,
      "velocity": 79,
      "chip": "ym2612"
    },
    {
      "channel": 4,
      "note": 74,
      "start": 116.749,
      "duration": 0.0831,
      "velocity": 100,
      "chip": "ym2612"
    },
    {
      "channel": 5,
      "note": 74,
      "start": 116.7493,
      "duration": 0.0829,
      "velocity": 100,
      "chip": "ym2612"
    },
    {
      "channel": 3,
      "note": 79,
      "start": 116.8654,
      "duration": 0.2521,
      "velocity": 79,
      "chip": "ym2612"
    },
    {
      "channel": 4,
      "note": 72,
      "start": 116.8657,
      "duration": 0.0828,
      "velocity": 100,
      "chip": "ym2612"
    },
    {
      "channel": 5,
      "note": 72,
      "start": 116.8661,
      "duration": 0.0827,
      "velocity": 100,
      "chip": "ym2612"
    },
    {
      "channel": 4,
      "note": 69,
      "start": 116.9987,
      "duration": 0.0663,
      "velocity": 100,
      "chip": "ym2612"
    },
    {
      "channel": 5,
      "note": 69,
      "start": 116.999,
      "duration": 0.0661,
      "velocity": 100,
      "chip": "ym2612"
    },
    {
      "channel": 0,
      "note": 52,
      "start": 117.1152,
      "duration": 1.633,
      "velocity": 97,
      "chip": "ym2612"
    },
    {
      "channel": 1,
      "note": 88,
      "start": 117.1168,
      "duration": 1.6816,
      "velocity": 98,
      "chip": "ym2612"
    },
    {
      "channel": 4,
      "note": 69,
      "start": 117.1195,
      "duration": 0.2306,
      "velocity": 98,
      "chip": "ym2612"
    },
    {
      "channel": 2,
      "note": 88,
      "start": 117.2334,
      "duration": 1.565,
      "velocity": 98,
      "chip": "ym2612"
    },
    {
      "channel": 5,
      "note": 69,
      "start": 117.2339,
      "duration": 0.2314,
      "velocity": 98,
      "chip": "ym2612"
    },
    {
      "channel": 3,
      "note": 88,
      "start": 117.35,
      "duration": 1.4484,
      "velocity": 98,
      "chip": "ym2612"
    },
    {
      "channel": 4,
      "note": 71,
      "start": 117.3503,
      "duration": 0.2483,
      "velocity": 98,
      "chip": "ym2612"
    },
    {
      "channel": 5,
      "note": 71,
      "start": 117.4656,
      "duration": 0.2497,
      "velocity": 98,
      "chip": "ym2612"
    },
    {
      "channel": 4,
      "note": 74,
      "start": 117.5988,
      "duration": 0.0665,
      "velocity": 98,
      "chip": "ym2612"
    },
    {
      "channel": 5,
      "note": 74,
      "start": 117.7155,
      "duration": 0.0832,
      "velocity": 98,
      "chip": "ym2612"
    },
    {
      "channel": 4,
      "note": 76,
      "start": 117.8321,
      "duration": 0.0332,
      "velocity": 98,
      "chip": "ym2612"
    },
    {
      "channel": 5,
      "note": 76,
      "start": 117.9488,
      "duration": 0.0498,
      "velocity": 98,
      "chip": "ym2612"
    },
    {
      "channel": 4,
      "note": 76,
      "start": 118.0654,
      "duration": 0.4498,
      "velocity": 98,
      "chip": "ym2612"
    },
    {
      "channel": 5,
      "note": 76,
      "start": 118.199,
      "duration": 0.4331,
      "velocity": 98,
      "chip": "ym2612"
    },
    {
      "channel": 4,
      "note": 69,
      "start": 118.5488,
      "duration": 0.2,
      "velocity": 98,
      "chip": "ym2612"
    },
    {
      "channel": 5,
      "note": 69,
      "start": 118.6656,
      "duration": 0.1327,
      "velocity": 98,
      "chip": "ym2612"
    }
  ]
}