{
  "track_name": "16 - Cheer Up!",
  "duration_sec": 35.531,
  "sample_rate": 44100,
  "note_count": 656,
  "unique_pitches": 42,
  "pitch_range": 57,
  "avg_note_duration": 0.1604,
  "reconstruction_stats": {
    "notes_reconstructed": 656,
    "keyon_events": 656,
    "keyoff_events": 653,
    "orphan_keyons": 3,
    "unique_pitches": 42,
    "pitch_range": 57,
    "avg_duration_sec": 0.1604
  },
  "metadata": {
    "source": "H\\High Seas Havoc\\16 - Cheer Up!.vgz"
  },
  "notes": [
    {
      "channel": 0,
      "note": 87,
      "start": 0.4851,
      "duration": 0.008,
      "velocity": 99,
      "chip": "ym2612"
    },
    {
      "channel": 1,
      "note": 82,
      "start": 0.4854,
      "duration": 0.0078,
      "velocity": 99,
      "chip": "ym2612"
    },
    {
      "channel": 2,
      "note": 79,
      "start": 0.4859,
      "duration": 0.0074,
      "velocity": 99,
      "chip": "ym2612"
    },
    {
      "channel": 3,
      "note": 73,
      "start": 0.4864,
      "duration": 0.0071,
      "velocity": 83,
      "chip": "ym2612"
    },
    {
      "channel": 4,
      "note": 51,
      "start": 0.4866,
      "duration": 0.0095,
      "velocity": 102,
      "chip": "ym2612"
    },
    {
      "channel": 0,
      "note": 82,
      "start": 0.5142,
      "duration": 0.0074,
      "velocity": 99,
      "chip": "ym2612"
    },
    {
      "channel": 1,
      "note": 79,
      "start": 0.5144,
      "duration": 0.0073,
      "velocity": 99,
      "chip": "ym2612"
    },
    {
      "channel": 2,
      "note": 75,
      "start": 0.5147,
      "duration": 0.0071,
      "velocity": 99,
      "chip": "ym2612"
    },
    {
      "channel": 3,
      "note": 70,
      "start": 0.5149,
      "duration": 0.007,
      "velocity": 83,
      "chip": "ym2612"
    },
    {
      "channel": 4,
      "note": 51,
      "start": 0.5151,
      "duration": 0.0095,
      "velocity": 102,
      "chip": "ym2612"
    },
    {
      "channel": 0,
      "note": 79,
      "start": 0.5439,
      "duration": 0.0072,
      "velocity": 99,
      "chip": "ym2612"
    },
    {
      "channel": 1,
      "note": 73,
      "start": 0.5442,
      "duration": 0.0071,
      "velocity": 99,
      "chip": "ym2612"
    },
    {
      "channel": 2,
      "note": 70,
      "start": 0.5444,
      "duration": 0.0069,
      "velocity": 99,
      "chip": "ym2612"
    },
    {
      "channel": 3,
      "note": 67,
      "start": 0.5446,
      "duration": 0.0068,
      "velocity": 83,
      "chip": "ym2612"
    },
    {
      "channel": 4,
      "note": 51,
      "start": 0.5449,
      "duration": 0.0096,
      "velocity": 102,
      "chip": "ym2612"
    },
    {
      "channel": 0,
      "note": 75,
      "start": 0.5641,
      "duration": 0.0185,
      "velocity": 99,
      "chip": "ym2612"
    },
    {
      "channel": 1,
      "note": 70,
      "start": 0.5644,
      "duration": 0.0183,
      "velocity": 99,
      "chip": "ym2612"
    },
    {
      "channel": 2,
      "note": 67,
      "start": 0.5646,
      "duration": 0.0182,
      "velocity": 99,
      "chip": "ym2612"
    },
    {
      "channel": 3,
      "note": 63,
      "start": 0.5649,
      "duration": 0.0181,
      "velocity": 83,
      "chip": "ym2612"
    },
    {
      "channel": 4,
      "note": 51,
      "start": 0.5651,
      "duration": 0.0308,
      "velocity": 102,
      "chip": "ym2612"
    },
    {
      "channel": 0,
      "note": 83,
      "start": 0.6527,
      "duration": 0.2827,
      "velocity": 100,
      "chip": "ym2612"
    },
    {
      "channel": 3,
      "note": 80,
      "start": 0.6531,
      "duration": 0.0426,
      "velocity": 106,
      "chip": "ym2612"
    },
    {
      "channel": 4,
      "note": 44,
      "start": 0.6534,
      "duration": 0.0029,
      "velocity": 102,
      "chip": "ym2612"
    },
    {
      "channel": 1,
      "note": 83,
      "start": 0.656,
      "duration": 0.289,
      "velocity": 100,
      "chip": "ym2612"
    },
    {
      "channel": 2,
      "note": 80,
      "start": 0.6889,
      "duration": 0.0225,
      "velocity": 106,
      "chip": "ym2612"
    },
    {
      "channel": 4,
      "note": 44,
      "start": 0.6892,
      "duration": 0.0037,
      "velocity": 102,
      "chip": "ym2612"
    },
    {
      "channel": 3,
      "note": 75,
      "start": 0.7052,
      "duration": 0.056,
      "velocity": 106,
      "chip": "ym2612"
    },
    {
      "channel": 4,
      "note": 56,
      "start": 0.7054,
      "duration": 0.0037,
      "velocity": 102,
      "chip": "ym2612"
    },
    {
      "channel": 2,
      "note": 75,
      "start": 0.7547,
      "duration": 0.0223,
      "velocity": 106,
      "chip": "ym2612"
    },
    {
      "channel": 4,
      "note": 56,
      "start": 0.755,
      "duration": 0.0027,
      "velocity": 102,
      "chip": "ym2612"
    },
    {
      "channel": 3,
      "note": 68,
      "start": 0.7708,
      "duration": 0.0152,
      "velocity": 106,
      "chip": "ym2612"
    },
    {
      "channel": 4,
      "note": 44,
      "start": 0.771,
      "duration": 0.0027,
      "velocity": 102,
      "chip": "ym2612"
    },
    {
      "channel": 2,
      "note": 68,
      "start": 0.7795,
      "duration": 0.0992,
      "velocity": 106,
      "chip": "ym2612"
    },
    {
      "channel": 4,
      "note": 44,
      "start": 0.7798,
      "duration": 0.0037,
      "velocity": 102,
      "chip": "ym2612"
    },
    {
      "channel": 3,
      "note": 63,
      "start": 0.8122,
      "duration": 0.1234,
      "velocity": 106,
      "chip": "ym2612"
    },
    {
      "channel": 4,
      "note": 56,
      "start": 0.8124,
      "duration": 0.0331,
      "velocity": 102,
      "chip": "ym2612"
    },
    {
      "channel": 2,
      "note": 63,
      "start": 0.9289,
      "duration": 0.0228,
      "velocity": 106,
      "chip": "ym2612"
    },
    {
      "channel": 4,
      "note": 51,
      "start": 0.9292,
      "duration": 0.0027,
      "velocity": 102,
      "chip": "ym2612"
    },
    {
      "channel": 0,
      "note": 80,
      "start": 0.9449,
      "duration": 0.1835,
      "velocity": 100,
      "chip": "ym2612"
    },
    {
      "channel": 3,
      "note": 68,
      "start": 0.9453,
      "duration": 0.0429,
      "velocity": 106,
      "chip": "ym2612"
    },
    {
      "channel": 4,
      "note": 44,
      "start": 0.9456,
      "duration": 0.0039,
      "velocity": 102,
      "chip": "ym2612"
    },
    {
      "channel": 1,
      "note": 80,
      "start": 0.9492,
      "duration": 0.1889,
      "velocity": 100,
      "chip": "ym2612"
    },
    {
      "channel": 2,
      "note": 68,
      "start": 0.9814,
      "duration": 0.0394,
      "velocity": 106,
      "chip": "ym2612"
    },
    {
      "channel": 4,
      "note": 44,
      "start": 0.9817,
      "duration": 0.0037,
      "velocity": 102,
      "chip": "ym2612"
    },
    {
      "channel": 3,
      "note": 75,
      "start": 1.0144,
      "duration": 0.0223,
      "velocity": 106,
      "chip": "ym2612"
    },
    {
      "channel": 4,
      "note": 56,
      "start": 1.0146,
      "duration": 0.0027,
      "velocity": 102,
      "chip": "ym2612"
    },
    {
      "channel": 2,
      "note": 75,
      "start": 1.0304,
      "duration": 0.0391,
      "velocity": 106,
      "chip": "ym2612"
    },
    {
      "channel": 4,
      "note": 56,
      "start": 1.0307,
      "duration": 0.0026,
      "velocity": 102,
      "chip": "ym2612"
    },
    {
      "channel": 3,
      "note": 80,
      "start": 1.0633,
      "duration": 0.015,
      "velocity": 106,
      "chip": "ym2612"
    },
    {
      "channel": 4,
      "note": 44,
      "start": 1.0636,
      "duration": 0.0037,
      "velocity": 102,
      "chip": "ym2612"
    },
    {
      "channel": 2,
      "note": 80,
      "start": 1.0731,
      "duration": 0.0222,
      "velocity": 106,
      "chip": "ym2612"
    },
    {
      "channel": 4,
      "note": 44,
      "start": 1.0734,
      "duration": 0.0025,
      "velocity": 102,
      "chip": "ym2612"
    },
    {
      "channel": 3,
      "note": 75,
      "start": 1.089,
      "duration": 0.0397,
      "velocity": 106,
      "chip": "ym2612"
    },
    {
      "channel": 4,
      "note": 51,
      "start": 1.0892,
      "duration": 0.0026,
      "velocity": 102,
      "chip": "ym2612"
    },
    {
      "channel": 2,
      "note": 75,
      "start": 1.122,
      "duration": 0.0231,
      "velocity": 106,
      "chip": "ym2612"
    },
    {
      "channel": 4,
      "note": 56,
      "start": 1.1222,
      "duration": 0.0037,
      "velocity": 102,
      "chip": "ym2612"
    },
    {
      "channel": 0,
      "note": 85,
      "start": 1.138,
      "duration": 0.2834,
      "velocity": 100,
      "chip": "ym2612"
    },
    {
      "channel": 3,
      "note": 80,
      "start": 1.1384,
      "duration": 0.0597,
      "velocity": 106,
      "chip": "ym2612"
    },
    {
      "channel": 4,
      "note": 49,
      "start": 1.1387,
      "duration": 0.0041,
      "velocity": 102,
      "chip": "ym2612"
    },
    {
      "channel": 1,
      "note": 85,
      "start": 1.1426,
      "duration": 0.3053,
      "velocity": 100,
      "chip": "ym2612"
    },
    {
      "channel": 2,
      "note": 80,
      "start": 1.1914,
      "duration": 0.0225,
      "velocity": 106,
      "chip": "ym2612"
    },
    {
      "channel": 4,
      "note": 49,
      "start": 1.1917,
      "duration": 0.0027,
      "velocity": 102,
      "chip": "ym2612"
    },
    {
      "channel": 3,
      "note": 73,
      "start": 1.2076,
      "duration": 0.0394,
      "velocity": 106,
      "chip": "ym2612"
    },
    {
      "channel": 4,
      "note": 61,
      "start": 1.2079,
      "duration": 0.0027,
      "velocity": 102,
      "chip": "ym2612"
    },
    {
      "channel": 2,
      "note": 73,
      "start": 1.2405,
      "duration": 0.038,
      "velocity": 106,
      "chip": "ym2612"
    },
    {
      "channel": 4,
      "note": 61,
      "start": 1.2408,
      "duration": 0.0037,
      "velocity": 102,
      "chip": "ym2612"
    },
    {
      "channel": 3,
      "note": 68,
      "start": 1.2733,
      "duration": 0.0152,
      "velocity": 106,
      "chip": "ym2612"
    },
    {
      "channel": 4,
      "note": 49,
      "start": 1.2736,
      "duration": 0.0027,
      "velocity": 102,
      "chip": "ym2612"
    },
    {
      "channel": 2,
      "note": 68,
      "start": 1.2821,
      "duration": 0.0994,
      "velocity": 106,
      "chip": "ym2612"
    },
    {
      "channel": 4,
      "note": 49,
      "start": 1.2824,
      "duration": 0.0025,
      "velocity": 102,
      "chip": "ym2612"
    },
    {
      "channel": 3,
      "note": 61,
      "start": 1.2982,
      "duration": 0.1235,
      "velocity": 106,
      "chip": "ym2612"
    },
    {
      "channel": 4,
      "note": 61,
      "start": 1.2984,
      "duration": 0.0498,
      "velocity": 102,
      "chip": "ym2612"
    },
    {
      "channel": 2,
      "note": 61,
      "start": 1.415,
      "duration": 0.0396,
      "velocity": 106,
      "chip": "ym2612"
    },
    {
      "channel": 4,
      "note": 56,
      "start": 1.4153,
      "duration": 0.0038,
      "velocity": 102,
      "chip": "ym2612"
    },
    {
      "channel": 0,
      "note": 80,
      "start": 1.4478,
      "duration": 0.1337,
      "velocity": 100,
      "chip": "ym2612"
    },
    {
      "channel": 3,
      "note": 68,
      "start": 1.4482,
      "duration": 0.0428,
      "velocity": 106,
      "chip": "ym2612"
    },
    {
      "channel": 4,
      "note": 49,
      "start": 1.4484,
      "duration": 0.0029,
      "velocity": 102,
      "chip": "ym2612"
    },
    {
      "channel": 1,
      "note": 80,
      "start": 1.451,
      "duration": 0.1401,
      "velocity": 100,
      "chip": "ym2612"
    },
    {
      "channel": 2,
      "note": 68,
      "start": 1.4842,
      "duration": 0.0228,
      "velocity": 106,
      "chip": "ym2612"
    },
    {
      "channel": 4,
      "note": 49,
      "start": 1.4845,
      "duration": 0.0027,
      "velocity": 102,
      "chip": "ym2612"
    },
    {
      "channel": 3,
      "note": 73,
      "start": 1.5005,
      "duration": 0.0381,
      "velocity": 106,
      "chip": "ym2612"
    },
    {
      "channel": 4,
      "note": 61,
      "start": 1.5008,
      "duration": 0.0039,
      "velocity": 102,
      "chip": "ym2612"
    },
    {
      "channel": 2,
      "note": 73,
      "start": 1.5334,
      "duration": 0.0392,
      "velocity": 106,
      "chip": "ym2612"
    },
    {
      "channel": 4,
      "note": 61,
      "start": 1.5337,
      "duration": 0.0026,
      "velocity": 102,
      "chip": "ym2612"
    },
    {
      "channel": 3,
      "note": 80,
      "start": 1.5663,
      "duration": 0.0153,
      "velocity": 106,
      "chip": "ym2612"
    },
    {
      "channel": 4,
      "note": 49,
      "start": 1.5666,
      "duration": 0.0027,
      "velocity": 102,
      "chip": "ym2612"
    },
    {
      "channel": 2,
      "note": 80,
      "start": 1.5751,
      "duration": 0.023,
      "velocity": 106,
      "chip": "ym2612"
    },
    {
      "channel": 4,
      "note": 49,
      "start": 1.5754,
      "duration": 0.0037,
      "velocity": 102,
      "chip": "ym2612"
    },
    {
      "channel": 0,
      "note": 83,
      "start": 1.591,
      "duration": 0.0069,
      "velocity": 100,
      "chip": "ym2612"
    },
    {
      "channel": 3,
      "note": 73,
      "start": 1.5914,
      "duration": 0.0567,
      "velocity": 106,
      "chip": "ym2612"
    },
    {
      "channel": 4,
      "note": 56,
      "start": 1.5916,
      "duration": 0.004,
      "velocity": 102,
      "chip": "ym2612"
    },
    {
      "channel": 1,
      "note": 83,
      "start": 1.5954,
      "duration": 0.0455,
      "velocity": 100,
      "chip": "ym2612"
    },
    {
      "channel": 0,
      "note": 85,
      "start": 1.6408,
      "duration": 0.0071,
      "velocity": 100,
      "chip": "ym2612"
    },
    {
      "channel": 2,
      "note": 73,
      "start": 1.6412,
      "duration": 0.0227,
      "velocity": 106,
      "chip": "ym2612"
    },
    {
      "channel": 4,
      "note": 61,
      "start": 1.6415,
      "duration": 0.003,
      "velocity": 102,
      "chip": "ym2612"
    },
    {
      "channel": 1,
      "note": 85,
      "start": 1.6442,
      "duration": 0.013,
      "velocity": 100,
      "chip": "ym2612"
    },
    {
      "channel": 0,
      "note": 87,
      "start": 1.6571,
      "duration": 0.2674,
      "velocity": 100,
      "chip": "ym2612"
    },
    {
      "channel": 3,
      "note": 80,
      "start": 1.6575,
      "duration": 0.0427,
      "velocity": 106,
      "chip": "ym2612"
    },
    {
      "channel": 4,
      "note": 44,
      "start": 1.6577,
      "duration": 0.0029,
      "velocity": 102,
      "chip": "ym2612"
    },
    {
      "channel": 1,
      "note": 87,
      "start": 1.6603,
      "duration": 0.2738,
      "velocity": 100,
      "chip": "ym2612"
    },
    {
      "channel": 2,
      "note": 80,
      "start": 1.6935,
      "duration": 0.0381,
      "velocity": 106,
      "chip": "ym2612"
    },
    {
      "channel": 4,
      "note": 44,
      "start": 1.6938,
      "duration": 0.0038,
      "velocity": 102,
      "chip": "ym2612"
    },
    {
      "channel": 3,
      "note": 75,
      "start": 1.7263,
      "duration": 0.0395,
      "velocity": 106,
      "chip": "ym2612"
    },
    {
      "channel": 4,
      "note": 56,
      "start": 1.7266,
      "duration": 0.0027,
      "velocity": 102,
      "chip": "ym2612"
    },
    {
      "channel": 2,
      "note": 75,
      "start": 1.7593,
      "duration": 0.0224,
      "velocity": 106,
      "chip": "ym2612"
    },
    {
      "channel": 4,
      "note": 56,
      "start": 1.7596,
      "duration": 0.0027,
      "velocity": 102,
      "chip": "ym2612"
    },
    {
      "channel": 3,
      "note": 68,
      "start": 1.7754,
      "duration": 0.0151,
      "velocity": 106,
      "chip": "ym2612"
    },
    {
      "channel": 4,
      "note": 44,
      "start": 1.7757,
      "duration": 0.0038,
      "velocity": 102,
      "chip": "ym2612"
    },
    {
      "channel": 2,
      "note": 68,
      "start": 1.7852,
      "duration": 0.0992,
      "velocity": 106,
      "chip": "ym2612"
    },
    {
      "channel": 4,
      "note": 44,
      "start": 1.7856,
      "duration": 0.0025,
      "velocity": 102,
      "chip": "ym2612"
    },
    {
      "channel": 3,
      "note": 63,
      "start": 1.8012,
      "duration": 0.1235,
      "velocity": 106,
      "chip": "ym2612"
    },
    {
      "channel": 4,
      "note": 56,
      "start": 1.8014,
      "duration": 0.0331,
      "velocity": 102,
      "chip": "ym2612"
    },
    {
      "channel": 2,
      "note": 63,
      "start": 1.9179,
      "duration": 0.0229,
      "velocity": 106,
      "chip": "ym2612"
    },
    {
      "channel": 4,
      "note": 51,
      "start": 1.9182,
      "duration": 0.0037,
      "velocity": 102,
      "chip": "ym2612"
    },
    {
      "channel": 0,
      "note": 90,
      "start": 1.934,
      "duration": 0.1995,
      "velocity": 100,
      "chip": "ym2612"
    },
    {
      "channel": 3,
      "note": 68,
      "start": 1.9344,
      "duration": 0.0595,
      "velocity": 106,
      "chip": "ym2612"
    },
    {
      "channel": 4,
      "note": 44,
      "start": 1.9347,
      "duration": 0.0039,
      "velocity": 102,
      "chip": "ym2612"
    },
    {
      "channel": 1,
      "note": 90,
      "start": 1.9384,
      "duration": 0.2214,
      "velocity": 100,
      "chip": "ym2612"
    },
    {
      "channel": 2,
      "note": 68,
      "start": 1.9872,
      "duration": 0.0229,
      "velocity": 106,
      "chip": "ym2612"
    },
    {
      "channel": 4,
      "note": 44,
      "start": 1.9875,
      "duration": 0.0027,
      "velocity": 102,
      "chip": "ym2612"
    },
    {
      "channel": 3,
      "note": 75,
      "start": 2.0036,
      "duration": 0.0225,
      "velocity": 106,
      "chip": "ym2612"
    },
    {
      "channel": 4,
      "note": 56,
      "start": 2.0038,
      "duration": 0.0027,
      "velocity": 102,
      "chip": "ym2612"
    },
    {
      "channel": 2,
      "note": 75,
      "start": 2.0198,
      "duration": 0.0548,
      "velocity": 106,
      "chip": "ym2612"
    },
    {
      "channel": 4,
      "note": 56,
      "start": 2.02,
      "duration": 0.0037,
      "velocity": 102,
      "chip": "ym2612"
    },
    {
      "channel": 3,
      "note": 80,
      "start": 2.0694,
      "duration": 0.0151,
      "velocity": 106,
      "chip": "ym2612"
    },
    {
      "channel": 4,
      "note": 44,
      "start": 2.0696,
      "duration": 0.0027,
      "velocity": 102,
      "chip": "ym2612"
    },
    {
      "channel": 2,
      "note": 80,
      "start": 2.0782,
      "duration": 0.022,
      "velocity": 106,
      "chip": "ym2612"
    },
    {
      "channel": 4,
      "note": 44,
      "start": 2.0785,
      "duration": 0.0025,
      "velocity": 102,
      "chip": "ym2612"
    },
    {
      "channel": 3,
      "note": 75,
      "start": 2.0939,
      "duration": 0.0398,
      "velocity": 106,
      "chip": "ym2612"
    },
    {
      "channel": 4,
      "note": 51,
      "start": 2.0942,
      "duration": 0.0037,
      "velocity": 102,
      "chip": "ym2612"
    },
    {
      "channel": 2,
      "note": 75,
      "start": 2.1268,
      "duration": 0.0399,
      "velocity": 106,
      "chip": "ym2612"
    },
    {
      "channel": 4,
      "note": 56,
      "start": 2.1271,
      "duration": 0.0037,
      "velocity": 102,
      "chip": "ym2612"
    },
    {
      "channel": 0,
      "note": 89,
      "start": 2.1597,
      "duration": 0.108,
      "velocity": 100,
      "chip": "ym2612"
    },
    {
      "channel": 3,
      "note": 80,
      "start": 2.1601,
      "duration": 0.0431,
      "velocity": 106,
      "chip": "ym2612"
    },
    {
      "channel": 4,
      "note": 49,
      "start": 2.1603,
      "duration": 0.003,
      "velocity": 102,
      "chip": "ym2612"
    },
    {
      "channel": 1,
      "note": 89,
      "start": 2.163,
      "duration": 0.1155,
      "velocity": 100,
      "chip": "ym2612"
    },
    {
      "channel": 2,
      "note": 80,
      "start": 2.1964,
      "duration": 0.0227,
      "velocity": 106,
      "chip": "ym2612"
    },
    {
      "channel": 4,
      "note": 49,
      "start": 2.1967,
      "duration": 0.0027,
      "velocity": 102,
      "chip": "ym2612"
    },
    {
      "channel": 3,
      "note": 73,
      "start": 2.2128,
      "duration": 0.0552,
      "velocity": 106,
      "chip": "ym2612"
    },
    {
      "channel": 4,
      "note": 61,
      "start": 2.213,
      "duration": 0.0037,
      "velocity": 102,
      "chip": "ym2612"
    },
    {
      "channel": 2,
      "note": 73,
      "start": 2.2624,
      "duration": 0.0229,
      "velocity": 106,
      "chip": "ym2612"
    },
    {
      "channel": 4,
      "note": 61,
      "start": 2.2627,
      "duration": 0.0027,
      "velocity": 102,
      "chip": "ym2612"
    },
    {
      "channel": 0,
      "note": 85,
      "start": 2.2784,
      "duration": 0.1656,
      "velocity": 100,
      "chip": "ym2612"
    },
    {
      "channel": 3,
      "note": 68,
      "start": 2.2788,
      "duration": 0.0156,
      "velocity": 106,
      "chip": "ym2612"
    },
    {
      "channel": 4,
      "note": 49,
      "start": 2.279,
      "duration": 0.0029,
      "velocity": 102,
      "chip": "ym2612"
    },
    {
      "channel": 1,
      "note": 85,
      "start": 2.2817,
      "duration": 0.172,
      "velocity": 100,
      "chip": "ym2612"
    },
    {
      "channel": 2,
      "note": 68,
      "start": 2.2878,
      "duration": 0.0995,
      "velocity": 106,
      "chip": "ym2612"
    },
    {
      "channel": 4,
      "note": 49,
      "start": 2.2881,
      "duration": 0.0037,
      "velocity": 102,
      "chip": "ym2612"
    },
    {
      "channel": 3,
      "note": 61,
      "start": 2.3041,
      "duration": 0.1401,
      "velocity": 106,
      "chip": "ym2612"
    },
    {
      "channel": 4,
      "note": 61,
      "start": 2.3043,
      "duration": 0.0498,
      "velocity": 102,
      "chip": "ym2612"
    },
    {
      "channel": 2,
      "note": 61,
      "start": 2.4375,
      "duration": 0.0229,
      "velocity": 106,
      "chip": "ym2612"
    },
    {
      "channel": 4,
      "note": 56,
      "start": 2.4378,
      "duration": 0.0027,
      "velocity": 102,
      "chip": "ym2612"
    },
    {
      "channel": 0,
      "note": 80,
      "start": 2.4535,
      "duration": 0.0919,
      "velocity": 100,
      "chip": "ym2612"
    },
    {
      "channel": 3,
      "note": 68,
      "start": 2.4539,
      "duration": 0.0429,
      "velocity": 106,
      "chip": "ym2612"
    },
    {
      "channel": 4,
      "note": 49,
      "start": 2.4542,
      "duration": 0.0029,
      "velocity": 102,
      "chip": "ym2612"
    },
    {
      "channel": 1,
      "note": 80,
      "start": 2.4568,
      "duration": 0.1154,
      "velocity": 100,
      "chip": "ym2612"
    },
    {
      "channel": 2,
      "note": 68,
      "start": 2.49,
      "duration": 0.0384,
      "velocity": 106,
      "chip": "ym2612"
    },
    {
      "channel": 4,
      "note": 49,
      "start": 2.4903,
      "duration": 0.0038,
      "velocity": 102,
      "chip": "ym2612"
    },
    {
      "channel": 3,
      "note": 73,
      "start": 2.523,
      "duration": 0.0226,
      "velocity": 106,
      "chip": "ym2612"
    },
    {
      "channel": 4,
      "note": 61,
      "start": 2.5233,
      "duration": 0.0027,
      "velocity": 102,
      "chip": "ym2612"
    },
    {
      "channel": 2,
      "note": 73,
      "start": 2.5391,
      "duration": 0.0398,
      "velocity": 106,
      "chip": "ym2612"
    },
    {
      "channel": 4,
      "note": 61,
      "start": 2.5394,
      "duration": 0.0026,
      "velocity": 102,
      "chip": "ym2612"
    },
    {
      "channel": 0,
      "note": 85,
      "start": 2.5721,
      "duration": 0.0816,
      "velocity": 100,
      "chip": "ym2612"
    },
    {
      "channel": 3,
      "note": 80,
      "start": 2.5725,
      "duration": 0.0158,
      "velocity": 106,
      "chip": "ym2612"
    },
    {
      "channel": 4,
      "note": 49,
      "start": 2.5727,
      "duration": 0.0039,
      "velocity": 102,
      "chip": "ym2612"
    },
    {
      "channel": 1,
      "note": 85,
      "start": 2.5764,
      "duration": 0.0774,
      "velocity": 100,
      "chip": "ym2612"
    },
    {
      "channel": 2,
      "note": 80,
      "start": 2.5815,
      "duration": 0.0392,
      "velocity": 106,
      "chip": "ym2612"
    },
    {
      "channel": 4,
      "note": 49,
      "start": 2.5818,
      "duration": 0.0037,
      "velocity": 102,
      "chip": "ym2612"
    },
    {
      "channel": 3,
      "note": 73,
      "start": 2.6144,
      "duration": 0.0395,
      "velocity": 106,
      "chip": "ym2612"
    },
    {
      "channel": 4,
      "note": 56,
      "start": 2.6147,
      "duration": 0.0026,
      "velocity": 102,
      "chip": "ym2612"
    },
    {
      "channel": 2,
      "note": 73,
      "start": 2.6473,
      "duration": 0.0232,
      "velocity": 106,
      "chip": "ym2612"
    },
    {
      "channel": 4,
      "note": 61,
      "start": 2.6476,
      "duration": 0.0027,
      "velocity": 102,
      "chip": "ym2612"
    },
    {
      "channel": 0,
      "note": 87,
      "start": 2.6635,
      "duration": 0.2673,
      "velocity": 100,
      "chip": "ym2612"
    },
    {
      "channel": 1,
      "note": 83,
      "start": 2.6639,
      "duration": 0.2671,
      "velocity": 100,
      "chip": "ym2612"
    },
    {
      "channel": 3,
      "note": 80,
      "start": 2.6642,
      "duration": 0.058,
      "velocity": 106,
      "chip": "ym2612"
    },
    {
      "channel": 4,
      "note": 44,
      "start": 2.6644,
      "duration": 0.0036,
      "velocity": 102,
      "chip": "ym2612"
    },
    {
      "channel": 2,
      "note": 80,
      "start": 2.7166,
      "duration": 0.0225,
      "velocity": 106,
      "chip": "ym2612"
    },
    {
      "channel": 4,
      "note": 44,
      "start": 2.7168,
      "duration": 0.0027,
      "velocity": 102,
      "chip": "ym2612"
    },
    {
      "channel": 3,
      "note": 75,
      "start": 2.7328,
      "duration": 0.0395,
      "velocity": 106,
      "chip": "ym2612"
    },
    {
      "channel": 4,
      "note": 56,
      "start": 2.733,
      "duration": 0.0026,
      "velocity": 102,
      "chip": "ym2612"
    },
    {
      "channel": 2,
      "note": 75,
      "start": 2.7657,
      "duration": 0.0225,
      "velocity": 106,
      "chip": "ym2612"
    },
    {
      "channel": 4,
      "note": 56,
      "start": 2.766,
      "duration": 0.0038,
      "velocity": 102,
      "chip": "ym2612"
    },
    {
      "channel": 3,
      "note": 68,
      "start": 2.7819,
      "duration": 0.0162,
      "velocity": 106,
      "chip": "ym2612"
    },
    {
      "channel": 4,
      "note": 44,
      "start": 2.7822,
      "duration": 0.0038,
      "velocity": 102,
      "chip": "ym2612"
    },
    {
      "channel": 2,
      "note": 68,
      "start": 2.7919,
      "duration": 0.099,
      "velocity": 106,
      "chip": "ym2612"
    },
    {
      "channel": 4,
      "note": 44,
      "start": 2.7922,
      "duration": 0.0025,
      "velocity": 102,
      "chip": "ym2612"
    },
    {
      "channel": 3,
      "note": 63,
      "start": 2.8076,
      "duration": 0.1235,
      "velocity": 106,
      "chip": "ym2612"
    },
    {
      "channel": 4,
      "note": 56,
      "start": 2.8078,
      "duration": 0.0331,
      "velocity": 102,
      "chip": "ym2612"
    },
    {
      "channel": 2,
      "note": 63,
      "start": 2.9244,
      "duration": 0.0396,
      "velocity": 106,
      "chip": "ym2612"
    },
    {
      "channel": 4,
      "note": 51,
      "start": 2.9247,
      "duration": 0.0037,
      "velocity": 102,
      "chip": "ym2612"
    },
    {
      "channel": 0,
      "note": 83,
      "start": 2.9572,
      "duration": 0.199,
      "velocity": 100,
      "chip": "ym2612"
    },
    {
      "channel": 1,
      "note": 80,
      "start": 2.9574,
      "duration": 0.1989,
      "velocity": 100,
      "chip": "ym2612"
    },
    {
      "channel": 3,
      "note": 68,
      "start": 2.9577,
      "duration": 0.0427,
      "velocity": 106,
      "chip": "ym2612"
    },
    {
      "channel": 4,
      "note": 44,
      "start": 2.958,
      "duration": 0.0027,
      "velocity": 102,
      "chip": "ym2612"
    },
    {
      "channel": 2,
      "note": 68,
      "start": 2.9937,
      "duration": 0.0227,
      "velocity": 106,
      "chip": "ym2612"
    },
    {
      "channel": 4,
      "note": 44,
      "start": 2.994,
      "duration": 0.0027,
      "velocity": 102,
      "chip": "ym2612"
    },
    {
      "channel": 3,
      "note": 75,
      "start": 3.01,
      "duration": 0.038,
      "velocity": 106,
      "chip": "ym2612"
    },
    {
      "channel": 4,
      "note": 56,
      "start": 3.0102,
      "duration": 0.0038,
      "velocity": 102,
      "chip": "ym2612"
    },
    {
      "channel": 2,
      "note": 75,
      "start": 3.0428,
      "duration": 0.0392,
      "velocity": 106,
      "chip": "ym2612"
    },
    {
      "channel": 4,
      "note": 56,
      "start": 3.0431,
      "duration": 0.0026,
      "velocity": 102,
      "chip": "ym2612"
    },
    {
      "channel": 3,
      "note": 80,
      "start": 3.0757,
      "duration": 0.015,
      "velocity": 106,
      "chip": "ym2612"
    },
    {
      "channel": 4,
      "note": 44,
      "start": 3.076,
      "duration": 0.0027,
      "velocity": 102,
      "chip": "ym2612"
    },
    {
      "channel": 2,
      "note": 80,
      "start": 3.0844,
      "duration": 0.0221,
      "velocity": 106,
      "chip": "ym2612"
    },
    {
      "channel": 4,
      "note": 44,
      "start": 3.0847,
      "duration": 0.0036,
      "velocity": 102,
      "chip": "ym2612"
    },
    {
      "channel": 3,
      "note": 75,
      "start": 3.1002,
      "duration": 0.0563,
      "velocity": 106,
      "chip": "ym2612"
    },
    {
      "channel": 4,
      "note": 51,
      "start": 3.1004,
      "duration": 0.0038,
      "velocity": 102,
      "chip": "ym2612"
    },
    {
      "channel": 2,
      "note": 75,
      "start": 3.1498,
      "duration": 0.0228,
      "velocity": 106,
      "chip": "ym2612"
    },
    {
      "channel": 4,
      "note": 56,
      "start": 3.1501,
      "duration": 0.0027,
      "velocity": 102,
      "chip": "ym2612"
    },
    {
      "channel": 0,
      "note": 89,
      "start": 3.1659,
      "duration": 0.2828,
      "velocity": 100,
      "chip": "ym2612"
    },
    {
      "channel": 1,
      "note": 85,
      "start": 3.1661,
      "duration": 0.2827,
      "velocity": 100,
      "chip": "ym2612"
    },
    {
      "channel": 3,
      "note": 80,
      "start": 3.1664,
      "duration": 0.0427,
      "velocity": 106,
      "chip": "ym2612"
    },
    {
      "channel": 4,
      "note": 49,
      "start": 3.1666,
      "duration": 0.0027,
      "velocity": 102,
      "chip": "ym2612"
    },
    {
      "channel": 2,
      "note": 80,
      "start": 3.2023,
      "duration": 0.0382,
      "velocity": 106,
      "chip": "ym2612"
    },
    {
      "channel": 4,
      "note": 49,
      "start": 3.2026,
      "duration": 0.0038,
      "velocity": 102,
      "chip": "ym2612"
    },
    {
      "channel": 3,
      "note": 73,
      "start": 3.2353,
      "duration": 0.0393,
      "velocity": 106,
      "chip": "ym2612"
    },
    {
      "channel": 4,
      "note": 61,
      "start": 3.2356,
      "duration": 0.0026,
      "velocity": 102,
      "chip": "ym2612"
    },
    {
      "channel": 2,
      "note": 73,
      "start": 3.2682,
      "duration": 0.0224,
      "velocity": 106,
      "chip": "ym2612"
    },
    {
      "channel": 4,
      "note": 61,
      "start": 3.2685,
      "duration": 0.0027,
      "velocity": 102,
      "chip": "ym2612"
    },
    {
      "channel": 3,
      "note": 68,
      "start": 3.2843,
      "duration": 0.015,
      "velocity": 106,
      "chip": "ym2612"
    },
    {
      "channel": 4,
      "note": 49,
      "start": 3.2845,
      "duration": 0.0038,
      "velocity": 102,
      "chip": "ym2612"
    },
    {
      "channel": 2,
      "note": 68,
      "start": 3.2931,
      "duration": 0.1156,
      "velocity": 106,
      "chip": "ym2612"
    },
    {
      "channel": 4,
      "note": 49,
      "start": 3.2934,
      "duration": 0.0035,
      "velocity": 102,
      "chip": "ym2612"
    },
    {
      "channel": 3,
      "note": 61,
      "start": 3.3255,
      "duration": 0.1235,
      "velocity": 106,
      "chip": "ym2612"
    },
    {
      "channel": 4,
      "note": 61,
      "start": 3.3257,
      "duration": 0.0331,
      "velocity": 102,
      "chip": "ym2612"
    },
    {
      "channel": 2,
      "note": 61,
      "start": 3.4422,
      "duration": 0.0229,
      "velocity": 106,
      "chip": "ym2612"
    },
    {
      "channel": 4,
      "note": 56,
      "start": 3.4425,
      "duration": 0.0027,
      "velocity": 102,
      "chip": "ym2612"
    },
    {
      "channel": 0,
      "note": 85,
      "start": 3.4583,
      "duration": 0.1348,
      "velocity": 100,
      "chip": "ym2612"
    },
    {
      "channel": 1,
      "note": 80,
      "start": 3.4585,
      "duration": 0.1346,
      "velocity": 100,
      "chip": "ym2612"
    },
    {
      "channel": 3,
      "note": 68,
      "start": 3.4589,
      "duration": 0.0582,
      "velocity": 106,
      "chip": "ym2612"
    },
    {
      "channel": 4,
      "note": 49,
      "start": 3.4591,
      "duration": 0.0037,
      "velocity": 102,
      "chip": "ym2612"
    },
    {
      "channel": 2,
      "note": 68,
      "start": 3.5115,
      "duration": 0.0226,
      "velocity": 106,
      "chip": "ym2612"
    },
    {
      "channel": 4,
      "note": 49,
      "start": 3.5118,
      "duration": 0.0027,
      "velocity": 102,
      "chip": "ym2612"
    },
    {
      "channel": 3,
      "note": 73,
      "start": 3.5277,
      "duration": 0.0225,
      "velocity": 106,
      "chip": "ym2612"
    },
    {
      "channel": 4,
      "note": 61,
      "start": 3.528,
      "duration": 0.0027,
      "velocity": 102,
      "chip": "ym2612"
    },
    {
      "channel": 2,
      "note": 73,
      "start": 3.5438,
      "duration": 0.0393,
      "velocity": 106,
      "chip": "ym2612"
    },
    {
      "channel": 4,
      "note": 61,
      "start": 3.5441,
      "duration": 0.0038,
      "velocity": 102,
      "chip": "ym2612"
    },
    {
      "channel": 3,
      "note": 80,
      "start": 3.5768,
      "duration": 0.0166,
      "velocity": 106,
      "chip": "ym2612"
    },
    {
      "channel": 4,
      "note": 49,
      "start": 3.5771,
      "duration": 0.0038,
      "velocity": 102,
      "chip": "ym2612"
    },
    {
      "channel": 2,
      "note": 80,
      "start": 3.5866,
      "duration": 0.0232,
      "velocity": 106,
      "chip": "ym2612"
    },
    {
      "channel": 4,
      "note": 49,
      "start": 3.5869,
      "duration": 0.0027,
      "velocity": 102,
      "chip": "ym2612"
    },
    {
      "channel": 0,
      "note": 83,
      "start": 3.6027,
      "duration": 0.0068,
      "velocity": 100,
      "chip": "ym2612"
    },
    {
      "channel": 1,
      "note": 80,
      "start": 3.603,
      "duration": 0.0067,
      "velocity": 100,
      "chip": "ym2612"
    },
    {
      "channel": 3,
      "note": 73,
      "start": 3.6033,
      "duration": 0.0399,
      "velocity": 106,
      "chip": "ym2612"
    },
    {
      "channel": 4,
      "note": 56,
      "start": 3.6035,
      "duration": 0.0027,
      "velocity": 102,
      "chip": "ym2612"
    },
    {
      "channel": 0,
      "note": 85,
      "start": 3.6359,
      "duration": 0.007,
      "velocity": 100,
      "chip": "ym2612"
    },
    {
      "channel": 1,
      "note": 80,
      "start": 3.6361,
      "duration": 0.0069,
      "velocity": 100,
      "chip": "ym2612"
    },
    {
      "channel": 2,
      "note": 73,
      "start": 3.6363,
      "duration": 0.0383,
      "velocity": 106,
      "chip": "ym2612"
    },
    {
      "channel": 4,
      "note": 61,
      "start": 3.6367,
      "duration": 0.0038,
      "velocity": 102,
      "chip": "ym2612"
    },
    {
      "channel": 0,
      "note": 87,
      "start": 3.6688,
      "duration": 0.2819,
      "velocity": 100,
      "chip": "ym2612"
    },
    {
      "channel": 1,
      "note": 83,
      "start": 3.669,
      "duration": 0.2817,
      "velocity": 100,
      "chip": "ym2612"
    },
    {
      "channel": 3,
      "note": 80,
      "start": 3.6694,
      "duration": 0.0427,
      "velocity": 106,
      "chip": "ym2612"
    },
    {
      "channel": 4,
      "note": 44,
      "start": 3.6696,
      "duration": 0.0027,
      "velocity": 102,
      "chip": "ym2612"
    },
    {
      "channel": 2,
      "note": 80,
      "start": 3.7054,
      "duration": 0.0224,
      "velocity": 106,
      "chip": "ym2612"
    },
    {
      "channel": 4,
      "note": 44,
      "start": 3.7056,
      "duration": 0.0027,
      "velocity": 102,
      "chip": "ym2612"
    },
    {
      "channel": 3,
      "note": 75,
      "start": 3.7215,
      "duration": 0.0394,
      "velocity": 106,
      "chip": "ym2612"
    },
    {
      "channel": 4,
      "note": 56,
      "start": 3.7218,
      "duration": 0.0037,
      "velocity": 102,
      "chip": "ym2612"
    },
    {
      "channel": 2,
      "note": 75,
      "start": 3.7544,
      "duration": 0.039,
      "velocity": 106,
      "chip": "ym2612"
    },
    {
      "channel": 4,
      "note": 56,
      "start": 3.7547,
      "duration": 0.0038,
      "velocity": 102,
      "chip": "ym2612"
    },
    {
      "channel": 3,
      "note": 68,
      "start": 3.7873,
      "duration": 0.0151,
      "velocity": 106,
      "chip": "ym2612"
    },
    {
      "channel": 4,
      "note": 44,
      "start": 3.7876,
      "duration": 0.0026,
      "velocity": 102,
      "chip": "ym2612"
    },
    {
      "channel": 2,
      "note": 68,
      "start": 3.7961,
      "duration": 0.0991,
      "velocity": 106,
      "chip": "ym2612"
    },
    {
      "channel": 4,
      "note": 44,
      "start": 3.7963,
      "duration": 0.0026,
      "velocity": 102,
      "chip": "ym2612"
    },
    {
      "channel": 3,
      "note": 63,
      "start": 3.8119,
      "duration": 0.1391,
      "velocity": 106,
      "chip": "ym2612"
    },
    {
      "channel": 4,
      "note": 56,
      "start": 3.8121,
      "duration": 0.0498,
      "velocity": 102,
      "chip": "ym2612"
    },
    {
      "channel": 2,
      "note": 63,
      "start": 3.9453,
      "duration": 0.0229,
      "velocity": 106,
      "chip": "ym2612"
    },
    {
      "channel": 4,
      "note": 51,
      "start": 3.9456,
      "duration": 0.0027,
      "velocity": 102,
      "chip": "ym2612"
    },
    {
      "channel": 0,
      "note": 90,
      "start": 3.9613,
      "duration": 0.1992,
      "velocity": 100,
      "chip": "ym2612"
    },
    {
      "channel": 1,
      "note": 87,
      "start": 3.9616,
      "duration": 0.1991,
      "velocity": 100,
      "chip": "ym2612"
    },
    {
      "channel": 3,
      "note": 68,
      "start": 3.9619,
      "duration": 0.0429,
      "velocity": 106,
      "chip": "ym2612"
    },
    {
      "channel": 4,
      "note": 44,
      "start": 3.9621,
      "duration": 0.0026,
      "velocity": 102,
      "chip": "ym2612"
    },
    {
      "channel": 2,
      "note": 68,
      "start": 3.9979,
      "duration": 0.0228,
      "velocity": 106,
      "chip": "ym2612"
    },
    {
      "channel": 4,
      "note": 44,
      "start": 3.9982,
      "duration": 0.0038,
      "velocity": 102,
      "chip": "ym2612"
    },
    {
      "channel": 3,
      "note": 75,
      "start": 4.0142,
      "duration": 0.0391,
      "velocity": 106,
      "chip": "ym2612"
    },
    {
      "channel": 4,
      "note": 56,
      "start": 4.0144,
      "duration": 0.0038,
      "velocity": 102,
      "chip": "ym2612"
    },
    {
      "channel": 2,
      "note": 75,
      "start": 4.047,
      "duration": 0.0392,
      "velocity": 106,
      "chip": "ym2612"
    },
    {
      "channel": 4,
      "note": 56,
      "start": 4.0473,
      "duration": 0.0026,
      "velocity": 102,
      "chip": "ym2612"
    },
    {
      "channel": 3,
      "note": 80,
      "start": 4.08,
      "duration": 0.0149,
      "velocity": 106,
      "chip": "ym2612"
    },
    {
      "channel": 4,
      "note": 44,
      "start": 4.0802,
      "duration": 0.0037,
      "velocity": 102,
      "chip": "ym2612"
    },
    {
      "channel": 2,
      "note": 80,
      "start": 4.0886,
      "duration": 0.0387,
      "velocity": 106,
      "chip": "ym2612"
    },
    {
      "channel": 4,
      "note": 44,
      "start": 4.0889,
      "duration": 0.0036,
      "velocity": 102,
      "chip": "ym2612"
    },
    {
      "channel": 3,
      "note": 75,
      "start": 4.1211,
      "duration": 0.0398,
      "velocity": 106,
      "chip": "ym2612"
    },
    {
      "channel": 4,
      "note": 51,
      "start": 4.1213,
      "duration": 0.0026,
      "velocity": 102,
      "chip": "ym2612"
    },
    {
      "channel": 2,
      "note": 75,
      "start": 4.154,
      "duration": 0.023,
      "velocity": 106,
      "chip": "ym2612"
    },
    {
      "channel": 4,
      "note": 56,
      "start": 4.1543,
      "duration": 0.0027,
      "velocity": 102,
      "chip": "ym2612"
    },
    {
      "channel": 0,
      "note": 89,
      "start": 4.1701,
      "duration": 0.0335,
      "velocity": 100,
      "chip": "ym2612"
    },
    {
      "channel": 1,
      "note": 85,
      "start": 4.1704,
      "duration": 0.0334,
      "velocity": 100,
      "chip": "ym2612"
    },
    {
      "channel": 3,
      "note": 80,
      "start": 4.1707,
      "duration": 0.015,
      "velocity": 106,
      "chip": "ym2612"
    },
    {
      "channel": 4,
      "note": 49,
      "start": 4.1709,
      "duration": 0.0038,
      "velocity": 102,
      "chip": "ym2612"
    },
    {
      "channel": 2,
      "note": 80,
      "start": 4.1805,
      "duration": 0.0146,
      "velocity": 106,
      "chip": "ym2612"
    },
    {
      "channel": 4,
      "note": 49,
      "start": 4.1807,
      "duration": 0.0024,
      "velocity": 102,
      "chip": "ym2612"
    },
    {
      "channel": 3,
      "note": 73,
      "start": 4.1892,
      "duration": 0.0147,
      "velocity": 106,
      "chip": "ym2612"
    },
    {
      "channel": 4,
      "note": 61,
      "start": 4.1894,
      "duration": 0.0023,
      "velocity": 102,
      "chip": "ym2612"
    },
    {
      "channel": 2,
      "note": 73,
      "start": 4.1976,
      "duration": 0.0427,
      "velocity": 106,
      "chip": "ym2612"
    },
    {
      "channel": 4,
      "note": 61,
      "start": 4.1979,
      "duration": 0.0034,
      "velocity": 102,
      "chip": "ym2612"
    },
    {
      "channel": 0,
      "note": 85,
      "start": 4.2327,
      "duration": 0.0374,
      "velocity": 100,
      "chip": "ym2612"
    },
    {
      "channel": 1,
      "note": 80,
      "start": 4.2329,
      "duration": 0.0372,
      "velocity": 100,
      "chip": "ym2612"
    },
    {
      "channel": 3,
      "note": 68,
      "start": 4.2332,
      "duration": 0.0181,
      "velocity": 106,
      "chip": "ym2612"
    },
    {
      "channel": 4,
      "note": 49,
      "start": 4.2334,
      "duration": 0.0042,
      "velocity": 102,
      "chip": "ym2612"
    },
    {
      "channel": 2,
      "note": 68,
      "start": 4.2441,
      "duration": 0.0166,
      "velocity": 106,
      "chip": "ym2612"
    },
    {
      "channel": 4,
      "note": 49,
      "start": 4.2444,
      "duration": 0.0029,
      "velocity": 102,
      "chip": "ym2612"
    },
    {
      "channel": 3,
      "note": 61,
      "start": 4.2542,
      "duration": 0.0161,
      "velocity": 106,
      "chip": "ym2612"
    },
    {
      "channel": 4,
      "note": 61,
      "start": 4.2544,
      "duration": 0.0025,
      "velocity": 102,
      "chip": "ym2612"
    },
    {
      "channel": 2,
      "note": 61,
      "start": 4.2636,
      "duration": 0.017,
      "velocity": 106,
      "chip": "ym2612"
    },
    {
      "channel": 4,
      "note": 56,
      "start": 4.2639,
      "duration": 0.0036,
      "velocity": 102,
      "chip": "ym2612"
    },
    {
      "channel": 0,
      "note": 89,
      "start": 4.2748,
      "duration": 0.0602,
      "velocity": 100,
      "chip": "ym2612"
    },
    {
      "channel": 1,
      "note": 85,
      "start": 4.2751,
      "duration": 0.06,
      "velocity": 100,
      "chip": "ym2612"
    },
    {
      "channel": 3,
      "note": 68,
      "start": 4.2754,
      "duration": 0.0151,
      "velocity": 106,
      "chip": "ym2612"
    },
    {
      "channel": 4,
      "note": 49,
      "start": 4.2756,
      "duration": 0.0026,
      "velocity": 102,
      "chip": "ym2612"
    },
    {
      "channel": 2,
      "note": 68,
      "start": 4.2842,
      "duration": 0.041,
      "velocity": 106,
      "chip": "ym2612"
    },
    {
      "channel": 4,
      "note": 49,
      "start": 4.2845,
      "duration": 0.0023,
      "velocity": 102,
      "chip": "ym2612"
    },
    {
      "channel": 3,
      "note": 73,
      "start": 4.319,
      "duration": 0.0162,
      "velocity": 106,
      "chip": "ym2612"
    },
    {
      "channel": 4,
      "note": 61,
      "start": 4.3193,
      "duration": 0.0036,
      "velocity": 102,
      "chip": "ym2612"
    },
    {
      "channel": 2,
      "note": 73,
      "start": 4.3279,
      "duration": 0.0184,
      "velocity": 106,
      "chip": "ym2612"
    },
    {
      "channel": 4,
      "note": 61,
      "start": 4.3282,
      "duration": 0.0042,
      "velocity": 102,
      "chip": "ym2612"
    },
    {
      "channel": 0,
      "note": 92,
      "start": 4.3391,
      "duration": 0.0167,
      "velocity": 100,
      "chip": "ym2612"
    },
    {
      "channel": 1,
      "note": 89,
      "start": 4.3393,
      "duration": 0.0166,
      "velocity": 100,
      "chip": "ym2612"
    },
    {
      "channel": 3,
      "note": 80,
      "start": 4.3396,
      "duration": 0.0165,
      "velocity": 106,
      "chip": "ym2612"
    },
    {
      "channel": 4,
      "note": 49,
      "start": 4.3399,
      "duration": 0.0028,
      "velocity": 102,
      "chip": "ym2612"
    },
    {
      "channel": 2,
      "note": 80,
      "start": 4.349,
      "duration": 0.0197,
      "velocity": 106,
      "chip": "ym2612"
    },
    {
      "channel": 4,
      "note": 49,
      "start": 4.3493,
      "duration": 0.0028,
      "velocity": 102,
      "chip": "ym2612"
    },
    {
      "channel": 3,
      "note": 73,
      "start": 4.3602,
      "duration": 0.0085,
      "velocity": 106,
      "chip": "ym2612"
    },
    {
      "channel": 4,
      "note": 56,
      "start": 4.3605,
      "duration": 0.0041,
      "velocity": 102,
      "chip": "ym2612"
    },
    {
      "channel": 2,
      "note": 73,
      "start": 4.3729,
      "duration": 0.0074,
      "velocity": 106,
      "chip": "ym2612"
    },
    {
      "channel": 4,
      "note": 61,
      "start": 4.3744,
      "duration": 0.0028,
      "velocity": 102,
      "chip": "ym2612"
    },
    {
      "channel": 0,
      "note": 83,
      "start": 4.3846,
      "duration": 0.1639,
      "velocity": 99,
      "chip": "ym2612"
    },
    {
      "channel": 1,
      "note": 63,
      "start": 4.3849,
      "duration": 0.0084,
      "velocity": 99,
      "chip": "ym2612"
    },
    {
      "channel": 2,
      "note": 78,
      "start": 4.3864,
      "duration": 0.1623,
      "velocity": 99,
      "chip": "ym2612"
    },
    {
      "channel": 3,
      "note": 75,
      "start": 4.3867,
      "duration": 0.1622,
      "velocity": 99,
      "chip": "ym2612"
    },
    {
      "channel": 4,
      "note": 47,
      "start": 4.387,
      "duration": 0.0026,
      "velocity": 102,
      "chip": "ym2612"
    },
    {
      "channel": 1,
      "note": 59,
      "start": 4.3961,
      "duration": 0.0067,
      "velocity": 99,
      "chip": "ym2612"
    },
    {
      "channel": 4,
      "note": 47,
      "start": 4.3965,
      "duration": 0.0038,
      "velocity": 102,
      "chip": "ym2612"
    },
    {
      "channel": 1,
      "note": 63,
      "start": 4.4057,
      "duration": 0.0073,
      "velocity": 99,
      "chip": "ym2612"
    },
    {
      "channel": 4,
      "note": 59,
      "start": 4.4061,
      "duration": 0.0043,
      "velocity": 102,
      "chip": "ym2612"
    },
    {
      "channel": 1,
      "note": 66,
      "start": 4.417,
      "duration": 0.0073,
      "velocity": 99,
      "chip": "ym2612"
    },
    {
      "channel": 4,
      "note": 59,
      "start": 4.4173,
      "duration": 0.0027,
      "velocity": 102,
      "chip": "ym2612"
    },
    {
      "channel": 1,
      "note": 71,
      "start": 4.4278,
      "duration": 0.0072,
      "velocity": 99,
      "chip": "ym2612"
    },
    {
      "channel": 4,
      "note": 47,
      "start": 4.4282,
      "duration": 0.0032,
      "velocity": 102,
      "chip": "ym2612"
    },
    {
      "channel": 1,
      "note": 66,
      "start": 4.4378,
      "duration": 0.0069,
      "velocity": 99,
      "chip": "ym2612"
    },
    {
      "channel": 4,
      "note": 47,
      "start": 4.4381,
      "duration": 0.004,
      "velocity": 102,
      "chip": "ym2612"
    },
    {
      "channel": 1,
      "note": 71,
      "start": 4.4486,
      "duration": 0.0063,
      "velocity": 99,
      "chip": "ym2612"
    },
    {
      "channel": 4,
      "note": 59,
      "start": 4.449,
      "duration": 0.0034,
      "velocity": 102,
      "chip": "ym2612"
    },
    {
      "channel": 1,
      "note": 75,
      "start": 4.4589,
      "duration": 0.0073,
      "velocity": 99,
      "chip": "ym2612"
    },
    {
      "channel": 4,
      "note": 54,
      "start": 4.4593,
      "duration": 0.0027,
      "velocity": 102,
      "chip": "ym2612"
    },
    {
      "channel": 1,
      "note": 78,
      "start": 4.4698,
      "duration": 0.007,
      "velocity": 99,
      "chip": "ym2612"
    },
    {
      "channel": 4,
      "note": 47,
      "start": 4.4701,
      "duration": 0.0041,
      "velocity": 102,
      "chip": "ym2612"
    },
    {
      "channel": 1,
      "note": 75,
      "start": 4.4795,
      "duration": 0.0068,
      "velocity": 99,
      "chip": "ym2612"
    },
    {
      "channel": 4,
      "note": 47,
      "start": 4.4798,
      "duration": 0.004,
      "velocity": 102,
      "chip": "ym2612"
    },
    {
      "channel": 1,
      "note": 78,
      "start": 4.4901,
      "duration": 0.0071,
      "velocity": 99,
      "chip": "ym2612"
    },
    {
      "channel": 4,
      "note": 59,
      "start": 4.4905,
      "duration": 0.0029,
      "velocity": 102,
      "chip": "ym2612"
    },
    {
      "channel": 1,
      "note": 83,
      "start": 4.5005,
      "duration": 0.0064,
      "velocity": 99,
      "chip": "ym2612"
    },
    {
      "channel": 4,
      "note": 59,
      "start": 4.5008,
      "duration": 0.0025,
      "velocity": 102,
      "chip": "ym2612"
    },
    {
      "channel": 1,
      "note": 87,
      "start": 4.5096,
      "duration": 0.0065,
      "velocity": 99,
      "chip": "ym2612"
    },
    {
      "channel": 4,
      "note": 47,
      "start": 4.51,
      "duration": 0.0037,
      "velocity": 102,
      "chip": "ym2612"
    },
    {
      "channel": 1,
      "note": 83,
      "start": 4.5212,
      "duration": 0.0059,
      "velocity": 99,
      "chip": "ym2612"
    },
    {
      "channel": 4,
      "note": 47,
      "start": 4.5215,
      "duration": 0.0028,
      "velocity": 102,
      "chip": "ym2612"
    },
    {
      "channel": 1,
      "note": 87,
      "start": 4.531,
      "duration": 0.0075,
      "velocity": 99,
      "chip": "ym2612"
    },
    {
      "channel": 4,
      "note": 54,
      "start": 4.5313,
      "duration": 0.0034,
      "velocity": 102,
      "chip": "ym2612"
    },
    {
      "channel": 1,
      "note": 90,
      "start": 4.5412,
      "duration": 0.0074,
      "velocity": 99,
      "chip": "ym2612"
    },
    {
      "channel": 4,
      "note": 59,
      "start": 4.5416,
      "duration": 0.0041,
      "velocity": 102,
      "chip": "ym2612"
    },
    {
      "channel": 0,
      "note": 87,
      "start": 4.5532,
      "duration": 0.0621,
      "velocity": 99,
      "chip": "ym2612"
    },
    {
      "channel": 1,
      "note": 95,
      "start": 4.5535,
      "duration": 0.0066,
      "velocity": 99,
      "chip": "ym2612"
    },
    {
      "channel": 2,
      "note": 83,
      "start": 4.5537,
      "duration": 0.0619,
      "velocity": 99,
      "chip": "ym2612"
    },
    {
      "channel": 3,
      "note": 78,
      "start": 4.554,
      "duration": 0.0617,
      "velocity": 99,
      "chip": "ym2612"
    },
    {
      "channel": 4,
      "note": 47,
      "start": 4.5543,
      "duration": 0.0032,
      "velocity": 102,
      "chip": "ym2612"
    },
    {
      "channel": 1,
      "note": 90,
      "start": 4.5638,
      "duration": 0.0067,
      "velocity": 99,
      "chip": "ym2612"
    },
    {
      "channel": 4,
      "note": 47,
      "start": 4.5642,
      "duration": 0.0027,
      "velocity": 102,
      "chip": "ym2612"
    },
    {
      "channel": 1,
      "note": 87,
      "start": 4.575,
      "duration": 0.0091,
      "velocity": 99,
      "chip": "ym2612"
    },
    {
      "channel": 4,
      "note": 59,
      "start": 4.5753,
      "duration": 0.0061,
      "velocity": 102,
      "chip": "ym2612"
    },
    {
      "channel": 1,
      "note": 90,
      "start": 4.5872,
      "duration": 0.0069,
      "velocity": 99,
      "chip": "ym2612"
    },
    {
      "channel": 4,
      "note": 59,
      "start": 4.5876,
      "duration": 0.0039,
      "velocity": 102,
      "chip": "ym2612"
    },
    {
      "channel": 1,
      "note": 87,
      "start": 4.5979,
      "duration": 0.0068,
      "velocity": 99,
      "chip": "ym2612"
    },
    {
      "channel": 4,
      "note": 47,
      "start": 4.5983,
      "duration": 0.0027,
      "velocity": 102,
      "chip": "ym2612"
    },
    {
      "channel": 1,
      "note": 83,
      "start": 4.6085,
      "duration": 0.007,
      "velocity": 99,
      "chip": "ym2612"
    },
    {
      "channel": 4,
      "note": 47,
      "start": 4.6088,
      "duration": 0.0028,
      "velocity": 102,
      "chip": "ym2612"
    },
    {
      "channel": 0,
      "note": 83,
      "start": 4.6183,
      "duration": 0.0598,
      "velocity": 99,
      "chip": "ym2612"
    },
    {
      "channel": 1,
      "note": 78,
      "start": 4.6186,
      "duration": 0.0073,
      "velocity": 99,
      "chip": "ym2612"
    },
    {
      "channel": 2,
      "note": 78,
      "start": 4.6188,
      "duration": 0.0595,
      "velocity": 99,
      "chip": "ym2612"
    },
    {
      "channel": 3,
      "note": 75,
      "start": 4.619,
      "duration": 0.0594,
      "velocity": 99,
      "chip": "ym2612"
    },
    {
      "channel": 4,
      "note": 59,
      "start": 4.6193,
      "duration": 0.0038,
      "velocity": 102,
      "chip": "ym2612"
    },
    {
      "channel": 1,
      "note": 83,
      "start": 4.6303,
      "duration": 0.0059,
      "velocity": 99,
      "chip": "ym2612"
    },
    {
      "channel": 4,
      "note": 54,
      "start": 4.6307,
      "duration": 0.0028,
      "velocity": 102,
      "chip": "ym2612"
    },
    {
      "channel": 1,
      "note": 78,
      "start": 4.6402,
      "duration": 0.0067,
      "velocity": 99,
      "chip": "ym2612"
    },
    {
      "channel": 4,
      "note": 47,
      "start": 4.6406,
      "duration": 0.0027,
      "velocity": 102,
      "chip": "ym2612"
    },
    {
      "channel": 1,
      "note": 75,
      "start": 4.6496,
      "duration": 0.0068,
      "velocity": 99,
      "chip": "ym2612"
    },
    {
      "channel": 4,
      "note": 47,
      "start": 4.65,
      "duration": 0.004,
      "velocity": 102,
      "chip": "ym2612"
    },
    {
      "channel": 1,
      "note": 71,
      "start": 4.6592,
      "duration": 0.0073,
      "velocity": 99,
      "chip": "ym2612"
    },
    {
      "channel": 4,
      "note": 59,
      "start": 4.6595,
      "duration": 0.004,
      "velocity": 102,
      "chip": "ym2612"
    },
    {
      "channel": 1,
      "note": 75,
      "start": 4.671,
      "duration": 0.0072,
      "velocity": 99,
      "chip": "ym2612"
    },
    {
      "channel": 4,
      "note": 59,
      "start": 4.6714,
      "duration": 0.0032,
      "velocity": 102,
      "chip": "ym2612"
    },
    {
      "channel": 0,
      "note": 87,
      "start": 4.6812,
      "duration": 0.0401,
      "velocity": 99,
      "chip": "ym2612"
    },
    {
      "channel": 1,
      "note": 71,
      "start": 4.6815,
      "duration": 0.0071,
      "velocity": 99,
      "chip": "ym2612"
    },
    {
      "channel": 2,
      "note": 83,
      "start": 4.6817,
      "duration": 0.0399,
      "velocity": 99,
      "chip": "ym2612"
    },
    {
      "channel": 3,
      "note": 78,
      "start": 4.682,
      "duration": 0.0397,
      "velocity": 99,
      "chip": "ym2612"
    },
    {
      "channel": 4,
      "note": 47,
      "start": 4.6822,
      "duration": 0.0026,
      "velocity": 102,
      "chip": "ym2612"
    },
    {
      "channel": 1,
      "note": 66,
      "start": 4.693,
      "duration": 0.0072,
      "velocity": 99,
      "chip": "ym2612"
    },
    {
      "channel": 4,
      "note": 47,
      "start": 4.6933,
      "duration": 0.0042,
      "velocity": 102,
      "chip": "ym2612"
    },
    {
      "channel": 1,
      "note": 63,
      "start": 4.7041,
      "duration": 0.0061,
      "velocity": 99,
      "chip": "ym2612"
    },
    {
      "channel": 4,
      "note": 54,
      "start": 4.7045,
      "duration": 0.0031,
      "velocity": 102,
      "chip": "ym2612"
    },
    {
      "channel": 1,
      "note": 66,
      "start": 4.7141,
      "duration": 0.0074,
      "velocity": 99,
      "chip": "ym2612"
    },
    {
      "channel": 4,
      "note": 59,
      "start": 4.7145,
      "duration": 0.0028,
      "velocity": 102,
      "chip": "ym2612"
    },
    {
      "channel": 0,
      "note": 88,
      "start": 4.7249,
      "duration": 0.1735,
      "velocity": 99,
      "chip": "ym2612"
    },
    {
      "channel": 1,
      "note": 61,
      "start": 4.7251,
      "duration": 0.0076,
      "velocity": 99,
      "chip": "ym2612"
    },
    {
      "channel": 2,
      "note": 85,
      "start": 4.7254,
      "duration": 0.1732,
      "velocity": 99,
      "chip": "ym2612"
    },
    {
      "channel": 3,
      "note": 81,
      "start": 4.7256,
      "duration": 0.1731,
      "velocity": 99,
      "chip": "ym2612"
    },
    {
      "channel": 4,
      "note": 45,
      "start": 4.7259,
      "duration": 0.0042,
      "velocity": 102,
      "chip": "ym2612"
    },
    {
      "channel": 1,
      "note": 57,
      "start": 4.7358,
      "duration": 0.007,
      "velocity": 99,
      "chip": "ym2612"
    },
    {
      "channel": 4,
      "note": 45,
      "start": 4.7361,
      "duration": 0.0041,
      "velocity": 102,
      "chip": "ym2612"
    },
    {
      "channel": 1,
      "note": 61,
      "start": 4.7469,
      "duration": 0.0076,
      "velocity": 99,
      "chip": "ym2612"
    },
    {
      "channel": 4,
      "note": 57,
      "start": 4.7473,
      "duration": 0.0032,
      "velocity": 102,
      "chip": "ym2612"
    },
    {
      "channel": 1,
      "note": 64,
      "start": 4.7574,
      "duration": 0.0071,
      "velocity": 99,
      "chip": "ym2612"
    },
    {
      "channel": 4,
      "note": 57,
      "start": 4.7578,
      "duration": 0.0028,
      "velocity": 102,
      "chip": "ym2612"
    },
    {
      "channel": 1,
      "note": 69,
      "start": 4.7681,
      "duration": 0.0071,
      "velocity": 99,
      "chip": "ym2612"
    },
    {
      "channel": 4,
      "note": 45,
      "start": 4.7685,
      "duration": 0.0041,
      "velocity": 102,
      "chip": "ym2612"
    },
    {
      "channel": 1,
      "note": 64,
      "start": 4.7796,
      "duration": 0.0074,
      "velocity": 99,
      "chip": "ym2612"
    },
    {
      "channel": 4,
      "note": 45,
      "start": 4.78,
      "duration": 0.0044,
      "velocity": 102,
      "chip": "ym2612"
    },
    {
      "channel": 1,
      "note": 69,
      "start": 4.7914,
      "duration": 0.0076,
      "velocity": 99,
      "chip": "ym2612"
    },
    {
      "channel": 4,
      "note": 57,
      "start": 4.7918,
      "duration": 0.0032,
      "velocity": 102,
      "chip": "ym2612"
    },
    {
      "channel": 1,
      "note": 73,
      "start": 4.8019,
      "duration": 0.0072,
      "velocity": 99,
      "chip": "ym2612"
    },
    {
      "channel": 4,
      "note": 52,
      "start": 4.8022,
      "duration": 0.0042,
      "velocity": 102,
      "chip": "ym2612"
    },
    {
      "channel": 1,
      "note": 76,
      "start": 4.8128,
      "duration": 0.0071,
      "velocity": 99,
      "chip": "ym2612"
    },
    {
      "channel": 4,
      "note": 45,
      "start": 4.8132,
      "duration": 0.0041,
      "velocity": 102,
      "chip": "ym2612"
    },
    {
      "channel": 1,
      "note": 73,
      "start": 4.824,
      "duration": 0.0067,
      "velocity": 99,
      "chip": "ym2612"
    },
    {
      "channel": 4,
      "note": 45,
      "start": 4.8244,
      "duration": 0.0027,
      "velocity": 102,
      "chip": "ym2612"
    },
    {
      "channel": 1,
      "note": 76,
      "start": 4.8345,
      "duration": 0.0097,
      "velocity": 99,
      "chip": "ym2612"
    },
    {
      "channel": 4,
      "note": 57,
      "start": 4.8349,
      "duration": 0.0052,
      "velocity": 102,
      "chip": "ym2612"
    },
    {
      "channel": 1,
      "note": 81,
      "start": 4.8472,
      "duration": 0.0071,
      "velocity": 99,
      "chip": "ym2612"
    },
    {
      "channel": 4,
      "note": 57,
      "start": 4.8476,
      "duration": 0.004,
      "velocity": 102,
      "chip": "ym2612"
    },
    {
      "channel": 1,
      "note": 85,
      "start": 4.8582,
      "duration": 0.0056,
      "velocity": 99,
      "chip": "ym2612"
    },
    {
      "channel": 4,
      "note": 45,
      "start": 4.8586,
      "duration": 0.0027,
      "velocity": 102,
      "chip": "ym2612"
    },
    {
      "channel": 1,
      "note": 81,
      "start": 4.8689,
      "duration": 0.0087,
      "velocity": 99,
      "chip": "ym2612"
    },
    {
      "channel": 4,
      "note": 45,
      "start": 4.8692,
      "duration": 0.0046,
      "velocity": 102,
      "chip": "ym2612"
    },
    {
      "channel": 1,
      "note": 85,
      "start": 4.8806,
      "duration": 0.0076,
      "velocity": 99,
      "chip": "ym2612"
    },
    {
      "channel": 4,
      "note": 52,
      "start": 4.881,
      "duration": 0.0046,
      "velocity": 102,
      "chip": "ym2612"
    },
    {
      "channel": 1,
      "note": 88,
      "start": 4.8912,
      "duration": 0.0073,
      "velocity": 99,
      "chip": "ym2612"
    },
    {
      "channel": 4,
      "note": 57,
      "start": 4.8916,
      "duration": 0.0041,
      "velocity": 102,
      "chip": "ym2612"
    },
    {
      "channel": 0,
      "note": 85,
      "start": 4.9028,
      "duration": 0.0614,
      "velocity": 99,
      "chip": "ym2612"
    },
    {
      "channel": 1,
      "note": 93,
      "start": 4.9031,
      "duration": 0.0075,
      "velocity": 99,
      "chip": "ym2612"
    },
    {
      "channel": 2,
      "note": 81,
      "start": 4.9033,
      "duration": 0.0611,
      "velocity": 99,
      "chip": "ym2612"
    },
    {
      "channel": 3,
      "note": 76,
      "start": 4.9035,
      "duration": 0.061,
      "velocity": 99,
      "chip": "ym2612"
    },
    {
      "channel": 4,
      "note": 45,
      "start": 4.9038,
      "duration": 0.0031,
      "velocity": 102,
      "chip": "ym2612"
    },
    {
      "channel": 1,
      "note": 88,
      "start": 4.9134,
      "duration": 0.0068,
      "velocity": 99,
      "chip": "ym2612"
    },
    {
      "channel": 4,
      "note": 45,
      "start": 4.9138,
      "duration": 0.0025,
      "velocity": 102,
      "chip": "ym2612"
    },
    {
      "channel": 1,
      "note": 85,
      "start": 4.9232,
      "duration": 0.0093,
      "velocity": 99,
      "chip": "ym2612"
    },
    {
      "channel": 4,
      "note": 57,
      "start": 4.9235,
      "duration": 0.0063,
      "velocity": 102,
      "chip": "ym2612"
    },
    {
      "channel": 1,
      "note": 88,
      "start": 4.9369,
      "duration": 0.0067,
      "velocity": 99,
      "chip": "ym2612"
    },
    {
      "channel": 4,
      "note": 57,
      "start": 4.9373,
      "duration": 0.0027,
      "velocity": 102,
      "chip": "ym2612"
    },
    {
      "channel": 1,
      "note": 85,
      "start": 4.9465,
      "duration": 0.0068,
      "velocity": 99,
      "chip": "ym2612"
    },
    {
      "channel": 4,
      "note": 45,
      "start": 4.9469,
      "duration": 0.0027,
      "velocity": 102,
      "chip": "ym2612"
    },
    {
      "channel": 1,
      "note": 81,
      "start": 4.9571,
      "duration": 0.0072,
      "velocity": 99,
      "chip": "ym2612"
    },
    {
      "channel": 4,
      "note": 45,
      "start": 4.9575,
      "duration": 0.0041,
      "velocity": 102,
      "chip": "ym2612"
    },
    {
      "channel": 0,
      "note": 81,
      "start": 4.9686,
      "duration": 0.0628,
      "velocity": 99,
      "chip": "ym2612"
    },
    {
      "channel": 1,
      "note": 76,
      "start": 4.9688,
      "duration": 0.0066,
      "velocity": 99,
      "chip": "ym2612"
    },
    {
      "channel": 2,
      "note": 76,
      "start": 4.9691,
      "duration": 0.0626,
      "velocity": 99,
      "chip": "ym2612"
    },
    {
      "channel": 3,
      "note": 73,
      "start": 4.9693,
      "duration": 0.0624,
      "velocity": 99,
      "chip": "ym2612"
    },
    {
      "channel": 4,
      "note": 57,
      "start": 4.9696,
      "duration": 0.0032,
      "velocity": 102,
      "chip": "ym2612"
    },
    {
      "channel": 1,
      "note": 81,
      "start": 4.9797,
      "duration": 0.0073,
      "velocity": 99,
      "chip": "ym2612"
    },
    {
      "channel": 4,
      "note": 52,
      "start": 4.98,
      "duration": 0.0028,
      "velocity": 102,
      "chip": "ym2612"
    },
    {
      "channel": 1,
      "note": 76,
      "start": 4.99,
      "duration": 0.007,
      "velocity": 99,
      "chip": "ym2612"
    },
    {
      "channel": 4,
      "note": 45,
      "start": 4.9904,
      "duration": 0.004,
      "velocity": 102,
      "chip": "ym2612"
    },
    {
      "channel": 1,
      "note": 73,
      "start": 5.0001,
      "duration": 0.0067,
      "velocity": 99,
      "chip": "ym2612"
    },
    {
      "channel": 4,
      "note": 45,
      "start": 5.0005,
      "duration": 0.0037,
      "velocity": 102,
      "chip": "ym2612"
    },
    {
      "channel": 1,
      "note": 69,
      "start": 5.0117,
      "duration": 0.0098,
      "velocity": 99,
      "chip": "ym2612"
    },
    {
      "channel": 4,
      "note": 57,
      "start": 5.012,
      "duration": 0.0054,
      "velocity": 102,
      "chip": "ym2612"
    },
    {
      "channel": 1,
      "note": 73,
      "start": 5.0244,
      "duration": 0.0071,
      "velocity": 99,
      "chip": "ym2612"
    },
    {
      "channel": 4,
      "note": 57,
      "start": 5.0248,
      "duration": 0.0029,
      "velocity": 102,
      "chip": "ym2612"
    },
    {
      "channel": 0,
      "note": 85,
      "start": 5.0345,
      "duration": 0.0413,
      "velocity": 99,
      "chip": "ym2612"
    },
    {
      "channel": 1,
      "note": 69,
      "start": 5.0348,
      "duration": 0.0074,
      "velocity": 99,
      "chip": "ym2612"
    },
    {
      "channel": 2,
      "note": 81,
      "start": 5.035,
      "duration": 0.041,
      "velocity": 99,
      "chip": "ym2612"
    },
    {
      "channel": 3,
      "note": 76,
      "start": 5.0353,
      "duration": 0.0409,
      "velocity": 99,
      "chip": "ym2612"
    },
    {
      "channel": 4,
      "note": 45,
      "start": 5.0355,
      "duration": 0.0041,
      "velocity": 102,
      "chip": "ym2612"
    },
    {
      "channel": 1,
      "note": 64,
      "start": 5.0462,
      "duration": 0.0076,
      "velocity": 99,
      "chip": "ym2612"
    },
    {
      "channel": 4,
      "note": 45,
      "start": 5.0466,
      "duration": 0.0046,
      "velocity": 102,
      "chip": "ym2612"
    },
    {
      "channel": 1,
      "note": 61,
      "start": 5.0579,
      "duration": 0.0076,
      "velocity": 99,
      "chip": "ym2612"
    },
    {
      "channel": 4,
      "note": 52,
      "start": 5.0583,
      "duration": 0.0032,
      "velocity": 102,
      "chip": "ym2612"
    },
    {
      "channel": 1,
      "note": 64,
      "start": 5.0685,
      "duration": 0.0075,
      "velocity": 99,
      "chip": "ym2612"
    },
    {
      "channel": 4,
      "note": 57,
      "start": 5.0688,
      "duration": 0.0043,
      "velocity": 102,
      "chip": "ym2612"
    },
    {
      "channel": 0,
      "note": 87,
      "start": 5.0795,
      "duration": 0.1663,
      "velocity": 99,
      "chip": "ym2612"
    },
    {
      "channel": 1,
      "note": 63,
      "start": 5.0798,
      "duration": 0.0073,
      "velocity": 99,
      "chip": "ym2612"
    },
    {
      "channel": 2,
      "note": 83,
      "start": 5.08,
      "duration": 0.1661,
      "velocity": 99,
      "chip": "ym2612"
    },
    {
      "channel": 3,
      "note": 78,
      "start": 5.0803,
      "duration": 0.1659,
      "velocity": 99,
      "chip": "ym2612"
    },
    {
      "channel": 4,
      "note": 47,
      "start": 5.0806,
      "duration": 0.004,
      "velocity": 102,
      "chip": "ym2612"
    },
    {
      "channel": 1,
      "note": 59,
      "start": 5.091,
      "duration": 0.0067,
      "velocity": 99,
      "chip": "ym2612"
    },
    {
      "channel": 4,
      "note": 47,
      "start": 5.0914,
      "duration": 0.0026,
      "velocity": 102,
      "chip": "ym2612"
    },
    {
      "channel": 1,
      "note": 63,
      "start": 5.1005,
      "duration": 0.0075,
      "velocity": 99,
      "chip": "ym2612"
    },
    {
      "channel": 4,
      "note": 59,
      "start": 5.1009,
      "duration": 0.0034,
      "velocity": 102,
      "chip": "ym2612"
    },
    {
      "channel": 1,
      "note": 66,
      "start": 5.1107,
      "duration": 0.0073,
      "velocity": 99,
      "chip": "ym2612"
    },
    {
      "channel": 4,
      "note": 59,
      "start": 5.1111,
      "duration": 0.0044,
      "velocity": 102,
      "chip": "ym2612"
    },
    {
      "channel": 1,
      "note": 71,
      "start": 5.1228,
      "duration": 0.0059,
      "velocity": 99,
      "chip": "ym2612"
    },
    {
      "channel": 4,
      "note": 47,
      "start": 5.1232,
      "duration": 0.003,
      "velocity": 102,
      "chip": "ym2612"
    },
    {
      "channel": 1,
      "note": 66,
      "start": 5.1326,
      "duration": 0.0069,
      "velocity": 99,
      "chip": "ym2612"
    },
    {
      "channel": 4,
      "note": 47,
      "start": 5.1329,
      "duration": 0.003,
      "velocity": 102,
      "chip": "ym2612"
    },
    {
      "channel": 1,
      "note": 71,
      "start": 5.1424,
      "duration": 0.0074,
      "velocity": 99,
      "chip": "ym2612"
    },
    {
      "channel": 4,
      "note": 59,
      "start": 5.1428,
      "duration": 0.0041,
      "velocity": 102,
      "chip": "ym2612"
    },
    {
      "channel": 1,
      "note": 75,
      "start": 5.1527,
      "duration": 0.0068,
      "velocity": 99,
      "chip": "ym2612"
    },
    {
      "channel": 4,
      "note": 54,
      "start": 5.1531,
      "duration": 0.0038,
      "velocity": 102,
      "chip": "ym2612"
    },
    {
      "channel": 1,
      "note": 78,
      "start": 5.1647,
      "duration": 0.0067,
      "velocity": 99,
      "chip": "ym2612"
    },
    {
      "channel": 4,
      "note": 47,
      "start": 5.1651,
      "duration": 0.0028,
      "velocity": 102,
      "chip": "ym2612"
    },
    {
      "channel": 1,
      "note": 75,
      "start": 5.1742,
      "duration": 0.0066,
      "velocity": 99,
      "chip": "ym2612"
    },
    {
      "channel": 4,
      "note": 47,
      "start": 5.1746,
      "duration": 0.0026,
      "velocity": 102,
      "chip": "ym2612"
    },
    {
      "channel": 1,
      "note": 78,
      "start": 5.1838,
      "duration": 0.0069,
      "velocity": 99,
      "chip": "ym2612"
    },
    {
      "channel": 4,
      "note": 59,
      "start": 5.1842,
      "duration": 0.0038,
      "velocity": 102,
      "chip": "ym2612"
    },
    {
      "channel": 1,
      "note": 83,
      "start": 5.1956,
      "duration": 0.0056,
      "velocity": 99,
      "chip": "ym2612"
    },
    {
      "channel": 4,
      "note": 59,
      "start": 5.196,
      "duration": 0.0028,
      "velocity": 102,
      "chip": "ym2612"
    },
    {
      "channel": 1,
      "note": 87,
      "start": 5.2053,
      "duration": 0.0068,
      "velocity": 99,
      "chip": "ym2612"
    },
    {
      "channel": 4,
      "note": 47,
      "start": 5.2056,
      "duration": 0.0028,
      "velocity": 102,
      "chip": "ym2612"
    },
    {
      "channel": 1,
      "note": 83,
      "start": 5.2172,
      "duration": 0.0071,
      "velocity": 99,
      "chip": "ym2612"
    },
    {
      "channel": 4,
      "note": 47,
      "start": 5.2176,
      "duration": 0.004,
      "velocity": 102,
      "chip": "ym2612"
    },
    {
      "channel": 1,
      "note": 87,
      "start": 5.2271,
      "duration": 0.0074,
      "velocity": 99,
      "chip": "ym2612"
    },
    {
      "channel": 4,
      "note": 54,
      "start": 5.2275,
      "duration": 0.0042,
      "velocity": 102,
      "chip": "ym2612"
    },
    {
      "channel": 1,
      "note": 90,
      "start": 5.2388,
      "duration": 0.0072,
      "velocity": 99,
      "chip": "ym2612"
    },
    {
      "channel": 4,
      "note": 59,
      "start": 5.2392,
      "duration": 0.0027,
      "velocity": 102,
      "chip": "ym2612"
    },
    {
      "channel": 0,
      "note": 90,
      "start": 5.2497,
      "duration": 0.0618,
      "velocity": 99,
      "chip": "ym2612"
    },
    {
      "channel": 1,
      "note": 95,
      "start": 5.2499,
      "duration": 0.0075,
      "velocity": 99,
      "chip": "ym2612"
    },
    {
      "channel": 2,
      "note": 87,
      "start": 5.2502,
      "duration": 0.0615,
      "velocity": 99,
      "chip": "ym2612"
    },
    {
      "channel": 3,
      "note": 83,
      "start": 5.2504,
      "duration": 0.0614,
      "velocity": 99,
      "chip": "ym2612"
    },
    {
      "channel": 4,
      "note": 47,
      "start": 5.2507,
      "duration": 0.003,
      "velocity": 102,
      "chip": "ym2612"
    },
    {
      "channel": 1,
      "note": 90,
      "start": 5.2602,
      "duration": 0.0069,
      "velocity": 99,
      "chip": "ym2612"
    },
    {
      "channel": 4,
      "note": 47,
      "start": 5.2606,
      "duration": 0.0038,
      "velocity": 102,
      "chip": "ym2612"
    },
    {
      "channel": 1,
      "note": 87,
      "start": 5.2711,
      "duration": 0.0079,
      "velocity": 99,
      "chip": "ym2612"
    },
    {
      "channel": 4,
      "note": 59,
      "start": 5.2715,
      "duration": 0.0048,
      "velocity": 102,
      "chip": "ym2612"
    },
    {
      "channel": 1,
      "note": 90,
      "start": 5.2834,
      "duration": 0.0066,
      "velocity": 99,
      "chip": "ym2612"
    },
    {
      "channel": 4,
      "note": 59,
      "start": 5.2838,
      "duration": 0.0025,
      "velocity": 102,
      "chip": "ym2612"
    },
    {
      "channel": 1,
      "note": 87,
      "start": 5.2928,
      "duration": 0.0066,
      "velocity": 99,
      "chip": "ym2612"
    },
    {
      "channel": 4,
      "note": 47,
      "start": 5.2932,
      "duration": 0.0038,
      "velocity": 102,
      "chip": "ym2612"
    },
    {
      "channel": 1,
      "note": 83,
      "start": 5.3045,
      "duration": 0.0071,
      "velocity": 99,
      "chip": "ym2612"
    },
    {
      "channel": 4,
      "note": 47,
      "start": 5.3049,
      "duration": 0.004,
      "velocity": 102,
      "chip": "ym2612"
    },
    {
      "channel": 0,
      "note": 87,
      "start": 5.3155,
      "duration": 0.0578,
      "velocity": 99,
      "chip": "ym2612"
    },
    {
      "channel": 1,
      "note": 78,
      "start": 5.3157,
      "duration": 0.0075,
      "velocity": 99,
      "chip": "ym2612"
    },
    {
      "channel": 2,
      "note": 83,
      "start": 5.316,
      "duration": 0.0575,
      "velocity": 99,
      "chip": "ym2612"
    },
    {
      "channel": 3,
      "note": 78,
      "start": 5.3162,
      "duration": 0.0574,
      "velocity": 99,
      "chip": "ym2612"
    },
    {
      "channel": 4,
      "note": 59,
      "start": 5.3165,
      "duration": 0.0027,
      "velocity": 102,
      "chip": "ym2612"
    },
    {
      "channel": 1,
      "note": 83,
      "start": 5.3264,
      "duration": 0.007,
      "velocity": 99,
      "chip": "ym2612"
    },
    {
      "channel": 4,
      "note": 54,
      "start": 5.3267,
      "duration": 0.0039,
      "velocity": 102,
      "chip": "ym2612"
    },
    {
      "channel": 1,
      "note": 78,
      "start": 5.3362,
      "duration": 0.0066,
      "velocity": 99,
      "chip": "ym2612"
    },
    {
      "channel": 4,
      "note": 47,
      "start": 5.3366,
      "duration": 0.0038,
      "velocity": 102,
      "chip": "ym2612"
    },
    {
      "channel": 1,
      "note": 75,
      "start": 5.3468,
      "duration": 0.0066,
      "velocity": 99,
      "chip": "ym2612"
    },
    {
      "channel": 4,
      "note": 47,
      "start": 5.3472,
      "duration": 0.0026,
      "velocity": 102,
      "chip": "ym2612"
    },
    {
      "channel": 1,
      "note": 71,
      "start": 5.3565,
      "duration": 0.007,
      "velocity": 99,
      "chip": "ym2612"
    },
    {
      "channel": 4,
      "note": 59,
      "start": 5.3568,
      "duration": 0.0026,
      "velocity": 102,
      "chip": "ym2612"
    },
    {
      "channel": 1,
      "note": 75,
      "start": 5.3666,
      "duration": 0.0067,
      "velocity": 99,
      "chip": "ym2612"
    },
    {
      "channel": 4,
      "note": 59,
      "start": 5.367,
      "duration": 0.0037,
      "velocity": 102,
      "chip": "ym2612"
    },
    {
      "channel": 0,
      "note": 90,
      "start": 5.3774,
      "duration": 0.0369,
      "velocity": 99,
      "chip": "ym2612"
    },
    {
      "channel": 1,
      "note": 71,
      "start": 5.3777,
      "duration": 0.0058,
      "velocity": 99,
      "chip": "ym2612"
    },
    {
      "channel": 2,
      "note": 87,
      "start": 5.3779,
      "duration": 0.0366,
      "velocity": 99,
      "chip": "ym2612"
    },
    {
      "channel": 3,
      "note": 83,
      "start": 5.3782,
      "duration": 0.0365,
      "velocity": 99,
      "chip": "ym2612"
    },
    {
      "channel": 4,
      "note": 47,
      "start": 5.3784,
      "duration": 0.0026,
      "velocity": 102,
      "chip": "ym2612"
    },
    {
      "channel": 1,
      "note": 66,
      "start": 5.3875,
      "duration": 0.0067,
      "velocity": 99,
      "chip": "ym2612"
    },
    {
      "channel": 4,
      "note": 47,
      "start": 5.3878,
      "duration": 0.0025,
      "velocity": 102,
      "chip": "ym2612"
    },
    {
      "channel": 1,
      "note": 63,
      "start": 5.3971,
      "duration": 0.0072,
      "velocity": 99,
      "chip": "ym2612"
    },
    {
      "channel": 4,
      "note": 54,
      "start": 5.3975,
      "duration": 0.0039,
      "velocity": 102,
      "chip": "ym2612"
    },
    {
      "channel": 1,
      "note": 66,
      "start": 5.4072,
      "duration": 0.0073,
      "velocity": 99,
      "chip": "ym2612"
    },
    {
      "channel": 4,
      "note": 59,
      "start": 5.4076,
      "duration": 0.004,
      "velocity": 102,
      "chip": "ym2612"
    },
    {
      "channel": 0,
      "note": 89,
      "start": 5.4193,
      "duration": 0.159,
      "velocity": 99,
      "chip": "ym2612"
    },
    {
      "channel": 1,
      "note": 61,
      "start": 5.4196,
      "duration": 0.0076,
      "velocity": 99,
      "chip": "ym2612"
    },
    {
      "channel": 2,
      "note": 85,
      "start": 5.4198,
      "duration": 0.1587,
      "velocity": 99,
      "chip": "ym2612"
    },
    {
      "channel": 3,
      "note": 80,
      "start": 5.4201,
      "duration": 0.1585,
      "velocity": 99,
      "chip": "ym2612"
    },
    {
      "channel": 4,
      "note": 49,
      "start": 5.4203,
      "duration": 0.0031,
      "velocity": 102,
      "chip": "ym2612"
    },
    {
      "channel": 1,
      "note": 56,
      "start": 5.4297,
      "duration": 0.0065,
      "velocity": 99,
      "chip": "ym2612"
    },
    {
      "channel": 4,
      "note": 49,
      "start": 5.4301,
      "duration": 0.0025,
      "velocity": 102,
      "chip": "ym2612"
    },
    {
      "channel": 1,
      "note": 61,
      "start": 5.439,
      "duration": 0.0072,
      "velocity": 99,
      "chip": "ym2612"
    },
    {
      "channel": 4,
      "note": 61,
      "start": 5.4394,
      "duration": 0.0041,
      "velocity": 102,
      "chip": "ym2612"
    },
    {
      "channel": 1,
      "note": 65,
      "start": 5.4503,
      "duration": 0.0057,
      "velocity": 99,
      "chip": "ym2612"
    },
    {
      "channel": 4,
      "note": 61,
      "start": 5.4507,
      "duration": 0.0028,
      "velocity": 102,
      "chip": "ym2612"
    },
    {
      "channel": 1,
      "note": 68,
      "start": 5.46,
      "duration": 0.007,
      "velocity": 99,
      "chip": "ym2612"
    },
    {
      "channel": 4,
      "note": 49,
      "start": 5.4603,
      "duration": 0.0027,
      "velocity": 102,
      "chip": "ym2612"
    },
    {
      "channel": 1,
      "note": 65,
      "start": 5.4705,
      "duration": 0.0066,
      "velocity": 99,
      "chip": "ym2612"
    },
    {
      "channel": 4,
      "note": 49,
      "start": 5.4709,
      "duration": 0.0038,
      "velocity": 102,
      "chip": "ym2612"
    },
    {
      "channel": 1,
      "note": 68,
      "start": 5.4808,
      "duration": 0.0073,
      "velocity": 99,
      "chip": "ym2612"
    },
    {
      "channel": 4,
      "note": 61,
      "start": 5.4811,
      "duration": 0.0043,
      "velocity": 102,
      "chip": "ym2612"
    },
    {
      "channel": 1,
      "note": 73,
      "start": 5.4921,
      "duration": 0.007,
      "velocity": 99,
      "chip": "ym2612"
    },
    {
      "channel": 4,
      "note": 56,
      "start": 5.4925,
      "duration": 0.0029,
      "velocity": 102,
      "chip": "ym2612"
    },
    {
      "channel": 1,
      "note": 77,
      "start": 5.5018,
      "duration": 0.0069,
      "velocity": 99,
      "chip": "ym2612"
    },
    {
      "channel": 4,
      "note": 49,
      "start": 5.5022,
      "duration": 0.0027,
      "velocity": 102,
      "chip": "ym2612"
    },
    {
      "channel": 1,
      "note": 73,
      "start": 5.5113,
      "duration": 0.0064,
      "velocity": 99,
      "chip": "ym2612"
    },
    {
      "channel": 4,
      "note": 49,
      "start": 5.5117,
      "duration": 0.0036,
      "velocity": 102,
      "chip": "ym2612"
    },
    {
      "channel": 1,
      "note": 77,
      "start": 5.5218,
      "duration": 0.0058,
      "velocity": 99,
      "chip": "ym2612"
    },
    {
      "channel": 4,
      "note": 61,
      "start": 5.5222,
      "duration": 0.0027,
      "velocity": 102,
      "chip": "ym2612"
    },
    {
      "channel": 1,
      "note": 80,
      "start": 5.5316,
      "duration": 0.0063,
      "velocity": 99,
      "chip": "ym2612"
    },
    {
      "channel": 4,
      "note": 61,
      "start": 5.532,
      "duration": 0.0025,
      "velocity": 102,
      "chip": "ym2612"
    },
    {
      "channel": 1,
      "note": 85,
      "start": 5.5406,
      "duration": 0.0068,
      "velocity": 99,
      "chip": "ym2612"
    },
    {
      "channel": 4,
      "note": 49,
      "start": 5.541,
      "duration": 0.0036,
      "velocity": 102,
      "chip": "ym2612"
    },
    {
      "channel": 1,
      "note": 80,
      "start": 5.551,
      "duration": 0.0067,
      "velocity": 99,
      "chip": "ym2612"
    },
    {
      "channel": 4,
      "note": 49,
      "start": 5.5514,
      "duration": 0.0039,
      "velocity": 102,
      "chip": "ym2612"
    },
    {
      "channel": 1,
      "note": 85,
      "start": 5.5615,
      "duration": 0.0074,
      "velocity": 99,
      "chip": "ym2612"
    },
    {
      "channel": 4,
      "note": 56,
      "start": 5.5618,
      "duration": 0.0033,
      "velocity": 102,
      "chip": "ym2612"
    },
    {
      "channel": 1,
      "note": 89,
      "start": 5.5715,
      "duration": 0.0069,
      "velocity": 99,
      "chip": "ym2612"
    },
    {
      "channel": 4,
      "note": 61,
      "start": 5.5719,
      "duration": 0.0026,
      "velocity": 102,
      "chip": "ym2612"
    },
    {
      "channel": 0,
      "note": 80,
      "start": 5.5814,
      "duration": 0.0407,
      "velocity": 99,
      "chip": "ym2612"
    },
    {
      "channel": 1,
      "note": 65,
      "start": 5.5817,
      "duration": 0.0078,
      "velocity": 99,
      "chip": "ym2612"
    },
    {
      "channel": 2,
      "note": 77,
      "start": 5.5819,
      "duration": 0.0404,
      "velocity": 99,
      "chip": "ym2612"
    },
    {
      "channel": 3,
      "note": 73,
      "start": 5.5822,
      "duration": 0.0403,
      "velocity": 99,
      "chip": "ym2612"
    },
    {
      "channel": 4,
      "note": 49,
      "start": 5.5824,
      "duration": 0.0294,
      "velocity": 102,
      "chip": "ym2612"
    },
    {
      "channel": 1,
      "note": 68,
      "start": 5.5939,
      "duration": 0.006,
      "velocity": 99,
      "chip": "ym2612"
    },
    {
      "channel": 1,
      "note": 73,
      "start": 5.6043,
      "duration": 0.0073,
      "velocity": 99,
      "chip": "ym2612"
    },
    {
      "channel": 1,
      "note": 77,
      "start": 5.6149,
      "duration": 0.0073,
      "velocity": 99,
      "chip": "ym2612"
    },
    {
      "channel": 0,
      "note": 85,
      "start": 5.6253,
      "duration": 0.0405,
      "velocity": 99,
      "chip": "ym2612"
    },
    {
      "channel": 1,
      "note": 73,
      "start": 5.6256,
      "duration": 0.0077,
      "velocity": 99,
      "chip": "ym2612"
    },
    {
      "channel": 2,
      "note": 80,
      "start": 5.6258,
      "duration": 0.0402,
      "velocity": 99,
      "chip": "ym2612"
    },
    {
      "channel": 3,
      "note": 77,
      "start": 5.626,
      "duration": 0.0401,
      "velocity": 99,
      "chip": "ym2612"
    },
    {
      "channel": 4,
      "note": 49,
      "start": 5.6263,
      "duration": 0.0292,
      "velocity": 102,
      "chip": "ym2612"
    },
    {
      "channel": 1,
      "note": 77,
      "start": 5.6375,
      "duration": 0.0073,
      "velocity": 99,
      "chip": "ym2612"
    },
    {
      "channel": 1,
      "note": 80,
      "start": 5.648,
      "duration": 0.0073,
      "velocity": 99,
      "chip": "ym2612"
    },
    {
      "channel": 1,
      "note": 85,
      "start": 5.6586,
      "duration": 0.0074,
      "velocity": 99,
      "chip": "ym2612"
    },
    {
      "channel": 0,
      "note": 89,
      "start": 5.6705,
      "duration": 0.0394,
      "velocity": 99,
      "chip": "ym2612"
    },
    {
      "channel": 1,
      "note": 80,
      "start": 5.6707,
      "duration": 0.0066,
      "velocity": 99,
      "chip": "ym2612"
    },
    {
      "channel": 2,
      "note": 85,
      "start": 5.671,
      "duration": 0.0391,
      "velocity": 99,
      "chip": "ym2612"
    },
    {
      "channel": 3,
      "note": 80,
      "start": 5.6712,
      "duration": 0.039,
      "velocity": 99,
      "chip": "ym2612"
    },
    {
      "channel": 4,
      "note": 49,
      "start": 5.6715,
      "duration": 0.0282,
      "velocity": 102,
      "chip": "ym2612"
    },
    {
      "channel": 1,
      "note": 85,
      "start": 5.6819,
      "duration": 0.0073,
      "velocity": 99,
      "chip": "ym2612"
    },
    {
      "channel": 1,
      "note": 89,
      "start": 5.6921,
      "duration": 0.0073,
      "velocity": 99,
      "chip": "ym2612"
    },
    {
      "channel": 1,
      "note": 92,
      "start": 5.7027,
      "duration": 0.0073,
      "velocity": 99,
      "chip": "ym2612"
    },
    {
      "channel": 0,
      "note": 92,
      "start": 5.7144,
      "duration": 0.0409,
      "velocity": 99,
      "chip": "ym2612"
    },
    {
      "channel": 1,
      "note": 89,
      "start": 5.7147,
      "duration": 0.0081,
      "velocity": 99,
      "chip": "ym2612"
    },
    {
      "channel": 2,
      "note": 89,
      "start": 5.7149,
      "duration": 0.0407,
      "velocity": 99,
      "chip": "ym2612"
    },
    {
      "channel": 3,
      "note": 85,
      "start": 5.7151,
      "duration": 0.0405,
      "velocity": 99,
      "chip": "ym2612"
    },
    {
      "channel": 4,
      "note": 49,
      "start": 5.7154,
      "duration": 0.0287,
      "velocity": 102,
      "chip": "ym2612"
    },
    {
      "channel": 1,
      "note": 92,
      "start": 5.7261,
      "duration": 0.0074,
      "velocity": 99,
      "chip": "ym2612"
    },
    {
      "channel": 1,
      "note": 97,
      "start": 5.7366,
      "duration": 0.0072,
      "velocity": 99,
      "chip": "ym2612"
    },
    {
      "channel": 1,
      "note": 101,
      "start": 5.7482,
      "duration": 0.0073,
      "velocity": 99,
      "chip": "ym2612"
    },
    {
      "channel": 1,
      "note": 94,
      "start": 5.7599,
      "duration": 0.0072,
      "velocity": 99,
      "chip": "ym2612"
    },
    {
      "channel": 2,
      "note": 87,
      "start": 5.7603,
      "duration": 0.0162,
      "velocity": 99,
      "chip": "ym2612"
    },
    {
      "channel": 3,
      "note": 82,
      "start": 5.7605,
      "duration": 0.0161,
      "velocity": 99,
      "chip": "ym2612"
    },
    {
      "channel": 4,
      "note": 51,
      "start": 5.7608,
      "duration": 0.0094,
      "velocity": 102,
      "chip": "ym2612"
    },
    {
      "channel": 0,
      "note": 94,
      "start": 5.7697,
      "duration": 0.0065,
      "velocity": 99,
      "chip": "ym2612"
    },
    {
      "channel": 1,
      "note": 91,
      "start": 5.77,
      "duration": 0.0064,
      "velocity": 99,
      "chip": "ym2612"
    },
    {
      "channel": 0,
      "note": 91,
      "start": 5.7802,
      "duration": 0.0054,
      "velocity": 99,
      "chip": "ym2612"
    },
    {
      "channel": 1,
      "note": 87,
      "start": 5.7804,
      "duration": 0.0053,
      "velocity": 99,
      "chip": "ym2612"
    },
    {
      "channel": 0,
      "note": 87,
      "start": 5.7895,
      "duration": 0.0064,
      "velocity": 99,
      "chip": "ym2612"
    },
    {
      "channel": 1,
      "note": 91,
      "start": 5.7897,
      "duration": 0.0062,
      "velocity": 99,
      "chip": "ym2612"
    },
    {
      "channel": 0,
      "note": 91,
      "start": 5.7986,
      "duration": 0.0064,
      "velocity": 99,
      "chip": "ym2612"
    },
    {
      "channel": 1,
      "note": 87,
      "start": 5.7988,
      "duration": 0.0063,
      "velocity": 99,
      "chip": "ym2612"
    },
    {
      "channel": 0,
      "note": 87,
      "start": 5.8077,
      "duration": 0.0065,
      "velocity": 99,
      "chip": "ym2612"
    },
    {
      "channel": 1,
      "note": 82,
      "start": 5.8079,
      "duration": 0.0063,
      "velocity": 99,
      "chip": "ym2612"
    },
    {
      "channel": 0,
      "note": 82,
      "start": 5.8273,
      "duration": 0.0833,
      "velocity": 99,
      "chip": "ym2612"
    },
    {
      "channel": 1,
      "note": 79,
      "start": 5.8276,
      "duration": 0.0832,
      "velocity": 99,
      "chip": "ym2612"
    },
    {
      "channel": 0,
      "note": 79,
      "start": 5.9441,
      "duration": 0.0833,
      "velocity": 99,
      "chip": "ym2612"
    },
    {
      "channel": 1,
      "note": 82,
      "start": 5.9444,
      "duration": 0.0832,
      "velocity": 99,
      "chip": "ym2612"
    },
    {
      "channel": 0,
      "note": 82,
      "start": 6.0609,
      "duration": 0.0833,
      "velocity": 99,
      "chip": "ym2612"
    },
    {
      "channel": 1,
      "note": 79,
      "start": 6.0612,
      "duration": 0.0832,
      "velocity": 99,
      "chip": "ym2612"
    },
    {
      "channel": 0,
      "note": 79,
      "start": 6.1944,
      "duration": 0.0666,
      "velocity": 99,
      "chip": "ym2612"
    },
    {
      "channel": 1,
      "note": 75,
      "start": 6.1947,
      "duration": 0.0665,
      "velocity": 99,
      "chip": "ym2612"
    },
    {
      "channel": 0,
      "note": 75,
      "start": 6.3113,
      "duration": 0.0833,
      "velocity": 99,
      "chip": "ym2612"
    },
    {
      "channel": 1,
      "note": 70,
      "start": 6.3115,
      "duration": 0.0832,
      "velocity": 99,
      "chip": "ym2612"
    },
    {
      "channel": 0,
      "note": 70,
      "start": 6.4281,
      "duration": 0.0833,
      "velocity": 99,
      "chip": "ym2612"
    },
    {
      "channel": 1,
      "note": 75,
      "start": 6.4283,
      "duration": 0.0832,
      "velocity": 99,
      "chip": "ym2612"
    },
    {
      "channel": 0,
      "note": 75,
      "start": 6.5449,
      "duration": 0.0833,
      "velocity": 99,
      "chip": "ym2612"
    },
    {
      "channel": 1,
      "note": 70,
      "start": 6.5451,
      "duration": 0.0832,
      "velocity": 99,
      "chip": "ym2612"
    },
    {
      "channel": 0,
      "note": 70,
      "start": 6.6784,
      "duration": 0.0833,
      "velocity": 99,
      "chip": "ym2612"
    },
    {
      "channel": 1,
      "note": 67,
      "start": 6.6786,
      "duration": 0.0832,
      "velocity": 99,
      "chip": "ym2612"
    },
    {
      "channel": 0,
      "note": 67,
      "start": 6.7952,
      "duration": 0.0833,
      "velocity": 99,
      "chip": "ym2612"
    },
    {
      "channel": 1,
      "note": 63,
      "start": 6.7955,
      "duration": 0.0832,
      "velocity": 99,
      "chip": "ym2612"
    },
    {
      "channel": 0,
      "note": 63,
      "start": 6.912,
      "duration": 0.0833,
      "velocity": 99,
      "chip": "ym2612"
    },
    {
      "channel": 1,
      "note": 67,
      "start": 6.9123,
      "duration": 0.0498,
      "velocity": 99,
      "chip": "ym2612"
    },
    {
      "channel": 0,
      "note": 87,
      "start": 7.0468,
      "duration": 28.4847,
      "velocity": 99,
      "chip": "ym2612"
    },
    {
      "channel": 1,
      "note": 82,
      "start": 7.047,
      "duration": 28.4844,
      "velocity": 99,
      "chip": "ym2612"
    },
    {
      "channel": 2,
      "note": 79,
      "start": 7.0475,
      "duration": 28.4839,
      "velocity": 99,
      "chip": "ym2612"
    }
  ]
}