{
  "track_name": "16 - Stage 4",
  "duration_sec": 37.34,
  "sample_rate": 44100,
  "note_count": 933,
  "unique_pitches": 26,
  "pitch_range": 38,
  "avg_note_duration": 0.196,
  "reconstruction_stats": {
    "notes_reconstructed": 933,
    "keyon_events": 933,
    "keyoff_events": 929,
    "orphan_keyons": 4,
    "unique_pitches": 26,
    "pitch_range": 38,
    "avg_duration_sec": 0.196
  },
  "metadata": {
    "source": "S\\Splatterhouse 3\\16 - Stage 4.vgz"
  },
  "notes": [
    {
      "channel": 1,
      "note": 61,
      "start": 0.0069,
      "duration": 0.1245,
      "velocity": 92,
      "chip": "ym2612"
    },
    {
      "channel": 2,
      "note": 69,
      "start": 0.0105,
      "duration": 0.9221,
      "velocity": 85,
      "chip": "ym2612"
    },
    {
      "channel": 1,
      "note": 61,
      "start": 0.1315,
      "duration": 0.0332,
      "velocity": 92,
      "chip": "ym2612"
    },
    {
      "channel": 1,
      "note": 63,
      "start": 0.1649,
      "duration": 0.1165,
      "velocity": 92,
      "chip": "ym2612"
    },
    {
      "channel": 3,
      "note": 69,
      "start": 0.2327,
      "duration": 0.9336,
      "velocity": 85,
      "chip": "ym2612"
    },
    {
      "channel": 1,
      "note": 63,
      "start": 0.2815,
      "duration": 0.0333,
      "velocity": 92,
      "chip": "ym2612"
    },
    {
      "channel": 1,
      "note": 62,
      "start": 0.3149,
      "duration": 0.1166,
      "velocity": 92,
      "chip": "ym2612"
    },
    {
      "channel": 1,
      "note": 62,
      "start": 0.4316,
      "duration": 0.0332,
      "velocity": 92,
      "chip": "ym2612"
    },
    {
      "channel": 1,
      "note": 61,
      "start": 0.4649,
      "duration": 0.1331,
      "velocity": 92,
      "chip": "ym2612"
    },
    {
      "channel": 1,
      "note": 61,
      "start": 0.5981,
      "duration": 0.0333,
      "velocity": 92,
      "chip": "ym2612"
    },
    {
      "channel": 1,
      "note": 63,
      "start": 0.6315,
      "duration": 0.1165,
      "velocity": 92,
      "chip": "ym2612"
    },
    {
      "channel": 1,
      "note": 63,
      "start": 0.7482,
      "duration": 0.0332,
      "velocity": 92,
      "chip": "ym2612"
    },
    {
      "channel": 1,
      "note": 62,
      "start": 0.7815,
      "duration": 0.1165,
      "velocity": 92,
      "chip": "ym2612"
    },
    {
      "channel": 1,
      "note": 62,
      "start": 0.8982,
      "duration": 0.0335,
      "velocity": 92,
      "chip": "ym2612"
    },
    {
      "channel": 1,
      "note": 61,
      "start": 0.9318,
      "duration": 0.1329,
      "velocity": 92,
      "chip": "ym2612"
    },
    {
      "channel": 2,
      "note": 68,
      "start": 0.9327,
      "duration": 0.2326,
      "velocity": 85,
      "chip": "ym2612"
    },
    {
      "channel": 1,
      "note": 61,
      "start": 1.0649,
      "duration": 0.0332,
      "velocity": 92,
      "chip": "ym2612"
    },
    {
      "channel": 1,
      "note": 63,
      "start": 1.0982,
      "duration": 0.1166,
      "velocity": 92,
      "chip": "ym2612"
    },
    {
      "channel": 2,
      "note": 67,
      "start": 1.1654,
      "duration": 2.5683,
      "velocity": 85,
      "chip": "ym2612"
    },
    {
      "channel": 3,
      "note": 68,
      "start": 1.1665,
      "duration": 0.2332,
      "velocity": 85,
      "chip": "ym2612"
    },
    {
      "channel": 1,
      "note": 63,
      "start": 1.2149,
      "duration": 0.0332,
      "velocity": 92,
      "chip": "ym2612"
    },
    {
      "channel": 1,
      "note": 62,
      "start": 1.2483,
      "duration": 0.1165,
      "velocity": 92,
      "chip": "ym2612"
    },
    {
      "channel": 1,
      "note": 62,
      "start": 1.3649,
      "duration": 0.0334,
      "velocity": 92,
      "chip": "ym2612"
    },
    {
      "channel": 1,
      "note": 61,
      "start": 1.3985,
      "duration": 0.133,
      "velocity": 92,
      "chip": "ym2612"
    },
    {
      "channel": 3,
      "note": 67,
      "start": 1.3997,
      "duration": 2.5659,
      "velocity": 85,
      "chip": "ym2612"
    },
    {
      "channel": 1,
      "note": 61,
      "start": 1.5316,
      "duration": 0.0331,
      "velocity": 92,
      "chip": "ym2612"
    },
    {
      "channel": 1,
      "note": 63,
      "start": 1.5649,
      "duration": 0.1166,
      "velocity": 92,
      "chip": "ym2612"
    },
    {
      "channel": 1,
      "note": 63,
      "start": 1.6815,
      "duration": 0.0333,
      "velocity": 92,
      "chip": "ym2612"
    },
    {
      "channel": 1,
      "note": 62,
      "start": 1.7149,
      "duration": 0.1165,
      "velocity": 92,
      "chip": "ym2612"
    },
    {
      "channel": 1,
      "note": 62,
      "start": 1.8315,
      "duration": 0.0347,
      "velocity": 92,
      "chip": "ym2612"
    },
    {
      "channel": 0,
      "note": 79,
      "start": 1.8654,
      "duration": 0.2331,
      "velocity": 87,
      "chip": "ym2612"
    },
    {
      "channel": 1,
      "note": 61,
      "start": 1.8663,
      "duration": 0.132,
      "velocity": 92,
      "chip": "ym2612"
    },
    {
      "channel": 1,
      "note": 61,
      "start": 1.9985,
      "duration": 0.0332,
      "velocity": 92,
      "chip": "ym2612"
    },
    {
      "channel": 1,
      "note": 63,
      "start": 2.0318,
      "duration": 0.1166,
      "velocity": 92,
      "chip": "ym2612"
    },
    {
      "channel": 0,
      "note": 78,
      "start": 2.0986,
      "duration": 0.2332,
      "velocity": 87,
      "chip": "ym2612"
    },
    {
      "channel": 4,
      "note": 79,
      "start": 2.1004,
      "duration": 0.2338,
      "velocity": 87,
      "chip": "ym2612"
    },
    {
      "channel": 1,
      "note": 63,
      "start": 2.1485,
      "duration": 0.0332,
      "velocity": 92,
      "chip": "ym2612"
    },
    {
      "channel": 1,
      "note": 62,
      "start": 2.1819,
      "duration": 0.1165,
      "velocity": 92,
      "chip": "ym2612"
    },
    {
      "channel": 1,
      "note": 62,
      "start": 2.2985,
      "duration": 0.0343,
      "velocity": 92,
      "chip": "ym2612"
    },
    {
      "channel": 0,
      "note": 77,
      "start": 2.3319,
      "duration": 0.2329,
      "velocity": 87,
      "chip": "ym2612"
    },
    {
      "channel": 1,
      "note": 61,
      "start": 2.3329,
      "duration": 0.1322,
      "velocity": 92,
      "chip": "ym2612"
    },
    {
      "channel": 4,
      "note": 78,
      "start": 2.3343,
      "duration": 0.2323,
      "velocity": 87,
      "chip": "ym2612"
    },
    {
      "channel": 1,
      "note": 61,
      "start": 2.4652,
      "duration": 0.0332,
      "velocity": 92,
      "chip": "ym2612"
    },
    {
      "channel": 1,
      "note": 63,
      "start": 2.4985,
      "duration": 0.1166,
      "velocity": 92,
      "chip": "ym2612"
    },
    {
      "channel": 0,
      "note": 76,
      "start": 2.565,
      "duration": 0.2335,
      "velocity": 87,
      "chip": "ym2612"
    },
    {
      "channel": 4,
      "note": 77,
      "start": 2.5667,
      "duration": 0.2342,
      "velocity": 87,
      "chip": "ym2612"
    },
    {
      "channel": 1,
      "note": 63,
      "start": 2.6151,
      "duration": 0.0333,
      "velocity": 92,
      "chip": "ym2612"
    },
    {
      "channel": 1,
      "note": 62,
      "start": 2.6485,
      "duration": 0.1165,
      "velocity": 92,
      "chip": "ym2612"
    },
    {
      "channel": 1,
      "note": 62,
      "start": 2.7651,
      "duration": 0.0344,
      "velocity": 92,
      "chip": "ym2612"
    },
    {
      "channel": 0,
      "note": 75,
      "start": 2.7986,
      "duration": 0.233,
      "velocity": 87,
      "chip": "ym2612"
    },
    {
      "channel": 1,
      "note": 61,
      "start": 2.7995,
      "duration": 0.1322,
      "velocity": 92,
      "chip": "ym2612"
    },
    {
      "channel": 4,
      "note": 76,
      "start": 2.801,
      "duration": 0.2323,
      "velocity": 87,
      "chip": "ym2612"
    },
    {
      "channel": 1,
      "note": 61,
      "start": 2.9319,
      "duration": 0.0332,
      "velocity": 92,
      "chip": "ym2612"
    },
    {
      "channel": 1,
      "note": 63,
      "start": 2.9652,
      "duration": 0.1165,
      "velocity": 92,
      "chip": "ym2612"
    },
    {
      "channel": 0,
      "note": 74,
      "start": 3.0317,
      "duration": 0.2335,
      "velocity": 87,
      "chip": "ym2612"
    },
    {
      "channel": 4,
      "note": 75,
      "start": 3.0334,
      "duration": 0.2341,
      "velocity": 87,
      "chip": "ym2612"
    },
    {
      "channel": 1,
      "note": 63,
      "start": 3.0819,
      "duration": 0.0332,
      "velocity": 92,
      "chip": "ym2612"
    },
    {
      "channel": 1,
      "note": 62,
      "start": 3.1152,
      "duration": 0.1165,
      "velocity": 92,
      "chip": "ym2612"
    },
    {
      "channel": 1,
      "note": 62,
      "start": 3.2319,
      "duration": 0.0342,
      "velocity": 92,
      "chip": "ym2612"
    },
    {
      "channel": 0,
      "note": 69,
      "start": 3.2653,
      "duration": 0.2329,
      "velocity": 87,
      "chip": "ym2612"
    },
    {
      "channel": 1,
      "note": 61,
      "start": 3.2662,
      "duration": 0.1322,
      "velocity": 92,
      "chip": "ym2612"
    },
    {
      "channel": 4,
      "note": 74,
      "start": 3.2676,
      "duration": 0.2323,
      "velocity": 87,
      "chip": "ym2612"
    },
    {
      "channel": 1,
      "note": 61,
      "start": 3.3985,
      "duration": 0.0332,
      "velocity": 92,
      "chip": "ym2612"
    },
    {
      "channel": 1,
      "note": 63,
      "start": 3.4318,
      "duration": 0.1166,
      "velocity": 92,
      "chip": "ym2612"
    },
    {
      "channel": 0,
      "note": 70,
      "start": 3.4983,
      "duration": 0.2337,
      "velocity": 87,
      "chip": "ym2612"
    },
    {
      "channel": 4,
      "note": 69,
      "start": 3.5,
      "duration": 0.2349,
      "velocity": 87,
      "chip": "ym2612"
    },
    {
      "channel": 1,
      "note": 63,
      "start": 3.5485,
      "duration": 0.0333,
      "velocity": 92,
      "chip": "ym2612"
    },
    {
      "channel": 1,
      "note": 62,
      "start": 3.5819,
      "duration": 0.1165,
      "velocity": 92,
      "chip": "ym2612"
    },
    {
      "channel": 1,
      "note": 62,
      "start": 3.6985,
      "duration": 0.0344,
      "velocity": 92,
      "chip": "ym2612"
    },
    {
      "channel": 1,
      "note": 61,
      "start": 3.7329,
      "duration": 0.1319,
      "velocity": 92,
      "chip": "ym2612"
    },
    {
      "channel": 2,
      "note": 69,
      "start": 3.7339,
      "duration": 0.9321,
      "velocity": 85,
      "chip": "ym2612"
    },
    {
      "channel": 4,
      "note": 70,
      "start": 3.735,
      "duration": 0.2312,
      "velocity": 87,
      "chip": "ym2612"
    },
    {
      "channel": 1,
      "note": 61,
      "start": 3.8649,
      "duration": 0.0333,
      "velocity": 92,
      "chip": "ym2612"
    },
    {
      "channel": 1,
      "note": 63,
      "start": 3.8982,
      "duration": 0.1165,
      "velocity": 92,
      "chip": "ym2612"
    },
    {
      "channel": 3,
      "note": 69,
      "start": 3.9658,
      "duration": 0.9339,
      "velocity": 85,
      "chip": "ym2612"
    },
    {
      "channel": 1,
      "note": 63,
      "start": 4.0149,
      "duration": 0.0333,
      "velocity": 92,
      "chip": "ym2612"
    },
    {
      "channel": 1,
      "note": 62,
      "start": 4.0482,
      "duration": 0.1166,
      "velocity": 92,
      "chip": "ym2612"
    },
    {
      "channel": 1,
      "note": 62,
      "start": 4.1649,
      "duration": 0.0332,
      "velocity": 92,
      "chip": "ym2612"
    },
    {
      "channel": 1,
      "note": 61,
      "start": 4.1983,
      "duration": 0.1331,
      "velocity": 92,
      "chip": "ym2612"
    },
    {
      "channel": 1,
      "note": 61,
      "start": 4.3315,
      "duration": 0.0333,
      "velocity": 92,
      "chip": "ym2612"
    },
    {
      "channel": 1,
      "note": 63,
      "start": 4.3649,
      "duration": 0.1165,
      "velocity": 92,
      "chip": "ym2612"
    },
    {
      "channel": 1,
      "note": 63,
      "start": 4.4815,
      "duration": 0.0332,
      "velocity": 92,
      "chip": "ym2612"
    },
    {
      "channel": 1,
      "note": 62,
      "start": 4.5149,
      "duration": 0.1165,
      "velocity": 92,
      "chip": "ym2612"
    },
    {
      "channel": 1,
      "note": 62,
      "start": 4.6315,
      "duration": 0.0335,
      "velocity": 92,
      "chip": "ym2612"
    },
    {
      "channel": 1,
      "note": 61,
      "start": 4.6651,
      "duration": 0.1329,
      "velocity": 92,
      "chip": "ym2612"
    },
    {
      "channel": 2,
      "note": 68,
      "start": 4.6661,
      "duration": 0.2326,
      "velocity": 85,
      "chip": "ym2612"
    },
    {
      "channel": 1,
      "note": 61,
      "start": 4.7982,
      "duration": 0.0332,
      "velocity": 92,
      "chip": "ym2612"
    },
    {
      "channel": 1,
      "note": 63,
      "start": 4.8315,
      "duration": 0.1166,
      "velocity": 92,
      "chip": "ym2612"
    },
    {
      "channel": 2,
      "note": 67,
      "start": 4.8988,
      "duration": 2.5684,
      "velocity": 85,
      "chip": "ym2612"
    },
    {
      "channel": 3,
      "note": 68,
      "start": 4.8998,
      "duration": 0.2332,
      "velocity": 85,
      "chip": "ym2612"
    },
    {
      "channel": 1,
      "note": 63,
      "start": 4.9483,
      "duration": 0.0332,
      "velocity": 92,
      "chip": "ym2612"
    },
    {
      "channel": 1,
      "note": 62,
      "start": 4.9816,
      "duration": 0.1165,
      "velocity": 92,
      "chip": "ym2612"
    },
    {
      "channel": 1,
      "note": 62,
      "start": 5.0983,
      "duration": 0.0334,
      "velocity": 92,
      "chip": "ym2612"
    },
    {
      "channel": 1,
      "note": 61,
      "start": 5.1318,
      "duration": 0.133,
      "velocity": 92,
      "chip": "ym2612"
    },
    {
      "channel": 3,
      "note": 67,
      "start": 5.1331,
      "duration": 2.566,
      "velocity": 85,
      "chip": "ym2612"
    },
    {
      "channel": 1,
      "note": 61,
      "start": 5.2649,
      "duration": 0.0331,
      "velocity": 92,
      "chip": "ym2612"
    },
    {
      "channel": 1,
      "note": 63,
      "start": 5.2982,
      "duration": 0.1166,
      "velocity": 92,
      "chip": "ym2612"
    },
    {
      "channel": 1,
      "note": 63,
      "start": 5.4149,
      "duration": 0.0333,
      "velocity": 92,
      "chip": "ym2612"
    },
    {
      "channel": 1,
      "note": 62,
      "start": 5.4483,
      "duration": 0.1165,
      "velocity": 92,
      "chip": "ym2612"
    },
    {
      "channel": 1,
      "note": 62,
      "start": 5.5649,
      "duration": 0.0347,
      "velocity": 92,
      "chip": "ym2612"
    },
    {
      "channel": 0,
      "note": 79,
      "start": 5.5987,
      "duration": 0.2331,
      "velocity": 87,
      "chip": "ym2612"
    },
    {
      "channel": 1,
      "note": 61,
      "start": 5.5997,
      "duration": 0.132,
      "velocity": 92,
      "chip": "ym2612"
    },
    {
      "channel": 1,
      "note": 61,
      "start": 5.7318,
      "duration": 0.0332,
      "velocity": 92,
      "chip": "ym2612"
    },
    {
      "channel": 1,
      "note": 63,
      "start": 5.7651,
      "duration": 0.1166,
      "velocity": 92,
      "chip": "ym2612"
    },
    {
      "channel": 0,
      "note": 78,
      "start": 5.8319,
      "duration": 0.2332,
      "velocity": 87,
      "chip": "ym2612"
    },
    {
      "channel": 4,
      "note": 79,
      "start": 5.8337,
      "duration": 0.2338,
      "velocity": 87,
      "chip": "ym2612"
    },
    {
      "channel": 1,
      "note": 63,
      "start": 5.8819,
      "duration": 0.0332,
      "velocity": 92,
      "chip": "ym2612"
    },
    {
      "channel": 1,
      "note": 62,
      "start": 5.9152,
      "duration": 0.1165,
      "velocity": 92,
      "chip": "ym2612"
    },
    {
      "channel": 1,
      "note": 62,
      "start": 6.0318,
      "duration": 0.0343,
      "velocity": 92,
      "chip": "ym2612"
    },
    {
      "channel": 0,
      "note": 77,
      "start": 6.0653,
      "duration": 0.2329,
      "velocity": 87,
      "chip": "ym2612"
    },
    {
      "channel": 1,
      "note": 61,
      "start": 6.0662,
      "duration": 0.1322,
      "velocity": 92,
      "chip": "ym2612"
    },
    {
      "channel": 4,
      "note": 78,
      "start": 6.0676,
      "duration": 0.2323,
      "velocity": 87,
      "chip": "ym2612"
    },
    {
      "channel": 1,
      "note": 61,
      "start": 6.1985,
      "duration": 0.0332,
      "velocity": 92,
      "chip": "ym2612"
    },
    {
      "channel": 1,
      "note": 63,
      "start": 6.2318,
      "duration": 0.1166,
      "velocity": 92,
      "chip": "ym2612"
    },
    {
      "channel": 0,
      "note": 76,
      "start": 6.2983,
      "duration": 0.2335,
      "velocity": 87,
      "chip": "ym2612"
    },
    {
      "channel": 4,
      "note": 77,
      "start": 6.3,
      "duration": 0.2342,
      "velocity": 87,
      "chip": "ym2612"
    },
    {
      "channel": 1,
      "note": 63,
      "start": 6.3485,
      "duration": 0.0333,
      "velocity": 92,
      "chip": "ym2612"
    },
    {
      "channel": 1,
      "note": 62,
      "start": 6.3819,
      "duration": 0.1165,
      "velocity": 92,
      "chip": "ym2612"
    },
    {
      "channel": 1,
      "note": 62,
      "start": 6.4985,
      "duration": 0.0344,
      "velocity": 92,
      "chip": "ym2612"
    },
    {
      "channel": 0,
      "note": 82,
      "start": 6.5319,
      "duration": 0.233,
      "velocity": 87,
      "chip": "ym2612"
    },
    {
      "channel": 1,
      "note": 61,
      "start": 6.5329,
      "duration": 0.1322,
      "velocity": 92,
      "chip": "ym2612"
    },
    {
      "channel": 4,
      "note": 76,
      "start": 6.5343,
      "duration": 0.2323,
      "velocity": 87,
      "chip": "ym2612"
    },
    {
      "channel": 1,
      "note": 61,
      "start": 6.6652,
      "duration": 0.0332,
      "velocity": 92,
      "chip": "ym2612"
    },
    {
      "channel": 1,
      "note": 62,
      "start": 6.6985,
      "duration": 0.1165,
      "velocity": 92,
      "chip": "ym2612"
    },
    {
      "channel": 0,
      "note": 71,
      "start": 6.765,
      "duration": 0.2335,
      "velocity": 87,
      "chip": "ym2612"
    },
    {
      "channel": 4,
      "note": 82,
      "start": 6.7667,
      "duration": 0.2341,
      "velocity": 87,
      "chip": "ym2612"
    },
    {
      "channel": 1,
      "note": 62,
      "start": 6.8152,
      "duration": 0.0332,
      "velocity": 92,
      "chip": "ym2612"
    },
    {
      "channel": 1,
      "note": 63,
      "start": 6.8485,
      "duration": 0.1165,
      "velocity": 92,
      "chip": "ym2612"
    },
    {
      "channel": 1,
      "note": 63,
      "start": 6.9652,
      "duration": 0.0342,
      "velocity": 92,
      "chip": "ym2612"
    },
    {
      "channel": 0,
      "note": 72,
      "start": 6.9986,
      "duration": 0.2329,
      "velocity": 87,
      "chip": "ym2612"
    },
    {
      "channel": 1,
      "note": 64,
      "start": 6.9995,
      "duration": 0.1322,
      "velocity": 92,
      "chip": "ym2612"
    },
    {
      "channel": 4,
      "note": 71,
      "start": 7.001,
      "duration": 0.2323,
      "velocity": 87,
      "chip": "ym2612"
    },
    {
      "channel": 1,
      "note": 64,
      "start": 7.1319,
      "duration": 0.0332,
      "velocity": 92,
      "chip": "ym2612"
    },
    {
      "channel": 1,
      "note": 65,
      "start": 7.1651,
      "duration": 0.1166,
      "velocity": 92,
      "chip": "ym2612"
    },
    {
      "channel": 0,
      "note": 73,
      "start": 7.2317,
      "duration": 0.2337,
      "velocity": 87,
      "chip": "ym2612"
    },
    {
      "channel": 4,
      "note": 72,
      "start": 7.2334,
      "duration": 0.235,
      "velocity": 87,
      "chip": "ym2612"
    },
    {
      "channel": 1,
      "note": 65,
      "start": 7.2818,
      "duration": 0.0333,
      "velocity": 92,
      "chip": "ym2612"
    },
    {
      "channel": 1,
      "note": 66,
      "start": 7.3152,
      "duration": 0.1165,
      "velocity": 92,
      "chip": "ym2612"
    },
    {
      "channel": 1,
      "note": 66,
      "start": 7.4319,
      "duration": 0.0344,
      "velocity": 92,
      "chip": "ym2612"
    },
    {
      "channel": 1,
      "note": 67,
      "start": 7.4663,
      "duration": 0.1318,
      "velocity": 92,
      "chip": "ym2612"
    },
    {
      "channel": 2,
      "note": 66,
      "start": 7.4673,
      "duration": 0.932,
      "velocity": 85,
      "chip": "ym2612"
    },
    {
      "channel": 4,
      "note": 73,
      "start": 7.4684,
      "duration": 0.2312,
      "velocity": 87,
      "chip": "ym2612"
    },
    {
      "channel": 1,
      "note": 67,
      "start": 7.5982,
      "duration": 0.0333,
      "velocity": 92,
      "chip": "ym2612"
    },
    {
      "channel": 1,
      "note": 66,
      "start": 7.6315,
      "duration": 0.1166,
      "velocity": 92,
      "chip": "ym2612"
    },
    {
      "channel": 3,
      "note": 66,
      "start": 7.6992,
      "duration": 0.9338,
      "velocity": 85,
      "chip": "ym2612"
    },
    {
      "channel": 1,
      "note": 66,
      "start": 7.7482,
      "duration": 0.0333,
      "velocity": 92,
      "chip": "ym2612"
    },
    {
      "channel": 1,
      "note": 70,
      "start": 7.7816,
      "duration": 0.1165,
      "velocity": 92,
      "chip": "ym2612"
    },
    {
      "channel": 1,
      "note": 70,
      "start": 7.8983,
      "duration": 0.0332,
      "velocity": 92,
      "chip": "ym2612"
    },
    {
      "channel": 1,
      "note": 67,
      "start": 7.9316,
      "duration": 0.1331,
      "velocity": 92,
      "chip": "ym2612"
    },
    {
      "channel": 1,
      "note": 67,
      "start": 8.0648,
      "duration": 0.0333,
      "velocity": 92,
      "chip": "ym2612"
    },
    {
      "channel": 1,
      "note": 66,
      "start": 8.0982,
      "duration": 0.1165,
      "velocity": 92,
      "chip": "ym2612"
    },
    {
      "channel": 1,
      "note": 66,
      "start": 8.2148,
      "duration": 0.0333,
      "velocity": 92,
      "chip": "ym2612"
    },
    {
      "channel": 1,
      "note": 70,
      "start": 8.2482,
      "duration": 0.1165,
      "velocity": 92,
      "chip": "ym2612"
    },
    {
      "channel": 1,
      "note": 70,
      "start": 8.3649,
      "duration": 0.0334,
      "velocity": 92,
      "chip": "ym2612"
    },
    {
      "channel": 1,
      "note": 67,
      "start": 8.3985,
      "duration": 0.1329,
      "velocity": 92,
      "chip": "ym2612"
    },
    {
      "channel": 2,
      "note": 63,
      "start": 8.3994,
      "duration": 0.2326,
      "velocity": 85,
      "chip": "ym2612"
    },
    {
      "channel": 1,
      "note": 67,
      "start": 8.5315,
      "duration": 0.0333,
      "velocity": 92,
      "chip": "ym2612"
    },
    {
      "channel": 1,
      "note": 66,
      "start": 8.5649,
      "duration": 0.1166,
      "velocity": 92,
      "chip": "ym2612"
    },
    {
      "channel": 2,
      "note": 69,
      "start": 8.6321,
      "duration": 2.5684,
      "velocity": 85,
      "chip": "ym2612"
    },
    {
      "channel": 3,
      "note": 63,
      "start": 8.6331,
      "duration": 0.2333,
      "velocity": 85,
      "chip": "ym2612"
    },
    {
      "channel": 1,
      "note": 66,
      "start": 8.6816,
      "duration": 0.0332,
      "velocity": 92,
      "chip": "ym2612"
    },
    {
      "channel": 1,
      "note": 70,
      "start": 8.7149,
      "duration": 0.1165,
      "velocity": 92,
      "chip": "ym2612"
    },
    {
      "channel": 1,
      "note": 70,
      "start": 8.8315,
      "duration": 0.0335,
      "velocity": 92,
      "chip": "ym2612"
    },
    {
      "channel": 1,
      "note": 67,
      "start": 8.8652,
      "duration": 0.1329,
      "velocity": 92,
      "chip": "ym2612"
    },
    {
      "channel": 3,
      "note": 69,
      "start": 8.8665,
      "duration": 2.5659,
      "velocity": 85,
      "chip": "ym2612"
    },
    {
      "channel": 1,
      "note": 67,
      "start": 8.9983,
      "duration": 0.0331,
      "velocity": 92,
      "chip": "ym2612"
    },
    {
      "channel": 1,
      "note": 66,
      "start": 9.0315,
      "duration": 0.1166,
      "velocity": 92,
      "chip": "ym2612"
    },
    {
      "channel": 1,
      "note": 66,
      "start": 9.1482,
      "duration": 0.0333,
      "velocity": 92,
      "chip": "ym2612"
    },
    {
      "channel": 1,
      "note": 70,
      "start": 9.1816,
      "duration": 0.1165,
      "velocity": 92,
      "chip": "ym2612"
    },
    {
      "channel": 1,
      "note": 70,
      "start": 9.2981,
      "duration": 0.0349,
      "velocity": 92,
      "chip": "ym2612"
    },
    {
      "channel": 0,
      "note": 59,
      "start": 9.3321,
      "duration": 0.233,
      "velocity": 87,
      "chip": "ym2612"
    },
    {
      "channel": 1,
      "note": 67,
      "start": 9.3331,
      "duration": 0.1319,
      "velocity": 92,
      "chip": "ym2612"
    },
    {
      "channel": 1,
      "note": 67,
      "start": 9.4651,
      "duration": 0.0332,
      "velocity": 92,
      "chip": "ym2612"
    },
    {
      "channel": 1,
      "note": 66,
      "start": 9.4985,
      "duration": 0.1166,
      "velocity": 92,
      "chip": "ym2612"
    },
    {
      "channel": 0,
      "note": 60,
      "start": 9.5653,
      "duration": 0.2332,
      "velocity": 87,
      "chip": "ym2612"
    },
    {
      "channel": 4,
      "note": 59,
      "start": 9.567,
      "duration": 0.2338,
      "velocity": 87,
      "chip": "ym2612"
    },
    {
      "channel": 1,
      "note": 66,
      "start": 9.6152,
      "duration": 0.0332,
      "velocity": 92,
      "chip": "ym2612"
    },
    {
      "channel": 1,
      "note": 70,
      "start": 9.6485,
      "duration": 0.1165,
      "velocity": 92,
      "chip": "ym2612"
    },
    {
      "channel": 1,
      "note": 70,
      "start": 9.7651,
      "duration": 0.0343,
      "velocity": 92,
      "chip": "ym2612"
    },
    {
      "channel": 0,
      "note": 61,
      "start": 9.7986,
      "duration": 0.2329,
      "velocity": 87,
      "chip": "ym2612"
    },
    {
      "channel": 1,
      "note": 67,
      "start": 9.7995,
      "duration": 0.1322,
      "velocity": 92,
      "chip": "ym2612"
    },
    {
      "channel": 4,
      "note": 60,
      "start": 9.801,
      "duration": 0.2323,
      "velocity": 87,
      "chip": "ym2612"
    },
    {
      "channel": 1,
      "note": 67,
      "start": 9.9319,
      "duration": 0.0332,
      "velocity": 92,
      "chip": "ym2612"
    },
    {
      "channel": 1,
      "note": 66,
      "start": 9.9651,
      "duration": 0.1166,
      "velocity": 92,
      "chip": "ym2612"
    },
    {
      "channel": 0,
      "note": 64,
      "start": 10.0317,
      "duration": 0.2335,
      "velocity": 87,
      "chip": "ym2612"
    },
    {
      "channel": 4,
      "note": 61,
      "start": 10.0334,
      "duration": 0.2341,
      "velocity": 87,
      "chip": "ym2612"
    },
    {
      "channel": 1,
      "note": 66,
      "start": 10.0818,
      "duration": 0.0333,
      "velocity": 92,
      "chip": "ym2612"
    },
    {
      "channel": 1,
      "note": 70,
      "start": 10.1152,
      "duration": 0.1165,
      "velocity": 92,
      "chip": "ym2612"
    },
    {
      "channel": 1,
      "note": 70,
      "start": 10.2319,
      "duration": 0.0343,
      "velocity": 92,
      "chip": "ym2612"
    },
    {
      "channel": 0,
      "note": 63,
      "start": 10.2653,
      "duration": 0.2329,
      "velocity": 87,
      "chip": "ym2612"
    },
    {
      "channel": 1,
      "note": 67,
      "start": 10.2662,
      "duration": 0.1322,
      "velocity": 92,
      "chip": "ym2612"
    },
    {
      "channel": 4,
      "note": 64,
      "start": 10.2676,
      "duration": 0.2323,
      "velocity": 87,
      "chip": "ym2612"
    },
    {
      "channel": 1,
      "note": 67,
      "start": 10.3985,
      "duration": 0.0333,
      "velocity": 92,
      "chip": "ym2612"
    },
    {
      "channel": 1,
      "note": 66,
      "start": 10.4319,
      "duration": 0.1165,
      "velocity": 92,
      "chip": "ym2612"
    },
    {
      "channel": 0,
      "note": 65,
      "start": 10.4983,
      "duration": 0.2335,
      "velocity": 87,
      "chip": "ym2612"
    },
    {
      "channel": 4,
      "note": 63,
      "start": 10.5,
      "duration": 0.2342,
      "velocity": 87,
      "chip": "ym2612"
    },
    {
      "channel": 1,
      "note": 66,
      "start": 10.5485,
      "duration": 0.0332,
      "velocity": 92,
      "chip": "ym2612"
    },
    {
      "channel": 1,
      "note": 70,
      "start": 10.5819,
      "duration": 0.1165,
      "velocity": 92,
      "chip": "ym2612"
    },
    {
      "channel": 1,
      "note": 70,
      "start": 10.6985,
      "duration": 0.0343,
      "velocity": 92,
      "chip": "ym2612"
    },
    {
      "channel": 0,
      "note": 64,
      "start": 10.732,
      "duration": 0.2329,
      "velocity": 87,
      "chip": "ym2612"
    },
    {
      "channel": 1,
      "note": 67,
      "start": 10.7329,
      "duration": 0.1321,
      "velocity": 92,
      "chip": "ym2612"
    },
    {
      "channel": 4,
      "note": 65,
      "start": 10.7343,
      "duration": 0.2323,
      "velocity": 87,
      "chip": "ym2612"
    },
    {
      "channel": 1,
      "note": 67,
      "start": 10.8651,
      "duration": 0.0333,
      "velocity": 92,
      "chip": "ym2612"
    },
    {
      "channel": 1,
      "note": 66,
      "start": 10.8985,
      "duration": 0.1165,
      "velocity": 92,
      "chip": "ym2612"
    },
    {
      "channel": 0,
      "note": 68,
      "start": 10.965,
      "duration": 0.2337,
      "velocity": 87,
      "chip": "ym2612"
    },
    {
      "channel": 4,
      "note": 64,
      "start": 10.9667,
      "duration": 0.2349,
      "velocity": 87,
      "chip": "ym2612"
    },
    {
      "channel": 1,
      "note": 66,
      "start": 11.0152,
      "duration": 0.0332,
      "velocity": 92,
      "chip": "ym2612"
    },
    {
      "channel": 1,
      "note": 70,
      "start": 11.0485,
      "duration": 0.1165,
      "velocity": 92,
      "chip": "ym2612"
    },
    {
      "channel": 1,
      "note": 70,
      "start": 11.1652,
      "duration": 0.0344,
      "velocity": 92,
      "chip": "ym2612"
    },
    {
      "channel": 1,
      "note": 67,
      "start": 11.1996,
      "duration": 0.1319,
      "velocity": 92,
      "chip": "ym2612"
    },
    {
      "channel": 2,
      "note": 66,
      "start": 11.2006,
      "duration": 0.9321,
      "velocity": 85,
      "chip": "ym2612"
    },
    {
      "channel": 4,
      "note": 68,
      "start": 11.2018,
      "duration": 0.2312,
      "velocity": 87,
      "chip": "ym2612"
    },
    {
      "channel": 1,
      "note": 67,
      "start": 11.3316,
      "duration": 0.0332,
      "velocity": 92,
      "chip": "ym2612"
    },
    {
      "channel": 1,
      "note": 66,
      "start": 11.3649,
      "duration": 0.1165,
      "velocity": 92,
      "chip": "ym2612"
    },
    {
      "channel": 3,
      "note": 66,
      "start": 11.4324,
      "duration": 0.9339,
      "velocity": 85,
      "chip": "ym2612"
    },
    {
      "channel": 1,
      "note": 66,
      "start": 11.4815,
      "duration": 0.0333,
      "velocity": 92,
      "chip": "ym2612"
    },
    {
      "channel": 1,
      "note": 70,
      "start": 11.5149,
      "duration": 0.1165,
      "velocity": 92,
      "chip": "ym2612"
    },
    {
      "channel": 1,
      "note": 70,
      "start": 11.6315,
      "duration": 0.0333,
      "velocity": 92,
      "chip": "ym2612"
    },
    {
      "channel": 1,
      "note": 67,
      "start": 11.6649,
      "duration": 0.1331,
      "velocity": 92,
      "chip": "ym2612"
    },
    {
      "channel": 1,
      "note": 67,
      "start": 11.7981,
      "duration": 0.0333,
      "velocity": 92,
      "chip": "ym2612"
    },
    {
      "channel": 1,
      "note": 66,
      "start": 11.8315,
      "duration": 0.1165,
      "velocity": 92,
      "chip": "ym2612"
    },
    {
      "channel": 1,
      "note": 66,
      "start": 11.9481,
      "duration": 0.0333,
      "velocity": 92,
      "chip": "ym2612"
    },
    {
      "channel": 1,
      "note": 70,
      "start": 11.9815,
      "duration": 0.1165,
      "velocity": 92,
      "chip": "ym2612"
    },
    {
      "channel": 1,
      "note": 70,
      "start": 12.0982,
      "duration": 0.0334,
      "velocity": 92,
      "chip": "ym2612"
    },
    {
      "channel": 1,
      "note": 67,
      "start": 12.1318,
      "duration": 0.1329,
      "velocity": 92,
      "chip": "ym2612"
    },
    {
      "channel": 2,
      "note": 63,
      "start": 12.1327,
      "duration": 0.2326,
      "velocity": 85,
      "chip": "ym2612"
    },
    {
      "channel": 1,
      "note": 67,
      "start": 12.2648,
      "duration": 0.0333,
      "velocity": 92,
      "chip": "ym2612"
    },
    {
      "channel": 1,
      "note": 66,
      "start": 12.2982,
      "duration": 0.1166,
      "velocity": 92,
      "chip": "ym2612"
    },
    {
      "channel": 2,
      "note": 69,
      "start": 12.3654,
      "duration": 2.5686,
      "velocity": 85,
      "chip": "ym2612"
    },
    {
      "channel": 3,
      "note": 63,
      "start": 12.3664,
      "duration": 0.2333,
      "velocity": 85,
      "chip": "ym2612"
    },
    {
      "channel": 1,
      "note": 66,
      "start": 12.4149,
      "duration": 0.0332,
      "velocity": 92,
      "chip": "ym2612"
    },
    {
      "channel": 1,
      "note": 70,
      "start": 12.4483,
      "duration": 0.1165,
      "velocity": 92,
      "chip": "ym2612"
    },
    {
      "channel": 1,
      "note": 70,
      "start": 12.5649,
      "duration": 0.0335,
      "velocity": 92,
      "chip": "ym2612"
    },
    {
      "channel": 1,
      "note": 67,
      "start": 12.5985,
      "duration": 0.1329,
      "velocity": 92,
      "chip": "ym2612"
    },
    {
      "channel": 3,
      "note": 69,
      "start": 12.5998,
      "duration": 2.5659,
      "velocity": 85,
      "chip": "ym2612"
    },
    {
      "channel": 1,
      "note": 67,
      "start": 12.7316,
      "duration": 0.0331,
      "velocity": 92,
      "chip": "ym2612"
    },
    {
      "channel": 1,
      "note": 66,
      "start": 12.7649,
      "duration": 0.1166,
      "velocity": 92,
      "chip": "ym2612"
    },
    {
      "channel": 1,
      "note": 66,
      "start": 12.8815,
      "duration": 0.0333,
      "velocity": 92,
      "chip": "ym2612"
    },
    {
      "channel": 1,
      "note": 70,
      "start": 12.9149,
      "duration": 0.1165,
      "velocity": 92,
      "chip": "ym2612"
    },
    {
      "channel": 1,
      "note": 70,
      "start": 13.0315,
      "duration": 0.0349,
      "velocity": 92,
      "chip": "ym2612"
    },
    {
      "channel": 0,
      "note": 59,
      "start": 13.0654,
      "duration": 0.233,
      "velocity": 87,
      "chip": "ym2612"
    },
    {
      "channel": 1,
      "note": 67,
      "start": 13.0664,
      "duration": 0.1319,
      "velocity": 92,
      "chip": "ym2612"
    },
    {
      "channel": 1,
      "note": 67,
      "start": 13.1985,
      "duration": 0.0332,
      "velocity": 92,
      "chip": "ym2612"
    },
    {
      "channel": 1,
      "note": 66,
      "start": 13.2318,
      "duration": 0.1166,
      "velocity": 92,
      "chip": "ym2612"
    },
    {
      "channel": 0,
      "note": 60,
      "start": 13.2986,
      "duration": 0.2332,
      "velocity": 87,
      "chip": "ym2612"
    },
    {
      "channel": 4,
      "note": 59,
      "start": 13.3004,
      "duration": 0.2338,
      "velocity": 87,
      "chip": "ym2612"
    },
    {
      "channel": 1,
      "note": 66,
      "start": 13.3485,
      "duration": 0.0332,
      "velocity": 92,
      "chip": "ym2612"
    },
    {
      "channel": 1,
      "note": 70,
      "start": 13.3819,
      "duration": 0.1165,
      "velocity": 92,
      "chip": "ym2612"
    },
    {
      "channel": 1,
      "note": 70,
      "start": 13.4985,
      "duration": 0.0343,
      "velocity": 92,
      "chip": "ym2612"
    },
    {
      "channel": 0,
      "note": 61,
      "start": 13.5319,
      "duration": 0.2329,
      "velocity": 87,
      "chip": "ym2612"
    },
    {
      "channel": 1,
      "note": 67,
      "start": 13.5329,
      "duration": 0.1322,
      "velocity": 92,
      "chip": "ym2612"
    },
    {
      "channel": 4,
      "note": 60,
      "start": 13.5343,
      "duration": 0.2323,
      "velocity": 87,
      "chip": "ym2612"
    },
    {
      "channel": 1,
      "note": 67,
      "start": 13.6652,
      "duration": 0.0332,
      "velocity": 92,
      "chip": "ym2612"
    },
    {
      "channel": 1,
      "note": 66,
      "start": 13.6985,
      "duration": 0.1166,
      "velocity": 92,
      "chip": "ym2612"
    },
    {
      "channel": 0,
      "note": 64,
      "start": 13.765,
      "duration": 0.2335,
      "velocity": 87,
      "chip": "ym2612"
    },
    {
      "channel": 4,
      "note": 61,
      "start": 13.7667,
      "duration": 0.2341,
      "velocity": 87,
      "chip": "ym2612"
    },
    {
      "channel": 1,
      "note": 66,
      "start": 13.8151,
      "duration": 0.0333,
      "velocity": 92,
      "chip": "ym2612"
    },
    {
      "channel": 1,
      "note": 70,
      "start": 13.8485,
      "duration": 0.1165,
      "velocity": 92,
      "chip": "ym2612"
    },
    {
      "channel": 1,
      "note": 70,
      "start": 13.9652,
      "duration": 0.0343,
      "velocity": 92,
      "chip": "ym2612"
    },
    {
      "channel": 0,
      "note": 63,
      "start": 13.9986,
      "duration": 0.2329,
      "velocity": 87,
      "chip": "ym2612"
    },
    {
      "channel": 1,
      "note": 69,
      "start": 13.9995,
      "duration": 0.1322,
      "velocity": 92,
      "chip": "ym2612"
    },
    {
      "channel": 4,
      "note": 64,
      "start": 14.001,
      "duration": 0.2323,
      "velocity": 87,
      "chip": "ym2612"
    },
    {
      "channel": 1,
      "note": 69,
      "start": 14.1318,
      "duration": 0.0333,
      "velocity": 92,
      "chip": "ym2612"
    },
    {
      "channel": 1,
      "note": 68,
      "start": 14.1652,
      "duration": 0.1165,
      "velocity": 92,
      "chip": "ym2612"
    },
    {
      "channel": 0,
      "note": 65,
      "start": 14.2317,
      "duration": 0.2335,
      "velocity": 87,
      "chip": "ym2612"
    },
    {
      "channel": 4,
      "note": 63,
      "start": 14.2334,
      "duration": 0.2341,
      "velocity": 87,
      "chip": "ym2612"
    },
    {
      "channel": 1,
      "note": 68,
      "start": 14.2819,
      "duration": 0.0332,
      "velocity": 92,
      "chip": "ym2612"
    },
    {
      "channel": 1,
      "note": 74,
      "start": 14.3152,
      "duration": 0.1165,
      "velocity": 92,
      "chip": "ym2612"
    },
    {
      "channel": 1,
      "note": 74,
      "start": 14.4319,
      "duration": 0.0342,
      "velocity": 92,
      "chip": "ym2612"
    },
    {
      "channel": 0,
      "note": 64,
      "start": 14.4653,
      "duration": 0.2329,
      "velocity": 87,
      "chip": "ym2612"
    },
    {
      "channel": 1,
      "note": 73,
      "start": 14.4662,
      "duration": 0.1322,
      "velocity": 92,
      "chip": "ym2612"
    },
    {
      "channel": 4,
      "note": 65,
      "start": 14.4676,
      "duration": 0.2323,
      "velocity": 87,
      "chip": "ym2612"
    },
    {
      "channel": 1,
      "note": 73,
      "start": 14.5985,
      "duration": 0.0332,
      "velocity": 92,
      "chip": "ym2612"
    },
    {
      "channel": 1,
      "note": 69,
      "start": 14.6318,
      "duration": 0.1166,
      "velocity": 92,
      "chip": "ym2612"
    },
    {
      "channel": 0,
      "note": 63,
      "start": 14.6983,
      "duration": 0.2339,
      "velocity": 87,
      "chip": "ym2612"
    },
    {
      "channel": 4,
      "note": 64,
      "start": 14.7,
      "duration": 0.2352,
      "velocity": 87,
      "chip": "ym2612"
    },
    {
      "channel": 1,
      "note": 69,
      "start": 14.7485,
      "duration": 0.0333,
      "velocity": 92,
      "chip": "ym2612"
    },
    {
      "channel": 1,
      "note": 68,
      "start": 14.7819,
      "duration": 0.1165,
      "velocity": 92,
      "chip": "ym2612"
    },
    {
      "channel": 1,
      "note": 68,
      "start": 14.8985,
      "duration": 0.0346,
      "velocity": 92,
      "chip": "ym2612"
    },
    {
      "channel": 1,
      "note": 67,
      "start": 14.9332,
      "duration": 0.1317,
      "velocity": 92,
      "chip": "ym2612"
    },
    {
      "channel": 2,
      "note": 69,
      "start": 14.9341,
      "duration": 0.4656,
      "velocity": 85,
      "chip": "ym2612"
    },
    {
      "channel": 4,
      "note": 63,
      "start": 14.9354,
      "duration": 0.231,
      "velocity": 87,
      "chip": "ym2612"
    },
    {
      "channel": 5,
      "note": 44,
      "start": 14.939,
      "duration": 0.4649,
      "velocity": 84,
      "chip": "ym2612"
    },
    {
      "channel": 1,
      "note": 67,
      "start": 15.0649,
      "duration": 0.0333,
      "velocity": 92,
      "chip": "ym2612"
    },
    {
      "channel": 1,
      "note": 70,
      "start": 15.0983,
      "duration": 0.1165,
      "velocity": 92,
      "chip": "ym2612"
    },
    {
      "channel": 3,
      "note": 69,
      "start": 15.1658,
      "duration": 0.4663,
      "velocity": 85,
      "chip": "ym2612"
    },
    {
      "channel": 1,
      "note": 70,
      "start": 15.2149,
      "duration": 0.0333,
      "velocity": 92,
      "chip": "ym2612"
    },
    {
      "channel": 1,
      "note": 66,
      "start": 15.2483,
      "duration": 0.1165,
      "velocity": 92,
      "chip": "ym2612"
    },
    {
      "channel": 1,
      "note": 66,
      "start": 15.3649,
      "duration": 0.0339,
      "velocity": 92,
      "chip": "ym2612"
    },
    {
      "channel": 1,
      "note": 67,
      "start": 15.399,
      "duration": 0.1325,
      "velocity": 92,
      "chip": "ym2612"
    },
    {
      "channel": 2,
      "note": 66,
      "start": 15.3999,
      "duration": 0.6986,
      "velocity": 85,
      "chip": "ym2612"
    },
    {
      "channel": 5,
      "note": 59,
      "start": 15.404,
      "duration": 0.4657,
      "velocity": 103,
      "chip": "ym2612"
    },
    {
      "channel": 1,
      "note": 67,
      "start": 15.5316,
      "duration": 0.0333,
      "velocity": 92,
      "chip": "ym2612"
    },
    {
      "channel": 1,
      "note": 70,
      "start": 15.565,
      "duration": 0.1166,
      "velocity": 92,
      "chip": "ym2612"
    },
    {
      "channel": 3,
      "note": 66,
      "start": 15.6323,
      "duration": 0.702,
      "velocity": 85,
      "chip": "ym2612"
    },
    {
      "channel": 1,
      "note": 70,
      "start": 15.6816,
      "duration": 0.0333,
      "velocity": 92,
      "chip": "ym2612"
    },
    {
      "channel": 1,
      "note": 66,
      "start": 15.715,
      "duration": 0.1165,
      "velocity": 92,
      "chip": "ym2612"
    },
    {
      "channel": 1,
      "note": 66,
      "start": 15.8316,
      "duration": 0.0337,
      "velocity": 92,
      "chip": "ym2612"
    },
    {
      "channel": 1,
      "note": 67,
      "start": 15.8654,
      "duration": 0.1327,
      "velocity": 92,
      "chip": "ym2612"
    },
    {
      "channel": 5,
      "note": 44,
      "start": 15.8698,
      "duration": 0.4682,
      "velocity": 84,
      "chip": "ym2612"
    },
    {
      "channel": 1,
      "note": 67,
      "start": 15.9982,
      "duration": 0.0333,
      "velocity": 92,
      "chip": "ym2612"
    },
    {
      "channel": 1,
      "note": 70,
      "start": 16.0316,
      "duration": 0.1165,
      "velocity": 92,
      "chip": "ym2612"
    },
    {
      "channel": 2,
      "note": 65,
      "start": 16.0986,
      "duration": 0.2347,
      "velocity": 85,
      "chip": "ym2612"
    },
    {
      "channel": 1,
      "note": 70,
      "start": 16.1482,
      "duration": 0.0333,
      "velocity": 92,
      "chip": "ym2612"
    },
    {
      "channel": 1,
      "note": 66,
      "start": 16.1816,
      "duration": 0.1165,
      "velocity": 92,
      "chip": "ym2612"
    },
    {
      "channel": 1,
      "note": 66,
      "start": 16.2983,
      "duration": 0.0341,
      "velocity": 92,
      "chip": "ym2612"
    },
    {
      "channel": 1,
      "note": 67,
      "start": 16.3325,
      "duration": 0.1324,
      "velocity": 92,
      "chip": "ym2612"
    },
    {
      "channel": 2,
      "note": 64,
      "start": 16.3334,
      "duration": 2.3343,
      "velocity": 85,
      "chip": "ym2612"
    },
    {
      "channel": 3,
      "note": 65,
      "start": 16.3344,
      "duration": 0.2311,
      "velocity": 85,
      "chip": "ym2612"
    },
    {
      "channel": 5,
      "note": 59,
      "start": 16.3382,
      "duration": 0.4656,
      "velocity": 103,
      "chip": "ym2612"
    },
    {
      "channel": 1,
      "note": 67,
      "start": 16.4649,
      "duration": 0.0333,
      "velocity": 92,
      "chip": "ym2612"
    },
    {
      "channel": 1,
      "note": 70,
      "start": 16.4983,
      "duration": 0.1165,
      "velocity": 92,
      "chip": "ym2612"
    },
    {
      "channel": 3,
      "note": 64,
      "start": 16.5656,
      "duration": 2.3345,
      "velocity": 85,
      "chip": "ym2612"
    },
    {
      "channel": 1,
      "note": 70,
      "start": 16.6149,
      "duration": 0.0333,
      "velocity": 92,
      "chip": "ym2612"
    },
    {
      "channel": 1,
      "note": 66,
      "start": 16.6483,
      "duration": 0.1165,
      "velocity": 92,
      "chip": "ym2612"
    },
    {
      "channel": 1,
      "note": 66,
      "start": 16.7649,
      "duration": 0.0344,
      "velocity": 92,
      "chip": "ym2612"
    },
    {
      "channel": 1,
      "note": 67,
      "start": 16.7995,
      "duration": 0.132,
      "velocity": 92,
      "chip": "ym2612"
    },
    {
      "channel": 5,
      "note": 44,
      "start": 16.8039,
      "duration": 0.4678,
      "velocity": 84,
      "chip": "ym2612"
    },
    {
      "channel": 1,
      "note": 67,
      "start": 16.9315,
      "duration": 0.0333,
      "velocity": 92,
      "chip": "ym2612"
    },
    {
      "channel": 1,
      "note": 70,
      "start": 16.9649,
      "duration": 0.1168,
      "velocity": 92,
      "chip": "ym2612"
    },
    {
      "channel": 0,
      "note": 70,
      "start": 17.0319,
      "duration": 0.2337,
      "velocity": 87,
      "chip": "ym2612"
    },
    {
      "channel": 4,
      "note": 67,
      "start": 17.0338,
      "duration": 0.2342,
      "velocity": 87,
      "chip": "ym2612"
    },
    {
      "channel": 1,
      "note": 70,
      "start": 17.0819,
      "duration": 0.0333,
      "velocity": 92,
      "chip": "ym2612"
    },
    {
      "channel": 1,
      "note": 66,
      "start": 17.1153,
      "duration": 0.1165,
      "velocity": 92,
      "chip": "ym2612"
    },
    {
      "channel": 1,
      "note": 66,
      "start": 17.2319,
      "duration": 0.0346,
      "velocity": 92,
      "chip": "ym2612"
    },
    {
      "channel": 0,
      "note": 67,
      "start": 17.2657,
      "duration": 0.2325,
      "velocity": 87,
      "chip": "ym2612"
    },
    {
      "channel": 1,
      "note": 67,
      "start": 17.2666,
      "duration": 0.1317,
      "velocity": 92,
      "chip": "ym2612"
    },
    {
      "channel": 4,
      "note": 64,
      "start": 17.2681,
      "duration": 0.2318,
      "velocity": 87,
      "chip": "ym2612"
    },
    {
      "channel": 5,
      "note": 59,
      "start": 17.2718,
      "duration": 0.4664,
      "velocity": 103,
      "chip": "ym2612"
    },
    {
      "channel": 1,
      "note": 67,
      "start": 17.3985,
      "duration": 0.0333,
      "velocity": 92,
      "chip": "ym2612"
    },
    {
      "channel": 1,
      "note": 70,
      "start": 17.4319,
      "duration": 0.1165,
      "velocity": 92,
      "chip": "ym2612"
    },
    {
      "channel": 0,
      "note": 66,
      "start": 17.4983,
      "duration": 0.2339,
      "velocity": 87,
      "chip": "ym2612"
    },
    {
      "channel": 4,
      "note": 63,
      "start": 17.5,
      "duration": 0.2346,
      "velocity": 87,
      "chip": "ym2612"
    },
    {
      "channel": 1,
      "note": 70,
      "start": 17.5485,
      "duration": 0.0333,
      "velocity": 92,
      "chip": "ym2612"
    },
    {
      "channel": 1,
      "note": 66,
      "start": 17.5819,
      "duration": 0.1165,
      "velocity": 92,
      "chip": "ym2612"
    },
    {
      "channel": 1,
      "note": 66,
      "start": 17.6985,
      "duration": 0.0347,
      "velocity": 92,
      "chip": "ym2612"
    },
    {
      "channel": 0,
      "note": 64,
      "start": 17.7324,
      "duration": 0.2325,
      "velocity": 87,
      "chip": "ym2612"
    },
    {
      "channel": 1,
      "note": 67,
      "start": 17.7333,
      "duration": 0.1317,
      "velocity": 92,
      "chip": "ym2612"
    },
    {
      "channel": 4,
      "note": 61,
      "start": 17.7347,
      "duration": 0.2319,
      "velocity": 87,
      "chip": "ym2612"
    },
    {
      "channel": 5,
      "note": 44,
      "start": 17.7383,
      "duration": 0.4665,
      "velocity": 84,
      "chip": "ym2612"
    },
    {
      "channel": 1,
      "note": 67,
      "start": 17.8651,
      "duration": 0.0333,
      "velocity": 92,
      "chip": "ym2612"
    },
    {
      "channel": 1,
      "note": 70,
      "start": 17.8985,
      "duration": 0.1166,
      "velocity": 92,
      "chip": "ym2612"
    },
    {
      "channel": 0,
      "note": 65,
      "start": 17.965,
      "duration": 0.2339,
      "velocity": 87,
      "chip": "ym2612"
    },
    {
      "channel": 4,
      "note": 62,
      "start": 17.9667,
      "duration": 0.2345,
      "velocity": 87,
      "chip": "ym2612"
    },
    {
      "channel": 1,
      "note": 70,
      "start": 18.0152,
      "duration": 0.0333,
      "velocity": 92,
      "chip": "ym2612"
    },
    {
      "channel": 1,
      "note": 66,
      "start": 18.0486,
      "duration": 0.1165,
      "velocity": 92,
      "chip": "ym2612"
    },
    {
      "channel": 1,
      "note": 66,
      "start": 18.1652,
      "duration": 0.0346,
      "velocity": 92,
      "chip": "ym2612"
    },
    {
      "channel": 0,
      "note": 66,
      "start": 18.199,
      "duration": 0.2325,
      "velocity": 87,
      "chip": "ym2612"
    },
    {
      "channel": 1,
      "note": 67,
      "start": 18.1999,
      "duration": 0.1318,
      "velocity": 92,
      "chip": "ym2612"
    },
    {
      "channel": 4,
      "note": 63,
      "start": 18.2013,
      "duration": 0.2319,
      "velocity": 87,
      "chip": "ym2612"
    },
    {
      "channel": 5,
      "note": 59,
      "start": 18.2049,
      "duration": 0.4676,
      "velocity": 103,
      "chip": "ym2612"
    },
    {
      "channel": 1,
      "note": 67,
      "start": 18.3318,
      "duration": 0.0333,
      "velocity": 92,
      "chip": "ym2612"
    },
    {
      "channel": 1,
      "note": 70,
      "start": 18.3652,
      "duration": 0.1165,
      "velocity": 92,
      "chip": "ym2612"
    },
    {
      "channel": 0,
      "note": 67,
      "start": 18.4316,
      "duration": 0.2342,
      "velocity": 87,
      "chip": "ym2612"
    },
    {
      "channel": 4,
      "note": 64,
      "start": 18.4333,
      "duration": 0.2356,
      "velocity": 87,
      "chip": "ym2612"
    },
    {
      "channel": 1,
      "note": 70,
      "start": 18.4818,
      "duration": 0.0333,
      "velocity": 92,
      "chip": "ym2612"
    },
    {
      "channel": 1,
      "note": 66,
      "start": 18.5152,
      "duration": 0.1166,
      "velocity": 92,
      "chip": "ym2612"
    },
    {
      "channel": 1,
      "note": 66,
      "start": 18.6319,
      "duration": 0.0349,
      "velocity": 92,
      "chip": "ym2612"
    },
    {
      "channel": 0,
      "note": 70,
      "start": 18.666,
      "duration": 0.2326,
      "velocity": 87,
      "chip": "ym2612"
    },
    {
      "channel": 1,
      "note": 67,
      "start": 18.6669,
      "duration": 0.1315,
      "velocity": 92,
      "chip": "ym2612"
    },
    {
      "channel": 2,
      "note": 70,
      "start": 18.6679,
      "duration": 0.4665,
      "velocity": 85,
      "chip": "ym2612"
    },
    {
      "channel": 4,
      "note": 67,
      "start": 18.669,
      "duration": 0.2321,
      "velocity": 87,
      "chip": "ym2612"
    },
    {
      "channel": 5,
      "note": 44,
      "start": 18.6727,
      "duration": 0.4666,
      "velocity": 84,
      "chip": "ym2612"
    },
    {
      "channel": 1,
      "note": 67,
      "start": 18.7985,
      "duration": 0.0333,
      "velocity": 92,
      "chip": "ym2612"
    },
    {
      "channel": 1,
      "note": 70,
      "start": 18.8319,
      "duration": 0.1165,
      "velocity": 92,
      "chip": "ym2612"
    },
    {
      "channel": 0,
      "note": 67,
      "start": 18.8986,
      "duration": 0.2338,
      "velocity": 87,
      "chip": "ym2612"
    },
    {
      "channel": 3,
      "note": 70,
      "start": 18.9002,
      "duration": 0.4665,
      "velocity": 85,
      "chip": "ym2612"
    },
    {
      "channel": 4,
      "note": 64,
      "start": 18.9011,
      "duration": 0.2345,
      "velocity": 87,
      "chip": "ym2612"
    },
    {
      "channel": 1,
      "note": 70,
      "start": 18.9486,
      "duration": 0.0333,
      "velocity": 92,
      "chip": "ym2612"
    },
    {
      "channel": 1,
      "note": 66,
      "start": 18.982,
      "duration": 0.1164,
      "velocity": 92,
      "chip": "ym2612"
    },
    {
      "channel": 1,
      "note": 66,
      "start": 19.0985,
      "duration": 0.0349,
      "velocity": 92,
      "chip": "ym2612"
    },
    {
      "channel": 0,
      "note": 66,
      "start": 19.1326,
      "duration": 0.2326,
      "velocity": 87,
      "chip": "ym2612"
    },
    {
      "channel": 1,
      "note": 67,
      "start": 19.1335,
      "duration": 0.1316,
      "velocity": 92,
      "chip": "ym2612"
    },
    {
      "channel": 2,
      "note": 67,
      "start": 19.1345,
      "duration": 0.6985,
      "velocity": 85,
      "chip": "ym2612"
    },
    {
      "channel": 4,
      "note": 63,
      "start": 19.1357,
      "duration": 0.2319,
      "velocity": 87,
      "chip": "ym2612"
    },
    {
      "channel": 5,
      "note": 59,
      "start": 19.1394,
      "duration": 0.4657,
      "velocity": 103,
      "chip": "ym2612"
    },
    {
      "channel": 1,
      "note": 67,
      "start": 19.2653,
      "duration": 0.0333,
      "velocity": 92,
      "chip": "ym2612"
    },
    {
      "channel": 1,
      "note": 70,
      "start": 19.2986,
      "duration": 0.1165,
      "velocity": 92,
      "chip": "ym2612"
    },
    {
      "channel": 0,
      "note": 64,
      "start": 19.3653,
      "duration": 0.2337,
      "velocity": 87,
      "chip": "ym2612"
    },
    {
      "channel": 3,
      "note": 67,
      "start": 19.3668,
      "duration": 0.702,
      "velocity": 85,
      "chip": "ym2612"
    },
    {
      "channel": 4,
      "note": 61,
      "start": 19.3678,
      "duration": 0.2337,
      "velocity": 87,
      "chip": "ym2612"
    },
    {
      "channel": 1,
      "note": 70,
      "start": 19.4152,
      "duration": 0.0333,
      "velocity": 92,
      "chip": "ym2612"
    },
    {
      "channel": 1,
      "note": 66,
      "start": 19.4486,
      "duration": 0.1165,
      "velocity": 92,
      "chip": "ym2612"
    },
    {
      "channel": 1,
      "note": 66,
      "start": 19.5652,
      "duration": 0.0347,
      "velocity": 92,
      "chip": "ym2612"
    },
    {
      "channel": 0,
      "note": 65,
      "start": 19.599,
      "duration": 0.2327,
      "velocity": 87,
      "chip": "ym2612"
    },
    {
      "channel": 1,
      "note": 67,
      "start": 19.6,
      "duration": 0.1317,
      "velocity": 92,
      "chip": "ym2612"
    },
    {
      "channel": 4,
      "note": 62,
      "start": 19.6016,
      "duration": 0.2327,
      "velocity": 87,
      "chip": "ym2612"
    },
    {
      "channel": 5,
      "note": 44,
      "start": 19.6053,
      "duration": 0.4682,
      "velocity": 84,
      "chip": "ym2612"
    },
    {
      "channel": 1,
      "note": 67,
      "start": 19.7319,
      "duration": 0.0333,
      "velocity": 92,
      "chip": "ym2612"
    },
    {
      "channel": 1,
      "note": 70,
      "start": 19.7653,
      "duration": 0.1165,
      "velocity": 92,
      "chip": "ym2612"
    },
    {
      "channel": 0,
      "note": 66,
      "start": 19.8319,
      "duration": 0.2341,
      "velocity": 87,
      "chip": "ym2612"
    },
    {
      "channel": 2,
      "note": 66,
      "start": 19.8331,
      "duration": 0.2348,
      "velocity": 85,
      "chip": "ym2612"
    },
    {
      "channel": 4,
      "note": 63,
      "start": 19.8344,
      "duration": 0.2354,
      "velocity": 87,
      "chip": "ym2612"
    },
    {
      "channel": 1,
      "note": 70,
      "start": 19.8819,
      "duration": 0.0333,
      "velocity": 92,
      "chip": "ym2612"
    },
    {
      "channel": 1,
      "note": 66,
      "start": 19.9153,
      "duration": 0.1165,
      "velocity": 92,
      "chip": "ym2612"
    },
    {
      "channel": 1,
      "note": 66,
      "start": 20.0319,
      "duration": 0.035,
      "velocity": 92,
      "chip": "ym2612"
    },
    {
      "channel": 0,
      "note": 67,
      "start": 20.0661,
      "duration": 0.2324,
      "velocity": 87,
      "chip": "ym2612"
    },
    {
      "channel": 1,
      "note": 67,
      "start": 20.067,
      "duration": 0.1314,
      "velocity": 92,
      "chip": "ym2612"
    },
    {
      "channel": 2,
      "note": 65,
      "start": 20.068,
      "duration": 2.3354,
      "velocity": 73,
      "chip": "ym2612"
    },
    {
      "channel": 3,
      "note": 66,
      "start": 20.069,
      "duration": 0.231,
      "velocity": 85,
      "chip": "ym2612"
    },
    {
      "channel": 4,
      "note": 64,
      "start": 20.07,
      "duration": 0.231,
      "velocity": 87,
      "chip": "ym2612"
    },
    {
      "channel": 5,
      "note": 59,
      "start": 20.0736,
      "duration": 0.4651,
      "velocity": 103,
      "chip": "ym2612"
    },
    {
      "channel": 1,
      "note": 67,
      "start": 20.1986,
      "duration": 0.0333,
      "velocity": 92,
      "chip": "ym2612"
    },
    {
      "channel": 1,
      "note": 70,
      "start": 20.2319,
      "duration": 0.1165,
      "velocity": 92,
      "chip": "ym2612"
    },
    {
      "channel": 0,
      "note": 68,
      "start": 20.2986,
      "duration": 0.2338,
      "velocity": 87,
      "chip": "ym2612"
    },
    {
      "channel": 3,
      "note": 65,
      "start": 20.3002,
      "duration": 2.3351,
      "velocity": 73,
      "chip": "ym2612"
    },
    {
      "channel": 4,
      "note": 65,
      "start": 20.3011,
      "duration": 0.2338,
      "velocity": 87,
      "chip": "ym2612"
    },
    {
      "channel": 1,
      "note": 70,
      "start": 20.3485,
      "duration": 0.0333,
      "velocity": 92,
      "chip": "ym2612"
    },
    {
      "channel": 1,
      "note": 66,
      "start": 20.382,
      "duration": 0.1165,
      "velocity": 92,
      "chip": "ym2612"
    },
    {
      "channel": 1,
      "note": 66,
      "start": 20.4986,
      "duration": 0.0348,
      "velocity": 92,
      "chip": "ym2612"
    },
    {
      "channel": 0,
      "note": 71,
      "start": 20.5326,
      "duration": 0.2326,
      "velocity": 87,
      "chip": "ym2612"
    },
    {
      "channel": 1,
      "note": 67,
      "start": 20.5335,
      "duration": 0.1316,
      "velocity": 92,
      "chip": "ym2612"
    },
    {
      "channel": 4,
      "note": 68,
      "start": 20.5351,
      "duration": 0.2319,
      "velocity": 87,
      "chip": "ym2612"
    },
    {
      "channel": 5,
      "note": 44,
      "start": 20.5387,
      "duration": 0.4663,
      "velocity": 84,
      "chip": "ym2612"
    },
    {
      "channel": 1,
      "note": 67,
      "start": 20.6652,
      "duration": 0.0333,
      "velocity": 92,
      "chip": "ym2612"
    },
    {
      "channel": 1,
      "note": 70,
      "start": 20.6986,
      "duration": 0.1165,
      "velocity": 92,
      "chip": "ym2612"
    },
    {
      "channel": 0,
      "note": 68,
      "start": 20.7652,
      "duration": 0.2337,
      "velocity": 87,
      "chip": "ym2612"
    },
    {
      "channel": 4,
      "note": 65,
      "start": 20.7671,
      "duration": 0.2342,
      "velocity": 87,
      "chip": "ym2612"
    },
    {
      "channel": 1,
      "note": 70,
      "start": 20.8152,
      "duration": 0.0333,
      "velocity": 92,
      "chip": "ym2612"
    },
    {
      "channel": 1,
      "note": 66,
      "start": 20.8486,
      "duration": 0.1165,
      "velocity": 92,
      "chip": "ym2612"
    },
    {
      "channel": 1,
      "note": 66,
      "start": 20.9653,
      "duration": 0.0346,
      "velocity": 92,
      "chip": "ym2612"
    },
    {
      "channel": 0,
      "note": 67,
      "start": 20.999,
      "duration": 0.2325,
      "velocity": 87,
      "chip": "ym2612"
    },
    {
      "channel": 1,
      "note": 67,
      "start": 21.0,
      "duration": 0.1317,
      "velocity": 92,
      "chip": "ym2612"
    },
    {
      "channel": 4,
      "note": 64,
      "start": 21.0015,
      "duration": 0.2318,
      "velocity": 87,
      "chip": "ym2612"
    },
    {
      "channel": 5,
      "note": 59,
      "start": 21.0051,
      "duration": 0.4664,
      "velocity": 103,
      "chip": "ym2612"
    },
    {
      "channel": 1,
      "note": 67,
      "start": 21.1319,
      "duration": 0.0333,
      "velocity": 92,
      "chip": "ym2612"
    },
    {
      "channel": 1,
      "note": 70,
      "start": 21.1653,
      "duration": 0.1165,
      "velocity": 92,
      "chip": "ym2612"
    },
    {
      "channel": 0,
      "note": 66,
      "start": 21.2317,
      "duration": 0.2339,
      "velocity": 87,
      "chip": "ym2612"
    },
    {
      "channel": 4,
      "note": 63,
      "start": 21.2333,
      "duration": 0.2346,
      "velocity": 87,
      "chip": "ym2612"
    },
    {
      "channel": 1,
      "note": 70,
      "start": 21.2819,
      "duration": 0.0333,
      "velocity": 92,
      "chip": "ym2612"
    },
    {
      "channel": 1,
      "note": 66,
      "start": 21.3153,
      "duration": 0.1165,
      "velocity": 92,
      "chip": "ym2612"
    },
    {
      "channel": 1,
      "note": 66,
      "start": 21.4318,
      "duration": 0.0347,
      "velocity": 92,
      "chip": "ym2612"
    },
    {
      "channel": 0,
      "note": 65,
      "start": 21.4657,
      "duration": 0.2324,
      "velocity": 87,
      "chip": "ym2612"
    },
    {
      "channel": 1,
      "note": 67,
      "start": 21.4666,
      "duration": 0.1317,
      "velocity": 92,
      "chip": "ym2612"
    },
    {
      "channel": 4,
      "note": 62,
      "start": 21.468,
      "duration": 0.2318,
      "velocity": 87,
      "chip": "ym2612"
    },
    {
      "channel": 5,
      "note": 44,
      "start": 21.4717,
      "duration": 0.4665,
      "velocity": 84,
      "chip": "ym2612"
    },
    {
      "channel": 1,
      "note": 67,
      "start": 21.5985,
      "duration": 0.0333,
      "velocity": 92,
      "chip": "ym2612"
    },
    {
      "channel": 1,
      "note": 66,
      "start": 21.6319,
      "duration": 0.1165,
      "velocity": 92,
      "chip": "ym2612"
    },
    {
      "channel": 0,
      "note": 66,
      "start": 21.6983,
      "duration": 0.2339,
      "velocity": 87,
      "chip": "ym2612"
    },
    {
      "channel": 4,
      "note": 63,
      "start": 21.7,
      "duration": 0.2346,
      "velocity": 87,
      "chip": "ym2612"
    },
    {
      "channel": 1,
      "note": 66,
      "start": 21.7485,
      "duration": 0.0333,
      "velocity": 92,
      "chip": "ym2612"
    },
    {
      "channel": 1,
      "note": 65,
      "start": 21.7819,
      "duration": 0.1166,
      "velocity": 92,
      "chip": "ym2612"
    },
    {
      "channel": 1,
      "note": 65,
      "start": 21.8985,
      "duration": 0.0346,
      "velocity": 92,
      "chip": "ym2612"
    },
    {
      "channel": 0,
      "note": 67,
      "start": 21.9322,
      "duration": 0.2326,
      "velocity": 87,
      "chip": "ym2612"
    },
    {
      "channel": 1,
      "note": 59,
      "start": 21.9332,
      "duration": 0.1319,
      "velocity": 92,
      "chip": "ym2612"
    },
    {
      "channel": 4,
      "note": 64,
      "start": 21.9346,
      "duration": 0.2319,
      "velocity": 87,
      "chip": "ym2612"
    },
    {
      "channel": 5,
      "note": 59,
      "start": 21.9383,
      "duration": 0.4695,
      "velocity": 103,
      "chip": "ym2612"
    },
    {
      "channel": 1,
      "note": 59,
      "start": 22.0652,
      "duration": 0.0333,
      "velocity": 92,
      "chip": "ym2612"
    },
    {
      "channel": 1,
      "note": 60,
      "start": 22.0985,
      "duration": 0.1165,
      "velocity": 92,
      "chip": "ym2612"
    },
    {
      "channel": 0,
      "note": 68,
      "start": 22.1649,
      "duration": 0.234,
      "velocity": 87,
      "chip": "ym2612"
    },
    {
      "channel": 4,
      "note": 65,
      "start": 22.1666,
      "duration": 0.2376,
      "velocity": 87,
      "chip": "ym2612"
    },
    {
      "channel": 1,
      "note": 60,
      "start": 22.2152,
      "duration": 0.0333,
      "velocity": 92,
      "chip": "ym2612"
    },
    {
      "channel": 1,
      "note": 61,
      "start": 22.2486,
      "duration": 0.1165,
      "velocity": 92,
      "chip": "ym2612"
    },
    {
      "channel": 1,
      "note": 61,
      "start": 22.3652,
      "duration": 0.0346,
      "velocity": 92,
      "chip": "ym2612"
    },
    {
      "channel": 1,
      "note": 62,
      "start": 22.3999,
      "duration": 0.1315,
      "velocity": 92,
      "chip": "ym2612"
    },
    {
      "channel": 2,
      "note": 71,
      "start": 22.4036,
      "duration": 0.695,
      "velocity": 73,
      "chip": "ym2612"
    },
    {
      "channel": 5,
      "note": 44,
      "start": 22.4079,
      "duration": 0.3441,
      "velocity": 84,
      "chip": "ym2612"
    },
    {
      "channel": 1,
      "note": 62,
      "start": 22.5316,
      "duration": 0.0332,
      "velocity": 92,
      "chip": "ym2612"
    },
    {
      "channel": 1,
      "note": 65,
      "start": 22.5649,
      "duration": 0.1166,
      "velocity": 92,
      "chip": "ym2612"
    },
    {
      "channel": 3,
      "note": 71,
      "start": 22.6354,
      "duration": 0.6999,
      "velocity": 73,
      "chip": "ym2612"
    },
    {
      "channel": 1,
      "note": 65,
      "start": 22.6816,
      "duration": 0.0333,
      "velocity": 92,
      "chip": "ym2612"
    },
    {
      "channel": 1,
      "note": 61,
      "start": 22.7149,
      "duration": 0.1166,
      "velocity": 92,
      "chip": "ym2612"
    },
    {
      "channel": 5,
      "note": 59,
      "start": 22.7522,
      "duration": 0.1174,
      "velocity": 103,
      "chip": "ym2612"
    },
    {
      "channel": 1,
      "note": 61,
      "start": 22.8316,
      "duration": 0.0337,
      "velocity": 92,
      "chip": "ym2612"
    },
    {
      "channel": 1,
      "note": 62,
      "start": 22.8654,
      "duration": 0.1328,
      "velocity": 92,
      "chip": "ym2612"
    },
    {
      "channel": 5,
      "note": 44,
      "start": 22.8698,
      "duration": 0.349,
      "velocity": 84,
      "chip": "ym2612"
    },
    {
      "channel": 1,
      "note": 62,
      "start": 22.9982,
      "duration": 0.0333,
      "velocity": 92,
      "chip": "ym2612"
    },
    {
      "channel": 1,
      "note": 59,
      "start": 23.0316,
      "duration": 0.1165,
      "velocity": 92,
      "chip": "ym2612"
    },
    {
      "channel": 2,
      "note": 70,
      "start": 23.0987,
      "duration": 0.2357,
      "velocity": 73,
      "chip": "ym2612"
    },
    {
      "channel": 1,
      "note": 59,
      "start": 23.1482,
      "duration": 0.0333,
      "velocity": 92,
      "chip": "ym2612"
    },
    {
      "channel": 1,
      "note": 60,
      "start": 23.1816,
      "duration": 0.1165,
      "velocity": 92,
      "chip": "ym2612"
    },
    {
      "channel": 5,
      "note": 59,
      "start": 23.2189,
      "duration": 0.1202,
      "velocity": 103,
      "chip": "ym2612"
    },
    {
      "channel": 1,
      "note": 60,
      "start": 23.2983,
      "duration": 0.0351,
      "velocity": 92,
      "chip": "ym2612"
    },
    {
      "channel": 0,
      "note": 69,
      "start": 23.3326,
      "duration": 0.1156,
      "velocity": 87,
      "chip": "ym2612"
    },
    {
      "channel": 1,
      "note": 57,
      "start": 23.3335,
      "duration": 0.1316,
      "velocity": 92,
      "chip": "ym2612"
    },
    {
      "channel": 2,
      "note": 69,
      "start": 23.3345,
      "duration": 0.2322,
      "velocity": 73,
      "chip": "ym2612"
    },
    {
      "channel": 3,
      "note": 70,
      "start": 23.3354,
      "duration": 0.2322,
      "velocity": 73,
      "chip": "ym2612"
    },
    {
      "channel": 5,
      "note": 44,
      "start": 23.3392,
      "duration": 0.3485,
      "velocity": 84,
      "chip": "ym2612"
    },
    {
      "channel": 0,
      "note": 68,
      "start": 23.4482,
      "duration": 0.1172,
      "velocity": 87,
      "chip": "ym2612"
    },
    {
      "channel": 1,
      "note": 57,
      "start": 23.4652,
      "duration": 0.0332,
      "velocity": 92,
      "chip": "ym2612"
    },
    {
      "channel": 1,
      "note": 58,
      "start": 23.4985,
      "duration": 0.1166,
      "velocity": 92,
      "chip": "ym2612"
    },
    {
      "channel": 0,
      "note": 67,
      "start": 23.5655,
      "duration": 0.1165,
      "velocity": 87,
      "chip": "ym2612"
    },
    {
      "channel": 2,
      "note": 63,
      "start": 23.5668,
      "duration": 0.2344,
      "velocity": 73,
      "chip": "ym2612"
    },
    {
      "channel": 3,
      "note": 69,
      "start": 23.5677,
      "duration": 0.2344,
      "velocity": 73,
      "chip": "ym2612"
    },
    {
      "channel": 4,
      "note": 69,
      "start": 23.5687,
      "duration": 0.1153,
      "velocity": 87,
      "chip": "ym2612"
    },
    {
      "channel": 1,
      "note": 58,
      "start": 23.6153,
      "duration": 0.0332,
      "velocity": 92,
      "chip": "ym2612"
    },
    {
      "channel": 1,
      "note": 59,
      "start": 23.6486,
      "duration": 0.1166,
      "velocity": 92,
      "chip": "ym2612"
    },
    {
      "channel": 0,
      "note": 66,
      "start": 23.6822,
      "duration": 0.1171,
      "velocity": 87,
      "chip": "ym2612"
    },
    {
      "channel": 4,
      "note": 68,
      "start": 23.6841,
      "duration": 0.119,
      "velocity": 87,
      "chip": "ym2612"
    },
    {
      "channel": 5,
      "note": 59,
      "start": 23.6877,
      "duration": 0.119,
      "velocity": 103,
      "chip": "ym2612"
    },
    {
      "channel": 1,
      "note": 59,
      "start": 23.7653,
      "duration": 0.035,
      "velocity": 92,
      "chip": "ym2612"
    },
    {
      "channel": 0,
      "note": 65,
      "start": 23.7993,
      "duration": 0.1156,
      "velocity": 87,
      "chip": "ym2612"
    },
    {
      "channel": 1,
      "note": 60,
      "start": 23.8003,
      "duration": 0.1315,
      "velocity": 92,
      "chip": "ym2612"
    },
    {
      "channel": 2,
      "note": 64,
      "start": 23.8013,
      "duration": 0.232,
      "velocity": 73,
      "chip": "ym2612"
    },
    {
      "channel": 3,
      "note": 63,
      "start": 23.8023,
      "duration": 0.232,
      "velocity": 73,
      "chip": "ym2612"
    },
    {
      "channel": 4,
      "note": 67,
      "start": 23.8032,
      "duration": 0.1137,
      "velocity": 87,
      "chip": "ym2612"
    },
    {
      "channel": 5,
      "note": 44,
      "start": 23.8068,
      "duration": 0.3474,
      "velocity": 84,
      "chip": "ym2612"
    },
    {
      "channel": 0,
      "note": 64,
      "start": 23.9151,
      "duration": 0.117,
      "velocity": 87,
      "chip": "ym2612"
    },
    {
      "channel": 4,
      "note": 66,
      "start": 23.917,
      "duration": 0.1182,
      "velocity": 87,
      "chip": "ym2612"
    },
    {
      "channel": 1,
      "note": 60,
      "start": 23.9319,
      "duration": 0.0332,
      "velocity": 92,
      "chip": "ym2612"
    },
    {
      "channel": 1,
      "note": 61,
      "start": 23.9653,
      "duration": 0.1165,
      "velocity": 92,
      "chip": "ym2612"
    },
    {
      "channel": 0,
      "note": 63,
      "start": 24.0322,
      "duration": 0.1165,
      "velocity": 87,
      "chip": "ym2612"
    },
    {
      "channel": 2,
      "note": 65,
      "start": 24.0334,
      "duration": 0.234,
      "velocity": 73,
      "chip": "ym2612"
    },
    {
      "channel": 3,
      "note": 64,
      "start": 24.0344,
      "duration": 0.234,
      "velocity": 73,
      "chip": "ym2612"
    },
    {
      "channel": 4,
      "note": 65,
      "start": 24.0354,
      "duration": 0.1152,
      "velocity": 87,
      "chip": "ym2612"
    },
    {
      "channel": 1,
      "note": 61,
      "start": 24.0819,
      "duration": 0.0332,
      "velocity": 92,
      "chip": "ym2612"
    },
    {
      "channel": 1,
      "note": 60,
      "start": 24.1153,
      "duration": 0.1165,
      "velocity": 92,
      "chip": "ym2612"
    },
    {
      "channel": 0,
      "note": 62,
      "start": 24.1488,
      "duration": 0.1169,
      "velocity": 87,
      "chip": "ym2612"
    },
    {
      "channel": 4,
      "note": 64,
      "start": 24.1507,
      "duration": 0.1187,
      "velocity": 87,
      "chip": "ym2612"
    },
    {
      "channel": 5,
      "note": 59,
      "start": 24.1543,
      "duration": 0.1187,
      "velocity": 103,
      "chip": "ym2612"
    },
    {
      "channel": 1,
      "note": 60,
      "start": 24.2319,
      "duration": 0.0346,
      "velocity": 92,
      "chip": "ym2612"
    },
    {
      "channel": 1,
      "note": 63,
      "start": 24.2666,
      "duration": 0.1316,
      "velocity": 92,
      "chip": "ym2612"
    },
    {
      "channel": 2,
      "note": 72,
      "start": 24.2676,
      "duration": 0.6977,
      "velocity": 73,
      "chip": "ym2612"
    },
    {
      "channel": 3,
      "note": 65,
      "start": 24.2686,
      "duration": 0.2305,
      "velocity": 73,
      "chip": "ym2612"
    },
    {
      "channel": 4,
      "note": 63,
      "start": 24.2695,
      "duration": 0.113,
      "velocity": 87,
      "chip": "ym2612"
    },
    {
      "channel": 5,
      "note": 44,
      "start": 24.2732,
      "duration": 0.3456,
      "velocity": 84,
      "chip": "ym2612"
    },
    {
      "channel": 4,
      "note": 62,
      "start": 24.3826,
      "duration": 0.1171,
      "velocity": 87,
      "chip": "ym2612"
    },
    {
      "channel": 1,
      "note": 63,
      "start": 24.3983,
      "duration": 0.0332,
      "velocity": 92,
      "chip": "ym2612"
    },
    {
      "channel": 1,
      "note": 66,
      "start": 24.4317,
      "duration": 0.1166,
      "velocity": 92,
      "chip": "ym2612"
    },
    {
      "channel": 3,
      "note": 72,
      "start": 24.4992,
      "duration": 0.7029,
      "velocity": 73,
      "chip": "ym2612"
    },
    {
      "channel": 1,
      "note": 66,
      "start": 24.5483,
      "duration": 0.0333,
      "velocity": 92,
      "chip": "ym2612"
    },
    {
      "channel": 1,
      "note": 62,
      "start": 24.5816,
      "duration": 0.1166,
      "velocity": 92,
      "chip": "ym2612"
    },
    {
      "channel": 5,
      "note": 59,
      "start": 24.6189,
      "duration": 0.1174,
      "velocity": 103,
      "chip": "ym2612"
    },
    {
      "channel": 1,
      "note": 62,
      "start": 24.6983,
      "duration": 0.0337,
      "velocity": 92,
      "chip": "ym2612"
    },
    {
      "channel": 1,
      "note": 63,
      "start": 24.732,
      "duration": 0.1328,
      "velocity": 92,
      "chip": "ym2612"
    },
    {
      "channel": 5,
      "note": 44,
      "start": 24.7364,
      "duration": 0.349,
      "velocity": 84,
      "chip": "ym2612"
    },
    {
      "channel": 1,
      "note": 63,
      "start": 24.8649,
      "duration": 0.0333,
      "velocity": 92,
      "chip": "ym2612"
    },
    {
      "channel": 1,
      "note": 60,
      "start": 24.8983,
      "duration": 0.1165,
      "velocity": 92,
      "chip": "ym2612"
    },
    {
      "channel": 2,
      "note": 71,
      "start": 24.9653,
      "duration": 0.2357,
      "velocity": 73,
      "chip": "ym2612"
    },
    {
      "channel": 1,
      "note": 60,
      "start": 25.0149,
      "duration": 0.0333,
      "velocity": 92,
      "chip": "ym2612"
    },
    {
      "channel": 1,
      "note": 61,
      "start": 25.0483,
      "duration": 0.1165,
      "velocity": 92,
      "chip": "ym2612"
    },
    {
      "channel": 5,
      "note": 59,
      "start": 25.0856,
      "duration": 0.1202,
      "velocity": 103,
      "chip": "ym2612"
    },
    {
      "channel": 1,
      "note": 61,
      "start": 25.1649,
      "duration": 0.0352,
      "velocity": 92,
      "chip": "ym2612"
    },
    {
      "channel": 0,
      "note": 70,
      "start": 25.1993,
      "duration": 0.1155,
      "velocity": 87,
      "chip": "ym2612"
    },
    {
      "channel": 1,
      "note": 58,
      "start": 25.2002,
      "duration": 0.1315,
      "velocity": 92,
      "chip": "ym2612"
    },
    {
      "channel": 2,
      "note": 70,
      "start": 25.2012,
      "duration": 0.2322,
      "velocity": 73,
      "chip": "ym2612"
    },
    {
      "channel": 3,
      "note": 71,
      "start": 25.2022,
      "duration": 0.2322,
      "velocity": 73,
      "chip": "ym2612"
    },
    {
      "channel": 5,
      "note": 44,
      "start": 25.2059,
      "duration": 0.3483,
      "velocity": 84,
      "chip": "ym2612"
    },
    {
      "channel": 0,
      "note": 69,
      "start": 25.3149,
      "duration": 0.1172,
      "velocity": 87,
      "chip": "ym2612"
    },
    {
      "channel": 1,
      "note": 58,
      "start": 25.3319,
      "duration": 0.0332,
      "velocity": 92,
      "chip": "ym2612"
    },
    {
      "channel": 1,
      "note": 59,
      "start": 25.3652,
      "duration": 0.1166,
      "velocity": 92,
      "chip": "ym2612"
    },
    {
      "channel": 0,
      "note": 68,
      "start": 25.4322,
      "duration": 0.1164,
      "velocity": 87,
      "chip": "ym2612"
    },
    {
      "channel": 2,
      "note": 64,
      "start": 25.4335,
      "duration": 0.2344,
      "velocity": 73,
      "chip": "ym2612"
    },
    {
      "channel": 3,
      "note": 70,
      "start": 25.4345,
      "duration": 0.2344,
      "velocity": 73,
      "chip": "ym2612"
    },
    {
      "channel": 4,
      "note": 70,
      "start": 25.4354,
      "duration": 0.1151,
      "velocity": 87,
      "chip": "ym2612"
    },
    {
      "channel": 1,
      "note": 59,
      "start": 25.4819,
      "duration": 0.0332,
      "velocity": 92,
      "chip": "ym2612"
    },
    {
      "channel": 1,
      "note": 60,
      "start": 25.5153,
      "duration": 0.1165,
      "velocity": 92,
      "chip": "ym2612"
    },
    {
      "channel": 0,
      "note": 67,
      "start": 25.5488,
      "duration": 0.1172,
      "velocity": 87,
      "chip": "ym2612"
    },
    {
      "channel": 4,
      "note": 69,
      "start": 25.5507,
      "duration": 0.1192,
      "velocity": 87,
      "chip": "ym2612"
    },
    {
      "channel": 5,
      "note": 59,
      "start": 25.5543,
      "duration": 0.1192,
      "velocity": 103,
      "chip": "ym2612"
    },
    {
      "channel": 1,
      "note": 60,
      "start": 25.6319,
      "duration": 0.035,
      "velocity": 92,
      "chip": "ym2612"
    },
    {
      "channel": 0,
      "note": 66,
      "start": 25.6661,
      "duration": 0.1156,
      "velocity": 87,
      "chip": "ym2612"
    },
    {
      "channel": 1,
      "note": 61,
      "start": 25.667,
      "duration": 0.1314,
      "velocity": 92,
      "chip": "ym2612"
    },
    {
      "channel": 2,
      "note": 65,
      "start": 25.668,
      "duration": 0.232,
      "velocity": 73,
      "chip": "ym2612"
    },
    {
      "channel": 3,
      "note": 64,
      "start": 25.6689,
      "duration": 0.232,
      "velocity": 73,
      "chip": "ym2612"
    },
    {
      "channel": 4,
      "note": 68,
      "start": 25.6699,
      "duration": 0.1137,
      "velocity": 87,
      "chip": "ym2612"
    },
    {
      "channel": 5,
      "note": 44,
      "start": 25.6736,
      "duration": 0.3473,
      "velocity": 84,
      "chip": "ym2612"
    },
    {
      "channel": 0,
      "note": 65,
      "start": 25.7817,
      "duration": 0.117,
      "velocity": 87,
      "chip": "ym2612"
    },
    {
      "channel": 4,
      "note": 67,
      "start": 25.7837,
      "duration": 0.1182,
      "velocity": 87,
      "chip": "ym2612"
    },
    {
      "channel": 1,
      "note": 61,
      "start": 25.7986,
      "duration": 0.0332,
      "velocity": 92,
      "chip": "ym2612"
    },
    {
      "channel": 1,
      "note": 62,
      "start": 25.8319,
      "duration": 0.1165,
      "velocity": 92,
      "chip": "ym2612"
    },
    {
      "channel": 0,
      "note": 64,
      "start": 25.8988,
      "duration": 0.1165,
      "velocity": 87,
      "chip": "ym2612"
    },
    {
      "channel": 2,
      "note": 66,
      "start": 25.9001,
      "duration": 0.2341,
      "velocity": 73,
      "chip": "ym2612"
    },
    {
      "channel": 3,
      "note": 65,
      "start": 25.9011,
      "duration": 0.2341,
      "velocity": 73,
      "chip": "ym2612"
    },
    {
      "channel": 4,
      "note": 66,
      "start": 25.902,
      "duration": 0.1152,
      "velocity": 87,
      "chip": "ym2612"
    },
    {
      "channel": 1,
      "note": 62,
      "start": 25.9486,
      "duration": 0.0332,
      "velocity": 92,
      "chip": "ym2612"
    },
    {
      "channel": 1,
      "note": 61,
      "start": 25.9819,
      "duration": 0.1165,
      "velocity": 92,
      "chip": "ym2612"
    },
    {
      "channel": 0,
      "note": 63,
      "start": 26.0154,
      "duration": 0.1169,
      "velocity": 87,
      "chip": "ym2612"
    },
    {
      "channel": 4,
      "note": 65,
      "start": 26.0173,
      "duration": 0.1188,
      "velocity": 87,
      "chip": "ym2612"
    },
    {
      "channel": 5,
      "note": 59,
      "start": 26.021,
      "duration": 0.1188,
      "velocity": 103,
      "chip": "ym2612"
    },
    {
      "channel": 1,
      "note": 61,
      "start": 26.0986,
      "duration": 0.0347,
      "velocity": 92,
      "chip": "ym2612"
    },
    {
      "channel": 1,
      "note": 72,
      "start": 26.1333,
      "duration": 0.1316,
      "velocity": 92,
      "chip": "ym2612"
    },
    {
      "channel": 2,
      "note": 72,
      "start": 26.1343,
      "duration": 0.2313,
      "velocity": 73,
      "chip": "ym2612"
    },
    {
      "channel": 3,
      "note": 66,
      "start": 26.1353,
      "duration": 0.2312,
      "velocity": 73,
      "chip": "ym2612"
    },
    {
      "channel": 4,
      "note": 64,
      "start": 26.1362,
      "duration": 0.113,
      "velocity": 87,
      "chip": "ym2612"
    },
    {
      "channel": 5,
      "note": 44,
      "start": 26.1399,
      "duration": 0.3456,
      "velocity": 127,
      "chip": "ym2612"
    },
    {
      "channel": 4,
      "note": 63,
      "start": 26.2493,
      "duration": 0.1179,
      "velocity": 87,
      "chip": "ym2612"
    },
    {
      "channel": 1,
      "note": 72,
      "start": 26.265,
      "duration": 0.0332,
      "velocity": 92,
      "chip": "ym2612"
    },
    {
      "channel": 1,
      "note": 69,
      "start": 26.2983,
      "duration": 0.1165,
      "velocity": 92,
      "chip": "ym2612"
    },
    {
      "channel": 2,
      "note": 75,
      "start": 26.3657,
      "duration": 0.2342,
      "velocity": 73,
      "chip": "ym2612"
    },
    {
      "channel": 3,
      "note": 72,
      "start": 26.3666,
      "duration": 0.2342,
      "velocity": 73,
      "chip": "ym2612"
    },
    {
      "channel": 1,
      "note": 69,
      "start": 26.4149,
      "duration": 0.0333,
      "velocity": 92,
      "chip": "ym2612"
    },
    {
      "channel": 1,
      "note": 68,
      "start": 26.4483,
      "duration": 0.1166,
      "velocity": 92,
      "chip": "ym2612"
    },
    {
      "channel": 5,
      "note": 54,
      "start": 26.4856,
      "duration": 0.1191,
      "velocity": 103,
      "chip": "ym2612"
    },
    {
      "channel": 1,
      "note": 68,
      "start": 26.5649,
      "duration": 0.034,
      "velocity": 92,
      "chip": "ym2612"
    },
    {
      "channel": 1,
      "note": 67,
      "start": 26.5991,
      "duration": 0.1324,
      "velocity": 92,
      "chip": "ym2612"
    },
    {
      "channel": 2,
      "note": 72,
      "start": 26.6,
      "duration": 0.2321,
      "velocity": 73,
      "chip": "ym2612"
    },
    {
      "channel": 3,
      "note": 75,
      "start": 26.601,
      "duration": 0.2321,
      "velocity": 73,
      "chip": "ym2612"
    },
    {
      "channel": 5,
      "note": 44,
      "start": 26.6048,
      "duration": 0.3474,
      "velocity": 127,
      "chip": "ym2612"
    },
    {
      "channel": 1,
      "note": 67,
      "start": 26.7317,
      "duration": 0.0332,
      "velocity": 92,
      "chip": "ym2612"
    },
    {
      "channel": 1,
      "note": 66,
      "start": 26.7649,
      "duration": 0.1165,
      "velocity": 92,
      "chip": "ym2612"
    },
    {
      "channel": 2,
      "note": 69,
      "start": 26.8322,
      "duration": 0.7019,
      "velocity": 73,
      "chip": "ym2612"
    },
    {
      "channel": 3,
      "note": 72,
      "start": 26.8332,
      "duration": 0.2336,
      "velocity": 73,
      "chip": "ym2612"
    },
    {
      "channel": 1,
      "note": 66,
      "start": 26.8816,
      "duration": 0.0333,
      "velocity": 92,
      "chip": "ym2612"
    },
    {
      "channel": 1,
      "note": 65,
      "start": 26.915,
      "duration": 0.1166,
      "velocity": 92,
      "chip": "ym2612"
    },
    {
      "channel": 5,
      "note": 54,
      "start": 26.9523,
      "duration": 0.1183,
      "velocity": 103,
      "chip": "ym2612"
    },
    {
      "channel": 1,
      "note": 65,
      "start": 27.0316,
      "duration": 0.0339,
      "velocity": 92,
      "chip": "ym2612"
    },
    {
      "channel": 1,
      "note": 64,
      "start": 27.0656,
      "duration": 0.1326,
      "velocity": 92,
      "chip": "ym2612"
    },
    {
      "channel": 3,
      "note": 69,
      "start": 27.0669,
      "duration": 0.7011,
      "velocity": 73,
      "chip": "ym2612"
    },
    {
      "channel": 5,
      "note": 44,
      "start": 27.0707,
      "duration": 0.2315,
      "velocity": 127,
      "chip": "ym2612"
    },
    {
      "channel": 1,
      "note": 64,
      "start": 27.1983,
      "duration": 0.0333,
      "velocity": 92,
      "chip": "ym2612"
    },
    {
      "channel": 1,
      "note": 65,
      "start": 27.2316,
      "duration": 0.1165,
      "velocity": 92,
      "chip": "ym2612"
    },
    {
      "channel": 5,
      "note": 73,
      "start": 27.3023,
      "duration": 0.1166,
      "velocity": 127,
      "chip": "ym2612"
    },
    {
      "channel": 1,
      "note": 65,
      "start": 27.3483,
      "duration": 0.0333,
      "velocity": 92,
      "chip": "ym2612"
    },
    {
      "channel": 1,
      "note": 66,
      "start": 27.3817,
      "duration": 0.1166,
      "velocity": 92,
      "chip": "ym2612"
    },
    {
      "channel": 5,
      "note": 67,
      "start": 27.419,
      "duration": 0.1192,
      "velocity": 103,
      "chip": "ym2612"
    },
    {
      "channel": 1,
      "note": 66,
      "start": 27.4983,
      "duration": 0.0349,
      "velocity": 92,
      "chip": "ym2612"
    },
    {
      "channel": 0,
      "note": 66,
      "start": 27.5324,
      "duration": 0.0657,
      "velocity": 87,
      "chip": "ym2612"
    },
    {
      "channel": 1,
      "note": 67,
      "start": 27.5333,
      "duration": 0.1317,
      "velocity": 92,
      "chip": "ym2612"
    },
    {
      "channel": 2,
      "note": 66,
      "start": 27.5343,
      "duration": 0.2328,
      "velocity": 73,
      "chip": "ym2612"
    },
    {
      "channel": 5,
      "note": 44,
      "start": 27.5383,
      "duration": 0.2343,
      "velocity": 127,
      "chip": "ym2612"
    },
    {
      "channel": 0,
      "note": 67,
      "start": 27.5982,
      "duration": 0.0832,
      "velocity": 87,
      "chip": "ym2612"
    },
    {
      "channel": 1,
      "note": 67,
      "start": 27.6652,
      "duration": 0.0332,
      "velocity": 92,
      "chip": "ym2612"
    },
    {
      "channel": 0,
      "note": 68,
      "start": 27.6815,
      "duration": 0.0843,
      "velocity": 87,
      "chip": "ym2612"
    },
    {
      "channel": 1,
      "note": 68,
      "start": 27.6985,
      "duration": 0.1166,
      "velocity": 92,
      "chip": "ym2612"
    },
    {
      "channel": 0,
      "note": 69,
      "start": 27.7659,
      "duration": 0.0658,
      "velocity": 87,
      "chip": "ym2612"
    },
    {
      "channel": 2,
      "note": 63,
      "start": 27.7672,
      "duration": 0.2341,
      "velocity": 73,
      "chip": "ym2612"
    },
    {
      "channel": 3,
      "note": 66,
      "start": 27.7681,
      "duration": 0.2341,
      "velocity": 73,
      "chip": "ym2612"
    },
    {
      "channel": 4,
      "note": 66,
      "start": 27.7691,
      "duration": 0.0644,
      "velocity": 87,
      "chip": "ym2612"
    },
    {
      "channel": 5,
      "note": 73,
      "start": 27.7728,
      "duration": 0.1133,
      "velocity": 127,
      "chip": "ym2612"
    },
    {
      "channel": 1,
      "note": 68,
      "start": 27.8153,
      "duration": 0.0332,
      "velocity": 92,
      "chip": "ym2612"
    },
    {
      "channel": 0,
      "note": 70,
      "start": 27.8317,
      "duration": 0.0832,
      "velocity": 87,
      "chip": "ym2612"
    },
    {
      "channel": 4,
      "note": 67,
      "start": 27.8336,
      "duration": 0.0832,
      "velocity": 87,
      "chip": "ym2612"
    },
    {
      "channel": 1,
      "note": 69,
      "start": 27.8486,
      "duration": 0.1165,
      "velocity": 92,
      "chip": "ym2612"
    },
    {
      "channel": 5,
      "note": 67,
      "start": 27.8861,
      "duration": 0.1208,
      "velocity": 103,
      "chip": "ym2612"
    },
    {
      "channel": 0,
      "note": 71,
      "start": 27.9151,
      "duration": 0.0844,
      "velocity": 87,
      "chip": "ym2612"
    },
    {
      "channel": 4,
      "note": 68,
      "start": 27.917,
      "duration": 0.0863,
      "velocity": 87,
      "chip": "ym2612"
    },
    {
      "channel": 1,
      "note": 69,
      "start": 27.9653,
      "duration": 0.0351,
      "velocity": 92,
      "chip": "ym2612"
    },
    {
      "channel": 0,
      "note": 72,
      "start": 27.9995,
      "duration": 1.3997,
      "velocity": 87,
      "chip": "ym2612"
    },
    {
      "channel": 1,
      "note": 72,
      "start": 28.0005,
      "duration": 0.1313,
      "velocity": 92,
      "chip": "ym2612"
    },
    {
      "channel": 2,
      "note": 66,
      "start": 28.0015,
      "duration": 0.2312,
      "velocity": 73,
      "chip": "ym2612"
    },
    {
      "channel": 3,
      "note": 63,
      "start": 28.0024,
      "duration": 0.2312,
      "velocity": 73,
      "chip": "ym2612"
    },
    {
      "channel": 4,
      "note": 69,
      "start": 28.0034,
      "duration": 0.0628,
      "velocity": 87,
      "chip": "ym2612"
    },
    {
      "channel": 5,
      "note": 44,
      "start": 28.0071,
      "duration": 0.3456,
      "velocity": 127,
      "chip": "ym2612"
    },
    {
      "channel": 4,
      "note": 70,
      "start": 28.0662,
      "duration": 0.0832,
      "velocity": 87,
      "chip": "ym2612"
    },
    {
      "channel": 1,
      "note": 72,
      "start": 28.1319,
      "duration": 0.0332,
      "velocity": 92,
      "chip": "ym2612"
    },
    {
      "channel": 4,
      "note": 71,
      "start": 28.1495,
      "duration": 0.0851,
      "velocity": 87,
      "chip": "ym2612"
    },
    {
      "channel": 1,
      "note": 69,
      "start": 28.1652,
      "duration": 0.1166,
      "velocity": 92,
      "chip": "ym2612"
    },
    {
      "channel": 2,
      "note": 69,
      "start": 28.2327,
      "duration": 0.2343,
      "velocity": 73,
      "chip": "ym2612"
    },
    {
      "channel": 3,
      "note": 66,
      "start": 28.2337,
      "duration": 0.2342,
      "velocity": 73,
      "chip": "ym2612"
    },
    {
      "channel": 4,
      "note": 72,
      "start": 28.2346,
      "duration": 1.401,
      "velocity": 87,
      "chip": "ym2612"
    },
    {
      "channel": 1,
      "note": 69,
      "start": 28.2819,
      "duration": 0.0333,
      "velocity": 92,
      "chip": "ym2612"
    },
    {
      "channel": 1,
      "note": 68,
      "start": 28.3153,
      "duration": 0.1165,
      "velocity": 92,
      "chip": "ym2612"
    },
    {
      "channel": 5,
      "note": 54,
      "start": 28.3528,
      "duration": 0.1191,
      "velocity": 103,
      "chip": "ym2612"
    },
    {
      "channel": 1,
      "note": 68,
      "start": 28.4319,
      "duration": 0.0341,
      "velocity": 92,
      "chip": "ym2612"
    },
    {
      "channel": 1,
      "note": 67,
      "start": 28.4661,
      "duration": 0.1324,
      "velocity": 92,
      "chip": "ym2612"
    },
    {
      "channel": 2,
      "note": 72,
      "start": 28.467,
      "duration": 0.2321,
      "velocity": 73,
      "chip": "ym2612"
    },
    {
      "channel": 3,
      "note": 69,
      "start": 28.468,
      "duration": 0.2321,
      "velocity": 73,
      "chip": "ym2612"
    },
    {
      "channel": 5,
      "note": 44,
      "start": 28.472,
      "duration": 0.3473,
      "velocity": 127,
      "chip": "ym2612"
    },
    {
      "channel": 1,
      "note": 67,
      "start": 28.5986,
      "duration": 0.0332,
      "velocity": 92,
      "chip": "ym2612"
    },
    {
      "channel": 1,
      "note": 66,
      "start": 28.6319,
      "duration": 0.1164,
      "velocity": 92,
      "chip": "ym2612"
    },
    {
      "channel": 2,
      "note": 69,
      "start": 28.6992,
      "duration": 0.4665,
      "velocity": 73,
      "chip": "ym2612"
    },
    {
      "channel": 3,
      "note": 72,
      "start": 28.7002,
      "duration": 0.2334,
      "velocity": 73,
      "chip": "ym2612"
    },
    {
      "channel": 1,
      "note": 66,
      "start": 28.7485,
      "duration": 0.0332,
      "velocity": 92,
      "chip": "ym2612"
    },
    {
      "channel": 1,
      "note": 65,
      "start": 28.7818,
      "duration": 0.1165,
      "velocity": 92,
      "chip": "ym2612"
    },
    {
      "channel": 5,
      "note": 54,
      "start": 28.8194,
      "duration": 0.1183,
      "velocity": 103,
      "chip": "ym2612"
    },
    {
      "channel": 1,
      "note": 65,
      "start": 28.8985,
      "duration": 0.0339,
      "velocity": 92,
      "chip": "ym2612"
    },
    {
      "channel": 1,
      "note": 64,
      "start": 28.9325,
      "duration": 0.1325,
      "velocity": 92,
      "chip": "ym2612"
    },
    {
      "channel": 3,
      "note": 69,
      "start": 28.9338,
      "duration": 0.4683,
      "velocity": 73,
      "chip": "ym2612"
    },
    {
      "channel": 5,
      "note": 44,
      "start": 28.9378,
      "duration": 0.2322,
      "velocity": 127,
      "chip": "ym2612"
    },
    {
      "channel": 1,
      "note": 64,
      "start": 29.0651,
      "duration": 0.0332,
      "velocity": 92,
      "chip": "ym2612"
    },
    {
      "channel": 1,
      "note": 65,
      "start": 29.0985,
      "duration": 0.1165,
      "velocity": 92,
      "chip": "ym2612"
    },
    {
      "channel": 2,
      "note": 72,
      "start": 29.1659,
      "duration": 0.2352,
      "velocity": 73,
      "chip": "ym2612"
    },
    {
      "channel": 5,
      "note": 73,
      "start": 29.1701,
      "duration": 0.1157,
      "velocity": 127,
      "chip": "ym2612"
    },
    {
      "channel": 1,
      "note": 65,
      "start": 29.2151,
      "duration": 0.0333,
      "velocity": 92,
      "chip": "ym2612"
    },
    {
      "channel": 1,
      "note": 66,
      "start": 29.2485,
      "duration": 0.1165,
      "velocity": 92,
      "chip": "ym2612"
    },
    {
      "channel": 5,
      "note": 67,
      "start": 29.2859,
      "duration": 0.12,
      "velocity": 103,
      "chip": "ym2612"
    },
    {
      "channel": 1,
      "note": 66,
      "start": 29.3651,
      "duration": 0.0351,
      "velocity": 92,
      "chip": "ym2612"
    },
    {
      "channel": 0,
      "note": 69,
      "start": 29.3993,
      "duration": 0.0655,
      "velocity": 87,
      "chip": "ym2612"
    },
    {
      "channel": 1,
      "note": 67,
      "start": 29.4002,
      "duration": 0.1316,
      "velocity": 92,
      "chip": "ym2612"
    },
    {
      "channel": 2,
      "note": 71,
      "start": 29.4012,
      "duration": 0.2325,
      "velocity": 73,
      "chip": "ym2612"
    },
    {
      "channel": 3,
      "note": 72,
      "start": 29.4022,
      "duration": 0.2325,
      "velocity": 73,
      "chip": "ym2612"
    },
    {
      "channel": 5,
      "note": 44,
      "start": 29.406,
      "duration": 0.2333,
      "velocity": 127,
      "chip": "ym2612"
    },
    {
      "channel": 0,
      "note": 66,
      "start": 29.4649,
      "duration": 0.0832,
      "velocity": 87,
      "chip": "ym2612"
    },
    {
      "channel": 1,
      "note": 67,
      "start": 29.5319,
      "duration": 0.0332,
      "velocity": 92,
      "chip": "ym2612"
    },
    {
      "channel": 0,
      "note": 69,
      "start": 29.5483,
      "duration": 0.0841,
      "velocity": 87,
      "chip": "ym2612"
    },
    {
      "channel": 1,
      "note": 68,
      "start": 29.5653,
      "duration": 0.1165,
      "velocity": 92,
      "chip": "ym2612"
    },
    {
      "channel": 0,
      "note": 72,
      "start": 29.6326,
      "duration": 0.0658,
      "velocity": 87,
      "chip": "ym2612"
    },
    {
      "channel": 2,
      "note": 70,
      "start": 29.6338,
      "duration": 0.2342,
      "velocity": 73,
      "chip": "ym2612"
    },
    {
      "channel": 3,
      "note": 71,
      "start": 29.6348,
      "duration": 0.2342,
      "velocity": 73,
      "chip": "ym2612"
    },
    {
      "channel": 4,
      "note": 69,
      "start": 29.6357,
      "duration": 0.0646,
      "velocity": 87,
      "chip": "ym2612"
    },
    {
      "channel": 5,
      "note": 73,
      "start": 29.6394,
      "duration": 0.1132,
      "velocity": 127,
      "chip": "ym2612"
    },
    {
      "channel": 1,
      "note": 68,
      "start": 29.6819,
      "duration": 0.0332,
      "velocity": 92,
      "chip": "ym2612"
    },
    {
      "channel": 0,
      "note": 69,
      "start": 29.6985,
      "duration": 0.0832,
      "velocity": 87,
      "chip": "ym2612"
    },
    {
      "channel": 4,
      "note": 66,
      "start": 29.7004,
      "duration": 0.0832,
      "velocity": 87,
      "chip": "ym2612"
    },
    {
      "channel": 1,
      "note": 69,
      "start": 29.7153,
      "duration": 0.1166,
      "velocity": 92,
      "chip": "ym2612"
    },
    {
      "channel": 5,
      "note": 67,
      "start": 29.7528,
      "duration": 0.1208,
      "velocity": 103,
      "chip": "ym2612"
    },
    {
      "channel": 0,
      "note": 72,
      "start": 29.7818,
      "duration": 0.0844,
      "velocity": 87,
      "chip": "ym2612"
    },
    {
      "channel": 4,
      "note": 69,
      "start": 29.7837,
      "duration": 0.0863,
      "velocity": 87,
      "chip": "ym2612"
    },
    {
      "channel": 1,
      "note": 69,
      "start": 29.8319,
      "duration": 0.0352,
      "velocity": 92,
      "chip": "ym2612"
    },
    {
      "channel": 0,
      "note": 73,
      "start": 29.8662,
      "duration": 1.3995,
      "velocity": 87,
      "chip": "ym2612"
    },
    {
      "channel": 1,
      "note": 73,
      "start": 29.8672,
      "duration": 0.1313,
      "velocity": 92,
      "chip": "ym2612"
    },
    {
      "channel": 2,
      "note": 73,
      "start": 29.8681,
      "duration": 0.2311,
      "velocity": 73,
      "chip": "ym2612"
    },
    {
      "channel": 3,
      "note": 70,
      "start": 29.8691,
      "duration": 0.2311,
      "velocity": 73,
      "chip": "ym2612"
    },
    {
      "channel": 4,
      "note": 72,
      "start": 29.8701,
      "duration": 0.0627,
      "velocity": 87,
      "chip": "ym2612"
    },
    {
      "channel": 5,
      "note": 44,
      "start": 29.8737,
      "duration": 0.3456,
      "velocity": 127,
      "chip": "ym2612"
    },
    {
      "channel": 4,
      "note": 69,
      "start": 29.9329,
      "duration": 0.0831,
      "velocity": 87,
      "chip": "ym2612"
    },
    {
      "channel": 1,
      "note": 73,
      "start": 29.9986,
      "duration": 0.0332,
      "velocity": 92,
      "chip": "ym2612"
    },
    {
      "channel": 4,
      "note": 72,
      "start": 30.0161,
      "duration": 0.085,
      "velocity": 87,
      "chip": "ym2612"
    },
    {
      "channel": 1,
      "note": 70,
      "start": 30.0319,
      "duration": 0.1165,
      "velocity": 92,
      "chip": "ym2612"
    },
    {
      "channel": 2,
      "note": 77,
      "start": 30.0993,
      "duration": 0.2343,
      "velocity": 73,
      "chip": "ym2612"
    },
    {
      "channel": 3,
      "note": 73,
      "start": 30.1003,
      "duration": 0.2343,
      "velocity": 73,
      "chip": "ym2612"
    },
    {
      "channel": 4,
      "note": 73,
      "start": 30.1013,
      "duration": 1.4011,
      "velocity": 87,
      "chip": "ym2612"
    },
    {
      "channel": 1,
      "note": 70,
      "start": 30.1486,
      "duration": 0.0333,
      "velocity": 92,
      "chip": "ym2612"
    },
    {
      "channel": 1,
      "note": 69,
      "start": 30.1819,
      "duration": 0.1165,
      "velocity": 92,
      "chip": "ym2612"
    },
    {
      "channel": 5,
      "note": 54,
      "start": 30.2195,
      "duration": 0.1191,
      "velocity": 103,
      "chip": "ym2612"
    },
    {
      "channel": 1,
      "note": 69,
      "start": 30.2986,
      "duration": 0.0341,
      "velocity": 92,
      "chip": "ym2612"
    },
    {
      "channel": 1,
      "note": 68,
      "start": 30.3327,
      "duration": 0.1324,
      "velocity": 92,
      "chip": "ym2612"
    },
    {
      "channel": 2,
      "note": 73,
      "start": 30.3337,
      "duration": 0.2321,
      "velocity": 73,
      "chip": "ym2612"
    },
    {
      "channel": 3,
      "note": 77,
      "start": 30.3346,
      "duration": 0.2321,
      "velocity": 73,
      "chip": "ym2612"
    },
    {
      "channel": 5,
      "note": 44,
      "start": 30.3387,
      "duration": 0.3473,
      "velocity": 127,
      "chip": "ym2612"
    },
    {
      "channel": 1,
      "note": 68,
      "start": 30.4653,
      "duration": 0.0332,
      "velocity": 92,
      "chip": "ym2612"
    },
    {
      "channel": 1,
      "note": 67,
      "start": 30.4986,
      "duration": 0.1164,
      "velocity": 92,
      "chip": "ym2612"
    },
    {
      "channel": 2,
      "note": 70,
      "start": 30.5659,
      "duration": 0.7017,
      "velocity": 73,
      "chip": "ym2612"
    },
    {
      "channel": 3,
      "note": 73,
      "start": 30.5668,
      "duration": 0.2334,
      "velocity": 73,
      "chip": "ym2612"
    },
    {
      "channel": 1,
      "note": 67,
      "start": 30.6151,
      "duration": 0.0332,
      "velocity": 92,
      "chip": "ym2612"
    },
    {
      "channel": 1,
      "note": 66,
      "start": 30.6485,
      "duration": 0.1165,
      "velocity": 92,
      "chip": "ym2612"
    },
    {
      "channel": 5,
      "note": 54,
      "start": 30.6861,
      "duration": 0.1183,
      "velocity": 103,
      "chip": "ym2612"
    },
    {
      "channel": 1,
      "note": 66,
      "start": 30.7651,
      "duration": 0.0339,
      "velocity": 92,
      "chip": "ym2612"
    },
    {
      "channel": 1,
      "note": 65,
      "start": 30.7992,
      "duration": 0.1325,
      "velocity": 92,
      "chip": "ym2612"
    },
    {
      "channel": 3,
      "note": 70,
      "start": 30.8004,
      "duration": 0.701,
      "velocity": 73,
      "chip": "ym2612"
    },
    {
      "channel": 5,
      "note": 44,
      "start": 30.8044,
      "duration": 0.2314,
      "velocity": 127,
      "chip": "ym2612"
    },
    {
      "channel": 1,
      "note": 65,
      "start": 30.9318,
      "duration": 0.0332,
      "velocity": 92,
      "chip": "ym2612"
    },
    {
      "channel": 1,
      "note": 66,
      "start": 30.9651,
      "duration": 0.1165,
      "velocity": 92,
      "chip": "ym2612"
    },
    {
      "channel": 5,
      "note": 73,
      "start": 31.0359,
      "duration": 0.1166,
      "velocity": 127,
      "chip": "ym2612"
    },
    {
      "channel": 1,
      "note": 66,
      "start": 31.0818,
      "duration": 0.0332,
      "velocity": 92,
      "chip": "ym2612"
    },
    {
      "channel": 1,
      "note": 67,
      "start": 31.1151,
      "duration": 0.1165,
      "velocity": 92,
      "chip": "ym2612"
    },
    {
      "channel": 5,
      "note": 67,
      "start": 31.1526,
      "duration": 0.1192,
      "velocity": 103,
      "chip": "ym2612"
    },
    {
      "channel": 1,
      "note": 67,
      "start": 31.2317,
      "duration": 0.0349,
      "velocity": 92,
      "chip": "ym2612"
    },
    {
      "channel": 0,
      "note": 67,
      "start": 31.2658,
      "duration": 0.0656,
      "velocity": 87,
      "chip": "ym2612"
    },
    {
      "channel": 1,
      "note": 68,
      "start": 31.2668,
      "duration": 0.1317,
      "velocity": 92,
      "chip": "ym2612"
    },
    {
      "channel": 2,
      "note": 67,
      "start": 31.2677,
      "duration": 0.2327,
      "velocity": 73,
      "chip": "ym2612"
    },
    {
      "channel": 5,
      "note": 44,
      "start": 31.2719,
      "duration": 0.2341,
      "velocity": 127,
      "chip": "ym2612"
    },
    {
      "channel": 0,
      "note": 68,
      "start": 31.3315,
      "duration": 0.0833,
      "velocity": 87,
      "chip": "ym2612"
    },
    {
      "channel": 1,
      "note": 68,
      "start": 31.3985,
      "duration": 0.0333,
      "velocity": 92,
      "chip": "ym2612"
    },
    {
      "channel": 0,
      "note": 69,
      "start": 31.4149,
      "duration": 0.0842,
      "velocity": 87,
      "chip": "ym2612"
    },
    {
      "channel": 1,
      "note": 69,
      "start": 31.4319,
      "duration": 0.1165,
      "velocity": 92,
      "chip": "ym2612"
    },
    {
      "channel": 0,
      "note": 70,
      "start": 31.4993,
      "duration": 0.0656,
      "velocity": 87,
      "chip": "ym2612"
    },
    {
      "channel": 2,
      "note": 64,
      "start": 31.5006,
      "duration": 0.2341,
      "velocity": 73,
      "chip": "ym2612"
    },
    {
      "channel": 3,
      "note": 67,
      "start": 31.5015,
      "duration": 0.2341,
      "velocity": 73,
      "chip": "ym2612"
    },
    {
      "channel": 4,
      "note": 67,
      "start": 31.5025,
      "duration": 0.0644,
      "velocity": 87,
      "chip": "ym2612"
    },
    {
      "channel": 5,
      "note": 73,
      "start": 31.5062,
      "duration": 0.1132,
      "velocity": 127,
      "chip": "ym2612"
    },
    {
      "channel": 1,
      "note": 69,
      "start": 31.5486,
      "duration": 0.0332,
      "velocity": 92,
      "chip": "ym2612"
    },
    {
      "channel": 0,
      "note": 71,
      "start": 31.5651,
      "duration": 0.0833,
      "velocity": 87,
      "chip": "ym2612"
    },
    {
      "channel": 4,
      "note": 68,
      "start": 31.567,
      "duration": 0.0833,
      "velocity": 87,
      "chip": "ym2612"
    },
    {
      "channel": 1,
      "note": 70,
      "start": 31.5819,
      "duration": 0.1166,
      "velocity": 92,
      "chip": "ym2612"
    },
    {
      "channel": 5,
      "note": 67,
      "start": 31.6195,
      "duration": 0.1208,
      "velocity": 103,
      "chip": "ym2612"
    },
    {
      "channel": 0,
      "note": 72,
      "start": 31.6485,
      "duration": 0.0843,
      "velocity": 87,
      "chip": "ym2612"
    },
    {
      "channel": 4,
      "note": 69,
      "start": 31.6504,
      "duration": 0.0862,
      "velocity": 87,
      "chip": "ym2612"
    },
    {
      "channel": 1,
      "note": 70,
      "start": 31.6987,
      "duration": 0.035,
      "velocity": 92,
      "chip": "ym2612"
    },
    {
      "channel": 0,
      "note": 73,
      "start": 31.7328,
      "duration": 1.3997,
      "velocity": 87,
      "chip": "ym2612"
    },
    {
      "channel": 1,
      "note": 73,
      "start": 31.7338,
      "duration": 0.1314,
      "velocity": 92,
      "chip": "ym2612"
    },
    {
      "channel": 2,
      "note": 67,
      "start": 31.7347,
      "duration": 0.2312,
      "velocity": 73,
      "chip": "ym2612"
    },
    {
      "channel": 3,
      "note": 64,
      "start": 31.7357,
      "duration": 0.2311,
      "velocity": 73,
      "chip": "ym2612"
    },
    {
      "channel": 4,
      "note": 70,
      "start": 31.7367,
      "duration": 0.0628,
      "velocity": 87,
      "chip": "ym2612"
    },
    {
      "channel": 5,
      "note": 44,
      "start": 31.7403,
      "duration": 0.3457,
      "velocity": 127,
      "chip": "ym2612"
    },
    {
      "channel": 4,
      "note": 71,
      "start": 31.7996,
      "duration": 0.0831,
      "velocity": 87,
      "chip": "ym2612"
    },
    {
      "channel": 1,
      "note": 73,
      "start": 31.8653,
      "duration": 0.0332,
      "velocity": 92,
      "chip": "ym2612"
    },
    {
      "channel": 4,
      "note": 72,
      "start": 31.8828,
      "duration": 0.085,
      "velocity": 87,
      "chip": "ym2612"
    },
    {
      "channel": 1,
      "note": 70,
      "start": 31.8986,
      "duration": 0.1165,
      "velocity": 92,
      "chip": "ym2612"
    },
    {
      "channel": 2,
      "note": 70,
      "start": 31.966,
      "duration": 0.2344,
      "velocity": 73,
      "chip": "ym2612"
    },
    {
      "channel": 3,
      "note": 67,
      "start": 31.967,
      "duration": 0.2344,
      "velocity": 73,
      "chip": "ym2612"
    },
    {
      "channel": 4,
      "note": 73,
      "start": 31.9679,
      "duration": 1.401,
      "velocity": 87,
      "chip": "ym2612"
    },
    {
      "channel": 1,
      "note": 70,
      "start": 32.0153,
      "duration": 0.0333,
      "velocity": 92,
      "chip": "ym2612"
    },
    {
      "channel": 1,
      "note": 69,
      "start": 32.0486,
      "duration": 0.1165,
      "velocity": 92,
      "chip": "ym2612"
    },
    {
      "channel": 5,
      "note": 54,
      "start": 32.0861,
      "duration": 0.1191,
      "velocity": 103,
      "chip": "ym2612"
    },
    {
      "channel": 1,
      "note": 69,
      "start": 32.1653,
      "duration": 0.0341,
      "velocity": 92,
      "chip": "ym2612"
    },
    {
      "channel": 1,
      "note": 68,
      "start": 32.1995,
      "duration": 0.1323,
      "velocity": 92,
      "chip": "ym2612"
    },
    {
      "channel": 2,
      "note": 73,
      "start": 32.2004,
      "duration": 0.232,
      "velocity": 73,
      "chip": "ym2612"
    },
    {
      "channel": 3,
      "note": 70,
      "start": 32.2014,
      "duration": 0.232,
      "velocity": 73,
      "chip": "ym2612"
    },
    {
      "channel": 5,
      "note": 44,
      "start": 32.2054,
      "duration": 0.3472,
      "velocity": 127,
      "chip": "ym2612"
    },
    {
      "channel": 1,
      "note": 68,
      "start": 32.3319,
      "duration": 0.0332,
      "velocity": 92,
      "chip": "ym2612"
    },
    {
      "channel": 1,
      "note": 67,
      "start": 32.3653,
      "duration": 0.1164,
      "velocity": 92,
      "chip": "ym2612"
    },
    {
      "channel": 2,
      "note": 70,
      "start": 32.4326,
      "duration": 0.4661,
      "velocity": 73,
      "chip": "ym2612"
    },
    {
      "channel": 3,
      "note": 73,
      "start": 32.4335,
      "duration": 0.2334,
      "velocity": 73,
      "chip": "ym2612"
    },
    {
      "channel": 1,
      "note": 67,
      "start": 32.4818,
      "duration": 0.0332,
      "velocity": 92,
      "chip": "ym2612"
    },
    {
      "channel": 1,
      "note": 66,
      "start": 32.5151,
      "duration": 0.1165,
      "velocity": 92,
      "chip": "ym2612"
    },
    {
      "channel": 5,
      "note": 54,
      "start": 32.5527,
      "duration": 0.1182,
      "velocity": 103,
      "chip": "ym2612"
    },
    {
      "channel": 1,
      "note": 66,
      "start": 32.6318,
      "duration": 0.0339,
      "velocity": 92,
      "chip": "ym2612"
    },
    {
      "channel": 1,
      "note": 65,
      "start": 32.6658,
      "duration": 0.1326,
      "velocity": 92,
      "chip": "ym2612"
    },
    {
      "channel": 3,
      "note": 70,
      "start": 32.667,
      "duration": 0.4683,
      "velocity": 73,
      "chip": "ym2612"
    },
    {
      "channel": 5,
      "note": 44,
      "start": 32.671,
      "duration": 0.348,
      "velocity": 127,
      "chip": "ym2612"
    },
    {
      "channel": 1,
      "note": 65,
      "start": 32.7985,
      "duration": 0.0332,
      "velocity": 92,
      "chip": "ym2612"
    },
    {
      "channel": 1,
      "note": 66,
      "start": 32.8318,
      "duration": 0.1165,
      "velocity": 92,
      "chip": "ym2612"
    },
    {
      "channel": 2,
      "note": 73,
      "start": 32.8988,
      "duration": 0.2356,
      "velocity": 73,
      "chip": "ym2612"
    },
    {
      "channel": 1,
      "note": 66,
      "start": 32.9485,
      "duration": 0.0332,
      "velocity": 92,
      "chip": "ym2612"
    },
    {
      "channel": 1,
      "note": 67,
      "start": 32.9818,
      "duration": 0.1165,
      "velocity": 92,
      "chip": "ym2612"
    },
    {
      "channel": 5,
      "note": 54,
      "start": 33.0192,
      "duration": 0.12,
      "velocity": 103,
      "chip": "ym2612"
    },
    {
      "channel": 1,
      "note": 67,
      "start": 33.0984,
      "duration": 0.0351,
      "velocity": 92,
      "chip": "ym2612"
    },
    {
      "channel": 0,
      "note": 70,
      "start": 33.1326,
      "duration": 0.0655,
      "velocity": 87,
      "chip": "ym2612"
    },
    {
      "channel": 1,
      "note": 68,
      "start": 33.1336,
      "duration": 0.1315,
      "velocity": 92,
      "chip": "ym2612"
    },
    {
      "channel": 2,
      "note": 72,
      "start": 33.1345,
      "duration": 0.2325,
      "velocity": 73,
      "chip": "ym2612"
    },
    {
      "channel": 3,
      "note": 73,
      "start": 33.1355,
      "duration": 0.2325,
      "velocity": 73,
      "chip": "ym2612"
    },
    {
      "channel": 5,
      "note": 44,
      "start": 33.1394,
      "duration": 0.1132,
      "velocity": 86,
      "chip": "ym2612"
    },
    {
      "channel": 0,
      "note": 66,
      "start": 33.1983,
      "duration": 0.0832,
      "velocity": 87,
      "chip": "ym2612"
    },
    {
      "channel": 5,
      "note": 68,
      "start": 33.2527,
      "duration": 0.12,
      "velocity": 127,
      "chip": "ym2612"
    },
    {
      "channel": 1,
      "note": 68,
      "start": 33.2652,
      "duration": 0.0333,
      "velocity": 92,
      "chip": "ym2612"
    },
    {
      "channel": 0,
      "note": 70,
      "start": 33.2816,
      "duration": 0.0841,
      "velocity": 87,
      "chip": "ym2612"
    },
    {
      "channel": 1,
      "note": 69,
      "start": 33.2986,
      "duration": 0.1165,
      "velocity": 92,
      "chip": "ym2612"
    },
    {
      "channel": 0,
      "note": 73,
      "start": 33.3659,
      "duration": 0.0657,
      "velocity": 87,
      "chip": "ym2612"
    },
    {
      "channel": 2,
      "note": 71,
      "start": 33.3672,
      "duration": 0.2341,
      "velocity": 73,
      "chip": "ym2612"
    },
    {
      "channel": 3,
      "note": 72,
      "start": 33.3681,
      "duration": 0.2341,
      "velocity": 73,
      "chip": "ym2612"
    },
    {
      "channel": 4,
      "note": 70,
      "start": 33.3691,
      "duration": 0.0644,
      "velocity": 87,
      "chip": "ym2612"
    },
    {
      "channel": 5,
      "note": 54,
      "start": 33.3727,
      "duration": 0.1133,
      "velocity": 127,
      "chip": "ym2612"
    },
    {
      "channel": 1,
      "note": 69,
      "start": 33.4152,
      "duration": 0.0333,
      "velocity": 92,
      "chip": "ym2612"
    },
    {
      "channel": 0,
      "note": 70,
      "start": 33.4317,
      "duration": 0.0833,
      "velocity": 87,
      "chip": "ym2612"
    },
    {
      "channel": 4,
      "note": 66,
      "start": 33.4336,
      "duration": 0.0833,
      "velocity": 87,
      "chip": "ym2612"
    },
    {
      "channel": 1,
      "note": 70,
      "start": 33.4486,
      "duration": 0.1166,
      "velocity": 92,
      "chip": "ym2612"
    },
    {
      "channel": 5,
      "note": 73,
      "start": 33.4861,
      "duration": 0.1207,
      "velocity": 103,
      "chip": "ym2612"
    },
    {
      "channel": 0,
      "note": 73,
      "start": 33.5151,
      "duration": 0.0844,
      "velocity": 87,
      "chip": "ym2612"
    },
    {
      "channel": 4,
      "note": 70,
      "start": 33.517,
      "duration": 0.0862,
      "velocity": 87,
      "chip": "ym2612"
    },
    {
      "channel": 1,
      "note": 70,
      "start": 33.5653,
      "duration": 0.0351,
      "velocity": 92,
      "chip": "ym2612"
    },
    {
      "channel": 0,
      "note": 72,
      "start": 33.5995,
      "duration": 0.1488,
      "velocity": 87,
      "chip": "ym2612"
    },
    {
      "channel": 1,
      "note": 72,
      "start": 33.6004,
      "duration": 0.1314,
      "velocity": 92,
      "chip": "ym2612"
    },
    {
      "channel": 2,
      "note": 69,
      "start": 33.6014,
      "duration": 3.7326,
      "velocity": 73,
      "chip": "ym2612"
    },
    {
      "channel": 3,
      "note": 71,
      "start": 33.6023,
      "duration": 0.2304,
      "velocity": 73,
      "chip": "ym2612"
    },
    {
      "channel": 4,
      "note": 73,
      "start": 33.6034,
      "duration": 0.0627,
      "velocity": 87,
      "chip": "ym2612"
    },
    {
      "channel": 5,
      "note": 44,
      "start": 33.607,
      "duration": 0.3457,
      "velocity": 127,
      "chip": "ym2612"
    },
    {
      "channel": 4,
      "note": 70,
      "start": 33.6662,
      "duration": 0.084,
      "velocity": 87,
      "chip": "ym2612"
    },
    {
      "channel": 1,
      "note": 72,
      "start": 33.7319,
      "duration": 0.0332,
      "velocity": 92,
      "chip": "ym2612"
    },
    {
      "channel": 0,
      "note": 66,
      "start": 33.7484,
      "duration": 0.1498,
      "velocity": 87,
      "chip": "ym2612"
    },
    {
      "channel": 4,
      "note": 73,
      "start": 33.7503,
      "duration": 0.0834,
      "velocity": 87,
      "chip": "ym2612"
    },
    {
      "channel": 1,
      "note": 69,
      "start": 33.7652,
      "duration": 0.1166,
      "velocity": 92,
      "chip": "ym2612"
    },
    {
      "channel": 3,
      "note": 69,
      "start": 33.8328,
      "duration": 3.5071,
      "velocity": 73,
      "chip": "ym2612"
    },
    {
      "channel": 4,
      "note": 72,
      "start": 33.8338,
      "duration": 0.1489,
      "velocity": 87,
      "chip": "ym2612"
    },
    {
      "channel": 1,
      "note": 69,
      "start": 33.8819,
      "duration": 0.0332,
      "velocity": 92,
      "chip": "ym2612"
    },
    {
      "channel": 0,
      "note": 65,
      "start": 33.8983,
      "duration": 0.1672,
      "velocity": 87,
      "chip": "ym2612"
    },
    {
      "channel": 1,
      "note": 68,
      "start": 33.9153,
      "duration": 0.1165,
      "velocity": 92,
      "chip": "ym2612"
    },
    {
      "channel": 5,
      "note": 54,
      "start": 33.9528,
      "duration": 0.1183,
      "velocity": 103,
      "chip": "ym2612"
    },
    {
      "channel": 4,
      "note": 66,
      "start": 33.9829,
      "duration": 0.1499,
      "velocity": 87,
      "chip": "ym2612"
    },
    {
      "channel": 1,
      "note": 68,
      "start": 34.0319,
      "duration": 0.0345,
      "velocity": 92,
      "chip": "ym2612"
    },
    {
      "channel": 0,
      "note": 64,
      "start": 34.0656,
      "duration": 0.1492,
      "velocity": 87,
      "chip": "ym2612"
    },
    {
      "channel": 1,
      "note": 67,
      "start": 34.0665,
      "duration": 0.1319,
      "velocity": 92,
      "chip": "ym2612"
    },
    {
      "channel": 5,
      "note": 44,
      "start": 34.0711,
      "duration": 0.3481,
      "velocity": 127,
      "chip": "ym2612"
    },
    {
      "channel": 4,
      "note": 65,
      "start": 34.1328,
      "duration": 0.1667,
      "velocity": 87,
      "chip": "ym2612"
    },
    {
      "channel": 1,
      "note": 67,
      "start": 34.1985,
      "duration": 0.0333,
      "velocity": 92,
      "chip": "ym2612"
    },
    {
      "channel": 0,
      "note": 63,
      "start": 34.2149,
      "duration": 0.1499,
      "velocity": 87,
      "chip": "ym2612"
    },
    {
      "channel": 1,
      "note": 66,
      "start": 34.2319,
      "duration": 0.1165,
      "velocity": 92,
      "chip": "ym2612"
    },
    {
      "channel": 4,
      "note": 64,
      "start": 34.2996,
      "duration": 0.1496,
      "velocity": 87,
      "chip": "ym2612"
    },
    {
      "channel": 1,
      "note": 66,
      "start": 34.3485,
      "duration": 0.0333,
      "velocity": 92,
      "chip": "ym2612"
    },
    {
      "channel": 0,
      "note": 62,
      "start": 34.3649,
      "duration": 0.1672,
      "velocity": 87,
      "chip": "ym2612"
    },
    {
      "channel": 1,
      "note": 65,
      "start": 34.3819,
      "duration": 0.1165,
      "velocity": 92,
      "chip": "ym2612"
    },
    {
      "channel": 5,
      "note": 54,
      "start": 34.4193,
      "duration": 0.1182,
      "velocity": 103,
      "chip": "ym2612"
    },
    {
      "channel": 4,
      "note": 63,
      "start": 34.4493,
      "duration": 0.1498,
      "velocity": 87,
      "chip": "ym2612"
    },
    {
      "channel": 1,
      "note": 65,
      "start": 34.4985,
      "duration": 0.0345,
      "velocity": 92,
      "chip": "ym2612"
    },
    {
      "channel": 0,
      "note": 61,
      "start": 34.5322,
      "duration": 0.1492,
      "velocity": 87,
      "chip": "ym2612"
    },
    {
      "channel": 1,
      "note": 64,
      "start": 34.5331,
      "duration": 0.1319,
      "velocity": 92,
      "chip": "ym2612"
    },
    {
      "channel": 5,
      "note": 44,
      "start": 34.5376,
      "duration": 0.3481,
      "velocity": 127,
      "chip": "ym2612"
    },
    {
      "channel": 4,
      "note": 62,
      "start": 34.5992,
      "duration": 0.1667,
      "velocity": 87,
      "chip": "ym2612"
    },
    {
      "channel": 1,
      "note": 64,
      "start": 34.6652,
      "duration": 0.0332,
      "velocity": 92,
      "chip": "ym2612"
    },
    {
      "channel": 0,
      "note": 62,
      "start": 34.6815,
      "duration": 0.1499,
      "velocity": 87,
      "chip": "ym2612"
    },
    {
      "channel": 1,
      "note": 65,
      "start": 34.6985,
      "duration": 0.1166,
      "velocity": 92,
      "chip": "ym2612"
    },
    {
      "channel": 4,
      "note": 61,
      "start": 34.766,
      "duration": 0.1498,
      "velocity": 87,
      "chip": "ym2612"
    },
    {
      "channel": 1,
      "note": 65,
      "start": 34.8152,
      "duration": 0.0333,
      "velocity": 92,
      "chip": "ym2612"
    },
    {
      "channel": 0,
      "note": 63,
      "start": 34.8315,
      "duration": 0.1672,
      "velocity": 87,
      "chip": "ym2612"
    },
    {
      "channel": 1,
      "note": 66,
      "start": 34.8486,
      "duration": 0.1165,
      "velocity": 92,
      "chip": "ym2612"
    },
    {
      "channel": 5,
      "note": 54,
      "start": 34.8859,
      "duration": 0.1182,
      "velocity": 103,
      "chip": "ym2612"
    },
    {
      "channel": 4,
      "note": 62,
      "start": 34.916,
      "duration": 0.1499,
      "velocity": 87,
      "chip": "ym2612"
    },
    {
      "channel": 1,
      "note": 66,
      "start": 34.9653,
      "duration": 0.0344,
      "velocity": 92,
      "chip": "ym2612"
    },
    {
      "channel": 0,
      "note": 64,
      "start": 34.9988,
      "duration": 0.1492,
      "velocity": 87,
      "chip": "ym2612"
    },
    {
      "channel": 1,
      "note": 67,
      "start": 34.9998,
      "duration": 0.1319,
      "velocity": 92,
      "chip": "ym2612"
    },
    {
      "channel": 5,
      "note": 44,
      "start": 35.0042,
      "duration": 0.3482,
      "velocity": 127,
      "chip": "ym2612"
    },
    {
      "channel": 4,
      "note": 63,
      "start": 35.0659,
      "duration": 0.1667,
      "velocity": 87,
      "chip": "ym2612"
    },
    {
      "channel": 1,
      "note": 67,
      "start": 35.1319,
      "duration": 0.0332,
      "velocity": 92,
      "chip": "ym2612"
    },
    {
      "channel": 0,
      "note": 65,
      "start": 35.1481,
      "duration": 0.1499,
      "velocity": 87,
      "chip": "ym2612"
    },
    {
      "channel": 1,
      "note": 68,
      "start": 35.1651,
      "duration": 0.1166,
      "velocity": 92,
      "chip": "ym2612"
    },
    {
      "channel": 4,
      "note": 64,
      "start": 35.2327,
      "duration": 0.1498,
      "velocity": 87,
      "chip": "ym2612"
    },
    {
      "channel": 1,
      "note": 68,
      "start": 35.2819,
      "duration": 0.0333,
      "velocity": 92,
      "chip": "ym2612"
    },
    {
      "channel": 0,
      "note": 66,
      "start": 35.2981,
      "duration": 0.1675,
      "velocity": 87,
      "chip": "ym2612"
    },
    {
      "channel": 1,
      "note": 69,
      "start": 35.3152,
      "duration": 0.1166,
      "velocity": 92,
      "chip": "ym2612"
    },
    {
      "channel": 5,
      "note": 54,
      "start": 35.3525,
      "duration": 0.1184,
      "velocity": 103,
      "chip": "ym2612"
    },
    {
      "channel": 4,
      "note": 65,
      "start": 35.3826,
      "duration": 0.1499,
      "velocity": 87,
      "chip": "ym2612"
    },
    {
      "channel": 1,
      "note": 69,
      "start": 35.4319,
      "duration": 0.0347,
      "velocity": 92,
      "chip": "ym2612"
    },
    {
      "channel": 0,
      "note": 69,
      "start": 35.4658,
      "duration": 0.149,
      "velocity": 87,
      "chip": "ym2612"
    },
    {
      "channel": 1,
      "note": 72,
      "start": 35.4667,
      "duration": 0.1317,
      "velocity": 92,
      "chip": "ym2612"
    },
    {
      "channel": 5,
      "note": 44,
      "start": 35.4711,
      "duration": 0.348,
      "velocity": 127,
      "chip": "ym2612"
    },
    {
      "channel": 4,
      "note": 66,
      "start": 35.5326,
      "duration": 0.1668,
      "velocity": 87,
      "chip": "ym2612"
    },
    {
      "channel": 1,
      "note": 72,
      "start": 35.5985,
      "duration": 0.0333,
      "velocity": 92,
      "chip": "ym2612"
    },
    {
      "channel": 0,
      "note": 66,
      "start": 35.6149,
      "duration": 0.1499,
      "velocity": 87,
      "chip": "ym2612"
    },
    {
      "channel": 1,
      "note": 69,
      "start": 35.6319,
      "duration": 0.1165,
      "velocity": 92,
      "chip": "ym2612"
    },
    {
      "channel": 4,
      "note": 69,
      "start": 35.6995,
      "duration": 0.1496,
      "velocity": 87,
      "chip": "ym2612"
    },
    {
      "channel": 1,
      "note": 69,
      "start": 35.7485,
      "duration": 0.0333,
      "velocity": 92,
      "chip": "ym2612"
    },
    {
      "channel": 0,
      "note": 65,
      "start": 35.7649,
      "duration": 0.1672,
      "velocity": 87,
      "chip": "ym2612"
    },
    {
      "channel": 1,
      "note": 68,
      "start": 35.7819,
      "duration": 0.1166,
      "velocity": 92,
      "chip": "ym2612"
    },
    {
      "channel": 5,
      "note": 54,
      "start": 35.8192,
      "duration": 0.1182,
      "velocity": 103,
      "chip": "ym2612"
    },
    {
      "channel": 4,
      "note": 66,
      "start": 35.8493,
      "duration": 0.1499,
      "velocity": 87,
      "chip": "ym2612"
    },
    {
      "channel": 1,
      "note": 68,
      "start": 35.8986,
      "duration": 0.0344,
      "velocity": 92,
      "chip": "ym2612"
    },
    {
      "channel": 0,
      "note": 64,
      "start": 35.9322,
      "duration": 0.1492,
      "velocity": 87,
      "chip": "ym2612"
    },
    {
      "channel": 1,
      "note": 67,
      "start": 35.9331,
      "duration": 0.1319,
      "velocity": 92,
      "chip": "ym2612"
    },
    {
      "channel": 5,
      "note": 44,
      "start": 35.9375,
      "duration": 0.3482,
      "velocity": 127,
      "chip": "ym2612"
    },
    {
      "channel": 4,
      "note": 65,
      "start": 35.9992,
      "duration": 0.1667,
      "velocity": 87,
      "chip": "ym2612"
    },
    {
      "channel": 1,
      "note": 67,
      "start": 36.0652,
      "duration": 0.0332,
      "velocity": 92,
      "chip": "ym2612"
    },
    {
      "channel": 0,
      "note": 63,
      "start": 36.0815,
      "duration": 0.1499,
      "velocity": 87,
      "chip": "ym2612"
    },
    {
      "channel": 1,
      "note": 66,
      "start": 36.0985,
      "duration": 0.1166,
      "velocity": 92,
      "chip": "ym2612"
    },
    {
      "channel": 4,
      "note": 64,
      "start": 36.166,
      "duration": 0.1498,
      "velocity": 87,
      "chip": "ym2612"
    },
    {
      "channel": 1,
      "note": 66,
      "start": 36.2152,
      "duration": 0.0333,
      "velocity": 92,
      "chip": "ym2612"
    },
    {
      "channel": 0,
      "note": 62,
      "start": 36.2315,
      "duration": 0.1672,
      "velocity": 87,
      "chip": "ym2612"
    },
    {
      "channel": 1,
      "note": 65,
      "start": 36.2486,
      "duration": 0.1165,
      "velocity": 92,
      "chip": "ym2612"
    },
    {
      "channel": 5,
      "note": 54,
      "start": 36.2859,
      "duration": 0.1182,
      "velocity": 103,
      "chip": "ym2612"
    },
    {
      "channel": 4,
      "note": 63,
      "start": 36.316,
      "duration": 0.1499,
      "velocity": 87,
      "chip": "ym2612"
    },
    {
      "channel": 1,
      "note": 65,
      "start": 36.3653,
      "duration": 0.0344,
      "velocity": 92,
      "chip": "ym2612"
    },
    {
      "channel": 0,
      "note": 61,
      "start": 36.3988,
      "duration": 0.1492,
      "velocity": 87,
      "chip": "ym2612"
    },
    {
      "channel": 1,
      "note": 64,
      "start": 36.3998,
      "duration": 0.1319,
      "velocity": 92,
      "chip": "ym2612"
    },
    {
      "channel": 5,
      "note": 44,
      "start": 36.4042,
      "duration": 0.3482,
      "velocity": 127,
      "chip": "ym2612"
    },
    {
      "channel": 4,
      "note": 62,
      "start": 36.4659,
      "duration": 0.1667,
      "velocity": 87,
      "chip": "ym2612"
    },
    {
      "channel": 1,
      "note": 64,
      "start": 36.5319,
      "duration": 0.0332,
      "velocity": 92,
      "chip": "ym2612"
    },
    {
      "channel": 0,
      "note": 62,
      "start": 36.5481,
      "duration": 0.1499,
      "velocity": 87,
      "chip": "ym2612"
    },
    {
      "channel": 1,
      "note": 65,
      "start": 36.5651,
      "duration": 0.1166,
      "velocity": 92,
      "chip": "ym2612"
    },
    {
      "channel": 4,
      "note": 61,
      "start": 36.6327,
      "duration": 0.1498,
      "velocity": 87,
      "chip": "ym2612"
    },
    {
      "channel": 1,
      "note": 65,
      "start": 36.6819,
      "duration": 0.0333,
      "velocity": 92,
      "chip": "ym2612"
    },
    {
      "channel": 0,
      "note": 63,
      "start": 36.6981,
      "duration": 0.1672,
      "velocity": 87,
      "chip": "ym2612"
    },
    {
      "channel": 1,
      "note": 66,
      "start": 36.7153,
      "duration": 0.1165,
      "velocity": 92,
      "chip": "ym2612"
    },
    {
      "channel": 5,
      "note": 54,
      "start": 36.7525,
      "duration": 0.1182,
      "velocity": 103,
      "chip": "ym2612"
    },
    {
      "channel": 4,
      "note": 62,
      "start": 36.7826,
      "duration": 0.1499,
      "velocity": 87,
      "chip": "ym2612"
    },
    {
      "channel": 1,
      "note": 66,
      "start": 36.8319,
      "duration": 0.0344,
      "velocity": 92,
      "chip": "ym2612"
    },
    {
      "channel": 0,
      "note": 63,
      "start": 36.8655,
      "duration": 0.1492,
      "velocity": 87,
      "chip": "ym2612"
    },
    {
      "channel": 1,
      "note": 66,
      "start": 36.8665,
      "duration": 0.132,
      "velocity": 92,
      "chip": "ym2612"
    },
    {
      "channel": 5,
      "note": 44,
      "start": 36.8709,
      "duration": 0.1149,
      "velocity": 127,
      "chip": "ym2612"
    },
    {
      "channel": 4,
      "note": 63,
      "start": 36.9326,
      "duration": 0.1671,
      "velocity": 87,
      "chip": "ym2612"
    },
    {
      "channel": 5,
      "note": 73,
      "start": 36.9859,
      "duration": 0.1174,
      "velocity": 127,
      "chip": "ym2612"
    },
    {
      "channel": 1,
      "note": 66,
      "start": 36.9985,
      "duration": 0.0332,
      "velocity": 92,
      "chip": "ym2612"
    },
    {
      "channel": 0,
      "note": 64,
      "start": 37.0149,
      "duration": 0.1499,
      "velocity": 87,
      "chip": "ym2612"
    },
    {
      "channel": 1,
      "note": 67,
      "start": 37.0319,
      "duration": 0.1165,
      "velocity": 92,
      "chip": "ym2612"
    },
    {
      "channel": 4,
      "note": 63,
      "start": 37.0997,
      "duration": 0.1495,
      "velocity": 87,
      "chip": "ym2612"
    },
    {
      "channel": 5,
      "note": 67,
      "start": 37.1034,
      "duration": 0.1157,
      "velocity": 127,
      "chip": "ym2612"
    },
    {
      "channel": 1,
      "note": 67,
      "start": 37.1485,
      "duration": 0.0333,
      "velocity": 92,
      "chip": "ym2612"
    },
    {
      "channel": 0,
      "note": 65,
      "start": 37.1648,
      "duration": 0.1674,
      "velocity": 87,
      "chip": "ym2612"
    },
    {
      "channel": 1,
      "note": 68,
      "start": 37.1819,
      "duration": 0.1165,
      "velocity": 92,
      "chip": "ym2612"
    },
    {
      "channel": 5,
      "note": 54,
      "start": 37.2192,
      "duration": 0.116,
      "velocity": 127,
      "chip": "ym2612"
    },
    {
      "channel": 4,
      "note": 64,
      "start": 37.2493,
      "duration": 0.0906,
      "velocity": 87,
      "chip": "ym2612"
    },
    {
      "channel": 1,
      "note": 68,
      "start": 37.2986,
      "duration": 0.0345,
      "velocity": 92,
      "chip": "ym2612"
    },
    {
      "channel": 1,
      "note": 61,
      "start": 37.3332,
      "duration": 0.0067,
      "velocity": 92,
      "chip": "ym2612"
    },
    {
      "channel": 2,
      "note": 69,
      "start": 37.3341,
      "duration": 0.0058,
      "velocity": 73,
      "chip": "ym2612"
    }
  ]
}